cl__1 = 2.702297;
cl__2 = 2.736239;
cl__3 = 0.380761;
cl__4 = 0.827688;
cl__5 = 0.059358;
cl__6 = 0.134584;
Point(1) = {0.927206, -4.595495, 1, cl__1};
Point(2) = {0.927206, -4.595495, 0, cl__1};
Point(3) = {0.927206, 4.677078, 1, cl__2};
Point(4) = {0.927206, 4.677078, 0, cl__2};
Point(5) = {33.56520099999999, -4.595495, 0, cl__3};
Point(6) = {33.56520099999999, -4.595495, 1, cl__3};
Point(7) = {33.56520099999999, 4.677078, 1, cl__4};
Point(8) = {29.690556, -3.489694, 1, cl__5};
Point(9) = {17.631657, -0.06501400000000034, 1, cl__6};
Point(10) = {33.56520099999999, 4.677078, 0, cl__4};
Point(11) = {29.690556, -3.489694, 0, cl__5};
Point(12) = {17.631657, -0.06501400000000034, 0, cl__6};
Line(1) = {2, 1};
Line(2) = {1, 3};
Line(3) = {4, 3};
Line(4) = {2, 4};
Line(5) = {2, 5};
Line(6) = {5, 6};
Line(7) = {1, 6};
Line(8) = {3, 7};
Line(9) = {6, 7};
p10 = newp;
Point(p10 + 1) = {29.68324806983378, -3.39683794311035, 1};
Point(p10 + 2) = {29.66150422482944, -3.306268310512908, 1};
Point(p10 + 3) = {29.62585987061468, -3.220215227145599, 1};
Point(p10 + 4) = {29.57719268948709, -3.140797605514738, 1};
Point(p10 + 5) = {29.51670102896315, -3.069970971036851, 1};
Point(p10 + 6) = {29.44587439448526, -3.009479310512908, 1};
Point(p10 + 7) = {29.3664567728544, -2.960812129385317, 1};
Point(p10 + 8) = {29.28040368948709, -2.925167775170555, 1};
Point(p10 + 9) = {29.18983405688965, -2.903423930166219, 1};
Point(p10 + 10) = {29.096978, -2.896116, 1};
Point(p10 + 11) = {29.00412194311035, -2.903423930166219, 1};
Point(p10 + 12) = {28.91355231051291, -2.925167775170555, 1};
Point(p10 + 13) = {28.8274992271456, -2.960812129385317, 1};
Point(p10 + 14) = {28.74808160551474, -3.009479310512908, 1};
Point(p10 + 15) = {28.67725497103685, -3.069970971036851, 1};
Point(p10 + 16) = {28.61676331051291, -3.140797605514738, 1};
Point(p10 + 17) = {28.56809612938532, -3.220215227145599, 1};
Point(p10 + 18) = {28.53245177517056, -3.306268310512908, 1};
Point(p10 + 19) = {28.51070793016622, -3.39683794311035, 1};
Point(p10 + 20) = {28.5034, -3.489694, 1};
Point(p10 + 21) = {28.51070793016622, -3.58255005688965, 1};
Point(p10 + 22) = {28.53245177517056, -3.673119689487093, 1};
Point(p10 + 23) = {28.56809612938532, -3.7591727728544, 1};
Point(p10 + 24) = {28.61676331051291, -3.838590394485262, 1};
Point(p10 + 25) = {28.67725497103685, -3.909417028963149, 1};
Point(p10 + 26) = {28.74808160551474, -3.969908689487093, 1};
Point(p10 + 27) = {28.8274992271456, -4.018575870614683, 1};
Point(p10 + 28) = {28.91355231051291, -4.054220224829445, 1};
Point(p10 + 29) = {29.00412194311035, -4.07596406983378, 1};
Point(p10 + 30) = {29.096978, -4.083272, 1};
Point(p10 + 31) = {29.18983405688965, -4.07596406983378, 1};
Point(p10 + 32) = {29.28040368948709, -4.054220224829445, 1};
Point(p10 + 33) = {29.3664567728544, -4.018575870614683, 1};
Point(p10 + 34) = {29.44587439448526, -3.969908689487093, 1};
Point(p10 + 35) = {29.51670102896315, -3.909417028963149, 1};
Point(p10 + 36) = {29.57719268948709, -3.838590394485262, 1};
Point(p10 + 37) = {29.62585987061468, -3.759172772854401, 1};
Point(p10 + 38) = {29.66150422482944, -3.673119689487093, 1};
Point(p10 + 39) = {29.68324806983378, -3.58255005688965, 1};
Spline(10) = {8, p10 + 1, p10 + 2, p10 + 3, p10 + 4, p10 + 5, p10 + 6, p10 + 7, p10 + 8, p10 + 9, p10 + 10, p10 + 11, p10 + 12, p10 + 13, p10 + 14, p10 + 15, p10 + 16, p10 + 17, p10 + 18, p10 + 19, p10 + 20, p10 + 21, p10 + 22, p10 + 23, p10 + 24, p10 + 25, p10 + 26, p10 + 27, p10 + 28, p10 + 29, p10 + 30, p10 + 31, p10 + 32, p10 + 33, p10 + 34, p10 + 35, p10 + 36, p10 + 37, p10 + 38, p10 + 39, 8};
p11 = newp;
Point(p11 + 1) = {17.61508750092988, 0.1455214475608143, 1};
Point(p11 + 2) = {17.56578699977764, 0.3508728136755905, 1};
Point(p11 + 3) = {17.48496943850062, 0.5459836661884722, 1};
Point(p11 + 4) = {17.37462481367559, 0.7260497283747975, 1};
Point(p11 + 5) = {17.23747017617854, 0.8866371761785408, 1};
Point(p11 + 6) = {17.0768827283748, 1.023791813675591, 1};
Point(p11 + 7) = {16.89681666618847, 1.134136438500625, 1};
Point(p11 + 8) = {16.70170581367559, 1.214953999777637, 1};
Point(p11 + 9) = {16.49635444756082, 1.264254500929879, 1};
Point(p11 + 10) = {16.285819, 1.280824, 1};
Point(p11 + 11) = {16.07528355243918, 1.264254500929879, 1};
Point(p11 + 12) = {15.86993218632441, 1.214953999777637, 1};
Point(p11 + 13) = {15.67482133381153, 1.134136438500625, 1};
Point(p11 + 14) = {15.4947552716252, 1.023791813675591, 1};
Point(p11 + 15) = {15.33416782382146, 0.8866371761785409, 1};
Point(p11 + 16) = {15.19701318632441, 0.7260497283747976, 1};
Point(p11 + 17) = {15.08666856149938, 0.5459836661884723, 1};
Point(p11 + 18) = {15.00585100022236, 0.3508728136755906, 1};
Point(p11 + 19) = {14.95655049907012, 0.1455214475608144, 1};
Point(p11 + 20) = {14.939981, -0.06501399999999984, 1};
Point(p11 + 21) = {14.95655049907012, -0.2755494475608141, 1};
Point(p11 + 22) = {15.00585100022236, -0.480900813675591, 1};
Point(p11 + 23) = {15.08666856149937, -0.6760116661884715, 1};
Point(p11 + 24) = {15.19701318632441, -0.8560777283747973, 1};
Point(p11 + 25) = {15.33416782382146, -1.016665176178541, 1};
Point(p11 + 26) = {15.4947552716252, -1.15381981367559, 1};
Point(p11 + 27) = {15.67482133381153, -1.264164438500625, 1};
Point(p11 + 28) = {15.86993218632441, -1.344981999777637, 1};
Point(p11 + 29) = {16.07528355243918, -1.394282500929879, 1};
Point(p11 + 30) = {16.285819, -1.410852, 1};
Point(p11 + 31) = {16.49635444756082, -1.394282500929879, 1};
Point(p11 + 32) = {16.70170581367559, -1.344981999777637, 1};
Point(p11 + 33) = {16.89681666618847, -1.264164438500625, 1};
Point(p11 + 34) = {17.0768827283748, -1.153819813675591, 1};
Point(p11 + 35) = {17.23747017617854, -1.016665176178541, 1};
Point(p11 + 36) = {17.37462481367559, -0.8560777283747978, 1};
Point(p11 + 37) = {17.48496943850062, -0.6760116661884725, 1};
Point(p11 + 38) = {17.56578699977764, -0.4809008136755908, 1};
Point(p11 + 39) = {17.61508750092988, -0.2755494475608146, 1};
Spline(11) = {9, p11 + 1, p11 + 2, p11 + 3, p11 + 4, p11 + 5, p11 + 6, p11 + 7, p11 + 8, p11 + 9, p11 + 10, p11 + 11, p11 + 12, p11 + 13, p11 + 14, p11 + 15, p11 + 16, p11 + 17, p11 + 18, p11 + 19, p11 + 20, p11 + 21, p11 + 22, p11 + 23, p11 + 24, p11 + 25, p11 + 26, p11 + 27, p11 + 28, p11 + 29, p11 + 30, p11 + 31, p11 + 32, p11 + 33, p11 + 34, p11 + 35, p11 + 36, p11 + 37, p11 + 38, p11 + 39, 9};
Line(12) = {4, 10};
Line(13) = {10, 7};
Line(14) = {5, 10};
p15 = newp;
Point(p15 + 1) = {29.68324806983378, -3.39683794311035, 0};
Point(p15 + 2) = {29.66150422482944, -3.306268310512908, 0};
Point(p15 + 3) = {29.62585987061468, -3.220215227145599, 0};
Point(p15 + 4) = {29.57719268948709, -3.140797605514738, 0};
Point(p15 + 5) = {29.51670102896315, -3.069970971036851, 0};
Point(p15 + 6) = {29.44587439448526, -3.009479310512908, 0};
Point(p15 + 7) = {29.3664567728544, -2.960812129385317, 0};
Point(p15 + 8) = {29.28040368948709, -2.925167775170555, 0};
Point(p15 + 9) = {29.18983405688965, -2.903423930166219, 0};
Point(p15 + 10) = {29.096978, -2.896116, 0};
Point(p15 + 11) = {29.00412194311035, -2.903423930166219, 0};
Point(p15 + 12) = {28.91355231051291, -2.925167775170555, 0};
Point(p15 + 13) = {28.8274992271456, -2.960812129385317, 0};
Point(p15 + 14) = {28.74808160551474, -3.009479310512908, 0};
Point(p15 + 15) = {28.67725497103685, -3.069970971036851, 0};
Point(p15 + 16) = {28.61676331051291, -3.140797605514738, 0};
Point(p15 + 17) = {28.56809612938532, -3.220215227145599, 0};
Point(p15 + 18) = {28.53245177517056, -3.306268310512908, 0};
Point(p15 + 19) = {28.51070793016622, -3.39683794311035, 0};
Point(p15 + 20) = {28.5034, -3.489694, 0};
Point(p15 + 21) = {28.51070793016622, -3.58255005688965, 0};
Point(p15 + 22) = {28.53245177517056, -3.673119689487093, 0};
Point(p15 + 23) = {28.56809612938532, -3.7591727728544, 0};
Point(p15 + 24) = {28.61676331051291, -3.838590394485262, 0};
Point(p15 + 25) = {28.67725497103685, -3.909417028963149, 0};
Point(p15 + 26) = {28.74808160551474, -3.969908689487093, 0};
Point(p15 + 27) = {28.8274992271456, -4.018575870614683, 0};
Point(p15 + 28) = {28.91355231051291, -4.054220224829445, 0};
Point(p15 + 29) = {29.00412194311035, -4.07596406983378, 0};
Point(p15 + 30) = {29.096978, -4.083272, 0};
Point(p15 + 31) = {29.18983405688965, -4.07596406983378, 0};
Point(p15 + 32) = {29.28040368948709, -4.054220224829445, 0};
Point(p15 + 33) = {29.3664567728544, -4.018575870614683, 0};
Point(p15 + 34) = {29.44587439448526, -3.969908689487093, 0};
Point(p15 + 35) = {29.51670102896315, -3.909417028963149, 0};
Point(p15 + 36) = {29.57719268948709, -3.838590394485262, 0};
Point(p15 + 37) = {29.62585987061468, -3.759172772854401, 0};
Point(p15 + 38) = {29.66150422482944, -3.673119689487093, 0};
Point(p15 + 39) = {29.68324806983378, -3.58255005688965, 0};
Spline(15) = {11, p15 + 1, p15 + 2, p15 + 3, p15 + 4, p15 + 5, p15 + 6, p15 + 7, p15 + 8, p15 + 9, p15 + 10, p15 + 11, p15 + 12, p15 + 13, p15 + 14, p15 + 15, p15 + 16, p15 + 17, p15 + 18, p15 + 19, p15 + 20, p15 + 21, p15 + 22, p15 + 23, p15 + 24, p15 + 25, p15 + 26, p15 + 27, p15 + 28, p15 + 29, p15 + 30, p15 + 31, p15 + 32, p15 + 33, p15 + 34, p15 + 35, p15 + 36, p15 + 37, p15 + 38, p15 + 39, 11};
p16 = newp;
Point(p16 + 1) = {17.61508750092988, 0.1455214475608143, 0};
Point(p16 + 2) = {17.56578699977764, 0.3508728136755905, 0};
Point(p16 + 3) = {17.48496943850062, 0.5459836661884722, 0};
Point(p16 + 4) = {17.37462481367559, 0.7260497283747975, 0};
Point(p16 + 5) = {17.23747017617854, 0.8866371761785408, 0};
Point(p16 + 6) = {17.0768827283748, 1.023791813675591, 0};
Point(p16 + 7) = {16.89681666618847, 1.134136438500625, 0};
Point(p16 + 8) = {16.70170581367559, 1.214953999777637, 0};
Point(p16 + 9) = {16.49635444756082, 1.264254500929879, 0};
Point(p16 + 10) = {16.285819, 1.280824, 0};
Point(p16 + 11) = {16.07528355243918, 1.264254500929879, 0};
Point(p16 + 12) = {15.86993218632441, 1.214953999777637, 0};
Point(p16 + 13) = {15.67482133381153, 1.134136438500625, 0};
Point(p16 + 14) = {15.4947552716252, 1.023791813675591, 0};
Point(p16 + 15) = {15.33416782382146, 0.8866371761785409, 0};
Point(p16 + 16) = {15.19701318632441, 0.7260497283747976, 0};
Point(p16 + 17) = {15.08666856149938, 0.5459836661884723, 0};
Point(p16 + 18) = {15.00585100022236, 0.3508728136755906, 0};
Point(p16 + 19) = {14.95655049907012, 0.1455214475608144, 0};
Point(p16 + 20) = {14.939981, -0.06501399999999984, 0};
Point(p16 + 21) = {14.95655049907012, -0.2755494475608141, 0};
Point(p16 + 22) = {15.00585100022236, -0.480900813675591, 0};
Point(p16 + 23) = {15.08666856149937, -0.6760116661884715, 0};
Point(p16 + 24) = {15.19701318632441, -0.8560777283747973, 0};
Point(p16 + 25) = {15.33416782382146, -1.016665176178541, 0};
Point(p16 + 26) = {15.4947552716252, -1.15381981367559, 0};
Point(p16 + 27) = {15.67482133381153, -1.264164438500625, 0};
Point(p16 + 28) = {15.86993218632441, -1.344981999777637, 0};
Point(p16 + 29) = {16.07528355243918, -1.394282500929879, 0};
Point(p16 + 30) = {16.285819, -1.410852, 0};
Point(p16 + 31) = {16.49635444756082, -1.394282500929879, 0};
Point(p16 + 32) = {16.70170581367559, -1.344981999777637, 0};
Point(p16 + 33) = {16.89681666618847, -1.264164438500625, 0};
Point(p16 + 34) = {17.0768827283748, -1.153819813675591, 0};
Point(p16 + 35) = {17.23747017617854, -1.016665176178541, 0};
Point(p16 + 36) = {17.37462481367559, -0.8560777283747978, 0};
Point(p16 + 37) = {17.48496943850062, -0.6760116661884725, 0};
Point(p16 + 38) = {17.56578699977764, -0.4809008136755908, 0};
Point(p16 + 39) = {17.61508750092988, -0.2755494475608146, 0};
Spline(16) = {12, p16 + 1, p16 + 2, p16 + 3, p16 + 4, p16 + 5, p16 + 6, p16 + 7, p16 + 8, p16 + 9, p16 + 10, p16 + 11, p16 + 12, p16 + 13, p16 + 14, p16 + 15, p16 + 16, p16 + 17, p16 + 18, p16 + 19, p16 + 20, p16 + 21, p16 + 22, p16 + 23, p16 + 24, p16 + 25, p16 + 26, p16 + 27, p16 + 28, p16 + 29, p16 + 30, p16 + 31, p16 + 32, p16 + 33, p16 + 34, p16 + 35, p16 + 36, p16 + 37, p16 + 38, p16 + 39, 12};
Line(17) = {11, 8};
Line(18) = {12, 9};
Curve Loop(1) = {-1, 4, 3, -2};
Plane Surface(1) = {1};
Curve Loop(2) = {-5, 1, 7, -6};
Plane Surface(2) = {2};
Curve Loop(3) = {-2, 7, 9, -8, -10, -11};
Plane Surface(3) = {3};
Curve Loop(4) = {-12, 3, 8, -13};
Plane Surface(4) = {4};
Curve Loop(5) = {-4, 5, 14, -12, -15, -16};
Plane Surface(5) = {5};
Curve Loop(6) = {-6, 14, 13, -9};
Plane Surface(6) = {6};
Curve Loop(7) = {-10, -17, 15, 17};
Surface(7) = {7};
Curve Loop(8) = {-11, -18, 16, 18};
Surface(8) = {8};
Surface Loop(1) = {1, 2, 3, 4, 5, 6, 7, 8};
Volume(1) = {1};
Physical Surface("INFLOW") = {1};
Physical Surface("OUTFLOW") = {6};
Physical Surface("OBSTACLE") = {7, 8};
Physical Surface("WALL_Y") = {2, 4};
Physical Surface("WALL_Z") = {3, 5};
Physical Volume("FLUID") = {1};
