cl__1 = 3.157709;
cl__2 = 0.679045;
cl__3 = 0.665806;
cl__4 = 0.09560299999999999;
cl__5 = 0.09257;
Point(1) = {0.997456, -3.169616, 1, cl__1};
Point(2) = {0.997456, -3.169616, 0, cl__1};
Point(3) = {0.997456, 4.509748999999999, 1, cl__1};
Point(4) = {0.997456, 4.509748999999999, 0, cl__1};
Point(5) = {31.342774, -3.169616, 0, cl__2};
Point(6) = {31.342774, -3.169616, 1, cl__2};
Point(7) = {31.342774, 4.509748999999999, 1, cl__3};
Point(8) = {21.085703, -0.6461770000000003, 1, cl__4};
Point(9) = {25.65291, 0.8019519999999998, 1, cl__5};
Point(10) = {31.342774, 4.509748999999999, 0, cl__3};
Point(11) = {21.085703, -0.6461770000000003, 0, cl__4};
Point(12) = {25.65291, 0.8019519999999998, 0, cl__5};
Line(1) = {2, 1};
Line(2) = {1, 3};
Line(3) = {4, 3};
Line(4) = {2, 4};
Line(5) = {2, 5};
Line(6) = {5, 6};
Line(7) = {1, 6};
Line(8) = {3, 7};
Line(9) = {6, 7};
p10 = newp;
Point(p10 + 1) = {21.07393269657083, -0.4966211148220531, 1};
Point(p10 + 2) = {21.03891161021714, -0.3507477918847134, 1};
Point(p10 + 3) = {20.98150207631328, -0.2121489165245009, 1};
Point(p10 + 4) = {20.90311770811529, -0.08423725303607921, 1};
Point(p10 + 5) = {20.805688588911, 0.02983758891099375, 1};
Point(p10 + 6) = {20.69161374696392, 0.1272667081152866, 1};
Point(p10 + 7) = {20.5637020834755, 0.2056510763132811, 1};
Point(p10 + 8) = {20.42510320811529, 0.2630606102171393, 1};
Point(p10 + 9) = {20.27922988517795, 0.2980816965708289, 1};
Point(p10 + 10) = {20.129674, 0.309852, 1};
Point(p10 + 11) = {19.98011811482206, 0.2980816965708288, 1};
Point(p10 + 12) = {19.83424479188471, 0.2630606102171394, 1};
Point(p10 + 13) = {19.6956459165245, 0.2056510763132812, 1};
Point(p10 + 14) = {19.56773425303608, 0.1272667081152866, 1};
Point(p10 + 15) = {19.45365941108901, 0.02983758891099386, 1};
Point(p10 + 16) = {19.35623029188471, -0.0842372530360791, 1};
Point(p10 + 17) = {19.27784592368672, -0.2121489165245007, 1};
Point(p10 + 18) = {19.22043638978286, -0.3507477918847133, 1};
Point(p10 + 19) = {19.18541530342917, -0.496621114822053, 1};
Point(p10 + 20) = {19.173645, -0.6461769999999999, 1};
Point(p10 + 21) = {19.18541530342917, -0.7957328851779467, 1};
Point(p10 + 22) = {19.22043638978286, -0.9416062081152869, 1};
Point(p10 + 23) = {19.27784592368672, -1.080205083475499, 1};
Point(p10 + 24) = {19.35623029188471, -1.208116746963921, 1};
Point(p10 + 25) = {19.45365941108901, -1.322191588910994, 1};
Point(p10 + 26) = {19.56773425303608, -1.419620708115287, 1};
Point(p10 + 27) = {19.6956459165245, -1.498005076313281, 1};
Point(p10 + 28) = {19.83424479188471, -1.555414610217139, 1};
Point(p10 + 29) = {19.98011811482206, -1.590435696570829, 1};
Point(p10 + 30) = {20.129674, -1.602206, 1};
Point(p10 + 31) = {20.27922988517795, -1.590435696570829, 1};
Point(p10 + 32) = {20.42510320811529, -1.555414610217139, 1};
Point(p10 + 33) = {20.5637020834755, -1.498005076313281, 1};
Point(p10 + 34) = {20.69161374696392, -1.419620708115287, 1};
Point(p10 + 35) = {20.805688588911, -1.322191588910994, 1};
Point(p10 + 36) = {20.90311770811529, -1.208116746963921, 1};
Point(p10 + 37) = {20.98150207631328, -1.080205083475499, 1};
Point(p10 + 38) = {21.03891161021714, -0.9416062081152867, 1};
Point(p10 + 39) = {21.07393269657083, -0.795732885177947, 1};
Spline(10) = {8, p10 + 1, p10 + 2, p10 + 3, p10 + 4, p10 + 5, p10 + 6, p10 + 7, p10 + 8, p10 + 9, p10 + 10, p10 + 11, p10 + 12, p10 + 13, p10 + 14, p10 + 15, p10 + 16, p10 + 17, p10 + 18, p10 + 19, p10 + 20, p10 + 21, p10 + 22, p10 + 23, p10 + 24, p10 + 25, p10 + 26, p10 + 27, p10 + 28, p10 + 29, p10 + 30, p10 + 31, p10 + 32, p10 + 33, p10 + 34, p10 + 35, p10 + 36, p10 + 37, p10 + 38, p10 + 39, 8};
p11 = newp;
Point(p11 + 1) = {25.64151304764228, 0.9467640100256018, 1};
Point(p11 + 2) = {25.60760282136049, 1.088010267760866, 1};
Point(p11 + 3) = {25.55201430346727, 1.222212821570897, 1};
Point(p11 + 4) = {25.47611626776087, 1.346067159188152, 1};
Point(p11 + 5) = {25.38177757577151, 1.456523575771512, 1};
Point(p11 + 6) = {25.27132115918815, 1.550862267760866, 1};
Point(p11 + 7) = {25.1474668215709, 1.626760303467269, 1};
Point(p11 + 8) = {25.01326426776086, 1.682348821360489, 1};
Point(p11 + 9) = {24.8720180100256, 1.716259047642281, 1};
Point(p11 + 10) = {24.727206, 1.727656, 1};
Point(p11 + 11) = {24.5823939899744, 1.716259047642281, 1};
Point(p11 + 12) = {24.44114773223913, 1.682348821360489, 1};
Point(p11 + 13) = {24.3069451784291, 1.626760303467269, 1};
Point(p11 + 14) = {24.18309084081185, 1.550862267760866, 1};
Point(p11 + 15) = {24.07263442422849, 1.456523575771512, 1};
Point(p11 + 16) = {23.97829573223913, 1.346067159188152, 1};
Point(p11 + 17) = {23.90239769653273, 1.222212821570897, 1};
Point(p11 + 18) = {23.84680917863951, 1.088010267760867, 1};
Point(p11 + 19) = {23.81289895235772, 0.946764010025602, 1};
Point(p11 + 20) = {23.801502, 0.8019520000000001, 1};
Point(p11 + 21) = {23.81289895235772, 0.6571399899743983, 1};
Point(p11 + 22) = {23.84680917863951, 0.5158937322391334, 1};
Point(p11 + 23) = {23.90239769653273, 0.3816911784291031, 1};
Point(p11 + 24) = {23.97829573223913, 0.2578368408118485, 1};
Point(p11 + 25) = {24.07263442422849, 0.1473804242284883, 1};
Point(p11 + 26) = {24.18309084081185, 0.05304173223913378, 1};
Point(p11 + 27) = {24.3069451784291, -0.02285630346726875, 1};
Point(p11 + 28) = {24.44114773223913, -0.0784448213604888, 1};
Point(p11 + 29) = {24.5823939899744, -0.1123550476422813, 1};
Point(p11 + 30) = {24.727206, -0.123752, 1};
Point(p11 + 31) = {24.8720180100256, -0.1123550476422814, 1};
Point(p11 + 32) = {25.01326426776086, -0.07844482136048891, 1};
Point(p11 + 33) = {25.14746682157089, -0.02285630346726886, 1};
Point(p11 + 34) = {25.27132115918815, 0.05304173223913355, 1};
Point(p11 + 35) = {25.38177757577151, 0.1473804242284881, 1};
Point(p11 + 36) = {25.47611626776087, 0.2578368408118482, 1};
Point(p11 + 37) = {25.55201430346727, 0.3816911784291024, 1};
Point(p11 + 38) = {25.60760282136049, 0.5158937322391335, 1};
Point(p11 + 39) = {25.64151304764228, 0.6571399899743979, 1};
Spline(11) = {9, p11 + 1, p11 + 2, p11 + 3, p11 + 4, p11 + 5, p11 + 6, p11 + 7, p11 + 8, p11 + 9, p11 + 10, p11 + 11, p11 + 12, p11 + 13, p11 + 14, p11 + 15, p11 + 16, p11 + 17, p11 + 18, p11 + 19, p11 + 20, p11 + 21, p11 + 22, p11 + 23, p11 + 24, p11 + 25, p11 + 26, p11 + 27, p11 + 28, p11 + 29, p11 + 30, p11 + 31, p11 + 32, p11 + 33, p11 + 34, p11 + 35, p11 + 36, p11 + 37, p11 + 38, p11 + 39, 9};
Line(12) = {4, 10};
Line(13) = {10, 7};
Line(14) = {5, 10};
p15 = newp;
Point(p15 + 1) = {21.07393269657083, -0.4966211148220531, 0};
Point(p15 + 2) = {21.03891161021714, -0.3507477918847134, 0};
Point(p15 + 3) = {20.98150207631328, -0.2121489165245009, 0};
Point(p15 + 4) = {20.90311770811529, -0.08423725303607921, 0};
Point(p15 + 5) = {20.805688588911, 0.02983758891099375, 0};
Point(p15 + 6) = {20.69161374696392, 0.1272667081152866, 0};
Point(p15 + 7) = {20.5637020834755, 0.2056510763132811, 0};
Point(p15 + 8) = {20.42510320811529, 0.2630606102171393, 0};
Point(p15 + 9) = {20.27922988517795, 0.2980816965708289, 0};
Point(p15 + 10) = {20.129674, 0.309852, 0};
Point(p15 + 11) = {19.98011811482206, 0.2980816965708288, 0};
Point(p15 + 12) = {19.83424479188471, 0.2630606102171394, 0};
Point(p15 + 13) = {19.6956459165245, 0.2056510763132812, 0};
Point(p15 + 14) = {19.56773425303608, 0.1272667081152866, 0};
Point(p15 + 15) = {19.45365941108901, 0.02983758891099386, 0};
Point(p15 + 16) = {19.35623029188471, -0.0842372530360791, 0};
Point(p15 + 17) = {19.27784592368672, -0.2121489165245007, 0};
Point(p15 + 18) = {19.22043638978286, -0.3507477918847133, 0};
Point(p15 + 19) = {19.18541530342917, -0.496621114822053, 0};
Point(p15 + 20) = {19.173645, -0.6461769999999999, 0};
Point(p15 + 21) = {19.18541530342917, -0.7957328851779467, 0};
Point(p15 + 22) = {19.22043638978286, -0.9416062081152869, 0};
Point(p15 + 23) = {19.27784592368672, -1.080205083475499, 0};
Point(p15 + 24) = {19.35623029188471, -1.208116746963921, 0};
Point(p15 + 25) = {19.45365941108901, -1.322191588910994, 0};
Point(p15 + 26) = {19.56773425303608, -1.419620708115287, 0};
Point(p15 + 27) = {19.6956459165245, -1.498005076313281, 0};
Point(p15 + 28) = {19.83424479188471, -1.555414610217139, 0};
Point(p15 + 29) = {19.98011811482206, -1.590435696570829, 0};
Point(p15 + 30) = {20.129674, -1.602206, 0};
Point(p15 + 31) = {20.27922988517795, -1.590435696570829, 0};
Point(p15 + 32) = {20.42510320811529, -1.555414610217139, 0};
Point(p15 + 33) = {20.5637020834755, -1.498005076313281, 0};
Point(p15 + 34) = {20.69161374696392, -1.419620708115287, 0};
Point(p15 + 35) = {20.805688588911, -1.322191588910994, 0};
Point(p15 + 36) = {20.90311770811529, -1.208116746963921, 0};
Point(p15 + 37) = {20.98150207631328, -1.080205083475499, 0};
Point(p15 + 38) = {21.03891161021714, -0.9416062081152867, 0};
Point(p15 + 39) = {21.07393269657083, -0.795732885177947, 0};
Spline(15) = {11, p15 + 1, p15 + 2, p15 + 3, p15 + 4, p15 + 5, p15 + 6, p15 + 7, p15 + 8, p15 + 9, p15 + 10, p15 + 11, p15 + 12, p15 + 13, p15 + 14, p15 + 15, p15 + 16, p15 + 17, p15 + 18, p15 + 19, p15 + 20, p15 + 21, p15 + 22, p15 + 23, p15 + 24, p15 + 25, p15 + 26, p15 + 27, p15 + 28, p15 + 29, p15 + 30, p15 + 31, p15 + 32, p15 + 33, p15 + 34, p15 + 35, p15 + 36, p15 + 37, p15 + 38, p15 + 39, 11};
p16 = newp;
Point(p16 + 1) = {25.64151304764228, 0.9467640100256018, 0};
Point(p16 + 2) = {25.60760282136049, 1.088010267760866, 0};
Point(p16 + 3) = {25.55201430346727, 1.222212821570897, 0};
Point(p16 + 4) = {25.47611626776087, 1.346067159188152, 0};
Point(p16 + 5) = {25.38177757577151, 1.456523575771512, 0};
Point(p16 + 6) = {25.27132115918815, 1.550862267760866, 0};
Point(p16 + 7) = {25.1474668215709, 1.626760303467269, 0};
Point(p16 + 8) = {25.01326426776086, 1.682348821360489, 0};
Point(p16 + 9) = {24.8720180100256, 1.716259047642281, 0};
Point(p16 + 10) = {24.727206, 1.727656, 0};
Point(p16 + 11) = {24.5823939899744, 1.716259047642281, 0};
Point(p16 + 12) = {24.44114773223913, 1.682348821360489, 0};
Point(p16 + 13) = {24.3069451784291, 1.626760303467269, 0};
Point(p16 + 14) = {24.18309084081185, 1.550862267760866, 0};
Point(p16 + 15) = {24.07263442422849, 1.456523575771512, 0};
Point(p16 + 16) = {23.97829573223913, 1.346067159188152, 0};
Point(p16 + 17) = {23.90239769653273, 1.222212821570897, 0};
Point(p16 + 18) = {23.84680917863951, 1.088010267760867, 0};
Point(p16 + 19) = {23.81289895235772, 0.946764010025602, 0};
Point(p16 + 20) = {23.801502, 0.8019520000000001, 0};
Point(p16 + 21) = {23.81289895235772, 0.6571399899743983, 0};
Point(p16 + 22) = {23.84680917863951, 0.5158937322391334, 0};
Point(p16 + 23) = {23.90239769653273, 0.3816911784291031, 0};
Point(p16 + 24) = {23.97829573223913, 0.2578368408118485, 0};
Point(p16 + 25) = {24.07263442422849, 0.1473804242284883, 0};
Point(p16 + 26) = {24.18309084081185, 0.05304173223913378, 0};
Point(p16 + 27) = {24.3069451784291, -0.02285630346726875, 0};
Point(p16 + 28) = {24.44114773223913, -0.0784448213604888, 0};
Point(p16 + 29) = {24.5823939899744, -0.1123550476422813, 0};
Point(p16 + 30) = {24.727206, -0.123752, 0};
Point(p16 + 31) = {24.8720180100256, -0.1123550476422814, 0};
Point(p16 + 32) = {25.01326426776086, -0.07844482136048891, 0};
Point(p16 + 33) = {25.14746682157089, -0.02285630346726886, 0};
Point(p16 + 34) = {25.27132115918815, 0.05304173223913355, 0};
Point(p16 + 35) = {25.38177757577151, 0.1473804242284881, 0};
Point(p16 + 36) = {25.47611626776087, 0.2578368408118482, 0};
Point(p16 + 37) = {25.55201430346727, 0.3816911784291024, 0};
Point(p16 + 38) = {25.60760282136049, 0.5158937322391335, 0};
Point(p16 + 39) = {25.64151304764228, 0.6571399899743979, 0};
Spline(16) = {12, p16 + 1, p16 + 2, p16 + 3, p16 + 4, p16 + 5, p16 + 6, p16 + 7, p16 + 8, p16 + 9, p16 + 10, p16 + 11, p16 + 12, p16 + 13, p16 + 14, p16 + 15, p16 + 16, p16 + 17, p16 + 18, p16 + 19, p16 + 20, p16 + 21, p16 + 22, p16 + 23, p16 + 24, p16 + 25, p16 + 26, p16 + 27, p16 + 28, p16 + 29, p16 + 30, p16 + 31, p16 + 32, p16 + 33, p16 + 34, p16 + 35, p16 + 36, p16 + 37, p16 + 38, p16 + 39, 12};
Line(17) = {11, 8};
Line(18) = {12, 9};
Curve Loop(1) = {-1, 4, 3, -2};
Plane Surface(1) = {1};
Curve Loop(2) = {-5, 1, 7, -6};
Plane Surface(2) = {2};
Curve Loop(3) = {-2, 7, 9, -8, -10, -11};
Plane Surface(3) = {3};
Curve Loop(4) = {-12, 3, 8, -13};
Plane Surface(4) = {4};
Curve Loop(5) = {-4, 5, 14, -12, -15, -16};
Plane Surface(5) = {5};
Curve Loop(6) = {-6, 14, 13, -9};
Plane Surface(6) = {6};
Curve Loop(7) = {-10, -17, 15, 17};
Surface(7) = {7};
Curve Loop(8) = {-11, -18, 16, 18};
Surface(8) = {8};
Surface Loop(1) = {1, 2, 3, 4, 5, 6, 7, 8};
Volume(1) = {1};
Physical Surface("INFLOW") = {1};
Physical Surface("OUTFLOW") = {6};
Physical Surface("OBSTACLE") = {7, 8};
Physical Surface("WALL_Y") = {2, 4};
Physical Surface("WALL_Z") = {3, 5};
Physical Volume("FLUID") = {1};
