cl__1 = 1.130495;
cl__2 = 1.109572;
cl__3 = 0.984071;
cl__4 = 0.93893;
cl__5 = 0.115984;
cl__6 = 0.106514;
Point(1) = {0.7178099999999999, -3.969491, 1, cl__1};
Point(2) = {0.7178099999999999, -3.969491, 0, cl__1};
Point(3) = {0.7178099999999999, 4.438007000000001, 1, cl__2};
Point(4) = {0.7178099999999999, 4.438007000000001, 0, cl__2};
Point(5) = {34.938087, -3.969491, 0, cl__3};
Point(6) = {34.938087, -3.969491, 1, cl__3};
Point(7) = {34.938087, 4.438007000000001, 1, cl__4};
Point(8) = {18.419648, 0.4353839999999997, 1, cl__5};
Point(9) = {20.829862, 1.53339, 1, cl__6};
Point(10) = {34.938087, 4.438007000000001, 0, cl__4};
Point(11) = {18.419648, 0.4353839999999997, 0, cl__5};
Point(12) = {20.829862, 1.53339, 0, cl__6};
Line(1) = {2, 1};
Line(2) = {1, 3};
Line(3) = {4, 3};
Line(4) = {2, 4};
Line(5) = {2, 5};
Line(6) = {5, 6};
Line(7) = {1, 6};
Line(8) = {3, 7};
Line(9) = {6, 7};
p10 = newp;
Point(p10 + 1) = {18.40536846957918, 0.6168226370633313, 1};
Point(p10 + 2) = {18.36288148774674, 0.7937936527218502, 1};
Point(p10 + 3) = {18.29323322500159, 0.9619394332369163, 1};
Point(p10 + 4) = {18.19813865272185, 1.117119671448398, 1};
Point(p10 + 5) = {18.07993931487784, 1.255513314877843, 1};
Point(p10 + 6) = {17.9415456714484, 1.37371265272185, 1};
Point(p10 + 7) = {17.78636543323692, 1.468807225001588, 1};
Point(p10 + 8) = {17.61821965272185, 1.538455487746738, 1};
Point(p10 + 9) = {17.44124863706333, 1.580942469579183, 1};
Point(p10 + 10) = {17.25981, 1.595222, 1};
Point(p10 + 11) = {17.07837136293667, 1.580942469579183, 1};
Point(p10 + 12) = {16.90140034727815, 1.538455487746738, 1};
Point(p10 + 13) = {16.73325456676309, 1.468807225001588, 1};
Point(p10 + 14) = {16.5780743285516, 1.37371265272185, 1};
Point(p10 + 15) = {16.43968068512216, 1.255513314877843, 1};
Point(p10 + 16) = {16.32148134727815, 1.117119671448398, 1};
Point(p10 + 17) = {16.22638677499841, 0.9619394332369166, 1};
Point(p10 + 18) = {16.15673851225326, 0.7937936527218503, 1};
Point(p10 + 19) = {16.11425153042082, 0.6168226370633314, 1};
Point(p10 + 20) = {16.099972, 0.4353840000000002, 1};
Point(p10 + 21) = {16.11425153042082, 0.2539453629366689, 1};
Point(p10 + 22) = {16.15673851225326, 0.07697434727814939, 1};
Point(p10 + 23) = {16.22638677499841, -0.09117143323691579, 1};
Point(p10 + 24) = {16.32148134727815, -0.2463516714483973, 1};
Point(p10 + 25) = {16.43968068512216, -0.3847453148778428, 1};
Point(p10 + 26) = {16.5780743285516, -0.5029446527218501, 1};
Point(p10 + 27) = {16.73325456676309, -0.598039225001588, 1};
Point(p10 + 28) = {16.90140034727815, -0.6676874877467383, 1};
Point(p10 + 29) = {17.07837136293667, -0.7101744695791832, 1};
Point(p10 + 30) = {17.25981, -0.7244539999999999, 1};
Point(p10 + 31) = {17.44124863706333, -0.7101744695791834, 1};
Point(p10 + 32) = {17.61821965272185, -0.6676874877467383, 1};
Point(p10 + 33) = {17.78636543323692, -0.5980392250015882, 1};
Point(p10 + 34) = {17.9415456714484, -0.5029446527218504, 1};
Point(p10 + 35) = {18.07993931487784, -0.384745314877843, 1};
Point(p10 + 36) = {18.19813865272185, -0.2463516714483976, 1};
Point(p10 + 37) = {18.29323322500159, -0.09117143323691668, 1};
Point(p10 + 38) = {18.36288148774674, 0.0769743472781495, 1};
Point(p10 + 39) = {18.40536846957918, 0.2539453629366685, 1};
Spline(10) = {8, p10 + 1, p10 + 2, p10 + 3, p10 + 4, p10 + 5, p10 + 6, p10 + 7, p10 + 8, p10 + 9, p10 + 10, p10 + 11, p10 + 12, p10 + 13, p10 + 14, p10 + 15, p10 + 16, p10 + 17, p10 + 18, p10 + 19, p10 + 20, p10 + 21, p10 + 22, p10 + 23, p10 + 24, p10 + 25, p10 + 26, p10 + 27, p10 + 28, p10 + 29, p10 + 30, p10 + 31, p10 + 32, p10 + 33, p10 + 34, p10 + 35, p10 + 36, p10 + 37, p10 + 38, p10 + 39, 8};
p11 = newp;
Point(p11 + 1) = {20.8167483591015, 1.700014606092952, 1};
Point(p11 + 2) = {20.77773033776662, 1.862536361388532, 1};
Point(p11 + 3) = {20.713768689174, 2.016953440892581, 1};
Point(p11 + 4) = {20.62643836138853, 2.159463583626805, 1};
Point(p11 + 5) = {20.51788971691304, 2.286557716913039, 1};
Point(p11 + 6) = {20.3907955836268, 2.395106361388532, 1};
Point(p11 + 7) = {20.24828544089258, 2.482436689173998, 1};
Point(p11 + 8) = {20.09386836138853, 2.54639833776662, 1};
Point(p11 + 9) = {19.93134660609295, 2.585416359101505, 1};
Point(p11 + 10) = {19.764722, 2.59853, 1};
Point(p11 + 11) = {19.59809739390705, 2.585416359101505, 1};
Point(p11 + 12) = {19.43557563861147, 2.54639833776662, 1};
Point(p11 + 13) = {19.28115855910742, 2.482436689173998, 1};
Point(p11 + 14) = {19.13864841637319, 2.395106361388532, 1};
Point(p11 + 15) = {19.01155428308696, 2.286557716913039, 1};
Point(p11 + 16) = {18.90300563861147, 2.159463583626805, 1};
Point(p11 + 17) = {18.815675310826, 2.016953440892581, 1};
Point(p11 + 18) = {18.75171366223338, 1.862536361388532, 1};
Point(p11 + 19) = {18.7126956408985, 1.700014606092952, 1};
Point(p11 + 20) = {18.699582, 1.53339, 1};
Point(p11 + 21) = {18.7126956408985, 1.366765393907049, 1};
Point(p11 + 22) = {18.75171366223338, 1.204243638611468, 1};
Point(p11 + 23) = {18.815675310826, 1.04982655910742, 1};
Point(p11 + 24) = {18.90300563861147, 0.9073164163731954, 1};
Point(p11 + 25) = {19.01155428308696, 0.7802222830869608, 1};
Point(p11 + 26) = {19.13864841637319, 0.6716736386114687, 1};
Point(p11 + 27) = {19.28115855910742, 0.584343310826002, 1};
Point(p11 + 28) = {19.43557563861147, 0.5203816622333801, 1};
Point(p11 + 29) = {19.59809739390705, 0.4813636408984951, 1};
Point(p11 + 30) = {19.764722, 0.4682500000000001, 1};
Point(p11 + 31) = {19.93134660609295, 0.4813636408984949, 1};
Point(p11 + 32) = {20.09386836138853, 0.5203816622333801, 1};
Point(p11 + 33) = {20.24828544089258, 0.5843433108260019, 1};
Point(p11 + 34) = {20.3907955836268, 0.6716736386114684, 1};
Point(p11 + 35) = {20.51788971691304, 0.7802222830869606, 1};
Point(p11 + 36) = {20.62643836138853, 0.9073164163731949, 1};
Point(p11 + 37) = {20.713768689174, 1.049826559107419, 1};
Point(p11 + 38) = {20.77773033776662, 1.204243638611468, 1};
Point(p11 + 39) = {20.8167483591015, 1.366765393907048, 1};
Spline(11) = {9, p11 + 1, p11 + 2, p11 + 3, p11 + 4, p11 + 5, p11 + 6, p11 + 7, p11 + 8, p11 + 9, p11 + 10, p11 + 11, p11 + 12, p11 + 13, p11 + 14, p11 + 15, p11 + 16, p11 + 17, p11 + 18, p11 + 19, p11 + 20, p11 + 21, p11 + 22, p11 + 23, p11 + 24, p11 + 25, p11 + 26, p11 + 27, p11 + 28, p11 + 29, p11 + 30, p11 + 31, p11 + 32, p11 + 33, p11 + 34, p11 + 35, p11 + 36, p11 + 37, p11 + 38, p11 + 39, 9};
Line(12) = {4, 10};
Line(13) = {10, 7};
Line(14) = {5, 10};
p15 = newp;
Point(p15 + 1) = {18.40536846957918, 0.6168226370633313, 0};
Point(p15 + 2) = {18.36288148774674, 0.7937936527218502, 0};
Point(p15 + 3) = {18.29323322500159, 0.9619394332369163, 0};
Point(p15 + 4) = {18.19813865272185, 1.117119671448398, 0};
Point(p15 + 5) = {18.07993931487784, 1.255513314877843, 0};
Point(p15 + 6) = {17.9415456714484, 1.37371265272185, 0};
Point(p15 + 7) = {17.78636543323692, 1.468807225001588, 0};
Point(p15 + 8) = {17.61821965272185, 1.538455487746738, 0};
Point(p15 + 9) = {17.44124863706333, 1.580942469579183, 0};
Point(p15 + 10) = {17.25981, 1.595222, 0};
Point(p15 + 11) = {17.07837136293667, 1.580942469579183, 0};
Point(p15 + 12) = {16.90140034727815, 1.538455487746738, 0};
Point(p15 + 13) = {16.73325456676309, 1.468807225001588, 0};
Point(p15 + 14) = {16.5780743285516, 1.37371265272185, 0};
Point(p15 + 15) = {16.43968068512216, 1.255513314877843, 0};
Point(p15 + 16) = {16.32148134727815, 1.117119671448398, 0};
Point(p15 + 17) = {16.22638677499841, 0.9619394332369166, 0};
Point(p15 + 18) = {16.15673851225326, 0.7937936527218503, 0};
Point(p15 + 19) = {16.11425153042082, 0.6168226370633314, 0};
Point(p15 + 20) = {16.099972, 0.4353840000000002, 0};
Point(p15 + 21) = {16.11425153042082, 0.2539453629366689, 0};
Point(p15 + 22) = {16.15673851225326, 0.07697434727814939, 0};
Point(p15 + 23) = {16.22638677499841, -0.09117143323691579, 0};
Point(p15 + 24) = {16.32148134727815, -0.2463516714483973, 0};
Point(p15 + 25) = {16.43968068512216, -0.3847453148778428, 0};
Point(p15 + 26) = {16.5780743285516, -0.5029446527218501, 0};
Point(p15 + 27) = {16.73325456676309, -0.598039225001588, 0};
Point(p15 + 28) = {16.90140034727815, -0.6676874877467383, 0};
Point(p15 + 29) = {17.07837136293667, -0.7101744695791832, 0};
Point(p15 + 30) = {17.25981, -0.7244539999999999, 0};
Point(p15 + 31) = {17.44124863706333, -0.7101744695791834, 0};
Point(p15 + 32) = {17.61821965272185, -0.6676874877467383, 0};
Point(p15 + 33) = {17.78636543323692, -0.5980392250015882, 0};
Point(p15 + 34) = {17.9415456714484, -0.5029446527218504, 0};
Point(p15 + 35) = {18.07993931487784, -0.384745314877843, 0};
Point(p15 + 36) = {18.19813865272185, -0.2463516714483976, 0};
Point(p15 + 37) = {18.29323322500159, -0.09117143323691668, 0};
Point(p15 + 38) = {18.36288148774674, 0.0769743472781495, 0};
Point(p15 + 39) = {18.40536846957918, 0.2539453629366685, 0};
Spline(15) = {11, p15 + 1, p15 + 2, p15 + 3, p15 + 4, p15 + 5, p15 + 6, p15 + 7, p15 + 8, p15 + 9, p15 + 10, p15 + 11, p15 + 12, p15 + 13, p15 + 14, p15 + 15, p15 + 16, p15 + 17, p15 + 18, p15 + 19, p15 + 20, p15 + 21, p15 + 22, p15 + 23, p15 + 24, p15 + 25, p15 + 26, p15 + 27, p15 + 28, p15 + 29, p15 + 30, p15 + 31, p15 + 32, p15 + 33, p15 + 34, p15 + 35, p15 + 36, p15 + 37, p15 + 38, p15 + 39, 11};
p16 = newp;
Point(p16 + 1) = {20.8167483591015, 1.700014606092952, 0};
Point(p16 + 2) = {20.77773033776662, 1.862536361388532, 0};
Point(p16 + 3) = {20.713768689174, 2.016953440892581, 0};
Point(p16 + 4) = {20.62643836138853, 2.159463583626805, 0};
Point(p16 + 5) = {20.51788971691304, 2.286557716913039, 0};
Point(p16 + 6) = {20.3907955836268, 2.395106361388532, 0};
Point(p16 + 7) = {20.24828544089258, 2.482436689173998, 0};
Point(p16 + 8) = {20.09386836138853, 2.54639833776662, 0};
Point(p16 + 9) = {19.93134660609295, 2.585416359101505, 0};
Point(p16 + 10) = {19.764722, 2.59853, 0};
Point(p16 + 11) = {19.59809739390705, 2.585416359101505, 0};
Point(p16 + 12) = {19.43557563861147, 2.54639833776662, 0};
Point(p16 + 13) = {19.28115855910742, 2.482436689173998, 0};
Point(p16 + 14) = {19.13864841637319, 2.395106361388532, 0};
Point(p16 + 15) = {19.01155428308696, 2.286557716913039, 0};
Point(p16 + 16) = {18.90300563861147, 2.159463583626805, 0};
Point(p16 + 17) = {18.815675310826, 2.016953440892581, 0};
Point(p16 + 18) = {18.75171366223338, 1.862536361388532, 0};
Point(p16 + 19) = {18.7126956408985, 1.700014606092952, 0};
Point(p16 + 20) = {18.699582, 1.53339, 0};
Point(p16 + 21) = {18.7126956408985, 1.366765393907049, 0};
Point(p16 + 22) = {18.75171366223338, 1.204243638611468, 0};
Point(p16 + 23) = {18.815675310826, 1.04982655910742, 0};
Point(p16 + 24) = {18.90300563861147, 0.9073164163731954, 0};
Point(p16 + 25) = {19.01155428308696, 0.7802222830869608, 0};
Point(p16 + 26) = {19.13864841637319, 0.6716736386114687, 0};
Point(p16 + 27) = {19.28115855910742, 0.584343310826002, 0};
Point(p16 + 28) = {19.43557563861147, 0.5203816622333801, 0};
Point(p16 + 29) = {19.59809739390705, 0.4813636408984951, 0};
Point(p16 + 30) = {19.764722, 0.4682500000000001, 0};
Point(p16 + 31) = {19.93134660609295, 0.4813636408984949, 0};
Point(p16 + 32) = {20.09386836138853, 0.5203816622333801, 0};
Point(p16 + 33) = {20.24828544089258, 0.5843433108260019, 0};
Point(p16 + 34) = {20.3907955836268, 0.6716736386114684, 0};
Point(p16 + 35) = {20.51788971691304, 0.7802222830869606, 0};
Point(p16 + 36) = {20.62643836138853, 0.9073164163731949, 0};
Point(p16 + 37) = {20.713768689174, 1.049826559107419, 0};
Point(p16 + 38) = {20.77773033776662, 1.204243638611468, 0};
Point(p16 + 39) = {20.8167483591015, 1.366765393907048, 0};
Spline(16) = {12, p16 + 1, p16 + 2, p16 + 3, p16 + 4, p16 + 5, p16 + 6, p16 + 7, p16 + 8, p16 + 9, p16 + 10, p16 + 11, p16 + 12, p16 + 13, p16 + 14, p16 + 15, p16 + 16, p16 + 17, p16 + 18, p16 + 19, p16 + 20, p16 + 21, p16 + 22, p16 + 23, p16 + 24, p16 + 25, p16 + 26, p16 + 27, p16 + 28, p16 + 29, p16 + 30, p16 + 31, p16 + 32, p16 + 33, p16 + 34, p16 + 35, p16 + 36, p16 + 37, p16 + 38, p16 + 39, 12};
Line(17) = {11, 8};
Line(18) = {12, 9};
Curve Loop(1) = {-1, 4, 3, -2};
Plane Surface(1) = {1};
Curve Loop(2) = {-5, 1, 7, -6};
Plane Surface(2) = {2};
Curve Loop(3) = {-2, 7, 9, -8, -10, -11};
Plane Surface(3) = {3};
Curve Loop(4) = {-12, 3, 8, -13};
Plane Surface(4) = {4};
Curve Loop(5) = {-4, 5, 14, -12, -15, -16};
Plane Surface(5) = {5};
Curve Loop(6) = {-6, 14, 13, -9};
Plane Surface(6) = {6};
Curve Loop(7) = {-10, -17, 15, 17};
Surface(7) = {7};
Curve Loop(8) = {-11, -18, 16, 18};
Surface(8) = {8};
Surface Loop(1) = {1, 2, 3, 4, 5, 6, 7, 8};
Volume(1) = {1};
Physical Surface("INFLOW") = {1};
Physical Surface("OUTFLOW") = {6};
Physical Surface("OBSTACLE") = {7, 8};
Physical Surface("WALL_Y") = {2, 4};
Physical Surface("WALL_Z") = {3, 5};
Physical Volume("FLUID") = {1};
