cl__1 = 1.978777;
cl__2 = 1.680709;
cl__3 = 0.779146;
cl__4 = 0.7764529999999999;
cl__5 = 0.103193;
cl__6 = 0.072269;
Point(1) = {0.6535339999999999, -4.073803, 1, cl__1};
Point(2) = {0.6535339999999999, -4.073803, 0, cl__1};
Point(3) = {0.6535339999999999, 4.769343000000001, 1, cl__2};
Point(4) = {0.6535339999999999, 4.769343000000001, 0, cl__2};
Point(5) = {31.784736, -4.073803, 0, cl__3};
Point(6) = {31.784736, -4.073803, 1, cl__3};
Point(7) = {31.784736, 4.769343000000001, 1, cl__4};
Point(8) = {22.438949, 0.3930369999999997, 1, cl__5};
Point(9) = {17.531811, 2.014983, 1, cl__6};
Point(10) = {31.784736, 4.769343000000001, 0, cl__4};
Point(11) = {22.438949, 0.3930369999999997, 0, cl__5};
Point(12) = {17.531811, 2.014983, 0, cl__6};
Line(1) = {2, 1};
Line(2) = {1, 3};
Line(3) = {4, 3};
Line(4) = {2, 4};
Line(5) = {2, 5};
Line(6) = {5, 6};
Line(7) = {1, 6};
Line(8) = {3, 7};
Line(9) = {6, 7};
p10 = newp;
Point(p10 + 1) = {22.4262441800637, 0.5544670432468256, 1};
Point(p10 + 2) = {22.38844255508652, 0.7119221430733169, 1};
Point(p10 + 3) = {22.3264749265318, 0.8615252323582294, 1};
Point(p10 + 4) = {22.24186714307332, 0.999592586539181, 1};
Point(p10 + 5) = {22.13670252913696, 1.122724529136959, 1};
Point(p10 + 6) = {22.01357058653918, 1.227889143073317, 1};
Point(p10 + 7) = {21.87550323235823, 1.312496926531799, 1};
Point(p10 + 8) = {21.72590014307332, 1.374464555086523, 1};
Point(p10 + 9) = {21.56844504324683, 1.412266180063703, 1};
Point(p10 + 10) = {21.407015, 1.424971, 1};
Point(p10 + 11) = {21.24558495675318, 1.412266180063703, 1};
Point(p10 + 12) = {21.08812985692668, 1.374464555086523, 1};
Point(p10 + 13) = {20.93852676764177, 1.312496926531799, 1};
Point(p10 + 14) = {20.80045941346082, 1.227889143073317, 1};
Point(p10 + 15) = {20.67732747086304, 1.122724529136959, 1};
Point(p10 + 16) = {20.57216285692668, 0.999592586539181, 1};
Point(p10 + 17) = {20.4875550734682, 0.8615252323582295, 1};
Point(p10 + 18) = {20.42558744491348, 0.7119221430733171, 1};
Point(p10 + 19) = {20.3877858199363, 0.5544670432468257, 1};
Point(p10 + 20) = {20.375081, 0.3930370000000001, 1};
Point(p10 + 21) = {20.3877858199363, 0.2316069567531746, 1};
Point(p10 + 22) = {20.42558744491348, 0.07415185692668275, 1};
Point(p10 + 23) = {20.4875550734682, -0.07545123235822887, 1};
Point(p10 + 24) = {20.57216285692668, -0.2135185865391808, 1};
Point(p10 + 25) = {20.67732747086304, -0.3366505291369585, 1};
Point(p10 + 26) = {20.80045941346082, -0.4418151430733168, 1};
Point(p10 + 27) = {20.93852676764177, -0.526422926531799, 1};
Point(p10 + 28) = {21.08812985692668, -0.5883905550865229, 1};
Point(p10 + 29) = {21.24558495675318, -0.6261921800637027, 1};
Point(p10 + 30) = {21.407015, -0.6388969999999998, 1};
Point(p10 + 31) = {21.56844504324683, -0.6261921800637027, 1};
Point(p10 + 32) = {21.72590014307332, -0.5883905550865229, 1};
Point(p10 + 33) = {21.87550323235823, -0.5264229265317992, 1};
Point(p10 + 34) = {22.01357058653918, -0.441815143073317, 1};
Point(p10 + 35) = {22.13670252913696, -0.3366505291369588, 1};
Point(p10 + 36) = {22.24186714307332, -0.2135185865391812, 1};
Point(p10 + 37) = {22.3264749265318, -0.07545123235822959, 1};
Point(p10 + 38) = {22.38844255508652, 0.07415185692668286, 1};
Point(p10 + 39) = {22.4262441800637, 0.2316069567531742, 1};
Spline(10) = {8, p10 + 1, p10 + 2, p10 + 3, p10 + 4, p10 + 5, p10 + 6, p10 + 7, p10 + 8, p10 + 9, p10 + 10, p10 + 11, p10 + 12, p10 + 13, p10 + 14, p10 + 15, p10 + 16, p10 + 17, p10 + 18, p10 + 19, p10 + 20, p10 + 21, p10 + 22, p10 + 23, p10 + 24, p10 + 25, p10 + 26, p10 + 27, p10 + 28, p10 + 29, p10 + 30, p10 + 31, p10 + 32, p10 + 33, p10 + 34, p10 + 35, p10 + 36, p10 + 37, p10 + 38, p10 + 39, 8};
p11 = newp;
Point(p11 + 1) = {17.5229134868647, 2.128036623539924, 1};
Point(p11 + 2) = {17.49644003376135, 2.238306491664831, 1};
Point(p11 + 3) = {17.45304250496569, 2.343077394256773, 1};
Point(p11 + 4) = {17.39378949166483, 2.439769523979248, 1};
Point(p11 + 5) = {17.32013999969571, 2.526001999695706, 1};
Point(p11 + 6) = {17.23390752397925, 2.599651491664831, 1};
Point(p11 + 7) = {17.13721539425677, 2.658904504965692, 1};
Point(p11 + 8) = {17.03244449166483, 2.702302033761344, 1};
Point(p11 + 9) = {16.92217462353993, 2.7287754868647, 1};
Point(p11 + 10) = {16.809121, 2.737673, 1};
Point(p11 + 11) = {16.69606737646007, 2.7287754868647, 1};
Point(p11 + 12) = {16.58579750833517, 2.702302033761344, 1};
Point(p11 + 13) = {16.48102660574323, 2.658904504965692, 1};
Point(p11 + 14) = {16.38433447602075, 2.599651491664831, 1};
Point(p11 + 15) = {16.29810200030429, 2.526001999695706, 1};
Point(p11 + 16) = {16.22445250833517, 2.439769523979248, 1};
Point(p11 + 17) = {16.16519949503431, 2.343077394256773, 1};
Point(p11 + 18) = {16.12180196623866, 2.238306491664831, 1};
Point(p11 + 19) = {16.0953285131353, 2.128036623539924, 1};
Point(p11 + 20) = {16.086431, 2.014983, 1};
Point(p11 + 21) = {16.0953285131353, 1.901929376460076, 1};
Point(p11 + 22) = {16.12180196623866, 1.791659508335169, 1};
Point(p11 + 23) = {16.16519949503431, 1.686888605743227, 1};
Point(p11 + 24) = {16.22445250833517, 1.590196476020753, 1};
Point(p11 + 25) = {16.29810200030429, 1.503964000304294, 1};
Point(p11 + 26) = {16.38433447602075, 1.430314508335169, 1};
Point(p11 + 27) = {16.48102660574323, 1.371061495034308, 1};
Point(p11 + 28) = {16.58579750833517, 1.327663966238656, 1};
Point(p11 + 29) = {16.69606737646007, 1.3011905131353, 1};
Point(p11 + 30) = {16.809121, 1.292293, 1};
Point(p11 + 31) = {16.92217462353992, 1.3011905131353, 1};
Point(p11 + 32) = {17.03244449166483, 1.327663966238655, 1};
Point(p11 + 33) = {17.13721539425677, 1.371061495034308, 1};
Point(p11 + 34) = {17.23390752397925, 1.430314508335169, 1};
Point(p11 + 35) = {17.32013999969571, 1.503964000304294, 1};
Point(p11 + 36) = {17.39378949166483, 1.590196476020752, 1};
Point(p11 + 37) = {17.45304250496569, 1.686888605743227, 1};
Point(p11 + 38) = {17.49644003376135, 1.791659508335169, 1};
Point(p11 + 39) = {17.5229134868647, 1.901929376460075, 1};
Spline(11) = {9, p11 + 1, p11 + 2, p11 + 3, p11 + 4, p11 + 5, p11 + 6, p11 + 7, p11 + 8, p11 + 9, p11 + 10, p11 + 11, p11 + 12, p11 + 13, p11 + 14, p11 + 15, p11 + 16, p11 + 17, p11 + 18, p11 + 19, p11 + 20, p11 + 21, p11 + 22, p11 + 23, p11 + 24, p11 + 25, p11 + 26, p11 + 27, p11 + 28, p11 + 29, p11 + 30, p11 + 31, p11 + 32, p11 + 33, p11 + 34, p11 + 35, p11 + 36, p11 + 37, p11 + 38, p11 + 39, 9};
Line(12) = {4, 10};
Line(13) = {10, 7};
Line(14) = {5, 10};
p15 = newp;
Point(p15 + 1) = {22.4262441800637, 0.5544670432468256, 0};
Point(p15 + 2) = {22.38844255508652, 0.7119221430733169, 0};
Point(p15 + 3) = {22.3264749265318, 0.8615252323582294, 0};
Point(p15 + 4) = {22.24186714307332, 0.999592586539181, 0};
Point(p15 + 5) = {22.13670252913696, 1.122724529136959, 0};
Point(p15 + 6) = {22.01357058653918, 1.227889143073317, 0};
Point(p15 + 7) = {21.87550323235823, 1.312496926531799, 0};
Point(p15 + 8) = {21.72590014307332, 1.374464555086523, 0};
Point(p15 + 9) = {21.56844504324683, 1.412266180063703, 0};
Point(p15 + 10) = {21.407015, 1.424971, 0};
Point(p15 + 11) = {21.24558495675318, 1.412266180063703, 0};
Point(p15 + 12) = {21.08812985692668, 1.374464555086523, 0};
Point(p15 + 13) = {20.93852676764177, 1.312496926531799, 0};
Point(p15 + 14) = {20.80045941346082, 1.227889143073317, 0};
Point(p15 + 15) = {20.67732747086304, 1.122724529136959, 0};
Point(p15 + 16) = {20.57216285692668, 0.999592586539181, 0};
Point(p15 + 17) = {20.4875550734682, 0.8615252323582295, 0};
Point(p15 + 18) = {20.42558744491348, 0.7119221430733171, 0};
Point(p15 + 19) = {20.3877858199363, 0.5544670432468257, 0};
Point(p15 + 20) = {20.375081, 0.3930370000000001, 0};
Point(p15 + 21) = {20.3877858199363, 0.2316069567531746, 0};
Point(p15 + 22) = {20.42558744491348, 0.07415185692668275, 0};
Point(p15 + 23) = {20.4875550734682, -0.07545123235822887, 0};
Point(p15 + 24) = {20.57216285692668, -0.2135185865391808, 0};
Point(p15 + 25) = {20.67732747086304, -0.3366505291369585, 0};
Point(p15 + 26) = {20.80045941346082, -0.4418151430733168, 0};
Point(p15 + 27) = {20.93852676764177, -0.526422926531799, 0};
Point(p15 + 28) = {21.08812985692668, -0.5883905550865229, 0};
Point(p15 + 29) = {21.24558495675318, -0.6261921800637027, 0};
Point(p15 + 30) = {21.407015, -0.6388969999999998, 0};
Point(p15 + 31) = {21.56844504324683, -0.6261921800637027, 0};
Point(p15 + 32) = {21.72590014307332, -0.5883905550865229, 0};
Point(p15 + 33) = {21.87550323235823, -0.5264229265317992, 0};
Point(p15 + 34) = {22.01357058653918, -0.441815143073317, 0};
Point(p15 + 35) = {22.13670252913696, -0.3366505291369588, 0};
Point(p15 + 36) = {22.24186714307332, -0.2135185865391812, 0};
Point(p15 + 37) = {22.3264749265318, -0.07545123235822959, 0};
Point(p15 + 38) = {22.38844255508652, 0.07415185692668286, 0};
Point(p15 + 39) = {22.4262441800637, 0.2316069567531742, 0};
Spline(15) = {11, p15 + 1, p15 + 2, p15 + 3, p15 + 4, p15 + 5, p15 + 6, p15 + 7, p15 + 8, p15 + 9, p15 + 10, p15 + 11, p15 + 12, p15 + 13, p15 + 14, p15 + 15, p15 + 16, p15 + 17, p15 + 18, p15 + 19, p15 + 20, p15 + 21, p15 + 22, p15 + 23, p15 + 24, p15 + 25, p15 + 26, p15 + 27, p15 + 28, p15 + 29, p15 + 30, p15 + 31, p15 + 32, p15 + 33, p15 + 34, p15 + 35, p15 + 36, p15 + 37, p15 + 38, p15 + 39, 11};
p16 = newp;
Point(p16 + 1) = {17.5229134868647, 2.128036623539924, 0};
Point(p16 + 2) = {17.49644003376135, 2.238306491664831, 0};
Point(p16 + 3) = {17.45304250496569, 2.343077394256773, 0};
Point(p16 + 4) = {17.39378949166483, 2.439769523979248, 0};
Point(p16 + 5) = {17.32013999969571, 2.526001999695706, 0};
Point(p16 + 6) = {17.23390752397925, 2.599651491664831, 0};
Point(p16 + 7) = {17.13721539425677, 2.658904504965692, 0};
Point(p16 + 8) = {17.03244449166483, 2.702302033761344, 0};
Point(p16 + 9) = {16.92217462353993, 2.7287754868647, 0};
Point(p16 + 10) = {16.809121, 2.737673, 0};
Point(p16 + 11) = {16.69606737646007, 2.7287754868647, 0};
Point(p16 + 12) = {16.58579750833517, 2.702302033761344, 0};
Point(p16 + 13) = {16.48102660574323, 2.658904504965692, 0};
Point(p16 + 14) = {16.38433447602075, 2.599651491664831, 0};
Point(p16 + 15) = {16.29810200030429, 2.526001999695706, 0};
Point(p16 + 16) = {16.22445250833517, 2.439769523979248, 0};
Point(p16 + 17) = {16.16519949503431, 2.343077394256773, 0};
Point(p16 + 18) = {16.12180196623866, 2.238306491664831, 0};
Point(p16 + 19) = {16.0953285131353, 2.128036623539924, 0};
Point(p16 + 20) = {16.086431, 2.014983, 0};
Point(p16 + 21) = {16.0953285131353, 1.901929376460076, 0};
Point(p16 + 22) = {16.12180196623866, 1.791659508335169, 0};
Point(p16 + 23) = {16.16519949503431, 1.686888605743227, 0};
Point(p16 + 24) = {16.22445250833517, 1.590196476020753, 0};
Point(p16 + 25) = {16.29810200030429, 1.503964000304294, 0};
Point(p16 + 26) = {16.38433447602075, 1.430314508335169, 0};
Point(p16 + 27) = {16.48102660574323, 1.371061495034308, 0};
Point(p16 + 28) = {16.58579750833517, 1.327663966238656, 0};
Point(p16 + 29) = {16.69606737646007, 1.3011905131353, 0};
Point(p16 + 30) = {16.809121, 1.292293, 0};
Point(p16 + 31) = {16.92217462353992, 1.3011905131353, 0};
Point(p16 + 32) = {17.03244449166483, 1.327663966238655, 0};
Point(p16 + 33) = {17.13721539425677, 1.371061495034308, 0};
Point(p16 + 34) = {17.23390752397925, 1.430314508335169, 0};
Point(p16 + 35) = {17.32013999969571, 1.503964000304294, 0};
Point(p16 + 36) = {17.39378949166483, 1.590196476020752, 0};
Point(p16 + 37) = {17.45304250496569, 1.686888605743227, 0};
Point(p16 + 38) = {17.49644003376135, 1.791659508335169, 0};
Point(p16 + 39) = {17.5229134868647, 1.901929376460075, 0};
Spline(16) = {12, p16 + 1, p16 + 2, p16 + 3, p16 + 4, p16 + 5, p16 + 6, p16 + 7, p16 + 8, p16 + 9, p16 + 10, p16 + 11, p16 + 12, p16 + 13, p16 + 14, p16 + 15, p16 + 16, p16 + 17, p16 + 18, p16 + 19, p16 + 20, p16 + 21, p16 + 22, p16 + 23, p16 + 24, p16 + 25, p16 + 26, p16 + 27, p16 + 28, p16 + 29, p16 + 30, p16 + 31, p16 + 32, p16 + 33, p16 + 34, p16 + 35, p16 + 36, p16 + 37, p16 + 38, p16 + 39, 12};
Line(17) = {11, 8};
Line(18) = {12, 9};
Curve Loop(1) = {-1, 4, 3, -2};
Plane Surface(1) = {1};
Curve Loop(2) = {-5, 1, 7, -6};
Plane Surface(2) = {2};
Curve Loop(3) = {-2, 7, 9, -8, -10, -11};
Plane Surface(3) = {3};
Curve Loop(4) = {-12, 3, 8, -13};
Plane Surface(4) = {4};
Curve Loop(5) = {-4, 5, 14, -12, -15, -16};
Plane Surface(5) = {5};
Curve Loop(6) = {-6, 14, 13, -9};
Plane Surface(6) = {6};
Curve Loop(7) = {-10, -17, 15, 17};
Surface(7) = {7};
Curve Loop(8) = {-11, -18, 16, 18};
Surface(8) = {8};
Surface Loop(1) = {1, 2, 3, 4, 5, 6, 7, 8};
Volume(1) = {1};
Physical Surface("INFLOW") = {1};
Physical Surface("OUTFLOW") = {6};
Physical Surface("OBSTACLE") = {7, 8};
Physical Surface("WALL_Y") = {2, 4};
Physical Surface("WALL_Z") = {3, 5};
Physical Volume("FLUID") = {1};
