cl__1 = 1.25726;
cl__2 = 1.243248;
cl__3 = 0.955558;
cl__4 = 0.889869;
cl__5 = 0.136689;
cl__6 = 0.062028;
Point(1) = {0.226242, -4.421732, 1, cl__1};
Point(2) = {0.226242, -4.421732, 0, cl__1};
Point(3) = {0.226242, 4.958855999999999, 1, cl__2};
Point(4) = {0.226242, 4.958855999999999, 0, cl__2};
Point(5) = {30.616393, -4.421732, 0, cl__3};
Point(6) = {30.616393, -4.421732, 1, cl__3};
Point(7) = {30.616393, 4.958855999999999, 1, cl__4};
Point(8) = {14.183898, 0.3331459999999997, 1, cl__5};
Point(9) = {21.363957, 1.128233, 1, cl__6};
Point(10) = {30.616393, 4.958855999999999, 0, cl__4};
Point(11) = {14.183898, 0.3331459999999997, 0, cl__5};
Point(12) = {21.363957, 1.128233, 0, cl__6};
Line(1) = {2, 1};
Line(2) = {1, 3};
Line(3) = {4, 3};
Line(4) = {2, 4};
Line(5) = {2, 5};
Line(6) = {5, 6};
Line(7) = {1, 6};
Line(8) = {3, 7};
Line(9) = {6, 7};
p10 = newp;
Point(p10 + 1) = {14.16706926662945, 0.5469753316567013, 1};
Point(p10 + 2) = {14.11699744578475, 0.7555394755091493, 1};
Point(p10 + 3) = {14.03491547187394, 0.9537028901509881, 1};
Point(p10 + 4) = {13.92284447550915, 1.136586134647068, 1};
Point(p10 + 5) = {13.78354401656321, 1.299686016563205, 1};
Point(p10 + 6) = {13.62044413464707, 1.438986475509149, 1};
Point(p10 + 7) = {13.43756089015099, 1.551057471873935, 1};
Point(p10 + 8) = {13.23939747550915, 1.633139445784748, 1};
Point(p10 + 9) = {13.0308333316567, 1.68321126662945, 1};
Point(p10 + 10) = {12.817004, 1.70004, 1};
Point(p10 + 11) = {12.6031746683433, 1.68321126662945, 1};
Point(p10 + 12) = {12.39461052449085, 1.633139445784748, 1};
Point(p10 + 13) = {12.19644710984901, 1.551057471873935, 1};
Point(p10 + 14) = {12.01356386535293, 1.438986475509149, 1};
Point(p10 + 15) = {11.8504639834368, 1.299686016563205, 1};
Point(p10 + 16) = {11.71116352449085, 1.136586134647068, 1};
Point(p10 + 17) = {11.59909252812607, 0.9537028901509881, 1};
Point(p10 + 18) = {11.51701055421525, 0.7555394755091496, 1};
Point(p10 + 19) = {11.46693873337055, 0.5469753316567014, 1};
Point(p10 + 20) = {11.45011, 0.3331460000000002, 1};
Point(p10 + 21) = {11.46693873337055, 0.1193166683432988, 1};
Point(p10 + 22) = {11.51701055421525, -0.0892474755091498, 1};
Point(p10 + 23) = {11.59909252812607, -0.2874108901509874, 1};
Point(p10 + 24) = {11.71116352449085, -0.4702941346470677, 1};
Point(p10 + 25) = {11.8504639834368, -0.6333940165632046, 1};
Point(p10 + 26) = {12.01356386535293, -0.7726944755091494, 1};
Point(p10 + 27) = {12.19644710984901, -0.8847654718739348, 1};
Point(p10 + 28) = {12.39461052449085, -0.9668474457847478, 1};
Point(p10 + 29) = {12.6031746683433, -1.01691926662945, 1};
Point(p10 + 30) = {12.817004, -1.033748, 1};
Point(p10 + 31) = {13.0308333316567, -1.01691926662945, 1};
Point(p10 + 32) = {13.23939747550915, -0.9668474457847478, 1};
Point(p10 + 33) = {13.43756089015099, -0.8847654718739351, 1};
Point(p10 + 34) = {13.62044413464707, -0.7726944755091496, 1};
Point(p10 + 35) = {13.78354401656321, -0.633394016563205, 1};
Point(p10 + 36) = {13.92284447550915, -0.4702941346470681, 1};
Point(p10 + 37) = {14.03491547187394, -0.2874108901509884, 1};
Point(p10 + 38) = {14.11699744578475, -0.08924747550914969, 1};
Point(p10 + 39) = {14.16706926662945, 0.1193166683432983, 1};
Spline(10) = {8, p10 + 1, p10 + 2, p10 + 3, p10 + 4, p10 + 5, p10 + 6, p10 + 7, p10 + 8, p10 + 9, p10 + 10, p10 + 11, p10 + 12, p10 + 13, p10 + 14, p10 + 15, p10 + 16, p10 + 17, p10 + 18, p10 + 19, p10 + 20, p10 + 21, p10 + 22, p10 + 23, p10 + 24, p10 + 25, p10 + 26, p10 + 27, p10 + 28, p10 + 29, p10 + 30, p10 + 31, p10 + 32, p10 + 33, p10 + 34, p10 + 35, p10 + 36, p10 + 37, p10 + 38, p10 + 39, 8};
p11 = newp;
Point(p11 + 1) = {21.35632029928103, 1.225266482844084, 1};
Point(p11 + 2) = {21.33359823804059, 1.319910679304881, 1};
Point(p11 + 3) = {21.29635030883661, 1.409835135159446, 1};
Point(p11 + 4) = {21.24549367930488, 1.49282561186248, 1};
Point(p11 + 5) = {21.18228060844795, 1.566838608447954, 1};
Point(p11 + 6) = {21.10826761186248, 1.630051679304881, 1};
Point(p11 + 7) = {21.02527713515945, 1.680908308836609, 1};
Point(p11 + 8) = {20.93535267930488, 1.71815623804059, 1};
Point(p11 + 9) = {20.84070848284409, 1.740878299281033, 1};
Point(p11 + 10) = {20.743675, 1.748515, 1};
Point(p11 + 11) = {20.64664151715591, 1.740878299281033, 1};
Point(p11 + 12) = {20.55199732069512, 1.71815623804059, 1};
Point(p11 + 13) = {20.46207286484055, 1.680908308836609, 1};
Point(p11 + 14) = {20.37908238813752, 1.630051679304881, 1};
Point(p11 + 15) = {20.30506939155205, 1.566838608447954, 1};
Point(p11 + 16) = {20.24185632069512, 1.49282561186248, 1};
Point(p11 + 17) = {20.19099969116339, 1.409835135159446, 1};
Point(p11 + 18) = {20.15375176195941, 1.319910679304881, 1};
Point(p11 + 19) = {20.13102970071897, 1.225266482844085, 1};
Point(p11 + 20) = {20.123393, 1.128233, 1};
Point(p11 + 21) = {20.13102970071897, 1.031199517155916, 1};
Point(p11 + 22) = {20.15375176195941, 0.9365553206951187, 1};
Point(p11 + 23) = {20.19099969116339, 0.8466308648405548, 1};
Point(p11 + 24) = {20.24185632069512, 0.7636403881375202, 1};
Point(p11 + 25) = {20.30506939155205, 0.689627391552046, 1};
Point(p11 + 26) = {20.37908238813752, 0.6264143206951189, 1};
Point(p11 + 27) = {20.46207286484055, 0.5755576911633908, 1};
Point(p11 + 28) = {20.55199732069512, 0.5383097619594096, 1};
Point(p11 + 29) = {20.64664151715591, 0.5155877007189669, 1};
Point(p11 + 30) = {20.743675, 0.507951, 1};
Point(p11 + 31) = {20.84070848284408, 0.5155877007189668, 1};
Point(p11 + 32) = {20.93535267930488, 0.5383097619594096, 1};
Point(p11 + 33) = {21.02527713515945, 0.5755576911633908, 1};
Point(p11 + 34) = {21.10826761186248, 0.6264143206951188, 1};
Point(p11 + 35) = {21.18228060844795, 0.6896273915520459, 1};
Point(p11 + 36) = {21.24549367930488, 0.76364038813752, 1};
Point(p11 + 37) = {21.29635030883661, 0.8466308648405544, 1};
Point(p11 + 38) = {21.33359823804059, 0.9365553206951188, 1};
Point(p11 + 39) = {21.35632029928103, 1.031199517155915, 1};
Spline(11) = {9, p11 + 1, p11 + 2, p11 + 3, p11 + 4, p11 + 5, p11 + 6, p11 + 7, p11 + 8, p11 + 9, p11 + 10, p11 + 11, p11 + 12, p11 + 13, p11 + 14, p11 + 15, p11 + 16, p11 + 17, p11 + 18, p11 + 19, p11 + 20, p11 + 21, p11 + 22, p11 + 23, p11 + 24, p11 + 25, p11 + 26, p11 + 27, p11 + 28, p11 + 29, p11 + 30, p11 + 31, p11 + 32, p11 + 33, p11 + 34, p11 + 35, p11 + 36, p11 + 37, p11 + 38, p11 + 39, 9};
Line(12) = {4, 10};
Line(13) = {10, 7};
Line(14) = {5, 10};
p15 = newp;
Point(p15 + 1) = {14.16706926662945, 0.5469753316567013, 0};
Point(p15 + 2) = {14.11699744578475, 0.7555394755091493, 0};
Point(p15 + 3) = {14.03491547187394, 0.9537028901509881, 0};
Point(p15 + 4) = {13.92284447550915, 1.136586134647068, 0};
Point(p15 + 5) = {13.78354401656321, 1.299686016563205, 0};
Point(p15 + 6) = {13.62044413464707, 1.438986475509149, 0};
Point(p15 + 7) = {13.43756089015099, 1.551057471873935, 0};
Point(p15 + 8) = {13.23939747550915, 1.633139445784748, 0};
Point(p15 + 9) = {13.0308333316567, 1.68321126662945, 0};
Point(p15 + 10) = {12.817004, 1.70004, 0};
Point(p15 + 11) = {12.6031746683433, 1.68321126662945, 0};
Point(p15 + 12) = {12.39461052449085, 1.633139445784748, 0};
Point(p15 + 13) = {12.19644710984901, 1.551057471873935, 0};
Point(p15 + 14) = {12.01356386535293, 1.438986475509149, 0};
Point(p15 + 15) = {11.8504639834368, 1.299686016563205, 0};
Point(p15 + 16) = {11.71116352449085, 1.136586134647068, 0};
Point(p15 + 17) = {11.59909252812607, 0.9537028901509881, 0};
Point(p15 + 18) = {11.51701055421525, 0.7555394755091496, 0};
Point(p15 + 19) = {11.46693873337055, 0.5469753316567014, 0};
Point(p15 + 20) = {11.45011, 0.3331460000000002, 0};
Point(p15 + 21) = {11.46693873337055, 0.1193166683432988, 0};
Point(p15 + 22) = {11.51701055421525, -0.0892474755091498, 0};
Point(p15 + 23) = {11.59909252812607, -0.2874108901509874, 0};
Point(p15 + 24) = {11.71116352449085, -0.4702941346470677, 0};
Point(p15 + 25) = {11.8504639834368, -0.6333940165632046, 0};
Point(p15 + 26) = {12.01356386535293, -0.7726944755091494, 0};
Point(p15 + 27) = {12.19644710984901, -0.8847654718739348, 0};
Point(p15 + 28) = {12.39461052449085, -0.9668474457847478, 0};
Point(p15 + 29) = {12.6031746683433, -1.01691926662945, 0};
Point(p15 + 30) = {12.817004, -1.033748, 0};
Point(p15 + 31) = {13.0308333316567, -1.01691926662945, 0};
Point(p15 + 32) = {13.23939747550915, -0.9668474457847478, 0};
Point(p15 + 33) = {13.43756089015099, -0.8847654718739351, 0};
Point(p15 + 34) = {13.62044413464707, -0.7726944755091496, 0};
Point(p15 + 35) = {13.78354401656321, -0.633394016563205, 0};
Point(p15 + 36) = {13.92284447550915, -0.4702941346470681, 0};
Point(p15 + 37) = {14.03491547187394, -0.2874108901509884, 0};
Point(p15 + 38) = {14.11699744578475, -0.08924747550914969, 0};
Point(p15 + 39) = {14.16706926662945, 0.1193166683432983, 0};
Spline(15) = {11, p15 + 1, p15 + 2, p15 + 3, p15 + 4, p15 + 5, p15 + 6, p15 + 7, p15 + 8, p15 + 9, p15 + 10, p15 + 11, p15 + 12, p15 + 13, p15 + 14, p15 + 15, p15 + 16, p15 + 17, p15 + 18, p15 + 19, p15 + 20, p15 + 21, p15 + 22, p15 + 23, p15 + 24, p15 + 25, p15 + 26, p15 + 27, p15 + 28, p15 + 29, p15 + 30, p15 + 31, p15 + 32, p15 + 33, p15 + 34, p15 + 35, p15 + 36, p15 + 37, p15 + 38, p15 + 39, 11};
p16 = newp;
Point(p16 + 1) = {21.35632029928103, 1.225266482844084, 0};
Point(p16 + 2) = {21.33359823804059, 1.319910679304881, 0};
Point(p16 + 3) = {21.29635030883661, 1.409835135159446, 0};
Point(p16 + 4) = {21.24549367930488, 1.49282561186248, 0};
Point(p16 + 5) = {21.18228060844795, 1.566838608447954, 0};
Point(p16 + 6) = {21.10826761186248, 1.630051679304881, 0};
Point(p16 + 7) = {21.02527713515945, 1.680908308836609, 0};
Point(p16 + 8) = {20.93535267930488, 1.71815623804059, 0};
Point(p16 + 9) = {20.84070848284409, 1.740878299281033, 0};
Point(p16 + 10) = {20.743675, 1.748515, 0};
Point(p16 + 11) = {20.64664151715591, 1.740878299281033, 0};
Point(p16 + 12) = {20.55199732069512, 1.71815623804059, 0};
Point(p16 + 13) = {20.46207286484055, 1.680908308836609, 0};
Point(p16 + 14) = {20.37908238813752, 1.630051679304881, 0};
Point(p16 + 15) = {20.30506939155205, 1.566838608447954, 0};
Point(p16 + 16) = {20.24185632069512, 1.49282561186248, 0};
Point(p16 + 17) = {20.19099969116339, 1.409835135159446, 0};
Point(p16 + 18) = {20.15375176195941, 1.319910679304881, 0};
Point(p16 + 19) = {20.13102970071897, 1.225266482844085, 0};
Point(p16 + 20) = {20.123393, 1.128233, 0};
Point(p16 + 21) = {20.13102970071897, 1.031199517155916, 0};
Point(p16 + 22) = {20.15375176195941, 0.9365553206951187, 0};
Point(p16 + 23) = {20.19099969116339, 0.8466308648405548, 0};
Point(p16 + 24) = {20.24185632069512, 0.7636403881375202, 0};
Point(p16 + 25) = {20.30506939155205, 0.689627391552046, 0};
Point(p16 + 26) = {20.37908238813752, 0.6264143206951189, 0};
Point(p16 + 27) = {20.46207286484055, 0.5755576911633908, 0};
Point(p16 + 28) = {20.55199732069512, 0.5383097619594096, 0};
Point(p16 + 29) = {20.64664151715591, 0.5155877007189669, 0};
Point(p16 + 30) = {20.743675, 0.507951, 0};
Point(p16 + 31) = {20.84070848284408, 0.5155877007189668, 0};
Point(p16 + 32) = {20.93535267930488, 0.5383097619594096, 0};
Point(p16 + 33) = {21.02527713515945, 0.5755576911633908, 0};
Point(p16 + 34) = {21.10826761186248, 0.6264143206951188, 0};
Point(p16 + 35) = {21.18228060844795, 0.6896273915520459, 0};
Point(p16 + 36) = {21.24549367930488, 0.76364038813752, 0};
Point(p16 + 37) = {21.29635030883661, 0.8466308648405544, 0};
Point(p16 + 38) = {21.33359823804059, 0.9365553206951188, 0};
Point(p16 + 39) = {21.35632029928103, 1.031199517155915, 0};
Spline(16) = {12, p16 + 1, p16 + 2, p16 + 3, p16 + 4, p16 + 5, p16 + 6, p16 + 7, p16 + 8, p16 + 9, p16 + 10, p16 + 11, p16 + 12, p16 + 13, p16 + 14, p16 + 15, p16 + 16, p16 + 17, p16 + 18, p16 + 19, p16 + 20, p16 + 21, p16 + 22, p16 + 23, p16 + 24, p16 + 25, p16 + 26, p16 + 27, p16 + 28, p16 + 29, p16 + 30, p16 + 31, p16 + 32, p16 + 33, p16 + 34, p16 + 35, p16 + 36, p16 + 37, p16 + 38, p16 + 39, 12};
Line(17) = {11, 8};
Line(18) = {12, 9};
Curve Loop(1) = {-1, 4, 3, -2};
Plane Surface(1) = {1};
Curve Loop(2) = {-5, 1, 7, -6};
Plane Surface(2) = {2};
Curve Loop(3) = {-2, 7, 9, -8, -10, -11};
Plane Surface(3) = {3};
Curve Loop(4) = {-12, 3, 8, -13};
Plane Surface(4) = {4};
Curve Loop(5) = {-4, 5, 14, -12, -15, -16};
Plane Surface(5) = {5};
Curve Loop(6) = {-6, 14, 13, -9};
Plane Surface(6) = {6};
Curve Loop(7) = {-10, -17, 15, 17};
Surface(7) = {7};
Curve Loop(8) = {-11, -18, 16, 18};
Surface(8) = {8};
Surface Loop(1) = {1, 2, 3, 4, 5, 6, 7, 8};
Volume(1) = {1};
Physical Surface("INFLOW") = {1};
Physical Surface("OUTFLOW") = {6};
Physical Surface("OBSTACLE") = {7, 8};
Physical Surface("WALL_Y") = {2, 4};
Physical Surface("WALL_Z") = {3, 5};
Physical Volume("FLUID") = {1};
