cl__1 = 3.113032;
cl__2 = 0.539093;
cl__3 = 0.499068;
cl__4 = 3.386476;
cl__5 = 0.059275;
cl__6 = 0.110373;
Point(1) = {0.805819, -3.24621, 1, cl__1};
Point(2) = {0.805819, -3.24621, 0, cl__1};
Point(3) = {0.805819, 4.642488999999999, 1, cl__2};
Point(4) = {0.805819, 4.642488999999999, 0, cl__2};
Point(5) = {33.402505, -3.24621, 0, cl__3};
Point(6) = {33.402505, -3.24621, 1, cl__3};
Point(7) = {33.402505, 4.642488999999999, 1, cl__4};
Point(8) = {32.566061, -1.289056, 1, cl__5};
Point(9) = {4.334295, 2.741278, 1, cl__6};
Point(10) = {33.402505, 4.642488999999999, 0, cl__4};
Point(11) = {32.566061, -1.289056, 0, cl__5};
Point(12) = {4.334295, 2.741278, 0, cl__6};
Line(1) = {2, 1};
Line(2) = {1, 3};
Line(3) = {4, 3};
Line(4) = {2, 4};
Line(5) = {2, 5};
Line(6) = {5, 6};
Line(7) = {1, 6};
Line(8) = {3, 7};
Line(9) = {6, 7};
p10 = newp;
Point(p10 + 1) = {32.55876331313441, -1.196330096585263, 1};
Point(p10 + 2) = {32.53704994580789, -1.105887412652227, 1};
Point(p10 + 3) = {32.50145555318656, -1.019954947241382, 1};
Point(p10 + 4) = {32.45285658734777, -0.9406486428446457, 1};
Point(p10 + 5) = {32.3924497161212, -0.8699212838787987, 1};
Point(p10 + 6) = {32.32172235715535, -0.8095144126522273, 1};
Point(p10 + 7) = {32.24241605275861, -0.7609154468134417, 1};
Point(p10 + 8) = {32.15648358734777, -0.7253210541921129, 1};
Point(p10 + 9) = {32.06604090341474, -0.7036076868655945, 1};
Point(p10 + 10) = {31.973315, -0.69631, 1};
Point(p10 + 11) = {31.88058909658526, -0.7036076868655945, 1};
Point(p10 + 12) = {31.79014641265223, -0.7253210541921128, 1};
Point(p10 + 13) = {31.70421394724138, -0.7609154468134417, 1};
Point(p10 + 14) = {31.62490764284464, -0.8095144126522273, 1};
Point(p10 + 15) = {31.5541802838788, -0.8699212838787986, 1};
Point(p10 + 16) = {31.49377341265223, -0.9406486428446457, 1};
Point(p10 + 17) = {31.44517444681344, -1.019954947241382, 1};
Point(p10 + 18) = {31.40958005419211, -1.105887412652227, 1};
Point(p10 + 19) = {31.38786668686559, -1.196330096585263, 1};
Point(p10 + 20) = {31.380569, -1.289056, 1};
Point(p10 + 21) = {31.38786668686559, -1.381781903414737, 1};
Point(p10 + 22) = {31.40958005419211, -1.472224587347773, 1};
Point(p10 + 23) = {31.44517444681344, -1.558157052758617, 1};
Point(p10 + 24) = {31.49377341265223, -1.637463357155354, 1};
Point(p10 + 25) = {31.5541802838788, -1.708190716121201, 1};
Point(p10 + 26) = {31.62490764284464, -1.768597587347772, 1};
Point(p10 + 27) = {31.70421394724138, -1.817196553186558, 1};
Point(p10 + 28) = {31.79014641265223, -1.852790945807887, 1};
Point(p10 + 29) = {31.88058909658526, -1.874504313134405, 1};
Point(p10 + 30) = {31.973315, -1.881802, 1};
Point(p10 + 31) = {32.06604090341474, -1.874504313134405, 1};
Point(p10 + 32) = {32.15648358734777, -1.852790945807887, 1};
Point(p10 + 33) = {32.24241605275861, -1.817196553186558, 1};
Point(p10 + 34) = {32.32172235715535, -1.768597587347773, 1};
Point(p10 + 35) = {32.3924497161212, -1.708190716121201, 1};
Point(p10 + 36) = {32.45285658734777, -1.637463357155355, 1};
Point(p10 + 37) = {32.50145555318656, -1.558157052758617, 1};
Point(p10 + 38) = {32.53704994580789, -1.472224587347773, 1};
Point(p10 + 39) = {32.55876331313441, -1.381781903414737, 1};
Spline(10) = {8, p10 + 1, p10 + 2, p10 + 3, p10 + 4, p10 + 5, p10 + 6, p10 + 7, p10 + 8, p10 + 9, p10 + 10, p10 + 11, p10 + 12, p10 + 13, p10 + 14, p10 + 15, p10 + 16, p10 + 17, p10 + 18, p10 + 19, p10 + 20, p10 + 21, p10 + 22, p10 + 23, p10 + 24, p10 + 25, p10 + 26, p10 + 27, p10 + 28, p10 + 29, p10 + 30, p10 + 31, p10 + 32, p10 + 33, p10 + 34, p10 + 35, p10 + 36, p10 + 37, p10 + 38, p10 + 39, 8};
p11 = newp;
Point(p11 + 1) = {4.320706301411709, 2.913938786360994, 1};
Point(p11 + 2) = {4.280274804504384, 3.082348091133483, 1};
Point(p11 + 3) = {4.21399606691633, 3.242359118315531, 1};
Point(p11 + 4) = {4.123502091133483, 3.390031865371762, 1};
Point(p11 + 5) = {4.011021139171904, 3.521730139171903, 1};
Point(p11 + 6) = {3.879322865371762, 3.634211091133483, 1};
Point(p11 + 7) = {3.731650118315531, 3.72470506691633, 1};
Point(p11 + 8) = {3.571639091133483, 3.790983804504385, 1};
Point(p11 + 9) = {3.403229786360994, 3.831415301411709, 1};
Point(p11 + 10) = {3.230569, 3.845004, 1};
Point(p11 + 11) = {3.057908213639006, 3.831415301411709, 1};
Point(p11 + 12) = {2.889498908866517, 3.790983804504385, 1};
Point(p11 + 13) = {2.729487881684469, 3.72470506691633, 1};
Point(p11 + 14) = {2.581815134628238, 3.634211091133483, 1};
Point(p11 + 15) = {2.450116860828097, 3.521730139171903, 1};
Point(p11 + 16) = {2.337635908866517, 3.390031865371762, 1};
Point(p11 + 17) = {2.247141933083669, 3.242359118315531, 1};
Point(p11 + 18) = {2.180863195495616, 3.082348091133483, 1};
Point(p11 + 19) = {2.140431698588291, 2.913938786360994, 1};
Point(p11 + 20) = {2.126843, 2.741278, 1};
Point(p11 + 21) = {2.140431698588291, 2.568617213639006, 1};
Point(p11 + 22) = {2.180863195495616, 2.400207908866516, 1};
Point(p11 + 23) = {2.247141933083669, 2.24019688168447, 1};
Point(p11 + 24) = {2.337635908866517, 2.092524134628238, 1};
Point(p11 + 25) = {2.450116860828096, 1.960825860828097, 1};
Point(p11 + 26) = {2.581815134628238, 1.848344908866517, 1};
Point(p11 + 27) = {2.729487881684469, 1.757850933083669, 1};
Point(p11 + 28) = {2.889498908866517, 1.691572195495615, 1};
Point(p11 + 29) = {3.057908213639006, 1.651140698588291, 1};
Point(p11 + 30) = {3.230569, 1.637552, 1};
Point(p11 + 31) = {3.403229786360994, 1.651140698588291, 1};
Point(p11 + 32) = {3.571639091133483, 1.691572195495615, 1};
Point(p11 + 33) = {3.731650118315531, 1.757850933083669, 1};
Point(p11 + 34) = {3.879322865371762, 1.848344908866516, 1};
Point(p11 + 35) = {4.011021139171903, 1.960825860828096, 1};
Point(p11 + 36) = {4.123502091133483, 2.092524134628237, 1};
Point(p11 + 37) = {4.21399606691633, 2.240196881684469, 1};
Point(p11 + 38) = {4.280274804504384, 2.400207908866516, 1};
Point(p11 + 39) = {4.320706301411709, 2.568617213639006, 1};
Spline(11) = {9, p11 + 1, p11 + 2, p11 + 3, p11 + 4, p11 + 5, p11 + 6, p11 + 7, p11 + 8, p11 + 9, p11 + 10, p11 + 11, p11 + 12, p11 + 13, p11 + 14, p11 + 15, p11 + 16, p11 + 17, p11 + 18, p11 + 19, p11 + 20, p11 + 21, p11 + 22, p11 + 23, p11 + 24, p11 + 25, p11 + 26, p11 + 27, p11 + 28, p11 + 29, p11 + 30, p11 + 31, p11 + 32, p11 + 33, p11 + 34, p11 + 35, p11 + 36, p11 + 37, p11 + 38, p11 + 39, 9};
Line(12) = {4, 10};
Line(13) = {10, 7};
Line(14) = {5, 10};
p15 = newp;
Point(p15 + 1) = {32.55876331313441, -1.196330096585263, 0};
Point(p15 + 2) = {32.53704994580789, -1.105887412652227, 0};
Point(p15 + 3) = {32.50145555318656, -1.019954947241382, 0};
Point(p15 + 4) = {32.45285658734777, -0.9406486428446457, 0};
Point(p15 + 5) = {32.3924497161212, -0.8699212838787987, 0};
Point(p15 + 6) = {32.32172235715535, -0.8095144126522273, 0};
Point(p15 + 7) = {32.24241605275861, -0.7609154468134417, 0};
Point(p15 + 8) = {32.15648358734777, -0.7253210541921129, 0};
Point(p15 + 9) = {32.06604090341474, -0.7036076868655945, 0};
Point(p15 + 10) = {31.973315, -0.69631, 0};
Point(p15 + 11) = {31.88058909658526, -0.7036076868655945, 0};
Point(p15 + 12) = {31.79014641265223, -0.7253210541921128, 0};
Point(p15 + 13) = {31.70421394724138, -0.7609154468134417, 0};
Point(p15 + 14) = {31.62490764284464, -0.8095144126522273, 0};
Point(p15 + 15) = {31.5541802838788, -0.8699212838787986, 0};
Point(p15 + 16) = {31.49377341265223, -0.9406486428446457, 0};
Point(p15 + 17) = {31.44517444681344, -1.019954947241382, 0};
Point(p15 + 18) = {31.40958005419211, -1.105887412652227, 0};
Point(p15 + 19) = {31.38786668686559, -1.196330096585263, 0};
Point(p15 + 20) = {31.380569, -1.289056, 0};
Point(p15 + 21) = {31.38786668686559, -1.381781903414737, 0};
Point(p15 + 22) = {31.40958005419211, -1.472224587347773, 0};
Point(p15 + 23) = {31.44517444681344, -1.558157052758617, 0};
Point(p15 + 24) = {31.49377341265223, -1.637463357155354, 0};
Point(p15 + 25) = {31.5541802838788, -1.708190716121201, 0};
Point(p15 + 26) = {31.62490764284464, -1.768597587347772, 0};
Point(p15 + 27) = {31.70421394724138, -1.817196553186558, 0};
Point(p15 + 28) = {31.79014641265223, -1.852790945807887, 0};
Point(p15 + 29) = {31.88058909658526, -1.874504313134405, 0};
Point(p15 + 30) = {31.973315, -1.881802, 0};
Point(p15 + 31) = {32.06604090341474, -1.874504313134405, 0};
Point(p15 + 32) = {32.15648358734777, -1.852790945807887, 0};
Point(p15 + 33) = {32.24241605275861, -1.817196553186558, 0};
Point(p15 + 34) = {32.32172235715535, -1.768597587347773, 0};
Point(p15 + 35) = {32.3924497161212, -1.708190716121201, 0};
Point(p15 + 36) = {32.45285658734777, -1.637463357155355, 0};
Point(p15 + 37) = {32.50145555318656, -1.558157052758617, 0};
Point(p15 + 38) = {32.53704994580789, -1.472224587347773, 0};
Point(p15 + 39) = {32.55876331313441, -1.381781903414737, 0};
Spline(15) = {11, p15 + 1, p15 + 2, p15 + 3, p15 + 4, p15 + 5, p15 + 6, p15 + 7, p15 + 8, p15 + 9, p15 + 10, p15 + 11, p15 + 12, p15 + 13, p15 + 14, p15 + 15, p15 + 16, p15 + 17, p15 + 18, p15 + 19, p15 + 20, p15 + 21, p15 + 22, p15 + 23, p15 + 24, p15 + 25, p15 + 26, p15 + 27, p15 + 28, p15 + 29, p15 + 30, p15 + 31, p15 + 32, p15 + 33, p15 + 34, p15 + 35, p15 + 36, p15 + 37, p15 + 38, p15 + 39, 11};
p16 = newp;
Point(p16 + 1) = {4.320706301411709, 2.913938786360994, 0};
Point(p16 + 2) = {4.280274804504384, 3.082348091133483, 0};
Point(p16 + 3) = {4.21399606691633, 3.242359118315531, 0};
Point(p16 + 4) = {4.123502091133483, 3.390031865371762, 0};
Point(p16 + 5) = {4.011021139171904, 3.521730139171903, 0};
Point(p16 + 6) = {3.879322865371762, 3.634211091133483, 0};
Point(p16 + 7) = {3.731650118315531, 3.72470506691633, 0};
Point(p16 + 8) = {3.571639091133483, 3.790983804504385, 0};
Point(p16 + 9) = {3.403229786360994, 3.831415301411709, 0};
Point(p16 + 10) = {3.230569, 3.845004, 0};
Point(p16 + 11) = {3.057908213639006, 3.831415301411709, 0};
Point(p16 + 12) = {2.889498908866517, 3.790983804504385, 0};
Point(p16 + 13) = {2.729487881684469, 3.72470506691633, 0};
Point(p16 + 14) = {2.581815134628238, 3.634211091133483, 0};
Point(p16 + 15) = {2.450116860828097, 3.521730139171903, 0};
Point(p16 + 16) = {2.337635908866517, 3.390031865371762, 0};
Point(p16 + 17) = {2.247141933083669, 3.242359118315531, 0};
Point(p16 + 18) = {2.180863195495616, 3.082348091133483, 0};
Point(p16 + 19) = {2.140431698588291, 2.913938786360994, 0};
Point(p16 + 20) = {2.126843, 2.741278, 0};
Point(p16 + 21) = {2.140431698588291, 2.568617213639006, 0};
Point(p16 + 22) = {2.180863195495616, 2.400207908866516, 0};
Point(p16 + 23) = {2.247141933083669, 2.24019688168447, 0};
Point(p16 + 24) = {2.337635908866517, 2.092524134628238, 0};
Point(p16 + 25) = {2.450116860828096, 1.960825860828097, 0};
Point(p16 + 26) = {2.581815134628238, 1.848344908866517, 0};
Point(p16 + 27) = {2.729487881684469, 1.757850933083669, 0};
Point(p16 + 28) = {2.889498908866517, 1.691572195495615, 0};
Point(p16 + 29) = {3.057908213639006, 1.651140698588291, 0};
Point(p16 + 30) = {3.230569, 1.637552, 0};
Point(p16 + 31) = {3.403229786360994, 1.651140698588291, 0};
Point(p16 + 32) = {3.571639091133483, 1.691572195495615, 0};
Point(p16 + 33) = {3.731650118315531, 1.757850933083669, 0};
Point(p16 + 34) = {3.879322865371762, 1.848344908866516, 0};
Point(p16 + 35) = {4.011021139171903, 1.960825860828096, 0};
Point(p16 + 36) = {4.123502091133483, 2.092524134628237, 0};
Point(p16 + 37) = {4.21399606691633, 2.240196881684469, 0};
Point(p16 + 38) = {4.280274804504384, 2.400207908866516, 0};
Point(p16 + 39) = {4.320706301411709, 2.568617213639006, 0};
Spline(16) = {12, p16 + 1, p16 + 2, p16 + 3, p16 + 4, p16 + 5, p16 + 6, p16 + 7, p16 + 8, p16 + 9, p16 + 10, p16 + 11, p16 + 12, p16 + 13, p16 + 14, p16 + 15, p16 + 16, p16 + 17, p16 + 18, p16 + 19, p16 + 20, p16 + 21, p16 + 22, p16 + 23, p16 + 24, p16 + 25, p16 + 26, p16 + 27, p16 + 28, p16 + 29, p16 + 30, p16 + 31, p16 + 32, p16 + 33, p16 + 34, p16 + 35, p16 + 36, p16 + 37, p16 + 38, p16 + 39, 12};
Line(17) = {11, 8};
Line(18) = {12, 9};
Curve Loop(1) = {-1, 4, 3, -2};
Plane Surface(1) = {1};
Curve Loop(2) = {-5, 1, 7, -6};
Plane Surface(2) = {2};
Curve Loop(3) = {-2, 7, 9, -8, -10, -11};
Plane Surface(3) = {3};
Curve Loop(4) = {-12, 3, 8, -13};
Plane Surface(4) = {4};
Curve Loop(5) = {-4, 5, 14, -12, -15, -16};
Plane Surface(5) = {5};
Curve Loop(6) = {-6, 14, 13, -9};
Plane Surface(6) = {6};
Curve Loop(7) = {-10, -17, 15, 17};
Surface(7) = {7};
Curve Loop(8) = {-11, -18, 16, 18};
Surface(8) = {8};
Surface Loop(1) = {1, 2, 3, 4, 5, 6, 7, 8};
Volume(1) = {1};
Physical Surface("INFLOW") = {1};
Physical Surface("OUTFLOW") = {6};
Physical Surface("OBSTACLE") = {7, 8};
Physical Surface("WALL_Y") = {2, 4};
Physical Surface("WALL_Z") = {3, 5};
Physical Volume("FLUID") = {1};
