cl__1 = 0.570086;
cl__2 = 0.7668160000000001;
cl__3 = 2.158525;
cl__4 = 2.575474;
cl__5 = 0.084436;
cl__6 = 0.105491;
Point(1) = {0.680606, -3.974764, 1, cl__1};
Point(2) = {0.680606, -3.974764, 0, cl__1};
Point(3) = {0.680606, 5.484707, 1, cl__2};
Point(4) = {0.680606, 5.484707, 0, cl__2};
Point(5) = {34.132282, -3.974764, 0, cl__3};
Point(6) = {34.132282, -3.974764, 1, cl__3};
Point(7) = {34.132282, 5.484707, 1, cl__4};
Point(8) = {9.506366, -1.82896, 1, cl__5};
Point(9) = {17.522636, -1.227717, 1, cl__6};
Point(10) = {34.132282, 5.484707, 0, cl__4};
Point(11) = {9.506366, -1.82896, 0, cl__5};
Point(12) = {17.522636, -1.227717, 0, cl__6};
Line(1) = {2, 1};
Line(2) = {1, 3};
Line(3) = {4, 3};
Line(4) = {2, 4};
Line(5) = {2, 5};
Line(6) = {5, 6};
Line(7) = {1, 6};
Line(8) = {3, 7};
Line(9) = {6, 7};
p10 = newp;
Point(p10 + 1) = {9.495970576511549, -1.696873620836491, 1};
Point(p10 + 2) = {9.46504027587291, -1.568039646697547, 1};
Point(p10 + 3) = {9.414336704737593, -1.445630397601915, 1};
Point(p10 + 4) = {9.345108353302454, -1.332659995515336, 1};
Point(p10 + 5) = {9.259059853335549, -1.231910146664451, 1};
Point(p10 + 6) = {9.158310004484663, -1.145861646697547, 1};
Point(p10 + 7) = {9.045339602398085, -1.076633295262406, 1};
Point(p10 + 8) = {8.922930353302453, -1.025929724127089, 1};
Point(p10 + 9) = {8.794096379163509, -0.9949994234884518, 1};
Point(p10 + 10) = {8.66201, -0.9846039999999999, 1};
Point(p10 + 11) = {8.529923620836492, -0.9949994234884518, 1};
Point(p10 + 12) = {8.401089646697548, -1.025929724127089, 1};
Point(p10 + 13) = {8.278680397601915, -1.076633295262406, 1};
Point(p10 + 14) = {8.165709995515337, -1.145861646697547, 1};
Point(p10 + 15) = {8.064960146664452, -1.231910146664451, 1};
Point(p10 + 16) = {7.978911646697547, -1.332659995515336, 1};
Point(p10 + 17) = {7.909683295262407, -1.445630397601915, 1};
Point(p10 + 18) = {7.85897972412709, -1.568039646697547, 1};
Point(p10 + 19) = {7.828049423488452, -1.696873620836491, 1};
Point(p10 + 20) = {7.817654, -1.82896, 1};
Point(p10 + 21) = {7.828049423488452, -1.961046379163509, 1};
Point(p10 + 22) = {7.85897972412709, -2.089880353302453, 1};
Point(p10 + 23) = {7.909683295262407, -2.212289602398084, 1};
Point(p10 + 24) = {7.978911646697547, -2.325260004484663, 1};
Point(p10 + 25) = {8.064960146664452, -2.426009853335549, 1};
Point(p10 + 26) = {8.165709995515337, -2.512058353302453, 1};
Point(p10 + 27) = {8.278680397601915, -2.581286704737593, 1};
Point(p10 + 28) = {8.401089646697548, -2.63199027587291, 1};
Point(p10 + 29) = {8.529923620836492, -2.662920576511548, 1};
Point(p10 + 30) = {8.66201, -2.673316, 1};
Point(p10 + 31) = {8.794096379163509, -2.662920576511548, 1};
Point(p10 + 32) = {8.922930353302453, -2.631990275872911, 1};
Point(p10 + 33) = {9.045339602398085, -2.581286704737594, 1};
Point(p10 + 34) = {9.158310004484663, -2.512058353302453, 1};
Point(p10 + 35) = {9.259059853335549, -2.426009853335549, 1};
Point(p10 + 36) = {9.345108353302454, -2.325260004484663, 1};
Point(p10 + 37) = {9.414336704737593, -2.212289602398085, 1};
Point(p10 + 38) = {9.46504027587291, -2.089880353302453, 1};
Point(p10 + 39) = {9.495970576511549, -1.961046379163509, 1};
Spline(10) = {8, p10 + 1, p10 + 2, p10 + 3, p10 + 4, p10 + 5, p10 + 6, p10 + 7, p10 + 8, p10 + 9, p10 + 10, p10 + 11, p10 + 12, p10 + 13, p10 + 14, p10 + 15, p10 + 16, p10 + 17, p10 + 18, p10 + 19, p10 + 20, p10 + 21, p10 + 22, p10 + 23, p10 + 24, p10 + 25, p10 + 26, p10 + 27, p10 + 28, p10 + 29, p10 + 30, p10 + 31, p10 + 32, p10 + 33, p10 + 34, p10 + 35, p10 + 36, p10 + 37, p10 + 38, p10 + 39, 8};
p11 = newp;
Point(p11 + 1) = {17.50964829506556, -1.062692562049945, 1};
Point(p11 + 2) = {17.47100498066144, -0.9017315734469298, 1};
Point(p11 + 3) = {17.40765758343808, -0.748797427929255, 1};
Point(p11 + 4) = {17.32116592655307, -0.6076558717188949, 1};
Point(p11 + 5) = {17.21365972164828, -0.4817822783517181, 1};
Point(p11 + 6) = {17.08778612828111, -0.3742760734469298, 1};
Point(p11 + 7) = {16.94664457207075, -0.2877844165619248, 1};
Point(p11 + 8) = {16.79371042655307, -0.2244370193385634, 1};
Point(p11 + 9) = {16.63274943795006, -0.1857937049344427, 1};
Point(p11 + 10) = {16.467725, -0.172806, 1};
Point(p11 + 11) = {16.30270056204995, -0.1857937049344427, 1};
Point(p11 + 12) = {16.14173957344693, -0.2244370193385632, 1};
Point(p11 + 13) = {15.98880542792926, -0.2877844165619247, 1};
Point(p11 + 14) = {15.8476638717189, -0.3742760734469298, 1};
Point(p11 + 15) = {15.72179027835172, -0.4817822783517179, 1};
Point(p11 + 16) = {15.61428407344693, -0.6076558717188948, 1};
Point(p11 + 17) = {15.52779241656193, -0.7487974279292549, 1};
Point(p11 + 18) = {15.46444501933857, -0.9017315734469298, 1};
Point(p11 + 19) = {15.42580170493444, -1.062692562049945, 1};
Point(p11 + 20) = {15.412814, -1.227717, 1};
Point(p11 + 21) = {15.42580170493444, -1.392741437950055, 1};
Point(p11 + 22) = {15.46444501933857, -1.55370242655307, 1};
Point(p11 + 23) = {15.52779241656193, -1.706636572070744, 1};
Point(p11 + 24) = {15.61428407344693, -1.847778128281105, 1};
Point(p11 + 25) = {15.72179027835172, -1.973651721648282, 1};
Point(p11 + 26) = {15.8476638717189, -2.08115792655307, 1};
Point(p11 + 27) = {15.98880542792926, -2.167649583438075, 1};
Point(p11 + 28) = {16.14173957344693, -2.230996980661437, 1};
Point(p11 + 29) = {16.30270056204995, -2.269640295065557, 1};
Point(p11 + 30) = {16.467725, -2.282628, 1};
Point(p11 + 31) = {16.63274943795006, -2.269640295065557, 1};
Point(p11 + 32) = {16.79371042655307, -2.230996980661437, 1};
Point(p11 + 33) = {16.94664457207075, -2.167649583438075, 1};
Point(p11 + 34) = {17.08778612828111, -2.08115792655307, 1};
Point(p11 + 35) = {17.21365972164828, -1.973651721648282, 1};
Point(p11 + 36) = {17.32116592655307, -1.847778128281105, 1};
Point(p11 + 37) = {17.40765758343808, -1.706636572070745, 1};
Point(p11 + 38) = {17.47100498066144, -1.55370242655307, 1};
Point(p11 + 39) = {17.50964829506556, -1.392741437950055, 1};
Spline(11) = {9, p11 + 1, p11 + 2, p11 + 3, p11 + 4, p11 + 5, p11 + 6, p11 + 7, p11 + 8, p11 + 9, p11 + 10, p11 + 11, p11 + 12, p11 + 13, p11 + 14, p11 + 15, p11 + 16, p11 + 17, p11 + 18, p11 + 19, p11 + 20, p11 + 21, p11 + 22, p11 + 23, p11 + 24, p11 + 25, p11 + 26, p11 + 27, p11 + 28, p11 + 29, p11 + 30, p11 + 31, p11 + 32, p11 + 33, p11 + 34, p11 + 35, p11 + 36, p11 + 37, p11 + 38, p11 + 39, 9};
Line(12) = {4, 10};
Line(13) = {10, 7};
Line(14) = {5, 10};
p15 = newp;
Point(p15 + 1) = {9.495970576511549, -1.696873620836491, 0};
Point(p15 + 2) = {9.46504027587291, -1.568039646697547, 0};
Point(p15 + 3) = {9.414336704737593, -1.445630397601915, 0};
Point(p15 + 4) = {9.345108353302454, -1.332659995515336, 0};
Point(p15 + 5) = {9.259059853335549, -1.231910146664451, 0};
Point(p15 + 6) = {9.158310004484663, -1.145861646697547, 0};
Point(p15 + 7) = {9.045339602398085, -1.076633295262406, 0};
Point(p15 + 8) = {8.922930353302453, -1.025929724127089, 0};
Point(p15 + 9) = {8.794096379163509, -0.9949994234884518, 0};
Point(p15 + 10) = {8.66201, -0.9846039999999999, 0};
Point(p15 + 11) = {8.529923620836492, -0.9949994234884518, 0};
Point(p15 + 12) = {8.401089646697548, -1.025929724127089, 0};
Point(p15 + 13) = {8.278680397601915, -1.076633295262406, 0};
Point(p15 + 14) = {8.165709995515337, -1.145861646697547, 0};
Point(p15 + 15) = {8.064960146664452, -1.231910146664451, 0};
Point(p15 + 16) = {7.978911646697547, -1.332659995515336, 0};
Point(p15 + 17) = {7.909683295262407, -1.445630397601915, 0};
Point(p15 + 18) = {7.85897972412709, -1.568039646697547, 0};
Point(p15 + 19) = {7.828049423488452, -1.696873620836491, 0};
Point(p15 + 20) = {7.817654, -1.82896, 0};
Point(p15 + 21) = {7.828049423488452, -1.961046379163509, 0};
Point(p15 + 22) = {7.85897972412709, -2.089880353302453, 0};
Point(p15 + 23) = {7.909683295262407, -2.212289602398084, 0};
Point(p15 + 24) = {7.978911646697547, -2.325260004484663, 0};
Point(p15 + 25) = {8.064960146664452, -2.426009853335549, 0};
Point(p15 + 26) = {8.165709995515337, -2.512058353302453, 0};
Point(p15 + 27) = {8.278680397601915, -2.581286704737593, 0};
Point(p15 + 28) = {8.401089646697548, -2.63199027587291, 0};
Point(p15 + 29) = {8.529923620836492, -2.662920576511548, 0};
Point(p15 + 30) = {8.66201, -2.673316, 0};
Point(p15 + 31) = {8.794096379163509, -2.662920576511548, 0};
Point(p15 + 32) = {8.922930353302453, -2.631990275872911, 0};
Point(p15 + 33) = {9.045339602398085, -2.581286704737594, 0};
Point(p15 + 34) = {9.158310004484663, -2.512058353302453, 0};
Point(p15 + 35) = {9.259059853335549, -2.426009853335549, 0};
Point(p15 + 36) = {9.345108353302454, -2.325260004484663, 0};
Point(p15 + 37) = {9.414336704737593, -2.212289602398085, 0};
Point(p15 + 38) = {9.46504027587291, -2.089880353302453, 0};
Point(p15 + 39) = {9.495970576511549, -1.961046379163509, 0};
Spline(15) = {11, p15 + 1, p15 + 2, p15 + 3, p15 + 4, p15 + 5, p15 + 6, p15 + 7, p15 + 8, p15 + 9, p15 + 10, p15 + 11, p15 + 12, p15 + 13, p15 + 14, p15 + 15, p15 + 16, p15 + 17, p15 + 18, p15 + 19, p15 + 20, p15 + 21, p15 + 22, p15 + 23, p15 + 24, p15 + 25, p15 + 26, p15 + 27, p15 + 28, p15 + 29, p15 + 30, p15 + 31, p15 + 32, p15 + 33, p15 + 34, p15 + 35, p15 + 36, p15 + 37, p15 + 38, p15 + 39, 11};
p16 = newp;
Point(p16 + 1) = {17.50964829506556, -1.062692562049945, 0};
Point(p16 + 2) = {17.47100498066144, -0.9017315734469298, 0};
Point(p16 + 3) = {17.40765758343808, -0.748797427929255, 0};
Point(p16 + 4) = {17.32116592655307, -0.6076558717188949, 0};
Point(p16 + 5) = {17.21365972164828, -0.4817822783517181, 0};
Point(p16 + 6) = {17.08778612828111, -0.3742760734469298, 0};
Point(p16 + 7) = {16.94664457207075, -0.2877844165619248, 0};
Point(p16 + 8) = {16.79371042655307, -0.2244370193385634, 0};
Point(p16 + 9) = {16.63274943795006, -0.1857937049344427, 0};
Point(p16 + 10) = {16.467725, -0.172806, 0};
Point(p16 + 11) = {16.30270056204995, -0.1857937049344427, 0};
Point(p16 + 12) = {16.14173957344693, -0.2244370193385632, 0};
Point(p16 + 13) = {15.98880542792926, -0.2877844165619247, 0};
Point(p16 + 14) = {15.8476638717189, -0.3742760734469298, 0};
Point(p16 + 15) = {15.72179027835172, -0.4817822783517179, 0};
Point(p16 + 16) = {15.61428407344693, -0.6076558717188948, 0};
Point(p16 + 17) = {15.52779241656193, -0.7487974279292549, 0};
Point(p16 + 18) = {15.46444501933857, -0.9017315734469298, 0};
Point(p16 + 19) = {15.42580170493444, -1.062692562049945, 0};
Point(p16 + 20) = {15.412814, -1.227717, 0};
Point(p16 + 21) = {15.42580170493444, -1.392741437950055, 0};
Point(p16 + 22) = {15.46444501933857, -1.55370242655307, 0};
Point(p16 + 23) = {15.52779241656193, -1.706636572070744, 0};
Point(p16 + 24) = {15.61428407344693, -1.847778128281105, 0};
Point(p16 + 25) = {15.72179027835172, -1.973651721648282, 0};
Point(p16 + 26) = {15.8476638717189, -2.08115792655307, 0};
Point(p16 + 27) = {15.98880542792926, -2.167649583438075, 0};
Point(p16 + 28) = {16.14173957344693, -2.230996980661437, 0};
Point(p16 + 29) = {16.30270056204995, -2.269640295065557, 0};
Point(p16 + 30) = {16.467725, -2.282628, 0};
Point(p16 + 31) = {16.63274943795006, -2.269640295065557, 0};
Point(p16 + 32) = {16.79371042655307, -2.230996980661437, 0};
Point(p16 + 33) = {16.94664457207075, -2.167649583438075, 0};
Point(p16 + 34) = {17.08778612828111, -2.08115792655307, 0};
Point(p16 + 35) = {17.21365972164828, -1.973651721648282, 0};
Point(p16 + 36) = {17.32116592655307, -1.847778128281105, 0};
Point(p16 + 37) = {17.40765758343808, -1.706636572070745, 0};
Point(p16 + 38) = {17.47100498066144, -1.55370242655307, 0};
Point(p16 + 39) = {17.50964829506556, -1.392741437950055, 0};
Spline(16) = {12, p16 + 1, p16 + 2, p16 + 3, p16 + 4, p16 + 5, p16 + 6, p16 + 7, p16 + 8, p16 + 9, p16 + 10, p16 + 11, p16 + 12, p16 + 13, p16 + 14, p16 + 15, p16 + 16, p16 + 17, p16 + 18, p16 + 19, p16 + 20, p16 + 21, p16 + 22, p16 + 23, p16 + 24, p16 + 25, p16 + 26, p16 + 27, p16 + 28, p16 + 29, p16 + 30, p16 + 31, p16 + 32, p16 + 33, p16 + 34, p16 + 35, p16 + 36, p16 + 37, p16 + 38, p16 + 39, 12};
Line(17) = {11, 8};
Line(18) = {12, 9};
Curve Loop(1) = {-1, 4, 3, -2};
Plane Surface(1) = {1};
Curve Loop(2) = {-5, 1, 7, -6};
Plane Surface(2) = {2};
Curve Loop(3) = {-2, 7, 9, -8, -10, -11};
Plane Surface(3) = {3};
Curve Loop(4) = {-12, 3, 8, -13};
Plane Surface(4) = {4};
Curve Loop(5) = {-4, 5, 14, -12, -15, -16};
Plane Surface(5) = {5};
Curve Loop(6) = {-6, 14, 13, -9};
Plane Surface(6) = {6};
Curve Loop(7) = {-10, -17, 15, 17};
Surface(7) = {7};
Curve Loop(8) = {-11, -18, 16, 18};
Surface(8) = {8};
Surface Loop(1) = {1, 2, 3, 4, 5, 6, 7, 8};
Volume(1) = {1};
Physical Surface("INFLOW") = {1};
Physical Surface("OUTFLOW") = {6};
Physical Surface("OBSTACLE") = {7, 8};
Physical Surface("WALL_Y") = {2, 4};
Physical Surface("WALL_Z") = {3, 5};
Physical Volume("FLUID") = {1};
