cl__1 = 1.483583;
cl__2 = 1.764406;
cl__3 = 0.891135;
cl__4 = 0.759973;
cl__5 = 0.071882;
cl__6 = 0.130654;
Point(1) = {0.464701, -3.867297, 1, cl__1};
Point(2) = {0.464701, -3.867297, 0, cl__1};
Point(3) = {0.464701, 4.888121, 1, cl__2};
Point(4) = {0.464701, 4.888121, 0, cl__2};
Point(5) = {33.967851, -3.867297, 0, cl__3};
Point(6) = {33.967851, -3.867297, 1, cl__3};
Point(7) = {33.967851, 4.888121, 1, cl__4};
Point(8) = {17.142391, -1.236304, 1, cl__5};
Point(9) = {23.816305, 3.046727, 1, cl__6};
Point(10) = {33.967851, 4.888121, 0, cl__4};
Point(11) = {17.142391, -1.236304, 0, cl__5};
Point(12) = {23.816305, 3.046727, 0, cl__6};
Line(1) = {2, 1};
Line(2) = {1, 3};
Line(3) = {4, 3};
Line(4) = {2, 4};
Line(5) = {2, 5};
Line(6) = {5, 6};
Line(7) = {1, 6};
Line(8) = {3, 7};
Line(9) = {6, 7};
p10 = newp;
Point(p10 + 1) = {17.13354114529826, -1.123855934274246, 1};
Point(p10 + 2) = {17.10720949398677, -1.014176713120395, 1};
Point(p10 + 3) = {17.06404441871056, -0.9099670029677188, 1};
Point(p10 + 4) = {17.00510878687961, -0.8137927927323768, 1};
Point(p10 + 5) = {16.93185378934573, -0.7280222106542672, 1};
Point(p10 + 6) = {16.84608320726762, -0.6547672131203948, 1};
Point(p10 + 7) = {16.74990899703228, -0.5958315812894417, 1};
Point(p10 + 8) = {16.6456992868796, -0.5526665060132341, 1};
Point(p10 + 9) = {16.53602006572575, -0.5263348547017438, 1};
Point(p10 + 10) = {16.423572, -0.5174850000000001, 1};
Point(p10 + 11) = {16.31112393427425, -0.5263348547017438, 1};
Point(p10 + 12) = {16.2014447131204, -0.5526665060132341, 1};
Point(p10 + 13) = {16.09723500296772, -0.5958315812894417, 1};
Point(p10 + 14) = {16.00106079273238, -0.6547672131203948, 1};
Point(p10 + 15) = {15.91529021065427, -0.7280222106542671, 1};
Point(p10 + 16) = {15.8420352131204, -0.8137927927323767, 1};
Point(p10 + 17) = {15.78309958128944, -0.9099670029677187, 1};
Point(p10 + 18) = {15.73993450601323, -1.014176713120395, 1};
Point(p10 + 19) = {15.71360285470174, -1.123855934274246, 1};
Point(p10 + 20) = {15.704753, -1.236304, 1};
Point(p10 + 21) = {15.71360285470174, -1.348752065725754, 1};
Point(p10 + 22) = {15.73993450601323, -1.458431286879606, 1};
Point(p10 + 23) = {15.78309958128944, -1.562640997032281, 1};
Point(p10 + 24) = {15.8420352131204, -1.658815207267623, 1};
Point(p10 + 25) = {15.91529021065427, -1.744585789345733, 1};
Point(p10 + 26) = {16.00106079273238, -1.817840786879605, 1};
Point(p10 + 27) = {16.09723500296772, -1.876776418710558, 1};
Point(p10 + 28) = {16.2014447131204, -1.919941493986766, 1};
Point(p10 + 29) = {16.31112393427425, -1.946273145298256, 1};
Point(p10 + 30) = {16.423572, -1.955123, 1};
Point(p10 + 31) = {16.53602006572575, -1.946273145298256, 1};
Point(p10 + 32) = {16.6456992868796, -1.919941493986766, 1};
Point(p10 + 33) = {16.74990899703228, -1.876776418710558, 1};
Point(p10 + 34) = {16.84608320726762, -1.817840786879605, 1};
Point(p10 + 35) = {16.93185378934573, -1.744585789345733, 1};
Point(p10 + 36) = {17.00510878687961, -1.658815207267623, 1};
Point(p10 + 37) = {17.06404441871056, -1.562640997032281, 1};
Point(p10 + 38) = {17.10720949398677, -1.458431286879605, 1};
Point(p10 + 39) = {17.13354114529826, -1.348752065725754, 1};
Spline(10) = {8, p10 + 1, p10 + 2, p10 + 3, p10 + 4, p10 + 5, p10 + 6, p10 + 7, p10 + 8, p10 + 9, p10 + 10, p10 + 11, p10 + 12, p10 + 13, p10 + 14, p10 + 15, p10 + 16, p10 + 17, p10 + 18, p10 + 19, p10 + 20, p10 + 21, p10 + 22, p10 + 23, p10 + 24, p10 + 25, p10 + 26, p10 + 27, p10 + 28, p10 + 29, p10 + 30, p10 + 31, p10 + 32, p10 + 33, p10 + 34, p10 + 35, p10 + 36, p10 + 37, p10 + 38, p10 + 39, 8};
p11 = newp;
Point(p11 + 1) = {23.80021932452117, 3.251114885953664, 1};
Point(p11 + 2) = {23.75235838080027, 3.450470063830644, 1};
Point(p11 + 3) = {23.67390066411307, 3.639883747529708, 1};
Point(p11 + 4) = {23.56677806383065, 3.814691943530208, 1};
Point(p11 + 5) = {23.43362829389147, 3.970590293891472, 1};
Point(p11 + 6) = {23.27772994353021, 4.103740063830644, 1};
Point(p11 + 7) = {23.10292174752971, 4.21086266411307, 1};
Point(p11 + 8) = {22.91350806383064, 4.28932038080027, 1};
Point(p11 + 9) = {22.71415288595367, 4.337181324521172, 1};
Point(p11 + 10) = {22.509765, 4.353267000000001, 1};
Point(p11 + 11) = {22.30537711404634, 4.337181324521172, 1};
Point(p11 + 12) = {22.10602193616936, 4.28932038080027, 1};
Point(p11 + 13) = {21.91660825247029, 4.210862664113071, 1};
Point(p11 + 14) = {21.7418000564698, 4.103740063830644, 1};
Point(p11 + 15) = {21.58590170610853, 3.970590293891472, 1};
Point(p11 + 16) = {21.45275193616936, 3.814691943530208, 1};
Point(p11 + 17) = {21.34562933588693, 3.639883747529708, 1};
Point(p11 + 18) = {21.26717161919973, 3.450470063830644, 1};
Point(p11 + 19) = {21.21931067547883, 3.251114885953664, 1};
Point(p11 + 20) = {21.203225, 3.046727, 1};
Point(p11 + 21) = {21.21931067547883, 2.842339114046337, 1};
Point(p11 + 22) = {21.26717161919973, 2.642983936169356, 1};
Point(p11 + 23) = {21.34562933588693, 2.453570252470294, 1};
Point(p11 + 24) = {21.45275193616936, 2.278762056469792, 1};
Point(p11 + 25) = {21.58590170610853, 2.122863706108529, 1};
Point(p11 + 26) = {21.74180005646979, 1.989713936169357, 1};
Point(p11 + 27) = {21.91660825247029, 1.88259133588693, 1};
Point(p11 + 28) = {22.10602193616936, 1.80413361919973, 1};
Point(p11 + 29) = {22.30537711404634, 1.756272675478829, 1};
Point(p11 + 30) = {22.509765, 1.740187, 1};
Point(p11 + 31) = {22.71415288595367, 1.756272675478829, 1};
Point(p11 + 32) = {22.91350806383064, 1.80413361919973, 1};
Point(p11 + 33) = {23.10292174752971, 1.88259133588693, 1};
Point(p11 + 34) = {23.27772994353021, 1.989713936169356, 1};
Point(p11 + 35) = {23.43362829389147, 2.122863706108528, 1};
Point(p11 + 36) = {23.56677806383065, 2.278762056469792, 1};
Point(p11 + 37) = {23.67390066411307, 2.453570252470293, 1};
Point(p11 + 38) = {23.75235838080027, 2.642983936169356, 1};
Point(p11 + 39) = {23.80021932452117, 2.842339114046337, 1};
Spline(11) = {9, p11 + 1, p11 + 2, p11 + 3, p11 + 4, p11 + 5, p11 + 6, p11 + 7, p11 + 8, p11 + 9, p11 + 10, p11 + 11, p11 + 12, p11 + 13, p11 + 14, p11 + 15, p11 + 16, p11 + 17, p11 + 18, p11 + 19, p11 + 20, p11 + 21, p11 + 22, p11 + 23, p11 + 24, p11 + 25, p11 + 26, p11 + 27, p11 + 28, p11 + 29, p11 + 30, p11 + 31, p11 + 32, p11 + 33, p11 + 34, p11 + 35, p11 + 36, p11 + 37, p11 + 38, p11 + 39, 9};
Line(12) = {4, 10};
Line(13) = {10, 7};
Line(14) = {5, 10};
p15 = newp;
Point(p15 + 1) = {17.13354114529826, -1.123855934274246, 0};
Point(p15 + 2) = {17.10720949398677, -1.014176713120395, 0};
Point(p15 + 3) = {17.06404441871056, -0.9099670029677188, 0};
Point(p15 + 4) = {17.00510878687961, -0.8137927927323768, 0};
Point(p15 + 5) = {16.93185378934573, -0.7280222106542672, 0};
Point(p15 + 6) = {16.84608320726762, -0.6547672131203948, 0};
Point(p15 + 7) = {16.74990899703228, -0.5958315812894417, 0};
Point(p15 + 8) = {16.6456992868796, -0.5526665060132341, 0};
Point(p15 + 9) = {16.53602006572575, -0.5263348547017438, 0};
Point(p15 + 10) = {16.423572, -0.5174850000000001, 0};
Point(p15 + 11) = {16.31112393427425, -0.5263348547017438, 0};
Point(p15 + 12) = {16.2014447131204, -0.5526665060132341, 0};
Point(p15 + 13) = {16.09723500296772, -0.5958315812894417, 0};
Point(p15 + 14) = {16.00106079273238, -0.6547672131203948, 0};
Point(p15 + 15) = {15.91529021065427, -0.7280222106542671, 0};
Point(p15 + 16) = {15.8420352131204, -0.8137927927323767, 0};
Point(p15 + 17) = {15.78309958128944, -0.9099670029677187, 0};
Point(p15 + 18) = {15.73993450601323, -1.014176713120395, 0};
Point(p15 + 19) = {15.71360285470174, -1.123855934274246, 0};
Point(p15 + 20) = {15.704753, -1.236304, 0};
Point(p15 + 21) = {15.71360285470174, -1.348752065725754, 0};
Point(p15 + 22) = {15.73993450601323, -1.458431286879606, 0};
Point(p15 + 23) = {15.78309958128944, -1.562640997032281, 0};
Point(p15 + 24) = {15.8420352131204, -1.658815207267623, 0};
Point(p15 + 25) = {15.91529021065427, -1.744585789345733, 0};
Point(p15 + 26) = {16.00106079273238, -1.817840786879605, 0};
Point(p15 + 27) = {16.09723500296772, -1.876776418710558, 0};
Point(p15 + 28) = {16.2014447131204, -1.919941493986766, 0};
Point(p15 + 29) = {16.31112393427425, -1.946273145298256, 0};
Point(p15 + 30) = {16.423572, -1.955123, 0};
Point(p15 + 31) = {16.53602006572575, -1.946273145298256, 0};
Point(p15 + 32) = {16.6456992868796, -1.919941493986766, 0};
Point(p15 + 33) = {16.74990899703228, -1.876776418710558, 0};
Point(p15 + 34) = {16.84608320726762, -1.817840786879605, 0};
Point(p15 + 35) = {16.93185378934573, -1.744585789345733, 0};
Point(p15 + 36) = {17.00510878687961, -1.658815207267623, 0};
Point(p15 + 37) = {17.06404441871056, -1.562640997032281, 0};
Point(p15 + 38) = {17.10720949398677, -1.458431286879605, 0};
Point(p15 + 39) = {17.13354114529826, -1.348752065725754, 0};
Spline(15) = {11, p15 + 1, p15 + 2, p15 + 3, p15 + 4, p15 + 5, p15 + 6, p15 + 7, p15 + 8, p15 + 9, p15 + 10, p15 + 11, p15 + 12, p15 + 13, p15 + 14, p15 + 15, p15 + 16, p15 + 17, p15 + 18, p15 + 19, p15 + 20, p15 + 21, p15 + 22, p15 + 23, p15 + 24, p15 + 25, p15 + 26, p15 + 27, p15 + 28, p15 + 29, p15 + 30, p15 + 31, p15 + 32, p15 + 33, p15 + 34, p15 + 35, p15 + 36, p15 + 37, p15 + 38, p15 + 39, 11};
p16 = newp;
Point(p16 + 1) = {23.80021932452117, 3.251114885953664, 0};
Point(p16 + 2) = {23.75235838080027, 3.450470063830644, 0};
Point(p16 + 3) = {23.67390066411307, 3.639883747529708, 0};
Point(p16 + 4) = {23.56677806383065, 3.814691943530208, 0};
Point(p16 + 5) = {23.43362829389147, 3.970590293891472, 0};
Point(p16 + 6) = {23.27772994353021, 4.103740063830644, 0};
Point(p16 + 7) = {23.10292174752971, 4.21086266411307, 0};
Point(p16 + 8) = {22.91350806383064, 4.28932038080027, 0};
Point(p16 + 9) = {22.71415288595367, 4.337181324521172, 0};
Point(p16 + 10) = {22.509765, 4.353267000000001, 0};
Point(p16 + 11) = {22.30537711404634, 4.337181324521172, 0};
Point(p16 + 12) = {22.10602193616936, 4.28932038080027, 0};
Point(p16 + 13) = {21.91660825247029, 4.210862664113071, 0};
Point(p16 + 14) = {21.7418000564698, 4.103740063830644, 0};
Point(p16 + 15) = {21.58590170610853, 3.970590293891472, 0};
Point(p16 + 16) = {21.45275193616936, 3.814691943530208, 0};
Point(p16 + 17) = {21.34562933588693, 3.639883747529708, 0};
Point(p16 + 18) = {21.26717161919973, 3.450470063830644, 0};
Point(p16 + 19) = {21.21931067547883, 3.251114885953664, 0};
Point(p16 + 20) = {21.203225, 3.046727, 0};
Point(p16 + 21) = {21.21931067547883, 2.842339114046337, 0};
Point(p16 + 22) = {21.26717161919973, 2.642983936169356, 0};
Point(p16 + 23) = {21.34562933588693, 2.453570252470294, 0};
Point(p16 + 24) = {21.45275193616936, 2.278762056469792, 0};
Point(p16 + 25) = {21.58590170610853, 2.122863706108529, 0};
Point(p16 + 26) = {21.74180005646979, 1.989713936169357, 0};
Point(p16 + 27) = {21.91660825247029, 1.88259133588693, 0};
Point(p16 + 28) = {22.10602193616936, 1.80413361919973, 0};
Point(p16 + 29) = {22.30537711404634, 1.756272675478829, 0};
Point(p16 + 30) = {22.509765, 1.740187, 0};
Point(p16 + 31) = {22.71415288595367, 1.756272675478829, 0};
Point(p16 + 32) = {22.91350806383064, 1.80413361919973, 0};
Point(p16 + 33) = {23.10292174752971, 1.88259133588693, 0};
Point(p16 + 34) = {23.27772994353021, 1.989713936169356, 0};
Point(p16 + 35) = {23.43362829389147, 2.122863706108528, 0};
Point(p16 + 36) = {23.56677806383065, 2.278762056469792, 0};
Point(p16 + 37) = {23.67390066411307, 2.453570252470293, 0};
Point(p16 + 38) = {23.75235838080027, 2.642983936169356, 0};
Point(p16 + 39) = {23.80021932452117, 2.842339114046337, 0};
Spline(16) = {12, p16 + 1, p16 + 2, p16 + 3, p16 + 4, p16 + 5, p16 + 6, p16 + 7, p16 + 8, p16 + 9, p16 + 10, p16 + 11, p16 + 12, p16 + 13, p16 + 14, p16 + 15, p16 + 16, p16 + 17, p16 + 18, p16 + 19, p16 + 20, p16 + 21, p16 + 22, p16 + 23, p16 + 24, p16 + 25, p16 + 26, p16 + 27, p16 + 28, p16 + 29, p16 + 30, p16 + 31, p16 + 32, p16 + 33, p16 + 34, p16 + 35, p16 + 36, p16 + 37, p16 + 38, p16 + 39, 12};
Line(17) = {11, 8};
Line(18) = {12, 9};
Curve Loop(1) = {-1, 4, 3, -2};
Plane Surface(1) = {1};
Curve Loop(2) = {-5, 1, 7, -6};
Plane Surface(2) = {2};
Curve Loop(3) = {-2, 7, 9, -8, -10, -11};
Plane Surface(3) = {3};
Curve Loop(4) = {-12, 3, 8, -13};
Plane Surface(4) = {4};
Curve Loop(5) = {-4, 5, 14, -12, -15, -16};
Plane Surface(5) = {5};
Curve Loop(6) = {-6, 14, 13, -9};
Plane Surface(6) = {6};
Curve Loop(7) = {-10, -17, 15, 17};
Surface(7) = {7};
Curve Loop(8) = {-11, -18, 16, 18};
Surface(8) = {8};
Surface Loop(1) = {1, 2, 3, 4, 5, 6, 7, 8};
Volume(1) = {1};
Physical Surface("INFLOW") = {1};
Physical Surface("OUTFLOW") = {6};
Physical Surface("OBSTACLE") = {7, 8};
Physical Surface("WALL_Y") = {2, 4};
Physical Surface("WALL_Z") = {3, 5};
Physical Volume("FLUID") = {1};
