cl__1 = 0.487483;
cl__2 = 0.653518;
cl__3 = 2.656088;
cl__4 = 3.203258;
cl__5 = 0.085032;
cl__6 = 0.081915;
Point(1) = {0.57756, -3.838958, 1, cl__1};
Point(2) = {0.57756, -3.838958, 0, cl__1};
Point(3) = {0.57756, 4.463243, 1, cl__2};
Point(4) = {0.57756, 4.463243, 0, cl__2};
Point(5) = {38.921356, -3.838958, 0, cl__3};
Point(6) = {38.921356, -3.838958, 1, cl__3};
Point(7) = {38.921356, 4.463243, 1, cl__4};
Point(8) = {20.858256, -2.436054, 1, cl__5};
Point(9) = {8.313287000000003, -1.8543, 1, cl__6};
Point(10) = {38.921356, 4.463243, 0, cl__4};
Point(11) = {20.858256, -2.436054, 0, cl__5};
Point(12) = {8.313287000000003, -1.8543, 0, cl__6};
Line(1) = {2, 1};
Line(2) = {1, 3};
Line(3) = {4, 3};
Line(4) = {2, 4};
Line(5) = {2, 5};
Line(6) = {5, 6};
Line(7) = {1, 6};
Line(8) = {3, 7};
Line(9) = {6, 7};
p10 = newp;
Point(p10 + 1) = {20.84778717439817, -2.303034958555921, 1};
Point(p10 + 2) = {20.81663847482306, -2.173291287377083, 1};
Point(p10 + 3) = {20.7655768856348, -2.050017706242468, 1};
Point(p10 + 4) = {20.69585971262292, -1.936249619841169, 1};
Point(p10 + 5) = {20.60920362396498, -1.834788376035017, 1};
Point(p10 + 6) = {20.50774238015883, -1.748132287377083, 1};
Point(p10 + 7) = {20.39397429375753, -1.678415114365195, 1};
Point(p10 + 8) = {20.27070071262292, -1.627353525176938, 1};
Point(p10 + 9) = {20.14095704144408, -1.596204825601824, 1};
Point(p10 + 10) = {20.007938, -1.585736, 1};
Point(p10 + 11) = {19.87491895855592, -1.596204825601824, 1};
Point(p10 + 12) = {19.74517528737708, -1.627353525176937, 1};
Point(p10 + 13) = {19.62190170624247, -1.678415114365195, 1};
Point(p10 + 14) = {19.50813361984117, -1.748132287377083, 1};
Point(p10 + 15) = {19.40667237603502, -1.834788376035017, 1};
Point(p10 + 16) = {19.32001628737708, -1.936249619841169, 1};
Point(p10 + 17) = {19.25029911436519, -2.050017706242468, 1};
Point(p10 + 18) = {19.19923752517694, -2.173291287377083, 1};
Point(p10 + 19) = {19.16808882560182, -2.303034958555921, 1};
Point(p10 + 20) = {19.15762, -2.436054, 1};
Point(p10 + 21) = {19.16808882560182, -2.569073041444079, 1};
Point(p10 + 22) = {19.19923752517694, -2.698816712622917, 1};
Point(p10 + 23) = {19.25029911436519, -2.822090293757531, 1};
Point(p10 + 24) = {19.32001628737708, -2.935858380158831, 1};
Point(p10 + 25) = {19.40667237603502, -3.037319623964983, 1};
Point(p10 + 26) = {19.50813361984117, -3.123975712622916, 1};
Point(p10 + 27) = {19.62190170624247, -3.193692885634805, 1};
Point(p10 + 28) = {19.74517528737708, -3.244754474823062, 1};
Point(p10 + 29) = {19.87491895855592, -3.275903174398176, 1};
Point(p10 + 30) = {20.007938, -3.286372, 1};
Point(p10 + 31) = {20.14095704144408, -3.275903174398176, 1};
Point(p10 + 32) = {20.27070071262292, -3.244754474823063, 1};
Point(p10 + 33) = {20.39397429375753, -3.193692885634805, 1};
Point(p10 + 34) = {20.50774238015883, -3.123975712622917, 1};
Point(p10 + 35) = {20.60920362396498, -3.037319623964983, 1};
Point(p10 + 36) = {20.69585971262292, -2.935858380158831, 1};
Point(p10 + 37) = {20.7655768856348, -2.822090293757532, 1};
Point(p10 + 38) = {20.81663847482306, -2.698816712622917, 1};
Point(p10 + 39) = {20.84778717439817, -2.569073041444079, 1};
Spline(10) = {8, p10 + 1, p10 + 2, p10 + 3, p10 + 4, p10 + 5, p10 + 6, p10 + 7, p10 + 8, p10 + 9, p10 + 10, p10 + 11, p10 + 12, p10 + 13, p10 + 14, p10 + 15, p10 + 16, p10 + 17, p10 + 18, p10 + 19, p10 + 20, p10 + 21, p10 + 22, p10 + 23, p10 + 24, p10 + 25, p10 + 26, p10 + 27, p10 + 28, p10 + 29, p10 + 30, p10 + 31, p10 + 32, p10 + 33, p10 + 34, p10 + 35, p10 + 36, p10 + 37, p10 + 38, p10 + 39, 8};
p11 = newp;
Point(p11 + 1) = {8.303201904198508, -1.726156707962295, 1};
Point(p11 + 2) = {8.273194945323175, -1.601168729057762, 1};
Point(p11 + 3) = {8.224004994288903, -1.48241368213835, 1};
Point(p11 + 4) = {8.156843270942238, -1.372815710584621, 1};
Point(p11 + 5) = {8.073363519808961, -1.27507348019104, 1};
Point(p11 + 6) = {7.97562128941538, -1.191593729057762, 1};
Point(p11 + 7) = {7.86602331786165, -1.124432005711099, 1};
Point(p11 + 8) = {7.747268270942238, -1.075242054676825, 1};
Point(p11 + 9) = {7.622280292037705, -1.045235095801493, 1};
Point(p11 + 10) = {7.494137, -1.03515, 1};
Point(p11 + 11) = {7.365993707962295, -1.045235095801493, 1};
Point(p11 + 12) = {7.241005729057762, -1.075242054676825, 1};
Point(p11 + 13) = {7.12225068213835, -1.124432005711098, 1};
Point(p11 + 14) = {7.012652710584621, -1.191593729057762, 1};
Point(p11 + 15) = {6.91491048019104, -1.27507348019104, 1};
Point(p11 + 16) = {6.831430729057762, -1.372815710584621, 1};
Point(p11 + 17) = {6.764269005711099, -1.48241368213835, 1};
Point(p11 + 18) = {6.715079054676825, -1.601168729057762, 1};
Point(p11 + 19) = {6.685072095801493, -1.726156707962295, 1};
Point(p11 + 20) = {6.674987, -1.8543, 1};
Point(p11 + 21) = {6.685072095801493, -1.982443292037705, 1};
Point(p11 + 22) = {6.715079054676825, -2.107431270942238, 1};
Point(p11 + 23) = {6.764269005711099, -2.226186317861649, 1};
Point(p11 + 24) = {6.831430729057762, -2.33578428941538, 1};
Point(p11 + 25) = {6.91491048019104, -2.43352651980896, 1};
Point(p11 + 26) = {7.012652710584621, -2.517006270942238, 1};
Point(p11 + 27) = {7.12225068213835, -2.584167994288902, 1};
Point(p11 + 28) = {7.241005729057762, -2.633357945323175, 1};
Point(p11 + 29) = {7.365993707962295, -2.663364904198507, 1};
Point(p11 + 30) = {7.494137, -2.67345, 1};
Point(p11 + 31) = {7.622280292037705, -2.663364904198507, 1};
Point(p11 + 32) = {7.747268270942238, -2.633357945323175, 1};
Point(p11 + 33) = {7.86602331786165, -2.584167994288902, 1};
Point(p11 + 34) = {7.975621289415379, -2.517006270942238, 1};
Point(p11 + 35) = {8.073363519808961, -2.433526519808961, 1};
Point(p11 + 36) = {8.156843270942238, -2.33578428941538, 1};
Point(p11 + 37) = {8.224004994288901, -2.22618631786165, 1};
Point(p11 + 38) = {8.273194945323175, -2.107431270942238, 1};
Point(p11 + 39) = {8.303201904198508, -1.982443292037705, 1};
Spline(11) = {9, p11 + 1, p11 + 2, p11 + 3, p11 + 4, p11 + 5, p11 + 6, p11 + 7, p11 + 8, p11 + 9, p11 + 10, p11 + 11, p11 + 12, p11 + 13, p11 + 14, p11 + 15, p11 + 16, p11 + 17, p11 + 18, p11 + 19, p11 + 20, p11 + 21, p11 + 22, p11 + 23, p11 + 24, p11 + 25, p11 + 26, p11 + 27, p11 + 28, p11 + 29, p11 + 30, p11 + 31, p11 + 32, p11 + 33, p11 + 34, p11 + 35, p11 + 36, p11 + 37, p11 + 38, p11 + 39, 9};
Line(12) = {4, 10};
Line(13) = {10, 7};
Line(14) = {5, 10};
p15 = newp;
Point(p15 + 1) = {20.84778717439817, -2.303034958555921, 0};
Point(p15 + 2) = {20.81663847482306, -2.173291287377083, 0};
Point(p15 + 3) = {20.7655768856348, -2.050017706242468, 0};
Point(p15 + 4) = {20.69585971262292, -1.936249619841169, 0};
Point(p15 + 5) = {20.60920362396498, -1.834788376035017, 0};
Point(p15 + 6) = {20.50774238015883, -1.748132287377083, 0};
Point(p15 + 7) = {20.39397429375753, -1.678415114365195, 0};
Point(p15 + 8) = {20.27070071262292, -1.627353525176938, 0};
Point(p15 + 9) = {20.14095704144408, -1.596204825601824, 0};
Point(p15 + 10) = {20.007938, -1.585736, 0};
Point(p15 + 11) = {19.87491895855592, -1.596204825601824, 0};
Point(p15 + 12) = {19.74517528737708, -1.627353525176937, 0};
Point(p15 + 13) = {19.62190170624247, -1.678415114365195, 0};
Point(p15 + 14) = {19.50813361984117, -1.748132287377083, 0};
Point(p15 + 15) = {19.40667237603502, -1.834788376035017, 0};
Point(p15 + 16) = {19.32001628737708, -1.936249619841169, 0};
Point(p15 + 17) = {19.25029911436519, -2.050017706242468, 0};
Point(p15 + 18) = {19.19923752517694, -2.173291287377083, 0};
Point(p15 + 19) = {19.16808882560182, -2.303034958555921, 0};
Point(p15 + 20) = {19.15762, -2.436054, 0};
Point(p15 + 21) = {19.16808882560182, -2.569073041444079, 0};
Point(p15 + 22) = {19.19923752517694, -2.698816712622917, 0};
Point(p15 + 23) = {19.25029911436519, -2.822090293757531, 0};
Point(p15 + 24) = {19.32001628737708, -2.935858380158831, 0};
Point(p15 + 25) = {19.40667237603502, -3.037319623964983, 0};
Point(p15 + 26) = {19.50813361984117, -3.123975712622916, 0};
Point(p15 + 27) = {19.62190170624247, -3.193692885634805, 0};
Point(p15 + 28) = {19.74517528737708, -3.244754474823062, 0};
Point(p15 + 29) = {19.87491895855592, -3.275903174398176, 0};
Point(p15 + 30) = {20.007938, -3.286372, 0};
Point(p15 + 31) = {20.14095704144408, -3.275903174398176, 0};
Point(p15 + 32) = {20.27070071262292, -3.244754474823063, 0};
Point(p15 + 33) = {20.39397429375753, -3.193692885634805, 0};
Point(p15 + 34) = {20.50774238015883, -3.123975712622917, 0};
Point(p15 + 35) = {20.60920362396498, -3.037319623964983, 0};
Point(p15 + 36) = {20.69585971262292, -2.935858380158831, 0};
Point(p15 + 37) = {20.7655768856348, -2.822090293757532, 0};
Point(p15 + 38) = {20.81663847482306, -2.698816712622917, 0};
Point(p15 + 39) = {20.84778717439817, -2.569073041444079, 0};
Spline(15) = {11, p15 + 1, p15 + 2, p15 + 3, p15 + 4, p15 + 5, p15 + 6, p15 + 7, p15 + 8, p15 + 9, p15 + 10, p15 + 11, p15 + 12, p15 + 13, p15 + 14, p15 + 15, p15 + 16, p15 + 17, p15 + 18, p15 + 19, p15 + 20, p15 + 21, p15 + 22, p15 + 23, p15 + 24, p15 + 25, p15 + 26, p15 + 27, p15 + 28, p15 + 29, p15 + 30, p15 + 31, p15 + 32, p15 + 33, p15 + 34, p15 + 35, p15 + 36, p15 + 37, p15 + 38, p15 + 39, 11};
p16 = newp;
Point(p16 + 1) = {8.303201904198508, -1.726156707962295, 0};
Point(p16 + 2) = {8.273194945323175, -1.601168729057762, 0};
Point(p16 + 3) = {8.224004994288903, -1.48241368213835, 0};
Point(p16 + 4) = {8.156843270942238, -1.372815710584621, 0};
Point(p16 + 5) = {8.073363519808961, -1.27507348019104, 0};
Point(p16 + 6) = {7.97562128941538, -1.191593729057762, 0};
Point(p16 + 7) = {7.86602331786165, -1.124432005711099, 0};
Point(p16 + 8) = {7.747268270942238, -1.075242054676825, 0};
Point(p16 + 9) = {7.622280292037705, -1.045235095801493, 0};
Point(p16 + 10) = {7.494137, -1.03515, 0};
Point(p16 + 11) = {7.365993707962295, -1.045235095801493, 0};
Point(p16 + 12) = {7.241005729057762, -1.075242054676825, 0};
Point(p16 + 13) = {7.12225068213835, -1.124432005711098, 0};
Point(p16 + 14) = {7.012652710584621, -1.191593729057762, 0};
Point(p16 + 15) = {6.91491048019104, -1.27507348019104, 0};
Point(p16 + 16) = {6.831430729057762, -1.372815710584621, 0};
Point(p16 + 17) = {6.764269005711099, -1.48241368213835, 0};
Point(p16 + 18) = {6.715079054676825, -1.601168729057762, 0};
Point(p16 + 19) = {6.685072095801493, -1.726156707962295, 0};
Point(p16 + 20) = {6.674987, -1.8543, 0};
Point(p16 + 21) = {6.685072095801493, -1.982443292037705, 0};
Point(p16 + 22) = {6.715079054676825, -2.107431270942238, 0};
Point(p16 + 23) = {6.764269005711099, -2.226186317861649, 0};
Point(p16 + 24) = {6.831430729057762, -2.33578428941538, 0};
Point(p16 + 25) = {6.91491048019104, -2.43352651980896, 0};
Point(p16 + 26) = {7.012652710584621, -2.517006270942238, 0};
Point(p16 + 27) = {7.12225068213835, -2.584167994288902, 0};
Point(p16 + 28) = {7.241005729057762, -2.633357945323175, 0};
Point(p16 + 29) = {7.365993707962295, -2.663364904198507, 0};
Point(p16 + 30) = {7.494137, -2.67345, 0};
Point(p16 + 31) = {7.622280292037705, -2.663364904198507, 0};
Point(p16 + 32) = {7.747268270942238, -2.633357945323175, 0};
Point(p16 + 33) = {7.86602331786165, -2.584167994288902, 0};
Point(p16 + 34) = {7.975621289415379, -2.517006270942238, 0};
Point(p16 + 35) = {8.073363519808961, -2.433526519808961, 0};
Point(p16 + 36) = {8.156843270942238, -2.33578428941538, 0};
Point(p16 + 37) = {8.224004994288901, -2.22618631786165, 0};
Point(p16 + 38) = {8.273194945323175, -2.107431270942238, 0};
Point(p16 + 39) = {8.303201904198508, -1.982443292037705, 0};
Spline(16) = {12, p16 + 1, p16 + 2, p16 + 3, p16 + 4, p16 + 5, p16 + 6, p16 + 7, p16 + 8, p16 + 9, p16 + 10, p16 + 11, p16 + 12, p16 + 13, p16 + 14, p16 + 15, p16 + 16, p16 + 17, p16 + 18, p16 + 19, p16 + 20, p16 + 21, p16 + 22, p16 + 23, p16 + 24, p16 + 25, p16 + 26, p16 + 27, p16 + 28, p16 + 29, p16 + 30, p16 + 31, p16 + 32, p16 + 33, p16 + 34, p16 + 35, p16 + 36, p16 + 37, p16 + 38, p16 + 39, 12};
Line(17) = {11, 8};
Line(18) = {12, 9};
Curve Loop(1) = {-1, 4, 3, -2};
Plane Surface(1) = {1};
Curve Loop(2) = {-5, 1, 7, -6};
Plane Surface(2) = {2};
Curve Loop(3) = {-2, 7, 9, -8, -10, -11};
Plane Surface(3) = {3};
Curve Loop(4) = {-12, 3, 8, -13};
Plane Surface(4) = {4};
Curve Loop(5) = {-4, 5, 14, -12, -15, -16};
Plane Surface(5) = {5};
Curve Loop(6) = {-6, 14, 13, -9};
Plane Surface(6) = {6};
Curve Loop(7) = {-10, -17, 15, 17};
Surface(7) = {7};
Curve Loop(8) = {-11, -18, 16, 18};
Surface(8) = {8};
Surface Loop(1) = {1, 2, 3, 4, 5, 6, 7, 8};
Volume(1) = {1};
Physical Surface("INFLOW") = {1};
Physical Surface("OUTFLOW") = {6};
Physical Surface("OBSTACLE") = {7, 8};
Physical Surface("WALL_Y") = {2, 4};
Physical Surface("WALL_Z") = {3, 5};
Physical Volume("FLUID") = {1};
