cl__1 = 0.438367;
cl__2 = 0.366407;
cl__3 = 3.966217;
cl__4 = 4.191241;
cl__5 = 0.10566;
cl__6 = 0.075502;
Point(1) = {0.682659, -4.205332, 1, cl__1};
Point(2) = {0.682659, -4.205332, 0, cl__1};
Point(3) = {0.682659, 4.579285, 1, cl__2};
Point(4) = {0.682659, 4.579285, 0, cl__2};
Point(5) = {31.737951, -4.205332, 0, cl__3};
Point(6) = {31.737951, -4.205332, 1, cl__3};
Point(7) = {31.737951, 4.579285, 1, cl__4};
Point(8) = {13.028098, -0.6280310000000003, 1, cl__5};
Point(9) = {4.883061000000001, 0.7377849999999998, 1, cl__6};
Point(10) = {31.737951, 4.579285, 0, cl__4};
Point(11) = {13.028098, -0.6280310000000003, 0, cl__5};
Point(12) = {4.883061000000001, 0.7377849999999998, 0, cl__6};
Line(1) = {2, 1};
Line(2) = {1, 3};
Line(3) = {4, 3};
Line(4) = {2, 4};
Line(5) = {2, 5};
Line(6) = {5, 6};
Line(7) = {1, 6};
Line(8) = {3, 7};
Line(9) = {6, 7};
p10 = newp;
Point(p10 + 1) = {13.01508951298448, -0.4627425006729571, 1};
Point(p10 + 2) = {12.97638436406094, -0.3015239527604249, 1};
Point(p10 + 3) = {12.9129356024509, -0.1483450919656946, 1};
Point(p10 + 4) = {12.82630554723957, -0.006977690213025189, 1};
Point(p10 + 5) = {12.71862731789492, 0.1190973178949249, 1};
Point(p10 + 6) = {12.59255230978697, 0.2267755472395752, 1};
Point(p10 + 7) = {12.45118490803431, 0.3134056024509053, 1};
Point(p10 + 8) = {12.29800604723957, 0.376854364060943, 1};
Point(p10 + 9) = {12.13678749932704, 0.415559512984482, 1};
Point(p10 + 10) = {11.971499, 0.4285680000000001, 1};
Point(p10 + 11) = {11.80621050067296, 0.415559512984482, 1};
Point(p10 + 12) = {11.64499195276042, 0.3768543640609432, 1};
Point(p10 + 13) = {11.49181309196569, 0.3134056024509054, 1};
Point(p10 + 14) = {11.35044569021303, 0.2267755472395752, 1};
Point(p10 + 15) = {11.22437068210508, 0.1190973178949251, 1};
Point(p10 + 16) = {11.11669245276043, -0.006977690213025078, 1};
Point(p10 + 17) = {11.0300623975491, -0.1483450919656945, 1};
Point(p10 + 18) = {10.96661363593906, -0.3015239527604248, 1};
Point(p10 + 19) = {10.92790848701552, -0.462742500672957, 1};
Point(p10 + 20) = {10.9149, -0.6280309999999999, 1};
Point(p10 + 21) = {10.92790848701552, -0.7933194993270427, 1};
Point(p10 + 22) = {10.96661363593906, -0.9545380472395755, 1};
Point(p10 + 23) = {11.03006239754909, -1.107716908034305, 1};
Point(p10 + 24) = {11.11669245276043, -1.249084309786975, 1};
Point(p10 + 25) = {11.22437068210508, -1.375159317894925, 1};
Point(p10 + 26) = {11.35044569021303, -1.482837547239575, 1};
Point(p10 + 27) = {11.49181309196569, -1.569467602450905, 1};
Point(p10 + 28) = {11.64499195276042, -1.632916364060943, 1};
Point(p10 + 29) = {11.80621050067296, -1.671621512984482, 1};
Point(p10 + 30) = {11.971499, -1.68463, 1};
Point(p10 + 31) = {12.13678749932704, -1.671621512984482, 1};
Point(p10 + 32) = {12.29800604723957, -1.632916364060943, 1};
Point(p10 + 33) = {12.45118490803431, -1.569467602450906, 1};
Point(p10 + 34) = {12.59255230978697, -1.482837547239575, 1};
Point(p10 + 35) = {12.71862731789492, -1.375159317894925, 1};
Point(p10 + 36) = {12.82630554723957, -1.249084309786975, 1};
Point(p10 + 37) = {12.9129356024509, -1.107716908034306, 1};
Point(p10 + 38) = {12.97638436406094, -0.9545380472395752, 1};
Point(p10 + 39) = {13.01508951298448, -0.7933194993270432, 1};
Spline(10) = {8, p10 + 1, p10 + 2, p10 + 3, p10 + 4, p10 + 5, p10 + 6, p10 + 7, p10 + 8, p10 + 9, p10 + 10, p10 + 11, p10 + 12, p10 + 13, p10 + 14, p10 + 15, p10 + 16, p10 + 17, p10 + 18, p10 + 19, p10 + 20, p10 + 21, p10 + 22, p10 + 23, p10 + 24, p10 + 25, p10 + 26, p10 + 27, p10 + 28, p10 + 29, p10 + 30, p10 + 31, p10 + 32, p10 + 33, p10 + 34, p10 + 35, p10 + 36, p10 + 37, p10 + 38, p10 + 39, 8};
p11 = newp;
Point(p11 + 1) = {4.873765500162778, 0.855895524056815, 1};
Point(p11 + 2) = {4.846107886707101, 0.9710977750249953, 1};
Point(p11 + 3) = {4.800769181866605, 1.080555091151354, 1};
Point(p11 + 4) = {4.738865775024996, 1.181572270044854, 1};
Point(p11 + 5) = {4.661921933504343, 1.271661933504342, 1};
Point(p11 + 6) = {4.571832270044854, 1.348605775024995, 1};
Point(p11 + 7) = {4.470815091151354, 1.410509181866605, 1};
Point(p11 + 8) = {4.361357775024995, 1.455847886707102, 1};
Point(p11 + 9) = {4.246155524056816, 1.483505500162779, 1};
Point(p11 + 10) = {4.128045, 1.492801, 1};
Point(p11 + 11) = {4.009934475943185, 1.483505500162778, 1};
Point(p11 + 12) = {3.894732224975005, 1.455847886707102, 1};
Point(p11 + 13) = {3.785274908848646, 1.410509181866605, 1};
Point(p11 + 14) = {3.684257729955146, 1.348605775024995, 1};
Point(p11 + 15) = {3.594168066495658, 1.271661933504342, 1};
Point(p11 + 16) = {3.517224224975005, 1.181572270044854, 1};
Point(p11 + 17) = {3.455320818133395, 1.080555091151354, 1};
Point(p11 + 18) = {3.409982113292898, 0.9710977750249954, 1};
Point(p11 + 19) = {3.382324499837222, 0.855895524056815, 1};
Point(p11 + 20) = {3.373029, 0.7377850000000001, 1};
Point(p11 + 21) = {3.382324499837221, 0.6196744759431851, 1};
Point(p11 + 22) = {3.409982113292898, 0.5044722249750044, 1};
Point(p11 + 23) = {3.455320818133395, 0.3950149088486468, 1};
Point(p11 + 24) = {3.517224224975005, 0.2939977299551462, 1};
Point(p11 + 25) = {3.594168066495658, 0.2039080664956577, 1};
Point(p11 + 26) = {3.684257729955146, 0.1269642249750048, 1};
Point(p11 + 27) = {3.785274908848646, 0.06506081813339526, 1};
Point(p11 + 28) = {3.894732224975005, 0.01972211329289841, 1};
Point(p11 + 29) = {4.009934475943185, -0.007935500162778442, 1};
Point(p11 + 30) = {4.128045, -0.017231, 1};
Point(p11 + 31) = {4.246155524056815, -0.007935500162778553, 1};
Point(p11 + 32) = {4.361357775024995, 0.0197221132928983, 1};
Point(p11 + 33) = {4.470815091151354, 0.06506081813339526, 1};
Point(p11 + 34) = {4.571832270044854, 0.1269642249750046, 1};
Point(p11 + 35) = {4.661921933504343, 0.2039080664956575, 1};
Point(p11 + 36) = {4.738865775024996, 0.2939977299551459, 1};
Point(p11 + 37) = {4.800769181866605, 0.3950149088486462, 1};
Point(p11 + 38) = {4.846107886707101, 0.5044722249750045, 1};
Point(p11 + 39) = {4.873765500162778, 0.6196744759431849, 1};
Spline(11) = {9, p11 + 1, p11 + 2, p11 + 3, p11 + 4, p11 + 5, p11 + 6, p11 + 7, p11 + 8, p11 + 9, p11 + 10, p11 + 11, p11 + 12, p11 + 13, p11 + 14, p11 + 15, p11 + 16, p11 + 17, p11 + 18, p11 + 19, p11 + 20, p11 + 21, p11 + 22, p11 + 23, p11 + 24, p11 + 25, p11 + 26, p11 + 27, p11 + 28, p11 + 29, p11 + 30, p11 + 31, p11 + 32, p11 + 33, p11 + 34, p11 + 35, p11 + 36, p11 + 37, p11 + 38, p11 + 39, 9};
Line(12) = {4, 10};
Line(13) = {10, 7};
Line(14) = {5, 10};
p15 = newp;
Point(p15 + 1) = {13.01508951298448, -0.4627425006729571, 0};
Point(p15 + 2) = {12.97638436406094, -0.3015239527604249, 0};
Point(p15 + 3) = {12.9129356024509, -0.1483450919656946, 0};
Point(p15 + 4) = {12.82630554723957, -0.006977690213025189, 0};
Point(p15 + 5) = {12.71862731789492, 0.1190973178949249, 0};
Point(p15 + 6) = {12.59255230978697, 0.2267755472395752, 0};
Point(p15 + 7) = {12.45118490803431, 0.3134056024509053, 0};
Point(p15 + 8) = {12.29800604723957, 0.376854364060943, 0};
Point(p15 + 9) = {12.13678749932704, 0.415559512984482, 0};
Point(p15 + 10) = {11.971499, 0.4285680000000001, 0};
Point(p15 + 11) = {11.80621050067296, 0.415559512984482, 0};
Point(p15 + 12) = {11.64499195276042, 0.3768543640609432, 0};
Point(p15 + 13) = {11.49181309196569, 0.3134056024509054, 0};
Point(p15 + 14) = {11.35044569021303, 0.2267755472395752, 0};
Point(p15 + 15) = {11.22437068210508, 0.1190973178949251, 0};
Point(p15 + 16) = {11.11669245276043, -0.006977690213025078, 0};
Point(p15 + 17) = {11.0300623975491, -0.1483450919656945, 0};
Point(p15 + 18) = {10.96661363593906, -0.3015239527604248, 0};
Point(p15 + 19) = {10.92790848701552, -0.462742500672957, 0};
Point(p15 + 20) = {10.9149, -0.6280309999999999, 0};
Point(p15 + 21) = {10.92790848701552, -0.7933194993270427, 0};
Point(p15 + 22) = {10.96661363593906, -0.9545380472395755, 0};
Point(p15 + 23) = {11.03006239754909, -1.107716908034305, 0};
Point(p15 + 24) = {11.11669245276043, -1.249084309786975, 0};
Point(p15 + 25) = {11.22437068210508, -1.375159317894925, 0};
Point(p15 + 26) = {11.35044569021303, -1.482837547239575, 0};
Point(p15 + 27) = {11.49181309196569, -1.569467602450905, 0};
Point(p15 + 28) = {11.64499195276042, -1.632916364060943, 0};
Point(p15 + 29) = {11.80621050067296, -1.671621512984482, 0};
Point(p15 + 30) = {11.971499, -1.68463, 0};
Point(p15 + 31) = {12.13678749932704, -1.671621512984482, 0};
Point(p15 + 32) = {12.29800604723957, -1.632916364060943, 0};
Point(p15 + 33) = {12.45118490803431, -1.569467602450906, 0};
Point(p15 + 34) = {12.59255230978697, -1.482837547239575, 0};
Point(p15 + 35) = {12.71862731789492, -1.375159317894925, 0};
Point(p15 + 36) = {12.82630554723957, -1.249084309786975, 0};
Point(p15 + 37) = {12.9129356024509, -1.107716908034306, 0};
Point(p15 + 38) = {12.97638436406094, -0.9545380472395752, 0};
Point(p15 + 39) = {13.01508951298448, -0.7933194993270432, 0};
Spline(15) = {11, p15 + 1, p15 + 2, p15 + 3, p15 + 4, p15 + 5, p15 + 6, p15 + 7, p15 + 8, p15 + 9, p15 + 10, p15 + 11, p15 + 12, p15 + 13, p15 + 14, p15 + 15, p15 + 16, p15 + 17, p15 + 18, p15 + 19, p15 + 20, p15 + 21, p15 + 22, p15 + 23, p15 + 24, p15 + 25, p15 + 26, p15 + 27, p15 + 28, p15 + 29, p15 + 30, p15 + 31, p15 + 32, p15 + 33, p15 + 34, p15 + 35, p15 + 36, p15 + 37, p15 + 38, p15 + 39, 11};
p16 = newp;
Point(p16 + 1) = {4.873765500162778, 0.855895524056815, 0};
Point(p16 + 2) = {4.846107886707101, 0.9710977750249953, 0};
Point(p16 + 3) = {4.800769181866605, 1.080555091151354, 0};
Point(p16 + 4) = {4.738865775024996, 1.181572270044854, 0};
Point(p16 + 5) = {4.661921933504343, 1.271661933504342, 0};
Point(p16 + 6) = {4.571832270044854, 1.348605775024995, 0};
Point(p16 + 7) = {4.470815091151354, 1.410509181866605, 0};
Point(p16 + 8) = {4.361357775024995, 1.455847886707102, 0};
Point(p16 + 9) = {4.246155524056816, 1.483505500162779, 0};
Point(p16 + 10) = {4.128045, 1.492801, 0};
Point(p16 + 11) = {4.009934475943185, 1.483505500162778, 0};
Point(p16 + 12) = {3.894732224975005, 1.455847886707102, 0};
Point(p16 + 13) = {3.785274908848646, 1.410509181866605, 0};
Point(p16 + 14) = {3.684257729955146, 1.348605775024995, 0};
Point(p16 + 15) = {3.594168066495658, 1.271661933504342, 0};
Point(p16 + 16) = {3.517224224975005, 1.181572270044854, 0};
Point(p16 + 17) = {3.455320818133395, 1.080555091151354, 0};
Point(p16 + 18) = {3.409982113292898, 0.9710977750249954, 0};
Point(p16 + 19) = {3.382324499837222, 0.855895524056815, 0};
Point(p16 + 20) = {3.373029, 0.7377850000000001, 0};
Point(p16 + 21) = {3.382324499837221, 0.6196744759431851, 0};
Point(p16 + 22) = {3.409982113292898, 0.5044722249750044, 0};
Point(p16 + 23) = {3.455320818133395, 0.3950149088486468, 0};
Point(p16 + 24) = {3.517224224975005, 0.2939977299551462, 0};
Point(p16 + 25) = {3.594168066495658, 0.2039080664956577, 0};
Point(p16 + 26) = {3.684257729955146, 0.1269642249750048, 0};
Point(p16 + 27) = {3.785274908848646, 0.06506081813339526, 0};
Point(p16 + 28) = {3.894732224975005, 0.01972211329289841, 0};
Point(p16 + 29) = {4.009934475943185, -0.007935500162778442, 0};
Point(p16 + 30) = {4.128045, -0.017231, 0};
Point(p16 + 31) = {4.246155524056815, -0.007935500162778553, 0};
Point(p16 + 32) = {4.361357775024995, 0.0197221132928983, 0};
Point(p16 + 33) = {4.470815091151354, 0.06506081813339526, 0};
Point(p16 + 34) = {4.571832270044854, 0.1269642249750046, 0};
Point(p16 + 35) = {4.661921933504343, 0.2039080664956575, 0};
Point(p16 + 36) = {4.738865775024996, 0.2939977299551459, 0};
Point(p16 + 37) = {4.800769181866605, 0.3950149088486462, 0};
Point(p16 + 38) = {4.846107886707101, 0.5044722249750045, 0};
Point(p16 + 39) = {4.873765500162778, 0.6196744759431849, 0};
Spline(16) = {12, p16 + 1, p16 + 2, p16 + 3, p16 + 4, p16 + 5, p16 + 6, p16 + 7, p16 + 8, p16 + 9, p16 + 10, p16 + 11, p16 + 12, p16 + 13, p16 + 14, p16 + 15, p16 + 16, p16 + 17, p16 + 18, p16 + 19, p16 + 20, p16 + 21, p16 + 22, p16 + 23, p16 + 24, p16 + 25, p16 + 26, p16 + 27, p16 + 28, p16 + 29, p16 + 30, p16 + 31, p16 + 32, p16 + 33, p16 + 34, p16 + 35, p16 + 36, p16 + 37, p16 + 38, p16 + 39, 12};
Line(17) = {11, 8};
Line(18) = {12, 9};
Curve Loop(1) = {-1, 4, 3, -2};
Plane Surface(1) = {1};
Curve Loop(2) = {-5, 1, 7, -6};
Plane Surface(2) = {2};
Curve Loop(3) = {-2, 7, 9, -8, -10, -11};
Plane Surface(3) = {3};
Curve Loop(4) = {-12, 3, 8, -13};
Plane Surface(4) = {4};
Curve Loop(5) = {-4, 5, 14, -12, -15, -16};
Plane Surface(5) = {5};
Curve Loop(6) = {-6, 14, 13, -9};
Plane Surface(6) = {6};
Curve Loop(7) = {-10, -17, 15, 17};
Surface(7) = {7};
Curve Loop(8) = {-11, -18, 16, 18};
Surface(8) = {8};
Surface Loop(1) = {1, 2, 3, 4, 5, 6, 7, 8};
Volume(1) = {1};
Physical Surface("INFLOW") = {1};
Physical Surface("OUTFLOW") = {6};
Physical Surface("OBSTACLE") = {7, 8};
Physical Surface("WALL_Y") = {2, 4};
Physical Surface("WALL_Z") = {3, 5};
Physical Volume("FLUID") = {1};
