cl__1 = 3.833692;
cl__2 = 0.624179;
cl__3 = 0.407087;
cl__4 = 0.07376000000000001;
cl__5 = 0.136484;
Point(1) = {0.753594, -3.845794, 1, cl__1};
Point(2) = {0.753594, -3.845794, 0, cl__1};
Point(3) = {0.753594, 3.910406, 1, cl__1};
Point(4) = {0.753594, 3.910406, 0, cl__1};
Point(5) = {38.140262, -3.845794, 0, cl__2};
Point(6) = {38.140262, -3.845794, 1, cl__2};
Point(7) = {38.140262, 3.910406, 1, cl__3};
Point(8) = {29.053411, 0.4752269999999998, 1, cl__4};
Point(9) = {34.471938, 1.857552, 1, cl__5};
Point(10) = {38.140262, 3.910406, 0, cl__3};
Point(11) = {29.053411, 0.4752269999999998, 0, cl__4};
Point(12) = {34.471938, 1.857552, 0, cl__5};
Line(1) = {2, 1};
Line(2) = {1, 3};
Line(3) = {4, 3};
Line(4) = {2, 4};
Line(5) = {2, 5};
Line(6) = {5, 6};
Line(7) = {1, 6};
Line(8) = {3, 7};
Line(9) = {6, 7};
p10 = newp;
Point(p10 + 1) = {29.04432998158127, 0.5906122792413491, 1};
Point(p10 + 2) = {29.01731053113673, 0.7031563899659894, 1};
Point(p10 + 3) = {28.97301795720872, 0.810088122655391, 1};
Point(p10 + 4) = {28.91254288996599, 0.9087744631646668, 1};
Point(p10 + 5) = {28.83737442626929, 0.9967854262692915, 1};
Point(p10 + 6) = {28.74936346316467, 1.071953889965989, 1};
Point(p10 + 7) = {28.65067712265539, 1.132428957208719, 1};
Point(p10 + 8) = {28.54374538996599, 1.176721531136724, 1};
Point(p10 + 9) = {28.43120127924135, 1.203740981581271, 1};
Point(p10 + 10) = {28.315816, 1.212822, 1};
Point(p10 + 11) = {28.20043072075865, 1.203740981581271, 1};
Point(p10 + 12) = {28.08788661003401, 1.176721531136724, 1};
Point(p10 + 13) = {27.98095487734461, 1.132428957208719, 1};
Point(p10 + 14) = {27.88226853683533, 1.071953889965989, 1};
Point(p10 + 15) = {27.79425757373071, 0.9967854262692917, 1};
Point(p10 + 16) = {27.71908911003401, 0.9087744631646668, 1};
Point(p10 + 17) = {27.65861404279128, 0.8100881226553911, 1};
Point(p10 + 18) = {27.61432146886328, 0.7031563899659894, 1};
Point(p10 + 19) = {27.58730201841873, 0.5906122792413492, 1};
Point(p10 + 20) = {27.578221, 0.4752270000000001, 1};
Point(p10 + 21) = {27.58730201841873, 0.359841720758651, 1};
Point(p10 + 22) = {27.61432146886328, 0.2472976100340104, 1};
Point(p10 + 23) = {27.65861404279128, 0.1403658773446094, 1};
Point(p10 + 24) = {27.71908911003401, 0.04167953683533338, 1};
Point(p10 + 25) = {27.79425757373071, -0.04633142626929149, 1};
Point(p10 + 26) = {27.88226853683533, -0.1214998899659893, 1};
Point(p10 + 27) = {27.98095487734461, -0.1819749572087191, 1};
Point(p10 + 28) = {28.08788661003401, -0.2262675311367238, 1};
Point(p10 + 29) = {28.20043072075865, -0.2532869815812706, 1};
Point(p10 + 30) = {28.315816, -0.262368, 1};
Point(p10 + 31) = {28.43120127924135, -0.2532869815812707, 1};
Point(p10 + 32) = {28.54374538996599, -0.2262675311367239, 1};
Point(p10 + 33) = {28.65067712265539, -0.1819749572087192, 1};
Point(p10 + 34) = {28.74936346316467, -0.1214998899659894, 1};
Point(p10 + 35) = {28.83737442626929, -0.0463314262692916, 1};
Point(p10 + 36) = {28.91254288996599, 0.0416795368353331, 1};
Point(p10 + 37) = {28.97301795720872, 0.1403658773446089, 1};
Point(p10 + 38) = {29.01731053113673, 0.2472976100340105, 1};
Point(p10 + 39) = {29.04432998158127, 0.3598417207586507, 1};
Spline(10) = {8, p10 + 1, p10 + 2, p10 + 3, p10 + 4, p10 + 5, p10 + 6, p10 + 7, p10 + 8, p10 + 9, p10 + 10, p10 + 11, p10 + 12, p10 + 13, p10 + 14, p10 + 15, p10 + 16, p10 + 17, p10 + 18, p10 + 19, p10 + 20, p10 + 21, p10 + 22, p10 + 23, p10 + 24, p10 + 25, p10 + 26, p10 + 27, p10 + 28, p10 + 29, p10 + 30, p10 + 31, p10 + 32, p10 + 33, p10 + 34, p10 + 35, p10 + 36, p10 + 37, p10 + 38, p10 + 39, 8};
p11 = newp;
Point(p11 + 1) = {34.45513454246621, 2.071060171699974, 1};
Point(p11 + 2) = {34.40513792675679, 2.279311063619698, 1};
Point(p11 + 3) = {34.32317923547978, 2.477176847655023, 1};
Point(p11 + 4) = {34.2112765636197, 2.659785411524112, 1};
Point(p11 + 5) = {34.07218532634143, 2.822640326341429, 1};
Point(p11 + 6) = {33.90933041152412, 2.961731563619698, 1};
Point(p11 + 7) = {33.72672184765503, 3.073634235479776, 1};
Point(p11 + 8) = {33.5288560636197, 3.155592926756793, 1};
Point(p11 + 9) = {33.32060517169997, 3.205589542466209, 1};
Point(p11 + 10) = {33.107097, 3.222393, 1};
Point(p11 + 11) = {32.89358882830003, 3.205589542466209, 1};
Point(p11 + 12) = {32.68533793638031, 3.155592926756794, 1};
Point(p11 + 13) = {32.48747215234498, 3.073634235479776, 1};
Point(p11 + 14) = {32.30486358847589, 2.961731563619698, 1};
Point(p11 + 15) = {32.14200867365857, 2.822640326341429, 1};
Point(p11 + 16) = {32.00291743638031, 2.659785411524112, 1};
Point(p11 + 17) = {31.89101476452023, 2.477176847655023, 1};
Point(p11 + 18) = {31.80905607324321, 2.279311063619698, 1};
Point(p11 + 19) = {31.75905945753379, 2.071060171699974, 1};
Point(p11 + 20) = {31.742256, 1.857552, 1};
Point(p11 + 21) = {31.75905945753379, 1.644043828300026, 1};
Point(p11 + 22) = {31.80905607324321, 1.435792936380302, 1};
Point(p11 + 23) = {31.89101476452023, 1.237927152344978, 1};
Point(p11 + 24) = {32.00291743638031, 1.055318588475889, 1};
Point(p11 + 25) = {32.14200867365857, 0.8924636736585715, 1};
Point(p11 + 26) = {32.30486358847589, 0.7533724363803027, 1};
Point(p11 + 27) = {32.48747215234498, 0.6414697645202241, 1};
Point(p11 + 28) = {32.68533793638031, 0.5595110732432065, 1};
Point(p11 + 29) = {32.89358882830003, 0.5095144575337918, 1};
Point(p11 + 30) = {33.107097, 0.4927110000000001, 1};
Point(p11 + 31) = {33.32060517169997, 0.5095144575337918, 1};
Point(p11 + 32) = {33.5288560636197, 0.5595110732432063, 1};
Point(p11 + 33) = {33.72672184765503, 0.6414697645202239, 1};
Point(p11 + 34) = {33.90933041152412, 0.7533724363803023, 1};
Point(p11 + 35) = {34.07218532634143, 0.8924636736585712, 1};
Point(p11 + 36) = {34.2112765636197, 1.055318588475888, 1};
Point(p11 + 37) = {34.32317923547978, 1.237927152344977, 1};
Point(p11 + 38) = {34.40513792675679, 1.435792936380302, 1};
Point(p11 + 39) = {34.45513454246621, 1.644043828300026, 1};
Spline(11) = {9, p11 + 1, p11 + 2, p11 + 3, p11 + 4, p11 + 5, p11 + 6, p11 + 7, p11 + 8, p11 + 9, p11 + 10, p11 + 11, p11 + 12, p11 + 13, p11 + 14, p11 + 15, p11 + 16, p11 + 17, p11 + 18, p11 + 19, p11 + 20, p11 + 21, p11 + 22, p11 + 23, p11 + 24, p11 + 25, p11 + 26, p11 + 27, p11 + 28, p11 + 29, p11 + 30, p11 + 31, p11 + 32, p11 + 33, p11 + 34, p11 + 35, p11 + 36, p11 + 37, p11 + 38, p11 + 39, 9};
Line(12) = {4, 10};
Line(13) = {10, 7};
Line(14) = {5, 10};
p15 = newp;
Point(p15 + 1) = {29.04432998158127, 0.5906122792413491, 0};
Point(p15 + 2) = {29.01731053113673, 0.7031563899659894, 0};
Point(p15 + 3) = {28.97301795720872, 0.810088122655391, 0};
Point(p15 + 4) = {28.91254288996599, 0.9087744631646668, 0};
Point(p15 + 5) = {28.83737442626929, 0.9967854262692915, 0};
Point(p15 + 6) = {28.74936346316467, 1.071953889965989, 0};
Point(p15 + 7) = {28.65067712265539, 1.132428957208719, 0};
Point(p15 + 8) = {28.54374538996599, 1.176721531136724, 0};
Point(p15 + 9) = {28.43120127924135, 1.203740981581271, 0};
Point(p15 + 10) = {28.315816, 1.212822, 0};
Point(p15 + 11) = {28.20043072075865, 1.203740981581271, 0};
Point(p15 + 12) = {28.08788661003401, 1.176721531136724, 0};
Point(p15 + 13) = {27.98095487734461, 1.132428957208719, 0};
Point(p15 + 14) = {27.88226853683533, 1.071953889965989, 0};
Point(p15 + 15) = {27.79425757373071, 0.9967854262692917, 0};
Point(p15 + 16) = {27.71908911003401, 0.9087744631646668, 0};
Point(p15 + 17) = {27.65861404279128, 0.8100881226553911, 0};
Point(p15 + 18) = {27.61432146886328, 0.7031563899659894, 0};
Point(p15 + 19) = {27.58730201841873, 0.5906122792413492, 0};
Point(p15 + 20) = {27.578221, 0.4752270000000001, 0};
Point(p15 + 21) = {27.58730201841873, 0.359841720758651, 0};
Point(p15 + 22) = {27.61432146886328, 0.2472976100340104, 0};
Point(p15 + 23) = {27.65861404279128, 0.1403658773446094, 0};
Point(p15 + 24) = {27.71908911003401, 0.04167953683533338, 0};
Point(p15 + 25) = {27.79425757373071, -0.04633142626929149, 0};
Point(p15 + 26) = {27.88226853683533, -0.1214998899659893, 0};
Point(p15 + 27) = {27.98095487734461, -0.1819749572087191, 0};
Point(p15 + 28) = {28.08788661003401, -0.2262675311367238, 0};
Point(p15 + 29) = {28.20043072075865, -0.2532869815812706, 0};
Point(p15 + 30) = {28.315816, -0.262368, 0};
Point(p15 + 31) = {28.43120127924135, -0.2532869815812707, 0};
Point(p15 + 32) = {28.54374538996599, -0.2262675311367239, 0};
Point(p15 + 33) = {28.65067712265539, -0.1819749572087192, 0};
Point(p15 + 34) = {28.74936346316467, -0.1214998899659894, 0};
Point(p15 + 35) = {28.83737442626929, -0.0463314262692916, 0};
Point(p15 + 36) = {28.91254288996599, 0.0416795368353331, 0};
Point(p15 + 37) = {28.97301795720872, 0.1403658773446089, 0};
Point(p15 + 38) = {29.01731053113673, 0.2472976100340105, 0};
Point(p15 + 39) = {29.04432998158127, 0.3598417207586507, 0};
Spline(15) = {11, p15 + 1, p15 + 2, p15 + 3, p15 + 4, p15 + 5, p15 + 6, p15 + 7, p15 + 8, p15 + 9, p15 + 10, p15 + 11, p15 + 12, p15 + 13, p15 + 14, p15 + 15, p15 + 16, p15 + 17, p15 + 18, p15 + 19, p15 + 20, p15 + 21, p15 + 22, p15 + 23, p15 + 24, p15 + 25, p15 + 26, p15 + 27, p15 + 28, p15 + 29, p15 + 30, p15 + 31, p15 + 32, p15 + 33, p15 + 34, p15 + 35, p15 + 36, p15 + 37, p15 + 38, p15 + 39, 11};
p16 = newp;
Point(p16 + 1) = {34.45513454246621, 2.071060171699974, 0};
Point(p16 + 2) = {34.40513792675679, 2.279311063619698, 0};
Point(p16 + 3) = {34.32317923547978, 2.477176847655023, 0};
Point(p16 + 4) = {34.2112765636197, 2.659785411524112, 0};
Point(p16 + 5) = {34.07218532634143, 2.822640326341429, 0};
Point(p16 + 6) = {33.90933041152412, 2.961731563619698, 0};
Point(p16 + 7) = {33.72672184765503, 3.073634235479776, 0};
Point(p16 + 8) = {33.5288560636197, 3.155592926756793, 0};
Point(p16 + 9) = {33.32060517169997, 3.205589542466209, 0};
Point(p16 + 10) = {33.107097, 3.222393, 0};
Point(p16 + 11) = {32.89358882830003, 3.205589542466209, 0};
Point(p16 + 12) = {32.68533793638031, 3.155592926756794, 0};
Point(p16 + 13) = {32.48747215234498, 3.073634235479776, 0};
Point(p16 + 14) = {32.30486358847589, 2.961731563619698, 0};
Point(p16 + 15) = {32.14200867365857, 2.822640326341429, 0};
Point(p16 + 16) = {32.00291743638031, 2.659785411524112, 0};
Point(p16 + 17) = {31.89101476452023, 2.477176847655023, 0};
Point(p16 + 18) = {31.80905607324321, 2.279311063619698, 0};
Point(p16 + 19) = {31.75905945753379, 2.071060171699974, 0};
Point(p16 + 20) = {31.742256, 1.857552, 0};
Point(p16 + 21) = {31.75905945753379, 1.644043828300026, 0};
Point(p16 + 22) = {31.80905607324321, 1.435792936380302, 0};
Point(p16 + 23) = {31.89101476452023, 1.237927152344978, 0};
Point(p16 + 24) = {32.00291743638031, 1.055318588475889, 0};
Point(p16 + 25) = {32.14200867365857, 0.8924636736585715, 0};
Point(p16 + 26) = {32.30486358847589, 0.7533724363803027, 0};
Point(p16 + 27) = {32.48747215234498, 0.6414697645202241, 0};
Point(p16 + 28) = {32.68533793638031, 0.5595110732432065, 0};
Point(p16 + 29) = {32.89358882830003, 0.5095144575337918, 0};
Point(p16 + 30) = {33.107097, 0.4927110000000001, 0};
Point(p16 + 31) = {33.32060517169997, 0.5095144575337918, 0};
Point(p16 + 32) = {33.5288560636197, 0.5595110732432063, 0};
Point(p16 + 33) = {33.72672184765503, 0.6414697645202239, 0};
Point(p16 + 34) = {33.90933041152412, 0.7533724363803023, 0};
Point(p16 + 35) = {34.07218532634143, 0.8924636736585712, 0};
Point(p16 + 36) = {34.2112765636197, 1.055318588475888, 0};
Point(p16 + 37) = {34.32317923547978, 1.237927152344977, 0};
Point(p16 + 38) = {34.40513792675679, 1.435792936380302, 0};
Point(p16 + 39) = {34.45513454246621, 1.644043828300026, 0};
Spline(16) = {12, p16 + 1, p16 + 2, p16 + 3, p16 + 4, p16 + 5, p16 + 6, p16 + 7, p16 + 8, p16 + 9, p16 + 10, p16 + 11, p16 + 12, p16 + 13, p16 + 14, p16 + 15, p16 + 16, p16 + 17, p16 + 18, p16 + 19, p16 + 20, p16 + 21, p16 + 22, p16 + 23, p16 + 24, p16 + 25, p16 + 26, p16 + 27, p16 + 28, p16 + 29, p16 + 30, p16 + 31, p16 + 32, p16 + 33, p16 + 34, p16 + 35, p16 + 36, p16 + 37, p16 + 38, p16 + 39, 12};
Line(17) = {11, 8};
Line(18) = {12, 9};
Curve Loop(1) = {-1, 4, 3, -2};
Plane Surface(1) = {1};
Curve Loop(2) = {-5, 1, 7, -6};
Plane Surface(2) = {2};
Curve Loop(3) = {-2, 7, 9, -8, -10, -11};
Plane Surface(3) = {3};
Curve Loop(4) = {-12, 3, 8, -13};
Plane Surface(4) = {4};
Curve Loop(5) = {-4, 5, 14, -12, -15, -16};
Plane Surface(5) = {5};
Curve Loop(6) = {-6, 14, 13, -9};
Plane Surface(6) = {6};
Curve Loop(7) = {-10, -17, 15, 17};
Surface(7) = {7};
Curve Loop(8) = {-11, -18, 16, 18};
Surface(8) = {8};
Surface Loop(1) = {1, 2, 3, 4, 5, 6, 7, 8};
Volume(1) = {1};
Physical Surface("INFLOW") = {1};
Physical Surface("OUTFLOW") = {6};
Physical Surface("OBSTACLE") = {7, 8};
Physical Surface("WALL_Y") = {2, 4};
Physical Surface("WALL_Z") = {3, 5};
Physical Volume("FLUID") = {1};
