cl__1 = 1.398987;
cl__2 = 1.267481;
cl__3 = 0.938353;
cl__4 = 0.6086;
cl__5 = 0.06310499999999999;
cl__6 = 0.053775;
Point(1) = {0.180263, -4.143646, 1, cl__1};
Point(2) = {0.180263, -4.143646, 0, cl__1};
Point(3) = {0.180263, 4.572030999999999, 1, cl__2};
Point(4) = {0.180263, 4.572030999999999, 0, cl__2};
Point(5) = {39.47668299999999, -4.143646, 0, cl__3};
Point(6) = {39.47668299999999, -4.143646, 1, cl__3};
Point(7) = {39.47668299999999, 4.572030999999999, 1, cl__4};
Point(8) = {13.925389, 2.321051, 1, cl__5};
Point(9) = {33.505507, 3.34405, 1, cl__6};
Point(10) = {39.47668299999999, 4.572030999999999, 0, cl__4};
Point(11) = {13.925389, 2.321051, 0, cl__5};
Point(12) = {33.505507, 3.34405, 0, cl__6};
Line(1) = {2, 1};
Line(2) = {1, 3};
Line(3) = {4, 3};
Line(4) = {2, 4};
Line(5) = {2, 5};
Line(6) = {5, 6};
Line(7) = {1, 6};
Line(8) = {3, 7};
Line(9) = {6, 7};
p10 = newp;
Point(p10 + 1) = {13.91761973964422, 2.419768812729173, 1};
Point(p10 + 2) = {13.89450326355154, 2.516055865283316, 1};
Point(p10 + 3) = {13.85660877608255, 2.607541250870141, 1};
Point(p10 + 4) = {13.80486936528332, 2.691972295673913, 1};
Point(p10 + 5) = {13.74055902716099, 2.76727002716099, 1};
Point(p10 + 6) = {13.66526129567391, 2.831580365283316, 1};
Point(p10 + 7) = {13.58083025087014, 2.883319776082546, 1};
Point(p10 + 8) = {13.48934486528332, 2.921214263551541, 1};
Point(p10 + 9) = {13.39305781272917, 2.944330739644221, 1};
Point(p10 + 10) = {13.29434, 2.9521, 1};
Point(p10 + 11) = {13.19562218727083, 2.944330739644221, 1};
Point(p10 + 12) = {13.09933513471668, 2.921214263551541, 1};
Point(p10 + 13) = {13.00784974912986, 2.883319776082546, 1};
Point(p10 + 14) = {12.92341870432609, 2.831580365283316, 1};
Point(p10 + 15) = {12.84812097283901, 2.76727002716099, 1};
Point(p10 + 16) = {12.78381063471668, 2.691972295673913, 1};
Point(p10 + 17) = {12.73207122391745, 2.607541250870141, 1};
Point(p10 + 18) = {12.69417673644846, 2.516055865283316, 1};
Point(p10 + 19) = {12.67106026035578, 2.419768812729173, 1};
Point(p10 + 20) = {12.663291, 2.321051, 1};
Point(p10 + 21) = {12.67106026035578, 2.222333187270828, 1};
Point(p10 + 22) = {12.69417673644846, 2.126046134716684, 1};
Point(p10 + 23) = {12.73207122391745, 2.034560749129859, 1};
Point(p10 + 24) = {12.78381063471668, 1.950129704326087, 1};
Point(p10 + 25) = {12.84812097283901, 1.874831972839011, 1};
Point(p10 + 26) = {12.92341870432609, 1.810521634716684, 1};
Point(p10 + 27) = {13.00784974912986, 1.758782223917455, 1};
Point(p10 + 28) = {13.09933513471668, 1.72088773644846, 1};
Point(p10 + 29) = {13.19562218727083, 1.697771260355779, 1};
Point(p10 + 30) = {13.29434, 1.690002, 1};
Point(p10 + 31) = {13.39305781272917, 1.697771260355779, 1};
Point(p10 + 32) = {13.48934486528332, 1.72088773644846, 1};
Point(p10 + 33) = {13.58083025087014, 1.758782223917455, 1};
Point(p10 + 34) = {13.66526129567391, 1.810521634716684, 1};
Point(p10 + 35) = {13.74055902716099, 1.874831972839011, 1};
Point(p10 + 36) = {13.80486936528332, 1.950129704326087, 1};
Point(p10 + 37) = {13.85660877608255, 2.034560749129859, 1};
Point(p10 + 38) = {13.89450326355154, 2.126046134716684, 1};
Point(p10 + 39) = {13.91761973964422, 2.222333187270828, 1};
Spline(10) = {8, p10 + 1, p10 + 2, p10 + 3, p10 + 4, p10 + 5, p10 + 6, p10 + 7, p10 + 8, p10 + 9, p10 + 10, p10 + 11, p10 + 12, p10 + 13, p10 + 14, p10 + 15, p10 + 16, p10 + 17, p10 + 18, p10 + 19, p10 + 20, p10 + 21, p10 + 22, p10 + 23, p10 + 24, p10 + 25, p10 + 26, p10 + 27, p10 + 28, p10 + 29, p10 + 30, p10 + 31, p10 + 32, p10 + 33, p10 + 34, p10 + 35, p10 + 36, p10 + 37, p10 + 38, p10 + 39, 8};
p11 = newp;
Point(p11 + 1) = {33.49888644209001, 3.428172164271989, 1};
Point(p11 + 2) = {33.47918778846817, 3.510222961674145, 1};
Point(p11 + 3) = {33.44689608536272, 3.588182029263442, 1};
Point(p11 + 4) = {33.40280646167415, 3.660129756064521, 1};
Point(p11 + 5) = {33.34800455026272, 3.724294550262722, 1};
Point(p11 + 6) = {33.28383975606452, 3.779096461674145, 1};
Point(p11 + 7) = {33.21189202926344, 3.823186085362722, 1};
Point(p11 + 8) = {33.13393296167414, 3.85547778846817, 1};
Point(p11 + 9) = {33.05188216427199, 3.875176442090014, 1};
Point(p11 + 10) = {32.96776, 3.881797, 1};
Point(p11 + 11) = {32.88363783572801, 3.875176442090014, 1};
Point(p11 + 12) = {32.80158703832586, 3.85547778846817, 1};
Point(p11 + 13) = {32.72362797073656, 3.823186085362722, 1};
Point(p11 + 14) = {32.65168024393548, 3.779096461674145, 1};
Point(p11 + 15) = {32.58751544973727, 3.724294550262722, 1};
Point(p11 + 16) = {32.53271353832585, 3.660129756064521, 1};
Point(p11 + 17) = {32.48862391463727, 3.588182029263442, 1};
Point(p11 + 18) = {32.45633221153183, 3.510222961674145, 1};
Point(p11 + 19) = {32.43663355790999, 3.428172164271989, 1};
Point(p11 + 20) = {32.430013, 3.34405, 1};
Point(p11 + 21) = {32.43663355790999, 3.259927835728011, 1};
Point(p11 + 22) = {32.45633221153183, 3.177877038325855, 1};
Point(p11 + 23) = {32.48862391463727, 3.099917970736558, 1};
Point(p11 + 24) = {32.53271353832585, 3.02797024393548, 1};
Point(p11 + 25) = {32.58751544973727, 2.963805449737278, 1};
Point(p11 + 26) = {32.65168024393548, 2.909003538325855, 1};
Point(p11 + 27) = {32.72362797073656, 2.864913914637278, 1};
Point(p11 + 28) = {32.80158703832586, 2.83262221153183, 1};
Point(p11 + 29) = {32.88363783572801, 2.812923557909987, 1};
Point(p11 + 30) = {32.96776, 2.806303, 1};
Point(p11 + 31) = {33.05188216427199, 2.812923557909987, 1};
Point(p11 + 32) = {33.13393296167414, 2.83262221153183, 1};
Point(p11 + 33) = {33.21189202926344, 2.864913914637278, 1};
Point(p11 + 34) = {33.28383975606452, 2.909003538325855, 1};
Point(p11 + 35) = {33.34800455026272, 2.963805449737278, 1};
Point(p11 + 36) = {33.40280646167415, 3.02797024393548, 1};
Point(p11 + 37) = {33.44689608536272, 3.099917970736558, 1};
Point(p11 + 38) = {33.47918778846817, 3.177877038325855, 1};
Point(p11 + 39) = {33.49888644209001, 3.259927835728011, 1};
Spline(11) = {9, p11 + 1, p11 + 2, p11 + 3, p11 + 4, p11 + 5, p11 + 6, p11 + 7, p11 + 8, p11 + 9, p11 + 10, p11 + 11, p11 + 12, p11 + 13, p11 + 14, p11 + 15, p11 + 16, p11 + 17, p11 + 18, p11 + 19, p11 + 20, p11 + 21, p11 + 22, p11 + 23, p11 + 24, p11 + 25, p11 + 26, p11 + 27, p11 + 28, p11 + 29, p11 + 30, p11 + 31, p11 + 32, p11 + 33, p11 + 34, p11 + 35, p11 + 36, p11 + 37, p11 + 38, p11 + 39, 9};
Line(12) = {4, 10};
Line(13) = {10, 7};
Line(14) = {5, 10};
p15 = newp;
Point(p15 + 1) = {13.91761973964422, 2.419768812729173, 0};
Point(p15 + 2) = {13.89450326355154, 2.516055865283316, 0};
Point(p15 + 3) = {13.85660877608255, 2.607541250870141, 0};
Point(p15 + 4) = {13.80486936528332, 2.691972295673913, 0};
Point(p15 + 5) = {13.74055902716099, 2.76727002716099, 0};
Point(p15 + 6) = {13.66526129567391, 2.831580365283316, 0};
Point(p15 + 7) = {13.58083025087014, 2.883319776082546, 0};
Point(p15 + 8) = {13.48934486528332, 2.921214263551541, 0};
Point(p15 + 9) = {13.39305781272917, 2.944330739644221, 0};
Point(p15 + 10) = {13.29434, 2.9521, 0};
Point(p15 + 11) = {13.19562218727083, 2.944330739644221, 0};
Point(p15 + 12) = {13.09933513471668, 2.921214263551541, 0};
Point(p15 + 13) = {13.00784974912986, 2.883319776082546, 0};
Point(p15 + 14) = {12.92341870432609, 2.831580365283316, 0};
Point(p15 + 15) = {12.84812097283901, 2.76727002716099, 0};
Point(p15 + 16) = {12.78381063471668, 2.691972295673913, 0};
Point(p15 + 17) = {12.73207122391745, 2.607541250870141, 0};
Point(p15 + 18) = {12.69417673644846, 2.516055865283316, 0};
Point(p15 + 19) = {12.67106026035578, 2.419768812729173, 0};
Point(p15 + 20) = {12.663291, 2.321051, 0};
Point(p15 + 21) = {12.67106026035578, 2.222333187270828, 0};
Point(p15 + 22) = {12.69417673644846, 2.126046134716684, 0};
Point(p15 + 23) = {12.73207122391745, 2.034560749129859, 0};
Point(p15 + 24) = {12.78381063471668, 1.950129704326087, 0};
Point(p15 + 25) = {12.84812097283901, 1.874831972839011, 0};
Point(p15 + 26) = {12.92341870432609, 1.810521634716684, 0};
Point(p15 + 27) = {13.00784974912986, 1.758782223917455, 0};
Point(p15 + 28) = {13.09933513471668, 1.72088773644846, 0};
Point(p15 + 29) = {13.19562218727083, 1.697771260355779, 0};
Point(p15 + 30) = {13.29434, 1.690002, 0};
Point(p15 + 31) = {13.39305781272917, 1.697771260355779, 0};
Point(p15 + 32) = {13.48934486528332, 1.72088773644846, 0};
Point(p15 + 33) = {13.58083025087014, 1.758782223917455, 0};
Point(p15 + 34) = {13.66526129567391, 1.810521634716684, 0};
Point(p15 + 35) = {13.74055902716099, 1.874831972839011, 0};
Point(p15 + 36) = {13.80486936528332, 1.950129704326087, 0};
Point(p15 + 37) = {13.85660877608255, 2.034560749129859, 0};
Point(p15 + 38) = {13.89450326355154, 2.126046134716684, 0};
Point(p15 + 39) = {13.91761973964422, 2.222333187270828, 0};
Spline(15) = {11, p15 + 1, p15 + 2, p15 + 3, p15 + 4, p15 + 5, p15 + 6, p15 + 7, p15 + 8, p15 + 9, p15 + 10, p15 + 11, p15 + 12, p15 + 13, p15 + 14, p15 + 15, p15 + 16, p15 + 17, p15 + 18, p15 + 19, p15 + 20, p15 + 21, p15 + 22, p15 + 23, p15 + 24, p15 + 25, p15 + 26, p15 + 27, p15 + 28, p15 + 29, p15 + 30, p15 + 31, p15 + 32, p15 + 33, p15 + 34, p15 + 35, p15 + 36, p15 + 37, p15 + 38, p15 + 39, 11};
p16 = newp;
Point(p16 + 1) = {33.49888644209001, 3.428172164271989, 0};
Point(p16 + 2) = {33.47918778846817, 3.510222961674145, 0};
Point(p16 + 3) = {33.44689608536272, 3.588182029263442, 0};
Point(p16 + 4) = {33.40280646167415, 3.660129756064521, 0};
Point(p16 + 5) = {33.34800455026272, 3.724294550262722, 0};
Point(p16 + 6) = {33.28383975606452, 3.779096461674145, 0};
Point(p16 + 7) = {33.21189202926344, 3.823186085362722, 0};
Point(p16 + 8) = {33.13393296167414, 3.85547778846817, 0};
Point(p16 + 9) = {33.05188216427199, 3.875176442090014, 0};
Point(p16 + 10) = {32.96776, 3.881797, 0};
Point(p16 + 11) = {32.88363783572801, 3.875176442090014, 0};
Point(p16 + 12) = {32.80158703832586, 3.85547778846817, 0};
Point(p16 + 13) = {32.72362797073656, 3.823186085362722, 0};
Point(p16 + 14) = {32.65168024393548, 3.779096461674145, 0};
Point(p16 + 15) = {32.58751544973727, 3.724294550262722, 0};
Point(p16 + 16) = {32.53271353832585, 3.660129756064521, 0};
Point(p16 + 17) = {32.48862391463727, 3.588182029263442, 0};
Point(p16 + 18) = {32.45633221153183, 3.510222961674145, 0};
Point(p16 + 19) = {32.43663355790999, 3.428172164271989, 0};
Point(p16 + 20) = {32.430013, 3.34405, 0};
Point(p16 + 21) = {32.43663355790999, 3.259927835728011, 0};
Point(p16 + 22) = {32.45633221153183, 3.177877038325855, 0};
Point(p16 + 23) = {32.48862391463727, 3.099917970736558, 0};
Point(p16 + 24) = {32.53271353832585, 3.02797024393548, 0};
Point(p16 + 25) = {32.58751544973727, 2.963805449737278, 0};
Point(p16 + 26) = {32.65168024393548, 2.909003538325855, 0};
Point(p16 + 27) = {32.72362797073656, 2.864913914637278, 0};
Point(p16 + 28) = {32.80158703832586, 2.83262221153183, 0};
Point(p16 + 29) = {32.88363783572801, 2.812923557909987, 0};
Point(p16 + 30) = {32.96776, 2.806303, 0};
Point(p16 + 31) = {33.05188216427199, 2.812923557909987, 0};
Point(p16 + 32) = {33.13393296167414, 2.83262221153183, 0};
Point(p16 + 33) = {33.21189202926344, 2.864913914637278, 0};
Point(p16 + 34) = {33.28383975606452, 2.909003538325855, 0};
Point(p16 + 35) = {33.34800455026272, 2.963805449737278, 0};
Point(p16 + 36) = {33.40280646167415, 3.02797024393548, 0};
Point(p16 + 37) = {33.44689608536272, 3.099917970736558, 0};
Point(p16 + 38) = {33.47918778846817, 3.177877038325855, 0};
Point(p16 + 39) = {33.49888644209001, 3.259927835728011, 0};
Spline(16) = {12, p16 + 1, p16 + 2, p16 + 3, p16 + 4, p16 + 5, p16 + 6, p16 + 7, p16 + 8, p16 + 9, p16 + 10, p16 + 11, p16 + 12, p16 + 13, p16 + 14, p16 + 15, p16 + 16, p16 + 17, p16 + 18, p16 + 19, p16 + 20, p16 + 21, p16 + 22, p16 + 23, p16 + 24, p16 + 25, p16 + 26, p16 + 27, p16 + 28, p16 + 29, p16 + 30, p16 + 31, p16 + 32, p16 + 33, p16 + 34, p16 + 35, p16 + 36, p16 + 37, p16 + 38, p16 + 39, 12};
Line(17) = {11, 8};
Line(18) = {12, 9};
Curve Loop(1) = {-1, 4, 3, -2};
Plane Surface(1) = {1};
Curve Loop(2) = {-5, 1, 7, -6};
Plane Surface(2) = {2};
Curve Loop(3) = {-2, 7, 9, -8, -10, -11};
Plane Surface(3) = {3};
Curve Loop(4) = {-12, 3, 8, -13};
Plane Surface(4) = {4};
Curve Loop(5) = {-4, 5, 14, -12, -15, -16};
Plane Surface(5) = {5};
Curve Loop(6) = {-6, 14, 13, -9};
Plane Surface(6) = {6};
Curve Loop(7) = {-10, -17, 15, 17};
Surface(7) = {7};
Curve Loop(8) = {-11, -18, 16, 18};
Surface(8) = {8};
Surface Loop(1) = {1, 2, 3, 4, 5, 6, 7, 8};
Volume(1) = {1};
Physical Surface("INFLOW") = {1};
Physical Surface("OUTFLOW") = {6};
Physical Surface("OBSTACLE") = {7, 8};
Physical Surface("WALL_Y") = {2, 4};
Physical Surface("WALL_Z") = {3, 5};
Physical Volume("FLUID") = {1};
