cl__1 = 1.500492;
cl__2 = 1.382627;
cl__3 = 0.647775;
cl__4 = 0.792264;
cl__5 = 0.100502;
cl__6 = 0.074532;
Point(1) = {0.732552, -4.068965, 1, cl__1};
Point(2) = {0.732552, -4.068965, 0, cl__1};
Point(3) = {0.732552, 4.267553999999999, 1, cl__2};
Point(4) = {0.732552, 4.267553999999999, 0, cl__2};
Point(5) = {36.47093, -4.068965, 0, cl__3};
Point(6) = {36.47093, -4.068965, 1, cl__3};
Point(7) = {36.47093, 4.267553999999999, 1, cl__4};
Point(8) = {30.515301, -1.322838, 1, cl__5};
Point(9) = {15.908099, 2.242799999999999, 1, cl__6};
Point(10) = {36.47093, 4.267553999999999, 0, cl__4};
Point(11) = {30.515301, -1.322838, 0, cl__5};
Point(12) = {15.908099, 2.242799999999999, 0, cl__6};
Line(1) = {2, 1};
Line(2) = {1, 3};
Line(3) = {4, 3};
Line(4) = {2, 4};
Line(5) = {2, 5};
Line(6) = {5, 6};
Line(7) = {1, 6};
Line(8) = {3, 7};
Line(9) = {6, 7};
p10 = newp;
Point(p10 + 1) = {30.50292749912995, -1.165617764641872, 1};
Point(p10 + 2) = {30.4661116731765, -1.012268813262307, 1};
Point(p10 + 3) = {30.40576004995937, -0.8665671059802615, 1};
Point(p10 + 4) = {30.32335868673769, -0.7321003023852617, 1};
Point(p10 + 5) = {30.22093657854845, -0.6121794214515525, 1};
Point(p10 + 6) = {30.10101569761474, -0.5097573132623071, 1};
Point(p10 + 7) = {29.96654889401974, -0.427355950040634, 1};
Point(p10 + 8) = {29.82084718673769, -0.3670043268234958, 1};
Point(p10 + 9) = {29.66749823535813, -0.3301885008700528, 1};
Point(p10 + 10) = {29.510278, -0.317815, 1};
Point(p10 + 11) = {29.35305776464187, -0.3301885008700529, 1};
Point(p10 + 12) = {29.19970881326231, -0.3670043268234957, 1};
Point(p10 + 13) = {29.05400710598026, -0.4273559500406339, 1};
Point(p10 + 14) = {28.91954030238526, -0.5097573132623071, 1};
Point(p10 + 15) = {28.79961942145155, -0.6121794214515524, 1};
Point(p10 + 16) = {28.69719731326231, -0.7321003023852616, 1};
Point(p10 + 17) = {28.61479595004063, -0.8665671059802613, 1};
Point(p10 + 18) = {28.5544443268235, -1.012268813262307, 1};
Point(p10 + 19) = {28.51762850087005, -1.165617764641872, 1};
Point(p10 + 20) = {28.505255, -1.322838, 1};
Point(p10 + 21) = {28.51762850087005, -1.480058235358128, 1};
Point(p10 + 22) = {28.5544443268235, -1.633407186737693, 1};
Point(p10 + 23) = {28.61479595004063, -1.779108894019738, 1};
Point(p10 + 24) = {28.69719731326231, -1.913575697614738, 1};
Point(p10 + 25) = {28.79961942145155, -2.033496578548447, 1};
Point(p10 + 26) = {28.91954030238526, -2.135918686737693, 1};
Point(p10 + 27) = {29.05400710598026, -2.218320049959366, 1};
Point(p10 + 28) = {29.19970881326231, -2.278671673176504, 1};
Point(p10 + 29) = {29.35305776464187, -2.315487499129947, 1};
Point(p10 + 30) = {29.510278, -2.327861, 1};
Point(p10 + 31) = {29.66749823535813, -2.315487499129947, 1};
Point(p10 + 32) = {29.82084718673769, -2.278671673176504, 1};
Point(p10 + 33) = {29.96654889401974, -2.218320049959366, 1};
Point(p10 + 34) = {30.10101569761474, -2.135918686737693, 1};
Point(p10 + 35) = {30.22093657854845, -2.033496578548448, 1};
Point(p10 + 36) = {30.32335868673769, -1.913575697614738, 1};
Point(p10 + 37) = {30.40576004995937, -1.779108894019739, 1};
Point(p10 + 38) = {30.4661116731765, -1.633407186737693, 1};
Point(p10 + 39) = {30.50292749912995, -1.480058235358128, 1};
Spline(10) = {8, p10 + 1, p10 + 2, p10 + 3, p10 + 4, p10 + 5, p10 + 6, p10 + 7, p10 + 8, p10 + 9, p10 + 10, p10 + 11, p10 + 12, p10 + 13, p10 + 14, p10 + 15, p10 + 16, p10 + 17, p10 + 18, p10 + 19, p10 + 20, p10 + 21, p10 + 22, p10 + 23, p10 + 24, p10 + 25, p10 + 26, p10 + 27, p10 + 28, p10 + 29, p10 + 30, p10 + 31, p10 + 32, p10 + 33, p10 + 34, p10 + 35, p10 + 36, p10 + 37, p10 + 38, p10 + 39, 8};
p11 = newp;
Point(p11 + 1) = {15.898922923259, 2.359393109745925, 1};
Point(p11 + 2) = {15.87162063849904, 2.473115310179558, 1};
Point(p11 + 3) = {15.82686441858198, 2.58116638330388, 1};
Point(p11 + 4) = {15.76575631017956, 2.680885753097617, 1};
Point(p11 + 5) = {15.68980099772683, 2.769817997726832, 1};
Point(p11 + 6) = {15.60086875309762, 2.845773310179558, 1};
Point(p11 + 7) = {15.50114938330388, 2.906881418581977, 1};
Point(p11 + 8) = {15.39309831017956, 2.951637638499038, 1};
Point(p11 + 9) = {15.27937610974592, 2.978939923259006, 1};
Point(p11 + 10) = {15.162783, 2.988116, 1};
Point(p11 + 11) = {15.04618989025407, 2.978939923259006, 1};
Point(p11 + 12) = {14.93246768982044, 2.951637638499038, 1};
Point(p11 + 13) = {14.82441661669612, 2.906881418581977, 1};
Point(p11 + 14) = {14.72469724690238, 2.845773310179558, 1};
Point(p11 + 15) = {14.63576500227317, 2.769817997726833, 1};
Point(p11 + 16) = {14.55980968982044, 2.680885753097617, 1};
Point(p11 + 17) = {14.49870158141802, 2.58116638330388, 1};
Point(p11 + 18) = {14.45394536150096, 2.473115310179558, 1};
Point(p11 + 19) = {14.42664307674099, 2.359393109745925, 1};
Point(p11 + 20) = {14.417467, 2.2428, 1};
Point(p11 + 21) = {14.42664307674099, 2.126206890254075, 1};
Point(p11 + 22) = {14.45394536150096, 2.012484689820441, 1};
Point(p11 + 23) = {14.49870158141802, 1.90443361669612, 1};
Point(p11 + 24) = {14.55980968982044, 1.804714246902383, 1};
Point(p11 + 25) = {14.63576500227317, 1.715782002273167, 1};
Point(p11 + 26) = {14.72469724690238, 1.639826689820442, 1};
Point(p11 + 27) = {14.82441661669612, 1.578718581418022, 1};
Point(p11 + 28) = {14.93246768982044, 1.533962361500961, 1};
Point(p11 + 29) = {15.04618989025407, 1.506660076740994, 1};
Point(p11 + 30) = {15.162783, 1.497484, 1};
Point(p11 + 31) = {15.27937610974592, 1.506660076740994, 1};
Point(p11 + 32) = {15.39309831017956, 1.533962361500961, 1};
Point(p11 + 33) = {15.50114938330388, 1.578718581418022, 1};
Point(p11 + 34) = {15.60086875309762, 1.639826689820441, 1};
Point(p11 + 35) = {15.68980099772683, 1.715782002273167, 1};
Point(p11 + 36) = {15.76575631017956, 1.804714246902383, 1};
Point(p11 + 37) = {15.82686441858198, 1.90443361669612, 1};
Point(p11 + 38) = {15.87162063849904, 2.012484689820441, 1};
Point(p11 + 39) = {15.898922923259, 2.126206890254075, 1};
Spline(11) = {9, p11 + 1, p11 + 2, p11 + 3, p11 + 4, p11 + 5, p11 + 6, p11 + 7, p11 + 8, p11 + 9, p11 + 10, p11 + 11, p11 + 12, p11 + 13, p11 + 14, p11 + 15, p11 + 16, p11 + 17, p11 + 18, p11 + 19, p11 + 20, p11 + 21, p11 + 22, p11 + 23, p11 + 24, p11 + 25, p11 + 26, p11 + 27, p11 + 28, p11 + 29, p11 + 30, p11 + 31, p11 + 32, p11 + 33, p11 + 34, p11 + 35, p11 + 36, p11 + 37, p11 + 38, p11 + 39, 9};
Line(12) = {4, 10};
Line(13) = {10, 7};
Line(14) = {5, 10};
p15 = newp;
Point(p15 + 1) = {30.50292749912995, -1.165617764641872, 0};
Point(p15 + 2) = {30.4661116731765, -1.012268813262307, 0};
Point(p15 + 3) = {30.40576004995937, -0.8665671059802615, 0};
Point(p15 + 4) = {30.32335868673769, -0.7321003023852617, 0};
Point(p15 + 5) = {30.22093657854845, -0.6121794214515525, 0};
Point(p15 + 6) = {30.10101569761474, -0.5097573132623071, 0};
Point(p15 + 7) = {29.96654889401974, -0.427355950040634, 0};
Point(p15 + 8) = {29.82084718673769, -0.3670043268234958, 0};
Point(p15 + 9) = {29.66749823535813, -0.3301885008700528, 0};
Point(p15 + 10) = {29.510278, -0.317815, 0};
Point(p15 + 11) = {29.35305776464187, -0.3301885008700529, 0};
Point(p15 + 12) = {29.19970881326231, -0.3670043268234957, 0};
Point(p15 + 13) = {29.05400710598026, -0.4273559500406339, 0};
Point(p15 + 14) = {28.91954030238526, -0.5097573132623071, 0};
Point(p15 + 15) = {28.79961942145155, -0.6121794214515524, 0};
Point(p15 + 16) = {28.69719731326231, -0.7321003023852616, 0};
Point(p15 + 17) = {28.61479595004063, -0.8665671059802613, 0};
Point(p15 + 18) = {28.5544443268235, -1.012268813262307, 0};
Point(p15 + 19) = {28.51762850087005, -1.165617764641872, 0};
Point(p15 + 20) = {28.505255, -1.322838, 0};
Point(p15 + 21) = {28.51762850087005, -1.480058235358128, 0};
Point(p15 + 22) = {28.5544443268235, -1.633407186737693, 0};
Point(p15 + 23) = {28.61479595004063, -1.779108894019738, 0};
Point(p15 + 24) = {28.69719731326231, -1.913575697614738, 0};
Point(p15 + 25) = {28.79961942145155, -2.033496578548447, 0};
Point(p15 + 26) = {28.91954030238526, -2.135918686737693, 0};
Point(p15 + 27) = {29.05400710598026, -2.218320049959366, 0};
Point(p15 + 28) = {29.19970881326231, -2.278671673176504, 0};
Point(p15 + 29) = {29.35305776464187, -2.315487499129947, 0};
Point(p15 + 30) = {29.510278, -2.327861, 0};
Point(p15 + 31) = {29.66749823535813, -2.315487499129947, 0};
Point(p15 + 32) = {29.82084718673769, -2.278671673176504, 0};
Point(p15 + 33) = {29.96654889401974, -2.218320049959366, 0};
Point(p15 + 34) = {30.10101569761474, -2.135918686737693, 0};
Point(p15 + 35) = {30.22093657854845, -2.033496578548448, 0};
Point(p15 + 36) = {30.32335868673769, -1.913575697614738, 0};
Point(p15 + 37) = {30.40576004995937, -1.779108894019739, 0};
Point(p15 + 38) = {30.4661116731765, -1.633407186737693, 0};
Point(p15 + 39) = {30.50292749912995, -1.480058235358128, 0};
Spline(15) = {11, p15 + 1, p15 + 2, p15 + 3, p15 + 4, p15 + 5, p15 + 6, p15 + 7, p15 + 8, p15 + 9, p15 + 10, p15 + 11, p15 + 12, p15 + 13, p15 + 14, p15 + 15, p15 + 16, p15 + 17, p15 + 18, p15 + 19, p15 + 20, p15 + 21, p15 + 22, p15 + 23, p15 + 24, p15 + 25, p15 + 26, p15 + 27, p15 + 28, p15 + 29, p15 + 30, p15 + 31, p15 + 32, p15 + 33, p15 + 34, p15 + 35, p15 + 36, p15 + 37, p15 + 38, p15 + 39, 11};
p16 = newp;
Point(p16 + 1) = {15.898922923259, 2.359393109745925, 0};
Point(p16 + 2) = {15.87162063849904, 2.473115310179558, 0};
Point(p16 + 3) = {15.82686441858198, 2.58116638330388, 0};
Point(p16 + 4) = {15.76575631017956, 2.680885753097617, 0};
Point(p16 + 5) = {15.68980099772683, 2.769817997726832, 0};
Point(p16 + 6) = {15.60086875309762, 2.845773310179558, 0};
Point(p16 + 7) = {15.50114938330388, 2.906881418581977, 0};
Point(p16 + 8) = {15.39309831017956, 2.951637638499038, 0};
Point(p16 + 9) = {15.27937610974592, 2.978939923259006, 0};
Point(p16 + 10) = {15.162783, 2.988116, 0};
Point(p16 + 11) = {15.04618989025407, 2.978939923259006, 0};
Point(p16 + 12) = {14.93246768982044, 2.951637638499038, 0};
Point(p16 + 13) = {14.82441661669612, 2.906881418581977, 0};
Point(p16 + 14) = {14.72469724690238, 2.845773310179558, 0};
Point(p16 + 15) = {14.63576500227317, 2.769817997726833, 0};
Point(p16 + 16) = {14.55980968982044, 2.680885753097617, 0};
Point(p16 + 17) = {14.49870158141802, 2.58116638330388, 0};
Point(p16 + 18) = {14.45394536150096, 2.473115310179558, 0};
Point(p16 + 19) = {14.42664307674099, 2.359393109745925, 0};
Point(p16 + 20) = {14.417467, 2.2428, 0};
Point(p16 + 21) = {14.42664307674099, 2.126206890254075, 0};
Point(p16 + 22) = {14.45394536150096, 2.012484689820441, 0};
Point(p16 + 23) = {14.49870158141802, 1.90443361669612, 0};
Point(p16 + 24) = {14.55980968982044, 1.804714246902383, 0};
Point(p16 + 25) = {14.63576500227317, 1.715782002273167, 0};
Point(p16 + 26) = {14.72469724690238, 1.639826689820442, 0};
Point(p16 + 27) = {14.82441661669612, 1.578718581418022, 0};
Point(p16 + 28) = {14.93246768982044, 1.533962361500961, 0};
Point(p16 + 29) = {15.04618989025407, 1.506660076740994, 0};
Point(p16 + 30) = {15.162783, 1.497484, 0};
Point(p16 + 31) = {15.27937610974592, 1.506660076740994, 0};
Point(p16 + 32) = {15.39309831017956, 1.533962361500961, 0};
Point(p16 + 33) = {15.50114938330388, 1.578718581418022, 0};
Point(p16 + 34) = {15.60086875309762, 1.639826689820441, 0};
Point(p16 + 35) = {15.68980099772683, 1.715782002273167, 0};
Point(p16 + 36) = {15.76575631017956, 1.804714246902383, 0};
Point(p16 + 37) = {15.82686441858198, 1.90443361669612, 0};
Point(p16 + 38) = {15.87162063849904, 2.012484689820441, 0};
Point(p16 + 39) = {15.898922923259, 2.126206890254075, 0};
Spline(16) = {12, p16 + 1, p16 + 2, p16 + 3, p16 + 4, p16 + 5, p16 + 6, p16 + 7, p16 + 8, p16 + 9, p16 + 10, p16 + 11, p16 + 12, p16 + 13, p16 + 14, p16 + 15, p16 + 16, p16 + 17, p16 + 18, p16 + 19, p16 + 20, p16 + 21, p16 + 22, p16 + 23, p16 + 24, p16 + 25, p16 + 26, p16 + 27, p16 + 28, p16 + 29, p16 + 30, p16 + 31, p16 + 32, p16 + 33, p16 + 34, p16 + 35, p16 + 36, p16 + 37, p16 + 38, p16 + 39, 12};
Line(17) = {11, 8};
Line(18) = {12, 9};
Curve Loop(1) = {-1, 4, 3, -2};
Plane Surface(1) = {1};
Curve Loop(2) = {-5, 1, 7, -6};
Plane Surface(2) = {2};
Curve Loop(3) = {-2, 7, 9, -8, -10, -11};
Plane Surface(3) = {3};
Curve Loop(4) = {-12, 3, 8, -13};
Plane Surface(4) = {4};
Curve Loop(5) = {-4, 5, 14, -12, -15, -16};
Plane Surface(5) = {5};
Curve Loop(6) = {-6, 14, 13, -9};
Plane Surface(6) = {6};
Curve Loop(7) = {-10, -17, 15, 17};
Surface(7) = {7};
Curve Loop(8) = {-11, -18, 16, 18};
Surface(8) = {8};
Surface Loop(1) = {1, 2, 3, 4, 5, 6, 7, 8};
Volume(1) = {1};
Physical Surface("INFLOW") = {1};
Physical Surface("OUTFLOW") = {6};
Physical Surface("OBSTACLE") = {7, 8};
Physical Surface("WALL_Y") = {2, 4};
Physical Surface("WALL_Z") = {3, 5};
Physical Volume("FLUID") = {1};
