cl__1 = 1.054947;
cl__2 = 1.096006;
cl__3 = 0.935466;
cl__4 = 1.148822;
cl__5 = 0.055457;
cl__6 = 0.100952;
Point(1) = {0.7789700000000001, -3.882531, 1, cl__1};
Point(2) = {0.7789700000000001, -3.882531, 0, cl__1};
Point(3) = {0.7789700000000001, 5.263482, 1, cl__2};
Point(4) = {0.7789700000000001, 5.263482, 0, cl__2};
Point(5) = {38.478921, -3.882531, 0, cl__3};
Point(6) = {38.478921, -3.882531, 1, cl__3};
Point(7) = {38.478921, 5.263482, 1, cl__4};
Point(8) = {29.330785, -1.869975, 1, cl__5};
Point(9) = {12.616664, 0.1623339999999998, 1, cl__6};
Point(10) = {38.478921, 5.263482, 0, cl__4};
Point(11) = {29.330785, -1.869975, 0, cl__5};
Point(12) = {12.616664, 0.1623339999999998, 0, cl__6};
Line(1) = {2, 1};
Line(2) = {1, 3};
Line(3) = {4, 3};
Line(4) = {2, 4};
Line(5) = {2, 5};
Line(6) = {5, 6};
Line(7) = {1, 6};
Line(8) = {3, 7};
Line(9) = {6, 7};
p10 = newp;
Point(p10 + 1) = {29.32395733535551, -1.783221295157104, 1};
Point(p10 + 2) = {29.30364246118529, -1.69860375444648, 1};
Point(p10 + 3) = {29.27034059711262, -1.618205942549939, 1};
Point(p10 + 4) = {29.22487174555352, -1.544007520421415, 1};
Point(p10 + 5) = {29.16835550053585, -1.477835499464158, 1};
Point(p10 + 6) = {29.10218347957858, -1.42131925444648, 1};
Point(p10 + 7) = {29.02798505745006, -1.375850402887381, 1};
Point(p10 + 8) = {28.94758724555352, -1.342548538814713, 1};
Point(p10 + 9) = {28.8629697048429, -1.322233664644495, 1};
Point(p10 + 10) = {28.776216, -1.315406, 1};
Point(p10 + 11) = {28.68946229515711, -1.322233664644495, 1};
Point(p10 + 12) = {28.60484475444648, -1.342548538814713, 1};
Point(p10 + 13) = {28.52444694254994, -1.375850402887381, 1};
Point(p10 + 14) = {28.45024852042142, -1.42131925444648, 1};
Point(p10 + 15) = {28.38407649946416, -1.477835499464157, 1};
Point(p10 + 16) = {28.32756025444648, -1.544007520421415, 1};
Point(p10 + 17) = {28.28209140288738, -1.618205942549939, 1};
Point(p10 + 18) = {28.24878953881472, -1.69860375444648, 1};
Point(p10 + 19) = {28.2284746646445, -1.783221295157104, 1};
Point(p10 + 20) = {28.221647, -1.869975, 1};
Point(p10 + 21) = {28.2284746646445, -1.956728704842896, 1};
Point(p10 + 22) = {28.24878953881472, -2.041346245553521, 1};
Point(p10 + 23) = {28.28209140288738, -2.12174405745006, 1};
Point(p10 + 24) = {28.32756025444648, -2.195942479578584, 1};
Point(p10 + 25) = {28.38407649946416, -2.262114500535843, 1};
Point(p10 + 26) = {28.45024852042142, -2.31863074555352, 1};
Point(p10 + 27) = {28.52444694254994, -2.364099597112619, 1};
Point(p10 + 28) = {28.60484475444648, -2.397401461185287, 1};
Point(p10 + 29) = {28.68946229515711, -2.417716335355505, 1};
Point(p10 + 30) = {28.776216, -2.424544, 1};
Point(p10 + 31) = {28.8629697048429, -2.417716335355505, 1};
Point(p10 + 32) = {28.94758724555352, -2.397401461185287, 1};
Point(p10 + 33) = {29.02798505745006, -2.364099597112619, 1};
Point(p10 + 34) = {29.10218347957858, -2.31863074555352, 1};
Point(p10 + 35) = {29.16835550053585, -2.262114500535843, 1};
Point(p10 + 36) = {29.22487174555352, -2.195942479578584, 1};
Point(p10 + 37) = {29.27034059711262, -2.121744057450061, 1};
Point(p10 + 38) = {29.30364246118529, -2.04134624555352, 1};
Point(p10 + 39) = {29.32395733535551, -1.956728704842896, 1};
Spline(10) = {8, p10 + 1, p10 + 2, p10 + 3, p10 + 4, p10 + 5, p10 + 6, p10 + 7, p10 + 8, p10 + 9, p10 + 10, p10 + 11, p10 + 12, p10 + 13, p10 + 14, p10 + 15, p10 + 16, p10 + 17, p10 + 18, p10 + 19, p10 + 20, p10 + 21, p10 + 22, p10 + 23, p10 + 24, p10 + 25, p10 + 26, p10 + 27, p10 + 28, p10 + 29, p10 + 30, p10 + 31, p10 + 32, p10 + 33, p10 + 34, p10 + 35, p10 + 36, p10 + 37, p10 + 38, p10 + 39, 8};
p11 = newp;
Point(p11 + 1) = {12.60423509666263, 0.3202581904508089, 1};
Point(p11 + 2) = {12.56725442749983, 0.47429376321238, 1};
Point(p11 + 3) = {12.50663257931821, 0.6206478512685665, 1};
Point(p11 + 4) = {12.42386226321238, 0.7557167312500543, 1};
Point(p11 + 5) = {12.32098155906379, 0.8761745590637869, 1};
Point(p11 + 6) = {12.20052373125005, 0.97905526321238, 1};
Point(p11 + 7) = {12.06545485126857, 1.061825579318214, 1};
Point(p11 + 8) = {11.91910076321238, 1.122447427499832, 1};
Point(p11 + 9) = {11.76506519045081, 1.159428096662625, 1};
Point(p11 + 10) = {11.607141, 1.171857, 1};
Point(p11 + 11) = {11.44921680954919, 1.159428096662625, 1};
Point(p11 + 12) = {11.29518123678762, 1.122447427499832, 1};
Point(p11 + 13) = {11.14882714873143, 1.061825579318214, 1};
Point(p11 + 14) = {11.01375826874995, 0.97905526321238, 1};
Point(p11 + 15) = {10.89330044093621, 0.8761745590637871, 1};
Point(p11 + 16) = {10.79041973678762, 0.7557167312500545, 1};
Point(p11 + 17) = {10.70764942068179, 0.6206478512685666, 1};
Point(p11 + 18) = {10.64702757250017, 0.4742937632123801, 1};
Point(p11 + 19) = {10.61004690333738, 0.3202581904508091, 1};
Point(p11 + 20) = {10.597618, 0.1623340000000001, 1};
Point(p11 + 21) = {10.61004690333738, 0.004409809549191179, 1};
Point(p11 + 22) = {10.64702757250017, -0.1496257632123803, 1};
Point(p11 + 23) = {10.70764942068179, -0.295979851268566, 1};
Point(p11 + 24) = {10.79041973678762, -0.4310487312500543, 1};
Point(p11 + 25) = {10.89330044093621, -0.551506559063787, 1};
Point(p11 + 26) = {11.01375826874995, -0.6543872632123799, 1};
Point(p11 + 27) = {11.14882714873143, -0.7371575793182136, 1};
Point(p11 + 28) = {11.29518123678762, -0.7977794274998322, 1};
Point(p11 + 29) = {11.44921680954919, -0.8347600966626251, 1};
Point(p11 + 30) = {11.607141, -0.847189, 1};
Point(p11 + 31) = {11.76506519045081, -0.8347600966626252, 1};
Point(p11 + 32) = {11.91910076321238, -0.7977794274998323, 1};
Point(p11 + 33) = {12.06545485126857, -0.7371575793182137, 1};
Point(p11 + 34) = {12.20052373125005, -0.6543872632123802, 1};
Point(p11 + 35) = {12.32098155906379, -0.5515065590637872, 1};
Point(p11 + 36) = {12.42386226321238, -0.4310487312500546, 1};
Point(p11 + 37) = {12.50663257931821, -0.2959798512685666, 1};
Point(p11 + 38) = {12.56725442749983, -0.1496257632123802, 1};
Point(p11 + 39) = {12.60423509666263, 0.004409809549190791, 1};
Spline(11) = {9, p11 + 1, p11 + 2, p11 + 3, p11 + 4, p11 + 5, p11 + 6, p11 + 7, p11 + 8, p11 + 9, p11 + 10, p11 + 11, p11 + 12, p11 + 13, p11 + 14, p11 + 15, p11 + 16, p11 + 17, p11 + 18, p11 + 19, p11 + 20, p11 + 21, p11 + 22, p11 + 23, p11 + 24, p11 + 25, p11 + 26, p11 + 27, p11 + 28, p11 + 29, p11 + 30, p11 + 31, p11 + 32, p11 + 33, p11 + 34, p11 + 35, p11 + 36, p11 + 37, p11 + 38, p11 + 39, 9};
Line(12) = {4, 10};
Line(13) = {10, 7};
Line(14) = {5, 10};
p15 = newp;
Point(p15 + 1) = {29.32395733535551, -1.783221295157104, 0};
Point(p15 + 2) = {29.30364246118529, -1.69860375444648, 0};
Point(p15 + 3) = {29.27034059711262, -1.618205942549939, 0};
Point(p15 + 4) = {29.22487174555352, -1.544007520421415, 0};
Point(p15 + 5) = {29.16835550053585, -1.477835499464158, 0};
Point(p15 + 6) = {29.10218347957858, -1.42131925444648, 0};
Point(p15 + 7) = {29.02798505745006, -1.375850402887381, 0};
Point(p15 + 8) = {28.94758724555352, -1.342548538814713, 0};
Point(p15 + 9) = {28.8629697048429, -1.322233664644495, 0};
Point(p15 + 10) = {28.776216, -1.315406, 0};
Point(p15 + 11) = {28.68946229515711, -1.322233664644495, 0};
Point(p15 + 12) = {28.60484475444648, -1.342548538814713, 0};
Point(p15 + 13) = {28.52444694254994, -1.375850402887381, 0};
Point(p15 + 14) = {28.45024852042142, -1.42131925444648, 0};
Point(p15 + 15) = {28.38407649946416, -1.477835499464157, 0};
Point(p15 + 16) = {28.32756025444648, -1.544007520421415, 0};
Point(p15 + 17) = {28.28209140288738, -1.618205942549939, 0};
Point(p15 + 18) = {28.24878953881472, -1.69860375444648, 0};
Point(p15 + 19) = {28.2284746646445, -1.783221295157104, 0};
Point(p15 + 20) = {28.221647, -1.869975, 0};
Point(p15 + 21) = {28.2284746646445, -1.956728704842896, 0};
Point(p15 + 22) = {28.24878953881472, -2.041346245553521, 0};
Point(p15 + 23) = {28.28209140288738, -2.12174405745006, 0};
Point(p15 + 24) = {28.32756025444648, -2.195942479578584, 0};
Point(p15 + 25) = {28.38407649946416, -2.262114500535843, 0};
Point(p15 + 26) = {28.45024852042142, -2.31863074555352, 0};
Point(p15 + 27) = {28.52444694254994, -2.364099597112619, 0};
Point(p15 + 28) = {28.60484475444648, -2.397401461185287, 0};
Point(p15 + 29) = {28.68946229515711, -2.417716335355505, 0};
Point(p15 + 30) = {28.776216, -2.424544, 0};
Point(p15 + 31) = {28.8629697048429, -2.417716335355505, 0};
Point(p15 + 32) = {28.94758724555352, -2.397401461185287, 0};
Point(p15 + 33) = {29.02798505745006, -2.364099597112619, 0};
Point(p15 + 34) = {29.10218347957858, -2.31863074555352, 0};
Point(p15 + 35) = {29.16835550053585, -2.262114500535843, 0};
Point(p15 + 36) = {29.22487174555352, -2.195942479578584, 0};
Point(p15 + 37) = {29.27034059711262, -2.121744057450061, 0};
Point(p15 + 38) = {29.30364246118529, -2.04134624555352, 0};
Point(p15 + 39) = {29.32395733535551, -1.956728704842896, 0};
Spline(15) = {11, p15 + 1, p15 + 2, p15 + 3, p15 + 4, p15 + 5, p15 + 6, p15 + 7, p15 + 8, p15 + 9, p15 + 10, p15 + 11, p15 + 12, p15 + 13, p15 + 14, p15 + 15, p15 + 16, p15 + 17, p15 + 18, p15 + 19, p15 + 20, p15 + 21, p15 + 22, p15 + 23, p15 + 24, p15 + 25, p15 + 26, p15 + 27, p15 + 28, p15 + 29, p15 + 30, p15 + 31, p15 + 32, p15 + 33, p15 + 34, p15 + 35, p15 + 36, p15 + 37, p15 + 38, p15 + 39, 11};
p16 = newp;
Point(p16 + 1) = {12.60423509666263, 0.3202581904508089, 0};
Point(p16 + 2) = {12.56725442749983, 0.47429376321238, 0};
Point(p16 + 3) = {12.50663257931821, 0.6206478512685665, 0};
Point(p16 + 4) = {12.42386226321238, 0.7557167312500543, 0};
Point(p16 + 5) = {12.32098155906379, 0.8761745590637869, 0};
Point(p16 + 6) = {12.20052373125005, 0.97905526321238, 0};
Point(p16 + 7) = {12.06545485126857, 1.061825579318214, 0};
Point(p16 + 8) = {11.91910076321238, 1.122447427499832, 0};
Point(p16 + 9) = {11.76506519045081, 1.159428096662625, 0};
Point(p16 + 10) = {11.607141, 1.171857, 0};
Point(p16 + 11) = {11.44921680954919, 1.159428096662625, 0};
Point(p16 + 12) = {11.29518123678762, 1.122447427499832, 0};
Point(p16 + 13) = {11.14882714873143, 1.061825579318214, 0};
Point(p16 + 14) = {11.01375826874995, 0.97905526321238, 0};
Point(p16 + 15) = {10.89330044093621, 0.8761745590637871, 0};
Point(p16 + 16) = {10.79041973678762, 0.7557167312500545, 0};
Point(p16 + 17) = {10.70764942068179, 0.6206478512685666, 0};
Point(p16 + 18) = {10.64702757250017, 0.4742937632123801, 0};
Point(p16 + 19) = {10.61004690333738, 0.3202581904508091, 0};
Point(p16 + 20) = {10.597618, 0.1623340000000001, 0};
Point(p16 + 21) = {10.61004690333738, 0.004409809549191179, 0};
Point(p16 + 22) = {10.64702757250017, -0.1496257632123803, 0};
Point(p16 + 23) = {10.70764942068179, -0.295979851268566, 0};
Point(p16 + 24) = {10.79041973678762, -0.4310487312500543, 0};
Point(p16 + 25) = {10.89330044093621, -0.551506559063787, 0};
Point(p16 + 26) = {11.01375826874995, -0.6543872632123799, 0};
Point(p16 + 27) = {11.14882714873143, -0.7371575793182136, 0};
Point(p16 + 28) = {11.29518123678762, -0.7977794274998322, 0};
Point(p16 + 29) = {11.44921680954919, -0.8347600966626251, 0};
Point(p16 + 30) = {11.607141, -0.847189, 0};
Point(p16 + 31) = {11.76506519045081, -0.8347600966626252, 0};
Point(p16 + 32) = {11.91910076321238, -0.7977794274998323, 0};
Point(p16 + 33) = {12.06545485126857, -0.7371575793182137, 0};
Point(p16 + 34) = {12.20052373125005, -0.6543872632123802, 0};
Point(p16 + 35) = {12.32098155906379, -0.5515065590637872, 0};
Point(p16 + 36) = {12.42386226321238, -0.4310487312500546, 0};
Point(p16 + 37) = {12.50663257931821, -0.2959798512685666, 0};
Point(p16 + 38) = {12.56725442749983, -0.1496257632123802, 0};
Point(p16 + 39) = {12.60423509666263, 0.004409809549190791, 0};
Spline(16) = {12, p16 + 1, p16 + 2, p16 + 3, p16 + 4, p16 + 5, p16 + 6, p16 + 7, p16 + 8, p16 + 9, p16 + 10, p16 + 11, p16 + 12, p16 + 13, p16 + 14, p16 + 15, p16 + 16, p16 + 17, p16 + 18, p16 + 19, p16 + 20, p16 + 21, p16 + 22, p16 + 23, p16 + 24, p16 + 25, p16 + 26, p16 + 27, p16 + 28, p16 + 29, p16 + 30, p16 + 31, p16 + 32, p16 + 33, p16 + 34, p16 + 35, p16 + 36, p16 + 37, p16 + 38, p16 + 39, 12};
Line(17) = {11, 8};
Line(18) = {12, 9};
Curve Loop(1) = {-1, 4, 3, -2};
Plane Surface(1) = {1};
Curve Loop(2) = {-5, 1, 7, -6};
Plane Surface(2) = {2};
Curve Loop(3) = {-2, 7, 9, -8, -10, -11};
Plane Surface(3) = {3};
Curve Loop(4) = {-12, 3, 8, -13};
Plane Surface(4) = {4};
Curve Loop(5) = {-4, 5, 14, -12, -15, -16};
Plane Surface(5) = {5};
Curve Loop(6) = {-6, 14, 13, -9};
Plane Surface(6) = {6};
Curve Loop(7) = {-10, -17, 15, 17};
Surface(7) = {7};
Curve Loop(8) = {-11, -18, 16, 18};
Surface(8) = {8};
Surface Loop(1) = {1, 2, 3, 4, 5, 6, 7, 8};
Volume(1) = {1};
Physical Surface("INFLOW") = {1};
Physical Surface("OUTFLOW") = {6};
Physical Surface("OBSTACLE") = {7, 8};
Physical Surface("WALL_Y") = {2, 4};
Physical Surface("WALL_Z") = {3, 5};
Physical Volume("FLUID") = {1};
