cl__1 = 2.833317;
cl__2 = 2.380035;
cl__3 = 0.613129;
cl__4 = 0.6367;
cl__5 = 0.128431;
cl__6 = 0.104453;
Point(1) = {0.547949, -3.202001, 1, cl__1};
Point(2) = {0.547949, -3.202001, 0, cl__1};
Point(3) = {0.547949, 5.149783999999999, 1, cl__2};
Point(4) = {0.547949, 5.149783999999999, 0, cl__2};
Point(5) = {33.838165, -3.202001, 0, cl__3};
Point(6) = {33.838165, -3.202001, 1, cl__3};
Point(7) = {33.838165, 5.149783999999999, 1, cl__4};
Point(8) = {28.825728, 0.7597639999999997, 1, cl__5};
Point(9) = {15.776097, 2.399691999999999, 1, cl__6};
Point(10) = {33.838165, 5.149783999999999, 0, cl__4};
Point(11) = {28.825728, 0.7597639999999997, 0, cl__5};
Point(12) = {15.776097, 2.399691999999999, 0, cl__6};
Line(1) = {2, 1};
Line(2) = {1, 3};
Line(3) = {4, 3};
Line(4) = {2, 4};
Line(5) = {2, 5};
Line(6) = {5, 6};
Line(7) = {1, 6};
Line(8) = {3, 7};
Line(9) = {6, 7};
p10 = newp;
Point(p10 + 1) = {28.80991596346311, 0.960674973533679, 1};
Point(p10 + 2) = {28.76286919866909, 1.156638852113666, 1};
Point(p10 + 3) = {28.68574615310646, 1.342830354682496, 1};
Point(p10 + 4) = {28.58044585211367, 1.514664828512755, 1};
Point(p10 + 5) = {28.44956113857282, 1.66791113857282, 1};
Point(p10 + 6) = {28.29631482851276, 1.798795852113666, 1};
Point(p10 + 7) = {28.1244803546825, 1.90409615310646, 1};
Point(p10 + 8) = {27.93828885211366, 1.981219198669094, 1};
Point(p10 + 9) = {27.74232497353368, 2.028265963463104, 1};
Point(p10 + 10) = {27.541414, 2.044078, 1};
Point(p10 + 11) = {27.34050302646632, 2.028265963463104, 1};
Point(p10 + 12) = {27.14453914788633, 1.981219198669094, 1};
Point(p10 + 13) = {26.9583476453175, 1.90409615310646, 1};
Point(p10 + 14) = {26.78651317148724, 1.798795852113666, 1};
Point(p10 + 15) = {26.63326686142718, 1.66791113857282, 1};
Point(p10 + 16) = {26.50238214788633, 1.514664828512756, 1};
Point(p10 + 17) = {26.39708184689354, 1.342830354682496, 1};
Point(p10 + 18) = {26.31995880133091, 1.156638852113666, 1};
Point(p10 + 19) = {26.27291203653689, 0.9606749735336793, 1};
Point(p10 + 20) = {26.2571, 0.7597640000000001, 1};
Point(p10 + 21) = {26.27291203653689, 0.5588530264663212, 1};
Point(p10 + 22) = {26.31995880133091, 0.3628891478863334, 1};
Point(p10 + 23) = {26.39708184689354, 0.1766976453175044, 1};
Point(p10 + 24) = {26.50238214788633, 0.0048631714872448, 1};
Point(p10 + 25) = {26.63326686142718, -0.1483831385728195, 1};
Point(p10 + 26) = {26.78651317148724, -0.2792678521136661, 1};
Point(p10 + 27) = {26.9583476453175, -0.3845681531064594, 1};
Point(p10 + 28) = {27.14453914788633, -0.4616911986690938, 1};
Point(p10 + 29) = {27.34050302646632, -0.5087379634631036, 1};
Point(p10 + 30) = {27.541414, -0.52455, 1};
Point(p10 + 31) = {27.74232497353368, -0.5087379634631036, 1};
Point(p10 + 32) = {27.93828885211366, -0.461691198669094, 1};
Point(p10 + 33) = {28.1244803546825, -0.3845681531064594, 1};
Point(p10 + 34) = {28.29631482851276, -0.2792678521136663, 1};
Point(p10 + 35) = {28.44956113857282, -0.1483831385728198, 1};
Point(p10 + 36) = {28.58044585211367, 0.004863171487244355, 1};
Point(p10 + 37) = {28.68574615310646, 0.1766976453175035, 1};
Point(p10 + 38) = {28.76286919866909, 0.3628891478863335, 1};
Point(p10 + 39) = {28.80991596346311, 0.5588530264663206, 1};
Spline(10) = {8, p10 + 1, p10 + 2, p10 + 3, p10 + 4, p10 + 5, p10 + 6, p10 + 7, p10 + 8, p10 + 9, p10 + 10, p10 + 11, p10 + 12, p10 + 13, p10 + 14, p10 + 15, p10 + 16, p10 + 17, p10 + 18, p10 + 19, p10 + 20, p10 + 21, p10 + 22, p10 + 23, p10 + 24, p10 + 25, p10 + 26, p10 + 27, p10 + 28, p10 + 29, p10 + 30, p10 + 31, p10 + 32, p10 + 33, p10 + 34, p10 + 35, p10 + 36, p10 + 37, p10 + 38, p10 + 39, 8};
p11 = newp;
Point(p11 + 1) = {15.76323713933682, 2.563092022465077, 1};
Point(p11 + 2) = {15.72497420979623, 2.722468594083481, 1};
Point(p11 + 3) = {15.6622503716909, 2.87389733472145, 1};
Point(p11 + 4) = {15.57661009408348, 3.0136495662213, 1};
Point(p11 + 5) = {15.47016212483244, 3.138284124832441, 1};
Point(p11 + 6) = {15.3455275662213, 3.244732094083481, 1};
Point(p11 + 7) = {15.20577533472145, 3.330372371690903, 1};
Point(p11 + 8) = {15.05434659408348, 3.393096209796228, 1};
Point(p11 + 9) = {14.89497002246508, 3.431359139336817, 1};
Point(p11 + 10) = {14.73157, 3.444219, 1};
Point(p11 + 11) = {14.56816997753492, 3.431359139336817, 1};
Point(p11 + 12) = {14.40879340591652, 3.393096209796228, 1};
Point(p11 + 13) = {14.25736466527855, 3.330372371690903, 1};
Point(p11 + 14) = {14.1176124337787, 3.244732094083481, 1};
Point(p11 + 15) = {13.99297787516756, 3.138284124832441, 1};
Point(p11 + 16) = {13.88652990591652, 3.0136495662213, 1};
Point(p11 + 17) = {13.8008896283091, 2.87389733472145, 1};
Point(p11 + 18) = {13.73816579020377, 2.722468594083481, 1};
Point(p11 + 19) = {13.69990286066318, 2.563092022465077, 1};
Point(p11 + 20) = {13.687043, 2.399692, 1};
Point(p11 + 21) = {13.69990286066318, 2.236291977534923, 1};
Point(p11 + 22) = {13.73816579020377, 2.076915405916519, 1};
Point(p11 + 23) = {13.8008896283091, 1.925486665278551, 1};
Point(p11 + 24) = {13.88652990591652, 1.7857344337787, 1};
Point(p11 + 25) = {13.99297787516756, 1.661099875167559, 1};
Point(p11 + 26) = {14.1176124337787, 1.554651905916519, 1};
Point(p11 + 27) = {14.25736466527855, 1.469011628309097, 1};
Point(p11 + 28) = {14.40879340591652, 1.406287790203772, 1};
Point(p11 + 29) = {14.56816997753492, 1.368024860663183, 1};
Point(p11 + 30) = {14.73157, 1.355165, 1};
Point(p11 + 31) = {14.89497002246508, 1.368024860663182, 1};
Point(p11 + 32) = {15.05434659408348, 1.406287790203772, 1};
Point(p11 + 33) = {15.20577533472145, 1.469011628309097, 1};
Point(p11 + 34) = {15.3455275662213, 1.554651905916519, 1};
Point(p11 + 35) = {15.47016212483244, 1.661099875167559, 1};
Point(p11 + 36) = {15.57661009408348, 1.7857344337787, 1};
Point(p11 + 37) = {15.6622503716909, 1.92548666527855, 1};
Point(p11 + 38) = {15.72497420979623, 2.076915405916519, 1};
Point(p11 + 39) = {15.76323713933682, 2.236291977534922, 1};
Spline(11) = {9, p11 + 1, p11 + 2, p11 + 3, p11 + 4, p11 + 5, p11 + 6, p11 + 7, p11 + 8, p11 + 9, p11 + 10, p11 + 11, p11 + 12, p11 + 13, p11 + 14, p11 + 15, p11 + 16, p11 + 17, p11 + 18, p11 + 19, p11 + 20, p11 + 21, p11 + 22, p11 + 23, p11 + 24, p11 + 25, p11 + 26, p11 + 27, p11 + 28, p11 + 29, p11 + 30, p11 + 31, p11 + 32, p11 + 33, p11 + 34, p11 + 35, p11 + 36, p11 + 37, p11 + 38, p11 + 39, 9};
Line(12) = {4, 10};
Line(13) = {10, 7};
Line(14) = {5, 10};
p15 = newp;
Point(p15 + 1) = {28.80991596346311, 0.960674973533679, 0};
Point(p15 + 2) = {28.76286919866909, 1.156638852113666, 0};
Point(p15 + 3) = {28.68574615310646, 1.342830354682496, 0};
Point(p15 + 4) = {28.58044585211367, 1.514664828512755, 0};
Point(p15 + 5) = {28.44956113857282, 1.66791113857282, 0};
Point(p15 + 6) = {28.29631482851276, 1.798795852113666, 0};
Point(p15 + 7) = {28.1244803546825, 1.90409615310646, 0};
Point(p15 + 8) = {27.93828885211366, 1.981219198669094, 0};
Point(p15 + 9) = {27.74232497353368, 2.028265963463104, 0};
Point(p15 + 10) = {27.541414, 2.044078, 0};
Point(p15 + 11) = {27.34050302646632, 2.028265963463104, 0};
Point(p15 + 12) = {27.14453914788633, 1.981219198669094, 0};
Point(p15 + 13) = {26.9583476453175, 1.90409615310646, 0};
Point(p15 + 14) = {26.78651317148724, 1.798795852113666, 0};
Point(p15 + 15) = {26.63326686142718, 1.66791113857282, 0};
Point(p15 + 16) = {26.50238214788633, 1.514664828512756, 0};
Point(p15 + 17) = {26.39708184689354, 1.342830354682496, 0};
Point(p15 + 18) = {26.31995880133091, 1.156638852113666, 0};
Point(p15 + 19) = {26.27291203653689, 0.9606749735336793, 0};
Point(p15 + 20) = {26.2571, 0.7597640000000001, 0};
Point(p15 + 21) = {26.27291203653689, 0.5588530264663212, 0};
Point(p15 + 22) = {26.31995880133091, 0.3628891478863334, 0};
Point(p15 + 23) = {26.39708184689354, 0.1766976453175044, 0};
Point(p15 + 24) = {26.50238214788633, 0.0048631714872448, 0};
Point(p15 + 25) = {26.63326686142718, -0.1483831385728195, 0};
Point(p15 + 26) = {26.78651317148724, -0.2792678521136661, 0};
Point(p15 + 27) = {26.9583476453175, -0.3845681531064594, 0};
Point(p15 + 28) = {27.14453914788633, -0.4616911986690938, 0};
Point(p15 + 29) = {27.34050302646632, -0.5087379634631036, 0};
Point(p15 + 30) = {27.541414, -0.52455, 0};
Point(p15 + 31) = {27.74232497353368, -0.5087379634631036, 0};
Point(p15 + 32) = {27.93828885211366, -0.461691198669094, 0};
Point(p15 + 33) = {28.1244803546825, -0.3845681531064594, 0};
Point(p15 + 34) = {28.29631482851276, -0.2792678521136663, 0};
Point(p15 + 35) = {28.44956113857282, -0.1483831385728198, 0};
Point(p15 + 36) = {28.58044585211367, 0.004863171487244355, 0};
Point(p15 + 37) = {28.68574615310646, 0.1766976453175035, 0};
Point(p15 + 38) = {28.76286919866909, 0.3628891478863335, 0};
Point(p15 + 39) = {28.80991596346311, 0.5588530264663206, 0};
Spline(15) = {11, p15 + 1, p15 + 2, p15 + 3, p15 + 4, p15 + 5, p15 + 6, p15 + 7, p15 + 8, p15 + 9, p15 + 10, p15 + 11, p15 + 12, p15 + 13, p15 + 14, p15 + 15, p15 + 16, p15 + 17, p15 + 18, p15 + 19, p15 + 20, p15 + 21, p15 + 22, p15 + 23, p15 + 24, p15 + 25, p15 + 26, p15 + 27, p15 + 28, p15 + 29, p15 + 30, p15 + 31, p15 + 32, p15 + 33, p15 + 34, p15 + 35, p15 + 36, p15 + 37, p15 + 38, p15 + 39, 11};
p16 = newp;
Point(p16 + 1) = {15.76323713933682, 2.563092022465077, 0};
Point(p16 + 2) = {15.72497420979623, 2.722468594083481, 0};
Point(p16 + 3) = {15.6622503716909, 2.87389733472145, 0};
Point(p16 + 4) = {15.57661009408348, 3.0136495662213, 0};
Point(p16 + 5) = {15.47016212483244, 3.138284124832441, 0};
Point(p16 + 6) = {15.3455275662213, 3.244732094083481, 0};
Point(p16 + 7) = {15.20577533472145, 3.330372371690903, 0};
Point(p16 + 8) = {15.05434659408348, 3.393096209796228, 0};
Point(p16 + 9) = {14.89497002246508, 3.431359139336817, 0};
Point(p16 + 10) = {14.73157, 3.444219, 0};
Point(p16 + 11) = {14.56816997753492, 3.431359139336817, 0};
Point(p16 + 12) = {14.40879340591652, 3.393096209796228, 0};
Point(p16 + 13) = {14.25736466527855, 3.330372371690903, 0};
Point(p16 + 14) = {14.1176124337787, 3.244732094083481, 0};
Point(p16 + 15) = {13.99297787516756, 3.138284124832441, 0};
Point(p16 + 16) = {13.88652990591652, 3.0136495662213, 0};
Point(p16 + 17) = {13.8008896283091, 2.87389733472145, 0};
Point(p16 + 18) = {13.73816579020377, 2.722468594083481, 0};
Point(p16 + 19) = {13.69990286066318, 2.563092022465077, 0};
Point(p16 + 20) = {13.687043, 2.399692, 0};
Point(p16 + 21) = {13.69990286066318, 2.236291977534923, 0};
Point(p16 + 22) = {13.73816579020377, 2.076915405916519, 0};
Point(p16 + 23) = {13.8008896283091, 1.925486665278551, 0};
Point(p16 + 24) = {13.88652990591652, 1.7857344337787, 0};
Point(p16 + 25) = {13.99297787516756, 1.661099875167559, 0};
Point(p16 + 26) = {14.1176124337787, 1.554651905916519, 0};
Point(p16 + 27) = {14.25736466527855, 1.469011628309097, 0};
Point(p16 + 28) = {14.40879340591652, 1.406287790203772, 0};
Point(p16 + 29) = {14.56816997753492, 1.368024860663183, 0};
Point(p16 + 30) = {14.73157, 1.355165, 0};
Point(p16 + 31) = {14.89497002246508, 1.368024860663182, 0};
Point(p16 + 32) = {15.05434659408348, 1.406287790203772, 0};
Point(p16 + 33) = {15.20577533472145, 1.469011628309097, 0};
Point(p16 + 34) = {15.3455275662213, 1.554651905916519, 0};
Point(p16 + 35) = {15.47016212483244, 1.661099875167559, 0};
Point(p16 + 36) = {15.57661009408348, 1.7857344337787, 0};
Point(p16 + 37) = {15.6622503716909, 1.92548666527855, 0};
Point(p16 + 38) = {15.72497420979623, 2.076915405916519, 0};
Point(p16 + 39) = {15.76323713933682, 2.236291977534922, 0};
Spline(16) = {12, p16 + 1, p16 + 2, p16 + 3, p16 + 4, p16 + 5, p16 + 6, p16 + 7, p16 + 8, p16 + 9, p16 + 10, p16 + 11, p16 + 12, p16 + 13, p16 + 14, p16 + 15, p16 + 16, p16 + 17, p16 + 18, p16 + 19, p16 + 20, p16 + 21, p16 + 22, p16 + 23, p16 + 24, p16 + 25, p16 + 26, p16 + 27, p16 + 28, p16 + 29, p16 + 30, p16 + 31, p16 + 32, p16 + 33, p16 + 34, p16 + 35, p16 + 36, p16 + 37, p16 + 38, p16 + 39, 12};
Line(17) = {11, 8};
Line(18) = {12, 9};
Curve Loop(1) = {-1, 4, 3, -2};
Plane Surface(1) = {1};
Curve Loop(2) = {-5, 1, 7, -6};
Plane Surface(2) = {2};
Curve Loop(3) = {-2, 7, 9, -8, -10, -11};
Plane Surface(3) = {3};
Curve Loop(4) = {-12, 3, 8, -13};
Plane Surface(4) = {4};
Curve Loop(5) = {-4, 5, 14, -12, -15, -16};
Plane Surface(5) = {5};
Curve Loop(6) = {-6, 14, 13, -9};
Plane Surface(6) = {6};
Curve Loop(7) = {-10, -17, 15, 17};
Surface(7) = {7};
Curve Loop(8) = {-11, -18, 16, 18};
Surface(8) = {8};
Surface Loop(1) = {1, 2, 3, 4, 5, 6, 7, 8};
Volume(1) = {1};
Physical Surface("INFLOW") = {1};
Physical Surface("OUTFLOW") = {6};
Physical Surface("OBSTACLE") = {7, 8};
Physical Surface("WALL_Y") = {2, 4};
Physical Surface("WALL_Z") = {3, 5};
Physical Volume("FLUID") = {1};
