cl__1 = 3.697603;
cl__2 = 4.170734;
cl__3 = 0.442494;
cl__4 = 0.401488;
cl__5 = 0.094082;
cl__6 = 0.14034;
Point(1) = {0.620891, -3.896212, 1, cl__1};
Point(2) = {0.620891, -3.896212, 0, cl__1};
Point(3) = {0.620891, 5.251742, 1, cl__2};
Point(4) = {0.620891, 5.251742, 0, cl__2};
Point(5) = {37.209284, -3.896212, 0, cl__3};
Point(6) = {37.209284, -3.896212, 1, cl__3};
Point(7) = {37.209284, 5.251742, 1, cl__4};
Point(8) = {24.990694, -1.747873, 1, cl__5};
Point(9) = {32.597328, 1.173208, 1, cl__6};
Point(10) = {37.209284, 5.251742, 0, cl__4};
Point(11) = {24.990694, -1.747873, 0, cl__5};
Point(12) = {32.597328, 1.173208, 0, cl__6};
Line(1) = {2, 1};
Line(2) = {1, 3};
Line(3) = {4, 3};
Line(4) = {2, 4};
Line(5) = {2, 5};
Line(6) = {5, 6};
Line(7) = {1, 6};
Line(8) = {3, 7};
Line(9) = {6, 7};
p10 = newp;
Point(p10 + 1) = {24.97911090766374, -1.600695857297455, 1};
Point(p10 + 2) = {24.94464684483036, -1.457142704301179, 1};
Point(p10 + 3) = {24.88815043110647, -1.32074829606354, 1};
Point(p10 + 4) = {24.81101279569882, -1.194871115582439, 1};
Point(p10 + 5) = {24.71513332319627, -1.082610676803729, 1};
Point(p10 + 6) = {24.60287288441756, -0.9867312043011789, 1};
Point(p10 + 7) = {24.47699570393646, -0.9095935688935273, 1};
Point(p10 + 8) = {24.34060129569882, -0.8530971551696448, 1};
Point(p10 + 9) = {24.19704814270255, -0.8186330923362607, 1};
Point(p10 + 10) = {24.049871, -0.80705, 1};
Point(p10 + 11) = {23.90269385729745, -0.8186330923362608, 1};
Point(p10 + 12) = {23.75914070430118, -0.8530971551696447, 1};
Point(p10 + 13) = {23.62274629606354, -0.9095935688935272, 1};
Point(p10 + 14) = {23.49686911558244, -0.9867312043011789, 1};
Point(p10 + 15) = {23.38460867680373, -1.082610676803729, 1};
Point(p10 + 16) = {23.28872920430118, -1.194871115582439, 1};
Point(p10 + 17) = {23.21159156889353, -1.32074829606354, 1};
Point(p10 + 18) = {23.15509515516964, -1.457142704301179, 1};
Point(p10 + 19) = {23.12063109233626, -1.600695857297455, 1};
Point(p10 + 20) = {23.109048, -1.747873, 1};
Point(p10 + 21) = {23.12063109233626, -1.895050142702545, 1};
Point(p10 + 22) = {23.15509515516964, -2.038603295698822, 1};
Point(p10 + 23) = {23.21159156889353, -2.174997703936459, 1};
Point(p10 + 24) = {23.28872920430118, -2.300874884417561, 1};
Point(p10 + 25) = {23.38460867680373, -2.413135323196271, 1};
Point(p10 + 26) = {23.49686911558244, -2.509014795698821, 1};
Point(p10 + 27) = {23.62274629606354, -2.586152431106473, 1};
Point(p10 + 28) = {23.75914070430118, -2.642648844830355, 1};
Point(p10 + 29) = {23.90269385729745, -2.677112907663739, 1};
Point(p10 + 30) = {24.049871, -2.688696, 1};
Point(p10 + 31) = {24.19704814270255, -2.677112907663739, 1};
Point(p10 + 32) = {24.34060129569882, -2.642648844830355, 1};
Point(p10 + 33) = {24.47699570393646, -2.586152431106473, 1};
Point(p10 + 34) = {24.60287288441756, -2.509014795698821, 1};
Point(p10 + 35) = {24.71513332319627, -2.413135323196271, 1};
Point(p10 + 36) = {24.81101279569882, -2.300874884417562, 1};
Point(p10 + 37) = {24.88815043110647, -2.17499770393646, 1};
Point(p10 + 38) = {24.94464684483036, -2.038603295698821, 1};
Point(p10 + 39) = {24.97911090766374, -1.895050142702545, 1};
Spline(10) = {8, p10 + 1, p10 + 2, p10 + 3, p10 + 4, p10 + 5, p10 + 6, p10 + 7, p10 + 8, p10 + 9, p10 + 10, p10 + 11, p10 + 12, p10 + 13, p10 + 14, p10 + 15, p10 + 16, p10 + 17, p10 + 18, p10 + 19, p10 + 20, p10 + 21, p10 + 22, p10 + 23, p10 + 24, p10 + 25, p10 + 26, p10 + 27, p10 + 28, p10 + 29, p10 + 30, p10 + 31, p10 + 32, p10 + 33, p10 + 34, p10 + 35, p10 + 36, p10 + 37, p10 + 38, p10 + 39, 8};
p11 = newp;
Point(p11 + 1) = {32.58004976794458, 1.39274875397532, 1};
Point(p11 + 2) = {32.52864051919468, 1.606883685973779, 1};
Point(p11 + 3) = {32.44436612007205, 1.810340083296479, 1};
Point(p11 + 4) = {32.32930168597377, 1.998108174208266, 1};
Point(p11 + 5) = {32.18628048514432, 2.165564485144325, 1};
Point(p11 + 6) = {32.01882417420826, 2.308585685973779, 1};
Point(p11 + 7) = {31.83105608329648, 2.423650120072052, 1};
Point(p11 + 8) = {31.62759968597378, 2.507924519194684, 1};
Point(p11 + 9) = {31.41346475397532, 2.559333767944579, 1};
Point(p11 + 10) = {31.193924, 2.576612, 1};
Point(p11 + 11) = {30.97438324602468, 2.559333767944579, 1};
Point(p11 + 12) = {30.76024831402622, 2.507924519194684, 1};
Point(p11 + 13) = {30.55679191670352, 2.423650120072052, 1};
Point(p11 + 14) = {30.36902382579173, 2.308585685973779, 1};
Point(p11 + 15) = {30.20156751485568, 2.165564485144326, 1};
Point(p11 + 16) = {30.05854631402622, 1.998108174208266, 1};
Point(p11 + 17) = {29.94348187992795, 1.810340083296479, 1};
Point(p11 + 18) = {29.85920748080532, 1.606883685973779, 1};
Point(p11 + 19) = {29.80779823205542, 1.39274875397532, 1};
Point(p11 + 20) = {29.79052, 1.173208, 1};
Point(p11 + 21) = {29.80779823205542, 0.95366724602468, 1};
Point(p11 + 22) = {29.85920748080532, 0.7395323140262209, 1};
Point(p11 + 23) = {29.94348187992795, 0.5360759167035218, 1};
Point(p11 + 24) = {30.05854631402622, 0.3483078257917341, 1};
Point(p11 + 25) = {30.20156751485567, 0.1808515148556745, 1};
Point(p11 + 26) = {30.36902382579173, 0.03783031402622128, 1};
Point(p11 + 27) = {30.55679191670352, -0.0772341200720521, 1};
Point(p11 + 28) = {30.76024831402622, -0.1615085191946837, 1};
Point(p11 + 29) = {30.97438324602468, -0.2129177679445786, 1};
Point(p11 + 30) = {31.193924, -0.2301960000000001, 1};
Point(p11 + 31) = {31.41346475397532, -0.2129177679445788, 1};
Point(p11 + 32) = {31.62759968597378, -0.1615085191946839, 1};
Point(p11 + 33) = {31.83105608329648, -0.07723412007205233, 1};
Point(p11 + 34) = {32.01882417420826, 0.03783031402622106, 1};
Point(p11 + 35) = {32.18628048514432, 0.1808515148556742, 1};
Point(p11 + 36) = {32.32930168597377, 0.3483078257917337, 1};
Point(p11 + 37) = {32.44436612007205, 0.5360759167035208, 1};
Point(p11 + 38) = {32.52864051919468, 0.739532314026221, 1};
Point(p11 + 39) = {32.58004976794458, 0.9536672460246796, 1};
Spline(11) = {9, p11 + 1, p11 + 2, p11 + 3, p11 + 4, p11 + 5, p11 + 6, p11 + 7, p11 + 8, p11 + 9, p11 + 10, p11 + 11, p11 + 12, p11 + 13, p11 + 14, p11 + 15, p11 + 16, p11 + 17, p11 + 18, p11 + 19, p11 + 20, p11 + 21, p11 + 22, p11 + 23, p11 + 24, p11 + 25, p11 + 26, p11 + 27, p11 + 28, p11 + 29, p11 + 30, p11 + 31, p11 + 32, p11 + 33, p11 + 34, p11 + 35, p11 + 36, p11 + 37, p11 + 38, p11 + 39, 9};
Line(12) = {4, 10};
Line(13) = {10, 7};
Line(14) = {5, 10};
p15 = newp;
Point(p15 + 1) = {24.97911090766374, -1.600695857297455, 0};
Point(p15 + 2) = {24.94464684483036, -1.457142704301179, 0};
Point(p15 + 3) = {24.88815043110647, -1.32074829606354, 0};
Point(p15 + 4) = {24.81101279569882, -1.194871115582439, 0};
Point(p15 + 5) = {24.71513332319627, -1.082610676803729, 0};
Point(p15 + 6) = {24.60287288441756, -0.9867312043011789, 0};
Point(p15 + 7) = {24.47699570393646, -0.9095935688935273, 0};
Point(p15 + 8) = {24.34060129569882, -0.8530971551696448, 0};
Point(p15 + 9) = {24.19704814270255, -0.8186330923362607, 0};
Point(p15 + 10) = {24.049871, -0.80705, 0};
Point(p15 + 11) = {23.90269385729745, -0.8186330923362608, 0};
Point(p15 + 12) = {23.75914070430118, -0.8530971551696447, 0};
Point(p15 + 13) = {23.62274629606354, -0.9095935688935272, 0};
Point(p15 + 14) = {23.49686911558244, -0.9867312043011789, 0};
Point(p15 + 15) = {23.38460867680373, -1.082610676803729, 0};
Point(p15 + 16) = {23.28872920430118, -1.194871115582439, 0};
Point(p15 + 17) = {23.21159156889353, -1.32074829606354, 0};
Point(p15 + 18) = {23.15509515516964, -1.457142704301179, 0};
Point(p15 + 19) = {23.12063109233626, -1.600695857297455, 0};
Point(p15 + 20) = {23.109048, -1.747873, 0};
Point(p15 + 21) = {23.12063109233626, -1.895050142702545, 0};
Point(p15 + 22) = {23.15509515516964, -2.038603295698822, 0};
Point(p15 + 23) = {23.21159156889353, -2.174997703936459, 0};
Point(p15 + 24) = {23.28872920430118, -2.300874884417561, 0};
Point(p15 + 25) = {23.38460867680373, -2.413135323196271, 0};
Point(p15 + 26) = {23.49686911558244, -2.509014795698821, 0};
Point(p15 + 27) = {23.62274629606354, -2.586152431106473, 0};
Point(p15 + 28) = {23.75914070430118, -2.642648844830355, 0};
Point(p15 + 29) = {23.90269385729745, -2.677112907663739, 0};
Point(p15 + 30) = {24.049871, -2.688696, 0};
Point(p15 + 31) = {24.19704814270255, -2.677112907663739, 0};
Point(p15 + 32) = {24.34060129569882, -2.642648844830355, 0};
Point(p15 + 33) = {24.47699570393646, -2.586152431106473, 0};
Point(p15 + 34) = {24.60287288441756, -2.509014795698821, 0};
Point(p15 + 35) = {24.71513332319627, -2.413135323196271, 0};
Point(p15 + 36) = {24.81101279569882, -2.300874884417562, 0};
Point(p15 + 37) = {24.88815043110647, -2.17499770393646, 0};
Point(p15 + 38) = {24.94464684483036, -2.038603295698821, 0};
Point(p15 + 39) = {24.97911090766374, -1.895050142702545, 0};
Spline(15) = {11, p15 + 1, p15 + 2, p15 + 3, p15 + 4, p15 + 5, p15 + 6, p15 + 7, p15 + 8, p15 + 9, p15 + 10, p15 + 11, p15 + 12, p15 + 13, p15 + 14, p15 + 15, p15 + 16, p15 + 17, p15 + 18, p15 + 19, p15 + 20, p15 + 21, p15 + 22, p15 + 23, p15 + 24, p15 + 25, p15 + 26, p15 + 27, p15 + 28, p15 + 29, p15 + 30, p15 + 31, p15 + 32, p15 + 33, p15 + 34, p15 + 35, p15 + 36, p15 + 37, p15 + 38, p15 + 39, 11};
p16 = newp;
Point(p16 + 1) = {32.58004976794458, 1.39274875397532, 0};
Point(p16 + 2) = {32.52864051919468, 1.606883685973779, 0};
Point(p16 + 3) = {32.44436612007205, 1.810340083296479, 0};
Point(p16 + 4) = {32.32930168597377, 1.998108174208266, 0};
Point(p16 + 5) = {32.18628048514432, 2.165564485144325, 0};
Point(p16 + 6) = {32.01882417420826, 2.308585685973779, 0};
Point(p16 + 7) = {31.83105608329648, 2.423650120072052, 0};
Point(p16 + 8) = {31.62759968597378, 2.507924519194684, 0};
Point(p16 + 9) = {31.41346475397532, 2.559333767944579, 0};
Point(p16 + 10) = {31.193924, 2.576612, 0};
Point(p16 + 11) = {30.97438324602468, 2.559333767944579, 0};
Point(p16 + 12) = {30.76024831402622, 2.507924519194684, 0};
Point(p16 + 13) = {30.55679191670352, 2.423650120072052, 0};
Point(p16 + 14) = {30.36902382579173, 2.308585685973779, 0};
Point(p16 + 15) = {30.20156751485568, 2.165564485144326, 0};
Point(p16 + 16) = {30.05854631402622, 1.998108174208266, 0};
Point(p16 + 17) = {29.94348187992795, 1.810340083296479, 0};
Point(p16 + 18) = {29.85920748080532, 1.606883685973779, 0};
Point(p16 + 19) = {29.80779823205542, 1.39274875397532, 0};
Point(p16 + 20) = {29.79052, 1.173208, 0};
Point(p16 + 21) = {29.80779823205542, 0.95366724602468, 0};
Point(p16 + 22) = {29.85920748080532, 0.7395323140262209, 0};
Point(p16 + 23) = {29.94348187992795, 0.5360759167035218, 0};
Point(p16 + 24) = {30.05854631402622, 0.3483078257917341, 0};
Point(p16 + 25) = {30.20156751485567, 0.1808515148556745, 0};
Point(p16 + 26) = {30.36902382579173, 0.03783031402622128, 0};
Point(p16 + 27) = {30.55679191670352, -0.0772341200720521, 0};
Point(p16 + 28) = {30.76024831402622, -0.1615085191946837, 0};
Point(p16 + 29) = {30.97438324602468, -0.2129177679445786, 0};
Point(p16 + 30) = {31.193924, -0.2301960000000001, 0};
Point(p16 + 31) = {31.41346475397532, -0.2129177679445788, 0};
Point(p16 + 32) = {31.62759968597378, -0.1615085191946839, 0};
Point(p16 + 33) = {31.83105608329648, -0.07723412007205233, 0};
Point(p16 + 34) = {32.01882417420826, 0.03783031402622106, 0};
Point(p16 + 35) = {32.18628048514432, 0.1808515148556742, 0};
Point(p16 + 36) = {32.32930168597377, 0.3483078257917337, 0};
Point(p16 + 37) = {32.44436612007205, 0.5360759167035208, 0};
Point(p16 + 38) = {32.52864051919468, 0.739532314026221, 0};
Point(p16 + 39) = {32.58004976794458, 0.9536672460246796, 0};
Spline(16) = {12, p16 + 1, p16 + 2, p16 + 3, p16 + 4, p16 + 5, p16 + 6, p16 + 7, p16 + 8, p16 + 9, p16 + 10, p16 + 11, p16 + 12, p16 + 13, p16 + 14, p16 + 15, p16 + 16, p16 + 17, p16 + 18, p16 + 19, p16 + 20, p16 + 21, p16 + 22, p16 + 23, p16 + 24, p16 + 25, p16 + 26, p16 + 27, p16 + 28, p16 + 29, p16 + 30, p16 + 31, p16 + 32, p16 + 33, p16 + 34, p16 + 35, p16 + 36, p16 + 37, p16 + 38, p16 + 39, 12};
Line(17) = {11, 8};
Line(18) = {12, 9};
Curve Loop(1) = {-1, 4, 3, -2};
Plane Surface(1) = {1};
Curve Loop(2) = {-5, 1, 7, -6};
Plane Surface(2) = {2};
Curve Loop(3) = {-2, 7, 9, -8, -10, -11};
Plane Surface(3) = {3};
Curve Loop(4) = {-12, 3, 8, -13};
Plane Surface(4) = {4};
Curve Loop(5) = {-4, 5, 14, -12, -15, -16};
Plane Surface(5) = {5};
Curve Loop(6) = {-6, 14, 13, -9};
Plane Surface(6) = {6};
Curve Loop(7) = {-10, -17, 15, 17};
Surface(7) = {7};
Curve Loop(8) = {-11, -18, 16, 18};
Surface(8) = {8};
Surface Loop(1) = {1, 2, 3, 4, 5, 6, 7, 8};
Volume(1) = {1};
Physical Surface("INFLOW") = {1};
Physical Surface("OUTFLOW") = {6};
Physical Surface("OBSTACLE") = {7, 8};
Physical Surface("WALL_Y") = {2, 4};
Physical Surface("WALL_Z") = {3, 5};
Physical Volume("FLUID") = {1};
