cl__1 = 3.933304;
cl__2 = 0.532788;
cl__3 = 0.223671;
cl__4 = 0.106778;
cl__5 = 0.096802;
Point(1) = {0.723118, -3.032162, 1, cl__1};
Point(2) = {0.723118, -3.032162, 0, cl__1};
Point(3) = {0.723118, 4.9055, 1, cl__1};
Point(4) = {0.723118, 4.9055, 0, cl__1};
Point(5) = {39.132298, -3.032162, 0, cl__2};
Point(6) = {39.132298, -3.032162, 1, cl__2};
Point(7) = {39.132298, 4.9055, 1, cl__3};
Point(8) = {29.893331, 2.308015, 1, cl__4};
Point(9) = {37.69605, 2.786594, 1, cl__5};
Point(10) = {39.132298, 4.9055, 0, cl__3};
Point(11) = {29.893331, 2.308015, 0, cl__4};
Point(12) = {37.69605, 2.786594, 0, cl__5};
Line(1) = {2, 1};
Line(2) = {1, 3};
Line(3) = {4, 3};
Line(4) = {2, 4};
Line(5) = {2, 5};
Line(6) = {5, 6};
Line(7) = {1, 6};
Line(8) = {3, 7};
Line(9) = {6, 7};
p10 = newp;
Point(p10 + 1) = {29.88018484400902, 2.475052749515123, 1};
Point(p10 + 2) = {29.84107007802616, 2.637977475270676, 1};
Point(p10 + 3) = {29.77694983740438, 2.792777429802393, 1};
Point(p10 + 4) = {29.68940297527067, 2.935640924478109, 1};
Point(p10 + 5) = {29.58058518592215, 3.063050185922153, 1};
Point(p10 + 6) = {29.45317592447811, 3.171867975270676, 1};
Point(p10 + 7) = {29.31031242980239, 3.25941483740438, 1};
Point(p10 + 8) = {29.15551247527068, 3.323535078026156, 1};
Point(p10 + 9) = {28.99258774951512, 3.362649844009017, 1};
Point(p10 + 10) = {28.82555, 3.375796, 1};
Point(p10 + 11) = {28.65851225048488, 3.362649844009017, 1};
Point(p10 + 12) = {28.49558752472932, 3.323535078026156, 1};
Point(p10 + 13) = {28.34078757019761, 3.25941483740438, 1};
Point(p10 + 14) = {28.19792407552189, 3.171867975270676, 1};
Point(p10 + 15) = {28.07051481407785, 3.063050185922153, 1};
Point(p10 + 16) = {27.96169702472933, 2.935640924478109, 1};
Point(p10 + 17) = {27.87415016259562, 2.792777429802393, 1};
Point(p10 + 18) = {27.81002992197384, 2.637977475270676, 1};
Point(p10 + 19) = {27.77091515599098, 2.475052749515123, 1};
Point(p10 + 20) = {27.757769, 2.308015, 1};
Point(p10 + 21) = {27.77091515599098, 2.140977250484878, 1};
Point(p10 + 22) = {27.81002992197384, 1.978052524729324, 1};
Point(p10 + 23) = {27.87415016259562, 1.823252570197608, 1};
Point(p10 + 24) = {27.96169702472933, 1.680389075521891, 1};
Point(p10 + 25) = {28.07051481407785, 1.552979814077847, 1};
Point(p10 + 26) = {28.19792407552189, 1.444162024729324, 1};
Point(p10 + 27) = {28.34078757019761, 1.356615162595621, 1};
Point(p10 + 28) = {28.49558752472932, 1.292494921973845, 1};
Point(p10 + 29) = {28.65851225048488, 1.253380155990983, 1};
Point(p10 + 30) = {28.82555, 1.240234, 1};
Point(p10 + 31) = {28.99258774951512, 1.253380155990983, 1};
Point(p10 + 32) = {29.15551247527068, 1.292494921973845, 1};
Point(p10 + 33) = {29.31031242980239, 1.35661516259562, 1};
Point(p10 + 34) = {29.45317592447811, 1.444162024729324, 1};
Point(p10 + 35) = {29.58058518592215, 1.552979814077847, 1};
Point(p10 + 36) = {29.68940297527067, 1.680389075521891, 1};
Point(p10 + 37) = {29.77694983740438, 1.823252570197607, 1};
Point(p10 + 38) = {29.84107007802616, 1.978052524729324, 1};
Point(p10 + 39) = {29.88018484400902, 2.140977250484877, 1};
Spline(10) = {8, p10 + 1, p10 + 2, p10 + 3, p10 + 4, p10 + 5, p10 + 6, p10 + 7, p10 + 8, p10 + 9, p10 + 10, p10 + 11, p10 + 12, p10 + 13, p10 + 14, p10 + 15, p10 + 16, p10 + 17, p10 + 18, p10 + 19, p10 + 20, p10 + 21, p10 + 22, p10 + 23, p10 + 24, p10 + 25, p10 + 26, p10 + 27, p10 + 28, p10 + 29, p10 + 30, p10 + 31, p10 + 32, p10 + 33, p10 + 34, p10 + 35, p10 + 36, p10 + 37, p10 + 38, p10 + 39, 8};
p11 = newp;
Point(p11 + 1) = {37.68413205515125, 2.938025847282709, 1};
Point(p11 + 2) = {37.64867167996055, 3.085728939911831, 1};
Point(p11 + 3) = {37.59054202655135, 3.226066337548376, 1};
Point(p11 + 4) = {37.51117443991183, 3.355582467709412, 1};
Point(p11 + 5) = {37.41252321343098, 3.471088213430983, 1};
Point(p11 + 6) = {37.29701746770941, 3.569739439911831, 1};
Point(p11 + 7) = {37.16750133754837, 3.649107026551348, 1};
Point(p11 + 8) = {37.02716393991183, 3.707236679960551, 1};
Point(p11 + 9) = {36.87946084728271, 3.742697055151246, 1};
Point(p11 + 10) = {36.728029, 3.754615, 1};
Point(p11 + 11) = {36.57659715271729, 3.742697055151246, 1};
Point(p11 + 12) = {36.42889406008817, 3.707236679960551, 1};
Point(p11 + 13) = {36.28855666245163, 3.649107026551348, 1};
Point(p11 + 14) = {36.15904053229059, 3.569739439911831, 1};
Point(p11 + 15) = {36.04353478656902, 3.471088213430983, 1};
Point(p11 + 16) = {35.94488356008817, 3.355582467709412, 1};
Point(p11 + 17) = {35.86551597344865, 3.226066337548376, 1};
Point(p11 + 18) = {35.80738632003945, 3.085728939911831, 1};
Point(p11 + 19) = {35.77192594484875, 2.938025847282709, 1};
Point(p11 + 20) = {35.760008, 2.786594, 1};
Point(p11 + 21) = {35.77192594484875, 2.635162152717291, 1};
Point(p11 + 22) = {35.80738632003945, 2.487459060088169, 1};
Point(p11 + 23) = {35.86551597344865, 2.347121662451625, 1};
Point(p11 + 24) = {35.94488356008817, 2.217605532290588, 1};
Point(p11 + 25) = {36.04353478656902, 2.102099786569017, 1};
Point(p11 + 26) = {36.15904053229059, 2.003448560088169, 1};
Point(p11 + 27) = {36.28855666245163, 1.924080973448652, 1};
Point(p11 + 28) = {36.42889406008817, 1.865951320039449, 1};
Point(p11 + 29) = {36.57659715271729, 1.830490944848754, 1};
Point(p11 + 30) = {36.728029, 1.818573, 1};
Point(p11 + 31) = {36.87946084728271, 1.830490944848754, 1};
Point(p11 + 32) = {37.02716393991183, 1.865951320039449, 1};
Point(p11 + 33) = {37.16750133754837, 1.924080973448652, 1};
Point(p11 + 34) = {37.29701746770941, 2.003448560088169, 1};
Point(p11 + 35) = {37.41252321343098, 2.102099786569017, 1};
Point(p11 + 36) = {37.51117443991183, 2.217605532290587, 1};
Point(p11 + 37) = {37.59054202655135, 2.347121662451624, 1};
Point(p11 + 38) = {37.64867167996055, 2.487459060088169, 1};
Point(p11 + 39) = {37.68413205515125, 2.635162152717291, 1};
Spline(11) = {9, p11 + 1, p11 + 2, p11 + 3, p11 + 4, p11 + 5, p11 + 6, p11 + 7, p11 + 8, p11 + 9, p11 + 10, p11 + 11, p11 + 12, p11 + 13, p11 + 14, p11 + 15, p11 + 16, p11 + 17, p11 + 18, p11 + 19, p11 + 20, p11 + 21, p11 + 22, p11 + 23, p11 + 24, p11 + 25, p11 + 26, p11 + 27, p11 + 28, p11 + 29, p11 + 30, p11 + 31, p11 + 32, p11 + 33, p11 + 34, p11 + 35, p11 + 36, p11 + 37, p11 + 38, p11 + 39, 9};
Line(12) = {4, 10};
Line(13) = {10, 7};
Line(14) = {5, 10};
p15 = newp;
Point(p15 + 1) = {29.88018484400902, 2.475052749515123, 0};
Point(p15 + 2) = {29.84107007802616, 2.637977475270676, 0};
Point(p15 + 3) = {29.77694983740438, 2.792777429802393, 0};
Point(p15 + 4) = {29.68940297527067, 2.935640924478109, 0};
Point(p15 + 5) = {29.58058518592215, 3.063050185922153, 0};
Point(p15 + 6) = {29.45317592447811, 3.171867975270676, 0};
Point(p15 + 7) = {29.31031242980239, 3.25941483740438, 0};
Point(p15 + 8) = {29.15551247527068, 3.323535078026156, 0};
Point(p15 + 9) = {28.99258774951512, 3.362649844009017, 0};
Point(p15 + 10) = {28.82555, 3.375796, 0};
Point(p15 + 11) = {28.65851225048488, 3.362649844009017, 0};
Point(p15 + 12) = {28.49558752472932, 3.323535078026156, 0};
Point(p15 + 13) = {28.34078757019761, 3.25941483740438, 0};
Point(p15 + 14) = {28.19792407552189, 3.171867975270676, 0};
Point(p15 + 15) = {28.07051481407785, 3.063050185922153, 0};
Point(p15 + 16) = {27.96169702472933, 2.935640924478109, 0};
Point(p15 + 17) = {27.87415016259562, 2.792777429802393, 0};
Point(p15 + 18) = {27.81002992197384, 2.637977475270676, 0};
Point(p15 + 19) = {27.77091515599098, 2.475052749515123, 0};
Point(p15 + 20) = {27.757769, 2.308015, 0};
Point(p15 + 21) = {27.77091515599098, 2.140977250484878, 0};
Point(p15 + 22) = {27.81002992197384, 1.978052524729324, 0};
Point(p15 + 23) = {27.87415016259562, 1.823252570197608, 0};
Point(p15 + 24) = {27.96169702472933, 1.680389075521891, 0};
Point(p15 + 25) = {28.07051481407785, 1.552979814077847, 0};
Point(p15 + 26) = {28.19792407552189, 1.444162024729324, 0};
Point(p15 + 27) = {28.34078757019761, 1.356615162595621, 0};
Point(p15 + 28) = {28.49558752472932, 1.292494921973845, 0};
Point(p15 + 29) = {28.65851225048488, 1.253380155990983, 0};
Point(p15 + 30) = {28.82555, 1.240234, 0};
Point(p15 + 31) = {28.99258774951512, 1.253380155990983, 0};
Point(p15 + 32) = {29.15551247527068, 1.292494921973845, 0};
Point(p15 + 33) = {29.31031242980239, 1.35661516259562, 0};
Point(p15 + 34) = {29.45317592447811, 1.444162024729324, 0};
Point(p15 + 35) = {29.58058518592215, 1.552979814077847, 0};
Point(p15 + 36) = {29.68940297527067, 1.680389075521891, 0};
Point(p15 + 37) = {29.77694983740438, 1.823252570197607, 0};
Point(p15 + 38) = {29.84107007802616, 1.978052524729324, 0};
Point(p15 + 39) = {29.88018484400902, 2.140977250484877, 0};
Spline(15) = {11, p15 + 1, p15 + 2, p15 + 3, p15 + 4, p15 + 5, p15 + 6, p15 + 7, p15 + 8, p15 + 9, p15 + 10, p15 + 11, p15 + 12, p15 + 13, p15 + 14, p15 + 15, p15 + 16, p15 + 17, p15 + 18, p15 + 19, p15 + 20, p15 + 21, p15 + 22, p15 + 23, p15 + 24, p15 + 25, p15 + 26, p15 + 27, p15 + 28, p15 + 29, p15 + 30, p15 + 31, p15 + 32, p15 + 33, p15 + 34, p15 + 35, p15 + 36, p15 + 37, p15 + 38, p15 + 39, 11};
p16 = newp;
Point(p16 + 1) = {37.68413205515125, 2.938025847282709, 0};
Point(p16 + 2) = {37.64867167996055, 3.085728939911831, 0};
Point(p16 + 3) = {37.59054202655135, 3.226066337548376, 0};
Point(p16 + 4) = {37.51117443991183, 3.355582467709412, 0};
Point(p16 + 5) = {37.41252321343098, 3.471088213430983, 0};
Point(p16 + 6) = {37.29701746770941, 3.569739439911831, 0};
Point(p16 + 7) = {37.16750133754837, 3.649107026551348, 0};
Point(p16 + 8) = {37.02716393991183, 3.707236679960551, 0};
Point(p16 + 9) = {36.87946084728271, 3.742697055151246, 0};
Point(p16 + 10) = {36.728029, 3.754615, 0};
Point(p16 + 11) = {36.57659715271729, 3.742697055151246, 0};
Point(p16 + 12) = {36.42889406008817, 3.707236679960551, 0};
Point(p16 + 13) = {36.28855666245163, 3.649107026551348, 0};
Point(p16 + 14) = {36.15904053229059, 3.569739439911831, 0};
Point(p16 + 15) = {36.04353478656902, 3.471088213430983, 0};
Point(p16 + 16) = {35.94488356008817, 3.355582467709412, 0};
Point(p16 + 17) = {35.86551597344865, 3.226066337548376, 0};
Point(p16 + 18) = {35.80738632003945, 3.085728939911831, 0};
Point(p16 + 19) = {35.77192594484875, 2.938025847282709, 0};
Point(p16 + 20) = {35.760008, 2.786594, 0};
Point(p16 + 21) = {35.77192594484875, 2.635162152717291, 0};
Point(p16 + 22) = {35.80738632003945, 2.487459060088169, 0};
Point(p16 + 23) = {35.86551597344865, 2.347121662451625, 0};
Point(p16 + 24) = {35.94488356008817, 2.217605532290588, 0};
Point(p16 + 25) = {36.04353478656902, 2.102099786569017, 0};
Point(p16 + 26) = {36.15904053229059, 2.003448560088169, 0};
Point(p16 + 27) = {36.28855666245163, 1.924080973448652, 0};
Point(p16 + 28) = {36.42889406008817, 1.865951320039449, 0};
Point(p16 + 29) = {36.57659715271729, 1.830490944848754, 0};
Point(p16 + 30) = {36.728029, 1.818573, 0};
Point(p16 + 31) = {36.87946084728271, 1.830490944848754, 0};
Point(p16 + 32) = {37.02716393991183, 1.865951320039449, 0};
Point(p16 + 33) = {37.16750133754837, 1.924080973448652, 0};
Point(p16 + 34) = {37.29701746770941, 2.003448560088169, 0};
Point(p16 + 35) = {37.41252321343098, 2.102099786569017, 0};
Point(p16 + 36) = {37.51117443991183, 2.217605532290587, 0};
Point(p16 + 37) = {37.59054202655135, 2.347121662451624, 0};
Point(p16 + 38) = {37.64867167996055, 2.487459060088169, 0};
Point(p16 + 39) = {37.68413205515125, 2.635162152717291, 0};
Spline(16) = {12, p16 + 1, p16 + 2, p16 + 3, p16 + 4, p16 + 5, p16 + 6, p16 + 7, p16 + 8, p16 + 9, p16 + 10, p16 + 11, p16 + 12, p16 + 13, p16 + 14, p16 + 15, p16 + 16, p16 + 17, p16 + 18, p16 + 19, p16 + 20, p16 + 21, p16 + 22, p16 + 23, p16 + 24, p16 + 25, p16 + 26, p16 + 27, p16 + 28, p16 + 29, p16 + 30, p16 + 31, p16 + 32, p16 + 33, p16 + 34, p16 + 35, p16 + 36, p16 + 37, p16 + 38, p16 + 39, 12};
Line(17) = {11, 8};
Line(18) = {12, 9};
Curve Loop(1) = {-1, 4, 3, -2};
Plane Surface(1) = {1};
Curve Loop(2) = {-5, 1, 7, -6};
Plane Surface(2) = {2};
Curve Loop(3) = {-2, 7, 9, -8, -10, -11};
Plane Surface(3) = {3};
Curve Loop(4) = {-12, 3, 8, -13};
Plane Surface(4) = {4};
Curve Loop(5) = {-4, 5, 14, -12, -15, -16};
Plane Surface(5) = {5};
Curve Loop(6) = {-6, 14, 13, -9};
Plane Surface(6) = {6};
Curve Loop(7) = {-10, -17, 15, 17};
Surface(7) = {7};
Curve Loop(8) = {-11, -18, 16, 18};
Surface(8) = {8};
Surface Loop(1) = {1, 2, 3, 4, 5, 6, 7, 8};
Volume(1) = {1};
Physical Surface("INFLOW") = {1};
Physical Surface("OUTFLOW") = {6};
Physical Surface("OBSTACLE") = {7, 8};
Physical Surface("WALL_Y") = {2, 4};
Physical Surface("WALL_Z") = {3, 5};
Physical Volume("FLUID") = {1};
