cl__1 = 0.824539;
cl__2 = 0.74727;
cl__3 = 2.096042;
cl__4 = 1.514601;
cl__5 = 0.080251;
cl__6 = 0.054551;
Point(1) = {0.058752, -4.552421, 1, cl__1};
Point(2) = {0.058752, -4.552421, 0, cl__1};
Point(3) = {0.058752, 5.218145000000001, 1, cl__2};
Point(4) = {0.058752, 5.218145000000001, 0, cl__2};
Point(5) = {32.348414, -4.552421, 0, cl__3};
Point(6) = {32.348414, -4.552421, 1, cl__3};
Point(7) = {32.348414, 5.218145000000001, 1, cl__4};
Point(8) = {9.007905000000001, 1.169125, 1, cl__5};
Point(9) = {19.897371, 2.425463, 1, cl__6};
Point(10) = {32.348414, 5.218145000000001, 0, cl__4};
Point(11) = {9.007905000000001, 1.169125, 0, cl__5};
Point(12) = {19.897371, 2.425463, 0, cl__6};
Line(1) = {2, 1};
Line(2) = {1, 3};
Line(3) = {4, 3};
Line(4) = {2, 4};
Line(5) = {2, 5};
Line(6) = {5, 6};
Line(7) = {1, 6};
Line(8) = {3, 7};
Line(9) = {6, 7};
p10 = newp;
Point(p10 + 1) = {8.998024807145983, 1.29466475323604, 1};
Point(p10 + 2) = {8.968627511722476, 1.417113301104856, 1};
Point(p10 + 3) = {8.920436972706835, 1.533455553974485, 1};
Point(p10 + 4) = {8.854639801104856, 1.640826779461476, 1};
Point(p10 + 5) = {8.772856141649672, 1.736583141649673, 1};
Point(p10 + 6) = {8.677099779461477, 1.818366801104856, 1};
Point(p10 + 7) = {8.569728553974485, 1.884163972706834, 1};
Point(p10 + 8) = {8.453386301104857, 1.932354511722475, 1};
Point(p10 + 9) = {8.330937753236041, 1.961751807145982, 1};
Point(p10 + 10) = {8.205398000000001, 1.971632, 1};
Point(p10 + 11) = {8.07985824676396, 1.961751807145982, 1};
Point(p10 + 12) = {7.957409698895145, 1.932354511722475, 1};
Point(p10 + 13) = {7.841067446025516, 1.884163972706835, 1};
Point(p10 + 14) = {7.733696220538525, 1.818366801104856, 1};
Point(p10 + 15) = {7.637939858350328, 1.736583141649673, 1};
Point(p10 + 16) = {7.556156198895144, 1.640826779461476, 1};
Point(p10 + 17) = {7.490359027293167, 1.533455553974485, 1};
Point(p10 + 18) = {7.442168488277526, 1.417113301104856, 1};
Point(p10 + 19) = {7.412771192854018, 1.294664753236041, 1};
Point(p10 + 20) = {7.402891, 1.169125, 1};
Point(p10 + 21) = {7.412771192854018, 1.043585246763959, 1};
Point(p10 + 22) = {7.442168488277526, 0.9211366988951438, 1};
Point(p10 + 23) = {7.490359027293166, 0.8047944460255159, 1};
Point(p10 + 24) = {7.556156198895144, 0.6974232205385243, 1};
Point(p10 + 25) = {7.637939858350328, 0.6016668583503273, 1};
Point(p10 + 26) = {7.733696220538524, 0.5198831988951441, 1};
Point(p10 + 27) = {7.841067446025516, 0.4540860272931655, 1};
Point(p10 + 28) = {7.957409698895145, 0.4058954882775252, 1};
Point(p10 + 29) = {8.07985824676396, 0.3764981928540179, 1};
Point(p10 + 30) = {8.205398000000001, 0.366618, 1};
Point(p10 + 31) = {8.330937753236041, 0.3764981928540178, 1};
Point(p10 + 32) = {8.453386301104857, 0.4058954882775251, 1};
Point(p10 + 33) = {8.569728553974485, 0.4540860272931654, 1};
Point(p10 + 34) = {8.677099779461477, 0.519883198895144, 1};
Point(p10 + 35) = {8.772856141649672, 0.6016668583503272, 1};
Point(p10 + 36) = {8.854639801104856, 0.697423220538524, 1};
Point(p10 + 37) = {8.920436972706835, 0.8047944460255154, 1};
Point(p10 + 38) = {8.968627511722476, 0.9211366988951439, 1};
Point(p10 + 39) = {8.998024807145983, 1.043585246763959, 1};
Spline(10) = {8, p10 + 1, p10 + 2, p10 + 3, p10 + 4, p10 + 5, p10 + 6, p10 + 7, p10 + 8, p10 + 9, p10 + 10, p10 + 11, p10 + 12, p10 + 13, p10 + 14, p10 + 15, p10 + 16, p10 + 17, p10 + 18, p10 + 19, p10 + 20, p10 + 21, p10 + 22, p10 + 23, p10 + 24, p10 + 25, p10 + 26, p10 + 27, p10 + 28, p10 + 29, p10 + 30, p10 + 31, p10 + 32, p10 + 33, p10 + 34, p10 + 35, p10 + 36, p10 + 37, p10 + 38, p10 + 39, 8};
p11 = newp;
Point(p11 + 1) = {19.89065484205474, 2.510799877893027, 1};
Point(p11 + 2) = {19.8706717423172, 2.594035478635466, 1};
Point(p11 + 3) = {19.83791375102304, 2.67312026549392, 1};
Point(p11 + 4) = {19.79318747863547, 2.746106908548572, 1};
Point(p11 + 5) = {19.73759423441864, 2.811198234418636, 1};
Point(p11 + 6) = {19.67250290854857, 2.866791478635466, 1};
Point(p11 + 7) = {19.59951626549392, 2.911517751023045, 1};
Point(p11 + 8) = {19.52043147863547, 2.944275742317202, 1};
Point(p11 + 9) = {19.43719587789303, 2.964258842054735, 1};
Point(p11 + 10) = {19.351859, 2.970975, 1};
Point(p11 + 11) = {19.26652212210697, 2.964258842054735, 1};
Point(p11 + 12) = {19.18328652136454, 2.944275742317202, 1};
Point(p11 + 13) = {19.10420173450608, 2.911517751023045, 1};
Point(p11 + 14) = {19.03121509145143, 2.866791478635466, 1};
Point(p11 + 15) = {18.96612376558137, 2.811198234418636, 1};
Point(p11 + 16) = {18.91053052136454, 2.746106908548572, 1};
Point(p11 + 17) = {18.86580424897696, 2.67312026549392, 1};
Point(p11 + 18) = {18.8330462576828, 2.594035478635467, 1};
Point(p11 + 19) = {18.81306315794527, 2.510799877893027, 1};
Point(p11 + 20) = {18.806347, 2.425463, 1};
Point(p11 + 21) = {18.81306315794527, 2.340126122106974, 1};
Point(p11 + 22) = {18.8330462576828, 2.256890521364534, 1};
Point(p11 + 23) = {18.86580424897696, 2.177805734506081, 1};
Point(p11 + 24) = {18.91053052136454, 2.104819091451429, 1};
Point(p11 + 25) = {18.96612376558137, 2.039727765581364, 1};
Point(p11 + 26) = {19.03121509145143, 1.984134521364534, 1};
Point(p11 + 27) = {19.10420173450608, 1.939408248976955, 1};
Point(p11 + 28) = {19.18328652136454, 1.906650257682798, 1};
Point(p11 + 29) = {19.26652212210697, 1.886667157945265, 1};
Point(p11 + 30) = {19.351859, 1.879951, 1};
Point(p11 + 31) = {19.43719587789303, 1.886667157945265, 1};
Point(p11 + 32) = {19.52043147863547, 1.906650257682798, 1};
Point(p11 + 33) = {19.59951626549392, 1.939408248976955, 1};
Point(p11 + 34) = {19.67250290854857, 1.984134521364534, 1};
Point(p11 + 35) = {19.73759423441864, 2.039727765581364, 1};
Point(p11 + 36) = {19.79318747863547, 2.104819091451429, 1};
Point(p11 + 37) = {19.83791375102304, 2.17780573450608, 1};
Point(p11 + 38) = {19.8706717423172, 2.256890521364534, 1};
Point(p11 + 39) = {19.89065484205474, 2.340126122106974, 1};
Spline(11) = {9, p11 + 1, p11 + 2, p11 + 3, p11 + 4, p11 + 5, p11 + 6, p11 + 7, p11 + 8, p11 + 9, p11 + 10, p11 + 11, p11 + 12, p11 + 13, p11 + 14, p11 + 15, p11 + 16, p11 + 17, p11 + 18, p11 + 19, p11 + 20, p11 + 21, p11 + 22, p11 + 23, p11 + 24, p11 + 25, p11 + 26, p11 + 27, p11 + 28, p11 + 29, p11 + 30, p11 + 31, p11 + 32, p11 + 33, p11 + 34, p11 + 35, p11 + 36, p11 + 37, p11 + 38, p11 + 39, 9};
Line(12) = {4, 10};
Line(13) = {10, 7};
Line(14) = {5, 10};
p15 = newp;
Point(p15 + 1) = {8.998024807145983, 1.29466475323604, 0};
Point(p15 + 2) = {8.968627511722476, 1.417113301104856, 0};
Point(p15 + 3) = {8.920436972706835, 1.533455553974485, 0};
Point(p15 + 4) = {8.854639801104856, 1.640826779461476, 0};
Point(p15 + 5) = {8.772856141649672, 1.736583141649673, 0};
Point(p15 + 6) = {8.677099779461477, 1.818366801104856, 0};
Point(p15 + 7) = {8.569728553974485, 1.884163972706834, 0};
Point(p15 + 8) = {8.453386301104857, 1.932354511722475, 0};
Point(p15 + 9) = {8.330937753236041, 1.961751807145982, 0};
Point(p15 + 10) = {8.205398000000001, 1.971632, 0};
Point(p15 + 11) = {8.07985824676396, 1.961751807145982, 0};
Point(p15 + 12) = {7.957409698895145, 1.932354511722475, 0};
Point(p15 + 13) = {7.841067446025516, 1.884163972706835, 0};
Point(p15 + 14) = {7.733696220538525, 1.818366801104856, 0};
Point(p15 + 15) = {7.637939858350328, 1.736583141649673, 0};
Point(p15 + 16) = {7.556156198895144, 1.640826779461476, 0};
Point(p15 + 17) = {7.490359027293167, 1.533455553974485, 0};
Point(p15 + 18) = {7.442168488277526, 1.417113301104856, 0};
Point(p15 + 19) = {7.412771192854018, 1.294664753236041, 0};
Point(p15 + 20) = {7.402891, 1.169125, 0};
Point(p15 + 21) = {7.412771192854018, 1.043585246763959, 0};
Point(p15 + 22) = {7.442168488277526, 0.9211366988951438, 0};
Point(p15 + 23) = {7.490359027293166, 0.8047944460255159, 0};
Point(p15 + 24) = {7.556156198895144, 0.6974232205385243, 0};
Point(p15 + 25) = {7.637939858350328, 0.6016668583503273, 0};
Point(p15 + 26) = {7.733696220538524, 0.5198831988951441, 0};
Point(p15 + 27) = {7.841067446025516, 0.4540860272931655, 0};
Point(p15 + 28) = {7.957409698895145, 0.4058954882775252, 0};
Point(p15 + 29) = {8.07985824676396, 0.3764981928540179, 0};
Point(p15 + 30) = {8.205398000000001, 0.366618, 0};
Point(p15 + 31) = {8.330937753236041, 0.3764981928540178, 0};
Point(p15 + 32) = {8.453386301104857, 0.4058954882775251, 0};
Point(p15 + 33) = {8.569728553974485, 0.4540860272931654, 0};
Point(p15 + 34) = {8.677099779461477, 0.519883198895144, 0};
Point(p15 + 35) = {8.772856141649672, 0.6016668583503272, 0};
Point(p15 + 36) = {8.854639801104856, 0.697423220538524, 0};
Point(p15 + 37) = {8.920436972706835, 0.8047944460255154, 0};
Point(p15 + 38) = {8.968627511722476, 0.9211366988951439, 0};
Point(p15 + 39) = {8.998024807145983, 1.043585246763959, 0};
Spline(15) = {11, p15 + 1, p15 + 2, p15 + 3, p15 + 4, p15 + 5, p15 + 6, p15 + 7, p15 + 8, p15 + 9, p15 + 10, p15 + 11, p15 + 12, p15 + 13, p15 + 14, p15 + 15, p15 + 16, p15 + 17, p15 + 18, p15 + 19, p15 + 20, p15 + 21, p15 + 22, p15 + 23, p15 + 24, p15 + 25, p15 + 26, p15 + 27, p15 + 28, p15 + 29, p15 + 30, p15 + 31, p15 + 32, p15 + 33, p15 + 34, p15 + 35, p15 + 36, p15 + 37, p15 + 38, p15 + 39, 11};
p16 = newp;
Point(p16 + 1) = {19.89065484205474, 2.510799877893027, 0};
Point(p16 + 2) = {19.8706717423172, 2.594035478635466, 0};
Point(p16 + 3) = {19.83791375102304, 2.67312026549392, 0};
Point(p16 + 4) = {19.79318747863547, 2.746106908548572, 0};
Point(p16 + 5) = {19.73759423441864, 2.811198234418636, 0};
Point(p16 + 6) = {19.67250290854857, 2.866791478635466, 0};
Point(p16 + 7) = {19.59951626549392, 2.911517751023045, 0};
Point(p16 + 8) = {19.52043147863547, 2.944275742317202, 0};
Point(p16 + 9) = {19.43719587789303, 2.964258842054735, 0};
Point(p16 + 10) = {19.351859, 2.970975, 0};
Point(p16 + 11) = {19.26652212210697, 2.964258842054735, 0};
Point(p16 + 12) = {19.18328652136454, 2.944275742317202, 0};
Point(p16 + 13) = {19.10420173450608, 2.911517751023045, 0};
Point(p16 + 14) = {19.03121509145143, 2.866791478635466, 0};
Point(p16 + 15) = {18.96612376558137, 2.811198234418636, 0};
Point(p16 + 16) = {18.91053052136454, 2.746106908548572, 0};
Point(p16 + 17) = {18.86580424897696, 2.67312026549392, 0};
Point(p16 + 18) = {18.8330462576828, 2.594035478635467, 0};
Point(p16 + 19) = {18.81306315794527, 2.510799877893027, 0};
Point(p16 + 20) = {18.806347, 2.425463, 0};
Point(p16 + 21) = {18.81306315794527, 2.340126122106974, 0};
Point(p16 + 22) = {18.8330462576828, 2.256890521364534, 0};
Point(p16 + 23) = {18.86580424897696, 2.177805734506081, 0};
Point(p16 + 24) = {18.91053052136454, 2.104819091451429, 0};
Point(p16 + 25) = {18.96612376558137, 2.039727765581364, 0};
Point(p16 + 26) = {19.03121509145143, 1.984134521364534, 0};
Point(p16 + 27) = {19.10420173450608, 1.939408248976955, 0};
Point(p16 + 28) = {19.18328652136454, 1.906650257682798, 0};
Point(p16 + 29) = {19.26652212210697, 1.886667157945265, 0};
Point(p16 + 30) = {19.351859, 1.879951, 0};
Point(p16 + 31) = {19.43719587789303, 1.886667157945265, 0};
Point(p16 + 32) = {19.52043147863547, 1.906650257682798, 0};
Point(p16 + 33) = {19.59951626549392, 1.939408248976955, 0};
Point(p16 + 34) = {19.67250290854857, 1.984134521364534, 0};
Point(p16 + 35) = {19.73759423441864, 2.039727765581364, 0};
Point(p16 + 36) = {19.79318747863547, 2.104819091451429, 0};
Point(p16 + 37) = {19.83791375102304, 2.17780573450608, 0};
Point(p16 + 38) = {19.8706717423172, 2.256890521364534, 0};
Point(p16 + 39) = {19.89065484205474, 2.340126122106974, 0};
Spline(16) = {12, p16 + 1, p16 + 2, p16 + 3, p16 + 4, p16 + 5, p16 + 6, p16 + 7, p16 + 8, p16 + 9, p16 + 10, p16 + 11, p16 + 12, p16 + 13, p16 + 14, p16 + 15, p16 + 16, p16 + 17, p16 + 18, p16 + 19, p16 + 20, p16 + 21, p16 + 22, p16 + 23, p16 + 24, p16 + 25, p16 + 26, p16 + 27, p16 + 28, p16 + 29, p16 + 30, p16 + 31, p16 + 32, p16 + 33, p16 + 34, p16 + 35, p16 + 36, p16 + 37, p16 + 38, p16 + 39, 12};
Line(17) = {11, 8};
Line(18) = {12, 9};
Curve Loop(1) = {-1, 4, 3, -2};
Plane Surface(1) = {1};
Curve Loop(2) = {-5, 1, 7, -6};
Plane Surface(2) = {2};
Curve Loop(3) = {-2, 7, 9, -8, -10, -11};
Plane Surface(3) = {3};
Curve Loop(4) = {-12, 3, 8, -13};
Plane Surface(4) = {4};
Curve Loop(5) = {-4, 5, 14, -12, -15, -16};
Plane Surface(5) = {5};
Curve Loop(6) = {-6, 14, 13, -9};
Plane Surface(6) = {6};
Curve Loop(7) = {-10, -17, 15, 17};
Surface(7) = {7};
Curve Loop(8) = {-11, -18, 16, 18};
Surface(8) = {8};
Surface Loop(1) = {1, 2, 3, 4, 5, 6, 7, 8};
Volume(1) = {1};
Physical Surface("INFLOW") = {1};
Physical Surface("OUTFLOW") = {6};
Physical Surface("OBSTACLE") = {7, 8};
Physical Surface("WALL_Y") = {2, 4};
Physical Surface("WALL_Z") = {3, 5};
Physical Volume("FLUID") = {1};
