cl__1 = 0.678958;
cl__2 = 1.709474;
cl__3 = 0.851287;
cl__4 = 2.068083;
cl__5 = 0.138342;
cl__6 = 0.05427;
Point(1) = {0.644685, -4.18361, 1, cl__1};
Point(2) = {0.644685, -4.18361, 0, cl__1};
Point(3) = {0.644685, 5.348258, 1, cl__2};
Point(4) = {0.644685, 5.348258, 0, cl__2};
Point(5) = {32.588207, -4.18361, 0, cl__3};
Point(6) = {32.588207, -4.18361, 1, cl__3};
Point(7) = {32.588207, 5.348258, 1, cl__4};
Point(8) = {7.482343, -2.098397, 1, cl__5};
Point(9) = {27.569926, -1.605644, 1, cl__6};
Point(10) = {32.588207, 5.348258, 0, cl__4};
Point(11) = {7.482343, -2.098397, 0, cl__5};
Point(12) = {27.569926, -1.605644, 0, cl__6};
Line(1) = {2, 1};
Line(2) = {1, 3};
Line(3) = {4, 3};
Line(4) = {2, 4};
Line(5) = {2, 5};
Line(6) = {5, 6};
Line(7) = {1, 6};
Line(8) = {3, 7};
Line(9) = {6, 7};
p10 = newp;
Point(p10 + 1) = {7.465310754899488, -1.881981806636184, 1};
Point(p10 + 2) = {7.414633409999107, -1.670895473573833, 1};
Point(p10 + 3) = {7.33155880971877, -1.470335646888317, 1};
Point(p10 + 4) = {7.218132526426167, -1.285240775132538, 1};
Point(p10 + 5) = {7.077147491656219, -1.120168508343782, 1};
Point(p10 + 6) = {6.912075224867463, -0.9791834735738325, 1};
Point(p10 + 7) = {6.726980353111683, -0.8657571902812313, 1};
Point(p10 + 8) = {6.526420526426167, -0.7826825900008934, 1};
Point(p10 + 9) = {6.315334193363817, -0.7320052451005119, 1};
Point(p10 + 10) = {6.098919, -0.7149729999999999, 1};
Point(p10 + 11) = {5.882503806636183, -0.7320052451005121, 1};
Point(p10 + 12) = {5.671417473573833, -0.7826825900008931, 1};
Point(p10 + 13) = {5.470857646888318, -0.8657571902812311, 1};
Point(p10 + 14) = {5.285762775132538, -0.9791834735738325, 1};
Point(p10 + 15) = {5.120690508343782, -1.120168508343781, 1};
Point(p10 + 16) = {4.979705473573834, -1.285240775132537, 1};
Point(p10 + 17) = {4.866279190281232, -1.470335646888317, 1};
Point(p10 + 18) = {4.783204590000894, -1.670895473573832, 1};
Point(p10 + 19) = {4.732527245100512, -1.881981806636183, 1};
Point(p10 + 20) = {4.715495000000001, -2.098397, 1};
Point(p10 + 21) = {4.732527245100512, -2.314812193363816, 1};
Point(p10 + 22) = {4.783204590000894, -2.525898526426167, 1};
Point(p10 + 23) = {4.866279190281231, -2.726458353111682, 1};
Point(p10 + 24) = {4.979705473573834, -2.911553224867462, 1};
Point(p10 + 25) = {5.120690508343782, -3.076625491656218, 1};
Point(p10 + 26) = {5.285762775132538, -3.217610526426167, 1};
Point(p10 + 27) = {5.470857646888318, -3.331036809718769, 1};
Point(p10 + 28) = {5.671417473573833, -3.414111409999106, 1};
Point(p10 + 29) = {5.882503806636183, -3.464788754899487, 1};
Point(p10 + 30) = {6.098919, -3.481821, 1};
Point(p10 + 31) = {6.315334193363817, -3.464788754899488, 1};
Point(p10 + 32) = {6.526420526426167, -3.414111409999107, 1};
Point(p10 + 33) = {6.726980353111683, -3.331036809718769, 1};
Point(p10 + 34) = {6.912075224867462, -3.217610526426167, 1};
Point(p10 + 35) = {7.077147491656218, -3.076625491656218, 1};
Point(p10 + 36) = {7.218132526426167, -2.911553224867462, 1};
Point(p10 + 37) = {7.331558809718769, -2.726458353111683, 1};
Point(p10 + 38) = {7.414633409999107, -2.525898526426167, 1};
Point(p10 + 39) = {7.465310754899488, -2.314812193363816, 1};
Spline(10) = {8, p10 + 1, p10 + 2, p10 + 3, p10 + 4, p10 + 5, p10 + 6, p10 + 7, p10 + 8, p10 + 9, p10 + 10, p10 + 11, p10 + 12, p10 + 13, p10 + 14, p10 + 15, p10 + 16, p10 + 17, p10 + 18, p10 + 19, p10 + 20, p10 + 21, p10 + 22, p10 + 23, p10 + 24, p10 + 25, p10 + 26, p10 + 27, p10 + 28, p10 + 29, p10 + 30, p10 + 31, p10 + 32, p10 + 33, p10 + 34, p10 + 35, p10 + 36, p10 + 37, p10 + 38, p10 + 39, 8};
p11 = newp;
Point(p11 + 1) = {27.56324451168762, -1.520747641560527, 1};
Point(p11 + 2) = {27.54336456716731, -1.437941713220694, 1};
Point(p11 + 3) = {27.51077567665093, -1.359265171753347, 1};
Point(p11 + 4) = {27.46628028677931, -1.286655294721884, 1};
Point(p11 + 5) = {27.41097402172282, -1.221899978277186, 1};
Point(p11 + 6) = {27.34621870527812, -1.166593713220694, 1};
Point(p11 + 7) = {27.27360882824665, -1.12209832334907, 1};
Point(p11 + 8) = {27.19493228677931, -1.089509432832685, 1};
Point(p11 + 9) = {27.11212635843947, -1.069629488312381, 1};
Point(p11 + 10) = {27.02723, -1.062948, 1};
Point(p11 + 11) = {26.94233364156053, -1.069629488312381, 1};
Point(p11 + 12) = {26.85952771322069, -1.089509432832685, 1};
Point(p11 + 13) = {26.78085117175335, -1.12209832334907, 1};
Point(p11 + 14) = {26.70824129472188, -1.166593713220694, 1};
Point(p11 + 15) = {26.64348597827718, -1.221899978277186, 1};
Point(p11 + 16) = {26.58817971322069, -1.286655294721884, 1};
Point(p11 + 17) = {26.54368432334907, -1.359265171753347, 1};
Point(p11 + 18) = {26.51109543283269, -1.437941713220694, 1};
Point(p11 + 19) = {26.49121548831238, -1.520747641560527, 1};
Point(p11 + 20) = {26.484534, -1.605644, 1};
Point(p11 + 21) = {26.49121548831238, -1.690540358439473, 1};
Point(p11 + 22) = {26.51109543283269, -1.773346286779307, 1};
Point(p11 + 23) = {26.54368432334907, -1.852022828246653, 1};
Point(p11 + 24) = {26.58817971322069, -1.924632705278116, 1};
Point(p11 + 25) = {26.64348597827718, -1.989388021722815, 1};
Point(p11 + 26) = {26.70824129472188, -2.044694286779306, 1};
Point(p11 + 27) = {26.78085117175335, -2.089189676650931, 1};
Point(p11 + 28) = {26.85952771322069, -2.121778567167315, 1};
Point(p11 + 29) = {26.94233364156053, -2.141658511687619, 1};
Point(p11 + 30) = {27.02723, -2.14834, 1};
Point(p11 + 31) = {27.11212635843947, -2.141658511687619, 1};
Point(p11 + 32) = {27.19493228677931, -2.121778567167315, 1};
Point(p11 + 33) = {27.27360882824665, -2.089189676650931, 1};
Point(p11 + 34) = {27.34621870527812, -2.044694286779307, 1};
Point(p11 + 35) = {27.41097402172282, -1.989388021722815, 1};
Point(p11 + 36) = {27.46628028677931, -1.924632705278116, 1};
Point(p11 + 37) = {27.51077567665093, -1.852022828246653, 1};
Point(p11 + 38) = {27.54336456716731, -1.773346286779307, 1};
Point(p11 + 39) = {27.56324451168762, -1.690540358439473, 1};
Spline(11) = {9, p11 + 1, p11 + 2, p11 + 3, p11 + 4, p11 + 5, p11 + 6, p11 + 7, p11 + 8, p11 + 9, p11 + 10, p11 + 11, p11 + 12, p11 + 13, p11 + 14, p11 + 15, p11 + 16, p11 + 17, p11 + 18, p11 + 19, p11 + 20, p11 + 21, p11 + 22, p11 + 23, p11 + 24, p11 + 25, p11 + 26, p11 + 27, p11 + 28, p11 + 29, p11 + 30, p11 + 31, p11 + 32, p11 + 33, p11 + 34, p11 + 35, p11 + 36, p11 + 37, p11 + 38, p11 + 39, 9};
Line(12) = {4, 10};
Line(13) = {10, 7};
Line(14) = {5, 10};
p15 = newp;
Point(p15 + 1) = {7.465310754899488, -1.881981806636184, 0};
Point(p15 + 2) = {7.414633409999107, -1.670895473573833, 0};
Point(p15 + 3) = {7.33155880971877, -1.470335646888317, 0};
Point(p15 + 4) = {7.218132526426167, -1.285240775132538, 0};
Point(p15 + 5) = {7.077147491656219, -1.120168508343782, 0};
Point(p15 + 6) = {6.912075224867463, -0.9791834735738325, 0};
Point(p15 + 7) = {6.726980353111683, -0.8657571902812313, 0};
Point(p15 + 8) = {6.526420526426167, -0.7826825900008934, 0};
Point(p15 + 9) = {6.315334193363817, -0.7320052451005119, 0};
Point(p15 + 10) = {6.098919, -0.7149729999999999, 0};
Point(p15 + 11) = {5.882503806636183, -0.7320052451005121, 0};
Point(p15 + 12) = {5.671417473573833, -0.7826825900008931, 0};
Point(p15 + 13) = {5.470857646888318, -0.8657571902812311, 0};
Point(p15 + 14) = {5.285762775132538, -0.9791834735738325, 0};
Point(p15 + 15) = {5.120690508343782, -1.120168508343781, 0};
Point(p15 + 16) = {4.979705473573834, -1.285240775132537, 0};
Point(p15 + 17) = {4.866279190281232, -1.470335646888317, 0};
Point(p15 + 18) = {4.783204590000894, -1.670895473573832, 0};
Point(p15 + 19) = {4.732527245100512, -1.881981806636183, 0};
Point(p15 + 20) = {4.715495000000001, -2.098397, 0};
Point(p15 + 21) = {4.732527245100512, -2.314812193363816, 0};
Point(p15 + 22) = {4.783204590000894, -2.525898526426167, 0};
Point(p15 + 23) = {4.866279190281231, -2.726458353111682, 0};
Point(p15 + 24) = {4.979705473573834, -2.911553224867462, 0};
Point(p15 + 25) = {5.120690508343782, -3.076625491656218, 0};
Point(p15 + 26) = {5.285762775132538, -3.217610526426167, 0};
Point(p15 + 27) = {5.470857646888318, -3.331036809718769, 0};
Point(p15 + 28) = {5.671417473573833, -3.414111409999106, 0};
Point(p15 + 29) = {5.882503806636183, -3.464788754899487, 0};
Point(p15 + 30) = {6.098919, -3.481821, 0};
Point(p15 + 31) = {6.315334193363817, -3.464788754899488, 0};
Point(p15 + 32) = {6.526420526426167, -3.414111409999107, 0};
Point(p15 + 33) = {6.726980353111683, -3.331036809718769, 0};
Point(p15 + 34) = {6.912075224867462, -3.217610526426167, 0};
Point(p15 + 35) = {7.077147491656218, -3.076625491656218, 0};
Point(p15 + 36) = {7.218132526426167, -2.911553224867462, 0};
Point(p15 + 37) = {7.331558809718769, -2.726458353111683, 0};
Point(p15 + 38) = {7.414633409999107, -2.525898526426167, 0};
Point(p15 + 39) = {7.465310754899488, -2.314812193363816, 0};
Spline(15) = {11, p15 + 1, p15 + 2, p15 + 3, p15 + 4, p15 + 5, p15 + 6, p15 + 7, p15 + 8, p15 + 9, p15 + 10, p15 + 11, p15 + 12, p15 + 13, p15 + 14, p15 + 15, p15 + 16, p15 + 17, p15 + 18, p15 + 19, p15 + 20, p15 + 21, p15 + 22, p15 + 23, p15 + 24, p15 + 25, p15 + 26, p15 + 27, p15 + 28, p15 + 29, p15 + 30, p15 + 31, p15 + 32, p15 + 33, p15 + 34, p15 + 35, p15 + 36, p15 + 37, p15 + 38, p15 + 39, 11};
p16 = newp;
Point(p16 + 1) = {27.56324451168762, -1.520747641560527, 0};
Point(p16 + 2) = {27.54336456716731, -1.437941713220694, 0};
Point(p16 + 3) = {27.51077567665093, -1.359265171753347, 0};
Point(p16 + 4) = {27.46628028677931, -1.286655294721884, 0};
Point(p16 + 5) = {27.41097402172282, -1.221899978277186, 0};
Point(p16 + 6) = {27.34621870527812, -1.166593713220694, 0};
Point(p16 + 7) = {27.27360882824665, -1.12209832334907, 0};
Point(p16 + 8) = {27.19493228677931, -1.089509432832685, 0};
Point(p16 + 9) = {27.11212635843947, -1.069629488312381, 0};
Point(p16 + 10) = {27.02723, -1.062948, 0};
Point(p16 + 11) = {26.94233364156053, -1.069629488312381, 0};
Point(p16 + 12) = {26.85952771322069, -1.089509432832685, 0};
Point(p16 + 13) = {26.78085117175335, -1.12209832334907, 0};
Point(p16 + 14) = {26.70824129472188, -1.166593713220694, 0};
Point(p16 + 15) = {26.64348597827718, -1.221899978277186, 0};
Point(p16 + 16) = {26.58817971322069, -1.286655294721884, 0};
Point(p16 + 17) = {26.54368432334907, -1.359265171753347, 0};
Point(p16 + 18) = {26.51109543283269, -1.437941713220694, 0};
Point(p16 + 19) = {26.49121548831238, -1.520747641560527, 0};
Point(p16 + 20) = {26.484534, -1.605644, 0};
Point(p16 + 21) = {26.49121548831238, -1.690540358439473, 0};
Point(p16 + 22) = {26.51109543283269, -1.773346286779307, 0};
Point(p16 + 23) = {26.54368432334907, -1.852022828246653, 0};
Point(p16 + 24) = {26.58817971322069, -1.924632705278116, 0};
Point(p16 + 25) = {26.64348597827718, -1.989388021722815, 0};
Point(p16 + 26) = {26.70824129472188, -2.044694286779306, 0};
Point(p16 + 27) = {26.78085117175335, -2.089189676650931, 0};
Point(p16 + 28) = {26.85952771322069, -2.121778567167315, 0};
Point(p16 + 29) = {26.94233364156053, -2.141658511687619, 0};
Point(p16 + 30) = {27.02723, -2.14834, 0};
Point(p16 + 31) = {27.11212635843947, -2.141658511687619, 0};
Point(p16 + 32) = {27.19493228677931, -2.121778567167315, 0};
Point(p16 + 33) = {27.27360882824665, -2.089189676650931, 0};
Point(p16 + 34) = {27.34621870527812, -2.044694286779307, 0};
Point(p16 + 35) = {27.41097402172282, -1.989388021722815, 0};
Point(p16 + 36) = {27.46628028677931, -1.924632705278116, 0};
Point(p16 + 37) = {27.51077567665093, -1.852022828246653, 0};
Point(p16 + 38) = {27.54336456716731, -1.773346286779307, 0};
Point(p16 + 39) = {27.56324451168762, -1.690540358439473, 0};
Spline(16) = {12, p16 + 1, p16 + 2, p16 + 3, p16 + 4, p16 + 5, p16 + 6, p16 + 7, p16 + 8, p16 + 9, p16 + 10, p16 + 11, p16 + 12, p16 + 13, p16 + 14, p16 + 15, p16 + 16, p16 + 17, p16 + 18, p16 + 19, p16 + 20, p16 + 21, p16 + 22, p16 + 23, p16 + 24, p16 + 25, p16 + 26, p16 + 27, p16 + 28, p16 + 29, p16 + 30, p16 + 31, p16 + 32, p16 + 33, p16 + 34, p16 + 35, p16 + 36, p16 + 37, p16 + 38, p16 + 39, 12};
Line(17) = {11, 8};
Line(18) = {12, 9};
Curve Loop(1) = {-1, 4, 3, -2};
Plane Surface(1) = {1};
Curve Loop(2) = {-5, 1, 7, -6};
Plane Surface(2) = {2};
Curve Loop(3) = {-2, 7, 9, -8, -10, -11};
Plane Surface(3) = {3};
Curve Loop(4) = {-12, 3, 8, -13};
Plane Surface(4) = {4};
Curve Loop(5) = {-4, 5, 14, -12, -15, -16};
Plane Surface(5) = {5};
Curve Loop(6) = {-6, 14, 13, -9};
Plane Surface(6) = {6};
Curve Loop(7) = {-10, -17, 15, 17};
Surface(7) = {7};
Curve Loop(8) = {-11, -18, 16, 18};
Surface(8) = {8};
Surface Loop(1) = {1, 2, 3, 4, 5, 6, 7, 8};
Volume(1) = {1};
Physical Surface("INFLOW") = {1};
Physical Surface("OUTFLOW") = {6};
Physical Surface("OBSTACLE") = {7, 8};
Physical Surface("WALL_Y") = {2, 4};
Physical Surface("WALL_Z") = {3, 5};
Physical Volume("FLUID") = {1};
