cl__1 = 3.041535;
cl__2 = 1.503841;
cl__3 = 0.972367;
cl__4 = 1.151414;
cl__5 = 0.056997;
cl__6 = 0.124195;
Point(1) = {0.254723, -4.198184, 1, cl__1};
Point(2) = {0.254723, -4.198184, 0, cl__1};
Point(3) = {0.254723, 5.615754, 1, cl__2};
Point(4) = {0.254723, 5.615754, 0, cl__2};
Point(5) = {30.016913, -4.198184, 0, cl__3};
Point(6) = {30.016913, -4.198184, 1, cl__3};
Point(7) = {30.016913, 5.615754, 1, cl__4};
Point(8) = {20.700171, -1.332522, 1, cl__5};
Point(9) = {17.404617, 2.153471999999999, 1, cl__6};
Point(10) = {30.016913, 5.615754, 0, cl__4};
Point(11) = {20.700171, -1.332522, 0, cl__5};
Point(12) = {17.404617, 2.153471999999999, 0, cl__6};
Line(1) = {2, 1};
Line(2) = {1, 3};
Line(3) = {4, 3};
Line(4) = {2, 4};
Line(5) = {2, 5};
Line(6) = {5, 6};
Line(7) = {1, 6};
Line(8) = {3, 7};
Line(9) = {6, 7};
p10 = newp;
Point(p10 + 1) = {20.69315367424237, -1.24335842222316, 1};
Point(p10 + 2) = {20.67227448681881, -1.156390347648134, 1};
Point(p10 + 3) = {20.63804755261774, -1.073759218901452, 1};
Point(p10 + 4) = {20.59131565235187, -0.9974996886098499, 1};
Point(p10 + 5) = {20.53322948050002, -0.9294895194999788, 1};
Point(p10 + 6) = {20.46521931139015, -0.8714033476481338, 1};
Point(p10 + 7) = {20.38895978109855, -0.8246714473822593, 1};
Point(p10 + 8) = {20.30632865235187, -0.7904445131811861, 1};
Point(p10 + 9) = {20.21936057777684, -0.7695653257576269, 1};
Point(p10 + 10) = {20.130197, -0.762548, 1};
Point(p10 + 11) = {20.04103342222316, -0.769565325757627, 1};
Point(p10 + 12) = {19.95406534764813, -0.7904445131811861, 1};
Point(p10 + 13) = {19.87143421890145, -0.8246714473822592, 1};
Point(p10 + 14) = {19.79517468860985, -0.8714033476481338, 1};
Point(p10 + 15) = {19.72716451949998, -0.9294895194999787, 1};
Point(p10 + 16) = {19.66907834764813, -0.9974996886098498, 1};
Point(p10 + 17) = {19.62234644738226, -1.073759218901452, 1};
Point(p10 + 18) = {19.58811951318118, -1.156390347648134, 1};
Point(p10 + 19) = {19.56724032575763, -1.243358422223159, 1};
Point(p10 + 20) = {19.560223, -1.332522, 1};
Point(p10 + 21) = {19.56724032575763, -1.42168557777684, 1};
Point(p10 + 22) = {19.58811951318118, -1.508653652351867, 1};
Point(p10 + 23) = {19.62234644738226, -1.591284781098548, 1};
Point(p10 + 24) = {19.66907834764813, -1.66754431139015, 1};
Point(p10 + 25) = {19.72716451949998, -1.735554480500021, 1};
Point(p10 + 26) = {19.79517468860985, -1.793640652351866, 1};
Point(p10 + 27) = {19.87143421890145, -1.840372552617741, 1};
Point(p10 + 28) = {19.95406534764813, -1.874599486818814, 1};
Point(p10 + 29) = {20.04103342222316, -1.895478674242373, 1};
Point(p10 + 30) = {20.130197, -1.902496, 1};
Point(p10 + 31) = {20.21936057777684, -1.895478674242373, 1};
Point(p10 + 32) = {20.30632865235187, -1.874599486818814, 1};
Point(p10 + 33) = {20.38895978109855, -1.840372552617741, 1};
Point(p10 + 34) = {20.46521931139015, -1.793640652351866, 1};
Point(p10 + 35) = {20.53322948050002, -1.735554480500021, 1};
Point(p10 + 36) = {20.59131565235187, -1.66754431139015, 1};
Point(p10 + 37) = {20.63804755261774, -1.591284781098548, 1};
Point(p10 + 38) = {20.67227448681881, -1.508653652351866, 1};
Point(p10 + 39) = {20.69315367424237, -1.421685577776841, 1};
Spline(10) = {8, p10 + 1, p10 + 2, p10 + 3, p10 + 4, p10 + 5, p10 + 6, p10 + 7, p10 + 8, p10 + 9, p10 + 10, p10 + 11, p10 + 12, p10 + 13, p10 + 14, p10 + 15, p10 + 16, p10 + 17, p10 + 18, p10 + 19, p10 + 20, p10 + 21, p10 + 22, p10 + 23, p10 + 24, p10 + 25, p10 + 26, p10 + 27, p10 + 28, p10 + 29, p10 + 30, p10 + 31, p10 + 32, p10 + 33, p10 + 34, p10 + 35, p10 + 36, p10 + 37, p10 + 38, p10 + 39, 8};
p11 = newp;
Point(p11 + 1) = {17.38932653460213, 2.347755783856714, 1};
Point(p11 + 2) = {17.34383164041277, 2.537255656163966, 1};
Point(p11 + 3) = {17.26925255271574, 2.71730550115153, 1};
Point(p11 + 4) = {17.16742565616396, 2.883471894084637, 1};
Point(p11 + 5) = {17.04085826689463, 3.031663266894633, 1};
Point(p11 + 6) = {16.89266689408464, 3.158230656163966, 1};
Point(p11 + 7) = {16.72650050115153, 3.260057552715743, 1};
Point(p11 + 8) = {16.54645065616397, 3.334636640412766, 1};
Point(p11 + 9) = {16.35695078385671, 3.380131534602131, 1};
Point(p11 + 10) = {16.162667, 3.395422, 1};
Point(p11 + 11) = {15.96838321614328, 3.380131534602131, 1};
Point(p11 + 12) = {15.77888334383603, 3.334636640412766, 1};
Point(p11 + 13) = {15.59883349884847, 3.260057552715743, 1};
Point(p11 + 14) = {15.43266710591536, 3.158230656163966, 1};
Point(p11 + 15) = {15.28447573310537, 3.031663266894633, 1};
Point(p11 + 16) = {15.15790834383603, 2.883471894084637, 1};
Point(p11 + 17) = {15.05608144728425, 2.71730550115153, 1};
Point(p11 + 18) = {14.98150235958723, 2.537255656163966, 1};
Point(p11 + 19) = {14.93600746539787, 2.347755783856715, 1};
Point(p11 + 20) = {14.920717, 2.153472, 1};
Point(p11 + 21) = {14.93600746539787, 1.959188216143285, 1};
Point(p11 + 22) = {14.98150235958723, 1.769688343836033, 1};
Point(p11 + 23) = {15.05608144728425, 1.58963849884847, 1};
Point(p11 + 24) = {15.15790834383603, 1.423472105915363, 1};
Point(p11 + 25) = {15.28447573310537, 1.275280733105367, 1};
Point(p11 + 26) = {15.43266710591536, 1.148713343836034, 1};
Point(p11 + 27) = {15.59883349884847, 1.046886447284256, 1};
Point(p11 + 28) = {15.77888334383603, 0.9723073595872338, 1};
Point(p11 + 29) = {15.96838321614328, 0.9268124653978684, 1};
Point(p11 + 30) = {16.162667, 0.9115219999999997, 1};
Point(p11 + 31) = {16.35695078385671, 0.9268124653978684, 1};
Point(p11 + 32) = {16.54645065616397, 0.9723073595872336, 1};
Point(p11 + 33) = {16.72650050115153, 1.046886447284256, 1};
Point(p11 + 34) = {16.89266689408463, 1.148713343836034, 1};
Point(p11 + 35) = {17.04085826689463, 1.275280733105367, 1};
Point(p11 + 36) = {17.16742565616396, 1.423472105915363, 1};
Point(p11 + 37) = {17.26925255271574, 1.58963849884847, 1};
Point(p11 + 38) = {17.34383164041277, 1.769688343836034, 1};
Point(p11 + 39) = {17.38932653460213, 1.959188216143285, 1};
Spline(11) = {9, p11 + 1, p11 + 2, p11 + 3, p11 + 4, p11 + 5, p11 + 6, p11 + 7, p11 + 8, p11 + 9, p11 + 10, p11 + 11, p11 + 12, p11 + 13, p11 + 14, p11 + 15, p11 + 16, p11 + 17, p11 + 18, p11 + 19, p11 + 20, p11 + 21, p11 + 22, p11 + 23, p11 + 24, p11 + 25, p11 + 26, p11 + 27, p11 + 28, p11 + 29, p11 + 30, p11 + 31, p11 + 32, p11 + 33, p11 + 34, p11 + 35, p11 + 36, p11 + 37, p11 + 38, p11 + 39, 9};
Line(12) = {4, 10};
Line(13) = {10, 7};
Line(14) = {5, 10};
p15 = newp;
Point(p15 + 1) = {20.69315367424237, -1.24335842222316, 0};
Point(p15 + 2) = {20.67227448681881, -1.156390347648134, 0};
Point(p15 + 3) = {20.63804755261774, -1.073759218901452, 0};
Point(p15 + 4) = {20.59131565235187, -0.9974996886098499, 0};
Point(p15 + 5) = {20.53322948050002, -0.9294895194999788, 0};
Point(p15 + 6) = {20.46521931139015, -0.8714033476481338, 0};
Point(p15 + 7) = {20.38895978109855, -0.8246714473822593, 0};
Point(p15 + 8) = {20.30632865235187, -0.7904445131811861, 0};
Point(p15 + 9) = {20.21936057777684, -0.7695653257576269, 0};
Point(p15 + 10) = {20.130197, -0.762548, 0};
Point(p15 + 11) = {20.04103342222316, -0.769565325757627, 0};
Point(p15 + 12) = {19.95406534764813, -0.7904445131811861, 0};
Point(p15 + 13) = {19.87143421890145, -0.8246714473822592, 0};
Point(p15 + 14) = {19.79517468860985, -0.8714033476481338, 0};
Point(p15 + 15) = {19.72716451949998, -0.9294895194999787, 0};
Point(p15 + 16) = {19.66907834764813, -0.9974996886098498, 0};
Point(p15 + 17) = {19.62234644738226, -1.073759218901452, 0};
Point(p15 + 18) = {19.58811951318118, -1.156390347648134, 0};
Point(p15 + 19) = {19.56724032575763, -1.243358422223159, 0};
Point(p15 + 20) = {19.560223, -1.332522, 0};
Point(p15 + 21) = {19.56724032575763, -1.42168557777684, 0};
Point(p15 + 22) = {19.58811951318118, -1.508653652351867, 0};
Point(p15 + 23) = {19.62234644738226, -1.591284781098548, 0};
Point(p15 + 24) = {19.66907834764813, -1.66754431139015, 0};
Point(p15 + 25) = {19.72716451949998, -1.735554480500021, 0};
Point(p15 + 26) = {19.79517468860985, -1.793640652351866, 0};
Point(p15 + 27) = {19.87143421890145, -1.840372552617741, 0};
Point(p15 + 28) = {19.95406534764813, -1.874599486818814, 0};
Point(p15 + 29) = {20.04103342222316, -1.895478674242373, 0};
Point(p15 + 30) = {20.130197, -1.902496, 0};
Point(p15 + 31) = {20.21936057777684, -1.895478674242373, 0};
Point(p15 + 32) = {20.30632865235187, -1.874599486818814, 0};
Point(p15 + 33) = {20.38895978109855, -1.840372552617741, 0};
Point(p15 + 34) = {20.46521931139015, -1.793640652351866, 0};
Point(p15 + 35) = {20.53322948050002, -1.735554480500021, 0};
Point(p15 + 36) = {20.59131565235187, -1.66754431139015, 0};
Point(p15 + 37) = {20.63804755261774, -1.591284781098548, 0};
Point(p15 + 38) = {20.67227448681881, -1.508653652351866, 0};
Point(p15 + 39) = {20.69315367424237, -1.421685577776841, 0};
Spline(15) = {11, p15 + 1, p15 + 2, p15 + 3, p15 + 4, p15 + 5, p15 + 6, p15 + 7, p15 + 8, p15 + 9, p15 + 10, p15 + 11, p15 + 12, p15 + 13, p15 + 14, p15 + 15, p15 + 16, p15 + 17, p15 + 18, p15 + 19, p15 + 20, p15 + 21, p15 + 22, p15 + 23, p15 + 24, p15 + 25, p15 + 26, p15 + 27, p15 + 28, p15 + 29, p15 + 30, p15 + 31, p15 + 32, p15 + 33, p15 + 34, p15 + 35, p15 + 36, p15 + 37, p15 + 38, p15 + 39, 11};
p16 = newp;
Point(p16 + 1) = {17.38932653460213, 2.347755783856714, 0};
Point(p16 + 2) = {17.34383164041277, 2.537255656163966, 0};
Point(p16 + 3) = {17.26925255271574, 2.71730550115153, 0};
Point(p16 + 4) = {17.16742565616396, 2.883471894084637, 0};
Point(p16 + 5) = {17.04085826689463, 3.031663266894633, 0};
Point(p16 + 6) = {16.89266689408464, 3.158230656163966, 0};
Point(p16 + 7) = {16.72650050115153, 3.260057552715743, 0};
Point(p16 + 8) = {16.54645065616397, 3.334636640412766, 0};
Point(p16 + 9) = {16.35695078385671, 3.380131534602131, 0};
Point(p16 + 10) = {16.162667, 3.395422, 0};
Point(p16 + 11) = {15.96838321614328, 3.380131534602131, 0};
Point(p16 + 12) = {15.77888334383603, 3.334636640412766, 0};
Point(p16 + 13) = {15.59883349884847, 3.260057552715743, 0};
Point(p16 + 14) = {15.43266710591536, 3.158230656163966, 0};
Point(p16 + 15) = {15.28447573310537, 3.031663266894633, 0};
Point(p16 + 16) = {15.15790834383603, 2.883471894084637, 0};
Point(p16 + 17) = {15.05608144728425, 2.71730550115153, 0};
Point(p16 + 18) = {14.98150235958723, 2.537255656163966, 0};
Point(p16 + 19) = {14.93600746539787, 2.347755783856715, 0};
Point(p16 + 20) = {14.920717, 2.153472, 0};
Point(p16 + 21) = {14.93600746539787, 1.959188216143285, 0};
Point(p16 + 22) = {14.98150235958723, 1.769688343836033, 0};
Point(p16 + 23) = {15.05608144728425, 1.58963849884847, 0};
Point(p16 + 24) = {15.15790834383603, 1.423472105915363, 0};
Point(p16 + 25) = {15.28447573310537, 1.275280733105367, 0};
Point(p16 + 26) = {15.43266710591536, 1.148713343836034, 0};
Point(p16 + 27) = {15.59883349884847, 1.046886447284256, 0};
Point(p16 + 28) = {15.77888334383603, 0.9723073595872338, 0};
Point(p16 + 29) = {15.96838321614328, 0.9268124653978684, 0};
Point(p16 + 30) = {16.162667, 0.9115219999999997, 0};
Point(p16 + 31) = {16.35695078385671, 0.9268124653978684, 0};
Point(p16 + 32) = {16.54645065616397, 0.9723073595872336, 0};
Point(p16 + 33) = {16.72650050115153, 1.046886447284256, 0};
Point(p16 + 34) = {16.89266689408463, 1.148713343836034, 0};
Point(p16 + 35) = {17.04085826689463, 1.275280733105367, 0};
Point(p16 + 36) = {17.16742565616396, 1.423472105915363, 0};
Point(p16 + 37) = {17.26925255271574, 1.58963849884847, 0};
Point(p16 + 38) = {17.34383164041277, 1.769688343836034, 0};
Point(p16 + 39) = {17.38932653460213, 1.959188216143285, 0};
Spline(16) = {12, p16 + 1, p16 + 2, p16 + 3, p16 + 4, p16 + 5, p16 + 6, p16 + 7, p16 + 8, p16 + 9, p16 + 10, p16 + 11, p16 + 12, p16 + 13, p16 + 14, p16 + 15, p16 + 16, p16 + 17, p16 + 18, p16 + 19, p16 + 20, p16 + 21, p16 + 22, p16 + 23, p16 + 24, p16 + 25, p16 + 26, p16 + 27, p16 + 28, p16 + 29, p16 + 30, p16 + 31, p16 + 32, p16 + 33, p16 + 34, p16 + 35, p16 + 36, p16 + 37, p16 + 38, p16 + 39, 12};
Line(17) = {11, 8};
Line(18) = {12, 9};
Curve Loop(1) = {-1, 4, 3, -2};
Plane Surface(1) = {1};
Curve Loop(2) = {-5, 1, 7, -6};
Plane Surface(2) = {2};
Curve Loop(3) = {-2, 7, 9, -8, -10, -11};
Plane Surface(3) = {3};
Curve Loop(4) = {-12, 3, 8, -13};
Plane Surface(4) = {4};
Curve Loop(5) = {-4, 5, 14, -12, -15, -16};
Plane Surface(5) = {5};
Curve Loop(6) = {-6, 14, 13, -9};
Plane Surface(6) = {6};
Curve Loop(7) = {-10, -17, 15, 17};
Surface(7) = {7};
Curve Loop(8) = {-11, -18, 16, 18};
Surface(8) = {8};
Surface Loop(1) = {1, 2, 3, 4, 5, 6, 7, 8};
Volume(1) = {1};
Physical Surface("INFLOW") = {1};
Physical Surface("OUTFLOW") = {6};
Physical Surface("OBSTACLE") = {7, 8};
Physical Surface("WALL_Y") = {2, 4};
Physical Surface("WALL_Z") = {3, 5};
Physical Volume("FLUID") = {1};
