cl__1 = 1.743188;
cl__2 = 2.102664;
cl__3 = 0.7838310000000001;
cl__4 = 0.731544;
cl__5 = 0.087551;
cl__6 = 0.099298;
Point(1) = {0.027171, -4.09155, 1, cl__1};
Point(2) = {0.027171, -4.09155, 0, cl__1};
Point(3) = {0.027171, 4.208553999999999, 1, cl__2};
Point(4) = {0.027171, 4.208553999999999, 0, cl__2};
Point(5) = {33.899397, -4.09155, 0, cl__3};
Point(6) = {33.899397, -4.09155, 1, cl__3};
Point(7) = {33.899397, 4.208553999999999, 1, cl__4};
Point(8) = {14.869957, -1.459011, 1, cl__5};
Point(9) = {26.489859, 0.7140499999999997, 1, cl__6};
Point(10) = {33.899397, 4.208553999999999, 0, cl__4};
Point(11) = {14.869957, -1.459011, 0, cl__5};
Point(12) = {26.489859, 0.7140499999999997, 0, cl__6};
Line(1) = {2, 1};
Line(2) = {1, 3};
Line(3) = {4, 3};
Line(4) = {2, 4};
Line(5) = {2, 5};
Line(6) = {5, 6};
Line(7) = {1, 6};
Line(8) = {3, 7};
Line(9) = {6, 7};
p10 = newp;
Point(p10 + 1) = {14.85917798213947, -1.322050592209232, 1};
Point(p10 + 2) = {14.82710634375112, -1.188462604203807, 1};
Point(p10 + 3) = {14.77453179501173, -1.06153641560153, 1};
Point(p10 + 4) = {14.70274889579619, -0.94439737040966, 1};
Point(p10 + 5) = {14.61352517931698, -0.8399298206830224, 1};
Point(p10 + 6) = {14.50905762959034, -0.7507061042038067, 1};
Point(p10 + 7) = {14.39191858439847, -0.6789232049882696, 1};
Point(p10 + 8) = {14.26499239579619, -0.6263486562488814, 1};
Point(p10 + 9) = {14.13140440779077, -0.5942770178605292, 1};
Point(p10 + 10) = {13.994444, -0.5834980000000001, 1};
Point(p10 + 11) = {13.85748359220923, -0.5942770178605293, 1};
Point(p10 + 12) = {13.72389560420381, -0.6263486562488813, 1};
Point(p10 + 13) = {13.59696941560153, -0.6789232049882695, 1};
Point(p10 + 14) = {13.47983037040966, -0.7507061042038067, 1};
Point(p10 + 15) = {13.37536282068302, -0.8399298206830222, 1};
Point(p10 + 16) = {13.28613910420381, -0.94439737040966, 1};
Point(p10 + 17) = {13.21435620498827, -1.06153641560153, 1};
Point(p10 + 18) = {13.16178165624888, -1.188462604203807, 1};
Point(p10 + 19) = {13.12971001786053, -1.322050592209232, 1};
Point(p10 + 20) = {13.118931, -1.459011, 1};
Point(p10 + 21) = {13.12971001786053, -1.595971407790768, 1};
Point(p10 + 22) = {13.16178165624888, -1.729559395796194, 1};
Point(p10 + 23) = {13.21435620498827, -1.856485584398469, 1};
Point(p10 + 24) = {13.28613910420381, -1.97362462959034, 1};
Point(p10 + 25) = {13.37536282068302, -2.078092179316978, 1};
Point(p10 + 26) = {13.47983037040966, -2.167315895796193, 1};
Point(p10 + 27) = {13.59696941560153, -2.23909879501173, 1};
Point(p10 + 28) = {13.72389560420381, -2.291673343751119, 1};
Point(p10 + 29) = {13.85748359220923, -2.323744982139471, 1};
Point(p10 + 30) = {13.994444, -2.334524, 1};
Point(p10 + 31) = {14.13140440779077, -2.323744982139471, 1};
Point(p10 + 32) = {14.26499239579619, -2.291673343751119, 1};
Point(p10 + 33) = {14.39191858439847, -2.23909879501173, 1};
Point(p10 + 34) = {14.50905762959034, -2.167315895796194, 1};
Point(p10 + 35) = {14.61352517931698, -2.078092179316978, 1};
Point(p10 + 36) = {14.70274889579619, -1.97362462959034, 1};
Point(p10 + 37) = {14.77453179501173, -1.85648558439847, 1};
Point(p10 + 38) = {14.82710634375112, -1.729559395796194, 1};
Point(p10 + 39) = {14.85917798213947, -1.595971407790768, 1};
Spline(10) = {8, p10 + 1, p10 + 2, p10 + 3, p10 + 4, p10 + 5, p10 + 6, p10 + 7, p10 + 8, p10 + 9, p10 + 10, p10 + 11, p10 + 12, p10 + 13, p10 + 14, p10 + 15, p10 + 16, p10 + 17, p10 + 18, p10 + 19, p10 + 20, p10 + 21, p10 + 22, p10 + 23, p10 + 24, p10 + 25, p10 + 26, p10 + 27, p10 + 28, p10 + 29, p10 + 30, p10 + 31, p10 + 32, p10 + 33, p10 + 34, p10 + 35, p10 + 36, p10 + 37, p10 + 38, p10 + 39, 8};
p11 = newp;
Point(p11 + 1) = {26.47763378075582, 0.8693861386611834, 1};
Point(p11 + 2) = {26.44125914849425, 1.020897386057441, 1};
Point(p11 + 3) = {26.38163076738204, 1.164853032440875, 1};
Point(p11 + 4) = {26.30021688605744, 1.297708412036128, 1};
Point(p11 + 5) = {26.19902218447584, 1.416192184475837, 1};
Point(p11 + 6) = {26.08053841203613, 1.517386886057441, 1};
Point(p11 + 7) = {25.94768303244088, 1.598800767382041, 1};
Point(p11 + 8) = {25.80372738605744, 1.658429148494245, 1};
Point(p11 + 9) = {25.65221613866118, 1.694803780755819, 1};
Point(p11 + 10) = {25.49688, 1.707029, 1};
Point(p11 + 11) = {25.34154386133882, 1.694803780755819, 1};
Point(p11 + 12) = {25.19003261394256, 1.658429148494245, 1};
Point(p11 + 13) = {25.04607696755913, 1.598800767382041, 1};
Point(p11 + 14) = {24.91322158796387, 1.517386886057441, 1};
Point(p11 + 15) = {24.79473781552417, 1.416192184475837, 1};
Point(p11 + 16) = {24.69354311394256, 1.297708412036128, 1};
Point(p11 + 17) = {24.61212923261796, 1.164853032440875, 1};
Point(p11 + 18) = {24.55250085150576, 1.020897386057441, 1};
Point(p11 + 19) = {24.51612621924418, 0.8693861386611834, 1};
Point(p11 + 20) = {24.503901, 0.7140500000000001, 1};
Point(p11 + 21) = {24.51612621924418, 0.5587138613388167, 1};
Point(p11 + 22) = {24.55250085150576, 0.4072026139425587, 1};
Point(p11 + 23) = {24.61212923261796, 0.2632469675591251, 1};
Point(p11 + 24) = {24.69354311394256, 0.1303915879638724, 1};
Point(p11 + 25) = {24.79473781552417, 0.01190781552416331, 1};
Point(p11 + 26) = {24.91322158796387, -0.08928688605744084, 1};
Point(p11 + 27) = {25.04607696755912, -0.1707007673820412, 1};
Point(p11 + 28) = {25.19003261394256, -0.2303291484942452, 1};
Point(p11 + 29) = {25.34154386133882, -0.2667037807558191, 1};
Point(p11 + 30) = {25.49688, -0.278929, 1};
Point(p11 + 31) = {25.65221613866118, -0.2667037807558192, 1};
Point(p11 + 32) = {25.80372738605744, -0.2303291484942454, 1};
Point(p11 + 33) = {25.94768303244087, -0.1707007673820413, 1};
Point(p11 + 34) = {26.08053841203613, -0.08928688605744106, 1};
Point(p11 + 35) = {26.19902218447584, 0.01190781552416309, 1};
Point(p11 + 36) = {26.30021688605744, 0.1303915879638721, 1};
Point(p11 + 37) = {26.38163076738204, 0.2632469675591244, 1};
Point(p11 + 38) = {26.44125914849425, 0.4072026139425589, 1};
Point(p11 + 39) = {26.47763378075582, 0.5587138613388163, 1};
Spline(11) = {9, p11 + 1, p11 + 2, p11 + 3, p11 + 4, p11 + 5, p11 + 6, p11 + 7, p11 + 8, p11 + 9, p11 + 10, p11 + 11, p11 + 12, p11 + 13, p11 + 14, p11 + 15, p11 + 16, p11 + 17, p11 + 18, p11 + 19, p11 + 20, p11 + 21, p11 + 22, p11 + 23, p11 + 24, p11 + 25, p11 + 26, p11 + 27, p11 + 28, p11 + 29, p11 + 30, p11 + 31, p11 + 32, p11 + 33, p11 + 34, p11 + 35, p11 + 36, p11 + 37, p11 + 38, p11 + 39, 9};
Line(12) = {4, 10};
Line(13) = {10, 7};
Line(14) = {5, 10};
p15 = newp;
Point(p15 + 1) = {14.85917798213947, -1.322050592209232, 0};
Point(p15 + 2) = {14.82710634375112, -1.188462604203807, 0};
Point(p15 + 3) = {14.77453179501173, -1.06153641560153, 0};
Point(p15 + 4) = {14.70274889579619, -0.94439737040966, 0};
Point(p15 + 5) = {14.61352517931698, -0.8399298206830224, 0};
Point(p15 + 6) = {14.50905762959034, -0.7507061042038067, 0};
Point(p15 + 7) = {14.39191858439847, -0.6789232049882696, 0};
Point(p15 + 8) = {14.26499239579619, -0.6263486562488814, 0};
Point(p15 + 9) = {14.13140440779077, -0.5942770178605292, 0};
Point(p15 + 10) = {13.994444, -0.5834980000000001, 0};
Point(p15 + 11) = {13.85748359220923, -0.5942770178605293, 0};
Point(p15 + 12) = {13.72389560420381, -0.6263486562488813, 0};
Point(p15 + 13) = {13.59696941560153, -0.6789232049882695, 0};
Point(p15 + 14) = {13.47983037040966, -0.7507061042038067, 0};
Point(p15 + 15) = {13.37536282068302, -0.8399298206830222, 0};
Point(p15 + 16) = {13.28613910420381, -0.94439737040966, 0};
Point(p15 + 17) = {13.21435620498827, -1.06153641560153, 0};
Point(p15 + 18) = {13.16178165624888, -1.188462604203807, 0};
Point(p15 + 19) = {13.12971001786053, -1.322050592209232, 0};
Point(p15 + 20) = {13.118931, -1.459011, 0};
Point(p15 + 21) = {13.12971001786053, -1.595971407790768, 0};
Point(p15 + 22) = {13.16178165624888, -1.729559395796194, 0};
Point(p15 + 23) = {13.21435620498827, -1.856485584398469, 0};
Point(p15 + 24) = {13.28613910420381, -1.97362462959034, 0};
Point(p15 + 25) = {13.37536282068302, -2.078092179316978, 0};
Point(p15 + 26) = {13.47983037040966, -2.167315895796193, 0};
Point(p15 + 27) = {13.59696941560153, -2.23909879501173, 0};
Point(p15 + 28) = {13.72389560420381, -2.291673343751119, 0};
Point(p15 + 29) = {13.85748359220923, -2.323744982139471, 0};
Point(p15 + 30) = {13.994444, -2.334524, 0};
Point(p15 + 31) = {14.13140440779077, -2.323744982139471, 0};
Point(p15 + 32) = {14.26499239579619, -2.291673343751119, 0};
Point(p15 + 33) = {14.39191858439847, -2.23909879501173, 0};
Point(p15 + 34) = {14.50905762959034, -2.167315895796194, 0};
Point(p15 + 35) = {14.61352517931698, -2.078092179316978, 0};
Point(p15 + 36) = {14.70274889579619, -1.97362462959034, 0};
Point(p15 + 37) = {14.77453179501173, -1.85648558439847, 0};
Point(p15 + 38) = {14.82710634375112, -1.729559395796194, 0};
Point(p15 + 39) = {14.85917798213947, -1.595971407790768, 0};
Spline(15) = {11, p15 + 1, p15 + 2, p15 + 3, p15 + 4, p15 + 5, p15 + 6, p15 + 7, p15 + 8, p15 + 9, p15 + 10, p15 + 11, p15 + 12, p15 + 13, p15 + 14, p15 + 15, p15 + 16, p15 + 17, p15 + 18, p15 + 19, p15 + 20, p15 + 21, p15 + 22, p15 + 23, p15 + 24, p15 + 25, p15 + 26, p15 + 27, p15 + 28, p15 + 29, p15 + 30, p15 + 31, p15 + 32, p15 + 33, p15 + 34, p15 + 35, p15 + 36, p15 + 37, p15 + 38, p15 + 39, 11};
p16 = newp;
Point(p16 + 1) = {26.47763378075582, 0.8693861386611834, 0};
Point(p16 + 2) = {26.44125914849425, 1.020897386057441, 0};
Point(p16 + 3) = {26.38163076738204, 1.164853032440875, 0};
Point(p16 + 4) = {26.30021688605744, 1.297708412036128, 0};
Point(p16 + 5) = {26.19902218447584, 1.416192184475837, 0};
Point(p16 + 6) = {26.08053841203613, 1.517386886057441, 0};
Point(p16 + 7) = {25.94768303244088, 1.598800767382041, 0};
Point(p16 + 8) = {25.80372738605744, 1.658429148494245, 0};
Point(p16 + 9) = {25.65221613866118, 1.694803780755819, 0};
Point(p16 + 10) = {25.49688, 1.707029, 0};
Point(p16 + 11) = {25.34154386133882, 1.694803780755819, 0};
Point(p16 + 12) = {25.19003261394256, 1.658429148494245, 0};
Point(p16 + 13) = {25.04607696755913, 1.598800767382041, 0};
Point(p16 + 14) = {24.91322158796387, 1.517386886057441, 0};
Point(p16 + 15) = {24.79473781552417, 1.416192184475837, 0};
Point(p16 + 16) = {24.69354311394256, 1.297708412036128, 0};
Point(p16 + 17) = {24.61212923261796, 1.164853032440875, 0};
Point(p16 + 18) = {24.55250085150576, 1.020897386057441, 0};
Point(p16 + 19) = {24.51612621924418, 0.8693861386611834, 0};
Point(p16 + 20) = {24.503901, 0.7140500000000001, 0};
Point(p16 + 21) = {24.51612621924418, 0.5587138613388167, 0};
Point(p16 + 22) = {24.55250085150576, 0.4072026139425587, 0};
Point(p16 + 23) = {24.61212923261796, 0.2632469675591251, 0};
Point(p16 + 24) = {24.69354311394256, 0.1303915879638724, 0};
Point(p16 + 25) = {24.79473781552417, 0.01190781552416331, 0};
Point(p16 + 26) = {24.91322158796387, -0.08928688605744084, 0};
Point(p16 + 27) = {25.04607696755912, -0.1707007673820412, 0};
Point(p16 + 28) = {25.19003261394256, -0.2303291484942452, 0};
Point(p16 + 29) = {25.34154386133882, -0.2667037807558191, 0};
Point(p16 + 30) = {25.49688, -0.278929, 0};
Point(p16 + 31) = {25.65221613866118, -0.2667037807558192, 0};
Point(p16 + 32) = {25.80372738605744, -0.2303291484942454, 0};
Point(p16 + 33) = {25.94768303244087, -0.1707007673820413, 0};
Point(p16 + 34) = {26.08053841203613, -0.08928688605744106, 0};
Point(p16 + 35) = {26.19902218447584, 0.01190781552416309, 0};
Point(p16 + 36) = {26.30021688605744, 0.1303915879638721, 0};
Point(p16 + 37) = {26.38163076738204, 0.2632469675591244, 0};
Point(p16 + 38) = {26.44125914849425, 0.4072026139425589, 0};
Point(p16 + 39) = {26.47763378075582, 0.5587138613388163, 0};
Spline(16) = {12, p16 + 1, p16 + 2, p16 + 3, p16 + 4, p16 + 5, p16 + 6, p16 + 7, p16 + 8, p16 + 9, p16 + 10, p16 + 11, p16 + 12, p16 + 13, p16 + 14, p16 + 15, p16 + 16, p16 + 17, p16 + 18, p16 + 19, p16 + 20, p16 + 21, p16 + 22, p16 + 23, p16 + 24, p16 + 25, p16 + 26, p16 + 27, p16 + 28, p16 + 29, p16 + 30, p16 + 31, p16 + 32, p16 + 33, p16 + 34, p16 + 35, p16 + 36, p16 + 37, p16 + 38, p16 + 39, 12};
Line(17) = {11, 8};
Line(18) = {12, 9};
Curve Loop(1) = {-1, 4, 3, -2};
Plane Surface(1) = {1};
Curve Loop(2) = {-5, 1, 7, -6};
Plane Surface(2) = {2};
Curve Loop(3) = {-2, 7, 9, -8, -10, -11};
Plane Surface(3) = {3};
Curve Loop(4) = {-12, 3, 8, -13};
Plane Surface(4) = {4};
Curve Loop(5) = {-4, 5, 14, -12, -15, -16};
Plane Surface(5) = {5};
Curve Loop(6) = {-6, 14, 13, -9};
Plane Surface(6) = {6};
Curve Loop(7) = {-10, -17, 15, 17};
Surface(7) = {7};
Curve Loop(8) = {-11, -18, 16, 18};
Surface(8) = {8};
Surface Loop(1) = {1, 2, 3, 4, 5, 6, 7, 8};
Volume(1) = {1};
Physical Surface("INFLOW") = {1};
Physical Surface("OUTFLOW") = {6};
Physical Surface("OBSTACLE") = {7, 8};
Physical Surface("WALL_Y") = {2, 4};
Physical Surface("WALL_Z") = {3, 5};
Physical Volume("FLUID") = {1};
