cl__1 = 0.588445;
cl__2 = 0.275507;
cl__3 = 3.495957;
cl__4 = 0.057138;
cl__5 = 0.145164;
Point(1) = {0.799462, -3.741317, 1, cl__1};
Point(2) = {0.799462, -3.741317, 0, cl__1};
Point(3) = {0.799462, 5.737245, 1, cl__2};
Point(4) = {0.799462, 5.737245, 0, cl__2};
Point(5) = {34.636844, -3.741317, 0, cl__3};
Point(6) = {34.636844, -3.741317, 1, cl__3};
Point(7) = {34.636844, 5.737245, 1, cl__3};
Point(8) = {2.512376, 2.612793, 1, cl__4};
Point(9) = {12.890415, 3.256324999999999, 1, cl__5};
Point(10) = {34.636844, 5.737245, 0, cl__3};
Point(11) = {2.512376, 2.612793, 0, cl__4};
Point(12) = {12.890415, 3.256324999999999, 0, cl__5};
Line(1) = {2, 1};
Line(2) = {1, 3};
Line(3) = {4, 3};
Line(4) = {2, 4};
Line(5) = {2, 5};
Line(6) = {5, 6};
Line(7) = {1, 6};
Line(8) = {3, 7};
Line(9) = {6, 7};
p10 = newp;
Point(p10 + 1) = {2.505341302490953, 2.702177306807012, 1};
Point(p10 + 2) = {2.484410427563306, 2.789360675330929, 1};
Point(p10 + 3) = {2.45009876282337, 2.872196361693681, 1};
Point(p10 + 4) = {2.403251175330929, 2.948644676381135, 1};
Point(p10 + 5) = {2.345021208168276, 3.016823208168276, 1};
Point(p10 + 6) = {2.276842676381134, 3.075053175330929, 1};
Point(p10 + 7) = {2.200394361693681, 3.12190076282337, 1};
Point(p10 + 8) = {2.117558675330929, 3.156212427563306, 1};
Point(p10 + 9) = {2.030375306807012, 3.177143302490953, 1};
Point(p10 + 10) = {1.940991, 3.184178, 1};
Point(p10 + 11) = {1.851606693192988, 3.177143302490953, 1};
Point(p10 + 12) = {1.764423324669071, 3.156212427563307, 1};
Point(p10 + 13) = {1.681587638306319, 3.121900762823371, 1};
Point(p10 + 14) = {1.605139323618865, 3.075053175330929, 1};
Point(p10 + 15) = {1.536960791831725, 3.016823208168276, 1};
Point(p10 + 16) = {1.47873082466907, 2.948644676381135, 1};
Point(p10 + 17) = {1.431883237176629, 2.872196361693681, 1};
Point(p10 + 18) = {1.397571572436694, 2.789360675330929, 1};
Point(p10 + 19) = {1.376640697509047, 2.702177306807013, 1};
Point(p10 + 20) = {1.369606, 2.612793, 1};
Point(p10 + 21) = {1.376640697509047, 2.523408693192988, 1};
Point(p10 + 22) = {1.397571572436694, 2.436225324669071, 1};
Point(p10 + 23) = {1.431883237176629, 2.353389638306319, 1};
Point(p10 + 24) = {1.47873082466907, 2.276941323618865, 1};
Point(p10 + 25) = {1.536960791831724, 2.208762791831724, 1};
Point(p10 + 26) = {1.605139323618865, 2.15053282466907, 1};
Point(p10 + 27) = {1.681587638306319, 2.103685237176629, 1};
Point(p10 + 28) = {1.764423324669071, 2.069373572436694, 1};
Point(p10 + 29) = {1.851606693192988, 2.048442697509047, 1};
Point(p10 + 30) = {1.940991, 2.041408, 1};
Point(p10 + 31) = {2.030375306807012, 2.048442697509047, 1};
Point(p10 + 32) = {2.117558675330929, 2.069373572436693, 1};
Point(p10 + 33) = {2.200394361693681, 2.103685237176629, 1};
Point(p10 + 34) = {2.276842676381134, 2.15053282466907, 1};
Point(p10 + 35) = {2.345021208168276, 2.208762791831724, 1};
Point(p10 + 36) = {2.403251175330929, 2.276941323618865, 1};
Point(p10 + 37) = {2.45009876282337, 2.353389638306319, 1};
Point(p10 + 38) = {2.484410427563306, 2.436225324669071, 1};
Point(p10 + 39) = {2.505341302490953, 2.523408693192987, 1};
Spline(10) = {8, p10 + 1, p10 + 2, p10 + 3, p10 + 4, p10 + 5, p10 + 6, p10 + 7, p10 + 8, p10 + 9, p10 + 10, p10 + 11, p10 + 12, p10 + 13, p10 + 14, p10 + 15, p10 + 16, p10 + 17, p10 + 18, p10 + 19, p10 + 20, p10 + 21, p10 + 22, p10 + 23, p10 + 24, p10 + 25, p10 + 26, p10 + 27, p10 + 28, p10 + 29, p10 + 30, p10 + 31, p10 + 32, p10 + 33, p10 + 34, p10 + 35, p10 + 36, p10 + 37, p10 + 38, p10 + 39, 8};
p11 = newp;
Point(p11 + 1) = {12.87254285349489, 3.483412152568861, 1};
Point(p11 + 2) = {12.81936648554076, 3.704907665782426, 1};
Point(p11 + 3) = {12.7321952747989, 3.915357585003914, 1};
Point(p11 + 4) = {12.61317566578242, 4.109579934778854, 1};
Point(p11 + 5) = {12.46523831626876, 4.282792316268765, 1};
Point(p11 + 6) = {12.29202593477885, 4.430729665782426, 1};
Point(p11 + 7) = {12.09780358500391, 4.549749274798899, 1};
Point(p11 + 8) = {11.88735366578243, 4.636920485540761, 1};
Point(p11 + 9) = {11.66585815256886, 4.690096853494888, 1};
Point(p11 + 10) = {11.438771, 4.707969, 1};
Point(p11 + 11) = {11.21168384743114, 4.690096853494888, 1};
Point(p11 + 12) = {10.99018833421757, 4.636920485540762, 1};
Point(p11 + 13) = {10.77973841499609, 4.549749274798899, 1};
Point(p11 + 14) = {10.58551606522114, 4.430729665782426, 1};
Point(p11 + 15) = {10.41230368373123, 4.282792316268765, 1};
Point(p11 + 16) = {10.26436633421757, 4.109579934778855, 1};
Point(p11 + 17) = {10.1453467252011, 3.915357585003915, 1};
Point(p11 + 18) = {10.05817551445924, 3.704907665782426, 1};
Point(p11 + 19) = {10.00499914650511, 3.483412152568861, 1};
Point(p11 + 20) = {9.987126999999999, 3.256325, 1};
Point(p11 + 21) = {10.00499914650511, 3.029237847431139, 1};
Point(p11 + 22) = {10.05817551445924, 2.807742334217573, 1};
Point(p11 + 23) = {10.1453467252011, 2.597292414996086, 1};
Point(p11 + 24) = {10.26436633421757, 2.403070065221145, 1};
Point(p11 + 25) = {10.41230368373123, 2.229857683731235, 1};
Point(p11 + 26) = {10.58551606522114, 2.081920334217574, 1};
Point(p11 + 27) = {10.77973841499608, 1.962900725201101, 1};
Point(p11 + 28) = {10.99018833421757, 1.875729514459238, 1};
Point(p11 + 29) = {11.21168384743114, 1.822553146505112, 1};
Point(p11 + 30) = {11.438771, 1.804681, 1};
Point(p11 + 31) = {11.66585815256886, 1.822553146505112, 1};
Point(p11 + 32) = {11.88735366578243, 1.875729514459238, 1};
Point(p11 + 33) = {12.09780358500391, 1.962900725201101, 1};
Point(p11 + 34) = {12.29202593477885, 2.081920334217574, 1};
Point(p11 + 35) = {12.46523831626876, 2.229857683731235, 1};
Point(p11 + 36) = {12.61317566578242, 2.403070065221145, 1};
Point(p11 + 37) = {12.7321952747989, 2.597292414996085, 1};
Point(p11 + 38) = {12.81936648554076, 2.807742334217573, 1};
Point(p11 + 39) = {12.87254285349489, 3.029237847431139, 1};
Spline(11) = {9, p11 + 1, p11 + 2, p11 + 3, p11 + 4, p11 + 5, p11 + 6, p11 + 7, p11 + 8, p11 + 9, p11 + 10, p11 + 11, p11 + 12, p11 + 13, p11 + 14, p11 + 15, p11 + 16, p11 + 17, p11 + 18, p11 + 19, p11 + 20, p11 + 21, p11 + 22, p11 + 23, p11 + 24, p11 + 25, p11 + 26, p11 + 27, p11 + 28, p11 + 29, p11 + 30, p11 + 31, p11 + 32, p11 + 33, p11 + 34, p11 + 35, p11 + 36, p11 + 37, p11 + 38, p11 + 39, 9};
Line(12) = {4, 10};
Line(13) = {10, 7};
Line(14) = {5, 10};
p15 = newp;
Point(p15 + 1) = {2.505341302490953, 2.702177306807012, 0};
Point(p15 + 2) = {2.484410427563306, 2.789360675330929, 0};
Point(p15 + 3) = {2.45009876282337, 2.872196361693681, 0};
Point(p15 + 4) = {2.403251175330929, 2.948644676381135, 0};
Point(p15 + 5) = {2.345021208168276, 3.016823208168276, 0};
Point(p15 + 6) = {2.276842676381134, 3.075053175330929, 0};
Point(p15 + 7) = {2.200394361693681, 3.12190076282337, 0};
Point(p15 + 8) = {2.117558675330929, 3.156212427563306, 0};
Point(p15 + 9) = {2.030375306807012, 3.177143302490953, 0};
Point(p15 + 10) = {1.940991, 3.184178, 0};
Point(p15 + 11) = {1.851606693192988, 3.177143302490953, 0};
Point(p15 + 12) = {1.764423324669071, 3.156212427563307, 0};
Point(p15 + 13) = {1.681587638306319, 3.121900762823371, 0};
Point(p15 + 14) = {1.605139323618865, 3.075053175330929, 0};
Point(p15 + 15) = {1.536960791831725, 3.016823208168276, 0};
Point(p15 + 16) = {1.47873082466907, 2.948644676381135, 0};
Point(p15 + 17) = {1.431883237176629, 2.872196361693681, 0};
Point(p15 + 18) = {1.397571572436694, 2.789360675330929, 0};
Point(p15 + 19) = {1.376640697509047, 2.702177306807013, 0};
Point(p15 + 20) = {1.369606, 2.612793, 0};
Point(p15 + 21) = {1.376640697509047, 2.523408693192988, 0};
Point(p15 + 22) = {1.397571572436694, 2.436225324669071, 0};
Point(p15 + 23) = {1.431883237176629, 2.353389638306319, 0};
Point(p15 + 24) = {1.47873082466907, 2.276941323618865, 0};
Point(p15 + 25) = {1.536960791831724, 2.208762791831724, 0};
Point(p15 + 26) = {1.605139323618865, 2.15053282466907, 0};
Point(p15 + 27) = {1.681587638306319, 2.103685237176629, 0};
Point(p15 + 28) = {1.764423324669071, 2.069373572436694, 0};
Point(p15 + 29) = {1.851606693192988, 2.048442697509047, 0};
Point(p15 + 30) = {1.940991, 2.041408, 0};
Point(p15 + 31) = {2.030375306807012, 2.048442697509047, 0};
Point(p15 + 32) = {2.117558675330929, 2.069373572436693, 0};
Point(p15 + 33) = {2.200394361693681, 2.103685237176629, 0};
Point(p15 + 34) = {2.276842676381134, 2.15053282466907, 0};
Point(p15 + 35) = {2.345021208168276, 2.208762791831724, 0};
Point(p15 + 36) = {2.403251175330929, 2.276941323618865, 0};
Point(p15 + 37) = {2.45009876282337, 2.353389638306319, 0};
Point(p15 + 38) = {2.484410427563306, 2.436225324669071, 0};
Point(p15 + 39) = {2.505341302490953, 2.523408693192987, 0};
Spline(15) = {11, p15 + 1, p15 + 2, p15 + 3, p15 + 4, p15 + 5, p15 + 6, p15 + 7, p15 + 8, p15 + 9, p15 + 10, p15 + 11, p15 + 12, p15 + 13, p15 + 14, p15 + 15, p15 + 16, p15 + 17, p15 + 18, p15 + 19, p15 + 20, p15 + 21, p15 + 22, p15 + 23, p15 + 24, p15 + 25, p15 + 26, p15 + 27, p15 + 28, p15 + 29, p15 + 30, p15 + 31, p15 + 32, p15 + 33, p15 + 34, p15 + 35, p15 + 36, p15 + 37, p15 + 38, p15 + 39, 11};
p16 = newp;
Point(p16 + 1) = {12.87254285349489, 3.483412152568861, 0};
Point(p16 + 2) = {12.81936648554076, 3.704907665782426, 0};
Point(p16 + 3) = {12.7321952747989, 3.915357585003914, 0};
Point(p16 + 4) = {12.61317566578242, 4.109579934778854, 0};
Point(p16 + 5) = {12.46523831626876, 4.282792316268765, 0};
Point(p16 + 6) = {12.29202593477885, 4.430729665782426, 0};
Point(p16 + 7) = {12.09780358500391, 4.549749274798899, 0};
Point(p16 + 8) = {11.88735366578243, 4.636920485540761, 0};
Point(p16 + 9) = {11.66585815256886, 4.690096853494888, 0};
Point(p16 + 10) = {11.438771, 4.707969, 0};
Point(p16 + 11) = {11.21168384743114, 4.690096853494888, 0};
Point(p16 + 12) = {10.99018833421757, 4.636920485540762, 0};
Point(p16 + 13) = {10.77973841499609, 4.549749274798899, 0};
Point(p16 + 14) = {10.58551606522114, 4.430729665782426, 0};
Point(p16 + 15) = {10.41230368373123, 4.282792316268765, 0};
Point(p16 + 16) = {10.26436633421757, 4.109579934778855, 0};
Point(p16 + 17) = {10.1453467252011, 3.915357585003915, 0};
Point(p16 + 18) = {10.05817551445924, 3.704907665782426, 0};
Point(p16 + 19) = {10.00499914650511, 3.483412152568861, 0};
Point(p16 + 20) = {9.987126999999999, 3.256325, 0};
Point(p16 + 21) = {10.00499914650511, 3.029237847431139, 0};
Point(p16 + 22) = {10.05817551445924, 2.807742334217573, 0};
Point(p16 + 23) = {10.1453467252011, 2.597292414996086, 0};
Point(p16 + 24) = {10.26436633421757, 2.403070065221145, 0};
Point(p16 + 25) = {10.41230368373123, 2.229857683731235, 0};
Point(p16 + 26) = {10.58551606522114, 2.081920334217574, 0};
Point(p16 + 27) = {10.77973841499608, 1.962900725201101, 0};
Point(p16 + 28) = {10.99018833421757, 1.875729514459238, 0};
Point(p16 + 29) = {11.21168384743114, 1.822553146505112, 0};
Point(p16 + 30) = {11.438771, 1.804681, 0};
Point(p16 + 31) = {11.66585815256886, 1.822553146505112, 0};
Point(p16 + 32) = {11.88735366578243, 1.875729514459238, 0};
Point(p16 + 33) = {12.09780358500391, 1.962900725201101, 0};
Point(p16 + 34) = {12.29202593477885, 2.081920334217574, 0};
Point(p16 + 35) = {12.46523831626876, 2.229857683731235, 0};
Point(p16 + 36) = {12.61317566578242, 2.403070065221145, 0};
Point(p16 + 37) = {12.7321952747989, 2.597292414996085, 0};
Point(p16 + 38) = {12.81936648554076, 2.807742334217573, 0};
Point(p16 + 39) = {12.87254285349489, 3.029237847431139, 0};
Spline(16) = {12, p16 + 1, p16 + 2, p16 + 3, p16 + 4, p16 + 5, p16 + 6, p16 + 7, p16 + 8, p16 + 9, p16 + 10, p16 + 11, p16 + 12, p16 + 13, p16 + 14, p16 + 15, p16 + 16, p16 + 17, p16 + 18, p16 + 19, p16 + 20, p16 + 21, p16 + 22, p16 + 23, p16 + 24, p16 + 25, p16 + 26, p16 + 27, p16 + 28, p16 + 29, p16 + 30, p16 + 31, p16 + 32, p16 + 33, p16 + 34, p16 + 35, p16 + 36, p16 + 37, p16 + 38, p16 + 39, 12};
Line(17) = {11, 8};
Line(18) = {12, 9};
Curve Loop(1) = {-1, 4, 3, -2};
Plane Surface(1) = {1};
Curve Loop(2) = {-5, 1, 7, -6};
Plane Surface(2) = {2};
Curve Loop(3) = {-2, 7, 9, -8, -10, -11};
Plane Surface(3) = {3};
Curve Loop(4) = {-12, 3, 8, -13};
Plane Surface(4) = {4};
Curve Loop(5) = {-4, 5, 14, -12, -15, -16};
Plane Surface(5) = {5};
Curve Loop(6) = {-6, 14, 13, -9};
Plane Surface(6) = {6};
Curve Loop(7) = {-10, -17, 15, 17};
Surface(7) = {7};
Curve Loop(8) = {-11, -18, 16, 18};
Surface(8) = {8};
Surface Loop(1) = {1, 2, 3, 4, 5, 6, 7, 8};
Volume(1) = {1};
Physical Surface("INFLOW") = {1};
Physical Surface("OUTFLOW") = {6};
Physical Surface("OBSTACLE") = {7, 8};
Physical Surface("WALL_Y") = {2, 4};
Physical Surface("WALL_Z") = {3, 5};
Physical Volume("FLUID") = {1};
