cl__1 = 0.75803;
cl__2 = 0.33997;
cl__3 = 1.676961;
cl__4 = 1.63273;
cl__5 = 0.05113;
cl__6 = 0.129956;
Point(1) = {0.179907, -4.364666, 1, cl__1};
Point(2) = {0.179907, -4.364666, 0, cl__1};
Point(3) = {0.179907, 5.583477999999999, 1, cl__2};
Point(4) = {0.179907, 5.583477999999999, 0, cl__2};
Point(5) = {37.08587, -4.364666, 0, cl__3};
Point(6) = {37.08587, -4.364666, 1, cl__3};
Point(7) = {37.08587, 5.583477999999999, 1, cl__4};
Point(8) = {21.294794, 1.367905, 1, cl__5};
Point(9) = {5.672942, 3.462648, 1, cl__6};
Point(10) = {37.08587, 5.583477999999999, 0, cl__4};
Point(11) = {21.294794, 1.367905, 0, cl__5};
Point(12) = {5.672942, 3.462648, 0, cl__6};
Line(1) = {2, 1};
Line(2) = {1, 3};
Line(3) = {4, 3};
Line(4) = {2, 4};
Line(5) = {2, 5};
Line(6) = {5, 6};
Line(7) = {1, 6};
Line(8) = {3, 7};
Line(9) = {6, 7};
p10 = newp;
Point(p10 + 1) = {21.28849908548127, 1.447889472671675, 1};
Point(p10 + 2) = {21.26976934361216, 1.525904462172927, 1};
Point(p10 + 3) = {21.23906596279794, 1.600028980545331, 1};
Point(p10 + 4) = {21.19714496217293, 1.668437836141385, 1};
Point(p10 + 5) = {21.14503857590034, 1.729446575900338, 1};
Point(p10 + 6) = {21.08402983614139, 1.781552962172927, 1};
Point(p10 + 7) = {21.01562098054533, 1.82347396279794, 1};
Point(p10 + 8) = {20.94149646217293, 1.854177343612163, 1};
Point(p10 + 9) = {20.86348147267168, 1.872907085481272, 1};
Point(p10 + 10) = {20.783497, 1.879202, 1};
Point(p10 + 11) = {20.70351252732832, 1.872907085481272, 1};
Point(p10 + 12) = {20.62549753782707, 1.854177343612163, 1};
Point(p10 + 13) = {20.55137301945467, 1.82347396279794, 1};
Point(p10 + 14) = {20.48296416385861, 1.781552962172927, 1};
Point(p10 + 15) = {20.42195542409966, 1.729446575900338, 1};
Point(p10 + 16) = {20.36984903782707, 1.668437836141385, 1};
Point(p10 + 17) = {20.32792803720206, 1.600028980545331, 1};
Point(p10 + 18) = {20.29722465638784, 1.525904462172927, 1};
Point(p10 + 19) = {20.27849491451873, 1.447889472671675, 1};
Point(p10 + 20) = {20.2722, 1.367905, 1};
Point(p10 + 21) = {20.27849491451873, 1.287920527328325, 1};
Point(p10 + 22) = {20.29722465638784, 1.209905537827072, 1};
Point(p10 + 23) = {20.32792803720206, 1.135781019454669, 1};
Point(p10 + 24) = {20.36984903782707, 1.067372163858615, 1};
Point(p10 + 25) = {20.42195542409966, 1.006363424099662, 1};
Point(p10 + 26) = {20.48296416385861, 0.9542570378270725, 1};
Point(p10 + 27) = {20.55137301945467, 0.91233603720206, 1};
Point(p10 + 28) = {20.62549753782707, 0.8816326563878368, 1};
Point(p10 + 29) = {20.70351252732832, 0.8629029145187278, 1};
Point(p10 + 30) = {20.783497, 0.8566079999999999, 1};
Point(p10 + 31) = {20.86348147267168, 0.8629029145187278, 1};
Point(p10 + 32) = {20.94149646217293, 0.8816326563878367, 1};
Point(p10 + 33) = {21.01562098054533, 0.9123360372020599, 1};
Point(p10 + 34) = {21.08402983614139, 0.9542570378270724, 1};
Point(p10 + 35) = {21.14503857590034, 1.006363424099662, 1};
Point(p10 + 36) = {21.19714496217293, 1.067372163858615, 1};
Point(p10 + 37) = {21.23906596279794, 1.135781019454669, 1};
Point(p10 + 38) = {21.26976934361216, 1.209905537827072, 1};
Point(p10 + 39) = {21.28849908548127, 1.287920527328325, 1};
Spline(10) = {8, p10 + 1, p10 + 2, p10 + 3, p10 + 4, p10 + 5, p10 + 6, p10 + 7, p10 + 8, p10 + 9, p10 + 10, p10 + 11, p10 + 12, p10 + 13, p10 + 14, p10 + 15, p10 + 16, p10 + 17, p10 + 18, p10 + 19, p10 + 20, p10 + 21, p10 + 22, p10 + 23, p10 + 24, p10 + 25, p10 + 26, p10 + 27, p10 + 28, p10 + 29, p10 + 30, p10 + 31, p10 + 32, p10 + 33, p10 + 34, p10 + 35, p10 + 36, p10 + 37, p10 + 38, p10 + 39, 8};
p11 = newp;
Point(p11 + 1) = {5.65694221065718, 3.665944599125543, 1};
Point(p11 + 2) = {5.609336810542595, 3.864235361277884, 1};
Point(p11 + 3) = {5.531298002600332, 4.052637709803524, 1};
Point(p11 + 4) = {5.424747361277884, 4.226512553610216, 1};
Point(p11 + 5) = {5.292308516985914, 4.381578516985915, 1};
Point(p11 + 6) = {5.137242553610215, 4.514017361277884, 1};
Point(p11 + 7) = {4.963367709803524, 4.620568002600332, 1};
Point(p11 + 8) = {4.774965361277884, 4.698606810542595, 1};
Point(p11 + 9) = {4.576674599125543, 4.74621221065718, 1};
Point(p11 + 10) = {4.373378, 4.762212, 1};
Point(p11 + 11) = {4.170081400874457, 4.74621221065718, 1};
Point(p11 + 12) = {3.971790638722116, 4.698606810542595, 1};
Point(p11 + 13) = {3.783388290196475, 4.620568002600332, 1};
Point(p11 + 14) = {3.609513446389784, 4.514017361277884, 1};
Point(p11 + 15) = {3.454447483014086, 4.381578516985915, 1};
Point(p11 + 16) = {3.322008638722115, 4.226512553610216, 1};
Point(p11 + 17) = {3.215457997399668, 4.052637709803525, 1};
Point(p11 + 18) = {3.137419189457405, 3.864235361277884, 1};
Point(p11 + 19) = {3.08981378934282, 3.665944599125543, 1};
Point(p11 + 20) = {3.073814, 3.462648, 1};
Point(p11 + 21) = {3.08981378934282, 3.259351400874458, 1};
Point(p11 + 22) = {3.137419189457405, 3.061060638722116, 1};
Point(p11 + 23) = {3.215457997399668, 2.872658290196477, 1};
Point(p11 + 24) = {3.322008638722115, 2.698783446389785, 1};
Point(p11 + 25) = {3.454447483014085, 2.543717483014086, 1};
Point(p11 + 26) = {3.609513446389784, 2.411278638722116, 1};
Point(p11 + 27) = {3.783388290196475, 2.304727997399668, 1};
Point(p11 + 28) = {3.971790638722116, 2.226689189457405, 1};
Point(p11 + 29) = {4.170081400874457, 2.179083789342821, 1};
Point(p11 + 30) = {4.373378, 2.163084, 1};
Point(p11 + 31) = {4.576674599125542, 2.179083789342821, 1};
Point(p11 + 32) = {4.774965361277884, 2.226689189457405, 1};
Point(p11 + 33) = {4.963367709803524, 2.304727997399668, 1};
Point(p11 + 34) = {5.137242553610215, 2.411278638722116, 1};
Point(p11 + 35) = {5.292308516985914, 2.543717483014086, 1};
Point(p11 + 36) = {5.424747361277884, 2.698783446389784, 1};
Point(p11 + 37) = {5.531298002600332, 2.872658290196476, 1};
Point(p11 + 38) = {5.609336810542595, 3.061060638722116, 1};
Point(p11 + 39) = {5.65694221065718, 3.259351400874457, 1};
Spline(11) = {9, p11 + 1, p11 + 2, p11 + 3, p11 + 4, p11 + 5, p11 + 6, p11 + 7, p11 + 8, p11 + 9, p11 + 10, p11 + 11, p11 + 12, p11 + 13, p11 + 14, p11 + 15, p11 + 16, p11 + 17, p11 + 18, p11 + 19, p11 + 20, p11 + 21, p11 + 22, p11 + 23, p11 + 24, p11 + 25, p11 + 26, p11 + 27, p11 + 28, p11 + 29, p11 + 30, p11 + 31, p11 + 32, p11 + 33, p11 + 34, p11 + 35, p11 + 36, p11 + 37, p11 + 38, p11 + 39, 9};
Line(12) = {4, 10};
Line(13) = {10, 7};
Line(14) = {5, 10};
p15 = newp;
Point(p15 + 1) = {21.28849908548127, 1.447889472671675, 0};
Point(p15 + 2) = {21.26976934361216, 1.525904462172927, 0};
Point(p15 + 3) = {21.23906596279794, 1.600028980545331, 0};
Point(p15 + 4) = {21.19714496217293, 1.668437836141385, 0};
Point(p15 + 5) = {21.14503857590034, 1.729446575900338, 0};
Point(p15 + 6) = {21.08402983614139, 1.781552962172927, 0};
Point(p15 + 7) = {21.01562098054533, 1.82347396279794, 0};
Point(p15 + 8) = {20.94149646217293, 1.854177343612163, 0};
Point(p15 + 9) = {20.86348147267168, 1.872907085481272, 0};
Point(p15 + 10) = {20.783497, 1.879202, 0};
Point(p15 + 11) = {20.70351252732832, 1.872907085481272, 0};
Point(p15 + 12) = {20.62549753782707, 1.854177343612163, 0};
Point(p15 + 13) = {20.55137301945467, 1.82347396279794, 0};
Point(p15 + 14) = {20.48296416385861, 1.781552962172927, 0};
Point(p15 + 15) = {20.42195542409966, 1.729446575900338, 0};
Point(p15 + 16) = {20.36984903782707, 1.668437836141385, 0};
Point(p15 + 17) = {20.32792803720206, 1.600028980545331, 0};
Point(p15 + 18) = {20.29722465638784, 1.525904462172927, 0};
Point(p15 + 19) = {20.27849491451873, 1.447889472671675, 0};
Point(p15 + 20) = {20.2722, 1.367905, 0};
Point(p15 + 21) = {20.27849491451873, 1.287920527328325, 0};
Point(p15 + 22) = {20.29722465638784, 1.209905537827072, 0};
Point(p15 + 23) = {20.32792803720206, 1.135781019454669, 0};
Point(p15 + 24) = {20.36984903782707, 1.067372163858615, 0};
Point(p15 + 25) = {20.42195542409966, 1.006363424099662, 0};
Point(p15 + 26) = {20.48296416385861, 0.9542570378270725, 0};
Point(p15 + 27) = {20.55137301945467, 0.91233603720206, 0};
Point(p15 + 28) = {20.62549753782707, 0.8816326563878368, 0};
Point(p15 + 29) = {20.70351252732832, 0.8629029145187278, 0};
Point(p15 + 30) = {20.783497, 0.8566079999999999, 0};
Point(p15 + 31) = {20.86348147267168, 0.8629029145187278, 0};
Point(p15 + 32) = {20.94149646217293, 0.8816326563878367, 0};
Point(p15 + 33) = {21.01562098054533, 0.9123360372020599, 0};
Point(p15 + 34) = {21.08402983614139, 0.9542570378270724, 0};
Point(p15 + 35) = {21.14503857590034, 1.006363424099662, 0};
Point(p15 + 36) = {21.19714496217293, 1.067372163858615, 0};
Point(p15 + 37) = {21.23906596279794, 1.135781019454669, 0};
Point(p15 + 38) = {21.26976934361216, 1.209905537827072, 0};
Point(p15 + 39) = {21.28849908548127, 1.287920527328325, 0};
Spline(15) = {11, p15 + 1, p15 + 2, p15 + 3, p15 + 4, p15 + 5, p15 + 6, p15 + 7, p15 + 8, p15 + 9, p15 + 10, p15 + 11, p15 + 12, p15 + 13, p15 + 14, p15 + 15, p15 + 16, p15 + 17, p15 + 18, p15 + 19, p15 + 20, p15 + 21, p15 + 22, p15 + 23, p15 + 24, p15 + 25, p15 + 26, p15 + 27, p15 + 28, p15 + 29, p15 + 30, p15 + 31, p15 + 32, p15 + 33, p15 + 34, p15 + 35, p15 + 36, p15 + 37, p15 + 38, p15 + 39, 11};
p16 = newp;
Point(p16 + 1) = {5.65694221065718, 3.665944599125543, 0};
Point(p16 + 2) = {5.609336810542595, 3.864235361277884, 0};
Point(p16 + 3) = {5.531298002600332, 4.052637709803524, 0};
Point(p16 + 4) = {5.424747361277884, 4.226512553610216, 0};
Point(p16 + 5) = {5.292308516985914, 4.381578516985915, 0};
Point(p16 + 6) = {5.137242553610215, 4.514017361277884, 0};
Point(p16 + 7) = {4.963367709803524, 4.620568002600332, 0};
Point(p16 + 8) = {4.774965361277884, 4.698606810542595, 0};
Point(p16 + 9) = {4.576674599125543, 4.74621221065718, 0};
Point(p16 + 10) = {4.373378, 4.762212, 0};
Point(p16 + 11) = {4.170081400874457, 4.74621221065718, 0};
Point(p16 + 12) = {3.971790638722116, 4.698606810542595, 0};
Point(p16 + 13) = {3.783388290196475, 4.620568002600332, 0};
Point(p16 + 14) = {3.609513446389784, 4.514017361277884, 0};
Point(p16 + 15) = {3.454447483014086, 4.381578516985915, 0};
Point(p16 + 16) = {3.322008638722115, 4.226512553610216, 0};
Point(p16 + 17) = {3.215457997399668, 4.052637709803525, 0};
Point(p16 + 18) = {3.137419189457405, 3.864235361277884, 0};
Point(p16 + 19) = {3.08981378934282, 3.665944599125543, 0};
Point(p16 + 20) = {3.073814, 3.462648, 0};
Point(p16 + 21) = {3.08981378934282, 3.259351400874458, 0};
Point(p16 + 22) = {3.137419189457405, 3.061060638722116, 0};
Point(p16 + 23) = {3.215457997399668, 2.872658290196477, 0};
Point(p16 + 24) = {3.322008638722115, 2.698783446389785, 0};
Point(p16 + 25) = {3.454447483014085, 2.543717483014086, 0};
Point(p16 + 26) = {3.609513446389784, 2.411278638722116, 0};
Point(p16 + 27) = {3.783388290196475, 2.304727997399668, 0};
Point(p16 + 28) = {3.971790638722116, 2.226689189457405, 0};
Point(p16 + 29) = {4.170081400874457, 2.179083789342821, 0};
Point(p16 + 30) = {4.373378, 2.163084, 0};
Point(p16 + 31) = {4.576674599125542, 2.179083789342821, 0};
Point(p16 + 32) = {4.774965361277884, 2.226689189457405, 0};
Point(p16 + 33) = {4.963367709803524, 2.304727997399668, 0};
Point(p16 + 34) = {5.137242553610215, 2.411278638722116, 0};
Point(p16 + 35) = {5.292308516985914, 2.543717483014086, 0};
Point(p16 + 36) = {5.424747361277884, 2.698783446389784, 0};
Point(p16 + 37) = {5.531298002600332, 2.872658290196476, 0};
Point(p16 + 38) = {5.609336810542595, 3.061060638722116, 0};
Point(p16 + 39) = {5.65694221065718, 3.259351400874457, 0};
Spline(16) = {12, p16 + 1, p16 + 2, p16 + 3, p16 + 4, p16 + 5, p16 + 6, p16 + 7, p16 + 8, p16 + 9, p16 + 10, p16 + 11, p16 + 12, p16 + 13, p16 + 14, p16 + 15, p16 + 16, p16 + 17, p16 + 18, p16 + 19, p16 + 20, p16 + 21, p16 + 22, p16 + 23, p16 + 24, p16 + 25, p16 + 26, p16 + 27, p16 + 28, p16 + 29, p16 + 30, p16 + 31, p16 + 32, p16 + 33, p16 + 34, p16 + 35, p16 + 36, p16 + 37, p16 + 38, p16 + 39, 12};
Line(17) = {11, 8};
Line(18) = {12, 9};
Curve Loop(1) = {-1, 4, 3, -2};
Plane Surface(1) = {1};
Curve Loop(2) = {-5, 1, 7, -6};
Plane Surface(2) = {2};
Curve Loop(3) = {-2, 7, 9, -8, -10, -11};
Plane Surface(3) = {3};
Curve Loop(4) = {-12, 3, 8, -13};
Plane Surface(4) = {4};
Curve Loop(5) = {-4, 5, 14, -12, -15, -16};
Plane Surface(5) = {5};
Curve Loop(6) = {-6, 14, 13, -9};
Plane Surface(6) = {6};
Curve Loop(7) = {-10, -17, 15, 17};
Surface(7) = {7};
Curve Loop(8) = {-11, -18, 16, 18};
Surface(8) = {8};
Surface Loop(1) = {1, 2, 3, 4, 5, 6, 7, 8};
Volume(1) = {1};
Physical Surface("INFLOW") = {1};
Physical Surface("OUTFLOW") = {6};
Physical Surface("OBSTACLE") = {7, 8};
Physical Surface("WALL_Y") = {2, 4};
Physical Surface("WALL_Z") = {3, 5};
Physical Volume("FLUID") = {1};
