cl__1 = 1.61513;
cl__2 = 1.839185;
cl__3 = 0.830021;
cl__4 = 0.771493;
cl__5 = 0.134552;
cl__6 = 0.120599;
Point(1) = {0.527715, -3.875027, 1, cl__1};
Point(2) = {0.527715, -3.875027, 0, cl__1};
Point(3) = {0.527715, 5.153244, 1, cl__2};
Point(4) = {0.527715, 5.153244, 0, cl__2};
Point(5) = {35.969708, -3.875027, 0, cl__3};
Point(6) = {35.969708, -3.875027, 1, cl__3};
Point(7) = {35.969708, 5.153244, 1, cl__4};
Point(8) = {22.459906, -1.372978, 1, cl__5};
Point(9) = {23.412343, 2.832514, 1, cl__6};
Point(10) = {35.969708, 5.153244, 0, cl__4};
Point(11) = {22.459906, -1.372978, 0, cl__5};
Point(12) = {23.412343, 2.832514, 0, cl__6};
Line(1) = {2, 1};
Line(2) = {1, 3};
Line(3) = {4, 3};
Line(4) = {2, 4};
Line(5) = {2, 5};
Line(6) = {5, 6};
Line(7) = {1, 6};
Line(8) = {3, 7};
Line(9) = {6, 7};
p10 = newp;
Point(p10 + 1) = {22.44334044066089, -1.162492611467999, 1};
Point(p10 + 2) = {22.39405166169242, -0.9571900717626096, 1};
Point(p10 + 3) = {22.31325331641289, -0.7621256107714446, 1};
Point(p10 + 4) = {22.20293492823739, -0.5821023629059362, 1};
Point(p10 + 5) = {22.06581290200856, -0.421553097991439, 1};
Point(p10 + 6) = {21.90526363709407, -0.2844310717626095, 1};
Point(p10 + 7) = {21.72524038922856, -0.1741126835871158, 1};
Point(p10 + 8) = {21.53017592823739, -0.09331433830757763, 1};
Point(p10 + 9) = {21.324873388532, -0.04402555933911145, 1};
Point(p10 + 10) = {21.114388, -0.02746000000000004, 1};
Point(p10 + 11) = {20.903902611468, -0.04402555933911168, 1};
Point(p10 + 12) = {20.69860007176261, -0.0933143383075774, 1};
Point(p10 + 13) = {20.50353561077145, -0.1741126835871156, 1};
Point(p10 + 14) = {20.32351236290594, -0.2844310717626095, 1};
Point(p10 + 15) = {20.16296309799144, -0.4215530979914389, 1};
Point(p10 + 16) = {20.02584107176261, -0.582102362905936, 1};
Point(p10 + 17) = {19.91552268358712, -0.7621256107714445, 1};
Point(p10 + 18) = {19.83472433830758, -0.9571900717626094, 1};
Point(p10 + 19) = {19.78543555933911, -1.162492611467999, 1};
Point(p10 + 20) = {19.76887, -1.372978, 1};
Point(p10 + 21) = {19.78543555933911, -1.583463388532001, 1};
Point(p10 + 22) = {19.83472433830758, -1.788765928237391, 1};
Point(p10 + 23) = {19.91552268358712, -1.983830389228555, 1};
Point(p10 + 24) = {20.02584107176261, -2.163853637094064, 1};
Point(p10 + 25) = {20.16296309799144, -2.324402902008561, 1};
Point(p10 + 26) = {20.32351236290594, -2.46152492823739, 1};
Point(p10 + 27) = {20.50353561077145, -2.571843316412884, 1};
Point(p10 + 28) = {20.69860007176261, -2.652641661692423, 1};
Point(p10 + 29) = {20.903902611468, -2.701930440660888, 1};
Point(p10 + 30) = {21.114388, -2.718496, 1};
Point(p10 + 31) = {21.324873388532, -2.701930440660889, 1};
Point(p10 + 32) = {21.53017592823739, -2.652641661692423, 1};
Point(p10 + 33) = {21.72524038922856, -2.571843316412885, 1};
Point(p10 + 34) = {21.90526363709407, -2.461524928237391, 1};
Point(p10 + 35) = {22.06581290200856, -2.324402902008561, 1};
Point(p10 + 36) = {22.20293492823739, -2.163853637094064, 1};
Point(p10 + 37) = {22.31325331641289, -1.983830389228556, 1};
Point(p10 + 38) = {22.39405166169242, -1.788765928237391, 1};
Point(p10 + 39) = {22.44334044066089, -1.583463388532002, 1};
Spline(10) = {8, p10 + 1, p10 + 2, p10 + 3, p10 + 4, p10 + 5, p10 + 6, p10 + 7, p10 + 8, p10 + 9, p10 + 10, p10 + 11, p10 + 12, p10 + 13, p10 + 14, p10 + 15, p10 + 16, p10 + 17, p10 + 18, p10 + 19, p10 + 20, p10 + 21, p10 + 22, p10 + 23, p10 + 24, p10 + 25, p10 + 26, p10 + 27, p10 + 28, p10 + 29, p10 + 30, p10 + 31, p10 + 32, p10 + 33, p10 + 34, p10 + 35, p10 + 36, p10 + 37, p10 + 38, p10 + 39, 8};
p11 = newp;
Point(p11 + 1) = {23.39749528649765, 3.021172087624938, 1};
Point(p11 + 2) = {23.35331774597376, 3.205184787012255, 1};
Point(p11 + 3) = {23.28089817609288, 3.380021094799897, 1};
Point(p11 + 4) = {23.18201978701225, 3.541375960841695, 1};
Point(p11 + 5) = {23.0591172928296, 3.685276292829602, 1};
Point(p11 + 6) = {22.91521696084169, 3.808178787012254, 1};
Point(p11 + 7) = {22.7538620947999, 3.907057176092882, 1};
Point(p11 + 8) = {22.57902578701225, 3.97947674597376, 1};
Point(p11 + 9) = {22.39501308762494, 4.023654286497649, 1};
Point(p11 + 10) = {22.206355, 4.038502, 1};
Point(p11 + 11) = {22.01769691237506, 4.023654286497649, 1};
Point(p11 + 12) = {21.83368421298774, 3.97947674597376, 1};
Point(p11 + 13) = {21.6588479052001, 3.907057176092882, 1};
Point(p11 + 14) = {21.4974930391583, 3.808178787012254, 1};
Point(p11 + 15) = {21.3535927071704, 3.685276292829602, 1};
Point(p11 + 16) = {21.23069021298775, 3.541375960841695, 1};
Point(p11 + 17) = {21.13181182390712, 3.380021094799897, 1};
Point(p11 + 18) = {21.05939225402624, 3.205184787012255, 1};
Point(p11 + 19) = {21.01521471350235, 3.021172087624938, 1};
Point(p11 + 20) = {21.000367, 2.832514, 1};
Point(p11 + 21) = {21.01521471350235, 2.643855912375062, 1};
Point(p11 + 22) = {21.05939225402624, 2.459843212987746, 1};
Point(p11 + 23) = {21.13181182390712, 2.285006905200104, 1};
Point(p11 + 24) = {21.23069021298775, 2.123652039158305, 1};
Point(p11 + 25) = {21.3535927071704, 1.979751707170398, 1};
Point(p11 + 26) = {21.4974930391583, 1.856849212987746, 1};
Point(p11 + 27) = {21.6588479052001, 1.757970823907119, 1};
Point(p11 + 28) = {21.83368421298774, 1.685551254026241, 1};
Point(p11 + 29) = {22.01769691237506, 1.641373713502351, 1};
Point(p11 + 30) = {22.206355, 1.626526, 1};
Point(p11 + 31) = {22.39501308762494, 1.641373713502351, 1};
Point(p11 + 32) = {22.57902578701225, 1.68555125402624, 1};
Point(p11 + 33) = {22.7538620947999, 1.757970823907119, 1};
Point(p11 + 34) = {22.91521696084169, 1.856849212987746, 1};
Point(p11 + 35) = {23.0591172928296, 1.979751707170398, 1};
Point(p11 + 36) = {23.18201978701225, 2.123652039158305, 1};
Point(p11 + 37) = {23.28089817609288, 2.285006905200103, 1};
Point(p11 + 38) = {23.35331774597376, 2.459843212987746, 1};
Point(p11 + 39) = {23.39749528649765, 2.643855912375062, 1};
Spline(11) = {9, p11 + 1, p11 + 2, p11 + 3, p11 + 4, p11 + 5, p11 + 6, p11 + 7, p11 + 8, p11 + 9, p11 + 10, p11 + 11, p11 + 12, p11 + 13, p11 + 14, p11 + 15, p11 + 16, p11 + 17, p11 + 18, p11 + 19, p11 + 20, p11 + 21, p11 + 22, p11 + 23, p11 + 24, p11 + 25, p11 + 26, p11 + 27, p11 + 28, p11 + 29, p11 + 30, p11 + 31, p11 + 32, p11 + 33, p11 + 34, p11 + 35, p11 + 36, p11 + 37, p11 + 38, p11 + 39, 9};
Line(12) = {4, 10};
Line(13) = {10, 7};
Line(14) = {5, 10};
p15 = newp;
Point(p15 + 1) = {22.44334044066089, -1.162492611467999, 0};
Point(p15 + 2) = {22.39405166169242, -0.9571900717626096, 0};
Point(p15 + 3) = {22.31325331641289, -0.7621256107714446, 0};
Point(p15 + 4) = {22.20293492823739, -0.5821023629059362, 0};
Point(p15 + 5) = {22.06581290200856, -0.421553097991439, 0};
Point(p15 + 6) = {21.90526363709407, -0.2844310717626095, 0};
Point(p15 + 7) = {21.72524038922856, -0.1741126835871158, 0};
Point(p15 + 8) = {21.53017592823739, -0.09331433830757763, 0};
Point(p15 + 9) = {21.324873388532, -0.04402555933911145, 0};
Point(p15 + 10) = {21.114388, -0.02746000000000004, 0};
Point(p15 + 11) = {20.903902611468, -0.04402555933911168, 0};
Point(p15 + 12) = {20.69860007176261, -0.0933143383075774, 0};
Point(p15 + 13) = {20.50353561077145, -0.1741126835871156, 0};
Point(p15 + 14) = {20.32351236290594, -0.2844310717626095, 0};
Point(p15 + 15) = {20.16296309799144, -0.4215530979914389, 0};
Point(p15 + 16) = {20.02584107176261, -0.582102362905936, 0};
Point(p15 + 17) = {19.91552268358712, -0.7621256107714445, 0};
Point(p15 + 18) = {19.83472433830758, -0.9571900717626094, 0};
Point(p15 + 19) = {19.78543555933911, -1.162492611467999, 0};
Point(p15 + 20) = {19.76887, -1.372978, 0};
Point(p15 + 21) = {19.78543555933911, -1.583463388532001, 0};
Point(p15 + 22) = {19.83472433830758, -1.788765928237391, 0};
Point(p15 + 23) = {19.91552268358712, -1.983830389228555, 0};
Point(p15 + 24) = {20.02584107176261, -2.163853637094064, 0};
Point(p15 + 25) = {20.16296309799144, -2.324402902008561, 0};
Point(p15 + 26) = {20.32351236290594, -2.46152492823739, 0};
Point(p15 + 27) = {20.50353561077145, -2.571843316412884, 0};
Point(p15 + 28) = {20.69860007176261, -2.652641661692423, 0};
Point(p15 + 29) = {20.903902611468, -2.701930440660888, 0};
Point(p15 + 30) = {21.114388, -2.718496, 0};
Point(p15 + 31) = {21.324873388532, -2.701930440660889, 0};
Point(p15 + 32) = {21.53017592823739, -2.652641661692423, 0};
Point(p15 + 33) = {21.72524038922856, -2.571843316412885, 0};
Point(p15 + 34) = {21.90526363709407, -2.461524928237391, 0};
Point(p15 + 35) = {22.06581290200856, -2.324402902008561, 0};
Point(p15 + 36) = {22.20293492823739, -2.163853637094064, 0};
Point(p15 + 37) = {22.31325331641289, -1.983830389228556, 0};
Point(p15 + 38) = {22.39405166169242, -1.788765928237391, 0};
Point(p15 + 39) = {22.44334044066089, -1.583463388532002, 0};
Spline(15) = {11, p15 + 1, p15 + 2, p15 + 3, p15 + 4, p15 + 5, p15 + 6, p15 + 7, p15 + 8, p15 + 9, p15 + 10, p15 + 11, p15 + 12, p15 + 13, p15 + 14, p15 + 15, p15 + 16, p15 + 17, p15 + 18, p15 + 19, p15 + 20, p15 + 21, p15 + 22, p15 + 23, p15 + 24, p15 + 25, p15 + 26, p15 + 27, p15 + 28, p15 + 29, p15 + 30, p15 + 31, p15 + 32, p15 + 33, p15 + 34, p15 + 35, p15 + 36, p15 + 37, p15 + 38, p15 + 39, 11};
p16 = newp;
Point(p16 + 1) = {23.39749528649765, 3.021172087624938, 0};
Point(p16 + 2) = {23.35331774597376, 3.205184787012255, 0};
Point(p16 + 3) = {23.28089817609288, 3.380021094799897, 0};
Point(p16 + 4) = {23.18201978701225, 3.541375960841695, 0};
Point(p16 + 5) = {23.0591172928296, 3.685276292829602, 0};
Point(p16 + 6) = {22.91521696084169, 3.808178787012254, 0};
Point(p16 + 7) = {22.7538620947999, 3.907057176092882, 0};
Point(p16 + 8) = {22.57902578701225, 3.97947674597376, 0};
Point(p16 + 9) = {22.39501308762494, 4.023654286497649, 0};
Point(p16 + 10) = {22.206355, 4.038502, 0};
Point(p16 + 11) = {22.01769691237506, 4.023654286497649, 0};
Point(p16 + 12) = {21.83368421298774, 3.97947674597376, 0};
Point(p16 + 13) = {21.6588479052001, 3.907057176092882, 0};
Point(p16 + 14) = {21.4974930391583, 3.808178787012254, 0};
Point(p16 + 15) = {21.3535927071704, 3.685276292829602, 0};
Point(p16 + 16) = {21.23069021298775, 3.541375960841695, 0};
Point(p16 + 17) = {21.13181182390712, 3.380021094799897, 0};
Point(p16 + 18) = {21.05939225402624, 3.205184787012255, 0};
Point(p16 + 19) = {21.01521471350235, 3.021172087624938, 0};
Point(p16 + 20) = {21.000367, 2.832514, 0};
Point(p16 + 21) = {21.01521471350235, 2.643855912375062, 0};
Point(p16 + 22) = {21.05939225402624, 2.459843212987746, 0};
Point(p16 + 23) = {21.13181182390712, 2.285006905200104, 0};
Point(p16 + 24) = {21.23069021298775, 2.123652039158305, 0};
Point(p16 + 25) = {21.3535927071704, 1.979751707170398, 0};
Point(p16 + 26) = {21.4974930391583, 1.856849212987746, 0};
Point(p16 + 27) = {21.6588479052001, 1.757970823907119, 0};
Point(p16 + 28) = {21.83368421298774, 1.685551254026241, 0};
Point(p16 + 29) = {22.01769691237506, 1.641373713502351, 0};
Point(p16 + 30) = {22.206355, 1.626526, 0};
Point(p16 + 31) = {22.39501308762494, 1.641373713502351, 0};
Point(p16 + 32) = {22.57902578701225, 1.68555125402624, 0};
Point(p16 + 33) = {22.7538620947999, 1.757970823907119, 0};
Point(p16 + 34) = {22.91521696084169, 1.856849212987746, 0};
Point(p16 + 35) = {23.0591172928296, 1.979751707170398, 0};
Point(p16 + 36) = {23.18201978701225, 2.123652039158305, 0};
Point(p16 + 37) = {23.28089817609288, 2.285006905200103, 0};
Point(p16 + 38) = {23.35331774597376, 2.459843212987746, 0};
Point(p16 + 39) = {23.39749528649765, 2.643855912375062, 0};
Spline(16) = {12, p16 + 1, p16 + 2, p16 + 3, p16 + 4, p16 + 5, p16 + 6, p16 + 7, p16 + 8, p16 + 9, p16 + 10, p16 + 11, p16 + 12, p16 + 13, p16 + 14, p16 + 15, p16 + 16, p16 + 17, p16 + 18, p16 + 19, p16 + 20, p16 + 21, p16 + 22, p16 + 23, p16 + 24, p16 + 25, p16 + 26, p16 + 27, p16 + 28, p16 + 29, p16 + 30, p16 + 31, p16 + 32, p16 + 33, p16 + 34, p16 + 35, p16 + 36, p16 + 37, p16 + 38, p16 + 39, 12};
Line(17) = {11, 8};
Line(18) = {12, 9};
Curve Loop(1) = {-1, 4, 3, -2};
Plane Surface(1) = {1};
Curve Loop(2) = {-5, 1, 7, -6};
Plane Surface(2) = {2};
Curve Loop(3) = {-2, 7, 9, -8, -10, -11};
Plane Surface(3) = {3};
Curve Loop(4) = {-12, 3, 8, -13};
Plane Surface(4) = {4};
Curve Loop(5) = {-4, 5, 14, -12, -15, -16};
Plane Surface(5) = {5};
Curve Loop(6) = {-6, 14, 13, -9};
Plane Surface(6) = {6};
Curve Loop(7) = {-10, -17, 15, 17};
Surface(7) = {7};
Curve Loop(8) = {-11, -18, 16, 18};
Surface(8) = {8};
Surface Loop(1) = {1, 2, 3, 4, 5, 6, 7, 8};
Volume(1) = {1};
Physical Surface("INFLOW") = {1};
Physical Surface("OUTFLOW") = {6};
Physical Surface("OBSTACLE") = {7, 8};
Physical Surface("WALL_Y") = {2, 4};
Physical Surface("WALL_Z") = {3, 5};
Physical Volume("FLUID") = {1};
