cl__1 = 0.174161;
cl__2 = 0.218242;
cl__3 = 6.124546;
cl__4 = 5.620661;
cl__5 = 0.123076;
cl__6 = 0.125316;
Point(1) = {0.476807, -4.467279, 1, cl__1};
Point(2) = {0.476807, -4.467279, 0, cl__1};
Point(3) = {0.476807, 4.732677999999999, 1, cl__2};
Point(4) = {0.476807, 4.732677999999999, 0, cl__2};
Point(5) = {32.261909, -4.467279, 0, cl__3};
Point(6) = {32.261909, -4.467279, 1, cl__3};
Point(7) = {32.261909, 4.732677999999999, 1, cl__4};
Point(8) = {3.515819, -1.075752, 1, cl__5};
Point(9) = {5.677211, 2.515825, 1, cl__6};
Point(10) = {32.261909, 4.732677999999999, 0, cl__4};
Point(11) = {3.515819, -1.075752, 0, cl__5};
Point(12) = {5.677211, 2.515825, 0, cl__6};
Line(1) = {2, 1};
Line(2) = {1, 3};
Line(3) = {4, 3};
Line(4) = {2, 4};
Line(5) = {2, 5};
Line(6) = {5, 6};
Line(7) = {1, 6};
Line(8) = {3, 7};
Line(9) = {6, 7};
p10 = newp;
Point(p10 + 1) = {3.500666265135894, -0.8832182485036904, 1};
Point(p10 + 2) = {3.455581171164972, -0.6954253169521066, 1};
Point(p10 + 3) = {3.381673862729648, -0.5169972905690562, 1};
Point(p10 + 4) = {3.280764183047894, -0.3523276595327589, 1};
Point(p10 + 5) = {3.155336863333499, -0.2054711366665013, 1};
Point(p10 + 6) = {3.008480340467241, -0.08004381695210649, 1};
Point(p10 + 7) = {2.843810709430944, 0.02086586272964808, 1};
Point(p10 + 8) = {2.665382683047893, 0.09477317116497197, 1};
Point(p10 + 9) = {2.47758975149631, 0.1398582651358935, 1};
Point(p10 + 10) = {2.285056, 0.155011, 1};
Point(p10 + 11) = {2.09252224850369, 0.1398582651358935, 1};
Point(p10 + 12) = {1.904729316952107, 0.09477317116497219, 1};
Point(p10 + 13) = {1.726301290569056, 0.0208658627296483, 1};
Point(p10 + 14) = {1.561631659532759, -0.08004381695210649, 1};
Point(p10 + 15) = {1.414775136666501, -0.2054711366665012, 1};
Point(p10 + 16) = {1.289347816952107, -0.3523276595327588, 1};
Point(p10 + 17) = {1.188438137270352, -0.5169972905690561, 1};
Point(p10 + 18) = {1.114530828835028, -0.6954253169521065, 1};
Point(p10 + 19) = {1.069445734864106, -0.8832182485036902, 1};
Point(p10 + 20) = {1.054293, -1.075752, 1};
Point(p10 + 21) = {1.069445734864106, -1.26828575149631, 1};
Point(p10 + 22) = {1.114530828835028, -1.456078683047894, 1};
Point(p10 + 23) = {1.188438137270351, -1.634506709430943, 1};
Point(p10 + 24) = {1.289347816952106, -1.799176340467241, 1};
Point(p10 + 25) = {1.414775136666501, -1.946032863333499, 1};
Point(p10 + 26) = {1.561631659532759, -2.071460183047893, 1};
Point(p10 + 27) = {1.726301290569056, -2.172369862729648, 1};
Point(p10 + 28) = {1.904729316952106, -2.246277171164972, 1};
Point(p10 + 29) = {2.09252224850369, -2.291362265135894, 1};
Point(p10 + 30) = {2.285056, -2.306515, 1};
Point(p10 + 31) = {2.477589751496309, -2.291362265135894, 1};
Point(p10 + 32) = {2.665382683047893, -2.246277171164972, 1};
Point(p10 + 33) = {2.843810709430944, -2.172369862729648, 1};
Point(p10 + 34) = {3.008480340467241, -2.071460183047894, 1};
Point(p10 + 35) = {3.155336863333499, -1.946032863333499, 1};
Point(p10 + 36) = {3.280764183047893, -1.799176340467242, 1};
Point(p10 + 37) = {3.381673862729648, -1.634506709430944, 1};
Point(p10 + 38) = {3.455581171164972, -1.456078683047894, 1};
Point(p10 + 39) = {3.500666265135894, -1.26828575149631, 1};
Spline(10) = {8, p10 + 1, p10 + 2, p10 + 3, p10 + 4, p10 + 5, p10 + 6, p10 + 7, p10 + 8, p10 + 9, p10 + 10, p10 + 11, p10 + 12, p10 + 13, p10 + 14, p10 + 15, p10 + 16, p10 + 17, p10 + 18, p10 + 19, p10 + 20, p10 + 21, p10 + 22, p10 + 23, p10 + 24, p10 + 25, p10 + 26, p10 + 27, p10 + 28, p10 + 29, p10 + 30, p10 + 31, p10 + 32, p10 + 33, p10 + 34, p10 + 35, p10 + 36, p10 + 37, p10 + 38, p10 + 39, 8};
p11 = newp;
Point(p11 + 1) = {5.661782545523521, 2.711862101340885, 1};
Point(p11 + 2) = {5.615877081847402, 2.90307211863692, 1};
Point(p11 + 3) = {5.540624953838846, 3.084746826672611, 1};
Point(p11 + 4) = {5.43787911863692, 3.252412791192331, 1};
Point(p11 + 5) = {5.310169519698172, 3.401941519698171, 1};
Point(p11 + 6) = {5.160640791192331, 3.52965111863692, 1};
Point(p11 + 7) = {4.992974826672611, 3.632396953838847, 1};
Point(p11 + 8) = {4.81130011863692, 3.707649081847402, 1};
Point(p11 + 9) = {4.620090101340885, 3.753554545523522, 1};
Point(p11 + 10) = {4.424053, 3.768983, 1};
Point(p11 + 11) = {4.228015898659114, 3.753554545523522, 1};
Point(p11 + 12) = {4.03680588136308, 3.707649081847402, 1};
Point(p11 + 13) = {3.855131173327389, 3.632396953838847, 1};
Point(p11 + 14) = {3.687465208807669, 3.52965111863692, 1};
Point(p11 + 15) = {3.537936480301828, 3.401941519698171, 1};
Point(p11 + 16) = {3.41022688136308, 3.252412791192331, 1};
Point(p11 + 17) = {3.307481046161153, 3.084746826672611, 1};
Point(p11 + 18) = {3.232228918152598, 2.903072118636921, 1};
Point(p11 + 19) = {3.186323454476478, 2.711862101340886, 1};
Point(p11 + 20) = {3.170895, 2.515825, 1};
Point(p11 + 21) = {3.186323454476478, 2.319787898659115, 1};
Point(p11 + 22) = {3.232228918152598, 2.128577881363079, 1};
Point(p11 + 23) = {3.307481046161153, 1.94690317332739, 1};
Point(p11 + 24) = {3.410226881363079, 1.779237208807669, 1};
Point(p11 + 25) = {3.537936480301828, 1.629708480301828, 1};
Point(p11 + 26) = {3.687465208807668, 1.50199888136308, 1};
Point(p11 + 27) = {3.855131173327389, 1.399253046161153, 1};
Point(p11 + 28) = {4.03680588136308, 1.324000918152598, 1};
Point(p11 + 29) = {4.228015898659114, 1.278095454476478, 1};
Point(p11 + 30) = {4.424053, 1.262667, 1};
Point(p11 + 31) = {4.620090101340885, 1.278095454476478, 1};
Point(p11 + 32) = {4.81130011863692, 1.324000918152598, 1};
Point(p11 + 33) = {4.992974826672611, 1.399253046161153, 1};
Point(p11 + 34) = {5.16064079119233, 1.501998881363079, 1};
Point(p11 + 35) = {5.310169519698171, 1.629708480301828, 1};
Point(p11 + 36) = {5.43787911863692, 1.779237208807669, 1};
Point(p11 + 37) = {5.540624953838846, 1.946903173327389, 1};
Point(p11 + 38) = {5.615877081847402, 2.128577881363079, 1};
Point(p11 + 39) = {5.661782545523521, 2.319787898659114, 1};
Spline(11) = {9, p11 + 1, p11 + 2, p11 + 3, p11 + 4, p11 + 5, p11 + 6, p11 + 7, p11 + 8, p11 + 9, p11 + 10, p11 + 11, p11 + 12, p11 + 13, p11 + 14, p11 + 15, p11 + 16, p11 + 17, p11 + 18, p11 + 19, p11 + 20, p11 + 21, p11 + 22, p11 + 23, p11 + 24, p11 + 25, p11 + 26, p11 + 27, p11 + 28, p11 + 29, p11 + 30, p11 + 31, p11 + 32, p11 + 33, p11 + 34, p11 + 35, p11 + 36, p11 + 37, p11 + 38, p11 + 39, 9};
Line(12) = {4, 10};
Line(13) = {10, 7};
Line(14) = {5, 10};
p15 = newp;
Point(p15 + 1) = {3.500666265135894, -0.8832182485036904, 0};
Point(p15 + 2) = {3.455581171164972, -0.6954253169521066, 0};
Point(p15 + 3) = {3.381673862729648, -0.5169972905690562, 0};
Point(p15 + 4) = {3.280764183047894, -0.3523276595327589, 0};
Point(p15 + 5) = {3.155336863333499, -0.2054711366665013, 0};
Point(p15 + 6) = {3.008480340467241, -0.08004381695210649, 0};
Point(p15 + 7) = {2.843810709430944, 0.02086586272964808, 0};
Point(p15 + 8) = {2.665382683047893, 0.09477317116497197, 0};
Point(p15 + 9) = {2.47758975149631, 0.1398582651358935, 0};
Point(p15 + 10) = {2.285056, 0.155011, 0};
Point(p15 + 11) = {2.09252224850369, 0.1398582651358935, 0};
Point(p15 + 12) = {1.904729316952107, 0.09477317116497219, 0};
Point(p15 + 13) = {1.726301290569056, 0.0208658627296483, 0};
Point(p15 + 14) = {1.561631659532759, -0.08004381695210649, 0};
Point(p15 + 15) = {1.414775136666501, -0.2054711366665012, 0};
Point(p15 + 16) = {1.289347816952107, -0.3523276595327588, 0};
Point(p15 + 17) = {1.188438137270352, -0.5169972905690561, 0};
Point(p15 + 18) = {1.114530828835028, -0.6954253169521065, 0};
Point(p15 + 19) = {1.069445734864106, -0.8832182485036902, 0};
Point(p15 + 20) = {1.054293, -1.075752, 0};
Point(p15 + 21) = {1.069445734864106, -1.26828575149631, 0};
Point(p15 + 22) = {1.114530828835028, -1.456078683047894, 0};
Point(p15 + 23) = {1.188438137270351, -1.634506709430943, 0};
Point(p15 + 24) = {1.289347816952106, -1.799176340467241, 0};
Point(p15 + 25) = {1.414775136666501, -1.946032863333499, 0};
Point(p15 + 26) = {1.561631659532759, -2.071460183047893, 0};
Point(p15 + 27) = {1.726301290569056, -2.172369862729648, 0};
Point(p15 + 28) = {1.904729316952106, -2.246277171164972, 0};
Point(p15 + 29) = {2.09252224850369, -2.291362265135894, 0};
Point(p15 + 30) = {2.285056, -2.306515, 0};
Point(p15 + 31) = {2.477589751496309, -2.291362265135894, 0};
Point(p15 + 32) = {2.665382683047893, -2.246277171164972, 0};
Point(p15 + 33) = {2.843810709430944, -2.172369862729648, 0};
Point(p15 + 34) = {3.008480340467241, -2.071460183047894, 0};
Point(p15 + 35) = {3.155336863333499, -1.946032863333499, 0};
Point(p15 + 36) = {3.280764183047893, -1.799176340467242, 0};
Point(p15 + 37) = {3.381673862729648, -1.634506709430944, 0};
Point(p15 + 38) = {3.455581171164972, -1.456078683047894, 0};
Point(p15 + 39) = {3.500666265135894, -1.26828575149631, 0};
Spline(15) = {11, p15 + 1, p15 + 2, p15 + 3, p15 + 4, p15 + 5, p15 + 6, p15 + 7, p15 + 8, p15 + 9, p15 + 10, p15 + 11, p15 + 12, p15 + 13, p15 + 14, p15 + 15, p15 + 16, p15 + 17, p15 + 18, p15 + 19, p15 + 20, p15 + 21, p15 + 22, p15 + 23, p15 + 24, p15 + 25, p15 + 26, p15 + 27, p15 + 28, p15 + 29, p15 + 30, p15 + 31, p15 + 32, p15 + 33, p15 + 34, p15 + 35, p15 + 36, p15 + 37, p15 + 38, p15 + 39, 11};
p16 = newp;
Point(p16 + 1) = {5.661782545523521, 2.711862101340885, 0};
Point(p16 + 2) = {5.615877081847402, 2.90307211863692, 0};
Point(p16 + 3) = {5.540624953838846, 3.084746826672611, 0};
Point(p16 + 4) = {5.43787911863692, 3.252412791192331, 0};
Point(p16 + 5) = {5.310169519698172, 3.401941519698171, 0};
Point(p16 + 6) = {5.160640791192331, 3.52965111863692, 0};
Point(p16 + 7) = {4.992974826672611, 3.632396953838847, 0};
Point(p16 + 8) = {4.81130011863692, 3.707649081847402, 0};
Point(p16 + 9) = {4.620090101340885, 3.753554545523522, 0};
Point(p16 + 10) = {4.424053, 3.768983, 0};
Point(p16 + 11) = {4.228015898659114, 3.753554545523522, 0};
Point(p16 + 12) = {4.03680588136308, 3.707649081847402, 0};
Point(p16 + 13) = {3.855131173327389, 3.632396953838847, 0};
Point(p16 + 14) = {3.687465208807669, 3.52965111863692, 0};
Point(p16 + 15) = {3.537936480301828, 3.401941519698171, 0};
Point(p16 + 16) = {3.41022688136308, 3.252412791192331, 0};
Point(p16 + 17) = {3.307481046161153, 3.084746826672611, 0};
Point(p16 + 18) = {3.232228918152598, 2.903072118636921, 0};
Point(p16 + 19) = {3.186323454476478, 2.711862101340886, 0};
Point(p16 + 20) = {3.170895, 2.515825, 0};
Point(p16 + 21) = {3.186323454476478, 2.319787898659115, 0};
Point(p16 + 22) = {3.232228918152598, 2.128577881363079, 0};
Point(p16 + 23) = {3.307481046161153, 1.94690317332739, 0};
Point(p16 + 24) = {3.410226881363079, 1.779237208807669, 0};
Point(p16 + 25) = {3.537936480301828, 1.629708480301828, 0};
Point(p16 + 26) = {3.687465208807668, 1.50199888136308, 0};
Point(p16 + 27) = {3.855131173327389, 1.399253046161153, 0};
Point(p16 + 28) = {4.03680588136308, 1.324000918152598, 0};
Point(p16 + 29) = {4.228015898659114, 1.278095454476478, 0};
Point(p16 + 30) = {4.424053, 1.262667, 0};
Point(p16 + 31) = {4.620090101340885, 1.278095454476478, 0};
Point(p16 + 32) = {4.81130011863692, 1.324000918152598, 0};
Point(p16 + 33) = {4.992974826672611, 1.399253046161153, 0};
Point(p16 + 34) = {5.16064079119233, 1.501998881363079, 0};
Point(p16 + 35) = {5.310169519698171, 1.629708480301828, 0};
Point(p16 + 36) = {5.43787911863692, 1.779237208807669, 0};
Point(p16 + 37) = {5.540624953838846, 1.946903173327389, 0};
Point(p16 + 38) = {5.615877081847402, 2.128577881363079, 0};
Point(p16 + 39) = {5.661782545523521, 2.319787898659114, 0};
Spline(16) = {12, p16 + 1, p16 + 2, p16 + 3, p16 + 4, p16 + 5, p16 + 6, p16 + 7, p16 + 8, p16 + 9, p16 + 10, p16 + 11, p16 + 12, p16 + 13, p16 + 14, p16 + 15, p16 + 16, p16 + 17, p16 + 18, p16 + 19, p16 + 20, p16 + 21, p16 + 22, p16 + 23, p16 + 24, p16 + 25, p16 + 26, p16 + 27, p16 + 28, p16 + 29, p16 + 30, p16 + 31, p16 + 32, p16 + 33, p16 + 34, p16 + 35, p16 + 36, p16 + 37, p16 + 38, p16 + 39, 12};
Line(17) = {11, 8};
Line(18) = {12, 9};
Curve Loop(1) = {-1, 4, 3, -2};
Plane Surface(1) = {1};
Curve Loop(2) = {-5, 1, 7, -6};
Plane Surface(2) = {2};
Curve Loop(3) = {-2, 7, 9, -8, -10, -11};
Plane Surface(3) = {3};
Curve Loop(4) = {-12, 3, 8, -13};
Plane Surface(4) = {4};
Curve Loop(5) = {-4, 5, 14, -12, -15, -16};
Plane Surface(5) = {5};
Curve Loop(6) = {-6, 14, 13, -9};
Plane Surface(6) = {6};
Curve Loop(7) = {-10, -17, 15, 17};
Surface(7) = {7};
Curve Loop(8) = {-11, -18, 16, 18};
Surface(8) = {8};
Surface Loop(1) = {1, 2, 3, 4, 5, 6, 7, 8};
Volume(1) = {1};
Physical Surface("INFLOW") = {1};
Physical Surface("OUTFLOW") = {6};
Physical Surface("OBSTACLE") = {7, 8};
Physical Surface("WALL_Y") = {2, 4};
Physical Surface("WALL_Z") = {3, 5};
Physical Volume("FLUID") = {1};
