cl__1 = 1.208601;
cl__2 = 1.250727;
cl__3 = 0.238763;
cl__4 = 0.573276;
cl__5 = 0.119751;
cl__6 = 0.099479;
Point(1) = {0.422005, -4.550246, 1, cl__1};
Point(2) = {0.422005, -4.550246, 0, cl__1};
Point(3) = {0.422005, 5.181947000000001, 1, cl__2};
Point(4) = {0.422005, 5.181947000000001, 0, cl__2};
Point(5) = {30.635106, -4.550246, 0, cl__3};
Point(6) = {30.635106, -4.550246, 1, cl__3};
Point(7) = {30.635106, 5.181947000000001, 1, cl__4};
Point(8) = {29.96279, -1.491321, 1, cl__5};
Point(9) = {13.773839, -0.2594800000000003, 1, cl__6};
Point(10) = {30.635106, 5.181947000000001, 0, cl__4};
Point(11) = {29.96279, -1.491321, 0, cl__5};
Point(12) = {13.773839, -0.2594800000000003, 0, cl__6};
Line(1) = {2, 1};
Line(2) = {1, 3};
Line(3) = {4, 3};
Line(4) = {2, 4};
Line(5) = {2, 5};
Line(6) = {5, 6};
Line(7) = {1, 6};
Line(8) = {3, 7};
Line(9) = {6, 7};
p10 = newp;
Point(p10 + 1) = {29.94804661549945, -1.303988538031813, 1};
Point(p10 + 2) = {29.90417949305467, -1.121268822998079, 1};
Point(p10 + 3) = {29.83226878680691, -0.9476610206948963, 1};
Point(p10 + 4) = {29.73408517700192, -0.7874399313862313, 1};
Point(p10 + 5) = {29.61204626996583, -0.6445507300341727, 1};
Point(p10 + 6) = {29.46915706861377, -0.5225118229980791, 1};
Point(p10 + 7) = {29.3089359793051, -0.4243282131930908, 1};
Point(p10 + 8) = {29.13532817700192, -0.3524175069453255, 1};
Point(p10 + 9) = {28.95260846196819, -0.3085503845005542, 1};
Point(p10 + 10) = {28.765276, -0.2938069999999999, 1};
Point(p10 + 11) = {28.57794353803181, -0.3085503845005542, 1};
Point(p10 + 12) = {28.39522382299808, -0.3524175069453253, 1};
Point(p10 + 13) = {28.2216160206949, -0.4243282131930908, 1};
Point(p10 + 14) = {28.06139493138623, -0.5225118229980791, 1};
Point(p10 + 15) = {27.91850573003417, -0.6445507300341726, 1};
Point(p10 + 16) = {27.79646682299808, -0.7874399313862311, 1};
Point(p10 + 17) = {27.69828321319309, -0.9476610206948962, 1};
Point(p10 + 18) = {27.62637250694533, -1.121268822998079, 1};
Point(p10 + 19) = {27.58250538450055, -1.303988538031813, 1};
Point(p10 + 20) = {27.567762, -1.491321, 1};
Point(p10 + 21) = {27.58250538450055, -1.678653461968187, 1};
Point(p10 + 22) = {27.62637250694533, -1.861373177001921, 1};
Point(p10 + 23) = {27.69828321319309, -2.034980979305103, 1};
Point(p10 + 24) = {27.79646682299808, -2.195202068613769, 1};
Point(p10 + 25) = {27.91850573003417, -2.338091269965827, 1};
Point(p10 + 26) = {28.06139493138623, -2.460130177001921, 1};
Point(p10 + 27) = {28.2216160206949, -2.558313786806909, 1};
Point(p10 + 28) = {28.39522382299808, -2.630224493054675, 1};
Point(p10 + 29) = {28.57794353803181, -2.674091615499446, 1};
Point(p10 + 30) = {28.765276, -2.688835, 1};
Point(p10 + 31) = {28.95260846196819, -2.674091615499446, 1};
Point(p10 + 32) = {29.13532817700192, -2.630224493054675, 1};
Point(p10 + 33) = {29.3089359793051, -2.558313786806909, 1};
Point(p10 + 34) = {29.46915706861377, -2.460130177001921, 1};
Point(p10 + 35) = {29.61204626996583, -2.338091269965827, 1};
Point(p10 + 36) = {29.73408517700192, -2.195202068613769, 1};
Point(p10 + 37) = {29.83226878680691, -2.034980979305104, 1};
Point(p10 + 38) = {29.90417949305467, -1.861373177001921, 1};
Point(p10 + 39) = {29.94804661549945, -1.678653461968187, 1};
Spline(10) = {8, p10 + 1, p10 + 2, p10 + 3, p10 + 4, p10 + 5, p10 + 6, p10 + 7, p10 + 8, p10 + 9, p10 + 10, p10 + 11, p10 + 12, p10 + 13, p10 + 14, p10 + 15, p10 + 16, p10 + 17, p10 + 18, p10 + 19, p10 + 20, p10 + 21, p10 + 22, p10 + 23, p10 + 24, p10 + 25, p10 + 26, p10 + 27, p10 + 28, p10 + 29, p10 + 30, p10 + 31, p10 + 32, p10 + 33, p10 + 34, p10 + 35, p10 + 36, p10 + 37, p10 + 38, p10 + 39, 8};
p11 = newp;
Point(p11 + 1) = {13.7615914966523, -0.1038607149570938, 1};
Point(p11 + 2) = {13.72515056078874, 0.04792670681725958, 1};
Point(p11 + 3) = {13.66541348919082, 0.192144755245404, 1};
Point(p11 + 4) = {13.58385120681726, 0.3252423033427771, 1};
Point(p11 + 5) = {13.48247204774978, 0.4439420477497844, 1};
Point(p11 + 6) = {13.36377230334278, 0.5453212068172597, 1};
Point(p11 + 7) = {13.2306747552454, 0.6268834891908222, 1};
Point(p11 + 8) = {13.08645670681726, 0.6866205607887395, 1};
Point(p11 + 9) = {12.93466928504291, 0.7230614966522966, 1};
Point(p11 + 10) = {12.77905, 0.735309, 1};
Point(p11 + 11) = {12.62343071495709, 0.7230614966522964, 1};
Point(p11 + 12) = {12.47164329318274, 0.6866205607887397, 1};
Point(p11 + 13) = {12.3274252447546, 0.6268834891908224, 1};
Point(p11 + 14) = {12.19432769665722, 0.5453212068172597, 1};
Point(p11 + 15) = {12.07562795225022, 0.4439420477497845, 1};
Point(p11 + 16) = {11.97424879318274, 0.3252423033427772, 1};
Point(p11 + 17) = {11.89268651080918, 0.1921447552454041, 1};
Point(p11 + 18) = {11.83294943921126, 0.04792670681725969, 1};
Point(p11 + 19) = {11.7965085033477, -0.1038607149570936, 1};
Point(p11 + 20) = {11.784261, -0.2594799999999999, 1};
Point(p11 + 21) = {11.7965085033477, -0.4150992850429061, 1};
Point(p11 + 22) = {11.83294943921126, -0.5668867068172598, 1};
Point(p11 + 23) = {11.89268651080918, -0.7111047552454035, 1};
Point(p11 + 24) = {11.97424879318274, -0.844202303342777, 1};
Point(p11 + 25) = {12.07562795225022, -0.9629020477497843, 1};
Point(p11 + 26) = {12.19432769665722, -1.06428120681726, 1};
Point(p11 + 27) = {12.3274252447546, -1.145843489190822, 1};
Point(p11 + 28) = {12.47164329318274, -1.20558056078874, 1};
Point(p11 + 29) = {12.62343071495709, -1.242021496652296, 1};
Point(p11 + 30) = {12.77905, -1.254269, 1};
Point(p11 + 31) = {12.93466928504291, -1.242021496652296, 1};
Point(p11 + 32) = {13.08645670681726, -1.20558056078874, 1};
Point(p11 + 33) = {13.2306747552454, -1.145843489190822, 1};
Point(p11 + 34) = {13.36377230334278, -1.06428120681726, 1};
Point(p11 + 35) = {13.48247204774978, -0.9629020477497845, 1};
Point(p11 + 36) = {13.58385120681726, -0.8442023033427772, 1};
Point(p11 + 37) = {13.66541348919082, -0.7111047552454042, 1};
Point(p11 + 38) = {13.72515056078874, -0.5668867068172598, 1};
Point(p11 + 39) = {13.7615914966523, -0.4150992850429064, 1};
Spline(11) = {9, p11 + 1, p11 + 2, p11 + 3, p11 + 4, p11 + 5, p11 + 6, p11 + 7, p11 + 8, p11 + 9, p11 + 10, p11 + 11, p11 + 12, p11 + 13, p11 + 14, p11 + 15, p11 + 16, p11 + 17, p11 + 18, p11 + 19, p11 + 20, p11 + 21, p11 + 22, p11 + 23, p11 + 24, p11 + 25, p11 + 26, p11 + 27, p11 + 28, p11 + 29, p11 + 30, p11 + 31, p11 + 32, p11 + 33, p11 + 34, p11 + 35, p11 + 36, p11 + 37, p11 + 38, p11 + 39, 9};
Line(12) = {4, 10};
Line(13) = {10, 7};
Line(14) = {5, 10};
p15 = newp;
Point(p15 + 1) = {29.94804661549945, -1.303988538031813, 0};
Point(p15 + 2) = {29.90417949305467, -1.121268822998079, 0};
Point(p15 + 3) = {29.83226878680691, -0.9476610206948963, 0};
Point(p15 + 4) = {29.73408517700192, -0.7874399313862313, 0};
Point(p15 + 5) = {29.61204626996583, -0.6445507300341727, 0};
Point(p15 + 6) = {29.46915706861377, -0.5225118229980791, 0};
Point(p15 + 7) = {29.3089359793051, -0.4243282131930908, 0};
Point(p15 + 8) = {29.13532817700192, -0.3524175069453255, 0};
Point(p15 + 9) = {28.95260846196819, -0.3085503845005542, 0};
Point(p15 + 10) = {28.765276, -0.2938069999999999, 0};
Point(p15 + 11) = {28.57794353803181, -0.3085503845005542, 0};
Point(p15 + 12) = {28.39522382299808, -0.3524175069453253, 0};
Point(p15 + 13) = {28.2216160206949, -0.4243282131930908, 0};
Point(p15 + 14) = {28.06139493138623, -0.5225118229980791, 0};
Point(p15 + 15) = {27.91850573003417, -0.6445507300341726, 0};
Point(p15 + 16) = {27.79646682299808, -0.7874399313862311, 0};
Point(p15 + 17) = {27.69828321319309, -0.9476610206948962, 0};
Point(p15 + 18) = {27.62637250694533, -1.121268822998079, 0};
Point(p15 + 19) = {27.58250538450055, -1.303988538031813, 0};
Point(p15 + 20) = {27.567762, -1.491321, 0};
Point(p15 + 21) = {27.58250538450055, -1.678653461968187, 0};
Point(p15 + 22) = {27.62637250694533, -1.861373177001921, 0};
Point(p15 + 23) = {27.69828321319309, -2.034980979305103, 0};
Point(p15 + 24) = {27.79646682299808, -2.195202068613769, 0};
Point(p15 + 25) = {27.91850573003417, -2.338091269965827, 0};
Point(p15 + 26) = {28.06139493138623, -2.460130177001921, 0};
Point(p15 + 27) = {28.2216160206949, -2.558313786806909, 0};
Point(p15 + 28) = {28.39522382299808, -2.630224493054675, 0};
Point(p15 + 29) = {28.57794353803181, -2.674091615499446, 0};
Point(p15 + 30) = {28.765276, -2.688835, 0};
Point(p15 + 31) = {28.95260846196819, -2.674091615499446, 0};
Point(p15 + 32) = {29.13532817700192, -2.630224493054675, 0};
Point(p15 + 33) = {29.3089359793051, -2.558313786806909, 0};
Point(p15 + 34) = {29.46915706861377, -2.460130177001921, 0};
Point(p15 + 35) = {29.61204626996583, -2.338091269965827, 0};
Point(p15 + 36) = {29.73408517700192, -2.195202068613769, 0};
Point(p15 + 37) = {29.83226878680691, -2.034980979305104, 0};
Point(p15 + 38) = {29.90417949305467, -1.861373177001921, 0};
Point(p15 + 39) = {29.94804661549945, -1.678653461968187, 0};
Spline(15) = {11, p15 + 1, p15 + 2, p15 + 3, p15 + 4, p15 + 5, p15 + 6, p15 + 7, p15 + 8, p15 + 9, p15 + 10, p15 + 11, p15 + 12, p15 + 13, p15 + 14, p15 + 15, p15 + 16, p15 + 17, p15 + 18, p15 + 19, p15 + 20, p15 + 21, p15 + 22, p15 + 23, p15 + 24, p15 + 25, p15 + 26, p15 + 27, p15 + 28, p15 + 29, p15 + 30, p15 + 31, p15 + 32, p15 + 33, p15 + 34, p15 + 35, p15 + 36, p15 + 37, p15 + 38, p15 + 39, 11};
p16 = newp;
Point(p16 + 1) = {13.7615914966523, -0.1038607149570938, 0};
Point(p16 + 2) = {13.72515056078874, 0.04792670681725958, 0};
Point(p16 + 3) = {13.66541348919082, 0.192144755245404, 0};
Point(p16 + 4) = {13.58385120681726, 0.3252423033427771, 0};
Point(p16 + 5) = {13.48247204774978, 0.4439420477497844, 0};
Point(p16 + 6) = {13.36377230334278, 0.5453212068172597, 0};
Point(p16 + 7) = {13.2306747552454, 0.6268834891908222, 0};
Point(p16 + 8) = {13.08645670681726, 0.6866205607887395, 0};
Point(p16 + 9) = {12.93466928504291, 0.7230614966522966, 0};
Point(p16 + 10) = {12.77905, 0.735309, 0};
Point(p16 + 11) = {12.62343071495709, 0.7230614966522964, 0};
Point(p16 + 12) = {12.47164329318274, 0.6866205607887397, 0};
Point(p16 + 13) = {12.3274252447546, 0.6268834891908224, 0};
Point(p16 + 14) = {12.19432769665722, 0.5453212068172597, 0};
Point(p16 + 15) = {12.07562795225022, 0.4439420477497845, 0};
Point(p16 + 16) = {11.97424879318274, 0.3252423033427772, 0};
Point(p16 + 17) = {11.89268651080918, 0.1921447552454041, 0};
Point(p16 + 18) = {11.83294943921126, 0.04792670681725969, 0};
Point(p16 + 19) = {11.7965085033477, -0.1038607149570936, 0};
Point(p16 + 20) = {11.784261, -0.2594799999999999, 0};
Point(p16 + 21) = {11.7965085033477, -0.4150992850429061, 0};
Point(p16 + 22) = {11.83294943921126, -0.5668867068172598, 0};
Point(p16 + 23) = {11.89268651080918, -0.7111047552454035, 0};
Point(p16 + 24) = {11.97424879318274, -0.844202303342777, 0};
Point(p16 + 25) = {12.07562795225022, -0.9629020477497843, 0};
Point(p16 + 26) = {12.19432769665722, -1.06428120681726, 0};
Point(p16 + 27) = {12.3274252447546, -1.145843489190822, 0};
Point(p16 + 28) = {12.47164329318274, -1.20558056078874, 0};
Point(p16 + 29) = {12.62343071495709, -1.242021496652296, 0};
Point(p16 + 30) = {12.77905, -1.254269, 0};
Point(p16 + 31) = {12.93466928504291, -1.242021496652296, 0};
Point(p16 + 32) = {13.08645670681726, -1.20558056078874, 0};
Point(p16 + 33) = {13.2306747552454, -1.145843489190822, 0};
Point(p16 + 34) = {13.36377230334278, -1.06428120681726, 0};
Point(p16 + 35) = {13.48247204774978, -0.9629020477497845, 0};
Point(p16 + 36) = {13.58385120681726, -0.8442023033427772, 0};
Point(p16 + 37) = {13.66541348919082, -0.7111047552454042, 0};
Point(p16 + 38) = {13.72515056078874, -0.5668867068172598, 0};
Point(p16 + 39) = {13.7615914966523, -0.4150992850429064, 0};
Spline(16) = {12, p16 + 1, p16 + 2, p16 + 3, p16 + 4, p16 + 5, p16 + 6, p16 + 7, p16 + 8, p16 + 9, p16 + 10, p16 + 11, p16 + 12, p16 + 13, p16 + 14, p16 + 15, p16 + 16, p16 + 17, p16 + 18, p16 + 19, p16 + 20, p16 + 21, p16 + 22, p16 + 23, p16 + 24, p16 + 25, p16 + 26, p16 + 27, p16 + 28, p16 + 29, p16 + 30, p16 + 31, p16 + 32, p16 + 33, p16 + 34, p16 + 35, p16 + 36, p16 + 37, p16 + 38, p16 + 39, 12};
Line(17) = {11, 8};
Line(18) = {12, 9};
Curve Loop(1) = {-1, 4, 3, -2};
Plane Surface(1) = {1};
Curve Loop(2) = {-5, 1, 7, -6};
Plane Surface(2) = {2};
Curve Loop(3) = {-2, 7, 9, -8, -10, -11};
Plane Surface(3) = {3};
Curve Loop(4) = {-12, 3, 8, -13};
Plane Surface(4) = {4};
Curve Loop(5) = {-4, 5, 14, -12, -15, -16};
Plane Surface(5) = {5};
Curve Loop(6) = {-6, 14, 13, -9};
Plane Surface(6) = {6};
Curve Loop(7) = {-10, -17, 15, 17};
Surface(7) = {7};
Curve Loop(8) = {-11, -18, 16, 18};
Surface(8) = {8};
Surface Loop(1) = {1, 2, 3, 4, 5, 6, 7, 8};
Volume(1) = {1};
Physical Surface("INFLOW") = {1};
Physical Surface("OUTFLOW") = {6};
Physical Surface("OBSTACLE") = {7, 8};
Physical Surface("WALL_Y") = {2, 4};
Physical Surface("WALL_Z") = {3, 5};
Physical Volume("FLUID") = {1};
