cl__1 = 0.844339;
cl__2 = 1.114732;
cl__3 = 1.313024;
cl__4 = 1.07301;
cl__5 = 0.081971;
cl__6 = 0.056423;
Point(1) = {0.5213, -3.220106, 1, cl__1};
Point(2) = {0.5213, -3.220106, 0, cl__1};
Point(3) = {0.5213, 4.473602, 1, cl__2};
Point(4) = {0.5213, 4.473602, 0, cl__2};
Point(5) = {32.74597499999999, -3.220106, 0, cl__3};
Point(6) = {32.74597499999999, -3.220106, 1, cl__3};
Point(7) = {32.74597499999999, 4.473602, 1, cl__4};
Point(8) = {10.176157, -1.756357, 1, cl__5};
Point(9) = {23.288292, 1.588129, 1, cl__6};
Point(10) = {32.74597499999999, 4.473602, 0, cl__4};
Point(11) = {10.176157, -1.756357, 0, cl__5};
Point(12) = {23.288292, 1.588129, 0, cl__6};
Line(1) = {2, 1};
Line(2) = {1, 3};
Line(3) = {4, 3};
Line(4) = {2, 4};
Line(5) = {2, 5};
Line(6) = {5, 6};
Line(7) = {1, 6};
Line(8) = {3, 7};
Line(9) = {6, 7};
p10 = newp;
Point(p10 + 1) = {10.16606500966924, -1.628126104661872, 1};
Point(p10 + 2) = {10.1360375369723, -1.503052679540912, 1};
Point(p10 + 3) = {10.08681395794245, -1.384216447458496, 1};
Point(p10 + 4) = {10.01960632045909, -1.274543550843337, 1};
Point(p10 + 5) = {9.936069499606424, -1.176734500393575, 1};
Point(p10 + 6) = {9.838260449156662, -1.093197679540912, 1};
Point(p10 + 7) = {9.728587552541503, -1.025990042057553, 1};
Point(p10 + 8) = {9.609751320459088, -0.9767664630276996, 1};
Point(p10 + 9) = {9.484677895338127, -0.9467389903307595, 1};
Point(p10 + 10) = {9.356446999999999, -0.9366469999999999, 1};
Point(p10 + 11) = {9.228216104661872, -0.9467389903307596, 1};
Point(p10 + 12) = {9.103142679540911, -0.9767664630276995, 1};
Point(p10 + 13) = {8.984306447458495, -1.025990042057553, 1};
Point(p10 + 14) = {8.874633550843336, -1.093197679540912, 1};
Point(p10 + 15) = {8.776824500393575, -1.176734500393575, 1};
Point(p10 + 16) = {8.69328767954091, -1.274543550843337, 1};
Point(p10 + 17) = {8.626080042057552, -1.384216447458496, 1};
Point(p10 + 18) = {8.576856463027699, -1.503052679540912, 1};
Point(p10 + 19) = {8.546828990330759, -1.628126104661872, 1};
Point(p10 + 20) = {8.536736999999999, -1.756357, 1};
Point(p10 + 21) = {8.546828990330759, -1.884587895338127, 1};
Point(p10 + 22) = {8.576856463027699, -2.009661320459089, 1};
Point(p10 + 23) = {8.626080042057552, -2.128497552541504, 1};
Point(p10 + 24) = {8.69328767954091, -2.238170449156663, 1};
Point(p10 + 25) = {8.776824500393575, -2.335979499606425, 1};
Point(p10 + 26) = {8.874633550843336, -2.419516320459088, 1};
Point(p10 + 27) = {8.984306447458495, -2.486723957942447, 1};
Point(p10 + 28) = {9.103142679540911, -2.5359475369723, 1};
Point(p10 + 29) = {9.228216104661872, -2.56597500966924, 1};
Point(p10 + 30) = {9.356446999999999, -2.576067, 1};
Point(p10 + 31) = {9.484677895338127, -2.56597500966924, 1};
Point(p10 + 32) = {9.609751320459088, -2.535947536972301, 1};
Point(p10 + 33) = {9.728587552541503, -2.486723957942447, 1};
Point(p10 + 34) = {9.838260449156662, -2.419516320459088, 1};
Point(p10 + 35) = {9.936069499606424, -2.335979499606425, 1};
Point(p10 + 36) = {10.01960632045909, -2.238170449156663, 1};
Point(p10 + 37) = {10.08681395794245, -2.128497552541504, 1};
Point(p10 + 38) = {10.1360375369723, -2.009661320459088, 1};
Point(p10 + 39) = {10.16606500966924, -1.884587895338128, 1};
Spline(10) = {8, p10 + 1, p10 + 2, p10 + 3, p10 + 4, p10 + 5, p10 + 6, p10 + 7, p10 + 8, p10 + 9, p10 + 10, p10 + 11, p10 + 12, p10 + 13, p10 + 14, p10 + 15, p10 + 16, p10 + 17, p10 + 18, p10 + 19, p10 + 20, p10 + 21, p10 + 22, p10 + 23, p10 + 24, p10 + 25, p10 + 26, p10 + 27, p10 + 28, p10 + 29, p10 + 30, p10 + 31, p10 + 32, p10 + 33, p10 + 34, p10 + 35, p10 + 36, p10 + 37, p10 + 38, p10 + 39, 8};
p11 = newp;
Point(p11 + 1) = {23.28134540472566, 1.676393861775184, 1};
Point(p11 + 2) = {23.2606766671327, 1.762485349719182, 1};
Point(p11 + 3) = {23.22679472013628, 1.844283605677545, 1};
Point(p11 + 4) = {23.18053384971918, 1.91977448511573, 1};
Point(p11 + 5) = {23.1230331520421, 1.987099152042104, 1};
Point(p11 + 6) = {23.05570848511573, 2.044599849719182, 1};
Point(p11 + 7) = {22.98021760567755, 2.090860720136278, 1};
Point(p11 + 8) = {22.89841934971918, 2.124742667132698, 1};
Point(p11 + 9) = {22.81232786177518, 2.145411404725654, 1};
Point(p11 + 10) = {22.724063, 2.152358, 1};
Point(p11 + 11) = {22.63579813822482, 2.145411404725654, 1};
Point(p11 + 12) = {22.54970665028082, 2.124742667132698, 1};
Point(p11 + 13) = {22.46790839432246, 2.090860720136279, 1};
Point(p11 + 14) = {22.39241751488427, 2.044599849719182, 1};
Point(p11 + 15) = {22.3250928479579, 1.987099152042104, 1};
Point(p11 + 16) = {22.26759215028082, 1.91977448511573, 1};
Point(p11 + 17) = {22.22133127986372, 1.844283605677545, 1};
Point(p11 + 18) = {22.1874493328673, 1.762485349719182, 1};
Point(p11 + 19) = {22.16678059527435, 1.676393861775184, 1};
Point(p11 + 20) = {22.159834, 1.588129, 1};
Point(p11 + 21) = {22.16678059527435, 1.499864138224815, 1};
Point(p11 + 22) = {22.1874493328673, 1.413772650280817, 1};
Point(p11 + 23) = {22.22133127986372, 1.331974394322455, 1};
Point(p11 + 24) = {22.26759215028082, 1.25648351488427, 1};
Point(p11 + 25) = {22.3250928479579, 1.189158847957895, 1};
Point(p11 + 26) = {22.39241751488427, 1.131658150280818, 1};
Point(p11 + 27) = {22.46790839432246, 1.085397279863721, 1};
Point(p11 + 28) = {22.54970665028082, 1.051515332867302, 1};
Point(p11 + 29) = {22.63579813822482, 1.030846595274346, 1};
Point(p11 + 30) = {22.724063, 1.0239, 1};
Point(p11 + 31) = {22.81232786177518, 1.030846595274346, 1};
Point(p11 + 32) = {22.89841934971918, 1.051515332867302, 1};
Point(p11 + 33) = {22.98021760567755, 1.085397279863721, 1};
Point(p11 + 34) = {23.05570848511573, 1.131658150280818, 1};
Point(p11 + 35) = {23.1230331520421, 1.189158847957895, 1};
Point(p11 + 36) = {23.18053384971918, 1.25648351488427, 1};
Point(p11 + 37) = {23.22679472013628, 1.331974394322455, 1};
Point(p11 + 38) = {23.2606766671327, 1.413772650280818, 1};
Point(p11 + 39) = {23.28134540472566, 1.499864138224815, 1};
Spline(11) = {9, p11 + 1, p11 + 2, p11 + 3, p11 + 4, p11 + 5, p11 + 6, p11 + 7, p11 + 8, p11 + 9, p11 + 10, p11 + 11, p11 + 12, p11 + 13, p11 + 14, p11 + 15, p11 + 16, p11 + 17, p11 + 18, p11 + 19, p11 + 20, p11 + 21, p11 + 22, p11 + 23, p11 + 24, p11 + 25, p11 + 26, p11 + 27, p11 + 28, p11 + 29, p11 + 30, p11 + 31, p11 + 32, p11 + 33, p11 + 34, p11 + 35, p11 + 36, p11 + 37, p11 + 38, p11 + 39, 9};
Line(12) = {4, 10};
Line(13) = {10, 7};
Line(14) = {5, 10};
p15 = newp;
Point(p15 + 1) = {10.16606500966924, -1.628126104661872, 0};
Point(p15 + 2) = {10.1360375369723, -1.503052679540912, 0};
Point(p15 + 3) = {10.08681395794245, -1.384216447458496, 0};
Point(p15 + 4) = {10.01960632045909, -1.274543550843337, 0};
Point(p15 + 5) = {9.936069499606424, -1.176734500393575, 0};
Point(p15 + 6) = {9.838260449156662, -1.093197679540912, 0};
Point(p15 + 7) = {9.728587552541503, -1.025990042057553, 0};
Point(p15 + 8) = {9.609751320459088, -0.9767664630276996, 0};
Point(p15 + 9) = {9.484677895338127, -0.9467389903307595, 0};
Point(p15 + 10) = {9.356446999999999, -0.9366469999999999, 0};
Point(p15 + 11) = {9.228216104661872, -0.9467389903307596, 0};
Point(p15 + 12) = {9.103142679540911, -0.9767664630276995, 0};
Point(p15 + 13) = {8.984306447458495, -1.025990042057553, 0};
Point(p15 + 14) = {8.874633550843336, -1.093197679540912, 0};
Point(p15 + 15) = {8.776824500393575, -1.176734500393575, 0};
Point(p15 + 16) = {8.69328767954091, -1.274543550843337, 0};
Point(p15 + 17) = {8.626080042057552, -1.384216447458496, 0};
Point(p15 + 18) = {8.576856463027699, -1.503052679540912, 0};
Point(p15 + 19) = {8.546828990330759, -1.628126104661872, 0};
Point(p15 + 20) = {8.536736999999999, -1.756357, 0};
Point(p15 + 21) = {8.546828990330759, -1.884587895338127, 0};
Point(p15 + 22) = {8.576856463027699, -2.009661320459089, 0};
Point(p15 + 23) = {8.626080042057552, -2.128497552541504, 0};
Point(p15 + 24) = {8.69328767954091, -2.238170449156663, 0};
Point(p15 + 25) = {8.776824500393575, -2.335979499606425, 0};
Point(p15 + 26) = {8.874633550843336, -2.419516320459088, 0};
Point(p15 + 27) = {8.984306447458495, -2.486723957942447, 0};
Point(p15 + 28) = {9.103142679540911, -2.5359475369723, 0};
Point(p15 + 29) = {9.228216104661872, -2.56597500966924, 0};
Point(p15 + 30) = {9.356446999999999, -2.576067, 0};
Point(p15 + 31) = {9.484677895338127, -2.56597500966924, 0};
Point(p15 + 32) = {9.609751320459088, -2.535947536972301, 0};
Point(p15 + 33) = {9.728587552541503, -2.486723957942447, 0};
Point(p15 + 34) = {9.838260449156662, -2.419516320459088, 0};
Point(p15 + 35) = {9.936069499606424, -2.335979499606425, 0};
Point(p15 + 36) = {10.01960632045909, -2.238170449156663, 0};
Point(p15 + 37) = {10.08681395794245, -2.128497552541504, 0};
Point(p15 + 38) = {10.1360375369723, -2.009661320459088, 0};
Point(p15 + 39) = {10.16606500966924, -1.884587895338128, 0};
Spline(15) = {11, p15 + 1, p15 + 2, p15 + 3, p15 + 4, p15 + 5, p15 + 6, p15 + 7, p15 + 8, p15 + 9, p15 + 10, p15 + 11, p15 + 12, p15 + 13, p15 + 14, p15 + 15, p15 + 16, p15 + 17, p15 + 18, p15 + 19, p15 + 20, p15 + 21, p15 + 22, p15 + 23, p15 + 24, p15 + 25, p15 + 26, p15 + 27, p15 + 28, p15 + 29, p15 + 30, p15 + 31, p15 + 32, p15 + 33, p15 + 34, p15 + 35, p15 + 36, p15 + 37, p15 + 38, p15 + 39, 11};
p16 = newp;
Point(p16 + 1) = {23.28134540472566, 1.676393861775184, 0};
Point(p16 + 2) = {23.2606766671327, 1.762485349719182, 0};
Point(p16 + 3) = {23.22679472013628, 1.844283605677545, 0};
Point(p16 + 4) = {23.18053384971918, 1.91977448511573, 0};
Point(p16 + 5) = {23.1230331520421, 1.987099152042104, 0};
Point(p16 + 6) = {23.05570848511573, 2.044599849719182, 0};
Point(p16 + 7) = {22.98021760567755, 2.090860720136278, 0};
Point(p16 + 8) = {22.89841934971918, 2.124742667132698, 0};
Point(p16 + 9) = {22.81232786177518, 2.145411404725654, 0};
Point(p16 + 10) = {22.724063, 2.152358, 0};
Point(p16 + 11) = {22.63579813822482, 2.145411404725654, 0};
Point(p16 + 12) = {22.54970665028082, 2.124742667132698, 0};
Point(p16 + 13) = {22.46790839432246, 2.090860720136279, 0};
Point(p16 + 14) = {22.39241751488427, 2.044599849719182, 0};
Point(p16 + 15) = {22.3250928479579, 1.987099152042104, 0};
Point(p16 + 16) = {22.26759215028082, 1.91977448511573, 0};
Point(p16 + 17) = {22.22133127986372, 1.844283605677545, 0};
Point(p16 + 18) = {22.1874493328673, 1.762485349719182, 0};
Point(p16 + 19) = {22.16678059527435, 1.676393861775184, 0};
Point(p16 + 20) = {22.159834, 1.588129, 0};
Point(p16 + 21) = {22.16678059527435, 1.499864138224815, 0};
Point(p16 + 22) = {22.1874493328673, 1.413772650280817, 0};
Point(p16 + 23) = {22.22133127986372, 1.331974394322455, 0};
Point(p16 + 24) = {22.26759215028082, 1.25648351488427, 0};
Point(p16 + 25) = {22.3250928479579, 1.189158847957895, 0};
Point(p16 + 26) = {22.39241751488427, 1.131658150280818, 0};
Point(p16 + 27) = {22.46790839432246, 1.085397279863721, 0};
Point(p16 + 28) = {22.54970665028082, 1.051515332867302, 0};
Point(p16 + 29) = {22.63579813822482, 1.030846595274346, 0};
Point(p16 + 30) = {22.724063, 1.0239, 0};
Point(p16 + 31) = {22.81232786177518, 1.030846595274346, 0};
Point(p16 + 32) = {22.89841934971918, 1.051515332867302, 0};
Point(p16 + 33) = {22.98021760567755, 1.085397279863721, 0};
Point(p16 + 34) = {23.05570848511573, 1.131658150280818, 0};
Point(p16 + 35) = {23.1230331520421, 1.189158847957895, 0};
Point(p16 + 36) = {23.18053384971918, 1.25648351488427, 0};
Point(p16 + 37) = {23.22679472013628, 1.331974394322455, 0};
Point(p16 + 38) = {23.2606766671327, 1.413772650280818, 0};
Point(p16 + 39) = {23.28134540472566, 1.499864138224815, 0};
Spline(16) = {12, p16 + 1, p16 + 2, p16 + 3, p16 + 4, p16 + 5, p16 + 6, p16 + 7, p16 + 8, p16 + 9, p16 + 10, p16 + 11, p16 + 12, p16 + 13, p16 + 14, p16 + 15, p16 + 16, p16 + 17, p16 + 18, p16 + 19, p16 + 20, p16 + 21, p16 + 22, p16 + 23, p16 + 24, p16 + 25, p16 + 26, p16 + 27, p16 + 28, p16 + 29, p16 + 30, p16 + 31, p16 + 32, p16 + 33, p16 + 34, p16 + 35, p16 + 36, p16 + 37, p16 + 38, p16 + 39, 12};
Line(17) = {11, 8};
Line(18) = {12, 9};
Curve Loop(1) = {-1, 4, 3, -2};
Plane Surface(1) = {1};
Curve Loop(2) = {-5, 1, 7, -6};
Plane Surface(2) = {2};
Curve Loop(3) = {-2, 7, 9, -8, -10, -11};
Plane Surface(3) = {3};
Curve Loop(4) = {-12, 3, 8, -13};
Plane Surface(4) = {4};
Curve Loop(5) = {-4, 5, 14, -12, -15, -16};
Plane Surface(5) = {5};
Curve Loop(6) = {-6, 14, 13, -9};
Plane Surface(6) = {6};
Curve Loop(7) = {-10, -17, 15, 17};
Surface(7) = {7};
Curve Loop(8) = {-11, -18, 16, 18};
Surface(8) = {8};
Surface Loop(1) = {1, 2, 3, 4, 5, 6, 7, 8};
Volume(1) = {1};
Physical Surface("INFLOW") = {1};
Physical Surface("OUTFLOW") = {6};
Physical Surface("OBSTACLE") = {7, 8};
Physical Surface("WALL_Y") = {2, 4};
Physical Surface("WALL_Z") = {3, 5};
Physical Volume("FLUID") = {1};
