cl__1 = 1.292886;
cl__2 = 1.184562;
cl__3 = 0.347811;
cl__4 = 0.461657;
cl__5 = 0.08115700000000001;
cl__6 = 0.138973;
Point(1) = {0.532096, -3.341346, 1, cl__1};
Point(2) = {0.532096, -3.341346, 0, cl__1};
Point(3) = {0.532096, 4.443571, 1, cl__2};
Point(4) = {0.532096, 4.443571, 0, cl__2};
Point(5) = {37.563068, -3.341346, 0, cl__3};
Point(6) = {37.563068, -3.341346, 1, cl__3};
Point(7) = {37.563068, 4.443571, 1, cl__4};
Point(8) = {35.49767600000001, -0.1594490000000002, 1, cl__5};
Point(9) = {15.008913, 2.46812, 1, cl__6};
Point(10) = {37.563068, 4.443571, 0, cl__4};
Point(11) = {35.49767600000001, -0.1594490000000002, 0, cl__5};
Point(12) = {15.008913, 2.46812, 0, cl__6};
Line(1) = {2, 1};
Line(2) = {1, 3};
Line(3) = {4, 3};
Line(4) = {2, 4};
Line(5) = {2, 5};
Line(6) = {5, 6};
Line(7) = {1, 6};
Line(8) = {3, 7};
Line(9) = {6, 7};
p10 = newp;
Point(p10 + 1) = {35.48768418964182, -0.03249101190390472, 1};
Point(p10 + 2) = {35.45795479009921, 0.09134084917585916, 1};
Point(p10 + 3) = {35.40921983785513, 0.2089974318451231, 1};
Point(p10 + 4) = {35.34267934917586, 0.3175816405587593, 1};
Point(p10 + 5) = {35.25997177172791, 0.4144197717279098, 1};
Point(p10 + 6) = {35.16313364055876, 0.4971273491758592, 1};
Point(p10 + 7) = {35.05454943184512, 0.5636678378551261, 1};
Point(p10 + 8) = {34.93689284917586, 0.6124027900992066, 1};
Point(p10 + 9) = {34.8130609880961, 0.6421321896418177, 1};
Point(p10 + 10) = {34.686103, 0.6521239999999999, 1};
Point(p10 + 11) = {34.55914501190391, 0.6421321896418177, 1};
Point(p10 + 12) = {34.43531315082414, 0.6124027900992066, 1};
Point(p10 + 13) = {34.31765656815488, 0.5636678378551263, 1};
Point(p10 + 14) = {34.20907235944124, 0.4971273491758592, 1};
Point(p10 + 15) = {34.11223422827209, 0.4144197717279099, 1};
Point(p10 + 16) = {34.02952665082415, 0.3175816405587594, 1};
Point(p10 + 17) = {33.96298616214488, 0.2089974318451233, 1};
Point(p10 + 18) = {33.9142512099008, 0.09134084917585927, 1};
Point(p10 + 19) = {33.88452181035819, -0.03249101190390463, 1};
Point(p10 + 20) = {33.87453, -0.1594489999999999, 1};
Point(p10 + 21) = {33.88452181035819, -0.2864069880960952, 1};
Point(p10 + 22) = {33.9142512099008, -0.4102388491758595, 1};
Point(p10 + 23) = {33.96298616214488, -0.5278954318451228, 1};
Point(p10 + 24) = {34.02952665082415, -0.6364796405587592, 1};
Point(p10 + 25) = {34.11223422827209, -0.7333177717279098, 1};
Point(p10 + 26) = {34.20907235944124, -0.8160253491758591, 1};
Point(p10 + 27) = {34.31765656815488, -0.8825658378551262, 1};
Point(p10 + 28) = {34.43531315082414, -0.9313007900992067, 1};
Point(p10 + 29) = {34.55914501190391, -0.9610301896418176, 1};
Point(p10 + 30) = {34.686103, -0.9710220000000001, 1};
Point(p10 + 31) = {34.8130609880961, -0.9610301896418176, 1};
Point(p10 + 32) = {34.93689284917586, -0.9313007900992067, 1};
Point(p10 + 33) = {35.05454943184512, -0.8825658378551262, 1};
Point(p10 + 34) = {35.16313364055876, -0.8160253491758593, 1};
Point(p10 + 35) = {35.25997177172791, -0.73331777172791, 1};
Point(p10 + 36) = {35.34267934917586, -0.6364796405587595, 1};
Point(p10 + 37) = {35.40921983785513, -0.5278954318451233, 1};
Point(p10 + 38) = {35.45795479009921, -0.4102388491758593, 1};
Point(p10 + 39) = {35.48768418964182, -0.2864069880960954, 1};
Spline(10) = {8, p10 + 1, p10 + 2, p10 + 3, p10 + 4, p10 + 5, p10 + 6, p10 + 7, p10 + 8, p10 + 9, p10 + 10, p10 + 11, p10 + 12, p10 + 13, p10 + 14, p10 + 15, p10 + 16, p10 + 17, p10 + 18, p10 + 19, p10 + 20, p10 + 21, p10 + 22, p10 + 23, p10 + 24, p10 + 25, p10 + 26, p10 + 27, p10 + 28, p10 + 29, p10 + 30, p10 + 31, p10 + 32, p10 + 33, p10 + 34, p10 + 35, p10 + 36, p10 + 37, p10 + 38, p10 + 39, 8};
p11 = newp;
Point(p11 + 1) = {14.99180316682192, 2.6855210433625, 1};
Point(p11 + 2) = {14.9408949681648, 2.897568951524718, 1};
Point(p11 + 3) = {14.8574419328342, 3.099042401241041, 1};
Point(p11 + 4) = {14.74349895152472, 3.284980447527409, 1};
Point(p11 + 5) = {14.60187167859126, 3.450804678591256, 1};
Point(p11 + 6) = {14.43604744752741, 3.592431951524718, 1};
Point(p11 + 7) = {14.25010940124104, 3.706374932834203, 1};
Point(p11 + 8) = {14.04863595152472, 3.789827968164798, 1};
Point(p11 + 9) = {13.8365880433625, 3.840736166821919, 1};
Point(p11 + 10) = {13.619187, 3.857846, 1};
Point(p11 + 11) = {13.4017859566375, 3.840736166821918, 1};
Point(p11 + 12) = {13.18973804847528, 3.789827968164799, 1};
Point(p11 + 13) = {12.98826459875896, 3.706374932834204, 1};
Point(p11 + 14) = {12.80232655247259, 3.592431951524718, 1};
Point(p11 + 15) = {12.63650232140875, 3.450804678591256, 1};
Point(p11 + 16) = {12.49487504847528, 3.28498044752741, 1};
Point(p11 + 17) = {12.3809320671658, 3.099042401241041, 1};
Point(p11 + 18) = {12.2974790318352, 2.897568951524718, 1};
Point(p11 + 19) = {12.24657083317808, 2.6855210433625, 1};
Point(p11 + 20) = {12.229461, 2.46812, 1};
Point(p11 + 21) = {12.24657083317808, 2.2507189566375, 1};
Point(p11 + 22) = {12.2974790318352, 2.038671048475281, 1};
Point(p11 + 23) = {12.3809320671658, 1.837197598758959, 1};
Point(p11 + 24) = {12.49487504847528, 1.65125955247259, 1};
Point(p11 + 25) = {12.63650232140874, 1.485435321408744, 1};
Point(p11 + 26) = {12.80232655247259, 1.343808048475282, 1};
Point(p11 + 27) = {12.98826459875896, 1.229865067165796, 1};
Point(p11 + 28) = {13.18973804847528, 1.146412031835201, 1};
Point(p11 + 29) = {13.4017859566375, 1.095503833178082, 1};
Point(p11 + 30) = {13.619187, 1.078394, 1};
Point(p11 + 31) = {13.8365880433625, 1.095503833178081, 1};
Point(p11 + 32) = {14.04863595152472, 1.146412031835201, 1};
Point(p11 + 33) = {14.25010940124104, 1.229865067165796, 1};
Point(p11 + 34) = {14.43604744752741, 1.343808048475281, 1};
Point(p11 + 35) = {14.60187167859126, 1.485435321408744, 1};
Point(p11 + 36) = {14.74349895152472, 1.65125955247259, 1};
Point(p11 + 37) = {14.8574419328342, 1.837197598758958, 1};
Point(p11 + 38) = {14.9408949681648, 2.038671048475281, 1};
Point(p11 + 39) = {14.99180316682192, 2.2507189566375, 1};
Spline(11) = {9, p11 + 1, p11 + 2, p11 + 3, p11 + 4, p11 + 5, p11 + 6, p11 + 7, p11 + 8, p11 + 9, p11 + 10, p11 + 11, p11 + 12, p11 + 13, p11 + 14, p11 + 15, p11 + 16, p11 + 17, p11 + 18, p11 + 19, p11 + 20, p11 + 21, p11 + 22, p11 + 23, p11 + 24, p11 + 25, p11 + 26, p11 + 27, p11 + 28, p11 + 29, p11 + 30, p11 + 31, p11 + 32, p11 + 33, p11 + 34, p11 + 35, p11 + 36, p11 + 37, p11 + 38, p11 + 39, 9};
Line(12) = {4, 10};
Line(13) = {10, 7};
Line(14) = {5, 10};
p15 = newp;
Point(p15 + 1) = {35.48768418964182, -0.03249101190390472, 0};
Point(p15 + 2) = {35.45795479009921, 0.09134084917585916, 0};
Point(p15 + 3) = {35.40921983785513, 0.2089974318451231, 0};
Point(p15 + 4) = {35.34267934917586, 0.3175816405587593, 0};
Point(p15 + 5) = {35.25997177172791, 0.4144197717279098, 0};
Point(p15 + 6) = {35.16313364055876, 0.4971273491758592, 0};
Point(p15 + 7) = {35.05454943184512, 0.5636678378551261, 0};
Point(p15 + 8) = {34.93689284917586, 0.6124027900992066, 0};
Point(p15 + 9) = {34.8130609880961, 0.6421321896418177, 0};
Point(p15 + 10) = {34.686103, 0.6521239999999999, 0};
Point(p15 + 11) = {34.55914501190391, 0.6421321896418177, 0};
Point(p15 + 12) = {34.43531315082414, 0.6124027900992066, 0};
Point(p15 + 13) = {34.31765656815488, 0.5636678378551263, 0};
Point(p15 + 14) = {34.20907235944124, 0.4971273491758592, 0};
Point(p15 + 15) = {34.11223422827209, 0.4144197717279099, 0};
Point(p15 + 16) = {34.02952665082415, 0.3175816405587594, 0};
Point(p15 + 17) = {33.96298616214488, 0.2089974318451233, 0};
Point(p15 + 18) = {33.9142512099008, 0.09134084917585927, 0};
Point(p15 + 19) = {33.88452181035819, -0.03249101190390463, 0};
Point(p15 + 20) = {33.87453, -0.1594489999999999, 0};
Point(p15 + 21) = {33.88452181035819, -0.2864069880960952, 0};
Point(p15 + 22) = {33.9142512099008, -0.4102388491758595, 0};
Point(p15 + 23) = {33.96298616214488, -0.5278954318451228, 0};
Point(p15 + 24) = {34.02952665082415, -0.6364796405587592, 0};
Point(p15 + 25) = {34.11223422827209, -0.7333177717279098, 0};
Point(p15 + 26) = {34.20907235944124, -0.8160253491758591, 0};
Point(p15 + 27) = {34.31765656815488, -0.8825658378551262, 0};
Point(p15 + 28) = {34.43531315082414, -0.9313007900992067, 0};
Point(p15 + 29) = {34.55914501190391, -0.9610301896418176, 0};
Point(p15 + 30) = {34.686103, -0.9710220000000001, 0};
Point(p15 + 31) = {34.8130609880961, -0.9610301896418176, 0};
Point(p15 + 32) = {34.93689284917586, -0.9313007900992067, 0};
Point(p15 + 33) = {35.05454943184512, -0.8825658378551262, 0};
Point(p15 + 34) = {35.16313364055876, -0.8160253491758593, 0};
Point(p15 + 35) = {35.25997177172791, -0.73331777172791, 0};
Point(p15 + 36) = {35.34267934917586, -0.6364796405587595, 0};
Point(p15 + 37) = {35.40921983785513, -0.5278954318451233, 0};
Point(p15 + 38) = {35.45795479009921, -0.4102388491758593, 0};
Point(p15 + 39) = {35.48768418964182, -0.2864069880960954, 0};
Spline(15) = {11, p15 + 1, p15 + 2, p15 + 3, p15 + 4, p15 + 5, p15 + 6, p15 + 7, p15 + 8, p15 + 9, p15 + 10, p15 + 11, p15 + 12, p15 + 13, p15 + 14, p15 + 15, p15 + 16, p15 + 17, p15 + 18, p15 + 19, p15 + 20, p15 + 21, p15 + 22, p15 + 23, p15 + 24, p15 + 25, p15 + 26, p15 + 27, p15 + 28, p15 + 29, p15 + 30, p15 + 31, p15 + 32, p15 + 33, p15 + 34, p15 + 35, p15 + 36, p15 + 37, p15 + 38, p15 + 39, 11};
p16 = newp;
Point(p16 + 1) = {14.99180316682192, 2.6855210433625, 0};
Point(p16 + 2) = {14.9408949681648, 2.897568951524718, 0};
Point(p16 + 3) = {14.8574419328342, 3.099042401241041, 0};
Point(p16 + 4) = {14.74349895152472, 3.284980447527409, 0};
Point(p16 + 5) = {14.60187167859126, 3.450804678591256, 0};
Point(p16 + 6) = {14.43604744752741, 3.592431951524718, 0};
Point(p16 + 7) = {14.25010940124104, 3.706374932834203, 0};
Point(p16 + 8) = {14.04863595152472, 3.789827968164798, 0};
Point(p16 + 9) = {13.8365880433625, 3.840736166821919, 0};
Point(p16 + 10) = {13.619187, 3.857846, 0};
Point(p16 + 11) = {13.4017859566375, 3.840736166821918, 0};
Point(p16 + 12) = {13.18973804847528, 3.789827968164799, 0};
Point(p16 + 13) = {12.98826459875896, 3.706374932834204, 0};
Point(p16 + 14) = {12.80232655247259, 3.592431951524718, 0};
Point(p16 + 15) = {12.63650232140875, 3.450804678591256, 0};
Point(p16 + 16) = {12.49487504847528, 3.28498044752741, 0};
Point(p16 + 17) = {12.3809320671658, 3.099042401241041, 0};
Point(p16 + 18) = {12.2974790318352, 2.897568951524718, 0};
Point(p16 + 19) = {12.24657083317808, 2.6855210433625, 0};
Point(p16 + 20) = {12.229461, 2.46812, 0};
Point(p16 + 21) = {12.24657083317808, 2.2507189566375, 0};
Point(p16 + 22) = {12.2974790318352, 2.038671048475281, 0};
Point(p16 + 23) = {12.3809320671658, 1.837197598758959, 0};
Point(p16 + 24) = {12.49487504847528, 1.65125955247259, 0};
Point(p16 + 25) = {12.63650232140874, 1.485435321408744, 0};
Point(p16 + 26) = {12.80232655247259, 1.343808048475282, 0};
Point(p16 + 27) = {12.98826459875896, 1.229865067165796, 0};
Point(p16 + 28) = {13.18973804847528, 1.146412031835201, 0};
Point(p16 + 29) = {13.4017859566375, 1.095503833178082, 0};
Point(p16 + 30) = {13.619187, 1.078394, 0};
Point(p16 + 31) = {13.8365880433625, 1.095503833178081, 0};
Point(p16 + 32) = {14.04863595152472, 1.146412031835201, 0};
Point(p16 + 33) = {14.25010940124104, 1.229865067165796, 0};
Point(p16 + 34) = {14.43604744752741, 1.343808048475281, 0};
Point(p16 + 35) = {14.60187167859126, 1.485435321408744, 0};
Point(p16 + 36) = {14.74349895152472, 1.65125955247259, 0};
Point(p16 + 37) = {14.8574419328342, 1.837197598758958, 0};
Point(p16 + 38) = {14.9408949681648, 2.038671048475281, 0};
Point(p16 + 39) = {14.99180316682192, 2.2507189566375, 0};
Spline(16) = {12, p16 + 1, p16 + 2, p16 + 3, p16 + 4, p16 + 5, p16 + 6, p16 + 7, p16 + 8, p16 + 9, p16 + 10, p16 + 11, p16 + 12, p16 + 13, p16 + 14, p16 + 15, p16 + 16, p16 + 17, p16 + 18, p16 + 19, p16 + 20, p16 + 21, p16 + 22, p16 + 23, p16 + 24, p16 + 25, p16 + 26, p16 + 27, p16 + 28, p16 + 29, p16 + 30, p16 + 31, p16 + 32, p16 + 33, p16 + 34, p16 + 35, p16 + 36, p16 + 37, p16 + 38, p16 + 39, 12};
Line(17) = {11, 8};
Line(18) = {12, 9};
Curve Loop(1) = {-1, 4, 3, -2};
Plane Surface(1) = {1};
Curve Loop(2) = {-5, 1, 7, -6};
Plane Surface(2) = {2};
Curve Loop(3) = {-2, 7, 9, -8, -10, -11};
Plane Surface(3) = {3};
Curve Loop(4) = {-12, 3, 8, -13};
Plane Surface(4) = {4};
Curve Loop(5) = {-4, 5, 14, -12, -15, -16};
Plane Surface(5) = {5};
Curve Loop(6) = {-6, 14, 13, -9};
Plane Surface(6) = {6};
Curve Loop(7) = {-10, -17, 15, 17};
Surface(7) = {7};
Curve Loop(8) = {-11, -18, 16, 18};
Surface(8) = {8};
Surface Loop(1) = {1, 2, 3, 4, 5, 6, 7, 8};
Volume(1) = {1};
Physical Surface("INFLOW") = {1};
Physical Surface("OUTFLOW") = {6};
Physical Surface("OBSTACLE") = {7, 8};
Physical Surface("WALL_Y") = {2, 4};
Physical Surface("WALL_Z") = {3, 5};
Physical Volume("FLUID") = {1};
