cl__1 = 1.055345;
cl__2 = 1.016468;
cl__3 = 0.914957;
cl__4 = 1.014344;
cl__5 = 0.118921;
cl__6 = 0.07597;
Point(1) = {0.393717, -4.284295, 1, cl__1};
Point(2) = {0.393717, -4.284295, 0, cl__1};
Point(3) = {0.393717, 5.656973000000001, 1, cl__2};
Point(4) = {0.393717, 5.656973000000001, 0, cl__2};
Point(5) = {31.748004, -4.284295, 0, cl__3};
Point(6) = {31.748004, -4.284295, 1, cl__3};
Point(7) = {31.748004, 5.656973000000001, 1, cl__4};
Point(8) = {23.357082, -0.3969490000000003, 1, cl__5};
Point(9) = {11.091651, 1.121157, 1, cl__6};
Point(10) = {31.748004, 5.656973000000001, 0, cl__4};
Point(11) = {23.357082, -0.3969490000000003, 0, cl__5};
Point(12) = {11.091651, 1.121157, 0, cl__6};
Line(1) = {2, 1};
Line(2) = {1, 3};
Line(3) = {4, 3};
Line(4) = {2, 4};
Line(5) = {2, 5};
Line(6) = {5, 6};
Line(7) = {1, 6};
Line(8) = {3, 7};
Line(9) = {6, 7};
p10 = newp;
Point(p10 + 1) = {23.34244083920749, -0.210915413395042, 1};
Point(p10 + 2) = {23.29887787079988, -0.02946259110237442, 1};
Point(p10 + 3) = {23.22746575963658, 0.1429414961857661, 1};
Point(p10 + 4) = {23.12996290889763, 0.3020516876639843, 1};
Point(p10 + 5) = {23.00877016236164, 0.4439501623616353, 1};
Point(p10 + 6) = {22.86687168766399, 0.5651429088976256, 1};
Point(p10 + 7) = {22.70776149618577, 0.6626457596365731, 1};
Point(p10 + 8) = {22.53535740889763, 0.7340578707998759, 1};
Point(p10 + 9) = {22.35390458660496, 0.7776208392074844, 1};
Point(p10 + 10) = {22.167871, 0.792262, 1};
Point(p10 + 11) = {21.98183741339504, 0.7776208392074844, 1};
Point(p10 + 12) = {21.80038459110238, 0.7340578707998759, 1};
Point(p10 + 13) = {21.62798050381424, 0.6626457596365731, 1};
Point(p10 + 14) = {21.46887031233602, 0.5651429088976256, 1};
Point(p10 + 15) = {21.32697183763837, 0.4439501623616354, 1};
Point(p10 + 16) = {21.20577909110238, 0.3020516876639844, 1};
Point(p10 + 17) = {21.10827624036343, 0.1429414961857662, 1};
Point(p10 + 18) = {21.03686412920013, -0.02946259110237431, 1};
Point(p10 + 19) = {20.99330116079252, -0.2109154133950419, 1};
Point(p10 + 20) = {20.97866, -0.3969489999999998, 1};
Point(p10 + 21) = {20.99330116079252, -0.5829825866049578, 1};
Point(p10 + 22) = {21.03686412920013, -0.764435408897626, 1};
Point(p10 + 23) = {21.10827624036343, -0.9368394961857656, 1};
Point(p10 + 24) = {21.20577909110238, -1.095949687663984, 1};
Point(p10 + 25) = {21.32697183763837, -1.237848162361635, 1};
Point(p10 + 26) = {21.46887031233602, -1.359040908897625, 1};
Point(p10 + 27) = {21.62798050381424, -1.456543759636573, 1};
Point(p10 + 28) = {21.80038459110238, -1.527955870799876, 1};
Point(p10 + 29) = {21.98183741339504, -1.571518839207484, 1};
Point(p10 + 30) = {22.167871, -1.58616, 1};
Point(p10 + 31) = {22.35390458660496, -1.571518839207484, 1};
Point(p10 + 32) = {22.53535740889763, -1.527955870799876, 1};
Point(p10 + 33) = {22.70776149618577, -1.456543759636573, 1};
Point(p10 + 34) = {22.86687168766398, -1.359040908897626, 1};
Point(p10 + 35) = {23.00877016236164, -1.237848162361636, 1};
Point(p10 + 36) = {23.12996290889763, -1.095949687663984, 1};
Point(p10 + 37) = {23.22746575963658, -0.9368394961857665, 1};
Point(p10 + 38) = {23.29887787079988, -0.7644354088976258, 1};
Point(p10 + 39) = {23.34244083920749, -0.5829825866049583, 1};
Spline(10) = {8, p10 + 1, p10 + 2, p10 + 3, p10 + 4, p10 + 5, p10 + 6, p10 + 7, p10 + 8, p10 + 9, p10 + 10, p10 + 11, p10 + 12, p10 + 13, p10 + 14, p10 + 15, p10 + 16, p10 + 17, p10 + 18, p10 + 19, p10 + 20, p10 + 21, p10 + 22, p10 + 23, p10 + 24, p10 + 25, p10 + 26, p10 + 27, p10 + 28, p10 + 29, p10 + 30, p10 + 31, p10 + 32, p10 + 33, p10 + 34, p10 + 35, p10 + 36, p10 + 37, p10 + 38, p10 + 39, 8};
p11 = newp;
Point(p11 + 1) = {11.08229782003847, 1.240000419525528, 1};
Point(p11 + 2) = {11.05446858648595, 1.355917519643642, 1};
Point(p11 + 3) = {11.00884854743243, 1.466054036642633, 1};
Point(p11 + 4) = {10.94656101964364, 1.567698043951844, 1};
Point(p11 + 5) = {10.8691397287742, 1.658346728774201, 1};
Point(p11 + 6) = {10.77849104395185, 1.735768019643642, 1};
Point(p11 + 7) = {10.67684703664263, 1.798055547432427, 1};
Point(p11 + 8) = {10.56671051964364, 1.843675586485944, 1};
Point(p11 + 9) = {10.45079341952553, 1.871504820038467, 1};
Point(p11 + 10) = {10.33195, 1.880858, 1};
Point(p11 + 11) = {10.21310658047447, 1.871504820038467, 1};
Point(p11 + 12) = {10.09718948035636, 1.843675586485944, 1};
Point(p11 + 13) = {9.987052963357367, 1.798055547432427, 1};
Point(p11 + 14) = {9.885408956048156, 1.735768019643642, 1};
Point(p11 + 15) = {9.794760271225799, 1.658346728774201, 1};
Point(p11 + 16) = {9.717338980356359, 1.567698043951844, 1};
Point(p11 + 17) = {9.655051452567573, 1.466054036642634, 1};
Point(p11 + 18) = {9.609431413514056, 1.355917519643642, 1};
Point(p11 + 19) = {9.581602179961534, 1.240000419525529, 1};
Point(p11 + 20) = {9.572249000000001, 1.121157, 1};
Point(p11 + 21) = {9.581602179961534, 1.002313580474472, 1};
Point(p11 + 22) = {9.609431413514056, 0.8863964803563578, 1};
Point(p11 + 23) = {9.655051452567573, 0.776259963357367, 1};
Point(p11 + 24) = {9.717338980356359, 0.6746159560481559, 1};
Point(p11 + 25) = {9.794760271225799, 0.5839672712257987, 1};
Point(p11 + 26) = {9.885408956048156, 0.5065459803563581, 1};
Point(p11 + 27) = {9.987052963357367, 0.4442584525675728, 1};
Point(p11 + 28) = {10.09718948035636, 0.3986384135140556, 1};
Point(p11 + 29) = {10.21310658047447, 0.3708091799615333, 1};
Point(p11 + 30) = {10.33195, 0.361456, 1};
Point(p11 + 31) = {10.45079341952553, 0.3708091799615333, 1};
Point(p11 + 32) = {10.56671051964364, 0.3986384135140555, 1};
Point(p11 + 33) = {10.67684703664263, 0.4442584525675727, 1};
Point(p11 + 34) = {10.77849104395185, 0.506545980356358, 1};
Point(p11 + 35) = {10.8691397287742, 0.5839672712257985, 1};
Point(p11 + 36) = {10.94656101964364, 0.6746159560481557, 1};
Point(p11 + 37) = {11.00884854743243, 0.7762599633573664, 1};
Point(p11 + 38) = {11.05446858648595, 0.8863964803563579, 1};
Point(p11 + 39) = {11.08229782003847, 1.002313580474471, 1};
Spline(11) = {9, p11 + 1, p11 + 2, p11 + 3, p11 + 4, p11 + 5, p11 + 6, p11 + 7, p11 + 8, p11 + 9, p11 + 10, p11 + 11, p11 + 12, p11 + 13, p11 + 14, p11 + 15, p11 + 16, p11 + 17, p11 + 18, p11 + 19, p11 + 20, p11 + 21, p11 + 22, p11 + 23, p11 + 24, p11 + 25, p11 + 26, p11 + 27, p11 + 28, p11 + 29, p11 + 30, p11 + 31, p11 + 32, p11 + 33, p11 + 34, p11 + 35, p11 + 36, p11 + 37, p11 + 38, p11 + 39, 9};
Line(12) = {4, 10};
Line(13) = {10, 7};
Line(14) = {5, 10};
p15 = newp;
Point(p15 + 1) = {23.34244083920749, -0.210915413395042, 0};
Point(p15 + 2) = {23.29887787079988, -0.02946259110237442, 0};
Point(p15 + 3) = {23.22746575963658, 0.1429414961857661, 0};
Point(p15 + 4) = {23.12996290889763, 0.3020516876639843, 0};
Point(p15 + 5) = {23.00877016236164, 0.4439501623616353, 0};
Point(p15 + 6) = {22.86687168766399, 0.5651429088976256, 0};
Point(p15 + 7) = {22.70776149618577, 0.6626457596365731, 0};
Point(p15 + 8) = {22.53535740889763, 0.7340578707998759, 0};
Point(p15 + 9) = {22.35390458660496, 0.7776208392074844, 0};
Point(p15 + 10) = {22.167871, 0.792262, 0};
Point(p15 + 11) = {21.98183741339504, 0.7776208392074844, 0};
Point(p15 + 12) = {21.80038459110238, 0.7340578707998759, 0};
Point(p15 + 13) = {21.62798050381424, 0.6626457596365731, 0};
Point(p15 + 14) = {21.46887031233602, 0.5651429088976256, 0};
Point(p15 + 15) = {21.32697183763837, 0.4439501623616354, 0};
Point(p15 + 16) = {21.20577909110238, 0.3020516876639844, 0};
Point(p15 + 17) = {21.10827624036343, 0.1429414961857662, 0};
Point(p15 + 18) = {21.03686412920013, -0.02946259110237431, 0};
Point(p15 + 19) = {20.99330116079252, -0.2109154133950419, 0};
Point(p15 + 20) = {20.97866, -0.3969489999999998, 0};
Point(p15 + 21) = {20.99330116079252, -0.5829825866049578, 0};
Point(p15 + 22) = {21.03686412920013, -0.764435408897626, 0};
Point(p15 + 23) = {21.10827624036343, -0.9368394961857656, 0};
Point(p15 + 24) = {21.20577909110238, -1.095949687663984, 0};
Point(p15 + 25) = {21.32697183763837, -1.237848162361635, 0};
Point(p15 + 26) = {21.46887031233602, -1.359040908897625, 0};
Point(p15 + 27) = {21.62798050381424, -1.456543759636573, 0};
Point(p15 + 28) = {21.80038459110238, -1.527955870799876, 0};
Point(p15 + 29) = {21.98183741339504, -1.571518839207484, 0};
Point(p15 + 30) = {22.167871, -1.58616, 0};
Point(p15 + 31) = {22.35390458660496, -1.571518839207484, 0};
Point(p15 + 32) = {22.53535740889763, -1.527955870799876, 0};
Point(p15 + 33) = {22.70776149618577, -1.456543759636573, 0};
Point(p15 + 34) = {22.86687168766398, -1.359040908897626, 0};
Point(p15 + 35) = {23.00877016236164, -1.237848162361636, 0};
Point(p15 + 36) = {23.12996290889763, -1.095949687663984, 0};
Point(p15 + 37) = {23.22746575963658, -0.9368394961857665, 0};
Point(p15 + 38) = {23.29887787079988, -0.7644354088976258, 0};
Point(p15 + 39) = {23.34244083920749, -0.5829825866049583, 0};
Spline(15) = {11, p15 + 1, p15 + 2, p15 + 3, p15 + 4, p15 + 5, p15 + 6, p15 + 7, p15 + 8, p15 + 9, p15 + 10, p15 + 11, p15 + 12, p15 + 13, p15 + 14, p15 + 15, p15 + 16, p15 + 17, p15 + 18, p15 + 19, p15 + 20, p15 + 21, p15 + 22, p15 + 23, p15 + 24, p15 + 25, p15 + 26, p15 + 27, p15 + 28, p15 + 29, p15 + 30, p15 + 31, p15 + 32, p15 + 33, p15 + 34, p15 + 35, p15 + 36, p15 + 37, p15 + 38, p15 + 39, 11};
p16 = newp;
Point(p16 + 1) = {11.08229782003847, 1.240000419525528, 0};
Point(p16 + 2) = {11.05446858648595, 1.355917519643642, 0};
Point(p16 + 3) = {11.00884854743243, 1.466054036642633, 0};
Point(p16 + 4) = {10.94656101964364, 1.567698043951844, 0};
Point(p16 + 5) = {10.8691397287742, 1.658346728774201, 0};
Point(p16 + 6) = {10.77849104395185, 1.735768019643642, 0};
Point(p16 + 7) = {10.67684703664263, 1.798055547432427, 0};
Point(p16 + 8) = {10.56671051964364, 1.843675586485944, 0};
Point(p16 + 9) = {10.45079341952553, 1.871504820038467, 0};
Point(p16 + 10) = {10.33195, 1.880858, 0};
Point(p16 + 11) = {10.21310658047447, 1.871504820038467, 0};
Point(p16 + 12) = {10.09718948035636, 1.843675586485944, 0};
Point(p16 + 13) = {9.987052963357367, 1.798055547432427, 0};
Point(p16 + 14) = {9.885408956048156, 1.735768019643642, 0};
Point(p16 + 15) = {9.794760271225799, 1.658346728774201, 0};
Point(p16 + 16) = {9.717338980356359, 1.567698043951844, 0};
Point(p16 + 17) = {9.655051452567573, 1.466054036642634, 0};
Point(p16 + 18) = {9.609431413514056, 1.355917519643642, 0};
Point(p16 + 19) = {9.581602179961534, 1.240000419525529, 0};
Point(p16 + 20) = {9.572249000000001, 1.121157, 0};
Point(p16 + 21) = {9.581602179961534, 1.002313580474472, 0};
Point(p16 + 22) = {9.609431413514056, 0.8863964803563578, 0};
Point(p16 + 23) = {9.655051452567573, 0.776259963357367, 0};
Point(p16 + 24) = {9.717338980356359, 0.6746159560481559, 0};
Point(p16 + 25) = {9.794760271225799, 0.5839672712257987, 0};
Point(p16 + 26) = {9.885408956048156, 0.5065459803563581, 0};
Point(p16 + 27) = {9.987052963357367, 0.4442584525675728, 0};
Point(p16 + 28) = {10.09718948035636, 0.3986384135140556, 0};
Point(p16 + 29) = {10.21310658047447, 0.3708091799615333, 0};
Point(p16 + 30) = {10.33195, 0.361456, 0};
Point(p16 + 31) = {10.45079341952553, 0.3708091799615333, 0};
Point(p16 + 32) = {10.56671051964364, 0.3986384135140555, 0};
Point(p16 + 33) = {10.67684703664263, 0.4442584525675727, 0};
Point(p16 + 34) = {10.77849104395185, 0.506545980356358, 0};
Point(p16 + 35) = {10.8691397287742, 0.5839672712257985, 0};
Point(p16 + 36) = {10.94656101964364, 0.6746159560481557, 0};
Point(p16 + 37) = {11.00884854743243, 0.7762599633573664, 0};
Point(p16 + 38) = {11.05446858648595, 0.8863964803563579, 0};
Point(p16 + 39) = {11.08229782003847, 1.002313580474471, 0};
Spline(16) = {12, p16 + 1, p16 + 2, p16 + 3, p16 + 4, p16 + 5, p16 + 6, p16 + 7, p16 + 8, p16 + 9, p16 + 10, p16 + 11, p16 + 12, p16 + 13, p16 + 14, p16 + 15, p16 + 16, p16 + 17, p16 + 18, p16 + 19, p16 + 20, p16 + 21, p16 + 22, p16 + 23, p16 + 24, p16 + 25, p16 + 26, p16 + 27, p16 + 28, p16 + 29, p16 + 30, p16 + 31, p16 + 32, p16 + 33, p16 + 34, p16 + 35, p16 + 36, p16 + 37, p16 + 38, p16 + 39, 12};
Line(17) = {11, 8};
Line(18) = {12, 9};
Curve Loop(1) = {-1, 4, 3, -2};
Plane Surface(1) = {1};
Curve Loop(2) = {-5, 1, 7, -6};
Plane Surface(2) = {2};
Curve Loop(3) = {-2, 7, 9, -8, -10, -11};
Plane Surface(3) = {3};
Curve Loop(4) = {-12, 3, 8, -13};
Plane Surface(4) = {4};
Curve Loop(5) = {-4, 5, 14, -12, -15, -16};
Plane Surface(5) = {5};
Curve Loop(6) = {-6, 14, 13, -9};
Plane Surface(6) = {6};
Curve Loop(7) = {-10, -17, 15, 17};
Surface(7) = {7};
Curve Loop(8) = {-11, -18, 16, 18};
Surface(8) = {8};
Surface Loop(1) = {1, 2, 3, 4, 5, 6, 7, 8};
Volume(1) = {1};
Physical Surface("INFLOW") = {1};
Physical Surface("OUTFLOW") = {6};
Physical Surface("OBSTACLE") = {7, 8};
Physical Surface("WALL_Y") = {2, 4};
Physical Surface("WALL_Z") = {3, 5};
Physical Volume("FLUID") = {1};
