cl__1 = 1.041431;
cl__2 = 1.085019;
cl__3 = 0.681494;
cl__4 = 0.8336710000000001;
cl__5 = 0.124258;
cl__6 = 0.070826;
Point(1) = {0.6272, -3.276829, 1, cl__1};
Point(2) = {0.6272, -3.276829, 0, cl__1};
Point(3) = {0.6272, 5.060944999999999, 1, cl__2};
Point(4) = {0.6272, 5.060944999999999, 0, cl__2};
Point(5) = {35.369675, -3.276829, 0, cl__3};
Point(6) = {35.369675, -3.276829, 1, cl__3};
Point(7) = {35.369675, 5.060944999999999, 1, cl__4};
Point(8) = {28.972023, -0.7174400000000003, 1, cl__5};
Point(9) = {11.867495, 0.2992049999999998, 1, cl__6};
Point(10) = {35.369675, 5.060944999999999, 0, cl__4};
Point(11) = {28.972023, -0.7174400000000003, 0, cl__5};
Point(12) = {11.867495, 0.2992049999999998, 0, cl__6};
Line(1) = {2, 1};
Line(2) = {1, 3};
Line(3) = {4, 3};
Line(4) = {2, 4};
Line(5) = {2, 5};
Line(6) = {5, 6};
Line(7) = {1, 6};
Line(8) = {3, 7};
Line(9) = {6, 7};
p10 = newp;
Point(p10 + 1) = {28.95672471669841, -0.5230568802579847, 1};
Point(p10 + 2) = {28.91120656130061, -0.333460118044606, 1};
Point(p10 + 3) = {28.8365893418586, -0.1533182148811353, 1};
Point(p10 + 4) = {28.73471038195539, 0.01293313771984284, 1};
Point(p10 + 5) = {28.60807827970068, 0.1612002797006862, 1};
Point(p10 + 6) = {28.45981113771984, 0.2878323819553942, 1};
Point(p10 + 7) = {28.29355978511886, 0.389711341858603, 1};
Point(p10 + 8) = {28.11341788195539, 0.4643285613006135, 1};
Point(p10 + 9) = {27.92382111974201, 0.5098467166984094, 1};
Point(p10 + 10) = {27.729438, 0.5251450000000001, 1};
Point(p10 + 11) = {27.53505488025798, 0.5098467166984092, 1};
Point(p10 + 12) = {27.3454581180446, 0.4643285613006135, 1};
Point(p10 + 13) = {27.16531621488113, 0.3897113418586032, 1};
Point(p10 + 14) = {26.99906486228016, 0.2878323819553942, 1};
Point(p10 + 15) = {26.85079772029931, 0.1612002797006863, 1};
Point(p10 + 16) = {26.7241656180446, 0.01293313771984295, 1};
Point(p10 + 17) = {26.62228665814139, -0.1533182148811351, 1};
Point(p10 + 18) = {26.54766943869938, -0.3334601180446058, 1};
Point(p10 + 19) = {26.50215128330159, -0.5230568802579846, 1};
Point(p10 + 20) = {26.486853, -0.7174399999999999, 1};
Point(p10 + 21) = {26.50215128330159, -0.911823119742015, 1};
Point(p10 + 22) = {26.54766943869938, -1.101419881955394, 1};
Point(p10 + 23) = {26.62228665814139, -1.281561785118864, 1};
Point(p10 + 24) = {26.7241656180446, -1.447813137719843, 1};
Point(p10 + 25) = {26.85079772029931, -1.596080279700686, 1};
Point(p10 + 26) = {26.99906486228015, -1.722712381955394, 1};
Point(p10 + 27) = {27.16531621488113, -1.824591341858603, 1};
Point(p10 + 28) = {27.3454581180446, -1.899208561300613, 1};
Point(p10 + 29) = {27.53505488025798, -1.944726716698409, 1};
Point(p10 + 30) = {27.729438, -1.960025, 1};
Point(p10 + 31) = {27.92382111974201, -1.944726716698409, 1};
Point(p10 + 32) = {28.11341788195539, -1.899208561300613, 1};
Point(p10 + 33) = {28.29355978511886, -1.824591341858603, 1};
Point(p10 + 34) = {28.45981113771984, -1.722712381955394, 1};
Point(p10 + 35) = {28.60807827970068, -1.596080279700686, 1};
Point(p10 + 36) = {28.73471038195539, -1.447813137719843, 1};
Point(p10 + 37) = {28.8365893418586, -1.281561785118865, 1};
Point(p10 + 38) = {28.91120656130061, -1.101419881955394, 1};
Point(p10 + 39) = {28.95672471669841, -0.9118231197420155, 1};
Spline(10) = {8, p10 + 1, p10 + 2, p10 + 3, p10 + 4, p10 + 5, p10 + 6, p10 + 7, p10 + 8, p10 + 9, p10 + 10, p10 + 11, p10 + 12, p10 + 13, p10 + 14, p10 + 15, p10 + 16, p10 + 17, p10 + 18, p10 + 19, p10 + 20, p10 + 21, p10 + 22, p10 + 23, p10 + 24, p10 + 25, p10 + 26, p10 + 27, p10 + 28, p10 + 29, p10 + 30, p10 + 31, p10 + 32, p10 + 33, p10 + 34, p10 + 35, p10 + 36, p10 + 37, p10 + 38, p10 + 39, 8};
p11 = newp;
Point(p11 + 1) = {11.85877511948659, 0.410001587078324, 1};
Point(p11 + 2) = {11.83283019034424, 0.5180699944699889, 1};
Point(p11 + 3) = {11.7902990628347, 0.6207492193265308, 1};
Point(p11 + 4) = {11.73222899446999, 0.7155109583591716, 1};
Point(p11 + 5) = {11.66004986305675, 0.8000218630567464, 1};
Point(p11 + 6) = {11.57553895835917, 0.8722009944699889, 1};
Point(p11 + 7) = {11.48077721932653, 0.9302710628347017, 1};
Point(p11 + 8) = {11.37809799446999, 0.9728021903442379, 1};
Point(p11 + 9) = {11.27002958707832, 0.9987471194865933, 1};
Point(p11 + 10) = {11.159233, 1.007467, 1};
Point(p11 + 11) = {11.04843641292168, 0.9987471194865933, 1};
Point(p11 + 12) = {10.94036800553001, 0.9728021903442381, 1};
Point(p11 + 13) = {10.83768878067347, 0.9302710628347017, 1};
Point(p11 + 14) = {10.74292704164083, 0.8722009944699889, 1};
Point(p11 + 15) = {10.65841613694325, 0.8000218630567466, 1};
Point(p11 + 16) = {10.58623700553001, 0.7155109583591717, 1};
Point(p11 + 17) = {10.5281669371653, 0.6207492193265309, 1};
Point(p11 + 18) = {10.48563580965576, 0.518069994469989, 1};
Point(p11 + 19) = {10.45969088051341, 0.4100015870783241, 1};
Point(p11 + 20) = {10.450971, 0.2992050000000001, 1};
Point(p11 + 21) = {10.45969088051341, 0.1884084129216761, 1};
Point(p11 + 22) = {10.48563580965576, 0.08034000553001078, 1};
Point(p11 + 23) = {10.5281669371653, -0.02233921932653049, 1};
Point(p11 + 24) = {10.58623700553001, -0.1171009583591715, 1};
Point(p11 + 25) = {10.65841613694325, -0.2016118630567464, 1};
Point(p11 + 26) = {10.74292704164083, -0.2737909944699889, 1};
Point(p11 + 27) = {10.83768878067347, -0.3318610628347017, 1};
Point(p11 + 28) = {10.94036800553001, -0.3743921903442379, 1};
Point(p11 + 29) = {11.04843641292168, -0.4003371194865933, 1};
Point(p11 + 30) = {11.159233, -0.4090569999999999, 1};
Point(p11 + 31) = {11.27002958707832, -0.4003371194865934, 1};
Point(p11 + 32) = {11.37809799446999, -0.374392190344238, 1};
Point(p11 + 33) = {11.48077721932653, -0.3318610628347018, 1};
Point(p11 + 34) = {11.57553895835917, -0.2737909944699891, 1};
Point(p11 + 35) = {11.66004986305675, -0.2016118630567466, 1};
Point(p11 + 36) = {11.73222899446999, -0.1171009583591717, 1};
Point(p11 + 37) = {11.7902990628347, -0.02233921932653099, 1};
Point(p11 + 38) = {11.83283019034424, 0.08034000553001086, 1};
Point(p11 + 39) = {11.85877511948659, 0.1884084129216759, 1};
Spline(11) = {9, p11 + 1, p11 + 2, p11 + 3, p11 + 4, p11 + 5, p11 + 6, p11 + 7, p11 + 8, p11 + 9, p11 + 10, p11 + 11, p11 + 12, p11 + 13, p11 + 14, p11 + 15, p11 + 16, p11 + 17, p11 + 18, p11 + 19, p11 + 20, p11 + 21, p11 + 22, p11 + 23, p11 + 24, p11 + 25, p11 + 26, p11 + 27, p11 + 28, p11 + 29, p11 + 30, p11 + 31, p11 + 32, p11 + 33, p11 + 34, p11 + 35, p11 + 36, p11 + 37, p11 + 38, p11 + 39, 9};
Line(12) = {4, 10};
Line(13) = {10, 7};
Line(14) = {5, 10};
p15 = newp;
Point(p15 + 1) = {28.95672471669841, -0.5230568802579847, 0};
Point(p15 + 2) = {28.91120656130061, -0.333460118044606, 0};
Point(p15 + 3) = {28.8365893418586, -0.1533182148811353, 0};
Point(p15 + 4) = {28.73471038195539, 0.01293313771984284, 0};
Point(p15 + 5) = {28.60807827970068, 0.1612002797006862, 0};
Point(p15 + 6) = {28.45981113771984, 0.2878323819553942, 0};
Point(p15 + 7) = {28.29355978511886, 0.389711341858603, 0};
Point(p15 + 8) = {28.11341788195539, 0.4643285613006135, 0};
Point(p15 + 9) = {27.92382111974201, 0.5098467166984094, 0};
Point(p15 + 10) = {27.729438, 0.5251450000000001, 0};
Point(p15 + 11) = {27.53505488025798, 0.5098467166984092, 0};
Point(p15 + 12) = {27.3454581180446, 0.4643285613006135, 0};
Point(p15 + 13) = {27.16531621488113, 0.3897113418586032, 0};
Point(p15 + 14) = {26.99906486228016, 0.2878323819553942, 0};
Point(p15 + 15) = {26.85079772029931, 0.1612002797006863, 0};
Point(p15 + 16) = {26.7241656180446, 0.01293313771984295, 0};
Point(p15 + 17) = {26.62228665814139, -0.1533182148811351, 0};
Point(p15 + 18) = {26.54766943869938, -0.3334601180446058, 0};
Point(p15 + 19) = {26.50215128330159, -0.5230568802579846, 0};
Point(p15 + 20) = {26.486853, -0.7174399999999999, 0};
Point(p15 + 21) = {26.50215128330159, -0.911823119742015, 0};
Point(p15 + 22) = {26.54766943869938, -1.101419881955394, 0};
Point(p15 + 23) = {26.62228665814139, -1.281561785118864, 0};
Point(p15 + 24) = {26.7241656180446, -1.447813137719843, 0};
Point(p15 + 25) = {26.85079772029931, -1.596080279700686, 0};
Point(p15 + 26) = {26.99906486228015, -1.722712381955394, 0};
Point(p15 + 27) = {27.16531621488113, -1.824591341858603, 0};
Point(p15 + 28) = {27.3454581180446, -1.899208561300613, 0};
Point(p15 + 29) = {27.53505488025798, -1.944726716698409, 0};
Point(p15 + 30) = {27.729438, -1.960025, 0};
Point(p15 + 31) = {27.92382111974201, -1.944726716698409, 0};
Point(p15 + 32) = {28.11341788195539, -1.899208561300613, 0};
Point(p15 + 33) = {28.29355978511886, -1.824591341858603, 0};
Point(p15 + 34) = {28.45981113771984, -1.722712381955394, 0};
Point(p15 + 35) = {28.60807827970068, -1.596080279700686, 0};
Point(p15 + 36) = {28.73471038195539, -1.447813137719843, 0};
Point(p15 + 37) = {28.8365893418586, -1.281561785118865, 0};
Point(p15 + 38) = {28.91120656130061, -1.101419881955394, 0};
Point(p15 + 39) = {28.95672471669841, -0.9118231197420155, 0};
Spline(15) = {11, p15 + 1, p15 + 2, p15 + 3, p15 + 4, p15 + 5, p15 + 6, p15 + 7, p15 + 8, p15 + 9, p15 + 10, p15 + 11, p15 + 12, p15 + 13, p15 + 14, p15 + 15, p15 + 16, p15 + 17, p15 + 18, p15 + 19, p15 + 20, p15 + 21, p15 + 22, p15 + 23, p15 + 24, p15 + 25, p15 + 26, p15 + 27, p15 + 28, p15 + 29, p15 + 30, p15 + 31, p15 + 32, p15 + 33, p15 + 34, p15 + 35, p15 + 36, p15 + 37, p15 + 38, p15 + 39, 11};
p16 = newp;
Point(p16 + 1) = {11.85877511948659, 0.410001587078324, 0};
Point(p16 + 2) = {11.83283019034424, 0.5180699944699889, 0};
Point(p16 + 3) = {11.7902990628347, 0.6207492193265308, 0};
Point(p16 + 4) = {11.73222899446999, 0.7155109583591716, 0};
Point(p16 + 5) = {11.66004986305675, 0.8000218630567464, 0};
Point(p16 + 6) = {11.57553895835917, 0.8722009944699889, 0};
Point(p16 + 7) = {11.48077721932653, 0.9302710628347017, 0};
Point(p16 + 8) = {11.37809799446999, 0.9728021903442379, 0};
Point(p16 + 9) = {11.27002958707832, 0.9987471194865933, 0};
Point(p16 + 10) = {11.159233, 1.007467, 0};
Point(p16 + 11) = {11.04843641292168, 0.9987471194865933, 0};
Point(p16 + 12) = {10.94036800553001, 0.9728021903442381, 0};
Point(p16 + 13) = {10.83768878067347, 0.9302710628347017, 0};
Point(p16 + 14) = {10.74292704164083, 0.8722009944699889, 0};
Point(p16 + 15) = {10.65841613694325, 0.8000218630567466, 0};
Point(p16 + 16) = {10.58623700553001, 0.7155109583591717, 0};
Point(p16 + 17) = {10.5281669371653, 0.6207492193265309, 0};
Point(p16 + 18) = {10.48563580965576, 0.518069994469989, 0};
Point(p16 + 19) = {10.45969088051341, 0.4100015870783241, 0};
Point(p16 + 20) = {10.450971, 0.2992050000000001, 0};
Point(p16 + 21) = {10.45969088051341, 0.1884084129216761, 0};
Point(p16 + 22) = {10.48563580965576, 0.08034000553001078, 0};
Point(p16 + 23) = {10.5281669371653, -0.02233921932653049, 0};
Point(p16 + 24) = {10.58623700553001, -0.1171009583591715, 0};
Point(p16 + 25) = {10.65841613694325, -0.2016118630567464, 0};
Point(p16 + 26) = {10.74292704164083, -0.2737909944699889, 0};
Point(p16 + 27) = {10.83768878067347, -0.3318610628347017, 0};
Point(p16 + 28) = {10.94036800553001, -0.3743921903442379, 0};
Point(p16 + 29) = {11.04843641292168, -0.4003371194865933, 0};
Point(p16 + 30) = {11.159233, -0.4090569999999999, 0};
Point(p16 + 31) = {11.27002958707832, -0.4003371194865934, 0};
Point(p16 + 32) = {11.37809799446999, -0.374392190344238, 0};
Point(p16 + 33) = {11.48077721932653, -0.3318610628347018, 0};
Point(p16 + 34) = {11.57553895835917, -0.2737909944699891, 0};
Point(p16 + 35) = {11.66004986305675, -0.2016118630567466, 0};
Point(p16 + 36) = {11.73222899446999, -0.1171009583591717, 0};
Point(p16 + 37) = {11.7902990628347, -0.02233921932653099, 0};
Point(p16 + 38) = {11.83283019034424, 0.08034000553001086, 0};
Point(p16 + 39) = {11.85877511948659, 0.1884084129216759, 0};
Spline(16) = {12, p16 + 1, p16 + 2, p16 + 3, p16 + 4, p16 + 5, p16 + 6, p16 + 7, p16 + 8, p16 + 9, p16 + 10, p16 + 11, p16 + 12, p16 + 13, p16 + 14, p16 + 15, p16 + 16, p16 + 17, p16 + 18, p16 + 19, p16 + 20, p16 + 21, p16 + 22, p16 + 23, p16 + 24, p16 + 25, p16 + 26, p16 + 27, p16 + 28, p16 + 29, p16 + 30, p16 + 31, p16 + 32, p16 + 33, p16 + 34, p16 + 35, p16 + 36, p16 + 37, p16 + 38, p16 + 39, 12};
Line(17) = {11, 8};
Line(18) = {12, 9};
Curve Loop(1) = {-1, 4, 3, -2};
Plane Surface(1) = {1};
Curve Loop(2) = {-5, 1, 7, -6};
Plane Surface(2) = {2};
Curve Loop(3) = {-2, 7, 9, -8, -10, -11};
Plane Surface(3) = {3};
Curve Loop(4) = {-12, 3, 8, -13};
Plane Surface(4) = {4};
Curve Loop(5) = {-4, 5, 14, -12, -15, -16};
Plane Surface(5) = {5};
Curve Loop(6) = {-6, 14, 13, -9};
Plane Surface(6) = {6};
Curve Loop(7) = {-10, -17, 15, 17};
Surface(7) = {7};
Curve Loop(8) = {-11, -18, 16, 18};
Surface(8) = {8};
Surface Loop(1) = {1, 2, 3, 4, 5, 6, 7, 8};
Volume(1) = {1};
Physical Surface("INFLOW") = {1};
Physical Surface("OUTFLOW") = {6};
Physical Surface("OBSTACLE") = {7, 8};
Physical Surface("WALL_Y") = {2, 4};
Physical Surface("WALL_Z") = {3, 5};
Physical Volume("FLUID") = {1};
