cl__1 = 1.100435;
cl__2 = 1.153115;
cl__3 = 1.45019;
cl__4 = 1.329175;
cl__5 = 0.079455;
cl__6 = 0.065359;
Point(1) = {0.265265, -3.530521, 1, cl__1};
Point(2) = {0.265265, -3.530521, 0, cl__1};
Point(3) = {0.265265, 4.093567999999999, 1, cl__2};
Point(4) = {0.265265, 4.093567999999999, 0, cl__2};
Point(5) = {32.375483, -3.530521, 0, cl__3};
Point(6) = {32.375483, -3.530521, 1, cl__3};
Point(7) = {32.375483, 4.093567999999999, 1, cl__4};
Point(8) = {12.47656, -0.5519390000000002, 1, cl__5};
Point(9) = {19.164914, 2.591081, 1, cl__6};
Point(10) = {32.375483, 4.093567999999999, 0, cl__4};
Point(11) = {12.47656, -0.5519390000000002, 0, cl__5};
Point(12) = {19.164914, 2.591081, 0, cl__6};
Line(1) = {2, 1};
Line(2) = {1, 3};
Line(3) = {4, 3};
Line(4) = {2, 4};
Line(5) = {2, 5};
Line(6) = {5, 6};
Line(7) = {1, 6};
Line(8) = {3, 7};
Line(9) = {6, 7};
p10 = newp;
Point(p10 + 1) = {12.46677778333152, -0.4276441522367496, 1};
Point(p10 + 2) = {12.4376720039658, -0.3064098561363799, 1};
Point(p10 + 3) = {12.38995934278734, -0.1912213024224428, 1};
Point(p10 + 4) = {12.32481464386362, -0.08491481557626773, 1};
Point(p10 + 5) = {12.24384198588499, 0.009891985884990073, 1};
Point(p10 + 6) = {12.14903518442373, 0.09086464386362014, 1};
Point(p10 + 7) = {12.04272869757756, 0.1560093427873435, 1};
Point(p10 + 8) = {11.92754014386362, 0.203722003965798, 1};
Point(p10 + 9) = {11.80630584776325, 0.2328277833315261, 1};
Point(p10 + 10) = {11.682011, 0.24261, 1};
Point(p10 + 11) = {11.55771615223675, 0.232827783331526, 1};
Point(p10 + 12) = {11.43648185613638, 0.203722003965798, 1};
Point(p10 + 13) = {11.32129330242244, 0.1560093427873436, 1};
Point(p10 + 14) = {11.21498681557627, 0.09086464386362014, 1};
Point(p10 + 15) = {11.12018001411501, 0.009891985884990184, 1};
Point(p10 + 16) = {11.03920735613638, -0.08491481557626768, 1};
Point(p10 + 17) = {10.97406265721266, -0.1912213024224428, 1};
Point(p10 + 18) = {10.9263499960342, -0.3064098561363798, 1};
Point(p10 + 19) = {10.89724421666847, -0.4276441522367495, 1};
Point(p10 + 20) = {10.887462, -0.5519389999999998, 1};
Point(p10 + 21) = {10.89724421666847, -0.6762338477632502, 1};
Point(p10 + 22) = {10.9263499960342, -0.7974681438636203, 1};
Point(p10 + 23) = {10.97406265721266, -0.9126566975775567, 1};
Point(p10 + 24) = {11.03920735613638, -1.018963184423732, 1};
Point(p10 + 25) = {11.12018001411501, -1.11376998588499, 1};
Point(p10 + 26) = {11.21498681557627, -1.19474264386362, 1};
Point(p10 + 27) = {11.32129330242244, -1.259887342787343, 1};
Point(p10 + 28) = {11.43648185613638, -1.307600003965798, 1};
Point(p10 + 29) = {11.55771615223675, -1.336705783331526, 1};
Point(p10 + 30) = {11.682011, -1.346488, 1};
Point(p10 + 31) = {11.80630584776325, -1.336705783331526, 1};
Point(p10 + 32) = {11.92754014386362, -1.307600003965798, 1};
Point(p10 + 33) = {12.04272869757756, -1.259887342787343, 1};
Point(p10 + 34) = {12.14903518442373, -1.19474264386362, 1};
Point(p10 + 35) = {12.24384198588499, -1.11376998588499, 1};
Point(p10 + 36) = {12.32481464386362, -1.018963184423732, 1};
Point(p10 + 37) = {12.38995934278734, -0.9126566975775572, 1};
Point(p10 + 38) = {12.4376720039658, -0.7974681438636202, 1};
Point(p10 + 39) = {12.46677778333152, -0.6762338477632506, 1};
Spline(10) = {8, p10 + 1, p10 + 2, p10 + 3, p10 + 4, p10 + 5, p10 + 6, p10 + 7, p10 + 8, p10 + 9, p10 + 10, p10 + 11, p10 + 12, p10 + 13, p10 + 14, p10 + 15, p10 + 16, p10 + 17, p10 + 18, p10 + 19, p10 + 20, p10 + 21, p10 + 22, p10 + 23, p10 + 24, p10 + 25, p10 + 26, p10 + 27, p10 + 28, p10 + 29, p10 + 30, p10 + 31, p10 + 32, p10 + 33, p10 + 34, p10 + 35, p10 + 36, p10 + 37, p10 + 38, p10 + 39, 8};
p11 = newp;
Point(p11 + 1) = {19.15686722252957, 2.693325002005644, 1};
Point(p11 + 2) = {19.13292502848535, 2.793051417353522, 1};
Point(p11 + 3) = {19.09367695414428, 2.88780465072477, 1};
Point(p11 + 4) = {19.04008941735352, 2.975251563045838, 1};
Point(p11 + 5) = {18.97348192111571, 3.053238921115716, 1};
Point(p11 + 6) = {18.89549456304584, 3.119846417353522, 1};
Point(p11 + 7) = {18.80804765072477, 3.173433954144275, 1};
Point(p11 + 8) = {18.71329441735352, 3.212682028485349, 1};
Point(p11 + 9) = {18.61356800200564, 3.236624222529576, 1};
Point(p11 + 10) = {18.511324, 3.244671, 1};
Point(p11 + 11) = {18.40907999799435, 3.236624222529576, 1};
Point(p11 + 12) = {18.30935358264648, 3.212682028485349, 1};
Point(p11 + 13) = {18.21460034927523, 3.173433954144275, 1};
Point(p11 + 14) = {18.12715343695416, 3.119846417353522, 1};
Point(p11 + 15) = {18.04916607888428, 3.053238921115716, 1};
Point(p11 + 16) = {17.98255858264648, 2.975251563045838, 1};
Point(p11 + 17) = {17.92897104585572, 2.887804650724771, 1};
Point(p11 + 18) = {17.88972297151465, 2.793051417353522, 1};
Point(p11 + 19) = {17.86578077747042, 2.693325002005645, 1};
Point(p11 + 20) = {17.857734, 2.591081, 1};
Point(p11 + 21) = {17.86578077747042, 2.488836997994356, 1};
Point(p11 + 22) = {17.88972297151465, 2.389110582646478, 1};
Point(p11 + 23) = {17.92897104585572, 2.29435734927523, 1};
Point(p11 + 24) = {17.98255858264648, 2.206910436954162, 1};
Point(p11 + 25) = {18.04916607888428, 2.128923078884284, 1};
Point(p11 + 26) = {18.12715343695416, 2.062315582646478, 1};
Point(p11 + 27) = {18.21460034927523, 2.008728045855725, 1};
Point(p11 + 28) = {18.30935358264648, 1.969479971514651, 1};
Point(p11 + 29) = {18.40907999799435, 1.945537777470424, 1};
Point(p11 + 30) = {18.511324, 1.937491, 1};
Point(p11 + 31) = {18.61356800200564, 1.945537777470424, 1};
Point(p11 + 32) = {18.71329441735352, 1.96947997151465, 1};
Point(p11 + 33) = {18.80804765072477, 2.008728045855725, 1};
Point(p11 + 34) = {18.89549456304584, 2.062315582646478, 1};
Point(p11 + 35) = {18.97348192111571, 2.128923078884284, 1};
Point(p11 + 36) = {19.04008941735352, 2.206910436954162, 1};
Point(p11 + 37) = {19.09367695414428, 2.294357349275229, 1};
Point(p11 + 38) = {19.13292502848535, 2.389110582646478, 1};
Point(p11 + 39) = {19.15686722252957, 2.488836997994355, 1};
Spline(11) = {9, p11 + 1, p11 + 2, p11 + 3, p11 + 4, p11 + 5, p11 + 6, p11 + 7, p11 + 8, p11 + 9, p11 + 10, p11 + 11, p11 + 12, p11 + 13, p11 + 14, p11 + 15, p11 + 16, p11 + 17, p11 + 18, p11 + 19, p11 + 20, p11 + 21, p11 + 22, p11 + 23, p11 + 24, p11 + 25, p11 + 26, p11 + 27, p11 + 28, p11 + 29, p11 + 30, p11 + 31, p11 + 32, p11 + 33, p11 + 34, p11 + 35, p11 + 36, p11 + 37, p11 + 38, p11 + 39, 9};
Line(12) = {4, 10};
Line(13) = {10, 7};
Line(14) = {5, 10};
p15 = newp;
Point(p15 + 1) = {12.46677778333152, -0.4276441522367496, 0};
Point(p15 + 2) = {12.4376720039658, -0.3064098561363799, 0};
Point(p15 + 3) = {12.38995934278734, -0.1912213024224428, 0};
Point(p15 + 4) = {12.32481464386362, -0.08491481557626773, 0};
Point(p15 + 5) = {12.24384198588499, 0.009891985884990073, 0};
Point(p15 + 6) = {12.14903518442373, 0.09086464386362014, 0};
Point(p15 + 7) = {12.04272869757756, 0.1560093427873435, 0};
Point(p15 + 8) = {11.92754014386362, 0.203722003965798, 0};
Point(p15 + 9) = {11.80630584776325, 0.2328277833315261, 0};
Point(p15 + 10) = {11.682011, 0.24261, 0};
Point(p15 + 11) = {11.55771615223675, 0.232827783331526, 0};
Point(p15 + 12) = {11.43648185613638, 0.203722003965798, 0};
Point(p15 + 13) = {11.32129330242244, 0.1560093427873436, 0};
Point(p15 + 14) = {11.21498681557627, 0.09086464386362014, 0};
Point(p15 + 15) = {11.12018001411501, 0.009891985884990184, 0};
Point(p15 + 16) = {11.03920735613638, -0.08491481557626768, 0};
Point(p15 + 17) = {10.97406265721266, -0.1912213024224428, 0};
Point(p15 + 18) = {10.9263499960342, -0.3064098561363798, 0};
Point(p15 + 19) = {10.89724421666847, -0.4276441522367495, 0};
Point(p15 + 20) = {10.887462, -0.5519389999999998, 0};
Point(p15 + 21) = {10.89724421666847, -0.6762338477632502, 0};
Point(p15 + 22) = {10.9263499960342, -0.7974681438636203, 0};
Point(p15 + 23) = {10.97406265721266, -0.9126566975775567, 0};
Point(p15 + 24) = {11.03920735613638, -1.018963184423732, 0};
Point(p15 + 25) = {11.12018001411501, -1.11376998588499, 0};
Point(p15 + 26) = {11.21498681557627, -1.19474264386362, 0};
Point(p15 + 27) = {11.32129330242244, -1.259887342787343, 0};
Point(p15 + 28) = {11.43648185613638, -1.307600003965798, 0};
Point(p15 + 29) = {11.55771615223675, -1.336705783331526, 0};
Point(p15 + 30) = {11.682011, -1.346488, 0};
Point(p15 + 31) = {11.80630584776325, -1.336705783331526, 0};
Point(p15 + 32) = {11.92754014386362, -1.307600003965798, 0};
Point(p15 + 33) = {12.04272869757756, -1.259887342787343, 0};
Point(p15 + 34) = {12.14903518442373, -1.19474264386362, 0};
Point(p15 + 35) = {12.24384198588499, -1.11376998588499, 0};
Point(p15 + 36) = {12.32481464386362, -1.018963184423732, 0};
Point(p15 + 37) = {12.38995934278734, -0.9126566975775572, 0};
Point(p15 + 38) = {12.4376720039658, -0.7974681438636202, 0};
Point(p15 + 39) = {12.46677778333152, -0.6762338477632506, 0};
Spline(15) = {11, p15 + 1, p15 + 2, p15 + 3, p15 + 4, p15 + 5, p15 + 6, p15 + 7, p15 + 8, p15 + 9, p15 + 10, p15 + 11, p15 + 12, p15 + 13, p15 + 14, p15 + 15, p15 + 16, p15 + 17, p15 + 18, p15 + 19, p15 + 20, p15 + 21, p15 + 22, p15 + 23, p15 + 24, p15 + 25, p15 + 26, p15 + 27, p15 + 28, p15 + 29, p15 + 30, p15 + 31, p15 + 32, p15 + 33, p15 + 34, p15 + 35, p15 + 36, p15 + 37, p15 + 38, p15 + 39, 11};
p16 = newp;
Point(p16 + 1) = {19.15686722252957, 2.693325002005644, 0};
Point(p16 + 2) = {19.13292502848535, 2.793051417353522, 0};
Point(p16 + 3) = {19.09367695414428, 2.88780465072477, 0};
Point(p16 + 4) = {19.04008941735352, 2.975251563045838, 0};
Point(p16 + 5) = {18.97348192111571, 3.053238921115716, 0};
Point(p16 + 6) = {18.89549456304584, 3.119846417353522, 0};
Point(p16 + 7) = {18.80804765072477, 3.173433954144275, 0};
Point(p16 + 8) = {18.71329441735352, 3.212682028485349, 0};
Point(p16 + 9) = {18.61356800200564, 3.236624222529576, 0};
Point(p16 + 10) = {18.511324, 3.244671, 0};
Point(p16 + 11) = {18.40907999799435, 3.236624222529576, 0};
Point(p16 + 12) = {18.30935358264648, 3.212682028485349, 0};
Point(p16 + 13) = {18.21460034927523, 3.173433954144275, 0};
Point(p16 + 14) = {18.12715343695416, 3.119846417353522, 0};
Point(p16 + 15) = {18.04916607888428, 3.053238921115716, 0};
Point(p16 + 16) = {17.98255858264648, 2.975251563045838, 0};
Point(p16 + 17) = {17.92897104585572, 2.887804650724771, 0};
Point(p16 + 18) = {17.88972297151465, 2.793051417353522, 0};
Point(p16 + 19) = {17.86578077747042, 2.693325002005645, 0};
Point(p16 + 20) = {17.857734, 2.591081, 0};
Point(p16 + 21) = {17.86578077747042, 2.488836997994356, 0};
Point(p16 + 22) = {17.88972297151465, 2.389110582646478, 0};
Point(p16 + 23) = {17.92897104585572, 2.29435734927523, 0};
Point(p16 + 24) = {17.98255858264648, 2.206910436954162, 0};
Point(p16 + 25) = {18.04916607888428, 2.128923078884284, 0};
Point(p16 + 26) = {18.12715343695416, 2.062315582646478, 0};
Point(p16 + 27) = {18.21460034927523, 2.008728045855725, 0};
Point(p16 + 28) = {18.30935358264648, 1.969479971514651, 0};
Point(p16 + 29) = {18.40907999799435, 1.945537777470424, 0};
Point(p16 + 30) = {18.511324, 1.937491, 0};
Point(p16 + 31) = {18.61356800200564, 1.945537777470424, 0};
Point(p16 + 32) = {18.71329441735352, 1.96947997151465, 0};
Point(p16 + 33) = {18.80804765072477, 2.008728045855725, 0};
Point(p16 + 34) = {18.89549456304584, 2.062315582646478, 0};
Point(p16 + 35) = {18.97348192111571, 2.128923078884284, 0};
Point(p16 + 36) = {19.04008941735352, 2.206910436954162, 0};
Point(p16 + 37) = {19.09367695414428, 2.294357349275229, 0};
Point(p16 + 38) = {19.13292502848535, 2.389110582646478, 0};
Point(p16 + 39) = {19.15686722252957, 2.488836997994355, 0};
Spline(16) = {12, p16 + 1, p16 + 2, p16 + 3, p16 + 4, p16 + 5, p16 + 6, p16 + 7, p16 + 8, p16 + 9, p16 + 10, p16 + 11, p16 + 12, p16 + 13, p16 + 14, p16 + 15, p16 + 16, p16 + 17, p16 + 18, p16 + 19, p16 + 20, p16 + 21, p16 + 22, p16 + 23, p16 + 24, p16 + 25, p16 + 26, p16 + 27, p16 + 28, p16 + 29, p16 + 30, p16 + 31, p16 + 32, p16 + 33, p16 + 34, p16 + 35, p16 + 36, p16 + 37, p16 + 38, p16 + 39, 12};
Line(17) = {11, 8};
Line(18) = {12, 9};
Curve Loop(1) = {-1, 4, 3, -2};
Plane Surface(1) = {1};
Curve Loop(2) = {-5, 1, 7, -6};
Plane Surface(2) = {2};
Curve Loop(3) = {-2, 7, 9, -8, -10, -11};
Plane Surface(3) = {3};
Curve Loop(4) = {-12, 3, 8, -13};
Plane Surface(4) = {4};
Curve Loop(5) = {-4, 5, 14, -12, -15, -16};
Plane Surface(5) = {5};
Curve Loop(6) = {-6, 14, 13, -9};
Plane Surface(6) = {6};
Curve Loop(7) = {-10, -17, 15, 17};
Surface(7) = {7};
Curve Loop(8) = {-11, -18, 16, 18};
Surface(8) = {8};
Surface Loop(1) = {1, 2, 3, 4, 5, 6, 7, 8};
Volume(1) = {1};
Physical Surface("INFLOW") = {1};
Physical Surface("OUTFLOW") = {6};
Physical Surface("OBSTACLE") = {7, 8};
Physical Surface("WALL_Y") = {2, 4};
Physical Surface("WALL_Z") = {3, 5};
Physical Volume("FLUID") = {1};
