cl__1 = 2.07001;
cl__2 = 2.28777;
cl__3 = 0.747301;
cl__4 = 0.660583;
cl__5 = 0.059509;
cl__6 = 0.071502;
Point(1) = {0.5305569999999999, -3.420258, 1, cl__1};
Point(2) = {0.5305569999999999, -3.420258, 0, cl__1};
Point(3) = {0.5305569999999999, 4.327688, 1, cl__2};
Point(4) = {0.5305569999999999, 4.327688, 0, cl__2};
Point(5) = {36.054268, -3.420258, 0, cl__3};
Point(6) = {36.054268, -3.420258, 1, cl__3};
Point(7) = {36.054268, 4.327688, 1, cl__4};
Point(8) = {16.945657, -0.6509080000000002, 1, cl__5};
Point(9) = {28.439411, 1.711056, 1, cl__6};
Point(10) = {36.054268, 4.327688, 0, cl__4};
Point(11) = {16.945657, -0.6509080000000002, 0, cl__5};
Point(12) = {28.439411, 1.711056, 0, cl__6};
Line(1) = {2, 1};
Line(2) = {1, 3};
Line(3) = {4, 3};
Line(4) = {2, 4};
Line(5) = {2, 5};
Line(6) = {5, 6};
Line(7) = {1, 6};
Line(8) = {3, 7};
Line(9) = {6, 7};
p10 = newp;
Point(p10 + 1) = {16.9383305038514, -0.5578160399370692, 1};
Point(p10 + 2) = {16.91653141805602, -0.4670163128853901, 1};
Point(p10 + 3) = {16.88079650845316, -0.3807446094719921, 1};
Point(p10 + 4) = {16.83200568711461, -0.3011252253542814, 1};
Point(p10 + 5) = {16.77136034598918, -0.2301186540108223, 1};
Point(p10 + 6) = {16.70035377464572, -0.1694733128853901, 1};
Point(p10 + 7) = {16.62073439052801, -0.120682491546841, 1};
Point(p10 + 8) = {16.53446268711461, -0.08494758194398233, 1};
Point(p10 + 9) = {16.44366296006293, -0.06314849614860185, 1};
Point(p10 + 10) = {16.350571, -0.05582200000000004, 1};
Point(p10 + 11) = {16.25747903993707, -0.06314849614860196, 1};
Point(p10 + 12) = {16.16667931288539, -0.08494758194398222, 1};
Point(p10 + 13) = {16.08040760947199, -0.120682491546841, 1};
Point(p10 + 14) = {16.00078822535428, -0.1694733128853901, 1};
Point(p10 + 15) = {15.92978165401082, -0.2301186540108222, 1};
Point(p10 + 16) = {15.86913631288539, -0.3011252253542813, 1};
Point(p10 + 17) = {15.82034549154684, -0.3807446094719921, 1};
Point(p10 + 18) = {15.78461058194398, -0.46701631288539, 1};
Point(p10 + 19) = {15.7628114961486, -0.5578160399370692, 1};
Point(p10 + 20) = {15.755485, -0.6509079999999999, 1};
Point(p10 + 21) = {15.7628114961486, -0.7439999600629308, 1};
Point(p10 + 22) = {15.78461058194398, -0.8347996871146102, 1};
Point(p10 + 23) = {15.82034549154684, -0.9210713905280077, 1};
Point(p10 + 24) = {15.86913631288539, -1.000690774645719, 1};
Point(p10 + 25) = {15.92978165401082, -1.071697345989178, 1};
Point(p10 + 26) = {16.00078822535428, -1.13234268711461, 1};
Point(p10 + 27) = {16.08040760947199, -1.181133508453159, 1};
Point(p10 + 28) = {16.16667931288539, -1.216868418056018, 1};
Point(p10 + 29) = {16.25747903993707, -1.238667503851398, 1};
Point(p10 + 30) = {16.350571, -1.245994, 1};
Point(p10 + 31) = {16.44366296006293, -1.238667503851398, 1};
Point(p10 + 32) = {16.53446268711461, -1.216868418056018, 1};
Point(p10 + 33) = {16.62073439052801, -1.181133508453159, 1};
Point(p10 + 34) = {16.70035377464572, -1.13234268711461, 1};
Point(p10 + 35) = {16.77136034598918, -1.071697345989178, 1};
Point(p10 + 36) = {16.83200568711461, -1.000690774645719, 1};
Point(p10 + 37) = {16.88079650845316, -0.9210713905280081, 1};
Point(p10 + 38) = {16.91653141805602, -0.8347996871146102, 1};
Point(p10 + 39) = {16.9383305038514, -0.743999960062931, 1};
Spline(10) = {8, p10 + 1, p10 + 2, p10 + 3, p10 + 4, p10 + 5, p10 + 6, p10 + 7, p10 + 8, p10 + 9, p10 + 10, p10 + 11, p10 + 12, p10 + 13, p10 + 14, p10 + 15, p10 + 16, p10 + 17, p10 + 18, p10 + 19, p10 + 20, p10 + 21, p10 + 22, p10 + 23, p10 + 24, p10 + 25, p10 + 26, p10 + 27, p10 + 28, p10 + 29, p10 + 30, p10 + 31, p10 + 32, p10 + 33, p10 + 34, p10 + 35, p10 + 36, p10 + 37, p10 + 38, p10 + 39, 8};
p11 = newp;
Point(p11 + 1) = {28.43060788035736, 1.822910240496461, 1};
Point(p11 + 2) = {28.40441528345091, 1.932010258368958, 1};
Point(p11 + 3) = {28.36147815794474, 2.03566964909527, 1};
Point(p11 + 4) = {28.30285375836896, 2.131335974449921, 1};
Point(p11 + 5) = {28.22998561200435, 2.216653612004349, 1};
Point(p11 + 6) = {28.14466797444992, 2.289521758368958, 1};
Point(p11 + 7) = {28.04900164909527, 2.348146157944739, 1};
Point(p11 + 8) = {27.94534225836896, 2.391083283450909, 1};
Point(p11 + 9) = {27.83624224049646, 2.417275880357357, 1};
Point(p11 + 10) = {27.724388, 2.426079, 1};
Point(p11 + 11) = {27.61253375950354, 2.417275880357357, 1};
Point(p11 + 12) = {27.50343374163104, 2.391083283450909, 1};
Point(p11 + 13) = {27.39977435090473, 2.348146157944739, 1};
Point(p11 + 14) = {27.30410802555008, 2.289521758368958, 1};
Point(p11 + 15) = {27.21879038799565, 2.216653612004349, 1};
Point(p11 + 16) = {27.14592224163104, 2.131335974449921, 1};
Point(p11 + 17) = {27.08729784205526, 2.03566964909527, 1};
Point(p11 + 18) = {27.04436071654909, 1.932010258368958, 1};
Point(p11 + 19) = {27.01816811964265, 1.822910240496461, 1};
Point(p11 + 20) = {27.009365, 1.711056, 1};
Point(p11 + 21) = {27.01816811964265, 1.599201759503539, 1};
Point(p11 + 22) = {27.04436071654909, 1.490101741631042, 1};
Point(p11 + 23) = {27.08729784205526, 1.38644235090473, 1};
Point(p11 + 24) = {27.14592224163104, 1.290776025550079, 1};
Point(p11 + 25) = {27.21879038799565, 1.205458387995651, 1};
Point(p11 + 26) = {27.30410802555008, 1.132590241631042, 1};
Point(p11 + 27) = {27.39977435090473, 1.073965842055261, 1};
Point(p11 + 28) = {27.50343374163104, 1.03102871654909, 1};
Point(p11 + 29) = {27.61253375950354, 1.004836119642643, 1};
Point(p11 + 30) = {27.724388, 0.9960329999999999, 1};
Point(p11 + 31) = {27.83624224049646, 1.004836119642643, 1};
Point(p11 + 32) = {27.94534225836896, 1.03102871654909, 1};
Point(p11 + 33) = {28.04900164909527, 1.07396584205526, 1};
Point(p11 + 34) = {28.14466797444992, 1.132590241631042, 1};
Point(p11 + 35) = {28.22998561200435, 1.205458387995651, 1};
Point(p11 + 36) = {28.30285375836896, 1.290776025550079, 1};
Point(p11 + 37) = {28.36147815794474, 1.38644235090473, 1};
Point(p11 + 38) = {28.40441528345091, 1.490101741631042, 1};
Point(p11 + 39) = {28.43060788035736, 1.599201759503539, 1};
Spline(11) = {9, p11 + 1, p11 + 2, p11 + 3, p11 + 4, p11 + 5, p11 + 6, p11 + 7, p11 + 8, p11 + 9, p11 + 10, p11 + 11, p11 + 12, p11 + 13, p11 + 14, p11 + 15, p11 + 16, p11 + 17, p11 + 18, p11 + 19, p11 + 20, p11 + 21, p11 + 22, p11 + 23, p11 + 24, p11 + 25, p11 + 26, p11 + 27, p11 + 28, p11 + 29, p11 + 30, p11 + 31, p11 + 32, p11 + 33, p11 + 34, p11 + 35, p11 + 36, p11 + 37, p11 + 38, p11 + 39, 9};
Line(12) = {4, 10};
Line(13) = {10, 7};
Line(14) = {5, 10};
p15 = newp;
Point(p15 + 1) = {16.9383305038514, -0.5578160399370692, 0};
Point(p15 + 2) = {16.91653141805602, -0.4670163128853901, 0};
Point(p15 + 3) = {16.88079650845316, -0.3807446094719921, 0};
Point(p15 + 4) = {16.83200568711461, -0.3011252253542814, 0};
Point(p15 + 5) = {16.77136034598918, -0.2301186540108223, 0};
Point(p15 + 6) = {16.70035377464572, -0.1694733128853901, 0};
Point(p15 + 7) = {16.62073439052801, -0.120682491546841, 0};
Point(p15 + 8) = {16.53446268711461, -0.08494758194398233, 0};
Point(p15 + 9) = {16.44366296006293, -0.06314849614860185, 0};
Point(p15 + 10) = {16.350571, -0.05582200000000004, 0};
Point(p15 + 11) = {16.25747903993707, -0.06314849614860196, 0};
Point(p15 + 12) = {16.16667931288539, -0.08494758194398222, 0};
Point(p15 + 13) = {16.08040760947199, -0.120682491546841, 0};
Point(p15 + 14) = {16.00078822535428, -0.1694733128853901, 0};
Point(p15 + 15) = {15.92978165401082, -0.2301186540108222, 0};
Point(p15 + 16) = {15.86913631288539, -0.3011252253542813, 0};
Point(p15 + 17) = {15.82034549154684, -0.3807446094719921, 0};
Point(p15 + 18) = {15.78461058194398, -0.46701631288539, 0};
Point(p15 + 19) = {15.7628114961486, -0.5578160399370692, 0};
Point(p15 + 20) = {15.755485, -0.6509079999999999, 0};
Point(p15 + 21) = {15.7628114961486, -0.7439999600629308, 0};
Point(p15 + 22) = {15.78461058194398, -0.8347996871146102, 0};
Point(p15 + 23) = {15.82034549154684, -0.9210713905280077, 0};
Point(p15 + 24) = {15.86913631288539, -1.000690774645719, 0};
Point(p15 + 25) = {15.92978165401082, -1.071697345989178, 0};
Point(p15 + 26) = {16.00078822535428, -1.13234268711461, 0};
Point(p15 + 27) = {16.08040760947199, -1.181133508453159, 0};
Point(p15 + 28) = {16.16667931288539, -1.216868418056018, 0};
Point(p15 + 29) = {16.25747903993707, -1.238667503851398, 0};
Point(p15 + 30) = {16.350571, -1.245994, 0};
Point(p15 + 31) = {16.44366296006293, -1.238667503851398, 0};
Point(p15 + 32) = {16.53446268711461, -1.216868418056018, 0};
Point(p15 + 33) = {16.62073439052801, -1.181133508453159, 0};
Point(p15 + 34) = {16.70035377464572, -1.13234268711461, 0};
Point(p15 + 35) = {16.77136034598918, -1.071697345989178, 0};
Point(p15 + 36) = {16.83200568711461, -1.000690774645719, 0};
Point(p15 + 37) = {16.88079650845316, -0.9210713905280081, 0};
Point(p15 + 38) = {16.91653141805602, -0.8347996871146102, 0};
Point(p15 + 39) = {16.9383305038514, -0.743999960062931, 0};
Spline(15) = {11, p15 + 1, p15 + 2, p15 + 3, p15 + 4, p15 + 5, p15 + 6, p15 + 7, p15 + 8, p15 + 9, p15 + 10, p15 + 11, p15 + 12, p15 + 13, p15 + 14, p15 + 15, p15 + 16, p15 + 17, p15 + 18, p15 + 19, p15 + 20, p15 + 21, p15 + 22, p15 + 23, p15 + 24, p15 + 25, p15 + 26, p15 + 27, p15 + 28, p15 + 29, p15 + 30, p15 + 31, p15 + 32, p15 + 33, p15 + 34, p15 + 35, p15 + 36, p15 + 37, p15 + 38, p15 + 39, 11};
p16 = newp;
Point(p16 + 1) = {28.43060788035736, 1.822910240496461, 0};
Point(p16 + 2) = {28.40441528345091, 1.932010258368958, 0};
Point(p16 + 3) = {28.36147815794474, 2.03566964909527, 0};
Point(p16 + 4) = {28.30285375836896, 2.131335974449921, 0};
Point(p16 + 5) = {28.22998561200435, 2.216653612004349, 0};
Point(p16 + 6) = {28.14466797444992, 2.289521758368958, 0};
Point(p16 + 7) = {28.04900164909527, 2.348146157944739, 0};
Point(p16 + 8) = {27.94534225836896, 2.391083283450909, 0};
Point(p16 + 9) = {27.83624224049646, 2.417275880357357, 0};
Point(p16 + 10) = {27.724388, 2.426079, 0};
Point(p16 + 11) = {27.61253375950354, 2.417275880357357, 0};
Point(p16 + 12) = {27.50343374163104, 2.391083283450909, 0};
Point(p16 + 13) = {27.39977435090473, 2.348146157944739, 0};
Point(p16 + 14) = {27.30410802555008, 2.289521758368958, 0};
Point(p16 + 15) = {27.21879038799565, 2.216653612004349, 0};
Point(p16 + 16) = {27.14592224163104, 2.131335974449921, 0};
Point(p16 + 17) = {27.08729784205526, 2.03566964909527, 0};
Point(p16 + 18) = {27.04436071654909, 1.932010258368958, 0};
Point(p16 + 19) = {27.01816811964265, 1.822910240496461, 0};
Point(p16 + 20) = {27.009365, 1.711056, 0};
Point(p16 + 21) = {27.01816811964265, 1.599201759503539, 0};
Point(p16 + 22) = {27.04436071654909, 1.490101741631042, 0};
Point(p16 + 23) = {27.08729784205526, 1.38644235090473, 0};
Point(p16 + 24) = {27.14592224163104, 1.290776025550079, 0};
Point(p16 + 25) = {27.21879038799565, 1.205458387995651, 0};
Point(p16 + 26) = {27.30410802555008, 1.132590241631042, 0};
Point(p16 + 27) = {27.39977435090473, 1.073965842055261, 0};
Point(p16 + 28) = {27.50343374163104, 1.03102871654909, 0};
Point(p16 + 29) = {27.61253375950354, 1.004836119642643, 0};
Point(p16 + 30) = {27.724388, 0.9960329999999999, 0};
Point(p16 + 31) = {27.83624224049646, 1.004836119642643, 0};
Point(p16 + 32) = {27.94534225836896, 1.03102871654909, 0};
Point(p16 + 33) = {28.04900164909527, 1.07396584205526, 0};
Point(p16 + 34) = {28.14466797444992, 1.132590241631042, 0};
Point(p16 + 35) = {28.22998561200435, 1.205458387995651, 0};
Point(p16 + 36) = {28.30285375836896, 1.290776025550079, 0};
Point(p16 + 37) = {28.36147815794474, 1.38644235090473, 0};
Point(p16 + 38) = {28.40441528345091, 1.490101741631042, 0};
Point(p16 + 39) = {28.43060788035736, 1.599201759503539, 0};
Spline(16) = {12, p16 + 1, p16 + 2, p16 + 3, p16 + 4, p16 + 5, p16 + 6, p16 + 7, p16 + 8, p16 + 9, p16 + 10, p16 + 11, p16 + 12, p16 + 13, p16 + 14, p16 + 15, p16 + 16, p16 + 17, p16 + 18, p16 + 19, p16 + 20, p16 + 21, p16 + 22, p16 + 23, p16 + 24, p16 + 25, p16 + 26, p16 + 27, p16 + 28, p16 + 29, p16 + 30, p16 + 31, p16 + 32, p16 + 33, p16 + 34, p16 + 35, p16 + 36, p16 + 37, p16 + 38, p16 + 39, 12};
Line(17) = {11, 8};
Line(18) = {12, 9};
Curve Loop(1) = {-1, 4, 3, -2};
Plane Surface(1) = {1};
Curve Loop(2) = {-5, 1, 7, -6};
Plane Surface(2) = {2};
Curve Loop(3) = {-2, 7, 9, -8, -10, -11};
Plane Surface(3) = {3};
Curve Loop(4) = {-12, 3, 8, -13};
Plane Surface(4) = {4};
Curve Loop(5) = {-4, 5, 14, -12, -15, -16};
Plane Surface(5) = {5};
Curve Loop(6) = {-6, 14, 13, -9};
Plane Surface(6) = {6};
Curve Loop(7) = {-10, -17, 15, 17};
Surface(7) = {7};
Curve Loop(8) = {-11, -18, 16, 18};
Surface(8) = {8};
Surface Loop(1) = {1, 2, 3, 4, 5, 6, 7, 8};
Volume(1) = {1};
Physical Surface("INFLOW") = {1};
Physical Surface("OUTFLOW") = {6};
Physical Surface("OBSTACLE") = {7, 8};
Physical Surface("WALL_Y") = {2, 4};
Physical Surface("WALL_Z") = {3, 5};
Physical Volume("FLUID") = {1};
