cl__1 = 1.066146;
cl__2 = 1.113481;
cl__3 = 1.086501;
cl__4 = 0.913901;
cl__5 = 0.095693;
cl__6 = 0.137419;
Point(1) = {0.386079, -4.312334, 1, cl__1};
Point(2) = {0.386079, -4.312334, 0, cl__1};
Point(3) = {0.386079, 5.639711, 1, cl__2};
Point(4) = {0.386079, 5.639711, 0, cl__2};
Point(5) = {38.207476, -4.312334, 0, cl__3};
Point(6) = {38.207476, -4.312334, 1, cl__3};
Point(7) = {38.207476, 5.639711, 1, cl__4};
Point(8) = {17.779917, 0.2582659999999998, 1, cl__5};
Point(9) = {23.923494, 3.679273999999999, 1, cl__6};
Point(10) = {38.207476, 5.639711, 0, cl__4};
Point(11) = {17.779917, 0.2582659999999998, 0, cl__5};
Point(12) = {23.923494, 3.679273999999999, 0, cl__6};
Line(1) = {2, 1};
Line(2) = {1, 3};
Line(3) = {4, 3};
Line(4) = {2, 4};
Line(5) = {2, 5};
Line(6) = {5, 6};
Line(7) = {1, 6};
Line(8) = {3, 7};
Line(9) = {6, 7};
p10 = newp;
Point(p10 + 1) = {17.76813562838903, 0.407962519762018, 1};
Point(p10 + 2) = {17.73308161002529, 0.5539730143932297, 1};
Point(p10 + 3) = {17.67561809117853, 0.692702220934765, 1};
Point(p10 + 4) = {17.59716001439323, 0.8207341659057318, 1};
Point(p10 + 5) = {17.49963927790728, 0.9349162779072805, 1};
Point(p10 + 6) = {17.38545716590573, 1.03243701439323, 1};
Point(p10 + 7) = {17.25742522093476, 1.110895091178526, 1};
Point(p10 + 8) = {17.11869601439323, 1.168358610025289, 1};
Point(p10 + 9) = {16.97268551976202, 1.203412628389024, 1};
Point(p10 + 10) = {16.822989, 1.215194, 1};
Point(p10 + 11) = {16.67329248023798, 1.203412628389024, 1};
Point(p10 + 12) = {16.52728198560677, 1.168358610025289, 1};
Point(p10 + 13) = {16.38855277906524, 1.110895091178526, 1};
Point(p10 + 14) = {16.26052083409427, 1.03243701439323, 1};
Point(p10 + 15) = {16.14633872209272, 0.9349162779072806, 1};
Point(p10 + 16) = {16.04881798560677, 0.8207341659057318, 1};
Point(p10 + 17) = {15.97035990882147, 0.6927022209347651, 1};
Point(p10 + 18) = {15.91289638997471, 0.5539730143932298, 1};
Point(p10 + 19) = {15.87784237161098, 0.4079625197620181, 1};
Point(p10 + 20) = {15.866061, 0.2582660000000001, 1};
Point(p10 + 21) = {15.87784237161098, 0.1085694802379821, 1};
Point(p10 + 22) = {15.91289638997471, -0.03744101439323, 1};
Point(p10 + 23) = {15.97035990882147, -0.1761702209347645, 1};
Point(p10 + 24) = {16.04881798560677, -0.3042021659057317, 1};
Point(p10 + 25) = {16.14633872209272, -0.4183842779072805, 1};
Point(p10 + 26) = {16.26052083409427, -0.5159050143932297, 1};
Point(p10 + 27) = {16.38855277906524, -0.5943630911785264, 1};
Point(p10 + 28) = {16.52728198560677, -0.6518266100252886, 1};
Point(p10 + 29) = {16.67329248023798, -0.6868806283890239, 1};
Point(p10 + 30) = {16.822989, -0.698662, 1};
Point(p10 + 31) = {16.97268551976202, -0.686880628389024, 1};
Point(p10 + 32) = {17.11869601439323, -0.6518266100252887, 1};
Point(p10 + 33) = {17.25742522093476, -0.5943630911785265, 1};
Point(p10 + 34) = {17.38545716590573, -0.5159050143932298, 1};
Point(p10 + 35) = {17.49963927790728, -0.4183842779072807, 1};
Point(p10 + 36) = {17.59716001439323, -0.3042021659057319, 1};
Point(p10 + 37) = {17.67561809117853, -0.1761702209347652, 1};
Point(p10 + 38) = {17.73308161002529, -0.03744101439322989, 1};
Point(p10 + 39) = {17.76813562838903, 0.1085694802379817, 1};
Spline(10) = {8, p10 + 1, p10 + 2, p10 + 3, p10 + 4, p10 + 5, p10 + 6, p10 + 7, p10 + 8, p10 + 9, p10 + 10, p10 + 11, p10 + 12, p10 + 13, p10 + 14, p10 + 15, p10 + 16, p10 + 17, p10 + 18, p10 + 19, p10 + 20, p10 + 21, p10 + 22, p10 + 23, p10 + 24, p10 + 25, p10 + 26, p10 + 27, p10 + 28, p10 + 29, p10 + 30, p10 + 31, p10 + 32, p10 + 33, p10 + 34, p10 + 35, p10 + 36, p10 + 37, p10 + 38, p10 + 39, 8};
p11 = newp;
Point(p11 + 1) = {23.90657544076243, 3.894244677513635, 1};
Point(p11 + 2) = {23.85623635412763, 4.103922063500109, 1};
Point(p11 + 3) = {23.77371625547441, 4.303143204837088, 1};
Point(p11 + 4) = {23.66104706350011, 4.487002615847794, 1};
Point(p11 + 5) = {23.52100306763874, 4.650973067638741, 1};
Point(p11 + 6) = {23.35703261584779, 4.791017063500109, 1};
Point(p11 + 7) = {23.17317320483709, 4.903686255474414, 1};
Point(p11 + 8) = {22.97395206350011, 4.986206354127637, 1};
Point(p11 + 9) = {22.76427467751363, 5.036545440762432, 1};
Point(p11 + 10) = {22.549304, 5.053464, 1};
Point(p11 + 11) = {22.33433332248637, 5.036545440762432, 1};
Point(p11 + 12) = {22.12465593649989, 4.986206354127637, 1};
Point(p11 + 13) = {21.92543479516291, 4.903686255474414, 1};
Point(p11 + 14) = {21.74157538415221, 4.791017063500109, 1};
Point(p11 + 15) = {21.57760493236126, 4.650973067638741, 1};
Point(p11 + 16) = {21.43756093649989, 4.487002615847794, 1};
Point(p11 + 17) = {21.32489174452559, 4.303143204837088, 1};
Point(p11 + 18) = {21.24237164587236, 4.103922063500109, 1};
Point(p11 + 19) = {21.19203255923757, 3.894244677513635, 1};
Point(p11 + 20) = {21.175114, 3.679274, 1};
Point(p11 + 21) = {21.19203255923757, 3.464303322486365, 1};
Point(p11 + 22) = {21.24237164587236, 3.25462593649989, 1};
Point(p11 + 23) = {21.32489174452559, 3.055404795162913, 1};
Point(p11 + 24) = {21.43756093649989, 2.871545384152206, 1};
Point(p11 + 25) = {21.57760493236126, 2.707574932361258, 1};
Point(p11 + 26) = {21.74157538415221, 2.567530936499891, 1};
Point(p11 + 27) = {21.92543479516291, 2.454861744525587, 1};
Point(p11 + 28) = {22.12465593649989, 2.372341645872363, 1};
Point(p11 + 29) = {22.33433332248637, 2.322002559237568, 1};
Point(p11 + 30) = {22.549304, 2.305084, 1};
Point(p11 + 31) = {22.76427467751363, 2.322002559237568, 1};
Point(p11 + 32) = {22.97395206350011, 2.372341645872363, 1};
Point(p11 + 33) = {23.17317320483709, 2.454861744525587, 1};
Point(p11 + 34) = {23.35703261584779, 2.567530936499891, 1};
Point(p11 + 35) = {23.52100306763874, 2.707574932361258, 1};
Point(p11 + 36) = {23.66104706350011, 2.871545384152206, 1};
Point(p11 + 37) = {23.77371625547441, 3.055404795162912, 1};
Point(p11 + 38) = {23.85623635412763, 3.254625936499891, 1};
Point(p11 + 39) = {23.90657544076243, 3.464303322486365, 1};
Spline(11) = {9, p11 + 1, p11 + 2, p11 + 3, p11 + 4, p11 + 5, p11 + 6, p11 + 7, p11 + 8, p11 + 9, p11 + 10, p11 + 11, p11 + 12, p11 + 13, p11 + 14, p11 + 15, p11 + 16, p11 + 17, p11 + 18, p11 + 19, p11 + 20, p11 + 21, p11 + 22, p11 + 23, p11 + 24, p11 + 25, p11 + 26, p11 + 27, p11 + 28, p11 + 29, p11 + 30, p11 + 31, p11 + 32, p11 + 33, p11 + 34, p11 + 35, p11 + 36, p11 + 37, p11 + 38, p11 + 39, 9};
Line(12) = {4, 10};
Line(13) = {10, 7};
Line(14) = {5, 10};
p15 = newp;
Point(p15 + 1) = {17.76813562838903, 0.407962519762018, 0};
Point(p15 + 2) = {17.73308161002529, 0.5539730143932297, 0};
Point(p15 + 3) = {17.67561809117853, 0.692702220934765, 0};
Point(p15 + 4) = {17.59716001439323, 0.8207341659057318, 0};
Point(p15 + 5) = {17.49963927790728, 0.9349162779072805, 0};
Point(p15 + 6) = {17.38545716590573, 1.03243701439323, 0};
Point(p15 + 7) = {17.25742522093476, 1.110895091178526, 0};
Point(p15 + 8) = {17.11869601439323, 1.168358610025289, 0};
Point(p15 + 9) = {16.97268551976202, 1.203412628389024, 0};
Point(p15 + 10) = {16.822989, 1.215194, 0};
Point(p15 + 11) = {16.67329248023798, 1.203412628389024, 0};
Point(p15 + 12) = {16.52728198560677, 1.168358610025289, 0};
Point(p15 + 13) = {16.38855277906524, 1.110895091178526, 0};
Point(p15 + 14) = {16.26052083409427, 1.03243701439323, 0};
Point(p15 + 15) = {16.14633872209272, 0.9349162779072806, 0};
Point(p15 + 16) = {16.04881798560677, 0.8207341659057318, 0};
Point(p15 + 17) = {15.97035990882147, 0.6927022209347651, 0};
Point(p15 + 18) = {15.91289638997471, 0.5539730143932298, 0};
Point(p15 + 19) = {15.87784237161098, 0.4079625197620181, 0};
Point(p15 + 20) = {15.866061, 0.2582660000000001, 0};
Point(p15 + 21) = {15.87784237161098, 0.1085694802379821, 0};
Point(p15 + 22) = {15.91289638997471, -0.03744101439323, 0};
Point(p15 + 23) = {15.97035990882147, -0.1761702209347645, 0};
Point(p15 + 24) = {16.04881798560677, -0.3042021659057317, 0};
Point(p15 + 25) = {16.14633872209272, -0.4183842779072805, 0};
Point(p15 + 26) = {16.26052083409427, -0.5159050143932297, 0};
Point(p15 + 27) = {16.38855277906524, -0.5943630911785264, 0};
Point(p15 + 28) = {16.52728198560677, -0.6518266100252886, 0};
Point(p15 + 29) = {16.67329248023798, -0.6868806283890239, 0};
Point(p15 + 30) = {16.822989, -0.698662, 0};
Point(p15 + 31) = {16.97268551976202, -0.686880628389024, 0};
Point(p15 + 32) = {17.11869601439323, -0.6518266100252887, 0};
Point(p15 + 33) = {17.25742522093476, -0.5943630911785265, 0};
Point(p15 + 34) = {17.38545716590573, -0.5159050143932298, 0};
Point(p15 + 35) = {17.49963927790728, -0.4183842779072807, 0};
Point(p15 + 36) = {17.59716001439323, -0.3042021659057319, 0};
Point(p15 + 37) = {17.67561809117853, -0.1761702209347652, 0};
Point(p15 + 38) = {17.73308161002529, -0.03744101439322989, 0};
Point(p15 + 39) = {17.76813562838903, 0.1085694802379817, 0};
Spline(15) = {11, p15 + 1, p15 + 2, p15 + 3, p15 + 4, p15 + 5, p15 + 6, p15 + 7, p15 + 8, p15 + 9, p15 + 10, p15 + 11, p15 + 12, p15 + 13, p15 + 14, p15 + 15, p15 + 16, p15 + 17, p15 + 18, p15 + 19, p15 + 20, p15 + 21, p15 + 22, p15 + 23, p15 + 24, p15 + 25, p15 + 26, p15 + 27, p15 + 28, p15 + 29, p15 + 30, p15 + 31, p15 + 32, p15 + 33, p15 + 34, p15 + 35, p15 + 36, p15 + 37, p15 + 38, p15 + 39, 11};
p16 = newp;
Point(p16 + 1) = {23.90657544076243, 3.894244677513635, 0};
Point(p16 + 2) = {23.85623635412763, 4.103922063500109, 0};
Point(p16 + 3) = {23.77371625547441, 4.303143204837088, 0};
Point(p16 + 4) = {23.66104706350011, 4.487002615847794, 0};
Point(p16 + 5) = {23.52100306763874, 4.650973067638741, 0};
Point(p16 + 6) = {23.35703261584779, 4.791017063500109, 0};
Point(p16 + 7) = {23.17317320483709, 4.903686255474414, 0};
Point(p16 + 8) = {22.97395206350011, 4.986206354127637, 0};
Point(p16 + 9) = {22.76427467751363, 5.036545440762432, 0};
Point(p16 + 10) = {22.549304, 5.053464, 0};
Point(p16 + 11) = {22.33433332248637, 5.036545440762432, 0};
Point(p16 + 12) = {22.12465593649989, 4.986206354127637, 0};
Point(p16 + 13) = {21.92543479516291, 4.903686255474414, 0};
Point(p16 + 14) = {21.74157538415221, 4.791017063500109, 0};
Point(p16 + 15) = {21.57760493236126, 4.650973067638741, 0};
Point(p16 + 16) = {21.43756093649989, 4.487002615847794, 0};
Point(p16 + 17) = {21.32489174452559, 4.303143204837088, 0};
Point(p16 + 18) = {21.24237164587236, 4.103922063500109, 0};
Point(p16 + 19) = {21.19203255923757, 3.894244677513635, 0};
Point(p16 + 20) = {21.175114, 3.679274, 0};
Point(p16 + 21) = {21.19203255923757, 3.464303322486365, 0};
Point(p16 + 22) = {21.24237164587236, 3.25462593649989, 0};
Point(p16 + 23) = {21.32489174452559, 3.055404795162913, 0};
Point(p16 + 24) = {21.43756093649989, 2.871545384152206, 0};
Point(p16 + 25) = {21.57760493236126, 2.707574932361258, 0};
Point(p16 + 26) = {21.74157538415221, 2.567530936499891, 0};
Point(p16 + 27) = {21.92543479516291, 2.454861744525587, 0};
Point(p16 + 28) = {22.12465593649989, 2.372341645872363, 0};
Point(p16 + 29) = {22.33433332248637, 2.322002559237568, 0};
Point(p16 + 30) = {22.549304, 2.305084, 0};
Point(p16 + 31) = {22.76427467751363, 2.322002559237568, 0};
Point(p16 + 32) = {22.97395206350011, 2.372341645872363, 0};
Point(p16 + 33) = {23.17317320483709, 2.454861744525587, 0};
Point(p16 + 34) = {23.35703261584779, 2.567530936499891, 0};
Point(p16 + 35) = {23.52100306763874, 2.707574932361258, 0};
Point(p16 + 36) = {23.66104706350011, 2.871545384152206, 0};
Point(p16 + 37) = {23.77371625547441, 3.055404795162912, 0};
Point(p16 + 38) = {23.85623635412763, 3.254625936499891, 0};
Point(p16 + 39) = {23.90657544076243, 3.464303322486365, 0};
Spline(16) = {12, p16 + 1, p16 + 2, p16 + 3, p16 + 4, p16 + 5, p16 + 6, p16 + 7, p16 + 8, p16 + 9, p16 + 10, p16 + 11, p16 + 12, p16 + 13, p16 + 14, p16 + 15, p16 + 16, p16 + 17, p16 + 18, p16 + 19, p16 + 20, p16 + 21, p16 + 22, p16 + 23, p16 + 24, p16 + 25, p16 + 26, p16 + 27, p16 + 28, p16 + 29, p16 + 30, p16 + 31, p16 + 32, p16 + 33, p16 + 34, p16 + 35, p16 + 36, p16 + 37, p16 + 38, p16 + 39, 12};
Line(17) = {11, 8};
Line(18) = {12, 9};
Curve Loop(1) = {-1, 4, 3, -2};
Plane Surface(1) = {1};
Curve Loop(2) = {-5, 1, 7, -6};
Plane Surface(2) = {2};
Curve Loop(3) = {-2, 7, 9, -8, -10, -11};
Plane Surface(3) = {3};
Curve Loop(4) = {-12, 3, 8, -13};
Plane Surface(4) = {4};
Curve Loop(5) = {-4, 5, 14, -12, -15, -16};
Plane Surface(5) = {5};
Curve Loop(6) = {-6, 14, 13, -9};
Plane Surface(6) = {6};
Curve Loop(7) = {-10, -17, 15, 17};
Surface(7) = {7};
Curve Loop(8) = {-11, -18, 16, 18};
Surface(8) = {8};
Surface Loop(1) = {1, 2, 3, 4, 5, 6, 7, 8};
Volume(1) = {1};
Physical Surface("INFLOW") = {1};
Physical Surface("OUTFLOW") = {6};
Physical Surface("OBSTACLE") = {7, 8};
Physical Surface("WALL_Y") = {2, 4};
Physical Surface("WALL_Z") = {3, 5};
Physical Volume("FLUID") = {1};
