cl__1 = 4.074683;
cl__2 = 3.949984;
cl__3 = 0.503371;
cl__4 = 0.318653;
cl__5 = 0.135177;
cl__6 = 0.088001;
Point(1) = {0.722444, -3.532973, 1, cl__1};
Point(2) = {0.722444, -3.532973, 0, cl__1};
Point(3) = {0.722444, 4.35293, 1, cl__2};
Point(4) = {0.722444, 4.35293, 0, cl__2};
Point(5) = {36.547813, -3.532973, 0, cl__3};
Point(6) = {36.547813, -3.532973, 1, cl__3};
Point(7) = {36.547813, 4.35293, 1, cl__4};
Point(8) = {26.668603, 1.181597, 1, cl__5};
Point(9) = {32.031221, 2.833737999999999, 1, cl__6};
Point(10) = {36.547813, 4.35293, 0, cl__4};
Point(11) = {26.668603, 1.181597, 0, cl__5};
Point(12) = {32.031221, 2.833737999999999, 0, cl__6};
Line(1) = {2, 1};
Line(2) = {1, 3};
Line(3) = {4, 3};
Line(4) = {2, 4};
Line(5) = {2, 5};
Line(6) = {5, 6};
Line(7) = {1, 6};
Line(8) = {3, 7};
Line(9) = {6, 7};
p10 = newp;
Point(p10 + 1) = {26.65196052972459, 1.393059634635108, 1};
Point(p10 + 2) = {26.60244291174972, 1.599315357401251, 1};
Point(p10 + 3) = {26.52126943416949, 1.795285467880428, 1};
Point(p10 + 4) = {26.41043885740125, 1.976144531565135, 1};
Point(p10 + 5) = {26.27268019807063, 2.137439198070633, 1};
Point(p10 + 6) = {26.11138553156514, 2.275197857401251, 1};
Point(p10 + 7) = {25.93052646788043, 2.386028434169489, 1};
Point(p10 + 8) = {25.73455635740125, 2.467201911749719, 1};
Point(p10 + 9) = {25.52830063463511, 2.516719529724587, 1};
Point(p10 + 10) = {25.316838, 2.533362, 1};
Point(p10 + 11) = {25.10537536536489, 2.516719529724586, 1};
Point(p10 + 12) = {24.89911964259875, 2.467201911749719, 1};
Point(p10 + 13) = {24.70314953211957, 2.386028434169489, 1};
Point(p10 + 14) = {24.52229046843486, 2.275197857401251, 1};
Point(p10 + 15) = {24.36099580192937, 2.137439198070633, 1};
Point(p10 + 16) = {24.22323714259875, 1.976144531565135, 1};
Point(p10 + 17) = {24.11240656583051, 1.795285467880429, 1};
Point(p10 + 18) = {24.03123308825028, 1.599315357401251, 1};
Point(p10 + 19) = {23.98171547027541, 1.393059634635108, 1};
Point(p10 + 20) = {23.965073, 1.181597, 1};
Point(p10 + 21) = {23.98171547027541, 0.9701343653648925, 1};
Point(p10 + 22) = {24.03123308825028, 0.7638786425987487, 1};
Point(p10 + 23) = {24.11240656583051, 0.5679085321195723, 1};
Point(p10 + 24) = {24.22323714259875, 0.3870494684348651, 1};
Point(p10 + 25) = {24.36099580192937, 0.2257548019293666, 1};
Point(p10 + 26) = {24.52229046843486, 0.08799614259874922, 1};
Point(p10 + 27) = {24.70314953211957, -0.02283443416948905, 1};
Point(p10 + 28) = {24.89911964259875, -0.1040079117497184, 1};
Point(p10 + 29) = {25.10537536536489, -0.1535255297245863, 1};
Point(p10 + 30) = {25.316838, -0.1701680000000001, 1};
Point(p10 + 31) = {25.52830063463511, -0.1535255297245866, 1};
Point(p10 + 32) = {25.73455635740125, -0.1040079117497184, 1};
Point(p10 + 33) = {25.93052646788043, -0.02283443416948927, 1};
Point(p10 + 34) = {26.11138553156513, 0.08799614259874899, 1};
Point(p10 + 35) = {26.27268019807063, 0.2257548019293663, 1};
Point(p10 + 36) = {26.41043885740125, 0.3870494684348647, 1};
Point(p10 + 37) = {26.52126943416949, 0.5679085321195713, 1};
Point(p10 + 38) = {26.60244291174972, 0.7638786425987489, 1};
Point(p10 + 39) = {26.65196052972459, 0.9701343653648919, 1};
Spline(10) = {8, p10 + 1, p10 + 2, p10 + 3, p10 + 4, p10 + 5, p10 + 6, p10 + 7, p10 + 8, p10 + 9, p10 + 10, p10 + 11, p10 + 12, p10 + 13, p10 + 14, p10 + 15, p10 + 16, p10 + 17, p10 + 18, p10 + 19, p10 + 20, p10 + 21, p10 + 22, p10 + 23, p10 + 24, p10 + 25, p10 + 26, p10 + 27, p10 + 28, p10 + 29, p10 + 30, p10 + 31, p10 + 32, p10 + 33, p10 + 34, p10 + 35, p10 + 36, p10 + 37, p10 + 38, p10 + 39, 8};
p11 = newp;
Point(p11 + 1) = {32.02038662891879, 2.971401737145588, 1};
Point(p11 + 2) = {31.98815029384838, 3.105675736202903, 1};
Point(p11 + 3) = {31.93530576034448, 3.233253725685299, 1};
Point(p11 + 4) = {31.86315423620291, 3.350994312084647, 1};
Point(p11 + 5) = {31.77347233140519, 3.455998331405192, 1};
Point(p11 + 6) = {31.66846831208465, 3.545680236202903, 1};
Point(p11 + 7) = {31.5507277256853, 3.617831760344481, 1};
Point(p11 + 8) = {31.42314973620291, 3.670676293848381, 1};
Point(p11 + 9) = {31.28887573714559, 3.702912628918786, 1};
Point(p11 + 10) = {31.151212, 3.713747, 1};
Point(p11 + 11) = {31.01354826285441, 3.702912628918786, 1};
Point(p11 + 12) = {30.8792742637971, 3.670676293848382, 1};
Point(p11 + 13) = {30.7516962743147, 3.617831760344481, 1};
Point(p11 + 14) = {30.63395568791535, 3.545680236202903, 1};
Point(p11 + 15) = {30.52895166859481, 3.455998331405192, 1};
Point(p11 + 16) = {30.4392697637971, 3.350994312084647, 1};
Point(p11 + 17) = {30.36711823965552, 3.233253725685299, 1};
Point(p11 + 18) = {30.31427370615162, 3.105675736202903, 1};
Point(p11 + 19) = {30.28203737108122, 2.971401737145588, 1};
Point(p11 + 20) = {30.271203, 2.833738, 1};
Point(p11 + 21) = {30.28203737108121, 2.696074262854411, 1};
Point(p11 + 22) = {30.31427370615162, 2.561800263797096, 1};
Point(p11 + 23) = {30.36711823965552, 2.434222274314702, 1};
Point(p11 + 24) = {30.4392697637971, 2.316481687915353, 1};
Point(p11 + 25) = {30.52895166859481, 2.211477668594807, 1};
Point(p11 + 26) = {30.63395568791535, 2.121795763797097, 1};
Point(p11 + 27) = {30.7516962743147, 2.049644239655518, 1};
Point(p11 + 28) = {30.8792742637971, 1.996799706151618, 1};
Point(p11 + 29) = {31.01354826285441, 1.964563371081213, 1};
Point(p11 + 30) = {31.151212, 1.953729, 1};
Point(p11 + 31) = {31.28887573714559, 1.964563371081213, 1};
Point(p11 + 32) = {31.42314973620291, 1.996799706151618, 1};
Point(p11 + 33) = {31.5507277256853, 2.049644239655518, 1};
Point(p11 + 34) = {31.66846831208465, 2.121795763797096, 1};
Point(p11 + 35) = {31.77347233140519, 2.211477668594807, 1};
Point(p11 + 36) = {31.8631542362029, 2.316481687915353, 1};
Point(p11 + 37) = {31.93530576034448, 2.434222274314701, 1};
Point(p11 + 38) = {31.98815029384838, 2.561800263797096, 1};
Point(p11 + 39) = {32.02038662891879, 2.696074262854411, 1};
Spline(11) = {9, p11 + 1, p11 + 2, p11 + 3, p11 + 4, p11 + 5, p11 + 6, p11 + 7, p11 + 8, p11 + 9, p11 + 10, p11 + 11, p11 + 12, p11 + 13, p11 + 14, p11 + 15, p11 + 16, p11 + 17, p11 + 18, p11 + 19, p11 + 20, p11 + 21, p11 + 22, p11 + 23, p11 + 24, p11 + 25, p11 + 26, p11 + 27, p11 + 28, p11 + 29, p11 + 30, p11 + 31, p11 + 32, p11 + 33, p11 + 34, p11 + 35, p11 + 36, p11 + 37, p11 + 38, p11 + 39, 9};
Line(12) = {4, 10};
Line(13) = {10, 7};
Line(14) = {5, 10};
p15 = newp;
Point(p15 + 1) = {26.65196052972459, 1.393059634635108, 0};
Point(p15 + 2) = {26.60244291174972, 1.599315357401251, 0};
Point(p15 + 3) = {26.52126943416949, 1.795285467880428, 0};
Point(p15 + 4) = {26.41043885740125, 1.976144531565135, 0};
Point(p15 + 5) = {26.27268019807063, 2.137439198070633, 0};
Point(p15 + 6) = {26.11138553156514, 2.275197857401251, 0};
Point(p15 + 7) = {25.93052646788043, 2.386028434169489, 0};
Point(p15 + 8) = {25.73455635740125, 2.467201911749719, 0};
Point(p15 + 9) = {25.52830063463511, 2.516719529724587, 0};
Point(p15 + 10) = {25.316838, 2.533362, 0};
Point(p15 + 11) = {25.10537536536489, 2.516719529724586, 0};
Point(p15 + 12) = {24.89911964259875, 2.467201911749719, 0};
Point(p15 + 13) = {24.70314953211957, 2.386028434169489, 0};
Point(p15 + 14) = {24.52229046843486, 2.275197857401251, 0};
Point(p15 + 15) = {24.36099580192937, 2.137439198070633, 0};
Point(p15 + 16) = {24.22323714259875, 1.976144531565135, 0};
Point(p15 + 17) = {24.11240656583051, 1.795285467880429, 0};
Point(p15 + 18) = {24.03123308825028, 1.599315357401251, 0};
Point(p15 + 19) = {23.98171547027541, 1.393059634635108, 0};
Point(p15 + 20) = {23.965073, 1.181597, 0};
Point(p15 + 21) = {23.98171547027541, 0.9701343653648925, 0};
Point(p15 + 22) = {24.03123308825028, 0.7638786425987487, 0};
Point(p15 + 23) = {24.11240656583051, 0.5679085321195723, 0};
Point(p15 + 24) = {24.22323714259875, 0.3870494684348651, 0};
Point(p15 + 25) = {24.36099580192937, 0.2257548019293666, 0};
Point(p15 + 26) = {24.52229046843486, 0.08799614259874922, 0};
Point(p15 + 27) = {24.70314953211957, -0.02283443416948905, 0};
Point(p15 + 28) = {24.89911964259875, -0.1040079117497184, 0};
Point(p15 + 29) = {25.10537536536489, -0.1535255297245863, 0};
Point(p15 + 30) = {25.316838, -0.1701680000000001, 0};
Point(p15 + 31) = {25.52830063463511, -0.1535255297245866, 0};
Point(p15 + 32) = {25.73455635740125, -0.1040079117497184, 0};
Point(p15 + 33) = {25.93052646788043, -0.02283443416948927, 0};
Point(p15 + 34) = {26.11138553156513, 0.08799614259874899, 0};
Point(p15 + 35) = {26.27268019807063, 0.2257548019293663, 0};
Point(p15 + 36) = {26.41043885740125, 0.3870494684348647, 0};
Point(p15 + 37) = {26.52126943416949, 0.5679085321195713, 0};
Point(p15 + 38) = {26.60244291174972, 0.7638786425987489, 0};
Point(p15 + 39) = {26.65196052972459, 0.9701343653648919, 0};
Spline(15) = {11, p15 + 1, p15 + 2, p15 + 3, p15 + 4, p15 + 5, p15 + 6, p15 + 7, p15 + 8, p15 + 9, p15 + 10, p15 + 11, p15 + 12, p15 + 13, p15 + 14, p15 + 15, p15 + 16, p15 + 17, p15 + 18, p15 + 19, p15 + 20, p15 + 21, p15 + 22, p15 + 23, p15 + 24, p15 + 25, p15 + 26, p15 + 27, p15 + 28, p15 + 29, p15 + 30, p15 + 31, p15 + 32, p15 + 33, p15 + 34, p15 + 35, p15 + 36, p15 + 37, p15 + 38, p15 + 39, 11};
p16 = newp;
Point(p16 + 1) = {32.02038662891879, 2.971401737145588, 0};
Point(p16 + 2) = {31.98815029384838, 3.105675736202903, 0};
Point(p16 + 3) = {31.93530576034448, 3.233253725685299, 0};
Point(p16 + 4) = {31.86315423620291, 3.350994312084647, 0};
Point(p16 + 5) = {31.77347233140519, 3.455998331405192, 0};
Point(p16 + 6) = {31.66846831208465, 3.545680236202903, 0};
Point(p16 + 7) = {31.5507277256853, 3.617831760344481, 0};
Point(p16 + 8) = {31.42314973620291, 3.670676293848381, 0};
Point(p16 + 9) = {31.28887573714559, 3.702912628918786, 0};
Point(p16 + 10) = {31.151212, 3.713747, 0};
Point(p16 + 11) = {31.01354826285441, 3.702912628918786, 0};
Point(p16 + 12) = {30.8792742637971, 3.670676293848382, 0};
Point(p16 + 13) = {30.7516962743147, 3.617831760344481, 0};
Point(p16 + 14) = {30.63395568791535, 3.545680236202903, 0};
Point(p16 + 15) = {30.52895166859481, 3.455998331405192, 0};
Point(p16 + 16) = {30.4392697637971, 3.350994312084647, 0};
Point(p16 + 17) = {30.36711823965552, 3.233253725685299, 0};
Point(p16 + 18) = {30.31427370615162, 3.105675736202903, 0};
Point(p16 + 19) = {30.28203737108122, 2.971401737145588, 0};
Point(p16 + 20) = {30.271203, 2.833738, 0};
Point(p16 + 21) = {30.28203737108121, 2.696074262854411, 0};
Point(p16 + 22) = {30.31427370615162, 2.561800263797096, 0};
Point(p16 + 23) = {30.36711823965552, 2.434222274314702, 0};
Point(p16 + 24) = {30.4392697637971, 2.316481687915353, 0};
Point(p16 + 25) = {30.52895166859481, 2.211477668594807, 0};
Point(p16 + 26) = {30.63395568791535, 2.121795763797097, 0};
Point(p16 + 27) = {30.7516962743147, 2.049644239655518, 0};
Point(p16 + 28) = {30.8792742637971, 1.996799706151618, 0};
Point(p16 + 29) = {31.01354826285441, 1.964563371081213, 0};
Point(p16 + 30) = {31.151212, 1.953729, 0};
Point(p16 + 31) = {31.28887573714559, 1.964563371081213, 0};
Point(p16 + 32) = {31.42314973620291, 1.996799706151618, 0};
Point(p16 + 33) = {31.5507277256853, 2.049644239655518, 0};
Point(p16 + 34) = {31.66846831208465, 2.121795763797096, 0};
Point(p16 + 35) = {31.77347233140519, 2.211477668594807, 0};
Point(p16 + 36) = {31.8631542362029, 2.316481687915353, 0};
Point(p16 + 37) = {31.93530576034448, 2.434222274314701, 0};
Point(p16 + 38) = {31.98815029384838, 2.561800263797096, 0};
Point(p16 + 39) = {32.02038662891879, 2.696074262854411, 0};
Spline(16) = {12, p16 + 1, p16 + 2, p16 + 3, p16 + 4, p16 + 5, p16 + 6, p16 + 7, p16 + 8, p16 + 9, p16 + 10, p16 + 11, p16 + 12, p16 + 13, p16 + 14, p16 + 15, p16 + 16, p16 + 17, p16 + 18, p16 + 19, p16 + 20, p16 + 21, p16 + 22, p16 + 23, p16 + 24, p16 + 25, p16 + 26, p16 + 27, p16 + 28, p16 + 29, p16 + 30, p16 + 31, p16 + 32, p16 + 33, p16 + 34, p16 + 35, p16 + 36, p16 + 37, p16 + 38, p16 + 39, 12};
Line(17) = {11, 8};
Line(18) = {12, 9};
Curve Loop(1) = {-1, 4, 3, -2};
Plane Surface(1) = {1};
Curve Loop(2) = {-5, 1, 7, -6};
Plane Surface(2) = {2};
Curve Loop(3) = {-2, 7, 9, -8, -10, -11};
Plane Surface(3) = {3};
Curve Loop(4) = {-12, 3, 8, -13};
Plane Surface(4) = {4};
Curve Loop(5) = {-4, 5, 14, -12, -15, -16};
Plane Surface(5) = {5};
Curve Loop(6) = {-6, 14, 13, -9};
Plane Surface(6) = {6};
Curve Loop(7) = {-10, -17, 15, 17};
Surface(7) = {7};
Curve Loop(8) = {-11, -18, 16, 18};
Surface(8) = {8};
Surface Loop(1) = {1, 2, 3, 4, 5, 6, 7, 8};
Volume(1) = {1};
Physical Surface("INFLOW") = {1};
Physical Surface("OUTFLOW") = {6};
Physical Surface("OBSTACLE") = {7, 8};
Physical Surface("WALL_Y") = {2, 4};
Physical Surface("WALL_Z") = {3, 5};
Physical Volume("FLUID") = {1};
