cl__1 = 1.888724;
cl__2 = 2.875348;
cl__3 = 0.565639;
cl__4 = 0.776262;
cl__5 = 0.064557;
cl__6 = 0.1194;
Point(1) = {0.316661, -4.121761, 1, cl__1};
Point(2) = {0.316661, -4.121761, 0, cl__1};
Point(3) = {0.316661, 5.559197, 1, cl__2};
Point(4) = {0.316661, 5.559197, 0, cl__2};
Point(5) = {37.59401800000001, -4.121761, 0, cl__3};
Point(6) = {37.59401800000001, -4.121761, 1, cl__3};
Point(7) = {37.59401800000001, 5.559197, 1, cl__4};
Point(8) = {11.674443, -1.211658, 1, cl__5};
Point(9) = {33.99776, -0.5452460000000003, 1, cl__6};
Point(10) = {37.59401800000001, 5.559197, 0, cl__4};
Point(11) = {11.674443, -1.211658, 0, cl__5};
Point(12) = {33.99776, -0.5452460000000003, 0, cl__6};
Line(1) = {2, 1};
Line(2) = {1, 3};
Line(3) = {4, 3};
Line(4) = {2, 4};
Line(5) = {2, 5};
Line(6) = {5, 6};
Line(7) = {1, 6};
Line(8) = {3, 7};
Line(9) = {6, 7};
p10 = newp;
Point(p10 + 1) = {11.666494962038, -1.110668602403978, 1};
Point(p10 + 2) = {11.64284655522466, -1.012165898941365, 1};
Point(p10 + 3) = {11.60408008182029, -0.9185753530831406, 1};
Point(p10 + 4) = {11.55115010105864, -0.832201474677548, 1};
Point(p10 + 5) = {11.4853599247306, -0.7551710752694005, 1};
Point(p10 + 6) = {11.40832952532245, -0.6893808989413651, 1};
Point(p10 + 7) = {11.32195564691686, -0.6364509181797153, 1};
Point(p10 + 8) = {11.22836510105864, -0.5976844447753377, 1};
Point(p10 + 9) = {11.12986239759602, -0.5740360379619969, 1};
Point(p10 + 10) = {11.028873, -0.5660879999999999, 1};
Point(p10 + 11) = {10.92788360240398, -0.5740360379619969, 1};
Point(p10 + 12) = {10.82938089894137, -0.5976844447753376, 1};
Point(p10 + 13) = {10.73579035308314, -0.6364509181797152, 1};
Point(p10 + 14) = {10.64941647467755, -0.6893808989413651, 1};
Point(p10 + 15) = {10.5723860752694, -0.7551710752694004, 1};
Point(p10 + 16) = {10.50659589894137, -0.8322014746775479, 1};
Point(p10 + 17) = {10.45366591817972, -0.9185753530831406, 1};
Point(p10 + 18) = {10.41489944477534, -1.012165898941365, 1};
Point(p10 + 19) = {10.391251037962, -1.110668602403978, 1};
Point(p10 + 20) = {10.383303, -1.211658, 1};
Point(p10 + 21) = {10.391251037962, -1.312647397596022, 1};
Point(p10 + 22) = {10.41489944477534, -1.411150101058635, 1};
Point(p10 + 23) = {10.45366591817972, -1.504740646916859, 1};
Point(p10 + 24) = {10.50659589894137, -1.591114525322452, 1};
Point(p10 + 25) = {10.5723860752694, -1.668144924730599, 1};
Point(p10 + 26) = {10.64941647467755, -1.733935101058635, 1};
Point(p10 + 27) = {10.73579035308314, -1.786865081820284, 1};
Point(p10 + 28) = {10.82938089894137, -1.825631555224662, 1};
Point(p10 + 29) = {10.92788360240398, -1.849279962038003, 1};
Point(p10 + 30) = {11.028873, -1.857228, 1};
Point(p10 + 31) = {11.12986239759602, -1.849279962038003, 1};
Point(p10 + 32) = {11.22836510105864, -1.825631555224662, 1};
Point(p10 + 33) = {11.32195564691686, -1.786865081820284, 1};
Point(p10 + 34) = {11.40832952532245, -1.733935101058635, 1};
Point(p10 + 35) = {11.4853599247306, -1.668144924730599, 1};
Point(p10 + 36) = {11.55115010105864, -1.591114525322452, 1};
Point(p10 + 37) = {11.60408008182029, -1.504740646916859, 1};
Point(p10 + 38) = {11.64284655522466, -1.411150101058635, 1};
Point(p10 + 39) = {11.666494962038, -1.312647397596022, 1};
Spline(10) = {8, p10 + 1, p10 + 2, p10 + 3, p10 + 4, p10 + 5, p10 + 6, p10 + 7, p10 + 8, p10 + 9, p10 + 10, p10 + 11, p10 + 12, p10 + 13, p10 + 14, p10 + 15, p10 + 16, p10 + 17, p10 + 18, p10 + 19, p10 + 20, p10 + 21, p10 + 22, p10 + 23, p10 + 24, p10 + 25, p10 + 26, p10 + 27, p10 + 28, p10 + 29, p10 + 30, p10 + 31, p10 + 32, p10 + 33, p10 + 34, p10 + 35, p10 + 36, p10 + 37, p10 + 38, p10 + 39, 8};
p11 = newp;
Point(p11 + 1) = {33.98305986635894, -0.3584630923074993, 1};
Point(p11 + 2) = {33.93932143151293, -0.1762793996993184, 1};
Point(p11 + 3) = {33.86762168088744, -0.003180889320481439, 1};
Point(p11 + 4) = {33.76972610030068, 0.1565701790224653, 1};
Point(p11 + 5) = {33.64804520384352, 0.2990402038435189, 1};
Point(p11 + 6) = {33.50557517902246, 0.4207211003006817, 1};
Point(p11 + 7) = {33.34582411067952, 0.5186166808874354, 1};
Point(p11 + 8) = {33.17272560030068, 0.5903164315129298, 1};
Point(p11 + 9) = {32.9905419076925, 0.6340548663589353, 1};
Point(p11 + 10) = {32.803759, 0.6487550000000001, 1};
Point(p11 + 11) = {32.6169760923075, 0.634054866358935, 1};
Point(p11 + 12) = {32.43479239969932, 0.5903164315129298, 1};
Point(p11 + 13) = {32.26169388932048, 0.5186166808874356, 1};
Point(p11 + 14) = {32.10194282097753, 0.4207211003006817, 1};
Point(p11 + 15) = {31.95947279615648, 0.299040203843519, 1};
Point(p11 + 16) = {31.83779189969932, 0.1565701790224654, 1};
Point(p11 + 17) = {31.73989631911256, -0.003180889320481328, 1};
Point(p11 + 18) = {31.66819656848707, -0.1762793996993183, 1};
Point(p11 + 19) = {31.62445813364106, -0.3584630923074992, 1};
Point(p11 + 20) = {31.609758, -0.5452459999999999, 1};
Point(p11 + 21) = {31.62445813364106, -0.7320289076925006, 1};
Point(p11 + 22) = {31.66819656848707, -0.9142126003006821, 1};
Point(p11 + 23) = {31.73989631911256, -1.087311110679518, 1};
Point(p11 + 24) = {31.83779189969932, -1.247062179022465, 1};
Point(p11 + 25) = {31.95947279615648, -1.389532203843519, 1};
Point(p11 + 26) = {32.10194282097753, -1.511213100300682, 1};
Point(p11 + 27) = {32.26169388932048, -1.609108680887435, 1};
Point(p11 + 28) = {32.43479239969932, -1.68080843151293, 1};
Point(p11 + 29) = {32.6169760923075, -1.724546866358935, 1};
Point(p11 + 30) = {32.803759, -1.739247, 1};
Point(p11 + 31) = {32.9905419076925, -1.724546866358935, 1};
Point(p11 + 32) = {33.17272560030068, -1.68080843151293, 1};
Point(p11 + 33) = {33.34582411067952, -1.609108680887436, 1};
Point(p11 + 34) = {33.50557517902246, -1.511213100300682, 1};
Point(p11 + 35) = {33.64804520384352, -1.389532203843519, 1};
Point(p11 + 36) = {33.76972610030068, -1.247062179022465, 1};
Point(p11 + 37) = {33.86762168088743, -1.087311110679519, 1};
Point(p11 + 38) = {33.93932143151293, -0.9142126003006819, 1};
Point(p11 + 39) = {33.98305986635894, -0.732028907692501, 1};
Spline(11) = {9, p11 + 1, p11 + 2, p11 + 3, p11 + 4, p11 + 5, p11 + 6, p11 + 7, p11 + 8, p11 + 9, p11 + 10, p11 + 11, p11 + 12, p11 + 13, p11 + 14, p11 + 15, p11 + 16, p11 + 17, p11 + 18, p11 + 19, p11 + 20, p11 + 21, p11 + 22, p11 + 23, p11 + 24, p11 + 25, p11 + 26, p11 + 27, p11 + 28, p11 + 29, p11 + 30, p11 + 31, p11 + 32, p11 + 33, p11 + 34, p11 + 35, p11 + 36, p11 + 37, p11 + 38, p11 + 39, 9};
Line(12) = {4, 10};
Line(13) = {10, 7};
Line(14) = {5, 10};
p15 = newp;
Point(p15 + 1) = {11.666494962038, -1.110668602403978, 0};
Point(p15 + 2) = {11.64284655522466, -1.012165898941365, 0};
Point(p15 + 3) = {11.60408008182029, -0.9185753530831406, 0};
Point(p15 + 4) = {11.55115010105864, -0.832201474677548, 0};
Point(p15 + 5) = {11.4853599247306, -0.7551710752694005, 0};
Point(p15 + 6) = {11.40832952532245, -0.6893808989413651, 0};
Point(p15 + 7) = {11.32195564691686, -0.6364509181797153, 0};
Point(p15 + 8) = {11.22836510105864, -0.5976844447753377, 0};
Point(p15 + 9) = {11.12986239759602, -0.5740360379619969, 0};
Point(p15 + 10) = {11.028873, -0.5660879999999999, 0};
Point(p15 + 11) = {10.92788360240398, -0.5740360379619969, 0};
Point(p15 + 12) = {10.82938089894137, -0.5976844447753376, 0};
Point(p15 + 13) = {10.73579035308314, -0.6364509181797152, 0};
Point(p15 + 14) = {10.64941647467755, -0.6893808989413651, 0};
Point(p15 + 15) = {10.5723860752694, -0.7551710752694004, 0};
Point(p15 + 16) = {10.50659589894137, -0.8322014746775479, 0};
Point(p15 + 17) = {10.45366591817972, -0.9185753530831406, 0};
Point(p15 + 18) = {10.41489944477534, -1.012165898941365, 0};
Point(p15 + 19) = {10.391251037962, -1.110668602403978, 0};
Point(p15 + 20) = {10.383303, -1.211658, 0};
Point(p15 + 21) = {10.391251037962, -1.312647397596022, 0};
Point(p15 + 22) = {10.41489944477534, -1.411150101058635, 0};
Point(p15 + 23) = {10.45366591817972, -1.504740646916859, 0};
Point(p15 + 24) = {10.50659589894137, -1.591114525322452, 0};
Point(p15 + 25) = {10.5723860752694, -1.668144924730599, 0};
Point(p15 + 26) = {10.64941647467755, -1.733935101058635, 0};
Point(p15 + 27) = {10.73579035308314, -1.786865081820284, 0};
Point(p15 + 28) = {10.82938089894137, -1.825631555224662, 0};
Point(p15 + 29) = {10.92788360240398, -1.849279962038003, 0};
Point(p15 + 30) = {11.028873, -1.857228, 0};
Point(p15 + 31) = {11.12986239759602, -1.849279962038003, 0};
Point(p15 + 32) = {11.22836510105864, -1.825631555224662, 0};
Point(p15 + 33) = {11.32195564691686, -1.786865081820284, 0};
Point(p15 + 34) = {11.40832952532245, -1.733935101058635, 0};
Point(p15 + 35) = {11.4853599247306, -1.668144924730599, 0};
Point(p15 + 36) = {11.55115010105864, -1.591114525322452, 0};
Point(p15 + 37) = {11.60408008182029, -1.504740646916859, 0};
Point(p15 + 38) = {11.64284655522466, -1.411150101058635, 0};
Point(p15 + 39) = {11.666494962038, -1.312647397596022, 0};
Spline(15) = {11, p15 + 1, p15 + 2, p15 + 3, p15 + 4, p15 + 5, p15 + 6, p15 + 7, p15 + 8, p15 + 9, p15 + 10, p15 + 11, p15 + 12, p15 + 13, p15 + 14, p15 + 15, p15 + 16, p15 + 17, p15 + 18, p15 + 19, p15 + 20, p15 + 21, p15 + 22, p15 + 23, p15 + 24, p15 + 25, p15 + 26, p15 + 27, p15 + 28, p15 + 29, p15 + 30, p15 + 31, p15 + 32, p15 + 33, p15 + 34, p15 + 35, p15 + 36, p15 + 37, p15 + 38, p15 + 39, 11};
p16 = newp;
Point(p16 + 1) = {33.98305986635894, -0.3584630923074993, 0};
Point(p16 + 2) = {33.93932143151293, -0.1762793996993184, 0};
Point(p16 + 3) = {33.86762168088744, -0.003180889320481439, 0};
Point(p16 + 4) = {33.76972610030068, 0.1565701790224653, 0};
Point(p16 + 5) = {33.64804520384352, 0.2990402038435189, 0};
Point(p16 + 6) = {33.50557517902246, 0.4207211003006817, 0};
Point(p16 + 7) = {33.34582411067952, 0.5186166808874354, 0};
Point(p16 + 8) = {33.17272560030068, 0.5903164315129298, 0};
Point(p16 + 9) = {32.9905419076925, 0.6340548663589353, 0};
Point(p16 + 10) = {32.803759, 0.6487550000000001, 0};
Point(p16 + 11) = {32.6169760923075, 0.634054866358935, 0};
Point(p16 + 12) = {32.43479239969932, 0.5903164315129298, 0};
Point(p16 + 13) = {32.26169388932048, 0.5186166808874356, 0};
Point(p16 + 14) = {32.10194282097753, 0.4207211003006817, 0};
Point(p16 + 15) = {31.95947279615648, 0.299040203843519, 0};
Point(p16 + 16) = {31.83779189969932, 0.1565701790224654, 0};
Point(p16 + 17) = {31.73989631911256, -0.003180889320481328, 0};
Point(p16 + 18) = {31.66819656848707, -0.1762793996993183, 0};
Point(p16 + 19) = {31.62445813364106, -0.3584630923074992, 0};
Point(p16 + 20) = {31.609758, -0.5452459999999999, 0};
Point(p16 + 21) = {31.62445813364106, -0.7320289076925006, 0};
Point(p16 + 22) = {31.66819656848707, -0.9142126003006821, 0};
Point(p16 + 23) = {31.73989631911256, -1.087311110679518, 0};
Point(p16 + 24) = {31.83779189969932, -1.247062179022465, 0};
Point(p16 + 25) = {31.95947279615648, -1.389532203843519, 0};
Point(p16 + 26) = {32.10194282097753, -1.511213100300682, 0};
Point(p16 + 27) = {32.26169388932048, -1.609108680887435, 0};
Point(p16 + 28) = {32.43479239969932, -1.68080843151293, 0};
Point(p16 + 29) = {32.6169760923075, -1.724546866358935, 0};
Point(p16 + 30) = {32.803759, -1.739247, 0};
Point(p16 + 31) = {32.9905419076925, -1.724546866358935, 0};
Point(p16 + 32) = {33.17272560030068, -1.68080843151293, 0};
Point(p16 + 33) = {33.34582411067952, -1.609108680887436, 0};
Point(p16 + 34) = {33.50557517902246, -1.511213100300682, 0};
Point(p16 + 35) = {33.64804520384352, -1.389532203843519, 0};
Point(p16 + 36) = {33.76972610030068, -1.247062179022465, 0};
Point(p16 + 37) = {33.86762168088743, -1.087311110679519, 0};
Point(p16 + 38) = {33.93932143151293, -0.9142126003006819, 0};
Point(p16 + 39) = {33.98305986635894, -0.732028907692501, 0};
Spline(16) = {12, p16 + 1, p16 + 2, p16 + 3, p16 + 4, p16 + 5, p16 + 6, p16 + 7, p16 + 8, p16 + 9, p16 + 10, p16 + 11, p16 + 12, p16 + 13, p16 + 14, p16 + 15, p16 + 16, p16 + 17, p16 + 18, p16 + 19, p16 + 20, p16 + 21, p16 + 22, p16 + 23, p16 + 24, p16 + 25, p16 + 26, p16 + 27, p16 + 28, p16 + 29, p16 + 30, p16 + 31, p16 + 32, p16 + 33, p16 + 34, p16 + 35, p16 + 36, p16 + 37, p16 + 38, p16 + 39, 12};
Line(17) = {11, 8};
Line(18) = {12, 9};
Curve Loop(1) = {-1, 4, 3, -2};
Plane Surface(1) = {1};
Curve Loop(2) = {-5, 1, 7, -6};
Plane Surface(2) = {2};
Curve Loop(3) = {-2, 7, 9, -8, -10, -11};
Plane Surface(3) = {3};
Curve Loop(4) = {-12, 3, 8, -13};
Plane Surface(4) = {4};
Curve Loop(5) = {-4, 5, 14, -12, -15, -16};
Plane Surface(5) = {5};
Curve Loop(6) = {-6, 14, 13, -9};
Plane Surface(6) = {6};
Curve Loop(7) = {-10, -17, 15, 17};
Surface(7) = {7};
Curve Loop(8) = {-11, -18, 16, 18};
Surface(8) = {8};
Surface Loop(1) = {1, 2, 3, 4, 5, 6, 7, 8};
Volume(1) = {1};
Physical Surface("INFLOW") = {1};
Physical Surface("OUTFLOW") = {6};
Physical Surface("OBSTACLE") = {7, 8};
Physical Surface("WALL_Y") = {2, 4};
Physical Surface("WALL_Z") = {3, 5};
Physical Volume("FLUID") = {1};
