cl__1 = 0.5545020000000001;
cl__2 = 0.697666;
cl__3 = 1.513694;
cl__4 = 1.566234;
cl__5 = 0.145545;
cl__6 = 0.139432;
Point(1) = {0.586827, -3.807092, 1, cl__1};
Point(2) = {0.586827, -3.807092, 0, cl__1};
Point(3) = {0.586827, 3.861794, 1, cl__2};
Point(4) = {0.586827, 3.861794, 0, cl__2};
Point(5) = {31.162683, -3.807092, 0, cl__3};
Point(6) = {31.162683, -3.807092, 1, cl__3};
Point(7) = {31.162683, 3.861794, 1, cl__4};
Point(8) = {8.620685999999999, -1.413140000000001, 1, cl__5};
Point(9) = {16.245063, -1.123201, 1, cl__6};
Point(10) = {31.162683, 3.861794, 0, cl__4};
Point(11) = {8.620685999999999, -1.413140000000001, 0, cl__5};
Point(12) = {16.245063, -1.123201, 0, cl__6};
Line(1) = {2, 1};
Line(2) = {1, 3};
Line(3) = {4, 3};
Line(4) = {2, 4};
Line(5) = {2, 5};
Line(6) = {5, 6};
Line(7) = {1, 6};
Line(8) = {3, 7};
Line(9) = {6, 7};
p10 = newp;
Point(p10 + 1) = {8.60276704456583, -1.185458083595056, 1};
Point(p10 + 2) = {8.549451402415716, -0.9633824516049604, 1};
Point(p10 + 3) = {8.462051881603863, -0.7523813431160757, 1};
Point(p10 + 4) = {8.34272054839504, -0.5576503056919292, 1};
Point(p10 + 5) = {8.194395736250836, -0.3839842637491644, 1};
Point(p10 + 6) = {8.02072969430807, -0.2356594516049604, 1};
Point(p10 + 7) = {7.825998656883924, -0.1163281183961369, 1};
Point(p10 + 8) = {7.614997548395039, -0.02892859758428412, 1};
Point(p10 + 9) = {7.392921916404944, 0.02438704456583074, 1};
Point(p10 + 10) = {7.16524, 0.04230599999999995, 1};
Point(p10 + 11) = {6.937558083595055, 0.02438704456583074, 1};
Point(p10 + 12) = {6.71548245160496, -0.0289285975842839, 1};
Point(p10 + 13) = {6.504481343116075, -0.1163281183961367, 1};
Point(p10 + 14) = {6.309750305691929, -0.2356594516049604, 1};
Point(p10 + 15) = {6.136084263749164, -0.3839842637491642, 1};
Point(p10 + 16) = {5.98775945160496, -0.5576503056919291, 1};
Point(p10 + 17) = {5.868428118396137, -0.7523813431160755, 1};
Point(p10 + 18) = {5.781028597584283, -0.9633824516049603, 1};
Point(p10 + 19) = {5.727712955434169, -1.185458083595056, 1};
Point(p10 + 20) = {5.709794, -1.41314, 1};
Point(p10 + 21) = {5.727712955434169, -1.640821916404944, 1};
Point(p10 + 22) = {5.781028597584283, -1.86289754839504, 1};
Point(p10 + 23) = {5.868428118396136, -2.073898656883924, 1};
Point(p10 + 24) = {5.98775945160496, -2.268629694308071, 1};
Point(p10 + 25) = {6.136084263749163, -2.442295736250836, 1};
Point(p10 + 26) = {6.309750305691929, -2.59062054839504, 1};
Point(p10 + 27) = {6.504481343116075, -2.709951881603863, 1};
Point(p10 + 28) = {6.71548245160496, -2.797351402415716, 1};
Point(p10 + 29) = {6.937558083595055, -2.850667044565831, 1};
Point(p10 + 30) = {7.16524, -2.868586, 1};
Point(p10 + 31) = {7.392921916404943, -2.850667044565831, 1};
Point(p10 + 32) = {7.614997548395039, -2.797351402415716, 1};
Point(p10 + 33) = {7.825998656883924, -2.709951881603863, 1};
Point(p10 + 34) = {8.02072969430807, -2.59062054839504, 1};
Point(p10 + 35) = {8.194395736250836, -2.442295736250836, 1};
Point(p10 + 36) = {8.34272054839504, -2.268629694308071, 1};
Point(p10 + 37) = {8.462051881603863, -2.073898656883925, 1};
Point(p10 + 38) = {8.549451402415716, -1.86289754839504, 1};
Point(p10 + 39) = {8.60276704456583, -1.640821916404944, 1};
Spline(10) = {8, p10 + 1, p10 + 2, p10 + 3, p10 + 4, p10 + 5, p10 + 6, p10 + 7, p10 + 8, p10 + 9, p10 + 10, p10 + 11, p10 + 12, p10 + 13, p10 + 14, p10 + 15, p10 + 16, p10 + 17, p10 + 18, p10 + 19, p10 + 20, p10 + 21, p10 + 22, p10 + 23, p10 + 24, p10 + 25, p10 + 26, p10 + 27, p10 + 28, p10 + 29, p10 + 30, p10 + 31, p10 + 32, p10 + 33, p10 + 34, p10 + 35, p10 + 36, p10 + 37, p10 + 38, p10 + 39, 8};
p11 = newp;
Point(p11 + 1) = {16.22789665630525, -0.9050819224429654, 1};
Point(p11 + 2) = {16.1768203175746, -0.6923336604711008, 1};
Point(p11 + 3) = {16.09309165278023, -0.490194782365154, 1};
Point(p11 + 4) = {15.9787723395289, -0.3036426181645678, 1};
Point(p11 + 5) = {15.8366772987169, -0.1372707012830977, 1};
Point(p11 + 6) = {15.67030538183543, 0.00482433952889938, 1};
Point(p11 + 7) = {15.48375321763485, 0.1191436527802283, 1};
Point(p11 + 8) = {15.2816143395289, 0.2028723175745935, 1};
Point(p11 + 9) = {15.06886607755703, 0.2539486563052504, 1};
Point(p11 + 10) = {14.850747, 0.2711150000000002, 1};
Point(p11 + 11) = {14.63262792244297, 0.2539486563052502, 1};
Point(p11 + 12) = {14.4198796604711, 0.2028723175745937, 1};
Point(p11 + 13) = {14.21774078236515, 0.1191436527802285, 1};
Point(p11 + 14) = {14.03118861816457, 0.00482433952889938, 1};
Point(p11 + 15) = {13.8648167012831, -0.1372707012830976, 1};
Point(p11 + 16) = {13.7227216604711, -0.3036426181645677, 1};
Point(p11 + 17) = {13.60840234721977, -0.4901947823651538, 1};
Point(p11 + 18) = {13.52467368242541, -0.6923336604711006, 1};
Point(p11 + 19) = {13.47359734369475, -0.9050819224429651, 1};
Point(p11 + 20) = {13.456431, -1.123201, 1};
Point(p11 + 21) = {13.47359734369475, -1.341320077557034, 1};
Point(p11 + 22) = {13.52467368242541, -1.5540683395289, 1};
Point(p11 + 23) = {13.60840234721977, -1.756207217634845, 1};
Point(p11 + 24) = {13.7227216604711, -1.942759381835432, 1};
Point(p11 + 25) = {13.8648167012831, -2.109131298716902, 1};
Point(p11 + 26) = {14.03118861816457, -2.251226339528899, 1};
Point(p11 + 27) = {14.21774078236515, -2.365545652780228, 1};
Point(p11 + 28) = {14.4198796604711, -2.449274317574593, 1};
Point(p11 + 29) = {14.63262792244297, -2.50035065630525, 1};
Point(p11 + 30) = {14.850747, -2.517517, 1};
Point(p11 + 31) = {15.06886607755703, -2.50035065630525, 1};
Point(p11 + 32) = {15.2816143395289, -2.449274317574593, 1};
Point(p11 + 33) = {15.48375321763485, -2.365545652780228, 1};
Point(p11 + 34) = {15.67030538183543, -2.251226339528899, 1};
Point(p11 + 35) = {15.8366772987169, -2.109131298716902, 1};
Point(p11 + 36) = {15.9787723395289, -1.942759381835432, 1};
Point(p11 + 37) = {16.09309165278023, -1.756207217634846, 1};
Point(p11 + 38) = {16.1768203175746, -1.554068339528899, 1};
Point(p11 + 39) = {16.22789665630525, -1.341320077557035, 1};
Spline(11) = {9, p11 + 1, p11 + 2, p11 + 3, p11 + 4, p11 + 5, p11 + 6, p11 + 7, p11 + 8, p11 + 9, p11 + 10, p11 + 11, p11 + 12, p11 + 13, p11 + 14, p11 + 15, p11 + 16, p11 + 17, p11 + 18, p11 + 19, p11 + 20, p11 + 21, p11 + 22, p11 + 23, p11 + 24, p11 + 25, p11 + 26, p11 + 27, p11 + 28, p11 + 29, p11 + 30, p11 + 31, p11 + 32, p11 + 33, p11 + 34, p11 + 35, p11 + 36, p11 + 37, p11 + 38, p11 + 39, 9};
Line(12) = {4, 10};
Line(13) = {10, 7};
Line(14) = {5, 10};
p15 = newp;
Point(p15 + 1) = {8.60276704456583, -1.185458083595056, 0};
Point(p15 + 2) = {8.549451402415716, -0.9633824516049604, 0};
Point(p15 + 3) = {8.462051881603863, -0.7523813431160757, 0};
Point(p15 + 4) = {8.34272054839504, -0.5576503056919292, 0};
Point(p15 + 5) = {8.194395736250836, -0.3839842637491644, 0};
Point(p15 + 6) = {8.02072969430807, -0.2356594516049604, 0};
Point(p15 + 7) = {7.825998656883924, -0.1163281183961369, 0};
Point(p15 + 8) = {7.614997548395039, -0.02892859758428412, 0};
Point(p15 + 9) = {7.392921916404944, 0.02438704456583074, 0};
Point(p15 + 10) = {7.16524, 0.04230599999999995, 0};
Point(p15 + 11) = {6.937558083595055, 0.02438704456583074, 0};
Point(p15 + 12) = {6.71548245160496, -0.0289285975842839, 0};
Point(p15 + 13) = {6.504481343116075, -0.1163281183961367, 0};
Point(p15 + 14) = {6.309750305691929, -0.2356594516049604, 0};
Point(p15 + 15) = {6.136084263749164, -0.3839842637491642, 0};
Point(p15 + 16) = {5.98775945160496, -0.5576503056919291, 0};
Point(p15 + 17) = {5.868428118396137, -0.7523813431160755, 0};
Point(p15 + 18) = {5.781028597584283, -0.9633824516049603, 0};
Point(p15 + 19) = {5.727712955434169, -1.185458083595056, 0};
Point(p15 + 20) = {5.709794, -1.41314, 0};
Point(p15 + 21) = {5.727712955434169, -1.640821916404944, 0};
Point(p15 + 22) = {5.781028597584283, -1.86289754839504, 0};
Point(p15 + 23) = {5.868428118396136, -2.073898656883924, 0};
Point(p15 + 24) = {5.98775945160496, -2.268629694308071, 0};
Point(p15 + 25) = {6.136084263749163, -2.442295736250836, 0};
Point(p15 + 26) = {6.309750305691929, -2.59062054839504, 0};
Point(p15 + 27) = {6.504481343116075, -2.709951881603863, 0};
Point(p15 + 28) = {6.71548245160496, -2.797351402415716, 0};
Point(p15 + 29) = {6.937558083595055, -2.850667044565831, 0};
Point(p15 + 30) = {7.16524, -2.868586, 0};
Point(p15 + 31) = {7.392921916404943, -2.850667044565831, 0};
Point(p15 + 32) = {7.614997548395039, -2.797351402415716, 0};
Point(p15 + 33) = {7.825998656883924, -2.709951881603863, 0};
Point(p15 + 34) = {8.02072969430807, -2.59062054839504, 0};
Point(p15 + 35) = {8.194395736250836, -2.442295736250836, 0};
Point(p15 + 36) = {8.34272054839504, -2.268629694308071, 0};
Point(p15 + 37) = {8.462051881603863, -2.073898656883925, 0};
Point(p15 + 38) = {8.549451402415716, -1.86289754839504, 0};
Point(p15 + 39) = {8.60276704456583, -1.640821916404944, 0};
Spline(15) = {11, p15 + 1, p15 + 2, p15 + 3, p15 + 4, p15 + 5, p15 + 6, p15 + 7, p15 + 8, p15 + 9, p15 + 10, p15 + 11, p15 + 12, p15 + 13, p15 + 14, p15 + 15, p15 + 16, p15 + 17, p15 + 18, p15 + 19, p15 + 20, p15 + 21, p15 + 22, p15 + 23, p15 + 24, p15 + 25, p15 + 26, p15 + 27, p15 + 28, p15 + 29, p15 + 30, p15 + 31, p15 + 32, p15 + 33, p15 + 34, p15 + 35, p15 + 36, p15 + 37, p15 + 38, p15 + 39, 11};
p16 = newp;
Point(p16 + 1) = {16.22789665630525, -0.9050819224429654, 0};
Point(p16 + 2) = {16.1768203175746, -0.6923336604711008, 0};
Point(p16 + 3) = {16.09309165278023, -0.490194782365154, 0};
Point(p16 + 4) = {15.9787723395289, -0.3036426181645678, 0};
Point(p16 + 5) = {15.8366772987169, -0.1372707012830977, 0};
Point(p16 + 6) = {15.67030538183543, 0.00482433952889938, 0};
Point(p16 + 7) = {15.48375321763485, 0.1191436527802283, 0};
Point(p16 + 8) = {15.2816143395289, 0.2028723175745935, 0};
Point(p16 + 9) = {15.06886607755703, 0.2539486563052504, 0};
Point(p16 + 10) = {14.850747, 0.2711150000000002, 0};
Point(p16 + 11) = {14.63262792244297, 0.2539486563052502, 0};
Point(p16 + 12) = {14.4198796604711, 0.2028723175745937, 0};
Point(p16 + 13) = {14.21774078236515, 0.1191436527802285, 0};
Point(p16 + 14) = {14.03118861816457, 0.00482433952889938, 0};
Point(p16 + 15) = {13.8648167012831, -0.1372707012830976, 0};
Point(p16 + 16) = {13.7227216604711, -0.3036426181645677, 0};
Point(p16 + 17) = {13.60840234721977, -0.4901947823651538, 0};
Point(p16 + 18) = {13.52467368242541, -0.6923336604711006, 0};
Point(p16 + 19) = {13.47359734369475, -0.9050819224429651, 0};
Point(p16 + 20) = {13.456431, -1.123201, 0};
Point(p16 + 21) = {13.47359734369475, -1.341320077557034, 0};
Point(p16 + 22) = {13.52467368242541, -1.5540683395289, 0};
Point(p16 + 23) = {13.60840234721977, -1.756207217634845, 0};
Point(p16 + 24) = {13.7227216604711, -1.942759381835432, 0};
Point(p16 + 25) = {13.8648167012831, -2.109131298716902, 0};
Point(p16 + 26) = {14.03118861816457, -2.251226339528899, 0};
Point(p16 + 27) = {14.21774078236515, -2.365545652780228, 0};
Point(p16 + 28) = {14.4198796604711, -2.449274317574593, 0};
Point(p16 + 29) = {14.63262792244297, -2.50035065630525, 0};
Point(p16 + 30) = {14.850747, -2.517517, 0};
Point(p16 + 31) = {15.06886607755703, -2.50035065630525, 0};
Point(p16 + 32) = {15.2816143395289, -2.449274317574593, 0};
Point(p16 + 33) = {15.48375321763485, -2.365545652780228, 0};
Point(p16 + 34) = {15.67030538183543, -2.251226339528899, 0};
Point(p16 + 35) = {15.8366772987169, -2.109131298716902, 0};
Point(p16 + 36) = {15.9787723395289, -1.942759381835432, 0};
Point(p16 + 37) = {16.09309165278023, -1.756207217634846, 0};
Point(p16 + 38) = {16.1768203175746, -1.554068339528899, 0};
Point(p16 + 39) = {16.22789665630525, -1.341320077557035, 0};
Spline(16) = {12, p16 + 1, p16 + 2, p16 + 3, p16 + 4, p16 + 5, p16 + 6, p16 + 7, p16 + 8, p16 + 9, p16 + 10, p16 + 11, p16 + 12, p16 + 13, p16 + 14, p16 + 15, p16 + 16, p16 + 17, p16 + 18, p16 + 19, p16 + 20, p16 + 21, p16 + 22, p16 + 23, p16 + 24, p16 + 25, p16 + 26, p16 + 27, p16 + 28, p16 + 29, p16 + 30, p16 + 31, p16 + 32, p16 + 33, p16 + 34, p16 + 35, p16 + 36, p16 + 37, p16 + 38, p16 + 39, 12};
Line(17) = {11, 8};
Line(18) = {12, 9};
Curve Loop(1) = {-1, 4, 3, -2};
Plane Surface(1) = {1};
Curve Loop(2) = {-5, 1, 7, -6};
Plane Surface(2) = {2};
Curve Loop(3) = {-2, 7, 9, -8, -10, -11};
Plane Surface(3) = {3};
Curve Loop(4) = {-12, 3, 8, -13};
Plane Surface(4) = {4};
Curve Loop(5) = {-4, 5, 14, -12, -15, -16};
Plane Surface(5) = {5};
Curve Loop(6) = {-6, 14, 13, -9};
Plane Surface(6) = {6};
Curve Loop(7) = {-10, -17, 15, 17};
Surface(7) = {7};
Curve Loop(8) = {-11, -18, 16, 18};
Surface(8) = {8};
Surface Loop(1) = {1, 2, 3, 4, 5, 6, 7, 8};
Volume(1) = {1};
Physical Surface("INFLOW") = {1};
Physical Surface("OUTFLOW") = {6};
Physical Surface("OBSTACLE") = {7, 8};
Physical Surface("WALL_Y") = {2, 4};
Physical Surface("WALL_Z") = {3, 5};
Physical Volume("FLUID") = {1};
