cl__1 = 0.89235;
cl__2 = 0.984727;
cl__3 = 0.877729;
cl__4 = 0.399059;
cl__5 = 0.10059;
cl__6 = 0.065703;
Point(1) = {0.926632, -4.36417, 1, cl__1};
Point(2) = {0.926632, -4.36417, 0, cl__1};
Point(3) = {0.926632, 5.239822, 1, cl__2};
Point(4) = {0.926632, 5.239822, 0, cl__2};
Point(5) = {34.57135599999999, -4.36417, 0, cl__3};
Point(6) = {34.57135599999999, -4.36417, 1, cl__3};
Point(7) = {34.57135599999999, 5.239822, 1, cl__4};
Point(8) = {11.104985, -0.5616620000000002, 1, cl__5};
Point(9) = {30.764172, 3.947104, 1, cl__6};
Point(10) = {34.57135599999999, 5.239822, 0, cl__4};
Point(11) = {11.104985, -0.5616620000000002, 0, cl__5};
Point(12) = {30.764172, 3.947104, 0, cl__6};
Line(1) = {2, 1};
Line(2) = {1, 3};
Line(3) = {4, 3};
Line(4) = {2, 4};
Line(5) = {2, 5};
Line(6) = {5, 6};
Line(7) = {1, 6};
Line(8) = {3, 7};
Line(9) = {6, 7};
p10 = newp;
Point(p10 + 1) = {11.09260073873963, -0.4043050409194269, 1};
Point(p10 + 2) = {11.05575289657175, -0.2508227324092235, 1};
Point(p10 + 3) = {10.99534878966151, -0.1049943182834891, 1};
Point(p10 + 4) = {10.91287576759078, 0.02958942192524183, 1};
Point(p10 + 5) = {10.8103645898752, 0.1496145898752046, 1};
Point(p10 + 6) = {10.69033942192524, 0.2521257675907765, 1};
Point(p10 + 7) = {10.55575568171651, 0.3345987896615066, 1};
Point(p10 + 8) = {10.40992726759078, 0.3950028965717461, 1};
Point(p10 + 9) = {10.25644495908057, 0.4318507387396273, 1};
Point(p10 + 10) = {10.099088, 0.444235, 1};
Point(p10 + 11) = {9.941731040919427, 0.4318507387396272, 1};
Point(p10 + 12) = {9.788248732409224, 0.3950028965717463, 1};
Point(p10 + 13) = {9.64242031828349, 0.3345987896615068, 1};
Point(p10 + 14) = {9.507836578074759, 0.2521257675907765, 1};
Point(p10 + 15) = {9.387811410124796, 0.1496145898752047, 1};
Point(p10 + 16) = {9.285300232409224, 0.02958942192524194, 1};
Point(p10 + 17) = {9.202827210338494, -0.104994318283489, 1};
Point(p10 + 18) = {9.142423103428253, -0.2508227324092234, 1};
Point(p10 + 19) = {9.105575261260373, -0.4043050409194268, 1};
Point(p10 + 20) = {9.093191000000001, -0.5616619999999999, 1};
Point(p10 + 21) = {9.105575261260373, -0.719018959080573, 1};
Point(p10 + 22) = {9.142423103428253, -0.8725012675907768, 1};
Point(p10 + 23) = {9.202827210338492, -1.01832968171651, 1};
Point(p10 + 24) = {9.285300232409224, -1.152913421925242, 1};
Point(p10 + 25) = {9.387811410124796, -1.272938589875205, 1};
Point(p10 + 26) = {9.507836578074759, -1.375449767590776, 1};
Point(p10 + 27) = {9.64242031828349, -1.457922789661507, 1};
Point(p10 + 28) = {9.788248732409224, -1.518326896571746, 1};
Point(p10 + 29) = {9.941731040919427, -1.555174738739627, 1};
Point(p10 + 30) = {10.099088, -1.567559, 1};
Point(p10 + 31) = {10.25644495908057, -1.555174738739627, 1};
Point(p10 + 32) = {10.40992726759078, -1.518326896571746, 1};
Point(p10 + 33) = {10.55575568171651, -1.457922789661507, 1};
Point(p10 + 34) = {10.69033942192524, -1.375449767590777, 1};
Point(p10 + 35) = {10.8103645898752, -1.272938589875205, 1};
Point(p10 + 36) = {10.91287576759078, -1.152913421925242, 1};
Point(p10 + 37) = {10.99534878966151, -1.018329681716511, 1};
Point(p10 + 38) = {11.05575289657175, -0.8725012675907766, 1};
Point(p10 + 39) = {11.09260073873963, -0.7190189590805733, 1};
Spline(10) = {8, p10 + 1, p10 + 2, p10 + 3, p10 + 4, p10 + 5, p10 + 6, p10 + 7, p10 + 8, p10 + 9, p10 + 10, p10 + 11, p10 + 12, p10 + 13, p10 + 14, p10 + 15, p10 + 16, p10 + 17, p10 + 18, p10 + 19, p10 + 20, p10 + 21, p10 + 22, p10 + 23, p10 + 24, p10 + 25, p10 + 26, p10 + 27, p10 + 28, p10 + 29, p10 + 30, p10 + 31, p10 + 32, p10 + 33, p10 + 34, p10 + 35, p10 + 36, p10 + 37, p10 + 38, p10 + 39, 8};
p11 = newp;
Point(p11 + 1) = {30.75608283348625, 4.049886605868778, 1};
Point(p11 + 2) = {30.73201451607095, 4.150138362865155, 1};
Point(p11 + 3) = {30.69255968960706, 4.245390740015374, 1};
Point(p11 + 4) = {30.63868986286516, 4.33329830766948, 1};
Point(p11 + 5) = {30.57173148976334, 4.411696489763341, 1};
Point(p11 + 6) = {30.49333330766948, 4.478654862865155, 1};
Point(p11 + 7) = {30.40542574001537, 4.532524689607055, 1};
Point(p11 + 8) = {30.31017336286515, 4.571979516070954, 1};
Point(p11 + 9) = {30.20992160586878, 4.596047833486245, 1};
Point(p11 + 10) = {30.107139, 4.604137, 1};
Point(p11 + 11) = {30.00435639413122, 4.596047833486245, 1};
Point(p11 + 12) = {29.90410463713485, 4.571979516070954, 1};
Point(p11 + 13) = {29.80885225998463, 4.532524689607056, 1};
Point(p11 + 14) = {29.72094469233052, 4.478654862865155, 1};
Point(p11 + 15) = {29.64254651023666, 4.411696489763341, 1};
Point(p11 + 16) = {29.57558813713484, 4.33329830766948, 1};
Point(p11 + 17) = {29.52171831039295, 4.245390740015374, 1};
Point(p11 + 18) = {29.48226348392905, 4.150138362865155, 1};
Point(p11 + 19) = {29.45819516651375, 4.049886605868778, 1};
Point(p11 + 20) = {29.450106, 3.947104, 1};
Point(p11 + 21) = {29.45819516651375, 3.844321394131222, 1};
Point(p11 + 22) = {29.48226348392905, 3.744069637134845, 1};
Point(p11 + 23) = {29.52171831039295, 3.648817259984626, 1};
Point(p11 + 24) = {29.57558813713484, 3.56090969233052, 1};
Point(p11 + 25) = {29.64254651023666, 3.482511510236659, 1};
Point(p11 + 26) = {29.72094469233052, 3.415553137134845, 1};
Point(p11 + 27) = {29.80885225998463, 3.361683310392944, 1};
Point(p11 + 28) = {29.90410463713485, 3.322228483929046, 1};
Point(p11 + 29) = {30.00435639413122, 3.298160166513755, 1};
Point(p11 + 30) = {30.107139, 3.290071, 1};
Point(p11 + 31) = {30.20992160586878, 3.298160166513755, 1};
Point(p11 + 32) = {30.31017336286515, 3.322228483929046, 1};
Point(p11 + 33) = {30.40542574001537, 3.361683310392944, 1};
Point(p11 + 34) = {30.49333330766948, 3.415553137134845, 1};
Point(p11 + 35) = {30.57173148976334, 3.482511510236659, 1};
Point(p11 + 36) = {30.63868986286516, 3.560909692330519, 1};
Point(p11 + 37) = {30.69255968960706, 3.648817259984626, 1};
Point(p11 + 38) = {30.73201451607095, 3.744069637134845, 1};
Point(p11 + 39) = {30.75608283348625, 3.844321394131222, 1};
Spline(11) = {9, p11 + 1, p11 + 2, p11 + 3, p11 + 4, p11 + 5, p11 + 6, p11 + 7, p11 + 8, p11 + 9, p11 + 10, p11 + 11, p11 + 12, p11 + 13, p11 + 14, p11 + 15, p11 + 16, p11 + 17, p11 + 18, p11 + 19, p11 + 20, p11 + 21, p11 + 22, p11 + 23, p11 + 24, p11 + 25, p11 + 26, p11 + 27, p11 + 28, p11 + 29, p11 + 30, p11 + 31, p11 + 32, p11 + 33, p11 + 34, p11 + 35, p11 + 36, p11 + 37, p11 + 38, p11 + 39, 9};
Line(12) = {4, 10};
Line(13) = {10, 7};
Line(14) = {5, 10};
p15 = newp;
Point(p15 + 1) = {11.09260073873963, -0.4043050409194269, 0};
Point(p15 + 2) = {11.05575289657175, -0.2508227324092235, 0};
Point(p15 + 3) = {10.99534878966151, -0.1049943182834891, 0};
Point(p15 + 4) = {10.91287576759078, 0.02958942192524183, 0};
Point(p15 + 5) = {10.8103645898752, 0.1496145898752046, 0};
Point(p15 + 6) = {10.69033942192524, 0.2521257675907765, 0};
Point(p15 + 7) = {10.55575568171651, 0.3345987896615066, 0};
Point(p15 + 8) = {10.40992726759078, 0.3950028965717461, 0};
Point(p15 + 9) = {10.25644495908057, 0.4318507387396273, 0};
Point(p15 + 10) = {10.099088, 0.444235, 0};
Point(p15 + 11) = {9.941731040919427, 0.4318507387396272, 0};
Point(p15 + 12) = {9.788248732409224, 0.3950028965717463, 0};
Point(p15 + 13) = {9.64242031828349, 0.3345987896615068, 0};
Point(p15 + 14) = {9.507836578074759, 0.2521257675907765, 0};
Point(p15 + 15) = {9.387811410124796, 0.1496145898752047, 0};
Point(p15 + 16) = {9.285300232409224, 0.02958942192524194, 0};
Point(p15 + 17) = {9.202827210338494, -0.104994318283489, 0};
Point(p15 + 18) = {9.142423103428253, -0.2508227324092234, 0};
Point(p15 + 19) = {9.105575261260373, -0.4043050409194268, 0};
Point(p15 + 20) = {9.093191000000001, -0.5616619999999999, 0};
Point(p15 + 21) = {9.105575261260373, -0.719018959080573, 0};
Point(p15 + 22) = {9.142423103428253, -0.8725012675907768, 0};
Point(p15 + 23) = {9.202827210338492, -1.01832968171651, 0};
Point(p15 + 24) = {9.285300232409224, -1.152913421925242, 0};
Point(p15 + 25) = {9.387811410124796, -1.272938589875205, 0};
Point(p15 + 26) = {9.507836578074759, -1.375449767590776, 0};
Point(p15 + 27) = {9.64242031828349, -1.457922789661507, 0};
Point(p15 + 28) = {9.788248732409224, -1.518326896571746, 0};
Point(p15 + 29) = {9.941731040919427, -1.555174738739627, 0};
Point(p15 + 30) = {10.099088, -1.567559, 0};
Point(p15 + 31) = {10.25644495908057, -1.555174738739627, 0};
Point(p15 + 32) = {10.40992726759078, -1.518326896571746, 0};
Point(p15 + 33) = {10.55575568171651, -1.457922789661507, 0};
Point(p15 + 34) = {10.69033942192524, -1.375449767590777, 0};
Point(p15 + 35) = {10.8103645898752, -1.272938589875205, 0};
Point(p15 + 36) = {10.91287576759078, -1.152913421925242, 0};
Point(p15 + 37) = {10.99534878966151, -1.018329681716511, 0};
Point(p15 + 38) = {11.05575289657175, -0.8725012675907766, 0};
Point(p15 + 39) = {11.09260073873963, -0.7190189590805733, 0};
Spline(15) = {11, p15 + 1, p15 + 2, p15 + 3, p15 + 4, p15 + 5, p15 + 6, p15 + 7, p15 + 8, p15 + 9, p15 + 10, p15 + 11, p15 + 12, p15 + 13, p15 + 14, p15 + 15, p15 + 16, p15 + 17, p15 + 18, p15 + 19, p15 + 20, p15 + 21, p15 + 22, p15 + 23, p15 + 24, p15 + 25, p15 + 26, p15 + 27, p15 + 28, p15 + 29, p15 + 30, p15 + 31, p15 + 32, p15 + 33, p15 + 34, p15 + 35, p15 + 36, p15 + 37, p15 + 38, p15 + 39, 11};
p16 = newp;
Point(p16 + 1) = {30.75608283348625, 4.049886605868778, 0};
Point(p16 + 2) = {30.73201451607095, 4.150138362865155, 0};
Point(p16 + 3) = {30.69255968960706, 4.245390740015374, 0};
Point(p16 + 4) = {30.63868986286516, 4.33329830766948, 0};
Point(p16 + 5) = {30.57173148976334, 4.411696489763341, 0};
Point(p16 + 6) = {30.49333330766948, 4.478654862865155, 0};
Point(p16 + 7) = {30.40542574001537, 4.532524689607055, 0};
Point(p16 + 8) = {30.31017336286515, 4.571979516070954, 0};
Point(p16 + 9) = {30.20992160586878, 4.596047833486245, 0};
Point(p16 + 10) = {30.107139, 4.604137, 0};
Point(p16 + 11) = {30.00435639413122, 4.596047833486245, 0};
Point(p16 + 12) = {29.90410463713485, 4.571979516070954, 0};
Point(p16 + 13) = {29.80885225998463, 4.532524689607056, 0};
Point(p16 + 14) = {29.72094469233052, 4.478654862865155, 0};
Point(p16 + 15) = {29.64254651023666, 4.411696489763341, 0};
Point(p16 + 16) = {29.57558813713484, 4.33329830766948, 0};
Point(p16 + 17) = {29.52171831039295, 4.245390740015374, 0};
Point(p16 + 18) = {29.48226348392905, 4.150138362865155, 0};
Point(p16 + 19) = {29.45819516651375, 4.049886605868778, 0};
Point(p16 + 20) = {29.450106, 3.947104, 0};
Point(p16 + 21) = {29.45819516651375, 3.844321394131222, 0};
Point(p16 + 22) = {29.48226348392905, 3.744069637134845, 0};
Point(p16 + 23) = {29.52171831039295, 3.648817259984626, 0};
Point(p16 + 24) = {29.57558813713484, 3.56090969233052, 0};
Point(p16 + 25) = {29.64254651023666, 3.482511510236659, 0};
Point(p16 + 26) = {29.72094469233052, 3.415553137134845, 0};
Point(p16 + 27) = {29.80885225998463, 3.361683310392944, 0};
Point(p16 + 28) = {29.90410463713485, 3.322228483929046, 0};
Point(p16 + 29) = {30.00435639413122, 3.298160166513755, 0};
Point(p16 + 30) = {30.107139, 3.290071, 0};
Point(p16 + 31) = {30.20992160586878, 3.298160166513755, 0};
Point(p16 + 32) = {30.31017336286515, 3.322228483929046, 0};
Point(p16 + 33) = {30.40542574001537, 3.361683310392944, 0};
Point(p16 + 34) = {30.49333330766948, 3.415553137134845, 0};
Point(p16 + 35) = {30.57173148976334, 3.482511510236659, 0};
Point(p16 + 36) = {30.63868986286516, 3.560909692330519, 0};
Point(p16 + 37) = {30.69255968960706, 3.648817259984626, 0};
Point(p16 + 38) = {30.73201451607095, 3.744069637134845, 0};
Point(p16 + 39) = {30.75608283348625, 3.844321394131222, 0};
Spline(16) = {12, p16 + 1, p16 + 2, p16 + 3, p16 + 4, p16 + 5, p16 + 6, p16 + 7, p16 + 8, p16 + 9, p16 + 10, p16 + 11, p16 + 12, p16 + 13, p16 + 14, p16 + 15, p16 + 16, p16 + 17, p16 + 18, p16 + 19, p16 + 20, p16 + 21, p16 + 22, p16 + 23, p16 + 24, p16 + 25, p16 + 26, p16 + 27, p16 + 28, p16 + 29, p16 + 30, p16 + 31, p16 + 32, p16 + 33, p16 + 34, p16 + 35, p16 + 36, p16 + 37, p16 + 38, p16 + 39, 12};
Line(17) = {11, 8};
Line(18) = {12, 9};
Curve Loop(1) = {-1, 4, 3, -2};
Plane Surface(1) = {1};
Curve Loop(2) = {-5, 1, 7, -6};
Plane Surface(2) = {2};
Curve Loop(3) = {-2, 7, 9, -8, -10, -11};
Plane Surface(3) = {3};
Curve Loop(4) = {-12, 3, 8, -13};
Plane Surface(4) = {4};
Curve Loop(5) = {-4, 5, 14, -12, -15, -16};
Plane Surface(5) = {5};
Curve Loop(6) = {-6, 14, 13, -9};
Plane Surface(6) = {6};
Curve Loop(7) = {-10, -17, 15, 17};
Surface(7) = {7};
Curve Loop(8) = {-11, -18, 16, 18};
Surface(8) = {8};
Surface Loop(1) = {1, 2, 3, 4, 5, 6, 7, 8};
Volume(1) = {1};
Physical Surface("INFLOW") = {1};
Physical Surface("OUTFLOW") = {6};
Physical Surface("OBSTACLE") = {7, 8};
Physical Surface("WALL_Y") = {2, 4};
Physical Surface("WALL_Z") = {3, 5};
Physical Volume("FLUID") = {1};
