cl__1 = 0.269988;
cl__2 = 0.551271;
cl__3 = 3.779128;
cl__4 = 0.112977;
cl__5 = 0.134974;
Point(1) = {0.335188, -3.772571, 1, cl__1};
Point(2) = {0.335188, -3.772571, 0, cl__1};
Point(3) = {0.335188, 5.409418, 1, cl__2};
Point(4) = {0.335188, 5.409418, 0, cl__2};
Point(5) = {37.511381, -3.772571, 0, cl__3};
Point(6) = {37.511381, -3.772571, 1, cl__3};
Point(7) = {37.511381, 5.409418, 1, cl__3};
Point(8) = {3.861652, -0.7856020000000004, 1, cl__4};
Point(9) = {10.53412, -0.2282980000000003, 1, cl__5};
Point(10) = {37.511381, 5.409418, 0, cl__3};
Point(11) = {3.861652, -0.7856020000000004, 0, cl__4};
Point(12) = {10.53412, -0.2282980000000003, 0, cl__5};
Line(1) = {2, 1};
Line(2) = {1, 3};
Line(3) = {4, 3};
Line(4) = {2, 4};
Line(5) = {2, 5};
Line(6) = {5, 6};
Line(7) = {1, 6};
Line(8) = {3, 7};
Line(9) = {6, 7};
p10 = newp;
Point(p10 + 1) = {3.847742718112466, -0.6088678166038236, 1};
Point(p10 + 2) = {3.806357365132194, -0.4364854153499876, 1};
Point(p10 + 3) = {3.738514985799672, -0.272699423061751, 1};
Point(p10 + 4) = {3.645886084650012, -0.1215427944437941, 1};
Point(p10 + 5) = {3.53075149264722, 0.01326249264721968, 1};
Point(p10 + 6) = {3.395946205556206, 0.1283970846500124, 1};
Point(p10 + 7) = {3.244789576938249, 0.2210259857996711, 1};
Point(p10 + 8) = {3.081003584650012, 0.288868365132194, 1};
Point(p10 + 9) = {2.908621183396177, 0.3302537181124657, 1};
Point(p10 + 10) = {2.731887, 0.3441629999999999, 1};
Point(p10 + 11) = {2.555152816603823, 0.3302537181124655, 1};
Point(p10 + 12) = {2.382770415349988, 0.288868365132194, 1};
Point(p10 + 13) = {2.218984423061751, 0.2210259857996714, 1};
Point(p10 + 14) = {2.067827794443794, 0.1283970846500124, 1};
Point(p10 + 15) = {1.93302250735278, 0.01326249264721979, 1};
Point(p10 + 16) = {1.817887915349988, -0.121542794443794, 1};
Point(p10 + 17) = {1.725259014200329, -0.2726994230617509, 1};
Point(p10 + 18) = {1.657416634867806, -0.4364854153499875, 1};
Point(p10 + 19) = {1.616031281887534, -0.6088678166038235, 1};
Point(p10 + 20) = {1.602122, -0.7856019999999999, 1};
Point(p10 + 21) = {1.616031281887534, -0.9623361833961763, 1};
Point(p10 + 22) = {1.657416634867806, -1.134718584650013, 1};
Point(p10 + 23) = {1.725259014200328, -1.298504576938249, 1};
Point(p10 + 24) = {1.817887915349987, -1.449661205556206, 1};
Point(p10 + 25) = {1.93302250735278, -1.58446649264722, 1};
Point(p10 + 26) = {2.067827794443794, -1.699601084650012, 1};
Point(p10 + 27) = {2.218984423061751, -1.792229985799671, 1};
Point(p10 + 28) = {2.382770415349987, -1.860072365132194, 1};
Point(p10 + 29) = {2.555152816603823, -1.901457718112466, 1};
Point(p10 + 30) = {2.731887, -1.915367, 1};
Point(p10 + 31) = {2.908621183396176, -1.901457718112466, 1};
Point(p10 + 32) = {3.081003584650012, -1.860072365132194, 1};
Point(p10 + 33) = {3.244789576938249, -1.792229985799672, 1};
Point(p10 + 34) = {3.395946205556205, -1.699601084650013, 1};
Point(p10 + 35) = {3.530751492647219, -1.58446649264722, 1};
Point(p10 + 36) = {3.645886084650012, -1.449661205556206, 1};
Point(p10 + 37) = {3.738514985799671, -1.298504576938249, 1};
Point(p10 + 38) = {3.806357365132194, -1.134718584650013, 1};
Point(p10 + 39) = {3.847742718112466, -0.9623361833961767, 1};
Spline(10) = {8, p10 + 1, p10 + 2, p10 + 3, p10 + 4, p10 + 5, p10 + 6, p10 + 7, p10 + 8, p10 + 9, p10 + 10, p10 + 11, p10 + 12, p10 + 13, p10 + 14, p10 + 15, p10 + 16, p10 + 17, p10 + 18, p10 + 19, p10 + 20, p10 + 21, p10 + 22, p10 + 23, p10 + 24, p10 + 25, p10 + 26, p10 + 27, p10 + 28, p10 + 29, p10 + 30, p10 + 31, p10 + 32, p10 + 33, p10 + 34, p10 + 35, p10 + 36, p10 + 37, p10 + 38, p10 + 39, 8};
p11 = newp;
Point(p11 + 1) = {10.5175024854582, -0.01715245802552884, 1};
Point(p11 + 2) = {10.46805912019119, 0.1887939799536528, 1};
Point(p11 + 3) = {10.38700736394496, 0.3844702291374564, 1};
Point(p11 + 4) = {10.27634297995365, 0.5650580908587381, 1};
Point(p11 + 5) = {10.13879089262517, 0.7261108926251683, 1};
Point(p11 + 6) = {9.977738090858738, 0.8636629799536529, 1};
Point(p11 + 7) = {9.797150229137456, 0.9743273639449593, 1};
Point(p11 + 8) = {9.601473979953653, 1.055379120191188, 1};
Point(p11 + 9) = {9.39552754197447, 1.1048224854582, 1};
Point(p11 + 10) = {9.184381999999999, 1.12144, 1};
Point(p11 + 11) = {8.973236458025529, 1.1048224854582, 1};
Point(p11 + 12) = {8.767290020046346, 1.055379120191188, 1};
Point(p11 + 13) = {8.571613770862543, 0.9743273639449593, 1};
Point(p11 + 14) = {8.391025909141261, 0.8636629799536529, 1};
Point(p11 + 15) = {8.229973107374832, 0.7261108926251684, 1};
Point(p11 + 16) = {8.092421020046347, 0.5650580908587384, 1};
Point(p11 + 17) = {7.98175663605504, 0.3844702291374565, 1};
Point(p11 + 18) = {7.900704879808812, 0.1887939799536529, 1};
Point(p11 + 19) = {7.851261514541799, -0.0171524580255287, 1};
Point(p11 + 20) = {7.834643999999999, -0.2282979999999998, 1};
Point(p11 + 21) = {7.851261514541799, -0.439443541974471, 1};
Point(p11 + 22) = {7.900704879808812, -0.6453899799536532, 1};
Point(p11 + 23) = {7.98175663605504, -0.8410662291374558, 1};
Point(p11 + 24) = {8.092421020046347, -1.021654090858738, 1};
Point(p11 + 25) = {8.22997310737483, -1.182706892625168, 1};
Point(p11 + 26) = {8.391025909141261, -1.320258979953653, 1};
Point(p11 + 27) = {8.571613770862543, -1.430923363944959, 1};
Point(p11 + 28) = {8.767290020046346, -1.511975120191188, 1};
Point(p11 + 29) = {8.973236458025529, -1.5614184854582, 1};
Point(p11 + 30) = {9.184381999999999, -1.578036, 1};
Point(p11 + 31) = {9.39552754197447, -1.5614184854582, 1};
Point(p11 + 32) = {9.601473979953653, -1.511975120191188, 1};
Point(p11 + 33) = {9.797150229137456, -1.430923363944959, 1};
Point(p11 + 34) = {9.977738090858738, -1.320258979953653, 1};
Point(p11 + 35) = {10.13879089262517, -1.182706892625168, 1};
Point(p11 + 36) = {10.27634297995365, -1.021654090858739, 1};
Point(p11 + 37) = {10.38700736394496, -0.8410662291374567, 1};
Point(p11 + 38) = {10.46805912019119, -0.6453899799536531, 1};
Point(p11 + 39) = {10.5175024854582, -0.4394435419744714, 1};
Spline(11) = {9, p11 + 1, p11 + 2, p11 + 3, p11 + 4, p11 + 5, p11 + 6, p11 + 7, p11 + 8, p11 + 9, p11 + 10, p11 + 11, p11 + 12, p11 + 13, p11 + 14, p11 + 15, p11 + 16, p11 + 17, p11 + 18, p11 + 19, p11 + 20, p11 + 21, p11 + 22, p11 + 23, p11 + 24, p11 + 25, p11 + 26, p11 + 27, p11 + 28, p11 + 29, p11 + 30, p11 + 31, p11 + 32, p11 + 33, p11 + 34, p11 + 35, p11 + 36, p11 + 37, p11 + 38, p11 + 39, 9};
Line(12) = {4, 10};
Line(13) = {10, 7};
Line(14) = {5, 10};
p15 = newp;
Point(p15 + 1) = {3.847742718112466, -0.6088678166038236, 0};
Point(p15 + 2) = {3.806357365132194, -0.4364854153499876, 0};
Point(p15 + 3) = {3.738514985799672, -0.272699423061751, 0};
Point(p15 + 4) = {3.645886084650012, -0.1215427944437941, 0};
Point(p15 + 5) = {3.53075149264722, 0.01326249264721968, 0};
Point(p15 + 6) = {3.395946205556206, 0.1283970846500124, 0};
Point(p15 + 7) = {3.244789576938249, 0.2210259857996711, 0};
Point(p15 + 8) = {3.081003584650012, 0.288868365132194, 0};
Point(p15 + 9) = {2.908621183396177, 0.3302537181124657, 0};
Point(p15 + 10) = {2.731887, 0.3441629999999999, 0};
Point(p15 + 11) = {2.555152816603823, 0.3302537181124655, 0};
Point(p15 + 12) = {2.382770415349988, 0.288868365132194, 0};
Point(p15 + 13) = {2.218984423061751, 0.2210259857996714, 0};
Point(p15 + 14) = {2.067827794443794, 0.1283970846500124, 0};
Point(p15 + 15) = {1.93302250735278, 0.01326249264721979, 0};
Point(p15 + 16) = {1.817887915349988, -0.121542794443794, 0};
Point(p15 + 17) = {1.725259014200329, -0.2726994230617509, 0};
Point(p15 + 18) = {1.657416634867806, -0.4364854153499875, 0};
Point(p15 + 19) = {1.616031281887534, -0.6088678166038235, 0};
Point(p15 + 20) = {1.602122, -0.7856019999999999, 0};
Point(p15 + 21) = {1.616031281887534, -0.9623361833961763, 0};
Point(p15 + 22) = {1.657416634867806, -1.134718584650013, 0};
Point(p15 + 23) = {1.725259014200328, -1.298504576938249, 0};
Point(p15 + 24) = {1.817887915349987, -1.449661205556206, 0};
Point(p15 + 25) = {1.93302250735278, -1.58446649264722, 0};
Point(p15 + 26) = {2.067827794443794, -1.699601084650012, 0};
Point(p15 + 27) = {2.218984423061751, -1.792229985799671, 0};
Point(p15 + 28) = {2.382770415349987, -1.860072365132194, 0};
Point(p15 + 29) = {2.555152816603823, -1.901457718112466, 0};
Point(p15 + 30) = {2.731887, -1.915367, 0};
Point(p15 + 31) = {2.908621183396176, -1.901457718112466, 0};
Point(p15 + 32) = {3.081003584650012, -1.860072365132194, 0};
Point(p15 + 33) = {3.244789576938249, -1.792229985799672, 0};
Point(p15 + 34) = {3.395946205556205, -1.699601084650013, 0};
Point(p15 + 35) = {3.530751492647219, -1.58446649264722, 0};
Point(p15 + 36) = {3.645886084650012, -1.449661205556206, 0};
Point(p15 + 37) = {3.738514985799671, -1.298504576938249, 0};
Point(p15 + 38) = {3.806357365132194, -1.134718584650013, 0};
Point(p15 + 39) = {3.847742718112466, -0.9623361833961767, 0};
Spline(15) = {11, p15 + 1, p15 + 2, p15 + 3, p15 + 4, p15 + 5, p15 + 6, p15 + 7, p15 + 8, p15 + 9, p15 + 10, p15 + 11, p15 + 12, p15 + 13, p15 + 14, p15 + 15, p15 + 16, p15 + 17, p15 + 18, p15 + 19, p15 + 20, p15 + 21, p15 + 22, p15 + 23, p15 + 24, p15 + 25, p15 + 26, p15 + 27, p15 + 28, p15 + 29, p15 + 30, p15 + 31, p15 + 32, p15 + 33, p15 + 34, p15 + 35, p15 + 36, p15 + 37, p15 + 38, p15 + 39, 11};
p16 = newp;
Point(p16 + 1) = {10.5175024854582, -0.01715245802552884, 0};
Point(p16 + 2) = {10.46805912019119, 0.1887939799536528, 0};
Point(p16 + 3) = {10.38700736394496, 0.3844702291374564, 0};
Point(p16 + 4) = {10.27634297995365, 0.5650580908587381, 0};
Point(p16 + 5) = {10.13879089262517, 0.7261108926251683, 0};
Point(p16 + 6) = {9.977738090858738, 0.8636629799536529, 0};
Point(p16 + 7) = {9.797150229137456, 0.9743273639449593, 0};
Point(p16 + 8) = {9.601473979953653, 1.055379120191188, 0};
Point(p16 + 9) = {9.39552754197447, 1.1048224854582, 0};
Point(p16 + 10) = {9.184381999999999, 1.12144, 0};
Point(p16 + 11) = {8.973236458025529, 1.1048224854582, 0};
Point(p16 + 12) = {8.767290020046346, 1.055379120191188, 0};
Point(p16 + 13) = {8.571613770862543, 0.9743273639449593, 0};
Point(p16 + 14) = {8.391025909141261, 0.8636629799536529, 0};
Point(p16 + 15) = {8.229973107374832, 0.7261108926251684, 0};
Point(p16 + 16) = {8.092421020046347, 0.5650580908587384, 0};
Point(p16 + 17) = {7.98175663605504, 0.3844702291374565, 0};
Point(p16 + 18) = {7.900704879808812, 0.1887939799536529, 0};
Point(p16 + 19) = {7.851261514541799, -0.0171524580255287, 0};
Point(p16 + 20) = {7.834643999999999, -0.2282979999999998, 0};
Point(p16 + 21) = {7.851261514541799, -0.439443541974471, 0};
Point(p16 + 22) = {7.900704879808812, -0.6453899799536532, 0};
Point(p16 + 23) = {7.98175663605504, -0.8410662291374558, 0};
Point(p16 + 24) = {8.092421020046347, -1.021654090858738, 0};
Point(p16 + 25) = {8.22997310737483, -1.182706892625168, 0};
Point(p16 + 26) = {8.391025909141261, -1.320258979953653, 0};
Point(p16 + 27) = {8.571613770862543, -1.430923363944959, 0};
Point(p16 + 28) = {8.767290020046346, -1.511975120191188, 0};
Point(p16 + 29) = {8.973236458025529, -1.5614184854582, 0};
Point(p16 + 30) = {9.184381999999999, -1.578036, 0};
Point(p16 + 31) = {9.39552754197447, -1.5614184854582, 0};
Point(p16 + 32) = {9.601473979953653, -1.511975120191188, 0};
Point(p16 + 33) = {9.797150229137456, -1.430923363944959, 0};
Point(p16 + 34) = {9.977738090858738, -1.320258979953653, 0};
Point(p16 + 35) = {10.13879089262517, -1.182706892625168, 0};
Point(p16 + 36) = {10.27634297995365, -1.021654090858739, 0};
Point(p16 + 37) = {10.38700736394496, -0.8410662291374567, 0};
Point(p16 + 38) = {10.46805912019119, -0.6453899799536531, 0};
Point(p16 + 39) = {10.5175024854582, -0.4394435419744714, 0};
Spline(16) = {12, p16 + 1, p16 + 2, p16 + 3, p16 + 4, p16 + 5, p16 + 6, p16 + 7, p16 + 8, p16 + 9, p16 + 10, p16 + 11, p16 + 12, p16 + 13, p16 + 14, p16 + 15, p16 + 16, p16 + 17, p16 + 18, p16 + 19, p16 + 20, p16 + 21, p16 + 22, p16 + 23, p16 + 24, p16 + 25, p16 + 26, p16 + 27, p16 + 28, p16 + 29, p16 + 30, p16 + 31, p16 + 32, p16 + 33, p16 + 34, p16 + 35, p16 + 36, p16 + 37, p16 + 38, p16 + 39, 12};
Line(17) = {11, 8};
Line(18) = {12, 9};
Curve Loop(1) = {-1, 4, 3, -2};
Plane Surface(1) = {1};
Curve Loop(2) = {-5, 1, 7, -6};
Plane Surface(2) = {2};
Curve Loop(3) = {-2, 7, 9, -8, -10, -11};
Plane Surface(3) = {3};
Curve Loop(4) = {-12, 3, 8, -13};
Plane Surface(4) = {4};
Curve Loop(5) = {-4, 5, 14, -12, -15, -16};
Plane Surface(5) = {5};
Curve Loop(6) = {-6, 14, 13, -9};
Plane Surface(6) = {6};
Curve Loop(7) = {-10, -17, 15, 17};
Surface(7) = {7};
Curve Loop(8) = {-11, -18, 16, 18};
Surface(8) = {8};
Surface Loop(1) = {1, 2, 3, 4, 5, 6, 7, 8};
Volume(1) = {1};
Physical Surface("INFLOW") = {1};
Physical Surface("OUTFLOW") = {6};
Physical Surface("OBSTACLE") = {7, 8};
Physical Surface("WALL_Y") = {2, 4};
Physical Surface("WALL_Z") = {3, 5};
Physical Volume("FLUID") = {1};
