cl__1 = 2.903472;
cl__2 = 2.820007;
cl__3 = 0.641514;
cl__4 = 0.519065;
cl__5 = 0.059053;
cl__6 = 0.087891;
Point(1) = {0.176174, -2.930047, 1, cl__1};
Point(2) = {0.176174, -2.930047, 0, cl__1};
Point(3) = {0.176174, 4.841815, 1, cl__2};
Point(4) = {0.176174, 4.841815, 0, cl__2};
Point(5) = {30.696076, -2.930047, 0, cl__3};
Point(6) = {30.696076, -2.930047, 1, cl__3};
Point(7) = {30.696076, 4.841815, 1, cl__4};
Point(8) = {15.763455, 1.244778, 1, cl__5};
Point(9) = {25.867565, 2.108843, 1, cl__6};
Point(10) = {30.696076, 4.841815, 0, cl__4};
Point(11) = {15.763455, 1.244778, 0, cl__5};
Point(12) = {25.867565, 2.108843, 0, cl__6};
Line(1) = {2, 1};
Line(2) = {1, 3};
Line(3) = {4, 3};
Line(4) = {2, 4};
Line(5) = {2, 5};
Line(6) = {5, 6};
Line(7) = {1, 6};
Line(8) = {3, 7};
Line(9) = {6, 7};
p10 = newp;
Point(p10 + 1) = {15.75618455883667, 1.337157713943603, 1};
Point(p10 + 2) = {15.73455225773733, 1.427262732739221, 1};
Point(p10 + 3) = {15.69909075574853, 1.512874371782694, 1};
Point(p10 + 4) = {15.65067323273922, 1.591884588392031, 1};
Point(p10 + 5) = {15.59049188881444, 1.662347888814435, 1};
Point(p10 + 6) = {15.52002858839203, 1.722529232739221, 1};
Point(p10 + 7) = {15.44101837178269, 1.770946755748529, 1};
Point(p10 + 8) = {15.35540673273922, 1.806408257737326, 1};
Point(p10 + 9) = {15.2653017139436, 1.828040558836668, 1};
Point(p10 + 10) = {15.172922, 1.835311, 1};
Point(p10 + 11) = {15.0805422860564, 1.828040558836668, 1};
Point(p10 + 12) = {14.99043726726078, 1.806408257737326, 1};
Point(p10 + 13) = {14.90482562821731, 1.770946755748529, 1};
Point(p10 + 14) = {14.82581541160797, 1.722529232739221, 1};
Point(p10 + 15) = {14.75535211118556, 1.662347888814435, 1};
Point(p10 + 16) = {14.69517076726078, 1.591884588392031, 1};
Point(p10 + 17) = {14.64675324425147, 1.512874371782694, 1};
Point(p10 + 18) = {14.61129174226267, 1.427262732739221, 1};
Point(p10 + 19) = {14.58965944116333, 1.337157713943603, 1};
Point(p10 + 20) = {14.582389, 1.244778, 1};
Point(p10 + 21) = {14.58965944116333, 1.152398286056397, 1};
Point(p10 + 22) = {14.61129174226267, 1.062293267260779, 1};
Point(p10 + 23) = {14.64675324425147, 0.9766816282173065, 1};
Point(p10 + 24) = {14.69517076726078, 0.8976714116079689, 1};
Point(p10 + 25) = {14.75535211118556, 0.8272081111855645, 1};
Point(p10 + 26) = {14.82581541160797, 0.7670267672607791, 1};
Point(p10 + 27) = {14.90482562821731, 0.7186092442514705, 1};
Point(p10 + 28) = {14.99043726726078, 0.6831477422626741, 1};
Point(p10 + 29) = {15.0805422860564, 0.6615154411633315, 1};
Point(p10 + 30) = {15.172922, 0.654245, 1};
Point(p10 + 31) = {15.2653017139436, 0.6615154411633315, 1};
Point(p10 + 32) = {15.35540673273922, 0.6831477422626741, 1};
Point(p10 + 33) = {15.44101837178269, 0.7186092442514705, 1};
Point(p10 + 34) = {15.52002858839203, 0.7670267672607791, 1};
Point(p10 + 35) = {15.59049188881444, 0.8272081111855645, 1};
Point(p10 + 36) = {15.65067323273922, 0.8976714116079687, 1};
Point(p10 + 37) = {15.69909075574853, 0.9766816282173061, 1};
Point(p10 + 38) = {15.73455225773733, 1.062293267260779, 1};
Point(p10 + 39) = {15.75618455883667, 1.152398286056397, 1};
Spline(10) = {8, p10 + 1, p10 + 2, p10 + 3, p10 + 4, p10 + 5, p10 + 6, p10 + 7, p10 + 8, p10 + 9, p10 + 10, p10 + 11, p10 + 12, p10 + 13, p10 + 14, p10 + 15, p10 + 16, p10 + 17, p10 + 18, p10 + 19, p10 + 20, p10 + 21, p10 + 22, p10 + 23, p10 + 24, p10 + 25, p10 + 26, p10 + 27, p10 + 28, p10 + 29, p10 + 30, p10 + 31, p10 + 32, p10 + 33, p10 + 34, p10 + 35, p10 + 36, p10 + 37, p10 + 38, p10 + 39, 8};
p11 = newp;
Point(p11 + 1) = {25.85674414712081, 2.246334972102974, 1};
Point(p11 + 2) = {25.82454803379349, 2.380441435543079, 1};
Point(p11 + 3) = {25.77176943518092, 2.507860244116585, 1};
Point(p11 + 4) = {25.69970793554308, 2.62545392387763, 1};
Point(p11 + 5) = {25.61013792815945, 2.73032692815945, 1};
Point(p11 + 6) = {25.50526492387763, 2.819896935543079, 1};
Point(p11 + 7) = {25.38767124411659, 2.891958435180922, 1};
Point(p11 + 8) = {25.26025243554308, 2.94473703379349, 1};
Point(p11 + 9) = {25.12614597210298, 2.976933147120813, 1};
Point(p11 + 10) = {24.988654, 2.987754, 1};
Point(p11 + 11) = {24.85116202789703, 2.976933147120813, 1};
Point(p11 + 12) = {24.71705556445692, 2.94473703379349, 1};
Point(p11 + 13) = {24.58963675588342, 2.891958435180922, 1};
Point(p11 + 14) = {24.47204307612237, 2.819896935543079, 1};
Point(p11 + 15) = {24.36717007184055, 2.73032692815945, 1};
Point(p11 + 16) = {24.27760006445692, 2.62545392387763, 1};
Point(p11 + 17) = {24.20553856481908, 2.507860244116585, 1};
Point(p11 + 18) = {24.15275996620651, 2.380441435543079, 1};
Point(p11 + 19) = {24.12056385287919, 2.246334972102974, 1};
Point(p11 + 20) = {24.109743, 2.108843, 1};
Point(p11 + 21) = {24.12056385287919, 1.971351027897026, 1};
Point(p11 + 22) = {24.15275996620651, 1.83724456445692, 1};
Point(p11 + 23) = {24.20553856481908, 1.709825755883415, 1};
Point(p11 + 24) = {24.27760006445692, 1.59223207612237, 1};
Point(p11 + 25) = {24.36717007184055, 1.48735907184055, 1};
Point(p11 + 26) = {24.47204307612237, 1.39778906445692, 1};
Point(p11 + 27) = {24.58963675588342, 1.325727564819077, 1};
Point(p11 + 28) = {24.71705556445692, 1.27294896620651, 1};
Point(p11 + 29) = {24.85116202789703, 1.240752852879187, 1};
Point(p11 + 30) = {24.988654, 1.229932, 1};
Point(p11 + 31) = {25.12614597210298, 1.240752852879187, 1};
Point(p11 + 32) = {25.26025243554308, 1.27294896620651, 1};
Point(p11 + 33) = {25.38767124411659, 1.325727564819077, 1};
Point(p11 + 34) = {25.50526492387763, 1.39778906445692, 1};
Point(p11 + 35) = {25.61013792815945, 1.48735907184055, 1};
Point(p11 + 36) = {25.69970793554308, 1.59223207612237, 1};
Point(p11 + 37) = {25.77176943518092, 1.709825755883415, 1};
Point(p11 + 38) = {25.82454803379349, 1.83724456445692, 1};
Point(p11 + 39) = {25.85674414712081, 1.971351027897025, 1};
Spline(11) = {9, p11 + 1, p11 + 2, p11 + 3, p11 + 4, p11 + 5, p11 + 6, p11 + 7, p11 + 8, p11 + 9, p11 + 10, p11 + 11, p11 + 12, p11 + 13, p11 + 14, p11 + 15, p11 + 16, p11 + 17, p11 + 18, p11 + 19, p11 + 20, p11 + 21, p11 + 22, p11 + 23, p11 + 24, p11 + 25, p11 + 26, p11 + 27, p11 + 28, p11 + 29, p11 + 30, p11 + 31, p11 + 32, p11 + 33, p11 + 34, p11 + 35, p11 + 36, p11 + 37, p11 + 38, p11 + 39, 9};
Line(12) = {4, 10};
Line(13) = {10, 7};
Line(14) = {5, 10};
p15 = newp;
Point(p15 + 1) = {15.75618455883667, 1.337157713943603, 0};
Point(p15 + 2) = {15.73455225773733, 1.427262732739221, 0};
Point(p15 + 3) = {15.69909075574853, 1.512874371782694, 0};
Point(p15 + 4) = {15.65067323273922, 1.591884588392031, 0};
Point(p15 + 5) = {15.59049188881444, 1.662347888814435, 0};
Point(p15 + 6) = {15.52002858839203, 1.722529232739221, 0};
Point(p15 + 7) = {15.44101837178269, 1.770946755748529, 0};
Point(p15 + 8) = {15.35540673273922, 1.806408257737326, 0};
Point(p15 + 9) = {15.2653017139436, 1.828040558836668, 0};
Point(p15 + 10) = {15.172922, 1.835311, 0};
Point(p15 + 11) = {15.0805422860564, 1.828040558836668, 0};
Point(p15 + 12) = {14.99043726726078, 1.806408257737326, 0};
Point(p15 + 13) = {14.90482562821731, 1.770946755748529, 0};
Point(p15 + 14) = {14.82581541160797, 1.722529232739221, 0};
Point(p15 + 15) = {14.75535211118556, 1.662347888814435, 0};
Point(p15 + 16) = {14.69517076726078, 1.591884588392031, 0};
Point(p15 + 17) = {14.64675324425147, 1.512874371782694, 0};
Point(p15 + 18) = {14.61129174226267, 1.427262732739221, 0};
Point(p15 + 19) = {14.58965944116333, 1.337157713943603, 0};
Point(p15 + 20) = {14.582389, 1.244778, 0};
Point(p15 + 21) = {14.58965944116333, 1.152398286056397, 0};
Point(p15 + 22) = {14.61129174226267, 1.062293267260779, 0};
Point(p15 + 23) = {14.64675324425147, 0.9766816282173065, 0};
Point(p15 + 24) = {14.69517076726078, 0.8976714116079689, 0};
Point(p15 + 25) = {14.75535211118556, 0.8272081111855645, 0};
Point(p15 + 26) = {14.82581541160797, 0.7670267672607791, 0};
Point(p15 + 27) = {14.90482562821731, 0.7186092442514705, 0};
Point(p15 + 28) = {14.99043726726078, 0.6831477422626741, 0};
Point(p15 + 29) = {15.0805422860564, 0.6615154411633315, 0};
Point(p15 + 30) = {15.172922, 0.654245, 0};
Point(p15 + 31) = {15.2653017139436, 0.6615154411633315, 0};
Point(p15 + 32) = {15.35540673273922, 0.6831477422626741, 0};
Point(p15 + 33) = {15.44101837178269, 0.7186092442514705, 0};
Point(p15 + 34) = {15.52002858839203, 0.7670267672607791, 0};
Point(p15 + 35) = {15.59049188881444, 0.8272081111855645, 0};
Point(p15 + 36) = {15.65067323273922, 0.8976714116079687, 0};
Point(p15 + 37) = {15.69909075574853, 0.9766816282173061, 0};
Point(p15 + 38) = {15.73455225773733, 1.062293267260779, 0};
Point(p15 + 39) = {15.75618455883667, 1.152398286056397, 0};
Spline(15) = {11, p15 + 1, p15 + 2, p15 + 3, p15 + 4, p15 + 5, p15 + 6, p15 + 7, p15 + 8, p15 + 9, p15 + 10, p15 + 11, p15 + 12, p15 + 13, p15 + 14, p15 + 15, p15 + 16, p15 + 17, p15 + 18, p15 + 19, p15 + 20, p15 + 21, p15 + 22, p15 + 23, p15 + 24, p15 + 25, p15 + 26, p15 + 27, p15 + 28, p15 + 29, p15 + 30, p15 + 31, p15 + 32, p15 + 33, p15 + 34, p15 + 35, p15 + 36, p15 + 37, p15 + 38, p15 + 39, 11};
p16 = newp;
Point(p16 + 1) = {25.85674414712081, 2.246334972102974, 0};
Point(p16 + 2) = {25.82454803379349, 2.380441435543079, 0};
Point(p16 + 3) = {25.77176943518092, 2.507860244116585, 0};
Point(p16 + 4) = {25.69970793554308, 2.62545392387763, 0};
Point(p16 + 5) = {25.61013792815945, 2.73032692815945, 0};
Point(p16 + 6) = {25.50526492387763, 2.819896935543079, 0};
Point(p16 + 7) = {25.38767124411659, 2.891958435180922, 0};
Point(p16 + 8) = {25.26025243554308, 2.94473703379349, 0};
Point(p16 + 9) = {25.12614597210298, 2.976933147120813, 0};
Point(p16 + 10) = {24.988654, 2.987754, 0};
Point(p16 + 11) = {24.85116202789703, 2.976933147120813, 0};
Point(p16 + 12) = {24.71705556445692, 2.94473703379349, 0};
Point(p16 + 13) = {24.58963675588342, 2.891958435180922, 0};
Point(p16 + 14) = {24.47204307612237, 2.819896935543079, 0};
Point(p16 + 15) = {24.36717007184055, 2.73032692815945, 0};
Point(p16 + 16) = {24.27760006445692, 2.62545392387763, 0};
Point(p16 + 17) = {24.20553856481908, 2.507860244116585, 0};
Point(p16 + 18) = {24.15275996620651, 2.380441435543079, 0};
Point(p16 + 19) = {24.12056385287919, 2.246334972102974, 0};
Point(p16 + 20) = {24.109743, 2.108843, 0};
Point(p16 + 21) = {24.12056385287919, 1.971351027897026, 0};
Point(p16 + 22) = {24.15275996620651, 1.83724456445692, 0};
Point(p16 + 23) = {24.20553856481908, 1.709825755883415, 0};
Point(p16 + 24) = {24.27760006445692, 1.59223207612237, 0};
Point(p16 + 25) = {24.36717007184055, 1.48735907184055, 0};
Point(p16 + 26) = {24.47204307612237, 1.39778906445692, 0};
Point(p16 + 27) = {24.58963675588342, 1.325727564819077, 0};
Point(p16 + 28) = {24.71705556445692, 1.27294896620651, 0};
Point(p16 + 29) = {24.85116202789703, 1.240752852879187, 0};
Point(p16 + 30) = {24.988654, 1.229932, 0};
Point(p16 + 31) = {25.12614597210298, 1.240752852879187, 0};
Point(p16 + 32) = {25.26025243554308, 1.27294896620651, 0};
Point(p16 + 33) = {25.38767124411659, 1.325727564819077, 0};
Point(p16 + 34) = {25.50526492387763, 1.39778906445692, 0};
Point(p16 + 35) = {25.61013792815945, 1.48735907184055, 0};
Point(p16 + 36) = {25.69970793554308, 1.59223207612237, 0};
Point(p16 + 37) = {25.77176943518092, 1.709825755883415, 0};
Point(p16 + 38) = {25.82454803379349, 1.83724456445692, 0};
Point(p16 + 39) = {25.85674414712081, 1.971351027897025, 0};
Spline(16) = {12, p16 + 1, p16 + 2, p16 + 3, p16 + 4, p16 + 5, p16 + 6, p16 + 7, p16 + 8, p16 + 9, p16 + 10, p16 + 11, p16 + 12, p16 + 13, p16 + 14, p16 + 15, p16 + 16, p16 + 17, p16 + 18, p16 + 19, p16 + 20, p16 + 21, p16 + 22, p16 + 23, p16 + 24, p16 + 25, p16 + 26, p16 + 27, p16 + 28, p16 + 29, p16 + 30, p16 + 31, p16 + 32, p16 + 33, p16 + 34, p16 + 35, p16 + 36, p16 + 37, p16 + 38, p16 + 39, 12};
Line(17) = {11, 8};
Line(18) = {12, 9};
Curve Loop(1) = {-1, 4, 3, -2};
Plane Surface(1) = {1};
Curve Loop(2) = {-5, 1, 7, -6};
Plane Surface(2) = {2};
Curve Loop(3) = {-2, 7, 9, -8, -10, -11};
Plane Surface(3) = {3};
Curve Loop(4) = {-12, 3, 8, -13};
Plane Surface(4) = {4};
Curve Loop(5) = {-4, 5, 14, -12, -15, -16};
Plane Surface(5) = {5};
Curve Loop(6) = {-6, 14, 13, -9};
Plane Surface(6) = {6};
Curve Loop(7) = {-10, -17, 15, 17};
Surface(7) = {7};
Curve Loop(8) = {-11, -18, 16, 18};
Surface(8) = {8};
Surface Loop(1) = {1, 2, 3, 4, 5, 6, 7, 8};
Volume(1) = {1};
Physical Surface("INFLOW") = {1};
Physical Surface("OUTFLOW") = {6};
Physical Surface("OBSTACLE") = {7, 8};
Physical Surface("WALL_Y") = {2, 4};
Physical Surface("WALL_Z") = {3, 5};
Physical Volume("FLUID") = {1};
