cl__1 = 0.618313;
cl__2 = 0.615581;
cl__3 = 2.854285;
cl__4 = 2.447251;
cl__5 = 0.080773;
cl__6 = 0.098923;
Point(1) = {0.630617, -4.181728, 1, cl__1};
Point(2) = {0.630617, -4.181728, 0, cl__1};
Point(3) = {0.630617, 4.90025, 1, cl__2};
Point(4) = {0.630617, 4.90025, 0, cl__2};
Point(5) = {30.848625, -4.181728, 0, cl__3};
Point(6) = {30.848625, -4.181728, 1, cl__3};
Point(7) = {30.848625, 4.90025, 1, cl__4};
Point(8) = {2.750967, 0.3682929999999998, 1, cl__5};
Point(9) = {23.192192, 0.8441279999999998, 1, cl__6};
Point(10) = {30.848625, 4.90025, 0, cl__4};
Point(11) = {2.750967, 0.3682929999999998, 0, cl__5};
Point(12) = {23.192192, 0.8441279999999998, 0, cl__6};
Line(1) = {2, 1};
Line(2) = {1, 3};
Line(3) = {4, 3};
Line(4) = {2, 4};
Line(5) = {2, 5};
Line(6) = {5, 6};
Line(7) = {1, 6};
Line(8) = {3, 7};
Line(9) = {6, 7};
p10 = newp;
Point(p10 + 1) = {2.741022491037251, 0.4946499668814107, 1};
Point(p10 + 2) = {2.711433830963601, 0.6178956058834706, 1};
Point(p10 + 3) = {2.662929590789195, 0.7349952003451239, 1};
Point(p10 + 4) = {2.596704105883471, 0.8430653696194517, 1};
Point(p10 + 5) = {2.514388067474591, 0.9394450674745911, 1};
Point(p10 + 6) = {2.418008369619451, 1.021761105883471, 1};
Point(p10 + 7) = {2.309938200345124, 1.087986590789194, 1};
Point(p10 + 8) = {2.192838605883471, 1.136490830963601, 1};
Point(p10 + 9) = {2.069592966881411, 1.166079491037251, 1};
Point(p10 + 10) = {1.943236, 1.176024, 1};
Point(p10 + 11) = {1.816879033118589, 1.166079491037251, 1};
Point(p10 + 12) = {1.693633394116529, 1.136490830963601, 1};
Point(p10 + 13) = {1.576533799654876, 1.087986590789195, 1};
Point(p10 + 14) = {1.468463630380549, 1.021761105883471, 1};
Point(p10 + 15) = {1.372083932525409, 0.9394450674745912, 1};
Point(p10 + 16) = {1.289767894116529, 0.8430653696194517, 1};
Point(p10 + 17) = {1.223542409210805, 0.7349952003451239, 1};
Point(p10 + 18) = {1.175038169036399, 0.6178956058834707, 1};
Point(p10 + 19) = {1.145449508962749, 0.4946499668814108, 1};
Point(p10 + 20) = {1.135505, 0.3682930000000001, 1};
Point(p10 + 21) = {1.145449508962749, 0.2419360331185894, 1};
Point(p10 + 22) = {1.175038169036399, 0.1186903941165291, 1};
Point(p10 + 23) = {1.223542409210805, 0.001590799654876573, 1};
Point(p10 + 24) = {1.289767894116529, -0.1064793696194515, 1};
Point(p10 + 25) = {1.372083932525409, -0.2028590674745911, 1};
Point(p10 + 26) = {1.468463630380548, -0.2851751058834706, 1};
Point(p10 + 27) = {1.576533799654876, -0.3514005907891945, 1};
Point(p10 + 28) = {1.693633394116529, -0.3999048309636006, 1};
Point(p10 + 29) = {1.816879033118589, -0.4294934910372511, 1};
Point(p10 + 30) = {1.943236, -0.439438, 1};
Point(p10 + 31) = {2.069592966881411, -0.4294934910372512, 1};
Point(p10 + 32) = {2.192838605883471, -0.3999048309636007, 1};
Point(p10 + 33) = {2.309938200345124, -0.3514005907891946, 1};
Point(p10 + 34) = {2.418008369619451, -0.2851751058834707, 1};
Point(p10 + 35) = {2.514388067474591, -0.2028590674745914, 1};
Point(p10 + 36) = {2.596704105883471, -0.1064793696194518, 1};
Point(p10 + 37) = {2.662929590789195, 0.001590799654875963, 1};
Point(p10 + 38) = {2.711433830963601, 0.1186903941165292, 1};
Point(p10 + 39) = {2.741022491037251, 0.2419360331185891, 1};
Spline(10) = {8, p10 + 1, p10 + 2, p10 + 3, p10 + 4, p10 + 5, p10 + 6, p10 + 7, p10 + 8, p10 + 9, p10 + 10, p10 + 11, p10 + 12, p10 + 13, p10 + 14, p10 + 15, p10 + 16, p10 + 17, p10 + 18, p10 + 19, p10 + 20, p10 + 21, p10 + 22, p10 + 23, p10 + 24, p10 + 25, p10 + 26, p10 + 27, p10 + 28, p10 + 29, p10 + 30, p10 + 31, p10 + 32, p10 + 33, p10 + 34, p10 + 35, p10 + 36, p10 + 37, p10 + 38, p10 + 39, 8};
p11 = newp;
Point(p11 + 1) = {23.18001290023195, 0.9988781351551427, 1};
Point(p11 + 2) = {23.1437754907842, 1.149817808396512, 1};
Point(p11 + 3) = {23.08437205694243, 1.293230384028851, 1};
Point(p11 + 4) = {23.00326530839651, 1.42558456848104, 1};
Point(p11 + 5) = {22.90245236247351, 1.543621362473512, 1};
Point(p11 + 6) = {22.78441556848104, 1.644434308396512, 1};
Point(p11 + 7) = {22.65206138402885, 1.725541056942432, 1};
Point(p11 + 8) = {22.50864880839651, 1.784944490784204, 1};
Point(p11 + 9) = {22.35770913515514, 1.82118190023195, 1};
Point(p11 + 10) = {22.202959, 1.833361, 1};
Point(p11 + 11) = {22.04820886484486, 1.82118190023195, 1};
Point(p11 + 12) = {21.89726919160349, 1.784944490784204, 1};
Point(p11 + 13) = {21.75385661597115, 1.725541056942432, 1};
Point(p11 + 14) = {21.62150243151896, 1.644434308396512, 1};
Point(p11 + 15) = {21.50346563752649, 1.543621362473512, 1};
Point(p11 + 16) = {21.40265269160349, 1.42558456848104, 1};
Point(p11 + 17) = {21.32154594305757, 1.293230384028851, 1};
Point(p11 + 18) = {21.2621425092158, 1.149817808396512, 1};
Point(p11 + 19) = {21.22590509976805, 0.9988781351551428, 1};
Point(p11 + 20) = {21.213726, 0.8441280000000001, 1};
Point(p11 + 21) = {21.22590509976805, 0.6893778648448574, 1};
Point(p11 + 22) = {21.2621425092158, 0.5384381916034873, 1};
Point(p11 + 23) = {21.32154594305757, 0.3950256159711494, 1};
Point(p11 + 24) = {21.40265269160349, 0.26267143151896, 1};
Point(p11 + 25) = {21.50346563752649, 0.1446346375264881, 1};
Point(p11 + 26) = {21.62150243151896, 0.0438216916034877, 1};
Point(p11 + 27) = {21.75385661597115, -0.03728505694243167, 1};
Point(p11 + 28) = {21.89726919160349, -0.09668849078420361, 1};
Point(p11 + 29) = {22.04820886484486, -0.1329259002319498, 1};
Point(p11 + 30) = {22.202959, -0.145105, 1};
Point(p11 + 31) = {22.35770913515514, -0.1329259002319499, 1};
Point(p11 + 32) = {22.50864880839651, -0.09668849078420372, 1};
Point(p11 + 33) = {22.65206138402885, -0.03728505694243178, 1};
Point(p11 + 34) = {22.78441556848104, 0.04382169160348748, 1};
Point(p11 + 35) = {22.90245236247351, 0.1446346375264879, 1};
Point(p11 + 36) = {23.00326530839651, 0.2626714315189597, 1};
Point(p11 + 37) = {23.08437205694243, 0.3950256159711487, 1};
Point(p11 + 38) = {23.1437754907842, 0.5384381916034875, 1};
Point(p11 + 39) = {23.18001290023195, 0.6893778648448571, 1};
Spline(11) = {9, p11 + 1, p11 + 2, p11 + 3, p11 + 4, p11 + 5, p11 + 6, p11 + 7, p11 + 8, p11 + 9, p11 + 10, p11 + 11, p11 + 12, p11 + 13, p11 + 14, p11 + 15, p11 + 16, p11 + 17, p11 + 18, p11 + 19, p11 + 20, p11 + 21, p11 + 22, p11 + 23, p11 + 24, p11 + 25, p11 + 26, p11 + 27, p11 + 28, p11 + 29, p11 + 30, p11 + 31, p11 + 32, p11 + 33, p11 + 34, p11 + 35, p11 + 36, p11 + 37, p11 + 38, p11 + 39, 9};
Line(12) = {4, 10};
Line(13) = {10, 7};
Line(14) = {5, 10};
p15 = newp;
Point(p15 + 1) = {2.741022491037251, 0.4946499668814107, 0};
Point(p15 + 2) = {2.711433830963601, 0.6178956058834706, 0};
Point(p15 + 3) = {2.662929590789195, 0.7349952003451239, 0};
Point(p15 + 4) = {2.596704105883471, 0.8430653696194517, 0};
Point(p15 + 5) = {2.514388067474591, 0.9394450674745911, 0};
Point(p15 + 6) = {2.418008369619451, 1.021761105883471, 0};
Point(p15 + 7) = {2.309938200345124, 1.087986590789194, 0};
Point(p15 + 8) = {2.192838605883471, 1.136490830963601, 0};
Point(p15 + 9) = {2.069592966881411, 1.166079491037251, 0};
Point(p15 + 10) = {1.943236, 1.176024, 0};
Point(p15 + 11) = {1.816879033118589, 1.166079491037251, 0};
Point(p15 + 12) = {1.693633394116529, 1.136490830963601, 0};
Point(p15 + 13) = {1.576533799654876, 1.087986590789195, 0};
Point(p15 + 14) = {1.468463630380549, 1.021761105883471, 0};
Point(p15 + 15) = {1.372083932525409, 0.9394450674745912, 0};
Point(p15 + 16) = {1.289767894116529, 0.8430653696194517, 0};
Point(p15 + 17) = {1.223542409210805, 0.7349952003451239, 0};
Point(p15 + 18) = {1.175038169036399, 0.6178956058834707, 0};
Point(p15 + 19) = {1.145449508962749, 0.4946499668814108, 0};
Point(p15 + 20) = {1.135505, 0.3682930000000001, 0};
Point(p15 + 21) = {1.145449508962749, 0.2419360331185894, 0};
Point(p15 + 22) = {1.175038169036399, 0.1186903941165291, 0};
Point(p15 + 23) = {1.223542409210805, 0.001590799654876573, 0};
Point(p15 + 24) = {1.289767894116529, -0.1064793696194515, 0};
Point(p15 + 25) = {1.372083932525409, -0.2028590674745911, 0};
Point(p15 + 26) = {1.468463630380548, -0.2851751058834706, 0};
Point(p15 + 27) = {1.576533799654876, -0.3514005907891945, 0};
Point(p15 + 28) = {1.693633394116529, -0.3999048309636006, 0};
Point(p15 + 29) = {1.816879033118589, -0.4294934910372511, 0};
Point(p15 + 30) = {1.943236, -0.439438, 0};
Point(p15 + 31) = {2.069592966881411, -0.4294934910372512, 0};
Point(p15 + 32) = {2.192838605883471, -0.3999048309636007, 0};
Point(p15 + 33) = {2.309938200345124, -0.3514005907891946, 0};
Point(p15 + 34) = {2.418008369619451, -0.2851751058834707, 0};
Point(p15 + 35) = {2.514388067474591, -0.2028590674745914, 0};
Point(p15 + 36) = {2.596704105883471, -0.1064793696194518, 0};
Point(p15 + 37) = {2.662929590789195, 0.001590799654875963, 0};
Point(p15 + 38) = {2.711433830963601, 0.1186903941165292, 0};
Point(p15 + 39) = {2.741022491037251, 0.2419360331185891, 0};
Spline(15) = {11, p15 + 1, p15 + 2, p15 + 3, p15 + 4, p15 + 5, p15 + 6, p15 + 7, p15 + 8, p15 + 9, p15 + 10, p15 + 11, p15 + 12, p15 + 13, p15 + 14, p15 + 15, p15 + 16, p15 + 17, p15 + 18, p15 + 19, p15 + 20, p15 + 21, p15 + 22, p15 + 23, p15 + 24, p15 + 25, p15 + 26, p15 + 27, p15 + 28, p15 + 29, p15 + 30, p15 + 31, p15 + 32, p15 + 33, p15 + 34, p15 + 35, p15 + 36, p15 + 37, p15 + 38, p15 + 39, 11};
p16 = newp;
Point(p16 + 1) = {23.18001290023195, 0.9988781351551427, 0};
Point(p16 + 2) = {23.1437754907842, 1.149817808396512, 0};
Point(p16 + 3) = {23.08437205694243, 1.293230384028851, 0};
Point(p16 + 4) = {23.00326530839651, 1.42558456848104, 0};
Point(p16 + 5) = {22.90245236247351, 1.543621362473512, 0};
Point(p16 + 6) = {22.78441556848104, 1.644434308396512, 0};
Point(p16 + 7) = {22.65206138402885, 1.725541056942432, 0};
Point(p16 + 8) = {22.50864880839651, 1.784944490784204, 0};
Point(p16 + 9) = {22.35770913515514, 1.82118190023195, 0};
Point(p16 + 10) = {22.202959, 1.833361, 0};
Point(p16 + 11) = {22.04820886484486, 1.82118190023195, 0};
Point(p16 + 12) = {21.89726919160349, 1.784944490784204, 0};
Point(p16 + 13) = {21.75385661597115, 1.725541056942432, 0};
Point(p16 + 14) = {21.62150243151896, 1.644434308396512, 0};
Point(p16 + 15) = {21.50346563752649, 1.543621362473512, 0};
Point(p16 + 16) = {21.40265269160349, 1.42558456848104, 0};
Point(p16 + 17) = {21.32154594305757, 1.293230384028851, 0};
Point(p16 + 18) = {21.2621425092158, 1.149817808396512, 0};
Point(p16 + 19) = {21.22590509976805, 0.9988781351551428, 0};
Point(p16 + 20) = {21.213726, 0.8441280000000001, 0};
Point(p16 + 21) = {21.22590509976805, 0.6893778648448574, 0};
Point(p16 + 22) = {21.2621425092158, 0.5384381916034873, 0};
Point(p16 + 23) = {21.32154594305757, 0.3950256159711494, 0};
Point(p16 + 24) = {21.40265269160349, 0.26267143151896, 0};
Point(p16 + 25) = {21.50346563752649, 0.1446346375264881, 0};
Point(p16 + 26) = {21.62150243151896, 0.0438216916034877, 0};
Point(p16 + 27) = {21.75385661597115, -0.03728505694243167, 0};
Point(p16 + 28) = {21.89726919160349, -0.09668849078420361, 0};
Point(p16 + 29) = {22.04820886484486, -0.1329259002319498, 0};
Point(p16 + 30) = {22.202959, -0.145105, 0};
Point(p16 + 31) = {22.35770913515514, -0.1329259002319499, 0};
Point(p16 + 32) = {22.50864880839651, -0.09668849078420372, 0};
Point(p16 + 33) = {22.65206138402885, -0.03728505694243178, 0};
Point(p16 + 34) = {22.78441556848104, 0.04382169160348748, 0};
Point(p16 + 35) = {22.90245236247351, 0.1446346375264879, 0};
Point(p16 + 36) = {23.00326530839651, 0.2626714315189597, 0};
Point(p16 + 37) = {23.08437205694243, 0.3950256159711487, 0};
Point(p16 + 38) = {23.1437754907842, 0.5384381916034875, 0};
Point(p16 + 39) = {23.18001290023195, 0.6893778648448571, 0};
Spline(16) = {12, p16 + 1, p16 + 2, p16 + 3, p16 + 4, p16 + 5, p16 + 6, p16 + 7, p16 + 8, p16 + 9, p16 + 10, p16 + 11, p16 + 12, p16 + 13, p16 + 14, p16 + 15, p16 + 16, p16 + 17, p16 + 18, p16 + 19, p16 + 20, p16 + 21, p16 + 22, p16 + 23, p16 + 24, p16 + 25, p16 + 26, p16 + 27, p16 + 28, p16 + 29, p16 + 30, p16 + 31, p16 + 32, p16 + 33, p16 + 34, p16 + 35, p16 + 36, p16 + 37, p16 + 38, p16 + 39, 12};
Line(17) = {11, 8};
Line(18) = {12, 9};
Curve Loop(1) = {-1, 4, 3, -2};
Plane Surface(1) = {1};
Curve Loop(2) = {-5, 1, 7, -6};
Plane Surface(2) = {2};
Curve Loop(3) = {-2, 7, 9, -8, -10, -11};
Plane Surface(3) = {3};
Curve Loop(4) = {-12, 3, 8, -13};
Plane Surface(4) = {4};
Curve Loop(5) = {-4, 5, 14, -12, -15, -16};
Plane Surface(5) = {5};
Curve Loop(6) = {-6, 14, 13, -9};
Plane Surface(6) = {6};
Curve Loop(7) = {-10, -17, 15, 17};
Surface(7) = {7};
Curve Loop(8) = {-11, -18, 16, 18};
Surface(8) = {8};
Surface Loop(1) = {1, 2, 3, 4, 5, 6, 7, 8};
Volume(1) = {1};
Physical Surface("INFLOW") = {1};
Physical Surface("OUTFLOW") = {6};
Physical Surface("OBSTACLE") = {7, 8};
Physical Surface("WALL_Y") = {2, 4};
Physical Surface("WALL_Z") = {3, 5};
Physical Volume("FLUID") = {1};
