cl__1 = 0.480366;
cl__2 = 0.581463;
cl__3 = 3.494943;
cl__4 = 2.866964;
cl__5 = 0.111033;
cl__6 = 0.120118;
Point(1) = {0.8517130000000001, -4.021308, 1, cl__1};
Point(2) = {0.8517130000000001, -4.021308, 0, cl__1};
Point(3) = {0.8517130000000001, 5.682770000000001, 1, cl__2};
Point(4) = {0.8517130000000001, 5.682770000000001, 0, cl__2};
Point(5) = {30.866629, -4.021308, 0, cl__3};
Point(6) = {30.866629, -4.021308, 1, cl__3};
Point(7) = {30.866629, 5.682770000000001, 1, cl__4};
Point(8) = {8.637574000000001, -0.3424720000000003, 1, cl__5};
Point(9) = {11.706297, 3.690655, 1, cl__6};
Point(10) = {30.866629, 5.682770000000001, 0, cl__4};
Point(11) = {8.637574000000001, -0.3424720000000003, 0, cl__5};
Point(12) = {11.706297, 3.690655, 0, cl__6};
Line(1) = {2, 1};
Line(2) = {1, 3};
Line(3) = {4, 3};
Line(4) = {2, 4};
Line(5) = {2, 5};
Line(6) = {5, 6};
Line(7) = {1, 6};
Line(8) = {3, 7};
Line(9) = {6, 7};
p10 = newp;
Point(p10 + 1) = {8.62390397058968, -0.1687778075629504, 1};
Point(p10 + 2) = {8.583230483851031, 0.0006394573983241059, 1};
Point(p10 + 3) = {8.51655505601512, 0.1616081795568105, 1};
Point(p10 + 4) = {8.425519457398325, 0.3101647747484063, 1};
Point(p10 + 5) = {8.312365286568422, 0.4426512865684217, 1};
Point(p10 + 6) = {8.179878774748406, 0.5558054573983242, 1};
Point(p10 + 7) = {8.031322179556811, 0.6468410560151189, 1};
Point(p10 + 8) = {7.870353457398324, 0.7135164838510305, 1};
Point(p10 + 9) = {7.70093619243705, 0.7541899705896805, 1};
Point(p10 + 10) = {7.527242, 0.7678600000000001, 1};
Point(p10 + 11) = {7.353547807562951, 0.7541899705896805, 1};
Point(p10 + 12) = {7.184130542601676, 0.7135164838510307, 1};
Point(p10 + 13) = {7.02316182044319, 0.646841056015119, 1};
Point(p10 + 14) = {6.874605225251594, 0.5558054573983242, 1};
Point(p10 + 15) = {6.742118713431578, 0.4426512865684218, 1};
Point(p10 + 16) = {6.628964542601676, 0.3101647747484064, 1};
Point(p10 + 17) = {6.537928943984881, 0.1616081795568106, 1};
Point(p10 + 18) = {6.47125351614897, 0.0006394573983242724, 1};
Point(p10 + 19) = {6.430580029410319, -0.1687778075629502, 1};
Point(p10 + 20) = {6.41691, -0.3424719999999999, 1};
Point(p10 + 21) = {6.430580029410319, -0.5161661924370495, 1};
Point(p10 + 22) = {6.47125351614897, -0.6855834573983245, 1};
Point(p10 + 23) = {6.537928943984881, -0.8465521795568099, 1};
Point(p10 + 24) = {6.628964542601675, -0.9951087747484062, 1};
Point(p10 + 25) = {6.742118713431578, -1.127595286568422, 1};
Point(p10 + 26) = {6.874605225251594, -1.240749457398324, 1};
Point(p10 + 27) = {7.02316182044319, -1.331785056015119, 1};
Point(p10 + 28) = {7.184130542601676, -1.39846048385103, 1};
Point(p10 + 29) = {7.353547807562951, -1.439133970589681, 1};
Point(p10 + 30) = {7.527242, -1.452804, 1};
Point(p10 + 31) = {7.70093619243705, -1.439133970589681, 1};
Point(p10 + 32) = {7.870353457398324, -1.398460483851031, 1};
Point(p10 + 33) = {8.03132217955681, -1.331785056015119, 1};
Point(p10 + 34) = {8.179878774748406, -1.240749457398324, 1};
Point(p10 + 35) = {8.312365286568422, -1.127595286568422, 1};
Point(p10 + 36) = {8.425519457398325, -0.9951087747484065, 1};
Point(p10 + 37) = {8.516555056015118, -0.8465521795568107, 1};
Point(p10 + 38) = {8.583230483851031, -0.6855834573983244, 1};
Point(p10 + 39) = {8.62390397058968, -0.5161661924370499, 1};
Spline(10) = {8, p10 + 1, p10 + 2, p10 + 3, p10 + 4, p10 + 5, p10 + 6, p10 + 7, p10 + 8, p10 + 9, p10 + 10, p10 + 11, p10 + 12, p10 + 13, p10 + 14, p10 + 15, p10 + 16, p10 + 17, p10 + 18, p10 + 19, p10 + 20, p10 + 21, p10 + 22, p10 + 23, p10 + 24, p10 + 25, p10 + 26, p10 + 27, p10 + 28, p10 + 29, p10 + 30, p10 + 31, p10 + 32, p10 + 33, p10 + 34, p10 + 35, p10 + 36, p10 + 37, p10 + 38, p10 + 39, 8};
p11 = newp;
Point(p11 + 1) = {11.69150843170943, 3.878561576454885, 1};
Point(p11 + 2) = {11.64750687046948, 4.061841269371277, 1};
Point(p11 + 3) = {11.57537578075068, 4.235981124439148, 1};
Point(p11 + 4) = {11.47689126937128, 4.396693240489682, 1};
Point(p11 + 5) = {11.35447835185278, 4.540020351852782, 1};
Point(p11 + 6) = {11.21115124048968, 4.662433269371277, 1};
Point(p11 + 7) = {11.05043912443915, 4.76091778075068, 1};
Point(p11 + 8) = {10.87629926937128, 4.833048870469478, 1};
Point(p11 + 9) = {10.69301957645489, 4.87705043170943, 1};
Point(p11 + 10) = {10.505113, 4.891839, 1};
Point(p11 + 11) = {10.31720642354511, 4.87705043170943, 1};
Point(p11 + 12) = {10.13392673062872, 4.833048870469478, 1};
Point(p11 + 13) = {9.959786875560852, 4.760917780750681, 1};
Point(p11 + 14) = {9.799074759510319, 4.662433269371277, 1};
Point(p11 + 15) = {9.655747648147218, 4.540020351852782, 1};
Point(p11 + 16) = {9.533334730628724, 4.396693240489682, 1};
Point(p11 + 17) = {9.43485021924932, 4.235981124439148, 1};
Point(p11 + 18) = {9.362719129530522, 4.061841269371277, 1};
Point(p11 + 19) = {9.31871756829057, 3.878561576454885, 1};
Point(p11 + 20) = {9.303929, 3.690655, 1};
Point(p11 + 21) = {9.31871756829057, 3.502748423545115, 1};
Point(p11 + 22) = {9.362719129530522, 3.319468730628723, 1};
Point(p11 + 23) = {9.434850219249318, 3.145328875560853, 1};
Point(p11 + 24) = {9.533334730628722, 2.984616759510318, 1};
Point(p11 + 25) = {9.655747648147218, 2.841289648147218, 1};
Point(p11 + 26) = {9.799074759510317, 2.718876730628723, 1};
Point(p11 + 27) = {9.959786875560852, 2.62039221924932, 1};
Point(p11 + 28) = {10.13392673062872, 2.548261129530522, 1};
Point(p11 + 29) = {10.31720642354511, 2.50425956829057, 1};
Point(p11 + 30) = {10.505113, 2.489471, 1};
Point(p11 + 31) = {10.69301957645488, 2.50425956829057, 1};
Point(p11 + 32) = {10.87629926937128, 2.548261129530522, 1};
Point(p11 + 33) = {11.05043912443915, 2.620392219249319, 1};
Point(p11 + 34) = {11.21115124048968, 2.718876730628723, 1};
Point(p11 + 35) = {11.35447835185278, 2.841289648147218, 1};
Point(p11 + 36) = {11.47689126937128, 2.984616759510318, 1};
Point(p11 + 37) = {11.57537578075068, 3.145328875560852, 1};
Point(p11 + 38) = {11.64750687046948, 3.319468730628723, 1};
Point(p11 + 39) = {11.69150843170943, 3.502748423545115, 1};
Spline(11) = {9, p11 + 1, p11 + 2, p11 + 3, p11 + 4, p11 + 5, p11 + 6, p11 + 7, p11 + 8, p11 + 9, p11 + 10, p11 + 11, p11 + 12, p11 + 13, p11 + 14, p11 + 15, p11 + 16, p11 + 17, p11 + 18, p11 + 19, p11 + 20, p11 + 21, p11 + 22, p11 + 23, p11 + 24, p11 + 25, p11 + 26, p11 + 27, p11 + 28, p11 + 29, p11 + 30, p11 + 31, p11 + 32, p11 + 33, p11 + 34, p11 + 35, p11 + 36, p11 + 37, p11 + 38, p11 + 39, 9};
Line(12) = {4, 10};
Line(13) = {10, 7};
Line(14) = {5, 10};
p15 = newp;
Point(p15 + 1) = {8.62390397058968, -0.1687778075629504, 0};
Point(p15 + 2) = {8.583230483851031, 0.0006394573983241059, 0};
Point(p15 + 3) = {8.51655505601512, 0.1616081795568105, 0};
Point(p15 + 4) = {8.425519457398325, 0.3101647747484063, 0};
Point(p15 + 5) = {8.312365286568422, 0.4426512865684217, 0};
Point(p15 + 6) = {8.179878774748406, 0.5558054573983242, 0};
Point(p15 + 7) = {8.031322179556811, 0.6468410560151189, 0};
Point(p15 + 8) = {7.870353457398324, 0.7135164838510305, 0};
Point(p15 + 9) = {7.70093619243705, 0.7541899705896805, 0};
Point(p15 + 10) = {7.527242, 0.7678600000000001, 0};
Point(p15 + 11) = {7.353547807562951, 0.7541899705896805, 0};
Point(p15 + 12) = {7.184130542601676, 0.7135164838510307, 0};
Point(p15 + 13) = {7.02316182044319, 0.646841056015119, 0};
Point(p15 + 14) = {6.874605225251594, 0.5558054573983242, 0};
Point(p15 + 15) = {6.742118713431578, 0.4426512865684218, 0};
Point(p15 + 16) = {6.628964542601676, 0.3101647747484064, 0};
Point(p15 + 17) = {6.537928943984881, 0.1616081795568106, 0};
Point(p15 + 18) = {6.47125351614897, 0.0006394573983242724, 0};
Point(p15 + 19) = {6.430580029410319, -0.1687778075629502, 0};
Point(p15 + 20) = {6.41691, -0.3424719999999999, 0};
Point(p15 + 21) = {6.430580029410319, -0.5161661924370495, 0};
Point(p15 + 22) = {6.47125351614897, -0.6855834573983245, 0};
Point(p15 + 23) = {6.537928943984881, -0.8465521795568099, 0};
Point(p15 + 24) = {6.628964542601675, -0.9951087747484062, 0};
Point(p15 + 25) = {6.742118713431578, -1.127595286568422, 0};
Point(p15 + 26) = {6.874605225251594, -1.240749457398324, 0};
Point(p15 + 27) = {7.02316182044319, -1.331785056015119, 0};
Point(p15 + 28) = {7.184130542601676, -1.39846048385103, 0};
Point(p15 + 29) = {7.353547807562951, -1.439133970589681, 0};
Point(p15 + 30) = {7.527242, -1.452804, 0};
Point(p15 + 31) = {7.70093619243705, -1.439133970589681, 0};
Point(p15 + 32) = {7.870353457398324, -1.398460483851031, 0};
Point(p15 + 33) = {8.03132217955681, -1.331785056015119, 0};
Point(p15 + 34) = {8.179878774748406, -1.240749457398324, 0};
Point(p15 + 35) = {8.312365286568422, -1.127595286568422, 0};
Point(p15 + 36) = {8.425519457398325, -0.9951087747484065, 0};
Point(p15 + 37) = {8.516555056015118, -0.8465521795568107, 0};
Point(p15 + 38) = {8.583230483851031, -0.6855834573983244, 0};
Point(p15 + 39) = {8.62390397058968, -0.5161661924370499, 0};
Spline(15) = {11, p15 + 1, p15 + 2, p15 + 3, p15 + 4, p15 + 5, p15 + 6, p15 + 7, p15 + 8, p15 + 9, p15 + 10, p15 + 11, p15 + 12, p15 + 13, p15 + 14, p15 + 15, p15 + 16, p15 + 17, p15 + 18, p15 + 19, p15 + 20, p15 + 21, p15 + 22, p15 + 23, p15 + 24, p15 + 25, p15 + 26, p15 + 27, p15 + 28, p15 + 29, p15 + 30, p15 + 31, p15 + 32, p15 + 33, p15 + 34, p15 + 35, p15 + 36, p15 + 37, p15 + 38, p15 + 39, 11};
p16 = newp;
Point(p16 + 1) = {11.69150843170943, 3.878561576454885, 0};
Point(p16 + 2) = {11.64750687046948, 4.061841269371277, 0};
Point(p16 + 3) = {11.57537578075068, 4.235981124439148, 0};
Point(p16 + 4) = {11.47689126937128, 4.396693240489682, 0};
Point(p16 + 5) = {11.35447835185278, 4.540020351852782, 0};
Point(p16 + 6) = {11.21115124048968, 4.662433269371277, 0};
Point(p16 + 7) = {11.05043912443915, 4.76091778075068, 0};
Point(p16 + 8) = {10.87629926937128, 4.833048870469478, 0};
Point(p16 + 9) = {10.69301957645489, 4.87705043170943, 0};
Point(p16 + 10) = {10.505113, 4.891839, 0};
Point(p16 + 11) = {10.31720642354511, 4.87705043170943, 0};
Point(p16 + 12) = {10.13392673062872, 4.833048870469478, 0};
Point(p16 + 13) = {9.959786875560852, 4.760917780750681, 0};
Point(p16 + 14) = {9.799074759510319, 4.662433269371277, 0};
Point(p16 + 15) = {9.655747648147218, 4.540020351852782, 0};
Point(p16 + 16) = {9.533334730628724, 4.396693240489682, 0};
Point(p16 + 17) = {9.43485021924932, 4.235981124439148, 0};
Point(p16 + 18) = {9.362719129530522, 4.061841269371277, 0};
Point(p16 + 19) = {9.31871756829057, 3.878561576454885, 0};
Point(p16 + 20) = {9.303929, 3.690655, 0};
Point(p16 + 21) = {9.31871756829057, 3.502748423545115, 0};
Point(p16 + 22) = {9.362719129530522, 3.319468730628723, 0};
Point(p16 + 23) = {9.434850219249318, 3.145328875560853, 0};
Point(p16 + 24) = {9.533334730628722, 2.984616759510318, 0};
Point(p16 + 25) = {9.655747648147218, 2.841289648147218, 0};
Point(p16 + 26) = {9.799074759510317, 2.718876730628723, 0};
Point(p16 + 27) = {9.959786875560852, 2.62039221924932, 0};
Point(p16 + 28) = {10.13392673062872, 2.548261129530522, 0};
Point(p16 + 29) = {10.31720642354511, 2.50425956829057, 0};
Point(p16 + 30) = {10.505113, 2.489471, 0};
Point(p16 + 31) = {10.69301957645488, 2.50425956829057, 0};
Point(p16 + 32) = {10.87629926937128, 2.548261129530522, 0};
Point(p16 + 33) = {11.05043912443915, 2.620392219249319, 0};
Point(p16 + 34) = {11.21115124048968, 2.718876730628723, 0};
Point(p16 + 35) = {11.35447835185278, 2.841289648147218, 0};
Point(p16 + 36) = {11.47689126937128, 2.984616759510318, 0};
Point(p16 + 37) = {11.57537578075068, 3.145328875560852, 0};
Point(p16 + 38) = {11.64750687046948, 3.319468730628723, 0};
Point(p16 + 39) = {11.69150843170943, 3.502748423545115, 0};
Spline(16) = {12, p16 + 1, p16 + 2, p16 + 3, p16 + 4, p16 + 5, p16 + 6, p16 + 7, p16 + 8, p16 + 9, p16 + 10, p16 + 11, p16 + 12, p16 + 13, p16 + 14, p16 + 15, p16 + 16, p16 + 17, p16 + 18, p16 + 19, p16 + 20, p16 + 21, p16 + 22, p16 + 23, p16 + 24, p16 + 25, p16 + 26, p16 + 27, p16 + 28, p16 + 29, p16 + 30, p16 + 31, p16 + 32, p16 + 33, p16 + 34, p16 + 35, p16 + 36, p16 + 37, p16 + 38, p16 + 39, 12};
Line(17) = {11, 8};
Line(18) = {12, 9};
Curve Loop(1) = {-1, 4, 3, -2};
Plane Surface(1) = {1};
Curve Loop(2) = {-5, 1, 7, -6};
Plane Surface(2) = {2};
Curve Loop(3) = {-2, 7, 9, -8, -10, -11};
Plane Surface(3) = {3};
Curve Loop(4) = {-12, 3, 8, -13};
Plane Surface(4) = {4};
Curve Loop(5) = {-4, 5, 14, -12, -15, -16};
Plane Surface(5) = {5};
Curve Loop(6) = {-6, 14, 13, -9};
Plane Surface(6) = {6};
Curve Loop(7) = {-10, -17, 15, 17};
Surface(7) = {7};
Curve Loop(8) = {-11, -18, 16, 18};
Surface(8) = {8};
Surface Loop(1) = {1, 2, 3, 4, 5, 6, 7, 8};
Volume(1) = {1};
Physical Surface("INFLOW") = {1};
Physical Surface("OUTFLOW") = {6};
Physical Surface("OBSTACLE") = {7, 8};
Physical Surface("WALL_Y") = {2, 4};
Physical Surface("WALL_Z") = {3, 5};
Physical Volume("FLUID") = {1};
