cl__1 = 1.743757;
cl__2 = 1.021621;
cl__3 = 0.887053;
cl__4 = 0.902155;
cl__5 = 0.147432;
cl__6 = 0.145486;
Point(1) = {0.07693700000000001, -4.630863, 1, cl__1};
Point(2) = {0.07693700000000001, -4.630863, 0, cl__1};
Point(3) = {0.07693700000000001, 4.955763000000001, 1, cl__2};
Point(4) = {0.07693700000000001, 4.955763000000001, 0, cl__2};
Point(5) = {32.404721, -4.630863, 0, cl__3};
Point(6) = {32.404721, -4.630863, 1, cl__3};
Point(7) = {32.404721, 4.955763000000001, 1, cl__4};
Point(8) = {24.940642, 0.007600999999999638, 1, cl__5};
Point(9) = {12.491671, 2.578857, 1, cl__6};
Point(10) = {32.404721, 4.955763000000001, 0, cl__4};
Point(11) = {24.940642, 0.007600999999999638, 0, cl__5};
Point(12) = {12.491671, 2.578857, 0, cl__6};
Line(1) = {2, 1};
Line(2) = {1, 3};
Line(3) = {4, 3};
Line(4) = {2, 4};
Line(5) = {2, 5};
Line(6) = {5, 6};
Line(7) = {1, 6};
Line(8) = {3, 7};
Line(9) = {6, 7};
p10 = newp;
Point(p10 + 1) = {24.92249063737124, 0.2382359298015083, 1};
Point(p10 + 2) = {24.86848349627382, 0.4631918621978556, 1};
Point(p10 + 3) = {24.77995041176096, 0.6769296355475077, 1};
Point(p10 + 4) = {24.65907136219785, 0.8741863165155959, 1};
Point(p10 + 5) = {24.50882279095929, 1.050104790959294, 1};
Point(p10 + 6) = {24.3329043165156, 1.200353362197856, 1};
Point(p10 + 7) = {24.13564763554751, 1.321232411760967, 1};
Point(p10 + 8) = {23.92190986219785, 1.40976549627382, 1};
Point(p10 + 9) = {23.69695392980151, 1.463772637371245, 1};
Point(p10 + 10) = {23.466319, 1.481924, 1};
Point(p10 + 11) = {23.23568407019849, 1.463772637371245, 1};
Point(p10 + 12) = {23.01072813780214, 1.40976549627382, 1};
Point(p10 + 13) = {22.79699036445249, 1.321232411760967, 1};
Point(p10 + 14) = {22.5997336834844, 1.200353362197856, 1};
Point(p10 + 15) = {22.4238152090407, 1.050104790959294, 1};
Point(p10 + 16) = {22.27356663780214, 0.8741863165155961, 1};
Point(p10 + 17) = {22.15268758823903, 0.676929635547508, 1};
Point(p10 + 18) = {22.06415450372618, 0.4631918621978558, 1};
Point(p10 + 19) = {22.01014736262875, 0.2382359298015085, 1};
Point(p10 + 20) = {21.991996, 0.007601000000000181, 1};
Point(p10 + 21) = {22.01014736262875, -0.2230339298015081, 1};
Point(p10 + 22) = {22.06415450372618, -0.447989862197856, 1};
Point(p10 + 23) = {22.15268758823903, -0.6617276355475071, 1};
Point(p10 + 24) = {22.27356663780214, -0.8589843165155958, 1};
Point(p10 + 25) = {22.4238152090407, -1.034902790959294, 1};
Point(p10 + 26) = {22.5997336834844, -1.185151362197856, 1};
Point(p10 + 27) = {22.79699036445249, -1.306030411760967, 1};
Point(p10 + 28) = {23.01072813780214, -1.39456349627382, 1};
Point(p10 + 29) = {23.23568407019849, -1.448570637371245, 1};
Point(p10 + 30) = {23.466319, -1.466722, 1};
Point(p10 + 31) = {23.69695392980151, -1.448570637371245, 1};
Point(p10 + 32) = {23.92190986219785, -1.39456349627382, 1};
Point(p10 + 33) = {24.13564763554751, -1.306030411760967, 1};
Point(p10 + 34) = {24.3329043165156, -1.185151362197856, 1};
Point(p10 + 35) = {24.50882279095929, -1.034902790959295, 1};
Point(p10 + 36) = {24.65907136219785, -0.8589843165155963, 1};
Point(p10 + 37) = {24.77995041176096, -0.6617276355475081, 1};
Point(p10 + 38) = {24.86848349627382, -0.4479898621978559, 1};
Point(p10 + 39) = {24.92249063737124, -0.2230339298015086, 1};
Spline(10) = {8, p10 + 1, p10 + 2, p10 + 3, p10 + 4, p10 + 5, p10 + 6, p10 + 7, p10 + 8, p10 + 9, p10 + 10, p10 + 11, p10 + 12, p10 + 13, p10 + 14, p10 + 15, p10 + 16, p10 + 17, p10 + 18, p10 + 19, p10 + 20, p10 + 21, p10 + 22, p10 + 23, p10 + 24, p10 + 25, p10 + 26, p10 + 27, p10 + 28, p10 + 29, p10 + 30, p10 + 31, p10 + 32, p10 + 33, p10 + 34, p10 + 35, p10 + 36, p10 + 37, p10 + 38, p10 + 39, 8};
p11 = newp;
Point(p11 + 1) = {12.47375928382156, 2.806446932939501, 1};
Point(p11 + 2) = {12.42046518118413, 3.028432846402347, 1};
Point(p11 + 3) = {12.33310096976764, 3.239348710470078, 1};
Point(p11 + 4) = {12.21381784640235, 3.434001076579723, 1};
Point(p11 + 5) = {12.0655529574635, 3.607596957463498, 1};
Point(p11 + 6) = {11.89195707657972, 3.755861846402348, 1};
Point(p11 + 7) = {11.69730471047008, 3.875144969767641, 1};
Point(p11 + 8) = {11.48638884640235, 3.962509181184135, 1};
Point(p11 + 9) = {11.2644029329395, 4.015803283821561, 1};
Point(p11 + 10) = {11.036813, 4.033715, 1};
Point(p11 + 11) = {10.8092230670605, 4.015803283821561, 1};
Point(p11 + 12) = {10.58723715359765, 3.962509181184135, 1};
Point(p11 + 13) = {10.37632128952992, 3.875144969767641, 1};
Point(p11 + 14) = {10.18166892342028, 3.755861846402348, 1};
Point(p11 + 15) = {10.0080730425365, 3.607596957463498, 1};
Point(p11 + 16) = {9.859808153597653, 3.434001076579723, 1};
Point(p11 + 17) = {9.74052503023236, 3.239348710470078, 1};
Point(p11 + 18) = {9.653160818815866, 3.028432846402348, 1};
Point(p11 + 19) = {9.59986671617844, 2.806446932939501, 1};
Point(p11 + 20) = {9.581955000000001, 2.578857, 1};
Point(p11 + 21) = {9.59986671617844, 2.3512670670605, 1};
Point(p11 + 22) = {9.653160818815866, 2.129281153597653, 1};
Point(p11 + 23) = {9.740525030232359, 1.918365289529923, 1};
Point(p11 + 24) = {9.859808153597653, 1.723712923420277, 1};
Point(p11 + 25) = {10.0080730425365, 1.550117042536502, 1};
Point(p11 + 26) = {10.18166892342028, 1.401852153597653, 1};
Point(p11 + 27) = {10.37632128952992, 1.28256903023236, 1};
Point(p11 + 28) = {10.58723715359765, 1.195204818815866, 1};
Point(p11 + 29) = {10.8092230670605, 1.141910716178439, 1};
Point(p11 + 30) = {11.036813, 1.123999, 1};
Point(p11 + 31) = {11.2644029329395, 1.141910716178439, 1};
Point(p11 + 32) = {11.48638884640235, 1.195204818815865, 1};
Point(p11 + 33) = {11.69730471047008, 1.28256903023236, 1};
Point(p11 + 34) = {11.89195707657972, 1.401852153597653, 1};
Point(p11 + 35) = {12.0655529574635, 1.550117042536502, 1};
Point(p11 + 36) = {12.21381784640235, 1.723712923420277, 1};
Point(p11 + 37) = {12.33310096976764, 1.918365289529922, 1};
Point(p11 + 38) = {12.42046518118413, 2.129281153597653, 1};
Point(p11 + 39) = {12.47375928382156, 2.3512670670605, 1};
Spline(11) = {9, p11 + 1, p11 + 2, p11 + 3, p11 + 4, p11 + 5, p11 + 6, p11 + 7, p11 + 8, p11 + 9, p11 + 10, p11 + 11, p11 + 12, p11 + 13, p11 + 14, p11 + 15, p11 + 16, p11 + 17, p11 + 18, p11 + 19, p11 + 20, p11 + 21, p11 + 22, p11 + 23, p11 + 24, p11 + 25, p11 + 26, p11 + 27, p11 + 28, p11 + 29, p11 + 30, p11 + 31, p11 + 32, p11 + 33, p11 + 34, p11 + 35, p11 + 36, p11 + 37, p11 + 38, p11 + 39, 9};
Line(12) = {4, 10};
Line(13) = {10, 7};
Line(14) = {5, 10};
p15 = newp;
Point(p15 + 1) = {24.92249063737124, 0.2382359298015083, 0};
Point(p15 + 2) = {24.86848349627382, 0.4631918621978556, 0};
Point(p15 + 3) = {24.77995041176096, 0.6769296355475077, 0};
Point(p15 + 4) = {24.65907136219785, 0.8741863165155959, 0};
Point(p15 + 5) = {24.50882279095929, 1.050104790959294, 0};
Point(p15 + 6) = {24.3329043165156, 1.200353362197856, 0};
Point(p15 + 7) = {24.13564763554751, 1.321232411760967, 0};
Point(p15 + 8) = {23.92190986219785, 1.40976549627382, 0};
Point(p15 + 9) = {23.69695392980151, 1.463772637371245, 0};
Point(p15 + 10) = {23.466319, 1.481924, 0};
Point(p15 + 11) = {23.23568407019849, 1.463772637371245, 0};
Point(p15 + 12) = {23.01072813780214, 1.40976549627382, 0};
Point(p15 + 13) = {22.79699036445249, 1.321232411760967, 0};
Point(p15 + 14) = {22.5997336834844, 1.200353362197856, 0};
Point(p15 + 15) = {22.4238152090407, 1.050104790959294, 0};
Point(p15 + 16) = {22.27356663780214, 0.8741863165155961, 0};
Point(p15 + 17) = {22.15268758823903, 0.676929635547508, 0};
Point(p15 + 18) = {22.06415450372618, 0.4631918621978558, 0};
Point(p15 + 19) = {22.01014736262875, 0.2382359298015085, 0};
Point(p15 + 20) = {21.991996, 0.007601000000000181, 0};
Point(p15 + 21) = {22.01014736262875, -0.2230339298015081, 0};
Point(p15 + 22) = {22.06415450372618, -0.447989862197856, 0};
Point(p15 + 23) = {22.15268758823903, -0.6617276355475071, 0};
Point(p15 + 24) = {22.27356663780214, -0.8589843165155958, 0};
Point(p15 + 25) = {22.4238152090407, -1.034902790959294, 0};
Point(p15 + 26) = {22.5997336834844, -1.185151362197856, 0};
Point(p15 + 27) = {22.79699036445249, -1.306030411760967, 0};
Point(p15 + 28) = {23.01072813780214, -1.39456349627382, 0};
Point(p15 + 29) = {23.23568407019849, -1.448570637371245, 0};
Point(p15 + 30) = {23.466319, -1.466722, 0};
Point(p15 + 31) = {23.69695392980151, -1.448570637371245, 0};
Point(p15 + 32) = {23.92190986219785, -1.39456349627382, 0};
Point(p15 + 33) = {24.13564763554751, -1.306030411760967, 0};
Point(p15 + 34) = {24.3329043165156, -1.185151362197856, 0};
Point(p15 + 35) = {24.50882279095929, -1.034902790959295, 0};
Point(p15 + 36) = {24.65907136219785, -0.8589843165155963, 0};
Point(p15 + 37) = {24.77995041176096, -0.6617276355475081, 0};
Point(p15 + 38) = {24.86848349627382, -0.4479898621978559, 0};
Point(p15 + 39) = {24.92249063737124, -0.2230339298015086, 0};
Spline(15) = {11, p15 + 1, p15 + 2, p15 + 3, p15 + 4, p15 + 5, p15 + 6, p15 + 7, p15 + 8, p15 + 9, p15 + 10, p15 + 11, p15 + 12, p15 + 13, p15 + 14, p15 + 15, p15 + 16, p15 + 17, p15 + 18, p15 + 19, p15 + 20, p15 + 21, p15 + 22, p15 + 23, p15 + 24, p15 + 25, p15 + 26, p15 + 27, p15 + 28, p15 + 29, p15 + 30, p15 + 31, p15 + 32, p15 + 33, p15 + 34, p15 + 35, p15 + 36, p15 + 37, p15 + 38, p15 + 39, 11};
p16 = newp;
Point(p16 + 1) = {12.47375928382156, 2.806446932939501, 0};
Point(p16 + 2) = {12.42046518118413, 3.028432846402347, 0};
Point(p16 + 3) = {12.33310096976764, 3.239348710470078, 0};
Point(p16 + 4) = {12.21381784640235, 3.434001076579723, 0};
Point(p16 + 5) = {12.0655529574635, 3.607596957463498, 0};
Point(p16 + 6) = {11.89195707657972, 3.755861846402348, 0};
Point(p16 + 7) = {11.69730471047008, 3.875144969767641, 0};
Point(p16 + 8) = {11.48638884640235, 3.962509181184135, 0};
Point(p16 + 9) = {11.2644029329395, 4.015803283821561, 0};
Point(p16 + 10) = {11.036813, 4.033715, 0};
Point(p16 + 11) = {10.8092230670605, 4.015803283821561, 0};
Point(p16 + 12) = {10.58723715359765, 3.962509181184135, 0};
Point(p16 + 13) = {10.37632128952992, 3.875144969767641, 0};
Point(p16 + 14) = {10.18166892342028, 3.755861846402348, 0};
Point(p16 + 15) = {10.0080730425365, 3.607596957463498, 0};
Point(p16 + 16) = {9.859808153597653, 3.434001076579723, 0};
Point(p16 + 17) = {9.74052503023236, 3.239348710470078, 0};
Point(p16 + 18) = {9.653160818815866, 3.028432846402348, 0};
Point(p16 + 19) = {9.59986671617844, 2.806446932939501, 0};
Point(p16 + 20) = {9.581955000000001, 2.578857, 0};
Point(p16 + 21) = {9.59986671617844, 2.3512670670605, 0};
Point(p16 + 22) = {9.653160818815866, 2.129281153597653, 0};
Point(p16 + 23) = {9.740525030232359, 1.918365289529923, 0};
Point(p16 + 24) = {9.859808153597653, 1.723712923420277, 0};
Point(p16 + 25) = {10.0080730425365, 1.550117042536502, 0};
Point(p16 + 26) = {10.18166892342028, 1.401852153597653, 0};
Point(p16 + 27) = {10.37632128952992, 1.28256903023236, 0};
Point(p16 + 28) = {10.58723715359765, 1.195204818815866, 0};
Point(p16 + 29) = {10.8092230670605, 1.141910716178439, 0};
Point(p16 + 30) = {11.036813, 1.123999, 0};
Point(p16 + 31) = {11.2644029329395, 1.141910716178439, 0};
Point(p16 + 32) = {11.48638884640235, 1.195204818815865, 0};
Point(p16 + 33) = {11.69730471047008, 1.28256903023236, 0};
Point(p16 + 34) = {11.89195707657972, 1.401852153597653, 0};
Point(p16 + 35) = {12.0655529574635, 1.550117042536502, 0};
Point(p16 + 36) = {12.21381784640235, 1.723712923420277, 0};
Point(p16 + 37) = {12.33310096976764, 1.918365289529922, 0};
Point(p16 + 38) = {12.42046518118413, 2.129281153597653, 0};
Point(p16 + 39) = {12.47375928382156, 2.3512670670605, 0};
Spline(16) = {12, p16 + 1, p16 + 2, p16 + 3, p16 + 4, p16 + 5, p16 + 6, p16 + 7, p16 + 8, p16 + 9, p16 + 10, p16 + 11, p16 + 12, p16 + 13, p16 + 14, p16 + 15, p16 + 16, p16 + 17, p16 + 18, p16 + 19, p16 + 20, p16 + 21, p16 + 22, p16 + 23, p16 + 24, p16 + 25, p16 + 26, p16 + 27, p16 + 28, p16 + 29, p16 + 30, p16 + 31, p16 + 32, p16 + 33, p16 + 34, p16 + 35, p16 + 36, p16 + 37, p16 + 38, p16 + 39, 12};
Line(17) = {11, 8};
Line(18) = {12, 9};
Curve Loop(1) = {-1, 4, 3, -2};
Plane Surface(1) = {1};
Curve Loop(2) = {-5, 1, 7, -6};
Plane Surface(2) = {2};
Curve Loop(3) = {-2, 7, 9, -8, -10, -11};
Plane Surface(3) = {3};
Curve Loop(4) = {-12, 3, 8, -13};
Plane Surface(4) = {4};
Curve Loop(5) = {-4, 5, 14, -12, -15, -16};
Plane Surface(5) = {5};
Curve Loop(6) = {-6, 14, 13, -9};
Plane Surface(6) = {6};
Curve Loop(7) = {-10, -17, 15, 17};
Surface(7) = {7};
Curve Loop(8) = {-11, -18, 16, 18};
Surface(8) = {8};
Surface Loop(1) = {1, 2, 3, 4, 5, 6, 7, 8};
Volume(1) = {1};
Physical Surface("INFLOW") = {1};
Physical Surface("OUTFLOW") = {6};
Physical Surface("OBSTACLE") = {7, 8};
Physical Surface("WALL_Y") = {2, 4};
Physical Surface("WALL_Z") = {3, 5};
Physical Volume("FLUID") = {1};
