cl__1 = 1.577481;
cl__2 = 1.420733;
cl__3 = 0.861683;
cl__4 = 0.850039;
cl__5 = 0.065137;
cl__6 = 0.135996;
Point(1) = {0.133146, -3.420195, 1, cl__1};
Point(2) = {0.133146, -3.420195, 0, cl__1};
Point(3) = {0.133146, 5.406076000000001, 1, cl__2};
Point(4) = {0.133146, 5.406076000000001, 0, cl__2};
Point(5) = {31.42853, -3.420195, 0, cl__3};
Point(6) = {31.42853, -3.420195, 1, cl__3};
Point(7) = {31.42853, 5.406076000000001, 1, cl__4};
Point(8) = {23.356351, 1.130469, 1, cl__5};
Point(9) = {14.2994, 1.646684, 1, cl__6};
Point(10) = {31.42853, 5.406076000000001, 0, cl__4};
Point(11) = {23.356351, 1.130469, 0, cl__5};
Point(12) = {14.2994, 1.646684, 0, cl__6};
Line(1) = {2, 1};
Line(2) = {1, 3};
Line(3) = {4, 3};
Line(4) = {2, 4};
Line(5) = {2, 5};
Line(6) = {5, 6};
Line(7) = {1, 6};
Line(8) = {3, 7};
Line(9) = {6, 7};
p10 = newp;
Point(p10 + 1) = {23.34833150516682, 1.232366343231115, 1};
Point(p10 + 2) = {23.32447048724524, 1.331754635693987, 1};
Point(p10 + 3) = {23.28535548368667, 1.426186607777348, 1};
Point(p10 + 4) = {23.23194963569399, 1.513337030926757, 1};
Point(p10 + 5) = {23.16556797248861, 1.591059972488606, 1};
Point(p10 + 6) = {23.08784503092676, 1.657441635693987, 1};
Point(p10 + 7) = {23.00069460777735, 1.710847483686674, 1};
Point(p10 + 8) = {22.90626263569399, 1.749962487245239, 1};
Point(p10 + 9) = {22.80687434323112, 1.773823505166817, 1};
Point(p10 + 10) = {22.704977, 1.781843, 1};
Point(p10 + 11) = {22.60307965676888, 1.773823505166817, 1};
Point(p10 + 12) = {22.50369136430601, 1.749962487245239, 1};
Point(p10 + 13) = {22.40925939222265, 1.710847483686674, 1};
Point(p10 + 14) = {22.32210896907324, 1.657441635693987, 1};
Point(p10 + 15) = {22.24438602751139, 1.591059972488606, 1};
Point(p10 + 16) = {22.17800436430601, 1.513337030926758, 1};
Point(p10 + 17) = {22.12459851631333, 1.426186607777348, 1};
Point(p10 + 18) = {22.08548351275476, 1.331754635693987, 1};
Point(p10 + 19) = {22.06162249483318, 1.232366343231115, 1};
Point(p10 + 20) = {22.053603, 1.130469, 1};
Point(p10 + 21) = {22.06162249483318, 1.028571656768885, 1};
Point(p10 + 22) = {22.08548351275476, 0.9291833643060128, 1};
Point(p10 + 23) = {22.12459851631333, 0.8347513922226528, 1};
Point(p10 + 24) = {22.17800436430601, 0.7476009690732426, 1};
Point(p10 + 25) = {22.24438602751139, 0.6698780275113938, 1};
Point(p10 + 26) = {22.32210896907324, 0.6034963643060129, 1};
Point(p10 + 27) = {22.40925939222265, 0.5500905163133261, 1};
Point(p10 + 28) = {22.50369136430601, 0.5109755127547606, 1};
Point(p10 + 29) = {22.60307965676888, 0.4871144948331827, 1};
Point(p10 + 30) = {22.704977, 0.4790949999999999, 1};
Point(p10 + 31) = {22.80687434323112, 0.4871144948331827, 1};
Point(p10 + 32) = {22.90626263569399, 0.5109755127547605, 1};
Point(p10 + 33) = {23.00069460777735, 0.550090516313326, 1};
Point(p10 + 34) = {23.08784503092676, 0.6034963643060128, 1};
Point(p10 + 35) = {23.16556797248861, 0.6698780275113936, 1};
Point(p10 + 36) = {23.23194963569399, 0.7476009690732424, 1};
Point(p10 + 37) = {23.28535548368667, 0.8347513922226523, 1};
Point(p10 + 38) = {23.32447048724524, 0.9291833643060128, 1};
Point(p10 + 39) = {23.34833150516682, 1.028571656768885, 1};
Spline(10) = {8, p10 + 1, p10 + 2, p10 + 3, p10 + 4, p10 + 5, p10 + 6, p10 + 7, p10 + 8, p10 + 9, p10 + 10, p10 + 11, p10 + 12, p10 + 13, p10 + 14, p10 + 15, p10 + 16, p10 + 17, p10 + 18, p10 + 19, p10 + 20, p10 + 21, p10 + 22, p10 + 23, p10 + 24, p10 + 25, p10 + 26, p10 + 27, p10 + 28, p10 + 29, p10 + 30, p10 + 31, p10 + 32, p10 + 33, p10 + 34, p10 + 35, p10 + 36, p10 + 37, p10 + 38, p10 + 39, 8};
p11 = newp;
Point(p11 + 1) = {14.28265659874079, 1.859429084379508, 1};
Point(p11 + 2) = {14.23283867307031, 2.066935678721137, 1};
Point(p11 + 3) = {14.15117290565479, 2.264094281997293, 1};
Point(p11 + 4) = {14.03967017872114, 2.446050195063429, 1};
Point(p11 + 5) = {13.9010760594628, 2.608323059462801, 1};
Point(p11 + 6) = {13.73880319506343, 2.746917178721137, 1};
Point(p11 + 7) = {13.55684728199729, 2.858419905654785, 1};
Point(p11 + 8) = {13.35968867872114, 2.940085673070306, 1};
Point(p11 + 9) = {13.15218208437951, 2.989903598740785, 1};
Point(p11 + 10) = {12.939437, 3.006647, 1};
Point(p11 + 11) = {12.72669191562049, 2.989903598740785, 1};
Point(p11 + 12) = {12.51918532127886, 2.940085673070306, 1};
Point(p11 + 13) = {12.32202671800271, 2.858419905654785, 1};
Point(p11 + 14) = {12.14007080493657, 2.746917178721137, 1};
Point(p11 + 15) = {11.9777979405372, 2.608323059462801, 1};
Point(p11 + 16) = {11.83920382127886, 2.446050195063429, 1};
Point(p11 + 17) = {11.72770109434521, 2.264094281997294, 1};
Point(p11 + 18) = {11.64603532692969, 2.066935678721137, 1};
Point(p11 + 19) = {11.59621740125921, 1.859429084379508, 1};
Point(p11 + 20) = {11.579474, 1.646684, 1};
Point(p11 + 21) = {11.59621740125921, 1.433938915620493, 1};
Point(p11 + 22) = {11.64603532692969, 1.226432321278863, 1};
Point(p11 + 23) = {11.72770109434521, 1.029273718002707, 1};
Point(p11 + 24) = {11.83920382127886, 0.8473178049365715, 1};
Point(p11 + 25) = {11.9777979405372, 0.6850449405371993, 1};
Point(p11 + 26) = {12.14007080493657, 0.5464508212788635, 1};
Point(p11 + 27) = {12.32202671800271, 0.4349480943452149, 1};
Point(p11 + 28) = {12.51918532127886, 0.3532823269296941, 1};
Point(p11 + 29) = {12.72669191562049, 0.3034644012592147, 1};
Point(p11 + 30) = {12.939437, 0.286721, 1};
Point(p11 + 31) = {13.15218208437951, 0.3034644012592147, 1};
Point(p11 + 32) = {13.35968867872114, 0.3532823269296941, 1};
Point(p11 + 33) = {13.55684728199729, 0.4349480943452146, 1};
Point(p11 + 34) = {13.73880319506343, 0.5464508212788632, 1};
Point(p11 + 35) = {13.9010760594628, 0.6850449405371991, 1};
Point(p11 + 36) = {14.03967017872114, 0.8473178049365711, 1};
Point(p11 + 37) = {14.15117290565479, 1.029273718002707, 1};
Point(p11 + 38) = {14.23283867307031, 1.226432321278863, 1};
Point(p11 + 39) = {14.28265659874079, 1.433938915620492, 1};
Spline(11) = {9, p11 + 1, p11 + 2, p11 + 3, p11 + 4, p11 + 5, p11 + 6, p11 + 7, p11 + 8, p11 + 9, p11 + 10, p11 + 11, p11 + 12, p11 + 13, p11 + 14, p11 + 15, p11 + 16, p11 + 17, p11 + 18, p11 + 19, p11 + 20, p11 + 21, p11 + 22, p11 + 23, p11 + 24, p11 + 25, p11 + 26, p11 + 27, p11 + 28, p11 + 29, p11 + 30, p11 + 31, p11 + 32, p11 + 33, p11 + 34, p11 + 35, p11 + 36, p11 + 37, p11 + 38, p11 + 39, 9};
Line(12) = {4, 10};
Line(13) = {10, 7};
Line(14) = {5, 10};
p15 = newp;
Point(p15 + 1) = {23.34833150516682, 1.232366343231115, 0};
Point(p15 + 2) = {23.32447048724524, 1.331754635693987, 0};
Point(p15 + 3) = {23.28535548368667, 1.426186607777348, 0};
Point(p15 + 4) = {23.23194963569399, 1.513337030926757, 0};
Point(p15 + 5) = {23.16556797248861, 1.591059972488606, 0};
Point(p15 + 6) = {23.08784503092676, 1.657441635693987, 0};
Point(p15 + 7) = {23.00069460777735, 1.710847483686674, 0};
Point(p15 + 8) = {22.90626263569399, 1.749962487245239, 0};
Point(p15 + 9) = {22.80687434323112, 1.773823505166817, 0};
Point(p15 + 10) = {22.704977, 1.781843, 0};
Point(p15 + 11) = {22.60307965676888, 1.773823505166817, 0};
Point(p15 + 12) = {22.50369136430601, 1.749962487245239, 0};
Point(p15 + 13) = {22.40925939222265, 1.710847483686674, 0};
Point(p15 + 14) = {22.32210896907324, 1.657441635693987, 0};
Point(p15 + 15) = {22.24438602751139, 1.591059972488606, 0};
Point(p15 + 16) = {22.17800436430601, 1.513337030926758, 0};
Point(p15 + 17) = {22.12459851631333, 1.426186607777348, 0};
Point(p15 + 18) = {22.08548351275476, 1.331754635693987, 0};
Point(p15 + 19) = {22.06162249483318, 1.232366343231115, 0};
Point(p15 + 20) = {22.053603, 1.130469, 0};
Point(p15 + 21) = {22.06162249483318, 1.028571656768885, 0};
Point(p15 + 22) = {22.08548351275476, 0.9291833643060128, 0};
Point(p15 + 23) = {22.12459851631333, 0.8347513922226528, 0};
Point(p15 + 24) = {22.17800436430601, 0.7476009690732426, 0};
Point(p15 + 25) = {22.24438602751139, 0.6698780275113938, 0};
Point(p15 + 26) = {22.32210896907324, 0.6034963643060129, 0};
Point(p15 + 27) = {22.40925939222265, 0.5500905163133261, 0};
Point(p15 + 28) = {22.50369136430601, 0.5109755127547606, 0};
Point(p15 + 29) = {22.60307965676888, 0.4871144948331827, 0};
Point(p15 + 30) = {22.704977, 0.4790949999999999, 0};
Point(p15 + 31) = {22.80687434323112, 0.4871144948331827, 0};
Point(p15 + 32) = {22.90626263569399, 0.5109755127547605, 0};
Point(p15 + 33) = {23.00069460777735, 0.550090516313326, 0};
Point(p15 + 34) = {23.08784503092676, 0.6034963643060128, 0};
Point(p15 + 35) = {23.16556797248861, 0.6698780275113936, 0};
Point(p15 + 36) = {23.23194963569399, 0.7476009690732424, 0};
Point(p15 + 37) = {23.28535548368667, 0.8347513922226523, 0};
Point(p15 + 38) = {23.32447048724524, 0.9291833643060128, 0};
Point(p15 + 39) = {23.34833150516682, 1.028571656768885, 0};
Spline(15) = {11, p15 + 1, p15 + 2, p15 + 3, p15 + 4, p15 + 5, p15 + 6, p15 + 7, p15 + 8, p15 + 9, p15 + 10, p15 + 11, p15 + 12, p15 + 13, p15 + 14, p15 + 15, p15 + 16, p15 + 17, p15 + 18, p15 + 19, p15 + 20, p15 + 21, p15 + 22, p15 + 23, p15 + 24, p15 + 25, p15 + 26, p15 + 27, p15 + 28, p15 + 29, p15 + 30, p15 + 31, p15 + 32, p15 + 33, p15 + 34, p15 + 35, p15 + 36, p15 + 37, p15 + 38, p15 + 39, 11};
p16 = newp;
Point(p16 + 1) = {14.28265659874079, 1.859429084379508, 0};
Point(p16 + 2) = {14.23283867307031, 2.066935678721137, 0};
Point(p16 + 3) = {14.15117290565479, 2.264094281997293, 0};
Point(p16 + 4) = {14.03967017872114, 2.446050195063429, 0};
Point(p16 + 5) = {13.9010760594628, 2.608323059462801, 0};
Point(p16 + 6) = {13.73880319506343, 2.746917178721137, 0};
Point(p16 + 7) = {13.55684728199729, 2.858419905654785, 0};
Point(p16 + 8) = {13.35968867872114, 2.940085673070306, 0};
Point(p16 + 9) = {13.15218208437951, 2.989903598740785, 0};
Point(p16 + 10) = {12.939437, 3.006647, 0};
Point(p16 + 11) = {12.72669191562049, 2.989903598740785, 0};
Point(p16 + 12) = {12.51918532127886, 2.940085673070306, 0};
Point(p16 + 13) = {12.32202671800271, 2.858419905654785, 0};
Point(p16 + 14) = {12.14007080493657, 2.746917178721137, 0};
Point(p16 + 15) = {11.9777979405372, 2.608323059462801, 0};
Point(p16 + 16) = {11.83920382127886, 2.446050195063429, 0};
Point(p16 + 17) = {11.72770109434521, 2.264094281997294, 0};
Point(p16 + 18) = {11.64603532692969, 2.066935678721137, 0};
Point(p16 + 19) = {11.59621740125921, 1.859429084379508, 0};
Point(p16 + 20) = {11.579474, 1.646684, 0};
Point(p16 + 21) = {11.59621740125921, 1.433938915620493, 0};
Point(p16 + 22) = {11.64603532692969, 1.226432321278863, 0};
Point(p16 + 23) = {11.72770109434521, 1.029273718002707, 0};
Point(p16 + 24) = {11.83920382127886, 0.8473178049365715, 0};
Point(p16 + 25) = {11.9777979405372, 0.6850449405371993, 0};
Point(p16 + 26) = {12.14007080493657, 0.5464508212788635, 0};
Point(p16 + 27) = {12.32202671800271, 0.4349480943452149, 0};
Point(p16 + 28) = {12.51918532127886, 0.3532823269296941, 0};
Point(p16 + 29) = {12.72669191562049, 0.3034644012592147, 0};
Point(p16 + 30) = {12.939437, 0.286721, 0};
Point(p16 + 31) = {13.15218208437951, 0.3034644012592147, 0};
Point(p16 + 32) = {13.35968867872114, 0.3532823269296941, 0};
Point(p16 + 33) = {13.55684728199729, 0.4349480943452146, 0};
Point(p16 + 34) = {13.73880319506343, 0.5464508212788632, 0};
Point(p16 + 35) = {13.9010760594628, 0.6850449405371991, 0};
Point(p16 + 36) = {14.03967017872114, 0.8473178049365711, 0};
Point(p16 + 37) = {14.15117290565479, 1.029273718002707, 0};
Point(p16 + 38) = {14.23283867307031, 1.226432321278863, 0};
Point(p16 + 39) = {14.28265659874079, 1.433938915620492, 0};
Spline(16) = {12, p16 + 1, p16 + 2, p16 + 3, p16 + 4, p16 + 5, p16 + 6, p16 + 7, p16 + 8, p16 + 9, p16 + 10, p16 + 11, p16 + 12, p16 + 13, p16 + 14, p16 + 15, p16 + 16, p16 + 17, p16 + 18, p16 + 19, p16 + 20, p16 + 21, p16 + 22, p16 + 23, p16 + 24, p16 + 25, p16 + 26, p16 + 27, p16 + 28, p16 + 29, p16 + 30, p16 + 31, p16 + 32, p16 + 33, p16 + 34, p16 + 35, p16 + 36, p16 + 37, p16 + 38, p16 + 39, 12};
Line(17) = {11, 8};
Line(18) = {12, 9};
Curve Loop(1) = {-1, 4, 3, -2};
Plane Surface(1) = {1};
Curve Loop(2) = {-5, 1, 7, -6};
Plane Surface(2) = {2};
Curve Loop(3) = {-2, 7, 9, -8, -10, -11};
Plane Surface(3) = {3};
Curve Loop(4) = {-12, 3, 8, -13};
Plane Surface(4) = {4};
Curve Loop(5) = {-4, 5, 14, -12, -15, -16};
Plane Surface(5) = {5};
Curve Loop(6) = {-6, 14, 13, -9};
Plane Surface(6) = {6};
Curve Loop(7) = {-10, -17, 15, 17};
Surface(7) = {7};
Curve Loop(8) = {-11, -18, 16, 18};
Surface(8) = {8};
Surface Loop(1) = {1, 2, 3, 4, 5, 6, 7, 8};
Volume(1) = {1};
Physical Surface("INFLOW") = {1};
Physical Surface("OUTFLOW") = {6};
Physical Surface("OBSTACLE") = {7, 8};
Physical Surface("WALL_Y") = {2, 4};
Physical Surface("WALL_Z") = {3, 5};
Physical Volume("FLUID") = {1};
