cl__1 = 0.558857;
cl__2 = 0.504217;
cl__3 = 3.010194;
cl__4 = 3.328272;
cl__5 = 0.116124;
cl__6 = 0.109253;
Point(1) = {0.854351, -3.861679, 1, cl__1};
Point(2) = {0.854351, -3.861679, 0, cl__1};
Point(3) = {0.854351, 4.875048999999999, 1, cl__2};
Point(4) = {0.854351, 4.875048999999999, 0, cl__2};
Point(5) = {33.913848, -3.861679, 0, cl__3};
Point(6) = {33.913848, -3.861679, 1, cl__3};
Point(7) = {33.913848, 4.875048999999999, 1, cl__4};
Point(8) = {13.280899, -1.29942, 1, cl__5};
Point(9) = {9.490073000000001, 1.293759, 1, cl__6};
Point(10) = {33.913848, 4.875048999999999, 0, cl__4};
Point(11) = {13.280899, -1.29942, 0, cl__5};
Point(12) = {9.490073000000001, 1.293759, 0, cl__6};
Line(1) = {2, 1};
Line(2) = {1, 3};
Line(3) = {4, 3};
Line(4) = {2, 4};
Line(5) = {2, 5};
Line(6) = {5, 6};
Line(7) = {1, 6};
Line(8) = {3, 7};
Line(9) = {6, 7};
p10 = newp;
Point(p10 + 1) = {13.2666022086327, -1.117762041816682, 1};
Point(p10 + 2) = {13.22406386898258, -0.9405771054520361, 1};
Point(p10 + 3) = {13.1543314161485, -0.7722280720824487, 1};
Point(p10 + 4) = {13.05912189454796, -0.6168602536278884, 1};
Point(p10 + 5) = {12.94077967858507, -0.4782993214149336, 1};
Point(p10 + 6) = {12.80221874637211, -0.359957105452036, 1};
Point(p10 + 7) = {12.64685092791755, -0.2647475838514997, 1};
Point(p10 + 8) = {12.47850189454796, -0.195015131017416, 1};
Point(p10 + 9) = {12.30131695818332, -0.1524767913673022, 1};
Point(p10 + 10) = {12.119659, -0.13818, 1};
Point(p10 + 11) = {11.93800104181668, -0.1524767913673024, 1};
Point(p10 + 12) = {11.76081610545204, -0.1950151310174157, 1};
Point(p10 + 13) = {11.59246707208245, -0.2647475838514997, 1};
Point(p10 + 14) = {11.43709925362789, -0.359957105452036, 1};
Point(p10 + 15) = {11.29853832141493, -0.4782993214149335, 1};
Point(p10 + 16) = {11.18019610545204, -0.6168602536278883, 1};
Point(p10 + 17) = {11.0849865838515, -0.7722280720824486, 1};
Point(p10 + 18) = {11.01525413101742, -0.940577105452036, 1};
Point(p10 + 19) = {10.9727157913673, -1.117762041816682, 1};
Point(p10 + 20) = {10.958419, -1.29942, 1};
Point(p10 + 21) = {10.9727157913673, -1.481077958183318, 1};
Point(p10 + 22) = {11.01525413101742, -1.658262894547964, 1};
Point(p10 + 23) = {11.0849865838515, -1.826611927917551, 1};
Point(p10 + 24) = {11.18019610545204, -1.981979746372111, 1};
Point(p10 + 25) = {11.29853832141493, -2.120540678585066, 1};
Point(p10 + 26) = {11.43709925362789, -2.238882894547964, 1};
Point(p10 + 27) = {11.59246707208245, -2.334092416148501, 1};
Point(p10 + 28) = {11.76081610545204, -2.403824868982584, 1};
Point(p10 + 29) = {11.93800104181668, -2.446363208632698, 1};
Point(p10 + 30) = {12.119659, -2.46066, 1};
Point(p10 + 31) = {12.30131695818332, -2.446363208632698, 1};
Point(p10 + 32) = {12.47850189454796, -2.403824868982584, 1};
Point(p10 + 33) = {12.64685092791755, -2.334092416148501, 1};
Point(p10 + 34) = {12.80221874637211, -2.238882894547964, 1};
Point(p10 + 35) = {12.94077967858507, -2.120540678585066, 1};
Point(p10 + 36) = {13.05912189454796, -1.981979746372112, 1};
Point(p10 + 37) = {13.1543314161485, -1.826611927917551, 1};
Point(p10 + 38) = {13.22406386898258, -1.658262894547964, 1};
Point(p10 + 39) = {13.2666022086327, -1.481077958183318, 1};
Spline(10) = {8, p10 + 1, p10 + 2, p10 + 3, p10 + 4, p10 + 5, p10 + 6, p10 + 7, p10 + 8, p10 + 9, p10 + 10, p10 + 11, p10 + 12, p10 + 13, p10 + 14, p10 + 15, p10 + 16, p10 + 17, p10 + 18, p10 + 19, p10 + 20, p10 + 21, p10 + 22, p10 + 23, p10 + 24, p10 + 25, p10 + 26, p10 + 27, p10 + 28, p10 + 29, p10 + 30, p10 + 31, p10 + 32, p10 + 33, p10 + 34, p10 + 35, p10 + 36, p10 + 37, p10 + 38, p10 + 39, 8};
p11 = newp;
Point(p11 + 1) = {9.476622118127088, 1.464668658959334, 1};
Point(p11 + 2) = {9.436600677860977, 1.63136995489845, 1};
Point(p11 + 3) = {9.370994139884566, 1.789758148661447, 1};
Point(p11 + 4) = {9.281417954898451, 1.9359331972576, 1};
Point(p11 + 5) = {9.170077785863302, 2.066295785863301, 1};
Point(p11 + 6) = {9.0397151972576, 2.17763595489845, 1};
Point(p11 + 7) = {8.893540148661447, 2.267212139884566, 1};
Point(p11 + 8) = {8.73515195489845, 2.332818677860977, 1};
Point(p11 + 9) = {8.568450658959334, 2.372840118127087, 1};
Point(p11 + 10) = {8.397541, 2.386291, 1};
Point(p11 + 11) = {8.226631341040667, 2.372840118127087, 1};
Point(p11 + 12) = {8.059930045101551, 2.332818677860977, 1};
Point(p11 + 13) = {7.901541851338554, 2.267212139884566, 1};
Point(p11 + 14) = {7.7553668027424, 2.17763595489845, 1};
Point(p11 + 15) = {7.625004214136699, 2.066295785863301, 1};
Point(p11 + 16) = {7.51366404510155, 1.9359331972576, 1};
Point(p11 + 17) = {7.424087860115434, 1.789758148661447, 1};
Point(p11 + 18) = {7.358481322139024, 1.63136995489845, 1};
Point(p11 + 19) = {7.318459881872913, 1.464668658959334, 1};
Point(p11 + 20) = {7.305009, 1.293759, 1};
Point(p11 + 21) = {7.318459881872913, 1.122849341040667, 1};
Point(p11 + 22) = {7.358481322139024, 0.9561480451015497, 1};
Point(p11 + 23) = {7.424087860115434, 0.7977598513385542, 1};
Point(p11 + 24) = {7.51366404510155, 0.6515848027423999, 1};
Point(p11 + 25) = {7.625004214136699, 0.521222214136699, 1};
Point(p11 + 26) = {7.7553668027424, 0.4098820451015501, 1};
Point(p11 + 27) = {7.901541851338553, 0.3203058601154342, 1};
Point(p11 + 28) = {8.059930045101551, 0.2546993221390235, 1};
Point(p11 + 29) = {8.226631341040667, 0.2146778818729131, 1};
Point(p11 + 30) = {8.397541, 0.201227, 1};
Point(p11 + 31) = {8.568450658959334, 0.2146778818729129, 1};
Point(p11 + 32) = {8.73515195489845, 0.2546993221390232, 1};
Point(p11 + 33) = {8.893540148661447, 0.320305860115434, 1};
Point(p11 + 34) = {9.0397151972576, 0.4098820451015498, 1};
Point(p11 + 35) = {9.170077785863301, 0.5212222141366988, 1};
Point(p11 + 36) = {9.281417954898451, 0.6515848027423996, 1};
Point(p11 + 37) = {9.370994139884566, 0.7977598513385533, 1};
Point(p11 + 38) = {9.436600677860977, 0.9561480451015498, 1};
Point(p11 + 39) = {9.476622118127088, 1.122849341040666, 1};
Spline(11) = {9, p11 + 1, p11 + 2, p11 + 3, p11 + 4, p11 + 5, p11 + 6, p11 + 7, p11 + 8, p11 + 9, p11 + 10, p11 + 11, p11 + 12, p11 + 13, p11 + 14, p11 + 15, p11 + 16, p11 + 17, p11 + 18, p11 + 19, p11 + 20, p11 + 21, p11 + 22, p11 + 23, p11 + 24, p11 + 25, p11 + 26, p11 + 27, p11 + 28, p11 + 29, p11 + 30, p11 + 31, p11 + 32, p11 + 33, p11 + 34, p11 + 35, p11 + 36, p11 + 37, p11 + 38, p11 + 39, 9};
Line(12) = {4, 10};
Line(13) = {10, 7};
Line(14) = {5, 10};
p15 = newp;
Point(p15 + 1) = {13.2666022086327, -1.117762041816682, 0};
Point(p15 + 2) = {13.22406386898258, -0.9405771054520361, 0};
Point(p15 + 3) = {13.1543314161485, -0.7722280720824487, 0};
Point(p15 + 4) = {13.05912189454796, -0.6168602536278884, 0};
Point(p15 + 5) = {12.94077967858507, -0.4782993214149336, 0};
Point(p15 + 6) = {12.80221874637211, -0.359957105452036, 0};
Point(p15 + 7) = {12.64685092791755, -0.2647475838514997, 0};
Point(p15 + 8) = {12.47850189454796, -0.195015131017416, 0};
Point(p15 + 9) = {12.30131695818332, -0.1524767913673022, 0};
Point(p15 + 10) = {12.119659, -0.13818, 0};
Point(p15 + 11) = {11.93800104181668, -0.1524767913673024, 0};
Point(p15 + 12) = {11.76081610545204, -0.1950151310174157, 0};
Point(p15 + 13) = {11.59246707208245, -0.2647475838514997, 0};
Point(p15 + 14) = {11.43709925362789, -0.359957105452036, 0};
Point(p15 + 15) = {11.29853832141493, -0.4782993214149335, 0};
Point(p15 + 16) = {11.18019610545204, -0.6168602536278883, 0};
Point(p15 + 17) = {11.0849865838515, -0.7722280720824486, 0};
Point(p15 + 18) = {11.01525413101742, -0.940577105452036, 0};
Point(p15 + 19) = {10.9727157913673, -1.117762041816682, 0};
Point(p15 + 20) = {10.958419, -1.29942, 0};
Point(p15 + 21) = {10.9727157913673, -1.481077958183318, 0};
Point(p15 + 22) = {11.01525413101742, -1.658262894547964, 0};
Point(p15 + 23) = {11.0849865838515, -1.826611927917551, 0};
Point(p15 + 24) = {11.18019610545204, -1.981979746372111, 0};
Point(p15 + 25) = {11.29853832141493, -2.120540678585066, 0};
Point(p15 + 26) = {11.43709925362789, -2.238882894547964, 0};
Point(p15 + 27) = {11.59246707208245, -2.334092416148501, 0};
Point(p15 + 28) = {11.76081610545204, -2.403824868982584, 0};
Point(p15 + 29) = {11.93800104181668, -2.446363208632698, 0};
Point(p15 + 30) = {12.119659, -2.46066, 0};
Point(p15 + 31) = {12.30131695818332, -2.446363208632698, 0};
Point(p15 + 32) = {12.47850189454796, -2.403824868982584, 0};
Point(p15 + 33) = {12.64685092791755, -2.334092416148501, 0};
Point(p15 + 34) = {12.80221874637211, -2.238882894547964, 0};
Point(p15 + 35) = {12.94077967858507, -2.120540678585066, 0};
Point(p15 + 36) = {13.05912189454796, -1.981979746372112, 0};
Point(p15 + 37) = {13.1543314161485, -1.826611927917551, 0};
Point(p15 + 38) = {13.22406386898258, -1.658262894547964, 0};
Point(p15 + 39) = {13.2666022086327, -1.481077958183318, 0};
Spline(15) = {11, p15 + 1, p15 + 2, p15 + 3, p15 + 4, p15 + 5, p15 + 6, p15 + 7, p15 + 8, p15 + 9, p15 + 10, p15 + 11, p15 + 12, p15 + 13, p15 + 14, p15 + 15, p15 + 16, p15 + 17, p15 + 18, p15 + 19, p15 + 20, p15 + 21, p15 + 22, p15 + 23, p15 + 24, p15 + 25, p15 + 26, p15 + 27, p15 + 28, p15 + 29, p15 + 30, p15 + 31, p15 + 32, p15 + 33, p15 + 34, p15 + 35, p15 + 36, p15 + 37, p15 + 38, p15 + 39, 11};
p16 = newp;
Point(p16 + 1) = {9.476622118127088, 1.464668658959334, 0};
Point(p16 + 2) = {9.436600677860977, 1.63136995489845, 0};
Point(p16 + 3) = {9.370994139884566, 1.789758148661447, 0};
Point(p16 + 4) = {9.281417954898451, 1.9359331972576, 0};
Point(p16 + 5) = {9.170077785863302, 2.066295785863301, 0};
Point(p16 + 6) = {9.0397151972576, 2.17763595489845, 0};
Point(p16 + 7) = {8.893540148661447, 2.267212139884566, 0};
Point(p16 + 8) = {8.73515195489845, 2.332818677860977, 0};
Point(p16 + 9) = {8.568450658959334, 2.372840118127087, 0};
Point(p16 + 10) = {8.397541, 2.386291, 0};
Point(p16 + 11) = {8.226631341040667, 2.372840118127087, 0};
Point(p16 + 12) = {8.059930045101551, 2.332818677860977, 0};
Point(p16 + 13) = {7.901541851338554, 2.267212139884566, 0};
Point(p16 + 14) = {7.7553668027424, 2.17763595489845, 0};
Point(p16 + 15) = {7.625004214136699, 2.066295785863301, 0};
Point(p16 + 16) = {7.51366404510155, 1.9359331972576, 0};
Point(p16 + 17) = {7.424087860115434, 1.789758148661447, 0};
Point(p16 + 18) = {7.358481322139024, 1.63136995489845, 0};
Point(p16 + 19) = {7.318459881872913, 1.464668658959334, 0};
Point(p16 + 20) = {7.305009, 1.293759, 0};
Point(p16 + 21) = {7.318459881872913, 1.122849341040667, 0};
Point(p16 + 22) = {7.358481322139024, 0.9561480451015497, 0};
Point(p16 + 23) = {7.424087860115434, 0.7977598513385542, 0};
Point(p16 + 24) = {7.51366404510155, 0.6515848027423999, 0};
Point(p16 + 25) = {7.625004214136699, 0.521222214136699, 0};
Point(p16 + 26) = {7.7553668027424, 0.4098820451015501, 0};
Point(p16 + 27) = {7.901541851338553, 0.3203058601154342, 0};
Point(p16 + 28) = {8.059930045101551, 0.2546993221390235, 0};
Point(p16 + 29) = {8.226631341040667, 0.2146778818729131, 0};
Point(p16 + 30) = {8.397541, 0.201227, 0};
Point(p16 + 31) = {8.568450658959334, 0.2146778818729129, 0};
Point(p16 + 32) = {8.73515195489845, 0.2546993221390232, 0};
Point(p16 + 33) = {8.893540148661447, 0.320305860115434, 0};
Point(p16 + 34) = {9.0397151972576, 0.4098820451015498, 0};
Point(p16 + 35) = {9.170077785863301, 0.5212222141366988, 0};
Point(p16 + 36) = {9.281417954898451, 0.6515848027423996, 0};
Point(p16 + 37) = {9.370994139884566, 0.7977598513385533, 0};
Point(p16 + 38) = {9.436600677860977, 0.9561480451015498, 0};
Point(p16 + 39) = {9.476622118127088, 1.122849341040666, 0};
Spline(16) = {12, p16 + 1, p16 + 2, p16 + 3, p16 + 4, p16 + 5, p16 + 6, p16 + 7, p16 + 8, p16 + 9, p16 + 10, p16 + 11, p16 + 12, p16 + 13, p16 + 14, p16 + 15, p16 + 16, p16 + 17, p16 + 18, p16 + 19, p16 + 20, p16 + 21, p16 + 22, p16 + 23, p16 + 24, p16 + 25, p16 + 26, p16 + 27, p16 + 28, p16 + 29, p16 + 30, p16 + 31, p16 + 32, p16 + 33, p16 + 34, p16 + 35, p16 + 36, p16 + 37, p16 + 38, p16 + 39, 12};
Line(17) = {11, 8};
Line(18) = {12, 9};
Curve Loop(1) = {-1, 4, 3, -2};
Plane Surface(1) = {1};
Curve Loop(2) = {-5, 1, 7, -6};
Plane Surface(2) = {2};
Curve Loop(3) = {-2, 7, 9, -8, -10, -11};
Plane Surface(3) = {3};
Curve Loop(4) = {-12, 3, 8, -13};
Plane Surface(4) = {4};
Curve Loop(5) = {-4, 5, 14, -12, -15, -16};
Plane Surface(5) = {5};
Curve Loop(6) = {-6, 14, 13, -9};
Plane Surface(6) = {6};
Curve Loop(7) = {-10, -17, 15, 17};
Surface(7) = {7};
Curve Loop(8) = {-11, -18, 16, 18};
Surface(8) = {8};
Surface Loop(1) = {1, 2, 3, 4, 5, 6, 7, 8};
Volume(1) = {1};
Physical Surface("INFLOW") = {1};
Physical Surface("OUTFLOW") = {6};
Physical Surface("OBSTACLE") = {7, 8};
Physical Surface("WALL_Y") = {2, 4};
Physical Surface("WALL_Z") = {3, 5};
Physical Volume("FLUID") = {1};
