cl__1 = 3.568226;
cl__2 = 0.88622;
cl__3 = 0.580574;
cl__4 = 0.06318;
cl__5 = 0.096828;
Point(1) = {0.7128989999999999, -4.296232, 1, cl__1};
Point(2) = {0.7128989999999999, -4.296232, 0, cl__1};
Point(3) = {0.7128989999999999, 5.637973000000001, 1, cl__1};
Point(4) = {0.7128989999999999, 5.637973000000001, 0, cl__1};
Point(5) = {35.33485, -4.296232, 0, cl__2};
Point(6) = {35.33485, -4.296232, 1, cl__2};
Point(7) = {35.33485, 5.637973000000001, 1, cl__3};
Point(8) = {27.335858, -0.3407890000000002, 1, cl__4};
Point(9) = {29.690244, 4.169277, 1, cl__5};
Point(10) = {35.33485, 5.637973000000001, 0, cl__3};
Point(11) = {27.335858, -0.3407890000000002, 0, cl__4};
Point(12) = {29.690244, 4.169277, 0, cl__5};
Line(1) = {2, 1};
Line(2) = {1, 3};
Line(3) = {4, 3};
Line(4) = {2, 4};
Line(5) = {2, 5};
Line(6) = {5, 6};
Line(7) = {1, 6};
Line(8) = {3, 7};
Line(9) = {6, 7};
p10 = newp;
Point(p10 + 1) = {27.32807955514631, -0.2419544871599074, 1};
Point(p10 + 2) = {27.3049357517127, -0.1455536080388801, 1};
Point(p10 + 3) = {27.26699646694959, -0.05396007221705307, 1};
Point(p10 + 4) = {27.21519589196112, 0.03057078347212305, 1};
Point(p10 + 5) = {27.15080952881976, 0.1059575288197547, 1};
Point(p10 + 6) = {27.07542278347212, 0.1703438919611199, 1};
Point(p10 + 7) = {26.99089192778295, 0.2221444669495898, 1};
Point(p10 + 8) = {26.89929839196112, 0.2600837517126965, 1};
Point(p10 + 9) = {26.80289751284009, 0.283227555146305, 1};
Point(p10 + 10) = {26.704063, 0.291006, 1};
Point(p10 + 11) = {26.60522848715991, 0.2832275551463049, 1};
Point(p10 + 12) = {26.50882760803888, 0.2600837517126966, 1};
Point(p10 + 13) = {26.41723407221706, 0.2221444669495899, 1};
Point(p10 + 14) = {26.33270321652788, 0.1703438919611199, 1};
Point(p10 + 15) = {26.25731647118025, 0.1059575288197548, 1};
Point(p10 + 16) = {26.19293010803888, 0.03057078347212311, 1};
Point(p10 + 17) = {26.14112953305041, -0.05396007221705301, 1};
Point(p10 + 18) = {26.10319024828731, -0.14555360803888, 1};
Point(p10 + 19) = {26.0800464448537, -0.2419544871599073, 1};
Point(p10 + 20) = {26.072268, -0.340789, 1};
Point(p10 + 21) = {26.0800464448537, -0.4396235128400926, 1};
Point(p10 + 22) = {26.10319024828731, -0.5360243919611201, 1};
Point(p10 + 23) = {26.14112953305041, -0.6276179277829466, 1};
Point(p10 + 24) = {26.19293010803888, -0.712148783472123, 1};
Point(p10 + 25) = {26.25731647118025, -0.7875355288197547, 1};
Point(p10 + 26) = {26.33270321652788, -0.8519218919611199, 1};
Point(p10 + 27) = {26.41723407221706, -0.9037224669495898, 1};
Point(p10 + 28) = {26.50882760803888, -0.9416617517126965, 1};
Point(p10 + 29) = {26.60522848715991, -0.9648055551463049, 1};
Point(p10 + 30) = {26.704063, -0.972584, 1};
Point(p10 + 31) = {26.80289751284009, -0.9648055551463051, 1};
Point(p10 + 32) = {26.89929839196112, -0.9416617517126966, 1};
Point(p10 + 33) = {26.99089192778295, -0.9037224669495899, 1};
Point(p10 + 34) = {27.07542278347212, -0.85192189196112, 1};
Point(p10 + 35) = {27.15080952881976, -0.787535528819755, 1};
Point(p10 + 36) = {27.21519589196112, -0.7121487834721232, 1};
Point(p10 + 37) = {27.26699646694959, -0.627617927782947, 1};
Point(p10 + 38) = {27.3049357517127, -0.5360243919611201, 1};
Point(p10 + 39) = {27.32807955514631, -0.4396235128400928, 1};
Spline(10) = {8, p10 + 1, p10 + 2, p10 + 3, p10 + 4, p10 + 5, p10 + 6, p10 + 7, p10 + 8, p10 + 9, p10 + 10, p10 + 11, p10 + 12, p10 + 13, p10 + 14, p10 + 15, p10 + 16, p10 + 17, p10 + 18, p10 + 19, p10 + 20, p10 + 21, p10 + 22, p10 + 23, p10 + 24, p10 + 25, p10 + 26, p10 + 27, p10 + 28, p10 + 29, p10 + 30, p10 + 31, p10 + 32, p10 + 33, p10 + 34, p10 + 35, p10 + 36, p10 + 37, p10 + 38, p10 + 39, 8};
p11 = newp;
Point(p11 + 1) = {29.6783229156781, 4.320748738071295, 1};
Point(p11 + 2) = {29.64285319937221, 4.468490739245397, 1};
Point(p11 + 3) = {29.58470823321502, 4.608865105125809, 1};
Point(p11 + 4) = {29.5053197392454, 4.738415352948746, 1};
Point(p11 + 5) = {29.40664252566019, 4.853951525660186, 1};
Point(p11 + 6) = {29.29110635294875, 4.952628739245397, 1};
Point(p11 + 7) = {29.16155610512581, 5.032017233215016, 1};
Point(p11 + 8) = {29.0211817392454, 5.090162199372206, 1};
Point(p11 + 9) = {28.87343973807129, 5.125631915678098, 1};
Point(p11 + 10) = {28.721968, 5.137553, 1};
Point(p11 + 11) = {28.57049626192871, 5.125631915678097, 1};
Point(p11 + 12) = {28.4227542607546, 5.090162199372206, 1};
Point(p11 + 13) = {28.28237989487419, 5.032017233215016, 1};
Point(p11 + 14) = {28.15282964705125, 4.952628739245397, 1};
Point(p11 + 15) = {28.03729347433982, 4.853951525660186, 1};
Point(p11 + 16) = {27.9386162607546, 4.738415352948747, 1};
Point(p11 + 17) = {27.85922776678498, 4.60886510512581, 1};
Point(p11 + 18) = {27.80108280062779, 4.468490739245397, 1};
Point(p11 + 19) = {27.7656130843219, 4.320748738071295, 1};
Point(p11 + 20) = {27.753692, 4.169277, 1};
Point(p11 + 21) = {27.7656130843219, 4.017805261928705, 1};
Point(p11 + 22) = {27.80108280062779, 3.870063260754603, 1};
Point(p11 + 23) = {27.85922776678498, 3.729688894874191, 1};
Point(p11 + 24) = {27.9386162607546, 3.600138647051254, 1};
Point(p11 + 25) = {28.03729347433982, 3.484602474339815, 1};
Point(p11 + 26) = {28.15282964705125, 3.385925260754604, 1};
Point(p11 + 27) = {28.28237989487419, 3.306536766784984, 1};
Point(p11 + 28) = {28.4227542607546, 3.248391800627794, 1};
Point(p11 + 29) = {28.57049626192871, 3.212922084321903, 1};
Point(p11 + 30) = {28.721968, 3.201001, 1};
Point(p11 + 31) = {28.87343973807129, 3.212922084321903, 1};
Point(p11 + 32) = {29.0211817392454, 3.248391800627794, 1};
Point(p11 + 33) = {29.16155610512581, 3.306536766784984, 1};
Point(p11 + 34) = {29.29110635294875, 3.385925260754604, 1};
Point(p11 + 35) = {29.40664252566019, 3.484602474339814, 1};
Point(p11 + 36) = {29.5053197392454, 3.600138647051253, 1};
Point(p11 + 37) = {29.58470823321502, 3.729688894874191, 1};
Point(p11 + 38) = {29.64285319937221, 3.870063260754603, 1};
Point(p11 + 39) = {29.6783229156781, 4.017805261928705, 1};
Spline(11) = {9, p11 + 1, p11 + 2, p11 + 3, p11 + 4, p11 + 5, p11 + 6, p11 + 7, p11 + 8, p11 + 9, p11 + 10, p11 + 11, p11 + 12, p11 + 13, p11 + 14, p11 + 15, p11 + 16, p11 + 17, p11 + 18, p11 + 19, p11 + 20, p11 + 21, p11 + 22, p11 + 23, p11 + 24, p11 + 25, p11 + 26, p11 + 27, p11 + 28, p11 + 29, p11 + 30, p11 + 31, p11 + 32, p11 + 33, p11 + 34, p11 + 35, p11 + 36, p11 + 37, p11 + 38, p11 + 39, 9};
Line(12) = {4, 10};
Line(13) = {10, 7};
Line(14) = {5, 10};
p15 = newp;
Point(p15 + 1) = {27.32807955514631, -0.2419544871599074, 0};
Point(p15 + 2) = {27.3049357517127, -0.1455536080388801, 0};
Point(p15 + 3) = {27.26699646694959, -0.05396007221705307, 0};
Point(p15 + 4) = {27.21519589196112, 0.03057078347212305, 0};
Point(p15 + 5) = {27.15080952881976, 0.1059575288197547, 0};
Point(p15 + 6) = {27.07542278347212, 0.1703438919611199, 0};
Point(p15 + 7) = {26.99089192778295, 0.2221444669495898, 0};
Point(p15 + 8) = {26.89929839196112, 0.2600837517126965, 0};
Point(p15 + 9) = {26.80289751284009, 0.283227555146305, 0};
Point(p15 + 10) = {26.704063, 0.291006, 0};
Point(p15 + 11) = {26.60522848715991, 0.2832275551463049, 0};
Point(p15 + 12) = {26.50882760803888, 0.2600837517126966, 0};
Point(p15 + 13) = {26.41723407221706, 0.2221444669495899, 0};
Point(p15 + 14) = {26.33270321652788, 0.1703438919611199, 0};
Point(p15 + 15) = {26.25731647118025, 0.1059575288197548, 0};
Point(p15 + 16) = {26.19293010803888, 0.03057078347212311, 0};
Point(p15 + 17) = {26.14112953305041, -0.05396007221705301, 0};
Point(p15 + 18) = {26.10319024828731, -0.14555360803888, 0};
Point(p15 + 19) = {26.0800464448537, -0.2419544871599073, 0};
Point(p15 + 20) = {26.072268, -0.340789, 0};
Point(p15 + 21) = {26.0800464448537, -0.4396235128400926, 0};
Point(p15 + 22) = {26.10319024828731, -0.5360243919611201, 0};
Point(p15 + 23) = {26.14112953305041, -0.6276179277829466, 0};
Point(p15 + 24) = {26.19293010803888, -0.712148783472123, 0};
Point(p15 + 25) = {26.25731647118025, -0.7875355288197547, 0};
Point(p15 + 26) = {26.33270321652788, -0.8519218919611199, 0};
Point(p15 + 27) = {26.41723407221706, -0.9037224669495898, 0};
Point(p15 + 28) = {26.50882760803888, -0.9416617517126965, 0};
Point(p15 + 29) = {26.60522848715991, -0.9648055551463049, 0};
Point(p15 + 30) = {26.704063, -0.972584, 0};
Point(p15 + 31) = {26.80289751284009, -0.9648055551463051, 0};
Point(p15 + 32) = {26.89929839196112, -0.9416617517126966, 0};
Point(p15 + 33) = {26.99089192778295, -0.9037224669495899, 0};
Point(p15 + 34) = {27.07542278347212, -0.85192189196112, 0};
Point(p15 + 35) = {27.15080952881976, -0.787535528819755, 0};
Point(p15 + 36) = {27.21519589196112, -0.7121487834721232, 0};
Point(p15 + 37) = {27.26699646694959, -0.627617927782947, 0};
Point(p15 + 38) = {27.3049357517127, -0.5360243919611201, 0};
Point(p15 + 39) = {27.32807955514631, -0.4396235128400928, 0};
Spline(15) = {11, p15 + 1, p15 + 2, p15 + 3, p15 + 4, p15 + 5, p15 + 6, p15 + 7, p15 + 8, p15 + 9, p15 + 10, p15 + 11, p15 + 12, p15 + 13, p15 + 14, p15 + 15, p15 + 16, p15 + 17, p15 + 18, p15 + 19, p15 + 20, p15 + 21, p15 + 22, p15 + 23, p15 + 24, p15 + 25, p15 + 26, p15 + 27, p15 + 28, p15 + 29, p15 + 30, p15 + 31, p15 + 32, p15 + 33, p15 + 34, p15 + 35, p15 + 36, p15 + 37, p15 + 38, p15 + 39, 11};
p16 = newp;
Point(p16 + 1) = {29.6783229156781, 4.320748738071295, 0};
Point(p16 + 2) = {29.64285319937221, 4.468490739245397, 0};
Point(p16 + 3) = {29.58470823321502, 4.608865105125809, 0};
Point(p16 + 4) = {29.5053197392454, 4.738415352948746, 0};
Point(p16 + 5) = {29.40664252566019, 4.853951525660186, 0};
Point(p16 + 6) = {29.29110635294875, 4.952628739245397, 0};
Point(p16 + 7) = {29.16155610512581, 5.032017233215016, 0};
Point(p16 + 8) = {29.0211817392454, 5.090162199372206, 0};
Point(p16 + 9) = {28.87343973807129, 5.125631915678098, 0};
Point(p16 + 10) = {28.721968, 5.137553, 0};
Point(p16 + 11) = {28.57049626192871, 5.125631915678097, 0};
Point(p16 + 12) = {28.4227542607546, 5.090162199372206, 0};
Point(p16 + 13) = {28.28237989487419, 5.032017233215016, 0};
Point(p16 + 14) = {28.15282964705125, 4.952628739245397, 0};
Point(p16 + 15) = {28.03729347433982, 4.853951525660186, 0};
Point(p16 + 16) = {27.9386162607546, 4.738415352948747, 0};
Point(p16 + 17) = {27.85922776678498, 4.60886510512581, 0};
Point(p16 + 18) = {27.80108280062779, 4.468490739245397, 0};
Point(p16 + 19) = {27.7656130843219, 4.320748738071295, 0};
Point(p16 + 20) = {27.753692, 4.169277, 0};
Point(p16 + 21) = {27.7656130843219, 4.017805261928705, 0};
Point(p16 + 22) = {27.80108280062779, 3.870063260754603, 0};
Point(p16 + 23) = {27.85922776678498, 3.729688894874191, 0};
Point(p16 + 24) = {27.9386162607546, 3.600138647051254, 0};
Point(p16 + 25) = {28.03729347433982, 3.484602474339815, 0};
Point(p16 + 26) = {28.15282964705125, 3.385925260754604, 0};
Point(p16 + 27) = {28.28237989487419, 3.306536766784984, 0};
Point(p16 + 28) = {28.4227542607546, 3.248391800627794, 0};
Point(p16 + 29) = {28.57049626192871, 3.212922084321903, 0};
Point(p16 + 30) = {28.721968, 3.201001, 0};
Point(p16 + 31) = {28.87343973807129, 3.212922084321903, 0};
Point(p16 + 32) = {29.0211817392454, 3.248391800627794, 0};
Point(p16 + 33) = {29.16155610512581, 3.306536766784984, 0};
Point(p16 + 34) = {29.29110635294875, 3.385925260754604, 0};
Point(p16 + 35) = {29.40664252566019, 3.484602474339814, 0};
Point(p16 + 36) = {29.5053197392454, 3.600138647051253, 0};
Point(p16 + 37) = {29.58470823321502, 3.729688894874191, 0};
Point(p16 + 38) = {29.64285319937221, 3.870063260754603, 0};
Point(p16 + 39) = {29.6783229156781, 4.017805261928705, 0};
Spline(16) = {12, p16 + 1, p16 + 2, p16 + 3, p16 + 4, p16 + 5, p16 + 6, p16 + 7, p16 + 8, p16 + 9, p16 + 10, p16 + 11, p16 + 12, p16 + 13, p16 + 14, p16 + 15, p16 + 16, p16 + 17, p16 + 18, p16 + 19, p16 + 20, p16 + 21, p16 + 22, p16 + 23, p16 + 24, p16 + 25, p16 + 26, p16 + 27, p16 + 28, p16 + 29, p16 + 30, p16 + 31, p16 + 32, p16 + 33, p16 + 34, p16 + 35, p16 + 36, p16 + 37, p16 + 38, p16 + 39, 12};
Line(17) = {11, 8};
Line(18) = {12, 9};
Curve Loop(1) = {-1, 4, 3, -2};
Plane Surface(1) = {1};
Curve Loop(2) = {-5, 1, 7, -6};
Plane Surface(2) = {2};
Curve Loop(3) = {-2, 7, 9, -8, -10, -11};
Plane Surface(3) = {3};
Curve Loop(4) = {-12, 3, 8, -13};
Plane Surface(4) = {4};
Curve Loop(5) = {-4, 5, 14, -12, -15, -16};
Plane Surface(5) = {5};
Curve Loop(6) = {-6, 14, 13, -9};
Plane Surface(6) = {6};
Curve Loop(7) = {-10, -17, 15, 17};
Surface(7) = {7};
Curve Loop(8) = {-11, -18, 16, 18};
Surface(8) = {8};
Surface Loop(1) = {1, 2, 3, 4, 5, 6, 7, 8};
Volume(1) = {1};
Physical Surface("INFLOW") = {1};
Physical Surface("OUTFLOW") = {6};
Physical Surface("OBSTACLE") = {7, 8};
Physical Surface("WALL_Y") = {2, 4};
Physical Surface("WALL_Z") = {3, 5};
Physical Volume("FLUID") = {1};
