cl__1 = 3.888489;
cl__2 = 0.503617;
cl__3 = 0.410525;
cl__4 = 0.08452900000000001;
cl__5 = 0.070089;
Point(1) = {0.298913, -3.938349, 1, cl__1};
Point(2) = {0.298913, -3.938349, 0, cl__1};
Point(3) = {0.298913, 5.341336999999999, 1, cl__1};
Point(4) = {0.298913, 5.341336999999999, 0, cl__1};
Point(5) = {38.607075, -3.938349, 0, cl__2};
Point(6) = {38.607075, -3.938349, 1, cl__2};
Point(7) = {38.607075, 5.341336999999999, 1, cl__3};
Point(8) = {24.942579, -1.943357, 1, cl__4};
Point(9) = {36.818274, 1.230331, 1, cl__5};
Point(10) = {38.607075, 5.341336999999999, 0, cl__3};
Point(11) = {24.942579, -1.943357, 0, cl__4};
Point(12) = {36.818274, 1.230331, 0, cl__5};
Line(1) = {2, 1};
Line(2) = {1, 3};
Line(3) = {4, 3};
Line(4) = {2, 4};
Line(5) = {2, 5};
Line(6) = {5, 6};
Line(7) = {1, 6};
Line(8) = {3, 7};
Line(9) = {6, 7};
p10 = newp;
Point(p10 + 1) = {24.93217202817502, -1.811123885308283, 1};
Point(p10 + 2) = {24.9012073668852, -1.682146788756823, 1};
Point(p10 + 3) = {24.85044746885728, -1.55960155451316, 1};
Point(p10 + 4) = {24.78114221124317, -1.446505652948686, 1};
Point(p10 + 5) = {24.6949981194963, -1.345643880503699, 1};
Point(p10 + 6) = {24.59413634705131, -1.259499788756823, 1};
Point(p10 + 7) = {24.48104044548684, -1.190194531142718, 1};
Point(p10 + 8) = {24.35849521124318, -1.139434633114805, 1};
Point(p10 + 9) = {24.22951811469172, -1.108469971824974, 1};
Point(p10 + 10) = {24.097285, -1.098063, 1};
Point(p10 + 11) = {23.96505188530828, -1.108469971824974, 1};
Point(p10 + 12) = {23.83607478875682, -1.139434633114804, 1};
Point(p10 + 13) = {23.71352955451316, -1.190194531142718, 1};
Point(p10 + 14) = {23.60043365294868, -1.259499788756823, 1};
Point(p10 + 15) = {23.4995718805037, -1.345643880503698, 1};
Point(p10 + 16) = {23.41342778875682, -1.446505652948686, 1};
Point(p10 + 17) = {23.34412253114272, -1.559601554513159, 1};
Point(p10 + 18) = {23.2933626331148, -1.682146788756823, 1};
Point(p10 + 19) = {23.26239797182497, -1.811123885308283, 1};
Point(p10 + 20) = {23.251991, -1.943357, 1};
Point(p10 + 21) = {23.26239797182497, -2.075590114691717, 1};
Point(p10 + 22) = {23.2933626331148, -2.204567211243177, 1};
Point(p10 + 23) = {23.34412253114272, -2.32711244548684, 1};
Point(p10 + 24) = {23.41342778875682, -2.440208347051314, 1};
Point(p10 + 25) = {23.4995718805037, -2.541070119496301, 1};
Point(p10 + 26) = {23.60043365294868, -2.627214211243177, 1};
Point(p10 + 27) = {23.71352955451316, -2.696519468857282, 1};
Point(p10 + 28) = {23.83607478875682, -2.747279366885195, 1};
Point(p10 + 29) = {23.96505188530828, -2.778244028175026, 1};
Point(p10 + 30) = {24.097285, -2.788651, 1};
Point(p10 + 31) = {24.22951811469171, -2.778244028175026, 1};
Point(p10 + 32) = {24.35849521124318, -2.747279366885196, 1};
Point(p10 + 33) = {24.48104044548684, -2.696519468857282, 1};
Point(p10 + 34) = {24.59413634705131, -2.627214211243177, 1};
Point(p10 + 35) = {24.6949981194963, -2.541070119496302, 1};
Point(p10 + 36) = {24.78114221124317, -2.440208347051314, 1};
Point(p10 + 37) = {24.85044746885728, -2.327112445486841, 1};
Point(p10 + 38) = {24.9012073668852, -2.204567211243177, 1};
Point(p10 + 39) = {24.93217202817502, -2.075590114691717, 1};
Spline(10) = {8, p10 + 1, p10 + 2, p10 + 3, p10 + 4, p10 + 5, p10 + 6, p10 + 7, p10 + 8, p10 + 9, p10 + 10, p10 + 11, p10 + 12, p10 + 13, p10 + 14, p10 + 15, p10 + 16, p10 + 17, p10 + 18, p10 + 19, p10 + 20, p10 + 21, p10 + 22, p10 + 23, p10 + 24, p10 + 25, p10 + 26, p10 + 27, p10 + 28, p10 + 29, p10 + 30, p10 + 31, p10 + 32, p10 + 33, p10 + 34, p10 + 35, p10 + 36, p10 + 37, p10 + 38, p10 + 39, 8};
p11 = newp;
Point(p11 + 1) = {36.80964489335138, 1.339974195767582, 1};
Point(p11 + 2) = {36.78397005064959, 1.446917612170463, 1};
Point(p11 + 3) = {36.74188167173186, 1.548527947371951, 1};
Point(p11 + 4) = {36.68441611217046, 1.642303217694019, 1};
Point(p11 + 5) = {36.61298836475905, 1.725934364759058, 1};
Point(p11 + 6) = {36.52935721769402, 1.797362112170463, 1};
Point(p11 + 7) = {36.43558194737195, 1.854827671731861, 1};
Point(p11 + 8) = {36.33397161217046, 1.896916050649594, 1};
Point(p11 + 9) = {36.22702819576758, 1.922590893351386, 1};
Point(p11 + 10) = {36.117385, 1.93122, 1};
Point(p11 + 11) = {36.00774180423242, 1.922590893351385, 1};
Point(p11 + 12) = {35.90079838782954, 1.896916050649594, 1};
Point(p11 + 13) = {35.79918805262805, 1.854827671731861, 1};
Point(p11 + 14) = {35.70541278230598, 1.797362112170463, 1};
Point(p11 + 15) = {35.62178163524094, 1.725934364759058, 1};
Point(p11 + 16) = {35.55035388782954, 1.642303217694019, 1};
Point(p11 + 17) = {35.49288832826814, 1.548527947371951, 1};
Point(p11 + 18) = {35.4507999493504, 1.446917612170463, 1};
Point(p11 + 19) = {35.42512510664861, 1.339974195767583, 1};
Point(p11 + 20) = {35.416496, 1.230331, 1};
Point(p11 + 21) = {35.42512510664861, 1.120687804232418, 1};
Point(p11 + 22) = {35.4507999493504, 1.013744387829537, 1};
Point(p11 + 23) = {35.49288832826814, 0.9121340526280493, 1};
Point(p11 + 24) = {35.55035388782954, 0.818358782305981, 1};
Point(p11 + 25) = {35.62178163524094, 0.734727635240942, 1};
Point(p11 + 26) = {35.70541278230598, 0.6632998878295376, 1};
Point(p11 + 27) = {35.79918805262805, 0.6058343282681392, 1};
Point(p11 + 28) = {35.90079838782954, 0.5637459493504062, 1};
Point(p11 + 29) = {36.00774180423242, 0.5380711066486147, 1};
Point(p11 + 30) = {36.117385, 0.5294420000000001, 1};
Point(p11 + 31) = {36.22702819576758, 0.5380711066486146, 1};
Point(p11 + 32) = {36.33397161217046, 0.5637459493504061, 1};
Point(p11 + 33) = {36.43558194737195, 0.6058343282681391, 1};
Point(p11 + 34) = {36.52935721769402, 0.6632998878295374, 1};
Point(p11 + 35) = {36.61298836475905, 0.7347276352409419, 1};
Point(p11 + 36) = {36.68441611217046, 0.8183587823059807, 1};
Point(p11 + 37) = {36.74188167173186, 0.9121340526280488, 1};
Point(p11 + 38) = {36.78397005064959, 1.013744387829537, 1};
Point(p11 + 39) = {36.80964489335138, 1.120687804232418, 1};
Spline(11) = {9, p11 + 1, p11 + 2, p11 + 3, p11 + 4, p11 + 5, p11 + 6, p11 + 7, p11 + 8, p11 + 9, p11 + 10, p11 + 11, p11 + 12, p11 + 13, p11 + 14, p11 + 15, p11 + 16, p11 + 17, p11 + 18, p11 + 19, p11 + 20, p11 + 21, p11 + 22, p11 + 23, p11 + 24, p11 + 25, p11 + 26, p11 + 27, p11 + 28, p11 + 29, p11 + 30, p11 + 31, p11 + 32, p11 + 33, p11 + 34, p11 + 35, p11 + 36, p11 + 37, p11 + 38, p11 + 39, 9};
Line(12) = {4, 10};
Line(13) = {10, 7};
Line(14) = {5, 10};
p15 = newp;
Point(p15 + 1) = {24.93217202817502, -1.811123885308283, 0};
Point(p15 + 2) = {24.9012073668852, -1.682146788756823, 0};
Point(p15 + 3) = {24.85044746885728, -1.55960155451316, 0};
Point(p15 + 4) = {24.78114221124317, -1.446505652948686, 0};
Point(p15 + 5) = {24.6949981194963, -1.345643880503699, 0};
Point(p15 + 6) = {24.59413634705131, -1.259499788756823, 0};
Point(p15 + 7) = {24.48104044548684, -1.190194531142718, 0};
Point(p15 + 8) = {24.35849521124318, -1.139434633114805, 0};
Point(p15 + 9) = {24.22951811469172, -1.108469971824974, 0};
Point(p15 + 10) = {24.097285, -1.098063, 0};
Point(p15 + 11) = {23.96505188530828, -1.108469971824974, 0};
Point(p15 + 12) = {23.83607478875682, -1.139434633114804, 0};
Point(p15 + 13) = {23.71352955451316, -1.190194531142718, 0};
Point(p15 + 14) = {23.60043365294868, -1.259499788756823, 0};
Point(p15 + 15) = {23.4995718805037, -1.345643880503698, 0};
Point(p15 + 16) = {23.41342778875682, -1.446505652948686, 0};
Point(p15 + 17) = {23.34412253114272, -1.559601554513159, 0};
Point(p15 + 18) = {23.2933626331148, -1.682146788756823, 0};
Point(p15 + 19) = {23.26239797182497, -1.811123885308283, 0};
Point(p15 + 20) = {23.251991, -1.943357, 0};
Point(p15 + 21) = {23.26239797182497, -2.075590114691717, 0};
Point(p15 + 22) = {23.2933626331148, -2.204567211243177, 0};
Point(p15 + 23) = {23.34412253114272, -2.32711244548684, 0};
Point(p15 + 24) = {23.41342778875682, -2.440208347051314, 0};
Point(p15 + 25) = {23.4995718805037, -2.541070119496301, 0};
Point(p15 + 26) = {23.60043365294868, -2.627214211243177, 0};
Point(p15 + 27) = {23.71352955451316, -2.696519468857282, 0};
Point(p15 + 28) = {23.83607478875682, -2.747279366885195, 0};
Point(p15 + 29) = {23.96505188530828, -2.778244028175026, 0};
Point(p15 + 30) = {24.097285, -2.788651, 0};
Point(p15 + 31) = {24.22951811469171, -2.778244028175026, 0};
Point(p15 + 32) = {24.35849521124318, -2.747279366885196, 0};
Point(p15 + 33) = {24.48104044548684, -2.696519468857282, 0};
Point(p15 + 34) = {24.59413634705131, -2.627214211243177, 0};
Point(p15 + 35) = {24.6949981194963, -2.541070119496302, 0};
Point(p15 + 36) = {24.78114221124317, -2.440208347051314, 0};
Point(p15 + 37) = {24.85044746885728, -2.327112445486841, 0};
Point(p15 + 38) = {24.9012073668852, -2.204567211243177, 0};
Point(p15 + 39) = {24.93217202817502, -2.075590114691717, 0};
Spline(15) = {11, p15 + 1, p15 + 2, p15 + 3, p15 + 4, p15 + 5, p15 + 6, p15 + 7, p15 + 8, p15 + 9, p15 + 10, p15 + 11, p15 + 12, p15 + 13, p15 + 14, p15 + 15, p15 + 16, p15 + 17, p15 + 18, p15 + 19, p15 + 20, p15 + 21, p15 + 22, p15 + 23, p15 + 24, p15 + 25, p15 + 26, p15 + 27, p15 + 28, p15 + 29, p15 + 30, p15 + 31, p15 + 32, p15 + 33, p15 + 34, p15 + 35, p15 + 36, p15 + 37, p15 + 38, p15 + 39, 11};
p16 = newp;
Point(p16 + 1) = {36.80964489335138, 1.339974195767582, 0};
Point(p16 + 2) = {36.78397005064959, 1.446917612170463, 0};
Point(p16 + 3) = {36.74188167173186, 1.548527947371951, 0};
Point(p16 + 4) = {36.68441611217046, 1.642303217694019, 0};
Point(p16 + 5) = {36.61298836475905, 1.725934364759058, 0};
Point(p16 + 6) = {36.52935721769402, 1.797362112170463, 0};
Point(p16 + 7) = {36.43558194737195, 1.854827671731861, 0};
Point(p16 + 8) = {36.33397161217046, 1.896916050649594, 0};
Point(p16 + 9) = {36.22702819576758, 1.922590893351386, 0};
Point(p16 + 10) = {36.117385, 1.93122, 0};
Point(p16 + 11) = {36.00774180423242, 1.922590893351385, 0};
Point(p16 + 12) = {35.90079838782954, 1.896916050649594, 0};
Point(p16 + 13) = {35.79918805262805, 1.854827671731861, 0};
Point(p16 + 14) = {35.70541278230598, 1.797362112170463, 0};
Point(p16 + 15) = {35.62178163524094, 1.725934364759058, 0};
Point(p16 + 16) = {35.55035388782954, 1.642303217694019, 0};
Point(p16 + 17) = {35.49288832826814, 1.548527947371951, 0};
Point(p16 + 18) = {35.4507999493504, 1.446917612170463, 0};
Point(p16 + 19) = {35.42512510664861, 1.339974195767583, 0};
Point(p16 + 20) = {35.416496, 1.230331, 0};
Point(p16 + 21) = {35.42512510664861, 1.120687804232418, 0};
Point(p16 + 22) = {35.4507999493504, 1.013744387829537, 0};
Point(p16 + 23) = {35.49288832826814, 0.9121340526280493, 0};
Point(p16 + 24) = {35.55035388782954, 0.818358782305981, 0};
Point(p16 + 25) = {35.62178163524094, 0.734727635240942, 0};
Point(p16 + 26) = {35.70541278230598, 0.6632998878295376, 0};
Point(p16 + 27) = {35.79918805262805, 0.6058343282681392, 0};
Point(p16 + 28) = {35.90079838782954, 0.5637459493504062, 0};
Point(p16 + 29) = {36.00774180423242, 0.5380711066486147, 0};
Point(p16 + 30) = {36.117385, 0.5294420000000001, 0};
Point(p16 + 31) = {36.22702819576758, 0.5380711066486146, 0};
Point(p16 + 32) = {36.33397161217046, 0.5637459493504061, 0};
Point(p16 + 33) = {36.43558194737195, 0.6058343282681391, 0};
Point(p16 + 34) = {36.52935721769402, 0.6632998878295374, 0};
Point(p16 + 35) = {36.61298836475905, 0.7347276352409419, 0};
Point(p16 + 36) = {36.68441611217046, 0.8183587823059807, 0};
Point(p16 + 37) = {36.74188167173186, 0.9121340526280488, 0};
Point(p16 + 38) = {36.78397005064959, 1.013744387829537, 0};
Point(p16 + 39) = {36.80964489335138, 1.120687804232418, 0};
Spline(16) = {12, p16 + 1, p16 + 2, p16 + 3, p16 + 4, p16 + 5, p16 + 6, p16 + 7, p16 + 8, p16 + 9, p16 + 10, p16 + 11, p16 + 12, p16 + 13, p16 + 14, p16 + 15, p16 + 16, p16 + 17, p16 + 18, p16 + 19, p16 + 20, p16 + 21, p16 + 22, p16 + 23, p16 + 24, p16 + 25, p16 + 26, p16 + 27, p16 + 28, p16 + 29, p16 + 30, p16 + 31, p16 + 32, p16 + 33, p16 + 34, p16 + 35, p16 + 36, p16 + 37, p16 + 38, p16 + 39, 12};
Line(17) = {11, 8};
Line(18) = {12, 9};
Curve Loop(1) = {-1, 4, 3, -2};
Plane Surface(1) = {1};
Curve Loop(2) = {-5, 1, 7, -6};
Plane Surface(2) = {2};
Curve Loop(3) = {-2, 7, 9, -8, -10, -11};
Plane Surface(3) = {3};
Curve Loop(4) = {-12, 3, 8, -13};
Plane Surface(4) = {4};
Curve Loop(5) = {-4, 5, 14, -12, -15, -16};
Plane Surface(5) = {5};
Curve Loop(6) = {-6, 14, 13, -9};
Plane Surface(6) = {6};
Curve Loop(7) = {-10, -17, 15, 17};
Surface(7) = {7};
Curve Loop(8) = {-11, -18, 16, 18};
Surface(8) = {8};
Surface Loop(1) = {1, 2, 3, 4, 5, 6, 7, 8};
Volume(1) = {1};
Physical Surface("INFLOW") = {1};
Physical Surface("OUTFLOW") = {6};
Physical Surface("OBSTACLE") = {7, 8};
Physical Surface("WALL_Y") = {2, 4};
Physical Surface("WALL_Z") = {3, 5};
Physical Volume("FLUID") = {1};
