cl__1 = 0.844183;
cl__2 = 0.893155;
cl__3 = 1.239479;
cl__4 = 1.678689;
cl__5 = 0.07897800000000001;
cl__6 = 0.109513;
Point(1) = {0.041182, -3.838072, 1, cl__1};
Point(2) = {0.041182, -3.838072, 0, cl__1};
Point(3) = {0.041182, 4.917932, 1, cl__2};
Point(4) = {0.041182, 4.917932, 0, cl__2};
Point(5) = {31.4958, -3.838072, 0, cl__3};
Point(6) = {31.4958, -3.838072, 1, cl__3};
Point(7) = {31.4958, 4.917932, 1, cl__4};
Point(8) = {16.686638, -2.433419, 1, cl__5};
Point(9) = {13.469287, -0.4761840000000002, 1, cl__6};
Point(10) = {31.4958, 4.917932, 0, cl__4};
Point(11) = {16.686638, -2.433419, 0, cl__5};
Point(12) = {13.469287, -0.4761840000000002, 0, cl__6};
Line(1) = {2, 1};
Line(2) = {1, 3};
Line(3) = {4, 3};
Line(4) = {2, 4};
Line(5) = {2, 5};
Line(6) = {5, 6};
Line(7) = {1, 6};
Line(8) = {3, 7};
Line(9) = {6, 7};
p10 = newp;
Point(p10 + 1) = {16.67691446070025, -2.309869718897132, 1};
Point(p10 + 2) = {16.64798326860913, -2.189362631131571, 1};
Point(p10 + 3) = {16.60055680569306, -2.074865021144202, 1};
Point(p10 + 4) = {16.53580286886843, -1.969196200088694, 1};
Point(p10 + 5) = {16.45531591496585, -1.874958085034145, 1};
Point(p10 + 6) = {16.36107779991131, -1.794471131131571, 1};
Point(p10 + 7) = {16.2554089788558, -1.729717194306938, 1};
Point(p10 + 8) = {16.14091136886843, -1.682290731390865, 1};
Point(p10 + 9) = {16.02040428110287, -1.653359539299751, 1};
Point(p10 + 10) = {15.896855, -1.643636, 1};
Point(p10 + 11) = {15.77330571889713, -1.653359539299751, 1};
Point(p10 + 12) = {15.65279863113157, -1.682290731390865, 1};
Point(p10 + 13) = {15.5383010211442, -1.729717194306938, 1};
Point(p10 + 14) = {15.43263220008869, -1.794471131131571, 1};
Point(p10 + 15) = {15.33839408503415, -1.874958085034145, 1};
Point(p10 + 16) = {15.25790713113157, -1.969196200088694, 1};
Point(p10 + 17) = {15.19315319430694, -2.074865021144202, 1};
Point(p10 + 18) = {15.14572673139087, -2.189362631131571, 1};
Point(p10 + 19) = {15.11679553929975, -2.309869718897132, 1};
Point(p10 + 20) = {15.107072, -2.433419, 1};
Point(p10 + 21) = {15.11679553929975, -2.556968281102869, 1};
Point(p10 + 22) = {15.14572673139087, -2.677475368868429, 1};
Point(p10 + 23) = {15.19315319430694, -2.791972978855798, 1};
Point(p10 + 24) = {15.25790713113157, -2.897641799911306, 1};
Point(p10 + 25) = {15.33839408503415, -2.991879914965855, 1};
Point(p10 + 26) = {15.43263220008869, -3.072366868868429, 1};
Point(p10 + 27) = {15.5383010211442, -3.137120805693062, 1};
Point(p10 + 28) = {15.65279863113157, -3.184547268609136, 1};
Point(p10 + 29) = {15.77330571889713, -3.21347846070025, 1};
Point(p10 + 30) = {15.896855, -3.223202, 1};
Point(p10 + 31) = {16.02040428110287, -3.21347846070025, 1};
Point(p10 + 32) = {16.14091136886843, -3.184547268609136, 1};
Point(p10 + 33) = {16.2554089788558, -3.137120805693062, 1};
Point(p10 + 34) = {16.36107779991131, -3.072366868868429, 1};
Point(p10 + 35) = {16.45531591496585, -2.991879914965855, 1};
Point(p10 + 36) = {16.53580286886843, -2.897641799911307, 1};
Point(p10 + 37) = {16.60055680569306, -2.791972978855799, 1};
Point(p10 + 38) = {16.64798326860913, -2.677475368868429, 1};
Point(p10 + 39) = {16.67691446070025, -2.556968281102869, 1};
Spline(10) = {8, p10 + 1, p10 + 2, p10 + 3, p10 + 4, p10 + 5, p10 + 6, p10 + 7, p10 + 8, p10 + 9, p10 + 10, p10 + 11, p10 + 12, p10 + 13, p10 + 14, p10 + 15, p10 + 16, p10 + 17, p10 + 18, p10 + 19, p10 + 20, p10 + 21, p10 + 22, p10 + 23, p10 + 24, p10 + 25, p10 + 26, p10 + 27, p10 + 28, p10 + 29, p10 + 30, p10 + 31, p10 + 32, p10 + 33, p10 + 34, p10 + 35, p10 + 36, p10 + 37, p10 + 38, p10 + 39, 8};
p11 = newp;
Point(p11 + 1) = {13.45580410781263, -0.3048676114315619, 1};
Point(p11 + 2) = {13.41568742480334, -0.1377696009161751, 1};
Point(p11 + 3) = {13.34992475684746, 0.02099552396076931, 1};
Point(p11 + 4) = {13.26013539908383, 0.1675184389135607, 1};
Point(p11 + 5) = {13.14853026349439, 0.2981912634943861, 1};
Point(p11 + 6) = {13.01785743891356, 0.409796399083825, 1};
Point(p11 + 7) = {12.87133452396077, 0.4995857568474556, 1};
Point(p11 + 8) = {12.71256939908383, 0.5653484248033442, 1};
Point(p11 + 9) = {12.54547138856844, 0.6054651078126345, 1};
Point(p11 + 10) = {12.374155, 0.6189480000000001, 1};
Point(p11 + 11) = {12.20283861143156, 0.6054651078126343, 1};
Point(p11 + 12) = {12.03574060091618, 0.5653484248033442, 1};
Point(p11 + 13) = {11.87697547603923, 0.4995857568474557, 1};
Point(p11 + 14) = {11.73045256108644, 0.409796399083825, 1};
Point(p11 + 15) = {11.59977973650561, 0.2981912634943862, 1};
Point(p11 + 16) = {11.48817460091617, 0.1675184389135608, 1};
Point(p11 + 17) = {11.39838524315254, 0.02099552396076942, 1};
Point(p11 + 18) = {11.33262257519666, -0.137769600916175, 1};
Point(p11 + 19) = {11.29250589218737, -0.3048676114315618, 1};
Point(p11 + 20) = {11.279023, -0.4761839999999999, 1};
Point(p11 + 21) = {11.29250589218737, -0.6475003885684379, 1};
Point(p11 + 22) = {11.33262257519666, -0.8145983990838253, 1};
Point(p11 + 23) = {11.39838524315254, -0.9733635239607688, 1};
Point(p11 + 24) = {11.48817460091617, -1.119886438913561, 1};
Point(p11 + 25) = {11.59977973650561, -1.250559263494386, 1};
Point(p11 + 26) = {11.73045256108644, -1.362164399083825, 1};
Point(p11 + 27) = {11.87697547603923, -1.451953756847456, 1};
Point(p11 + 28) = {12.03574060091617, -1.517716424803344, 1};
Point(p11 + 29) = {12.20283861143156, -1.557833107812634, 1};
Point(p11 + 30) = {12.374155, -1.571316, 1};
Point(p11 + 31) = {12.54547138856844, -1.557833107812634, 1};
Point(p11 + 32) = {12.71256939908382, -1.517716424803344, 1};
Point(p11 + 33) = {12.87133452396077, -1.451953756847456, 1};
Point(p11 + 34) = {13.01785743891356, -1.362164399083825, 1};
Point(p11 + 35) = {13.14853026349439, -1.250559263494386, 1};
Point(p11 + 36) = {13.26013539908383, -1.119886438913561, 1};
Point(p11 + 37) = {13.34992475684746, -0.9733635239607695, 1};
Point(p11 + 38) = {13.41568742480334, -0.8145983990838251, 1};
Point(p11 + 39) = {13.45580410781263, -0.6475003885684384, 1};
Spline(11) = {9, p11 + 1, p11 + 2, p11 + 3, p11 + 4, p11 + 5, p11 + 6, p11 + 7, p11 + 8, p11 + 9, p11 + 10, p11 + 11, p11 + 12, p11 + 13, p11 + 14, p11 + 15, p11 + 16, p11 + 17, p11 + 18, p11 + 19, p11 + 20, p11 + 21, p11 + 22, p11 + 23, p11 + 24, p11 + 25, p11 + 26, p11 + 27, p11 + 28, p11 + 29, p11 + 30, p11 + 31, p11 + 32, p11 + 33, p11 + 34, p11 + 35, p11 + 36, p11 + 37, p11 + 38, p11 + 39, 9};
Line(12) = {4, 10};
Line(13) = {10, 7};
Line(14) = {5, 10};
p15 = newp;
Point(p15 + 1) = {16.67691446070025, -2.309869718897132, 0};
Point(p15 + 2) = {16.64798326860913, -2.189362631131571, 0};
Point(p15 + 3) = {16.60055680569306, -2.074865021144202, 0};
Point(p15 + 4) = {16.53580286886843, -1.969196200088694, 0};
Point(p15 + 5) = {16.45531591496585, -1.874958085034145, 0};
Point(p15 + 6) = {16.36107779991131, -1.794471131131571, 0};
Point(p15 + 7) = {16.2554089788558, -1.729717194306938, 0};
Point(p15 + 8) = {16.14091136886843, -1.682290731390865, 0};
Point(p15 + 9) = {16.02040428110287, -1.653359539299751, 0};
Point(p15 + 10) = {15.896855, -1.643636, 0};
Point(p15 + 11) = {15.77330571889713, -1.653359539299751, 0};
Point(p15 + 12) = {15.65279863113157, -1.682290731390865, 0};
Point(p15 + 13) = {15.5383010211442, -1.729717194306938, 0};
Point(p15 + 14) = {15.43263220008869, -1.794471131131571, 0};
Point(p15 + 15) = {15.33839408503415, -1.874958085034145, 0};
Point(p15 + 16) = {15.25790713113157, -1.969196200088694, 0};
Point(p15 + 17) = {15.19315319430694, -2.074865021144202, 0};
Point(p15 + 18) = {15.14572673139087, -2.189362631131571, 0};
Point(p15 + 19) = {15.11679553929975, -2.309869718897132, 0};
Point(p15 + 20) = {15.107072, -2.433419, 0};
Point(p15 + 21) = {15.11679553929975, -2.556968281102869, 0};
Point(p15 + 22) = {15.14572673139087, -2.677475368868429, 0};
Point(p15 + 23) = {15.19315319430694, -2.791972978855798, 0};
Point(p15 + 24) = {15.25790713113157, -2.897641799911306, 0};
Point(p15 + 25) = {15.33839408503415, -2.991879914965855, 0};
Point(p15 + 26) = {15.43263220008869, -3.072366868868429, 0};
Point(p15 + 27) = {15.5383010211442, -3.137120805693062, 0};
Point(p15 + 28) = {15.65279863113157, -3.184547268609136, 0};
Point(p15 + 29) = {15.77330571889713, -3.21347846070025, 0};
Point(p15 + 30) = {15.896855, -3.223202, 0};
Point(p15 + 31) = {16.02040428110287, -3.21347846070025, 0};
Point(p15 + 32) = {16.14091136886843, -3.184547268609136, 0};
Point(p15 + 33) = {16.2554089788558, -3.137120805693062, 0};
Point(p15 + 34) = {16.36107779991131, -3.072366868868429, 0};
Point(p15 + 35) = {16.45531591496585, -2.991879914965855, 0};
Point(p15 + 36) = {16.53580286886843, -2.897641799911307, 0};
Point(p15 + 37) = {16.60055680569306, -2.791972978855799, 0};
Point(p15 + 38) = {16.64798326860913, -2.677475368868429, 0};
Point(p15 + 39) = {16.67691446070025, -2.556968281102869, 0};
Spline(15) = {11, p15 + 1, p15 + 2, p15 + 3, p15 + 4, p15 + 5, p15 + 6, p15 + 7, p15 + 8, p15 + 9, p15 + 10, p15 + 11, p15 + 12, p15 + 13, p15 + 14, p15 + 15, p15 + 16, p15 + 17, p15 + 18, p15 + 19, p15 + 20, p15 + 21, p15 + 22, p15 + 23, p15 + 24, p15 + 25, p15 + 26, p15 + 27, p15 + 28, p15 + 29, p15 + 30, p15 + 31, p15 + 32, p15 + 33, p15 + 34, p15 + 35, p15 + 36, p15 + 37, p15 + 38, p15 + 39, 11};
p16 = newp;
Point(p16 + 1) = {13.45580410781263, -0.3048676114315619, 0};
Point(p16 + 2) = {13.41568742480334, -0.1377696009161751, 0};
Point(p16 + 3) = {13.34992475684746, 0.02099552396076931, 0};
Point(p16 + 4) = {13.26013539908383, 0.1675184389135607, 0};
Point(p16 + 5) = {13.14853026349439, 0.2981912634943861, 0};
Point(p16 + 6) = {13.01785743891356, 0.409796399083825, 0};
Point(p16 + 7) = {12.87133452396077, 0.4995857568474556, 0};
Point(p16 + 8) = {12.71256939908383, 0.5653484248033442, 0};
Point(p16 + 9) = {12.54547138856844, 0.6054651078126345, 0};
Point(p16 + 10) = {12.374155, 0.6189480000000001, 0};
Point(p16 + 11) = {12.20283861143156, 0.6054651078126343, 0};
Point(p16 + 12) = {12.03574060091618, 0.5653484248033442, 0};
Point(p16 + 13) = {11.87697547603923, 0.4995857568474557, 0};
Point(p16 + 14) = {11.73045256108644, 0.409796399083825, 0};
Point(p16 + 15) = {11.59977973650561, 0.2981912634943862, 0};
Point(p16 + 16) = {11.48817460091617, 0.1675184389135608, 0};
Point(p16 + 17) = {11.39838524315254, 0.02099552396076942, 0};
Point(p16 + 18) = {11.33262257519666, -0.137769600916175, 0};
Point(p16 + 19) = {11.29250589218737, -0.3048676114315618, 0};
Point(p16 + 20) = {11.279023, -0.4761839999999999, 0};
Point(p16 + 21) = {11.29250589218737, -0.6475003885684379, 0};
Point(p16 + 22) = {11.33262257519666, -0.8145983990838253, 0};
Point(p16 + 23) = {11.39838524315254, -0.9733635239607688, 0};
Point(p16 + 24) = {11.48817460091617, -1.119886438913561, 0};
Point(p16 + 25) = {11.59977973650561, -1.250559263494386, 0};
Point(p16 + 26) = {11.73045256108644, -1.362164399083825, 0};
Point(p16 + 27) = {11.87697547603923, -1.451953756847456, 0};
Point(p16 + 28) = {12.03574060091617, -1.517716424803344, 0};
Point(p16 + 29) = {12.20283861143156, -1.557833107812634, 0};
Point(p16 + 30) = {12.374155, -1.571316, 0};
Point(p16 + 31) = {12.54547138856844, -1.557833107812634, 0};
Point(p16 + 32) = {12.71256939908382, -1.517716424803344, 0};
Point(p16 + 33) = {12.87133452396077, -1.451953756847456, 0};
Point(p16 + 34) = {13.01785743891356, -1.362164399083825, 0};
Point(p16 + 35) = {13.14853026349439, -1.250559263494386, 0};
Point(p16 + 36) = {13.26013539908383, -1.119886438913561, 0};
Point(p16 + 37) = {13.34992475684746, -0.9733635239607695, 0};
Point(p16 + 38) = {13.41568742480334, -0.8145983990838251, 0};
Point(p16 + 39) = {13.45580410781263, -0.6475003885684384, 0};
Spline(16) = {12, p16 + 1, p16 + 2, p16 + 3, p16 + 4, p16 + 5, p16 + 6, p16 + 7, p16 + 8, p16 + 9, p16 + 10, p16 + 11, p16 + 12, p16 + 13, p16 + 14, p16 + 15, p16 + 16, p16 + 17, p16 + 18, p16 + 19, p16 + 20, p16 + 21, p16 + 22, p16 + 23, p16 + 24, p16 + 25, p16 + 26, p16 + 27, p16 + 28, p16 + 29, p16 + 30, p16 + 31, p16 + 32, p16 + 33, p16 + 34, p16 + 35, p16 + 36, p16 + 37, p16 + 38, p16 + 39, 12};
Line(17) = {11, 8};
Line(18) = {12, 9};
Curve Loop(1) = {-1, 4, 3, -2};
Plane Surface(1) = {1};
Curve Loop(2) = {-5, 1, 7, -6};
Plane Surface(2) = {2};
Curve Loop(3) = {-2, 7, 9, -8, -10, -11};
Plane Surface(3) = {3};
Curve Loop(4) = {-12, 3, 8, -13};
Plane Surface(4) = {4};
Curve Loop(5) = {-4, 5, 14, -12, -15, -16};
Plane Surface(5) = {5};
Curve Loop(6) = {-6, 14, 13, -9};
Plane Surface(6) = {6};
Curve Loop(7) = {-10, -17, 15, 17};
Surface(7) = {7};
Curve Loop(8) = {-11, -18, 16, 18};
Surface(8) = {8};
Surface Loop(1) = {1, 2, 3, 4, 5, 6, 7, 8};
Volume(1) = {1};
Physical Surface("INFLOW") = {1};
Physical Surface("OUTFLOW") = {6};
Physical Surface("OBSTACLE") = {7, 8};
Physical Surface("WALL_Y") = {2, 4};
Physical Surface("WALL_Z") = {3, 5};
Physical Volume("FLUID") = {1};
