cl__1 = 0.5382479999999999;
cl__2 = 0.400782;
cl__3 = 3.706133;
cl__4 = 3.466506;
cl__5 = 0.07503899999999999;
cl__6 = 0.063191;
Point(1) = {0.857652, -4.506254, 1, cl__1};
Point(2) = {0.857652, -4.506254, 0, cl__1};
Point(3) = {0.857652, 5.388825000000001, 1, cl__2};
Point(4) = {0.857652, 5.388825000000001, 0, cl__2};
Point(5) = {30.00676, -4.506254, 0, cl__3};
Point(6) = {30.00676, -4.506254, 1, cl__3};
Point(7) = {30.00676, 5.388825000000001, 1, cl__4};
Point(8) = {8.972825, 1.52966, 1, cl__5};
Point(9) = {6.702827, 1.866132, 1, cl__6};
Point(10) = {30.00676, 5.388825000000001, 0, cl__4};
Point(11) = {8.972825, 1.52966, 0, cl__5};
Point(12) = {6.702827, 1.866132, 0, cl__6};
Line(1) = {2, 1};
Line(2) = {1, 3};
Line(3) = {4, 3};
Line(4) = {2, 4};
Line(5) = {2, 5};
Line(6) = {5, 6};
Line(7) = {1, 6};
Line(8) = {3, 7};
Line(9) = {6, 7};
p10 = newp;
Point(p10 + 1) = {8.963586466210845, 1.647046701787074, 1};
Point(p10 + 2) = {8.936098348206205, 1.761542953392022, 1};
Point(p10 + 3) = {8.891037494679185, 1.870329477109059, 1};
Point(p10 + 4) = {8.829513453392023, 1.970727587682497, 1};
Point(p10 + 5) = {8.753041150427793, 2.060265150427792, 1};
Point(p10 + 6) = {8.663503587682497, 2.136737453392023, 1};
Point(p10 + 7) = {8.563105477109058, 2.198261494679185, 1};
Point(p10 + 8) = {8.454318953392022, 2.243322348206204, 1};
Point(p10 + 9) = {8.339822701787075, 2.270810466210845, 1};
Point(p10 + 10) = {8.222436, 2.280049, 1};
Point(p10 + 11) = {8.105049298212926, 2.270810466210845, 1};
Point(p10 + 12) = {7.990553046607978, 2.243322348206204, 1};
Point(p10 + 13) = {7.881766522890941, 2.198261494679185, 1};
Point(p10 + 14) = {7.781368412317503, 2.136737453392023, 1};
Point(p10 + 15) = {7.691830849572208, 2.060265150427792, 1};
Point(p10 + 16) = {7.615358546607978, 1.970727587682497, 1};
Point(p10 + 17) = {7.553834505320815, 1.870329477109059, 1};
Point(p10 + 18) = {7.508773651793796, 1.761542953392023, 1};
Point(p10 + 19) = {7.481285533789156, 1.647046701787074, 1};
Point(p10 + 20) = {7.472047, 1.52966, 1};
Point(p10 + 21) = {7.481285533789155, 1.412273298212926, 1};
Point(p10 + 22) = {7.508773651793796, 1.297777046607977, 1};
Point(p10 + 23) = {7.553834505320815, 1.188990522890942, 1};
Point(p10 + 24) = {7.615358546607977, 1.088592412317503, 1};
Point(p10 + 25) = {7.691830849572208, 0.9990548495722079, 1};
Point(p10 + 26) = {7.781368412317503, 0.9225825466079777, 1};
Point(p10 + 27) = {7.881766522890941, 0.861058505320815, 1};
Point(p10 + 28) = {7.990553046607977, 0.8159976517937961, 1};
Point(p10 + 29) = {8.105049298212926, 0.7885095337891553, 1};
Point(p10 + 30) = {8.222436, 0.779271, 1};
Point(p10 + 31) = {8.339822701787075, 0.7885095337891552, 1};
Point(p10 + 32) = {8.454318953392022, 0.815997651793796, 1};
Point(p10 + 33) = {8.563105477109058, 0.8610585053208148, 1};
Point(p10 + 34) = {8.663503587682497, 0.9225825466079776, 1};
Point(p10 + 35) = {8.753041150427793, 0.9990548495722077, 1};
Point(p10 + 36) = {8.829513453392023, 1.088592412317503, 1};
Point(p10 + 37) = {8.891037494679185, 1.188990522890941, 1};
Point(p10 + 38) = {8.936098348206205, 1.297777046607977, 1};
Point(p10 + 39) = {8.963586466210845, 1.412273298212926, 1};
Spline(10) = {8, p10 + 1, p10 + 2, p10 + 3, p10 + 4, p10 + 5, p10 + 6, p10 + 7, p10 + 8, p10 + 9, p10 + 10, p10 + 11, p10 + 12, p10 + 13, p10 + 14, p10 + 15, p10 + 16, p10 + 17, p10 + 18, p10 + 19, p10 + 20, p10 + 21, p10 + 22, p10 + 23, p10 + 24, p10 + 25, p10 + 26, p10 + 27, p10 + 28, p10 + 29, p10 + 30, p10 + 31, p10 + 32, p10 + 33, p10 + 34, p10 + 35, p10 + 36, p10 + 37, p10 + 38, p10 + 39, 8};
p11 = newp;
Point(p11 + 1) = {6.695047102370495, 1.964984972106967, 1};
Point(p11 + 2) = {6.67189897638162, 2.061403855966456, 1};
Point(p11 + 3) = {6.633952605719444, 2.153014498661916, 1};
Point(p11 + 4) = {6.582142355966456, 2.237561142131893, 1};
Point(p11 + 5) = {6.517743967419935, 2.312961967419935, 1};
Point(p11 + 6) = {6.442343142131894, 2.377360355966456, 1};
Point(p11 + 7) = {6.357796498661917, 2.429170605719444, 1};
Point(p11 + 8) = {6.266185855966456, 2.467116976381619, 1};
Point(p11 + 9) = {6.169766972106967, 2.490265102370495, 1};
Point(p11 + 10) = {6.070914, 2.498045, 1};
Point(p11 + 11) = {5.972061027893033, 2.490265102370495, 1};
Point(p11 + 12) = {5.875642144033544, 2.467116976381619, 1};
Point(p11 + 13) = {5.784031501338084, 2.429170605719444, 1};
Point(p11 + 14) = {5.699484857868106, 2.377360355966456, 1};
Point(p11 + 15) = {5.624084032580066, 2.312961967419935, 1};
Point(p11 + 16) = {5.559685644033544, 2.237561142131893, 1};
Point(p11 + 17) = {5.507875394280556, 2.153014498661916, 1};
Point(p11 + 18) = {5.469929023618381, 2.061403855966456, 1};
Point(p11 + 19) = {5.446780897629505, 1.964984972106967, 1};
Point(p11 + 20) = {5.439001, 1.866132, 1};
Point(p11 + 21) = {5.446780897629505, 1.767279027893033, 1};
Point(p11 + 22) = {5.469929023618381, 1.670860144033544, 1};
Point(p11 + 23) = {5.507875394280556, 1.579249501338084, 1};
Point(p11 + 24) = {5.559685644033544, 1.494702857868107, 1};
Point(p11 + 25) = {5.624084032580066, 1.419302032580065, 1};
Point(p11 + 26) = {5.699484857868106, 1.354903644033544, 1};
Point(p11 + 27) = {5.784031501338084, 1.303093394280556, 1};
Point(p11 + 28) = {5.875642144033544, 1.265147023618381, 1};
Point(p11 + 29) = {5.972061027893033, 1.241998897629505, 1};
Point(p11 + 30) = {6.070914, 1.234219, 1};
Point(p11 + 31) = {6.169766972106967, 1.241998897629505, 1};
Point(p11 + 32) = {6.266185855966456, 1.26514702361838, 1};
Point(p11 + 33) = {6.357796498661917, 1.303093394280556, 1};
Point(p11 + 34) = {6.442343142131894, 1.354903644033544, 1};
Point(p11 + 35) = {6.517743967419935, 1.419302032580065, 1};
Point(p11 + 36) = {6.582142355966456, 1.494702857868106, 1};
Point(p11 + 37) = {6.633952605719444, 1.579249501338084, 1};
Point(p11 + 38) = {6.67189897638162, 1.670860144033544, 1};
Point(p11 + 39) = {6.695047102370495, 1.767279027893032, 1};
Spline(11) = {9, p11 + 1, p11 + 2, p11 + 3, p11 + 4, p11 + 5, p11 + 6, p11 + 7, p11 + 8, p11 + 9, p11 + 10, p11 + 11, p11 + 12, p11 + 13, p11 + 14, p11 + 15, p11 + 16, p11 + 17, p11 + 18, p11 + 19, p11 + 20, p11 + 21, p11 + 22, p11 + 23, p11 + 24, p11 + 25, p11 + 26, p11 + 27, p11 + 28, p11 + 29, p11 + 30, p11 + 31, p11 + 32, p11 + 33, p11 + 34, p11 + 35, p11 + 36, p11 + 37, p11 + 38, p11 + 39, 9};
Line(12) = {4, 10};
Line(13) = {10, 7};
Line(14) = {5, 10};
p15 = newp;
Point(p15 + 1) = {8.963586466210845, 1.647046701787074, 0};
Point(p15 + 2) = {8.936098348206205, 1.761542953392022, 0};
Point(p15 + 3) = {8.891037494679185, 1.870329477109059, 0};
Point(p15 + 4) = {8.829513453392023, 1.970727587682497, 0};
Point(p15 + 5) = {8.753041150427793, 2.060265150427792, 0};
Point(p15 + 6) = {8.663503587682497, 2.136737453392023, 0};
Point(p15 + 7) = {8.563105477109058, 2.198261494679185, 0};
Point(p15 + 8) = {8.454318953392022, 2.243322348206204, 0};
Point(p15 + 9) = {8.339822701787075, 2.270810466210845, 0};
Point(p15 + 10) = {8.222436, 2.280049, 0};
Point(p15 + 11) = {8.105049298212926, 2.270810466210845, 0};
Point(p15 + 12) = {7.990553046607978, 2.243322348206204, 0};
Point(p15 + 13) = {7.881766522890941, 2.198261494679185, 0};
Point(p15 + 14) = {7.781368412317503, 2.136737453392023, 0};
Point(p15 + 15) = {7.691830849572208, 2.060265150427792, 0};
Point(p15 + 16) = {7.615358546607978, 1.970727587682497, 0};
Point(p15 + 17) = {7.553834505320815, 1.870329477109059, 0};
Point(p15 + 18) = {7.508773651793796, 1.761542953392023, 0};
Point(p15 + 19) = {7.481285533789156, 1.647046701787074, 0};
Point(p15 + 20) = {7.472047, 1.52966, 0};
Point(p15 + 21) = {7.481285533789155, 1.412273298212926, 0};
Point(p15 + 22) = {7.508773651793796, 1.297777046607977, 0};
Point(p15 + 23) = {7.553834505320815, 1.188990522890942, 0};
Point(p15 + 24) = {7.615358546607977, 1.088592412317503, 0};
Point(p15 + 25) = {7.691830849572208, 0.9990548495722079, 0};
Point(p15 + 26) = {7.781368412317503, 0.9225825466079777, 0};
Point(p15 + 27) = {7.881766522890941, 0.861058505320815, 0};
Point(p15 + 28) = {7.990553046607977, 0.8159976517937961, 0};
Point(p15 + 29) = {8.105049298212926, 0.7885095337891553, 0};
Point(p15 + 30) = {8.222436, 0.779271, 0};
Point(p15 + 31) = {8.339822701787075, 0.7885095337891552, 0};
Point(p15 + 32) = {8.454318953392022, 0.815997651793796, 0};
Point(p15 + 33) = {8.563105477109058, 0.8610585053208148, 0};
Point(p15 + 34) = {8.663503587682497, 0.9225825466079776, 0};
Point(p15 + 35) = {8.753041150427793, 0.9990548495722077, 0};
Point(p15 + 36) = {8.829513453392023, 1.088592412317503, 0};
Point(p15 + 37) = {8.891037494679185, 1.188990522890941, 0};
Point(p15 + 38) = {8.936098348206205, 1.297777046607977, 0};
Point(p15 + 39) = {8.963586466210845, 1.412273298212926, 0};
Spline(15) = {11, p15 + 1, p15 + 2, p15 + 3, p15 + 4, p15 + 5, p15 + 6, p15 + 7, p15 + 8, p15 + 9, p15 + 10, p15 + 11, p15 + 12, p15 + 13, p15 + 14, p15 + 15, p15 + 16, p15 + 17, p15 + 18, p15 + 19, p15 + 20, p15 + 21, p15 + 22, p15 + 23, p15 + 24, p15 + 25, p15 + 26, p15 + 27, p15 + 28, p15 + 29, p15 + 30, p15 + 31, p15 + 32, p15 + 33, p15 + 34, p15 + 35, p15 + 36, p15 + 37, p15 + 38, p15 + 39, 11};
p16 = newp;
Point(p16 + 1) = {6.695047102370495, 1.964984972106967, 0};
Point(p16 + 2) = {6.67189897638162, 2.061403855966456, 0};
Point(p16 + 3) = {6.633952605719444, 2.153014498661916, 0};
Point(p16 + 4) = {6.582142355966456, 2.237561142131893, 0};
Point(p16 + 5) = {6.517743967419935, 2.312961967419935, 0};
Point(p16 + 6) = {6.442343142131894, 2.377360355966456, 0};
Point(p16 + 7) = {6.357796498661917, 2.429170605719444, 0};
Point(p16 + 8) = {6.266185855966456, 2.467116976381619, 0};
Point(p16 + 9) = {6.169766972106967, 2.490265102370495, 0};
Point(p16 + 10) = {6.070914, 2.498045, 0};
Point(p16 + 11) = {5.972061027893033, 2.490265102370495, 0};
Point(p16 + 12) = {5.875642144033544, 2.467116976381619, 0};
Point(p16 + 13) = {5.784031501338084, 2.429170605719444, 0};
Point(p16 + 14) = {5.699484857868106, 2.377360355966456, 0};
Point(p16 + 15) = {5.624084032580066, 2.312961967419935, 0};
Point(p16 + 16) = {5.559685644033544, 2.237561142131893, 0};
Point(p16 + 17) = {5.507875394280556, 2.153014498661916, 0};
Point(p16 + 18) = {5.469929023618381, 2.061403855966456, 0};
Point(p16 + 19) = {5.446780897629505, 1.964984972106967, 0};
Point(p16 + 20) = {5.439001, 1.866132, 0};
Point(p16 + 21) = {5.446780897629505, 1.767279027893033, 0};
Point(p16 + 22) = {5.469929023618381, 1.670860144033544, 0};
Point(p16 + 23) = {5.507875394280556, 1.579249501338084, 0};
Point(p16 + 24) = {5.559685644033544, 1.494702857868107, 0};
Point(p16 + 25) = {5.624084032580066, 1.419302032580065, 0};
Point(p16 + 26) = {5.699484857868106, 1.354903644033544, 0};
Point(p16 + 27) = {5.784031501338084, 1.303093394280556, 0};
Point(p16 + 28) = {5.875642144033544, 1.265147023618381, 0};
Point(p16 + 29) = {5.972061027893033, 1.241998897629505, 0};
Point(p16 + 30) = {6.070914, 1.234219, 0};
Point(p16 + 31) = {6.169766972106967, 1.241998897629505, 0};
Point(p16 + 32) = {6.266185855966456, 1.26514702361838, 0};
Point(p16 + 33) = {6.357796498661917, 1.303093394280556, 0};
Point(p16 + 34) = {6.442343142131894, 1.354903644033544, 0};
Point(p16 + 35) = {6.517743967419935, 1.419302032580065, 0};
Point(p16 + 36) = {6.582142355966456, 1.494702857868106, 0};
Point(p16 + 37) = {6.633952605719444, 1.579249501338084, 0};
Point(p16 + 38) = {6.67189897638162, 1.670860144033544, 0};
Point(p16 + 39) = {6.695047102370495, 1.767279027893032, 0};
Spline(16) = {12, p16 + 1, p16 + 2, p16 + 3, p16 + 4, p16 + 5, p16 + 6, p16 + 7, p16 + 8, p16 + 9, p16 + 10, p16 + 11, p16 + 12, p16 + 13, p16 + 14, p16 + 15, p16 + 16, p16 + 17, p16 + 18, p16 + 19, p16 + 20, p16 + 21, p16 + 22, p16 + 23, p16 + 24, p16 + 25, p16 + 26, p16 + 27, p16 + 28, p16 + 29, p16 + 30, p16 + 31, p16 + 32, p16 + 33, p16 + 34, p16 + 35, p16 + 36, p16 + 37, p16 + 38, p16 + 39, 12};
Line(17) = {11, 8};
Line(18) = {12, 9};
Curve Loop(1) = {-1, 4, 3, -2};
Plane Surface(1) = {1};
Curve Loop(2) = {-5, 1, 7, -6};
Plane Surface(2) = {2};
Curve Loop(3) = {-2, 7, 9, -8, -10, -11};
Plane Surface(3) = {3};
Curve Loop(4) = {-12, 3, 8, -13};
Plane Surface(4) = {4};
Curve Loop(5) = {-4, 5, 14, -12, -15, -16};
Plane Surface(5) = {5};
Curve Loop(6) = {-6, 14, 13, -9};
Plane Surface(6) = {6};
Curve Loop(7) = {-10, -17, 15, 17};
Surface(7) = {7};
Curve Loop(8) = {-11, -18, 16, 18};
Surface(8) = {8};
Surface Loop(1) = {1, 2, 3, 4, 5, 6, 7, 8};
Volume(1) = {1};
Physical Surface("INFLOW") = {1};
Physical Surface("OUTFLOW") = {6};
Physical Surface("OBSTACLE") = {7, 8};
Physical Surface("WALL_Y") = {2, 4};
Physical Surface("WALL_Z") = {3, 5};
Physical Volume("FLUID") = {1};
