cl__1 = 1.740878;
cl__2 = 1.767658;
cl__3 = 1.466733;
cl__4 = 1.387544;
cl__5 = 0.096923;
cl__6 = 0.08125;
Point(1) = {0.472452, -3.105916, 1, cl__1};
Point(2) = {0.472452, -3.105916, 0, cl__1};
Point(3) = {0.472452, 4.589288999999999, 1, cl__2};
Point(4) = {0.472452, 4.589288999999999, 0, cl__2};
Point(5) = {39.604111, -3.105916, 0, cl__3};
Point(6) = {39.604111, -3.105916, 1, cl__3};
Point(7) = {39.604111, 4.589288999999999, 1, cl__4};
Point(8) = {19.538364, 0.09744499999999977, 1, cl__5};
Point(9) = {25.909136, 2.293927, 1, cl__6};
Point(10) = {39.604111, 4.589288999999999, 0, cl__4};
Point(11) = {19.538364, 0.09744499999999977, 0, cl__5};
Point(12) = {25.909136, 2.293927, 0, cl__6};
Line(1) = {2, 1};
Line(2) = {1, 3};
Line(3) = {4, 3};
Line(4) = {2, 4};
Line(5) = {2, 5};
Line(6) = {5, 6};
Line(7) = {1, 6};
Line(8) = {3, 7};
Line(9) = {6, 7};
p10 = newp;
Point(p10 + 1) = {19.52643114573171, 0.249066289419873, 1};
Point(p10 + 2) = {19.49092640940178, 0.396954159492019, 1};
Point(p10 + 3) = {19.43272403545214, 0.5374671200435603, 1};
Point(p10 + 4) = {19.35325715949202, 0.6671452756499383, 1};
Point(p10 + 5) = {19.254482519743, 0.7827955197429998, 1};
Point(p10 + 6) = {19.13883227564994, 0.8815701594920191, 1};
Point(p10 + 7) = {19.00915412004356, 0.96103703545214, 1};
Point(p10 + 8) = {18.86864115949202, 1.019239409401784, 1};
Point(p10 + 9) = {18.72075328941987, 1.054744145731707, 1};
Point(p10 + 10) = {18.569132, 1.066677, 1};
Point(p10 + 11) = {18.41751071058013, 1.054744145731707, 1};
Point(p10 + 12) = {18.26962284050798, 1.019239409401784, 1};
Point(p10 + 13) = {18.12910987995644, 0.9610370354521401, 1};
Point(p10 + 14) = {17.99943172435006, 0.8815701594920191, 1};
Point(p10 + 15) = {17.883781480257, 0.7827955197429999, 1};
Point(p10 + 16) = {17.78500684050798, 0.6671452756499384, 1};
Point(p10 + 17) = {17.70553996454786, 0.5374671200435605, 1};
Point(p10 + 18) = {17.64733759059822, 0.3969541594920191, 1};
Point(p10 + 19) = {17.61183285426829, 0.2490662894198732, 1};
Point(p10 + 20) = {17.5999, 0.09744500000000013, 1};
Point(p10 + 21) = {17.61183285426829, -0.0541762894198729, 1};
Point(p10 + 22) = {17.64733759059822, -0.2020641594920193, 1};
Point(p10 + 23) = {17.70553996454786, -0.3425771200435599, 1};
Point(p10 + 24) = {17.78500684050798, -0.4722552756499382, 1};
Point(p10 + 25) = {17.883781480257, -0.5879055197429998, 1};
Point(p10 + 26) = {17.99943172435006, -0.686680159492019, 1};
Point(p10 + 27) = {18.12910987995644, -0.76614703545214, 1};
Point(p10 + 28) = {18.26962284050798, -0.8243494094017842, 1};
Point(p10 + 29) = {18.41751071058013, -0.8598541457317065, 1};
Point(p10 + 30) = {18.569132, -0.871787, 1};
Point(p10 + 31) = {18.72075328941987, -0.8598541457317066, 1};
Point(p10 + 32) = {18.86864115949202, -0.8243494094017844, 1};
Point(p10 + 33) = {19.00915412004356, -0.7661470354521401, 1};
Point(p10 + 34) = {19.13883227564994, -0.6866801594920191, 1};
Point(p10 + 35) = {19.254482519743, -0.587905519743, 1};
Point(p10 + 36) = {19.35325715949202, -0.4722552756499385, 1};
Point(p10 + 37) = {19.43272403545214, -0.3425771200435606, 1};
Point(p10 + 38) = {19.49092640940178, -0.2020641594920192, 1};
Point(p10 + 39) = {19.52643114573171, -0.05417628941987326, 1};
Spline(10) = {8, p10 + 1, p10 + 2, p10 + 3, p10 + 4, p10 + 5, p10 + 6, p10 + 7, p10 + 8, p10 + 9, p10 + 10, p10 + 11, p10 + 12, p10 + 13, p10 + 14, p10 + 15, p10 + 16, p10 + 17, p10 + 18, p10 + 19, p10 + 20, p10 + 21, p10 + 22, p10 + 23, p10 + 24, p10 + 25, p10 + 26, p10 + 27, p10 + 28, p10 + 29, p10 + 30, p10 + 31, p10 + 32, p10 + 33, p10 + 34, p10 + 35, p10 + 36, p10 + 37, p10 + 38, p10 + 39, 8};
p11 = newp;
Point(p11 + 1) = {25.89913277673355, 2.421030002845188, 1};
Point(p11 + 2) = {25.86936941948981, 2.545003307929645, 1};
Point(p11 + 3) = {25.82057880090305, 2.662794281038382, 1};
Point(p11 + 4) = {25.75396230792964, 2.771502517487634, 1};
Point(p11 + 5) = {25.67116025971407, 2.86845125971407, 1};
Point(p11 + 6) = {25.57421151748763, 2.951253307929645, 1};
Point(p11 + 7) = {25.46550328103838, 3.017869800903049, 1};
Point(p11 + 8) = {25.34771230792964, 3.066660419489812, 1};
Point(p11 + 9) = {25.22373900284519, 3.09642377673355, 1};
Point(p11 + 10) = {25.096636, 3.106427, 1};
Point(p11 + 11) = {24.96953299715481, 3.096423776733549, 1};
Point(p11 + 12) = {24.84555969207036, 3.066660419489812, 1};
Point(p11 + 13) = {24.72776871896162, 3.017869800903049, 1};
Point(p11 + 14) = {24.61906048251237, 2.951253307929645, 1};
Point(p11 + 15) = {24.52211174028593, 2.86845125971407, 1};
Point(p11 + 16) = {24.43930969207036, 2.771502517487634, 1};
Point(p11 + 17) = {24.37269319909695, 2.662794281038382, 1};
Point(p11 + 18) = {24.32390258051019, 2.545003307929645, 1};
Point(p11 + 19) = {24.29413922326645, 2.421030002845188, 1};
Point(p11 + 20) = {24.284136, 2.293927, 1};
Point(p11 + 21) = {24.29413922326645, 2.166823997154812, 1};
Point(p11 + 22) = {24.32390258051019, 2.042850692070355, 1};
Point(p11 + 23) = {24.37269319909695, 1.925059718961619, 1};
Point(p11 + 24) = {24.43930969207036, 1.816351482512366, 1};
Point(p11 + 25) = {24.52211174028593, 1.71940274028593, 1};
Point(p11 + 26) = {24.61906048251237, 1.636600692070355, 1};
Point(p11 + 27) = {24.72776871896162, 1.569984199096951, 1};
Point(p11 + 28) = {24.84555969207036, 1.521193580510188, 1};
Point(p11 + 29) = {24.96953299715481, 1.491430223266451, 1};
Point(p11 + 30) = {25.096636, 1.481427, 1};
Point(p11 + 31) = {25.22373900284519, 1.49143022326645, 1};
Point(p11 + 32) = {25.34771230792964, 1.521193580510188, 1};
Point(p11 + 33) = {25.46550328103838, 1.569984199096951, 1};
Point(p11 + 34) = {25.57421151748763, 1.636600692070355, 1};
Point(p11 + 35) = {25.67116025971407, 1.71940274028593, 1};
Point(p11 + 36) = {25.75396230792964, 1.816351482512365, 1};
Point(p11 + 37) = {25.82057880090305, 1.925059718961618, 1};
Point(p11 + 38) = {25.86936941948981, 2.042850692070355, 1};
Point(p11 + 39) = {25.89913277673355, 2.166823997154812, 1};
Spline(11) = {9, p11 + 1, p11 + 2, p11 + 3, p11 + 4, p11 + 5, p11 + 6, p11 + 7, p11 + 8, p11 + 9, p11 + 10, p11 + 11, p11 + 12, p11 + 13, p11 + 14, p11 + 15, p11 + 16, p11 + 17, p11 + 18, p11 + 19, p11 + 20, p11 + 21, p11 + 22, p11 + 23, p11 + 24, p11 + 25, p11 + 26, p11 + 27, p11 + 28, p11 + 29, p11 + 30, p11 + 31, p11 + 32, p11 + 33, p11 + 34, p11 + 35, p11 + 36, p11 + 37, p11 + 38, p11 + 39, 9};
Line(12) = {4, 10};
Line(13) = {10, 7};
Line(14) = {5, 10};
p15 = newp;
Point(p15 + 1) = {19.52643114573171, 0.249066289419873, 0};
Point(p15 + 2) = {19.49092640940178, 0.396954159492019, 0};
Point(p15 + 3) = {19.43272403545214, 0.5374671200435603, 0};
Point(p15 + 4) = {19.35325715949202, 0.6671452756499383, 0};
Point(p15 + 5) = {19.254482519743, 0.7827955197429998, 0};
Point(p15 + 6) = {19.13883227564994, 0.8815701594920191, 0};
Point(p15 + 7) = {19.00915412004356, 0.96103703545214, 0};
Point(p15 + 8) = {18.86864115949202, 1.019239409401784, 0};
Point(p15 + 9) = {18.72075328941987, 1.054744145731707, 0};
Point(p15 + 10) = {18.569132, 1.066677, 0};
Point(p15 + 11) = {18.41751071058013, 1.054744145731707, 0};
Point(p15 + 12) = {18.26962284050798, 1.019239409401784, 0};
Point(p15 + 13) = {18.12910987995644, 0.9610370354521401, 0};
Point(p15 + 14) = {17.99943172435006, 0.8815701594920191, 0};
Point(p15 + 15) = {17.883781480257, 0.7827955197429999, 0};
Point(p15 + 16) = {17.78500684050798, 0.6671452756499384, 0};
Point(p15 + 17) = {17.70553996454786, 0.5374671200435605, 0};
Point(p15 + 18) = {17.64733759059822, 0.3969541594920191, 0};
Point(p15 + 19) = {17.61183285426829, 0.2490662894198732, 0};
Point(p15 + 20) = {17.5999, 0.09744500000000013, 0};
Point(p15 + 21) = {17.61183285426829, -0.0541762894198729, 0};
Point(p15 + 22) = {17.64733759059822, -0.2020641594920193, 0};
Point(p15 + 23) = {17.70553996454786, -0.3425771200435599, 0};
Point(p15 + 24) = {17.78500684050798, -0.4722552756499382, 0};
Point(p15 + 25) = {17.883781480257, -0.5879055197429998, 0};
Point(p15 + 26) = {17.99943172435006, -0.686680159492019, 0};
Point(p15 + 27) = {18.12910987995644, -0.76614703545214, 0};
Point(p15 + 28) = {18.26962284050798, -0.8243494094017842, 0};
Point(p15 + 29) = {18.41751071058013, -0.8598541457317065, 0};
Point(p15 + 30) = {18.569132, -0.871787, 0};
Point(p15 + 31) = {18.72075328941987, -0.8598541457317066, 0};
Point(p15 + 32) = {18.86864115949202, -0.8243494094017844, 0};
Point(p15 + 33) = {19.00915412004356, -0.7661470354521401, 0};
Point(p15 + 34) = {19.13883227564994, -0.6866801594920191, 0};
Point(p15 + 35) = {19.254482519743, -0.587905519743, 0};
Point(p15 + 36) = {19.35325715949202, -0.4722552756499385, 0};
Point(p15 + 37) = {19.43272403545214, -0.3425771200435606, 0};
Point(p15 + 38) = {19.49092640940178, -0.2020641594920192, 0};
Point(p15 + 39) = {19.52643114573171, -0.05417628941987326, 0};
Spline(15) = {11, p15 + 1, p15 + 2, p15 + 3, p15 + 4, p15 + 5, p15 + 6, p15 + 7, p15 + 8, p15 + 9, p15 + 10, p15 + 11, p15 + 12, p15 + 13, p15 + 14, p15 + 15, p15 + 16, p15 + 17, p15 + 18, p15 + 19, p15 + 20, p15 + 21, p15 + 22, p15 + 23, p15 + 24, p15 + 25, p15 + 26, p15 + 27, p15 + 28, p15 + 29, p15 + 30, p15 + 31, p15 + 32, p15 + 33, p15 + 34, p15 + 35, p15 + 36, p15 + 37, p15 + 38, p15 + 39, 11};
p16 = newp;
Point(p16 + 1) = {25.89913277673355, 2.421030002845188, 0};
Point(p16 + 2) = {25.86936941948981, 2.545003307929645, 0};
Point(p16 + 3) = {25.82057880090305, 2.662794281038382, 0};
Point(p16 + 4) = {25.75396230792964, 2.771502517487634, 0};
Point(p16 + 5) = {25.67116025971407, 2.86845125971407, 0};
Point(p16 + 6) = {25.57421151748763, 2.951253307929645, 0};
Point(p16 + 7) = {25.46550328103838, 3.017869800903049, 0};
Point(p16 + 8) = {25.34771230792964, 3.066660419489812, 0};
Point(p16 + 9) = {25.22373900284519, 3.09642377673355, 0};
Point(p16 + 10) = {25.096636, 3.106427, 0};
Point(p16 + 11) = {24.96953299715481, 3.096423776733549, 0};
Point(p16 + 12) = {24.84555969207036, 3.066660419489812, 0};
Point(p16 + 13) = {24.72776871896162, 3.017869800903049, 0};
Point(p16 + 14) = {24.61906048251237, 2.951253307929645, 0};
Point(p16 + 15) = {24.52211174028593, 2.86845125971407, 0};
Point(p16 + 16) = {24.43930969207036, 2.771502517487634, 0};
Point(p16 + 17) = {24.37269319909695, 2.662794281038382, 0};
Point(p16 + 18) = {24.32390258051019, 2.545003307929645, 0};
Point(p16 + 19) = {24.29413922326645, 2.421030002845188, 0};
Point(p16 + 20) = {24.284136, 2.293927, 0};
Point(p16 + 21) = {24.29413922326645, 2.166823997154812, 0};
Point(p16 + 22) = {24.32390258051019, 2.042850692070355, 0};
Point(p16 + 23) = {24.37269319909695, 1.925059718961619, 0};
Point(p16 + 24) = {24.43930969207036, 1.816351482512366, 0};
Point(p16 + 25) = {24.52211174028593, 1.71940274028593, 0};
Point(p16 + 26) = {24.61906048251237, 1.636600692070355, 0};
Point(p16 + 27) = {24.72776871896162, 1.569984199096951, 0};
Point(p16 + 28) = {24.84555969207036, 1.521193580510188, 0};
Point(p16 + 29) = {24.96953299715481, 1.491430223266451, 0};
Point(p16 + 30) = {25.096636, 1.481427, 0};
Point(p16 + 31) = {25.22373900284519, 1.49143022326645, 0};
Point(p16 + 32) = {25.34771230792964, 1.521193580510188, 0};
Point(p16 + 33) = {25.46550328103838, 1.569984199096951, 0};
Point(p16 + 34) = {25.57421151748763, 1.636600692070355, 0};
Point(p16 + 35) = {25.67116025971407, 1.71940274028593, 0};
Point(p16 + 36) = {25.75396230792964, 1.816351482512365, 0};
Point(p16 + 37) = {25.82057880090305, 1.925059718961618, 0};
Point(p16 + 38) = {25.86936941948981, 2.042850692070355, 0};
Point(p16 + 39) = {25.89913277673355, 2.166823997154812, 0};
Spline(16) = {12, p16 + 1, p16 + 2, p16 + 3, p16 + 4, p16 + 5, p16 + 6, p16 + 7, p16 + 8, p16 + 9, p16 + 10, p16 + 11, p16 + 12, p16 + 13, p16 + 14, p16 + 15, p16 + 16, p16 + 17, p16 + 18, p16 + 19, p16 + 20, p16 + 21, p16 + 22, p16 + 23, p16 + 24, p16 + 25, p16 + 26, p16 + 27, p16 + 28, p16 + 29, p16 + 30, p16 + 31, p16 + 32, p16 + 33, p16 + 34, p16 + 35, p16 + 36, p16 + 37, p16 + 38, p16 + 39, 12};
Line(17) = {11, 8};
Line(18) = {12, 9};
Curve Loop(1) = {-1, 4, 3, -2};
Plane Surface(1) = {1};
Curve Loop(2) = {-5, 1, 7, -6};
Plane Surface(2) = {2};
Curve Loop(3) = {-2, 7, 9, -8, -10, -11};
Plane Surface(3) = {3};
Curve Loop(4) = {-12, 3, 8, -13};
Plane Surface(4) = {4};
Curve Loop(5) = {-4, 5, 14, -12, -15, -16};
Plane Surface(5) = {5};
Curve Loop(6) = {-6, 14, 13, -9};
Plane Surface(6) = {6};
Curve Loop(7) = {-10, -17, 15, 17};
Surface(7) = {7};
Curve Loop(8) = {-11, -18, 16, 18};
Surface(8) = {8};
Surface Loop(1) = {1, 2, 3, 4, 5, 6, 7, 8};
Volume(1) = {1};
Physical Surface("INFLOW") = {1};
Physical Surface("OUTFLOW") = {6};
Physical Surface("OBSTACLE") = {7, 8};
Physical Surface("WALL_Y") = {2, 4};
Physical Surface("WALL_Z") = {3, 5};
Physical Volume("FLUID") = {1};
