cl__1 = 0.652451;
cl__2 = 0.734307;
cl__3 = 2.120549;
cl__4 = 2.344681;
cl__5 = 0.06547799999999999;
cl__6 = 0.077556;
Point(1) = {0.709149, -3.107863, 1, cl__1};
Point(2) = {0.709149, -3.107863, 0, cl__1};
Point(3) = {0.709149, 4.686709, 1, cl__2};
Point(4) = {0.709149, 4.686709, 0, cl__2};
Point(5) = {35.779872, -3.107863, 0, cl__3};
Point(6) = {35.779872, -3.107863, 1, cl__3};
Point(7) = {35.779872, 4.686709, 1, cl__4};
Point(8) = {11.957702, -1.073548, 1, cl__5};
Point(9) = {15.930539, -1.047247, 1, cl__6};
Point(10) = {35.779872, 4.686709, 0, cl__4};
Point(11) = {11.957702, -1.073548, 0, cl__5};
Point(12) = {15.930539, -1.047247, 0, cl__6};
Line(1) = {2, 1};
Line(2) = {1, 3};
Line(3) = {4, 3};
Line(4) = {2, 4};
Line(5) = {2, 5};
Line(6) = {5, 6};
Line(7) = {1, 6};
Line(8) = {3, 7};
Line(9) = {6, 7};
p10 = newp;
Point(p10 + 1) = {11.94964058396654, -0.9711179974154226, 1};
Point(p10 + 2) = {11.92565483468322, -0.8712101614401663, 1};
Point(p10 + 3) = {11.88633536090154, -0.7762845545710393, 1};
Point(p10 + 4) = {11.83265033855983, -0.6886785602891867, 1};
Point(p10 + 5) = {11.76592167107855, -0.6105493289214536, 1};
Point(p10 + 6) = {11.68779243971081, -0.5438206614401663, 1};
Point(p10 + 7) = {11.60018644542896, -0.4901356390984647, 1};
Point(p10 + 8) = {11.50526083855983, -0.4508161653167756, 1};
Point(p10 + 9) = {11.40535300258458, -0.4268304160334563, 1};
Point(p10 + 10) = {11.302923, -0.4187689999999999, 1};
Point(p10 + 11) = {11.20049299741542, -0.4268304160334563, 1};
Point(p10 + 12) = {11.10058516144017, -0.4508161653167755, 1};
Point(p10 + 13) = {11.00565955457104, -0.4901356390984646, 1};
Point(p10 + 14) = {10.91805356028919, -0.5438206614401663, 1};
Point(p10 + 15) = {10.83992432892145, -0.6105493289214535, 1};
Point(p10 + 16) = {10.77319566144017, -0.6886785602891866, 1};
Point(p10 + 17) = {10.71951063909846, -0.7762845545710392, 1};
Point(p10 + 18) = {10.68019116531678, -0.8712101614401662, 1};
Point(p10 + 19) = {10.65620541603346, -0.9711179974154225, 1};
Point(p10 + 20) = {10.648144, -1.073548, 1};
Point(p10 + 21) = {10.65620541603346, -1.175978002584577, 1};
Point(p10 + 22) = {10.68019116531678, -1.275885838559834, 1};
Point(p10 + 23) = {10.71951063909846, -1.37081144542896, 1};
Point(p10 + 24) = {10.77319566144017, -1.458417439710813, 1};
Point(p10 + 25) = {10.83992432892145, -1.536546671078546, 1};
Point(p10 + 26) = {10.91805356028919, -1.603275338559834, 1};
Point(p10 + 27) = {11.00565955457104, -1.656960360901535, 1};
Point(p10 + 28) = {11.10058516144017, -1.696279834683224, 1};
Point(p10 + 29) = {11.20049299741542, -1.720265583966543, 1};
Point(p10 + 30) = {11.302923, -1.728327, 1};
Point(p10 + 31) = {11.40535300258458, -1.720265583966543, 1};
Point(p10 + 32) = {11.50526083855983, -1.696279834683224, 1};
Point(p10 + 33) = {11.60018644542896, -1.656960360901535, 1};
Point(p10 + 34) = {11.68779243971081, -1.603275338559834, 1};
Point(p10 + 35) = {11.76592167107855, -1.536546671078546, 1};
Point(p10 + 36) = {11.83265033855983, -1.458417439710813, 1};
Point(p10 + 37) = {11.88633536090154, -1.370811445428961, 1};
Point(p10 + 38) = {11.92565483468322, -1.275885838559834, 1};
Point(p10 + 39) = {11.94964058396654, -1.175978002584577, 1};
Spline(10) = {8, p10 + 1, p10 + 2, p10 + 3, p10 + 4, p10 + 5, p10 + 6, p10 + 7, p10 + 8, p10 + 9, p10 + 10, p10 + 11, p10 + 12, p10 + 13, p10 + 14, p10 + 15, p10 + 16, p10 + 17, p10 + 18, p10 + 19, p10 + 20, p10 + 21, p10 + 22, p10 + 23, p10 + 24, p10 + 25, p10 + 26, p10 + 27, p10 + 28, p10 + 29, p10 + 30, p10 + 31, p10 + 32, p10 + 33, p10 + 34, p10 + 35, p10 + 36, p10 + 37, p10 + 38, p10 + 39, 8};
p11 = newp;
Point(p11 + 1) = {15.92099055712031, -0.9259225298589335, 1};
Point(p11 + 2) = {15.89258034283439, -0.8075854708255714, 1};
Point(p11 + 3) = {15.84600791090605, -0.6951496740314975, 1};
Point(p11 + 4) = {15.78242002917443, -0.5913836819467972, 1};
Point(p11 + 5) = {15.70338244232382, -0.4988425576761801, 1};
Point(p11 + 6) = {15.6108413180532, -0.4198049708255714, 1};
Point(p11 + 7) = {15.5070753259685, -0.3562170890939453, 1};
Point(p11 + 8) = {15.39463952917443, -0.3096446571656145, 1};
Point(p11 + 9) = {15.27630247014107, -0.2812344428796945, 1};
Point(p11 + 10) = {15.154978, -0.2716860000000001, 1};
Point(p11 + 11) = {15.03365352985893, -0.2812344428796946, 1};
Point(p11 + 12) = {14.91531647082557, -0.3096446571656144, 1};
Point(p11 + 13) = {14.8028806740315, -0.3562170890939453, 1};
Point(p11 + 14) = {14.6991146819468, -0.4198049708255714, 1};
Point(p11 + 15) = {14.60657355767618, -0.49884255767618, 1};
Point(p11 + 16) = {14.52753597082557, -0.5913836819467972, 1};
Point(p11 + 17) = {14.46394808909394, -0.6951496740314973, 1};
Point(p11 + 18) = {14.41737565716561, -0.8075854708255714, 1};
Point(p11 + 19) = {14.38896544287969, -0.9259225298589335, 1};
Point(p11 + 20) = {14.379417, -1.047247, 1};
Point(p11 + 21) = {14.38896544287969, -1.168571470141066, 1};
Point(p11 + 22) = {14.41737565716561, -1.286908529174429, 1};
Point(p11 + 23) = {14.46394808909394, -1.399344325968502, 1};
Point(p11 + 24) = {14.52753597082557, -1.503110318053203, 1};
Point(p11 + 25) = {14.60657355767618, -1.59565144232382, 1};
Point(p11 + 26) = {14.6991146819468, -1.674689029174429, 1};
Point(p11 + 27) = {14.8028806740315, -1.738276910906055, 1};
Point(p11 + 28) = {14.91531647082557, -1.784849342834386, 1};
Point(p11 + 29) = {15.03365352985893, -1.813259557120305, 1};
Point(p11 + 30) = {15.154978, -1.822808, 1};
Point(p11 + 31) = {15.27630247014107, -1.813259557120306, 1};
Point(p11 + 32) = {15.39463952917443, -1.784849342834386, 1};
Point(p11 + 33) = {15.5070753259685, -1.738276910906055, 1};
Point(p11 + 34) = {15.6108413180532, -1.674689029174429, 1};
Point(p11 + 35) = {15.70338244232382, -1.59565144232382, 1};
Point(p11 + 36) = {15.78242002917443, -1.503110318053203, 1};
Point(p11 + 37) = {15.84600791090605, -1.399344325968503, 1};
Point(p11 + 38) = {15.89258034283439, -1.286908529174429, 1};
Point(p11 + 39) = {15.92099055712031, -1.168571470141067, 1};
Spline(11) = {9, p11 + 1, p11 + 2, p11 + 3, p11 + 4, p11 + 5, p11 + 6, p11 + 7, p11 + 8, p11 + 9, p11 + 10, p11 + 11, p11 + 12, p11 + 13, p11 + 14, p11 + 15, p11 + 16, p11 + 17, p11 + 18, p11 + 19, p11 + 20, p11 + 21, p11 + 22, p11 + 23, p11 + 24, p11 + 25, p11 + 26, p11 + 27, p11 + 28, p11 + 29, p11 + 30, p11 + 31, p11 + 32, p11 + 33, p11 + 34, p11 + 35, p11 + 36, p11 + 37, p11 + 38, p11 + 39, 9};
Line(12) = {4, 10};
Line(13) = {10, 7};
Line(14) = {5, 10};
p15 = newp;
Point(p15 + 1) = {11.94964058396654, -0.9711179974154226, 0};
Point(p15 + 2) = {11.92565483468322, -0.8712101614401663, 0};
Point(p15 + 3) = {11.88633536090154, -0.7762845545710393, 0};
Point(p15 + 4) = {11.83265033855983, -0.6886785602891867, 0};
Point(p15 + 5) = {11.76592167107855, -0.6105493289214536, 0};
Point(p15 + 6) = {11.68779243971081, -0.5438206614401663, 0};
Point(p15 + 7) = {11.60018644542896, -0.4901356390984647, 0};
Point(p15 + 8) = {11.50526083855983, -0.4508161653167756, 0};
Point(p15 + 9) = {11.40535300258458, -0.4268304160334563, 0};
Point(p15 + 10) = {11.302923, -0.4187689999999999, 0};
Point(p15 + 11) = {11.20049299741542, -0.4268304160334563, 0};
Point(p15 + 12) = {11.10058516144017, -0.4508161653167755, 0};
Point(p15 + 13) = {11.00565955457104, -0.4901356390984646, 0};
Point(p15 + 14) = {10.91805356028919, -0.5438206614401663, 0};
Point(p15 + 15) = {10.83992432892145, -0.6105493289214535, 0};
Point(p15 + 16) = {10.77319566144017, -0.6886785602891866, 0};
Point(p15 + 17) = {10.71951063909846, -0.7762845545710392, 0};
Point(p15 + 18) = {10.68019116531678, -0.8712101614401662, 0};
Point(p15 + 19) = {10.65620541603346, -0.9711179974154225, 0};
Point(p15 + 20) = {10.648144, -1.073548, 0};
Point(p15 + 21) = {10.65620541603346, -1.175978002584577, 0};
Point(p15 + 22) = {10.68019116531678, -1.275885838559834, 0};
Point(p15 + 23) = {10.71951063909846, -1.37081144542896, 0};
Point(p15 + 24) = {10.77319566144017, -1.458417439710813, 0};
Point(p15 + 25) = {10.83992432892145, -1.536546671078546, 0};
Point(p15 + 26) = {10.91805356028919, -1.603275338559834, 0};
Point(p15 + 27) = {11.00565955457104, -1.656960360901535, 0};
Point(p15 + 28) = {11.10058516144017, -1.696279834683224, 0};
Point(p15 + 29) = {11.20049299741542, -1.720265583966543, 0};
Point(p15 + 30) = {11.302923, -1.728327, 0};
Point(p15 + 31) = {11.40535300258458, -1.720265583966543, 0};
Point(p15 + 32) = {11.50526083855983, -1.696279834683224, 0};
Point(p15 + 33) = {11.60018644542896, -1.656960360901535, 0};
Point(p15 + 34) = {11.68779243971081, -1.603275338559834, 0};
Point(p15 + 35) = {11.76592167107855, -1.536546671078546, 0};
Point(p15 + 36) = {11.83265033855983, -1.458417439710813, 0};
Point(p15 + 37) = {11.88633536090154, -1.370811445428961, 0};
Point(p15 + 38) = {11.92565483468322, -1.275885838559834, 0};
Point(p15 + 39) = {11.94964058396654, -1.175978002584577, 0};
Spline(15) = {11, p15 + 1, p15 + 2, p15 + 3, p15 + 4, p15 + 5, p15 + 6, p15 + 7, p15 + 8, p15 + 9, p15 + 10, p15 + 11, p15 + 12, p15 + 13, p15 + 14, p15 + 15, p15 + 16, p15 + 17, p15 + 18, p15 + 19, p15 + 20, p15 + 21, p15 + 22, p15 + 23, p15 + 24, p15 + 25, p15 + 26, p15 + 27, p15 + 28, p15 + 29, p15 + 30, p15 + 31, p15 + 32, p15 + 33, p15 + 34, p15 + 35, p15 + 36, p15 + 37, p15 + 38, p15 + 39, 11};
p16 = newp;
Point(p16 + 1) = {15.92099055712031, -0.9259225298589335, 0};
Point(p16 + 2) = {15.89258034283439, -0.8075854708255714, 0};
Point(p16 + 3) = {15.84600791090605, -0.6951496740314975, 0};
Point(p16 + 4) = {15.78242002917443, -0.5913836819467972, 0};
Point(p16 + 5) = {15.70338244232382, -0.4988425576761801, 0};
Point(p16 + 6) = {15.6108413180532, -0.4198049708255714, 0};
Point(p16 + 7) = {15.5070753259685, -0.3562170890939453, 0};
Point(p16 + 8) = {15.39463952917443, -0.3096446571656145, 0};
Point(p16 + 9) = {15.27630247014107, -0.2812344428796945, 0};
Point(p16 + 10) = {15.154978, -0.2716860000000001, 0};
Point(p16 + 11) = {15.03365352985893, -0.2812344428796946, 0};
Point(p16 + 12) = {14.91531647082557, -0.3096446571656144, 0};
Point(p16 + 13) = {14.8028806740315, -0.3562170890939453, 0};
Point(p16 + 14) = {14.6991146819468, -0.4198049708255714, 0};
Point(p16 + 15) = {14.60657355767618, -0.49884255767618, 0};
Point(p16 + 16) = {14.52753597082557, -0.5913836819467972, 0};
Point(p16 + 17) = {14.46394808909394, -0.6951496740314973, 0};
Point(p16 + 18) = {14.41737565716561, -0.8075854708255714, 0};
Point(p16 + 19) = {14.38896544287969, -0.9259225298589335, 0};
Point(p16 + 20) = {14.379417, -1.047247, 0};
Point(p16 + 21) = {14.38896544287969, -1.168571470141066, 0};
Point(p16 + 22) = {14.41737565716561, -1.286908529174429, 0};
Point(p16 + 23) = {14.46394808909394, -1.399344325968502, 0};
Point(p16 + 24) = {14.52753597082557, -1.503110318053203, 0};
Point(p16 + 25) = {14.60657355767618, -1.59565144232382, 0};
Point(p16 + 26) = {14.6991146819468, -1.674689029174429, 0};
Point(p16 + 27) = {14.8028806740315, -1.738276910906055, 0};
Point(p16 + 28) = {14.91531647082557, -1.784849342834386, 0};
Point(p16 + 29) = {15.03365352985893, -1.813259557120305, 0};
Point(p16 + 30) = {15.154978, -1.822808, 0};
Point(p16 + 31) = {15.27630247014107, -1.813259557120306, 0};
Point(p16 + 32) = {15.39463952917443, -1.784849342834386, 0};
Point(p16 + 33) = {15.5070753259685, -1.738276910906055, 0};
Point(p16 + 34) = {15.6108413180532, -1.674689029174429, 0};
Point(p16 + 35) = {15.70338244232382, -1.59565144232382, 0};
Point(p16 + 36) = {15.78242002917443, -1.503110318053203, 0};
Point(p16 + 37) = {15.84600791090605, -1.399344325968503, 0};
Point(p16 + 38) = {15.89258034283439, -1.286908529174429, 0};
Point(p16 + 39) = {15.92099055712031, -1.168571470141067, 0};
Spline(16) = {12, p16 + 1, p16 + 2, p16 + 3, p16 + 4, p16 + 5, p16 + 6, p16 + 7, p16 + 8, p16 + 9, p16 + 10, p16 + 11, p16 + 12, p16 + 13, p16 + 14, p16 + 15, p16 + 16, p16 + 17, p16 + 18, p16 + 19, p16 + 20, p16 + 21, p16 + 22, p16 + 23, p16 + 24, p16 + 25, p16 + 26, p16 + 27, p16 + 28, p16 + 29, p16 + 30, p16 + 31, p16 + 32, p16 + 33, p16 + 34, p16 + 35, p16 + 36, p16 + 37, p16 + 38, p16 + 39, 12};
Line(17) = {11, 8};
Line(18) = {12, 9};
Curve Loop(1) = {-1, 4, 3, -2};
Plane Surface(1) = {1};
Curve Loop(2) = {-5, 1, 7, -6};
Plane Surface(2) = {2};
Curve Loop(3) = {-2, 7, 9, -8, -10, -11};
Plane Surface(3) = {3};
Curve Loop(4) = {-12, 3, 8, -13};
Plane Surface(4) = {4};
Curve Loop(5) = {-4, 5, 14, -12, -15, -16};
Plane Surface(5) = {5};
Curve Loop(6) = {-6, 14, 13, -9};
Plane Surface(6) = {6};
Curve Loop(7) = {-10, -17, 15, 17};
Surface(7) = {7};
Curve Loop(8) = {-11, -18, 16, 18};
Surface(8) = {8};
Surface Loop(1) = {1, 2, 3, 4, 5, 6, 7, 8};
Volume(1) = {1};
Physical Surface("INFLOW") = {1};
Physical Surface("OUTFLOW") = {6};
Physical Surface("OBSTACLE") = {7, 8};
Physical Surface("WALL_Y") = {2, 4};
Physical Surface("WALL_Z") = {3, 5};
Physical Volume("FLUID") = {1};
