cl__1 = 0.826061;
cl__2 = 0.5455140000000001;
cl__3 = 1.951974;
cl__4 = 2.620483;
cl__5 = 0.146533;
cl__6 = 0.098958;
Point(1) = {0.487581, -3.912091, 1, cl__1};
Point(2) = {0.487581, -3.912091, 0, cl__1};
Point(3) = {0.487581, 5.174156, 1, cl__2};
Point(4) = {0.487581, 5.174156, 0, cl__2};
Point(5) = {31.768243, -3.912091, 0, cl__3};
Point(6) = {31.768243, -3.912091, 1, cl__3};
Point(7) = {31.768243, 5.174156, 1, cl__4};
Point(8) = {21.590114, -0.8777910000000004, 1, cl__5};
Point(9) = {6.345886, 2.403165, 1, cl__6};
Point(10) = {31.768243, 5.174156, 0, cl__4};
Point(11) = {21.590114, -0.8777910000000004, 0, cl__5};
Point(12) = {6.345886, 2.403165, 0, cl__6};
Line(1) = {2, 1};
Line(2) = {1, 3};
Line(3) = {4, 3};
Line(4) = {2, 4};
Line(5) = {2, 5};
Line(6) = {5, 6};
Line(7) = {1, 6};
Line(8) = {3, 7};
Line(9) = {6, 7};
p10 = newp;
Point(p10 + 1) = {21.57207338074759, -0.6485631982115285, 1};
Point(p10 + 2) = {21.51839574290975, -0.4249797456665471, 1};
Point(p10 + 3) = {21.43040280807589, -0.2125460089976494, 1};
Point(p10 + 4) = {21.31026125433345, -0.01649281182877493, 1};
Point(p10 + 5) = {21.16092936546252, 0.1583523654625212, 1};
Point(p10 + 6) = {20.98608418817123, 0.307684254333453, 1};
Point(p10 + 7) = {20.79003099100235, 0.4278258080758925, 1};
Point(p10 + 8) = {20.57759725433345, 0.5158187429097447, 1};
Point(p10 + 9) = {20.35401380178847, 0.5694963807475921, 1};
Point(p10 + 10) = {20.124786, 0.587537, 1};
Point(p10 + 11) = {19.89555819821153, 0.5694963807475919, 1};
Point(p10 + 12) = {19.67197474566655, 0.5158187429097449, 1};
Point(p10 + 13) = {19.45954100899765, 0.4278258080758928, 1};
Point(p10 + 14) = {19.26348781182877, 0.307684254333453, 1};
Point(p10 + 15) = {19.08864263453748, 0.1583523654625214, 1};
Point(p10 + 16) = {18.93931074566655, -0.01649281182877482, 1};
Point(p10 + 17) = {18.81916919192411, -0.2125460089976493, 1};
Point(p10 + 18) = {18.73117625709025, -0.4249797456665469, 1};
Point(p10 + 19) = {18.67749861925241, -0.6485631982115284, 1};
Point(p10 + 20) = {18.659458, -0.8777909999999998, 1};
Point(p10 + 21) = {18.67749861925241, -1.107018801788471, 1};
Point(p10 + 22) = {18.73117625709025, -1.330602254333453, 1};
Point(p10 + 23) = {18.81916919192411, -1.54303599100235, 1};
Point(p10 + 24) = {18.93931074566655, -1.739089188171225, 1};
Point(p10 + 25) = {19.08864263453748, -1.913934365462521, 1};
Point(p10 + 26) = {19.26348781182877, -2.063266254333453, 1};
Point(p10 + 27) = {19.45954100899765, -2.183407808075892, 1};
Point(p10 + 28) = {19.67197474566655, -2.271400742909745, 1};
Point(p10 + 29) = {19.89555819821153, -2.325078380747592, 1};
Point(p10 + 30) = {20.124786, -2.343119, 1};
Point(p10 + 31) = {20.35401380178847, -2.325078380747592, 1};
Point(p10 + 32) = {20.57759725433345, -2.271400742909745, 1};
Point(p10 + 33) = {20.79003099100235, -2.183407808075893, 1};
Point(p10 + 34) = {20.98608418817123, -2.063266254333453, 1};
Point(p10 + 35) = {21.16092936546252, -1.913934365462522, 1};
Point(p10 + 36) = {21.31026125433345, -1.739089188171225, 1};
Point(p10 + 37) = {21.43040280807589, -1.543035991002351, 1};
Point(p10 + 38) = {21.51839574290975, -1.330602254333453, 1};
Point(p10 + 39) = {21.57207338074759, -1.107018801788472, 1};
Spline(10) = {8, p10 + 1, p10 + 2, p10 + 3, p10 + 4, p10 + 5, p10 + 6, p10 + 7, p10 + 8, p10 + 9, p10 + 10, p10 + 11, p10 + 12, p10 + 13, p10 + 14, p10 + 15, p10 + 16, p10 + 17, p10 + 18, p10 + 19, p10 + 20, p10 + 21, p10 + 22, p10 + 23, p10 + 24, p10 + 25, p10 + 26, p10 + 27, p10 + 28, p10 + 29, p10 + 30, p10 + 31, p10 + 32, p10 + 33, p10 + 34, p10 + 35, p10 + 36, p10 + 37, p10 + 38, p10 + 39, 8};
p11 = newp;
Point(p11 + 1) = {6.333702665021115, 2.557968948611117, 1};
Point(p11 + 2) = {6.297452654225809, 2.708961110242577, 1};
Point(p11 + 3) = {6.238028563186753, 2.852423556760761, 1};
Point(p11 + 4) = {6.156893610242578, 2.984823766607829, 1};
Point(p11 + 5) = {6.056045607206241, 3.10290160720624, 1};
Point(p11 + 6) = {5.937967766607829, 3.203749610242578, 1};
Point(p11 + 7) = {5.805567556760762, 3.284884563186752, 1};
Point(p11 + 8) = {5.662105110242578, 3.344308654225809, 1};
Point(p11 + 9) = {5.511112948611117, 3.380558665021115, 1};
Point(p11 + 10) = {5.356309, 3.392742, 1};
Point(p11 + 11) = {5.201505051388883, 3.380558665021114, 1};
Point(p11 + 12) = {5.050512889757423, 3.344308654225809, 1};
Point(p11 + 13) = {4.907050443239239, 3.284884563186753, 1};
Point(p11 + 14) = {4.774650233392172, 3.203749610242578, 1};
Point(p11 + 15) = {4.656572392793761, 3.10290160720624, 1};
Point(p11 + 16) = {4.555724389757423, 2.984823766607829, 1};
Point(p11 + 17) = {4.474589436813248, 2.852423556760761, 1};
Point(p11 + 18) = {4.415165345774192, 2.708961110242577, 1};
Point(p11 + 19) = {4.378915334978886, 2.557968948611117, 1};
Point(p11 + 20) = {4.366732000000001, 2.403165, 1};
Point(p11 + 21) = {4.378915334978886, 2.248361051388883, 1};
Point(p11 + 22) = {4.415165345774192, 2.097368889757422, 1};
Point(p11 + 23) = {4.474589436813248, 1.953906443239239, 1};
Point(p11 + 24) = {4.555724389757422, 1.821506233392171, 1};
Point(p11 + 25) = {4.65657239279376, 1.70342839279376, 1};
Point(p11 + 26) = {4.774650233392172, 1.602580389757423, 1};
Point(p11 + 27) = {4.907050443239239, 1.521445436813248, 1};
Point(p11 + 28) = {5.050512889757423, 1.462021345774191, 1};
Point(p11 + 29) = {5.201505051388883, 1.425771334978885, 1};
Point(p11 + 30) = {5.356309, 1.413588, 1};
Point(p11 + 31) = {5.511112948611117, 1.425771334978885, 1};
Point(p11 + 32) = {5.662105110242577, 1.462021345774191, 1};
Point(p11 + 33) = {5.805567556760762, 1.521445436813247, 1};
Point(p11 + 34) = {5.937967766607829, 1.602580389757422, 1};
Point(p11 + 35) = {6.05604560720624, 1.70342839279376, 1};
Point(p11 + 36) = {6.156893610242578, 1.821506233392171, 1};
Point(p11 + 37) = {6.238028563186753, 1.953906443239238, 1};
Point(p11 + 38) = {6.297452654225809, 2.097368889757422, 1};
Point(p11 + 39) = {6.333702665021115, 2.248361051388883, 1};
Spline(11) = {9, p11 + 1, p11 + 2, p11 + 3, p11 + 4, p11 + 5, p11 + 6, p11 + 7, p11 + 8, p11 + 9, p11 + 10, p11 + 11, p11 + 12, p11 + 13, p11 + 14, p11 + 15, p11 + 16, p11 + 17, p11 + 18, p11 + 19, p11 + 20, p11 + 21, p11 + 22, p11 + 23, p11 + 24, p11 + 25, p11 + 26, p11 + 27, p11 + 28, p11 + 29, p11 + 30, p11 + 31, p11 + 32, p11 + 33, p11 + 34, p11 + 35, p11 + 36, p11 + 37, p11 + 38, p11 + 39, 9};
Line(12) = {4, 10};
Line(13) = {10, 7};
Line(14) = {5, 10};
p15 = newp;
Point(p15 + 1) = {21.57207338074759, -0.6485631982115285, 0};
Point(p15 + 2) = {21.51839574290975, -0.4249797456665471, 0};
Point(p15 + 3) = {21.43040280807589, -0.2125460089976494, 0};
Point(p15 + 4) = {21.31026125433345, -0.01649281182877493, 0};
Point(p15 + 5) = {21.16092936546252, 0.1583523654625212, 0};
Point(p15 + 6) = {20.98608418817123, 0.307684254333453, 0};
Point(p15 + 7) = {20.79003099100235, 0.4278258080758925, 0};
Point(p15 + 8) = {20.57759725433345, 0.5158187429097447, 0};
Point(p15 + 9) = {20.35401380178847, 0.5694963807475921, 0};
Point(p15 + 10) = {20.124786, 0.587537, 0};
Point(p15 + 11) = {19.89555819821153, 0.5694963807475919, 0};
Point(p15 + 12) = {19.67197474566655, 0.5158187429097449, 0};
Point(p15 + 13) = {19.45954100899765, 0.4278258080758928, 0};
Point(p15 + 14) = {19.26348781182877, 0.307684254333453, 0};
Point(p15 + 15) = {19.08864263453748, 0.1583523654625214, 0};
Point(p15 + 16) = {18.93931074566655, -0.01649281182877482, 0};
Point(p15 + 17) = {18.81916919192411, -0.2125460089976493, 0};
Point(p15 + 18) = {18.73117625709025, -0.4249797456665469, 0};
Point(p15 + 19) = {18.67749861925241, -0.6485631982115284, 0};
Point(p15 + 20) = {18.659458, -0.8777909999999998, 0};
Point(p15 + 21) = {18.67749861925241, -1.107018801788471, 0};
Point(p15 + 22) = {18.73117625709025, -1.330602254333453, 0};
Point(p15 + 23) = {18.81916919192411, -1.54303599100235, 0};
Point(p15 + 24) = {18.93931074566655, -1.739089188171225, 0};
Point(p15 + 25) = {19.08864263453748, -1.913934365462521, 0};
Point(p15 + 26) = {19.26348781182877, -2.063266254333453, 0};
Point(p15 + 27) = {19.45954100899765, -2.183407808075892, 0};
Point(p15 + 28) = {19.67197474566655, -2.271400742909745, 0};
Point(p15 + 29) = {19.89555819821153, -2.325078380747592, 0};
Point(p15 + 30) = {20.124786, -2.343119, 0};
Point(p15 + 31) = {20.35401380178847, -2.325078380747592, 0};
Point(p15 + 32) = {20.57759725433345, -2.271400742909745, 0};
Point(p15 + 33) = {20.79003099100235, -2.183407808075893, 0};
Point(p15 + 34) = {20.98608418817123, -2.063266254333453, 0};
Point(p15 + 35) = {21.16092936546252, -1.913934365462522, 0};
Point(p15 + 36) = {21.31026125433345, -1.739089188171225, 0};
Point(p15 + 37) = {21.43040280807589, -1.543035991002351, 0};
Point(p15 + 38) = {21.51839574290975, -1.330602254333453, 0};
Point(p15 + 39) = {21.57207338074759, -1.107018801788472, 0};
Spline(15) = {11, p15 + 1, p15 + 2, p15 + 3, p15 + 4, p15 + 5, p15 + 6, p15 + 7, p15 + 8, p15 + 9, p15 + 10, p15 + 11, p15 + 12, p15 + 13, p15 + 14, p15 + 15, p15 + 16, p15 + 17, p15 + 18, p15 + 19, p15 + 20, p15 + 21, p15 + 22, p15 + 23, p15 + 24, p15 + 25, p15 + 26, p15 + 27, p15 + 28, p15 + 29, p15 + 30, p15 + 31, p15 + 32, p15 + 33, p15 + 34, p15 + 35, p15 + 36, p15 + 37, p15 + 38, p15 + 39, 11};
p16 = newp;
Point(p16 + 1) = {6.333702665021115, 2.557968948611117, 0};
Point(p16 + 2) = {6.297452654225809, 2.708961110242577, 0};
Point(p16 + 3) = {6.238028563186753, 2.852423556760761, 0};
Point(p16 + 4) = {6.156893610242578, 2.984823766607829, 0};
Point(p16 + 5) = {6.056045607206241, 3.10290160720624, 0};
Point(p16 + 6) = {5.937967766607829, 3.203749610242578, 0};
Point(p16 + 7) = {5.805567556760762, 3.284884563186752, 0};
Point(p16 + 8) = {5.662105110242578, 3.344308654225809, 0};
Point(p16 + 9) = {5.511112948611117, 3.380558665021115, 0};
Point(p16 + 10) = {5.356309, 3.392742, 0};
Point(p16 + 11) = {5.201505051388883, 3.380558665021114, 0};
Point(p16 + 12) = {5.050512889757423, 3.344308654225809, 0};
Point(p16 + 13) = {4.907050443239239, 3.284884563186753, 0};
Point(p16 + 14) = {4.774650233392172, 3.203749610242578, 0};
Point(p16 + 15) = {4.656572392793761, 3.10290160720624, 0};
Point(p16 + 16) = {4.555724389757423, 2.984823766607829, 0};
Point(p16 + 17) = {4.474589436813248, 2.852423556760761, 0};
Point(p16 + 18) = {4.415165345774192, 2.708961110242577, 0};
Point(p16 + 19) = {4.378915334978886, 2.557968948611117, 0};
Point(p16 + 20) = {4.366732000000001, 2.403165, 0};
Point(p16 + 21) = {4.378915334978886, 2.248361051388883, 0};
Point(p16 + 22) = {4.415165345774192, 2.097368889757422, 0};
Point(p16 + 23) = {4.474589436813248, 1.953906443239239, 0};
Point(p16 + 24) = {4.555724389757422, 1.821506233392171, 0};
Point(p16 + 25) = {4.65657239279376, 1.70342839279376, 0};
Point(p16 + 26) = {4.774650233392172, 1.602580389757423, 0};
Point(p16 + 27) = {4.907050443239239, 1.521445436813248, 0};
Point(p16 + 28) = {5.050512889757423, 1.462021345774191, 0};
Point(p16 + 29) = {5.201505051388883, 1.425771334978885, 0};
Point(p16 + 30) = {5.356309, 1.413588, 0};
Point(p16 + 31) = {5.511112948611117, 1.425771334978885, 0};
Point(p16 + 32) = {5.662105110242577, 1.462021345774191, 0};
Point(p16 + 33) = {5.805567556760762, 1.521445436813247, 0};
Point(p16 + 34) = {5.937967766607829, 1.602580389757422, 0};
Point(p16 + 35) = {6.05604560720624, 1.70342839279376, 0};
Point(p16 + 36) = {6.156893610242578, 1.821506233392171, 0};
Point(p16 + 37) = {6.238028563186753, 1.953906443239238, 0};
Point(p16 + 38) = {6.297452654225809, 2.097368889757422, 0};
Point(p16 + 39) = {6.333702665021115, 2.248361051388883, 0};
Spline(16) = {12, p16 + 1, p16 + 2, p16 + 3, p16 + 4, p16 + 5, p16 + 6, p16 + 7, p16 + 8, p16 + 9, p16 + 10, p16 + 11, p16 + 12, p16 + 13, p16 + 14, p16 + 15, p16 + 16, p16 + 17, p16 + 18, p16 + 19, p16 + 20, p16 + 21, p16 + 22, p16 + 23, p16 + 24, p16 + 25, p16 + 26, p16 + 27, p16 + 28, p16 + 29, p16 + 30, p16 + 31, p16 + 32, p16 + 33, p16 + 34, p16 + 35, p16 + 36, p16 + 37, p16 + 38, p16 + 39, 12};
Line(17) = {11, 8};
Line(18) = {12, 9};
Curve Loop(1) = {-1, 4, 3, -2};
Plane Surface(1) = {1};
Curve Loop(2) = {-5, 1, 7, -6};
Plane Surface(2) = {2};
Curve Loop(3) = {-2, 7, 9, -8, -10, -11};
Plane Surface(3) = {3};
Curve Loop(4) = {-12, 3, 8, -13};
Plane Surface(4) = {4};
Curve Loop(5) = {-4, 5, 14, -12, -15, -16};
Plane Surface(5) = {5};
Curve Loop(6) = {-6, 14, 13, -9};
Plane Surface(6) = {6};
Curve Loop(7) = {-10, -17, 15, 17};
Surface(7) = {7};
Curve Loop(8) = {-11, -18, 16, 18};
Surface(8) = {8};
Surface Loop(1) = {1, 2, 3, 4, 5, 6, 7, 8};
Volume(1) = {1};
Physical Surface("INFLOW") = {1};
Physical Surface("OUTFLOW") = {6};
Physical Surface("OBSTACLE") = {7, 8};
Physical Surface("WALL_Y") = {2, 4};
Physical Surface("WALL_Z") = {3, 5};
Physical Volume("FLUID") = {1};
