cl__1 = 2.644751;
cl__2 = 2.976781;
cl__3 = 0.704712;
cl__4 = 0.473856;
cl__5 = 0.095875;
cl__6 = 0.086177;
Point(1) = {0.085234, -3.828368, 1, cl__1};
Point(2) = {0.085234, -3.828368, 0, cl__1};
Point(3) = {0.085234, 4.573241, 1, cl__2};
Point(4) = {0.085234, 4.573241, 0, cl__2};
Point(5) = {37.548452, -3.828368, 0, cl__3};
Point(6) = {37.548452, -3.828368, 1, cl__3};
Point(7) = {37.548452, 4.573241, 1, cl__4};
Point(8) = {16.481637, -0.7619480000000002, 1, cl__5};
Point(9) = {32.867717, 2.475176, 1, cl__6};
Point(10) = {37.548452, 4.573241, 0, cl__4};
Point(11) = {16.481637, -0.7619480000000002, 0, cl__5};
Point(12) = {32.867717, 2.475176, 0, cl__6};
Line(1) = {2, 1};
Line(2) = {1, 3};
Line(3) = {4, 3};
Line(4) = {2, 4};
Line(5) = {2, 5};
Line(6) = {5, 6};
Line(7) = {1, 6};
Line(8) = {3, 7};
Line(9) = {6, 7};
p10 = newp;
Point(p10 + 1) = {16.46983315961061, -0.6119659873392835, 1};
Point(p10 + 2) = {16.43471228816753, -0.4656770295920361, 1};
Point(p10 + 3) = {16.37713917808517, -0.3266832464032103, 1};
Point(p10 + 4) = {16.29853147040796, -0.1984071260088345, 1};
Point(p10 + 5) = {16.20082474778295, -0.08400725221705407, 1};
Point(p10 + 6) = {16.08642487399117, 0.01369947040796404, 1};
Point(p10 + 7) = {15.95814875359679, 0.09230717808517019, 1};
Point(p10 + 8) = {15.81915497040796, 0.1498802881675273, 1};
Point(p10 + 9) = {15.67286601266072, 0.1850011596106101, 1};
Point(p10 + 10) = {15.522884, 0.196805, 1};
Point(p10 + 11) = {15.37290198733928, 0.18500115961061, 1};
Point(p10 + 12) = {15.22661302959204, 0.1498802881675274, 1};
Point(p10 + 13) = {15.08761924640321, 0.0923071780851703, 1};
Point(p10 + 14) = {14.95934312600883, 0.01369947040796404, 1};
Point(p10 + 15) = {14.84494325221705, -0.08400725221705396, 1};
Point(p10 + 16) = {14.74723652959204, -0.1984071260088344, 1};
Point(p10 + 17) = {14.66862882191483, -0.3266832464032102, 1};
Point(p10 + 18) = {14.61105571183247, -0.4656770295920359, 1};
Point(p10 + 19) = {14.57593484038939, -0.6119659873392834, 1};
Point(p10 + 20) = {14.564131, -0.7619479999999998, 1};
Point(p10 + 21) = {14.57593484038939, -0.9119300126607163, 1};
Point(p10 + 22) = {14.61105571183247, -1.058218970407964, 1};
Point(p10 + 23) = {14.66862882191483, -1.197212753596789, 1};
Point(p10 + 24) = {14.74723652959204, -1.325488873991165, 1};
Point(p10 + 25) = {14.84494325221705, -1.439888747782946, 1};
Point(p10 + 26) = {14.95934312600883, -1.537595470407964, 1};
Point(p10 + 27) = {15.08761924640321, -1.61620317808517, 1};
Point(p10 + 28) = {15.22661302959204, -1.673776288167527, 1};
Point(p10 + 29) = {15.37290198733928, -1.70889715961061, 1};
Point(p10 + 30) = {15.522884, -1.720701, 1};
Point(p10 + 31) = {15.67286601266072, -1.70889715961061, 1};
Point(p10 + 32) = {15.81915497040796, -1.673776288167527, 1};
Point(p10 + 33) = {15.95814875359679, -1.61620317808517, 1};
Point(p10 + 34) = {16.08642487399116, -1.537595470407964, 1};
Point(p10 + 35) = {16.20082474778295, -1.439888747782946, 1};
Point(p10 + 36) = {16.29853147040796, -1.325488873991166, 1};
Point(p10 + 37) = {16.37713917808517, -1.19721275359679, 1};
Point(p10 + 38) = {16.43471228816753, -1.058218970407964, 1};
Point(p10 + 39) = {16.46983315961061, -0.9119300126607166, 1};
Spline(10) = {8, p10 + 1, p10 + 2, p10 + 3, p10 + 4, p10 + 5, p10 + 6, p10 + 7, p10 + 8, p10 + 9, p10 + 10, p10 + 11, p10 + 12, p10 + 13, p10 + 14, p10 + 15, p10 + 16, p10 + 17, p10 + 18, p10 + 19, p10 + 20, p10 + 21, p10 + 22, p10 + 23, p10 + 24, p10 + 25, p10 + 26, p10 + 27, p10 + 28, p10 + 29, p10 + 30, p10 + 31, p10 + 32, p10 + 33, p10 + 34, p10 + 35, p10 + 36, p10 + 37, p10 + 38, p10 + 39, 8};
p11 = newp;
Point(p11 + 1) = {32.85710713202803, 2.60998715467558, 1};
Point(p11 + 2) = {32.82553877827374, 2.741478811310476, 1};
Point(p11 + 3) = {32.77378925637591, 2.866413208922548, 1};
Point(p11 + 4) = {32.70313281131047, 2.981714048009094, 1};
Point(p11 + 5) = {32.61530923925026, 3.084542239250256, 1};
Point(p11 + 6) = {32.51248104800909, 3.172365811310476, 1};
Point(p11 + 7) = {32.39718020892255, 3.243022256375906, 1};
Point(p11 + 8) = {32.27224581131048, 3.29477177827374, 1};
Point(p11 + 9) = {32.14075415467558, 3.326340132028034, 1};
Point(p11 + 10) = {32.005943, 3.33695, 1};
Point(p11 + 11) = {31.87113184532442, 3.326340132028034, 1};
Point(p11 + 12) = {31.73964018868953, 3.29477177827374, 1};
Point(p11 + 13) = {31.61470579107745, 3.243022256375907, 1};
Point(p11 + 14) = {31.49940495199091, 3.172365811310476, 1};
Point(p11 + 15) = {31.39657676074975, 3.084542239250256, 1};
Point(p11 + 16) = {31.30875318868953, 2.981714048009094, 1};
Point(p11 + 17) = {31.23809674362409, 2.866413208922548, 1};
Point(p11 + 18) = {31.18634722172626, 2.741478811310476, 1};
Point(p11 + 19) = {31.15477886797197, 2.60998715467558, 1};
Point(p11 + 20) = {31.144169, 2.475176, 1};
Point(p11 + 21) = {31.15477886797197, 2.34036484532442, 1};
Point(p11 + 22) = {31.18634722172626, 2.208873188689524, 1};
Point(p11 + 23) = {31.23809674362409, 2.083938791077452, 1};
Point(p11 + 24) = {31.30875318868953, 1.968637951990906, 1};
Point(p11 + 25) = {31.39657676074975, 1.865809760749744, 1};
Point(p11 + 26) = {31.49940495199091, 1.777986188689524, 1};
Point(p11 + 27) = {31.61470579107745, 1.707329743624093, 1};
Point(p11 + 28) = {31.73964018868953, 1.65558022172626, 1};
Point(p11 + 29) = {31.87113184532442, 1.624011867971966, 1};
Point(p11 + 30) = {32.005943, 1.613402, 1};
Point(p11 + 31) = {32.14075415467558, 1.624011867971966, 1};
Point(p11 + 32) = {32.27224581131048, 1.65558022172626, 1};
Point(p11 + 33) = {32.39718020892255, 1.707329743624093, 1};
Point(p11 + 34) = {32.51248104800909, 1.777986188689524, 1};
Point(p11 + 35) = {32.61530923925026, 1.865809760749744, 1};
Point(p11 + 36) = {32.70313281131047, 1.968637951990906, 1};
Point(p11 + 37) = {32.77378925637591, 2.083938791077451, 1};
Point(p11 + 38) = {32.82553877827374, 2.208873188689524, 1};
Point(p11 + 39) = {32.85710713202803, 2.34036484532442, 1};
Spline(11) = {9, p11 + 1, p11 + 2, p11 + 3, p11 + 4, p11 + 5, p11 + 6, p11 + 7, p11 + 8, p11 + 9, p11 + 10, p11 + 11, p11 + 12, p11 + 13, p11 + 14, p11 + 15, p11 + 16, p11 + 17, p11 + 18, p11 + 19, p11 + 20, p11 + 21, p11 + 22, p11 + 23, p11 + 24, p11 + 25, p11 + 26, p11 + 27, p11 + 28, p11 + 29, p11 + 30, p11 + 31, p11 + 32, p11 + 33, p11 + 34, p11 + 35, p11 + 36, p11 + 37, p11 + 38, p11 + 39, 9};
Line(12) = {4, 10};
Line(13) = {10, 7};
Line(14) = {5, 10};
p15 = newp;
Point(p15 + 1) = {16.46983315961061, -0.6119659873392835, 0};
Point(p15 + 2) = {16.43471228816753, -0.4656770295920361, 0};
Point(p15 + 3) = {16.37713917808517, -0.3266832464032103, 0};
Point(p15 + 4) = {16.29853147040796, -0.1984071260088345, 0};
Point(p15 + 5) = {16.20082474778295, -0.08400725221705407, 0};
Point(p15 + 6) = {16.08642487399117, 0.01369947040796404, 0};
Point(p15 + 7) = {15.95814875359679, 0.09230717808517019, 0};
Point(p15 + 8) = {15.81915497040796, 0.1498802881675273, 0};
Point(p15 + 9) = {15.67286601266072, 0.1850011596106101, 0};
Point(p15 + 10) = {15.522884, 0.196805, 0};
Point(p15 + 11) = {15.37290198733928, 0.18500115961061, 0};
Point(p15 + 12) = {15.22661302959204, 0.1498802881675274, 0};
Point(p15 + 13) = {15.08761924640321, 0.0923071780851703, 0};
Point(p15 + 14) = {14.95934312600883, 0.01369947040796404, 0};
Point(p15 + 15) = {14.84494325221705, -0.08400725221705396, 0};
Point(p15 + 16) = {14.74723652959204, -0.1984071260088344, 0};
Point(p15 + 17) = {14.66862882191483, -0.3266832464032102, 0};
Point(p15 + 18) = {14.61105571183247, -0.4656770295920359, 0};
Point(p15 + 19) = {14.57593484038939, -0.6119659873392834, 0};
Point(p15 + 20) = {14.564131, -0.7619479999999998, 0};
Point(p15 + 21) = {14.57593484038939, -0.9119300126607163, 0};
Point(p15 + 22) = {14.61105571183247, -1.058218970407964, 0};
Point(p15 + 23) = {14.66862882191483, -1.197212753596789, 0};
Point(p15 + 24) = {14.74723652959204, -1.325488873991165, 0};
Point(p15 + 25) = {14.84494325221705, -1.439888747782946, 0};
Point(p15 + 26) = {14.95934312600883, -1.537595470407964, 0};
Point(p15 + 27) = {15.08761924640321, -1.61620317808517, 0};
Point(p15 + 28) = {15.22661302959204, -1.673776288167527, 0};
Point(p15 + 29) = {15.37290198733928, -1.70889715961061, 0};
Point(p15 + 30) = {15.522884, -1.720701, 0};
Point(p15 + 31) = {15.67286601266072, -1.70889715961061, 0};
Point(p15 + 32) = {15.81915497040796, -1.673776288167527, 0};
Point(p15 + 33) = {15.95814875359679, -1.61620317808517, 0};
Point(p15 + 34) = {16.08642487399116, -1.537595470407964, 0};
Point(p15 + 35) = {16.20082474778295, -1.439888747782946, 0};
Point(p15 + 36) = {16.29853147040796, -1.325488873991166, 0};
Point(p15 + 37) = {16.37713917808517, -1.19721275359679, 0};
Point(p15 + 38) = {16.43471228816753, -1.058218970407964, 0};
Point(p15 + 39) = {16.46983315961061, -0.9119300126607166, 0};
Spline(15) = {11, p15 + 1, p15 + 2, p15 + 3, p15 + 4, p15 + 5, p15 + 6, p15 + 7, p15 + 8, p15 + 9, p15 + 10, p15 + 11, p15 + 12, p15 + 13, p15 + 14, p15 + 15, p15 + 16, p15 + 17, p15 + 18, p15 + 19, p15 + 20, p15 + 21, p15 + 22, p15 + 23, p15 + 24, p15 + 25, p15 + 26, p15 + 27, p15 + 28, p15 + 29, p15 + 30, p15 + 31, p15 + 32, p15 + 33, p15 + 34, p15 + 35, p15 + 36, p15 + 37, p15 + 38, p15 + 39, 11};
p16 = newp;
Point(p16 + 1) = {32.85710713202803, 2.60998715467558, 0};
Point(p16 + 2) = {32.82553877827374, 2.741478811310476, 0};
Point(p16 + 3) = {32.77378925637591, 2.866413208922548, 0};
Point(p16 + 4) = {32.70313281131047, 2.981714048009094, 0};
Point(p16 + 5) = {32.61530923925026, 3.084542239250256, 0};
Point(p16 + 6) = {32.51248104800909, 3.172365811310476, 0};
Point(p16 + 7) = {32.39718020892255, 3.243022256375906, 0};
Point(p16 + 8) = {32.27224581131048, 3.29477177827374, 0};
Point(p16 + 9) = {32.14075415467558, 3.326340132028034, 0};
Point(p16 + 10) = {32.005943, 3.33695, 0};
Point(p16 + 11) = {31.87113184532442, 3.326340132028034, 0};
Point(p16 + 12) = {31.73964018868953, 3.29477177827374, 0};
Point(p16 + 13) = {31.61470579107745, 3.243022256375907, 0};
Point(p16 + 14) = {31.49940495199091, 3.172365811310476, 0};
Point(p16 + 15) = {31.39657676074975, 3.084542239250256, 0};
Point(p16 + 16) = {31.30875318868953, 2.981714048009094, 0};
Point(p16 + 17) = {31.23809674362409, 2.866413208922548, 0};
Point(p16 + 18) = {31.18634722172626, 2.741478811310476, 0};
Point(p16 + 19) = {31.15477886797197, 2.60998715467558, 0};
Point(p16 + 20) = {31.144169, 2.475176, 0};
Point(p16 + 21) = {31.15477886797197, 2.34036484532442, 0};
Point(p16 + 22) = {31.18634722172626, 2.208873188689524, 0};
Point(p16 + 23) = {31.23809674362409, 2.083938791077452, 0};
Point(p16 + 24) = {31.30875318868953, 1.968637951990906, 0};
Point(p16 + 25) = {31.39657676074975, 1.865809760749744, 0};
Point(p16 + 26) = {31.49940495199091, 1.777986188689524, 0};
Point(p16 + 27) = {31.61470579107745, 1.707329743624093, 0};
Point(p16 + 28) = {31.73964018868953, 1.65558022172626, 0};
Point(p16 + 29) = {31.87113184532442, 1.624011867971966, 0};
Point(p16 + 30) = {32.005943, 1.613402, 0};
Point(p16 + 31) = {32.14075415467558, 1.624011867971966, 0};
Point(p16 + 32) = {32.27224581131048, 1.65558022172626, 0};
Point(p16 + 33) = {32.39718020892255, 1.707329743624093, 0};
Point(p16 + 34) = {32.51248104800909, 1.777986188689524, 0};
Point(p16 + 35) = {32.61530923925026, 1.865809760749744, 0};
Point(p16 + 36) = {32.70313281131047, 1.968637951990906, 0};
Point(p16 + 37) = {32.77378925637591, 2.083938791077451, 0};
Point(p16 + 38) = {32.82553877827374, 2.208873188689524, 0};
Point(p16 + 39) = {32.85710713202803, 2.34036484532442, 0};
Spline(16) = {12, p16 + 1, p16 + 2, p16 + 3, p16 + 4, p16 + 5, p16 + 6, p16 + 7, p16 + 8, p16 + 9, p16 + 10, p16 + 11, p16 + 12, p16 + 13, p16 + 14, p16 + 15, p16 + 16, p16 + 17, p16 + 18, p16 + 19, p16 + 20, p16 + 21, p16 + 22, p16 + 23, p16 + 24, p16 + 25, p16 + 26, p16 + 27, p16 + 28, p16 + 29, p16 + 30, p16 + 31, p16 + 32, p16 + 33, p16 + 34, p16 + 35, p16 + 36, p16 + 37, p16 + 38, p16 + 39, 12};
Line(17) = {11, 8};
Line(18) = {12, 9};
Curve Loop(1) = {-1, 4, 3, -2};
Plane Surface(1) = {1};
Curve Loop(2) = {-5, 1, 7, -6};
Plane Surface(2) = {2};
Curve Loop(3) = {-2, 7, 9, -8, -10, -11};
Plane Surface(3) = {3};
Curve Loop(4) = {-12, 3, 8, -13};
Plane Surface(4) = {4};
Curve Loop(5) = {-4, 5, 14, -12, -15, -16};
Plane Surface(5) = {5};
Curve Loop(6) = {-6, 14, 13, -9};
Plane Surface(6) = {6};
Curve Loop(7) = {-10, -17, 15, 17};
Surface(7) = {7};
Curve Loop(8) = {-11, -18, 16, 18};
Surface(8) = {8};
Surface Loop(1) = {1, 2, 3, 4, 5, 6, 7, 8};
Volume(1) = {1};
Physical Surface("INFLOW") = {1};
Physical Surface("OUTFLOW") = {6};
Physical Surface("OBSTACLE") = {7, 8};
Physical Surface("WALL_Y") = {2, 4};
Physical Surface("WALL_Z") = {3, 5};
Physical Volume("FLUID") = {1};
