cl__1 = 1.338865;
cl__2 = 1.517554;
cl__3 = 0.8665;
cl__4 = 0.882176;
cl__5 = 0.05794;
cl__6 = 0.132525;
Point(1) = {0.458643, -2.901777, 1, cl__1};
Point(2) = {0.458643, -2.901777, 0, cl__1};
Point(3) = {0.458643, 4.612599, 1, cl__2};
Point(4) = {0.458643, 4.612599, 0, cl__2};
Point(5) = {35.435012, -2.901777, 0, cl__3};
Point(6) = {35.435012, -2.901777, 1, cl__3};
Point(7) = {35.435012, 4.612599, 1, cl__4};
Point(8) = {17.436265, -0.6751560000000001, 1, cl__5};
Point(9) = {23.28667, 0.4324419999999997, 1, cl__6};
Point(10) = {35.435012, 4.612599, 0, cl__4};
Point(11) = {17.436265, -0.6751560000000001, 0, cl__5};
Point(12) = {23.28667, 0.4324419999999997, 0, cl__6};
Line(1) = {2, 1};
Line(2) = {1, 3};
Line(3) = {4, 3};
Line(4) = {2, 4};
Line(5) = {2, 5};
Line(6) = {5, 6};
Line(7) = {1, 6};
Line(8) = {3, 7};
Line(9) = {6, 7};
p10 = newp;
Point(p10 + 1) = {17.42913156298253, -0.5845170887833651, 1};
Point(p10 + 2) = {17.407906900824, -0.4961100083741836, 1};
Point(p10 + 3) = {17.37311363514736, -0.4121116344984079, 1};
Point(p10 + 4) = {17.32560849162582, -0.3345902858954796, 1};
Point(p10 + 5) = {17.26656120455339, -0.2654547954466085, 1};
Point(p10 + 6) = {17.19742571410452, -0.2064075083741836, 1};
Point(p10 + 7) = {17.11990436550159, -0.1589023648526388, 1};
Point(p10 + 8) = {17.03590599162582, -0.1241090991760065, 1};
Point(p10 + 9) = {16.94749891121664, -0.1028844370174742, 1};
Point(p10 + 10) = {16.85686, -0.09575100000000003, 1};
Point(p10 + 11) = {16.76622108878336, -0.1028844370174743, 1};
Point(p10 + 12) = {16.67781400837418, -0.1241090991760065, 1};
Point(p10 + 13) = {16.59381563449841, -0.1589023648526388, 1};
Point(p10 + 14) = {16.51629428589548, -0.2064075083741836, 1};
Point(p10 + 15) = {16.44715879544661, -0.2654547954466084, 1};
Point(p10 + 16) = {16.38811150837418, -0.3345902858954796, 1};
Point(p10 + 17) = {16.34060636485264, -0.4121116344984079, 1};
Point(p10 + 18) = {16.30581309917601, -0.4961100083741835, 1};
Point(p10 + 19) = {16.28458843701748, -0.5845170887833649, 1};
Point(p10 + 20) = {16.277455, -0.6751559999999999, 1};
Point(p10 + 21) = {16.28458843701748, -0.7657949112166349, 1};
Point(p10 + 22) = {16.30581309917601, -0.8542019916258166, 1};
Point(p10 + 23) = {16.34060636485264, -0.9382003655015918, 1};
Point(p10 + 24) = {16.38811150837418, -1.01572171410452, 1};
Point(p10 + 25) = {16.44715879544661, -1.084857204553392, 1};
Point(p10 + 26) = {16.51629428589548, -1.143904491625816, 1};
Point(p10 + 27) = {16.59381563449841, -1.191409635147361, 1};
Point(p10 + 28) = {16.67781400837418, -1.226202900823993, 1};
Point(p10 + 29) = {16.76622108878336, -1.247427562982526, 1};
Point(p10 + 30) = {16.85686, -1.254561, 1};
Point(p10 + 31) = {16.94749891121664, -1.247427562982526, 1};
Point(p10 + 32) = {17.03590599162582, -1.226202900823993, 1};
Point(p10 + 33) = {17.11990436550159, -1.191409635147361, 1};
Point(p10 + 34) = {17.19742571410452, -1.143904491625817, 1};
Point(p10 + 35) = {17.26656120455339, -1.084857204553392, 1};
Point(p10 + 36) = {17.32560849162582, -1.015721714104521, 1};
Point(p10 + 37) = {17.37311363514736, -0.9382003655015922, 1};
Point(p10 + 38) = {17.407906900824, -0.8542019916258164, 1};
Point(p10 + 39) = {17.42913156298253, -0.7657949112166351, 1};
Spline(10) = {8, p10 + 1, p10 + 2, p10 + 3, p10 + 4, p10 + 5, p10 + 6, p10 + 7, p10 + 8, p10 + 9, p10 + 10, p10 + 11, p10 + 12, p10 + 13, p10 + 14, p10 + 15, p10 + 16, p10 + 17, p10 + 18, p10 + 19, p10 + 20, p10 + 21, p10 + 22, p10 + 23, p10 + 24, p10 + 25, p10 + 26, p10 + 27, p10 + 28, p10 + 29, p10 + 30, p10 + 31, p10 + 32, p10 + 33, p10 + 34, p10 + 35, p10 + 36, p10 + 37, p10 + 38, p10 + 39, 8};
p11 = newp;
Point(p11 + 1) = {23.27035393643873, 0.6397572440979611, 1};
Point(p11 + 2) = {23.2218075013897, 0.8419676988463822, 1};
Point(p11 + 3) = {23.14222606920021, 1.034094271751334, 1};
Point(p11 + 4) = {23.03356919884638, 1.211406168956357, 1};
Point(p11 + 5) = {22.89851238308782, 1.369537383087815, 1};
Point(p11 + 6) = {22.74038116895636, 1.504594198846382, 1};
Point(p11 + 7) = {22.56306927175133, 1.613251069200207, 1};
Point(p11 + 8) = {22.37094269884638, 1.692832501389701, 1};
Point(p11 + 9) = {22.16873224409796, 1.741378936438728, 1};
Point(p11 + 10) = {21.961417, 1.757695, 1};
Point(p11 + 11) = {21.75410175590204, 1.741378936438728, 1};
Point(p11 + 12) = {21.55189130115362, 1.692832501389701, 1};
Point(p11 + 13) = {21.35976472824867, 1.613251069200207, 1};
Point(p11 + 14) = {21.18245283104364, 1.504594198846382, 1};
Point(p11 + 15) = {21.02432161691219, 1.369537383087816, 1};
Point(p11 + 16) = {20.88926480115362, 1.211406168956357, 1};
Point(p11 + 17) = {20.78060793079979, 1.034094271751334, 1};
Point(p11 + 18) = {20.7010264986103, 0.8419676988463822, 1};
Point(p11 + 19) = {20.65248006356127, 0.6397572440979612, 1};
Point(p11 + 20) = {20.636164, 0.4324420000000002, 1};
Point(p11 + 21) = {20.65248006356127, 0.2251267559020391, 1};
Point(p11 + 22) = {20.7010264986103, 0.02291630115361737, 1};
Point(p11 + 23) = {20.78060793079979, -0.1692102717513329, 1};
Point(p11 + 24) = {20.88926480115362, -0.3465221689563568, 1};
Point(p11 + 25) = {21.02432161691219, -0.5046533830878156, 1};
Point(p11 + 26) = {21.18245283104364, -0.639710198846382, 1};
Point(p11 + 27) = {21.35976472824867, -0.7483670692002069, 1};
Point(p11 + 28) = {21.55189130115362, -0.8279485013897012, 1};
Point(p11 + 29) = {21.75410175590204, -0.876494936438728, 1};
Point(p11 + 30) = {21.961417, -0.892811, 1};
Point(p11 + 31) = {22.16873224409796, -0.8764949364387282, 1};
Point(p11 + 32) = {22.37094269884638, -0.8279485013897012, 1};
Point(p11 + 33) = {22.56306927175133, -0.7483670692002071, 1};
Point(p11 + 34) = {22.74038116895636, -0.6397101988463825, 1};
Point(p11 + 35) = {22.89851238308782, -0.5046533830878159, 1};
Point(p11 + 36) = {23.03356919884638, -0.3465221689563572, 1};
Point(p11 + 37) = {23.14222606920021, -0.1692102717513339, 1};
Point(p11 + 38) = {23.2218075013897, 0.02291630115361754, 1};
Point(p11 + 39) = {23.27035393643873, 0.2251267559020386, 1};
Spline(11) = {9, p11 + 1, p11 + 2, p11 + 3, p11 + 4, p11 + 5, p11 + 6, p11 + 7, p11 + 8, p11 + 9, p11 + 10, p11 + 11, p11 + 12, p11 + 13, p11 + 14, p11 + 15, p11 + 16, p11 + 17, p11 + 18, p11 + 19, p11 + 20, p11 + 21, p11 + 22, p11 + 23, p11 + 24, p11 + 25, p11 + 26, p11 + 27, p11 + 28, p11 + 29, p11 + 30, p11 + 31, p11 + 32, p11 + 33, p11 + 34, p11 + 35, p11 + 36, p11 + 37, p11 + 38, p11 + 39, 9};
Line(12) = {4, 10};
Line(13) = {10, 7};
Line(14) = {5, 10};
p15 = newp;
Point(p15 + 1) = {17.42913156298253, -0.5845170887833651, 0};
Point(p15 + 2) = {17.407906900824, -0.4961100083741836, 0};
Point(p15 + 3) = {17.37311363514736, -0.4121116344984079, 0};
Point(p15 + 4) = {17.32560849162582, -0.3345902858954796, 0};
Point(p15 + 5) = {17.26656120455339, -0.2654547954466085, 0};
Point(p15 + 6) = {17.19742571410452, -0.2064075083741836, 0};
Point(p15 + 7) = {17.11990436550159, -0.1589023648526388, 0};
Point(p15 + 8) = {17.03590599162582, -0.1241090991760065, 0};
Point(p15 + 9) = {16.94749891121664, -0.1028844370174742, 0};
Point(p15 + 10) = {16.85686, -0.09575100000000003, 0};
Point(p15 + 11) = {16.76622108878336, -0.1028844370174743, 0};
Point(p15 + 12) = {16.67781400837418, -0.1241090991760065, 0};
Point(p15 + 13) = {16.59381563449841, -0.1589023648526388, 0};
Point(p15 + 14) = {16.51629428589548, -0.2064075083741836, 0};
Point(p15 + 15) = {16.44715879544661, -0.2654547954466084, 0};
Point(p15 + 16) = {16.38811150837418, -0.3345902858954796, 0};
Point(p15 + 17) = {16.34060636485264, -0.4121116344984079, 0};
Point(p15 + 18) = {16.30581309917601, -0.4961100083741835, 0};
Point(p15 + 19) = {16.28458843701748, -0.5845170887833649, 0};
Point(p15 + 20) = {16.277455, -0.6751559999999999, 0};
Point(p15 + 21) = {16.28458843701748, -0.7657949112166349, 0};
Point(p15 + 22) = {16.30581309917601, -0.8542019916258166, 0};
Point(p15 + 23) = {16.34060636485264, -0.9382003655015918, 0};
Point(p15 + 24) = {16.38811150837418, -1.01572171410452, 0};
Point(p15 + 25) = {16.44715879544661, -1.084857204553392, 0};
Point(p15 + 26) = {16.51629428589548, -1.143904491625816, 0};
Point(p15 + 27) = {16.59381563449841, -1.191409635147361, 0};
Point(p15 + 28) = {16.67781400837418, -1.226202900823993, 0};
Point(p15 + 29) = {16.76622108878336, -1.247427562982526, 0};
Point(p15 + 30) = {16.85686, -1.254561, 0};
Point(p15 + 31) = {16.94749891121664, -1.247427562982526, 0};
Point(p15 + 32) = {17.03590599162582, -1.226202900823993, 0};
Point(p15 + 33) = {17.11990436550159, -1.191409635147361, 0};
Point(p15 + 34) = {17.19742571410452, -1.143904491625817, 0};
Point(p15 + 35) = {17.26656120455339, -1.084857204553392, 0};
Point(p15 + 36) = {17.32560849162582, -1.015721714104521, 0};
Point(p15 + 37) = {17.37311363514736, -0.9382003655015922, 0};
Point(p15 + 38) = {17.407906900824, -0.8542019916258164, 0};
Point(p15 + 39) = {17.42913156298253, -0.7657949112166351, 0};
Spline(15) = {11, p15 + 1, p15 + 2, p15 + 3, p15 + 4, p15 + 5, p15 + 6, p15 + 7, p15 + 8, p15 + 9, p15 + 10, p15 + 11, p15 + 12, p15 + 13, p15 + 14, p15 + 15, p15 + 16, p15 + 17, p15 + 18, p15 + 19, p15 + 20, p15 + 21, p15 + 22, p15 + 23, p15 + 24, p15 + 25, p15 + 26, p15 + 27, p15 + 28, p15 + 29, p15 + 30, p15 + 31, p15 + 32, p15 + 33, p15 + 34, p15 + 35, p15 + 36, p15 + 37, p15 + 38, p15 + 39, 11};
p16 = newp;
Point(p16 + 1) = {23.27035393643873, 0.6397572440979611, 0};
Point(p16 + 2) = {23.2218075013897, 0.8419676988463822, 0};
Point(p16 + 3) = {23.14222606920021, 1.034094271751334, 0};
Point(p16 + 4) = {23.03356919884638, 1.211406168956357, 0};
Point(p16 + 5) = {22.89851238308782, 1.369537383087815, 0};
Point(p16 + 6) = {22.74038116895636, 1.504594198846382, 0};
Point(p16 + 7) = {22.56306927175133, 1.613251069200207, 0};
Point(p16 + 8) = {22.37094269884638, 1.692832501389701, 0};
Point(p16 + 9) = {22.16873224409796, 1.741378936438728, 0};
Point(p16 + 10) = {21.961417, 1.757695, 0};
Point(p16 + 11) = {21.75410175590204, 1.741378936438728, 0};
Point(p16 + 12) = {21.55189130115362, 1.692832501389701, 0};
Point(p16 + 13) = {21.35976472824867, 1.613251069200207, 0};
Point(p16 + 14) = {21.18245283104364, 1.504594198846382, 0};
Point(p16 + 15) = {21.02432161691219, 1.369537383087816, 0};
Point(p16 + 16) = {20.88926480115362, 1.211406168956357, 0};
Point(p16 + 17) = {20.78060793079979, 1.034094271751334, 0};
Point(p16 + 18) = {20.7010264986103, 0.8419676988463822, 0};
Point(p16 + 19) = {20.65248006356127, 0.6397572440979612, 0};
Point(p16 + 20) = {20.636164, 0.4324420000000002, 0};
Point(p16 + 21) = {20.65248006356127, 0.2251267559020391, 0};
Point(p16 + 22) = {20.7010264986103, 0.02291630115361737, 0};
Point(p16 + 23) = {20.78060793079979, -0.1692102717513329, 0};
Point(p16 + 24) = {20.88926480115362, -0.3465221689563568, 0};
Point(p16 + 25) = {21.02432161691219, -0.5046533830878156, 0};
Point(p16 + 26) = {21.18245283104364, -0.639710198846382, 0};
Point(p16 + 27) = {21.35976472824867, -0.7483670692002069, 0};
Point(p16 + 28) = {21.55189130115362, -0.8279485013897012, 0};
Point(p16 + 29) = {21.75410175590204, -0.876494936438728, 0};
Point(p16 + 30) = {21.961417, -0.892811, 0};
Point(p16 + 31) = {22.16873224409796, -0.8764949364387282, 0};
Point(p16 + 32) = {22.37094269884638, -0.8279485013897012, 0};
Point(p16 + 33) = {22.56306927175133, -0.7483670692002071, 0};
Point(p16 + 34) = {22.74038116895636, -0.6397101988463825, 0};
Point(p16 + 35) = {22.89851238308782, -0.5046533830878159, 0};
Point(p16 + 36) = {23.03356919884638, -0.3465221689563572, 0};
Point(p16 + 37) = {23.14222606920021, -0.1692102717513339, 0};
Point(p16 + 38) = {23.2218075013897, 0.02291630115361754, 0};
Point(p16 + 39) = {23.27035393643873, 0.2251267559020386, 0};
Spline(16) = {12, p16 + 1, p16 + 2, p16 + 3, p16 + 4, p16 + 5, p16 + 6, p16 + 7, p16 + 8, p16 + 9, p16 + 10, p16 + 11, p16 + 12, p16 + 13, p16 + 14, p16 + 15, p16 + 16, p16 + 17, p16 + 18, p16 + 19, p16 + 20, p16 + 21, p16 + 22, p16 + 23, p16 + 24, p16 + 25, p16 + 26, p16 + 27, p16 + 28, p16 + 29, p16 + 30, p16 + 31, p16 + 32, p16 + 33, p16 + 34, p16 + 35, p16 + 36, p16 + 37, p16 + 38, p16 + 39, 12};
Line(17) = {11, 8};
Line(18) = {12, 9};
Curve Loop(1) = {-1, 4, 3, -2};
Plane Surface(1) = {1};
Curve Loop(2) = {-5, 1, 7, -6};
Plane Surface(2) = {2};
Curve Loop(3) = {-2, 7, 9, -8, -10, -11};
Plane Surface(3) = {3};
Curve Loop(4) = {-12, 3, 8, -13};
Plane Surface(4) = {4};
Curve Loop(5) = {-4, 5, 14, -12, -15, -16};
Plane Surface(5) = {5};
Curve Loop(6) = {-6, 14, 13, -9};
Plane Surface(6) = {6};
Curve Loop(7) = {-10, -17, 15, 17};
Surface(7) = {7};
Curve Loop(8) = {-11, -18, 16, 18};
Surface(8) = {8};
Surface Loop(1) = {1, 2, 3, 4, 5, 6, 7, 8};
Volume(1) = {1};
Physical Surface("INFLOW") = {1};
Physical Surface("OUTFLOW") = {6};
Physical Surface("OBSTACLE") = {7, 8};
Physical Surface("WALL_Y") = {2, 4};
Physical Surface("WALL_Z") = {3, 5};
Physical Volume("FLUID") = {1};
