cl__1 = 0.403163;
cl__2 = 0.5516180000000001;
cl__3 = 3.903615;
cl__4 = 3.18088;
cl__5 = 0.136405;
cl__6 = 0.06626600000000001;
Point(1) = {0.884552, -3.939448, 1, cl__1};
Point(2) = {0.884552, -3.939448, 0, cl__1};
Point(3) = {0.884552, 4.925611999999999, 1, cl__2};
Point(4) = {0.884552, 4.925611999999999, 0, cl__2};
Point(5) = {33.787126, -3.939448, 0, cl__3};
Point(6) = {33.787126, -3.939448, 1, cl__3};
Point(7) = {33.787126, 4.925611999999999, 1, cl__4};
Point(8) = {4.79103, -0.1818290000000003, 1, cl__5};
Point(9) = {22.657047, 1.659188, 1, cl__6};
Point(10) = {33.787126, 4.925611999999999, 0, cl__4};
Point(11) = {4.79103, -0.1818290000000003, 0, cl__5};
Point(12) = {22.657047, 1.659188, 0, cl__6};
Line(1) = {2, 1};
Line(2) = {1, 3};
Line(3) = {4, 3};
Line(4) = {2, 4};
Line(5) = {2, 5};
Line(6) = {5, 6};
Line(7) = {1, 6};
Line(8) = {3, 7};
Line(9) = {6, 7};
p10 = newp;
Point(p10 + 1) = {4.774236268677138, 0.03155558847259196, 1};
Point(p10 + 2) = {4.72426859210892, 0.2396859401941413, 1};
Point(p10 + 3) = {4.642357340325668, 0.4374371951602284, 1};
Point(p10 + 4) = {4.530519440194142, 0.6199400611748002, 1};
Point(p10 + 5) = {4.391508711984292, 0.7827007119842911, 1};
Point(p10 + 6) = {4.228748061174801, 0.9217114401941413, 1};
Point(p10 + 7) = {4.046245195160228, 1.033549340325667, 1};
Point(p10 + 8) = {3.848493940194142, 1.11546059210892, 1};
Point(p10 + 9) = {3.640363588472592, 1.165428268677138, 1};
Point(p10 + 10) = {3.426979, 1.182222, 1};
Point(p10 + 11) = {3.213594411527408, 1.165428268677138, 1};
Point(p10 + 12) = {3.005464059805859, 1.11546059210892, 1};
Point(p10 + 13) = {2.807712804839772, 1.033549340325667, 1};
Point(p10 + 14) = {2.6252099388252, 0.9217114401941413, 1};
Point(p10 + 15) = {2.462449288015709, 0.7827007119842914, 1};
Point(p10 + 16) = {2.323438559805859, 0.6199400611748004, 1};
Point(p10 + 17) = {2.211600659674333, 0.4374371951602286, 1};
Point(p10 + 18) = {2.12968940789108, 0.2396859401941415, 1};
Point(p10 + 19) = {2.079721731322862, 0.0315555884725921, 1};
Point(p10 + 20) = {2.062928, -0.1818289999999998, 1};
Point(p10 + 21) = {2.079721731322862, -0.3952135884725917, 1};
Point(p10 + 22) = {2.12968940789108, -0.6033439401941418, 1};
Point(p10 + 23) = {2.211600659674333, -0.8010951951602278, 1};
Point(p10 + 24) = {2.323438559805859, -0.9835980611748001, 1};
Point(p10 + 25) = {2.462449288015709, -1.146358711984291, 1};
Point(p10 + 26) = {2.6252099388252, -1.285369440194141, 1};
Point(p10 + 27) = {2.807712804839772, -1.397207340325667, 1};
Point(p10 + 28) = {3.005464059805859, -1.47911859210892, 1};
Point(p10 + 29) = {3.213594411527408, -1.529086268677138, 1};
Point(p10 + 30) = {3.426979, -1.54588, 1};
Point(p10 + 31) = {3.640363588472592, -1.529086268677138, 1};
Point(p10 + 32) = {3.848493940194141, -1.47911859210892, 1};
Point(p10 + 33) = {4.046245195160228, -1.397207340325667, 1};
Point(p10 + 34) = {4.2287480611748, -1.285369440194142, 1};
Point(p10 + 35) = {4.391508711984291, -1.146358711984292, 1};
Point(p10 + 36) = {4.530519440194142, -0.9835980611748005, 1};
Point(p10 + 37) = {4.642357340325668, -0.8010951951602288, 1};
Point(p10 + 38) = {4.72426859210892, -0.6033439401941416, 1};
Point(p10 + 39) = {4.774236268677138, -0.3952135884725922, 1};
Spline(10) = {8, p10 + 1, p10 + 2, p10 + 3, p10 + 4, p10 + 5, p10 + 6, p10 + 7, p10 + 8, p10 + 9, p10 + 10, p10 + 11, p10 + 12, p10 + 13, p10 + 14, p10 + 15, p10 + 16, p10 + 17, p10 + 18, p10 + 19, p10 + 20, p10 + 21, p10 + 22, p10 + 23, p10 + 24, p10 + 25, p10 + 26, p10 + 27, p10 + 28, p10 + 29, p10 + 30, p10 + 31, p10 + 32, p10 + 33, p10 + 34, p10 + 35, p10 + 36, p10 + 37, p10 + 38, p10 + 39, 8};
p11 = newp;
Point(p11 + 1) = {22.64888859271375, 1.762850393300164, 1};
Point(p11 + 2) = {22.6246142579186, 1.86396027444152, 1};
Point(p11 + 3) = {22.58482171029909, 1.960027982585909, 1};
Point(p11 + 4) = {22.53049077444152, 2.048688011928374, 1};
Point(p11 + 5) = {22.46295925830073, 2.127757258300734, 1};
Point(p11 + 6) = {22.38389001192837, 2.195288774441519, 1};
Point(p11 + 7) = {22.29522998258591, 2.249619710299092, 1};
Point(p11 + 8) = {22.19916227444152, 2.289412257918598, 1};
Point(p11 + 9) = {22.09805239330016, 2.313686592713752, 1};
Point(p11 + 10) = {21.99439, 2.321845, 1};
Point(p11 + 11) = {21.89072760669983, 2.313686592713752, 1};
Point(p11 + 12) = {21.78961772555848, 2.289412257918598, 1};
Point(p11 + 13) = {21.69355001741409, 2.249619710299092, 1};
Point(p11 + 14) = {21.60488998807163, 2.195288774441519, 1};
Point(p11 + 15) = {21.52582074169927, 2.127757258300734, 1};
Point(p11 + 16) = {21.45828922555848, 2.048688011928374, 1};
Point(p11 + 17) = {21.40395828970091, 1.960027982585909, 1};
Point(p11 + 18) = {21.3641657420814, 1.86396027444152, 1};
Point(p11 + 19) = {21.33989140728625, 1.762850393300164, 1};
Point(p11 + 20) = {21.331733, 1.659188, 1};
Point(p11 + 21) = {21.33989140728625, 1.555525606699836, 1};
Point(p11 + 22) = {21.3641657420814, 1.45441572555848, 1};
Point(p11 + 23) = {21.40395828970091, 1.358348017414092, 1};
Point(p11 + 24) = {21.45828922555848, 1.269687988071627, 1};
Point(p11 + 25) = {21.52582074169926, 1.190618741699266, 1};
Point(p11 + 26) = {21.60488998807163, 1.123087225558481, 1};
Point(p11 + 27) = {21.69355001741409, 1.068756289700909, 1};
Point(p11 + 28) = {21.78961772555848, 1.028963742081403, 1};
Point(p11 + 29) = {21.89072760669983, 1.004689407286248, 1};
Point(p11 + 30) = {21.99439, 0.9965310000000001, 1};
Point(p11 + 31) = {22.09805239330016, 1.004689407286248, 1};
Point(p11 + 32) = {22.19916227444152, 1.028963742081402, 1};
Point(p11 + 33) = {22.29522998258591, 1.068756289700909, 1};
Point(p11 + 34) = {22.38389001192837, 1.12308722555848, 1};
Point(p11 + 35) = {22.46295925830073, 1.190618741699266, 1};
Point(p11 + 36) = {22.53049077444152, 1.269687988071627, 1};
Point(p11 + 37) = {22.58482171029909, 1.358348017414091, 1};
Point(p11 + 38) = {22.6246142579186, 1.45441572555848, 1};
Point(p11 + 39) = {22.64888859271375, 1.555525606699836, 1};
Spline(11) = {9, p11 + 1, p11 + 2, p11 + 3, p11 + 4, p11 + 5, p11 + 6, p11 + 7, p11 + 8, p11 + 9, p11 + 10, p11 + 11, p11 + 12, p11 + 13, p11 + 14, p11 + 15, p11 + 16, p11 + 17, p11 + 18, p11 + 19, p11 + 20, p11 + 21, p11 + 22, p11 + 23, p11 + 24, p11 + 25, p11 + 26, p11 + 27, p11 + 28, p11 + 29, p11 + 30, p11 + 31, p11 + 32, p11 + 33, p11 + 34, p11 + 35, p11 + 36, p11 + 37, p11 + 38, p11 + 39, 9};
Line(12) = {4, 10};
Line(13) = {10, 7};
Line(14) = {5, 10};
p15 = newp;
Point(p15 + 1) = {4.774236268677138, 0.03155558847259196, 0};
Point(p15 + 2) = {4.72426859210892, 0.2396859401941413, 0};
Point(p15 + 3) = {4.642357340325668, 0.4374371951602284, 0};
Point(p15 + 4) = {4.530519440194142, 0.6199400611748002, 0};
Point(p15 + 5) = {4.391508711984292, 0.7827007119842911, 0};
Point(p15 + 6) = {4.228748061174801, 0.9217114401941413, 0};
Point(p15 + 7) = {4.046245195160228, 1.033549340325667, 0};
Point(p15 + 8) = {3.848493940194142, 1.11546059210892, 0};
Point(p15 + 9) = {3.640363588472592, 1.165428268677138, 0};
Point(p15 + 10) = {3.426979, 1.182222, 0};
Point(p15 + 11) = {3.213594411527408, 1.165428268677138, 0};
Point(p15 + 12) = {3.005464059805859, 1.11546059210892, 0};
Point(p15 + 13) = {2.807712804839772, 1.033549340325667, 0};
Point(p15 + 14) = {2.6252099388252, 0.9217114401941413, 0};
Point(p15 + 15) = {2.462449288015709, 0.7827007119842914, 0};
Point(p15 + 16) = {2.323438559805859, 0.6199400611748004, 0};
Point(p15 + 17) = {2.211600659674333, 0.4374371951602286, 0};
Point(p15 + 18) = {2.12968940789108, 0.2396859401941415, 0};
Point(p15 + 19) = {2.079721731322862, 0.0315555884725921, 0};
Point(p15 + 20) = {2.062928, -0.1818289999999998, 0};
Point(p15 + 21) = {2.079721731322862, -0.3952135884725917, 0};
Point(p15 + 22) = {2.12968940789108, -0.6033439401941418, 0};
Point(p15 + 23) = {2.211600659674333, -0.8010951951602278, 0};
Point(p15 + 24) = {2.323438559805859, -0.9835980611748001, 0};
Point(p15 + 25) = {2.462449288015709, -1.146358711984291, 0};
Point(p15 + 26) = {2.6252099388252, -1.285369440194141, 0};
Point(p15 + 27) = {2.807712804839772, -1.397207340325667, 0};
Point(p15 + 28) = {3.005464059805859, -1.47911859210892, 0};
Point(p15 + 29) = {3.213594411527408, -1.529086268677138, 0};
Point(p15 + 30) = {3.426979, -1.54588, 0};
Point(p15 + 31) = {3.640363588472592, -1.529086268677138, 0};
Point(p15 + 32) = {3.848493940194141, -1.47911859210892, 0};
Point(p15 + 33) = {4.046245195160228, -1.397207340325667, 0};
Point(p15 + 34) = {4.2287480611748, -1.285369440194142, 0};
Point(p15 + 35) = {4.391508711984291, -1.146358711984292, 0};
Point(p15 + 36) = {4.530519440194142, -0.9835980611748005, 0};
Point(p15 + 37) = {4.642357340325668, -0.8010951951602288, 0};
Point(p15 + 38) = {4.72426859210892, -0.6033439401941416, 0};
Point(p15 + 39) = {4.774236268677138, -0.3952135884725922, 0};
Spline(15) = {11, p15 + 1, p15 + 2, p15 + 3, p15 + 4, p15 + 5, p15 + 6, p15 + 7, p15 + 8, p15 + 9, p15 + 10, p15 + 11, p15 + 12, p15 + 13, p15 + 14, p15 + 15, p15 + 16, p15 + 17, p15 + 18, p15 + 19, p15 + 20, p15 + 21, p15 + 22, p15 + 23, p15 + 24, p15 + 25, p15 + 26, p15 + 27, p15 + 28, p15 + 29, p15 + 30, p15 + 31, p15 + 32, p15 + 33, p15 + 34, p15 + 35, p15 + 36, p15 + 37, p15 + 38, p15 + 39, 11};
p16 = newp;
Point(p16 + 1) = {22.64888859271375, 1.762850393300164, 0};
Point(p16 + 2) = {22.6246142579186, 1.86396027444152, 0};
Point(p16 + 3) = {22.58482171029909, 1.960027982585909, 0};
Point(p16 + 4) = {22.53049077444152, 2.048688011928374, 0};
Point(p16 + 5) = {22.46295925830073, 2.127757258300734, 0};
Point(p16 + 6) = {22.38389001192837, 2.195288774441519, 0};
Point(p16 + 7) = {22.29522998258591, 2.249619710299092, 0};
Point(p16 + 8) = {22.19916227444152, 2.289412257918598, 0};
Point(p16 + 9) = {22.09805239330016, 2.313686592713752, 0};
Point(p16 + 10) = {21.99439, 2.321845, 0};
Point(p16 + 11) = {21.89072760669983, 2.313686592713752, 0};
Point(p16 + 12) = {21.78961772555848, 2.289412257918598, 0};
Point(p16 + 13) = {21.69355001741409, 2.249619710299092, 0};
Point(p16 + 14) = {21.60488998807163, 2.195288774441519, 0};
Point(p16 + 15) = {21.52582074169927, 2.127757258300734, 0};
Point(p16 + 16) = {21.45828922555848, 2.048688011928374, 0};
Point(p16 + 17) = {21.40395828970091, 1.960027982585909, 0};
Point(p16 + 18) = {21.3641657420814, 1.86396027444152, 0};
Point(p16 + 19) = {21.33989140728625, 1.762850393300164, 0};
Point(p16 + 20) = {21.331733, 1.659188, 0};
Point(p16 + 21) = {21.33989140728625, 1.555525606699836, 0};
Point(p16 + 22) = {21.3641657420814, 1.45441572555848, 0};
Point(p16 + 23) = {21.40395828970091, 1.358348017414092, 0};
Point(p16 + 24) = {21.45828922555848, 1.269687988071627, 0};
Point(p16 + 25) = {21.52582074169926, 1.190618741699266, 0};
Point(p16 + 26) = {21.60488998807163, 1.123087225558481, 0};
Point(p16 + 27) = {21.69355001741409, 1.068756289700909, 0};
Point(p16 + 28) = {21.78961772555848, 1.028963742081403, 0};
Point(p16 + 29) = {21.89072760669983, 1.004689407286248, 0};
Point(p16 + 30) = {21.99439, 0.9965310000000001, 0};
Point(p16 + 31) = {22.09805239330016, 1.004689407286248, 0};
Point(p16 + 32) = {22.19916227444152, 1.028963742081402, 0};
Point(p16 + 33) = {22.29522998258591, 1.068756289700909, 0};
Point(p16 + 34) = {22.38389001192837, 1.12308722555848, 0};
Point(p16 + 35) = {22.46295925830073, 1.190618741699266, 0};
Point(p16 + 36) = {22.53049077444152, 1.269687988071627, 0};
Point(p16 + 37) = {22.58482171029909, 1.358348017414091, 0};
Point(p16 + 38) = {22.6246142579186, 1.45441572555848, 0};
Point(p16 + 39) = {22.64888859271375, 1.555525606699836, 0};
Spline(16) = {12, p16 + 1, p16 + 2, p16 + 3, p16 + 4, p16 + 5, p16 + 6, p16 + 7, p16 + 8, p16 + 9, p16 + 10, p16 + 11, p16 + 12, p16 + 13, p16 + 14, p16 + 15, p16 + 16, p16 + 17, p16 + 18, p16 + 19, p16 + 20, p16 + 21, p16 + 22, p16 + 23, p16 + 24, p16 + 25, p16 + 26, p16 + 27, p16 + 28, p16 + 29, p16 + 30, p16 + 31, p16 + 32, p16 + 33, p16 + 34, p16 + 35, p16 + 36, p16 + 37, p16 + 38, p16 + 39, 12};
Line(17) = {11, 8};
Line(18) = {12, 9};
Curve Loop(1) = {-1, 4, 3, -2};
Plane Surface(1) = {1};
Curve Loop(2) = {-5, 1, 7, -6};
Plane Surface(2) = {2};
Curve Loop(3) = {-2, 7, 9, -8, -10, -11};
Plane Surface(3) = {3};
Curve Loop(4) = {-12, 3, 8, -13};
Plane Surface(4) = {4};
Curve Loop(5) = {-4, 5, 14, -12, -15, -16};
Plane Surface(5) = {5};
Curve Loop(6) = {-6, 14, 13, -9};
Plane Surface(6) = {6};
Curve Loop(7) = {-10, -17, 15, 17};
Surface(7) = {7};
Curve Loop(8) = {-11, -18, 16, 18};
Surface(8) = {8};
Surface Loop(1) = {1, 2, 3, 4, 5, 6, 7, 8};
Volume(1) = {1};
Physical Surface("INFLOW") = {1};
Physical Surface("OUTFLOW") = {6};
Physical Surface("OBSTACLE") = {7, 8};
Physical Surface("WALL_Y") = {2, 4};
Physical Surface("WALL_Z") = {3, 5};
Physical Volume("FLUID") = {1};
