cl__1 = 0.345788;
cl__2 = 0.3485;
cl__3 = 4.612711;
cl__4 = 4.419647;
cl__5 = 0.103515;
cl__6 = 0.140794;
Point(1) = {0.413301, -3.9961, 1, cl__1};
Point(2) = {0.413301, -3.9961, 0, cl__1};
Point(3) = {0.413301, 5.430814999999999, 1, cl__2};
Point(4) = {0.413301, 5.430814999999999, 0, cl__2};
Point(5) = {31.005449, -3.9961, 0, cl__3};
Point(6) = {31.005449, -3.9961, 1, cl__3};
Point(7) = {31.005449, 5.430814999999999, 1, cl__4};
Point(8) = {3.808922, 0.6988489999999998, 1, cl__5};
Point(9) = {11.365886, 1.375367, 1, cl__6};
Point(10) = {31.005449, 5.430814999999999, 0, cl__4};
Point(11) = {3.808922, 0.6988489999999998, 0, cl__5};
Point(12) = {11.365886, 1.375367, 0, cl__6};
Line(1) = {2, 1};
Line(2) = {1, 3};
Line(3) = {4, 3};
Line(4) = {2, 4};
Line(5) = {2, 5};
Line(6) = {5, 6};
Line(7) = {1, 6};
Line(8) = {3, 7};
Line(9) = {6, 7};
p10 = newp;
Point(p10 + 1) = {3.796177561143738, 0.8607824493553251, 1};
Point(p10 + 2) = {3.758258054955961, 1.018728559761216, 1};
Point(p10 + 3) = {3.696097185526638, 1.168798173786391, 1};
Point(p10 + 4) = {3.611225559761215, 1.307296079481058, 1};
Point(p10 + 5) = {3.505732998758817, 1.430811998758817, 1};
Point(p10 + 6) = {3.382217079481058, 1.536304559761216, 1};
Point(p10 + 7) = {3.243719173786391, 1.621176185526637, 1};
Point(p10 + 8) = {3.093649559761215, 1.683337054955961, 1};
Point(p10 + 9) = {2.935703449355325, 1.721256561143738, 1};
Point(p10 + 10) = {2.77377, 1.734001, 1};
Point(p10 + 11) = {2.611836550644675, 1.721256561143738, 1};
Point(p10 + 12) = {2.453890440238784, 1.683337054955961, 1};
Point(p10 + 13) = {2.303820826213609, 1.621176185526638, 1};
Point(p10 + 14) = {2.165322920518942, 1.536304559761216, 1};
Point(p10 + 15) = {2.041807001241183, 1.430811998758817, 1};
Point(p10 + 16) = {1.936314440238784, 1.307296079481058, 1};
Point(p10 + 17) = {1.851442814473363, 1.168798173786392, 1};
Point(p10 + 18) = {1.789281945044039, 1.018728559761216, 1};
Point(p10 + 19) = {1.751362438856262, 0.8607824493553252, 1};
Point(p10 + 20) = {1.738618, 0.6988490000000002, 1};
Point(p10 + 21) = {1.751362438856262, 0.5369155506446751, 1};
Point(p10 + 22) = {1.789281945044039, 0.3789694402387841, 1};
Point(p10 + 23) = {1.851442814473362, 0.2288998262136092, 1};
Point(p10 + 24) = {1.936314440238784, 0.09040192051894202, 1};
Point(p10 + 25) = {2.041807001241183, -0.03311399875881693, 1};
Point(p10 + 26) = {2.165322920518942, -0.1386065597612155, 1};
Point(p10 + 27) = {2.303820826213608, -0.2234781855266373, 1};
Point(p10 + 28) = {2.453890440238784, -0.2856390549559608, 1};
Point(p10 + 29) = {2.611836550644675, -0.3235585611437379, 1};
Point(p10 + 30) = {2.77377, -0.336303, 1};
Point(p10 + 31) = {2.935703449355325, -0.3235585611437382, 1};
Point(p10 + 32) = {3.093649559761215, -0.2856390549559609, 1};
Point(p10 + 33) = {3.243719173786391, -0.2234781855266375, 1};
Point(p10 + 34) = {3.382217079481058, -0.1386065597612157, 1};
Point(p10 + 35) = {3.505732998758817, -0.03311399875881715, 1};
Point(p10 + 36) = {3.611225559761215, 0.09040192051894158, 1};
Point(p10 + 37) = {3.696097185526637, 0.2288998262136085, 1};
Point(p10 + 38) = {3.758258054955961, 0.3789694402387843, 1};
Point(p10 + 39) = {3.796177561143738, 0.5369155506446748, 1};
Spline(10) = {8, p10 + 1, p10 + 2, p10 + 3, p10 + 4, p10 + 5, p10 + 6, p10 + 7, p10 + 8, p10 + 9, p10 + 10, p10 + 11, p10 + 12, p10 + 13, p10 + 14, p10 + 15, p10 + 16, p10 + 17, p10 + 18, p10 + 19, p10 + 20, p10 + 21, p10 + 22, p10 + 23, p10 + 24, p10 + 25, p10 + 26, p10 + 27, p10 + 28, p10 + 29, p10 + 30, p10 + 31, p10 + 32, p10 + 33, p10 + 34, p10 + 35, p10 + 36, p10 + 37, p10 + 38, p10 + 39, 8};
p11 = newp;
Point(p11 + 1) = {11.34855195919249, 1.595616871405348, 1};
Point(p11 + 2) = {11.29697665838305, 1.81044346000928, 1};
Point(p11 + 3) = {11.2124300526462, 2.014557022231798, 1};
Point(p11 + 4) = {11.09699396000928, 2.202931604756908, 1};
Point(p11 + 5) = {10.95351080018344, 2.370928800183444, 1};
Point(p11 + 6) = {10.78551360475691, 2.51441196000928, 1};
Point(p11 + 7) = {10.5971390222318, 2.629848052646198, 1};
Point(p11 + 8) = {10.39302546000928, 2.71439465838305, 1};
Point(p11 + 9) = {10.17819887140535, 2.765969959192496, 1};
Point(p11 + 10) = {9.957948999999999, 2.783304, 1};
Point(p11 + 11) = {9.737699128594652, 2.765969959192496, 1};
Point(p11 + 12) = {9.522872539990718, 2.71439465838305, 1};
Point(p11 + 13) = {9.318758977768201, 2.629848052646198, 1};
Point(p11 + 14) = {9.130384395243091, 2.51441196000928, 1};
Point(p11 + 15) = {8.962387199816556, 2.370928800183444, 1};
Point(p11 + 16) = {8.81890403999072, 2.202931604756908, 1};
Point(p11 + 17) = {8.703467947353801, 2.014557022231799, 1};
Point(p11 + 18) = {8.61892134161695, 1.81044346000928, 1};
Point(p11 + 19) = {8.567346040807504, 1.595616871405348, 1};
Point(p11 + 20) = {8.550011999999999, 1.375367, 1};
Point(p11 + 21) = {8.567346040807504, 1.155117128594653, 1};
Point(p11 + 22) = {8.61892134161695, 0.9402905399907192, 1};
Point(p11 + 23) = {8.703467947353801, 0.7361769777682025, 1};
Point(p11 + 24) = {8.818904039990718, 0.5478023952430924, 1};
Point(p11 + 25) = {8.962387199816554, 0.3798051998165559, 1};
Point(p11 + 26) = {9.130384395243091, 0.2363220399907198, 1};
Point(p11 + 27) = {9.318758977768201, 0.120885947353802, 1};
Point(p11 + 28) = {9.522872539990718, 0.0363393416169504, 1};
Point(p11 + 29) = {9.737699128594652, -0.01523595919249643, 1};
Point(p11 + 30) = {9.957948999999999, -0.03256999999999999, 1};
Point(p11 + 31) = {10.17819887140535, -0.01523595919249643, 1};
Point(p11 + 32) = {10.39302546000928, 0.03633934161695018, 1};
Point(p11 + 33) = {10.5971390222318, 0.120885947353802, 1};
Point(p11 + 34) = {10.78551360475691, 0.2363220399907195, 1};
Point(p11 + 35) = {10.95351080018344, 0.3798051998165556, 1};
Point(p11 + 36) = {11.09699396000928, 0.5478023952430919, 1};
Point(p11 + 37) = {11.2124300526462, 0.7361769777682015, 1};
Point(p11 + 38) = {11.29697665838305, 0.9402905399907193, 1};
Point(p11 + 39) = {11.34855195919249, 1.155117128594652, 1};
Spline(11) = {9, p11 + 1, p11 + 2, p11 + 3, p11 + 4, p11 + 5, p11 + 6, p11 + 7, p11 + 8, p11 + 9, p11 + 10, p11 + 11, p11 + 12, p11 + 13, p11 + 14, p11 + 15, p11 + 16, p11 + 17, p11 + 18, p11 + 19, p11 + 20, p11 + 21, p11 + 22, p11 + 23, p11 + 24, p11 + 25, p11 + 26, p11 + 27, p11 + 28, p11 + 29, p11 + 30, p11 + 31, p11 + 32, p11 + 33, p11 + 34, p11 + 35, p11 + 36, p11 + 37, p11 + 38, p11 + 39, 9};
Line(12) = {4, 10};
Line(13) = {10, 7};
Line(14) = {5, 10};
p15 = newp;
Point(p15 + 1) = {3.796177561143738, 0.8607824493553251, 0};
Point(p15 + 2) = {3.758258054955961, 1.018728559761216, 0};
Point(p15 + 3) = {3.696097185526638, 1.168798173786391, 0};
Point(p15 + 4) = {3.611225559761215, 1.307296079481058, 0};
Point(p15 + 5) = {3.505732998758817, 1.430811998758817, 0};
Point(p15 + 6) = {3.382217079481058, 1.536304559761216, 0};
Point(p15 + 7) = {3.243719173786391, 1.621176185526637, 0};
Point(p15 + 8) = {3.093649559761215, 1.683337054955961, 0};
Point(p15 + 9) = {2.935703449355325, 1.721256561143738, 0};
Point(p15 + 10) = {2.77377, 1.734001, 0};
Point(p15 + 11) = {2.611836550644675, 1.721256561143738, 0};
Point(p15 + 12) = {2.453890440238784, 1.683337054955961, 0};
Point(p15 + 13) = {2.303820826213609, 1.621176185526638, 0};
Point(p15 + 14) = {2.165322920518942, 1.536304559761216, 0};
Point(p15 + 15) = {2.041807001241183, 1.430811998758817, 0};
Point(p15 + 16) = {1.936314440238784, 1.307296079481058, 0};
Point(p15 + 17) = {1.851442814473363, 1.168798173786392, 0};
Point(p15 + 18) = {1.789281945044039, 1.018728559761216, 0};
Point(p15 + 19) = {1.751362438856262, 0.8607824493553252, 0};
Point(p15 + 20) = {1.738618, 0.6988490000000002, 0};
Point(p15 + 21) = {1.751362438856262, 0.5369155506446751, 0};
Point(p15 + 22) = {1.789281945044039, 0.3789694402387841, 0};
Point(p15 + 23) = {1.851442814473362, 0.2288998262136092, 0};
Point(p15 + 24) = {1.936314440238784, 0.09040192051894202, 0};
Point(p15 + 25) = {2.041807001241183, -0.03311399875881693, 0};
Point(p15 + 26) = {2.165322920518942, -0.1386065597612155, 0};
Point(p15 + 27) = {2.303820826213608, -0.2234781855266373, 0};
Point(p15 + 28) = {2.453890440238784, -0.2856390549559608, 0};
Point(p15 + 29) = {2.611836550644675, -0.3235585611437379, 0};
Point(p15 + 30) = {2.77377, -0.336303, 0};
Point(p15 + 31) = {2.935703449355325, -0.3235585611437382, 0};
Point(p15 + 32) = {3.093649559761215, -0.2856390549559609, 0};
Point(p15 + 33) = {3.243719173786391, -0.2234781855266375, 0};
Point(p15 + 34) = {3.382217079481058, -0.1386065597612157, 0};
Point(p15 + 35) = {3.505732998758817, -0.03311399875881715, 0};
Point(p15 + 36) = {3.611225559761215, 0.09040192051894158, 0};
Point(p15 + 37) = {3.696097185526637, 0.2288998262136085, 0};
Point(p15 + 38) = {3.758258054955961, 0.3789694402387843, 0};
Point(p15 + 39) = {3.796177561143738, 0.5369155506446748, 0};
Spline(15) = {11, p15 + 1, p15 + 2, p15 + 3, p15 + 4, p15 + 5, p15 + 6, p15 + 7, p15 + 8, p15 + 9, p15 + 10, p15 + 11, p15 + 12, p15 + 13, p15 + 14, p15 + 15, p15 + 16, p15 + 17, p15 + 18, p15 + 19, p15 + 20, p15 + 21, p15 + 22, p15 + 23, p15 + 24, p15 + 25, p15 + 26, p15 + 27, p15 + 28, p15 + 29, p15 + 30, p15 + 31, p15 + 32, p15 + 33, p15 + 34, p15 + 35, p15 + 36, p15 + 37, p15 + 38, p15 + 39, 11};
p16 = newp;
Point(p16 + 1) = {11.34855195919249, 1.595616871405348, 0};
Point(p16 + 2) = {11.29697665838305, 1.81044346000928, 0};
Point(p16 + 3) = {11.2124300526462, 2.014557022231798, 0};
Point(p16 + 4) = {11.09699396000928, 2.202931604756908, 0};
Point(p16 + 5) = {10.95351080018344, 2.370928800183444, 0};
Point(p16 + 6) = {10.78551360475691, 2.51441196000928, 0};
Point(p16 + 7) = {10.5971390222318, 2.629848052646198, 0};
Point(p16 + 8) = {10.39302546000928, 2.71439465838305, 0};
Point(p16 + 9) = {10.17819887140535, 2.765969959192496, 0};
Point(p16 + 10) = {9.957948999999999, 2.783304, 0};
Point(p16 + 11) = {9.737699128594652, 2.765969959192496, 0};
Point(p16 + 12) = {9.522872539990718, 2.71439465838305, 0};
Point(p16 + 13) = {9.318758977768201, 2.629848052646198, 0};
Point(p16 + 14) = {9.130384395243091, 2.51441196000928, 0};
Point(p16 + 15) = {8.962387199816556, 2.370928800183444, 0};
Point(p16 + 16) = {8.81890403999072, 2.202931604756908, 0};
Point(p16 + 17) = {8.703467947353801, 2.014557022231799, 0};
Point(p16 + 18) = {8.61892134161695, 1.81044346000928, 0};
Point(p16 + 19) = {8.567346040807504, 1.595616871405348, 0};
Point(p16 + 20) = {8.550011999999999, 1.375367, 0};
Point(p16 + 21) = {8.567346040807504, 1.155117128594653, 0};
Point(p16 + 22) = {8.61892134161695, 0.9402905399907192, 0};
Point(p16 + 23) = {8.703467947353801, 0.7361769777682025, 0};
Point(p16 + 24) = {8.818904039990718, 0.5478023952430924, 0};
Point(p16 + 25) = {8.962387199816554, 0.3798051998165559, 0};
Point(p16 + 26) = {9.130384395243091, 0.2363220399907198, 0};
Point(p16 + 27) = {9.318758977768201, 0.120885947353802, 0};
Point(p16 + 28) = {9.522872539990718, 0.0363393416169504, 0};
Point(p16 + 29) = {9.737699128594652, -0.01523595919249643, 0};
Point(p16 + 30) = {9.957948999999999, -0.03256999999999999, 0};
Point(p16 + 31) = {10.17819887140535, -0.01523595919249643, 0};
Point(p16 + 32) = {10.39302546000928, 0.03633934161695018, 0};
Point(p16 + 33) = {10.5971390222318, 0.120885947353802, 0};
Point(p16 + 34) = {10.78551360475691, 0.2363220399907195, 0};
Point(p16 + 35) = {10.95351080018344, 0.3798051998165556, 0};
Point(p16 + 36) = {11.09699396000928, 0.5478023952430919, 0};
Point(p16 + 37) = {11.2124300526462, 0.7361769777682015, 0};
Point(p16 + 38) = {11.29697665838305, 0.9402905399907193, 0};
Point(p16 + 39) = {11.34855195919249, 1.155117128594652, 0};
Spline(16) = {12, p16 + 1, p16 + 2, p16 + 3, p16 + 4, p16 + 5, p16 + 6, p16 + 7, p16 + 8, p16 + 9, p16 + 10, p16 + 11, p16 + 12, p16 + 13, p16 + 14, p16 + 15, p16 + 16, p16 + 17, p16 + 18, p16 + 19, p16 + 20, p16 + 21, p16 + 22, p16 + 23, p16 + 24, p16 + 25, p16 + 26, p16 + 27, p16 + 28, p16 + 29, p16 + 30, p16 + 31, p16 + 32, p16 + 33, p16 + 34, p16 + 35, p16 + 36, p16 + 37, p16 + 38, p16 + 39, 12};
Line(17) = {11, 8};
Line(18) = {12, 9};
Curve Loop(1) = {-1, 4, 3, -2};
Plane Surface(1) = {1};
Curve Loop(2) = {-5, 1, 7, -6};
Plane Surface(2) = {2};
Curve Loop(3) = {-2, 7, 9, -8, -10, -11};
Plane Surface(3) = {3};
Curve Loop(4) = {-12, 3, 8, -13};
Plane Surface(4) = {4};
Curve Loop(5) = {-4, 5, 14, -12, -15, -16};
Plane Surface(5) = {5};
Curve Loop(6) = {-6, 14, 13, -9};
Plane Surface(6) = {6};
Curve Loop(7) = {-10, -17, 15, 17};
Surface(7) = {7};
Curve Loop(8) = {-11, -18, 16, 18};
Surface(8) = {8};
Surface Loop(1) = {1, 2, 3, 4, 5, 6, 7, 8};
Volume(1) = {1};
Physical Surface("INFLOW") = {1};
Physical Surface("OUTFLOW") = {6};
Physical Surface("OBSTACLE") = {7, 8};
Physical Surface("WALL_Y") = {2, 4};
Physical Surface("WALL_Z") = {3, 5};
Physical Volume("FLUID") = {1};
