cl__1 = 1.647116;
cl__2 = 1.789738;
cl__3 = 0.627568;
cl__4 = 0.650539;
cl__5 = 0.090487;
cl__6 = 0.08248999999999999;
Point(1) = {0.757777, -4.915898, 1, cl__1};
Point(2) = {0.757777, -4.915898, 0, cl__1};
Point(3) = {0.757777, 5.048171, 1, cl__2};
Point(4) = {0.757777, 5.048171, 0, cl__2};
Point(5) = {39.271032, -4.915898, 0, cl__3};
Point(6) = {39.271032, -4.915898, 1, cl__3};
Point(7) = {39.271032, 5.048171, 1, cl__4};
Point(8) = {18.873129, -2.523063, 1, cl__5};
Point(9) = {34.87794700000001, -0.1002100000000002, 1, cl__6};
Point(10) = {39.271032, 5.048171, 0, cl__4};
Point(11) = {18.873129, -2.523063, 0, cl__5};
Point(12) = {34.87794700000001, -0.1002100000000002, 0, cl__6};
Line(1) = {2, 1};
Line(2) = {1, 3};
Line(3) = {4, 3};
Line(4) = {2, 4};
Line(5) = {2, 5};
Line(6) = {5, 6};
Line(7) = {1, 6};
Line(8) = {3, 7};
Line(9) = {6, 7};
p10 = newp;
Point(p10 + 1) = {18.8619885856893, -2.381510614922441, 1};
Point(p10 + 2) = {18.82884165673045, -2.243443719350925, 1};
Point(p10 + 3) = {18.77450440052275, -2.112261978472175, 1};
Point(p10 + 4) = {18.70031478064907, -1.991195522113867, 1};
Point(p10 + 5) = {18.60809959177193, -1.883225408228072, 1};
Point(p10 + 6) = {18.50012947788613, -1.791010219350925, 1};
Point(p10 + 7) = {18.37906302152782, -1.716820599477244, 1};
Point(p10 + 8) = {18.24788128064908, -1.662483343269553, 1};
Point(p10 + 9) = {18.10981438507756, -1.629336414310699, 1};
Point(p10 + 10) = {17.968262, -1.618196, 1};
Point(p10 + 11) = {17.82670961492244, -1.6293364143107, 1};
Point(p10 + 12) = {17.68864271935092, -1.662483343269553, 1};
Point(p10 + 13) = {17.55746097847218, -1.716820599477244, 1};
Point(p10 + 14) = {17.43639452211386, -1.791010219350925, 1};
Point(p10 + 15) = {17.32842440822807, -1.883225408228072, 1};
Point(p10 + 16) = {17.23620921935093, -1.991195522113867, 1};
Point(p10 + 17) = {17.16201959947724, -2.112261978472175, 1};
Point(p10 + 18) = {17.10768234326955, -2.243443719350925, 1};
Point(p10 + 19) = {17.0745354143107, -2.381510614922441, 1};
Point(p10 + 20) = {17.063395, -2.523063, 1};
Point(p10 + 21) = {17.0745354143107, -2.664615385077559, 1};
Point(p10 + 22) = {17.10768234326955, -2.802682280649076, 1};
Point(p10 + 23) = {17.16201959947724, -2.933864021527824, 1};
Point(p10 + 24) = {17.23620921935092, -3.054930477886133, 1};
Point(p10 + 25) = {17.32842440822807, -3.162900591771928, 1};
Point(p10 + 26) = {17.43639452211386, -3.255115780649076, 1};
Point(p10 + 27) = {17.55746097847218, -3.329305400522756, 1};
Point(p10 + 28) = {17.68864271935092, -3.383642656730447, 1};
Point(p10 + 29) = {17.82670961492244, -3.4167895856893, 1};
Point(p10 + 30) = {17.968262, -3.42793, 1};
Point(p10 + 31) = {18.10981438507756, -3.416789585689301, 1};
Point(p10 + 32) = {18.24788128064908, -3.383642656730447, 1};
Point(p10 + 33) = {18.37906302152782, -3.329305400522756, 1};
Point(p10 + 34) = {18.50012947788613, -3.255115780649076, 1};
Point(p10 + 35) = {18.60809959177193, -3.162900591771928, 1};
Point(p10 + 36) = {18.70031478064907, -3.054930477886133, 1};
Point(p10 + 37) = {18.77450440052275, -2.933864021527825, 1};
Point(p10 + 38) = {18.82884165673045, -2.802682280649076, 1};
Point(p10 + 39) = {18.8619885856893, -2.664615385077559, 1};
Spline(10) = {8, p10 + 1, p10 + 2, p10 + 3, p10 + 4, p10 + 5, p10 + 6, p10 + 7, p10 + 8, p10 + 9, p10 + 10, p10 + 11, p10 + 12, p10 + 13, p10 + 14, p10 + 15, p10 + 16, p10 + 17, p10 + 18, p10 + 19, p10 + 20, p10 + 21, p10 + 22, p10 + 23, p10 + 24, p10 + 25, p10 + 26, p10 + 27, p10 + 28, p10 + 29, p10 + 30, p10 + 31, p10 + 32, p10 + 33, p10 + 34, p10 + 35, p10 + 36, p10 + 37, p10 + 38, p10 + 39, 8};
p11 = newp;
Point(p11 + 1) = {34.86779116140357, 0.02883216447382628, 1};
Point(p11 + 2) = {34.83757371606581, 0.1546968825919166, 1};
Point(p11 + 3) = {34.78803871777689, 0.2742849472731531, 1};
Point(p11 + 4) = {34.72040588259192, 0.384651703475052, 1};
Point(p11 + 5) = {34.63634055537366, 0.4830795553736582, 1};
Point(p11 + 6) = {34.53791270347506, 0.5671448825919166, 1};
Point(p11 + 7) = {34.42754594727316, 0.6347777177768877, 1};
Point(p11 + 8) = {34.30795788259192, 0.6843127160658069, 1};
Point(p11 + 9) = {34.18209316447383, 0.7145301614035667, 1};
Point(p11 + 10) = {34.053051, 0.7246859999999999, 1};
Point(p11 + 11) = {33.92400883552618, 0.7145301614035666, 1};
Point(p11 + 12) = {33.79814411740809, 0.684312716065807, 1};
Point(p11 + 13) = {33.67855605272685, 0.6347777177768879, 1};
Point(p11 + 14) = {33.56818929652495, 0.5671448825919166, 1};
Point(p11 + 15) = {33.46976144462634, 0.4830795553736583, 1};
Point(p11 + 16) = {33.38569611740809, 0.384651703475052, 1};
Point(p11 + 17) = {33.31806328222311, 0.2742849472731532, 1};
Point(p11 + 18) = {33.2685282839342, 0.1546968825919167, 1};
Point(p11 + 19) = {33.23831083859643, 0.02883216447382639, 1};
Point(p11 + 20) = {33.228155, -0.1002099999999999, 1};
Point(p11 + 21) = {33.23831083859643, -0.2292521644738262, 1};
Point(p11 + 22) = {33.2685282839342, -0.3551168825919169, 1};
Point(p11 + 23) = {33.31806328222311, -0.4747049472731527, 1};
Point(p11 + 24) = {33.38569611740809, -0.5850717034750518, 1};
Point(p11 + 25) = {33.46976144462634, -0.6834995553736583, 1};
Point(p11 + 26) = {33.56818929652495, -0.7675648825919166, 1};
Point(p11 + 27) = {33.67855605272685, -0.8351977177768878, 1};
Point(p11 + 28) = {33.79814411740809, -0.8847327160658069, 1};
Point(p11 + 29) = {33.92400883552618, -0.9149501614035667, 1};
Point(p11 + 30) = {34.053051, -0.925106, 1};
Point(p11 + 31) = {34.18209316447383, -0.9149501614035668, 1};
Point(p11 + 32) = {34.30795788259192, -0.8847327160658071, 1};
Point(p11 + 33) = {34.42754594727316, -0.8351977177768879, 1};
Point(p11 + 34) = {34.53791270347506, -0.7675648825919167, 1};
Point(p11 + 35) = {34.63634055537366, -0.6834995553736585, 1};
Point(p11 + 36) = {34.72040588259192, -0.5850717034750521, 1};
Point(p11 + 37) = {34.78803871777689, -0.4747049472731533, 1};
Point(p11 + 38) = {34.83757371606581, -0.3551168825919168, 1};
Point(p11 + 39) = {34.86779116140357, -0.2292521644738265, 1};
Spline(11) = {9, p11 + 1, p11 + 2, p11 + 3, p11 + 4, p11 + 5, p11 + 6, p11 + 7, p11 + 8, p11 + 9, p11 + 10, p11 + 11, p11 + 12, p11 + 13, p11 + 14, p11 + 15, p11 + 16, p11 + 17, p11 + 18, p11 + 19, p11 + 20, p11 + 21, p11 + 22, p11 + 23, p11 + 24, p11 + 25, p11 + 26, p11 + 27, p11 + 28, p11 + 29, p11 + 30, p11 + 31, p11 + 32, p11 + 33, p11 + 34, p11 + 35, p11 + 36, p11 + 37, p11 + 38, p11 + 39, 9};
Line(12) = {4, 10};
Line(13) = {10, 7};
Line(14) = {5, 10};
p15 = newp;
Point(p15 + 1) = {18.8619885856893, -2.381510614922441, 0};
Point(p15 + 2) = {18.82884165673045, -2.243443719350925, 0};
Point(p15 + 3) = {18.77450440052275, -2.112261978472175, 0};
Point(p15 + 4) = {18.70031478064907, -1.991195522113867, 0};
Point(p15 + 5) = {18.60809959177193, -1.883225408228072, 0};
Point(p15 + 6) = {18.50012947788613, -1.791010219350925, 0};
Point(p15 + 7) = {18.37906302152782, -1.716820599477244, 0};
Point(p15 + 8) = {18.24788128064908, -1.662483343269553, 0};
Point(p15 + 9) = {18.10981438507756, -1.629336414310699, 0};
Point(p15 + 10) = {17.968262, -1.618196, 0};
Point(p15 + 11) = {17.82670961492244, -1.6293364143107, 0};
Point(p15 + 12) = {17.68864271935092, -1.662483343269553, 0};
Point(p15 + 13) = {17.55746097847218, -1.716820599477244, 0};
Point(p15 + 14) = {17.43639452211386, -1.791010219350925, 0};
Point(p15 + 15) = {17.32842440822807, -1.883225408228072, 0};
Point(p15 + 16) = {17.23620921935093, -1.991195522113867, 0};
Point(p15 + 17) = {17.16201959947724, -2.112261978472175, 0};
Point(p15 + 18) = {17.10768234326955, -2.243443719350925, 0};
Point(p15 + 19) = {17.0745354143107, -2.381510614922441, 0};
Point(p15 + 20) = {17.063395, -2.523063, 0};
Point(p15 + 21) = {17.0745354143107, -2.664615385077559, 0};
Point(p15 + 22) = {17.10768234326955, -2.802682280649076, 0};
Point(p15 + 23) = {17.16201959947724, -2.933864021527824, 0};
Point(p15 + 24) = {17.23620921935092, -3.054930477886133, 0};
Point(p15 + 25) = {17.32842440822807, -3.162900591771928, 0};
Point(p15 + 26) = {17.43639452211386, -3.255115780649076, 0};
Point(p15 + 27) = {17.55746097847218, -3.329305400522756, 0};
Point(p15 + 28) = {17.68864271935092, -3.383642656730447, 0};
Point(p15 + 29) = {17.82670961492244, -3.4167895856893, 0};
Point(p15 + 30) = {17.968262, -3.42793, 0};
Point(p15 + 31) = {18.10981438507756, -3.416789585689301, 0};
Point(p15 + 32) = {18.24788128064908, -3.383642656730447, 0};
Point(p15 + 33) = {18.37906302152782, -3.329305400522756, 0};
Point(p15 + 34) = {18.50012947788613, -3.255115780649076, 0};
Point(p15 + 35) = {18.60809959177193, -3.162900591771928, 0};
Point(p15 + 36) = {18.70031478064907, -3.054930477886133, 0};
Point(p15 + 37) = {18.77450440052275, -2.933864021527825, 0};
Point(p15 + 38) = {18.82884165673045, -2.802682280649076, 0};
Point(p15 + 39) = {18.8619885856893, -2.664615385077559, 0};
Spline(15) = {11, p15 + 1, p15 + 2, p15 + 3, p15 + 4, p15 + 5, p15 + 6, p15 + 7, p15 + 8, p15 + 9, p15 + 10, p15 + 11, p15 + 12, p15 + 13, p15 + 14, p15 + 15, p15 + 16, p15 + 17, p15 + 18, p15 + 19, p15 + 20, p15 + 21, p15 + 22, p15 + 23, p15 + 24, p15 + 25, p15 + 26, p15 + 27, p15 + 28, p15 + 29, p15 + 30, p15 + 31, p15 + 32, p15 + 33, p15 + 34, p15 + 35, p15 + 36, p15 + 37, p15 + 38, p15 + 39, 11};
p16 = newp;
Point(p16 + 1) = {34.86779116140357, 0.02883216447382628, 0};
Point(p16 + 2) = {34.83757371606581, 0.1546968825919166, 0};
Point(p16 + 3) = {34.78803871777689, 0.2742849472731531, 0};
Point(p16 + 4) = {34.72040588259192, 0.384651703475052, 0};
Point(p16 + 5) = {34.63634055537366, 0.4830795553736582, 0};
Point(p16 + 6) = {34.53791270347506, 0.5671448825919166, 0};
Point(p16 + 7) = {34.42754594727316, 0.6347777177768877, 0};
Point(p16 + 8) = {34.30795788259192, 0.6843127160658069, 0};
Point(p16 + 9) = {34.18209316447383, 0.7145301614035667, 0};
Point(p16 + 10) = {34.053051, 0.7246859999999999, 0};
Point(p16 + 11) = {33.92400883552618, 0.7145301614035666, 0};
Point(p16 + 12) = {33.79814411740809, 0.684312716065807, 0};
Point(p16 + 13) = {33.67855605272685, 0.6347777177768879, 0};
Point(p16 + 14) = {33.56818929652495, 0.5671448825919166, 0};
Point(p16 + 15) = {33.46976144462634, 0.4830795553736583, 0};
Point(p16 + 16) = {33.38569611740809, 0.384651703475052, 0};
Point(p16 + 17) = {33.31806328222311, 0.2742849472731532, 0};
Point(p16 + 18) = {33.2685282839342, 0.1546968825919167, 0};
Point(p16 + 19) = {33.23831083859643, 0.02883216447382639, 0};
Point(p16 + 20) = {33.228155, -0.1002099999999999, 0};
Point(p16 + 21) = {33.23831083859643, -0.2292521644738262, 0};
Point(p16 + 22) = {33.2685282839342, -0.3551168825919169, 0};
Point(p16 + 23) = {33.31806328222311, -0.4747049472731527, 0};
Point(p16 + 24) = {33.38569611740809, -0.5850717034750518, 0};
Point(p16 + 25) = {33.46976144462634, -0.6834995553736583, 0};
Point(p16 + 26) = {33.56818929652495, -0.7675648825919166, 0};
Point(p16 + 27) = {33.67855605272685, -0.8351977177768878, 0};
Point(p16 + 28) = {33.79814411740809, -0.8847327160658069, 0};
Point(p16 + 29) = {33.92400883552618, -0.9149501614035667, 0};
Point(p16 + 30) = {34.053051, -0.925106, 0};
Point(p16 + 31) = {34.18209316447383, -0.9149501614035668, 0};
Point(p16 + 32) = {34.30795788259192, -0.8847327160658071, 0};
Point(p16 + 33) = {34.42754594727316, -0.8351977177768879, 0};
Point(p16 + 34) = {34.53791270347506, -0.7675648825919167, 0};
Point(p16 + 35) = {34.63634055537366, -0.6834995553736585, 0};
Point(p16 + 36) = {34.72040588259192, -0.5850717034750521, 0};
Point(p16 + 37) = {34.78803871777689, -0.4747049472731533, 0};
Point(p16 + 38) = {34.83757371606581, -0.3551168825919168, 0};
Point(p16 + 39) = {34.86779116140357, -0.2292521644738265, 0};
Spline(16) = {12, p16 + 1, p16 + 2, p16 + 3, p16 + 4, p16 + 5, p16 + 6, p16 + 7, p16 + 8, p16 + 9, p16 + 10, p16 + 11, p16 + 12, p16 + 13, p16 + 14, p16 + 15, p16 + 16, p16 + 17, p16 + 18, p16 + 19, p16 + 20, p16 + 21, p16 + 22, p16 + 23, p16 + 24, p16 + 25, p16 + 26, p16 + 27, p16 + 28, p16 + 29, p16 + 30, p16 + 31, p16 + 32, p16 + 33, p16 + 34, p16 + 35, p16 + 36, p16 + 37, p16 + 38, p16 + 39, 12};
Line(17) = {11, 8};
Line(18) = {12, 9};
Curve Loop(1) = {-1, 4, 3, -2};
Plane Surface(1) = {1};
Curve Loop(2) = {-5, 1, 7, -6};
Plane Surface(2) = {2};
Curve Loop(3) = {-2, 7, 9, -8, -10, -11};
Plane Surface(3) = {3};
Curve Loop(4) = {-12, 3, 8, -13};
Plane Surface(4) = {4};
Curve Loop(5) = {-4, 5, 14, -12, -15, -16};
Plane Surface(5) = {5};
Curve Loop(6) = {-6, 14, 13, -9};
Plane Surface(6) = {6};
Curve Loop(7) = {-10, -17, 15, 17};
Surface(7) = {7};
Curve Loop(8) = {-11, -18, 16, 18};
Surface(8) = {8};
Surface Loop(1) = {1, 2, 3, 4, 5, 6, 7, 8};
Volume(1) = {1};
Physical Surface("INFLOW") = {1};
Physical Surface("OUTFLOW") = {6};
Physical Surface("OBSTACLE") = {7, 8};
Physical Surface("WALL_Y") = {2, 4};
Physical Surface("WALL_Z") = {3, 5};
Physical Volume("FLUID") = {1};
