cl__1 = 1.204305;
cl__2 = 2.139296;
cl__3 = 0.758737;
cl__4 = 0.888817;
cl__5 = 0.0574;
cl__6 = 0.08326500000000001;
Point(1) = {0.276384, -4.285367, 1, cl__1};
Point(2) = {0.276384, -4.285367, 0, cl__1};
Point(3) = {0.276384, 5.139334000000001, 1, cl__2};
Point(4) = {0.276384, 5.139334000000001, 0, cl__2};
Point(5) = {39.033915, -4.285367, 0, cl__3};
Point(6) = {39.033915, -4.285367, 1, cl__3};
Point(7) = {39.033915, 5.139334000000001, 1, cl__4};
Point(8) = {13.197726, -3.185869, 1, cl__5};
Point(9) = {31.166143, -1.104584, 1, cl__6};
Point(10) = {39.033915, 5.139334000000001, 0, cl__4};
Point(11) = {13.197726, -3.185869, 0, cl__5};
Point(12) = {31.166143, -1.104584, 0, cl__6};
Line(1) = {2, 1};
Line(2) = {1, 3};
Line(3) = {4, 3};
Line(4) = {2, 4};
Line(5) = {2, 5};
Line(6) = {5, 6};
Line(7) = {1, 6};
Line(8) = {3, 7};
Line(9) = {6, 7};
p10 = newp;
Point(p10 + 1) = {13.19065914443659, -3.096076086370303, 1};
Point(p10 + 2) = {13.16963258718387, -3.008494172279763, 1};
Point(p10 + 3) = {13.13516407186455, -2.925279815120999, 1};
Point(p10 + 4) = {13.08810232772024, -2.848482028539877, 1};
Point(p10 + 5) = {13.02960617108074, -2.779991828919265, 1};
Point(p10 + 6) = {12.96111597146012, -2.721495672279763, 1};
Point(p10 + 7) = {12.884318184879, -2.674433928135449, 1};
Point(p10 + 8) = {12.80110382772024, -2.639965412816131, 1};
Point(p10 + 9) = {12.7135219136297, -2.618938855563413, 1};
Point(p10 + 10) = {12.623729, -2.611872, 1};
Point(p10 + 11) = {12.5339360863703, -2.618938855563413, 1};
Point(p10 + 12) = {12.44635417227977, -2.639965412816131, 1};
Point(p10 + 13) = {12.363139815121, -2.674433928135449, 1};
Point(p10 + 14) = {12.28634202853988, -2.721495672279763, 1};
Point(p10 + 15) = {12.21785182891927, -2.779991828919265, 1};
Point(p10 + 16) = {12.15935567227976, -2.848482028539877, 1};
Point(p10 + 17) = {12.11229392813545, -2.925279815120999, 1};
Point(p10 + 18) = {12.07782541281613, -3.008494172279763, 1};
Point(p10 + 19) = {12.05679885556341, -3.096076086370303, 1};
Point(p10 + 20) = {12.049732, -3.185869, 1};
Point(p10 + 21) = {12.05679885556341, -3.275661913629697, 1};
Point(p10 + 22) = {12.07782541281613, -3.363243827720237, 1};
Point(p10 + 23) = {12.11229392813545, -3.446458184879, 1};
Point(p10 + 24) = {12.15935567227976, -3.523255971460122, 1};
Point(p10 + 25) = {12.21785182891927, -3.591746171080735, 1};
Point(p10 + 26) = {12.28634202853988, -3.650242327720236, 1};
Point(p10 + 27) = {12.363139815121, -3.69730407186455, 1};
Point(p10 + 28) = {12.44635417227976, -3.731772587183869, 1};
Point(p10 + 29) = {12.5339360863703, -3.752799144436587, 1};
Point(p10 + 30) = {12.623729, -3.759866, 1};
Point(p10 + 31) = {12.7135219136297, -3.752799144436587, 1};
Point(p10 + 32) = {12.80110382772024, -3.731772587183869, 1};
Point(p10 + 33) = {12.884318184879, -3.697304071864551, 1};
Point(p10 + 34) = {12.96111597146012, -3.650242327720237, 1};
Point(p10 + 35) = {13.02960617108073, -3.591746171080735, 1};
Point(p10 + 36) = {13.08810232772024, -3.523255971460123, 1};
Point(p10 + 37) = {13.13516407186455, -3.446458184879001, 1};
Point(p10 + 38) = {13.16963258718387, -3.363243827720237, 1};
Point(p10 + 39) = {13.19065914443659, -3.275661913629697, 1};
Spline(10) = {8, p10 + 1, p10 + 2, p10 + 3, p10 + 4, p10 + 5, p10 + 6, p10 + 7, p10 + 8, p10 + 9, p10 + 10, p10 + 11, p10 + 12, p10 + 13, p10 + 14, p10 + 15, p10 + 16, p10 + 17, p10 + 18, p10 + 19, p10 + 20, p10 + 21, p10 + 22, p10 + 23, p10 + 24, p10 + 25, p10 + 26, p10 + 27, p10 + 28, p10 + 29, p10 + 30, p10 + 31, p10 + 32, p10 + 33, p10 + 34, p10 + 35, p10 + 36, p10 + 37, p10 + 38, p10 + 39, 8};
p11 = newp;
Point(p11 + 1) = {31.15589163523824, -0.9743280605119266, 1};
Point(p11 + 2) = {31.12538996357574, -0.8472794545487281, 1};
Point(p11 + 3) = {31.07538903739806, -0.7265665404393677, 1};
Point(p11 + 4) = {31.00712004545127, -0.6151616707524108, 1};
Point(p11 + 5) = {30.92226399688888, -0.5158080031111153, 1};
Point(p11 + 6) = {30.82291032924759, -0.4309519545487281, 1};
Point(p11 + 7) = {30.71150545956063, -0.3626829626019346, 1};
Point(p11 + 8) = {30.59079254545127, -0.312682036424259, 1};
Point(p11 + 9) = {30.46374393948807, -0.2821803647617556, 1};
Point(p11 + 10) = {30.333488, -0.271929, 1};
Point(p11 + 11) = {30.20323206051193, -0.2821803647617557, 1};
Point(p11 + 12) = {30.07618345454873, -0.3126820364242588, 1};
Point(p11 + 13) = {29.95547054043937, -0.3626829626019346, 1};
Point(p11 + 14) = {29.84406567075241, -0.4309519545487281, 1};
Point(p11 + 15) = {29.74471200311111, -0.5158080031111152, 1};
Point(p11 + 16) = {29.65985595454873, -0.6151616707524107, 1};
Point(p11 + 17) = {29.59158696260193, -0.7265665404393675, 1};
Point(p11 + 18) = {29.54158603642426, -0.8472794545487281, 1};
Point(p11 + 19) = {29.51108436476175, -0.9743280605119264, 1};
Point(p11 + 20) = {29.500833, -1.104584, 1};
Point(p11 + 21) = {29.51108436476175, -1.234839939488073, 1};
Point(p11 + 22) = {29.54158603642426, -1.361888545451272, 1};
Point(p11 + 23) = {29.59158696260193, -1.482601459560632, 1};
Point(p11 + 24) = {29.65985595454873, -1.594006329247589, 1};
Point(p11 + 25) = {29.74471200311111, -1.693359996888885, 1};
Point(p11 + 26) = {29.84406567075241, -1.778216045451272, 1};
Point(p11 + 27) = {29.95547054043937, -1.846485037398065, 1};
Point(p11 + 28) = {30.07618345454873, -1.896485963575741, 1};
Point(p11 + 29) = {30.20323206051193, -1.926987635238244, 1};
Point(p11 + 30) = {30.333488, -1.937239, 1};
Point(p11 + 31) = {30.46374393948807, -1.926987635238244, 1};
Point(p11 + 32) = {30.59079254545127, -1.896485963575741, 1};
Point(p11 + 33) = {30.71150545956063, -1.846485037398065, 1};
Point(p11 + 34) = {30.82291032924759, -1.778216045451272, 1};
Point(p11 + 35) = {30.92226399688888, -1.693359996888885, 1};
Point(p11 + 36) = {31.00712004545127, -1.594006329247589, 1};
Point(p11 + 37) = {31.07538903739806, -1.482601459560632, 1};
Point(p11 + 38) = {31.12538996357574, -1.361888545451272, 1};
Point(p11 + 39) = {31.15589163523824, -1.234839939488074, 1};
Spline(11) = {9, p11 + 1, p11 + 2, p11 + 3, p11 + 4, p11 + 5, p11 + 6, p11 + 7, p11 + 8, p11 + 9, p11 + 10, p11 + 11, p11 + 12, p11 + 13, p11 + 14, p11 + 15, p11 + 16, p11 + 17, p11 + 18, p11 + 19, p11 + 20, p11 + 21, p11 + 22, p11 + 23, p11 + 24, p11 + 25, p11 + 26, p11 + 27, p11 + 28, p11 + 29, p11 + 30, p11 + 31, p11 + 32, p11 + 33, p11 + 34, p11 + 35, p11 + 36, p11 + 37, p11 + 38, p11 + 39, 9};
Line(12) = {4, 10};
Line(13) = {10, 7};
Line(14) = {5, 10};
p15 = newp;
Point(p15 + 1) = {13.19065914443659, -3.096076086370303, 0};
Point(p15 + 2) = {13.16963258718387, -3.008494172279763, 0};
Point(p15 + 3) = {13.13516407186455, -2.925279815120999, 0};
Point(p15 + 4) = {13.08810232772024, -2.848482028539877, 0};
Point(p15 + 5) = {13.02960617108074, -2.779991828919265, 0};
Point(p15 + 6) = {12.96111597146012, -2.721495672279763, 0};
Point(p15 + 7) = {12.884318184879, -2.674433928135449, 0};
Point(p15 + 8) = {12.80110382772024, -2.639965412816131, 0};
Point(p15 + 9) = {12.7135219136297, -2.618938855563413, 0};
Point(p15 + 10) = {12.623729, -2.611872, 0};
Point(p15 + 11) = {12.5339360863703, -2.618938855563413, 0};
Point(p15 + 12) = {12.44635417227977, -2.639965412816131, 0};
Point(p15 + 13) = {12.363139815121, -2.674433928135449, 0};
Point(p15 + 14) = {12.28634202853988, -2.721495672279763, 0};
Point(p15 + 15) = {12.21785182891927, -2.779991828919265, 0};
Point(p15 + 16) = {12.15935567227976, -2.848482028539877, 0};
Point(p15 + 17) = {12.11229392813545, -2.925279815120999, 0};
Point(p15 + 18) = {12.07782541281613, -3.008494172279763, 0};
Point(p15 + 19) = {12.05679885556341, -3.096076086370303, 0};
Point(p15 + 20) = {12.049732, -3.185869, 0};
Point(p15 + 21) = {12.05679885556341, -3.275661913629697, 0};
Point(p15 + 22) = {12.07782541281613, -3.363243827720237, 0};
Point(p15 + 23) = {12.11229392813545, -3.446458184879, 0};
Point(p15 + 24) = {12.15935567227976, -3.523255971460122, 0};
Point(p15 + 25) = {12.21785182891927, -3.591746171080735, 0};
Point(p15 + 26) = {12.28634202853988, -3.650242327720236, 0};
Point(p15 + 27) = {12.363139815121, -3.69730407186455, 0};
Point(p15 + 28) = {12.44635417227976, -3.731772587183869, 0};
Point(p15 + 29) = {12.5339360863703, -3.752799144436587, 0};
Point(p15 + 30) = {12.623729, -3.759866, 0};
Point(p15 + 31) = {12.7135219136297, -3.752799144436587, 0};
Point(p15 + 32) = {12.80110382772024, -3.731772587183869, 0};
Point(p15 + 33) = {12.884318184879, -3.697304071864551, 0};
Point(p15 + 34) = {12.96111597146012, -3.650242327720237, 0};
Point(p15 + 35) = {13.02960617108073, -3.591746171080735, 0};
Point(p15 + 36) = {13.08810232772024, -3.523255971460123, 0};
Point(p15 + 37) = {13.13516407186455, -3.446458184879001, 0};
Point(p15 + 38) = {13.16963258718387, -3.363243827720237, 0};
Point(p15 + 39) = {13.19065914443659, -3.275661913629697, 0};
Spline(15) = {11, p15 + 1, p15 + 2, p15 + 3, p15 + 4, p15 + 5, p15 + 6, p15 + 7, p15 + 8, p15 + 9, p15 + 10, p15 + 11, p15 + 12, p15 + 13, p15 + 14, p15 + 15, p15 + 16, p15 + 17, p15 + 18, p15 + 19, p15 + 20, p15 + 21, p15 + 22, p15 + 23, p15 + 24, p15 + 25, p15 + 26, p15 + 27, p15 + 28, p15 + 29, p15 + 30, p15 + 31, p15 + 32, p15 + 33, p15 + 34, p15 + 35, p15 + 36, p15 + 37, p15 + 38, p15 + 39, 11};
p16 = newp;
Point(p16 + 1) = {31.15589163523824, -0.9743280605119266, 0};
Point(p16 + 2) = {31.12538996357574, -0.8472794545487281, 0};
Point(p16 + 3) = {31.07538903739806, -0.7265665404393677, 0};
Point(p16 + 4) = {31.00712004545127, -0.6151616707524108, 0};
Point(p16 + 5) = {30.92226399688888, -0.5158080031111153, 0};
Point(p16 + 6) = {30.82291032924759, -0.4309519545487281, 0};
Point(p16 + 7) = {30.71150545956063, -0.3626829626019346, 0};
Point(p16 + 8) = {30.59079254545127, -0.312682036424259, 0};
Point(p16 + 9) = {30.46374393948807, -0.2821803647617556, 0};
Point(p16 + 10) = {30.333488, -0.271929, 0};
Point(p16 + 11) = {30.20323206051193, -0.2821803647617557, 0};
Point(p16 + 12) = {30.07618345454873, -0.3126820364242588, 0};
Point(p16 + 13) = {29.95547054043937, -0.3626829626019346, 0};
Point(p16 + 14) = {29.84406567075241, -0.4309519545487281, 0};
Point(p16 + 15) = {29.74471200311111, -0.5158080031111152, 0};
Point(p16 + 16) = {29.65985595454873, -0.6151616707524107, 0};
Point(p16 + 17) = {29.59158696260193, -0.7265665404393675, 0};
Point(p16 + 18) = {29.54158603642426, -0.8472794545487281, 0};
Point(p16 + 19) = {29.51108436476175, -0.9743280605119264, 0};
Point(p16 + 20) = {29.500833, -1.104584, 0};
Point(p16 + 21) = {29.51108436476175, -1.234839939488073, 0};
Point(p16 + 22) = {29.54158603642426, -1.361888545451272, 0};
Point(p16 + 23) = {29.59158696260193, -1.482601459560632, 0};
Point(p16 + 24) = {29.65985595454873, -1.594006329247589, 0};
Point(p16 + 25) = {29.74471200311111, -1.693359996888885, 0};
Point(p16 + 26) = {29.84406567075241, -1.778216045451272, 0};
Point(p16 + 27) = {29.95547054043937, -1.846485037398065, 0};
Point(p16 + 28) = {30.07618345454873, -1.896485963575741, 0};
Point(p16 + 29) = {30.20323206051193, -1.926987635238244, 0};
Point(p16 + 30) = {30.333488, -1.937239, 0};
Point(p16 + 31) = {30.46374393948807, -1.926987635238244, 0};
Point(p16 + 32) = {30.59079254545127, -1.896485963575741, 0};
Point(p16 + 33) = {30.71150545956063, -1.846485037398065, 0};
Point(p16 + 34) = {30.82291032924759, -1.778216045451272, 0};
Point(p16 + 35) = {30.92226399688888, -1.693359996888885, 0};
Point(p16 + 36) = {31.00712004545127, -1.594006329247589, 0};
Point(p16 + 37) = {31.07538903739806, -1.482601459560632, 0};
Point(p16 + 38) = {31.12538996357574, -1.361888545451272, 0};
Point(p16 + 39) = {31.15589163523824, -1.234839939488074, 0};
Spline(16) = {12, p16 + 1, p16 + 2, p16 + 3, p16 + 4, p16 + 5, p16 + 6, p16 + 7, p16 + 8, p16 + 9, p16 + 10, p16 + 11, p16 + 12, p16 + 13, p16 + 14, p16 + 15, p16 + 16, p16 + 17, p16 + 18, p16 + 19, p16 + 20, p16 + 21, p16 + 22, p16 + 23, p16 + 24, p16 + 25, p16 + 26, p16 + 27, p16 + 28, p16 + 29, p16 + 30, p16 + 31, p16 + 32, p16 + 33, p16 + 34, p16 + 35, p16 + 36, p16 + 37, p16 + 38, p16 + 39, 12};
Line(17) = {11, 8};
Line(18) = {12, 9};
Curve Loop(1) = {-1, 4, 3, -2};
Plane Surface(1) = {1};
Curve Loop(2) = {-5, 1, 7, -6};
Plane Surface(2) = {2};
Curve Loop(3) = {-2, 7, 9, -8, -10, -11};
Plane Surface(3) = {3};
Curve Loop(4) = {-12, 3, 8, -13};
Plane Surface(4) = {4};
Curve Loop(5) = {-4, 5, 14, -12, -15, -16};
Plane Surface(5) = {5};
Curve Loop(6) = {-6, 14, 13, -9};
Plane Surface(6) = {6};
Curve Loop(7) = {-10, -17, 15, 17};
Surface(7) = {7};
Curve Loop(8) = {-11, -18, 16, 18};
Surface(8) = {8};
Surface Loop(1) = {1, 2, 3, 4, 5, 6, 7, 8};
Volume(1) = {1};
Physical Surface("INFLOW") = {1};
Physical Surface("OUTFLOW") = {6};
Physical Surface("OBSTACLE") = {7, 8};
Physical Surface("WALL_Y") = {2, 4};
Physical Surface("WALL_Z") = {3, 5};
Physical Volume("FLUID") = {1};
