cl__1 = 3.409595;
cl__2 = 0.98138;
cl__3 = 1.053565;
cl__4 = 0.079133;
cl__5 = 0.118171;
Point(1) = {0.575879, -4.528194, 1, cl__1};
Point(2) = {0.575879, -4.528194, 0, cl__1};
Point(3) = {0.575879, 5.013042, 1, cl__1};
Point(4) = {0.575879, 5.013042, 0, cl__1};
Point(5) = {33.760553, -4.528194, 0, cl__2};
Point(6) = {33.760553, -4.528194, 1, cl__2};
Point(7) = {33.760553, 5.013042, 1, cl__3};
Point(8) = {24.706194, -0.5872160000000002, 1, cl__4};
Point(9) = {21.175625, 0.4353579999999997, 1, cl__5};
Point(10) = {33.760553, 5.013042, 0, cl__3};
Point(11) = {24.706194, -0.5872160000000002, 0, cl__4};
Point(12) = {21.175625, 0.4353579999999997, 0, cl__5};
Line(1) = {2, 1};
Line(2) = {1, 3};
Line(3) = {4, 3};
Line(4) = {2, 4};
Line(5) = {2, 5};
Line(6) = {5, 6};
Line(7) = {1, 6};
Line(8) = {3, 7};
Line(9) = {6, 7};
p10 = newp;
Point(p10 + 1) = {24.69645140225149, -0.463424558345249, 1};
Point(p10 + 2) = {24.66746350409636, -0.3426812728242785, 1};
Point(p10 + 3) = {24.61994408379251, -0.2279592438506047, 1};
Point(p10 + 4) = {24.55506322717572, -0.1220833085181449, 1};
Point(p10 + 5) = {24.47441851626313, -0.02766048373686814, 1};
Point(p10 + 6) = {24.37999569148186, 0.0529842271757216, 1};
Point(p10 + 7) = {24.2741197561494, 0.1178650837925053, 1};
Point(p10 + 8) = {24.15939772717572, 0.1653845040963602, 1};
Point(p10 + 9) = {24.03865444165475, 0.194372402251491, 1};
Point(p10 + 10) = {23.914863, 0.204115, 1};
Point(p10 + 11) = {23.79107155834525, 0.1943724022514909, 1};
Point(p10 + 12) = {23.67032827282428, 0.1653845040963603, 1};
Point(p10 + 13) = {23.5556062438506, 0.1178650837925054, 1};
Point(p10 + 14) = {23.44973030851814, 0.0529842271757216, 1};
Point(p10 + 15) = {23.35530748373687, -0.02766048373686802, 1};
Point(p10 + 16) = {23.27466277282428, -0.1220833085181448, 1};
Point(p10 + 17) = {23.2097819162075, -0.2279592438506046, 1};
Point(p10 + 18) = {23.16226249590364, -0.3426812728242784, 1};
Point(p10 + 19) = {23.13327459774851, -0.4634245583452489, 1};
Point(p10 + 20) = {23.123532, -0.5872159999999998, 1};
Point(p10 + 21) = {23.13327459774851, -0.7110074416547508, 1};
Point(p10 + 22) = {23.16226249590364, -0.8317507271757217, 1};
Point(p10 + 23) = {23.20978191620749, -0.9464727561493949, 1};
Point(p10 + 24) = {23.27466277282428, -1.052348691481855, 1};
Point(p10 + 25) = {23.35530748373687, -1.146771516263132, 1};
Point(p10 + 26) = {23.44973030851814, -1.227416227175721, 1};
Point(p10 + 27) = {23.5556062438506, -1.292297083792505, 1};
Point(p10 + 28) = {23.67032827282428, -1.33981650409636, 1};
Point(p10 + 29) = {23.79107155834525, -1.368804402251491, 1};
Point(p10 + 30) = {23.914863, -1.378547, 1};
Point(p10 + 31) = {24.03865444165475, -1.368804402251491, 1};
Point(p10 + 32) = {24.15939772717572, -1.33981650409636, 1};
Point(p10 + 33) = {24.2741197561494, -1.292297083792505, 1};
Point(p10 + 34) = {24.37999569148186, -1.227416227175722, 1};
Point(p10 + 35) = {24.47441851626313, -1.146771516263132, 1};
Point(p10 + 36) = {24.55506322717572, -1.052348691481855, 1};
Point(p10 + 37) = {24.6199440837925, -0.9464727561493954, 1};
Point(p10 + 38) = {24.66746350409636, -0.8317507271757216, 1};
Point(p10 + 39) = {24.69645140225149, -0.711007441654751, 1};
Spline(10) = {8, p10 + 1, p10 + 2, p10 + 3, p10 + 4, p10 + 5, p10 + 6, p10 + 7, p10 + 8, p10 + 9, p10 + 10, p10 + 11, p10 + 12, p10 + 13, p10 + 14, p10 + 15, p10 + 16, p10 + 17, p10 + 18, p10 + 19, p10 + 20, p10 + 21, p10 + 22, p10 + 23, p10 + 24, p10 + 25, p10 + 26, p10 + 27, p10 + 28, p10 + 29, p10 + 30, p10 + 31, p10 + 32, p10 + 33, p10 + 34, p10 + 35, p10 + 36, p10 + 37, p10 + 38, p10 + 39, 8};
p11 = newp;
Point(p11 + 1) = {21.1610761520297, 0.6202186409860864, 1};
Point(p11 + 2) = {21.1177878490407, 0.8005273994738022, 1};
Point(p11 + 3) = {21.04682599271821, 0.971844475418719, 1};
Point(p11 + 4) = {20.9499378994738, 1.129951473842295, 1};
Point(p11 + 5) = {20.8295092757163, 1.270955275716299, 1};
Point(p11 + 6) = {20.6885054738423, 1.391383899473802, 1};
Point(p11 + 7) = {20.53039847541872, 1.488271992718209, 1};
Point(p11 + 8) = {20.3590813994738, 1.559233849040695, 1};
Point(p11 + 9) = {20.17877264098609, 1.602522152029702, 1};
Point(p11 + 10) = {19.993912, 1.617071, 1};
Point(p11 + 11) = {19.80905135901391, 1.602522152029702, 1};
Point(p11 + 12) = {19.6287426005262, 1.559233849040695, 1};
Point(p11 + 13) = {19.45742552458128, 1.488271992718209, 1};
Point(p11 + 14) = {19.29931852615771, 1.391383899473802, 1};
Point(p11 + 15) = {19.1583147242837, 1.270955275716299, 1};
Point(p11 + 16) = {19.0378861005262, 1.129951473842295, 1};
Point(p11 + 17) = {18.94099800728179, 0.9718444754187192, 1};
Point(p11 + 18) = {18.87003615095931, 0.8005273994738024, 1};
Point(p11 + 19) = {18.8267478479703, 0.6202186409860865, 1};
Point(p11 + 20) = {18.812199, 0.4353580000000002, 1};
Point(p11 + 21) = {18.8267478479703, 0.2504973590139138, 1};
Point(p11 + 22) = {18.87003615095931, 0.07018860052619741, 1};
Point(p11 + 23) = {18.94099800728179, -0.1011284754187184, 1};
Point(p11 + 24) = {19.0378861005262, -0.2592354738422952, 1};
Point(p11 + 25) = {19.1583147242837, -0.4002392757162986, 1};
Point(p11 + 26) = {19.29931852615771, -0.5206678994738021, 1};
Point(p11 + 27) = {19.45742552458128, -0.6175559927182087, 1};
Point(p11 + 28) = {19.6287426005262, -0.6885178490406948, 1};
Point(p11 + 29) = {19.80905135901391, -0.731806152029702, 1};
Point(p11 + 30) = {19.993912, -0.746355, 1};
Point(p11 + 31) = {20.17877264098609, -0.731806152029702, 1};
Point(p11 + 32) = {20.3590813994738, -0.6885178490406948, 1};
Point(p11 + 33) = {20.53039847541872, -0.6175559927182087, 1};
Point(p11 + 34) = {20.6885054738423, -0.5206678994738024, 1};
Point(p11 + 35) = {20.8295092757163, -0.4002392757162988, 1};
Point(p11 + 36) = {20.9499378994738, -0.2592354738422955, 1};
Point(p11 + 37) = {21.04682599271821, -0.1011284754187193, 1};
Point(p11 + 38) = {21.1177878490407, 0.07018860052619752, 1};
Point(p11 + 39) = {21.1610761520297, 0.2504973590139135, 1};
Spline(11) = {9, p11 + 1, p11 + 2, p11 + 3, p11 + 4, p11 + 5, p11 + 6, p11 + 7, p11 + 8, p11 + 9, p11 + 10, p11 + 11, p11 + 12, p11 + 13, p11 + 14, p11 + 15, p11 + 16, p11 + 17, p11 + 18, p11 + 19, p11 + 20, p11 + 21, p11 + 22, p11 + 23, p11 + 24, p11 + 25, p11 + 26, p11 + 27, p11 + 28, p11 + 29, p11 + 30, p11 + 31, p11 + 32, p11 + 33, p11 + 34, p11 + 35, p11 + 36, p11 + 37, p11 + 38, p11 + 39, 9};
Line(12) = {4, 10};
Line(13) = {10, 7};
Line(14) = {5, 10};
p15 = newp;
Point(p15 + 1) = {24.69645140225149, -0.463424558345249, 0};
Point(p15 + 2) = {24.66746350409636, -0.3426812728242785, 0};
Point(p15 + 3) = {24.61994408379251, -0.2279592438506047, 0};
Point(p15 + 4) = {24.55506322717572, -0.1220833085181449, 0};
Point(p15 + 5) = {24.47441851626313, -0.02766048373686814, 0};
Point(p15 + 6) = {24.37999569148186, 0.0529842271757216, 0};
Point(p15 + 7) = {24.2741197561494, 0.1178650837925053, 0};
Point(p15 + 8) = {24.15939772717572, 0.1653845040963602, 0};
Point(p15 + 9) = {24.03865444165475, 0.194372402251491, 0};
Point(p15 + 10) = {23.914863, 0.204115, 0};
Point(p15 + 11) = {23.79107155834525, 0.1943724022514909, 0};
Point(p15 + 12) = {23.67032827282428, 0.1653845040963603, 0};
Point(p15 + 13) = {23.5556062438506, 0.1178650837925054, 0};
Point(p15 + 14) = {23.44973030851814, 0.0529842271757216, 0};
Point(p15 + 15) = {23.35530748373687, -0.02766048373686802, 0};
Point(p15 + 16) = {23.27466277282428, -0.1220833085181448, 0};
Point(p15 + 17) = {23.2097819162075, -0.2279592438506046, 0};
Point(p15 + 18) = {23.16226249590364, -0.3426812728242784, 0};
Point(p15 + 19) = {23.13327459774851, -0.4634245583452489, 0};
Point(p15 + 20) = {23.123532, -0.5872159999999998, 0};
Point(p15 + 21) = {23.13327459774851, -0.7110074416547508, 0};
Point(p15 + 22) = {23.16226249590364, -0.8317507271757217, 0};
Point(p15 + 23) = {23.20978191620749, -0.9464727561493949, 0};
Point(p15 + 24) = {23.27466277282428, -1.052348691481855, 0};
Point(p15 + 25) = {23.35530748373687, -1.146771516263132, 0};
Point(p15 + 26) = {23.44973030851814, -1.227416227175721, 0};
Point(p15 + 27) = {23.5556062438506, -1.292297083792505, 0};
Point(p15 + 28) = {23.67032827282428, -1.33981650409636, 0};
Point(p15 + 29) = {23.79107155834525, -1.368804402251491, 0};
Point(p15 + 30) = {23.914863, -1.378547, 0};
Point(p15 + 31) = {24.03865444165475, -1.368804402251491, 0};
Point(p15 + 32) = {24.15939772717572, -1.33981650409636, 0};
Point(p15 + 33) = {24.2741197561494, -1.292297083792505, 0};
Point(p15 + 34) = {24.37999569148186, -1.227416227175722, 0};
Point(p15 + 35) = {24.47441851626313, -1.146771516263132, 0};
Point(p15 + 36) = {24.55506322717572, -1.052348691481855, 0};
Point(p15 + 37) = {24.6199440837925, -0.9464727561493954, 0};
Point(p15 + 38) = {24.66746350409636, -0.8317507271757216, 0};
Point(p15 + 39) = {24.69645140225149, -0.711007441654751, 0};
Spline(15) = {11, p15 + 1, p15 + 2, p15 + 3, p15 + 4, p15 + 5, p15 + 6, p15 + 7, p15 + 8, p15 + 9, p15 + 10, p15 + 11, p15 + 12, p15 + 13, p15 + 14, p15 + 15, p15 + 16, p15 + 17, p15 + 18, p15 + 19, p15 + 20, p15 + 21, p15 + 22, p15 + 23, p15 + 24, p15 + 25, p15 + 26, p15 + 27, p15 + 28, p15 + 29, p15 + 30, p15 + 31, p15 + 32, p15 + 33, p15 + 34, p15 + 35, p15 + 36, p15 + 37, p15 + 38, p15 + 39, 11};
p16 = newp;
Point(p16 + 1) = {21.1610761520297, 0.6202186409860864, 0};
Point(p16 + 2) = {21.1177878490407, 0.8005273994738022, 0};
Point(p16 + 3) = {21.04682599271821, 0.971844475418719, 0};
Point(p16 + 4) = {20.9499378994738, 1.129951473842295, 0};
Point(p16 + 5) = {20.8295092757163, 1.270955275716299, 0};
Point(p16 + 6) = {20.6885054738423, 1.391383899473802, 0};
Point(p16 + 7) = {20.53039847541872, 1.488271992718209, 0};
Point(p16 + 8) = {20.3590813994738, 1.559233849040695, 0};
Point(p16 + 9) = {20.17877264098609, 1.602522152029702, 0};
Point(p16 + 10) = {19.993912, 1.617071, 0};
Point(p16 + 11) = {19.80905135901391, 1.602522152029702, 0};
Point(p16 + 12) = {19.6287426005262, 1.559233849040695, 0};
Point(p16 + 13) = {19.45742552458128, 1.488271992718209, 0};
Point(p16 + 14) = {19.29931852615771, 1.391383899473802, 0};
Point(p16 + 15) = {19.1583147242837, 1.270955275716299, 0};
Point(p16 + 16) = {19.0378861005262, 1.129951473842295, 0};
Point(p16 + 17) = {18.94099800728179, 0.9718444754187192, 0};
Point(p16 + 18) = {18.87003615095931, 0.8005273994738024, 0};
Point(p16 + 19) = {18.8267478479703, 0.6202186409860865, 0};
Point(p16 + 20) = {18.812199, 0.4353580000000002, 0};
Point(p16 + 21) = {18.8267478479703, 0.2504973590139138, 0};
Point(p16 + 22) = {18.87003615095931, 0.07018860052619741, 0};
Point(p16 + 23) = {18.94099800728179, -0.1011284754187184, 0};
Point(p16 + 24) = {19.0378861005262, -0.2592354738422952, 0};
Point(p16 + 25) = {19.1583147242837, -0.4002392757162986, 0};
Point(p16 + 26) = {19.29931852615771, -0.5206678994738021, 0};
Point(p16 + 27) = {19.45742552458128, -0.6175559927182087, 0};
Point(p16 + 28) = {19.6287426005262, -0.6885178490406948, 0};
Point(p16 + 29) = {19.80905135901391, -0.731806152029702, 0};
Point(p16 + 30) = {19.993912, -0.746355, 0};
Point(p16 + 31) = {20.17877264098609, -0.731806152029702, 0};
Point(p16 + 32) = {20.3590813994738, -0.6885178490406948, 0};
Point(p16 + 33) = {20.53039847541872, -0.6175559927182087, 0};
Point(p16 + 34) = {20.6885054738423, -0.5206678994738024, 0};
Point(p16 + 35) = {20.8295092757163, -0.4002392757162988, 0};
Point(p16 + 36) = {20.9499378994738, -0.2592354738422955, 0};
Point(p16 + 37) = {21.04682599271821, -0.1011284754187193, 0};
Point(p16 + 38) = {21.1177878490407, 0.07018860052619752, 0};
Point(p16 + 39) = {21.1610761520297, 0.2504973590139135, 0};
Spline(16) = {12, p16 + 1, p16 + 2, p16 + 3, p16 + 4, p16 + 5, p16 + 6, p16 + 7, p16 + 8, p16 + 9, p16 + 10, p16 + 11, p16 + 12, p16 + 13, p16 + 14, p16 + 15, p16 + 16, p16 + 17, p16 + 18, p16 + 19, p16 + 20, p16 + 21, p16 + 22, p16 + 23, p16 + 24, p16 + 25, p16 + 26, p16 + 27, p16 + 28, p16 + 29, p16 + 30, p16 + 31, p16 + 32, p16 + 33, p16 + 34, p16 + 35, p16 + 36, p16 + 37, p16 + 38, p16 + 39, 12};
Line(17) = {11, 8};
Line(18) = {12, 9};
Curve Loop(1) = {-1, 4, 3, -2};
Plane Surface(1) = {1};
Curve Loop(2) = {-5, 1, 7, -6};
Plane Surface(2) = {2};
Curve Loop(3) = {-2, 7, 9, -8, -10, -11};
Plane Surface(3) = {3};
Curve Loop(4) = {-12, 3, 8, -13};
Plane Surface(4) = {4};
Curve Loop(5) = {-4, 5, 14, -12, -15, -16};
Plane Surface(5) = {5};
Curve Loop(6) = {-6, 14, 13, -9};
Plane Surface(6) = {6};
Curve Loop(7) = {-10, -17, 15, 17};
Surface(7) = {7};
Curve Loop(8) = {-11, -18, 16, 18};
Surface(8) = {8};
Surface Loop(1) = {1, 2, 3, 4, 5, 6, 7, 8};
Volume(1) = {1};
Physical Surface("INFLOW") = {1};
Physical Surface("OUTFLOW") = {6};
Physical Surface("OBSTACLE") = {7, 8};
Physical Surface("WALL_Y") = {2, 4};
Physical Surface("WALL_Z") = {3, 5};
Physical Volume("FLUID") = {1};
