cl__1 = 0.306603;
cl__2 = 0.320403;
cl__3 = 4.820111;
cl__4 = 4.773672;
cl__5 = 0.122855;
cl__6 = 0.059911;
Point(1) = {0.920098, -3.775576, 1, cl__1};
Point(2) = {0.920098, -3.775576, 0, cl__1};
Point(3) = {0.920098, 4.186379, 1, cl__2};
Point(4) = {0.920098, 4.186379, 0, cl__2};
Point(5) = {39.011749, -3.775576, 0, cl__3};
Point(6) = {39.011749, -3.775576, 1, cl__3};
Point(7) = {39.011749, 4.186379, 1, cl__4};
Point(8) = {7.492176, 0.005050999999999699, 1, cl__5};
Point(9) = {10.033025, 0.5592109999999999, 1, cl__6};
Point(10) = {39.011749, 4.186379, 0, cl__4};
Point(11) = {7.492176, 0.005050999999999699, 0, cl__5};
Point(12) = {10.033025, 0.5592109999999999, 0, cl__6};
Line(1) = {2, 1};
Line(2) = {1, 3};
Line(3) = {4, 3};
Line(4) = {2, 4};
Line(5) = {2, 5};
Line(6) = {5, 6};
Line(7) = {1, 6};
Line(8) = {3, 7};
Line(9) = {6, 7};
p10 = newp;
Point(p10 + 1) = {7.477050461591519, 0.1972391877630358, 1};
Point(p10 + 2) = {7.432046287320476, 0.3846950645073191, 1};
Point(p10 + 3) = {7.358271629317716, 0.5628028444170191, 1};
Point(p10 + 4) = {7.257543064507319, 0.7271769228449271, 1};
Point(p10 + 5) = {7.132340864453857, 0.8737698644538576, 1};
Point(p10 + 6) = {6.985747922844927, 0.9989720645073191, 1};
Point(p10 + 7) = {6.821373844417019, 1.099700629317716, 1};
Point(p10 + 8) = {6.643266064507319, 1.173475287320476, 1};
Point(p10 + 9) = {6.455810187763036, 1.218479461591519, 1};
Point(p10 + 10) = {6.263622, 1.233605, 1};
Point(p10 + 11) = {6.071433812236964, 1.218479461591519, 1};
Point(p10 + 12) = {5.88397793549268, 1.173475287320476, 1};
Point(p10 + 13) = {5.705870155582981, 1.099700629317716, 1};
Point(p10 + 14) = {5.541496077155073, 0.9989720645073191, 1};
Point(p10 + 15) = {5.394903135546143, 0.8737698644538577, 1};
Point(p10 + 16) = {5.269700935492681, 0.7271769228449272, 1};
Point(p10 + 17) = {5.168972370682284, 0.5628028444170192, 1};
Point(p10 + 18) = {5.095197712679524, 0.3846950645073193, 1};
Point(p10 + 19) = {5.050193538408481, 0.1972391877630359, 1};
Point(p10 + 20) = {5.035068, 0.00505100000000015, 1};
Point(p10 + 21) = {5.050193538408481, -0.1871371877630356, 1};
Point(p10 + 22) = {5.095197712679524, -0.3745930645073196, 1};
Point(p10 + 23) = {5.168972370682283, -0.5527008444170184, 1};
Point(p10 + 24) = {5.269700935492681, -0.7170749228449268, 1};
Point(p10 + 25) = {5.394903135546142, -0.8636678644538576, 1};
Point(p10 + 26) = {5.541496077155073, -0.988870064507319, 1};
Point(p10 + 27) = {5.70587015558298, -1.089598629317716, 1};
Point(p10 + 28) = {5.88397793549268, -1.163373287320476, 1};
Point(p10 + 29) = {6.071433812236964, -1.208377461591519, 1};
Point(p10 + 30) = {6.263622, -1.223503, 1};
Point(p10 + 31) = {6.455810187763035, -1.208377461591519, 1};
Point(p10 + 32) = {6.643266064507319, -1.163373287320476, 1};
Point(p10 + 33) = {6.821373844417018, -1.089598629317716, 1};
Point(p10 + 34) = {6.985747922844927, -0.9888700645073193, 1};
Point(p10 + 35) = {7.132340864453857, -0.8636678644538578, 1};
Point(p10 + 36) = {7.257543064507319, -0.7170749228449272, 1};
Point(p10 + 37) = {7.358271629317716, -0.5527008444170193, 1};
Point(p10 + 38) = {7.432046287320476, -0.3745930645073193, 1};
Point(p10 + 39) = {7.477050461591519, -0.1871371877630361, 1};
Spline(10) = {8, p10 + 1, p10 + 2, p10 + 3, p10 + 4, p10 + 5, p10 + 6, p10 + 7, p10 + 8, p10 + 9, p10 + 10, p10 + 11, p10 + 12, p10 + 13, p10 + 14, p10 + 15, p10 + 16, p10 + 17, p10 + 18, p10 + 19, p10 + 20, p10 + 21, p10 + 22, p10 + 23, p10 + 24, p10 + 25, p10 + 26, p10 + 27, p10 + 28, p10 + 29, p10 + 30, p10 + 31, p10 + 32, p10 + 33, p10 + 34, p10 + 35, p10 + 36, p10 + 37, p10 + 38, p10 + 39, 8};
p11 = newp;
Point(p11 + 1) = {10.02564901098059, 0.6529318266123926, 1};
Point(p11 + 2) = {10.00370266525152, 0.7443449354319973, 1};
Point(p11 + 3) = {9.967726354680396, 0.8311994323369609, 1};
Point(p11 + 4) = {9.918605935431996, 0.9113566713599344, 1};
Point(p11 + 5) = {9.857550915249547, 0.9828429152495477, 1};
Point(p11 + 6) = {9.786064671359934, 1.043897935431997, 1};
Point(p11 + 7) = {9.705907432336961, 1.093018354680396, 1};
Point(p11 + 8) = {9.619052935431997, 1.128994665251524, 1};
Point(p11 + 9) = {9.527639826612392, 1.150941010980591, 1};
Point(p11 + 10) = {9.433918999999999, 1.158317, 1};
Point(p11 + 11) = {9.340198173387607, 1.150941010980591, 1};
Point(p11 + 12) = {9.248785064568002, 1.128994665251524, 1};
Point(p11 + 13) = {9.161930567663038, 1.093018354680396, 1};
Point(p11 + 14) = {9.081773328640065, 1.043897935431997, 1};
Point(p11 + 15) = {9.010287084750452, 0.9828429152495478, 1};
Point(p11 + 16) = {8.949232064568003, 0.9113566713599346, 1};
Point(p11 + 17) = {8.900111645319603, 0.8311994323369609, 1};
Point(p11 + 18) = {8.864135334748475, 0.7443449354319973, 1};
Point(p11 + 19) = {8.842188989019409, 0.6529318266123927, 1};
Point(p11 + 20) = {8.834812999999999, 0.5592110000000001, 1};
Point(p11 + 21) = {8.842188989019409, 0.4654901733876076, 1};
Point(p11 + 22) = {8.864135334748475, 0.3740770645680026, 1};
Point(p11 + 23) = {8.900111645319603, 0.2872225676630394, 1};
Point(p11 + 24) = {8.949232064568003, 0.2070653286400657, 1};
Point(p11 + 25) = {9.010287084750452, 0.1355790847504523, 1};
Point(p11 + 26) = {9.081773328640065, 0.07452406456800281, 1};
Point(p11 + 27) = {9.161930567663038, 0.02540364531960371, 1};
Point(p11 + 28) = {9.248785064568002, -0.01057266525152423, 1};
Point(p11 + 29) = {9.340198173387607, -0.03251901098059051, 1};
Point(p11 + 30) = {9.433918999999999, -0.03989500000000001, 1};
Point(p11 + 31) = {9.527639826612392, -0.03251901098059062, 1};
Point(p11 + 32) = {9.619052935431997, -0.01057266525152434, 1};
Point(p11 + 33) = {9.705907432336961, 0.0254036453196036, 1};
Point(p11 + 34) = {9.786064671359934, 0.07452406456800265, 1};
Point(p11 + 35) = {9.857550915249547, 0.1355790847504522, 1};
Point(p11 + 36) = {9.918605935431996, 0.2070653286400654, 1};
Point(p11 + 37) = {9.967726354680396, 0.287222567663039, 1};
Point(p11 + 38) = {10.00370266525152, 0.3740770645680026, 1};
Point(p11 + 39) = {10.02564901098059, 0.4654901733876073, 1};
Spline(11) = {9, p11 + 1, p11 + 2, p11 + 3, p11 + 4, p11 + 5, p11 + 6, p11 + 7, p11 + 8, p11 + 9, p11 + 10, p11 + 11, p11 + 12, p11 + 13, p11 + 14, p11 + 15, p11 + 16, p11 + 17, p11 + 18, p11 + 19, p11 + 20, p11 + 21, p11 + 22, p11 + 23, p11 + 24, p11 + 25, p11 + 26, p11 + 27, p11 + 28, p11 + 29, p11 + 30, p11 + 31, p11 + 32, p11 + 33, p11 + 34, p11 + 35, p11 + 36, p11 + 37, p11 + 38, p11 + 39, 9};
Line(12) = {4, 10};
Line(13) = {10, 7};
Line(14) = {5, 10};
p15 = newp;
Point(p15 + 1) = {7.477050461591519, 0.1972391877630358, 0};
Point(p15 + 2) = {7.432046287320476, 0.3846950645073191, 0};
Point(p15 + 3) = {7.358271629317716, 0.5628028444170191, 0};
Point(p15 + 4) = {7.257543064507319, 0.7271769228449271, 0};
Point(p15 + 5) = {7.132340864453857, 0.8737698644538576, 0};
Point(p15 + 6) = {6.985747922844927, 0.9989720645073191, 0};
Point(p15 + 7) = {6.821373844417019, 1.099700629317716, 0};
Point(p15 + 8) = {6.643266064507319, 1.173475287320476, 0};
Point(p15 + 9) = {6.455810187763036, 1.218479461591519, 0};
Point(p15 + 10) = {6.263622, 1.233605, 0};
Point(p15 + 11) = {6.071433812236964, 1.218479461591519, 0};
Point(p15 + 12) = {5.88397793549268, 1.173475287320476, 0};
Point(p15 + 13) = {5.705870155582981, 1.099700629317716, 0};
Point(p15 + 14) = {5.541496077155073, 0.9989720645073191, 0};
Point(p15 + 15) = {5.394903135546143, 0.8737698644538577, 0};
Point(p15 + 16) = {5.269700935492681, 0.7271769228449272, 0};
Point(p15 + 17) = {5.168972370682284, 0.5628028444170192, 0};
Point(p15 + 18) = {5.095197712679524, 0.3846950645073193, 0};
Point(p15 + 19) = {5.050193538408481, 0.1972391877630359, 0};
Point(p15 + 20) = {5.035068, 0.00505100000000015, 0};
Point(p15 + 21) = {5.050193538408481, -0.1871371877630356, 0};
Point(p15 + 22) = {5.095197712679524, -0.3745930645073196, 0};
Point(p15 + 23) = {5.168972370682283, -0.5527008444170184, 0};
Point(p15 + 24) = {5.269700935492681, -0.7170749228449268, 0};
Point(p15 + 25) = {5.394903135546142, -0.8636678644538576, 0};
Point(p15 + 26) = {5.541496077155073, -0.988870064507319, 0};
Point(p15 + 27) = {5.70587015558298, -1.089598629317716, 0};
Point(p15 + 28) = {5.88397793549268, -1.163373287320476, 0};
Point(p15 + 29) = {6.071433812236964, -1.208377461591519, 0};
Point(p15 + 30) = {6.263622, -1.223503, 0};
Point(p15 + 31) = {6.455810187763035, -1.208377461591519, 0};
Point(p15 + 32) = {6.643266064507319, -1.163373287320476, 0};
Point(p15 + 33) = {6.821373844417018, -1.089598629317716, 0};
Point(p15 + 34) = {6.985747922844927, -0.9888700645073193, 0};
Point(p15 + 35) = {7.132340864453857, -0.8636678644538578, 0};
Point(p15 + 36) = {7.257543064507319, -0.7170749228449272, 0};
Point(p15 + 37) = {7.358271629317716, -0.5527008444170193, 0};
Point(p15 + 38) = {7.432046287320476, -0.3745930645073193, 0};
Point(p15 + 39) = {7.477050461591519, -0.1871371877630361, 0};
Spline(15) = {11, p15 + 1, p15 + 2, p15 + 3, p15 + 4, p15 + 5, p15 + 6, p15 + 7, p15 + 8, p15 + 9, p15 + 10, p15 + 11, p15 + 12, p15 + 13, p15 + 14, p15 + 15, p15 + 16, p15 + 17, p15 + 18, p15 + 19, p15 + 20, p15 + 21, p15 + 22, p15 + 23, p15 + 24, p15 + 25, p15 + 26, p15 + 27, p15 + 28, p15 + 29, p15 + 30, p15 + 31, p15 + 32, p15 + 33, p15 + 34, p15 + 35, p15 + 36, p15 + 37, p15 + 38, p15 + 39, 11};
p16 = newp;
Point(p16 + 1) = {10.02564901098059, 0.6529318266123926, 0};
Point(p16 + 2) = {10.00370266525152, 0.7443449354319973, 0};
Point(p16 + 3) = {9.967726354680396, 0.8311994323369609, 0};
Point(p16 + 4) = {9.918605935431996, 0.9113566713599344, 0};
Point(p16 + 5) = {9.857550915249547, 0.9828429152495477, 0};
Point(p16 + 6) = {9.786064671359934, 1.043897935431997, 0};
Point(p16 + 7) = {9.705907432336961, 1.093018354680396, 0};
Point(p16 + 8) = {9.619052935431997, 1.128994665251524, 0};
Point(p16 + 9) = {9.527639826612392, 1.150941010980591, 0};
Point(p16 + 10) = {9.433918999999999, 1.158317, 0};
Point(p16 + 11) = {9.340198173387607, 1.150941010980591, 0};
Point(p16 + 12) = {9.248785064568002, 1.128994665251524, 0};
Point(p16 + 13) = {9.161930567663038, 1.093018354680396, 0};
Point(p16 + 14) = {9.081773328640065, 1.043897935431997, 0};
Point(p16 + 15) = {9.010287084750452, 0.9828429152495478, 0};
Point(p16 + 16) = {8.949232064568003, 0.9113566713599346, 0};
Point(p16 + 17) = {8.900111645319603, 0.8311994323369609, 0};
Point(p16 + 18) = {8.864135334748475, 0.7443449354319973, 0};
Point(p16 + 19) = {8.842188989019409, 0.6529318266123927, 0};
Point(p16 + 20) = {8.834812999999999, 0.5592110000000001, 0};
Point(p16 + 21) = {8.842188989019409, 0.4654901733876076, 0};
Point(p16 + 22) = {8.864135334748475, 0.3740770645680026, 0};
Point(p16 + 23) = {8.900111645319603, 0.2872225676630394, 0};
Point(p16 + 24) = {8.949232064568003, 0.2070653286400657, 0};
Point(p16 + 25) = {9.010287084750452, 0.1355790847504523, 0};
Point(p16 + 26) = {9.081773328640065, 0.07452406456800281, 0};
Point(p16 + 27) = {9.161930567663038, 0.02540364531960371, 0};
Point(p16 + 28) = {9.248785064568002, -0.01057266525152423, 0};
Point(p16 + 29) = {9.340198173387607, -0.03251901098059051, 0};
Point(p16 + 30) = {9.433918999999999, -0.03989500000000001, 0};
Point(p16 + 31) = {9.527639826612392, -0.03251901098059062, 0};
Point(p16 + 32) = {9.619052935431997, -0.01057266525152434, 0};
Point(p16 + 33) = {9.705907432336961, 0.0254036453196036, 0};
Point(p16 + 34) = {9.786064671359934, 0.07452406456800265, 0};
Point(p16 + 35) = {9.857550915249547, 0.1355790847504522, 0};
Point(p16 + 36) = {9.918605935431996, 0.2070653286400654, 0};
Point(p16 + 37) = {9.967726354680396, 0.287222567663039, 0};
Point(p16 + 38) = {10.00370266525152, 0.3740770645680026, 0};
Point(p16 + 39) = {10.02564901098059, 0.4654901733876073, 0};
Spline(16) = {12, p16 + 1, p16 + 2, p16 + 3, p16 + 4, p16 + 5, p16 + 6, p16 + 7, p16 + 8, p16 + 9, p16 + 10, p16 + 11, p16 + 12, p16 + 13, p16 + 14, p16 + 15, p16 + 16, p16 + 17, p16 + 18, p16 + 19, p16 + 20, p16 + 21, p16 + 22, p16 + 23, p16 + 24, p16 + 25, p16 + 26, p16 + 27, p16 + 28, p16 + 29, p16 + 30, p16 + 31, p16 + 32, p16 + 33, p16 + 34, p16 + 35, p16 + 36, p16 + 37, p16 + 38, p16 + 39, 12};
Line(17) = {11, 8};
Line(18) = {12, 9};
Curve Loop(1) = {-1, 4, 3, -2};
Plane Surface(1) = {1};
Curve Loop(2) = {-5, 1, 7, -6};
Plane Surface(2) = {2};
Curve Loop(3) = {-2, 7, 9, -8, -10, -11};
Plane Surface(3) = {3};
Curve Loop(4) = {-12, 3, 8, -13};
Plane Surface(4) = {4};
Curve Loop(5) = {-4, 5, 14, -12, -15, -16};
Plane Surface(5) = {5};
Curve Loop(6) = {-6, 14, 13, -9};
Plane Surface(6) = {6};
Curve Loop(7) = {-10, -17, 15, 17};
Surface(7) = {7};
Curve Loop(8) = {-11, -18, 16, 18};
Surface(8) = {8};
Surface Loop(1) = {1, 2, 3, 4, 5, 6, 7, 8};
Volume(1) = {1};
Physical Surface("INFLOW") = {1};
Physical Surface("OUTFLOW") = {6};
Physical Surface("OBSTACLE") = {7, 8};
Physical Surface("WALL_Y") = {2, 4};
Physical Surface("WALL_Z") = {3, 5};
Physical Volume("FLUID") = {1};
