cl__1 = 0.235095;
cl__2 = 0.509512;
cl__3 = 3.138647;
cl__4 = 0.090728;
cl__5 = 0.08252900000000001;
Point(1) = {0.317382, -3.616989, 1, cl__1};
Point(2) = {0.317382, -3.616989, 0, cl__1};
Point(3) = {0.317382, 4.131345, 1, cl__2};
Point(4) = {0.317382, 4.131345, 0, cl__2};
Point(5) = {31.146446, -3.616989, 0, cl__3};
Point(6) = {31.146446, -3.616989, 1, cl__3};
Point(7) = {31.146446, 4.131345, 1, cl__3};
Point(8) = {3.698887, -1.497023, 1, cl__4};
Point(9) = {6.094991, 0.8869939999999998, 1, cl__5};
Point(10) = {31.146446, 4.131345, 0, cl__3};
Point(11) = {3.698887, -1.497023, 0, cl__4};
Point(12) = {6.094991, 0.8869939999999998, 0, cl__5};
Line(1) = {2, 1};
Line(2) = {1, 3};
Line(3) = {4, 3};
Line(4) = {2, 4};
Line(5) = {2, 5};
Line(6) = {5, 6};
Line(7) = {1, 6};
Line(8) = {3, 7};
Line(9) = {6, 7};
p10 = newp;
Point(p10 + 1) = {3.687716926901794, -1.35509376429616, 1};
Point(p10 + 2) = {3.654481751878202, -1.216659297411475, 1};
Point(p10 + 3) = {3.599999835239526, -1.085128315358303, 1};
Point(p10 + 4) = {3.525612702588525, -0.9637395474410941, 1};
Point(p10 + 5) = {3.433152012007806, -0.855481987992194, 1};
Point(p10 + 6) = {3.324894452558906, -0.7630212974114752, 1};
Point(p10 + 7) = {3.203505684641697, -0.6886341647604745, 1};
Point(p10 + 8) = {3.071974702588525, -0.6341522481217983, 1};
Point(p10 + 9) = {2.933540235703841, -0.6009170730982059, 1};
Point(p10 + 10) = {2.791611, -0.589747, 1};
Point(p10 + 11) = {2.649681764296159, -0.6009170730982059, 1};
Point(p10 + 12) = {2.511247297411475, -0.6341522481217982, 1};
Point(p10 + 13) = {2.379716315358303, -0.6886341647604743, 1};
Point(p10 + 14) = {2.258327547441094, -0.7630212974114752, 1};
Point(p10 + 15) = {2.150069987992194, -0.8554819879921939, 1};
Point(p10 + 16) = {2.057609297411475, -0.963739547441094, 1};
Point(p10 + 17) = {1.983222164760475, -1.085128315358303, 1};
Point(p10 + 18) = {1.928740248121798, -1.216659297411475, 1};
Point(p10 + 19) = {1.895505073098206, -1.355093764296159, 1};
Point(p10 + 20) = {1.884335, -1.497023, 1};
Point(p10 + 21) = {1.895505073098206, -1.63895223570384, 1};
Point(p10 + 22) = {1.928740248121798, -1.777386702588525, 1};
Point(p10 + 23) = {1.983222164760474, -1.908917684641696, 1};
Point(p10 + 24) = {2.057609297411475, -2.030306452558906, 1};
Point(p10 + 25) = {2.150069987992194, -2.138564012007806, 1};
Point(p10 + 26) = {2.258327547441094, -2.231024702588525, 1};
Point(p10 + 27) = {2.379716315358303, -2.305411835239525, 1};
Point(p10 + 28) = {2.511247297411475, -2.359893751878202, 1};
Point(p10 + 29) = {2.649681764296159, -2.393128926901794, 1};
Point(p10 + 30) = {2.791611, -2.404299, 1};
Point(p10 + 31) = {2.93354023570384, -2.393128926901794, 1};
Point(p10 + 32) = {3.071974702588525, -2.359893751878202, 1};
Point(p10 + 33) = {3.203505684641697, -2.305411835239526, 1};
Point(p10 + 34) = {3.324894452558905, -2.231024702588525, 1};
Point(p10 + 35) = {3.433152012007806, -2.138564012007806, 1};
Point(p10 + 36) = {3.525612702588525, -2.030306452558906, 1};
Point(p10 + 37) = {3.599999835239525, -1.908917684641697, 1};
Point(p10 + 38) = {3.654481751878202, -1.777386702588525, 1};
Point(p10 + 39) = {3.687716926901794, -1.638952235703841, 1};
Spline(10) = {8, p10 + 1, p10 + 2, p10 + 3, p10 + 4, p10 + 5, p10 + 6, p10 + 7, p10 + 8, p10 + 9, p10 + 10, p10 + 11, p10 + 12, p10 + 13, p10 + 14, p10 + 15, p10 + 16, p10 + 17, p10 + 18, p10 + 19, p10 + 20, p10 + 21, p10 + 22, p10 + 23, p10 + 24, p10 + 25, p10 + 26, p10 + 27, p10 + 28, p10 + 29, p10 + 30, p10 + 31, p10 + 32, p10 + 33, p10 + 34, p10 + 35, p10 + 36, p10 + 37, p10 + 38, p10 + 39, 8};
p11 = newp;
Point(p11 + 1) = {6.084830298298102, 1.016097956087517, 1};
Point(p11 + 2) = {6.054598383389743, 1.142022944304695, 1};
Point(p11 + 3) = {6.005039665353943, 1.26166827352055, 1};
Point(p11 + 4) = {5.937374444304695, 1.372087878649707, 1};
Point(p11 + 5) = {5.853268862552227, 1.470562862552227, 1};
Point(p11 + 6) = {5.754793878649708, 1.554668444304695, 1};
Point(p11 + 7) = {5.64437427352055, 1.622333665353942, 1};
Point(p11 + 8) = {5.524728944304695, 1.671892383389744, 1};
Point(p11 + 9) = {5.398803956087518, 1.702124298298102, 1};
Point(p11 + 10) = {5.2697, 1.712285, 1};
Point(p11 + 11) = {5.140596043912483, 1.702124298298102, 1};
Point(p11 + 12) = {5.014671055695306, 1.671892383389744, 1};
Point(p11 + 13) = {4.89502572647945, 1.622333665353942, 1};
Point(p11 + 14) = {4.784606121350293, 1.554668444304695, 1};
Point(p11 + 15) = {4.686131137447774, 1.470562862552227, 1};
Point(p11 + 16) = {4.602025555695306, 1.372087878649707, 1};
Point(p11 + 17) = {4.534360334646058, 1.26166827352055, 1};
Point(p11 + 18) = {4.484801616610257, 1.142022944304695, 1};
Point(p11 + 19) = {4.454569701701899, 1.016097956087517, 1};
Point(p11 + 20) = {4.444409, 0.8869940000000001, 1};
Point(p11 + 21) = {4.454569701701899, 0.7578900439124829, 1};
Point(p11 + 22) = {4.484801616610257, 0.6319650556953049, 1};
Point(p11 + 23) = {4.534360334646058, 0.5123197264794501, 1};
Point(p11 + 24) = {4.602025555695305, 0.4019001213502926, 1};
Point(p11 + 25) = {4.686131137447773, 0.303425137447773, 1};
Point(p11 + 26) = {4.784606121350293, 0.2193195556953053, 1};
Point(p11 + 27) = {4.895025726479449, 0.1516543346460577, 1};
Point(p11 + 28) = {5.014671055695305, 0.1020956166102563, 1};
Point(p11 + 29) = {5.140596043912483, 0.07186370170189815, 1};
Point(p11 + 30) = {5.2697, 0.06170299999999995, 1};
Point(p11 + 31) = {5.398803956087518, 0.07186370170189815, 1};
Point(p11 + 32) = {5.524728944304695, 0.1020956166102563, 1};
Point(p11 + 33) = {5.64437427352055, 0.1516543346460576, 1};
Point(p11 + 34) = {5.754793878649708, 0.2193195556953051, 1};
Point(p11 + 35) = {5.853268862552227, 0.3034251374477728, 1};
Point(p11 + 36) = {5.937374444304695, 0.4019001213502923, 1};
Point(p11 + 37) = {6.005039665353943, 0.5123197264794495, 1};
Point(p11 + 38) = {6.054598383389743, 0.631965055695305, 1};
Point(p11 + 39) = {6.084830298298102, 0.7578900439124826, 1};
Spline(11) = {9, p11 + 1, p11 + 2, p11 + 3, p11 + 4, p11 + 5, p11 + 6, p11 + 7, p11 + 8, p11 + 9, p11 + 10, p11 + 11, p11 + 12, p11 + 13, p11 + 14, p11 + 15, p11 + 16, p11 + 17, p11 + 18, p11 + 19, p11 + 20, p11 + 21, p11 + 22, p11 + 23, p11 + 24, p11 + 25, p11 + 26, p11 + 27, p11 + 28, p11 + 29, p11 + 30, p11 + 31, p11 + 32, p11 + 33, p11 + 34, p11 + 35, p11 + 36, p11 + 37, p11 + 38, p11 + 39, 9};
Line(12) = {4, 10};
Line(13) = {10, 7};
Line(14) = {5, 10};
p15 = newp;
Point(p15 + 1) = {3.687716926901794, -1.35509376429616, 0};
Point(p15 + 2) = {3.654481751878202, -1.216659297411475, 0};
Point(p15 + 3) = {3.599999835239526, -1.085128315358303, 0};
Point(p15 + 4) = {3.525612702588525, -0.9637395474410941, 0};
Point(p15 + 5) = {3.433152012007806, -0.855481987992194, 0};
Point(p15 + 6) = {3.324894452558906, -0.7630212974114752, 0};
Point(p15 + 7) = {3.203505684641697, -0.6886341647604745, 0};
Point(p15 + 8) = {3.071974702588525, -0.6341522481217983, 0};
Point(p15 + 9) = {2.933540235703841, -0.6009170730982059, 0};
Point(p15 + 10) = {2.791611, -0.589747, 0};
Point(p15 + 11) = {2.649681764296159, -0.6009170730982059, 0};
Point(p15 + 12) = {2.511247297411475, -0.6341522481217982, 0};
Point(p15 + 13) = {2.379716315358303, -0.6886341647604743, 0};
Point(p15 + 14) = {2.258327547441094, -0.7630212974114752, 0};
Point(p15 + 15) = {2.150069987992194, -0.8554819879921939, 0};
Point(p15 + 16) = {2.057609297411475, -0.963739547441094, 0};
Point(p15 + 17) = {1.983222164760475, -1.085128315358303, 0};
Point(p15 + 18) = {1.928740248121798, -1.216659297411475, 0};
Point(p15 + 19) = {1.895505073098206, -1.355093764296159, 0};
Point(p15 + 20) = {1.884335, -1.497023, 0};
Point(p15 + 21) = {1.895505073098206, -1.63895223570384, 0};
Point(p15 + 22) = {1.928740248121798, -1.777386702588525, 0};
Point(p15 + 23) = {1.983222164760474, -1.908917684641696, 0};
Point(p15 + 24) = {2.057609297411475, -2.030306452558906, 0};
Point(p15 + 25) = {2.150069987992194, -2.138564012007806, 0};
Point(p15 + 26) = {2.258327547441094, -2.231024702588525, 0};
Point(p15 + 27) = {2.379716315358303, -2.305411835239525, 0};
Point(p15 + 28) = {2.511247297411475, -2.359893751878202, 0};
Point(p15 + 29) = {2.649681764296159, -2.393128926901794, 0};
Point(p15 + 30) = {2.791611, -2.404299, 0};
Point(p15 + 31) = {2.93354023570384, -2.393128926901794, 0};
Point(p15 + 32) = {3.071974702588525, -2.359893751878202, 0};
Point(p15 + 33) = {3.203505684641697, -2.305411835239526, 0};
Point(p15 + 34) = {3.324894452558905, -2.231024702588525, 0};
Point(p15 + 35) = {3.433152012007806, -2.138564012007806, 0};
Point(p15 + 36) = {3.525612702588525, -2.030306452558906, 0};
Point(p15 + 37) = {3.599999835239525, -1.908917684641697, 0};
Point(p15 + 38) = {3.654481751878202, -1.777386702588525, 0};
Point(p15 + 39) = {3.687716926901794, -1.638952235703841, 0};
Spline(15) = {11, p15 + 1, p15 + 2, p15 + 3, p15 + 4, p15 + 5, p15 + 6, p15 + 7, p15 + 8, p15 + 9, p15 + 10, p15 + 11, p15 + 12, p15 + 13, p15 + 14, p15 + 15, p15 + 16, p15 + 17, p15 + 18, p15 + 19, p15 + 20, p15 + 21, p15 + 22, p15 + 23, p15 + 24, p15 + 25, p15 + 26, p15 + 27, p15 + 28, p15 + 29, p15 + 30, p15 + 31, p15 + 32, p15 + 33, p15 + 34, p15 + 35, p15 + 36, p15 + 37, p15 + 38, p15 + 39, 11};
p16 = newp;
Point(p16 + 1) = {6.084830298298102, 1.016097956087517, 0};
Point(p16 + 2) = {6.054598383389743, 1.142022944304695, 0};
Point(p16 + 3) = {6.005039665353943, 1.26166827352055, 0};
Point(p16 + 4) = {5.937374444304695, 1.372087878649707, 0};
Point(p16 + 5) = {5.853268862552227, 1.470562862552227, 0};
Point(p16 + 6) = {5.754793878649708, 1.554668444304695, 0};
Point(p16 + 7) = {5.64437427352055, 1.622333665353942, 0};
Point(p16 + 8) = {5.524728944304695, 1.671892383389744, 0};
Point(p16 + 9) = {5.398803956087518, 1.702124298298102, 0};
Point(p16 + 10) = {5.2697, 1.712285, 0};
Point(p16 + 11) = {5.140596043912483, 1.702124298298102, 0};
Point(p16 + 12) = {5.014671055695306, 1.671892383389744, 0};
Point(p16 + 13) = {4.89502572647945, 1.622333665353942, 0};
Point(p16 + 14) = {4.784606121350293, 1.554668444304695, 0};
Point(p16 + 15) = {4.686131137447774, 1.470562862552227, 0};
Point(p16 + 16) = {4.602025555695306, 1.372087878649707, 0};
Point(p16 + 17) = {4.534360334646058, 1.26166827352055, 0};
Point(p16 + 18) = {4.484801616610257, 1.142022944304695, 0};
Point(p16 + 19) = {4.454569701701899, 1.016097956087517, 0};
Point(p16 + 20) = {4.444409, 0.8869940000000001, 0};
Point(p16 + 21) = {4.454569701701899, 0.7578900439124829, 0};
Point(p16 + 22) = {4.484801616610257, 0.6319650556953049, 0};
Point(p16 + 23) = {4.534360334646058, 0.5123197264794501, 0};
Point(p16 + 24) = {4.602025555695305, 0.4019001213502926, 0};
Point(p16 + 25) = {4.686131137447773, 0.303425137447773, 0};
Point(p16 + 26) = {4.784606121350293, 0.2193195556953053, 0};
Point(p16 + 27) = {4.895025726479449, 0.1516543346460577, 0};
Point(p16 + 28) = {5.014671055695305, 0.1020956166102563, 0};
Point(p16 + 29) = {5.140596043912483, 0.07186370170189815, 0};
Point(p16 + 30) = {5.2697, 0.06170299999999995, 0};
Point(p16 + 31) = {5.398803956087518, 0.07186370170189815, 0};
Point(p16 + 32) = {5.524728944304695, 0.1020956166102563, 0};
Point(p16 + 33) = {5.64437427352055, 0.1516543346460576, 0};
Point(p16 + 34) = {5.754793878649708, 0.2193195556953051, 0};
Point(p16 + 35) = {5.853268862552227, 0.3034251374477728, 0};
Point(p16 + 36) = {5.937374444304695, 0.4019001213502923, 0};
Point(p16 + 37) = {6.005039665353943, 0.5123197264794495, 0};
Point(p16 + 38) = {6.054598383389743, 0.631965055695305, 0};
Point(p16 + 39) = {6.084830298298102, 0.7578900439124826, 0};
Spline(16) = {12, p16 + 1, p16 + 2, p16 + 3, p16 + 4, p16 + 5, p16 + 6, p16 + 7, p16 + 8, p16 + 9, p16 + 10, p16 + 11, p16 + 12, p16 + 13, p16 + 14, p16 + 15, p16 + 16, p16 + 17, p16 + 18, p16 + 19, p16 + 20, p16 + 21, p16 + 22, p16 + 23, p16 + 24, p16 + 25, p16 + 26, p16 + 27, p16 + 28, p16 + 29, p16 + 30, p16 + 31, p16 + 32, p16 + 33, p16 + 34, p16 + 35, p16 + 36, p16 + 37, p16 + 38, p16 + 39, 12};
Line(17) = {11, 8};
Line(18) = {12, 9};
Curve Loop(1) = {-1, 4, 3, -2};
Plane Surface(1) = {1};
Curve Loop(2) = {-5, 1, 7, -6};
Plane Surface(2) = {2};
Curve Loop(3) = {-2, 7, 9, -8, -10, -11};
Plane Surface(3) = {3};
Curve Loop(4) = {-12, 3, 8, -13};
Plane Surface(4) = {4};
Curve Loop(5) = {-4, 5, 14, -12, -15, -16};
Plane Surface(5) = {5};
Curve Loop(6) = {-6, 14, 13, -9};
Plane Surface(6) = {6};
Curve Loop(7) = {-10, -17, 15, 17};
Surface(7) = {7};
Curve Loop(8) = {-11, -18, 16, 18};
Surface(8) = {8};
Surface Loop(1) = {1, 2, 3, 4, 5, 6, 7, 8};
Volume(1) = {1};
Physical Surface("INFLOW") = {1};
Physical Surface("OUTFLOW") = {6};
Physical Surface("OBSTACLE") = {7, 8};
Physical Surface("WALL_Y") = {2, 4};
Physical Surface("WALL_Z") = {3, 5};
Physical Volume("FLUID") = {1};
