cl__1 = 3.082343;
cl__2 = 0.875656;
cl__3 = 0.71758;
cl__4 = 0.133989;
cl__5 = 0.104973;
Point(1) = {0.31458, -3.747798, 1, cl__1};
Point(2) = {0.31458, -3.747798, 0, cl__1};
Point(3) = {0.31458, 4.649800000000001, 1, cl__1};
Point(4) = {0.31458, 4.649800000000001, 0, cl__1};
Point(5) = {30.536113, -3.747798, 0, cl__2};
Point(6) = {30.536113, -3.747798, 1, cl__2};
Point(7) = {30.536113, 4.649800000000001, 1, cl__3};
Point(8) = {22.247867, -0.7085020000000003, 1, cl__4};
Point(9) = {23.723347, 2.233086, 1, cl__5};
Point(10) = {30.536113, 4.649800000000001, 0, cl__3};
Point(11) = {22.247867, -0.7085020000000003, 0, cl__4};
Point(12) = {23.723347, 2.233086, 0, cl__5};
Line(1) = {2, 1};
Line(2) = {1, 3};
Line(3) = {4, 3};
Line(4) = {2, 4};
Line(5) = {2, 5};
Line(6) = {5, 6};
Line(7) = {1, 6};
Line(8) = {3, 7};
Line(9) = {6, 7};
p10 = newp;
Point(p10 + 1) = {22.2313707060567, -0.498896711768315, 1};
Point(p10 + 2) = {22.18228801773175, -0.2944526013729629, 1};
Point(p10 + 3) = {22.1018275137078, -0.1002037613229791, 1};
Point(p10 + 4) = {21.99197039862704, 0.0790667572646665, 1};
Point(p10 + 5) = {21.85542171925761, 0.2389447192576055, 1};
Point(p10 + 6) = {21.69554375726467, 0.3754933986270372, 1};
Point(p10 + 7) = {21.51627323867702, 0.4853505137078007, 1};
Point(p10 + 8) = {21.32202439862704, 0.5658110177317459, 1};
Point(p10 + 9) = {21.11758028823169, 0.6148937060567004, 1};
Point(p10 + 10) = {20.907975, 0.6313900000000001, 1};
Point(p10 + 11) = {20.69836971176831, 0.6148937060567004, 1};
Point(p10 + 12) = {20.49392560137296, 0.5658110177317461, 1};
Point(p10 + 13) = {20.29967676132298, 0.4853505137078007, 1};
Point(p10 + 14) = {20.12040624273533, 0.3754933986270372, 1};
Point(p10 + 15) = {19.96052828074239, 0.2389447192576057, 1};
Point(p10 + 16) = {19.82397960137296, 0.07906675726466661, 1};
Point(p10 + 17) = {19.7141224862922, -0.100203761322979, 1};
Point(p10 + 18) = {19.63366198226825, -0.2944526013729628, 1};
Point(p10 + 19) = {19.5845792939433, -0.4988967117683148, 1};
Point(p10 + 20) = {19.568083, -0.7085019999999999, 1};
Point(p10 + 21) = {19.5845792939433, -0.9181072882316847, 1};
Point(p10 + 22) = {19.63366198226825, -1.122551398627037, 1};
Point(p10 + 23) = {19.7141224862922, -1.31680023867702, 1};
Point(p10 + 24) = {19.82397960137296, -1.496070757264666, 1};
Point(p10 + 25) = {19.96052828074239, -1.655948719257605, 1};
Point(p10 + 26) = {20.12040624273533, -1.792497398627037, 1};
Point(p10 + 27) = {20.29967676132298, -1.902354513707801, 1};
Point(p10 + 28) = {20.49392560137296, -1.982815017731746, 1};
Point(p10 + 29) = {20.69836971176831, -2.0318977060567, 1};
Point(p10 + 30) = {20.907975, -2.048394, 1};
Point(p10 + 31) = {21.11758028823169, -2.0318977060567, 1};
Point(p10 + 32) = {21.32202439862704, -1.982815017731746, 1};
Point(p10 + 33) = {21.51627323867702, -1.902354513707801, 1};
Point(p10 + 34) = {21.69554375726467, -1.792497398627037, 1};
Point(p10 + 35) = {21.85542171925761, -1.655948719257606, 1};
Point(p10 + 36) = {21.99197039862704, -1.496070757264667, 1};
Point(p10 + 37) = {22.1018275137078, -1.316800238677021, 1};
Point(p10 + 38) = {22.18228801773175, -1.122551398627037, 1};
Point(p10 + 39) = {22.2313707060567, -0.9181072882316853, 1};
Spline(10) = {8, p10 + 1, p10 + 2, p10 + 3, p10 + 4, p10 + 5, p10 + 6, p10 + 7, p10 + 8, p10 + 9, p10 + 10, p10 + 11, p10 + 12, p10 + 13, p10 + 14, p10 + 15, p10 + 16, p10 + 17, p10 + 18, p10 + 19, p10 + 20, p10 + 21, p10 + 22, p10 + 23, p10 + 24, p10 + 25, p10 + 26, p10 + 27, p10 + 28, p10 + 29, p10 + 30, p10 + 31, p10 + 32, p10 + 33, p10 + 34, p10 + 35, p10 + 36, p10 + 37, p10 + 38, p10 + 39, 8};
p11 = newp;
Point(p11 + 1) = {23.71042313101957, 2.397299325248821, 1};
Point(p11 + 2) = {23.67196975262445, 2.557469173437236, 1};
Point(p11 + 3) = {23.60893371461016, 2.709651631329596, 1};
Point(p11 + 4) = {23.52286717343724, 2.850099461747969, 1};
Point(p11 + 5) = {23.41588937298783, 2.97535437298783, 1};
Point(p11 + 6) = {23.29063446174797, 3.082332173437236, 1};
Point(p11 + 7) = {23.1501866313296, 3.168398714610158, 1};
Point(p11 + 8) = {22.99800417343724, 3.231434752624446, 1};
Point(p11 + 9) = {22.83783432524882, 3.269888131019572, 1};
Point(p11 + 10) = {22.673621, 3.282812, 1};
Point(p11 + 11) = {22.50940767475118, 3.269888131019572, 1};
Point(p11 + 12) = {22.34923782656276, 3.231434752624446, 1};
Point(p11 + 13) = {22.19705536867041, 3.168398714610159, 1};
Point(p11 + 14) = {22.05660753825203, 3.082332173437236, 1};
Point(p11 + 15) = {21.93135262701217, 2.97535437298783, 1};
Point(p11 + 16) = {21.82437482656276, 2.850099461747969, 1};
Point(p11 + 17) = {21.73830828538984, 2.709651631329596, 1};
Point(p11 + 18) = {21.67527224737556, 2.557469173437236, 1};
Point(p11 + 19) = {21.63681886898043, 2.397299325248821, 1};
Point(p11 + 20) = {21.623895, 2.233086, 1};
Point(p11 + 21) = {21.63681886898043, 2.068872674751179, 1};
Point(p11 + 22) = {21.67527224737556, 1.908702826562764, 1};
Point(p11 + 23) = {21.73830828538984, 1.756520368670405, 1};
Point(p11 + 24) = {21.82437482656276, 1.616072538252032, 1};
Point(p11 + 25) = {21.93135262701217, 1.49081762701217, 1};
Point(p11 + 26) = {22.05660753825203, 1.383839826562764, 1};
Point(p11 + 27) = {22.19705536867041, 1.297773285389842, 1};
Point(p11 + 28) = {22.34923782656276, 1.234737247375554, 1};
Point(p11 + 29) = {22.50940767475118, 1.196283868980429, 1};
Point(p11 + 30) = {22.673621, 1.18336, 1};
Point(p11 + 31) = {22.83783432524882, 1.196283868980428, 1};
Point(p11 + 32) = {22.99800417343724, 1.234737247375554, 1};
Point(p11 + 33) = {23.1501866313296, 1.297773285389841, 1};
Point(p11 + 34) = {23.29063446174797, 1.383839826562764, 1};
Point(p11 + 35) = {23.41588937298783, 1.49081762701217, 1};
Point(p11 + 36) = {23.52286717343724, 1.616072538252031, 1};
Point(p11 + 37) = {23.60893371461016, 1.756520368670405, 1};
Point(p11 + 38) = {23.67196975262445, 1.908702826562764, 1};
Point(p11 + 39) = {23.71042313101957, 2.068872674751178, 1};
Spline(11) = {9, p11 + 1, p11 + 2, p11 + 3, p11 + 4, p11 + 5, p11 + 6, p11 + 7, p11 + 8, p11 + 9, p11 + 10, p11 + 11, p11 + 12, p11 + 13, p11 + 14, p11 + 15, p11 + 16, p11 + 17, p11 + 18, p11 + 19, p11 + 20, p11 + 21, p11 + 22, p11 + 23, p11 + 24, p11 + 25, p11 + 26, p11 + 27, p11 + 28, p11 + 29, p11 + 30, p11 + 31, p11 + 32, p11 + 33, p11 + 34, p11 + 35, p11 + 36, p11 + 37, p11 + 38, p11 + 39, 9};
Line(12) = {4, 10};
Line(13) = {10, 7};
Line(14) = {5, 10};
p15 = newp;
Point(p15 + 1) = {22.2313707060567, -0.498896711768315, 0};
Point(p15 + 2) = {22.18228801773175, -0.2944526013729629, 0};
Point(p15 + 3) = {22.1018275137078, -0.1002037613229791, 0};
Point(p15 + 4) = {21.99197039862704, 0.0790667572646665, 0};
Point(p15 + 5) = {21.85542171925761, 0.2389447192576055, 0};
Point(p15 + 6) = {21.69554375726467, 0.3754933986270372, 0};
Point(p15 + 7) = {21.51627323867702, 0.4853505137078007, 0};
Point(p15 + 8) = {21.32202439862704, 0.5658110177317459, 0};
Point(p15 + 9) = {21.11758028823169, 0.6148937060567004, 0};
Point(p15 + 10) = {20.907975, 0.6313900000000001, 0};
Point(p15 + 11) = {20.69836971176831, 0.6148937060567004, 0};
Point(p15 + 12) = {20.49392560137296, 0.5658110177317461, 0};
Point(p15 + 13) = {20.29967676132298, 0.4853505137078007, 0};
Point(p15 + 14) = {20.12040624273533, 0.3754933986270372, 0};
Point(p15 + 15) = {19.96052828074239, 0.2389447192576057, 0};
Point(p15 + 16) = {19.82397960137296, 0.07906675726466661, 0};
Point(p15 + 17) = {19.7141224862922, -0.100203761322979, 0};
Point(p15 + 18) = {19.63366198226825, -0.2944526013729628, 0};
Point(p15 + 19) = {19.5845792939433, -0.4988967117683148, 0};
Point(p15 + 20) = {19.568083, -0.7085019999999999, 0};
Point(p15 + 21) = {19.5845792939433, -0.9181072882316847, 0};
Point(p15 + 22) = {19.63366198226825, -1.122551398627037, 0};
Point(p15 + 23) = {19.7141224862922, -1.31680023867702, 0};
Point(p15 + 24) = {19.82397960137296, -1.496070757264666, 0};
Point(p15 + 25) = {19.96052828074239, -1.655948719257605, 0};
Point(p15 + 26) = {20.12040624273533, -1.792497398627037, 0};
Point(p15 + 27) = {20.29967676132298, -1.902354513707801, 0};
Point(p15 + 28) = {20.49392560137296, -1.982815017731746, 0};
Point(p15 + 29) = {20.69836971176831, -2.0318977060567, 0};
Point(p15 + 30) = {20.907975, -2.048394, 0};
Point(p15 + 31) = {21.11758028823169, -2.0318977060567, 0};
Point(p15 + 32) = {21.32202439862704, -1.982815017731746, 0};
Point(p15 + 33) = {21.51627323867702, -1.902354513707801, 0};
Point(p15 + 34) = {21.69554375726467, -1.792497398627037, 0};
Point(p15 + 35) = {21.85542171925761, -1.655948719257606, 0};
Point(p15 + 36) = {21.99197039862704, -1.496070757264667, 0};
Point(p15 + 37) = {22.1018275137078, -1.316800238677021, 0};
Point(p15 + 38) = {22.18228801773175, -1.122551398627037, 0};
Point(p15 + 39) = {22.2313707060567, -0.9181072882316853, 0};
Spline(15) = {11, p15 + 1, p15 + 2, p15 + 3, p15 + 4, p15 + 5, p15 + 6, p15 + 7, p15 + 8, p15 + 9, p15 + 10, p15 + 11, p15 + 12, p15 + 13, p15 + 14, p15 + 15, p15 + 16, p15 + 17, p15 + 18, p15 + 19, p15 + 20, p15 + 21, p15 + 22, p15 + 23, p15 + 24, p15 + 25, p15 + 26, p15 + 27, p15 + 28, p15 + 29, p15 + 30, p15 + 31, p15 + 32, p15 + 33, p15 + 34, p15 + 35, p15 + 36, p15 + 37, p15 + 38, p15 + 39, 11};
p16 = newp;
Point(p16 + 1) = {23.71042313101957, 2.397299325248821, 0};
Point(p16 + 2) = {23.67196975262445, 2.557469173437236, 0};
Point(p16 + 3) = {23.60893371461016, 2.709651631329596, 0};
Point(p16 + 4) = {23.52286717343724, 2.850099461747969, 0};
Point(p16 + 5) = {23.41588937298783, 2.97535437298783, 0};
Point(p16 + 6) = {23.29063446174797, 3.082332173437236, 0};
Point(p16 + 7) = {23.1501866313296, 3.168398714610158, 0};
Point(p16 + 8) = {22.99800417343724, 3.231434752624446, 0};
Point(p16 + 9) = {22.83783432524882, 3.269888131019572, 0};
Point(p16 + 10) = {22.673621, 3.282812, 0};
Point(p16 + 11) = {22.50940767475118, 3.269888131019572, 0};
Point(p16 + 12) = {22.34923782656276, 3.231434752624446, 0};
Point(p16 + 13) = {22.19705536867041, 3.168398714610159, 0};
Point(p16 + 14) = {22.05660753825203, 3.082332173437236, 0};
Point(p16 + 15) = {21.93135262701217, 2.97535437298783, 0};
Point(p16 + 16) = {21.82437482656276, 2.850099461747969, 0};
Point(p16 + 17) = {21.73830828538984, 2.709651631329596, 0};
Point(p16 + 18) = {21.67527224737556, 2.557469173437236, 0};
Point(p16 + 19) = {21.63681886898043, 2.397299325248821, 0};
Point(p16 + 20) = {21.623895, 2.233086, 0};
Point(p16 + 21) = {21.63681886898043, 2.068872674751179, 0};
Point(p16 + 22) = {21.67527224737556, 1.908702826562764, 0};
Point(p16 + 23) = {21.73830828538984, 1.756520368670405, 0};
Point(p16 + 24) = {21.82437482656276, 1.616072538252032, 0};
Point(p16 + 25) = {21.93135262701217, 1.49081762701217, 0};
Point(p16 + 26) = {22.05660753825203, 1.383839826562764, 0};
Point(p16 + 27) = {22.19705536867041, 1.297773285389842, 0};
Point(p16 + 28) = {22.34923782656276, 1.234737247375554, 0};
Point(p16 + 29) = {22.50940767475118, 1.196283868980429, 0};
Point(p16 + 30) = {22.673621, 1.18336, 0};
Point(p16 + 31) = {22.83783432524882, 1.196283868980428, 0};
Point(p16 + 32) = {22.99800417343724, 1.234737247375554, 0};
Point(p16 + 33) = {23.1501866313296, 1.297773285389841, 0};
Point(p16 + 34) = {23.29063446174797, 1.383839826562764, 0};
Point(p16 + 35) = {23.41588937298783, 1.49081762701217, 0};
Point(p16 + 36) = {23.52286717343724, 1.616072538252031, 0};
Point(p16 + 37) = {23.60893371461016, 1.756520368670405, 0};
Point(p16 + 38) = {23.67196975262445, 1.908702826562764, 0};
Point(p16 + 39) = {23.71042313101957, 2.068872674751178, 0};
Spline(16) = {12, p16 + 1, p16 + 2, p16 + 3, p16 + 4, p16 + 5, p16 + 6, p16 + 7, p16 + 8, p16 + 9, p16 + 10, p16 + 11, p16 + 12, p16 + 13, p16 + 14, p16 + 15, p16 + 16, p16 + 17, p16 + 18, p16 + 19, p16 + 20, p16 + 21, p16 + 22, p16 + 23, p16 + 24, p16 + 25, p16 + 26, p16 + 27, p16 + 28, p16 + 29, p16 + 30, p16 + 31, p16 + 32, p16 + 33, p16 + 34, p16 + 35, p16 + 36, p16 + 37, p16 + 38, p16 + 39, 12};
Line(17) = {11, 8};
Line(18) = {12, 9};
Curve Loop(1) = {-1, 4, 3, -2};
Plane Surface(1) = {1};
Curve Loop(2) = {-5, 1, 7, -6};
Plane Surface(2) = {2};
Curve Loop(3) = {-2, 7, 9, -8, -10, -11};
Plane Surface(3) = {3};
Curve Loop(4) = {-12, 3, 8, -13};
Plane Surface(4) = {4};
Curve Loop(5) = {-4, 5, 14, -12, -15, -16};
Plane Surface(5) = {5};
Curve Loop(6) = {-6, 14, 13, -9};
Plane Surface(6) = {6};
Curve Loop(7) = {-10, -17, 15, 17};
Surface(7) = {7};
Curve Loop(8) = {-11, -18, 16, 18};
Surface(8) = {8};
Surface Loop(1) = {1, 2, 3, 4, 5, 6, 7, 8};
Volume(1) = {1};
Physical Surface("INFLOW") = {1};
Physical Surface("OUTFLOW") = {6};
Physical Surface("OBSTACLE") = {7, 8};
Physical Surface("WALL_Y") = {2, 4};
Physical Surface("WALL_Z") = {3, 5};
Physical Volume("FLUID") = {1};
