cl__1 = 4.980721;
cl__2 = 4.677847;
cl__3 = 0.28557;
cl__4 = 0.334222;
cl__5 = 0.065775;
cl__6 = 0.111168;
Point(1) = {0.67169, -4.389834, 1, cl__1};
Point(2) = {0.67169, -4.389834, 0, cl__1};
Point(3) = {0.67169, 4.989827000000001, 1, cl__2};
Point(4) = {0.67169, 4.989827000000001, 0, cl__2};
Point(5) = {33.161772, -4.389834, 0, cl__3};
Point(6) = {33.161772, -4.389834, 1, cl__3};
Point(7) = {33.161772, 4.989827000000001, 1, cl__4};
Point(8) = {29.815906, -1.223792, 1, cl__5};
Point(9) = {28.760138, 1.909136, 1, cl__6};
Point(10) = {33.161772, 4.989827000000001, 0, cl__4};
Point(11) = {29.815906, -1.223792, 0, cl__5};
Point(12) = {28.760138, 1.909136, 0, cl__6};
Line(1) = {2, 1};
Line(2) = {1, 3};
Line(3) = {4, 3};
Line(4) = {2, 4};
Line(5) = {2, 5};
Line(6) = {5, 6};
Line(7) = {1, 6};
Line(8) = {3, 7};
Line(9) = {6, 7};
p10 = newp;
Point(p10 + 1) = {29.80780804296143, -1.120897699923183, 1};
Point(p10 + 2) = {29.78371357042359, -1.020536999000861, 1};
Point(p10 + 3) = {29.74421586826533, -0.9251811107678123, 1};
Point(p10 + 4) = {29.69028750099914, -0.8371780136603827, 1};
Point(p10 + 5) = {29.62325636400511, -0.758694635994892, 1};
Point(p10 + 6) = {29.54477298633962, -0.6916634990008614, 1};
Point(p10 + 7) = {29.45676988923219, -0.6377351317346737, 1};
Point(p10 + 8) = {29.36141400099914, -0.5982374295764117, 1};
Point(p10 + 9) = {29.26105330007682, -0.57414295703857, 1};
Point(p10 + 10) = {29.158159, -0.566045, 1};
Point(p10 + 11) = {29.05526469992319, -0.57414295703857, 1};
Point(p10 + 12) = {28.95490399900086, -0.5982374295764116, 1};
Point(p10 + 13) = {28.85954811076781, -0.6377351317346736, 1};
Point(p10 + 14) = {28.77154501366038, -0.6916634990008614, 1};
Point(p10 + 15) = {28.69306163599489, -0.7586946359948918, 1};
Point(p10 + 16) = {28.62603049900086, -0.8371780136603826, 1};
Point(p10 + 17) = {28.57210213173467, -0.9251811107678123, 1};
Point(p10 + 18) = {28.53260442957641, -1.020536999000861, 1};
Point(p10 + 19) = {28.50850995703857, -1.120897699923183, 1};
Point(p10 + 20) = {28.500412, -1.223792, 1};
Point(p10 + 21) = {28.50850995703857, -1.326686300076817, 1};
Point(p10 + 22) = {28.53260442957641, -1.427047000999139, 1};
Point(p10 + 23) = {28.57210213173467, -1.522402889232187, 1};
Point(p10 + 24) = {28.62603049900086, -1.610405986339617, 1};
Point(p10 + 25) = {28.69306163599489, -1.688889364005108, 1};
Point(p10 + 26) = {28.77154501366038, -1.755920500999138, 1};
Point(p10 + 27) = {28.85954811076781, -1.809848868265326, 1};
Point(p10 + 28) = {28.95490399900086, -1.849346570423588, 1};
Point(p10 + 29) = {29.05526469992319, -1.87344104296143, 1};
Point(p10 + 30) = {29.158159, -1.881539, 1};
Point(p10 + 31) = {29.26105330007682, -1.87344104296143, 1};
Point(p10 + 32) = {29.36141400099914, -1.849346570423589, 1};
Point(p10 + 33) = {29.45676988923219, -1.809848868265326, 1};
Point(p10 + 34) = {29.54477298633962, -1.755920500999139, 1};
Point(p10 + 35) = {29.62325636400511, -1.688889364005108, 1};
Point(p10 + 36) = {29.69028750099914, -1.610405986339617, 1};
Point(p10 + 37) = {29.74421586826533, -1.522402889232188, 1};
Point(p10 + 38) = {29.78371357042359, -1.427047000999139, 1};
Point(p10 + 39) = {29.80780804296143, -1.326686300076817, 1};
Spline(10) = {8, p10 + 1, p10 + 2, p10 + 3, p10 + 4, p10 + 5, p10 + 6, p10 + 7, p10 + 8, p10 + 9, p10 + 10, p10 + 11, p10 + 12, p10 + 13, p10 + 14, p10 + 15, p10 + 16, p10 + 17, p10 + 18, p10 + 19, p10 + 20, p10 + 21, p10 + 22, p10 + 23, p10 + 24, p10 + 25, p10 + 26, p10 + 27, p10 + 28, p10 + 29, p10 + 30, p10 + 31, p10 + 32, p10 + 33, p10 + 34, p10 + 35, p10 + 36, p10 + 37, p10 + 38, p10 + 39, 8};
p11 = newp;
Point(p11 + 1) = {28.74645139909612, 2.083040753226994, 1};
Point(p11 + 2) = {28.70572860592196, 2.252663394272753, 1};
Point(p11 + 3) = {28.63897235079668, 2.41382725076946, 1};
Point(p11 + 4) = {28.54782639427275, 2.562563933697992, 1};
Point(p11 + 5) = {28.4345350522959, 2.695211052295899, 1};
Point(p11 + 6) = {28.30188793369799, 2.808502394272753, 1};
Point(p11 + 7) = {28.15315125076946, 2.899648350796676, 1};
Point(p11 + 8) = {27.99198739427275, 2.966404605921964, 1};
Point(p11 + 9) = {27.82236475322699, 3.007127399096121, 1};
Point(p11 + 10) = {27.64846, 3.020814, 1};
Point(p11 + 11) = {27.47455524677301, 3.007127399096121, 1};
Point(p11 + 12) = {27.30493260572725, 2.966404605921964, 1};
Point(p11 + 13) = {27.14376874923054, 2.899648350796676, 1};
Point(p11 + 14) = {26.99503206630201, 2.808502394272753, 1};
Point(p11 + 15) = {26.8623849477041, 2.695211052295899, 1};
Point(p11 + 16) = {26.74909360572725, 2.562563933697992, 1};
Point(p11 + 17) = {26.65794764920332, 2.41382725076946, 1};
Point(p11 + 18) = {26.59119139407804, 2.252663394272753, 1};
Point(p11 + 19) = {26.55046860090388, 2.083040753226994, 1};
Point(p11 + 20) = {26.536782, 1.909136, 1};
Point(p11 + 21) = {26.55046860090388, 1.735231246773006, 1};
Point(p11 + 22) = {26.59119139407804, 1.565608605727247, 1};
Point(p11 + 23) = {26.65794764920332, 1.404444749230541, 1};
Point(p11 + 24) = {26.74909360572725, 1.255708066302008, 1};
Point(p11 + 25) = {26.8623849477041, 1.123060947704101, 1};
Point(p11 + 26) = {26.99503206630201, 1.009769605727247, 1};
Point(p11 + 27) = {27.14376874923054, 0.9186236492033236, 1};
Point(p11 + 28) = {27.30493260572725, 0.8518673940780364, 1};
Point(p11 + 29) = {27.47455524677301, 0.8111446009038785, 1};
Point(p11 + 30) = {27.64846, 0.797458, 1};
Point(p11 + 31) = {27.82236475322699, 0.8111446009038785, 1};
Point(p11 + 32) = {27.99198739427275, 0.8518673940780361, 1};
Point(p11 + 33) = {28.15315125076946, 0.9186236492033235, 1};
Point(p11 + 34) = {28.30188793369799, 1.009769605727247, 1};
Point(p11 + 35) = {28.4345350522959, 1.123060947704101, 1};
Point(p11 + 36) = {28.54782639427275, 1.255708066302008, 1};
Point(p11 + 37) = {28.63897235079668, 1.40444474923054, 1};
Point(p11 + 38) = {28.70572860592196, 1.565608605727247, 1};
Point(p11 + 39) = {28.74645139909612, 1.735231246773006, 1};
Spline(11) = {9, p11 + 1, p11 + 2, p11 + 3, p11 + 4, p11 + 5, p11 + 6, p11 + 7, p11 + 8, p11 + 9, p11 + 10, p11 + 11, p11 + 12, p11 + 13, p11 + 14, p11 + 15, p11 + 16, p11 + 17, p11 + 18, p11 + 19, p11 + 20, p11 + 21, p11 + 22, p11 + 23, p11 + 24, p11 + 25, p11 + 26, p11 + 27, p11 + 28, p11 + 29, p11 + 30, p11 + 31, p11 + 32, p11 + 33, p11 + 34, p11 + 35, p11 + 36, p11 + 37, p11 + 38, p11 + 39, 9};
Line(12) = {4, 10};
Line(13) = {10, 7};
Line(14) = {5, 10};
p15 = newp;
Point(p15 + 1) = {29.80780804296143, -1.120897699923183, 0};
Point(p15 + 2) = {29.78371357042359, -1.020536999000861, 0};
Point(p15 + 3) = {29.74421586826533, -0.9251811107678123, 0};
Point(p15 + 4) = {29.69028750099914, -0.8371780136603827, 0};
Point(p15 + 5) = {29.62325636400511, -0.758694635994892, 0};
Point(p15 + 6) = {29.54477298633962, -0.6916634990008614, 0};
Point(p15 + 7) = {29.45676988923219, -0.6377351317346737, 0};
Point(p15 + 8) = {29.36141400099914, -0.5982374295764117, 0};
Point(p15 + 9) = {29.26105330007682, -0.57414295703857, 0};
Point(p15 + 10) = {29.158159, -0.566045, 0};
Point(p15 + 11) = {29.05526469992319, -0.57414295703857, 0};
Point(p15 + 12) = {28.95490399900086, -0.5982374295764116, 0};
Point(p15 + 13) = {28.85954811076781, -0.6377351317346736, 0};
Point(p15 + 14) = {28.77154501366038, -0.6916634990008614, 0};
Point(p15 + 15) = {28.69306163599489, -0.7586946359948918, 0};
Point(p15 + 16) = {28.62603049900086, -0.8371780136603826, 0};
Point(p15 + 17) = {28.57210213173467, -0.9251811107678123, 0};
Point(p15 + 18) = {28.53260442957641, -1.020536999000861, 0};
Point(p15 + 19) = {28.50850995703857, -1.120897699923183, 0};
Point(p15 + 20) = {28.500412, -1.223792, 0};
Point(p15 + 21) = {28.50850995703857, -1.326686300076817, 0};
Point(p15 + 22) = {28.53260442957641, -1.427047000999139, 0};
Point(p15 + 23) = {28.57210213173467, -1.522402889232187, 0};
Point(p15 + 24) = {28.62603049900086, -1.610405986339617, 0};
Point(p15 + 25) = {28.69306163599489, -1.688889364005108, 0};
Point(p15 + 26) = {28.77154501366038, -1.755920500999138, 0};
Point(p15 + 27) = {28.85954811076781, -1.809848868265326, 0};
Point(p15 + 28) = {28.95490399900086, -1.849346570423588, 0};
Point(p15 + 29) = {29.05526469992319, -1.87344104296143, 0};
Point(p15 + 30) = {29.158159, -1.881539, 0};
Point(p15 + 31) = {29.26105330007682, -1.87344104296143, 0};
Point(p15 + 32) = {29.36141400099914, -1.849346570423589, 0};
Point(p15 + 33) = {29.45676988923219, -1.809848868265326, 0};
Point(p15 + 34) = {29.54477298633962, -1.755920500999139, 0};
Point(p15 + 35) = {29.62325636400511, -1.688889364005108, 0};
Point(p15 + 36) = {29.69028750099914, -1.610405986339617, 0};
Point(p15 + 37) = {29.74421586826533, -1.522402889232188, 0};
Point(p15 + 38) = {29.78371357042359, -1.427047000999139, 0};
Point(p15 + 39) = {29.80780804296143, -1.326686300076817, 0};
Spline(15) = {11, p15 + 1, p15 + 2, p15 + 3, p15 + 4, p15 + 5, p15 + 6, p15 + 7, p15 + 8, p15 + 9, p15 + 10, p15 + 11, p15 + 12, p15 + 13, p15 + 14, p15 + 15, p15 + 16, p15 + 17, p15 + 18, p15 + 19, p15 + 20, p15 + 21, p15 + 22, p15 + 23, p15 + 24, p15 + 25, p15 + 26, p15 + 27, p15 + 28, p15 + 29, p15 + 30, p15 + 31, p15 + 32, p15 + 33, p15 + 34, p15 + 35, p15 + 36, p15 + 37, p15 + 38, p15 + 39, 11};
p16 = newp;
Point(p16 + 1) = {28.74645139909612, 2.083040753226994, 0};
Point(p16 + 2) = {28.70572860592196, 2.252663394272753, 0};
Point(p16 + 3) = {28.63897235079668, 2.41382725076946, 0};
Point(p16 + 4) = {28.54782639427275, 2.562563933697992, 0};
Point(p16 + 5) = {28.4345350522959, 2.695211052295899, 0};
Point(p16 + 6) = {28.30188793369799, 2.808502394272753, 0};
Point(p16 + 7) = {28.15315125076946, 2.899648350796676, 0};
Point(p16 + 8) = {27.99198739427275, 2.966404605921964, 0};
Point(p16 + 9) = {27.82236475322699, 3.007127399096121, 0};
Point(p16 + 10) = {27.64846, 3.020814, 0};
Point(p16 + 11) = {27.47455524677301, 3.007127399096121, 0};
Point(p16 + 12) = {27.30493260572725, 2.966404605921964, 0};
Point(p16 + 13) = {27.14376874923054, 2.899648350796676, 0};
Point(p16 + 14) = {26.99503206630201, 2.808502394272753, 0};
Point(p16 + 15) = {26.8623849477041, 2.695211052295899, 0};
Point(p16 + 16) = {26.74909360572725, 2.562563933697992, 0};
Point(p16 + 17) = {26.65794764920332, 2.41382725076946, 0};
Point(p16 + 18) = {26.59119139407804, 2.252663394272753, 0};
Point(p16 + 19) = {26.55046860090388, 2.083040753226994, 0};
Point(p16 + 20) = {26.536782, 1.909136, 0};
Point(p16 + 21) = {26.55046860090388, 1.735231246773006, 0};
Point(p16 + 22) = {26.59119139407804, 1.565608605727247, 0};
Point(p16 + 23) = {26.65794764920332, 1.404444749230541, 0};
Point(p16 + 24) = {26.74909360572725, 1.255708066302008, 0};
Point(p16 + 25) = {26.8623849477041, 1.123060947704101, 0};
Point(p16 + 26) = {26.99503206630201, 1.009769605727247, 0};
Point(p16 + 27) = {27.14376874923054, 0.9186236492033236, 0};
Point(p16 + 28) = {27.30493260572725, 0.8518673940780364, 0};
Point(p16 + 29) = {27.47455524677301, 0.8111446009038785, 0};
Point(p16 + 30) = {27.64846, 0.797458, 0};
Point(p16 + 31) = {27.82236475322699, 0.8111446009038785, 0};
Point(p16 + 32) = {27.99198739427275, 0.8518673940780361, 0};
Point(p16 + 33) = {28.15315125076946, 0.9186236492033235, 0};
Point(p16 + 34) = {28.30188793369799, 1.009769605727247, 0};
Point(p16 + 35) = {28.4345350522959, 1.123060947704101, 0};
Point(p16 + 36) = {28.54782639427275, 1.255708066302008, 0};
Point(p16 + 37) = {28.63897235079668, 1.40444474923054, 0};
Point(p16 + 38) = {28.70572860592196, 1.565608605727247, 0};
Point(p16 + 39) = {28.74645139909612, 1.735231246773006, 0};
Spline(16) = {12, p16 + 1, p16 + 2, p16 + 3, p16 + 4, p16 + 5, p16 + 6, p16 + 7, p16 + 8, p16 + 9, p16 + 10, p16 + 11, p16 + 12, p16 + 13, p16 + 14, p16 + 15, p16 + 16, p16 + 17, p16 + 18, p16 + 19, p16 + 20, p16 + 21, p16 + 22, p16 + 23, p16 + 24, p16 + 25, p16 + 26, p16 + 27, p16 + 28, p16 + 29, p16 + 30, p16 + 31, p16 + 32, p16 + 33, p16 + 34, p16 + 35, p16 + 36, p16 + 37, p16 + 38, p16 + 39, 12};
Line(17) = {11, 8};
Line(18) = {12, 9};
Curve Loop(1) = {-1, 4, 3, -2};
Plane Surface(1) = {1};
Curve Loop(2) = {-5, 1, 7, -6};
Plane Surface(2) = {2};
Curve Loop(3) = {-2, 7, 9, -8, -10, -11};
Plane Surface(3) = {3};
Curve Loop(4) = {-12, 3, 8, -13};
Plane Surface(4) = {4};
Curve Loop(5) = {-4, 5, 14, -12, -15, -16};
Plane Surface(5) = {5};
Curve Loop(6) = {-6, 14, 13, -9};
Plane Surface(6) = {6};
Curve Loop(7) = {-10, -17, 15, 17};
Surface(7) = {7};
Curve Loop(8) = {-11, -18, 16, 18};
Surface(8) = {8};
Surface Loop(1) = {1, 2, 3, 4, 5, 6, 7, 8};
Volume(1) = {1};
Physical Surface("INFLOW") = {1};
Physical Surface("OUTFLOW") = {6};
Physical Surface("OBSTACLE") = {7, 8};
Physical Surface("WALL_Y") = {2, 4};
Physical Surface("WALL_Z") = {3, 5};
Physical Volume("FLUID") = {1};
