cl__1 = 4.066062;
cl__2 = 2.869917;
cl__3 = 0.584582;
cl__4 = 0.39823;
cl__5 = 0.09705900000000001;
cl__6 = 0.093093;
Point(1) = {0.49876, -4.623001, 1, cl__1};
Point(2) = {0.49876, -4.623001, 0, cl__1};
Point(3) = {0.49876, 5.240081, 1, cl__2};
Point(4) = {0.49876, 5.240081, 0, cl__2};
Point(5) = {30.231763, -4.623001, 0, cl__3};
Point(6) = {30.231763, -4.623001, 1, cl__3};
Point(7) = {30.231763, 5.240081, 1, cl__4};
Point(8) = {27.645265, 1.521479, 1, cl__5};
Point(9) = {17.156036, 3.42419, 1, cl__6};
Point(10) = {30.231763, 5.240081, 0, cl__4};
Point(11) = {27.645265, 1.521479, 0, cl__5};
Point(12) = {17.156036, 3.42419, 0, cl__6};
Line(1) = {2, 1};
Line(2) = {1, 3};
Line(3) = {4, 3};
Line(4) = {2, 4};
Line(5) = {2, 5};
Line(6) = {5, 6};
Line(7) = {1, 6};
Line(8) = {3, 7};
Line(9) = {6, 7};
p10 = newp;
Point(p10 + 1) = {27.63331546343321, 1.673312258120003, 1};
Point(p10 + 2) = {27.59776109098136, 1.821406877519397, 1};
Point(p10 + 3) = {27.53947734929242, 1.962116277170707, 1};
Point(p10 + 4) = {27.4598993775194, 2.091975724666795, 1};
Point(p10 + 5) = {27.36098664943151, 2.207787649431507, 1};
Point(p10 + 6) = {27.2451747246668, 2.306700377519397, 1};
Point(p10 + 7) = {27.11531527717071, 2.386278349292415, 1};
Point(p10 + 8) = {26.9746058775194, 2.444562090981364, 1};
Point(p10 + 9) = {26.82651125812, 2.480116463433213, 1};
Point(p10 + 10) = {26.674678, 2.492066, 1};
Point(p10 + 11) = {26.52284474188, 2.480116463433213, 1};
Point(p10 + 12) = {26.3747501224806, 2.444562090981364, 1};
Point(p10 + 13) = {26.23404072282929, 2.386278349292415, 1};
Point(p10 + 14) = {26.1041812753332, 2.306700377519397, 1};
Point(p10 + 15) = {25.98836935056849, 2.207787649431507, 1};
Point(p10 + 16) = {25.8894566224806, 2.091975724666795, 1};
Point(p10 + 17) = {25.80987865070759, 1.962116277170708, 1};
Point(p10 + 18) = {25.75159490901864, 1.821406877519397, 1};
Point(p10 + 19) = {25.71604053656679, 1.673312258120003, 1};
Point(p10 + 20) = {25.704091, 1.521479, 1};
Point(p10 + 21) = {25.71604053656679, 1.369645741879998, 1};
Point(p10 + 22) = {25.75159490901864, 1.221551122480603, 1};
Point(p10 + 23) = {25.80987865070759, 1.080841722829293, 1};
Point(p10 + 24) = {25.8894566224806, 0.9509822753332056, 1};
Point(p10 + 25) = {25.98836935056849, 0.8351703505684925, 1};
Point(p10 + 26) = {26.1041812753332, 0.736257622480603, 1};
Point(p10 + 27) = {26.23404072282929, 0.6566796507075847, 1};
Point(p10 + 28) = {26.3747501224806, 0.5983959090186358, 1};
Point(p10 + 29) = {26.52284474188, 0.5628415365667871, 1};
Point(p10 + 30) = {26.674678, 0.550892, 1};
Point(p10 + 31) = {26.82651125812, 0.562841536566787, 1};
Point(p10 + 32) = {26.9746058775194, 0.5983959090186357, 1};
Point(p10 + 33) = {27.11531527717071, 0.6566796507075846, 1};
Point(p10 + 34) = {27.24517472466679, 0.7362576224806028, 1};
Point(p10 + 35) = {27.36098664943151, 0.8351703505684923, 1};
Point(p10 + 36) = {27.4598993775194, 0.9509822753332052, 1};
Point(p10 + 37) = {27.53947734929242, 1.080841722829292, 1};
Point(p10 + 38) = {27.59776109098136, 1.221551122480603, 1};
Point(p10 + 39) = {27.63331546343321, 1.369645741879997, 1};
Spline(10) = {8, p10 + 1, p10 + 2, p10 + 3, p10 + 4, p10 + 5, p10 + 6, p10 + 7, p10 + 8, p10 + 9, p10 + 10, p10 + 11, p10 + 12, p10 + 13, p10 + 14, p10 + 15, p10 + 16, p10 + 17, p10 + 18, p10 + 19, p10 + 20, p10 + 21, p10 + 22, p10 + 23, p10 + 24, p10 + 25, p10 + 26, p10 + 27, p10 + 28, p10 + 29, p10 + 30, p10 + 31, p10 + 32, p10 + 33, p10 + 34, p10 + 35, p10 + 36, p10 + 37, p10 + 38, p10 + 39, 8};
p11 = newp;
Point(p11 + 1) = {17.14457473153355, 3.569819223670972, 1};
Point(p11 + 2) = {17.11047314060161, 3.711862572539481, 1};
Point(p11 + 3) = {17.05457092154963, 3.846822467941537, 1};
Point(p11 + 4) = {16.97824457253948, 3.971375749346127, 1};
Point(p11 + 5) = {16.88337350159643, 4.08245550159643, 1};
Point(p11 + 6) = {16.77229374934613, 4.177326572539481, 1};
Point(p11 + 7) = {16.64774046794154, 4.253652921549628, 1};
Point(p11 + 8) = {16.51278057253948, 4.309555140601614, 1};
Point(p11 + 9) = {16.37073722367097, 4.34365673153355, 1};
Point(p11 + 10) = {16.225108, 4.355118, 1};
Point(p11 + 11) = {16.07947877632903, 4.34365673153355, 1};
Point(p11 + 12) = {15.93743542746052, 4.309555140601614, 1};
Point(p11 + 13) = {15.80247553205846, 4.253652921549628, 1};
Point(p11 + 14) = {15.67792225065387, 4.177326572539481, 1};
Point(p11 + 15) = {15.56684249840357, 4.082455501596431, 1};
Point(p11 + 16) = {15.47197142746052, 3.971375749346127, 1};
Point(p11 + 17) = {15.39564507845037, 3.846822467941537, 1};
Point(p11 + 18) = {15.33974285939838, 3.711862572539481, 1};
Point(p11 + 19) = {15.30564126846645, 3.569819223670972, 1};
Point(p11 + 20) = {15.29418, 3.42419, 1};
Point(p11 + 21) = {15.30564126846645, 3.278560776329028, 1};
Point(p11 + 22) = {15.33974285939838, 3.136517427460519, 1};
Point(p11 + 23) = {15.39564507845037, 3.001557532058464, 1};
Point(p11 + 24) = {15.47197142746052, 2.877004250653873, 1};
Point(p11 + 25) = {15.56684249840357, 2.76592449840357, 1};
Point(p11 + 26) = {15.67792225065387, 2.671053427460519, 1};
Point(p11 + 27) = {15.80247553205846, 2.594727078450371, 1};
Point(p11 + 28) = {15.93743542746052, 2.538824859398385, 1};
Point(p11 + 29) = {16.07947877632903, 2.504723268466449, 1};
Point(p11 + 30) = {16.225108, 2.493262, 1};
Point(p11 + 31) = {16.37073722367097, 2.504723268466449, 1};
Point(p11 + 32) = {16.51278057253948, 2.538824859398385, 1};
Point(p11 + 33) = {16.64774046794154, 2.594727078450371, 1};
Point(p11 + 34) = {16.77229374934613, 2.671053427460519, 1};
Point(p11 + 35) = {16.88337350159643, 2.765924498403569, 1};
Point(p11 + 36) = {16.97824457253948, 2.877004250653872, 1};
Point(p11 + 37) = {17.05457092154963, 3.001557532058463, 1};
Point(p11 + 38) = {17.11047314060161, 3.136517427460519, 1};
Point(p11 + 39) = {17.14457473153355, 3.278560776329027, 1};
Spline(11) = {9, p11 + 1, p11 + 2, p11 + 3, p11 + 4, p11 + 5, p11 + 6, p11 + 7, p11 + 8, p11 + 9, p11 + 10, p11 + 11, p11 + 12, p11 + 13, p11 + 14, p11 + 15, p11 + 16, p11 + 17, p11 + 18, p11 + 19, p11 + 20, p11 + 21, p11 + 22, p11 + 23, p11 + 24, p11 + 25, p11 + 26, p11 + 27, p11 + 28, p11 + 29, p11 + 30, p11 + 31, p11 + 32, p11 + 33, p11 + 34, p11 + 35, p11 + 36, p11 + 37, p11 + 38, p11 + 39, 9};
Line(12) = {4, 10};
Line(13) = {10, 7};
Line(14) = {5, 10};
p15 = newp;
Point(p15 + 1) = {27.63331546343321, 1.673312258120003, 0};
Point(p15 + 2) = {27.59776109098136, 1.821406877519397, 0};
Point(p15 + 3) = {27.53947734929242, 1.962116277170707, 0};
Point(p15 + 4) = {27.4598993775194, 2.091975724666795, 0};
Point(p15 + 5) = {27.36098664943151, 2.207787649431507, 0};
Point(p15 + 6) = {27.2451747246668, 2.306700377519397, 0};
Point(p15 + 7) = {27.11531527717071, 2.386278349292415, 0};
Point(p15 + 8) = {26.9746058775194, 2.444562090981364, 0};
Point(p15 + 9) = {26.82651125812, 2.480116463433213, 0};
Point(p15 + 10) = {26.674678, 2.492066, 0};
Point(p15 + 11) = {26.52284474188, 2.480116463433213, 0};
Point(p15 + 12) = {26.3747501224806, 2.444562090981364, 0};
Point(p15 + 13) = {26.23404072282929, 2.386278349292415, 0};
Point(p15 + 14) = {26.1041812753332, 2.306700377519397, 0};
Point(p15 + 15) = {25.98836935056849, 2.207787649431507, 0};
Point(p15 + 16) = {25.8894566224806, 2.091975724666795, 0};
Point(p15 + 17) = {25.80987865070759, 1.962116277170708, 0};
Point(p15 + 18) = {25.75159490901864, 1.821406877519397, 0};
Point(p15 + 19) = {25.71604053656679, 1.673312258120003, 0};
Point(p15 + 20) = {25.704091, 1.521479, 0};
Point(p15 + 21) = {25.71604053656679, 1.369645741879998, 0};
Point(p15 + 22) = {25.75159490901864, 1.221551122480603, 0};
Point(p15 + 23) = {25.80987865070759, 1.080841722829293, 0};
Point(p15 + 24) = {25.8894566224806, 0.9509822753332056, 0};
Point(p15 + 25) = {25.98836935056849, 0.8351703505684925, 0};
Point(p15 + 26) = {26.1041812753332, 0.736257622480603, 0};
Point(p15 + 27) = {26.23404072282929, 0.6566796507075847, 0};
Point(p15 + 28) = {26.3747501224806, 0.5983959090186358, 0};
Point(p15 + 29) = {26.52284474188, 0.5628415365667871, 0};
Point(p15 + 30) = {26.674678, 0.550892, 0};
Point(p15 + 31) = {26.82651125812, 0.562841536566787, 0};
Point(p15 + 32) = {26.9746058775194, 0.5983959090186357, 0};
Point(p15 + 33) = {27.11531527717071, 0.6566796507075846, 0};
Point(p15 + 34) = {27.24517472466679, 0.7362576224806028, 0};
Point(p15 + 35) = {27.36098664943151, 0.8351703505684923, 0};
Point(p15 + 36) = {27.4598993775194, 0.9509822753332052, 0};
Point(p15 + 37) = {27.53947734929242, 1.080841722829292, 0};
Point(p15 + 38) = {27.59776109098136, 1.221551122480603, 0};
Point(p15 + 39) = {27.63331546343321, 1.369645741879997, 0};
Spline(15) = {11, p15 + 1, p15 + 2, p15 + 3, p15 + 4, p15 + 5, p15 + 6, p15 + 7, p15 + 8, p15 + 9, p15 + 10, p15 + 11, p15 + 12, p15 + 13, p15 + 14, p15 + 15, p15 + 16, p15 + 17, p15 + 18, p15 + 19, p15 + 20, p15 + 21, p15 + 22, p15 + 23, p15 + 24, p15 + 25, p15 + 26, p15 + 27, p15 + 28, p15 + 29, p15 + 30, p15 + 31, p15 + 32, p15 + 33, p15 + 34, p15 + 35, p15 + 36, p15 + 37, p15 + 38, p15 + 39, 11};
p16 = newp;
Point(p16 + 1) = {17.14457473153355, 3.569819223670972, 0};
Point(p16 + 2) = {17.11047314060161, 3.711862572539481, 0};
Point(p16 + 3) = {17.05457092154963, 3.846822467941537, 0};
Point(p16 + 4) = {16.97824457253948, 3.971375749346127, 0};
Point(p16 + 5) = {16.88337350159643, 4.08245550159643, 0};
Point(p16 + 6) = {16.77229374934613, 4.177326572539481, 0};
Point(p16 + 7) = {16.64774046794154, 4.253652921549628, 0};
Point(p16 + 8) = {16.51278057253948, 4.309555140601614, 0};
Point(p16 + 9) = {16.37073722367097, 4.34365673153355, 0};
Point(p16 + 10) = {16.225108, 4.355118, 0};
Point(p16 + 11) = {16.07947877632903, 4.34365673153355, 0};
Point(p16 + 12) = {15.93743542746052, 4.309555140601614, 0};
Point(p16 + 13) = {15.80247553205846, 4.253652921549628, 0};
Point(p16 + 14) = {15.67792225065387, 4.177326572539481, 0};
Point(p16 + 15) = {15.56684249840357, 4.082455501596431, 0};
Point(p16 + 16) = {15.47197142746052, 3.971375749346127, 0};
Point(p16 + 17) = {15.39564507845037, 3.846822467941537, 0};
Point(p16 + 18) = {15.33974285939838, 3.711862572539481, 0};
Point(p16 + 19) = {15.30564126846645, 3.569819223670972, 0};
Point(p16 + 20) = {15.29418, 3.42419, 0};
Point(p16 + 21) = {15.30564126846645, 3.278560776329028, 0};
Point(p16 + 22) = {15.33974285939838, 3.136517427460519, 0};
Point(p16 + 23) = {15.39564507845037, 3.001557532058464, 0};
Point(p16 + 24) = {15.47197142746052, 2.877004250653873, 0};
Point(p16 + 25) = {15.56684249840357, 2.76592449840357, 0};
Point(p16 + 26) = {15.67792225065387, 2.671053427460519, 0};
Point(p16 + 27) = {15.80247553205846, 2.594727078450371, 0};
Point(p16 + 28) = {15.93743542746052, 2.538824859398385, 0};
Point(p16 + 29) = {16.07947877632903, 2.504723268466449, 0};
Point(p16 + 30) = {16.225108, 2.493262, 0};
Point(p16 + 31) = {16.37073722367097, 2.504723268466449, 0};
Point(p16 + 32) = {16.51278057253948, 2.538824859398385, 0};
Point(p16 + 33) = {16.64774046794154, 2.594727078450371, 0};
Point(p16 + 34) = {16.77229374934613, 2.671053427460519, 0};
Point(p16 + 35) = {16.88337350159643, 2.765924498403569, 0};
Point(p16 + 36) = {16.97824457253948, 2.877004250653872, 0};
Point(p16 + 37) = {17.05457092154963, 3.001557532058463, 0};
Point(p16 + 38) = {17.11047314060161, 3.136517427460519, 0};
Point(p16 + 39) = {17.14457473153355, 3.278560776329027, 0};
Spline(16) = {12, p16 + 1, p16 + 2, p16 + 3, p16 + 4, p16 + 5, p16 + 6, p16 + 7, p16 + 8, p16 + 9, p16 + 10, p16 + 11, p16 + 12, p16 + 13, p16 + 14, p16 + 15, p16 + 16, p16 + 17, p16 + 18, p16 + 19, p16 + 20, p16 + 21, p16 + 22, p16 + 23, p16 + 24, p16 + 25, p16 + 26, p16 + 27, p16 + 28, p16 + 29, p16 + 30, p16 + 31, p16 + 32, p16 + 33, p16 + 34, p16 + 35, p16 + 36, p16 + 37, p16 + 38, p16 + 39, 12};
Line(17) = {11, 8};
Line(18) = {12, 9};
Curve Loop(1) = {-1, 4, 3, -2};
Plane Surface(1) = {1};
Curve Loop(2) = {-5, 1, 7, -6};
Plane Surface(2) = {2};
Curve Loop(3) = {-2, 7, 9, -8, -10, -11};
Plane Surface(3) = {3};
Curve Loop(4) = {-12, 3, 8, -13};
Plane Surface(4) = {4};
Curve Loop(5) = {-4, 5, 14, -12, -15, -16};
Plane Surface(5) = {5};
Curve Loop(6) = {-6, 14, 13, -9};
Plane Surface(6) = {6};
Curve Loop(7) = {-10, -17, 15, 17};
Surface(7) = {7};
Curve Loop(8) = {-11, -18, 16, 18};
Surface(8) = {8};
Surface Loop(1) = {1, 2, 3, 4, 5, 6, 7, 8};
Volume(1) = {1};
Physical Surface("INFLOW") = {1};
Physical Surface("OUTFLOW") = {6};
Physical Surface("OBSTACLE") = {7, 8};
Physical Surface("WALL_Y") = {2, 4};
Physical Surface("WALL_Z") = {3, 5};
Physical Volume("FLUID") = {1};
