cl__1 = 0.468066;
cl__2 = 0.215846;
cl__3 = 3.064779;
cl__4 = 0.074876;
cl__5 = 0.103166;
Point(1) = {0.823643, -3.57217, 1, cl__1};
Point(2) = {0.823643, -3.57217, 0, cl__1};
Point(3) = {0.823643, 4.103800000000001, 1, cl__2};
Point(4) = {0.823643, 4.103800000000001, 0, cl__2};
Point(5) = {30.406532, -3.57217, 0, cl__3};
Point(6) = {30.406532, -3.57217, 1, cl__3};
Point(7) = {30.406532, 4.103800000000001, 1, cl__3};
Point(8) = {6.509597, 0.2010489999999998, 1, cl__4};
Point(9) = {3.984721, 1.728413, 1, cl__5};
Point(10) = {30.406532, 4.103800000000001, 0, cl__3};
Point(11) = {6.509597, 0.2010489999999998, 0, cl__4};
Point(12) = {3.984721, 1.728413, 0, cl__5};
Line(1) = {2, 1};
Line(2) = {1, 3};
Line(3) = {4, 3};
Line(4) = {2, 4};
Line(5) = {2, 5};
Line(6) = {5, 6};
Line(7) = {1, 6};
Line(8) = {3, 7};
Line(9) = {6, 7};
p10 = newp;
Point(p10 + 1) = {6.500378484969037, 0.3181813393469184, 1};
Point(p10 + 2) = {6.472949930310708, 0.4324294917591687, 1};
Point(p10 + 3) = {6.427986718070855, 0.5409802885564823, 1};
Point(p10 + 4) = {6.366595991759169, 0.6411608488622691, 1};
Point(p10 + 5) = {6.290289394801583, 0.7305043948015828, 1};
Point(p10 + 6) = {6.200945848862269, 0.8068109917591688, 1};
Point(p10 + 7) = {6.100765288556483, 0.8682017180708548, 1};
Point(p10 + 8) = {5.992214491759169, 0.913164930310708, 1};
Point(p10 + 9) = {5.877966339346918, 0.9405934849690372, 1};
Point(p10 + 10) = {5.760834, 0.949812, 1};
Point(p10 + 11) = {5.643701660653082, 0.9405934849690371, 1};
Point(p10 + 12) = {5.529453508240831, 0.9131649303107081, 1};
Point(p10 + 13) = {5.420902711443518, 0.8682017180708549, 1};
Point(p10 + 14) = {5.320722151137731, 0.8068109917591688, 1};
Point(p10 + 15) = {5.231378605198417, 0.7305043948015829, 1};
Point(p10 + 16) = {5.155072008240832, 0.6411608488622691, 1};
Point(p10 + 17) = {5.093681281929145, 0.5409802885564823, 1};
Point(p10 + 18) = {5.048718069689292, 0.4324294917591688, 1};
Point(p10 + 19) = {5.021289515030963, 0.3181813393469185, 1};
Point(p10 + 20) = {5.012071, 0.2010490000000001, 1};
Point(p10 + 21) = {5.021289515030963, 0.08391666065308173, 1};
Point(p10 + 22) = {5.048718069689292, -0.03033149175916897, 1};
Point(p10 + 23) = {5.093681281929145, -0.1388822885564819, 1};
Point(p10 + 24) = {5.155072008240831, -0.2390628488622689, 1};
Point(p10 + 25) = {5.231378605198417, -0.3284063948015827, 1};
Point(p10 + 26) = {5.320722151137731, -0.4047129917591686, 1};
Point(p10 + 27) = {5.420902711443517, -0.4661037180708547, 1};
Point(p10 + 28) = {5.529453508240831, -0.5110669303107079, 1};
Point(p10 + 29) = {5.643701660653082, -0.538495484969037, 1};
Point(p10 + 30) = {5.760834, -0.5477139999999999, 1};
Point(p10 + 31) = {5.877966339346918, -0.5384954849690371, 1};
Point(p10 + 32) = {5.992214491759168, -0.511066930310708, 1};
Point(p10 + 33) = {6.100765288556482, -0.4661037180708548, 1};
Point(p10 + 34) = {6.200945848862269, -0.4047129917591687, 1};
Point(p10 + 35) = {6.290289394801583, -0.328406394801583, 1};
Point(p10 + 36) = {6.366595991759168, -0.2390628488622692, 1};
Point(p10 + 37) = {6.427986718070855, -0.1388822885564824, 1};
Point(p10 + 38) = {6.472949930310708, -0.03033149175916888, 1};
Point(p10 + 39) = {6.500378484969037, 0.08391666065308145, 1};
Spline(10) = {8, p10 + 1, p10 + 2, p10 + 3, p10 + 4, p10 + 5, p10 + 6, p10 + 7, p10 + 8, p10 + 9, p10 + 10, p10 + 11, p10 + 12, p10 + 13, p10 + 14, p10 + 15, p10 + 16, p10 + 17, p10 + 18, p10 + 19, p10 + 20, p10 + 21, p10 + 22, p10 + 23, p10 + 24, p10 + 25, p10 + 26, p10 + 27, p10 + 28, p10 + 29, p10 + 30, p10 + 31, p10 + 32, p10 + 33, p10 + 34, p10 + 35, p10 + 36, p10 + 37, p10 + 38, p10 + 39, 8};
p11 = newp;
Point(p11 + 1) = {3.97201954114672, 1.88980033663787, 1};
Point(p11 + 2) = {3.934227916657574, 2.047213781433852, 1};
Point(p11 + 3) = {3.872276681750695, 2.196777292951801, 1};
Point(p11 + 4) = {3.787691281433852, 2.334808121165305, 1};
Point(p11 + 5) = {3.682554488985695, 2.457907488985695, 1};
Point(p11 + 6) = {3.559455121165305, 2.563044281433853, 1};
Point(p11 + 7) = {3.4214242929518, 2.647629681750696, 1};
Point(p11 + 8) = {3.271860781433853, 2.709580916657574, 1};
Point(p11 + 9) = {3.114447336637869, 2.74737254114672, 1};
Point(p11 + 10) = {2.95306, 2.760074, 1};
Point(p11 + 11) = {2.79167266336213, 2.74737254114672, 1};
Point(p11 + 12) = {2.634259218566147, 2.709580916657575, 1};
Point(p11 + 13) = {2.484695707048199, 2.647629681750696, 1};
Point(p11 + 14) = {2.346664878834695, 2.563044281433853, 1};
Point(p11 + 15) = {2.223565511014305, 2.457907488985695, 1};
Point(p11 + 16) = {2.118428718566147, 2.334808121165305, 1};
Point(p11 + 17) = {2.033843318249304, 2.196777292951801, 1};
Point(p11 + 18) = {1.971892083342425, 2.047213781433853, 1};
Point(p11 + 19) = {1.93410045885328, 1.88980033663787, 1};
Point(p11 + 20) = {1.921399, 1.728413, 1};
Point(p11 + 21) = {1.93410045885328, 1.56702566336213, 1};
Point(p11 + 22) = {1.971892083342425, 1.409612218566147, 1};
Point(p11 + 23) = {2.033843318249304, 1.2600487070482, 1};
Point(p11 + 24) = {2.118428718566147, 1.122017878834695, 1};
Point(p11 + 25) = {2.223565511014305, 0.9989185110143053, 1};
Point(p11 + 26) = {2.346664878834694, 0.8937817185661475, 1};
Point(p11 + 27) = {2.484695707048199, 0.8091963182493044, 1};
Point(p11 + 28) = {2.634259218566147, 0.7472450833424257, 1};
Point(p11 + 29) = {2.79167266336213, 0.7094534588532797, 1};
Point(p11 + 30) = {2.95306, 0.696752, 1};
Point(p11 + 31) = {3.114447336637869, 0.7094534588532797, 1};
Point(p11 + 32) = {3.271860781433852, 0.7472450833424256, 1};
Point(p11 + 33) = {3.4214242929518, 0.8091963182493043, 1};
Point(p11 + 34) = {3.559455121165305, 0.8937817185661473, 1};
Point(p11 + 35) = {3.682554488985694, 0.9989185110143051, 1};
Point(p11 + 36) = {3.787691281433852, 1.122017878834695, 1};
Point(p11 + 37) = {3.872276681750695, 1.260048707048199, 1};
Point(p11 + 38) = {3.934227916657574, 1.409612218566147, 1};
Point(p11 + 39) = {3.97201954114672, 1.56702566336213, 1};
Spline(11) = {9, p11 + 1, p11 + 2, p11 + 3, p11 + 4, p11 + 5, p11 + 6, p11 + 7, p11 + 8, p11 + 9, p11 + 10, p11 + 11, p11 + 12, p11 + 13, p11 + 14, p11 + 15, p11 + 16, p11 + 17, p11 + 18, p11 + 19, p11 + 20, p11 + 21, p11 + 22, p11 + 23, p11 + 24, p11 + 25, p11 + 26, p11 + 27, p11 + 28, p11 + 29, p11 + 30, p11 + 31, p11 + 32, p11 + 33, p11 + 34, p11 + 35, p11 + 36, p11 + 37, p11 + 38, p11 + 39, 9};
Line(12) = {4, 10};
Line(13) = {10, 7};
Line(14) = {5, 10};
p15 = newp;
Point(p15 + 1) = {6.500378484969037, 0.3181813393469184, 0};
Point(p15 + 2) = {6.472949930310708, 0.4324294917591687, 0};
Point(p15 + 3) = {6.427986718070855, 0.5409802885564823, 0};
Point(p15 + 4) = {6.366595991759169, 0.6411608488622691, 0};
Point(p15 + 5) = {6.290289394801583, 0.7305043948015828, 0};
Point(p15 + 6) = {6.200945848862269, 0.8068109917591688, 0};
Point(p15 + 7) = {6.100765288556483, 0.8682017180708548, 0};
Point(p15 + 8) = {5.992214491759169, 0.913164930310708, 0};
Point(p15 + 9) = {5.877966339346918, 0.9405934849690372, 0};
Point(p15 + 10) = {5.760834, 0.949812, 0};
Point(p15 + 11) = {5.643701660653082, 0.9405934849690371, 0};
Point(p15 + 12) = {5.529453508240831, 0.9131649303107081, 0};
Point(p15 + 13) = {5.420902711443518, 0.8682017180708549, 0};
Point(p15 + 14) = {5.320722151137731, 0.8068109917591688, 0};
Point(p15 + 15) = {5.231378605198417, 0.7305043948015829, 0};
Point(p15 + 16) = {5.155072008240832, 0.6411608488622691, 0};
Point(p15 + 17) = {5.093681281929145, 0.5409802885564823, 0};
Point(p15 + 18) = {5.048718069689292, 0.4324294917591688, 0};
Point(p15 + 19) = {5.021289515030963, 0.3181813393469185, 0};
Point(p15 + 20) = {5.012071, 0.2010490000000001, 0};
Point(p15 + 21) = {5.021289515030963, 0.08391666065308173, 0};
Point(p15 + 22) = {5.048718069689292, -0.03033149175916897, 0};
Point(p15 + 23) = {5.093681281929145, -0.1388822885564819, 0};
Point(p15 + 24) = {5.155072008240831, -0.2390628488622689, 0};
Point(p15 + 25) = {5.231378605198417, -0.3284063948015827, 0};
Point(p15 + 26) = {5.320722151137731, -0.4047129917591686, 0};
Point(p15 + 27) = {5.420902711443517, -0.4661037180708547, 0};
Point(p15 + 28) = {5.529453508240831, -0.5110669303107079, 0};
Point(p15 + 29) = {5.643701660653082, -0.538495484969037, 0};
Point(p15 + 30) = {5.760834, -0.5477139999999999, 0};
Point(p15 + 31) = {5.877966339346918, -0.5384954849690371, 0};
Point(p15 + 32) = {5.992214491759168, -0.511066930310708, 0};
Point(p15 + 33) = {6.100765288556482, -0.4661037180708548, 0};
Point(p15 + 34) = {6.200945848862269, -0.4047129917591687, 0};
Point(p15 + 35) = {6.290289394801583, -0.328406394801583, 0};
Point(p15 + 36) = {6.366595991759168, -0.2390628488622692, 0};
Point(p15 + 37) = {6.427986718070855, -0.1388822885564824, 0};
Point(p15 + 38) = {6.472949930310708, -0.03033149175916888, 0};
Point(p15 + 39) = {6.500378484969037, 0.08391666065308145, 0};
Spline(15) = {11, p15 + 1, p15 + 2, p15 + 3, p15 + 4, p15 + 5, p15 + 6, p15 + 7, p15 + 8, p15 + 9, p15 + 10, p15 + 11, p15 + 12, p15 + 13, p15 + 14, p15 + 15, p15 + 16, p15 + 17, p15 + 18, p15 + 19, p15 + 20, p15 + 21, p15 + 22, p15 + 23, p15 + 24, p15 + 25, p15 + 26, p15 + 27, p15 + 28, p15 + 29, p15 + 30, p15 + 31, p15 + 32, p15 + 33, p15 + 34, p15 + 35, p15 + 36, p15 + 37, p15 + 38, p15 + 39, 11};
p16 = newp;
Point(p16 + 1) = {3.97201954114672, 1.88980033663787, 0};
Point(p16 + 2) = {3.934227916657574, 2.047213781433852, 0};
Point(p16 + 3) = {3.872276681750695, 2.196777292951801, 0};
Point(p16 + 4) = {3.787691281433852, 2.334808121165305, 0};
Point(p16 + 5) = {3.682554488985695, 2.457907488985695, 0};
Point(p16 + 6) = {3.559455121165305, 2.563044281433853, 0};
Point(p16 + 7) = {3.4214242929518, 2.647629681750696, 0};
Point(p16 + 8) = {3.271860781433853, 2.709580916657574, 0};
Point(p16 + 9) = {3.114447336637869, 2.74737254114672, 0};
Point(p16 + 10) = {2.95306, 2.760074, 0};
Point(p16 + 11) = {2.79167266336213, 2.74737254114672, 0};
Point(p16 + 12) = {2.634259218566147, 2.709580916657575, 0};
Point(p16 + 13) = {2.484695707048199, 2.647629681750696, 0};
Point(p16 + 14) = {2.346664878834695, 2.563044281433853, 0};
Point(p16 + 15) = {2.223565511014305, 2.457907488985695, 0};
Point(p16 + 16) = {2.118428718566147, 2.334808121165305, 0};
Point(p16 + 17) = {2.033843318249304, 2.196777292951801, 0};
Point(p16 + 18) = {1.971892083342425, 2.047213781433853, 0};
Point(p16 + 19) = {1.93410045885328, 1.88980033663787, 0};
Point(p16 + 20) = {1.921399, 1.728413, 0};
Point(p16 + 21) = {1.93410045885328, 1.56702566336213, 0};
Point(p16 + 22) = {1.971892083342425, 1.409612218566147, 0};
Point(p16 + 23) = {2.033843318249304, 1.2600487070482, 0};
Point(p16 + 24) = {2.118428718566147, 1.122017878834695, 0};
Point(p16 + 25) = {2.223565511014305, 0.9989185110143053, 0};
Point(p16 + 26) = {2.346664878834694, 0.8937817185661475, 0};
Point(p16 + 27) = {2.484695707048199, 0.8091963182493044, 0};
Point(p16 + 28) = {2.634259218566147, 0.7472450833424257, 0};
Point(p16 + 29) = {2.79167266336213, 0.7094534588532797, 0};
Point(p16 + 30) = {2.95306, 0.696752, 0};
Point(p16 + 31) = {3.114447336637869, 0.7094534588532797, 0};
Point(p16 + 32) = {3.271860781433852, 0.7472450833424256, 0};
Point(p16 + 33) = {3.4214242929518, 0.8091963182493043, 0};
Point(p16 + 34) = {3.559455121165305, 0.8937817185661473, 0};
Point(p16 + 35) = {3.682554488985694, 0.9989185110143051, 0};
Point(p16 + 36) = {3.787691281433852, 1.122017878834695, 0};
Point(p16 + 37) = {3.872276681750695, 1.260048707048199, 0};
Point(p16 + 38) = {3.934227916657574, 1.409612218566147, 0};
Point(p16 + 39) = {3.97201954114672, 1.56702566336213, 0};
Spline(16) = {12, p16 + 1, p16 + 2, p16 + 3, p16 + 4, p16 + 5, p16 + 6, p16 + 7, p16 + 8, p16 + 9, p16 + 10, p16 + 11, p16 + 12, p16 + 13, p16 + 14, p16 + 15, p16 + 16, p16 + 17, p16 + 18, p16 + 19, p16 + 20, p16 + 21, p16 + 22, p16 + 23, p16 + 24, p16 + 25, p16 + 26, p16 + 27, p16 + 28, p16 + 29, p16 + 30, p16 + 31, p16 + 32, p16 + 33, p16 + 34, p16 + 35, p16 + 36, p16 + 37, p16 + 38, p16 + 39, 12};
Line(17) = {11, 8};
Line(18) = {12, 9};
Curve Loop(1) = {-1, 4, 3, -2};
Plane Surface(1) = {1};
Curve Loop(2) = {-5, 1, 7, -6};
Plane Surface(2) = {2};
Curve Loop(3) = {-2, 7, 9, -8, -10, -11};
Plane Surface(3) = {3};
Curve Loop(4) = {-12, 3, 8, -13};
Plane Surface(4) = {4};
Curve Loop(5) = {-4, 5, 14, -12, -15, -16};
Plane Surface(5) = {5};
Curve Loop(6) = {-6, 14, 13, -9};
Plane Surface(6) = {6};
Curve Loop(7) = {-10, -17, 15, 17};
Surface(7) = {7};
Curve Loop(8) = {-11, -18, 16, 18};
Surface(8) = {8};
Surface Loop(1) = {1, 2, 3, 4, 5, 6, 7, 8};
Volume(1) = {1};
Physical Surface("INFLOW") = {1};
Physical Surface("OUTFLOW") = {6};
Physical Surface("OBSTACLE") = {7, 8};
Physical Surface("WALL_Y") = {2, 4};
Physical Surface("WALL_Z") = {3, 5};
Physical Volume("FLUID") = {1};
