cl__1 = 0.317991;
cl__2 = 0.761309;
cl__3 = 0.608008;
cl__4 = 0.936986;
cl__5 = 0.06745;
cl__6 = 0.08237700000000001;
Point(1) = {0.869695, -4.547104, 1, cl__1};
Point(2) = {0.869695, -4.547104, 0, cl__1};
Point(3) = {0.869695, 5.204224000000001, 1, cl__2};
Point(4) = {0.869695, 5.204224000000001, 0, cl__2};
Point(5) = {31.475541, -4.547104, 0, cl__3};
Point(6) = {31.475541, -4.547104, 1, cl__3};
Point(7) = {31.475541, 5.204224000000001, 1, cl__4};
Point(8) = {4.76607, -2.431453, 1, cl__5};
Point(9) = {25.688966, -2.555515, 1, cl__6};
Point(10) = {31.475541, 5.204224000000001, 0, cl__4};
Point(11) = {4.76607, -2.431453, 0, cl__5};
Point(12) = {25.688966, -2.555515, 0, cl__6};
Line(1) = {2, 1};
Line(2) = {1, 3};
Line(3) = {4, 3};
Line(4) = {2, 4};
Line(5) = {2, 5};
Line(6) = {5, 6};
Line(7) = {1, 6};
Line(8) = {3, 7};
Line(9) = {6, 7};
p10 = newp;
Point(p10 + 1) = {4.757765822666399, -2.325938422633759, 1};
Point(p10 + 2) = {4.733057767071532, -2.223021964345081, 1};
Point(p10 + 3) = {4.692554227545482, -2.125237769897175, 1};
Point(p10 + 4) = {4.63725253565492, -2.034993610684483, 1};
Point(p10 + 5) = {4.568514402589983, -1.954511597410017, 1};
Point(p10 + 6) = {4.488032389315516, -1.885773464345081, 1};
Point(p10 + 7) = {4.397788230102825, -1.830471772454518, 1};
Point(p10 + 8) = {4.300004035654919, -1.789968232928468, 1};
Point(p10 + 9) = {4.197087577366241, -1.765260177333601, 1};
Point(p10 + 10) = {4.091573, -1.756956, 1};
Point(p10 + 11) = {3.986058422633759, -1.765260177333601, 1};
Point(p10 + 12) = {3.883141964345081, -1.789968232928468, 1};
Point(p10 + 13) = {3.785357769897175, -1.830471772454518, 1};
Point(p10 + 14) = {3.695113610684484, -1.885773464345081, 1};
Point(p10 + 15) = {3.614631597410018, -1.954511597410017, 1};
Point(p10 + 16) = {3.545893464345081, -2.034993610684483, 1};
Point(p10 + 17) = {3.490591772454519, -2.125237769897175, 1};
Point(p10 + 18) = {3.450088232928468, -2.223021964345081, 1};
Point(p10 + 19) = {3.425380177333602, -2.325938422633759, 1};
Point(p10 + 20) = {3.417076, -2.431453, 1};
Point(p10 + 21) = {3.425380177333602, -2.53696757736624, 1};
Point(p10 + 22) = {3.450088232928468, -2.639884035654919, 1};
Point(p10 + 23) = {3.490591772454518, -2.737668230102825, 1};
Point(p10 + 24) = {3.545893464345081, -2.827912389315516, 1};
Point(p10 + 25) = {3.614631597410018, -2.908394402589983, 1};
Point(p10 + 26) = {3.695113610684484, -2.977132535654919, 1};
Point(p10 + 27) = {3.785357769897175, -3.032434227545481, 1};
Point(p10 + 28) = {3.883141964345081, -3.072937767071532, 1};
Point(p10 + 29) = {3.986058422633759, -3.097645822666399, 1};
Point(p10 + 30) = {4.091573, -3.10595, 1};
Point(p10 + 31) = {4.197087577366241, -3.097645822666399, 1};
Point(p10 + 32) = {4.300004035654919, -3.072937767071532, 1};
Point(p10 + 33) = {4.397788230102825, -3.032434227545481, 1};
Point(p10 + 34) = {4.488032389315516, -2.977132535654919, 1};
Point(p10 + 35) = {4.568514402589983, -2.908394402589983, 1};
Point(p10 + 36) = {4.63725253565492, -2.827912389315516, 1};
Point(p10 + 37) = {4.692554227545482, -2.737668230102825, 1};
Point(p10 + 38) = {4.733057767071532, -2.639884035654919, 1};
Point(p10 + 39) = {4.757765822666399, -2.536967577366241, 1};
Spline(10) = {8, p10 + 1, p10 + 2, p10 + 3, p10 + 4, p10 + 5, p10 + 6, p10 + 7, p10 + 8, p10 + 9, p10 + 10, p10 + 11, p10 + 12, p10 + 13, p10 + 14, p10 + 15, p10 + 16, p10 + 17, p10 + 18, p10 + 19, p10 + 20, p10 + 21, p10 + 22, p10 + 23, p10 + 24, p10 + 25, p10 + 26, p10 + 27, p10 + 28, p10 + 29, p10 + 30, p10 + 31, p10 + 32, p10 + 33, p10 + 34, p10 + 35, p10 + 36, p10 + 37, p10 + 38, p10 + 39, 8};
p11 = newp;
Point(p11 + 1) = {25.6788240120204, -2.426648824299344, 1};
Point(p11 + 2) = {25.64864777748497, -2.300955761526756, 1};
Point(p11 + 3) = {25.59918033543718, -2.181530792039054, 1};
Point(p11 + 4) = {25.53163973847325, -2.071314554933777, 1};
Point(p11 + 5) = {25.44768906024482, -1.973020939755177, 1};
Point(p11 + 6) = {25.34939544506622, -1.889070261526755, 1};
Point(p11 + 7) = {25.23917920796094, -1.821529664562824, 1};
Point(p11 + 8) = {25.11975423847325, -1.772062222515025, 1};
Point(p11 + 9) = {24.99406117570065, -1.741885987979603, 1};
Point(p11 + 10) = {24.865195, -1.731744, 1};
Point(p11 + 11) = {24.73632882429934, -1.741885987979603, 1};
Point(p11 + 12) = {24.61063576152675, -1.772062222515025, 1};
Point(p11 + 13) = {24.49121079203906, -1.821529664562824, 1};
Point(p11 + 14) = {24.38099455493378, -1.889070261526755, 1};
Point(p11 + 15) = {24.28270093975518, -1.973020939755177, 1};
Point(p11 + 16) = {24.19875026152675, -2.071314554933777, 1};
Point(p11 + 17) = {24.13120966456282, -2.181530792039054, 1};
Point(p11 + 18) = {24.08174222251503, -2.300955761526756, 1};
Point(p11 + 19) = {24.0515659879796, -2.426648824299344, 1};
Point(p11 + 20) = {24.041424, -2.555515, 1};
Point(p11 + 21) = {24.0515659879796, -2.684381175700656, 1};
Point(p11 + 22) = {24.08174222251503, -2.810074238473245, 1};
Point(p11 + 23) = {24.13120966456282, -2.929499207960946, 1};
Point(p11 + 24) = {24.19875026152675, -3.039715445066223, 1};
Point(p11 + 25) = {24.28270093975518, -3.138009060244824, 1};
Point(p11 + 26) = {24.38099455493378, -3.221959738473245, 1};
Point(p11 + 27) = {24.49121079203906, -3.289500335437176, 1};
Point(p11 + 28) = {24.61063576152675, -3.338967777484975, 1};
Point(p11 + 29) = {24.73632882429934, -3.369144012020397, 1};
Point(p11 + 30) = {24.865195, -3.379286, 1};
Point(p11 + 31) = {24.99406117570065, -3.369144012020397, 1};
Point(p11 + 32) = {25.11975423847325, -3.338967777484975, 1};
Point(p11 + 33) = {25.23917920796094, -3.289500335437176, 1};
Point(p11 + 34) = {25.34939544506622, -3.221959738473245, 1};
Point(p11 + 35) = {25.44768906024482, -3.138009060244824, 1};
Point(p11 + 36) = {25.53163973847325, -3.039715445066223, 1};
Point(p11 + 37) = {25.59918033543718, -2.929499207960947, 1};
Point(p11 + 38) = {25.64864777748497, -2.810074238473245, 1};
Point(p11 + 39) = {25.6788240120204, -2.684381175700656, 1};
Spline(11) = {9, p11 + 1, p11 + 2, p11 + 3, p11 + 4, p11 + 5, p11 + 6, p11 + 7, p11 + 8, p11 + 9, p11 + 10, p11 + 11, p11 + 12, p11 + 13, p11 + 14, p11 + 15, p11 + 16, p11 + 17, p11 + 18, p11 + 19, p11 + 20, p11 + 21, p11 + 22, p11 + 23, p11 + 24, p11 + 25, p11 + 26, p11 + 27, p11 + 28, p11 + 29, p11 + 30, p11 + 31, p11 + 32, p11 + 33, p11 + 34, p11 + 35, p11 + 36, p11 + 37, p11 + 38, p11 + 39, 9};
Line(12) = {4, 10};
Line(13) = {10, 7};
Line(14) = {5, 10};
p15 = newp;
Point(p15 + 1) = {4.757765822666399, -2.325938422633759, 0};
Point(p15 + 2) = {4.733057767071532, -2.223021964345081, 0};
Point(p15 + 3) = {4.692554227545482, -2.125237769897175, 0};
Point(p15 + 4) = {4.63725253565492, -2.034993610684483, 0};
Point(p15 + 5) = {4.568514402589983, -1.954511597410017, 0};
Point(p15 + 6) = {4.488032389315516, -1.885773464345081, 0};
Point(p15 + 7) = {4.397788230102825, -1.830471772454518, 0};
Point(p15 + 8) = {4.300004035654919, -1.789968232928468, 0};
Point(p15 + 9) = {4.197087577366241, -1.765260177333601, 0};
Point(p15 + 10) = {4.091573, -1.756956, 0};
Point(p15 + 11) = {3.986058422633759, -1.765260177333601, 0};
Point(p15 + 12) = {3.883141964345081, -1.789968232928468, 0};
Point(p15 + 13) = {3.785357769897175, -1.830471772454518, 0};
Point(p15 + 14) = {3.695113610684484, -1.885773464345081, 0};
Point(p15 + 15) = {3.614631597410018, -1.954511597410017, 0};
Point(p15 + 16) = {3.545893464345081, -2.034993610684483, 0};
Point(p15 + 17) = {3.490591772454519, -2.125237769897175, 0};
Point(p15 + 18) = {3.450088232928468, -2.223021964345081, 0};
Point(p15 + 19) = {3.425380177333602, -2.325938422633759, 0};
Point(p15 + 20) = {3.417076, -2.431453, 0};
Point(p15 + 21) = {3.425380177333602, -2.53696757736624, 0};
Point(p15 + 22) = {3.450088232928468, -2.639884035654919, 0};
Point(p15 + 23) = {3.490591772454518, -2.737668230102825, 0};
Point(p15 + 24) = {3.545893464345081, -2.827912389315516, 0};
Point(p15 + 25) = {3.614631597410018, -2.908394402589983, 0};
Point(p15 + 26) = {3.695113610684484, -2.977132535654919, 0};
Point(p15 + 27) = {3.785357769897175, -3.032434227545481, 0};
Point(p15 + 28) = {3.883141964345081, -3.072937767071532, 0};
Point(p15 + 29) = {3.986058422633759, -3.097645822666399, 0};
Point(p15 + 30) = {4.091573, -3.10595, 0};
Point(p15 + 31) = {4.197087577366241, -3.097645822666399, 0};
Point(p15 + 32) = {4.300004035654919, -3.072937767071532, 0};
Point(p15 + 33) = {4.397788230102825, -3.032434227545481, 0};
Point(p15 + 34) = {4.488032389315516, -2.977132535654919, 0};
Point(p15 + 35) = {4.568514402589983, -2.908394402589983, 0};
Point(p15 + 36) = {4.63725253565492, -2.827912389315516, 0};
Point(p15 + 37) = {4.692554227545482, -2.737668230102825, 0};
Point(p15 + 38) = {4.733057767071532, -2.639884035654919, 0};
Point(p15 + 39) = {4.757765822666399, -2.536967577366241, 0};
Spline(15) = {11, p15 + 1, p15 + 2, p15 + 3, p15 + 4, p15 + 5, p15 + 6, p15 + 7, p15 + 8, p15 + 9, p15 + 10, p15 + 11, p15 + 12, p15 + 13, p15 + 14, p15 + 15, p15 + 16, p15 + 17, p15 + 18, p15 + 19, p15 + 20, p15 + 21, p15 + 22, p15 + 23, p15 + 24, p15 + 25, p15 + 26, p15 + 27, p15 + 28, p15 + 29, p15 + 30, p15 + 31, p15 + 32, p15 + 33, p15 + 34, p15 + 35, p15 + 36, p15 + 37, p15 + 38, p15 + 39, 11};
p16 = newp;
Point(p16 + 1) = {25.6788240120204, -2.426648824299344, 0};
Point(p16 + 2) = {25.64864777748497, -2.300955761526756, 0};
Point(p16 + 3) = {25.59918033543718, -2.181530792039054, 0};
Point(p16 + 4) = {25.53163973847325, -2.071314554933777, 0};
Point(p16 + 5) = {25.44768906024482, -1.973020939755177, 0};
Point(p16 + 6) = {25.34939544506622, -1.889070261526755, 0};
Point(p16 + 7) = {25.23917920796094, -1.821529664562824, 0};
Point(p16 + 8) = {25.11975423847325, -1.772062222515025, 0};
Point(p16 + 9) = {24.99406117570065, -1.741885987979603, 0};
Point(p16 + 10) = {24.865195, -1.731744, 0};
Point(p16 + 11) = {24.73632882429934, -1.741885987979603, 0};
Point(p16 + 12) = {24.61063576152675, -1.772062222515025, 0};
Point(p16 + 13) = {24.49121079203906, -1.821529664562824, 0};
Point(p16 + 14) = {24.38099455493378, -1.889070261526755, 0};
Point(p16 + 15) = {24.28270093975518, -1.973020939755177, 0};
Point(p16 + 16) = {24.19875026152675, -2.071314554933777, 0};
Point(p16 + 17) = {24.13120966456282, -2.181530792039054, 0};
Point(p16 + 18) = {24.08174222251503, -2.300955761526756, 0};
Point(p16 + 19) = {24.0515659879796, -2.426648824299344, 0};
Point(p16 + 20) = {24.041424, -2.555515, 0};
Point(p16 + 21) = {24.0515659879796, -2.684381175700656, 0};
Point(p16 + 22) = {24.08174222251503, -2.810074238473245, 0};
Point(p16 + 23) = {24.13120966456282, -2.929499207960946, 0};
Point(p16 + 24) = {24.19875026152675, -3.039715445066223, 0};
Point(p16 + 25) = {24.28270093975518, -3.138009060244824, 0};
Point(p16 + 26) = {24.38099455493378, -3.221959738473245, 0};
Point(p16 + 27) = {24.49121079203906, -3.289500335437176, 0};
Point(p16 + 28) = {24.61063576152675, -3.338967777484975, 0};
Point(p16 + 29) = {24.73632882429934, -3.369144012020397, 0};
Point(p16 + 30) = {24.865195, -3.379286, 0};
Point(p16 + 31) = {24.99406117570065, -3.369144012020397, 0};
Point(p16 + 32) = {25.11975423847325, -3.338967777484975, 0};
Point(p16 + 33) = {25.23917920796094, -3.289500335437176, 0};
Point(p16 + 34) = {25.34939544506622, -3.221959738473245, 0};
Point(p16 + 35) = {25.44768906024482, -3.138009060244824, 0};
Point(p16 + 36) = {25.53163973847325, -3.039715445066223, 0};
Point(p16 + 37) = {25.59918033543718, -2.929499207960947, 0};
Point(p16 + 38) = {25.64864777748497, -2.810074238473245, 0};
Point(p16 + 39) = {25.6788240120204, -2.684381175700656, 0};
Spline(16) = {12, p16 + 1, p16 + 2, p16 + 3, p16 + 4, p16 + 5, p16 + 6, p16 + 7, p16 + 8, p16 + 9, p16 + 10, p16 + 11, p16 + 12, p16 + 13, p16 + 14, p16 + 15, p16 + 16, p16 + 17, p16 + 18, p16 + 19, p16 + 20, p16 + 21, p16 + 22, p16 + 23, p16 + 24, p16 + 25, p16 + 26, p16 + 27, p16 + 28, p16 + 29, p16 + 30, p16 + 31, p16 + 32, p16 + 33, p16 + 34, p16 + 35, p16 + 36, p16 + 37, p16 + 38, p16 + 39, 12};
Line(17) = {11, 8};
Line(18) = {12, 9};
Curve Loop(1) = {-1, 4, 3, -2};
Plane Surface(1) = {1};
Curve Loop(2) = {-5, 1, 7, -6};
Plane Surface(2) = {2};
Curve Loop(3) = {-2, 7, 9, -8, -10, -11};
Plane Surface(3) = {3};
Curve Loop(4) = {-12, 3, 8, -13};
Plane Surface(4) = {4};
Curve Loop(5) = {-4, 5, 14, -12, -15, -16};
Plane Surface(5) = {5};
Curve Loop(6) = {-6, 14, 13, -9};
Plane Surface(6) = {6};
Curve Loop(7) = {-10, -17, 15, 17};
Surface(7) = {7};
Curve Loop(8) = {-11, -18, 16, 18};
Surface(8) = {8};
Surface Loop(1) = {1, 2, 3, 4, 5, 6, 7, 8};
Volume(1) = {1};
Physical Surface("INFLOW") = {1};
Physical Surface("OUTFLOW") = {6};
Physical Surface("OBSTACLE") = {7, 8};
Physical Surface("WALL_Y") = {2, 4};
Physical Surface("WALL_Z") = {3, 5};
Physical Volume("FLUID") = {1};
