cl__1 = 3.649466;
cl__2 = 0.948543;
cl__3 = 0.799417;
cl__4 = 0.076167;
cl__5 = 0.07019300000000001;
Point(1) = {0.25069, -3.420987, 1, cl__1};
Point(2) = {0.25069, -3.420987, 0, cl__1};
Point(3) = {0.25069, 4.415534000000001, 1, cl__1};
Point(4) = {0.25069, 4.415534000000001, 0, cl__1};
Point(5) = {36.28371, -3.420987, 0, cl__2};
Point(6) = {36.28371, -3.420987, 1, cl__2};
Point(7) = {36.28371, 4.415534000000001, 1, cl__3};
Point(8) = {24.784864, -0.07640300000000018, 1, cl__4};
Point(9) = {28.552296, 2.293995999999999, 1, cl__5};
Point(10) = {36.28371, 4.415534000000001, 0, cl__3};
Point(11) = {24.784864, -0.07640300000000018, 0, cl__4};
Point(12) = {28.552296, 2.293995999999999, 0, cl__5};
Line(1) = {2, 1};
Line(2) = {1, 3};
Line(3) = {4, 3};
Line(4) = {2, 4};
Line(5) = {2, 5};
Line(6) = {5, 6};
Line(7) = {1, 6};
Line(8) = {3, 7};
Line(9) = {6, 7};
p10 = newp;
Point(p10 + 1) = {24.7754866399394, 0.04274765681486745, 1};
Point(p10 + 2) = {24.74758546148395, 0.1589644290205943, 1};
Point(p10 + 3) = {24.70184748424593, 0.2693856739841219, 1};
Point(p10 + 4) = {24.6393989290206, 0.3712924541873466, 1};
Point(p10 + 5) = {24.56177748649245, 0.4621754864924517, 1};
Point(p10 + 6) = {24.47089445418735, 0.5397969290205944, 1};
Point(p10 + 7) = {24.36898767398412, 0.6022454842459332, 1};
Point(p10 + 8) = {24.2585664290206, 0.6479834614839481, 1};
Point(p10 + 9) = {24.14234965681487, 0.6758846399393956, 1};
Point(p10 + 10) = {24.023199, 0.685262, 1};
Point(p10 + 11) = {23.90404834318513, 0.6758846399393955, 1};
Point(p10 + 12) = {23.78783157097941, 0.6479834614839483, 1};
Point(p10 + 13) = {23.67741032601588, 0.6022454842459333, 1};
Point(p10 + 14) = {23.57550354581265, 0.5397969290205944, 1};
Point(p10 + 15) = {23.48462051350755, 0.4621754864924518, 1};
Point(p10 + 16) = {23.40699907097941, 0.3712924541873466, 1};
Point(p10 + 17) = {23.34455051575407, 0.269385673984122, 1};
Point(p10 + 18) = {23.29881253851605, 0.1589644290205944, 1};
Point(p10 + 19) = {23.27091136006061, 0.04274765681486753, 1};
Point(p10 + 20) = {23.261534, -0.0764029999999999, 1};
Point(p10 + 21) = {23.27091136006061, -0.1955536568148674, 1};
Point(p10 + 22) = {23.29881253851605, -0.3117704290205946, 1};
Point(p10 + 23) = {23.34455051575407, -0.4221916739841215, 1};
Point(p10 + 24) = {23.40699907097941, -0.5240984541873465, 1};
Point(p10 + 25) = {23.48462051350755, -0.6149814864924517, 1};
Point(p10 + 26) = {23.57550354581265, -0.6926029290205943, 1};
Point(p10 + 27) = {23.67741032601588, -0.7550514842459332, 1};
Point(p10 + 28) = {23.78783157097941, -0.8007894614839481, 1};
Point(p10 + 29) = {23.90404834318513, -0.8286906399393955, 1};
Point(p10 + 30) = {24.023199, -0.838068, 1};
Point(p10 + 31) = {24.14234965681487, -0.8286906399393956, 1};
Point(p10 + 32) = {24.2585664290206, -0.8007894614839483, 1};
Point(p10 + 33) = {24.36898767398412, -0.7550514842459333, 1};
Point(p10 + 34) = {24.47089445418735, -0.6926029290205945, 1};
Point(p10 + 35) = {24.56177748649245, -0.6149814864924519, 1};
Point(p10 + 36) = {24.6393989290206, -0.5240984541873468, 1};
Point(p10 + 37) = {24.70184748424593, -0.4221916739841221, 1};
Point(p10 + 38) = {24.74758546148395, -0.3117704290205945, 1};
Point(p10 + 39) = {24.7754866399394, -0.1955536568148676, 1};
Spline(10) = {8, p10 + 1, p10 + 2, p10 + 3, p10 + 4, p10 + 5, p10 + 6, p10 + 7, p10 + 8, p10 + 9, p10 + 10, p10 + 11, p10 + 12, p10 + 13, p10 + 14, p10 + 15, p10 + 16, p10 + 17, p10 + 18, p10 + 19, p10 + 20, p10 + 21, p10 + 22, p10 + 23, p10 + 24, p10 + 25, p10 + 26, p10 + 27, p10 + 28, p10 + 29, p10 + 30, p10 + 31, p10 + 32, p10 + 33, p10 + 34, p10 + 35, p10 + 36, p10 + 37, p10 + 38, p10 + 39, 8};
p11 = newp;
Point(p11 + 1) = {28.54365405229063, 2.403802356914619, 1};
Point(p11 + 2) = {28.51794100259609, 2.510904916895595, 1};
Point(p11 + 3) = {28.47578999153659, 2.612666459463179, 1};
Point(p11 + 4) = {28.4182389168956, 2.70658127771216, 1};
Point(p11 + 5) = {28.34670487713183, 2.790336877131836, 1};
Point(p11 + 6) = {28.26294927771216, 2.861870916895596, 1};
Point(p11 + 7) = {28.16903445946318, 2.91942199153659, 1};
Point(p11 + 8) = {28.06727291689559, 2.96157300259609, 1};
Point(p11 + 9) = {27.96017035691462, 2.987286052290626, 1};
Point(p11 + 10) = {27.850364, 2.995928, 1};
Point(p11 + 11) = {27.74055764308538, 2.987286052290626, 1};
Point(p11 + 12) = {27.6334550831044, 2.96157300259609, 1};
Point(p11 + 13) = {27.53169354053682, 2.91942199153659, 1};
Point(p11 + 14) = {27.43777872228784, 2.861870916895596, 1};
Point(p11 + 15) = {27.35402312286816, 2.790336877131836, 1};
Point(p11 + 16) = {27.28248908310441, 2.70658127771216, 1};
Point(p11 + 17) = {27.22493800846341, 2.612666459463179, 1};
Point(p11 + 18) = {27.18278699740391, 2.510904916895595, 1};
Point(p11 + 19) = {27.15707394770937, 2.403802356914619, 1};
Point(p11 + 20) = {27.148432, 2.293996, 1};
Point(p11 + 21) = {27.15707394770937, 2.184189643085381, 1};
Point(p11 + 22) = {27.18278699740391, 2.077087083104404, 1};
Point(p11 + 23) = {27.22493800846341, 1.975325540536821, 1};
Point(p11 + 24) = {27.2824890831044, 1.88141072228784, 1};
Point(p11 + 25) = {27.35402312286816, 1.797655122868164, 1};
Point(p11 + 26) = {27.43777872228784, 1.726121083104404, 1};
Point(p11 + 27) = {27.53169354053682, 1.668570008463411, 1};
Point(p11 + 28) = {27.6334550831044, 1.62641899740391, 1};
Point(p11 + 29) = {27.74055764308538, 1.600705947709374, 1};
Point(p11 + 30) = {27.850364, 1.592064, 1};
Point(p11 + 31) = {27.96017035691462, 1.600705947709374, 1};
Point(p11 + 32) = {28.06727291689559, 1.62641899740391, 1};
Point(p11 + 33) = {28.16903445946318, 1.66857000846341, 1};
Point(p11 + 34) = {28.26294927771216, 1.726121083104404, 1};
Point(p11 + 35) = {28.34670487713183, 1.797655122868164, 1};
Point(p11 + 36) = {28.41823891689559, 1.88141072228784, 1};
Point(p11 + 37) = {28.47578999153659, 1.97532554053682, 1};
Point(p11 + 38) = {28.51794100259609, 2.077087083104404, 1};
Point(p11 + 39) = {28.54365405229062, 2.18418964308538, 1};
Spline(11) = {9, p11 + 1, p11 + 2, p11 + 3, p11 + 4, p11 + 5, p11 + 6, p11 + 7, p11 + 8, p11 + 9, p11 + 10, p11 + 11, p11 + 12, p11 + 13, p11 + 14, p11 + 15, p11 + 16, p11 + 17, p11 + 18, p11 + 19, p11 + 20, p11 + 21, p11 + 22, p11 + 23, p11 + 24, p11 + 25, p11 + 26, p11 + 27, p11 + 28, p11 + 29, p11 + 30, p11 + 31, p11 + 32, p11 + 33, p11 + 34, p11 + 35, p11 + 36, p11 + 37, p11 + 38, p11 + 39, 9};
Line(12) = {4, 10};
Line(13) = {10, 7};
Line(14) = {5, 10};
p15 = newp;
Point(p15 + 1) = {24.7754866399394, 0.04274765681486745, 0};
Point(p15 + 2) = {24.74758546148395, 0.1589644290205943, 0};
Point(p15 + 3) = {24.70184748424593, 0.2693856739841219, 0};
Point(p15 + 4) = {24.6393989290206, 0.3712924541873466, 0};
Point(p15 + 5) = {24.56177748649245, 0.4621754864924517, 0};
Point(p15 + 6) = {24.47089445418735, 0.5397969290205944, 0};
Point(p15 + 7) = {24.36898767398412, 0.6022454842459332, 0};
Point(p15 + 8) = {24.2585664290206, 0.6479834614839481, 0};
Point(p15 + 9) = {24.14234965681487, 0.6758846399393956, 0};
Point(p15 + 10) = {24.023199, 0.685262, 0};
Point(p15 + 11) = {23.90404834318513, 0.6758846399393955, 0};
Point(p15 + 12) = {23.78783157097941, 0.6479834614839483, 0};
Point(p15 + 13) = {23.67741032601588, 0.6022454842459333, 0};
Point(p15 + 14) = {23.57550354581265, 0.5397969290205944, 0};
Point(p15 + 15) = {23.48462051350755, 0.4621754864924518, 0};
Point(p15 + 16) = {23.40699907097941, 0.3712924541873466, 0};
Point(p15 + 17) = {23.34455051575407, 0.269385673984122, 0};
Point(p15 + 18) = {23.29881253851605, 0.1589644290205944, 0};
Point(p15 + 19) = {23.27091136006061, 0.04274765681486753, 0};
Point(p15 + 20) = {23.261534, -0.0764029999999999, 0};
Point(p15 + 21) = {23.27091136006061, -0.1955536568148674, 0};
Point(p15 + 22) = {23.29881253851605, -0.3117704290205946, 0};
Point(p15 + 23) = {23.34455051575407, -0.4221916739841215, 0};
Point(p15 + 24) = {23.40699907097941, -0.5240984541873465, 0};
Point(p15 + 25) = {23.48462051350755, -0.6149814864924517, 0};
Point(p15 + 26) = {23.57550354581265, -0.6926029290205943, 0};
Point(p15 + 27) = {23.67741032601588, -0.7550514842459332, 0};
Point(p15 + 28) = {23.78783157097941, -0.8007894614839481, 0};
Point(p15 + 29) = {23.90404834318513, -0.8286906399393955, 0};
Point(p15 + 30) = {24.023199, -0.838068, 0};
Point(p15 + 31) = {24.14234965681487, -0.8286906399393956, 0};
Point(p15 + 32) = {24.2585664290206, -0.8007894614839483, 0};
Point(p15 + 33) = {24.36898767398412, -0.7550514842459333, 0};
Point(p15 + 34) = {24.47089445418735, -0.6926029290205945, 0};
Point(p15 + 35) = {24.56177748649245, -0.6149814864924519, 0};
Point(p15 + 36) = {24.6393989290206, -0.5240984541873468, 0};
Point(p15 + 37) = {24.70184748424593, -0.4221916739841221, 0};
Point(p15 + 38) = {24.74758546148395, -0.3117704290205945, 0};
Point(p15 + 39) = {24.7754866399394, -0.1955536568148676, 0};
Spline(15) = {11, p15 + 1, p15 + 2, p15 + 3, p15 + 4, p15 + 5, p15 + 6, p15 + 7, p15 + 8, p15 + 9, p15 + 10, p15 + 11, p15 + 12, p15 + 13, p15 + 14, p15 + 15, p15 + 16, p15 + 17, p15 + 18, p15 + 19, p15 + 20, p15 + 21, p15 + 22, p15 + 23, p15 + 24, p15 + 25, p15 + 26, p15 + 27, p15 + 28, p15 + 29, p15 + 30, p15 + 31, p15 + 32, p15 + 33, p15 + 34, p15 + 35, p15 + 36, p15 + 37, p15 + 38, p15 + 39, 11};
p16 = newp;
Point(p16 + 1) = {28.54365405229063, 2.403802356914619, 0};
Point(p16 + 2) = {28.51794100259609, 2.510904916895595, 0};
Point(p16 + 3) = {28.47578999153659, 2.612666459463179, 0};
Point(p16 + 4) = {28.4182389168956, 2.70658127771216, 0};
Point(p16 + 5) = {28.34670487713183, 2.790336877131836, 0};
Point(p16 + 6) = {28.26294927771216, 2.861870916895596, 0};
Point(p16 + 7) = {28.16903445946318, 2.91942199153659, 0};
Point(p16 + 8) = {28.06727291689559, 2.96157300259609, 0};
Point(p16 + 9) = {27.96017035691462, 2.987286052290626, 0};
Point(p16 + 10) = {27.850364, 2.995928, 0};
Point(p16 + 11) = {27.74055764308538, 2.987286052290626, 0};
Point(p16 + 12) = {27.6334550831044, 2.96157300259609, 0};
Point(p16 + 13) = {27.53169354053682, 2.91942199153659, 0};
Point(p16 + 14) = {27.43777872228784, 2.861870916895596, 0};
Point(p16 + 15) = {27.35402312286816, 2.790336877131836, 0};
Point(p16 + 16) = {27.28248908310441, 2.70658127771216, 0};
Point(p16 + 17) = {27.22493800846341, 2.612666459463179, 0};
Point(p16 + 18) = {27.18278699740391, 2.510904916895595, 0};
Point(p16 + 19) = {27.15707394770937, 2.403802356914619, 0};
Point(p16 + 20) = {27.148432, 2.293996, 0};
Point(p16 + 21) = {27.15707394770937, 2.184189643085381, 0};
Point(p16 + 22) = {27.18278699740391, 2.077087083104404, 0};
Point(p16 + 23) = {27.22493800846341, 1.975325540536821, 0};
Point(p16 + 24) = {27.2824890831044, 1.88141072228784, 0};
Point(p16 + 25) = {27.35402312286816, 1.797655122868164, 0};
Point(p16 + 26) = {27.43777872228784, 1.726121083104404, 0};
Point(p16 + 27) = {27.53169354053682, 1.668570008463411, 0};
Point(p16 + 28) = {27.6334550831044, 1.62641899740391, 0};
Point(p16 + 29) = {27.74055764308538, 1.600705947709374, 0};
Point(p16 + 30) = {27.850364, 1.592064, 0};
Point(p16 + 31) = {27.96017035691462, 1.600705947709374, 0};
Point(p16 + 32) = {28.06727291689559, 1.62641899740391, 0};
Point(p16 + 33) = {28.16903445946318, 1.66857000846341, 0};
Point(p16 + 34) = {28.26294927771216, 1.726121083104404, 0};
Point(p16 + 35) = {28.34670487713183, 1.797655122868164, 0};
Point(p16 + 36) = {28.41823891689559, 1.88141072228784, 0};
Point(p16 + 37) = {28.47578999153659, 1.97532554053682, 0};
Point(p16 + 38) = {28.51794100259609, 2.077087083104404, 0};
Point(p16 + 39) = {28.54365405229062, 2.18418964308538, 0};
Spline(16) = {12, p16 + 1, p16 + 2, p16 + 3, p16 + 4, p16 + 5, p16 + 6, p16 + 7, p16 + 8, p16 + 9, p16 + 10, p16 + 11, p16 + 12, p16 + 13, p16 + 14, p16 + 15, p16 + 16, p16 + 17, p16 + 18, p16 + 19, p16 + 20, p16 + 21, p16 + 22, p16 + 23, p16 + 24, p16 + 25, p16 + 26, p16 + 27, p16 + 28, p16 + 29, p16 + 30, p16 + 31, p16 + 32, p16 + 33, p16 + 34, p16 + 35, p16 + 36, p16 + 37, p16 + 38, p16 + 39, 12};
Line(17) = {11, 8};
Line(18) = {12, 9};
Curve Loop(1) = {-1, 4, 3, -2};
Plane Surface(1) = {1};
Curve Loop(2) = {-5, 1, 7, -6};
Plane Surface(2) = {2};
Curve Loop(3) = {-2, 7, 9, -8, -10, -11};
Plane Surface(3) = {3};
Curve Loop(4) = {-12, 3, 8, -13};
Plane Surface(4) = {4};
Curve Loop(5) = {-4, 5, 14, -12, -15, -16};
Plane Surface(5) = {5};
Curve Loop(6) = {-6, 14, 13, -9};
Plane Surface(6) = {6};
Curve Loop(7) = {-10, -17, 15, 17};
Surface(7) = {7};
Curve Loop(8) = {-11, -18, 16, 18};
Surface(8) = {8};
Surface Loop(1) = {1, 2, 3, 4, 5, 6, 7, 8};
Volume(1) = {1};
Physical Surface("INFLOW") = {1};
Physical Surface("OUTFLOW") = {6};
Physical Surface("OBSTACLE") = {7, 8};
Physical Surface("WALL_Y") = {2, 4};
Physical Surface("WALL_Z") = {3, 5};
Physical Volume("FLUID") = {1};
