cl__1 = 0.708867;
cl__2 = 0.579282;
cl__3 = 2.667584;
cl__4 = 2.326042;
cl__5 = 0.06600300000000001;
cl__6 = 0.122651;
Point(1) = {0.652037, -4.029483, 1, cl__1};
Point(2) = {0.652037, -4.029483, 0, cl__1};
Point(3) = {0.652037, 5.424425, 1, cl__2};
Point(4) = {0.652037, 5.424425, 0, cl__2};
Point(5) = {38.876749, -4.029483, 0, cl__3};
Point(6) = {38.876749, -4.029483, 1, cl__3};
Point(7) = {38.876749, 5.424425, 1, cl__4};
Point(8) = {20.927871, 2.430092, 1, cl__5};
Point(9) = {10.609015, 2.591861999999999, 1, cl__6};
Point(10) = {38.876749, 5.424425, 0, cl__4};
Point(11) = {20.927871, 2.430092, 0, cl__5};
Point(12) = {10.609015, 2.591861999999999, 0, cl__6};
Line(1) = {2, 1};
Line(2) = {1, 3};
Line(3) = {4, 3};
Line(4) = {2, 4};
Line(5) = {2, 5};
Line(6) = {5, 6};
Line(7) = {1, 6};
Line(8) = {3, 7};
Line(9) = {6, 7};
p10 = newp;
Point(p10 + 1) = {20.91974497237799, 2.533342970657109, 1};
Point(p10 + 2) = {20.89556697928074, 2.634051559746314, 1};
Point(p10 + 3) = {20.85593236314048, 2.729737987571594, 1};
Point(p10 + 4) = {20.80181705974631, 2.818046136714844, 1};
Point(p10 + 5) = {20.73455356746621, 2.896801567466214, 1};
Point(p10 + 6) = {20.65579813671484, 2.964065059746313, 1};
Point(p10 + 7) = {20.56748998757159, 3.018180363140476, 1};
Point(p10 + 8) = {20.47180355974631, 3.057814979280741, 1};
Point(p10 + 9) = {20.37109497065711, 3.081992972377987, 1};
Point(p10 + 10) = {20.267844, 3.090119, 1};
Point(p10 + 11) = {20.16459302934289, 3.081992972377987, 1};
Point(p10 + 12) = {20.06388444025369, 3.057814979280741, 1};
Point(p10 + 13) = {19.96819801242841, 3.018180363140476, 1};
Point(p10 + 14) = {19.87988986328516, 2.964065059746313, 1};
Point(p10 + 15) = {19.80113443253379, 2.896801567466214, 1};
Point(p10 + 16) = {19.73387094025369, 2.818046136714845, 1};
Point(p10 + 17) = {19.67975563685953, 2.729737987571594, 1};
Point(p10 + 18) = {19.64012102071926, 2.634051559746314, 1};
Point(p10 + 19) = {19.61594302762201, 2.533342970657109, 1};
Point(p10 + 20) = {19.607817, 2.430092, 1};
Point(p10 + 21) = {19.61594302762201, 2.326841029342892, 1};
Point(p10 + 22) = {19.64012102071926, 2.226132440253687, 1};
Point(p10 + 23) = {19.67975563685953, 2.130446012428407, 1};
Point(p10 + 24) = {19.73387094025369, 2.042137863285156, 1};
Point(p10 + 25) = {19.80113443253379, 1.963382432533787, 1};
Point(p10 + 26) = {19.87988986328516, 1.896118940253687, 1};
Point(p10 + 27) = {19.96819801242841, 1.842003636859524, 1};
Point(p10 + 28) = {20.06388444025369, 1.802369020719259, 1};
Point(p10 + 29) = {20.16459302934289, 1.778191027622013, 1};
Point(p10 + 30) = {20.267844, 1.770065, 1};
Point(p10 + 31) = {20.37109497065711, 1.778191027622013, 1};
Point(p10 + 32) = {20.47180355974631, 1.802369020719259, 1};
Point(p10 + 33) = {20.56748998757159, 1.842003636859524, 1};
Point(p10 + 34) = {20.65579813671484, 1.896118940253686, 1};
Point(p10 + 35) = {20.73455356746621, 1.963382432533787, 1};
Point(p10 + 36) = {20.80181705974631, 2.042137863285156, 1};
Point(p10 + 37) = {20.85593236314048, 2.130446012428406, 1};
Point(p10 + 38) = {20.89556697928074, 2.226132440253687, 1};
Point(p10 + 39) = {20.91974497237799, 2.326841029342892, 1};
Spline(10) = {8, p10 + 1, p10 + 2, p10 + 3, p10 + 4, p10 + 5, p10 + 6, p10 + 7, p10 + 8, p10 + 9, p10 + 10, p10 + 11, p10 + 12, p10 + 13, p10 + 14, p10 + 15, p10 + 16, p10 + 17, p10 + 18, p10 + 19, p10 + 20, p10 + 21, p10 + 22, p10 + 23, p10 + 24, p10 + 25, p10 + 26, p10 + 27, p10 + 28, p10 + 29, p10 + 30, p10 + 31, p10 + 32, p10 + 33, p10 + 34, p10 + 35, p10 + 36, p10 + 37, p10 + 38, p10 + 39, 8};
p11 = newp;
Point(p11 + 1) = {10.593914638935, 2.783730279282028, 1};
Point(p11 + 2) = {10.54898537674465, 2.970874124753822, 1};
Point(p11 + 3) = {10.47533352097575, 3.148685433845052, 1};
Point(p11 + 4) = {10.37477262475382, 3.312785902003989, 1};
Point(p11 + 5) = {10.24977883108633, 3.459134831086331, 1};
Point(p11 + 6) = {10.10342990200399, 3.584128624753822, 1};
Point(p11 + 7) = {9.939329433845051, 3.684689520975751, 1};
Point(p11 + 8) = {9.761518124753822, 3.758341376744653, 1};
Point(p11 + 9) = {9.574374279282027, 3.803270638935002, 1};
Point(p11 + 10) = {9.382505999999999, 3.818371, 1};
Point(p11 + 11) = {9.190637720717971, 3.803270638935002, 1};
Point(p11 + 12) = {9.003493875246177, 3.758341376744653, 1};
Point(p11 + 13) = {8.825682566154947, 3.684689520975751, 1};
Point(p11 + 14) = {8.661582097996011, 3.584128624753822, 1};
Point(p11 + 15) = {8.515233168913667, 3.459134831086331, 1};
Point(p11 + 16) = {8.390239375246177, 3.312785902003989, 1};
Point(p11 + 17) = {8.289678479024248, 3.148685433845052, 1};
Point(p11 + 18) = {8.216026623255347, 2.970874124753823, 1};
Point(p11 + 19) = {8.171097361064998, 2.783730279282028, 1};
Point(p11 + 20) = {8.155996999999999, 2.591862, 1};
Point(p11 + 21) = {8.171097361064998, 2.399993720717971, 1};
Point(p11 + 22) = {8.216026623255347, 2.212849875246177, 1};
Point(p11 + 23) = {8.289678479024248, 2.035038566154949, 1};
Point(p11 + 24) = {8.390239375246177, 1.870938097996011, 1};
Point(p11 + 25) = {8.515233168913667, 1.724589168913669, 1};
Point(p11 + 26) = {8.661582097996011, 1.599595375246178, 1};
Point(p11 + 27) = {8.825682566154947, 1.499034479024249, 1};
Point(p11 + 28) = {9.003493875246177, 1.425382623255347, 1};
Point(p11 + 29) = {9.190637720717971, 1.380453361064998, 1};
Point(p11 + 30) = {9.382505999999999, 1.365353, 1};
Point(p11 + 31) = {9.574374279282027, 1.380453361064998, 1};
Point(p11 + 32) = {9.761518124753822, 1.425382623255347, 1};
Point(p11 + 33) = {9.939329433845051, 1.499034479024249, 1};
Point(p11 + 34) = {10.10342990200399, 1.599595375246177, 1};
Point(p11 + 35) = {10.24977883108633, 1.724589168913668, 1};
Point(p11 + 36) = {10.37477262475382, 1.870938097996011, 1};
Point(p11 + 37) = {10.47533352097575, 2.035038566154948, 1};
Point(p11 + 38) = {10.54898537674465, 2.212849875246177, 1};
Point(p11 + 39) = {10.593914638935, 2.399993720717971, 1};
Spline(11) = {9, p11 + 1, p11 + 2, p11 + 3, p11 + 4, p11 + 5, p11 + 6, p11 + 7, p11 + 8, p11 + 9, p11 + 10, p11 + 11, p11 + 12, p11 + 13, p11 + 14, p11 + 15, p11 + 16, p11 + 17, p11 + 18, p11 + 19, p11 + 20, p11 + 21, p11 + 22, p11 + 23, p11 + 24, p11 + 25, p11 + 26, p11 + 27, p11 + 28, p11 + 29, p11 + 30, p11 + 31, p11 + 32, p11 + 33, p11 + 34, p11 + 35, p11 + 36, p11 + 37, p11 + 38, p11 + 39, 9};
Line(12) = {4, 10};
Line(13) = {10, 7};
Line(14) = {5, 10};
p15 = newp;
Point(p15 + 1) = {20.91974497237799, 2.533342970657109, 0};
Point(p15 + 2) = {20.89556697928074, 2.634051559746314, 0};
Point(p15 + 3) = {20.85593236314048, 2.729737987571594, 0};
Point(p15 + 4) = {20.80181705974631, 2.818046136714844, 0};
Point(p15 + 5) = {20.73455356746621, 2.896801567466214, 0};
Point(p15 + 6) = {20.65579813671484, 2.964065059746313, 0};
Point(p15 + 7) = {20.56748998757159, 3.018180363140476, 0};
Point(p15 + 8) = {20.47180355974631, 3.057814979280741, 0};
Point(p15 + 9) = {20.37109497065711, 3.081992972377987, 0};
Point(p15 + 10) = {20.267844, 3.090119, 0};
Point(p15 + 11) = {20.16459302934289, 3.081992972377987, 0};
Point(p15 + 12) = {20.06388444025369, 3.057814979280741, 0};
Point(p15 + 13) = {19.96819801242841, 3.018180363140476, 0};
Point(p15 + 14) = {19.87988986328516, 2.964065059746313, 0};
Point(p15 + 15) = {19.80113443253379, 2.896801567466214, 0};
Point(p15 + 16) = {19.73387094025369, 2.818046136714845, 0};
Point(p15 + 17) = {19.67975563685953, 2.729737987571594, 0};
Point(p15 + 18) = {19.64012102071926, 2.634051559746314, 0};
Point(p15 + 19) = {19.61594302762201, 2.533342970657109, 0};
Point(p15 + 20) = {19.607817, 2.430092, 0};
Point(p15 + 21) = {19.61594302762201, 2.326841029342892, 0};
Point(p15 + 22) = {19.64012102071926, 2.226132440253687, 0};
Point(p15 + 23) = {19.67975563685953, 2.130446012428407, 0};
Point(p15 + 24) = {19.73387094025369, 2.042137863285156, 0};
Point(p15 + 25) = {19.80113443253379, 1.963382432533787, 0};
Point(p15 + 26) = {19.87988986328516, 1.896118940253687, 0};
Point(p15 + 27) = {19.96819801242841, 1.842003636859524, 0};
Point(p15 + 28) = {20.06388444025369, 1.802369020719259, 0};
Point(p15 + 29) = {20.16459302934289, 1.778191027622013, 0};
Point(p15 + 30) = {20.267844, 1.770065, 0};
Point(p15 + 31) = {20.37109497065711, 1.778191027622013, 0};
Point(p15 + 32) = {20.47180355974631, 1.802369020719259, 0};
Point(p15 + 33) = {20.56748998757159, 1.842003636859524, 0};
Point(p15 + 34) = {20.65579813671484, 1.896118940253686, 0};
Point(p15 + 35) = {20.73455356746621, 1.963382432533787, 0};
Point(p15 + 36) = {20.80181705974631, 2.042137863285156, 0};
Point(p15 + 37) = {20.85593236314048, 2.130446012428406, 0};
Point(p15 + 38) = {20.89556697928074, 2.226132440253687, 0};
Point(p15 + 39) = {20.91974497237799, 2.326841029342892, 0};
Spline(15) = {11, p15 + 1, p15 + 2, p15 + 3, p15 + 4, p15 + 5, p15 + 6, p15 + 7, p15 + 8, p15 + 9, p15 + 10, p15 + 11, p15 + 12, p15 + 13, p15 + 14, p15 + 15, p15 + 16, p15 + 17, p15 + 18, p15 + 19, p15 + 20, p15 + 21, p15 + 22, p15 + 23, p15 + 24, p15 + 25, p15 + 26, p15 + 27, p15 + 28, p15 + 29, p15 + 30, p15 + 31, p15 + 32, p15 + 33, p15 + 34, p15 + 35, p15 + 36, p15 + 37, p15 + 38, p15 + 39, 11};
p16 = newp;
Point(p16 + 1) = {10.593914638935, 2.783730279282028, 0};
Point(p16 + 2) = {10.54898537674465, 2.970874124753822, 0};
Point(p16 + 3) = {10.47533352097575, 3.148685433845052, 0};
Point(p16 + 4) = {10.37477262475382, 3.312785902003989, 0};
Point(p16 + 5) = {10.24977883108633, 3.459134831086331, 0};
Point(p16 + 6) = {10.10342990200399, 3.584128624753822, 0};
Point(p16 + 7) = {9.939329433845051, 3.684689520975751, 0};
Point(p16 + 8) = {9.761518124753822, 3.758341376744653, 0};
Point(p16 + 9) = {9.574374279282027, 3.803270638935002, 0};
Point(p16 + 10) = {9.382505999999999, 3.818371, 0};
Point(p16 + 11) = {9.190637720717971, 3.803270638935002, 0};
Point(p16 + 12) = {9.003493875246177, 3.758341376744653, 0};
Point(p16 + 13) = {8.825682566154947, 3.684689520975751, 0};
Point(p16 + 14) = {8.661582097996011, 3.584128624753822, 0};
Point(p16 + 15) = {8.515233168913667, 3.459134831086331, 0};
Point(p16 + 16) = {8.390239375246177, 3.312785902003989, 0};
Point(p16 + 17) = {8.289678479024248, 3.148685433845052, 0};
Point(p16 + 18) = {8.216026623255347, 2.970874124753823, 0};
Point(p16 + 19) = {8.171097361064998, 2.783730279282028, 0};
Point(p16 + 20) = {8.155996999999999, 2.591862, 0};
Point(p16 + 21) = {8.171097361064998, 2.399993720717971, 0};
Point(p16 + 22) = {8.216026623255347, 2.212849875246177, 0};
Point(p16 + 23) = {8.289678479024248, 2.035038566154949, 0};
Point(p16 + 24) = {8.390239375246177, 1.870938097996011, 0};
Point(p16 + 25) = {8.515233168913667, 1.724589168913669, 0};
Point(p16 + 26) = {8.661582097996011, 1.599595375246178, 0};
Point(p16 + 27) = {8.825682566154947, 1.499034479024249, 0};
Point(p16 + 28) = {9.003493875246177, 1.425382623255347, 0};
Point(p16 + 29) = {9.190637720717971, 1.380453361064998, 0};
Point(p16 + 30) = {9.382505999999999, 1.365353, 0};
Point(p16 + 31) = {9.574374279282027, 1.380453361064998, 0};
Point(p16 + 32) = {9.761518124753822, 1.425382623255347, 0};
Point(p16 + 33) = {9.939329433845051, 1.499034479024249, 0};
Point(p16 + 34) = {10.10342990200399, 1.599595375246177, 0};
Point(p16 + 35) = {10.24977883108633, 1.724589168913668, 0};
Point(p16 + 36) = {10.37477262475382, 1.870938097996011, 0};
Point(p16 + 37) = {10.47533352097575, 2.035038566154948, 0};
Point(p16 + 38) = {10.54898537674465, 2.212849875246177, 0};
Point(p16 + 39) = {10.593914638935, 2.399993720717971, 0};
Spline(16) = {12, p16 + 1, p16 + 2, p16 + 3, p16 + 4, p16 + 5, p16 + 6, p16 + 7, p16 + 8, p16 + 9, p16 + 10, p16 + 11, p16 + 12, p16 + 13, p16 + 14, p16 + 15, p16 + 16, p16 + 17, p16 + 18, p16 + 19, p16 + 20, p16 + 21, p16 + 22, p16 + 23, p16 + 24, p16 + 25, p16 + 26, p16 + 27, p16 + 28, p16 + 29, p16 + 30, p16 + 31, p16 + 32, p16 + 33, p16 + 34, p16 + 35, p16 + 36, p16 + 37, p16 + 38, p16 + 39, 12};
Line(17) = {11, 8};
Line(18) = {12, 9};
Curve Loop(1) = {-1, 4, 3, -2};
Plane Surface(1) = {1};
Curve Loop(2) = {-5, 1, 7, -6};
Plane Surface(2) = {2};
Curve Loop(3) = {-2, 7, 9, -8, -10, -11};
Plane Surface(3) = {3};
Curve Loop(4) = {-12, 3, 8, -13};
Plane Surface(4) = {4};
Curve Loop(5) = {-4, 5, 14, -12, -15, -16};
Plane Surface(5) = {5};
Curve Loop(6) = {-6, 14, 13, -9};
Plane Surface(6) = {6};
Curve Loop(7) = {-10, -17, 15, 17};
Surface(7) = {7};
Curve Loop(8) = {-11, -18, 16, 18};
Surface(8) = {8};
Surface Loop(1) = {1, 2, 3, 4, 5, 6, 7, 8};
Volume(1) = {1};
Physical Surface("INFLOW") = {1};
Physical Surface("OUTFLOW") = {6};
Physical Surface("OBSTACLE") = {7, 8};
Physical Surface("WALL_Y") = {2, 4};
Physical Surface("WALL_Z") = {3, 5};
Physical Volume("FLUID") = {1};
