cl__1 = 0.770485;
cl__2 = 0.674488;
cl__3 = 1.498327;
cl__4 = 2.807632;
cl__5 = 0.07159500000000001;
cl__6 = 0.056861;
Point(1) = {0.597146, -4.033104, 1, cl__1};
Point(2) = {0.597146, -4.033104, 0, cl__1};
Point(3) = {0.597146, 4.075818, 1, cl__2};
Point(4) = {0.597146, 4.075818, 0, cl__2};
Point(5) = {37.867946, -4.033104, 0, cl__3};
Point(6) = {37.867946, -4.033104, 1, cl__3};
Point(7) = {37.867946, 4.075818, 1, cl__4};
Point(8) = {29.690889, -2.374638, 1, cl__5};
Point(9) = {5.337089, 0.5236579999999998, 1, cl__6};
Point(10) = {37.867946, 4.075818, 0, cl__4};
Point(11) = {29.690889, -2.374638, 0, cl__5};
Point(12) = {5.337089, 0.5236579999999998, 0, cl__6};
Line(1) = {2, 1};
Line(2) = {1, 3};
Line(3) = {4, 3};
Line(4) = {2, 4};
Line(5) = {2, 5};
Line(6) = {5, 6};
Line(7) = {1, 6};
Line(8) = {3, 7};
Line(9) = {6, 7};
p10 = newp;
Point(p10 + 1) = {29.68207445513743, -2.262638588319982, 1};
Point(p10 + 2) = {29.65584786389803, -2.153396973860262, 1};
Point(p10 + 3) = {29.61285501199919, -2.049603047720972, 1};
Point(p10 + 4) = {29.55415452613974, -1.953812560835952, 1};
Point(p10 + 5) = {29.48119180709729, -1.86838419290271, 1};
Point(p10 + 6) = {29.39576343916405, -1.795421473860262, 1};
Point(p10 + 7) = {29.29997295227903, -1.736720988000814, 1};
Point(p10 + 8) = {29.19617902613974, -1.693728136101968, 1};
Point(p10 + 9) = {29.08693741168002, -1.667501544862571, 1};
Point(p10 + 10) = {28.974938, -1.658687, 1};
Point(p10 + 11) = {28.86293858831998, -1.667501544862571, 1};
Point(p10 + 12) = {28.75369697386027, -1.693728136101968, 1};
Point(p10 + 13) = {28.64990304772097, -1.736720988000814, 1};
Point(p10 + 14) = {28.55411256083595, -1.795421473860262, 1};
Point(p10 + 15) = {28.46868419290271, -1.86838419290271, 1};
Point(p10 + 16) = {28.39572147386026, -1.953812560835952, 1};
Point(p10 + 17) = {28.33702098800082, -2.049603047720972, 1};
Point(p10 + 18) = {28.29402813610197, -2.153396973860262, 1};
Point(p10 + 19) = {28.26780154486257, -2.262638588319982, 1};
Point(p10 + 20) = {28.258987, -2.374638, 1};
Point(p10 + 21) = {28.26780154486257, -2.486637411680018, 1};
Point(p10 + 22) = {28.29402813610197, -2.595879026139738, 1};
Point(p10 + 23) = {28.33702098800082, -2.699672952279028, 1};
Point(p10 + 24) = {28.39572147386026, -2.795463439164048, 1};
Point(p10 + 25) = {28.46868419290271, -2.88089180709729, 1};
Point(p10 + 26) = {28.55411256083595, -2.953854526139738, 1};
Point(p10 + 27) = {28.64990304772097, -3.012555011999186, 1};
Point(p10 + 28) = {28.75369697386027, -3.055547863898032, 1};
Point(p10 + 29) = {28.86293858831998, -3.081774455137429, 1};
Point(p10 + 30) = {28.974938, -3.090589, 1};
Point(p10 + 31) = {29.08693741168002, -3.081774455137429, 1};
Point(p10 + 32) = {29.19617902613974, -3.055547863898032, 1};
Point(p10 + 33) = {29.29997295227903, -3.012555011999186, 1};
Point(p10 + 34) = {29.39576343916405, -2.953854526139738, 1};
Point(p10 + 35) = {29.48119180709729, -2.88089180709729, 1};
Point(p10 + 36) = {29.55415452613974, -2.795463439164048, 1};
Point(p10 + 37) = {29.61285501199919, -2.699672952279029, 1};
Point(p10 + 38) = {29.65584786389803, -2.595879026139738, 1};
Point(p10 + 39) = {29.68207445513743, -2.486637411680019, 1};
Spline(10) = {8, p10 + 1, p10 + 2, p10 + 3, p10 + 4, p10 + 5, p10 + 6, p10 + 7, p10 + 8, p10 + 9, p10 + 10, p10 + 11, p10 + 12, p10 + 13, p10 + 14, p10 + 15, p10 + 16, p10 + 17, p10 + 18, p10 + 19, p10 + 20, p10 + 21, p10 + 22, p10 + 23, p10 + 24, p10 + 25, p10 + 26, p10 + 27, p10 + 28, p10 + 29, p10 + 30, p10 + 31, p10 + 32, p10 + 33, p10 + 34, p10 + 35, p10 + 36, p10 + 37, p10 + 38, p10 + 39, 8};
p11 = newp;
Point(p11 + 1) = {5.330088467345801, 0.6126082011665256, 1};
Point(p11 + 2) = {5.309259245730587, 0.6993681531715388, 1};
Point(p11 + 3) = {5.275114219718748, 0.7818015380569037, 1};
Point(p11 + 4) = {5.228494153171539, 0.8578785723060232, 1};
Point(p11 + 5) = {5.170546986850483, 0.9257259868504827, 1};
Point(p11 + 6) = {5.102699572306023, 0.9836731531715388, 1};
Point(p11 + 7) = {5.026622538056904, 1.030293219718748, 1};
Point(p11 + 8) = {4.944189153171539, 1.064438245730587, 1};
Point(p11 + 9) = {4.857429201166526, 1.085267467345801, 1};
Point(p11 + 10) = {4.768479, 1.092268, 1};
Point(p11 + 11) = {4.679528798833474, 1.085267467345801, 1};
Point(p11 + 12) = {4.592768846828461, 1.064438245730587, 1};
Point(p11 + 13) = {4.510335461943097, 1.030293219718748, 1};
Point(p11 + 14) = {4.434258427693977, 0.9836731531715388, 1};
Point(p11 + 15) = {4.366411013149517, 0.9257259868504828, 1};
Point(p11 + 16) = {4.308463846828461, 0.8578785723060232, 1};
Point(p11 + 17) = {4.261843780281252, 0.7818015380569037, 1};
Point(p11 + 18) = {4.227698754269413, 0.6993681531715388, 1};
Point(p11 + 19) = {4.206869532654199, 0.6126082011665257, 1};
Point(p11 + 20) = {4.199869000000001, 0.5236580000000001, 1};
Point(p11 + 21) = {4.206869532654199, 0.4347077988334744, 1};
Point(p11 + 22) = {4.227698754269413, 0.3479478468284609, 1};
Point(p11 + 23) = {4.261843780281252, 0.2655144619430966, 1};
Point(p11 + 24) = {4.308463846828461, 0.1894374276939769, 1};
Point(p11 + 25) = {4.366411013149517, 0.1215900131495172, 1};
Point(p11 + 26) = {4.434258427693977, 0.06364284682846116, 1};
Point(p11 + 27) = {4.510335461943097, 0.01702278028125215, 1};
Point(p11 + 28) = {4.592768846828461, -0.01712224573058729, 1};
Point(p11 + 29) = {4.679528798833474, -0.03795146734580124, 1};
Point(p11 + 30) = {4.768479, -0.04495199999999999, 1};
Point(p11 + 31) = {4.857429201166526, -0.03795146734580124, 1};
Point(p11 + 32) = {4.944189153171539, -0.01712224573058729, 1};
Point(p11 + 33) = {5.026622538056904, 0.01702278028125215, 1};
Point(p11 + 34) = {5.102699572306023, 0.06364284682846105, 1};
Point(p11 + 35) = {5.170546986850483, 0.1215900131495171, 1};
Point(p11 + 36) = {5.228494153171539, 0.1894374276939767, 1};
Point(p11 + 37) = {5.275114219718748, 0.2655144619430962, 1};
Point(p11 + 38) = {5.309259245730587, 0.347947846828461, 1};
Point(p11 + 39) = {5.330088467345801, 0.4347077988334742, 1};
Spline(11) = {9, p11 + 1, p11 + 2, p11 + 3, p11 + 4, p11 + 5, p11 + 6, p11 + 7, p11 + 8, p11 + 9, p11 + 10, p11 + 11, p11 + 12, p11 + 13, p11 + 14, p11 + 15, p11 + 16, p11 + 17, p11 + 18, p11 + 19, p11 + 20, p11 + 21, p11 + 22, p11 + 23, p11 + 24, p11 + 25, p11 + 26, p11 + 27, p11 + 28, p11 + 29, p11 + 30, p11 + 31, p11 + 32, p11 + 33, p11 + 34, p11 + 35, p11 + 36, p11 + 37, p11 + 38, p11 + 39, 9};
Line(12) = {4, 10};
Line(13) = {10, 7};
Line(14) = {5, 10};
p15 = newp;
Point(p15 + 1) = {29.68207445513743, -2.262638588319982, 0};
Point(p15 + 2) = {29.65584786389803, -2.153396973860262, 0};
Point(p15 + 3) = {29.61285501199919, -2.049603047720972, 0};
Point(p15 + 4) = {29.55415452613974, -1.953812560835952, 0};
Point(p15 + 5) = {29.48119180709729, -1.86838419290271, 0};
Point(p15 + 6) = {29.39576343916405, -1.795421473860262, 0};
Point(p15 + 7) = {29.29997295227903, -1.736720988000814, 0};
Point(p15 + 8) = {29.19617902613974, -1.693728136101968, 0};
Point(p15 + 9) = {29.08693741168002, -1.667501544862571, 0};
Point(p15 + 10) = {28.974938, -1.658687, 0};
Point(p15 + 11) = {28.86293858831998, -1.667501544862571, 0};
Point(p15 + 12) = {28.75369697386027, -1.693728136101968, 0};
Point(p15 + 13) = {28.64990304772097, -1.736720988000814, 0};
Point(p15 + 14) = {28.55411256083595, -1.795421473860262, 0};
Point(p15 + 15) = {28.46868419290271, -1.86838419290271, 0};
Point(p15 + 16) = {28.39572147386026, -1.953812560835952, 0};
Point(p15 + 17) = {28.33702098800082, -2.049603047720972, 0};
Point(p15 + 18) = {28.29402813610197, -2.153396973860262, 0};
Point(p15 + 19) = {28.26780154486257, -2.262638588319982, 0};
Point(p15 + 20) = {28.258987, -2.374638, 0};
Point(p15 + 21) = {28.26780154486257, -2.486637411680018, 0};
Point(p15 + 22) = {28.29402813610197, -2.595879026139738, 0};
Point(p15 + 23) = {28.33702098800082, -2.699672952279028, 0};
Point(p15 + 24) = {28.39572147386026, -2.795463439164048, 0};
Point(p15 + 25) = {28.46868419290271, -2.88089180709729, 0};
Point(p15 + 26) = {28.55411256083595, -2.953854526139738, 0};
Point(p15 + 27) = {28.64990304772097, -3.012555011999186, 0};
Point(p15 + 28) = {28.75369697386027, -3.055547863898032, 0};
Point(p15 + 29) = {28.86293858831998, -3.081774455137429, 0};
Point(p15 + 30) = {28.974938, -3.090589, 0};
Point(p15 + 31) = {29.08693741168002, -3.081774455137429, 0};
Point(p15 + 32) = {29.19617902613974, -3.055547863898032, 0};
Point(p15 + 33) = {29.29997295227903, -3.012555011999186, 0};
Point(p15 + 34) = {29.39576343916405, -2.953854526139738, 0};
Point(p15 + 35) = {29.48119180709729, -2.88089180709729, 0};
Point(p15 + 36) = {29.55415452613974, -2.795463439164048, 0};
Point(p15 + 37) = {29.61285501199919, -2.699672952279029, 0};
Point(p15 + 38) = {29.65584786389803, -2.595879026139738, 0};
Point(p15 + 39) = {29.68207445513743, -2.486637411680019, 0};
Spline(15) = {11, p15 + 1, p15 + 2, p15 + 3, p15 + 4, p15 + 5, p15 + 6, p15 + 7, p15 + 8, p15 + 9, p15 + 10, p15 + 11, p15 + 12, p15 + 13, p15 + 14, p15 + 15, p15 + 16, p15 + 17, p15 + 18, p15 + 19, p15 + 20, p15 + 21, p15 + 22, p15 + 23, p15 + 24, p15 + 25, p15 + 26, p15 + 27, p15 + 28, p15 + 29, p15 + 30, p15 + 31, p15 + 32, p15 + 33, p15 + 34, p15 + 35, p15 + 36, p15 + 37, p15 + 38, p15 + 39, 11};
p16 = newp;
Point(p16 + 1) = {5.330088467345801, 0.6126082011665256, 0};
Point(p16 + 2) = {5.309259245730587, 0.6993681531715388, 0};
Point(p16 + 3) = {5.275114219718748, 0.7818015380569037, 0};
Point(p16 + 4) = {5.228494153171539, 0.8578785723060232, 0};
Point(p16 + 5) = {5.170546986850483, 0.9257259868504827, 0};
Point(p16 + 6) = {5.102699572306023, 0.9836731531715388, 0};
Point(p16 + 7) = {5.026622538056904, 1.030293219718748, 0};
Point(p16 + 8) = {4.944189153171539, 1.064438245730587, 0};
Point(p16 + 9) = {4.857429201166526, 1.085267467345801, 0};
Point(p16 + 10) = {4.768479, 1.092268, 0};
Point(p16 + 11) = {4.679528798833474, 1.085267467345801, 0};
Point(p16 + 12) = {4.592768846828461, 1.064438245730587, 0};
Point(p16 + 13) = {4.510335461943097, 1.030293219718748, 0};
Point(p16 + 14) = {4.434258427693977, 0.9836731531715388, 0};
Point(p16 + 15) = {4.366411013149517, 0.9257259868504828, 0};
Point(p16 + 16) = {4.308463846828461, 0.8578785723060232, 0};
Point(p16 + 17) = {4.261843780281252, 0.7818015380569037, 0};
Point(p16 + 18) = {4.227698754269413, 0.6993681531715388, 0};
Point(p16 + 19) = {4.206869532654199, 0.6126082011665257, 0};
Point(p16 + 20) = {4.199869000000001, 0.5236580000000001, 0};
Point(p16 + 21) = {4.206869532654199, 0.4347077988334744, 0};
Point(p16 + 22) = {4.227698754269413, 0.3479478468284609, 0};
Point(p16 + 23) = {4.261843780281252, 0.2655144619430966, 0};
Point(p16 + 24) = {4.308463846828461, 0.1894374276939769, 0};
Point(p16 + 25) = {4.366411013149517, 0.1215900131495172, 0};
Point(p16 + 26) = {4.434258427693977, 0.06364284682846116, 0};
Point(p16 + 27) = {4.510335461943097, 0.01702278028125215, 0};
Point(p16 + 28) = {4.592768846828461, -0.01712224573058729, 0};
Point(p16 + 29) = {4.679528798833474, -0.03795146734580124, 0};
Point(p16 + 30) = {4.768479, -0.04495199999999999, 0};
Point(p16 + 31) = {4.857429201166526, -0.03795146734580124, 0};
Point(p16 + 32) = {4.944189153171539, -0.01712224573058729, 0};
Point(p16 + 33) = {5.026622538056904, 0.01702278028125215, 0};
Point(p16 + 34) = {5.102699572306023, 0.06364284682846105, 0};
Point(p16 + 35) = {5.170546986850483, 0.1215900131495171, 0};
Point(p16 + 36) = {5.228494153171539, 0.1894374276939767, 0};
Point(p16 + 37) = {5.275114219718748, 0.2655144619430962, 0};
Point(p16 + 38) = {5.309259245730587, 0.347947846828461, 0};
Point(p16 + 39) = {5.330088467345801, 0.4347077988334742, 0};
Spline(16) = {12, p16 + 1, p16 + 2, p16 + 3, p16 + 4, p16 + 5, p16 + 6, p16 + 7, p16 + 8, p16 + 9, p16 + 10, p16 + 11, p16 + 12, p16 + 13, p16 + 14, p16 + 15, p16 + 16, p16 + 17, p16 + 18, p16 + 19, p16 + 20, p16 + 21, p16 + 22, p16 + 23, p16 + 24, p16 + 25, p16 + 26, p16 + 27, p16 + 28, p16 + 29, p16 + 30, p16 + 31, p16 + 32, p16 + 33, p16 + 34, p16 + 35, p16 + 36, p16 + 37, p16 + 38, p16 + 39, 12};
Line(17) = {11, 8};
Line(18) = {12, 9};
Curve Loop(1) = {-1, 4, 3, -2};
Plane Surface(1) = {1};
Curve Loop(2) = {-5, 1, 7, -6};
Plane Surface(2) = {2};
Curve Loop(3) = {-2, 7, 9, -8, -10, -11};
Plane Surface(3) = {3};
Curve Loop(4) = {-12, 3, 8, -13};
Plane Surface(4) = {4};
Curve Loop(5) = {-4, 5, 14, -12, -15, -16};
Plane Surface(5) = {5};
Curve Loop(6) = {-6, 14, 13, -9};
Plane Surface(6) = {6};
Curve Loop(7) = {-10, -17, 15, 17};
Surface(7) = {7};
Curve Loop(8) = {-11, -18, 16, 18};
Surface(8) = {8};
Surface Loop(1) = {1, 2, 3, 4, 5, 6, 7, 8};
Volume(1) = {1};
Physical Surface("INFLOW") = {1};
Physical Surface("OUTFLOW") = {6};
Physical Surface("OBSTACLE") = {7, 8};
Physical Surface("WALL_Y") = {2, 4};
Physical Surface("WALL_Z") = {3, 5};
Physical Volume("FLUID") = {1};
