cl__1 = 3.464011;
cl__2 = 3.685153;
cl__3 = 0.360924;
cl__4 = 0.581395;
cl__5 = 0.119367;
cl__6 = 0.081452;
Point(1) = {0.091242, -4.239706, 1, cl__1};
Point(2) = {0.091242, -4.239706, 0, cl__1};
Point(3) = {0.091242, 4.935627999999999, 1, cl__2};
Point(4) = {0.091242, 4.935627999999999, 0, cl__2};
Point(5) = {33.333084, -4.239706, 0, cl__3};
Point(6) = {33.333084, -4.239706, 1, cl__3};
Point(7) = {33.333084, 4.935627999999999, 1, cl__4};
Point(8) = {29.784563, -1.561608, 1, cl__5};
Point(9) = {19.150933, -0.4144870000000002, 1, cl__6};
Point(10) = {33.333084, 4.935627999999999, 0, cl__4};
Point(11) = {29.784563, -1.561608, 0, cl__5};
Point(12) = {19.150933, -0.4144870000000002, 0, cl__6};
Line(1) = {2, 1};
Line(2) = {1, 3};
Line(3) = {4, 3};
Line(4) = {2, 4};
Line(5) = {2, 5};
Line(6) = {5, 6};
Line(7) = {1, 6};
Line(8) = {3, 7};
Line(9) = {6, 7};
p10 = newp;
Point(p10 + 1) = {29.76986689227156, -1.374876246377568, 1};
Point(p10 + 2) = {29.7261404360321, -1.192742448256479, 1};
Point(p10 + 3) = {29.65446032175403, -1.019691344213896, 1};
Point(p10 + 4) = {29.55659155174352, -0.8599840267550346, 1};
Point(p10 + 5) = {29.43494397992607, -0.7175530200739293, 1};
Point(p10 + 6) = {29.29251297324497, -0.5959054482564792, 1};
Point(p10 + 7) = {29.1328056557861, -0.4980366782459744, 1};
Point(p10 + 8) = {28.95975455174352, -0.426356563967899, 1};
Point(p10 + 9) = {28.77762075362243, -0.3826301077284398, 1};
Point(p10 + 10) = {28.590889, -0.3679340000000002, 1};
Point(p10 + 11) = {28.40415724637757, -0.3826301077284398, 1};
Point(p10 + 12) = {28.22202344825648, -0.426356563967899, 1};
Point(p10 + 13) = {28.0489723442139, -0.4980366782459744, 1};
Point(p10 + 14) = {27.88926502675503, -0.5959054482564792, 1};
Point(p10 + 15) = {27.74683402007393, -0.7175530200739292, 1};
Point(p10 + 16) = {27.62518644825648, -0.8599840267550345, 1};
Point(p10 + 17) = {27.52731767824597, -1.019691344213896, 1};
Point(p10 + 18) = {27.4556375639679, -1.192742448256479, 1};
Point(p10 + 19) = {27.41191110772844, -1.374876246377567, 1};
Point(p10 + 20) = {27.397215, -1.561608, 1};
Point(p10 + 21) = {27.41191110772844, -1.748339753622433, 1};
Point(p10 + 22) = {27.4556375639679, -1.930473551743521, 1};
Point(p10 + 23) = {27.52731767824597, -2.103524655786103, 1};
Point(p10 + 24) = {27.62518644825648, -2.263231973244966, 1};
Point(p10 + 25) = {27.74683402007393, -2.405662979926071, 1};
Point(p10 + 26) = {27.88926502675503, -2.527310551743521, 1};
Point(p10 + 27) = {28.0489723442139, -2.625179321754026, 1};
Point(p10 + 28) = {28.22202344825648, -2.696859436032101, 1};
Point(p10 + 29) = {28.40415724637757, -2.74058589227156, 1};
Point(p10 + 30) = {28.590889, -2.755282, 1};
Point(p10 + 31) = {28.77762075362243, -2.74058589227156, 1};
Point(p10 + 32) = {28.95975455174352, -2.696859436032101, 1};
Point(p10 + 33) = {29.1328056557861, -2.625179321754026, 1};
Point(p10 + 34) = {29.29251297324497, -2.527310551743521, 1};
Point(p10 + 35) = {29.43494397992607, -2.405662979926071, 1};
Point(p10 + 36) = {29.55659155174352, -2.263231973244966, 1};
Point(p10 + 37) = {29.65446032175403, -2.103524655786104, 1};
Point(p10 + 38) = {29.7261404360321, -1.930473551743521, 1};
Point(p10 + 39) = {29.76986689227156, -1.748339753622433, 1};
Spline(10) = {8, p10 + 1, p10 + 2, p10 + 3, p10 + 4, p10 + 5, p10 + 6, p10 + 7, p10 + 8, p10 + 9, p10 + 10, p10 + 11, p10 + 12, p10 + 13, p10 + 14, p10 + 15, p10 + 16, p10 + 17, p10 + 18, p10 + 19, p10 + 20, p10 + 21, p10 + 22, p10 + 23, p10 + 24, p10 + 25, p10 + 26, p10 + 27, p10 + 28, p10 + 29, p10 + 30, p10 + 31, p10 + 32, p10 + 33, p10 + 34, p10 + 35, p10 + 36, p10 + 37, p10 + 38, p10 + 39, 8};
p11 = newp;
Point(p11 + 1) = {19.14090494411653, -0.2870684688388263, 1};
Point(p11 + 2) = {19.11106770048318, -0.1627874047927009, 1};
Point(p11 + 3) = {19.06215596106234, -0.04470402012364355, 1};
Point(p11 + 4) = {18.9953740952073, 0.06427408034150839, 1};
Point(p11 + 5) = {18.91236649409172, 0.1614634940917232, 1};
Point(p11 + 6) = {18.81517708034151, 0.2444710952072991, 1};
Point(p11 + 7) = {18.70619897987635, 0.3112529610623369, 1};
Point(p11 + 8) = {18.5881155952073, 0.3601647004831797, 1};
Point(p11 + 9) = {18.46383453116117, 0.3900019441165298, 1};
Point(p11 + 10) = {18.336416, 0.4000300000000001, 1};
Point(p11 + 11) = {18.20899746883883, 0.3900019441165298, 1};
Point(p11 + 12) = {18.0847164047927, 0.3601647004831797, 1};
Point(p11 + 13) = {17.96663302012364, 0.3112529610623369, 1};
Point(p11 + 14) = {17.85765491965849, 0.2444710952072991, 1};
Point(p11 + 15) = {17.76046550590828, 0.1614634940917232, 1};
Point(p11 + 16) = {17.6774579047927, 0.06427408034150844, 1};
Point(p11 + 17) = {17.61067603893766, -0.0447040201236435, 1};
Point(p11 + 18) = {17.56176429951682, -0.1627874047927009, 1};
Point(p11 + 19) = {17.53192705588347, -0.2870684688388262, 1};
Point(p11 + 20) = {17.521899, -0.4144869999999999, 1};
Point(p11 + 21) = {17.53192705588347, -0.5419055311611736, 1};
Point(p11 + 22) = {17.56176429951682, -0.6661865952072993, 1};
Point(p11 + 23) = {17.61067603893766, -0.7842699798763559, 1};
Point(p11 + 24) = {17.6774579047927, -0.8932480803415083, 1};
Point(p11 + 25) = {17.76046550590828, -0.9904374940917231, 1};
Point(p11 + 26) = {17.85765491965849, -1.073445095207299, 1};
Point(p11 + 27) = {17.96663302012364, -1.140226961062337, 1};
Point(p11 + 28) = {18.0847164047927, -1.18913870048318, 1};
Point(p11 + 29) = {18.20899746883883, -1.21897594411653, 1};
Point(p11 + 30) = {18.336416, -1.229004, 1};
Point(p11 + 31) = {18.46383453116117, -1.21897594411653, 1};
Point(p11 + 32) = {18.5881155952073, -1.18913870048318, 1};
Point(p11 + 33) = {18.70619897987635, -1.140226961062337, 1};
Point(p11 + 34) = {18.81517708034151, -1.073445095207299, 1};
Point(p11 + 35) = {18.91236649409172, -0.9904374940917233, 1};
Point(p11 + 36) = {18.9953740952073, -0.8932480803415086, 1};
Point(p11 + 37) = {19.06215596106234, -0.7842699798763566, 1};
Point(p11 + 38) = {19.11106770048318, -0.6661865952072992, 1};
Point(p11 + 39) = {19.14090494411653, -0.5419055311611739, 1};
Spline(11) = {9, p11 + 1, p11 + 2, p11 + 3, p11 + 4, p11 + 5, p11 + 6, p11 + 7, p11 + 8, p11 + 9, p11 + 10, p11 + 11, p11 + 12, p11 + 13, p11 + 14, p11 + 15, p11 + 16, p11 + 17, p11 + 18, p11 + 19, p11 + 20, p11 + 21, p11 + 22, p11 + 23, p11 + 24, p11 + 25, p11 + 26, p11 + 27, p11 + 28, p11 + 29, p11 + 30, p11 + 31, p11 + 32, p11 + 33, p11 + 34, p11 + 35, p11 + 36, p11 + 37, p11 + 38, p11 + 39, 9};
Line(12) = {4, 10};
Line(13) = {10, 7};
Line(14) = {5, 10};
p15 = newp;
Point(p15 + 1) = {29.76986689227156, -1.374876246377568, 0};
Point(p15 + 2) = {29.7261404360321, -1.192742448256479, 0};
Point(p15 + 3) = {29.65446032175403, -1.019691344213896, 0};
Point(p15 + 4) = {29.55659155174352, -0.8599840267550346, 0};
Point(p15 + 5) = {29.43494397992607, -0.7175530200739293, 0};
Point(p15 + 6) = {29.29251297324497, -0.5959054482564792, 0};
Point(p15 + 7) = {29.1328056557861, -0.4980366782459744, 0};
Point(p15 + 8) = {28.95975455174352, -0.426356563967899, 0};
Point(p15 + 9) = {28.77762075362243, -0.3826301077284398, 0};
Point(p15 + 10) = {28.590889, -0.3679340000000002, 0};
Point(p15 + 11) = {28.40415724637757, -0.3826301077284398, 0};
Point(p15 + 12) = {28.22202344825648, -0.426356563967899, 0};
Point(p15 + 13) = {28.0489723442139, -0.4980366782459744, 0};
Point(p15 + 14) = {27.88926502675503, -0.5959054482564792, 0};
Point(p15 + 15) = {27.74683402007393, -0.7175530200739292, 0};
Point(p15 + 16) = {27.62518644825648, -0.8599840267550345, 0};
Point(p15 + 17) = {27.52731767824597, -1.019691344213896, 0};
Point(p15 + 18) = {27.4556375639679, -1.192742448256479, 0};
Point(p15 + 19) = {27.41191110772844, -1.374876246377567, 0};
Point(p15 + 20) = {27.397215, -1.561608, 0};
Point(p15 + 21) = {27.41191110772844, -1.748339753622433, 0};
Point(p15 + 22) = {27.4556375639679, -1.930473551743521, 0};
Point(p15 + 23) = {27.52731767824597, -2.103524655786103, 0};
Point(p15 + 24) = {27.62518644825648, -2.263231973244966, 0};
Point(p15 + 25) = {27.74683402007393, -2.405662979926071, 0};
Point(p15 + 26) = {27.88926502675503, -2.527310551743521, 0};
Point(p15 + 27) = {28.0489723442139, -2.625179321754026, 0};
Point(p15 + 28) = {28.22202344825648, -2.696859436032101, 0};
Point(p15 + 29) = {28.40415724637757, -2.74058589227156, 0};
Point(p15 + 30) = {28.590889, -2.755282, 0};
Point(p15 + 31) = {28.77762075362243, -2.74058589227156, 0};
Point(p15 + 32) = {28.95975455174352, -2.696859436032101, 0};
Point(p15 + 33) = {29.1328056557861, -2.625179321754026, 0};
Point(p15 + 34) = {29.29251297324497, -2.527310551743521, 0};
Point(p15 + 35) = {29.43494397992607, -2.405662979926071, 0};
Point(p15 + 36) = {29.55659155174352, -2.263231973244966, 0};
Point(p15 + 37) = {29.65446032175403, -2.103524655786104, 0};
Point(p15 + 38) = {29.7261404360321, -1.930473551743521, 0};
Point(p15 + 39) = {29.76986689227156, -1.748339753622433, 0};
Spline(15) = {11, p15 + 1, p15 + 2, p15 + 3, p15 + 4, p15 + 5, p15 + 6, p15 + 7, p15 + 8, p15 + 9, p15 + 10, p15 + 11, p15 + 12, p15 + 13, p15 + 14, p15 + 15, p15 + 16, p15 + 17, p15 + 18, p15 + 19, p15 + 20, p15 + 21, p15 + 22, p15 + 23, p15 + 24, p15 + 25, p15 + 26, p15 + 27, p15 + 28, p15 + 29, p15 + 30, p15 + 31, p15 + 32, p15 + 33, p15 + 34, p15 + 35, p15 + 36, p15 + 37, p15 + 38, p15 + 39, 11};
p16 = newp;
Point(p16 + 1) = {19.14090494411653, -0.2870684688388263, 0};
Point(p16 + 2) = {19.11106770048318, -0.1627874047927009, 0};
Point(p16 + 3) = {19.06215596106234, -0.04470402012364355, 0};
Point(p16 + 4) = {18.9953740952073, 0.06427408034150839, 0};
Point(p16 + 5) = {18.91236649409172, 0.1614634940917232, 0};
Point(p16 + 6) = {18.81517708034151, 0.2444710952072991, 0};
Point(p16 + 7) = {18.70619897987635, 0.3112529610623369, 0};
Point(p16 + 8) = {18.5881155952073, 0.3601647004831797, 0};
Point(p16 + 9) = {18.46383453116117, 0.3900019441165298, 0};
Point(p16 + 10) = {18.336416, 0.4000300000000001, 0};
Point(p16 + 11) = {18.20899746883883, 0.3900019441165298, 0};
Point(p16 + 12) = {18.0847164047927, 0.3601647004831797, 0};
Point(p16 + 13) = {17.96663302012364, 0.3112529610623369, 0};
Point(p16 + 14) = {17.85765491965849, 0.2444710952072991, 0};
Point(p16 + 15) = {17.76046550590828, 0.1614634940917232, 0};
Point(p16 + 16) = {17.6774579047927, 0.06427408034150844, 0};
Point(p16 + 17) = {17.61067603893766, -0.0447040201236435, 0};
Point(p16 + 18) = {17.56176429951682, -0.1627874047927009, 0};
Point(p16 + 19) = {17.53192705588347, -0.2870684688388262, 0};
Point(p16 + 20) = {17.521899, -0.4144869999999999, 0};
Point(p16 + 21) = {17.53192705588347, -0.5419055311611736, 0};
Point(p16 + 22) = {17.56176429951682, -0.6661865952072993, 0};
Point(p16 + 23) = {17.61067603893766, -0.7842699798763559, 0};
Point(p16 + 24) = {17.6774579047927, -0.8932480803415083, 0};
Point(p16 + 25) = {17.76046550590828, -0.9904374940917231, 0};
Point(p16 + 26) = {17.85765491965849, -1.073445095207299, 0};
Point(p16 + 27) = {17.96663302012364, -1.140226961062337, 0};
Point(p16 + 28) = {18.0847164047927, -1.18913870048318, 0};
Point(p16 + 29) = {18.20899746883883, -1.21897594411653, 0};
Point(p16 + 30) = {18.336416, -1.229004, 0};
Point(p16 + 31) = {18.46383453116117, -1.21897594411653, 0};
Point(p16 + 32) = {18.5881155952073, -1.18913870048318, 0};
Point(p16 + 33) = {18.70619897987635, -1.140226961062337, 0};
Point(p16 + 34) = {18.81517708034151, -1.073445095207299, 0};
Point(p16 + 35) = {18.91236649409172, -0.9904374940917233, 0};
Point(p16 + 36) = {18.9953740952073, -0.8932480803415086, 0};
Point(p16 + 37) = {19.06215596106234, -0.7842699798763566, 0};
Point(p16 + 38) = {19.11106770048318, -0.6661865952072992, 0};
Point(p16 + 39) = {19.14090494411653, -0.5419055311611739, 0};
Spline(16) = {12, p16 + 1, p16 + 2, p16 + 3, p16 + 4, p16 + 5, p16 + 6, p16 + 7, p16 + 8, p16 + 9, p16 + 10, p16 + 11, p16 + 12, p16 + 13, p16 + 14, p16 + 15, p16 + 16, p16 + 17, p16 + 18, p16 + 19, p16 + 20, p16 + 21, p16 + 22, p16 + 23, p16 + 24, p16 + 25, p16 + 26, p16 + 27, p16 + 28, p16 + 29, p16 + 30, p16 + 31, p16 + 32, p16 + 33, p16 + 34, p16 + 35, p16 + 36, p16 + 37, p16 + 38, p16 + 39, 12};
Line(17) = {11, 8};
Line(18) = {12, 9};
Curve Loop(1) = {-1, 4, 3, -2};
Plane Surface(1) = {1};
Curve Loop(2) = {-5, 1, 7, -6};
Plane Surface(2) = {2};
Curve Loop(3) = {-2, 7, 9, -8, -10, -11};
Plane Surface(3) = {3};
Curve Loop(4) = {-12, 3, 8, -13};
Plane Surface(4) = {4};
Curve Loop(5) = {-4, 5, 14, -12, -15, -16};
Plane Surface(5) = {5};
Curve Loop(6) = {-6, 14, 13, -9};
Plane Surface(6) = {6};
Curve Loop(7) = {-10, -17, 15, 17};
Surface(7) = {7};
Curve Loop(8) = {-11, -18, 16, 18};
Surface(8) = {8};
Surface Loop(1) = {1, 2, 3, 4, 5, 6, 7, 8};
Volume(1) = {1};
Physical Surface("INFLOW") = {1};
Physical Surface("OUTFLOW") = {6};
Physical Surface("OBSTACLE") = {7, 8};
Physical Surface("WALL_Y") = {2, 4};
Physical Surface("WALL_Z") = {3, 5};
Physical Volume("FLUID") = {1};
