cl__1 = 0.5226420000000001;
cl__2 = 0.288364;
cl__3 = 0.841217;
cl__4 = 0.795044;
cl__5 = 0.078861;
cl__6 = 0.119973;
Point(1) = {0.826631, -4.063105, 1, cl__1};
Point(2) = {0.826631, -4.063105, 0, cl__1};
Point(3) = {0.826631, 4.205925000000001, 1, cl__2};
Point(4) = {0.826631, 4.205925000000001, 0, cl__2};
Point(5) = {31.659228, -4.063105, 0, cl__3};
Point(6) = {31.659228, -4.063105, 1, cl__3};
Point(7) = {31.659228, 4.205925000000001, 1, cl__4};
Point(8) = {24.500034, 0.5722749999999998, 1, cl__5};
Point(9) = {5.136675, 1.560184, 1, cl__6};
Point(10) = {31.659228, 4.205925000000001, 0, cl__4};
Point(11) = {24.500034, 0.5722749999999998, 0, cl__5};
Point(12) = {5.136675, 1.560184, 0, cl__6};
Line(1) = {2, 1};
Line(2) = {1, 3};
Line(3) = {4, 3};
Line(4) = {2, 4};
Line(5) = {2, 5};
Line(6) = {5, 6};
Line(7) = {1, 6};
Line(8) = {3, 7};
Line(9) = {6, 7};
p10 = newp;
Point(p10 + 1) = {24.49032488996507, 0.6956409399098414, 1};
Point(p10 + 2) = {24.46143663037204, 0.8159692009510215, 1};
Point(p10 + 3) = {24.41408054604671, 0.9302969019901037, 1};
Point(p10 + 4) = {24.34942270095102, 1.03580891559562, 1};
Point(p10 + 5) = {24.2690551858183, 1.129907185818304, 1};
Point(p10 + 6) = {24.17495691559562, 1.210274700951022, 1};
Point(p10 + 7) = {24.0694449019901, 1.274932546046713, 1};
Point(p10 + 8) = {23.95511720095102, 1.322288630372037, 1};
Point(p10 + 9) = {23.83478893990984, 1.351176889965072, 1};
Point(p10 + 10) = {23.711423, 1.360886, 1};
Point(p10 + 11) = {23.58805706009016, 1.351176889965072, 1};
Point(p10 + 12) = {23.46772879904898, 1.322288630372037, 1};
Point(p10 + 13) = {23.3534010980099, 1.274932546046713, 1};
Point(p10 + 14) = {23.24788908440438, 1.210274700951022, 1};
Point(p10 + 15) = {23.1537908141817, 1.129907185818305, 1};
Point(p10 + 16) = {23.07342329904898, 1.03580891559562, 1};
Point(p10 + 17) = {23.00876545395329, 0.9302969019901037, 1};
Point(p10 + 18) = {22.96140936962796, 0.8159692009510217, 1};
Point(p10 + 19) = {22.93252111003493, 0.6956409399098415, 1};
Point(p10 + 20) = {22.922812, 0.5722750000000001, 1};
Point(p10 + 21) = {22.93252111003493, 0.4489090600901586, 1};
Point(p10 + 22) = {22.96140936962796, 0.3285807990489781, 1};
Point(p10 + 23) = {23.00876545395329, 0.2142530980098967, 1};
Point(p10 + 24) = {23.07342329904898, 0.1087410844043806, 1};
Point(p10 + 25) = {23.1537908141817, 0.01464281418169566, 1};
Point(p10 + 26) = {23.24788908440438, -0.06572470095102156, 1};
Point(p10 + 27) = {23.3534010980099, -0.1303825460467128, 1};
Point(p10 + 28) = {23.46772879904898, -0.1777386303720373, 1};
Point(p10 + 29) = {23.58805706009016, -0.2066268899650721, 1};
Point(p10 + 30) = {23.711423, -0.216336, 1};
Point(p10 + 31) = {23.83478893990984, -0.2066268899650722, 1};
Point(p10 + 32) = {23.95511720095102, -0.1777386303720374, 1};
Point(p10 + 33) = {24.0694449019901, -0.130382546046713, 1};
Point(p10 + 34) = {24.17495691559562, -0.06572470095102179, 1};
Point(p10 + 35) = {24.2690551858183, 0.01464281418169544, 1};
Point(p10 + 36) = {24.34942270095102, 0.1087410844043803, 1};
Point(p10 + 37) = {24.41408054604671, 0.2142530980098961, 1};
Point(p10 + 38) = {24.46143663037204, 0.3285807990489782, 1};
Point(p10 + 39) = {24.49032488996507, 0.4489090600901583, 1};
Spline(10) = {8, p10 + 1, p10 + 2, p10 + 3, p10 + 4, p10 + 5, p10 + 6, p10 + 7, p10 + 8, p10 + 9, p10 + 10, p10 + 11, p10 + 12, p10 + 13, p10 + 14, p10 + 15, p10 + 16, p10 + 17, p10 + 18, p10 + 19, p10 + 20, p10 + 21, p10 + 22, p10 + 23, p10 + 24, p10 + 25, p10 + 26, p10 + 27, p10 + 28, p10 + 29, p10 + 30, p10 + 31, p10 + 32, p10 + 33, p10 + 34, p10 + 35, p10 + 36, p10 + 37, p10 + 38, p10 + 39, 8};
p11 = newp;
Point(p11 + 1) = {5.121904283615567, 1.747863746480576, 1};
Point(p11 + 2) = {5.07795583852085, 1.930922194729433, 1};
Point(p11 + 3) = {5.005911821290607, 2.104851838214525, 1};
Point(p11 + 4) = {4.907546194729433, 2.265369951873858, 1};
Point(p11 + 5) = {4.785281047020062, 2.408524047020062, 1};
Point(p11 + 6) = {4.642126951873858, 2.530789194729433, 1};
Point(p11 + 7) = {4.481608838214526, 2.629154821290607, 1};
Point(p11 + 8) = {4.307679194729433, 2.70119883852085, 1};
Point(p11 + 9) = {4.124620746480576, 2.745147283615567, 1};
Point(p11 + 10) = {3.936941, 2.759918, 1};
Point(p11 + 11) = {3.749261253519423, 2.745147283615567, 1};
Point(p11 + 12) = {3.566202805270567, 2.70119883852085, 1};
Point(p11 + 13) = {3.392273161785475, 2.629154821290608, 1};
Point(p11 + 14) = {3.231755048126142, 2.530789194729433, 1};
Point(p11 + 15) = {3.088600952979939, 2.408524047020062, 1};
Point(p11 + 16) = {2.966335805270567, 2.265369951873858, 1};
Point(p11 + 17) = {2.867970178709393, 2.104851838214525, 1};
Point(p11 + 18) = {2.79592616147915, 1.930922194729433, 1};
Point(p11 + 19) = {2.751977716384433, 1.747863746480576, 1};
Point(p11 + 20) = {2.737207, 1.560184, 1};
Point(p11 + 21) = {2.751977716384433, 1.372504253519424, 1};
Point(p11 + 22) = {2.79592616147915, 1.189445805270566, 1};
Point(p11 + 23) = {2.867970178709392, 1.015516161785475, 1};
Point(p11 + 24) = {2.966335805270567, 0.8549980481261421, 1};
Point(p11 + 25) = {3.088600952979939, 0.7118439529799386, 1};
Point(p11 + 26) = {3.231755048126142, 0.5895788052705668, 1};
Point(p11 + 27) = {3.392273161785474, 0.4912131787093927, 1};
Point(p11 + 28) = {3.566202805270567, 0.4191691614791502, 1};
Point(p11 + 29) = {3.749261253519423, 0.375220716384433, 1};
Point(p11 + 30) = {3.936941, 0.3604499999999999, 1};
Point(p11 + 31) = {4.124620746480576, 0.375220716384433, 1};
Point(p11 + 32) = {4.307679194729433, 0.4191691614791502, 1};
Point(p11 + 33) = {4.481608838214525, 0.4912131787093925, 1};
Point(p11 + 34) = {4.642126951873858, 0.5895788052705666, 1};
Point(p11 + 35) = {4.785281047020061, 0.7118439529799384, 1};
Point(p11 + 36) = {4.907546194729433, 0.8549980481261418, 1};
Point(p11 + 37) = {5.005911821290607, 1.015516161785474, 1};
Point(p11 + 38) = {5.07795583852085, 1.189445805270567, 1};
Point(p11 + 39) = {5.121904283615567, 1.372504253519423, 1};
Spline(11) = {9, p11 + 1, p11 + 2, p11 + 3, p11 + 4, p11 + 5, p11 + 6, p11 + 7, p11 + 8, p11 + 9, p11 + 10, p11 + 11, p11 + 12, p11 + 13, p11 + 14, p11 + 15, p11 + 16, p11 + 17, p11 + 18, p11 + 19, p11 + 20, p11 + 21, p11 + 22, p11 + 23, p11 + 24, p11 + 25, p11 + 26, p11 + 27, p11 + 28, p11 + 29, p11 + 30, p11 + 31, p11 + 32, p11 + 33, p11 + 34, p11 + 35, p11 + 36, p11 + 37, p11 + 38, p11 + 39, 9};
Line(12) = {4, 10};
Line(13) = {10, 7};
Line(14) = {5, 10};
p15 = newp;
Point(p15 + 1) = {24.49032488996507, 0.6956409399098414, 0};
Point(p15 + 2) = {24.46143663037204, 0.8159692009510215, 0};
Point(p15 + 3) = {24.41408054604671, 0.9302969019901037, 0};
Point(p15 + 4) = {24.34942270095102, 1.03580891559562, 0};
Point(p15 + 5) = {24.2690551858183, 1.129907185818304, 0};
Point(p15 + 6) = {24.17495691559562, 1.210274700951022, 0};
Point(p15 + 7) = {24.0694449019901, 1.274932546046713, 0};
Point(p15 + 8) = {23.95511720095102, 1.322288630372037, 0};
Point(p15 + 9) = {23.83478893990984, 1.351176889965072, 0};
Point(p15 + 10) = {23.711423, 1.360886, 0};
Point(p15 + 11) = {23.58805706009016, 1.351176889965072, 0};
Point(p15 + 12) = {23.46772879904898, 1.322288630372037, 0};
Point(p15 + 13) = {23.3534010980099, 1.274932546046713, 0};
Point(p15 + 14) = {23.24788908440438, 1.210274700951022, 0};
Point(p15 + 15) = {23.1537908141817, 1.129907185818305, 0};
Point(p15 + 16) = {23.07342329904898, 1.03580891559562, 0};
Point(p15 + 17) = {23.00876545395329, 0.9302969019901037, 0};
Point(p15 + 18) = {22.96140936962796, 0.8159692009510217, 0};
Point(p15 + 19) = {22.93252111003493, 0.6956409399098415, 0};
Point(p15 + 20) = {22.922812, 0.5722750000000001, 0};
Point(p15 + 21) = {22.93252111003493, 0.4489090600901586, 0};
Point(p15 + 22) = {22.96140936962796, 0.3285807990489781, 0};
Point(p15 + 23) = {23.00876545395329, 0.2142530980098967, 0};
Point(p15 + 24) = {23.07342329904898, 0.1087410844043806, 0};
Point(p15 + 25) = {23.1537908141817, 0.01464281418169566, 0};
Point(p15 + 26) = {23.24788908440438, -0.06572470095102156, 0};
Point(p15 + 27) = {23.3534010980099, -0.1303825460467128, 0};
Point(p15 + 28) = {23.46772879904898, -0.1777386303720373, 0};
Point(p15 + 29) = {23.58805706009016, -0.2066268899650721, 0};
Point(p15 + 30) = {23.711423, -0.216336, 0};
Point(p15 + 31) = {23.83478893990984, -0.2066268899650722, 0};
Point(p15 + 32) = {23.95511720095102, -0.1777386303720374, 0};
Point(p15 + 33) = {24.0694449019901, -0.130382546046713, 0};
Point(p15 + 34) = {24.17495691559562, -0.06572470095102179, 0};
Point(p15 + 35) = {24.2690551858183, 0.01464281418169544, 0};
Point(p15 + 36) = {24.34942270095102, 0.1087410844043803, 0};
Point(p15 + 37) = {24.41408054604671, 0.2142530980098961, 0};
Point(p15 + 38) = {24.46143663037204, 0.3285807990489782, 0};
Point(p15 + 39) = {24.49032488996507, 0.4489090600901583, 0};
Spline(15) = {11, p15 + 1, p15 + 2, p15 + 3, p15 + 4, p15 + 5, p15 + 6, p15 + 7, p15 + 8, p15 + 9, p15 + 10, p15 + 11, p15 + 12, p15 + 13, p15 + 14, p15 + 15, p15 + 16, p15 + 17, p15 + 18, p15 + 19, p15 + 20, p15 + 21, p15 + 22, p15 + 23, p15 + 24, p15 + 25, p15 + 26, p15 + 27, p15 + 28, p15 + 29, p15 + 30, p15 + 31, p15 + 32, p15 + 33, p15 + 34, p15 + 35, p15 + 36, p15 + 37, p15 + 38, p15 + 39, 11};
p16 = newp;
Point(p16 + 1) = {5.121904283615567, 1.747863746480576, 0};
Point(p16 + 2) = {5.07795583852085, 1.930922194729433, 0};
Point(p16 + 3) = {5.005911821290607, 2.104851838214525, 0};
Point(p16 + 4) = {4.907546194729433, 2.265369951873858, 0};
Point(p16 + 5) = {4.785281047020062, 2.408524047020062, 0};
Point(p16 + 6) = {4.642126951873858, 2.530789194729433, 0};
Point(p16 + 7) = {4.481608838214526, 2.629154821290607, 0};
Point(p16 + 8) = {4.307679194729433, 2.70119883852085, 0};
Point(p16 + 9) = {4.124620746480576, 2.745147283615567, 0};
Point(p16 + 10) = {3.936941, 2.759918, 0};
Point(p16 + 11) = {3.749261253519423, 2.745147283615567, 0};
Point(p16 + 12) = {3.566202805270567, 2.70119883852085, 0};
Point(p16 + 13) = {3.392273161785475, 2.629154821290608, 0};
Point(p16 + 14) = {3.231755048126142, 2.530789194729433, 0};
Point(p16 + 15) = {3.088600952979939, 2.408524047020062, 0};
Point(p16 + 16) = {2.966335805270567, 2.265369951873858, 0};
Point(p16 + 17) = {2.867970178709393, 2.104851838214525, 0};
Point(p16 + 18) = {2.79592616147915, 1.930922194729433, 0};
Point(p16 + 19) = {2.751977716384433, 1.747863746480576, 0};
Point(p16 + 20) = {2.737207, 1.560184, 0};
Point(p16 + 21) = {2.751977716384433, 1.372504253519424, 0};
Point(p16 + 22) = {2.79592616147915, 1.189445805270566, 0};
Point(p16 + 23) = {2.867970178709392, 1.015516161785475, 0};
Point(p16 + 24) = {2.966335805270567, 0.8549980481261421, 0};
Point(p16 + 25) = {3.088600952979939, 0.7118439529799386, 0};
Point(p16 + 26) = {3.231755048126142, 0.5895788052705668, 0};
Point(p16 + 27) = {3.392273161785474, 0.4912131787093927, 0};
Point(p16 + 28) = {3.566202805270567, 0.4191691614791502, 0};
Point(p16 + 29) = {3.749261253519423, 0.375220716384433, 0};
Point(p16 + 30) = {3.936941, 0.3604499999999999, 0};
Point(p16 + 31) = {4.124620746480576, 0.375220716384433, 0};
Point(p16 + 32) = {4.307679194729433, 0.4191691614791502, 0};
Point(p16 + 33) = {4.481608838214525, 0.4912131787093925, 0};
Point(p16 + 34) = {4.642126951873858, 0.5895788052705666, 0};
Point(p16 + 35) = {4.785281047020061, 0.7118439529799384, 0};
Point(p16 + 36) = {4.907546194729433, 0.8549980481261418, 0};
Point(p16 + 37) = {5.005911821290607, 1.015516161785474, 0};
Point(p16 + 38) = {5.07795583852085, 1.189445805270567, 0};
Point(p16 + 39) = {5.121904283615567, 1.372504253519423, 0};
Spline(16) = {12, p16 + 1, p16 + 2, p16 + 3, p16 + 4, p16 + 5, p16 + 6, p16 + 7, p16 + 8, p16 + 9, p16 + 10, p16 + 11, p16 + 12, p16 + 13, p16 + 14, p16 + 15, p16 + 16, p16 + 17, p16 + 18, p16 + 19, p16 + 20, p16 + 21, p16 + 22, p16 + 23, p16 + 24, p16 + 25, p16 + 26, p16 + 27, p16 + 28, p16 + 29, p16 + 30, p16 + 31, p16 + 32, p16 + 33, p16 + 34, p16 + 35, p16 + 36, p16 + 37, p16 + 38, p16 + 39, 12};
Line(17) = {11, 8};
Line(18) = {12, 9};
Curve Loop(1) = {-1, 4, 3, -2};
Plane Surface(1) = {1};
Curve Loop(2) = {-5, 1, 7, -6};
Plane Surface(2) = {2};
Curve Loop(3) = {-2, 7, 9, -8, -10, -11};
Plane Surface(3) = {3};
Curve Loop(4) = {-12, 3, 8, -13};
Plane Surface(4) = {4};
Curve Loop(5) = {-4, 5, 14, -12, -15, -16};
Plane Surface(5) = {5};
Curve Loop(6) = {-6, 14, 13, -9};
Plane Surface(6) = {6};
Curve Loop(7) = {-10, -17, 15, 17};
Surface(7) = {7};
Curve Loop(8) = {-11, -18, 16, 18};
Surface(8) = {8};
Surface Loop(1) = {1, 2, 3, 4, 5, 6, 7, 8};
Volume(1) = {1};
Physical Surface("INFLOW") = {1};
Physical Surface("OUTFLOW") = {6};
Physical Surface("OBSTACLE") = {7, 8};
Physical Surface("WALL_Y") = {2, 4};
Physical Surface("WALL_Z") = {3, 5};
Physical Volume("FLUID") = {1};
