cl__1 = 4.40309;
cl__2 = 3.962686;
cl__3 = 0.344632;
cl__4 = 0.433892;
cl__5 = 0.113818;
cl__6 = 0.085953;
Point(1) = {0.073965, -3.260306, 1, cl__1};
Point(2) = {0.073965, -3.260306, 0, cl__1};
Point(3) = {0.073965, 5.241707, 1, cl__2};
Point(4) = {0.073965, 5.241707, 0, cl__2};
Point(5) = {34.792347, -3.260306, 0, cl__3};
Point(6) = {34.792347, -3.260306, 1, cl__3};
Point(7) = {34.792347, 5.241707, 1, cl__4};
Point(8) = {32.294779, 0.3137749999999997, 1, cl__5};
Point(9) = {19.774222, 2.471712999999999, 1, cl__6};
Point(10) = {34.792347, 5.241707, 0, cl__4};
Point(11) = {32.294779, 0.3137749999999997, 0, cl__5};
Point(12) = {19.774222, 2.471712999999999, 0, cl__6};
Line(1) = {2, 1};
Line(2) = {1, 3};
Line(3) = {4, 3};
Line(4) = {2, 4};
Line(5) = {2, 5};
Line(6) = {5, 6};
Line(7) = {1, 6};
Line(8) = {3, 7};
Line(9) = {6, 7};
p10 = newp;
Point(p10 + 1) = {32.28076611549857, 0.49182557941949, 1};
Point(p10 + 2) = {32.23907250571682, 0.6654919626576776, 1};
Point(p10 + 3) = {32.17072480570071, 0.8304979069935573, 1};
Point(p10 + 4) = {32.07740596265768, 0.9827804184542471, 1};
Point(p10 + 5) = {31.96141379621091, 1.118589796210905, 1};
Point(p10 + 6) = {31.82560441845425, 1.234581962657678, 1};
Point(p10 + 7) = {31.67332190699356, 1.327900805700716, 1};
Point(p10 + 8) = {31.50831596265768, 1.396248505716818, 1};
Point(p10 + 9) = {31.33464957941949, 1.437942115498574, 1};
Point(p10 + 10) = {31.156599, 1.451955, 1};
Point(p10 + 11) = {30.97854842058051, 1.437942115498574, 1};
Point(p10 + 12) = {30.80488203734232, 1.396248505716818, 1};
Point(p10 + 13) = {30.63987609300644, 1.327900805700716, 1};
Point(p10 + 14) = {30.48759358154575, 1.234581962657678, 1};
Point(p10 + 15) = {30.35178420378909, 1.118589796210905, 1};
Point(p10 + 16) = {30.23579203734232, 0.9827804184542472, 1};
Point(p10 + 17) = {30.14247319429928, 0.8304979069935574, 1};
Point(p10 + 18) = {30.07412549428318, 0.6654919626576778, 1};
Point(p10 + 19) = {30.03243188450143, 0.4918255794194901, 1};
Point(p10 + 20) = {30.018419, 0.3137750000000002, 1};
Point(p10 + 21) = {30.03243188450143, 0.1357244205805102, 1};
Point(p10 + 22) = {30.07412549428318, -0.03794196265767796, 1};
Point(p10 + 23) = {30.14247319429928, -0.2029479069935567, 1};
Point(p10 + 24) = {30.23579203734232, -0.3552304184542469, 1};
Point(p10 + 25) = {30.35178420378909, -0.4910397962109045, 1};
Point(p10 + 26) = {30.48759358154575, -0.6070319626576776, 1};
Point(p10 + 27) = {30.63987609300644, -0.7003508057007165, 1};
Point(p10 + 28) = {30.80488203734232, -0.7686985057168177, 1};
Point(p10 + 29) = {30.97854842058051, -0.8103921154985737, 1};
Point(p10 + 30) = {31.156599, -0.8244049999999999, 1};
Point(p10 + 31) = {31.33464957941949, -0.8103921154985739, 1};
Point(p10 + 32) = {31.50831596265768, -0.768698505716818, 1};
Point(p10 + 33) = {31.67332190699356, -0.7003508057007165, 1};
Point(p10 + 34) = {31.82560441845425, -0.6070319626576778, 1};
Point(p10 + 35) = {31.96141379621091, -0.4910397962109048, 1};
Point(p10 + 36) = {32.07740596265768, -0.3552304184542473, 1};
Point(p10 + 37) = {32.17072480570071, -0.2029479069935576, 1};
Point(p10 + 38) = {32.23907250571682, -0.03794196265767785, 1};
Point(p10 + 39) = {32.28076611549857, 0.1357244205805098, 1};
Spline(10) = {8, p10 + 1, p10 + 2, p10 + 3, p10 + 4, p10 + 5, p10 + 6, p10 + 7, p10 + 8, p10 + 9, p10 + 10, p10 + 11, p10 + 12, p10 + 13, p10 + 14, p10 + 15, p10 + 16, p10 + 17, p10 + 18, p10 + 19, p10 + 20, p10 + 21, p10 + 22, p10 + 23, p10 + 24, p10 + 25, p10 + 26, p10 + 27, p10 + 28, p10 + 29, p10 + 30, p10 + 31, p10 + 32, p10 + 33, p10 + 34, p10 + 35, p10 + 36, p10 + 37, p10 + 38, p10 + 39, 8};
p11 = newp;
Point(p11 + 1) = {19.7636397717034, 2.606172959301564, 1};
Point(p11 + 2) = {19.73215365639466, 2.737322068158104, 1};
Point(p11 + 3) = {19.6805389467291, 2.861931000250633, 1};
Point(p11 + 4) = {19.6100665681581, 2.976931470117697, 1};
Point(p11 + 5) = {19.52247178452649, 3.079491784526492, 1};
Point(p11 + 6) = {19.4199114701177, 3.167086568158104, 1};
Point(p11 + 7) = {19.30491100025063, 3.237558946729103, 1};
Point(p11 + 8) = {19.1803020681581, 3.289173656394657, 1};
Point(p11 + 9) = {19.04915295930157, 3.320659771703398, 1};
Point(p11 + 10) = {18.914693, 3.331242, 1};
Point(p11 + 11) = {18.78023304069843, 3.320659771703398, 1};
Point(p11 + 12) = {18.6490839318419, 3.289173656394657, 1};
Point(p11 + 13) = {18.52447499974937, 3.237558946729103, 1};
Point(p11 + 14) = {18.4094745298823, 3.167086568158104, 1};
Point(p11 + 15) = {18.30691421547351, 3.079491784526492, 1};
Point(p11 + 16) = {18.2193194318419, 2.976931470117697, 1};
Point(p11 + 17) = {18.1488470532709, 2.861931000250633, 1};
Point(p11 + 18) = {18.09723234360534, 2.737322068158104, 1};
Point(p11 + 19) = {18.0657462282966, 2.606172959301564, 1};
Point(p11 + 20) = {18.055164, 2.471713, 1};
Point(p11 + 21) = {18.0657462282966, 2.337253040698435, 1};
Point(p11 + 22) = {18.09723234360534, 2.206103931841895, 1};
Point(p11 + 23) = {18.1488470532709, 2.081494999749367, 1};
Point(p11 + 24) = {18.2193194318419, 1.966494529882303, 1};
Point(p11 + 25) = {18.30691421547351, 1.863934215473508, 1};
Point(p11 + 26) = {18.4094745298823, 1.776339431841896, 1};
Point(p11 + 27) = {18.52447499974937, 1.705867053270896, 1};
Point(p11 + 28) = {18.6490839318419, 1.654252343605343, 1};
Point(p11 + 29) = {18.78023304069843, 1.622766228296602, 1};
Point(p11 + 30) = {18.914693, 1.612184, 1};
Point(p11 + 31) = {19.04915295930157, 1.622766228296602, 1};
Point(p11 + 32) = {19.1803020681581, 1.654252343605343, 1};
Point(p11 + 33) = {19.30491100025063, 1.705867053270896, 1};
Point(p11 + 34) = {19.4199114701177, 1.776339431841896, 1};
Point(p11 + 35) = {19.52247178452649, 1.863934215473508, 1};
Point(p11 + 36) = {19.6100665681581, 1.966494529882302, 1};
Point(p11 + 37) = {19.6805389467291, 2.081494999749367, 1};
Point(p11 + 38) = {19.73215365639466, 2.206103931841895, 1};
Point(p11 + 39) = {19.7636397717034, 2.337253040698435, 1};
Spline(11) = {9, p11 + 1, p11 + 2, p11 + 3, p11 + 4, p11 + 5, p11 + 6, p11 + 7, p11 + 8, p11 + 9, p11 + 10, p11 + 11, p11 + 12, p11 + 13, p11 + 14, p11 + 15, p11 + 16, p11 + 17, p11 + 18, p11 + 19, p11 + 20, p11 + 21, p11 + 22, p11 + 23, p11 + 24, p11 + 25, p11 + 26, p11 + 27, p11 + 28, p11 + 29, p11 + 30, p11 + 31, p11 + 32, p11 + 33, p11 + 34, p11 + 35, p11 + 36, p11 + 37, p11 + 38, p11 + 39, 9};
Line(12) = {4, 10};
Line(13) = {10, 7};
Line(14) = {5, 10};
p15 = newp;
Point(p15 + 1) = {32.28076611549857, 0.49182557941949, 0};
Point(p15 + 2) = {32.23907250571682, 0.6654919626576776, 0};
Point(p15 + 3) = {32.17072480570071, 0.8304979069935573, 0};
Point(p15 + 4) = {32.07740596265768, 0.9827804184542471, 0};
Point(p15 + 5) = {31.96141379621091, 1.118589796210905, 0};
Point(p15 + 6) = {31.82560441845425, 1.234581962657678, 0};
Point(p15 + 7) = {31.67332190699356, 1.327900805700716, 0};
Point(p15 + 8) = {31.50831596265768, 1.396248505716818, 0};
Point(p15 + 9) = {31.33464957941949, 1.437942115498574, 0};
Point(p15 + 10) = {31.156599, 1.451955, 0};
Point(p15 + 11) = {30.97854842058051, 1.437942115498574, 0};
Point(p15 + 12) = {30.80488203734232, 1.396248505716818, 0};
Point(p15 + 13) = {30.63987609300644, 1.327900805700716, 0};
Point(p15 + 14) = {30.48759358154575, 1.234581962657678, 0};
Point(p15 + 15) = {30.35178420378909, 1.118589796210905, 0};
Point(p15 + 16) = {30.23579203734232, 0.9827804184542472, 0};
Point(p15 + 17) = {30.14247319429928, 0.8304979069935574, 0};
Point(p15 + 18) = {30.07412549428318, 0.6654919626576778, 0};
Point(p15 + 19) = {30.03243188450143, 0.4918255794194901, 0};
Point(p15 + 20) = {30.018419, 0.3137750000000002, 0};
Point(p15 + 21) = {30.03243188450143, 0.1357244205805102, 0};
Point(p15 + 22) = {30.07412549428318, -0.03794196265767796, 0};
Point(p15 + 23) = {30.14247319429928, -0.2029479069935567, 0};
Point(p15 + 24) = {30.23579203734232, -0.3552304184542469, 0};
Point(p15 + 25) = {30.35178420378909, -0.4910397962109045, 0};
Point(p15 + 26) = {30.48759358154575, -0.6070319626576776, 0};
Point(p15 + 27) = {30.63987609300644, -0.7003508057007165, 0};
Point(p15 + 28) = {30.80488203734232, -0.7686985057168177, 0};
Point(p15 + 29) = {30.97854842058051, -0.8103921154985737, 0};
Point(p15 + 30) = {31.156599, -0.8244049999999999, 0};
Point(p15 + 31) = {31.33464957941949, -0.8103921154985739, 0};
Point(p15 + 32) = {31.50831596265768, -0.768698505716818, 0};
Point(p15 + 33) = {31.67332190699356, -0.7003508057007165, 0};
Point(p15 + 34) = {31.82560441845425, -0.6070319626576778, 0};
Point(p15 + 35) = {31.96141379621091, -0.4910397962109048, 0};
Point(p15 + 36) = {32.07740596265768, -0.3552304184542473, 0};
Point(p15 + 37) = {32.17072480570071, -0.2029479069935576, 0};
Point(p15 + 38) = {32.23907250571682, -0.03794196265767785, 0};
Point(p15 + 39) = {32.28076611549857, 0.1357244205805098, 0};
Spline(15) = {11, p15 + 1, p15 + 2, p15 + 3, p15 + 4, p15 + 5, p15 + 6, p15 + 7, p15 + 8, p15 + 9, p15 + 10, p15 + 11, p15 + 12, p15 + 13, p15 + 14, p15 + 15, p15 + 16, p15 + 17, p15 + 18, p15 + 19, p15 + 20, p15 + 21, p15 + 22, p15 + 23, p15 + 24, p15 + 25, p15 + 26, p15 + 27, p15 + 28, p15 + 29, p15 + 30, p15 + 31, p15 + 32, p15 + 33, p15 + 34, p15 + 35, p15 + 36, p15 + 37, p15 + 38, p15 + 39, 11};
p16 = newp;
Point(p16 + 1) = {19.7636397717034, 2.606172959301564, 0};
Point(p16 + 2) = {19.73215365639466, 2.737322068158104, 0};
Point(p16 + 3) = {19.6805389467291, 2.861931000250633, 0};
Point(p16 + 4) = {19.6100665681581, 2.976931470117697, 0};
Point(p16 + 5) = {19.52247178452649, 3.079491784526492, 0};
Point(p16 + 6) = {19.4199114701177, 3.167086568158104, 0};
Point(p16 + 7) = {19.30491100025063, 3.237558946729103, 0};
Point(p16 + 8) = {19.1803020681581, 3.289173656394657, 0};
Point(p16 + 9) = {19.04915295930157, 3.320659771703398, 0};
Point(p16 + 10) = {18.914693, 3.331242, 0};
Point(p16 + 11) = {18.78023304069843, 3.320659771703398, 0};
Point(p16 + 12) = {18.6490839318419, 3.289173656394657, 0};
Point(p16 + 13) = {18.52447499974937, 3.237558946729103, 0};
Point(p16 + 14) = {18.4094745298823, 3.167086568158104, 0};
Point(p16 + 15) = {18.30691421547351, 3.079491784526492, 0};
Point(p16 + 16) = {18.2193194318419, 2.976931470117697, 0};
Point(p16 + 17) = {18.1488470532709, 2.861931000250633, 0};
Point(p16 + 18) = {18.09723234360534, 2.737322068158104, 0};
Point(p16 + 19) = {18.0657462282966, 2.606172959301564, 0};
Point(p16 + 20) = {18.055164, 2.471713, 0};
Point(p16 + 21) = {18.0657462282966, 2.337253040698435, 0};
Point(p16 + 22) = {18.09723234360534, 2.206103931841895, 0};
Point(p16 + 23) = {18.1488470532709, 2.081494999749367, 0};
Point(p16 + 24) = {18.2193194318419, 1.966494529882303, 0};
Point(p16 + 25) = {18.30691421547351, 1.863934215473508, 0};
Point(p16 + 26) = {18.4094745298823, 1.776339431841896, 0};
Point(p16 + 27) = {18.52447499974937, 1.705867053270896, 0};
Point(p16 + 28) = {18.6490839318419, 1.654252343605343, 0};
Point(p16 + 29) = {18.78023304069843, 1.622766228296602, 0};
Point(p16 + 30) = {18.914693, 1.612184, 0};
Point(p16 + 31) = {19.04915295930157, 1.622766228296602, 0};
Point(p16 + 32) = {19.1803020681581, 1.654252343605343, 0};
Point(p16 + 33) = {19.30491100025063, 1.705867053270896, 0};
Point(p16 + 34) = {19.4199114701177, 1.776339431841896, 0};
Point(p16 + 35) = {19.52247178452649, 1.863934215473508, 0};
Point(p16 + 36) = {19.6100665681581, 1.966494529882302, 0};
Point(p16 + 37) = {19.6805389467291, 2.081494999749367, 0};
Point(p16 + 38) = {19.73215365639466, 2.206103931841895, 0};
Point(p16 + 39) = {19.7636397717034, 2.337253040698435, 0};
Spline(16) = {12, p16 + 1, p16 + 2, p16 + 3, p16 + 4, p16 + 5, p16 + 6, p16 + 7, p16 + 8, p16 + 9, p16 + 10, p16 + 11, p16 + 12, p16 + 13, p16 + 14, p16 + 15, p16 + 16, p16 + 17, p16 + 18, p16 + 19, p16 + 20, p16 + 21, p16 + 22, p16 + 23, p16 + 24, p16 + 25, p16 + 26, p16 + 27, p16 + 28, p16 + 29, p16 + 30, p16 + 31, p16 + 32, p16 + 33, p16 + 34, p16 + 35, p16 + 36, p16 + 37, p16 + 38, p16 + 39, 12};
Line(17) = {11, 8};
Line(18) = {12, 9};
Curve Loop(1) = {-1, 4, 3, -2};
Plane Surface(1) = {1};
Curve Loop(2) = {-5, 1, 7, -6};
Plane Surface(2) = {2};
Curve Loop(3) = {-2, 7, 9, -8, -10, -11};
Plane Surface(3) = {3};
Curve Loop(4) = {-12, 3, 8, -13};
Plane Surface(4) = {4};
Curve Loop(5) = {-4, 5, 14, -12, -15, -16};
Plane Surface(5) = {5};
Curve Loop(6) = {-6, 14, 13, -9};
Plane Surface(6) = {6};
Curve Loop(7) = {-10, -17, 15, 17};
Surface(7) = {7};
Curve Loop(8) = {-11, -18, 16, 18};
Surface(8) = {8};
Surface Loop(1) = {1, 2, 3, 4, 5, 6, 7, 8};
Volume(1) = {1};
Physical Surface("INFLOW") = {1};
Physical Surface("OUTFLOW") = {6};
Physical Surface("OBSTACLE") = {7, 8};
Physical Surface("WALL_Y") = {2, 4};
Physical Surface("WALL_Z") = {3, 5};
Physical Volume("FLUID") = {1};
