cl__1 = 1.712599;
cl__2 = 1.621325;
cl__3 = 1.033629;
cl__4 = 0.617709;
cl__5 = 0.059568;
cl__6 = 0.128258;
Point(1) = {0.692358, -4.197698, 1, cl__1};
Point(2) = {0.692358, -4.197698, 0, cl__1};
Point(3) = {0.692358, 4.610019, 1, cl__2};
Point(4) = {0.692358, 4.610019, 0, cl__2};
Point(5) = {36.398257, -4.197698, 0, cl__3};
Point(6) = {36.398257, -4.197698, 1, cl__3};
Point(7) = {36.398257, 4.610019, 1, cl__4};
Point(8) = {4.872764, 0.2659839999999999, 1, cl__5};
Point(9) = {35.871776, 1.120268, 1, cl__6};
Point(10) = {36.398257, 4.610019, 0, cl__4};
Point(11) = {4.872764, 0.2659839999999999, 0, cl__5};
Point(12) = {35.871776, 1.120268, 0, cl__6};
Line(1) = {2, 1};
Line(2) = {1, 3};
Line(3) = {4, 3};
Line(4) = {2, 4};
Line(5) = {2, 5};
Line(6) = {5, 6};
Line(7) = {1, 6};
Line(8) = {3, 7};
Line(9) = {6, 7};
p10 = newp;
Point(p10 + 1) = {4.865430141479074, 0.3591695078730249, 1};
Point(p10 + 2) = {4.843609149852762, 0.4500604792772461, 1};
Point(p10 + 3) = {4.807838330354624, 0.5364188768468521, 1};
Point(p10 + 4) = {4.758998479277246, 0.6161182702265895, 1};
Point(p10 + 5) = {4.698292195844327, 0.6871961958443273, 1};
Point(p10 + 6) = {4.627214270226589, 0.7479024792772462, 1};
Point(p10 + 7) = {4.547514876846852, 0.7967423303546237, 1};
Point(p10 + 8) = {4.461156479277246, 0.8325131498527623, 1};
Point(p10 + 9) = {4.370265507873024, 0.854334141479074, 1};
Point(p10 + 10) = {4.27708, 0.861668, 1};
Point(p10 + 11) = {4.183894492126975, 0.8543341414790739, 1};
Point(p10 + 12) = {4.093003520722753, 0.8325131498527623, 1};
Point(p10 + 13) = {4.006645123153148, 0.7967423303546237, 1};
Point(p10 + 14) = {3.92694572977341, 0.7479024792772462, 1};
Point(p10 + 15) = {3.855867804155673, 0.6871961958443273, 1};
Point(p10 + 16) = {3.795161520722754, 0.6161182702265896, 1};
Point(p10 + 17) = {3.746321669645376, 0.5364188768468523, 1};
Point(p10 + 18) = {3.710550850147238, 0.4500604792772462, 1};
Point(p10 + 19) = {3.688729858520926, 0.3591695078730249, 1};
Point(p10 + 20) = {3.681396, 0.2659840000000001, 1};
Point(p10 + 21) = {3.688729858520926, 0.1727984921269752, 1};
Point(p10 + 22) = {3.710550850147238, 0.08190752072275365, 1};
Point(p10 + 23) = {3.746321669645376, -0.004450876846851859, 1};
Point(p10 + 24) = {3.795161520722754, -0.0841502702265895, 1};
Point(p10 + 25) = {3.855867804155672, -0.1552281958443273, 1};
Point(p10 + 26) = {3.92694572977341, -0.2159344792772461, 1};
Point(p10 + 27) = {4.006645123153148, -0.2647743303546237, 1};
Point(p10 + 28) = {4.093003520722753, -0.3005451498527623, 1};
Point(p10 + 29) = {4.183894492126975, -0.3223661414790739, 1};
Point(p10 + 30) = {4.27708, -0.3297, 1};
Point(p10 + 31) = {4.370265507873024, -0.3223661414790741, 1};
Point(p10 + 32) = {4.461156479277246, -0.3005451498527623, 1};
Point(p10 + 33) = {4.547514876846852, -0.2647743303546237, 1};
Point(p10 + 34) = {4.627214270226589, -0.2159344792772462, 1};
Point(p10 + 35) = {4.698292195844327, -0.1552281958443275, 1};
Point(p10 + 36) = {4.758998479277246, -0.08415027022658972, 1};
Point(p10 + 37) = {4.807838330354624, -0.004450876846852303, 1};
Point(p10 + 38) = {4.843609149852762, 0.0819075207227537, 1};
Point(p10 + 39) = {4.865430141479074, 0.172798492126975, 1};
Spline(10) = {8, p10 + 1, p10 + 2, p10 + 3, p10 + 4, p10 + 5, p10 + 6, p10 + 7, p10 + 8, p10 + 9, p10 + 10, p10 + 11, p10 + 12, p10 + 13, p10 + 14, p10 + 15, p10 + 16, p10 + 17, p10 + 18, p10 + 19, p10 + 20, p10 + 21, p10 + 22, p10 + 23, p10 + 24, p10 + 25, p10 + 26, p10 + 27, p10 + 28, p10 + 29, p10 + 30, p10 + 31, p10 + 32, p10 + 33, p10 + 34, p10 + 35, p10 + 36, p10 + 37, p10 + 38, p10 + 39, 8};
p11 = newp;
Point(p11 + 1) = {35.85598527494554, 1.320908185474694, 1};
Point(p11 + 2) = {35.80900191983939, 1.516607943696403, 1};
Point(p11 + 3) = {35.73198282081309, 1.702548497127447, 1};
Point(p11 + 4) = {35.62682444369641, 1.874151372241037, 1};
Point(p11 + 5) = {35.49611613673459, 2.027191136734586, 1};
Point(p11 + 6) = {35.34307637224104, 2.157899443696403, 1};
Point(p11 + 7) = {35.17147349712745, 2.263057820813089, 1};
Point(p11 + 8) = {34.98553294369641, 2.340076919839387, 1};
Point(p11 + 9) = {34.7898331854747, 2.387060274945534, 1};
Point(p11 + 10) = {34.589193, 2.402851, 1};
Point(p11 + 11) = {34.3885528145253, 2.387060274945533, 1};
Point(p11 + 12) = {34.1928530563036, 2.340076919839387, 1};
Point(p11 + 13) = {34.00691250287255, 2.263057820813089, 1};
Point(p11 + 14) = {33.83530962775897, 2.157899443696403, 1};
Point(p11 + 15) = {33.68226986326542, 2.027191136734586, 1};
Point(p11 + 16) = {33.5515615563036, 1.874151372241037, 1};
Point(p11 + 17) = {33.44640317918691, 1.702548497127447, 1};
Point(p11 + 18) = {33.36938408016061, 1.516607943696403, 1};
Point(p11 + 19) = {33.32240072505447, 1.320908185474695, 1};
Point(p11 + 20) = {33.30661, 1.120268, 1};
Point(p11 + 21) = {33.32240072505446, 0.9196278145253058, 1};
Point(p11 + 22) = {33.36938408016061, 0.7239280563035965, 1};
Point(p11 + 23) = {33.44640317918691, 0.5379875028725536, 1};
Point(p11 + 24) = {33.5515615563036, 0.3663846277589631, 1};
Point(p11 + 25) = {33.68226986326542, 0.2133448632654145, 1};
Point(p11 + 26) = {33.83530962775897, 0.0826365563035969, 1};
Point(p11 + 27) = {34.00691250287255, -0.02252182081308929, 1};
Point(p11 + 28) = {34.1928530563036, -0.09954091983938684, 1};
Point(p11 + 29) = {34.3885528145253, -0.1465242749455333, 1};
Point(p11 + 30) = {34.589193, -0.162315, 1};
Point(p11 + 31) = {34.7898331854747, -0.1465242749455336, 1};
Point(p11 + 32) = {34.98553294369641, -0.09954091983938707, 1};
Point(p11 + 33) = {35.17147349712745, -0.02252182081308951, 1};
Point(p11 + 34) = {35.34307637224104, 0.08263655630359668, 1};
Point(p11 + 35) = {35.49611613673459, 0.2133448632654141, 1};
Point(p11 + 36) = {35.62682444369641, 0.3663846277589626, 1};
Point(p11 + 37) = {35.73198282081309, 0.5379875028725527, 1};
Point(p11 + 38) = {35.80900191983939, 0.7239280563035966, 1};
Point(p11 + 39) = {35.85598527494553, 0.9196278145253053, 1};
Spline(11) = {9, p11 + 1, p11 + 2, p11 + 3, p11 + 4, p11 + 5, p11 + 6, p11 + 7, p11 + 8, p11 + 9, p11 + 10, p11 + 11, p11 + 12, p11 + 13, p11 + 14, p11 + 15, p11 + 16, p11 + 17, p11 + 18, p11 + 19, p11 + 20, p11 + 21, p11 + 22, p11 + 23, p11 + 24, p11 + 25, p11 + 26, p11 + 27, p11 + 28, p11 + 29, p11 + 30, p11 + 31, p11 + 32, p11 + 33, p11 + 34, p11 + 35, p11 + 36, p11 + 37, p11 + 38, p11 + 39, 9};
Line(12) = {4, 10};
Line(13) = {10, 7};
Line(14) = {5, 10};
p15 = newp;
Point(p15 + 1) = {4.865430141479074, 0.3591695078730249, 0};
Point(p15 + 2) = {4.843609149852762, 0.4500604792772461, 0};
Point(p15 + 3) = {4.807838330354624, 0.5364188768468521, 0};
Point(p15 + 4) = {4.758998479277246, 0.6161182702265895, 0};
Point(p15 + 5) = {4.698292195844327, 0.6871961958443273, 0};
Point(p15 + 6) = {4.627214270226589, 0.7479024792772462, 0};
Point(p15 + 7) = {4.547514876846852, 0.7967423303546237, 0};
Point(p15 + 8) = {4.461156479277246, 0.8325131498527623, 0};
Point(p15 + 9) = {4.370265507873024, 0.854334141479074, 0};
Point(p15 + 10) = {4.27708, 0.861668, 0};
Point(p15 + 11) = {4.183894492126975, 0.8543341414790739, 0};
Point(p15 + 12) = {4.093003520722753, 0.8325131498527623, 0};
Point(p15 + 13) = {4.006645123153148, 0.7967423303546237, 0};
Point(p15 + 14) = {3.92694572977341, 0.7479024792772462, 0};
Point(p15 + 15) = {3.855867804155673, 0.6871961958443273, 0};
Point(p15 + 16) = {3.795161520722754, 0.6161182702265896, 0};
Point(p15 + 17) = {3.746321669645376, 0.5364188768468523, 0};
Point(p15 + 18) = {3.710550850147238, 0.4500604792772462, 0};
Point(p15 + 19) = {3.688729858520926, 0.3591695078730249, 0};
Point(p15 + 20) = {3.681396, 0.2659840000000001, 0};
Point(p15 + 21) = {3.688729858520926, 0.1727984921269752, 0};
Point(p15 + 22) = {3.710550850147238, 0.08190752072275365, 0};
Point(p15 + 23) = {3.746321669645376, -0.004450876846851859, 0};
Point(p15 + 24) = {3.795161520722754, -0.0841502702265895, 0};
Point(p15 + 25) = {3.855867804155672, -0.1552281958443273, 0};
Point(p15 + 26) = {3.92694572977341, -0.2159344792772461, 0};
Point(p15 + 27) = {4.006645123153148, -0.2647743303546237, 0};
Point(p15 + 28) = {4.093003520722753, -0.3005451498527623, 0};
Point(p15 + 29) = {4.183894492126975, -0.3223661414790739, 0};
Point(p15 + 30) = {4.27708, -0.3297, 0};
Point(p15 + 31) = {4.370265507873024, -0.3223661414790741, 0};
Point(p15 + 32) = {4.461156479277246, -0.3005451498527623, 0};
Point(p15 + 33) = {4.547514876846852, -0.2647743303546237, 0};
Point(p15 + 34) = {4.627214270226589, -0.2159344792772462, 0};
Point(p15 + 35) = {4.698292195844327, -0.1552281958443275, 0};
Point(p15 + 36) = {4.758998479277246, -0.08415027022658972, 0};
Point(p15 + 37) = {4.807838330354624, -0.004450876846852303, 0};
Point(p15 + 38) = {4.843609149852762, 0.0819075207227537, 0};
Point(p15 + 39) = {4.865430141479074, 0.172798492126975, 0};
Spline(15) = {11, p15 + 1, p15 + 2, p15 + 3, p15 + 4, p15 + 5, p15 + 6, p15 + 7, p15 + 8, p15 + 9, p15 + 10, p15 + 11, p15 + 12, p15 + 13, p15 + 14, p15 + 15, p15 + 16, p15 + 17, p15 + 18, p15 + 19, p15 + 20, p15 + 21, p15 + 22, p15 + 23, p15 + 24, p15 + 25, p15 + 26, p15 + 27, p15 + 28, p15 + 29, p15 + 30, p15 + 31, p15 + 32, p15 + 33, p15 + 34, p15 + 35, p15 + 36, p15 + 37, p15 + 38, p15 + 39, 11};
p16 = newp;
Point(p16 + 1) = {35.85598527494554, 1.320908185474694, 0};
Point(p16 + 2) = {35.80900191983939, 1.516607943696403, 0};
Point(p16 + 3) = {35.73198282081309, 1.702548497127447, 0};
Point(p16 + 4) = {35.62682444369641, 1.874151372241037, 0};
Point(p16 + 5) = {35.49611613673459, 2.027191136734586, 0};
Point(p16 + 6) = {35.34307637224104, 2.157899443696403, 0};
Point(p16 + 7) = {35.17147349712745, 2.263057820813089, 0};
Point(p16 + 8) = {34.98553294369641, 2.340076919839387, 0};
Point(p16 + 9) = {34.7898331854747, 2.387060274945534, 0};
Point(p16 + 10) = {34.589193, 2.402851, 0};
Point(p16 + 11) = {34.3885528145253, 2.387060274945533, 0};
Point(p16 + 12) = {34.1928530563036, 2.340076919839387, 0};
Point(p16 + 13) = {34.00691250287255, 2.263057820813089, 0};
Point(p16 + 14) = {33.83530962775897, 2.157899443696403, 0};
Point(p16 + 15) = {33.68226986326542, 2.027191136734586, 0};
Point(p16 + 16) = {33.5515615563036, 1.874151372241037, 0};
Point(p16 + 17) = {33.44640317918691, 1.702548497127447, 0};
Point(p16 + 18) = {33.36938408016061, 1.516607943696403, 0};
Point(p16 + 19) = {33.32240072505447, 1.320908185474695, 0};
Point(p16 + 20) = {33.30661, 1.120268, 0};
Point(p16 + 21) = {33.32240072505446, 0.9196278145253058, 0};
Point(p16 + 22) = {33.36938408016061, 0.7239280563035965, 0};
Point(p16 + 23) = {33.44640317918691, 0.5379875028725536, 0};
Point(p16 + 24) = {33.5515615563036, 0.3663846277589631, 0};
Point(p16 + 25) = {33.68226986326542, 0.2133448632654145, 0};
Point(p16 + 26) = {33.83530962775897, 0.0826365563035969, 0};
Point(p16 + 27) = {34.00691250287255, -0.02252182081308929, 0};
Point(p16 + 28) = {34.1928530563036, -0.09954091983938684, 0};
Point(p16 + 29) = {34.3885528145253, -0.1465242749455333, 0};
Point(p16 + 30) = {34.589193, -0.162315, 0};
Point(p16 + 31) = {34.7898331854747, -0.1465242749455336, 0};
Point(p16 + 32) = {34.98553294369641, -0.09954091983938707, 0};
Point(p16 + 33) = {35.17147349712745, -0.02252182081308951, 0};
Point(p16 + 34) = {35.34307637224104, 0.08263655630359668, 0};
Point(p16 + 35) = {35.49611613673459, 0.2133448632654141, 0};
Point(p16 + 36) = {35.62682444369641, 0.3663846277589626, 0};
Point(p16 + 37) = {35.73198282081309, 0.5379875028725527, 0};
Point(p16 + 38) = {35.80900191983939, 0.7239280563035966, 0};
Point(p16 + 39) = {35.85598527494553, 0.9196278145253053, 0};
Spline(16) = {12, p16 + 1, p16 + 2, p16 + 3, p16 + 4, p16 + 5, p16 + 6, p16 + 7, p16 + 8, p16 + 9, p16 + 10, p16 + 11, p16 + 12, p16 + 13, p16 + 14, p16 + 15, p16 + 16, p16 + 17, p16 + 18, p16 + 19, p16 + 20, p16 + 21, p16 + 22, p16 + 23, p16 + 24, p16 + 25, p16 + 26, p16 + 27, p16 + 28, p16 + 29, p16 + 30, p16 + 31, p16 + 32, p16 + 33, p16 + 34, p16 + 35, p16 + 36, p16 + 37, p16 + 38, p16 + 39, 12};
Line(17) = {11, 8};
Line(18) = {12, 9};
Curve Loop(1) = {-1, 4, 3, -2};
Plane Surface(1) = {1};
Curve Loop(2) = {-5, 1, 7, -6};
Plane Surface(2) = {2};
Curve Loop(3) = {-2, 7, 9, -8, -10, -11};
Plane Surface(3) = {3};
Curve Loop(4) = {-12, 3, 8, -13};
Plane Surface(4) = {4};
Curve Loop(5) = {-4, 5, 14, -12, -15, -16};
Plane Surface(5) = {5};
Curve Loop(6) = {-6, 14, 13, -9};
Plane Surface(6) = {6};
Curve Loop(7) = {-10, -17, 15, 17};
Surface(7) = {7};
Curve Loop(8) = {-11, -18, 16, 18};
Surface(8) = {8};
Surface Loop(1) = {1, 2, 3, 4, 5, 6, 7, 8};
Volume(1) = {1};
Physical Surface("INFLOW") = {1};
Physical Surface("OUTFLOW") = {6};
Physical Surface("OBSTACLE") = {7, 8};
Physical Surface("WALL_Y") = {2, 4};
Physical Surface("WALL_Z") = {3, 5};
Physical Volume("FLUID") = {1};
