cl__1 = 3.883963;
cl__2 = 1.161097;
cl__3 = 1.18156;
cl__4 = 0.090951;
cl__5 = 0.089715;
Point(1) = {0.572258, -3.594307, 1, cl__1};
Point(2) = {0.572258, -3.594307, 0, cl__1};
Point(3) = {0.572258, 5.524142999999999, 1, cl__1};
Point(4) = {0.572258, 5.524142999999999, 0, cl__1};
Point(5) = {38.571112, -3.594307, 0, cl__2};
Point(6) = {38.571112, -3.594307, 1, cl__2};
Point(7) = {38.571112, 5.524142999999999, 1, cl__3};
Point(8) = {27.048966, -2.1056, 1, cl__4};
Point(9) = {27.017362, 2.957212, 1, cl__5};
Point(10) = {38.571112, 5.524142999999999, 0, cl__3};
Point(11) = {27.048966, -2.1056, 0, cl__4};
Point(12) = {27.017362, 2.957212, 0, cl__5};
Line(1) = {2, 1};
Line(2) = {1, 3};
Line(3) = {4, 3};
Line(4) = {2, 4};
Line(5) = {2, 5};
Line(6) = {5, 6};
Line(7) = {1, 6};
Line(8) = {3, 7};
Line(9) = {6, 7};
p10 = newp;
Point(p10 + 1) = {27.03776845958966, -1.963321759004655, 1};
Point(p10 + 2) = {27.00445155896605, -1.824546880497025, 1};
Point(p10 + 3) = {26.94983567079499, -1.692692462553384, 1};
Point(p10 + 4) = {26.87526561950298, -1.57100519854323, 1};
Point(p10 + 5) = {26.78257756723663, -1.462481432763367, 1};
Point(p10 + 6) = {26.67405380145677, -1.369793380497025, 1};
Point(p10 + 7) = {26.55236653744662, -1.29522332920501, 1};
Point(p10 + 8) = {26.42051211950297, -1.240607441033944, 1};
Point(p10 + 9) = {26.28173724099534, -1.207290540410338, 1};
Point(p10 + 10) = {26.139459, -1.196093, 1};
Point(p10 + 11) = {25.99718075900465, -1.207290540410338, 1};
Point(p10 + 12) = {25.85840588049702, -1.240607441033944, 1};
Point(p10 + 13) = {25.72655146255338, -1.29522332920501, 1};
Point(p10 + 14) = {25.60486419854323, -1.369793380497025, 1};
Point(p10 + 15) = {25.49634043276336, -1.462481432763367, 1};
Point(p10 + 16) = {25.40365238049703, -1.571005198543229, 1};
Point(p10 + 17) = {25.32908232920501, -1.692692462553384, 1};
Point(p10 + 18) = {25.27446644103394, -1.824546880497025, 1};
Point(p10 + 19) = {25.24114954041034, -1.963321759004655, 1};
Point(p10 + 20) = {25.229952, -2.1056, 1};
Point(p10 + 21) = {25.24114954041034, -2.247878240995345, 1};
Point(p10 + 22) = {25.27446644103394, -2.386653119502975, 1};
Point(p10 + 23) = {25.32908232920501, -2.518507537446615, 1};
Point(p10 + 24) = {25.40365238049702, -2.64019480145677, 1};
Point(p10 + 25) = {25.49634043276336, -2.748718567236633, 1};
Point(p10 + 26) = {25.60486419854323, -2.841406619502975, 1};
Point(p10 + 27) = {25.72655146255338, -2.91597667079499, 1};
Point(p10 + 28) = {25.85840588049702, -2.970592558966056, 1};
Point(p10 + 29) = {25.99718075900465, -3.003909459589662, 1};
Point(p10 + 30) = {26.139459, -3.015107, 1};
Point(p10 + 31) = {26.28173724099534, -3.003909459589662, 1};
Point(p10 + 32) = {26.42051211950297, -2.970592558966056, 1};
Point(p10 + 33) = {26.55236653744662, -2.91597667079499, 1};
Point(p10 + 34) = {26.67405380145677, -2.841406619502975, 1};
Point(p10 + 35) = {26.78257756723663, -2.748718567236633, 1};
Point(p10 + 36) = {26.87526561950297, -2.64019480145677, 1};
Point(p10 + 37) = {26.94983567079499, -2.518507537446616, 1};
Point(p10 + 38) = {27.00445155896605, -2.386653119502975, 1};
Point(p10 + 39) = {27.03776845958966, -2.247878240995346, 1};
Spline(10) = {8, p10 + 1, p10 + 2, p10 + 3, p10 + 4, p10 + 5, p10 + 6, p10 + 7, p10 + 8, p10 + 9, p10 + 10, p10 + 11, p10 + 12, p10 + 13, p10 + 14, p10 + 15, p10 + 16, p10 + 17, p10 + 18, p10 + 19, p10 + 20, p10 + 21, p10 + 22, p10 + 23, p10 + 24, p10 + 25, p10 + 26, p10 + 27, p10 + 28, p10 + 29, p10 + 30, p10 + 31, p10 + 32, p10 + 33, p10 + 34, p10 + 35, p10 + 36, p10 + 37, p10 + 38, p10 + 39, 8};
p11 = newp;
Point(p11 + 1) = {27.00631655782995, 3.097557649614239, 1};
Point(p11 + 2) = {26.97345220676375, 3.234447523554467, 1};
Point(p11 + 3) = {26.91957817619517, 3.364510938812834, 1};
Point(p11 + 4) = {26.84602102355447, 3.484545302449949, 1};
Point(p11 + 5) = {26.75459197006185, 3.591594970061855, 1};
Point(p11 + 6) = {26.64754230244995, 3.683024023554467, 1};
Point(p11 + 7) = {26.52750793881283, 3.756581176195167, 1};
Point(p11 + 8) = {26.39744452355447, 3.810455206763746, 1};
Point(p11 + 9) = {26.26055464961424, 3.84331955782995, 1};
Point(p11 + 10) = {26.120209, 3.854365, 1};
Point(p11 + 11) = {25.97986335038576, 3.843319557829949, 1};
Point(p11 + 12) = {25.84297347644553, 3.810455206763746, 1};
Point(p11 + 13) = {25.71291006118717, 3.756581176195167, 1};
Point(p11 + 14) = {25.59287569755005, 3.683024023554467, 1};
Point(p11 + 15) = {25.48582602993815, 3.591594970061855, 1};
Point(p11 + 16) = {25.39439697644553, 3.484545302449949, 1};
Point(p11 + 17) = {25.32083982380483, 3.364510938812834, 1};
Point(p11 + 18) = {25.26696579323625, 3.234447523554468, 1};
Point(p11 + 19) = {25.23410144217005, 3.097557649614239, 1};
Point(p11 + 20) = {25.223056, 2.957212, 1};
Point(p11 + 21) = {25.23410144217005, 2.816866350385762, 1};
Point(p11 + 22) = {25.26696579323625, 2.679976476445533, 1};
Point(p11 + 23) = {25.32083982380483, 2.549913061187167, 1};
Point(p11 + 24) = {25.39439697644553, 2.429878697550051, 1};
Point(p11 + 25) = {25.48582602993815, 2.322829029938146, 1};
Point(p11 + 26) = {25.59287569755005, 2.231399976445533, 1};
Point(p11 + 27) = {25.71291006118717, 2.157842823804834, 1};
Point(p11 + 28) = {25.84297347644553, 2.103968793236255, 1};
Point(p11 + 29) = {25.97986335038576, 2.071104442170051, 1};
Point(p11 + 30) = {26.120209, 2.060059, 1};
Point(p11 + 31) = {26.26055464961424, 2.07110444217005, 1};
Point(p11 + 32) = {26.39744452355447, 2.103968793236254, 1};
Point(p11 + 33) = {26.52750793881283, 2.157842823804833, 1};
Point(p11 + 34) = {26.64754230244995, 2.231399976445533, 1};
Point(p11 + 35) = {26.75459197006185, 2.322829029938145, 1};
Point(p11 + 36) = {26.84602102355447, 2.429878697550051, 1};
Point(p11 + 37) = {26.91957817619517, 2.549913061187167, 1};
Point(p11 + 38) = {26.97345220676375, 2.679976476445533, 1};
Point(p11 + 39) = {27.00631655782995, 2.816866350385762, 1};
Spline(11) = {9, p11 + 1, p11 + 2, p11 + 3, p11 + 4, p11 + 5, p11 + 6, p11 + 7, p11 + 8, p11 + 9, p11 + 10, p11 + 11, p11 + 12, p11 + 13, p11 + 14, p11 + 15, p11 + 16, p11 + 17, p11 + 18, p11 + 19, p11 + 20, p11 + 21, p11 + 22, p11 + 23, p11 + 24, p11 + 25, p11 + 26, p11 + 27, p11 + 28, p11 + 29, p11 + 30, p11 + 31, p11 + 32, p11 + 33, p11 + 34, p11 + 35, p11 + 36, p11 + 37, p11 + 38, p11 + 39, 9};
Line(12) = {4, 10};
Line(13) = {10, 7};
Line(14) = {5, 10};
p15 = newp;
Point(p15 + 1) = {27.03776845958966, -1.963321759004655, 0};
Point(p15 + 2) = {27.00445155896605, -1.824546880497025, 0};
Point(p15 + 3) = {26.94983567079499, -1.692692462553384, 0};
Point(p15 + 4) = {26.87526561950298, -1.57100519854323, 0};
Point(p15 + 5) = {26.78257756723663, -1.462481432763367, 0};
Point(p15 + 6) = {26.67405380145677, -1.369793380497025, 0};
Point(p15 + 7) = {26.55236653744662, -1.29522332920501, 0};
Point(p15 + 8) = {26.42051211950297, -1.240607441033944, 0};
Point(p15 + 9) = {26.28173724099534, -1.207290540410338, 0};
Point(p15 + 10) = {26.139459, -1.196093, 0};
Point(p15 + 11) = {25.99718075900465, -1.207290540410338, 0};
Point(p15 + 12) = {25.85840588049702, -1.240607441033944, 0};
Point(p15 + 13) = {25.72655146255338, -1.29522332920501, 0};
Point(p15 + 14) = {25.60486419854323, -1.369793380497025, 0};
Point(p15 + 15) = {25.49634043276336, -1.462481432763367, 0};
Point(p15 + 16) = {25.40365238049703, -1.571005198543229, 0};
Point(p15 + 17) = {25.32908232920501, -1.692692462553384, 0};
Point(p15 + 18) = {25.27446644103394, -1.824546880497025, 0};
Point(p15 + 19) = {25.24114954041034, -1.963321759004655, 0};
Point(p15 + 20) = {25.229952, -2.1056, 0};
Point(p15 + 21) = {25.24114954041034, -2.247878240995345, 0};
Point(p15 + 22) = {25.27446644103394, -2.386653119502975, 0};
Point(p15 + 23) = {25.32908232920501, -2.518507537446615, 0};
Point(p15 + 24) = {25.40365238049702, -2.64019480145677, 0};
Point(p15 + 25) = {25.49634043276336, -2.748718567236633, 0};
Point(p15 + 26) = {25.60486419854323, -2.841406619502975, 0};
Point(p15 + 27) = {25.72655146255338, -2.91597667079499, 0};
Point(p15 + 28) = {25.85840588049702, -2.970592558966056, 0};
Point(p15 + 29) = {25.99718075900465, -3.003909459589662, 0};
Point(p15 + 30) = {26.139459, -3.015107, 0};
Point(p15 + 31) = {26.28173724099534, -3.003909459589662, 0};
Point(p15 + 32) = {26.42051211950297, -2.970592558966056, 0};
Point(p15 + 33) = {26.55236653744662, -2.91597667079499, 0};
Point(p15 + 34) = {26.67405380145677, -2.841406619502975, 0};
Point(p15 + 35) = {26.78257756723663, -2.748718567236633, 0};
Point(p15 + 36) = {26.87526561950297, -2.64019480145677, 0};
Point(p15 + 37) = {26.94983567079499, -2.518507537446616, 0};
Point(p15 + 38) = {27.00445155896605, -2.386653119502975, 0};
Point(p15 + 39) = {27.03776845958966, -2.247878240995346, 0};
Spline(15) = {11, p15 + 1, p15 + 2, p15 + 3, p15 + 4, p15 + 5, p15 + 6, p15 + 7, p15 + 8, p15 + 9, p15 + 10, p15 + 11, p15 + 12, p15 + 13, p15 + 14, p15 + 15, p15 + 16, p15 + 17, p15 + 18, p15 + 19, p15 + 20, p15 + 21, p15 + 22, p15 + 23, p15 + 24, p15 + 25, p15 + 26, p15 + 27, p15 + 28, p15 + 29, p15 + 30, p15 + 31, p15 + 32, p15 + 33, p15 + 34, p15 + 35, p15 + 36, p15 + 37, p15 + 38, p15 + 39, 11};
p16 = newp;
Point(p16 + 1) = {27.00631655782995, 3.097557649614239, 0};
Point(p16 + 2) = {26.97345220676375, 3.234447523554467, 0};
Point(p16 + 3) = {26.91957817619517, 3.364510938812834, 0};
Point(p16 + 4) = {26.84602102355447, 3.484545302449949, 0};
Point(p16 + 5) = {26.75459197006185, 3.591594970061855, 0};
Point(p16 + 6) = {26.64754230244995, 3.683024023554467, 0};
Point(p16 + 7) = {26.52750793881283, 3.756581176195167, 0};
Point(p16 + 8) = {26.39744452355447, 3.810455206763746, 0};
Point(p16 + 9) = {26.26055464961424, 3.84331955782995, 0};
Point(p16 + 10) = {26.120209, 3.854365, 0};
Point(p16 + 11) = {25.97986335038576, 3.843319557829949, 0};
Point(p16 + 12) = {25.84297347644553, 3.810455206763746, 0};
Point(p16 + 13) = {25.71291006118717, 3.756581176195167, 0};
Point(p16 + 14) = {25.59287569755005, 3.683024023554467, 0};
Point(p16 + 15) = {25.48582602993815, 3.591594970061855, 0};
Point(p16 + 16) = {25.39439697644553, 3.484545302449949, 0};
Point(p16 + 17) = {25.32083982380483, 3.364510938812834, 0};
Point(p16 + 18) = {25.26696579323625, 3.234447523554468, 0};
Point(p16 + 19) = {25.23410144217005, 3.097557649614239, 0};
Point(p16 + 20) = {25.223056, 2.957212, 0};
Point(p16 + 21) = {25.23410144217005, 2.816866350385762, 0};
Point(p16 + 22) = {25.26696579323625, 2.679976476445533, 0};
Point(p16 + 23) = {25.32083982380483, 2.549913061187167, 0};
Point(p16 + 24) = {25.39439697644553, 2.429878697550051, 0};
Point(p16 + 25) = {25.48582602993815, 2.322829029938146, 0};
Point(p16 + 26) = {25.59287569755005, 2.231399976445533, 0};
Point(p16 + 27) = {25.71291006118717, 2.157842823804834, 0};
Point(p16 + 28) = {25.84297347644553, 2.103968793236255, 0};
Point(p16 + 29) = {25.97986335038576, 2.071104442170051, 0};
Point(p16 + 30) = {26.120209, 2.060059, 0};
Point(p16 + 31) = {26.26055464961424, 2.07110444217005, 0};
Point(p16 + 32) = {26.39744452355447, 2.103968793236254, 0};
Point(p16 + 33) = {26.52750793881283, 2.157842823804833, 0};
Point(p16 + 34) = {26.64754230244995, 2.231399976445533, 0};
Point(p16 + 35) = {26.75459197006185, 2.322829029938145, 0};
Point(p16 + 36) = {26.84602102355447, 2.429878697550051, 0};
Point(p16 + 37) = {26.91957817619517, 2.549913061187167, 0};
Point(p16 + 38) = {26.97345220676375, 2.679976476445533, 0};
Point(p16 + 39) = {27.00631655782995, 2.816866350385762, 0};
Spline(16) = {12, p16 + 1, p16 + 2, p16 + 3, p16 + 4, p16 + 5, p16 + 6, p16 + 7, p16 + 8, p16 + 9, p16 + 10, p16 + 11, p16 + 12, p16 + 13, p16 + 14, p16 + 15, p16 + 16, p16 + 17, p16 + 18, p16 + 19, p16 + 20, p16 + 21, p16 + 22, p16 + 23, p16 + 24, p16 + 25, p16 + 26, p16 + 27, p16 + 28, p16 + 29, p16 + 30, p16 + 31, p16 + 32, p16 + 33, p16 + 34, p16 + 35, p16 + 36, p16 + 37, p16 + 38, p16 + 39, 12};
Line(17) = {11, 8};
Line(18) = {12, 9};
Curve Loop(1) = {-1, 4, 3, -2};
Plane Surface(1) = {1};
Curve Loop(2) = {-5, 1, 7, -6};
Plane Surface(2) = {2};
Curve Loop(3) = {-2, 7, 9, -8, -10, -11};
Plane Surface(3) = {3};
Curve Loop(4) = {-12, 3, 8, -13};
Plane Surface(4) = {4};
Curve Loop(5) = {-4, 5, 14, -12, -15, -16};
Plane Surface(5) = {5};
Curve Loop(6) = {-6, 14, 13, -9};
Plane Surface(6) = {6};
Curve Loop(7) = {-10, -17, 15, 17};
Surface(7) = {7};
Curve Loop(8) = {-11, -18, 16, 18};
Surface(8) = {8};
Surface Loop(1) = {1, 2, 3, 4, 5, 6, 7, 8};
Volume(1) = {1};
Physical Surface("INFLOW") = {1};
Physical Surface("OUTFLOW") = {6};
Physical Surface("OBSTACLE") = {7, 8};
Physical Surface("WALL_Y") = {2, 4};
Physical Surface("WALL_Z") = {3, 5};
Physical Volume("FLUID") = {1};
