cl__1 = 0.837572;
cl__2 = 0.873674;
cl__3 = 1.456066;
cl__4 = 1.542109;
cl__5 = 0.100257;
cl__6 = 0.062517;
Point(1) = {0.940904, -3.168331, 1, cl__1};
Point(2) = {0.940904, -3.168331, 0, cl__1};
Point(3) = {0.940904, 4.958181999999999, 1, cl__2};
Point(4) = {0.940904, 4.958181999999999, 0, cl__2};
Point(5) = {38.459337, -3.168331, 0, cl__3};
Point(6) = {38.459337, -3.168331, 1, cl__3};
Point(7) = {38.459337, 4.958181999999999, 1, cl__4};
Point(8) = {12.649007, 0.2720599999999997, 1, cl__5};
Point(9) = {25.049045, 0.4131629999999998, 1, cl__6};
Point(10) = {38.459337, 4.958181999999999, 0, cl__4};
Point(11) = {12.649007, 0.2720599999999997, 0, cl__5};
Point(12) = {25.049045, 0.4131629999999998, 0, cl__6};
Line(1) = {2, 1};
Line(2) = {1, 3};
Line(3) = {4, 3};
Line(4) = {2, 4};
Line(5) = {2, 5};
Line(6) = {5, 6};
Line(7) = {1, 6};
Line(8) = {3, 7};
Line(9) = {6, 7};
p10 = newp;
Point(p10 + 1) = {12.63666366269549, 0.4288969709187794, 1};
Point(p10 + 2) = {12.59993758471158, 0.5818720951014742, 1};
Point(p10 + 3) = {12.5397330839751, 0.7272186172953766, 1};
Point(p10 + 4) = {12.45753259510147, 0.8613576237466216, 1};
Point(p10 + 5) = {12.35536016693454, 0.9809861669345403, 1};
Point(p10 + 6) = {12.23573162374662, 1.083158595101474, 1};
Point(p10 + 7) = {12.10159261729538, 1.165359083975104, 1};
Point(p10 + 8) = {11.95624609510147, 1.225563584711581, 1};
Point(p10 + 9) = {11.80327097091878, 1.262289662695489, 1};
Point(p10 + 10) = {11.646434, 1.274633, 1};
Point(p10 + 11) = {11.48959702908122, 1.262289662695489, 1};
Point(p10 + 12) = {11.33662190489853, 1.225563584711581, 1};
Point(p10 + 13) = {11.19127538270462, 1.165359083975104, 1};
Point(p10 + 14) = {11.05713637625338, 1.083158595101474, 1};
Point(p10 + 15) = {10.93750783306546, 0.9809861669345405, 1};
Point(p10 + 16) = {10.83533540489853, 0.8613576237466218, 1};
Point(p10 + 17) = {10.75313491602489, 0.7272186172953767, 1};
Point(p10 + 18) = {10.69293041528842, 0.5818720951014742, 1};
Point(p10 + 19) = {10.65620433730451, 0.4288969709187795, 1};
Point(p10 + 20) = {10.643861, 0.2720600000000001, 1};
Point(p10 + 21) = {10.65620433730451, 0.1152230290812208, 1};
Point(p10 + 22) = {10.69293041528842, -0.03775209510147443, 1};
Point(p10 + 23) = {10.75313491602489, -0.1830986172953761, 1};
Point(p10 + 24) = {10.83533540489853, -0.3172376237466215, 1};
Point(p10 + 25) = {10.93750783306546, -0.4368661669345403, 1};
Point(p10 + 26) = {11.05713637625338, -0.539038595101474, 1};
Point(p10 + 27) = {11.19127538270462, -0.6212390839751043, 1};
Point(p10 + 28) = {11.33662190489853, -0.681443584711581, 1};
Point(p10 + 29) = {11.48959702908122, -0.7181696626954888, 1};
Point(p10 + 30) = {11.646434, -0.730513, 1};
Point(p10 + 31) = {11.80327097091878, -0.718169662695489, 1};
Point(p10 + 32) = {11.95624609510147, -0.681443584711581, 1};
Point(p10 + 33) = {12.10159261729538, -0.6212390839751045, 1};
Point(p10 + 34) = {12.23573162374662, -0.5390385951014742, 1};
Point(p10 + 35) = {12.35536016693454, -0.4368661669345406, 1};
Point(p10 + 36) = {12.45753259510147, -0.3172376237466218, 1};
Point(p10 + 37) = {12.5397330839751, -0.1830986172953768, 1};
Point(p10 + 38) = {12.59993758471158, -0.03775209510147431, 1};
Point(p10 + 39) = {12.63666366269549, 0.1152230290812204, 1};
Spline(10) = {8, p10 + 1, p10 + 2, p10 + 3, p10 + 4, p10 + 5, p10 + 6, p10 + 7, p10 + 8, p10 + 9, p10 + 10, p10 + 11, p10 + 12, p10 + 13, p10 + 14, p10 + 15, p10 + 16, p10 + 17, p10 + 18, p10 + 19, p10 + 20, p10 + 21, p10 + 22, p10 + 23, p10 + 24, p10 + 25, p10 + 26, p10 + 27, p10 + 28, p10 + 29, p10 + 30, p10 + 31, p10 + 32, p10 + 33, p10 + 34, p10 + 35, p10 + 36, p10 + 37, p10 + 38, p10 + 39, 8};
p11 = newp;
Point(p11 + 1) = {25.04134811988986, 0.5109611345092011, 1};
Point(p11 + 2) = {25.01844700229224, 0.6063511543733858, 1};
Point(p11 + 3) = {24.98090554872684, 0.6969842407221725, 1};
Point(p11 + 4) = {24.92964815437339, 0.7806287061756854, 1};
Point(p11 + 5) = {24.86593694639439, 0.8552249463943939, 1};
Point(p11 + 6) = {24.79134070617568, 0.9189361543733858, 1};
Point(p11 + 7) = {24.70769624072217, 0.9701935487268418, 1};
Point(p11 + 8) = {24.61706315437338, 1.007735002292241, 1};
Point(p11 + 9) = {24.5216731345092, 1.030636119889862, 1};
Point(p11 + 10) = {24.423875, 1.038333, 1};
Point(p11 + 11) = {24.3260768654908, 1.030636119889862, 1};
Point(p11 + 12) = {24.23068684562661, 1.007735002292241, 1};
Point(p11 + 13) = {24.14005375927783, 0.970193548726842, 1};
Point(p11 + 14) = {24.05640929382431, 0.9189361543733858, 1};
Point(p11 + 15) = {23.98181305360561, 0.8552249463943939, 1};
Point(p11 + 16) = {23.91810184562661, 0.7806287061756856, 1};
Point(p11 + 17) = {23.86684445127316, 0.6969842407221725, 1};
Point(p11 + 18) = {23.82930299770776, 0.6063511543733859, 1};
Point(p11 + 19) = {23.80640188011014, 0.5109611345092012, 1};
Point(p11 + 20) = {23.798705, 0.4131630000000001, 1};
Point(p11 + 21) = {23.80640188011014, 0.315364865490799, 1};
Point(p11 + 22) = {23.82930299770776, 0.2199748456266139, 1};
Point(p11 + 23) = {23.86684445127316, 0.1293417592778279, 1};
Point(p11 + 24) = {23.91810184562661, 0.04569729382431464, 1};
Point(p11 + 25) = {23.98181305360561, -0.02889894639439389, 1};
Point(p11 + 26) = {24.05640929382431, -0.09261015437338588, 1};
Point(p11 + 27) = {24.14005375927783, -0.1438675487268419, 1};
Point(p11 + 28) = {24.23068684562661, -0.1814090022922412, 1};
Point(p11 + 29) = {24.3260768654908, -0.2043101198898622, 1};
Point(p11 + 30) = {24.423875, -0.212007, 1};
Point(p11 + 31) = {24.5216731345092, -0.2043101198898623, 1};
Point(p11 + 32) = {24.61706315437338, -0.1814090022922412, 1};
Point(p11 + 33) = {24.70769624072217, -0.143867548726842, 1};
Point(p11 + 34) = {24.79134070617568, -0.09261015437338599, 1};
Point(p11 + 35) = {24.86593694639439, -0.028898946394394, 1};
Point(p11 + 36) = {24.92964815437339, 0.04569729382431442, 1};
Point(p11 + 37) = {24.98090554872684, 0.1293417592778274, 1};
Point(p11 + 38) = {25.01844700229224, 0.219974845626614, 1};
Point(p11 + 39) = {25.04134811988986, 0.3153648654907987, 1};
Spline(11) = {9, p11 + 1, p11 + 2, p11 + 3, p11 + 4, p11 + 5, p11 + 6, p11 + 7, p11 + 8, p11 + 9, p11 + 10, p11 + 11, p11 + 12, p11 + 13, p11 + 14, p11 + 15, p11 + 16, p11 + 17, p11 + 18, p11 + 19, p11 + 20, p11 + 21, p11 + 22, p11 + 23, p11 + 24, p11 + 25, p11 + 26, p11 + 27, p11 + 28, p11 + 29, p11 + 30, p11 + 31, p11 + 32, p11 + 33, p11 + 34, p11 + 35, p11 + 36, p11 + 37, p11 + 38, p11 + 39, 9};
Line(12) = {4, 10};
Line(13) = {10, 7};
Line(14) = {5, 10};
p15 = newp;
Point(p15 + 1) = {12.63666366269549, 0.4288969709187794, 0};
Point(p15 + 2) = {12.59993758471158, 0.5818720951014742, 0};
Point(p15 + 3) = {12.5397330839751, 0.7272186172953766, 0};
Point(p15 + 4) = {12.45753259510147, 0.8613576237466216, 0};
Point(p15 + 5) = {12.35536016693454, 0.9809861669345403, 0};
Point(p15 + 6) = {12.23573162374662, 1.083158595101474, 0};
Point(p15 + 7) = {12.10159261729538, 1.165359083975104, 0};
Point(p15 + 8) = {11.95624609510147, 1.225563584711581, 0};
Point(p15 + 9) = {11.80327097091878, 1.262289662695489, 0};
Point(p15 + 10) = {11.646434, 1.274633, 0};
Point(p15 + 11) = {11.48959702908122, 1.262289662695489, 0};
Point(p15 + 12) = {11.33662190489853, 1.225563584711581, 0};
Point(p15 + 13) = {11.19127538270462, 1.165359083975104, 0};
Point(p15 + 14) = {11.05713637625338, 1.083158595101474, 0};
Point(p15 + 15) = {10.93750783306546, 0.9809861669345405, 0};
Point(p15 + 16) = {10.83533540489853, 0.8613576237466218, 0};
Point(p15 + 17) = {10.75313491602489, 0.7272186172953767, 0};
Point(p15 + 18) = {10.69293041528842, 0.5818720951014742, 0};
Point(p15 + 19) = {10.65620433730451, 0.4288969709187795, 0};
Point(p15 + 20) = {10.643861, 0.2720600000000001, 0};
Point(p15 + 21) = {10.65620433730451, 0.1152230290812208, 0};
Point(p15 + 22) = {10.69293041528842, -0.03775209510147443, 0};
Point(p15 + 23) = {10.75313491602489, -0.1830986172953761, 0};
Point(p15 + 24) = {10.83533540489853, -0.3172376237466215, 0};
Point(p15 + 25) = {10.93750783306546, -0.4368661669345403, 0};
Point(p15 + 26) = {11.05713637625338, -0.539038595101474, 0};
Point(p15 + 27) = {11.19127538270462, -0.6212390839751043, 0};
Point(p15 + 28) = {11.33662190489853, -0.681443584711581, 0};
Point(p15 + 29) = {11.48959702908122, -0.7181696626954888, 0};
Point(p15 + 30) = {11.646434, -0.730513, 0};
Point(p15 + 31) = {11.80327097091878, -0.718169662695489, 0};
Point(p15 + 32) = {11.95624609510147, -0.681443584711581, 0};
Point(p15 + 33) = {12.10159261729538, -0.6212390839751045, 0};
Point(p15 + 34) = {12.23573162374662, -0.5390385951014742, 0};
Point(p15 + 35) = {12.35536016693454, -0.4368661669345406, 0};
Point(p15 + 36) = {12.45753259510147, -0.3172376237466218, 0};
Point(p15 + 37) = {12.5397330839751, -0.1830986172953768, 0};
Point(p15 + 38) = {12.59993758471158, -0.03775209510147431, 0};
Point(p15 + 39) = {12.63666366269549, 0.1152230290812204, 0};
Spline(15) = {11, p15 + 1, p15 + 2, p15 + 3, p15 + 4, p15 + 5, p15 + 6, p15 + 7, p15 + 8, p15 + 9, p15 + 10, p15 + 11, p15 + 12, p15 + 13, p15 + 14, p15 + 15, p15 + 16, p15 + 17, p15 + 18, p15 + 19, p15 + 20, p15 + 21, p15 + 22, p15 + 23, p15 + 24, p15 + 25, p15 + 26, p15 + 27, p15 + 28, p15 + 29, p15 + 30, p15 + 31, p15 + 32, p15 + 33, p15 + 34, p15 + 35, p15 + 36, p15 + 37, p15 + 38, p15 + 39, 11};
p16 = newp;
Point(p16 + 1) = {25.04134811988986, 0.5109611345092011, 0};
Point(p16 + 2) = {25.01844700229224, 0.6063511543733858, 0};
Point(p16 + 3) = {24.98090554872684, 0.6969842407221725, 0};
Point(p16 + 4) = {24.92964815437339, 0.7806287061756854, 0};
Point(p16 + 5) = {24.86593694639439, 0.8552249463943939, 0};
Point(p16 + 6) = {24.79134070617568, 0.9189361543733858, 0};
Point(p16 + 7) = {24.70769624072217, 0.9701935487268418, 0};
Point(p16 + 8) = {24.61706315437338, 1.007735002292241, 0};
Point(p16 + 9) = {24.5216731345092, 1.030636119889862, 0};
Point(p16 + 10) = {24.423875, 1.038333, 0};
Point(p16 + 11) = {24.3260768654908, 1.030636119889862, 0};
Point(p16 + 12) = {24.23068684562661, 1.007735002292241, 0};
Point(p16 + 13) = {24.14005375927783, 0.970193548726842, 0};
Point(p16 + 14) = {24.05640929382431, 0.9189361543733858, 0};
Point(p16 + 15) = {23.98181305360561, 0.8552249463943939, 0};
Point(p16 + 16) = {23.91810184562661, 0.7806287061756856, 0};
Point(p16 + 17) = {23.86684445127316, 0.6969842407221725, 0};
Point(p16 + 18) = {23.82930299770776, 0.6063511543733859, 0};
Point(p16 + 19) = {23.80640188011014, 0.5109611345092012, 0};
Point(p16 + 20) = {23.798705, 0.4131630000000001, 0};
Point(p16 + 21) = {23.80640188011014, 0.315364865490799, 0};
Point(p16 + 22) = {23.82930299770776, 0.2199748456266139, 0};
Point(p16 + 23) = {23.86684445127316, 0.1293417592778279, 0};
Point(p16 + 24) = {23.91810184562661, 0.04569729382431464, 0};
Point(p16 + 25) = {23.98181305360561, -0.02889894639439389, 0};
Point(p16 + 26) = {24.05640929382431, -0.09261015437338588, 0};
Point(p16 + 27) = {24.14005375927783, -0.1438675487268419, 0};
Point(p16 + 28) = {24.23068684562661, -0.1814090022922412, 0};
Point(p16 + 29) = {24.3260768654908, -0.2043101198898622, 0};
Point(p16 + 30) = {24.423875, -0.212007, 0};
Point(p16 + 31) = {24.5216731345092, -0.2043101198898623, 0};
Point(p16 + 32) = {24.61706315437338, -0.1814090022922412, 0};
Point(p16 + 33) = {24.70769624072217, -0.143867548726842, 0};
Point(p16 + 34) = {24.79134070617568, -0.09261015437338599, 0};
Point(p16 + 35) = {24.86593694639439, -0.028898946394394, 0};
Point(p16 + 36) = {24.92964815437339, 0.04569729382431442, 0};
Point(p16 + 37) = {24.98090554872684, 0.1293417592778274, 0};
Point(p16 + 38) = {25.01844700229224, 0.219974845626614, 0};
Point(p16 + 39) = {25.04134811988986, 0.3153648654907987, 0};
Spline(16) = {12, p16 + 1, p16 + 2, p16 + 3, p16 + 4, p16 + 5, p16 + 6, p16 + 7, p16 + 8, p16 + 9, p16 + 10, p16 + 11, p16 + 12, p16 + 13, p16 + 14, p16 + 15, p16 + 16, p16 + 17, p16 + 18, p16 + 19, p16 + 20, p16 + 21, p16 + 22, p16 + 23, p16 + 24, p16 + 25, p16 + 26, p16 + 27, p16 + 28, p16 + 29, p16 + 30, p16 + 31, p16 + 32, p16 + 33, p16 + 34, p16 + 35, p16 + 36, p16 + 37, p16 + 38, p16 + 39, 12};
Line(17) = {11, 8};
Line(18) = {12, 9};
Curve Loop(1) = {-1, 4, 3, -2};
Plane Surface(1) = {1};
Curve Loop(2) = {-5, 1, 7, -6};
Plane Surface(2) = {2};
Curve Loop(3) = {-2, 7, 9, -8, -10, -11};
Plane Surface(3) = {3};
Curve Loop(4) = {-12, 3, 8, -13};
Plane Surface(4) = {4};
Curve Loop(5) = {-4, 5, 14, -12, -15, -16};
Plane Surface(5) = {5};
Curve Loop(6) = {-6, 14, 13, -9};
Plane Surface(6) = {6};
Curve Loop(7) = {-10, -17, 15, 17};
Surface(7) = {7};
Curve Loop(8) = {-11, -18, 16, 18};
Surface(8) = {8};
Surface Loop(1) = {1, 2, 3, 4, 5, 6, 7, 8};
Volume(1) = {1};
Physical Surface("INFLOW") = {1};
Physical Surface("OUTFLOW") = {6};
Physical Surface("OBSTACLE") = {7, 8};
Physical Surface("WALL_Y") = {2, 4};
Physical Surface("WALL_Z") = {3, 5};
Physical Volume("FLUID") = {1};
