cl__1 = 4.168325;
cl__2 = 4.603287;
cl__3 = 0.421927;
cl__4 = 0.305212;
cl__5 = 0.081301;
cl__6 = 0.142624;
Point(1) = {0.317317, -3.365629, 1, cl__1};
Point(2) = {0.317317, -3.365629, 0, cl__1};
Point(3) = {0.317317, 4.426476, 1, cl__2};
Point(4) = {0.317317, 4.426476, 0, cl__2};
Point(5) = {31.417957, -3.365629, 0, cl__3};
Point(6) = {31.417957, -3.365629, 1, cl__3};
Point(7) = {31.417957, 4.426476, 1, cl__4};
Point(8) = {24.739793, -1.840823, 1, cl__5};
Point(9) = {27.654075, 1.931066, 1, cl__6};
Point(10) = {31.417957, 4.426476, 0, cl__4};
Point(11) = {24.739793, -1.840823, 0, cl__5};
Point(12) = {27.654075, 1.931066, 0, cl__6};
Line(1) = {2, 1};
Line(2) = {1, 3};
Line(3) = {4, 3};
Line(4) = {2, 4};
Line(5) = {2, 5};
Line(6) = {5, 6};
Line(7) = {1, 6};
Line(8) = {3, 7};
Line(9) = {6, 7};
p10 = newp;
Point(p10 + 1) = {24.72978349778725, -1.713640215577642, 1};
Point(p10 + 2) = {24.70000145831312, -1.589589093403224, 1};
Point(p10 + 3) = {24.65118021423039, -1.471724183806751, 1};
Point(p10 + 4) = {24.58452190659678, -1.362947712033697, 1};
Point(p10 + 5) = {24.50166788417248, -1.265938115827525, 1};
Point(p10 + 6) = {24.4046582879663, -1.183084093403224, 1};
Point(p10 + 7) = {24.29588181619325, -1.116425785769615, 1};
Point(p10 + 8) = {24.17801690659678, -1.067604541686877, 1};
Point(p10 + 9) = {24.05396578442236, -1.037822502212747, 1};
Point(p10 + 10) = {23.926783, -1.027813, 1};
Point(p10 + 11) = {23.79960021557764, -1.037822502212747, 1};
Point(p10 + 12) = {23.67554909340322, -1.067604541686877, 1};
Point(p10 + 13) = {23.55768418380675, -1.116425785769615, 1};
Point(p10 + 14) = {23.4489077120337, -1.183084093403224, 1};
Point(p10 + 15) = {23.35189811582752, -1.265938115827525, 1};
Point(p10 + 16) = {23.26904409340322, -1.362947712033696, 1};
Point(p10 + 17) = {23.20238578576961, -1.471724183806751, 1};
Point(p10 + 18) = {23.15356454168688, -1.589589093403224, 1};
Point(p10 + 19) = {23.12378250221275, -1.713640215577642, 1};
Point(p10 + 20) = {23.113773, -1.840823, 1};
Point(p10 + 21) = {23.12378250221275, -1.968005784422358, 1};
Point(p10 + 22) = {23.15356454168688, -2.092056906596776, 1};
Point(p10 + 23) = {23.20238578576961, -2.209921816193249, 1};
Point(p10 + 24) = {23.26904409340322, -2.318698287966304, 1};
Point(p10 + 25) = {23.35189811582752, -2.415707884172475, 1};
Point(p10 + 26) = {23.4489077120337, -2.498561906596776, 1};
Point(p10 + 27) = {23.55768418380675, -2.565220214230385, 1};
Point(p10 + 28) = {23.67554909340322, -2.614041458313123, 1};
Point(p10 + 29) = {23.79960021557764, -2.643823497787253, 1};
Point(p10 + 30) = {23.926783, -2.653833, 1};
Point(p10 + 31) = {24.05396578442236, -2.643823497787253, 1};
Point(p10 + 32) = {24.17801690659678, -2.614041458313123, 1};
Point(p10 + 33) = {24.29588181619325, -2.565220214230385, 1};
Point(p10 + 34) = {24.4046582879663, -2.498561906596776, 1};
Point(p10 + 35) = {24.50166788417248, -2.415707884172475, 1};
Point(p10 + 36) = {24.58452190659678, -2.318698287966304, 1};
Point(p10 + 37) = {24.65118021423039, -2.209921816193249, 1};
Point(p10 + 38) = {24.70000145831312, -2.092056906596776, 1};
Point(p10 + 39) = {24.72978349778725, -1.968005784422358, 1};
Spline(10) = {8, p10 + 1, p10 + 2, p10 + 3, p10 + 4, p10 + 5, p10 + 6, p10 + 7, p10 + 8, p10 + 9, p10 + 10, p10 + 11, p10 + 12, p10 + 13, p10 + 14, p10 + 15, p10 + 16, p10 + 17, p10 + 18, p10 + 19, p10 + 20, p10 + 21, p10 + 22, p10 + 23, p10 + 24, p10 + 25, p10 + 26, p10 + 27, p10 + 28, p10 + 29, p10 + 30, p10 + 31, p10 + 32, p10 + 33, p10 + 34, p10 + 35, p10 + 36, p10 + 37, p10 + 38, p10 + 39, 8};
p11 = newp;
Point(p11 + 1) = {27.63651565582538, 2.154178622115584, 1};
Point(p11 + 2) = {27.58426999263125, 2.371797471006342, 1};
Point(p11 + 3) = {27.49862447203884, 2.578564048377032, 1};
Point(p11 + 4) = {27.38168797100634, 2.76938707487386, 1};
Point(p11 + 5) = {27.23633985427916, 2.939567854279158, 1};
Point(p11 + 6) = {27.06615907487386, 3.084915971006342, 1};
Point(p11 + 7) = {26.87533604837703, 3.201852472038845, 1};
Point(p11 + 8) = {26.66856947100634, 3.287497992631251, 1};
Point(p11 + 9) = {26.45095062211558, 3.339743655825387, 1};
Point(p11 + 10) = {26.227838, 3.357303, 1};
Point(p11 + 11) = {26.00472537788442, 3.339743655825387, 1};
Point(p11 + 12) = {25.78710652899366, 3.287497992631251, 1};
Point(p11 + 13) = {25.58033995162297, 3.201852472038845, 1};
Point(p11 + 14) = {25.38951692512614, 3.084915971006342, 1};
Point(p11 + 15) = {25.21933614572084, 2.939567854279158, 1};
Point(p11 + 16) = {25.07398802899366, 2.76938707487386, 1};
Point(p11 + 17) = {24.95705152796115, 2.578564048377032, 1};
Point(p11 + 18) = {24.87140600736875, 2.371797471006342, 1};
Point(p11 + 19) = {24.81916034417461, 2.154178622115584, 1};
Point(p11 + 20) = {24.801601, 1.931066, 1};
Point(p11 + 21) = {24.81916034417461, 1.707953377884416, 1};
Point(p11 + 22) = {24.87140600736875, 1.490334528993658, 1};
Point(p11 + 23) = {24.95705152796115, 1.283567951622969, 1};
Point(p11 + 24) = {25.07398802899366, 1.09274492512614, 1};
Point(p11 + 25) = {25.21933614572084, 0.922564145720842, 1};
Point(p11 + 26) = {25.38951692512614, 0.7772160289936583, 1};
Point(p11 + 27) = {25.58033995162297, 0.6602795279611549, 1};
Point(p11 + 28) = {25.78710652899366, 0.574634007368749, 1};
Point(p11 + 29) = {26.00472537788442, 0.5223883441746127, 1};
Point(p11 + 30) = {26.227838, 0.504829, 1};
Point(p11 + 31) = {26.45095062211558, 0.5223883441746124, 1};
Point(p11 + 32) = {26.66856947100634, 0.574634007368749, 1};
Point(p11 + 33) = {26.87533604837703, 0.6602795279611546, 1};
Point(p11 + 34) = {27.06615907487386, 0.7772160289936578, 1};
Point(p11 + 35) = {27.23633985427916, 0.9225641457208418, 1};
Point(p11 + 36) = {27.38168797100634, 1.09274492512614, 1};
Point(p11 + 37) = {27.49862447203884, 1.283567951622968, 1};
Point(p11 + 38) = {27.58426999263125, 1.490334528993658, 1};
Point(p11 + 39) = {27.63651565582538, 1.707953377884416, 1};
Spline(11) = {9, p11 + 1, p11 + 2, p11 + 3, p11 + 4, p11 + 5, p11 + 6, p11 + 7, p11 + 8, p11 + 9, p11 + 10, p11 + 11, p11 + 12, p11 + 13, p11 + 14, p11 + 15, p11 + 16, p11 + 17, p11 + 18, p11 + 19, p11 + 20, p11 + 21, p11 + 22, p11 + 23, p11 + 24, p11 + 25, p11 + 26, p11 + 27, p11 + 28, p11 + 29, p11 + 30, p11 + 31, p11 + 32, p11 + 33, p11 + 34, p11 + 35, p11 + 36, p11 + 37, p11 + 38, p11 + 39, 9};
Line(12) = {4, 10};
Line(13) = {10, 7};
Line(14) = {5, 10};
p15 = newp;
Point(p15 + 1) = {24.72978349778725, -1.713640215577642, 0};
Point(p15 + 2) = {24.70000145831312, -1.589589093403224, 0};
Point(p15 + 3) = {24.65118021423039, -1.471724183806751, 0};
Point(p15 + 4) = {24.58452190659678, -1.362947712033697, 0};
Point(p15 + 5) = {24.50166788417248, -1.265938115827525, 0};
Point(p15 + 6) = {24.4046582879663, -1.183084093403224, 0};
Point(p15 + 7) = {24.29588181619325, -1.116425785769615, 0};
Point(p15 + 8) = {24.17801690659678, -1.067604541686877, 0};
Point(p15 + 9) = {24.05396578442236, -1.037822502212747, 0};
Point(p15 + 10) = {23.926783, -1.027813, 0};
Point(p15 + 11) = {23.79960021557764, -1.037822502212747, 0};
Point(p15 + 12) = {23.67554909340322, -1.067604541686877, 0};
Point(p15 + 13) = {23.55768418380675, -1.116425785769615, 0};
Point(p15 + 14) = {23.4489077120337, -1.183084093403224, 0};
Point(p15 + 15) = {23.35189811582752, -1.265938115827525, 0};
Point(p15 + 16) = {23.26904409340322, -1.362947712033696, 0};
Point(p15 + 17) = {23.20238578576961, -1.471724183806751, 0};
Point(p15 + 18) = {23.15356454168688, -1.589589093403224, 0};
Point(p15 + 19) = {23.12378250221275, -1.713640215577642, 0};
Point(p15 + 20) = {23.113773, -1.840823, 0};
Point(p15 + 21) = {23.12378250221275, -1.968005784422358, 0};
Point(p15 + 22) = {23.15356454168688, -2.092056906596776, 0};
Point(p15 + 23) = {23.20238578576961, -2.209921816193249, 0};
Point(p15 + 24) = {23.26904409340322, -2.318698287966304, 0};
Point(p15 + 25) = {23.35189811582752, -2.415707884172475, 0};
Point(p15 + 26) = {23.4489077120337, -2.498561906596776, 0};
Point(p15 + 27) = {23.55768418380675, -2.565220214230385, 0};
Point(p15 + 28) = {23.67554909340322, -2.614041458313123, 0};
Point(p15 + 29) = {23.79960021557764, -2.643823497787253, 0};
Point(p15 + 30) = {23.926783, -2.653833, 0};
Point(p15 + 31) = {24.05396578442236, -2.643823497787253, 0};
Point(p15 + 32) = {24.17801690659678, -2.614041458313123, 0};
Point(p15 + 33) = {24.29588181619325, -2.565220214230385, 0};
Point(p15 + 34) = {24.4046582879663, -2.498561906596776, 0};
Point(p15 + 35) = {24.50166788417248, -2.415707884172475, 0};
Point(p15 + 36) = {24.58452190659678, -2.318698287966304, 0};
Point(p15 + 37) = {24.65118021423039, -2.209921816193249, 0};
Point(p15 + 38) = {24.70000145831312, -2.092056906596776, 0};
Point(p15 + 39) = {24.72978349778725, -1.968005784422358, 0};
Spline(15) = {11, p15 + 1, p15 + 2, p15 + 3, p15 + 4, p15 + 5, p15 + 6, p15 + 7, p15 + 8, p15 + 9, p15 + 10, p15 + 11, p15 + 12, p15 + 13, p15 + 14, p15 + 15, p15 + 16, p15 + 17, p15 + 18, p15 + 19, p15 + 20, p15 + 21, p15 + 22, p15 + 23, p15 + 24, p15 + 25, p15 + 26, p15 + 27, p15 + 28, p15 + 29, p15 + 30, p15 + 31, p15 + 32, p15 + 33, p15 + 34, p15 + 35, p15 + 36, p15 + 37, p15 + 38, p15 + 39, 11};
p16 = newp;
Point(p16 + 1) = {27.63651565582538, 2.154178622115584, 0};
Point(p16 + 2) = {27.58426999263125, 2.371797471006342, 0};
Point(p16 + 3) = {27.49862447203884, 2.578564048377032, 0};
Point(p16 + 4) = {27.38168797100634, 2.76938707487386, 0};
Point(p16 + 5) = {27.23633985427916, 2.939567854279158, 0};
Point(p16 + 6) = {27.06615907487386, 3.084915971006342, 0};
Point(p16 + 7) = {26.87533604837703, 3.201852472038845, 0};
Point(p16 + 8) = {26.66856947100634, 3.287497992631251, 0};
Point(p16 + 9) = {26.45095062211558, 3.339743655825387, 0};
Point(p16 + 10) = {26.227838, 3.357303, 0};
Point(p16 + 11) = {26.00472537788442, 3.339743655825387, 0};
Point(p16 + 12) = {25.78710652899366, 3.287497992631251, 0};
Point(p16 + 13) = {25.58033995162297, 3.201852472038845, 0};
Point(p16 + 14) = {25.38951692512614, 3.084915971006342, 0};
Point(p16 + 15) = {25.21933614572084, 2.939567854279158, 0};
Point(p16 + 16) = {25.07398802899366, 2.76938707487386, 0};
Point(p16 + 17) = {24.95705152796115, 2.578564048377032, 0};
Point(p16 + 18) = {24.87140600736875, 2.371797471006342, 0};
Point(p16 + 19) = {24.81916034417461, 2.154178622115584, 0};
Point(p16 + 20) = {24.801601, 1.931066, 0};
Point(p16 + 21) = {24.81916034417461, 1.707953377884416, 0};
Point(p16 + 22) = {24.87140600736875, 1.490334528993658, 0};
Point(p16 + 23) = {24.95705152796115, 1.283567951622969, 0};
Point(p16 + 24) = {25.07398802899366, 1.09274492512614, 0};
Point(p16 + 25) = {25.21933614572084, 0.922564145720842, 0};
Point(p16 + 26) = {25.38951692512614, 0.7772160289936583, 0};
Point(p16 + 27) = {25.58033995162297, 0.6602795279611549, 0};
Point(p16 + 28) = {25.78710652899366, 0.574634007368749, 0};
Point(p16 + 29) = {26.00472537788442, 0.5223883441746127, 0};
Point(p16 + 30) = {26.227838, 0.504829, 0};
Point(p16 + 31) = {26.45095062211558, 0.5223883441746124, 0};
Point(p16 + 32) = {26.66856947100634, 0.574634007368749, 0};
Point(p16 + 33) = {26.87533604837703, 0.6602795279611546, 0};
Point(p16 + 34) = {27.06615907487386, 0.7772160289936578, 0};
Point(p16 + 35) = {27.23633985427916, 0.9225641457208418, 0};
Point(p16 + 36) = {27.38168797100634, 1.09274492512614, 0};
Point(p16 + 37) = {27.49862447203884, 1.283567951622968, 0};
Point(p16 + 38) = {27.58426999263125, 1.490334528993658, 0};
Point(p16 + 39) = {27.63651565582538, 1.707953377884416, 0};
Spline(16) = {12, p16 + 1, p16 + 2, p16 + 3, p16 + 4, p16 + 5, p16 + 6, p16 + 7, p16 + 8, p16 + 9, p16 + 10, p16 + 11, p16 + 12, p16 + 13, p16 + 14, p16 + 15, p16 + 16, p16 + 17, p16 + 18, p16 + 19, p16 + 20, p16 + 21, p16 + 22, p16 + 23, p16 + 24, p16 + 25, p16 + 26, p16 + 27, p16 + 28, p16 + 29, p16 + 30, p16 + 31, p16 + 32, p16 + 33, p16 + 34, p16 + 35, p16 + 36, p16 + 37, p16 + 38, p16 + 39, 12};
Line(17) = {11, 8};
Line(18) = {12, 9};
Curve Loop(1) = {-1, 4, 3, -2};
Plane Surface(1) = {1};
Curve Loop(2) = {-5, 1, 7, -6};
Plane Surface(2) = {2};
Curve Loop(3) = {-2, 7, 9, -8, -10, -11};
Plane Surface(3) = {3};
Curve Loop(4) = {-12, 3, 8, -13};
Plane Surface(4) = {4};
Curve Loop(5) = {-4, 5, 14, -12, -15, -16};
Plane Surface(5) = {5};
Curve Loop(6) = {-6, 14, 13, -9};
Plane Surface(6) = {6};
Curve Loop(7) = {-10, -17, 15, 17};
Surface(7) = {7};
Curve Loop(8) = {-11, -18, 16, 18};
Surface(8) = {8};
Surface Loop(1) = {1, 2, 3, 4, 5, 6, 7, 8};
Volume(1) = {1};
Physical Surface("INFLOW") = {1};
Physical Surface("OUTFLOW") = {6};
Physical Surface("OBSTACLE") = {7, 8};
Physical Surface("WALL_Y") = {2, 4};
Physical Surface("WALL_Z") = {3, 5};
Physical Volume("FLUID") = {1};
