cl__1 = 2.962642;
cl__2 = 0.936879;
cl__3 = 0.708807;
cl__4 = 0.918076;
cl__5 = 0.068902;
cl__6 = 0.07832699999999999;
Point(1) = {0.696708, -4.24871, 1, cl__1};
Point(2) = {0.696708, -4.24871, 0, cl__1};
Point(3) = {0.696708, 4.444143, 1, cl__2};
Point(4) = {0.696708, 4.444143, 0, cl__2};
Point(5) = {31.338831, -4.24871, 0, cl__3};
Point(6) = {31.338831, -4.24871, 1, cl__3};
Point(7) = {31.338831, 4.444143, 1, cl__4};
Point(8) = {28.165852, -0.7941210000000001, 1, cl__5};
Point(9) = {8.069948999999998, 3.121197, 1, cl__6};
Point(10) = {31.338831, 4.444143, 0, cl__4};
Point(11) = {28.165852, -0.7941210000000001, 0, cl__5};
Point(12) = {8.069948999999998, 3.121197, 0, cl__6};
Line(1) = {2, 1};
Line(2) = {1, 3};
Line(3) = {4, 3};
Line(4) = {2, 4};
Line(5) = {2, 5};
Line(6) = {5, 6};
Line(7) = {1, 6};
Line(8) = {3, 7};
Line(9) = {6, 7};
p10 = newp;
Point(p10 + 1) = {28.1573690081252, -0.686334368463515, 1};
Point(p10 + 2) = {28.1321289119142, -0.5812018015187793, 1};
Point(p10 + 3) = {28.09075320630279, -0.4813120118789577, 1};
Point(p10 + 4) = {28.03426069848122, -0.3891246176801879, 1};
Point(p10 + 5) = {27.96404242147994, -0.3069095785200638, 1};
Point(p10 + 6) = {27.88182738231981, -0.2366913015187793, 1};
Point(p10 + 7) = {27.78963998812104, -0.1801987936972066, 1};
Point(p10 + 8) = {27.68975019848122, -0.138823088085797, 1};
Point(p10 + 9) = {27.58461763153649, -0.1135829918747976, 1};
Point(p10 + 10) = {27.476831, -0.1051, 1};
Point(p10 + 11) = {27.36904436846352, -0.1135829918747976, 1};
Point(p10 + 12) = {27.26391180151878, -0.1388230880857969, 1};
Point(p10 + 13) = {27.16402201187896, -0.1801987936972065, 1};
Point(p10 + 14) = {27.07183461768019, -0.2366913015187793, 1};
Point(p10 + 15) = {26.98961957852006, -0.3069095785200638, 1};
Point(p10 + 16) = {26.91940130151878, -0.3891246176801877, 1};
Point(p10 + 17) = {26.86290879369721, -0.4813120118789577, 1};
Point(p10 + 18) = {26.8215330880858, -0.5812018015187792, 1};
Point(p10 + 19) = {26.7962929918748, -0.686334368463515, 1};
Point(p10 + 20) = {26.78781, -0.7941209999999999, 1};
Point(p10 + 21) = {26.7962929918748, -0.9019076315364848, 1};
Point(p10 + 22) = {26.8215330880858, -1.007040198481221, 1};
Point(p10 + 23) = {26.86290879369721, -1.106929988121042, 1};
Point(p10 + 24) = {26.91940130151878, -1.199117382319812, 1};
Point(p10 + 25) = {26.98961957852006, -1.281332421479936, 1};
Point(p10 + 26) = {27.07183461768019, -1.35155069848122, 1};
Point(p10 + 27) = {27.16402201187896, -1.408043206302793, 1};
Point(p10 + 28) = {27.26391180151878, -1.449418911914203, 1};
Point(p10 + 29) = {27.36904436846352, -1.474659008125202, 1};
Point(p10 + 30) = {27.476831, -1.483142, 1};
Point(p10 + 31) = {27.58461763153649, -1.474659008125202, 1};
Point(p10 + 32) = {27.68975019848122, -1.449418911914203, 1};
Point(p10 + 33) = {27.78963998812104, -1.408043206302793, 1};
Point(p10 + 34) = {27.88182738231981, -1.351550698481221, 1};
Point(p10 + 35) = {27.96404242147994, -1.281332421479936, 1};
Point(p10 + 36) = {28.03426069848122, -1.199117382319812, 1};
Point(p10 + 37) = {28.09075320630279, -1.106929988121042, 1};
Point(p10 + 38) = {28.1321289119142, -1.007040198481221, 1};
Point(p10 + 39) = {28.1573690081252, -0.901907631536485, 1};
Spline(10) = {8, p10 + 1, p10 + 2, p10 + 3, p10 + 4, p10 + 5, p10 + 6, p10 + 7, p10 + 8, p10 + 9, p10 + 10, p10 + 11, p10 + 12, p10 + 13, p10 + 14, p10 + 15, p10 + 16, p10 + 17, p10 + 18, p10 + 19, p10 + 20, p10 + 21, p10 + 22, p10 + 23, p10 + 24, p10 + 25, p10 + 26, p10 + 27, p10 + 28, p10 + 29, p10 + 30, p10 + 31, p10 + 32, p10 + 33, p10 + 34, p10 + 35, p10 + 36, p10 + 37, p10 + 38, p10 + 39, 8};
p11 = newp;
Point(p11 + 1) = {8.060305683472931, 3.243726954128666, 1};
Point(p11 + 2) = {8.031613184348956, 3.363239814133082, 1};
Point(p11 + 3) = {7.98457800718145, 3.476792776759495, 1};
Point(p11 + 4) = {7.920358314133082, 3.581589791207369, 1};
Point(p11 + 5) = {7.840535407179644, 3.675050407179643, 1};
Point(p11 + 6) = {7.747074791207369, 3.754873314133082, 1};
Point(p11 + 7) = {7.642277776759496, 3.81909300718145, 1};
Point(p11 + 8) = {7.528724814133082, 3.866128184348956, 1};
Point(p11 + 9) = {7.409211954128667, 3.894820683472932, 1};
Point(p11 + 10) = {7.286682, 3.904464, 1};
Point(p11 + 11) = {7.164152045871333, 3.894820683472932, 1};
Point(p11 + 12) = {7.044639185866918, 3.866128184348956, 1};
Point(p11 + 13) = {6.931086223240504, 3.819093007181451, 1};
Point(p11 + 14) = {6.826289208792631, 3.754873314133082, 1};
Point(p11 + 15) = {6.732828592820356, 3.675050407179643, 1};
Point(p11 + 16) = {6.653005685866918, 3.581589791207369, 1};
Point(p11 + 17) = {6.58878599281855, 3.476792776759495, 1};
Point(p11 + 18) = {6.541750815651044, 3.363239814133082, 1};
Point(p11 + 19) = {6.513058316527069, 3.243726954128666, 1};
Point(p11 + 20) = {6.503415, 3.121197, 1};
Point(p11 + 21) = {6.513058316527068, 2.998667045871334, 1};
Point(p11 + 22) = {6.541750815651044, 2.879154185866918, 1};
Point(p11 + 23) = {6.588785992818549, 2.765601223240505, 1};
Point(p11 + 24) = {6.653005685866917, 2.660804208792631, 1};
Point(p11 + 25) = {6.732828592820356, 2.567343592820357, 1};
Point(p11 + 26) = {6.826289208792631, 2.487520685866918, 1};
Point(p11 + 27) = {6.931086223240504, 2.42330099281855, 1};
Point(p11 + 28) = {7.044639185866918, 2.376265815651044, 1};
Point(p11 + 29) = {7.164152045871333, 2.347573316527068, 1};
Point(p11 + 30) = {7.286682, 2.33793, 1};
Point(p11 + 31) = {7.409211954128666, 2.347573316527068, 1};
Point(p11 + 32) = {7.528724814133081, 2.376265815651044, 1};
Point(p11 + 33) = {7.642277776759496, 2.423300992818549, 1};
Point(p11 + 34) = {7.747074791207369, 2.487520685866918, 1};
Point(p11 + 35) = {7.840535407179643, 2.567343592820357, 1};
Point(p11 + 36) = {7.920358314133082, 2.660804208792631, 1};
Point(p11 + 37) = {7.98457800718145, 2.765601223240504, 1};
Point(p11 + 38) = {8.031613184348956, 2.879154185866918, 1};
Point(p11 + 39) = {8.060305683472931, 2.998667045871333, 1};
Spline(11) = {9, p11 + 1, p11 + 2, p11 + 3, p11 + 4, p11 + 5, p11 + 6, p11 + 7, p11 + 8, p11 + 9, p11 + 10, p11 + 11, p11 + 12, p11 + 13, p11 + 14, p11 + 15, p11 + 16, p11 + 17, p11 + 18, p11 + 19, p11 + 20, p11 + 21, p11 + 22, p11 + 23, p11 + 24, p11 + 25, p11 + 26, p11 + 27, p11 + 28, p11 + 29, p11 + 30, p11 + 31, p11 + 32, p11 + 33, p11 + 34, p11 + 35, p11 + 36, p11 + 37, p11 + 38, p11 + 39, 9};
Line(12) = {4, 10};
Line(13) = {10, 7};
Line(14) = {5, 10};
p15 = newp;
Point(p15 + 1) = {28.1573690081252, -0.686334368463515, 0};
Point(p15 + 2) = {28.1321289119142, -0.5812018015187793, 0};
Point(p15 + 3) = {28.09075320630279, -0.4813120118789577, 0};
Point(p15 + 4) = {28.03426069848122, -0.3891246176801879, 0};
Point(p15 + 5) = {27.96404242147994, -0.3069095785200638, 0};
Point(p15 + 6) = {27.88182738231981, -0.2366913015187793, 0};
Point(p15 + 7) = {27.78963998812104, -0.1801987936972066, 0};
Point(p15 + 8) = {27.68975019848122, -0.138823088085797, 0};
Point(p15 + 9) = {27.58461763153649, -0.1135829918747976, 0};
Point(p15 + 10) = {27.476831, -0.1051, 0};
Point(p15 + 11) = {27.36904436846352, -0.1135829918747976, 0};
Point(p15 + 12) = {27.26391180151878, -0.1388230880857969, 0};
Point(p15 + 13) = {27.16402201187896, -0.1801987936972065, 0};
Point(p15 + 14) = {27.07183461768019, -0.2366913015187793, 0};
Point(p15 + 15) = {26.98961957852006, -0.3069095785200638, 0};
Point(p15 + 16) = {26.91940130151878, -0.3891246176801877, 0};
Point(p15 + 17) = {26.86290879369721, -0.4813120118789577, 0};
Point(p15 + 18) = {26.8215330880858, -0.5812018015187792, 0};
Point(p15 + 19) = {26.7962929918748, -0.686334368463515, 0};
Point(p15 + 20) = {26.78781, -0.7941209999999999, 0};
Point(p15 + 21) = {26.7962929918748, -0.9019076315364848, 0};
Point(p15 + 22) = {26.8215330880858, -1.007040198481221, 0};
Point(p15 + 23) = {26.86290879369721, -1.106929988121042, 0};
Point(p15 + 24) = {26.91940130151878, -1.199117382319812, 0};
Point(p15 + 25) = {26.98961957852006, -1.281332421479936, 0};
Point(p15 + 26) = {27.07183461768019, -1.35155069848122, 0};
Point(p15 + 27) = {27.16402201187896, -1.408043206302793, 0};
Point(p15 + 28) = {27.26391180151878, -1.449418911914203, 0};
Point(p15 + 29) = {27.36904436846352, -1.474659008125202, 0};
Point(p15 + 30) = {27.476831, -1.483142, 0};
Point(p15 + 31) = {27.58461763153649, -1.474659008125202, 0};
Point(p15 + 32) = {27.68975019848122, -1.449418911914203, 0};
Point(p15 + 33) = {27.78963998812104, -1.408043206302793, 0};
Point(p15 + 34) = {27.88182738231981, -1.351550698481221, 0};
Point(p15 + 35) = {27.96404242147994, -1.281332421479936, 0};
Point(p15 + 36) = {28.03426069848122, -1.199117382319812, 0};
Point(p15 + 37) = {28.09075320630279, -1.106929988121042, 0};
Point(p15 + 38) = {28.1321289119142, -1.007040198481221, 0};
Point(p15 + 39) = {28.1573690081252, -0.901907631536485, 0};
Spline(15) = {11, p15 + 1, p15 + 2, p15 + 3, p15 + 4, p15 + 5, p15 + 6, p15 + 7, p15 + 8, p15 + 9, p15 + 10, p15 + 11, p15 + 12, p15 + 13, p15 + 14, p15 + 15, p15 + 16, p15 + 17, p15 + 18, p15 + 19, p15 + 20, p15 + 21, p15 + 22, p15 + 23, p15 + 24, p15 + 25, p15 + 26, p15 + 27, p15 + 28, p15 + 29, p15 + 30, p15 + 31, p15 + 32, p15 + 33, p15 + 34, p15 + 35, p15 + 36, p15 + 37, p15 + 38, p15 + 39, 11};
p16 = newp;
Point(p16 + 1) = {8.060305683472931, 3.243726954128666, 0};
Point(p16 + 2) = {8.031613184348956, 3.363239814133082, 0};
Point(p16 + 3) = {7.98457800718145, 3.476792776759495, 0};
Point(p16 + 4) = {7.920358314133082, 3.581589791207369, 0};
Point(p16 + 5) = {7.840535407179644, 3.675050407179643, 0};
Point(p16 + 6) = {7.747074791207369, 3.754873314133082, 0};
Point(p16 + 7) = {7.642277776759496, 3.81909300718145, 0};
Point(p16 + 8) = {7.528724814133082, 3.866128184348956, 0};
Point(p16 + 9) = {7.409211954128667, 3.894820683472932, 0};
Point(p16 + 10) = {7.286682, 3.904464, 0};
Point(p16 + 11) = {7.164152045871333, 3.894820683472932, 0};
Point(p16 + 12) = {7.044639185866918, 3.866128184348956, 0};
Point(p16 + 13) = {6.931086223240504, 3.819093007181451, 0};
Point(p16 + 14) = {6.826289208792631, 3.754873314133082, 0};
Point(p16 + 15) = {6.732828592820356, 3.675050407179643, 0};
Point(p16 + 16) = {6.653005685866918, 3.581589791207369, 0};
Point(p16 + 17) = {6.58878599281855, 3.476792776759495, 0};
Point(p16 + 18) = {6.541750815651044, 3.363239814133082, 0};
Point(p16 + 19) = {6.513058316527069, 3.243726954128666, 0};
Point(p16 + 20) = {6.503415, 3.121197, 0};
Point(p16 + 21) = {6.513058316527068, 2.998667045871334, 0};
Point(p16 + 22) = {6.541750815651044, 2.879154185866918, 0};
Point(p16 + 23) = {6.588785992818549, 2.765601223240505, 0};
Point(p16 + 24) = {6.653005685866917, 2.660804208792631, 0};
Point(p16 + 25) = {6.732828592820356, 2.567343592820357, 0};
Point(p16 + 26) = {6.826289208792631, 2.487520685866918, 0};
Point(p16 + 27) = {6.931086223240504, 2.42330099281855, 0};
Point(p16 + 28) = {7.044639185866918, 2.376265815651044, 0};
Point(p16 + 29) = {7.164152045871333, 2.347573316527068, 0};
Point(p16 + 30) = {7.286682, 2.33793, 0};
Point(p16 + 31) = {7.409211954128666, 2.347573316527068, 0};
Point(p16 + 32) = {7.528724814133081, 2.376265815651044, 0};
Point(p16 + 33) = {7.642277776759496, 2.423300992818549, 0};
Point(p16 + 34) = {7.747074791207369, 2.487520685866918, 0};
Point(p16 + 35) = {7.840535407179643, 2.567343592820357, 0};
Point(p16 + 36) = {7.920358314133082, 2.660804208792631, 0};
Point(p16 + 37) = {7.98457800718145, 2.765601223240504, 0};
Point(p16 + 38) = {8.031613184348956, 2.879154185866918, 0};
Point(p16 + 39) = {8.060305683472931, 2.998667045871333, 0};
Spline(16) = {12, p16 + 1, p16 + 2, p16 + 3, p16 + 4, p16 + 5, p16 + 6, p16 + 7, p16 + 8, p16 + 9, p16 + 10, p16 + 11, p16 + 12, p16 + 13, p16 + 14, p16 + 15, p16 + 16, p16 + 17, p16 + 18, p16 + 19, p16 + 20, p16 + 21, p16 + 22, p16 + 23, p16 + 24, p16 + 25, p16 + 26, p16 + 27, p16 + 28, p16 + 29, p16 + 30, p16 + 31, p16 + 32, p16 + 33, p16 + 34, p16 + 35, p16 + 36, p16 + 37, p16 + 38, p16 + 39, 12};
Line(17) = {11, 8};
Line(18) = {12, 9};
Curve Loop(1) = {-1, 4, 3, -2};
Plane Surface(1) = {1};
Curve Loop(2) = {-5, 1, 7, -6};
Plane Surface(2) = {2};
Curve Loop(3) = {-2, 7, 9, -8, -10, -11};
Plane Surface(3) = {3};
Curve Loop(4) = {-12, 3, 8, -13};
Plane Surface(4) = {4};
Curve Loop(5) = {-4, 5, 14, -12, -15, -16};
Plane Surface(5) = {5};
Curve Loop(6) = {-6, 14, 13, -9};
Plane Surface(6) = {6};
Curve Loop(7) = {-10, -17, 15, 17};
Surface(7) = {7};
Curve Loop(8) = {-11, -18, 16, 18};
Surface(8) = {8};
Surface Loop(1) = {1, 2, 3, 4, 5, 6, 7, 8};
Volume(1) = {1};
Physical Surface("INFLOW") = {1};
Physical Surface("OUTFLOW") = {6};
Physical Surface("OBSTACLE") = {7, 8};
Physical Surface("WALL_Y") = {2, 4};
Physical Surface("WALL_Z") = {3, 5};
Physical Volume("FLUID") = {1};
