cl__1 = 1.805163;
cl__2 = 1.700128;
cl__3 = 1.071341;
cl__4 = 0.565648;
cl__5 = 0.128834;
cl__6 = 0.09461899999999999;
Point(1) = {0.55361, -4.582216, 1, cl__1};
Point(2) = {0.55361, -4.582216, 0, cl__1};
Point(3) = {0.55361, 5.190861000000001, 1, cl__2};
Point(4) = {0.55361, 5.190861000000001, 0, cl__2};
Point(5) = {37.426975, -4.582216, 0, cl__3};
Point(6) = {37.426975, -4.582216, 1, cl__3};
Point(7) = {37.426975, 5.190861000000001, 1, cl__4};
Point(8) = {8.965871, 0.4341719999999997, 1, cl__5};
Point(9) = {35.39587, 1.957499, 1, cl__6};
Point(10) = {37.426975, 5.190861000000001, 0, cl__4};
Point(11) = {8.965871, 0.4341719999999997, 0, cl__5};
Point(12) = {35.39587, 1.957499, 0, cl__6};
Line(1) = {2, 1};
Line(2) = {1, 3};
Line(3) = {4, 3};
Line(4) = {2, 4};
Line(5) = {2, 5};
Line(6) = {5, 6};
Line(7) = {1, 6};
Line(8) = {3, 7};
Line(9) = {6, 7};
p10 = newp;
Point(p10 + 1) = {8.950009372099021, 0.6357130915588611, 1};
Point(p10 + 2) = {8.902815054316731, 0.8322915725670086, 1};
Point(p10 + 3) = {8.82545012738589, 1.019067028415447, 1};
Point(p10 + 4) = {8.719819572567008, 1.19144042750899, 1};
Point(p10 + 5) = {8.588524364687439, 1.345167364687439, 1};
Point(p10 + 6) = {8.43479742750899, 1.476462572567009, 1};
Point(p10 + 7) = {8.262424028415447, 1.58209312738589, 1};
Point(p10 + 8) = {8.075648572567008, 1.659458054316731, 1};
Point(p10 + 9) = {7.879070091558861, 1.706652372099021, 1};
Point(p10 + 10) = {7.677529, 1.722514, 1};
Point(p10 + 11) = {7.475987908441138, 1.706652372099021, 1};
Point(p10 + 12) = {7.279409427432991, 1.659458054316731, 1};
Point(p10 + 13) = {7.092633971584553, 1.58209312738589, 1};
Point(p10 + 14) = {6.92026057249101, 1.476462572567009, 1};
Point(p10 + 15) = {6.766533635312561, 1.345167364687439, 1};
Point(p10 + 16) = {6.635238427432991, 1.19144042750899, 1};
Point(p10 + 17) = {6.529607872614109, 1.019067028415447, 1};
Point(p10 + 18) = {6.452242945683269, 0.8322915725670086, 1};
Point(p10 + 19) = {6.405048627900979, 0.6357130915588612, 1};
Point(p10 + 20) = {6.389187, 0.4341720000000002, 1};
Point(p10 + 21) = {6.405048627900979, 0.232630908441139, 1};
Point(p10 + 22) = {6.452242945683269, 0.03605242743299109, 1};
Point(p10 + 23) = {6.529607872614109, -0.1507230284154465, 1};
Point(p10 + 24) = {6.635238427432991, -0.3230964275089894, 1};
Point(p10 + 25) = {6.766533635312561, -0.476823364687439, 1};
Point(p10 + 26) = {6.92026057249101, -0.6081185725670084, 1};
Point(p10 + 27) = {7.092633971584553, -0.7137491273858902, 1};
Point(p10 + 28) = {7.279409427432991, -0.7911140543167308, 1};
Point(p10 + 29) = {7.475987908441138, -0.838308372099021, 1};
Point(p10 + 30) = {7.677529, -0.8541700000000001, 1};
Point(p10 + 31) = {7.879070091558861, -0.838308372099021, 1};
Point(p10 + 32) = {8.075648572567008, -0.791114054316731, 1};
Point(p10 + 33) = {8.262424028415447, -0.7137491273858905, 1};
Point(p10 + 34) = {8.43479742750899, -0.6081185725670089, 1};
Point(p10 + 35) = {8.588524364687439, -0.4768233646874392, 1};
Point(p10 + 36) = {8.719819572567008, -0.3230964275089898, 1};
Point(p10 + 37) = {8.82545012738589, -0.1507230284154475, 1};
Point(p10 + 38) = {8.902815054316731, 0.0360524274329912, 1};
Point(p10 + 39) = {8.950009372099021, 0.2326309084411386, 1};
Spline(10) = {8, p10 + 1, p10 + 2, p10 + 3, p10 + 4, p10 + 5, p10 + 6, p10 + 7, p10 + 8, p10 + 9, p10 + 10, p10 + 11, p10 + 12, p10 + 13, p10 + 14, p10 + 15, p10 + 16, p10 + 17, p10 + 18, p10 + 19, p10 + 20, p10 + 21, p10 + 22, p10 + 23, p10 + 24, p10 + 25, p10 + 26, p10 + 27, p10 + 28, p10 + 29, p10 + 30, p10 + 31, p10 + 32, p10 + 33, p10 + 34, p10 + 35, p10 + 36, p10 + 37, p10 + 38, p10 + 39, 8};
p11 = newp;
Point(p11 + 1) = {35.38422084329937, 2.105515570041951, 1};
Point(p11 + 2) = {35.34956021409679, 2.249887480890637, 1};
Point(p11 + 3) = {35.29274157211527, 2.387059816958062, 1};
Point(p11 + 4) = {35.21516398089064, 2.513654940081363, 1};
Point(p11 + 5) = {35.11873765818412, 2.626555658184118, 1};
Point(p11 + 6) = {35.00583694008136, 2.722981980890637, 1};
Point(p11 + 7) = {34.87924181695806, 2.800559572115268, 1};
Point(p11 + 8) = {34.74206948089063, 2.857378214096795, 1};
Point(p11 + 9) = {34.59769757004195, 2.892038843299373, 1};
Point(p11 + 10) = {34.449681, 2.903688, 1};
Point(p11 + 11) = {34.30166442995804, 2.892038843299373, 1};
Point(p11 + 12) = {34.15729251910936, 2.857378214096795, 1};
Point(p11 + 13) = {34.02012018304194, 2.800559572115268, 1};
Point(p11 + 14) = {33.89352505991864, 2.722981980890637, 1};
Point(p11 + 15) = {33.78062434181588, 2.626555658184119, 1};
Point(p11 + 16) = {33.68419801910936, 2.513654940081363, 1};
Point(p11 + 17) = {33.60662042788473, 2.387059816958062, 1};
Point(p11 + 18) = {33.54980178590321, 2.249887480890637, 1};
Point(p11 + 19) = {33.51514115670062, 2.105515570041951, 1};
Point(p11 + 20) = {33.503492, 1.957499, 1};
Point(p11 + 21) = {33.51514115670062, 1.809482429958049, 1};
Point(p11 + 22) = {33.54980178590321, 1.665110519109363, 1};
Point(p11 + 23) = {33.60662042788473, 1.527938183041939, 1};
Point(p11 + 24) = {33.68419801910936, 1.401343059918637, 1};
Point(p11 + 25) = {33.78062434181588, 1.288442341815882, 1};
Point(p11 + 26) = {33.89352505991864, 1.192016019109363, 1};
Point(p11 + 27) = {34.02012018304194, 1.114438427884733, 1};
Point(p11 + 28) = {34.15729251910936, 1.057619785903205, 1};
Point(p11 + 29) = {34.30166442995804, 1.022959156700627, 1};
Point(p11 + 30) = {34.449681, 1.01131, 1};
Point(p11 + 31) = {34.59769757004195, 1.022959156700627, 1};
Point(p11 + 32) = {34.74206948089063, 1.057619785903205, 1};
Point(p11 + 33) = {34.87924181695806, 1.114438427884732, 1};
Point(p11 + 34) = {35.00583694008136, 1.192016019109363, 1};
Point(p11 + 35) = {35.11873765818412, 1.288442341815882, 1};
Point(p11 + 36) = {35.21516398089064, 1.401343059918637, 1};
Point(p11 + 37) = {35.29274157211527, 1.527938183041938, 1};
Point(p11 + 38) = {35.34956021409679, 1.665110519109363, 1};
Point(p11 + 39) = {35.38422084329937, 1.809482429958049, 1};
Spline(11) = {9, p11 + 1, p11 + 2, p11 + 3, p11 + 4, p11 + 5, p11 + 6, p11 + 7, p11 + 8, p11 + 9, p11 + 10, p11 + 11, p11 + 12, p11 + 13, p11 + 14, p11 + 15, p11 + 16, p11 + 17, p11 + 18, p11 + 19, p11 + 20, p11 + 21, p11 + 22, p11 + 23, p11 + 24, p11 + 25, p11 + 26, p11 + 27, p11 + 28, p11 + 29, p11 + 30, p11 + 31, p11 + 32, p11 + 33, p11 + 34, p11 + 35, p11 + 36, p11 + 37, p11 + 38, p11 + 39, 9};
Line(12) = {4, 10};
Line(13) = {10, 7};
Line(14) = {5, 10};
p15 = newp;
Point(p15 + 1) = {8.950009372099021, 0.6357130915588611, 0};
Point(p15 + 2) = {8.902815054316731, 0.8322915725670086, 0};
Point(p15 + 3) = {8.82545012738589, 1.019067028415447, 0};
Point(p15 + 4) = {8.719819572567008, 1.19144042750899, 0};
Point(p15 + 5) = {8.588524364687439, 1.345167364687439, 0};
Point(p15 + 6) = {8.43479742750899, 1.476462572567009, 0};
Point(p15 + 7) = {8.262424028415447, 1.58209312738589, 0};
Point(p15 + 8) = {8.075648572567008, 1.659458054316731, 0};
Point(p15 + 9) = {7.879070091558861, 1.706652372099021, 0};
Point(p15 + 10) = {7.677529, 1.722514, 0};
Point(p15 + 11) = {7.475987908441138, 1.706652372099021, 0};
Point(p15 + 12) = {7.279409427432991, 1.659458054316731, 0};
Point(p15 + 13) = {7.092633971584553, 1.58209312738589, 0};
Point(p15 + 14) = {6.92026057249101, 1.476462572567009, 0};
Point(p15 + 15) = {6.766533635312561, 1.345167364687439, 0};
Point(p15 + 16) = {6.635238427432991, 1.19144042750899, 0};
Point(p15 + 17) = {6.529607872614109, 1.019067028415447, 0};
Point(p15 + 18) = {6.452242945683269, 0.8322915725670086, 0};
Point(p15 + 19) = {6.405048627900979, 0.6357130915588612, 0};
Point(p15 + 20) = {6.389187, 0.4341720000000002, 0};
Point(p15 + 21) = {6.405048627900979, 0.232630908441139, 0};
Point(p15 + 22) = {6.452242945683269, 0.03605242743299109, 0};
Point(p15 + 23) = {6.529607872614109, -0.1507230284154465, 0};
Point(p15 + 24) = {6.635238427432991, -0.3230964275089894, 0};
Point(p15 + 25) = {6.766533635312561, -0.476823364687439, 0};
Point(p15 + 26) = {6.92026057249101, -0.6081185725670084, 0};
Point(p15 + 27) = {7.092633971584553, -0.7137491273858902, 0};
Point(p15 + 28) = {7.279409427432991, -0.7911140543167308, 0};
Point(p15 + 29) = {7.475987908441138, -0.838308372099021, 0};
Point(p15 + 30) = {7.677529, -0.8541700000000001, 0};
Point(p15 + 31) = {7.879070091558861, -0.838308372099021, 0};
Point(p15 + 32) = {8.075648572567008, -0.791114054316731, 0};
Point(p15 + 33) = {8.262424028415447, -0.7137491273858905, 0};
Point(p15 + 34) = {8.43479742750899, -0.6081185725670089, 0};
Point(p15 + 35) = {8.588524364687439, -0.4768233646874392, 0};
Point(p15 + 36) = {8.719819572567008, -0.3230964275089898, 0};
Point(p15 + 37) = {8.82545012738589, -0.1507230284154475, 0};
Point(p15 + 38) = {8.902815054316731, 0.0360524274329912, 0};
Point(p15 + 39) = {8.950009372099021, 0.2326309084411386, 0};
Spline(15) = {11, p15 + 1, p15 + 2, p15 + 3, p15 + 4, p15 + 5, p15 + 6, p15 + 7, p15 + 8, p15 + 9, p15 + 10, p15 + 11, p15 + 12, p15 + 13, p15 + 14, p15 + 15, p15 + 16, p15 + 17, p15 + 18, p15 + 19, p15 + 20, p15 + 21, p15 + 22, p15 + 23, p15 + 24, p15 + 25, p15 + 26, p15 + 27, p15 + 28, p15 + 29, p15 + 30, p15 + 31, p15 + 32, p15 + 33, p15 + 34, p15 + 35, p15 + 36, p15 + 37, p15 + 38, p15 + 39, 11};
p16 = newp;
Point(p16 + 1) = {35.38422084329937, 2.105515570041951, 0};
Point(p16 + 2) = {35.34956021409679, 2.249887480890637, 0};
Point(p16 + 3) = {35.29274157211527, 2.387059816958062, 0};
Point(p16 + 4) = {35.21516398089064, 2.513654940081363, 0};
Point(p16 + 5) = {35.11873765818412, 2.626555658184118, 0};
Point(p16 + 6) = {35.00583694008136, 2.722981980890637, 0};
Point(p16 + 7) = {34.87924181695806, 2.800559572115268, 0};
Point(p16 + 8) = {34.74206948089063, 2.857378214096795, 0};
Point(p16 + 9) = {34.59769757004195, 2.892038843299373, 0};
Point(p16 + 10) = {34.449681, 2.903688, 0};
Point(p16 + 11) = {34.30166442995804, 2.892038843299373, 0};
Point(p16 + 12) = {34.15729251910936, 2.857378214096795, 0};
Point(p16 + 13) = {34.02012018304194, 2.800559572115268, 0};
Point(p16 + 14) = {33.89352505991864, 2.722981980890637, 0};
Point(p16 + 15) = {33.78062434181588, 2.626555658184119, 0};
Point(p16 + 16) = {33.68419801910936, 2.513654940081363, 0};
Point(p16 + 17) = {33.60662042788473, 2.387059816958062, 0};
Point(p16 + 18) = {33.54980178590321, 2.249887480890637, 0};
Point(p16 + 19) = {33.51514115670062, 2.105515570041951, 0};
Point(p16 + 20) = {33.503492, 1.957499, 0};
Point(p16 + 21) = {33.51514115670062, 1.809482429958049, 0};
Point(p16 + 22) = {33.54980178590321, 1.665110519109363, 0};
Point(p16 + 23) = {33.60662042788473, 1.527938183041939, 0};
Point(p16 + 24) = {33.68419801910936, 1.401343059918637, 0};
Point(p16 + 25) = {33.78062434181588, 1.288442341815882, 0};
Point(p16 + 26) = {33.89352505991864, 1.192016019109363, 0};
Point(p16 + 27) = {34.02012018304194, 1.114438427884733, 0};
Point(p16 + 28) = {34.15729251910936, 1.057619785903205, 0};
Point(p16 + 29) = {34.30166442995804, 1.022959156700627, 0};
Point(p16 + 30) = {34.449681, 1.01131, 0};
Point(p16 + 31) = {34.59769757004195, 1.022959156700627, 0};
Point(p16 + 32) = {34.74206948089063, 1.057619785903205, 0};
Point(p16 + 33) = {34.87924181695806, 1.114438427884732, 0};
Point(p16 + 34) = {35.00583694008136, 1.192016019109363, 0};
Point(p16 + 35) = {35.11873765818412, 1.288442341815882, 0};
Point(p16 + 36) = {35.21516398089064, 1.401343059918637, 0};
Point(p16 + 37) = {35.29274157211527, 1.527938183041938, 0};
Point(p16 + 38) = {35.34956021409679, 1.665110519109363, 0};
Point(p16 + 39) = {35.38422084329937, 1.809482429958049, 0};
Spline(16) = {12, p16 + 1, p16 + 2, p16 + 3, p16 + 4, p16 + 5, p16 + 6, p16 + 7, p16 + 8, p16 + 9, p16 + 10, p16 + 11, p16 + 12, p16 + 13, p16 + 14, p16 + 15, p16 + 16, p16 + 17, p16 + 18, p16 + 19, p16 + 20, p16 + 21, p16 + 22, p16 + 23, p16 + 24, p16 + 25, p16 + 26, p16 + 27, p16 + 28, p16 + 29, p16 + 30, p16 + 31, p16 + 32, p16 + 33, p16 + 34, p16 + 35, p16 + 36, p16 + 37, p16 + 38, p16 + 39, 12};
Line(17) = {11, 8};
Line(18) = {12, 9};
Curve Loop(1) = {-1, 4, 3, -2};
Plane Surface(1) = {1};
Curve Loop(2) = {-5, 1, 7, -6};
Plane Surface(2) = {2};
Curve Loop(3) = {-2, 7, 9, -8, -10, -11};
Plane Surface(3) = {3};
Curve Loop(4) = {-12, 3, 8, -13};
Plane Surface(4) = {4};
Curve Loop(5) = {-4, 5, 14, -12, -15, -16};
Plane Surface(5) = {5};
Curve Loop(6) = {-6, 14, 13, -9};
Plane Surface(6) = {6};
Curve Loop(7) = {-10, -17, 15, 17};
Surface(7) = {7};
Curve Loop(8) = {-11, -18, 16, 18};
Surface(8) = {8};
Surface Loop(1) = {1, 2, 3, 4, 5, 6, 7, 8};
Volume(1) = {1};
Physical Surface("INFLOW") = {1};
Physical Surface("OUTFLOW") = {6};
Physical Surface("OBSTACLE") = {7, 8};
Physical Surface("WALL_Y") = {2, 4};
Physical Surface("WALL_Z") = {3, 5};
Physical Volume("FLUID") = {1};
