cl__1 = 0.224008;
cl__2 = 0.120715;
cl__3 = 6.107617;
cl__4 = 6.101966;
cl__5 = 0.13363;
cl__6 = 0.06297700000000001;
Point(1) = {0.497549, -3.601782, 1, cl__1};
Point(2) = {0.497549, -3.601782, 0, cl__1};
Point(3) = {0.497549, 4.704718, 1, cl__2};
Point(4) = {0.497549, 4.704718, 0, cl__2};
Point(5) = {36.130392, -3.601782, 0, cl__3};
Point(6) = {36.130392, -3.601782, 1, cl__3};
Point(7) = {36.130392, 4.704718, 1, cl__4};
Point(8) = {4.904306, 0.5898629999999997, 1, cl__5};
Point(9) = {3.038943, 2.784284, 1, cl__6};
Point(10) = {36.130392, 4.704718, 0, cl__4};
Point(11) = {4.904306, 0.5898629999999997, 0, cl__5};
Point(12) = {3.038943, 2.784284, 0, cl__6};
Line(1) = {2, 1};
Line(2) = {1, 3};
Line(3) = {4, 3};
Line(4) = {2, 4};
Line(5) = {2, 5};
Line(6) = {5, 6};
Line(7) = {1, 6};
Line(8) = {3, 7};
Line(9) = {6, 7};
p10 = newp;
Point(p10 + 1) = {4.887853929537282, 0.7989063756332606, 1};
Point(p10 + 2) = {4.838902822725213, 1.002802409583242, 1};
Point(p10 + 3) = {4.758658018272916, 1.196530504801956, 1};
Point(p10 + 4) = {4.649095409583243, 1.375320432638432, 1};
Point(p10 + 5) = {4.512912791699583, 1.534769791699583, 1};
Point(p10 + 6) = {4.353463432638432, 1.670952409583242, 1};
Point(p10 + 7) = {4.174673504801956, 1.780515018272916, 1};
Point(p10 + 8) = {3.980945409583242, 1.860759822725214, 1};
Point(p10 + 9) = {3.77704937563326, 1.909710929537283, 1};
Point(p10 + 10) = {3.568006, 1.926163, 1};
Point(p10 + 11) = {3.358962624366739, 1.909710929537282, 1};
Point(p10 + 12) = {3.155066590416758, 1.860759822725214, 1};
Point(p10 + 13) = {2.961338495198044, 1.780515018272916, 1};
Point(p10 + 14) = {2.782548567361568, 1.670952409583242, 1};
Point(p10 + 15) = {2.623099208300417, 1.534769791699583, 1};
Point(p10 + 16) = {2.486916590416758, 1.375320432638432, 1};
Point(p10 + 17) = {2.377353981727084, 1.196530504801957, 1};
Point(p10 + 18) = {2.297109177274786, 1.002802409583242, 1};
Point(p10 + 19) = {2.248158070462718, 0.7989063756332607, 1};
Point(p10 + 20) = {2.231706, 0.5898630000000001, 1};
Point(p10 + 21) = {2.248158070462718, 0.3808196243667397, 1};
Point(p10 + 22) = {2.297109177274786, 0.1769235904167574, 1};
Point(p10 + 23) = {2.377353981727084, -0.01680450480195561, 1};
Point(p10 + 24) = {2.486916590416758, -0.1955944326384317, 1};
Point(p10 + 25) = {2.623099208300416, -0.3550437916995833, 1};
Point(p10 + 26) = {2.782548567361568, -0.4912264095832422, 1};
Point(p10 + 27) = {2.961338495198043, -0.6007890182729159, 1};
Point(p10 + 28) = {3.155066590416757, -0.6810338227252137, 1};
Point(p10 + 29) = {3.358962624366739, -0.7299849295372824, 1};
Point(p10 + 30) = {3.568006, -0.746437, 1};
Point(p10 + 31) = {3.77704937563326, -0.7299849295372827, 1};
Point(p10 + 32) = {3.980945409583242, -0.6810338227252137, 1};
Point(p10 + 33) = {4.174673504801956, -0.6007890182729161, 1};
Point(p10 + 34) = {4.353463432638431, -0.4912264095832424, 1};
Point(p10 + 35) = {4.512912791699583, -0.3550437916995837, 1};
Point(p10 + 36) = {4.649095409583242, -0.1955944326384321, 1};
Point(p10 + 37) = {4.758658018272916, -0.01680450480195661, 1};
Point(p10 + 38) = {4.838902822725213, 0.1769235904167575, 1};
Point(p10 + 39) = {4.887853929537282, 0.3808196243667392, 1};
Spline(10) = {8, p10 + 1, p10 + 2, p10 + 3, p10 + 4, p10 + 5, p10 + 6, p10 + 7, p10 + 8, p10 + 9, p10 + 10, p10 + 11, p10 + 12, p10 + 13, p10 + 14, p10 + 15, p10 + 16, p10 + 17, p10 + 18, p10 + 19, p10 + 20, p10 + 21, p10 + 22, p10 + 23, p10 + 24, p10 + 25, p10 + 26, p10 + 27, p10 + 28, p10 + 29, p10 + 30, p10 + 31, p10 + 32, p10 + 33, p10 + 34, p10 + 35, p10 + 36, p10 + 37, p10 + 38, p10 + 39, 8};
p11 = newp;
Point(p11 + 1) = {3.031189437009962, 2.882802358786246, 1};
Point(p11 + 2) = {3.008119666493264, 2.978894868615488, 1};
Point(p11 + 3) = {2.970301742764205, 3.070195412982973, 1};
Point(p11 + 4) = {2.918666868615488, 3.15445586947724, 1};
Point(p11 + 5) = {2.854486466014976, 3.229601466014977, 1};
Point(p11 + 6) = {2.77934086947724, 3.293781868615488, 1};
Point(p11 + 7) = {2.695080412982973, 3.345416742764205, 1};
Point(p11 + 8) = {2.603779868615488, 3.383234666493264, 1};
Point(p11 + 9) = {2.507687358786246, 3.406304437009962, 1};
Point(p11 + 10) = {2.409169, 3.414058, 1};
Point(p11 + 11) = {2.310650641213754, 3.406304437009962, 1};
Point(p11 + 12) = {2.214558131384512, 3.383234666493264, 1};
Point(p11 + 13) = {2.123257587017027, 3.345416742764205, 1};
Point(p11 + 14) = {2.03899713052276, 3.293781868615488, 1};
Point(p11 + 15) = {1.963851533985023, 3.229601466014977, 1};
Point(p11 + 16) = {1.899671131384512, 3.15445586947724, 1};
Point(p11 + 17) = {1.848036257235795, 3.070195412982973, 1};
Point(p11 + 18) = {1.810218333506736, 2.978894868615488, 1};
Point(p11 + 19) = {1.787148562990038, 2.882802358786246, 1};
Point(p11 + 20) = {1.779395, 2.784284, 1};
Point(p11 + 21) = {1.787148562990038, 2.685765641213754, 1};
Point(p11 + 22) = {1.810218333506736, 2.589673131384512, 1};
Point(p11 + 23) = {1.848036257235794, 2.498372587017027, 1};
Point(p11 + 24) = {1.899671131384512, 2.41411213052276, 1};
Point(p11 + 25) = {1.963851533985023, 2.338966533985023, 1};
Point(p11 + 26) = {2.03899713052276, 2.274786131384512, 1};
Point(p11 + 27) = {2.123257587017027, 2.223151257235795, 1};
Point(p11 + 28) = {2.214558131384512, 2.185333333506736, 1};
Point(p11 + 29) = {2.310650641213754, 2.162263562990038, 1};
Point(p11 + 30) = {2.409169, 2.15451, 1};
Point(p11 + 31) = {2.507687358786246, 2.162263562990038, 1};
Point(p11 + 32) = {2.603779868615488, 2.185333333506736, 1};
Point(p11 + 33) = {2.695080412982973, 2.223151257235795, 1};
Point(p11 + 34) = {2.77934086947724, 2.274786131384512, 1};
Point(p11 + 35) = {2.854486466014976, 2.338966533985023, 1};
Point(p11 + 36) = {2.918666868615488, 2.41411213052276, 1};
Point(p11 + 37) = {2.970301742764205, 2.498372587017026, 1};
Point(p11 + 38) = {3.008119666493264, 2.589673131384512, 1};
Point(p11 + 39) = {3.031189437009962, 2.685765641213754, 1};
Spline(11) = {9, p11 + 1, p11 + 2, p11 + 3, p11 + 4, p11 + 5, p11 + 6, p11 + 7, p11 + 8, p11 + 9, p11 + 10, p11 + 11, p11 + 12, p11 + 13, p11 + 14, p11 + 15, p11 + 16, p11 + 17, p11 + 18, p11 + 19, p11 + 20, p11 + 21, p11 + 22, p11 + 23, p11 + 24, p11 + 25, p11 + 26, p11 + 27, p11 + 28, p11 + 29, p11 + 30, p11 + 31, p11 + 32, p11 + 33, p11 + 34, p11 + 35, p11 + 36, p11 + 37, p11 + 38, p11 + 39, 9};
Line(12) = {4, 10};
Line(13) = {10, 7};
Line(14) = {5, 10};
p15 = newp;
Point(p15 + 1) = {4.887853929537282, 0.7989063756332606, 0};
Point(p15 + 2) = {4.838902822725213, 1.002802409583242, 0};
Point(p15 + 3) = {4.758658018272916, 1.196530504801956, 0};
Point(p15 + 4) = {4.649095409583243, 1.375320432638432, 0};
Point(p15 + 5) = {4.512912791699583, 1.534769791699583, 0};
Point(p15 + 6) = {4.353463432638432, 1.670952409583242, 0};
Point(p15 + 7) = {4.174673504801956, 1.780515018272916, 0};
Point(p15 + 8) = {3.980945409583242, 1.860759822725214, 0};
Point(p15 + 9) = {3.77704937563326, 1.909710929537283, 0};
Point(p15 + 10) = {3.568006, 1.926163, 0};
Point(p15 + 11) = {3.358962624366739, 1.909710929537282, 0};
Point(p15 + 12) = {3.155066590416758, 1.860759822725214, 0};
Point(p15 + 13) = {2.961338495198044, 1.780515018272916, 0};
Point(p15 + 14) = {2.782548567361568, 1.670952409583242, 0};
Point(p15 + 15) = {2.623099208300417, 1.534769791699583, 0};
Point(p15 + 16) = {2.486916590416758, 1.375320432638432, 0};
Point(p15 + 17) = {2.377353981727084, 1.196530504801957, 0};
Point(p15 + 18) = {2.297109177274786, 1.002802409583242, 0};
Point(p15 + 19) = {2.248158070462718, 0.7989063756332607, 0};
Point(p15 + 20) = {2.231706, 0.5898630000000001, 0};
Point(p15 + 21) = {2.248158070462718, 0.3808196243667397, 0};
Point(p15 + 22) = {2.297109177274786, 0.1769235904167574, 0};
Point(p15 + 23) = {2.377353981727084, -0.01680450480195561, 0};
Point(p15 + 24) = {2.486916590416758, -0.1955944326384317, 0};
Point(p15 + 25) = {2.623099208300416, -0.3550437916995833, 0};
Point(p15 + 26) = {2.782548567361568, -0.4912264095832422, 0};
Point(p15 + 27) = {2.961338495198043, -0.6007890182729159, 0};
Point(p15 + 28) = {3.155066590416757, -0.6810338227252137, 0};
Point(p15 + 29) = {3.358962624366739, -0.7299849295372824, 0};
Point(p15 + 30) = {3.568006, -0.746437, 0};
Point(p15 + 31) = {3.77704937563326, -0.7299849295372827, 0};
Point(p15 + 32) = {3.980945409583242, -0.6810338227252137, 0};
Point(p15 + 33) = {4.174673504801956, -0.6007890182729161, 0};
Point(p15 + 34) = {4.353463432638431, -0.4912264095832424, 0};
Point(p15 + 35) = {4.512912791699583, -0.3550437916995837, 0};
Point(p15 + 36) = {4.649095409583242, -0.1955944326384321, 0};
Point(p15 + 37) = {4.758658018272916, -0.01680450480195661, 0};
Point(p15 + 38) = {4.838902822725213, 0.1769235904167575, 0};
Point(p15 + 39) = {4.887853929537282, 0.3808196243667392, 0};
Spline(15) = {11, p15 + 1, p15 + 2, p15 + 3, p15 + 4, p15 + 5, p15 + 6, p15 + 7, p15 + 8, p15 + 9, p15 + 10, p15 + 11, p15 + 12, p15 + 13, p15 + 14, p15 + 15, p15 + 16, p15 + 17, p15 + 18, p15 + 19, p15 + 20, p15 + 21, p15 + 22, p15 + 23, p15 + 24, p15 + 25, p15 + 26, p15 + 27, p15 + 28, p15 + 29, p15 + 30, p15 + 31, p15 + 32, p15 + 33, p15 + 34, p15 + 35, p15 + 36, p15 + 37, p15 + 38, p15 + 39, 11};
p16 = newp;
Point(p16 + 1) = {3.031189437009962, 2.882802358786246, 0};
Point(p16 + 2) = {3.008119666493264, 2.978894868615488, 0};
Point(p16 + 3) = {2.970301742764205, 3.070195412982973, 0};
Point(p16 + 4) = {2.918666868615488, 3.15445586947724, 0};
Point(p16 + 5) = {2.854486466014976, 3.229601466014977, 0};
Point(p16 + 6) = {2.77934086947724, 3.293781868615488, 0};
Point(p16 + 7) = {2.695080412982973, 3.345416742764205, 0};
Point(p16 + 8) = {2.603779868615488, 3.383234666493264, 0};
Point(p16 + 9) = {2.507687358786246, 3.406304437009962, 0};
Point(p16 + 10) = {2.409169, 3.414058, 0};
Point(p16 + 11) = {2.310650641213754, 3.406304437009962, 0};
Point(p16 + 12) = {2.214558131384512, 3.383234666493264, 0};
Point(p16 + 13) = {2.123257587017027, 3.345416742764205, 0};
Point(p16 + 14) = {2.03899713052276, 3.293781868615488, 0};
Point(p16 + 15) = {1.963851533985023, 3.229601466014977, 0};
Point(p16 + 16) = {1.899671131384512, 3.15445586947724, 0};
Point(p16 + 17) = {1.848036257235795, 3.070195412982973, 0};
Point(p16 + 18) = {1.810218333506736, 2.978894868615488, 0};
Point(p16 + 19) = {1.787148562990038, 2.882802358786246, 0};
Point(p16 + 20) = {1.779395, 2.784284, 0};
Point(p16 + 21) = {1.787148562990038, 2.685765641213754, 0};
Point(p16 + 22) = {1.810218333506736, 2.589673131384512, 0};
Point(p16 + 23) = {1.848036257235794, 2.498372587017027, 0};
Point(p16 + 24) = {1.899671131384512, 2.41411213052276, 0};
Point(p16 + 25) = {1.963851533985023, 2.338966533985023, 0};
Point(p16 + 26) = {2.03899713052276, 2.274786131384512, 0};
Point(p16 + 27) = {2.123257587017027, 2.223151257235795, 0};
Point(p16 + 28) = {2.214558131384512, 2.185333333506736, 0};
Point(p16 + 29) = {2.310650641213754, 2.162263562990038, 0};
Point(p16 + 30) = {2.409169, 2.15451, 0};
Point(p16 + 31) = {2.507687358786246, 2.162263562990038, 0};
Point(p16 + 32) = {2.603779868615488, 2.185333333506736, 0};
Point(p16 + 33) = {2.695080412982973, 2.223151257235795, 0};
Point(p16 + 34) = {2.77934086947724, 2.274786131384512, 0};
Point(p16 + 35) = {2.854486466014976, 2.338966533985023, 0};
Point(p16 + 36) = {2.918666868615488, 2.41411213052276, 0};
Point(p16 + 37) = {2.970301742764205, 2.498372587017026, 0};
Point(p16 + 38) = {3.008119666493264, 2.589673131384512, 0};
Point(p16 + 39) = {3.031189437009962, 2.685765641213754, 0};
Spline(16) = {12, p16 + 1, p16 + 2, p16 + 3, p16 + 4, p16 + 5, p16 + 6, p16 + 7, p16 + 8, p16 + 9, p16 + 10, p16 + 11, p16 + 12, p16 + 13, p16 + 14, p16 + 15, p16 + 16, p16 + 17, p16 + 18, p16 + 19, p16 + 20, p16 + 21, p16 + 22, p16 + 23, p16 + 24, p16 + 25, p16 + 26, p16 + 27, p16 + 28, p16 + 29, p16 + 30, p16 + 31, p16 + 32, p16 + 33, p16 + 34, p16 + 35, p16 + 36, p16 + 37, p16 + 38, p16 + 39, 12};
Line(17) = {11, 8};
Line(18) = {12, 9};
Curve Loop(1) = {-1, 4, 3, -2};
Plane Surface(1) = {1};
Curve Loop(2) = {-5, 1, 7, -6};
Plane Surface(2) = {2};
Curve Loop(3) = {-2, 7, 9, -8, -10, -11};
Plane Surface(3) = {3};
Curve Loop(4) = {-12, 3, 8, -13};
Plane Surface(4) = {4};
Curve Loop(5) = {-4, 5, 14, -12, -15, -16};
Plane Surface(5) = {5};
Curve Loop(6) = {-6, 14, 13, -9};
Plane Surface(6) = {6};
Curve Loop(7) = {-10, -17, 15, 17};
Surface(7) = {7};
Curve Loop(8) = {-11, -18, 16, 18};
Surface(8) = {8};
Surface Loop(1) = {1, 2, 3, 4, 5, 6, 7, 8};
Volume(1) = {1};
Physical Surface("INFLOW") = {1};
Physical Surface("OUTFLOW") = {6};
Physical Surface("OBSTACLE") = {7, 8};
Physical Surface("WALL_Y") = {2, 4};
Physical Surface("WALL_Z") = {3, 5};
Physical Volume("FLUID") = {1};
