cl__1 = 0.789;
cl__2 = 1.926309;
cl__3 = 0.773028;
cl__4 = 1.701006;
cl__5 = 0.058194;
cl__6 = 0.08974699999999999;
Point(1) = {0.6620200000000001, -3.181954, 1, cl__1};
Point(2) = {0.6620200000000001, -3.181954, 0, cl__1};
Point(3) = {0.6620200000000001, 4.382385, 1, cl__2};
Point(4) = {0.6620200000000001, 4.382385, 0, cl__2};
Point(5) = {31.996748, -3.181954, 0, cl__3};
Point(6) = {31.996748, -3.181954, 1, cl__3};
Point(7) = {31.996748, 4.382385, 1, cl__4};
Point(8) = {6.048011, -1.574809, 1, cl__5};
Point(9) = {27.895333, -1.44968, 1, cl__6};
Point(10) = {31.996748, 4.382385, 0, cl__4};
Point(11) = {6.048011, -1.574809, 0, cl__5};
Point(12) = {27.895333, -1.44968, 0, cl__6};
Line(1) = {2, 1};
Line(2) = {1, 3};
Line(3) = {4, 3};
Line(4) = {2, 4};
Line(5) = {2, 5};
Line(6) = {5, 6};
Line(7) = {1, 6};
Line(8) = {3, 7};
Line(9) = {6, 7};
p10 = newp;
Point(p10 + 1) = {6.040846402172572, -1.483774153152348, 1};
Point(p10 + 2) = {6.019529024866737, -1.394980886361421, 1};
Point(p10 + 3) = {5.984583772660082, -1.310615584543567, 1};
Point(p10 + 4) = {5.936871113638579, -1.232755601421927, 1};
Point(p10 + 5) = {5.877565891816575, -1.163318108183425, 1};
Point(p10 + 6) = {5.808128398578073, -1.10401288636142, 1};
Point(p10 + 7) = {5.730268415456433, -1.056300227339918, 1};
Point(p10 + 8) = {5.645903113638579, -1.021354975133264, 1};
Point(p10 + 9) = {5.557109846847652, -1.000037597827428, 1};
Point(p10 + 10) = {5.466075, -0.9928729999999999, 1};
Point(p10 + 11) = {5.375040153152348, -1.000037597827428, 1};
Point(p10 + 12) = {5.286246886361421, -1.021354975133263, 1};
Point(p10 + 13) = {5.201881584543568, -1.056300227339918, 1};
Point(p10 + 14) = {5.124021601421927, -1.10401288636142, 1};
Point(p10 + 15) = {5.054584108183425, -1.163318108183425, 1};
Point(p10 + 16) = {4.995278886361421, -1.232755601421927, 1};
Point(p10 + 17) = {4.947566227339918, -1.310615584543567, 1};
Point(p10 + 18) = {4.912620975133263, -1.39498088636142, 1};
Point(p10 + 19) = {4.891303597827428, -1.483774153152348, 1};
Point(p10 + 20) = {4.884139, -1.574809, 1};
Point(p10 + 21) = {4.891303597827428, -1.665843846847652, 1};
Point(p10 + 22) = {4.912620975133263, -1.754637113638579, 1};
Point(p10 + 23) = {4.947566227339918, -1.839002415456433, 1};
Point(p10 + 24) = {4.995278886361421, -1.916862398578072, 1};
Point(p10 + 25) = {5.054584108183425, -1.986299891816575, 1};
Point(p10 + 26) = {5.124021601421927, -2.045605113638579, 1};
Point(p10 + 27) = {5.201881584543567, -2.093317772660082, 1};
Point(p10 + 28) = {5.286246886361421, -2.128263024866736, 1};
Point(p10 + 29) = {5.375040153152348, -2.149580402172572, 1};
Point(p10 + 30) = {5.466075, -2.156745, 1};
Point(p10 + 31) = {5.557109846847652, -2.149580402172572, 1};
Point(p10 + 32) = {5.645903113638579, -2.128263024866737, 1};
Point(p10 + 33) = {5.730268415456433, -2.093317772660082, 1};
Point(p10 + 34) = {5.808128398578073, -2.04560511363858, 1};
Point(p10 + 35) = {5.877565891816575, -1.986299891816575, 1};
Point(p10 + 36) = {5.936871113638579, -1.916862398578073, 1};
Point(p10 + 37) = {5.984583772660082, -1.839002415456433, 1};
Point(p10 + 38) = {6.019529024866737, -1.754637113638579, 1};
Point(p10 + 39) = {6.040846402172572, -1.665843846847652, 1};
Spline(10) = {8, p10 + 1, p10 + 2, p10 + 3, p10 + 4, p10 + 5, p10 + 6, p10 + 7, p10 + 8, p10 + 9, p10 + 10, p10 + 11, p10 + 12, p10 + 13, p10 + 14, p10 + 15, p10 + 16, p10 + 17, p10 + 18, p10 + 19, p10 + 20, p10 + 21, p10 + 22, p10 + 23, p10 + 24, p10 + 25, p10 + 26, p10 + 27, p10 + 28, p10 + 29, p10 + 30, p10 + 31, p10 + 32, p10 + 33, p10 + 34, p10 + 35, p10 + 36, p10 + 37, p10 + 38, p10 + 39, 8};
p11 = newp;
Point(p11 + 1) = {27.8842836919689, -1.309285229963739, 1};
Point(p11 + 2) = {27.85140783850986, -1.172347445109299, 1};
Point(p11 + 3) = {27.79751495224376, -1.042238508170248, 1};
Point(p11 + 4) = {27.7239320548907, -0.9221621329808311, 1};
Point(p11 + 5) = {27.63247100159115, -0.8150749984088529, 1};
Point(p11 + 6) = {27.52538386701917, -0.7236139451092991, 1};
Point(p11 + 7) = {27.40530749182975, -0.6500310477562382, 1};
Point(p11 + 8) = {27.2751985548907, -0.5961381614901375, 1};
Point(p11 + 9) = {27.13826077003626, -0.5632623080311036, 1};
Point(p11 + 10) = {26.997866, -0.5522130000000001, 1};
Point(p11 + 11) = {26.85747122996374, -0.5632623080311037, 1};
Point(p11 + 12) = {26.7205334451093, -0.5961381614901374, 1};
Point(p11 + 13) = {26.59042450817025, -0.6500310477562381, 1};
Point(p11 + 14) = {26.47034813298083, -0.7236139451092991, 1};
Point(p11 + 15) = {26.36326099840885, -0.8150749984088528, 1};
Point(p11 + 16) = {26.2717999451093, -0.9221621329808309, 1};
Point(p11 + 17) = {26.19821704775624, -1.042238508170248, 1};
Point(p11 + 18) = {26.14432416149014, -1.172347445109299, 1};
Point(p11 + 19) = {26.1114483080311, -1.309285229963739, 1};
Point(p11 + 20) = {26.100399, -1.44968, 1};
Point(p11 + 21) = {26.1114483080311, -1.590074770036261, 1};
Point(p11 + 22) = {26.14432416149014, -1.727012554890701, 1};
Point(p11 + 23) = {26.19821704775624, -1.857121491829751, 1};
Point(p11 + 24) = {26.2717999451093, -1.977197867019169, 1};
Point(p11 + 25) = {26.36326099840885, -2.084285001591147, 1};
Point(p11 + 26) = {26.47034813298083, -2.175746054890701, 1};
Point(p11 + 27) = {26.59042450817025, -2.249328952243762, 1};
Point(p11 + 28) = {26.7205334451093, -2.303221838509863, 1};
Point(p11 + 29) = {26.85747122996374, -2.336097691968896, 1};
Point(p11 + 30) = {26.997866, -2.347147, 1};
Point(p11 + 31) = {27.13826077003626, -2.336097691968896, 1};
Point(p11 + 32) = {27.2751985548907, -2.303221838509863, 1};
Point(p11 + 33) = {27.40530749182975, -2.249328952243762, 1};
Point(p11 + 34) = {27.52538386701917, -2.175746054890701, 1};
Point(p11 + 35) = {27.63247100159115, -2.084285001591148, 1};
Point(p11 + 36) = {27.7239320548907, -1.977197867019169, 1};
Point(p11 + 37) = {27.79751495224376, -1.857121491829752, 1};
Point(p11 + 38) = {27.85140783850986, -1.727012554890701, 1};
Point(p11 + 39) = {27.8842836919689, -1.590074770036261, 1};
Spline(11) = {9, p11 + 1, p11 + 2, p11 + 3, p11 + 4, p11 + 5, p11 + 6, p11 + 7, p11 + 8, p11 + 9, p11 + 10, p11 + 11, p11 + 12, p11 + 13, p11 + 14, p11 + 15, p11 + 16, p11 + 17, p11 + 18, p11 + 19, p11 + 20, p11 + 21, p11 + 22, p11 + 23, p11 + 24, p11 + 25, p11 + 26, p11 + 27, p11 + 28, p11 + 29, p11 + 30, p11 + 31, p11 + 32, p11 + 33, p11 + 34, p11 + 35, p11 + 36, p11 + 37, p11 + 38, p11 + 39, 9};
Line(12) = {4, 10};
Line(13) = {10, 7};
Line(14) = {5, 10};
p15 = newp;
Point(p15 + 1) = {6.040846402172572, -1.483774153152348, 0};
Point(p15 + 2) = {6.019529024866737, -1.394980886361421, 0};
Point(p15 + 3) = {5.984583772660082, -1.310615584543567, 0};
Point(p15 + 4) = {5.936871113638579, -1.232755601421927, 0};
Point(p15 + 5) = {5.877565891816575, -1.163318108183425, 0};
Point(p15 + 6) = {5.808128398578073, -1.10401288636142, 0};
Point(p15 + 7) = {5.730268415456433, -1.056300227339918, 0};
Point(p15 + 8) = {5.645903113638579, -1.021354975133264, 0};
Point(p15 + 9) = {5.557109846847652, -1.000037597827428, 0};
Point(p15 + 10) = {5.466075, -0.9928729999999999, 0};
Point(p15 + 11) = {5.375040153152348, -1.000037597827428, 0};
Point(p15 + 12) = {5.286246886361421, -1.021354975133263, 0};
Point(p15 + 13) = {5.201881584543568, -1.056300227339918, 0};
Point(p15 + 14) = {5.124021601421927, -1.10401288636142, 0};
Point(p15 + 15) = {5.054584108183425, -1.163318108183425, 0};
Point(p15 + 16) = {4.995278886361421, -1.232755601421927, 0};
Point(p15 + 17) = {4.947566227339918, -1.310615584543567, 0};
Point(p15 + 18) = {4.912620975133263, -1.39498088636142, 0};
Point(p15 + 19) = {4.891303597827428, -1.483774153152348, 0};
Point(p15 + 20) = {4.884139, -1.574809, 0};
Point(p15 + 21) = {4.891303597827428, -1.665843846847652, 0};
Point(p15 + 22) = {4.912620975133263, -1.754637113638579, 0};
Point(p15 + 23) = {4.947566227339918, -1.839002415456433, 0};
Point(p15 + 24) = {4.995278886361421, -1.916862398578072, 0};
Point(p15 + 25) = {5.054584108183425, -1.986299891816575, 0};
Point(p15 + 26) = {5.124021601421927, -2.045605113638579, 0};
Point(p15 + 27) = {5.201881584543567, -2.093317772660082, 0};
Point(p15 + 28) = {5.286246886361421, -2.128263024866736, 0};
Point(p15 + 29) = {5.375040153152348, -2.149580402172572, 0};
Point(p15 + 30) = {5.466075, -2.156745, 0};
Point(p15 + 31) = {5.557109846847652, -2.149580402172572, 0};
Point(p15 + 32) = {5.645903113638579, -2.128263024866737, 0};
Point(p15 + 33) = {5.730268415456433, -2.093317772660082, 0};
Point(p15 + 34) = {5.808128398578073, -2.04560511363858, 0};
Point(p15 + 35) = {5.877565891816575, -1.986299891816575, 0};
Point(p15 + 36) = {5.936871113638579, -1.916862398578073, 0};
Point(p15 + 37) = {5.984583772660082, -1.839002415456433, 0};
Point(p15 + 38) = {6.019529024866737, -1.754637113638579, 0};
Point(p15 + 39) = {6.040846402172572, -1.665843846847652, 0};
Spline(15) = {11, p15 + 1, p15 + 2, p15 + 3, p15 + 4, p15 + 5, p15 + 6, p15 + 7, p15 + 8, p15 + 9, p15 + 10, p15 + 11, p15 + 12, p15 + 13, p15 + 14, p15 + 15, p15 + 16, p15 + 17, p15 + 18, p15 + 19, p15 + 20, p15 + 21, p15 + 22, p15 + 23, p15 + 24, p15 + 25, p15 + 26, p15 + 27, p15 + 28, p15 + 29, p15 + 30, p15 + 31, p15 + 32, p15 + 33, p15 + 34, p15 + 35, p15 + 36, p15 + 37, p15 + 38, p15 + 39, 11};
p16 = newp;
Point(p16 + 1) = {27.8842836919689, -1.309285229963739, 0};
Point(p16 + 2) = {27.85140783850986, -1.172347445109299, 0};
Point(p16 + 3) = {27.79751495224376, -1.042238508170248, 0};
Point(p16 + 4) = {27.7239320548907, -0.9221621329808311, 0};
Point(p16 + 5) = {27.63247100159115, -0.8150749984088529, 0};
Point(p16 + 6) = {27.52538386701917, -0.7236139451092991, 0};
Point(p16 + 7) = {27.40530749182975, -0.6500310477562382, 0};
Point(p16 + 8) = {27.2751985548907, -0.5961381614901375, 0};
Point(p16 + 9) = {27.13826077003626, -0.5632623080311036, 0};
Point(p16 + 10) = {26.997866, -0.5522130000000001, 0};
Point(p16 + 11) = {26.85747122996374, -0.5632623080311037, 0};
Point(p16 + 12) = {26.7205334451093, -0.5961381614901374, 0};
Point(p16 + 13) = {26.59042450817025, -0.6500310477562381, 0};
Point(p16 + 14) = {26.47034813298083, -0.7236139451092991, 0};
Point(p16 + 15) = {26.36326099840885, -0.8150749984088528, 0};
Point(p16 + 16) = {26.2717999451093, -0.9221621329808309, 0};
Point(p16 + 17) = {26.19821704775624, -1.042238508170248, 0};
Point(p16 + 18) = {26.14432416149014, -1.172347445109299, 0};
Point(p16 + 19) = {26.1114483080311, -1.309285229963739, 0};
Point(p16 + 20) = {26.100399, -1.44968, 0};
Point(p16 + 21) = {26.1114483080311, -1.590074770036261, 0};
Point(p16 + 22) = {26.14432416149014, -1.727012554890701, 0};
Point(p16 + 23) = {26.19821704775624, -1.857121491829751, 0};
Point(p16 + 24) = {26.2717999451093, -1.977197867019169, 0};
Point(p16 + 25) = {26.36326099840885, -2.084285001591147, 0};
Point(p16 + 26) = {26.47034813298083, -2.175746054890701, 0};
Point(p16 + 27) = {26.59042450817025, -2.249328952243762, 0};
Point(p16 + 28) = {26.7205334451093, -2.303221838509863, 0};
Point(p16 + 29) = {26.85747122996374, -2.336097691968896, 0};
Point(p16 + 30) = {26.997866, -2.347147, 0};
Point(p16 + 31) = {27.13826077003626, -2.336097691968896, 0};
Point(p16 + 32) = {27.2751985548907, -2.303221838509863, 0};
Point(p16 + 33) = {27.40530749182975, -2.249328952243762, 0};
Point(p16 + 34) = {27.52538386701917, -2.175746054890701, 0};
Point(p16 + 35) = {27.63247100159115, -2.084285001591148, 0};
Point(p16 + 36) = {27.7239320548907, -1.977197867019169, 0};
Point(p16 + 37) = {27.79751495224376, -1.857121491829752, 0};
Point(p16 + 38) = {27.85140783850986, -1.727012554890701, 0};
Point(p16 + 39) = {27.8842836919689, -1.590074770036261, 0};
Spline(16) = {12, p16 + 1, p16 + 2, p16 + 3, p16 + 4, p16 + 5, p16 + 6, p16 + 7, p16 + 8, p16 + 9, p16 + 10, p16 + 11, p16 + 12, p16 + 13, p16 + 14, p16 + 15, p16 + 16, p16 + 17, p16 + 18, p16 + 19, p16 + 20, p16 + 21, p16 + 22, p16 + 23, p16 + 24, p16 + 25, p16 + 26, p16 + 27, p16 + 28, p16 + 29, p16 + 30, p16 + 31, p16 + 32, p16 + 33, p16 + 34, p16 + 35, p16 + 36, p16 + 37, p16 + 38, p16 + 39, 12};
Line(17) = {11, 8};
Line(18) = {12, 9};
Curve Loop(1) = {-1, 4, 3, -2};
Plane Surface(1) = {1};
Curve Loop(2) = {-5, 1, 7, -6};
Plane Surface(2) = {2};
Curve Loop(3) = {-2, 7, 9, -8, -10, -11};
Plane Surface(3) = {3};
Curve Loop(4) = {-12, 3, 8, -13};
Plane Surface(4) = {4};
Curve Loop(5) = {-4, 5, 14, -12, -15, -16};
Plane Surface(5) = {5};
Curve Loop(6) = {-6, 14, 13, -9};
Plane Surface(6) = {6};
Curve Loop(7) = {-10, -17, 15, 17};
Surface(7) = {7};
Curve Loop(8) = {-11, -18, 16, 18};
Surface(8) = {8};
Surface Loop(1) = {1, 2, 3, 4, 5, 6, 7, 8};
Volume(1) = {1};
Physical Surface("INFLOW") = {1};
Physical Surface("OUTFLOW") = {6};
Physical Surface("OBSTACLE") = {7, 8};
Physical Surface("WALL_Y") = {2, 4};
Physical Surface("WALL_Z") = {3, 5};
Physical Volume("FLUID") = {1};
