cl__1 = 1.049354;
cl__2 = 1.144795;
cl__3 = 1.544837;
cl__4 = 1.539562;
cl__5 = 0.08330700000000001;
cl__6 = 0.089577;
Point(1) = {0.91977, -3.966016, 1, cl__1};
Point(2) = {0.91977, -3.966016, 0, cl__1};
Point(3) = {0.91977, 4.142275, 1, cl__2};
Point(4) = {0.91977, 4.142275, 0, cl__2};
Point(5) = {38.444844, -3.966016, 0, cl__3};
Point(6) = {38.444844, -3.966016, 1, cl__3};
Point(7) = {38.444844, 4.142275, 1, cl__4};
Point(8) = {12.761526, -1.301273, 1, cl__5};
Point(9) = {23.534832, 0.1942949999999998, 1, cl__6};
Point(10) = {38.444844, 4.142275, 0, cl__4};
Point(11) = {12.761526, -1.301273, 0, cl__5};
Point(12) = {23.534832, 0.1942949999999998, 0, cl__6};
Line(1) = {2, 1};
Line(2) = {1, 3};
Line(3) = {4, 3};
Line(4) = {2, 4};
Line(5) = {2, 5};
Line(6) = {5, 6};
Line(7) = {1, 6};
Line(8) = {3, 7};
Line(9) = {6, 7};
p10 = newp;
Point(p10 + 1) = {12.75126953821125, -1.1709522966434, 1};
Point(p10 + 2) = {12.72075270097349, -1.043840521513057, 1};
Point(p10 + 3) = {12.67072691409908, -0.9230675883724755, 1};
Point(p10 + 4) = {12.60242397848694, -0.8116073276579616, 1};
Point(p10 + 5) = {12.5175257390963, -0.712204260903704, 1};
Point(p10 + 6) = {12.41812267234204, -0.6273060215130568, 1};
Point(p10 + 7) = {12.30666241162752, -0.5590030859009206, 1};
Point(p10 + 8) = {12.18588947848694, -0.5089772990265127, 1};
Point(p10 + 9) = {12.0587777033566, -0.4784604617887491, 1};
Point(p10 + 10) = {11.928457, -0.468204, 1};
Point(p10 + 11) = {11.7981362966434, -0.4784604617887492, 1};
Point(p10 + 12) = {11.67102452151306, -0.5089772990265126, 1};
Point(p10 + 13) = {11.55025158837248, -0.5590030859009205, 1};
Point(p10 + 14) = {11.43879132765796, -0.6273060215130568, 1};
Point(p10 + 15) = {11.3393882609037, -0.7122042609037039, 1};
Point(p10 + 16) = {11.25449002151306, -0.8116073276579616, 1};
Point(p10 + 17) = {11.18618708590092, -0.9230675883724754, 1};
Point(p10 + 18) = {11.13616129902651, -1.043840521513057, 1};
Point(p10 + 19) = {11.10564446178875, -1.1709522966434, 1};
Point(p10 + 20) = {11.095388, -1.301273, 1};
Point(p10 + 21) = {11.10564446178875, -1.4315937033566, 1};
Point(p10 + 22) = {11.13616129902651, -1.558705478486943, 1};
Point(p10 + 23) = {11.18618708590092, -1.679478411627524, 1};
Point(p10 + 24) = {11.25449002151306, -1.790938672342038, 1};
Point(p10 + 25) = {11.3393882609037, -1.890341739096296, 1};
Point(p10 + 26) = {11.43879132765796, -1.975239978486943, 1};
Point(p10 + 27) = {11.55025158837248, -2.043542914099079, 1};
Point(p10 + 28) = {11.67102452151306, -2.093568700973487, 1};
Point(p10 + 29) = {11.7981362966434, -2.124085538211251, 1};
Point(p10 + 30) = {11.928457, -2.134342, 1};
Point(p10 + 31) = {12.0587777033566, -2.124085538211251, 1};
Point(p10 + 32) = {12.18588947848694, -2.093568700973487, 1};
Point(p10 + 33) = {12.30666241162752, -2.04354291409908, 1};
Point(p10 + 34) = {12.41812267234204, -1.975239978486943, 1};
Point(p10 + 35) = {12.5175257390963, -1.890341739096296, 1};
Point(p10 + 36) = {12.60242397848694, -1.790938672342038, 1};
Point(p10 + 37) = {12.67072691409908, -1.679478411627525, 1};
Point(p10 + 38) = {12.72075270097349, -1.558705478486943, 1};
Point(p10 + 39) = {12.75126953821125, -1.4315937033566, 1};
Spline(10) = {8, p10 + 1, p10 + 2, p10 + 3, p10 + 4, p10 + 5, p10 + 6, p10 + 7, p10 + 8, p10 + 9, p10 + 10, p10 + 11, p10 + 12, p10 + 13, p10 + 14, p10 + 15, p10 + 16, p10 + 17, p10 + 18, p10 + 19, p10 + 20, p10 + 21, p10 + 22, p10 + 23, p10 + 24, p10 + 25, p10 + 26, p10 + 27, p10 + 28, p10 + 29, p10 + 30, p10 + 31, p10 + 32, p10 + 33, p10 + 34, p10 + 35, p10 + 36, p10 + 37, p10 + 38, p10 + 39, 8};
p11 = newp;
Point(p11 + 1) = {23.52380362178988, 0.3344238314456925, 1};
Point(p11 + 2) = {23.49099004243216, 0.4711022260002635, 1};
Point(p11 + 3) = {23.43719924115264, 0.6009647079801945, 1};
Point(p11 + 4) = {23.36375572600026, 0.7208136320902717, 1};
Point(p11 + 5) = {23.27246792006313, 0.82769792006313, 1};
Point(p11 + 6) = {23.16558363209027, 0.9189857260002635, 1};
Point(p11 + 7) = {23.04573470798019, 0.9924292411526416, 1};
Point(p11 + 8) = {22.91587222600026, 1.046220042432161, 1};
Point(p11 + 9) = {22.77919383144569, 1.079033621789885, 1};
Point(p11 + 10) = {22.639065, 1.090062, 1};
Point(p11 + 11) = {22.49893616855431, 1.079033621789885, 1};
Point(p11 + 12) = {22.36225777399974, 1.046220042432161, 1};
Point(p11 + 13) = {22.2323952920198, 0.9924292411526418, 1};
Point(p11 + 14) = {22.11254636790973, 0.9189857260002635, 1};
Point(p11 + 15) = {22.00566207993687, 0.8276979200631301, 1};
Point(p11 + 16) = {21.91437427399973, 0.7208136320902718, 1};
Point(p11 + 17) = {21.84093075884736, 0.6009647079801946, 1};
Point(p11 + 18) = {21.78713995756784, 0.4711022260002636, 1};
Point(p11 + 19) = {21.75432637821011, 0.3344238314456925, 1};
Point(p11 + 20) = {21.743298, 0.1942950000000001, 1};
Point(p11 + 21) = {21.75432637821011, 0.05416616855430764, 1};
Point(p11 + 22) = {21.78713995756784, -0.08251222600026381, 1};
Point(p11 + 23) = {21.84093075884736, -0.2123747079801941, 1};
Point(p11 + 24) = {21.91437427399973, -0.3322236320902717, 1};
Point(p11 + 25) = {22.00566207993687, -0.43910792006313, 1};
Point(p11 + 26) = {22.11254636790973, -0.5303957260002634, 1};
Point(p11 + 27) = {22.2323952920198, -0.6038392411526416, 1};
Point(p11 + 28) = {22.36225777399974, -0.6576300424321608, 1};
Point(p11 + 29) = {22.49893616855431, -0.6904436217898846, 1};
Point(p11 + 30) = {22.639065, -0.701472, 1};
Point(p11 + 31) = {22.77919383144569, -0.6904436217898847, 1};
Point(p11 + 32) = {22.91587222600026, -0.6576300424321608, 1};
Point(p11 + 33) = {23.04573470798019, -0.6038392411526418, 1};
Point(p11 + 34) = {23.16558363209027, -0.5303957260002636, 1};
Point(p11 + 35) = {23.27246792006313, -0.4391079200631303, 1};
Point(p11 + 36) = {23.36375572600026, -0.3322236320902719, 1};
Point(p11 + 37) = {23.43719924115264, -0.2123747079801948, 1};
Point(p11 + 38) = {23.49099004243216, -0.0825122260002637, 1};
Point(p11 + 39) = {23.52380362178988, 0.05416616855430731, 1};
Spline(11) = {9, p11 + 1, p11 + 2, p11 + 3, p11 + 4, p11 + 5, p11 + 6, p11 + 7, p11 + 8, p11 + 9, p11 + 10, p11 + 11, p11 + 12, p11 + 13, p11 + 14, p11 + 15, p11 + 16, p11 + 17, p11 + 18, p11 + 19, p11 + 20, p11 + 21, p11 + 22, p11 + 23, p11 + 24, p11 + 25, p11 + 26, p11 + 27, p11 + 28, p11 + 29, p11 + 30, p11 + 31, p11 + 32, p11 + 33, p11 + 34, p11 + 35, p11 + 36, p11 + 37, p11 + 38, p11 + 39, 9};
Line(12) = {4, 10};
Line(13) = {10, 7};
Line(14) = {5, 10};
p15 = newp;
Point(p15 + 1) = {12.75126953821125, -1.1709522966434, 0};
Point(p15 + 2) = {12.72075270097349, -1.043840521513057, 0};
Point(p15 + 3) = {12.67072691409908, -0.9230675883724755, 0};
Point(p15 + 4) = {12.60242397848694, -0.8116073276579616, 0};
Point(p15 + 5) = {12.5175257390963, -0.712204260903704, 0};
Point(p15 + 6) = {12.41812267234204, -0.6273060215130568, 0};
Point(p15 + 7) = {12.30666241162752, -0.5590030859009206, 0};
Point(p15 + 8) = {12.18588947848694, -0.5089772990265127, 0};
Point(p15 + 9) = {12.0587777033566, -0.4784604617887491, 0};
Point(p15 + 10) = {11.928457, -0.468204, 0};
Point(p15 + 11) = {11.7981362966434, -0.4784604617887492, 0};
Point(p15 + 12) = {11.67102452151306, -0.5089772990265126, 0};
Point(p15 + 13) = {11.55025158837248, -0.5590030859009205, 0};
Point(p15 + 14) = {11.43879132765796, -0.6273060215130568, 0};
Point(p15 + 15) = {11.3393882609037, -0.7122042609037039, 0};
Point(p15 + 16) = {11.25449002151306, -0.8116073276579616, 0};
Point(p15 + 17) = {11.18618708590092, -0.9230675883724754, 0};
Point(p15 + 18) = {11.13616129902651, -1.043840521513057, 0};
Point(p15 + 19) = {11.10564446178875, -1.1709522966434, 0};
Point(p15 + 20) = {11.095388, -1.301273, 0};
Point(p15 + 21) = {11.10564446178875, -1.4315937033566, 0};
Point(p15 + 22) = {11.13616129902651, -1.558705478486943, 0};
Point(p15 + 23) = {11.18618708590092, -1.679478411627524, 0};
Point(p15 + 24) = {11.25449002151306, -1.790938672342038, 0};
Point(p15 + 25) = {11.3393882609037, -1.890341739096296, 0};
Point(p15 + 26) = {11.43879132765796, -1.975239978486943, 0};
Point(p15 + 27) = {11.55025158837248, -2.043542914099079, 0};
Point(p15 + 28) = {11.67102452151306, -2.093568700973487, 0};
Point(p15 + 29) = {11.7981362966434, -2.124085538211251, 0};
Point(p15 + 30) = {11.928457, -2.134342, 0};
Point(p15 + 31) = {12.0587777033566, -2.124085538211251, 0};
Point(p15 + 32) = {12.18588947848694, -2.093568700973487, 0};
Point(p15 + 33) = {12.30666241162752, -2.04354291409908, 0};
Point(p15 + 34) = {12.41812267234204, -1.975239978486943, 0};
Point(p15 + 35) = {12.5175257390963, -1.890341739096296, 0};
Point(p15 + 36) = {12.60242397848694, -1.790938672342038, 0};
Point(p15 + 37) = {12.67072691409908, -1.679478411627525, 0};
Point(p15 + 38) = {12.72075270097349, -1.558705478486943, 0};
Point(p15 + 39) = {12.75126953821125, -1.4315937033566, 0};
Spline(15) = {11, p15 + 1, p15 + 2, p15 + 3, p15 + 4, p15 + 5, p15 + 6, p15 + 7, p15 + 8, p15 + 9, p15 + 10, p15 + 11, p15 + 12, p15 + 13, p15 + 14, p15 + 15, p15 + 16, p15 + 17, p15 + 18, p15 + 19, p15 + 20, p15 + 21, p15 + 22, p15 + 23, p15 + 24, p15 + 25, p15 + 26, p15 + 27, p15 + 28, p15 + 29, p15 + 30, p15 + 31, p15 + 32, p15 + 33, p15 + 34, p15 + 35, p15 + 36, p15 + 37, p15 + 38, p15 + 39, 11};
p16 = newp;
Point(p16 + 1) = {23.52380362178988, 0.3344238314456925, 0};
Point(p16 + 2) = {23.49099004243216, 0.4711022260002635, 0};
Point(p16 + 3) = {23.43719924115264, 0.6009647079801945, 0};
Point(p16 + 4) = {23.36375572600026, 0.7208136320902717, 0};
Point(p16 + 5) = {23.27246792006313, 0.82769792006313, 0};
Point(p16 + 6) = {23.16558363209027, 0.9189857260002635, 0};
Point(p16 + 7) = {23.04573470798019, 0.9924292411526416, 0};
Point(p16 + 8) = {22.91587222600026, 1.046220042432161, 0};
Point(p16 + 9) = {22.77919383144569, 1.079033621789885, 0};
Point(p16 + 10) = {22.639065, 1.090062, 0};
Point(p16 + 11) = {22.49893616855431, 1.079033621789885, 0};
Point(p16 + 12) = {22.36225777399974, 1.046220042432161, 0};
Point(p16 + 13) = {22.2323952920198, 0.9924292411526418, 0};
Point(p16 + 14) = {22.11254636790973, 0.9189857260002635, 0};
Point(p16 + 15) = {22.00566207993687, 0.8276979200631301, 0};
Point(p16 + 16) = {21.91437427399973, 0.7208136320902718, 0};
Point(p16 + 17) = {21.84093075884736, 0.6009647079801946, 0};
Point(p16 + 18) = {21.78713995756784, 0.4711022260002636, 0};
Point(p16 + 19) = {21.75432637821011, 0.3344238314456925, 0};
Point(p16 + 20) = {21.743298, 0.1942950000000001, 0};
Point(p16 + 21) = {21.75432637821011, 0.05416616855430764, 0};
Point(p16 + 22) = {21.78713995756784, -0.08251222600026381, 0};
Point(p16 + 23) = {21.84093075884736, -0.2123747079801941, 0};
Point(p16 + 24) = {21.91437427399973, -0.3322236320902717, 0};
Point(p16 + 25) = {22.00566207993687, -0.43910792006313, 0};
Point(p16 + 26) = {22.11254636790973, -0.5303957260002634, 0};
Point(p16 + 27) = {22.2323952920198, -0.6038392411526416, 0};
Point(p16 + 28) = {22.36225777399974, -0.6576300424321608, 0};
Point(p16 + 29) = {22.49893616855431, -0.6904436217898846, 0};
Point(p16 + 30) = {22.639065, -0.701472, 0};
Point(p16 + 31) = {22.77919383144569, -0.6904436217898847, 0};
Point(p16 + 32) = {22.91587222600026, -0.6576300424321608, 0};
Point(p16 + 33) = {23.04573470798019, -0.6038392411526418, 0};
Point(p16 + 34) = {23.16558363209027, -0.5303957260002636, 0};
Point(p16 + 35) = {23.27246792006313, -0.4391079200631303, 0};
Point(p16 + 36) = {23.36375572600026, -0.3322236320902719, 0};
Point(p16 + 37) = {23.43719924115264, -0.2123747079801948, 0};
Point(p16 + 38) = {23.49099004243216, -0.0825122260002637, 0};
Point(p16 + 39) = {23.52380362178988, 0.05416616855430731, 0};
Spline(16) = {12, p16 + 1, p16 + 2, p16 + 3, p16 + 4, p16 + 5, p16 + 6, p16 + 7, p16 + 8, p16 + 9, p16 + 10, p16 + 11, p16 + 12, p16 + 13, p16 + 14, p16 + 15, p16 + 16, p16 + 17, p16 + 18, p16 + 19, p16 + 20, p16 + 21, p16 + 22, p16 + 23, p16 + 24, p16 + 25, p16 + 26, p16 + 27, p16 + 28, p16 + 29, p16 + 30, p16 + 31, p16 + 32, p16 + 33, p16 + 34, p16 + 35, p16 + 36, p16 + 37, p16 + 38, p16 + 39, 12};
Line(17) = {11, 8};
Line(18) = {12, 9};
Curve Loop(1) = {-1, 4, 3, -2};
Plane Surface(1) = {1};
Curve Loop(2) = {-5, 1, 7, -6};
Plane Surface(2) = {2};
Curve Loop(3) = {-2, 7, 9, -8, -10, -11};
Plane Surface(3) = {3};
Curve Loop(4) = {-12, 3, 8, -13};
Plane Surface(4) = {4};
Curve Loop(5) = {-4, 5, 14, -12, -15, -16};
Plane Surface(5) = {5};
Curve Loop(6) = {-6, 14, 13, -9};
Plane Surface(6) = {6};
Curve Loop(7) = {-10, -17, 15, 17};
Surface(7) = {7};
Curve Loop(8) = {-11, -18, 16, 18};
Surface(8) = {8};
Surface Loop(1) = {1, 2, 3, 4, 5, 6, 7, 8};
Volume(1) = {1};
Physical Surface("INFLOW") = {1};
Physical Surface("OUTFLOW") = {6};
Physical Surface("OBSTACLE") = {7, 8};
Physical Surface("WALL_Y") = {2, 4};
Physical Surface("WALL_Z") = {3, 5};
Physical Volume("FLUID") = {1};
