cl__1 = 0.353091;
cl__2 = 0.502904;
cl__3 = 3.628648;
cl__4 = 4.152571;
cl__5 = 0.117156;
cl__6 = 0.06944500000000001;
Point(1) = {0.222144, -2.842521, 1, cl__1};
Point(2) = {0.222144, -2.842521, 0, cl__1};
Point(3) = {0.222144, 4.713851, 1, cl__2};
Point(4) = {0.222144, 4.713851, 0, cl__2};
Point(5) = {32.779272, -2.842521, 0, cl__3};
Point(6) = {32.779272, -2.842521, 1, cl__3};
Point(7) = {32.779272, 4.713851, 1, cl__4};
Point(8) = {18.820321, -0.4121390000000003, 1, cl__5};
Point(9) = {3.558602, 0.08907099999999983, 1, cl__6};
Point(10) = {32.779272, 4.713851, 0, cl__4};
Point(11) = {18.820321, -0.4121390000000003, 0, cl__5};
Point(12) = {3.558602, 0.08907099999999983, 0, cl__6};
Line(1) = {2, 1};
Line(2) = {1, 3};
Line(3) = {4, 3};
Line(4) = {2, 4};
Line(5) = {2, 5};
Line(6) = {5, 6};
Line(7) = {1, 6};
Line(8) = {3, 7};
Line(9) = {6, 7};
p10 = newp;
Point(p10 + 1) = {18.80589717693096, -0.2288669510063972, 1};
Point(p10 + 2) = {18.76298087011772, -0.05010766810407535, 1};
Point(p10 + 3) = {18.69262882146507, 0.119737201893864, 1};
Point(p10 + 4) = {18.59657333189593, 0.2764855146052653, 1};
Point(p10 + 5) = {18.47717960635335, 0.4162776063533493, 1};
Point(p10 + 6) = {18.33738751460526, 0.5356713318959248, 1};
Point(p10 + 7) = {18.18063920189386, 0.6317268214650757, 1};
Point(p10 + 8) = {18.01079433189592, 0.7020788701177176, 1};
Point(p10 + 9) = {17.8320350489936, 0.7449951769309584, 1};
Point(p10 + 10) = {17.648763, 0.7594190000000001, 1};
Point(p10 + 11) = {17.46549095100639, 0.7449951769309584, 1};
Point(p10 + 12) = {17.28673166810407, 0.7020788701177176, 1};
Point(p10 + 13) = {17.11688679810614, 0.631726821465076, 1};
Point(p10 + 14) = {16.96013848539473, 0.5356713318959248, 1};
Point(p10 + 15) = {16.82034639364665, 0.4162776063533494, 1};
Point(p10 + 16) = {16.70095266810407, 0.2764855146052654, 1};
Point(p10 + 17) = {16.60489717853492, 0.1197372018938641, 1};
Point(p10 + 18) = {16.53454512988228, -0.05010766810407519, 1};
Point(p10 + 19) = {16.49162882306904, -0.228866951006397, 1};
Point(p10 + 20) = {16.477205, -0.4121389999999998, 1};
Point(p10 + 21) = {16.49162882306904, -0.5954110489936026, 1};
Point(p10 + 22) = {16.53454512988228, -0.774170331895925, 1};
Point(p10 + 23) = {16.60489717853492, -0.9440152018938635, 1};
Point(p10 + 24) = {16.70095266810407, -1.100763514605265, 1};
Point(p10 + 25) = {16.82034639364665, -1.240555606353349, 1};
Point(p10 + 26) = {16.96013848539473, -1.359949331895925, 1};
Point(p10 + 27) = {17.11688679810613, -1.456004821465076, 1};
Point(p10 + 28) = {17.28673166810407, -1.526356870117718, 1};
Point(p10 + 29) = {17.46549095100639, -1.569273176930958, 1};
Point(p10 + 30) = {17.648763, -1.583697, 1};
Point(p10 + 31) = {17.8320350489936, -1.569273176930958, 1};
Point(p10 + 32) = {18.01079433189592, -1.526356870117718, 1};
Point(p10 + 33) = {18.18063920189386, -1.456004821465076, 1};
Point(p10 + 34) = {18.33738751460526, -1.359949331895925, 1};
Point(p10 + 35) = {18.47717960635335, -1.240555606353349, 1};
Point(p10 + 36) = {18.59657333189593, -1.100763514605265, 1};
Point(p10 + 37) = {18.69262882146507, -0.9440152018938641, 1};
Point(p10 + 38) = {18.76298087011772, -0.7741703318959249, 1};
Point(p10 + 39) = {18.80589717693096, -0.5954110489936031, 1};
Spline(10) = {8, p10 + 1, p10 + 2, p10 + 3, p10 + 4, p10 + 5, p10 + 6, p10 + 7, p10 + 8, p10 + 9, p10 + 10, p10 + 11, p10 + 12, p10 + 13, p10 + 14, p10 + 15, p10 + 16, p10 + 17, p10 + 18, p10 + 19, p10 + 20, p10 + 21, p10 + 22, p10 + 23, p10 + 24, p10 + 25, p10 + 26, p10 + 27, p10 + 28, p10 + 29, p10 + 30, p10 + 31, p10 + 32, p10 + 33, p10 + 34, p10 + 35, p10 + 36, p10 + 37, p10 + 38, p10 + 39, 8};
p11 = newp;
Point(p11 + 1) = {3.550052168126293, 0.1977069142471883, 1};
Point(p11 + 2) = {3.524613197741169, 0.3036678517436822, 1};
Point(p11 + 3) = {3.482911480722612, 0.4043447025441282, 1};
Point(p11 + 4) = {3.425973851743682, 0.497258468454508, 1};
Point(p11 + 5) = {3.355202304194998, 0.5801213041949979, 1};
Point(p11 + 6) = {3.272339468454508, 0.6508928517436823, 1};
Point(p11 + 7) = {3.179425702544128, 0.707830480722612, 1};
Point(p11 + 8) = {3.078748851743682, 0.7495321977411694, 1};
Point(p11 + 9) = {2.972787914247188, 0.7749711681262934, 1};
Point(p11 + 10) = {2.864152, 0.783521, 1};
Point(p11 + 11) = {2.755516085752811, 0.7749711681262934, 1};
Point(p11 + 12) = {2.649555148256318, 0.7495321977411694, 1};
Point(p11 + 13) = {2.548878297455872, 0.7078304807226121, 1};
Point(p11 + 14) = {2.455964531545492, 0.6508928517436823, 1};
Point(p11 + 15) = {2.373101695805002, 0.580121304194998, 1};
Point(p11 + 16) = {2.302330148256318, 0.4972584684545081, 1};
Point(p11 + 17) = {2.245392519277388, 0.4043447025441284, 1};
Point(p11 + 18) = {2.20369080225883, 0.3036678517436823, 1};
Point(p11 + 19) = {2.178251831873706, 0.1977069142471884, 1};
Point(p11 + 20) = {2.169702, 0.08907100000000008, 1};
Point(p11 + 21) = {2.178251831873706, -0.01956491424718823, 1};
Point(p11 + 22) = {2.20369080225883, -0.1255258517436825, 1};
Point(p11 + 23) = {2.245392519277388, -0.2262027025441279, 1};
Point(p11 + 24) = {2.302330148256317, -0.3191164684545079, 1};
Point(p11 + 25) = {2.373101695805002, -0.4019793041949979, 1};
Point(p11 + 26) = {2.455964531545492, -0.4727508517436821, 1};
Point(p11 + 27) = {2.548878297455872, -0.529688480722612, 1};
Point(p11 + 28) = {2.649555148256317, -0.5713901977411694, 1};
Point(p11 + 29) = {2.755516085752811, -0.5968291681262934, 1};
Point(p11 + 30) = {2.864152, -0.605379, 1};
Point(p11 + 31) = {2.972787914247188, -0.5968291681262934, 1};
Point(p11 + 32) = {3.078748851743682, -0.5713901977411694, 1};
Point(p11 + 33) = {3.179425702544128, -0.5296884807226121, 1};
Point(p11 + 34) = {3.272339468454508, -0.4727508517436824, 1};
Point(p11 + 35) = {3.355202304194997, -0.4019793041949981, 1};
Point(p11 + 36) = {3.425973851743682, -0.3191164684545081, 1};
Point(p11 + 37) = {3.482911480722612, -0.2262027025441284, 1};
Point(p11 + 38) = {3.524613197741169, -0.1255258517436824, 1};
Point(p11 + 39) = {3.550052168126293, -0.01956491424718848, 1};
Spline(11) = {9, p11 + 1, p11 + 2, p11 + 3, p11 + 4, p11 + 5, p11 + 6, p11 + 7, p11 + 8, p11 + 9, p11 + 10, p11 + 11, p11 + 12, p11 + 13, p11 + 14, p11 + 15, p11 + 16, p11 + 17, p11 + 18, p11 + 19, p11 + 20, p11 + 21, p11 + 22, p11 + 23, p11 + 24, p11 + 25, p11 + 26, p11 + 27, p11 + 28, p11 + 29, p11 + 30, p11 + 31, p11 + 32, p11 + 33, p11 + 34, p11 + 35, p11 + 36, p11 + 37, p11 + 38, p11 + 39, 9};
Line(12) = {4, 10};
Line(13) = {10, 7};
Line(14) = {5, 10};
p15 = newp;
Point(p15 + 1) = {18.80589717693096, -0.2288669510063972, 0};
Point(p15 + 2) = {18.76298087011772, -0.05010766810407535, 0};
Point(p15 + 3) = {18.69262882146507, 0.119737201893864, 0};
Point(p15 + 4) = {18.59657333189593, 0.2764855146052653, 0};
Point(p15 + 5) = {18.47717960635335, 0.4162776063533493, 0};
Point(p15 + 6) = {18.33738751460526, 0.5356713318959248, 0};
Point(p15 + 7) = {18.18063920189386, 0.6317268214650757, 0};
Point(p15 + 8) = {18.01079433189592, 0.7020788701177176, 0};
Point(p15 + 9) = {17.8320350489936, 0.7449951769309584, 0};
Point(p15 + 10) = {17.648763, 0.7594190000000001, 0};
Point(p15 + 11) = {17.46549095100639, 0.7449951769309584, 0};
Point(p15 + 12) = {17.28673166810407, 0.7020788701177176, 0};
Point(p15 + 13) = {17.11688679810614, 0.631726821465076, 0};
Point(p15 + 14) = {16.96013848539473, 0.5356713318959248, 0};
Point(p15 + 15) = {16.82034639364665, 0.4162776063533494, 0};
Point(p15 + 16) = {16.70095266810407, 0.2764855146052654, 0};
Point(p15 + 17) = {16.60489717853492, 0.1197372018938641, 0};
Point(p15 + 18) = {16.53454512988228, -0.05010766810407519, 0};
Point(p15 + 19) = {16.49162882306904, -0.228866951006397, 0};
Point(p15 + 20) = {16.477205, -0.4121389999999998, 0};
Point(p15 + 21) = {16.49162882306904, -0.5954110489936026, 0};
Point(p15 + 22) = {16.53454512988228, -0.774170331895925, 0};
Point(p15 + 23) = {16.60489717853492, -0.9440152018938635, 0};
Point(p15 + 24) = {16.70095266810407, -1.100763514605265, 0};
Point(p15 + 25) = {16.82034639364665, -1.240555606353349, 0};
Point(p15 + 26) = {16.96013848539473, -1.359949331895925, 0};
Point(p15 + 27) = {17.11688679810613, -1.456004821465076, 0};
Point(p15 + 28) = {17.28673166810407, -1.526356870117718, 0};
Point(p15 + 29) = {17.46549095100639, -1.569273176930958, 0};
Point(p15 + 30) = {17.648763, -1.583697, 0};
Point(p15 + 31) = {17.8320350489936, -1.569273176930958, 0};
Point(p15 + 32) = {18.01079433189592, -1.526356870117718, 0};
Point(p15 + 33) = {18.18063920189386, -1.456004821465076, 0};
Point(p15 + 34) = {18.33738751460526, -1.359949331895925, 0};
Point(p15 + 35) = {18.47717960635335, -1.240555606353349, 0};
Point(p15 + 36) = {18.59657333189593, -1.100763514605265, 0};
Point(p15 + 37) = {18.69262882146507, -0.9440152018938641, 0};
Point(p15 + 38) = {18.76298087011772, -0.7741703318959249, 0};
Point(p15 + 39) = {18.80589717693096, -0.5954110489936031, 0};
Spline(15) = {11, p15 + 1, p15 + 2, p15 + 3, p15 + 4, p15 + 5, p15 + 6, p15 + 7, p15 + 8, p15 + 9, p15 + 10, p15 + 11, p15 + 12, p15 + 13, p15 + 14, p15 + 15, p15 + 16, p15 + 17, p15 + 18, p15 + 19, p15 + 20, p15 + 21, p15 + 22, p15 + 23, p15 + 24, p15 + 25, p15 + 26, p15 + 27, p15 + 28, p15 + 29, p15 + 30, p15 + 31, p15 + 32, p15 + 33, p15 + 34, p15 + 35, p15 + 36, p15 + 37, p15 + 38, p15 + 39, 11};
p16 = newp;
Point(p16 + 1) = {3.550052168126293, 0.1977069142471883, 0};
Point(p16 + 2) = {3.524613197741169, 0.3036678517436822, 0};
Point(p16 + 3) = {3.482911480722612, 0.4043447025441282, 0};
Point(p16 + 4) = {3.425973851743682, 0.497258468454508, 0};
Point(p16 + 5) = {3.355202304194998, 0.5801213041949979, 0};
Point(p16 + 6) = {3.272339468454508, 0.6508928517436823, 0};
Point(p16 + 7) = {3.179425702544128, 0.707830480722612, 0};
Point(p16 + 8) = {3.078748851743682, 0.7495321977411694, 0};
Point(p16 + 9) = {2.972787914247188, 0.7749711681262934, 0};
Point(p16 + 10) = {2.864152, 0.783521, 0};
Point(p16 + 11) = {2.755516085752811, 0.7749711681262934, 0};
Point(p16 + 12) = {2.649555148256318, 0.7495321977411694, 0};
Point(p16 + 13) = {2.548878297455872, 0.7078304807226121, 0};
Point(p16 + 14) = {2.455964531545492, 0.6508928517436823, 0};
Point(p16 + 15) = {2.373101695805002, 0.580121304194998, 0};
Point(p16 + 16) = {2.302330148256318, 0.4972584684545081, 0};
Point(p16 + 17) = {2.245392519277388, 0.4043447025441284, 0};
Point(p16 + 18) = {2.20369080225883, 0.3036678517436823, 0};
Point(p16 + 19) = {2.178251831873706, 0.1977069142471884, 0};
Point(p16 + 20) = {2.169702, 0.08907100000000008, 0};
Point(p16 + 21) = {2.178251831873706, -0.01956491424718823, 0};
Point(p16 + 22) = {2.20369080225883, -0.1255258517436825, 0};
Point(p16 + 23) = {2.245392519277388, -0.2262027025441279, 0};
Point(p16 + 24) = {2.302330148256317, -0.3191164684545079, 0};
Point(p16 + 25) = {2.373101695805002, -0.4019793041949979, 0};
Point(p16 + 26) = {2.455964531545492, -0.4727508517436821, 0};
Point(p16 + 27) = {2.548878297455872, -0.529688480722612, 0};
Point(p16 + 28) = {2.649555148256317, -0.5713901977411694, 0};
Point(p16 + 29) = {2.755516085752811, -0.5968291681262934, 0};
Point(p16 + 30) = {2.864152, -0.605379, 0};
Point(p16 + 31) = {2.972787914247188, -0.5968291681262934, 0};
Point(p16 + 32) = {3.078748851743682, -0.5713901977411694, 0};
Point(p16 + 33) = {3.179425702544128, -0.5296884807226121, 0};
Point(p16 + 34) = {3.272339468454508, -0.4727508517436824, 0};
Point(p16 + 35) = {3.355202304194997, -0.4019793041949981, 0};
Point(p16 + 36) = {3.425973851743682, -0.3191164684545081, 0};
Point(p16 + 37) = {3.482911480722612, -0.2262027025441284, 0};
Point(p16 + 38) = {3.524613197741169, -0.1255258517436824, 0};
Point(p16 + 39) = {3.550052168126293, -0.01956491424718848, 0};
Spline(16) = {12, p16 + 1, p16 + 2, p16 + 3, p16 + 4, p16 + 5, p16 + 6, p16 + 7, p16 + 8, p16 + 9, p16 + 10, p16 + 11, p16 + 12, p16 + 13, p16 + 14, p16 + 15, p16 + 16, p16 + 17, p16 + 18, p16 + 19, p16 + 20, p16 + 21, p16 + 22, p16 + 23, p16 + 24, p16 + 25, p16 + 26, p16 + 27, p16 + 28, p16 + 29, p16 + 30, p16 + 31, p16 + 32, p16 + 33, p16 + 34, p16 + 35, p16 + 36, p16 + 37, p16 + 38, p16 + 39, 12};
Line(17) = {11, 8};
Line(18) = {12, 9};
Curve Loop(1) = {-1, 4, 3, -2};
Plane Surface(1) = {1};
Curve Loop(2) = {-5, 1, 7, -6};
Plane Surface(2) = {2};
Curve Loop(3) = {-2, 7, 9, -8, -10, -11};
Plane Surface(3) = {3};
Curve Loop(4) = {-12, 3, 8, -13};
Plane Surface(4) = {4};
Curve Loop(5) = {-4, 5, 14, -12, -15, -16};
Plane Surface(5) = {5};
Curve Loop(6) = {-6, 14, 13, -9};
Plane Surface(6) = {6};
Curve Loop(7) = {-10, -17, 15, 17};
Surface(7) = {7};
Curve Loop(8) = {-11, -18, 16, 18};
Surface(8) = {8};
Surface Loop(1) = {1, 2, 3, 4, 5, 6, 7, 8};
Volume(1) = {1};
Physical Surface("INFLOW") = {1};
Physical Surface("OUTFLOW") = {6};
Physical Surface("OBSTACLE") = {7, 8};
Physical Surface("WALL_Y") = {2, 4};
Physical Surface("WALL_Z") = {3, 5};
Physical Volume("FLUID") = {1};
