cl__1 = 4.205128;
cl__2 = 4.26049;
cl__3 = 0.309821;
cl__4 = 0.454957;
cl__5 = 0.051991;
cl__6 = 0.093613;
Point(1) = {0.256447, -3.290716, 1, cl__1};
Point(2) = {0.256447, -3.290716, 0, cl__1};
Point(3) = {0.256447, 4.493180000000001, 1, cl__2};
Point(4) = {0.256447, 4.493180000000001, 0, cl__2};
Point(5) = {34.05866, -3.290716, 0, cl__3};
Point(6) = {34.05866, -3.290716, 1, cl__3};
Point(7) = {34.05866, 4.493180000000001, 1, cl__4};
Point(8) = {33.345198, -0.1102050000000001, 1, cl__5};
Point(9) = {16.74479, 0.4656719999999998, 1, cl__6};
Point(10) = {34.05866, 4.493180000000001, 0, cl__4};
Point(11) = {33.345198, -0.1102050000000001, 0, cl__5};
Point(12) = {16.74479, 0.4656719999999998, 0, cl__6};
Line(1) = {2, 1};
Line(2) = {1, 3};
Line(3) = {4, 3};
Line(4) = {2, 4};
Line(5) = {2, 5};
Line(6) = {5, 6};
Line(7) = {1, 6};
Line(8) = {3, 7};
Line(9) = {6, 7};
p10 = newp;
Point(p10 + 1) = {33.33879705747047, -0.02887331371539861, 1};
Point(p10 + 2) = {33.3197518423305, 0.05045571652848452, 1};
Point(p10 + 3) = {33.28853131098425, 0.125828746729088, 1};
Point(p10 + 4) = {33.24590421652848, 0.1953898427341274, 1};
Point(p10 + 5) = {33.19292017949991, 0.2574261794999167, 1};
Point(p10 + 6) = {33.13088384273413, 0.3104102165284845, 1};
Point(p10 + 7) = {33.06132274672908, 0.3530373109842501, 1};
Point(p10 + 8) = {32.98594971652848, 0.3842578423304969, 1};
Point(p10 + 9) = {32.9066206862846, 0.4033030574704775, 1};
Point(p10 + 10) = {32.825289, 0.409704, 1};
Point(p10 + 11) = {32.7439573137154, 0.4033030574704773, 1};
Point(p10 + 12) = {32.66462828347152, 0.384257842330497, 1};
Point(p10 + 13) = {32.58925525327091, 0.3530373109842501, 1};
Point(p10 + 14) = {32.51969415726587, 0.3104102165284845, 1};
Point(p10 + 15) = {32.45765782050008, 0.2574261794999168, 1};
Point(p10 + 16) = {32.40467378347152, 0.1953898427341275, 1};
Point(p10 + 17) = {32.36204668901575, 0.1258287467290881, 1};
Point(p10 + 18) = {32.3308261576695, 0.05045571652848457, 1};
Point(p10 + 19) = {32.31178094252952, -0.02887331371539856, 1};
Point(p10 + 20) = {32.30538, -0.1102049999999999, 1};
Point(p10 + 21) = {32.31178094252952, -0.1915366862846013, 1};
Point(p10 + 22) = {32.3308261576695, -0.2708657165284847, 1};
Point(p10 + 23) = {32.36204668901575, -0.3462387467290877, 1};
Point(p10 + 24) = {32.40467378347152, -0.4157998427341273, 1};
Point(p10 + 25) = {32.45765782050008, -0.4778361794999167, 1};
Point(p10 + 26) = {32.51969415726587, -0.5308202165284844, 1};
Point(p10 + 27) = {32.58925525327091, -0.5734473109842501, 1};
Point(p10 + 28) = {32.66462828347152, -0.604667842330497, 1};
Point(p10 + 29) = {32.7439573137154, -0.6237130574704773, 1};
Point(p10 + 30) = {32.825289, -0.630114, 1};
Point(p10 + 31) = {32.9066206862846, -0.6237130574704774, 1};
Point(p10 + 32) = {32.98594971652848, -0.604667842330497, 1};
Point(p10 + 33) = {33.06132274672908, -0.5734473109842502, 1};
Point(p10 + 34) = {33.13088384273413, -0.5308202165284845, 1};
Point(p10 + 35) = {33.19292017949991, -0.4778361794999168, 1};
Point(p10 + 36) = {33.24590421652848, -0.4157998427341275, 1};
Point(p10 + 37) = {33.28853131098425, -0.3462387467290881, 1};
Point(p10 + 38) = {33.3197518423305, -0.2708657165284846, 1};
Point(p10 + 39) = {33.33879705747047, -0.1915366862846015, 1};
Spline(10) = {8, p10 + 1, p10 + 2, p10 + 3, p10 + 4, p10 + 5, p10 + 6, p10 + 7, p10 + 8, p10 + 9, p10 + 10, p10 + 11, p10 + 12, p10 + 13, p10 + 14, p10 + 15, p10 + 16, p10 + 17, p10 + 18, p10 + 19, p10 + 20, p10 + 21, p10 + 22, p10 + 23, p10 + 24, p10 + 25, p10 + 26, p10 + 27, p10 + 28, p10 + 29, p10 + 30, p10 + 31, p10 + 32, p10 + 33, p10 + 34, p10 + 35, p10 + 36, p10 + 37, p10 + 38, p10 + 39, 8};
p11 = newp;
Point(p11 + 1) = {16.73326464934635, 0.6121154650615064, 1};
Point(p11 + 2) = {16.69897238976893, 0.7549530059952025, 1};
Point(p11 + 3) = {16.64275761050803, 0.8906674884926811, 1};
Point(p11 + 4) = {16.5660045059952, 1.01591717158431, 1};
Point(p11 + 5) = {16.47060299239251, 1.127617992392506, 1};
Point(p11 + 6) = {16.35890217158431, 1.223019505995203, 1};
Point(p11 + 7) = {16.23365248849268, 1.299772610508029, 1};
Point(p11 + 8) = {16.0979380059952, 1.355987389768931, 1};
Point(p11 + 9) = {15.95510046506151, 1.390279649346348, 1};
Point(p11 + 10) = {15.808657, 1.401805, 1};
Point(p11 + 11) = {15.66221353493849, 1.390279649346348, 1};
Point(p11 + 12) = {15.5193759940048, 1.355987389768931, 1};
Point(p11 + 13) = {15.38366151150732, 1.299772610508029, 1};
Point(p11 + 14) = {15.25841182841569, 1.223019505995203, 1};
Point(p11 + 15) = {15.14671100760749, 1.127617992392506, 1};
Point(p11 + 16) = {15.0513094940048, 1.01591717158431, 1};
Point(p11 + 17) = {14.97455638949197, 0.8906674884926812, 1};
Point(p11 + 18) = {14.91834161023107, 0.7549530059952028, 1};
Point(p11 + 19) = {14.88404935065365, 0.6121154650615065, 1};
Point(p11 + 20) = {14.872524, 0.4656720000000001, 1};
Point(p11 + 21) = {14.88404935065365, 0.3192285349384937, 1};
Point(p11 + 22) = {14.91834161023107, 0.176390994004797, 1};
Point(p11 + 23) = {14.97455638949197, 0.04067651150731932, 1};
Point(p11 + 24) = {15.0513094940048, -0.08457317158430966, 1};
Point(p11 + 25) = {15.14671100760749, -0.1962739923925062, 1};
Point(p11 + 26) = {15.25841182841569, -0.2916755059952026, 1};
Point(p11 + 27) = {15.38366151150732, -0.3684286105080293, 1};
Point(p11 + 28) = {15.5193759940048, -0.424643389768931, 1};
Point(p11 + 29) = {15.66221353493849, -0.458935649346348, 1};
Point(p11 + 30) = {15.808657, -0.470461, 1};
Point(p11 + 31) = {15.95510046506151, -0.4589356493463481, 1};
Point(p11 + 32) = {16.0979380059952, -0.4246433897689311, 1};
Point(p11 + 33) = {16.23365248849268, -0.3684286105080294, 1};
Point(p11 + 34) = {16.35890217158431, -0.2916755059952028, 1};
Point(p11 + 35) = {16.47060299239251, -0.1962739923925064, 1};
Point(p11 + 36) = {16.5660045059952, -0.08457317158430999, 1};
Point(p11 + 37) = {16.64275761050803, 0.04067651150731866, 1};
Point(p11 + 38) = {16.69897238976893, 0.1763909940047971, 1};
Point(p11 + 39) = {16.73326464934635, 0.3192285349384933, 1};
Spline(11) = {9, p11 + 1, p11 + 2, p11 + 3, p11 + 4, p11 + 5, p11 + 6, p11 + 7, p11 + 8, p11 + 9, p11 + 10, p11 + 11, p11 + 12, p11 + 13, p11 + 14, p11 + 15, p11 + 16, p11 + 17, p11 + 18, p11 + 19, p11 + 20, p11 + 21, p11 + 22, p11 + 23, p11 + 24, p11 + 25, p11 + 26, p11 + 27, p11 + 28, p11 + 29, p11 + 30, p11 + 31, p11 + 32, p11 + 33, p11 + 34, p11 + 35, p11 + 36, p11 + 37, p11 + 38, p11 + 39, 9};
Line(12) = {4, 10};
Line(13) = {10, 7};
Line(14) = {5, 10};
p15 = newp;
Point(p15 + 1) = {33.33879705747047, -0.02887331371539861, 0};
Point(p15 + 2) = {33.3197518423305, 0.05045571652848452, 0};
Point(p15 + 3) = {33.28853131098425, 0.125828746729088, 0};
Point(p15 + 4) = {33.24590421652848, 0.1953898427341274, 0};
Point(p15 + 5) = {33.19292017949991, 0.2574261794999167, 0};
Point(p15 + 6) = {33.13088384273413, 0.3104102165284845, 0};
Point(p15 + 7) = {33.06132274672908, 0.3530373109842501, 0};
Point(p15 + 8) = {32.98594971652848, 0.3842578423304969, 0};
Point(p15 + 9) = {32.9066206862846, 0.4033030574704775, 0};
Point(p15 + 10) = {32.825289, 0.409704, 0};
Point(p15 + 11) = {32.7439573137154, 0.4033030574704773, 0};
Point(p15 + 12) = {32.66462828347152, 0.384257842330497, 0};
Point(p15 + 13) = {32.58925525327091, 0.3530373109842501, 0};
Point(p15 + 14) = {32.51969415726587, 0.3104102165284845, 0};
Point(p15 + 15) = {32.45765782050008, 0.2574261794999168, 0};
Point(p15 + 16) = {32.40467378347152, 0.1953898427341275, 0};
Point(p15 + 17) = {32.36204668901575, 0.1258287467290881, 0};
Point(p15 + 18) = {32.3308261576695, 0.05045571652848457, 0};
Point(p15 + 19) = {32.31178094252952, -0.02887331371539856, 0};
Point(p15 + 20) = {32.30538, -0.1102049999999999, 0};
Point(p15 + 21) = {32.31178094252952, -0.1915366862846013, 0};
Point(p15 + 22) = {32.3308261576695, -0.2708657165284847, 0};
Point(p15 + 23) = {32.36204668901575, -0.3462387467290877, 0};
Point(p15 + 24) = {32.40467378347152, -0.4157998427341273, 0};
Point(p15 + 25) = {32.45765782050008, -0.4778361794999167, 0};
Point(p15 + 26) = {32.51969415726587, -0.5308202165284844, 0};
Point(p15 + 27) = {32.58925525327091, -0.5734473109842501, 0};
Point(p15 + 28) = {32.66462828347152, -0.604667842330497, 0};
Point(p15 + 29) = {32.7439573137154, -0.6237130574704773, 0};
Point(p15 + 30) = {32.825289, -0.630114, 0};
Point(p15 + 31) = {32.9066206862846, -0.6237130574704774, 0};
Point(p15 + 32) = {32.98594971652848, -0.604667842330497, 0};
Point(p15 + 33) = {33.06132274672908, -0.5734473109842502, 0};
Point(p15 + 34) = {33.13088384273413, -0.5308202165284845, 0};
Point(p15 + 35) = {33.19292017949991, -0.4778361794999168, 0};
Point(p15 + 36) = {33.24590421652848, -0.4157998427341275, 0};
Point(p15 + 37) = {33.28853131098425, -0.3462387467290881, 0};
Point(p15 + 38) = {33.3197518423305, -0.2708657165284846, 0};
Point(p15 + 39) = {33.33879705747047, -0.1915366862846015, 0};
Spline(15) = {11, p15 + 1, p15 + 2, p15 + 3, p15 + 4, p15 + 5, p15 + 6, p15 + 7, p15 + 8, p15 + 9, p15 + 10, p15 + 11, p15 + 12, p15 + 13, p15 + 14, p15 + 15, p15 + 16, p15 + 17, p15 + 18, p15 + 19, p15 + 20, p15 + 21, p15 + 22, p15 + 23, p15 + 24, p15 + 25, p15 + 26, p15 + 27, p15 + 28, p15 + 29, p15 + 30, p15 + 31, p15 + 32, p15 + 33, p15 + 34, p15 + 35, p15 + 36, p15 + 37, p15 + 38, p15 + 39, 11};
p16 = newp;
Point(p16 + 1) = {16.73326464934635, 0.6121154650615064, 0};
Point(p16 + 2) = {16.69897238976893, 0.7549530059952025, 0};
Point(p16 + 3) = {16.64275761050803, 0.8906674884926811, 0};
Point(p16 + 4) = {16.5660045059952, 1.01591717158431, 0};
Point(p16 + 5) = {16.47060299239251, 1.127617992392506, 0};
Point(p16 + 6) = {16.35890217158431, 1.223019505995203, 0};
Point(p16 + 7) = {16.23365248849268, 1.299772610508029, 0};
Point(p16 + 8) = {16.0979380059952, 1.355987389768931, 0};
Point(p16 + 9) = {15.95510046506151, 1.390279649346348, 0};
Point(p16 + 10) = {15.808657, 1.401805, 0};
Point(p16 + 11) = {15.66221353493849, 1.390279649346348, 0};
Point(p16 + 12) = {15.5193759940048, 1.355987389768931, 0};
Point(p16 + 13) = {15.38366151150732, 1.299772610508029, 0};
Point(p16 + 14) = {15.25841182841569, 1.223019505995203, 0};
Point(p16 + 15) = {15.14671100760749, 1.127617992392506, 0};
Point(p16 + 16) = {15.0513094940048, 1.01591717158431, 0};
Point(p16 + 17) = {14.97455638949197, 0.8906674884926812, 0};
Point(p16 + 18) = {14.91834161023107, 0.7549530059952028, 0};
Point(p16 + 19) = {14.88404935065365, 0.6121154650615065, 0};
Point(p16 + 20) = {14.872524, 0.4656720000000001, 0};
Point(p16 + 21) = {14.88404935065365, 0.3192285349384937, 0};
Point(p16 + 22) = {14.91834161023107, 0.176390994004797, 0};
Point(p16 + 23) = {14.97455638949197, 0.04067651150731932, 0};
Point(p16 + 24) = {15.0513094940048, -0.08457317158430966, 0};
Point(p16 + 25) = {15.14671100760749, -0.1962739923925062, 0};
Point(p16 + 26) = {15.25841182841569, -0.2916755059952026, 0};
Point(p16 + 27) = {15.38366151150732, -0.3684286105080293, 0};
Point(p16 + 28) = {15.5193759940048, -0.424643389768931, 0};
Point(p16 + 29) = {15.66221353493849, -0.458935649346348, 0};
Point(p16 + 30) = {15.808657, -0.470461, 0};
Point(p16 + 31) = {15.95510046506151, -0.4589356493463481, 0};
Point(p16 + 32) = {16.0979380059952, -0.4246433897689311, 0};
Point(p16 + 33) = {16.23365248849268, -0.3684286105080294, 0};
Point(p16 + 34) = {16.35890217158431, -0.2916755059952028, 0};
Point(p16 + 35) = {16.47060299239251, -0.1962739923925064, 0};
Point(p16 + 36) = {16.5660045059952, -0.08457317158430999, 0};
Point(p16 + 37) = {16.64275761050803, 0.04067651150731866, 0};
Point(p16 + 38) = {16.69897238976893, 0.1763909940047971, 0};
Point(p16 + 39) = {16.73326464934635, 0.3192285349384933, 0};
Spline(16) = {12, p16 + 1, p16 + 2, p16 + 3, p16 + 4, p16 + 5, p16 + 6, p16 + 7, p16 + 8, p16 + 9, p16 + 10, p16 + 11, p16 + 12, p16 + 13, p16 + 14, p16 + 15, p16 + 16, p16 + 17, p16 + 18, p16 + 19, p16 + 20, p16 + 21, p16 + 22, p16 + 23, p16 + 24, p16 + 25, p16 + 26, p16 + 27, p16 + 28, p16 + 29, p16 + 30, p16 + 31, p16 + 32, p16 + 33, p16 + 34, p16 + 35, p16 + 36, p16 + 37, p16 + 38, p16 + 39, 12};
Line(17) = {11, 8};
Line(18) = {12, 9};
Curve Loop(1) = {-1, 4, 3, -2};
Plane Surface(1) = {1};
Curve Loop(2) = {-5, 1, 7, -6};
Plane Surface(2) = {2};
Curve Loop(3) = {-2, 7, 9, -8, -10, -11};
Plane Surface(3) = {3};
Curve Loop(4) = {-12, 3, 8, -13};
Plane Surface(4) = {4};
Curve Loop(5) = {-4, 5, 14, -12, -15, -16};
Plane Surface(5) = {5};
Curve Loop(6) = {-6, 14, 13, -9};
Plane Surface(6) = {6};
Curve Loop(7) = {-10, -17, 15, 17};
Surface(7) = {7};
Curve Loop(8) = {-11, -18, 16, 18};
Surface(8) = {8};
Surface Loop(1) = {1, 2, 3, 4, 5, 6, 7, 8};
Volume(1) = {1};
Physical Surface("INFLOW") = {1};
Physical Surface("OUTFLOW") = {6};
Physical Surface("OBSTACLE") = {7, 8};
Physical Surface("WALL_Y") = {2, 4};
Physical Surface("WALL_Z") = {3, 5};
Physical Volume("FLUID") = {1};
