cl__1 = 3.113314;
cl__2 = 0.472171;
cl__3 = 0.39827;
cl__4 = 0.062745;
cl__5 = 0.13346;
Point(1) = {0.427687, -4.844213, 1, cl__1};
Point(2) = {0.427687, -4.844213, 0, cl__1};
Point(3) = {0.427687, 4.863553, 1, cl__1};
Point(4) = {0.427687, 4.863553, 0, cl__1};
Point(5) = {30.752439, -4.844213, 0, cl__2};
Point(6) = {30.752439, -4.844213, 1, cl__2};
Point(7) = {30.752439, 4.863553, 1, cl__3};
Point(8) = {18.541036, -3.416223, 1, cl__4};
Point(9) = {29.132603, 0.4425799999999996, 1, cl__5};
Point(10) = {30.752439, 4.863553, 0, cl__3};
Point(11) = {18.541036, -3.416223, 0, cl__4};
Point(12) = {29.132603, 0.4425799999999996, 0, cl__5};
Line(1) = {2, 1};
Line(2) = {1, 3};
Line(3) = {4, 3};
Line(4) = {2, 4};
Line(5) = {2, 5};
Line(6) = {5, 6};
Line(7) = {1, 6};
Line(8) = {3, 7};
Line(9) = {6, 7};
p10 = newp;
Point(p10 + 1) = {18.53331109855306, -3.318068820648367, 1};
Point(p10 + 2) = {18.51032660692333, -3.222331522947417, 1};
Point(p10 + 3) = {18.47264847957589, -3.13136847690042, 1};
Point(p10 + 4) = {18.42120447705258, -3.047419494590097, 1};
Point(p10 + 5) = {18.35726132142837, -2.972551678571626, 1};
Point(p10 + 6) = {18.2823935054099, -2.908608522947417, 1};
Point(p10 + 7) = {18.19844452309958, -2.857164520424106, 1};
Point(p10 + 8) = {18.10748147705258, -2.819486393076671, 1};
Point(p10 + 9) = {18.01174417935163, -2.796501901446943, 1};
Point(p10 + 10) = {17.91359, -2.788777, 1};
Point(p10 + 11) = {17.81543582064837, -2.796501901446943, 1};
Point(p10 + 12) = {17.71969852294741, -2.819486393076671, 1};
Point(p10 + 13) = {17.62873547690042, -2.857164520424106, 1};
Point(p10 + 14) = {17.5447864945901, -2.908608522947417, 1};
Point(p10 + 15) = {17.46991867857162, -2.972551678571626, 1};
Point(p10 + 16) = {17.40597552294741, -3.047419494590097, 1};
Point(p10 + 17) = {17.3545315204241, -3.13136847690042, 1};
Point(p10 + 18) = {17.31685339307667, -3.222331522947417, 1};
Point(p10 + 19) = {17.29386890144694, -3.318068820648367, 1};
Point(p10 + 20) = {17.286144, -3.416223, 1};
Point(p10 + 21) = {17.29386890144694, -3.514377179351633, 1};
Point(p10 + 22) = {17.31685339307667, -3.610114477052583, 1};
Point(p10 + 23) = {17.3545315204241, -3.701077523099579, 1};
Point(p10 + 24) = {17.40597552294741, -3.785026505409903, 1};
Point(p10 + 25) = {17.46991867857162, -3.859894321428374, 1};
Point(p10 + 26) = {17.5447864945901, -3.923837477052583, 1};
Point(p10 + 27) = {17.62873547690042, -3.975281479575894, 1};
Point(p10 + 28) = {17.71969852294741, -4.012959606923329, 1};
Point(p10 + 29) = {17.81543582064837, -4.035944098553057, 1};
Point(p10 + 30) = {17.91359, -4.043669, 1};
Point(p10 + 31) = {18.01174417935163, -4.035944098553057, 1};
Point(p10 + 32) = {18.10748147705258, -4.012959606923329, 1};
Point(p10 + 33) = {18.19844452309958, -3.975281479575894, 1};
Point(p10 + 34) = {18.2823935054099, -3.923837477052583, 1};
Point(p10 + 35) = {18.35726132142837, -3.859894321428375, 1};
Point(p10 + 36) = {18.42120447705258, -3.785026505409903, 1};
Point(p10 + 37) = {18.47264847957589, -3.70107752309958, 1};
Point(p10 + 38) = {18.51032660692333, -3.610114477052583, 1};
Point(p10 + 39) = {18.53331109855306, -3.514377179351633, 1};
Spline(10) = {8, p10 + 1, p10 + 2, p10 + 3, p10 + 4, p10 + 5, p10 + 6, p10 + 7, p10 + 8, p10 + 9, p10 + 10, p10 + 11, p10 + 12, p10 + 13, p10 + 14, p10 + 15, p10 + 16, p10 + 17, p10 + 18, p10 + 19, p10 + 20, p10 + 21, p10 + 22, p10 + 23, p10 + 24, p10 + 25, p10 + 26, p10 + 27, p10 + 28, p10 + 29, p10 + 30, p10 + 31, p10 + 32, p10 + 33, p10 + 34, p10 + 35, p10 + 36, p10 + 37, p10 + 38, p10 + 39, 8};
p11 = newp;
Point(p11 + 1) = {29.11617192091657, 0.6513566548703669, 1};
Point(p11 + 2) = {29.06728327136493, 0.8549925356078329, 1};
Point(p11 + 3) = {28.98714085214917, 1.0484734509999, 1};
Point(p11 + 4) = {28.87771803560783, 1.227035258783273, 1};
Point(p11 + 5) = {28.74170917463766, 1.38628117463766, 1};
Point(p11 + 6) = {28.58246325878327, 1.522290035607833, 1};
Point(p11 + 7) = {28.4039014509999, 1.631712852149175, 1};
Point(p11 + 8) = {28.21042053560783, 1.71185527136493, 1};
Point(p11 + 9) = {28.00678465487037, 1.760743920916568, 1};
Point(p11 + 10) = {27.798008, 1.777175, 1};
Point(p11 + 11) = {27.58923134512963, 1.760743920916568, 1};
Point(p11 + 12) = {27.38559546439217, 1.71185527136493, 1};
Point(p11 + 13) = {27.1921145490001, 1.631712852149175, 1};
Point(p11 + 14) = {27.01355274121673, 1.522290035607833, 1};
Point(p11 + 15) = {26.85430682536234, 1.38628117463766, 1};
Point(p11 + 16) = {26.71829796439217, 1.227035258783273, 1};
Point(p11 + 17) = {26.60887514785082, 1.048473450999901, 1};
Point(p11 + 18) = {26.52873272863507, 0.8549925356078331, 1};
Point(p11 + 19) = {26.47984407908343, 0.6513566548703671, 1};
Point(p11 + 20) = {26.463413, 0.4425800000000001, 1};
Point(p11 + 21) = {26.47984407908343, 0.2338033451296332, 1};
Point(p11 + 22) = {26.52873272863507, 0.03016746439216661, 1};
Point(p11 + 23) = {26.60887514785082, -0.1633134509998997, 1};
Point(p11 + 24) = {26.71829796439217, -0.3418752587832731, 1};
Point(p11 + 25) = {26.85430682536234, -0.5011211746376604, 1};
Point(p11 + 26) = {27.01355274121673, -0.6371300356078329, 1};
Point(p11 + 27) = {27.1921145490001, -0.7465528521491747, 1};
Point(p11 + 28) = {27.38559546439217, -0.8266952713649305, 1};
Point(p11 + 29) = {27.58923134512963, -0.8755839209165677, 1};
Point(p11 + 30) = {27.798008, -0.892015, 1};
Point(p11 + 31) = {28.00678465487037, -0.8755839209165679, 1};
Point(p11 + 32) = {28.21042053560783, -0.8266952713649305, 1};
Point(p11 + 33) = {28.4039014509999, -0.7465528521491749, 1};
Point(p11 + 34) = {28.58246325878327, -0.6371300356078331, 1};
Point(p11 + 35) = {28.74170917463766, -0.5011211746376606, 1};
Point(p11 + 36) = {28.87771803560783, -0.3418752587832735, 1};
Point(p11 + 37) = {28.98714085214917, -0.1633134509999007, 1};
Point(p11 + 38) = {29.06728327136493, 0.03016746439216678, 1};
Point(p11 + 39) = {29.11617192091657, 0.2338033451296328, 1};
Spline(11) = {9, p11 + 1, p11 + 2, p11 + 3, p11 + 4, p11 + 5, p11 + 6, p11 + 7, p11 + 8, p11 + 9, p11 + 10, p11 + 11, p11 + 12, p11 + 13, p11 + 14, p11 + 15, p11 + 16, p11 + 17, p11 + 18, p11 + 19, p11 + 20, p11 + 21, p11 + 22, p11 + 23, p11 + 24, p11 + 25, p11 + 26, p11 + 27, p11 + 28, p11 + 29, p11 + 30, p11 + 31, p11 + 32, p11 + 33, p11 + 34, p11 + 35, p11 + 36, p11 + 37, p11 + 38, p11 + 39, 9};
Line(12) = {4, 10};
Line(13) = {10, 7};
Line(14) = {5, 10};
p15 = newp;
Point(p15 + 1) = {18.53331109855306, -3.318068820648367, 0};
Point(p15 + 2) = {18.51032660692333, -3.222331522947417, 0};
Point(p15 + 3) = {18.47264847957589, -3.13136847690042, 0};
Point(p15 + 4) = {18.42120447705258, -3.047419494590097, 0};
Point(p15 + 5) = {18.35726132142837, -2.972551678571626, 0};
Point(p15 + 6) = {18.2823935054099, -2.908608522947417, 0};
Point(p15 + 7) = {18.19844452309958, -2.857164520424106, 0};
Point(p15 + 8) = {18.10748147705258, -2.819486393076671, 0};
Point(p15 + 9) = {18.01174417935163, -2.796501901446943, 0};
Point(p15 + 10) = {17.91359, -2.788777, 0};
Point(p15 + 11) = {17.81543582064837, -2.796501901446943, 0};
Point(p15 + 12) = {17.71969852294741, -2.819486393076671, 0};
Point(p15 + 13) = {17.62873547690042, -2.857164520424106, 0};
Point(p15 + 14) = {17.5447864945901, -2.908608522947417, 0};
Point(p15 + 15) = {17.46991867857162, -2.972551678571626, 0};
Point(p15 + 16) = {17.40597552294741, -3.047419494590097, 0};
Point(p15 + 17) = {17.3545315204241, -3.13136847690042, 0};
Point(p15 + 18) = {17.31685339307667, -3.222331522947417, 0};
Point(p15 + 19) = {17.29386890144694, -3.318068820648367, 0};
Point(p15 + 20) = {17.286144, -3.416223, 0};
Point(p15 + 21) = {17.29386890144694, -3.514377179351633, 0};
Point(p15 + 22) = {17.31685339307667, -3.610114477052583, 0};
Point(p15 + 23) = {17.3545315204241, -3.701077523099579, 0};
Point(p15 + 24) = {17.40597552294741, -3.785026505409903, 0};
Point(p15 + 25) = {17.46991867857162, -3.859894321428374, 0};
Point(p15 + 26) = {17.5447864945901, -3.923837477052583, 0};
Point(p15 + 27) = {17.62873547690042, -3.975281479575894, 0};
Point(p15 + 28) = {17.71969852294741, -4.012959606923329, 0};
Point(p15 + 29) = {17.81543582064837, -4.035944098553057, 0};
Point(p15 + 30) = {17.91359, -4.043669, 0};
Point(p15 + 31) = {18.01174417935163, -4.035944098553057, 0};
Point(p15 + 32) = {18.10748147705258, -4.012959606923329, 0};
Point(p15 + 33) = {18.19844452309958, -3.975281479575894, 0};
Point(p15 + 34) = {18.2823935054099, -3.923837477052583, 0};
Point(p15 + 35) = {18.35726132142837, -3.859894321428375, 0};
Point(p15 + 36) = {18.42120447705258, -3.785026505409903, 0};
Point(p15 + 37) = {18.47264847957589, -3.70107752309958, 0};
Point(p15 + 38) = {18.51032660692333, -3.610114477052583, 0};
Point(p15 + 39) = {18.53331109855306, -3.514377179351633, 0};
Spline(15) = {11, p15 + 1, p15 + 2, p15 + 3, p15 + 4, p15 + 5, p15 + 6, p15 + 7, p15 + 8, p15 + 9, p15 + 10, p15 + 11, p15 + 12, p15 + 13, p15 + 14, p15 + 15, p15 + 16, p15 + 17, p15 + 18, p15 + 19, p15 + 20, p15 + 21, p15 + 22, p15 + 23, p15 + 24, p15 + 25, p15 + 26, p15 + 27, p15 + 28, p15 + 29, p15 + 30, p15 + 31, p15 + 32, p15 + 33, p15 + 34, p15 + 35, p15 + 36, p15 + 37, p15 + 38, p15 + 39, 11};
p16 = newp;
Point(p16 + 1) = {29.11617192091657, 0.6513566548703669, 0};
Point(p16 + 2) = {29.06728327136493, 0.8549925356078329, 0};
Point(p16 + 3) = {28.98714085214917, 1.0484734509999, 0};
Point(p16 + 4) = {28.87771803560783, 1.227035258783273, 0};
Point(p16 + 5) = {28.74170917463766, 1.38628117463766, 0};
Point(p16 + 6) = {28.58246325878327, 1.522290035607833, 0};
Point(p16 + 7) = {28.4039014509999, 1.631712852149175, 0};
Point(p16 + 8) = {28.21042053560783, 1.71185527136493, 0};
Point(p16 + 9) = {28.00678465487037, 1.760743920916568, 0};
Point(p16 + 10) = {27.798008, 1.777175, 0};
Point(p16 + 11) = {27.58923134512963, 1.760743920916568, 0};
Point(p16 + 12) = {27.38559546439217, 1.71185527136493, 0};
Point(p16 + 13) = {27.1921145490001, 1.631712852149175, 0};
Point(p16 + 14) = {27.01355274121673, 1.522290035607833, 0};
Point(p16 + 15) = {26.85430682536234, 1.38628117463766, 0};
Point(p16 + 16) = {26.71829796439217, 1.227035258783273, 0};
Point(p16 + 17) = {26.60887514785082, 1.048473450999901, 0};
Point(p16 + 18) = {26.52873272863507, 0.8549925356078331, 0};
Point(p16 + 19) = {26.47984407908343, 0.6513566548703671, 0};
Point(p16 + 20) = {26.463413, 0.4425800000000001, 0};
Point(p16 + 21) = {26.47984407908343, 0.2338033451296332, 0};
Point(p16 + 22) = {26.52873272863507, 0.03016746439216661, 0};
Point(p16 + 23) = {26.60887514785082, -0.1633134509998997, 0};
Point(p16 + 24) = {26.71829796439217, -0.3418752587832731, 0};
Point(p16 + 25) = {26.85430682536234, -0.5011211746376604, 0};
Point(p16 + 26) = {27.01355274121673, -0.6371300356078329, 0};
Point(p16 + 27) = {27.1921145490001, -0.7465528521491747, 0};
Point(p16 + 28) = {27.38559546439217, -0.8266952713649305, 0};
Point(p16 + 29) = {27.58923134512963, -0.8755839209165677, 0};
Point(p16 + 30) = {27.798008, -0.892015, 0};
Point(p16 + 31) = {28.00678465487037, -0.8755839209165679, 0};
Point(p16 + 32) = {28.21042053560783, -0.8266952713649305, 0};
Point(p16 + 33) = {28.4039014509999, -0.7465528521491749, 0};
Point(p16 + 34) = {28.58246325878327, -0.6371300356078331, 0};
Point(p16 + 35) = {28.74170917463766, -0.5011211746376606, 0};
Point(p16 + 36) = {28.87771803560783, -0.3418752587832735, 0};
Point(p16 + 37) = {28.98714085214917, -0.1633134509999007, 0};
Point(p16 + 38) = {29.06728327136493, 0.03016746439216678, 0};
Point(p16 + 39) = {29.11617192091657, 0.2338033451296328, 0};
Spline(16) = {12, p16 + 1, p16 + 2, p16 + 3, p16 + 4, p16 + 5, p16 + 6, p16 + 7, p16 + 8, p16 + 9, p16 + 10, p16 + 11, p16 + 12, p16 + 13, p16 + 14, p16 + 15, p16 + 16, p16 + 17, p16 + 18, p16 + 19, p16 + 20, p16 + 21, p16 + 22, p16 + 23, p16 + 24, p16 + 25, p16 + 26, p16 + 27, p16 + 28, p16 + 29, p16 + 30, p16 + 31, p16 + 32, p16 + 33, p16 + 34, p16 + 35, p16 + 36, p16 + 37, p16 + 38, p16 + 39, 12};
Line(17) = {11, 8};
Line(18) = {12, 9};
Curve Loop(1) = {-1, 4, 3, -2};
Plane Surface(1) = {1};
Curve Loop(2) = {-5, 1, 7, -6};
Plane Surface(2) = {2};
Curve Loop(3) = {-2, 7, 9, -8, -10, -11};
Plane Surface(3) = {3};
Curve Loop(4) = {-12, 3, 8, -13};
Plane Surface(4) = {4};
Curve Loop(5) = {-4, 5, 14, -12, -15, -16};
Plane Surface(5) = {5};
Curve Loop(6) = {-6, 14, 13, -9};
Plane Surface(6) = {6};
Curve Loop(7) = {-10, -17, 15, 17};
Surface(7) = {7};
Curve Loop(8) = {-11, -18, 16, 18};
Surface(8) = {8};
Surface Loop(1) = {1, 2, 3, 4, 5, 6, 7, 8};
Volume(1) = {1};
Physical Surface("INFLOW") = {1};
Physical Surface("OUTFLOW") = {6};
Physical Surface("OBSTACLE") = {7, 8};
Physical Surface("WALL_Y") = {2, 4};
Physical Surface("WALL_Z") = {3, 5};
Physical Volume("FLUID") = {1};
