cl__1 = 2.23318;
cl__2 = 2.579695;
cl__3 = 0.657793;
cl__4 = 0.6636300000000001;
cl__5 = 0.093196;
cl__6 = 0.080064;
Point(1) = {0.632207, -3.221697, 1, cl__1};
Point(2) = {0.632207, -3.221697, 0, cl__1};
Point(3) = {0.632207, 4.392015, 1, cl__2};
Point(4) = {0.632207, 4.392015, 0, cl__2};
Point(5) = {35.103284, -3.221697, 0, cl__3};
Point(6) = {35.103284, -3.221697, 1, cl__3};
Point(7) = {35.103284, 4.392015, 1, cl__4};
Point(8) = {20.466205, -1.679141, 1, cl__5};
Point(9) = {26.748387, 0.4802849999999998, 1, cl__6};
Point(10) = {35.103284, 4.392015, 0, cl__4};
Point(11) = {20.466205, -1.679141, 0, cl__5};
Point(12) = {26.748387, 0.4802849999999998, 0, cl__6};
Line(1) = {2, 1};
Line(2) = {1, 3};
Line(3) = {4, 3};
Line(4) = {2, 4};
Line(5) = {2, 5};
Line(6) = {5, 6};
Line(7) = {1, 6};
Line(8) = {3, 7};
Line(9) = {6, 7};
p10 = newp;
Point(p10 + 1) = {20.45473100127773, -1.533350023092176, 1};
Point(p10 + 2) = {20.42059153303946, -1.391148903888335, 1};
Point(p10 + 3) = {20.36462722229564, -1.256039105881733, 1};
Point(p10 + 4) = {20.28821609611166, -1.131347480703002, 1};
Point(p10 + 5) = {20.19323965000818, -1.020144349991823, 1};
Point(p10 + 6) = {20.082036519297, -0.9251679038883353, 1};
Point(p10 + 7) = {19.95734489411827, -0.8487567777043604, 1};
Point(p10 + 8) = {19.82223509611167, -0.7927924669605362, 1};
Point(p10 + 9) = {19.68003397690782, -0.7586529987222742, 1};
Point(p10 + 10) = {19.534243, -0.747179, 1};
Point(p10 + 11) = {19.38845202309218, -0.7586529987222743, 1};
Point(p10 + 12) = {19.24625090388833, -0.7927924669605361, 1};
Point(p10 + 13) = {19.11114110588173, -0.8487567777043603, 1};
Point(p10 + 14) = {18.986449480703, -0.9251679038883353, 1};
Point(p10 + 15) = {18.87524634999182, -1.020144349991823, 1};
Point(p10 + 16) = {18.78026990388834, -1.131347480703002, 1};
Point(p10 + 17) = {18.70385877770436, -1.256039105881732, 1};
Point(p10 + 18) = {18.64789446696054, -1.391148903888335, 1};
Point(p10 + 19) = {18.61375499872227, -1.533350023092176, 1};
Point(p10 + 20) = {18.602281, -1.679141, 1};
Point(p10 + 21) = {18.61375499872227, -1.824931976907823, 1};
Point(p10 + 22) = {18.64789446696054, -1.967133096111665, 1};
Point(p10 + 23) = {18.70385877770436, -2.102242894118267, 1};
Point(p10 + 24) = {18.78026990388834, -2.226934519296998, 1};
Point(p10 + 25) = {18.87524634999182, -2.338137650008177, 1};
Point(p10 + 26) = {18.986449480703, -2.433114096111665, 1};
Point(p10 + 27) = {19.11114110588173, -2.50952522229564, 1};
Point(p10 + 28) = {19.24625090388833, -2.565489533039464, 1};
Point(p10 + 29) = {19.38845202309218, -2.599629001277726, 1};
Point(p10 + 30) = {19.534243, -2.611103, 1};
Point(p10 + 31) = {19.68003397690782, -2.599629001277726, 1};
Point(p10 + 32) = {19.82223509611167, -2.565489533039464, 1};
Point(p10 + 33) = {19.95734489411827, -2.50952522229564, 1};
Point(p10 + 34) = {20.082036519297, -2.433114096111665, 1};
Point(p10 + 35) = {20.19323965000818, -2.338137650008177, 1};
Point(p10 + 36) = {20.28821609611166, -2.226934519296998, 1};
Point(p10 + 37) = {20.36462722229564, -2.102242894118268, 1};
Point(p10 + 38) = {20.42059153303946, -1.967133096111665, 1};
Point(p10 + 39) = {20.45473100127773, -1.824931976907824, 1};
Spline(10) = {8, p10 + 1, p10 + 2, p10 + 3, p10 + 4, p10 + 5, p10 + 6, p10 + 7, p10 + 8, p10 + 9, p10 + 10, p10 + 11, p10 + 12, p10 + 13, p10 + 14, p10 + 15, p10 + 16, p10 + 17, p10 + 18, p10 + 19, p10 + 20, p10 + 21, p10 + 22, p10 + 23, p10 + 24, p10 + 25, p10 + 26, p10 + 27, p10 + 28, p10 + 29, p10 + 30, p10 + 31, p10 + 32, p10 + 33, p10 + 34, p10 + 35, p10 + 36, p10 + 37, p10 + 38, p10 + 39, 8};
p11 = newp;
Point(p11 + 1) = {26.73852981763741, 0.6055323772208804, 1};
Point(p11 + 2) = {26.70920098709352, 0.7276957483423692, 1};
Point(p11 + 3) = {26.66112268151313, 0.8437670457304712, 1};
Point(p11 + 4) = {26.59547874834237, 0.9508882088249411, 1};
Point(p11 + 5) = {26.51388555907564, 1.046421559075635, 1};
Point(p11 + 6) = {26.41835220882494, 1.128014748342369, 1};
Point(p11 + 7) = {26.31123104573047, 1.193658681513126, 1};
Point(p11 + 8) = {26.19515974834237, 1.241736987093519, 1};
Point(p11 + 9) = {26.07299637722088, 1.27106581763741, 1};
Point(p11 + 10) = {25.947749, 1.280923, 1};
Point(p11 + 11) = {25.82250162277912, 1.27106581763741, 1};
Point(p11 + 12) = {25.70033825165763, 1.241736987093519, 1};
Point(p11 + 13) = {25.58426695426953, 1.193658681513126, 1};
Point(p11 + 14) = {25.47714579117506, 1.128014748342369, 1};
Point(p11 + 15) = {25.38161244092437, 1.046421559075635, 1};
Point(p11 + 16) = {25.30001925165763, 0.9508882088249412, 1};
Point(p11 + 17) = {25.23437531848688, 0.8437670457304713, 1};
Point(p11 + 18) = {25.18629701290648, 0.7276957483423692, 1};
Point(p11 + 19) = {25.15696818236259, 0.6055323772208805, 1};
Point(p11 + 20) = {25.147111, 0.4802850000000001, 1};
Point(p11 + 21) = {25.15696818236259, 0.3550376227791198, 1};
Point(p11 + 22) = {25.18629701290648, 0.2328742516576306, 1};
Point(p11 + 23) = {25.23437531848688, 0.1168029542695292, 1};
Point(p11 + 24) = {25.30001925165763, 0.009681791175059018, 1};
Point(p11 + 25) = {25.38161244092437, -0.08585155907563496, 1};
Point(p11 + 26) = {25.47714579117506, -0.1674447483423691, 1};
Point(p11 + 27) = {25.58426695426953, -0.2330886815131264, 1};
Point(p11 + 28) = {25.70033825165763, -0.2811669870935191, 1};
Point(p11 + 29) = {25.82250162277912, -0.3104958176374098, 1};
Point(p11 + 30) = {25.947749, -0.3203529999999999, 1};
Point(p11 + 31) = {26.07299637722088, -0.3104958176374099, 1};
Point(p11 + 32) = {26.19515974834237, -0.2811669870935191, 1};
Point(p11 + 33) = {26.31123104573047, -0.2330886815131264, 1};
Point(p11 + 34) = {26.41835220882494, -0.1674447483423692, 1};
Point(p11 + 35) = {26.51388555907564, -0.08585155907563508, 1};
Point(p11 + 36) = {26.59547874834237, 0.00968179117505874, 1};
Point(p11 + 37) = {26.66112268151313, 0.1168029542695286, 1};
Point(p11 + 38) = {26.70920098709352, 0.2328742516576307, 1};
Point(p11 + 39) = {26.73852981763741, 0.3550376227791195, 1};
Spline(11) = {9, p11 + 1, p11 + 2, p11 + 3, p11 + 4, p11 + 5, p11 + 6, p11 + 7, p11 + 8, p11 + 9, p11 + 10, p11 + 11, p11 + 12, p11 + 13, p11 + 14, p11 + 15, p11 + 16, p11 + 17, p11 + 18, p11 + 19, p11 + 20, p11 + 21, p11 + 22, p11 + 23, p11 + 24, p11 + 25, p11 + 26, p11 + 27, p11 + 28, p11 + 29, p11 + 30, p11 + 31, p11 + 32, p11 + 33, p11 + 34, p11 + 35, p11 + 36, p11 + 37, p11 + 38, p11 + 39, 9};
Line(12) = {4, 10};
Line(13) = {10, 7};
Line(14) = {5, 10};
p15 = newp;
Point(p15 + 1) = {20.45473100127773, -1.533350023092176, 0};
Point(p15 + 2) = {20.42059153303946, -1.391148903888335, 0};
Point(p15 + 3) = {20.36462722229564, -1.256039105881733, 0};
Point(p15 + 4) = {20.28821609611166, -1.131347480703002, 0};
Point(p15 + 5) = {20.19323965000818, -1.020144349991823, 0};
Point(p15 + 6) = {20.082036519297, -0.9251679038883353, 0};
Point(p15 + 7) = {19.95734489411827, -0.8487567777043604, 0};
Point(p15 + 8) = {19.82223509611167, -0.7927924669605362, 0};
Point(p15 + 9) = {19.68003397690782, -0.7586529987222742, 0};
Point(p15 + 10) = {19.534243, -0.747179, 0};
Point(p15 + 11) = {19.38845202309218, -0.7586529987222743, 0};
Point(p15 + 12) = {19.24625090388833, -0.7927924669605361, 0};
Point(p15 + 13) = {19.11114110588173, -0.8487567777043603, 0};
Point(p15 + 14) = {18.986449480703, -0.9251679038883353, 0};
Point(p15 + 15) = {18.87524634999182, -1.020144349991823, 0};
Point(p15 + 16) = {18.78026990388834, -1.131347480703002, 0};
Point(p15 + 17) = {18.70385877770436, -1.256039105881732, 0};
Point(p15 + 18) = {18.64789446696054, -1.391148903888335, 0};
Point(p15 + 19) = {18.61375499872227, -1.533350023092176, 0};
Point(p15 + 20) = {18.602281, -1.679141, 0};
Point(p15 + 21) = {18.61375499872227, -1.824931976907823, 0};
Point(p15 + 22) = {18.64789446696054, -1.967133096111665, 0};
Point(p15 + 23) = {18.70385877770436, -2.102242894118267, 0};
Point(p15 + 24) = {18.78026990388834, -2.226934519296998, 0};
Point(p15 + 25) = {18.87524634999182, -2.338137650008177, 0};
Point(p15 + 26) = {18.986449480703, -2.433114096111665, 0};
Point(p15 + 27) = {19.11114110588173, -2.50952522229564, 0};
Point(p15 + 28) = {19.24625090388833, -2.565489533039464, 0};
Point(p15 + 29) = {19.38845202309218, -2.599629001277726, 0};
Point(p15 + 30) = {19.534243, -2.611103, 0};
Point(p15 + 31) = {19.68003397690782, -2.599629001277726, 0};
Point(p15 + 32) = {19.82223509611167, -2.565489533039464, 0};
Point(p15 + 33) = {19.95734489411827, -2.50952522229564, 0};
Point(p15 + 34) = {20.082036519297, -2.433114096111665, 0};
Point(p15 + 35) = {20.19323965000818, -2.338137650008177, 0};
Point(p15 + 36) = {20.28821609611166, -2.226934519296998, 0};
Point(p15 + 37) = {20.36462722229564, -2.102242894118268, 0};
Point(p15 + 38) = {20.42059153303946, -1.967133096111665, 0};
Point(p15 + 39) = {20.45473100127773, -1.824931976907824, 0};
Spline(15) = {11, p15 + 1, p15 + 2, p15 + 3, p15 + 4, p15 + 5, p15 + 6, p15 + 7, p15 + 8, p15 + 9, p15 + 10, p15 + 11, p15 + 12, p15 + 13, p15 + 14, p15 + 15, p15 + 16, p15 + 17, p15 + 18, p15 + 19, p15 + 20, p15 + 21, p15 + 22, p15 + 23, p15 + 24, p15 + 25, p15 + 26, p15 + 27, p15 + 28, p15 + 29, p15 + 30, p15 + 31, p15 + 32, p15 + 33, p15 + 34, p15 + 35, p15 + 36, p15 + 37, p15 + 38, p15 + 39, 11};
p16 = newp;
Point(p16 + 1) = {26.73852981763741, 0.6055323772208804, 0};
Point(p16 + 2) = {26.70920098709352, 0.7276957483423692, 0};
Point(p16 + 3) = {26.66112268151313, 0.8437670457304712, 0};
Point(p16 + 4) = {26.59547874834237, 0.9508882088249411, 0};
Point(p16 + 5) = {26.51388555907564, 1.046421559075635, 0};
Point(p16 + 6) = {26.41835220882494, 1.128014748342369, 0};
Point(p16 + 7) = {26.31123104573047, 1.193658681513126, 0};
Point(p16 + 8) = {26.19515974834237, 1.241736987093519, 0};
Point(p16 + 9) = {26.07299637722088, 1.27106581763741, 0};
Point(p16 + 10) = {25.947749, 1.280923, 0};
Point(p16 + 11) = {25.82250162277912, 1.27106581763741, 0};
Point(p16 + 12) = {25.70033825165763, 1.241736987093519, 0};
Point(p16 + 13) = {25.58426695426953, 1.193658681513126, 0};
Point(p16 + 14) = {25.47714579117506, 1.128014748342369, 0};
Point(p16 + 15) = {25.38161244092437, 1.046421559075635, 0};
Point(p16 + 16) = {25.30001925165763, 0.9508882088249412, 0};
Point(p16 + 17) = {25.23437531848688, 0.8437670457304713, 0};
Point(p16 + 18) = {25.18629701290648, 0.7276957483423692, 0};
Point(p16 + 19) = {25.15696818236259, 0.6055323772208805, 0};
Point(p16 + 20) = {25.147111, 0.4802850000000001, 0};
Point(p16 + 21) = {25.15696818236259, 0.3550376227791198, 0};
Point(p16 + 22) = {25.18629701290648, 0.2328742516576306, 0};
Point(p16 + 23) = {25.23437531848688, 0.1168029542695292, 0};
Point(p16 + 24) = {25.30001925165763, 0.009681791175059018, 0};
Point(p16 + 25) = {25.38161244092437, -0.08585155907563496, 0};
Point(p16 + 26) = {25.47714579117506, -0.1674447483423691, 0};
Point(p16 + 27) = {25.58426695426953, -0.2330886815131264, 0};
Point(p16 + 28) = {25.70033825165763, -0.2811669870935191, 0};
Point(p16 + 29) = {25.82250162277912, -0.3104958176374098, 0};
Point(p16 + 30) = {25.947749, -0.3203529999999999, 0};
Point(p16 + 31) = {26.07299637722088, -0.3104958176374099, 0};
Point(p16 + 32) = {26.19515974834237, -0.2811669870935191, 0};
Point(p16 + 33) = {26.31123104573047, -0.2330886815131264, 0};
Point(p16 + 34) = {26.41835220882494, -0.1674447483423692, 0};
Point(p16 + 35) = {26.51388555907564, -0.08585155907563508, 0};
Point(p16 + 36) = {26.59547874834237, 0.00968179117505874, 0};
Point(p16 + 37) = {26.66112268151313, 0.1168029542695286, 0};
Point(p16 + 38) = {26.70920098709352, 0.2328742516576307, 0};
Point(p16 + 39) = {26.73852981763741, 0.3550376227791195, 0};
Spline(16) = {12, p16 + 1, p16 + 2, p16 + 3, p16 + 4, p16 + 5, p16 + 6, p16 + 7, p16 + 8, p16 + 9, p16 + 10, p16 + 11, p16 + 12, p16 + 13, p16 + 14, p16 + 15, p16 + 16, p16 + 17, p16 + 18, p16 + 19, p16 + 20, p16 + 21, p16 + 22, p16 + 23, p16 + 24, p16 + 25, p16 + 26, p16 + 27, p16 + 28, p16 + 29, p16 + 30, p16 + 31, p16 + 32, p16 + 33, p16 + 34, p16 + 35, p16 + 36, p16 + 37, p16 + 38, p16 + 39, 12};
Line(17) = {11, 8};
Line(18) = {12, 9};
Curve Loop(1) = {-1, 4, 3, -2};
Plane Surface(1) = {1};
Curve Loop(2) = {-5, 1, 7, -6};
Plane Surface(2) = {2};
Curve Loop(3) = {-2, 7, 9, -8, -10, -11};
Plane Surface(3) = {3};
Curve Loop(4) = {-12, 3, 8, -13};
Plane Surface(4) = {4};
Curve Loop(5) = {-4, 5, 14, -12, -15, -16};
Plane Surface(5) = {5};
Curve Loop(6) = {-6, 14, 13, -9};
Plane Surface(6) = {6};
Curve Loop(7) = {-10, -17, 15, 17};
Surface(7) = {7};
Curve Loop(8) = {-11, -18, 16, 18};
Surface(8) = {8};
Surface Loop(1) = {1, 2, 3, 4, 5, 6, 7, 8};
Volume(1) = {1};
Physical Surface("INFLOW") = {1};
Physical Surface("OUTFLOW") = {6};
Physical Surface("OBSTACLE") = {7, 8};
Physical Surface("WALL_Y") = {2, 4};
Physical Surface("WALL_Z") = {3, 5};
Physical Volume("FLUID") = {1};
