cl__1 = 0.689516;
cl__2 = 0.39733;
cl__3 = 2.731281;
cl__4 = 3.479468;
cl__5 = 0.09650599999999999;
cl__6 = 0.08694;
Point(1) = {0.489097, -3.769117, 1, cl__1};
Point(2) = {0.489097, -3.769117, 0, cl__1};
Point(3) = {0.489097, 5.091198, 1, cl__2};
Point(4) = {0.489097, 5.091198, 0, cl__2};
Point(5) = {30.911369, -3.769117, 0, cl__3};
Point(6) = {30.911369, -3.769117, 1, cl__3};
Point(7) = {30.911369, 5.091198, 1, cl__4};
Point(8) = {14.744582, -2.097272, 1, cl__5};
Point(9) = {6.584334, 3.415586999999999, 1, cl__6};
Point(10) = {30.911369, 5.091198, 0, cl__4};
Point(11) = {14.744582, -2.097272, 0, cl__5};
Point(12) = {6.584334, 3.415586999999999, 0, cl__6};
Line(1) = {2, 1};
Line(2) = {1, 3};
Line(3) = {4, 3};
Line(4) = {2, 4};
Line(5) = {2, 5};
Line(6) = {5, 6};
Line(7) = {1, 6};
Line(8) = {3, 7};
Line(9) = {6, 7};
p10 = newp;
Point(p10 + 1) = {14.73270053459806, -1.946303668037205, 1};
Point(p10 + 2) = {14.69734869950277, -1.799052677442502, 1};
Point(p10 + 3) = {14.63939697422018, -1.659144836302352, 1};
Point(p10 + 4) = {14.5602723225575, -1.53002513999313, 1};
Point(p10 + 5) = {14.46192305603833, -1.414872943961673, 1};
Point(p10 + 6) = {14.34677086000687, -1.316523677442502, 1};
Point(p10 + 7) = {14.21765116369765, -1.237399025779822, 1};
Point(p10 + 8) = {14.0777433225575, -1.179447300497232, 1};
Point(p10 + 9) = {13.9304923319628, -1.144095465401938, 1};
Point(p10 + 10) = {13.779524, -1.132214, 1};
Point(p10 + 11) = {13.6285556680372, -1.144095465401938, 1};
Point(p10 + 12) = {13.4813046774425, -1.179447300497231, 1};
Point(p10 + 13) = {13.34139683630235, -1.237399025779822, 1};
Point(p10 + 14) = {13.21227713999313, -1.316523677442502, 1};
Point(p10 + 15) = {13.09712494396167, -1.414872943961673, 1};
Point(p10 + 16) = {12.9987756774425, -1.53002513999313, 1};
Point(p10 + 17) = {12.91965102577982, -1.659144836302352, 1};
Point(p10 + 18) = {12.86169930049723, -1.799052677442502, 1};
Point(p10 + 19) = {12.82634746540194, -1.946303668037205, 1};
Point(p10 + 20) = {12.814466, -2.097272, 1};
Point(p10 + 21) = {12.82634746540194, -2.248240331962795, 1};
Point(p10 + 22) = {12.86169930049723, -2.395491322557498, 1};
Point(p10 + 23) = {12.91965102577982, -2.535399163697647, 1};
Point(p10 + 24) = {12.9987756774425, -2.664518860006869, 1};
Point(p10 + 25) = {13.09712494396167, -2.779671056038327, 1};
Point(p10 + 26) = {13.21227713999313, -2.878020322557498, 1};
Point(p10 + 27) = {13.34139683630235, -2.957144974220178, 1};
Point(p10 + 28) = {13.4813046774425, -3.015096699502768, 1};
Point(p10 + 29) = {13.6285556680372, -3.050448534598062, 1};
Point(p10 + 30) = {13.779524, -3.06233, 1};
Point(p10 + 31) = {13.9304923319628, -3.050448534598062, 1};
Point(p10 + 32) = {14.0777433225575, -3.015096699502768, 1};
Point(p10 + 33) = {14.21765116369765, -2.957144974220178, 1};
Point(p10 + 34) = {14.34677086000687, -2.878020322557498, 1};
Point(p10 + 35) = {14.46192305603833, -2.779671056038327, 1};
Point(p10 + 36) = {14.5602723225575, -2.664518860006869, 1};
Point(p10 + 37) = {14.63939697422018, -2.535399163697647, 1};
Point(p10 + 38) = {14.69734869950277, -2.395491322557498, 1};
Point(p10 + 39) = {14.73270053459806, -2.248240331962795, 1};
Spline(10) = {8, p10 + 1, p10 + 2, p10 + 3, p10 + 4, p10 + 5, p10 + 6, p10 + 7, p10 + 8, p10 + 9, p10 + 10, p10 + 11, p10 + 12, p10 + 13, p10 + 14, p10 + 15, p10 + 16, p10 + 17, p10 + 18, p10 + 19, p10 + 20, p10 + 21, p10 + 22, p10 + 23, p10 + 24, p10 + 25, p10 + 26, p10 + 27, p10 + 28, p10 + 29, p10 + 30, p10 + 31, p10 + 32, p10 + 33, p10 + 34, p10 + 35, p10 + 36, p10 + 37, p10 + 38, p10 + 39, 8};
p11 = newp;
Point(p11 + 1) = {6.573630218690094, 3.551591436774907, 1};
Point(p11 + 2) = {6.541782437380039, 3.684246992943568, 1};
Point(p11 + 3) = {6.489574854142416, 3.810287248454562, 1};
Point(p11 + 4) = {6.418292992943568, 3.926608673913581, 1};
Point(p11 + 5) = {6.329692049777147, 4.030347049777147, 1};
Point(p11 + 6) = {6.225953673913581, 4.118947992943568, 1};
Point(p11 + 7) = {6.109632248454561, 4.190229854142415, 1};
Point(p11 + 8) = {5.983591992943568, 4.242437437380039, 1};
Point(p11 + 9) = {5.850936436774907, 4.274285218690094, 1};
Point(p11 + 10) = {5.714932, 4.284988999999999, 1};
Point(p11 + 11) = {5.578927563225093, 4.274285218690093, 1};
Point(p11 + 12) = {5.446272007056432, 4.242437437380039, 1};
Point(p11 + 13) = {5.320231751545439, 4.190229854142415, 1};
Point(p11 + 14) = {5.20391032608642, 4.118947992943568, 1};
Point(p11 + 15) = {5.100171950222854, 4.030347049777147, 1};
Point(p11 + 16) = {5.011571007056432, 3.926608673913581, 1};
Point(p11 + 17) = {4.940289145857585, 3.810287248454562, 1};
Point(p11 + 18) = {4.888081562619961, 3.684246992943568, 1};
Point(p11 + 19) = {4.856233781309906, 3.551591436774907, 1};
Point(p11 + 20) = {4.84553, 3.415587, 1};
Point(p11 + 21) = {4.856233781309906, 3.279582563225093, 1};
Point(p11 + 22) = {4.888081562619961, 3.146927007056432, 1};
Point(p11 + 23) = {4.940289145857585, 3.020886751545439, 1};
Point(p11 + 24) = {5.011571007056432, 2.904565326086419, 1};
Point(p11 + 25) = {5.100171950222853, 2.800826950222853, 1};
Point(p11 + 26) = {5.20391032608642, 2.712226007056432, 1};
Point(p11 + 27) = {5.320231751545439, 2.640944145857585, 1};
Point(p11 + 28) = {5.446272007056432, 2.588736562619961, 1};
Point(p11 + 29) = {5.578927563225093, 2.556888781309906, 1};
Point(p11 + 30) = {5.714932, 2.546185, 1};
Point(p11 + 31) = {5.850936436774907, 2.556888781309906, 1};
Point(p11 + 32) = {5.983591992943568, 2.588736562619961, 1};
Point(p11 + 33) = {6.109632248454561, 2.640944145857584, 1};
Point(p11 + 34) = {6.225953673913581, 2.712226007056432, 1};
Point(p11 + 35) = {6.329692049777147, 2.800826950222853, 1};
Point(p11 + 36) = {6.418292992943568, 2.904565326086419, 1};
Point(p11 + 37) = {6.489574854142416, 3.020886751545438, 1};
Point(p11 + 38) = {6.541782437380039, 3.146927007056432, 1};
Point(p11 + 39) = {6.573630218690094, 3.279582563225093, 1};
Spline(11) = {9, p11 + 1, p11 + 2, p11 + 3, p11 + 4, p11 + 5, p11 + 6, p11 + 7, p11 + 8, p11 + 9, p11 + 10, p11 + 11, p11 + 12, p11 + 13, p11 + 14, p11 + 15, p11 + 16, p11 + 17, p11 + 18, p11 + 19, p11 + 20, p11 + 21, p11 + 22, p11 + 23, p11 + 24, p11 + 25, p11 + 26, p11 + 27, p11 + 28, p11 + 29, p11 + 30, p11 + 31, p11 + 32, p11 + 33, p11 + 34, p11 + 35, p11 + 36, p11 + 37, p11 + 38, p11 + 39, 9};
Line(12) = {4, 10};
Line(13) = {10, 7};
Line(14) = {5, 10};
p15 = newp;
Point(p15 + 1) = {14.73270053459806, -1.946303668037205, 0};
Point(p15 + 2) = {14.69734869950277, -1.799052677442502, 0};
Point(p15 + 3) = {14.63939697422018, -1.659144836302352, 0};
Point(p15 + 4) = {14.5602723225575, -1.53002513999313, 0};
Point(p15 + 5) = {14.46192305603833, -1.414872943961673, 0};
Point(p15 + 6) = {14.34677086000687, -1.316523677442502, 0};
Point(p15 + 7) = {14.21765116369765, -1.237399025779822, 0};
Point(p15 + 8) = {14.0777433225575, -1.179447300497232, 0};
Point(p15 + 9) = {13.9304923319628, -1.144095465401938, 0};
Point(p15 + 10) = {13.779524, -1.132214, 0};
Point(p15 + 11) = {13.6285556680372, -1.144095465401938, 0};
Point(p15 + 12) = {13.4813046774425, -1.179447300497231, 0};
Point(p15 + 13) = {13.34139683630235, -1.237399025779822, 0};
Point(p15 + 14) = {13.21227713999313, -1.316523677442502, 0};
Point(p15 + 15) = {13.09712494396167, -1.414872943961673, 0};
Point(p15 + 16) = {12.9987756774425, -1.53002513999313, 0};
Point(p15 + 17) = {12.91965102577982, -1.659144836302352, 0};
Point(p15 + 18) = {12.86169930049723, -1.799052677442502, 0};
Point(p15 + 19) = {12.82634746540194, -1.946303668037205, 0};
Point(p15 + 20) = {12.814466, -2.097272, 0};
Point(p15 + 21) = {12.82634746540194, -2.248240331962795, 0};
Point(p15 + 22) = {12.86169930049723, -2.395491322557498, 0};
Point(p15 + 23) = {12.91965102577982, -2.535399163697647, 0};
Point(p15 + 24) = {12.9987756774425, -2.664518860006869, 0};
Point(p15 + 25) = {13.09712494396167, -2.779671056038327, 0};
Point(p15 + 26) = {13.21227713999313, -2.878020322557498, 0};
Point(p15 + 27) = {13.34139683630235, -2.957144974220178, 0};
Point(p15 + 28) = {13.4813046774425, -3.015096699502768, 0};
Point(p15 + 29) = {13.6285556680372, -3.050448534598062, 0};
Point(p15 + 30) = {13.779524, -3.06233, 0};
Point(p15 + 31) = {13.9304923319628, -3.050448534598062, 0};
Point(p15 + 32) = {14.0777433225575, -3.015096699502768, 0};
Point(p15 + 33) = {14.21765116369765, -2.957144974220178, 0};
Point(p15 + 34) = {14.34677086000687, -2.878020322557498, 0};
Point(p15 + 35) = {14.46192305603833, -2.779671056038327, 0};
Point(p15 + 36) = {14.5602723225575, -2.664518860006869, 0};
Point(p15 + 37) = {14.63939697422018, -2.535399163697647, 0};
Point(p15 + 38) = {14.69734869950277, -2.395491322557498, 0};
Point(p15 + 39) = {14.73270053459806, -2.248240331962795, 0};
Spline(15) = {11, p15 + 1, p15 + 2, p15 + 3, p15 + 4, p15 + 5, p15 + 6, p15 + 7, p15 + 8, p15 + 9, p15 + 10, p15 + 11, p15 + 12, p15 + 13, p15 + 14, p15 + 15, p15 + 16, p15 + 17, p15 + 18, p15 + 19, p15 + 20, p15 + 21, p15 + 22, p15 + 23, p15 + 24, p15 + 25, p15 + 26, p15 + 27, p15 + 28, p15 + 29, p15 + 30, p15 + 31, p15 + 32, p15 + 33, p15 + 34, p15 + 35, p15 + 36, p15 + 37, p15 + 38, p15 + 39, 11};
p16 = newp;
Point(p16 + 1) = {6.573630218690094, 3.551591436774907, 0};
Point(p16 + 2) = {6.541782437380039, 3.684246992943568, 0};
Point(p16 + 3) = {6.489574854142416, 3.810287248454562, 0};
Point(p16 + 4) = {6.418292992943568, 3.926608673913581, 0};
Point(p16 + 5) = {6.329692049777147, 4.030347049777147, 0};
Point(p16 + 6) = {6.225953673913581, 4.118947992943568, 0};
Point(p16 + 7) = {6.109632248454561, 4.190229854142415, 0};
Point(p16 + 8) = {5.983591992943568, 4.242437437380039, 0};
Point(p16 + 9) = {5.850936436774907, 4.274285218690094, 0};
Point(p16 + 10) = {5.714932, 4.284988999999999, 0};
Point(p16 + 11) = {5.578927563225093, 4.274285218690093, 0};
Point(p16 + 12) = {5.446272007056432, 4.242437437380039, 0};
Point(p16 + 13) = {5.320231751545439, 4.190229854142415, 0};
Point(p16 + 14) = {5.20391032608642, 4.118947992943568, 0};
Point(p16 + 15) = {5.100171950222854, 4.030347049777147, 0};
Point(p16 + 16) = {5.011571007056432, 3.926608673913581, 0};
Point(p16 + 17) = {4.940289145857585, 3.810287248454562, 0};
Point(p16 + 18) = {4.888081562619961, 3.684246992943568, 0};
Point(p16 + 19) = {4.856233781309906, 3.551591436774907, 0};
Point(p16 + 20) = {4.84553, 3.415587, 0};
Point(p16 + 21) = {4.856233781309906, 3.279582563225093, 0};
Point(p16 + 22) = {4.888081562619961, 3.146927007056432, 0};
Point(p16 + 23) = {4.940289145857585, 3.020886751545439, 0};
Point(p16 + 24) = {5.011571007056432, 2.904565326086419, 0};
Point(p16 + 25) = {5.100171950222853, 2.800826950222853, 0};
Point(p16 + 26) = {5.20391032608642, 2.712226007056432, 0};
Point(p16 + 27) = {5.320231751545439, 2.640944145857585, 0};
Point(p16 + 28) = {5.446272007056432, 2.588736562619961, 0};
Point(p16 + 29) = {5.578927563225093, 2.556888781309906, 0};
Point(p16 + 30) = {5.714932, 2.546185, 0};
Point(p16 + 31) = {5.850936436774907, 2.556888781309906, 0};
Point(p16 + 32) = {5.983591992943568, 2.588736562619961, 0};
Point(p16 + 33) = {6.109632248454561, 2.640944145857584, 0};
Point(p16 + 34) = {6.225953673913581, 2.712226007056432, 0};
Point(p16 + 35) = {6.329692049777147, 2.800826950222853, 0};
Point(p16 + 36) = {6.418292992943568, 2.904565326086419, 0};
Point(p16 + 37) = {6.489574854142416, 3.020886751545438, 0};
Point(p16 + 38) = {6.541782437380039, 3.146927007056432, 0};
Point(p16 + 39) = {6.573630218690094, 3.279582563225093, 0};
Spline(16) = {12, p16 + 1, p16 + 2, p16 + 3, p16 + 4, p16 + 5, p16 + 6, p16 + 7, p16 + 8, p16 + 9, p16 + 10, p16 + 11, p16 + 12, p16 + 13, p16 + 14, p16 + 15, p16 + 16, p16 + 17, p16 + 18, p16 + 19, p16 + 20, p16 + 21, p16 + 22, p16 + 23, p16 + 24, p16 + 25, p16 + 26, p16 + 27, p16 + 28, p16 + 29, p16 + 30, p16 + 31, p16 + 32, p16 + 33, p16 + 34, p16 + 35, p16 + 36, p16 + 37, p16 + 38, p16 + 39, 12};
Line(17) = {11, 8};
Line(18) = {12, 9};
Curve Loop(1) = {-1, 4, 3, -2};
Plane Surface(1) = {1};
Curve Loop(2) = {-5, 1, 7, -6};
Plane Surface(2) = {2};
Curve Loop(3) = {-2, 7, 9, -8, -10, -11};
Plane Surface(3) = {3};
Curve Loop(4) = {-12, 3, 8, -13};
Plane Surface(4) = {4};
Curve Loop(5) = {-4, 5, 14, -12, -15, -16};
Plane Surface(5) = {5};
Curve Loop(6) = {-6, 14, 13, -9};
Plane Surface(6) = {6};
Curve Loop(7) = {-10, -17, 15, 17};
Surface(7) = {7};
Curve Loop(8) = {-11, -18, 16, 18};
Surface(8) = {8};
Surface Loop(1) = {1, 2, 3, 4, 5, 6, 7, 8};
Volume(1) = {1};
Physical Surface("INFLOW") = {1};
Physical Surface("OUTFLOW") = {6};
Physical Surface("OBSTACLE") = {7, 8};
Physical Surface("WALL_Y") = {2, 4};
Physical Surface("WALL_Z") = {3, 5};
Physical Volume("FLUID") = {1};
