cl__1 = 0.383262;
cl__2 = 0.522057;
cl__3 = 3.227078;
cl__4 = 0.108867;
cl__5 = 0.112669;
Point(1) = {0.383316, -4.178651, 1, cl__1};
Point(2) = {0.383316, -4.178651, 0, cl__1};
Point(3) = {0.383316, 4.254102999999999, 1, cl__2};
Point(4) = {0.383316, 4.254102999999999, 0, cl__2};
Point(5) = {31.994142, -4.178651, 0, cl__3};
Point(6) = {31.994142, -4.178651, 1, cl__3};
Point(7) = {31.994142, 4.254102999999999, 1, cl__3};
Point(8) = {5.213700999999999, -0.9819900000000004, 1, cl__4};
Point(9) = {7.224024999999999, 1.490474, 1, cl__5};
Point(10) = {31.994142, 4.254102999999999, 0, cl__3};
Point(11) = {5.213700999999999, -0.9819900000000004, 0, cl__4};
Point(12) = {7.224024999999999, 1.490474, 0, cl__5};
Line(1) = {2, 1};
Line(2) = {1, 3};
Line(3) = {4, 3};
Line(4) = {2, 4};
Line(5) = {2, 5};
Line(6) = {5, 6};
Line(7) = {1, 6};
Line(8) = {3, 7};
Line(9) = {6, 7};
p10 = newp;
Point(p10 + 1) = {5.200297653444049, -0.8116843345101868, 1};
Point(p10 + 2) = {5.160417648651561, -0.6455721597168317, 1};
Point(p10 + 3) = {5.095042963694675, -0.4877437086580479, 1};
Point(p10 + 4) = {5.005783340283168, -0.342085241601501, 1};
Point(p10 + 5) = {4.894836646581139, -0.2121833534188603, 1};
Point(p10 + 6) = {4.764934758398499, -0.1012366597168317, 1};
Point(p10 + 7) = {4.619276291341952, -0.01197703630532554, 1};
Point(p10 + 8) = {4.461447840283168, 0.05339764865156094, 1};
Point(p10 + 9) = {4.295335665489813, 0.09327765344404926, 1};
Point(p10 + 10) = {4.12503, 0.1066809999999999, 1};
Point(p10 + 11) = {3.954724334510186, 0.09327765344404904, 1};
Point(p10 + 12) = {3.788612159716831, 0.05339764865156116, 1};
Point(p10 + 13) = {3.630783708658048, -0.01197703630532543, 1};
Point(p10 + 14) = {3.485125241601501, -0.1012366597168317, 1};
Point(p10 + 15) = {3.35522335341886, -0.2121833534188602, 1};
Point(p10 + 16) = {3.244276659716832, -0.3420852416015009, 1};
Point(p10 + 17) = {3.155017036305325, -0.4877437086580478, 1};
Point(p10 + 18) = {3.089642351348439, -0.6455721597168316, 1};
Point(p10 + 19) = {3.04976234655595, -0.8116843345101867, 1};
Point(p10 + 20) = {3.036359, -0.9819899999999999, 1};
Point(p10 + 21) = {3.04976234655595, -1.152295665489813, 1};
Point(p10 + 22) = {3.089642351348439, -1.318407840283169, 1};
Point(p10 + 23) = {3.155017036305325, -1.476236291341952, 1};
Point(p10 + 24) = {3.244276659716831, -1.621894758398499, 1};
Point(p10 + 25) = {3.35522335341886, -1.75179664658114, 1};
Point(p10 + 26) = {3.485125241601501, -1.862743340283168, 1};
Point(p10 + 27) = {3.630783708658047, -1.952002963694675, 1};
Point(p10 + 28) = {3.788612159716831, -2.017377648651561, 1};
Point(p10 + 29) = {3.954724334510186, -2.057257653444049, 1};
Point(p10 + 30) = {4.12503, -2.070661, 1};
Point(p10 + 31) = {4.295335665489812, -2.057257653444049, 1};
Point(p10 + 32) = {4.461447840283168, -2.017377648651561, 1};
Point(p10 + 33) = {4.619276291341952, -1.952002963694675, 1};
Point(p10 + 34) = {4.764934758398498, -1.862743340283169, 1};
Point(p10 + 35) = {4.894836646581139, -1.75179664658114, 1};
Point(p10 + 36) = {5.005783340283168, -1.621894758398499, 1};
Point(p10 + 37) = {5.095042963694675, -1.476236291341952, 1};
Point(p10 + 38) = {5.160417648651561, -1.318407840283168, 1};
Point(p10 + 39) = {5.200297653444049, -1.152295665489814, 1};
Spline(10) = {8, p10 + 1, p10 + 2, p10 + 3, p10 + 4, p10 + 5, p10 + 6, p10 + 7, p10 + 8, p10 + 9, p10 + 10, p10 + 11, p10 + 12, p10 + 13, p10 + 14, p10 + 15, p10 + 16, p10 + 17, p10 + 18, p10 + 19, p10 + 20, p10 + 21, p10 + 22, p10 + 23, p10 + 24, p10 + 25, p10 + 26, p10 + 27, p10 + 28, p10 + 29, p10 + 30, p10 + 31, p10 + 32, p10 + 33, p10 + 34, p10 + 35, p10 + 36, p10 + 37, p10 + 38, p10 + 39, 8};
p11 = newp;
Point(p11 + 1) = {7.210153613400114, 1.666726678112783, 1};
Point(p11 + 2) = {7.168881013175037, 1.838639430341326, 1};
Point(p11 + 3) = {7.101223467718219, 2.001979194180051, 1};
Point(p11 + 4) = {7.008846930341326, 2.15272400254965, 1};
Point(p11 + 5) = {6.894026017974728, 2.287162017974728, 1};
Point(p11 + 6) = {6.759588002549649, 2.401982930341326, 1};
Point(p11 + 7) = {6.60884319418005, 2.49435946771822, 1};
Point(p11 + 8) = {6.445503430341326, 2.562017013175038, 1};
Point(p11 + 9) = {6.273590678112782, 2.603289613400114, 1};
Point(p11 + 10) = {6.097338, 2.617161, 1};
Point(p11 + 11) = {5.921085321887217, 2.603289613400114, 1};
Point(p11 + 12) = {5.749172569658674, 2.562017013175038, 1};
Point(p11 + 13) = {5.585832805819949, 2.49435946771822, 1};
Point(p11 + 14) = {5.43508799745035, 2.401982930341326, 1};
Point(p11 + 15) = {5.300649982025272, 2.287162017974728, 1};
Point(p11 + 16) = {5.185829069658674, 2.15272400254965, 1};
Point(p11 + 17) = {5.093452532281781, 2.001979194180051, 1};
Point(p11 + 18) = {5.025794986824963, 1.838639430341326, 1};
Point(p11 + 19) = {4.984522386599886, 1.666726678112783, 1};
Point(p11 + 20) = {4.970651, 1.490474, 1};
Point(p11 + 21) = {4.984522386599886, 1.314221321887218, 1};
Point(p11 + 22) = {5.025794986824963, 1.142308569658673, 1};
Point(p11 + 23) = {5.09345253228178, 0.9789688058199499, 1};
Point(p11 + 24) = {5.185829069658674, 0.8282239974503505, 1};
Point(p11 + 25) = {5.300649982025272, 0.6937859820252725, 1};
Point(p11 + 26) = {5.43508799745035, 0.5789650696586738, 1};
Point(p11 + 27) = {5.585832805819948, 0.4865885322817805, 1};
Point(p11 + 28) = {5.749172569658673, 0.4189309868249624, 1};
Point(p11 + 29) = {5.921085321887217, 0.3776583865998862, 1};
Point(p11 + 30) = {6.097338, 0.3637870000000001, 1};
Point(p11 + 31) = {6.273590678112782, 0.3776583865998862, 1};
Point(p11 + 32) = {6.445503430341326, 0.4189309868249622, 1};
Point(p11 + 33) = {6.60884319418005, 0.4865885322817805, 1};
Point(p11 + 34) = {6.759588002549649, 0.5789650696586736, 1};
Point(p11 + 35) = {6.894026017974727, 0.6937859820252722, 1};
Point(p11 + 36) = {7.008846930341326, 0.8282239974503501, 1};
Point(p11 + 37) = {7.101223467718219, 0.9789688058199492, 1};
Point(p11 + 38) = {7.168881013175037, 1.142308569658673, 1};
Point(p11 + 39) = {7.210153613400114, 1.314221321887217, 1};
Spline(11) = {9, p11 + 1, p11 + 2, p11 + 3, p11 + 4, p11 + 5, p11 + 6, p11 + 7, p11 + 8, p11 + 9, p11 + 10, p11 + 11, p11 + 12, p11 + 13, p11 + 14, p11 + 15, p11 + 16, p11 + 17, p11 + 18, p11 + 19, p11 + 20, p11 + 21, p11 + 22, p11 + 23, p11 + 24, p11 + 25, p11 + 26, p11 + 27, p11 + 28, p11 + 29, p11 + 30, p11 + 31, p11 + 32, p11 + 33, p11 + 34, p11 + 35, p11 + 36, p11 + 37, p11 + 38, p11 + 39, 9};
Line(12) = {4, 10};
Line(13) = {10, 7};
Line(14) = {5, 10};
p15 = newp;
Point(p15 + 1) = {5.200297653444049, -0.8116843345101868, 0};
Point(p15 + 2) = {5.160417648651561, -0.6455721597168317, 0};
Point(p15 + 3) = {5.095042963694675, -0.4877437086580479, 0};
Point(p15 + 4) = {5.005783340283168, -0.342085241601501, 0};
Point(p15 + 5) = {4.894836646581139, -0.2121833534188603, 0};
Point(p15 + 6) = {4.764934758398499, -0.1012366597168317, 0};
Point(p15 + 7) = {4.619276291341952, -0.01197703630532554, 0};
Point(p15 + 8) = {4.461447840283168, 0.05339764865156094, 0};
Point(p15 + 9) = {4.295335665489813, 0.09327765344404926, 0};
Point(p15 + 10) = {4.12503, 0.1066809999999999, 0};
Point(p15 + 11) = {3.954724334510186, 0.09327765344404904, 0};
Point(p15 + 12) = {3.788612159716831, 0.05339764865156116, 0};
Point(p15 + 13) = {3.630783708658048, -0.01197703630532543, 0};
Point(p15 + 14) = {3.485125241601501, -0.1012366597168317, 0};
Point(p15 + 15) = {3.35522335341886, -0.2121833534188602, 0};
Point(p15 + 16) = {3.244276659716832, -0.3420852416015009, 0};
Point(p15 + 17) = {3.155017036305325, -0.4877437086580478, 0};
Point(p15 + 18) = {3.089642351348439, -0.6455721597168316, 0};
Point(p15 + 19) = {3.04976234655595, -0.8116843345101867, 0};
Point(p15 + 20) = {3.036359, -0.9819899999999999, 0};
Point(p15 + 21) = {3.04976234655595, -1.152295665489813, 0};
Point(p15 + 22) = {3.089642351348439, -1.318407840283169, 0};
Point(p15 + 23) = {3.155017036305325, -1.476236291341952, 0};
Point(p15 + 24) = {3.244276659716831, -1.621894758398499, 0};
Point(p15 + 25) = {3.35522335341886, -1.75179664658114, 0};
Point(p15 + 26) = {3.485125241601501, -1.862743340283168, 0};
Point(p15 + 27) = {3.630783708658047, -1.952002963694675, 0};
Point(p15 + 28) = {3.788612159716831, -2.017377648651561, 0};
Point(p15 + 29) = {3.954724334510186, -2.057257653444049, 0};
Point(p15 + 30) = {4.12503, -2.070661, 0};
Point(p15 + 31) = {4.295335665489812, -2.057257653444049, 0};
Point(p15 + 32) = {4.461447840283168, -2.017377648651561, 0};
Point(p15 + 33) = {4.619276291341952, -1.952002963694675, 0};
Point(p15 + 34) = {4.764934758398498, -1.862743340283169, 0};
Point(p15 + 35) = {4.894836646581139, -1.75179664658114, 0};
Point(p15 + 36) = {5.005783340283168, -1.621894758398499, 0};
Point(p15 + 37) = {5.095042963694675, -1.476236291341952, 0};
Point(p15 + 38) = {5.160417648651561, -1.318407840283168, 0};
Point(p15 + 39) = {5.200297653444049, -1.152295665489814, 0};
Spline(15) = {11, p15 + 1, p15 + 2, p15 + 3, p15 + 4, p15 + 5, p15 + 6, p15 + 7, p15 + 8, p15 + 9, p15 + 10, p15 + 11, p15 + 12, p15 + 13, p15 + 14, p15 + 15, p15 + 16, p15 + 17, p15 + 18, p15 + 19, p15 + 20, p15 + 21, p15 + 22, p15 + 23, p15 + 24, p15 + 25, p15 + 26, p15 + 27, p15 + 28, p15 + 29, p15 + 30, p15 + 31, p15 + 32, p15 + 33, p15 + 34, p15 + 35, p15 + 36, p15 + 37, p15 + 38, p15 + 39, 11};
p16 = newp;
Point(p16 + 1) = {7.210153613400114, 1.666726678112783, 0};
Point(p16 + 2) = {7.168881013175037, 1.838639430341326, 0};
Point(p16 + 3) = {7.101223467718219, 2.001979194180051, 0};
Point(p16 + 4) = {7.008846930341326, 2.15272400254965, 0};
Point(p16 + 5) = {6.894026017974728, 2.287162017974728, 0};
Point(p16 + 6) = {6.759588002549649, 2.401982930341326, 0};
Point(p16 + 7) = {6.60884319418005, 2.49435946771822, 0};
Point(p16 + 8) = {6.445503430341326, 2.562017013175038, 0};
Point(p16 + 9) = {6.273590678112782, 2.603289613400114, 0};
Point(p16 + 10) = {6.097338, 2.617161, 0};
Point(p16 + 11) = {5.921085321887217, 2.603289613400114, 0};
Point(p16 + 12) = {5.749172569658674, 2.562017013175038, 0};
Point(p16 + 13) = {5.585832805819949, 2.49435946771822, 0};
Point(p16 + 14) = {5.43508799745035, 2.401982930341326, 0};
Point(p16 + 15) = {5.300649982025272, 2.287162017974728, 0};
Point(p16 + 16) = {5.185829069658674, 2.15272400254965, 0};
Point(p16 + 17) = {5.093452532281781, 2.001979194180051, 0};
Point(p16 + 18) = {5.025794986824963, 1.838639430341326, 0};
Point(p16 + 19) = {4.984522386599886, 1.666726678112783, 0};
Point(p16 + 20) = {4.970651, 1.490474, 0};
Point(p16 + 21) = {4.984522386599886, 1.314221321887218, 0};
Point(p16 + 22) = {5.025794986824963, 1.142308569658673, 0};
Point(p16 + 23) = {5.09345253228178, 0.9789688058199499, 0};
Point(p16 + 24) = {5.185829069658674, 0.8282239974503505, 0};
Point(p16 + 25) = {5.300649982025272, 0.6937859820252725, 0};
Point(p16 + 26) = {5.43508799745035, 0.5789650696586738, 0};
Point(p16 + 27) = {5.585832805819948, 0.4865885322817805, 0};
Point(p16 + 28) = {5.749172569658673, 0.4189309868249624, 0};
Point(p16 + 29) = {5.921085321887217, 0.3776583865998862, 0};
Point(p16 + 30) = {6.097338, 0.3637870000000001, 0};
Point(p16 + 31) = {6.273590678112782, 0.3776583865998862, 0};
Point(p16 + 32) = {6.445503430341326, 0.4189309868249622, 0};
Point(p16 + 33) = {6.60884319418005, 0.4865885322817805, 0};
Point(p16 + 34) = {6.759588002549649, 0.5789650696586736, 0};
Point(p16 + 35) = {6.894026017974727, 0.6937859820252722, 0};
Point(p16 + 36) = {7.008846930341326, 0.8282239974503501, 0};
Point(p16 + 37) = {7.101223467718219, 0.9789688058199492, 0};
Point(p16 + 38) = {7.168881013175037, 1.142308569658673, 0};
Point(p16 + 39) = {7.210153613400114, 1.314221321887217, 0};
Spline(16) = {12, p16 + 1, p16 + 2, p16 + 3, p16 + 4, p16 + 5, p16 + 6, p16 + 7, p16 + 8, p16 + 9, p16 + 10, p16 + 11, p16 + 12, p16 + 13, p16 + 14, p16 + 15, p16 + 16, p16 + 17, p16 + 18, p16 + 19, p16 + 20, p16 + 21, p16 + 22, p16 + 23, p16 + 24, p16 + 25, p16 + 26, p16 + 27, p16 + 28, p16 + 29, p16 + 30, p16 + 31, p16 + 32, p16 + 33, p16 + 34, p16 + 35, p16 + 36, p16 + 37, p16 + 38, p16 + 39, 12};
Line(17) = {11, 8};
Line(18) = {12, 9};
Curve Loop(1) = {-1, 4, 3, -2};
Plane Surface(1) = {1};
Curve Loop(2) = {-5, 1, 7, -6};
Plane Surface(2) = {2};
Curve Loop(3) = {-2, 7, 9, -8, -10, -11};
Plane Surface(3) = {3};
Curve Loop(4) = {-12, 3, 8, -13};
Plane Surface(4) = {4};
Curve Loop(5) = {-4, 5, 14, -12, -15, -16};
Plane Surface(5) = {5};
Curve Loop(6) = {-6, 14, 13, -9};
Plane Surface(6) = {6};
Curve Loop(7) = {-10, -17, 15, 17};
Surface(7) = {7};
Curve Loop(8) = {-11, -18, 16, 18};
Surface(8) = {8};
Surface Loop(1) = {1, 2, 3, 4, 5, 6, 7, 8};
Volume(1) = {1};
Physical Surface("INFLOW") = {1};
Physical Surface("OUTFLOW") = {6};
Physical Surface("OBSTACLE") = {7, 8};
Physical Surface("WALL_Y") = {2, 4};
Physical Surface("WALL_Z") = {3, 5};
Physical Volume("FLUID") = {1};
