cl__1 = 3.321182;
cl__2 = 3.443841;
cl__3 = 0.582282;
cl__4 = 0.415604;
cl__5 = 0.063525;
cl__6 = 0.0809;
Point(1) = {0.970537, -3.518057, 1, cl__1};
Point(2) = {0.970537, -3.518057, 0, cl__1};
Point(3) = {0.970537, 5.337527, 1, cl__2};
Point(4) = {0.970537, 5.337527, 0, cl__2};
Point(5) = {33.292847, -3.518057, 0, cl__3};
Point(6) = {33.292847, -3.518057, 1, cl__3};
Point(7) = {33.292847, 5.337527, 1, cl__4};
Point(8) = {24.11125, 0.2108109999999998, 1, cl__5};
Point(9) = {27.446774, 3.210926, 1, cl__6};
Point(10) = {33.292847, 5.337527, 0, cl__4};
Point(11) = {24.11125, 0.2108109999999998, 0, cl__5};
Point(12) = {27.446774, 3.210926, 0, cl__6};
Line(1) = {2, 1};
Line(2) = {1, 3};
Line(3) = {4, 3};
Line(4) = {2, 4};
Line(5) = {2, 5};
Line(6) = {5, 6};
Line(7) = {1, 6};
Line(8) = {3, 7};
Line(9) = {6, 7};
p10 = newp;
Point(p10 + 1) = {24.10342899373974, 0.3101863067857368, 1};
Point(p10 + 2) = {24.08015855408953, 0.4071146637106741, 1};
Point(p10 + 3) = {24.04201167650371, 0.4992093729405466, 1};
Point(p10 + 4) = {23.98992766371067, 0.5842027570892981, 1};
Point(p10 + 5) = {23.92518899696232, 0.6600019969623167, 1};
Point(p10 + 6) = {23.8493897570893, 0.7247406637106741, 1};
Point(p10 + 7) = {23.76439637294055, 0.776824676503709, 1};
Point(p10 + 8) = {23.67230166371067, 0.8149715540895289, 1};
Point(p10 + 9) = {23.57537330678574, 0.8382419937397425, 1};
Point(p10 + 10) = {23.475998, 0.846063, 1};
Point(p10 + 11) = {23.37662269321426, 0.8382419937397424, 1};
Point(p10 + 12) = {23.27969433628933, 0.8149715540895289, 1};
Point(p10 + 13) = {23.18759962705946, 0.7768246765037091, 1};
Point(p10 + 14) = {23.1026062429107, 0.7247406637106741, 1};
Point(p10 + 15) = {23.02680700303769, 0.6600019969623168, 1};
Point(p10 + 16) = {22.96206833628933, 0.5842027570892983, 1};
Point(p10 + 17) = {22.90998432349629, 0.4992093729405467, 1};
Point(p10 + 18) = {22.87183744591047, 0.4071146637106742, 1};
Point(p10 + 19) = {22.84856700626026, 0.3101863067857368, 1};
Point(p10 + 20) = {22.840746, 0.2108110000000001, 1};
Point(p10 + 21) = {22.84856700626026, 0.1114356932142633, 1};
Point(p10 + 22) = {22.87183744591047, 0.01450733628932568, 1};
Point(p10 + 23) = {22.90998432349629, -0.07758737294054627, 1};
Point(p10 + 24) = {22.96206833628933, -0.1625807570892981, 1};
Point(p10 + 25) = {23.02680700303769, -0.2383799969623167, 1};
Point(p10 + 26) = {23.1026062429107, -0.3031186637106741, 1};
Point(p10 + 27) = {23.18759962705946, -0.3552026765037091, 1};
Point(p10 + 28) = {23.27969433628933, -0.393349554089529, 1};
Point(p10 + 29) = {23.37662269321426, -0.4166199937397425, 1};
Point(p10 + 30) = {23.475998, -0.4244410000000001, 1};
Point(p10 + 31) = {23.57537330678574, -0.4166199937397426, 1};
Point(p10 + 32) = {23.67230166371067, -0.393349554089529, 1};
Point(p10 + 33) = {23.76439637294055, -0.3552026765037092, 1};
Point(p10 + 34) = {23.8493897570893, -0.3031186637106742, 1};
Point(p10 + 35) = {23.92518899696232, -0.2383799969623168, 1};
Point(p10 + 36) = {23.98992766371067, -0.1625807570892983, 1};
Point(p10 + 37) = {24.04201167650371, -0.07758737294054671, 1};
Point(p10 + 38) = {24.08015855408953, 0.01450733628932577, 1};
Point(p10 + 39) = {24.10342899373974, 0.1114356932142631, 1};
Spline(10) = {8, p10 + 1, p10 + 2, p10 + 3, p10 + 4, p10 + 5, p10 + 6, p10 + 7, p10 + 8, p10 + 9, p10 + 10, p10 + 11, p10 + 12, p10 + 13, p10 + 14, p10 + 15, p10 + 16, p10 + 17, p10 + 18, p10 + 19, p10 + 20, p10 + 21, p10 + 22, p10 + 23, p10 + 24, p10 + 25, p10 + 26, p10 + 27, p10 + 28, p10 + 29, p10 + 30, p10 + 31, p10 + 32, p10 + 33, p10 + 34, p10 + 35, p10 + 36, p10 + 37, p10 + 38, p10 + 39, 8};
p11 = newp;
Point(p11 + 1) = {27.43681389216479, 3.337481169348617, 1};
Point(p11 + 2) = {27.40717881956974, 3.460920130415344, 1};
Point(p11 + 3) = {27.35859849605534, 3.578203406308294, 1};
Point(p11 + 4) = {27.29226913041534, 3.686443093534106, 1};
Point(p11 + 5) = {27.20982397176635, 3.782973971766355, 1};
Point(p11 + 6) = {27.1132930935341, 3.865419130415344, 1};
Point(p11 + 7) = {27.00505340630829, 3.931748496055341, 1};
Point(p11 + 8) = {26.88777013041534, 3.980328819569747, 1};
Point(p11 + 9) = {26.76433116934862, 4.009963892164786, 1};
Point(p11 + 10) = {26.637776, 4.019924, 1};
Point(p11 + 11) = {26.51122083065138, 4.009963892164786, 1};
Point(p11 + 12) = {26.38778186958465, 3.980328819569747, 1};
Point(p11 + 13) = {26.27049859369171, 3.931748496055341, 1};
Point(p11 + 14) = {26.16225890646589, 3.865419130415344, 1};
Point(p11 + 15) = {26.06572802823364, 3.782973971766355, 1};
Point(p11 + 16) = {25.98328286958466, 3.686443093534106, 1};
Point(p11 + 17) = {25.91695350394466, 3.578203406308294, 1};
Point(p11 + 18) = {25.86837318043025, 3.460920130415344, 1};
Point(p11 + 19) = {25.83873810783521, 3.337481169348617, 1};
Point(p11 + 20) = {25.828778, 3.210926, 1};
Point(p11 + 21) = {25.83873810783521, 3.084370830651384, 1};
Point(p11 + 22) = {25.86837318043025, 2.960931869584656, 1};
Point(p11 + 23) = {25.91695350394466, 2.843648593691707, 1};
Point(p11 + 24) = {25.98328286958466, 2.735408906465894, 1};
Point(p11 + 25) = {26.06572802823364, 2.638878028233646, 1};
Point(p11 + 26) = {26.16225890646589, 2.556432869584657, 1};
Point(p11 + 27) = {26.27049859369171, 2.490103503944659, 1};
Point(p11 + 28) = {26.38778186958465, 2.441523180430254, 1};
Point(p11 + 29) = {26.51122083065138, 2.411888107835215, 1};
Point(p11 + 30) = {26.637776, 2.401928, 1};
Point(p11 + 31) = {26.76433116934862, 2.411888107835215, 1};
Point(p11 + 32) = {26.88777013041534, 2.441523180430254, 1};
Point(p11 + 33) = {27.00505340630829, 2.490103503944659, 1};
Point(p11 + 34) = {27.1132930935341, 2.556432869584656, 1};
Point(p11 + 35) = {27.20982397176635, 2.638878028233646, 1};
Point(p11 + 36) = {27.29226913041534, 2.735408906465894, 1};
Point(p11 + 37) = {27.35859849605534, 2.843648593691706, 1};
Point(p11 + 38) = {27.40717881956974, 2.960931869584656, 1};
Point(p11 + 39) = {27.43681389216479, 3.084370830651383, 1};
Spline(11) = {9, p11 + 1, p11 + 2, p11 + 3, p11 + 4, p11 + 5, p11 + 6, p11 + 7, p11 + 8, p11 + 9, p11 + 10, p11 + 11, p11 + 12, p11 + 13, p11 + 14, p11 + 15, p11 + 16, p11 + 17, p11 + 18, p11 + 19, p11 + 20, p11 + 21, p11 + 22, p11 + 23, p11 + 24, p11 + 25, p11 + 26, p11 + 27, p11 + 28, p11 + 29, p11 + 30, p11 + 31, p11 + 32, p11 + 33, p11 + 34, p11 + 35, p11 + 36, p11 + 37, p11 + 38, p11 + 39, 9};
Line(12) = {4, 10};
Line(13) = {10, 7};
Line(14) = {5, 10};
p15 = newp;
Point(p15 + 1) = {24.10342899373974, 0.3101863067857368, 0};
Point(p15 + 2) = {24.08015855408953, 0.4071146637106741, 0};
Point(p15 + 3) = {24.04201167650371, 0.4992093729405466, 0};
Point(p15 + 4) = {23.98992766371067, 0.5842027570892981, 0};
Point(p15 + 5) = {23.92518899696232, 0.6600019969623167, 0};
Point(p15 + 6) = {23.8493897570893, 0.7247406637106741, 0};
Point(p15 + 7) = {23.76439637294055, 0.776824676503709, 0};
Point(p15 + 8) = {23.67230166371067, 0.8149715540895289, 0};
Point(p15 + 9) = {23.57537330678574, 0.8382419937397425, 0};
Point(p15 + 10) = {23.475998, 0.846063, 0};
Point(p15 + 11) = {23.37662269321426, 0.8382419937397424, 0};
Point(p15 + 12) = {23.27969433628933, 0.8149715540895289, 0};
Point(p15 + 13) = {23.18759962705946, 0.7768246765037091, 0};
Point(p15 + 14) = {23.1026062429107, 0.7247406637106741, 0};
Point(p15 + 15) = {23.02680700303769, 0.6600019969623168, 0};
Point(p15 + 16) = {22.96206833628933, 0.5842027570892983, 0};
Point(p15 + 17) = {22.90998432349629, 0.4992093729405467, 0};
Point(p15 + 18) = {22.87183744591047, 0.4071146637106742, 0};
Point(p15 + 19) = {22.84856700626026, 0.3101863067857368, 0};
Point(p15 + 20) = {22.840746, 0.2108110000000001, 0};
Point(p15 + 21) = {22.84856700626026, 0.1114356932142633, 0};
Point(p15 + 22) = {22.87183744591047, 0.01450733628932568, 0};
Point(p15 + 23) = {22.90998432349629, -0.07758737294054627, 0};
Point(p15 + 24) = {22.96206833628933, -0.1625807570892981, 0};
Point(p15 + 25) = {23.02680700303769, -0.2383799969623167, 0};
Point(p15 + 26) = {23.1026062429107, -0.3031186637106741, 0};
Point(p15 + 27) = {23.18759962705946, -0.3552026765037091, 0};
Point(p15 + 28) = {23.27969433628933, -0.393349554089529, 0};
Point(p15 + 29) = {23.37662269321426, -0.4166199937397425, 0};
Point(p15 + 30) = {23.475998, -0.4244410000000001, 0};
Point(p15 + 31) = {23.57537330678574, -0.4166199937397426, 0};
Point(p15 + 32) = {23.67230166371067, -0.393349554089529, 0};
Point(p15 + 33) = {23.76439637294055, -0.3552026765037092, 0};
Point(p15 + 34) = {23.8493897570893, -0.3031186637106742, 0};
Point(p15 + 35) = {23.92518899696232, -0.2383799969623168, 0};
Point(p15 + 36) = {23.98992766371067, -0.1625807570892983, 0};
Point(p15 + 37) = {24.04201167650371, -0.07758737294054671, 0};
Point(p15 + 38) = {24.08015855408953, 0.01450733628932577, 0};
Point(p15 + 39) = {24.10342899373974, 0.1114356932142631, 0};
Spline(15) = {11, p15 + 1, p15 + 2, p15 + 3, p15 + 4, p15 + 5, p15 + 6, p15 + 7, p15 + 8, p15 + 9, p15 + 10, p15 + 11, p15 + 12, p15 + 13, p15 + 14, p15 + 15, p15 + 16, p15 + 17, p15 + 18, p15 + 19, p15 + 20, p15 + 21, p15 + 22, p15 + 23, p15 + 24, p15 + 25, p15 + 26, p15 + 27, p15 + 28, p15 + 29, p15 + 30, p15 + 31, p15 + 32, p15 + 33, p15 + 34, p15 + 35, p15 + 36, p15 + 37, p15 + 38, p15 + 39, 11};
p16 = newp;
Point(p16 + 1) = {27.43681389216479, 3.337481169348617, 0};
Point(p16 + 2) = {27.40717881956974, 3.460920130415344, 0};
Point(p16 + 3) = {27.35859849605534, 3.578203406308294, 0};
Point(p16 + 4) = {27.29226913041534, 3.686443093534106, 0};
Point(p16 + 5) = {27.20982397176635, 3.782973971766355, 0};
Point(p16 + 6) = {27.1132930935341, 3.865419130415344, 0};
Point(p16 + 7) = {27.00505340630829, 3.931748496055341, 0};
Point(p16 + 8) = {26.88777013041534, 3.980328819569747, 0};
Point(p16 + 9) = {26.76433116934862, 4.009963892164786, 0};
Point(p16 + 10) = {26.637776, 4.019924, 0};
Point(p16 + 11) = {26.51122083065138, 4.009963892164786, 0};
Point(p16 + 12) = {26.38778186958465, 3.980328819569747, 0};
Point(p16 + 13) = {26.27049859369171, 3.931748496055341, 0};
Point(p16 + 14) = {26.16225890646589, 3.865419130415344, 0};
Point(p16 + 15) = {26.06572802823364, 3.782973971766355, 0};
Point(p16 + 16) = {25.98328286958466, 3.686443093534106, 0};
Point(p16 + 17) = {25.91695350394466, 3.578203406308294, 0};
Point(p16 + 18) = {25.86837318043025, 3.460920130415344, 0};
Point(p16 + 19) = {25.83873810783521, 3.337481169348617, 0};
Point(p16 + 20) = {25.828778, 3.210926, 0};
Point(p16 + 21) = {25.83873810783521, 3.084370830651384, 0};
Point(p16 + 22) = {25.86837318043025, 2.960931869584656, 0};
Point(p16 + 23) = {25.91695350394466, 2.843648593691707, 0};
Point(p16 + 24) = {25.98328286958466, 2.735408906465894, 0};
Point(p16 + 25) = {26.06572802823364, 2.638878028233646, 0};
Point(p16 + 26) = {26.16225890646589, 2.556432869584657, 0};
Point(p16 + 27) = {26.27049859369171, 2.490103503944659, 0};
Point(p16 + 28) = {26.38778186958465, 2.441523180430254, 0};
Point(p16 + 29) = {26.51122083065138, 2.411888107835215, 0};
Point(p16 + 30) = {26.637776, 2.401928, 0};
Point(p16 + 31) = {26.76433116934862, 2.411888107835215, 0};
Point(p16 + 32) = {26.88777013041534, 2.441523180430254, 0};
Point(p16 + 33) = {27.00505340630829, 2.490103503944659, 0};
Point(p16 + 34) = {27.1132930935341, 2.556432869584656, 0};
Point(p16 + 35) = {27.20982397176635, 2.638878028233646, 0};
Point(p16 + 36) = {27.29226913041534, 2.735408906465894, 0};
Point(p16 + 37) = {27.35859849605534, 2.843648593691706, 0};
Point(p16 + 38) = {27.40717881956974, 2.960931869584656, 0};
Point(p16 + 39) = {27.43681389216479, 3.084370830651383, 0};
Spline(16) = {12, p16 + 1, p16 + 2, p16 + 3, p16 + 4, p16 + 5, p16 + 6, p16 + 7, p16 + 8, p16 + 9, p16 + 10, p16 + 11, p16 + 12, p16 + 13, p16 + 14, p16 + 15, p16 + 16, p16 + 17, p16 + 18, p16 + 19, p16 + 20, p16 + 21, p16 + 22, p16 + 23, p16 + 24, p16 + 25, p16 + 26, p16 + 27, p16 + 28, p16 + 29, p16 + 30, p16 + 31, p16 + 32, p16 + 33, p16 + 34, p16 + 35, p16 + 36, p16 + 37, p16 + 38, p16 + 39, 12};
Line(17) = {11, 8};
Line(18) = {12, 9};
Curve Loop(1) = {-1, 4, 3, -2};
Plane Surface(1) = {1};
Curve Loop(2) = {-5, 1, 7, -6};
Plane Surface(2) = {2};
Curve Loop(3) = {-2, 7, 9, -8, -10, -11};
Plane Surface(3) = {3};
Curve Loop(4) = {-12, 3, 8, -13};
Plane Surface(4) = {4};
Curve Loop(5) = {-4, 5, 14, -12, -15, -16};
Plane Surface(5) = {5};
Curve Loop(6) = {-6, 14, 13, -9};
Plane Surface(6) = {6};
Curve Loop(7) = {-10, -17, 15, 17};
Surface(7) = {7};
Curve Loop(8) = {-11, -18, 16, 18};
Surface(8) = {8};
Surface Loop(1) = {1, 2, 3, 4, 5, 6, 7, 8};
Volume(1) = {1};
Physical Surface("INFLOW") = {1};
Physical Surface("OUTFLOW") = {6};
Physical Surface("OBSTACLE") = {7, 8};
Physical Surface("WALL_Y") = {2, 4};
Physical Surface("WALL_Z") = {3, 5};
Physical Volume("FLUID") = {1};
