cl__1 = 3.572567;
cl__2 = 1.361241;
cl__3 = 1.533126;
cl__4 = 0.116983;
cl__5 = 0.055249;
Point(1) = {0.479079, -4.714212, 1, cl__1};
Point(2) = {0.479079, -4.714212, 0, cl__1};
Point(3) = {0.479079, 5.118348000000001, 1, cl__1};
Point(4) = {0.479079, 5.118348000000001, 0, cl__1};
Point(5) = {35.385779, -4.714212, 0, cl__2};
Point(6) = {35.385779, -4.714212, 1, cl__2};
Point(7) = {35.385779, 5.118348000000001, 1, cl__3};
Point(8) = {21.935288, -2.532297, 1, cl__4};
Point(9) = {19.343808, 1.356348, 1, cl__5};
Point(10) = {35.385779, 5.118348000000001, 0, cl__3};
Point(11) = {21.935288, -2.532297, 0, cl__4};
Point(12) = {19.343808, 1.356348, 0, cl__5};
Line(1) = {2, 1};
Line(2) = {1, 3};
Line(3) = {4, 3};
Line(4) = {2, 4};
Line(5) = {2, 5};
Line(6) = {5, 6};
Line(7) = {1, 6};
Line(8) = {3, 7};
Line(9) = {6, 7};
p10 = newp;
Point(p10 + 1) = {21.92088540223177, -2.349294644024126, 1};
Point(p10 + 2) = {21.87803224868362, -2.170798413402378, 1};
Point(p10 + 3) = {21.80778372621737, -2.001203477727687, 1};
Point(p10 + 4) = {21.71186958659762, -1.844685827169687, 1};
Point(p10 + 5) = {21.59265155426258, -1.705099445737416, 1};
Point(p10 + 6) = {21.45306517283031, -1.585881413402378, 1};
Point(p10 + 7) = {21.29654752227231, -1.489967273782625, 1};
Point(p10 + 8) = {21.12695258659762, -1.419718751316375, 1};
Point(p10 + 9) = {20.94845635597587, -1.376865597768227, 1};
Point(p10 + 10) = {20.765454, -1.362463, 1};
Point(p10 + 11) = {20.58245164402413, -1.376865597768228, 1};
Point(p10 + 12) = {20.40395541340238, -1.419718751316375, 1};
Point(p10 + 13) = {20.23436047772768, -1.489967273782625, 1};
Point(p10 + 14) = {20.07784282716969, -1.585881413402378, 1};
Point(p10 + 15) = {19.93825644573742, -1.705099445737416, 1};
Point(p10 + 16) = {19.81903841340237, -1.844685827169687, 1};
Point(p10 + 17) = {19.72312427378262, -2.001203477727687, 1};
Point(p10 + 18) = {19.65287575131637, -2.170798413402378, 1};
Point(p10 + 19) = {19.61002259776822, -2.349294644024126, 1};
Point(p10 + 20) = {19.59562, -2.532297, 1};
Point(p10 + 21) = {19.61002259776822, -2.715299355975873, 1};
Point(p10 + 22) = {19.65287575131637, -2.893795586597622, 1};
Point(p10 + 23) = {19.72312427378262, -3.063390522272312, 1};
Point(p10 + 24) = {19.81903841340237, -3.219908172830313, 1};
Point(p10 + 25) = {19.93825644573742, -3.359494554262583, 1};
Point(p10 + 26) = {20.07784282716969, -3.478712586597622, 1};
Point(p10 + 27) = {20.23436047772768, -3.574626726217375, 1};
Point(p10 + 28) = {20.40395541340238, -3.644875248683625, 1};
Point(p10 + 29) = {20.58245164402413, -3.687728402231772, 1};
Point(p10 + 30) = {20.765454, -3.702131, 1};
Point(p10 + 31) = {20.94845635597587, -3.687728402231772, 1};
Point(p10 + 32) = {21.12695258659762, -3.644875248683625, 1};
Point(p10 + 33) = {21.29654752227231, -3.574626726217375, 1};
Point(p10 + 34) = {21.45306517283031, -3.478712586597622, 1};
Point(p10 + 35) = {21.59265155426258, -3.359494554262584, 1};
Point(p10 + 36) = {21.71186958659762, -3.219908172830313, 1};
Point(p10 + 37) = {21.80778372621737, -3.063390522272313, 1};
Point(p10 + 38) = {21.87803224868362, -2.893795586597622, 1};
Point(p10 + 39) = {21.92088540223177, -2.715299355975874, 1};
Spline(10) = {8, p10 + 1, p10 + 2, p10 + 3, p10 + 4, p10 + 5, p10 + 6, p10 + 7, p10 + 8, p10 + 9, p10 + 10, p10 + 11, p10 + 12, p10 + 13, p10 + 14, p10 + 15, p10 + 16, p10 + 17, p10 + 18, p10 + 19, p10 + 20, p10 + 21, p10 + 22, p10 + 23, p10 + 24, p10 + 25, p10 + 26, p10 + 27, p10 + 28, p10 + 29, p10 + 30, p10 + 31, p10 + 32, p10 + 33, p10 + 34, p10 + 35, p10 + 36, p10 + 37, p10 + 38, p10 + 39, 8};
p11 = newp;
Point(p11 + 1) = {19.33700591898375, 1.442776634024542, 1};
Point(p11 + 2) = {19.31676716574443, 1.527077108239209, 1};
Point(p11 + 3) = {19.28359008555535, 1.607173665191602, 1};
Point(p11 + 4) = {19.23829160823921, 1.681094061824321, 1};
Point(p11 + 5) = {19.18198713264454, 1.747018132644537, 1};
Point(p11 + 6) = {19.11606306182432, 1.803322608239209, 1};
Point(p11 + 7) = {19.0421426651916, 1.848621085555356, 1};
Point(p11 + 8) = {18.96204610823921, 1.881798165744426, 1};
Point(p11 + 9) = {18.87774563402454, 1.902036918983748, 1};
Point(p11 + 10) = {18.791317, 1.908839, 1};
Point(p11 + 11) = {18.70488836597546, 1.902036918983748, 1};
Point(p11 + 12) = {18.62058789176079, 1.881798165744426, 1};
Point(p11 + 13) = {18.5404913348084, 1.848621085555356, 1};
Point(p11 + 14) = {18.46657093817568, 1.803322608239209, 1};
Point(p11 + 15) = {18.40064686735546, 1.747018132644537, 1};
Point(p11 + 16) = {18.34434239176079, 1.681094061824321, 1};
Point(p11 + 17) = {18.29904391444465, 1.607173665191602, 1};
Point(p11 + 18) = {18.26586683425557, 1.527077108239209, 1};
Point(p11 + 19) = {18.24562808101625, 1.442776634024542, 1};
Point(p11 + 20) = {18.238826, 1.356348, 1};
Point(p11 + 21) = {18.24562808101625, 1.269919365975458, 1};
Point(p11 + 22) = {18.26586683425557, 1.185618891760791, 1};
Point(p11 + 23) = {18.29904391444465, 1.105522334808398, 1};
Point(p11 + 24) = {18.34434239176079, 1.031601938175679, 1};
Point(p11 + 25) = {18.40064686735546, 0.9656778673554633, 1};
Point(p11 + 26) = {18.46657093817568, 0.9093733917607911, 1};
Point(p11 + 27) = {18.5404913348084, 0.8640749144446447, 1};
Point(p11 + 28) = {18.62058789176079, 0.8308978342555745, 1};
Point(p11 + 29) = {18.70488836597546, 0.8106590810162519, 1};
Point(p11 + 30) = {18.791317, 0.8038570000000002, 1};
Point(p11 + 31) = {18.87774563402454, 0.8106590810162519, 1};
Point(p11 + 32) = {18.96204610823921, 0.8308978342555744, 1};
Point(p11 + 33) = {19.0421426651916, 0.8640749144446446, 1};
Point(p11 + 34) = {19.11606306182432, 0.909373391760791, 1};
Point(p11 + 35) = {19.18198713264454, 0.9656778673554632, 1};
Point(p11 + 36) = {19.23829160823921, 1.031601938175679, 1};
Point(p11 + 37) = {19.28359008555535, 1.105522334808398, 1};
Point(p11 + 38) = {19.31676716574443, 1.185618891760791, 1};
Point(p11 + 39) = {19.33700591898375, 1.269919365975458, 1};
Spline(11) = {9, p11 + 1, p11 + 2, p11 + 3, p11 + 4, p11 + 5, p11 + 6, p11 + 7, p11 + 8, p11 + 9, p11 + 10, p11 + 11, p11 + 12, p11 + 13, p11 + 14, p11 + 15, p11 + 16, p11 + 17, p11 + 18, p11 + 19, p11 + 20, p11 + 21, p11 + 22, p11 + 23, p11 + 24, p11 + 25, p11 + 26, p11 + 27, p11 + 28, p11 + 29, p11 + 30, p11 + 31, p11 + 32, p11 + 33, p11 + 34, p11 + 35, p11 + 36, p11 + 37, p11 + 38, p11 + 39, 9};
Line(12) = {4, 10};
Line(13) = {10, 7};
Line(14) = {5, 10};
p15 = newp;
Point(p15 + 1) = {21.92088540223177, -2.349294644024126, 0};
Point(p15 + 2) = {21.87803224868362, -2.170798413402378, 0};
Point(p15 + 3) = {21.80778372621737, -2.001203477727687, 0};
Point(p15 + 4) = {21.71186958659762, -1.844685827169687, 0};
Point(p15 + 5) = {21.59265155426258, -1.705099445737416, 0};
Point(p15 + 6) = {21.45306517283031, -1.585881413402378, 0};
Point(p15 + 7) = {21.29654752227231, -1.489967273782625, 0};
Point(p15 + 8) = {21.12695258659762, -1.419718751316375, 0};
Point(p15 + 9) = {20.94845635597587, -1.376865597768227, 0};
Point(p15 + 10) = {20.765454, -1.362463, 0};
Point(p15 + 11) = {20.58245164402413, -1.376865597768228, 0};
Point(p15 + 12) = {20.40395541340238, -1.419718751316375, 0};
Point(p15 + 13) = {20.23436047772768, -1.489967273782625, 0};
Point(p15 + 14) = {20.07784282716969, -1.585881413402378, 0};
Point(p15 + 15) = {19.93825644573742, -1.705099445737416, 0};
Point(p15 + 16) = {19.81903841340237, -1.844685827169687, 0};
Point(p15 + 17) = {19.72312427378262, -2.001203477727687, 0};
Point(p15 + 18) = {19.65287575131637, -2.170798413402378, 0};
Point(p15 + 19) = {19.61002259776822, -2.349294644024126, 0};
Point(p15 + 20) = {19.59562, -2.532297, 0};
Point(p15 + 21) = {19.61002259776822, -2.715299355975873, 0};
Point(p15 + 22) = {19.65287575131637, -2.893795586597622, 0};
Point(p15 + 23) = {19.72312427378262, -3.063390522272312, 0};
Point(p15 + 24) = {19.81903841340237, -3.219908172830313, 0};
Point(p15 + 25) = {19.93825644573742, -3.359494554262583, 0};
Point(p15 + 26) = {20.07784282716969, -3.478712586597622, 0};
Point(p15 + 27) = {20.23436047772768, -3.574626726217375, 0};
Point(p15 + 28) = {20.40395541340238, -3.644875248683625, 0};
Point(p15 + 29) = {20.58245164402413, -3.687728402231772, 0};
Point(p15 + 30) = {20.765454, -3.702131, 0};
Point(p15 + 31) = {20.94845635597587, -3.687728402231772, 0};
Point(p15 + 32) = {21.12695258659762, -3.644875248683625, 0};
Point(p15 + 33) = {21.29654752227231, -3.574626726217375, 0};
Point(p15 + 34) = {21.45306517283031, -3.478712586597622, 0};
Point(p15 + 35) = {21.59265155426258, -3.359494554262584, 0};
Point(p15 + 36) = {21.71186958659762, -3.219908172830313, 0};
Point(p15 + 37) = {21.80778372621737, -3.063390522272313, 0};
Point(p15 + 38) = {21.87803224868362, -2.893795586597622, 0};
Point(p15 + 39) = {21.92088540223177, -2.715299355975874, 0};
Spline(15) = {11, p15 + 1, p15 + 2, p15 + 3, p15 + 4, p15 + 5, p15 + 6, p15 + 7, p15 + 8, p15 + 9, p15 + 10, p15 + 11, p15 + 12, p15 + 13, p15 + 14, p15 + 15, p15 + 16, p15 + 17, p15 + 18, p15 + 19, p15 + 20, p15 + 21, p15 + 22, p15 + 23, p15 + 24, p15 + 25, p15 + 26, p15 + 27, p15 + 28, p15 + 29, p15 + 30, p15 + 31, p15 + 32, p15 + 33, p15 + 34, p15 + 35, p15 + 36, p15 + 37, p15 + 38, p15 + 39, 11};
p16 = newp;
Point(p16 + 1) = {19.33700591898375, 1.442776634024542, 0};
Point(p16 + 2) = {19.31676716574443, 1.527077108239209, 0};
Point(p16 + 3) = {19.28359008555535, 1.607173665191602, 0};
Point(p16 + 4) = {19.23829160823921, 1.681094061824321, 0};
Point(p16 + 5) = {19.18198713264454, 1.747018132644537, 0};
Point(p16 + 6) = {19.11606306182432, 1.803322608239209, 0};
Point(p16 + 7) = {19.0421426651916, 1.848621085555356, 0};
Point(p16 + 8) = {18.96204610823921, 1.881798165744426, 0};
Point(p16 + 9) = {18.87774563402454, 1.902036918983748, 0};
Point(p16 + 10) = {18.791317, 1.908839, 0};
Point(p16 + 11) = {18.70488836597546, 1.902036918983748, 0};
Point(p16 + 12) = {18.62058789176079, 1.881798165744426, 0};
Point(p16 + 13) = {18.5404913348084, 1.848621085555356, 0};
Point(p16 + 14) = {18.46657093817568, 1.803322608239209, 0};
Point(p16 + 15) = {18.40064686735546, 1.747018132644537, 0};
Point(p16 + 16) = {18.34434239176079, 1.681094061824321, 0};
Point(p16 + 17) = {18.29904391444465, 1.607173665191602, 0};
Point(p16 + 18) = {18.26586683425557, 1.527077108239209, 0};
Point(p16 + 19) = {18.24562808101625, 1.442776634024542, 0};
Point(p16 + 20) = {18.238826, 1.356348, 0};
Point(p16 + 21) = {18.24562808101625, 1.269919365975458, 0};
Point(p16 + 22) = {18.26586683425557, 1.185618891760791, 0};
Point(p16 + 23) = {18.29904391444465, 1.105522334808398, 0};
Point(p16 + 24) = {18.34434239176079, 1.031601938175679, 0};
Point(p16 + 25) = {18.40064686735546, 0.9656778673554633, 0};
Point(p16 + 26) = {18.46657093817568, 0.9093733917607911, 0};
Point(p16 + 27) = {18.5404913348084, 0.8640749144446447, 0};
Point(p16 + 28) = {18.62058789176079, 0.8308978342555745, 0};
Point(p16 + 29) = {18.70488836597546, 0.8106590810162519, 0};
Point(p16 + 30) = {18.791317, 0.8038570000000002, 0};
Point(p16 + 31) = {18.87774563402454, 0.8106590810162519, 0};
Point(p16 + 32) = {18.96204610823921, 0.8308978342555744, 0};
Point(p16 + 33) = {19.0421426651916, 0.8640749144446446, 0};
Point(p16 + 34) = {19.11606306182432, 0.909373391760791, 0};
Point(p16 + 35) = {19.18198713264454, 0.9656778673554632, 0};
Point(p16 + 36) = {19.23829160823921, 1.031601938175679, 0};
Point(p16 + 37) = {19.28359008555535, 1.105522334808398, 0};
Point(p16 + 38) = {19.31676716574443, 1.185618891760791, 0};
Point(p16 + 39) = {19.33700591898375, 1.269919365975458, 0};
Spline(16) = {12, p16 + 1, p16 + 2, p16 + 3, p16 + 4, p16 + 5, p16 + 6, p16 + 7, p16 + 8, p16 + 9, p16 + 10, p16 + 11, p16 + 12, p16 + 13, p16 + 14, p16 + 15, p16 + 16, p16 + 17, p16 + 18, p16 + 19, p16 + 20, p16 + 21, p16 + 22, p16 + 23, p16 + 24, p16 + 25, p16 + 26, p16 + 27, p16 + 28, p16 + 29, p16 + 30, p16 + 31, p16 + 32, p16 + 33, p16 + 34, p16 + 35, p16 + 36, p16 + 37, p16 + 38, p16 + 39, 12};
Line(17) = {11, 8};
Line(18) = {12, 9};
Curve Loop(1) = {-1, 4, 3, -2};
Plane Surface(1) = {1};
Curve Loop(2) = {-5, 1, 7, -6};
Plane Surface(2) = {2};
Curve Loop(3) = {-2, 7, 9, -8, -10, -11};
Plane Surface(3) = {3};
Curve Loop(4) = {-12, 3, 8, -13};
Plane Surface(4) = {4};
Curve Loop(5) = {-4, 5, 14, -12, -15, -16};
Plane Surface(5) = {5};
Curve Loop(6) = {-6, 14, 13, -9};
Plane Surface(6) = {6};
Curve Loop(7) = {-10, -17, 15, 17};
Surface(7) = {7};
Curve Loop(8) = {-11, -18, 16, 18};
Surface(8) = {8};
Surface Loop(1) = {1, 2, 3, 4, 5, 6, 7, 8};
Volume(1) = {1};
Physical Surface("INFLOW") = {1};
Physical Surface("OUTFLOW") = {6};
Physical Surface("OBSTACLE") = {7, 8};
Physical Surface("WALL_Y") = {2, 4};
Physical Surface("WALL_Z") = {3, 5};
Physical Volume("FLUID") = {1};
