cl__1 = 1.135118;
cl__2 = 1.248361;
cl__3 = 0.563148;
cl__4 = 0.371544;
cl__5 = 0.122029;
cl__6 = 0.091937;
Point(1) = {0.150085, -3.509921, 1, cl__1};
Point(2) = {0.150085, -3.509921, 0, cl__1};
Point(3) = {0.150085, 5.372240999999999, 1, cl__2};
Point(4) = {0.150085, 5.372240999999999, 0, cl__2};
Point(5) = {38.574852, -3.509921, 0, cl__3};
Point(6) = {38.574852, -3.509921, 1, cl__3};
Point(7) = {38.574852, 5.372240999999999, 1, cl__4};
Point(8) = {13.633753, -0.7438220000000003, 1, cl__5};
Point(9) = {36.174765, 2.137633, 1, cl__6};
Point(10) = {38.574852, 5.372240999999999, 0, cl__4};
Point(11) = {13.633753, -0.7438220000000003, 0, cl__5};
Point(12) = {36.174765, 2.137633, 0, cl__6};
Line(1) = {2, 1};
Line(2) = {1, 3};
Line(3) = {4, 3};
Line(4) = {2, 4};
Line(5) = {2, 5};
Line(6) = {5, 6};
Line(7) = {1, 6};
Line(8) = {3, 7};
Line(9) = {6, 7};
p10 = newp;
Point(p10 + 1) = {13.61872922976816, -0.5529268995249867, 1};
Point(p10 + 2) = {13.57402785415678, -0.3667322699681841, 1};
Point(p10 + 3) = {13.50074956938878, -0.189822841053828, 1};
Point(p10 + 4) = {13.40069873003182, -0.02655471005052246, 1};
Point(p10 + 5) = {13.27633891980057, 0.1190519198005697, 1};
Point(p10 + 6) = {13.13073228994948, 0.2434117300318159, 1};
Point(p10 + 7) = {12.96746415894617, 0.343462569388775, 1};
Point(p10 + 8) = {12.79055473003182, 0.4167408541567803, 1};
Point(p10 + 9) = {12.60436010047501, 0.4614422297681595, 1};
Point(p10 + 10) = {12.413465, 0.4764660000000001, 1};
Point(p10 + 11) = {12.22256989952499, 0.4614422297681593, 1};
Point(p10 + 12) = {12.03637526996818, 0.4167408541567805, 1};
Point(p10 + 13) = {11.85946584105383, 0.3434625693887752, 1};
Point(p10 + 14) = {11.69619771005052, 0.2434117300318159, 1};
Point(p10 + 15) = {11.55059108019943, 0.1190519198005698, 1};
Point(p10 + 16) = {11.42623126996818, -0.02655471005052235, 1};
Point(p10 + 17) = {11.32618043061123, -0.1898228410538279, 1};
Point(p10 + 18) = {11.25290214584322, -0.366732269968184, 1};
Point(p10 + 19) = {11.20820077023184, -0.5529268995249865, 1};
Point(p10 + 20) = {11.193177, -0.7438219999999999, 1};
Point(p10 + 21) = {11.20820077023184, -0.9347171004750131, 1};
Point(p10 + 22) = {11.25290214584322, -1.120911730031816, 1};
Point(p10 + 23) = {11.32618043061123, -1.297821158946171, 1};
Point(p10 + 24) = {11.42623126996818, -1.461089289949477, 1};
Point(p10 + 25) = {11.55059108019943, -1.60669591980057, 1};
Point(p10 + 26) = {11.69619771005052, -1.731055730031816, 1};
Point(p10 + 27) = {11.85946584105383, -1.831106569388775, 1};
Point(p10 + 28) = {12.03637526996818, -1.90438485415678, 1};
Point(p10 + 29) = {12.22256989952499, -1.949086229768159, 1};
Point(p10 + 30) = {12.413465, -1.96411, 1};
Point(p10 + 31) = {12.60436010047501, -1.949086229768159, 1};
Point(p10 + 32) = {12.79055473003182, -1.90438485415678, 1};
Point(p10 + 33) = {12.96746415894617, -1.831106569388775, 1};
Point(p10 + 34) = {13.13073228994948, -1.731055730031816, 1};
Point(p10 + 35) = {13.27633891980057, -1.60669591980057, 1};
Point(p10 + 36) = {13.40069873003182, -1.461089289949478, 1};
Point(p10 + 37) = {13.50074956938878, -1.297821158946172, 1};
Point(p10 + 38) = {13.57402785415678, -1.120911730031816, 1};
Point(p10 + 39) = {13.61872922976816, -0.9347171004750134, 1};
Spline(10) = {8, p10 + 1, p10 + 2, p10 + 3, p10 + 4, p10 + 5, p10 + 6, p10 + 7, p10 + 8, p10 + 9, p10 + 10, p10 + 11, p10 + 12, p10 + 13, p10 + 14, p10 + 15, p10 + 16, p10 + 17, p10 + 18, p10 + 19, p10 + 20, p10 + 21, p10 + 22, p10 + 23, p10 + 24, p10 + 25, p10 + 26, p10 + 27, p10 + 28, p10 + 29, p10 + 30, p10 + 31, p10 + 32, p10 + 33, p10 + 34, p10 + 35, p10 + 36, p10 + 37, p10 + 38, p10 + 39, 8};
p11 = newp;
Point(p11 + 1) = {36.16344604200461, 2.281453997689572, 1};
Point(p11 + 2) = {36.12976787832976, 2.421733645101501, 1};
Point(p11 + 3) = {36.07455977713654, 2.555017791755048, 1};
Point(p11 + 4) = {35.9991811451015, 2.678024539614879, 1};
Point(p11 + 5) = {35.90548805431269, 2.787725054312695, 1};
Point(p11 + 6) = {35.79578753961488, 2.881418145101501, 1};
Point(p11 + 7) = {35.67278079175505, 2.956796777136536, 1};
Point(p11 + 8) = {35.5394966451015, 3.012004878329759, 1};
Point(p11 + 9) = {35.39921699768957, 3.045683042004611, 1};
Point(p11 + 10) = {35.255396, 3.057002, 1};
Point(p11 + 11) = {35.11157500231042, 3.045683042004611, 1};
Point(p11 + 12) = {34.97129535489849, 3.012004878329759, 1};
Point(p11 + 13) = {34.83801120824495, 2.956796777136536, 1};
Point(p11 + 14) = {34.71500446038512, 2.881418145101501, 1};
Point(p11 + 15) = {34.6053039456873, 2.787725054312695, 1};
Point(p11 + 16) = {34.5116108548985, 2.678024539614879, 1};
Point(p11 + 17) = {34.43623222286346, 2.555017791755048, 1};
Point(p11 + 18) = {34.38102412167024, 2.421733645101501, 1};
Point(p11 + 19) = {34.34734595799539, 2.281453997689572, 1};
Point(p11 + 20) = {34.33602699999999, 2.137633, 1};
Point(p11 + 21) = {34.34734595799539, 1.993812002310428, 1};
Point(p11 + 22) = {34.38102412167024, 1.853532354898499, 1};
Point(p11 + 23) = {34.43623222286346, 1.720248208244953, 1};
Point(p11 + 24) = {34.5116108548985, 1.597241460385121, 1};
Point(p11 + 25) = {34.6053039456873, 1.487540945687305, 1};
Point(p11 + 26) = {34.71500446038512, 1.393847854898499, 1};
Point(p11 + 27) = {34.83801120824495, 1.318469222863464, 1};
Point(p11 + 28) = {34.97129535489849, 1.263261121670241, 1};
Point(p11 + 29) = {35.11157500231042, 1.229582957995389, 1};
Point(p11 + 30) = {35.255396, 1.218264, 1};
Point(p11 + 31) = {35.39921699768957, 1.229582957995389, 1};
Point(p11 + 32) = {35.5394966451015, 1.263261121670241, 1};
Point(p11 + 33) = {35.67278079175505, 1.318469222863464, 1};
Point(p11 + 34) = {35.79578753961488, 1.393847854898499, 1};
Point(p11 + 35) = {35.90548805431269, 1.487540945687305, 1};
Point(p11 + 36) = {35.9991811451015, 1.597241460385121, 1};
Point(p11 + 37) = {36.07455977713654, 1.720248208244953, 1};
Point(p11 + 38) = {36.12976787832976, 1.853532354898499, 1};
Point(p11 + 39) = {36.16344604200461, 1.993812002310428, 1};
Spline(11) = {9, p11 + 1, p11 + 2, p11 + 3, p11 + 4, p11 + 5, p11 + 6, p11 + 7, p11 + 8, p11 + 9, p11 + 10, p11 + 11, p11 + 12, p11 + 13, p11 + 14, p11 + 15, p11 + 16, p11 + 17, p11 + 18, p11 + 19, p11 + 20, p11 + 21, p11 + 22, p11 + 23, p11 + 24, p11 + 25, p11 + 26, p11 + 27, p11 + 28, p11 + 29, p11 + 30, p11 + 31, p11 + 32, p11 + 33, p11 + 34, p11 + 35, p11 + 36, p11 + 37, p11 + 38, p11 + 39, 9};
Line(12) = {4, 10};
Line(13) = {10, 7};
Line(14) = {5, 10};
p15 = newp;
Point(p15 + 1) = {13.61872922976816, -0.5529268995249867, 0};
Point(p15 + 2) = {13.57402785415678, -0.3667322699681841, 0};
Point(p15 + 3) = {13.50074956938878, -0.189822841053828, 0};
Point(p15 + 4) = {13.40069873003182, -0.02655471005052246, 0};
Point(p15 + 5) = {13.27633891980057, 0.1190519198005697, 0};
Point(p15 + 6) = {13.13073228994948, 0.2434117300318159, 0};
Point(p15 + 7) = {12.96746415894617, 0.343462569388775, 0};
Point(p15 + 8) = {12.79055473003182, 0.4167408541567803, 0};
Point(p15 + 9) = {12.60436010047501, 0.4614422297681595, 0};
Point(p15 + 10) = {12.413465, 0.4764660000000001, 0};
Point(p15 + 11) = {12.22256989952499, 0.4614422297681593, 0};
Point(p15 + 12) = {12.03637526996818, 0.4167408541567805, 0};
Point(p15 + 13) = {11.85946584105383, 0.3434625693887752, 0};
Point(p15 + 14) = {11.69619771005052, 0.2434117300318159, 0};
Point(p15 + 15) = {11.55059108019943, 0.1190519198005698, 0};
Point(p15 + 16) = {11.42623126996818, -0.02655471005052235, 0};
Point(p15 + 17) = {11.32618043061123, -0.1898228410538279, 0};
Point(p15 + 18) = {11.25290214584322, -0.366732269968184, 0};
Point(p15 + 19) = {11.20820077023184, -0.5529268995249865, 0};
Point(p15 + 20) = {11.193177, -0.7438219999999999, 0};
Point(p15 + 21) = {11.20820077023184, -0.9347171004750131, 0};
Point(p15 + 22) = {11.25290214584322, -1.120911730031816, 0};
Point(p15 + 23) = {11.32618043061123, -1.297821158946171, 0};
Point(p15 + 24) = {11.42623126996818, -1.461089289949477, 0};
Point(p15 + 25) = {11.55059108019943, -1.60669591980057, 0};
Point(p15 + 26) = {11.69619771005052, -1.731055730031816, 0};
Point(p15 + 27) = {11.85946584105383, -1.831106569388775, 0};
Point(p15 + 28) = {12.03637526996818, -1.90438485415678, 0};
Point(p15 + 29) = {12.22256989952499, -1.949086229768159, 0};
Point(p15 + 30) = {12.413465, -1.96411, 0};
Point(p15 + 31) = {12.60436010047501, -1.949086229768159, 0};
Point(p15 + 32) = {12.79055473003182, -1.90438485415678, 0};
Point(p15 + 33) = {12.96746415894617, -1.831106569388775, 0};
Point(p15 + 34) = {13.13073228994948, -1.731055730031816, 0};
Point(p15 + 35) = {13.27633891980057, -1.60669591980057, 0};
Point(p15 + 36) = {13.40069873003182, -1.461089289949478, 0};
Point(p15 + 37) = {13.50074956938878, -1.297821158946172, 0};
Point(p15 + 38) = {13.57402785415678, -1.120911730031816, 0};
Point(p15 + 39) = {13.61872922976816, -0.9347171004750134, 0};
Spline(15) = {11, p15 + 1, p15 + 2, p15 + 3, p15 + 4, p15 + 5, p15 + 6, p15 + 7, p15 + 8, p15 + 9, p15 + 10, p15 + 11, p15 + 12, p15 + 13, p15 + 14, p15 + 15, p15 + 16, p15 + 17, p15 + 18, p15 + 19, p15 + 20, p15 + 21, p15 + 22, p15 + 23, p15 + 24, p15 + 25, p15 + 26, p15 + 27, p15 + 28, p15 + 29, p15 + 30, p15 + 31, p15 + 32, p15 + 33, p15 + 34, p15 + 35, p15 + 36, p15 + 37, p15 + 38, p15 + 39, 11};
p16 = newp;
Point(p16 + 1) = {36.16344604200461, 2.281453997689572, 0};
Point(p16 + 2) = {36.12976787832976, 2.421733645101501, 0};
Point(p16 + 3) = {36.07455977713654, 2.555017791755048, 0};
Point(p16 + 4) = {35.9991811451015, 2.678024539614879, 0};
Point(p16 + 5) = {35.90548805431269, 2.787725054312695, 0};
Point(p16 + 6) = {35.79578753961488, 2.881418145101501, 0};
Point(p16 + 7) = {35.67278079175505, 2.956796777136536, 0};
Point(p16 + 8) = {35.5394966451015, 3.012004878329759, 0};
Point(p16 + 9) = {35.39921699768957, 3.045683042004611, 0};
Point(p16 + 10) = {35.255396, 3.057002, 0};
Point(p16 + 11) = {35.11157500231042, 3.045683042004611, 0};
Point(p16 + 12) = {34.97129535489849, 3.012004878329759, 0};
Point(p16 + 13) = {34.83801120824495, 2.956796777136536, 0};
Point(p16 + 14) = {34.71500446038512, 2.881418145101501, 0};
Point(p16 + 15) = {34.6053039456873, 2.787725054312695, 0};
Point(p16 + 16) = {34.5116108548985, 2.678024539614879, 0};
Point(p16 + 17) = {34.43623222286346, 2.555017791755048, 0};
Point(p16 + 18) = {34.38102412167024, 2.421733645101501, 0};
Point(p16 + 19) = {34.34734595799539, 2.281453997689572, 0};
Point(p16 + 20) = {34.33602699999999, 2.137633, 0};
Point(p16 + 21) = {34.34734595799539, 1.993812002310428, 0};
Point(p16 + 22) = {34.38102412167024, 1.853532354898499, 0};
Point(p16 + 23) = {34.43623222286346, 1.720248208244953, 0};
Point(p16 + 24) = {34.5116108548985, 1.597241460385121, 0};
Point(p16 + 25) = {34.6053039456873, 1.487540945687305, 0};
Point(p16 + 26) = {34.71500446038512, 1.393847854898499, 0};
Point(p16 + 27) = {34.83801120824495, 1.318469222863464, 0};
Point(p16 + 28) = {34.97129535489849, 1.263261121670241, 0};
Point(p16 + 29) = {35.11157500231042, 1.229582957995389, 0};
Point(p16 + 30) = {35.255396, 1.218264, 0};
Point(p16 + 31) = {35.39921699768957, 1.229582957995389, 0};
Point(p16 + 32) = {35.5394966451015, 1.263261121670241, 0};
Point(p16 + 33) = {35.67278079175505, 1.318469222863464, 0};
Point(p16 + 34) = {35.79578753961488, 1.393847854898499, 0};
Point(p16 + 35) = {35.90548805431269, 1.487540945687305, 0};
Point(p16 + 36) = {35.9991811451015, 1.597241460385121, 0};
Point(p16 + 37) = {36.07455977713654, 1.720248208244953, 0};
Point(p16 + 38) = {36.12976787832976, 1.853532354898499, 0};
Point(p16 + 39) = {36.16344604200461, 1.993812002310428, 0};
Spline(16) = {12, p16 + 1, p16 + 2, p16 + 3, p16 + 4, p16 + 5, p16 + 6, p16 + 7, p16 + 8, p16 + 9, p16 + 10, p16 + 11, p16 + 12, p16 + 13, p16 + 14, p16 + 15, p16 + 16, p16 + 17, p16 + 18, p16 + 19, p16 + 20, p16 + 21, p16 + 22, p16 + 23, p16 + 24, p16 + 25, p16 + 26, p16 + 27, p16 + 28, p16 + 29, p16 + 30, p16 + 31, p16 + 32, p16 + 33, p16 + 34, p16 + 35, p16 + 36, p16 + 37, p16 + 38, p16 + 39, 12};
Line(17) = {11, 8};
Line(18) = {12, 9};
Curve Loop(1) = {-1, 4, 3, -2};
Plane Surface(1) = {1};
Curve Loop(2) = {-5, 1, 7, -6};
Plane Surface(2) = {2};
Curve Loop(3) = {-2, 7, 9, -8, -10, -11};
Plane Surface(3) = {3};
Curve Loop(4) = {-12, 3, 8, -13};
Plane Surface(4) = {4};
Curve Loop(5) = {-4, 5, 14, -12, -15, -16};
Plane Surface(5) = {5};
Curve Loop(6) = {-6, 14, 13, -9};
Plane Surface(6) = {6};
Curve Loop(7) = {-10, -17, 15, 17};
Surface(7) = {7};
Curve Loop(8) = {-11, -18, 16, 18};
Surface(8) = {8};
Surface Loop(1) = {1, 2, 3, 4, 5, 6, 7, 8};
Volume(1) = {1};
Physical Surface("INFLOW") = {1};
Physical Surface("OUTFLOW") = {6};
Physical Surface("OBSTACLE") = {7, 8};
Physical Surface("WALL_Y") = {2, 4};
Physical Surface("WALL_Z") = {3, 5};
Physical Volume("FLUID") = {1};
