cl__1 = 0.358831;
cl__2 = 0.53566;
cl__3 = 3.823049;
cl__4 = 3.665582;
cl__5 = 0.054614;
cl__6 = 0.081248;
Point(1) = {0.00411, -3.560522, 1, cl__1};
Point(2) = {0.00411, -3.560522, 0, cl__1};
Point(3) = {0.00411, 5.425196999999999, 1, cl__2};
Point(4) = {0.00411, 5.425196999999999, 0, cl__2};
Point(5) = {36.870523, -3.560522, 0, cl__3};
Point(6) = {36.870523, -3.560522, 1, cl__3};
Point(7) = {36.870523, 5.425196999999999, 1, cl__4};
Point(8) = {3.756674, -0.2976440000000002, 1, cl__5};
Point(9) = {20.006454, 1.428588, 1, cl__6};
Point(10) = {36.870523, 5.425196999999999, 0, cl__4};
Point(11) = {3.756674, -0.2976440000000002, 0, cl__5};
Point(12) = {20.006454, 1.428588, 0, cl__6};
Line(1) = {2, 1};
Line(2) = {1, 3};
Line(3) = {4, 3};
Line(4) = {2, 4};
Line(5) = {2, 5};
Line(6) = {5, 6};
Line(7) = {1, 6};
Line(8) = {3, 7};
Line(9) = {6, 7};
p10 = newp;
Point(p10 + 1) = {3.749950110332628, -0.2122088812629283, 1};
Point(p10 + 2) = {3.729944005809435, -0.1288774586920663, 1};
Point(p10 + 3) = {3.697148303120235, -0.04970162847224396, 1};
Point(p10 + 4) = {3.652370541307934, 0.02336903768701126, 1};
Point(p10 + 5) = {3.596713297477221, 0.088535297477221, 1};
Point(p10 + 6) = {3.531547037687012, 0.1441925413079337, 1};
Point(p10 + 7) = {3.458476371527756, 0.1889703031202351, 1};
Point(p10 + 8) = {3.379300541307934, 0.2217660058094351, 1};
Point(p10 + 9) = {3.295969118737072, 0.2417721103326285, 1};
Point(p10 + 10) = {3.210534, 0.2484959999999999, 1};
Point(p10 + 11) = {3.125098881262928, 0.2417721103326285, 1};
Point(p10 + 12) = {3.041767458692066, 0.2217660058094352, 1};
Point(p10 + 13) = {2.962591628472244, 0.1889703031202352, 1};
Point(p10 + 14) = {2.889520962312989, 0.1441925413079337, 1};
Point(p10 + 15) = {2.824354702522779, 0.08853529747722105, 1};
Point(p10 + 16) = {2.768697458692066, 0.02336903768701132, 1};
Point(p10 + 17) = {2.723919696879765, -0.04970162847224391, 1};
Point(p10 + 18) = {2.691123994190565, -0.1288774586920662, 1};
Point(p10 + 19) = {2.671117889667372, -0.2122088812629283, 1};
Point(p10 + 20) = {2.664394, -0.297644, 1};
Point(p10 + 21) = {2.671117889667372, -0.3830791187370716, 1};
Point(p10 + 22) = {2.691123994190565, -0.466410541307934, 1};
Point(p10 + 23) = {2.723919696879765, -0.5455863715277558, 1};
Point(p10 + 24) = {2.768697458692066, -0.6186570376870112, 1};
Point(p10 + 25) = {2.824354702522779, -0.683823297477221, 1};
Point(p10 + 26) = {2.889520962312988, -0.7394805413079337, 1};
Point(p10 + 27) = {2.962591628472244, -0.7842583031202351, 1};
Point(p10 + 28) = {3.041767458692066, -0.8170540058094351, 1};
Point(p10 + 29) = {3.125098881262928, -0.8370601103326285, 1};
Point(p10 + 30) = {3.210534, -0.843784, 1};
Point(p10 + 31) = {3.295969118737072, -0.8370601103326285, 1};
Point(p10 + 32) = {3.379300541307934, -0.8170540058094352, 1};
Point(p10 + 33) = {3.458476371527756, -0.7842583031202353, 1};
Point(p10 + 34) = {3.531547037687011, -0.7394805413079338, 1};
Point(p10 + 35) = {3.596713297477221, -0.6838232974772211, 1};
Point(p10 + 36) = {3.652370541307934, -0.6186570376870114, 1};
Point(p10 + 37) = {3.697148303120235, -0.5455863715277562, 1};
Point(p10 + 38) = {3.729944005809435, -0.4664105413079339, 1};
Point(p10 + 39) = {3.749950110332628, -0.3830791187370718, 1};
Spline(10) = {8, p10 + 1, p10 + 2, p10 + 3, p10 + 4, p10 + 5, p10 + 6, p10 + 7, p10 + 8, p10 + 9, p10 + 10, p10 + 11, p10 + 12, p10 + 13, p10 + 14, p10 + 15, p10 + 16, p10 + 17, p10 + 18, p10 + 19, p10 + 20, p10 + 21, p10 + 22, p10 + 23, p10 + 24, p10 + 25, p10 + 26, p10 + 27, p10 + 28, p10 + 29, p10 + 30, p10 + 31, p10 + 32, p10 + 33, p10 + 34, p10 + 35, p10 + 36, p10 + 37, p10 + 38, p10 + 39, 8};
p11 = newp;
Point(p11 + 1) = {19.99645101065508, 1.555688030590352, 1};
Point(p11 + 2) = {19.966688349416, 1.679658436606752, 1};
Point(p11 + 3) = {19.91789887177909, 1.797446655218887, 1};
Point(p11 + 4) = {19.85128393660675, 1.906152349567841, 1};
Point(p11 + 5) = {19.76848382468523, 2.003098824685227, 1};
Point(p11 + 6) = {19.67153734956784, 2.085898936606752, 1};
Point(p11 + 7) = {19.56283165521889, 2.152513871779089, 1};
Point(p11 + 8) = {19.44504343660675, 2.201303349416003, 1};
Point(p11 + 9) = {19.32107303059035, 2.231066010655078, 1};
Point(p11 + 10) = {19.193973, 2.241069, 1};
Point(p11 + 11) = {19.06687296940965, 2.231066010655078, 1};
Point(p11 + 12) = {18.94290256339325, 2.201303349416003, 1};
Point(p11 + 13) = {18.82511434478111, 2.152513871779089, 1};
Point(p11 + 14) = {18.71640865043216, 2.085898936606752, 1};
Point(p11 + 15) = {18.61946217531477, 2.003098824685227, 1};
Point(p11 + 16) = {18.53666206339325, 1.906152349567841, 1};
Point(p11 + 17) = {18.47004712822091, 1.797446655218887, 1};
Point(p11 + 18) = {18.421257650584, 1.679658436606752, 1};
Point(p11 + 19) = {18.39149498934492, 1.555688030590352, 1};
Point(p11 + 20) = {18.381492, 1.428588, 1};
Point(p11 + 21) = {18.39149498934492, 1.301487969409648, 1};
Point(p11 + 22) = {18.421257650584, 1.177517563393248, 1};
Point(p11 + 23) = {18.47004712822091, 1.059729344781114, 1};
Point(p11 + 24) = {18.53666206339325, 0.9510236504321592, 1};
Point(p11 + 25) = {18.61946217531477, 0.8540771753147727, 1};
Point(p11 + 26) = {18.71640865043216, 0.7712770633932484, 1};
Point(p11 + 27) = {18.82511434478111, 0.7046621282209107, 1};
Point(p11 + 28) = {18.94290256339325, 0.6558726505839974, 1};
Point(p11 + 29) = {19.06687296940965, 0.6261099893449219, 1};
Point(p11 + 30) = {19.193973, 0.616107, 1};
Point(p11 + 31) = {19.32107303059035, 0.6261099893449218, 1};
Point(p11 + 32) = {19.44504343660675, 0.6558726505839972, 1};
Point(p11 + 33) = {19.56283165521889, 0.7046621282209107, 1};
Point(p11 + 34) = {19.67153734956784, 0.7712770633932482, 1};
Point(p11 + 35) = {19.76848382468523, 0.8540771753147726, 1};
Point(p11 + 36) = {19.85128393660675, 0.951023650432159, 1};
Point(p11 + 37) = {19.91789887177909, 1.059729344781113, 1};
Point(p11 + 38) = {19.966688349416, 1.177517563393248, 1};
Point(p11 + 39) = {19.99645101065508, 1.301487969409648, 1};
Spline(11) = {9, p11 + 1, p11 + 2, p11 + 3, p11 + 4, p11 + 5, p11 + 6, p11 + 7, p11 + 8, p11 + 9, p11 + 10, p11 + 11, p11 + 12, p11 + 13, p11 + 14, p11 + 15, p11 + 16, p11 + 17, p11 + 18, p11 + 19, p11 + 20, p11 + 21, p11 + 22, p11 + 23, p11 + 24, p11 + 25, p11 + 26, p11 + 27, p11 + 28, p11 + 29, p11 + 30, p11 + 31, p11 + 32, p11 + 33, p11 + 34, p11 + 35, p11 + 36, p11 + 37, p11 + 38, p11 + 39, 9};
Line(12) = {4, 10};
Line(13) = {10, 7};
Line(14) = {5, 10};
p15 = newp;
Point(p15 + 1) = {3.749950110332628, -0.2122088812629283, 0};
Point(p15 + 2) = {3.729944005809435, -0.1288774586920663, 0};
Point(p15 + 3) = {3.697148303120235, -0.04970162847224396, 0};
Point(p15 + 4) = {3.652370541307934, 0.02336903768701126, 0};
Point(p15 + 5) = {3.596713297477221, 0.088535297477221, 0};
Point(p15 + 6) = {3.531547037687012, 0.1441925413079337, 0};
Point(p15 + 7) = {3.458476371527756, 0.1889703031202351, 0};
Point(p15 + 8) = {3.379300541307934, 0.2217660058094351, 0};
Point(p15 + 9) = {3.295969118737072, 0.2417721103326285, 0};
Point(p15 + 10) = {3.210534, 0.2484959999999999, 0};
Point(p15 + 11) = {3.125098881262928, 0.2417721103326285, 0};
Point(p15 + 12) = {3.041767458692066, 0.2217660058094352, 0};
Point(p15 + 13) = {2.962591628472244, 0.1889703031202352, 0};
Point(p15 + 14) = {2.889520962312989, 0.1441925413079337, 0};
Point(p15 + 15) = {2.824354702522779, 0.08853529747722105, 0};
Point(p15 + 16) = {2.768697458692066, 0.02336903768701132, 0};
Point(p15 + 17) = {2.723919696879765, -0.04970162847224391, 0};
Point(p15 + 18) = {2.691123994190565, -0.1288774586920662, 0};
Point(p15 + 19) = {2.671117889667372, -0.2122088812629283, 0};
Point(p15 + 20) = {2.664394, -0.297644, 0};
Point(p15 + 21) = {2.671117889667372, -0.3830791187370716, 0};
Point(p15 + 22) = {2.691123994190565, -0.466410541307934, 0};
Point(p15 + 23) = {2.723919696879765, -0.5455863715277558, 0};
Point(p15 + 24) = {2.768697458692066, -0.6186570376870112, 0};
Point(p15 + 25) = {2.824354702522779, -0.683823297477221, 0};
Point(p15 + 26) = {2.889520962312988, -0.7394805413079337, 0};
Point(p15 + 27) = {2.962591628472244, -0.7842583031202351, 0};
Point(p15 + 28) = {3.041767458692066, -0.8170540058094351, 0};
Point(p15 + 29) = {3.125098881262928, -0.8370601103326285, 0};
Point(p15 + 30) = {3.210534, -0.843784, 0};
Point(p15 + 31) = {3.295969118737072, -0.8370601103326285, 0};
Point(p15 + 32) = {3.379300541307934, -0.8170540058094352, 0};
Point(p15 + 33) = {3.458476371527756, -0.7842583031202353, 0};
Point(p15 + 34) = {3.531547037687011, -0.7394805413079338, 0};
Point(p15 + 35) = {3.596713297477221, -0.6838232974772211, 0};
Point(p15 + 36) = {3.652370541307934, -0.6186570376870114, 0};
Point(p15 + 37) = {3.697148303120235, -0.5455863715277562, 0};
Point(p15 + 38) = {3.729944005809435, -0.4664105413079339, 0};
Point(p15 + 39) = {3.749950110332628, -0.3830791187370718, 0};
Spline(15) = {11, p15 + 1, p15 + 2, p15 + 3, p15 + 4, p15 + 5, p15 + 6, p15 + 7, p15 + 8, p15 + 9, p15 + 10, p15 + 11, p15 + 12, p15 + 13, p15 + 14, p15 + 15, p15 + 16, p15 + 17, p15 + 18, p15 + 19, p15 + 20, p15 + 21, p15 + 22, p15 + 23, p15 + 24, p15 + 25, p15 + 26, p15 + 27, p15 + 28, p15 + 29, p15 + 30, p15 + 31, p15 + 32, p15 + 33, p15 + 34, p15 + 35, p15 + 36, p15 + 37, p15 + 38, p15 + 39, 11};
p16 = newp;
Point(p16 + 1) = {19.99645101065508, 1.555688030590352, 0};
Point(p16 + 2) = {19.966688349416, 1.679658436606752, 0};
Point(p16 + 3) = {19.91789887177909, 1.797446655218887, 0};
Point(p16 + 4) = {19.85128393660675, 1.906152349567841, 0};
Point(p16 + 5) = {19.76848382468523, 2.003098824685227, 0};
Point(p16 + 6) = {19.67153734956784, 2.085898936606752, 0};
Point(p16 + 7) = {19.56283165521889, 2.152513871779089, 0};
Point(p16 + 8) = {19.44504343660675, 2.201303349416003, 0};
Point(p16 + 9) = {19.32107303059035, 2.231066010655078, 0};
Point(p16 + 10) = {19.193973, 2.241069, 0};
Point(p16 + 11) = {19.06687296940965, 2.231066010655078, 0};
Point(p16 + 12) = {18.94290256339325, 2.201303349416003, 0};
Point(p16 + 13) = {18.82511434478111, 2.152513871779089, 0};
Point(p16 + 14) = {18.71640865043216, 2.085898936606752, 0};
Point(p16 + 15) = {18.61946217531477, 2.003098824685227, 0};
Point(p16 + 16) = {18.53666206339325, 1.906152349567841, 0};
Point(p16 + 17) = {18.47004712822091, 1.797446655218887, 0};
Point(p16 + 18) = {18.421257650584, 1.679658436606752, 0};
Point(p16 + 19) = {18.39149498934492, 1.555688030590352, 0};
Point(p16 + 20) = {18.381492, 1.428588, 0};
Point(p16 + 21) = {18.39149498934492, 1.301487969409648, 0};
Point(p16 + 22) = {18.421257650584, 1.177517563393248, 0};
Point(p16 + 23) = {18.47004712822091, 1.059729344781114, 0};
Point(p16 + 24) = {18.53666206339325, 0.9510236504321592, 0};
Point(p16 + 25) = {18.61946217531477, 0.8540771753147727, 0};
Point(p16 + 26) = {18.71640865043216, 0.7712770633932484, 0};
Point(p16 + 27) = {18.82511434478111, 0.7046621282209107, 0};
Point(p16 + 28) = {18.94290256339325, 0.6558726505839974, 0};
Point(p16 + 29) = {19.06687296940965, 0.6261099893449219, 0};
Point(p16 + 30) = {19.193973, 0.616107, 0};
Point(p16 + 31) = {19.32107303059035, 0.6261099893449218, 0};
Point(p16 + 32) = {19.44504343660675, 0.6558726505839972, 0};
Point(p16 + 33) = {19.56283165521889, 0.7046621282209107, 0};
Point(p16 + 34) = {19.67153734956784, 0.7712770633932482, 0};
Point(p16 + 35) = {19.76848382468523, 0.8540771753147726, 0};
Point(p16 + 36) = {19.85128393660675, 0.951023650432159, 0};
Point(p16 + 37) = {19.91789887177909, 1.059729344781113, 0};
Point(p16 + 38) = {19.966688349416, 1.177517563393248, 0};
Point(p16 + 39) = {19.99645101065508, 1.301487969409648, 0};
Spline(16) = {12, p16 + 1, p16 + 2, p16 + 3, p16 + 4, p16 + 5, p16 + 6, p16 + 7, p16 + 8, p16 + 9, p16 + 10, p16 + 11, p16 + 12, p16 + 13, p16 + 14, p16 + 15, p16 + 16, p16 + 17, p16 + 18, p16 + 19, p16 + 20, p16 + 21, p16 + 22, p16 + 23, p16 + 24, p16 + 25, p16 + 26, p16 + 27, p16 + 28, p16 + 29, p16 + 30, p16 + 31, p16 + 32, p16 + 33, p16 + 34, p16 + 35, p16 + 36, p16 + 37, p16 + 38, p16 + 39, 12};
Line(17) = {11, 8};
Line(18) = {12, 9};
Curve Loop(1) = {-1, 4, 3, -2};
Plane Surface(1) = {1};
Curve Loop(2) = {-5, 1, 7, -6};
Plane Surface(2) = {2};
Curve Loop(3) = {-2, 7, 9, -8, -10, -11};
Plane Surface(3) = {3};
Curve Loop(4) = {-12, 3, 8, -13};
Plane Surface(4) = {4};
Curve Loop(5) = {-4, 5, 14, -12, -15, -16};
Plane Surface(5) = {5};
Curve Loop(6) = {-6, 14, 13, -9};
Plane Surface(6) = {6};
Curve Loop(7) = {-10, -17, 15, 17};
Surface(7) = {7};
Curve Loop(8) = {-11, -18, 16, 18};
Surface(8) = {8};
Surface Loop(1) = {1, 2, 3, 4, 5, 6, 7, 8};
Volume(1) = {1};
Physical Surface("INFLOW") = {1};
Physical Surface("OUTFLOW") = {6};
Physical Surface("OBSTACLE") = {7, 8};
Physical Surface("WALL_Y") = {2, 4};
Physical Surface("WALL_Z") = {3, 5};
Physical Volume("FLUID") = {1};
