cl__1 = 3.337407;
cl__2 = 0.278942;
cl__3 = 0.558458;
cl__4 = 0.085429;
cl__5 = 0.114331;
Point(1) = {0.662227, -3.441001, 1, cl__1};
Point(2) = {0.662227, -3.441001, 0, cl__1};
Point(3) = {0.662227, 4.491955, 1, cl__1};
Point(4) = {0.662227, 4.491955, 0, cl__1};
Point(5) = {33.137526, -3.441001, 0, cl__2};
Point(6) = {33.137526, -3.441001, 1, cl__2};
Point(7) = {33.137526, 4.491955, 1, cl__3};
Point(8) = {31.079825, -1.250813, 1, cl__4};
Point(9) = {26.725141, 1.752585, 1, cl__5};
Point(10) = {33.137526, 4.491955, 0, cl__3};
Point(11) = {31.079825, -1.250813, 0, cl__4};
Point(12) = {26.725141, 1.752585, 0, cl__5};
Line(1) = {2, 1};
Line(2) = {1, 3};
Line(3) = {4, 3};
Line(4) = {2, 4};
Line(5) = {2, 5};
Line(6) = {5, 6};
Line(7) = {1, 6};
Line(8) = {3, 7};
Line(9) = {6, 7};
p10 = newp;
Point(p10 + 1) = {31.069307309422, -1.117173070164176, 1};
Point(p10 + 2) = {31.03801321813624, -0.9868237989264093, 1};
Point(p10 + 3) = {30.98671329052931, -0.8629748179490018, 1};
Point(p10 + 4) = {30.91667070107359, -0.74867570017482, 1};
Point(p10 + 5) = {30.82961013077951, -0.6467408692204879, 1};
Point(p10 + 6) = {30.72767529982518, -0.5596802989264092, 1};
Point(p10 + 7) = {30.613376182051, -0.4896377094706917, 1};
Point(p10 + 8) = {30.48952720107359, -0.4383377818637622, 1};
Point(p10 + 9) = {30.35917792983582, -0.4070436905780015, 1};
Point(p10 + 10) = {30.225538, -0.3965259999999999, 1};
Point(p10 + 11) = {30.09189807016418, -0.4070436905780016, 1};
Point(p10 + 12) = {29.96154879892641, -0.438337781863762, 1};
Point(p10 + 13) = {29.837699817949, -0.4896377094706917, 1};
Point(p10 + 14) = {29.72340070017482, -0.5596802989264092, 1};
Point(p10 + 15) = {29.62146586922049, -0.6467408692204878, 1};
Point(p10 + 16) = {29.53440529892641, -0.7486757001748199, 1};
Point(p10 + 17) = {29.46436270947069, -0.8629748179490017, 1};
Point(p10 + 18) = {29.41306278186376, -0.9868237989264091, 1};
Point(p10 + 19) = {29.381768690578, -1.117173070164176, 1};
Point(p10 + 20) = {29.371251, -1.250813, 1};
Point(p10 + 21) = {29.381768690578, -1.384452929835823, 1};
Point(p10 + 22) = {29.41306278186376, -1.514802201073591, 1};
Point(p10 + 23) = {29.46436270947069, -1.638651182050998, 1};
Point(p10 + 24) = {29.53440529892641, -1.75295029982518, 1};
Point(p10 + 25) = {29.62146586922049, -1.854885130779512, 1};
Point(p10 + 26) = {29.72340070017482, -1.941945701073591, 1};
Point(p10 + 27) = {29.837699817949, -2.011988290529308, 1};
Point(p10 + 28) = {29.96154879892641, -2.063288218136238, 1};
Point(p10 + 29) = {30.09189807016418, -2.094582309421998, 1};
Point(p10 + 30) = {30.225538, -2.1051, 1};
Point(p10 + 31) = {30.35917792983582, -2.094582309421998, 1};
Point(p10 + 32) = {30.48952720107359, -2.063288218136238, 1};
Point(p10 + 33) = {30.613376182051, -2.011988290529308, 1};
Point(p10 + 34) = {30.72767529982518, -1.941945701073591, 1};
Point(p10 + 35) = {30.82961013077951, -1.854885130779512, 1};
Point(p10 + 36) = {30.91667070107359, -1.75295029982518, 1};
Point(p10 + 37) = {30.98671329052931, -1.638651182050998, 1};
Point(p10 + 38) = {31.03801321813624, -1.514802201073591, 1};
Point(p10 + 39) = {31.069307309422, -1.384452929835824, 1};
Spline(10) = {8, p10 + 1, p10 + 2, p10 + 3, p10 + 4, p10 + 5, p10 + 6, p10 + 7, p10 + 8, p10 + 9, p10 + 10, p10 + 11, p10 + 12, p10 + 13, p10 + 14, p10 + 15, p10 + 16, p10 + 17, p10 + 18, p10 + 19, p10 + 20, p10 + 21, p10 + 22, p10 + 23, p10 + 24, p10 + 25, p10 + 26, p10 + 27, p10 + 28, p10 + 29, p10 + 30, p10 + 31, p10 + 32, p10 + 33, p10 + 34, p10 + 35, p10 + 36, p10 + 37, p10 + 38, p10 + 39, 8};
p11 = newp;
Point(p11 + 1) = {26.71106496899748, 1.931437931790681, 1};
Point(p11 + 2) = {26.66918347458889, 2.105886910821827, 1};
Point(p11 + 3) = {26.60052777816328, 2.271636424266721, 1};
Point(p11 + 4) = {26.50678841082183, 2.424605169013255, 1};
Point(p11 + 5) = {26.39027354689161, 2.56102654689161, 1};
Point(p11 + 6) = {26.25385216901325, 2.677541410821827, 1};
Point(p11 + 7) = {26.10088342426672, 2.771280778163279, 1};
Point(p11 + 8) = {25.93513391082183, 2.839936474588896, 1};
Point(p11 + 9) = {25.76068493179068, 2.881817968997487, 1};
Point(p11 + 10) = {25.581832, 2.895894, 1};
Point(p11 + 11) = {25.40297906820932, 2.881817968997486, 1};
Point(p11 + 12) = {25.22853008917817, 2.839936474588896, 1};
Point(p11 + 13) = {25.06278057573328, 2.771280778163279, 1};
Point(p11 + 14) = {24.90981183098674, 2.677541410821827, 1};
Point(p11 + 15) = {24.77339045310839, 2.56102654689161, 1};
Point(p11 + 16) = {24.65687558917817, 2.424605169013256, 1};
Point(p11 + 17) = {24.56313622183672, 2.271636424266722, 1};
Point(p11 + 18) = {24.4944805254111, 2.105886910821827, 1};
Point(p11 + 19) = {24.45259903100251, 1.931437931790682, 1};
Point(p11 + 20) = {24.438523, 1.752585, 1};
Point(p11 + 21) = {24.45259903100251, 1.573732068209319, 1};
Point(p11 + 22) = {24.4944805254111, 1.399283089178173, 1};
Point(p11 + 23) = {24.56313622183672, 1.233533575733279, 1};
Point(p11 + 24) = {24.65687558917817, 1.080564830986745, 1};
Point(p11 + 25) = {24.77339045310839, 0.9441434531083898, 1};
Point(p11 + 26) = {24.90981183098674, 0.8276285891781735, 1};
Point(p11 + 27) = {25.06278057573328, 0.7338892218367215, 1};
Point(p11 + 28) = {25.22853008917817, 0.6652335254111044, 1};
Point(p11 + 29) = {25.40297906820932, 0.623352031002514, 1};
Point(p11 + 30) = {25.581832, 0.6092760000000002, 1};
Point(p11 + 31) = {25.76068493179068, 0.6233520310025138, 1};
Point(p11 + 32) = {25.93513391082183, 0.6652335254111044, 1};
Point(p11 + 33) = {26.10088342426672, 0.7338892218367215, 1};
Point(p11 + 34) = {26.25385216901325, 0.8276285891781732, 1};
Point(p11 + 35) = {26.39027354689161, 0.9441434531083894, 1};
Point(p11 + 36) = {26.50678841082183, 1.080564830986745, 1};
Point(p11 + 37) = {26.60052777816328, 1.233533575733278, 1};
Point(p11 + 38) = {26.66918347458889, 1.399283089178173, 1};
Point(p11 + 39) = {26.71106496899748, 1.573732068209319, 1};
Spline(11) = {9, p11 + 1, p11 + 2, p11 + 3, p11 + 4, p11 + 5, p11 + 6, p11 + 7, p11 + 8, p11 + 9, p11 + 10, p11 + 11, p11 + 12, p11 + 13, p11 + 14, p11 + 15, p11 + 16, p11 + 17, p11 + 18, p11 + 19, p11 + 20, p11 + 21, p11 + 22, p11 + 23, p11 + 24, p11 + 25, p11 + 26, p11 + 27, p11 + 28, p11 + 29, p11 + 30, p11 + 31, p11 + 32, p11 + 33, p11 + 34, p11 + 35, p11 + 36, p11 + 37, p11 + 38, p11 + 39, 9};
Line(12) = {4, 10};
Line(13) = {10, 7};
Line(14) = {5, 10};
p15 = newp;
Point(p15 + 1) = {31.069307309422, -1.117173070164176, 0};
Point(p15 + 2) = {31.03801321813624, -0.9868237989264093, 0};
Point(p15 + 3) = {30.98671329052931, -0.8629748179490018, 0};
Point(p15 + 4) = {30.91667070107359, -0.74867570017482, 0};
Point(p15 + 5) = {30.82961013077951, -0.6467408692204879, 0};
Point(p15 + 6) = {30.72767529982518, -0.5596802989264092, 0};
Point(p15 + 7) = {30.613376182051, -0.4896377094706917, 0};
Point(p15 + 8) = {30.48952720107359, -0.4383377818637622, 0};
Point(p15 + 9) = {30.35917792983582, -0.4070436905780015, 0};
Point(p15 + 10) = {30.225538, -0.3965259999999999, 0};
Point(p15 + 11) = {30.09189807016418, -0.4070436905780016, 0};
Point(p15 + 12) = {29.96154879892641, -0.438337781863762, 0};
Point(p15 + 13) = {29.837699817949, -0.4896377094706917, 0};
Point(p15 + 14) = {29.72340070017482, -0.5596802989264092, 0};
Point(p15 + 15) = {29.62146586922049, -0.6467408692204878, 0};
Point(p15 + 16) = {29.53440529892641, -0.7486757001748199, 0};
Point(p15 + 17) = {29.46436270947069, -0.8629748179490017, 0};
Point(p15 + 18) = {29.41306278186376, -0.9868237989264091, 0};
Point(p15 + 19) = {29.381768690578, -1.117173070164176, 0};
Point(p15 + 20) = {29.371251, -1.250813, 0};
Point(p15 + 21) = {29.381768690578, -1.384452929835823, 0};
Point(p15 + 22) = {29.41306278186376, -1.514802201073591, 0};
Point(p15 + 23) = {29.46436270947069, -1.638651182050998, 0};
Point(p15 + 24) = {29.53440529892641, -1.75295029982518, 0};
Point(p15 + 25) = {29.62146586922049, -1.854885130779512, 0};
Point(p15 + 26) = {29.72340070017482, -1.941945701073591, 0};
Point(p15 + 27) = {29.837699817949, -2.011988290529308, 0};
Point(p15 + 28) = {29.96154879892641, -2.063288218136238, 0};
Point(p15 + 29) = {30.09189807016418, -2.094582309421998, 0};
Point(p15 + 30) = {30.225538, -2.1051, 0};
Point(p15 + 31) = {30.35917792983582, -2.094582309421998, 0};
Point(p15 + 32) = {30.48952720107359, -2.063288218136238, 0};
Point(p15 + 33) = {30.613376182051, -2.011988290529308, 0};
Point(p15 + 34) = {30.72767529982518, -1.941945701073591, 0};
Point(p15 + 35) = {30.82961013077951, -1.854885130779512, 0};
Point(p15 + 36) = {30.91667070107359, -1.75295029982518, 0};
Point(p15 + 37) = {30.98671329052931, -1.638651182050998, 0};
Point(p15 + 38) = {31.03801321813624, -1.514802201073591, 0};
Point(p15 + 39) = {31.069307309422, -1.384452929835824, 0};
Spline(15) = {11, p15 + 1, p15 + 2, p15 + 3, p15 + 4, p15 + 5, p15 + 6, p15 + 7, p15 + 8, p15 + 9, p15 + 10, p15 + 11, p15 + 12, p15 + 13, p15 + 14, p15 + 15, p15 + 16, p15 + 17, p15 + 18, p15 + 19, p15 + 20, p15 + 21, p15 + 22, p15 + 23, p15 + 24, p15 + 25, p15 + 26, p15 + 27, p15 + 28, p15 + 29, p15 + 30, p15 + 31, p15 + 32, p15 + 33, p15 + 34, p15 + 35, p15 + 36, p15 + 37, p15 + 38, p15 + 39, 11};
p16 = newp;
Point(p16 + 1) = {26.71106496899748, 1.931437931790681, 0};
Point(p16 + 2) = {26.66918347458889, 2.105886910821827, 0};
Point(p16 + 3) = {26.60052777816328, 2.271636424266721, 0};
Point(p16 + 4) = {26.50678841082183, 2.424605169013255, 0};
Point(p16 + 5) = {26.39027354689161, 2.56102654689161, 0};
Point(p16 + 6) = {26.25385216901325, 2.677541410821827, 0};
Point(p16 + 7) = {26.10088342426672, 2.771280778163279, 0};
Point(p16 + 8) = {25.93513391082183, 2.839936474588896, 0};
Point(p16 + 9) = {25.76068493179068, 2.881817968997487, 0};
Point(p16 + 10) = {25.581832, 2.895894, 0};
Point(p16 + 11) = {25.40297906820932, 2.881817968997486, 0};
Point(p16 + 12) = {25.22853008917817, 2.839936474588896, 0};
Point(p16 + 13) = {25.06278057573328, 2.771280778163279, 0};
Point(p16 + 14) = {24.90981183098674, 2.677541410821827, 0};
Point(p16 + 15) = {24.77339045310839, 2.56102654689161, 0};
Point(p16 + 16) = {24.65687558917817, 2.424605169013256, 0};
Point(p16 + 17) = {24.56313622183672, 2.271636424266722, 0};
Point(p16 + 18) = {24.4944805254111, 2.105886910821827, 0};
Point(p16 + 19) = {24.45259903100251, 1.931437931790682, 0};
Point(p16 + 20) = {24.438523, 1.752585, 0};
Point(p16 + 21) = {24.45259903100251, 1.573732068209319, 0};
Point(p16 + 22) = {24.4944805254111, 1.399283089178173, 0};
Point(p16 + 23) = {24.56313622183672, 1.233533575733279, 0};
Point(p16 + 24) = {24.65687558917817, 1.080564830986745, 0};
Point(p16 + 25) = {24.77339045310839, 0.9441434531083898, 0};
Point(p16 + 26) = {24.90981183098674, 0.8276285891781735, 0};
Point(p16 + 27) = {25.06278057573328, 0.7338892218367215, 0};
Point(p16 + 28) = {25.22853008917817, 0.6652335254111044, 0};
Point(p16 + 29) = {25.40297906820932, 0.623352031002514, 0};
Point(p16 + 30) = {25.581832, 0.6092760000000002, 0};
Point(p16 + 31) = {25.76068493179068, 0.6233520310025138, 0};
Point(p16 + 32) = {25.93513391082183, 0.6652335254111044, 0};
Point(p16 + 33) = {26.10088342426672, 0.7338892218367215, 0};
Point(p16 + 34) = {26.25385216901325, 0.8276285891781732, 0};
Point(p16 + 35) = {26.39027354689161, 0.9441434531083894, 0};
Point(p16 + 36) = {26.50678841082183, 1.080564830986745, 0};
Point(p16 + 37) = {26.60052777816328, 1.233533575733278, 0};
Point(p16 + 38) = {26.66918347458889, 1.399283089178173, 0};
Point(p16 + 39) = {26.71106496899748, 1.573732068209319, 0};
Spline(16) = {12, p16 + 1, p16 + 2, p16 + 3, p16 + 4, p16 + 5, p16 + 6, p16 + 7, p16 + 8, p16 + 9, p16 + 10, p16 + 11, p16 + 12, p16 + 13, p16 + 14, p16 + 15, p16 + 16, p16 + 17, p16 + 18, p16 + 19, p16 + 20, p16 + 21, p16 + 22, p16 + 23, p16 + 24, p16 + 25, p16 + 26, p16 + 27, p16 + 28, p16 + 29, p16 + 30, p16 + 31, p16 + 32, p16 + 33, p16 + 34, p16 + 35, p16 + 36, p16 + 37, p16 + 38, p16 + 39, 12};
Line(17) = {11, 8};
Line(18) = {12, 9};
Curve Loop(1) = {-1, 4, 3, -2};
Plane Surface(1) = {1};
Curve Loop(2) = {-5, 1, 7, -6};
Plane Surface(2) = {2};
Curve Loop(3) = {-2, 7, 9, -8, -10, -11};
Plane Surface(3) = {3};
Curve Loop(4) = {-12, 3, 8, -13};
Plane Surface(4) = {4};
Curve Loop(5) = {-4, 5, 14, -12, -15, -16};
Plane Surface(5) = {5};
Curve Loop(6) = {-6, 14, 13, -9};
Plane Surface(6) = {6};
Curve Loop(7) = {-10, -17, 15, 17};
Surface(7) = {7};
Curve Loop(8) = {-11, -18, 16, 18};
Surface(8) = {8};
Surface Loop(1) = {1, 2, 3, 4, 5, 6, 7, 8};
Volume(1) = {1};
Physical Surface("INFLOW") = {1};
Physical Surface("OUTFLOW") = {6};
Physical Surface("OBSTACLE") = {7, 8};
Physical Surface("WALL_Y") = {2, 4};
Physical Surface("WALL_Z") = {3, 5};
Physical Volume("FLUID") = {1};
