cl__1 = 1.83867;
cl__2 = 1.825932;
cl__3 = 0.175735;
cl__4 = 0.676813;
cl__5 = 0.067743;
cl__6 = 0.127615;
Point(1) = {0.911486, -3.989256, 1, cl__1};
Point(2) = {0.911486, -3.989256, 0, cl__1};
Point(3) = {0.911486, 5.398513, 1, cl__2};
Point(4) = {0.911486, 5.398513, 0, cl__2};
Point(5) = {36.47632299999999, -3.989256, 0, cl__3};
Point(6) = {36.47632299999999, -3.989256, 1, cl__3};
Point(7) = {36.47632299999999, 5.398513, 1, cl__4};
Point(8) = {35.851174, -1.932212, 1, cl__5};
Point(9) = {21.214658, 0.9705729999999997, 1, cl__6};
Point(10) = {36.47632299999999, 5.398513, 0, cl__4};
Point(11) = {35.851174, -1.932212, 0, cl__5};
Point(12) = {21.214658, 0.9705729999999997, 0, cl__6};
Line(1) = {2, 1};
Line(2) = {1, 3};
Line(3) = {4, 3};
Line(4) = {2, 4};
Line(5) = {2, 5};
Line(6) = {5, 6};
Line(7) = {1, 6};
Line(8) = {3, 7};
Line(9) = {6, 7};
p10 = newp;
Point(p10 + 1) = {35.842833761816, -1.826239226085657, 1};
Point(p10 + 2) = {35.81801841160777, -1.722875853568557, 1};
Point(p10 + 3) = {35.77733898565483, -1.624667031723438, 1};
Point(p10 + 4) = {35.72179714643145, -1.534030987680519, 1};
Point(p10 + 5) = {35.65276051835208, -1.453199481647922, 1};
Point(p10 + 6) = {35.57192901231949, -1.384162853568557, 1};
Point(p10 + 7) = {35.48129296827656, -1.328621014345171, 1};
Point(p10 + 8) = {35.38308414643144, -1.287941588392239, 1};
Point(p10 + 9) = {35.27972077391435, -1.263126238183998, 1};
Point(p10 + 10) = {35.173748, -1.254786, 1};
Point(p10 + 11) = {35.06777522608566, -1.263126238183998, 1};
Point(p10 + 12) = {34.96441185356856, -1.287941588392239, 1};
Point(p10 + 13) = {34.86620303172344, -1.328621014345171, 1};
Point(p10 + 14) = {34.77556698768052, -1.384162853568557, 1};
Point(p10 + 15) = {34.69473548164792, -1.453199481647922, 1};
Point(p10 + 16) = {34.62569885356856, -1.534030987680519, 1};
Point(p10 + 17) = {34.57015701434518, -1.624667031723438, 1};
Point(p10 + 18) = {34.52947758839224, -1.722875853568557, 1};
Point(p10 + 19) = {34.504662238184, -1.826239226085657, 1};
Point(p10 + 20) = {34.49632200000001, -1.932212, 1};
Point(p10 + 21) = {34.504662238184, -2.038184773914343, 1};
Point(p10 + 22) = {34.52947758839224, -2.141548146431443, 1};
Point(p10 + 23) = {34.57015701434517, -2.239756968276562, 1};
Point(p10 + 24) = {34.62569885356856, -2.330393012319481, 1};
Point(p10 + 25) = {34.69473548164792, -2.411224518352078, 1};
Point(p10 + 26) = {34.77556698768052, -2.480261146431443, 1};
Point(p10 + 27) = {34.86620303172344, -2.535802985654829, 1};
Point(p10 + 28) = {34.96441185356856, -2.576482411607761, 1};
Point(p10 + 29) = {35.06777522608566, -2.601297761816002, 1};
Point(p10 + 30) = {35.173748, -2.609638, 1};
Point(p10 + 31) = {35.27972077391435, -2.601297761816002, 1};
Point(p10 + 32) = {35.38308414643144, -2.576482411607761, 1};
Point(p10 + 33) = {35.48129296827656, -2.535802985654829, 1};
Point(p10 + 34) = {35.57192901231949, -2.480261146431443, 1};
Point(p10 + 35) = {35.65276051835208, -2.411224518352078, 1};
Point(p10 + 36) = {35.72179714643145, -2.330393012319481, 1};
Point(p10 + 37) = {35.77733898565483, -2.239756968276562, 1};
Point(p10 + 38) = {35.81801841160777, -2.141548146431443, 1};
Point(p10 + 39) = {35.842833761816, -2.038184773914343, 1};
Spline(10) = {8, p10 + 1, p10 + 2, p10 + 3, p10 + 4, p10 + 5, p10 + 6, p10 + 7, p10 + 8, p10 + 9, p10 + 10, p10 + 11, p10 + 12, p10 + 13, p10 + 14, p10 + 15, p10 + 16, p10 + 17, p10 + 18, p10 + 19, p10 + 20, p10 + 21, p10 + 22, p10 + 23, p10 + 24, p10 + 25, p10 + 26, p10 + 27, p10 + 28, p10 + 29, p10 + 30, p10 + 31, p10 + 32, p10 + 33, p10 + 34, p10 + 35, p10 + 36, p10 + 37, p10 + 38, p10 + 39, 8};
p11 = newp;
Point(p11 + 1) = {21.19894651278546, 1.170206373257695, 1};
Point(p11 + 2) = {21.15219892010051, 1.364924110320606, 1};
Point(p11 + 3) = {21.07556630282341, 1.549931614271123, 1};
Point(p11 + 4) = {20.97093561032061, 1.720673386357283, 1};
Point(p11 + 5) = {20.84088319749087, 1.872945197490869, 1};
Point(p11 + 6) = {20.68861138635728, 2.002997610320606, 1};
Point(p11 + 7) = {20.51786961427112, 2.107628302823413, 1};
Point(p11 + 8) = {20.3328621103206, 2.184260920100511, 1};
Point(p11 + 9) = {20.1381443732577, 2.231008512785463, 1};
Point(p11 + 10) = {19.938511, 2.24672, 1};
Point(p11 + 11) = {19.7388776267423, 2.231008512785463, 1};
Point(p11 + 12) = {19.54415988967939, 2.184260920100511, 1};
Point(p11 + 13) = {19.35915238572888, 2.107628302823413, 1};
Point(p11 + 14) = {19.18841061364272, 2.002997610320606, 1};
Point(p11 + 15) = {19.03613880250913, 1.872945197490869, 1};
Point(p11 + 16) = {18.90608638967939, 1.720673386357283, 1};
Point(p11 + 17) = {18.80145569717659, 1.549931614271123, 1};
Point(p11 + 18) = {18.72482307989949, 1.364924110320606, 1};
Point(p11 + 19) = {18.67807548721454, 1.170206373257696, 1};
Point(p11 + 20) = {18.662364, 0.9705730000000001, 1};
Point(p11 + 21) = {18.67807548721454, 0.7709396267423048, 1};
Point(p11 + 22) = {18.72482307989949, 0.5762218896793936, 1};
Point(p11 + 23) = {18.80145569717659, 0.3912143857288773, 1};
Point(p11 + 24) = {18.90608638967939, 0.2204726136427175, 1};
Point(p11 + 25) = {19.03613880250913, 0.06820080250913108, 1};
Point(p11 + 26) = {19.18841061364272, -0.06185161032060582, 1};
Point(p11 + 27) = {19.35915238572888, -0.1664823028234129, 1};
Point(p11 + 28) = {19.54415988967939, -0.2431149201005113, 1};
Point(p11 + 29) = {19.7388776267423, -0.2898625127854629, 1};
Point(p11 + 30) = {19.938511, -0.3055739999999999, 1};
Point(p11 + 31) = {20.13814437325769, -0.2898625127854632, 1};
Point(p11 + 32) = {20.3328621103206, -0.2431149201005113, 1};
Point(p11 + 33) = {20.51786961427112, -0.1664823028234131, 1};
Point(p11 + 34) = {20.68861138635728, -0.06185161032060604, 1};
Point(p11 + 35) = {20.84088319749087, 0.06820080250913085, 1};
Point(p11 + 36) = {20.97093561032061, 0.2204726136427171, 1};
Point(p11 + 37) = {21.07556630282341, 0.3912143857288765, 1};
Point(p11 + 38) = {21.15219892010051, 0.5762218896793938, 1};
Point(p11 + 39) = {21.19894651278546, 0.7709396267423042, 1};
Spline(11) = {9, p11 + 1, p11 + 2, p11 + 3, p11 + 4, p11 + 5, p11 + 6, p11 + 7, p11 + 8, p11 + 9, p11 + 10, p11 + 11, p11 + 12, p11 + 13, p11 + 14, p11 + 15, p11 + 16, p11 + 17, p11 + 18, p11 + 19, p11 + 20, p11 + 21, p11 + 22, p11 + 23, p11 + 24, p11 + 25, p11 + 26, p11 + 27, p11 + 28, p11 + 29, p11 + 30, p11 + 31, p11 + 32, p11 + 33, p11 + 34, p11 + 35, p11 + 36, p11 + 37, p11 + 38, p11 + 39, 9};
Line(12) = {4, 10};
Line(13) = {10, 7};
Line(14) = {5, 10};
p15 = newp;
Point(p15 + 1) = {35.842833761816, -1.826239226085657, 0};
Point(p15 + 2) = {35.81801841160777, -1.722875853568557, 0};
Point(p15 + 3) = {35.77733898565483, -1.624667031723438, 0};
Point(p15 + 4) = {35.72179714643145, -1.534030987680519, 0};
Point(p15 + 5) = {35.65276051835208, -1.453199481647922, 0};
Point(p15 + 6) = {35.57192901231949, -1.384162853568557, 0};
Point(p15 + 7) = {35.48129296827656, -1.328621014345171, 0};
Point(p15 + 8) = {35.38308414643144, -1.287941588392239, 0};
Point(p15 + 9) = {35.27972077391435, -1.263126238183998, 0};
Point(p15 + 10) = {35.173748, -1.254786, 0};
Point(p15 + 11) = {35.06777522608566, -1.263126238183998, 0};
Point(p15 + 12) = {34.96441185356856, -1.287941588392239, 0};
Point(p15 + 13) = {34.86620303172344, -1.328621014345171, 0};
Point(p15 + 14) = {34.77556698768052, -1.384162853568557, 0};
Point(p15 + 15) = {34.69473548164792, -1.453199481647922, 0};
Point(p15 + 16) = {34.62569885356856, -1.534030987680519, 0};
Point(p15 + 17) = {34.57015701434518, -1.624667031723438, 0};
Point(p15 + 18) = {34.52947758839224, -1.722875853568557, 0};
Point(p15 + 19) = {34.504662238184, -1.826239226085657, 0};
Point(p15 + 20) = {34.49632200000001, -1.932212, 0};
Point(p15 + 21) = {34.504662238184, -2.038184773914343, 0};
Point(p15 + 22) = {34.52947758839224, -2.141548146431443, 0};
Point(p15 + 23) = {34.57015701434517, -2.239756968276562, 0};
Point(p15 + 24) = {34.62569885356856, -2.330393012319481, 0};
Point(p15 + 25) = {34.69473548164792, -2.411224518352078, 0};
Point(p15 + 26) = {34.77556698768052, -2.480261146431443, 0};
Point(p15 + 27) = {34.86620303172344, -2.535802985654829, 0};
Point(p15 + 28) = {34.96441185356856, -2.576482411607761, 0};
Point(p15 + 29) = {35.06777522608566, -2.601297761816002, 0};
Point(p15 + 30) = {35.173748, -2.609638, 0};
Point(p15 + 31) = {35.27972077391435, -2.601297761816002, 0};
Point(p15 + 32) = {35.38308414643144, -2.576482411607761, 0};
Point(p15 + 33) = {35.48129296827656, -2.535802985654829, 0};
Point(p15 + 34) = {35.57192901231949, -2.480261146431443, 0};
Point(p15 + 35) = {35.65276051835208, -2.411224518352078, 0};
Point(p15 + 36) = {35.72179714643145, -2.330393012319481, 0};
Point(p15 + 37) = {35.77733898565483, -2.239756968276562, 0};
Point(p15 + 38) = {35.81801841160777, -2.141548146431443, 0};
Point(p15 + 39) = {35.842833761816, -2.038184773914343, 0};
Spline(15) = {11, p15 + 1, p15 + 2, p15 + 3, p15 + 4, p15 + 5, p15 + 6, p15 + 7, p15 + 8, p15 + 9, p15 + 10, p15 + 11, p15 + 12, p15 + 13, p15 + 14, p15 + 15, p15 + 16, p15 + 17, p15 + 18, p15 + 19, p15 + 20, p15 + 21, p15 + 22, p15 + 23, p15 + 24, p15 + 25, p15 + 26, p15 + 27, p15 + 28, p15 + 29, p15 + 30, p15 + 31, p15 + 32, p15 + 33, p15 + 34, p15 + 35, p15 + 36, p15 + 37, p15 + 38, p15 + 39, 11};
p16 = newp;
Point(p16 + 1) = {21.19894651278546, 1.170206373257695, 0};
Point(p16 + 2) = {21.15219892010051, 1.364924110320606, 0};
Point(p16 + 3) = {21.07556630282341, 1.549931614271123, 0};
Point(p16 + 4) = {20.97093561032061, 1.720673386357283, 0};
Point(p16 + 5) = {20.84088319749087, 1.872945197490869, 0};
Point(p16 + 6) = {20.68861138635728, 2.002997610320606, 0};
Point(p16 + 7) = {20.51786961427112, 2.107628302823413, 0};
Point(p16 + 8) = {20.3328621103206, 2.184260920100511, 0};
Point(p16 + 9) = {20.1381443732577, 2.231008512785463, 0};
Point(p16 + 10) = {19.938511, 2.24672, 0};
Point(p16 + 11) = {19.7388776267423, 2.231008512785463, 0};
Point(p16 + 12) = {19.54415988967939, 2.184260920100511, 0};
Point(p16 + 13) = {19.35915238572888, 2.107628302823413, 0};
Point(p16 + 14) = {19.18841061364272, 2.002997610320606, 0};
Point(p16 + 15) = {19.03613880250913, 1.872945197490869, 0};
Point(p16 + 16) = {18.90608638967939, 1.720673386357283, 0};
Point(p16 + 17) = {18.80145569717659, 1.549931614271123, 0};
Point(p16 + 18) = {18.72482307989949, 1.364924110320606, 0};
Point(p16 + 19) = {18.67807548721454, 1.170206373257696, 0};
Point(p16 + 20) = {18.662364, 0.9705730000000001, 0};
Point(p16 + 21) = {18.67807548721454, 0.7709396267423048, 0};
Point(p16 + 22) = {18.72482307989949, 0.5762218896793936, 0};
Point(p16 + 23) = {18.80145569717659, 0.3912143857288773, 0};
Point(p16 + 24) = {18.90608638967939, 0.2204726136427175, 0};
Point(p16 + 25) = {19.03613880250913, 0.06820080250913108, 0};
Point(p16 + 26) = {19.18841061364272, -0.06185161032060582, 0};
Point(p16 + 27) = {19.35915238572888, -0.1664823028234129, 0};
Point(p16 + 28) = {19.54415988967939, -0.2431149201005113, 0};
Point(p16 + 29) = {19.7388776267423, -0.2898625127854629, 0};
Point(p16 + 30) = {19.938511, -0.3055739999999999, 0};
Point(p16 + 31) = {20.13814437325769, -0.2898625127854632, 0};
Point(p16 + 32) = {20.3328621103206, -0.2431149201005113, 0};
Point(p16 + 33) = {20.51786961427112, -0.1664823028234131, 0};
Point(p16 + 34) = {20.68861138635728, -0.06185161032060604, 0};
Point(p16 + 35) = {20.84088319749087, 0.06820080250913085, 0};
Point(p16 + 36) = {20.97093561032061, 0.2204726136427171, 0};
Point(p16 + 37) = {21.07556630282341, 0.3912143857288765, 0};
Point(p16 + 38) = {21.15219892010051, 0.5762218896793938, 0};
Point(p16 + 39) = {21.19894651278546, 0.7709396267423042, 0};
Spline(16) = {12, p16 + 1, p16 + 2, p16 + 3, p16 + 4, p16 + 5, p16 + 6, p16 + 7, p16 + 8, p16 + 9, p16 + 10, p16 + 11, p16 + 12, p16 + 13, p16 + 14, p16 + 15, p16 + 16, p16 + 17, p16 + 18, p16 + 19, p16 + 20, p16 + 21, p16 + 22, p16 + 23, p16 + 24, p16 + 25, p16 + 26, p16 + 27, p16 + 28, p16 + 29, p16 + 30, p16 + 31, p16 + 32, p16 + 33, p16 + 34, p16 + 35, p16 + 36, p16 + 37, p16 + 38, p16 + 39, 12};
Line(17) = {11, 8};
Line(18) = {12, 9};
Curve Loop(1) = {-1, 4, 3, -2};
Plane Surface(1) = {1};
Curve Loop(2) = {-5, 1, 7, -6};
Plane Surface(2) = {2};
Curve Loop(3) = {-2, 7, 9, -8, -10, -11};
Plane Surface(3) = {3};
Curve Loop(4) = {-12, 3, 8, -13};
Plane Surface(4) = {4};
Curve Loop(5) = {-4, 5, 14, -12, -15, -16};
Plane Surface(5) = {5};
Curve Loop(6) = {-6, 14, 13, -9};
Plane Surface(6) = {6};
Curve Loop(7) = {-10, -17, 15, 17};
Surface(7) = {7};
Curve Loop(8) = {-11, -18, 16, 18};
Surface(8) = {8};
Surface Loop(1) = {1, 2, 3, 4, 5, 6, 7, 8};
Volume(1) = {1};
Physical Surface("INFLOW") = {1};
Physical Surface("OUTFLOW") = {6};
Physical Surface("OBSTACLE") = {7, 8};
Physical Surface("WALL_Y") = {2, 4};
Physical Surface("WALL_Z") = {3, 5};
Physical Volume("FLUID") = {1};
