cl__1 = 3.917973;
cl__2 = 1.430267;
cl__3 = 1.274297;
cl__4 = 0.12074;
cl__5 = 0.120721;
Point(1) = {0.540994, -3.711812, 1, cl__1};
Point(2) = {0.540994, -3.711812, 0, cl__1};
Point(3) = {0.540994, 5.627969999999999, 1, cl__1};
Point(4) = {0.540994, 5.627969999999999, 0, cl__1};
Point(5) = {38.900431, -3.711812, 0, cl__2};
Point(6) = {38.900431, -3.711812, 1, cl__2};
Point(7) = {38.900431, 5.627969999999999, 1, cl__3};
Point(8) = {23.458243, 2.766058, 1, cl__4};
Point(9) = {26.333641, 3.417927, 1, cl__5};
Point(10) = {38.900431, 5.627969999999999, 0, cl__3};
Point(11) = {23.458243, 2.766058, 0, cl__4};
Point(12) = {26.333641, 3.417927, 0, cl__5};
Line(1) = {2, 1};
Line(2) = {1, 3};
Line(3) = {4, 3};
Line(4) = {2, 4};
Line(5) = {2, 5};
Line(6) = {5, 6};
Line(7) = {1, 6};
Line(8) = {3, 7};
Line(9) = {6, 7};
p10 = newp;
Point(p10 + 1) = {23.44337791474623, 2.95493681665511, 1};
Point(p10 + 2) = {23.39914868671825, 3.139164809991317, 1};
Point(p10 + 3) = {23.32664438629851, 3.314205675395029, 1};
Point(p10 + 4) = {23.22765030999132, 3.47574932583268, 1};
Point(p10 + 5) = {23.10460402049786, 3.619818020497856, 1};
Point(p10 + 6) = {22.96053532583268, 3.742864309991317, 1};
Point(p10 + 7) = {22.79899167539503, 3.841858386298511, 1};
Point(p10 + 8) = {22.62395080999132, 3.914362686718252, 1};
Point(p10 + 9) = {22.43972281665511, 3.958591914746229, 1};
Point(p10 + 10) = {22.250844, 3.973457, 1};
Point(p10 + 11) = {22.06196518334489, 3.958591914746229, 1};
Point(p10 + 12) = {21.87773719000868, 3.914362686718252, 1};
Point(p10 + 13) = {21.70269632460497, 3.841858386298511, 1};
Point(p10 + 14) = {21.54115267416732, 3.742864309991317, 1};
Point(p10 + 15) = {21.39708397950215, 3.619818020497856, 1};
Point(p10 + 16) = {21.27403769000868, 3.47574932583268, 1};
Point(p10 + 17) = {21.17504361370149, 3.314205675395029, 1};
Point(p10 + 18) = {21.10253931328175, 3.139164809991317, 1};
Point(p10 + 19) = {21.05831008525377, 2.95493681665511, 1};
Point(p10 + 20) = {21.043445, 2.766058, 1};
Point(p10 + 21) = {21.05831008525377, 2.57717918334489, 1};
Point(p10 + 22) = {21.10253931328175, 2.392951190008683, 1};
Point(p10 + 23) = {21.17504361370149, 2.217910324604972, 1};
Point(p10 + 24) = {21.27403769000868, 2.056366674167321, 1};
Point(p10 + 25) = {21.39708397950215, 1.912297979502144, 1};
Point(p10 + 26) = {21.54115267416732, 1.789251690008683, 1};
Point(p10 + 27) = {21.70269632460497, 1.690257613701489, 1};
Point(p10 + 28) = {21.87773719000868, 1.617753313281748, 1};
Point(p10 + 29) = {22.06196518334489, 1.573524085253772, 1};
Point(p10 + 30) = {22.250844, 1.558659, 1};
Point(p10 + 31) = {22.43972281665511, 1.573524085253772, 1};
Point(p10 + 32) = {22.62395080999132, 1.617753313281748, 1};
Point(p10 + 33) = {22.79899167539503, 1.690257613701489, 1};
Point(p10 + 34) = {22.96053532583268, 1.789251690008683, 1};
Point(p10 + 35) = {23.10460402049786, 1.912297979502144, 1};
Point(p10 + 36) = {23.22765030999132, 2.05636667416732, 1};
Point(p10 + 37) = {23.32664438629851, 2.217910324604971, 1};
Point(p10 + 38) = {23.39914868671825, 2.392951190008683, 1};
Point(p10 + 39) = {23.44337791474623, 2.57717918334489, 1};
Spline(10) = {8, p10 + 1, p10 + 2, p10 + 3, p10 + 4, p10 + 5, p10 + 6, p10 + 7, p10 + 8, p10 + 9, p10 + 10, p10 + 11, p10 + 12, p10 + 13, p10 + 14, p10 + 15, p10 + 16, p10 + 17, p10 + 18, p10 + 19, p10 + 20, p10 + 21, p10 + 22, p10 + 23, p10 + 24, p10 + 25, p10 + 26, p10 + 27, p10 + 28, p10 + 29, p10 + 30, p10 + 31, p10 + 32, p10 + 33, p10 + 34, p10 + 35, p10 + 36, p10 + 37, p10 + 38, p10 + 39, 8};
p11 = newp;
Point(p11 + 1) = {26.31877825396152, 3.606776094106752, 1};
Point(p11 + 2) = {26.27455598598016, 3.790975096762386, 1};
Point(p11 + 3) = {26.20206309505892, 3.965988417200079, 1};
Point(p11 + 4) = {26.10308459676239, 4.127506646634744, 1};
Point(p11 + 5) = {25.98005767020943, 4.271552670209431, 1};
Point(p11 + 6) = {25.83601164663474, 4.394579596762386, 1};
Point(p11 + 7) = {25.67449341720008, 4.493558095058916, 1};
Point(p11 + 8) = {25.49948009676239, 4.566050985980156, 1};
Point(p11 + 9) = {25.31528109410675, 4.610273253961516, 1};
Point(p11 + 10) = {25.126432, 4.625136, 1};
Point(p11 + 11) = {24.93758290589325, 4.610273253961516, 1};
Point(p11 + 12) = {24.75338390323762, 4.566050985980157, 1};
Point(p11 + 13) = {24.57837058279992, 4.493558095058916, 1};
Point(p11 + 14) = {24.41685235336526, 4.394579596762386, 1};
Point(p11 + 15) = {24.27280632979057, 4.271552670209431, 1};
Point(p11 + 16) = {24.14977940323762, 4.127506646634744, 1};
Point(p11 + 17) = {24.05080090494108, 3.965988417200079, 1};
Point(p11 + 18) = {23.97830801401985, 3.790975096762386, 1};
Point(p11 + 19) = {23.93408574603848, 3.606776094106752, 1};
Point(p11 + 20) = {23.919223, 3.417927, 1};
Point(p11 + 21) = {23.93408574603848, 3.229077905893248, 1};
Point(p11 + 22) = {23.97830801401985, 3.044878903237614, 1};
Point(p11 + 23) = {24.05080090494108, 2.869865582799922, 1};
Point(p11 + 24) = {24.14977940323762, 2.708347353365256, 1};
Point(p11 + 25) = {24.27280632979057, 2.564301329790569, 1};
Point(p11 + 26) = {24.41685235336526, 2.441274403237614, 1};
Point(p11 + 27) = {24.57837058279992, 2.342295904941085, 1};
Point(p11 + 28) = {24.75338390323762, 2.269803014019844, 1};
Point(p11 + 29) = {24.93758290589325, 2.225580746038485, 1};
Point(p11 + 30) = {25.126432, 2.210718, 1};
Point(p11 + 31) = {25.31528109410675, 2.225580746038484, 1};
Point(p11 + 32) = {25.49948009676239, 2.269803014019844, 1};
Point(p11 + 33) = {25.67449341720008, 2.342295904941085, 1};
Point(p11 + 34) = {25.83601164663474, 2.441274403237614, 1};
Point(p11 + 35) = {25.98005767020943, 2.564301329790569, 1};
Point(p11 + 36) = {26.10308459676239, 2.708347353365256, 1};
Point(p11 + 37) = {26.20206309505892, 2.869865582799922, 1};
Point(p11 + 38) = {26.27455598598016, 3.044878903237614, 1};
Point(p11 + 39) = {26.31877825396152, 3.229077905893248, 1};
Spline(11) = {9, p11 + 1, p11 + 2, p11 + 3, p11 + 4, p11 + 5, p11 + 6, p11 + 7, p11 + 8, p11 + 9, p11 + 10, p11 + 11, p11 + 12, p11 + 13, p11 + 14, p11 + 15, p11 + 16, p11 + 17, p11 + 18, p11 + 19, p11 + 20, p11 + 21, p11 + 22, p11 + 23, p11 + 24, p11 + 25, p11 + 26, p11 + 27, p11 + 28, p11 + 29, p11 + 30, p11 + 31, p11 + 32, p11 + 33, p11 + 34, p11 + 35, p11 + 36, p11 + 37, p11 + 38, p11 + 39, 9};
Line(12) = {4, 10};
Line(13) = {10, 7};
Line(14) = {5, 10};
p15 = newp;
Point(p15 + 1) = {23.44337791474623, 2.95493681665511, 0};
Point(p15 + 2) = {23.39914868671825, 3.139164809991317, 0};
Point(p15 + 3) = {23.32664438629851, 3.314205675395029, 0};
Point(p15 + 4) = {23.22765030999132, 3.47574932583268, 0};
Point(p15 + 5) = {23.10460402049786, 3.619818020497856, 0};
Point(p15 + 6) = {22.96053532583268, 3.742864309991317, 0};
Point(p15 + 7) = {22.79899167539503, 3.841858386298511, 0};
Point(p15 + 8) = {22.62395080999132, 3.914362686718252, 0};
Point(p15 + 9) = {22.43972281665511, 3.958591914746229, 0};
Point(p15 + 10) = {22.250844, 3.973457, 0};
Point(p15 + 11) = {22.06196518334489, 3.958591914746229, 0};
Point(p15 + 12) = {21.87773719000868, 3.914362686718252, 0};
Point(p15 + 13) = {21.70269632460497, 3.841858386298511, 0};
Point(p15 + 14) = {21.54115267416732, 3.742864309991317, 0};
Point(p15 + 15) = {21.39708397950215, 3.619818020497856, 0};
Point(p15 + 16) = {21.27403769000868, 3.47574932583268, 0};
Point(p15 + 17) = {21.17504361370149, 3.314205675395029, 0};
Point(p15 + 18) = {21.10253931328175, 3.139164809991317, 0};
Point(p15 + 19) = {21.05831008525377, 2.95493681665511, 0};
Point(p15 + 20) = {21.043445, 2.766058, 0};
Point(p15 + 21) = {21.05831008525377, 2.57717918334489, 0};
Point(p15 + 22) = {21.10253931328175, 2.392951190008683, 0};
Point(p15 + 23) = {21.17504361370149, 2.217910324604972, 0};
Point(p15 + 24) = {21.27403769000868, 2.056366674167321, 0};
Point(p15 + 25) = {21.39708397950215, 1.912297979502144, 0};
Point(p15 + 26) = {21.54115267416732, 1.789251690008683, 0};
Point(p15 + 27) = {21.70269632460497, 1.690257613701489, 0};
Point(p15 + 28) = {21.87773719000868, 1.617753313281748, 0};
Point(p15 + 29) = {22.06196518334489, 1.573524085253772, 0};
Point(p15 + 30) = {22.250844, 1.558659, 0};
Point(p15 + 31) = {22.43972281665511, 1.573524085253772, 0};
Point(p15 + 32) = {22.62395080999132, 1.617753313281748, 0};
Point(p15 + 33) = {22.79899167539503, 1.690257613701489, 0};
Point(p15 + 34) = {22.96053532583268, 1.789251690008683, 0};
Point(p15 + 35) = {23.10460402049786, 1.912297979502144, 0};
Point(p15 + 36) = {23.22765030999132, 2.05636667416732, 0};
Point(p15 + 37) = {23.32664438629851, 2.217910324604971, 0};
Point(p15 + 38) = {23.39914868671825, 2.392951190008683, 0};
Point(p15 + 39) = {23.44337791474623, 2.57717918334489, 0};
Spline(15) = {11, p15 + 1, p15 + 2, p15 + 3, p15 + 4, p15 + 5, p15 + 6, p15 + 7, p15 + 8, p15 + 9, p15 + 10, p15 + 11, p15 + 12, p15 + 13, p15 + 14, p15 + 15, p15 + 16, p15 + 17, p15 + 18, p15 + 19, p15 + 20, p15 + 21, p15 + 22, p15 + 23, p15 + 24, p15 + 25, p15 + 26, p15 + 27, p15 + 28, p15 + 29, p15 + 30, p15 + 31, p15 + 32, p15 + 33, p15 + 34, p15 + 35, p15 + 36, p15 + 37, p15 + 38, p15 + 39, 11};
p16 = newp;
Point(p16 + 1) = {26.31877825396152, 3.606776094106752, 0};
Point(p16 + 2) = {26.27455598598016, 3.790975096762386, 0};
Point(p16 + 3) = {26.20206309505892, 3.965988417200079, 0};
Point(p16 + 4) = {26.10308459676239, 4.127506646634744, 0};
Point(p16 + 5) = {25.98005767020943, 4.271552670209431, 0};
Point(p16 + 6) = {25.83601164663474, 4.394579596762386, 0};
Point(p16 + 7) = {25.67449341720008, 4.493558095058916, 0};
Point(p16 + 8) = {25.49948009676239, 4.566050985980156, 0};
Point(p16 + 9) = {25.31528109410675, 4.610273253961516, 0};
Point(p16 + 10) = {25.126432, 4.625136, 0};
Point(p16 + 11) = {24.93758290589325, 4.610273253961516, 0};
Point(p16 + 12) = {24.75338390323762, 4.566050985980157, 0};
Point(p16 + 13) = {24.57837058279992, 4.493558095058916, 0};
Point(p16 + 14) = {24.41685235336526, 4.394579596762386, 0};
Point(p16 + 15) = {24.27280632979057, 4.271552670209431, 0};
Point(p16 + 16) = {24.14977940323762, 4.127506646634744, 0};
Point(p16 + 17) = {24.05080090494108, 3.965988417200079, 0};
Point(p16 + 18) = {23.97830801401985, 3.790975096762386, 0};
Point(p16 + 19) = {23.93408574603848, 3.606776094106752, 0};
Point(p16 + 20) = {23.919223, 3.417927, 0};
Point(p16 + 21) = {23.93408574603848, 3.229077905893248, 0};
Point(p16 + 22) = {23.97830801401985, 3.044878903237614, 0};
Point(p16 + 23) = {24.05080090494108, 2.869865582799922, 0};
Point(p16 + 24) = {24.14977940323762, 2.708347353365256, 0};
Point(p16 + 25) = {24.27280632979057, 2.564301329790569, 0};
Point(p16 + 26) = {24.41685235336526, 2.441274403237614, 0};
Point(p16 + 27) = {24.57837058279992, 2.342295904941085, 0};
Point(p16 + 28) = {24.75338390323762, 2.269803014019844, 0};
Point(p16 + 29) = {24.93758290589325, 2.225580746038485, 0};
Point(p16 + 30) = {25.126432, 2.210718, 0};
Point(p16 + 31) = {25.31528109410675, 2.225580746038484, 0};
Point(p16 + 32) = {25.49948009676239, 2.269803014019844, 0};
Point(p16 + 33) = {25.67449341720008, 2.342295904941085, 0};
Point(p16 + 34) = {25.83601164663474, 2.441274403237614, 0};
Point(p16 + 35) = {25.98005767020943, 2.564301329790569, 0};
Point(p16 + 36) = {26.10308459676239, 2.708347353365256, 0};
Point(p16 + 37) = {26.20206309505892, 2.869865582799922, 0};
Point(p16 + 38) = {26.27455598598016, 3.044878903237614, 0};
Point(p16 + 39) = {26.31877825396152, 3.229077905893248, 0};
Spline(16) = {12, p16 + 1, p16 + 2, p16 + 3, p16 + 4, p16 + 5, p16 + 6, p16 + 7, p16 + 8, p16 + 9, p16 + 10, p16 + 11, p16 + 12, p16 + 13, p16 + 14, p16 + 15, p16 + 16, p16 + 17, p16 + 18, p16 + 19, p16 + 20, p16 + 21, p16 + 22, p16 + 23, p16 + 24, p16 + 25, p16 + 26, p16 + 27, p16 + 28, p16 + 29, p16 + 30, p16 + 31, p16 + 32, p16 + 33, p16 + 34, p16 + 35, p16 + 36, p16 + 37, p16 + 38, p16 + 39, 12};
Line(17) = {11, 8};
Line(18) = {12, 9};
Curve Loop(1) = {-1, 4, 3, -2};
Plane Surface(1) = {1};
Curve Loop(2) = {-5, 1, 7, -6};
Plane Surface(2) = {2};
Curve Loop(3) = {-2, 7, 9, -8, -10, -11};
Plane Surface(3) = {3};
Curve Loop(4) = {-12, 3, 8, -13};
Plane Surface(4) = {4};
Curve Loop(5) = {-4, 5, 14, -12, -15, -16};
Plane Surface(5) = {5};
Curve Loop(6) = {-6, 14, 13, -9};
Plane Surface(6) = {6};
Curve Loop(7) = {-10, -17, 15, 17};
Surface(7) = {7};
Curve Loop(8) = {-11, -18, 16, 18};
Surface(8) = {8};
Surface Loop(1) = {1, 2, 3, 4, 5, 6, 7, 8};
Volume(1) = {1};
Physical Surface("INFLOW") = {1};
Physical Surface("OUTFLOW") = {6};
Physical Surface("OBSTACLE") = {7, 8};
Physical Surface("WALL_Y") = {2, 4};
Physical Surface("WALL_Z") = {3, 5};
Physical Volume("FLUID") = {1};
