cl__1 = 3.910563;
cl__2 = 0.141921;
cl__3 = 0.6402369999999999;
cl__4 = 0.053117;
cl__5 = 0.109519;
Point(1) = {0.685493, -3.392459, 1, cl__1};
Point(2) = {0.685493, -3.392459, 0, cl__1};
Point(3) = {0.685493, 4.991529999999999, 1, cl__1};
Point(4) = {0.685493, 4.991529999999999, 0, cl__1};
Point(5) = {38.880294, -3.392459, 0, cl__2};
Point(6) = {38.880294, -3.392459, 1, cl__2};
Point(7) = {38.880294, 4.991529999999999, 1, cl__3};
Point(8) = {38.230024, -1.840621, 1, cl__4};
Point(9) = {23.295126, -0.9258750000000002, 1, cl__5};
Point(10) = {38.880294, 4.991529999999999, 0, cl__3};
Point(11) = {38.230024, -1.840621, 0, cl__4};
Point(12) = {23.295126, -0.9258750000000002, 0, cl__5};
Line(1) = {2, 1};
Line(2) = {1, 3};
Line(3) = {4, 3};
Line(4) = {2, 4};
Line(5) = {2, 5};
Line(6) = {5, 6};
Line(7) = {1, 6};
Line(8) = {3, 7};
Line(9) = {6, 7};
p10 = newp;
Point(p10 + 1) = {38.22348437893894, -1.757527235901186, 1};
Point(p10 + 2) = {38.20402654293004, -1.676479516046876, 1};
Point(p10 + 3) = {38.17212960847271, -1.599473504281846, 1};
Point(p10 + 4) = {38.12857898395312, -1.52840534418405, 1};
Point(p10 + 5) = {38.0744470302832, -1.465024969716798, 1};
Point(p10 + 6) = {38.01106665581595, -1.410893016046876, 1};
Point(p10 + 7) = {37.93999849571815, -1.367342391527292, 1};
Point(p10 + 8) = {37.86299248395312, -1.335445457069954, 1};
Point(p10 + 9) = {37.78194476409881, -1.315987621061059, 1};
Point(p10 + 10) = {37.698851, -1.309448, 1};
Point(p10 + 11) = {37.61575723590119, -1.315987621061059, 1};
Point(p10 + 12) = {37.53470951604687, -1.335445457069954, 1};
Point(p10 + 13) = {37.45770350428185, -1.367342391527292, 1};
Point(p10 + 14) = {37.38663534418405, -1.410893016046876, 1};
Point(p10 + 15) = {37.32325496971679, -1.465024969716798, 1};
Point(p10 + 16) = {37.26912301604688, -1.52840534418405, 1};
Point(p10 + 17) = {37.22557239152729, -1.599473504281846, 1};
Point(p10 + 18) = {37.19367545706995, -1.676479516046876, 1};
Point(p10 + 19) = {37.17421762106105, -1.757527235901186, 1};
Point(p10 + 20) = {37.167678, -1.840621, 1};
Point(p10 + 21) = {37.17421762106105, -1.923714764098815, 1};
Point(p10 + 22) = {37.19367545706995, -2.004762483953124, 1};
Point(p10 + 23) = {37.22557239152729, -2.081768495718154, 1};
Point(p10 + 24) = {37.26912301604688, -2.15283665581595, 1};
Point(p10 + 25) = {37.32325496971679, -2.216217030283202, 1};
Point(p10 + 26) = {37.38663534418405, -2.270348983953124, 1};
Point(p10 + 27) = {37.45770350428185, -2.313899608472708, 1};
Point(p10 + 28) = {37.53470951604687, -2.345796542930046, 1};
Point(p10 + 29) = {37.61575723590119, -2.365254378938941, 1};
Point(p10 + 30) = {37.698851, -2.371794, 1};
Point(p10 + 31) = {37.78194476409881, -2.365254378938941, 1};
Point(p10 + 32) = {37.86299248395312, -2.345796542930046, 1};
Point(p10 + 33) = {37.93999849571815, -2.313899608472708, 1};
Point(p10 + 34) = {38.01106665581595, -2.270348983953124, 1};
Point(p10 + 35) = {38.0744470302832, -2.216217030283202, 1};
Point(p10 + 36) = {38.12857898395312, -2.15283665581595, 1};
Point(p10 + 37) = {38.17212960847271, -2.081768495718154, 1};
Point(p10 + 38) = {38.20402654293004, -2.004762483953124, 1};
Point(p10 + 39) = {38.22348437893894, -1.923714764098815, 1};
Spline(10) = {8, p10 + 1, p10 + 2, p10 + 3, p10 + 4, p10 + 5, p10 + 6, p10 + 7, p10 + 8, p10 + 9, p10 + 10, p10 + 11, p10 + 12, p10 + 13, p10 + 14, p10 + 15, p10 + 16, p10 + 17, p10 + 18, p10 + 19, p10 + 20, p10 + 21, p10 + 22, p10 + 23, p10 + 24, p10 + 25, p10 + 26, p10 + 27, p10 + 28, p10 + 29, p10 + 30, p10 + 31, p10 + 32, p10 + 33, p10 + 34, p10 + 35, p10 + 36, p10 + 37, p10 + 38, p10 + 39, 8};
p11 = newp;
Point(p11 + 1) = {23.28164236911307, -0.7545492253636594, 1};
Point(p11 + 2) = {23.24152348819432, -0.5874420598965127, 1};
Point(p11 + 3) = {23.17575721723891, -0.4286682366092464, 1};
Point(p11 + 4) = {23.08596294010349, -0.2821372939713018, 1};
Point(p11 + 5) = {22.97435168990125, -0.1514573100987427, 1};
Point(p11 + 6) = {22.8436717060287, -0.03984605989651258, 1};
Point(p11 + 7) = {22.69714076339075, 0.04994821723890686, 1};
Point(p11 + 8) = {22.53836694010349, 0.1157144881943217, 1};
Point(p11 + 9) = {22.37125977463634, 0.15583336911307, 1};
Point(p11 + 10) = {22.199934, 0.1693169999999999, 1};
Point(p11 + 11) = {22.02860822536366, 0.15583336911307, 1};
Point(p11 + 12) = {21.86150105989651, 0.115714488194322, 1};
Point(p11 + 13) = {21.70272723660925, 0.04994821723890697, 1};
Point(p11 + 14) = {21.5561962939713, -0.03984605989651258, 1};
Point(p11 + 15) = {21.42551631009874, -0.1514573100987426, 1};
Point(p11 + 16) = {21.31390505989651, -0.2821372939713017, 1};
Point(p11 + 17) = {21.22411078276109, -0.4286682366092462, 1};
Point(p11 + 18) = {21.15834451180568, -0.5874420598965124, 1};
Point(p11 + 19) = {21.11822563088693, -0.7545492253636594, 1};
Point(p11 + 20) = {21.104742, -0.9258749999999999, 1};
Point(p11 + 21) = {21.11822563088693, -1.09720077463634, 1};
Point(p11 + 22) = {21.15834451180568, -1.264307940103488, 1};
Point(p11 + 23) = {21.22411078276109, -1.423081763390753, 1};
Point(p11 + 24) = {21.31390505989651, -1.569612706028698, 1};
Point(p11 + 25) = {21.42551631009874, -1.700292689901257, 1};
Point(p11 + 26) = {21.5561962939713, -1.811903940103487, 1};
Point(p11 + 27) = {21.70272723660925, -1.901698217238907, 1};
Point(p11 + 28) = {21.86150105989651, -1.967464488194322, 1};
Point(p11 + 29) = {22.02860822536366, -2.00758336911307, 1};
Point(p11 + 30) = {22.199934, -2.021067, 1};
Point(p11 + 31) = {22.37125977463634, -2.00758336911307, 1};
Point(p11 + 32) = {22.53836694010349, -1.967464488194322, 1};
Point(p11 + 33) = {22.69714076339075, -1.901698217238907, 1};
Point(p11 + 34) = {22.8436717060287, -1.811903940103488, 1};
Point(p11 + 35) = {22.97435168990125, -1.700292689901258, 1};
Point(p11 + 36) = {23.08596294010349, -1.569612706028698, 1};
Point(p11 + 37) = {23.17575721723891, -1.423081763390754, 1};
Point(p11 + 38) = {23.24152348819432, -1.264307940103488, 1};
Point(p11 + 39) = {23.28164236911307, -1.097200774636341, 1};
Spline(11) = {9, p11 + 1, p11 + 2, p11 + 3, p11 + 4, p11 + 5, p11 + 6, p11 + 7, p11 + 8, p11 + 9, p11 + 10, p11 + 11, p11 + 12, p11 + 13, p11 + 14, p11 + 15, p11 + 16, p11 + 17, p11 + 18, p11 + 19, p11 + 20, p11 + 21, p11 + 22, p11 + 23, p11 + 24, p11 + 25, p11 + 26, p11 + 27, p11 + 28, p11 + 29, p11 + 30, p11 + 31, p11 + 32, p11 + 33, p11 + 34, p11 + 35, p11 + 36, p11 + 37, p11 + 38, p11 + 39, 9};
Line(12) = {4, 10};
Line(13) = {10, 7};
Line(14) = {5, 10};
p15 = newp;
Point(p15 + 1) = {38.22348437893894, -1.757527235901186, 0};
Point(p15 + 2) = {38.20402654293004, -1.676479516046876, 0};
Point(p15 + 3) = {38.17212960847271, -1.599473504281846, 0};
Point(p15 + 4) = {38.12857898395312, -1.52840534418405, 0};
Point(p15 + 5) = {38.0744470302832, -1.465024969716798, 0};
Point(p15 + 6) = {38.01106665581595, -1.410893016046876, 0};
Point(p15 + 7) = {37.93999849571815, -1.367342391527292, 0};
Point(p15 + 8) = {37.86299248395312, -1.335445457069954, 0};
Point(p15 + 9) = {37.78194476409881, -1.315987621061059, 0};
Point(p15 + 10) = {37.698851, -1.309448, 0};
Point(p15 + 11) = {37.61575723590119, -1.315987621061059, 0};
Point(p15 + 12) = {37.53470951604687, -1.335445457069954, 0};
Point(p15 + 13) = {37.45770350428185, -1.367342391527292, 0};
Point(p15 + 14) = {37.38663534418405, -1.410893016046876, 0};
Point(p15 + 15) = {37.32325496971679, -1.465024969716798, 0};
Point(p15 + 16) = {37.26912301604688, -1.52840534418405, 0};
Point(p15 + 17) = {37.22557239152729, -1.599473504281846, 0};
Point(p15 + 18) = {37.19367545706995, -1.676479516046876, 0};
Point(p15 + 19) = {37.17421762106105, -1.757527235901186, 0};
Point(p15 + 20) = {37.167678, -1.840621, 0};
Point(p15 + 21) = {37.17421762106105, -1.923714764098815, 0};
Point(p15 + 22) = {37.19367545706995, -2.004762483953124, 0};
Point(p15 + 23) = {37.22557239152729, -2.081768495718154, 0};
Point(p15 + 24) = {37.26912301604688, -2.15283665581595, 0};
Point(p15 + 25) = {37.32325496971679, -2.216217030283202, 0};
Point(p15 + 26) = {37.38663534418405, -2.270348983953124, 0};
Point(p15 + 27) = {37.45770350428185, -2.313899608472708, 0};
Point(p15 + 28) = {37.53470951604687, -2.345796542930046, 0};
Point(p15 + 29) = {37.61575723590119, -2.365254378938941, 0};
Point(p15 + 30) = {37.698851, -2.371794, 0};
Point(p15 + 31) = {37.78194476409881, -2.365254378938941, 0};
Point(p15 + 32) = {37.86299248395312, -2.345796542930046, 0};
Point(p15 + 33) = {37.93999849571815, -2.313899608472708, 0};
Point(p15 + 34) = {38.01106665581595, -2.270348983953124, 0};
Point(p15 + 35) = {38.0744470302832, -2.216217030283202, 0};
Point(p15 + 36) = {38.12857898395312, -2.15283665581595, 0};
Point(p15 + 37) = {38.17212960847271, -2.081768495718154, 0};
Point(p15 + 38) = {38.20402654293004, -2.004762483953124, 0};
Point(p15 + 39) = {38.22348437893894, -1.923714764098815, 0};
Spline(15) = {11, p15 + 1, p15 + 2, p15 + 3, p15 + 4, p15 + 5, p15 + 6, p15 + 7, p15 + 8, p15 + 9, p15 + 10, p15 + 11, p15 + 12, p15 + 13, p15 + 14, p15 + 15, p15 + 16, p15 + 17, p15 + 18, p15 + 19, p15 + 20, p15 + 21, p15 + 22, p15 + 23, p15 + 24, p15 + 25, p15 + 26, p15 + 27, p15 + 28, p15 + 29, p15 + 30, p15 + 31, p15 + 32, p15 + 33, p15 + 34, p15 + 35, p15 + 36, p15 + 37, p15 + 38, p15 + 39, 11};
p16 = newp;
Point(p16 + 1) = {23.28164236911307, -0.7545492253636594, 0};
Point(p16 + 2) = {23.24152348819432, -0.5874420598965127, 0};
Point(p16 + 3) = {23.17575721723891, -0.4286682366092464, 0};
Point(p16 + 4) = {23.08596294010349, -0.2821372939713018, 0};
Point(p16 + 5) = {22.97435168990125, -0.1514573100987427, 0};
Point(p16 + 6) = {22.8436717060287, -0.03984605989651258, 0};
Point(p16 + 7) = {22.69714076339075, 0.04994821723890686, 0};
Point(p16 + 8) = {22.53836694010349, 0.1157144881943217, 0};
Point(p16 + 9) = {22.37125977463634, 0.15583336911307, 0};
Point(p16 + 10) = {22.199934, 0.1693169999999999, 0};
Point(p16 + 11) = {22.02860822536366, 0.15583336911307, 0};
Point(p16 + 12) = {21.86150105989651, 0.115714488194322, 0};
Point(p16 + 13) = {21.70272723660925, 0.04994821723890697, 0};
Point(p16 + 14) = {21.5561962939713, -0.03984605989651258, 0};
Point(p16 + 15) = {21.42551631009874, -0.1514573100987426, 0};
Point(p16 + 16) = {21.31390505989651, -0.2821372939713017, 0};
Point(p16 + 17) = {21.22411078276109, -0.4286682366092462, 0};
Point(p16 + 18) = {21.15834451180568, -0.5874420598965124, 0};
Point(p16 + 19) = {21.11822563088693, -0.7545492253636594, 0};
Point(p16 + 20) = {21.104742, -0.9258749999999999, 0};
Point(p16 + 21) = {21.11822563088693, -1.09720077463634, 0};
Point(p16 + 22) = {21.15834451180568, -1.264307940103488, 0};
Point(p16 + 23) = {21.22411078276109, -1.423081763390753, 0};
Point(p16 + 24) = {21.31390505989651, -1.569612706028698, 0};
Point(p16 + 25) = {21.42551631009874, -1.700292689901257, 0};
Point(p16 + 26) = {21.5561962939713, -1.811903940103487, 0};
Point(p16 + 27) = {21.70272723660925, -1.901698217238907, 0};
Point(p16 + 28) = {21.86150105989651, -1.967464488194322, 0};
Point(p16 + 29) = {22.02860822536366, -2.00758336911307, 0};
Point(p16 + 30) = {22.199934, -2.021067, 0};
Point(p16 + 31) = {22.37125977463634, -2.00758336911307, 0};
Point(p16 + 32) = {22.53836694010349, -1.967464488194322, 0};
Point(p16 + 33) = {22.69714076339075, -1.901698217238907, 0};
Point(p16 + 34) = {22.8436717060287, -1.811903940103488, 0};
Point(p16 + 35) = {22.97435168990125, -1.700292689901258, 0};
Point(p16 + 36) = {23.08596294010349, -1.569612706028698, 0};
Point(p16 + 37) = {23.17575721723891, -1.423081763390754, 0};
Point(p16 + 38) = {23.24152348819432, -1.264307940103488, 0};
Point(p16 + 39) = {23.28164236911307, -1.097200774636341, 0};
Spline(16) = {12, p16 + 1, p16 + 2, p16 + 3, p16 + 4, p16 + 5, p16 + 6, p16 + 7, p16 + 8, p16 + 9, p16 + 10, p16 + 11, p16 + 12, p16 + 13, p16 + 14, p16 + 15, p16 + 16, p16 + 17, p16 + 18, p16 + 19, p16 + 20, p16 + 21, p16 + 22, p16 + 23, p16 + 24, p16 + 25, p16 + 26, p16 + 27, p16 + 28, p16 + 29, p16 + 30, p16 + 31, p16 + 32, p16 + 33, p16 + 34, p16 + 35, p16 + 36, p16 + 37, p16 + 38, p16 + 39, 12};
Line(17) = {11, 8};
Line(18) = {12, 9};
Curve Loop(1) = {-1, 4, 3, -2};
Plane Surface(1) = {1};
Curve Loop(2) = {-5, 1, 7, -6};
Plane Surface(2) = {2};
Curve Loop(3) = {-2, 7, 9, -8, -10, -11};
Plane Surface(3) = {3};
Curve Loop(4) = {-12, 3, 8, -13};
Plane Surface(4) = {4};
Curve Loop(5) = {-4, 5, 14, -12, -15, -16};
Plane Surface(5) = {5};
Curve Loop(6) = {-6, 14, 13, -9};
Plane Surface(6) = {6};
Curve Loop(7) = {-10, -17, 15, 17};
Surface(7) = {7};
Curve Loop(8) = {-11, -18, 16, 18};
Surface(8) = {8};
Surface Loop(1) = {1, 2, 3, 4, 5, 6, 7, 8};
Volume(1) = {1};
Physical Surface("INFLOW") = {1};
Physical Surface("OUTFLOW") = {6};
Physical Surface("OBSTACLE") = {7, 8};
Physical Surface("WALL_Y") = {2, 4};
Physical Surface("WALL_Z") = {3, 5};
Physical Volume("FLUID") = {1};
