cl__1 = 2.028047;
cl__2 = 1.996432;
cl__3 = 0.735237;
cl__4 = 0.739808;
cl__5 = 0.125816;
cl__6 = 0.09254999999999999;
Point(1) = {0.276269, -3.846865, 1, cl__1};
Point(2) = {0.276269, -3.846865, 0, cl__1};
Point(3) = {0.276269, 3.867166999999999, 1, cl__2};
Point(4) = {0.276269, 3.867166999999999, 0, cl__2};
Point(5) = {39.480626, -3.846865, 0, cl__3};
Point(6) = {39.480626, -3.846865, 1, cl__3};
Point(7) = {39.480626, 3.867166999999999, 1, cl__4};
Point(8) = {29.687163, -0.0881110000000003, 1, cl__5};
Point(9) = {19.610124, 0.2385329999999998, 1, cl__6};
Point(10) = {39.480626, 3.867166999999999, 0, cl__4};
Point(11) = {29.687163, -0.0881110000000003, 0, cl__5};
Point(12) = {19.610124, 0.2385329999999998, 0, cl__6};
Line(1) = {2, 1};
Line(2) = {1, 3};
Line(3) = {4, 3};
Line(4) = {2, 4};
Line(5) = {2, 5};
Line(6) = {5, 6};
Line(7) = {1, 6};
Line(8) = {3, 7};
Line(9) = {6, 7};
p10 = newp;
Point(p10 + 1) = {29.67167290104488, 0.1087093687073421, 1};
Point(p10 + 2) = {29.62558402182449, 0.3006833667277557, 1};
Point(p10 + 3) = {29.55003122350546, 0.4830839571048068, 1};
Point(p10 + 4) = {29.44687486672776, 0.6514198319505595, 1};
Point(p10 + 5) = {29.31865500335157, 0.8015460033515724, 1};
Point(p10 + 6) = {29.16852883195056, 0.9297658667277557, 1};
Point(p10 + 7) = {29.00019295710481, 1.032922223505458, 1};
Point(p10 + 8) = {28.81779236672775, 1.108475021824492, 1};
Point(p10 + 9) = {28.62581836870734, 1.154563901044881, 1};
Point(p10 + 10) = {28.428998, 1.170054, 1};
Point(p10 + 11) = {28.23217763129266, 1.154563901044881, 1};
Point(p10 + 12) = {28.04020363327225, 1.108475021824492, 1};
Point(p10 + 13) = {27.85780304289519, 1.032922223505458, 1};
Point(p10 + 14) = {27.68946716804944, 0.9297658667277557, 1};
Point(p10 + 15) = {27.53934099664843, 0.8015460033515727, 1};
Point(p10 + 16) = {27.41112113327225, 0.6514198319505595, 1};
Point(p10 + 17) = {27.30796477649454, 0.4830839571048069, 1};
Point(p10 + 18) = {27.23241197817551, 0.3006833667277558, 1};
Point(p10 + 19) = {27.18632309895512, 0.1087093687073422, 1};
Point(p10 + 20) = {27.170833, -0.08811099999999984, 1};
Point(p10 + 21) = {27.18632309895512, -0.2849313687073419, 1};
Point(p10 + 22) = {27.23241197817551, -0.4769053667277561, 1};
Point(p10 + 23) = {27.30796477649454, -0.6593059571048061, 1};
Point(p10 + 24) = {27.41112113327224, -0.8276418319505594, 1};
Point(p10 + 25) = {27.53934099664843, -0.9777680033515725, 1};
Point(p10 + 26) = {27.68946716804944, -1.105987866727756, 1};
Point(p10 + 27) = {27.85780304289519, -1.209144223505458, 1};
Point(p10 + 28) = {28.04020363327225, -1.284697021824492, 1};
Point(p10 + 29) = {28.23217763129266, -1.330785901044881, 1};
Point(p10 + 30) = {28.428998, -1.346276, 1};
Point(p10 + 31) = {28.62581836870734, -1.330785901044881, 1};
Point(p10 + 32) = {28.81779236672775, -1.284697021824492, 1};
Point(p10 + 33) = {29.00019295710481, -1.209144223505458, 1};
Point(p10 + 34) = {29.16852883195056, -1.105987866727756, 1};
Point(p10 + 35) = {29.31865500335157, -0.9777680033515728, 1};
Point(p10 + 36) = {29.44687486672775, -0.8276418319505596, 1};
Point(p10 + 37) = {29.55003122350546, -0.659305957104807, 1};
Point(p10 + 38) = {29.62558402182449, -0.476905366727756, 1};
Point(p10 + 39) = {29.67167290104488, -0.2849313687073424, 1};
Spline(10) = {8, p10 + 1, p10 + 2, p10 + 3, p10 + 4, p10 + 5, p10 + 6, p10 + 7, p10 + 8, p10 + 9, p10 + 10, p10 + 11, p10 + 12, p10 + 13, p10 + 14, p10 + 15, p10 + 16, p10 + 17, p10 + 18, p10 + 19, p10 + 20, p10 + 21, p10 + 22, p10 + 23, p10 + 24, p10 + 25, p10 + 26, p10 + 27, p10 + 28, p10 + 29, p10 + 30, p10 + 31, p10 + 32, p10 + 33, p10 + 34, p10 + 35, p10 + 36, p10 + 37, p10 + 38, p10 + 39, 8};
p11 = newp;
Point(p11 + 1) = {19.59872950997416, 0.3833137231325938, 1};
Point(p11 + 2) = {19.56482661005723, 0.5245294643619913, 1};
Point(p11 + 3) = {19.50925010216243, 0.6587030234709494, 1};
Point(p11 + 4) = {19.43336846436199, 0.7825306021376931, 1};
Point(p11 + 5) = {19.33905015441527, 0.8929631544152744, 1};
Point(p11 + 6) = {19.22861760213769, 0.9872814643619914, 1};
Point(p11 + 7) = {19.10479002347095, 1.063163102162431, 1};
Point(p11 + 8) = {18.97061646436199, 1.11873961005723, 1};
Point(p11 + 9) = {18.82940072313259, 1.152642509974162, 1};
Point(p11 + 10) = {18.68462, 1.164037, 1};
Point(p11 + 11) = {18.5398392768674, 1.152642509974162, 1};
Point(p11 + 12) = {18.39862353563801, 1.11873961005723, 1};
Point(p11 + 13) = {18.26444997652905, 1.063163102162431, 1};
Point(p11 + 14) = {18.14062239786231, 0.9872814643619914, 1};
Point(p11 + 15) = {18.03018984558473, 0.8929631544152745, 1};
Point(p11 + 16) = {17.93587153563801, 0.7825306021376931, 1};
Point(p11 + 17) = {17.85998989783757, 0.6587030234709496, 1};
Point(p11 + 18) = {17.80441338994277, 0.5245294643619914, 1};
Point(p11 + 19) = {17.77051049002583, 0.3833137231325939, 1};
Point(p11 + 20) = {17.759116, 0.2385330000000001, 1};
Point(p11 + 21) = {17.77051049002583, 0.09375227686740628, 1};
Point(p11 + 22) = {17.80441338994277, -0.04746346436199161, 1};
Point(p11 + 23) = {17.85998989783757, -0.181637023470949, 1};
Point(p11 + 24) = {17.93587153563801, -0.305464602137693, 1};
Point(p11 + 25) = {18.03018984558473, -0.4158971544152744, 1};
Point(p11 + 26) = {18.14062239786231, -0.5102154643619913, 1};
Point(p11 + 27) = {18.26444997652905, -0.5860971021624312, 1};
Point(p11 + 28) = {18.39862353563801, -0.6416736100572298, 1};
Point(p11 + 29) = {18.5398392768674, -0.6755765099741623, 1};
Point(p11 + 30) = {18.68462, -0.686971, 1};
Point(p11 + 31) = {18.82940072313259, -0.6755765099741624, 1};
Point(p11 + 32) = {18.97061646436199, -0.6416736100572299, 1};
Point(p11 + 33) = {19.10479002347095, -0.5860971021624313, 1};
Point(p11 + 34) = {19.22861760213769, -0.5102154643619915, 1};
Point(p11 + 35) = {19.33905015441527, -0.4158971544152746, 1};
Point(p11 + 36) = {19.43336846436199, -0.3054646021376932, 1};
Point(p11 + 37) = {19.50925010216243, -0.1816370234709497, 1};
Point(p11 + 38) = {19.56482661005723, -0.0474634643619915, 1};
Point(p11 + 39) = {19.59872950997416, 0.09375227686740595, 1};
Spline(11) = {9, p11 + 1, p11 + 2, p11 + 3, p11 + 4, p11 + 5, p11 + 6, p11 + 7, p11 + 8, p11 + 9, p11 + 10, p11 + 11, p11 + 12, p11 + 13, p11 + 14, p11 + 15, p11 + 16, p11 + 17, p11 + 18, p11 + 19, p11 + 20, p11 + 21, p11 + 22, p11 + 23, p11 + 24, p11 + 25, p11 + 26, p11 + 27, p11 + 28, p11 + 29, p11 + 30, p11 + 31, p11 + 32, p11 + 33, p11 + 34, p11 + 35, p11 + 36, p11 + 37, p11 + 38, p11 + 39, 9};
Line(12) = {4, 10};
Line(13) = {10, 7};
Line(14) = {5, 10};
p15 = newp;
Point(p15 + 1) = {29.67167290104488, 0.1087093687073421, 0};
Point(p15 + 2) = {29.62558402182449, 0.3006833667277557, 0};
Point(p15 + 3) = {29.55003122350546, 0.4830839571048068, 0};
Point(p15 + 4) = {29.44687486672776, 0.6514198319505595, 0};
Point(p15 + 5) = {29.31865500335157, 0.8015460033515724, 0};
Point(p15 + 6) = {29.16852883195056, 0.9297658667277557, 0};
Point(p15 + 7) = {29.00019295710481, 1.032922223505458, 0};
Point(p15 + 8) = {28.81779236672775, 1.108475021824492, 0};
Point(p15 + 9) = {28.62581836870734, 1.154563901044881, 0};
Point(p15 + 10) = {28.428998, 1.170054, 0};
Point(p15 + 11) = {28.23217763129266, 1.154563901044881, 0};
Point(p15 + 12) = {28.04020363327225, 1.108475021824492, 0};
Point(p15 + 13) = {27.85780304289519, 1.032922223505458, 0};
Point(p15 + 14) = {27.68946716804944, 0.9297658667277557, 0};
Point(p15 + 15) = {27.53934099664843, 0.8015460033515727, 0};
Point(p15 + 16) = {27.41112113327225, 0.6514198319505595, 0};
Point(p15 + 17) = {27.30796477649454, 0.4830839571048069, 0};
Point(p15 + 18) = {27.23241197817551, 0.3006833667277558, 0};
Point(p15 + 19) = {27.18632309895512, 0.1087093687073422, 0};
Point(p15 + 20) = {27.170833, -0.08811099999999984, 0};
Point(p15 + 21) = {27.18632309895512, -0.2849313687073419, 0};
Point(p15 + 22) = {27.23241197817551, -0.4769053667277561, 0};
Point(p15 + 23) = {27.30796477649454, -0.6593059571048061, 0};
Point(p15 + 24) = {27.41112113327224, -0.8276418319505594, 0};
Point(p15 + 25) = {27.53934099664843, -0.9777680033515725, 0};
Point(p15 + 26) = {27.68946716804944, -1.105987866727756, 0};
Point(p15 + 27) = {27.85780304289519, -1.209144223505458, 0};
Point(p15 + 28) = {28.04020363327225, -1.284697021824492, 0};
Point(p15 + 29) = {28.23217763129266, -1.330785901044881, 0};
Point(p15 + 30) = {28.428998, -1.346276, 0};
Point(p15 + 31) = {28.62581836870734, -1.330785901044881, 0};
Point(p15 + 32) = {28.81779236672775, -1.284697021824492, 0};
Point(p15 + 33) = {29.00019295710481, -1.209144223505458, 0};
Point(p15 + 34) = {29.16852883195056, -1.105987866727756, 0};
Point(p15 + 35) = {29.31865500335157, -0.9777680033515728, 0};
Point(p15 + 36) = {29.44687486672775, -0.8276418319505596, 0};
Point(p15 + 37) = {29.55003122350546, -0.659305957104807, 0};
Point(p15 + 38) = {29.62558402182449, -0.476905366727756, 0};
Point(p15 + 39) = {29.67167290104488, -0.2849313687073424, 0};
Spline(15) = {11, p15 + 1, p15 + 2, p15 + 3, p15 + 4, p15 + 5, p15 + 6, p15 + 7, p15 + 8, p15 + 9, p15 + 10, p15 + 11, p15 + 12, p15 + 13, p15 + 14, p15 + 15, p15 + 16, p15 + 17, p15 + 18, p15 + 19, p15 + 20, p15 + 21, p15 + 22, p15 + 23, p15 + 24, p15 + 25, p15 + 26, p15 + 27, p15 + 28, p15 + 29, p15 + 30, p15 + 31, p15 + 32, p15 + 33, p15 + 34, p15 + 35, p15 + 36, p15 + 37, p15 + 38, p15 + 39, 11};
p16 = newp;
Point(p16 + 1) = {19.59872950997416, 0.3833137231325938, 0};
Point(p16 + 2) = {19.56482661005723, 0.5245294643619913, 0};
Point(p16 + 3) = {19.50925010216243, 0.6587030234709494, 0};
Point(p16 + 4) = {19.43336846436199, 0.7825306021376931, 0};
Point(p16 + 5) = {19.33905015441527, 0.8929631544152744, 0};
Point(p16 + 6) = {19.22861760213769, 0.9872814643619914, 0};
Point(p16 + 7) = {19.10479002347095, 1.063163102162431, 0};
Point(p16 + 8) = {18.97061646436199, 1.11873961005723, 0};
Point(p16 + 9) = {18.82940072313259, 1.152642509974162, 0};
Point(p16 + 10) = {18.68462, 1.164037, 0};
Point(p16 + 11) = {18.5398392768674, 1.152642509974162, 0};
Point(p16 + 12) = {18.39862353563801, 1.11873961005723, 0};
Point(p16 + 13) = {18.26444997652905, 1.063163102162431, 0};
Point(p16 + 14) = {18.14062239786231, 0.9872814643619914, 0};
Point(p16 + 15) = {18.03018984558473, 0.8929631544152745, 0};
Point(p16 + 16) = {17.93587153563801, 0.7825306021376931, 0};
Point(p16 + 17) = {17.85998989783757, 0.6587030234709496, 0};
Point(p16 + 18) = {17.80441338994277, 0.5245294643619914, 0};
Point(p16 + 19) = {17.77051049002583, 0.3833137231325939, 0};
Point(p16 + 20) = {17.759116, 0.2385330000000001, 0};
Point(p16 + 21) = {17.77051049002583, 0.09375227686740628, 0};
Point(p16 + 22) = {17.80441338994277, -0.04746346436199161, 0};
Point(p16 + 23) = {17.85998989783757, -0.181637023470949, 0};
Point(p16 + 24) = {17.93587153563801, -0.305464602137693, 0};
Point(p16 + 25) = {18.03018984558473, -0.4158971544152744, 0};
Point(p16 + 26) = {18.14062239786231, -0.5102154643619913, 0};
Point(p16 + 27) = {18.26444997652905, -0.5860971021624312, 0};
Point(p16 + 28) = {18.39862353563801, -0.6416736100572298, 0};
Point(p16 + 29) = {18.5398392768674, -0.6755765099741623, 0};
Point(p16 + 30) = {18.68462, -0.686971, 0};
Point(p16 + 31) = {18.82940072313259, -0.6755765099741624, 0};
Point(p16 + 32) = {18.97061646436199, -0.6416736100572299, 0};
Point(p16 + 33) = {19.10479002347095, -0.5860971021624313, 0};
Point(p16 + 34) = {19.22861760213769, -0.5102154643619915, 0};
Point(p16 + 35) = {19.33905015441527, -0.4158971544152746, 0};
Point(p16 + 36) = {19.43336846436199, -0.3054646021376932, 0};
Point(p16 + 37) = {19.50925010216243, -0.1816370234709497, 0};
Point(p16 + 38) = {19.56482661005723, -0.0474634643619915, 0};
Point(p16 + 39) = {19.59872950997416, 0.09375227686740595, 0};
Spline(16) = {12, p16 + 1, p16 + 2, p16 + 3, p16 + 4, p16 + 5, p16 + 6, p16 + 7, p16 + 8, p16 + 9, p16 + 10, p16 + 11, p16 + 12, p16 + 13, p16 + 14, p16 + 15, p16 + 16, p16 + 17, p16 + 18, p16 + 19, p16 + 20, p16 + 21, p16 + 22, p16 + 23, p16 + 24, p16 + 25, p16 + 26, p16 + 27, p16 + 28, p16 + 29, p16 + 30, p16 + 31, p16 + 32, p16 + 33, p16 + 34, p16 + 35, p16 + 36, p16 + 37, p16 + 38, p16 + 39, 12};
Line(17) = {11, 8};
Line(18) = {12, 9};
Curve Loop(1) = {-1, 4, 3, -2};
Plane Surface(1) = {1};
Curve Loop(2) = {-5, 1, 7, -6};
Plane Surface(2) = {2};
Curve Loop(3) = {-2, 7, 9, -8, -10, -11};
Plane Surface(3) = {3};
Curve Loop(4) = {-12, 3, 8, -13};
Plane Surface(4) = {4};
Curve Loop(5) = {-4, 5, 14, -12, -15, -16};
Plane Surface(5) = {5};
Curve Loop(6) = {-6, 14, 13, -9};
Plane Surface(6) = {6};
Curve Loop(7) = {-10, -17, 15, 17};
Surface(7) = {7};
Curve Loop(8) = {-11, -18, 16, 18};
Surface(8) = {8};
Surface Loop(1) = {1, 2, 3, 4, 5, 6, 7, 8};
Volume(1) = {1};
Physical Surface("INFLOW") = {1};
Physical Surface("OUTFLOW") = {6};
Physical Surface("OBSTACLE") = {7, 8};
Physical Surface("WALL_Y") = {2, 4};
Physical Surface("WALL_Z") = {3, 5};
Physical Volume("FLUID") = {1};
