cl__1 = 0.309782;
cl__2 = 0.514341;
cl__3 = 4.519807;
cl__4 = 3.529123;
cl__5 = 0.058508;
cl__6 = 0.063038;
Point(1) = {0.394322, -4.332112, 1, cl__1};
Point(2) = {0.394322, -4.332112, 0, cl__1};
Point(3) = {0.394322, 4.596489, 1, cl__2};
Point(4) = {0.394322, 4.596489, 0, cl__2};
Point(5) = {30.825451, -4.332112, 0, cl__3};
Point(6) = {30.825451, -4.332112, 1, cl__3};
Point(7) = {30.825451, 4.596489, 1, cl__4};
Point(8) = {2.105116000000001, -0.9000810000000002, 1, cl__5};
Point(9) = {16.099299, 2.444876, 1, cl__6};
Point(10) = {30.825451, 4.596489, 0, cl__4};
Point(11) = {2.105116000000001, -0.9000810000000002, 0, cl__5};
Point(12) = {16.099299, 2.444876, 0, cl__6};
Line(1) = {2, 1};
Line(2) = {1, 3};
Line(3) = {4, 3};
Line(4) = {2, 4};
Line(5) = {2, 5};
Line(6) = {5, 6};
Line(7) = {1, 6};
Line(8) = {3, 7};
Line(9) = {6, 7};
p10 = newp;
Point(p10 + 1) = {2.097912706627063, -0.8085544796287267, 1};
Point(p10 + 2) = {2.076480195497452, -0.7192816459481002, 1};
Point(p10 + 3) = {2.041346206165606, -0.6344606924028857, 1};
Point(p10 + 4) = {1.9933758540519, -0.5561801923739721, 1};
Point(p10 + 5) = {1.933750328429844, -0.486367671570156, 1};
Point(p10 + 6) = {1.863937807626028, -0.4267421459481001, 1};
Point(p10 + 7) = {1.785657307597114, -0.378771793834394, 1};
Point(p10 + 8) = {1.7008363540519, -0.3436378045025479, 1};
Point(p10 + 9) = {1.611563520371273, -0.3222052933729374, 1};
Point(p10 + 10) = {1.520037, -0.315002, 1};
Point(p10 + 11) = {1.428510479628727, -0.3222052933729375, 1};
Point(p10 + 12) = {1.3392376459481, -0.3436378045025478, 1};
Point(p10 + 13) = {1.254416692402886, -0.3787717938343939, 1};
Point(p10 + 14) = {1.176136192373972, -0.4267421459481001, 1};
Point(p10 + 15) = {1.106323671570156, -0.4863676715701559, 1};
Point(p10 + 16) = {1.0466981459481, -0.556180192373972, 1};
Point(p10 + 17) = {0.998727793834394, -0.6344606924028857, 1};
Point(p10 + 18) = {0.9635938045025479, -0.7192816459481001, 1};
Point(p10 + 19) = {0.9421612933729375, -0.8085544796287267, 1};
Point(p10 + 20) = {0.9349580000000001, -0.9000809999999999, 1};
Point(p10 + 21) = {0.9421612933729374, -0.9916075203712732, 1};
Point(p10 + 22) = {0.9635938045025479, -1.0808803540519, 1};
Point(p10 + 23) = {0.9987277938343938, -1.165701307597114, 1};
Point(p10 + 24) = {1.0466981459481, -1.243981807626028, 1};
Point(p10 + 25) = {1.106323671570156, -1.313794328429844, 1};
Point(p10 + 26) = {1.176136192373972, -1.3734198540519, 1};
Point(p10 + 27) = {1.254416692402886, -1.421390206165606, 1};
Point(p10 + 28) = {1.3392376459481, -1.456524195497452, 1};
Point(p10 + 29) = {1.428510479628727, -1.477956706627062, 1};
Point(p10 + 30) = {1.520037, -1.48516, 1};
Point(p10 + 31) = {1.611563520371273, -1.477956706627063, 1};
Point(p10 + 32) = {1.7008363540519, -1.456524195497452, 1};
Point(p10 + 33) = {1.785657307597114, -1.421390206165606, 1};
Point(p10 + 34) = {1.863937807626028, -1.3734198540519, 1};
Point(p10 + 35) = {1.933750328429844, -1.313794328429844, 1};
Point(p10 + 36) = {1.9933758540519, -1.243981807626028, 1};
Point(p10 + 37) = {2.041346206165606, -1.165701307597114, 1};
Point(p10 + 38) = {2.076480195497452, -1.0808803540519, 1};
Point(p10 + 39) = {2.097912706627063, -0.9916075203712734, 1};
Spline(10) = {8, p10 + 1, p10 + 2, p10 + 3, p10 + 4, p10 + 5, p10 + 6, p10 + 7, p10 + 8, p10 + 9, p10 + 10, p10 + 11, p10 + 12, p10 + 13, p10 + 14, p10 + 15, p10 + 16, p10 + 17, p10 + 18, p10 + 19, p10 + 20, p10 + 21, p10 + 22, p10 + 23, p10 + 24, p10 + 25, p10 + 26, p10 + 27, p10 + 28, p10 + 29, p10 + 30, p10 + 31, p10 + 32, p10 + 33, p10 + 34, p10 + 35, p10 + 36, p10 + 37, p10 + 38, p10 + 39, 8};
p11 = newp;
Point(p11 + 1) = {16.09153803770266, 2.543488375899735, 1};
Point(p11 + 2) = {16.06844625145956, 2.639672587829107, 1};
Point(p11 + 3) = {16.03059223768524, 2.731060261273317, 1};
Point(p11 + 4) = {15.97890808782911, 2.815401128413868, 1};
Point(p11 + 5) = {15.91466643719047, 2.89061843719047, 1};
Point(p11 + 6) = {15.83944912841387, 2.954860087829108, 1};
Point(p11 + 7) = {15.75510826127332, 3.006544237685242, 1};
Point(p11 + 8) = {15.66372058782911, 3.044398251459557, 1};
Point(p11 + 9) = {15.56753637589973, 3.06749003770266, 1};
Point(p11 + 10) = {15.468924, 3.075251, 1};
Point(p11 + 11) = {15.37031162410026, 3.06749003770266, 1};
Point(p11 + 12) = {15.27412741217089, 3.044398251459557, 1};
Point(p11 + 13) = {15.18273973872668, 3.006544237685242, 1};
Point(p11 + 14) = {15.09839887158613, 2.954860087829108, 1};
Point(p11 + 15) = {15.02318156280953, 2.89061843719047, 1};
Point(p11 + 16) = {14.95893991217089, 2.815401128413868, 1};
Point(p11 + 17) = {14.90725576231476, 2.731060261273317, 1};
Point(p11 + 18) = {14.86940174854044, 2.639672587829107, 1};
Point(p11 + 19) = {14.84630996229734, 2.543488375899735, 1};
Point(p11 + 20) = {14.838549, 2.444876, 1};
Point(p11 + 21) = {14.84630996229734, 2.346263624100264, 1};
Point(p11 + 22) = {14.86940174854044, 2.250079412170892, 1};
Point(p11 + 23) = {14.90725576231476, 2.158691738726684, 1};
Point(p11 + 24) = {14.95893991217089, 2.074350871586132, 1};
Point(p11 + 25) = {15.02318156280953, 1.99913356280953, 1};
Point(p11 + 26) = {15.09839887158613, 1.934891912170893, 1};
Point(p11 + 27) = {15.18273973872668, 1.883207762314758, 1};
Point(p11 + 28) = {15.27412741217089, 1.845353748540442, 1};
Point(p11 + 29) = {15.37031162410026, 1.82226196229734, 1};
Point(p11 + 30) = {15.468924, 1.814501, 1};
Point(p11 + 31) = {15.56753637589973, 1.82226196229734, 1};
Point(p11 + 32) = {15.66372058782911, 1.845353748540442, 1};
Point(p11 + 33) = {15.75510826127332, 1.883207762314757, 1};
Point(p11 + 34) = {15.83944912841387, 1.934891912170892, 1};
Point(p11 + 35) = {15.91466643719047, 1.99913356280953, 1};
Point(p11 + 36) = {15.97890808782911, 2.074350871586132, 1};
Point(p11 + 37) = {16.03059223768524, 2.158691738726683, 1};
Point(p11 + 38) = {16.06844625145956, 2.250079412170892, 1};
Point(p11 + 39) = {16.09153803770266, 2.346263624100264, 1};
Spline(11) = {9, p11 + 1, p11 + 2, p11 + 3, p11 + 4, p11 + 5, p11 + 6, p11 + 7, p11 + 8, p11 + 9, p11 + 10, p11 + 11, p11 + 12, p11 + 13, p11 + 14, p11 + 15, p11 + 16, p11 + 17, p11 + 18, p11 + 19, p11 + 20, p11 + 21, p11 + 22, p11 + 23, p11 + 24, p11 + 25, p11 + 26, p11 + 27, p11 + 28, p11 + 29, p11 + 30, p11 + 31, p11 + 32, p11 + 33, p11 + 34, p11 + 35, p11 + 36, p11 + 37, p11 + 38, p11 + 39, 9};
Line(12) = {4, 10};
Line(13) = {10, 7};
Line(14) = {5, 10};
p15 = newp;
Point(p15 + 1) = {2.097912706627063, -0.8085544796287267, 0};
Point(p15 + 2) = {2.076480195497452, -0.7192816459481002, 0};
Point(p15 + 3) = {2.041346206165606, -0.6344606924028857, 0};
Point(p15 + 4) = {1.9933758540519, -0.5561801923739721, 0};
Point(p15 + 5) = {1.933750328429844, -0.486367671570156, 0};
Point(p15 + 6) = {1.863937807626028, -0.4267421459481001, 0};
Point(p15 + 7) = {1.785657307597114, -0.378771793834394, 0};
Point(p15 + 8) = {1.7008363540519, -0.3436378045025479, 0};
Point(p15 + 9) = {1.611563520371273, -0.3222052933729374, 0};
Point(p15 + 10) = {1.520037, -0.315002, 0};
Point(p15 + 11) = {1.428510479628727, -0.3222052933729375, 0};
Point(p15 + 12) = {1.3392376459481, -0.3436378045025478, 0};
Point(p15 + 13) = {1.254416692402886, -0.3787717938343939, 0};
Point(p15 + 14) = {1.176136192373972, -0.4267421459481001, 0};
Point(p15 + 15) = {1.106323671570156, -0.4863676715701559, 0};
Point(p15 + 16) = {1.0466981459481, -0.556180192373972, 0};
Point(p15 + 17) = {0.998727793834394, -0.6344606924028857, 0};
Point(p15 + 18) = {0.9635938045025479, -0.7192816459481001, 0};
Point(p15 + 19) = {0.9421612933729375, -0.8085544796287267, 0};
Point(p15 + 20) = {0.9349580000000001, -0.9000809999999999, 0};
Point(p15 + 21) = {0.9421612933729374, -0.9916075203712732, 0};
Point(p15 + 22) = {0.9635938045025479, -1.0808803540519, 0};
Point(p15 + 23) = {0.9987277938343938, -1.165701307597114, 0};
Point(p15 + 24) = {1.0466981459481, -1.243981807626028, 0};
Point(p15 + 25) = {1.106323671570156, -1.313794328429844, 0};
Point(p15 + 26) = {1.176136192373972, -1.3734198540519, 0};
Point(p15 + 27) = {1.254416692402886, -1.421390206165606, 0};
Point(p15 + 28) = {1.3392376459481, -1.456524195497452, 0};
Point(p15 + 29) = {1.428510479628727, -1.477956706627062, 0};
Point(p15 + 30) = {1.520037, -1.48516, 0};
Point(p15 + 31) = {1.611563520371273, -1.477956706627063, 0};
Point(p15 + 32) = {1.7008363540519, -1.456524195497452, 0};
Point(p15 + 33) = {1.785657307597114, -1.421390206165606, 0};
Point(p15 + 34) = {1.863937807626028, -1.3734198540519, 0};
Point(p15 + 35) = {1.933750328429844, -1.313794328429844, 0};
Point(p15 + 36) = {1.9933758540519, -1.243981807626028, 0};
Point(p15 + 37) = {2.041346206165606, -1.165701307597114, 0};
Point(p15 + 38) = {2.076480195497452, -1.0808803540519, 0};
Point(p15 + 39) = {2.097912706627063, -0.9916075203712734, 0};
Spline(15) = {11, p15 + 1, p15 + 2, p15 + 3, p15 + 4, p15 + 5, p15 + 6, p15 + 7, p15 + 8, p15 + 9, p15 + 10, p15 + 11, p15 + 12, p15 + 13, p15 + 14, p15 + 15, p15 + 16, p15 + 17, p15 + 18, p15 + 19, p15 + 20, p15 + 21, p15 + 22, p15 + 23, p15 + 24, p15 + 25, p15 + 26, p15 + 27, p15 + 28, p15 + 29, p15 + 30, p15 + 31, p15 + 32, p15 + 33, p15 + 34, p15 + 35, p15 + 36, p15 + 37, p15 + 38, p15 + 39, 11};
p16 = newp;
Point(p16 + 1) = {16.09153803770266, 2.543488375899735, 0};
Point(p16 + 2) = {16.06844625145956, 2.639672587829107, 0};
Point(p16 + 3) = {16.03059223768524, 2.731060261273317, 0};
Point(p16 + 4) = {15.97890808782911, 2.815401128413868, 0};
Point(p16 + 5) = {15.91466643719047, 2.89061843719047, 0};
Point(p16 + 6) = {15.83944912841387, 2.954860087829108, 0};
Point(p16 + 7) = {15.75510826127332, 3.006544237685242, 0};
Point(p16 + 8) = {15.66372058782911, 3.044398251459557, 0};
Point(p16 + 9) = {15.56753637589973, 3.06749003770266, 0};
Point(p16 + 10) = {15.468924, 3.075251, 0};
Point(p16 + 11) = {15.37031162410026, 3.06749003770266, 0};
Point(p16 + 12) = {15.27412741217089, 3.044398251459557, 0};
Point(p16 + 13) = {15.18273973872668, 3.006544237685242, 0};
Point(p16 + 14) = {15.09839887158613, 2.954860087829108, 0};
Point(p16 + 15) = {15.02318156280953, 2.89061843719047, 0};
Point(p16 + 16) = {14.95893991217089, 2.815401128413868, 0};
Point(p16 + 17) = {14.90725576231476, 2.731060261273317, 0};
Point(p16 + 18) = {14.86940174854044, 2.639672587829107, 0};
Point(p16 + 19) = {14.84630996229734, 2.543488375899735, 0};
Point(p16 + 20) = {14.838549, 2.444876, 0};
Point(p16 + 21) = {14.84630996229734, 2.346263624100264, 0};
Point(p16 + 22) = {14.86940174854044, 2.250079412170892, 0};
Point(p16 + 23) = {14.90725576231476, 2.158691738726684, 0};
Point(p16 + 24) = {14.95893991217089, 2.074350871586132, 0};
Point(p16 + 25) = {15.02318156280953, 1.99913356280953, 0};
Point(p16 + 26) = {15.09839887158613, 1.934891912170893, 0};
Point(p16 + 27) = {15.18273973872668, 1.883207762314758, 0};
Point(p16 + 28) = {15.27412741217089, 1.845353748540442, 0};
Point(p16 + 29) = {15.37031162410026, 1.82226196229734, 0};
Point(p16 + 30) = {15.468924, 1.814501, 0};
Point(p16 + 31) = {15.56753637589973, 1.82226196229734, 0};
Point(p16 + 32) = {15.66372058782911, 1.845353748540442, 0};
Point(p16 + 33) = {15.75510826127332, 1.883207762314757, 0};
Point(p16 + 34) = {15.83944912841387, 1.934891912170892, 0};
Point(p16 + 35) = {15.91466643719047, 1.99913356280953, 0};
Point(p16 + 36) = {15.97890808782911, 2.074350871586132, 0};
Point(p16 + 37) = {16.03059223768524, 2.158691738726683, 0};
Point(p16 + 38) = {16.06844625145956, 2.250079412170892, 0};
Point(p16 + 39) = {16.09153803770266, 2.346263624100264, 0};
Spline(16) = {12, p16 + 1, p16 + 2, p16 + 3, p16 + 4, p16 + 5, p16 + 6, p16 + 7, p16 + 8, p16 + 9, p16 + 10, p16 + 11, p16 + 12, p16 + 13, p16 + 14, p16 + 15, p16 + 16, p16 + 17, p16 + 18, p16 + 19, p16 + 20, p16 + 21, p16 + 22, p16 + 23, p16 + 24, p16 + 25, p16 + 26, p16 + 27, p16 + 28, p16 + 29, p16 + 30, p16 + 31, p16 + 32, p16 + 33, p16 + 34, p16 + 35, p16 + 36, p16 + 37, p16 + 38, p16 + 39, 12};
Line(17) = {11, 8};
Line(18) = {12, 9};
Curve Loop(1) = {-1, 4, 3, -2};
Plane Surface(1) = {1};
Curve Loop(2) = {-5, 1, 7, -6};
Plane Surface(2) = {2};
Curve Loop(3) = {-2, 7, 9, -8, -10, -11};
Plane Surface(3) = {3};
Curve Loop(4) = {-12, 3, 8, -13};
Plane Surface(4) = {4};
Curve Loop(5) = {-4, 5, 14, -12, -15, -16};
Plane Surface(5) = {5};
Curve Loop(6) = {-6, 14, 13, -9};
Plane Surface(6) = {6};
Curve Loop(7) = {-10, -17, 15, 17};
Surface(7) = {7};
Curve Loop(8) = {-11, -18, 16, 18};
Surface(8) = {8};
Surface Loop(1) = {1, 2, 3, 4, 5, 6, 7, 8};
Volume(1) = {1};
Physical Surface("INFLOW") = {1};
Physical Surface("OUTFLOW") = {6};
Physical Surface("OBSTACLE") = {7, 8};
Physical Surface("WALL_Y") = {2, 4};
Physical Surface("WALL_Z") = {3, 5};
Physical Volume("FLUID") = {1};
