cl__1 = 0.9207689999999999;
cl__2 = 0.8613150000000001;
cl__3 = 1.237835;
cl__4 = 1.497996;
cl__5 = 0.097583;
cl__6 = 0.060804;
Point(1) = {0.101722, -2.905598, 1, cl__1};
Point(2) = {0.101722, -2.905598, 0, cl__1};
Point(3) = {0.101722, 4.756178, 1, cl__2};
Point(4) = {0.101722, 4.756178, 0, cl__2};
Point(5) = {39.778533, -2.905598, 0, cl__3};
Point(6) = {39.778533, -2.905598, 1, cl__3};
Point(7) = {39.778533, 4.756178, 1, cl__4};
Point(8) = {26.586486, -0.7643730000000003, 1, cl__5};
Point(9) = {11.701897, 2.053353, 1, cl__6};
Point(10) = {39.778533, 4.756178, 0, cl__4};
Point(11) = {26.586486, -0.7643730000000003, 0, cl__5};
Point(12) = {11.701897, 2.053353, 0, cl__6};
Line(1) = {2, 1};
Line(2) = {1, 3};
Line(3) = {4, 3};
Line(4) = {2, 4};
Line(5) = {2, 5};
Line(6) = {5, 6};
Line(7) = {1, 6};
Line(8) = {3, 7};
Line(9) = {6, 7};
p10 = newp;
Point(p10 + 1) = {26.57447196264959, -0.6117201817176516, 1};
Point(p10 + 2) = {26.53872567607023, -0.4628261824470726, 1};
Point(p10 + 3) = {26.48012733247264, -0.321357266601157, 1};
Point(p10 + 4) = {26.40011981755293, -0.1907968683964451, 1};
Point(p10 + 5) = {26.30067318185814, -0.0743598181418561, 1};
Point(p10 + 6) = {26.18423613160356, 0.02508681755292752, 1};
Point(p10 + 7) = {26.05367573339884, 0.1050943324726382, 1};
Point(p10 + 8) = {25.91220681755293, 0.1636926760702345, 1};
Point(p10 + 9) = {25.76331281828235, 0.1994389626495909, 1};
Point(p10 + 10) = {25.61066, 0.211453, 1};
Point(p10 + 11) = {25.45800718171765, 0.1994389626495908, 1};
Point(p10 + 12) = {25.30911318244707, 0.1636926760702346, 1};
Point(p10 + 13) = {25.16764426660116, 0.1050943324726383, 1};
Point(p10 + 14) = {25.03708386839644, 0.02508681755292752, 1};
Point(p10 + 15) = {24.92064681814185, -0.07435981814185599, 1};
Point(p10 + 16) = {24.82120018244707, -0.1907968683964449, 1};
Point(p10 + 17) = {24.74119266752736, -0.3213572666011569, 1};
Point(p10 + 18) = {24.68259432392977, -0.4628261824470725, 1};
Point(p10 + 19) = {24.64684803735041, -0.6117201817176515, 1};
Point(p10 + 20) = {24.634834, -0.7643729999999999, 1};
Point(p10 + 21) = {24.64684803735041, -0.9170258182823482, 1};
Point(p10 + 22) = {24.68259432392977, -1.065919817552928, 1};
Point(p10 + 23) = {24.74119266752736, -1.207388733398842, 1};
Point(p10 + 24) = {24.82120018244707, -1.337949131603555, 1};
Point(p10 + 25) = {24.92064681814185, -1.454386181858144, 1};
Point(p10 + 26) = {25.03708386839644, -1.553832817552927, 1};
Point(p10 + 27) = {25.16764426660115, -1.633840332472638, 1};
Point(p10 + 28) = {25.30911318244707, -1.692438676070235, 1};
Point(p10 + 29) = {25.45800718171765, -1.728184962649591, 1};
Point(p10 + 30) = {25.61066, -1.740199, 1};
Point(p10 + 31) = {25.76331281828235, -1.728184962649591, 1};
Point(p10 + 32) = {25.91220681755293, -1.692438676070235, 1};
Point(p10 + 33) = {26.05367573339884, -1.633840332472638, 1};
Point(p10 + 34) = {26.18423613160356, -1.553832817552927, 1};
Point(p10 + 35) = {26.30067318185814, -1.454386181858144, 1};
Point(p10 + 36) = {26.40011981755293, -1.337949131603555, 1};
Point(p10 + 37) = {26.48012733247264, -1.207388733398843, 1};
Point(p10 + 38) = {26.53872567607023, -1.065919817552928, 1};
Point(p10 + 39) = {26.57447196264959, -0.9170258182823485, 1};
Spline(10) = {8, p10 + 1, p10 + 2, p10 + 3, p10 + 4, p10 + 5, p10 + 6, p10 + 7, p10 + 8, p10 + 9, p10 + 10, p10 + 11, p10 + 12, p10 + 13, p10 + 14, p10 + 15, p10 + 16, p10 + 17, p10 + 18, p10 + 19, p10 + 20, p10 + 21, p10 + 22, p10 + 23, p10 + 24, p10 + 25, p10 + 26, p10 + 27, p10 + 28, p10 + 29, p10 + 30, p10 + 31, p10 + 32, p10 + 33, p10 + 34, p10 + 35, p10 + 36, p10 + 37, p10 + 38, p10 + 39, 8};
p11 = newp;
Point(p11 + 1) = {11.69441105555044, 2.148470942819667, 1};
Point(p11 + 2) = {11.67213755099856, 2.24124676620876, 1};
Point(p11 + 3) = {11.63562493394792, 2.329396021490135, 1};
Point(p11 + 4) = {11.58577226620876, 2.410748181448159, 1};
Point(p11 + 5) = {11.52380708591232, 2.483300085912325, 1};
Point(p11 + 6) = {11.45125518144816, 2.54526526620876, 1};
Point(p11 + 7) = {11.36990302149013, 2.595117933947923, 1};
Point(p11 + 8) = {11.28175376620876, 2.631630550998556, 1};
Point(p11 + 9) = {11.18897794281967, 2.653904055550446, 1};
Point(p11 + 10) = {11.09386, 2.66139, 1};
Point(p11 + 11) = {10.99874205718033, 2.653904055550446, 1};
Point(p11 + 12) = {10.90596623379124, 2.631630550998556, 1};
Point(p11 + 13) = {10.81781697850986, 2.595117933947923, 1};
Point(p11 + 14) = {10.73646481855184, 2.54526526620876, 1};
Point(p11 + 15) = {10.66391291408767, 2.483300085912325, 1};
Point(p11 + 16) = {10.60194773379124, 2.410748181448159, 1};
Point(p11 + 17) = {10.55209506605208, 2.329396021490135, 1};
Point(p11 + 18) = {10.51558244900144, 2.24124676620876, 1};
Point(p11 + 19) = {10.49330894444955, 2.148470942819667, 1};
Point(p11 + 20) = {10.485823, 2.053353, 1};
Point(p11 + 21) = {10.49330894444955, 1.958235057180333, 1};
Point(p11 + 22) = {10.51558244900144, 1.86545923379124, 1};
Point(p11 + 23) = {10.55209506605208, 1.777309978509865, 1};
Point(p11 + 24) = {10.60194773379124, 1.695957818551842, 1};
Point(p11 + 25) = {10.66391291408767, 1.623405914087675, 1};
Point(p11 + 26) = {10.73646481855184, 1.56144073379124, 1};
Point(p11 + 27) = {10.81781697850986, 1.511588066052077, 1};
Point(p11 + 28) = {10.90596623379124, 1.475075449001444, 1};
Point(p11 + 29) = {10.99874205718033, 1.452801944449554, 1};
Point(p11 + 30) = {11.09386, 1.445316, 1};
Point(p11 + 31) = {11.18897794281967, 1.452801944449554, 1};
Point(p11 + 32) = {11.28175376620876, 1.475075449001443, 1};
Point(p11 + 33) = {11.36990302149013, 1.511588066052077, 1};
Point(p11 + 34) = {11.45125518144816, 1.56144073379124, 1};
Point(p11 + 35) = {11.52380708591232, 1.623405914087675, 1};
Point(p11 + 36) = {11.58577226620876, 1.695957818551841, 1};
Point(p11 + 37) = {11.63562493394792, 1.777309978509865, 1};
Point(p11 + 38) = {11.67213755099856, 1.86545923379124, 1};
Point(p11 + 39) = {11.69441105555044, 1.958235057180333, 1};
Spline(11) = {9, p11 + 1, p11 + 2, p11 + 3, p11 + 4, p11 + 5, p11 + 6, p11 + 7, p11 + 8, p11 + 9, p11 + 10, p11 + 11, p11 + 12, p11 + 13, p11 + 14, p11 + 15, p11 + 16, p11 + 17, p11 + 18, p11 + 19, p11 + 20, p11 + 21, p11 + 22, p11 + 23, p11 + 24, p11 + 25, p11 + 26, p11 + 27, p11 + 28, p11 + 29, p11 + 30, p11 + 31, p11 + 32, p11 + 33, p11 + 34, p11 + 35, p11 + 36, p11 + 37, p11 + 38, p11 + 39, 9};
Line(12) = {4, 10};
Line(13) = {10, 7};
Line(14) = {5, 10};
p15 = newp;
Point(p15 + 1) = {26.57447196264959, -0.6117201817176516, 0};
Point(p15 + 2) = {26.53872567607023, -0.4628261824470726, 0};
Point(p15 + 3) = {26.48012733247264, -0.321357266601157, 0};
Point(p15 + 4) = {26.40011981755293, -0.1907968683964451, 0};
Point(p15 + 5) = {26.30067318185814, -0.0743598181418561, 0};
Point(p15 + 6) = {26.18423613160356, 0.02508681755292752, 0};
Point(p15 + 7) = {26.05367573339884, 0.1050943324726382, 0};
Point(p15 + 8) = {25.91220681755293, 0.1636926760702345, 0};
Point(p15 + 9) = {25.76331281828235, 0.1994389626495909, 0};
Point(p15 + 10) = {25.61066, 0.211453, 0};
Point(p15 + 11) = {25.45800718171765, 0.1994389626495908, 0};
Point(p15 + 12) = {25.30911318244707, 0.1636926760702346, 0};
Point(p15 + 13) = {25.16764426660116, 0.1050943324726383, 0};
Point(p15 + 14) = {25.03708386839644, 0.02508681755292752, 0};
Point(p15 + 15) = {24.92064681814185, -0.07435981814185599, 0};
Point(p15 + 16) = {24.82120018244707, -0.1907968683964449, 0};
Point(p15 + 17) = {24.74119266752736, -0.3213572666011569, 0};
Point(p15 + 18) = {24.68259432392977, -0.4628261824470725, 0};
Point(p15 + 19) = {24.64684803735041, -0.6117201817176515, 0};
Point(p15 + 20) = {24.634834, -0.7643729999999999, 0};
Point(p15 + 21) = {24.64684803735041, -0.9170258182823482, 0};
Point(p15 + 22) = {24.68259432392977, -1.065919817552928, 0};
Point(p15 + 23) = {24.74119266752736, -1.207388733398842, 0};
Point(p15 + 24) = {24.82120018244707, -1.337949131603555, 0};
Point(p15 + 25) = {24.92064681814185, -1.454386181858144, 0};
Point(p15 + 26) = {25.03708386839644, -1.553832817552927, 0};
Point(p15 + 27) = {25.16764426660115, -1.633840332472638, 0};
Point(p15 + 28) = {25.30911318244707, -1.692438676070235, 0};
Point(p15 + 29) = {25.45800718171765, -1.728184962649591, 0};
Point(p15 + 30) = {25.61066, -1.740199, 0};
Point(p15 + 31) = {25.76331281828235, -1.728184962649591, 0};
Point(p15 + 32) = {25.91220681755293, -1.692438676070235, 0};
Point(p15 + 33) = {26.05367573339884, -1.633840332472638, 0};
Point(p15 + 34) = {26.18423613160356, -1.553832817552927, 0};
Point(p15 + 35) = {26.30067318185814, -1.454386181858144, 0};
Point(p15 + 36) = {26.40011981755293, -1.337949131603555, 0};
Point(p15 + 37) = {26.48012733247264, -1.207388733398843, 0};
Point(p15 + 38) = {26.53872567607023, -1.065919817552928, 0};
Point(p15 + 39) = {26.57447196264959, -0.9170258182823485, 0};
Spline(15) = {11, p15 + 1, p15 + 2, p15 + 3, p15 + 4, p15 + 5, p15 + 6, p15 + 7, p15 + 8, p15 + 9, p15 + 10, p15 + 11, p15 + 12, p15 + 13, p15 + 14, p15 + 15, p15 + 16, p15 + 17, p15 + 18, p15 + 19, p15 + 20, p15 + 21, p15 + 22, p15 + 23, p15 + 24, p15 + 25, p15 + 26, p15 + 27, p15 + 28, p15 + 29, p15 + 30, p15 + 31, p15 + 32, p15 + 33, p15 + 34, p15 + 35, p15 + 36, p15 + 37, p15 + 38, p15 + 39, 11};
p16 = newp;
Point(p16 + 1) = {11.69441105555044, 2.148470942819667, 0};
Point(p16 + 2) = {11.67213755099856, 2.24124676620876, 0};
Point(p16 + 3) = {11.63562493394792, 2.329396021490135, 0};
Point(p16 + 4) = {11.58577226620876, 2.410748181448159, 0};
Point(p16 + 5) = {11.52380708591232, 2.483300085912325, 0};
Point(p16 + 6) = {11.45125518144816, 2.54526526620876, 0};
Point(p16 + 7) = {11.36990302149013, 2.595117933947923, 0};
Point(p16 + 8) = {11.28175376620876, 2.631630550998556, 0};
Point(p16 + 9) = {11.18897794281967, 2.653904055550446, 0};
Point(p16 + 10) = {11.09386, 2.66139, 0};
Point(p16 + 11) = {10.99874205718033, 2.653904055550446, 0};
Point(p16 + 12) = {10.90596623379124, 2.631630550998556, 0};
Point(p16 + 13) = {10.81781697850986, 2.595117933947923, 0};
Point(p16 + 14) = {10.73646481855184, 2.54526526620876, 0};
Point(p16 + 15) = {10.66391291408767, 2.483300085912325, 0};
Point(p16 + 16) = {10.60194773379124, 2.410748181448159, 0};
Point(p16 + 17) = {10.55209506605208, 2.329396021490135, 0};
Point(p16 + 18) = {10.51558244900144, 2.24124676620876, 0};
Point(p16 + 19) = {10.49330894444955, 2.148470942819667, 0};
Point(p16 + 20) = {10.485823, 2.053353, 0};
Point(p16 + 21) = {10.49330894444955, 1.958235057180333, 0};
Point(p16 + 22) = {10.51558244900144, 1.86545923379124, 0};
Point(p16 + 23) = {10.55209506605208, 1.777309978509865, 0};
Point(p16 + 24) = {10.60194773379124, 1.695957818551842, 0};
Point(p16 + 25) = {10.66391291408767, 1.623405914087675, 0};
Point(p16 + 26) = {10.73646481855184, 1.56144073379124, 0};
Point(p16 + 27) = {10.81781697850986, 1.511588066052077, 0};
Point(p16 + 28) = {10.90596623379124, 1.475075449001444, 0};
Point(p16 + 29) = {10.99874205718033, 1.452801944449554, 0};
Point(p16 + 30) = {11.09386, 1.445316, 0};
Point(p16 + 31) = {11.18897794281967, 1.452801944449554, 0};
Point(p16 + 32) = {11.28175376620876, 1.475075449001443, 0};
Point(p16 + 33) = {11.36990302149013, 1.511588066052077, 0};
Point(p16 + 34) = {11.45125518144816, 1.56144073379124, 0};
Point(p16 + 35) = {11.52380708591232, 1.623405914087675, 0};
Point(p16 + 36) = {11.58577226620876, 1.695957818551841, 0};
Point(p16 + 37) = {11.63562493394792, 1.777309978509865, 0};
Point(p16 + 38) = {11.67213755099856, 1.86545923379124, 0};
Point(p16 + 39) = {11.69441105555044, 1.958235057180333, 0};
Spline(16) = {12, p16 + 1, p16 + 2, p16 + 3, p16 + 4, p16 + 5, p16 + 6, p16 + 7, p16 + 8, p16 + 9, p16 + 10, p16 + 11, p16 + 12, p16 + 13, p16 + 14, p16 + 15, p16 + 16, p16 + 17, p16 + 18, p16 + 19, p16 + 20, p16 + 21, p16 + 22, p16 + 23, p16 + 24, p16 + 25, p16 + 26, p16 + 27, p16 + 28, p16 + 29, p16 + 30, p16 + 31, p16 + 32, p16 + 33, p16 + 34, p16 + 35, p16 + 36, p16 + 37, p16 + 38, p16 + 39, 12};
Line(17) = {11, 8};
Line(18) = {12, 9};
Curve Loop(1) = {-1, 4, 3, -2};
Plane Surface(1) = {1};
Curve Loop(2) = {-5, 1, 7, -6};
Plane Surface(2) = {2};
Curve Loop(3) = {-2, 7, 9, -8, -10, -11};
Plane Surface(3) = {3};
Curve Loop(4) = {-12, 3, 8, -13};
Plane Surface(4) = {4};
Curve Loop(5) = {-4, 5, 14, -12, -15, -16};
Plane Surface(5) = {5};
Curve Loop(6) = {-6, 14, 13, -9};
Plane Surface(6) = {6};
Curve Loop(7) = {-10, -17, 15, 17};
Surface(7) = {7};
Curve Loop(8) = {-11, -18, 16, 18};
Surface(8) = {8};
Surface Loop(1) = {1, 2, 3, 4, 5, 6, 7, 8};
Volume(1) = {1};
Physical Surface("INFLOW") = {1};
Physical Surface("OUTFLOW") = {6};
Physical Surface("OBSTACLE") = {7, 8};
Physical Surface("WALL_Y") = {2, 4};
Physical Surface("WALL_Z") = {3, 5};
Physical Volume("FLUID") = {1};
