cl__1 = 0.675366;
cl__2 = 0.478219;
cl__3 = 2.964498;
cl__4 = 2.80249;
cl__5 = 0.054578;
cl__6 = 0.08928999999999999;
Point(1) = {0.341357, -3.285096, 1, cl__1};
Point(2) = {0.341357, -3.285096, 0, cl__1};
Point(3) = {0.341357, 4.944863, 1, cl__2};
Point(4) = {0.341357, 4.944863, 0, cl__2};
Point(5) = {39.644337, -3.285096, 0, cl__3};
Point(6) = {39.644337, -3.285096, 1, cl__3};
Point(7) = {39.644337, 4.944863, 1, cl__4};
Point(8) = {21.239531, 1.663242, 1, cl__5};
Point(9) = {8.327929999999999, 3.540662, 1, cl__6};
Point(10) = {39.644337, 4.944863, 0, cl__4};
Point(11) = {21.239531, 1.663242, 0, cl__5};
Point(12) = {8.327929999999999, 3.540662, 0, cl__6};
Line(1) = {2, 1};
Line(2) = {1, 3};
Line(3) = {4, 3};
Line(4) = {2, 4};
Line(5) = {2, 5};
Line(6) = {5, 6};
Line(7) = {1, 6};
Line(8) = {3, 7};
Line(9) = {6, 7};
p10 = newp;
Point(p10 + 1) = {21.23281156715333, 1.748620489460727, 1};
Point(p10 + 2) = {21.21281872335054, 1.83189667715597, 1};
Point(p10 + 3) = {21.18004475875848, 1.91102002696685, 1};
Point(p10 + 4) = {21.13529667715597, 1.984042259425681, 1};
Point(p10 + 5) = {21.07967632482243, 2.049165324822432, 1};
Point(p10 + 6) = {21.01455325942568, 2.10478567715597, 1};
Point(p10 + 7) = {20.94153102696685, 2.149533758758479, 1};
Point(p10 + 8) = {20.86240767715597, 2.182307723350537, 1};
Point(p10 + 9) = {20.77913148946073, 2.202300567153333, 1};
Point(p10 + 10) = {20.693753, 2.20902, 1};
Point(p10 + 11) = {20.60837451053927, 2.202300567153333, 1};
Point(p10 + 12) = {20.52509832284403, 2.182307723350537, 1};
Point(p10 + 13) = {20.44597497303315, 2.149533758758479, 1};
Point(p10 + 14) = {20.37295274057432, 2.10478567715597, 1};
Point(p10 + 15) = {20.30782967517757, 2.049165324822432, 1};
Point(p10 + 16) = {20.25220932284403, 1.984042259425681, 1};
Point(p10 + 17) = {20.20746124124152, 1.91102002696685, 1};
Point(p10 + 18) = {20.17468727664946, 1.83189667715597, 1};
Point(p10 + 19) = {20.15469443284667, 1.748620489460727, 1};
Point(p10 + 20) = {20.147975, 1.663242, 1};
Point(p10 + 21) = {20.15469443284667, 1.577863510539273, 1};
Point(p10 + 22) = {20.17468727664946, 1.49458732284403, 1};
Point(p10 + 23) = {20.20746124124152, 1.41546397303315, 1};
Point(p10 + 24) = {20.25220932284403, 1.342441740574319, 1};
Point(p10 + 25) = {20.30782967517757, 1.277318675177569, 1};
Point(p10 + 26) = {20.37295274057432, 1.22169832284403, 1};
Point(p10 + 27) = {20.44597497303315, 1.176950241241521, 1};
Point(p10 + 28) = {20.52509832284403, 1.144176276649464, 1};
Point(p10 + 29) = {20.60837451053927, 1.124183432846667, 1};
Point(p10 + 30) = {20.693753, 1.117464, 1};
Point(p10 + 31) = {20.77913148946073, 1.124183432846667, 1};
Point(p10 + 32) = {20.86240767715597, 1.144176276649464, 1};
Point(p10 + 33) = {20.94153102696685, 1.176950241241521, 1};
Point(p10 + 34) = {21.01455325942568, 1.22169832284403, 1};
Point(p10 + 35) = {21.07967632482243, 1.277318675177568, 1};
Point(p10 + 36) = {21.13529667715597, 1.342441740574319, 1};
Point(p10 + 37) = {21.18004475875848, 1.41546397303315, 1};
Point(p10 + 38) = {21.21281872335054, 1.49458732284403, 1};
Point(p10 + 39) = {21.23281156715333, 1.577863510539273, 1};
Spline(10) = {8, p10 + 1, p10 + 2, p10 + 3, p10 + 4, p10 + 5, p10 + 6, p10 + 7, p10 + 8, p10 + 9, p10 + 10, p10 + 11, p10 + 12, p10 + 13, p10 + 14, p10 + 15, p10 + 16, p10 + 17, p10 + 18, p10 + 19, p10 + 20, p10 + 21, p10 + 22, p10 + 23, p10 + 24, p10 + 25, p10 + 26, p10 + 27, p10 + 28, p10 + 29, p10 + 30, p10 + 31, p10 + 32, p10 + 33, p10 + 34, p10 + 35, p10 + 36, p10 + 37, p10 + 38, p10 + 39, 8};
p11 = newp;
Point(p11 + 1) = {8.316936968564036, 3.680341708096562, 1};
Point(p11 + 2) = {8.284228559173878, 3.816582038209413, 1};
Point(p11 + 3) = {8.230610161421698, 3.946028301255442, 1};
Point(p11 + 4) = {8.157402038209414, 4.06549310063094, 1};
Point(p11 + 5) = {8.066406816494343, 4.172034816494344, 1};
Point(p11 + 6) = {7.95986510063094, 4.263030038209413, 1};
Point(p11 + 7) = {7.840400301255443, 4.336238161421697, 1};
Point(p11 + 8) = {7.710954038209413, 4.389856559173878, 1};
Point(p11 + 9) = {7.574713708096562, 4.422564968564036, 1};
Point(p11 + 10) = {7.435034, 4.433558000000001, 1};
Point(p11 + 11) = {7.295354291903438, 4.422564968564036, 1};
Point(p11 + 12) = {7.159113961790587, 4.389856559173878, 1};
Point(p11 + 13) = {7.029667698744557, 4.336238161421697, 1};
Point(p11 + 14) = {6.91020289936906, 4.263030038209413, 1};
Point(p11 + 15) = {6.803661183505657, 4.172034816494344, 1};
Point(p11 + 16) = {6.712665961790587, 4.06549310063094, 1};
Point(p11 + 17) = {6.639457838578303, 3.946028301255442, 1};
Point(p11 + 18) = {6.585839440826122, 3.816582038209413, 1};
Point(p11 + 19) = {6.553131031435964, 3.680341708096562, 1};
Point(p11 + 20) = {6.542138, 3.540662, 1};
Point(p11 + 21) = {6.553131031435964, 3.400982291903438, 1};
Point(p11 + 22) = {6.585839440826122, 3.264741961790587, 1};
Point(p11 + 23) = {6.639457838578303, 3.135295698744558, 1};
Point(p11 + 24) = {6.712665961790587, 3.01583089936906, 1};
Point(p11 + 25) = {6.803661183505656, 2.909289183505657, 1};
Point(p11 + 26) = {6.91020289936906, 2.818293961790587, 1};
Point(p11 + 27) = {7.029667698744557, 2.745085838578303, 1};
Point(p11 + 28) = {7.159113961790586, 2.691467440826123, 1};
Point(p11 + 29) = {7.295354291903438, 2.658759031435964, 1};
Point(p11 + 30) = {7.435034, 2.647766, 1};
Point(p11 + 31) = {7.574713708096562, 2.658759031435964, 1};
Point(p11 + 32) = {7.710954038209413, 2.691467440826123, 1};
Point(p11 + 33) = {7.840400301255443, 2.745085838578303, 1};
Point(p11 + 34) = {7.95986510063094, 2.818293961790587, 1};
Point(p11 + 35) = {8.066406816494343, 2.909289183505656, 1};
Point(p11 + 36) = {8.157402038209414, 3.01583089936906, 1};
Point(p11 + 37) = {8.230610161421696, 3.135295698744557, 1};
Point(p11 + 38) = {8.284228559173878, 3.264741961790587, 1};
Point(p11 + 39) = {8.316936968564036, 3.400982291903438, 1};
Spline(11) = {9, p11 + 1, p11 + 2, p11 + 3, p11 + 4, p11 + 5, p11 + 6, p11 + 7, p11 + 8, p11 + 9, p11 + 10, p11 + 11, p11 + 12, p11 + 13, p11 + 14, p11 + 15, p11 + 16, p11 + 17, p11 + 18, p11 + 19, p11 + 20, p11 + 21, p11 + 22, p11 + 23, p11 + 24, p11 + 25, p11 + 26, p11 + 27, p11 + 28, p11 + 29, p11 + 30, p11 + 31, p11 + 32, p11 + 33, p11 + 34, p11 + 35, p11 + 36, p11 + 37, p11 + 38, p11 + 39, 9};
Line(12) = {4, 10};
Line(13) = {10, 7};
Line(14) = {5, 10};
p15 = newp;
Point(p15 + 1) = {21.23281156715333, 1.748620489460727, 0};
Point(p15 + 2) = {21.21281872335054, 1.83189667715597, 0};
Point(p15 + 3) = {21.18004475875848, 1.91102002696685, 0};
Point(p15 + 4) = {21.13529667715597, 1.984042259425681, 0};
Point(p15 + 5) = {21.07967632482243, 2.049165324822432, 0};
Point(p15 + 6) = {21.01455325942568, 2.10478567715597, 0};
Point(p15 + 7) = {20.94153102696685, 2.149533758758479, 0};
Point(p15 + 8) = {20.86240767715597, 2.182307723350537, 0};
Point(p15 + 9) = {20.77913148946073, 2.202300567153333, 0};
Point(p15 + 10) = {20.693753, 2.20902, 0};
Point(p15 + 11) = {20.60837451053927, 2.202300567153333, 0};
Point(p15 + 12) = {20.52509832284403, 2.182307723350537, 0};
Point(p15 + 13) = {20.44597497303315, 2.149533758758479, 0};
Point(p15 + 14) = {20.37295274057432, 2.10478567715597, 0};
Point(p15 + 15) = {20.30782967517757, 2.049165324822432, 0};
Point(p15 + 16) = {20.25220932284403, 1.984042259425681, 0};
Point(p15 + 17) = {20.20746124124152, 1.91102002696685, 0};
Point(p15 + 18) = {20.17468727664946, 1.83189667715597, 0};
Point(p15 + 19) = {20.15469443284667, 1.748620489460727, 0};
Point(p15 + 20) = {20.147975, 1.663242, 0};
Point(p15 + 21) = {20.15469443284667, 1.577863510539273, 0};
Point(p15 + 22) = {20.17468727664946, 1.49458732284403, 0};
Point(p15 + 23) = {20.20746124124152, 1.41546397303315, 0};
Point(p15 + 24) = {20.25220932284403, 1.342441740574319, 0};
Point(p15 + 25) = {20.30782967517757, 1.277318675177569, 0};
Point(p15 + 26) = {20.37295274057432, 1.22169832284403, 0};
Point(p15 + 27) = {20.44597497303315, 1.176950241241521, 0};
Point(p15 + 28) = {20.52509832284403, 1.144176276649464, 0};
Point(p15 + 29) = {20.60837451053927, 1.124183432846667, 0};
Point(p15 + 30) = {20.693753, 1.117464, 0};
Point(p15 + 31) = {20.77913148946073, 1.124183432846667, 0};
Point(p15 + 32) = {20.86240767715597, 1.144176276649464, 0};
Point(p15 + 33) = {20.94153102696685, 1.176950241241521, 0};
Point(p15 + 34) = {21.01455325942568, 1.22169832284403, 0};
Point(p15 + 35) = {21.07967632482243, 1.277318675177568, 0};
Point(p15 + 36) = {21.13529667715597, 1.342441740574319, 0};
Point(p15 + 37) = {21.18004475875848, 1.41546397303315, 0};
Point(p15 + 38) = {21.21281872335054, 1.49458732284403, 0};
Point(p15 + 39) = {21.23281156715333, 1.577863510539273, 0};
Spline(15) = {11, p15 + 1, p15 + 2, p15 + 3, p15 + 4, p15 + 5, p15 + 6, p15 + 7, p15 + 8, p15 + 9, p15 + 10, p15 + 11, p15 + 12, p15 + 13, p15 + 14, p15 + 15, p15 + 16, p15 + 17, p15 + 18, p15 + 19, p15 + 20, p15 + 21, p15 + 22, p15 + 23, p15 + 24, p15 + 25, p15 + 26, p15 + 27, p15 + 28, p15 + 29, p15 + 30, p15 + 31, p15 + 32, p15 + 33, p15 + 34, p15 + 35, p15 + 36, p15 + 37, p15 + 38, p15 + 39, 11};
p16 = newp;
Point(p16 + 1) = {8.316936968564036, 3.680341708096562, 0};
Point(p16 + 2) = {8.284228559173878, 3.816582038209413, 0};
Point(p16 + 3) = {8.230610161421698, 3.946028301255442, 0};
Point(p16 + 4) = {8.157402038209414, 4.06549310063094, 0};
Point(p16 + 5) = {8.066406816494343, 4.172034816494344, 0};
Point(p16 + 6) = {7.95986510063094, 4.263030038209413, 0};
Point(p16 + 7) = {7.840400301255443, 4.336238161421697, 0};
Point(p16 + 8) = {7.710954038209413, 4.389856559173878, 0};
Point(p16 + 9) = {7.574713708096562, 4.422564968564036, 0};
Point(p16 + 10) = {7.435034, 4.433558000000001, 0};
Point(p16 + 11) = {7.295354291903438, 4.422564968564036, 0};
Point(p16 + 12) = {7.159113961790587, 4.389856559173878, 0};
Point(p16 + 13) = {7.029667698744557, 4.336238161421697, 0};
Point(p16 + 14) = {6.91020289936906, 4.263030038209413, 0};
Point(p16 + 15) = {6.803661183505657, 4.172034816494344, 0};
Point(p16 + 16) = {6.712665961790587, 4.06549310063094, 0};
Point(p16 + 17) = {6.639457838578303, 3.946028301255442, 0};
Point(p16 + 18) = {6.585839440826122, 3.816582038209413, 0};
Point(p16 + 19) = {6.553131031435964, 3.680341708096562, 0};
Point(p16 + 20) = {6.542138, 3.540662, 0};
Point(p16 + 21) = {6.553131031435964, 3.400982291903438, 0};
Point(p16 + 22) = {6.585839440826122, 3.264741961790587, 0};
Point(p16 + 23) = {6.639457838578303, 3.135295698744558, 0};
Point(p16 + 24) = {6.712665961790587, 3.01583089936906, 0};
Point(p16 + 25) = {6.803661183505656, 2.909289183505657, 0};
Point(p16 + 26) = {6.91020289936906, 2.818293961790587, 0};
Point(p16 + 27) = {7.029667698744557, 2.745085838578303, 0};
Point(p16 + 28) = {7.159113961790586, 2.691467440826123, 0};
Point(p16 + 29) = {7.295354291903438, 2.658759031435964, 0};
Point(p16 + 30) = {7.435034, 2.647766, 0};
Point(p16 + 31) = {7.574713708096562, 2.658759031435964, 0};
Point(p16 + 32) = {7.710954038209413, 2.691467440826123, 0};
Point(p16 + 33) = {7.840400301255443, 2.745085838578303, 0};
Point(p16 + 34) = {7.95986510063094, 2.818293961790587, 0};
Point(p16 + 35) = {8.066406816494343, 2.909289183505656, 0};
Point(p16 + 36) = {8.157402038209414, 3.01583089936906, 0};
Point(p16 + 37) = {8.230610161421696, 3.135295698744557, 0};
Point(p16 + 38) = {8.284228559173878, 3.264741961790587, 0};
Point(p16 + 39) = {8.316936968564036, 3.400982291903438, 0};
Spline(16) = {12, p16 + 1, p16 + 2, p16 + 3, p16 + 4, p16 + 5, p16 + 6, p16 + 7, p16 + 8, p16 + 9, p16 + 10, p16 + 11, p16 + 12, p16 + 13, p16 + 14, p16 + 15, p16 + 16, p16 + 17, p16 + 18, p16 + 19, p16 + 20, p16 + 21, p16 + 22, p16 + 23, p16 + 24, p16 + 25, p16 + 26, p16 + 27, p16 + 28, p16 + 29, p16 + 30, p16 + 31, p16 + 32, p16 + 33, p16 + 34, p16 + 35, p16 + 36, p16 + 37, p16 + 38, p16 + 39, 12};
Line(17) = {11, 8};
Line(18) = {12, 9};
Curve Loop(1) = {-1, 4, 3, -2};
Plane Surface(1) = {1};
Curve Loop(2) = {-5, 1, 7, -6};
Plane Surface(2) = {2};
Curve Loop(3) = {-2, 7, 9, -8, -10, -11};
Plane Surface(3) = {3};
Curve Loop(4) = {-12, 3, 8, -13};
Plane Surface(4) = {4};
Curve Loop(5) = {-4, 5, 14, -12, -15, -16};
Plane Surface(5) = {5};
Curve Loop(6) = {-6, 14, 13, -9};
Plane Surface(6) = {6};
Curve Loop(7) = {-10, -17, 15, 17};
Surface(7) = {7};
Curve Loop(8) = {-11, -18, 16, 18};
Surface(8) = {8};
Surface Loop(1) = {1, 2, 3, 4, 5, 6, 7, 8};
Volume(1) = {1};
Physical Surface("INFLOW") = {1};
Physical Surface("OUTFLOW") = {6};
Physical Surface("OBSTACLE") = {7, 8};
Physical Surface("WALL_Y") = {2, 4};
Physical Surface("WALL_Z") = {3, 5};
Physical Volume("FLUID") = {1};
