cl__1 = 0.304673;
cl__2 = 0.588645;
cl__3 = 3.921956;
cl__4 = 3.579278;
cl__5 = 0.053223;
cl__6 = 0.148824;
Point(1) = {0.712019, -3.990348, 1, cl__1};
Point(2) = {0.712019, -3.990348, 0, cl__1};
Point(3) = {0.712019, 4.738266, 1, cl__2};
Point(4) = {0.712019, 4.738266, 0, cl__2};
Point(5) = {38.521294, -3.990348, 0, cl__3};
Point(6) = {38.521294, -3.990348, 1, cl__3};
Point(7) = {38.521294, 4.738266, 1, cl__4};
Point(8) = {5.829398, -2.677417, 1, cl__5};
Point(9) = {17.399233, 2.115524999999999, 1, cl__6};
Point(10) = {38.521294, 4.738266, 0, cl__4};
Point(11) = {5.829398, -2.677417, 0, cl__5};
Point(12) = {17.399233, 2.115524999999999, 0, cl__6};
Line(1) = {2, 1};
Line(2) = {1, 3};
Line(3) = {4, 3};
Line(4) = {2, 4};
Line(5) = {2, 5};
Line(6) = {5, 6};
Line(7) = {1, 6};
Line(8) = {3, 7};
Line(9) = {6, 7};
p10 = newp;
Point(p10 + 1) = {5.82284536551495, -2.594157884671638, 1};
Point(p10 + 2) = {5.80334880966777, -2.512948885083822, 1};
Point(p10 + 3) = {5.771388402368775, -2.435789636323621, 1};
Point(p10 + 4) = {5.727751114916178, -2.364580055172377, 1};
Point(p10 + 5) = {5.673511442150916, -2.301073557849084, 1};
Point(p10 + 6) = {5.610004944827623, -2.246833885083822, 1};
Point(p10 + 7) = {5.538795363676379, -2.203196597631225, 1};
Point(p10 + 8) = {5.461636114916178, -2.17123619033223, 1};
Point(p10 + 9) = {5.380427115328362, -2.15173963448505, 1};
Point(p10 + 10) = {5.297168, -2.145187, 1};
Point(p10 + 11) = {5.213908884671638, -2.15173963448505, 1};
Point(p10 + 12) = {5.132699885083822, -2.17123619033223, 1};
Point(p10 + 13) = {5.055540636323621, -2.203196597631225, 1};
Point(p10 + 14) = {4.984331055172377, -2.246833885083822, 1};
Point(p10 + 15) = {4.920824557849084, -2.301073557849084, 1};
Point(p10 + 16) = {4.866584885083822, -2.364580055172377, 1};
Point(p10 + 17) = {4.822947597631225, -2.435789636323621, 1};
Point(p10 + 18) = {4.79098719033223, -2.512948885083822, 1};
Point(p10 + 19) = {4.77149063448505, -2.594157884671638, 1};
Point(p10 + 20) = {4.764938, -2.677417, 1};
Point(p10 + 21) = {4.77149063448505, -2.760676115328362, 1};
Point(p10 + 22) = {4.79098719033223, -2.841885114916179, 1};
Point(p10 + 23) = {4.822947597631225, -2.919044363676379, 1};
Point(p10 + 24) = {4.866584885083822, -2.990253944827623, 1};
Point(p10 + 25) = {4.920824557849084, -3.053760442150916, 1};
Point(p10 + 26) = {4.984331055172377, -3.108000114916178, 1};
Point(p10 + 27) = {5.055540636323621, -3.151637402368775, 1};
Point(p10 + 28) = {5.132699885083822, -3.18359780966777, 1};
Point(p10 + 29) = {5.213908884671638, -3.20309436551495, 1};
Point(p10 + 30) = {5.297168, -3.209647, 1};
Point(p10 + 31) = {5.380427115328362, -3.20309436551495, 1};
Point(p10 + 32) = {5.461636114916178, -3.18359780966777, 1};
Point(p10 + 33) = {5.538795363676379, -3.151637402368775, 1};
Point(p10 + 34) = {5.610004944827623, -3.108000114916178, 1};
Point(p10 + 35) = {5.673511442150916, -3.053760442150916, 1};
Point(p10 + 36) = {5.727751114916178, -2.990253944827623, 1};
Point(p10 + 37) = {5.771388402368775, -2.919044363676379, 1};
Point(p10 + 38) = {5.80334880966777, -2.841885114916178, 1};
Point(p10 + 39) = {5.82284536551495, -2.760676115328363, 1};
Spline(10) = {8, p10 + 1, p10 + 2, p10 + 3, p10 + 4, p10 + 5, p10 + 6, p10 + 7, p10 + 8, p10 + 9, p10 + 10, p10 + 11, p10 + 12, p10 + 13, p10 + 14, p10 + 15, p10 + 16, p10 + 17, p10 + 18, p10 + 19, p10 + 20, p10 + 21, p10 + 22, p10 + 23, p10 + 24, p10 + 25, p10 + 26, p10 + 27, p10 + 28, p10 + 29, p10 + 30, p10 + 31, p10 + 32, p10 + 33, p10 + 34, p10 + 35, p10 + 36, p10 + 37, p10 + 38, p10 + 39, 8};
p11 = newp;
Point(p11 + 1) = {17.38091025907233, 2.348337497554868, 1};
Point(p11 + 2) = {17.32639320298065, 2.575417378759555, 1};
Point(p11 + 3) = {17.23702422257767, 2.791173183303882, 1};
Point(p11 + 4) = {17.11500387875956, 2.990292287227507, 1};
Point(p11 + 5) = {16.96333671735341, 3.167871717353411, 1};
Point(p11 + 6) = {16.78575728722751, 3.319538878759555, 1};
Point(p11 + 7) = {16.58663818330388, 3.441559222577669, 1};
Point(p11 + 8) = {16.37088237875955, 3.530928202980648, 1};
Point(p11 + 9) = {16.14380249755487, 3.58544525907233, 1};
Point(p11 + 10) = {15.91099, 3.603768, 1};
Point(p11 + 11) = {15.67817750244513, 3.585445259072329, 1};
Point(p11 + 12) = {15.45109762124044, 3.530928202980648, 1};
Point(p11 + 13) = {15.23534181669612, 3.441559222577669, 1};
Point(p11 + 14) = {15.03622271277249, 3.319538878759555, 1};
Point(p11 + 15) = {14.85864328264659, 3.167871717353411, 1};
Point(p11 + 16) = {14.70697612124044, 2.990292287227507, 1};
Point(p11 + 17) = {14.58495577742233, 2.791173183303882, 1};
Point(p11 + 18) = {14.49558679701935, 2.575417378759555, 1};
Point(p11 + 19) = {14.44106974092767, 2.348337497554868, 1};
Point(p11 + 20) = {14.422747, 2.115525, 1};
Point(p11 + 21) = {14.44106974092767, 1.882712502445132, 1};
Point(p11 + 22) = {14.49558679701935, 1.655632621240445, 1};
Point(p11 + 23) = {14.58495577742233, 1.439876816696118, 1};
Point(p11 + 24) = {14.70697612124044, 1.240757712772493, 1};
Point(p11 + 25) = {14.85864328264659, 1.063178282646589, 1};
Point(p11 + 26) = {15.03622271277249, 0.9115111212404452, 1};
Point(p11 + 27) = {15.23534181669612, 0.7894907774223308, 1};
Point(p11 + 28) = {15.45109762124044, 0.7001217970193516, 1};
Point(p11 + 29) = {15.67817750244513, 0.6456047409276704, 1};
Point(p11 + 30) = {15.91099, 0.6272819999999999, 1};
Point(p11 + 31) = {16.14380249755487, 0.6456047409276702, 1};
Point(p11 + 32) = {16.37088237875955, 0.7001217970193516, 1};
Point(p11 + 33) = {16.58663818330388, 0.7894907774223308, 1};
Point(p11 + 34) = {16.78575728722751, 0.9115111212404448, 1};
Point(p11 + 35) = {16.96333671735341, 1.063178282646589, 1};
Point(p11 + 36) = {17.11500387875956, 1.240757712772492, 1};
Point(p11 + 37) = {17.23702422257767, 1.439876816696117, 1};
Point(p11 + 38) = {17.32639320298065, 1.655632621240445, 1};
Point(p11 + 39) = {17.38091025907233, 1.882712502445131, 1};
Spline(11) = {9, p11 + 1, p11 + 2, p11 + 3, p11 + 4, p11 + 5, p11 + 6, p11 + 7, p11 + 8, p11 + 9, p11 + 10, p11 + 11, p11 + 12, p11 + 13, p11 + 14, p11 + 15, p11 + 16, p11 + 17, p11 + 18, p11 + 19, p11 + 20, p11 + 21, p11 + 22, p11 + 23, p11 + 24, p11 + 25, p11 + 26, p11 + 27, p11 + 28, p11 + 29, p11 + 30, p11 + 31, p11 + 32, p11 + 33, p11 + 34, p11 + 35, p11 + 36, p11 + 37, p11 + 38, p11 + 39, 9};
Line(12) = {4, 10};
Line(13) = {10, 7};
Line(14) = {5, 10};
p15 = newp;
Point(p15 + 1) = {5.82284536551495, -2.594157884671638, 0};
Point(p15 + 2) = {5.80334880966777, -2.512948885083822, 0};
Point(p15 + 3) = {5.771388402368775, -2.435789636323621, 0};
Point(p15 + 4) = {5.727751114916178, -2.364580055172377, 0};
Point(p15 + 5) = {5.673511442150916, -2.301073557849084, 0};
Point(p15 + 6) = {5.610004944827623, -2.246833885083822, 0};
Point(p15 + 7) = {5.538795363676379, -2.203196597631225, 0};
Point(p15 + 8) = {5.461636114916178, -2.17123619033223, 0};
Point(p15 + 9) = {5.380427115328362, -2.15173963448505, 0};
Point(p15 + 10) = {5.297168, -2.145187, 0};
Point(p15 + 11) = {5.213908884671638, -2.15173963448505, 0};
Point(p15 + 12) = {5.132699885083822, -2.17123619033223, 0};
Point(p15 + 13) = {5.055540636323621, -2.203196597631225, 0};
Point(p15 + 14) = {4.984331055172377, -2.246833885083822, 0};
Point(p15 + 15) = {4.920824557849084, -2.301073557849084, 0};
Point(p15 + 16) = {4.866584885083822, -2.364580055172377, 0};
Point(p15 + 17) = {4.822947597631225, -2.435789636323621, 0};
Point(p15 + 18) = {4.79098719033223, -2.512948885083822, 0};
Point(p15 + 19) = {4.77149063448505, -2.594157884671638, 0};
Point(p15 + 20) = {4.764938, -2.677417, 0};
Point(p15 + 21) = {4.77149063448505, -2.760676115328362, 0};
Point(p15 + 22) = {4.79098719033223, -2.841885114916179, 0};
Point(p15 + 23) = {4.822947597631225, -2.919044363676379, 0};
Point(p15 + 24) = {4.866584885083822, -2.990253944827623, 0};
Point(p15 + 25) = {4.920824557849084, -3.053760442150916, 0};
Point(p15 + 26) = {4.984331055172377, -3.108000114916178, 0};
Point(p15 + 27) = {5.055540636323621, -3.151637402368775, 0};
Point(p15 + 28) = {5.132699885083822, -3.18359780966777, 0};
Point(p15 + 29) = {5.213908884671638, -3.20309436551495, 0};
Point(p15 + 30) = {5.297168, -3.209647, 0};
Point(p15 + 31) = {5.380427115328362, -3.20309436551495, 0};
Point(p15 + 32) = {5.461636114916178, -3.18359780966777, 0};
Point(p15 + 33) = {5.538795363676379, -3.151637402368775, 0};
Point(p15 + 34) = {5.610004944827623, -3.108000114916178, 0};
Point(p15 + 35) = {5.673511442150916, -3.053760442150916, 0};
Point(p15 + 36) = {5.727751114916178, -2.990253944827623, 0};
Point(p15 + 37) = {5.771388402368775, -2.919044363676379, 0};
Point(p15 + 38) = {5.80334880966777, -2.841885114916178, 0};
Point(p15 + 39) = {5.82284536551495, -2.760676115328363, 0};
Spline(15) = {11, p15 + 1, p15 + 2, p15 + 3, p15 + 4, p15 + 5, p15 + 6, p15 + 7, p15 + 8, p15 + 9, p15 + 10, p15 + 11, p15 + 12, p15 + 13, p15 + 14, p15 + 15, p15 + 16, p15 + 17, p15 + 18, p15 + 19, p15 + 20, p15 + 21, p15 + 22, p15 + 23, p15 + 24, p15 + 25, p15 + 26, p15 + 27, p15 + 28, p15 + 29, p15 + 30, p15 + 31, p15 + 32, p15 + 33, p15 + 34, p15 + 35, p15 + 36, p15 + 37, p15 + 38, p15 + 39, 11};
p16 = newp;
Point(p16 + 1) = {17.38091025907233, 2.348337497554868, 0};
Point(p16 + 2) = {17.32639320298065, 2.575417378759555, 0};
Point(p16 + 3) = {17.23702422257767, 2.791173183303882, 0};
Point(p16 + 4) = {17.11500387875956, 2.990292287227507, 0};
Point(p16 + 5) = {16.96333671735341, 3.167871717353411, 0};
Point(p16 + 6) = {16.78575728722751, 3.319538878759555, 0};
Point(p16 + 7) = {16.58663818330388, 3.441559222577669, 0};
Point(p16 + 8) = {16.37088237875955, 3.530928202980648, 0};
Point(p16 + 9) = {16.14380249755487, 3.58544525907233, 0};
Point(p16 + 10) = {15.91099, 3.603768, 0};
Point(p16 + 11) = {15.67817750244513, 3.585445259072329, 0};
Point(p16 + 12) = {15.45109762124044, 3.530928202980648, 0};
Point(p16 + 13) = {15.23534181669612, 3.441559222577669, 0};
Point(p16 + 14) = {15.03622271277249, 3.319538878759555, 0};
Point(p16 + 15) = {14.85864328264659, 3.167871717353411, 0};
Point(p16 + 16) = {14.70697612124044, 2.990292287227507, 0};
Point(p16 + 17) = {14.58495577742233, 2.791173183303882, 0};
Point(p16 + 18) = {14.49558679701935, 2.575417378759555, 0};
Point(p16 + 19) = {14.44106974092767, 2.348337497554868, 0};
Point(p16 + 20) = {14.422747, 2.115525, 0};
Point(p16 + 21) = {14.44106974092767, 1.882712502445132, 0};
Point(p16 + 22) = {14.49558679701935, 1.655632621240445, 0};
Point(p16 + 23) = {14.58495577742233, 1.439876816696118, 0};
Point(p16 + 24) = {14.70697612124044, 1.240757712772493, 0};
Point(p16 + 25) = {14.85864328264659, 1.063178282646589, 0};
Point(p16 + 26) = {15.03622271277249, 0.9115111212404452, 0};
Point(p16 + 27) = {15.23534181669612, 0.7894907774223308, 0};
Point(p16 + 28) = {15.45109762124044, 0.7001217970193516, 0};
Point(p16 + 29) = {15.67817750244513, 0.6456047409276704, 0};
Point(p16 + 30) = {15.91099, 0.6272819999999999, 0};
Point(p16 + 31) = {16.14380249755487, 0.6456047409276702, 0};
Point(p16 + 32) = {16.37088237875955, 0.7001217970193516, 0};
Point(p16 + 33) = {16.58663818330388, 0.7894907774223308, 0};
Point(p16 + 34) = {16.78575728722751, 0.9115111212404448, 0};
Point(p16 + 35) = {16.96333671735341, 1.063178282646589, 0};
Point(p16 + 36) = {17.11500387875956, 1.240757712772492, 0};
Point(p16 + 37) = {17.23702422257767, 1.439876816696117, 0};
Point(p16 + 38) = {17.32639320298065, 1.655632621240445, 0};
Point(p16 + 39) = {17.38091025907233, 1.882712502445131, 0};
Spline(16) = {12, p16 + 1, p16 + 2, p16 + 3, p16 + 4, p16 + 5, p16 + 6, p16 + 7, p16 + 8, p16 + 9, p16 + 10, p16 + 11, p16 + 12, p16 + 13, p16 + 14, p16 + 15, p16 + 16, p16 + 17, p16 + 18, p16 + 19, p16 + 20, p16 + 21, p16 + 22, p16 + 23, p16 + 24, p16 + 25, p16 + 26, p16 + 27, p16 + 28, p16 + 29, p16 + 30, p16 + 31, p16 + 32, p16 + 33, p16 + 34, p16 + 35, p16 + 36, p16 + 37, p16 + 38, p16 + 39, 12};
Line(17) = {11, 8};
Line(18) = {12, 9};
Curve Loop(1) = {-1, 4, 3, -2};
Plane Surface(1) = {1};
Curve Loop(2) = {-5, 1, 7, -6};
Plane Surface(2) = {2};
Curve Loop(3) = {-2, 7, 9, -8, -10, -11};
Plane Surface(3) = {3};
Curve Loop(4) = {-12, 3, 8, -13};
Plane Surface(4) = {4};
Curve Loop(5) = {-4, 5, 14, -12, -15, -16};
Plane Surface(5) = {5};
Curve Loop(6) = {-6, 14, 13, -9};
Plane Surface(6) = {6};
Curve Loop(7) = {-10, -17, 15, 17};
Surface(7) = {7};
Curve Loop(8) = {-11, -18, 16, 18};
Surface(8) = {8};
Surface Loop(1) = {1, 2, 3, 4, 5, 6, 7, 8};
Volume(1) = {1};
Physical Surface("INFLOW") = {1};
Physical Surface("OUTFLOW") = {6};
Physical Surface("OBSTACLE") = {7, 8};
Physical Surface("WALL_Y") = {2, 4};
Physical Surface("WALL_Z") = {3, 5};
Physical Volume("FLUID") = {1};
