cl__1 = 1.290755;
cl__2 = 0.945946;
cl__3 = 1.056291;
cl__4 = 0.946832;
cl__5 = 0.07573299999999999;
cl__6 = 0.09993;
Point(1) = {0.579143, -3.744754, 1, cl__1};
Point(2) = {0.579143, -3.744754, 0, cl__1};
Point(3) = {0.579143, 4.579908999999999, 1, cl__2};
Point(4) = {0.579143, 4.579908999999999, 0, cl__2};
Point(5) = {31.524114, -3.744754, 0, cl__3};
Point(6) = {31.524114, -3.744754, 1, cl__3};
Point(7) = {31.524114, 4.579908999999999, 1, cl__4};
Point(8) = {21.393263, 1.538786, 1, cl__5};
Point(9) = {12.973413, 2.775132, 1, cl__6};
Point(10) = {31.524114, 4.579908999999999, 0, cl__4};
Point(11) = {21.393263, 1.538786, 0, cl__5};
Point(12) = {12.973413, 2.775132, 0, cl__6};
Line(1) = {2, 1};
Line(2) = {1, 3};
Line(3) = {4, 3};
Line(4) = {2, 4};
Line(5) = {2, 5};
Line(6) = {5, 6};
Line(7) = {1, 6};
Line(8) = {3, 7};
Line(9) = {6, 7};
p10 = newp;
Point(p10 + 1) = {21.3839390479179, 1.657258044105523, 1};
Point(p10 + 2) = {21.35619677831626, 1.772812913298996, 1};
Point(p10 + 3) = {21.310719297944, 1.882605263196252, 1};
Point(p10 + 4) = {21.248626413299, 1.983931641762902, 1};
Point(p10 + 5) = {21.17144705727566, 2.074297057275664, 1};
Point(p10 + 6) = {21.0810816417629, 2.151476413298996, 1};
Point(p10 + 7) = {20.97975526319625, 2.213569297944004, 1};
Point(p10 + 8) = {20.869962913299, 2.25904677831626, 1};
Point(p10 + 9) = {20.75440804410552, 2.286789047917894, 1};
Point(p10 + 10) = {20.635936, 2.296113, 1};
Point(p10 + 11) = {20.51746395589448, 2.286789047917894, 1};
Point(p10 + 12) = {20.401909086701, 2.25904677831626, 1};
Point(p10 + 13) = {20.29211673680375, 2.213569297944004, 1};
Point(p10 + 14) = {20.1907903582371, 2.151476413298996, 1};
Point(p10 + 15) = {20.10042494272434, 2.074297057275665, 1};
Point(p10 + 16) = {20.02324558670101, 1.983931641762902, 1};
Point(p10 + 17) = {19.961152702056, 1.882605263196252, 1};
Point(p10 + 18) = {19.91567522168374, 1.772812913298996, 1};
Point(p10 + 19) = {19.88793295208211, 1.657258044105523, 1};
Point(p10 + 20) = {19.878609, 1.538786, 1};
Point(p10 + 21) = {19.88793295208211, 1.420313955894477, 1};
Point(p10 + 22) = {19.91567522168374, 1.304759086701004, 1};
Point(p10 + 23) = {19.961152702056, 1.194966736803749, 1};
Point(p10 + 24) = {20.02324558670101, 1.093640358237098, 1};
Point(p10 + 25) = {20.10042494272434, 1.003274942724336, 1};
Point(p10 + 26) = {20.1907903582371, 0.9260955867010042, 1};
Point(p10 + 27) = {20.29211673680375, 0.8640027020559961, 1};
Point(p10 + 28) = {20.401909086701, 0.8185252216837403, 1};
Point(p10 + 29) = {20.51746395589448, 0.7907829520821062, 1};
Point(p10 + 30) = {20.635936, 0.781459, 1};
Point(p10 + 31) = {20.75440804410552, 0.7907829520821061, 1};
Point(p10 + 32) = {20.869962913299, 0.8185252216837402, 1};
Point(p10 + 33) = {20.97975526319625, 0.8640027020559959, 1};
Point(p10 + 34) = {21.0810816417629, 0.9260955867010041, 1};
Point(p10 + 35) = {21.17144705727566, 1.003274942724335, 1};
Point(p10 + 36) = {21.248626413299, 1.093640358237098, 1};
Point(p10 + 37) = {21.310719297944, 1.194966736803748, 1};
Point(p10 + 38) = {21.35619677831626, 1.304759086701004, 1};
Point(p10 + 39) = {21.3839390479179, 1.420313955894477, 1};
Spline(10) = {8, p10 + 1, p10 + 2, p10 + 3, p10 + 4, p10 + 5, p10 + 6, p10 + 7, p10 + 8, p10 + 9, p10 + 10, p10 + 11, p10 + 12, p10 + 13, p10 + 14, p10 + 15, p10 + 16, p10 + 17, p10 + 18, p10 + 19, p10 + 20, p10 + 21, p10 + 22, p10 + 23, p10 + 24, p10 + 25, p10 + 26, p10 + 27, p10 + 28, p10 + 29, p10 + 30, p10 + 31, p10 + 32, p10 + 33, p10 + 34, p10 + 35, p10 + 36, p10 + 37, p10 + 38, p10 + 39, 8};
p11 = newp;
Point(p11 + 1) = {12.96110994644506, 2.931457117349168, 1};
Point(p11 + 2) = {12.92450372779026, 3.08393299149588, 1};
Point(p11 + 3) = {12.86449571062796, 3.228805160380229, 1};
Point(p11 + 4) = {12.78256349149588, 3.362506390401121, 1};
Point(p11 + 5) = {12.6807245135465, 3.481744513546498, 1};
Point(p11 + 6) = {12.56148639040112, 3.58358349149588, 1};
Point(p11 + 7) = {12.42778516038023, 3.66551571062796, 1};
Point(p11 + 8) = {12.28291299149588, 3.725523727790264, 1};
Point(p11 + 9) = {12.13043711734917, 3.762129946445062, 1};
Point(p11 + 10) = {11.974112, 3.774433, 1};
Point(p11 + 11) = {11.81778688265083, 3.762129946445062, 1};
Point(p11 + 12) = {11.66531100850412, 3.725523727790264, 1};
Point(p11 + 13) = {11.52043883961977, 3.66551571062796, 1};
Point(p11 + 14) = {11.38673760959888, 3.58358349149588, 1};
Point(p11 + 15) = {11.2674994864535, 3.481744513546498, 1};
Point(p11 + 16) = {11.16566050850412, 3.362506390401121, 1};
Point(p11 + 17) = {11.08372828937204, 3.228805160380229, 1};
Point(p11 + 18) = {11.02372027220974, 3.08393299149588, 1};
Point(p11 + 19) = {10.98711405355494, 2.931457117349168, 1};
Point(p11 + 20) = {10.974811, 2.775132, 1};
Point(p11 + 21) = {10.98711405355494, 2.618806882650833, 1};
Point(p11 + 22) = {11.02372027220974, 2.46633100850412, 1};
Point(p11 + 23) = {11.08372828937204, 2.321458839619772, 1};
Point(p11 + 24) = {11.16566050850412, 2.187757609598879, 1};
Point(p11 + 25) = {11.2674994864535, 2.068519486453502, 1};
Point(p11 + 26) = {11.38673760959888, 1.966680508504121, 1};
Point(p11 + 27) = {11.52043883961977, 1.88474828937204, 1};
Point(p11 + 28) = {11.66531100850412, 1.824740272209737, 1};
Point(p11 + 29) = {11.81778688265083, 1.788134053554939, 1};
Point(p11 + 30) = {11.974112, 1.775831, 1};
Point(p11 + 31) = {12.13043711734917, 1.788134053554938, 1};
Point(p11 + 32) = {12.28291299149588, 1.824740272209737, 1};
Point(p11 + 33) = {12.42778516038023, 1.88474828937204, 1};
Point(p11 + 34) = {12.56148639040112, 1.966680508504121, 1};
Point(p11 + 35) = {12.6807245135465, 2.068519486453502, 1};
Point(p11 + 36) = {12.78256349149588, 2.187757609598879, 1};
Point(p11 + 37) = {12.86449571062796, 2.321458839619771, 1};
Point(p11 + 38) = {12.92450372779026, 2.466331008504121, 1};
Point(p11 + 39) = {12.96110994644506, 2.618806882650832, 1};
Spline(11) = {9, p11 + 1, p11 + 2, p11 + 3, p11 + 4, p11 + 5, p11 + 6, p11 + 7, p11 + 8, p11 + 9, p11 + 10, p11 + 11, p11 + 12, p11 + 13, p11 + 14, p11 + 15, p11 + 16, p11 + 17, p11 + 18, p11 + 19, p11 + 20, p11 + 21, p11 + 22, p11 + 23, p11 + 24, p11 + 25, p11 + 26, p11 + 27, p11 + 28, p11 + 29, p11 + 30, p11 + 31, p11 + 32, p11 + 33, p11 + 34, p11 + 35, p11 + 36, p11 + 37, p11 + 38, p11 + 39, 9};
Line(12) = {4, 10};
Line(13) = {10, 7};
Line(14) = {5, 10};
p15 = newp;
Point(p15 + 1) = {21.3839390479179, 1.657258044105523, 0};
Point(p15 + 2) = {21.35619677831626, 1.772812913298996, 0};
Point(p15 + 3) = {21.310719297944, 1.882605263196252, 0};
Point(p15 + 4) = {21.248626413299, 1.983931641762902, 0};
Point(p15 + 5) = {21.17144705727566, 2.074297057275664, 0};
Point(p15 + 6) = {21.0810816417629, 2.151476413298996, 0};
Point(p15 + 7) = {20.97975526319625, 2.213569297944004, 0};
Point(p15 + 8) = {20.869962913299, 2.25904677831626, 0};
Point(p15 + 9) = {20.75440804410552, 2.286789047917894, 0};
Point(p15 + 10) = {20.635936, 2.296113, 0};
Point(p15 + 11) = {20.51746395589448, 2.286789047917894, 0};
Point(p15 + 12) = {20.401909086701, 2.25904677831626, 0};
Point(p15 + 13) = {20.29211673680375, 2.213569297944004, 0};
Point(p15 + 14) = {20.1907903582371, 2.151476413298996, 0};
Point(p15 + 15) = {20.10042494272434, 2.074297057275665, 0};
Point(p15 + 16) = {20.02324558670101, 1.983931641762902, 0};
Point(p15 + 17) = {19.961152702056, 1.882605263196252, 0};
Point(p15 + 18) = {19.91567522168374, 1.772812913298996, 0};
Point(p15 + 19) = {19.88793295208211, 1.657258044105523, 0};
Point(p15 + 20) = {19.878609, 1.538786, 0};
Point(p15 + 21) = {19.88793295208211, 1.420313955894477, 0};
Point(p15 + 22) = {19.91567522168374, 1.304759086701004, 0};
Point(p15 + 23) = {19.961152702056, 1.194966736803749, 0};
Point(p15 + 24) = {20.02324558670101, 1.093640358237098, 0};
Point(p15 + 25) = {20.10042494272434, 1.003274942724336, 0};
Point(p15 + 26) = {20.1907903582371, 0.9260955867010042, 0};
Point(p15 + 27) = {20.29211673680375, 0.8640027020559961, 0};
Point(p15 + 28) = {20.401909086701, 0.8185252216837403, 0};
Point(p15 + 29) = {20.51746395589448, 0.7907829520821062, 0};
Point(p15 + 30) = {20.635936, 0.781459, 0};
Point(p15 + 31) = {20.75440804410552, 0.7907829520821061, 0};
Point(p15 + 32) = {20.869962913299, 0.8185252216837402, 0};
Point(p15 + 33) = {20.97975526319625, 0.8640027020559959, 0};
Point(p15 + 34) = {21.0810816417629, 0.9260955867010041, 0};
Point(p15 + 35) = {21.17144705727566, 1.003274942724335, 0};
Point(p15 + 36) = {21.248626413299, 1.093640358237098, 0};
Point(p15 + 37) = {21.310719297944, 1.194966736803748, 0};
Point(p15 + 38) = {21.35619677831626, 1.304759086701004, 0};
Point(p15 + 39) = {21.3839390479179, 1.420313955894477, 0};
Spline(15) = {11, p15 + 1, p15 + 2, p15 + 3, p15 + 4, p15 + 5, p15 + 6, p15 + 7, p15 + 8, p15 + 9, p15 + 10, p15 + 11, p15 + 12, p15 + 13, p15 + 14, p15 + 15, p15 + 16, p15 + 17, p15 + 18, p15 + 19, p15 + 20, p15 + 21, p15 + 22, p15 + 23, p15 + 24, p15 + 25, p15 + 26, p15 + 27, p15 + 28, p15 + 29, p15 + 30, p15 + 31, p15 + 32, p15 + 33, p15 + 34, p15 + 35, p15 + 36, p15 + 37, p15 + 38, p15 + 39, 11};
p16 = newp;
Point(p16 + 1) = {12.96110994644506, 2.931457117349168, 0};
Point(p16 + 2) = {12.92450372779026, 3.08393299149588, 0};
Point(p16 + 3) = {12.86449571062796, 3.228805160380229, 0};
Point(p16 + 4) = {12.78256349149588, 3.362506390401121, 0};
Point(p16 + 5) = {12.6807245135465, 3.481744513546498, 0};
Point(p16 + 6) = {12.56148639040112, 3.58358349149588, 0};
Point(p16 + 7) = {12.42778516038023, 3.66551571062796, 0};
Point(p16 + 8) = {12.28291299149588, 3.725523727790264, 0};
Point(p16 + 9) = {12.13043711734917, 3.762129946445062, 0};
Point(p16 + 10) = {11.974112, 3.774433, 0};
Point(p16 + 11) = {11.81778688265083, 3.762129946445062, 0};
Point(p16 + 12) = {11.66531100850412, 3.725523727790264, 0};
Point(p16 + 13) = {11.52043883961977, 3.66551571062796, 0};
Point(p16 + 14) = {11.38673760959888, 3.58358349149588, 0};
Point(p16 + 15) = {11.2674994864535, 3.481744513546498, 0};
Point(p16 + 16) = {11.16566050850412, 3.362506390401121, 0};
Point(p16 + 17) = {11.08372828937204, 3.228805160380229, 0};
Point(p16 + 18) = {11.02372027220974, 3.08393299149588, 0};
Point(p16 + 19) = {10.98711405355494, 2.931457117349168, 0};
Point(p16 + 20) = {10.974811, 2.775132, 0};
Point(p16 + 21) = {10.98711405355494, 2.618806882650833, 0};
Point(p16 + 22) = {11.02372027220974, 2.46633100850412, 0};
Point(p16 + 23) = {11.08372828937204, 2.321458839619772, 0};
Point(p16 + 24) = {11.16566050850412, 2.187757609598879, 0};
Point(p16 + 25) = {11.2674994864535, 2.068519486453502, 0};
Point(p16 + 26) = {11.38673760959888, 1.966680508504121, 0};
Point(p16 + 27) = {11.52043883961977, 1.88474828937204, 0};
Point(p16 + 28) = {11.66531100850412, 1.824740272209737, 0};
Point(p16 + 29) = {11.81778688265083, 1.788134053554939, 0};
Point(p16 + 30) = {11.974112, 1.775831, 0};
Point(p16 + 31) = {12.13043711734917, 1.788134053554938, 0};
Point(p16 + 32) = {12.28291299149588, 1.824740272209737, 0};
Point(p16 + 33) = {12.42778516038023, 1.88474828937204, 0};
Point(p16 + 34) = {12.56148639040112, 1.966680508504121, 0};
Point(p16 + 35) = {12.6807245135465, 2.068519486453502, 0};
Point(p16 + 36) = {12.78256349149588, 2.187757609598879, 0};
Point(p16 + 37) = {12.86449571062796, 2.321458839619771, 0};
Point(p16 + 38) = {12.92450372779026, 2.466331008504121, 0};
Point(p16 + 39) = {12.96110994644506, 2.618806882650832, 0};
Spline(16) = {12, p16 + 1, p16 + 2, p16 + 3, p16 + 4, p16 + 5, p16 + 6, p16 + 7, p16 + 8, p16 + 9, p16 + 10, p16 + 11, p16 + 12, p16 + 13, p16 + 14, p16 + 15, p16 + 16, p16 + 17, p16 + 18, p16 + 19, p16 + 20, p16 + 21, p16 + 22, p16 + 23, p16 + 24, p16 + 25, p16 + 26, p16 + 27, p16 + 28, p16 + 29, p16 + 30, p16 + 31, p16 + 32, p16 + 33, p16 + 34, p16 + 35, p16 + 36, p16 + 37, p16 + 38, p16 + 39, 12};
Line(17) = {11, 8};
Line(18) = {12, 9};
Curve Loop(1) = {-1, 4, 3, -2};
Plane Surface(1) = {1};
Curve Loop(2) = {-5, 1, 7, -6};
Plane Surface(2) = {2};
Curve Loop(3) = {-2, 7, 9, -8, -10, -11};
Plane Surface(3) = {3};
Curve Loop(4) = {-12, 3, 8, -13};
Plane Surface(4) = {4};
Curve Loop(5) = {-4, 5, 14, -12, -15, -16};
Plane Surface(5) = {5};
Curve Loop(6) = {-6, 14, 13, -9};
Plane Surface(6) = {6};
Curve Loop(7) = {-10, -17, 15, 17};
Surface(7) = {7};
Curve Loop(8) = {-11, -18, 16, 18};
Surface(8) = {8};
Surface Loop(1) = {1, 2, 3, 4, 5, 6, 7, 8};
Volume(1) = {1};
Physical Surface("INFLOW") = {1};
Physical Surface("OUTFLOW") = {6};
Physical Surface("OBSTACLE") = {7, 8};
Physical Surface("WALL_Y") = {2, 4};
Physical Surface("WALL_Z") = {3, 5};
Physical Volume("FLUID") = {1};
