cl__1 = 0.934042;
cl__2 = 0.490923;
cl__3 = 1.946109;
cl__4 = 2.334292;
cl__5 = 0.14952;
cl__6 = 0.115742;
Point(1) = {0.892672, -4.389051, 1, cl__1};
Point(2) = {0.892672, -4.389051, 0, cl__1};
Point(3) = {0.892672, 5.020137999999999, 1, cl__2};
Point(4) = {0.892672, 5.020137999999999, 0, cl__2};
Point(5) = {39.945651, -4.389051, 0, cl__3};
Point(6) = {39.945651, -4.389051, 1, cl__3};
Point(7) = {39.945651, 5.020137999999999, 1, cl__4};
Point(8) = {29.695348, -0.5981430000000004, 1, cl__5};
Point(9) = {7.199788, 3.321759999999999, 1, cl__6};
Point(10) = {39.945651, 5.020137999999999, 0, cl__4};
Point(11) = {29.695348, -0.5981430000000004, 0, cl__5};
Point(12) = {7.199788, 3.321759999999999, 0, cl__6};
Line(1) = {2, 1};
Line(2) = {1, 3};
Line(3) = {4, 3};
Line(4) = {2, 4};
Line(5) = {2, 5};
Line(6) = {5, 6};
Line(7) = {1, 6};
Line(8) = {3, 7};
Line(9) = {6, 7};
p10 = newp;
Point(p10 + 1) = {29.67693958223453, -0.3642418750029167, 1};
Point(p10 + 2) = {29.62216760527755, -0.1361001719765899, 1};
Point(p10 + 3) = {29.5323807369795, 0.08066450319156981, 1};
Point(p10 + 4) = {29.40978982802341, 0.2807146847982104, 1};
Point(p10 + 5) = {29.25741347344369, 0.459124473443688, 1};
Point(p10 + 6) = {29.07900368479821, 0.6115008280234101, 1};
Point(p10 + 7) = {28.87895350319157, 0.7340917369794958, 1};
Point(p10 + 8) = {28.66218882802341, 0.8238786052775461, 1};
Point(p10 + 9) = {28.43404712499708, 0.8786505822345311, 1};
Point(p10 + 10) = {28.200146, 0.8970589999999999, 1};
Point(p10 + 11) = {27.96624487500292, 0.8786505822345309, 1};
Point(p10 + 12) = {27.73810317197659, 0.8238786052775463, 1};
Point(p10 + 13) = {27.52133849680843, 0.734091736979496, 1};
Point(p10 + 14) = {27.32128831520179, 0.6115008280234101, 1};
Point(p10 + 15) = {27.14287852655631, 0.4591244734436882, 1};
Point(p10 + 16) = {26.99050217197659, 0.2807146847982106, 1};
Point(p10 + 17) = {26.8679112630205, 0.08066450319156993, 1};
Point(p10 + 18) = {26.77812439472245, -0.1361001719765897, 1};
Point(p10 + 19) = {26.72335241776547, -0.3642418750029165, 1};
Point(p10 + 20) = {26.704944, -0.5981429999999998, 1};
Point(p10 + 21) = {26.72335241776547, -0.832044124997083, 1};
Point(p10 + 22) = {26.77812439472245, -1.06018582802341, 1};
Point(p10 + 23) = {26.8679112630205, -1.276950503191569, 1};
Point(p10 + 24) = {26.99050217197659, -1.47700068479821, 1};
Point(p10 + 25) = {27.14287852655631, -1.655410473443688, 1};
Point(p10 + 26) = {27.32128831520179, -1.80778682802341, 1};
Point(p10 + 27) = {27.52133849680843, -1.930377736979496, 1};
Point(p10 + 28) = {27.73810317197659, -2.020164605277546, 1};
Point(p10 + 29) = {27.96624487500292, -2.074936582234531, 1};
Point(p10 + 30) = {28.200146, -2.093345, 1};
Point(p10 + 31) = {28.43404712499708, -2.074936582234531, 1};
Point(p10 + 32) = {28.66218882802341, -2.020164605277546, 1};
Point(p10 + 33) = {28.87895350319157, -1.930377736979496, 1};
Point(p10 + 34) = {29.07900368479821, -1.80778682802341, 1};
Point(p10 + 35) = {29.25741347344369, -1.655410473443689, 1};
Point(p10 + 36) = {29.40978982802341, -1.477000684798211, 1};
Point(p10 + 37) = {29.5323807369795, -1.27695050319157, 1};
Point(p10 + 38) = {29.62216760527755, -1.06018582802341, 1};
Point(p10 + 39) = {29.67693958223453, -0.8320441249970836, 1};
Spline(10) = {8, p10 + 1, p10 + 2, p10 + 3, p10 + 4, p10 + 5, p10 + 6, p10 + 7, p10 + 8, p10 + 9, p10 + 10, p10 + 11, p10 + 12, p10 + 13, p10 + 14, p10 + 15, p10 + 16, p10 + 17, p10 + 18, p10 + 19, p10 + 20, p10 + 21, p10 + 22, p10 + 23, p10 + 24, p10 + 25, p10 + 26, p10 + 27, p10 + 28, p10 + 29, p10 + 30, p10 + 31, p10 + 32, p10 + 33, p10 + 34, p10 + 35, p10 + 36, p10 + 37, p10 + 38, p10 + 39, 8};
p11 = newp;
Point(p11 + 1) = {7.185538251483283, 3.502820222092399, 1};
Point(p11 + 2) = {7.14313988203382, 3.679422140612457, 1};
Point(p11 + 3) = {7.073636880219576, 3.847217230218046, 1};
Point(p11 + 4) = {6.978740640612457, 4.002073818923102, 1};
Point(p11 + 5) = {6.860787823574153, 4.140178823574153, 1};
Point(p11 + 6) = {6.722682818923102, 4.258131640612457, 1};
Point(p11 + 7) = {6.567826230218047, 4.353027880219576, 1};
Point(p11 + 8) = {6.400031140612457, 4.42253088203382, 1};
Point(p11 + 9) = {6.223429222092399, 4.464929251483284, 1};
Point(p11 + 10) = {6.042369, 4.479179, 1};
Point(p11 + 11) = {5.861308777907601, 4.464929251483284, 1};
Point(p11 + 12) = {5.684706859387543, 4.42253088203382, 1};
Point(p11 + 13) = {5.516911769781953, 4.353027880219576, 1};
Point(p11 + 14) = {5.362055181076898, 4.258131640612457, 1};
Point(p11 + 15) = {5.223950176425848, 4.140178823574153, 1};
Point(p11 + 16) = {5.105997359387542, 4.002073818923102, 1};
Point(p11 + 17) = {5.011101119780424, 3.847217230218047, 1};
Point(p11 + 18) = {4.94159811796618, 3.679422140612457, 1};
Point(p11 + 19) = {4.899199748516716, 3.502820222092399, 1};
Point(p11 + 20) = {4.88495, 3.32176, 1};
Point(p11 + 21) = {4.899199748516716, 3.140699777907601, 1};
Point(p11 + 22) = {4.94159811796618, 2.964097859387542, 1};
Point(p11 + 23) = {5.011101119780423, 2.796302769781954, 1};
Point(p11 + 24) = {5.105997359387542, 2.641446181076898, 1};
Point(p11 + 25) = {5.223950176425847, 2.503341176425847, 1};
Point(p11 + 26) = {5.362055181076898, 2.385388359387543, 1};
Point(p11 + 27) = {5.516911769781953, 2.290492119780423, 1};
Point(p11 + 28) = {5.684706859387543, 2.220989117966179, 1};
Point(p11 + 29) = {5.861308777907601, 2.178590748516716, 1};
Point(p11 + 30) = {6.042369, 2.164341, 1};
Point(p11 + 31) = {6.223429222092399, 2.178590748516716, 1};
Point(p11 + 32) = {6.400031140612457, 2.220989117966179, 1};
Point(p11 + 33) = {6.567826230218047, 2.290492119780423, 1};
Point(p11 + 34) = {6.722682818923102, 2.385388359387543, 1};
Point(p11 + 35) = {6.860787823574152, 2.503341176425847, 1};
Point(p11 + 36) = {6.978740640612457, 2.641446181076898, 1};
Point(p11 + 37) = {7.073636880219576, 2.796302769781953, 1};
Point(p11 + 38) = {7.14313988203382, 2.964097859387542, 1};
Point(p11 + 39) = {7.185538251483283, 3.140699777907601, 1};
Spline(11) = {9, p11 + 1, p11 + 2, p11 + 3, p11 + 4, p11 + 5, p11 + 6, p11 + 7, p11 + 8, p11 + 9, p11 + 10, p11 + 11, p11 + 12, p11 + 13, p11 + 14, p11 + 15, p11 + 16, p11 + 17, p11 + 18, p11 + 19, p11 + 20, p11 + 21, p11 + 22, p11 + 23, p11 + 24, p11 + 25, p11 + 26, p11 + 27, p11 + 28, p11 + 29, p11 + 30, p11 + 31, p11 + 32, p11 + 33, p11 + 34, p11 + 35, p11 + 36, p11 + 37, p11 + 38, p11 + 39, 9};
Line(12) = {4, 10};
Line(13) = {10, 7};
Line(14) = {5, 10};
p15 = newp;
Point(p15 + 1) = {29.67693958223453, -0.3642418750029167, 0};
Point(p15 + 2) = {29.62216760527755, -0.1361001719765899, 0};
Point(p15 + 3) = {29.5323807369795, 0.08066450319156981, 0};
Point(p15 + 4) = {29.40978982802341, 0.2807146847982104, 0};
Point(p15 + 5) = {29.25741347344369, 0.459124473443688, 0};
Point(p15 + 6) = {29.07900368479821, 0.6115008280234101, 0};
Point(p15 + 7) = {28.87895350319157, 0.7340917369794958, 0};
Point(p15 + 8) = {28.66218882802341, 0.8238786052775461, 0};
Point(p15 + 9) = {28.43404712499708, 0.8786505822345311, 0};
Point(p15 + 10) = {28.200146, 0.8970589999999999, 0};
Point(p15 + 11) = {27.96624487500292, 0.8786505822345309, 0};
Point(p15 + 12) = {27.73810317197659, 0.8238786052775463, 0};
Point(p15 + 13) = {27.52133849680843, 0.734091736979496, 0};
Point(p15 + 14) = {27.32128831520179, 0.6115008280234101, 0};
Point(p15 + 15) = {27.14287852655631, 0.4591244734436882, 0};
Point(p15 + 16) = {26.99050217197659, 0.2807146847982106, 0};
Point(p15 + 17) = {26.8679112630205, 0.08066450319156993, 0};
Point(p15 + 18) = {26.77812439472245, -0.1361001719765897, 0};
Point(p15 + 19) = {26.72335241776547, -0.3642418750029165, 0};
Point(p15 + 20) = {26.704944, -0.5981429999999998, 0};
Point(p15 + 21) = {26.72335241776547, -0.832044124997083, 0};
Point(p15 + 22) = {26.77812439472245, -1.06018582802341, 0};
Point(p15 + 23) = {26.8679112630205, -1.276950503191569, 0};
Point(p15 + 24) = {26.99050217197659, -1.47700068479821, 0};
Point(p15 + 25) = {27.14287852655631, -1.655410473443688, 0};
Point(p15 + 26) = {27.32128831520179, -1.80778682802341, 0};
Point(p15 + 27) = {27.52133849680843, -1.930377736979496, 0};
Point(p15 + 28) = {27.73810317197659, -2.020164605277546, 0};
Point(p15 + 29) = {27.96624487500292, -2.074936582234531, 0};
Point(p15 + 30) = {28.200146, -2.093345, 0};
Point(p15 + 31) = {28.43404712499708, -2.074936582234531, 0};
Point(p15 + 32) = {28.66218882802341, -2.020164605277546, 0};
Point(p15 + 33) = {28.87895350319157, -1.930377736979496, 0};
Point(p15 + 34) = {29.07900368479821, -1.80778682802341, 0};
Point(p15 + 35) = {29.25741347344369, -1.655410473443689, 0};
Point(p15 + 36) = {29.40978982802341, -1.477000684798211, 0};
Point(p15 + 37) = {29.5323807369795, -1.27695050319157, 0};
Point(p15 + 38) = {29.62216760527755, -1.06018582802341, 0};
Point(p15 + 39) = {29.67693958223453, -0.8320441249970836, 0};
Spline(15) = {11, p15 + 1, p15 + 2, p15 + 3, p15 + 4, p15 + 5, p15 + 6, p15 + 7, p15 + 8, p15 + 9, p15 + 10, p15 + 11, p15 + 12, p15 + 13, p15 + 14, p15 + 15, p15 + 16, p15 + 17, p15 + 18, p15 + 19, p15 + 20, p15 + 21, p15 + 22, p15 + 23, p15 + 24, p15 + 25, p15 + 26, p15 + 27, p15 + 28, p15 + 29, p15 + 30, p15 + 31, p15 + 32, p15 + 33, p15 + 34, p15 + 35, p15 + 36, p15 + 37, p15 + 38, p15 + 39, 11};
p16 = newp;
Point(p16 + 1) = {7.185538251483283, 3.502820222092399, 0};
Point(p16 + 2) = {7.14313988203382, 3.679422140612457, 0};
Point(p16 + 3) = {7.073636880219576, 3.847217230218046, 0};
Point(p16 + 4) = {6.978740640612457, 4.002073818923102, 0};
Point(p16 + 5) = {6.860787823574153, 4.140178823574153, 0};
Point(p16 + 6) = {6.722682818923102, 4.258131640612457, 0};
Point(p16 + 7) = {6.567826230218047, 4.353027880219576, 0};
Point(p16 + 8) = {6.400031140612457, 4.42253088203382, 0};
Point(p16 + 9) = {6.223429222092399, 4.464929251483284, 0};
Point(p16 + 10) = {6.042369, 4.479179, 0};
Point(p16 + 11) = {5.861308777907601, 4.464929251483284, 0};
Point(p16 + 12) = {5.684706859387543, 4.42253088203382, 0};
Point(p16 + 13) = {5.516911769781953, 4.353027880219576, 0};
Point(p16 + 14) = {5.362055181076898, 4.258131640612457, 0};
Point(p16 + 15) = {5.223950176425848, 4.140178823574153, 0};
Point(p16 + 16) = {5.105997359387542, 4.002073818923102, 0};
Point(p16 + 17) = {5.011101119780424, 3.847217230218047, 0};
Point(p16 + 18) = {4.94159811796618, 3.679422140612457, 0};
Point(p16 + 19) = {4.899199748516716, 3.502820222092399, 0};
Point(p16 + 20) = {4.88495, 3.32176, 0};
Point(p16 + 21) = {4.899199748516716, 3.140699777907601, 0};
Point(p16 + 22) = {4.94159811796618, 2.964097859387542, 0};
Point(p16 + 23) = {5.011101119780423, 2.796302769781954, 0};
Point(p16 + 24) = {5.105997359387542, 2.641446181076898, 0};
Point(p16 + 25) = {5.223950176425847, 2.503341176425847, 0};
Point(p16 + 26) = {5.362055181076898, 2.385388359387543, 0};
Point(p16 + 27) = {5.516911769781953, 2.290492119780423, 0};
Point(p16 + 28) = {5.684706859387543, 2.220989117966179, 0};
Point(p16 + 29) = {5.861308777907601, 2.178590748516716, 0};
Point(p16 + 30) = {6.042369, 2.164341, 0};
Point(p16 + 31) = {6.223429222092399, 2.178590748516716, 0};
Point(p16 + 32) = {6.400031140612457, 2.220989117966179, 0};
Point(p16 + 33) = {6.567826230218047, 2.290492119780423, 0};
Point(p16 + 34) = {6.722682818923102, 2.385388359387543, 0};
Point(p16 + 35) = {6.860787823574152, 2.503341176425847, 0};
Point(p16 + 36) = {6.978740640612457, 2.641446181076898, 0};
Point(p16 + 37) = {7.073636880219576, 2.796302769781953, 0};
Point(p16 + 38) = {7.14313988203382, 2.964097859387542, 0};
Point(p16 + 39) = {7.185538251483283, 3.140699777907601, 0};
Spline(16) = {12, p16 + 1, p16 + 2, p16 + 3, p16 + 4, p16 + 5, p16 + 6, p16 + 7, p16 + 8, p16 + 9, p16 + 10, p16 + 11, p16 + 12, p16 + 13, p16 + 14, p16 + 15, p16 + 16, p16 + 17, p16 + 18, p16 + 19, p16 + 20, p16 + 21, p16 + 22, p16 + 23, p16 + 24, p16 + 25, p16 + 26, p16 + 27, p16 + 28, p16 + 29, p16 + 30, p16 + 31, p16 + 32, p16 + 33, p16 + 34, p16 + 35, p16 + 36, p16 + 37, p16 + 38, p16 + 39, 12};
Line(17) = {11, 8};
Line(18) = {12, 9};
Curve Loop(1) = {-1, 4, 3, -2};
Plane Surface(1) = {1};
Curve Loop(2) = {-5, 1, 7, -6};
Plane Surface(2) = {2};
Curve Loop(3) = {-2, 7, 9, -8, -10, -11};
Plane Surface(3) = {3};
Curve Loop(4) = {-12, 3, 8, -13};
Plane Surface(4) = {4};
Curve Loop(5) = {-4, 5, 14, -12, -15, -16};
Plane Surface(5) = {5};
Curve Loop(6) = {-6, 14, 13, -9};
Plane Surface(6) = {6};
Curve Loop(7) = {-10, -17, 15, 17};
Surface(7) = {7};
Curve Loop(8) = {-11, -18, 16, 18};
Surface(8) = {8};
Surface Loop(1) = {1, 2, 3, 4, 5, 6, 7, 8};
Volume(1) = {1};
Physical Surface("INFLOW") = {1};
Physical Surface("OUTFLOW") = {6};
Physical Surface("OBSTACLE") = {7, 8};
Physical Surface("WALL_Y") = {2, 4};
Physical Surface("WALL_Z") = {3, 5};
Physical Volume("FLUID") = {1};
