cl__1 = 0.31254;
cl__2 = 0.473527;
cl__3 = 3.987831;
cl__4 = 0.141441;
cl__5 = 0.121025;
Point(1) = {0.986638, -4.629027, 1, cl__1};
Point(2) = {0.986638, -4.629027, 0, cl__1};
Point(3) = {0.986638, 4.761258000000001, 1, cl__2};
Point(4) = {0.986638, 4.761258000000001, 0, cl__2};
Point(5) = {39.600953, -4.629027, 0, cl__3};
Point(6) = {39.600953, -4.629027, 1, cl__3};
Point(7) = {39.600953, 4.761258000000001, 1, cl__3};
Point(8) = {4.917046, -0.8501900000000003, 1, cl__4};
Point(9) = {17.625397, 0.5241079999999997, 1, cl__5};
Point(10) = {39.600953, 4.761258000000001, 0, cl__3};
Point(11) = {4.917046, -0.8501900000000003, 0, cl__4};
Point(12) = {17.625397, 0.5241079999999997, 0, cl__5};
Line(1) = {2, 1};
Line(2) = {1, 3};
Line(3) = {4, 3};
Line(4) = {2, 4};
Line(5) = {2, 5};
Line(6) = {5, 6};
Line(7) = {1, 6};
Line(8) = {3, 7};
Line(9) = {6, 7};
p10 = newp;
Point(p10 + 1) = {4.899632265821168, -0.628927528302447, 1};
Point(p10 + 2) = {4.847819847213028, -0.4131132729861307, 1};
Point(p10 + 3) = {4.76288453787727, -0.2080612972633877, 1};
Point(p10 + 4) = {4.64691772701387, -0.01882066130500315, 1};
Point(p10 + 5) = {4.502774902378064, 0.1499489023780645, 1};
Point(p10 + 6) = {4.334005338694997, 0.2940917270138694, 1};
Point(p10 + 7) = {4.144764702736612, 0.4100585378772692, 1};
Point(p10 + 8) = {3.939712727013869, 0.494993847213028, 1};
Point(p10 + 9) = {3.723898471697553, 0.5468062658211688, 1};
Point(p10 + 10) = {3.502636, 0.5642199999999999, 1};
Point(p10 + 11) = {3.281373528302447, 0.5468062658211685, 1};
Point(p10 + 12) = {3.065559272986131, 0.4949938472130282, 1};
Point(p10 + 13) = {2.860507297263387, 0.4100585378772694, 1};
Point(p10 + 14) = {2.671266661305003, 0.2940917270138694, 1};
Point(p10 + 15) = {2.502497097621935, 0.1499489023780647, 1};
Point(p10 + 16) = {2.358354272986131, -0.01882066130500293, 1};
Point(p10 + 17) = {2.242387462122731, -0.2080612972633875, 1};
Point(p10 + 18) = {2.157452152786972, -0.4131132729861305, 1};
Point(p10 + 19) = {2.105639734178832, -0.6289275283024469, 1};
Point(p10 + 20) = {2.088226, -0.8501899999999998, 1};
Point(p10 + 21) = {2.105639734178831, -1.071452471697553, 1};
Point(p10 + 22) = {2.157452152786972, -1.28726672701387, 1};
Point(p10 + 23) = {2.24238746212273, -1.492318702736612, 1};
Point(p10 + 24) = {2.35835427298613, -1.681559338694997, 1};
Point(p10 + 25) = {2.502497097621935, -1.850328902378064, 1};
Point(p10 + 26) = {2.671266661305003, -1.994471727013869, 1};
Point(p10 + 27) = {2.860507297263387, -2.110438537877269, 1};
Point(p10 + 28) = {3.06555927298613, -2.195373847213028, 1};
Point(p10 + 29) = {3.281373528302447, -2.247186265821169, 1};
Point(p10 + 30) = {3.502635999999999, -2.2646, 1};
Point(p10 + 31) = {3.723898471697553, -2.247186265821169, 1};
Point(p10 + 32) = {3.939712727013869, -2.195373847213028, 1};
Point(p10 + 33) = {4.144764702736612, -2.110438537877269, 1};
Point(p10 + 34) = {4.334005338694997, -1.994471727013869, 1};
Point(p10 + 35) = {4.502774902378064, -1.850328902378065, 1};
Point(p10 + 36) = {4.646917727013869, -1.681559338694997, 1};
Point(p10 + 37) = {4.76288453787727, -1.492318702736612, 1};
Point(p10 + 38) = {4.847819847213028, -1.28726672701387, 1};
Point(p10 + 39) = {4.899632265821168, -1.071452471697553, 1};
Spline(10) = {8, p10 + 1, p10 + 2, p10 + 3, p10 + 4, p10 + 5, p10 + 6, p10 + 7, p10 + 8, p10 + 9, p10 + 10, p10 + 11, p10 + 12, p10 + 13, p10 + 14, p10 + 15, p10 + 16, p10 + 17, p10 + 18, p10 + 19, p10 + 20, p10 + 21, p10 + 22, p10 + 23, p10 + 24, p10 + 25, p10 + 26, p10 + 27, p10 + 28, p10 + 29, p10 + 30, p10 + 31, p10 + 32, p10 + 33, p10 + 34, p10 + 35, p10 + 36, p10 + 37, p10 + 38, p10 + 39, 8};
p11 = newp;
Point(p11 + 1) = {17.61049685114024, 0.7134323420115443, 1};
Point(p11 + 2) = {17.56616329567666, 0.8980948903912971, 1};
Point(p11 + 3) = {17.4934879728794, 1.073548640338287, 1};
Point(p11 + 4) = {17.3942603903913, 1.235473338231209, 1};
Point(p11 + 5) = {17.27092386061068, 1.379881860610676, 1};
Point(p11 + 6) = {17.12651533823121, 1.503218390391297, 1};
Point(p11 + 7) = {16.96459064033829, 1.6024459728794, 1};
Point(p11 + 8) = {16.7891368903913, 1.675121295676661, 1};
Point(p11 + 9) = {16.60447434201155, 1.719454851140244, 1};
Point(p11 + 10) = {16.41515, 1.734355, 1};
Point(p11 + 11) = {16.22582565798846, 1.719454851140244, 1};
Point(p11 + 12) = {16.0411631096087, 1.675121295676661, 1};
Point(p11 + 13) = {15.86570935966171, 1.6024459728794, 1};
Point(p11 + 14) = {15.70378466176879, 1.503218390391297, 1};
Point(p11 + 15) = {15.55937613938933, 1.379881860610676, 1};
Point(p11 + 16) = {15.4360396096087, 1.235473338231209, 1};
Point(p11 + 17) = {15.3368120271206, 1.073548640338287, 1};
Point(p11 + 18) = {15.26413670432334, 0.8980948903912971, 1};
Point(p11 + 19) = {15.21980314885976, 0.7134323420115445, 1};
Point(p11 + 20) = {15.204903, 0.5241080000000001, 1};
Point(p11 + 21) = {15.21980314885976, 0.3347836579884559, 1};
Point(p11 + 22) = {15.26413670432334, 0.1501211096087026, 1};
Point(p11 + 23) = {15.3368120271206, -0.02533264033828664, 1};
Point(p11 + 24) = {15.4360396096087, -0.1872573382312086, 1};
Point(p11 + 25) = {15.55937613938933, -0.3316658606106755, 1};
Point(p11 + 26) = {15.70378466176879, -0.455002390391297, 1};
Point(p11 + 27) = {15.86570935966171, -0.5542299728793996, 1};
Point(p11 + 28) = {16.0411631096087, -0.6269052956766608, 1};
Point(p11 + 29) = {16.22582565798846, -0.6712388511402436, 1};
Point(p11 + 30) = {16.41515, -0.6861390000000001, 1};
Point(p11 + 31) = {16.60447434201155, -0.6712388511402438, 1};
Point(p11 + 32) = {16.7891368903913, -0.6269052956766608, 1};
Point(p11 + 33) = {16.96459064033829, -0.5542299728793998, 1};
Point(p11 + 34) = {17.12651533823121, -0.4550023903912972, 1};
Point(p11 + 35) = {17.27092386061068, -0.3316658606106758, 1};
Point(p11 + 36) = {17.3942603903913, -0.187257338231209, 1};
Point(p11 + 37) = {17.4934879728794, -0.02533264033828753, 1};
Point(p11 + 38) = {17.56616329567666, 0.1501211096087028, 1};
Point(p11 + 39) = {17.61049685114024, 0.3347836579884554, 1};
Spline(11) = {9, p11 + 1, p11 + 2, p11 + 3, p11 + 4, p11 + 5, p11 + 6, p11 + 7, p11 + 8, p11 + 9, p11 + 10, p11 + 11, p11 + 12, p11 + 13, p11 + 14, p11 + 15, p11 + 16, p11 + 17, p11 + 18, p11 + 19, p11 + 20, p11 + 21, p11 + 22, p11 + 23, p11 + 24, p11 + 25, p11 + 26, p11 + 27, p11 + 28, p11 + 29, p11 + 30, p11 + 31, p11 + 32, p11 + 33, p11 + 34, p11 + 35, p11 + 36, p11 + 37, p11 + 38, p11 + 39, 9};
Line(12) = {4, 10};
Line(13) = {10, 7};
Line(14) = {5, 10};
p15 = newp;
Point(p15 + 1) = {4.899632265821168, -0.628927528302447, 0};
Point(p15 + 2) = {4.847819847213028, -0.4131132729861307, 0};
Point(p15 + 3) = {4.76288453787727, -0.2080612972633877, 0};
Point(p15 + 4) = {4.64691772701387, -0.01882066130500315, 0};
Point(p15 + 5) = {4.502774902378064, 0.1499489023780645, 0};
Point(p15 + 6) = {4.334005338694997, 0.2940917270138694, 0};
Point(p15 + 7) = {4.144764702736612, 0.4100585378772692, 0};
Point(p15 + 8) = {3.939712727013869, 0.494993847213028, 0};
Point(p15 + 9) = {3.723898471697553, 0.5468062658211688, 0};
Point(p15 + 10) = {3.502636, 0.5642199999999999, 0};
Point(p15 + 11) = {3.281373528302447, 0.5468062658211685, 0};
Point(p15 + 12) = {3.065559272986131, 0.4949938472130282, 0};
Point(p15 + 13) = {2.860507297263387, 0.4100585378772694, 0};
Point(p15 + 14) = {2.671266661305003, 0.2940917270138694, 0};
Point(p15 + 15) = {2.502497097621935, 0.1499489023780647, 0};
Point(p15 + 16) = {2.358354272986131, -0.01882066130500293, 0};
Point(p15 + 17) = {2.242387462122731, -0.2080612972633875, 0};
Point(p15 + 18) = {2.157452152786972, -0.4131132729861305, 0};
Point(p15 + 19) = {2.105639734178832, -0.6289275283024469, 0};
Point(p15 + 20) = {2.088226, -0.8501899999999998, 0};
Point(p15 + 21) = {2.105639734178831, -1.071452471697553, 0};
Point(p15 + 22) = {2.157452152786972, -1.28726672701387, 0};
Point(p15 + 23) = {2.24238746212273, -1.492318702736612, 0};
Point(p15 + 24) = {2.35835427298613, -1.681559338694997, 0};
Point(p15 + 25) = {2.502497097621935, -1.850328902378064, 0};
Point(p15 + 26) = {2.671266661305003, -1.994471727013869, 0};
Point(p15 + 27) = {2.860507297263387, -2.110438537877269, 0};
Point(p15 + 28) = {3.06555927298613, -2.195373847213028, 0};
Point(p15 + 29) = {3.281373528302447, -2.247186265821169, 0};
Point(p15 + 30) = {3.502635999999999, -2.2646, 0};
Point(p15 + 31) = {3.723898471697553, -2.247186265821169, 0};
Point(p15 + 32) = {3.939712727013869, -2.195373847213028, 0};
Point(p15 + 33) = {4.144764702736612, -2.110438537877269, 0};
Point(p15 + 34) = {4.334005338694997, -1.994471727013869, 0};
Point(p15 + 35) = {4.502774902378064, -1.850328902378065, 0};
Point(p15 + 36) = {4.646917727013869, -1.681559338694997, 0};
Point(p15 + 37) = {4.76288453787727, -1.492318702736612, 0};
Point(p15 + 38) = {4.847819847213028, -1.28726672701387, 0};
Point(p15 + 39) = {4.899632265821168, -1.071452471697553, 0};
Spline(15) = {11, p15 + 1, p15 + 2, p15 + 3, p15 + 4, p15 + 5, p15 + 6, p15 + 7, p15 + 8, p15 + 9, p15 + 10, p15 + 11, p15 + 12, p15 + 13, p15 + 14, p15 + 15, p15 + 16, p15 + 17, p15 + 18, p15 + 19, p15 + 20, p15 + 21, p15 + 22, p15 + 23, p15 + 24, p15 + 25, p15 + 26, p15 + 27, p15 + 28, p15 + 29, p15 + 30, p15 + 31, p15 + 32, p15 + 33, p15 + 34, p15 + 35, p15 + 36, p15 + 37, p15 + 38, p15 + 39, 11};
p16 = newp;
Point(p16 + 1) = {17.61049685114024, 0.7134323420115443, 0};
Point(p16 + 2) = {17.56616329567666, 0.8980948903912971, 0};
Point(p16 + 3) = {17.4934879728794, 1.073548640338287, 0};
Point(p16 + 4) = {17.3942603903913, 1.235473338231209, 0};
Point(p16 + 5) = {17.27092386061068, 1.379881860610676, 0};
Point(p16 + 6) = {17.12651533823121, 1.503218390391297, 0};
Point(p16 + 7) = {16.96459064033829, 1.6024459728794, 0};
Point(p16 + 8) = {16.7891368903913, 1.675121295676661, 0};
Point(p16 + 9) = {16.60447434201155, 1.719454851140244, 0};
Point(p16 + 10) = {16.41515, 1.734355, 0};
Point(p16 + 11) = {16.22582565798846, 1.719454851140244, 0};
Point(p16 + 12) = {16.0411631096087, 1.675121295676661, 0};
Point(p16 + 13) = {15.86570935966171, 1.6024459728794, 0};
Point(p16 + 14) = {15.70378466176879, 1.503218390391297, 0};
Point(p16 + 15) = {15.55937613938933, 1.379881860610676, 0};
Point(p16 + 16) = {15.4360396096087, 1.235473338231209, 0};
Point(p16 + 17) = {15.3368120271206, 1.073548640338287, 0};
Point(p16 + 18) = {15.26413670432334, 0.8980948903912971, 0};
Point(p16 + 19) = {15.21980314885976, 0.7134323420115445, 0};
Point(p16 + 20) = {15.204903, 0.5241080000000001, 0};
Point(p16 + 21) = {15.21980314885976, 0.3347836579884559, 0};
Point(p16 + 22) = {15.26413670432334, 0.1501211096087026, 0};
Point(p16 + 23) = {15.3368120271206, -0.02533264033828664, 0};
Point(p16 + 24) = {15.4360396096087, -0.1872573382312086, 0};
Point(p16 + 25) = {15.55937613938933, -0.3316658606106755, 0};
Point(p16 + 26) = {15.70378466176879, -0.455002390391297, 0};
Point(p16 + 27) = {15.86570935966171, -0.5542299728793996, 0};
Point(p16 + 28) = {16.0411631096087, -0.6269052956766608, 0};
Point(p16 + 29) = {16.22582565798846, -0.6712388511402436, 0};
Point(p16 + 30) = {16.41515, -0.6861390000000001, 0};
Point(p16 + 31) = {16.60447434201155, -0.6712388511402438, 0};
Point(p16 + 32) = {16.7891368903913, -0.6269052956766608, 0};
Point(p16 + 33) = {16.96459064033829, -0.5542299728793998, 0};
Point(p16 + 34) = {17.12651533823121, -0.4550023903912972, 0};
Point(p16 + 35) = {17.27092386061068, -0.3316658606106758, 0};
Point(p16 + 36) = {17.3942603903913, -0.187257338231209, 0};
Point(p16 + 37) = {17.4934879728794, -0.02533264033828753, 0};
Point(p16 + 38) = {17.56616329567666, 0.1501211096087028, 0};
Point(p16 + 39) = {17.61049685114024, 0.3347836579884554, 0};
Spline(16) = {12, p16 + 1, p16 + 2, p16 + 3, p16 + 4, p16 + 5, p16 + 6, p16 + 7, p16 + 8, p16 + 9, p16 + 10, p16 + 11, p16 + 12, p16 + 13, p16 + 14, p16 + 15, p16 + 16, p16 + 17, p16 + 18, p16 + 19, p16 + 20, p16 + 21, p16 + 22, p16 + 23, p16 + 24, p16 + 25, p16 + 26, p16 + 27, p16 + 28, p16 + 29, p16 + 30, p16 + 31, p16 + 32, p16 + 33, p16 + 34, p16 + 35, p16 + 36, p16 + 37, p16 + 38, p16 + 39, 12};
Line(17) = {11, 8};
Line(18) = {12, 9};
Curve Loop(1) = {-1, 4, 3, -2};
Plane Surface(1) = {1};
Curve Loop(2) = {-5, 1, 7, -6};
Plane Surface(2) = {2};
Curve Loop(3) = {-2, 7, 9, -8, -10, -11};
Plane Surface(3) = {3};
Curve Loop(4) = {-12, 3, 8, -13};
Plane Surface(4) = {4};
Curve Loop(5) = {-4, 5, 14, -12, -15, -16};
Plane Surface(5) = {5};
Curve Loop(6) = {-6, 14, 13, -9};
Plane Surface(6) = {6};
Curve Loop(7) = {-10, -17, 15, 17};
Surface(7) = {7};
Curve Loop(8) = {-11, -18, 16, 18};
Surface(8) = {8};
Surface Loop(1) = {1, 2, 3, 4, 5, 6, 7, 8};
Volume(1) = {1};
Physical Surface("INFLOW") = {1};
Physical Surface("OUTFLOW") = {6};
Physical Surface("OBSTACLE") = {7, 8};
Physical Surface("WALL_Y") = {2, 4};
Physical Surface("WALL_Z") = {3, 5};
Physical Volume("FLUID") = {1};
