cl__1 = 4.098087;
cl__2 = 3.453185;
cl__3 = 0.460361;
cl__4 = 0.427873;
cl__5 = 0.121927;
cl__6 = 0.116758;
Point(1) = {0.194435, -3.358626, 1, cl__1};
Point(2) = {0.194435, -3.358626, 0, cl__1};
Point(3) = {0.194435, 4.751335, 1, cl__2};
Point(4) = {0.194435, 4.751335, 0, cl__2};
Point(5) = {34.943771, -3.358626, 0, cl__3};
Point(6) = {34.943771, -3.358626, 1, cl__3};
Point(7) = {34.943771, 4.751335, 1, cl__4};
Point(8) = {32.369058, 0.9136059999999998, 1, cl__5};
Point(9) = {17.118076, 2.444477, 1, cl__6};
Point(10) = {34.943771, 4.751335, 0, cl__4};
Point(11) = {32.369058, 0.9136059999999998, 0, cl__5};
Point(12) = {17.118076, 2.444477, 0, cl__6};
Line(1) = {2, 1};
Line(2) = {1, 3};
Line(3) = {4, 3};
Line(4) = {2, 4};
Line(5) = {2, 5};
Line(6) = {5, 6};
Line(7) = {1, 6};
Line(8) = {3, 7};
Line(9) = {6, 7};
p10 = newp;
Point(p10 + 1) = {32.35404671379079, 1.104342475927462, 1};
Point(p10 + 2) = {32.30938248284926, 1.29038238679952, 1};
Point(p10 + 3) = {32.23616508877325, 1.467144812579436, 1};
Point(p10 + 4) = {32.13619738679952, 1.630277275703653, 1};
Point(p10 + 5) = {32.01194091352445, 1.775762913524447, 1};
Point(p10 + 6) = {31.86645527570365, 1.90001938679952, 1};
Point(p10 + 7) = {31.70332281257944, 1.999987088773248, 1};
Point(p10 + 8) = {31.52656038679952, 2.073204482849257, 1};
Point(p10 + 9) = {31.34052047592746, 2.117868713790796, 1};
Point(p10 + 10) = {31.149784, 2.13288, 1};
Point(p10 + 11) = {30.95904752407254, 2.117868713790796, 1};
Point(p10 + 12) = {30.77300761320048, 2.073204482849257, 1};
Point(p10 + 13) = {30.59624518742056, 1.999987088773248, 1};
Point(p10 + 14) = {30.43311272429635, 1.90001938679952, 1};
Point(p10 + 15) = {30.28762708647555, 1.775762913524447, 1};
Point(p10 + 16) = {30.16337061320048, 1.630277275703653, 1};
Point(p10 + 17) = {30.06340291122675, 1.467144812579436, 1};
Point(p10 + 18) = {29.99018551715074, 1.29038238679952, 1};
Point(p10 + 19) = {29.9455212862092, 1.104342475927463, 1};
Point(p10 + 20) = {29.93051, 0.9136060000000001, 1};
Point(p10 + 21) = {29.9455212862092, 0.7228695240725378, 1};
Point(p10 + 22) = {29.99018551715074, 0.5368296132004799, 1};
Point(p10 + 23) = {30.06340291122675, 0.3600671874205645, 1};
Point(p10 + 24) = {30.16337061320048, 0.1969347242963473, 1};
Point(p10 + 25) = {30.28762708647555, 0.05144908647555357, 1};
Point(p10 + 26) = {30.43311272429635, -0.07280738679951948, 1};
Point(p10 + 27) = {30.59624518742056, -0.1727750887732479, 1};
Point(p10 + 28) = {30.77300761320048, -0.2459924828492569, 1};
Point(p10 + 29) = {30.95904752407254, -0.2906567137907957, 1};
Point(p10 + 30) = {31.149784, -0.3056679999999999, 1};
Point(p10 + 31) = {31.34052047592746, -0.2906567137907959, 1};
Point(p10 + 32) = {31.52656038679952, -0.2459924828492571, 1};
Point(p10 + 33) = {31.70332281257944, -0.1727750887732481, 1};
Point(p10 + 34) = {31.86645527570365, -0.07280738679951981, 1};
Point(p10 + 35) = {32.01194091352445, 0.05144908647555335, 1};
Point(p10 + 36) = {32.13619738679952, 0.1969347242963468, 1};
Point(p10 + 37) = {32.23616508877325, 0.3600671874205637, 1};
Point(p10 + 38) = {32.30938248284926, 0.5368296132004802, 1};
Point(p10 + 39) = {32.35404671379079, 0.7228695240725374, 1};
Spline(10) = {8, p10 + 1, p10 + 2, p10 + 3, p10 + 4, p10 + 5, p10 + 6, p10 + 7, p10 + 8, p10 + 9, p10 + 10, p10 + 11, p10 + 12, p10 + 13, p10 + 14, p10 + 15, p10 + 16, p10 + 17, p10 + 18, p10 + 19, p10 + 20, p10 + 21, p10 + 22, p10 + 23, p10 + 24, p10 + 25, p10 + 26, p10 + 27, p10 + 28, p10 + 29, p10 + 30, p10 + 31, p10 + 32, p10 + 33, p10 + 34, p10 + 35, p10 + 36, p10 + 37, p10 + 38, p10 + 39, 8};
p11 = newp;
Point(p11 + 1) = {17.10370117733539, 2.627126439822743, 1};
Point(p11 + 2) = {17.06093066518286, 2.805278444258312, 1};
Point(p11 + 3) = {16.99081761549881, 2.9745463197049, 1};
Point(p11 + 4) = {16.89508844425831, 3.130762129301141, 1};
Point(p11 + 5) = {16.77610032136423, 3.270079321364227, 1};
Point(p11 + 6) = {16.63678312930114, 3.389067444258313, 1};
Point(p11 + 7) = {16.4805673197049, 3.484796615498806, 1};
Point(p11 + 8) = {16.31129944425831, 3.554909665182863, 1};
Point(p11 + 9) = {16.13314743982274, 3.597680177335389, 1};
Point(p11 + 10) = {15.950498, 3.612055, 1};
Point(p11 + 11) = {15.76784856017726, 3.597680177335389, 1};
Point(p11 + 12) = {15.58969655574169, 3.554909665182863, 1};
Point(p11 + 13) = {15.4204286802951, 3.484796615498806, 1};
Point(p11 + 14) = {15.26421287069886, 3.389067444258313, 1};
Point(p11 + 15) = {15.12489567863577, 3.270079321364227, 1};
Point(p11 + 16) = {15.00590755574169, 3.130762129301141, 1};
Point(p11 + 17) = {14.91017838450119, 2.974546319704901, 1};
Point(p11 + 18) = {14.84006533481714, 2.805278444258312, 1};
Point(p11 + 19) = {14.79729482266461, 2.627126439822743, 1};
Point(p11 + 20) = {14.78292, 2.444477, 1};
Point(p11 + 21) = {14.79729482266461, 2.261827560177258, 1};
Point(p11 + 22) = {14.84006533481714, 2.083675555741687, 1};
Point(p11 + 23) = {14.91017838450119, 1.9144076802951, 1};
Point(p11 + 24) = {15.00590755574169, 1.758191870698859, 1};
Point(p11 + 25) = {15.12489567863577, 1.618874678635773, 1};
Point(p11 + 26) = {15.26421287069886, 1.499886555741688, 1};
Point(p11 + 27) = {15.4204286802951, 1.404157384501194, 1};
Point(p11 + 28) = {15.58969655574169, 1.334044334817137, 1};
Point(p11 + 29) = {15.76784856017726, 1.29127382266461, 1};
Point(p11 + 30) = {15.950498, 1.276899, 1};
Point(p11 + 31) = {16.13314743982274, 1.29127382266461, 1};
Point(p11 + 32) = {16.31129944425831, 1.334044334817137, 1};
Point(p11 + 33) = {16.4805673197049, 1.404157384501194, 1};
Point(p11 + 34) = {16.63678312930114, 1.499886555741687, 1};
Point(p11 + 35) = {16.77610032136423, 1.618874678635773, 1};
Point(p11 + 36) = {16.89508844425831, 1.758191870698858, 1};
Point(p11 + 37) = {16.99081761549881, 1.914407680295099, 1};
Point(p11 + 38) = {17.06093066518286, 2.083675555741687, 1};
Point(p11 + 39) = {17.10370117733539, 2.261827560177257, 1};
Spline(11) = {9, p11 + 1, p11 + 2, p11 + 3, p11 + 4, p11 + 5, p11 + 6, p11 + 7, p11 + 8, p11 + 9, p11 + 10, p11 + 11, p11 + 12, p11 + 13, p11 + 14, p11 + 15, p11 + 16, p11 + 17, p11 + 18, p11 + 19, p11 + 20, p11 + 21, p11 + 22, p11 + 23, p11 + 24, p11 + 25, p11 + 26, p11 + 27, p11 + 28, p11 + 29, p11 + 30, p11 + 31, p11 + 32, p11 + 33, p11 + 34, p11 + 35, p11 + 36, p11 + 37, p11 + 38, p11 + 39, 9};
Line(12) = {4, 10};
Line(13) = {10, 7};
Line(14) = {5, 10};
p15 = newp;
Point(p15 + 1) = {32.35404671379079, 1.104342475927462, 0};
Point(p15 + 2) = {32.30938248284926, 1.29038238679952, 0};
Point(p15 + 3) = {32.23616508877325, 1.467144812579436, 0};
Point(p15 + 4) = {32.13619738679952, 1.630277275703653, 0};
Point(p15 + 5) = {32.01194091352445, 1.775762913524447, 0};
Point(p15 + 6) = {31.86645527570365, 1.90001938679952, 0};
Point(p15 + 7) = {31.70332281257944, 1.999987088773248, 0};
Point(p15 + 8) = {31.52656038679952, 2.073204482849257, 0};
Point(p15 + 9) = {31.34052047592746, 2.117868713790796, 0};
Point(p15 + 10) = {31.149784, 2.13288, 0};
Point(p15 + 11) = {30.95904752407254, 2.117868713790796, 0};
Point(p15 + 12) = {30.77300761320048, 2.073204482849257, 0};
Point(p15 + 13) = {30.59624518742056, 1.999987088773248, 0};
Point(p15 + 14) = {30.43311272429635, 1.90001938679952, 0};
Point(p15 + 15) = {30.28762708647555, 1.775762913524447, 0};
Point(p15 + 16) = {30.16337061320048, 1.630277275703653, 0};
Point(p15 + 17) = {30.06340291122675, 1.467144812579436, 0};
Point(p15 + 18) = {29.99018551715074, 1.29038238679952, 0};
Point(p15 + 19) = {29.9455212862092, 1.104342475927463, 0};
Point(p15 + 20) = {29.93051, 0.9136060000000001, 0};
Point(p15 + 21) = {29.9455212862092, 0.7228695240725378, 0};
Point(p15 + 22) = {29.99018551715074, 0.5368296132004799, 0};
Point(p15 + 23) = {30.06340291122675, 0.3600671874205645, 0};
Point(p15 + 24) = {30.16337061320048, 0.1969347242963473, 0};
Point(p15 + 25) = {30.28762708647555, 0.05144908647555357, 0};
Point(p15 + 26) = {30.43311272429635, -0.07280738679951948, 0};
Point(p15 + 27) = {30.59624518742056, -0.1727750887732479, 0};
Point(p15 + 28) = {30.77300761320048, -0.2459924828492569, 0};
Point(p15 + 29) = {30.95904752407254, -0.2906567137907957, 0};
Point(p15 + 30) = {31.149784, -0.3056679999999999, 0};
Point(p15 + 31) = {31.34052047592746, -0.2906567137907959, 0};
Point(p15 + 32) = {31.52656038679952, -0.2459924828492571, 0};
Point(p15 + 33) = {31.70332281257944, -0.1727750887732481, 0};
Point(p15 + 34) = {31.86645527570365, -0.07280738679951981, 0};
Point(p15 + 35) = {32.01194091352445, 0.05144908647555335, 0};
Point(p15 + 36) = {32.13619738679952, 0.1969347242963468, 0};
Point(p15 + 37) = {32.23616508877325, 0.3600671874205637, 0};
Point(p15 + 38) = {32.30938248284926, 0.5368296132004802, 0};
Point(p15 + 39) = {32.35404671379079, 0.7228695240725374, 0};
Spline(15) = {11, p15 + 1, p15 + 2, p15 + 3, p15 + 4, p15 + 5, p15 + 6, p15 + 7, p15 + 8, p15 + 9, p15 + 10, p15 + 11, p15 + 12, p15 + 13, p15 + 14, p15 + 15, p15 + 16, p15 + 17, p15 + 18, p15 + 19, p15 + 20, p15 + 21, p15 + 22, p15 + 23, p15 + 24, p15 + 25, p15 + 26, p15 + 27, p15 + 28, p15 + 29, p15 + 30, p15 + 31, p15 + 32, p15 + 33, p15 + 34, p15 + 35, p15 + 36, p15 + 37, p15 + 38, p15 + 39, 11};
p16 = newp;
Point(p16 + 1) = {17.10370117733539, 2.627126439822743, 0};
Point(p16 + 2) = {17.06093066518286, 2.805278444258312, 0};
Point(p16 + 3) = {16.99081761549881, 2.9745463197049, 0};
Point(p16 + 4) = {16.89508844425831, 3.130762129301141, 0};
Point(p16 + 5) = {16.77610032136423, 3.270079321364227, 0};
Point(p16 + 6) = {16.63678312930114, 3.389067444258313, 0};
Point(p16 + 7) = {16.4805673197049, 3.484796615498806, 0};
Point(p16 + 8) = {16.31129944425831, 3.554909665182863, 0};
Point(p16 + 9) = {16.13314743982274, 3.597680177335389, 0};
Point(p16 + 10) = {15.950498, 3.612055, 0};
Point(p16 + 11) = {15.76784856017726, 3.597680177335389, 0};
Point(p16 + 12) = {15.58969655574169, 3.554909665182863, 0};
Point(p16 + 13) = {15.4204286802951, 3.484796615498806, 0};
Point(p16 + 14) = {15.26421287069886, 3.389067444258313, 0};
Point(p16 + 15) = {15.12489567863577, 3.270079321364227, 0};
Point(p16 + 16) = {15.00590755574169, 3.130762129301141, 0};
Point(p16 + 17) = {14.91017838450119, 2.974546319704901, 0};
Point(p16 + 18) = {14.84006533481714, 2.805278444258312, 0};
Point(p16 + 19) = {14.79729482266461, 2.627126439822743, 0};
Point(p16 + 20) = {14.78292, 2.444477, 0};
Point(p16 + 21) = {14.79729482266461, 2.261827560177258, 0};
Point(p16 + 22) = {14.84006533481714, 2.083675555741687, 0};
Point(p16 + 23) = {14.91017838450119, 1.9144076802951, 0};
Point(p16 + 24) = {15.00590755574169, 1.758191870698859, 0};
Point(p16 + 25) = {15.12489567863577, 1.618874678635773, 0};
Point(p16 + 26) = {15.26421287069886, 1.499886555741688, 0};
Point(p16 + 27) = {15.4204286802951, 1.404157384501194, 0};
Point(p16 + 28) = {15.58969655574169, 1.334044334817137, 0};
Point(p16 + 29) = {15.76784856017726, 1.29127382266461, 0};
Point(p16 + 30) = {15.950498, 1.276899, 0};
Point(p16 + 31) = {16.13314743982274, 1.29127382266461, 0};
Point(p16 + 32) = {16.31129944425831, 1.334044334817137, 0};
Point(p16 + 33) = {16.4805673197049, 1.404157384501194, 0};
Point(p16 + 34) = {16.63678312930114, 1.499886555741687, 0};
Point(p16 + 35) = {16.77610032136423, 1.618874678635773, 0};
Point(p16 + 36) = {16.89508844425831, 1.758191870698858, 0};
Point(p16 + 37) = {16.99081761549881, 1.914407680295099, 0};
Point(p16 + 38) = {17.06093066518286, 2.083675555741687, 0};
Point(p16 + 39) = {17.10370117733539, 2.261827560177257, 0};
Spline(16) = {12, p16 + 1, p16 + 2, p16 + 3, p16 + 4, p16 + 5, p16 + 6, p16 + 7, p16 + 8, p16 + 9, p16 + 10, p16 + 11, p16 + 12, p16 + 13, p16 + 14, p16 + 15, p16 + 16, p16 + 17, p16 + 18, p16 + 19, p16 + 20, p16 + 21, p16 + 22, p16 + 23, p16 + 24, p16 + 25, p16 + 26, p16 + 27, p16 + 28, p16 + 29, p16 + 30, p16 + 31, p16 + 32, p16 + 33, p16 + 34, p16 + 35, p16 + 36, p16 + 37, p16 + 38, p16 + 39, 12};
Line(17) = {11, 8};
Line(18) = {12, 9};
Curve Loop(1) = {-1, 4, 3, -2};
Plane Surface(1) = {1};
Curve Loop(2) = {-5, 1, 7, -6};
Plane Surface(2) = {2};
Curve Loop(3) = {-2, 7, 9, -8, -10, -11};
Plane Surface(3) = {3};
Curve Loop(4) = {-12, 3, 8, -13};
Plane Surface(4) = {4};
Curve Loop(5) = {-4, 5, 14, -12, -15, -16};
Plane Surface(5) = {5};
Curve Loop(6) = {-6, 14, 13, -9};
Plane Surface(6) = {6};
Curve Loop(7) = {-10, -17, 15, 17};
Surface(7) = {7};
Curve Loop(8) = {-11, -18, 16, 18};
Surface(8) = {8};
Surface Loop(1) = {1, 2, 3, 4, 5, 6, 7, 8};
Volume(1) = {1};
Physical Surface("INFLOW") = {1};
Physical Surface("OUTFLOW") = {6};
Physical Surface("OBSTACLE") = {7, 8};
Physical Surface("WALL_Y") = {2, 4};
Physical Surface("WALL_Z") = {3, 5};
Physical Volume("FLUID") = {1};
