cl__1 = 3.982328;
cl__2 = 0.757091;
cl__3 = 0.674184;
cl__4 = 0.144572;
cl__5 = 0.09389699999999999;
Point(1) = {0.70679, -3.595875, 1, cl__1};
Point(2) = {0.70679, -3.595875, 0, cl__1};
Point(3) = {0.70679, 3.917352, 1, cl__1};
Point(4) = {0.70679, 3.917352, 0, cl__1};
Point(5) = {39.645703, -3.595875, 0, cl__2};
Point(6) = {39.645703, -3.595875, 1, cl__2};
Point(7) = {39.645703, 3.917352, 1, cl__3};
Point(8) = {29.657829, 0.7323329999999997, 1, cl__4};
Point(9) = {33.457516, 1.05404, 1, cl__5};
Point(10) = {39.645703, 3.917352, 0, cl__3};
Point(11) = {29.657829, 0.7323329999999997, 0, cl__4};
Point(12) = {33.457516, 1.05404, 0, cl__5};
Line(1) = {2, 1};
Line(2) = {1, 3};
Line(3) = {4, 3};
Line(4) = {2, 4};
Line(5) = {2, 5};
Line(6) = {5, 6};
Line(7) = {1, 6};
Line(8) = {3, 7};
Line(9) = {6, 7};
p10 = newp;
Point(p10 + 1) = {29.64002983701184, 0.9584928090601024, 1};
Point(p10 + 2) = {29.58707062251216, 1.179083813039771, 1};
Point(p10 + 3) = {29.50025538812351, 1.388674329321459, 1};
Point(p10 + 4) = {29.38172181303977, 1.582103543803265, 1};
Point(p10 + 5) = {29.23438858726989, 1.754608587269891, 1};
Point(p10 + 6) = {29.06188354380327, 1.901941813039771, 1};
Point(p10 + 7) = {28.86845432932146, 2.02047538812351, 1};
Point(p10 + 8) = {28.65886381303977, 2.107290622512164, 1};
Point(p10 + 9) = {28.4382728090601, 2.16024983701184, 1};
Point(p10 + 10) = {28.212113, 2.178049, 1};
Point(p10 + 11) = {27.9859531909399, 2.16024983701184, 1};
Point(p10 + 12) = {27.76536218696023, 2.107290622512164, 1};
Point(p10 + 13) = {27.55577167067854, 2.02047538812351, 1};
Point(p10 + 14) = {27.36234245619674, 1.901941813039771, 1};
Point(p10 + 15) = {27.18983741273011, 1.754608587269891, 1};
Point(p10 + 16) = {27.04250418696023, 1.582103543803265, 1};
Point(p10 + 17) = {26.92397061187649, 1.388674329321459, 1};
Point(p10 + 18) = {26.83715537748784, 1.179083813039772, 1};
Point(p10 + 19) = {26.78419616298816, 0.9584928090601026, 1};
Point(p10 + 20) = {26.766397, 0.7323330000000002, 1};
Point(p10 + 21) = {26.78419616298816, 0.5061731909398978, 1};
Point(p10 + 22) = {26.83715537748784, 0.2855821869602281, 1};
Point(p10 + 23) = {26.92397061187649, 0.07599167067854218, 1};
Point(p10 + 24) = {27.04250418696023, -0.1174375438032649, 1};
Point(p10 + 25) = {27.18983741273011, -0.2899425872698905, 1};
Point(p10 + 26) = {27.36234245619673, -0.4372758130397713, 1};
Point(p10 + 27) = {27.55577167067854, -0.5558093881235103, 1};
Point(p10 + 28) = {27.76536218696023, -0.6426246225121642, 1};
Point(p10 + 29) = {27.9859531909399, -0.69558383701184, 1};
Point(p10 + 30) = {28.212113, -0.713383, 1};
Point(p10 + 31) = {28.4382728090601, -0.6955838370118402, 1};
Point(p10 + 32) = {28.65886381303977, -0.6426246225121642, 1};
Point(p10 + 33) = {28.86845432932146, -0.5558093881235106, 1};
Point(p10 + 34) = {29.06188354380326, -0.4372758130397717, 1};
Point(p10 + 35) = {29.23438858726989, -0.289942587269891, 1};
Point(p10 + 36) = {29.38172181303977, -0.1174375438032654, 1};
Point(p10 + 37) = {29.50025538812351, 0.07599167067854107, 1};
Point(p10 + 38) = {29.58707062251216, 0.2855821869602282, 1};
Point(p10 + 39) = {29.64002983701184, 0.5061731909398972, 1};
Spline(10) = {8, p10 + 1, p10 + 2, p10 + 3, p10 + 4, p10 + 5, p10 + 6, p10 + 7, p10 + 8, p10 + 9, p10 + 10, p10 + 11, p10 + 12, p10 + 13, p10 + 14, p10 + 15, p10 + 16, p10 + 17, p10 + 18, p10 + 19, p10 + 20, p10 + 21, p10 + 22, p10 + 23, p10 + 24, p10 + 25, p10 + 26, p10 + 27, p10 + 28, p10 + 29, p10 + 30, p10 + 31, p10 + 32, p10 + 33, p10 + 34, p10 + 35, p10 + 36, p10 + 37, p10 + 38, p10 + 39, 8};
p11 = newp;
Point(p11 + 1) = {33.4459556965453, 1.200927582507756, 1};
Point(p11 + 2) = {33.41155943921869, 1.344198305242233, 1};
Point(p11 + 3) = {33.3551741780302, 1.480324367521442, 1};
Point(p11 + 4) = {33.27818830524223, 1.605953893915568, 1};
Point(p11 + 5) = {33.18249746854429, 1.717993468544295, 1};
Point(p11 + 6) = {33.07045789391557, 1.813684305242233, 1};
Point(p11 + 7) = {32.94482836752144, 1.8906701780302, 1};
Point(p11 + 8) = {32.80870230524224, 1.947055439218693, 1};
Point(p11 + 9) = {32.66543158250776, 1.981451696545298, 1};
Point(p11 + 10) = {32.518544, 1.993012, 1};
Point(p11 + 11) = {32.37165641749224, 1.981451696545298, 1};
Point(p11 + 12) = {32.22838569475777, 1.947055439218693, 1};
Point(p11 + 13) = {32.09225963247856, 1.8906701780302, 1};
Point(p11 + 14) = {31.96663010608443, 1.813684305242233, 1};
Point(p11 + 15) = {31.8545905314557, 1.717993468544295, 1};
Point(p11 + 16) = {31.75889969475777, 1.605953893915568, 1};
Point(p11 + 17) = {31.6819138219698, 1.480324367521442, 1};
Point(p11 + 18) = {31.62552856078131, 1.344198305242233, 1};
Point(p11 + 19) = {31.5911323034547, 1.200927582507756, 1};
Point(p11 + 20) = {31.579572, 1.05404, 1};
Point(p11 + 21) = {31.5911323034547, 0.9071524174922445, 1};
Point(p11 + 22) = {31.62552856078131, 0.7638816947577667, 1};
Point(p11 + 23) = {31.6819138219698, 0.6277556324785589, 1};
Point(p11 + 24) = {31.75889969475777, 0.5021261060844321, 1};
Point(p11 + 25) = {31.8545905314557, 0.3900865314557053, 1};
Point(p11 + 26) = {31.96663010608443, 0.2943956947577671, 1};
Point(p11 + 27) = {32.09225963247856, 0.2174098219698, 1};
Point(p11 + 28) = {32.22838569475776, 0.1610245607813071, 1};
Point(p11 + 29) = {32.37165641749224, 0.1266283034547024, 1};
Point(p11 + 30) = {32.518544, 0.1150680000000001, 1};
Point(p11 + 31) = {32.66543158250776, 0.1266283034547023, 1};
Point(p11 + 32) = {32.80870230524223, 0.161024560781307, 1};
Point(p11 + 33) = {32.94482836752144, 0.2174098219697999, 1};
Point(p11 + 34) = {33.07045789391557, 0.2943956947577668, 1};
Point(p11 + 35) = {33.18249746854429, 0.390086531455705, 1};
Point(p11 + 36) = {33.27818830524223, 0.5021261060844318, 1};
Point(p11 + 37) = {33.3551741780302, 0.6277556324785583, 1};
Point(p11 + 38) = {33.41155943921869, 0.7638816947577667, 1};
Point(p11 + 39) = {33.4459556965453, 0.9071524174922442, 1};
Spline(11) = {9, p11 + 1, p11 + 2, p11 + 3, p11 + 4, p11 + 5, p11 + 6, p11 + 7, p11 + 8, p11 + 9, p11 + 10, p11 + 11, p11 + 12, p11 + 13, p11 + 14, p11 + 15, p11 + 16, p11 + 17, p11 + 18, p11 + 19, p11 + 20, p11 + 21, p11 + 22, p11 + 23, p11 + 24, p11 + 25, p11 + 26, p11 + 27, p11 + 28, p11 + 29, p11 + 30, p11 + 31, p11 + 32, p11 + 33, p11 + 34, p11 + 35, p11 + 36, p11 + 37, p11 + 38, p11 + 39, 9};
Line(12) = {4, 10};
Line(13) = {10, 7};
Line(14) = {5, 10};
p15 = newp;
Point(p15 + 1) = {29.64002983701184, 0.9584928090601024, 0};
Point(p15 + 2) = {29.58707062251216, 1.179083813039771, 0};
Point(p15 + 3) = {29.50025538812351, 1.388674329321459, 0};
Point(p15 + 4) = {29.38172181303977, 1.582103543803265, 0};
Point(p15 + 5) = {29.23438858726989, 1.754608587269891, 0};
Point(p15 + 6) = {29.06188354380327, 1.901941813039771, 0};
Point(p15 + 7) = {28.86845432932146, 2.02047538812351, 0};
Point(p15 + 8) = {28.65886381303977, 2.107290622512164, 0};
Point(p15 + 9) = {28.4382728090601, 2.16024983701184, 0};
Point(p15 + 10) = {28.212113, 2.178049, 0};
Point(p15 + 11) = {27.9859531909399, 2.16024983701184, 0};
Point(p15 + 12) = {27.76536218696023, 2.107290622512164, 0};
Point(p15 + 13) = {27.55577167067854, 2.02047538812351, 0};
Point(p15 + 14) = {27.36234245619674, 1.901941813039771, 0};
Point(p15 + 15) = {27.18983741273011, 1.754608587269891, 0};
Point(p15 + 16) = {27.04250418696023, 1.582103543803265, 0};
Point(p15 + 17) = {26.92397061187649, 1.388674329321459, 0};
Point(p15 + 18) = {26.83715537748784, 1.179083813039772, 0};
Point(p15 + 19) = {26.78419616298816, 0.9584928090601026, 0};
Point(p15 + 20) = {26.766397, 0.7323330000000002, 0};
Point(p15 + 21) = {26.78419616298816, 0.5061731909398978, 0};
Point(p15 + 22) = {26.83715537748784, 0.2855821869602281, 0};
Point(p15 + 23) = {26.92397061187649, 0.07599167067854218, 0};
Point(p15 + 24) = {27.04250418696023, -0.1174375438032649, 0};
Point(p15 + 25) = {27.18983741273011, -0.2899425872698905, 0};
Point(p15 + 26) = {27.36234245619673, -0.4372758130397713, 0};
Point(p15 + 27) = {27.55577167067854, -0.5558093881235103, 0};
Point(p15 + 28) = {27.76536218696023, -0.6426246225121642, 0};
Point(p15 + 29) = {27.9859531909399, -0.69558383701184, 0};
Point(p15 + 30) = {28.212113, -0.713383, 0};
Point(p15 + 31) = {28.4382728090601, -0.6955838370118402, 0};
Point(p15 + 32) = {28.65886381303977, -0.6426246225121642, 0};
Point(p15 + 33) = {28.86845432932146, -0.5558093881235106, 0};
Point(p15 + 34) = {29.06188354380326, -0.4372758130397717, 0};
Point(p15 + 35) = {29.23438858726989, -0.289942587269891, 0};
Point(p15 + 36) = {29.38172181303977, -0.1174375438032654, 0};
Point(p15 + 37) = {29.50025538812351, 0.07599167067854107, 0};
Point(p15 + 38) = {29.58707062251216, 0.2855821869602282, 0};
Point(p15 + 39) = {29.64002983701184, 0.5061731909398972, 0};
Spline(15) = {11, p15 + 1, p15 + 2, p15 + 3, p15 + 4, p15 + 5, p15 + 6, p15 + 7, p15 + 8, p15 + 9, p15 + 10, p15 + 11, p15 + 12, p15 + 13, p15 + 14, p15 + 15, p15 + 16, p15 + 17, p15 + 18, p15 + 19, p15 + 20, p15 + 21, p15 + 22, p15 + 23, p15 + 24, p15 + 25, p15 + 26, p15 + 27, p15 + 28, p15 + 29, p15 + 30, p15 + 31, p15 + 32, p15 + 33, p15 + 34, p15 + 35, p15 + 36, p15 + 37, p15 + 38, p15 + 39, 11};
p16 = newp;
Point(p16 + 1) = {33.4459556965453, 1.200927582507756, 0};
Point(p16 + 2) = {33.41155943921869, 1.344198305242233, 0};
Point(p16 + 3) = {33.3551741780302, 1.480324367521442, 0};
Point(p16 + 4) = {33.27818830524223, 1.605953893915568, 0};
Point(p16 + 5) = {33.18249746854429, 1.717993468544295, 0};
Point(p16 + 6) = {33.07045789391557, 1.813684305242233, 0};
Point(p16 + 7) = {32.94482836752144, 1.8906701780302, 0};
Point(p16 + 8) = {32.80870230524224, 1.947055439218693, 0};
Point(p16 + 9) = {32.66543158250776, 1.981451696545298, 0};
Point(p16 + 10) = {32.518544, 1.993012, 0};
Point(p16 + 11) = {32.37165641749224, 1.981451696545298, 0};
Point(p16 + 12) = {32.22838569475777, 1.947055439218693, 0};
Point(p16 + 13) = {32.09225963247856, 1.8906701780302, 0};
Point(p16 + 14) = {31.96663010608443, 1.813684305242233, 0};
Point(p16 + 15) = {31.8545905314557, 1.717993468544295, 0};
Point(p16 + 16) = {31.75889969475777, 1.605953893915568, 0};
Point(p16 + 17) = {31.6819138219698, 1.480324367521442, 0};
Point(p16 + 18) = {31.62552856078131, 1.344198305242233, 0};
Point(p16 + 19) = {31.5911323034547, 1.200927582507756, 0};
Point(p16 + 20) = {31.579572, 1.05404, 0};
Point(p16 + 21) = {31.5911323034547, 0.9071524174922445, 0};
Point(p16 + 22) = {31.62552856078131, 0.7638816947577667, 0};
Point(p16 + 23) = {31.6819138219698, 0.6277556324785589, 0};
Point(p16 + 24) = {31.75889969475777, 0.5021261060844321, 0};
Point(p16 + 25) = {31.8545905314557, 0.3900865314557053, 0};
Point(p16 + 26) = {31.96663010608443, 0.2943956947577671, 0};
Point(p16 + 27) = {32.09225963247856, 0.2174098219698, 0};
Point(p16 + 28) = {32.22838569475776, 0.1610245607813071, 0};
Point(p16 + 29) = {32.37165641749224, 0.1266283034547024, 0};
Point(p16 + 30) = {32.518544, 0.1150680000000001, 0};
Point(p16 + 31) = {32.66543158250776, 0.1266283034547023, 0};
Point(p16 + 32) = {32.80870230524223, 0.161024560781307, 0};
Point(p16 + 33) = {32.94482836752144, 0.2174098219697999, 0};
Point(p16 + 34) = {33.07045789391557, 0.2943956947577668, 0};
Point(p16 + 35) = {33.18249746854429, 0.390086531455705, 0};
Point(p16 + 36) = {33.27818830524223, 0.5021261060844318, 0};
Point(p16 + 37) = {33.3551741780302, 0.6277556324785583, 0};
Point(p16 + 38) = {33.41155943921869, 0.7638816947577667, 0};
Point(p16 + 39) = {33.4459556965453, 0.9071524174922442, 0};
Spline(16) = {12, p16 + 1, p16 + 2, p16 + 3, p16 + 4, p16 + 5, p16 + 6, p16 + 7, p16 + 8, p16 + 9, p16 + 10, p16 + 11, p16 + 12, p16 + 13, p16 + 14, p16 + 15, p16 + 16, p16 + 17, p16 + 18, p16 + 19, p16 + 20, p16 + 21, p16 + 22, p16 + 23, p16 + 24, p16 + 25, p16 + 26, p16 + 27, p16 + 28, p16 + 29, p16 + 30, p16 + 31, p16 + 32, p16 + 33, p16 + 34, p16 + 35, p16 + 36, p16 + 37, p16 + 38, p16 + 39, 12};
Line(17) = {11, 8};
Line(18) = {12, 9};
Curve Loop(1) = {-1, 4, 3, -2};
Plane Surface(1) = {1};
Curve Loop(2) = {-5, 1, 7, -6};
Plane Surface(2) = {2};
Curve Loop(3) = {-2, 7, 9, -8, -10, -11};
Plane Surface(3) = {3};
Curve Loop(4) = {-12, 3, 8, -13};
Plane Surface(4) = {4};
Curve Loop(5) = {-4, 5, 14, -12, -15, -16};
Plane Surface(5) = {5};
Curve Loop(6) = {-6, 14, 13, -9};
Plane Surface(6) = {6};
Curve Loop(7) = {-10, -17, 15, 17};
Surface(7) = {7};
Curve Loop(8) = {-11, -18, 16, 18};
Surface(8) = {8};
Surface Loop(1) = {1, 2, 3, 4, 5, 6, 7, 8};
Volume(1) = {1};
Physical Surface("INFLOW") = {1};
Physical Surface("OUTFLOW") = {6};
Physical Surface("OBSTACLE") = {7, 8};
Physical Surface("WALL_Y") = {2, 4};
Physical Surface("WALL_Z") = {3, 5};
Physical Volume("FLUID") = {1};
