cl__1 = 1.371097;
cl__2 = 1.83698;
cl__3 = 0.831469;
cl__4 = 0.83288;
cl__5 = 0.094886;
cl__6 = 0.11263;
Point(1) = {0.361472, -3.271664, 1, cl__1};
Point(2) = {0.361472, -3.271664, 0, cl__1};
Point(3) = {0.361472, 4.789707, 1, cl__2};
Point(4) = {0.361472, 4.789707, 0, cl__2};
Point(5) = {38.838025, -3.271664, 0, cl__3};
Point(6) = {38.838025, -3.271664, 1, cl__3};
Point(7) = {38.838025, 4.789707, 1, cl__4};
Point(8) = {11.743231, -0.6444090000000002, 1, cl__5};
Point(9) = {32.509715, 0.7459249999999996, 1, cl__6};
Point(10) = {38.838025, 4.789707, 0, cl__4};
Point(11) = {11.743231, -0.6444090000000002, 0, cl__5};
Point(12) = {32.509715, 0.7459249999999996, 0, cl__6};
Line(1) = {2, 1};
Line(2) = {1, 3};
Line(3) = {4, 3};
Line(4) = {2, 4};
Line(5) = {2, 5};
Line(6) = {5, 6};
Line(7) = {1, 6};
Line(8) = {3, 7};
Line(9) = {6, 7};
p10 = newp;
Point(p10 + 1) = {11.73154894654544, -0.4959744370674615, 1};
Point(p10 + 2) = {11.69679043710834, -0.3511948257003931, 1};
Point(p10 + 3) = {11.6398113415479, -0.213635120426634, 1};
Point(p10 + 4) = {11.56201467429961, -0.08668249772451164, 1};
Point(p10 + 5) = {11.46531604750345, 0.02653704750344854, 1};
Point(p10 + 6) = {11.35209650227549, 0.1232356742996069, 1};
Point(p10 + 7) = {11.22514387957337, 0.2010323415478988, 1};
Point(p10 + 8) = {11.08758417429961, 0.2580114371083356, 1};
Point(p10 + 9) = {10.94280456293254, 0.292769946545443, 1};
Point(p10 + 10) = {10.79437, 0.3044519999999999, 1};
Point(p10 + 11) = {10.64593543706746, 0.2927699465454429, 1};
Point(p10 + 12) = {10.50115582570039, 0.2580114371083357, 1};
Point(p10 + 13) = {10.36359612042664, 0.201032341547899, 1};
Point(p10 + 14) = {10.23664349772451, 0.1232356742996069, 1};
Point(p10 + 15) = {10.12342395249655, 0.02653704750344865, 1};
Point(p10 + 16) = {10.02672532570039, -0.08668249772451153, 1};
Point(p10 + 17) = {9.948928658452102, -0.2136351204266339, 1};
Point(p10 + 18) = {9.891949562891664, -0.351194825700393, 1};
Point(p10 + 19) = {9.857191053454558, -0.4959744370674614, 1};
Point(p10 + 20) = {9.845509, -0.6444089999999999, 1};
Point(p10 + 21) = {9.857191053454558, -0.7928435629325383, 1};
Point(p10 + 22) = {9.891949562891664, -0.9376231742996073, 1};
Point(p10 + 23) = {9.948928658452102, -1.075182879573366, 1};
Point(p10 + 24) = {10.02672532570039, -1.202135502275488, 1};
Point(p10 + 25) = {10.12342395249655, -1.315355047503449, 1};
Point(p10 + 26) = {10.23664349772451, -1.412053674299607, 1};
Point(p10 + 27) = {10.36359612042664, -1.489850341547899, 1};
Point(p10 + 28) = {10.50115582570039, -1.546829437108336, 1};
Point(p10 + 29) = {10.64593543706746, -1.581587946545443, 1};
Point(p10 + 30) = {10.79437, -1.59327, 1};
Point(p10 + 31) = {10.94280456293254, -1.581587946545443, 1};
Point(p10 + 32) = {11.08758417429961, -1.546829437108336, 1};
Point(p10 + 33) = {11.22514387957337, -1.489850341547899, 1};
Point(p10 + 34) = {11.35209650227549, -1.412053674299607, 1};
Point(p10 + 35) = {11.46531604750345, -1.315355047503449, 1};
Point(p10 + 36) = {11.56201467429961, -1.202135502275488, 1};
Point(p10 + 37) = {11.6398113415479, -1.075182879573366, 1};
Point(p10 + 38) = {11.69679043710834, -0.9376231742996072, 1};
Point(p10 + 39) = {11.73154894654544, -0.7928435629325388, 1};
Spline(10) = {8, p10 + 1, p10 + 2, p10 + 3, p10 + 4, p10 + 5, p10 + 6, p10 + 7, p10 + 8, p10 + 9, p10 + 10, p10 + 11, p10 + 12, p10 + 13, p10 + 14, p10 + 15, p10 + 16, p10 + 17, p10 + 18, p10 + 19, p10 + 20, p10 + 21, p10 + 22, p10 + 23, p10 + 24, p10 + 25, p10 + 26, p10 + 27, p10 + 28, p10 + 29, p10 + 30, p10 + 31, p10 + 32, p10 + 33, p10 + 34, p10 + 35, p10 + 36, p10 + 37, p10 + 38, p10 + 39, 8};
p11 = newp;
Point(p11 + 1) = {32.49584841494728, 0.9221166686714168, 1};
Point(p11 + 2) = {32.45459010113368, 1.09396991371352, 1};
Point(p11 + 3) = {32.38695597517378, 1.257253137885152, 1};
Point(p11 + 4) = {32.29461141371352, 1.407945766301256, 1};
Point(p11 + 5) = {32.17983024633006, 1.542337246330065, 1};
Point(p11 + 6) = {32.04543876630125, 1.65711841371352, 1};
Point(p11 + 7) = {31.89474613788515, 1.749462975173786, 1};
Point(p11 + 8) = {31.73146291371352, 1.817097101133683, 1};
Point(p11 + 9) = {31.55960966867142, 1.858355414947282, 1};
Point(p11 + 10) = {31.383418, 1.872222, 1};
Point(p11 + 11) = {31.20722633132858, 1.858355414947282, 1};
Point(p11 + 12) = {31.03537308628648, 1.817097101133683, 1};
Point(p11 + 13) = {30.87208986211485, 1.749462975173786, 1};
Point(p11 + 14) = {30.72139723369874, 1.65711841371352, 1};
Point(p11 + 15) = {30.58700575366993, 1.542337246330065, 1};
Point(p11 + 16) = {30.47222458628648, 1.407945766301256, 1};
Point(p11 + 17) = {30.37988002482621, 1.257253137885152, 1};
Point(p11 + 18) = {30.31224589886632, 1.09396991371352, 1};
Point(p11 + 19) = {30.27098758505272, 0.9221166686714171, 1};
Point(p11 + 20) = {30.257121, 0.7459250000000001, 1};
Point(p11 + 21) = {30.27098758505272, 0.5697333313285832, 1};
Point(p11 + 22) = {30.31224589886632, 0.3978800862864794, 1};
Point(p11 + 23) = {30.37988002482621, 0.2345968621148482, 1};
Point(p11 + 24) = {30.47222458628648, 0.08390423369874445, 1};
Point(p11 + 25) = {30.58700575366993, -0.05048724633006496, 1};
Point(p11 + 26) = {30.72139723369874, -0.1652684137135202, 1};
Point(p11 + 27) = {30.87208986211485, -0.2576129751737861, 1};
Point(p11 + 28) = {31.03537308628648, -0.3252471011336826, 1};
Point(p11 + 29) = {31.20722633132858, -0.3665054149472819, 1};
Point(p11 + 30) = {31.383418, -0.3803720000000002, 1};
Point(p11 + 31) = {31.55960966867142, -0.3665054149472819, 1};
Point(p11 + 32) = {31.73146291371352, -0.3252471011336828, 1};
Point(p11 + 33) = {31.89474613788515, -0.2576129751737863, 1};
Point(p11 + 34) = {32.04543876630125, -0.1652684137135204, 1};
Point(p11 + 35) = {32.17983024633006, -0.05048724633006518, 1};
Point(p11 + 36) = {32.29461141371352, 0.083904233698744, 1};
Point(p11 + 37) = {32.38695597517378, 0.2345968621148473, 1};
Point(p11 + 38) = {32.45459010113368, 0.3978800862864795, 1};
Point(p11 + 39) = {32.49584841494728, 0.5697333313285828, 1};
Spline(11) = {9, p11 + 1, p11 + 2, p11 + 3, p11 + 4, p11 + 5, p11 + 6, p11 + 7, p11 + 8, p11 + 9, p11 + 10, p11 + 11, p11 + 12, p11 + 13, p11 + 14, p11 + 15, p11 + 16, p11 + 17, p11 + 18, p11 + 19, p11 + 20, p11 + 21, p11 + 22, p11 + 23, p11 + 24, p11 + 25, p11 + 26, p11 + 27, p11 + 28, p11 + 29, p11 + 30, p11 + 31, p11 + 32, p11 + 33, p11 + 34, p11 + 35, p11 + 36, p11 + 37, p11 + 38, p11 + 39, 9};
Line(12) = {4, 10};
Line(13) = {10, 7};
Line(14) = {5, 10};
p15 = newp;
Point(p15 + 1) = {11.73154894654544, -0.4959744370674615, 0};
Point(p15 + 2) = {11.69679043710834, -0.3511948257003931, 0};
Point(p15 + 3) = {11.6398113415479, -0.213635120426634, 0};
Point(p15 + 4) = {11.56201467429961, -0.08668249772451164, 0};
Point(p15 + 5) = {11.46531604750345, 0.02653704750344854, 0};
Point(p15 + 6) = {11.35209650227549, 0.1232356742996069, 0};
Point(p15 + 7) = {11.22514387957337, 0.2010323415478988, 0};
Point(p15 + 8) = {11.08758417429961, 0.2580114371083356, 0};
Point(p15 + 9) = {10.94280456293254, 0.292769946545443, 0};
Point(p15 + 10) = {10.79437, 0.3044519999999999, 0};
Point(p15 + 11) = {10.64593543706746, 0.2927699465454429, 0};
Point(p15 + 12) = {10.50115582570039, 0.2580114371083357, 0};
Point(p15 + 13) = {10.36359612042664, 0.201032341547899, 0};
Point(p15 + 14) = {10.23664349772451, 0.1232356742996069, 0};
Point(p15 + 15) = {10.12342395249655, 0.02653704750344865, 0};
Point(p15 + 16) = {10.02672532570039, -0.08668249772451153, 0};
Point(p15 + 17) = {9.948928658452102, -0.2136351204266339, 0};
Point(p15 + 18) = {9.891949562891664, -0.351194825700393, 0};
Point(p15 + 19) = {9.857191053454558, -0.4959744370674614, 0};
Point(p15 + 20) = {9.845509, -0.6444089999999999, 0};
Point(p15 + 21) = {9.857191053454558, -0.7928435629325383, 0};
Point(p15 + 22) = {9.891949562891664, -0.9376231742996073, 0};
Point(p15 + 23) = {9.948928658452102, -1.075182879573366, 0};
Point(p15 + 24) = {10.02672532570039, -1.202135502275488, 0};
Point(p15 + 25) = {10.12342395249655, -1.315355047503449, 0};
Point(p15 + 26) = {10.23664349772451, -1.412053674299607, 0};
Point(p15 + 27) = {10.36359612042664, -1.489850341547899, 0};
Point(p15 + 28) = {10.50115582570039, -1.546829437108336, 0};
Point(p15 + 29) = {10.64593543706746, -1.581587946545443, 0};
Point(p15 + 30) = {10.79437, -1.59327, 0};
Point(p15 + 31) = {10.94280456293254, -1.581587946545443, 0};
Point(p15 + 32) = {11.08758417429961, -1.546829437108336, 0};
Point(p15 + 33) = {11.22514387957337, -1.489850341547899, 0};
Point(p15 + 34) = {11.35209650227549, -1.412053674299607, 0};
Point(p15 + 35) = {11.46531604750345, -1.315355047503449, 0};
Point(p15 + 36) = {11.56201467429961, -1.202135502275488, 0};
Point(p15 + 37) = {11.6398113415479, -1.075182879573366, 0};
Point(p15 + 38) = {11.69679043710834, -0.9376231742996072, 0};
Point(p15 + 39) = {11.73154894654544, -0.7928435629325388, 0};
Spline(15) = {11, p15 + 1, p15 + 2, p15 + 3, p15 + 4, p15 + 5, p15 + 6, p15 + 7, p15 + 8, p15 + 9, p15 + 10, p15 + 11, p15 + 12, p15 + 13, p15 + 14, p15 + 15, p15 + 16, p15 + 17, p15 + 18, p15 + 19, p15 + 20, p15 + 21, p15 + 22, p15 + 23, p15 + 24, p15 + 25, p15 + 26, p15 + 27, p15 + 28, p15 + 29, p15 + 30, p15 + 31, p15 + 32, p15 + 33, p15 + 34, p15 + 35, p15 + 36, p15 + 37, p15 + 38, p15 + 39, 11};
p16 = newp;
Point(p16 + 1) = {32.49584841494728, 0.9221166686714168, 0};
Point(p16 + 2) = {32.45459010113368, 1.09396991371352, 0};
Point(p16 + 3) = {32.38695597517378, 1.257253137885152, 0};
Point(p16 + 4) = {32.29461141371352, 1.407945766301256, 0};
Point(p16 + 5) = {32.17983024633006, 1.542337246330065, 0};
Point(p16 + 6) = {32.04543876630125, 1.65711841371352, 0};
Point(p16 + 7) = {31.89474613788515, 1.749462975173786, 0};
Point(p16 + 8) = {31.73146291371352, 1.817097101133683, 0};
Point(p16 + 9) = {31.55960966867142, 1.858355414947282, 0};
Point(p16 + 10) = {31.383418, 1.872222, 0};
Point(p16 + 11) = {31.20722633132858, 1.858355414947282, 0};
Point(p16 + 12) = {31.03537308628648, 1.817097101133683, 0};
Point(p16 + 13) = {30.87208986211485, 1.749462975173786, 0};
Point(p16 + 14) = {30.72139723369874, 1.65711841371352, 0};
Point(p16 + 15) = {30.58700575366993, 1.542337246330065, 0};
Point(p16 + 16) = {30.47222458628648, 1.407945766301256, 0};
Point(p16 + 17) = {30.37988002482621, 1.257253137885152, 0};
Point(p16 + 18) = {30.31224589886632, 1.09396991371352, 0};
Point(p16 + 19) = {30.27098758505272, 0.9221166686714171, 0};
Point(p16 + 20) = {30.257121, 0.7459250000000001, 0};
Point(p16 + 21) = {30.27098758505272, 0.5697333313285832, 0};
Point(p16 + 22) = {30.31224589886632, 0.3978800862864794, 0};
Point(p16 + 23) = {30.37988002482621, 0.2345968621148482, 0};
Point(p16 + 24) = {30.47222458628648, 0.08390423369874445, 0};
Point(p16 + 25) = {30.58700575366993, -0.05048724633006496, 0};
Point(p16 + 26) = {30.72139723369874, -0.1652684137135202, 0};
Point(p16 + 27) = {30.87208986211485, -0.2576129751737861, 0};
Point(p16 + 28) = {31.03537308628648, -0.3252471011336826, 0};
Point(p16 + 29) = {31.20722633132858, -0.3665054149472819, 0};
Point(p16 + 30) = {31.383418, -0.3803720000000002, 0};
Point(p16 + 31) = {31.55960966867142, -0.3665054149472819, 0};
Point(p16 + 32) = {31.73146291371352, -0.3252471011336828, 0};
Point(p16 + 33) = {31.89474613788515, -0.2576129751737863, 0};
Point(p16 + 34) = {32.04543876630125, -0.1652684137135204, 0};
Point(p16 + 35) = {32.17983024633006, -0.05048724633006518, 0};
Point(p16 + 36) = {32.29461141371352, 0.083904233698744, 0};
Point(p16 + 37) = {32.38695597517378, 0.2345968621148473, 0};
Point(p16 + 38) = {32.45459010113368, 0.3978800862864795, 0};
Point(p16 + 39) = {32.49584841494728, 0.5697333313285828, 0};
Spline(16) = {12, p16 + 1, p16 + 2, p16 + 3, p16 + 4, p16 + 5, p16 + 6, p16 + 7, p16 + 8, p16 + 9, p16 + 10, p16 + 11, p16 + 12, p16 + 13, p16 + 14, p16 + 15, p16 + 16, p16 + 17, p16 + 18, p16 + 19, p16 + 20, p16 + 21, p16 + 22, p16 + 23, p16 + 24, p16 + 25, p16 + 26, p16 + 27, p16 + 28, p16 + 29, p16 + 30, p16 + 31, p16 + 32, p16 + 33, p16 + 34, p16 + 35, p16 + 36, p16 + 37, p16 + 38, p16 + 39, 12};
Line(17) = {11, 8};
Line(18) = {12, 9};
Curve Loop(1) = {-1, 4, 3, -2};
Plane Surface(1) = {1};
Curve Loop(2) = {-5, 1, 7, -6};
Plane Surface(2) = {2};
Curve Loop(3) = {-2, 7, 9, -8, -10, -11};
Plane Surface(3) = {3};
Curve Loop(4) = {-12, 3, 8, -13};
Plane Surface(4) = {4};
Curve Loop(5) = {-4, 5, 14, -12, -15, -16};
Plane Surface(5) = {5};
Curve Loop(6) = {-6, 14, 13, -9};
Plane Surface(6) = {6};
Curve Loop(7) = {-10, -17, 15, 17};
Surface(7) = {7};
Curve Loop(8) = {-11, -18, 16, 18};
Surface(8) = {8};
Surface Loop(1) = {1, 2, 3, 4, 5, 6, 7, 8};
Volume(1) = {1};
Physical Surface("INFLOW") = {1};
Physical Surface("OUTFLOW") = {6};
Physical Surface("OBSTACLE") = {7, 8};
Physical Surface("WALL_Y") = {2, 4};
Physical Surface("WALL_Z") = {3, 5};
Physical Volume("FLUID") = {1};
