cl__1 = 0.337399;
cl__2 = 0.9062170000000001;
cl__3 = 3.220845;
cl__4 = 2.09508;
cl__5 = 0.061572;
cl__6 = 0.105713;
Point(1) = {0.180849, -3.66302, 1, cl__1};
Point(2) = {0.180849, -3.66302, 0, cl__1};
Point(3) = {0.180849, 4.372665000000001, 1, cl__2};
Point(4) = {0.180849, 4.372665000000001, 0, cl__2};
Point(5) = {33.796151, -3.66302, 0, cl__3};
Point(6) = {33.796151, -3.66302, 1, cl__3};
Point(7) = {33.796151, 4.372665000000001, 1, cl__4};
Point(8) = {1.988136, -1.38121, 1, cl__5};
Point(9) = {26.819048, 1.645153, 1, cl__6};
Point(10) = {33.796151, 4.372665000000001, 0, cl__4};
Point(11) = {1.988136, -1.38121, 0, cl__5};
Point(12) = {26.819048, 1.645153, 0, cl__6};
Line(1) = {2, 1};
Line(2) = {1, 3};
Line(3) = {4, 3};
Line(4) = {2, 4};
Line(5) = {2, 5};
Line(6) = {5, 6};
Line(7) = {1, 6};
Line(8) = {3, 7};
Line(9) = {6, 7};
p10 = newp;
Point(p10 + 1) = {1.98055542813626, -1.284889701882034, 1};
Point(p10 + 2) = {1.958000371382801, -1.190941129172474, 1};
Point(p10 + 3) = {1.921026210092835, -1.101677607528867, 1};
Point(p10 + 4) = {1.870543370827526, -1.019297101102722, 1};
Point(p10 + 5) = {1.807794908632525, -0.9458280913674755, 1};
Point(p10 + 6) = {1.734325898897279, -0.8830796291724743, 1};
Point(p10 + 7) = {1.651945392471133, -0.8325967899071657, 1};
Point(p10 + 8) = {1.562681870827526, -0.7956226286171992, 1};
Point(p10 + 9) = {1.468733298117966, -0.77306757186374, 1};
Point(p10 + 10) = {1.372413, -0.765487, 1};
Point(p10 + 11) = {1.276092701882034, -0.7730675718637401, 1};
Point(p10 + 12) = {1.182144129172474, -0.7956226286171991, 1};
Point(p10 + 13) = {1.092880607528867, -0.8325967899071656, 1};
Point(p10 + 14) = {1.010500101102722, -0.8830796291724743, 1};
Point(p10 + 15) = {0.9370310913674755, -0.9458280913674755, 1};
Point(p10 + 16) = {0.8742826291724743, -1.019297101102722, 1};
Point(p10 + 17) = {0.8237997899071657, -1.101677607528867, 1};
Point(p10 + 18) = {0.7868256286171993, -1.190941129172474, 1};
Point(p10 + 19) = {0.7642705718637401, -1.284889701882034, 1};
Point(p10 + 20) = {0.7566900000000001, -1.38121, 1};
Point(p10 + 21) = {0.76427057186374, -1.477530298117966, 1};
Point(p10 + 22) = {0.7868256286171993, -1.571478870827526, 1};
Point(p10 + 23) = {0.8237997899071655, -1.660742392471133, 1};
Point(p10 + 24) = {0.8742826291724742, -1.743122898897278, 1};
Point(p10 + 25) = {0.9370310913674753, -1.816591908632525, 1};
Point(p10 + 26) = {1.010500101102722, -1.879340370827526, 1};
Point(p10 + 27) = {1.092880607528867, -1.929823210092835, 1};
Point(p10 + 28) = {1.182144129172474, -1.966797371382801, 1};
Point(p10 + 29) = {1.276092701882034, -1.98935242813626, 1};
Point(p10 + 30) = {1.372413, -1.996933, 1};
Point(p10 + 31) = {1.468733298117966, -1.98935242813626, 1};
Point(p10 + 32) = {1.562681870827526, -1.966797371382801, 1};
Point(p10 + 33) = {1.651945392471133, -1.929823210092835, 1};
Point(p10 + 34) = {1.734325898897279, -1.879340370827526, 1};
Point(p10 + 35) = {1.807794908632525, -1.816591908632525, 1};
Point(p10 + 36) = {1.870543370827526, -1.743122898897279, 1};
Point(p10 + 37) = {1.921026210092835, -1.660742392471133, 1};
Point(p10 + 38) = {1.958000371382801, -1.571478870827526, 1};
Point(p10 + 39) = {1.98055542813626, -1.477530298117966, 1};
Spline(10) = {8, p10 + 1, p10 + 2, p10 + 3, p10 + 4, p10 + 5, p10 + 6, p10 + 7, p10 + 8, p10 + 9, p10 + 10, p10 + 11, p10 + 12, p10 + 13, p10 + 14, p10 + 15, p10 + 16, p10 + 17, p10 + 18, p10 + 19, p10 + 20, p10 + 21, p10 + 22, p10 + 23, p10 + 24, p10 + 25, p10 + 26, p10 + 27, p10 + 28, p10 + 29, p10 + 30, p10 + 31, p10 + 32, p10 + 33, p10 + 34, p10 + 35, p10 + 36, p10 + 37, p10 + 38, p10 + 39, 8};
p11 = newp;
Point(p11 + 1) = {26.80603295087002, 1.810524878896909, 1};
Point(p11 + 2) = {26.76730827718413, 1.971824753297577, 1};
Point(p11 + 3) = {26.7038275089283, 2.125080884970667, 1};
Point(p11 + 4) = {26.61715375329758, 2.266519599326447, 1};
Point(p11 + 5) = {26.5094212058093, 2.392658205809298, 1};
Point(p11 + 6) = {26.38328259932645, 2.500390753297577, 1};
Point(p11 + 7) = {26.24184388497067, 2.587064508928298, 1};
Point(p11 + 8) = {26.08858775329758, 2.650545277184128, 1};
Point(p11 + 9) = {25.92728787889691, 2.68926995087002, 1};
Point(p11 + 10) = {25.761916, 2.702285, 1};
Point(p11 + 11) = {25.59654412110309, 2.689269950870019, 1};
Point(p11 + 12) = {25.43524424670242, 2.650545277184128, 1};
Point(p11 + 13) = {25.28198811502933, 2.587064508928298, 1};
Point(p11 + 14) = {25.14054940067355, 2.500390753297577, 1};
Point(p11 + 15) = {25.0144107941907, 2.392658205809298, 1};
Point(p11 + 16) = {24.90667824670242, 2.266519599326447, 1};
Point(p11 + 17) = {24.8200044910717, 2.125080884970667, 1};
Point(p11 + 18) = {24.75652372281587, 1.971824753297577, 1};
Point(p11 + 19) = {24.71779904912998, 1.810524878896909, 1};
Point(p11 + 20) = {24.704784, 1.645153, 1};
Point(p11 + 21) = {24.71779904912998, 1.479781121103091, 1};
Point(p11 + 22) = {24.75652372281587, 1.318481246702423, 1};
Point(p11 + 23) = {24.8200044910717, 1.165225115029334, 1};
Point(p11 + 24) = {24.90667824670242, 1.023786400673554, 1};
Point(p11 + 25) = {25.0144107941907, 0.8976477941907028, 1};
Point(p11 + 26) = {25.14054940067355, 0.7899152467024233, 1};
Point(p11 + 27) = {25.28198811502933, 0.7032414910717025, 1};
Point(p11 + 28) = {25.43524424670242, 0.6397607228158719, 1};
Point(p11 + 29) = {25.59654412110309, 0.6010360491299811, 1};
Point(p11 + 30) = {25.761916, 0.5880210000000001, 1};
Point(p11 + 31) = {25.92728787889691, 0.6010360491299809, 1};
Point(p11 + 32) = {26.08858775329758, 0.6397607228158717, 1};
Point(p11 + 33) = {26.24184388497067, 0.7032414910717024, 1};
Point(p11 + 34) = {26.38328259932645, 0.7899152467024231, 1};
Point(p11 + 35) = {26.5094212058093, 0.8976477941907026, 1};
Point(p11 + 36) = {26.61715375329758, 1.023786400673553, 1};
Point(p11 + 37) = {26.7038275089283, 1.165225115029333, 1};
Point(p11 + 38) = {26.76730827718413, 1.318481246702423, 1};
Point(p11 + 39) = {26.80603295087002, 1.47978112110309, 1};
Spline(11) = {9, p11 + 1, p11 + 2, p11 + 3, p11 + 4, p11 + 5, p11 + 6, p11 + 7, p11 + 8, p11 + 9, p11 + 10, p11 + 11, p11 + 12, p11 + 13, p11 + 14, p11 + 15, p11 + 16, p11 + 17, p11 + 18, p11 + 19, p11 + 20, p11 + 21, p11 + 22, p11 + 23, p11 + 24, p11 + 25, p11 + 26, p11 + 27, p11 + 28, p11 + 29, p11 + 30, p11 + 31, p11 + 32, p11 + 33, p11 + 34, p11 + 35, p11 + 36, p11 + 37, p11 + 38, p11 + 39, 9};
Line(12) = {4, 10};
Line(13) = {10, 7};
Line(14) = {5, 10};
p15 = newp;
Point(p15 + 1) = {1.98055542813626, -1.284889701882034, 0};
Point(p15 + 2) = {1.958000371382801, -1.190941129172474, 0};
Point(p15 + 3) = {1.921026210092835, -1.101677607528867, 0};
Point(p15 + 4) = {1.870543370827526, -1.019297101102722, 0};
Point(p15 + 5) = {1.807794908632525, -0.9458280913674755, 0};
Point(p15 + 6) = {1.734325898897279, -0.8830796291724743, 0};
Point(p15 + 7) = {1.651945392471133, -0.8325967899071657, 0};
Point(p15 + 8) = {1.562681870827526, -0.7956226286171992, 0};
Point(p15 + 9) = {1.468733298117966, -0.77306757186374, 0};
Point(p15 + 10) = {1.372413, -0.765487, 0};
Point(p15 + 11) = {1.276092701882034, -0.7730675718637401, 0};
Point(p15 + 12) = {1.182144129172474, -0.7956226286171991, 0};
Point(p15 + 13) = {1.092880607528867, -0.8325967899071656, 0};
Point(p15 + 14) = {1.010500101102722, -0.8830796291724743, 0};
Point(p15 + 15) = {0.9370310913674755, -0.9458280913674755, 0};
Point(p15 + 16) = {0.8742826291724743, -1.019297101102722, 0};
Point(p15 + 17) = {0.8237997899071657, -1.101677607528867, 0};
Point(p15 + 18) = {0.7868256286171993, -1.190941129172474, 0};
Point(p15 + 19) = {0.7642705718637401, -1.284889701882034, 0};
Point(p15 + 20) = {0.7566900000000001, -1.38121, 0};
Point(p15 + 21) = {0.76427057186374, -1.477530298117966, 0};
Point(p15 + 22) = {0.7868256286171993, -1.571478870827526, 0};
Point(p15 + 23) = {0.8237997899071655, -1.660742392471133, 0};
Point(p15 + 24) = {0.8742826291724742, -1.743122898897278, 0};
Point(p15 + 25) = {0.9370310913674753, -1.816591908632525, 0};
Point(p15 + 26) = {1.010500101102722, -1.879340370827526, 0};
Point(p15 + 27) = {1.092880607528867, -1.929823210092835, 0};
Point(p15 + 28) = {1.182144129172474, -1.966797371382801, 0};
Point(p15 + 29) = {1.276092701882034, -1.98935242813626, 0};
Point(p15 + 30) = {1.372413, -1.996933, 0};
Point(p15 + 31) = {1.468733298117966, -1.98935242813626, 0};
Point(p15 + 32) = {1.562681870827526, -1.966797371382801, 0};
Point(p15 + 33) = {1.651945392471133, -1.929823210092835, 0};
Point(p15 + 34) = {1.734325898897279, -1.879340370827526, 0};
Point(p15 + 35) = {1.807794908632525, -1.816591908632525, 0};
Point(p15 + 36) = {1.870543370827526, -1.743122898897279, 0};
Point(p15 + 37) = {1.921026210092835, -1.660742392471133, 0};
Point(p15 + 38) = {1.958000371382801, -1.571478870827526, 0};
Point(p15 + 39) = {1.98055542813626, -1.477530298117966, 0};
Spline(15) = {11, p15 + 1, p15 + 2, p15 + 3, p15 + 4, p15 + 5, p15 + 6, p15 + 7, p15 + 8, p15 + 9, p15 + 10, p15 + 11, p15 + 12, p15 + 13, p15 + 14, p15 + 15, p15 + 16, p15 + 17, p15 + 18, p15 + 19, p15 + 20, p15 + 21, p15 + 22, p15 + 23, p15 + 24, p15 + 25, p15 + 26, p15 + 27, p15 + 28, p15 + 29, p15 + 30, p15 + 31, p15 + 32, p15 + 33, p15 + 34, p15 + 35, p15 + 36, p15 + 37, p15 + 38, p15 + 39, 11};
p16 = newp;
Point(p16 + 1) = {26.80603295087002, 1.810524878896909, 0};
Point(p16 + 2) = {26.76730827718413, 1.971824753297577, 0};
Point(p16 + 3) = {26.7038275089283, 2.125080884970667, 0};
Point(p16 + 4) = {26.61715375329758, 2.266519599326447, 0};
Point(p16 + 5) = {26.5094212058093, 2.392658205809298, 0};
Point(p16 + 6) = {26.38328259932645, 2.500390753297577, 0};
Point(p16 + 7) = {26.24184388497067, 2.587064508928298, 0};
Point(p16 + 8) = {26.08858775329758, 2.650545277184128, 0};
Point(p16 + 9) = {25.92728787889691, 2.68926995087002, 0};
Point(p16 + 10) = {25.761916, 2.702285, 0};
Point(p16 + 11) = {25.59654412110309, 2.689269950870019, 0};
Point(p16 + 12) = {25.43524424670242, 2.650545277184128, 0};
Point(p16 + 13) = {25.28198811502933, 2.587064508928298, 0};
Point(p16 + 14) = {25.14054940067355, 2.500390753297577, 0};
Point(p16 + 15) = {25.0144107941907, 2.392658205809298, 0};
Point(p16 + 16) = {24.90667824670242, 2.266519599326447, 0};
Point(p16 + 17) = {24.8200044910717, 2.125080884970667, 0};
Point(p16 + 18) = {24.75652372281587, 1.971824753297577, 0};
Point(p16 + 19) = {24.71779904912998, 1.810524878896909, 0};
Point(p16 + 20) = {24.704784, 1.645153, 0};
Point(p16 + 21) = {24.71779904912998, 1.479781121103091, 0};
Point(p16 + 22) = {24.75652372281587, 1.318481246702423, 0};
Point(p16 + 23) = {24.8200044910717, 1.165225115029334, 0};
Point(p16 + 24) = {24.90667824670242, 1.023786400673554, 0};
Point(p16 + 25) = {25.0144107941907, 0.8976477941907028, 0};
Point(p16 + 26) = {25.14054940067355, 0.7899152467024233, 0};
Point(p16 + 27) = {25.28198811502933, 0.7032414910717025, 0};
Point(p16 + 28) = {25.43524424670242, 0.6397607228158719, 0};
Point(p16 + 29) = {25.59654412110309, 0.6010360491299811, 0};
Point(p16 + 30) = {25.761916, 0.5880210000000001, 0};
Point(p16 + 31) = {25.92728787889691, 0.6010360491299809, 0};
Point(p16 + 32) = {26.08858775329758, 0.6397607228158717, 0};
Point(p16 + 33) = {26.24184388497067, 0.7032414910717024, 0};
Point(p16 + 34) = {26.38328259932645, 0.7899152467024231, 0};
Point(p16 + 35) = {26.5094212058093, 0.8976477941907026, 0};
Point(p16 + 36) = {26.61715375329758, 1.023786400673553, 0};
Point(p16 + 37) = {26.7038275089283, 1.165225115029333, 0};
Point(p16 + 38) = {26.76730827718413, 1.318481246702423, 0};
Point(p16 + 39) = {26.80603295087002, 1.47978112110309, 0};
Spline(16) = {12, p16 + 1, p16 + 2, p16 + 3, p16 + 4, p16 + 5, p16 + 6, p16 + 7, p16 + 8, p16 + 9, p16 + 10, p16 + 11, p16 + 12, p16 + 13, p16 + 14, p16 + 15, p16 + 16, p16 + 17, p16 + 18, p16 + 19, p16 + 20, p16 + 21, p16 + 22, p16 + 23, p16 + 24, p16 + 25, p16 + 26, p16 + 27, p16 + 28, p16 + 29, p16 + 30, p16 + 31, p16 + 32, p16 + 33, p16 + 34, p16 + 35, p16 + 36, p16 + 37, p16 + 38, p16 + 39, 12};
Line(17) = {11, 8};
Line(18) = {12, 9};
Curve Loop(1) = {-1, 4, 3, -2};
Plane Surface(1) = {1};
Curve Loop(2) = {-5, 1, 7, -6};
Plane Surface(2) = {2};
Curve Loop(3) = {-2, 7, 9, -8, -10, -11};
Plane Surface(3) = {3};
Curve Loop(4) = {-12, 3, 8, -13};
Plane Surface(4) = {4};
Curve Loop(5) = {-4, 5, 14, -12, -15, -16};
Plane Surface(5) = {5};
Curve Loop(6) = {-6, 14, 13, -9};
Plane Surface(6) = {6};
Curve Loop(7) = {-10, -17, 15, 17};
Surface(7) = {7};
Curve Loop(8) = {-11, -18, 16, 18};
Surface(8) = {8};
Surface Loop(1) = {1, 2, 3, 4, 5, 6, 7, 8};
Volume(1) = {1};
Physical Surface("INFLOW") = {1};
Physical Surface("OUTFLOW") = {6};
Physical Surface("OBSTACLE") = {7, 8};
Physical Surface("WALL_Y") = {2, 4};
Physical Surface("WALL_Z") = {3, 5};
Physical Volume("FLUID") = {1};
