cl__1 = 0.937133;
cl__2 = 0.959477;
cl__3 = 0.636974;
cl__4 = 0.431519;
cl__5 = 0.123517;
cl__6 = 0.129264;
Point(1) = {0.313722, -4.313225, 1, cl__1};
Point(2) = {0.313722, -4.313225, 0, cl__1};
Point(3) = {0.313722, 4.47769, 1, cl__2};
Point(4) = {0.313722, 4.47769, 0, cl__2};
Point(5) = {31.578225, -4.313225, 0, cl__3};
Point(6) = {31.578225, -4.313225, 1, cl__3};
Point(7) = {31.578225, 4.47769, 1, cl__4};
Point(8) = {11.321229, -0.1901870000000003, 1, cl__5};
Point(9) = {28.038149, 1.632942, 1, cl__6};
Point(10) = {31.578225, 4.47769, 0, cl__4};
Point(11) = {11.321229, -0.1901870000000003, 0, cl__5};
Point(12) = {28.038149, 1.632942, 0, cl__6};
Line(1) = {2, 1};
Line(2) = {1, 3};
Line(3) = {4, 3};
Line(4) = {2, 4};
Line(5) = {2, 5};
Line(6) = {5, 6};
Line(7) = {1, 6};
Line(8) = {3, 7};
Line(9) = {6, 7};
p10 = newp;
Point(p10 + 1) = {11.30602198302958, 0.003036471052672046, 1};
Point(p10 + 2) = {11.26077537934532, 0.1915021389760925, 1};
Point(p10 + 3) = {11.1866033104948, 0.3705693535442954, 1};
Point(p10 + 4) = {11.08533213897609, 0.5358288856445986, 1};
Point(p10 + 5) = {10.95945549713175, 0.6832114971317501, 1};
Point(p10 + 6) = {10.8120728856446, 0.8090881389760926, 1};
Point(p10 + 7) = {10.6468133535443, 0.9103593104947946, 1};
Point(p10 + 8) = {10.46774613897609, 0.9845313793453173, 1};
Point(p10 + 9) = {10.27928047105267, 1.029777983029577, 1};
Point(p10 + 10) = {10.086057, 1.044985, 1};
Point(p10 + 11) = {9.892833528947328, 1.029777983029577, 1};
Point(p10 + 12) = {9.704367861023908, 0.9845313793453175, 1};
Point(p10 + 13) = {9.525300646455705, 0.9103593104947948, 1};
Point(p10 + 14) = {9.360041114355402, 0.8090881389760926, 1};
Point(p10 + 15) = {9.212658502868249, 0.6832114971317503, 1};
Point(p10 + 16) = {9.086781861023908, 0.5358288856445987, 1};
Point(p10 + 17) = {8.985510689505206, 0.3705693535442955, 1};
Point(p10 + 18) = {8.911338620654682, 0.1915021389760926, 1};
Point(p10 + 19) = {8.866092016970423, 0.003036471052672185, 1};
Point(p10 + 20) = {8.850885, -0.1901869999999999, 1};
Point(p10 + 21) = {8.866092016970423, -0.3834104710526719, 1};
Point(p10 + 22) = {8.911338620654682, -0.5718761389760929, 1};
Point(p10 + 23) = {8.985510689505205, -0.7509433535442948, 1};
Point(p10 + 24) = {9.086781861023908, -0.9162028856445984, 1};
Point(p10 + 25) = {9.212658502868249, -1.06358549713175, 1};
Point(p10 + 26) = {9.360041114355402, -1.189462138976092, 1};
Point(p10 + 27) = {9.525300646455705, -1.290733310494795, 1};
Point(p10 + 28) = {9.704367861023908, -1.364905379345317, 1};
Point(p10 + 29) = {9.892833528947328, -1.410151983029577, 1};
Point(p10 + 30) = {10.086057, -1.425359, 1};
Point(p10 + 31) = {10.27928047105267, -1.410151983029577, 1};
Point(p10 + 32) = {10.46774613897609, -1.364905379345318, 1};
Point(p10 + 33) = {10.6468133535443, -1.290733310494795, 1};
Point(p10 + 34) = {10.8120728856446, -1.189462138976093, 1};
Point(p10 + 35) = {10.95945549713175, -1.06358549713175, 1};
Point(p10 + 36) = {11.08533213897609, -0.9162028856445988, 1};
Point(p10 + 37) = {11.18660331049479, -0.7509433535442956, 1};
Point(p10 + 38) = {11.26077537934532, -0.5718761389760928, 1};
Point(p10 + 39) = {11.30602198302958, -0.3834104710526723, 1};
Spline(10) = {8, p10 + 1, p10 + 2, p10 + 3, p10 + 4, p10 + 5, p10 + 6, p10 + 7, p10 + 8, p10 + 9, p10 + 10, p10 + 11, p10 + 12, p10 + 13, p10 + 14, p10 + 15, p10 + 16, p10 + 17, p10 + 18, p10 + 19, p10 + 20, p10 + 21, p10 + 22, p10 + 23, p10 + 24, p10 + 25, p10 + 26, p10 + 27, p10 + 28, p10 + 29, p10 + 30, p10 + 31, p10 + 32, p10 + 33, p10 + 34, p10 + 35, p10 + 36, p10 + 37, p10 + 38, p10 + 39, 8};
p11 = newp;
Point(p11 + 1) = {28.02223443196358, 1.835155759758534, 1};
Point(p11 + 2) = {27.9748825973368, 2.032390345642821, 1};
Point(p11 + 3) = {27.8972594554399, 2.219789187564327, 1};
Point(p11 + 4) = {27.79127634564282, 2.392737904093847, 1};
Point(p11 + 5) = {27.65954292384654, 2.546977923846541, 1};
Point(p11 + 6) = {27.50530290409385, 2.678711345642821, 1};
Point(p11 + 7) = {27.33235418756433, 2.7846944554399, 1};
Point(p11 + 8) = {27.14495534564282, 2.8623175973368, 1};
Point(p11 + 9) = {26.94772075975854, 2.90966943196358, 1};
Point(p11 + 10) = {26.745507, 2.925584, 1};
Point(p11 + 11) = {26.54329324024146, 2.90966943196358, 1};
Point(p11 + 12) = {26.34605865435718, 2.8623175973368, 1};
Point(p11 + 13) = {26.15865981243567, 2.7846944554399, 1};
Point(p11 + 14) = {25.98571109590615, 2.678711345642821, 1};
Point(p11 + 15) = {25.83147107615346, 2.546977923846541, 1};
Point(p11 + 16) = {25.69973765435718, 2.392737904093847, 1};
Point(p11 + 17) = {25.5937545445601, 2.219789187564327, 1};
Point(p11 + 18) = {25.5161314026632, 2.032390345642821, 1};
Point(p11 + 19) = {25.46877956803642, 1.835155759758534, 1};
Point(p11 + 20) = {25.452865, 1.632942, 1};
Point(p11 + 21) = {25.46877956803642, 1.430728240241466, 1};
Point(p11 + 22) = {25.5161314026632, 1.233493654357179, 1};
Point(p11 + 23) = {25.5937545445601, 1.046094812435673, 1};
Point(p11 + 24) = {25.69973765435718, 0.8731460959061529, 1};
Point(p11 + 25) = {25.83147107615346, 0.7189060761534588, 1};
Point(p11 + 26) = {25.98571109590615, 0.5871726543571791, 1};
Point(p11 + 27) = {26.15865981243567, 0.4811895445600998, 1};
Point(p11 + 28) = {26.34605865435718, 0.4035664026632, 1};
Point(p11 + 29) = {26.54329324024146, 0.3562145680364199, 1};
Point(p11 + 30) = {26.745507, 0.3402999999999998, 1};
Point(p11 + 31) = {26.94772075975854, 0.3562145680364197, 1};
Point(p11 + 32) = {27.14495534564282, 0.4035664026631998, 1};
Point(p11 + 33) = {27.33235418756433, 0.4811895445600995, 1};
Point(p11 + 34) = {27.50530290409385, 0.5871726543571789, 1};
Point(p11 + 35) = {27.65954292384654, 0.7189060761534585, 1};
Point(p11 + 36) = {27.79127634564282, 0.8731460959061526, 1};
Point(p11 + 37) = {27.8972594554399, 1.046094812435672, 1};
Point(p11 + 38) = {27.9748825973368, 1.233493654357179, 1};
Point(p11 + 39) = {28.02223443196358, 1.430728240241466, 1};
Spline(11) = {9, p11 + 1, p11 + 2, p11 + 3, p11 + 4, p11 + 5, p11 + 6, p11 + 7, p11 + 8, p11 + 9, p11 + 10, p11 + 11, p11 + 12, p11 + 13, p11 + 14, p11 + 15, p11 + 16, p11 + 17, p11 + 18, p11 + 19, p11 + 20, p11 + 21, p11 + 22, p11 + 23, p11 + 24, p11 + 25, p11 + 26, p11 + 27, p11 + 28, p11 + 29, p11 + 30, p11 + 31, p11 + 32, p11 + 33, p11 + 34, p11 + 35, p11 + 36, p11 + 37, p11 + 38, p11 + 39, 9};
Line(12) = {4, 10};
Line(13) = {10, 7};
Line(14) = {5, 10};
p15 = newp;
Point(p15 + 1) = {11.30602198302958, 0.003036471052672046, 0};
Point(p15 + 2) = {11.26077537934532, 0.1915021389760925, 0};
Point(p15 + 3) = {11.1866033104948, 0.3705693535442954, 0};
Point(p15 + 4) = {11.08533213897609, 0.5358288856445986, 0};
Point(p15 + 5) = {10.95945549713175, 0.6832114971317501, 0};
Point(p15 + 6) = {10.8120728856446, 0.8090881389760926, 0};
Point(p15 + 7) = {10.6468133535443, 0.9103593104947946, 0};
Point(p15 + 8) = {10.46774613897609, 0.9845313793453173, 0};
Point(p15 + 9) = {10.27928047105267, 1.029777983029577, 0};
Point(p15 + 10) = {10.086057, 1.044985, 0};
Point(p15 + 11) = {9.892833528947328, 1.029777983029577, 0};
Point(p15 + 12) = {9.704367861023908, 0.9845313793453175, 0};
Point(p15 + 13) = {9.525300646455705, 0.9103593104947948, 0};
Point(p15 + 14) = {9.360041114355402, 0.8090881389760926, 0};
Point(p15 + 15) = {9.212658502868249, 0.6832114971317503, 0};
Point(p15 + 16) = {9.086781861023908, 0.5358288856445987, 0};
Point(p15 + 17) = {8.985510689505206, 0.3705693535442955, 0};
Point(p15 + 18) = {8.911338620654682, 0.1915021389760926, 0};
Point(p15 + 19) = {8.866092016970423, 0.003036471052672185, 0};
Point(p15 + 20) = {8.850885, -0.1901869999999999, 0};
Point(p15 + 21) = {8.866092016970423, -0.3834104710526719, 0};
Point(p15 + 22) = {8.911338620654682, -0.5718761389760929, 0};
Point(p15 + 23) = {8.985510689505205, -0.7509433535442948, 0};
Point(p15 + 24) = {9.086781861023908, -0.9162028856445984, 0};
Point(p15 + 25) = {9.212658502868249, -1.06358549713175, 0};
Point(p15 + 26) = {9.360041114355402, -1.189462138976092, 0};
Point(p15 + 27) = {9.525300646455705, -1.290733310494795, 0};
Point(p15 + 28) = {9.704367861023908, -1.364905379345317, 0};
Point(p15 + 29) = {9.892833528947328, -1.410151983029577, 0};
Point(p15 + 30) = {10.086057, -1.425359, 0};
Point(p15 + 31) = {10.27928047105267, -1.410151983029577, 0};
Point(p15 + 32) = {10.46774613897609, -1.364905379345318, 0};
Point(p15 + 33) = {10.6468133535443, -1.290733310494795, 0};
Point(p15 + 34) = {10.8120728856446, -1.189462138976093, 0};
Point(p15 + 35) = {10.95945549713175, -1.06358549713175, 0};
Point(p15 + 36) = {11.08533213897609, -0.9162028856445988, 0};
Point(p15 + 37) = {11.18660331049479, -0.7509433535442956, 0};
Point(p15 + 38) = {11.26077537934532, -0.5718761389760928, 0};
Point(p15 + 39) = {11.30602198302958, -0.3834104710526723, 0};
Spline(15) = {11, p15 + 1, p15 + 2, p15 + 3, p15 + 4, p15 + 5, p15 + 6, p15 + 7, p15 + 8, p15 + 9, p15 + 10, p15 + 11, p15 + 12, p15 + 13, p15 + 14, p15 + 15, p15 + 16, p15 + 17, p15 + 18, p15 + 19, p15 + 20, p15 + 21, p15 + 22, p15 + 23, p15 + 24, p15 + 25, p15 + 26, p15 + 27, p15 + 28, p15 + 29, p15 + 30, p15 + 31, p15 + 32, p15 + 33, p15 + 34, p15 + 35, p15 + 36, p15 + 37, p15 + 38, p15 + 39, 11};
p16 = newp;
Point(p16 + 1) = {28.02223443196358, 1.835155759758534, 0};
Point(p16 + 2) = {27.9748825973368, 2.032390345642821, 0};
Point(p16 + 3) = {27.8972594554399, 2.219789187564327, 0};
Point(p16 + 4) = {27.79127634564282, 2.392737904093847, 0};
Point(p16 + 5) = {27.65954292384654, 2.546977923846541, 0};
Point(p16 + 6) = {27.50530290409385, 2.678711345642821, 0};
Point(p16 + 7) = {27.33235418756433, 2.7846944554399, 0};
Point(p16 + 8) = {27.14495534564282, 2.8623175973368, 0};
Point(p16 + 9) = {26.94772075975854, 2.90966943196358, 0};
Point(p16 + 10) = {26.745507, 2.925584, 0};
Point(p16 + 11) = {26.54329324024146, 2.90966943196358, 0};
Point(p16 + 12) = {26.34605865435718, 2.8623175973368, 0};
Point(p16 + 13) = {26.15865981243567, 2.7846944554399, 0};
Point(p16 + 14) = {25.98571109590615, 2.678711345642821, 0};
Point(p16 + 15) = {25.83147107615346, 2.546977923846541, 0};
Point(p16 + 16) = {25.69973765435718, 2.392737904093847, 0};
Point(p16 + 17) = {25.5937545445601, 2.219789187564327, 0};
Point(p16 + 18) = {25.5161314026632, 2.032390345642821, 0};
Point(p16 + 19) = {25.46877956803642, 1.835155759758534, 0};
Point(p16 + 20) = {25.452865, 1.632942, 0};
Point(p16 + 21) = {25.46877956803642, 1.430728240241466, 0};
Point(p16 + 22) = {25.5161314026632, 1.233493654357179, 0};
Point(p16 + 23) = {25.5937545445601, 1.046094812435673, 0};
Point(p16 + 24) = {25.69973765435718, 0.8731460959061529, 0};
Point(p16 + 25) = {25.83147107615346, 0.7189060761534588, 0};
Point(p16 + 26) = {25.98571109590615, 0.5871726543571791, 0};
Point(p16 + 27) = {26.15865981243567, 0.4811895445600998, 0};
Point(p16 + 28) = {26.34605865435718, 0.4035664026632, 0};
Point(p16 + 29) = {26.54329324024146, 0.3562145680364199, 0};
Point(p16 + 30) = {26.745507, 0.3402999999999998, 0};
Point(p16 + 31) = {26.94772075975854, 0.3562145680364197, 0};
Point(p16 + 32) = {27.14495534564282, 0.4035664026631998, 0};
Point(p16 + 33) = {27.33235418756433, 0.4811895445600995, 0};
Point(p16 + 34) = {27.50530290409385, 0.5871726543571789, 0};
Point(p16 + 35) = {27.65954292384654, 0.7189060761534585, 0};
Point(p16 + 36) = {27.79127634564282, 0.8731460959061526, 0};
Point(p16 + 37) = {27.8972594554399, 1.046094812435672, 0};
Point(p16 + 38) = {27.9748825973368, 1.233493654357179, 0};
Point(p16 + 39) = {28.02223443196358, 1.430728240241466, 0};
Spline(16) = {12, p16 + 1, p16 + 2, p16 + 3, p16 + 4, p16 + 5, p16 + 6, p16 + 7, p16 + 8, p16 + 9, p16 + 10, p16 + 11, p16 + 12, p16 + 13, p16 + 14, p16 + 15, p16 + 16, p16 + 17, p16 + 18, p16 + 19, p16 + 20, p16 + 21, p16 + 22, p16 + 23, p16 + 24, p16 + 25, p16 + 26, p16 + 27, p16 + 28, p16 + 29, p16 + 30, p16 + 31, p16 + 32, p16 + 33, p16 + 34, p16 + 35, p16 + 36, p16 + 37, p16 + 38, p16 + 39, 12};
Line(17) = {11, 8};
Line(18) = {12, 9};
Curve Loop(1) = {-1, 4, 3, -2};
Plane Surface(1) = {1};
Curve Loop(2) = {-5, 1, 7, -6};
Plane Surface(2) = {2};
Curve Loop(3) = {-2, 7, 9, -8, -10, -11};
Plane Surface(3) = {3};
Curve Loop(4) = {-12, 3, 8, -13};
Plane Surface(4) = {4};
Curve Loop(5) = {-4, 5, 14, -12, -15, -16};
Plane Surface(5) = {5};
Curve Loop(6) = {-6, 14, 13, -9};
Plane Surface(6) = {6};
Curve Loop(7) = {-10, -17, 15, 17};
Surface(7) = {7};
Curve Loop(8) = {-11, -18, 16, 18};
Surface(8) = {8};
Surface Loop(1) = {1, 2, 3, 4, 5, 6, 7, 8};
Volume(1) = {1};
Physical Surface("INFLOW") = {1};
Physical Surface("OUTFLOW") = {6};
Physical Surface("OBSTACLE") = {7, 8};
Physical Surface("WALL_Y") = {2, 4};
Physical Surface("WALL_Z") = {3, 5};
Physical Volume("FLUID") = {1};
