cl__1 = 3.348881;
cl__2 = 0.835874;
cl__3 = 0.77659;
cl__4 = 0.065541;
cl__5 = 0.081806;
Point(1) = {0.236772, -4.49003, 1, cl__1};
Point(2) = {0.236772, -4.49003, 0, cl__1};
Point(3) = {0.236772, 5.012011999999999, 1, cl__1};
Point(4) = {0.236772, 5.012011999999999, 0, cl__1};
Point(5) = {33.150089, -4.49003, 0, cl__2};
Point(6) = {33.150089, -4.49003, 1, cl__2};
Point(7) = {33.150089, 5.012011999999999, 1, cl__3};
Point(8) = {26.510392, 0.8048989999999999, 1, cl__4};
Point(9) = {24.047174, 2.236333, 1, cl__5};
Point(10) = {33.150089, 5.012011999999999, 0, cl__3};
Point(11) = {26.510392, 0.8048989999999999, 0, cl__4};
Point(12) = {24.047174, 2.236333, 0, cl__5};
Line(1) = {2, 1};
Line(2) = {1, 3};
Line(3) = {4, 3};
Line(4) = {2, 4};
Line(5) = {2, 5};
Line(6) = {5, 6};
Line(7) = {1, 6};
Line(8) = {3, 7};
Line(9) = {6, 7};
p10 = newp;
Point(p10 + 1) = {26.5023228029978, 0.9074278691664828, 1};
Point(p10 + 2) = {26.47831390240152, 1.007432137300279, 1};
Point(p10 + 3) = {26.43895647702482, 1.102449367424796, 1};
Point(p10 + 4) = {26.38521963730028, 1.190139919990262, 1};
Point(p10 + 5) = {26.31842656256426, 1.268344562564256, 1};
Point(p10 + 6) = {26.24022191999026, 1.335137637300279, 1};
Point(p10 + 7) = {26.1525313674248, 1.388874477024822, 1};
Point(p10 + 8) = {26.05751413730028, 1.428231902401523, 1};
Point(p10 + 9) = {25.95750986916648, 1.4522408029978, 1};
Point(p10 + 10) = {25.854981, 1.46031, 1};
Point(p10 + 11) = {25.75245213083351, 1.4522408029978, 1};
Point(p10 + 12) = {25.65244786269972, 1.428231902401523, 1};
Point(p10 + 13) = {25.5574306325752, 1.388874477024822, 1};
Point(p10 + 14) = {25.46974008000974, 1.335137637300279, 1};
Point(p10 + 15) = {25.39153543743574, 1.268344562564256, 1};
Point(p10 + 16) = {25.32474236269972, 1.190139919990262, 1};
Point(p10 + 17) = {25.27100552297518, 1.102449367424796, 1};
Point(p10 + 18) = {25.23164809759848, 1.007432137300279, 1};
Point(p10 + 19) = {25.2076391970022, 0.9074278691664829, 1};
Point(p10 + 20) = {25.19957, 0.8048990000000001, 1};
Point(p10 + 21) = {25.2076391970022, 0.7023701308335174, 1};
Point(p10 + 22) = {25.23164809759848, 0.6023658626997211, 1};
Point(p10 + 23) = {25.27100552297518, 0.5073486325752044, 1};
Point(p10 + 24) = {25.32474236269972, 0.419658080009738, 1};
Point(p10 + 25) = {25.39153543743574, 0.3414534374357438, 1};
Point(p10 + 26) = {25.46974008000974, 0.2746603626997215, 1};
Point(p10 + 27) = {25.5574306325752, 0.2209235229751777, 1};
Point(p10 + 28) = {25.65244786269972, 0.1815660975984772, 1};
Point(p10 + 29) = {25.75245213083351, 0.1575571970022003, 1};
Point(p10 + 30) = {25.854981, 0.1494880000000001, 1};
Point(p10 + 31) = {25.95750986916648, 0.1575571970022003, 1};
Point(p10 + 32) = {26.05751413730028, 0.1815660975984771, 1};
Point(p10 + 33) = {26.1525313674248, 0.2209235229751777, 1};
Point(p10 + 34) = {26.24022191999026, 0.2746603626997213, 1};
Point(p10 + 35) = {26.31842656256426, 0.3414534374357436, 1};
Point(p10 + 36) = {26.38521963730028, 0.4196580800097378, 1};
Point(p10 + 37) = {26.43895647702482, 0.5073486325752039, 1};
Point(p10 + 38) = {26.47831390240152, 0.6023658626997213, 1};
Point(p10 + 39) = {26.5023228029978, 0.7023701308335172, 1};
Spline(10) = {8, p10 + 1, p10 + 2, p10 + 3, p10 + 4, p10 + 5, p10 + 6, p10 + 7, p10 + 8, p10 + 9, p10 + 10, p10 + 11, p10 + 12, p10 + 13, p10 + 14, p10 + 15, p10 + 16, p10 + 17, p10 + 18, p10 + 19, p10 + 20, p10 + 21, p10 + 22, p10 + 23, p10 + 24, p10 + 25, p10 + 26, p10 + 27, p10 + 28, p10 + 29, p10 + 30, p10 + 31, p10 + 32, p10 + 33, p10 + 34, p10 + 35, p10 + 36, p10 + 37, p10 + 38, p10 + 39, 8};
p11 = newp;
Point(p11 + 1) = {24.03710234853058, 2.364305465601881, 1};
Point(p11 + 2) = {24.00713539160738, 2.489126824384381, 1};
Point(p11 + 3) = {23.95801101516449, 2.607723560235934, 1};
Point(p11 + 4) = {23.89093882438438, 2.717175427919876, 1};
Point(p11 + 5) = {23.80757035920391, 2.814787359203905, 1};
Point(p11 + 6) = {23.70995842791988, 2.898155824384381, 1};
Point(p11 + 7) = {23.60050656023594, 2.965228015164488, 1};
Point(p11 + 8) = {23.48190982438438, 3.014352391607381, 1};
Point(p11 + 9) = {23.35708846560188, 3.044319348530578, 1};
Point(p11 + 10) = {23.229116, 3.054391, 1};
Point(p11 + 11) = {23.10114353439812, 3.044319348530577, 1};
Point(p11 + 12) = {22.97632217561562, 3.014352391607381, 1};
Point(p11 + 13) = {22.85772543976407, 2.965228015164488, 1};
Point(p11 + 14) = {22.74827357208013, 2.898155824384381, 1};
Point(p11 + 15) = {22.65066164079609, 2.814787359203905, 1};
Point(p11 + 16) = {22.56729317561562, 2.717175427919876, 1};
Point(p11 + 17) = {22.50022098483552, 2.607723560235934, 1};
Point(p11 + 18) = {22.45109660839262, 2.489126824384381, 1};
Point(p11 + 19) = {22.42112965146942, 2.364305465601881, 1};
Point(p11 + 20) = {22.411058, 2.236333, 1};
Point(p11 + 21) = {22.42112965146942, 2.108360534398119, 1};
Point(p11 + 22) = {22.45109660839262, 1.983539175615619, 1};
Point(p11 + 23) = {22.50022098483552, 1.864942439764066, 1};
Point(p11 + 24) = {22.56729317561562, 1.755490572080124, 1};
Point(p11 + 25) = {22.65066164079609, 1.657878640796095, 1};
Point(p11 + 26) = {22.74827357208013, 1.574510175615619, 1};
Point(p11 + 27) = {22.85772543976407, 1.507437984835512, 1};
Point(p11 + 28) = {22.97632217561562, 1.458313608392619, 1};
Point(p11 + 29) = {23.10114353439812, 1.428346651469423, 1};
Point(p11 + 30) = {23.229116, 1.418275, 1};
Point(p11 + 31) = {23.35708846560188, 1.428346651469423, 1};
Point(p11 + 32) = {23.48190982438438, 1.458313608392619, 1};
Point(p11 + 33) = {23.60050656023594, 1.507437984835512, 1};
Point(p11 + 34) = {23.70995842791988, 1.574510175615619, 1};
Point(p11 + 35) = {23.8075703592039, 1.657878640796095, 1};
Point(p11 + 36) = {23.89093882438438, 1.755490572080124, 1};
Point(p11 + 37) = {23.95801101516449, 1.864942439764066, 1};
Point(p11 + 38) = {24.00713539160738, 1.983539175615619, 1};
Point(p11 + 39) = {24.03710234853058, 2.108360534398119, 1};
Spline(11) = {9, p11 + 1, p11 + 2, p11 + 3, p11 + 4, p11 + 5, p11 + 6, p11 + 7, p11 + 8, p11 + 9, p11 + 10, p11 + 11, p11 + 12, p11 + 13, p11 + 14, p11 + 15, p11 + 16, p11 + 17, p11 + 18, p11 + 19, p11 + 20, p11 + 21, p11 + 22, p11 + 23, p11 + 24, p11 + 25, p11 + 26, p11 + 27, p11 + 28, p11 + 29, p11 + 30, p11 + 31, p11 + 32, p11 + 33, p11 + 34, p11 + 35, p11 + 36, p11 + 37, p11 + 38, p11 + 39, 9};
Line(12) = {4, 10};
Line(13) = {10, 7};
Line(14) = {5, 10};
p15 = newp;
Point(p15 + 1) = {26.5023228029978, 0.9074278691664828, 0};
Point(p15 + 2) = {26.47831390240152, 1.007432137300279, 0};
Point(p15 + 3) = {26.43895647702482, 1.102449367424796, 0};
Point(p15 + 4) = {26.38521963730028, 1.190139919990262, 0};
Point(p15 + 5) = {26.31842656256426, 1.268344562564256, 0};
Point(p15 + 6) = {26.24022191999026, 1.335137637300279, 0};
Point(p15 + 7) = {26.1525313674248, 1.388874477024822, 0};
Point(p15 + 8) = {26.05751413730028, 1.428231902401523, 0};
Point(p15 + 9) = {25.95750986916648, 1.4522408029978, 0};
Point(p15 + 10) = {25.854981, 1.46031, 0};
Point(p15 + 11) = {25.75245213083351, 1.4522408029978, 0};
Point(p15 + 12) = {25.65244786269972, 1.428231902401523, 0};
Point(p15 + 13) = {25.5574306325752, 1.388874477024822, 0};
Point(p15 + 14) = {25.46974008000974, 1.335137637300279, 0};
Point(p15 + 15) = {25.39153543743574, 1.268344562564256, 0};
Point(p15 + 16) = {25.32474236269972, 1.190139919990262, 0};
Point(p15 + 17) = {25.27100552297518, 1.102449367424796, 0};
Point(p15 + 18) = {25.23164809759848, 1.007432137300279, 0};
Point(p15 + 19) = {25.2076391970022, 0.9074278691664829, 0};
Point(p15 + 20) = {25.19957, 0.8048990000000001, 0};
Point(p15 + 21) = {25.2076391970022, 0.7023701308335174, 0};
Point(p15 + 22) = {25.23164809759848, 0.6023658626997211, 0};
Point(p15 + 23) = {25.27100552297518, 0.5073486325752044, 0};
Point(p15 + 24) = {25.32474236269972, 0.419658080009738, 0};
Point(p15 + 25) = {25.39153543743574, 0.3414534374357438, 0};
Point(p15 + 26) = {25.46974008000974, 0.2746603626997215, 0};
Point(p15 + 27) = {25.5574306325752, 0.2209235229751777, 0};
Point(p15 + 28) = {25.65244786269972, 0.1815660975984772, 0};
Point(p15 + 29) = {25.75245213083351, 0.1575571970022003, 0};
Point(p15 + 30) = {25.854981, 0.1494880000000001, 0};
Point(p15 + 31) = {25.95750986916648, 0.1575571970022003, 0};
Point(p15 + 32) = {26.05751413730028, 0.1815660975984771, 0};
Point(p15 + 33) = {26.1525313674248, 0.2209235229751777, 0};
Point(p15 + 34) = {26.24022191999026, 0.2746603626997213, 0};
Point(p15 + 35) = {26.31842656256426, 0.3414534374357436, 0};
Point(p15 + 36) = {26.38521963730028, 0.4196580800097378, 0};
Point(p15 + 37) = {26.43895647702482, 0.5073486325752039, 0};
Point(p15 + 38) = {26.47831390240152, 0.6023658626997213, 0};
Point(p15 + 39) = {26.5023228029978, 0.7023701308335172, 0};
Spline(15) = {11, p15 + 1, p15 + 2, p15 + 3, p15 + 4, p15 + 5, p15 + 6, p15 + 7, p15 + 8, p15 + 9, p15 + 10, p15 + 11, p15 + 12, p15 + 13, p15 + 14, p15 + 15, p15 + 16, p15 + 17, p15 + 18, p15 + 19, p15 + 20, p15 + 21, p15 + 22, p15 + 23, p15 + 24, p15 + 25, p15 + 26, p15 + 27, p15 + 28, p15 + 29, p15 + 30, p15 + 31, p15 + 32, p15 + 33, p15 + 34, p15 + 35, p15 + 36, p15 + 37, p15 + 38, p15 + 39, 11};
p16 = newp;
Point(p16 + 1) = {24.03710234853058, 2.364305465601881, 0};
Point(p16 + 2) = {24.00713539160738, 2.489126824384381, 0};
Point(p16 + 3) = {23.95801101516449, 2.607723560235934, 0};
Point(p16 + 4) = {23.89093882438438, 2.717175427919876, 0};
Point(p16 + 5) = {23.80757035920391, 2.814787359203905, 0};
Point(p16 + 6) = {23.70995842791988, 2.898155824384381, 0};
Point(p16 + 7) = {23.60050656023594, 2.965228015164488, 0};
Point(p16 + 8) = {23.48190982438438, 3.014352391607381, 0};
Point(p16 + 9) = {23.35708846560188, 3.044319348530578, 0};
Point(p16 + 10) = {23.229116, 3.054391, 0};
Point(p16 + 11) = {23.10114353439812, 3.044319348530577, 0};
Point(p16 + 12) = {22.97632217561562, 3.014352391607381, 0};
Point(p16 + 13) = {22.85772543976407, 2.965228015164488, 0};
Point(p16 + 14) = {22.74827357208013, 2.898155824384381, 0};
Point(p16 + 15) = {22.65066164079609, 2.814787359203905, 0};
Point(p16 + 16) = {22.56729317561562, 2.717175427919876, 0};
Point(p16 + 17) = {22.50022098483552, 2.607723560235934, 0};
Point(p16 + 18) = {22.45109660839262, 2.489126824384381, 0};
Point(p16 + 19) = {22.42112965146942, 2.364305465601881, 0};
Point(p16 + 20) = {22.411058, 2.236333, 0};
Point(p16 + 21) = {22.42112965146942, 2.108360534398119, 0};
Point(p16 + 22) = {22.45109660839262, 1.983539175615619, 0};
Point(p16 + 23) = {22.50022098483552, 1.864942439764066, 0};
Point(p16 + 24) = {22.56729317561562, 1.755490572080124, 0};
Point(p16 + 25) = {22.65066164079609, 1.657878640796095, 0};
Point(p16 + 26) = {22.74827357208013, 1.574510175615619, 0};
Point(p16 + 27) = {22.85772543976407, 1.507437984835512, 0};
Point(p16 + 28) = {22.97632217561562, 1.458313608392619, 0};
Point(p16 + 29) = {23.10114353439812, 1.428346651469423, 0};
Point(p16 + 30) = {23.229116, 1.418275, 0};
Point(p16 + 31) = {23.35708846560188, 1.428346651469423, 0};
Point(p16 + 32) = {23.48190982438438, 1.458313608392619, 0};
Point(p16 + 33) = {23.60050656023594, 1.507437984835512, 0};
Point(p16 + 34) = {23.70995842791988, 1.574510175615619, 0};
Point(p16 + 35) = {23.8075703592039, 1.657878640796095, 0};
Point(p16 + 36) = {23.89093882438438, 1.755490572080124, 0};
Point(p16 + 37) = {23.95801101516449, 1.864942439764066, 0};
Point(p16 + 38) = {24.00713539160738, 1.983539175615619, 0};
Point(p16 + 39) = {24.03710234853058, 2.108360534398119, 0};
Spline(16) = {12, p16 + 1, p16 + 2, p16 + 3, p16 + 4, p16 + 5, p16 + 6, p16 + 7, p16 + 8, p16 + 9, p16 + 10, p16 + 11, p16 + 12, p16 + 13, p16 + 14, p16 + 15, p16 + 16, p16 + 17, p16 + 18, p16 + 19, p16 + 20, p16 + 21, p16 + 22, p16 + 23, p16 + 24, p16 + 25, p16 + 26, p16 + 27, p16 + 28, p16 + 29, p16 + 30, p16 + 31, p16 + 32, p16 + 33, p16 + 34, p16 + 35, p16 + 36, p16 + 37, p16 + 38, p16 + 39, 12};
Line(17) = {11, 8};
Line(18) = {12, 9};
Curve Loop(1) = {-1, 4, 3, -2};
Plane Surface(1) = {1};
Curve Loop(2) = {-5, 1, 7, -6};
Plane Surface(2) = {2};
Curve Loop(3) = {-2, 7, 9, -8, -10, -11};
Plane Surface(3) = {3};
Curve Loop(4) = {-12, 3, 8, -13};
Plane Surface(4) = {4};
Curve Loop(5) = {-4, 5, 14, -12, -15, -16};
Plane Surface(5) = {5};
Curve Loop(6) = {-6, 14, 13, -9};
Plane Surface(6) = {6};
Curve Loop(7) = {-10, -17, 15, 17};
Surface(7) = {7};
Curve Loop(8) = {-11, -18, 16, 18};
Surface(8) = {8};
Surface Loop(1) = {1, 2, 3, 4, 5, 6, 7, 8};
Volume(1) = {1};
Physical Surface("INFLOW") = {1};
Physical Surface("OUTFLOW") = {6};
Physical Surface("OBSTACLE") = {7, 8};
Physical Surface("WALL_Y") = {2, 4};
Physical Surface("WALL_Z") = {3, 5};
Physical Volume("FLUID") = {1};
