cl__1 = 0.079856;
cl__2 = 0.084512;
cl__3 = 0.798518;
cl__4 = 0.92074;
cl__5 = 0.859349;
cl__6 = 2.871722;
Point(9) = {27.681787, -2.057604, 0.1, cl__1};
Point(10) = {27.681787, -2.057604, 0, cl__1};
Point(11) = {5.713478, 0.3655519999999998, 0.1, cl__2};
Point(12) = {5.713478, 0.3655519999999998, 0, cl__2};
Point(13) = {0.8793260000000001, -3.873481, 1, cl__3};
Point(14) = {0.8793260000000001, -3.873481, 0, cl__3};
Point(15) = {0.8793260000000001, 5.601534000000001, 1, cl__4};
Point(16) = {0.8793260000000001, 5.601534000000001, 0, cl__4};
Point(17) = {32.762474, -3.873481, 0, cl__5};
Point(18) = {32.762474, -3.873481, 1, cl__5};
Point(19) = {32.762474, 5.601534000000001, 1, cl__6};
Point(20) = {32.762474, 5.601534000000001, 0, cl__6};
p13 = newp;
Point(p13 + 1) = {27.67195545051229, -1.932682319335333, 0.1};
Point(p13 + 2) = {27.64270288742659, -1.810836625039919, 0.1};
Point(p13 + 3) = {27.59474960592976, -1.695067162489986, 0.1};
Point(p13 + 4) = {27.52927637496008, -1.588224560070332, 0.1};
Point(p13 + 5) = {27.4478953627572, -1.492939637242795, 0.1};
Point(p13 + 6) = {27.35261043992967, -1.411558625039919, 0.1};
Point(p13 + 7) = {27.24576783751001, -1.346085394070234, 0.1};
Point(p13 + 8) = {27.12999837496008, -1.298132112573407, 0.1};
Point(p13 + 9) = {27.00815268066467, -1.268879549487709, 0.1};
Point(p13 + 10) = {26.883231, -1.259048, 0.1};
Point(p13 + 11) = {26.75830931933533, -1.268879549487709, 0.1};
Point(p13 + 12) = {26.63646362503992, -1.298132112573407, 0.1};
Point(p13 + 13) = {26.52069416248998, -1.346085394070234, 0.1};
Point(p13 + 14) = {26.41385156007033, -1.411558625039919, 0.1};
Point(p13 + 15) = {26.31856663724279, -1.492939637242795, 0.1};
Point(p13 + 16) = {26.23718562503992, -1.588224560070332, 0.1};
Point(p13 + 17) = {26.17171239407023, -1.695067162489986, 0.1};
Point(p13 + 18) = {26.12375911257341, -1.810836625039919, 0.1};
Point(p13 + 19) = {26.09450654948771, -1.932682319335333, 0.1};
Point(p13 + 20) = {26.084675, -2.057604, 0.1};
Point(p13 + 21) = {26.09450654948771, -2.182525680664666, 0.1};
Point(p13 + 22) = {26.12375911257341, -2.304371374960081, 0.1};
Point(p13 + 23) = {26.17171239407023, -2.420140837510013, 0.1};
Point(p13 + 24) = {26.23718562503992, -2.526983439929668, 0.1};
Point(p13 + 25) = {26.31856663724279, -2.622268362757205, 0.1};
Point(p13 + 26) = {26.41385156007033, -2.70364937496008, 0.1};
Point(p13 + 27) = {26.52069416248998, -2.769122605929766, 0.1};
Point(p13 + 28) = {26.63646362503992, -2.817075887426593, 0.1};
Point(p13 + 29) = {26.75830931933533, -2.846328450512291, 0.1};
Point(p13 + 30) = {26.883231, -2.85616, 0.1};
Point(p13 + 31) = {27.00815268066467, -2.846328450512291, 0.1};
Point(p13 + 32) = {27.12999837496008, -2.817075887426593, 0.1};
Point(p13 + 33) = {27.24576783751001, -2.769122605929766, 0.1};
Point(p13 + 34) = {27.35261043992967, -2.703649374960081, 0.1};
Point(p13 + 35) = {27.4478953627572, -2.622268362757205, 0.1};
Point(p13 + 36) = {27.52927637496008, -2.526983439929668, 0.1};
Point(p13 + 37) = {27.59474960592976, -2.420140837510014, 0.1};
Point(p13 + 38) = {27.64270288742659, -2.30437137496008, 0.1};
Point(p13 + 39) = {27.67195545051229, -2.182525680664667, 0.1};
Spline(13) = {9, p13 + 1, p13 + 2, p13 + 3, p13 + 4, p13 + 5, p13 + 6, p13 + 7, p13 + 8, p13 + 9, p13 + 10, p13 + 11, p13 + 12, p13 + 13, p13 + 14, p13 + 15, p13 + 16, p13 + 17, p13 + 18, p13 + 19, p13 + 20, p13 + 21, p13 + 22, p13 + 23, p13 + 24, p13 + 25, p13 + 26, p13 + 27, p13 + 28, p13 + 29, p13 + 30, p13 + 31, p13 + 32, p13 + 33, p13 + 34, p13 + 35, p13 + 36, p13 + 37, p13 + 38, p13 + 39, 9};
Line(14) = {10, 9};
p15 = newp;
Point(p15 + 1) = {27.67195545051229, -1.932682319335333, 0};
Point(p15 + 2) = {27.64270288742659, -1.810836625039919, 0};
Point(p15 + 3) = {27.59474960592976, -1.695067162489986, 0};
Point(p15 + 4) = {27.52927637496008, -1.588224560070332, 0};
Point(p15 + 5) = {27.4478953627572, -1.492939637242795, 0};
Point(p15 + 6) = {27.35261043992967, -1.411558625039919, 0};
Point(p15 + 7) = {27.24576783751001, -1.346085394070234, 0};
Point(p15 + 8) = {27.12999837496008, -1.298132112573407, 0};
Point(p15 + 9) = {27.00815268066467, -1.268879549487709, 0};
Point(p15 + 10) = {26.883231, -1.259048, 0};
Point(p15 + 11) = {26.75830931933533, -1.268879549487709, 0};
Point(p15 + 12) = {26.63646362503992, -1.298132112573407, 0};
Point(p15 + 13) = {26.52069416248998, -1.346085394070234, 0};
Point(p15 + 14) = {26.41385156007033, -1.411558625039919, 0};
Point(p15 + 15) = {26.31856663724279, -1.492939637242795, 0};
Point(p15 + 16) = {26.23718562503992, -1.588224560070332, 0};
Point(p15 + 17) = {26.17171239407023, -1.695067162489986, 0};
Point(p15 + 18) = {26.12375911257341, -1.810836625039919, 0};
Point(p15 + 19) = {26.09450654948771, -1.932682319335333, 0};
Point(p15 + 20) = {26.084675, -2.057604, 0};
Point(p15 + 21) = {26.09450654948771, -2.182525680664666, 0};
Point(p15 + 22) = {26.12375911257341, -2.304371374960081, 0};
Point(p15 + 23) = {26.17171239407023, -2.420140837510013, 0};
Point(p15 + 24) = {26.23718562503992, -2.526983439929668, 0};
Point(p15 + 25) = {26.31856663724279, -2.622268362757205, 0};
Point(p15 + 26) = {26.41385156007033, -2.70364937496008, 0};
Point(p15 + 27) = {26.52069416248998, -2.769122605929766, 0};
Point(p15 + 28) = {26.63646362503992, -2.817075887426593, 0};
Point(p15 + 29) = {26.75830931933533, -2.846328450512291, 0};
Point(p15 + 30) = {26.883231, -2.85616, 0};
Point(p15 + 31) = {27.00815268066467, -2.846328450512291, 0};
Point(p15 + 32) = {27.12999837496008, -2.817075887426593, 0};
Point(p15 + 33) = {27.24576783751001, -2.769122605929766, 0};
Point(p15 + 34) = {27.35261043992967, -2.703649374960081, 0};
Point(p15 + 35) = {27.4478953627572, -2.622268362757205, 0};
Point(p15 + 36) = {27.52927637496008, -2.526983439929668, 0};
Point(p15 + 37) = {27.59474960592976, -2.420140837510014, 0};
Point(p15 + 38) = {27.64270288742659, -2.30437137496008, 0};
Point(p15 + 39) = {27.67195545051229, -2.182525680664667, 0};
Spline(15) = {10, p15 + 1, p15 + 2, p15 + 3, p15 + 4, p15 + 5, p15 + 6, p15 + 7, p15 + 8, p15 + 9, p15 + 10, p15 + 11, p15 + 12, p15 + 13, p15 + 14, p15 + 15, p15 + 16, p15 + 17, p15 + 18, p15 + 19, p15 + 20, p15 + 21, p15 + 22, p15 + 23, p15 + 24, p15 + 25, p15 + 26, p15 + 27, p15 + 28, p15 + 29, p15 + 30, p15 + 31, p15 + 32, p15 + 33, p15 + 34, p15 + 35, p15 + 36, p15 + 37, p15 + 38, p15 + 39, 10};
p16 = newp;
Point(p16 + 1) = {5.703073121157125, 0.49775852083266, 0.1};
Point(p16 + 2) = {5.672114687277426, 0.626709678354133, 0.1};
Point(p16 + 3) = {5.62136499774817, 0.7492302671018847, 0.1};
Point(p16 + 4) = {5.552073678354133, 0.862303423558424, 0.1};
Point(p16 + 5) = {5.4659469113435, 0.9631449113434997, 0.1};
Point(p16 + 6) = {5.365105423558425, 1.049271678354133, 0.1};
Point(p16 + 7) = {5.252032267101884, 1.11856299774817, 0.1};
Point(p16 + 8) = {5.129511678354133, 1.169312687277425, 0.1};
Point(p16 + 9) = {5.00056052083266, 1.200271121157125, 0.1};
Point(p16 + 10) = {4.868354, 1.210676, 0.1};
Point(p16 + 11) = {4.736147479167339, 1.200271121157125, 0.1};
Point(p16 + 12) = {4.607196321645867, 1.169312687277425, 0.1};
Point(p16 + 13) = {4.484675732898116, 1.11856299774817, 0.1};
Point(p16 + 14) = {4.371602576441576, 1.049271678354133, 0.1};
Point(p16 + 15) = {4.2707610886565, 0.9631449113434998, 0.1};
Point(p16 + 16) = {4.184634321645867, 0.8623034235584242, 0.1};
Point(p16 + 17) = {4.11534300225183, 0.7492302671018848, 0.1};
Point(p16 + 18) = {4.064593312722574, 0.626709678354133, 0.1};
Point(p16 + 19) = {4.033634878842875, 0.4977585208326601, 0.1};
Point(p16 + 20) = {4.02323, 0.3655520000000001, 0.1};
Point(p16 + 21) = {4.033634878842875, 0.23334547916734, 0.1};
Point(p16 + 22) = {4.064593312722575, 0.1043943216458667, 0.1};
Point(p16 + 23) = {4.11534300225183, -0.01812626710188436, 0.1};
Point(p16 + 24) = {4.184634321645867, -0.131199423558424, 0.1};
Point(p16 + 25) = {4.2707610886565, -0.2320409113434997, 0.1};
Point(p16 + 26) = {4.371602576441576, -0.318167678354133, 0.1};
Point(p16 + 27) = {4.484675732898115, -0.3874589977481702, 0.1};
Point(p16 + 28) = {4.607196321645867, -0.4382086872774253, 0.1};
Point(p16 + 29) = {4.736147479167339, -0.4691671211571251, 0.1};
Point(p16 + 30) = {4.868354, -0.479572, 0.1};
Point(p16 + 31) = {5.00056052083266, -0.4691671211571252, 0.1};
Point(p16 + 32) = {5.129511678354133, -0.4382086872774255, 0.1};
Point(p16 + 33) = {5.252032267101884, -0.3874589977481703, 0.1};
Point(p16 + 34) = {5.365105423558424, -0.3181676783541332, 0.1};
Point(p16 + 35) = {5.4659469113435, -0.2320409113434999, 0.1};
Point(p16 + 36) = {5.552073678354133, -0.1311994235584242, 0.1};
Point(p16 + 37) = {5.62136499774817, -0.01812626710188492, 0.1};
Point(p16 + 38) = {5.672114687277426, 0.1043943216458668, 0.1};
Point(p16 + 39) = {5.703073121157125, 0.2333454791673397, 0.1};
Spline(16) = {11, p16 + 1, p16 + 2, p16 + 3, p16 + 4, p16 + 5, p16 + 6, p16 + 7, p16 + 8, p16 + 9, p16 + 10, p16 + 11, p16 + 12, p16 + 13, p16 + 14, p16 + 15, p16 + 16, p16 + 17, p16 + 18, p16 + 19, p16 + 20, p16 + 21, p16 + 22, p16 + 23, p16 + 24, p16 + 25, p16 + 26, p16 + 27, p16 + 28, p16 + 29, p16 + 30, p16 + 31, p16 + 32, p16 + 33, p16 + 34, p16 + 35, p16 + 36, p16 + 37, p16 + 38, p16 + 39, 11};
Line(17) = {12, 11};
p18 = newp;
Point(p18 + 1) = {5.703073121157125, 0.49775852083266, 0};
Point(p18 + 2) = {5.672114687277426, 0.626709678354133, 0};
Point(p18 + 3) = {5.62136499774817, 0.7492302671018847, 0};
Point(p18 + 4) = {5.552073678354133, 0.862303423558424, 0};
Point(p18 + 5) = {5.4659469113435, 0.9631449113434997, 0};
Point(p18 + 6) = {5.365105423558425, 1.049271678354133, 0};
Point(p18 + 7) = {5.252032267101884, 1.11856299774817, 0};
Point(p18 + 8) = {5.129511678354133, 1.169312687277425, 0};
Point(p18 + 9) = {5.00056052083266, 1.200271121157125, 0};
Point(p18 + 10) = {4.868354, 1.210676, 0};
Point(p18 + 11) = {4.736147479167339, 1.200271121157125, 0};
Point(p18 + 12) = {4.607196321645867, 1.169312687277425, 0};
Point(p18 + 13) = {4.484675732898116, 1.11856299774817, 0};
Point(p18 + 14) = {4.371602576441576, 1.049271678354133, 0};
Point(p18 + 15) = {4.2707610886565, 0.9631449113434998, 0};
Point(p18 + 16) = {4.184634321645867, 0.8623034235584242, 0};
Point(p18 + 17) = {4.11534300225183, 0.7492302671018848, 0};
Point(p18 + 18) = {4.064593312722574, 0.626709678354133, 0};
Point(p18 + 19) = {4.033634878842875, 0.4977585208326601, 0};
Point(p18 + 20) = {4.02323, 0.3655520000000001, 0};
Point(p18 + 21) = {4.033634878842875, 0.23334547916734, 0};
Point(p18 + 22) = {4.064593312722575, 0.1043943216458667, 0};
Point(p18 + 23) = {4.11534300225183, -0.01812626710188436, 0};
Point(p18 + 24) = {4.184634321645867, -0.131199423558424, 0};
Point(p18 + 25) = {4.2707610886565, -0.2320409113434997, 0};
Point(p18 + 26) = {4.371602576441576, -0.318167678354133, 0};
Point(p18 + 27) = {4.484675732898115, -0.3874589977481702, 0};
Point(p18 + 28) = {4.607196321645867, -0.4382086872774253, 0};
Point(p18 + 29) = {4.736147479167339, -0.4691671211571251, 0};
Point(p18 + 30) = {4.868354, -0.479572, 0};
Point(p18 + 31) = {5.00056052083266, -0.4691671211571252, 0};
Point(p18 + 32) = {5.129511678354133, -0.4382086872774255, 0};
Point(p18 + 33) = {5.252032267101884, -0.3874589977481703, 0};
Point(p18 + 34) = {5.365105423558424, -0.3181676783541332, 0};
Point(p18 + 35) = {5.4659469113435, -0.2320409113434999, 0};
Point(p18 + 36) = {5.552073678354133, -0.1311994235584242, 0};
Point(p18 + 37) = {5.62136499774817, -0.01812626710188492, 0};
Point(p18 + 38) = {5.672114687277426, 0.1043943216458668, 0};
Point(p18 + 39) = {5.703073121157125, 0.2333454791673397, 0};
Spline(18) = {12, p18 + 1, p18 + 2, p18 + 3, p18 + 4, p18 + 5, p18 + 6, p18 + 7, p18 + 8, p18 + 9, p18 + 10, p18 + 11, p18 + 12, p18 + 13, p18 + 14, p18 + 15, p18 + 16, p18 + 17, p18 + 18, p18 + 19, p18 + 20, p18 + 21, p18 + 22, p18 + 23, p18 + 24, p18 + 25, p18 + 26, p18 + 27, p18 + 28, p18 + 29, p18 + 30, p18 + 31, p18 + 32, p18 + 33, p18 + 34, p18 + 35, p18 + 36, p18 + 37, p18 + 38, p18 + 39, 12};
Line(19) = {14, 13};
Line(20) = {13, 15};
Line(21) = {16, 15};
Line(22) = {14, 16};
Line(23) = {14, 17};
Line(24) = {17, 18};
Line(25) = {13, 18};
Line(26) = {15, 19};
Line(27) = {18, 19};
Line(28) = {16, 20};
Line(29) = {20, 19};
Line(30) = {17, 20};
Curve Loop(7) = {-13, -14, 15, 14};
Surface(7) = {7};
Curve Loop(8) = {13};
Plane Surface(8) = {8};
Curve Loop(9) = {15};
Plane Surface(9) = {9};
Curve Loop(10) = {-16, -17, 18, 17};
Surface(10) = {10};
Curve Loop(11) = {16};
Plane Surface(11) = {11};
Curve Loop(12) = {18};
Plane Surface(12) = {12};
Curve Loop(13) = {-19, 22, 21, -20};
Plane Surface(13) = {13};
Curve Loop(14) = {-23, 19, 25, -24};
Plane Surface(14) = {14};
Curve Loop(15) = {-20, 25, 27, -26};
Plane Surface(15) = {15};
Curve Loop(16) = {-28, 21, 26, -29};
Plane Surface(16) = {16};
Curve Loop(17) = {-22, 23, 30, -28, -15, -18};
Plane Surface(17) = {17};
Curve Loop(18) = {-24, 30, 29, -27};
Plane Surface(18) = {18};
Surface Loop(1) = {13, 14, 15, 16, 17, 18, 7, 10, 8, 11};
Volume(1) = {1};
Surface Loop(2) = {7, 8, 9};
Volume(2) = {2};
Surface Loop(3) = {10, 11, 12};
Volume(3) = {3};
Physical Surface("WALLS") = {13, 18};
Physical Surface("LOAD") = {8, 11};
Physical Surface("BORDER") = {7, 9, 10, 12, 14, 15, 16, 17};
Physical Volume("SOLID") = {1, 2, 3};
