cl__1 = 0.100252;
cl__2 = 0.081098;
cl__3 = 2.182225;
cl__4 = 2.788145;
cl__5 = 0.797002;
cl__6 = 0.498451;
Point(9) = {11.006816, -0.7650660000000002, 0.1, cl__1};
Point(10) = {11.006816, -0.7650660000000002, 0, cl__1};
Point(11) = {29.998866, 1.646533, 0.1, cl__2};
Point(12) = {29.998866, 1.646533, 0, cl__2};
Point(13) = {0.323602, -3.796354, 1, cl__3};
Point(14) = {0.323602, -3.796354, 0, cl__3};
Point(15) = {0.323602, 4.292449, 1, cl__4};
Point(16) = {0.323602, 4.292449, 0, cl__4};
Point(17) = {32.607853, -3.796354, 0, cl__5};
Point(18) = {32.607853, -3.796354, 1, cl__5};
Point(19) = {32.607853, 4.292449, 1, cl__6};
Point(20) = {32.607853, 4.292449, 0, cl__6};
p13 = newp;
Point(p13 + 1) = {10.99447331521344, -0.6082373201078678, 0.1};
Point(p13 + 2) = {10.95774917871622, -0.4552702827992277, 0.1};
Point(p13 + 3) = {10.89754786062932, -0.3099314442011096, 0.1};
Point(p13 + 4) = {10.81535171720077, -0.1757995288717498, 0.1};
Point(p13 + 5) = {10.71318469027514, -0.05617730972486246, 0.1};
Point(p13 + 6) = {10.59356247112825, 0.04598971720077227, 0.1};
Point(p13 + 7) = {10.45943055579889, 0.1281858606293225, 0.1};
Point(p13 + 8) = {10.31409171720077, 0.1883871787162174, 0.1};
Point(p13 + 9) = {10.16112467989213, 0.2251113152134375, 0.1};
Point(p13 + 10) = {10.004296, 0.2374540000000001, 0.1};
Point(p13 + 11) = {9.847467320107867, 0.2251113152134374, 0.1};
Point(p13 + 12) = {9.694500282799227, 0.1883871787162175, 0.1};
Point(p13 + 13) = {9.549161444201109, 0.1281858606293226, 0.1};
Point(p13 + 14) = {9.41502952887175, 0.04598971720077238, 0.1};
Point(p13 + 15) = {9.295407309724862, -0.05617730972486235, 0.1};
Point(p13 + 16) = {9.193240282799227, -0.1757995288717497, 0.1};
Point(p13 + 17) = {9.111044139370678, -0.3099314442011095, 0.1};
Point(p13 + 18) = {9.050842821283783, -0.4552702827992276, 0.1};
Point(p13 + 19) = {9.014118684786563, -0.6082373201078677, 0.1};
Point(p13 + 20) = {9.001776, -0.7650659999999999, 0.1};
Point(p13 + 21) = {9.014118684786563, -0.9218946798921321, 0.1};
Point(p13 + 22) = {9.050842821283783, -1.074861717200773, 0.1};
Point(p13 + 23) = {9.111044139370676, -1.22020055579889, 0.1};
Point(p13 + 24) = {9.193240282799227, -1.35433247112825, 0.1};
Point(p13 + 25) = {9.295407309724862, -1.473954690275137, 0.1};
Point(p13 + 26) = {9.41502952887175, -1.576121717200772, 0.1};
Point(p13 + 27) = {9.549161444201109, -1.658317860629323, 0.1};
Point(p13 + 28) = {9.694500282799227, -1.718519178716218, 0.1};
Point(p13 + 29) = {9.847467320107867, -1.755243315213437, 0.1};
Point(p13 + 30) = {10.004296, -1.767586, 0.1};
Point(p13 + 31) = {10.16112467989213, -1.755243315213438, 0.1};
Point(p13 + 32) = {10.31409171720077, -1.718519178716218, 0.1};
Point(p13 + 33) = {10.45943055579889, -1.658317860629323, 0.1};
Point(p13 + 34) = {10.59356247112825, -1.576121717200773, 0.1};
Point(p13 + 35) = {10.71318469027514, -1.473954690275138, 0.1};
Point(p13 + 36) = {10.81535171720077, -1.354332471128251, 0.1};
Point(p13 + 37) = {10.89754786062932, -1.220200555798891, 0.1};
Point(p13 + 38) = {10.95774917871622, -1.074861717200773, 0.1};
Point(p13 + 39) = {10.99447331521344, -0.9218946798921326, 0.1};
Spline(13) = {9, p13 + 1, p13 + 2, p13 + 3, p13 + 4, p13 + 5, p13 + 6, p13 + 7, p13 + 8, p13 + 9, p13 + 10, p13 + 11, p13 + 12, p13 + 13, p13 + 14, p13 + 15, p13 + 16, p13 + 17, p13 + 18, p13 + 19, p13 + 20, p13 + 21, p13 + 22, p13 + 23, p13 + 24, p13 + 25, p13 + 26, p13 + 27, p13 + 28, p13 + 29, p13 + 30, p13 + 31, p13 + 32, p13 + 33, p13 + 34, p13 + 35, p13 + 36, p13 + 37, p13 + 38, p13 + 39, 9};
Line(14) = {10, 9};
p15 = newp;
Point(p15 + 1) = {10.99447331521344, -0.6082373201078678, 0};
Point(p15 + 2) = {10.95774917871622, -0.4552702827992277, 0};
Point(p15 + 3) = {10.89754786062932, -0.3099314442011096, 0};
Point(p15 + 4) = {10.81535171720077, -0.1757995288717498, 0};
Point(p15 + 5) = {10.71318469027514, -0.05617730972486246, 0};
Point(p15 + 6) = {10.59356247112825, 0.04598971720077227, 0};
Point(p15 + 7) = {10.45943055579889, 0.1281858606293225, 0};
Point(p15 + 8) = {10.31409171720077, 0.1883871787162174, 0};
Point(p15 + 9) = {10.16112467989213, 0.2251113152134375, 0};
Point(p15 + 10) = {10.004296, 0.2374540000000001, 0};
Point(p15 + 11) = {9.847467320107867, 0.2251113152134374, 0};
Point(p15 + 12) = {9.694500282799227, 0.1883871787162175, 0};
Point(p15 + 13) = {9.549161444201109, 0.1281858606293226, 0};
Point(p15 + 14) = {9.41502952887175, 0.04598971720077238, 0};
Point(p15 + 15) = {9.295407309724862, -0.05617730972486235, 0};
Point(p15 + 16) = {9.193240282799227, -0.1757995288717497, 0};
Point(p15 + 17) = {9.111044139370678, -0.3099314442011095, 0};
Point(p15 + 18) = {9.050842821283783, -0.4552702827992276, 0};
Point(p15 + 19) = {9.014118684786563, -0.6082373201078677, 0};
Point(p15 + 20) = {9.001776, -0.7650659999999999, 0};
Point(p15 + 21) = {9.014118684786563, -0.9218946798921321, 0};
Point(p15 + 22) = {9.050842821283783, -1.074861717200773, 0};
Point(p15 + 23) = {9.111044139370676, -1.22020055579889, 0};
Point(p15 + 24) = {9.193240282799227, -1.35433247112825, 0};
Point(p15 + 25) = {9.295407309724862, -1.473954690275137, 0};
Point(p15 + 26) = {9.41502952887175, -1.576121717200772, 0};
Point(p15 + 27) = {9.549161444201109, -1.658317860629323, 0};
Point(p15 + 28) = {9.694500282799227, -1.718519178716218, 0};
Point(p15 + 29) = {9.847467320107867, -1.755243315213437, 0};
Point(p15 + 30) = {10.004296, -1.767586, 0};
Point(p15 + 31) = {10.16112467989213, -1.755243315213438, 0};
Point(p15 + 32) = {10.31409171720077, -1.718519178716218, 0};
Point(p15 + 33) = {10.45943055579889, -1.658317860629323, 0};
Point(p15 + 34) = {10.59356247112825, -1.576121717200773, 0};
Point(p15 + 35) = {10.71318469027514, -1.473954690275138, 0};
Point(p15 + 36) = {10.81535171720077, -1.354332471128251, 0};
Point(p15 + 37) = {10.89754786062932, -1.220200555798891, 0};
Point(p15 + 38) = {10.95774917871622, -1.074861717200773, 0};
Point(p15 + 39) = {10.99447331521344, -0.9218946798921326, 0};
Spline(15) = {10, p15 + 1, p15 + 2, p15 + 3, p15 + 4, p15 + 5, p15 + 6, p15 + 7, p15 + 8, p15 + 9, p15 + 10, p15 + 11, p15 + 12, p15 + 13, p15 + 14, p15 + 15, p15 + 16, p15 + 17, p15 + 18, p15 + 19, p15 + 20, p15 + 21, p15 + 22, p15 + 23, p15 + 24, p15 + 25, p15 + 26, p15 + 27, p15 + 28, p15 + 29, p15 + 30, p15 + 31, p15 + 32, p15 + 33, p15 + 34, p15 + 35, p15 + 36, p15 + 37, p15 + 38, p15 + 39, 10};
p16 = newp;
Point(p16 + 1) = {29.98888151507916, 1.773397909589396, 0.1};
Point(p16 + 2) = {29.95917391147201, 1.897138984064206, 0.1};
Point(p16 + 3) = {29.91047468897323, 2.014709307497778, 0.1};
Point(p16 + 4) = {29.84398298406421, 2.123213908333645, 0.1};
Point(p16 + 5) = {29.7613360431931, 2.219981043193104, 0.1};
Point(p16 + 6) = {29.66456890833365, 2.302627984064206, 0.1};
Point(p16 + 7) = {29.55606430749778, 2.369119688973234, 0.1};
Point(p16 + 8) = {29.43849398406421, 2.417818911472011, 0.1};
Point(p16 + 9) = {29.3147529095894, 2.447526515079164, 0.1};
Point(p16 + 10) = {29.187888, 2.457511, 0.1};
Point(p16 + 11) = {29.0610230904106, 2.447526515079164, 0.1};
Point(p16 + 12) = {28.9372820159358, 2.417818911472011, 0.1};
Point(p16 + 13) = {28.81971169250222, 2.369119688973234, 0.1};
Point(p16 + 14) = {28.71120709166636, 2.302627984064206, 0.1};
Point(p16 + 15) = {28.6144399568069, 2.219981043193104, 0.1};
Point(p16 + 16) = {28.53179301593579, 2.123213908333645, 0.1};
Point(p16 + 17) = {28.46530131102677, 2.014709307497778, 0.1};
Point(p16 + 18) = {28.41660208852799, 1.897138984064206, 0.1};
Point(p16 + 19) = {28.38689448492084, 1.773397909589396, 0.1};
Point(p16 + 20) = {28.37691, 1.646533, 0.1};
Point(p16 + 21) = {28.38689448492084, 1.519668090410604, 0.1};
Point(p16 + 22) = {28.41660208852799, 1.395927015935794, 0.1};
Point(p16 + 23) = {28.46530131102677, 1.278356692502222, 0.1};
Point(p16 + 24) = {28.53179301593579, 1.169852091666355, 0.1};
Point(p16 + 25) = {28.6144399568069, 1.073084956806896, 0.1};
Point(p16 + 26) = {28.71120709166636, 0.9904380159357939, 0.1};
Point(p16 + 27) = {28.81971169250222, 0.9239463110267659, 0.1};
Point(p16 + 28) = {28.9372820159358, 0.875247088527989, 0.1};
Point(p16 + 29) = {29.0610230904106, 0.8455394849208365, 0.1};
Point(p16 + 30) = {29.187888, 0.835555, 0.1};
Point(p16 + 31) = {29.3147529095894, 0.8455394849208364, 0.1};
Point(p16 + 32) = {29.43849398406421, 0.8752470885279889, 0.1};
Point(p16 + 33) = {29.55606430749778, 0.9239463110267657, 0.1};
Point(p16 + 34) = {29.66456890833365, 0.9904380159357938, 0.1};
Point(p16 + 35) = {29.7613360431931, 1.073084956806896, 0.1};
Point(p16 + 36) = {29.84398298406421, 1.169852091666355, 0.1};
Point(p16 + 37) = {29.91047468897323, 1.278356692502222, 0.1};
Point(p16 + 38) = {29.95917391147201, 1.395927015935794, 0.1};
Point(p16 + 39) = {29.98888151507916, 1.519668090410603, 0.1};
Spline(16) = {11, p16 + 1, p16 + 2, p16 + 3, p16 + 4, p16 + 5, p16 + 6, p16 + 7, p16 + 8, p16 + 9, p16 + 10, p16 + 11, p16 + 12, p16 + 13, p16 + 14, p16 + 15, p16 + 16, p16 + 17, p16 + 18, p16 + 19, p16 + 20, p16 + 21, p16 + 22, p16 + 23, p16 + 24, p16 + 25, p16 + 26, p16 + 27, p16 + 28, p16 + 29, p16 + 30, p16 + 31, p16 + 32, p16 + 33, p16 + 34, p16 + 35, p16 + 36, p16 + 37, p16 + 38, p16 + 39, 11};
Line(17) = {12, 11};
p18 = newp;
Point(p18 + 1) = {29.98888151507916, 1.773397909589396, 0};
Point(p18 + 2) = {29.95917391147201, 1.897138984064206, 0};
Point(p18 + 3) = {29.91047468897323, 2.014709307497778, 0};
Point(p18 + 4) = {29.84398298406421, 2.123213908333645, 0};
Point(p18 + 5) = {29.7613360431931, 2.219981043193104, 0};
Point(p18 + 6) = {29.66456890833365, 2.302627984064206, 0};
Point(p18 + 7) = {29.55606430749778, 2.369119688973234, 0};
Point(p18 + 8) = {29.43849398406421, 2.417818911472011, 0};
Point(p18 + 9) = {29.3147529095894, 2.447526515079164, 0};
Point(p18 + 10) = {29.187888, 2.457511, 0};
Point(p18 + 11) = {29.0610230904106, 2.447526515079164, 0};
Point(p18 + 12) = {28.9372820159358, 2.417818911472011, 0};
Point(p18 + 13) = {28.81971169250222, 2.369119688973234, 0};
Point(p18 + 14) = {28.71120709166636, 2.302627984064206, 0};
Point(p18 + 15) = {28.6144399568069, 2.219981043193104, 0};
Point(p18 + 16) = {28.53179301593579, 2.123213908333645, 0};
Point(p18 + 17) = {28.46530131102677, 2.014709307497778, 0};
Point(p18 + 18) = {28.41660208852799, 1.897138984064206, 0};
Point(p18 + 19) = {28.38689448492084, 1.773397909589396, 0};
Point(p18 + 20) = {28.37691, 1.646533, 0};
Point(p18 + 21) = {28.38689448492084, 1.519668090410604, 0};
Point(p18 + 22) = {28.41660208852799, 1.395927015935794, 0};
Point(p18 + 23) = {28.46530131102677, 1.278356692502222, 0};
Point(p18 + 24) = {28.53179301593579, 1.169852091666355, 0};
Point(p18 + 25) = {28.6144399568069, 1.073084956806896, 0};
Point(p18 + 26) = {28.71120709166636, 0.9904380159357939, 0};
Point(p18 + 27) = {28.81971169250222, 0.9239463110267659, 0};
Point(p18 + 28) = {28.9372820159358, 0.875247088527989, 0};
Point(p18 + 29) = {29.0610230904106, 0.8455394849208365, 0};
Point(p18 + 30) = {29.187888, 0.835555, 0};
Point(p18 + 31) = {29.3147529095894, 0.8455394849208364, 0};
Point(p18 + 32) = {29.43849398406421, 0.8752470885279889, 0};
Point(p18 + 33) = {29.55606430749778, 0.9239463110267657, 0};
Point(p18 + 34) = {29.66456890833365, 0.9904380159357938, 0};
Point(p18 + 35) = {29.7613360431931, 1.073084956806896, 0};
Point(p18 + 36) = {29.84398298406421, 1.169852091666355, 0};
Point(p18 + 37) = {29.91047468897323, 1.278356692502222, 0};
Point(p18 + 38) = {29.95917391147201, 1.395927015935794, 0};
Point(p18 + 39) = {29.98888151507916, 1.519668090410603, 0};
Spline(18) = {12, p18 + 1, p18 + 2, p18 + 3, p18 + 4, p18 + 5, p18 + 6, p18 + 7, p18 + 8, p18 + 9, p18 + 10, p18 + 11, p18 + 12, p18 + 13, p18 + 14, p18 + 15, p18 + 16, p18 + 17, p18 + 18, p18 + 19, p18 + 20, p18 + 21, p18 + 22, p18 + 23, p18 + 24, p18 + 25, p18 + 26, p18 + 27, p18 + 28, p18 + 29, p18 + 30, p18 + 31, p18 + 32, p18 + 33, p18 + 34, p18 + 35, p18 + 36, p18 + 37, p18 + 38, p18 + 39, 12};
Line(19) = {14, 13};
Line(20) = {13, 15};
Line(21) = {16, 15};
Line(22) = {14, 16};
Line(23) = {14, 17};
Line(24) = {17, 18};
Line(25) = {13, 18};
Line(26) = {15, 19};
Line(27) = {18, 19};
Line(28) = {16, 20};
Line(29) = {20, 19};
Line(30) = {17, 20};
Curve Loop(7) = {-13, -14, 15, 14};
Surface(7) = {7};
Curve Loop(8) = {13};
Plane Surface(8) = {8};
Curve Loop(9) = {15};
Plane Surface(9) = {9};
Curve Loop(10) = {-16, -17, 18, 17};
Surface(10) = {10};
Curve Loop(11) = {16};
Plane Surface(11) = {11};
Curve Loop(12) = {18};
Plane Surface(12) = {12};
Curve Loop(13) = {-19, 22, 21, -20};
Plane Surface(13) = {13};
Curve Loop(14) = {-23, 19, 25, -24};
Plane Surface(14) = {14};
Curve Loop(15) = {-20, 25, 27, -26};
Plane Surface(15) = {15};
Curve Loop(16) = {-28, 21, 26, -29};
Plane Surface(16) = {16};
Curve Loop(17) = {-22, 23, 30, -28, -15, -18};
Plane Surface(17) = {17};
Curve Loop(18) = {-24, 30, 29, -27};
Plane Surface(18) = {18};
Surface Loop(1) = {13, 14, 15, 16, 17, 18, 7, 10, 8, 11};
Volume(1) = {1};
Surface Loop(2) = {7, 8, 9};
Volume(2) = {2};
Surface Loop(3) = {10, 11, 12};
Volume(3) = {3};
Physical Surface("WALLS") = {13, 18};
Physical Surface("LOAD") = {8, 11};
Physical Surface("BORDER") = {7, 9, 10, 12, 14, 15, 16, 17};
Physical Volume("SOLID") = {1, 2, 3};
