cl__1 = 0.12649;
cl__2 = 0.134733;
cl__3 = 0.699912;
cl__4 = 0.719545;
cl__5 = 2.11577;
cl__6 = 2.180645;
Point(9) = {12.655212, 0.02472699999999969, 0.1, cl__1};
Point(10) = {12.655212, 0.02472699999999969, 0, cl__1};
Point(11) = {16.128745, -0.02722500000000033, 0.1, cl__2};
Point(12) = {16.128745, -0.02722500000000033, 0, cl__2};
Point(13) = {0.985765, -4.087936, 1, cl__3};
Point(14) = {0.985765, -4.087936, 0, cl__3};
Point(15) = {0.985765, 4.843411000000001, 1, cl__4};
Point(16) = {0.985765, 4.843411000000001, 0, cl__4};
Point(17) = {33.903008, -4.087936, 0, cl__5};
Point(18) = {33.903008, -4.087936, 1, cl__5};
Point(19) = {33.903008, 4.843411000000001, 1, cl__6};
Point(20) = {33.903008, 4.843411000000001, 0, cl__6};
p13 = newp;
Point(p13 + 1) = {12.63963893277215, 0.2226015805672482, 0.1};
Point(p13 + 2) = {12.5933031916878, 0.4156038322528485, 0.1};
Point(p13 + 3) = {12.51734571647196, 0.5989813990825517, 0.1};
Point(p13 + 4) = {12.41363683225285, 0.7682189167657585, 0.1};
Point(p13 + 5) = {12.28473019594999, 0.9191491959499887, 0.1};
Point(p13 + 6) = {12.13379991676576, 1.048055832252848, 0.1};
Point(p13 + 7) = {11.96456239908255, 1.151764716471963, 0.1};
Point(p13 + 8) = {11.78118483225285, 1.227722191687805, 0.1};
Point(p13 + 9) = {11.58818258056725, 1.274057932772152, 0.1};
Point(p13 + 10) = {11.390308, 1.289631, 0.1};
Point(p13 + 11) = {11.19243341943275, 1.274057932772152, 0.1};
Point(p13 + 12) = {10.99943116774715, 1.227722191687805, 0.1};
Point(p13 + 13) = {10.81605360091745, 1.151764716471963, 0.1};
Point(p13 + 14) = {10.64681608323424, 1.048055832252849, 0.1};
Point(p13 + 15) = {10.49588580405001, 0.9191491959499889, 0.1};
Point(p13 + 16) = {10.36697916774715, 0.7682189167657585, 0.1};
Point(p13 + 17) = {10.26327028352804, 0.5989813990825519, 0.1};
Point(p13 + 18) = {10.18731280831219, 0.4156038322528486, 0.1};
Point(p13 + 19) = {10.14097706722785, 0.2226015805672483, 0.1};
Point(p13 + 20) = {10.125404, 0.02472700000000016, 0.1};
Point(p13 + 21) = {10.14097706722785, -0.173147580567248, 0.1};
Point(p13 + 22) = {10.18731280831219, -0.3661498322528489, 0.1};
Point(p13 + 23) = {10.26327028352804, -0.5495273990825511, 0.1};
Point(p13 + 24) = {10.36697916774715, -0.7187649167657584, 0.1};
Point(p13 + 25) = {10.49588580405001, -0.8696951959499886, 0.1};
Point(p13 + 26) = {10.64681608323424, -0.9986018322528485, 0.1};
Point(p13 + 27) = {10.81605360091745, -1.102310716471963, 0.1};
Point(p13 + 28) = {10.99943116774715, -1.178268191687805, 0.1};
Point(p13 + 29) = {11.19243341943275, -1.224603932772152, 0.1};
Point(p13 + 30) = {11.390308, -1.240177, 0.1};
Point(p13 + 31) = {11.58818258056725, -1.224603932772152, 0.1};
Point(p13 + 32) = {11.78118483225285, -1.178268191687805, 0.1};
Point(p13 + 33) = {11.96456239908255, -1.102310716471963, 0.1};
Point(p13 + 34) = {12.13379991676576, -0.9986018322528487, 0.1};
Point(p13 + 35) = {12.28473019594999, -0.869695195949989, 0.1};
Point(p13 + 36) = {12.41363683225285, -0.7187649167657586, 0.1};
Point(p13 + 37) = {12.51734571647196, -0.549527399082552, 0.1};
Point(p13 + 38) = {12.5933031916878, -0.3661498322528488, 0.1};
Point(p13 + 39) = {12.63963893277215, -0.1731475805672485, 0.1};
Spline(13) = {9, p13 + 1, p13 + 2, p13 + 3, p13 + 4, p13 + 5, p13 + 6, p13 + 7, p13 + 8, p13 + 9, p13 + 10, p13 + 11, p13 + 12, p13 + 13, p13 + 14, p13 + 15, p13 + 16, p13 + 17, p13 + 18, p13 + 19, p13 + 20, p13 + 21, p13 + 22, p13 + 23, p13 + 24, p13 + 25, p13 + 26, p13 + 27, p13 + 28, p13 + 29, p13 + 30, p13 + 31, p13 + 32, p13 + 33, p13 + 34, p13 + 35, p13 + 36, p13 + 37, p13 + 38, p13 + 39, 9};
Line(14) = {10, 9};
p15 = newp;
Point(p15 + 1) = {12.63963893277215, 0.2226015805672482, 0};
Point(p15 + 2) = {12.5933031916878, 0.4156038322528485, 0};
Point(p15 + 3) = {12.51734571647196, 0.5989813990825517, 0};
Point(p15 + 4) = {12.41363683225285, 0.7682189167657585, 0};
Point(p15 + 5) = {12.28473019594999, 0.9191491959499887, 0};
Point(p15 + 6) = {12.13379991676576, 1.048055832252848, 0};
Point(p15 + 7) = {11.96456239908255, 1.151764716471963, 0};
Point(p15 + 8) = {11.78118483225285, 1.227722191687805, 0};
Point(p15 + 9) = {11.58818258056725, 1.274057932772152, 0};
Point(p15 + 10) = {11.390308, 1.289631, 0};
Point(p15 + 11) = {11.19243341943275, 1.274057932772152, 0};
Point(p15 + 12) = {10.99943116774715, 1.227722191687805, 0};
Point(p15 + 13) = {10.81605360091745, 1.151764716471963, 0};
Point(p15 + 14) = {10.64681608323424, 1.048055832252849, 0};
Point(p15 + 15) = {10.49588580405001, 0.9191491959499889, 0};
Point(p15 + 16) = {10.36697916774715, 0.7682189167657585, 0};
Point(p15 + 17) = {10.26327028352804, 0.5989813990825519, 0};
Point(p15 + 18) = {10.18731280831219, 0.4156038322528486, 0};
Point(p15 + 19) = {10.14097706722785, 0.2226015805672483, 0};
Point(p15 + 20) = {10.125404, 0.02472700000000016, 0};
Point(p15 + 21) = {10.14097706722785, -0.173147580567248, 0};
Point(p15 + 22) = {10.18731280831219, -0.3661498322528489, 0};
Point(p15 + 23) = {10.26327028352804, -0.5495273990825511, 0};
Point(p15 + 24) = {10.36697916774715, -0.7187649167657584, 0};
Point(p15 + 25) = {10.49588580405001, -0.8696951959499886, 0};
Point(p15 + 26) = {10.64681608323424, -0.9986018322528485, 0};
Point(p15 + 27) = {10.81605360091745, -1.102310716471963, 0};
Point(p15 + 28) = {10.99943116774715, -1.178268191687805, 0};
Point(p15 + 29) = {11.19243341943275, -1.224603932772152, 0};
Point(p15 + 30) = {11.390308, -1.240177, 0};
Point(p15 + 31) = {11.58818258056725, -1.224603932772152, 0};
Point(p15 + 32) = {11.78118483225285, -1.178268191687805, 0};
Point(p15 + 33) = {11.96456239908255, -1.102310716471963, 0};
Point(p15 + 34) = {12.13379991676576, -0.9986018322528487, 0};
Point(p15 + 35) = {12.28473019594999, -0.869695195949989, 0};
Point(p15 + 36) = {12.41363683225285, -0.7187649167657586, 0};
Point(p15 + 37) = {12.51734571647196, -0.549527399082552, 0};
Point(p15 + 38) = {12.5933031916878, -0.3661498322528488, 0};
Point(p15 + 39) = {12.63963893277215, -0.1731475805672485, 0};
Spline(15) = {10, p15 + 1, p15 + 2, p15 + 3, p15 + 4, p15 + 5, p15 + 6, p15 + 7, p15 + 8, p15 + 9, p15 + 10, p15 + 11, p15 + 12, p15 + 13, p15 + 14, p15 + 15, p15 + 16, p15 + 17, p15 + 18, p15 + 19, p15 + 20, p15 + 21, p15 + 22, p15 + 23, p15 + 24, p15 + 25, p15 + 26, p15 + 27, p15 + 28, p15 + 29, p15 + 30, p15 + 31, p15 + 32, p15 + 33, p15 + 34, p15 + 35, p15 + 36, p15 + 37, p15 + 38, p15 + 39, 10};
p16 = newp;
Point(p16 + 1) = {16.11215708268741, 0.1835444735205144, 0.1};
Point(p16 + 2) = {16.06280178032602, 0.3891241030991754, 0.1};
Point(p16 + 3) = {15.98189438426081, 0.5844518359760824, 0.1};
Point(p16 + 4) = {15.87142710309918, 0.764718055112227, 0.1};
Point(p16 + 5) = {15.7341200079232, 0.9254840079231959, 0.1};
Point(p16 + 6) = {15.57335405511223, 1.062791103099175, 0.1};
Point(p16 + 7) = {15.39308783597608, 1.17325838426081, 0.1};
Point(p16 + 8) = {15.19776010309918, 1.254165780326014, 0.1};
Point(p16 + 9) = {14.99218047352051, 1.303521082687409, 0.1};
Point(p16 + 10) = {14.781411, 1.320109, 0.1};
Point(p16 + 11) = {14.57064152647949, 1.303521082687409, 0.1};
Point(p16 + 12) = {14.36506189690082, 1.254165780326014, 0.1};
Point(p16 + 13) = {14.16973416402392, 1.17325838426081, 0.1};
Point(p16 + 14) = {13.98946794488777, 1.062791103099175, 0.1};
Point(p16 + 15) = {13.82870199207681, 0.9254840079231959, 0.1};
Point(p16 + 16) = {13.69139489690082, 0.7647180551122272, 0.1};
Point(p16 + 17) = {13.58092761573919, 0.5844518359760826, 0.1};
Point(p16 + 18) = {13.50002021967398, 0.3891241030991756, 0.1};
Point(p16 + 19) = {13.45066491731259, 0.1835444735205146, 0.1};
Point(p16 + 20) = {13.434077, -0.02722499999999983, 0.1};
Point(p16 + 21) = {13.45066491731259, -0.2379944735205143, 0.1};
Point(p16 + 22) = {13.50002021967399, -0.4435741030991758, 0.1};
Point(p16 + 23) = {13.58092761573919, -0.6389018359760819, 0.1};
Point(p16 + 24) = {13.69139489690082, -0.8191680551122269, 0.1};
Point(p16 + 25) = {13.8287019920768, -0.9799340079231957, 0.1};
Point(p16 + 26) = {13.98946794488777, -1.117241103099175, 0.1};
Point(p16 + 27) = {14.16973416402392, -1.22770838426081, 0.1};
Point(p16 + 28) = {14.36506189690082, -1.308615780326015, 0.1};
Point(p16 + 29) = {14.57064152647949, -1.357971082687409, 0.1};
Point(p16 + 30) = {14.781411, -1.374559, 0.1};
Point(p16 + 31) = {14.99218047352051, -1.357971082687409, 0.1};
Point(p16 + 32) = {15.19776010309918, -1.308615780326015, 0.1};
Point(p16 + 33) = {15.39308783597608, -1.227708384260811, 0.1};
Point(p16 + 34) = {15.57335405511223, -1.117241103099176, 0.1};
Point(p16 + 35) = {15.7341200079232, -0.979934007923196, 0.1};
Point(p16 + 36) = {15.87142710309918, -0.8191680551122271, 0.1};
Point(p16 + 37) = {15.98189438426081, -0.6389018359760827, 0.1};
Point(p16 + 38) = {16.06280178032602, -0.4435741030991757, 0.1};
Point(p16 + 39) = {16.11215708268741, -0.2379944735205148, 0.1};
Spline(16) = {11, p16 + 1, p16 + 2, p16 + 3, p16 + 4, p16 + 5, p16 + 6, p16 + 7, p16 + 8, p16 + 9, p16 + 10, p16 + 11, p16 + 12, p16 + 13, p16 + 14, p16 + 15, p16 + 16, p16 + 17, p16 + 18, p16 + 19, p16 + 20, p16 + 21, p16 + 22, p16 + 23, p16 + 24, p16 + 25, p16 + 26, p16 + 27, p16 + 28, p16 + 29, p16 + 30, p16 + 31, p16 + 32, p16 + 33, p16 + 34, p16 + 35, p16 + 36, p16 + 37, p16 + 38, p16 + 39, 11};
Line(17) = {12, 11};
p18 = newp;
Point(p18 + 1) = {16.11215708268741, 0.1835444735205144, 0};
Point(p18 + 2) = {16.06280178032602, 0.3891241030991754, 0};
Point(p18 + 3) = {15.98189438426081, 0.5844518359760824, 0};
Point(p18 + 4) = {15.87142710309918, 0.764718055112227, 0};
Point(p18 + 5) = {15.7341200079232, 0.9254840079231959, 0};
Point(p18 + 6) = {15.57335405511223, 1.062791103099175, 0};
Point(p18 + 7) = {15.39308783597608, 1.17325838426081, 0};
Point(p18 + 8) = {15.19776010309918, 1.254165780326014, 0};
Point(p18 + 9) = {14.99218047352051, 1.303521082687409, 0};
Point(p18 + 10) = {14.781411, 1.320109, 0};
Point(p18 + 11) = {14.57064152647949, 1.303521082687409, 0};
Point(p18 + 12) = {14.36506189690082, 1.254165780326014, 0};
Point(p18 + 13) = {14.16973416402392, 1.17325838426081, 0};
Point(p18 + 14) = {13.98946794488777, 1.062791103099175, 0};
Point(p18 + 15) = {13.82870199207681, 0.9254840079231959, 0};
Point(p18 + 16) = {13.69139489690082, 0.7647180551122272, 0};
Point(p18 + 17) = {13.58092761573919, 0.5844518359760826, 0};
Point(p18 + 18) = {13.50002021967398, 0.3891241030991756, 0};
Point(p18 + 19) = {13.45066491731259, 0.1835444735205146, 0};
Point(p18 + 20) = {13.434077, -0.02722499999999983, 0};
Point(p18 + 21) = {13.45066491731259, -0.2379944735205143, 0};
Point(p18 + 22) = {13.50002021967399, -0.4435741030991758, 0};
Point(p18 + 23) = {13.58092761573919, -0.6389018359760819, 0};
Point(p18 + 24) = {13.69139489690082, -0.8191680551122269, 0};
Point(p18 + 25) = {13.8287019920768, -0.9799340079231957, 0};
Point(p18 + 26) = {13.98946794488777, -1.117241103099175, 0};
Point(p18 + 27) = {14.16973416402392, -1.22770838426081, 0};
Point(p18 + 28) = {14.36506189690082, -1.308615780326015, 0};
Point(p18 + 29) = {14.57064152647949, -1.357971082687409, 0};
Point(p18 + 30) = {14.781411, -1.374559, 0};
Point(p18 + 31) = {14.99218047352051, -1.357971082687409, 0};
Point(p18 + 32) = {15.19776010309918, -1.308615780326015, 0};
Point(p18 + 33) = {15.39308783597608, -1.227708384260811, 0};
Point(p18 + 34) = {15.57335405511223, -1.117241103099176, 0};
Point(p18 + 35) = {15.7341200079232, -0.979934007923196, 0};
Point(p18 + 36) = {15.87142710309918, -0.8191680551122271, 0};
Point(p18 + 37) = {15.98189438426081, -0.6389018359760827, 0};
Point(p18 + 38) = {16.06280178032602, -0.4435741030991757, 0};
Point(p18 + 39) = {16.11215708268741, -0.2379944735205148, 0};
Spline(18) = {12, p18 + 1, p18 + 2, p18 + 3, p18 + 4, p18 + 5, p18 + 6, p18 + 7, p18 + 8, p18 + 9, p18 + 10, p18 + 11, p18 + 12, p18 + 13, p18 + 14, p18 + 15, p18 + 16, p18 + 17, p18 + 18, p18 + 19, p18 + 20, p18 + 21, p18 + 22, p18 + 23, p18 + 24, p18 + 25, p18 + 26, p18 + 27, p18 + 28, p18 + 29, p18 + 30, p18 + 31, p18 + 32, p18 + 33, p18 + 34, p18 + 35, p18 + 36, p18 + 37, p18 + 38, p18 + 39, 12};
Line(19) = {14, 13};
Line(20) = {13, 15};
Line(21) = {16, 15};
Line(22) = {14, 16};
Line(23) = {14, 17};
Line(24) = {17, 18};
Line(25) = {13, 18};
Line(26) = {15, 19};
Line(27) = {18, 19};
Line(28) = {16, 20};
Line(29) = {20, 19};
Line(30) = {17, 20};
Curve Loop(7) = {-13, -14, 15, 14};
Surface(7) = {7};
Curve Loop(8) = {13};
Plane Surface(8) = {8};
Curve Loop(9) = {15};
Plane Surface(9) = {9};
Curve Loop(10) = {-16, -17, 18, 17};
Surface(10) = {10};
Curve Loop(11) = {16};
Plane Surface(11) = {11};
Curve Loop(12) = {18};
Plane Surface(12) = {12};
Curve Loop(13) = {-19, 22, 21, -20};
Plane Surface(13) = {13};
Curve Loop(14) = {-23, 19, 25, -24};
Plane Surface(14) = {14};
Curve Loop(15) = {-20, 25, 27, -26};
Plane Surface(15) = {15};
Curve Loop(16) = {-28, 21, 26, -29};
Plane Surface(16) = {16};
Curve Loop(17) = {-22, 23, 30, -28, -15, -18};
Plane Surface(17) = {17};
Curve Loop(18) = {-24, 30, 29, -27};
Plane Surface(18) = {18};
Surface Loop(1) = {13, 14, 15, 16, 17, 18, 7, 10, 8, 11};
Volume(1) = {1};
Surface Loop(2) = {7, 8, 9};
Volume(2) = {2};
Surface Loop(3) = {10, 11, 12};
Volume(3) = {3};
Physical Surface("WALLS") = {13, 18};
Physical Surface("LOAD") = {8, 11};
Physical Surface("BORDER") = {7, 9, 10, 12, 14, 15, 16, 17};
Physical Volume("SOLID") = {1, 2, 3};
