cl__1 = 0.115175;
cl__2 = 0.112724;
cl__3 = 0.636623;
cl__4 = 0.328839;
cl__5 = 4.164366;
cl__6 = 2.897817;
Point(9) = {25.545225, 2.694159, 0.1, cl__1};
Point(10) = {25.545225, 2.694159, 0, cl__1};
Point(11) = {3.978637, 1.82605, 0.1, cl__2};
Point(12) = {3.978637, 1.82605, 0, cl__2};
Point(13) = {0.76123, -4.410779, 1, cl__3};
Point(14) = {0.76123, -4.410779, 0, cl__3};
Point(15) = {0.76123, 5.169032, 1, cl__4};
Point(16) = {0.76123, 5.169032, 0, cl__4};
Point(17) = {37.52009899999999, -4.410779, 0, cl__5};
Point(18) = {37.52009899999999, -4.410779, 1, cl__5};
Point(19) = {37.52009899999999, 5.169032, 1, cl__6};
Point(20) = {37.52009899999999, 5.169032, 0, cl__6};
p13 = newp;
Point(p13 + 1) = {25.53104498472215, 2.874333177282411, 0.1};
Point(p13 + 2) = {25.48885409792553, 3.050070868356317, 0.1};
Point(p13 + 3) = {25.41969121926657, 3.217044828027522, 0.1};
Point(p13 + 4) = {25.32525936835632, 3.371143603254117, 0.1};
Point(p13 + 5) = {25.20788377076551, 3.508572770765512, 0.1};
Point(p13 + 6) = {25.07045460325412, 3.625948368356318, 0.1};
Point(p13 + 7) = {24.91635582802752, 3.720380219266573, 0.1};
Point(p13 + 8) = {24.74938186835632, 3.789543097925525, 0.1};
Point(p13 + 9) = {24.57364417728241, 3.831733984722153, 0.1};
Point(p13 + 10) = {24.39347, 3.845914, 0.1};
Point(p13 + 11) = {24.21329582271759, 3.831733984722153, 0.1};
Point(p13 + 12) = {24.03755813164368, 3.789543097925525, 0.1};
Point(p13 + 13) = {23.87058417197248, 3.720380219266574, 0.1};
Point(p13 + 14) = {23.71648539674588, 3.625948368356318, 0.1};
Point(p13 + 15) = {23.57905622923449, 3.508572770765512, 0.1};
Point(p13 + 16) = {23.46168063164368, 3.371143603254118, 0.1};
Point(p13 + 17) = {23.36724878073343, 3.217044828027522, 0.1};
Point(p13 + 18) = {23.29808590207448, 3.050070868356318, 0.1};
Point(p13 + 19) = {23.25589501527785, 2.874333177282411, 0.1};
Point(p13 + 20) = {23.241715, 2.694159, 0.1};
Point(p13 + 21) = {23.25589501527785, 2.513984822717589, 0.1};
Point(p13 + 22) = {23.29808590207448, 2.338247131643682, 0.1};
Point(p13 + 23) = {23.36724878073343, 2.171273171972479, 0.1};
Point(p13 + 24) = {23.46168063164368, 2.017174396745883, 0.1};
Point(p13 + 25) = {23.57905622923449, 1.879745229234488, 0.1};
Point(p13 + 26) = {23.71648539674588, 1.762369631643682, 0.1};
Point(p13 + 27) = {23.87058417197248, 1.667937780733426, 0.1};
Point(p13 + 28) = {24.03755813164368, 1.598774902074475, 0.1};
Point(p13 + 29) = {24.21329582271759, 1.556584015277847, 0.1};
Point(p13 + 30) = {24.39347, 1.542404, 0.1};
Point(p13 + 31) = {24.57364417728241, 1.556584015277847, 0.1};
Point(p13 + 32) = {24.74938186835632, 1.598774902074475, 0.1};
Point(p13 + 33) = {24.91635582802752, 1.667937780733426, 0.1};
Point(p13 + 34) = {25.07045460325412, 1.762369631643682, 0.1};
Point(p13 + 35) = {25.20788377076551, 1.879745229234488, 0.1};
Point(p13 + 36) = {25.32525936835632, 2.017174396745882, 0.1};
Point(p13 + 37) = {25.41969121926657, 2.171273171972478, 0.1};
Point(p13 + 38) = {25.48885409792553, 2.338247131643682, 0.1};
Point(p13 + 39) = {25.53104498472215, 2.513984822717588, 0.1};
Spline(13) = {9, p13 + 1, p13 + 2, p13 + 3, p13 + 4, p13 + 5, p13 + 6, p13 + 7, p13 + 8, p13 + 9, p13 + 10, p13 + 11, p13 + 12, p13 + 13, p13 + 14, p13 + 15, p13 + 16, p13 + 17, p13 + 18, p13 + 19, p13 + 20, p13 + 21, p13 + 22, p13 + 23, p13 + 24, p13 + 25, p13 + 26, p13 + 27, p13 + 28, p13 + 29, p13 + 30, p13 + 31, p13 + 32, p13 + 33, p13 + 34, p13 + 35, p13 + 36, p13 + 37, p13 + 38, p13 + 39, 9};
Line(14) = {10, 9};
p15 = newp;
Point(p15 + 1) = {25.53104498472215, 2.874333177282411, 0};
Point(p15 + 2) = {25.48885409792553, 3.050070868356317, 0};
Point(p15 + 3) = {25.41969121926657, 3.217044828027522, 0};
Point(p15 + 4) = {25.32525936835632, 3.371143603254117, 0};
Point(p15 + 5) = {25.20788377076551, 3.508572770765512, 0};
Point(p15 + 6) = {25.07045460325412, 3.625948368356318, 0};
Point(p15 + 7) = {24.91635582802752, 3.720380219266573, 0};
Point(p15 + 8) = {24.74938186835632, 3.789543097925525, 0};
Point(p15 + 9) = {24.57364417728241, 3.831733984722153, 0};
Point(p15 + 10) = {24.39347, 3.845914, 0};
Point(p15 + 11) = {24.21329582271759, 3.831733984722153, 0};
Point(p15 + 12) = {24.03755813164368, 3.789543097925525, 0};
Point(p15 + 13) = {23.87058417197248, 3.720380219266574, 0};
Point(p15 + 14) = {23.71648539674588, 3.625948368356318, 0};
Point(p15 + 15) = {23.57905622923449, 3.508572770765512, 0};
Point(p15 + 16) = {23.46168063164368, 3.371143603254118, 0};
Point(p15 + 17) = {23.36724878073343, 3.217044828027522, 0};
Point(p15 + 18) = {23.29808590207448, 3.050070868356318, 0};
Point(p15 + 19) = {23.25589501527785, 2.874333177282411, 0};
Point(p15 + 20) = {23.241715, 2.694159, 0};
Point(p15 + 21) = {23.25589501527785, 2.513984822717589, 0};
Point(p15 + 22) = {23.29808590207448, 2.338247131643682, 0};
Point(p15 + 23) = {23.36724878073343, 2.171273171972479, 0};
Point(p15 + 24) = {23.46168063164368, 2.017174396745883, 0};
Point(p15 + 25) = {23.57905622923449, 1.879745229234488, 0};
Point(p15 + 26) = {23.71648539674588, 1.762369631643682, 0};
Point(p15 + 27) = {23.87058417197248, 1.667937780733426, 0};
Point(p15 + 28) = {24.03755813164368, 1.598774902074475, 0};
Point(p15 + 29) = {24.21329582271759, 1.556584015277847, 0};
Point(p15 + 30) = {24.39347, 1.542404, 0};
Point(p15 + 31) = {24.57364417728241, 1.556584015277847, 0};
Point(p15 + 32) = {24.74938186835632, 1.598774902074475, 0};
Point(p15 + 33) = {24.91635582802752, 1.667937780733426, 0};
Point(p15 + 34) = {25.07045460325412, 1.762369631643682, 0};
Point(p15 + 35) = {25.20788377076551, 1.879745229234488, 0};
Point(p15 + 36) = {25.32525936835632, 2.017174396745882, 0};
Point(p15 + 37) = {25.41969121926657, 2.171273171972478, 0};
Point(p15 + 38) = {25.48885409792553, 2.338247131643682, 0};
Point(p15 + 39) = {25.53104498472215, 2.513984822717588, 0};
Spline(15) = {10, p15 + 1, p15 + 2, p15 + 3, p15 + 4, p15 + 5, p15 + 6, p15 + 7, p15 + 8, p15 + 9, p15 + 10, p15 + 11, p15 + 12, p15 + 13, p15 + 14, p15 + 15, p15 + 16, p15 + 17, p15 + 18, p15 + 19, p15 + 20, p15 + 21, p15 + 22, p15 + 23, p15 + 24, p15 + 25, p15 + 26, p15 + 27, p15 + 28, p15 + 29, p15 + 30, p15 + 31, p15 + 32, p15 + 33, p15 + 34, p15 + 35, p15 + 36, p15 + 37, p15 + 38, p15 + 39, 10};
p16 = newp;
Point(p16 + 1) = {3.964758780429144, 2.00238949924088, 0.1};
Point(p16 + 2) = {3.923465849541582, 2.174386934773204, 0.1};
Point(p16 + 3) = {3.855774976339144, 2.337807158907406, 0.1};
Point(p16 + 4) = {3.763352934773205, 2.488626223364672, 0.1};
Point(p16 + 5) = {3.648475462238286, 2.623130462238286, 0.1};
Point(p16 + 6) = {3.513971223364672, 2.738007934773204, 0.1};
Point(p16 + 7) = {3.363152158907406, 2.830429976339144, 0.1};
Point(p16 + 8) = {3.199731934773205, 2.898120849541582, 0.1};
Point(p16 + 9) = {3.02773449924088, 2.939413780429144, 0.1};
Point(p16 + 10) = {2.851395, 2.953292, 0.1};
Point(p16 + 11) = {2.67505550075912, 2.939413780429144, 0.1};
Point(p16 + 12) = {2.503058065226796, 2.898120849541582, 0.1};
Point(p16 + 13) = {2.339637841092594, 2.830429976339144, 0.1};
Point(p16 + 14) = {2.188818776635328, 2.738007934773204, 0.1};
Point(p16 + 15) = {2.054314537761714, 2.623130462238286, 0.1};
Point(p16 + 16) = {1.939437065226796, 2.488626223364672, 0.1};
Point(p16 + 17) = {1.847015023660856, 2.337807158907406, 0.1};
Point(p16 + 18) = {1.779324150458419, 2.174386934773205, 0.1};
Point(p16 + 19) = {1.738031219570856, 2.00238949924088, 0.1};
Point(p16 + 20) = {1.724153, 1.82605, 0.1};
Point(p16 + 21) = {1.738031219570856, 1.64971050075912, 0.1};
Point(p16 + 22) = {1.779324150458419, 1.477713065226795, 0.1};
Point(p16 + 23) = {1.847015023660856, 1.314292841092594, 0.1};
Point(p16 + 24) = {1.939437065226796, 1.163473776635328, 0.1};
Point(p16 + 25) = {2.054314537761714, 1.028969537761714, 0.1};
Point(p16 + 26) = {2.188818776635328, 0.9140920652267955, 0.1};
Point(p16 + 27) = {2.339637841092594, 0.8216700236608558, 0.1};
Point(p16 + 28) = {2.503058065226795, 0.7539791504584183, 0.1};
Point(p16 + 29) = {2.67505550075912, 0.7126862195708557, 0.1};
Point(p16 + 30) = {2.851395, 0.6988079999999999, 0.1};
Point(p16 + 31) = {3.02773449924088, 0.7126862195708557, 0.1};
Point(p16 + 32) = {3.199731934773205, 0.7539791504584183, 0.1};
Point(p16 + 33) = {3.363152158907406, 0.8216700236608556, 0.1};
Point(p16 + 34) = {3.513971223364672, 0.9140920652267952, 0.1};
Point(p16 + 35) = {3.648475462238286, 1.028969537761713, 0.1};
Point(p16 + 36) = {3.763352934773204, 1.163473776635328, 0.1};
Point(p16 + 37) = {3.855774976339144, 1.314292841092593, 0.1};
Point(p16 + 38) = {3.923465849541582, 1.477713065226795, 0.1};
Point(p16 + 39) = {3.964758780429144, 1.64971050075912, 0.1};
Spline(16) = {11, p16 + 1, p16 + 2, p16 + 3, p16 + 4, p16 + 5, p16 + 6, p16 + 7, p16 + 8, p16 + 9, p16 + 10, p16 + 11, p16 + 12, p16 + 13, p16 + 14, p16 + 15, p16 + 16, p16 + 17, p16 + 18, p16 + 19, p16 + 20, p16 + 21, p16 + 22, p16 + 23, p16 + 24, p16 + 25, p16 + 26, p16 + 27, p16 + 28, p16 + 29, p16 + 30, p16 + 31, p16 + 32, p16 + 33, p16 + 34, p16 + 35, p16 + 36, p16 + 37, p16 + 38, p16 + 39, 11};
Line(17) = {12, 11};
p18 = newp;
Point(p18 + 1) = {3.964758780429144, 2.00238949924088, 0};
Point(p18 + 2) = {3.923465849541582, 2.174386934773204, 0};
Point(p18 + 3) = {3.855774976339144, 2.337807158907406, 0};
Point(p18 + 4) = {3.763352934773205, 2.488626223364672, 0};
Point(p18 + 5) = {3.648475462238286, 2.623130462238286, 0};
Point(p18 + 6) = {3.513971223364672, 2.738007934773204, 0};
Point(p18 + 7) = {3.363152158907406, 2.830429976339144, 0};
Point(p18 + 8) = {3.199731934773205, 2.898120849541582, 0};
Point(p18 + 9) = {3.02773449924088, 2.939413780429144, 0};
Point(p18 + 10) = {2.851395, 2.953292, 0};
Point(p18 + 11) = {2.67505550075912, 2.939413780429144, 0};
Point(p18 + 12) = {2.503058065226796, 2.898120849541582, 0};
Point(p18 + 13) = {2.339637841092594, 2.830429976339144, 0};
Point(p18 + 14) = {2.188818776635328, 2.738007934773204, 0};
Point(p18 + 15) = {2.054314537761714, 2.623130462238286, 0};
Point(p18 + 16) = {1.939437065226796, 2.488626223364672, 0};
Point(p18 + 17) = {1.847015023660856, 2.337807158907406, 0};
Point(p18 + 18) = {1.779324150458419, 2.174386934773205, 0};
Point(p18 + 19) = {1.738031219570856, 2.00238949924088, 0};
Point(p18 + 20) = {1.724153, 1.82605, 0};
Point(p18 + 21) = {1.738031219570856, 1.64971050075912, 0};
Point(p18 + 22) = {1.779324150458419, 1.477713065226795, 0};
Point(p18 + 23) = {1.847015023660856, 1.314292841092594, 0};
Point(p18 + 24) = {1.939437065226796, 1.163473776635328, 0};
Point(p18 + 25) = {2.054314537761714, 1.028969537761714, 0};
Point(p18 + 26) = {2.188818776635328, 0.9140920652267955, 0};
Point(p18 + 27) = {2.339637841092594, 0.8216700236608558, 0};
Point(p18 + 28) = {2.503058065226795, 0.7539791504584183, 0};
Point(p18 + 29) = {2.67505550075912, 0.7126862195708557, 0};
Point(p18 + 30) = {2.851395, 0.6988079999999999, 0};
Point(p18 + 31) = {3.02773449924088, 0.7126862195708557, 0};
Point(p18 + 32) = {3.199731934773205, 0.7539791504584183, 0};
Point(p18 + 33) = {3.363152158907406, 0.8216700236608556, 0};
Point(p18 + 34) = {3.513971223364672, 0.9140920652267952, 0};
Point(p18 + 35) = {3.648475462238286, 1.028969537761713, 0};
Point(p18 + 36) = {3.763352934773204, 1.163473776635328, 0};
Point(p18 + 37) = {3.855774976339144, 1.314292841092593, 0};
Point(p18 + 38) = {3.923465849541582, 1.477713065226795, 0};
Point(p18 + 39) = {3.964758780429144, 1.64971050075912, 0};
Spline(18) = {12, p18 + 1, p18 + 2, p18 + 3, p18 + 4, p18 + 5, p18 + 6, p18 + 7, p18 + 8, p18 + 9, p18 + 10, p18 + 11, p18 + 12, p18 + 13, p18 + 14, p18 + 15, p18 + 16, p18 + 17, p18 + 18, p18 + 19, p18 + 20, p18 + 21, p18 + 22, p18 + 23, p18 + 24, p18 + 25, p18 + 26, p18 + 27, p18 + 28, p18 + 29, p18 + 30, p18 + 31, p18 + 32, p18 + 33, p18 + 34, p18 + 35, p18 + 36, p18 + 37, p18 + 38, p18 + 39, 12};
Line(19) = {14, 13};
Line(20) = {13, 15};
Line(21) = {16, 15};
Line(22) = {14, 16};
Line(23) = {14, 17};
Line(24) = {17, 18};
Line(25) = {13, 18};
Line(26) = {15, 19};
Line(27) = {18, 19};
Line(28) = {16, 20};
Line(29) = {20, 19};
Line(30) = {17, 20};
Curve Loop(7) = {-13, -14, 15, 14};
Surface(7) = {7};
Curve Loop(8) = {13};
Plane Surface(8) = {8};
Curve Loop(9) = {15};
Plane Surface(9) = {9};
Curve Loop(10) = {-16, -17, 18, 17};
Surface(10) = {10};
Curve Loop(11) = {16};
Plane Surface(11) = {11};
Curve Loop(12) = {18};
Plane Surface(12) = {12};
Curve Loop(13) = {-19, 22, 21, -20};
Plane Surface(13) = {13};
Curve Loop(14) = {-23, 19, 25, -24};
Plane Surface(14) = {14};
Curve Loop(15) = {-20, 25, 27, -26};
Plane Surface(15) = {15};
Curve Loop(16) = {-28, 21, 26, -29};
Plane Surface(16) = {16};
Curve Loop(17) = {-22, 23, 30, -28, -18, -15};
Plane Surface(17) = {17};
Curve Loop(18) = {-24, 30, 29, -27};
Plane Surface(18) = {18};
Surface Loop(1) = {13, 14, 15, 16, 17, 18, 10, 7, 11, 8};
Volume(1) = {1};
Surface Loop(2) = {7, 8, 9};
Volume(2) = {2};
Surface Loop(3) = {10, 11, 12};
Volume(3) = {3};
Physical Surface("WALLS") = {13, 18};
Physical Surface("LOAD") = {8, 11};
Physical Surface("BORDER") = {7, 9, 10, 12, 14, 15, 16, 17};
Physical Volume("SOLID") = {1, 2, 3};
