cl__1 = 0.091833;
cl__2 = 0.095816;
cl__3 = 0.658442;
cl__4 = 0.608785;
cl__5 = 2.624283;
cl__6 = 2.479215;
Point(9) = {11.105386, 1.769764, 0.1, cl__1};
Point(10) = {11.105386, 1.769764, 0, cl__1};
Point(11) = {14.265429, 1.840463, 0.1, cl__2};
Point(12) = {14.265429, 1.840463, 0, cl__2};
Point(13) = {0.130199, -4.137672, 1, cl__3};
Point(14) = {0.130199, -4.137672, 0, cl__3};
Point(15) = {0.130199, 5.850346999999999, 1, cl__4};
Point(16) = {0.130199, 5.850346999999999, 0, cl__4};
Point(17) = {36.000828, -4.137672, 0, cl__5};
Point(18) = {36.000828, -4.137672, 1, cl__5};
Point(19) = {36.000828, 5.850346999999999, 1, cl__6};
Point(20) = {36.000828, 5.850346999999999, 0, cl__6};
p13 = newp;
Point(p13 + 1) = {11.09407982150707, 1.91342261871486, 0.1};
Point(p13 + 2) = {11.06043968166585, 2.05354388546134, 0.1};
Point(p13 + 3) = {11.00529391236443, 2.186677549616318, 0.1};
Point(p13 + 4) = {10.93000038546134, 2.309545418522999, 0.1};
Point(p13 + 5) = {10.83641307747382, 2.419122077473823, 0.1};
Point(p13 + 6) = {10.726836418523, 2.51270938546134, 0.1};
Point(p13 + 7) = {10.60396854961632, 2.588002912364428, 0.1};
Point(p13 + 8) = {10.47083488546134, 2.643148681665845, 0.1};
Point(p13 + 9) = {10.33071361871486, 2.676788821507073, 0.1};
Point(p13 + 10) = {10.187055, 2.688095, 0.1};
Point(p13 + 11) = {10.04339638128514, 2.676788821507073, 0.1};
Point(p13 + 12) = {9.903275114538662, 2.643148681665845, 0.1};
Point(p13 + 13) = {9.770141450383683, 2.588002912364428, 0.1};
Point(p13 + 14) = {9.647273581477002, 2.51270938546134, 0.1};
Point(p13 + 15) = {9.537696922526177, 2.419122077473824, 0.1};
Point(p13 + 16) = {9.444109614538661, 2.309545418522999, 0.1};
Point(p13 + 17) = {9.368816087635572, 2.186677549616318, 0.1};
Point(p13 + 18) = {9.313670318334156, 2.05354388546134, 0.1};
Point(p13 + 19) = {9.280030178492927, 1.91342261871486, 0.1};
Point(p13 + 20) = {9.268724000000001, 1.769764, 0.1};
Point(p13 + 21) = {9.280030178492927, 1.62610538128514, 0.1};
Point(p13 + 22) = {9.313670318334156, 1.48598411453866, 0.1};
Point(p13 + 23) = {9.368816087635572, 1.352850450383682, 0.1};
Point(p13 + 24) = {9.444109614538661, 1.229982581477001, 0.1};
Point(p13 + 25) = {9.537696922526177, 1.120405922526177, 0.1};
Point(p13 + 26) = {9.647273581477002, 1.02681861453866, 0.1};
Point(p13 + 27) = {9.770141450383683, 0.9515250876355719, 0.1};
Point(p13 + 28) = {9.90327511453866, 0.8963793183341553, 0.1};
Point(p13 + 29) = {10.04339638128514, 0.8627391784929265, 0.1};
Point(p13 + 30) = {10.187055, 0.8514329999999999, 0.1};
Point(p13 + 31) = {10.33071361871486, 0.8627391784929265, 0.1};
Point(p13 + 32) = {10.47083488546134, 0.8963793183341552, 0.1};
Point(p13 + 33) = {10.60396854961632, 0.9515250876355718, 0.1};
Point(p13 + 34) = {10.726836418523, 1.02681861453866, 0.1};
Point(p13 + 35) = {10.83641307747382, 1.120405922526176, 0.1};
Point(p13 + 36) = {10.93000038546134, 1.229982581477001, 0.1};
Point(p13 + 37) = {11.00529391236443, 1.352850450383682, 0.1};
Point(p13 + 38) = {11.06043968166585, 1.48598411453866, 0.1};
Point(p13 + 39) = {11.09407982150707, 1.626105381285139, 0.1};
Spline(13) = {9, p13 + 1, p13 + 2, p13 + 3, p13 + 4, p13 + 5, p13 + 6, p13 + 7, p13 + 8, p13 + 9, p13 + 10, p13 + 11, p13 + 12, p13 + 13, p13 + 14, p13 + 15, p13 + 16, p13 + 17, p13 + 18, p13 + 19, p13 + 20, p13 + 21, p13 + 22, p13 + 23, p13 + 24, p13 + 25, p13 + 26, p13 + 27, p13 + 28, p13 + 29, p13 + 30, p13 + 31, p13 + 32, p13 + 33, p13 + 34, p13 + 35, p13 + 36, p13 + 37, p13 + 38, p13 + 39, 9};
Line(14) = {10, 9};
p15 = newp;
Point(p15 + 1) = {11.09407982150707, 1.91342261871486, 0};
Point(p15 + 2) = {11.06043968166585, 2.05354388546134, 0};
Point(p15 + 3) = {11.00529391236443, 2.186677549616318, 0};
Point(p15 + 4) = {10.93000038546134, 2.309545418522999, 0};
Point(p15 + 5) = {10.83641307747382, 2.419122077473823, 0};
Point(p15 + 6) = {10.726836418523, 2.51270938546134, 0};
Point(p15 + 7) = {10.60396854961632, 2.588002912364428, 0};
Point(p15 + 8) = {10.47083488546134, 2.643148681665845, 0};
Point(p15 + 9) = {10.33071361871486, 2.676788821507073, 0};
Point(p15 + 10) = {10.187055, 2.688095, 0};
Point(p15 + 11) = {10.04339638128514, 2.676788821507073, 0};
Point(p15 + 12) = {9.903275114538662, 2.643148681665845, 0};
Point(p15 + 13) = {9.770141450383683, 2.588002912364428, 0};
Point(p15 + 14) = {9.647273581477002, 2.51270938546134, 0};
Point(p15 + 15) = {9.537696922526177, 2.419122077473824, 0};
Point(p15 + 16) = {9.444109614538661, 2.309545418522999, 0};
Point(p15 + 17) = {9.368816087635572, 2.186677549616318, 0};
Point(p15 + 18) = {9.313670318334156, 2.05354388546134, 0};
Point(p15 + 19) = {9.280030178492927, 1.91342261871486, 0};
Point(p15 + 20) = {9.268724000000001, 1.769764, 0};
Point(p15 + 21) = {9.280030178492927, 1.62610538128514, 0};
Point(p15 + 22) = {9.313670318334156, 1.48598411453866, 0};
Point(p15 + 23) = {9.368816087635572, 1.352850450383682, 0};
Point(p15 + 24) = {9.444109614538661, 1.229982581477001, 0};
Point(p15 + 25) = {9.537696922526177, 1.120405922526177, 0};
Point(p15 + 26) = {9.647273581477002, 1.02681861453866, 0};
Point(p15 + 27) = {9.770141450383683, 0.9515250876355719, 0};
Point(p15 + 28) = {9.90327511453866, 0.8963793183341553, 0};
Point(p15 + 29) = {10.04339638128514, 0.8627391784929265, 0};
Point(p15 + 30) = {10.187055, 0.8514329999999999, 0};
Point(p15 + 31) = {10.33071361871486, 0.8627391784929265, 0};
Point(p15 + 32) = {10.47083488546134, 0.8963793183341552, 0};
Point(p15 + 33) = {10.60396854961632, 0.9515250876355718, 0};
Point(p15 + 34) = {10.726836418523, 1.02681861453866, 0};
Point(p15 + 35) = {10.83641307747382, 1.120405922526176, 0};
Point(p15 + 36) = {10.93000038546134, 1.229982581477001, 0};
Point(p15 + 37) = {11.00529391236443, 1.352850450383682, 0};
Point(p15 + 38) = {11.06043968166585, 1.48598411453866, 0};
Point(p15 + 39) = {11.09407982150707, 1.626105381285139, 0};
Spline(15) = {10, p15 + 1, p15 + 2, p15 + 3, p15 + 4, p15 + 5, p15 + 6, p15 + 7, p15 + 8, p15 + 9, p15 + 10, p15 + 11, p15 + 12, p15 + 13, p15 + 14, p15 + 15, p15 + 16, p15 + 17, p15 + 18, p15 + 19, p15 + 20, p15 + 21, p15 + 22, p15 + 23, p15 + 24, p15 + 25, p15 + 26, p15 + 27, p15 + 28, p15 + 29, p15 + 30, p15 + 31, p15 + 32, p15 + 33, p15 + 34, p15 + 35, p15 + 36, p15 + 37, p15 + 38, p15 + 39, 10};
p16 = newp;
Point(p16 + 1) = {14.253632411178, 1.990352872760808, 0.1};
Point(p16 + 2) = {14.21853311587943, 2.136551959398277, 0.1};
Point(p16 + 3) = {14.16099537524242, 2.275460353192443, 0.1};
Point(p16 + 4) = {14.08243595939828, 2.403657668477565, 0.1};
Point(p16 + 5) = {13.98478926188883, 2.517987261888827, 0.1};
Point(p16 + 6) = {13.87045966847757, 2.615633959398277, 0.1};
Point(p16 + 7) = {13.74226235319244, 2.694193375242423, 0.1};
Point(p16 + 8) = {13.60335395939828, 2.75173111587943, 0.1};
Point(p16 + 9) = {13.45715487276081, 2.786830411177999, 0.1};
Point(p16 + 10) = {13.307265, 2.798627, 0.1};
Point(p16 + 11) = {13.15737512723919, 2.786830411177999, 0.1};
Point(p16 + 12) = {13.01117604060172, 2.75173111587943, 0.1};
Point(p16 + 13) = {12.87226764680756, 2.694193375242423, 0.1};
Point(p16 + 14) = {12.74407033152243, 2.615633959398277, 0.1};
Point(p16 + 15) = {12.62974073811117, 2.517987261888827, 0.1};
Point(p16 + 16) = {12.53209404060172, 2.403657668477565, 0.1};
Point(p16 + 17) = {12.45353462475758, 2.275460353192443, 0.1};
Point(p16 + 18) = {12.39599688412057, 2.136551959398277, 0.1};
Point(p16 + 19) = {12.360897588822, 1.990352872760808, 0.1};
Point(p16 + 20) = {12.349101, 1.840463, 0.1};
Point(p16 + 21) = {12.360897588822, 1.690573127239192, 0.1};
Point(p16 + 22) = {12.39599688412057, 1.544374040601723, 0.1};
Point(p16 + 23) = {12.45353462475757, 1.405465646807557, 0.1};
Point(p16 + 24) = {12.53209404060172, 1.277268331522435, 0.1};
Point(p16 + 25) = {12.62974073811117, 1.162938738111173, 0.1};
Point(p16 + 26) = {12.74407033152243, 1.065292040601723, 0.1};
Point(p16 + 27) = {12.87226764680756, 0.9867326247575767, 0.1};
Point(p16 + 28) = {13.01117604060172, 0.9291948841205705, 0.1};
Point(p16 + 29) = {13.15737512723919, 0.8940955888220005, 0.1};
Point(p16 + 30) = {13.307265, 0.8822989999999999, 0.1};
Point(p16 + 31) = {13.45715487276081, 0.8940955888220004, 0.1};
Point(p16 + 32) = {13.60335395939828, 0.9291948841205704, 0.1};
Point(p16 + 33) = {13.74226235319244, 0.9867326247575765, 0.1};
Point(p16 + 34) = {13.87045966847757, 1.065292040601723, 0.1};
Point(p16 + 35) = {13.98478926188883, 1.162938738111173, 0.1};
Point(p16 + 36) = {14.08243595939828, 1.277268331522435, 0.1};
Point(p16 + 37) = {14.16099537524242, 1.405465646807557, 0.1};
Point(p16 + 38) = {14.21853311587943, 1.544374040601723, 0.1};
Point(p16 + 39) = {14.253632411178, 1.690573127239192, 0.1};
Spline(16) = {11, p16 + 1, p16 + 2, p16 + 3, p16 + 4, p16 + 5, p16 + 6, p16 + 7, p16 + 8, p16 + 9, p16 + 10, p16 + 11, p16 + 12, p16 + 13, p16 + 14, p16 + 15, p16 + 16, p16 + 17, p16 + 18, p16 + 19, p16 + 20, p16 + 21, p16 + 22, p16 + 23, p16 + 24, p16 + 25, p16 + 26, p16 + 27, p16 + 28, p16 + 29, p16 + 30, p16 + 31, p16 + 32, p16 + 33, p16 + 34, p16 + 35, p16 + 36, p16 + 37, p16 + 38, p16 + 39, 11};
Line(17) = {12, 11};
p18 = newp;
Point(p18 + 1) = {14.253632411178, 1.990352872760808, 0};
Point(p18 + 2) = {14.21853311587943, 2.136551959398277, 0};
Point(p18 + 3) = {14.16099537524242, 2.275460353192443, 0};
Point(p18 + 4) = {14.08243595939828, 2.403657668477565, 0};
Point(p18 + 5) = {13.98478926188883, 2.517987261888827, 0};
Point(p18 + 6) = {13.87045966847757, 2.615633959398277, 0};
Point(p18 + 7) = {13.74226235319244, 2.694193375242423, 0};
Point(p18 + 8) = {13.60335395939828, 2.75173111587943, 0};
Point(p18 + 9) = {13.45715487276081, 2.786830411177999, 0};
Point(p18 + 10) = {13.307265, 2.798627, 0};
Point(p18 + 11) = {13.15737512723919, 2.786830411177999, 0};
Point(p18 + 12) = {13.01117604060172, 2.75173111587943, 0};
Point(p18 + 13) = {12.87226764680756, 2.694193375242423, 0};
Point(p18 + 14) = {12.74407033152243, 2.615633959398277, 0};
Point(p18 + 15) = {12.62974073811117, 2.517987261888827, 0};
Point(p18 + 16) = {12.53209404060172, 2.403657668477565, 0};
Point(p18 + 17) = {12.45353462475758, 2.275460353192443, 0};
Point(p18 + 18) = {12.39599688412057, 2.136551959398277, 0};
Point(p18 + 19) = {12.360897588822, 1.990352872760808, 0};
Point(p18 + 20) = {12.349101, 1.840463, 0};
Point(p18 + 21) = {12.360897588822, 1.690573127239192, 0};
Point(p18 + 22) = {12.39599688412057, 1.544374040601723, 0};
Point(p18 + 23) = {12.45353462475757, 1.405465646807557, 0};
Point(p18 + 24) = {12.53209404060172, 1.277268331522435, 0};
Point(p18 + 25) = {12.62974073811117, 1.162938738111173, 0};
Point(p18 + 26) = {12.74407033152243, 1.065292040601723, 0};
Point(p18 + 27) = {12.87226764680756, 0.9867326247575767, 0};
Point(p18 + 28) = {13.01117604060172, 0.9291948841205705, 0};
Point(p18 + 29) = {13.15737512723919, 0.8940955888220005, 0};
Point(p18 + 30) = {13.307265, 0.8822989999999999, 0};
Point(p18 + 31) = {13.45715487276081, 0.8940955888220004, 0};
Point(p18 + 32) = {13.60335395939828, 0.9291948841205704, 0};
Point(p18 + 33) = {13.74226235319244, 0.9867326247575765, 0};
Point(p18 + 34) = {13.87045966847757, 1.065292040601723, 0};
Point(p18 + 35) = {13.98478926188883, 1.162938738111173, 0};
Point(p18 + 36) = {14.08243595939828, 1.277268331522435, 0};
Point(p18 + 37) = {14.16099537524242, 1.405465646807557, 0};
Point(p18 + 38) = {14.21853311587943, 1.544374040601723, 0};
Point(p18 + 39) = {14.253632411178, 1.690573127239192, 0};
Spline(18) = {12, p18 + 1, p18 + 2, p18 + 3, p18 + 4, p18 + 5, p18 + 6, p18 + 7, p18 + 8, p18 + 9, p18 + 10, p18 + 11, p18 + 12, p18 + 13, p18 + 14, p18 + 15, p18 + 16, p18 + 17, p18 + 18, p18 + 19, p18 + 20, p18 + 21, p18 + 22, p18 + 23, p18 + 24, p18 + 25, p18 + 26, p18 + 27, p18 + 28, p18 + 29, p18 + 30, p18 + 31, p18 + 32, p18 + 33, p18 + 34, p18 + 35, p18 + 36, p18 + 37, p18 + 38, p18 + 39, 12};
Line(19) = {14, 13};
Line(20) = {13, 15};
Line(21) = {16, 15};
Line(22) = {14, 16};
Line(23) = {14, 17};
Line(24) = {17, 18};
Line(25) = {13, 18};
Line(26) = {15, 19};
Line(27) = {18, 19};
Line(28) = {16, 20};
Line(29) = {20, 19};
Line(30) = {17, 20};
Curve Loop(7) = {-13, -14, 15, 14};
Surface(7) = {7};
Curve Loop(8) = {13};
Plane Surface(8) = {8};
Curve Loop(9) = {15};
Plane Surface(9) = {9};
Curve Loop(10) = {-16, -17, 18, 17};
Surface(10) = {10};
Curve Loop(11) = {16};
Plane Surface(11) = {11};
Curve Loop(12) = {18};
Plane Surface(12) = {12};
Curve Loop(13) = {-19, 22, 21, -20};
Plane Surface(13) = {13};
Curve Loop(14) = {-23, 19, 25, -24};
Plane Surface(14) = {14};
Curve Loop(15) = {-20, 25, 27, -26};
Plane Surface(15) = {15};
Curve Loop(16) = {-28, 21, 26, -29};
Plane Surface(16) = {16};
Curve Loop(17) = {-22, 23, 30, -28, -15, -18};
Plane Surface(17) = {17};
Curve Loop(18) = {-24, 30, 29, -27};
Plane Surface(18) = {18};
Surface Loop(1) = {13, 14, 15, 16, 17, 18, 7, 10, 8, 11};
Volume(1) = {1};
Surface Loop(2) = {7, 8, 9};
Volume(2) = {2};
Surface Loop(3) = {10, 11, 12};
Volume(3) = {3};
Physical Surface("WALLS") = {13, 18};
Physical Surface("LOAD") = {8, 11};
Physical Surface("BORDER") = {7, 9, 10, 12, 14, 15, 16, 17};
Physical Volume("SOLID") = {1, 2, 3};
