cl__1 = 0.124195;
cl__2 = 0.056997;
cl__3 = 1.808096;
cl__4 = 1.533517;
cl__5 = 0.745632;
cl__6 = 0.882929;
Point(9) = {17.404617, 2.153471999999999, 0.1, cl__1};
Point(10) = {17.404617, 2.153471999999999, 0, cl__1};
Point(11) = {20.700171, -1.332522, 0.1, cl__2};
Point(12) = {20.700171, -1.332522, 0, cl__2};
Point(13) = {0.254723, -4.198184, 1, cl__3};
Point(14) = {0.254723, -4.198184, 0, cl__3};
Point(15) = {0.254723, 5.615754, 1, cl__4};
Point(16) = {0.254723, 5.615754, 0, cl__4};
Point(17) = {30.016913, -4.198184, 0, cl__5};
Point(18) = {30.016913, -4.198184, 1, cl__5};
Point(19) = {30.016913, 5.615754, 1, cl__6};
Point(20) = {30.016913, 5.615754, 0, cl__6};
p13 = newp;
Point(p13 + 1) = {17.38932653460213, 2.347755783856714, 0.1};
Point(p13 + 2) = {17.34383164041277, 2.537255656163966, 0.1};
Point(p13 + 3) = {17.26925255271574, 2.71730550115153, 0.1};
Point(p13 + 4) = {17.16742565616396, 2.883471894084637, 0.1};
Point(p13 + 5) = {17.04085826689463, 3.031663266894633, 0.1};
Point(p13 + 6) = {16.89266689408464, 3.158230656163965, 0.1};
Point(p13 + 7) = {16.72650050115153, 3.260057552715743, 0.1};
Point(p13 + 8) = {16.54645065616397, 3.334636640412766, 0.1};
Point(p13 + 9) = {16.35695078385671, 3.380131534602131, 0.1};
Point(p13 + 10) = {16.162667, 3.395422, 0.1};
Point(p13 + 11) = {15.96838321614328, 3.380131534602131, 0.1};
Point(p13 + 12) = {15.77888334383603, 3.334636640412766, 0.1};
Point(p13 + 13) = {15.59883349884847, 3.260057552715743, 0.1};
Point(p13 + 14) = {15.43266710591536, 3.158230656163966, 0.1};
Point(p13 + 15) = {15.28447573310537, 3.031663266894633, 0.1};
Point(p13 + 16) = {15.15790834383603, 2.883471894084637, 0.1};
Point(p13 + 17) = {15.05608144728425, 2.71730550115153, 0.1};
Point(p13 + 18) = {14.98150235958723, 2.537255656163966, 0.1};
Point(p13 + 19) = {14.93600746539787, 2.347755783856715, 0.1};
Point(p13 + 20) = {14.920717, 2.153472, 0.1};
Point(p13 + 21) = {14.93600746539787, 1.959188216143285, 0.1};
Point(p13 + 22) = {14.98150235958723, 1.769688343836033, 0.1};
Point(p13 + 23) = {15.05608144728425, 1.58963849884847, 0.1};
Point(p13 + 24) = {15.15790834383603, 1.423472105915363, 0.1};
Point(p13 + 25) = {15.28447573310537, 1.275280733105367, 0.1};
Point(p13 + 26) = {15.43266710591536, 1.148713343836034, 0.1};
Point(p13 + 27) = {15.59883349884847, 1.046886447284256, 0.1};
Point(p13 + 28) = {15.77888334383603, 0.9723073595872338, 0.1};
Point(p13 + 29) = {15.96838321614328, 0.9268124653978684, 0.1};
Point(p13 + 30) = {16.162667, 0.9115219999999997, 0.1};
Point(p13 + 31) = {16.35695078385671, 0.9268124653978684, 0.1};
Point(p13 + 32) = {16.54645065616397, 0.9723073595872336, 0.1};
Point(p13 + 33) = {16.72650050115153, 1.046886447284256, 0.1};
Point(p13 + 34) = {16.89266689408463, 1.148713343836034, 0.1};
Point(p13 + 35) = {17.04085826689463, 1.275280733105367, 0.1};
Point(p13 + 36) = {17.16742565616396, 1.423472105915363, 0.1};
Point(p13 + 37) = {17.26925255271574, 1.58963849884847, 0.1};
Point(p13 + 38) = {17.34383164041277, 1.769688343836034, 0.1};
Point(p13 + 39) = {17.38932653460213, 1.959188216143285, 0.1};
Spline(13) = {9, p13 + 1, p13 + 2, p13 + 3, p13 + 4, p13 + 5, p13 + 6, p13 + 7, p13 + 8, p13 + 9, p13 + 10, p13 + 11, p13 + 12, p13 + 13, p13 + 14, p13 + 15, p13 + 16, p13 + 17, p13 + 18, p13 + 19, p13 + 20, p13 + 21, p13 + 22, p13 + 23, p13 + 24, p13 + 25, p13 + 26, p13 + 27, p13 + 28, p13 + 29, p13 + 30, p13 + 31, p13 + 32, p13 + 33, p13 + 34, p13 + 35, p13 + 36, p13 + 37, p13 + 38, p13 + 39, 9};
Line(14) = {10, 9};
p15 = newp;
Point(p15 + 1) = {17.38932653460213, 2.347755783856714, 0};
Point(p15 + 2) = {17.34383164041277, 2.537255656163966, 0};
Point(p15 + 3) = {17.26925255271574, 2.71730550115153, 0};
Point(p15 + 4) = {17.16742565616396, 2.883471894084637, 0};
Point(p15 + 5) = {17.04085826689463, 3.031663266894633, 0};
Point(p15 + 6) = {16.89266689408464, 3.158230656163965, 0};
Point(p15 + 7) = {16.72650050115153, 3.260057552715743, 0};
Point(p15 + 8) = {16.54645065616397, 3.334636640412766, 0};
Point(p15 + 9) = {16.35695078385671, 3.380131534602131, 0};
Point(p15 + 10) = {16.162667, 3.395422, 0};
Point(p15 + 11) = {15.96838321614328, 3.380131534602131, 0};
Point(p15 + 12) = {15.77888334383603, 3.334636640412766, 0};
Point(p15 + 13) = {15.59883349884847, 3.260057552715743, 0};
Point(p15 + 14) = {15.43266710591536, 3.158230656163966, 0};
Point(p15 + 15) = {15.28447573310537, 3.031663266894633, 0};
Point(p15 + 16) = {15.15790834383603, 2.883471894084637, 0};
Point(p15 + 17) = {15.05608144728425, 2.71730550115153, 0};
Point(p15 + 18) = {14.98150235958723, 2.537255656163966, 0};
Point(p15 + 19) = {14.93600746539787, 2.347755783856715, 0};
Point(p15 + 20) = {14.920717, 2.153472, 0};
Point(p15 + 21) = {14.93600746539787, 1.959188216143285, 0};
Point(p15 + 22) = {14.98150235958723, 1.769688343836033, 0};
Point(p15 + 23) = {15.05608144728425, 1.58963849884847, 0};
Point(p15 + 24) = {15.15790834383603, 1.423472105915363, 0};
Point(p15 + 25) = {15.28447573310537, 1.275280733105367, 0};
Point(p15 + 26) = {15.43266710591536, 1.148713343836034, 0};
Point(p15 + 27) = {15.59883349884847, 1.046886447284256, 0};
Point(p15 + 28) = {15.77888334383603, 0.9723073595872338, 0};
Point(p15 + 29) = {15.96838321614328, 0.9268124653978684, 0};
Point(p15 + 30) = {16.162667, 0.9115219999999997, 0};
Point(p15 + 31) = {16.35695078385671, 0.9268124653978684, 0};
Point(p15 + 32) = {16.54645065616397, 0.9723073595872336, 0};
Point(p15 + 33) = {16.72650050115153, 1.046886447284256, 0};
Point(p15 + 34) = {16.89266689408463, 1.148713343836034, 0};
Point(p15 + 35) = {17.04085826689463, 1.275280733105367, 0};
Point(p15 + 36) = {17.16742565616396, 1.423472105915363, 0};
Point(p15 + 37) = {17.26925255271574, 1.58963849884847, 0};
Point(p15 + 38) = {17.34383164041277, 1.769688343836034, 0};
Point(p15 + 39) = {17.38932653460213, 1.959188216143285, 0};
Spline(15) = {10, p15 + 1, p15 + 2, p15 + 3, p15 + 4, p15 + 5, p15 + 6, p15 + 7, p15 + 8, p15 + 9, p15 + 10, p15 + 11, p15 + 12, p15 + 13, p15 + 14, p15 + 15, p15 + 16, p15 + 17, p15 + 18, p15 + 19, p15 + 20, p15 + 21, p15 + 22, p15 + 23, p15 + 24, p15 + 25, p15 + 26, p15 + 27, p15 + 28, p15 + 29, p15 + 30, p15 + 31, p15 + 32, p15 + 33, p15 + 34, p15 + 35, p15 + 36, p15 + 37, p15 + 38, p15 + 39, 10};
p16 = newp;
Point(p16 + 1) = {20.69315367424237, -1.24335842222316, 0.1};
Point(p16 + 2) = {20.67227448681881, -1.156390347648134, 0.1};
Point(p16 + 3) = {20.63804755261774, -1.073759218901452, 0.1};
Point(p16 + 4) = {20.59131565235187, -0.9974996886098499, 0.1};
Point(p16 + 5) = {20.53322948050002, -0.9294895194999788, 0.1};
Point(p16 + 6) = {20.46521931139015, -0.8714033476481338, 0.1};
Point(p16 + 7) = {20.38895978109855, -0.8246714473822593, 0.1};
Point(p16 + 8) = {20.30632865235187, -0.7904445131811861, 0.1};
Point(p16 + 9) = {20.21936057777684, -0.7695653257576269, 0.1};
Point(p16 + 10) = {20.130197, -0.762548, 0.1};
Point(p16 + 11) = {20.04103342222316, -0.769565325757627, 0.1};
Point(p16 + 12) = {19.95406534764813, -0.7904445131811861, 0.1};
Point(p16 + 13) = {19.87143421890145, -0.8246714473822592, 0.1};
Point(p16 + 14) = {19.79517468860985, -0.8714033476481338, 0.1};
Point(p16 + 15) = {19.72716451949998, -0.9294895194999787, 0.1};
Point(p16 + 16) = {19.66907834764813, -0.9974996886098498, 0.1};
Point(p16 + 17) = {19.62234644738226, -1.073759218901452, 0.1};
Point(p16 + 18) = {19.58811951318118, -1.156390347648134, 0.1};
Point(p16 + 19) = {19.56724032575763, -1.243358422223159, 0.1};
Point(p16 + 20) = {19.560223, -1.332522, 0.1};
Point(p16 + 21) = {19.56724032575763, -1.42168557777684, 0.1};
Point(p16 + 22) = {19.58811951318118, -1.508653652351867, 0.1};
Point(p16 + 23) = {19.62234644738226, -1.591284781098548, 0.1};
Point(p16 + 24) = {19.66907834764813, -1.66754431139015, 0.1};
Point(p16 + 25) = {19.72716451949998, -1.735554480500021, 0.1};
Point(p16 + 26) = {19.79517468860985, -1.793640652351866, 0.1};
Point(p16 + 27) = {19.87143421890145, -1.840372552617741, 0.1};
Point(p16 + 28) = {19.95406534764813, -1.874599486818814, 0.1};
Point(p16 + 29) = {20.04103342222316, -1.895478674242373, 0.1};
Point(p16 + 30) = {20.130197, -1.902496, 0.1};
Point(p16 + 31) = {20.21936057777684, -1.895478674242373, 0.1};
Point(p16 + 32) = {20.30632865235187, -1.874599486818814, 0.1};
Point(p16 + 33) = {20.38895978109855, -1.840372552617741, 0.1};
Point(p16 + 34) = {20.46521931139015, -1.793640652351866, 0.1};
Point(p16 + 35) = {20.53322948050002, -1.735554480500021, 0.1};
Point(p16 + 36) = {20.59131565235187, -1.66754431139015, 0.1};
Point(p16 + 37) = {20.63804755261774, -1.591284781098548, 0.1};
Point(p16 + 38) = {20.67227448681881, -1.508653652351866, 0.1};
Point(p16 + 39) = {20.69315367424237, -1.421685577776841, 0.1};
Spline(16) = {11, p16 + 1, p16 + 2, p16 + 3, p16 + 4, p16 + 5, p16 + 6, p16 + 7, p16 + 8, p16 + 9, p16 + 10, p16 + 11, p16 + 12, p16 + 13, p16 + 14, p16 + 15, p16 + 16, p16 + 17, p16 + 18, p16 + 19, p16 + 20, p16 + 21, p16 + 22, p16 + 23, p16 + 24, p16 + 25, p16 + 26, p16 + 27, p16 + 28, p16 + 29, p16 + 30, p16 + 31, p16 + 32, p16 + 33, p16 + 34, p16 + 35, p16 + 36, p16 + 37, p16 + 38, p16 + 39, 11};
Line(17) = {12, 11};
p18 = newp;
Point(p18 + 1) = {20.69315367424237, -1.24335842222316, 0};
Point(p18 + 2) = {20.67227448681881, -1.156390347648134, 0};
Point(p18 + 3) = {20.63804755261774, -1.073759218901452, 0};
Point(p18 + 4) = {20.59131565235187, -0.9974996886098499, 0};
Point(p18 + 5) = {20.53322948050002, -0.9294895194999788, 0};
Point(p18 + 6) = {20.46521931139015, -0.8714033476481338, 0};
Point(p18 + 7) = {20.38895978109855, -0.8246714473822593, 0};
Point(p18 + 8) = {20.30632865235187, -0.7904445131811861, 0};
Point(p18 + 9) = {20.21936057777684, -0.7695653257576269, 0};
Point(p18 + 10) = {20.130197, -0.762548, 0};
Point(p18 + 11) = {20.04103342222316, -0.769565325757627, 0};
Point(p18 + 12) = {19.95406534764813, -0.7904445131811861, 0};
Point(p18 + 13) = {19.87143421890145, -0.8246714473822592, 0};
Point(p18 + 14) = {19.79517468860985, -0.8714033476481338, 0};
Point(p18 + 15) = {19.72716451949998, -0.9294895194999787, 0};
Point(p18 + 16) = {19.66907834764813, -0.9974996886098498, 0};
Point(p18 + 17) = {19.62234644738226, -1.073759218901452, 0};
Point(p18 + 18) = {19.58811951318118, -1.156390347648134, 0};
Point(p18 + 19) = {19.56724032575763, -1.243358422223159, 0};
Point(p18 + 20) = {19.560223, -1.332522, 0};
Point(p18 + 21) = {19.56724032575763, -1.42168557777684, 0};
Point(p18 + 22) = {19.58811951318118, -1.508653652351867, 0};
Point(p18 + 23) = {19.62234644738226, -1.591284781098548, 0};
Point(p18 + 24) = {19.66907834764813, -1.66754431139015, 0};
Point(p18 + 25) = {19.72716451949998, -1.735554480500021, 0};
Point(p18 + 26) = {19.79517468860985, -1.793640652351866, 0};
Point(p18 + 27) = {19.87143421890145, -1.840372552617741, 0};
Point(p18 + 28) = {19.95406534764813, -1.874599486818814, 0};
Point(p18 + 29) = {20.04103342222316, -1.895478674242373, 0};
Point(p18 + 30) = {20.130197, -1.902496, 0};
Point(p18 + 31) = {20.21936057777684, -1.895478674242373, 0};
Point(p18 + 32) = {20.30632865235187, -1.874599486818814, 0};
Point(p18 + 33) = {20.38895978109855, -1.840372552617741, 0};
Point(p18 + 34) = {20.46521931139015, -1.793640652351866, 0};
Point(p18 + 35) = {20.53322948050002, -1.735554480500021, 0};
Point(p18 + 36) = {20.59131565235187, -1.66754431139015, 0};
Point(p18 + 37) = {20.63804755261774, -1.591284781098548, 0};
Point(p18 + 38) = {20.67227448681881, -1.508653652351866, 0};
Point(p18 + 39) = {20.69315367424237, -1.421685577776841, 0};
Spline(18) = {12, p18 + 1, p18 + 2, p18 + 3, p18 + 4, p18 + 5, p18 + 6, p18 + 7, p18 + 8, p18 + 9, p18 + 10, p18 + 11, p18 + 12, p18 + 13, p18 + 14, p18 + 15, p18 + 16, p18 + 17, p18 + 18, p18 + 19, p18 + 20, p18 + 21, p18 + 22, p18 + 23, p18 + 24, p18 + 25, p18 + 26, p18 + 27, p18 + 28, p18 + 29, p18 + 30, p18 + 31, p18 + 32, p18 + 33, p18 + 34, p18 + 35, p18 + 36, p18 + 37, p18 + 38, p18 + 39, 12};
Line(19) = {14, 13};
Line(20) = {13, 15};
Line(21) = {16, 15};
Line(22) = {14, 16};
Line(23) = {14, 17};
Line(24) = {17, 18};
Line(25) = {13, 18};
Line(26) = {15, 19};
Line(27) = {18, 19};
Line(28) = {16, 20};
Line(29) = {20, 19};
Line(30) = {17, 20};
Curve Loop(7) = {-13, -14, 15, 14};
Surface(7) = {7};
Curve Loop(8) = {13};
Plane Surface(8) = {8};
Curve Loop(9) = {15};
Plane Surface(9) = {9};
Curve Loop(10) = {-16, -17, 18, 17};
Surface(10) = {10};
Curve Loop(11) = {16};
Plane Surface(11) = {11};
Curve Loop(12) = {18};
Plane Surface(12) = {12};
Curve Loop(13) = {-19, 22, 21, -20};
Plane Surface(13) = {13};
Curve Loop(14) = {-23, 19, 25, -24};
Plane Surface(14) = {14};
Curve Loop(15) = {-20, 25, 27, -26};
Plane Surface(15) = {15};
Curve Loop(16) = {-28, 21, 26, -29};
Plane Surface(16) = {16};
Curve Loop(17) = {-22, 23, 30, -28, -18, -15};
Plane Surface(17) = {17};
Curve Loop(18) = {-24, 30, 29, -27};
Plane Surface(18) = {18};
Surface Loop(1) = {13, 14, 15, 16, 17, 18, 10, 7, 11, 8};
Volume(1) = {1};
Surface Loop(2) = {7, 8, 9};
Volume(2) = {2};
Surface Loop(3) = {10, 11, 12};
Volume(3) = {3};
Physical Surface("WALLS") = {13, 18};
Physical Surface("LOAD") = {8, 11};
Physical Surface("BORDER") = {7, 9, 10, 12, 14, 15, 16, 17};
Physical Volume("SOLID") = {1, 2, 3};
