cl__1 = 0.054161;
cl__2 = 0.148978;
cl__3 = 1.940185;
cl__4 = 1.296162;
cl__5 = 0.842282;
cl__6 = 0.820167;
Point(9) = {14.391058, 3.083582, 0.1, cl__1};
Point(10) = {14.391058, 3.083582, 0, cl__1};
Point(11) = {28.632093, 0.4430539999999997, 0.1, cl__2};
Point(12) = {28.632093, 0.4430539999999997, 0, cl__2};
Point(13) = {0.113211, -4.664897, 1, cl__3};
Point(14) = {0.113211, -4.664897, 0, cl__3};
Point(15) = {0.113211, 4.89331, 1, cl__4};
Point(16) = {0.113211, 4.89331, 0, cl__4};
Point(17) = {37.75113, -4.664897, 0, cl__5};
Point(18) = {37.75113, -4.664897, 1, cl__5};
Point(19) = {37.75113, 4.89331, 1, cl__6};
Point(20) = {37.75113, 4.89331, 0, cl__6};
p13 = newp;
Point(p13 + 1) = {14.38438986983807, 3.168308627044904, 0.1};
Point(p13 + 2) = {14.36454967084713, 3.25094900334041, 0.1};
Point(p13 + 3) = {14.33202593457219, 3.329468248554436, 0.1};
Point(p13 + 4) = {14.28761950334041, 3.401932958279378, 0.1};
Point(p13 + 5) = {14.23242381086523, 3.466558810865227, 0.1};
Point(p13 + 6) = {14.16779795827938, 3.521754503340409, 0.1};
Point(p13 + 7) = {14.09533324855444, 3.566160934572186, 0.1};
Point(p13 + 8) = {14.01681400334041, 3.598684670847134, 0.1};
Point(p13 + 9) = {13.9341736270449, 3.618524869838073, 0.1};
Point(p13 + 10) = {13.849447, 3.625193, 0.1};
Point(p13 + 11) = {13.76472037295509, 3.618524869838073, 0.1};
Point(p13 + 12) = {13.68207999665959, 3.598684670847134, 0.1};
Point(p13 + 13) = {13.60356075144556, 3.566160934572186, 0.1};
Point(p13 + 14) = {13.53109604172062, 3.521754503340409, 0.1};
Point(p13 + 15) = {13.46647018913477, 3.466558810865227, 0.1};
Point(p13 + 16) = {13.41127449665959, 3.401932958279378, 0.1};
Point(p13 + 17) = {13.36686806542781, 3.329468248554436, 0.1};
Point(p13 + 18) = {13.33434432915286, 3.25094900334041, 0.1};
Point(p13 + 19) = {13.31450413016193, 3.168308627044905, 0.1};
Point(p13 + 20) = {13.307836, 3.083582, 0.1};
Point(p13 + 21) = {13.31450413016193, 2.998855372955096, 0.1};
Point(p13 + 22) = {13.33434432915286, 2.91621499665959, 0.1};
Point(p13 + 23) = {13.36686806542781, 2.837695751445565, 0.1};
Point(p13 + 24) = {13.41127449665959, 2.765231041720621, 0.1};
Point(p13 + 25) = {13.46647018913477, 2.700605189134773, 0.1};
Point(p13 + 26) = {13.53109604172062, 2.64540949665959, 0.1};
Point(p13 + 27) = {13.60356075144556, 2.601003065427814, 0.1};
Point(p13 + 28) = {13.68207999665959, 2.568479329152865, 0.1};
Point(p13 + 29) = {13.76472037295509, 2.548639130161927, 0.1};
Point(p13 + 30) = {13.849447, 2.541971, 0.1};
Point(p13 + 31) = {13.9341736270449, 2.548639130161927, 0.1};
Point(p13 + 32) = {14.01681400334041, 2.568479329152865, 0.1};
Point(p13 + 33) = {14.09533324855444, 2.601003065427814, 0.1};
Point(p13 + 34) = {14.16779795827938, 2.64540949665959, 0.1};
Point(p13 + 35) = {14.23242381086523, 2.700605189134773, 0.1};
Point(p13 + 36) = {14.28761950334041, 2.765231041720621, 0.1};
Point(p13 + 37) = {14.33202593457219, 2.837695751445564, 0.1};
Point(p13 + 38) = {14.36454967084713, 2.91621499665959, 0.1};
Point(p13 + 39) = {14.38438986983807, 2.998855372955095, 0.1};
Spline(13) = {9, p13 + 1, p13 + 2, p13 + 3, p13 + 4, p13 + 5, p13 + 6, p13 + 7, p13 + 8, p13 + 9, p13 + 10, p13 + 11, p13 + 12, p13 + 13, p13 + 14, p13 + 15, p13 + 16, p13 + 17, p13 + 18, p13 + 19, p13 + 20, p13 + 21, p13 + 22, p13 + 23, p13 + 24, p13 + 25, p13 + 26, p13 + 27, p13 + 28, p13 + 29, p13 + 30, p13 + 31, p13 + 32, p13 + 33, p13 + 34, p13 + 35, p13 + 36, p13 + 37, p13 + 38, p13 + 39, 9};
Line(14) = {10, 9};
p15 = newp;
Point(p15 + 1) = {14.38438986983807, 3.168308627044904, 0};
Point(p15 + 2) = {14.36454967084713, 3.25094900334041, 0};
Point(p15 + 3) = {14.33202593457219, 3.329468248554436, 0};
Point(p15 + 4) = {14.28761950334041, 3.401932958279378, 0};
Point(p15 + 5) = {14.23242381086523, 3.466558810865227, 0};
Point(p15 + 6) = {14.16779795827938, 3.521754503340409, 0};
Point(p15 + 7) = {14.09533324855444, 3.566160934572186, 0};
Point(p15 + 8) = {14.01681400334041, 3.598684670847134, 0};
Point(p15 + 9) = {13.9341736270449, 3.618524869838073, 0};
Point(p15 + 10) = {13.849447, 3.625193, 0};
Point(p15 + 11) = {13.76472037295509, 3.618524869838073, 0};
Point(p15 + 12) = {13.68207999665959, 3.598684670847134, 0};
Point(p15 + 13) = {13.60356075144556, 3.566160934572186, 0};
Point(p15 + 14) = {13.53109604172062, 3.521754503340409, 0};
Point(p15 + 15) = {13.46647018913477, 3.466558810865227, 0};
Point(p15 + 16) = {13.41127449665959, 3.401932958279378, 0};
Point(p15 + 17) = {13.36686806542781, 3.329468248554436, 0};
Point(p15 + 18) = {13.33434432915286, 3.25094900334041, 0};
Point(p15 + 19) = {13.31450413016193, 3.168308627044905, 0};
Point(p15 + 20) = {13.307836, 3.083582, 0};
Point(p15 + 21) = {13.31450413016193, 2.998855372955096, 0};
Point(p15 + 22) = {13.33434432915286, 2.91621499665959, 0};
Point(p15 + 23) = {13.36686806542781, 2.837695751445565, 0};
Point(p15 + 24) = {13.41127449665959, 2.765231041720621, 0};
Point(p15 + 25) = {13.46647018913477, 2.700605189134773, 0};
Point(p15 + 26) = {13.53109604172062, 2.64540949665959, 0};
Point(p15 + 27) = {13.60356075144556, 2.601003065427814, 0};
Point(p15 + 28) = {13.68207999665959, 2.568479329152865, 0};
Point(p15 + 29) = {13.76472037295509, 2.548639130161927, 0};
Point(p15 + 30) = {13.849447, 2.541971, 0};
Point(p15 + 31) = {13.9341736270449, 2.548639130161927, 0};
Point(p15 + 32) = {14.01681400334041, 2.568479329152865, 0};
Point(p15 + 33) = {14.09533324855444, 2.601003065427814, 0};
Point(p15 + 34) = {14.16779795827938, 2.64540949665959, 0};
Point(p15 + 35) = {14.23242381086523, 2.700605189134773, 0};
Point(p15 + 36) = {14.28761950334041, 2.765231041720621, 0};
Point(p15 + 37) = {14.33202593457219, 2.837695751445564, 0};
Point(p15 + 38) = {14.36454967084713, 2.91621499665959, 0};
Point(p15 + 39) = {14.38438986983807, 2.998855372955095, 0};
Spline(15) = {10, p15 + 1, p15 + 2, p15 + 3, p15 + 4, p15 + 5, p15 + 6, p15 + 7, p15 + 8, p15 + 9, p15 + 10, p15 + 11, p15 + 12, p15 + 13, p15 + 14, p15 + 15, p15 + 16, p15 + 17, p15 + 18, p15 + 19, p15 + 20, p15 + 21, p15 + 22, p15 + 23, p15 + 24, p15 + 25, p15 + 26, p15 + 27, p15 + 28, p15 + 29, p15 + 30, p15 + 31, p15 + 32, p15 + 33, p15 + 34, p15 + 35, p15 + 36, p15 + 37, p15 + 38, p15 + 39, 10};
p16 = newp;
Point(p16 + 1) = {28.61375138529846, 0.676106311589775, 0.1};
Point(p16 + 2) = {28.55917817262013, 0.9034201018119317, 0.1};
Point(p16 + 3) = {28.46971713557925, 1.119398150739983, 0.1};
Point(p16 + 4) = {28.34757110181193, 1.318722362019271, 0.1};
Point(p16 + 5) = {28.19574771204897, 1.49648471204897, 0.1};
Point(p16 + 6) = {28.01798536201927, 1.648308101811932, 0.1};
Point(p16 + 7) = {27.81866115073998, 1.77045413557925, 0.1};
Point(p16 + 8) = {27.60268310181193, 1.859915172620129, 0.1};
Point(p16 + 9) = {27.37536931158977, 1.914488385298462, 0.1};
Point(p16 + 10) = {27.142317, 1.93283, 0.1};
Point(p16 + 11) = {26.90926468841022, 1.914488385298462, 0.1};
Point(p16 + 12) = {26.68195089818807, 1.859915172620129, 0.1};
Point(p16 + 13) = {26.46597284926002, 1.77045413557925, 0.1};
Point(p16 + 14) = {26.26664863798073, 1.648308101811932, 0.1};
Point(p16 + 15) = {26.08888628795103, 1.49648471204897, 0.1};
Point(p16 + 16) = {25.93706289818807, 1.318722362019272, 0.1};
Point(p16 + 17) = {25.81491686442075, 1.119398150739983, 0.1};
Point(p16 + 18) = {25.72545582737987, 0.9034201018119318, 0.1};
Point(p16 + 19) = {25.67088261470154, 0.6761063115897752, 0.1};
Point(p16 + 20) = {25.652541, 0.4430540000000002, 0.1};
Point(p16 + 21) = {25.67088261470154, 0.2100016884102252, 0.1};
Point(p16 + 22) = {25.72545582737987, -0.0173121018119321, 0.1};
Point(p16 + 23) = {25.81491686442075, -0.2332901507399823, 0.1};
Point(p16 + 24) = {25.93706289818807, -0.4326143620192713, 0.1};
Point(p16 + 25) = {26.08888628795103, -0.6103767120489698, 0.1};
Point(p16 + 26) = {26.26664863798073, -0.7622001018119315, 0.1};
Point(p16 + 27) = {26.46597284926002, -0.8843461355792497, 0.1};
Point(p16 + 28) = {26.68195089818807, -0.9738071726201285, 0.1};
Point(p16 + 29) = {26.90926468841022, -1.028380385298462, 0.1};
Point(p16 + 30) = {27.142317, -1.046722, 0.1};
Point(p16 + 31) = {27.37536931158977, -1.028380385298462, 0.1};
Point(p16 + 32) = {27.60268310181193, -0.9738071726201287, 0.1};
Point(p16 + 33) = {27.81866115073998, -0.8843461355792501, 0.1};
Point(p16 + 34) = {28.01798536201927, -0.7622001018119318, 0.1};
Point(p16 + 35) = {28.19574771204897, -0.6103767120489703, 0.1};
Point(p16 + 36) = {28.34757110181193, -0.4326143620192717, 0.1};
Point(p16 + 37) = {28.46971713557925, -0.2332901507399833, 0.1};
Point(p16 + 38) = {28.55917817262013, -0.01731210181193193, 0.1};
Point(p16 + 39) = {28.61375138529846, 0.2100016884102247, 0.1};
Spline(16) = {11, p16 + 1, p16 + 2, p16 + 3, p16 + 4, p16 + 5, p16 + 6, p16 + 7, p16 + 8, p16 + 9, p16 + 10, p16 + 11, p16 + 12, p16 + 13, p16 + 14, p16 + 15, p16 + 16, p16 + 17, p16 + 18, p16 + 19, p16 + 20, p16 + 21, p16 + 22, p16 + 23, p16 + 24, p16 + 25, p16 + 26, p16 + 27, p16 + 28, p16 + 29, p16 + 30, p16 + 31, p16 + 32, p16 + 33, p16 + 34, p16 + 35, p16 + 36, p16 + 37, p16 + 38, p16 + 39, 11};
Line(17) = {12, 11};
p18 = newp;
Point(p18 + 1) = {28.61375138529846, 0.676106311589775, 0};
Point(p18 + 2) = {28.55917817262013, 0.9034201018119317, 0};
Point(p18 + 3) = {28.46971713557925, 1.119398150739983, 0};
Point(p18 + 4) = {28.34757110181193, 1.318722362019271, 0};
Point(p18 + 5) = {28.19574771204897, 1.49648471204897, 0};
Point(p18 + 6) = {28.01798536201927, 1.648308101811932, 0};
Point(p18 + 7) = {27.81866115073998, 1.77045413557925, 0};
Point(p18 + 8) = {27.60268310181193, 1.859915172620129, 0};
Point(p18 + 9) = {27.37536931158977, 1.914488385298462, 0};
Point(p18 + 10) = {27.142317, 1.93283, 0};
Point(p18 + 11) = {26.90926468841022, 1.914488385298462, 0};
Point(p18 + 12) = {26.68195089818807, 1.859915172620129, 0};
Point(p18 + 13) = {26.46597284926002, 1.77045413557925, 0};
Point(p18 + 14) = {26.26664863798073, 1.648308101811932, 0};
Point(p18 + 15) = {26.08888628795103, 1.49648471204897, 0};
Point(p18 + 16) = {25.93706289818807, 1.318722362019272, 0};
Point(p18 + 17) = {25.81491686442075, 1.119398150739983, 0};
Point(p18 + 18) = {25.72545582737987, 0.9034201018119318, 0};
Point(p18 + 19) = {25.67088261470154, 0.6761063115897752, 0};
Point(p18 + 20) = {25.652541, 0.4430540000000002, 0};
Point(p18 + 21) = {25.67088261470154, 0.2100016884102252, 0};
Point(p18 + 22) = {25.72545582737987, -0.0173121018119321, 0};
Point(p18 + 23) = {25.81491686442075, -0.2332901507399823, 0};
Point(p18 + 24) = {25.93706289818807, -0.4326143620192713, 0};
Point(p18 + 25) = {26.08888628795103, -0.6103767120489698, 0};
Point(p18 + 26) = {26.26664863798073, -0.7622001018119315, 0};
Point(p18 + 27) = {26.46597284926002, -0.8843461355792497, 0};
Point(p18 + 28) = {26.68195089818807, -0.9738071726201285, 0};
Point(p18 + 29) = {26.90926468841022, -1.028380385298462, 0};
Point(p18 + 30) = {27.142317, -1.046722, 0};
Point(p18 + 31) = {27.37536931158977, -1.028380385298462, 0};
Point(p18 + 32) = {27.60268310181193, -0.9738071726201287, 0};
Point(p18 + 33) = {27.81866115073998, -0.8843461355792501, 0};
Point(p18 + 34) = {28.01798536201927, -0.7622001018119318, 0};
Point(p18 + 35) = {28.19574771204897, -0.6103767120489703, 0};
Point(p18 + 36) = {28.34757110181193, -0.4326143620192717, 0};
Point(p18 + 37) = {28.46971713557925, -0.2332901507399833, 0};
Point(p18 + 38) = {28.55917817262013, -0.01731210181193193, 0};
Point(p18 + 39) = {28.61375138529846, 0.2100016884102247, 0};
Spline(18) = {12, p18 + 1, p18 + 2, p18 + 3, p18 + 4, p18 + 5, p18 + 6, p18 + 7, p18 + 8, p18 + 9, p18 + 10, p18 + 11, p18 + 12, p18 + 13, p18 + 14, p18 + 15, p18 + 16, p18 + 17, p18 + 18, p18 + 19, p18 + 20, p18 + 21, p18 + 22, p18 + 23, p18 + 24, p18 + 25, p18 + 26, p18 + 27, p18 + 28, p18 + 29, p18 + 30, p18 + 31, p18 + 32, p18 + 33, p18 + 34, p18 + 35, p18 + 36, p18 + 37, p18 + 38, p18 + 39, 12};
Line(19) = {14, 13};
Line(20) = {13, 15};
Line(21) = {16, 15};
Line(22) = {14, 16};
Line(23) = {14, 17};
Line(24) = {17, 18};
Line(25) = {13, 18};
Line(26) = {15, 19};
Line(27) = {18, 19};
Line(28) = {16, 20};
Line(29) = {20, 19};
Line(30) = {17, 20};
Curve Loop(7) = {-13, -14, 15, 14};
Surface(7) = {7};
Curve Loop(8) = {13};
Plane Surface(8) = {8};
Curve Loop(9) = {15};
Plane Surface(9) = {9};
Curve Loop(10) = {-16, -17, 18, 17};
Surface(10) = {10};
Curve Loop(11) = {16};
Plane Surface(11) = {11};
Curve Loop(12) = {18};
Plane Surface(12) = {12};
Curve Loop(13) = {-19, 22, 21, -20};
Plane Surface(13) = {13};
Curve Loop(14) = {-23, 19, 25, -24};
Plane Surface(14) = {14};
Curve Loop(15) = {-20, 25, 27, -26};
Plane Surface(15) = {15};
Curve Loop(16) = {-28, 21, 26, -29};
Plane Surface(16) = {16};
Curve Loop(17) = {-22, 23, 30, -28, -18, -15};
Plane Surface(17) = {17};
Curve Loop(18) = {-24, 30, 29, -27};
Plane Surface(18) = {18};
Surface Loop(1) = {13, 14, 15, 16, 17, 18, 10, 7, 11, 8};
Volume(1) = {1};
Surface Loop(2) = {7, 8, 9};
Volume(2) = {2};
Surface Loop(3) = {10, 11, 12};
Volume(3) = {3};
Physical Surface("WALLS") = {13, 18};
Physical Surface("LOAD") = {8, 11};
Physical Surface("BORDER") = {7, 9, 10, 12, 14, 15, 16, 17};
Physical Volume("SOLID") = {1, 2, 3};
