cl__1 = 0.1194;
cl__2 = 0.064557;
cl__3 = 1.888724;
cl__4 = 2.875348;
cl__5 = 0.565639;
cl__6 = 0.776262;
Point(9) = {33.99776, -0.5452460000000003, 0.1, cl__1};
Point(10) = {33.99776, -0.5452460000000003, 0, cl__1};
Point(11) = {11.674443, -1.211658, 0.1, cl__2};
Point(12) = {11.674443, -1.211658, 0, cl__2};
Point(13) = {0.316661, -4.121761, 1, cl__3};
Point(14) = {0.316661, -4.121761, 0, cl__3};
Point(15) = {0.316661, 5.559197, 1, cl__4};
Point(16) = {0.316661, 5.559197, 0, cl__4};
Point(17) = {37.59401800000001, -4.121761, 0, cl__5};
Point(18) = {37.59401800000001, -4.121761, 1, cl__5};
Point(19) = {37.59401800000001, 5.559197, 1, cl__6};
Point(20) = {37.59401800000001, 5.559197, 0, cl__6};
p13 = newp;
Point(p13 + 1) = {33.98305986635894, -0.3584630923074993, 0.1};
Point(p13 + 2) = {33.93932143151293, -0.1762793996993184, 0.1};
Point(p13 + 3) = {33.86762168088744, -0.003180889320481439, 0.1};
Point(p13 + 4) = {33.76972610030068, 0.1565701790224653, 0.1};
Point(p13 + 5) = {33.64804520384352, 0.2990402038435189, 0.1};
Point(p13 + 6) = {33.50557517902246, 0.4207211003006815, 0.1};
Point(p13 + 7) = {33.34582411067952, 0.5186166808874354, 0.1};
Point(p13 + 8) = {33.17272560030068, 0.5903164315129298, 0.1};
Point(p13 + 9) = {32.9905419076925, 0.6340548663589353, 0.1};
Point(p13 + 10) = {32.803759, 0.6487550000000001, 0.1};
Point(p13 + 11) = {32.6169760923075, 0.634054866358935, 0.1};
Point(p13 + 12) = {32.43479239969932, 0.5903164315129298, 0.1};
Point(p13 + 13) = {32.26169388932048, 0.5186166808874356, 0.1};
Point(p13 + 14) = {32.10194282097753, 0.4207211003006817, 0.1};
Point(p13 + 15) = {31.95947279615648, 0.299040203843519, 0.1};
Point(p13 + 16) = {31.83779189969932, 0.1565701790224654, 0.1};
Point(p13 + 17) = {31.73989631911256, -0.003180889320481328, 0.1};
Point(p13 + 18) = {31.66819656848707, -0.1762793996993183, 0.1};
Point(p13 + 19) = {31.62445813364106, -0.3584630923074992, 0.1};
Point(p13 + 20) = {31.609758, -0.5452459999999999, 0.1};
Point(p13 + 21) = {31.62445813364106, -0.7320289076925006, 0.1};
Point(p13 + 22) = {31.66819656848707, -0.9142126003006821, 0.1};
Point(p13 + 23) = {31.73989631911256, -1.087311110679518, 0.1};
Point(p13 + 24) = {31.83779189969932, -1.247062179022465, 0.1};
Point(p13 + 25) = {31.95947279615648, -1.389532203843519, 0.1};
Point(p13 + 26) = {32.10194282097753, -1.511213100300682, 0.1};
Point(p13 + 27) = {32.26169388932048, -1.609108680887435, 0.1};
Point(p13 + 28) = {32.43479239969932, -1.68080843151293, 0.1};
Point(p13 + 29) = {32.6169760923075, -1.724546866358935, 0.1};
Point(p13 + 30) = {32.803759, -1.739247, 0.1};
Point(p13 + 31) = {32.9905419076925, -1.724546866358935, 0.1};
Point(p13 + 32) = {33.17272560030068, -1.68080843151293, 0.1};
Point(p13 + 33) = {33.34582411067952, -1.609108680887436, 0.1};
Point(p13 + 34) = {33.50557517902246, -1.511213100300682, 0.1};
Point(p13 + 35) = {33.64804520384352, -1.389532203843519, 0.1};
Point(p13 + 36) = {33.76972610030068, -1.247062179022465, 0.1};
Point(p13 + 37) = {33.86762168088743, -1.087311110679519, 0.1};
Point(p13 + 38) = {33.93932143151293, -0.9142126003006819, 0.1};
Point(p13 + 39) = {33.98305986635894, -0.7320289076925011, 0.1};
Spline(13) = {9, p13 + 1, p13 + 2, p13 + 3, p13 + 4, p13 + 5, p13 + 6, p13 + 7, p13 + 8, p13 + 9, p13 + 10, p13 + 11, p13 + 12, p13 + 13, p13 + 14, p13 + 15, p13 + 16, p13 + 17, p13 + 18, p13 + 19, p13 + 20, p13 + 21, p13 + 22, p13 + 23, p13 + 24, p13 + 25, p13 + 26, p13 + 27, p13 + 28, p13 + 29, p13 + 30, p13 + 31, p13 + 32, p13 + 33, p13 + 34, p13 + 35, p13 + 36, p13 + 37, p13 + 38, p13 + 39, 9};
Line(14) = {10, 9};
p15 = newp;
Point(p15 + 1) = {33.98305986635894, -0.3584630923074993, 0};
Point(p15 + 2) = {33.93932143151293, -0.1762793996993184, 0};
Point(p15 + 3) = {33.86762168088744, -0.003180889320481439, 0};
Point(p15 + 4) = {33.76972610030068, 0.1565701790224653, 0};
Point(p15 + 5) = {33.64804520384352, 0.2990402038435189, 0};
Point(p15 + 6) = {33.50557517902246, 0.4207211003006815, 0};
Point(p15 + 7) = {33.34582411067952, 0.5186166808874354, 0};
Point(p15 + 8) = {33.17272560030068, 0.5903164315129298, 0};
Point(p15 + 9) = {32.9905419076925, 0.6340548663589353, 0};
Point(p15 + 10) = {32.803759, 0.6487550000000001, 0};
Point(p15 + 11) = {32.6169760923075, 0.634054866358935, 0};
Point(p15 + 12) = {32.43479239969932, 0.5903164315129298, 0};
Point(p15 + 13) = {32.26169388932048, 0.5186166808874356, 0};
Point(p15 + 14) = {32.10194282097753, 0.4207211003006817, 0};
Point(p15 + 15) = {31.95947279615648, 0.299040203843519, 0};
Point(p15 + 16) = {31.83779189969932, 0.1565701790224654, 0};
Point(p15 + 17) = {31.73989631911256, -0.003180889320481328, 0};
Point(p15 + 18) = {31.66819656848707, -0.1762793996993183, 0};
Point(p15 + 19) = {31.62445813364106, -0.3584630923074992, 0};
Point(p15 + 20) = {31.609758, -0.5452459999999999, 0};
Point(p15 + 21) = {31.62445813364106, -0.7320289076925006, 0};
Point(p15 + 22) = {31.66819656848707, -0.9142126003006821, 0};
Point(p15 + 23) = {31.73989631911256, -1.087311110679518, 0};
Point(p15 + 24) = {31.83779189969932, -1.247062179022465, 0};
Point(p15 + 25) = {31.95947279615648, -1.389532203843519, 0};
Point(p15 + 26) = {32.10194282097753, -1.511213100300682, 0};
Point(p15 + 27) = {32.26169388932048, -1.609108680887435, 0};
Point(p15 + 28) = {32.43479239969932, -1.68080843151293, 0};
Point(p15 + 29) = {32.6169760923075, -1.724546866358935, 0};
Point(p15 + 30) = {32.803759, -1.739247, 0};
Point(p15 + 31) = {32.9905419076925, -1.724546866358935, 0};
Point(p15 + 32) = {33.17272560030068, -1.68080843151293, 0};
Point(p15 + 33) = {33.34582411067952, -1.609108680887436, 0};
Point(p15 + 34) = {33.50557517902246, -1.511213100300682, 0};
Point(p15 + 35) = {33.64804520384352, -1.389532203843519, 0};
Point(p15 + 36) = {33.76972610030068, -1.247062179022465, 0};
Point(p15 + 37) = {33.86762168088743, -1.087311110679519, 0};
Point(p15 + 38) = {33.93932143151293, -0.9142126003006819, 0};
Point(p15 + 39) = {33.98305986635894, -0.7320289076925011, 0};
Spline(15) = {10, p15 + 1, p15 + 2, p15 + 3, p15 + 4, p15 + 5, p15 + 6, p15 + 7, p15 + 8, p15 + 9, p15 + 10, p15 + 11, p15 + 12, p15 + 13, p15 + 14, p15 + 15, p15 + 16, p15 + 17, p15 + 18, p15 + 19, p15 + 20, p15 + 21, p15 + 22, p15 + 23, p15 + 24, p15 + 25, p15 + 26, p15 + 27, p15 + 28, p15 + 29, p15 + 30, p15 + 31, p15 + 32, p15 + 33, p15 + 34, p15 + 35, p15 + 36, p15 + 37, p15 + 38, p15 + 39, 10};
p16 = newp;
Point(p16 + 1) = {11.666494962038, -1.110668602403978, 0.1};
Point(p16 + 2) = {11.64284655522466, -1.012165898941365, 0.1};
Point(p16 + 3) = {11.60408008182029, -0.9185753530831406, 0.1};
Point(p16 + 4) = {11.55115010105864, -0.832201474677548, 0.1};
Point(p16 + 5) = {11.4853599247306, -0.7551710752694005, 0.1};
Point(p16 + 6) = {11.40832952532245, -0.6893808989413651, 0.1};
Point(p16 + 7) = {11.32195564691686, -0.6364509181797153, 0.1};
Point(p16 + 8) = {11.22836510105864, -0.5976844447753377, 0.1};
Point(p16 + 9) = {11.12986239759602, -0.5740360379619969, 0.1};
Point(p16 + 10) = {11.028873, -0.5660879999999999, 0.1};
Point(p16 + 11) = {10.92788360240398, -0.5740360379619969, 0.1};
Point(p16 + 12) = {10.82938089894137, -0.5976844447753376, 0.1};
Point(p16 + 13) = {10.73579035308314, -0.6364509181797152, 0.1};
Point(p16 + 14) = {10.64941647467755, -0.6893808989413651, 0.1};
Point(p16 + 15) = {10.5723860752694, -0.7551710752694004, 0.1};
Point(p16 + 16) = {10.50659589894137, -0.8322014746775479, 0.1};
Point(p16 + 17) = {10.45366591817972, -0.9185753530831406, 0.1};
Point(p16 + 18) = {10.41489944477534, -1.012165898941365, 0.1};
Point(p16 + 19) = {10.391251037962, -1.110668602403978, 0.1};
Point(p16 + 20) = {10.383303, -1.211658, 0.1};
Point(p16 + 21) = {10.391251037962, -1.312647397596022, 0.1};
Point(p16 + 22) = {10.41489944477534, -1.411150101058635, 0.1};
Point(p16 + 23) = {10.45366591817972, -1.504740646916859, 0.1};
Point(p16 + 24) = {10.50659589894137, -1.591114525322452, 0.1};
Point(p16 + 25) = {10.5723860752694, -1.668144924730599, 0.1};
Point(p16 + 26) = {10.64941647467755, -1.733935101058635, 0.1};
Point(p16 + 27) = {10.73579035308314, -1.786865081820284, 0.1};
Point(p16 + 28) = {10.82938089894137, -1.825631555224662, 0.1};
Point(p16 + 29) = {10.92788360240398, -1.849279962038003, 0.1};
Point(p16 + 30) = {11.028873, -1.857228, 0.1};
Point(p16 + 31) = {11.12986239759602, -1.849279962038003, 0.1};
Point(p16 + 32) = {11.22836510105864, -1.825631555224662, 0.1};
Point(p16 + 33) = {11.32195564691686, -1.786865081820284, 0.1};
Point(p16 + 34) = {11.40832952532245, -1.733935101058635, 0.1};
Point(p16 + 35) = {11.4853599247306, -1.668144924730599, 0.1};
Point(p16 + 36) = {11.55115010105864, -1.591114525322452, 0.1};
Point(p16 + 37) = {11.60408008182029, -1.504740646916859, 0.1};
Point(p16 + 38) = {11.64284655522466, -1.411150101058635, 0.1};
Point(p16 + 39) = {11.666494962038, -1.312647397596022, 0.1};
Spline(16) = {11, p16 + 1, p16 + 2, p16 + 3, p16 + 4, p16 + 5, p16 + 6, p16 + 7, p16 + 8, p16 + 9, p16 + 10, p16 + 11, p16 + 12, p16 + 13, p16 + 14, p16 + 15, p16 + 16, p16 + 17, p16 + 18, p16 + 19, p16 + 20, p16 + 21, p16 + 22, p16 + 23, p16 + 24, p16 + 25, p16 + 26, p16 + 27, p16 + 28, p16 + 29, p16 + 30, p16 + 31, p16 + 32, p16 + 33, p16 + 34, p16 + 35, p16 + 36, p16 + 37, p16 + 38, p16 + 39, 11};
Line(17) = {12, 11};
p18 = newp;
Point(p18 + 1) = {11.666494962038, -1.110668602403978, 0};
Point(p18 + 2) = {11.64284655522466, -1.012165898941365, 0};
Point(p18 + 3) = {11.60408008182029, -0.9185753530831406, 0};
Point(p18 + 4) = {11.55115010105864, -0.832201474677548, 0};
Point(p18 + 5) = {11.4853599247306, -0.7551710752694005, 0};
Point(p18 + 6) = {11.40832952532245, -0.6893808989413651, 0};
Point(p18 + 7) = {11.32195564691686, -0.6364509181797153, 0};
Point(p18 + 8) = {11.22836510105864, -0.5976844447753377, 0};
Point(p18 + 9) = {11.12986239759602, -0.5740360379619969, 0};
Point(p18 + 10) = {11.028873, -0.5660879999999999, 0};
Point(p18 + 11) = {10.92788360240398, -0.5740360379619969, 0};
Point(p18 + 12) = {10.82938089894137, -0.5976844447753376, 0};
Point(p18 + 13) = {10.73579035308314, -0.6364509181797152, 0};
Point(p18 + 14) = {10.64941647467755, -0.6893808989413651, 0};
Point(p18 + 15) = {10.5723860752694, -0.7551710752694004, 0};
Point(p18 + 16) = {10.50659589894137, -0.8322014746775479, 0};
Point(p18 + 17) = {10.45366591817972, -0.9185753530831406, 0};
Point(p18 + 18) = {10.41489944477534, -1.012165898941365, 0};
Point(p18 + 19) = {10.391251037962, -1.110668602403978, 0};
Point(p18 + 20) = {10.383303, -1.211658, 0};
Point(p18 + 21) = {10.391251037962, -1.312647397596022, 0};
Point(p18 + 22) = {10.41489944477534, -1.411150101058635, 0};
Point(p18 + 23) = {10.45366591817972, -1.504740646916859, 0};
Point(p18 + 24) = {10.50659589894137, -1.591114525322452, 0};
Point(p18 + 25) = {10.5723860752694, -1.668144924730599, 0};
Point(p18 + 26) = {10.64941647467755, -1.733935101058635, 0};
Point(p18 + 27) = {10.73579035308314, -1.786865081820284, 0};
Point(p18 + 28) = {10.82938089894137, -1.825631555224662, 0};
Point(p18 + 29) = {10.92788360240398, -1.849279962038003, 0};
Point(p18 + 30) = {11.028873, -1.857228, 0};
Point(p18 + 31) = {11.12986239759602, -1.849279962038003, 0};
Point(p18 + 32) = {11.22836510105864, -1.825631555224662, 0};
Point(p18 + 33) = {11.32195564691686, -1.786865081820284, 0};
Point(p18 + 34) = {11.40832952532245, -1.733935101058635, 0};
Point(p18 + 35) = {11.4853599247306, -1.668144924730599, 0};
Point(p18 + 36) = {11.55115010105864, -1.591114525322452, 0};
Point(p18 + 37) = {11.60408008182029, -1.504740646916859, 0};
Point(p18 + 38) = {11.64284655522466, -1.411150101058635, 0};
Point(p18 + 39) = {11.666494962038, -1.312647397596022, 0};
Spline(18) = {12, p18 + 1, p18 + 2, p18 + 3, p18 + 4, p18 + 5, p18 + 6, p18 + 7, p18 + 8, p18 + 9, p18 + 10, p18 + 11, p18 + 12, p18 + 13, p18 + 14, p18 + 15, p18 + 16, p18 + 17, p18 + 18, p18 + 19, p18 + 20, p18 + 21, p18 + 22, p18 + 23, p18 + 24, p18 + 25, p18 + 26, p18 + 27, p18 + 28, p18 + 29, p18 + 30, p18 + 31, p18 + 32, p18 + 33, p18 + 34, p18 + 35, p18 + 36, p18 + 37, p18 + 38, p18 + 39, 12};
Line(19) = {14, 13};
Line(20) = {13, 15};
Line(21) = {16, 15};
Line(22) = {14, 16};
Line(23) = {14, 17};
Line(24) = {17, 18};
Line(25) = {13, 18};
Line(26) = {15, 19};
Line(27) = {18, 19};
Line(28) = {16, 20};
Line(29) = {20, 19};
Line(30) = {17, 20};
Curve Loop(7) = {-13, -14, 15, 14};
Surface(7) = {7};
Curve Loop(8) = {13};
Plane Surface(8) = {8};
Curve Loop(9) = {15};
Plane Surface(9) = {9};
Curve Loop(10) = {-16, -17, 18, 17};
Surface(10) = {10};
Curve Loop(11) = {16};
Plane Surface(11) = {11};
Curve Loop(12) = {18};
Plane Surface(12) = {12};
Curve Loop(13) = {-19, 22, 21, -20};
Plane Surface(13) = {13};
Curve Loop(14) = {-23, 19, 25, -24};
Plane Surface(14) = {14};
Curve Loop(15) = {-20, 25, 27, -26};
Plane Surface(15) = {15};
Curve Loop(16) = {-28, 21, 26, -29};
Plane Surface(16) = {16};
Curve Loop(17) = {-22, 23, 30, -28, -18, -15};
Plane Surface(17) = {17};
Curve Loop(18) = {-24, 30, 29, -27};
Plane Surface(18) = {18};
Surface Loop(1) = {13, 14, 15, 16, 17, 18, 10, 7, 11, 8};
Volume(1) = {1};
Surface Loop(2) = {7, 8, 9};
Volume(2) = {2};
Surface Loop(3) = {10, 11, 12};
Volume(3) = {3};
Physical Surface("WALLS") = {13, 18};
Physical Surface("LOAD") = {8, 11};
Physical Surface("BORDER") = {7, 9, 10, 12, 14, 15, 16, 17};
Physical Volume("SOLID") = {1, 2, 3};
