cl__1 = 0.078861;
cl__2 = 0.119973;
cl__3 = 0.854245;
cl__4 = 0.471325;
cl__5 = 2.599321;
cl__6 = 2.194368;
Point(9) = {24.500034, 0.5722749999999998, 0.1, cl__1};
Point(10) = {24.500034, 0.5722749999999998, 0, cl__1};
Point(11) = {5.136675, 1.560184, 0.1, cl__2};
Point(12) = {5.136675, 1.560184, 0, cl__2};
Point(13) = {0.826631, -4.063105, 1, cl__3};
Point(14) = {0.826631, -4.063105, 0, cl__3};
Point(15) = {0.826631, 4.205925000000001, 1, cl__4};
Point(16) = {0.826631, 4.205925000000001, 0, cl__4};
Point(17) = {31.659228, -4.063105, 0, cl__5};
Point(18) = {31.659228, -4.063105, 1, cl__5};
Point(19) = {31.659228, 4.205925000000001, 1, cl__6};
Point(20) = {31.659228, 4.205925000000001, 0, cl__6};
p13 = newp;
Point(p13 + 1) = {24.49032488996507, 0.6956409399098414, 0.1};
Point(p13 + 2) = {24.46143663037204, 0.8159692009510215, 0.1};
Point(p13 + 3) = {24.41408054604671, 0.9302969019901037, 0.1};
Point(p13 + 4) = {24.34942270095102, 1.03580891559562, 0.1};
Point(p13 + 5) = {24.2690551858183, 1.129907185818304, 0.1};
Point(p13 + 6) = {24.17495691559562, 1.210274700951022, 0.1};
Point(p13 + 7) = {24.0694449019901, 1.274932546046713, 0.1};
Point(p13 + 8) = {23.95511720095102, 1.322288630372037, 0.1};
Point(p13 + 9) = {23.83478893990984, 1.351176889965072, 0.1};
Point(p13 + 10) = {23.711423, 1.360886, 0.1};
Point(p13 + 11) = {23.58805706009016, 1.351176889965072, 0.1};
Point(p13 + 12) = {23.46772879904898, 1.322288630372037, 0.1};
Point(p13 + 13) = {23.3534010980099, 1.274932546046713, 0.1};
Point(p13 + 14) = {23.24788908440438, 1.210274700951022, 0.1};
Point(p13 + 15) = {23.1537908141817, 1.129907185818305, 0.1};
Point(p13 + 16) = {23.07342329904898, 1.03580891559562, 0.1};
Point(p13 + 17) = {23.00876545395329, 0.9302969019901037, 0.1};
Point(p13 + 18) = {22.96140936962796, 0.8159692009510217, 0.1};
Point(p13 + 19) = {22.93252111003493, 0.6956409399098415, 0.1};
Point(p13 + 20) = {22.922812, 0.5722750000000001, 0.1};
Point(p13 + 21) = {22.93252111003493, 0.4489090600901586, 0.1};
Point(p13 + 22) = {22.96140936962796, 0.3285807990489781, 0.1};
Point(p13 + 23) = {23.00876545395329, 0.2142530980098967, 0.1};
Point(p13 + 24) = {23.07342329904898, 0.1087410844043806, 0.1};
Point(p13 + 25) = {23.1537908141817, 0.01464281418169566, 0.1};
Point(p13 + 26) = {23.24788908440438, -0.06572470095102156, 0.1};
Point(p13 + 27) = {23.3534010980099, -0.1303825460467128, 0.1};
Point(p13 + 28) = {23.46772879904898, -0.1777386303720373, 0.1};
Point(p13 + 29) = {23.58805706009016, -0.2066268899650721, 0.1};
Point(p13 + 30) = {23.711423, -0.216336, 0.1};
Point(p13 + 31) = {23.83478893990984, -0.2066268899650722, 0.1};
Point(p13 + 32) = {23.95511720095102, -0.1777386303720374, 0.1};
Point(p13 + 33) = {24.0694449019901, -0.1303825460467131, 0.1};
Point(p13 + 34) = {24.17495691559562, -0.06572470095102179, 0.1};
Point(p13 + 35) = {24.2690551858183, 0.01464281418169544, 0.1};
Point(p13 + 36) = {24.34942270095102, 0.1087410844043804, 0.1};
Point(p13 + 37) = {24.41408054604671, 0.2142530980098961, 0.1};
Point(p13 + 38) = {24.46143663037204, 0.3285807990489782, 0.1};
Point(p13 + 39) = {24.49032488996507, 0.4489090600901583, 0.1};
Spline(13) = {9, p13 + 1, p13 + 2, p13 + 3, p13 + 4, p13 + 5, p13 + 6, p13 + 7, p13 + 8, p13 + 9, p13 + 10, p13 + 11, p13 + 12, p13 + 13, p13 + 14, p13 + 15, p13 + 16, p13 + 17, p13 + 18, p13 + 19, p13 + 20, p13 + 21, p13 + 22, p13 + 23, p13 + 24, p13 + 25, p13 + 26, p13 + 27, p13 + 28, p13 + 29, p13 + 30, p13 + 31, p13 + 32, p13 + 33, p13 + 34, p13 + 35, p13 + 36, p13 + 37, p13 + 38, p13 + 39, 9};
Line(14) = {10, 9};
p15 = newp;
Point(p15 + 1) = {24.49032488996507, 0.6956409399098414, 0};
Point(p15 + 2) = {24.46143663037204, 0.8159692009510215, 0};
Point(p15 + 3) = {24.41408054604671, 0.9302969019901037, 0};
Point(p15 + 4) = {24.34942270095102, 1.03580891559562, 0};
Point(p15 + 5) = {24.2690551858183, 1.129907185818304, 0};
Point(p15 + 6) = {24.17495691559562, 1.210274700951022, 0};
Point(p15 + 7) = {24.0694449019901, 1.274932546046713, 0};
Point(p15 + 8) = {23.95511720095102, 1.322288630372037, 0};
Point(p15 + 9) = {23.83478893990984, 1.351176889965072, 0};
Point(p15 + 10) = {23.711423, 1.360886, 0};
Point(p15 + 11) = {23.58805706009016, 1.351176889965072, 0};
Point(p15 + 12) = {23.46772879904898, 1.322288630372037, 0};
Point(p15 + 13) = {23.3534010980099, 1.274932546046713, 0};
Point(p15 + 14) = {23.24788908440438, 1.210274700951022, 0};
Point(p15 + 15) = {23.1537908141817, 1.129907185818305, 0};
Point(p15 + 16) = {23.07342329904898, 1.03580891559562, 0};
Point(p15 + 17) = {23.00876545395329, 0.9302969019901037, 0};
Point(p15 + 18) = {22.96140936962796, 0.8159692009510217, 0};
Point(p15 + 19) = {22.93252111003493, 0.6956409399098415, 0};
Point(p15 + 20) = {22.922812, 0.5722750000000001, 0};
Point(p15 + 21) = {22.93252111003493, 0.4489090600901586, 0};
Point(p15 + 22) = {22.96140936962796, 0.3285807990489781, 0};
Point(p15 + 23) = {23.00876545395329, 0.2142530980098967, 0};
Point(p15 + 24) = {23.07342329904898, 0.1087410844043806, 0};
Point(p15 + 25) = {23.1537908141817, 0.01464281418169566, 0};
Point(p15 + 26) = {23.24788908440438, -0.06572470095102156, 0};
Point(p15 + 27) = {23.3534010980099, -0.1303825460467128, 0};
Point(p15 + 28) = {23.46772879904898, -0.1777386303720373, 0};
Point(p15 + 29) = {23.58805706009016, -0.2066268899650721, 0};
Point(p15 + 30) = {23.711423, -0.216336, 0};
Point(p15 + 31) = {23.83478893990984, -0.2066268899650722, 0};
Point(p15 + 32) = {23.95511720095102, -0.1777386303720374, 0};
Point(p15 + 33) = {24.0694449019901, -0.1303825460467131, 0};
Point(p15 + 34) = {24.17495691559562, -0.06572470095102179, 0};
Point(p15 + 35) = {24.2690551858183, 0.01464281418169544, 0};
Point(p15 + 36) = {24.34942270095102, 0.1087410844043804, 0};
Point(p15 + 37) = {24.41408054604671, 0.2142530980098961, 0};
Point(p15 + 38) = {24.46143663037204, 0.3285807990489782, 0};
Point(p15 + 39) = {24.49032488996507, 0.4489090600901583, 0};
Spline(15) = {10, p15 + 1, p15 + 2, p15 + 3, p15 + 4, p15 + 5, p15 + 6, p15 + 7, p15 + 8, p15 + 9, p15 + 10, p15 + 11, p15 + 12, p15 + 13, p15 + 14, p15 + 15, p15 + 16, p15 + 17, p15 + 18, p15 + 19, p15 + 20, p15 + 21, p15 + 22, p15 + 23, p15 + 24, p15 + 25, p15 + 26, p15 + 27, p15 + 28, p15 + 29, p15 + 30, p15 + 31, p15 + 32, p15 + 33, p15 + 34, p15 + 35, p15 + 36, p15 + 37, p15 + 38, p15 + 39, 10};
p16 = newp;
Point(p16 + 1) = {5.121904283615567, 1.747863746480576, 0.1};
Point(p16 + 2) = {5.07795583852085, 1.930922194729433, 0.1};
Point(p16 + 3) = {5.005911821290607, 2.104851838214525, 0.1};
Point(p16 + 4) = {4.907546194729433, 2.265369951873858, 0.1};
Point(p16 + 5) = {4.785281047020062, 2.408524047020062, 0.1};
Point(p16 + 6) = {4.642126951873858, 2.530789194729433, 0.1};
Point(p16 + 7) = {4.481608838214526, 2.629154821290607, 0.1};
Point(p16 + 8) = {4.307679194729433, 2.70119883852085, 0.1};
Point(p16 + 9) = {4.124620746480576, 2.745147283615567, 0.1};
Point(p16 + 10) = {3.936941, 2.759918, 0.1};
Point(p16 + 11) = {3.749261253519423, 2.745147283615567, 0.1};
Point(p16 + 12) = {3.566202805270567, 2.70119883852085, 0.1};
Point(p16 + 13) = {3.392273161785475, 2.629154821290608, 0.1};
Point(p16 + 14) = {3.231755048126142, 2.530789194729433, 0.1};
Point(p16 + 15) = {3.088600952979939, 2.408524047020062, 0.1};
Point(p16 + 16) = {2.966335805270567, 2.265369951873858, 0.1};
Point(p16 + 17) = {2.867970178709393, 2.104851838214525, 0.1};
Point(p16 + 18) = {2.79592616147915, 1.930922194729433, 0.1};
Point(p16 + 19) = {2.751977716384433, 1.747863746480576, 0.1};
Point(p16 + 20) = {2.737207, 1.560184, 0.1};
Point(p16 + 21) = {2.751977716384433, 1.372504253519424, 0.1};
Point(p16 + 22) = {2.795926161479151, 1.189445805270566, 0.1};
Point(p16 + 23) = {2.867970178709392, 1.015516161785475, 0.1};
Point(p16 + 24) = {2.966335805270567, 0.8549980481261421, 0.1};
Point(p16 + 25) = {3.088600952979939, 0.7118439529799386, 0.1};
Point(p16 + 26) = {3.231755048126142, 0.5895788052705668, 0.1};
Point(p16 + 27) = {3.392273161785474, 0.4912131787093927, 0.1};
Point(p16 + 28) = {3.566202805270567, 0.4191691614791502, 0.1};
Point(p16 + 29) = {3.749261253519423, 0.375220716384433, 0.1};
Point(p16 + 30) = {3.936941, 0.3604499999999999, 0.1};
Point(p16 + 31) = {4.124620746480576, 0.375220716384433, 0.1};
Point(p16 + 32) = {4.307679194729433, 0.4191691614791502, 0.1};
Point(p16 + 33) = {4.481608838214525, 0.4912131787093925, 0.1};
Point(p16 + 34) = {4.642126951873858, 0.5895788052705666, 0.1};
Point(p16 + 35) = {4.785281047020061, 0.7118439529799384, 0.1};
Point(p16 + 36) = {4.907546194729433, 0.8549980481261419, 0.1};
Point(p16 + 37) = {5.005911821290607, 1.015516161785474, 0.1};
Point(p16 + 38) = {5.07795583852085, 1.189445805270567, 0.1};
Point(p16 + 39) = {5.121904283615567, 1.372504253519423, 0.1};
Spline(16) = {11, p16 + 1, p16 + 2, p16 + 3, p16 + 4, p16 + 5, p16 + 6, p16 + 7, p16 + 8, p16 + 9, p16 + 10, p16 + 11, p16 + 12, p16 + 13, p16 + 14, p16 + 15, p16 + 16, p16 + 17, p16 + 18, p16 + 19, p16 + 20, p16 + 21, p16 + 22, p16 + 23, p16 + 24, p16 + 25, p16 + 26, p16 + 27, p16 + 28, p16 + 29, p16 + 30, p16 + 31, p16 + 32, p16 + 33, p16 + 34, p16 + 35, p16 + 36, p16 + 37, p16 + 38, p16 + 39, 11};
Line(17) = {12, 11};
p18 = newp;
Point(p18 + 1) = {5.121904283615567, 1.747863746480576, 0};
Point(p18 + 2) = {5.07795583852085, 1.930922194729433, 0};
Point(p18 + 3) = {5.005911821290607, 2.104851838214525, 0};
Point(p18 + 4) = {4.907546194729433, 2.265369951873858, 0};
Point(p18 + 5) = {4.785281047020062, 2.408524047020062, 0};
Point(p18 + 6) = {4.642126951873858, 2.530789194729433, 0};
Point(p18 + 7) = {4.481608838214526, 2.629154821290607, 0};
Point(p18 + 8) = {4.307679194729433, 2.70119883852085, 0};
Point(p18 + 9) = {4.124620746480576, 2.745147283615567, 0};
Point(p18 + 10) = {3.936941, 2.759918, 0};
Point(p18 + 11) = {3.749261253519423, 2.745147283615567, 0};
Point(p18 + 12) = {3.566202805270567, 2.70119883852085, 0};
Point(p18 + 13) = {3.392273161785475, 2.629154821290608, 0};
Point(p18 + 14) = {3.231755048126142, 2.530789194729433, 0};
Point(p18 + 15) = {3.088600952979939, 2.408524047020062, 0};
Point(p18 + 16) = {2.966335805270567, 2.265369951873858, 0};
Point(p18 + 17) = {2.867970178709393, 2.104851838214525, 0};
Point(p18 + 18) = {2.79592616147915, 1.930922194729433, 0};
Point(p18 + 19) = {2.751977716384433, 1.747863746480576, 0};
Point(p18 + 20) = {2.737207, 1.560184, 0};
Point(p18 + 21) = {2.751977716384433, 1.372504253519424, 0};
Point(p18 + 22) = {2.795926161479151, 1.189445805270566, 0};
Point(p18 + 23) = {2.867970178709392, 1.015516161785475, 0};
Point(p18 + 24) = {2.966335805270567, 0.8549980481261421, 0};
Point(p18 + 25) = {3.088600952979939, 0.7118439529799386, 0};
Point(p18 + 26) = {3.231755048126142, 0.5895788052705668, 0};
Point(p18 + 27) = {3.392273161785474, 0.4912131787093927, 0};
Point(p18 + 28) = {3.566202805270567, 0.4191691614791502, 0};
Point(p18 + 29) = {3.749261253519423, 0.375220716384433, 0};
Point(p18 + 30) = {3.936941, 0.3604499999999999, 0};
Point(p18 + 31) = {4.124620746480576, 0.375220716384433, 0};
Point(p18 + 32) = {4.307679194729433, 0.4191691614791502, 0};
Point(p18 + 33) = {4.481608838214525, 0.4912131787093925, 0};
Point(p18 + 34) = {4.642126951873858, 0.5895788052705666, 0};
Point(p18 + 35) = {4.785281047020061, 0.7118439529799384, 0};
Point(p18 + 36) = {4.907546194729433, 0.8549980481261419, 0};
Point(p18 + 37) = {5.005911821290607, 1.015516161785474, 0};
Point(p18 + 38) = {5.07795583852085, 1.189445805270567, 0};
Point(p18 + 39) = {5.121904283615567, 1.372504253519423, 0};
Spline(18) = {12, p18 + 1, p18 + 2, p18 + 3, p18 + 4, p18 + 5, p18 + 6, p18 + 7, p18 + 8, p18 + 9, p18 + 10, p18 + 11, p18 + 12, p18 + 13, p18 + 14, p18 + 15, p18 + 16, p18 + 17, p18 + 18, p18 + 19, p18 + 20, p18 + 21, p18 + 22, p18 + 23, p18 + 24, p18 + 25, p18 + 26, p18 + 27, p18 + 28, p18 + 29, p18 + 30, p18 + 31, p18 + 32, p18 + 33, p18 + 34, p18 + 35, p18 + 36, p18 + 37, p18 + 38, p18 + 39, 12};
Line(19) = {14, 13};
Line(20) = {13, 15};
Line(21) = {16, 15};
Line(22) = {14, 16};
Line(23) = {14, 17};
Line(24) = {17, 18};
Line(25) = {13, 18};
Line(26) = {15, 19};
Line(27) = {18, 19};
Line(28) = {16, 20};
Line(29) = {20, 19};
Line(30) = {17, 20};
Curve Loop(7) = {-13, -14, 15, 14};
Surface(7) = {7};
Curve Loop(8) = {13};
Plane Surface(8) = {8};
Curve Loop(9) = {15};
Plane Surface(9) = {9};
Curve Loop(10) = {-16, -17, 18, 17};
Surface(10) = {10};
Curve Loop(11) = {16};
Plane Surface(11) = {11};
Curve Loop(12) = {18};
Plane Surface(12) = {12};
Curve Loop(13) = {-19, 22, 21, -20};
Plane Surface(13) = {13};
Curve Loop(14) = {-23, 19, 25, -24};
Plane Surface(14) = {14};
Curve Loop(15) = {-20, 25, 27, -26};
Plane Surface(15) = {15};
Curve Loop(16) = {-28, 21, 26, -29};
Plane Surface(16) = {16};
Curve Loop(17) = {-22, 23, 30, -28, -15, -18};
Plane Surface(17) = {17};
Curve Loop(18) = {-24, 30, 29, -27};
Plane Surface(18) = {18};
Surface Loop(1) = {13, 14, 15, 16, 17, 18, 7, 10, 8, 11};
Volume(1) = {1};
Surface Loop(2) = {7, 8, 9};
Volume(2) = {2};
Surface Loop(3) = {10, 11, 12};
Volume(3) = {3};
Physical Surface("WALLS") = {13, 18};
Physical Surface("LOAD") = {8, 11};
Physical Surface("BORDER") = {7, 9, 10, 12, 14, 15, 16, 17};
Physical Volume("SOLID") = {1, 2, 3};
