cl__1 = 0.055617;
cl__2 = 0.095191;
cl__3 = 0.694306;
cl__4 = 0.845407;
cl__5 = 1.685074;
cl__6 = 2.04987;
Point(9) = {9.847569999999999, -1.93905, 0.1, cl__1};
Point(10) = {9.847569999999999, -1.93905, 0, cl__1};
Point(11) = {16.518462, -1.631539, 0.1, cl__2};
Point(12) = {16.518462, -1.631539, 0, cl__2};
Point(13) = {0.627217, -4.151803, 1, cl__3};
Point(14) = {0.627217, -4.151803, 0, cl__3};
Point(15) = {0.627217, 4.453717, 1, cl__4};
Point(16) = {0.627217, 4.453717, 0, cl__4};
Point(17) = {30.682862, -4.151803, 0, cl__5};
Point(18) = {30.682862, -4.151803, 1, cl__5};
Point(19) = {30.682862, 4.453717, 1, cl__6};
Point(20) = {30.682862, 4.453717, 0, cl__6};
p13 = newp;
Point(p13 + 1) = {9.840722599765478, -1.852045530709645, 0.1};
Point(p13 + 2) = {9.820349004780907, -1.767183400204497, 0.1};
Point(p13 + 3) = {9.786950880570892, -1.686553195778857, 0.1};
Point(p13 + 4) = {9.741350599795503, -1.612140300661991, 0.1};
Point(p13 + 5) = {9.684670992706083, -1.545777007293915, 0.1};
Point(p13 + 6) = {9.618307699338009, -1.489097400204497, 0.1};
Point(p13 + 7) = {9.543894804221143, -1.443497119429107, 0.1};
Point(p13 + 8) = {9.463264599795503, -1.410098995219092, 0.1};
Point(p13 + 9) = {9.378402469290354, -1.389725400234521, 0.1};
Point(p13 + 10) = {9.291397999999999, -1.382878, 0.1};
Point(p13 + 11) = {9.204393530709643, -1.389725400234521, 0.1};
Point(p13 + 12) = {9.119531400204496, -1.410098995219092, 0.1};
Point(p13 + 13) = {9.038901195778855, -1.443497119429107, 0.1};
Point(p13 + 14) = {8.964488300661991, -1.489097400204497, 0.1};
Point(p13 + 15) = {8.898125007293915, -1.545777007293915, 0.1};
Point(p13 + 16) = {8.841445400204496, -1.612140300661991, 0.1};
Point(p13 + 17) = {8.795845119429107, -1.686553195778857, 0.1};
Point(p13 + 18) = {8.762446995219092, -1.767183400204497, 0.1};
Point(p13 + 19) = {8.742073400234521, -1.852045530709645, 0.1};
Point(p13 + 20) = {8.735225999999999, -1.93905, 0.1};
Point(p13 + 21) = {8.742073400234521, -2.026054469290355, 0.1};
Point(p13 + 22) = {8.762446995219092, -2.110916599795504, 0.1};
Point(p13 + 23) = {8.795845119429107, -2.191546804221143, 0.1};
Point(p13 + 24) = {8.841445400204496, -2.265959699338009, 0.1};
Point(p13 + 25) = {8.898125007293915, -2.332322992706084, 0.1};
Point(p13 + 26) = {8.964488300661989, -2.389002599795503, 0.1};
Point(p13 + 27) = {9.038901195778855, -2.434602880570893, 0.1};
Point(p13 + 28) = {9.119531400204496, -2.468001004780908, 0.1};
Point(p13 + 29) = {9.204393530709643, -2.488374599765479, 0.1};
Point(p13 + 30) = {9.291397999999999, -2.495222, 0.1};
Point(p13 + 31) = {9.378402469290354, -2.488374599765479, 0.1};
Point(p13 + 32) = {9.463264599795503, -2.468001004780908, 0.1};
Point(p13 + 33) = {9.543894804221143, -2.434602880570893, 0.1};
Point(p13 + 34) = {9.618307699338008, -2.389002599795503, 0.1};
Point(p13 + 35) = {9.684670992706083, -2.332322992706084, 0.1};
Point(p13 + 36) = {9.741350599795503, -2.265959699338009, 0.1};
Point(p13 + 37) = {9.786950880570892, -2.191546804221143, 0.1};
Point(p13 + 38) = {9.820349004780907, -2.110916599795504, 0.1};
Point(p13 + 39) = {9.840722599765478, -2.026054469290355, 0.1};
Spline(13) = {9, p13 + 1, p13 + 2, p13 + 3, p13 + 4, p13 + 5, p13 + 6, p13 + 7, p13 + 8, p13 + 9, p13 + 10, p13 + 11, p13 + 12, p13 + 13, p13 + 14, p13 + 15, p13 + 16, p13 + 17, p13 + 18, p13 + 19, p13 + 20, p13 + 21, p13 + 22, p13 + 23, p13 + 24, p13 + 25, p13 + 26, p13 + 27, p13 + 28, p13 + 29, p13 + 30, p13 + 31, p13 + 32, p13 + 33, p13 + 34, p13 + 35, p13 + 36, p13 + 37, p13 + 38, p13 + 39, 9};
Line(14) = {10, 9};
p15 = newp;
Point(p15 + 1) = {9.840722599765478, -1.852045530709645, 0};
Point(p15 + 2) = {9.820349004780907, -1.767183400204497, 0};
Point(p15 + 3) = {9.786950880570892, -1.686553195778857, 0};
Point(p15 + 4) = {9.741350599795503, -1.612140300661991, 0};
Point(p15 + 5) = {9.684670992706083, -1.545777007293915, 0};
Point(p15 + 6) = {9.618307699338009, -1.489097400204497, 0};
Point(p15 + 7) = {9.543894804221143, -1.443497119429107, 0};
Point(p15 + 8) = {9.463264599795503, -1.410098995219092, 0};
Point(p15 + 9) = {9.378402469290354, -1.389725400234521, 0};
Point(p15 + 10) = {9.291397999999999, -1.382878, 0};
Point(p15 + 11) = {9.204393530709643, -1.389725400234521, 0};
Point(p15 + 12) = {9.119531400204496, -1.410098995219092, 0};
Point(p15 + 13) = {9.038901195778855, -1.443497119429107, 0};
Point(p15 + 14) = {8.964488300661991, -1.489097400204497, 0};
Point(p15 + 15) = {8.898125007293915, -1.545777007293915, 0};
Point(p15 + 16) = {8.841445400204496, -1.612140300661991, 0};
Point(p15 + 17) = {8.795845119429107, -1.686553195778857, 0};
Point(p15 + 18) = {8.762446995219092, -1.767183400204497, 0};
Point(p15 + 19) = {8.742073400234521, -1.852045530709645, 0};
Point(p15 + 20) = {8.735225999999999, -1.93905, 0};
Point(p15 + 21) = {8.742073400234521, -2.026054469290355, 0};
Point(p15 + 22) = {8.762446995219092, -2.110916599795504, 0};
Point(p15 + 23) = {8.795845119429107, -2.191546804221143, 0};
Point(p15 + 24) = {8.841445400204496, -2.265959699338009, 0};
Point(p15 + 25) = {8.898125007293915, -2.332322992706084, 0};
Point(p15 + 26) = {8.964488300661989, -2.389002599795503, 0};
Point(p15 + 27) = {9.038901195778855, -2.434602880570893, 0};
Point(p15 + 28) = {9.119531400204496, -2.468001004780908, 0};
Point(p15 + 29) = {9.204393530709643, -2.488374599765479, 0};
Point(p15 + 30) = {9.291397999999999, -2.495222, 0};
Point(p15 + 31) = {9.378402469290354, -2.488374599765479, 0};
Point(p15 + 32) = {9.463264599795503, -2.468001004780908, 0};
Point(p15 + 33) = {9.543894804221143, -2.434602880570893, 0};
Point(p15 + 34) = {9.618307699338008, -2.389002599795503, 0};
Point(p15 + 35) = {9.684670992706083, -2.332322992706084, 0};
Point(p15 + 36) = {9.741350599795503, -2.265959699338009, 0};
Point(p15 + 37) = {9.786950880570892, -2.191546804221143, 0};
Point(p15 + 38) = {9.820349004780907, -2.110916599795504, 0};
Point(p15 + 39) = {9.840722599765478, -2.026054469290355, 0};
Spline(15) = {10, p15 + 1, p15 + 2, p15 + 3, p15 + 4, p15 + 5, p15 + 6, p15 + 7, p15 + 8, p15 + 9, p15 + 10, p15 + 11, p15 + 12, p15 + 13, p15 + 14, p15 + 15, p15 + 16, p15 + 17, p15 + 18, p15 + 19, p15 + 20, p15 + 21, p15 + 22, p15 + 23, p15 + 24, p15 + 25, p15 + 26, p15 + 27, p15 + 28, p15 + 29, p15 + 30, p15 + 31, p15 + 32, p15 + 33, p15 + 34, p15 + 35, p15 + 36, p15 + 37, p15 + 38, p15 + 39, 10};
p16 = newp;
Point(p16 + 1) = {16.50674235904928, -1.482626842645694, 0.1};
Point(p16 + 2) = {16.47187201265258, -1.337381396816566, 0.1};
Point(p16 + 3) = {16.41470958446624, -1.199379087430929, 0.1};
Point(p16 + 4) = {16.33666260318343, -1.072017989349263, 0.1};
Point(p16 + 5) = {16.23965284450641, -0.9584341554935889, 0.1};
Point(p16 + 6) = {16.12606901065074, -0.8614243968165665, 0.1};
Point(p16 + 7) = {15.99870791256907, -0.7833774155337541, 0.1};
Point(p16 + 8) = {15.86070560318343, -0.7262149873474153, 0.1};
Point(p16 + 9) = {15.71546015735431, -0.69134464095072, 0.1};
Point(p16 + 10) = {15.566548, -0.679625, 0.1};
Point(p16 + 11) = {15.41763584264569, -0.6913446409507201, 0.1};
Point(p16 + 12) = {15.27239039681657, -0.7262149873474152, 0.1};
Point(p16 + 13) = {15.13438808743093, -0.783377415533754, 0.1};
Point(p16 + 14) = {15.00702698934926, -0.8614243968165664, 0.1};
Point(p16 + 15) = {14.89344315549359, -0.9584341554935888, 0.1};
Point(p16 + 16) = {14.79643339681657, -1.072017989349263, 0.1};
Point(p16 + 17) = {14.71838641553375, -1.199379087430929, 0.1};
Point(p16 + 18) = {14.66122398734741, -1.337381396816566, 0.1};
Point(p16 + 19) = {14.62635364095072, -1.482626842645694, 0.1};
Point(p16 + 20) = {14.614634, -1.631539, 0.1};
Point(p16 + 21) = {14.62635364095072, -1.780451157354306, 0.1};
Point(p16 + 22) = {14.66122398734741, -1.925696603183434, 0.1};
Point(p16 + 23) = {14.71838641553375, -2.063698912569071, 0.1};
Point(p16 + 24) = {14.79643339681657, -2.191060010650737, 0.1};
Point(p16 + 25) = {14.89344315549359, -2.304643844506411, 0.1};
Point(p16 + 26) = {15.00702698934926, -2.401653603183433, 0.1};
Point(p16 + 27) = {15.13438808743093, -2.479700584466246, 0.1};
Point(p16 + 28) = {15.27239039681657, -2.536863012652585, 0.1};
Point(p16 + 29) = {15.41763584264569, -2.57173335904928, 0.1};
Point(p16 + 30) = {15.566548, -2.583453, 0.1};
Point(p16 + 31) = {15.71546015735431, -2.57173335904928, 0.1};
Point(p16 + 32) = {15.86070560318343, -2.536863012652585, 0.1};
Point(p16 + 33) = {15.99870791256907, -2.479700584466246, 0.1};
Point(p16 + 34) = {16.12606901065073, -2.401653603183434, 0.1};
Point(p16 + 35) = {16.23965284450641, -2.304643844506411, 0.1};
Point(p16 + 36) = {16.33666260318343, -2.191060010650737, 0.1};
Point(p16 + 37) = {16.41470958446624, -2.063698912569071, 0.1};
Point(p16 + 38) = {16.47187201265258, -1.925696603183434, 0.1};
Point(p16 + 39) = {16.50674235904928, -1.780451157354307, 0.1};
Spline(16) = {11, p16 + 1, p16 + 2, p16 + 3, p16 + 4, p16 + 5, p16 + 6, p16 + 7, p16 + 8, p16 + 9, p16 + 10, p16 + 11, p16 + 12, p16 + 13, p16 + 14, p16 + 15, p16 + 16, p16 + 17, p16 + 18, p16 + 19, p16 + 20, p16 + 21, p16 + 22, p16 + 23, p16 + 24, p16 + 25, p16 + 26, p16 + 27, p16 + 28, p16 + 29, p16 + 30, p16 + 31, p16 + 32, p16 + 33, p16 + 34, p16 + 35, p16 + 36, p16 + 37, p16 + 38, p16 + 39, 11};
Line(17) = {12, 11};
p18 = newp;
Point(p18 + 1) = {16.50674235904928, -1.482626842645694, 0};
Point(p18 + 2) = {16.47187201265258, -1.337381396816566, 0};
Point(p18 + 3) = {16.41470958446624, -1.199379087430929, 0};
Point(p18 + 4) = {16.33666260318343, -1.072017989349263, 0};
Point(p18 + 5) = {16.23965284450641, -0.9584341554935889, 0};
Point(p18 + 6) = {16.12606901065074, -0.8614243968165665, 0};
Point(p18 + 7) = {15.99870791256907, -0.7833774155337541, 0};
Point(p18 + 8) = {15.86070560318343, -0.7262149873474153, 0};
Point(p18 + 9) = {15.71546015735431, -0.69134464095072, 0};
Point(p18 + 10) = {15.566548, -0.679625, 0};
Point(p18 + 11) = {15.41763584264569, -0.6913446409507201, 0};
Point(p18 + 12) = {15.27239039681657, -0.7262149873474152, 0};
Point(p18 + 13) = {15.13438808743093, -0.783377415533754, 0};
Point(p18 + 14) = {15.00702698934926, -0.8614243968165664, 0};
Point(p18 + 15) = {14.89344315549359, -0.9584341554935888, 0};
Point(p18 + 16) = {14.79643339681657, -1.072017989349263, 0};
Point(p18 + 17) = {14.71838641553375, -1.199379087430929, 0};
Point(p18 + 18) = {14.66122398734741, -1.337381396816566, 0};
Point(p18 + 19) = {14.62635364095072, -1.482626842645694, 0};
Point(p18 + 20) = {14.614634, -1.631539, 0};
Point(p18 + 21) = {14.62635364095072, -1.780451157354306, 0};
Point(p18 + 22) = {14.66122398734741, -1.925696603183434, 0};
Point(p18 + 23) = {14.71838641553375, -2.063698912569071, 0};
Point(p18 + 24) = {14.79643339681657, -2.191060010650737, 0};
Point(p18 + 25) = {14.89344315549359, -2.304643844506411, 0};
Point(p18 + 26) = {15.00702698934926, -2.401653603183433, 0};
Point(p18 + 27) = {15.13438808743093, -2.479700584466246, 0};
Point(p18 + 28) = {15.27239039681657, -2.536863012652585, 0};
Point(p18 + 29) = {15.41763584264569, -2.57173335904928, 0};
Point(p18 + 30) = {15.566548, -2.583453, 0};
Point(p18 + 31) = {15.71546015735431, -2.57173335904928, 0};
Point(p18 + 32) = {15.86070560318343, -2.536863012652585, 0};
Point(p18 + 33) = {15.99870791256907, -2.479700584466246, 0};
Point(p18 + 34) = {16.12606901065073, -2.401653603183434, 0};
Point(p18 + 35) = {16.23965284450641, -2.304643844506411, 0};
Point(p18 + 36) = {16.33666260318343, -2.191060010650737, 0};
Point(p18 + 37) = {16.41470958446624, -2.063698912569071, 0};
Point(p18 + 38) = {16.47187201265258, -1.925696603183434, 0};
Point(p18 + 39) = {16.50674235904928, -1.780451157354307, 0};
Spline(18) = {12, p18 + 1, p18 + 2, p18 + 3, p18 + 4, p18 + 5, p18 + 6, p18 + 7, p18 + 8, p18 + 9, p18 + 10, p18 + 11, p18 + 12, p18 + 13, p18 + 14, p18 + 15, p18 + 16, p18 + 17, p18 + 18, p18 + 19, p18 + 20, p18 + 21, p18 + 22, p18 + 23, p18 + 24, p18 + 25, p18 + 26, p18 + 27, p18 + 28, p18 + 29, p18 + 30, p18 + 31, p18 + 32, p18 + 33, p18 + 34, p18 + 35, p18 + 36, p18 + 37, p18 + 38, p18 + 39, 12};
Line(19) = {14, 13};
Line(20) = {13, 15};
Line(21) = {16, 15};
Line(22) = {14, 16};
Line(23) = {14, 17};
Line(24) = {17, 18};
Line(25) = {13, 18};
Line(26) = {15, 19};
Line(27) = {18, 19};
Line(28) = {16, 20};
Line(29) = {20, 19};
Line(30) = {17, 20};
Curve Loop(7) = {-13, -14, 15, 14};
Surface(7) = {7};
Curve Loop(8) = {13};
Plane Surface(8) = {8};
Curve Loop(9) = {15};
Plane Surface(9) = {9};
Curve Loop(10) = {-16, -17, 18, 17};
Surface(10) = {10};
Curve Loop(11) = {16};
Plane Surface(11) = {11};
Curve Loop(12) = {18};
Plane Surface(12) = {12};
Curve Loop(13) = {-19, 22, 21, -20};
Plane Surface(13) = {13};
Curve Loop(14) = {-23, 19, 25, -24};
Plane Surface(14) = {14};
Curve Loop(15) = {-20, 25, 27, -26};
Plane Surface(15) = {15};
Curve Loop(16) = {-28, 21, 26, -29};
Plane Surface(16) = {16};
Curve Loop(17) = {-22, 23, 30, -28, -15, -18};
Plane Surface(17) = {17};
Curve Loop(18) = {-24, 30, 29, -27};
Plane Surface(18) = {18};
Surface Loop(1) = {13, 14, 15, 16, 17, 18, 7, 10, 8, 11};
Volume(1) = {1};
Surface Loop(2) = {7, 8, 9};
Volume(2) = {2};
Surface Loop(3) = {10, 11, 12};
Volume(3) = {3};
Physical Surface("WALLS") = {13, 18};
Physical Surface("LOAD") = {8, 11};
Physical Surface("BORDER") = {7, 9, 10, 12, 14, 15, 16, 17};
Physical Volume("SOLID") = {1, 2, 3};
