cl__1 = 0.133989;
cl__2 = 0.104973;
cl__3 = 2.788746;
cl__4 = 2.992222;
cl__5 = 0.632835;
cl__6 = 0.518594;
Point(9) = {22.247867, -0.7085020000000003, 0.1, cl__1};
Point(10) = {22.247867, -0.7085020000000003, 0, cl__1};
Point(11) = {23.723347, 2.233086, 0.1, cl__2};
Point(12) = {23.723347, 2.233086, 0, cl__2};
Point(13) = {0.31458, -3.747798, 1, cl__3};
Point(14) = {0.31458, -3.747798, 0, cl__3};
Point(15) = {0.31458, 4.649800000000001, 1, cl__4};
Point(16) = {0.31458, 4.649800000000001, 0, cl__4};
Point(17) = {30.536113, -3.747798, 0, cl__5};
Point(18) = {30.536113, -3.747798, 1, cl__5};
Point(19) = {30.536113, 4.649800000000001, 1, cl__6};
Point(20) = {30.536113, 4.649800000000001, 0, cl__6};
p13 = newp;
Point(p13 + 1) = {22.2313707060567, -0.498896711768315, 0.1};
Point(p13 + 2) = {22.18228801773175, -0.2944526013729629, 0.1};
Point(p13 + 3) = {22.1018275137078, -0.1002037613229791, 0.1};
Point(p13 + 4) = {21.99197039862704, 0.0790667572646665, 0.1};
Point(p13 + 5) = {21.85542171925761, 0.2389447192576055, 0.1};
Point(p13 + 6) = {21.69554375726467, 0.375493398627037, 0.1};
Point(p13 + 7) = {21.51627323867702, 0.4853505137078007, 0.1};
Point(p13 + 8) = {21.32202439862704, 0.5658110177317459, 0.1};
Point(p13 + 9) = {21.11758028823169, 0.6148937060567004, 0.1};
Point(p13 + 10) = {20.907975, 0.6313900000000001, 0.1};
Point(p13 + 11) = {20.69836971176831, 0.6148937060567004, 0.1};
Point(p13 + 12) = {20.49392560137296, 0.5658110177317461, 0.1};
Point(p13 + 13) = {20.29967676132298, 0.4853505137078007, 0.1};
Point(p13 + 14) = {20.12040624273533, 0.3754933986270372, 0.1};
Point(p13 + 15) = {19.96052828074239, 0.2389447192576057, 0.1};
Point(p13 + 16) = {19.82397960137296, 0.07906675726466661, 0.1};
Point(p13 + 17) = {19.7141224862922, -0.100203761322979, 0.1};
Point(p13 + 18) = {19.63366198226825, -0.2944526013729628, 0.1};
Point(p13 + 19) = {19.5845792939433, -0.4988967117683148, 0.1};
Point(p13 + 20) = {19.568083, -0.7085019999999999, 0.1};
Point(p13 + 21) = {19.5845792939433, -0.9181072882316849, 0.1};
Point(p13 + 22) = {19.63366198226825, -1.122551398627037, 0.1};
Point(p13 + 23) = {19.7141224862922, -1.31680023867702, 0.1};
Point(p13 + 24) = {19.82397960137296, -1.496070757264666, 0.1};
Point(p13 + 25) = {19.96052828074239, -1.655948719257605, 0.1};
Point(p13 + 26) = {20.12040624273533, -1.792497398627037, 0.1};
Point(p13 + 27) = {20.29967676132298, -1.902354513707801, 0.1};
Point(p13 + 28) = {20.49392560137296, -1.982815017731746, 0.1};
Point(p13 + 29) = {20.69836971176831, -2.0318977060567, 0.1};
Point(p13 + 30) = {20.907975, -2.048394, 0.1};
Point(p13 + 31) = {21.11758028823169, -2.0318977060567, 0.1};
Point(p13 + 32) = {21.32202439862704, -1.982815017731746, 0.1};
Point(p13 + 33) = {21.51627323867702, -1.902354513707801, 0.1};
Point(p13 + 34) = {21.69554375726467, -1.792497398627037, 0.1};
Point(p13 + 35) = {21.85542171925761, -1.655948719257606, 0.1};
Point(p13 + 36) = {21.99197039862704, -1.496070757264667, 0.1};
Point(p13 + 37) = {22.1018275137078, -1.316800238677021, 0.1};
Point(p13 + 38) = {22.18228801773175, -1.122551398627037, 0.1};
Point(p13 + 39) = {22.2313707060567, -0.9181072882316853, 0.1};
Spline(13) = {9, p13 + 1, p13 + 2, p13 + 3, p13 + 4, p13 + 5, p13 + 6, p13 + 7, p13 + 8, p13 + 9, p13 + 10, p13 + 11, p13 + 12, p13 + 13, p13 + 14, p13 + 15, p13 + 16, p13 + 17, p13 + 18, p13 + 19, p13 + 20, p13 + 21, p13 + 22, p13 + 23, p13 + 24, p13 + 25, p13 + 26, p13 + 27, p13 + 28, p13 + 29, p13 + 30, p13 + 31, p13 + 32, p13 + 33, p13 + 34, p13 + 35, p13 + 36, p13 + 37, p13 + 38, p13 + 39, 9};
Line(14) = {10, 9};
p15 = newp;
Point(p15 + 1) = {22.2313707060567, -0.498896711768315, 0};
Point(p15 + 2) = {22.18228801773175, -0.2944526013729629, 0};
Point(p15 + 3) = {22.1018275137078, -0.1002037613229791, 0};
Point(p15 + 4) = {21.99197039862704, 0.0790667572646665, 0};
Point(p15 + 5) = {21.85542171925761, 0.2389447192576055, 0};
Point(p15 + 6) = {21.69554375726467, 0.375493398627037, 0};
Point(p15 + 7) = {21.51627323867702, 0.4853505137078007, 0};
Point(p15 + 8) = {21.32202439862704, 0.5658110177317459, 0};
Point(p15 + 9) = {21.11758028823169, 0.6148937060567004, 0};
Point(p15 + 10) = {20.907975, 0.6313900000000001, 0};
Point(p15 + 11) = {20.69836971176831, 0.6148937060567004, 0};
Point(p15 + 12) = {20.49392560137296, 0.5658110177317461, 0};
Point(p15 + 13) = {20.29967676132298, 0.4853505137078007, 0};
Point(p15 + 14) = {20.12040624273533, 0.3754933986270372, 0};
Point(p15 + 15) = {19.96052828074239, 0.2389447192576057, 0};
Point(p15 + 16) = {19.82397960137296, 0.07906675726466661, 0};
Point(p15 + 17) = {19.7141224862922, -0.100203761322979, 0};
Point(p15 + 18) = {19.63366198226825, -0.2944526013729628, 0};
Point(p15 + 19) = {19.5845792939433, -0.4988967117683148, 0};
Point(p15 + 20) = {19.568083, -0.7085019999999999, 0};
Point(p15 + 21) = {19.5845792939433, -0.9181072882316849, 0};
Point(p15 + 22) = {19.63366198226825, -1.122551398627037, 0};
Point(p15 + 23) = {19.7141224862922, -1.31680023867702, 0};
Point(p15 + 24) = {19.82397960137296, -1.496070757264666, 0};
Point(p15 + 25) = {19.96052828074239, -1.655948719257605, 0};
Point(p15 + 26) = {20.12040624273533, -1.792497398627037, 0};
Point(p15 + 27) = {20.29967676132298, -1.902354513707801, 0};
Point(p15 + 28) = {20.49392560137296, -1.982815017731746, 0};
Point(p15 + 29) = {20.69836971176831, -2.0318977060567, 0};
Point(p15 + 30) = {20.907975, -2.048394, 0};
Point(p15 + 31) = {21.11758028823169, -2.0318977060567, 0};
Point(p15 + 32) = {21.32202439862704, -1.982815017731746, 0};
Point(p15 + 33) = {21.51627323867702, -1.902354513707801, 0};
Point(p15 + 34) = {21.69554375726467, -1.792497398627037, 0};
Point(p15 + 35) = {21.85542171925761, -1.655948719257606, 0};
Point(p15 + 36) = {21.99197039862704, -1.496070757264667, 0};
Point(p15 + 37) = {22.1018275137078, -1.316800238677021, 0};
Point(p15 + 38) = {22.18228801773175, -1.122551398627037, 0};
Point(p15 + 39) = {22.2313707060567, -0.9181072882316853, 0};
Spline(15) = {10, p15 + 1, p15 + 2, p15 + 3, p15 + 4, p15 + 5, p15 + 6, p15 + 7, p15 + 8, p15 + 9, p15 + 10, p15 + 11, p15 + 12, p15 + 13, p15 + 14, p15 + 15, p15 + 16, p15 + 17, p15 + 18, p15 + 19, p15 + 20, p15 + 21, p15 + 22, p15 + 23, p15 + 24, p15 + 25, p15 + 26, p15 + 27, p15 + 28, p15 + 29, p15 + 30, p15 + 31, p15 + 32, p15 + 33, p15 + 34, p15 + 35, p15 + 36, p15 + 37, p15 + 38, p15 + 39, 10};
p16 = newp;
Point(p16 + 1) = {23.71042313101957, 2.397299325248821, 0.1};
Point(p16 + 2) = {23.67196975262445, 2.557469173437236, 0.1};
Point(p16 + 3) = {23.60893371461016, 2.709651631329596, 0.1};
Point(p16 + 4) = {23.52286717343724, 2.850099461747969, 0.1};
Point(p16 + 5) = {23.41588937298783, 2.97535437298783, 0.1};
Point(p16 + 6) = {23.29063446174797, 3.082332173437236, 0.1};
Point(p16 + 7) = {23.1501866313296, 3.168398714610158, 0.1};
Point(p16 + 8) = {22.99800417343724, 3.231434752624446, 0.1};
Point(p16 + 9) = {22.83783432524882, 3.269888131019572, 0.1};
Point(p16 + 10) = {22.673621, 3.282812, 0.1};
Point(p16 + 11) = {22.50940767475118, 3.269888131019572, 0.1};
Point(p16 + 12) = {22.34923782656276, 3.231434752624446, 0.1};
Point(p16 + 13) = {22.19705536867041, 3.168398714610159, 0.1};
Point(p16 + 14) = {22.05660753825203, 3.082332173437236, 0.1};
Point(p16 + 15) = {21.93135262701217, 2.97535437298783, 0.1};
Point(p16 + 16) = {21.82437482656276, 2.850099461747969, 0.1};
Point(p16 + 17) = {21.73830828538984, 2.709651631329596, 0.1};
Point(p16 + 18) = {21.67527224737556, 2.557469173437236, 0.1};
Point(p16 + 19) = {21.63681886898043, 2.397299325248821, 0.1};
Point(p16 + 20) = {21.623895, 2.233086, 0.1};
Point(p16 + 21) = {21.63681886898043, 2.068872674751179, 0.1};
Point(p16 + 22) = {21.67527224737556, 1.908702826562764, 0.1};
Point(p16 + 23) = {21.73830828538984, 1.756520368670405, 0.1};
Point(p16 + 24) = {21.82437482656276, 1.616072538252032, 0.1};
Point(p16 + 25) = {21.93135262701217, 1.49081762701217, 0.1};
Point(p16 + 26) = {22.05660753825203, 1.383839826562764, 0.1};
Point(p16 + 27) = {22.19705536867041, 1.297773285389842, 0.1};
Point(p16 + 28) = {22.34923782656276, 1.234737247375554, 0.1};
Point(p16 + 29) = {22.50940767475118, 1.196283868980429, 0.1};
Point(p16 + 30) = {22.673621, 1.18336, 0.1};
Point(p16 + 31) = {22.83783432524882, 1.196283868980428, 0.1};
Point(p16 + 32) = {22.99800417343724, 1.234737247375554, 0.1};
Point(p16 + 33) = {23.1501866313296, 1.297773285389841, 0.1};
Point(p16 + 34) = {23.29063446174797, 1.383839826562764, 0.1};
Point(p16 + 35) = {23.41588937298783, 1.49081762701217, 0.1};
Point(p16 + 36) = {23.52286717343724, 1.616072538252031, 0.1};
Point(p16 + 37) = {23.60893371461016, 1.756520368670405, 0.1};
Point(p16 + 38) = {23.67196975262445, 1.908702826562764, 0.1};
Point(p16 + 39) = {23.71042313101957, 2.068872674751178, 0.1};
Spline(16) = {11, p16 + 1, p16 + 2, p16 + 3, p16 + 4, p16 + 5, p16 + 6, p16 + 7, p16 + 8, p16 + 9, p16 + 10, p16 + 11, p16 + 12, p16 + 13, p16 + 14, p16 + 15, p16 + 16, p16 + 17, p16 + 18, p16 + 19, p16 + 20, p16 + 21, p16 + 22, p16 + 23, p16 + 24, p16 + 25, p16 + 26, p16 + 27, p16 + 28, p16 + 29, p16 + 30, p16 + 31, p16 + 32, p16 + 33, p16 + 34, p16 + 35, p16 + 36, p16 + 37, p16 + 38, p16 + 39, 11};
Line(17) = {12, 11};
p18 = newp;
Point(p18 + 1) = {23.71042313101957, 2.397299325248821, 0};
Point(p18 + 2) = {23.67196975262445, 2.557469173437236, 0};
Point(p18 + 3) = {23.60893371461016, 2.709651631329596, 0};
Point(p18 + 4) = {23.52286717343724, 2.850099461747969, 0};
Point(p18 + 5) = {23.41588937298783, 2.97535437298783, 0};
Point(p18 + 6) = {23.29063446174797, 3.082332173437236, 0};
Point(p18 + 7) = {23.1501866313296, 3.168398714610158, 0};
Point(p18 + 8) = {22.99800417343724, 3.231434752624446, 0};
Point(p18 + 9) = {22.83783432524882, 3.269888131019572, 0};
Point(p18 + 10) = {22.673621, 3.282812, 0};
Point(p18 + 11) = {22.50940767475118, 3.269888131019572, 0};
Point(p18 + 12) = {22.34923782656276, 3.231434752624446, 0};
Point(p18 + 13) = {22.19705536867041, 3.168398714610159, 0};
Point(p18 + 14) = {22.05660753825203, 3.082332173437236, 0};
Point(p18 + 15) = {21.93135262701217, 2.97535437298783, 0};
Point(p18 + 16) = {21.82437482656276, 2.850099461747969, 0};
Point(p18 + 17) = {21.73830828538984, 2.709651631329596, 0};
Point(p18 + 18) = {21.67527224737556, 2.557469173437236, 0};
Point(p18 + 19) = {21.63681886898043, 2.397299325248821, 0};
Point(p18 + 20) = {21.623895, 2.233086, 0};
Point(p18 + 21) = {21.63681886898043, 2.068872674751179, 0};
Point(p18 + 22) = {21.67527224737556, 1.908702826562764, 0};
Point(p18 + 23) = {21.73830828538984, 1.756520368670405, 0};
Point(p18 + 24) = {21.82437482656276, 1.616072538252032, 0};
Point(p18 + 25) = {21.93135262701217, 1.49081762701217, 0};
Point(p18 + 26) = {22.05660753825203, 1.383839826562764, 0};
Point(p18 + 27) = {22.19705536867041, 1.297773285389842, 0};
Point(p18 + 28) = {22.34923782656276, 1.234737247375554, 0};
Point(p18 + 29) = {22.50940767475118, 1.196283868980429, 0};
Point(p18 + 30) = {22.673621, 1.18336, 0};
Point(p18 + 31) = {22.83783432524882, 1.196283868980428, 0};
Point(p18 + 32) = {22.99800417343724, 1.234737247375554, 0};
Point(p18 + 33) = {23.1501866313296, 1.297773285389841, 0};
Point(p18 + 34) = {23.29063446174797, 1.383839826562764, 0};
Point(p18 + 35) = {23.41588937298783, 1.49081762701217, 0};
Point(p18 + 36) = {23.52286717343724, 1.616072538252031, 0};
Point(p18 + 37) = {23.60893371461016, 1.756520368670405, 0};
Point(p18 + 38) = {23.67196975262445, 1.908702826562764, 0};
Point(p18 + 39) = {23.71042313101957, 2.068872674751178, 0};
Spline(18) = {12, p18 + 1, p18 + 2, p18 + 3, p18 + 4, p18 + 5, p18 + 6, p18 + 7, p18 + 8, p18 + 9, p18 + 10, p18 + 11, p18 + 12, p18 + 13, p18 + 14, p18 + 15, p18 + 16, p18 + 17, p18 + 18, p18 + 19, p18 + 20, p18 + 21, p18 + 22, p18 + 23, p18 + 24, p18 + 25, p18 + 26, p18 + 27, p18 + 28, p18 + 29, p18 + 30, p18 + 31, p18 + 32, p18 + 33, p18 + 34, p18 + 35, p18 + 36, p18 + 37, p18 + 38, p18 + 39, 12};
Line(19) = {14, 13};
Line(20) = {13, 15};
Line(21) = {16, 15};
Line(22) = {14, 16};
Line(23) = {14, 17};
Line(24) = {17, 18};
Line(25) = {13, 18};
Line(26) = {15, 19};
Line(27) = {18, 19};
Line(28) = {16, 20};
Line(29) = {20, 19};
Line(30) = {17, 20};
Curve Loop(7) = {-13, -14, 15, 14};
Surface(7) = {7};
Curve Loop(8) = {13};
Plane Surface(8) = {8};
Curve Loop(9) = {15};
Plane Surface(9) = {9};
Curve Loop(10) = {-16, -17, 18, 17};
Surface(10) = {10};
Curve Loop(11) = {16};
Plane Surface(11) = {11};
Curve Loop(12) = {18};
Plane Surface(12) = {12};
Curve Loop(13) = {-19, 22, 21, -20};
Plane Surface(13) = {13};
Curve Loop(14) = {-23, 19, 25, -24};
Plane Surface(14) = {14};
Curve Loop(15) = {-20, 25, 27, -26};
Plane Surface(15) = {15};
Curve Loop(16) = {-28, 21, 26, -29};
Plane Surface(16) = {16};
Curve Loop(17) = {-22, 23, 30, -28, -15, -18};
Plane Surface(17) = {17};
Curve Loop(18) = {-24, 30, 29, -27};
Plane Surface(18) = {18};
Surface Loop(1) = {13, 14, 15, 16, 17, 18, 7, 10, 8, 11};
Volume(1) = {1};
Surface Loop(2) = {7, 8, 9};
Volume(2) = {2};
Surface Loop(3) = {10, 11, 12};
Volume(3) = {3};
Physical Surface("WALLS") = {13, 18};
Physical Surface("LOAD") = {8, 11};
Physical Surface("BORDER") = {7, 9, 10, 12, 14, 15, 16, 17};
Physical Volume("SOLID") = {1, 2, 3};
