cl__1 = 0.148016;
cl__2 = 0.075644;
cl__3 = 0.98171;
cl__4 = 1.215621;
cl__5 = 0.917127;
cl__6 = 1.10523;
Point(9) = {23.629103, -0.9389490000000004, 0.1, cl__1};
Point(10) = {23.629103, -0.9389490000000004, 0, cl__1};
Point(11) = {12.094507, -0.4497360000000002, 0.1, cl__2};
Point(12) = {12.094507, -0.4497360000000002, 0, cl__2};
Point(13) = {0.9337, -3.106937, 1, cl__3};
Point(14) = {0.9337, -3.106937, 0, cl__3};
Point(15) = {0.9337, 4.697748000000001, 1, cl__4};
Point(16) = {0.9337, 4.697748000000001, 0, cl__4};
Point(17) = {32.734575, -3.106937, 0, cl__5};
Point(18) = {32.734575, -3.106937, 1, cl__5};
Point(19) = {32.734575, 4.697748000000001, 1, cl__6};
Point(20) = {32.734575, 4.697748000000001, 0, cl__6};
p13 = newp;
Point(p13 + 1) = {23.61087976190364, -0.7074008057915868, 0.1};
Point(p13 + 2) = {23.55665876421595, -0.4815540965889835, 0.1};
Point(p13 + 3) = {23.46777510784918, -0.2669699679150127, 0.1};
Point(p13 + 4) = {23.34641740341102, -0.06893219318152066, 0.1};
Point(p13 + 5) = {23.19557388034786, 0.1076828803478613, 0.1};
Point(p13 + 6) = {23.01895880681848, 0.2585264034110164, 0.1};
Point(p13 + 7) = {22.82092103208499, 0.3798841078491786, 0.1};
Point(p13 + 8) = {22.60633690341102, 0.4687677642159507, 0.1};
Point(p13 + 9) = {22.38049019420842, 0.5229887619036397, 0.1};
Point(p13 + 10) = {22.148942, 0.541212, 0.1};
Point(p13 + 11) = {21.91739380579159, 0.5229887619036395, 0.1};
Point(p13 + 12) = {21.69154709658898, 0.4687677642159509, 0.1};
Point(p13 + 13) = {21.47696296791501, 0.3798841078491788, 0.1};
Point(p13 + 14) = {21.27892519318152, 0.2585264034110166, 0.1};
Point(p13 + 15) = {21.10231011965214, 0.1076828803478616, 0.1};
Point(p13 + 16) = {20.95146659658899, -0.06893219318152055, 0.1};
Point(p13 + 17) = {20.83010889215082, -0.2669699679150126, 0.1};
Point(p13 + 18) = {20.74122523578405, -0.4815540965889833, 0.1};
Point(p13 + 19) = {20.68700423809636, -0.7074008057915867, 0.1};
Point(p13 + 20) = {20.668781, -0.9389489999999998, 0.1};
Point(p13 + 21) = {20.68700423809636, -1.170497194208413, 0.1};
Point(p13 + 22) = {20.74122523578405, -1.396343903411017, 0.1};
Point(p13 + 23) = {20.83010889215082, -1.610928032084987, 0.1};
Point(p13 + 24) = {20.95146659658899, -1.808965806818479, 0.1};
Point(p13 + 25) = {21.10231011965214, -1.985580880347861, 0.1};
Point(p13 + 26) = {21.27892519318152, -2.136424403411016, 0.1};
Point(p13 + 27) = {21.47696296791501, -2.257782107849179, 0.1};
Point(p13 + 28) = {21.69154709658898, -2.346665764215951, 0.1};
Point(p13 + 29) = {21.91739380579159, -2.40088676190364, 0.1};
Point(p13 + 30) = {22.148942, -2.41911, 0.1};
Point(p13 + 31) = {22.38049019420841, -2.40088676190364, 0.1};
Point(p13 + 32) = {22.60633690341102, -2.346665764215951, 0.1};
Point(p13 + 33) = {22.82092103208499, -2.257782107849179, 0.1};
Point(p13 + 34) = {23.01895880681848, -2.136424403411017, 0.1};
Point(p13 + 35) = {23.19557388034786, -1.985580880347862, 0.1};
Point(p13 + 36) = {23.34641740341102, -1.80896580681848, 0.1};
Point(p13 + 37) = {23.46777510784918, -1.610928032084988, 0.1};
Point(p13 + 38) = {23.55665876421595, -1.396343903411017, 0.1};
Point(p13 + 39) = {23.61087976190364, -1.170497194208413, 0.1};
Spline(13) = {9, p13 + 1, p13 + 2, p13 + 3, p13 + 4, p13 + 5, p13 + 6, p13 + 7, p13 + 8, p13 + 9, p13 + 10, p13 + 11, p13 + 12, p13 + 13, p13 + 14, p13 + 15, p13 + 16, p13 + 17, p13 + 18, p13 + 19, p13 + 20, p13 + 21, p13 + 22, p13 + 23, p13 + 24, p13 + 25, p13 + 26, p13 + 27, p13 + 28, p13 + 29, p13 + 30, p13 + 31, p13 + 32, p13 + 33, p13 + 34, p13 + 35, p13 + 36, p13 + 37, p13 + 38, p13 + 39, 9};
Line(14) = {10, 9};
p15 = newp;
Point(p15 + 1) = {23.61087976190364, -0.7074008057915868, 0};
Point(p15 + 2) = {23.55665876421595, -0.4815540965889835, 0};
Point(p15 + 3) = {23.46777510784918, -0.2669699679150127, 0};
Point(p15 + 4) = {23.34641740341102, -0.06893219318152066, 0};
Point(p15 + 5) = {23.19557388034786, 0.1076828803478613, 0};
Point(p15 + 6) = {23.01895880681848, 0.2585264034110164, 0};
Point(p15 + 7) = {22.82092103208499, 0.3798841078491786, 0};
Point(p15 + 8) = {22.60633690341102, 0.4687677642159507, 0};
Point(p15 + 9) = {22.38049019420842, 0.5229887619036397, 0};
Point(p15 + 10) = {22.148942, 0.541212, 0};
Point(p15 + 11) = {21.91739380579159, 0.5229887619036395, 0};
Point(p15 + 12) = {21.69154709658898, 0.4687677642159509, 0};
Point(p15 + 13) = {21.47696296791501, 0.3798841078491788, 0};
Point(p15 + 14) = {21.27892519318152, 0.2585264034110166, 0};
Point(p15 + 15) = {21.10231011965214, 0.1076828803478616, 0};
Point(p15 + 16) = {20.95146659658899, -0.06893219318152055, 0};
Point(p15 + 17) = {20.83010889215082, -0.2669699679150126, 0};
Point(p15 + 18) = {20.74122523578405, -0.4815540965889833, 0};
Point(p15 + 19) = {20.68700423809636, -0.7074008057915867, 0};
Point(p15 + 20) = {20.668781, -0.9389489999999998, 0};
Point(p15 + 21) = {20.68700423809636, -1.170497194208413, 0};
Point(p15 + 22) = {20.74122523578405, -1.396343903411017, 0};
Point(p15 + 23) = {20.83010889215082, -1.610928032084987, 0};
Point(p15 + 24) = {20.95146659658899, -1.808965806818479, 0};
Point(p15 + 25) = {21.10231011965214, -1.985580880347861, 0};
Point(p15 + 26) = {21.27892519318152, -2.136424403411016, 0};
Point(p15 + 27) = {21.47696296791501, -2.257782107849179, 0};
Point(p15 + 28) = {21.69154709658898, -2.346665764215951, 0};
Point(p15 + 29) = {21.91739380579159, -2.40088676190364, 0};
Point(p15 + 30) = {22.148942, -2.41911, 0};
Point(p15 + 31) = {22.38049019420841, -2.40088676190364, 0};
Point(p15 + 32) = {22.60633690341102, -2.346665764215951, 0};
Point(p15 + 33) = {22.82092103208499, -2.257782107849179, 0};
Point(p15 + 34) = {23.01895880681848, -2.136424403411017, 0};
Point(p15 + 35) = {23.19557388034786, -1.985580880347862, 0};
Point(p15 + 36) = {23.34641740341102, -1.80896580681848, 0};
Point(p15 + 37) = {23.46777510784918, -1.610928032084988, 0};
Point(p15 + 38) = {23.55665876421595, -1.396343903411017, 0};
Point(p15 + 39) = {23.61087976190364, -1.170497194208413, 0};
Spline(15) = {10, p15 + 1, p15 + 2, p15 + 3, p15 + 4, p15 + 5, p15 + 6, p15 + 7, p15 + 8, p15 + 9, p15 + 10, p15 + 11, p15 + 12, p15 + 13, p15 + 14, p15 + 15, p15 + 16, p15 + 17, p15 + 18, p15 + 19, p15 + 20, p15 + 21, p15 + 22, p15 + 23, p15 + 24, p15 + 25, p15 + 26, p15 + 27, p15 + 28, p15 + 29, p15 + 30, p15 + 31, p15 + 32, p15 + 33, p15 + 34, p15 + 35, p15 + 36, p15 + 37, p15 + 38, p15 + 39, 10};
p16 = newp;
Point(p16 + 1) = {12.08519391911315, -0.3314020875271076, 0.1};
Point(p16 + 2) = {12.05748399541237, -0.2159819487070373, 0.1};
Point(p16 + 3) = {12.01205953918315, -0.1063176104150183, 0.1};
Point(p16 + 4) = {11.95003905129296, -0.005109372614872487, 0.1};
Point(p16 + 5) = {11.87294968198788, 0.08515068198787668, 0.1};
Point(p16 + 6) = {11.78268962738513, 0.1622400512929626, 0.1};
Point(p16 + 7) = {11.68148138958498, 0.2242605391831457, 0.1};
Point(p16 + 8) = {11.57181705129296, 0.2696849954123711, 0.1};
Point(p16 + 9) = {11.45639691247289, 0.2973949191131484, 0.1};
Point(p16 + 10) = {11.338063, 0.306708, 0.1};
Point(p16 + 11) = {11.21972908752711, 0.2973949191131483, 0.1};
Point(p16 + 12) = {11.10430894870704, 0.2696849954123712, 0.1};
Point(p16 + 13) = {10.99464461041502, 0.2242605391831457, 0.1};
Point(p16 + 14) = {10.89343637261487, 0.1622400512929627, 0.1};
Point(p16 + 15) = {10.80317631801212, 0.08515068198787679, 0.1};
Point(p16 + 16) = {10.72608694870704, -0.005109372614872376, 0.1};
Point(p16 + 17) = {10.66406646081685, -0.1063176104150182, 0.1};
Point(p16 + 18) = {10.61864200458763, -0.2159819487070372, 0.1};
Point(p16 + 19) = {10.59093208088685, -0.3314020875271075, 0.1};
Point(p16 + 20) = {10.581619, -0.4497359999999999, 0.1};
Point(p16 + 21) = {10.59093208088685, -0.5680699124728923, 0.1};
Point(p16 + 22) = {10.61864200458763, -0.6834900512929629, 0.1};
Point(p16 + 23) = {10.66406646081685, -0.7931543895849814, 0.1};
Point(p16 + 24) = {10.72608694870704, -0.8943626273851275, 0.1};
Point(p16 + 25) = {10.80317631801212, -0.9846226819878767, 0.1};
Point(p16 + 26) = {10.89343637261487, -1.061712051292963, 0.1};
Point(p16 + 27) = {10.99464461041502, -1.123732539183146, 0.1};
Point(p16 + 28) = {11.10430894870704, -1.169156995412371, 0.1};
Point(p16 + 29) = {11.21972908752711, -1.196866919113148, 0.1};
Point(p16 + 30) = {11.338063, -1.20618, 0.1};
Point(p16 + 31) = {11.45639691247289, -1.196866919113148, 0.1};
Point(p16 + 32) = {11.57181705129296, -1.169156995412371, 0.1};
Point(p16 + 33) = {11.68148138958498, -1.123732539183146, 0.1};
Point(p16 + 34) = {11.78268962738513, -1.061712051292963, 0.1};
Point(p16 + 35) = {11.87294968198788, -0.9846226819878769, 0.1};
Point(p16 + 36) = {11.95003905129296, -0.8943626273851277, 0.1};
Point(p16 + 37) = {12.01205953918315, -0.793154389584982, 0.1};
Point(p16 + 38) = {12.05748399541237, -0.6834900512929629, 0.1};
Point(p16 + 39) = {12.08519391911315, -0.5680699124728926, 0.1};
Spline(16) = {11, p16 + 1, p16 + 2, p16 + 3, p16 + 4, p16 + 5, p16 + 6, p16 + 7, p16 + 8, p16 + 9, p16 + 10, p16 + 11, p16 + 12, p16 + 13, p16 + 14, p16 + 15, p16 + 16, p16 + 17, p16 + 18, p16 + 19, p16 + 20, p16 + 21, p16 + 22, p16 + 23, p16 + 24, p16 + 25, p16 + 26, p16 + 27, p16 + 28, p16 + 29, p16 + 30, p16 + 31, p16 + 32, p16 + 33, p16 + 34, p16 + 35, p16 + 36, p16 + 37, p16 + 38, p16 + 39, 11};
Line(17) = {12, 11};
p18 = newp;
Point(p18 + 1) = {12.08519391911315, -0.3314020875271076, 0};
Point(p18 + 2) = {12.05748399541237, -0.2159819487070373, 0};
Point(p18 + 3) = {12.01205953918315, -0.1063176104150183, 0};
Point(p18 + 4) = {11.95003905129296, -0.005109372614872487, 0};
Point(p18 + 5) = {11.87294968198788, 0.08515068198787668, 0};
Point(p18 + 6) = {11.78268962738513, 0.1622400512929626, 0};
Point(p18 + 7) = {11.68148138958498, 0.2242605391831457, 0};
Point(p18 + 8) = {11.57181705129296, 0.2696849954123711, 0};
Point(p18 + 9) = {11.45639691247289, 0.2973949191131484, 0};
Point(p18 + 10) = {11.338063, 0.306708, 0};
Point(p18 + 11) = {11.21972908752711, 0.2973949191131483, 0};
Point(p18 + 12) = {11.10430894870704, 0.2696849954123712, 0};
Point(p18 + 13) = {10.99464461041502, 0.2242605391831457, 0};
Point(p18 + 14) = {10.89343637261487, 0.1622400512929627, 0};
Point(p18 + 15) = {10.80317631801212, 0.08515068198787679, 0};
Point(p18 + 16) = {10.72608694870704, -0.005109372614872376, 0};
Point(p18 + 17) = {10.66406646081685, -0.1063176104150182, 0};
Point(p18 + 18) = {10.61864200458763, -0.2159819487070372, 0};
Point(p18 + 19) = {10.59093208088685, -0.3314020875271075, 0};
Point(p18 + 20) = {10.581619, -0.4497359999999999, 0};
Point(p18 + 21) = {10.59093208088685, -0.5680699124728923, 0};
Point(p18 + 22) = {10.61864200458763, -0.6834900512929629, 0};
Point(p18 + 23) = {10.66406646081685, -0.7931543895849814, 0};
Point(p18 + 24) = {10.72608694870704, -0.8943626273851275, 0};
Point(p18 + 25) = {10.80317631801212, -0.9846226819878767, 0};
Point(p18 + 26) = {10.89343637261487, -1.061712051292963, 0};
Point(p18 + 27) = {10.99464461041502, -1.123732539183146, 0};
Point(p18 + 28) = {11.10430894870704, -1.169156995412371, 0};
Point(p18 + 29) = {11.21972908752711, -1.196866919113148, 0};
Point(p18 + 30) = {11.338063, -1.20618, 0};
Point(p18 + 31) = {11.45639691247289, -1.196866919113148, 0};
Point(p18 + 32) = {11.57181705129296, -1.169156995412371, 0};
Point(p18 + 33) = {11.68148138958498, -1.123732539183146, 0};
Point(p18 + 34) = {11.78268962738513, -1.061712051292963, 0};
Point(p18 + 35) = {11.87294968198788, -0.9846226819878769, 0};
Point(p18 + 36) = {11.95003905129296, -0.8943626273851277, 0};
Point(p18 + 37) = {12.01205953918315, -0.793154389584982, 0};
Point(p18 + 38) = {12.05748399541237, -0.6834900512929629, 0};
Point(p18 + 39) = {12.08519391911315, -0.5680699124728926, 0};
Spline(18) = {12, p18 + 1, p18 + 2, p18 + 3, p18 + 4, p18 + 5, p18 + 6, p18 + 7, p18 + 8, p18 + 9, p18 + 10, p18 + 11, p18 + 12, p18 + 13, p18 + 14, p18 + 15, p18 + 16, p18 + 17, p18 + 18, p18 + 19, p18 + 20, p18 + 21, p18 + 22, p18 + 23, p18 + 24, p18 + 25, p18 + 26, p18 + 27, p18 + 28, p18 + 29, p18 + 30, p18 + 31, p18 + 32, p18 + 33, p18 + 34, p18 + 35, p18 + 36, p18 + 37, p18 + 38, p18 + 39, 12};
Line(19) = {14, 13};
Line(20) = {13, 15};
Line(21) = {16, 15};
Line(22) = {14, 16};
Line(23) = {14, 17};
Line(24) = {17, 18};
Line(25) = {13, 18};
Line(26) = {15, 19};
Line(27) = {18, 19};
Line(28) = {16, 20};
Line(29) = {20, 19};
Line(30) = {17, 20};
Curve Loop(7) = {-13, -14, 15, 14};
Surface(7) = {7};
Curve Loop(8) = {13};
Plane Surface(8) = {8};
Curve Loop(9) = {15};
Plane Surface(9) = {9};
Curve Loop(10) = {-16, -17, 18, 17};
Surface(10) = {10};
Curve Loop(11) = {16};
Plane Surface(11) = {11};
Curve Loop(12) = {18};
Plane Surface(12) = {12};
Curve Loop(13) = {-19, 22, 21, -20};
Plane Surface(13) = {13};
Curve Loop(14) = {-23, 19, 25, -24};
Plane Surface(14) = {14};
Curve Loop(15) = {-20, 25, 27, -26};
Plane Surface(15) = {15};
Curve Loop(16) = {-28, 21, 26, -29};
Plane Surface(16) = {16};
Curve Loop(17) = {-22, 23, 30, -28, -18, -15};
Plane Surface(17) = {17};
Curve Loop(18) = {-24, 30, 29, -27};
Plane Surface(18) = {18};
Surface Loop(1) = {13, 14, 15, 16, 17, 18, 10, 7, 11, 8};
Volume(1) = {1};
Surface Loop(2) = {7, 8, 9};
Volume(2) = {2};
Surface Loop(3) = {10, 11, 12};
Volume(3) = {3};
Physical Surface("WALLS") = {13, 18};
Physical Surface("LOAD") = {8, 11};
Physical Surface("BORDER") = {7, 9, 10, 12, 14, 15, 16, 17};
Physical Volume("SOLID") = {1, 2, 3};
