cl__1 = 0.147072;
cl__2 = 0.147321;
cl__3 = 0.916502;
cl__4 = 0.9370810000000001;
cl__5 = 1.025727;
cl__6 = 1.473425;
Point(9) = {11.323312, -0.1249420000000004, 0.1, cl__1};
Point(10) = {11.323312, -0.1249420000000004, 0, cl__1};
Point(11) = {28.446248, -1.702853, 0.1, cl__2};
Point(12) = {28.446248, -1.702853, 0, cl__2};
Point(13) = {0.304082, -3.832717, 1, cl__3};
Point(14) = {0.304082, -3.832717, 0, cl__3};
Point(15) = {0.304082, 4.096626000000001, 1, cl__4};
Point(16) = {0.304082, 4.096626000000001, 0, cl__4};
Point(17) = {37.893482, -3.832717, 0, cl__5};
Point(18) = {37.893482, -3.832717, 1, cl__5};
Point(19) = {37.893482, 4.096626000000001, 1, cl__6};
Point(20) = {37.893482, 4.096626000000001, 0, cl__6};
p13 = newp;
Point(p13 + 1) = {11.30520494703344, 0.1051299221618285, 0.1};
Point(p13 + 2) = {11.25132964387167, 0.3295367100351001, 0.1};
Point(p13 + 3) = {11.16301267928041, 0.5427527237389451, 0.1};
Point(p13 + 4) = {11.0424287100351, 0.7395278773925952, 0.1};
Point(p13 + 5) = {10.8925469136538, 0.9150169136538037, 0.1};
Point(p13 + 6) = {10.7170578773926, 1.0648987100351, 0.1};
Point(p13 + 7) = {10.52028272373895, 1.185482679280413, 0.1};
Point(p13 + 8) = {10.3070667100351, 1.273799643871673, 0.1};
Point(p13 + 9) = {10.08265992216183, 1.327674947033443, 0.1};
Point(p13 + 10) = {9.852588000000001, 1.345782, 0.1};
Point(p13 + 11) = {9.622516077838172, 1.327674947033443, 0.1};
Point(p13 + 12) = {9.3981092899649, 1.273799643871674, 0.1};
Point(p13 + 13) = {9.184893276261056, 1.185482679280413, 0.1};
Point(p13 + 14) = {8.988118122607405, 1.0648987100351, 0.1};
Point(p13 + 15) = {8.812629086346197, 0.9150169136538039, 0.1};
Point(p13 + 16) = {8.662747289964901, 0.7395278773925954, 0.1};
Point(p13 + 17) = {8.542163320719588, 0.5427527237389452, 0.1};
Point(p13 + 18) = {8.453846356128327, 0.3295367100351003, 0.1};
Point(p13 + 19) = {8.399971052966558, 0.1051299221618286, 0.1};
Point(p13 + 20) = {8.381864, -0.1249419999999998, 0.1};
Point(p13 + 21) = {8.399971052966558, -0.3550139221618284, 0.1};
Point(p13 + 22) = {8.453846356128327, -0.5794207100351005, 0.1};
Point(p13 + 23) = {8.542163320719588, -0.7926367237389444, 0.1};
Point(p13 + 24) = {8.662747289964901, -0.9894118773925951, 0.1};
Point(p13 + 25) = {8.812629086346197, -1.164900913653804, 0.1};
Point(p13 + 26) = {8.988118122607405, -1.3147827100351, 0.1};
Point(p13 + 27) = {9.184893276261056, -1.435366679280413, 0.1};
Point(p13 + 28) = {9.3981092899649, -1.523683643871673, 0.1};
Point(p13 + 29) = {9.622516077838172, -1.577558947033443, 0.1};
Point(p13 + 30) = {9.852588000000001, -1.595666, 0.1};
Point(p13 + 31) = {10.08265992216183, -1.577558947033443, 0.1};
Point(p13 + 32) = {10.3070667100351, -1.523683643871673, 0.1};
Point(p13 + 33) = {10.52028272373895, -1.435366679280413, 0.1};
Point(p13 + 34) = {10.7170578773926, -1.3147827100351, 0.1};
Point(p13 + 35) = {10.8925469136538, -1.164900913653804, 0.1};
Point(p13 + 36) = {11.0424287100351, -0.9894118773925954, 0.1};
Point(p13 + 37) = {11.16301267928041, -0.7926367237389454, 0.1};
Point(p13 + 38) = {11.25132964387167, -0.5794207100351004, 0.1};
Point(p13 + 39) = {11.30520494703344, -0.3550139221618289, 0.1};
Spline(13) = {9, p13 + 1, p13 + 2, p13 + 3, p13 + 4, p13 + 5, p13 + 6, p13 + 7, p13 + 8, p13 + 9, p13 + 10, p13 + 11, p13 + 12, p13 + 13, p13 + 14, p13 + 15, p13 + 16, p13 + 17, p13 + 18, p13 + 19, p13 + 20, p13 + 21, p13 + 22, p13 + 23, p13 + 24, p13 + 25, p13 + 26, p13 + 27, p13 + 28, p13 + 29, p13 + 30, p13 + 31, p13 + 32, p13 + 33, p13 + 34, p13 + 35, p13 + 36, p13 + 37, p13 + 38, p13 + 39, 9};
Line(14) = {10, 9};
p15 = newp;
Point(p15 + 1) = {11.30520494703344, 0.1051299221618285, 0};
Point(p15 + 2) = {11.25132964387167, 0.3295367100351001, 0};
Point(p15 + 3) = {11.16301267928041, 0.5427527237389451, 0};
Point(p15 + 4) = {11.0424287100351, 0.7395278773925952, 0};
Point(p15 + 5) = {10.8925469136538, 0.9150169136538037, 0};
Point(p15 + 6) = {10.7170578773926, 1.0648987100351, 0};
Point(p15 + 7) = {10.52028272373895, 1.185482679280413, 0};
Point(p15 + 8) = {10.3070667100351, 1.273799643871673, 0};
Point(p15 + 9) = {10.08265992216183, 1.327674947033443, 0};
Point(p15 + 10) = {9.852588000000001, 1.345782, 0};
Point(p15 + 11) = {9.622516077838172, 1.327674947033443, 0};
Point(p15 + 12) = {9.3981092899649, 1.273799643871674, 0};
Point(p15 + 13) = {9.184893276261056, 1.185482679280413, 0};
Point(p15 + 14) = {8.988118122607405, 1.0648987100351, 0};
Point(p15 + 15) = {8.812629086346197, 0.9150169136538039, 0};
Point(p15 + 16) = {8.662747289964901, 0.7395278773925954, 0};
Point(p15 + 17) = {8.542163320719588, 0.5427527237389452, 0};
Point(p15 + 18) = {8.453846356128327, 0.3295367100351003, 0};
Point(p15 + 19) = {8.399971052966558, 0.1051299221618286, 0};
Point(p15 + 20) = {8.381864, -0.1249419999999998, 0};
Point(p15 + 21) = {8.399971052966558, -0.3550139221618284, 0};
Point(p15 + 22) = {8.453846356128327, -0.5794207100351005, 0};
Point(p15 + 23) = {8.542163320719588, -0.7926367237389444, 0};
Point(p15 + 24) = {8.662747289964901, -0.9894118773925951, 0};
Point(p15 + 25) = {8.812629086346197, -1.164900913653804, 0};
Point(p15 + 26) = {8.988118122607405, -1.3147827100351, 0};
Point(p15 + 27) = {9.184893276261056, -1.435366679280413, 0};
Point(p15 + 28) = {9.3981092899649, -1.523683643871673, 0};
Point(p15 + 29) = {9.622516077838172, -1.577558947033443, 0};
Point(p15 + 30) = {9.852588000000001, -1.595666, 0};
Point(p15 + 31) = {10.08265992216183, -1.577558947033443, 0};
Point(p15 + 32) = {10.3070667100351, -1.523683643871673, 0};
Point(p15 + 33) = {10.52028272373895, -1.435366679280413, 0};
Point(p15 + 34) = {10.7170578773926, -1.3147827100351, 0};
Point(p15 + 35) = {10.8925469136538, -1.164900913653804, 0};
Point(p15 + 36) = {11.0424287100351, -0.9894118773925954, 0};
Point(p15 + 37) = {11.16301267928041, -0.7926367237389454, 0};
Point(p15 + 38) = {11.25132964387167, -0.5794207100351004, 0};
Point(p15 + 39) = {11.30520494703344, -0.3550139221618289, 0};
Spline(15) = {10, p15 + 1, p15 + 2, p15 + 3, p15 + 4, p15 + 5, p15 + 6, p15 + 7, p15 + 8, p15 + 9, p15 + 10, p15 + 11, p15 + 12, p15 + 13, p15 + 14, p15 + 15, p15 + 16, p15 + 17, p15 + 18, p15 + 19, p15 + 20, p15 + 21, p15 + 22, p15 + 23, p15 + 24, p15 + 25, p15 + 26, p15 + 27, p15 + 28, p15 + 29, p15 + 30, p15 + 31, p15 + 32, p15 + 33, p15 + 34, p15 + 35, p15 + 36, p15 + 37, p15 + 38, p15 + 39, 10};
p16 = newp;
Point(p16 + 1) = {28.4281103894948, -1.472392807495942, 0.1};
Point(p16 + 2) = {28.37414416614512, -1.247607309784861, 0.1};
Point(p16 + 3) = {28.28567815747345, -1.034031471840701, 0.1};
Point(p16 + 4) = {28.16489069021514, -0.8369242396112148, 0.1};
Point(p16 + 5) = {28.01475595268471, -0.6611390473152912, 0.1};
Point(p16 + 6) = {27.83897076038879, -0.5110043097848613, 0.1};
Point(p16 + 7) = {27.6418635281593, -0.3902168425265513, 0.1};
Point(p16 + 8) = {27.42828769021514, -0.301750833854882, 0.1};
Point(p16 + 9) = {27.20350219250406, -0.2477846105051995, 0.1};
Point(p16 + 10) = {26.973042, -0.2296469999999999, 0.1};
Point(p16 + 11) = {26.74258180749594, -0.2477846105051995, 0.1};
Point(p16 + 12) = {26.51779630978486, -0.3017508338548818, 0.1};
Point(p16 + 13) = {26.3042204718407, -0.3902168425265513, 0.1};
Point(p16 + 14) = {26.10711323961122, -0.5110043097848611, 0.1};
Point(p16 + 15) = {25.93132804731529, -0.6611390473152909, 0.1};
Point(p16 + 16) = {25.78119330978486, -0.8369242396112146, 0.1};
Point(p16 + 17) = {25.66040584252655, -1.034031471840701, 0.1};
Point(p16 + 18) = {25.57193983385488, -1.247607309784861, 0.1};
Point(p16 + 19) = {25.5179736105052, -1.472392807495941, 0.1};
Point(p16 + 20) = {25.499836, -1.702853, 0.1};
Point(p16 + 21) = {25.5179736105052, -1.933313192504058, 0.1};
Point(p16 + 22) = {25.57193983385488, -2.158098690215139, 0.1};
Point(p16 + 23) = {25.66040584252655, -2.371674528159298, 0.1};
Point(p16 + 24) = {25.78119330978486, -2.568781760388785, 0.1};
Point(p16 + 25) = {25.93132804731529, -2.744566952684709, 0.1};
Point(p16 + 26) = {26.10711323961121, -2.894701690215139, 0.1};
Point(p16 + 27) = {26.3042204718407, -3.015489157473449, 0.1};
Point(p16 + 28) = {26.51779630978486, -3.103955166145118, 0.1};
Point(p16 + 29) = {26.74258180749594, -3.1579213894948, 0.1};
Point(p16 + 30) = {26.973042, -3.176059, 0.1};
Point(p16 + 31) = {27.20350219250406, -3.1579213894948, 0.1};
Point(p16 + 32) = {27.42828769021514, -3.103955166145118, 0.1};
Point(p16 + 33) = {27.6418635281593, -3.015489157473449, 0.1};
Point(p16 + 34) = {27.83897076038878, -2.894701690215139, 0.1};
Point(p16 + 35) = {28.01475595268471, -2.744566952684709, 0.1};
Point(p16 + 36) = {28.16489069021514, -2.568781760388785, 0.1};
Point(p16 + 37) = {28.28567815747345, -2.371674528159299, 0.1};
Point(p16 + 38) = {28.37414416614512, -2.158098690215139, 0.1};
Point(p16 + 39) = {28.4281103894948, -1.933313192504059, 0.1};
Spline(16) = {11, p16 + 1, p16 + 2, p16 + 3, p16 + 4, p16 + 5, p16 + 6, p16 + 7, p16 + 8, p16 + 9, p16 + 10, p16 + 11, p16 + 12, p16 + 13, p16 + 14, p16 + 15, p16 + 16, p16 + 17, p16 + 18, p16 + 19, p16 + 20, p16 + 21, p16 + 22, p16 + 23, p16 + 24, p16 + 25, p16 + 26, p16 + 27, p16 + 28, p16 + 29, p16 + 30, p16 + 31, p16 + 32, p16 + 33, p16 + 34, p16 + 35, p16 + 36, p16 + 37, p16 + 38, p16 + 39, 11};
Line(17) = {12, 11};
p18 = newp;
Point(p18 + 1) = {28.4281103894948, -1.472392807495942, 0};
Point(p18 + 2) = {28.37414416614512, -1.247607309784861, 0};
Point(p18 + 3) = {28.28567815747345, -1.034031471840701, 0};
Point(p18 + 4) = {28.16489069021514, -0.8369242396112148, 0};
Point(p18 + 5) = {28.01475595268471, -0.6611390473152912, 0};
Point(p18 + 6) = {27.83897076038879, -0.5110043097848613, 0};
Point(p18 + 7) = {27.6418635281593, -0.3902168425265513, 0};
Point(p18 + 8) = {27.42828769021514, -0.301750833854882, 0};
Point(p18 + 9) = {27.20350219250406, -0.2477846105051995, 0};
Point(p18 + 10) = {26.973042, -0.2296469999999999, 0};
Point(p18 + 11) = {26.74258180749594, -0.2477846105051995, 0};
Point(p18 + 12) = {26.51779630978486, -0.3017508338548818, 0};
Point(p18 + 13) = {26.3042204718407, -0.3902168425265513, 0};
Point(p18 + 14) = {26.10711323961122, -0.5110043097848611, 0};
Point(p18 + 15) = {25.93132804731529, -0.6611390473152909, 0};
Point(p18 + 16) = {25.78119330978486, -0.8369242396112146, 0};
Point(p18 + 17) = {25.66040584252655, -1.034031471840701, 0};
Point(p18 + 18) = {25.57193983385488, -1.247607309784861, 0};
Point(p18 + 19) = {25.5179736105052, -1.472392807495941, 0};
Point(p18 + 20) = {25.499836, -1.702853, 0};
Point(p18 + 21) = {25.5179736105052, -1.933313192504058, 0};
Point(p18 + 22) = {25.57193983385488, -2.158098690215139, 0};
Point(p18 + 23) = {25.66040584252655, -2.371674528159298, 0};
Point(p18 + 24) = {25.78119330978486, -2.568781760388785, 0};
Point(p18 + 25) = {25.93132804731529, -2.744566952684709, 0};
Point(p18 + 26) = {26.10711323961121, -2.894701690215139, 0};
Point(p18 + 27) = {26.3042204718407, -3.015489157473449, 0};
Point(p18 + 28) = {26.51779630978486, -3.103955166145118, 0};
Point(p18 + 29) = {26.74258180749594, -3.1579213894948, 0};
Point(p18 + 30) = {26.973042, -3.176059, 0};
Point(p18 + 31) = {27.20350219250406, -3.1579213894948, 0};
Point(p18 + 32) = {27.42828769021514, -3.103955166145118, 0};
Point(p18 + 33) = {27.6418635281593, -3.015489157473449, 0};
Point(p18 + 34) = {27.83897076038878, -2.894701690215139, 0};
Point(p18 + 35) = {28.01475595268471, -2.744566952684709, 0};
Point(p18 + 36) = {28.16489069021514, -2.568781760388785, 0};
Point(p18 + 37) = {28.28567815747345, -2.371674528159299, 0};
Point(p18 + 38) = {28.37414416614512, -2.158098690215139, 0};
Point(p18 + 39) = {28.4281103894948, -1.933313192504059, 0};
Spline(18) = {12, p18 + 1, p18 + 2, p18 + 3, p18 + 4, p18 + 5, p18 + 6, p18 + 7, p18 + 8, p18 + 9, p18 + 10, p18 + 11, p18 + 12, p18 + 13, p18 + 14, p18 + 15, p18 + 16, p18 + 17, p18 + 18, p18 + 19, p18 + 20, p18 + 21, p18 + 22, p18 + 23, p18 + 24, p18 + 25, p18 + 26, p18 + 27, p18 + 28, p18 + 29, p18 + 30, p18 + 31, p18 + 32, p18 + 33, p18 + 34, p18 + 35, p18 + 36, p18 + 37, p18 + 38, p18 + 39, 12};
Line(19) = {14, 13};
Line(20) = {13, 15};
Line(21) = {16, 15};
Line(22) = {14, 16};
Line(23) = {14, 17};
Line(24) = {17, 18};
Line(25) = {13, 18};
Line(26) = {15, 19};
Line(27) = {18, 19};
Line(28) = {16, 20};
Line(29) = {20, 19};
Line(30) = {17, 20};
Curve Loop(7) = {-13, -14, 15, 14};
Surface(7) = {7};
Curve Loop(8) = {13};
Plane Surface(8) = {8};
Curve Loop(9) = {15};
Plane Surface(9) = {9};
Curve Loop(10) = {-16, -17, 18, 17};
Surface(10) = {10};
Curve Loop(11) = {16};
Plane Surface(11) = {11};
Curve Loop(12) = {18};
Plane Surface(12) = {12};
Curve Loop(13) = {-19, 22, 21, -20};
Plane Surface(13) = {13};
Curve Loop(14) = {-23, 19, 25, -24};
Plane Surface(14) = {14};
Curve Loop(15) = {-20, 25, 27, -26};
Plane Surface(15) = {15};
Curve Loop(16) = {-28, 21, 26, -29};
Plane Surface(16) = {16};
Curve Loop(17) = {-22, 23, 30, -28, -18, -15};
Plane Surface(17) = {17};
Curve Loop(18) = {-24, 30, 29, -27};
Plane Surface(18) = {18};
Surface Loop(1) = {13, 14, 15, 16, 17, 18, 10, 7, 11, 8};
Volume(1) = {1};
Surface Loop(2) = {7, 8, 9};
Volume(2) = {2};
Surface Loop(3) = {10, 11, 12};
Volume(3) = {3};
Physical Surface("WALLS") = {13, 18};
Physical Surface("LOAD") = {8, 11};
Physical Surface("BORDER") = {7, 9, 10, 12, 14, 15, 16, 17};
Physical Volume("SOLID") = {1, 2, 3};
