cl__1 = 0.08186499999999999;
cl__2 = 0.114604;
cl__3 = 0.639272;
cl__4 = 0.699076;
cl__5 = 2.50641;
cl__6 = 2.213696;
Point(9) = {11.395172, -0.5434250000000003, 0.1, cl__1};
Point(10) = {11.395172, -0.5434250000000003, 0, cl__1};
Point(11) = {15.673235, 2.722629, 0.1, cl__2};
Point(12) = {15.673235, 2.722629, 0, cl__2};
Point(13) = {0.566116, -3.578585, 1, cl__3};
Point(14) = {0.566116, -3.578585, 0, cl__3};
Point(15) = {0.566116, 4.832101999999999, 1, cl__4};
Point(16) = {0.566116, 4.832101999999999, 0, cl__4};
Point(17) = {35.222695, -3.578585, 0, cl__5};
Point(18) = {35.222695, -3.578585, 1, cl__5};
Point(19) = {35.222695, 4.832101999999999, 1, cl__6};
Point(20) = {35.222695, 4.832101999999999, 0, cl__6};
p13 = newp;
Point(p13 + 1) = {11.38509302309323, -0.4153594558914199, 0.1};
Point(p13 + 2) = {11.35510427023458, -0.2904473105039663, 0.1};
Point(p13 + 3) = {11.30594416404638, -0.1717643154167209, 0.1};
Point(p13 + 4) = {11.23882318949603, -0.06223283985501005, 0.1};
Point(p13 + 5) = {11.15539408773871, 0.03545008773871061, 0.1};
Point(p13 + 6) = {11.05771116014499, 0.1188791894960337, 0.1};
Point(p13 + 7) = {10.94817968458328, 0.1860001640463798, 0.1};
Point(p13 + 8) = {10.82949668949603, 0.2351602702345762, 0.1};
Point(p13 + 9) = {10.70458454410858, 0.2651490230932312, 0.1};
Point(p13 + 10) = {10.576519, 0.2752279999999999, 0.1};
Point(p13 + 11) = {10.44845345589142, 0.2651490230932312, 0.1};
Point(p13 + 12) = {10.32354131050397, 0.2351602702345763, 0.1};
Point(p13 + 13) = {10.20485831541672, 0.1860001640463799, 0.1};
Point(p13 + 14) = {10.09532683985501, 0.1188791894960338, 0.1};
Point(p13 + 15) = {9.997643912261289, 0.03545008773871061, 0.1};
Point(p13 + 16) = {9.914214810503966, -0.06223283985500999, 0.1};
Point(p13 + 17) = {9.84709383595362, -0.1717643154167208, 0.1};
Point(p13 + 18) = {9.797933729765424, -0.2904473105039662, 0.1};
Point(p13 + 19) = {9.767944976906769, -0.4153594558914199, 0.1};
Point(p13 + 20) = {9.757866, -0.5434249999999999, 0.1};
Point(p13 + 21) = {9.767944976906769, -0.6714905441085801, 0.1};
Point(p13 + 22) = {9.797933729765424, -0.7964026894960341, 0.1};
Point(p13 + 23) = {9.847093835953618, -0.9150856845832789, 0.1};
Point(p13 + 24) = {9.914214810503966, -1.02461716014499, 0.1};
Point(p13 + 25) = {9.997643912261289, -1.122300087738711, 0.1};
Point(p13 + 26) = {10.09532683985501, -1.205729189496034, 0.1};
Point(p13 + 27) = {10.20485831541672, -1.27285016404638, 0.1};
Point(p13 + 28) = {10.32354131050397, -1.322010270234576, 0.1};
Point(p13 + 29) = {10.44845345589142, -1.351999023093231, 0.1};
Point(p13 + 30) = {10.576519, -1.362078, 0.1};
Point(p13 + 31) = {10.70458454410858, -1.351999023093231, 0.1};
Point(p13 + 32) = {10.82949668949603, -1.322010270234576, 0.1};
Point(p13 + 33) = {10.94817968458328, -1.27285016404638, 0.1};
Point(p13 + 34) = {11.05771116014499, -1.205729189496034, 0.1};
Point(p13 + 35) = {11.15539408773871, -1.122300087738711, 0.1};
Point(p13 + 36) = {11.23882318949603, -1.02461716014499, 0.1};
Point(p13 + 37) = {11.30594416404638, -0.9150856845832793, 0.1};
Point(p13 + 38) = {11.35510427023458, -0.7964026894960341, 0.1};
Point(p13 + 39) = {11.38509302309323, -0.6714905441085803, 0.1};
Spline(13) = {9, p13 + 1, p13 + 2, p13 + 3, p13 + 4, p13 + 5, p13 + 6, p13 + 7, p13 + 8, p13 + 9, p13 + 10, p13 + 11, p13 + 12, p13 + 13, p13 + 14, p13 + 15, p13 + 16, p13 + 17, p13 + 18, p13 + 19, p13 + 20, p13 + 21, p13 + 22, p13 + 23, p13 + 24, p13 + 25, p13 + 26, p13 + 27, p13 + 28, p13 + 29, p13 + 30, p13 + 31, p13 + 32, p13 + 33, p13 + 34, p13 + 35, p13 + 36, p13 + 37, p13 + 38, p13 + 39, 9};
Line(14) = {10, 9};
p15 = newp;
Point(p15 + 1) = {11.38509302309323, -0.4153594558914199, 0};
Point(p15 + 2) = {11.35510427023458, -0.2904473105039663, 0};
Point(p15 + 3) = {11.30594416404638, -0.1717643154167209, 0};
Point(p15 + 4) = {11.23882318949603, -0.06223283985501005, 0};
Point(p15 + 5) = {11.15539408773871, 0.03545008773871061, 0};
Point(p15 + 6) = {11.05771116014499, 0.1188791894960337, 0};
Point(p15 + 7) = {10.94817968458328, 0.1860001640463798, 0};
Point(p15 + 8) = {10.82949668949603, 0.2351602702345762, 0};
Point(p15 + 9) = {10.70458454410858, 0.2651490230932312, 0};
Point(p15 + 10) = {10.576519, 0.2752279999999999, 0};
Point(p15 + 11) = {10.44845345589142, 0.2651490230932312, 0};
Point(p15 + 12) = {10.32354131050397, 0.2351602702345763, 0};
Point(p15 + 13) = {10.20485831541672, 0.1860001640463799, 0};
Point(p15 + 14) = {10.09532683985501, 0.1188791894960338, 0};
Point(p15 + 15) = {9.997643912261289, 0.03545008773871061, 0};
Point(p15 + 16) = {9.914214810503966, -0.06223283985500999, 0};
Point(p15 + 17) = {9.84709383595362, -0.1717643154167208, 0};
Point(p15 + 18) = {9.797933729765424, -0.2904473105039662, 0};
Point(p15 + 19) = {9.767944976906769, -0.4153594558914199, 0};
Point(p15 + 20) = {9.757866, -0.5434249999999999, 0};
Point(p15 + 21) = {9.767944976906769, -0.6714905441085801, 0};
Point(p15 + 22) = {9.797933729765424, -0.7964026894960341, 0};
Point(p15 + 23) = {9.847093835953618, -0.9150856845832789, 0};
Point(p15 + 24) = {9.914214810503966, -1.02461716014499, 0};
Point(p15 + 25) = {9.997643912261289, -1.122300087738711, 0};
Point(p15 + 26) = {10.09532683985501, -1.205729189496034, 0};
Point(p15 + 27) = {10.20485831541672, -1.27285016404638, 0};
Point(p15 + 28) = {10.32354131050397, -1.322010270234576, 0};
Point(p15 + 29) = {10.44845345589142, -1.351999023093231, 0};
Point(p15 + 30) = {10.576519, -1.362078, 0};
Point(p15 + 31) = {10.70458454410858, -1.351999023093231, 0};
Point(p15 + 32) = {10.82949668949603, -1.322010270234576, 0};
Point(p15 + 33) = {10.94817968458328, -1.27285016404638, 0};
Point(p15 + 34) = {11.05771116014499, -1.205729189496034, 0};
Point(p15 + 35) = {11.15539408773871, -1.122300087738711, 0};
Point(p15 + 36) = {11.23882318949603, -1.02461716014499, 0};
Point(p15 + 37) = {11.30594416404638, -0.9150856845832793, 0};
Point(p15 + 38) = {11.35510427023458, -0.7964026894960341, 0};
Point(p15 + 39) = {11.38509302309323, -0.6714905441085803, 0};
Spline(15) = {10, p15 + 1, p15 + 2, p15 + 3, p15 + 4, p15 + 5, p15 + 6, p15 + 7, p15 + 8, p15 + 9, p15 + 10, p15 + 11, p15 + 12, p15 + 13, p15 + 14, p15 + 15, p15 + 16, p15 + 17, p15 + 18, p15 + 19, p15 + 20, p15 + 21, p15 + 22, p15 + 23, p15 + 24, p15 + 25, p15 + 26, p15 + 27, p15 + 28, p15 + 29, p15 + 30, p15 + 31, p15 + 32, p15 + 33, p15 + 34, p15 + 35, p15 + 36, p15 + 37, p15 + 38, p15 + 39, 10};
p16 = newp;
Point(p16 + 1) = {15.65912530892067, 2.901909623618101, 0.1};
Point(p16 + 2) = {15.61714366310445, 3.076775763284448, 0.1};
Point(p16 + 3) = {15.54832379000041, 3.242921634293009, 0.1};
Point(p16 + 4) = {15.45436026328445, 3.396256173893023, 0.1};
Point(p16 + 5) = {15.33756677683137, 3.533003776831374, 0.1};
Point(p16 + 6) = {15.20081917389302, 3.649797263284448, 0.1};
Point(p16 + 7) = {15.04748463429301, 3.74376079000041, 0.1};
Point(p16 + 8) = {14.88133876328445, 3.812580663104447, 0.1};
Point(p16 + 9) = {14.7064726236181, 3.854562308920674, 0.1};
Point(p16 + 10) = {14.527192, 3.868672, 0.1};
Point(p16 + 11) = {14.3479113763819, 3.854562308920674, 0.1};
Point(p16 + 12) = {14.17304523671555, 3.812580663104447, 0.1};
Point(p16 + 13) = {14.00689936570699, 3.74376079000041, 0.1};
Point(p16 + 14) = {13.85356482610698, 3.649797263284448, 0.1};
Point(p16 + 15) = {13.71681722316863, 3.533003776831374, 0.1};
Point(p16 + 16) = {13.60002373671555, 3.396256173893023, 0.1};
Point(p16 + 17) = {13.50606020999959, 3.242921634293009, 0.1};
Point(p16 + 18) = {13.43724033689555, 3.076775763284448, 0.1};
Point(p16 + 19) = {13.39525869107933, 2.901909623618101, 0.1};
Point(p16 + 20) = {13.381149, 2.722629, 0.1};
Point(p16 + 21) = {13.39525869107933, 2.543348376381899, 0.1};
Point(p16 + 22) = {13.43724033689555, 2.368482236715552, 0.1};
Point(p16 + 23) = {13.50606020999959, 2.202336365706991, 0.1};
Point(p16 + 24) = {13.60002373671555, 2.049001826106977, 0.1};
Point(p16 + 25) = {13.71681722316863, 1.912254223168626, 0.1};
Point(p16 + 26) = {13.85356482610698, 1.795460736715552, 0.1};
Point(p16 + 27) = {14.00689936570699, 1.70149720999959, 0.1};
Point(p16 + 28) = {14.17304523671555, 1.632677336895553, 0.1};
Point(p16 + 29) = {14.3479113763819, 1.590695691079327, 0.1};
Point(p16 + 30) = {14.527192, 1.576586, 0.1};
Point(p16 + 31) = {14.7064726236181, 1.590695691079327, 0.1};
Point(p16 + 32) = {14.88133876328445, 1.632677336895553, 0.1};
Point(p16 + 33) = {15.04748463429301, 1.70149720999959, 0.1};
Point(p16 + 34) = {15.20081917389302, 1.795460736715552, 0.1};
Point(p16 + 35) = {15.33756677683137, 1.912254223168625, 0.1};
Point(p16 + 36) = {15.45436026328445, 2.049001826106977, 0.1};
Point(p16 + 37) = {15.54832379000041, 2.20233636570699, 0.1};
Point(p16 + 38) = {15.61714366310445, 2.368482236715552, 0.1};
Point(p16 + 39) = {15.65912530892067, 2.543348376381898, 0.1};
Spline(16) = {11, p16 + 1, p16 + 2, p16 + 3, p16 + 4, p16 + 5, p16 + 6, p16 + 7, p16 + 8, p16 + 9, p16 + 10, p16 + 11, p16 + 12, p16 + 13, p16 + 14, p16 + 15, p16 + 16, p16 + 17, p16 + 18, p16 + 19, p16 + 20, p16 + 21, p16 + 22, p16 + 23, p16 + 24, p16 + 25, p16 + 26, p16 + 27, p16 + 28, p16 + 29, p16 + 30, p16 + 31, p16 + 32, p16 + 33, p16 + 34, p16 + 35, p16 + 36, p16 + 37, p16 + 38, p16 + 39, 11};
Line(17) = {12, 11};
p18 = newp;
Point(p18 + 1) = {15.65912530892067, 2.901909623618101, 0};
Point(p18 + 2) = {15.61714366310445, 3.076775763284448, 0};
Point(p18 + 3) = {15.54832379000041, 3.242921634293009, 0};
Point(p18 + 4) = {15.45436026328445, 3.396256173893023, 0};
Point(p18 + 5) = {15.33756677683137, 3.533003776831374, 0};
Point(p18 + 6) = {15.20081917389302, 3.649797263284448, 0};
Point(p18 + 7) = {15.04748463429301, 3.74376079000041, 0};
Point(p18 + 8) = {14.88133876328445, 3.812580663104447, 0};
Point(p18 + 9) = {14.7064726236181, 3.854562308920674, 0};
Point(p18 + 10) = {14.527192, 3.868672, 0};
Point(p18 + 11) = {14.3479113763819, 3.854562308920674, 0};
Point(p18 + 12) = {14.17304523671555, 3.812580663104447, 0};
Point(p18 + 13) = {14.00689936570699, 3.74376079000041, 0};
Point(p18 + 14) = {13.85356482610698, 3.649797263284448, 0};
Point(p18 + 15) = {13.71681722316863, 3.533003776831374, 0};
Point(p18 + 16) = {13.60002373671555, 3.396256173893023, 0};
Point(p18 + 17) = {13.50606020999959, 3.242921634293009, 0};
Point(p18 + 18) = {13.43724033689555, 3.076775763284448, 0};
Point(p18 + 19) = {13.39525869107933, 2.901909623618101, 0};
Point(p18 + 20) = {13.381149, 2.722629, 0};
Point(p18 + 21) = {13.39525869107933, 2.543348376381899, 0};
Point(p18 + 22) = {13.43724033689555, 2.368482236715552, 0};
Point(p18 + 23) = {13.50606020999959, 2.202336365706991, 0};
Point(p18 + 24) = {13.60002373671555, 2.049001826106977, 0};
Point(p18 + 25) = {13.71681722316863, 1.912254223168626, 0};
Point(p18 + 26) = {13.85356482610698, 1.795460736715552, 0};
Point(p18 + 27) = {14.00689936570699, 1.70149720999959, 0};
Point(p18 + 28) = {14.17304523671555, 1.632677336895553, 0};
Point(p18 + 29) = {14.3479113763819, 1.590695691079327, 0};
Point(p18 + 30) = {14.527192, 1.576586, 0};
Point(p18 + 31) = {14.7064726236181, 1.590695691079327, 0};
Point(p18 + 32) = {14.88133876328445, 1.632677336895553, 0};
Point(p18 + 33) = {15.04748463429301, 1.70149720999959, 0};
Point(p18 + 34) = {15.20081917389302, 1.795460736715552, 0};
Point(p18 + 35) = {15.33756677683137, 1.912254223168625, 0};
Point(p18 + 36) = {15.45436026328445, 2.049001826106977, 0};
Point(p18 + 37) = {15.54832379000041, 2.20233636570699, 0};
Point(p18 + 38) = {15.61714366310445, 2.368482236715552, 0};
Point(p18 + 39) = {15.65912530892067, 2.543348376381898, 0};
Spline(18) = {12, p18 + 1, p18 + 2, p18 + 3, p18 + 4, p18 + 5, p18 + 6, p18 + 7, p18 + 8, p18 + 9, p18 + 10, p18 + 11, p18 + 12, p18 + 13, p18 + 14, p18 + 15, p18 + 16, p18 + 17, p18 + 18, p18 + 19, p18 + 20, p18 + 21, p18 + 22, p18 + 23, p18 + 24, p18 + 25, p18 + 26, p18 + 27, p18 + 28, p18 + 29, p18 + 30, p18 + 31, p18 + 32, p18 + 33, p18 + 34, p18 + 35, p18 + 36, p18 + 37, p18 + 38, p18 + 39, 12};
Line(19) = {14, 13};
Line(20) = {13, 15};
Line(21) = {16, 15};
Line(22) = {14, 16};
Line(23) = {14, 17};
Line(24) = {17, 18};
Line(25) = {13, 18};
Line(26) = {15, 19};
Line(27) = {18, 19};
Line(28) = {16, 20};
Line(29) = {20, 19};
Line(30) = {17, 20};
Curve Loop(7) = {-13, -14, 15, 14};
Surface(7) = {7};
Curve Loop(8) = {13};
Plane Surface(8) = {8};
Curve Loop(9) = {15};
Plane Surface(9) = {9};
Curve Loop(10) = {-16, -17, 18, 17};
Surface(10) = {10};
Curve Loop(11) = {16};
Plane Surface(11) = {11};
Curve Loop(12) = {18};
Plane Surface(12) = {12};
Curve Loop(13) = {-19, 22, 21, -20};
Plane Surface(13) = {13};
Curve Loop(14) = {-23, 19, 25, -24};
Plane Surface(14) = {14};
Curve Loop(15) = {-20, 25, 27, -26};
Plane Surface(15) = {15};
Curve Loop(16) = {-28, 21, 26, -29};
Plane Surface(16) = {16};
Curve Loop(17) = {-22, 23, 30, -28, -15, -18};
Plane Surface(17) = {17};
Curve Loop(18) = {-24, 30, 29, -27};
Plane Surface(18) = {18};
Surface Loop(1) = {13, 14, 15, 16, 17, 18, 7, 10, 8, 11};
Volume(1) = {1};
Surface Loop(2) = {7, 8, 9};
Volume(2) = {2};
Surface Loop(3) = {10, 11, 12};
Volume(3) = {3};
Physical Surface("WALLS") = {13, 18};
Physical Surface("LOAD") = {8, 11};
Physical Surface("BORDER") = {7, 9, 10, 12, 14, 15, 16, 17};
Physical Volume("SOLID") = {1, 2, 3};
