cl__1 = 0.06303300000000001;
cl__2 = 0.102204;
cl__3 = 0.769215;
cl__4 = 0.826811;
cl__5 = 2.16915;
cl__6 = 1.365745;
Point(9) = {4.715046, -0.1604860000000002, 0.1, cl__1};
Point(10) = {4.715046, -0.1604860000000002, 0, cl__1};
Point(11) = {27.955526, 1.348588, 0.1, cl__2};
Point(12) = {27.955526, 1.348588, 0, cl__2};
Point(13) = {0.149561, -4.422137, 1, cl__3};
Point(14) = {0.149561, -4.422137, 0, cl__3};
Point(15) = {0.149561, 4.614733, 1, cl__4};
Point(16) = {0.149561, 4.614733, 0, cl__4};
Point(17) = {34.758692, -4.422137, 0, cl__5};
Point(18) = {34.758692, -4.422137, 1, cl__5};
Point(19) = {34.758692, 4.614733, 1, cl__6};
Point(20) = {34.758692, 4.614733, 0, cl__6};
p13 = newp;
Point(p13 + 1) = {4.707285604038993, -0.0618808200856563, 0.1};
Point(p13 + 2) = {4.684195502859808, 0.03429637304736624, 0.1};
Point(p13 + 3) = {4.646344251385131, 0.1256773777103288, 0.1};
Point(p13 + 4) = {4.594663873047367, 0.2100120902922623, 0.1};
Point(p13 + 5) = {4.530426910278536, 0.2852239102785353, 0.1};
Point(p13 + 6) = {4.455215090292262, 0.3494608730473662, 0.1};
Point(p13 + 7) = {4.370880377710329, 0.4011412513851297, 0.1};
Point(p13 + 8) = {4.279499373047367, 0.4389925028598078, 0.1};
Point(p13 + 9) = {4.183322179914344, 0.4620826040389926, 0.1};
Point(p13 + 10) = {4.084717, 0.469843, 0.1};
Point(p13 + 11) = {3.986111820085656, 0.4620826040389925, 0.1};
Point(p13 + 12) = {3.889934626952634, 0.438992502859808, 0.1};
Point(p13 + 13) = {3.798553622289671, 0.4011412513851298, 0.1};
Point(p13 + 14) = {3.714218909707738, 0.3494608730473663, 0.1};
Point(p13 + 15) = {3.639007089721465, 0.2852239102785353, 0.1};
Point(p13 + 16) = {3.574770126952634, 0.2100120902922624, 0.1};
Point(p13 + 17) = {3.523089748614871, 0.1256773777103289, 0.1};
Point(p13 + 18) = {3.485238497140192, 0.0342963730473663, 0.1};
Point(p13 + 19) = {3.462148395961008, -0.06188082008565624, 0.1};
Point(p13 + 20) = {3.454388, -0.1604859999999999, 0.1};
Point(p13 + 21) = {3.462148395961008, -0.2590911799143436, 0.1};
Point(p13 + 22) = {3.485238497140193, -0.3552683730473664, 0.1};
Point(p13 + 23) = {3.52308974861487, -0.4466493777103285, 0.1};
Point(p13 + 24) = {3.574770126952634, -0.5309840902922622, 0.1};
Point(p13 + 25) = {3.639007089721465, -0.6061959102785353, 0.1};
Point(p13 + 26) = {3.714218909707738, -0.6704328730473662, 0.1};
Point(p13 + 27) = {3.798553622289671, -0.7221132513851297, 0.1};
Point(p13 + 28) = {3.889934626952634, -0.7599645028598079, 0.1};
Point(p13 + 29) = {3.986111820085656, -0.7830546040389925, 0.1};
Point(p13 + 30) = {4.084717, -0.790815, 0.1};
Point(p13 + 31) = {4.183322179914344, -0.7830546040389926, 0.1};
Point(p13 + 32) = {4.279499373047367, -0.759964502859808, 0.1};
Point(p13 + 33) = {4.370880377710329, -0.7221132513851298, 0.1};
Point(p13 + 34) = {4.455215090292262, -0.6704328730473663, 0.1};
Point(p13 + 35) = {4.530426910278536, -0.6061959102785355, 0.1};
Point(p13 + 36) = {4.594663873047367, -0.5309840902922623, 0.1};
Point(p13 + 37) = {4.646344251385131, -0.4466493777103289, 0.1};
Point(p13 + 38) = {4.684195502859808, -0.3552683730473664, 0.1};
Point(p13 + 39) = {4.707285604038993, -0.2590911799143438, 0.1};
Spline(13) = {9, p13 + 1, p13 + 2, p13 + 3, p13 + 4, p13 + 5, p13 + 6, p13 + 7, p13 + 8, p13 + 9, p13 + 10, p13 + 11, p13 + 12, p13 + 13, p13 + 14, p13 + 15, p13 + 16, p13 + 17, p13 + 18, p13 + 19, p13 + 20, p13 + 21, p13 + 22, p13 + 23, p13 + 24, p13 + 25, p13 + 26, p13 + 27, p13 + 28, p13 + 29, p13 + 30, p13 + 31, p13 + 32, p13 + 33, p13 + 34, p13 + 35, p13 + 36, p13 + 37, p13 + 38, p13 + 39, 9};
Line(14) = {10, 9};
p15 = newp;
Point(p15 + 1) = {4.707285604038993, -0.0618808200856563, 0};
Point(p15 + 2) = {4.684195502859808, 0.03429637304736624, 0};
Point(p15 + 3) = {4.646344251385131, 0.1256773777103288, 0};
Point(p15 + 4) = {4.594663873047367, 0.2100120902922623, 0};
Point(p15 + 5) = {4.530426910278536, 0.2852239102785353, 0};
Point(p15 + 6) = {4.455215090292262, 0.3494608730473662, 0};
Point(p15 + 7) = {4.370880377710329, 0.4011412513851297, 0};
Point(p15 + 8) = {4.279499373047367, 0.4389925028598078, 0};
Point(p15 + 9) = {4.183322179914344, 0.4620826040389926, 0};
Point(p15 + 10) = {4.084717, 0.469843, 0};
Point(p15 + 11) = {3.986111820085656, 0.4620826040389925, 0};
Point(p15 + 12) = {3.889934626952634, 0.438992502859808, 0};
Point(p15 + 13) = {3.798553622289671, 0.4011412513851298, 0};
Point(p15 + 14) = {3.714218909707738, 0.3494608730473663, 0};
Point(p15 + 15) = {3.639007089721465, 0.2852239102785353, 0};
Point(p15 + 16) = {3.574770126952634, 0.2100120902922624, 0};
Point(p15 + 17) = {3.523089748614871, 0.1256773777103289, 0};
Point(p15 + 18) = {3.485238497140192, 0.0342963730473663, 0};
Point(p15 + 19) = {3.462148395961008, -0.06188082008565624, 0};
Point(p15 + 20) = {3.454388, -0.1604859999999999, 0};
Point(p15 + 21) = {3.462148395961008, -0.2590911799143436, 0};
Point(p15 + 22) = {3.485238497140193, -0.3552683730473664, 0};
Point(p15 + 23) = {3.52308974861487, -0.4466493777103285, 0};
Point(p15 + 24) = {3.574770126952634, -0.5309840902922622, 0};
Point(p15 + 25) = {3.639007089721465, -0.6061959102785353, 0};
Point(p15 + 26) = {3.714218909707738, -0.6704328730473662, 0};
Point(p15 + 27) = {3.798553622289671, -0.7221132513851297, 0};
Point(p15 + 28) = {3.889934626952634, -0.7599645028598079, 0};
Point(p15 + 29) = {3.986111820085656, -0.7830546040389925, 0};
Point(p15 + 30) = {4.084717, -0.790815, 0};
Point(p15 + 31) = {4.183322179914344, -0.7830546040389926, 0};
Point(p15 + 32) = {4.279499373047367, -0.759964502859808, 0};
Point(p15 + 33) = {4.370880377710329, -0.7221132513851298, 0};
Point(p15 + 34) = {4.455215090292262, -0.6704328730473663, 0};
Point(p15 + 35) = {4.530426910278536, -0.6061959102785355, 0};
Point(p15 + 36) = {4.594663873047367, -0.5309840902922623, 0};
Point(p15 + 37) = {4.646344251385131, -0.4466493777103289, 0};
Point(p15 + 38) = {4.684195502859808, -0.3552683730473664, 0};
Point(p15 + 39) = {4.707285604038993, -0.2590911799143438, 0};
Spline(15) = {10, p15 + 1, p15 + 2, p15 + 3, p15 + 4, p15 + 5, p15 + 6, p15 + 7, p15 + 8, p15 + 9, p15 + 10, p15 + 11, p15 + 12, p15 + 13, p15 + 14, p15 + 15, p15 + 16, p15 + 17, p15 + 18, p15 + 19, p15 + 20, p15 + 21, p15 + 22, p15 + 23, p15 + 24, p15 + 25, p15 + 26, p15 + 27, p15 + 28, p15 + 29, p15 + 30, p15 + 31, p15 + 32, p15 + 33, p15 + 34, p15 + 35, p15 + 36, p15 + 37, p15 + 38, p15 + 39, 10};
p16 = newp;
Point(p16 + 1) = {27.94294294237522, 1.508470906387578, 0.1};
Point(p16 + 2) = {27.90550360614036, 1.664416964998949, 0.1};
Point(p16 + 3) = {27.84412987200758, 1.812586266315805, 0.1};
Point(p16 + 4) = {27.76033296499895, 1.949330390394008, 0.1};
Point(p16 + 5) = {27.65617624307103, 2.071282243071024, 0.1};
Point(p16 + 6) = {27.53422439039401, 2.175438964998949, 0.1};
Point(p16 + 7) = {27.39748026631581, 2.259235872007576, 0.1};
Point(p16 + 8) = {27.24931096499895, 2.320609606140364, 0.1};
Point(p16 + 9) = {27.09336490638758, 2.358048942375217, 0.1};
Point(p16 + 10) = {26.933482, 2.370632, 0.1};
Point(p16 + 11) = {26.77359909361243, 2.358048942375217, 0.1};
Point(p16 + 12) = {26.61765303500105, 2.320609606140364, 0.1};
Point(p16 + 13) = {26.4694837336842, 2.259235872007576, 0.1};
Point(p16 + 14) = {26.33273960960599, 2.175438964998949, 0.1};
Point(p16 + 15) = {26.21078775692898, 2.071282243071024, 0.1};
Point(p16 + 16) = {26.10663103500105, 1.949330390394008, 0.1};
Point(p16 + 17) = {26.02283412799243, 1.812586266315805, 0.1};
Point(p16 + 18) = {25.96146039385964, 1.664416964998949, 0.1};
Point(p16 + 19) = {25.92402105762478, 1.508470906387578, 0.1};
Point(p16 + 20) = {25.911438, 1.348588, 0.1};
Point(p16 + 21) = {25.92402105762478, 1.188705093612422, 0.1};
Point(p16 + 22) = {25.96146039385964, 1.032759035001051, 0.1};
Point(p16 + 23) = {26.02283412799243, 0.884589733684195, 0.1};
Point(p16 + 24) = {26.10663103500105, 0.7478456096059917, 0.1};
Point(p16 + 25) = {26.21078775692898, 0.6258937569289762, 0.1};
Point(p16 + 26) = {26.33273960960599, 0.5217370350010513, 0.1};
Point(p16 + 27) = {26.4694837336842, 0.4379401279924238, 0.1};
Point(p16 + 28) = {26.61765303500105, 0.3765663938596361, 0.1};
Point(p16 + 29) = {26.77359909361243, 0.3391270576247831, 0.1};
Point(p16 + 30) = {26.933482, 0.3265439999999999, 0.1};
Point(p16 + 31) = {27.09336490638758, 0.3391270576247829, 0.1};
Point(p16 + 32) = {27.24931096499895, 0.376566393859636, 0.1};
Point(p16 + 33) = {27.39748026631581, 0.4379401279924235, 0.1};
Point(p16 + 34) = {27.53422439039401, 0.5217370350010511, 0.1};
Point(p16 + 35) = {27.65617624307103, 0.625893756928976, 0.1};
Point(p16 + 36) = {27.76033296499895, 0.7478456096059914, 0.1};
Point(p16 + 37) = {27.84412987200758, 0.8845897336841944, 0.1};
Point(p16 + 38) = {27.90550360614036, 1.032759035001051, 0.1};
Point(p16 + 39) = {27.94294294237522, 1.188705093612422, 0.1};
Spline(16) = {11, p16 + 1, p16 + 2, p16 + 3, p16 + 4, p16 + 5, p16 + 6, p16 + 7, p16 + 8, p16 + 9, p16 + 10, p16 + 11, p16 + 12, p16 + 13, p16 + 14, p16 + 15, p16 + 16, p16 + 17, p16 + 18, p16 + 19, p16 + 20, p16 + 21, p16 + 22, p16 + 23, p16 + 24, p16 + 25, p16 + 26, p16 + 27, p16 + 28, p16 + 29, p16 + 30, p16 + 31, p16 + 32, p16 + 33, p16 + 34, p16 + 35, p16 + 36, p16 + 37, p16 + 38, p16 + 39, 11};
Line(17) = {12, 11};
p18 = newp;
Point(p18 + 1) = {27.94294294237522, 1.508470906387578, 0};
Point(p18 + 2) = {27.90550360614036, 1.664416964998949, 0};
Point(p18 + 3) = {27.84412987200758, 1.812586266315805, 0};
Point(p18 + 4) = {27.76033296499895, 1.949330390394008, 0};
Point(p18 + 5) = {27.65617624307103, 2.071282243071024, 0};
Point(p18 + 6) = {27.53422439039401, 2.175438964998949, 0};
Point(p18 + 7) = {27.39748026631581, 2.259235872007576, 0};
Point(p18 + 8) = {27.24931096499895, 2.320609606140364, 0};
Point(p18 + 9) = {27.09336490638758, 2.358048942375217, 0};
Point(p18 + 10) = {26.933482, 2.370632, 0};
Point(p18 + 11) = {26.77359909361243, 2.358048942375217, 0};
Point(p18 + 12) = {26.61765303500105, 2.320609606140364, 0};
Point(p18 + 13) = {26.4694837336842, 2.259235872007576, 0};
Point(p18 + 14) = {26.33273960960599, 2.175438964998949, 0};
Point(p18 + 15) = {26.21078775692898, 2.071282243071024, 0};
Point(p18 + 16) = {26.10663103500105, 1.949330390394008, 0};
Point(p18 + 17) = {26.02283412799243, 1.812586266315805, 0};
Point(p18 + 18) = {25.96146039385964, 1.664416964998949, 0};
Point(p18 + 19) = {25.92402105762478, 1.508470906387578, 0};
Point(p18 + 20) = {25.911438, 1.348588, 0};
Point(p18 + 21) = {25.92402105762478, 1.188705093612422, 0};
Point(p18 + 22) = {25.96146039385964, 1.032759035001051, 0};
Point(p18 + 23) = {26.02283412799243, 0.884589733684195, 0};
Point(p18 + 24) = {26.10663103500105, 0.7478456096059917, 0};
Point(p18 + 25) = {26.21078775692898, 0.6258937569289762, 0};
Point(p18 + 26) = {26.33273960960599, 0.5217370350010513, 0};
Point(p18 + 27) = {26.4694837336842, 0.4379401279924238, 0};
Point(p18 + 28) = {26.61765303500105, 0.3765663938596361, 0};
Point(p18 + 29) = {26.77359909361243, 0.3391270576247831, 0};
Point(p18 + 30) = {26.933482, 0.3265439999999999, 0};
Point(p18 + 31) = {27.09336490638758, 0.3391270576247829, 0};
Point(p18 + 32) = {27.24931096499895, 0.376566393859636, 0};
Point(p18 + 33) = {27.39748026631581, 0.4379401279924235, 0};
Point(p18 + 34) = {27.53422439039401, 0.5217370350010511, 0};
Point(p18 + 35) = {27.65617624307103, 0.625893756928976, 0};
Point(p18 + 36) = {27.76033296499895, 0.7478456096059914, 0};
Point(p18 + 37) = {27.84412987200758, 0.8845897336841944, 0};
Point(p18 + 38) = {27.90550360614036, 1.032759035001051, 0};
Point(p18 + 39) = {27.94294294237522, 1.188705093612422, 0};
Spline(18) = {12, p18 + 1, p18 + 2, p18 + 3, p18 + 4, p18 + 5, p18 + 6, p18 + 7, p18 + 8, p18 + 9, p18 + 10, p18 + 11, p18 + 12, p18 + 13, p18 + 14, p18 + 15, p18 + 16, p18 + 17, p18 + 18, p18 + 19, p18 + 20, p18 + 21, p18 + 22, p18 + 23, p18 + 24, p18 + 25, p18 + 26, p18 + 27, p18 + 28, p18 + 29, p18 + 30, p18 + 31, p18 + 32, p18 + 33, p18 + 34, p18 + 35, p18 + 36, p18 + 37, p18 + 38, p18 + 39, 12};
Line(19) = {14, 13};
Line(20) = {13, 15};
Line(21) = {16, 15};
Line(22) = {14, 16};
Line(23) = {14, 17};
Line(24) = {17, 18};
Line(25) = {13, 18};
Line(26) = {15, 19};
Line(27) = {18, 19};
Line(28) = {16, 20};
Line(29) = {20, 19};
Line(30) = {17, 20};
Curve Loop(7) = {-13, -14, 15, 14};
Surface(7) = {7};
Curve Loop(8) = {13};
Plane Surface(8) = {8};
Curve Loop(9) = {15};
Plane Surface(9) = {9};
Curve Loop(10) = {-16, -17, 18, 17};
Surface(10) = {10};
Curve Loop(11) = {16};
Plane Surface(11) = {11};
Curve Loop(12) = {18};
Plane Surface(12) = {12};
Curve Loop(13) = {-19, 22, 21, -20};
Plane Surface(13) = {13};
Curve Loop(14) = {-23, 19, 25, -24};
Plane Surface(14) = {14};
Curve Loop(15) = {-20, 25, 27, -26};
Plane Surface(15) = {15};
Curve Loop(16) = {-28, 21, 26, -29};
Plane Surface(16) = {16};
Curve Loop(17) = {-22, 23, 30, -28, -15, -18};
Plane Surface(17) = {17};
Curve Loop(18) = {-24, 30, 29, -27};
Plane Surface(18) = {18};
Surface Loop(1) = {13, 14, 15, 16, 17, 18, 7, 10, 8, 11};
Volume(1) = {1};
Surface Loop(2) = {7, 8, 9};
Volume(2) = {2};
Surface Loop(3) = {10, 11, 12};
Volume(3) = {3};
Physical Surface("WALLS") = {13, 18};
Physical Surface("LOAD") = {8, 11};
Physical Surface("BORDER") = {7, 9, 10, 12, 14, 15, 16, 17};
Physical Volume("SOLID") = {1, 2, 3};
