cl__1 = 0.079059;
cl__2 = 0.056961;
cl__3 = 2.485726;
cl__4 = 2.507475;
cl__5 = 0.411582;
cl__6 = 0.875237;
Point(9) = {15.494438, 0.5359479999999998, 0.1, cl__1};
Point(10) = {15.494438, 0.5359479999999998, 0, cl__1};
Point(11) = {28.899379, -3.093617, 0.1, cl__2};
Point(12) = {28.899379, -3.093617, 0, cl__2};
Point(13) = {0.283611, -4.369834, 1, cl__3};
Point(14) = {0.283611, -4.369834, 0, cl__3};
Point(15) = {0.283611, 5.570614, 1, cl__4};
Point(16) = {0.283611, 5.570614, 0, cl__4};
Point(17) = {33.120069, -4.369834, 0, cl__5};
Point(18) = {33.120069, -4.369834, 1, cl__5};
Point(19) = {33.120069, 5.570614, 1, cl__6};
Point(20) = {33.120069, 5.570614, 0, cl__6};
p13 = newp;
Point(p13 + 1) = {15.48470453750277, 0.659623367281691, 0.1};
Point(p13 + 2) = {15.45574382016127, 0.7802534365658953, 0.1};
Point(p13 + 3) = {15.40826895695156, 0.8948678951985884, 0.1};
Point(p13 + 4) = {15.3434489365659, 1.000644554824654, 0.1};
Point(p13 + 5) = {15.26287984303149, 1.094978843031491, 0.1};
Point(p13 + 6) = {15.16854555482465, 1.175547936565895, 0.1};
Point(p13 + 7) = {15.06276889519859, 1.240367956951558, 0.1};
Point(p13 + 8) = {14.9481544365659, 1.287842820161269, 0.1};
Point(p13 + 9) = {14.82752436728169, 1.316803537502769, 0.1};
Point(p13 + 10) = {14.703849, 1.326537, 0.1};
Point(p13 + 11) = {14.58017363271831, 1.316803537502769, 0.1};
Point(p13 + 12) = {14.4595435634341, 1.287842820161269, 0.1};
Point(p13 + 13) = {14.34492910480141, 1.240367956951558, 0.1};
Point(p13 + 14) = {14.23915244517535, 1.175547936565895, 0.1};
Point(p13 + 15) = {14.14481815696851, 1.094978843031492, 0.1};
Point(p13 + 16) = {14.0642490634341, 1.000644554824654, 0.1};
Point(p13 + 17) = {13.99942904304844, 0.8948678951985886, 0.1};
Point(p13 + 18) = {13.95195417983873, 0.7802534365658953, 0.1};
Point(p13 + 19) = {13.92299346249723, 0.6596233672816911, 0.1};
Point(p13 + 20) = {13.91326, 0.5359480000000001, 0.1};
Point(p13 + 21) = {13.92299346249723, 0.412272632718309, 0.1};
Point(p13 + 22) = {13.95195417983873, 0.2916425634341044, 0.1};
Point(p13 + 23) = {13.99942904304844, 0.1770281048014118, 0.1};
Point(p13 + 24) = {14.0642490634341, 0.07125144517534604, 0.1};
Point(p13 + 25) = {14.14481815696851, -0.02308284303149133, 0.1};
Point(p13 + 26) = {14.23915244517535, -0.1036519365658952, 0.1};
Point(p13 + 27) = {14.34492910480141, -0.1684719569515575, 0.1};
Point(p13 + 28) = {14.4595435634341, -0.2159468201612691, 0.1};
Point(p13 + 29) = {14.58017363271831, -0.2449075375027693, 0.1};
Point(p13 + 30) = {14.703849, -0.254641, 0.1};
Point(p13 + 31) = {14.82752436728169, -0.2449075375027694, 0.1};
Point(p13 + 32) = {14.9481544365659, -0.2159468201612692, 0.1};
Point(p13 + 33) = {15.06276889519859, -0.1684719569515577, 0.1};
Point(p13 + 34) = {15.16854555482465, -0.1036519365658954, 0.1};
Point(p13 + 35) = {15.26287984303149, -0.02308284303149155, 0.1};
Point(p13 + 36) = {15.3434489365659, 0.07125144517534587, 0.1};
Point(p13 + 37) = {15.40826895695156, 0.1770281048014113, 0.1};
Point(p13 + 38) = {15.45574382016127, 0.2916425634341046, 0.1};
Point(p13 + 39) = {15.48470453750277, 0.4122726327183087, 0.1};
Spline(13) = {9, p13 + 1, p13 + 2, p13 + 3, p13 + 4, p13 + 5, p13 + 6, p13 + 7, p13 + 8, p13 + 9, p13 + 10, p13 + 11, p13 + 12, p13 + 13, p13 + 14, p13 + 15, p13 + 16, p13 + 17, p13 + 18, p13 + 19, p13 + 20, p13 + 21, p13 + 22, p13 + 23, p13 + 24, p13 + 25, p13 + 26, p13 + 27, p13 + 28, p13 + 29, p13 + 30, p13 + 31, p13 + 32, p13 + 33, p13 + 34, p13 + 35, p13 + 36, p13 + 37, p13 + 38, p13 + 39, 9};
Line(14) = {10, 9};
p15 = newp;
Point(p15 + 1) = {15.48470453750277, 0.659623367281691, 0};
Point(p15 + 2) = {15.45574382016127, 0.7802534365658953, 0};
Point(p15 + 3) = {15.40826895695156, 0.8948678951985884, 0};
Point(p15 + 4) = {15.3434489365659, 1.000644554824654, 0};
Point(p15 + 5) = {15.26287984303149, 1.094978843031491, 0};
Point(p15 + 6) = {15.16854555482465, 1.175547936565895, 0};
Point(p15 + 7) = {15.06276889519859, 1.240367956951558, 0};
Point(p15 + 8) = {14.9481544365659, 1.287842820161269, 0};
Point(p15 + 9) = {14.82752436728169, 1.316803537502769, 0};
Point(p15 + 10) = {14.703849, 1.326537, 0};
Point(p15 + 11) = {14.58017363271831, 1.316803537502769, 0};
Point(p15 + 12) = {14.4595435634341, 1.287842820161269, 0};
Point(p15 + 13) = {14.34492910480141, 1.240367956951558, 0};
Point(p15 + 14) = {14.23915244517535, 1.175547936565895, 0};
Point(p15 + 15) = {14.14481815696851, 1.094978843031492, 0};
Point(p15 + 16) = {14.0642490634341, 1.000644554824654, 0};
Point(p15 + 17) = {13.99942904304844, 0.8948678951985886, 0};
Point(p15 + 18) = {13.95195417983873, 0.7802534365658953, 0};
Point(p15 + 19) = {13.92299346249723, 0.6596233672816911, 0};
Point(p15 + 20) = {13.91326, 0.5359480000000001, 0};
Point(p15 + 21) = {13.92299346249723, 0.412272632718309, 0};
Point(p15 + 22) = {13.95195417983873, 0.2916425634341044, 0};
Point(p15 + 23) = {13.99942904304844, 0.1770281048014118, 0};
Point(p15 + 24) = {14.0642490634341, 0.07125144517534604, 0};
Point(p15 + 25) = {14.14481815696851, -0.02308284303149133, 0};
Point(p15 + 26) = {14.23915244517535, -0.1036519365658952, 0};
Point(p15 + 27) = {14.34492910480141, -0.1684719569515575, 0};
Point(p15 + 28) = {14.4595435634341, -0.2159468201612691, 0};
Point(p15 + 29) = {14.58017363271831, -0.2449075375027693, 0};
Point(p15 + 30) = {14.703849, -0.254641, 0};
Point(p15 + 31) = {14.82752436728169, -0.2449075375027694, 0};
Point(p15 + 32) = {14.9481544365659, -0.2159468201612692, 0};
Point(p15 + 33) = {15.06276889519859, -0.1684719569515577, 0};
Point(p15 + 34) = {15.16854555482465, -0.1036519365658954, 0};
Point(p15 + 35) = {15.26287984303149, -0.02308284303149155, 0};
Point(p15 + 36) = {15.3434489365659, 0.07125144517534587, 0};
Point(p15 + 37) = {15.40826895695156, 0.1770281048014113, 0};
Point(p15 + 38) = {15.45574382016127, 0.2916425634341046, 0};
Point(p15 + 39) = {15.48470453750277, 0.4122726327183087, 0};
Spline(15) = {10, p15 + 1, p15 + 2, p15 + 3, p15 + 4, p15 + 5, p15 + 6, p15 + 7, p15 + 8, p15 + 9, p15 + 10, p15 + 11, p15 + 12, p15 + 13, p15 + 14, p15 + 15, p15 + 16, p15 + 17, p15 + 18, p15 + 19, p15 + 20, p15 + 21, p15 + 22, p15 + 23, p15 + 24, p15 + 25, p15 + 26, p15 + 27, p15 + 28, p15 + 29, p15 + 30, p15 + 31, p15 + 32, p15 + 33, p15 + 34, p15 + 35, p15 + 36, p15 + 37, p15 + 38, p15 + 39, 10};
p16 = newp;
Point(p16 + 1) = {28.89236616799806, -3.004510520802899, 0.1};
Point(p16 + 2) = {28.87150035119037, -2.917598138851081, 0.1};
Point(p16 + 3) = {28.83729533523641, -2.835019925433857, 0.1};
Point(p16 + 4) = {28.79059336114892, -2.758809230226936, 0.1};
Point(p16 + 5) = {28.73254438652489, -2.690842613475112, 0.1};
Point(p16 + 6) = {28.66457776977306, -2.632793638851081, 0.1};
Point(p16 + 7) = {28.58836707456614, -2.586091664763588, 0.1};
Point(p16 + 8) = {28.50578886114892, -2.551886648809634, 0.1};
Point(p16 + 9) = {28.4188764791971, -2.531020832001944, 0.1};
Point(p16 + 10) = {28.32977, -2.524008, 0.1};
Point(p16 + 11) = {28.2406635208029, -2.531020832001944, 0.1};
Point(p16 + 12) = {28.15375113885108, -2.551886648809634, 0.1};
Point(p16 + 13) = {28.07117292543386, -2.586091664763588, 0.1};
Point(p16 + 14) = {27.99496223022694, -2.63279363885108, 0.1};
Point(p16 + 15) = {27.92699561347511, -2.690842613475112, 0.1};
Point(p16 + 16) = {27.86894663885108, -2.758809230226936, 0.1};
Point(p16 + 17) = {27.82224466476359, -2.835019925433857, 0.1};
Point(p16 + 18) = {27.78803964880963, -2.917598138851081, 0.1};
Point(p16 + 19) = {27.76717383200194, -3.004510520802899, 0.1};
Point(p16 + 20) = {27.760161, -3.093617, 0.1};
Point(p16 + 21) = {27.76717383200194, -3.182723479197101, 0.1};
Point(p16 + 22) = {27.78803964880963, -3.26963586114892, 0.1};
Point(p16 + 23) = {27.82224466476359, -3.352214074566144, 0.1};
Point(p16 + 24) = {27.86894663885108, -3.428424769773063, 0.1};
Point(p16 + 25) = {27.92699561347511, -3.496391386524888, 0.1};
Point(p16 + 26) = {27.99496223022694, -3.554440361148919, 0.1};
Point(p16 + 27) = {28.07117292543386, -3.601142335236412, 0.1};
Point(p16 + 28) = {28.15375113885108, -3.635347351190366, 0.1};
Point(p16 + 29) = {28.2406635208029, -3.656213167998056, 0.1};
Point(p16 + 30) = {28.32977, -3.663226, 0.1};
Point(p16 + 31) = {28.4188764791971, -3.656213167998056, 0.1};
Point(p16 + 32) = {28.50578886114892, -3.635347351190366, 0.1};
Point(p16 + 33) = {28.58836707456614, -3.601142335236412, 0.1};
Point(p16 + 34) = {28.66457776977306, -3.55444036114892, 0.1};
Point(p16 + 35) = {28.73254438652489, -3.496391386524889, 0.1};
Point(p16 + 36) = {28.79059336114892, -3.428424769773064, 0.1};
Point(p16 + 37) = {28.83729533523641, -3.352214074566144, 0.1};
Point(p16 + 38) = {28.87150035119037, -3.26963586114892, 0.1};
Point(p16 + 39) = {28.89236616799806, -3.182723479197101, 0.1};
Spline(16) = {11, p16 + 1, p16 + 2, p16 + 3, p16 + 4, p16 + 5, p16 + 6, p16 + 7, p16 + 8, p16 + 9, p16 + 10, p16 + 11, p16 + 12, p16 + 13, p16 + 14, p16 + 15, p16 + 16, p16 + 17, p16 + 18, p16 + 19, p16 + 20, p16 + 21, p16 + 22, p16 + 23, p16 + 24, p16 + 25, p16 + 26, p16 + 27, p16 + 28, p16 + 29, p16 + 30, p16 + 31, p16 + 32, p16 + 33, p16 + 34, p16 + 35, p16 + 36, p16 + 37, p16 + 38, p16 + 39, 11};
Line(17) = {12, 11};
p18 = newp;
Point(p18 + 1) = {28.89236616799806, -3.004510520802899, 0};
Point(p18 + 2) = {28.87150035119037, -2.917598138851081, 0};
Point(p18 + 3) = {28.83729533523641, -2.835019925433857, 0};
Point(p18 + 4) = {28.79059336114892, -2.758809230226936, 0};
Point(p18 + 5) = {28.73254438652489, -2.690842613475112, 0};
Point(p18 + 6) = {28.66457776977306, -2.632793638851081, 0};
Point(p18 + 7) = {28.58836707456614, -2.586091664763588, 0};
Point(p18 + 8) = {28.50578886114892, -2.551886648809634, 0};
Point(p18 + 9) = {28.4188764791971, -2.531020832001944, 0};
Point(p18 + 10) = {28.32977, -2.524008, 0};
Point(p18 + 11) = {28.2406635208029, -2.531020832001944, 0};
Point(p18 + 12) = {28.15375113885108, -2.551886648809634, 0};
Point(p18 + 13) = {28.07117292543386, -2.586091664763588, 0};
Point(p18 + 14) = {27.99496223022694, -2.63279363885108, 0};
Point(p18 + 15) = {27.92699561347511, -2.690842613475112, 0};
Point(p18 + 16) = {27.86894663885108, -2.758809230226936, 0};
Point(p18 + 17) = {27.82224466476359, -2.835019925433857, 0};
Point(p18 + 18) = {27.78803964880963, -2.917598138851081, 0};
Point(p18 + 19) = {27.76717383200194, -3.004510520802899, 0};
Point(p18 + 20) = {27.760161, -3.093617, 0};
Point(p18 + 21) = {27.76717383200194, -3.182723479197101, 0};
Point(p18 + 22) = {27.78803964880963, -3.26963586114892, 0};
Point(p18 + 23) = {27.82224466476359, -3.352214074566144, 0};
Point(p18 + 24) = {27.86894663885108, -3.428424769773063, 0};
Point(p18 + 25) = {27.92699561347511, -3.496391386524888, 0};
Point(p18 + 26) = {27.99496223022694, -3.554440361148919, 0};
Point(p18 + 27) = {28.07117292543386, -3.601142335236412, 0};
Point(p18 + 28) = {28.15375113885108, -3.635347351190366, 0};
Point(p18 + 29) = {28.2406635208029, -3.656213167998056, 0};
Point(p18 + 30) = {28.32977, -3.663226, 0};
Point(p18 + 31) = {28.4188764791971, -3.656213167998056, 0};
Point(p18 + 32) = {28.50578886114892, -3.635347351190366, 0};
Point(p18 + 33) = {28.58836707456614, -3.601142335236412, 0};
Point(p18 + 34) = {28.66457776977306, -3.55444036114892, 0};
Point(p18 + 35) = {28.73254438652489, -3.496391386524889, 0};
Point(p18 + 36) = {28.79059336114892, -3.428424769773064, 0};
Point(p18 + 37) = {28.83729533523641, -3.352214074566144, 0};
Point(p18 + 38) = {28.87150035119037, -3.26963586114892, 0};
Point(p18 + 39) = {28.89236616799806, -3.182723479197101, 0};
Spline(18) = {12, p18 + 1, p18 + 2, p18 + 3, p18 + 4, p18 + 5, p18 + 6, p18 + 7, p18 + 8, p18 + 9, p18 + 10, p18 + 11, p18 + 12, p18 + 13, p18 + 14, p18 + 15, p18 + 16, p18 + 17, p18 + 18, p18 + 19, p18 + 20, p18 + 21, p18 + 22, p18 + 23, p18 + 24, p18 + 25, p18 + 26, p18 + 27, p18 + 28, p18 + 29, p18 + 30, p18 + 31, p18 + 32, p18 + 33, p18 + 34, p18 + 35, p18 + 36, p18 + 37, p18 + 38, p18 + 39, 12};
Line(19) = {14, 13};
Line(20) = {13, 15};
Line(21) = {16, 15};
Line(22) = {14, 16};
Line(23) = {14, 17};
Line(24) = {17, 18};
Line(25) = {13, 18};
Line(26) = {15, 19};
Line(27) = {18, 19};
Line(28) = {16, 20};
Line(29) = {20, 19};
Line(30) = {17, 20};
Curve Loop(7) = {-13, -14, 15, 14};
Surface(7) = {7};
Curve Loop(8) = {13};
Plane Surface(8) = {8};
Curve Loop(9) = {15};
Plane Surface(9) = {9};
Curve Loop(10) = {-16, -17, 18, 17};
Surface(10) = {10};
Curve Loop(11) = {16};
Plane Surface(11) = {11};
Curve Loop(12) = {18};
Plane Surface(12) = {12};
Curve Loop(13) = {-19, 22, 21, -20};
Plane Surface(13) = {13};
Curve Loop(14) = {-23, 19, 25, -24};
Plane Surface(14) = {14};
Curve Loop(15) = {-20, 25, 27, -26};
Plane Surface(15) = {15};
Curve Loop(16) = {-28, 21, 26, -29};
Plane Surface(16) = {16};
Curve Loop(17) = {-22, 23, 30, -28, -18, -15};
Plane Surface(17) = {17};
Curve Loop(18) = {-24, 30, 29, -27};
Plane Surface(18) = {18};
Surface Loop(1) = {13, 14, 15, 16, 17, 18, 10, 7, 11, 8};
Volume(1) = {1};
Surface Loop(2) = {7, 8, 9};
Volume(2) = {2};
Surface Loop(3) = {10, 11, 12};
Volume(3) = {3};
Physical Surface("WALLS") = {13, 18};
Physical Surface("LOAD") = {8, 11};
Physical Surface("BORDER") = {7, 9, 10, 12, 14, 15, 16, 17};
Physical Volume("SOLID") = {1, 2, 3};
