cl__1 = 0.08273;
cl__2 = 0.109177;
cl__3 = 2.547792;
cl__4 = 2.030242;
cl__5 = 0.577946;
cl__6 = 0.790011;
Point(9) = {24.967859, -2.362461000000001, 0.1, cl__1};
Point(10) = {24.967859, -2.362461000000001, 0, cl__1};
Point(11) = {20.093486, 3.653763, 0.1, cl__2};
Point(12) = {20.093486, 3.653763, 0, cl__2};
Point(13) = {0.591581, -3.825533, 1, cl__3};
Point(14) = {0.591581, -3.825533, 0, cl__3};
Point(15) = {0.591581, 5.499511, 1, cl__4};
Point(16) = {0.591581, 5.499511, 0, cl__4};
Point(17) = {32.791709, -3.825533, 0, cl__5};
Point(18) = {32.791709, -3.825533, 1, cl__5};
Point(19) = {32.791709, 5.499511, 1, cl__6};
Point(20) = {32.791709, 5.499511, 0, cl__6};
p13 = newp;
Point(p13 + 1) = {24.95767361342099, -2.233043392810077, 0.1};
Point(p13 + 2) = {24.92736825170492, -2.106812476621584, 0.1};
Point(p13 + 3) = {24.87768913343494, -1.986876475527472, 0.1};
Point(p13 + 4) = {24.80985952337842, -1.876188611919446, 0.1};
Point(p13 + 5) = {24.72554961164851, -1.777474388351494, 0.1};
Point(p13 + 6) = {24.62683538808055, -1.693164476621584, 0.1};
Point(p13 + 7) = {24.51614752447253, -1.62533486656506, 0.1};
Point(p13 + 8) = {24.39621152337842, -1.575655748295085, 0.1};
Point(p13 + 9) = {24.26998060718992, -1.545350386579005, 0.1};
Point(p13 + 10) = {24.140563, -1.535165, 0.1};
Point(p13 + 11) = {24.01114539281008, -1.545350386579005, 0.1};
Point(p13 + 12) = {23.88491447662159, -1.575655748295085, 0.1};
Point(p13 + 13) = {23.76497847552747, -1.62533486656506, 0.1};
Point(p13 + 14) = {23.65429061191945, -1.693164476621584, 0.1};
Point(p13 + 15) = {23.55557638835149, -1.777474388351494, 0.1};
Point(p13 + 16) = {23.47126647662158, -1.876188611919446, 0.1};
Point(p13 + 17) = {23.40343686656506, -1.986876475527472, 0.1};
Point(p13 + 18) = {23.35375774829508, -2.106812476621584, 0.1};
Point(p13 + 19) = {23.32345238657901, -2.233043392810077, 0.1};
Point(p13 + 20) = {23.313267, -2.362461, 0.1};
Point(p13 + 21) = {23.32345238657901, -2.491878607189923, 0.1};
Point(p13 + 22) = {23.35375774829508, -2.618109523378417, 0.1};
Point(p13 + 23) = {23.40343686656506, -2.738045524472528, 0.1};
Point(p13 + 24) = {23.47126647662158, -2.848733388080554, 0.1};
Point(p13 + 25) = {23.55557638835149, -2.947447611648506, 0.1};
Point(p13 + 26) = {23.65429061191945, -3.031757523378417, 0.1};
Point(p13 + 27) = {23.76497847552747, -3.09958713343494, 0.1};
Point(p13 + 28) = {23.88491447662159, -3.149266251704915, 0.1};
Point(p13 + 29) = {24.01114539281008, -3.179571613420995, 0.1};
Point(p13 + 30) = {24.140563, -3.189757, 0.1};
Point(p13 + 31) = {24.26998060718992, -3.179571613420995, 0.1};
Point(p13 + 32) = {24.39621152337842, -3.149266251704915, 0.1};
Point(p13 + 33) = {24.51614752447253, -3.09958713343494, 0.1};
Point(p13 + 34) = {24.62683538808055, -3.031757523378417, 0.1};
Point(p13 + 35) = {24.72554961164851, -2.947447611648506, 0.1};
Point(p13 + 36) = {24.80985952337842, -2.848733388080554, 0.1};
Point(p13 + 37) = {24.87768913343494, -2.738045524472529, 0.1};
Point(p13 + 38) = {24.92736825170492, -2.618109523378417, 0.1};
Point(p13 + 39) = {24.95767361342099, -2.491878607189923, 0.1};
Spline(13) = {9, p13 + 1, p13 + 2, p13 + 3, p13 + 4, p13 + 5, p13 + 6, p13 + 7, p13 + 8, p13 + 9, p13 + 10, p13 + 11, p13 + 12, p13 + 13, p13 + 14, p13 + 15, p13 + 16, p13 + 17, p13 + 18, p13 + 19, p13 + 20, p13 + 21, p13 + 22, p13 + 23, p13 + 24, p13 + 25, p13 + 26, p13 + 27, p13 + 28, p13 + 29, p13 + 30, p13 + 31, p13 + 32, p13 + 33, p13 + 34, p13 + 35, p13 + 36, p13 + 37, p13 + 38, p13 + 39, 9};
Line(14) = {10, 9};
p15 = newp;
Point(p15 + 1) = {24.95767361342099, -2.233043392810077, 0};
Point(p15 + 2) = {24.92736825170492, -2.106812476621584, 0};
Point(p15 + 3) = {24.87768913343494, -1.986876475527472, 0};
Point(p15 + 4) = {24.80985952337842, -1.876188611919446, 0};
Point(p15 + 5) = {24.72554961164851, -1.777474388351494, 0};
Point(p15 + 6) = {24.62683538808055, -1.693164476621584, 0};
Point(p15 + 7) = {24.51614752447253, -1.62533486656506, 0};
Point(p15 + 8) = {24.39621152337842, -1.575655748295085, 0};
Point(p15 + 9) = {24.26998060718992, -1.545350386579005, 0};
Point(p15 + 10) = {24.140563, -1.535165, 0};
Point(p15 + 11) = {24.01114539281008, -1.545350386579005, 0};
Point(p15 + 12) = {23.88491447662159, -1.575655748295085, 0};
Point(p15 + 13) = {23.76497847552747, -1.62533486656506, 0};
Point(p15 + 14) = {23.65429061191945, -1.693164476621584, 0};
Point(p15 + 15) = {23.55557638835149, -1.777474388351494, 0};
Point(p15 + 16) = {23.47126647662158, -1.876188611919446, 0};
Point(p15 + 17) = {23.40343686656506, -1.986876475527472, 0};
Point(p15 + 18) = {23.35375774829508, -2.106812476621584, 0};
Point(p15 + 19) = {23.32345238657901, -2.233043392810077, 0};
Point(p15 + 20) = {23.313267, -2.362461, 0};
Point(p15 + 21) = {23.32345238657901, -2.491878607189923, 0};
Point(p15 + 22) = {23.35375774829508, -2.618109523378417, 0};
Point(p15 + 23) = {23.40343686656506, -2.738045524472528, 0};
Point(p15 + 24) = {23.47126647662158, -2.848733388080554, 0};
Point(p15 + 25) = {23.55557638835149, -2.947447611648506, 0};
Point(p15 + 26) = {23.65429061191945, -3.031757523378417, 0};
Point(p15 + 27) = {23.76497847552747, -3.09958713343494, 0};
Point(p15 + 28) = {23.88491447662159, -3.149266251704915, 0};
Point(p15 + 29) = {24.01114539281008, -3.179571613420995, 0};
Point(p15 + 30) = {24.140563, -3.189757, 0};
Point(p15 + 31) = {24.26998060718992, -3.179571613420995, 0};
Point(p15 + 32) = {24.39621152337842, -3.149266251704915, 0};
Point(p15 + 33) = {24.51614752447253, -3.09958713343494, 0};
Point(p15 + 34) = {24.62683538808055, -3.031757523378417, 0};
Point(p15 + 35) = {24.72554961164851, -2.947447611648506, 0};
Point(p15 + 36) = {24.80985952337842, -2.848733388080554, 0};
Point(p15 + 37) = {24.87768913343494, -2.738045524472529, 0};
Point(p15 + 38) = {24.92736825170492, -2.618109523378417, 0};
Point(p15 + 39) = {24.95767361342099, -2.491878607189923, 0};
Spline(15) = {10, p15 + 1, p15 + 2, p15 + 3, p15 + 4, p15 + 5, p15 + 6, p15 + 7, p15 + 8, p15 + 9, p15 + 10, p15 + 11, p15 + 12, p15 + 13, p15 + 14, p15 + 15, p15 + 16, p15 + 17, p15 + 18, p15 + 19, p15 + 20, p15 + 21, p15 + 22, p15 + 23, p15 + 24, p15 + 25, p15 + 26, p15 + 27, p15 + 28, p15 + 29, p15 + 30, p15 + 31, p15 + 32, p15 + 33, p15 + 34, p15 + 35, p15 + 36, p15 + 37, p15 + 38, p15 + 39, 10};
p16 = newp;
Point(p16 + 1) = {20.08004447498823, 3.824553768765903, 0.1};
Point(p16 + 2) = {20.04005087490859, 3.991139101982725, 0.1};
Point(p16 + 3) = {19.97448997492618, 4.149417115881644, 0.1};
Point(p16 + 4) = {19.88497610198273, 4.295490480465858, 0.1};
Point(p16 + 5) = {19.7737133847096, 4.425762384709599, 0.1};
Point(p16 + 6) = {19.64344148046586, 4.537025101982725, 0.1};
Point(p16 + 7) = {19.49736811588165, 4.626538974926182, 0.1};
Point(p16 + 8) = {19.33909010198272, 4.692099874908592, 0.1};
Point(p16 + 9) = {19.1725047687659, 4.732093474988234, 0.1};
Point(p16 + 10) = {19.001714, 4.745535, 0.1};
Point(p16 + 11) = {18.8309232312341, 4.732093474988234, 0.1};
Point(p16 + 12) = {18.66433789801728, 4.692099874908592, 0.1};
Point(p16 + 13) = {18.50605988411835, 4.626538974926182, 0.1};
Point(p16 + 14) = {18.35998651953414, 4.537025101982725, 0.1};
Point(p16 + 15) = {18.2297146152904, 4.4257623847096, 0.1};
Point(p16 + 16) = {18.11845189801727, 4.295490480465858, 0.1};
Point(p16 + 17) = {18.02893802507382, 4.149417115881644, 0.1};
Point(p16 + 18) = {17.96337712509141, 3.991139101982725, 0.1};
Point(p16 + 19) = {17.92338352501177, 3.824553768765903, 0.1};
Point(p16 + 20) = {17.909942, 3.653763, 0.1};
Point(p16 + 21) = {17.92338352501177, 3.482972231234097, 0.1};
Point(p16 + 22) = {17.96337712509141, 3.316386898017275, 0.1};
Point(p16 + 23) = {18.02893802507382, 3.158108884118356, 0.1};
Point(p16 + 24) = {18.11845189801727, 3.012035519534142, 0.1};
Point(p16 + 25) = {18.2297146152904, 2.881763615290401, 0.1};
Point(p16 + 26) = {18.35998651953414, 2.770500898017275, 0.1};
Point(p16 + 27) = {18.50605988411835, 2.680987025073818, 0.1};
Point(p16 + 28) = {18.66433789801728, 2.615426125091408, 0.1};
Point(p16 + 29) = {18.8309232312341, 2.575432525011766, 0.1};
Point(p16 + 30) = {19.001714, 2.561991, 0.1};
Point(p16 + 31) = {19.1725047687659, 2.575432525011765, 0.1};
Point(p16 + 32) = {19.33909010198272, 2.615426125091408, 0.1};
Point(p16 + 33) = {19.49736811588165, 2.680987025073817, 0.1};
Point(p16 + 34) = {19.64344148046586, 2.770500898017275, 0.1};
Point(p16 + 35) = {19.7737133847096, 2.881763615290401, 0.1};
Point(p16 + 36) = {19.88497610198273, 3.012035519534142, 0.1};
Point(p16 + 37) = {19.97448997492618, 3.158108884118355, 0.1};
Point(p16 + 38) = {20.04005087490859, 3.316386898017275, 0.1};
Point(p16 + 39) = {20.08004447498823, 3.482972231234097, 0.1};
Spline(16) = {11, p16 + 1, p16 + 2, p16 + 3, p16 + 4, p16 + 5, p16 + 6, p16 + 7, p16 + 8, p16 + 9, p16 + 10, p16 + 11, p16 + 12, p16 + 13, p16 + 14, p16 + 15, p16 + 16, p16 + 17, p16 + 18, p16 + 19, p16 + 20, p16 + 21, p16 + 22, p16 + 23, p16 + 24, p16 + 25, p16 + 26, p16 + 27, p16 + 28, p16 + 29, p16 + 30, p16 + 31, p16 + 32, p16 + 33, p16 + 34, p16 + 35, p16 + 36, p16 + 37, p16 + 38, p16 + 39, 11};
Line(17) = {12, 11};
p18 = newp;
Point(p18 + 1) = {20.08004447498823, 3.824553768765903, 0};
Point(p18 + 2) = {20.04005087490859, 3.991139101982725, 0};
Point(p18 + 3) = {19.97448997492618, 4.149417115881644, 0};
Point(p18 + 4) = {19.88497610198273, 4.295490480465858, 0};
Point(p18 + 5) = {19.7737133847096, 4.425762384709599, 0};
Point(p18 + 6) = {19.64344148046586, 4.537025101982725, 0};
Point(p18 + 7) = {19.49736811588165, 4.626538974926182, 0};
Point(p18 + 8) = {19.33909010198272, 4.692099874908592, 0};
Point(p18 + 9) = {19.1725047687659, 4.732093474988234, 0};
Point(p18 + 10) = {19.001714, 4.745535, 0};
Point(p18 + 11) = {18.8309232312341, 4.732093474988234, 0};
Point(p18 + 12) = {18.66433789801728, 4.692099874908592, 0};
Point(p18 + 13) = {18.50605988411835, 4.626538974926182, 0};
Point(p18 + 14) = {18.35998651953414, 4.537025101982725, 0};
Point(p18 + 15) = {18.2297146152904, 4.4257623847096, 0};
Point(p18 + 16) = {18.11845189801727, 4.295490480465858, 0};
Point(p18 + 17) = {18.02893802507382, 4.149417115881644, 0};
Point(p18 + 18) = {17.96337712509141, 3.991139101982725, 0};
Point(p18 + 19) = {17.92338352501177, 3.824553768765903, 0};
Point(p18 + 20) = {17.909942, 3.653763, 0};
Point(p18 + 21) = {17.92338352501177, 3.482972231234097, 0};
Point(p18 + 22) = {17.96337712509141, 3.316386898017275, 0};
Point(p18 + 23) = {18.02893802507382, 3.158108884118356, 0};
Point(p18 + 24) = {18.11845189801727, 3.012035519534142, 0};
Point(p18 + 25) = {18.2297146152904, 2.881763615290401, 0};
Point(p18 + 26) = {18.35998651953414, 2.770500898017275, 0};
Point(p18 + 27) = {18.50605988411835, 2.680987025073818, 0};
Point(p18 + 28) = {18.66433789801728, 2.615426125091408, 0};
Point(p18 + 29) = {18.8309232312341, 2.575432525011766, 0};
Point(p18 + 30) = {19.001714, 2.561991, 0};
Point(p18 + 31) = {19.1725047687659, 2.575432525011765, 0};
Point(p18 + 32) = {19.33909010198272, 2.615426125091408, 0};
Point(p18 + 33) = {19.49736811588165, 2.680987025073817, 0};
Point(p18 + 34) = {19.64344148046586, 2.770500898017275, 0};
Point(p18 + 35) = {19.7737133847096, 2.881763615290401, 0};
Point(p18 + 36) = {19.88497610198273, 3.012035519534142, 0};
Point(p18 + 37) = {19.97448997492618, 3.158108884118355, 0};
Point(p18 + 38) = {20.04005087490859, 3.316386898017275, 0};
Point(p18 + 39) = {20.08004447498823, 3.482972231234097, 0};
Spline(18) = {12, p18 + 1, p18 + 2, p18 + 3, p18 + 4, p18 + 5, p18 + 6, p18 + 7, p18 + 8, p18 + 9, p18 + 10, p18 + 11, p18 + 12, p18 + 13, p18 + 14, p18 + 15, p18 + 16, p18 + 17, p18 + 18, p18 + 19, p18 + 20, p18 + 21, p18 + 22, p18 + 23, p18 + 24, p18 + 25, p18 + 26, p18 + 27, p18 + 28, p18 + 29, p18 + 30, p18 + 31, p18 + 32, p18 + 33, p18 + 34, p18 + 35, p18 + 36, p18 + 37, p18 + 38, p18 + 39, 12};
Line(19) = {14, 13};
Line(20) = {13, 15};
Line(21) = {16, 15};
Line(22) = {14, 16};
Line(23) = {14, 17};
Line(24) = {17, 18};
Line(25) = {13, 18};
Line(26) = {15, 19};
Line(27) = {18, 19};
Line(28) = {16, 20};
Line(29) = {20, 19};
Line(30) = {17, 20};
Curve Loop(7) = {-13, -14, 15, 14};
Surface(7) = {7};
Curve Loop(8) = {13};
Plane Surface(8) = {8};
Curve Loop(9) = {15};
Plane Surface(9) = {9};
Curve Loop(10) = {-16, -17, 18, 17};
Surface(10) = {10};
Curve Loop(11) = {16};
Plane Surface(11) = {11};
Curve Loop(12) = {18};
Plane Surface(12) = {12};
Curve Loop(13) = {-19, 22, 21, -20};
Plane Surface(13) = {13};
Curve Loop(14) = {-23, 19, 25, -24};
Plane Surface(14) = {14};
Curve Loop(15) = {-20, 25, 27, -26};
Plane Surface(15) = {15};
Curve Loop(16) = {-28, 21, 26, -29};
Plane Surface(16) = {16};
Curve Loop(17) = {-22, 23, 30, -28, -15, -18};
Plane Surface(17) = {17};
Curve Loop(18) = {-24, 30, 29, -27};
Plane Surface(18) = {18};
Surface Loop(1) = {13, 14, 15, 16, 17, 18, 7, 10, 8, 11};
Volume(1) = {1};
Surface Loop(2) = {7, 8, 9};
Volume(2) = {2};
Surface Loop(3) = {10, 11, 12};
Volume(3) = {3};
Physical Surface("WALLS") = {13, 18};
Physical Surface("LOAD") = {8, 11};
Physical Surface("BORDER") = {7, 9, 10, 12, 14, 15, 16, 17};
Physical Volume("SOLID") = {1, 2, 3};
