cl__1 = 0.06930799999999999;
cl__2 = 0.061998;
cl__3 = 0.662397;
cl__4 = 0.83806;
cl__5 = 2.053148;
cl__6 = 1.854335;
Point(9) = {9.100432, -1.631753, 0.1, cl__1};
Point(10) = {9.100432, -1.631753, 0, cl__1};
Point(11) = {25.069332, 1.566785, 0.1, cl__2};
Point(12) = {25.069332, 1.566785, 0, cl__2};
Point(13) = {0.547613, -3.09215, 1, cl__3};
Point(14) = {0.547613, -3.09215, 0, cl__3};
Point(15) = {0.547613, 4.437754, 1, cl__4};
Point(16) = {0.547613, 4.437754, 0, cl__4};
Point(17) = {38.316895, -3.09215, 0, cl__5};
Point(18) = {38.316895, -3.09215, 1, cl__5};
Point(19) = {38.316895, 4.437754, 1, cl__6};
Point(20) = {38.316895, 4.437754, 0, cl__6};
p13 = newp;
Point(p13 + 1) = {9.091899035099678, -1.523331400969917, 0.1};
Point(p13 + 2) = {9.066510250313845, -1.417579501538611, 0.1};
Point(p13 + 3) = {9.024890801784473, -1.317101264440515, 0.1};
Point(p13 + 4) = {8.968065498461389, -1.224370797341133, 0.1};
Point(p13 + 5) = {8.897433567904772, -1.141671432095228, 0.1};
Point(p13 + 6) = {8.814734202658867, -1.071039501538611, 0.1};
Point(p13 + 7) = {8.722003735559484, -1.014214198215526, 0.1};
Point(p13 + 8) = {8.621525498461388, -0.972594749686155, 0.1};
Point(p13 + 9) = {8.515773599030084, -0.9472059649003219, 0.1};
Point(p13 + 10) = {8.407351999999999, -0.938673, 0.1};
Point(p13 + 11) = {8.298930400969915, -0.9472059649003219, 0.1};
Point(p13 + 12) = {8.193178501538611, -0.9725947496861549, 0.1};
Point(p13 + 13) = {8.092700264440515, -1.014214198215526, 0.1};
Point(p13 + 14) = {7.999969797341132, -1.071039501538611, 0.1};
Point(p13 + 15) = {7.917270432095227, -1.141671432095228, 0.1};
Point(p13 + 16) = {7.846638501538611, -1.224370797341133, 0.1};
Point(p13 + 17) = {7.789813198215525, -1.317101264440515, 0.1};
Point(p13 + 18) = {7.748193749686155, -1.417579501538611, 0.1};
Point(p13 + 19) = {7.722804964900321, -1.523331400969917, 0.1};
Point(p13 + 20) = {7.714271999999999, -1.631753, 0.1};
Point(p13 + 21) = {7.722804964900321, -1.740174599030083, 0.1};
Point(p13 + 22) = {7.748193749686155, -1.845926498461389, 0.1};
Point(p13 + 23) = {7.789813198215525, -1.946404735559485, 0.1};
Point(p13 + 24) = {7.846638501538611, -2.039135202658867, 0.1};
Point(p13 + 25) = {7.917270432095227, -2.121834567904772, 0.1};
Point(p13 + 26) = {7.999969797341132, -2.192466498461389, 0.1};
Point(p13 + 27) = {8.092700264440515, -2.249291801784474, 0.1};
Point(p13 + 28) = {8.193178501538611, -2.290911250313845, 0.1};
Point(p13 + 29) = {8.298930400969915, -2.316300035099678, 0.1};
Point(p13 + 30) = {8.407351999999999, -2.324833, 0.1};
Point(p13 + 31) = {8.515773599030082, -2.316300035099678, 0.1};
Point(p13 + 32) = {8.621525498461388, -2.290911250313845, 0.1};
Point(p13 + 33) = {8.722003735559484, -2.249291801784474, 0.1};
Point(p13 + 34) = {8.814734202658867, -2.192466498461389, 0.1};
Point(p13 + 35) = {8.897433567904772, -2.121834567904772, 0.1};
Point(p13 + 36) = {8.968065498461389, -2.039135202658867, 0.1};
Point(p13 + 37) = {9.024890801784473, -1.946404735559485, 0.1};
Point(p13 + 38) = {9.066510250313845, -1.845926498461389, 0.1};
Point(p13 + 39) = {9.091899035099678, -1.740174599030083, 0.1};
Spline(13) = {9, p13 + 1, p13 + 2, p13 + 3, p13 + 4, p13 + 5, p13 + 6, p13 + 7, p13 + 8, p13 + 9, p13 + 10, p13 + 11, p13 + 12, p13 + 13, p13 + 14, p13 + 15, p13 + 16, p13 + 17, p13 + 18, p13 + 19, p13 + 20, p13 + 21, p13 + 22, p13 + 23, p13 + 24, p13 + 25, p13 + 26, p13 + 27, p13 + 28, p13 + 29, p13 + 30, p13 + 31, p13 + 32, p13 + 33, p13 + 34, p13 + 35, p13 + 36, p13 + 37, p13 + 38, p13 + 39, 9};
Line(14) = {10, 9};
p15 = newp;
Point(p15 + 1) = {9.091899035099678, -1.523331400969917, 0};
Point(p15 + 2) = {9.066510250313845, -1.417579501538611, 0};
Point(p15 + 3) = {9.024890801784473, -1.317101264440515, 0};
Point(p15 + 4) = {8.968065498461389, -1.224370797341133, 0};
Point(p15 + 5) = {8.897433567904772, -1.141671432095228, 0};
Point(p15 + 6) = {8.814734202658867, -1.071039501538611, 0};
Point(p15 + 7) = {8.722003735559484, -1.014214198215526, 0};
Point(p15 + 8) = {8.621525498461388, -0.972594749686155, 0};
Point(p15 + 9) = {8.515773599030084, -0.9472059649003219, 0};
Point(p15 + 10) = {8.407351999999999, -0.938673, 0};
Point(p15 + 11) = {8.298930400969915, -0.9472059649003219, 0};
Point(p15 + 12) = {8.193178501538611, -0.9725947496861549, 0};
Point(p15 + 13) = {8.092700264440515, -1.014214198215526, 0};
Point(p15 + 14) = {7.999969797341132, -1.071039501538611, 0};
Point(p15 + 15) = {7.917270432095227, -1.141671432095228, 0};
Point(p15 + 16) = {7.846638501538611, -1.224370797341133, 0};
Point(p15 + 17) = {7.789813198215525, -1.317101264440515, 0};
Point(p15 + 18) = {7.748193749686155, -1.417579501538611, 0};
Point(p15 + 19) = {7.722804964900321, -1.523331400969917, 0};
Point(p15 + 20) = {7.714271999999999, -1.631753, 0};
Point(p15 + 21) = {7.722804964900321, -1.740174599030083, 0};
Point(p15 + 22) = {7.748193749686155, -1.845926498461389, 0};
Point(p15 + 23) = {7.789813198215525, -1.946404735559485, 0};
Point(p15 + 24) = {7.846638501538611, -2.039135202658867, 0};
Point(p15 + 25) = {7.917270432095227, -2.121834567904772, 0};
Point(p15 + 26) = {7.999969797341132, -2.192466498461389, 0};
Point(p15 + 27) = {8.092700264440515, -2.249291801784474, 0};
Point(p15 + 28) = {8.193178501538611, -2.290911250313845, 0};
Point(p15 + 29) = {8.298930400969915, -2.316300035099678, 0};
Point(p15 + 30) = {8.407351999999999, -2.324833, 0};
Point(p15 + 31) = {8.515773599030082, -2.316300035099678, 0};
Point(p15 + 32) = {8.621525498461388, -2.290911250313845, 0};
Point(p15 + 33) = {8.722003735559484, -2.249291801784474, 0};
Point(p15 + 34) = {8.814734202658867, -2.192466498461389, 0};
Point(p15 + 35) = {8.897433567904772, -2.121834567904772, 0};
Point(p15 + 36) = {8.968065498461389, -2.039135202658867, 0};
Point(p15 + 37) = {9.024890801784473, -1.946404735559485, 0};
Point(p15 + 38) = {9.066510250313845, -1.845926498461389, 0};
Point(p15 + 39) = {9.091899035099678, -1.740174599030083, 0};
Spline(15) = {10, p15 + 1, p15 + 2, p15 + 3, p15 + 4, p15 + 5, p15 + 6, p15 + 7, p15 + 8, p15 + 9, p15 + 10, p15 + 11, p15 + 12, p15 + 13, p15 + 14, p15 + 15, p15 + 16, p15 + 17, p15 + 18, p15 + 19, p15 + 20, p15 + 21, p15 + 22, p15 + 23, p15 + 24, p15 + 25, p15 + 26, p15 + 27, p15 + 28, p15 + 29, p15 + 30, p15 + 31, p15 + 32, p15 + 33, p15 + 34, p15 + 35, p15 + 36, p15 + 37, p15 + 38, p15 + 39, 10};
p16 = newp;
Point(p16 + 1) = {25.06169905433715, 1.663770770332247, 0.1};
Point(p16 + 2) = {25.03898816580312, 1.758368429121597, 0.1};
Point(p16 + 3) = {25.00175855184673, 1.848248668057025, 0.1};
Point(p16 + 4) = {24.9509269291216, 1.931198337360531, 0.1};
Point(p16 + 5) = {24.88774494087969, 2.005174940879692, 0.1};
Point(p16 + 6) = {24.81376833736053, 2.068356929121597, 0.1};
Point(p16 + 7) = {24.73081866805703, 2.119188551846732, 0.1};
Point(p16 + 8) = {24.6409384291216, 2.156418165803121, 0.1};
Point(p16 + 9) = {24.54634077033225, 2.179129054337152, 0.1};
Point(p16 + 10) = {24.449355, 2.186762, 0.1};
Point(p16 + 11) = {24.35236922966775, 2.179129054337152, 0.1};
Point(p16 + 12) = {24.2577715708784, 2.156418165803121, 0.1};
Point(p16 + 13) = {24.16789133194298, 2.119188551846732, 0.1};
Point(p16 + 14) = {24.08494166263947, 2.068356929121597, 0.1};
Point(p16 + 15) = {24.01096505912031, 2.005174940879692, 0.1};
Point(p16 + 16) = {23.9477830708784, 1.931198337360531, 0.1};
Point(p16 + 17) = {23.89695144815327, 1.848248668057025, 0.1};
Point(p16 + 18) = {23.85972183419688, 1.758368429121597, 0.1};
Point(p16 + 19) = {23.83701094566285, 1.663770770332247, 0.1};
Point(p16 + 20) = {23.829378, 1.566785, 0.1};
Point(p16 + 21) = {23.83701094566285, 1.469799229667753, 0.1};
Point(p16 + 22) = {23.85972183419688, 1.375201570878403, 0.1};
Point(p16 + 23) = {23.89695144815327, 1.285321331942975, 0.1};
Point(p16 + 24) = {23.9477830708784, 1.20237166263947, 0.1};
Point(p16 + 25) = {24.01096505912031, 1.128395059120308, 0.1};
Point(p16 + 26) = {24.08494166263947, 1.065213070878403, 0.1};
Point(p16 + 27) = {24.16789133194298, 1.014381448153268, 0.1};
Point(p16 + 28) = {24.2577715708784, 0.9771518341968797, 0.1};
Point(p16 + 29) = {24.35236922966775, 0.9544409456628484, 0.1};
Point(p16 + 30) = {24.449355, 0.9468080000000001, 0.1};
Point(p16 + 31) = {24.54634077033225, 0.9544409456628483, 0.1};
Point(p16 + 32) = {24.6409384291216, 0.9771518341968797, 0.1};
Point(p16 + 33) = {24.73081866805703, 1.014381448153268, 0.1};
Point(p16 + 34) = {24.81376833736053, 1.065213070878403, 0.1};
Point(p16 + 35) = {24.88774494087969, 1.128395059120308, 0.1};
Point(p16 + 36) = {24.9509269291216, 1.202371662639469, 0.1};
Point(p16 + 37) = {25.00175855184673, 1.285321331942975, 0.1};
Point(p16 + 38) = {25.03898816580312, 1.375201570878403, 0.1};
Point(p16 + 39) = {25.06169905433715, 1.469799229667753, 0.1};
Spline(16) = {11, p16 + 1, p16 + 2, p16 + 3, p16 + 4, p16 + 5, p16 + 6, p16 + 7, p16 + 8, p16 + 9, p16 + 10, p16 + 11, p16 + 12, p16 + 13, p16 + 14, p16 + 15, p16 + 16, p16 + 17, p16 + 18, p16 + 19, p16 + 20, p16 + 21, p16 + 22, p16 + 23, p16 + 24, p16 + 25, p16 + 26, p16 + 27, p16 + 28, p16 + 29, p16 + 30, p16 + 31, p16 + 32, p16 + 33, p16 + 34, p16 + 35, p16 + 36, p16 + 37, p16 + 38, p16 + 39, 11};
Line(17) = {12, 11};
p18 = newp;
Point(p18 + 1) = {25.06169905433715, 1.663770770332247, 0};
Point(p18 + 2) = {25.03898816580312, 1.758368429121597, 0};
Point(p18 + 3) = {25.00175855184673, 1.848248668057025, 0};
Point(p18 + 4) = {24.9509269291216, 1.931198337360531, 0};
Point(p18 + 5) = {24.88774494087969, 2.005174940879692, 0};
Point(p18 + 6) = {24.81376833736053, 2.068356929121597, 0};
Point(p18 + 7) = {24.73081866805703, 2.119188551846732, 0};
Point(p18 + 8) = {24.6409384291216, 2.156418165803121, 0};
Point(p18 + 9) = {24.54634077033225, 2.179129054337152, 0};
Point(p18 + 10) = {24.449355, 2.186762, 0};
Point(p18 + 11) = {24.35236922966775, 2.179129054337152, 0};
Point(p18 + 12) = {24.2577715708784, 2.156418165803121, 0};
Point(p18 + 13) = {24.16789133194298, 2.119188551846732, 0};
Point(p18 + 14) = {24.08494166263947, 2.068356929121597, 0};
Point(p18 + 15) = {24.01096505912031, 2.005174940879692, 0};
Point(p18 + 16) = {23.9477830708784, 1.931198337360531, 0};
Point(p18 + 17) = {23.89695144815327, 1.848248668057025, 0};
Point(p18 + 18) = {23.85972183419688, 1.758368429121597, 0};
Point(p18 + 19) = {23.83701094566285, 1.663770770332247, 0};
Point(p18 + 20) = {23.829378, 1.566785, 0};
Point(p18 + 21) = {23.83701094566285, 1.469799229667753, 0};
Point(p18 + 22) = {23.85972183419688, 1.375201570878403, 0};
Point(p18 + 23) = {23.89695144815327, 1.285321331942975, 0};
Point(p18 + 24) = {23.9477830708784, 1.20237166263947, 0};
Point(p18 + 25) = {24.01096505912031, 1.128395059120308, 0};
Point(p18 + 26) = {24.08494166263947, 1.065213070878403, 0};
Point(p18 + 27) = {24.16789133194298, 1.014381448153268, 0};
Point(p18 + 28) = {24.2577715708784, 0.9771518341968797, 0};
Point(p18 + 29) = {24.35236922966775, 0.9544409456628484, 0};
Point(p18 + 30) = {24.449355, 0.9468080000000001, 0};
Point(p18 + 31) = {24.54634077033225, 0.9544409456628483, 0};
Point(p18 + 32) = {24.6409384291216, 0.9771518341968797, 0};
Point(p18 + 33) = {24.73081866805703, 1.014381448153268, 0};
Point(p18 + 34) = {24.81376833736053, 1.065213070878403, 0};
Point(p18 + 35) = {24.88774494087969, 1.128395059120308, 0};
Point(p18 + 36) = {24.9509269291216, 1.202371662639469, 0};
Point(p18 + 37) = {25.00175855184673, 1.285321331942975, 0};
Point(p18 + 38) = {25.03898816580312, 1.375201570878403, 0};
Point(p18 + 39) = {25.06169905433715, 1.469799229667753, 0};
Spline(18) = {12, p18 + 1, p18 + 2, p18 + 3, p18 + 4, p18 + 5, p18 + 6, p18 + 7, p18 + 8, p18 + 9, p18 + 10, p18 + 11, p18 + 12, p18 + 13, p18 + 14, p18 + 15, p18 + 16, p18 + 17, p18 + 18, p18 + 19, p18 + 20, p18 + 21, p18 + 22, p18 + 23, p18 + 24, p18 + 25, p18 + 26, p18 + 27, p18 + 28, p18 + 29, p18 + 30, p18 + 31, p18 + 32, p18 + 33, p18 + 34, p18 + 35, p18 + 36, p18 + 37, p18 + 38, p18 + 39, 12};
Line(19) = {14, 13};
Line(20) = {13, 15};
Line(21) = {16, 15};
Line(22) = {14, 16};
Line(23) = {14, 17};
Line(24) = {17, 18};
Line(25) = {13, 18};
Line(26) = {15, 19};
Line(27) = {18, 19};
Line(28) = {16, 20};
Line(29) = {20, 19};
Line(30) = {17, 20};
Curve Loop(7) = {-13, -14, 15, 14};
Surface(7) = {7};
Curve Loop(8) = {13};
Plane Surface(8) = {8};
Curve Loop(9) = {15};
Plane Surface(9) = {9};
Curve Loop(10) = {-16, -17, 18, 17};
Surface(10) = {10};
Curve Loop(11) = {16};
Plane Surface(11) = {11};
Curve Loop(12) = {18};
Plane Surface(12) = {12};
Curve Loop(13) = {-19, 22, 21, -20};
Plane Surface(13) = {13};
Curve Loop(14) = {-23, 19, 25, -24};
Plane Surface(14) = {14};
Curve Loop(15) = {-20, 25, 27, -26};
Plane Surface(15) = {15};
Curve Loop(16) = {-28, 21, 26, -29};
Plane Surface(16) = {16};
Curve Loop(17) = {-22, 23, 30, -28, -15, -18};
Plane Surface(17) = {17};
Curve Loop(18) = {-24, 30, 29, -27};
Plane Surface(18) = {18};
Surface Loop(1) = {13, 14, 15, 16, 17, 18, 7, 10, 8, 11};
Volume(1) = {1};
Surface Loop(2) = {7, 8, 9};
Volume(2) = {2};
Surface Loop(3) = {10, 11, 12};
Volume(3) = {3};
Physical Surface("WALLS") = {13, 18};
Physical Surface("LOAD") = {8, 11};
Physical Surface("BORDER") = {7, 9, 10, 12, 14, 15, 16, 17};
Physical Volume("SOLID") = {1, 2, 3};
