cl__1 = 0.07352;
cl__2 = 0.07462199999999999;
cl__3 = 0.738274;
cl__4 = 0.377491;
cl__5 = 3.096366;
cl__6 = 2.904043;
Point(9) = {19.062949, 1.395491, 0.1, cl__1};
Point(10) = {19.062949, 1.395491, 0, cl__1};
Point(11) = {4.438856, 3.108468, 0.1, cl__2};
Point(12) = {4.438856, 3.108468, 0, cl__2};
Point(13) = {0.157433, -3.021502, 1, cl__3};
Point(14) = {0.157433, -3.021502, 0, cl__3};
Point(15) = {0.157433, 4.94306, 1, cl__4};
Point(16) = {0.157433, 4.94306, 0, cl__4};
Point(17) = {30.801115, -3.021502, 0, cl__5};
Point(18) = {30.801115, -3.021502, 1, cl__5};
Point(19) = {30.801115, 4.94306, 1, cl__6};
Point(20) = {30.801115, 4.94306, 0, cl__6};
p13 = newp;
Point(p13 + 1) = {19.05389741875891, 1.510502244435438, 0.1};
Point(p13 + 2) = {19.02696555500626, 1.622681530332439, 0.1};
Point(p13 + 3) = {18.98281656060939, 1.729266631370514, 0.1};
Point(p13 + 4) = {18.92253753033244, 1.827633068626435, 0.1};
Point(p13 + 5) = {18.84761273395548, 1.915358733955475, 0.1};
Point(p13 + 6) = {18.75988706862644, 1.990283530332439, 0.1};
Point(p13 + 7) = {18.66152063137051, 2.050562560609385, 0.1};
Point(p13 + 8) = {18.55493553033244, 2.094711555006262, 0.1};
Point(p13 + 9) = {18.44275624443544, 2.121643418758908, 0.1};
Point(p13 + 10) = {18.327745, 2.130695, 0.1};
Point(p13 + 11) = {18.21273375556456, 2.121643418758908, 0.1};
Point(p13 + 12) = {18.10055446966756, 2.094711555006262, 0.1};
Point(p13 + 13) = {17.99396936862949, 2.050562560609385, 0.1};
Point(p13 + 14) = {17.89560293137356, 1.990283530332439, 0.1};
Point(p13 + 15) = {17.80787726604452, 1.915358733955475, 0.1};
Point(p13 + 16) = {17.73295246966756, 1.827633068626435, 0.1};
Point(p13 + 17) = {17.67267343939061, 1.729266631370514, 0.1};
Point(p13 + 18) = {17.62852444499374, 1.622681530332439, 0.1};
Point(p13 + 19) = {17.60159258124109, 1.510502244435438, 0.1};
Point(p13 + 20) = {17.592541, 1.395491, 0.1};
Point(p13 + 21) = {17.60159258124109, 1.280479755564562, 0.1};
Point(p13 + 22) = {17.62852444499374, 1.168300469667561, 0.1};
Point(p13 + 23) = {17.67267343939061, 1.061715368629487, 0.1};
Point(p13 + 24) = {17.73295246966756, 0.9633489313735647, 0.1};
Point(p13 + 25) = {17.80787726604452, 0.8756232660445257, 0.1};
Point(p13 + 26) = {17.89560293137356, 0.8006984696675613, 0.1};
Point(p13 + 27) = {17.99396936862949, 0.7404194393906153, 0.1};
Point(p13 + 28) = {18.10055446966756, 0.696270444993738, 0.1};
Point(p13 + 29) = {18.21273375556456, 0.6693385812410925, 0.1};
Point(p13 + 30) = {18.327745, 0.6602870000000001, 0.1};
Point(p13 + 31) = {18.44275624443544, 0.6693385812410924, 0.1};
Point(p13 + 32) = {18.55493553033244, 0.6962704449937379, 0.1};
Point(p13 + 33) = {18.66152063137051, 0.7404194393906152, 0.1};
Point(p13 + 34) = {18.75988706862644, 0.8006984696675611, 0.1};
Point(p13 + 35) = {18.84761273395548, 0.8756232660445255, 0.1};
Point(p13 + 36) = {18.92253753033244, 0.9633489313735646, 0.1};
Point(p13 + 37) = {18.98281656060939, 1.061715368629486, 0.1};
Point(p13 + 38) = {19.02696555500626, 1.168300469667561, 0.1};
Point(p13 + 39) = {19.05389741875891, 1.280479755564562, 0.1};
Spline(13) = {9, p13 + 1, p13 + 2, p13 + 3, p13 + 4, p13 + 5, p13 + 6, p13 + 7, p13 + 8, p13 + 9, p13 + 10, p13 + 11, p13 + 12, p13 + 13, p13 + 14, p13 + 15, p13 + 16, p13 + 17, p13 + 18, p13 + 19, p13 + 20, p13 + 21, p13 + 22, p13 + 23, p13 + 24, p13 + 25, p13 + 26, p13 + 27, p13 + 28, p13 + 29, p13 + 30, p13 + 31, p13 + 32, p13 + 33, p13 + 34, p13 + 35, p13 + 36, p13 + 37, p13 + 38, p13 + 39, 9};
Line(14) = {10, 9};
p15 = newp;
Point(p15 + 1) = {19.05389741875891, 1.510502244435438, 0};
Point(p15 + 2) = {19.02696555500626, 1.622681530332439, 0};
Point(p15 + 3) = {18.98281656060939, 1.729266631370514, 0};
Point(p15 + 4) = {18.92253753033244, 1.827633068626435, 0};
Point(p15 + 5) = {18.84761273395548, 1.915358733955475, 0};
Point(p15 + 6) = {18.75988706862644, 1.990283530332439, 0};
Point(p15 + 7) = {18.66152063137051, 2.050562560609385, 0};
Point(p15 + 8) = {18.55493553033244, 2.094711555006262, 0};
Point(p15 + 9) = {18.44275624443544, 2.121643418758908, 0};
Point(p15 + 10) = {18.327745, 2.130695, 0};
Point(p15 + 11) = {18.21273375556456, 2.121643418758908, 0};
Point(p15 + 12) = {18.10055446966756, 2.094711555006262, 0};
Point(p15 + 13) = {17.99396936862949, 2.050562560609385, 0};
Point(p15 + 14) = {17.89560293137356, 1.990283530332439, 0};
Point(p15 + 15) = {17.80787726604452, 1.915358733955475, 0};
Point(p15 + 16) = {17.73295246966756, 1.827633068626435, 0};
Point(p15 + 17) = {17.67267343939061, 1.729266631370514, 0};
Point(p15 + 18) = {17.62852444499374, 1.622681530332439, 0};
Point(p15 + 19) = {17.60159258124109, 1.510502244435438, 0};
Point(p15 + 20) = {17.592541, 1.395491, 0};
Point(p15 + 21) = {17.60159258124109, 1.280479755564562, 0};
Point(p15 + 22) = {17.62852444499374, 1.168300469667561, 0};
Point(p15 + 23) = {17.67267343939061, 1.061715368629487, 0};
Point(p15 + 24) = {17.73295246966756, 0.9633489313735647, 0};
Point(p15 + 25) = {17.80787726604452, 0.8756232660445257, 0};
Point(p15 + 26) = {17.89560293137356, 0.8006984696675613, 0};
Point(p15 + 27) = {17.99396936862949, 0.7404194393906153, 0};
Point(p15 + 28) = {18.10055446966756, 0.696270444993738, 0};
Point(p15 + 29) = {18.21273375556456, 0.6693385812410925, 0};
Point(p15 + 30) = {18.327745, 0.6602870000000001, 0};
Point(p15 + 31) = {18.44275624443544, 0.6693385812410924, 0};
Point(p15 + 32) = {18.55493553033244, 0.6962704449937379, 0};
Point(p15 + 33) = {18.66152063137051, 0.7404194393906152, 0};
Point(p15 + 34) = {18.75988706862644, 0.8006984696675611, 0};
Point(p15 + 35) = {18.84761273395548, 0.8756232660445255, 0};
Point(p15 + 36) = {18.92253753033244, 0.9633489313735646, 0};
Point(p15 + 37) = {18.98281656060939, 1.061715368629486, 0};
Point(p15 + 38) = {19.02696555500626, 1.168300469667561, 0};
Point(p15 + 39) = {19.05389741875891, 1.280479755564562, 0};
Spline(15) = {10, p15 + 1, p15 + 2, p15 + 3, p15 + 4, p15 + 5, p15 + 6, p15 + 7, p15 + 8, p15 + 9, p15 + 10, p15 + 11, p15 + 12, p15 + 13, p15 + 14, p15 + 15, p15 + 16, p15 + 17, p15 + 18, p15 + 19, p15 + 20, p15 + 21, p15 + 22, p15 + 23, p15 + 24, p15 + 25, p15 + 26, p15 + 27, p15 + 28, p15 + 29, p15 + 30, p15 + 31, p15 + 32, p15 + 33, p15 + 34, p15 + 35, p15 + 36, p15 + 37, p15 + 38, p15 + 39, 10};
p16 = newp;
Point(p16 + 1) = {4.429668855077201, 3.225201744329996, 0.1};
Point(p16 + 2) = {4.402333638307188, 3.339061116457501, 0.1};
Point(p16 + 3) = {4.357523433447223, 3.447242520763146, 0.1};
Point(p16 + 4) = {4.296341616457502, 3.547082172039428, 0.1};
Point(p16 + 5) = {4.220294686723119, 3.636121686723119, 0.1};
Point(p16 + 6) = {4.131255172039428, 3.712168616457501, 0.1};
Point(p16 + 7) = {4.031415520763146, 3.773350433447223, 0.1};
Point(p16 + 8) = {3.923234116457501, 3.818160638307188, 0.1};
Point(p16 + 9) = {3.809374744329996, 3.845495855077201, 0.1};
Point(p16 + 10) = {3.692641, 3.854683, 0.1};
Point(p16 + 11) = {3.575907255670004, 3.8454958550772, 0.1};
Point(p16 + 12) = {3.462047883542499, 3.818160638307188, 0.1};
Point(p16 + 13) = {3.353866479236854, 3.773350433447223, 0.1};
Point(p16 + 14) = {3.254026827960572, 3.712168616457501, 0.1};
Point(p16 + 15) = {3.16498731327688, 3.636121686723119, 0.1};
Point(p16 + 16) = {3.088940383542499, 3.547082172039428, 0.1};
Point(p16 + 17) = {3.027758566552777, 3.447242520763146, 0.1};
Point(p16 + 18) = {2.982948361692812, 3.339061116457501, 0.1};
Point(p16 + 19) = {2.9556131449228, 3.225201744329996, 0.1};
Point(p16 + 20) = {2.946426, 3.108468, 0.1};
Point(p16 + 21) = {2.9556131449228, 2.991734255670004, 0.1};
Point(p16 + 22) = {2.982948361692812, 2.877874883542498, 0.1};
Point(p16 + 23) = {3.027758566552777, 2.769693479236854, 0.1};
Point(p16 + 24) = {3.088940383542499, 2.669853827960572, 0.1};
Point(p16 + 25) = {3.16498731327688, 2.58081431327688, 0.1};
Point(p16 + 26) = {3.254026827960572, 2.504767383542498, 0.1};
Point(p16 + 27) = {3.353866479236854, 2.443585566552777, 0.1};
Point(p16 + 28) = {3.462047883542498, 2.398775361692812, 0.1};
Point(p16 + 29) = {3.575907255670004, 2.371440144922799, 0.1};
Point(p16 + 30) = {3.692641, 2.362253, 0.1};
Point(p16 + 31) = {3.809374744329996, 2.371440144922799, 0.1};
Point(p16 + 32) = {3.923234116457501, 2.398775361692812, 0.1};
Point(p16 + 33) = {4.031415520763145, 2.443585566552777, 0.1};
Point(p16 + 34) = {4.131255172039427, 2.504767383542498, 0.1};
Point(p16 + 35) = {4.220294686723119, 2.58081431327688, 0.1};
Point(p16 + 36) = {4.296341616457501, 2.669853827960572, 0.1};
Point(p16 + 37) = {4.357523433447223, 2.769693479236854, 0.1};
Point(p16 + 38) = {4.402333638307188, 2.877874883542498, 0.1};
Point(p16 + 39) = {4.429668855077201, 2.991734255670004, 0.1};
Spline(16) = {11, p16 + 1, p16 + 2, p16 + 3, p16 + 4, p16 + 5, p16 + 6, p16 + 7, p16 + 8, p16 + 9, p16 + 10, p16 + 11, p16 + 12, p16 + 13, p16 + 14, p16 + 15, p16 + 16, p16 + 17, p16 + 18, p16 + 19, p16 + 20, p16 + 21, p16 + 22, p16 + 23, p16 + 24, p16 + 25, p16 + 26, p16 + 27, p16 + 28, p16 + 29, p16 + 30, p16 + 31, p16 + 32, p16 + 33, p16 + 34, p16 + 35, p16 + 36, p16 + 37, p16 + 38, p16 + 39, 11};
Line(17) = {12, 11};
p18 = newp;
Point(p18 + 1) = {4.429668855077201, 3.225201744329996, 0};
Point(p18 + 2) = {4.402333638307188, 3.339061116457501, 0};
Point(p18 + 3) = {4.357523433447223, 3.447242520763146, 0};
Point(p18 + 4) = {4.296341616457502, 3.547082172039428, 0};
Point(p18 + 5) = {4.220294686723119, 3.636121686723119, 0};
Point(p18 + 6) = {4.131255172039428, 3.712168616457501, 0};
Point(p18 + 7) = {4.031415520763146, 3.773350433447223, 0};
Point(p18 + 8) = {3.923234116457501, 3.818160638307188, 0};
Point(p18 + 9) = {3.809374744329996, 3.845495855077201, 0};
Point(p18 + 10) = {3.692641, 3.854683, 0};
Point(p18 + 11) = {3.575907255670004, 3.8454958550772, 0};
Point(p18 + 12) = {3.462047883542499, 3.818160638307188, 0};
Point(p18 + 13) = {3.353866479236854, 3.773350433447223, 0};
Point(p18 + 14) = {3.254026827960572, 3.712168616457501, 0};
Point(p18 + 15) = {3.16498731327688, 3.636121686723119, 0};
Point(p18 + 16) = {3.088940383542499, 3.547082172039428, 0};
Point(p18 + 17) = {3.027758566552777, 3.447242520763146, 0};
Point(p18 + 18) = {2.982948361692812, 3.339061116457501, 0};
Point(p18 + 19) = {2.9556131449228, 3.225201744329996, 0};
Point(p18 + 20) = {2.946426, 3.108468, 0};
Point(p18 + 21) = {2.9556131449228, 2.991734255670004, 0};
Point(p18 + 22) = {2.982948361692812, 2.877874883542498, 0};
Point(p18 + 23) = {3.027758566552777, 2.769693479236854, 0};
Point(p18 + 24) = {3.088940383542499, 2.669853827960572, 0};
Point(p18 + 25) = {3.16498731327688, 2.58081431327688, 0};
Point(p18 + 26) = {3.254026827960572, 2.504767383542498, 0};
Point(p18 + 27) = {3.353866479236854, 2.443585566552777, 0};
Point(p18 + 28) = {3.462047883542498, 2.398775361692812, 0};
Point(p18 + 29) = {3.575907255670004, 2.371440144922799, 0};
Point(p18 + 30) = {3.692641, 2.362253, 0};
Point(p18 + 31) = {3.809374744329996, 2.371440144922799, 0};
Point(p18 + 32) = {3.923234116457501, 2.398775361692812, 0};
Point(p18 + 33) = {4.031415520763145, 2.443585566552777, 0};
Point(p18 + 34) = {4.131255172039427, 2.504767383542498, 0};
Point(p18 + 35) = {4.220294686723119, 2.58081431327688, 0};
Point(p18 + 36) = {4.296341616457501, 2.669853827960572, 0};
Point(p18 + 37) = {4.357523433447223, 2.769693479236854, 0};
Point(p18 + 38) = {4.402333638307188, 2.877874883542498, 0};
Point(p18 + 39) = {4.429668855077201, 2.991734255670004, 0};
Spline(18) = {12, p18 + 1, p18 + 2, p18 + 3, p18 + 4, p18 + 5, p18 + 6, p18 + 7, p18 + 8, p18 + 9, p18 + 10, p18 + 11, p18 + 12, p18 + 13, p18 + 14, p18 + 15, p18 + 16, p18 + 17, p18 + 18, p18 + 19, p18 + 20, p18 + 21, p18 + 22, p18 + 23, p18 + 24, p18 + 25, p18 + 26, p18 + 27, p18 + 28, p18 + 29, p18 + 30, p18 + 31, p18 + 32, p18 + 33, p18 + 34, p18 + 35, p18 + 36, p18 + 37, p18 + 38, p18 + 39, 12};
Line(19) = {14, 13};
Line(20) = {13, 15};
Line(21) = {16, 15};
Line(22) = {14, 16};
Line(23) = {14, 17};
Line(24) = {17, 18};
Line(25) = {13, 18};
Line(26) = {15, 19};
Line(27) = {18, 19};
Line(28) = {16, 20};
Line(29) = {20, 19};
Line(30) = {17, 20};
Curve Loop(7) = {-13, -14, 15, 14};
Surface(7) = {7};
Curve Loop(8) = {13};
Plane Surface(8) = {8};
Curve Loop(9) = {15};
Plane Surface(9) = {9};
Curve Loop(10) = {-16, -17, 18, 17};
Surface(10) = {10};
Curve Loop(11) = {16};
Plane Surface(11) = {11};
Curve Loop(12) = {18};
Plane Surface(12) = {12};
Curve Loop(13) = {-19, 22, 21, -20};
Plane Surface(13) = {13};
Curve Loop(14) = {-23, 19, 25, -24};
Plane Surface(14) = {14};
Curve Loop(15) = {-20, 25, 27, -26};
Plane Surface(15) = {15};
Curve Loop(16) = {-28, 21, 26, -29};
Plane Surface(16) = {16};
Curve Loop(17) = {-22, 23, 30, -28, -15, -18};
Plane Surface(17) = {17};
Curve Loop(18) = {-24, 30, 29, -27};
Plane Surface(18) = {18};
Surface Loop(1) = {13, 14, 15, 16, 17, 18, 7, 10, 8, 11};
Volume(1) = {1};
Surface Loop(2) = {7, 8, 9};
Volume(2) = {2};
Surface Loop(3) = {10, 11, 12};
Volume(3) = {3};
Physical Surface("WALLS") = {13, 18};
Physical Surface("LOAD") = {8, 11};
Physical Surface("BORDER") = {7, 9, 10, 12, 14, 15, 16, 17};
Physical Volume("SOLID") = {1, 2, 3};
