cl__1 = 0.056861;
cl__2 = 0.07159500000000001;
cl__3 = 0.770485;
cl__4 = 0.674488;
cl__5 = 1.498327;
cl__6 = 2.807632;
Point(9) = {5.337089, 0.5236579999999998, 0.1, cl__1};
Point(10) = {5.337089, 0.5236579999999998, 0, cl__1};
Point(11) = {29.690889, -2.374638, 0.1, cl__2};
Point(12) = {29.690889, -2.374638, 0, cl__2};
Point(13) = {0.597146, -4.033104, 1, cl__3};
Point(14) = {0.597146, -4.033104, 0, cl__3};
Point(15) = {0.597146, 4.075818, 1, cl__4};
Point(16) = {0.597146, 4.075818, 0, cl__4};
Point(17) = {37.867946, -4.033104, 0, cl__5};
Point(18) = {37.867946, -4.033104, 1, cl__5};
Point(19) = {37.867946, 4.075818, 1, cl__6};
Point(20) = {37.867946, 4.075818, 0, cl__6};
p13 = newp;
Point(p13 + 1) = {5.330088467345801, 0.6126082011665256, 0.1};
Point(p13 + 2) = {5.309259245730587, 0.6993681531715388, 0.1};
Point(p13 + 3) = {5.275114219718748, 0.7818015380569037, 0.1};
Point(p13 + 4) = {5.228494153171539, 0.8578785723060232, 0.1};
Point(p13 + 5) = {5.170546986850483, 0.9257259868504827, 0.1};
Point(p13 + 6) = {5.102699572306023, 0.9836731531715388, 0.1};
Point(p13 + 7) = {5.026622538056904, 1.030293219718748, 0.1};
Point(p13 + 8) = {4.944189153171539, 1.064438245730587, 0.1};
Point(p13 + 9) = {4.857429201166526, 1.085267467345801, 0.1};
Point(p13 + 10) = {4.768479, 1.092268, 0.1};
Point(p13 + 11) = {4.679528798833474, 1.085267467345801, 0.1};
Point(p13 + 12) = {4.592768846828461, 1.064438245730587, 0.1};
Point(p13 + 13) = {4.510335461943097, 1.030293219718748, 0.1};
Point(p13 + 14) = {4.434258427693977, 0.9836731531715388, 0.1};
Point(p13 + 15) = {4.366411013149517, 0.9257259868504828, 0.1};
Point(p13 + 16) = {4.308463846828461, 0.8578785723060232, 0.1};
Point(p13 + 17) = {4.261843780281252, 0.7818015380569037, 0.1};
Point(p13 + 18) = {4.227698754269413, 0.6993681531715388, 0.1};
Point(p13 + 19) = {4.206869532654199, 0.6126082011665257, 0.1};
Point(p13 + 20) = {4.199869000000001, 0.5236580000000001, 0.1};
Point(p13 + 21) = {4.206869532654199, 0.4347077988334743, 0.1};
Point(p13 + 22) = {4.227698754269413, 0.3479478468284609, 0.1};
Point(p13 + 23) = {4.261843780281252, 0.2655144619430966, 0.1};
Point(p13 + 24) = {4.308463846828461, 0.1894374276939769, 0.1};
Point(p13 + 25) = {4.366411013149517, 0.1215900131495172, 0.1};
Point(p13 + 26) = {4.434258427693977, 0.06364284682846116, 0.1};
Point(p13 + 27) = {4.510335461943097, 0.01702278028125215, 0.1};
Point(p13 + 28) = {4.592768846828461, -0.01712224573058729, 0.1};
Point(p13 + 29) = {4.679528798833474, -0.03795146734580124, 0.1};
Point(p13 + 30) = {4.768479, -0.04495199999999999, 0.1};
Point(p13 + 31) = {4.857429201166526, -0.03795146734580124, 0.1};
Point(p13 + 32) = {4.944189153171539, -0.01712224573058729, 0.1};
Point(p13 + 33) = {5.026622538056904, 0.01702278028125204, 0.1};
Point(p13 + 34) = {5.102699572306023, 0.06364284682846105, 0.1};
Point(p13 + 35) = {5.170546986850483, 0.1215900131495171, 0.1};
Point(p13 + 36) = {5.228494153171539, 0.1894374276939768, 0.1};
Point(p13 + 37) = {5.275114219718748, 0.2655144619430962, 0.1};
Point(p13 + 38) = {5.309259245730587, 0.347947846828461, 0.1};
Point(p13 + 39) = {5.330088467345801, 0.4347077988334742, 0.1};
Spline(13) = {9, p13 + 1, p13 + 2, p13 + 3, p13 + 4, p13 + 5, p13 + 6, p13 + 7, p13 + 8, p13 + 9, p13 + 10, p13 + 11, p13 + 12, p13 + 13, p13 + 14, p13 + 15, p13 + 16, p13 + 17, p13 + 18, p13 + 19, p13 + 20, p13 + 21, p13 + 22, p13 + 23, p13 + 24, p13 + 25, p13 + 26, p13 + 27, p13 + 28, p13 + 29, p13 + 30, p13 + 31, p13 + 32, p13 + 33, p13 + 34, p13 + 35, p13 + 36, p13 + 37, p13 + 38, p13 + 39, 9};
Line(14) = {10, 9};
p15 = newp;
Point(p15 + 1) = {5.330088467345801, 0.6126082011665256, 0};
Point(p15 + 2) = {5.309259245730587, 0.6993681531715388, 0};
Point(p15 + 3) = {5.275114219718748, 0.7818015380569037, 0};
Point(p15 + 4) = {5.228494153171539, 0.8578785723060232, 0};
Point(p15 + 5) = {5.170546986850483, 0.9257259868504827, 0};
Point(p15 + 6) = {5.102699572306023, 0.9836731531715388, 0};
Point(p15 + 7) = {5.026622538056904, 1.030293219718748, 0};
Point(p15 + 8) = {4.944189153171539, 1.064438245730587, 0};
Point(p15 + 9) = {4.857429201166526, 1.085267467345801, 0};
Point(p15 + 10) = {4.768479, 1.092268, 0};
Point(p15 + 11) = {4.679528798833474, 1.085267467345801, 0};
Point(p15 + 12) = {4.592768846828461, 1.064438245730587, 0};
Point(p15 + 13) = {4.510335461943097, 1.030293219718748, 0};
Point(p15 + 14) = {4.434258427693977, 0.9836731531715388, 0};
Point(p15 + 15) = {4.366411013149517, 0.9257259868504828, 0};
Point(p15 + 16) = {4.308463846828461, 0.8578785723060232, 0};
Point(p15 + 17) = {4.261843780281252, 0.7818015380569037, 0};
Point(p15 + 18) = {4.227698754269413, 0.6993681531715388, 0};
Point(p15 + 19) = {4.206869532654199, 0.6126082011665257, 0};
Point(p15 + 20) = {4.199869000000001, 0.5236580000000001, 0};
Point(p15 + 21) = {4.206869532654199, 0.4347077988334743, 0};
Point(p15 + 22) = {4.227698754269413, 0.3479478468284609, 0};
Point(p15 + 23) = {4.261843780281252, 0.2655144619430966, 0};
Point(p15 + 24) = {4.308463846828461, 0.1894374276939769, 0};
Point(p15 + 25) = {4.366411013149517, 0.1215900131495172, 0};
Point(p15 + 26) = {4.434258427693977, 0.06364284682846116, 0};
Point(p15 + 27) = {4.510335461943097, 0.01702278028125215, 0};
Point(p15 + 28) = {4.592768846828461, -0.01712224573058729, 0};
Point(p15 + 29) = {4.679528798833474, -0.03795146734580124, 0};
Point(p15 + 30) = {4.768479, -0.04495199999999999, 0};
Point(p15 + 31) = {4.857429201166526, -0.03795146734580124, 0};
Point(p15 + 32) = {4.944189153171539, -0.01712224573058729, 0};
Point(p15 + 33) = {5.026622538056904, 0.01702278028125204, 0};
Point(p15 + 34) = {5.102699572306023, 0.06364284682846105, 0};
Point(p15 + 35) = {5.170546986850483, 0.1215900131495171, 0};
Point(p15 + 36) = {5.228494153171539, 0.1894374276939768, 0};
Point(p15 + 37) = {5.275114219718748, 0.2655144619430962, 0};
Point(p15 + 38) = {5.309259245730587, 0.347947846828461, 0};
Point(p15 + 39) = {5.330088467345801, 0.4347077988334742, 0};
Spline(15) = {10, p15 + 1, p15 + 2, p15 + 3, p15 + 4, p15 + 5, p15 + 6, p15 + 7, p15 + 8, p15 + 9, p15 + 10, p15 + 11, p15 + 12, p15 + 13, p15 + 14, p15 + 15, p15 + 16, p15 + 17, p15 + 18, p15 + 19, p15 + 20, p15 + 21, p15 + 22, p15 + 23, p15 + 24, p15 + 25, p15 + 26, p15 + 27, p15 + 28, p15 + 29, p15 + 30, p15 + 31, p15 + 32, p15 + 33, p15 + 34, p15 + 35, p15 + 36, p15 + 37, p15 + 38, p15 + 39, 10};
p16 = newp;
Point(p16 + 1) = {29.68207445513743, -2.262638588319982, 0.1};
Point(p16 + 2) = {29.65584786389803, -2.153396973860262, 0.1};
Point(p16 + 3) = {29.61285501199919, -2.049603047720972, 0.1};
Point(p16 + 4) = {29.55415452613974, -1.953812560835952, 0.1};
Point(p16 + 5) = {29.48119180709729, -1.86838419290271, 0.1};
Point(p16 + 6) = {29.39576343916405, -1.795421473860262, 0.1};
Point(p16 + 7) = {29.29997295227903, -1.736720988000814, 0.1};
Point(p16 + 8) = {29.19617902613974, -1.693728136101968, 0.1};
Point(p16 + 9) = {29.08693741168002, -1.667501544862571, 0.1};
Point(p16 + 10) = {28.974938, -1.658687, 0.1};
Point(p16 + 11) = {28.86293858831998, -1.667501544862571, 0.1};
Point(p16 + 12) = {28.75369697386027, -1.693728136101968, 0.1};
Point(p16 + 13) = {28.64990304772097, -1.736720988000814, 0.1};
Point(p16 + 14) = {28.55411256083595, -1.795421473860262, 0.1};
Point(p16 + 15) = {28.46868419290271, -1.86838419290271, 0.1};
Point(p16 + 16) = {28.39572147386026, -1.953812560835952, 0.1};
Point(p16 + 17) = {28.33702098800082, -2.049603047720972, 0.1};
Point(p16 + 18) = {28.29402813610197, -2.153396973860262, 0.1};
Point(p16 + 19) = {28.26780154486257, -2.262638588319982, 0.1};
Point(p16 + 20) = {28.258987, -2.374638, 0.1};
Point(p16 + 21) = {28.26780154486257, -2.486637411680018, 0.1};
Point(p16 + 22) = {28.29402813610197, -2.595879026139738, 0.1};
Point(p16 + 23) = {28.33702098800082, -2.699672952279028, 0.1};
Point(p16 + 24) = {28.39572147386026, -2.795463439164048, 0.1};
Point(p16 + 25) = {28.46868419290271, -2.88089180709729, 0.1};
Point(p16 + 26) = {28.55411256083595, -2.953854526139738, 0.1};
Point(p16 + 27) = {28.64990304772097, -3.012555011999186, 0.1};
Point(p16 + 28) = {28.75369697386027, -3.055547863898032, 0.1};
Point(p16 + 29) = {28.86293858831998, -3.081774455137429, 0.1};
Point(p16 + 30) = {28.974938, -3.090589, 0.1};
Point(p16 + 31) = {29.08693741168002, -3.081774455137429, 0.1};
Point(p16 + 32) = {29.19617902613974, -3.055547863898032, 0.1};
Point(p16 + 33) = {29.29997295227903, -3.012555011999186, 0.1};
Point(p16 + 34) = {29.39576343916405, -2.953854526139738, 0.1};
Point(p16 + 35) = {29.48119180709729, -2.88089180709729, 0.1};
Point(p16 + 36) = {29.55415452613974, -2.795463439164048, 0.1};
Point(p16 + 37) = {29.61285501199919, -2.699672952279029, 0.1};
Point(p16 + 38) = {29.65584786389803, -2.595879026139738, 0.1};
Point(p16 + 39) = {29.68207445513743, -2.486637411680019, 0.1};
Spline(16) = {11, p16 + 1, p16 + 2, p16 + 3, p16 + 4, p16 + 5, p16 + 6, p16 + 7, p16 + 8, p16 + 9, p16 + 10, p16 + 11, p16 + 12, p16 + 13, p16 + 14, p16 + 15, p16 + 16, p16 + 17, p16 + 18, p16 + 19, p16 + 20, p16 + 21, p16 + 22, p16 + 23, p16 + 24, p16 + 25, p16 + 26, p16 + 27, p16 + 28, p16 + 29, p16 + 30, p16 + 31, p16 + 32, p16 + 33, p16 + 34, p16 + 35, p16 + 36, p16 + 37, p16 + 38, p16 + 39, 11};
Line(17) = {12, 11};
p18 = newp;
Point(p18 + 1) = {29.68207445513743, -2.262638588319982, 0};
Point(p18 + 2) = {29.65584786389803, -2.153396973860262, 0};
Point(p18 + 3) = {29.61285501199919, -2.049603047720972, 0};
Point(p18 + 4) = {29.55415452613974, -1.953812560835952, 0};
Point(p18 + 5) = {29.48119180709729, -1.86838419290271, 0};
Point(p18 + 6) = {29.39576343916405, -1.795421473860262, 0};
Point(p18 + 7) = {29.29997295227903, -1.736720988000814, 0};
Point(p18 + 8) = {29.19617902613974, -1.693728136101968, 0};
Point(p18 + 9) = {29.08693741168002, -1.667501544862571, 0};
Point(p18 + 10) = {28.974938, -1.658687, 0};
Point(p18 + 11) = {28.86293858831998, -1.667501544862571, 0};
Point(p18 + 12) = {28.75369697386027, -1.693728136101968, 0};
Point(p18 + 13) = {28.64990304772097, -1.736720988000814, 0};
Point(p18 + 14) = {28.55411256083595, -1.795421473860262, 0};
Point(p18 + 15) = {28.46868419290271, -1.86838419290271, 0};
Point(p18 + 16) = {28.39572147386026, -1.953812560835952, 0};
Point(p18 + 17) = {28.33702098800082, -2.049603047720972, 0};
Point(p18 + 18) = {28.29402813610197, -2.153396973860262, 0};
Point(p18 + 19) = {28.26780154486257, -2.262638588319982, 0};
Point(p18 + 20) = {28.258987, -2.374638, 0};
Point(p18 + 21) = {28.26780154486257, -2.486637411680018, 0};
Point(p18 + 22) = {28.29402813610197, -2.595879026139738, 0};
Point(p18 + 23) = {28.33702098800082, -2.699672952279028, 0};
Point(p18 + 24) = {28.39572147386026, -2.795463439164048, 0};
Point(p18 + 25) = {28.46868419290271, -2.88089180709729, 0};
Point(p18 + 26) = {28.55411256083595, -2.953854526139738, 0};
Point(p18 + 27) = {28.64990304772097, -3.012555011999186, 0};
Point(p18 + 28) = {28.75369697386027, -3.055547863898032, 0};
Point(p18 + 29) = {28.86293858831998, -3.081774455137429, 0};
Point(p18 + 30) = {28.974938, -3.090589, 0};
Point(p18 + 31) = {29.08693741168002, -3.081774455137429, 0};
Point(p18 + 32) = {29.19617902613974, -3.055547863898032, 0};
Point(p18 + 33) = {29.29997295227903, -3.012555011999186, 0};
Point(p18 + 34) = {29.39576343916405, -2.953854526139738, 0};
Point(p18 + 35) = {29.48119180709729, -2.88089180709729, 0};
Point(p18 + 36) = {29.55415452613974, -2.795463439164048, 0};
Point(p18 + 37) = {29.61285501199919, -2.699672952279029, 0};
Point(p18 + 38) = {29.65584786389803, -2.595879026139738, 0};
Point(p18 + 39) = {29.68207445513743, -2.486637411680019, 0};
Spline(18) = {12, p18 + 1, p18 + 2, p18 + 3, p18 + 4, p18 + 5, p18 + 6, p18 + 7, p18 + 8, p18 + 9, p18 + 10, p18 + 11, p18 + 12, p18 + 13, p18 + 14, p18 + 15, p18 + 16, p18 + 17, p18 + 18, p18 + 19, p18 + 20, p18 + 21, p18 + 22, p18 + 23, p18 + 24, p18 + 25, p18 + 26, p18 + 27, p18 + 28, p18 + 29, p18 + 30, p18 + 31, p18 + 32, p18 + 33, p18 + 34, p18 + 35, p18 + 36, p18 + 37, p18 + 38, p18 + 39, 12};
Line(19) = {14, 13};
Line(20) = {13, 15};
Line(21) = {16, 15};
Line(22) = {14, 16};
Line(23) = {14, 17};
Line(24) = {17, 18};
Line(25) = {13, 18};
Line(26) = {15, 19};
Line(27) = {18, 19};
Line(28) = {16, 20};
Line(29) = {20, 19};
Line(30) = {17, 20};
Curve Loop(7) = {-13, -14, 15, 14};
Surface(7) = {7};
Curve Loop(8) = {13};
Plane Surface(8) = {8};
Curve Loop(9) = {15};
Plane Surface(9) = {9};
Curve Loop(10) = {-16, -17, 18, 17};
Surface(10) = {10};
Curve Loop(11) = {16};
Plane Surface(11) = {11};
Curve Loop(12) = {18};
Plane Surface(12) = {12};
Curve Loop(13) = {-19, 22, 21, -20};
Plane Surface(13) = {13};
Curve Loop(14) = {-23, 19, 25, -24};
Plane Surface(14) = {14};
Curve Loop(15) = {-20, 25, 27, -26};
Plane Surface(15) = {15};
Curve Loop(16) = {-28, 21, 26, -29};
Plane Surface(16) = {16};
Curve Loop(17) = {-22, 23, 30, -28, -18, -15};
Plane Surface(17) = {17};
Curve Loop(18) = {-24, 30, 29, -27};
Plane Surface(18) = {18};
Surface Loop(1) = {13, 14, 15, 16, 17, 18, 10, 7, 11, 8};
Volume(1) = {1};
Surface Loop(2) = {7, 8, 9};
Volume(2) = {2};
Surface Loop(3) = {10, 11, 12};
Volume(3) = {3};
Physical Surface("WALLS") = {13, 18};
Physical Surface("LOAD") = {8, 11};
Physical Surface("BORDER") = {7, 9, 10, 12, 14, 15, 16, 17};
Physical Volume("SOLID") = {1, 2, 3};
