cl__1 = 0.143975;
cl__2 = 0.08880300000000001;
cl__3 = 0.881718;
cl__4 = 1.79781;
cl__5 = 1.015307;
cl__6 = 0.897258;
Point(9) = {30.143663, 1.4569, 0.1, cl__1};
Point(10) = {30.143663, 1.4569, 0, cl__1};
Point(11) = {9.317166, -2.399174, 0.1, cl__2};
Point(12) = {9.317166, -2.399174, 0, cl__2};
Point(13) = {0.103927, -4.432526, 1, cl__3};
Point(14) = {0.103927, -4.432526, 0, cl__3};
Point(15) = {0.103927, 5.508033999999999, 1, cl__4};
Point(16) = {0.103927, 5.508033999999999, 0, cl__4};
Point(17) = {37.027429, -4.432526, 0, cl__5};
Point(18) = {37.027429, -4.432526, 1, cl__5};
Point(19) = {37.027429, 5.508033999999999, 1, cl__6};
Point(20) = {37.027429, 5.508033999999999, 0, cl__6};
p13 = newp;
Point(p13 + 1) = {30.12593727606019, 1.682126677476137, 0.1};
Point(p13 + 2) = {30.07319657039246, 1.901807526668325, 0.1};
Point(p13 + 3) = {29.98673953420673, 2.110533275990512, 0.1};
Point(p13 + 4) = {29.86869502666832, 2.303164404773341, 0.1};
Point(p13 + 5) = {29.72196969532011, 2.474957695320113, 0.1};
Point(p13 + 6) = {29.55017640477334, 2.621683026668325, 0.1};
Point(p13 + 7) = {29.35754527599051, 2.739727534206727, 0.1};
Point(p13 + 8) = {29.14881952666832, 2.826184570392464, 0.1};
Point(p13 + 9) = {28.92913867747614, 2.87892527606019, 0.1};
Point(p13 + 10) = {28.703912, 2.896651, 0.1};
Point(p13 + 11) = {28.47868532252386, 2.87892527606019, 0.1};
Point(p13 + 12) = {28.25900447333168, 2.826184570392464, 0.1};
Point(p13 + 13) = {28.05027872400949, 2.739727534206727, 0.1};
Point(p13 + 14) = {27.85764759522666, 2.621683026668325, 0.1};
Point(p13 + 15) = {27.68585430467989, 2.474957695320113, 0.1};
Point(p13 + 16) = {27.53912897333167, 2.303164404773341, 0.1};
Point(p13 + 17) = {27.42108446579327, 2.110533275990512, 0.1};
Point(p13 + 18) = {27.33462742960754, 1.901807526668325, 0.1};
Point(p13 + 19) = {27.28188672393981, 1.682126677476138, 0.1};
Point(p13 + 20) = {27.264161, 1.4569, 0.1};
Point(p13 + 21) = {27.28188672393981, 1.231673322523863, 0.1};
Point(p13 + 22) = {27.33462742960754, 1.011992473331675, 0.1};
Point(p13 + 23) = {27.42108446579327, 0.8032667240094885, 0.1};
Point(p13 + 24) = {27.53912897333167, 0.6106355952266598, 0.1};
Point(p13 + 25) = {27.68585430467989, 0.4388423046798873, 0.1};
Point(p13 + 26) = {27.85764759522666, 0.2921169733316753, 0.1};
Point(p13 + 27) = {28.05027872400949, 0.1740724657932733, 0.1};
Point(p13 + 28) = {28.25900447333168, 0.08761542960753643, 0.1};
Point(p13 + 29) = {28.47868532252386, 0.03487472393980995, 0.1};
Point(p13 + 30) = {28.703912, 0.01714900000000008, 0.1};
Point(p13 + 31) = {28.92913867747614, 0.03487472393980995, 0.1};
Point(p13 + 32) = {29.14881952666832, 0.08761542960753643, 0.1};
Point(p13 + 33) = {29.35754527599051, 0.1740724657932731, 0.1};
Point(p13 + 34) = {29.55017640477334, 0.2921169733316749, 0.1};
Point(p13 + 35) = {29.72196969532011, 0.4388423046798868, 0.1};
Point(p13 + 36) = {29.86869502666832, 0.6106355952266594, 0.1};
Point(p13 + 37) = {29.98673953420673, 0.8032667240094876, 0.1};
Point(p13 + 38) = {30.07319657039246, 1.011992473331675, 0.1};
Point(p13 + 39) = {30.12593727606019, 1.231673322523862, 0.1};
Spline(13) = {9, p13 + 1, p13 + 2, p13 + 3, p13 + 4, p13 + 5, p13 + 6, p13 + 7, p13 + 8, p13 + 9, p13 + 10, p13 + 11, p13 + 12, p13 + 13, p13 + 14, p13 + 15, p13 + 16, p13 + 17, p13 + 18, p13 + 19, p13 + 20, p13 + 21, p13 + 22, p13 + 23, p13 + 24, p13 + 25, p13 + 26, p13 + 27, p13 + 28, p13 + 29, p13 + 30, p13 + 31, p13 + 32, p13 + 33, p13 + 34, p13 + 35, p13 + 36, p13 + 37, p13 + 38, p13 + 39, 9};
Line(14) = {10, 9};
p15 = newp;
Point(p15 + 1) = {30.12593727606019, 1.682126677476137, 0};
Point(p15 + 2) = {30.07319657039246, 1.901807526668325, 0};
Point(p15 + 3) = {29.98673953420673, 2.110533275990512, 0};
Point(p15 + 4) = {29.86869502666832, 2.303164404773341, 0};
Point(p15 + 5) = {29.72196969532011, 2.474957695320113, 0};
Point(p15 + 6) = {29.55017640477334, 2.621683026668325, 0};
Point(p15 + 7) = {29.35754527599051, 2.739727534206727, 0};
Point(p15 + 8) = {29.14881952666832, 2.826184570392464, 0};
Point(p15 + 9) = {28.92913867747614, 2.87892527606019, 0};
Point(p15 + 10) = {28.703912, 2.896651, 0};
Point(p15 + 11) = {28.47868532252386, 2.87892527606019, 0};
Point(p15 + 12) = {28.25900447333168, 2.826184570392464, 0};
Point(p15 + 13) = {28.05027872400949, 2.739727534206727, 0};
Point(p15 + 14) = {27.85764759522666, 2.621683026668325, 0};
Point(p15 + 15) = {27.68585430467989, 2.474957695320113, 0};
Point(p15 + 16) = {27.53912897333167, 2.303164404773341, 0};
Point(p15 + 17) = {27.42108446579327, 2.110533275990512, 0};
Point(p15 + 18) = {27.33462742960754, 1.901807526668325, 0};
Point(p15 + 19) = {27.28188672393981, 1.682126677476138, 0};
Point(p15 + 20) = {27.264161, 1.4569, 0};
Point(p15 + 21) = {27.28188672393981, 1.231673322523863, 0};
Point(p15 + 22) = {27.33462742960754, 1.011992473331675, 0};
Point(p15 + 23) = {27.42108446579327, 0.8032667240094885, 0};
Point(p15 + 24) = {27.53912897333167, 0.6106355952266598, 0};
Point(p15 + 25) = {27.68585430467989, 0.4388423046798873, 0};
Point(p15 + 26) = {27.85764759522666, 0.2921169733316753, 0};
Point(p15 + 27) = {28.05027872400949, 0.1740724657932733, 0};
Point(p15 + 28) = {28.25900447333168, 0.08761542960753643, 0};
Point(p15 + 29) = {28.47868532252386, 0.03487472393980995, 0};
Point(p15 + 30) = {28.703912, 0.01714900000000008, 0};
Point(p15 + 31) = {28.92913867747614, 0.03487472393980995, 0};
Point(p15 + 32) = {29.14881952666832, 0.08761542960753643, 0};
Point(p15 + 33) = {29.35754527599051, 0.1740724657932731, 0};
Point(p15 + 34) = {29.55017640477334, 0.2921169733316749, 0};
Point(p15 + 35) = {29.72196969532011, 0.4388423046798868, 0};
Point(p15 + 36) = {29.86869502666832, 0.6106355952266594, 0};
Point(p15 + 37) = {29.98673953420673, 0.8032667240094876, 0};
Point(p15 + 38) = {30.07319657039246, 1.011992473331675, 0};
Point(p15 + 39) = {30.12593727606019, 1.231673322523862, 0};
Spline(15) = {10, p15 + 1, p15 + 2, p15 + 3, p15 + 4, p15 + 5, p15 + 6, p15 + 7, p15 + 8, p15 + 9, p15 + 10, p15 + 11, p15 + 12, p15 + 13, p15 + 14, p15 + 15, p15 + 16, p15 + 17, p15 + 18, p15 + 19, p15 + 20, p15 + 21, p15 + 22, p15 + 23, p15 + 24, p15 + 25, p15 + 26, p15 + 27, p15 + 28, p15 + 29, p15 + 30, p15 + 31, p15 + 32, p15 + 33, p15 + 34, p15 + 35, p15 + 36, p15 + 37, p15 + 38, p15 + 39, 10};
p16 = newp;
Point(p16 + 1) = {9.306232840163721, -2.260255032706929, 0.1};
Point(p16 + 2) = {9.273702571335134, -2.124756711434232, 0.1};
Point(p16 + 3) = {9.22037619669457, -1.996015454544791, 0.1};
Point(p16 + 4) = {9.147566788565769, -1.877201299050958, 0.1};
Point(p16 + 5) = {9.057067156217434, -1.771239843782566, 0.1};
Point(p16 + 6) = {8.951105700949043, -1.680740211434232, 0.1};
Point(p16 + 7) = {8.83229154545521, -1.607930803305431, 0.1};
Point(p16 + 8) = {8.703550288565769, -1.554604428664866, 0.1};
Point(p16 + 9) = {8.568051967293071, -1.522074159836278, 0.1};
Point(p16 + 10) = {8.429133, -1.511141, 0.1};
Point(p16 + 11) = {8.290214032706929, -1.522074159836278, 0.1};
Point(p16 + 12) = {8.154715711434232, -1.554604428664866, 0.1};
Point(p16 + 13) = {8.025974454544791, -1.607930803305431, 0.1};
Point(p16 + 14) = {7.907160299050958, -1.680740211434232, 0.1};
Point(p16 + 15) = {7.801198843782567, -1.771239843782566, 0.1};
Point(p16 + 16) = {7.710699211434233, -1.877201299050958, 0.1};
Point(p16 + 17) = {7.637889803305431, -1.996015454544791, 0.1};
Point(p16 + 18) = {7.584563428664866, -2.124756711434232, 0.1};
Point(p16 + 19) = {7.552033159836278, -2.260255032706929, 0.1};
Point(p16 + 20) = {7.5411, -2.399174, 0.1};
Point(p16 + 21) = {7.552033159836278, -2.538092967293071, 0.1};
Point(p16 + 22) = {7.584563428664866, -2.673591288565768, 0.1};
Point(p16 + 23) = {7.637889803305431, -2.802332545455208, 0.1};
Point(p16 + 24) = {7.710699211434233, -2.921146700949042, 0.1};
Point(p16 + 25) = {7.801198843782567, -3.027108156217433, 0.1};
Point(p16 + 26) = {7.907160299050958, -3.117607788565767, 0.1};
Point(p16 + 27) = {8.025974454544791, -3.190417196694569, 0.1};
Point(p16 + 28) = {8.154715711434232, -3.243743571335134, 0.1};
Point(p16 + 29) = {8.290214032706929, -3.276273840163722, 0.1};
Point(p16 + 30) = {8.429133, -3.287207, 0.1};
Point(p16 + 31) = {8.568051967293071, -3.276273840163722, 0.1};
Point(p16 + 32) = {8.703550288565769, -3.243743571335134, 0.1};
Point(p16 + 33) = {8.83229154545521, -3.190417196694569, 0.1};
Point(p16 + 34) = {8.951105700949041, -3.117607788565768, 0.1};
Point(p16 + 35) = {9.057067156217434, -3.027108156217433, 0.1};
Point(p16 + 36) = {9.147566788565769, -2.921146700949042, 0.1};
Point(p16 + 37) = {9.22037619669457, -2.802332545455209, 0.1};
Point(p16 + 38) = {9.273702571335134, -2.673591288565768, 0.1};
Point(p16 + 39) = {9.306232840163721, -2.538092967293072, 0.1};
Spline(16) = {11, p16 + 1, p16 + 2, p16 + 3, p16 + 4, p16 + 5, p16 + 6, p16 + 7, p16 + 8, p16 + 9, p16 + 10, p16 + 11, p16 + 12, p16 + 13, p16 + 14, p16 + 15, p16 + 16, p16 + 17, p16 + 18, p16 + 19, p16 + 20, p16 + 21, p16 + 22, p16 + 23, p16 + 24, p16 + 25, p16 + 26, p16 + 27, p16 + 28, p16 + 29, p16 + 30, p16 + 31, p16 + 32, p16 + 33, p16 + 34, p16 + 35, p16 + 36, p16 + 37, p16 + 38, p16 + 39, 11};
Line(17) = {12, 11};
p18 = newp;
Point(p18 + 1) = {9.306232840163721, -2.260255032706929, 0};
Point(p18 + 2) = {9.273702571335134, -2.124756711434232, 0};
Point(p18 + 3) = {9.22037619669457, -1.996015454544791, 0};
Point(p18 + 4) = {9.147566788565769, -1.877201299050958, 0};
Point(p18 + 5) = {9.057067156217434, -1.771239843782566, 0};
Point(p18 + 6) = {8.951105700949043, -1.680740211434232, 0};
Point(p18 + 7) = {8.83229154545521, -1.607930803305431, 0};
Point(p18 + 8) = {8.703550288565769, -1.554604428664866, 0};
Point(p18 + 9) = {8.568051967293071, -1.522074159836278, 0};
Point(p18 + 10) = {8.429133, -1.511141, 0};
Point(p18 + 11) = {8.290214032706929, -1.522074159836278, 0};
Point(p18 + 12) = {8.154715711434232, -1.554604428664866, 0};
Point(p18 + 13) = {8.025974454544791, -1.607930803305431, 0};
Point(p18 + 14) = {7.907160299050958, -1.680740211434232, 0};
Point(p18 + 15) = {7.801198843782567, -1.771239843782566, 0};
Point(p18 + 16) = {7.710699211434233, -1.877201299050958, 0};
Point(p18 + 17) = {7.637889803305431, -1.996015454544791, 0};
Point(p18 + 18) = {7.584563428664866, -2.124756711434232, 0};
Point(p18 + 19) = {7.552033159836278, -2.260255032706929, 0};
Point(p18 + 20) = {7.5411, -2.399174, 0};
Point(p18 + 21) = {7.552033159836278, -2.538092967293071, 0};
Point(p18 + 22) = {7.584563428664866, -2.673591288565768, 0};
Point(p18 + 23) = {7.637889803305431, -2.802332545455208, 0};
Point(p18 + 24) = {7.710699211434233, -2.921146700949042, 0};
Point(p18 + 25) = {7.801198843782567, -3.027108156217433, 0};
Point(p18 + 26) = {7.907160299050958, -3.117607788565767, 0};
Point(p18 + 27) = {8.025974454544791, -3.190417196694569, 0};
Point(p18 + 28) = {8.154715711434232, -3.243743571335134, 0};
Point(p18 + 29) = {8.290214032706929, -3.276273840163722, 0};
Point(p18 + 30) = {8.429133, -3.287207, 0};
Point(p18 + 31) = {8.568051967293071, -3.276273840163722, 0};
Point(p18 + 32) = {8.703550288565769, -3.243743571335134, 0};
Point(p18 + 33) = {8.83229154545521, -3.190417196694569, 0};
Point(p18 + 34) = {8.951105700949041, -3.117607788565768, 0};
Point(p18 + 35) = {9.057067156217434, -3.027108156217433, 0};
Point(p18 + 36) = {9.147566788565769, -2.921146700949042, 0};
Point(p18 + 37) = {9.22037619669457, -2.802332545455209, 0};
Point(p18 + 38) = {9.273702571335134, -2.673591288565768, 0};
Point(p18 + 39) = {9.306232840163721, -2.538092967293072, 0};
Spline(18) = {12, p18 + 1, p18 + 2, p18 + 3, p18 + 4, p18 + 5, p18 + 6, p18 + 7, p18 + 8, p18 + 9, p18 + 10, p18 + 11, p18 + 12, p18 + 13, p18 + 14, p18 + 15, p18 + 16, p18 + 17, p18 + 18, p18 + 19, p18 + 20, p18 + 21, p18 + 22, p18 + 23, p18 + 24, p18 + 25, p18 + 26, p18 + 27, p18 + 28, p18 + 29, p18 + 30, p18 + 31, p18 + 32, p18 + 33, p18 + 34, p18 + 35, p18 + 36, p18 + 37, p18 + 38, p18 + 39, 12};
Line(19) = {14, 13};
Line(20) = {13, 15};
Line(21) = {16, 15};
Line(22) = {14, 16};
Line(23) = {14, 17};
Line(24) = {17, 18};
Line(25) = {13, 18};
Line(26) = {15, 19};
Line(27) = {18, 19};
Line(28) = {16, 20};
Line(29) = {20, 19};
Line(30) = {17, 20};
Curve Loop(7) = {-13, -14, 15, 14};
Surface(7) = {7};
Curve Loop(8) = {13};
Plane Surface(8) = {8};
Curve Loop(9) = {15};
Plane Surface(9) = {9};
Curve Loop(10) = {-16, -17, 18, 17};
Surface(10) = {10};
Curve Loop(11) = {16};
Plane Surface(11) = {11};
Curve Loop(12) = {18};
Plane Surface(12) = {12};
Curve Loop(13) = {-19, 22, 21, -20};
Plane Surface(13) = {13};
Curve Loop(14) = {-23, 19, 25, -24};
Plane Surface(14) = {14};
Curve Loop(15) = {-20, 25, 27, -26};
Plane Surface(15) = {15};
Curve Loop(16) = {-28, 21, 26, -29};
Plane Surface(16) = {16};
Curve Loop(17) = {-22, 23, 30, -28, -18, -15};
Plane Surface(17) = {17};
Curve Loop(18) = {-24, 30, 29, -27};
Plane Surface(18) = {18};
Surface Loop(1) = {13, 14, 15, 16, 17, 18, 10, 7, 11, 8};
Volume(1) = {1};
Surface Loop(2) = {7, 8, 9};
Volume(2) = {2};
Surface Loop(3) = {10, 11, 12};
Volume(3) = {3};
Physical Surface("WALLS") = {13, 18};
Physical Surface("LOAD") = {8, 11};
Physical Surface("BORDER") = {7, 9, 10, 12, 14, 15, 16, 17};
Physical Volume("SOLID") = {1, 2, 3};
