cl__1 = 0.148439;
cl__2 = 0.100248;
cl__3 = 3.552328;
cl__4 = 3.632101;
cl__5 = 0.426582;
cl__6 = 0.5104340000000001;
Point(9) = {34.186976, -0.08140700000000035, 0.1, cl__1};
Point(10) = {34.186976, -0.08140700000000035, 0, cl__1};
Point(11) = {19.007611, 0.3609469999999997, 0.1, cl__2};
Point(12) = {19.007611, 0.3609469999999997, 0, cl__2};
Point(13) = {0.663424, -3.813015, 1, cl__3};
Point(14) = {0.663424, -3.813015, 0, cl__3};
Point(15) = {0.663424, 5.04067, 1, cl__4};
Point(16) = {0.663424, 5.04067, 0, cl__4};
Point(17) = {37.642442, -3.813015, 0, cl__5};
Point(18) = {37.642442, -3.813015, 1, cl__5};
Point(19) = {37.642442, 5.04067, 1, cl__6};
Point(20) = {37.642442, 5.04067, 0, cl__6};
p13 = newp;
Point(p13 + 1) = {34.16870063433772, 0.1508035377333935, 0.1};
Point(p13 + 2) = {34.11432453750594, 0.3772962813652, 0.1};
Point(p13 + 3) = {34.02518662947259, 0.5924942278608845, 0.1};
Point(p13 + 4) = {33.9034817813652, 0.7910984895766856, 0.1};
Point(p13 + 5) = {33.75220677045941, 0.968218770459405, 0.1};
Point(p13 + 6) = {33.57508648957669, 1.1194937813652, 0.1};
Point(p13 + 7) = {33.37648222786088, 1.241198629472592, 0.1};
Point(p13 + 8) = {33.16128428136521, 1.330336537505944, 0.1};
Point(p13 + 9) = {32.9347915377334, 1.384712634337719, 0.1};
Point(p13 + 10) = {32.702581, 1.402988, 0.1};
Point(p13 + 11) = {32.47037046226661, 1.384712634337719, 0.1};
Point(p13 + 12) = {32.2438777186348, 1.330336537505945, 0.1};
Point(p13 + 13) = {32.02867977213912, 1.241198629472592, 0.1};
Point(p13 + 14) = {31.83007551042332, 1.1194937813652, 0.1};
Point(p13 + 15) = {31.6529552295406, 0.9682187704594052, 0.1};
Point(p13 + 16) = {31.5016802186348, 0.7910984895766857, 0.1};
Point(p13 + 17) = {31.37997537052741, 0.5924942278608846, 0.1};
Point(p13 + 18) = {31.29083746249406, 0.3772962813652002, 0.1};
Point(p13 + 19) = {31.23646136566228, 0.1508035377333937, 0.1};
Point(p13 + 20) = {31.218186, -0.08140699999999981, 0.1};
Point(p13 + 21) = {31.23646136566228, -0.3136175377333933, 0.1};
Point(p13 + 22) = {31.29083746249406, -0.5401102813652005, 0.1};
Point(p13 + 23) = {31.37997537052741, -0.7553082278608838, 0.1};
Point(p13 + 24) = {31.5016802186348, -0.9539124895766854, 0.1};
Point(p13 + 25) = {31.65295522954059, -1.131032770459405, 0.1};
Point(p13 + 26) = {31.83007551042332, -1.2823077813652, 0.1};
Point(p13 + 27) = {32.02867977213911, -1.404012629472592, 0.1};
Point(p13 + 28) = {32.2438777186348, -1.493150537505944, 0.1};
Point(p13 + 29) = {32.47037046226661, -1.547526634337719, 0.1};
Point(p13 + 30) = {32.702581, -1.565802, 0.1};
Point(p13 + 31) = {32.9347915377334, -1.547526634337719, 0.1};
Point(p13 + 32) = {33.16128428136521, -1.493150537505945, 0.1};
Point(p13 + 33) = {33.37648222786088, -1.404012629472593, 0.1};
Point(p13 + 34) = {33.57508648957669, -1.2823077813652, 0.1};
Point(p13 + 35) = {33.75220677045941, -1.131032770459405, 0.1};
Point(p13 + 36) = {33.9034817813652, -0.9539124895766857, 0.1};
Point(p13 + 37) = {34.02518662947259, -0.7553082278608848, 0.1};
Point(p13 + 38) = {34.11432453750594, -0.5401102813652003, 0.1};
Point(p13 + 39) = {34.16870063433772, -0.3136175377333938, 0.1};
Spline(13) = {9, p13 + 1, p13 + 2, p13 + 3, p13 + 4, p13 + 5, p13 + 6, p13 + 7, p13 + 8, p13 + 9, p13 + 10, p13 + 11, p13 + 12, p13 + 13, p13 + 14, p13 + 15, p13 + 16, p13 + 17, p13 + 18, p13 + 19, p13 + 20, p13 + 21, p13 + 22, p13 + 23, p13 + 24, p13 + 25, p13 + 26, p13 + 27, p13 + 28, p13 + 29, p13 + 30, p13 + 31, p13 + 32, p13 + 33, p13 + 34, p13 + 35, p13 + 36, p13 + 37, p13 + 38, p13 + 39, 9};
Line(14) = {10, 9};
p15 = newp;
Point(p15 + 1) = {34.16870063433772, 0.1508035377333935, 0};
Point(p15 + 2) = {34.11432453750594, 0.3772962813652, 0};
Point(p15 + 3) = {34.02518662947259, 0.5924942278608845, 0};
Point(p15 + 4) = {33.9034817813652, 0.7910984895766856, 0};
Point(p15 + 5) = {33.75220677045941, 0.968218770459405, 0};
Point(p15 + 6) = {33.57508648957669, 1.1194937813652, 0};
Point(p15 + 7) = {33.37648222786088, 1.241198629472592, 0};
Point(p15 + 8) = {33.16128428136521, 1.330336537505944, 0};
Point(p15 + 9) = {32.9347915377334, 1.384712634337719, 0};
Point(p15 + 10) = {32.702581, 1.402988, 0};
Point(p15 + 11) = {32.47037046226661, 1.384712634337719, 0};
Point(p15 + 12) = {32.2438777186348, 1.330336537505945, 0};
Point(p15 + 13) = {32.02867977213912, 1.241198629472592, 0};
Point(p15 + 14) = {31.83007551042332, 1.1194937813652, 0};
Point(p15 + 15) = {31.6529552295406, 0.9682187704594052, 0};
Point(p15 + 16) = {31.5016802186348, 0.7910984895766857, 0};
Point(p15 + 17) = {31.37997537052741, 0.5924942278608846, 0};
Point(p15 + 18) = {31.29083746249406, 0.3772962813652002, 0};
Point(p15 + 19) = {31.23646136566228, 0.1508035377333937, 0};
Point(p15 + 20) = {31.218186, -0.08140699999999981, 0};
Point(p15 + 21) = {31.23646136566228, -0.3136175377333933, 0};
Point(p15 + 22) = {31.29083746249406, -0.5401102813652005, 0};
Point(p15 + 23) = {31.37997537052741, -0.7553082278608838, 0};
Point(p15 + 24) = {31.5016802186348, -0.9539124895766854, 0};
Point(p15 + 25) = {31.65295522954059, -1.131032770459405, 0};
Point(p15 + 26) = {31.83007551042332, -1.2823077813652, 0};
Point(p15 + 27) = {32.02867977213911, -1.404012629472592, 0};
Point(p15 + 28) = {32.2438777186348, -1.493150537505944, 0};
Point(p15 + 29) = {32.47037046226661, -1.547526634337719, 0};
Point(p15 + 30) = {32.702581, -1.565802, 0};
Point(p15 + 31) = {32.9347915377334, -1.547526634337719, 0};
Point(p15 + 32) = {33.16128428136521, -1.493150537505945, 0};
Point(p15 + 33) = {33.37648222786088, -1.404012629472593, 0};
Point(p15 + 34) = {33.57508648957669, -1.2823077813652, 0};
Point(p15 + 35) = {33.75220677045941, -1.131032770459405, 0};
Point(p15 + 36) = {33.9034817813652, -0.9539124895766857, 0};
Point(p15 + 37) = {34.02518662947259, -0.7553082278608848, 0};
Point(p15 + 38) = {34.11432453750594, -0.5401102813652003, 0};
Point(p15 + 39) = {34.16870063433772, -0.3136175377333938, 0};
Spline(15) = {10, p15 + 1, p15 + 2, p15 + 3, p15 + 4, p15 + 5, p15 + 6, p15 + 7, p15 + 8, p15 + 9, p15 + 10, p15 + 11, p15 + 12, p15 + 13, p15 + 14, p15 + 15, p15 + 16, p15 + 17, p15 + 18, p15 + 19, p15 + 20, p15 + 21, p15 + 22, p15 + 23, p15 + 24, p15 + 25, p15 + 26, p15 + 27, p15 + 28, p15 + 29, p15 + 30, p15 + 31, p15 + 32, p15 + 33, p15 + 34, p15 + 35, p15 + 36, p15 + 37, p15 + 38, p15 + 39, 10};
p16 = newp;
Point(p16 + 1) = {18.99526886923811, 0.5177686403412054, 0.1};
Point(p16 + 2) = {18.95854638117298, 0.6707288114360255, 0.1};
Point(p16 + 3) = {18.89834776533574, 0.8160611262264021, 0.1};
Point(p16 + 4) = {18.81615531143603, 0.950187020791897, 0.1};
Point(p16 + 5) = {18.71399287046998, 1.069803870469984, 0.1};
Point(p16 + 6) = {18.5943760207919, 1.171966311436025, 0.1};
Point(p16 + 7) = {18.4602501262264, 1.254158765335734, 0.1};
Point(p16 + 8) = {18.31491781143603, 1.314357381172984, 0.1};
Point(p16 + 9) = {18.16195764034121, 1.351079869238111, 0.1};
Point(p16 + 10) = {18.005136, 1.363422, 0.1};
Point(p16 + 11) = {17.84831435965879, 1.351079869238111, 0.1};
Point(p16 + 12) = {17.69535418856398, 1.314357381172984, 0.1};
Point(p16 + 13) = {17.5500218737736, 1.254158765335734, 0.1};
Point(p16 + 14) = {17.4158959792081, 1.171966311436025, 0.1};
Point(p16 + 15) = {17.29627912953002, 1.069803870469984, 0.1};
Point(p16 + 16) = {17.19411668856397, 0.9501870207918971, 0.1};
Point(p16 + 17) = {17.11192423466427, 0.8160611262264023, 0.1};
Point(p16 + 18) = {17.05172561882702, 0.6707288114360255, 0.1};
Point(p16 + 19) = {17.01500313076189, 0.5177686403412056, 0.1};
Point(p16 + 20) = {17.002661, 0.3609470000000001, 0.1};
Point(p16 + 21) = {17.01500313076189, 0.2041253596587947, 0.1};
Point(p16 + 22) = {17.05172561882702, 0.05116518856397428, 0.1};
Point(p16 + 23) = {17.11192423466427, -0.09416712622640167, 0.1};
Point(p16 + 24) = {17.19411668856397, -0.2282930207918968, 0.1};
Point(p16 + 25) = {17.29627912953002, -0.3479098704699841, 0.1};
Point(p16 + 26) = {17.4158959792081, -0.4500723114360253, 0.1};
Point(p16 + 27) = {17.5500218737736, -0.532264765335734, 0.1};
Point(p16 + 28) = {17.69535418856398, -0.592463381172984, 0.1};
Point(p16 + 29) = {17.84831435965879, -0.6291858692381106, 0.1};
Point(p16 + 30) = {18.005136, -0.641528, 0.1};
Point(p16 + 31) = {18.16195764034121, -0.6291858692381107, 0.1};
Point(p16 + 32) = {18.31491781143603, -0.5924633811729841, 0.1};
Point(p16 + 33) = {18.4602501262264, -0.5322647653357342, 0.1};
Point(p16 + 34) = {18.5943760207919, -0.4500723114360256, 0.1};
Point(p16 + 35) = {18.71399287046998, -0.3479098704699843, 0.1};
Point(p16 + 36) = {18.81615531143603, -0.2282930207918971, 0.1};
Point(p16 + 37) = {18.89834776533574, -0.09416712622640233, 0.1};
Point(p16 + 38) = {18.95854638117298, 0.0511651885639744, 0.1};
Point(p16 + 39) = {18.99526886923811, 0.2041253596587943, 0.1};
Spline(16) = {11, p16 + 1, p16 + 2, p16 + 3, p16 + 4, p16 + 5, p16 + 6, p16 + 7, p16 + 8, p16 + 9, p16 + 10, p16 + 11, p16 + 12, p16 + 13, p16 + 14, p16 + 15, p16 + 16, p16 + 17, p16 + 18, p16 + 19, p16 + 20, p16 + 21, p16 + 22, p16 + 23, p16 + 24, p16 + 25, p16 + 26, p16 + 27, p16 + 28, p16 + 29, p16 + 30, p16 + 31, p16 + 32, p16 + 33, p16 + 34, p16 + 35, p16 + 36, p16 + 37, p16 + 38, p16 + 39, 11};
Line(17) = {12, 11};
p18 = newp;
Point(p18 + 1) = {18.99526886923811, 0.5177686403412054, 0};
Point(p18 + 2) = {18.95854638117298, 0.6707288114360255, 0};
Point(p18 + 3) = {18.89834776533574, 0.8160611262264021, 0};
Point(p18 + 4) = {18.81615531143603, 0.950187020791897, 0};
Point(p18 + 5) = {18.71399287046998, 1.069803870469984, 0};
Point(p18 + 6) = {18.5943760207919, 1.171966311436025, 0};
Point(p18 + 7) = {18.4602501262264, 1.254158765335734, 0};
Point(p18 + 8) = {18.31491781143603, 1.314357381172984, 0};
Point(p18 + 9) = {18.16195764034121, 1.351079869238111, 0};
Point(p18 + 10) = {18.005136, 1.363422, 0};
Point(p18 + 11) = {17.84831435965879, 1.351079869238111, 0};
Point(p18 + 12) = {17.69535418856398, 1.314357381172984, 0};
Point(p18 + 13) = {17.5500218737736, 1.254158765335734, 0};
Point(p18 + 14) = {17.4158959792081, 1.171966311436025, 0};
Point(p18 + 15) = {17.29627912953002, 1.069803870469984, 0};
Point(p18 + 16) = {17.19411668856397, 0.9501870207918971, 0};
Point(p18 + 17) = {17.11192423466427, 0.8160611262264023, 0};
Point(p18 + 18) = {17.05172561882702, 0.6707288114360255, 0};
Point(p18 + 19) = {17.01500313076189, 0.5177686403412056, 0};
Point(p18 + 20) = {17.002661, 0.3609470000000001, 0};
Point(p18 + 21) = {17.01500313076189, 0.2041253596587947, 0};
Point(p18 + 22) = {17.05172561882702, 0.05116518856397428, 0};
Point(p18 + 23) = {17.11192423466427, -0.09416712622640167, 0};
Point(p18 + 24) = {17.19411668856397, -0.2282930207918968, 0};
Point(p18 + 25) = {17.29627912953002, -0.3479098704699841, 0};
Point(p18 + 26) = {17.4158959792081, -0.4500723114360253, 0};
Point(p18 + 27) = {17.5500218737736, -0.532264765335734, 0};
Point(p18 + 28) = {17.69535418856398, -0.592463381172984, 0};
Point(p18 + 29) = {17.84831435965879, -0.6291858692381106, 0};
Point(p18 + 30) = {18.005136, -0.641528, 0};
Point(p18 + 31) = {18.16195764034121, -0.6291858692381107, 0};
Point(p18 + 32) = {18.31491781143603, -0.5924633811729841, 0};
Point(p18 + 33) = {18.4602501262264, -0.5322647653357342, 0};
Point(p18 + 34) = {18.5943760207919, -0.4500723114360256, 0};
Point(p18 + 35) = {18.71399287046998, -0.3479098704699843, 0};
Point(p18 + 36) = {18.81615531143603, -0.2282930207918971, 0};
Point(p18 + 37) = {18.89834776533574, -0.09416712622640233, 0};
Point(p18 + 38) = {18.95854638117298, 0.0511651885639744, 0};
Point(p18 + 39) = {18.99526886923811, 0.2041253596587943, 0};
Spline(18) = {12, p18 + 1, p18 + 2, p18 + 3, p18 + 4, p18 + 5, p18 + 6, p18 + 7, p18 + 8, p18 + 9, p18 + 10, p18 + 11, p18 + 12, p18 + 13, p18 + 14, p18 + 15, p18 + 16, p18 + 17, p18 + 18, p18 + 19, p18 + 20, p18 + 21, p18 + 22, p18 + 23, p18 + 24, p18 + 25, p18 + 26, p18 + 27, p18 + 28, p18 + 29, p18 + 30, p18 + 31, p18 + 32, p18 + 33, p18 + 34, p18 + 35, p18 + 36, p18 + 37, p18 + 38, p18 + 39, 12};
Line(19) = {14, 13};
Line(20) = {13, 15};
Line(21) = {16, 15};
Line(22) = {14, 16};
Line(23) = {14, 17};
Line(24) = {17, 18};
Line(25) = {13, 18};
Line(26) = {15, 19};
Line(27) = {18, 19};
Line(28) = {16, 20};
Line(29) = {20, 19};
Line(30) = {17, 20};
Curve Loop(7) = {-13, -14, 15, 14};
Surface(7) = {7};
Curve Loop(8) = {13};
Plane Surface(8) = {8};
Curve Loop(9) = {15};
Plane Surface(9) = {9};
Curve Loop(10) = {-16, -17, 18, 17};
Surface(10) = {10};
Curve Loop(11) = {16};
Plane Surface(11) = {11};
Curve Loop(12) = {18};
Plane Surface(12) = {12};
Curve Loop(13) = {-19, 22, 21, -20};
Plane Surface(13) = {13};
Curve Loop(14) = {-23, 19, 25, -24};
Plane Surface(14) = {14};
Curve Loop(15) = {-20, 25, 27, -26};
Plane Surface(15) = {15};
Curve Loop(16) = {-28, 21, 26, -29};
Plane Surface(16) = {16};
Curve Loop(17) = {-22, 23, 30, -28, -15, -18};
Plane Surface(17) = {17};
Curve Loop(18) = {-24, 30, 29, -27};
Plane Surface(18) = {18};
Surface Loop(1) = {13, 14, 15, 16, 17, 18, 7, 10, 8, 11};
Volume(1) = {1};
Surface Loop(2) = {7, 8, 9};
Volume(2) = {2};
Surface Loop(3) = {10, 11, 12};
Volume(3) = {3};
Physical Surface("WALLS") = {13, 18};
Physical Surface("LOAD") = {8, 11};
Physical Surface("BORDER") = {7, 9, 10, 12, 14, 15, 16, 17};
Physical Volume("SOLID") = {1, 2, 3};
