cl__1 = 0.112857;
cl__2 = 0.120181;
cl__3 = 2.419434;
cl__4 = 2.756652;
cl__5 = 0.602808;
cl__6 = 0.652574;
Point(9) = {30.827391, 0.06535299999999972, 0.1, cl__1};
Point(10) = {30.827391, 0.06535299999999972, 0, cl__1};
Point(11) = {20.05491, -0.8360510000000002, 0.1, cl__2};
Point(12) = {20.05491, -0.8360510000000002, 0, cl__2};
Point(13) = {0.365412, -4.260124, 1, cl__3};
Point(14) = {0.365412, -4.260124, 0, cl__3};
Point(15) = {0.365412, 5.626008, 1, cl__4};
Point(16) = {0.365412, 5.626008, 0, cl__4};
Point(17) = {37.627259, -4.260124, 0, cl__5};
Point(18) = {37.627259, -4.260124, 1, cl__5};
Point(19) = {37.627259, 5.626008, 1, cl__6};
Point(20) = {37.627259, 5.626008, 0, cl__6};
p13 = newp;
Point(p13 + 1) = {30.8134964182338, 0.2419004006449184, 0.1};
Point(p13 + 2) = {30.77215480365174, 0.4141006183587287, 0.1};
Point(p13 + 3) = {30.70438412400979, 0.57771351228156, 0.1};
Point(p13 + 4) = {30.61185311835873, 0.7287103899649687, 0.1};
Point(p13 + 5) = {30.49684020715048, 0.863373207150483, 0.1};
Point(p13 + 6) = {30.36217738996497, 0.9783861183587287, 0.1};
Point(p13 + 7) = {30.21118051228156, 1.07091712400979, 0.1};
Point(p13 + 8) = {30.04756761835873, 1.138687803651738, 0.1};
Point(p13 + 9) = {29.87536740064492, 1.180029418233795, 0.1};
Point(p13 + 10) = {29.69882, 1.193924, 0.1};
Point(p13 + 11) = {29.52227259935508, 1.180029418233795, 0.1};
Point(p13 + 12) = {29.35007238164127, 1.138687803651738, 0.1};
Point(p13 + 13) = {29.18645948771844, 1.070917124009791, 0.1};
Point(p13 + 14) = {29.03546261003503, 0.9783861183587288, 0.1};
Point(p13 + 15) = {28.90079979284952, 0.8633732071504832, 0.1};
Point(p13 + 16) = {28.78578688164127, 0.7287103899649688, 0.1};
Point(p13 + 17) = {28.69325587599021, 0.5777135122815601, 0.1};
Point(p13 + 18) = {28.62548519634827, 0.4141006183587289, 0.1};
Point(p13 + 19) = {28.58414358176621, 0.2419004006449185, 0.1};
Point(p13 + 20) = {28.570249, 0.06535300000000013, 0.1};
Point(p13 + 21) = {28.58414358176621, -0.1111944006449183, 0.1};
Point(p13 + 22) = {28.62548519634827, -0.2833946183587291, 0.1};
Point(p13 + 23) = {28.69325587599021, -0.4470075122815595, 0.1};
Point(p13 + 24) = {28.78578688164127, -0.5980043899649686, 0.1};
Point(p13 + 25) = {28.90079979284952, -0.7326672071504831, 0.1};
Point(p13 + 26) = {29.03546261003503, -0.8476801183587287, 0.1};
Point(p13 + 27) = {29.18645948771844, -0.9402111240097903, 0.1};
Point(p13 + 28) = {29.35007238164127, -1.007981803651738, 0.1};
Point(p13 + 29) = {29.52227259935508, -1.049323418233795, 0.1};
Point(p13 + 30) = {29.69882, -1.063218, 0.1};
Point(p13 + 31) = {29.87536740064492, -1.049323418233795, 0.1};
Point(p13 + 32) = {30.04756761835873, -1.007981803651738, 0.1};
Point(p13 + 33) = {30.21118051228156, -0.9402111240097906, 0.1};
Point(p13 + 34) = {30.36217738996497, -0.8476801183587289, 0.1};
Point(p13 + 35) = {30.49684020715048, -0.7326672071504833, 0.1};
Point(p13 + 36) = {30.61185311835873, -0.5980043899649689, 0.1};
Point(p13 + 37) = {30.70438412400979, -0.4470075122815602, 0.1};
Point(p13 + 38) = {30.77215480365174, -0.283394618358729, 0.1};
Point(p13 + 39) = {30.8134964182338, -0.1111944006449187, 0.1};
Spline(13) = {9, p13 + 1, p13 + 2, p13 + 3, p13 + 4, p13 + 5, p13 + 6, p13 + 7, p13 + 8, p13 + 9, p13 + 10, p13 + 11, p13 + 12, p13 + 13, p13 + 14, p13 + 15, p13 + 16, p13 + 17, p13 + 18, p13 + 19, p13 + 20, p13 + 21, p13 + 22, p13 + 23, p13 + 24, p13 + 25, p13 + 26, p13 + 27, p13 + 28, p13 + 29, p13 + 30, p13 + 31, p13 + 32, p13 + 33, p13 + 34, p13 + 35, p13 + 36, p13 + 37, p13 + 38, p13 + 39, 9};
Line(14) = {10, 9};
p15 = newp;
Point(p15 + 1) = {30.8134964182338, 0.2419004006449184, 0};
Point(p15 + 2) = {30.77215480365174, 0.4141006183587287, 0};
Point(p15 + 3) = {30.70438412400979, 0.57771351228156, 0};
Point(p15 + 4) = {30.61185311835873, 0.7287103899649687, 0};
Point(p15 + 5) = {30.49684020715048, 0.863373207150483, 0};
Point(p15 + 6) = {30.36217738996497, 0.9783861183587287, 0};
Point(p15 + 7) = {30.21118051228156, 1.07091712400979, 0};
Point(p15 + 8) = {30.04756761835873, 1.138687803651738, 0};
Point(p15 + 9) = {29.87536740064492, 1.180029418233795, 0};
Point(p15 + 10) = {29.69882, 1.193924, 0};
Point(p15 + 11) = {29.52227259935508, 1.180029418233795, 0};
Point(p15 + 12) = {29.35007238164127, 1.138687803651738, 0};
Point(p15 + 13) = {29.18645948771844, 1.070917124009791, 0};
Point(p15 + 14) = {29.03546261003503, 0.9783861183587288, 0};
Point(p15 + 15) = {28.90079979284952, 0.8633732071504832, 0};
Point(p15 + 16) = {28.78578688164127, 0.7287103899649688, 0};
Point(p15 + 17) = {28.69325587599021, 0.5777135122815601, 0};
Point(p15 + 18) = {28.62548519634827, 0.4141006183587289, 0};
Point(p15 + 19) = {28.58414358176621, 0.2419004006449185, 0};
Point(p15 + 20) = {28.570249, 0.06535300000000013, 0};
Point(p15 + 21) = {28.58414358176621, -0.1111944006449183, 0};
Point(p15 + 22) = {28.62548519634827, -0.2833946183587291, 0};
Point(p15 + 23) = {28.69325587599021, -0.4470075122815595, 0};
Point(p15 + 24) = {28.78578688164127, -0.5980043899649686, 0};
Point(p15 + 25) = {28.90079979284952, -0.7326672071504831, 0};
Point(p15 + 26) = {29.03546261003503, -0.8476801183587287, 0};
Point(p15 + 27) = {29.18645948771844, -0.9402111240097903, 0};
Point(p15 + 28) = {29.35007238164127, -1.007981803651738, 0};
Point(p15 + 29) = {29.52227259935508, -1.049323418233795, 0};
Point(p15 + 30) = {29.69882, -1.063218, 0};
Point(p15 + 31) = {29.87536740064492, -1.049323418233795, 0};
Point(p15 + 32) = {30.04756761835873, -1.007981803651738, 0};
Point(p15 + 33) = {30.21118051228156, -0.9402111240097906, 0};
Point(p15 + 34) = {30.36217738996497, -0.8476801183587289, 0};
Point(p15 + 35) = {30.49684020715048, -0.7326672071504833, 0};
Point(p15 + 36) = {30.61185311835873, -0.5980043899649689, 0};
Point(p15 + 37) = {30.70438412400979, -0.4470075122815602, 0};
Point(p15 + 38) = {30.77215480365174, -0.283394618358729, 0};
Point(p15 + 39) = {30.8134964182338, -0.1111944006449187, 0};
Spline(15) = {10, p15 + 1, p15 + 2, p15 + 3, p15 + 4, p15 + 5, p15 + 6, p15 + 7, p15 + 8, p15 + 9, p15 + 10, p15 + 11, p15 + 12, p15 + 13, p15 + 14, p15 + 15, p15 + 16, p15 + 17, p15 + 18, p15 + 19, p15 + 20, p15 + 21, p15 + 22, p15 + 23, p15 + 24, p15 + 25, p15 + 26, p15 + 27, p15 + 28, p15 + 29, p15 + 30, p15 + 31, p15 + 32, p15 + 33, p15 + 34, p15 + 35, p15 + 36, p15 + 37, p15 + 38, p15 + 39, 10};
p16 = newp;
Point(p16 + 1) = {20.04011371229898, -0.6480463391355351, 0.1};
Point(p16 + 2) = {19.99608918290519, -0.4646709769732501, 0.1};
Point(p16 + 3) = {19.92392044184135, -0.2904402235175156, 0.1};
Point(p16 + 4) = {19.82538452302675, -0.1296442181571306, 0.1};
Point(p16 + 5) = {19.70290770780458, 0.01375770780458574, 0.1};
Point(p16 + 6) = {19.55950578184287, 0.1362345230267498, 0.1};
Point(p16 + 7) = {19.39870977648248, 0.2347704418413464, 0.1};
Point(p16 + 8) = {19.22447902302675, 0.3069391829051947, 0.1};
Point(p16 + 9) = {19.04110366086447, 0.3509637122989832, 0.1};
Point(p16 + 10) = {18.853099, 0.36576, 0.1};
Point(p16 + 11) = {18.66509433913554, 0.3509637122989829, 0.1};
Point(p16 + 12) = {18.48171897697325, 0.306939182905195, 0.1};
Point(p16 + 13) = {18.30748822351752, 0.2347704418413467, 0.1};
Point(p16 + 14) = {18.14669221815713, 0.13623452302675, 0.1};
Point(p16 + 15) = {18.00329029219542, 0.01375770780458596, 0.1};
Point(p16 + 16) = {17.88081347697325, -0.1296442181571305, 0.1};
Point(p16 + 17) = {17.78227755815865, -0.2904402235175154, 0.1};
Point(p16 + 18) = {17.71010881709481, -0.4646709769732499, 0.1};
Point(p16 + 19) = {17.66608428770102, -0.648046339135535, 0.1};
Point(p16 + 20) = {17.651288, -0.8360509999999999, 0.1};
Point(p16 + 21) = {17.66608428770102, -1.024055660864465, 0.1};
Point(p16 + 22) = {17.71010881709481, -1.20743102302675, 0.1};
Point(p16 + 23) = {17.78227755815865, -1.381661776482484, 0.1};
Point(p16 + 24) = {17.88081347697325, -1.542457781842869, 0.1};
Point(p16 + 25) = {18.00329029219541, -1.685859707804586, 0.1};
Point(p16 + 26) = {18.14669221815713, -1.80833652302675, 0.1};
Point(p16 + 27) = {18.30748822351752, -1.906872441841347, 0.1};
Point(p16 + 28) = {18.48171897697325, -1.979041182905195, 0.1};
Point(p16 + 29) = {18.66509433913554, -2.023065712298983, 0.1};
Point(p16 + 30) = {18.853099, -2.037862, 0.1};
Point(p16 + 31) = {19.04110366086447, -2.023065712298983, 0.1};
Point(p16 + 32) = {19.22447902302675, -1.979041182905195, 0.1};
Point(p16 + 33) = {19.39870977648248, -1.906872441841347, 0.1};
Point(p16 + 34) = {19.55950578184287, -1.80833652302675, 0.1};
Point(p16 + 35) = {19.70290770780458, -1.685859707804586, 0.1};
Point(p16 + 36) = {19.82538452302675, -1.54245778184287, 0.1};
Point(p16 + 37) = {19.92392044184135, -1.381661776482485, 0.1};
Point(p16 + 38) = {19.99608918290519, -1.20743102302675, 0.1};
Point(p16 + 39) = {20.04011371229898, -1.024055660864465, 0.1};
Spline(16) = {11, p16 + 1, p16 + 2, p16 + 3, p16 + 4, p16 + 5, p16 + 6, p16 + 7, p16 + 8, p16 + 9, p16 + 10, p16 + 11, p16 + 12, p16 + 13, p16 + 14, p16 + 15, p16 + 16, p16 + 17, p16 + 18, p16 + 19, p16 + 20, p16 + 21, p16 + 22, p16 + 23, p16 + 24, p16 + 25, p16 + 26, p16 + 27, p16 + 28, p16 + 29, p16 + 30, p16 + 31, p16 + 32, p16 + 33, p16 + 34, p16 + 35, p16 + 36, p16 + 37, p16 + 38, p16 + 39, 11};
Line(17) = {12, 11};
p18 = newp;
Point(p18 + 1) = {20.04011371229898, -0.6480463391355351, 0};
Point(p18 + 2) = {19.99608918290519, -0.4646709769732501, 0};
Point(p18 + 3) = {19.92392044184135, -0.2904402235175156, 0};
Point(p18 + 4) = {19.82538452302675, -0.1296442181571306, 0};
Point(p18 + 5) = {19.70290770780458, 0.01375770780458574, 0};
Point(p18 + 6) = {19.55950578184287, 0.1362345230267498, 0};
Point(p18 + 7) = {19.39870977648248, 0.2347704418413464, 0};
Point(p18 + 8) = {19.22447902302675, 0.3069391829051947, 0};
Point(p18 + 9) = {19.04110366086447, 0.3509637122989832, 0};
Point(p18 + 10) = {18.853099, 0.36576, 0};
Point(p18 + 11) = {18.66509433913554, 0.3509637122989829, 0};
Point(p18 + 12) = {18.48171897697325, 0.306939182905195, 0};
Point(p18 + 13) = {18.30748822351752, 0.2347704418413467, 0};
Point(p18 + 14) = {18.14669221815713, 0.13623452302675, 0};
Point(p18 + 15) = {18.00329029219542, 0.01375770780458596, 0};
Point(p18 + 16) = {17.88081347697325, -0.1296442181571305, 0};
Point(p18 + 17) = {17.78227755815865, -0.2904402235175154, 0};
Point(p18 + 18) = {17.71010881709481, -0.4646709769732499, 0};
Point(p18 + 19) = {17.66608428770102, -0.648046339135535, 0};
Point(p18 + 20) = {17.651288, -0.8360509999999999, 0};
Point(p18 + 21) = {17.66608428770102, -1.024055660864465, 0};
Point(p18 + 22) = {17.71010881709481, -1.20743102302675, 0};
Point(p18 + 23) = {17.78227755815865, -1.381661776482484, 0};
Point(p18 + 24) = {17.88081347697325, -1.542457781842869, 0};
Point(p18 + 25) = {18.00329029219541, -1.685859707804586, 0};
Point(p18 + 26) = {18.14669221815713, -1.80833652302675, 0};
Point(p18 + 27) = {18.30748822351752, -1.906872441841347, 0};
Point(p18 + 28) = {18.48171897697325, -1.979041182905195, 0};
Point(p18 + 29) = {18.66509433913554, -2.023065712298983, 0};
Point(p18 + 30) = {18.853099, -2.037862, 0};
Point(p18 + 31) = {19.04110366086447, -2.023065712298983, 0};
Point(p18 + 32) = {19.22447902302675, -1.979041182905195, 0};
Point(p18 + 33) = {19.39870977648248, -1.906872441841347, 0};
Point(p18 + 34) = {19.55950578184287, -1.80833652302675, 0};
Point(p18 + 35) = {19.70290770780458, -1.685859707804586, 0};
Point(p18 + 36) = {19.82538452302675, -1.54245778184287, 0};
Point(p18 + 37) = {19.92392044184135, -1.381661776482485, 0};
Point(p18 + 38) = {19.99608918290519, -1.20743102302675, 0};
Point(p18 + 39) = {20.04011371229898, -1.024055660864465, 0};
Spline(18) = {12, p18 + 1, p18 + 2, p18 + 3, p18 + 4, p18 + 5, p18 + 6, p18 + 7, p18 + 8, p18 + 9, p18 + 10, p18 + 11, p18 + 12, p18 + 13, p18 + 14, p18 + 15, p18 + 16, p18 + 17, p18 + 18, p18 + 19, p18 + 20, p18 + 21, p18 + 22, p18 + 23, p18 + 24, p18 + 25, p18 + 26, p18 + 27, p18 + 28, p18 + 29, p18 + 30, p18 + 31, p18 + 32, p18 + 33, p18 + 34, p18 + 35, p18 + 36, p18 + 37, p18 + 38, p18 + 39, 12};
Line(19) = {14, 13};
Line(20) = {13, 15};
Line(21) = {16, 15};
Line(22) = {14, 16};
Line(23) = {14, 17};
Line(24) = {17, 18};
Line(25) = {13, 18};
Line(26) = {15, 19};
Line(27) = {18, 19};
Line(28) = {16, 20};
Line(29) = {20, 19};
Line(30) = {17, 20};
Curve Loop(7) = {-13, -14, 15, 14};
Surface(7) = {7};
Curve Loop(8) = {13};
Plane Surface(8) = {8};
Curve Loop(9) = {15};
Plane Surface(9) = {9};
Curve Loop(10) = {-16, -17, 18, 17};
Surface(10) = {10};
Curve Loop(11) = {16};
Plane Surface(11) = {11};
Curve Loop(12) = {18};
Plane Surface(12) = {12};
Curve Loop(13) = {-19, 22, 21, -20};
Plane Surface(13) = {13};
Curve Loop(14) = {-23, 19, 25, -24};
Plane Surface(14) = {14};
Curve Loop(15) = {-20, 25, 27, -26};
Plane Surface(15) = {15};
Curve Loop(16) = {-28, 21, 26, -29};
Plane Surface(16) = {16};
Curve Loop(17) = {-22, 23, 30, -28, -18, -15};
Plane Surface(17) = {17};
Curve Loop(18) = {-24, 30, 29, -27};
Plane Surface(18) = {18};
Surface Loop(1) = {13, 14, 15, 16, 17, 18, 10, 7, 11, 8};
Volume(1) = {1};
Surface Loop(2) = {7, 8, 9};
Volume(2) = {2};
Surface Loop(3) = {10, 11, 12};
Volume(3) = {3};
Physical Surface("WALLS") = {13, 18};
Physical Surface("LOAD") = {8, 11};
Physical Surface("BORDER") = {7, 9, 10, 12, 14, 15, 16, 17};
Physical Volume("SOLID") = {1, 2, 3};
