cl__1 = 0.079152;
cl__2 = 0.07323300000000001;
cl__3 = 0.653267;
cl__4 = 0.151085;
cl__5 = 4.223027;
cl__6 = 3.938895;
Point(9) = {15.408581, 1.435839, 0.1, cl__1};
Point(10) = {15.408581, 1.435839, 0, cl__1};
Point(11) = {2.805362, 3.689657, 0.1, cl__2};
Point(12) = {2.805362, 3.689657, 0, cl__2};
Point(13) = {0.520688, -4.334692, 1, cl__3};
Point(14) = {0.520688, -4.334692, 0, cl__3};
Point(15) = {0.520688, 5.589245, 1, cl__4};
Point(16) = {0.520688, 5.589245, 0, cl__4};
Point(17) = {32.931695, -4.334692, 0, cl__5};
Point(18) = {32.931695, -4.334692, 1, cl__5};
Point(19) = {32.931695, 5.589245, 1, cl__6};
Point(20) = {32.931695, 5.589245, 0, cl__6};
p13 = newp;
Point(p13 + 1) = {15.39883611228284, 1.559659538465249, 0.1};
Point(p13 + 2) = {15.36984140060839, 1.680431204336675, 0.1};
Point(p13 + 3) = {15.322310811006, 1.795180198382347, 0.1};
Point(p13 + 4) = {15.25741470433668, 1.901081019538782, 0.1};
Point(p13 + 5) = {15.17675103812443, 1.995526038124433, 0.1};
Point(p13 + 6) = {15.08230601953878, 2.076189704336675, 0.1};
Point(p13 + 7) = {14.97640519838235, 2.141085811006004, 0.1};
Point(p13 + 8) = {14.86165620433667, 2.188616400608391, 0.1};
Point(p13 + 9) = {14.74088453846525, 2.217611112282842, 0.1};
Point(p13 + 10) = {14.617064, 2.227356, 0.1};
Point(p13 + 11) = {14.49324346153475, 2.217611112282841, 0.1};
Point(p13 + 12) = {14.37247179566332, 2.188616400608391, 0.1};
Point(p13 + 13) = {14.25772280161765, 2.141085811006004, 0.1};
Point(p13 + 14) = {14.15182198046122, 2.076189704336675, 0.1};
Point(p13 + 15) = {14.05737696187557, 1.995526038124433, 0.1};
Point(p13 + 16) = {13.97671329566332, 1.901081019538782, 0.1};
Point(p13 + 17) = {13.91181718899399, 1.795180198382347, 0.1};
Point(p13 + 18) = {13.86428659939161, 1.680431204336675, 0.1};
Point(p13 + 19) = {13.83529188771716, 1.559659538465249, 0.1};
Point(p13 + 20) = {13.825547, 1.435839, 0.1};
Point(p13 + 21) = {13.83529188771716, 1.312018461534752, 0.1};
Point(p13 + 22) = {13.86428659939161, 1.191246795663325, 0.1};
Point(p13 + 23) = {13.91181718899399, 1.076497801617654, 0.1};
Point(p13 + 24) = {13.97671329566332, 0.9705969804612187, 0.1};
Point(p13 + 25) = {14.05737696187557, 0.8761519618755675, 0.1};
Point(p13 + 26) = {14.15182198046122, 0.7954882956633249, 0.1};
Point(p13 + 27) = {14.25772280161765, 0.7305921889939958, 0.1};
Point(p13 + 28) = {14.37247179566332, 0.683061599391609, 0.1};
Point(p13 + 29) = {14.49324346153475, 0.6540668877171585, 0.1};
Point(p13 + 30) = {14.617064, 0.6443220000000001, 0.1};
Point(p13 + 31) = {14.74088453846525, 0.6540668877171584, 0.1};
Point(p13 + 32) = {14.86165620433667, 0.6830615993916089, 0.1};
Point(p13 + 33) = {14.97640519838235, 0.7305921889939956, 0.1};
Point(p13 + 34) = {15.08230601953878, 0.7954882956633247, 0.1};
Point(p13 + 35) = {15.17675103812443, 0.8761519618755674, 0.1};
Point(p13 + 36) = {15.25741470433668, 0.9705969804612185, 0.1};
Point(p13 + 37) = {15.322310811006, 1.076497801617653, 0.1};
Point(p13 + 38) = {15.36984140060839, 1.191246795663325, 0.1};
Point(p13 + 39) = {15.39883611228284, 1.312018461534751, 0.1};
Spline(13) = {9, p13 + 1, p13 + 2, p13 + 3, p13 + 4, p13 + 5, p13 + 6, p13 + 7, p13 + 8, p13 + 9, p13 + 10, p13 + 11, p13 + 12, p13 + 13, p13 + 14, p13 + 15, p13 + 16, p13 + 17, p13 + 18, p13 + 19, p13 + 20, p13 + 21, p13 + 22, p13 + 23, p13 + 24, p13 + 25, p13 + 26, p13 + 27, p13 + 28, p13 + 29, p13 + 30, p13 + 31, p13 + 32, p13 + 33, p13 + 34, p13 + 35, p13 + 36, p13 + 37, p13 + 38, p13 + 39, 9};
Line(14) = {10, 9};
p15 = newp;
Point(p15 + 1) = {15.39883611228284, 1.559659538465249, 0};
Point(p15 + 2) = {15.36984140060839, 1.680431204336675, 0};
Point(p15 + 3) = {15.322310811006, 1.795180198382347, 0};
Point(p15 + 4) = {15.25741470433668, 1.901081019538782, 0};
Point(p15 + 5) = {15.17675103812443, 1.995526038124433, 0};
Point(p15 + 6) = {15.08230601953878, 2.076189704336675, 0};
Point(p15 + 7) = {14.97640519838235, 2.141085811006004, 0};
Point(p15 + 8) = {14.86165620433667, 2.188616400608391, 0};
Point(p15 + 9) = {14.74088453846525, 2.217611112282842, 0};
Point(p15 + 10) = {14.617064, 2.227356, 0};
Point(p15 + 11) = {14.49324346153475, 2.217611112282841, 0};
Point(p15 + 12) = {14.37247179566332, 2.188616400608391, 0};
Point(p15 + 13) = {14.25772280161765, 2.141085811006004, 0};
Point(p15 + 14) = {14.15182198046122, 2.076189704336675, 0};
Point(p15 + 15) = {14.05737696187557, 1.995526038124433, 0};
Point(p15 + 16) = {13.97671329566332, 1.901081019538782, 0};
Point(p15 + 17) = {13.91181718899399, 1.795180198382347, 0};
Point(p15 + 18) = {13.86428659939161, 1.680431204336675, 0};
Point(p15 + 19) = {13.83529188771716, 1.559659538465249, 0};
Point(p15 + 20) = {13.825547, 1.435839, 0};
Point(p15 + 21) = {13.83529188771716, 1.312018461534752, 0};
Point(p15 + 22) = {13.86428659939161, 1.191246795663325, 0};
Point(p15 + 23) = {13.91181718899399, 1.076497801617654, 0};
Point(p15 + 24) = {13.97671329566332, 0.9705969804612187, 0};
Point(p15 + 25) = {14.05737696187557, 0.8761519618755675, 0};
Point(p15 + 26) = {14.15182198046122, 0.7954882956633249, 0};
Point(p15 + 27) = {14.25772280161765, 0.7305921889939958, 0};
Point(p15 + 28) = {14.37247179566332, 0.683061599391609, 0};
Point(p15 + 29) = {14.49324346153475, 0.6540668877171585, 0};
Point(p15 + 30) = {14.617064, 0.6443220000000001, 0};
Point(p15 + 31) = {14.74088453846525, 0.6540668877171584, 0};
Point(p15 + 32) = {14.86165620433667, 0.6830615993916089, 0};
Point(p15 + 33) = {14.97640519838235, 0.7305921889939956, 0};
Point(p15 + 34) = {15.08230601953878, 0.7954882956633247, 0};
Point(p15 + 35) = {15.17675103812443, 0.8761519618755674, 0};
Point(p15 + 36) = {15.25741470433668, 0.9705969804612185, 0};
Point(p15 + 37) = {15.322310811006, 1.076497801617653, 0};
Point(p15 + 38) = {15.36984140060839, 1.191246795663325, 0};
Point(p15 + 39) = {15.39883611228284, 1.312018461534751, 0};
Spline(15) = {10, p15 + 1, p15 + 2, p15 + 3, p15 + 4, p15 + 5, p15 + 6, p15 + 7, p15 + 8, p15 + 9, p15 + 10, p15 + 11, p15 + 12, p15 + 13, p15 + 14, p15 + 15, p15 + 16, p15 + 17, p15 + 18, p15 + 19, p15 + 20, p15 + 21, p15 + 22, p15 + 23, p15 + 24, p15 + 25, p15 + 26, p15 + 27, p15 + 28, p15 + 29, p15 + 30, p15 + 31, p15 + 32, p15 + 33, p15 + 34, p15 + 35, p15 + 36, p15 + 37, p15 + 38, p15 + 39, 10};
p16 = newp;
Point(p16 + 1) = {2.796345827091356, 3.804218338913982, 0.1};
Point(p16 + 2) = {2.769519316465397, 3.915958797456617, 0.1};
Point(p16 + 3) = {2.725543025845819, 4.022126954693263, 0.1};
Point(p16 + 4) = {2.665499797456616, 4.120108598240842, 0.1};
Point(p16 + 5) = {2.590868094852782, 4.207491094852782, 0.1};
Point(p16 + 6) = {2.503485598240842, 4.282122797456617, 0.1};
Point(p16 + 7) = {2.405503954693263, 4.342166025845819, 0.1};
Point(p16 + 8) = {2.299335797456616, 4.386142316465397, 0.1};
Point(p16 + 9) = {2.187595338913982, 4.412968827091356, 0.1};
Point(p16 + 10) = {2.073034, 4.421985, 0.1};
Point(p16 + 11) = {1.958472661086017, 4.412968827091356, 0.1};
Point(p16 + 12) = {1.846732202543383, 4.386142316465397, 0.1};
Point(p16 + 13) = {1.740564045306737, 4.342166025845819, 0.1};
Point(p16 + 14) = {1.642582401759158, 4.282122797456617, 0.1};
Point(p16 + 15) = {1.555199905147218, 4.207491094852782, 0.1};
Point(p16 + 16) = {1.480568202543383, 4.120108598240842, 0.1};
Point(p16 + 17) = {1.420524974154181, 4.022126954693263, 0.1};
Point(p16 + 18) = {1.376548683534603, 3.915958797456617, 0.1};
Point(p16 + 19) = {1.349722172908644, 3.804218338913982, 0.1};
Point(p16 + 20) = {1.340706, 3.689657, 0.1};
Point(p16 + 21) = {1.349722172908644, 3.575095661086018, 0.1};
Point(p16 + 22) = {1.376548683534603, 3.463355202543383, 0.1};
Point(p16 + 23) = {1.420524974154181, 3.357187045306738, 0.1};
Point(p16 + 24) = {1.480568202543383, 3.259205401759158, 0.1};
Point(p16 + 25) = {1.555199905147218, 3.171822905147218, 0.1};
Point(p16 + 26) = {1.642582401759157, 3.097191202543383, 0.1};
Point(p16 + 27) = {1.740564045306737, 3.037147974154181, 0.1};
Point(p16 + 28) = {1.846732202543383, 2.993171683534603, 0.1};
Point(p16 + 29) = {1.958472661086017, 2.966345172908644, 0.1};
Point(p16 + 30) = {2.073034, 2.957329, 0.1};
Point(p16 + 31) = {2.187595338913982, 2.966345172908644, 0.1};
Point(p16 + 32) = {2.299335797456616, 2.993171683534603, 0.1};
Point(p16 + 33) = {2.405503954693263, 3.037147974154181, 0.1};
Point(p16 + 34) = {2.503485598240842, 3.097191202543383, 0.1};
Point(p16 + 35) = {2.590868094852782, 3.171822905147218, 0.1};
Point(p16 + 36) = {2.665499797456616, 3.259205401759158, 0.1};
Point(p16 + 37) = {2.725543025845819, 3.357187045306737, 0.1};
Point(p16 + 38) = {2.769519316465397, 3.463355202543383, 0.1};
Point(p16 + 39) = {2.796345827091356, 3.575095661086018, 0.1};
Spline(16) = {11, p16 + 1, p16 + 2, p16 + 3, p16 + 4, p16 + 5, p16 + 6, p16 + 7, p16 + 8, p16 + 9, p16 + 10, p16 + 11, p16 + 12, p16 + 13, p16 + 14, p16 + 15, p16 + 16, p16 + 17, p16 + 18, p16 + 19, p16 + 20, p16 + 21, p16 + 22, p16 + 23, p16 + 24, p16 + 25, p16 + 26, p16 + 27, p16 + 28, p16 + 29, p16 + 30, p16 + 31, p16 + 32, p16 + 33, p16 + 34, p16 + 35, p16 + 36, p16 + 37, p16 + 38, p16 + 39, 11};
Line(17) = {12, 11};
p18 = newp;
Point(p18 + 1) = {2.796345827091356, 3.804218338913982, 0};
Point(p18 + 2) = {2.769519316465397, 3.915958797456617, 0};
Point(p18 + 3) = {2.725543025845819, 4.022126954693263, 0};
Point(p18 + 4) = {2.665499797456616, 4.120108598240842, 0};
Point(p18 + 5) = {2.590868094852782, 4.207491094852782, 0};
Point(p18 + 6) = {2.503485598240842, 4.282122797456617, 0};
Point(p18 + 7) = {2.405503954693263, 4.342166025845819, 0};
Point(p18 + 8) = {2.299335797456616, 4.386142316465397, 0};
Point(p18 + 9) = {2.187595338913982, 4.412968827091356, 0};
Point(p18 + 10) = {2.073034, 4.421985, 0};
Point(p18 + 11) = {1.958472661086017, 4.412968827091356, 0};
Point(p18 + 12) = {1.846732202543383, 4.386142316465397, 0};
Point(p18 + 13) = {1.740564045306737, 4.342166025845819, 0};
Point(p18 + 14) = {1.642582401759158, 4.282122797456617, 0};
Point(p18 + 15) = {1.555199905147218, 4.207491094852782, 0};
Point(p18 + 16) = {1.480568202543383, 4.120108598240842, 0};
Point(p18 + 17) = {1.420524974154181, 4.022126954693263, 0};
Point(p18 + 18) = {1.376548683534603, 3.915958797456617, 0};
Point(p18 + 19) = {1.349722172908644, 3.804218338913982, 0};
Point(p18 + 20) = {1.340706, 3.689657, 0};
Point(p18 + 21) = {1.349722172908644, 3.575095661086018, 0};
Point(p18 + 22) = {1.376548683534603, 3.463355202543383, 0};
Point(p18 + 23) = {1.420524974154181, 3.357187045306738, 0};
Point(p18 + 24) = {1.480568202543383, 3.259205401759158, 0};
Point(p18 + 25) = {1.555199905147218, 3.171822905147218, 0};
Point(p18 + 26) = {1.642582401759157, 3.097191202543383, 0};
Point(p18 + 27) = {1.740564045306737, 3.037147974154181, 0};
Point(p18 + 28) = {1.846732202543383, 2.993171683534603, 0};
Point(p18 + 29) = {1.958472661086017, 2.966345172908644, 0};
Point(p18 + 30) = {2.073034, 2.957329, 0};
Point(p18 + 31) = {2.187595338913982, 2.966345172908644, 0};
Point(p18 + 32) = {2.299335797456616, 2.993171683534603, 0};
Point(p18 + 33) = {2.405503954693263, 3.037147974154181, 0};
Point(p18 + 34) = {2.503485598240842, 3.097191202543383, 0};
Point(p18 + 35) = {2.590868094852782, 3.171822905147218, 0};
Point(p18 + 36) = {2.665499797456616, 3.259205401759158, 0};
Point(p18 + 37) = {2.725543025845819, 3.357187045306737, 0};
Point(p18 + 38) = {2.769519316465397, 3.463355202543383, 0};
Point(p18 + 39) = {2.796345827091356, 3.575095661086018, 0};
Spline(18) = {12, p18 + 1, p18 + 2, p18 + 3, p18 + 4, p18 + 5, p18 + 6, p18 + 7, p18 + 8, p18 + 9, p18 + 10, p18 + 11, p18 + 12, p18 + 13, p18 + 14, p18 + 15, p18 + 16, p18 + 17, p18 + 18, p18 + 19, p18 + 20, p18 + 21, p18 + 22, p18 + 23, p18 + 24, p18 + 25, p18 + 26, p18 + 27, p18 + 28, p18 + 29, p18 + 30, p18 + 31, p18 + 32, p18 + 33, p18 + 34, p18 + 35, p18 + 36, p18 + 37, p18 + 38, p18 + 39, 12};
Line(19) = {14, 13};
Line(20) = {13, 15};
Line(21) = {16, 15};
Line(22) = {14, 16};
Line(23) = {14, 17};
Line(24) = {17, 18};
Line(25) = {13, 18};
Line(26) = {15, 19};
Line(27) = {18, 19};
Line(28) = {16, 20};
Line(29) = {20, 19};
Line(30) = {17, 20};
Curve Loop(7) = {-13, -14, 15, 14};
Surface(7) = {7};
Curve Loop(8) = {13};
Plane Surface(8) = {8};
Curve Loop(9) = {15};
Plane Surface(9) = {9};
Curve Loop(10) = {-16, -17, 18, 17};
Surface(10) = {10};
Curve Loop(11) = {16};
Plane Surface(11) = {11};
Curve Loop(12) = {18};
Plane Surface(12) = {12};
Curve Loop(13) = {-19, 22, 21, -20};
Plane Surface(13) = {13};
Curve Loop(14) = {-23, 19, 25, -24};
Plane Surface(14) = {14};
Curve Loop(15) = {-20, 25, 27, -26};
Plane Surface(15) = {15};
Curve Loop(16) = {-28, 21, 26, -29};
Plane Surface(16) = {16};
Curve Loop(17) = {-22, 23, 30, -28, -15, -18};
Plane Surface(17) = {17};
Curve Loop(18) = {-24, 30, 29, -27};
Plane Surface(18) = {18};
Surface Loop(1) = {13, 14, 15, 16, 17, 18, 7, 10, 8, 11};
Volume(1) = {1};
Surface Loop(2) = {7, 8, 9};
Volume(2) = {2};
Surface Loop(3) = {10, 11, 12};
Volume(3) = {3};
Physical Surface("WALLS") = {13, 18};
Physical Surface("LOAD") = {8, 11};
Physical Surface("BORDER") = {7, 9, 10, 12, 14, 15, 16, 17};
Physical Volume("SOLID") = {1, 2, 3};
