cl__1 = 0.08383699999999999;
cl__2 = 0.114731;
cl__3 = 0.799221;
cl__4 = 0.872072;
cl__5 = 1.82097;
cl__6 = 1.358636;
Point(9) = {10.563564, -0.7844510000000002, 0.1, cl__1};
Point(10) = {10.563564, -0.7844510000000002, 0, cl__1};
Point(11) = {21.701176, 2.486934, 0.1, cl__2};
Point(12) = {21.701176, 2.486934, 0, cl__2};
Point(13) = {0.172559, -4.051534, 1, cl__3};
Point(14) = {0.172559, -4.051534, 0, cl__3};
Point(15) = {0.172559, 4.54702, 1, cl__4};
Point(16) = {0.172559, 4.54702, 0, cl__4};
Point(17) = {34.377583, -4.051534, 0, cl__5};
Point(18) = {34.377583, -4.051534, 1, cl__5};
Point(19) = {34.377583, 4.54702, 1, cl__6};
Point(20) = {34.377583, 4.54702, 0, cl__6};
p13 = newp;
Point(p13 + 1) = {10.55324231103972, -0.6533015068476168, 0.1};
Point(p13 + 2) = {10.52253139839682, -0.5253813494768584, 0.1};
Point(p13 + 3) = {10.47218746666423, -0.4038403467048554, 0.1};
Point(p13 + 4) = {10.40345015052314, -0.2916712413913162, 0.1};
Point(p13 + 5) = {10.31801199082302, -0.1916360091769778, 0.1};
Point(p13 + 6) = {10.21797675860868, -0.1061978494768585, 0.1};
Point(p13 + 7) = {10.10580765329514, -0.03746053333577071, 0.1};
Point(p13 + 8) = {9.984266650523141, 0.01288339839681896, 0.1};
Point(p13 + 9) = {9.856346493152383, 0.04359431103972378, 0.1};
Point(p13 + 10) = {9.725197, 0.05391599999999996, 0.1};
Point(p13 + 11) = {9.594047506847616, 0.04359431103972378, 0.1};
Point(p13 + 12) = {9.466127349476858, 0.01288339839681907, 0.1};
Point(p13 + 13) = {9.344586346704855, -0.0374605333357706, 0.1};
Point(p13 + 14) = {9.232417241391316, -0.1061978494768585, 0.1};
Point(p13 + 15) = {9.132382009176977, -0.1916360091769777, 0.1};
Point(p13 + 16) = {9.046943849476857, -0.2916712413913161, 0.1};
Point(p13 + 17) = {8.97820653333577, -0.4038403467048554, 0.1};
Point(p13 + 18) = {8.927862601603181, -0.5253813494768584, 0.1};
Point(p13 + 19) = {8.897151688960276, -0.6533015068476167, 0.1};
Point(p13 + 20) = {8.88683, -0.7844509999999999, 0.1};
Point(p13 + 21) = {8.897151688960276, -0.9156004931523831, 0.1};
Point(p13 + 22) = {8.927862601603181, -1.043520650523142, 0.1};
Point(p13 + 23) = {8.97820653333577, -1.165061653295144, 0.1};
Point(p13 + 24) = {9.046943849476857, -1.277230758608684, 0.1};
Point(p13 + 25) = {9.132382009176977, -1.377265990823022, 0.1};
Point(p13 + 26) = {9.232417241391316, -1.462704150523142, 0.1};
Point(p13 + 27) = {9.344586346704855, -1.531441466664229, 0.1};
Point(p13 + 28) = {9.466127349476858, -1.581785398396819, 0.1};
Point(p13 + 29) = {9.594047506847616, -1.612496311039724, 0.1};
Point(p13 + 30) = {9.725197, -1.622818, 0.1};
Point(p13 + 31) = {9.856346493152383, -1.612496311039724, 0.1};
Point(p13 + 32) = {9.984266650523141, -1.581785398396819, 0.1};
Point(p13 + 33) = {10.10580765329514, -1.53144146666423, 0.1};
Point(p13 + 34) = {10.21797675860868, -1.462704150523142, 0.1};
Point(p13 + 35) = {10.31801199082302, -1.377265990823022, 0.1};
Point(p13 + 36) = {10.40345015052314, -1.277230758608684, 0.1};
Point(p13 + 37) = {10.47218746666423, -1.165061653295145, 0.1};
Point(p13 + 38) = {10.52253139839682, -1.043520650523142, 0.1};
Point(p13 + 39) = {10.55324231103972, -0.9156004931523835, 0.1};
Spline(13) = {9, p13 + 1, p13 + 2, p13 + 3, p13 + 4, p13 + 5, p13 + 6, p13 + 7, p13 + 8, p13 + 9, p13 + 10, p13 + 11, p13 + 12, p13 + 13, p13 + 14, p13 + 15, p13 + 16, p13 + 17, p13 + 18, p13 + 19, p13 + 20, p13 + 21, p13 + 22, p13 + 23, p13 + 24, p13 + 25, p13 + 26, p13 + 27, p13 + 28, p13 + 29, p13 + 30, p13 + 31, p13 + 32, p13 + 33, p13 + 34, p13 + 35, p13 + 36, p13 + 37, p13 + 38, p13 + 39, 9};
Line(14) = {10, 9};
p15 = newp;
Point(p15 + 1) = {10.55324231103972, -0.6533015068476168, 0};
Point(p15 + 2) = {10.52253139839682, -0.5253813494768584, 0};
Point(p15 + 3) = {10.47218746666423, -0.4038403467048554, 0};
Point(p15 + 4) = {10.40345015052314, -0.2916712413913162, 0};
Point(p15 + 5) = {10.31801199082302, -0.1916360091769778, 0};
Point(p15 + 6) = {10.21797675860868, -0.1061978494768585, 0};
Point(p15 + 7) = {10.10580765329514, -0.03746053333577071, 0};
Point(p15 + 8) = {9.984266650523141, 0.01288339839681896, 0};
Point(p15 + 9) = {9.856346493152383, 0.04359431103972378, 0};
Point(p15 + 10) = {9.725197, 0.05391599999999996, 0};
Point(p15 + 11) = {9.594047506847616, 0.04359431103972378, 0};
Point(p15 + 12) = {9.466127349476858, 0.01288339839681907, 0};
Point(p15 + 13) = {9.344586346704855, -0.0374605333357706, 0};
Point(p15 + 14) = {9.232417241391316, -0.1061978494768585, 0};
Point(p15 + 15) = {9.132382009176977, -0.1916360091769777, 0};
Point(p15 + 16) = {9.046943849476857, -0.2916712413913161, 0};
Point(p15 + 17) = {8.97820653333577, -0.4038403467048554, 0};
Point(p15 + 18) = {8.927862601603181, -0.5253813494768584, 0};
Point(p15 + 19) = {8.897151688960276, -0.6533015068476167, 0};
Point(p15 + 20) = {8.88683, -0.7844509999999999, 0};
Point(p15 + 21) = {8.897151688960276, -0.9156004931523831, 0};
Point(p15 + 22) = {8.927862601603181, -1.043520650523142, 0};
Point(p15 + 23) = {8.97820653333577, -1.165061653295144, 0};
Point(p15 + 24) = {9.046943849476857, -1.277230758608684, 0};
Point(p15 + 25) = {9.132382009176977, -1.377265990823022, 0};
Point(p15 + 26) = {9.232417241391316, -1.462704150523142, 0};
Point(p15 + 27) = {9.344586346704855, -1.531441466664229, 0};
Point(p15 + 28) = {9.466127349476858, -1.581785398396819, 0};
Point(p15 + 29) = {9.594047506847616, -1.612496311039724, 0};
Point(p15 + 30) = {9.725197, -1.622818, 0};
Point(p15 + 31) = {9.856346493152383, -1.612496311039724, 0};
Point(p15 + 32) = {9.984266650523141, -1.581785398396819, 0};
Point(p15 + 33) = {10.10580765329514, -1.53144146666423, 0};
Point(p15 + 34) = {10.21797675860868, -1.462704150523142, 0};
Point(p15 + 35) = {10.31801199082302, -1.377265990823022, 0};
Point(p15 + 36) = {10.40345015052314, -1.277230758608684, 0};
Point(p15 + 37) = {10.47218746666423, -1.165061653295145, 0};
Point(p15 + 38) = {10.52253139839682, -1.043520650523142, 0};
Point(p15 + 39) = {10.55324231103972, -0.9156004931523835, 0};
Spline(15) = {10, p15 + 1, p15 + 2, p15 + 3, p15 + 4, p15 + 5, p15 + 6, p15 + 7, p15 + 8, p15 + 9, p15 + 10, p15 + 11, p15 + 12, p15 + 13, p15 + 14, p15 + 15, p15 + 16, p15 + 17, p15 + 18, p15 + 19, p15 + 20, p15 + 21, p15 + 22, p15 + 23, p15 + 24, p15 + 25, p15 + 26, p15 + 27, p15 + 28, p15 + 29, p15 + 30, p15 + 31, p15 + 32, p15 + 33, p15 + 34, p15 + 35, p15 + 36, p15 + 37, p15 + 38, p15 + 39, 10};
p16 = newp;
Point(p16 + 1) = {21.6870507716065, 2.666412043912982, 0.1};
Point(p16 + 2) = {21.64502289642801, 2.841470742731349, 0.1};
Point(p16 + 3) = {21.57612724023394, 3.007799570303681, 0.1};
Point(p16 + 4) = {21.48206024273135, 3.161302958881416, 0.1};
Point(p16 + 5) = {21.36513814558923, 3.298201145589232, 0.1};
Point(p16 + 6) = {21.22823995888142, 3.415123242731349, 0.1};
Point(p16 + 7) = {21.07473657030368, 3.509190240233935, 0.1};
Point(p16 + 8) = {20.90840774273135, 3.578085896428012, 0.1};
Point(p16 + 9) = {20.73334904391298, 3.620113771606505, 0.1};
Point(p16 + 10) = {20.553871, 3.634239, 0.1};
Point(p16 + 11) = {20.37439295608702, 3.620113771606505, 0.1};
Point(p16 + 12) = {20.19933425726865, 3.578085896428012, 0.1};
Point(p16 + 13) = {20.03300542969632, 3.509190240233936, 0.1};
Point(p16 + 14) = {19.87950204111858, 3.415123242731349, 0.1};
Point(p16 + 15) = {19.74260385441077, 3.298201145589232, 0.1};
Point(p16 + 16) = {19.62568175726865, 3.161302958881416, 0.1};
Point(p16 + 17) = {19.53161475976606, 3.007799570303681, 0.1};
Point(p16 + 18) = {19.46271910357199, 2.841470742731349, 0.1};
Point(p16 + 19) = {19.4206912283935, 2.666412043912982, 0.1};
Point(p16 + 20) = {19.406566, 2.486934, 0.1};
Point(p16 + 21) = {19.4206912283935, 2.307455956087018, 0.1};
Point(p16 + 22) = {19.46271910357199, 2.132397257268651, 0.1};
Point(p16 + 23) = {19.53161475976606, 1.96606842969632, 0.1};
Point(p16 + 24) = {19.62568175726865, 1.812565041118584, 0.1};
Point(p16 + 25) = {19.74260385441077, 1.675666854410768, 0.1};
Point(p16 + 26) = {19.87950204111858, 1.558744757268651, 0.1};
Point(p16 + 27) = {20.03300542969632, 1.464677759766065, 0.1};
Point(p16 + 28) = {20.19933425726865, 1.395782103571989, 0.1};
Point(p16 + 29) = {20.37439295608702, 1.353754228393496, 0.1};
Point(p16 + 30) = {20.553871, 1.339629, 0.1};
Point(p16 + 31) = {20.73334904391298, 1.353754228393496, 0.1};
Point(p16 + 32) = {20.90840774273135, 1.395782103571989, 0.1};
Point(p16 + 33) = {21.07473657030368, 1.464677759766065, 0.1};
Point(p16 + 34) = {21.22823995888142, 1.558744757268651, 0.1};
Point(p16 + 35) = {21.36513814558923, 1.675666854410768, 0.1};
Point(p16 + 36) = {21.48206024273135, 1.812565041118584, 0.1};
Point(p16 + 37) = {21.57612724023394, 1.966068429696319, 0.1};
Point(p16 + 38) = {21.64502289642801, 2.132397257268651, 0.1};
Point(p16 + 39) = {21.6870507716065, 2.307455956087018, 0.1};
Spline(16) = {11, p16 + 1, p16 + 2, p16 + 3, p16 + 4, p16 + 5, p16 + 6, p16 + 7, p16 + 8, p16 + 9, p16 + 10, p16 + 11, p16 + 12, p16 + 13, p16 + 14, p16 + 15, p16 + 16, p16 + 17, p16 + 18, p16 + 19, p16 + 20, p16 + 21, p16 + 22, p16 + 23, p16 + 24, p16 + 25, p16 + 26, p16 + 27, p16 + 28, p16 + 29, p16 + 30, p16 + 31, p16 + 32, p16 + 33, p16 + 34, p16 + 35, p16 + 36, p16 + 37, p16 + 38, p16 + 39, 11};
Line(17) = {12, 11};
p18 = newp;
Point(p18 + 1) = {21.6870507716065, 2.666412043912982, 0};
Point(p18 + 2) = {21.64502289642801, 2.841470742731349, 0};
Point(p18 + 3) = {21.57612724023394, 3.007799570303681, 0};
Point(p18 + 4) = {21.48206024273135, 3.161302958881416, 0};
Point(p18 + 5) = {21.36513814558923, 3.298201145589232, 0};
Point(p18 + 6) = {21.22823995888142, 3.415123242731349, 0};
Point(p18 + 7) = {21.07473657030368, 3.509190240233935, 0};
Point(p18 + 8) = {20.90840774273135, 3.578085896428012, 0};
Point(p18 + 9) = {20.73334904391298, 3.620113771606505, 0};
Point(p18 + 10) = {20.553871, 3.634239, 0};
Point(p18 + 11) = {20.37439295608702, 3.620113771606505, 0};
Point(p18 + 12) = {20.19933425726865, 3.578085896428012, 0};
Point(p18 + 13) = {20.03300542969632, 3.509190240233936, 0};
Point(p18 + 14) = {19.87950204111858, 3.415123242731349, 0};
Point(p18 + 15) = {19.74260385441077, 3.298201145589232, 0};
Point(p18 + 16) = {19.62568175726865, 3.161302958881416, 0};
Point(p18 + 17) = {19.53161475976606, 3.007799570303681, 0};
Point(p18 + 18) = {19.46271910357199, 2.841470742731349, 0};
Point(p18 + 19) = {19.4206912283935, 2.666412043912982, 0};
Point(p18 + 20) = {19.406566, 2.486934, 0};
Point(p18 + 21) = {19.4206912283935, 2.307455956087018, 0};
Point(p18 + 22) = {19.46271910357199, 2.132397257268651, 0};
Point(p18 + 23) = {19.53161475976606, 1.96606842969632, 0};
Point(p18 + 24) = {19.62568175726865, 1.812565041118584, 0};
Point(p18 + 25) = {19.74260385441077, 1.675666854410768, 0};
Point(p18 + 26) = {19.87950204111858, 1.558744757268651, 0};
Point(p18 + 27) = {20.03300542969632, 1.464677759766065, 0};
Point(p18 + 28) = {20.19933425726865, 1.395782103571989, 0};
Point(p18 + 29) = {20.37439295608702, 1.353754228393496, 0};
Point(p18 + 30) = {20.553871, 1.339629, 0};
Point(p18 + 31) = {20.73334904391298, 1.353754228393496, 0};
Point(p18 + 32) = {20.90840774273135, 1.395782103571989, 0};
Point(p18 + 33) = {21.07473657030368, 1.464677759766065, 0};
Point(p18 + 34) = {21.22823995888142, 1.558744757268651, 0};
Point(p18 + 35) = {21.36513814558923, 1.675666854410768, 0};
Point(p18 + 36) = {21.48206024273135, 1.812565041118584, 0};
Point(p18 + 37) = {21.57612724023394, 1.966068429696319, 0};
Point(p18 + 38) = {21.64502289642801, 2.132397257268651, 0};
Point(p18 + 39) = {21.6870507716065, 2.307455956087018, 0};
Spline(18) = {12, p18 + 1, p18 + 2, p18 + 3, p18 + 4, p18 + 5, p18 + 6, p18 + 7, p18 + 8, p18 + 9, p18 + 10, p18 + 11, p18 + 12, p18 + 13, p18 + 14, p18 + 15, p18 + 16, p18 + 17, p18 + 18, p18 + 19, p18 + 20, p18 + 21, p18 + 22, p18 + 23, p18 + 24, p18 + 25, p18 + 26, p18 + 27, p18 + 28, p18 + 29, p18 + 30, p18 + 31, p18 + 32, p18 + 33, p18 + 34, p18 + 35, p18 + 36, p18 + 37, p18 + 38, p18 + 39, 12};
Line(19) = {14, 13};
Line(20) = {13, 15};
Line(21) = {16, 15};
Line(22) = {14, 16};
Line(23) = {14, 17};
Line(24) = {17, 18};
Line(25) = {13, 18};
Line(26) = {15, 19};
Line(27) = {18, 19};
Line(28) = {16, 20};
Line(29) = {20, 19};
Line(30) = {17, 20};
Curve Loop(7) = {-13, -14, 15, 14};
Surface(7) = {7};
Curve Loop(8) = {13};
Plane Surface(8) = {8};
Curve Loop(9) = {15};
Plane Surface(9) = {9};
Curve Loop(10) = {-16, -17, 18, 17};
Surface(10) = {10};
Curve Loop(11) = {16};
Plane Surface(11) = {11};
Curve Loop(12) = {18};
Plane Surface(12) = {12};
Curve Loop(13) = {-19, 22, 21, -20};
Plane Surface(13) = {13};
Curve Loop(14) = {-23, 19, 25, -24};
Plane Surface(14) = {14};
Curve Loop(15) = {-20, 25, 27, -26};
Plane Surface(15) = {15};
Curve Loop(16) = {-28, 21, 26, -29};
Plane Surface(16) = {16};
Curve Loop(17) = {-22, 23, 30, -28, -15, -18};
Plane Surface(17) = {17};
Curve Loop(18) = {-24, 30, 29, -27};
Plane Surface(18) = {18};
Surface Loop(1) = {13, 14, 15, 16, 17, 18, 7, 10, 8, 11};
Volume(1) = {1};
Surface Loop(2) = {7, 8, 9};
Volume(2) = {2};
Surface Loop(3) = {10, 11, 12};
Volume(3) = {3};
Physical Surface("WALLS") = {13, 18};
Physical Surface("LOAD") = {8, 11};
Physical Surface("BORDER") = {7, 9, 10, 12, 14, 15, 16, 17};
Physical Volume("SOLID") = {1, 2, 3};
