cl__1 = 0.105734;
cl__2 = 0.126544;
cl__3 = 5.813515;
cl__4 = 5.514683;
cl__5 = 0.159721;
cl__6 = 0.275439;
Point(9) = {29.901914, -1.794482, 0.1, cl__1};
Point(10) = {29.901914, -1.794482, 0, cl__1};
Point(11) = {28.931394, 2.232777, 0.1, cl__2};
Point(12) = {28.931394, 2.232777, 0, cl__2};
Point(13) = {0.995686, -3.940511, 1, cl__3};
Point(14) = {0.995686, -3.940511, 0, cl__3};
Point(15) = {0.995686, 5.892064, 1, cl__4};
Point(16) = {0.995686, 5.892064, 0, cl__4};
Point(17) = {31.451524, -3.940511, 0, cl__5};
Point(18) = {31.451524, -3.940511, 1, cl__5};
Point(19) = {31.451524, 5.892064, 1, cl__6};
Point(20) = {31.451524, 5.892064, 0, cl__6};
p13 = newp;
Point(p13 + 1) = {29.88889639004486, -1.629077582734362, 0.1};
Point(p13 + 2) = {29.85016409693952, -1.467745971167593, 0.1};
Point(p13 + 3) = {29.78667083828533, -1.314459685005388, 0.1};
Point(p13 + 4) = {29.69998002883241, -1.172993141341076, 0.1};
Point(p13 + 5) = {29.59222628401979, -1.046829715980216, 0.1};
Point(p13 + 6) = {29.46606285865893, -0.9390759711675931, 0.1};
Point(p13 + 7) = {29.32459631499461, -0.8523851617146712, 0.1};
Point(p13 + 8) = {29.17131002883241, -0.7888919030604824, 0.1};
Point(p13 + 9) = {29.00997841726564, -0.7501596099551371, 0.1};
Point(p13 + 10) = {28.844574, -0.737142, 0.1};
Point(p13 + 11) = {28.67916958273436, -0.7501596099551371, 0.1};
Point(p13 + 12) = {28.51783797116759, -0.7888919030604822, 0.1};
Point(p13 + 13) = {28.36455168500539, -0.852385161714671, 0.1};
Point(p13 + 14) = {28.22308514134108, -0.939075971167593, 0.1};
Point(p13 + 15) = {28.09692171598022, -1.046829715980216, 0.1};
Point(p13 + 16) = {27.9891679711676, -1.172993141341076, 0.1};
Point(p13 + 17) = {27.90247716171467, -1.314459685005387, 0.1};
Point(p13 + 18) = {27.83898390306048, -1.467745971167593, 0.1};
Point(p13 + 19) = {27.80025160995514, -1.629077582734362, 0.1};
Point(p13 + 20) = {27.787234, -1.794482, 0.1};
Point(p13 + 21) = {27.80025160995514, -1.959886417265638, 0.1};
Point(p13 + 22) = {27.83898390306048, -2.121218028832407, 0.1};
Point(p13 + 23) = {27.90247716171467, -2.274504314994612, 0.1};
Point(p13 + 24) = {27.9891679711676, -2.415970858658923, 0.1};
Point(p13 + 25) = {28.09692171598022, -2.542134284019784, 0.1};
Point(p13 + 26) = {28.22308514134108, -2.649888028832406, 0.1};
Point(p13 + 27) = {28.36455168500539, -2.736578838285329, 0.1};
Point(p13 + 28) = {28.51783797116759, -2.800072096939517, 0.1};
Point(p13 + 29) = {28.67916958273436, -2.838804390044863, 0.1};
Point(p13 + 30) = {28.844574, -2.851822, 0.1};
Point(p13 + 31) = {29.00997841726564, -2.838804390044863, 0.1};
Point(p13 + 32) = {29.17131002883241, -2.800072096939518, 0.1};
Point(p13 + 33) = {29.32459631499461, -2.736578838285329, 0.1};
Point(p13 + 34) = {29.46606285865893, -2.649888028832407, 0.1};
Point(p13 + 35) = {29.59222628401978, -2.542134284019784, 0.1};
Point(p13 + 36) = {29.69998002883241, -2.415970858658924, 0.1};
Point(p13 + 37) = {29.78667083828533, -2.274504314994612, 0.1};
Point(p13 + 38) = {29.85016409693952, -2.121218028832407, 0.1};
Point(p13 + 39) = {29.88889639004486, -1.959886417265638, 0.1};
Spline(13) = {9, p13 + 1, p13 + 2, p13 + 3, p13 + 4, p13 + 5, p13 + 6, p13 + 7, p13 + 8, p13 + 9, p13 + 10, p13 + 11, p13 + 12, p13 + 13, p13 + 14, p13 + 15, p13 + 16, p13 + 17, p13 + 18, p13 + 19, p13 + 20, p13 + 21, p13 + 22, p13 + 23, p13 + 24, p13 + 25, p13 + 26, p13 + 27, p13 + 28, p13 + 29, p13 + 30, p13 + 31, p13 + 32, p13 + 33, p13 + 34, p13 + 35, p13 + 36, p13 + 37, p13 + 38, p13 + 39, 9};
Line(14) = {10, 9};
p15 = newp;
Point(p15 + 1) = {29.88889639004486, -1.629077582734362, 0};
Point(p15 + 2) = {29.85016409693952, -1.467745971167593, 0};
Point(p15 + 3) = {29.78667083828533, -1.314459685005388, 0};
Point(p15 + 4) = {29.69998002883241, -1.172993141341076, 0};
Point(p15 + 5) = {29.59222628401979, -1.046829715980216, 0};
Point(p15 + 6) = {29.46606285865893, -0.9390759711675931, 0};
Point(p15 + 7) = {29.32459631499461, -0.8523851617146712, 0};
Point(p15 + 8) = {29.17131002883241, -0.7888919030604824, 0};
Point(p15 + 9) = {29.00997841726564, -0.7501596099551371, 0};
Point(p15 + 10) = {28.844574, -0.737142, 0};
Point(p15 + 11) = {28.67916958273436, -0.7501596099551371, 0};
Point(p15 + 12) = {28.51783797116759, -0.7888919030604822, 0};
Point(p15 + 13) = {28.36455168500539, -0.852385161714671, 0};
Point(p15 + 14) = {28.22308514134108, -0.939075971167593, 0};
Point(p15 + 15) = {28.09692171598022, -1.046829715980216, 0};
Point(p15 + 16) = {27.9891679711676, -1.172993141341076, 0};
Point(p15 + 17) = {27.90247716171467, -1.314459685005387, 0};
Point(p15 + 18) = {27.83898390306048, -1.467745971167593, 0};
Point(p15 + 19) = {27.80025160995514, -1.629077582734362, 0};
Point(p15 + 20) = {27.787234, -1.794482, 0};
Point(p15 + 21) = {27.80025160995514, -1.959886417265638, 0};
Point(p15 + 22) = {27.83898390306048, -2.121218028832407, 0};
Point(p15 + 23) = {27.90247716171467, -2.274504314994612, 0};
Point(p15 + 24) = {27.9891679711676, -2.415970858658923, 0};
Point(p15 + 25) = {28.09692171598022, -2.542134284019784, 0};
Point(p15 + 26) = {28.22308514134108, -2.649888028832406, 0};
Point(p15 + 27) = {28.36455168500539, -2.736578838285329, 0};
Point(p15 + 28) = {28.51783797116759, -2.800072096939517, 0};
Point(p15 + 29) = {28.67916958273436, -2.838804390044863, 0};
Point(p15 + 30) = {28.844574, -2.851822, 0};
Point(p15 + 31) = {29.00997841726564, -2.838804390044863, 0};
Point(p15 + 32) = {29.17131002883241, -2.800072096939518, 0};
Point(p15 + 33) = {29.32459631499461, -2.736578838285329, 0};
Point(p15 + 34) = {29.46606285865893, -2.649888028832407, 0};
Point(p15 + 35) = {29.59222628401978, -2.542134284019784, 0};
Point(p15 + 36) = {29.69998002883241, -2.415970858658924, 0};
Point(p15 + 37) = {29.78667083828533, -2.274504314994612, 0};
Point(p15 + 38) = {29.85016409693952, -2.121218028832407, 0};
Point(p15 + 39) = {29.88889639004486, -1.959886417265638, 0};
Spline(15) = {10, p15 + 1, p15 + 2, p15 + 3, p15 + 4, p15 + 5, p15 + 6, p15 + 7, p15 + 8, p15 + 9, p15 + 10, p15 + 11, p15 + 12, p15 + 13, p15 + 14, p15 + 15, p15 + 16, p15 + 17, p15 + 18, p15 + 19, p15 + 20, p15 + 21, p15 + 22, p15 + 23, p15 + 24, p15 + 25, p15 + 26, p15 + 27, p15 + 28, p15 + 29, p15 + 30, p15 + 31, p15 + 32, p15 + 33, p15 + 34, p15 + 35, p15 + 36, p15 + 37, p15 + 38, p15 + 39, 10};
p16 = newp;
Point(p16 + 1) = {28.91581439528101, 2.430734647268185, 0.1};
Point(p16 + 2) = {28.86945920269796, 2.623817920276862, 0.1};
Point(p16 + 3) = {28.79346984093631, 2.807272468037914, 0.1};
Point(p16 + 4) = {28.68971742027686, 2.976581030734726, 0.1};
Point(p16 + 5) = {28.5607566696508, 3.127574669650799, 0.1};
Point(p16 + 6) = {28.40976303073473, 3.256535420276862, 0.1};
Point(p16 + 7) = {28.24045446803791, 3.360287840936307, 0.1};
Point(p16 + 8) = {28.05699992027686, 3.436277202697958, 0.1};
Point(p16 + 9) = {27.86391664726819, 3.482632395281009, 0.1};
Point(p16 + 10) = {27.665959, 3.498212, 0.1};
Point(p16 + 11) = {27.46800135273181, 3.482632395281008, 0.1};
Point(p16 + 12) = {27.27491807972314, 3.436277202697958, 0.1};
Point(p16 + 13) = {27.09146353196209, 3.360287840936308, 0.1};
Point(p16 + 14) = {26.92215496926528, 3.256535420276862, 0.1};
Point(p16 + 15) = {26.7711613303492, 3.127574669650799, 0.1};
Point(p16 + 16) = {26.64220057972314, 2.976581030734726, 0.1};
Point(p16 + 17) = {26.53844815906369, 2.807272468037914, 0.1};
Point(p16 + 18) = {26.46245879730204, 2.623817920276862, 0.1};
Point(p16 + 19) = {26.41610360471899, 2.430734647268185, 0.1};
Point(p16 + 20) = {26.400524, 2.232777, 0.1};
Point(p16 + 21) = {26.41610360471899, 2.034819352731815, 0.1};
Point(p16 + 22) = {26.46245879730204, 1.841736079723138, 0.1};
Point(p16 + 23) = {26.53844815906369, 1.658281531962087, 0.1};
Point(p16 + 24) = {26.64220057972314, 1.488972969265274, 0.1};
Point(p16 + 25) = {26.7711613303492, 1.337979330349201, 0.1};
Point(p16 + 26) = {26.92215496926528, 1.209018579723139, 0.1};
Point(p16 + 27) = {27.09146353196209, 1.105266159063693, 0.1};
Point(p16 + 28) = {27.27491807972314, 1.029276797302042, 0.1};
Point(p16 + 29) = {27.46800135273181, 0.9829216047189919, 0.1};
Point(p16 + 30) = {27.665959, 0.9673419999999999, 0.1};
Point(p16 + 31) = {27.86391664726818, 0.9829216047189917, 0.1};
Point(p16 + 32) = {28.05699992027686, 1.029276797302042, 0.1};
Point(p16 + 33) = {28.24045446803791, 1.105266159063693, 0.1};
Point(p16 + 34) = {28.40976303073473, 1.209018579723138, 0.1};
Point(p16 + 35) = {28.5607566696508, 1.337979330349201, 0.1};
Point(p16 + 36) = {28.68971742027686, 1.488972969265274, 0.1};
Point(p16 + 37) = {28.79346984093631, 1.658281531962086, 0.1};
Point(p16 + 38) = {28.86945920269796, 1.841736079723138, 0.1};
Point(p16 + 39) = {28.91581439528101, 2.034819352731815, 0.1};
Spline(16) = {11, p16 + 1, p16 + 2, p16 + 3, p16 + 4, p16 + 5, p16 + 6, p16 + 7, p16 + 8, p16 + 9, p16 + 10, p16 + 11, p16 + 12, p16 + 13, p16 + 14, p16 + 15, p16 + 16, p16 + 17, p16 + 18, p16 + 19, p16 + 20, p16 + 21, p16 + 22, p16 + 23, p16 + 24, p16 + 25, p16 + 26, p16 + 27, p16 + 28, p16 + 29, p16 + 30, p16 + 31, p16 + 32, p16 + 33, p16 + 34, p16 + 35, p16 + 36, p16 + 37, p16 + 38, p16 + 39, 11};
Line(17) = {12, 11};
p18 = newp;
Point(p18 + 1) = {28.91581439528101, 2.430734647268185, 0};
Point(p18 + 2) = {28.86945920269796, 2.623817920276862, 0};
Point(p18 + 3) = {28.79346984093631, 2.807272468037914, 0};
Point(p18 + 4) = {28.68971742027686, 2.976581030734726, 0};
Point(p18 + 5) = {28.5607566696508, 3.127574669650799, 0};
Point(p18 + 6) = {28.40976303073473, 3.256535420276862, 0};
Point(p18 + 7) = {28.24045446803791, 3.360287840936307, 0};
Point(p18 + 8) = {28.05699992027686, 3.436277202697958, 0};
Point(p18 + 9) = {27.86391664726819, 3.482632395281009, 0};
Point(p18 + 10) = {27.665959, 3.498212, 0};
Point(p18 + 11) = {27.46800135273181, 3.482632395281008, 0};
Point(p18 + 12) = {27.27491807972314, 3.436277202697958, 0};
Point(p18 + 13) = {27.09146353196209, 3.360287840936308, 0};
Point(p18 + 14) = {26.92215496926528, 3.256535420276862, 0};
Point(p18 + 15) = {26.7711613303492, 3.127574669650799, 0};
Point(p18 + 16) = {26.64220057972314, 2.976581030734726, 0};
Point(p18 + 17) = {26.53844815906369, 2.807272468037914, 0};
Point(p18 + 18) = {26.46245879730204, 2.623817920276862, 0};
Point(p18 + 19) = {26.41610360471899, 2.430734647268185, 0};
Point(p18 + 20) = {26.400524, 2.232777, 0};
Point(p18 + 21) = {26.41610360471899, 2.034819352731815, 0};
Point(p18 + 22) = {26.46245879730204, 1.841736079723138, 0};
Point(p18 + 23) = {26.53844815906369, 1.658281531962087, 0};
Point(p18 + 24) = {26.64220057972314, 1.488972969265274, 0};
Point(p18 + 25) = {26.7711613303492, 1.337979330349201, 0};
Point(p18 + 26) = {26.92215496926528, 1.209018579723139, 0};
Point(p18 + 27) = {27.09146353196209, 1.105266159063693, 0};
Point(p18 + 28) = {27.27491807972314, 1.029276797302042, 0};
Point(p18 + 29) = {27.46800135273181, 0.9829216047189919, 0};
Point(p18 + 30) = {27.665959, 0.9673419999999999, 0};
Point(p18 + 31) = {27.86391664726818, 0.9829216047189917, 0};
Point(p18 + 32) = {28.05699992027686, 1.029276797302042, 0};
Point(p18 + 33) = {28.24045446803791, 1.105266159063693, 0};
Point(p18 + 34) = {28.40976303073473, 1.209018579723138, 0};
Point(p18 + 35) = {28.5607566696508, 1.337979330349201, 0};
Point(p18 + 36) = {28.68971742027686, 1.488972969265274, 0};
Point(p18 + 37) = {28.79346984093631, 1.658281531962086, 0};
Point(p18 + 38) = {28.86945920269796, 1.841736079723138, 0};
Point(p18 + 39) = {28.91581439528101, 2.034819352731815, 0};
Spline(18) = {12, p18 + 1, p18 + 2, p18 + 3, p18 + 4, p18 + 5, p18 + 6, p18 + 7, p18 + 8, p18 + 9, p18 + 10, p18 + 11, p18 + 12, p18 + 13, p18 + 14, p18 + 15, p18 + 16, p18 + 17, p18 + 18, p18 + 19, p18 + 20, p18 + 21, p18 + 22, p18 + 23, p18 + 24, p18 + 25, p18 + 26, p18 + 27, p18 + 28, p18 + 29, p18 + 30, p18 + 31, p18 + 32, p18 + 33, p18 + 34, p18 + 35, p18 + 36, p18 + 37, p18 + 38, p18 + 39, 12};
Line(19) = {14, 13};
Line(20) = {13, 15};
Line(21) = {16, 15};
Line(22) = {14, 16};
Line(23) = {14, 17};
Line(24) = {17, 18};
Line(25) = {13, 18};
Line(26) = {15, 19};
Line(27) = {18, 19};
Line(28) = {16, 20};
Line(29) = {20, 19};
Line(30) = {17, 20};
Curve Loop(7) = {-13, -14, 15, 14};
Surface(7) = {7};
Curve Loop(8) = {13};
Plane Surface(8) = {8};
Curve Loop(9) = {15};
Plane Surface(9) = {9};
Curve Loop(10) = {-16, -17, 18, 17};
Surface(10) = {10};
Curve Loop(11) = {16};
Plane Surface(11) = {11};
Curve Loop(12) = {18};
Plane Surface(12) = {12};
Curve Loop(13) = {-19, 22, 21, -20};
Plane Surface(13) = {13};
Curve Loop(14) = {-23, 19, 25, -24};
Plane Surface(14) = {14};
Curve Loop(15) = {-20, 25, 27, -26};
Plane Surface(15) = {15};
Curve Loop(16) = {-28, 21, 26, -29};
Plane Surface(16) = {16};
Curve Loop(17) = {-22, 23, 30, -28, -15, -18};
Plane Surface(17) = {17};
Curve Loop(18) = {-24, 30, 29, -27};
Plane Surface(18) = {18};
Surface Loop(1) = {13, 14, 15, 16, 17, 18, 7, 10, 8, 11};
Volume(1) = {1};
Surface Loop(2) = {7, 8, 9};
Volume(2) = {2};
Surface Loop(3) = {10, 11, 12};
Volume(3) = {3};
Physical Surface("WALLS") = {13, 18};
Physical Surface("LOAD") = {8, 11};
Physical Surface("BORDER") = {7, 9, 10, 12, 14, 15, 16, 17};
Physical Volume("SOLID") = {1, 2, 3};
