cl__1 = 0.111835;
cl__2 = 0.120088;
cl__3 = 2.506551;
cl__4 = 2.273189;
cl__5 = 0.679935;
cl__6 = 0.646814;
Point(9) = {17.253719, 1.29872, 0.1, cl__1};
Point(10) = {17.253719, 1.29872, 0, cl__1};
Point(11) = {24.007389, 0.7861599999999996, 0.1, cl__2};
Point(12) = {24.007389, 0.7861599999999996, 0, cl__2};
Point(13) = {0.630217, -4.158598, 1, cl__3};
Point(14) = {0.630217, -4.158598, 0, cl__3};
Point(15) = {0.630217, 5.024649, 1, cl__4};
Point(16) = {0.630217, 5.024649, 0, cl__4};
Point(17) = {30.168909, -4.158598, 0, cl__5};
Point(18) = {30.168909, -4.158598, 1, cl__5};
Point(19) = {30.168909, 5.024649, 1, cl__6};
Point(20) = {30.168909, 5.024649, 0, cl__6};
p13 = newp;
Point(p13 + 1) = {17.23995026801623, 1.473668327543277, 0.1};
Point(p13 + 2) = {17.19898310394217, 1.644308846642228, 0.1};
Point(p13 + 3) = {17.13182625531954, 1.806439821393222, 0.1};
Point(p13 + 4) = {17.04013334664223, 1.956069049116035, 0.1};
Point(p13 + 5) = {16.9261621616332, 2.089512161633194, 0.1};
Point(p13 + 6) = {16.79271904911604, 2.203483346642228, 0.1};
Point(p13 + 7) = {16.64308982139323, 2.295176255319537, 0.1};
Point(p13 + 8) = {16.48095884664223, 2.362333103942169, 0.1};
Point(p13 + 9) = {16.31031832754328, 2.403300268016232, 0.1};
Point(p13 + 10) = {16.13537, 2.417069, 0.1};
Point(p13 + 11) = {15.96042167245673, 2.403300268016232, 0.1};
Point(p13 + 12) = {15.78978115335777, 2.362333103942169, 0.1};
Point(p13 + 13) = {15.62765017860678, 2.295176255319537, 0.1};
Point(p13 + 14) = {15.47802095088397, 2.203483346642228, 0.1};
Point(p13 + 15) = {15.34457783836681, 2.089512161633194, 0.1};
Point(p13 + 16) = {15.23060665335777, 1.956069049116035, 0.1};
Point(p13 + 17) = {15.13891374468047, 1.806439821393222, 0.1};
Point(p13 + 18) = {15.07175689605783, 1.644308846642228, 0.1};
Point(p13 + 19) = {15.03078973198377, 1.473668327543277, 0.1};
Point(p13 + 20) = {15.017021, 1.29872, 0.1};
Point(p13 + 21) = {15.03078973198377, 1.123771672456723, 0.1};
Point(p13 + 22) = {15.07175689605783, 0.9531311533577717, 0.1};
Point(p13 + 23) = {15.13891374468047, 0.7910001786067782, 0.1};
Point(p13 + 24) = {15.23060665335777, 0.6413709508839651, 0.1};
Point(p13 + 25) = {15.34457783836681, 0.5079278383668059, 0.1};
Point(p13 + 26) = {15.47802095088397, 0.3939566533577721, 0.1};
Point(p13 + 27) = {15.62765017860678, 0.3022637446804631, 0.1};
Point(p13 + 28) = {15.78978115335777, 0.2351068960578313, 0.1};
Point(p13 + 29) = {15.96042167245673, 0.1941397319837685, 0.1};
Point(p13 + 30) = {16.13537, 0.1803710000000001, 0.1};
Point(p13 + 31) = {16.31031832754328, 0.1941397319837683, 0.1};
Point(p13 + 32) = {16.48095884664223, 0.2351068960578313, 0.1};
Point(p13 + 33) = {16.64308982139323, 0.3022637446804629, 0.1};
Point(p13 + 34) = {16.79271904911604, 0.3939566533577719, 0.1};
Point(p13 + 35) = {16.9261621616332, 0.5079278383668057, 0.1};
Point(p13 + 36) = {17.04013334664223, 0.6413709508839649, 0.1};
Point(p13 + 37) = {17.13182625531954, 0.7910001786067775, 0.1};
Point(p13 + 38) = {17.19898310394217, 0.9531311533577718, 0.1};
Point(p13 + 39) = {17.23995026801623, 1.123771672456723, 0.1};
Spline(13) = {9, p13 + 1, p13 + 2, p13 + 3, p13 + 4, p13 + 5, p13 + 6, p13 + 7, p13 + 8, p13 + 9, p13 + 10, p13 + 11, p13 + 12, p13 + 13, p13 + 14, p13 + 15, p13 + 16, p13 + 17, p13 + 18, p13 + 19, p13 + 20, p13 + 21, p13 + 22, p13 + 23, p13 + 24, p13 + 25, p13 + 26, p13 + 27, p13 + 28, p13 + 29, p13 + 30, p13 + 31, p13 + 32, p13 + 33, p13 + 34, p13 + 35, p13 + 36, p13 + 37, p13 + 38, p13 + 39, 9};
Line(14) = {10, 9};
p15 = newp;
Point(p15 + 1) = {17.23995026801623, 1.473668327543277, 0};
Point(p15 + 2) = {17.19898310394217, 1.644308846642228, 0};
Point(p15 + 3) = {17.13182625531954, 1.806439821393222, 0};
Point(p15 + 4) = {17.04013334664223, 1.956069049116035, 0};
Point(p15 + 5) = {16.9261621616332, 2.089512161633194, 0};
Point(p15 + 6) = {16.79271904911604, 2.203483346642228, 0};
Point(p15 + 7) = {16.64308982139323, 2.295176255319537, 0};
Point(p15 + 8) = {16.48095884664223, 2.362333103942169, 0};
Point(p15 + 9) = {16.31031832754328, 2.403300268016232, 0};
Point(p15 + 10) = {16.13537, 2.417069, 0};
Point(p15 + 11) = {15.96042167245673, 2.403300268016232, 0};
Point(p15 + 12) = {15.78978115335777, 2.362333103942169, 0};
Point(p15 + 13) = {15.62765017860678, 2.295176255319537, 0};
Point(p15 + 14) = {15.47802095088397, 2.203483346642228, 0};
Point(p15 + 15) = {15.34457783836681, 2.089512161633194, 0};
Point(p15 + 16) = {15.23060665335777, 1.956069049116035, 0};
Point(p15 + 17) = {15.13891374468047, 1.806439821393222, 0};
Point(p15 + 18) = {15.07175689605783, 1.644308846642228, 0};
Point(p15 + 19) = {15.03078973198377, 1.473668327543277, 0};
Point(p15 + 20) = {15.017021, 1.29872, 0};
Point(p15 + 21) = {15.03078973198377, 1.123771672456723, 0};
Point(p15 + 22) = {15.07175689605783, 0.9531311533577717, 0};
Point(p15 + 23) = {15.13891374468047, 0.7910001786067782, 0};
Point(p15 + 24) = {15.23060665335777, 0.6413709508839651, 0};
Point(p15 + 25) = {15.34457783836681, 0.5079278383668059, 0};
Point(p15 + 26) = {15.47802095088397, 0.3939566533577721, 0};
Point(p15 + 27) = {15.62765017860678, 0.3022637446804631, 0};
Point(p15 + 28) = {15.78978115335777, 0.2351068960578313, 0};
Point(p15 + 29) = {15.96042167245673, 0.1941397319837685, 0};
Point(p15 + 30) = {16.13537, 0.1803710000000001, 0};
Point(p15 + 31) = {16.31031832754328, 0.1941397319837683, 0};
Point(p15 + 32) = {16.48095884664223, 0.2351068960578313, 0};
Point(p15 + 33) = {16.64308982139323, 0.3022637446804629, 0};
Point(p15 + 34) = {16.79271904911604, 0.3939566533577719, 0};
Point(p15 + 35) = {16.9261621616332, 0.5079278383668057, 0};
Point(p15 + 36) = {17.04013334664223, 0.6413709508839649, 0};
Point(p15 + 37) = {17.13182625531954, 0.7910001786067775, 0};
Point(p15 + 38) = {17.19898310394217, 0.9531311533577718, 0};
Point(p15 + 39) = {17.23995026801623, 1.123771672456723, 0};
Spline(15) = {10, p15 + 1, p15 + 2, p15 + 3, p15 + 4, p15 + 5, p15 + 6, p15 + 7, p15 + 8, p15 + 9, p15 + 10, p15 + 11, p15 + 12, p15 + 13, p15 + 14, p15 + 15, p15 + 16, p15 + 17, p15 + 18, p15 + 19, p15 + 20, p15 + 21, p15 + 22, p15 + 23, p15 + 24, p15 + 25, p15 + 26, p15 + 27, p15 + 28, p15 + 29, p15 + 30, p15 + 31, p15 + 32, p15 + 33, p15 + 34, p15 + 35, p15 + 36, p15 + 37, p15 + 38, p15 + 39, 10};
p16 = newp;
Point(p16 + 1) = {23.99260414983057, 0.9740193332464425, 0.1};
Point(p16 + 2) = {23.94861365140155, 1.157252946238976, 0.1};
Point(p16 + 3) = {23.87650069678038, 1.331349019308226, 0.1};
Point(p16 + 4) = {23.77804094623897, 1.49202072934349, 0.1};
Point(p16 + 5) = {23.65565880560486, 1.635311805604863, 0.1};
Point(p16 + 6) = {23.51236772934349, 1.757693946238975, 0.1};
Point(p16 + 7) = {23.35169601930822, 1.856153696780376, 0.1};
Point(p16 + 8) = {23.17759994623897, 1.928266651401557, 0.1};
Point(p16 + 9) = {22.99436633324644, 1.97225714983057, 0.1};
Point(p16 + 10) = {22.806507, 1.987042, 0.1};
Point(p16 + 11) = {22.61864766675356, 1.97225714983057, 0.1};
Point(p16 + 12) = {22.43541405376103, 1.928266651401557, 0.1};
Point(p16 + 13) = {22.26131798069177, 1.856153696780376, 0.1};
Point(p16 + 14) = {22.10064627065651, 1.757693946238976, 0.1};
Point(p16 + 15) = {21.95735519439514, 1.635311805604863, 0.1};
Point(p16 + 16) = {21.83497305376103, 1.49202072934349, 0.1};
Point(p16 + 17) = {21.73651330321962, 1.331349019308226, 0.1};
Point(p16 + 18) = {21.66440034859844, 1.157252946238976, 0.1};
Point(p16 + 19) = {21.62040985016943, 0.9740193332464426, 0.1};
Point(p16 + 20) = {21.605625, 0.7861600000000001, 0.1};
Point(p16 + 21) = {21.62040985016943, 0.5983006667535575, 0.1};
Point(p16 + 22) = {21.66440034859844, 0.415067053761024, 0.1};
Point(p16 + 23) = {21.73651330321962, 0.2409709806917741, 0.1};
Point(p16 + 24) = {21.83497305376103, 0.08029927065651032, 0.1};
Point(p16 + 25) = {21.95735519439513, -0.0629918056048635, 0.1};
Point(p16 + 26) = {22.10064627065651, -0.1853739462389755, 0.1};
Point(p16 + 27) = {22.26131798069177, -0.2838336967803756, 0.1};
Point(p16 + 28) = {22.43541405376103, -0.3559466514015566, 0.1};
Point(p16 + 29) = {22.61864766675356, -0.3999371498305702, 0.1};
Point(p16 + 30) = {22.806507, -0.414722, 0.1};
Point(p16 + 31) = {22.99436633324644, -0.3999371498305702, 0.1};
Point(p16 + 32) = {23.17759994623897, -0.3559466514015568, 0.1};
Point(p16 + 33) = {23.35169601930822, -0.2838336967803758, 0.1};
Point(p16 + 34) = {23.51236772934349, -0.1853739462389759, 0.1};
Point(p16 + 35) = {23.65565880560486, -0.06299180560486384, 0.1};
Point(p16 + 36) = {23.77804094623897, 0.0802992706565101, 0.1};
Point(p16 + 37) = {23.87650069678038, 0.2409709806917734, 0.1};
Point(p16 + 38) = {23.94861365140155, 0.4150670537610241, 0.1};
Point(p16 + 39) = {23.99260414983057, 0.5983006667535571, 0.1};
Spline(16) = {11, p16 + 1, p16 + 2, p16 + 3, p16 + 4, p16 + 5, p16 + 6, p16 + 7, p16 + 8, p16 + 9, p16 + 10, p16 + 11, p16 + 12, p16 + 13, p16 + 14, p16 + 15, p16 + 16, p16 + 17, p16 + 18, p16 + 19, p16 + 20, p16 + 21, p16 + 22, p16 + 23, p16 + 24, p16 + 25, p16 + 26, p16 + 27, p16 + 28, p16 + 29, p16 + 30, p16 + 31, p16 + 32, p16 + 33, p16 + 34, p16 + 35, p16 + 36, p16 + 37, p16 + 38, p16 + 39, 11};
Line(17) = {12, 11};
p18 = newp;
Point(p18 + 1) = {23.99260414983057, 0.9740193332464425, 0};
Point(p18 + 2) = {23.94861365140155, 1.157252946238976, 0};
Point(p18 + 3) = {23.87650069678038, 1.331349019308226, 0};
Point(p18 + 4) = {23.77804094623897, 1.49202072934349, 0};
Point(p18 + 5) = {23.65565880560486, 1.635311805604863, 0};
Point(p18 + 6) = {23.51236772934349, 1.757693946238975, 0};
Point(p18 + 7) = {23.35169601930822, 1.856153696780376, 0};
Point(p18 + 8) = {23.17759994623897, 1.928266651401557, 0};
Point(p18 + 9) = {22.99436633324644, 1.97225714983057, 0};
Point(p18 + 10) = {22.806507, 1.987042, 0};
Point(p18 + 11) = {22.61864766675356, 1.97225714983057, 0};
Point(p18 + 12) = {22.43541405376103, 1.928266651401557, 0};
Point(p18 + 13) = {22.26131798069177, 1.856153696780376, 0};
Point(p18 + 14) = {22.10064627065651, 1.757693946238976, 0};
Point(p18 + 15) = {21.95735519439514, 1.635311805604863, 0};
Point(p18 + 16) = {21.83497305376103, 1.49202072934349, 0};
Point(p18 + 17) = {21.73651330321962, 1.331349019308226, 0};
Point(p18 + 18) = {21.66440034859844, 1.157252946238976, 0};
Point(p18 + 19) = {21.62040985016943, 0.9740193332464426, 0};
Point(p18 + 20) = {21.605625, 0.7861600000000001, 0};
Point(p18 + 21) = {21.62040985016943, 0.5983006667535575, 0};
Point(p18 + 22) = {21.66440034859844, 0.415067053761024, 0};
Point(p18 + 23) = {21.73651330321962, 0.2409709806917741, 0};
Point(p18 + 24) = {21.83497305376103, 0.08029927065651032, 0};
Point(p18 + 25) = {21.95735519439513, -0.0629918056048635, 0};
Point(p18 + 26) = {22.10064627065651, -0.1853739462389755, 0};
Point(p18 + 27) = {22.26131798069177, -0.2838336967803756, 0};
Point(p18 + 28) = {22.43541405376103, -0.3559466514015566, 0};
Point(p18 + 29) = {22.61864766675356, -0.3999371498305702, 0};
Point(p18 + 30) = {22.806507, -0.414722, 0};
Point(p18 + 31) = {22.99436633324644, -0.3999371498305702, 0};
Point(p18 + 32) = {23.17759994623897, -0.3559466514015568, 0};
Point(p18 + 33) = {23.35169601930822, -0.2838336967803758, 0};
Point(p18 + 34) = {23.51236772934349, -0.1853739462389759, 0};
Point(p18 + 35) = {23.65565880560486, -0.06299180560486384, 0};
Point(p18 + 36) = {23.77804094623897, 0.0802992706565101, 0};
Point(p18 + 37) = {23.87650069678038, 0.2409709806917734, 0};
Point(p18 + 38) = {23.94861365140155, 0.4150670537610241, 0};
Point(p18 + 39) = {23.99260414983057, 0.5983006667535571, 0};
Spline(18) = {12, p18 + 1, p18 + 2, p18 + 3, p18 + 4, p18 + 5, p18 + 6, p18 + 7, p18 + 8, p18 + 9, p18 + 10, p18 + 11, p18 + 12, p18 + 13, p18 + 14, p18 + 15, p18 + 16, p18 + 17, p18 + 18, p18 + 19, p18 + 20, p18 + 21, p18 + 22, p18 + 23, p18 + 24, p18 + 25, p18 + 26, p18 + 27, p18 + 28, p18 + 29, p18 + 30, p18 + 31, p18 + 32, p18 + 33, p18 + 34, p18 + 35, p18 + 36, p18 + 37, p18 + 38, p18 + 39, 12};
Line(19) = {14, 13};
Line(20) = {13, 15};
Line(21) = {16, 15};
Line(22) = {14, 16};
Line(23) = {14, 17};
Line(24) = {17, 18};
Line(25) = {13, 18};
Line(26) = {15, 19};
Line(27) = {18, 19};
Line(28) = {16, 20};
Line(29) = {20, 19};
Line(30) = {17, 20};
Curve Loop(7) = {-13, -14, 15, 14};
Surface(7) = {7};
Curve Loop(8) = {13};
Plane Surface(8) = {8};
Curve Loop(9) = {15};
Plane Surface(9) = {9};
Curve Loop(10) = {-16, -17, 18, 17};
Surface(10) = {10};
Curve Loop(11) = {16};
Plane Surface(11) = {11};
Curve Loop(12) = {18};
Plane Surface(12) = {12};
Curve Loop(13) = {-19, 22, 21, -20};
Plane Surface(13) = {13};
Curve Loop(14) = {-23, 19, 25, -24};
Plane Surface(14) = {14};
Curve Loop(15) = {-20, 25, 27, -26};
Plane Surface(15) = {15};
Curve Loop(16) = {-28, 21, 26, -29};
Plane Surface(16) = {16};
Curve Loop(17) = {-22, 23, 30, -28, -18, -15};
Plane Surface(17) = {17};
Curve Loop(18) = {-24, 30, 29, -27};
Plane Surface(18) = {18};
Surface Loop(1) = {13, 14, 15, 16, 17, 18, 10, 7, 11, 8};
Volume(1) = {1};
Surface Loop(2) = {7, 8, 9};
Volume(2) = {2};
Surface Loop(3) = {10, 11, 12};
Volume(3) = {3};
Physical Surface("WALLS") = {13, 18};
Physical Surface("LOAD") = {8, 11};
Physical Surface("BORDER") = {7, 9, 10, 12, 14, 15, 16, 17};
Physical Volume("SOLID") = {1, 2, 3};
