cl__1 = 0.054644;
cl__2 = 0.067385;
cl__3 = 0.658694;
cl__4 = 0.641429;
cl__5 = 2.424861;
cl__6 = 2.495551;
Point(9) = {16.371806, -0.3450280000000001, 0.1, cl__1};
Point(10) = {16.371806, -0.3450280000000001, 0, cl__1};
Point(11) = {9.546113999999999, 0.3373719999999998, 0.1, cl__2};
Point(12) = {9.546113999999999, 0.3373719999999998, 0, cl__2};
Point(13) = {0.487642, -3.740649, 1, cl__3};
Point(14) = {0.487642, -3.740649, 0, cl__3};
Point(15) = {0.487642, 3.866372, 1, cl__4};
Point(16) = {0.487642, 3.866372, 0, cl__4};
Point(17) = {33.694352, -3.740649, 0, cl__5};
Point(18) = {33.694352, -3.740649, 1, cl__5};
Point(19) = {33.694352, 3.866372, 1, cl__6};
Point(20) = {33.694352, 3.866372, 0, cl__6};
p13 = newp;
Point(p13 + 1) = {16.36507845376979, -0.2595464202268114, 0.1};
Point(p13 + 2) = {16.34506146959477, -0.1761696806447369, 0.1};
Point(p13 + 3) = {16.31224793205792, -0.09695079329382131, 0.1};
Point(p13 + 4) = {16.26744581935526, -0.02384039009305788, 0.1};
Point(p13 + 5) = {16.21175830819123, 0.0413613081912334, 0.1};
Point(p13 + 6) = {16.14655660990694, 0.09704881935526305, 0.1};
Point(p13 + 7) = {16.07344620670618, 0.1418509320579191, 0.1};
Point(p13 + 8) = {15.99422731935526, 0.1746644695947748, 0.1};
Point(p13 + 9) = {15.91085057977319, 0.1946814537697853, 0.1};
Point(p13 + 10) = {15.825369, 0.2014089999999999, 0.1};
Point(p13 + 11) = {15.73988742022681, 0.1946814537697852, 0.1};
Point(p13 + 12) = {15.65651068064474, 0.1746644695947748, 0.1};
Point(p13 + 13) = {15.57729179329382, 0.1418509320579192, 0.1};
Point(p13 + 14) = {15.50418139009306, 0.09704881935526311, 0.1};
Point(p13 + 15) = {15.43897969180877, 0.04136130819123346, 0.1};
Point(p13 + 16) = {15.38329218064474, -0.02384039009305783, 0.1};
Point(p13 + 17) = {15.33849006794208, -0.09695079329382125, 0.1};
Point(p13 + 18) = {15.30567653040523, -0.1761696806447368, 0.1};
Point(p13 + 19) = {15.28565954623022, -0.2595464202268113, 0.1};
Point(p13 + 20) = {15.278932, -0.3450279999999999, 0.1};
Point(p13 + 21) = {15.28565954623022, -0.4305095797731886, 0.1};
Point(p13 + 22) = {15.30567653040523, -0.5138863193552633, 0.1};
Point(p13 + 23) = {15.33849006794208, -0.5931052067061784, 0.1};
Point(p13 + 24) = {15.38329218064474, -0.6662156099069421, 0.1};
Point(p13 + 25) = {15.43897969180877, -0.7314173081912334, 0.1};
Point(p13 + 26) = {15.50418139009306, -0.787104819355263, 0.1};
Point(p13 + 27) = {15.57729179329382, -0.8319069320579191, 0.1};
Point(p13 + 28) = {15.65651068064474, -0.8647204695947748, 0.1};
Point(p13 + 29) = {15.73988742022681, -0.8847374537697852, 0.1};
Point(p13 + 30) = {15.825369, -0.891465, 0.1};
Point(p13 + 31) = {15.91085057977319, -0.8847374537697853, 0.1};
Point(p13 + 32) = {15.99422731935526, -0.8647204695947748, 0.1};
Point(p13 + 33) = {16.07344620670618, -0.8319069320579192, 0.1};
Point(p13 + 34) = {16.14655660990694, -0.7871048193552632, 0.1};
Point(p13 + 35) = {16.21175830819123, -0.7314173081912335, 0.1};
Point(p13 + 36) = {16.26744581935526, -0.6662156099069422, 0.1};
Point(p13 + 37) = {16.31224793205792, -0.5931052067061788, 0.1};
Point(p13 + 38) = {16.34506146959477, -0.5138863193552632, 0.1};
Point(p13 + 39) = {16.36507845376979, -0.4305095797731888, 0.1};
Spline(13) = {9, p13 + 1, p13 + 2, p13 + 3, p13 + 4, p13 + 5, p13 + 6, p13 + 7, p13 + 8, p13 + 9, p13 + 10, p13 + 11, p13 + 12, p13 + 13, p13 + 14, p13 + 15, p13 + 16, p13 + 17, p13 + 18, p13 + 19, p13 + 20, p13 + 21, p13 + 22, p13 + 23, p13 + 24, p13 + 25, p13 + 26, p13 + 27, p13 + 28, p13 + 29, p13 + 30, p13 + 31, p13 + 32, p13 + 33, p13 + 34, p13 + 35, p13 + 36, p13 + 37, p13 + 38, p13 + 39, 9};
Line(14) = {10, 9};
p15 = newp;
Point(p15 + 1) = {16.36507845376979, -0.2595464202268114, 0};
Point(p15 + 2) = {16.34506146959477, -0.1761696806447369, 0};
Point(p15 + 3) = {16.31224793205792, -0.09695079329382131, 0};
Point(p15 + 4) = {16.26744581935526, -0.02384039009305788, 0};
Point(p15 + 5) = {16.21175830819123, 0.0413613081912334, 0};
Point(p15 + 6) = {16.14655660990694, 0.09704881935526305, 0};
Point(p15 + 7) = {16.07344620670618, 0.1418509320579191, 0};
Point(p15 + 8) = {15.99422731935526, 0.1746644695947748, 0};
Point(p15 + 9) = {15.91085057977319, 0.1946814537697853, 0};
Point(p15 + 10) = {15.825369, 0.2014089999999999, 0};
Point(p15 + 11) = {15.73988742022681, 0.1946814537697852, 0};
Point(p15 + 12) = {15.65651068064474, 0.1746644695947748, 0};
Point(p15 + 13) = {15.57729179329382, 0.1418509320579192, 0};
Point(p15 + 14) = {15.50418139009306, 0.09704881935526311, 0};
Point(p15 + 15) = {15.43897969180877, 0.04136130819123346, 0};
Point(p15 + 16) = {15.38329218064474, -0.02384039009305783, 0};
Point(p15 + 17) = {15.33849006794208, -0.09695079329382125, 0};
Point(p15 + 18) = {15.30567653040523, -0.1761696806447368, 0};
Point(p15 + 19) = {15.28565954623022, -0.2595464202268113, 0};
Point(p15 + 20) = {15.278932, -0.3450279999999999, 0};
Point(p15 + 21) = {15.28565954623022, -0.4305095797731886, 0};
Point(p15 + 22) = {15.30567653040523, -0.5138863193552633, 0};
Point(p15 + 23) = {15.33849006794208, -0.5931052067061784, 0};
Point(p15 + 24) = {15.38329218064474, -0.6662156099069421, 0};
Point(p15 + 25) = {15.43897969180877, -0.7314173081912334, 0};
Point(p15 + 26) = {15.50418139009306, -0.787104819355263, 0};
Point(p15 + 27) = {15.57729179329382, -0.8319069320579191, 0};
Point(p15 + 28) = {15.65651068064474, -0.8647204695947748, 0};
Point(p15 + 29) = {15.73988742022681, -0.8847374537697852, 0};
Point(p15 + 30) = {15.825369, -0.891465, 0};
Point(p15 + 31) = {15.91085057977319, -0.8847374537697853, 0};
Point(p15 + 32) = {15.99422731935526, -0.8647204695947748, 0};
Point(p15 + 33) = {16.07344620670618, -0.8319069320579192, 0};
Point(p15 + 34) = {16.14655660990694, -0.7871048193552632, 0};
Point(p15 + 35) = {16.21175830819123, -0.7314173081912335, 0};
Point(p15 + 36) = {16.26744581935526, -0.6662156099069422, 0};
Point(p15 + 37) = {16.31224793205792, -0.5931052067061788, 0};
Point(p15 + 38) = {16.34506146959477, -0.5138863193552632, 0};
Point(p15 + 39) = {16.36507845376979, -0.4305095797731888, 0};
Spline(15) = {10, p15 + 1, p15 + 2, p15 + 3, p15 + 4, p15 + 5, p15 + 6, p15 + 7, p15 + 8, p15 + 9, p15 + 10, p15 + 11, p15 + 12, p15 + 13, p15 + 14, p15 + 15, p15 + 16, p15 + 17, p15 + 18, p15 + 19, p15 + 20, p15 + 21, p15 + 22, p15 + 23, p15 + 24, p15 + 25, p15 + 26, p15 + 27, p15 + 28, p15 + 29, p15 + 30, p15 + 31, p15 + 32, p15 + 33, p15 + 34, p15 + 35, p15 + 36, p15 + 37, p15 + 38, p15 + 39, 10};
p16 = newp;
Point(p16 + 1) = {9.537817788310033, 0.4427853642673596, 0.1};
Point(p16 + 2) = {9.513133433505489, 0.5456031016595583, 0.1};
Point(p16 + 3) = {9.472668746324331, 0.6432934982494936, 0.1};
Point(p16 + 4) = {9.417420101659557, 0.733451092257283, 0.1};
Point(p16 + 5) = {9.348747904502554, 0.813855904502555, 0.1};
Point(p16 + 6) = {9.268343092257282, 0.8825281016595582, 0.1};
Point(p16 + 7) = {9.178185498249492, 0.9377767463243316, 0.1};
Point(p16 + 8) = {9.080495101659558, 0.9782414335054892, 0.1};
Point(p16 + 9) = {8.977677364267359, 1.002925788310034, 0.1};
Point(p16 + 10) = {8.872263999999999, 1.011222, 0.1};
Point(p16 + 11) = {8.76685063573264, 1.002925788310034, 0.1};
Point(p16 + 12) = {8.664032898340441, 0.9782414335054892, 0.1};
Point(p16 + 13) = {8.566342501750507, 0.9377767463243317, 0.1};
Point(p16 + 14) = {8.476184907742716, 0.8825281016595583, 0.1};
Point(p16 + 15) = {8.395780095497445, 0.8138559045025551, 0.1};
Point(p16 + 16) = {8.327107898340442, 0.733451092257283, 0.1};
Point(p16 + 17) = {8.271859253675668, 0.6432934982494936, 0.1};
Point(p16 + 18) = {8.23139456649451, 0.5456031016595584, 0.1};
Point(p16 + 19) = {8.206710211689966, 0.4427853642673596, 0.1};
Point(p16 + 20) = {8.198414, 0.3373720000000001, 0.1};
Point(p16 + 21) = {8.206710211689966, 0.2319586357326405, 0.1};
Point(p16 + 22) = {8.23139456649451, 0.1291408983404415, 0.1};
Point(p16 + 23) = {8.271859253675668, 0.03145050175050673, 0.1};
Point(p16 + 24) = {8.327107898340442, -0.05870709225728293, 0.1};
Point(p16 + 25) = {8.395780095497445, -0.139111904502555, 0.1};
Point(p16 + 26) = {8.476184907742716, -0.2077841016595582, 0.1};
Point(p16 + 27) = {8.566342501750507, -0.2630327463243316, 0.1};
Point(p16 + 28) = {8.664032898340441, -0.3034974335054892, 0.1};
Point(p16 + 29) = {8.76685063573264, -0.3281817883100334, 0.1};
Point(p16 + 30) = {8.872263999999999, -0.3364779999999999, 0.1};
Point(p16 + 31) = {8.977677364267359, -0.3281817883100335, 0.1};
Point(p16 + 32) = {9.080495101659558, -0.3034974335054892, 0.1};
Point(p16 + 33) = {9.178185498249492, -0.2630327463243317, 0.1};
Point(p16 + 34) = {9.268343092257282, -0.2077841016595584, 0.1};
Point(p16 + 35) = {9.348747904502554, -0.1391119045025551, 0.1};
Point(p16 + 36) = {9.417420101659557, -0.05870709225728304, 0.1};
Point(p16 + 37) = {9.472668746324331, 0.03145050175050629, 0.1};
Point(p16 + 38) = {9.513133433505489, 0.1291408983404416, 0.1};
Point(p16 + 39) = {9.537817788310033, 0.2319586357326403, 0.1};
Spline(16) = {11, p16 + 1, p16 + 2, p16 + 3, p16 + 4, p16 + 5, p16 + 6, p16 + 7, p16 + 8, p16 + 9, p16 + 10, p16 + 11, p16 + 12, p16 + 13, p16 + 14, p16 + 15, p16 + 16, p16 + 17, p16 + 18, p16 + 19, p16 + 20, p16 + 21, p16 + 22, p16 + 23, p16 + 24, p16 + 25, p16 + 26, p16 + 27, p16 + 28, p16 + 29, p16 + 30, p16 + 31, p16 + 32, p16 + 33, p16 + 34, p16 + 35, p16 + 36, p16 + 37, p16 + 38, p16 + 39, 11};
Line(17) = {12, 11};
p18 = newp;
Point(p18 + 1) = {9.537817788310033, 0.4427853642673596, 0};
Point(p18 + 2) = {9.513133433505489, 0.5456031016595583, 0};
Point(p18 + 3) = {9.472668746324331, 0.6432934982494936, 0};
Point(p18 + 4) = {9.417420101659557, 0.733451092257283, 0};
Point(p18 + 5) = {9.348747904502554, 0.813855904502555, 0};
Point(p18 + 6) = {9.268343092257282, 0.8825281016595582, 0};
Point(p18 + 7) = {9.178185498249492, 0.9377767463243316, 0};
Point(p18 + 8) = {9.080495101659558, 0.9782414335054892, 0};
Point(p18 + 9) = {8.977677364267359, 1.002925788310034, 0};
Point(p18 + 10) = {8.872263999999999, 1.011222, 0};
Point(p18 + 11) = {8.76685063573264, 1.002925788310034, 0};
Point(p18 + 12) = {8.664032898340441, 0.9782414335054892, 0};
Point(p18 + 13) = {8.566342501750507, 0.9377767463243317, 0};
Point(p18 + 14) = {8.476184907742716, 0.8825281016595583, 0};
Point(p18 + 15) = {8.395780095497445, 0.8138559045025551, 0};
Point(p18 + 16) = {8.327107898340442, 0.733451092257283, 0};
Point(p18 + 17) = {8.271859253675668, 0.6432934982494936, 0};
Point(p18 + 18) = {8.23139456649451, 0.5456031016595584, 0};
Point(p18 + 19) = {8.206710211689966, 0.4427853642673596, 0};
Point(p18 + 20) = {8.198414, 0.3373720000000001, 0};
Point(p18 + 21) = {8.206710211689966, 0.2319586357326405, 0};
Point(p18 + 22) = {8.23139456649451, 0.1291408983404415, 0};
Point(p18 + 23) = {8.271859253675668, 0.03145050175050673, 0};
Point(p18 + 24) = {8.327107898340442, -0.05870709225728293, 0};
Point(p18 + 25) = {8.395780095497445, -0.139111904502555, 0};
Point(p18 + 26) = {8.476184907742716, -0.2077841016595582, 0};
Point(p18 + 27) = {8.566342501750507, -0.2630327463243316, 0};
Point(p18 + 28) = {8.664032898340441, -0.3034974335054892, 0};
Point(p18 + 29) = {8.76685063573264, -0.3281817883100334, 0};
Point(p18 + 30) = {8.872263999999999, -0.3364779999999999, 0};
Point(p18 + 31) = {8.977677364267359, -0.3281817883100335, 0};
Point(p18 + 32) = {9.080495101659558, -0.3034974335054892, 0};
Point(p18 + 33) = {9.178185498249492, -0.2630327463243317, 0};
Point(p18 + 34) = {9.268343092257282, -0.2077841016595584, 0};
Point(p18 + 35) = {9.348747904502554, -0.1391119045025551, 0};
Point(p18 + 36) = {9.417420101659557, -0.05870709225728304, 0};
Point(p18 + 37) = {9.472668746324331, 0.03145050175050629, 0};
Point(p18 + 38) = {9.513133433505489, 0.1291408983404416, 0};
Point(p18 + 39) = {9.537817788310033, 0.2319586357326403, 0};
Spline(18) = {12, p18 + 1, p18 + 2, p18 + 3, p18 + 4, p18 + 5, p18 + 6, p18 + 7, p18 + 8, p18 + 9, p18 + 10, p18 + 11, p18 + 12, p18 + 13, p18 + 14, p18 + 15, p18 + 16, p18 + 17, p18 + 18, p18 + 19, p18 + 20, p18 + 21, p18 + 22, p18 + 23, p18 + 24, p18 + 25, p18 + 26, p18 + 27, p18 + 28, p18 + 29, p18 + 30, p18 + 31, p18 + 32, p18 + 33, p18 + 34, p18 + 35, p18 + 36, p18 + 37, p18 + 38, p18 + 39, 12};
Line(19) = {14, 13};
Line(20) = {13, 15};
Line(21) = {16, 15};
Line(22) = {14, 16};
Line(23) = {14, 17};
Line(24) = {17, 18};
Line(25) = {13, 18};
Line(26) = {15, 19};
Line(27) = {18, 19};
Line(28) = {16, 20};
Line(29) = {20, 19};
Line(30) = {17, 20};
Curve Loop(7) = {-13, -14, 15, 14};
Surface(7) = {7};
Curve Loop(8) = {13};
Plane Surface(8) = {8};
Curve Loop(9) = {15};
Plane Surface(9) = {9};
Curve Loop(10) = {-16, -17, 18, 17};
Surface(10) = {10};
Curve Loop(11) = {16};
Plane Surface(11) = {11};
Curve Loop(12) = {18};
Plane Surface(12) = {12};
Curve Loop(13) = {-19, 22, 21, -20};
Plane Surface(13) = {13};
Curve Loop(14) = {-23, 19, 25, -24};
Plane Surface(14) = {14};
Curve Loop(15) = {-20, 25, 27, -26};
Plane Surface(15) = {15};
Curve Loop(16) = {-28, 21, 26, -29};
Plane Surface(16) = {16};
Curve Loop(17) = {-22, 23, 30, -28, -15, -18};
Plane Surface(17) = {17};
Curve Loop(18) = {-24, 30, 29, -27};
Plane Surface(18) = {18};
Surface Loop(1) = {13, 14, 15, 16, 17, 18, 7, 10, 8, 11};
Volume(1) = {1};
Surface Loop(2) = {7, 8, 9};
Volume(2) = {2};
Surface Loop(3) = {10, 11, 12};
Volume(3) = {3};
Physical Surface("WALLS") = {13, 18};
Physical Surface("LOAD") = {8, 11};
Physical Surface("BORDER") = {7, 9, 10, 12, 14, 15, 16, 17};
Physical Volume("SOLID") = {1, 2, 3};
