cl__1 = 0.100952;
cl__2 = 0.055457;
cl__3 = 0.996351;
cl__4 = 1.109136;
cl__5 = 0.883507;
cl__6 = 1.277331;
Point(9) = {12.616664, 0.1623339999999998, 0.1, cl__1};
Point(10) = {12.616664, 0.1623339999999998, 0, cl__1};
Point(11) = {29.330785, -1.869975, 0.1, cl__2};
Point(12) = {29.330785, -1.869975, 0, cl__2};
Point(13) = {0.7789700000000001, -3.882531, 1, cl__3};
Point(14) = {0.7789700000000001, -3.882531, 0, cl__3};
Point(15) = {0.7789700000000001, 5.263482, 1, cl__4};
Point(16) = {0.7789700000000001, 5.263482, 0, cl__4};
Point(17) = {38.478921, -3.882531, 0, cl__5};
Point(18) = {38.478921, -3.882531, 1, cl__5};
Point(19) = {38.478921, 5.263482, 1, cl__6};
Point(20) = {38.478921, 5.263482, 0, cl__6};
p13 = newp;
Point(p13 + 1) = {12.60423509666263, 0.3202581904508089, 0.1};
Point(p13 + 2) = {12.56725442749983, 0.47429376321238, 0.1};
Point(p13 + 3) = {12.50663257931821, 0.6206478512685665, 0.1};
Point(p13 + 4) = {12.42386226321238, 0.7557167312500543, 0.1};
Point(p13 + 5) = {12.32098155906379, 0.8761745590637869, 0.1};
Point(p13 + 6) = {12.20052373125005, 0.9790552632123799, 0.1};
Point(p13 + 7) = {12.06545485126857, 1.061825579318214, 0.1};
Point(p13 + 8) = {11.91910076321238, 1.122447427499832, 0.1};
Point(p13 + 9) = {11.76506519045081, 1.159428096662625, 0.1};
Point(p13 + 10) = {11.607141, 1.171857, 0.1};
Point(p13 + 11) = {11.44921680954919, 1.159428096662625, 0.1};
Point(p13 + 12) = {11.29518123678762, 1.122447427499832, 0.1};
Point(p13 + 13) = {11.14882714873143, 1.061825579318214, 0.1};
Point(p13 + 14) = {11.01375826874995, 0.97905526321238, 0.1};
Point(p13 + 15) = {10.89330044093621, 0.8761745590637871, 0.1};
Point(p13 + 16) = {10.79041973678762, 0.7557167312500545, 0.1};
Point(p13 + 17) = {10.70764942068179, 0.6206478512685666, 0.1};
Point(p13 + 18) = {10.64702757250017, 0.4742937632123801, 0.1};
Point(p13 + 19) = {10.61004690333738, 0.3202581904508091, 0.1};
Point(p13 + 20) = {10.597618, 0.1623340000000001, 0.1};
Point(p13 + 21) = {10.61004690333738, 0.004409809549191152, 0.1};
Point(p13 + 22) = {10.64702757250017, -0.1496257632123803, 0.1};
Point(p13 + 23) = {10.70764942068179, -0.295979851268566, 0.1};
Point(p13 + 24) = {10.79041973678762, -0.4310487312500543, 0.1};
Point(p13 + 25) = {10.89330044093621, -0.551506559063787, 0.1};
Point(p13 + 26) = {11.01375826874995, -0.6543872632123799, 0.1};
Point(p13 + 27) = {11.14882714873143, -0.7371575793182136, 0.1};
Point(p13 + 28) = {11.29518123678762, -0.7977794274998322, 0.1};
Point(p13 + 29) = {11.44921680954919, -0.8347600966626251, 0.1};
Point(p13 + 30) = {11.607141, -0.847189, 0.1};
Point(p13 + 31) = {11.76506519045081, -0.8347600966626252, 0.1};
Point(p13 + 32) = {11.91910076321238, -0.7977794274998323, 0.1};
Point(p13 + 33) = {12.06545485126857, -0.7371575793182138, 0.1};
Point(p13 + 34) = {12.20052373125005, -0.6543872632123802, 0.1};
Point(p13 + 35) = {12.32098155906379, -0.5515065590637872, 0.1};
Point(p13 + 36) = {12.42386226321238, -0.4310487312500545, 0.1};
Point(p13 + 37) = {12.50663257931821, -0.2959798512685666, 0.1};
Point(p13 + 38) = {12.56725442749983, -0.1496257632123802, 0.1};
Point(p13 + 39) = {12.60423509666263, 0.004409809549190763, 0.1};
Spline(13) = {9, p13 + 1, p13 + 2, p13 + 3, p13 + 4, p13 + 5, p13 + 6, p13 + 7, p13 + 8, p13 + 9, p13 + 10, p13 + 11, p13 + 12, p13 + 13, p13 + 14, p13 + 15, p13 + 16, p13 + 17, p13 + 18, p13 + 19, p13 + 20, p13 + 21, p13 + 22, p13 + 23, p13 + 24, p13 + 25, p13 + 26, p13 + 27, p13 + 28, p13 + 29, p13 + 30, p13 + 31, p13 + 32, p13 + 33, p13 + 34, p13 + 35, p13 + 36, p13 + 37, p13 + 38, p13 + 39, 9};
Line(14) = {10, 9};
p15 = newp;
Point(p15 + 1) = {12.60423509666263, 0.3202581904508089, 0};
Point(p15 + 2) = {12.56725442749983, 0.47429376321238, 0};
Point(p15 + 3) = {12.50663257931821, 0.6206478512685665, 0};
Point(p15 + 4) = {12.42386226321238, 0.7557167312500543, 0};
Point(p15 + 5) = {12.32098155906379, 0.8761745590637869, 0};
Point(p15 + 6) = {12.20052373125005, 0.9790552632123799, 0};
Point(p15 + 7) = {12.06545485126857, 1.061825579318214, 0};
Point(p15 + 8) = {11.91910076321238, 1.122447427499832, 0};
Point(p15 + 9) = {11.76506519045081, 1.159428096662625, 0};
Point(p15 + 10) = {11.607141, 1.171857, 0};
Point(p15 + 11) = {11.44921680954919, 1.159428096662625, 0};
Point(p15 + 12) = {11.29518123678762, 1.122447427499832, 0};
Point(p15 + 13) = {11.14882714873143, 1.061825579318214, 0};
Point(p15 + 14) = {11.01375826874995, 0.97905526321238, 0};
Point(p15 + 15) = {10.89330044093621, 0.8761745590637871, 0};
Point(p15 + 16) = {10.79041973678762, 0.7557167312500545, 0};
Point(p15 + 17) = {10.70764942068179, 0.6206478512685666, 0};
Point(p15 + 18) = {10.64702757250017, 0.4742937632123801, 0};
Point(p15 + 19) = {10.61004690333738, 0.3202581904508091, 0};
Point(p15 + 20) = {10.597618, 0.1623340000000001, 0};
Point(p15 + 21) = {10.61004690333738, 0.004409809549191152, 0};
Point(p15 + 22) = {10.64702757250017, -0.1496257632123803, 0};
Point(p15 + 23) = {10.70764942068179, -0.295979851268566, 0};
Point(p15 + 24) = {10.79041973678762, -0.4310487312500543, 0};
Point(p15 + 25) = {10.89330044093621, -0.551506559063787, 0};
Point(p15 + 26) = {11.01375826874995, -0.6543872632123799, 0};
Point(p15 + 27) = {11.14882714873143, -0.7371575793182136, 0};
Point(p15 + 28) = {11.29518123678762, -0.7977794274998322, 0};
Point(p15 + 29) = {11.44921680954919, -0.8347600966626251, 0};
Point(p15 + 30) = {11.607141, -0.847189, 0};
Point(p15 + 31) = {11.76506519045081, -0.8347600966626252, 0};
Point(p15 + 32) = {11.91910076321238, -0.7977794274998323, 0};
Point(p15 + 33) = {12.06545485126857, -0.7371575793182138, 0};
Point(p15 + 34) = {12.20052373125005, -0.6543872632123802, 0};
Point(p15 + 35) = {12.32098155906379, -0.5515065590637872, 0};
Point(p15 + 36) = {12.42386226321238, -0.4310487312500545, 0};
Point(p15 + 37) = {12.50663257931821, -0.2959798512685666, 0};
Point(p15 + 38) = {12.56725442749983, -0.1496257632123802, 0};
Point(p15 + 39) = {12.60423509666263, 0.004409809549190763, 0};
Spline(15) = {10, p15 + 1, p15 + 2, p15 + 3, p15 + 4, p15 + 5, p15 + 6, p15 + 7, p15 + 8, p15 + 9, p15 + 10, p15 + 11, p15 + 12, p15 + 13, p15 + 14, p15 + 15, p15 + 16, p15 + 17, p15 + 18, p15 + 19, p15 + 20, p15 + 21, p15 + 22, p15 + 23, p15 + 24, p15 + 25, p15 + 26, p15 + 27, p15 + 28, p15 + 29, p15 + 30, p15 + 31, p15 + 32, p15 + 33, p15 + 34, p15 + 35, p15 + 36, p15 + 37, p15 + 38, p15 + 39, 10};
p16 = newp;
Point(p16 + 1) = {29.32395733535551, -1.783221295157104, 0.1};
Point(p16 + 2) = {29.30364246118529, -1.69860375444648, 0.1};
Point(p16 + 3) = {29.27034059711262, -1.618205942549939, 0.1};
Point(p16 + 4) = {29.22487174555352, -1.544007520421415, 0.1};
Point(p16 + 5) = {29.16835550053585, -1.477835499464158, 0.1};
Point(p16 + 6) = {29.10218347957858, -1.42131925444648, 0.1};
Point(p16 + 7) = {29.02798505745006, -1.375850402887381, 0.1};
Point(p16 + 8) = {28.94758724555352, -1.342548538814713, 0.1};
Point(p16 + 9) = {28.8629697048429, -1.322233664644495, 0.1};
Point(p16 + 10) = {28.776216, -1.315406, 0.1};
Point(p16 + 11) = {28.68946229515711, -1.322233664644495, 0.1};
Point(p16 + 12) = {28.60484475444648, -1.342548538814713, 0.1};
Point(p16 + 13) = {28.52444694254994, -1.375850402887381, 0.1};
Point(p16 + 14) = {28.45024852042142, -1.42131925444648, 0.1};
Point(p16 + 15) = {28.38407649946416, -1.477835499464157, 0.1};
Point(p16 + 16) = {28.32756025444648, -1.544007520421415, 0.1};
Point(p16 + 17) = {28.28209140288738, -1.618205942549939, 0.1};
Point(p16 + 18) = {28.24878953881472, -1.69860375444648, 0.1};
Point(p16 + 19) = {28.2284746646445, -1.783221295157104, 0.1};
Point(p16 + 20) = {28.221647, -1.869975, 0.1};
Point(p16 + 21) = {28.2284746646445, -1.956728704842896, 0.1};
Point(p16 + 22) = {28.24878953881472, -2.041346245553521, 0.1};
Point(p16 + 23) = {28.28209140288738, -2.12174405745006, 0.1};
Point(p16 + 24) = {28.32756025444648, -2.195942479578584, 0.1};
Point(p16 + 25) = {28.38407649946416, -2.262114500535843, 0.1};
Point(p16 + 26) = {28.45024852042142, -2.31863074555352, 0.1};
Point(p16 + 27) = {28.52444694254994, -2.364099597112619, 0.1};
Point(p16 + 28) = {28.60484475444648, -2.397401461185287, 0.1};
Point(p16 + 29) = {28.68946229515711, -2.417716335355505, 0.1};
Point(p16 + 30) = {28.776216, -2.424544, 0.1};
Point(p16 + 31) = {28.8629697048429, -2.417716335355505, 0.1};
Point(p16 + 32) = {28.94758724555352, -2.397401461185287, 0.1};
Point(p16 + 33) = {29.02798505745006, -2.364099597112619, 0.1};
Point(p16 + 34) = {29.10218347957858, -2.31863074555352, 0.1};
Point(p16 + 35) = {29.16835550053585, -2.262114500535843, 0.1};
Point(p16 + 36) = {29.22487174555352, -2.195942479578584, 0.1};
Point(p16 + 37) = {29.27034059711262, -2.121744057450061, 0.1};
Point(p16 + 38) = {29.30364246118529, -2.04134624555352, 0.1};
Point(p16 + 39) = {29.32395733535551, -1.956728704842896, 0.1};
Spline(16) = {11, p16 + 1, p16 + 2, p16 + 3, p16 + 4, p16 + 5, p16 + 6, p16 + 7, p16 + 8, p16 + 9, p16 + 10, p16 + 11, p16 + 12, p16 + 13, p16 + 14, p16 + 15, p16 + 16, p16 + 17, p16 + 18, p16 + 19, p16 + 20, p16 + 21, p16 + 22, p16 + 23, p16 + 24, p16 + 25, p16 + 26, p16 + 27, p16 + 28, p16 + 29, p16 + 30, p16 + 31, p16 + 32, p16 + 33, p16 + 34, p16 + 35, p16 + 36, p16 + 37, p16 + 38, p16 + 39, 11};
Line(17) = {12, 11};
p18 = newp;
Point(p18 + 1) = {29.32395733535551, -1.783221295157104, 0};
Point(p18 + 2) = {29.30364246118529, -1.69860375444648, 0};
Point(p18 + 3) = {29.27034059711262, -1.618205942549939, 0};
Point(p18 + 4) = {29.22487174555352, -1.544007520421415, 0};
Point(p18 + 5) = {29.16835550053585, -1.477835499464158, 0};
Point(p18 + 6) = {29.10218347957858, -1.42131925444648, 0};
Point(p18 + 7) = {29.02798505745006, -1.375850402887381, 0};
Point(p18 + 8) = {28.94758724555352, -1.342548538814713, 0};
Point(p18 + 9) = {28.8629697048429, -1.322233664644495, 0};
Point(p18 + 10) = {28.776216, -1.315406, 0};
Point(p18 + 11) = {28.68946229515711, -1.322233664644495, 0};
Point(p18 + 12) = {28.60484475444648, -1.342548538814713, 0};
Point(p18 + 13) = {28.52444694254994, -1.375850402887381, 0};
Point(p18 + 14) = {28.45024852042142, -1.42131925444648, 0};
Point(p18 + 15) = {28.38407649946416, -1.477835499464157, 0};
Point(p18 + 16) = {28.32756025444648, -1.544007520421415, 0};
Point(p18 + 17) = {28.28209140288738, -1.618205942549939, 0};
Point(p18 + 18) = {28.24878953881472, -1.69860375444648, 0};
Point(p18 + 19) = {28.2284746646445, -1.783221295157104, 0};
Point(p18 + 20) = {28.221647, -1.869975, 0};
Point(p18 + 21) = {28.2284746646445, -1.956728704842896, 0};
Point(p18 + 22) = {28.24878953881472, -2.041346245553521, 0};
Point(p18 + 23) = {28.28209140288738, -2.12174405745006, 0};
Point(p18 + 24) = {28.32756025444648, -2.195942479578584, 0};
Point(p18 + 25) = {28.38407649946416, -2.262114500535843, 0};
Point(p18 + 26) = {28.45024852042142, -2.31863074555352, 0};
Point(p18 + 27) = {28.52444694254994, -2.364099597112619, 0};
Point(p18 + 28) = {28.60484475444648, -2.397401461185287, 0};
Point(p18 + 29) = {28.68946229515711, -2.417716335355505, 0};
Point(p18 + 30) = {28.776216, -2.424544, 0};
Point(p18 + 31) = {28.8629697048429, -2.417716335355505, 0};
Point(p18 + 32) = {28.94758724555352, -2.397401461185287, 0};
Point(p18 + 33) = {29.02798505745006, -2.364099597112619, 0};
Point(p18 + 34) = {29.10218347957858, -2.31863074555352, 0};
Point(p18 + 35) = {29.16835550053585, -2.262114500535843, 0};
Point(p18 + 36) = {29.22487174555352, -2.195942479578584, 0};
Point(p18 + 37) = {29.27034059711262, -2.121744057450061, 0};
Point(p18 + 38) = {29.30364246118529, -2.04134624555352, 0};
Point(p18 + 39) = {29.32395733535551, -1.956728704842896, 0};
Spline(18) = {12, p18 + 1, p18 + 2, p18 + 3, p18 + 4, p18 + 5, p18 + 6, p18 + 7, p18 + 8, p18 + 9, p18 + 10, p18 + 11, p18 + 12, p18 + 13, p18 + 14, p18 + 15, p18 + 16, p18 + 17, p18 + 18, p18 + 19, p18 + 20, p18 + 21, p18 + 22, p18 + 23, p18 + 24, p18 + 25, p18 + 26, p18 + 27, p18 + 28, p18 + 29, p18 + 30, p18 + 31, p18 + 32, p18 + 33, p18 + 34, p18 + 35, p18 + 36, p18 + 37, p18 + 38, p18 + 39, 12};
Line(19) = {14, 13};
Line(20) = {13, 15};
Line(21) = {16, 15};
Line(22) = {14, 16};
Line(23) = {14, 17};
Line(24) = {17, 18};
Line(25) = {13, 18};
Line(26) = {15, 19};
Line(27) = {18, 19};
Line(28) = {16, 20};
Line(29) = {20, 19};
Line(30) = {17, 20};
Curve Loop(7) = {-13, -14, 15, 14};
Surface(7) = {7};
Curve Loop(8) = {13};
Plane Surface(8) = {8};
Curve Loop(9) = {15};
Plane Surface(9) = {9};
Curve Loop(10) = {-16, -17, 18, 17};
Surface(10) = {10};
Curve Loop(11) = {16};
Plane Surface(11) = {11};
Curve Loop(12) = {18};
Plane Surface(12) = {12};
Curve Loop(13) = {-19, 22, 21, -20};
Plane Surface(13) = {13};
Curve Loop(14) = {-23, 19, 25, -24};
Plane Surface(14) = {14};
Curve Loop(15) = {-20, 25, 27, -26};
Plane Surface(15) = {15};
Curve Loop(16) = {-28, 21, 26, -29};
Plane Surface(16) = {16};
Curve Loop(17) = {-22, 23, 30, -28, -18, -15};
Plane Surface(17) = {17};
Curve Loop(18) = {-24, 30, 29, -27};
Plane Surface(18) = {18};
Surface Loop(1) = {13, 14, 15, 16, 17, 18, 10, 7, 11, 8};
Volume(1) = {1};
Surface Loop(2) = {7, 8, 9};
Volume(2) = {2};
Surface Loop(3) = {10, 11, 12};
Volume(3) = {3};
Physical Surface("WALLS") = {13, 18};
Physical Surface("LOAD") = {8, 11};
Physical Surface("BORDER") = {7, 9, 10, 12, 14, 15, 16, 17};
Physical Volume("SOLID") = {1, 2, 3};
