cl__1 = 0.080928;
cl__2 = 0.079566;
cl__3 = 1.328668;
cl__4 = 1.6301;
cl__5 = 0.772827;
cl__6 = 0.95092;
Point(9) = {24.661334, -1.920907, 0.1, cl__1};
Point(10) = {24.661334, -1.920907, 0, cl__1};
Point(11) = {14.329451, -0.9389120000000002, 0.1, cl__2};
Point(12) = {14.329451, -0.9389120000000002, 0, cl__2};
Point(13) = {0.664238, -4.479819, 1, cl__3};
Point(14) = {0.664238, -4.479819, 0, cl__3};
Point(15) = {0.664238, 5.140218999999999, 1, cl__4};
Point(16) = {0.664238, 5.140218999999999, 0, cl__4};
Point(17) = {33.139157, -4.479819, 0, cl__5};
Point(18) = {33.139157, -4.479819, 1, cl__5};
Point(19) = {33.139157, 5.140218999999999, 1, cl__6};
Point(20) = {33.139157, 5.140218999999999, 0, cl__6};
p13 = newp;
Point(p13 + 1) = {24.65137035871854, -1.794306933959917, 0.1};
Point(p13 + 2) = {24.62172477278992, -1.670824181707271, 0.1};
Point(p13 + 3) = {24.57312721492778, -1.553499298418281, 0.1};
Point(p13 + 4) = {24.50677431829273, -1.445221212098486, 0.1};
Point(p13 + 5) = {24.42429991141256, -1.348656088587445, 0.1};
Point(p13 + 6) = {24.32773478790152, -1.266181681707271, 0.1};
Point(p13 + 7) = {24.21945670158172, -1.199828785072217, 0.1};
Point(p13 + 8) = {24.10213181829273, -1.151231227210077, 0.1};
Point(p13 + 9) = {23.97864906604008, -1.121585641281464, 0.1};
Point(p13 + 10) = {23.852049, -1.111622, 0.1};
Point(p13 + 11) = {23.72544893395992, -1.121585641281464, 0.1};
Point(p13 + 12) = {23.60196618170727, -1.151231227210076, 0.1};
Point(p13 + 13) = {23.48464129841828, -1.199828785072217, 0.1};
Point(p13 + 14) = {23.37636321209849, -1.266181681707271, 0.1};
Point(p13 + 15) = {23.27979808858744, -1.348656088587445, 0.1};
Point(p13 + 16) = {23.19732368170727, -1.445221212098486, 0.1};
Point(p13 + 17) = {23.13097078507222, -1.553499298418281, 0.1};
Point(p13 + 18) = {23.08237322721008, -1.670824181707271, 0.1};
Point(p13 + 19) = {23.05272764128146, -1.794306933959917, 0.1};
Point(p13 + 20) = {23.042764, -1.920907, 0.1};
Point(p13 + 21) = {23.05272764128146, -2.047507066040083, 0.1};
Point(p13 + 22) = {23.08237322721008, -2.17098981829273, 0.1};
Point(p13 + 23) = {23.13097078507222, -2.288314701581719, 0.1};
Point(p13 + 24) = {23.19732368170727, -2.396592787901514, 0.1};
Point(p13 + 25) = {23.27979808858744, -2.493157911412555, 0.1};
Point(p13 + 26) = {23.37636321209849, -2.575632318292729, 0.1};
Point(p13 + 27) = {23.48464129841828, -2.641985214927783, 0.1};
Point(p13 + 28) = {23.60196618170727, -2.690582772789923, 0.1};
Point(p13 + 29) = {23.72544893395992, -2.720228358718536, 0.1};
Point(p13 + 30) = {23.852049, -2.730192, 0.1};
Point(p13 + 31) = {23.97864906604008, -2.720228358718536, 0.1};
Point(p13 + 32) = {24.10213181829273, -2.690582772789924, 0.1};
Point(p13 + 33) = {24.21945670158172, -2.641985214927783, 0.1};
Point(p13 + 34) = {24.32773478790152, -2.57563231829273, 0.1};
Point(p13 + 35) = {24.42429991141256, -2.493157911412555, 0.1};
Point(p13 + 36) = {24.50677431829273, -2.396592787901514, 0.1};
Point(p13 + 37) = {24.57312721492778, -2.288314701581719, 0.1};
Point(p13 + 38) = {24.62172477278992, -2.170989818292729, 0.1};
Point(p13 + 39) = {24.65137035871854, -2.047507066040083, 0.1};
Spline(13) = {9, p13 + 1, p13 + 2, p13 + 3, p13 + 4, p13 + 5, p13 + 6, p13 + 7, p13 + 8, p13 + 9, p13 + 10, p13 + 11, p13 + 12, p13 + 13, p13 + 14, p13 + 15, p13 + 16, p13 + 17, p13 + 18, p13 + 19, p13 + 20, p13 + 21, p13 + 22, p13 + 23, p13 + 24, p13 + 25, p13 + 26, p13 + 27, p13 + 28, p13 + 29, p13 + 30, p13 + 31, p13 + 32, p13 + 33, p13 + 34, p13 + 35, p13 + 36, p13 + 37, p13 + 38, p13 + 39, 9};
Line(14) = {10, 9};
p15 = newp;
Point(p15 + 1) = {24.65137035871854, -1.794306933959917, 0};
Point(p15 + 2) = {24.62172477278992, -1.670824181707271, 0};
Point(p15 + 3) = {24.57312721492778, -1.553499298418281, 0};
Point(p15 + 4) = {24.50677431829273, -1.445221212098486, 0};
Point(p15 + 5) = {24.42429991141256, -1.348656088587445, 0};
Point(p15 + 6) = {24.32773478790152, -1.266181681707271, 0};
Point(p15 + 7) = {24.21945670158172, -1.199828785072217, 0};
Point(p15 + 8) = {24.10213181829273, -1.151231227210077, 0};
Point(p15 + 9) = {23.97864906604008, -1.121585641281464, 0};
Point(p15 + 10) = {23.852049, -1.111622, 0};
Point(p15 + 11) = {23.72544893395992, -1.121585641281464, 0};
Point(p15 + 12) = {23.60196618170727, -1.151231227210076, 0};
Point(p15 + 13) = {23.48464129841828, -1.199828785072217, 0};
Point(p15 + 14) = {23.37636321209849, -1.266181681707271, 0};
Point(p15 + 15) = {23.27979808858744, -1.348656088587445, 0};
Point(p15 + 16) = {23.19732368170727, -1.445221212098486, 0};
Point(p15 + 17) = {23.13097078507222, -1.553499298418281, 0};
Point(p15 + 18) = {23.08237322721008, -1.670824181707271, 0};
Point(p15 + 19) = {23.05272764128146, -1.794306933959917, 0};
Point(p15 + 20) = {23.042764, -1.920907, 0};
Point(p15 + 21) = {23.05272764128146, -2.047507066040083, 0};
Point(p15 + 22) = {23.08237322721008, -2.17098981829273, 0};
Point(p15 + 23) = {23.13097078507222, -2.288314701581719, 0};
Point(p15 + 24) = {23.19732368170727, -2.396592787901514, 0};
Point(p15 + 25) = {23.27979808858744, -2.493157911412555, 0};
Point(p15 + 26) = {23.37636321209849, -2.575632318292729, 0};
Point(p15 + 27) = {23.48464129841828, -2.641985214927783, 0};
Point(p15 + 28) = {23.60196618170727, -2.690582772789923, 0};
Point(p15 + 29) = {23.72544893395992, -2.720228358718536, 0};
Point(p15 + 30) = {23.852049, -2.730192, 0};
Point(p15 + 31) = {23.97864906604008, -2.720228358718536, 0};
Point(p15 + 32) = {24.10213181829273, -2.690582772789924, 0};
Point(p15 + 33) = {24.21945670158172, -2.641985214927783, 0};
Point(p15 + 34) = {24.32773478790152, -2.57563231829273, 0};
Point(p15 + 35) = {24.42429991141256, -2.493157911412555, 0};
Point(p15 + 36) = {24.50677431829273, -2.396592787901514, 0};
Point(p15 + 37) = {24.57312721492778, -2.288314701581719, 0};
Point(p15 + 38) = {24.62172477278992, -2.170989818292729, 0};
Point(p15 + 39) = {24.65137035871854, -2.047507066040083, 0};
Spline(15) = {10, p15 + 1, p15 + 2, p15 + 3, p15 + 4, p15 + 5, p15 + 6, p15 + 7, p15 + 8, p15 + 9, p15 + 10, p15 + 11, p15 + 12, p15 + 13, p15 + 14, p15 + 15, p15 + 16, p15 + 17, p15 + 18, p15 + 19, p15 + 20, p15 + 21, p15 + 22, p15 + 23, p15 + 24, p15 + 25, p15 + 26, p15 + 27, p15 + 28, p15 + 29, p15 + 30, p15 + 31, p15 + 32, p15 + 33, p15 + 34, p15 + 35, p15 + 36, p15 + 37, p15 + 38, p15 + 39, 10};
p16 = newp;
Point(p16 + 1) = {14.31965516663623, -0.8144441357184151, 0.1};
Point(p16 + 2) = {14.29050887247282, -0.6930410833406012, 0.1};
Point(p16 + 3) = {14.2427297960031, -0.5776921889297308, 0.1};
Point(p16 + 4) = {14.1774944166594, -0.4712377250872323, 0.1};
Point(p16 + 5) = {14.09640904598498, -0.3762989540150176, 0.1};
Point(p16 + 6) = {14.00147027491277, -0.2952135833406012, 0.1};
Point(p16 + 7) = {13.89501581107027, -0.2299782039969042, 0.1};
Point(p16 + 8) = {13.7796669166594, -0.1821991275271796, 0.1};
Point(p16 + 9) = {13.65826386428158, -0.1530528333637756, 0.1};
Point(p16 + 10) = {13.533796, -0.143257, 0.1};
Point(p16 + 11) = {13.40932813571842, -0.1530528333637757, 0.1};
Point(p16 + 12) = {13.2879250833406, -0.1821991275271795, 0.1};
Point(p16 + 13) = {13.17257618892973, -0.2299782039969042, 0.1};
Point(p16 + 14) = {13.06612172508723, -0.2952135833406011, 0.1};
Point(p16 + 15) = {12.97118295401502, -0.3762989540150175, 0.1};
Point(p16 + 16) = {12.8900975833406, -0.4712377250872322, 0.1};
Point(p16 + 17) = {12.8248622039969, -0.5776921889297308, 0.1};
Point(p16 + 18) = {12.77708312752718, -0.6930410833406011, 0.1};
Point(p16 + 19) = {12.74793683336378, -0.814444135718415, 0.1};
Point(p16 + 20) = {12.738141, -0.9389119999999999, 0.1};
Point(p16 + 21) = {12.74793683336378, -1.063379864281585, 0.1};
Point(p16 + 22) = {12.77708312752718, -1.184782916659399, 0.1};
Point(p16 + 23) = {12.8248622039969, -1.300131811070269, 0.1};
Point(p16 + 24) = {12.8900975833406, -1.406586274912768, 0.1};
Point(p16 + 25) = {12.97118295401502, -1.501525045984982, 0.1};
Point(p16 + 26) = {13.06612172508723, -1.582610416659399, 0.1};
Point(p16 + 27) = {13.17257618892973, -1.647845796003096, 0.1};
Point(p16 + 28) = {13.2879250833406, -1.69562487247282, 0.1};
Point(p16 + 29) = {13.40932813571842, -1.724771166636224, 0.1};
Point(p16 + 30) = {13.533796, -1.734567, 0.1};
Point(p16 + 31) = {13.65826386428158, -1.724771166636224, 0.1};
Point(p16 + 32) = {13.7796669166594, -1.69562487247282, 0.1};
Point(p16 + 33) = {13.89501581107027, -1.647845796003096, 0.1};
Point(p16 + 34) = {14.00147027491277, -1.582610416659399, 0.1};
Point(p16 + 35) = {14.09640904598498, -1.501525045984982, 0.1};
Point(p16 + 36) = {14.1774944166594, -1.406586274912768, 0.1};
Point(p16 + 37) = {14.2427297960031, -1.300131811070269, 0.1};
Point(p16 + 38) = {14.29050887247282, -1.184782916659399, 0.1};
Point(p16 + 39) = {14.31965516663622, -1.063379864281585, 0.1};
Spline(16) = {11, p16 + 1, p16 + 2, p16 + 3, p16 + 4, p16 + 5, p16 + 6, p16 + 7, p16 + 8, p16 + 9, p16 + 10, p16 + 11, p16 + 12, p16 + 13, p16 + 14, p16 + 15, p16 + 16, p16 + 17, p16 + 18, p16 + 19, p16 + 20, p16 + 21, p16 + 22, p16 + 23, p16 + 24, p16 + 25, p16 + 26, p16 + 27, p16 + 28, p16 + 29, p16 + 30, p16 + 31, p16 + 32, p16 + 33, p16 + 34, p16 + 35, p16 + 36, p16 + 37, p16 + 38, p16 + 39, 11};
Line(17) = {12, 11};
p18 = newp;
Point(p18 + 1) = {14.31965516663623, -0.8144441357184151, 0};
Point(p18 + 2) = {14.29050887247282, -0.6930410833406012, 0};
Point(p18 + 3) = {14.2427297960031, -0.5776921889297308, 0};
Point(p18 + 4) = {14.1774944166594, -0.4712377250872323, 0};
Point(p18 + 5) = {14.09640904598498, -0.3762989540150176, 0};
Point(p18 + 6) = {14.00147027491277, -0.2952135833406012, 0};
Point(p18 + 7) = {13.89501581107027, -0.2299782039969042, 0};
Point(p18 + 8) = {13.7796669166594, -0.1821991275271796, 0};
Point(p18 + 9) = {13.65826386428158, -0.1530528333637756, 0};
Point(p18 + 10) = {13.533796, -0.143257, 0};
Point(p18 + 11) = {13.40932813571842, -0.1530528333637757, 0};
Point(p18 + 12) = {13.2879250833406, -0.1821991275271795, 0};
Point(p18 + 13) = {13.17257618892973, -0.2299782039969042, 0};
Point(p18 + 14) = {13.06612172508723, -0.2952135833406011, 0};
Point(p18 + 15) = {12.97118295401502, -0.3762989540150175, 0};
Point(p18 + 16) = {12.8900975833406, -0.4712377250872322, 0};
Point(p18 + 17) = {12.8248622039969, -0.5776921889297308, 0};
Point(p18 + 18) = {12.77708312752718, -0.6930410833406011, 0};
Point(p18 + 19) = {12.74793683336378, -0.814444135718415, 0};
Point(p18 + 20) = {12.738141, -0.9389119999999999, 0};
Point(p18 + 21) = {12.74793683336378, -1.063379864281585, 0};
Point(p18 + 22) = {12.77708312752718, -1.184782916659399, 0};
Point(p18 + 23) = {12.8248622039969, -1.300131811070269, 0};
Point(p18 + 24) = {12.8900975833406, -1.406586274912768, 0};
Point(p18 + 25) = {12.97118295401502, -1.501525045984982, 0};
Point(p18 + 26) = {13.06612172508723, -1.582610416659399, 0};
Point(p18 + 27) = {13.17257618892973, -1.647845796003096, 0};
Point(p18 + 28) = {13.2879250833406, -1.69562487247282, 0};
Point(p18 + 29) = {13.40932813571842, -1.724771166636224, 0};
Point(p18 + 30) = {13.533796, -1.734567, 0};
Point(p18 + 31) = {13.65826386428158, -1.724771166636224, 0};
Point(p18 + 32) = {13.7796669166594, -1.69562487247282, 0};
Point(p18 + 33) = {13.89501581107027, -1.647845796003096, 0};
Point(p18 + 34) = {14.00147027491277, -1.582610416659399, 0};
Point(p18 + 35) = {14.09640904598498, -1.501525045984982, 0};
Point(p18 + 36) = {14.1774944166594, -1.406586274912768, 0};
Point(p18 + 37) = {14.2427297960031, -1.300131811070269, 0};
Point(p18 + 38) = {14.29050887247282, -1.184782916659399, 0};
Point(p18 + 39) = {14.31965516663622, -1.063379864281585, 0};
Spline(18) = {12, p18 + 1, p18 + 2, p18 + 3, p18 + 4, p18 + 5, p18 + 6, p18 + 7, p18 + 8, p18 + 9, p18 + 10, p18 + 11, p18 + 12, p18 + 13, p18 + 14, p18 + 15, p18 + 16, p18 + 17, p18 + 18, p18 + 19, p18 + 20, p18 + 21, p18 + 22, p18 + 23, p18 + 24, p18 + 25, p18 + 26, p18 + 27, p18 + 28, p18 + 29, p18 + 30, p18 + 31, p18 + 32, p18 + 33, p18 + 34, p18 + 35, p18 + 36, p18 + 37, p18 + 38, p18 + 39, 12};
Line(19) = {14, 13};
Line(20) = {13, 15};
Line(21) = {16, 15};
Line(22) = {14, 16};
Line(23) = {14, 17};
Line(24) = {17, 18};
Line(25) = {13, 18};
Line(26) = {15, 19};
Line(27) = {18, 19};
Line(28) = {16, 20};
Line(29) = {20, 19};
Line(30) = {17, 20};
Curve Loop(7) = {-13, -14, 15, 14};
Surface(7) = {7};
Curve Loop(8) = {13};
Plane Surface(8) = {8};
Curve Loop(9) = {15};
Plane Surface(9) = {9};
Curve Loop(10) = {-16, -17, 18, 17};
Surface(10) = {10};
Curve Loop(11) = {16};
Plane Surface(11) = {11};
Curve Loop(12) = {18};
Plane Surface(12) = {12};
Curve Loop(13) = {-19, 22, 21, -20};
Plane Surface(13) = {13};
Curve Loop(14) = {-23, 19, 25, -24};
Plane Surface(14) = {14};
Curve Loop(15) = {-20, 25, 27, -26};
Plane Surface(15) = {15};
Curve Loop(16) = {-28, 21, 26, -29};
Plane Surface(16) = {16};
Curve Loop(17) = {-22, 23, 30, -28, -15, -18};
Plane Surface(17) = {17};
Curve Loop(18) = {-24, 30, 29, -27};
Plane Surface(18) = {18};
Surface Loop(1) = {13, 14, 15, 16, 17, 18, 7, 10, 8, 11};
Volume(1) = {1};
Surface Loop(2) = {7, 8, 9};
Volume(2) = {2};
Surface Loop(3) = {10, 11, 12};
Volume(3) = {3};
Physical Surface("WALLS") = {13, 18};
Physical Surface("LOAD") = {8, 11};
Physical Surface("BORDER") = {7, 9, 10, 12, 14, 15, 16, 17};
Physical Volume("SOLID") = {1, 2, 3};
