cl__1 = 0.149961;
cl__2 = 0.141726;
cl__3 = 0.858136;
cl__4 = 0.625841;
cl__5 = 2.288239;
cl__6 = 1.72054;
Point(9) = {18.542138, 2.598885999999999, 0.1, cl__1};
Point(10) = {18.542138, 2.598885999999999, 0, cl__1};
Point(11) = {9.996817, 3.080430999999999, 0.1, cl__2};
Point(12) = {9.996817, 3.080430999999999, 0, cl__2};
Point(13) = {0.179816, -4.550828, 1, cl__3};
Point(14) = {0.179816, -4.550828, 0, cl__3};
Point(15) = {0.179816, 5.188584, 1, cl__4};
Point(16) = {0.179816, 5.188584, 0, cl__4};
Point(17) = {32.190202, -4.550828, 0, cl__5};
Point(18) = {32.190202, -4.550828, 1, cl__5};
Point(19) = {32.190202, 5.188584, 1, cl__6};
Point(20) = {32.190202, 5.188584, 0, cl__6};
p13 = newp;
Point(p13 + 1) = {18.52367536168651, 2.83347606238112, 0.1};
Point(p13 + 2) = {18.46874205817531, 3.062289738866637, 0.1};
Point(p13 + 3) = {18.37869072971202, 3.279692877352423, 0.1};
Point(p13 + 4) = {18.25573873886664, 3.480332291049306, 0.1};
Point(p13 + 5) = {18.10291357170804, 3.659267571708034, 0.1};
Point(p13 + 6) = {17.92397829104931, 3.812092738866637, 0.1};
Point(p13 + 7) = {17.72333887735243, 3.935044729712021, 0.1};
Point(p13 + 8) = {17.50593573886664, 4.025096058175309, 0.1};
Point(p13 + 9) = {17.27712206238112, 4.080029361686512, 0.1};
Point(p13 + 10) = {17.042532, 4.098492, 0.1};
Point(p13 + 11) = {16.80794193761888, 4.080029361686512, 0.1};
Point(p13 + 12) = {16.57912826113336, 4.025096058175309, 0.1};
Point(p13 + 13) = {16.36172512264758, 3.935044729712021, 0.1};
Point(p13 + 14) = {16.16108570895069, 3.812092738866637, 0.1};
Point(p13 + 15) = {15.98215042829197, 3.659267571708034, 0.1};
Point(p13 + 16) = {15.82932526113336, 3.480332291049306, 0.1};
Point(p13 + 17) = {15.70637327028798, 3.279692877352423, 0.1};
Point(p13 + 18) = {15.61632194182469, 3.062289738866637, 0.1};
Point(p13 + 19) = {15.56138863831349, 2.83347606238112, 0.1};
Point(p13 + 20) = {15.542926, 2.598886, 0.1};
Point(p13 + 21) = {15.56138863831349, 2.36429593761888, 0.1};
Point(p13 + 22) = {15.61632194182469, 2.135482261133362, 0.1};
Point(p13 + 23) = {15.70637327028798, 1.918079122647578, 0.1};
Point(p13 + 24) = {15.82932526113336, 1.717439708950693, 0.1};
Point(p13 + 25) = {15.98215042829197, 1.538504428291966, 0.1};
Point(p13 + 26) = {16.16108570895069, 1.385679261133363, 0.1};
Point(p13 + 27) = {16.36172512264758, 1.262727270287978, 0.1};
Point(p13 + 28) = {16.57912826113336, 1.17267594182469, 0.1};
Point(p13 + 29) = {16.80794193761888, 1.117742638313488, 0.1};
Point(p13 + 30) = {17.042532, 1.09928, 0.1};
Point(p13 + 31) = {17.27712206238112, 1.117742638313488, 0.1};
Point(p13 + 32) = {17.50593573886664, 1.17267594182469, 0.1};
Point(p13 + 33) = {17.72333887735243, 1.262727270287978, 0.1};
Point(p13 + 34) = {17.92397829104931, 1.385679261133362, 0.1};
Point(p13 + 35) = {18.10291357170804, 1.538504428291966, 0.1};
Point(p13 + 36) = {18.25573873886664, 1.717439708950693, 0.1};
Point(p13 + 37) = {18.37869072971202, 1.918079122647577, 0.1};
Point(p13 + 38) = {18.46874205817531, 2.135482261133362, 0.1};
Point(p13 + 39) = {18.52367536168651, 2.364295937618879, 0.1};
Spline(13) = {9, p13 + 1, p13 + 2, p13 + 3, p13 + 4, p13 + 5, p13 + 6, p13 + 7, p13 + 8, p13 + 9, p13 + 10, p13 + 11, p13 + 12, p13 + 13, p13 + 14, p13 + 15, p13 + 16, p13 + 17, p13 + 18, p13 + 19, p13 + 20, p13 + 21, p13 + 22, p13 + 23, p13 + 24, p13 + 25, p13 + 26, p13 + 27, p13 + 28, p13 + 29, p13 + 30, p13 + 31, p13 + 32, p13 + 33, p13 + 34, p13 + 35, p13 + 36, p13 + 37, p13 + 38, p13 + 39, 9};
Line(14) = {10, 9};
p15 = newp;
Point(p15 + 1) = {18.52367536168651, 2.83347606238112, 0};
Point(p15 + 2) = {18.46874205817531, 3.062289738866637, 0};
Point(p15 + 3) = {18.37869072971202, 3.279692877352423, 0};
Point(p15 + 4) = {18.25573873886664, 3.480332291049306, 0};
Point(p15 + 5) = {18.10291357170804, 3.659267571708034, 0};
Point(p15 + 6) = {17.92397829104931, 3.812092738866637, 0};
Point(p15 + 7) = {17.72333887735243, 3.935044729712021, 0};
Point(p15 + 8) = {17.50593573886664, 4.025096058175309, 0};
Point(p15 + 9) = {17.27712206238112, 4.080029361686512, 0};
Point(p15 + 10) = {17.042532, 4.098492, 0};
Point(p15 + 11) = {16.80794193761888, 4.080029361686512, 0};
Point(p15 + 12) = {16.57912826113336, 4.025096058175309, 0};
Point(p15 + 13) = {16.36172512264758, 3.935044729712021, 0};
Point(p15 + 14) = {16.16108570895069, 3.812092738866637, 0};
Point(p15 + 15) = {15.98215042829197, 3.659267571708034, 0};
Point(p15 + 16) = {15.82932526113336, 3.480332291049306, 0};
Point(p15 + 17) = {15.70637327028798, 3.279692877352423, 0};
Point(p15 + 18) = {15.61632194182469, 3.062289738866637, 0};
Point(p15 + 19) = {15.56138863831349, 2.83347606238112, 0};
Point(p15 + 20) = {15.542926, 2.598886, 0};
Point(p15 + 21) = {15.56138863831349, 2.36429593761888, 0};
Point(p15 + 22) = {15.61632194182469, 2.135482261133362, 0};
Point(p15 + 23) = {15.70637327028798, 1.918079122647578, 0};
Point(p15 + 24) = {15.82932526113336, 1.717439708950693, 0};
Point(p15 + 25) = {15.98215042829197, 1.538504428291966, 0};
Point(p15 + 26) = {16.16108570895069, 1.385679261133363, 0};
Point(p15 + 27) = {16.36172512264758, 1.262727270287978, 0};
Point(p15 + 28) = {16.57912826113336, 1.17267594182469, 0};
Point(p15 + 29) = {16.80794193761888, 1.117742638313488, 0};
Point(p15 + 30) = {17.042532, 1.09928, 0};
Point(p15 + 31) = {17.27712206238112, 1.117742638313488, 0};
Point(p15 + 32) = {17.50593573886664, 1.17267594182469, 0};
Point(p15 + 33) = {17.72333887735243, 1.262727270287978, 0};
Point(p15 + 34) = {17.92397829104931, 1.385679261133362, 0};
Point(p15 + 35) = {18.10291357170804, 1.538504428291966, 0};
Point(p15 + 36) = {18.25573873886664, 1.717439708950693, 0};
Point(p15 + 37) = {18.37869072971202, 1.918079122647577, 0};
Point(p15 + 38) = {18.46874205817531, 2.135482261133362, 0};
Point(p15 + 39) = {18.52367536168651, 2.364295937618879, 0};
Spline(15) = {10, p15 + 1, p15 + 2, p15 + 3, p15 + 4, p15 + 5, p15 + 6, p15 + 7, p15 + 8, p15 + 9, p15 + 10, p15 + 11, p15 + 12, p15 + 13, p15 + 14, p15 + 15, p15 + 16, p15 + 17, p15 + 18, p15 + 19, p15 + 20, p15 + 21, p15 + 22, p15 + 23, p15 + 24, p15 + 25, p15 + 26, p15 + 27, p15 + 28, p15 + 29, p15 + 30, p15 + 31, p15 + 32, p15 + 33, p15 + 34, p15 + 35, p15 + 36, p15 + 37, p15 + 38, p15 + 39, 10};
p16 = newp;
Point(p16 + 1) = {9.979368189903525, 3.302139153488453, 0.1};
Point(p16 + 2) = {9.927451407227954, 3.518388116430843, 0.1};
Point(p16 + 3) = {9.842345015464682, 3.72385312167037, 0.1};
Point(p16 + 4) = {9.726144616430844, 3.913474938878778, 0.1};
Point(p16 + 5) = {9.581711449597666, 4.082584449597665, 0.1};
Point(p16 + 6) = {9.41260193887878, 4.227017616430843, 0.1};
Point(p16 + 7) = {9.222980121670371, 4.343218015464682, 0.1};
Point(p16 + 8) = {9.017515116430845, 4.428324407227953, 0.1};
Point(p16 + 9) = {8.801266153488454, 4.480241189903524, 0.1};
Point(p16 + 10) = {8.579558, 4.49769, 0.1};
Point(p16 + 11) = {8.357849846511547, 4.480241189903524, 0.1};
Point(p16 + 12) = {8.141600883569158, 4.428324407227953, 0.1};
Point(p16 + 13) = {7.936135878329631, 4.343218015464682, 0.1};
Point(p16 + 14) = {7.746514061121222, 4.227017616430843, 0.1};
Point(p16 + 15) = {7.577404550402335, 4.082584449597665, 0.1};
Point(p16 + 16) = {7.432971383569157, 3.913474938878778, 0.1};
Point(p16 + 17) = {7.316770984535318, 3.72385312167037, 0.1};
Point(p16 + 18) = {7.231664592772047, 3.518388116430843, 0.1};
Point(p16 + 19) = {7.179747810096476, 3.302139153488453, 0.1};
Point(p16 + 20) = {7.162299000000001, 3.080431, 0.1};
Point(p16 + 21) = {7.179747810096476, 2.858722846511547, 0.1};
Point(p16 + 22) = {7.231664592772048, 2.642473883569156, 0.1};
Point(p16 + 23) = {7.316770984535318, 2.43700887832963, 0.1};
Point(p16 + 24) = {7.432971383569157, 2.247387061121222, 0.1};
Point(p16 + 25) = {7.577404550402335, 2.078277550402335, 0.1};
Point(p16 + 26) = {7.746514061121222, 1.933844383569156, 0.1};
Point(p16 + 27) = {7.93613587832963, 1.817643984535318, 0.1};
Point(p16 + 28) = {8.141600883569156, 1.732537592772047, 0.1};
Point(p16 + 29) = {8.357849846511547, 1.680620810096476, 0.1};
Point(p16 + 30) = {8.579558, 1.663172, 0.1};
Point(p16 + 31) = {8.801266153488452, 1.680620810096475, 0.1};
Point(p16 + 32) = {9.017515116430843, 1.732537592772047, 0.1};
Point(p16 + 33) = {9.222980121670371, 1.817643984535318, 0.1};
Point(p16 + 34) = {9.412601938878778, 1.933844383569156, 0.1};
Point(p16 + 35) = {9.581711449597666, 2.078277550402334, 0.1};
Point(p16 + 36) = {9.726144616430844, 2.247387061121222, 0.1};
Point(p16 + 37) = {9.842345015464682, 2.437008878329629, 0.1};
Point(p16 + 38) = {9.927451407227954, 2.642473883569156, 0.1};
Point(p16 + 39) = {9.979368189903525, 2.858722846511547, 0.1};
Spline(16) = {11, p16 + 1, p16 + 2, p16 + 3, p16 + 4, p16 + 5, p16 + 6, p16 + 7, p16 + 8, p16 + 9, p16 + 10, p16 + 11, p16 + 12, p16 + 13, p16 + 14, p16 + 15, p16 + 16, p16 + 17, p16 + 18, p16 + 19, p16 + 20, p16 + 21, p16 + 22, p16 + 23, p16 + 24, p16 + 25, p16 + 26, p16 + 27, p16 + 28, p16 + 29, p16 + 30, p16 + 31, p16 + 32, p16 + 33, p16 + 34, p16 + 35, p16 + 36, p16 + 37, p16 + 38, p16 + 39, 11};
Line(17) = {12, 11};
p18 = newp;
Point(p18 + 1) = {9.979368189903525, 3.302139153488453, 0};
Point(p18 + 2) = {9.927451407227954, 3.518388116430843, 0};
Point(p18 + 3) = {9.842345015464682, 3.72385312167037, 0};
Point(p18 + 4) = {9.726144616430844, 3.913474938878778, 0};
Point(p18 + 5) = {9.581711449597666, 4.082584449597665, 0};
Point(p18 + 6) = {9.41260193887878, 4.227017616430843, 0};
Point(p18 + 7) = {9.222980121670371, 4.343218015464682, 0};
Point(p18 + 8) = {9.017515116430845, 4.428324407227953, 0};
Point(p18 + 9) = {8.801266153488454, 4.480241189903524, 0};
Point(p18 + 10) = {8.579558, 4.49769, 0};
Point(p18 + 11) = {8.357849846511547, 4.480241189903524, 0};
Point(p18 + 12) = {8.141600883569158, 4.428324407227953, 0};
Point(p18 + 13) = {7.936135878329631, 4.343218015464682, 0};
Point(p18 + 14) = {7.746514061121222, 4.227017616430843, 0};
Point(p18 + 15) = {7.577404550402335, 4.082584449597665, 0};
Point(p18 + 16) = {7.432971383569157, 3.913474938878778, 0};
Point(p18 + 17) = {7.316770984535318, 3.72385312167037, 0};
Point(p18 + 18) = {7.231664592772047, 3.518388116430843, 0};
Point(p18 + 19) = {7.179747810096476, 3.302139153488453, 0};
Point(p18 + 20) = {7.162299000000001, 3.080431, 0};
Point(p18 + 21) = {7.179747810096476, 2.858722846511547, 0};
Point(p18 + 22) = {7.231664592772048, 2.642473883569156, 0};
Point(p18 + 23) = {7.316770984535318, 2.43700887832963, 0};
Point(p18 + 24) = {7.432971383569157, 2.247387061121222, 0};
Point(p18 + 25) = {7.577404550402335, 2.078277550402335, 0};
Point(p18 + 26) = {7.746514061121222, 1.933844383569156, 0};
Point(p18 + 27) = {7.93613587832963, 1.817643984535318, 0};
Point(p18 + 28) = {8.141600883569156, 1.732537592772047, 0};
Point(p18 + 29) = {8.357849846511547, 1.680620810096476, 0};
Point(p18 + 30) = {8.579558, 1.663172, 0};
Point(p18 + 31) = {8.801266153488452, 1.680620810096475, 0};
Point(p18 + 32) = {9.017515116430843, 1.732537592772047, 0};
Point(p18 + 33) = {9.222980121670371, 1.817643984535318, 0};
Point(p18 + 34) = {9.412601938878778, 1.933844383569156, 0};
Point(p18 + 35) = {9.581711449597666, 2.078277550402334, 0};
Point(p18 + 36) = {9.726144616430844, 2.247387061121222, 0};
Point(p18 + 37) = {9.842345015464682, 2.437008878329629, 0};
Point(p18 + 38) = {9.927451407227954, 2.642473883569156, 0};
Point(p18 + 39) = {9.979368189903525, 2.858722846511547, 0};
Spline(18) = {12, p18 + 1, p18 + 2, p18 + 3, p18 + 4, p18 + 5, p18 + 6, p18 + 7, p18 + 8, p18 + 9, p18 + 10, p18 + 11, p18 + 12, p18 + 13, p18 + 14, p18 + 15, p18 + 16, p18 + 17, p18 + 18, p18 + 19, p18 + 20, p18 + 21, p18 + 22, p18 + 23, p18 + 24, p18 + 25, p18 + 26, p18 + 27, p18 + 28, p18 + 29, p18 + 30, p18 + 31, p18 + 32, p18 + 33, p18 + 34, p18 + 35, p18 + 36, p18 + 37, p18 + 38, p18 + 39, 12};
Line(19) = {14, 13};
Line(20) = {13, 15};
Line(21) = {16, 15};
Line(22) = {14, 16};
Line(23) = {14, 17};
Line(24) = {17, 18};
Line(25) = {13, 18};
Line(26) = {15, 19};
Line(27) = {18, 19};
Line(28) = {16, 20};
Line(29) = {20, 19};
Line(30) = {17, 20};
Curve Loop(7) = {-13, -14, 15, 14};
Surface(7) = {7};
Curve Loop(8) = {13};
Plane Surface(8) = {8};
Curve Loop(9) = {15};
Plane Surface(9) = {9};
Curve Loop(10) = {-16, -17, 18, 17};
Surface(10) = {10};
Curve Loop(11) = {16};
Plane Surface(11) = {11};
Curve Loop(12) = {18};
Plane Surface(12) = {12};
Curve Loop(13) = {-19, 22, 21, -20};
Plane Surface(13) = {13};
Curve Loop(14) = {-23, 19, 25, -24};
Plane Surface(14) = {14};
Curve Loop(15) = {-20, 25, 27, -26};
Plane Surface(15) = {15};
Curve Loop(16) = {-28, 21, 26, -29};
Plane Surface(16) = {16};
Curve Loop(17) = {-22, 23, 30, -28, -15, -18};
Plane Surface(17) = {17};
Curve Loop(18) = {-24, 30, 29, -27};
Plane Surface(18) = {18};
Surface Loop(1) = {13, 14, 15, 16, 17, 18, 7, 10, 8, 11};
Volume(1) = {1};
Surface Loop(2) = {7, 8, 9};
Volume(2) = {2};
Surface Loop(3) = {10, 11, 12};
Volume(3) = {3};
Physical Surface("WALLS") = {13, 18};
Physical Surface("LOAD") = {8, 11};
Physical Surface("BORDER") = {7, 9, 10, 12, 14, 15, 16, 17};
Physical Volume("SOLID") = {1, 2, 3};
