cl__1 = 0.061317;
cl__2 = 0.09508900000000001;
cl__3 = 0.392514;
cl__4 = 0.568043;
cl__5 = 3.778026;
cl__6 = 3.254726;
Point(9) = {14.806608, 2.131784, 0.1, cl__1};
Point(10) = {14.806608, 2.131784, 0, cl__1};
Point(11) = {5.202546, -0.8276470000000002, 0.1, cl__2};
Point(12) = {5.202546, -0.8276470000000002, 0, cl__2};
Point(13) = {0.054547, -4.270397, 1, cl__3};
Point(14) = {0.054547, -4.270397, 0, cl__3};
Point(15) = {0.054547, 5.304336999999999, 1, cl__4};
Point(16) = {0.054547, 5.304336999999999, 0, cl__4};
Point(17) = {31.422397, -4.270397, 0, cl__5};
Point(18) = {31.422397, -4.270397, 1, cl__5};
Point(19) = {31.422397, 5.304336999999999, 1, cl__6};
Point(20) = {31.422397, 5.304336999999999, 0, cl__6};
p13 = newp;
Point(p13 + 1) = {14.7990588351794, 2.227705233797649, 0.1};
Point(p13 + 2) = {14.77659722620973, 2.321264568474875, 0.1};
Point(p13 + 3) = {14.73977625244963, 2.410158262706298, 0.1};
Point(p13 + 4) = {14.68950256847488, 2.49219745871868, 0.1};
Point(p13 + 5) = {14.62701407923372, 2.565362079233718, 0.1};
Point(p13 + 6) = {14.55384945871868, 2.627850568474875, 0.1};
Point(p13 + 7) = {14.4718102627063, 2.67812425244963, 0.1};
Point(p13 + 8) = {14.38291656847488, 2.714945226209732, 0.1};
Point(p13 + 9) = {14.28935723379765, 2.737406835179402, 0.1};
Point(p13 + 10) = {14.193436, 2.744956, 0.1};
Point(p13 + 11) = {14.09751476620235, 2.737406835179402, 0.1};
Point(p13 + 12) = {14.00395543152512, 2.714945226209732, 0.1};
Point(p13 + 13) = {13.9150617372937, 2.67812425244963, 0.1};
Point(p13 + 14) = {13.83302254128132, 2.627850568474876, 0.1};
Point(p13 + 15) = {13.75985792076628, 2.565362079233718, 0.1};
Point(p13 + 16) = {13.69736943152513, 2.49219745871868, 0.1};
Point(p13 + 17) = {13.64709574755037, 2.410158262706298, 0.1};
Point(p13 + 18) = {13.61027477379027, 2.321264568474875, 0.1};
Point(p13 + 19) = {13.5878131648206, 2.227705233797649, 0.1};
Point(p13 + 20) = {13.580264, 2.131784, 0.1};
Point(p13 + 21) = {13.5878131648206, 2.035862766202352, 0.1};
Point(p13 + 22) = {13.61027477379027, 1.942303431525125, 0.1};
Point(p13 + 23) = {13.64709574755037, 1.853409737293703, 0.1};
Point(p13 + 24) = {13.69736943152513, 1.77137054128132, 0.1};
Point(p13 + 25) = {13.75985792076628, 1.698205920766283, 0.1};
Point(p13 + 26) = {13.83302254128132, 1.635717431525125, 0.1};
Point(p13 + 27) = {13.9150617372937, 1.58544374755037, 0.1};
Point(p13 + 28) = {14.00395543152512, 1.548622773790268, 0.1};
Point(p13 + 29) = {14.09751476620235, 1.526161164820598, 0.1};
Point(p13 + 30) = {14.193436, 1.518612, 0.1};
Point(p13 + 31) = {14.28935723379765, 1.526161164820598, 0.1};
Point(p13 + 32) = {14.38291656847488, 1.548622773790268, 0.1};
Point(p13 + 33) = {14.4718102627063, 1.58544374755037, 0.1};
Point(p13 + 34) = {14.55384945871868, 1.635717431525125, 0.1};
Point(p13 + 35) = {14.62701407923372, 1.698205920766282, 0.1};
Point(p13 + 36) = {14.68950256847488, 1.77137054128132, 0.1};
Point(p13 + 37) = {14.73977625244963, 1.853409737293703, 0.1};
Point(p13 + 38) = {14.77659722620973, 1.942303431525125, 0.1};
Point(p13 + 39) = {14.7990588351794, 2.035862766202352, 0.1};
Spline(13) = {9, p13 + 1, p13 + 2, p13 + 3, p13 + 4, p13 + 5, p13 + 6, p13 + 7, p13 + 8, p13 + 9, p13 + 10, p13 + 11, p13 + 12, p13 + 13, p13 + 14, p13 + 15, p13 + 16, p13 + 17, p13 + 18, p13 + 19, p13 + 20, p13 + 21, p13 + 22, p13 + 23, p13 + 24, p13 + 25, p13 + 26, p13 + 27, p13 + 28, p13 + 29, p13 + 30, p13 + 31, p13 + 32, p13 + 33, p13 + 34, p13 + 35, p13 + 36, p13 + 37, p13 + 38, p13 + 39, 9};
Line(14) = {10, 9};
p15 = newp;
Point(p15 + 1) = {14.7990588351794, 2.227705233797649, 0};
Point(p15 + 2) = {14.77659722620973, 2.321264568474875, 0};
Point(p15 + 3) = {14.73977625244963, 2.410158262706298, 0};
Point(p15 + 4) = {14.68950256847488, 2.49219745871868, 0};
Point(p15 + 5) = {14.62701407923372, 2.565362079233718, 0};
Point(p15 + 6) = {14.55384945871868, 2.627850568474875, 0};
Point(p15 + 7) = {14.4718102627063, 2.67812425244963, 0};
Point(p15 + 8) = {14.38291656847488, 2.714945226209732, 0};
Point(p15 + 9) = {14.28935723379765, 2.737406835179402, 0};
Point(p15 + 10) = {14.193436, 2.744956, 0};
Point(p15 + 11) = {14.09751476620235, 2.737406835179402, 0};
Point(p15 + 12) = {14.00395543152512, 2.714945226209732, 0};
Point(p15 + 13) = {13.9150617372937, 2.67812425244963, 0};
Point(p15 + 14) = {13.83302254128132, 2.627850568474876, 0};
Point(p15 + 15) = {13.75985792076628, 2.565362079233718, 0};
Point(p15 + 16) = {13.69736943152513, 2.49219745871868, 0};
Point(p15 + 17) = {13.64709574755037, 2.410158262706298, 0};
Point(p15 + 18) = {13.61027477379027, 2.321264568474875, 0};
Point(p15 + 19) = {13.5878131648206, 2.227705233797649, 0};
Point(p15 + 20) = {13.580264, 2.131784, 0};
Point(p15 + 21) = {13.5878131648206, 2.035862766202352, 0};
Point(p15 + 22) = {13.61027477379027, 1.942303431525125, 0};
Point(p15 + 23) = {13.64709574755037, 1.853409737293703, 0};
Point(p15 + 24) = {13.69736943152513, 1.77137054128132, 0};
Point(p15 + 25) = {13.75985792076628, 1.698205920766283, 0};
Point(p15 + 26) = {13.83302254128132, 1.635717431525125, 0};
Point(p15 + 27) = {13.9150617372937, 1.58544374755037, 0};
Point(p15 + 28) = {14.00395543152512, 1.548622773790268, 0};
Point(p15 + 29) = {14.09751476620235, 1.526161164820598, 0};
Point(p15 + 30) = {14.193436, 1.518612, 0};
Point(p15 + 31) = {14.28935723379765, 1.526161164820598, 0};
Point(p15 + 32) = {14.38291656847488, 1.548622773790268, 0};
Point(p15 + 33) = {14.4718102627063, 1.58544374755037, 0};
Point(p15 + 34) = {14.55384945871868, 1.635717431525125, 0};
Point(p15 + 35) = {14.62701407923372, 1.698205920766282, 0};
Point(p15 + 36) = {14.68950256847488, 1.77137054128132, 0};
Point(p15 + 37) = {14.73977625244963, 1.853409737293703, 0};
Point(p15 + 38) = {14.77659722620973, 1.942303431525125, 0};
Point(p15 + 39) = {14.7990588351794, 2.035862766202352, 0};
Spline(15) = {10, p15 + 1, p15 + 2, p15 + 3, p15 + 4, p15 + 5, p15 + 6, p15 + 7, p15 + 8, p15 + 9, p15 + 10, p15 + 11, p15 + 12, p15 + 13, p15 + 14, p15 + 15, p15 + 16, p15 + 17, p15 + 18, p15 + 19, p15 + 20, p15 + 21, p15 + 22, p15 + 23, p15 + 24, p15 + 25, p15 + 26, p15 + 27, p15 + 28, p15 + 29, p15 + 30, p15 + 31, p15 + 32, p15 + 33, p15 + 34, p15 + 35, p15 + 36, p15 + 37, p15 + 38, p15 + 39, 10};
p16 = newp;
Point(p16 + 1) = {5.190839015435149, -0.6788956572757551, 0.1};
Point(p16 + 2) = {5.156006326553833, -0.5338070662867838, 0.1};
Point(p16 + 3) = {5.098905629759381, -0.3959537896646614, 0.1};
Point(p16 + 4) = {5.020942933713217, -0.2687302325886194, 0.1};
Point(p16 + 5) = {4.924037938735352, -0.1552690612646487, 0.1};
Point(p16 + 6) = {4.810576767411381, -0.05836406628678381, 0.1};
Point(p16 + 7) = {4.683353210335339, 0.01959862975938031, 0.1};
Point(p16 + 8) = {4.545499933713216, 0.07669932655383338, 0.1};
Point(p16 + 9) = {4.400411342724246, 0.1115320154351481, 0.1};
Point(p16 + 10) = {4.25166, 0.123239, 0.1};
Point(p16 + 11) = {4.102908657275755, 0.111532015435148, 0.1};
Point(p16 + 12) = {3.957820066286784, 0.07669932655383349, 0.1};
Point(p16 + 13) = {3.819966789664662, 0.01959862975938043, 0.1};
Point(p16 + 14) = {3.69274323258862, -0.0583640662867837, 0.1};
Point(p16 + 15) = {3.579282061264649, -0.1552690612646486, 0.1};
Point(p16 + 16) = {3.482377066286784, -0.2687302325886193, 0.1};
Point(p16 + 17) = {3.40441437024062, -0.3959537896646613, 0.1};
Point(p16 + 18) = {3.347313673446167, -0.5338070662867838, 0.1};
Point(p16 + 19) = {3.312480984564852, -0.678895657275755, 0.1};
Point(p16 + 20) = {3.300774, -0.8276469999999999, 0.1};
Point(p16 + 21) = {3.312480984564852, -0.9763983427242449, 0.1};
Point(p16 + 22) = {3.347313673446167, -1.121486933713217, 0.1};
Point(p16 + 23) = {3.40441437024062, -1.259340210335338, 0.1};
Point(p16 + 24) = {3.482377066286784, -1.38656376741138, 0.1};
Point(p16 + 25) = {3.579282061264649, -1.500024938735351, 0.1};
Point(p16 + 26) = {3.69274323258862, -1.596929933713216, 0.1};
Point(p16 + 27) = {3.819966789664662, -1.67489262975938, 0.1};
Point(p16 + 28) = {3.957820066286784, -1.731993326553833, 0.1};
Point(p16 + 29) = {4.102908657275755, -1.766826015435148, 0.1};
Point(p16 + 30) = {4.25166, -1.778533, 0.1};
Point(p16 + 31) = {4.400411342724245, -1.766826015435148, 0.1};
Point(p16 + 32) = {4.545499933713216, -1.731993326553833, 0.1};
Point(p16 + 33) = {4.683353210335339, -1.67489262975938, 0.1};
Point(p16 + 34) = {4.810576767411381, -1.596929933713216, 0.1};
Point(p16 + 35) = {4.924037938735352, -1.500024938735351, 0.1};
Point(p16 + 36) = {5.020942933713217, -1.386563767411381, 0.1};
Point(p16 + 37) = {5.098905629759381, -1.259340210335339, 0.1};
Point(p16 + 38) = {5.156006326553833, -1.121486933713217, 0.1};
Point(p16 + 39) = {5.190839015435149, -0.9763983427242452, 0.1};
Spline(16) = {11, p16 + 1, p16 + 2, p16 + 3, p16 + 4, p16 + 5, p16 + 6, p16 + 7, p16 + 8, p16 + 9, p16 + 10, p16 + 11, p16 + 12, p16 + 13, p16 + 14, p16 + 15, p16 + 16, p16 + 17, p16 + 18, p16 + 19, p16 + 20, p16 + 21, p16 + 22, p16 + 23, p16 + 24, p16 + 25, p16 + 26, p16 + 27, p16 + 28, p16 + 29, p16 + 30, p16 + 31, p16 + 32, p16 + 33, p16 + 34, p16 + 35, p16 + 36, p16 + 37, p16 + 38, p16 + 39, 11};
Line(17) = {12, 11};
p18 = newp;
Point(p18 + 1) = {5.190839015435149, -0.6788956572757551, 0};
Point(p18 + 2) = {5.156006326553833, -0.5338070662867838, 0};
Point(p18 + 3) = {5.098905629759381, -0.3959537896646614, 0};
Point(p18 + 4) = {5.020942933713217, -0.2687302325886194, 0};
Point(p18 + 5) = {4.924037938735352, -0.1552690612646487, 0};
Point(p18 + 6) = {4.810576767411381, -0.05836406628678381, 0};
Point(p18 + 7) = {4.683353210335339, 0.01959862975938031, 0};
Point(p18 + 8) = {4.545499933713216, 0.07669932655383338, 0};
Point(p18 + 9) = {4.400411342724246, 0.1115320154351481, 0};
Point(p18 + 10) = {4.25166, 0.123239, 0};
Point(p18 + 11) = {4.102908657275755, 0.111532015435148, 0};
Point(p18 + 12) = {3.957820066286784, 0.07669932655383349, 0};
Point(p18 + 13) = {3.819966789664662, 0.01959862975938043, 0};
Point(p18 + 14) = {3.69274323258862, -0.0583640662867837, 0};
Point(p18 + 15) = {3.579282061264649, -0.1552690612646486, 0};
Point(p18 + 16) = {3.482377066286784, -0.2687302325886193, 0};
Point(p18 + 17) = {3.40441437024062, -0.3959537896646613, 0};
Point(p18 + 18) = {3.347313673446167, -0.5338070662867838, 0};
Point(p18 + 19) = {3.312480984564852, -0.678895657275755, 0};
Point(p18 + 20) = {3.300774, -0.8276469999999999, 0};
Point(p18 + 21) = {3.312480984564852, -0.9763983427242449, 0};
Point(p18 + 22) = {3.347313673446167, -1.121486933713217, 0};
Point(p18 + 23) = {3.40441437024062, -1.259340210335338, 0};
Point(p18 + 24) = {3.482377066286784, -1.38656376741138, 0};
Point(p18 + 25) = {3.579282061264649, -1.500024938735351, 0};
Point(p18 + 26) = {3.69274323258862, -1.596929933713216, 0};
Point(p18 + 27) = {3.819966789664662, -1.67489262975938, 0};
Point(p18 + 28) = {3.957820066286784, -1.731993326553833, 0};
Point(p18 + 29) = {4.102908657275755, -1.766826015435148, 0};
Point(p18 + 30) = {4.25166, -1.778533, 0};
Point(p18 + 31) = {4.400411342724245, -1.766826015435148, 0};
Point(p18 + 32) = {4.545499933713216, -1.731993326553833, 0};
Point(p18 + 33) = {4.683353210335339, -1.67489262975938, 0};
Point(p18 + 34) = {4.810576767411381, -1.596929933713216, 0};
Point(p18 + 35) = {4.924037938735352, -1.500024938735351, 0};
Point(p18 + 36) = {5.020942933713217, -1.386563767411381, 0};
Point(p18 + 37) = {5.098905629759381, -1.259340210335339, 0};
Point(p18 + 38) = {5.156006326553833, -1.121486933713217, 0};
Point(p18 + 39) = {5.190839015435149, -0.9763983427242452, 0};
Spline(18) = {12, p18 + 1, p18 + 2, p18 + 3, p18 + 4, p18 + 5, p18 + 6, p18 + 7, p18 + 8, p18 + 9, p18 + 10, p18 + 11, p18 + 12, p18 + 13, p18 + 14, p18 + 15, p18 + 16, p18 + 17, p18 + 18, p18 + 19, p18 + 20, p18 + 21, p18 + 22, p18 + 23, p18 + 24, p18 + 25, p18 + 26, p18 + 27, p18 + 28, p18 + 29, p18 + 30, p18 + 31, p18 + 32, p18 + 33, p18 + 34, p18 + 35, p18 + 36, p18 + 37, p18 + 38, p18 + 39, 12};
Line(19) = {14, 13};
Line(20) = {13, 15};
Line(21) = {16, 15};
Line(22) = {14, 16};
Line(23) = {14, 17};
Line(24) = {17, 18};
Line(25) = {13, 18};
Line(26) = {15, 19};
Line(27) = {18, 19};
Line(28) = {16, 20};
Line(29) = {20, 19};
Line(30) = {17, 20};
Curve Loop(7) = {-13, -14, 15, 14};
Surface(7) = {7};
Curve Loop(8) = {13};
Plane Surface(8) = {8};
Curve Loop(9) = {15};
Plane Surface(9) = {9};
Curve Loop(10) = {-16, -17, 18, 17};
Surface(10) = {10};
Curve Loop(11) = {16};
Plane Surface(11) = {11};
Curve Loop(12) = {18};
Plane Surface(12) = {12};
Curve Loop(13) = {-19, 22, 21, -20};
Plane Surface(13) = {13};
Curve Loop(14) = {-23, 19, 25, -24};
Plane Surface(14) = {14};
Curve Loop(15) = {-20, 25, 27, -26};
Plane Surface(15) = {15};
Curve Loop(16) = {-28, 21, 26, -29};
Plane Surface(16) = {16};
Curve Loop(17) = {-22, 23, 30, -28, -18, -15};
Plane Surface(17) = {17};
Curve Loop(18) = {-24, 30, 29, -27};
Plane Surface(18) = {18};
Surface Loop(1) = {13, 14, 15, 16, 17, 18, 10, 7, 11, 8};
Volume(1) = {1};
Surface Loop(2) = {7, 8, 9};
Volume(2) = {2};
Surface Loop(3) = {10, 11, 12};
Volume(3) = {3};
Physical Surface("WALLS") = {13, 18};
Physical Surface("LOAD") = {8, 11};
Physical Surface("BORDER") = {7, 9, 10, 12, 14, 15, 16, 17};
Physical Volume("SOLID") = {1, 2, 3};
