cl__1 = 0.081912;
cl__2 = 0.08841499999999999;
cl__3 = 0.175407;
cl__4 = 0.432349;
cl__5 = 4.844638;
cl__6 = 4.914437;
Point(9) = {15.549475, 0.4825389999999998, 0.1, cl__1};
Point(10) = {15.549475, 0.4825389999999998, 0, cl__1};
Point(11) = {4.732775, -1.641993, 0.1, cl__2};
Point(12) = {4.732775, -1.641993, 0, cl__2};
Point(13) = {0.7342, -3.05268, 1, cl__3};
Point(14) = {0.7342, -3.05268, 0, cl__3};
Point(15) = {0.7342, 4.774234999999999, 1, cl__4};
Point(16) = {0.7342, 4.774234999999999, 0, cl__4};
Point(17) = {39.753742, -3.05268, 0, cl__5};
Point(18) = {39.753742, -3.05268, 1, cl__5};
Point(19) = {39.753742, 4.774234999999999, 1, cl__6};
Point(20) = {39.753742, 4.774234999999999, 0, cl__6};
p13 = newp;
Point(p13 + 1) = {15.53939032279493, 0.6106769732658938, 0.1};
Point(p13 + 2) = {15.50938460940162, 0.7356597643644294, 0.1};
Point(p13 + 3) = {15.46019670006708, 0.8544098821846586, 0.1};
Point(p13 + 4) = {15.39303776436443, 0.9640033047168014, 0.1};
Point(p13 + 5) = {15.3095614781784, 1.0617414781784, 0.1};
Point(p13 + 6) = {15.2118233047168, 1.145217764364429, 0.1};
Point(p13 + 7) = {15.10222988218466, 1.212376700067079, 0.1};
Point(p13 + 8) = {14.98347976436443, 1.261564609401621, 0.1};
Point(p13 + 9) = {14.85849697326589, 1.291570322794927, 0.1};
Point(p13 + 10) = {14.730359, 1.301655, 0.1};
Point(p13 + 11) = {14.60222102673411, 1.291570322794927, 0.1};
Point(p13 + 12) = {14.47723823563557, 1.261564609401621, 0.1};
Point(p13 + 13) = {14.35848811781534, 1.212376700067079, 0.1};
Point(p13 + 14) = {14.2488946952832, 1.145217764364429, 0.1};
Point(p13 + 15) = {14.1511565218216, 1.0617414781784, 0.1};
Point(p13 + 16) = {14.06768023563557, 0.9640033047168015, 0.1};
Point(p13 + 17) = {14.00052129993292, 0.8544098821846586, 0.1};
Point(p13 + 18) = {13.95133339059838, 0.7356597643644295, 0.1};
Point(p13 + 19) = {13.92132767720507, 0.6106769732658939, 0.1};
Point(p13 + 20) = {13.911243, 0.4825390000000001, 0.1};
Point(p13 + 21) = {13.92132767720507, 0.3544010267341063, 0.1};
Point(p13 + 22) = {13.95133339059838, 0.2294182356355703, 0.1};
Point(p13 + 23) = {14.00052129993292, 0.1106681178153418, 0.1};
Point(p13 + 24) = {14.06768023563557, 0.001074695283198701, 0.1};
Point(p13 + 25) = {14.1511565218216, -0.09666347817839999, 0.1};
Point(p13 + 26) = {14.2488946952832, -0.1801397643644293, 0.1};
Point(p13 + 27) = {14.35848811781534, -0.247298700067079, 0.1};
Point(p13 + 28) = {14.47723823563557, -0.2964866094016209, 0.1};
Point(p13 + 29) = {14.60222102673411, -0.3264923227949267, 0.1};
Point(p13 + 30) = {14.730359, -0.336577, 0.1};
Point(p13 + 31) = {14.85849697326589, -0.3264923227949268, 0.1};
Point(p13 + 32) = {14.98347976436443, -0.296486609401621, 0.1};
Point(p13 + 33) = {15.10222988218466, -0.2472987000670793, 0.1};
Point(p13 + 34) = {15.2118233047168, -0.1801397643644295, 0.1};
Point(p13 + 35) = {15.3095614781784, -0.09666347817840021, 0.1};
Point(p13 + 36) = {15.39303776436443, 0.001074695283198479, 0.1};
Point(p13 + 37) = {15.46019670006708, 0.1106681178153412, 0.1};
Point(p13 + 38) = {15.50938460940162, 0.2294182356355704, 0.1};
Point(p13 + 39) = {15.53939032279493, 0.3544010267341061, 0.1};
Spline(13) = {9, p13 + 1, p13 + 2, p13 + 3, p13 + 4, p13 + 5, p13 + 6, p13 + 7, p13 + 8, p13 + 9, p13 + 10, p13 + 11, p13 + 12, p13 + 13, p13 + 14, p13 + 15, p13 + 16, p13 + 17, p13 + 18, p13 + 19, p13 + 20, p13 + 21, p13 + 22, p13 + 23, p13 + 24, p13 + 25, p13 + 26, p13 + 27, p13 + 28, p13 + 29, p13 + 30, p13 + 31, p13 + 32, p13 + 33, p13 + 34, p13 + 35, p13 + 36, p13 + 37, p13 + 38, p13 + 39, 9};
Line(14) = {10, 9};
p15 = newp;
Point(p15 + 1) = {15.53939032279493, 0.6106769732658938, 0};
Point(p15 + 2) = {15.50938460940162, 0.7356597643644294, 0};
Point(p15 + 3) = {15.46019670006708, 0.8544098821846586, 0};
Point(p15 + 4) = {15.39303776436443, 0.9640033047168014, 0};
Point(p15 + 5) = {15.3095614781784, 1.0617414781784, 0};
Point(p15 + 6) = {15.2118233047168, 1.145217764364429, 0};
Point(p15 + 7) = {15.10222988218466, 1.212376700067079, 0};
Point(p15 + 8) = {14.98347976436443, 1.261564609401621, 0};
Point(p15 + 9) = {14.85849697326589, 1.291570322794927, 0};
Point(p15 + 10) = {14.730359, 1.301655, 0};
Point(p15 + 11) = {14.60222102673411, 1.291570322794927, 0};
Point(p15 + 12) = {14.47723823563557, 1.261564609401621, 0};
Point(p15 + 13) = {14.35848811781534, 1.212376700067079, 0};
Point(p15 + 14) = {14.2488946952832, 1.145217764364429, 0};
Point(p15 + 15) = {14.1511565218216, 1.0617414781784, 0};
Point(p15 + 16) = {14.06768023563557, 0.9640033047168015, 0};
Point(p15 + 17) = {14.00052129993292, 0.8544098821846586, 0};
Point(p15 + 18) = {13.95133339059838, 0.7356597643644295, 0};
Point(p15 + 19) = {13.92132767720507, 0.6106769732658939, 0};
Point(p15 + 20) = {13.911243, 0.4825390000000001, 0};
Point(p15 + 21) = {13.92132767720507, 0.3544010267341063, 0};
Point(p15 + 22) = {13.95133339059838, 0.2294182356355703, 0};
Point(p15 + 23) = {14.00052129993292, 0.1106681178153418, 0};
Point(p15 + 24) = {14.06768023563557, 0.001074695283198701, 0};
Point(p15 + 25) = {14.1511565218216, -0.09666347817839999, 0};
Point(p15 + 26) = {14.2488946952832, -0.1801397643644293, 0};
Point(p15 + 27) = {14.35848811781534, -0.247298700067079, 0};
Point(p15 + 28) = {14.47723823563557, -0.2964866094016209, 0};
Point(p15 + 29) = {14.60222102673411, -0.3264923227949267, 0};
Point(p15 + 30) = {14.730359, -0.336577, 0};
Point(p15 + 31) = {14.85849697326589, -0.3264923227949268, 0};
Point(p15 + 32) = {14.98347976436443, -0.296486609401621, 0};
Point(p15 + 33) = {15.10222988218466, -0.2472987000670793, 0};
Point(p15 + 34) = {15.2118233047168, -0.1801397643644295, 0};
Point(p15 + 35) = {15.3095614781784, -0.09666347817840021, 0};
Point(p15 + 36) = {15.39303776436443, 0.001074695283198479, 0};
Point(p15 + 37) = {15.46019670006708, 0.1106681178153412, 0};
Point(p15 + 38) = {15.50938460940162, 0.2294182356355704, 0};
Point(p15 + 39) = {15.53939032279493, 0.3544010267341061, 0};
Spline(15) = {10, p15 + 1, p15 + 2, p15 + 3, p15 + 4, p15 + 5, p15 + 6, p15 + 7, p15 + 8, p15 + 9, p15 + 10, p15 + 11, p15 + 12, p15 + 13, p15 + 14, p15 + 15, p15 + 16, p15 + 17, p15 + 18, p15 + 19, p15 + 20, p15 + 21, p15 + 22, p15 + 23, p15 + 24, p15 + 25, p15 + 26, p15 + 27, p15 + 28, p15 + 29, p15 + 30, p15 + 31, p15 + 32, p15 + 33, p15 + 34, p15 + 35, p15 + 36, p15 + 37, p15 + 38, p15 + 39, 10};
p16 = newp;
Point(p16 + 1) = {4.721889646337191, -1.50368146773468, 0.1};
Point(p16 + 2) = {4.68950161888236, -1.36877562442339, 0.1};
Point(p16 + 3) = {4.636408418361146, -1.24059729965528, 0.1};
Point(p16 + 4) = {4.56391737557661, -1.12230266918561, 0.1};
Point(p16 + 5) = {4.473813460586086, -1.016804539413914, 0.1};
Point(p16 + 6) = {4.36831533081439, -0.9267006244233904, 0.1};
Point(p16 + 7) = {4.25002070034472, -0.8542095816388546, 0.1};
Point(p16 + 8) = {4.12184237557661, -0.8011163811176401, 0.1};
Point(p16 + 9) = {3.98693653226532, -0.768728353662809, 0.1};
Point(p16 + 10) = {3.848625, -0.757843, 0.1};
Point(p16 + 11) = {3.71031346773468, -0.7687283536628091, 0.1};
Point(p16 + 12) = {3.575407624423391, -0.8011163811176399, 0.1};
Point(p16 + 13) = {3.44722929965528, -0.8542095816388545, 0.1};
Point(p16 + 14) = {3.32893466918561, -0.9267006244233903, 0.1};
Point(p16 + 15) = {3.223436539413914, -1.016804539413914, 0.1};
Point(p16 + 16) = {3.133332624423391, -1.12230266918561, 0.1};
Point(p16 + 17) = {3.060841581638855, -1.24059729965528, 0.1};
Point(p16 + 18) = {3.00774838111764, -1.36877562442339, 0.1};
Point(p16 + 19) = {2.975360353662809, -1.50368146773468, 0.1};
Point(p16 + 20) = {2.964475, -1.641993, 0.1};
Point(p16 + 21) = {2.975360353662809, -1.78030453226532, 0.1};
Point(p16 + 22) = {3.00774838111764, -1.91521037557661, 0.1};
Point(p16 + 23) = {3.060841581638854, -2.04338870034472, 0.1};
Point(p16 + 24) = {3.133332624423391, -2.16168333081439, 0.1};
Point(p16 + 25) = {3.223436539413914, -2.267181460586086, 0.1};
Point(p16 + 26) = {3.32893466918561, -2.35728537557661, 0.1};
Point(p16 + 27) = {3.44722929965528, -2.429776418361145, 0.1};
Point(p16 + 28) = {3.57540762442339, -2.48286961888236, 0.1};
Point(p16 + 29) = {3.71031346773468, -2.515257646337191, 0.1};
Point(p16 + 30) = {3.848625, -2.526143, 0.1};
Point(p16 + 31) = {3.98693653226532, -2.515257646337191, 0.1};
Point(p16 + 32) = {4.12184237557661, -2.48286961888236, 0.1};
Point(p16 + 33) = {4.25002070034472, -2.429776418361146, 0.1};
Point(p16 + 34) = {4.36831533081439, -2.35728537557661, 0.1};
Point(p16 + 35) = {4.473813460586086, -2.267181460586086, 0.1};
Point(p16 + 36) = {4.56391737557661, -2.16168333081439, 0.1};
Point(p16 + 37) = {4.636408418361146, -2.043388700344721, 0.1};
Point(p16 + 38) = {4.68950161888236, -1.91521037557661, 0.1};
Point(p16 + 39) = {4.721889646337191, -1.78030453226532, 0.1};
Spline(16) = {11, p16 + 1, p16 + 2, p16 + 3, p16 + 4, p16 + 5, p16 + 6, p16 + 7, p16 + 8, p16 + 9, p16 + 10, p16 + 11, p16 + 12, p16 + 13, p16 + 14, p16 + 15, p16 + 16, p16 + 17, p16 + 18, p16 + 19, p16 + 20, p16 + 21, p16 + 22, p16 + 23, p16 + 24, p16 + 25, p16 + 26, p16 + 27, p16 + 28, p16 + 29, p16 + 30, p16 + 31, p16 + 32, p16 + 33, p16 + 34, p16 + 35, p16 + 36, p16 + 37, p16 + 38, p16 + 39, 11};
Line(17) = {12, 11};
p18 = newp;
Point(p18 + 1) = {4.721889646337191, -1.50368146773468, 0};
Point(p18 + 2) = {4.68950161888236, -1.36877562442339, 0};
Point(p18 + 3) = {4.636408418361146, -1.24059729965528, 0};
Point(p18 + 4) = {4.56391737557661, -1.12230266918561, 0};
Point(p18 + 5) = {4.473813460586086, -1.016804539413914, 0};
Point(p18 + 6) = {4.36831533081439, -0.9267006244233904, 0};
Point(p18 + 7) = {4.25002070034472, -0.8542095816388546, 0};
Point(p18 + 8) = {4.12184237557661, -0.8011163811176401, 0};
Point(p18 + 9) = {3.98693653226532, -0.768728353662809, 0};
Point(p18 + 10) = {3.848625, -0.757843, 0};
Point(p18 + 11) = {3.71031346773468, -0.7687283536628091, 0};
Point(p18 + 12) = {3.575407624423391, -0.8011163811176399, 0};
Point(p18 + 13) = {3.44722929965528, -0.8542095816388545, 0};
Point(p18 + 14) = {3.32893466918561, -0.9267006244233903, 0};
Point(p18 + 15) = {3.223436539413914, -1.016804539413914, 0};
Point(p18 + 16) = {3.133332624423391, -1.12230266918561, 0};
Point(p18 + 17) = {3.060841581638855, -1.24059729965528, 0};
Point(p18 + 18) = {3.00774838111764, -1.36877562442339, 0};
Point(p18 + 19) = {2.975360353662809, -1.50368146773468, 0};
Point(p18 + 20) = {2.964475, -1.641993, 0};
Point(p18 + 21) = {2.975360353662809, -1.78030453226532, 0};
Point(p18 + 22) = {3.00774838111764, -1.91521037557661, 0};
Point(p18 + 23) = {3.060841581638854, -2.04338870034472, 0};
Point(p18 + 24) = {3.133332624423391, -2.16168333081439, 0};
Point(p18 + 25) = {3.223436539413914, -2.267181460586086, 0};
Point(p18 + 26) = {3.32893466918561, -2.35728537557661, 0};
Point(p18 + 27) = {3.44722929965528, -2.429776418361145, 0};
Point(p18 + 28) = {3.57540762442339, -2.48286961888236, 0};
Point(p18 + 29) = {3.71031346773468, -2.515257646337191, 0};
Point(p18 + 30) = {3.848625, -2.526143, 0};
Point(p18 + 31) = {3.98693653226532, -2.515257646337191, 0};
Point(p18 + 32) = {4.12184237557661, -2.48286961888236, 0};
Point(p18 + 33) = {4.25002070034472, -2.429776418361146, 0};
Point(p18 + 34) = {4.36831533081439, -2.35728537557661, 0};
Point(p18 + 35) = {4.473813460586086, -2.267181460586086, 0};
Point(p18 + 36) = {4.56391737557661, -2.16168333081439, 0};
Point(p18 + 37) = {4.636408418361146, -2.043388700344721, 0};
Point(p18 + 38) = {4.68950161888236, -1.91521037557661, 0};
Point(p18 + 39) = {4.721889646337191, -1.78030453226532, 0};
Spline(18) = {12, p18 + 1, p18 + 2, p18 + 3, p18 + 4, p18 + 5, p18 + 6, p18 + 7, p18 + 8, p18 + 9, p18 + 10, p18 + 11, p18 + 12, p18 + 13, p18 + 14, p18 + 15, p18 + 16, p18 + 17, p18 + 18, p18 + 19, p18 + 20, p18 + 21, p18 + 22, p18 + 23, p18 + 24, p18 + 25, p18 + 26, p18 + 27, p18 + 28, p18 + 29, p18 + 30, p18 + 31, p18 + 32, p18 + 33, p18 + 34, p18 + 35, p18 + 36, p18 + 37, p18 + 38, p18 + 39, 12};
Line(19) = {14, 13};
Line(20) = {13, 15};
Line(21) = {16, 15};
Line(22) = {14, 16};
Line(23) = {14, 17};
Line(24) = {17, 18};
Line(25) = {13, 18};
Line(26) = {15, 19};
Line(27) = {18, 19};
Line(28) = {16, 20};
Line(29) = {20, 19};
Line(30) = {17, 20};
Curve Loop(7) = {-13, -14, 15, 14};
Surface(7) = {7};
Curve Loop(8) = {13};
Plane Surface(8) = {8};
Curve Loop(9) = {15};
Plane Surface(9) = {9};
Curve Loop(10) = {-16, -17, 18, 17};
Surface(10) = {10};
Curve Loop(11) = {16};
Plane Surface(11) = {11};
Curve Loop(12) = {18};
Plane Surface(12) = {12};
Curve Loop(13) = {-19, 22, 21, -20};
Plane Surface(13) = {13};
Curve Loop(14) = {-23, 19, 25, -24};
Plane Surface(14) = {14};
Curve Loop(15) = {-20, 25, 27, -26};
Plane Surface(15) = {15};
Curve Loop(16) = {-28, 21, 26, -29};
Plane Surface(16) = {16};
Curve Loop(17) = {-22, 23, 30, -28, -18, -15};
Plane Surface(17) = {17};
Curve Loop(18) = {-24, 30, 29, -27};
Plane Surface(18) = {18};
Surface Loop(1) = {13, 14, 15, 16, 17, 18, 10, 7, 11, 8};
Volume(1) = {1};
Surface Loop(2) = {7, 8, 9};
Volume(2) = {2};
Surface Loop(3) = {10, 11, 12};
Volume(3) = {3};
Physical Surface("WALLS") = {13, 18};
Physical Surface("LOAD") = {8, 11};
Physical Surface("BORDER") = {7, 9, 10, 12, 14, 15, 16, 17};
Physical Volume("SOLID") = {1, 2, 3};
