cl__1 = 0.122723;
cl__2 = 0.051644;
cl__3 = 4.981221;
cl__4 = 4.940833;
cl__5 = 0.325723;
cl__6 = 0.26324;
Point(9) = {32.167095, 0.4207659999999997, 0.1, cl__1};
Point(10) = {32.167095, 0.4207659999999997, 0, cl__1};
Point(11) = {34.05698, 0.8340359999999999, 0.1, cl__2};
Point(12) = {34.05698, 0.8340359999999999, 0, cl__2};
Point(13) = {0.696072, -4.171959, 1, cl__3};
Point(14) = {0.696072, -4.171959, 0, cl__3};
Point(15) = {0.696072, 4.449545, 1, cl__4};
Point(16) = {0.696072, 4.449545, 0, cl__4};
Point(17) = {37.055362, -4.171959, 0, cl__5};
Point(18) = {37.055362, -4.171959, 1, cl__5};
Point(19) = {37.055362, 4.449545, 1, cl__6};
Point(20) = {37.055362, 4.449545, 0, cl__6};
p13 = newp;
Point(p13 + 1) = {32.15198570067027, 0.6127478507036477, 0.1};
Point(p13 + 2) = {32.10702984377548, 0.8000024710917386, 0.1};
Point(p13 + 3) = {32.03333439171231, 0.9779190309478627, 0.1};
Point(p13 + 4) = {31.93271397109174, 1.142116634097153, 0.1};
Point(p13 + 5) = {31.80764619060947, 1.288552190609473, 0.1};
Point(p13 + 6) = {31.66121063409715, 1.413619971091739, 0.1};
Point(p13 + 7) = {31.49701303094786, 1.514240391712312, 0.1};
Point(p13 + 8) = {31.31909647109174, 1.587935843775483, 0.1};
Point(p13 + 9) = {31.13184185070365, 1.632891700670274, 0.1};
Point(p13 + 10) = {30.93986, 1.648001, 0.1};
Point(p13 + 11) = {30.74787814929635, 1.632891700670274, 0.1};
Point(p13 + 12) = {30.56062352890826, 1.587935843775483, 0.1};
Point(p13 + 13) = {30.38270696905214, 1.514240391712312, 0.1};
Point(p13 + 14) = {30.21850936590285, 1.413619971091739, 0.1};
Point(p13 + 15) = {30.07207380939053, 1.288552190609473, 0.1};
Point(p13 + 16) = {29.94700602890826, 1.142116634097154, 0.1};
Point(p13 + 17) = {29.84638560828769, 0.9779190309478628, 0.1};
Point(p13 + 18) = {29.77269015622452, 0.8000024710917387, 0.1};
Point(p13 + 19) = {29.72773429932973, 0.6127478507036479, 0.1};
Point(p13 + 20) = {29.712625, 0.4207660000000001, 0.1};
Point(p13 + 21) = {29.72773429932973, 0.2287841492963524, 0.1};
Point(p13 + 22) = {29.77269015622452, 0.04152952890826095, 0.1};
Point(p13 + 23) = {29.84638560828769, -0.1363870309478622, 0.1};
Point(p13 + 24) = {29.94700602890826, -0.3005846340971532, 0.1};
Point(p13 + 25) = {30.07207380939053, -0.4470201906094726, 0.1};
Point(p13 + 26) = {30.21850936590285, -0.5720879710917386, 0.1};
Point(p13 + 27) = {30.38270696905214, -0.6727083917123116, 0.1};
Point(p13 + 28) = {30.56062352890826, -0.7464038437754827, 0.1};
Point(p13 + 29) = {30.74787814929635, -0.7913597006702739, 0.1};
Point(p13 + 30) = {30.93986, -0.8064690000000001, 0.1};
Point(p13 + 31) = {31.13184185070365, -0.7913597006702739, 0.1};
Point(p13 + 32) = {31.31909647109174, -0.746403843775483, 0.1};
Point(p13 + 33) = {31.49701303094786, -0.672708391712312, 0.1};
Point(p13 + 34) = {31.66121063409715, -0.5720879710917388, 0.1};
Point(p13 + 35) = {31.80764619060947, -0.447020190609473, 0.1};
Point(p13 + 36) = {31.93271397109174, -0.3005846340971535, 0.1};
Point(p13 + 37) = {32.03333439171231, -0.136387030947863, 0.1};
Point(p13 + 38) = {32.10702984377548, 0.04152952890826112, 0.1};
Point(p13 + 39) = {32.15198570067027, 0.2287841492963519, 0.1};
Spline(13) = {9, p13 + 1, p13 + 2, p13 + 3, p13 + 4, p13 + 5, p13 + 6, p13 + 7, p13 + 8, p13 + 9, p13 + 10, p13 + 11, p13 + 12, p13 + 13, p13 + 14, p13 + 15, p13 + 16, p13 + 17, p13 + 18, p13 + 19, p13 + 20, p13 + 21, p13 + 22, p13 + 23, p13 + 24, p13 + 25, p13 + 26, p13 + 27, p13 + 28, p13 + 29, p13 + 30, p13 + 31, p13 + 32, p13 + 33, p13 + 34, p13 + 35, p13 + 36, p13 + 37, p13 + 38, p13 + 39, 9};
Line(14) = {10, 9};
p15 = newp;
Point(p15 + 1) = {32.15198570067027, 0.6127478507036477, 0};
Point(p15 + 2) = {32.10702984377548, 0.8000024710917386, 0};
Point(p15 + 3) = {32.03333439171231, 0.9779190309478627, 0};
Point(p15 + 4) = {31.93271397109174, 1.142116634097153, 0};
Point(p15 + 5) = {31.80764619060947, 1.288552190609473, 0};
Point(p15 + 6) = {31.66121063409715, 1.413619971091739, 0};
Point(p15 + 7) = {31.49701303094786, 1.514240391712312, 0};
Point(p15 + 8) = {31.31909647109174, 1.587935843775483, 0};
Point(p15 + 9) = {31.13184185070365, 1.632891700670274, 0};
Point(p15 + 10) = {30.93986, 1.648001, 0};
Point(p15 + 11) = {30.74787814929635, 1.632891700670274, 0};
Point(p15 + 12) = {30.56062352890826, 1.587935843775483, 0};
Point(p15 + 13) = {30.38270696905214, 1.514240391712312, 0};
Point(p15 + 14) = {30.21850936590285, 1.413619971091739, 0};
Point(p15 + 15) = {30.07207380939053, 1.288552190609473, 0};
Point(p15 + 16) = {29.94700602890826, 1.142116634097154, 0};
Point(p15 + 17) = {29.84638560828769, 0.9779190309478628, 0};
Point(p15 + 18) = {29.77269015622452, 0.8000024710917387, 0};
Point(p15 + 19) = {29.72773429932973, 0.6127478507036479, 0};
Point(p15 + 20) = {29.712625, 0.4207660000000001, 0};
Point(p15 + 21) = {29.72773429932973, 0.2287841492963524, 0};
Point(p15 + 22) = {29.77269015622452, 0.04152952890826095, 0};
Point(p15 + 23) = {29.84638560828769, -0.1363870309478622, 0};
Point(p15 + 24) = {29.94700602890826, -0.3005846340971532, 0};
Point(p15 + 25) = {30.07207380939053, -0.4470201906094726, 0};
Point(p15 + 26) = {30.21850936590285, -0.5720879710917386, 0};
Point(p15 + 27) = {30.38270696905214, -0.6727083917123116, 0};
Point(p15 + 28) = {30.56062352890826, -0.7464038437754827, 0};
Point(p15 + 29) = {30.74787814929635, -0.7913597006702739, 0};
Point(p15 + 30) = {30.93986, -0.8064690000000001, 0};
Point(p15 + 31) = {31.13184185070365, -0.7913597006702739, 0};
Point(p15 + 32) = {31.31909647109174, -0.746403843775483, 0};
Point(p15 + 33) = {31.49701303094786, -0.672708391712312, 0};
Point(p15 + 34) = {31.66121063409715, -0.5720879710917388, 0};
Point(p15 + 35) = {31.80764619060947, -0.447020190609473, 0};
Point(p15 + 36) = {31.93271397109174, -0.3005846340971535, 0};
Point(p15 + 37) = {32.03333439171231, -0.136387030947863, 0};
Point(p15 + 38) = {32.10702984377548, 0.04152952890826112, 0};
Point(p15 + 39) = {32.15198570067027, 0.2287841492963519, 0};
Spline(15) = {10, p15 + 1, p15 + 2, p15 + 3, p15 + 4, p15 + 5, p15 + 6, p15 + 7, p15 + 8, p15 + 9, p15 + 10, p15 + 11, p15 + 12, p15 + 13, p15 + 14, p15 + 15, p15 + 16, p15 + 17, p15 + 18, p15 + 19, p15 + 20, p15 + 21, p15 + 22, p15 + 23, p15 + 24, p15 + 25, p15 + 26, p15 + 27, p15 + 28, p15 + 29, p15 + 30, p15 + 31, p15 + 32, p15 + 33, p15 + 34, p15 + 35, p15 + 36, p15 + 37, p15 + 38, p15 + 39, 10};
p16 = newp;
Point(p16 + 1) = {34.05062182817525, 0.9148242329530516, 0.1};
Point(p16 + 2) = {34.03170387199289, 0.993623191490026, 0.1};
Point(p16 + 3) = {34.00069195431922, 1.068492583732993, 0.1};
Point(p16 + 4) = {33.95834969149003, 1.137588876767663, 0.1};
Point(p16 + 5) = {33.90571969054208, 1.199210690542075, 0.1};
Point(p16 + 6) = {33.84409787676766, 1.251840691490026, 0.1};
Point(p16 + 7) = {33.77500158373299, 1.29418295431922, 0.1};
Point(p16 + 8) = {33.70013219149003, 1.325194871992888, 0.1};
Point(p16 + 9) = {33.62133323295306, 1.34411282817525, 0.1};
Point(p16 + 10) = {33.540545, 1.350471, 0.1};
Point(p16 + 11) = {33.45975676704695, 1.34411282817525, 0.1};
Point(p16 + 12) = {33.38095780850998, 1.325194871992888, 0.1};
Point(p16 + 13) = {33.30608841626701, 1.29418295431922, 0.1};
Point(p16 + 14) = {33.23699212323234, 1.251840691490026, 0.1};
Point(p16 + 15) = {33.17537030945793, 1.199210690542075, 0.1};
Point(p16 + 16) = {33.12274030850998, 1.137588876767663, 0.1};
Point(p16 + 17) = {33.08039804568078, 1.068492583732993, 0.1};
Point(p16 + 18) = {33.04938612800711, 0.993623191490026, 0.1};
Point(p16 + 19) = {33.03046817182475, 0.9148242329530517, 0.1};
Point(p16 + 20) = {33.02411, 0.8340360000000001, 0.1};
Point(p16 + 21) = {33.03046817182475, 0.7532477670469484, 0.1};
Point(p16 + 22) = {33.04938612800711, 0.6744488085099739, 0.1};
Point(p16 + 23) = {33.08039804568078, 0.5995794162670074, 0.1};
Point(p16 + 24) = {33.12274030850998, 0.5304831232323367, 0.1};
Point(p16 + 25) = {33.17537030945793, 0.4688613094579254, 0.1};
Point(p16 + 26) = {33.23699212323234, 0.4162313085099741, 0.1};
Point(p16 + 27) = {33.30608841626701, 0.3738890456807803, 0.1};
Point(p16 + 28) = {33.38095780850998, 0.3428771280071124, 0.1};
Point(p16 + 29) = {33.45975676704695, 0.3239591718247501, 0.1};
Point(p16 + 30) = {33.540545, 0.317601, 0.1};
Point(p16 + 31) = {33.62133323295306, 0.3239591718247501, 0.1};
Point(p16 + 32) = {33.70013219149003, 0.3428771280071123, 0.1};
Point(p16 + 33) = {33.77500158373299, 0.3738890456807802, 0.1};
Point(p16 + 34) = {33.84409787676766, 0.416231308509974, 0.1};
Point(p16 + 35) = {33.90571969054208, 0.4688613094579253, 0.1};
Point(p16 + 36) = {33.95834969149003, 0.5304831232323366, 0.1};
Point(p16 + 37) = {34.00069195431922, 0.5995794162670071, 0.1};
Point(p16 + 38) = {34.03170387199289, 0.6744488085099739, 0.1};
Point(p16 + 39) = {34.05062182817525, 0.7532477670469483, 0.1};
Spline(16) = {11, p16 + 1, p16 + 2, p16 + 3, p16 + 4, p16 + 5, p16 + 6, p16 + 7, p16 + 8, p16 + 9, p16 + 10, p16 + 11, p16 + 12, p16 + 13, p16 + 14, p16 + 15, p16 + 16, p16 + 17, p16 + 18, p16 + 19, p16 + 20, p16 + 21, p16 + 22, p16 + 23, p16 + 24, p16 + 25, p16 + 26, p16 + 27, p16 + 28, p16 + 29, p16 + 30, p16 + 31, p16 + 32, p16 + 33, p16 + 34, p16 + 35, p16 + 36, p16 + 37, p16 + 38, p16 + 39, 11};
Line(17) = {12, 11};
p18 = newp;
Point(p18 + 1) = {34.05062182817525, 0.9148242329530516, 0};
Point(p18 + 2) = {34.03170387199289, 0.993623191490026, 0};
Point(p18 + 3) = {34.00069195431922, 1.068492583732993, 0};
Point(p18 + 4) = {33.95834969149003, 1.137588876767663, 0};
Point(p18 + 5) = {33.90571969054208, 1.199210690542075, 0};
Point(p18 + 6) = {33.84409787676766, 1.251840691490026, 0};
Point(p18 + 7) = {33.77500158373299, 1.29418295431922, 0};
Point(p18 + 8) = {33.70013219149003, 1.325194871992888, 0};
Point(p18 + 9) = {33.62133323295306, 1.34411282817525, 0};
Point(p18 + 10) = {33.540545, 1.350471, 0};
Point(p18 + 11) = {33.45975676704695, 1.34411282817525, 0};
Point(p18 + 12) = {33.38095780850998, 1.325194871992888, 0};
Point(p18 + 13) = {33.30608841626701, 1.29418295431922, 0};
Point(p18 + 14) = {33.23699212323234, 1.251840691490026, 0};
Point(p18 + 15) = {33.17537030945793, 1.199210690542075, 0};
Point(p18 + 16) = {33.12274030850998, 1.137588876767663, 0};
Point(p18 + 17) = {33.08039804568078, 1.068492583732993, 0};
Point(p18 + 18) = {33.04938612800711, 0.993623191490026, 0};
Point(p18 + 19) = {33.03046817182475, 0.9148242329530517, 0};
Point(p18 + 20) = {33.02411, 0.8340360000000001, 0};
Point(p18 + 21) = {33.03046817182475, 0.7532477670469484, 0};
Point(p18 + 22) = {33.04938612800711, 0.6744488085099739, 0};
Point(p18 + 23) = {33.08039804568078, 0.5995794162670074, 0};
Point(p18 + 24) = {33.12274030850998, 0.5304831232323367, 0};
Point(p18 + 25) = {33.17537030945793, 0.4688613094579254, 0};
Point(p18 + 26) = {33.23699212323234, 0.4162313085099741, 0};
Point(p18 + 27) = {33.30608841626701, 0.3738890456807803, 0};
Point(p18 + 28) = {33.38095780850998, 0.3428771280071124, 0};
Point(p18 + 29) = {33.45975676704695, 0.3239591718247501, 0};
Point(p18 + 30) = {33.540545, 0.317601, 0};
Point(p18 + 31) = {33.62133323295306, 0.3239591718247501, 0};
Point(p18 + 32) = {33.70013219149003, 0.3428771280071123, 0};
Point(p18 + 33) = {33.77500158373299, 0.3738890456807802, 0};
Point(p18 + 34) = {33.84409787676766, 0.416231308509974, 0};
Point(p18 + 35) = {33.90571969054208, 0.4688613094579253, 0};
Point(p18 + 36) = {33.95834969149003, 0.5304831232323366, 0};
Point(p18 + 37) = {34.00069195431922, 0.5995794162670071, 0};
Point(p18 + 38) = {34.03170387199289, 0.6744488085099739, 0};
Point(p18 + 39) = {34.05062182817525, 0.7532477670469483, 0};
Spline(18) = {12, p18 + 1, p18 + 2, p18 + 3, p18 + 4, p18 + 5, p18 + 6, p18 + 7, p18 + 8, p18 + 9, p18 + 10, p18 + 11, p18 + 12, p18 + 13, p18 + 14, p18 + 15, p18 + 16, p18 + 17, p18 + 18, p18 + 19, p18 + 20, p18 + 21, p18 + 22, p18 + 23, p18 + 24, p18 + 25, p18 + 26, p18 + 27, p18 + 28, p18 + 29, p18 + 30, p18 + 31, p18 + 32, p18 + 33, p18 + 34, p18 + 35, p18 + 36, p18 + 37, p18 + 38, p18 + 39, 12};
Line(19) = {14, 13};
Line(20) = {13, 15};
Line(21) = {16, 15};
Line(22) = {14, 16};
Line(23) = {14, 17};
Line(24) = {17, 18};
Line(25) = {13, 18};
Line(26) = {15, 19};
Line(27) = {18, 19};
Line(28) = {16, 20};
Line(29) = {20, 19};
Line(30) = {17, 20};
Curve Loop(7) = {-13, -14, 15, 14};
Surface(7) = {7};
Curve Loop(8) = {13};
Plane Surface(8) = {8};
Curve Loop(9) = {15};
Plane Surface(9) = {9};
Curve Loop(10) = {-16, -17, 18, 17};
Surface(10) = {10};
Curve Loop(11) = {16};
Plane Surface(11) = {11};
Curve Loop(12) = {18};
Plane Surface(12) = {12};
Curve Loop(13) = {-19, 22, 21, -20};
Plane Surface(13) = {13};
Curve Loop(14) = {-23, 19, 25, -24};
Plane Surface(14) = {14};
Curve Loop(15) = {-20, 25, 27, -26};
Plane Surface(15) = {15};
Curve Loop(16) = {-28, 21, 26, -29};
Plane Surface(16) = {16};
Curve Loop(17) = {-22, 23, 30, -28, -15, -18};
Plane Surface(17) = {17};
Curve Loop(18) = {-24, 30, 29, -27};
Plane Surface(18) = {18};
Surface Loop(1) = {13, 14, 15, 16, 17, 18, 7, 10, 8, 11};
Volume(1) = {1};
Surface Loop(2) = {7, 8, 9};
Volume(2) = {2};
Surface Loop(3) = {10, 11, 12};
Volume(3) = {3};
Physical Surface("WALLS") = {13, 18};
Physical Surface("LOAD") = {8, 11};
Physical Surface("BORDER") = {7, 9, 10, 12, 14, 15, 16, 17};
Physical Volume("SOLID") = {1, 2, 3};
