cl__1 = 0.061851;
cl__2 = 0.09941700000000001;
cl__3 = 2.370592;
cl__4 = 2.115764;
cl__5 = 0.5675;
cl__6 = 0.81535;
Point(9) = {16.204097, 1.701374, 0.1, cl__1};
Point(10) = {16.204097, 1.701374, 0, cl__1};
Point(11) = {27.861298, -2.077967, 0.1, cl__2};
Point(12) = {27.861298, -2.077967, 0, cl__2};
Point(13) = {0.117351, -4.181403, 1, cl__3};
Point(14) = {0.117351, -4.181403, 0, cl__3};
Point(15) = {0.117351, 5.618569999999999, 1, cl__4};
Point(16) = {0.117351, 5.618569999999999, 0, cl__4};
Point(17) = {34.351588, -4.181403, 0, cl__5};
Point(18) = {34.351588, -4.181403, 1, cl__5};
Point(19) = {34.351588, 5.618569999999999, 1, cl__6};
Point(20) = {34.351588, 5.618569999999999, 0, cl__6};
p13 = newp;
Point(p13 + 1) = {16.19648209091818, 1.798130593840963, 0.1};
Point(p13 + 2) = {16.17382486800675, 1.892504719224837, 0.1};
Point(p13 + 3) = {16.1366832272888, 1.982172571974906, 0.1};
Point(p13 + 4) = {16.08597171922484, 2.064926231965922, 0.1};
Point(p13 + 5) = {16.02293902944525, 2.138728029445254, 0.1};
Point(p13 + 6) = {15.94913723196592, 2.201760719224837, 0.1};
Point(p13 + 7) = {15.86638357197491, 2.252472227288796, 0.1};
Point(p13 + 8) = {15.77671571922484, 2.289613868006748, 0.1};
Point(p13 + 9) = {15.68234159384096, 2.31227109091818, 0.1};
Point(p13 + 10) = {15.585585, 2.319886, 0.1};
Point(p13 + 11) = {15.48882840615904, 2.31227109091818, 0.1};
Point(p13 + 12) = {15.39445428077516, 2.289613868006748, 0.1};
Point(p13 + 13) = {15.30478642802509, 2.252472227288796, 0.1};
Point(p13 + 14) = {15.22203276803408, 2.201760719224837, 0.1};
Point(p13 + 15) = {15.14823097055475, 2.138728029445254, 0.1};
Point(p13 + 16) = {15.08519828077516, 2.064926231965922, 0.1};
Point(p13 + 17) = {15.0344867727112, 1.982172571974907, 0.1};
Point(p13 + 18) = {14.99734513199325, 1.892504719224837, 0.1};
Point(p13 + 19) = {14.97468790908182, 1.798130593840963, 0.1};
Point(p13 + 20) = {14.967073, 1.701374, 0.1};
Point(p13 + 21) = {14.97468790908182, 1.604617406159037, 0.1};
Point(p13 + 22) = {14.99734513199325, 1.510243280775162, 0.1};
Point(p13 + 23) = {15.0344867727112, 1.420575428025094, 0.1};
Point(p13 + 24) = {15.08519828077516, 1.337821768034078, 0.1};
Point(p13 + 25) = {15.14823097055475, 1.264019970554746, 0.1};
Point(p13 + 26) = {15.22203276803408, 1.200987280775163, 0.1};
Point(p13 + 27) = {15.30478642802509, 1.150275772711204, 0.1};
Point(p13 + 28) = {15.39445428077516, 1.113134131993252, 0.1};
Point(p13 + 29) = {15.48882840615904, 1.09047690908182, 0.1};
Point(p13 + 30) = {15.585585, 1.082862, 0.1};
Point(p13 + 31) = {15.68234159384096, 1.09047690908182, 0.1};
Point(p13 + 32) = {15.77671571922484, 1.113134131993252, 0.1};
Point(p13 + 33) = {15.86638357197491, 1.150275772711204, 0.1};
Point(p13 + 34) = {15.94913723196592, 1.200987280775162, 0.1};
Point(p13 + 35) = {16.02293902944525, 1.264019970554746, 0.1};
Point(p13 + 36) = {16.08597171922484, 1.337821768034078, 0.1};
Point(p13 + 37) = {16.1366832272888, 1.420575428025093, 0.1};
Point(p13 + 38) = {16.17382486800675, 1.510243280775162, 0.1};
Point(p13 + 39) = {16.19648209091818, 1.604617406159037, 0.1};
Spline(13) = {9, p13 + 1, p13 + 2, p13 + 3, p13 + 4, p13 + 5, p13 + 6, p13 + 7, p13 + 8, p13 + 9, p13 + 10, p13 + 11, p13 + 12, p13 + 13, p13 + 14, p13 + 15, p13 + 16, p13 + 17, p13 + 18, p13 + 19, p13 + 20, p13 + 21, p13 + 22, p13 + 23, p13 + 24, p13 + 25, p13 + 26, p13 + 27, p13 + 28, p13 + 29, p13 + 30, p13 + 31, p13 + 32, p13 + 33, p13 + 34, p13 + 35, p13 + 36, p13 + 37, p13 + 38, p13 + 39, 9};
Line(14) = {10, 9};
p15 = newp;
Point(p15 + 1) = {16.19648209091818, 1.798130593840963, 0};
Point(p15 + 2) = {16.17382486800675, 1.892504719224837, 0};
Point(p15 + 3) = {16.1366832272888, 1.982172571974906, 0};
Point(p15 + 4) = {16.08597171922484, 2.064926231965922, 0};
Point(p15 + 5) = {16.02293902944525, 2.138728029445254, 0};
Point(p15 + 6) = {15.94913723196592, 2.201760719224837, 0};
Point(p15 + 7) = {15.86638357197491, 2.252472227288796, 0};
Point(p15 + 8) = {15.77671571922484, 2.289613868006748, 0};
Point(p15 + 9) = {15.68234159384096, 2.31227109091818, 0};
Point(p15 + 10) = {15.585585, 2.319886, 0};
Point(p15 + 11) = {15.48882840615904, 2.31227109091818, 0};
Point(p15 + 12) = {15.39445428077516, 2.289613868006748, 0};
Point(p15 + 13) = {15.30478642802509, 2.252472227288796, 0};
Point(p15 + 14) = {15.22203276803408, 2.201760719224837, 0};
Point(p15 + 15) = {15.14823097055475, 2.138728029445254, 0};
Point(p15 + 16) = {15.08519828077516, 2.064926231965922, 0};
Point(p15 + 17) = {15.0344867727112, 1.982172571974907, 0};
Point(p15 + 18) = {14.99734513199325, 1.892504719224837, 0};
Point(p15 + 19) = {14.97468790908182, 1.798130593840963, 0};
Point(p15 + 20) = {14.967073, 1.701374, 0};
Point(p15 + 21) = {14.97468790908182, 1.604617406159037, 0};
Point(p15 + 22) = {14.99734513199325, 1.510243280775162, 0};
Point(p15 + 23) = {15.0344867727112, 1.420575428025094, 0};
Point(p15 + 24) = {15.08519828077516, 1.337821768034078, 0};
Point(p15 + 25) = {15.14823097055475, 1.264019970554746, 0};
Point(p15 + 26) = {15.22203276803408, 1.200987280775163, 0};
Point(p15 + 27) = {15.30478642802509, 1.150275772711204, 0};
Point(p15 + 28) = {15.39445428077516, 1.113134131993252, 0};
Point(p15 + 29) = {15.48882840615904, 1.09047690908182, 0};
Point(p15 + 30) = {15.585585, 1.082862, 0};
Point(p15 + 31) = {15.68234159384096, 1.09047690908182, 0};
Point(p15 + 32) = {15.77671571922484, 1.113134131993252, 0};
Point(p15 + 33) = {15.86638357197491, 1.150275772711204, 0};
Point(p15 + 34) = {15.94913723196592, 1.200987280775162, 0};
Point(p15 + 35) = {16.02293902944525, 1.264019970554746, 0};
Point(p15 + 36) = {16.08597171922484, 1.337821768034078, 0};
Point(p15 + 37) = {16.1366832272888, 1.420575428025093, 0};
Point(p15 + 38) = {16.17382486800675, 1.510243280775162, 0};
Point(p15 + 39) = {16.19648209091818, 1.604617406159037, 0};
Spline(15) = {10, p15 + 1, p15 + 2, p15 + 3, p15 + 4, p15 + 5, p15 + 6, p15 + 7, p15 + 8, p15 + 9, p15 + 10, p15 + 11, p15 + 12, p15 + 13, p15 + 14, p15 + 15, p15 + 16, p15 + 17, p15 + 18, p15 + 19, p15 + 20, p15 + 21, p15 + 22, p15 + 23, p15 + 24, p15 + 25, p15 + 26, p15 + 27, p15 + 28, p15 + 29, p15 + 30, p15 + 31, p15 + 32, p15 + 33, p15 + 34, p15 + 35, p15 + 36, p15 + 37, p15 + 38, p15 + 39, 10};
p16 = newp;
Point(p16 + 1) = {27.84905814219278, -1.922444860759884, 0.1};
Point(p16 + 2) = {27.81263995469212, -1.770752192736247, 0.1};
Point(p16 + 3) = {27.7529401741393, -1.626624172854934, 0.1};
Point(p16 + 4) = {27.67142880726375, -1.493609711298897, 0.1};
Point(p16 + 5) = {27.57011293443867, -1.374984065561333, 0.1};
Point(p16 + 6) = {27.4514872887011, -1.273668192736247, 0.1};
Point(p16 + 7) = {27.31847282714507, -1.192156825860699, 0.1};
Point(p16 + 8) = {27.17434480726375, -1.13245704530788, 0.1};
Point(p16 + 9) = {27.02265213924012, -1.096038857807213, 0.1};
Point(p16 + 10) = {26.86713, -1.083799, 0.1};
Point(p16 + 11) = {26.71160786075988, -1.096038857807213, 0.1};
Point(p16 + 12) = {26.55991519273625, -1.13245704530788, 0.1};
Point(p16 + 13) = {26.41578717285493, -1.192156825860699, 0.1};
Point(p16 + 14) = {26.2827727112989, -1.273668192736247, 0.1};
Point(p16 + 15) = {26.16414706556133, -1.374984065561332, 0.1};
Point(p16 + 16) = {26.06283119273625, -1.493609711298896, 0.1};
Point(p16 + 17) = {25.9813198258607, -1.626624172854934, 0.1};
Point(p16 + 18) = {25.92162004530788, -1.770752192736247, 0.1};
Point(p16 + 19) = {25.88520185780721, -1.922444860759884, 0.1};
Point(p16 + 20) = {25.872962, -2.077967, 0.1};
Point(p16 + 21) = {25.88520185780721, -2.233489139240116, 0.1};
Point(p16 + 22) = {25.92162004530788, -2.385181807263753, 0.1};
Point(p16 + 23) = {25.9813198258607, -2.529309827145065, 0.1};
Point(p16 + 24) = {26.06283119273625, -2.662324288701103, 0.1};
Point(p16 + 25) = {26.16414706556133, -2.780949934438667, 0.1};
Point(p16 + 26) = {26.2827727112989, -2.882265807263753, 0.1};
Point(p16 + 27) = {26.41578717285493, -2.963777174139302, 0.1};
Point(p16 + 28) = {26.55991519273624, -3.023476954692121, 0.1};
Point(p16 + 29) = {26.71160786075988, -3.059895142192787, 0.1};
Point(p16 + 30) = {26.86713, -3.072135, 0.1};
Point(p16 + 31) = {27.02265213924012, -3.059895142192787, 0.1};
Point(p16 + 32) = {27.17434480726375, -3.023476954692121, 0.1};
Point(p16 + 33) = {27.31847282714507, -2.963777174139302, 0.1};
Point(p16 + 34) = {27.4514872887011, -2.882265807263753, 0.1};
Point(p16 + 35) = {27.57011293443867, -2.780949934438668, 0.1};
Point(p16 + 36) = {27.67142880726375, -2.662324288701104, 0.1};
Point(p16 + 37) = {27.7529401741393, -2.529309827145066, 0.1};
Point(p16 + 38) = {27.81263995469212, -2.385181807263753, 0.1};
Point(p16 + 39) = {27.84905814219278, -2.233489139240117, 0.1};
Spline(16) = {11, p16 + 1, p16 + 2, p16 + 3, p16 + 4, p16 + 5, p16 + 6, p16 + 7, p16 + 8, p16 + 9, p16 + 10, p16 + 11, p16 + 12, p16 + 13, p16 + 14, p16 + 15, p16 + 16, p16 + 17, p16 + 18, p16 + 19, p16 + 20, p16 + 21, p16 + 22, p16 + 23, p16 + 24, p16 + 25, p16 + 26, p16 + 27, p16 + 28, p16 + 29, p16 + 30, p16 + 31, p16 + 32, p16 + 33, p16 + 34, p16 + 35, p16 + 36, p16 + 37, p16 + 38, p16 + 39, 11};
Line(17) = {12, 11};
p18 = newp;
Point(p18 + 1) = {27.84905814219278, -1.922444860759884, 0};
Point(p18 + 2) = {27.81263995469212, -1.770752192736247, 0};
Point(p18 + 3) = {27.7529401741393, -1.626624172854934, 0};
Point(p18 + 4) = {27.67142880726375, -1.493609711298897, 0};
Point(p18 + 5) = {27.57011293443867, -1.374984065561333, 0};
Point(p18 + 6) = {27.4514872887011, -1.273668192736247, 0};
Point(p18 + 7) = {27.31847282714507, -1.192156825860699, 0};
Point(p18 + 8) = {27.17434480726375, -1.13245704530788, 0};
Point(p18 + 9) = {27.02265213924012, -1.096038857807213, 0};
Point(p18 + 10) = {26.86713, -1.083799, 0};
Point(p18 + 11) = {26.71160786075988, -1.096038857807213, 0};
Point(p18 + 12) = {26.55991519273625, -1.13245704530788, 0};
Point(p18 + 13) = {26.41578717285493, -1.192156825860699, 0};
Point(p18 + 14) = {26.2827727112989, -1.273668192736247, 0};
Point(p18 + 15) = {26.16414706556133, -1.374984065561332, 0};
Point(p18 + 16) = {26.06283119273625, -1.493609711298896, 0};
Point(p18 + 17) = {25.9813198258607, -1.626624172854934, 0};
Point(p18 + 18) = {25.92162004530788, -1.770752192736247, 0};
Point(p18 + 19) = {25.88520185780721, -1.922444860759884, 0};
Point(p18 + 20) = {25.872962, -2.077967, 0};
Point(p18 + 21) = {25.88520185780721, -2.233489139240116, 0};
Point(p18 + 22) = {25.92162004530788, -2.385181807263753, 0};
Point(p18 + 23) = {25.9813198258607, -2.529309827145065, 0};
Point(p18 + 24) = {26.06283119273625, -2.662324288701103, 0};
Point(p18 + 25) = {26.16414706556133, -2.780949934438667, 0};
Point(p18 + 26) = {26.2827727112989, -2.882265807263753, 0};
Point(p18 + 27) = {26.41578717285493, -2.963777174139302, 0};
Point(p18 + 28) = {26.55991519273624, -3.023476954692121, 0};
Point(p18 + 29) = {26.71160786075988, -3.059895142192787, 0};
Point(p18 + 30) = {26.86713, -3.072135, 0};
Point(p18 + 31) = {27.02265213924012, -3.059895142192787, 0};
Point(p18 + 32) = {27.17434480726375, -3.023476954692121, 0};
Point(p18 + 33) = {27.31847282714507, -2.963777174139302, 0};
Point(p18 + 34) = {27.4514872887011, -2.882265807263753, 0};
Point(p18 + 35) = {27.57011293443867, -2.780949934438668, 0};
Point(p18 + 36) = {27.67142880726375, -2.662324288701104, 0};
Point(p18 + 37) = {27.7529401741393, -2.529309827145066, 0};
Point(p18 + 38) = {27.81263995469212, -2.385181807263753, 0};
Point(p18 + 39) = {27.84905814219278, -2.233489139240117, 0};
Spline(18) = {12, p18 + 1, p18 + 2, p18 + 3, p18 + 4, p18 + 5, p18 + 6, p18 + 7, p18 + 8, p18 + 9, p18 + 10, p18 + 11, p18 + 12, p18 + 13, p18 + 14, p18 + 15, p18 + 16, p18 + 17, p18 + 18, p18 + 19, p18 + 20, p18 + 21, p18 + 22, p18 + 23, p18 + 24, p18 + 25, p18 + 26, p18 + 27, p18 + 28, p18 + 29, p18 + 30, p18 + 31, p18 + 32, p18 + 33, p18 + 34, p18 + 35, p18 + 36, p18 + 37, p18 + 38, p18 + 39, 12};
Line(19) = {14, 13};
Line(20) = {13, 15};
Line(21) = {16, 15};
Line(22) = {14, 16};
Line(23) = {14, 17};
Line(24) = {17, 18};
Line(25) = {13, 18};
Line(26) = {15, 19};
Line(27) = {18, 19};
Line(28) = {16, 20};
Line(29) = {20, 19};
Line(30) = {17, 20};
Curve Loop(7) = {-13, -14, 15, 14};
Surface(7) = {7};
Curve Loop(8) = {13};
Plane Surface(8) = {8};
Curve Loop(9) = {15};
Plane Surface(9) = {9};
Curve Loop(10) = {-16, -17, 18, 17};
Surface(10) = {10};
Curve Loop(11) = {16};
Plane Surface(11) = {11};
Curve Loop(12) = {18};
Plane Surface(12) = {12};
Curve Loop(13) = {-19, 22, 21, -20};
Plane Surface(13) = {13};
Curve Loop(14) = {-23, 19, 25, -24};
Plane Surface(14) = {14};
Curve Loop(15) = {-20, 25, 27, -26};
Plane Surface(15) = {15};
Curve Loop(16) = {-28, 21, 26, -29};
Plane Surface(16) = {16};
Curve Loop(17) = {-22, 23, 30, -28, -18, -15};
Plane Surface(17) = {17};
Curve Loop(18) = {-24, 30, 29, -27};
Plane Surface(18) = {18};
Surface Loop(1) = {13, 14, 15, 16, 17, 18, 10, 7, 11, 8};
Volume(1) = {1};
Surface Loop(2) = {7, 8, 9};
Volume(2) = {2};
Surface Loop(3) = {10, 11, 12};
Volume(3) = {3};
Physical Surface("WALLS") = {13, 18};
Physical Surface("LOAD") = {8, 11};
Physical Surface("BORDER") = {7, 9, 10, 12, 14, 15, 16, 17};
Physical Volume("SOLID") = {1, 2, 3};
