cl__1 = 0.051563;
cl__2 = 0.127256;
cl__3 = 1.179249;
cl__4 = 0.883399;
cl__5 = 1.361053;
cl__6 = 0.951885;
Point(9) = {19.50112, 2.670665, 0.1, cl__1};
Point(10) = {19.50112, 2.670665, 0, cl__1};
Point(11) = {14.175319, 2.956815, 0.1, cl__2};
Point(12) = {14.175319, 2.956815, 0, cl__2};
Point(13) = {0.9256760000000001, -4.768509, 1, cl__3};
Point(14) = {0.9256760000000001, -4.768509, 0, cl__3};
Point(15) = {0.9256760000000001, 4.849908000000001, 1, cl__4};
Point(16) = {0.9256760000000001, 4.849908000000001, 0, cl__4};
Point(17) = {30.999679, -4.768509, 0, cl__5};
Point(18) = {30.999679, -4.768509, 1, cl__5};
Point(19) = {30.999679, 4.849908000000001, 1, cl__6};
Point(20) = {30.999679, 4.849908000000001, 0, cl__6};
p13 = newp;
Point(p13 + 1) = {19.49477173906107, 2.751327303208694, 0.1};
Point(p13 + 2) = {19.47588327149727, 2.830003432809554, 0.1};
Point(p13 + 3) = {19.44491969406725, 2.904756121380703, 0.1};
Point(p13 + 4) = {19.40264343280955, 2.973744709639568, 0.1};
Point(p13 + 5) = {19.35009546958322, 3.03527046958322, 0.1};
Point(p13 + 6) = {19.28856970963957, 3.087818432809554, 0.1};
Point(p13 + 7) = {19.2195811213807, 3.130094694067248, 0.1};
Point(p13 + 8) = {19.14482843280955, 3.16105827149727, 0.1};
Point(p13 + 9) = {19.06615230320869, 3.179946739061071, 0.1};
Point(p13 + 10) = {18.98549, 3.186295, 0.1};
Point(p13 + 11) = {18.9048276967913, 3.179946739061071, 0.1};
Point(p13 + 12) = {18.82615156719044, 3.16105827149727, 0.1};
Point(p13 + 13) = {18.75139887861929, 3.130094694067248, 0.1};
Point(p13 + 14) = {18.68241029036043, 3.087818432809554, 0.1};
Point(p13 + 15) = {18.62088453041678, 3.03527046958322, 0.1};
Point(p13 + 16) = {18.56833656719045, 2.973744709639568, 0.1};
Point(p13 + 17) = {18.52606030593275, 2.904756121380703, 0.1};
Point(p13 + 18) = {18.49509672850273, 2.830003432809554, 0.1};
Point(p13 + 19) = {18.47620826093893, 2.751327303208694, 0.1};
Point(p13 + 20) = {18.46986, 2.670665, 0.1};
Point(p13 + 21) = {18.47620826093893, 2.590002696791306, 0.1};
Point(p13 + 22) = {18.49509672850273, 2.511326567190446, 0.1};
Point(p13 + 23) = {18.52606030593275, 2.436573878619298, 0.1};
Point(p13 + 24) = {18.56833656719045, 2.367585290360432, 0.1};
Point(p13 + 25) = {18.62088453041678, 2.306059530416781, 0.1};
Point(p13 + 26) = {18.68241029036043, 2.253511567190446, 0.1};
Point(p13 + 27) = {18.75139887861929, 2.211235305932752, 0.1};
Point(p13 + 28) = {18.82615156719044, 2.18027172850273, 0.1};
Point(p13 + 29) = {18.9048276967913, 2.161383260938929, 0.1};
Point(p13 + 30) = {18.98549, 2.155035, 0.1};
Point(p13 + 31) = {19.06615230320869, 2.161383260938929, 0.1};
Point(p13 + 32) = {19.14482843280955, 2.18027172850273, 0.1};
Point(p13 + 33) = {19.2195811213807, 2.211235305932752, 0.1};
Point(p13 + 34) = {19.28856970963957, 2.253511567190446, 0.1};
Point(p13 + 35) = {19.35009546958322, 2.306059530416781, 0.1};
Point(p13 + 36) = {19.40264343280955, 2.367585290360432, 0.1};
Point(p13 + 37) = {19.44491969406725, 2.436573878619297, 0.1};
Point(p13 + 38) = {19.47588327149727, 2.511326567190446, 0.1};
Point(p13 + 39) = {19.49477173906107, 2.590002696791306, 0.1};
Spline(13) = {9, p13 + 1, p13 + 2, p13 + 3, p13 + 4, p13 + 5, p13 + 6, p13 + 7, p13 + 8, p13 + 9, p13 + 10, p13 + 11, p13 + 12, p13 + 13, p13 + 14, p13 + 15, p13 + 16, p13 + 17, p13 + 18, p13 + 19, p13 + 20, p13 + 21, p13 + 22, p13 + 23, p13 + 24, p13 + 25, p13 + 26, p13 + 27, p13 + 28, p13 + 29, p13 + 30, p13 + 31, p13 + 32, p13 + 33, p13 + 34, p13 + 35, p13 + 36, p13 + 37, p13 + 38, p13 + 39, 9};
Line(14) = {10, 9};
p15 = newp;
Point(p15 + 1) = {19.49477173906107, 2.751327303208694, 0};
Point(p15 + 2) = {19.47588327149727, 2.830003432809554, 0};
Point(p15 + 3) = {19.44491969406725, 2.904756121380703, 0};
Point(p15 + 4) = {19.40264343280955, 2.973744709639568, 0};
Point(p15 + 5) = {19.35009546958322, 3.03527046958322, 0};
Point(p15 + 6) = {19.28856970963957, 3.087818432809554, 0};
Point(p15 + 7) = {19.2195811213807, 3.130094694067248, 0};
Point(p15 + 8) = {19.14482843280955, 3.16105827149727, 0};
Point(p15 + 9) = {19.06615230320869, 3.179946739061071, 0};
Point(p15 + 10) = {18.98549, 3.186295, 0};
Point(p15 + 11) = {18.9048276967913, 3.179946739061071, 0};
Point(p15 + 12) = {18.82615156719044, 3.16105827149727, 0};
Point(p15 + 13) = {18.75139887861929, 3.130094694067248, 0};
Point(p15 + 14) = {18.68241029036043, 3.087818432809554, 0};
Point(p15 + 15) = {18.62088453041678, 3.03527046958322, 0};
Point(p15 + 16) = {18.56833656719045, 2.973744709639568, 0};
Point(p15 + 17) = {18.52606030593275, 2.904756121380703, 0};
Point(p15 + 18) = {18.49509672850273, 2.830003432809554, 0};
Point(p15 + 19) = {18.47620826093893, 2.751327303208694, 0};
Point(p15 + 20) = {18.46986, 2.670665, 0};
Point(p15 + 21) = {18.47620826093893, 2.590002696791306, 0};
Point(p15 + 22) = {18.49509672850273, 2.511326567190446, 0};
Point(p15 + 23) = {18.52606030593275, 2.436573878619298, 0};
Point(p15 + 24) = {18.56833656719045, 2.367585290360432, 0};
Point(p15 + 25) = {18.62088453041678, 2.306059530416781, 0};
Point(p15 + 26) = {18.68241029036043, 2.253511567190446, 0};
Point(p15 + 27) = {18.75139887861929, 2.211235305932752, 0};
Point(p15 + 28) = {18.82615156719044, 2.18027172850273, 0};
Point(p15 + 29) = {18.9048276967913, 2.161383260938929, 0};
Point(p15 + 30) = {18.98549, 2.155035, 0};
Point(p15 + 31) = {19.06615230320869, 2.161383260938929, 0};
Point(p15 + 32) = {19.14482843280955, 2.18027172850273, 0};
Point(p15 + 33) = {19.2195811213807, 2.211235305932752, 0};
Point(p15 + 34) = {19.28856970963957, 2.253511567190446, 0};
Point(p15 + 35) = {19.35009546958322, 2.306059530416781, 0};
Point(p15 + 36) = {19.40264343280955, 2.367585290360432, 0};
Point(p15 + 37) = {19.44491969406725, 2.436573878619297, 0};
Point(p15 + 38) = {19.47588327149727, 2.511326567190446, 0};
Point(p15 + 39) = {19.49477173906107, 2.590002696791306, 0};
Spline(15) = {10, p15 + 1, p15 + 2, p15 + 3, p15 + 4, p15 + 5, p15 + 6, p15 + 7, p15 + 8, p15 + 9, p15 + 10, p15 + 11, p15 + 12, p15 + 13, p15 + 14, p15 + 15, p15 + 16, p15 + 17, p15 + 18, p15 + 19, p15 + 20, p15 + 21, p15 + 22, p15 + 23, p15 + 24, p15 + 25, p15 + 26, p15 + 27, p15 + 28, p15 + 29, p15 + 30, p15 + 31, p15 + 32, p15 + 33, p15 + 34, p15 + 35, p15 + 36, p15 + 37, p15 + 38, p15 + 39, 10};
p16 = newp;
Point(p16 + 1) = {14.15965163777277, 3.155887712134992, 0.1};
Point(p16 + 2) = {14.11303533354611, 3.350058593412766, 0.1};
Point(p16 + 3) = {14.03661793544072, 3.534546512320057, 0.1};
Point(p16 + 4) = {13.93228109341277, 3.704808764013067, 0.1};
Point(p16 + 5) = {13.8025939267871, 3.856652926787097, 0.1};
Point(p16 + 6) = {13.65074976401307, 3.986340093412767, 0.1};
Point(p16 + 7) = {13.48048751232006, 4.090676935440722, 0.1};
Point(p16 + 8) = {13.29599959341277, 4.167094333546109, 0.1};
Point(p16 + 9) = {13.10182871213499, 4.21371063777277, 0.1};
Point(p16 + 10) = {12.902756, 4.229378000000001, 0.1};
Point(p16 + 11) = {12.70368328786501, 4.21371063777277, 0.1};
Point(p16 + 12) = {12.50951240658723, 4.16709433354611, 0.1};
Point(p16 + 13) = {12.32502448767994, 4.090676935440722, 0.1};
Point(p16 + 14) = {12.15476223598693, 3.986340093412767, 0.1};
Point(p16 + 15) = {12.0029180732129, 3.856652926787097, 0.1};
Point(p16 + 16) = {11.87323090658723, 3.704808764013067, 0.1};
Point(p16 + 17) = {11.76889406455928, 3.534546512320057, 0.1};
Point(p16 + 18) = {11.69247666645389, 3.350058593412767, 0.1};
Point(p16 + 19) = {11.64586036222723, 3.155887712134992, 0.1};
Point(p16 + 20) = {11.630193, 2.956815, 0.1};
Point(p16 + 21) = {11.64586036222723, 2.757742287865009, 0.1};
Point(p16 + 22) = {11.69247666645389, 2.563571406587234, 0.1};
Point(p16 + 23) = {11.76889406455928, 2.379083487679944, 0.1};
Point(p16 + 24) = {11.87323090658723, 2.208821235986934, 0.1};
Point(p16 + 25) = {12.0029180732129, 2.056977073212904, 0.1};
Point(p16 + 26) = {12.15476223598693, 1.927289906587234, 0.1};
Point(p16 + 27) = {12.32502448767994, 1.822953064559278, 0.1};
Point(p16 + 28) = {12.50951240658723, 1.746535666453891, 0.1};
Point(p16 + 29) = {12.70368328786501, 1.69991936222723, 0.1};
Point(p16 + 30) = {12.902756, 1.684252, 0.1};
Point(p16 + 31) = {13.10182871213499, 1.69991936222723, 0.1};
Point(p16 + 32) = {13.29599959341277, 1.74653566645389, 0.1};
Point(p16 + 33) = {13.48048751232006, 1.822953064559278, 0.1};
Point(p16 + 34) = {13.65074976401307, 1.927289906587234, 0.1};
Point(p16 + 35) = {13.8025939267871, 2.056977073212904, 0.1};
Point(p16 + 36) = {13.93228109341277, 2.208821235986933, 0.1};
Point(p16 + 37) = {14.03661793544072, 2.379083487679943, 0.1};
Point(p16 + 38) = {14.11303533354611, 2.563571406587234, 0.1};
Point(p16 + 39) = {14.15965163777277, 2.757742287865009, 0.1};
Spline(16) = {11, p16 + 1, p16 + 2, p16 + 3, p16 + 4, p16 + 5, p16 + 6, p16 + 7, p16 + 8, p16 + 9, p16 + 10, p16 + 11, p16 + 12, p16 + 13, p16 + 14, p16 + 15, p16 + 16, p16 + 17, p16 + 18, p16 + 19, p16 + 20, p16 + 21, p16 + 22, p16 + 23, p16 + 24, p16 + 25, p16 + 26, p16 + 27, p16 + 28, p16 + 29, p16 + 30, p16 + 31, p16 + 32, p16 + 33, p16 + 34, p16 + 35, p16 + 36, p16 + 37, p16 + 38, p16 + 39, 11};
Line(17) = {12, 11};
p18 = newp;
Point(p18 + 1) = {14.15965163777277, 3.155887712134992, 0};
Point(p18 + 2) = {14.11303533354611, 3.350058593412766, 0};
Point(p18 + 3) = {14.03661793544072, 3.534546512320057, 0};
Point(p18 + 4) = {13.93228109341277, 3.704808764013067, 0};
Point(p18 + 5) = {13.8025939267871, 3.856652926787097, 0};
Point(p18 + 6) = {13.65074976401307, 3.986340093412767, 0};
Point(p18 + 7) = {13.48048751232006, 4.090676935440722, 0};
Point(p18 + 8) = {13.29599959341277, 4.167094333546109, 0};
Point(p18 + 9) = {13.10182871213499, 4.21371063777277, 0};
Point(p18 + 10) = {12.902756, 4.229378000000001, 0};
Point(p18 + 11) = {12.70368328786501, 4.21371063777277, 0};
Point(p18 + 12) = {12.50951240658723, 4.16709433354611, 0};
Point(p18 + 13) = {12.32502448767994, 4.090676935440722, 0};
Point(p18 + 14) = {12.15476223598693, 3.986340093412767, 0};
Point(p18 + 15) = {12.0029180732129, 3.856652926787097, 0};
Point(p18 + 16) = {11.87323090658723, 3.704808764013067, 0};
Point(p18 + 17) = {11.76889406455928, 3.534546512320057, 0};
Point(p18 + 18) = {11.69247666645389, 3.350058593412767, 0};
Point(p18 + 19) = {11.64586036222723, 3.155887712134992, 0};
Point(p18 + 20) = {11.630193, 2.956815, 0};
Point(p18 + 21) = {11.64586036222723, 2.757742287865009, 0};
Point(p18 + 22) = {11.69247666645389, 2.563571406587234, 0};
Point(p18 + 23) = {11.76889406455928, 2.379083487679944, 0};
Point(p18 + 24) = {11.87323090658723, 2.208821235986934, 0};
Point(p18 + 25) = {12.0029180732129, 2.056977073212904, 0};
Point(p18 + 26) = {12.15476223598693, 1.927289906587234, 0};
Point(p18 + 27) = {12.32502448767994, 1.822953064559278, 0};
Point(p18 + 28) = {12.50951240658723, 1.746535666453891, 0};
Point(p18 + 29) = {12.70368328786501, 1.69991936222723, 0};
Point(p18 + 30) = {12.902756, 1.684252, 0};
Point(p18 + 31) = {13.10182871213499, 1.69991936222723, 0};
Point(p18 + 32) = {13.29599959341277, 1.74653566645389, 0};
Point(p18 + 33) = {13.48048751232006, 1.822953064559278, 0};
Point(p18 + 34) = {13.65074976401307, 1.927289906587234, 0};
Point(p18 + 35) = {13.8025939267871, 2.056977073212904, 0};
Point(p18 + 36) = {13.93228109341277, 2.208821235986933, 0};
Point(p18 + 37) = {14.03661793544072, 2.379083487679943, 0};
Point(p18 + 38) = {14.11303533354611, 2.563571406587234, 0};
Point(p18 + 39) = {14.15965163777277, 2.757742287865009, 0};
Spline(18) = {12, p18 + 1, p18 + 2, p18 + 3, p18 + 4, p18 + 5, p18 + 6, p18 + 7, p18 + 8, p18 + 9, p18 + 10, p18 + 11, p18 + 12, p18 + 13, p18 + 14, p18 + 15, p18 + 16, p18 + 17, p18 + 18, p18 + 19, p18 + 20, p18 + 21, p18 + 22, p18 + 23, p18 + 24, p18 + 25, p18 + 26, p18 + 27, p18 + 28, p18 + 29, p18 + 30, p18 + 31, p18 + 32, p18 + 33, p18 + 34, p18 + 35, p18 + 36, p18 + 37, p18 + 38, p18 + 39, 12};
Line(19) = {14, 13};
Line(20) = {13, 15};
Line(21) = {16, 15};
Line(22) = {14, 16};
Line(23) = {14, 17};
Line(24) = {17, 18};
Line(25) = {13, 18};
Line(26) = {15, 19};
Line(27) = {18, 19};
Line(28) = {16, 20};
Line(29) = {20, 19};
Line(30) = {17, 20};
Curve Loop(7) = {-13, -14, 15, 14};
Surface(7) = {7};
Curve Loop(8) = {13};
Plane Surface(8) = {8};
Curve Loop(9) = {15};
Plane Surface(9) = {9};
Curve Loop(10) = {-16, -17, 18, 17};
Surface(10) = {10};
Curve Loop(11) = {16};
Plane Surface(11) = {11};
Curve Loop(12) = {18};
Plane Surface(12) = {12};
Curve Loop(13) = {-19, 22, 21, -20};
Plane Surface(13) = {13};
Curve Loop(14) = {-23, 19, 25, -24};
Plane Surface(14) = {14};
Curve Loop(15) = {-20, 25, 27, -26};
Plane Surface(15) = {15};
Curve Loop(16) = {-28, 21, 26, -29};
Plane Surface(16) = {16};
Curve Loop(17) = {-22, 23, 30, -28, -15, -18};
Plane Surface(17) = {17};
Curve Loop(18) = {-24, 30, 29, -27};
Plane Surface(18) = {18};
Surface Loop(1) = {13, 14, 15, 16, 17, 18, 7, 10, 8, 11};
Volume(1) = {1};
Surface Loop(2) = {7, 8, 9};
Volume(2) = {2};
Surface Loop(3) = {10, 11, 12};
Volume(3) = {3};
Physical Surface("WALLS") = {13, 18};
Physical Surface("LOAD") = {8, 11};
Physical Surface("BORDER") = {7, 9, 10, 12, 14, 15, 16, 17};
Physical Volume("SOLID") = {1, 2, 3};
