cl__1 = 0.110003;
cl__2 = 0.122128;
cl__3 = 3.492474;
cl__4 = 3.228253;
cl__5 = 0.596293;
cl__6 = 0.408565;
Point(9) = {31.428287, 2.94781, 0.1, cl__1};
Point(10) = {31.428287, 2.94781, 0, cl__1};
Point(11) = {26.093383, 1.762227, 0.1, cl__2};
Point(12) = {26.093383, 1.762227, 0, cl__2};
Point(13) = {0.298791, -4.72468, 1, cl__3};
Point(14) = {0.298791, -4.72468, 0, cl__3};
Point(15) = {0.298791, 5.024538000000001, 1, cl__4};
Point(16) = {0.298791, 5.024538000000001, 0, cl__4};
Point(17) = {37.654744, -4.72468, 0, cl__5};
Point(18) = {37.654744, -4.72468, 1, cl__5};
Point(19) = {37.654744, 5.024538000000001, 1, cl__6};
Point(20) = {37.654744, 5.024538000000001, 0, cl__6};
p13 = newp;
Point(p13 + 1) = {31.41474376836989, 3.1198930738816, 0.1};
Point(p13 + 2) = {31.37444755278971, 3.287738891373257, 0.1};
Point(p13 + 3) = {31.3083905798225, 3.447214531399993, 0.1};
Point(p13 + 4) = {31.21819939137326, 3.594393174435046, 0.1};
Point(p13 + 5) = {31.10609479382898, 3.725650793828982, 0.1};
Point(p13 + 6) = {30.97483717443505, 3.837755391373256, 0.1};
Point(p13 + 7) = {30.82765853139999, 3.927946579822503, 0.1};
Point(p13 + 8) = {30.66818289137326, 3.994003552789707, 0.1};
Point(p13 + 9) = {30.5003370738816, 4.034299768369891, 0.1};
Point(p13 + 10) = {30.328254, 4.047843, 0.1};
Point(p13 + 11) = {30.1561709261184, 4.034299768369891, 0.1};
Point(p13 + 12) = {29.98832510862675, 3.994003552789707, 0.1};
Point(p13 + 13) = {29.82884946860001, 3.927946579822503, 0.1};
Point(p13 + 14) = {29.68167082556495, 3.837755391373256, 0.1};
Point(p13 + 15) = {29.55041320617102, 3.725650793828982, 0.1};
Point(p13 + 16) = {29.43830860862674, 3.594393174435046, 0.1};
Point(p13 + 17) = {29.3481174201775, 3.447214531399993, 0.1};
Point(p13 + 18) = {29.28206044721029, 3.287738891373257, 0.1};
Point(p13 + 19) = {29.24176423163011, 3.119893073881601, 0.1};
Point(p13 + 20) = {29.228221, 2.94781, 0.1};
Point(p13 + 21) = {29.24176423163011, 2.7757269261184, 0.1};
Point(p13 + 22) = {29.28206044721029, 2.607881108626743, 0.1};
Point(p13 + 23) = {29.3481174201775, 2.448405468600008, 0.1};
Point(p13 + 24) = {29.43830860862674, 2.301226825564954, 0.1};
Point(p13 + 25) = {29.55041320617102, 2.169969206171019, 0.1};
Point(p13 + 26) = {29.68167082556495, 2.057864608626744, 0.1};
Point(p13 + 27) = {29.82884946860001, 1.967673420177497, 0.1};
Point(p13 + 28) = {29.98832510862674, 1.901616447210293, 0.1};
Point(p13 + 29) = {30.1561709261184, 1.861320231630109, 0.1};
Point(p13 + 30) = {30.328254, 1.847777, 0.1};
Point(p13 + 31) = {30.5003370738816, 1.861320231630109, 0.1};
Point(p13 + 32) = {30.66818289137326, 1.901616447210293, 0.1};
Point(p13 + 33) = {30.82765853139999, 1.967673420177497, 0.1};
Point(p13 + 34) = {30.97483717443505, 2.057864608626743, 0.1};
Point(p13 + 35) = {31.10609479382898, 2.169969206171019, 0.1};
Point(p13 + 36) = {31.21819939137326, 2.301226825564954, 0.1};
Point(p13 + 37) = {31.3083905798225, 2.448405468600007, 0.1};
Point(p13 + 38) = {31.37444755278971, 2.607881108626743, 0.1};
Point(p13 + 39) = {31.41474376836989, 2.775726926118399, 0.1};
Spline(13) = {9, p13 + 1, p13 + 2, p13 + 3, p13 + 4, p13 + 5, p13 + 6, p13 + 7, p13 + 8, p13 + 9, p13 + 10, p13 + 11, p13 + 12, p13 + 13, p13 + 14, p13 + 15, p13 + 16, p13 + 17, p13 + 18, p13 + 19, p13 + 20, p13 + 21, p13 + 22, p13 + 23, p13 + 24, p13 + 25, p13 + 26, p13 + 27, p13 + 28, p13 + 29, p13 + 30, p13 + 31, p13 + 32, p13 + 33, p13 + 34, p13 + 35, p13 + 36, p13 + 37, p13 + 38, p13 + 39, 9};
Line(14) = {10, 9};
p15 = newp;
Point(p15 + 1) = {31.41474376836989, 3.1198930738816, 0};
Point(p15 + 2) = {31.37444755278971, 3.287738891373257, 0};
Point(p15 + 3) = {31.3083905798225, 3.447214531399993, 0};
Point(p15 + 4) = {31.21819939137326, 3.594393174435046, 0};
Point(p15 + 5) = {31.10609479382898, 3.725650793828982, 0};
Point(p15 + 6) = {30.97483717443505, 3.837755391373256, 0};
Point(p15 + 7) = {30.82765853139999, 3.927946579822503, 0};
Point(p15 + 8) = {30.66818289137326, 3.994003552789707, 0};
Point(p15 + 9) = {30.5003370738816, 4.034299768369891, 0};
Point(p15 + 10) = {30.328254, 4.047843, 0};
Point(p15 + 11) = {30.1561709261184, 4.034299768369891, 0};
Point(p15 + 12) = {29.98832510862675, 3.994003552789707, 0};
Point(p15 + 13) = {29.82884946860001, 3.927946579822503, 0};
Point(p15 + 14) = {29.68167082556495, 3.837755391373256, 0};
Point(p15 + 15) = {29.55041320617102, 3.725650793828982, 0};
Point(p15 + 16) = {29.43830860862674, 3.594393174435046, 0};
Point(p15 + 17) = {29.3481174201775, 3.447214531399993, 0};
Point(p15 + 18) = {29.28206044721029, 3.287738891373257, 0};
Point(p15 + 19) = {29.24176423163011, 3.119893073881601, 0};
Point(p15 + 20) = {29.228221, 2.94781, 0};
Point(p15 + 21) = {29.24176423163011, 2.7757269261184, 0};
Point(p15 + 22) = {29.28206044721029, 2.607881108626743, 0};
Point(p15 + 23) = {29.3481174201775, 2.448405468600008, 0};
Point(p15 + 24) = {29.43830860862674, 2.301226825564954, 0};
Point(p15 + 25) = {29.55041320617102, 2.169969206171019, 0};
Point(p15 + 26) = {29.68167082556495, 2.057864608626744, 0};
Point(p15 + 27) = {29.82884946860001, 1.967673420177497, 0};
Point(p15 + 28) = {29.98832510862674, 1.901616447210293, 0};
Point(p15 + 29) = {30.1561709261184, 1.861320231630109, 0};
Point(p15 + 30) = {30.328254, 1.847777, 0};
Point(p15 + 31) = {30.5003370738816, 1.861320231630109, 0};
Point(p15 + 32) = {30.66818289137326, 1.901616447210293, 0};
Point(p15 + 33) = {30.82765853139999, 1.967673420177497, 0};
Point(p15 + 34) = {30.97483717443505, 2.057864608626743, 0};
Point(p15 + 35) = {31.10609479382898, 2.169969206171019, 0};
Point(p15 + 36) = {31.21819939137326, 2.301226825564954, 0};
Point(p15 + 37) = {31.3083905798225, 2.448405468600007, 0};
Point(p15 + 38) = {31.37444755278971, 2.607881108626743, 0};
Point(p15 + 39) = {31.41474376836989, 2.775726926118399, 0};
Spline(15) = {10, p15 + 1, p15 + 2, p15 + 3, p15 + 4, p15 + 5, p15 + 6, p15 + 7, p15 + 8, p15 + 9, p15 + 10, p15 + 11, p15 + 12, p15 + 13, p15 + 14, p15 + 15, p15 + 16, p15 + 17, p15 + 18, p15 + 19, p15 + 20, p15 + 21, p15 + 22, p15 + 23, p15 + 24, p15 + 25, p15 + 26, p15 + 27, p15 + 28, p15 + 29, p15 + 30, p15 + 31, p15 + 32, p15 + 33, p15 + 34, p15 + 35, p15 + 36, p15 + 37, p15 + 38, p15 + 39, 10};
p16 = newp;
Point(p16 + 1) = {26.07834697966705, 1.953277752767728, 0.1};
Point(p16 + 2) = {26.03360915539049, 2.139624201941219, 0.1};
Point(p16 + 3) = {25.96027112088034, 2.316677879493413, 0.1};
Point(p16 + 4) = {25.86013870194122, 2.480079136275508, 0.1};
Point(p16 + 5) = {25.73567749104785, 2.62580449104785, 0.1};
Point(p16 + 6) = {25.58995213627551, 2.750265701941219, 0.1};
Point(p16 + 7) = {25.42655087949341, 2.850398120880342, 0.1};
Point(p16 + 8) = {25.24949720194122, 2.923736155390494, 0.1};
Point(p16 + 9) = {25.06315075276773, 2.968473979667052, 0.1};
Point(p16 + 10) = {24.8721, 2.98351, 0.1};
Point(p16 + 11) = {24.68104924723227, 2.968473979667051, 0.1};
Point(p16 + 12) = {24.49470279805878, 2.923736155390494, 0.1};
Point(p16 + 13) = {24.31764912050659, 2.850398120880342, 0.1};
Point(p16 + 14) = {24.15424786372449, 2.750265701941219, 0.1};
Point(p16 + 15) = {24.00852250895215, 2.62580449104785, 0.1};
Point(p16 + 16) = {23.88406129805878, 2.480079136275509, 0.1};
Point(p16 + 17) = {23.78392887911966, 2.316677879493413, 0.1};
Point(p16 + 18) = {23.71059084460951, 2.139624201941219, 0.1};
Point(p16 + 19) = {23.66585302033295, 1.953277752767728, 0.1};
Point(p16 + 20) = {23.650817, 1.762227, 0.1};
Point(p16 + 21) = {23.66585302033295, 1.571176247232272, 0.1};
Point(p16 + 22) = {23.71059084460951, 1.384829798058781, 0.1};
Point(p16 + 23) = {23.78392887911966, 1.207776120506588, 0.1};
Point(p16 + 24) = {23.88406129805878, 1.044374863724492, 0.1};
Point(p16 + 25) = {24.00852250895215, 0.8986495089521498, 0.1};
Point(p16 + 26) = {24.15424786372449, 0.7741882980587813, 0.1};
Point(p16 + 27) = {24.31764912050659, 0.6740558791196578, 0.1};
Point(p16 + 28) = {24.49470279805878, 0.6007178446095061, 0.1};
Point(p16 + 29) = {24.68104924723227, 0.5559800203329486, 0.1};
Point(p16 + 30) = {24.8721, 0.5409440000000001, 0.1};
Point(p16 + 31) = {25.06315075276773, 0.5559800203329484, 0.1};
Point(p16 + 32) = {25.24949720194122, 0.6007178446095061, 0.1};
Point(p16 + 33) = {25.42655087949341, 0.6740558791196574, 0.1};
Point(p16 + 34) = {25.58995213627551, 0.774188298058781, 0.1};
Point(p16 + 35) = {25.73567749104785, 0.8986495089521496, 0.1};
Point(p16 + 36) = {25.86013870194122, 1.044374863724491, 0.1};
Point(p16 + 37) = {25.96027112088034, 1.207776120506587, 0.1};
Point(p16 + 38) = {26.03360915539049, 1.384829798058781, 0.1};
Point(p16 + 39) = {26.07834697966705, 1.571176247232271, 0.1};
Spline(16) = {11, p16 + 1, p16 + 2, p16 + 3, p16 + 4, p16 + 5, p16 + 6, p16 + 7, p16 + 8, p16 + 9, p16 + 10, p16 + 11, p16 + 12, p16 + 13, p16 + 14, p16 + 15, p16 + 16, p16 + 17, p16 + 18, p16 + 19, p16 + 20, p16 + 21, p16 + 22, p16 + 23, p16 + 24, p16 + 25, p16 + 26, p16 + 27, p16 + 28, p16 + 29, p16 + 30, p16 + 31, p16 + 32, p16 + 33, p16 + 34, p16 + 35, p16 + 36, p16 + 37, p16 + 38, p16 + 39, 11};
Line(17) = {12, 11};
p18 = newp;
Point(p18 + 1) = {26.07834697966705, 1.953277752767728, 0};
Point(p18 + 2) = {26.03360915539049, 2.139624201941219, 0};
Point(p18 + 3) = {25.96027112088034, 2.316677879493413, 0};
Point(p18 + 4) = {25.86013870194122, 2.480079136275508, 0};
Point(p18 + 5) = {25.73567749104785, 2.62580449104785, 0};
Point(p18 + 6) = {25.58995213627551, 2.750265701941219, 0};
Point(p18 + 7) = {25.42655087949341, 2.850398120880342, 0};
Point(p18 + 8) = {25.24949720194122, 2.923736155390494, 0};
Point(p18 + 9) = {25.06315075276773, 2.968473979667052, 0};
Point(p18 + 10) = {24.8721, 2.98351, 0};
Point(p18 + 11) = {24.68104924723227, 2.968473979667051, 0};
Point(p18 + 12) = {24.49470279805878, 2.923736155390494, 0};
Point(p18 + 13) = {24.31764912050659, 2.850398120880342, 0};
Point(p18 + 14) = {24.15424786372449, 2.750265701941219, 0};
Point(p18 + 15) = {24.00852250895215, 2.62580449104785, 0};
Point(p18 + 16) = {23.88406129805878, 2.480079136275509, 0};
Point(p18 + 17) = {23.78392887911966, 2.316677879493413, 0};
Point(p18 + 18) = {23.71059084460951, 2.139624201941219, 0};
Point(p18 + 19) = {23.66585302033295, 1.953277752767728, 0};
Point(p18 + 20) = {23.650817, 1.762227, 0};
Point(p18 + 21) = {23.66585302033295, 1.571176247232272, 0};
Point(p18 + 22) = {23.71059084460951, 1.384829798058781, 0};
Point(p18 + 23) = {23.78392887911966, 1.207776120506588, 0};
Point(p18 + 24) = {23.88406129805878, 1.044374863724492, 0};
Point(p18 + 25) = {24.00852250895215, 0.8986495089521498, 0};
Point(p18 + 26) = {24.15424786372449, 0.7741882980587813, 0};
Point(p18 + 27) = {24.31764912050659, 0.6740558791196578, 0};
Point(p18 + 28) = {24.49470279805878, 0.6007178446095061, 0};
Point(p18 + 29) = {24.68104924723227, 0.5559800203329486, 0};
Point(p18 + 30) = {24.8721, 0.5409440000000001, 0};
Point(p18 + 31) = {25.06315075276773, 0.5559800203329484, 0};
Point(p18 + 32) = {25.24949720194122, 0.6007178446095061, 0};
Point(p18 + 33) = {25.42655087949341, 0.6740558791196574, 0};
Point(p18 + 34) = {25.58995213627551, 0.774188298058781, 0};
Point(p18 + 35) = {25.73567749104785, 0.8986495089521496, 0};
Point(p18 + 36) = {25.86013870194122, 1.044374863724491, 0};
Point(p18 + 37) = {25.96027112088034, 1.207776120506587, 0};
Point(p18 + 38) = {26.03360915539049, 1.384829798058781, 0};
Point(p18 + 39) = {26.07834697966705, 1.571176247232271, 0};
Spline(18) = {12, p18 + 1, p18 + 2, p18 + 3, p18 + 4, p18 + 5, p18 + 6, p18 + 7, p18 + 8, p18 + 9, p18 + 10, p18 + 11, p18 + 12, p18 + 13, p18 + 14, p18 + 15, p18 + 16, p18 + 17, p18 + 18, p18 + 19, p18 + 20, p18 + 21, p18 + 22, p18 + 23, p18 + 24, p18 + 25, p18 + 26, p18 + 27, p18 + 28, p18 + 29, p18 + 30, p18 + 31, p18 + 32, p18 + 33, p18 + 34, p18 + 35, p18 + 36, p18 + 37, p18 + 38, p18 + 39, 12};
Line(19) = {14, 13};
Line(20) = {13, 15};
Line(21) = {16, 15};
Line(22) = {14, 16};
Line(23) = {14, 17};
Line(24) = {17, 18};
Line(25) = {13, 18};
Line(26) = {15, 19};
Line(27) = {18, 19};
Line(28) = {16, 20};
Line(29) = {20, 19};
Line(30) = {17, 20};
Curve Loop(7) = {-13, -14, 15, 14};
Surface(7) = {7};
Curve Loop(8) = {13};
Plane Surface(8) = {8};
Curve Loop(9) = {15};
Plane Surface(9) = {9};
Curve Loop(10) = {-16, -17, 18, 17};
Surface(10) = {10};
Curve Loop(11) = {16};
Plane Surface(11) = {11};
Curve Loop(12) = {18};
Plane Surface(12) = {12};
Curve Loop(13) = {-19, 22, 21, -20};
Plane Surface(13) = {13};
Curve Loop(14) = {-23, 19, 25, -24};
Plane Surface(14) = {14};
Curve Loop(15) = {-20, 25, 27, -26};
Plane Surface(15) = {15};
Curve Loop(16) = {-28, 21, 26, -29};
Plane Surface(16) = {16};
Curve Loop(17) = {-22, 23, 30, -28, -18, -15};
Plane Surface(17) = {17};
Curve Loop(18) = {-24, 30, 29, -27};
Plane Surface(18) = {18};
Surface Loop(1) = {13, 14, 15, 16, 17, 18, 10, 7, 11, 8};
Volume(1) = {1};
Surface Loop(2) = {7, 8, 9};
Volume(2) = {2};
Surface Loop(3) = {10, 11, 12};
Volume(3) = {3};
Physical Surface("WALLS") = {13, 18};
Physical Surface("LOAD") = {8, 11};
Physical Surface("BORDER") = {7, 9, 10, 12, 14, 15, 16, 17};
Physical Volume("SOLID") = {1, 2, 3};
