cl__1 = 0.080107;
cl__2 = 0.059583;
cl__3 = 3.799764;
cl__4 = 3.606336;
cl__5 = 0.494051;
cl__6 = 0.411973;
Point(9) = {30.101265, 1.790687, 0.1, cl__1};
Point(10) = {30.101265, 1.790687, 0, cl__1};
Point(11) = {24.885987, 1.823404, 0.1, cl__2};
Point(12) = {24.885987, 1.823404, 0, cl__2};
Point(13) = {0.094509, -4.087925, 1, cl__3};
Point(14) = {0.094509, -4.087925, 0, cl__3};
Point(15) = {0.094509, 5.593183, 1, cl__4};
Point(16) = {0.094509, 5.593183, 0, cl__4};
Point(17) = {35.437124, -4.087925, 0, cl__5};
Point(18) = {35.437124, -4.087925, 1, cl__5};
Point(19) = {35.437124, 5.593183, 1, cl__6};
Point(20) = {35.437124, 5.593183, 0, cl__6};
p13 = newp;
Point(p13 + 1) = {30.09140247437723, 1.916002269778708, 0.1};
Point(p13 + 2) = {30.06205774562159, 2.038231861717928, 0.1};
Point(p13 + 3) = {30.01395337834462, 2.154366077607358, 0.1};
Point(p13 + 4) = {29.94827386171793, 2.261545307624436, 0.1};
Point(p13 + 5) = {29.86663644341867, 2.35713044341867, 0.1};
Point(p13 + 6) = {29.77105130762444, 2.438767861717928, 0.1};
Point(p13 + 7) = {29.66387207760736, 2.504447378344624, 0.1};
Point(p13 + 8) = {29.54773786171793, 2.552551745621591, 0.1};
Point(p13 + 9) = {29.42550826977871, 2.581896474377228, 0.1};
Point(p13 + 10) = {29.300193, 2.591759, 0.1};
Point(p13 + 11) = {29.17487773022129, 2.581896474377228, 0.1};
Point(p13 + 12) = {29.05264813828207, 2.552551745621591, 0.1};
Point(p13 + 13) = {28.93651392239264, 2.504447378344624, 0.1};
Point(p13 + 14) = {28.82933469237556, 2.438767861717928, 0.1};
Point(p13 + 15) = {28.73374955658133, 2.35713044341867, 0.1};
Point(p13 + 16) = {28.65211213828207, 2.261545307624436, 0.1};
Point(p13 + 17) = {28.58643262165538, 2.154366077607358, 0.1};
Point(p13 + 18) = {28.53832825437841, 2.038231861717928, 0.1};
Point(p13 + 19) = {28.50898352562277, 1.916002269778708, 0.1};
Point(p13 + 20) = {28.499121, 1.790687, 0.1};
Point(p13 + 21) = {28.50898352562277, 1.665371730221292, 0.1};
Point(p13 + 22) = {28.53832825437841, 1.543142138282072, 0.1};
Point(p13 + 23) = {28.58643262165538, 1.427007922392642, 0.1};
Point(p13 + 24) = {28.65211213828207, 1.319828692375564, 0.1};
Point(p13 + 25) = {28.73374955658133, 1.22424355658133, 0.1};
Point(p13 + 26) = {28.82933469237556, 1.142606138282072, 0.1};
Point(p13 + 27) = {28.93651392239264, 1.076926621655376, 0.1};
Point(p13 + 28) = {29.05264813828207, 1.028822254378409, 0.1};
Point(p13 + 29) = {29.17487773022129, 0.9994775256227718, 0.1};
Point(p13 + 30) = {29.300193, 0.9896149999999999, 0.1};
Point(p13 + 31) = {29.42550826977871, 0.9994775256227717, 0.1};
Point(p13 + 32) = {29.54773786171793, 1.028822254378408, 0.1};
Point(p13 + 33) = {29.66387207760736, 1.076926621655375, 0.1};
Point(p13 + 34) = {29.77105130762444, 1.142606138282072, 0.1};
Point(p13 + 35) = {29.86663644341867, 1.22424355658133, 0.1};
Point(p13 + 36) = {29.94827386171793, 1.319828692375564, 0.1};
Point(p13 + 37) = {30.01395337834462, 1.427007922392642, 0.1};
Point(p13 + 38) = {30.06205774562159, 1.543142138282072, 0.1};
Point(p13 + 39) = {30.09140247437723, 1.665371730221292, 0.1};
Spline(13) = {9, p13 + 1, p13 + 2, p13 + 3, p13 + 4, p13 + 5, p13 + 6, p13 + 7, p13 + 8, p13 + 9, p13 + 10, p13 + 11, p13 + 12, p13 + 13, p13 + 14, p13 + 15, p13 + 16, p13 + 17, p13 + 18, p13 + 19, p13 + 20, p13 + 21, p13 + 22, p13 + 23, p13 + 24, p13 + 25, p13 + 26, p13 + 27, p13 + 28, p13 + 29, p13 + 30, p13 + 31, p13 + 32, p13 + 33, p13 + 34, p13 + 35, p13 + 36, p13 + 37, p13 + 38, p13 + 39, 9};
Line(14) = {10, 9};
p15 = newp;
Point(p15 + 1) = {30.09140247437723, 1.916002269778708, 0};
Point(p15 + 2) = {30.06205774562159, 2.038231861717928, 0};
Point(p15 + 3) = {30.01395337834462, 2.154366077607358, 0};
Point(p15 + 4) = {29.94827386171793, 2.261545307624436, 0};
Point(p15 + 5) = {29.86663644341867, 2.35713044341867, 0};
Point(p15 + 6) = {29.77105130762444, 2.438767861717928, 0};
Point(p15 + 7) = {29.66387207760736, 2.504447378344624, 0};
Point(p15 + 8) = {29.54773786171793, 2.552551745621591, 0};
Point(p15 + 9) = {29.42550826977871, 2.581896474377228, 0};
Point(p15 + 10) = {29.300193, 2.591759, 0};
Point(p15 + 11) = {29.17487773022129, 2.581896474377228, 0};
Point(p15 + 12) = {29.05264813828207, 2.552551745621591, 0};
Point(p15 + 13) = {28.93651392239264, 2.504447378344624, 0};
Point(p15 + 14) = {28.82933469237556, 2.438767861717928, 0};
Point(p15 + 15) = {28.73374955658133, 2.35713044341867, 0};
Point(p15 + 16) = {28.65211213828207, 2.261545307624436, 0};
Point(p15 + 17) = {28.58643262165538, 2.154366077607358, 0};
Point(p15 + 18) = {28.53832825437841, 2.038231861717928, 0};
Point(p15 + 19) = {28.50898352562277, 1.916002269778708, 0};
Point(p15 + 20) = {28.499121, 1.790687, 0};
Point(p15 + 21) = {28.50898352562277, 1.665371730221292, 0};
Point(p15 + 22) = {28.53832825437841, 1.543142138282072, 0};
Point(p15 + 23) = {28.58643262165538, 1.427007922392642, 0};
Point(p15 + 24) = {28.65211213828207, 1.319828692375564, 0};
Point(p15 + 25) = {28.73374955658133, 1.22424355658133, 0};
Point(p15 + 26) = {28.82933469237556, 1.142606138282072, 0};
Point(p15 + 27) = {28.93651392239264, 1.076926621655376, 0};
Point(p15 + 28) = {29.05264813828207, 1.028822254378409, 0};
Point(p15 + 29) = {29.17487773022129, 0.9994775256227718, 0};
Point(p15 + 30) = {29.300193, 0.9896149999999999, 0};
Point(p15 + 31) = {29.42550826977871, 0.9994775256227717, 0};
Point(p15 + 32) = {29.54773786171793, 1.028822254378408, 0};
Point(p15 + 33) = {29.66387207760736, 1.076926621655375, 0};
Point(p15 + 34) = {29.77105130762444, 1.142606138282072, 0};
Point(p15 + 35) = {29.86663644341867, 1.22424355658133, 0};
Point(p15 + 36) = {29.94827386171793, 1.319828692375564, 0};
Point(p15 + 37) = {30.01395337834462, 1.427007922392642, 0};
Point(p15 + 38) = {30.06205774562159, 1.543142138282072, 0};
Point(p15 + 39) = {30.09140247437723, 1.665371730221292, 0};
Spline(15) = {10, p15 + 1, p15 + 2, p15 + 3, p15 + 4, p15 + 5, p15 + 6, p15 + 7, p15 + 8, p15 + 9, p15 + 10, p15 + 11, p15 + 12, p15 + 13, p15 + 14, p15 + 15, p15 + 16, p15 + 17, p15 + 18, p15 + 19, p15 + 20, p15 + 21, p15 + 22, p15 + 23, p15 + 24, p15 + 25, p15 + 26, p15 + 27, p15 + 28, p15 + 29, p15 + 30, p15 + 31, p15 + 32, p15 + 33, p15 + 34, p15 + 35, p15 + 36, p15 + 37, p15 + 38, p15 + 39, 10};
p16 = newp;
Point(p16 + 1) = {24.87865130704182, 1.916612816608316, 0.1};
Point(p16 + 2) = {24.85682485727369, 2.007526522809408, 0.1};
Point(p16 + 3) = {24.82104509032673, 2.093906521431313, 0.1};
Point(p16 + 4) = {24.77219302280941, 2.173625850229181, 0.1};
Point(p16 + 5) = {24.71147155475473, 2.244721554754724, 0.1};
Point(p16 + 6) = {24.64037585022918, 2.305443022809408, 0.1};
Point(p16 + 7) = {24.56065652143132, 2.354295090326728, 0.1};
Point(p16 + 8) = {24.47427652280941, 2.39007485727369, 0.1};
Point(p16 + 9) = {24.38336281660832, 2.411901307041822, 0.1};
Point(p16 + 10) = {24.290154, 2.419237, 0.1};
Point(p16 + 11) = {24.19694518339168, 2.411901307041822, 0.1};
Point(p16 + 12) = {24.10603147719059, 2.390074857273691, 0.1};
Point(p16 + 13) = {24.01965147856869, 2.354295090326728, 0.1};
Point(p16 + 14) = {23.93993214977082, 2.305443022809408, 0.1};
Point(p16 + 15) = {23.86883644524528, 2.244721554754724, 0.1};
Point(p16 + 16) = {23.80811497719059, 2.173625850229181, 0.1};
Point(p16 + 17) = {23.75926290967328, 2.093906521431313, 0.1};
Point(p16 + 18) = {23.72348314272631, 2.007526522809408, 0.1};
Point(p16 + 19) = {23.70165669295818, 1.916612816608316, 0.1};
Point(p16 + 20) = {23.694321, 1.823404, 0.1};
Point(p16 + 21) = {23.70165669295818, 1.730195183391684, 0.1};
Point(p16 + 22) = {23.72348314272631, 1.639281477190592, 0.1};
Point(p16 + 23) = {23.75926290967328, 1.552901478568687, 0.1};
Point(p16 + 24) = {23.80811497719059, 1.473182149770819, 0.1};
Point(p16 + 25) = {23.86883644524528, 1.402086445245276, 0.1};
Point(p16 + 26) = {23.93993214977082, 1.341364977190592, 0.1};
Point(p16 + 27) = {24.01965147856869, 1.292512909673272, 0.1};
Point(p16 + 28) = {24.10603147719059, 1.25673314272631, 0.1};
Point(p16 + 29) = {24.19694518339168, 1.234906692958178, 0.1};
Point(p16 + 30) = {24.290154, 1.227571, 0.1};
Point(p16 + 31) = {24.38336281660832, 1.234906692958177, 0.1};
Point(p16 + 32) = {24.47427652280941, 1.25673314272631, 0.1};
Point(p16 + 33) = {24.56065652143132, 1.292512909673272, 0.1};
Point(p16 + 34) = {24.64037585022918, 1.341364977190592, 0.1};
Point(p16 + 35) = {24.71147155475472, 1.402086445245276, 0.1};
Point(p16 + 36) = {24.77219302280941, 1.473182149770819, 0.1};
Point(p16 + 37) = {24.82104509032673, 1.552901478568687, 0.1};
Point(p16 + 38) = {24.85682485727369, 1.639281477190592, 0.1};
Point(p16 + 39) = {24.87865130704182, 1.730195183391684, 0.1};
Spline(16) = {11, p16 + 1, p16 + 2, p16 + 3, p16 + 4, p16 + 5, p16 + 6, p16 + 7, p16 + 8, p16 + 9, p16 + 10, p16 + 11, p16 + 12, p16 + 13, p16 + 14, p16 + 15, p16 + 16, p16 + 17, p16 + 18, p16 + 19, p16 + 20, p16 + 21, p16 + 22, p16 + 23, p16 + 24, p16 + 25, p16 + 26, p16 + 27, p16 + 28, p16 + 29, p16 + 30, p16 + 31, p16 + 32, p16 + 33, p16 + 34, p16 + 35, p16 + 36, p16 + 37, p16 + 38, p16 + 39, 11};
Line(17) = {12, 11};
p18 = newp;
Point(p18 + 1) = {24.87865130704182, 1.916612816608316, 0};
Point(p18 + 2) = {24.85682485727369, 2.007526522809408, 0};
Point(p18 + 3) = {24.82104509032673, 2.093906521431313, 0};
Point(p18 + 4) = {24.77219302280941, 2.173625850229181, 0};
Point(p18 + 5) = {24.71147155475473, 2.244721554754724, 0};
Point(p18 + 6) = {24.64037585022918, 2.305443022809408, 0};
Point(p18 + 7) = {24.56065652143132, 2.354295090326728, 0};
Point(p18 + 8) = {24.47427652280941, 2.39007485727369, 0};
Point(p18 + 9) = {24.38336281660832, 2.411901307041822, 0};
Point(p18 + 10) = {24.290154, 2.419237, 0};
Point(p18 + 11) = {24.19694518339168, 2.411901307041822, 0};
Point(p18 + 12) = {24.10603147719059, 2.390074857273691, 0};
Point(p18 + 13) = {24.01965147856869, 2.354295090326728, 0};
Point(p18 + 14) = {23.93993214977082, 2.305443022809408, 0};
Point(p18 + 15) = {23.86883644524528, 2.244721554754724, 0};
Point(p18 + 16) = {23.80811497719059, 2.173625850229181, 0};
Point(p18 + 17) = {23.75926290967328, 2.093906521431313, 0};
Point(p18 + 18) = {23.72348314272631, 2.007526522809408, 0};
Point(p18 + 19) = {23.70165669295818, 1.916612816608316, 0};
Point(p18 + 20) = {23.694321, 1.823404, 0};
Point(p18 + 21) = {23.70165669295818, 1.730195183391684, 0};
Point(p18 + 22) = {23.72348314272631, 1.639281477190592, 0};
Point(p18 + 23) = {23.75926290967328, 1.552901478568687, 0};
Point(p18 + 24) = {23.80811497719059, 1.473182149770819, 0};
Point(p18 + 25) = {23.86883644524528, 1.402086445245276, 0};
Point(p18 + 26) = {23.93993214977082, 1.341364977190592, 0};
Point(p18 + 27) = {24.01965147856869, 1.292512909673272, 0};
Point(p18 + 28) = {24.10603147719059, 1.25673314272631, 0};
Point(p18 + 29) = {24.19694518339168, 1.234906692958178, 0};
Point(p18 + 30) = {24.290154, 1.227571, 0};
Point(p18 + 31) = {24.38336281660832, 1.234906692958177, 0};
Point(p18 + 32) = {24.47427652280941, 1.25673314272631, 0};
Point(p18 + 33) = {24.56065652143132, 1.292512909673272, 0};
Point(p18 + 34) = {24.64037585022918, 1.341364977190592, 0};
Point(p18 + 35) = {24.71147155475472, 1.402086445245276, 0};
Point(p18 + 36) = {24.77219302280941, 1.473182149770819, 0};
Point(p18 + 37) = {24.82104509032673, 1.552901478568687, 0};
Point(p18 + 38) = {24.85682485727369, 1.639281477190592, 0};
Point(p18 + 39) = {24.87865130704182, 1.730195183391684, 0};
Spline(18) = {12, p18 + 1, p18 + 2, p18 + 3, p18 + 4, p18 + 5, p18 + 6, p18 + 7, p18 + 8, p18 + 9, p18 + 10, p18 + 11, p18 + 12, p18 + 13, p18 + 14, p18 + 15, p18 + 16, p18 + 17, p18 + 18, p18 + 19, p18 + 20, p18 + 21, p18 + 22, p18 + 23, p18 + 24, p18 + 25, p18 + 26, p18 + 27, p18 + 28, p18 + 29, p18 + 30, p18 + 31, p18 + 32, p18 + 33, p18 + 34, p18 + 35, p18 + 36, p18 + 37, p18 + 38, p18 + 39, 12};
Line(19) = {14, 13};
Line(20) = {13, 15};
Line(21) = {16, 15};
Line(22) = {14, 16};
Line(23) = {14, 17};
Line(24) = {17, 18};
Line(25) = {13, 18};
Line(26) = {15, 19};
Line(27) = {18, 19};
Line(28) = {16, 20};
Line(29) = {20, 19};
Line(30) = {17, 20};
Curve Loop(7) = {-13, -14, 15, 14};
Surface(7) = {7};
Curve Loop(8) = {13};
Plane Surface(8) = {8};
Curve Loop(9) = {15};
Plane Surface(9) = {9};
Curve Loop(10) = {-16, -17, 18, 17};
Surface(10) = {10};
Curve Loop(11) = {16};
Plane Surface(11) = {11};
Curve Loop(12) = {18};
Plane Surface(12) = {12};
Curve Loop(13) = {-19, 22, 21, -20};
Plane Surface(13) = {13};
Curve Loop(14) = {-23, 19, 25, -24};
Plane Surface(14) = {14};
Curve Loop(15) = {-20, 25, 27, -26};
Plane Surface(15) = {15};
Curve Loop(16) = {-28, 21, 26, -29};
Plane Surface(16) = {16};
Curve Loop(17) = {-22, 23, 30, -28, -18, -15};
Plane Surface(17) = {17};
Curve Loop(18) = {-24, 30, 29, -27};
Plane Surface(18) = {18};
Surface Loop(1) = {13, 14, 15, 16, 17, 18, 10, 7, 11, 8};
Volume(1) = {1};
Surface Loop(2) = {7, 8, 9};
Volume(2) = {2};
Surface Loop(3) = {10, 11, 12};
Volume(3) = {3};
Physical Surface("WALLS") = {13, 18};
Physical Surface("LOAD") = {8, 11};
Physical Surface("BORDER") = {7, 9, 10, 12, 14, 15, 16, 17};
Physical Volume("SOLID") = {1, 2, 3};
