cl__1 = 0.08455699999999999;
cl__2 = 0.092431;
cl__3 = 0.538284;
cl__4 = 0.678101;
cl__5 = 2.763057;
cl__6 = 2.630256;
Point(9) = {7.008526, -0.5357380000000002, 0.1, cl__1};
Point(10) = {7.008526, -0.5357380000000002, 0, cl__1};
Point(11) = {23.846712, 1.277406, 0.1, cl__2};
Point(12) = {23.846712, 1.277406, 0, cl__2};
Point(13) = {0.009397000000000001, -3.792381, 1, cl__3};
Point(14) = {0.009397000000000001, -3.792381, 0, cl__3};
Point(15) = {0.009397000000000001, 5.401646, 1, cl__4};
Point(16) = {0.009397000000000001, 5.401646, 0, cl__4};
Point(17) = {39.012094, -3.792381, 0, cl__5};
Point(18) = {39.012094, -3.792381, 1, cl__5};
Point(19) = {39.012094, 5.401646, 1, cl__6};
Point(20) = {39.012094, 5.401646, 0, cl__6};
p13 = newp;
Point(p13 + 1) = {6.998115679403668, -0.4034623351337921, 0.1};
Point(p13 + 2) = {6.967141054257628, -0.2744437361343532, 0.1};
Point(p13 + 3) = {6.916364822631861, -0.1518590690972305, 0.1};
Point(p13 + 4) = {6.847037263865647, -0.03872677536006269, 0.1};
Point(p13 + 5) = {6.760865452540784, 0.06216745254078415, 0.1};
Point(p13 + 6) = {6.659971224639937, 0.1483392638656467, 0.1};
Point(p13 + 7) = {6.546838930902769, 0.2176668226318614, 0.1};
Point(p13 + 8) = {6.424254263865647, 0.2684430542576278, 0.1};
Point(p13 + 9) = {6.295235664866208, 0.2994176794036683, 0.1};
Point(p13 + 10) = {6.16296, 0.309828, 0.1};
Point(p13 + 11) = {6.030684335133792, 0.2994176794036681, 0.1};
Point(p13 + 12) = {5.901665736134353, 0.2684430542576278, 0.1};
Point(p13 + 13) = {5.779081069097231, 0.2176668226318614, 0.1};
Point(p13 + 14) = {5.665948775360063, 0.1483392638656468, 0.1};
Point(p13 + 15) = {5.565054547459216, 0.06216745254078426, 0.1};
Point(p13 + 16) = {5.478882736134353, -0.03872677536006258, 0.1};
Point(p13 + 17) = {5.409555177368139, -0.1518590690972303, 0.1};
Point(p13 + 18) = {5.358778945742372, -0.2744437361343532, 0.1};
Point(p13 + 19) = {5.327804320596332, -0.4034623351337921, 0.1};
Point(p13 + 20) = {5.317394, -0.5357379999999999, 0.1};
Point(p13 + 21) = {5.327804320596332, -0.6680136648662078, 0.1};
Point(p13 + 22) = {5.358778945742372, -0.7970322638656471, 0.1};
Point(p13 + 23) = {5.409555177368138, -0.9196169309027693, 0.1};
Point(p13 + 24) = {5.478882736134353, -1.032749224639937, 0.1};
Point(p13 + 25) = {5.565054547459216, -1.133643452540784, 0.1};
Point(p13 + 26) = {5.665948775360063, -1.219815263865647, 0.1};
Point(p13 + 27) = {5.77908106909723, -1.289142822631862, 0.1};
Point(p13 + 28) = {5.901665736134353, -1.339919054257628, 0.1};
Point(p13 + 29) = {6.030684335133792, -1.370893679403668, 0.1};
Point(p13 + 30) = {6.16296, -1.381304, 0.1};
Point(p13 + 31) = {6.295235664866207, -1.370893679403668, 0.1};
Point(p13 + 32) = {6.424254263865647, -1.339919054257628, 0.1};
Point(p13 + 33) = {6.546838930902769, -1.289142822631862, 0.1};
Point(p13 + 34) = {6.659971224639937, -1.219815263865647, 0.1};
Point(p13 + 35) = {6.760865452540784, -1.133643452540785, 0.1};
Point(p13 + 36) = {6.847037263865647, -1.032749224639937, 0.1};
Point(p13 + 37) = {6.916364822631861, -0.9196169309027699, 0.1};
Point(p13 + 38) = {6.967141054257628, -0.7970322638656471, 0.1};
Point(p13 + 39) = {6.998115679403668, -0.6680136648662081, 0.1};
Spline(13) = {9, p13 + 1, p13 + 2, p13 + 3, p13 + 4, p13 + 5, p13 + 6, p13 + 7, p13 + 8, p13 + 9, p13 + 10, p13 + 11, p13 + 12, p13 + 13, p13 + 14, p13 + 15, p13 + 16, p13 + 17, p13 + 18, p13 + 19, p13 + 20, p13 + 21, p13 + 22, p13 + 23, p13 + 24, p13 + 25, p13 + 26, p13 + 27, p13 + 28, p13 + 29, p13 + 30, p13 + 31, p13 + 32, p13 + 33, p13 + 34, p13 + 35, p13 + 36, p13 + 37, p13 + 38, p13 + 39, 9};
Line(14) = {10, 9};
p15 = newp;
Point(p15 + 1) = {6.998115679403668, -0.4034623351337921, 0};
Point(p15 + 2) = {6.967141054257628, -0.2744437361343532, 0};
Point(p15 + 3) = {6.916364822631861, -0.1518590690972305, 0};
Point(p15 + 4) = {6.847037263865647, -0.03872677536006269, 0};
Point(p15 + 5) = {6.760865452540784, 0.06216745254078415, 0};
Point(p15 + 6) = {6.659971224639937, 0.1483392638656467, 0};
Point(p15 + 7) = {6.546838930902769, 0.2176668226318614, 0};
Point(p15 + 8) = {6.424254263865647, 0.2684430542576278, 0};
Point(p15 + 9) = {6.295235664866208, 0.2994176794036683, 0};
Point(p15 + 10) = {6.16296, 0.309828, 0};
Point(p15 + 11) = {6.030684335133792, 0.2994176794036681, 0};
Point(p15 + 12) = {5.901665736134353, 0.2684430542576278, 0};
Point(p15 + 13) = {5.779081069097231, 0.2176668226318614, 0};
Point(p15 + 14) = {5.665948775360063, 0.1483392638656468, 0};
Point(p15 + 15) = {5.565054547459216, 0.06216745254078426, 0};
Point(p15 + 16) = {5.478882736134353, -0.03872677536006258, 0};
Point(p15 + 17) = {5.409555177368139, -0.1518590690972303, 0};
Point(p15 + 18) = {5.358778945742372, -0.2744437361343532, 0};
Point(p15 + 19) = {5.327804320596332, -0.4034623351337921, 0};
Point(p15 + 20) = {5.317394, -0.5357379999999999, 0};
Point(p15 + 21) = {5.327804320596332, -0.6680136648662078, 0};
Point(p15 + 22) = {5.358778945742372, -0.7970322638656471, 0};
Point(p15 + 23) = {5.409555177368138, -0.9196169309027693, 0};
Point(p15 + 24) = {5.478882736134353, -1.032749224639937, 0};
Point(p15 + 25) = {5.565054547459216, -1.133643452540784, 0};
Point(p15 + 26) = {5.665948775360063, -1.219815263865647, 0};
Point(p15 + 27) = {5.77908106909723, -1.289142822631862, 0};
Point(p15 + 28) = {5.901665736134353, -1.339919054257628, 0};
Point(p15 + 29) = {6.030684335133792, -1.370893679403668, 0};
Point(p15 + 30) = {6.16296, -1.381304, 0};
Point(p15 + 31) = {6.295235664866207, -1.370893679403668, 0};
Point(p15 + 32) = {6.424254263865647, -1.339919054257628, 0};
Point(p15 + 33) = {6.546838930902769, -1.289142822631862, 0};
Point(p15 + 34) = {6.659971224639937, -1.219815263865647, 0};
Point(p15 + 35) = {6.760865452540784, -1.133643452540785, 0};
Point(p15 + 36) = {6.847037263865647, -1.032749224639937, 0};
Point(p15 + 37) = {6.916364822631861, -0.9196169309027699, 0};
Point(p15 + 38) = {6.967141054257628, -0.7970322638656471, 0};
Point(p15 + 39) = {6.998115679403668, -0.6680136648662081, 0};
Spline(15) = {10, p15 + 1, p15 + 2, p15 + 3, p15 + 4, p15 + 5, p15 + 6, p15 + 7, p15 + 8, p15 + 9, p15 + 10, p15 + 11, p15 + 12, p15 + 13, p15 + 14, p15 + 15, p15 + 16, p15 + 17, p15 + 18, p15 + 19, p15 + 20, p15 + 21, p15 + 22, p15 + 23, p15 + 24, p15 + 25, p15 + 26, p15 + 27, p15 + 28, p15 + 29, p15 + 30, p15 + 31, p15 + 32, p15 + 33, p15 + 34, p15 + 35, p15 + 36, p15 + 37, p15 + 38, p15 + 39, 10};
p16 = newp;
Point(p16 + 1) = {23.83533222240715, 1.421999783946871, 0.1};
Point(p16 + 2) = {23.80147309752025, 1.563033189053713, 0.1};
Point(p16 + 3) = {23.74596834936602, 1.697033504823761, 0.1};
Point(p16 + 4) = {23.67018468905371, 1.820701198761204, 0.1};
Point(p16 + 5) = {23.57598816181176, 1.930991161811757, 0.1};
Point(p16 + 6) = {23.4656981987612, 2.025187689053713, 0.1};
Point(p16 + 7) = {23.34203050482376, 2.100971349366026, 0.1};
Point(p16 + 8) = {23.20803018905371, 2.156476097520257, 0.1};
Point(p16 + 9) = {23.06699678394687, 2.190335222407152, 0.1};
Point(p16 + 10) = {22.922403, 2.201715, 0.1};
Point(p16 + 11) = {22.77780921605313, 2.190335222407151, 0.1};
Point(p16 + 12) = {22.63677581094629, 2.156476097520257, 0.1};
Point(p16 + 13) = {22.50277549517624, 2.100971349366026, 0.1};
Point(p16 + 14) = {22.3791078012388, 2.025187689053713, 0.1};
Point(p16 + 15) = {22.26881783818824, 1.930991161811757, 0.1};
Point(p16 + 16) = {22.17462131094629, 1.820701198761204, 0.1};
Point(p16 + 17) = {22.09883765063397, 1.697033504823761, 0.1};
Point(p16 + 18) = {22.04333290247974, 1.563033189053713, 0.1};
Point(p16 + 19) = {22.00947377759285, 1.421999783946871, 0.1};
Point(p16 + 20) = {21.998094, 1.277406, 0.1};
Point(p16 + 21) = {22.00947377759285, 1.132812216053129, 0.1};
Point(p16 + 22) = {22.04333290247974, 0.9917788109462864, 0.1};
Point(p16 + 23) = {22.09883765063397, 0.8577784951762397, 0.1};
Point(p16 + 24) = {22.17462131094629, 0.7341108012387966, 0.1};
Point(p16 + 25) = {22.26881783818824, 0.6238208381882435, 0.1};
Point(p16 + 26) = {22.3791078012388, 0.5296243109462868, 0.1};
Point(p16 + 27) = {22.50277549517624, 0.4538406506339739, 0.1};
Point(p16 + 28) = {22.63677581094629, 0.3983359024797429, 0.1};
Point(p16 + 29) = {22.77780921605313, 0.3644767775928489, 0.1};
Point(p16 + 30) = {22.922403, 0.353097, 0.1};
Point(p16 + 31) = {23.06699678394687, 0.3644767775928488, 0.1};
Point(p16 + 32) = {23.20803018905371, 0.3983359024797428, 0.1};
Point(p16 + 33) = {23.34203050482376, 0.4538406506339737, 0.1};
Point(p16 + 34) = {23.4656981987612, 0.5296243109462866, 0.1};
Point(p16 + 35) = {23.57598816181176, 0.6238208381882433, 0.1};
Point(p16 + 36) = {23.67018468905371, 0.7341108012387964, 0.1};
Point(p16 + 37) = {23.74596834936602, 0.8577784951762391, 0.1};
Point(p16 + 38) = {23.80147309752025, 0.9917788109462866, 0.1};
Point(p16 + 39) = {23.83533222240715, 1.132812216053129, 0.1};
Spline(16) = {11, p16 + 1, p16 + 2, p16 + 3, p16 + 4, p16 + 5, p16 + 6, p16 + 7, p16 + 8, p16 + 9, p16 + 10, p16 + 11, p16 + 12, p16 + 13, p16 + 14, p16 + 15, p16 + 16, p16 + 17, p16 + 18, p16 + 19, p16 + 20, p16 + 21, p16 + 22, p16 + 23, p16 + 24, p16 + 25, p16 + 26, p16 + 27, p16 + 28, p16 + 29, p16 + 30, p16 + 31, p16 + 32, p16 + 33, p16 + 34, p16 + 35, p16 + 36, p16 + 37, p16 + 38, p16 + 39, 11};
Line(17) = {12, 11};
p18 = newp;
Point(p18 + 1) = {23.83533222240715, 1.421999783946871, 0};
Point(p18 + 2) = {23.80147309752025, 1.563033189053713, 0};
Point(p18 + 3) = {23.74596834936602, 1.697033504823761, 0};
Point(p18 + 4) = {23.67018468905371, 1.820701198761204, 0};
Point(p18 + 5) = {23.57598816181176, 1.930991161811757, 0};
Point(p18 + 6) = {23.4656981987612, 2.025187689053713, 0};
Point(p18 + 7) = {23.34203050482376, 2.100971349366026, 0};
Point(p18 + 8) = {23.20803018905371, 2.156476097520257, 0};
Point(p18 + 9) = {23.06699678394687, 2.190335222407152, 0};
Point(p18 + 10) = {22.922403, 2.201715, 0};
Point(p18 + 11) = {22.77780921605313, 2.190335222407151, 0};
Point(p18 + 12) = {22.63677581094629, 2.156476097520257, 0};
Point(p18 + 13) = {22.50277549517624, 2.100971349366026, 0};
Point(p18 + 14) = {22.3791078012388, 2.025187689053713, 0};
Point(p18 + 15) = {22.26881783818824, 1.930991161811757, 0};
Point(p18 + 16) = {22.17462131094629, 1.820701198761204, 0};
Point(p18 + 17) = {22.09883765063397, 1.697033504823761, 0};
Point(p18 + 18) = {22.04333290247974, 1.563033189053713, 0};
Point(p18 + 19) = {22.00947377759285, 1.421999783946871, 0};
Point(p18 + 20) = {21.998094, 1.277406, 0};
Point(p18 + 21) = {22.00947377759285, 1.132812216053129, 0};
Point(p18 + 22) = {22.04333290247974, 0.9917788109462864, 0};
Point(p18 + 23) = {22.09883765063397, 0.8577784951762397, 0};
Point(p18 + 24) = {22.17462131094629, 0.7341108012387966, 0};
Point(p18 + 25) = {22.26881783818824, 0.6238208381882435, 0};
Point(p18 + 26) = {22.3791078012388, 0.5296243109462868, 0};
Point(p18 + 27) = {22.50277549517624, 0.4538406506339739, 0};
Point(p18 + 28) = {22.63677581094629, 0.3983359024797429, 0};
Point(p18 + 29) = {22.77780921605313, 0.3644767775928489, 0};
Point(p18 + 30) = {22.922403, 0.353097, 0};
Point(p18 + 31) = {23.06699678394687, 0.3644767775928488, 0};
Point(p18 + 32) = {23.20803018905371, 0.3983359024797428, 0};
Point(p18 + 33) = {23.34203050482376, 0.4538406506339737, 0};
Point(p18 + 34) = {23.4656981987612, 0.5296243109462866, 0};
Point(p18 + 35) = {23.57598816181176, 0.6238208381882433, 0};
Point(p18 + 36) = {23.67018468905371, 0.7341108012387964, 0};
Point(p18 + 37) = {23.74596834936602, 0.8577784951762391, 0};
Point(p18 + 38) = {23.80147309752025, 0.9917788109462866, 0};
Point(p18 + 39) = {23.83533222240715, 1.132812216053129, 0};
Spline(18) = {12, p18 + 1, p18 + 2, p18 + 3, p18 + 4, p18 + 5, p18 + 6, p18 + 7, p18 + 8, p18 + 9, p18 + 10, p18 + 11, p18 + 12, p18 + 13, p18 + 14, p18 + 15, p18 + 16, p18 + 17, p18 + 18, p18 + 19, p18 + 20, p18 + 21, p18 + 22, p18 + 23, p18 + 24, p18 + 25, p18 + 26, p18 + 27, p18 + 28, p18 + 29, p18 + 30, p18 + 31, p18 + 32, p18 + 33, p18 + 34, p18 + 35, p18 + 36, p18 + 37, p18 + 38, p18 + 39, 12};
Line(19) = {14, 13};
Line(20) = {13, 15};
Line(21) = {16, 15};
Line(22) = {14, 16};
Line(23) = {14, 17};
Line(24) = {17, 18};
Line(25) = {13, 18};
Line(26) = {15, 19};
Line(27) = {18, 19};
Line(28) = {16, 20};
Line(29) = {20, 19};
Line(30) = {17, 20};
Curve Loop(7) = {-13, -14, 15, 14};
Surface(7) = {7};
Curve Loop(8) = {13};
Plane Surface(8) = {8};
Curve Loop(9) = {15};
Plane Surface(9) = {9};
Curve Loop(10) = {-16, -17, 18, 17};
Surface(10) = {10};
Curve Loop(11) = {16};
Plane Surface(11) = {11};
Curve Loop(12) = {18};
Plane Surface(12) = {12};
Curve Loop(13) = {-19, 22, 21, -20};
Plane Surface(13) = {13};
Curve Loop(14) = {-23, 19, 25, -24};
Plane Surface(14) = {14};
Curve Loop(15) = {-20, 25, 27, -26};
Plane Surface(15) = {15};
Curve Loop(16) = {-28, 21, 26, -29};
Plane Surface(16) = {16};
Curve Loop(17) = {-22, 23, 30, -28, -15, -18};
Plane Surface(17) = {17};
Curve Loop(18) = {-24, 30, 29, -27};
Plane Surface(18) = {18};
Surface Loop(1) = {13, 14, 15, 16, 17, 18, 7, 10, 8, 11};
Volume(1) = {1};
Surface Loop(2) = {7, 8, 9};
Volume(2) = {2};
Surface Loop(3) = {10, 11, 12};
Volume(3) = {3};
Physical Surface("WALLS") = {13, 18};
Physical Surface("LOAD") = {8, 11};
Physical Surface("BORDER") = {7, 9, 10, 12, 14, 15, 16, 17};
Physical Volume("SOLID") = {1, 2, 3};
