cl__1 = 0.07284;
cl__2 = 0.088298;
cl__3 = 0.6797299999999999;
cl__4 = 0.73102;
cl__5 = 2.347461;
cl__6 = 2.001456;
Point(9) = {19.409916, 1.72815, 0.1, cl__1};
Point(10) = {19.409916, 1.72815, 0, cl__1};
Point(11) = {8.843413, -0.2190290000000002, 0.1, cl__2};
Point(12) = {8.843413, -0.2190290000000002, 0, cl__2};
Point(13) = {0.566886, -3.510943, 1, cl__3};
Point(14) = {0.566886, -3.510943, 0, cl__3};
Point(15) = {0.566886, 4.246319, 1, cl__4};
Point(16) = {0.566886, 4.246319, 0, cl__4};
Point(17) = {32.551161, -3.510943, 0, cl__5};
Point(18) = {32.551161, -3.510943, 1, cl__5};
Point(19) = {32.551161, 4.246319, 1, cl__6};
Point(20) = {32.551161, 4.246319, 0, cl__6};
p13 = newp;
Point(p13 + 1) = {19.40094813804286, 1.842097490073164, 0.1};
Point(p13 + 2) = {19.37426537069546, 1.953239214770689, 0.1};
Point(p13 + 3) = {19.33052471624491, 2.058838495972285, 0.1};
Point(p13 + 4) = {19.27080321477069, 2.156295128910847, 0.1};
Point(p13 + 5) = {19.19657140784341, 2.243209407843406, 0.1};
Point(p13 + 6) = {19.10965712891085, 2.317441214770689, 0.1};
Point(p13 + 7) = {19.01220049597229, 2.377162716244904, 0.1};
Point(p13 + 8) = {18.90660121477069, 2.420903370695455, 0.1};
Point(p13 + 9) = {18.79545949007317, 2.447586138042861, 0.1};
Point(p13 + 10) = {18.681512, 2.456554, 0.1};
Point(p13 + 11) = {18.56756450992684, 2.447586138042861, 0.1};
Point(p13 + 12) = {18.45642278522931, 2.420903370695455, 0.1};
Point(p13 + 13) = {18.35082350402772, 2.377162716244904, 0.1};
Point(p13 + 14) = {18.25336687108916, 2.317441214770689, 0.1};
Point(p13 + 15) = {18.1664525921566, 2.243209407843406, 0.1};
Point(p13 + 16) = {18.09222078522931, 2.156295128910847, 0.1};
Point(p13 + 17) = {18.0324992837551, 2.058838495972285, 0.1};
Point(p13 + 18) = {17.98875862930455, 1.953239214770689, 0.1};
Point(p13 + 19) = {17.96207586195714, 1.842097490073165, 0.1};
Point(p13 + 20) = {17.953108, 1.72815, 0.1};
Point(p13 + 21) = {17.96207586195714, 1.614202509926836, 0.1};
Point(p13 + 22) = {17.98875862930455, 1.503060785229311, 0.1};
Point(p13 + 23) = {18.0324992837551, 1.397461504027716, 0.1};
Point(p13 + 24) = {18.09222078522931, 1.300004871089154, 0.1};
Point(p13 + 25) = {18.1664525921566, 1.213090592156594, 0.1};
Point(p13 + 26) = {18.25336687108916, 1.138858785229311, 0.1};
Point(p13 + 27) = {18.35082350402772, 1.079137283755096, 0.1};
Point(p13 + 28) = {18.45642278522931, 1.035396629304545, 0.1};
Point(p13 + 29) = {18.56756450992684, 1.008713861957139, 0.1};
Point(p13 + 30) = {18.681512, 0.999746, 0.1};
Point(p13 + 31) = {18.79545949007317, 1.008713861957139, 0.1};
Point(p13 + 32) = {18.90660121477069, 1.035396629304545, 0.1};
Point(p13 + 33) = {19.01220049597229, 1.079137283755096, 0.1};
Point(p13 + 34) = {19.10965712891085, 1.138858785229311, 0.1};
Point(p13 + 35) = {19.19657140784341, 1.213090592156594, 0.1};
Point(p13 + 36) = {19.27080321477069, 1.300004871089153, 0.1};
Point(p13 + 37) = {19.33052471624491, 1.397461504027715, 0.1};
Point(p13 + 38) = {19.37426537069546, 1.503060785229311, 0.1};
Point(p13 + 39) = {19.40094813804286, 1.614202509926836, 0.1};
Spline(13) = {9, p13 + 1, p13 + 2, p13 + 3, p13 + 4, p13 + 5, p13 + 6, p13 + 7, p13 + 8, p13 + 9, p13 + 10, p13 + 11, p13 + 12, p13 + 13, p13 + 14, p13 + 15, p13 + 16, p13 + 17, p13 + 18, p13 + 19, p13 + 20, p13 + 21, p13 + 22, p13 + 23, p13 + 24, p13 + 25, p13 + 26, p13 + 27, p13 + 28, p13 + 29, p13 + 30, p13 + 31, p13 + 32, p13 + 33, p13 + 34, p13 + 35, p13 + 36, p13 + 37, p13 + 38, p13 + 39, 9};
Line(14) = {10, 9};
p15 = newp;
Point(p15 + 1) = {19.40094813804286, 1.842097490073164, 0};
Point(p15 + 2) = {19.37426537069546, 1.953239214770689, 0};
Point(p15 + 3) = {19.33052471624491, 2.058838495972285, 0};
Point(p15 + 4) = {19.27080321477069, 2.156295128910847, 0};
Point(p15 + 5) = {19.19657140784341, 2.243209407843406, 0};
Point(p15 + 6) = {19.10965712891085, 2.317441214770689, 0};
Point(p15 + 7) = {19.01220049597229, 2.377162716244904, 0};
Point(p15 + 8) = {18.90660121477069, 2.420903370695455, 0};
Point(p15 + 9) = {18.79545949007317, 2.447586138042861, 0};
Point(p15 + 10) = {18.681512, 2.456554, 0};
Point(p15 + 11) = {18.56756450992684, 2.447586138042861, 0};
Point(p15 + 12) = {18.45642278522931, 2.420903370695455, 0};
Point(p15 + 13) = {18.35082350402772, 2.377162716244904, 0};
Point(p15 + 14) = {18.25336687108916, 2.317441214770689, 0};
Point(p15 + 15) = {18.1664525921566, 2.243209407843406, 0};
Point(p15 + 16) = {18.09222078522931, 2.156295128910847, 0};
Point(p15 + 17) = {18.0324992837551, 2.058838495972285, 0};
Point(p15 + 18) = {17.98875862930455, 1.953239214770689, 0};
Point(p15 + 19) = {17.96207586195714, 1.842097490073165, 0};
Point(p15 + 20) = {17.953108, 1.72815, 0};
Point(p15 + 21) = {17.96207586195714, 1.614202509926836, 0};
Point(p15 + 22) = {17.98875862930455, 1.503060785229311, 0};
Point(p15 + 23) = {18.0324992837551, 1.397461504027716, 0};
Point(p15 + 24) = {18.09222078522931, 1.300004871089154, 0};
Point(p15 + 25) = {18.1664525921566, 1.213090592156594, 0};
Point(p15 + 26) = {18.25336687108916, 1.138858785229311, 0};
Point(p15 + 27) = {18.35082350402772, 1.079137283755096, 0};
Point(p15 + 28) = {18.45642278522931, 1.035396629304545, 0};
Point(p15 + 29) = {18.56756450992684, 1.008713861957139, 0};
Point(p15 + 30) = {18.681512, 0.999746, 0};
Point(p15 + 31) = {18.79545949007317, 1.008713861957139, 0};
Point(p15 + 32) = {18.90660121477069, 1.035396629304545, 0};
Point(p15 + 33) = {19.01220049597229, 1.079137283755096, 0};
Point(p15 + 34) = {19.10965712891085, 1.138858785229311, 0};
Point(p15 + 35) = {19.19657140784341, 1.213090592156594, 0};
Point(p15 + 36) = {19.27080321477069, 1.300004871089153, 0};
Point(p15 + 37) = {19.33052471624491, 1.397461504027715, 0};
Point(p15 + 38) = {19.37426537069546, 1.503060785229311, 0};
Point(p15 + 39) = {19.40094813804286, 1.614202509926836, 0};
Spline(15) = {10, p15 + 1, p15 + 2, p15 + 3, p15 + 4, p15 + 5, p15 + 6, p15 + 7, p15 + 8, p15 + 9, p15 + 10, p15 + 11, p15 + 12, p15 + 13, p15 + 14, p15 + 15, p15 + 16, p15 + 17, p15 + 18, p15 + 19, p15 + 20, p15 + 21, p15 + 22, p15 + 23, p15 + 24, p15 + 25, p15 + 26, p15 + 27, p15 + 28, p15 + 29, p15 + 30, p15 + 31, p15 + 32, p15 + 33, p15 + 34, p15 + 35, p15 + 36, p15 + 37, p15 + 38, p15 + 39, 10};
p16 = newp;
Point(p16 + 1) = {8.832542063290354, -0.08090065249324199, 0.1};
Point(p16 + 2) = {8.800196931701779, 0.05382651667619667, 0.1};
Point(p16 + 3) = {8.747174049721322, 0.1818350774695252, 0.1};
Point(p16 + 4) = {8.674779016676197, 0.2999730342839556, 0.1};
Point(p16 + 5) = {8.584794438545316, 0.4053314385453164, 0.1};
Point(p16 + 6) = {8.479436034283957, 0.4953160166761965, 0.1};
Point(p16 + 7) = {8.361298077469526, 0.5677110497213207, 0.1};
Point(p16 + 8) = {8.233289516676196, 0.6207339317017783, 0.1};
Point(p16 + 9) = {8.098562347506759, 0.653079063290354, 0.1};
Point(p16 + 10) = {7.960434, 0.6639499999999999, 0.1};
Point(p16 + 11) = {7.822305652493242, 0.653079063290354, 0.1};
Point(p16 + 12) = {7.687578483323803, 0.6207339317017784, 0.1};
Point(p16 + 13) = {7.559569922530475, 0.5677110497213208, 0.1};
Point(p16 + 14) = {7.441431965716045, 0.4953160166761966, 0.1};
Point(p16 + 15) = {7.336073561454683, 0.4053314385453165, 0.1};
Point(p16 + 16) = {7.246088983323804, 0.2999730342839557, 0.1};
Point(p16 + 17) = {7.17369395027868, 0.1818350774695253, 0.1};
Point(p16 + 18) = {7.120671068298222, 0.05382651667619678, 0.1};
Point(p16 + 19) = {7.088325936709646, -0.08090065249324191, 0.1};
Point(p16 + 20) = {7.077455, -0.2190289999999999, 0.1};
Point(p16 + 21) = {7.088325936709646, -0.3571573475067579, 0.1};
Point(p16 + 22) = {7.120671068298222, -0.4918845166761969, 0.1};
Point(p16 + 23) = {7.173693950278679, -0.6198930774695248, 0.1};
Point(p16 + 24) = {7.246088983323803, -0.7380310342839556, 0.1};
Point(p16 + 25) = {7.336073561454683, -0.8433894385453164, 0.1};
Point(p16 + 26) = {7.441431965716045, -0.9333740166761966, 0.1};
Point(p16 + 27) = {7.559569922530475, -1.005769049721321, 0.1};
Point(p16 + 28) = {7.687578483323803, -1.058791931701778, 0.1};
Point(p16 + 29) = {7.822305652493242, -1.091137063290354, 0.1};
Point(p16 + 30) = {7.960434, -1.102008, 0.1};
Point(p16 + 31) = {8.098562347506759, -1.091137063290354, 0.1};
Point(p16 + 32) = {8.233289516676196, -1.058791931701778, 0.1};
Point(p16 + 33) = {8.361298077469526, -1.005769049721321, 0.1};
Point(p16 + 34) = {8.479436034283955, -0.9333740166761968, 0.1};
Point(p16 + 35) = {8.584794438545316, -0.8433894385453167, 0.1};
Point(p16 + 36) = {8.674779016676197, -0.7380310342839558, 0.1};
Point(p16 + 37) = {8.747174049721322, -0.6198930774695254, 0.1};
Point(p16 + 38) = {8.800196931701779, -0.4918845166761968, 0.1};
Point(p16 + 39) = {8.832542063290354, -0.3571573475067582, 0.1};
Spline(16) = {11, p16 + 1, p16 + 2, p16 + 3, p16 + 4, p16 + 5, p16 + 6, p16 + 7, p16 + 8, p16 + 9, p16 + 10, p16 + 11, p16 + 12, p16 + 13, p16 + 14, p16 + 15, p16 + 16, p16 + 17, p16 + 18, p16 + 19, p16 + 20, p16 + 21, p16 + 22, p16 + 23, p16 + 24, p16 + 25, p16 + 26, p16 + 27, p16 + 28, p16 + 29, p16 + 30, p16 + 31, p16 + 32, p16 + 33, p16 + 34, p16 + 35, p16 + 36, p16 + 37, p16 + 38, p16 + 39, 11};
Line(17) = {12, 11};
p18 = newp;
Point(p18 + 1) = {8.832542063290354, -0.08090065249324199, 0};
Point(p18 + 2) = {8.800196931701779, 0.05382651667619667, 0};
Point(p18 + 3) = {8.747174049721322, 0.1818350774695252, 0};
Point(p18 + 4) = {8.674779016676197, 0.2999730342839556, 0};
Point(p18 + 5) = {8.584794438545316, 0.4053314385453164, 0};
Point(p18 + 6) = {8.479436034283957, 0.4953160166761965, 0};
Point(p18 + 7) = {8.361298077469526, 0.5677110497213207, 0};
Point(p18 + 8) = {8.233289516676196, 0.6207339317017783, 0};
Point(p18 + 9) = {8.098562347506759, 0.653079063290354, 0};
Point(p18 + 10) = {7.960434, 0.6639499999999999, 0};
Point(p18 + 11) = {7.822305652493242, 0.653079063290354, 0};
Point(p18 + 12) = {7.687578483323803, 0.6207339317017784, 0};
Point(p18 + 13) = {7.559569922530475, 0.5677110497213208, 0};
Point(p18 + 14) = {7.441431965716045, 0.4953160166761966, 0};
Point(p18 + 15) = {7.336073561454683, 0.4053314385453165, 0};
Point(p18 + 16) = {7.246088983323804, 0.2999730342839557, 0};
Point(p18 + 17) = {7.17369395027868, 0.1818350774695253, 0};
Point(p18 + 18) = {7.120671068298222, 0.05382651667619678, 0};
Point(p18 + 19) = {7.088325936709646, -0.08090065249324191, 0};
Point(p18 + 20) = {7.077455, -0.2190289999999999, 0};
Point(p18 + 21) = {7.088325936709646, -0.3571573475067579, 0};
Point(p18 + 22) = {7.120671068298222, -0.4918845166761969, 0};
Point(p18 + 23) = {7.173693950278679, -0.6198930774695248, 0};
Point(p18 + 24) = {7.246088983323803, -0.7380310342839556, 0};
Point(p18 + 25) = {7.336073561454683, -0.8433894385453164, 0};
Point(p18 + 26) = {7.441431965716045, -0.9333740166761966, 0};
Point(p18 + 27) = {7.559569922530475, -1.005769049721321, 0};
Point(p18 + 28) = {7.687578483323803, -1.058791931701778, 0};
Point(p18 + 29) = {7.822305652493242, -1.091137063290354, 0};
Point(p18 + 30) = {7.960434, -1.102008, 0};
Point(p18 + 31) = {8.098562347506759, -1.091137063290354, 0};
Point(p18 + 32) = {8.233289516676196, -1.058791931701778, 0};
Point(p18 + 33) = {8.361298077469526, -1.005769049721321, 0};
Point(p18 + 34) = {8.479436034283955, -0.9333740166761968, 0};
Point(p18 + 35) = {8.584794438545316, -0.8433894385453167, 0};
Point(p18 + 36) = {8.674779016676197, -0.7380310342839558, 0};
Point(p18 + 37) = {8.747174049721322, -0.6198930774695254, 0};
Point(p18 + 38) = {8.800196931701779, -0.4918845166761968, 0};
Point(p18 + 39) = {8.832542063290354, -0.3571573475067582, 0};
Spline(18) = {12, p18 + 1, p18 + 2, p18 + 3, p18 + 4, p18 + 5, p18 + 6, p18 + 7, p18 + 8, p18 + 9, p18 + 10, p18 + 11, p18 + 12, p18 + 13, p18 + 14, p18 + 15, p18 + 16, p18 + 17, p18 + 18, p18 + 19, p18 + 20, p18 + 21, p18 + 22, p18 + 23, p18 + 24, p18 + 25, p18 + 26, p18 + 27, p18 + 28, p18 + 29, p18 + 30, p18 + 31, p18 + 32, p18 + 33, p18 + 34, p18 + 35, p18 + 36, p18 + 37, p18 + 38, p18 + 39, 12};
Line(19) = {14, 13};
Line(20) = {13, 15};
Line(21) = {16, 15};
Line(22) = {14, 16};
Line(23) = {14, 17};
Line(24) = {17, 18};
Line(25) = {13, 18};
Line(26) = {15, 19};
Line(27) = {18, 19};
Line(28) = {16, 20};
Line(29) = {20, 19};
Line(30) = {17, 20};
Curve Loop(7) = {-13, -14, 15, 14};
Surface(7) = {7};
Curve Loop(8) = {13};
Plane Surface(8) = {8};
Curve Loop(9) = {15};
Plane Surface(9) = {9};
Curve Loop(10) = {-16, -17, 18, 17};
Surface(10) = {10};
Curve Loop(11) = {16};
Plane Surface(11) = {11};
Curve Loop(12) = {18};
Plane Surface(12) = {12};
Curve Loop(13) = {-19, 22, 21, -20};
Plane Surface(13) = {13};
Curve Loop(14) = {-23, 19, 25, -24};
Plane Surface(14) = {14};
Curve Loop(15) = {-20, 25, 27, -26};
Plane Surface(15) = {15};
Curve Loop(16) = {-28, 21, 26, -29};
Plane Surface(16) = {16};
Curve Loop(17) = {-22, 23, 30, -28, -18, -15};
Plane Surface(17) = {17};
Curve Loop(18) = {-24, 30, 29, -27};
Plane Surface(18) = {18};
Surface Loop(1) = {13, 14, 15, 16, 17, 18, 10, 7, 11, 8};
Volume(1) = {1};
Surface Loop(2) = {7, 8, 9};
Volume(2) = {2};
Surface Loop(3) = {10, 11, 12};
Volume(3) = {3};
Physical Surface("WALLS") = {13, 18};
Physical Surface("LOAD") = {8, 11};
Physical Surface("BORDER") = {7, 9, 10, 12, 14, 15, 16, 17};
Physical Volume("SOLID") = {1, 2, 3};
