cl__1 = 0.068189;
cl__2 = 0.140684;
cl__3 = 0.697391;
cl__4 = 0.850438;
cl__5 = 1.917279;
cl__6 = 1.770968;
Point(9) = {8.28429, -0.8121830000000001, 0.1, cl__1};
Point(10) = {8.28429, -0.8121830000000001, 0, cl__1};
Point(11) = {26.170121, 1.202811, 0.1, cl__2};
Point(12) = {26.170121, 1.202811, 0, cl__2};
Point(13) = {0.26068, -4.061944, 1, cl__3};
Point(14) = {0.26068, -4.061944, 0, cl__3};
Point(15) = {0.26068, 5.436878, 1, cl__4};
Point(16) = {0.26068, 5.436878, 0, cl__4};
Point(17) = {38.267686, -4.061944, 0, cl__5};
Point(18) = {38.267686, -4.061944, 1, cl__5};
Point(19) = {38.267686, 5.436878, 1, cl__6};
Point(20) = {38.267686, 5.436878, 0, cl__6};
p13 = newp;
Point(p13 + 1) = {8.275894814880079, -0.705512059068182, 0.1};
Point(p13 + 2) = {8.250915976839986, -0.6014677107226615, 0.1};
Point(p13 + 3) = {8.209968547772283, -0.5026118721231002, 0.1};
Point(p13 + 4) = {8.154060789277338, -0.4113787020995378, 0.1};
Point(p13 + 5) = {8.084569335916514, -0.3300146640834863, 0.1};
Point(p13 + 6) = {8.003205297900463, -0.2605232107226616, 0.1};
Point(p13 + 7) = {7.911972127876901, -0.204615452227718, 0.1};
Point(p13 + 8) = {7.813116289277339, -0.1636680231600141, 0.1};
Point(p13 + 9) = {7.709071940931818, -0.1386891851199221, 0.1};
Point(p13 + 10) = {7.602401, -0.130294, 0.1};
Point(p13 + 11) = {7.495730059068182, -0.1386891851199222, 0.1};
Point(p13 + 12) = {7.391685710722662, -0.1636680231600139, 0.1};
Point(p13 + 13) = {7.2928298721231, -0.204615452227718, 0.1};
Point(p13 + 14) = {7.201596702099538, -0.2605232107226615, 0.1};
Point(p13 + 15) = {7.120232664083487, -0.3300146640834863, 0.1};
Point(p13 + 16) = {7.050741210722662, -0.4113787020995377, 0.1};
Point(p13 + 17) = {6.994833452227718, -0.5026118721231001, 0.1};
Point(p13 + 18) = {6.953886023160014, -0.6014677107226614, 0.1};
Point(p13 + 19) = {6.928907185119923, -0.7055120590681819, 0.1};
Point(p13 + 20) = {6.920512, -0.8121829999999999, 0.1};
Point(p13 + 21) = {6.928907185119923, -0.9188539409318179, 0.1};
Point(p13 + 22) = {6.953886023160015, -1.022898289277339, 0.1};
Point(p13 + 23) = {6.994833452227718, -1.121754127876899, 0.1};
Point(p13 + 24) = {7.050741210722662, -1.212987297900462, 0.1};
Point(p13 + 25) = {7.120232664083487, -1.294351335916514, 0.1};
Point(p13 + 26) = {7.201596702099538, -1.363842789277338, 0.1};
Point(p13 + 27) = {7.2928298721231, -1.419750547772282, 0.1};
Point(p13 + 28) = {7.391685710722662, -1.460697976839986, 0.1};
Point(p13 + 29) = {7.495730059068182, -1.485676814880078, 0.1};
Point(p13 + 30) = {7.602401, -1.494072, 0.1};
Point(p13 + 31) = {7.709071940931818, -1.485676814880078, 0.1};
Point(p13 + 32) = {7.813116289277339, -1.460697976839986, 0.1};
Point(p13 + 33) = {7.9119721278769, -1.419750547772282, 0.1};
Point(p13 + 34) = {8.003205297900463, -1.363842789277339, 0.1};
Point(p13 + 35) = {8.084569335916514, -1.294351335916514, 0.1};
Point(p13 + 36) = {8.154060789277338, -1.212987297900462, 0.1};
Point(p13 + 37) = {8.209968547772283, -1.1217541278769, 0.1};
Point(p13 + 38) = {8.250915976839986, -1.022898289277339, 0.1};
Point(p13 + 39) = {8.275894814880079, -0.9188539409318182, 0.1};
Spline(13) = {9, p13 + 1, p13 + 2, p13 + 3, p13 + 4, p13 + 5, p13 + 6, p13 + 7, p13 + 8, p13 + 9, p13 + 10, p13 + 11, p13 + 12, p13 + 13, p13 + 14, p13 + 15, p13 + 16, p13 + 17, p13 + 18, p13 + 19, p13 + 20, p13 + 21, p13 + 22, p13 + 23, p13 + 24, p13 + 25, p13 + 26, p13 + 27, p13 + 28, p13 + 29, p13 + 30, p13 + 31, p13 + 32, p13 + 33, p13 + 34, p13 + 35, p13 + 36, p13 + 37, p13 + 38, p13 + 39, 9};
Line(14) = {10, 9};
p15 = newp;
Point(p15 + 1) = {8.275894814880079, -0.705512059068182, 0};
Point(p15 + 2) = {8.250915976839986, -0.6014677107226615, 0};
Point(p15 + 3) = {8.209968547772283, -0.5026118721231002, 0};
Point(p15 + 4) = {8.154060789277338, -0.4113787020995378, 0};
Point(p15 + 5) = {8.084569335916514, -0.3300146640834863, 0};
Point(p15 + 6) = {8.003205297900463, -0.2605232107226616, 0};
Point(p15 + 7) = {7.911972127876901, -0.204615452227718, 0};
Point(p15 + 8) = {7.813116289277339, -0.1636680231600141, 0};
Point(p15 + 9) = {7.709071940931818, -0.1386891851199221, 0};
Point(p15 + 10) = {7.602401, -0.130294, 0};
Point(p15 + 11) = {7.495730059068182, -0.1386891851199222, 0};
Point(p15 + 12) = {7.391685710722662, -0.1636680231600139, 0};
Point(p15 + 13) = {7.2928298721231, -0.204615452227718, 0};
Point(p15 + 14) = {7.201596702099538, -0.2605232107226615, 0};
Point(p15 + 15) = {7.120232664083487, -0.3300146640834863, 0};
Point(p15 + 16) = {7.050741210722662, -0.4113787020995377, 0};
Point(p15 + 17) = {6.994833452227718, -0.5026118721231001, 0};
Point(p15 + 18) = {6.953886023160014, -0.6014677107226614, 0};
Point(p15 + 19) = {6.928907185119923, -0.7055120590681819, 0};
Point(p15 + 20) = {6.920512, -0.8121829999999999, 0};
Point(p15 + 21) = {6.928907185119923, -0.9188539409318179, 0};
Point(p15 + 22) = {6.953886023160015, -1.022898289277339, 0};
Point(p15 + 23) = {6.994833452227718, -1.121754127876899, 0};
Point(p15 + 24) = {7.050741210722662, -1.212987297900462, 0};
Point(p15 + 25) = {7.120232664083487, -1.294351335916514, 0};
Point(p15 + 26) = {7.201596702099538, -1.363842789277338, 0};
Point(p15 + 27) = {7.2928298721231, -1.419750547772282, 0};
Point(p15 + 28) = {7.391685710722662, -1.460697976839986, 0};
Point(p15 + 29) = {7.495730059068182, -1.485676814880078, 0};
Point(p15 + 30) = {7.602401, -1.494072, 0};
Point(p15 + 31) = {7.709071940931818, -1.485676814880078, 0};
Point(p15 + 32) = {7.813116289277339, -1.460697976839986, 0};
Point(p15 + 33) = {7.9119721278769, -1.419750547772282, 0};
Point(p15 + 34) = {8.003205297900463, -1.363842789277339, 0};
Point(p15 + 35) = {8.084569335916514, -1.294351335916514, 0};
Point(p15 + 36) = {8.154060789277338, -1.212987297900462, 0};
Point(p15 + 37) = {8.209968547772283, -1.1217541278769, 0};
Point(p15 + 38) = {8.250915976839986, -1.022898289277339, 0};
Point(p15 + 39) = {8.275894814880079, -0.9188539409318182, 0};
Spline(15) = {10, p15 + 1, p15 + 2, p15 + 3, p15 + 4, p15 + 5, p15 + 6, p15 + 7, p15 + 8, p15 + 9, p15 + 10, p15 + 11, p15 + 12, p15 + 13, p15 + 14, p15 + 15, p15 + 16, p15 + 17, p15 + 18, p15 + 19, p15 + 20, p15 + 21, p15 + 22, p15 + 23, p15 + 24, p15 + 25, p15 + 26, p15 + 27, p15 + 28, p15 + 29, p15 + 30, p15 + 31, p15 + 32, p15 + 33, p15 + 34, p15 + 35, p15 + 36, p15 + 37, p15 + 38, p15 + 39, 10};
p16 = newp;
Point(p16 + 1) = {26.15280040352457, 1.422890044969524, 0.1};
Point(p16 + 2) = {26.10126510466726, 1.637550013451423, 0.1};
Point(p16 + 3) = {26.01678407352178, 1.841505264606083, 0.1};
Point(p16 + 4) = {25.90143751345142, 2.029733743261405, 0.1};
Point(p16 + 5) = {25.75806563957839, 2.197600639578388, 0.1};
Point(p16 + 6) = {25.59019874326141, 2.340972513451423, 0.1};
Point(p16 + 7) = {25.40197026460608, 2.456319073521784, 0.1};
Point(p16 + 8) = {25.19801501345142, 2.540800104667255, 0.1};
Point(p16 + 9) = {24.98335504496952, 2.592335403524566, 0.1};
Point(p16 + 10) = {24.763276, 2.609656, 0.1};
Point(p16 + 11) = {24.54319695503048, 2.592335403524566, 0.1};
Point(p16 + 12) = {24.32853698654858, 2.540800104667255, 0.1};
Point(p16 + 13) = {24.12458173539392, 2.456319073521784, 0.1};
Point(p16 + 14) = {23.9363532567386, 2.340972513451423, 0.1};
Point(p16 + 15) = {23.76848636042161, 2.197600639578388, 0.1};
Point(p16 + 16) = {23.62511448654858, 2.029733743261405, 0.1};
Point(p16 + 17) = {23.50976792647822, 1.841505264606083, 0.1};
Point(p16 + 18) = {23.42528689533275, 1.637550013451423, 0.1};
Point(p16 + 19) = {23.37375159647544, 1.422890044969524, 0.1};
Point(p16 + 20) = {23.356431, 1.202811, 0.1};
Point(p16 + 21) = {23.37375159647544, 0.9827319550304766, 0.1};
Point(p16 + 22) = {23.42528689533275, 0.7680719865485768, 0.1};
Point(p16 + 23) = {23.50976792647822, 0.564116735393918, 0.1};
Point(p16 + 24) = {23.62511448654858, 0.3758882567385959, 0.1};
Point(p16 + 25) = {23.76848636042161, 0.2080213604216118, 0.1};
Point(p16 + 26) = {23.9363532567386, 0.06464948654857738, 0.1};
Point(p16 + 27) = {24.12458173539392, -0.05069707352178421, 0.1};
Point(p16 + 28) = {24.32853698654858, -0.1351781046672551, 0.1};
Point(p16 + 29) = {24.54319695503048, -0.1867134035245663, 0.1};
Point(p16 + 30) = {24.763276, -0.2040339999999998, 0.1};
Point(p16 + 31) = {24.98335504496952, -0.1867134035245663, 0.1};
Point(p16 + 32) = {25.19801501345142, -0.1351781046672553, 0.1};
Point(p16 + 33) = {25.40197026460608, -0.05069707352178443, 0.1};
Point(p16 + 34) = {25.5901987432614, 0.06464948654857716, 0.1};
Point(p16 + 35) = {25.75806563957839, 0.2080213604216115, 0.1};
Point(p16 + 36) = {25.90143751345142, 0.3758882567385956, 0.1};
Point(p16 + 37) = {26.01678407352178, 0.5641167353939172, 0.1};
Point(p16 + 38) = {26.10126510466726, 0.768071986548577, 0.1};
Point(p16 + 39) = {26.15280040352457, 0.9827319550304762, 0.1};
Spline(16) = {11, p16 + 1, p16 + 2, p16 + 3, p16 + 4, p16 + 5, p16 + 6, p16 + 7, p16 + 8, p16 + 9, p16 + 10, p16 + 11, p16 + 12, p16 + 13, p16 + 14, p16 + 15, p16 + 16, p16 + 17, p16 + 18, p16 + 19, p16 + 20, p16 + 21, p16 + 22, p16 + 23, p16 + 24, p16 + 25, p16 + 26, p16 + 27, p16 + 28, p16 + 29, p16 + 30, p16 + 31, p16 + 32, p16 + 33, p16 + 34, p16 + 35, p16 + 36, p16 + 37, p16 + 38, p16 + 39, 11};
Line(17) = {12, 11};
p18 = newp;
Point(p18 + 1) = {26.15280040352457, 1.422890044969524, 0};
Point(p18 + 2) = {26.10126510466726, 1.637550013451423, 0};
Point(p18 + 3) = {26.01678407352178, 1.841505264606083, 0};
Point(p18 + 4) = {25.90143751345142, 2.029733743261405, 0};
Point(p18 + 5) = {25.75806563957839, 2.197600639578388, 0};
Point(p18 + 6) = {25.59019874326141, 2.340972513451423, 0};
Point(p18 + 7) = {25.40197026460608, 2.456319073521784, 0};
Point(p18 + 8) = {25.19801501345142, 2.540800104667255, 0};
Point(p18 + 9) = {24.98335504496952, 2.592335403524566, 0};
Point(p18 + 10) = {24.763276, 2.609656, 0};
Point(p18 + 11) = {24.54319695503048, 2.592335403524566, 0};
Point(p18 + 12) = {24.32853698654858, 2.540800104667255, 0};
Point(p18 + 13) = {24.12458173539392, 2.456319073521784, 0};
Point(p18 + 14) = {23.9363532567386, 2.340972513451423, 0};
Point(p18 + 15) = {23.76848636042161, 2.197600639578388, 0};
Point(p18 + 16) = {23.62511448654858, 2.029733743261405, 0};
Point(p18 + 17) = {23.50976792647822, 1.841505264606083, 0};
Point(p18 + 18) = {23.42528689533275, 1.637550013451423, 0};
Point(p18 + 19) = {23.37375159647544, 1.422890044969524, 0};
Point(p18 + 20) = {23.356431, 1.202811, 0};
Point(p18 + 21) = {23.37375159647544, 0.9827319550304766, 0};
Point(p18 + 22) = {23.42528689533275, 0.7680719865485768, 0};
Point(p18 + 23) = {23.50976792647822, 0.564116735393918, 0};
Point(p18 + 24) = {23.62511448654858, 0.3758882567385959, 0};
Point(p18 + 25) = {23.76848636042161, 0.2080213604216118, 0};
Point(p18 + 26) = {23.9363532567386, 0.06464948654857738, 0};
Point(p18 + 27) = {24.12458173539392, -0.05069707352178421, 0};
Point(p18 + 28) = {24.32853698654858, -0.1351781046672551, 0};
Point(p18 + 29) = {24.54319695503048, -0.1867134035245663, 0};
Point(p18 + 30) = {24.763276, -0.2040339999999998, 0};
Point(p18 + 31) = {24.98335504496952, -0.1867134035245663, 0};
Point(p18 + 32) = {25.19801501345142, -0.1351781046672553, 0};
Point(p18 + 33) = {25.40197026460608, -0.05069707352178443, 0};
Point(p18 + 34) = {25.5901987432614, 0.06464948654857716, 0};
Point(p18 + 35) = {25.75806563957839, 0.2080213604216115, 0};
Point(p18 + 36) = {25.90143751345142, 0.3758882567385956, 0};
Point(p18 + 37) = {26.01678407352178, 0.5641167353939172, 0};
Point(p18 + 38) = {26.10126510466726, 0.768071986548577, 0};
Point(p18 + 39) = {26.15280040352457, 0.9827319550304762, 0};
Spline(18) = {12, p18 + 1, p18 + 2, p18 + 3, p18 + 4, p18 + 5, p18 + 6, p18 + 7, p18 + 8, p18 + 9, p18 + 10, p18 + 11, p18 + 12, p18 + 13, p18 + 14, p18 + 15, p18 + 16, p18 + 17, p18 + 18, p18 + 19, p18 + 20, p18 + 21, p18 + 22, p18 + 23, p18 + 24, p18 + 25, p18 + 26, p18 + 27, p18 + 28, p18 + 29, p18 + 30, p18 + 31, p18 + 32, p18 + 33, p18 + 34, p18 + 35, p18 + 36, p18 + 37, p18 + 38, p18 + 39, 12};
Line(19) = {14, 13};
Line(20) = {13, 15};
Line(21) = {16, 15};
Line(22) = {14, 16};
Line(23) = {14, 17};
Line(24) = {17, 18};
Line(25) = {13, 18};
Line(26) = {15, 19};
Line(27) = {18, 19};
Line(28) = {16, 20};
Line(29) = {20, 19};
Line(30) = {17, 20};
Curve Loop(7) = {-13, -14, 15, 14};
Surface(7) = {7};
Curve Loop(8) = {13};
Plane Surface(8) = {8};
Curve Loop(9) = {15};
Plane Surface(9) = {9};
Curve Loop(10) = {-16, -17, 18, 17};
Surface(10) = {10};
Curve Loop(11) = {16};
Plane Surface(11) = {11};
Curve Loop(12) = {18};
Plane Surface(12) = {12};
Curve Loop(13) = {-19, 22, 21, -20};
Plane Surface(13) = {13};
Curve Loop(14) = {-23, 19, 25, -24};
Plane Surface(14) = {14};
Curve Loop(15) = {-20, 25, 27, -26};
Plane Surface(15) = {15};
Curve Loop(16) = {-28, 21, 26, -29};
Plane Surface(16) = {16};
Curve Loop(17) = {-22, 23, 30, -28, -15, -18};
Plane Surface(17) = {17};
Curve Loop(18) = {-24, 30, 29, -27};
Plane Surface(18) = {18};
Surface Loop(1) = {13, 14, 15, 16, 17, 18, 7, 10, 8, 11};
Volume(1) = {1};
Surface Loop(2) = {7, 8, 9};
Volume(2) = {2};
Surface Loop(3) = {10, 11, 12};
Volume(3) = {3};
Physical Surface("WALLS") = {13, 18};
Physical Surface("LOAD") = {8, 11};
Physical Surface("BORDER") = {7, 9, 10, 12, 14, 15, 16, 17};
Physical Volume("SOLID") = {1, 2, 3};
