cl__1 = 0.135792;
cl__2 = 0.09053600000000001;
cl__3 = 1.299887;
cl__4 = 1.044296;
cl__5 = 1.250439;
cl__6 = 0.816743;
Point(9) = {10.907575, 1.675122, 0.1, cl__1};
Point(10) = {10.907575, 1.675122, 0, cl__1};
Point(11) = {25.084728, 3.083203999999999, 0.1, cl__2};
Point(12) = {25.084728, 3.083203999999999, 0, cl__2};
Point(13) = {0.731786, -3.169804, 1, cl__3};
Point(14) = {0.731786, -3.169804, 0, cl__3};
Point(15) = {0.731786, 5.069672, 1, cl__4};
Point(16) = {0.731786, 5.069672, 0, cl__4};
Point(17) = {31.32712, -3.169804, 0, cl__5};
Point(18) = {31.32712, -3.169804, 1, cl__5};
Point(19) = {31.32712, 5.069672, 1, cl__6};
Point(20) = {31.32712, 5.069672, 0, cl__6};
p13 = newp;
Point(p13 + 1) = {10.89085672683763, 1.88754780163636, 0.1};
Point(p13 + 2) = {10.84111356672055, 2.094742975035617, 0.1};
Point(p13 + 3) = {10.75957036133892, 2.291605687387325, 0.1};
Point(p13 + 4) = {10.64823497503562, 2.4732885253635, 0.1};
Point(p13 + 5) = {10.5098488545224, 2.635317854522399, 0.1};
Point(p13 + 6) = {10.3478195253635, 2.773703975035617, 0.1};
Point(p13 + 7) = {10.16613668738732, 2.885039361338917, 0.1};
Point(p13 + 8) = {9.969273975035616, 2.966582566720548, 0.1};
Point(p13 + 9) = {9.76207880163636, 3.016325726837631, 0.1};
Point(p13 + 10) = {9.549652999999999, 3.033044, 0.1};
Point(p13 + 11) = {9.337227198363639, 3.016325726837631, 0.1};
Point(p13 + 12) = {9.130032024964382, 2.966582566720548, 0.1};
Point(p13 + 13) = {8.933169312612675, 2.885039361338917, 0.1};
Point(p13 + 14) = {8.751486474636499, 2.773703975035617, 0.1};
Point(p13 + 15) = {8.589457145477601, 2.635317854522399, 0.1};
Point(p13 + 16) = {8.451071024964381, 2.4732885253635, 0.1};
Point(p13 + 17) = {8.339735638661082, 2.291605687387325, 0.1};
Point(p13 + 18) = {8.258192433279451, 2.094742975035618, 0.1};
Point(p13 + 19) = {8.208449273162369, 1.88754780163636, 0.1};
Point(p13 + 20) = {8.191730999999999, 1.675122, 0.1};
Point(p13 + 21) = {8.208449273162369, 1.46269619836364, 0.1};
Point(p13 + 22) = {8.258192433279453, 1.255501024964382, 0.1};
Point(p13 + 23) = {8.339735638661082, 1.058638312612676, 0.1};
Point(p13 + 24) = {8.451071024964381, 0.8769554746365004, 0.1};
Point(p13 + 25) = {8.589457145477599, 0.714926145477601, 0.1};
Point(p13 + 26) = {8.751486474636499, 0.5765400249643826, 0.1};
Point(p13 + 27) = {8.933169312612675, 0.4652046386610831, 0.1};
Point(p13 + 28) = {9.130032024964382, 0.3836614332794523, 0.1};
Point(p13 + 29) = {9.337227198363639, 0.3339182731623693, 0.1};
Point(p13 + 30) = {9.549652999999999, 0.3171999999999999, 0.1};
Point(p13 + 31) = {9.76207880163636, 0.3339182731623693, 0.1};
Point(p13 + 32) = {9.969273975035616, 0.3836614332794523, 0.1};
Point(p13 + 33) = {10.16613668738732, 0.4652046386610829, 0.1};
Point(p13 + 34) = {10.3478195253635, 0.5765400249643824, 0.1};
Point(p13 + 35) = {10.5098488545224, 0.7149261454776007, 0.1};
Point(p13 + 36) = {10.64823497503562, 0.8769554746365001, 0.1};
Point(p13 + 37) = {10.75957036133892, 1.058638312612675, 0.1};
Point(p13 + 38) = {10.84111356672055, 1.255501024964382, 0.1};
Point(p13 + 39) = {10.89085672683763, 1.462696198363639, 0.1};
Spline(13) = {9, p13 + 1, p13 + 2, p13 + 3, p13 + 4, p13 + 5, p13 + 6, p13 + 7, p13 + 8, p13 + 9, p13 + 10, p13 + 11, p13 + 12, p13 + 13, p13 + 14, p13 + 15, p13 + 16, p13 + 17, p13 + 18, p13 + 19, p13 + 20, p13 + 21, p13 + 22, p13 + 23, p13 + 24, p13 + 25, p13 + 26, p13 + 27, p13 + 28, p13 + 29, p13 + 30, p13 + 31, p13 + 32, p13 + 33, p13 + 34, p13 + 35, p13 + 36, p13 + 37, p13 + 38, p13 + 39, 9};
Line(14) = {10, 9};
p15 = newp;
Point(p15 + 1) = {10.89085672683763, 1.88754780163636, 0};
Point(p15 + 2) = {10.84111356672055, 2.094742975035617, 0};
Point(p15 + 3) = {10.75957036133892, 2.291605687387325, 0};
Point(p15 + 4) = {10.64823497503562, 2.4732885253635, 0};
Point(p15 + 5) = {10.5098488545224, 2.635317854522399, 0};
Point(p15 + 6) = {10.3478195253635, 2.773703975035617, 0};
Point(p15 + 7) = {10.16613668738732, 2.885039361338917, 0};
Point(p15 + 8) = {9.969273975035616, 2.966582566720548, 0};
Point(p15 + 9) = {9.76207880163636, 3.016325726837631, 0};
Point(p15 + 10) = {9.549652999999999, 3.033044, 0};
Point(p15 + 11) = {9.337227198363639, 3.016325726837631, 0};
Point(p15 + 12) = {9.130032024964382, 2.966582566720548, 0};
Point(p15 + 13) = {8.933169312612675, 2.885039361338917, 0};
Point(p15 + 14) = {8.751486474636499, 2.773703975035617, 0};
Point(p15 + 15) = {8.589457145477601, 2.635317854522399, 0};
Point(p15 + 16) = {8.451071024964381, 2.4732885253635, 0};
Point(p15 + 17) = {8.339735638661082, 2.291605687387325, 0};
Point(p15 + 18) = {8.258192433279451, 2.094742975035618, 0};
Point(p15 + 19) = {8.208449273162369, 1.88754780163636, 0};
Point(p15 + 20) = {8.191730999999999, 1.675122, 0};
Point(p15 + 21) = {8.208449273162369, 1.46269619836364, 0};
Point(p15 + 22) = {8.258192433279453, 1.255501024964382, 0};
Point(p15 + 23) = {8.339735638661082, 1.058638312612676, 0};
Point(p15 + 24) = {8.451071024964381, 0.8769554746365004, 0};
Point(p15 + 25) = {8.589457145477599, 0.714926145477601, 0};
Point(p15 + 26) = {8.751486474636499, 0.5765400249643826, 0};
Point(p15 + 27) = {8.933169312612675, 0.4652046386610831, 0};
Point(p15 + 28) = {9.130032024964382, 0.3836614332794523, 0};
Point(p15 + 29) = {9.337227198363639, 0.3339182731623693, 0};
Point(p15 + 30) = {9.549652999999999, 0.3171999999999999, 0};
Point(p15 + 31) = {9.76207880163636, 0.3339182731623693, 0};
Point(p15 + 32) = {9.969273975035616, 0.3836614332794523, 0};
Point(p15 + 33) = {10.16613668738732, 0.4652046386610829, 0};
Point(p15 + 34) = {10.3478195253635, 0.5765400249643824, 0};
Point(p15 + 35) = {10.5098488545224, 0.7149261454776007, 0};
Point(p15 + 36) = {10.64823497503562, 0.8769554746365001, 0};
Point(p15 + 37) = {10.75957036133892, 1.058638312612675, 0};
Point(p15 + 38) = {10.84111356672055, 1.255501024964382, 0};
Point(p15 + 39) = {10.89085672683763, 1.462696198363639, 0};
Spline(15) = {10, p15 + 1, p15 + 2, p15 + 3, p15 + 4, p15 + 5, p15 + 6, p15 + 7, p15 + 8, p15 + 9, p15 + 10, p15 + 11, p15 + 12, p15 + 13, p15 + 14, p15 + 15, p15 + 16, p15 + 17, p15 + 18, p15 + 19, p15 + 20, p15 + 21, p15 + 22, p15 + 23, p15 + 24, p15 + 25, p15 + 26, p15 + 27, p15 + 28, p15 + 29, p15 + 30, p15 + 31, p15 + 32, p15 + 33, p15 + 34, p15 + 35, p15 + 36, p15 + 37, p15 + 38, p15 + 39, 10};
p16 = newp;
Point(p16 + 1) = {25.07358151604122, 3.224833507268823, 0.1};
Point(p16 + 2) = {25.04041652759298, 3.362975626027302, 0.1};
Point(p16 + 3) = {24.98604966673918, 3.494228838844196, 0.1};
Point(p16 + 4) = {24.9118196260273, 3.615361256015513, 0.1};
Point(p16 + 5) = {24.81955419541505, 3.723390195415052, 0.1};
Point(p16 + 6) = {24.71152525601551, 3.815655626027302, 0.1};
Point(p16 + 7) = {24.5903928388442, 3.889885666739181, 0.1};
Point(p16 + 8) = {24.4591396260273, 3.94425252759298, 0.1};
Point(p16 + 9) = {24.32099750726882, 3.977417516041214, 0.1};
Point(p16 + 10) = {24.179368, 3.988564, 0.1};
Point(p16 + 11) = {24.03773849273118, 3.977417516041214, 0.1};
Point(p16 + 12) = {23.8995963739727, 3.94425252759298, 0.1};
Point(p16 + 13) = {23.7683431611558, 3.889885666739181, 0.1};
Point(p16 + 14) = {23.64721074398449, 3.815655626027302, 0.1};
Point(p16 + 15) = {23.53918180458495, 3.723390195415052, 0.1};
Point(p16 + 16) = {23.4469163739727, 3.615361256015513, 0.1};
Point(p16 + 17) = {23.37268633326082, 3.494228838844196, 0.1};
Point(p16 + 18) = {23.31831947240702, 3.362975626027302, 0.1};
Point(p16 + 19) = {23.28515448395878, 3.224833507268823, 0.1};
Point(p16 + 20) = {23.274008, 3.083204, 0.1};
Point(p16 + 21) = {23.28515448395878, 2.941574492731176, 0.1};
Point(p16 + 22) = {23.31831947240702, 2.803432373972697, 0.1};
Point(p16 + 23) = {23.37268633326082, 2.672179161155804, 0.1};
Point(p16 + 24) = {23.4469163739727, 2.551046743984486, 0.1};
Point(p16 + 25) = {23.53918180458495, 2.443017804584947, 0.1};
Point(p16 + 26) = {23.64721074398449, 2.350752373972697, 0.1};
Point(p16 + 27) = {23.7683431611558, 2.276522333260819, 0.1};
Point(p16 + 28) = {23.8995963739727, 2.22215547240702, 0.1};
Point(p16 + 29) = {24.03773849273118, 2.188990483958786, 0.1};
Point(p16 + 30) = {24.179368, 2.177844, 0.1};
Point(p16 + 31) = {24.32099750726882, 2.188990483958786, 0.1};
Point(p16 + 32) = {24.4591396260273, 2.22215547240702, 0.1};
Point(p16 + 33) = {24.5903928388442, 2.276522333260819, 0.1};
Point(p16 + 34) = {24.71152525601551, 2.350752373972697, 0.1};
Point(p16 + 35) = {24.81955419541505, 2.443017804584947, 0.1};
Point(p16 + 36) = {24.9118196260273, 2.551046743984486, 0.1};
Point(p16 + 37) = {24.98604966673918, 2.672179161155804, 0.1};
Point(p16 + 38) = {25.04041652759298, 2.803432373972697, 0.1};
Point(p16 + 39) = {25.07358151604122, 2.941574492731176, 0.1};
Spline(16) = {11, p16 + 1, p16 + 2, p16 + 3, p16 + 4, p16 + 5, p16 + 6, p16 + 7, p16 + 8, p16 + 9, p16 + 10, p16 + 11, p16 + 12, p16 + 13, p16 + 14, p16 + 15, p16 + 16, p16 + 17, p16 + 18, p16 + 19, p16 + 20, p16 + 21, p16 + 22, p16 + 23, p16 + 24, p16 + 25, p16 + 26, p16 + 27, p16 + 28, p16 + 29, p16 + 30, p16 + 31, p16 + 32, p16 + 33, p16 + 34, p16 + 35, p16 + 36, p16 + 37, p16 + 38, p16 + 39, 11};
Line(17) = {12, 11};
p18 = newp;
Point(p18 + 1) = {25.07358151604122, 3.224833507268823, 0};
Point(p18 + 2) = {25.04041652759298, 3.362975626027302, 0};
Point(p18 + 3) = {24.98604966673918, 3.494228838844196, 0};
Point(p18 + 4) = {24.9118196260273, 3.615361256015513, 0};
Point(p18 + 5) = {24.81955419541505, 3.723390195415052, 0};
Point(p18 + 6) = {24.71152525601551, 3.815655626027302, 0};
Point(p18 + 7) = {24.5903928388442, 3.889885666739181, 0};
Point(p18 + 8) = {24.4591396260273, 3.94425252759298, 0};
Point(p18 + 9) = {24.32099750726882, 3.977417516041214, 0};
Point(p18 + 10) = {24.179368, 3.988564, 0};
Point(p18 + 11) = {24.03773849273118, 3.977417516041214, 0};
Point(p18 + 12) = {23.8995963739727, 3.94425252759298, 0};
Point(p18 + 13) = {23.7683431611558, 3.889885666739181, 0};
Point(p18 + 14) = {23.64721074398449, 3.815655626027302, 0};
Point(p18 + 15) = {23.53918180458495, 3.723390195415052, 0};
Point(p18 + 16) = {23.4469163739727, 3.615361256015513, 0};
Point(p18 + 17) = {23.37268633326082, 3.494228838844196, 0};
Point(p18 + 18) = {23.31831947240702, 3.362975626027302, 0};
Point(p18 + 19) = {23.28515448395878, 3.224833507268823, 0};
Point(p18 + 20) = {23.274008, 3.083204, 0};
Point(p18 + 21) = {23.28515448395878, 2.941574492731176, 0};
Point(p18 + 22) = {23.31831947240702, 2.803432373972697, 0};
Point(p18 + 23) = {23.37268633326082, 2.672179161155804, 0};
Point(p18 + 24) = {23.4469163739727, 2.551046743984486, 0};
Point(p18 + 25) = {23.53918180458495, 2.443017804584947, 0};
Point(p18 + 26) = {23.64721074398449, 2.350752373972697, 0};
Point(p18 + 27) = {23.7683431611558, 2.276522333260819, 0};
Point(p18 + 28) = {23.8995963739727, 2.22215547240702, 0};
Point(p18 + 29) = {24.03773849273118, 2.188990483958786, 0};
Point(p18 + 30) = {24.179368, 2.177844, 0};
Point(p18 + 31) = {24.32099750726882, 2.188990483958786, 0};
Point(p18 + 32) = {24.4591396260273, 2.22215547240702, 0};
Point(p18 + 33) = {24.5903928388442, 2.276522333260819, 0};
Point(p18 + 34) = {24.71152525601551, 2.350752373972697, 0};
Point(p18 + 35) = {24.81955419541505, 2.443017804584947, 0};
Point(p18 + 36) = {24.9118196260273, 2.551046743984486, 0};
Point(p18 + 37) = {24.98604966673918, 2.672179161155804, 0};
Point(p18 + 38) = {25.04041652759298, 2.803432373972697, 0};
Point(p18 + 39) = {25.07358151604122, 2.941574492731176, 0};
Spline(18) = {12, p18 + 1, p18 + 2, p18 + 3, p18 + 4, p18 + 5, p18 + 6, p18 + 7, p18 + 8, p18 + 9, p18 + 10, p18 + 11, p18 + 12, p18 + 13, p18 + 14, p18 + 15, p18 + 16, p18 + 17, p18 + 18, p18 + 19, p18 + 20, p18 + 21, p18 + 22, p18 + 23, p18 + 24, p18 + 25, p18 + 26, p18 + 27, p18 + 28, p18 + 29, p18 + 30, p18 + 31, p18 + 32, p18 + 33, p18 + 34, p18 + 35, p18 + 36, p18 + 37, p18 + 38, p18 + 39, 12};
Line(19) = {14, 13};
Line(20) = {13, 15};
Line(21) = {16, 15};
Line(22) = {14, 16};
Line(23) = {14, 17};
Line(24) = {17, 18};
Line(25) = {13, 18};
Line(26) = {15, 19};
Line(27) = {18, 19};
Line(28) = {16, 20};
Line(29) = {20, 19};
Line(30) = {17, 20};
Curve Loop(7) = {-13, -14, 15, 14};
Surface(7) = {7};
Curve Loop(8) = {13};
Plane Surface(8) = {8};
Curve Loop(9) = {15};
Plane Surface(9) = {9};
Curve Loop(10) = {-16, -17, 18, 17};
Surface(10) = {10};
Curve Loop(11) = {16};
Plane Surface(11) = {11};
Curve Loop(12) = {18};
Plane Surface(12) = {12};
Curve Loop(13) = {-19, 22, 21, -20};
Plane Surface(13) = {13};
Curve Loop(14) = {-23, 19, 25, -24};
Plane Surface(14) = {14};
Curve Loop(15) = {-20, 25, 27, -26};
Plane Surface(15) = {15};
Curve Loop(16) = {-28, 21, 26, -29};
Plane Surface(16) = {16};
Curve Loop(17) = {-22, 23, 30, -28, -15, -18};
Plane Surface(17) = {17};
Curve Loop(18) = {-24, 30, 29, -27};
Plane Surface(18) = {18};
Surface Loop(1) = {13, 14, 15, 16, 17, 18, 7, 10, 8, 11};
Volume(1) = {1};
Surface Loop(2) = {7, 8, 9};
Volume(2) = {2};
Surface Loop(3) = {10, 11, 12};
Volume(3) = {3};
Physical Surface("WALLS") = {13, 18};
Physical Surface("LOAD") = {8, 11};
Physical Surface("BORDER") = {7, 9, 10, 12, 14, 15, 16, 17};
Physical Volume("SOLID") = {1, 2, 3};
