cl__1 = 0.06936100000000001;
cl__2 = 0.075629;
cl__3 = 0.574802;
cl__4 = 0.240535;
cl__5 = 4.119225;
cl__6 = 3.956641;
Point(9) = {3.026653, 2.408084999999999, 0.1, cl__1};
Point(10) = {3.026653, 2.408084999999999, 0, cl__1};
Point(11) = {20.555473, 1.142933, 0.1, cl__2};
Point(12) = {20.555473, 1.142933, 0, cl__2};
Point(13) = {0.937585, -3.377313, 1, cl__3};
Point(14) = {0.937585, -3.377313, 0, cl__3};
Point(15) = {0.937585, 4.943171, 1, cl__4};
Point(16) = {0.937585, 4.943171, 0, cl__4};
Point(17) = {34.540768, -3.377313, 0, cl__5};
Point(18) = {34.540768, -3.377313, 1, cl__5};
Point(19) = {34.540768, 4.943171, 1, cl__6};
Point(20) = {34.540768, 4.943171, 0, cl__6};
p13 = newp;
Point(p13 + 1) = {3.018113448361897, 2.51659029146888, 0.1};
Point(p13 + 2) = {2.992705065550063, 2.622423822553379, 0.1};
Point(p13 + 3) = {2.951053490274915, 2.722979620476845, 0.1};
Point(p13 + 4) = {2.894184322553379, 2.815781667768844, 0.1};
Point(p13 + 5) = {2.823497870032707, 2.898544870032707, 0.1};
Point(p13 + 6) = {2.740734667768844, 2.969231322553379, 0.1};
Point(p13 + 7) = {2.647932620476846, 3.026100490274914, 0.1};
Point(p13 + 8) = {2.547376822553379, 3.067752065550063, 0.1};
Point(p13 + 9) = {2.44154329146888, 3.093160448361896, 0.1};
Point(p13 + 10) = {2.333038, 3.1017, 0.1};
Point(p13 + 11) = {2.22453270853112, 3.093160448361896, 0.1};
Point(p13 + 12) = {2.118699177446621, 3.067752065550063, 0.1};
Point(p13 + 13) = {2.018143379523154, 3.026100490274914, 0.1};
Point(p13 + 14) = {1.925341332231157, 2.969231322553379, 0.1};
Point(p13 + 15) = {1.842578129967293, 2.898544870032707, 0.1};
Point(p13 + 16) = {1.771891677446621, 2.815781667768844, 0.1};
Point(p13 + 17) = {1.715022509725086, 2.722979620476845, 0.1};
Point(p13 + 18) = {1.673370934449937, 2.622423822553379, 0.1};
Point(p13 + 19) = {1.647962551638104, 2.51659029146888, 0.1};
Point(p13 + 20) = {1.639423, 2.408085, 0.1};
Point(p13 + 21) = {1.647962551638104, 2.29957970853112, 0.1};
Point(p13 + 22) = {1.673370934449937, 2.19374617744662, 0.1};
Point(p13 + 23) = {1.715022509725085, 2.093190379523155, 0.1};
Point(p13 + 24) = {1.771891677446621, 2.000388332231156, 0.1};
Point(p13 + 25) = {1.842578129967293, 1.917625129967293, 0.1};
Point(p13 + 26) = {1.925341332231156, 1.846938677446621, 0.1};
Point(p13 + 27) = {2.018143379523154, 1.790069509725085, 0.1};
Point(p13 + 28) = {2.118699177446621, 1.748417934449937, 0.1};
Point(p13 + 29) = {2.22453270853112, 1.723009551638103, 0.1};
Point(p13 + 30) = {2.333038, 1.71447, 0.1};
Point(p13 + 31) = {2.44154329146888, 1.723009551638103, 0.1};
Point(p13 + 32) = {2.547376822553379, 1.748417934449937, 0.1};
Point(p13 + 33) = {2.647932620476846, 1.790069509725085, 0.1};
Point(p13 + 34) = {2.740734667768844, 1.846938677446621, 0.1};
Point(p13 + 35) = {2.823497870032707, 1.917625129967293, 0.1};
Point(p13 + 36) = {2.894184322553379, 2.000388332231156, 0.1};
Point(p13 + 37) = {2.951053490274915, 2.093190379523154, 0.1};
Point(p13 + 38) = {2.992705065550063, 2.19374617744662, 0.1};
Point(p13 + 39) = {3.018113448361897, 2.29957970853112, 0.1};
Spline(13) = {9, p13 + 1, p13 + 2, p13 + 3, p13 + 4, p13 + 5, p13 + 6, p13 + 7, p13 + 8, p13 + 9, p13 + 10, p13 + 11, p13 + 12, p13 + 13, p13 + 14, p13 + 15, p13 + 16, p13 + 17, p13 + 18, p13 + 19, p13 + 20, p13 + 21, p13 + 22, p13 + 23, p13 + 24, p13 + 25, p13 + 26, p13 + 27, p13 + 28, p13 + 29, p13 + 30, p13 + 31, p13 + 32, p13 + 33, p13 + 34, p13 + 35, p13 + 36, p13 + 37, p13 + 38, p13 + 39, 9};
Line(14) = {10, 9};
p15 = newp;
Point(p15 + 1) = {3.018113448361897, 2.51659029146888, 0};
Point(p15 + 2) = {2.992705065550063, 2.622423822553379, 0};
Point(p15 + 3) = {2.951053490274915, 2.722979620476845, 0};
Point(p15 + 4) = {2.894184322553379, 2.815781667768844, 0};
Point(p15 + 5) = {2.823497870032707, 2.898544870032707, 0};
Point(p15 + 6) = {2.740734667768844, 2.969231322553379, 0};
Point(p15 + 7) = {2.647932620476846, 3.026100490274914, 0};
Point(p15 + 8) = {2.547376822553379, 3.067752065550063, 0};
Point(p15 + 9) = {2.44154329146888, 3.093160448361896, 0};
Point(p15 + 10) = {2.333038, 3.1017, 0};
Point(p15 + 11) = {2.22453270853112, 3.093160448361896, 0};
Point(p15 + 12) = {2.118699177446621, 3.067752065550063, 0};
Point(p15 + 13) = {2.018143379523154, 3.026100490274914, 0};
Point(p15 + 14) = {1.925341332231157, 2.969231322553379, 0};
Point(p15 + 15) = {1.842578129967293, 2.898544870032707, 0};
Point(p15 + 16) = {1.771891677446621, 2.815781667768844, 0};
Point(p15 + 17) = {1.715022509725086, 2.722979620476845, 0};
Point(p15 + 18) = {1.673370934449937, 2.622423822553379, 0};
Point(p15 + 19) = {1.647962551638104, 2.51659029146888, 0};
Point(p15 + 20) = {1.639423, 2.408085, 0};
Point(p15 + 21) = {1.647962551638104, 2.29957970853112, 0};
Point(p15 + 22) = {1.673370934449937, 2.19374617744662, 0};
Point(p15 + 23) = {1.715022509725085, 2.093190379523155, 0};
Point(p15 + 24) = {1.771891677446621, 2.000388332231156, 0};
Point(p15 + 25) = {1.842578129967293, 1.917625129967293, 0};
Point(p15 + 26) = {1.925341332231156, 1.846938677446621, 0};
Point(p15 + 27) = {2.018143379523154, 1.790069509725085, 0};
Point(p15 + 28) = {2.118699177446621, 1.748417934449937, 0};
Point(p15 + 29) = {2.22453270853112, 1.723009551638103, 0};
Point(p15 + 30) = {2.333038, 1.71447, 0};
Point(p15 + 31) = {2.44154329146888, 1.723009551638103, 0};
Point(p15 + 32) = {2.547376822553379, 1.748417934449937, 0};
Point(p15 + 33) = {2.647932620476846, 1.790069509725085, 0};
Point(p15 + 34) = {2.740734667768844, 1.846938677446621, 0};
Point(p15 + 35) = {2.823497870032707, 1.917625129967293, 0};
Point(p15 + 36) = {2.894184322553379, 2.000388332231156, 0};
Point(p15 + 37) = {2.951053490274915, 2.093190379523154, 0};
Point(p15 + 38) = {2.992705065550063, 2.19374617744662, 0};
Point(p15 + 39) = {3.018113448361897, 2.29957970853112, 0};
Spline(15) = {10, p15 + 1, p15 + 2, p15 + 3, p15 + 4, p15 + 5, p15 + 6, p15 + 7, p15 + 8, p15 + 9, p15 + 10, p15 + 11, p15 + 12, p15 + 13, p15 + 14, p15 + 15, p15 + 16, p15 + 17, p15 + 18, p15 + 19, p15 + 20, p15 + 21, p15 + 22, p15 + 23, p15 + 24, p15 + 25, p15 + 26, p15 + 27, p15 + 28, p15 + 29, p15 + 30, p15 + 31, p15 + 32, p15 + 33, p15 + 34, p15 + 35, p15 + 36, p15 + 37, p15 + 38, p15 + 39, 10};
p16 = newp;
Point(p16 + 1) = {20.54616186435533, 1.261242195827416, 0.1};
Point(p16 + 2) = {20.5184577284828, 1.376638226607851, 0.1};
Point(p16 + 3) = {20.47304276015232, 1.486279659086023, 0.1};
Point(p16 + 4) = {20.41103522660785, 1.587466757315265, 0.1};
Point(p16 + 5) = {20.33396195911645, 1.677707959116449, 0.1};
Point(p16 + 6) = {20.24372075731527, 1.754781226607852, 0.1};
Point(p16 + 7) = {20.14253365908602, 1.816788760152324, 0.1};
Point(p16 + 8) = {20.03289222660785, 1.862203728482796, 0.1};
Point(p16 + 9) = {19.91749619582741, 1.889907864355334, 0.1};
Point(p16 + 10) = {19.799187, 1.899219, 0.1};
Point(p16 + 11) = {19.68087780417259, 1.889907864355334, 0.1};
Point(p16 + 12) = {19.56548177339215, 1.862203728482797, 0.1};
Point(p16 + 13) = {19.45584034091398, 1.816788760152324, 0.1};
Point(p16 + 14) = {19.35465324268473, 1.754781226607852, 0.1};
Point(p16 + 15) = {19.26441204088355, 1.677707959116449, 0.1};
Point(p16 + 16) = {19.18733877339215, 1.587466757315265, 0.1};
Point(p16 + 17) = {19.12533123984768, 1.486279659086023, 0.1};
Point(p16 + 18) = {19.0799162715172, 1.376638226607852, 0.1};
Point(p16 + 19) = {19.05221213564467, 1.261242195827416, 0.1};
Point(p16 + 20) = {19.042901, 1.142933, 0.1};
Point(p16 + 21) = {19.05221213564467, 1.024623804172584, 0.1};
Point(p16 + 22) = {19.0799162715172, 0.9092277733921482, 0.1};
Point(p16 + 23) = {19.12533123984768, 0.7995863409139774, 0.1};
Point(p16 + 24) = {19.18733877339215, 0.6983992426847347, 0.1};
Point(p16 + 25) = {19.26441204088355, 0.6081580408835507, 0.1};
Point(p16 + 26) = {19.35465324268473, 0.5310847733921485, 0.1};
Point(p16 + 27) = {19.45584034091398, 0.469077239847676, 0.1};
Point(p16 + 28) = {19.56548177339215, 0.4236622715172035, 0.1};
Point(p16 + 29) = {19.68087780417259, 0.3959581356446656, 0.1};
Point(p16 + 30) = {19.799187, 0.386647, 0.1};
Point(p16 + 31) = {19.91749619582741, 0.3959581356446656, 0.1};
Point(p16 + 32) = {20.03289222660785, 0.4236622715172034, 0.1};
Point(p16 + 33) = {20.14253365908602, 0.4690772398476759, 0.1};
Point(p16 + 34) = {20.24372075731527, 0.5310847733921483, 0.1};
Point(p16 + 35) = {20.33396195911645, 0.6081580408835505, 0.1};
Point(p16 + 36) = {20.41103522660785, 0.6983992426847345, 0.1};
Point(p16 + 37) = {20.47304276015232, 0.799586340913977, 0.1};
Point(p16 + 38) = {20.5184577284828, 0.9092277733921483, 0.1};
Point(p16 + 39) = {20.54616186435533, 1.024623804172584, 0.1};
Spline(16) = {11, p16 + 1, p16 + 2, p16 + 3, p16 + 4, p16 + 5, p16 + 6, p16 + 7, p16 + 8, p16 + 9, p16 + 10, p16 + 11, p16 + 12, p16 + 13, p16 + 14, p16 + 15, p16 + 16, p16 + 17, p16 + 18, p16 + 19, p16 + 20, p16 + 21, p16 + 22, p16 + 23, p16 + 24, p16 + 25, p16 + 26, p16 + 27, p16 + 28, p16 + 29, p16 + 30, p16 + 31, p16 + 32, p16 + 33, p16 + 34, p16 + 35, p16 + 36, p16 + 37, p16 + 38, p16 + 39, 11};
Line(17) = {12, 11};
p18 = newp;
Point(p18 + 1) = {20.54616186435533, 1.261242195827416, 0};
Point(p18 + 2) = {20.5184577284828, 1.376638226607851, 0};
Point(p18 + 3) = {20.47304276015232, 1.486279659086023, 0};
Point(p18 + 4) = {20.41103522660785, 1.587466757315265, 0};
Point(p18 + 5) = {20.33396195911645, 1.677707959116449, 0};
Point(p18 + 6) = {20.24372075731527, 1.754781226607852, 0};
Point(p18 + 7) = {20.14253365908602, 1.816788760152324, 0};
Point(p18 + 8) = {20.03289222660785, 1.862203728482796, 0};
Point(p18 + 9) = {19.91749619582741, 1.889907864355334, 0};
Point(p18 + 10) = {19.799187, 1.899219, 0};
Point(p18 + 11) = {19.68087780417259, 1.889907864355334, 0};
Point(p18 + 12) = {19.56548177339215, 1.862203728482797, 0};
Point(p18 + 13) = {19.45584034091398, 1.816788760152324, 0};
Point(p18 + 14) = {19.35465324268473, 1.754781226607852, 0};
Point(p18 + 15) = {19.26441204088355, 1.677707959116449, 0};
Point(p18 + 16) = {19.18733877339215, 1.587466757315265, 0};
Point(p18 + 17) = {19.12533123984768, 1.486279659086023, 0};
Point(p18 + 18) = {19.0799162715172, 1.376638226607852, 0};
Point(p18 + 19) = {19.05221213564467, 1.261242195827416, 0};
Point(p18 + 20) = {19.042901, 1.142933, 0};
Point(p18 + 21) = {19.05221213564467, 1.024623804172584, 0};
Point(p18 + 22) = {19.0799162715172, 0.9092277733921482, 0};
Point(p18 + 23) = {19.12533123984768, 0.7995863409139774, 0};
Point(p18 + 24) = {19.18733877339215, 0.6983992426847347, 0};
Point(p18 + 25) = {19.26441204088355, 0.6081580408835507, 0};
Point(p18 + 26) = {19.35465324268473, 0.5310847733921485, 0};
Point(p18 + 27) = {19.45584034091398, 0.469077239847676, 0};
Point(p18 + 28) = {19.56548177339215, 0.4236622715172035, 0};
Point(p18 + 29) = {19.68087780417259, 0.3959581356446656, 0};
Point(p18 + 30) = {19.799187, 0.386647, 0};
Point(p18 + 31) = {19.91749619582741, 0.3959581356446656, 0};
Point(p18 + 32) = {20.03289222660785, 0.4236622715172034, 0};
Point(p18 + 33) = {20.14253365908602, 0.4690772398476759, 0};
Point(p18 + 34) = {20.24372075731527, 0.5310847733921483, 0};
Point(p18 + 35) = {20.33396195911645, 0.6081580408835505, 0};
Point(p18 + 36) = {20.41103522660785, 0.6983992426847345, 0};
Point(p18 + 37) = {20.47304276015232, 0.799586340913977, 0};
Point(p18 + 38) = {20.5184577284828, 0.9092277733921483, 0};
Point(p18 + 39) = {20.54616186435533, 1.024623804172584, 0};
Spline(18) = {12, p18 + 1, p18 + 2, p18 + 3, p18 + 4, p18 + 5, p18 + 6, p18 + 7, p18 + 8, p18 + 9, p18 + 10, p18 + 11, p18 + 12, p18 + 13, p18 + 14, p18 + 15, p18 + 16, p18 + 17, p18 + 18, p18 + 19, p18 + 20, p18 + 21, p18 + 22, p18 + 23, p18 + 24, p18 + 25, p18 + 26, p18 + 27, p18 + 28, p18 + 29, p18 + 30, p18 + 31, p18 + 32, p18 + 33, p18 + 34, p18 + 35, p18 + 36, p18 + 37, p18 + 38, p18 + 39, 12};
Line(19) = {14, 13};
Line(20) = {13, 15};
Line(21) = {16, 15};
Line(22) = {14, 16};
Line(23) = {14, 17};
Line(24) = {17, 18};
Line(25) = {13, 18};
Line(26) = {15, 19};
Line(27) = {18, 19};
Line(28) = {16, 20};
Line(29) = {20, 19};
Line(30) = {17, 20};
Curve Loop(7) = {-13, -14, 15, 14};
Surface(7) = {7};
Curve Loop(8) = {13};
Plane Surface(8) = {8};
Curve Loop(9) = {15};
Plane Surface(9) = {9};
Curve Loop(10) = {-16, -17, 18, 17};
Surface(10) = {10};
Curve Loop(11) = {16};
Plane Surface(11) = {11};
Curve Loop(12) = {18};
Plane Surface(12) = {12};
Curve Loop(13) = {-19, 22, 21, -20};
Plane Surface(13) = {13};
Curve Loop(14) = {-23, 19, 25, -24};
Plane Surface(14) = {14};
Curve Loop(15) = {-20, 25, 27, -26};
Plane Surface(15) = {15};
Curve Loop(16) = {-28, 21, 26, -29};
Plane Surface(16) = {16};
Curve Loop(17) = {-22, 23, 30, -28, -18, -15};
Plane Surface(17) = {17};
Curve Loop(18) = {-24, 30, 29, -27};
Plane Surface(18) = {18};
Surface Loop(1) = {13, 14, 15, 16, 17, 18, 10, 7, 11, 8};
Volume(1) = {1};
Surface Loop(2) = {7, 8, 9};
Volume(2) = {2};
Surface Loop(3) = {10, 11, 12};
Volume(3) = {3};
Physical Surface("WALLS") = {13, 18};
Physical Surface("LOAD") = {8, 11};
Physical Surface("BORDER") = {7, 9, 10, 12, 14, 15, 16, 17};
Physical Volume("SOLID") = {1, 2, 3};
