cl__1 = 0.122003;
cl__2 = 0.100476;
cl__3 = 3.211627;
cl__4 = 2.826849;
cl__5 = 0.525436;
cl__6 = 0.585219;
Point(9) = {29.081107, -0.2415490000000003, 0.1, cl__1};
Point(10) = {29.081107, -0.2415490000000003, 0, cl__1};
Point(11) = {22.602943, 2.554213, 0.1, cl__2};
Point(12) = {22.602943, 2.554213, 0, cl__2};
Point(13) = {0.417575, -4.3023, 1, cl__3};
Point(14) = {0.417575, -4.3023, 0, cl__3};
Point(15) = {0.417575, 5.448418000000001, 1, cl__4};
Point(16) = {0.417575, 5.448418000000001, 0, cl__4};
Point(17) = {35.65764, -4.3023, 0, cl__5};
Point(18) = {35.65764, -4.3023, 1, cl__5};
Point(19) = {35.65764, 5.448418000000001, 1, cl__6};
Point(20) = {35.65764, 5.448418000000001, 0, cl__6};
p13 = newp;
Point(p13 + 1) = {29.0660863692413, -0.05069379031357205, 0.1};
Point(p13 + 2) = {29.02139433474512, 0.1354619306982501, 0.1};
Point(p13 + 3) = {28.94813136272511, 0.3123343913687384, 0.1};
Point(p13 + 4) = {28.84810143069825, 0.4755684047101428, 0.1};
Point(p13 + 5) = {28.72376760757136, 0.621144607571367, 0.1};
Point(p13 + 6) = {28.57819140471014, 0.74547843069825, 0.1};
Point(p13 + 7) = {28.41495739136874, 0.8455083627251068, 0.1};
Point(p13 + 8) = {28.23808493069825, 0.918771334745125, 0.1};
Point(p13 + 9) = {28.05192920968643, 0.9634633692413077, 0.1};
Point(p13 + 10) = {27.861074, 0.9784839999999999, 0.1};
Point(p13 + 11) = {27.67021879031357, 0.9634633692413075, 0.1};
Point(p13 + 12) = {27.48406306930175, 0.9187713347451252, 0.1};
Point(p13 + 13) = {27.30719060863126, 0.845508362725107, 0.1};
Point(p13 + 14) = {27.14395659528986, 0.7454784306982501, 0.1};
Point(p13 + 15) = {26.99838039242863, 0.6211446075713671, 0.1};
Point(p13 + 16) = {26.87404656930175, 0.4755684047101429, 0.1};
Point(p13 + 17) = {26.77401663727489, 0.3123343913687385, 0.1};
Point(p13 + 18) = {26.70075366525487, 0.1354619306982503, 0.1};
Point(p13 + 19) = {26.65606163075869, -0.05069379031357191, 0.1};
Point(p13 + 20) = {26.641041, -0.2415489999999999, 0.1};
Point(p13 + 21) = {26.65606163075869, -0.4324042096864278, 0.1};
Point(p13 + 22) = {26.70075366525487, -0.6185599306982505, 0.1};
Point(p13 + 23) = {26.77401663727489, -0.7954323913687379, 0.1};
Point(p13 + 24) = {26.87404656930175, -0.9586664047101427, 0.1};
Point(p13 + 25) = {26.99838039242863, -1.104242607571367, 0.1};
Point(p13 + 26) = {27.14395659528985, -1.22857643069825, 0.1};
Point(p13 + 27) = {27.30719060863126, -1.328606362725107, 0.1};
Point(p13 + 28) = {27.48406306930175, -1.401869334745125, 0.1};
Point(p13 + 29) = {27.67021879031357, -1.446561369241308, 0.1};
Point(p13 + 30) = {27.861074, -1.461582, 0.1};
Point(p13 + 31) = {28.05192920968643, -1.446561369241308, 0.1};
Point(p13 + 32) = {28.23808493069825, -1.401869334745125, 0.1};
Point(p13 + 33) = {28.41495739136874, -1.328606362725107, 0.1};
Point(p13 + 34) = {28.57819140471014, -1.22857643069825, 0.1};
Point(p13 + 35) = {28.72376760757136, -1.104242607571367, 0.1};
Point(p13 + 36) = {28.84810143069825, -0.958666404710143, 0.1};
Point(p13 + 37) = {28.94813136272511, -0.7954323913687387, 0.1};
Point(p13 + 38) = {29.02139433474512, -0.6185599306982504, 0.1};
Point(p13 + 39) = {29.0660863692413, -0.4324042096864283, 0.1};
Spline(13) = {9, p13 + 1, p13 + 2, p13 + 3, p13 + 4, p13 + 5, p13 + 6, p13 + 7, p13 + 8, p13 + 9, p13 + 10, p13 + 11, p13 + 12, p13 + 13, p13 + 14, p13 + 15, p13 + 16, p13 + 17, p13 + 18, p13 + 19, p13 + 20, p13 + 21, p13 + 22, p13 + 23, p13 + 24, p13 + 25, p13 + 26, p13 + 27, p13 + 28, p13 + 29, p13 + 30, p13 + 31, p13 + 32, p13 + 33, p13 + 34, p13 + 35, p13 + 36, p13 + 37, p13 + 38, p13 + 39, 9};
Line(14) = {10, 9};
p15 = newp;
Point(p15 + 1) = {29.0660863692413, -0.05069379031357205, 0};
Point(p15 + 2) = {29.02139433474512, 0.1354619306982501, 0};
Point(p15 + 3) = {28.94813136272511, 0.3123343913687384, 0};
Point(p15 + 4) = {28.84810143069825, 0.4755684047101428, 0};
Point(p15 + 5) = {28.72376760757136, 0.621144607571367, 0};
Point(p15 + 6) = {28.57819140471014, 0.74547843069825, 0};
Point(p15 + 7) = {28.41495739136874, 0.8455083627251068, 0};
Point(p15 + 8) = {28.23808493069825, 0.918771334745125, 0};
Point(p15 + 9) = {28.05192920968643, 0.9634633692413077, 0};
Point(p15 + 10) = {27.861074, 0.9784839999999999, 0};
Point(p15 + 11) = {27.67021879031357, 0.9634633692413075, 0};
Point(p15 + 12) = {27.48406306930175, 0.9187713347451252, 0};
Point(p15 + 13) = {27.30719060863126, 0.845508362725107, 0};
Point(p15 + 14) = {27.14395659528986, 0.7454784306982501, 0};
Point(p15 + 15) = {26.99838039242863, 0.6211446075713671, 0};
Point(p15 + 16) = {26.87404656930175, 0.4755684047101429, 0};
Point(p15 + 17) = {26.77401663727489, 0.3123343913687385, 0};
Point(p15 + 18) = {26.70075366525487, 0.1354619306982503, 0};
Point(p15 + 19) = {26.65606163075869, -0.05069379031357191, 0};
Point(p15 + 20) = {26.641041, -0.2415489999999999, 0};
Point(p15 + 21) = {26.65606163075869, -0.4324042096864278, 0};
Point(p15 + 22) = {26.70075366525487, -0.6185599306982505, 0};
Point(p15 + 23) = {26.77401663727489, -0.7954323913687379, 0};
Point(p15 + 24) = {26.87404656930175, -0.9586664047101427, 0};
Point(p15 + 25) = {26.99838039242863, -1.104242607571367, 0};
Point(p15 + 26) = {27.14395659528985, -1.22857643069825, 0};
Point(p15 + 27) = {27.30719060863126, -1.328606362725107, 0};
Point(p15 + 28) = {27.48406306930175, -1.401869334745125, 0};
Point(p15 + 29) = {27.67021879031357, -1.446561369241308, 0};
Point(p15 + 30) = {27.861074, -1.461582, 0};
Point(p15 + 31) = {28.05192920968643, -1.446561369241308, 0};
Point(p15 + 32) = {28.23808493069825, -1.401869334745125, 0};
Point(p15 + 33) = {28.41495739136874, -1.328606362725107, 0};
Point(p15 + 34) = {28.57819140471014, -1.22857643069825, 0};
Point(p15 + 35) = {28.72376760757136, -1.104242607571367, 0};
Point(p15 + 36) = {28.84810143069825, -0.958666404710143, 0};
Point(p15 + 37) = {28.94813136272511, -0.7954323913687387, 0};
Point(p15 + 38) = {29.02139433474512, -0.6185599306982504, 0};
Point(p15 + 39) = {29.0660863692413, -0.4324042096864283, 0};
Spline(15) = {10, p15 + 1, p15 + 2, p15 + 3, p15 + 4, p15 + 5, p15 + 6, p15 + 7, p15 + 8, p15 + 9, p15 + 10, p15 + 11, p15 + 12, p15 + 13, p15 + 14, p15 + 15, p15 + 16, p15 + 17, p15 + 18, p15 + 19, p15 + 20, p15 + 21, p15 + 22, p15 + 23, p15 + 24, p15 + 25, p15 + 26, p15 + 27, p15 + 28, p15 + 29, p15 + 30, p15 + 31, p15 + 32, p15 + 33, p15 + 34, p15 + 35, p15 + 36, p15 + 37, p15 + 38, p15 + 39, 10};
p16 = newp;
Point(p16 + 1) = {22.59057268784973, 2.711392718831682, 0.1};
Point(p16 + 2) = {22.55376634953878, 2.864702151336149, 0.1};
Point(p16 + 3) = {22.4934302792696, 3.010366310480306, 0.1};
Point(p16 + 4) = {22.41105015133615, 3.144798461234394, 0.1};
Point(p16 + 5) = {22.30865443789212, 3.26468843789212, 0.1};
Point(p16 + 6) = {22.18876446123439, 3.36708415133615, 0.1};
Point(p16 + 7) = {22.05433231048031, 3.449464279269601, 0.1};
Point(p16 + 8) = {21.90866815133615, 3.509800349538784, 0.1};
Point(p16 + 9) = {21.75535871883168, 3.546606687849733, 0.1};
Point(p16 + 10) = {21.598179, 3.558977, 0.1};
Point(p16 + 11) = {21.44099928116832, 3.546606687849733, 0.1};
Point(p16 + 12) = {21.28768984866385, 3.509800349538784, 0.1};
Point(p16 + 13) = {21.14202568951969, 3.449464279269601, 0.1};
Point(p16 + 14) = {21.0075935387656, 3.36708415133615, 0.1};
Point(p16 + 15) = {20.88770356210788, 3.26468843789212, 0.1};
Point(p16 + 16) = {20.78530784866385, 3.144798461234394, 0.1};
Point(p16 + 17) = {20.7029277207304, 3.010366310480306, 0.1};
Point(p16 + 18) = {20.64259165046121, 2.86470215133615, 0.1};
Point(p16 + 19) = {20.60578531215026, 2.711392718831683, 0.1};
Point(p16 + 20) = {20.593415, 2.554213, 0.1};
Point(p16 + 21) = {20.60578531215026, 2.397033281168317, 0.1};
Point(p16 + 22) = {20.64259165046121, 2.24372384866385, 0.1};
Point(p16 + 23) = {20.7029277207304, 2.098059689519694, 0.1};
Point(p16 + 24) = {20.78530784866385, 1.963627538765605, 0.1};
Point(p16 + 25) = {20.88770356210788, 1.84373756210788, 0.1};
Point(p16 + 26) = {21.0075935387656, 1.74134184866385, 0.1};
Point(p16 + 27) = {21.14202568951969, 1.658961720730399, 0.1};
Point(p16 + 28) = {21.28768984866385, 1.598625650461216, 0.1};
Point(p16 + 29) = {21.44099928116832, 1.561819312150267, 0.1};
Point(p16 + 30) = {21.598179, 1.549449, 0.1};
Point(p16 + 31) = {21.75535871883168, 1.561819312150267, 0.1};
Point(p16 + 32) = {21.90866815133615, 1.598625650461216, 0.1};
Point(p16 + 33) = {22.05433231048031, 1.658961720730399, 0.1};
Point(p16 + 34) = {22.18876446123439, 1.74134184866385, 0.1};
Point(p16 + 35) = {22.30865443789212, 1.843737562107879, 0.1};
Point(p16 + 36) = {22.41105015133615, 1.963627538765605, 0.1};
Point(p16 + 37) = {22.4934302792696, 2.098059689519694, 0.1};
Point(p16 + 38) = {22.55376634953878, 2.24372384866385, 0.1};
Point(p16 + 39) = {22.59057268784973, 2.397033281168317, 0.1};
Spline(16) = {11, p16 + 1, p16 + 2, p16 + 3, p16 + 4, p16 + 5, p16 + 6, p16 + 7, p16 + 8, p16 + 9, p16 + 10, p16 + 11, p16 + 12, p16 + 13, p16 + 14, p16 + 15, p16 + 16, p16 + 17, p16 + 18, p16 + 19, p16 + 20, p16 + 21, p16 + 22, p16 + 23, p16 + 24, p16 + 25, p16 + 26, p16 + 27, p16 + 28, p16 + 29, p16 + 30, p16 + 31, p16 + 32, p16 + 33, p16 + 34, p16 + 35, p16 + 36, p16 + 37, p16 + 38, p16 + 39, 11};
Line(17) = {12, 11};
p18 = newp;
Point(p18 + 1) = {22.59057268784973, 2.711392718831682, 0};
Point(p18 + 2) = {22.55376634953878, 2.864702151336149, 0};
Point(p18 + 3) = {22.4934302792696, 3.010366310480306, 0};
Point(p18 + 4) = {22.41105015133615, 3.144798461234394, 0};
Point(p18 + 5) = {22.30865443789212, 3.26468843789212, 0};
Point(p18 + 6) = {22.18876446123439, 3.36708415133615, 0};
Point(p18 + 7) = {22.05433231048031, 3.449464279269601, 0};
Point(p18 + 8) = {21.90866815133615, 3.509800349538784, 0};
Point(p18 + 9) = {21.75535871883168, 3.546606687849733, 0};
Point(p18 + 10) = {21.598179, 3.558977, 0};
Point(p18 + 11) = {21.44099928116832, 3.546606687849733, 0};
Point(p18 + 12) = {21.28768984866385, 3.509800349538784, 0};
Point(p18 + 13) = {21.14202568951969, 3.449464279269601, 0};
Point(p18 + 14) = {21.0075935387656, 3.36708415133615, 0};
Point(p18 + 15) = {20.88770356210788, 3.26468843789212, 0};
Point(p18 + 16) = {20.78530784866385, 3.144798461234394, 0};
Point(p18 + 17) = {20.7029277207304, 3.010366310480306, 0};
Point(p18 + 18) = {20.64259165046121, 2.86470215133615, 0};
Point(p18 + 19) = {20.60578531215026, 2.711392718831683, 0};
Point(p18 + 20) = {20.593415, 2.554213, 0};
Point(p18 + 21) = {20.60578531215026, 2.397033281168317, 0};
Point(p18 + 22) = {20.64259165046121, 2.24372384866385, 0};
Point(p18 + 23) = {20.7029277207304, 2.098059689519694, 0};
Point(p18 + 24) = {20.78530784866385, 1.963627538765605, 0};
Point(p18 + 25) = {20.88770356210788, 1.84373756210788, 0};
Point(p18 + 26) = {21.0075935387656, 1.74134184866385, 0};
Point(p18 + 27) = {21.14202568951969, 1.658961720730399, 0};
Point(p18 + 28) = {21.28768984866385, 1.598625650461216, 0};
Point(p18 + 29) = {21.44099928116832, 1.561819312150267, 0};
Point(p18 + 30) = {21.598179, 1.549449, 0};
Point(p18 + 31) = {21.75535871883168, 1.561819312150267, 0};
Point(p18 + 32) = {21.90866815133615, 1.598625650461216, 0};
Point(p18 + 33) = {22.05433231048031, 1.658961720730399, 0};
Point(p18 + 34) = {22.18876446123439, 1.74134184866385, 0};
Point(p18 + 35) = {22.30865443789212, 1.843737562107879, 0};
Point(p18 + 36) = {22.41105015133615, 1.963627538765605, 0};
Point(p18 + 37) = {22.4934302792696, 2.098059689519694, 0};
Point(p18 + 38) = {22.55376634953878, 2.24372384866385, 0};
Point(p18 + 39) = {22.59057268784973, 2.397033281168317, 0};
Spline(18) = {12, p18 + 1, p18 + 2, p18 + 3, p18 + 4, p18 + 5, p18 + 6, p18 + 7, p18 + 8, p18 + 9, p18 + 10, p18 + 11, p18 + 12, p18 + 13, p18 + 14, p18 + 15, p18 + 16, p18 + 17, p18 + 18, p18 + 19, p18 + 20, p18 + 21, p18 + 22, p18 + 23, p18 + 24, p18 + 25, p18 + 26, p18 + 27, p18 + 28, p18 + 29, p18 + 30, p18 + 31, p18 + 32, p18 + 33, p18 + 34, p18 + 35, p18 + 36, p18 + 37, p18 + 38, p18 + 39, 12};
Line(19) = {14, 13};
Line(20) = {13, 15};
Line(21) = {16, 15};
Line(22) = {14, 16};
Line(23) = {14, 17};
Line(24) = {17, 18};
Line(25) = {13, 18};
Line(26) = {15, 19};
Line(27) = {18, 19};
Line(28) = {16, 20};
Line(29) = {20, 19};
Line(30) = {17, 20};
Curve Loop(7) = {-13, -14, 15, 14};
Surface(7) = {7};
Curve Loop(8) = {13};
Plane Surface(8) = {8};
Curve Loop(9) = {15};
Plane Surface(9) = {9};
Curve Loop(10) = {-16, -17, 18, 17};
Surface(10) = {10};
Curve Loop(11) = {16};
Plane Surface(11) = {11};
Curve Loop(12) = {18};
Plane Surface(12) = {12};
Curve Loop(13) = {-19, 22, 21, -20};
Plane Surface(13) = {13};
Curve Loop(14) = {-23, 19, 25, -24};
Plane Surface(14) = {14};
Curve Loop(15) = {-20, 25, 27, -26};
Plane Surface(15) = {15};
Curve Loop(16) = {-28, 21, 26, -29};
Plane Surface(16) = {16};
Curve Loop(17) = {-22, 23, 30, -28, -15, -18};
Plane Surface(17) = {17};
Curve Loop(18) = {-24, 30, 29, -27};
Plane Surface(18) = {18};
Surface Loop(1) = {13, 14, 15, 16, 17, 18, 7, 10, 8, 11};
Volume(1) = {1};
Surface Loop(2) = {7, 8, 9};
Volume(2) = {2};
Surface Loop(3) = {10, 11, 12};
Volume(3) = {3};
Physical Surface("WALLS") = {13, 18};
Physical Surface("LOAD") = {8, 11};
Physical Surface("BORDER") = {7, 9, 10, 12, 14, 15, 16, 17};
Physical Volume("SOLID") = {1, 2, 3};
