cl__1 = 0.054859;
cl__2 = 0.09744;
cl__3 = 0.551531;
cl__4 = 0.5924430000000001;
cl__5 = 2.869303;
cl__6 = 2.95519;
Point(9) = {9.254094, 0.2803349999999998, 0.1, cl__1};
Point(10) = {9.254094, 0.2803349999999998, 0, cl__1};
Point(11) = {13.915921, 0.3816179999999998, 0.1, cl__2};
Point(12) = {13.915921, 0.3816179999999998, 0, cl__2};
Point(13) = {0.948084, -3.117317, 1, cl__3};
Point(14) = {0.948084, -3.117317, 0, cl__3};
Point(15) = {0.948084, 4.953729000000001, 1, cl__4};
Point(16) = {0.948084, 4.953729000000001, 0, cl__4};
Point(17) = {34.033916, -3.117317, 0, cl__5};
Point(18) = {34.033916, -3.117317, 1, cl__5};
Point(19) = {34.033916, 4.953729000000001, 1, cl__6};
Point(20) = {34.033916, 4.953729000000001, 0, cl__6};
p13 = newp;
Point(p13 + 1) = {9.247339983702066, 0.3661529138730251, 0.1};
Point(p13 + 2) = {9.22724424110481, 0.4498577058931693, 0.1};
Point(p13 + 3) = {9.194301596084925, 0.5293882862806187, 0.1};
Point(p13 + 4) = {9.14932320589317, 0.6027863481993709, 0.1};
Point(p13 + 5) = {9.093416587770786, 0.6682445877707845, 0.1};
Point(p13 + 6) = {9.027958348199371, 0.7241512058931693, 0.1};
Point(p13 + 7) = {8.95456028628062, 0.7691295960849241, 0.1};
Point(p13 + 8) = {8.875029705893169, 0.8020722411048095, 0.1};
Point(p13 + 9) = {8.791324913873027, 0.8221679837020649, 0.1};
Point(p13 + 10) = {8.705507000000001, 0.828922, 0.1};
Point(p13 + 11) = {8.619689086126975, 0.8221679837020648, 0.1};
Point(p13 + 12) = {8.535984294106832, 0.8020722411048095, 0.1};
Point(p13 + 13) = {8.456453713719382, 0.7691295960849243, 0.1};
Point(p13 + 14) = {8.38305565180063, 0.7241512058931694, 0.1};
Point(p13 + 15) = {8.317597412229215, 0.6682445877707845, 0.1};
Point(p13 + 16) = {8.261690794106832, 0.602786348199371, 0.1};
Point(p13 + 17) = {8.216712403915077, 0.5293882862806188, 0.1};
Point(p13 + 18) = {8.183769758895192, 0.4498577058931693, 0.1};
Point(p13 + 19) = {8.163674016297936, 0.3661529138730252, 0.1};
Point(p13 + 20) = {8.156920000000001, 0.2803350000000001, 0.1};
Point(p13 + 21) = {8.163674016297936, 0.1945170861269749, 0.1};
Point(p13 + 22) = {8.183769758895192, 0.1108122941068306, 0.1};
Point(p13 + 23) = {8.216712403915077, 0.03128171371938149, 0.1};
Point(p13 + 24) = {8.261690794106832, -0.04211634819937093, 0.1};
Point(p13 + 25) = {8.317597412229215, -0.1075745877707845, 0.1};
Point(p13 + 26) = {8.38305565180063, -0.1634812058931693, 0.1};
Point(p13 + 27) = {8.456453713719382, -0.2084595960849241, 0.1};
Point(p13 + 28) = {8.535984294106832, -0.2414022411048095, 0.1};
Point(p13 + 29) = {8.619689086126975, -0.2614979837020648, 0.1};
Point(p13 + 30) = {8.705507000000001, -0.268252, 0.1};
Point(p13 + 31) = {8.791324913873027, -0.2614979837020649, 0.1};
Point(p13 + 32) = {8.875029705893169, -0.2414022411048095, 0.1};
Point(p13 + 33) = {8.95456028628062, -0.2084595960849243, 0.1};
Point(p13 + 34) = {9.027958348199371, -0.1634812058931694, 0.1};
Point(p13 + 35) = {9.093416587770786, -0.1075745877707847, 0.1};
Point(p13 + 36) = {9.14932320589317, -0.04211634819937105, 0.1};
Point(p13 + 37) = {9.194301596084925, 0.03128171371938113, 0.1};
Point(p13 + 38) = {9.22724424110481, 0.1108122941068306, 0.1};
Point(p13 + 39) = {9.247339983702066, 0.1945170861269747, 0.1};
Spline(13) = {9, p13 + 1, p13 + 2, p13 + 3, p13 + 4, p13 + 5, p13 + 6, p13 + 7, p13 + 8, p13 + 9, p13 + 10, p13 + 11, p13 + 12, p13 + 13, p13 + 14, p13 + 15, p13 + 16, p13 + 17, p13 + 18, p13 + 19, p13 + 20, p13 + 21, p13 + 22, p13 + 23, p13 + 24, p13 + 25, p13 + 26, p13 + 27, p13 + 28, p13 + 29, p13 + 30, p13 + 31, p13 + 32, p13 + 33, p13 + 34, p13 + 35, p13 + 36, p13 + 37, p13 + 38, p13 + 39, 9};
Line(14) = {10, 9};
p15 = newp;
Point(p15 + 1) = {9.247339983702066, 0.3661529138730251, 0};
Point(p15 + 2) = {9.22724424110481, 0.4498577058931693, 0};
Point(p15 + 3) = {9.194301596084925, 0.5293882862806187, 0};
Point(p15 + 4) = {9.14932320589317, 0.6027863481993709, 0};
Point(p15 + 5) = {9.093416587770786, 0.6682445877707845, 0};
Point(p15 + 6) = {9.027958348199371, 0.7241512058931693, 0};
Point(p15 + 7) = {8.95456028628062, 0.7691295960849241, 0};
Point(p15 + 8) = {8.875029705893169, 0.8020722411048095, 0};
Point(p15 + 9) = {8.791324913873027, 0.8221679837020649, 0};
Point(p15 + 10) = {8.705507000000001, 0.828922, 0};
Point(p15 + 11) = {8.619689086126975, 0.8221679837020648, 0};
Point(p15 + 12) = {8.535984294106832, 0.8020722411048095, 0};
Point(p15 + 13) = {8.456453713719382, 0.7691295960849243, 0};
Point(p15 + 14) = {8.38305565180063, 0.7241512058931694, 0};
Point(p15 + 15) = {8.317597412229215, 0.6682445877707845, 0};
Point(p15 + 16) = {8.261690794106832, 0.602786348199371, 0};
Point(p15 + 17) = {8.216712403915077, 0.5293882862806188, 0};
Point(p15 + 18) = {8.183769758895192, 0.4498577058931693, 0};
Point(p15 + 19) = {8.163674016297936, 0.3661529138730252, 0};
Point(p15 + 20) = {8.156920000000001, 0.2803350000000001, 0};
Point(p15 + 21) = {8.163674016297936, 0.1945170861269749, 0};
Point(p15 + 22) = {8.183769758895192, 0.1108122941068306, 0};
Point(p15 + 23) = {8.216712403915077, 0.03128171371938149, 0};
Point(p15 + 24) = {8.261690794106832, -0.04211634819937093, 0};
Point(p15 + 25) = {8.317597412229215, -0.1075745877707845, 0};
Point(p15 + 26) = {8.38305565180063, -0.1634812058931693, 0};
Point(p15 + 27) = {8.456453713719382, -0.2084595960849241, 0};
Point(p15 + 28) = {8.535984294106832, -0.2414022411048095, 0};
Point(p15 + 29) = {8.619689086126975, -0.2614979837020648, 0};
Point(p15 + 30) = {8.705507000000001, -0.268252, 0};
Point(p15 + 31) = {8.791324913873027, -0.2614979837020649, 0};
Point(p15 + 32) = {8.875029705893169, -0.2414022411048095, 0};
Point(p15 + 33) = {8.95456028628062, -0.2084595960849243, 0};
Point(p15 + 34) = {9.027958348199371, -0.1634812058931694, 0};
Point(p15 + 35) = {9.093416587770786, -0.1075745877707847, 0};
Point(p15 + 36) = {9.14932320589317, -0.04211634819937105, 0};
Point(p15 + 37) = {9.194301596084925, 0.03128171371938113, 0};
Point(p15 + 38) = {9.22724424110481, 0.1108122941068306, 0};
Point(p15 + 39) = {9.247339983702066, 0.1945170861269747, 0};
Spline(15) = {10, p15 + 1, p15 + 2, p15 + 3, p15 + 4, p15 + 5, p15 + 6, p15 + 7, p15 + 8, p15 + 9, p15 + 10, p15 + 11, p15 + 12, p15 + 13, p15 + 14, p15 + 15, p15 + 16, p15 + 17, p15 + 18, p15 + 19, p15 + 20, p15 + 21, p15 + 22, p15 + 23, p15 + 24, p15 + 25, p15 + 26, p15 + 27, p15 + 28, p15 + 29, p15 + 30, p15 + 31, p15 + 32, p15 + 33, p15 + 34, p15 + 35, p15 + 36, p15 + 37, p15 + 38, p15 + 39, 10};
p16 = newp;
Point(p16 + 1) = {13.90392456832254, 0.5340471169973409, 0.1};
Point(p16 + 2) = {13.86823066525193, 0.6827229232509713, 0.1};
Point(p16 + 3) = {13.80971819314305, 0.8239845269842154, 0.1};
Point(p16 + 4) = {13.72982792325097, 0.9543535986927767, 0.1};
Point(p16 + 5) = {13.63052701916105, 1.070620019161047, 0.1};
Point(p16 + 6) = {13.51426059869278, 1.169920923250971, 0.1};
Point(p16 + 7) = {13.38389152698422, 1.249811193143049, 0.1};
Point(p16 + 8) = {13.24262992325097, 1.308323665251932, 0.1};
Point(p16 + 9) = {13.09395411699734, 1.34401756832254, 0.1};
Point(p16 + 10) = {12.941525, 1.356014, 0.1};
Point(p16 + 11) = {12.78909588300266, 1.34401756832254, 0.1};
Point(p16 + 12) = {12.64042007674903, 1.308323665251933, 0.1};
Point(p16 + 13) = {12.49915847301578, 1.249811193143049, 0.1};
Point(p16 + 14) = {12.36878940130722, 1.169920923250971, 0.1};
Point(p16 + 15) = {12.25252298083895, 1.070620019161047, 0.1};
Point(p16 + 16) = {12.15322207674903, 0.9543535986927768, 0.1};
Point(p16 + 17) = {12.07333180685695, 0.8239845269842155, 0.1};
Point(p16 + 18) = {12.01481933474807, 0.6827229232509714, 0.1};
Point(p16 + 19) = {11.97912543167746, 0.5340471169973409, 0.1};
Point(p16 + 20) = {11.967129, 0.3816180000000001, 0.1};
Point(p16 + 21) = {11.97912543167746, 0.2291888830026593, 0.1};
Point(p16 + 22) = {12.01481933474807, 0.08051307674902841, 0.1};
Point(p16 + 23) = {12.07333180685695, -0.06074852698421496, 0.1};
Point(p16 + 24) = {12.15322207674903, -0.1911175986927766, 0.1};
Point(p16 + 25) = {12.25252298083895, -0.3073840191610471, 0.1};
Point(p16 + 26) = {12.36878940130722, -0.4066849232509712, 0.1};
Point(p16 + 27) = {12.49915847301578, -0.4865751931430489, 0.1};
Point(p16 + 28) = {12.64042007674903, -0.5450876652519324, 0.1};
Point(p16 + 29) = {12.78909588300266, -0.5807815683225398, 0.1};
Point(p16 + 30) = {12.941525, -0.592778, 0.1};
Point(p16 + 31) = {13.09395411699734, -0.5807815683225399, 0.1};
Point(p16 + 32) = {13.24262992325097, -0.5450876652519325, 0.1};
Point(p16 + 33) = {13.38389152698422, -0.4865751931430491, 0.1};
Point(p16 + 34) = {13.51426059869278, -0.4066849232509714, 0.1};
Point(p16 + 35) = {13.63052701916105, -0.3073840191610473, 0.1};
Point(p16 + 36) = {13.72982792325097, -0.1911175986927768, 0.1};
Point(p16 + 37) = {13.80971819314305, -0.06074852698421562, 0.1};
Point(p16 + 38) = {13.86823066525193, 0.08051307674902852, 0.1};
Point(p16 + 39) = {13.90392456832254, 0.229188883002659, 0.1};
Spline(16) = {11, p16 + 1, p16 + 2, p16 + 3, p16 + 4, p16 + 5, p16 + 6, p16 + 7, p16 + 8, p16 + 9, p16 + 10, p16 + 11, p16 + 12, p16 + 13, p16 + 14, p16 + 15, p16 + 16, p16 + 17, p16 + 18, p16 + 19, p16 + 20, p16 + 21, p16 + 22, p16 + 23, p16 + 24, p16 + 25, p16 + 26, p16 + 27, p16 + 28, p16 + 29, p16 + 30, p16 + 31, p16 + 32, p16 + 33, p16 + 34, p16 + 35, p16 + 36, p16 + 37, p16 + 38, p16 + 39, 11};
Line(17) = {12, 11};
p18 = newp;
Point(p18 + 1) = {13.90392456832254, 0.5340471169973409, 0};
Point(p18 + 2) = {13.86823066525193, 0.6827229232509713, 0};
Point(p18 + 3) = {13.80971819314305, 0.8239845269842154, 0};
Point(p18 + 4) = {13.72982792325097, 0.9543535986927767, 0};
Point(p18 + 5) = {13.63052701916105, 1.070620019161047, 0};
Point(p18 + 6) = {13.51426059869278, 1.169920923250971, 0};
Point(p18 + 7) = {13.38389152698422, 1.249811193143049, 0};
Point(p18 + 8) = {13.24262992325097, 1.308323665251932, 0};
Point(p18 + 9) = {13.09395411699734, 1.34401756832254, 0};
Point(p18 + 10) = {12.941525, 1.356014, 0};
Point(p18 + 11) = {12.78909588300266, 1.34401756832254, 0};
Point(p18 + 12) = {12.64042007674903, 1.308323665251933, 0};
Point(p18 + 13) = {12.49915847301578, 1.249811193143049, 0};
Point(p18 + 14) = {12.36878940130722, 1.169920923250971, 0};
Point(p18 + 15) = {12.25252298083895, 1.070620019161047, 0};
Point(p18 + 16) = {12.15322207674903, 0.9543535986927768, 0};
Point(p18 + 17) = {12.07333180685695, 0.8239845269842155, 0};
Point(p18 + 18) = {12.01481933474807, 0.6827229232509714, 0};
Point(p18 + 19) = {11.97912543167746, 0.5340471169973409, 0};
Point(p18 + 20) = {11.967129, 0.3816180000000001, 0};
Point(p18 + 21) = {11.97912543167746, 0.2291888830026593, 0};
Point(p18 + 22) = {12.01481933474807, 0.08051307674902841, 0};
Point(p18 + 23) = {12.07333180685695, -0.06074852698421496, 0};
Point(p18 + 24) = {12.15322207674903, -0.1911175986927766, 0};
Point(p18 + 25) = {12.25252298083895, -0.3073840191610471, 0};
Point(p18 + 26) = {12.36878940130722, -0.4066849232509712, 0};
Point(p18 + 27) = {12.49915847301578, -0.4865751931430489, 0};
Point(p18 + 28) = {12.64042007674903, -0.5450876652519324, 0};
Point(p18 + 29) = {12.78909588300266, -0.5807815683225398, 0};
Point(p18 + 30) = {12.941525, -0.592778, 0};
Point(p18 + 31) = {13.09395411699734, -0.5807815683225399, 0};
Point(p18 + 32) = {13.24262992325097, -0.5450876652519325, 0};
Point(p18 + 33) = {13.38389152698422, -0.4865751931430491, 0};
Point(p18 + 34) = {13.51426059869278, -0.4066849232509714, 0};
Point(p18 + 35) = {13.63052701916105, -0.3073840191610473, 0};
Point(p18 + 36) = {13.72982792325097, -0.1911175986927768, 0};
Point(p18 + 37) = {13.80971819314305, -0.06074852698421562, 0};
Point(p18 + 38) = {13.86823066525193, 0.08051307674902852, 0};
Point(p18 + 39) = {13.90392456832254, 0.229188883002659, 0};
Spline(18) = {12, p18 + 1, p18 + 2, p18 + 3, p18 + 4, p18 + 5, p18 + 6, p18 + 7, p18 + 8, p18 + 9, p18 + 10, p18 + 11, p18 + 12, p18 + 13, p18 + 14, p18 + 15, p18 + 16, p18 + 17, p18 + 18, p18 + 19, p18 + 20, p18 + 21, p18 + 22, p18 + 23, p18 + 24, p18 + 25, p18 + 26, p18 + 27, p18 + 28, p18 + 29, p18 + 30, p18 + 31, p18 + 32, p18 + 33, p18 + 34, p18 + 35, p18 + 36, p18 + 37, p18 + 38, p18 + 39, 12};
Line(19) = {14, 13};
Line(20) = {13, 15};
Line(21) = {16, 15};
Line(22) = {14, 16};
Line(23) = {14, 17};
Line(24) = {17, 18};
Line(25) = {13, 18};
Line(26) = {15, 19};
Line(27) = {18, 19};
Line(28) = {16, 20};
Line(29) = {20, 19};
Line(30) = {17, 20};
Curve Loop(7) = {-13, -14, 15, 14};
Surface(7) = {7};
Curve Loop(8) = {13};
Plane Surface(8) = {8};
Curve Loop(9) = {15};
Plane Surface(9) = {9};
Curve Loop(10) = {-16, -17, 18, 17};
Surface(10) = {10};
Curve Loop(11) = {16};
Plane Surface(11) = {11};
Curve Loop(12) = {18};
Plane Surface(12) = {12};
Curve Loop(13) = {-19, 22, 21, -20};
Plane Surface(13) = {13};
Curve Loop(14) = {-23, 19, 25, -24};
Plane Surface(14) = {14};
Curve Loop(15) = {-20, 25, 27, -26};
Plane Surface(15) = {15};
Curve Loop(16) = {-28, 21, 26, -29};
Plane Surface(16) = {16};
Curve Loop(17) = {-22, 23, 30, -28, -15, -18};
Plane Surface(17) = {17};
Curve Loop(18) = {-24, 30, 29, -27};
Plane Surface(18) = {18};
Surface Loop(1) = {13, 14, 15, 16, 17, 18, 7, 10, 8, 11};
Volume(1) = {1};
Surface Loop(2) = {7, 8, 9};
Volume(2) = {2};
Surface Loop(3) = {10, 11, 12};
Volume(3) = {3};
Physical Surface("WALLS") = {13, 18};
Physical Surface("LOAD") = {8, 11};
Physical Surface("BORDER") = {7, 9, 10, 12, 14, 15, 16, 17};
Physical Volume("SOLID") = {1, 2, 3};
