cl__1 = 0.135139;
cl__2 = 0.056736;
cl__3 = 2.846068;
cl__4 = 3.445537;
cl__5 = 0.621526;
cl__6 = 0.450948;
Point(9) = {26.895139, 2.801591999999999, 0.1, cl__1};
Point(10) = {26.895139, 2.801591999999999, 0, cl__1};
Point(11) = {18.125444, -1.665022, 0.1, cl__2};
Point(12) = {18.125444, -1.665022, 0, cl__2};
Point(13) = {0.220788, -3.141949, 1, cl__3};
Point(14) = {0.220788, -3.141949, 0, cl__3};
Point(15) = {0.220788, 4.811446, 1, cl__4};
Point(16) = {0.220788, 4.811446, 0, cl__4};
Point(17) = {31.943262, -3.141949, 0, cl__5};
Point(18) = {31.943262, -3.141949, 1, cl__5};
Point(19) = {31.943262, 4.811446, 1, cl__6};
Point(20) = {31.943262, 4.811446, 0, cl__6};
p13 = newp;
Point(p13 + 1) = {26.87850117122018, 3.012995658841787, 0.1};
Point(p13 + 2) = {26.82899736344308, 3.219193857994371, 0.1};
Point(p13 + 3) = {26.74784652470987, 3.415109313462026, 0.1};
Point(p13 + 4) = {26.63704685799437, 3.595917936525021, 0.1};
Point(p13 + 5) = {26.49932661881413, 3.757167618814126, 0.1};
Point(p13 + 6) = {26.33807693652502, 3.894887857994371, 0.1};
Point(p13 + 7) = {26.15726831346203, 4.00568752470987, 0.1};
Point(p13 + 8) = {25.96135285799437, 4.086838363443075, 0.1};
Point(p13 + 9) = {25.75515465884179, 4.136342171220182, 0.1};
Point(p13 + 10) = {25.543751, 4.152979999999999, 0.1};
Point(p13 + 11) = {25.33234734115821, 4.136342171220182, 0.1};
Point(p13 + 12) = {25.12614914200563, 4.086838363443075, 0.1};
Point(p13 + 13) = {24.93023368653797, 4.00568752470987, 0.1};
Point(p13 + 14) = {24.74942506347498, 3.894887857994371, 0.1};
Point(p13 + 15) = {24.58817538118587, 3.757167618814126, 0.1};
Point(p13 + 16) = {24.45045514200563, 3.595917936525021, 0.1};
Point(p13 + 17) = {24.33965547529013, 3.415109313462027, 0.1};
Point(p13 + 18) = {24.25850463655692, 3.219193857994371, 0.1};
Point(p13 + 19) = {24.20900082877982, 3.012995658841787, 0.1};
Point(p13 + 20) = {24.192363, 2.801592, 0.1};
Point(p13 + 21) = {24.20900082877982, 2.590188341158212, 0.1};
Point(p13 + 22) = {24.25850463655692, 2.383990142005628, 0.1};
Point(p13 + 23) = {24.33965547529013, 2.188074686537974, 0.1};
Point(p13 + 24) = {24.45045514200563, 2.007266063474979, 0.1};
Point(p13 + 25) = {24.58817538118587, 1.846016381185874, 0.1};
Point(p13 + 26) = {24.74942506347498, 1.708296142005628, 0.1};
Point(p13 + 27) = {24.93023368653797, 1.59749647529013, 0.1};
Point(p13 + 28) = {25.12614914200563, 1.516345636556925, 0.1};
Point(p13 + 29) = {25.33234734115821, 1.466841828779818, 0.1};
Point(p13 + 30) = {25.543751, 1.450204, 0.1};
Point(p13 + 31) = {25.75515465884179, 1.466841828779818, 0.1};
Point(p13 + 32) = {25.96135285799437, 1.516345636556925, 0.1};
Point(p13 + 33) = {26.15726831346203, 1.59749647529013, 0.1};
Point(p13 + 34) = {26.33807693652502, 1.708296142005628, 0.1};
Point(p13 + 35) = {26.49932661881413, 1.846016381185874, 0.1};
Point(p13 + 36) = {26.63704685799437, 2.007266063474979, 0.1};
Point(p13 + 37) = {26.74784652470987, 2.188074686537973, 0.1};
Point(p13 + 38) = {26.82899736344308, 2.383990142005628, 0.1};
Point(p13 + 39) = {26.87850117122018, 2.590188341158212, 0.1};
Spline(13) = {9, p13 + 1, p13 + 2, p13 + 3, p13 + 4, p13 + 5, p13 + 6, p13 + 7, p13 + 8, p13 + 9, p13 + 10, p13 + 11, p13 + 12, p13 + 13, p13 + 14, p13 + 15, p13 + 16, p13 + 17, p13 + 18, p13 + 19, p13 + 20, p13 + 21, p13 + 22, p13 + 23, p13 + 24, p13 + 25, p13 + 26, p13 + 27, p13 + 28, p13 + 29, p13 + 30, p13 + 31, p13 + 32, p13 + 33, p13 + 34, p13 + 35, p13 + 36, p13 + 37, p13 + 38, p13 + 39, 9};
Line(14) = {10, 9};
p15 = newp;
Point(p15 + 1) = {26.87850117122018, 3.012995658841787, 0};
Point(p15 + 2) = {26.82899736344308, 3.219193857994371, 0};
Point(p15 + 3) = {26.74784652470987, 3.415109313462026, 0};
Point(p15 + 4) = {26.63704685799437, 3.595917936525021, 0};
Point(p15 + 5) = {26.49932661881413, 3.757167618814126, 0};
Point(p15 + 6) = {26.33807693652502, 3.894887857994371, 0};
Point(p15 + 7) = {26.15726831346203, 4.00568752470987, 0};
Point(p15 + 8) = {25.96135285799437, 4.086838363443075, 0};
Point(p15 + 9) = {25.75515465884179, 4.136342171220182, 0};
Point(p15 + 10) = {25.543751, 4.152979999999999, 0};
Point(p15 + 11) = {25.33234734115821, 4.136342171220182, 0};
Point(p15 + 12) = {25.12614914200563, 4.086838363443075, 0};
Point(p15 + 13) = {24.93023368653797, 4.00568752470987, 0};
Point(p15 + 14) = {24.74942506347498, 3.894887857994371, 0};
Point(p15 + 15) = {24.58817538118587, 3.757167618814126, 0};
Point(p15 + 16) = {24.45045514200563, 3.595917936525021, 0};
Point(p15 + 17) = {24.33965547529013, 3.415109313462027, 0};
Point(p15 + 18) = {24.25850463655692, 3.219193857994371, 0};
Point(p15 + 19) = {24.20900082877982, 3.012995658841787, 0};
Point(p15 + 20) = {24.192363, 2.801592, 0};
Point(p15 + 21) = {24.20900082877982, 2.590188341158212, 0};
Point(p15 + 22) = {24.25850463655692, 2.383990142005628, 0};
Point(p15 + 23) = {24.33965547529013, 2.188074686537974, 0};
Point(p15 + 24) = {24.45045514200563, 2.007266063474979, 0};
Point(p15 + 25) = {24.58817538118587, 1.846016381185874, 0};
Point(p15 + 26) = {24.74942506347498, 1.708296142005628, 0};
Point(p15 + 27) = {24.93023368653797, 1.59749647529013, 0};
Point(p15 + 28) = {25.12614914200563, 1.516345636556925, 0};
Point(p15 + 29) = {25.33234734115821, 1.466841828779818, 0};
Point(p15 + 30) = {25.543751, 1.450204, 0};
Point(p15 + 31) = {25.75515465884179, 1.466841828779818, 0};
Point(p15 + 32) = {25.96135285799437, 1.516345636556925, 0};
Point(p15 + 33) = {26.15726831346203, 1.59749647529013, 0};
Point(p15 + 34) = {26.33807693652502, 1.708296142005628, 0};
Point(p15 + 35) = {26.49932661881413, 1.846016381185874, 0};
Point(p15 + 36) = {26.63704685799437, 2.007266063474979, 0};
Point(p15 + 37) = {26.74784652470987, 2.188074686537973, 0};
Point(p15 + 38) = {26.82899736344308, 2.383990142005628, 0};
Point(p15 + 39) = {26.87850117122018, 2.590188341158212, 0};
Spline(15) = {10, p15 + 1, p15 + 2, p15 + 3, p15 + 4, p15 + 5, p15 + 6, p15 + 7, p15 + 8, p15 + 9, p15 + 10, p15 + 11, p15 + 12, p15 + 13, p15 + 14, p15 + 15, p15 + 16, p15 + 17, p15 + 18, p15 + 19, p15 + 20, p15 + 21, p15 + 22, p15 + 23, p15 + 24, p15 + 25, p15 + 26, p15 + 27, p15 + 28, p15 + 29, p15 + 30, p15 + 31, p15 + 32, p15 + 33, p15 + 34, p15 + 35, p15 + 36, p15 + 37, p15 + 38, p15 + 39, 10};
p16 = newp;
Point(p16 + 1) = {18.11845881998508, -1.57626687261138, 0.1};
Point(p16 + 2) = {18.09767527825477, -1.489697191020447, 0.1};
Point(p16 + 3) = {18.06360513458309, -1.407444588096272, 0.1};
Point(p16 + 4) = {18.01708730897955, -1.331534395903585, 0.1};
Point(p16 + 5) = {17.95926722469434, -1.263835775305657, 0.1};
Point(p16 + 6) = {17.89156860409642, -1.206015691020447, 0.1};
Point(p16 + 7) = {17.81565841190373, -1.159497865416915, 0.1};
Point(p16 + 8) = {17.73340580897955, -1.125427721745233, 0.1};
Point(p16 + 9) = {17.64683612738862, -1.104644180014921, 0.1};
Point(p16 + 10) = {17.558081, -1.097659, 0.1};
Point(p16 + 11) = {17.46932587261138, -1.104644180014921, 0.1};
Point(p16 + 12) = {17.38275619102045, -1.125427721745233, 0.1};
Point(p16 + 13) = {17.30050358809627, -1.159497865416915, 0.1};
Point(p16 + 14) = {17.22459339590359, -1.206015691020447, 0.1};
Point(p16 + 15) = {17.15689477530566, -1.263835775305657, 0.1};
Point(p16 + 16) = {17.09907469102045, -1.331534395903585, 0.1};
Point(p16 + 17) = {17.05255686541692, -1.407444588096272, 0.1};
Point(p16 + 18) = {17.01848672174523, -1.489697191020447, 0.1};
Point(p16 + 19) = {16.99770318001492, -1.57626687261138, 0.1};
Point(p16 + 20) = {16.990718, -1.665022, 0.1};
Point(p16 + 21) = {16.99770318001492, -1.75377712738862, 0.1};
Point(p16 + 22) = {17.01848672174523, -1.840346808979553, 0.1};
Point(p16 + 23) = {17.05255686541692, -1.922599411903728, 0.1};
Point(p16 + 24) = {17.09907469102045, -1.998509604096414, 0.1};
Point(p16 + 25) = {17.15689477530566, -2.066208224694343, 0.1};
Point(p16 + 26) = {17.22459339590359, -2.124028308979553, 0.1};
Point(p16 + 27) = {17.30050358809627, -2.170546134583085, 0.1};
Point(p16 + 28) = {17.38275619102045, -2.204616278254767, 0.1};
Point(p16 + 29) = {17.46932587261138, -2.225399819985079, 0.1};
Point(p16 + 30) = {17.558081, -2.232385, 0.1};
Point(p16 + 31) = {17.64683612738862, -2.225399819985079, 0.1};
Point(p16 + 32) = {17.73340580897955, -2.204616278254767, 0.1};
Point(p16 + 33) = {17.81565841190373, -2.170546134583085, 0.1};
Point(p16 + 34) = {17.89156860409642, -2.124028308979554, 0.1};
Point(p16 + 35) = {17.95926722469434, -2.066208224694343, 0.1};
Point(p16 + 36) = {18.01708730897955, -1.998509604096415, 0.1};
Point(p16 + 37) = {18.06360513458309, -1.922599411903729, 0.1};
Point(p16 + 38) = {18.09767527825477, -1.840346808979553, 0.1};
Point(p16 + 39) = {18.11845881998508, -1.753777127388621, 0.1};
Spline(16) = {11, p16 + 1, p16 + 2, p16 + 3, p16 + 4, p16 + 5, p16 + 6, p16 + 7, p16 + 8, p16 + 9, p16 + 10, p16 + 11, p16 + 12, p16 + 13, p16 + 14, p16 + 15, p16 + 16, p16 + 17, p16 + 18, p16 + 19, p16 + 20, p16 + 21, p16 + 22, p16 + 23, p16 + 24, p16 + 25, p16 + 26, p16 + 27, p16 + 28, p16 + 29, p16 + 30, p16 + 31, p16 + 32, p16 + 33, p16 + 34, p16 + 35, p16 + 36, p16 + 37, p16 + 38, p16 + 39, 11};
Line(17) = {12, 11};
p18 = newp;
Point(p18 + 1) = {18.11845881998508, -1.57626687261138, 0};
Point(p18 + 2) = {18.09767527825477, -1.489697191020447, 0};
Point(p18 + 3) = {18.06360513458309, -1.407444588096272, 0};
Point(p18 + 4) = {18.01708730897955, -1.331534395903585, 0};
Point(p18 + 5) = {17.95926722469434, -1.263835775305657, 0};
Point(p18 + 6) = {17.89156860409642, -1.206015691020447, 0};
Point(p18 + 7) = {17.81565841190373, -1.159497865416915, 0};
Point(p18 + 8) = {17.73340580897955, -1.125427721745233, 0};
Point(p18 + 9) = {17.64683612738862, -1.104644180014921, 0};
Point(p18 + 10) = {17.558081, -1.097659, 0};
Point(p18 + 11) = {17.46932587261138, -1.104644180014921, 0};
Point(p18 + 12) = {17.38275619102045, -1.125427721745233, 0};
Point(p18 + 13) = {17.30050358809627, -1.159497865416915, 0};
Point(p18 + 14) = {17.22459339590359, -1.206015691020447, 0};
Point(p18 + 15) = {17.15689477530566, -1.263835775305657, 0};
Point(p18 + 16) = {17.09907469102045, -1.331534395903585, 0};
Point(p18 + 17) = {17.05255686541692, -1.407444588096272, 0};
Point(p18 + 18) = {17.01848672174523, -1.489697191020447, 0};
Point(p18 + 19) = {16.99770318001492, -1.57626687261138, 0};
Point(p18 + 20) = {16.990718, -1.665022, 0};
Point(p18 + 21) = {16.99770318001492, -1.75377712738862, 0};
Point(p18 + 22) = {17.01848672174523, -1.840346808979553, 0};
Point(p18 + 23) = {17.05255686541692, -1.922599411903728, 0};
Point(p18 + 24) = {17.09907469102045, -1.998509604096414, 0};
Point(p18 + 25) = {17.15689477530566, -2.066208224694343, 0};
Point(p18 + 26) = {17.22459339590359, -2.124028308979553, 0};
Point(p18 + 27) = {17.30050358809627, -2.170546134583085, 0};
Point(p18 + 28) = {17.38275619102045, -2.204616278254767, 0};
Point(p18 + 29) = {17.46932587261138, -2.225399819985079, 0};
Point(p18 + 30) = {17.558081, -2.232385, 0};
Point(p18 + 31) = {17.64683612738862, -2.225399819985079, 0};
Point(p18 + 32) = {17.73340580897955, -2.204616278254767, 0};
Point(p18 + 33) = {17.81565841190373, -2.170546134583085, 0};
Point(p18 + 34) = {17.89156860409642, -2.124028308979554, 0};
Point(p18 + 35) = {17.95926722469434, -2.066208224694343, 0};
Point(p18 + 36) = {18.01708730897955, -1.998509604096415, 0};
Point(p18 + 37) = {18.06360513458309, -1.922599411903729, 0};
Point(p18 + 38) = {18.09767527825477, -1.840346808979553, 0};
Point(p18 + 39) = {18.11845881998508, -1.753777127388621, 0};
Spline(18) = {12, p18 + 1, p18 + 2, p18 + 3, p18 + 4, p18 + 5, p18 + 6, p18 + 7, p18 + 8, p18 + 9, p18 + 10, p18 + 11, p18 + 12, p18 + 13, p18 + 14, p18 + 15, p18 + 16, p18 + 17, p18 + 18, p18 + 19, p18 + 20, p18 + 21, p18 + 22, p18 + 23, p18 + 24, p18 + 25, p18 + 26, p18 + 27, p18 + 28, p18 + 29, p18 + 30, p18 + 31, p18 + 32, p18 + 33, p18 + 34, p18 + 35, p18 + 36, p18 + 37, p18 + 38, p18 + 39, 12};
Line(19) = {14, 13};
Line(20) = {13, 15};
Line(21) = {16, 15};
Line(22) = {14, 16};
Line(23) = {14, 17};
Line(24) = {17, 18};
Line(25) = {13, 18};
Line(26) = {15, 19};
Line(27) = {18, 19};
Line(28) = {16, 20};
Line(29) = {20, 19};
Line(30) = {17, 20};
Curve Loop(7) = {-13, -14, 15, 14};
Surface(7) = {7};
Curve Loop(8) = {13};
Plane Surface(8) = {8};
Curve Loop(9) = {15};
Plane Surface(9) = {9};
Curve Loop(10) = {-16, -17, 18, 17};
Surface(10) = {10};
Curve Loop(11) = {16};
Plane Surface(11) = {11};
Curve Loop(12) = {18};
Plane Surface(12) = {12};
Curve Loop(13) = {-19, 22, 21, -20};
Plane Surface(13) = {13};
Curve Loop(14) = {-23, 19, 25, -24};
Plane Surface(14) = {14};
Curve Loop(15) = {-20, 25, 27, -26};
Plane Surface(15) = {15};
Curve Loop(16) = {-28, 21, 26, -29};
Plane Surface(16) = {16};
Curve Loop(17) = {-22, 23, 30, -28, -18, -15};
Plane Surface(17) = {17};
Curve Loop(18) = {-24, 30, 29, -27};
Plane Surface(18) = {18};
Surface Loop(1) = {13, 14, 15, 16, 17, 18, 10, 7, 11, 8};
Volume(1) = {1};
Surface Loop(2) = {7, 8, 9};
Volume(2) = {2};
Surface Loop(3) = {10, 11, 12};
Volume(3) = {3};
Physical Surface("WALLS") = {13, 18};
Physical Surface("LOAD") = {8, 11};
Physical Surface("BORDER") = {7, 9, 10, 12, 14, 15, 16, 17};
Physical Volume("SOLID") = {1, 2, 3};
