cl__1 = 0.124467;
cl__2 = 0.113662;
cl__3 = 1.627079;
cl__4 = 1.534318;
cl__5 = 0.790261;
cl__6 = 0.880192;
Point(9) = {19.349966, 1.572186, 0.1, cl__1};
Point(10) = {19.349966, 1.572186, 0, cl__1};
Point(11) = {20.557945, -1.249621000000001, 0.1, cl__2};
Point(12) = {20.557945, -1.249621000000001, 0, cl__2};
Point(13) = {0.250098, -3.385563, 1, cl__3};
Point(14) = {0.250098, -3.385563, 0, cl__3};
Point(15) = {0.250098, 5.076170000000001, 1, cl__4};
Point(16) = {0.250098, 5.076170000000001, 0, cl__4};
Point(17) = {31.99217, -3.385563, 0, cl__5};
Point(18) = {31.99217, -3.385563, 1, cl__5};
Point(19) = {31.99217, 5.076170000000001, 1, cl__6};
Point(20) = {31.99217, 5.076170000000001, 0, cl__6};
p13 = newp;
Point(p13 + 1) = {19.33464205920021, 1.766895129167159, 0.1};
Point(p13 + 2) = {19.28904756308057, 1.956809873371671, 0.1};
Point(p13 + 3) = {19.21430519945501, 2.137253901320322, 0.1};
Point(p13 + 4) = {19.11225537337167, 2.30378408218562, 0.1};
Point(p13 + 5) = {18.98541089023268, 2.452299890232679, 0.1};
Point(p13 + 6) = {18.83689508218562, 2.579144373371672, 0.1};
Point(p13 + 7) = {18.67036490132032, 2.681194199455012, 0.1};
Point(p13 + 8) = {18.48992087337167, 2.755936563080573, 0.1};
Point(p13 + 9) = {18.30000612916716, 2.80153105920021, 0.1};
Point(p13 + 10) = {18.105297, 2.816855, 0.1};
Point(p13 + 11) = {17.91058787083284, 2.801531059200209, 0.1};
Point(p13 + 12) = {17.72067312662833, 2.755936563080573, 0.1};
Point(p13 + 13) = {17.54022909867968, 2.681194199455012, 0.1};
Point(p13 + 14) = {17.37369891781438, 2.579144373371672, 0.1};
Point(p13 + 15) = {17.22518310976732, 2.452299890232679, 0.1};
Point(p13 + 16) = {17.09833862662833, 2.30378408218562, 0.1};
Point(p13 + 17) = {16.99628880054499, 2.137253901320322, 0.1};
Point(p13 + 18) = {16.92154643691943, 1.956809873371672, 0.1};
Point(p13 + 19) = {16.87595194079979, 1.766895129167159, 0.1};
Point(p13 + 20) = {16.860628, 1.572186, 0.1};
Point(p13 + 21) = {16.87595194079979, 1.377476870832841, 0.1};
Point(p13 + 22) = {16.92154643691943, 1.187562126628328, 0.1};
Point(p13 + 23) = {16.99628880054499, 1.007118098679679, 0.1};
Point(p13 + 24) = {17.09833862662833, 0.8405879178143799, 0.1};
Point(p13 + 25) = {17.22518310976732, 0.6920721097673213, 0.1};
Point(p13 + 26) = {17.37369891781438, 0.5652276266283287, 0.1};
Point(p13 + 27) = {17.54022909867968, 0.4631778005449885, 0.1};
Point(p13 + 28) = {17.72067312662833, 0.3884354369194276, 0.1};
Point(p13 + 29) = {17.91058787083284, 0.3428409407997908, 0.1};
Point(p13 + 30) = {18.105297, 0.3275170000000001, 0.1};
Point(p13 + 31) = {18.30000612916716, 0.3428409407997906, 0.1};
Point(p13 + 32) = {18.48992087337167, 0.3884354369194274, 0.1};
Point(p13 + 33) = {18.67036490132032, 0.4631778005449882, 0.1};
Point(p13 + 34) = {18.83689508218562, 0.5652276266283285, 0.1};
Point(p13 + 35) = {18.98541089023268, 0.6920721097673209, 0.1};
Point(p13 + 36) = {19.11225537337167, 0.8405879178143797, 0.1};
Point(p13 + 37) = {19.21430519945501, 1.007118098679678, 0.1};
Point(p13 + 38) = {19.28904756308057, 1.187562126628328, 0.1};
Point(p13 + 39) = {19.33464205920021, 1.377476870832841, 0.1};
Spline(13) = {9, p13 + 1, p13 + 2, p13 + 3, p13 + 4, p13 + 5, p13 + 6, p13 + 7, p13 + 8, p13 + 9, p13 + 10, p13 + 11, p13 + 12, p13 + 13, p13 + 14, p13 + 15, p13 + 16, p13 + 17, p13 + 18, p13 + 19, p13 + 20, p13 + 21, p13 + 22, p13 + 23, p13 + 24, p13 + 25, p13 + 26, p13 + 27, p13 + 28, p13 + 29, p13 + 30, p13 + 31, p13 + 32, p13 + 33, p13 + 34, p13 + 35, p13 + 36, p13 + 37, p13 + 38, p13 + 39, 9};
Line(14) = {10, 9};
p15 = newp;
Point(p15 + 1) = {19.33464205920021, 1.766895129167159, 0};
Point(p15 + 2) = {19.28904756308057, 1.956809873371671, 0};
Point(p15 + 3) = {19.21430519945501, 2.137253901320322, 0};
Point(p15 + 4) = {19.11225537337167, 2.30378408218562, 0};
Point(p15 + 5) = {18.98541089023268, 2.452299890232679, 0};
Point(p15 + 6) = {18.83689508218562, 2.579144373371672, 0};
Point(p15 + 7) = {18.67036490132032, 2.681194199455012, 0};
Point(p15 + 8) = {18.48992087337167, 2.755936563080573, 0};
Point(p15 + 9) = {18.30000612916716, 2.80153105920021, 0};
Point(p15 + 10) = {18.105297, 2.816855, 0};
Point(p15 + 11) = {17.91058787083284, 2.801531059200209, 0};
Point(p15 + 12) = {17.72067312662833, 2.755936563080573, 0};
Point(p15 + 13) = {17.54022909867968, 2.681194199455012, 0};
Point(p15 + 14) = {17.37369891781438, 2.579144373371672, 0};
Point(p15 + 15) = {17.22518310976732, 2.452299890232679, 0};
Point(p15 + 16) = {17.09833862662833, 2.30378408218562, 0};
Point(p15 + 17) = {16.99628880054499, 2.137253901320322, 0};
Point(p15 + 18) = {16.92154643691943, 1.956809873371672, 0};
Point(p15 + 19) = {16.87595194079979, 1.766895129167159, 0};
Point(p15 + 20) = {16.860628, 1.572186, 0};
Point(p15 + 21) = {16.87595194079979, 1.377476870832841, 0};
Point(p15 + 22) = {16.92154643691943, 1.187562126628328, 0};
Point(p15 + 23) = {16.99628880054499, 1.007118098679679, 0};
Point(p15 + 24) = {17.09833862662833, 0.8405879178143799, 0};
Point(p15 + 25) = {17.22518310976732, 0.6920721097673213, 0};
Point(p15 + 26) = {17.37369891781438, 0.5652276266283287, 0};
Point(p15 + 27) = {17.54022909867968, 0.4631778005449885, 0};
Point(p15 + 28) = {17.72067312662833, 0.3884354369194276, 0};
Point(p15 + 29) = {17.91058787083284, 0.3428409407997908, 0};
Point(p15 + 30) = {18.105297, 0.3275170000000001, 0};
Point(p15 + 31) = {18.30000612916716, 0.3428409407997906, 0};
Point(p15 + 32) = {18.48992087337167, 0.3884354369194274, 0};
Point(p15 + 33) = {18.67036490132032, 0.4631778005449882, 0};
Point(p15 + 34) = {18.83689508218562, 0.5652276266283285, 0};
Point(p15 + 35) = {18.98541089023268, 0.6920721097673209, 0};
Point(p15 + 36) = {19.11225537337167, 0.8405879178143797, 0};
Point(p15 + 37) = {19.21430519945501, 1.007118098679678, 0};
Point(p15 + 38) = {19.28904756308057, 1.187562126628328, 0};
Point(p15 + 39) = {19.33464205920021, 1.377476870832841, 0};
Spline(15) = {10, p15 + 1, p15 + 2, p15 + 3, p15 + 4, p15 + 5, p15 + 6, p15 + 7, p15 + 8, p15 + 9, p15 + 10, p15 + 11, p15 + 12, p15 + 13, p15 + 14, p15 + 15, p15 + 16, p15 + 17, p15 + 18, p15 + 19, p15 + 20, p15 + 21, p15 + 22, p15 + 23, p15 + 24, p15 + 25, p15 + 26, p15 + 27, p15 + 28, p15 + 29, p15 + 30, p15 + 31, p15 + 32, p15 + 33, p15 + 34, p15 + 35, p15 + 36, p15 + 37, p15 + 38, p15 + 39, 10};
p16 = newp;
Point(p16 + 1) = {20.54395134631056, -1.071814771214903, 0.1};
Point(p16 + 2) = {20.50231495543837, -0.8983867218875361, 0.1};
Point(p16 + 3) = {20.43406105350994, -0.733607226167036, 0.1};
Point(p16 + 4) = {20.34087027811247, -0.5815337021098339, 0.1};
Point(p16 + 5) = {20.22503729541869, -0.445910704581309, 0.1};
Point(p16 + 6) = {20.08941429789017, -0.3300777218875363, 0.1};
Point(p16 + 7) = {19.93734077383296, -0.236886946490066, 0.1};
Point(p16 + 8) = {19.77256127811247, -0.1686330445616353, 0.1};
Point(p16 + 9) = {19.5991332287851, -0.1269966536894358, 0.1};
Point(p16 + 10) = {19.421327, -0.1130030000000002, 0.1};
Point(p16 + 11) = {19.2435207712149, -0.126996653689436, 0.1};
Point(p16 + 12) = {19.07009272188754, -0.1686330445616353, 0.1};
Point(p16 + 13) = {18.90531322616704, -0.2368869464900658, 0.1};
Point(p16 + 14) = {18.75323970210983, -0.3300777218875361, 0.1};
Point(p16 + 15) = {18.61761670458131, -0.4459107045813089, 0.1};
Point(p16 + 16) = {18.50178372188754, -0.5815337021098338, 0.1};
Point(p16 + 17) = {18.40859294649007, -0.7336072261670359, 0.1};
Point(p16 + 18) = {18.34033904456164, -0.8983867218875361, 0.1};
Point(p16 + 19) = {18.29870265368944, -1.071814771214903, 0.1};
Point(p16 + 20) = {18.284709, -1.249621, 0.1};
Point(p16 + 21) = {18.29870265368944, -1.427427228785097, 0.1};
Point(p16 + 22) = {18.34033904456164, -1.600855278112464, 0.1};
Point(p16 + 23) = {18.40859294649007, -1.765634773832964, 0.1};
Point(p16 + 24) = {18.50178372188754, -1.917708297890166, 0.1};
Point(p16 + 25) = {18.61761670458131, -2.053331295418691, 0.1};
Point(p16 + 26) = {18.75323970210983, -2.169164278112464, 0.1};
Point(p16 + 27) = {18.90531322616704, -2.262355053509934, 0.1};
Point(p16 + 28) = {19.07009272188754, -2.330608955438365, 0.1};
Point(p16 + 29) = {19.2435207712149, -2.372245346310564, 0.1};
Point(p16 + 30) = {19.421327, -2.386239, 0.1};
Point(p16 + 31) = {19.5991332287851, -2.372245346310565, 0.1};
Point(p16 + 32) = {19.77256127811247, -2.330608955438365, 0.1};
Point(p16 + 33) = {19.93734077383296, -2.262355053509935, 0.1};
Point(p16 + 34) = {20.08941429789017, -2.169164278112464, 0.1};
Point(p16 + 35) = {20.22503729541869, -2.053331295418691, 0.1};
Point(p16 + 36) = {20.34087027811247, -1.917708297890167, 0.1};
Point(p16 + 37) = {20.43406105350994, -1.765634773832964, 0.1};
Point(p16 + 38) = {20.50231495543837, -1.600855278112464, 0.1};
Point(p16 + 39) = {20.54395134631056, -1.427427228785098, 0.1};
Spline(16) = {11, p16 + 1, p16 + 2, p16 + 3, p16 + 4, p16 + 5, p16 + 6, p16 + 7, p16 + 8, p16 + 9, p16 + 10, p16 + 11, p16 + 12, p16 + 13, p16 + 14, p16 + 15, p16 + 16, p16 + 17, p16 + 18, p16 + 19, p16 + 20, p16 + 21, p16 + 22, p16 + 23, p16 + 24, p16 + 25, p16 + 26, p16 + 27, p16 + 28, p16 + 29, p16 + 30, p16 + 31, p16 + 32, p16 + 33, p16 + 34, p16 + 35, p16 + 36, p16 + 37, p16 + 38, p16 + 39, 11};
Line(17) = {12, 11};
p18 = newp;
Point(p18 + 1) = {20.54395134631056, -1.071814771214903, 0};
Point(p18 + 2) = {20.50231495543837, -0.8983867218875361, 0};
Point(p18 + 3) = {20.43406105350994, -0.733607226167036, 0};
Point(p18 + 4) = {20.34087027811247, -0.5815337021098339, 0};
Point(p18 + 5) = {20.22503729541869, -0.445910704581309, 0};
Point(p18 + 6) = {20.08941429789017, -0.3300777218875363, 0};
Point(p18 + 7) = {19.93734077383296, -0.236886946490066, 0};
Point(p18 + 8) = {19.77256127811247, -0.1686330445616353, 0};
Point(p18 + 9) = {19.5991332287851, -0.1269966536894358, 0};
Point(p18 + 10) = {19.421327, -0.1130030000000002, 0};
Point(p18 + 11) = {19.2435207712149, -0.126996653689436, 0};
Point(p18 + 12) = {19.07009272188754, -0.1686330445616353, 0};
Point(p18 + 13) = {18.90531322616704, -0.2368869464900658, 0};
Point(p18 + 14) = {18.75323970210983, -0.3300777218875361, 0};
Point(p18 + 15) = {18.61761670458131, -0.4459107045813089, 0};
Point(p18 + 16) = {18.50178372188754, -0.5815337021098338, 0};
Point(p18 + 17) = {18.40859294649007, -0.7336072261670359, 0};
Point(p18 + 18) = {18.34033904456164, -0.8983867218875361, 0};
Point(p18 + 19) = {18.29870265368944, -1.071814771214903, 0};
Point(p18 + 20) = {18.284709, -1.249621, 0};
Point(p18 + 21) = {18.29870265368944, -1.427427228785097, 0};
Point(p18 + 22) = {18.34033904456164, -1.600855278112464, 0};
Point(p18 + 23) = {18.40859294649007, -1.765634773832964, 0};
Point(p18 + 24) = {18.50178372188754, -1.917708297890166, 0};
Point(p18 + 25) = {18.61761670458131, -2.053331295418691, 0};
Point(p18 + 26) = {18.75323970210983, -2.169164278112464, 0};
Point(p18 + 27) = {18.90531322616704, -2.262355053509934, 0};
Point(p18 + 28) = {19.07009272188754, -2.330608955438365, 0};
Point(p18 + 29) = {19.2435207712149, -2.372245346310564, 0};
Point(p18 + 30) = {19.421327, -2.386239, 0};
Point(p18 + 31) = {19.5991332287851, -2.372245346310565, 0};
Point(p18 + 32) = {19.77256127811247, -2.330608955438365, 0};
Point(p18 + 33) = {19.93734077383296, -2.262355053509935, 0};
Point(p18 + 34) = {20.08941429789017, -2.169164278112464, 0};
Point(p18 + 35) = {20.22503729541869, -2.053331295418691, 0};
Point(p18 + 36) = {20.34087027811247, -1.917708297890167, 0};
Point(p18 + 37) = {20.43406105350994, -1.765634773832964, 0};
Point(p18 + 38) = {20.50231495543837, -1.600855278112464, 0};
Point(p18 + 39) = {20.54395134631056, -1.427427228785098, 0};
Spline(18) = {12, p18 + 1, p18 + 2, p18 + 3, p18 + 4, p18 + 5, p18 + 6, p18 + 7, p18 + 8, p18 + 9, p18 + 10, p18 + 11, p18 + 12, p18 + 13, p18 + 14, p18 + 15, p18 + 16, p18 + 17, p18 + 18, p18 + 19, p18 + 20, p18 + 21, p18 + 22, p18 + 23, p18 + 24, p18 + 25, p18 + 26, p18 + 27, p18 + 28, p18 + 29, p18 + 30, p18 + 31, p18 + 32, p18 + 33, p18 + 34, p18 + 35, p18 + 36, p18 + 37, p18 + 38, p18 + 39, 12};
Line(19) = {14, 13};
Line(20) = {13, 15};
Line(21) = {16, 15};
Line(22) = {14, 16};
Line(23) = {14, 17};
Line(24) = {17, 18};
Line(25) = {13, 18};
Line(26) = {15, 19};
Line(27) = {18, 19};
Line(28) = {16, 20};
Line(29) = {20, 19};
Line(30) = {17, 20};
Curve Loop(7) = {-13, -14, 15, 14};
Surface(7) = {7};
Curve Loop(8) = {13};
Plane Surface(8) = {8};
Curve Loop(9) = {15};
Plane Surface(9) = {9};
Curve Loop(10) = {-16, -17, 18, 17};
Surface(10) = {10};
Curve Loop(11) = {16};
Plane Surface(11) = {11};
Curve Loop(12) = {18};
Plane Surface(12) = {12};
Curve Loop(13) = {-19, 22, 21, -20};
Plane Surface(13) = {13};
Curve Loop(14) = {-23, 19, 25, -24};
Plane Surface(14) = {14};
Curve Loop(15) = {-20, 25, 27, -26};
Plane Surface(15) = {15};
Curve Loop(16) = {-28, 21, 26, -29};
Plane Surface(16) = {16};
Curve Loop(17) = {-22, 23, 30, -28, -18, -15};
Plane Surface(17) = {17};
Curve Loop(18) = {-24, 30, 29, -27};
Plane Surface(18) = {18};
Surface Loop(1) = {13, 14, 15, 16, 17, 18, 10, 7, 11, 8};
Volume(1) = {1};
Surface Loop(2) = {7, 8, 9};
Volume(2) = {2};
Surface Loop(3) = {10, 11, 12};
Volume(3) = {3};
Physical Surface("WALLS") = {13, 18};
Physical Surface("LOAD") = {8, 11};
Physical Surface("BORDER") = {7, 9, 10, 12, 14, 15, 16, 17};
Physical Volume("SOLID") = {1, 2, 3};
