cl__1 = 0.144088;
cl__2 = 0.137499;
cl__3 = 5.071963;
cl__4 = 5.151584;
cl__5 = 0.449735;
cl__6 = 0.10504;
Point(9) = {35.672094, 2.933487, 0.1, cl__1};
Point(10) = {35.672094, 2.933487, 0, cl__1};
Point(11) = {26.615997, -0.03487600000000033, 0.1, cl__2};
Point(12) = {26.615997, -0.03487600000000033, 0, cl__2};
Point(13) = {0.532855, -4.457615, 1, cl__3};
Point(14) = {0.532855, -4.457615, 0, cl__3};
Point(15) = {0.532855, 5.042145000000001, 1, cl__4};
Point(16) = {0.532855, 5.042145000000001, 0, cl__4};
Point(17) = {36.209512, -4.457615, 0, cl__5};
Point(18) = {36.209512, -4.457615, 1, cl__5};
Point(19) = {36.209512, 5.042145000000001, 1, cl__6};
Point(20) = {36.209512, 5.042145000000001, 0, cl__6};
p13 = newp;
Point(p13 + 1) = {35.65435442544336, 3.158889666249308, 0.1};
Point(p13 + 2) = {35.60157250897329, 3.378742170786997, 0.1};
Point(p13 + 3) = {35.51504791654644, 3.587631015302719, 0.1};
Point(p13 + 4) = {35.39691117078699, 3.78041266318217, 0.1};
Point(p13 + 5) = {35.25007119044895, 3.952340190448948, 0.1};
Point(p13 + 6) = {35.07814366318217, 4.099180170786997, 0.1};
Point(p13 + 7) = {34.88536201530272, 4.217316916546439, 0.1};
Point(p13 + 8) = {34.676473170787, 4.303841508973296, 0.1};
Point(p13 + 9) = {34.45662066624931, 4.35662342544336, 0.1};
Point(p13 + 10) = {34.231218, 4.374363, 0.1};
Point(p13 + 11) = {34.00581533375069, 4.35662342544336, 0.1};
Point(p13 + 12) = {33.785962829213, 4.303841508973296, 0.1};
Point(p13 + 13) = {33.57707398469728, 4.217316916546439, 0.1};
Point(p13 + 14) = {33.38429233681783, 4.099180170786997, 0.1};
Point(p13 + 15) = {33.21236480955105, 3.952340190448948, 0.1};
Point(p13 + 16) = {33.065524829213, 3.78041266318217, 0.1};
Point(p13 + 17) = {32.94738808345356, 3.587631015302719, 0.1};
Point(p13 + 18) = {32.86086349102671, 3.378742170786997, 0.1};
Point(p13 + 19) = {32.80808157455664, 3.158889666249308, 0.1};
Point(p13 + 20) = {32.790342, 2.933487, 0.1};
Point(p13 + 21) = {32.80808157455664, 2.708084333750692, 0.1};
Point(p13 + 22) = {32.86086349102671, 2.488231829213003, 0.1};
Point(p13 + 23) = {32.94738808345356, 2.279342984697281, 0.1};
Point(p13 + 24) = {33.065524829213, 2.086561336817831, 0.1};
Point(p13 + 25) = {33.21236480955105, 1.914633809551052, 0.1};
Point(p13 + 26) = {33.38429233681783, 1.767793829213003, 0.1};
Point(p13 + 27) = {33.57707398469728, 1.649657083453561, 0.1};
Point(p13 + 28) = {33.785962829213, 1.563132491026704, 0.1};
Point(p13 + 29) = {34.00581533375069, 1.51035057455664, 0.1};
Point(p13 + 30) = {34.231218, 1.492611, 0.1};
Point(p13 + 31) = {34.45662066624931, 1.51035057455664, 0.1};
Point(p13 + 32) = {34.67647317078699, 1.563132491026704, 0.1};
Point(p13 + 33) = {34.88536201530272, 1.649657083453561, 0.1};
Point(p13 + 34) = {35.07814366318217, 1.767793829213003, 0.1};
Point(p13 + 35) = {35.25007119044895, 1.914633809551052, 0.1};
Point(p13 + 36) = {35.39691117078699, 2.08656133681783, 0.1};
Point(p13 + 37) = {35.51504791654644, 2.27934298469728, 0.1};
Point(p13 + 38) = {35.60157250897329, 2.488231829213003, 0.1};
Point(p13 + 39) = {35.65435442544336, 2.708084333750692, 0.1};
Spline(13) = {9, p13 + 1, p13 + 2, p13 + 3, p13 + 4, p13 + 5, p13 + 6, p13 + 7, p13 + 8, p13 + 9, p13 + 10, p13 + 11, p13 + 12, p13 + 13, p13 + 14, p13 + 15, p13 + 16, p13 + 17, p13 + 18, p13 + 19, p13 + 20, p13 + 21, p13 + 22, p13 + 23, p13 + 24, p13 + 25, p13 + 26, p13 + 27, p13 + 28, p13 + 29, p13 + 30, p13 + 31, p13 + 32, p13 + 33, p13 + 34, p13 + 35, p13 + 36, p13 + 37, p13 + 38, p13 + 39, 9};
Line(14) = {10, 9};
p15 = newp;
Point(p15 + 1) = {35.65435442544336, 3.158889666249308, 0};
Point(p15 + 2) = {35.60157250897329, 3.378742170786997, 0};
Point(p15 + 3) = {35.51504791654644, 3.587631015302719, 0};
Point(p15 + 4) = {35.39691117078699, 3.78041266318217, 0};
Point(p15 + 5) = {35.25007119044895, 3.952340190448948, 0};
Point(p15 + 6) = {35.07814366318217, 4.099180170786997, 0};
Point(p15 + 7) = {34.88536201530272, 4.217316916546439, 0};
Point(p15 + 8) = {34.676473170787, 4.303841508973296, 0};
Point(p15 + 9) = {34.45662066624931, 4.35662342544336, 0};
Point(p15 + 10) = {34.231218, 4.374363, 0};
Point(p15 + 11) = {34.00581533375069, 4.35662342544336, 0};
Point(p15 + 12) = {33.785962829213, 4.303841508973296, 0};
Point(p15 + 13) = {33.57707398469728, 4.217316916546439, 0};
Point(p15 + 14) = {33.38429233681783, 4.099180170786997, 0};
Point(p15 + 15) = {33.21236480955105, 3.952340190448948, 0};
Point(p15 + 16) = {33.065524829213, 3.78041266318217, 0};
Point(p15 + 17) = {32.94738808345356, 3.587631015302719, 0};
Point(p15 + 18) = {32.86086349102671, 3.378742170786997, 0};
Point(p15 + 19) = {32.80808157455664, 3.158889666249308, 0};
Point(p15 + 20) = {32.790342, 2.933487, 0};
Point(p15 + 21) = {32.80808157455664, 2.708084333750692, 0};
Point(p15 + 22) = {32.86086349102671, 2.488231829213003, 0};
Point(p15 + 23) = {32.94738808345356, 2.279342984697281, 0};
Point(p15 + 24) = {33.065524829213, 2.086561336817831, 0};
Point(p15 + 25) = {33.21236480955105, 1.914633809551052, 0};
Point(p15 + 26) = {33.38429233681783, 1.767793829213003, 0};
Point(p15 + 27) = {33.57707398469728, 1.649657083453561, 0};
Point(p15 + 28) = {33.785962829213, 1.563132491026704, 0};
Point(p15 + 29) = {34.00581533375069, 1.51035057455664, 0};
Point(p15 + 30) = {34.231218, 1.492611, 0};
Point(p15 + 31) = {34.45662066624931, 1.51035057455664, 0};
Point(p15 + 32) = {34.67647317078699, 1.563132491026704, 0};
Point(p15 + 33) = {34.88536201530272, 1.649657083453561, 0};
Point(p15 + 34) = {35.07814366318217, 1.767793829213003, 0};
Point(p15 + 35) = {35.25007119044895, 1.914633809551052, 0};
Point(p15 + 36) = {35.39691117078699, 2.08656133681783, 0};
Point(p15 + 37) = {35.51504791654644, 2.27934298469728, 0};
Point(p15 + 38) = {35.60157250897329, 2.488231829213003, 0};
Point(p15 + 39) = {35.65435442544336, 2.708084333750692, 0};
Spline(15) = {10, p15 + 1, p15 + 2, p15 + 3, p15 + 4, p15 + 5, p15 + 6, p15 + 7, p15 + 8, p15 + 9, p15 + 10, p15 + 11, p15 + 12, p15 + 13, p15 + 14, p15 + 15, p15 + 16, p15 + 17, p15 + 18, p15 + 19, p15 + 20, p15 + 21, p15 + 22, p15 + 23, p15 + 24, p15 + 25, p15 + 26, p15 + 27, p15 + 28, p15 + 29, p15 + 30, p15 + 31, p15 + 32, p15 + 33, p15 + 34, p15 + 35, p15 + 36, p15 + 37, p15 + 38, p15 + 39, 10};
p16 = newp;
Point(p16 + 1) = {26.59906855449993, 0.1802202943890621, 0.1};
Point(p16 + 2) = {26.54870005251022, 0.390020204146592, 0.1};
Point(p16 + 3) = {26.46613173371334, 0.5893577592083785, 0.1};
Point(p16 + 4) = {26.35339670414659, 0.7733246074053844, 0.1};
Point(p16 + 5) = {26.21327087438403, 0.9373908743840343, 0.1};
Point(p16 + 6) = {26.04920460740539, 1.077516704146592, 0.1};
Point(p16 + 7) = {25.86523775920838, 1.190251733713336, 0.1};
Point(p16 + 8) = {25.66590020414659, 1.272820052510222, 0.1};
Point(p16 + 9) = {25.45610029438906, 1.32318855449993, 0.1};
Point(p16 + 10) = {25.241004, 1.340117, 0.1};
Point(p16 + 11) = {25.02590770561094, 1.32318855449993, 0.1};
Point(p16 + 12) = {24.81610779585341, 1.272820052510222, 0.1};
Point(p16 + 13) = {24.61677024079162, 1.190251733713336, 0.1};
Point(p16 + 14) = {24.43280339259461, 1.077516704146592, 0.1};
Point(p16 + 15) = {24.26873712561597, 0.9373908743840346, 0.1};
Point(p16 + 16) = {24.12861129585341, 0.7733246074053846, 0.1};
Point(p16 + 17) = {24.01587626628666, 0.5893577592083787, 0.1};
Point(p16 + 18) = {23.93330794748978, 0.3900202041465922, 0.1};
Point(p16 + 19) = {23.88293944550007, 0.1802202943890623, 0.1};
Point(p16 + 20) = {23.866011, -0.03487599999999983, 0.1};
Point(p16 + 21) = {23.88293944550007, -0.249972294389062, 0.1};
Point(p16 + 22) = {23.93330794748978, -0.4597722041465925, 0.1};
Point(p16 + 23) = {24.01587626628666, -0.659109759208378, 0.1};
Point(p16 + 24) = {24.12861129585341, -0.8430766074053844, 0.1};
Point(p16 + 25) = {24.26873712561597, -1.007142874384034, 0.1};
Point(p16 + 26) = {24.43280339259461, -1.147268704146592, 0.1};
Point(p16 + 27) = {24.61677024079162, -1.260003733713336, 0.1};
Point(p16 + 28) = {24.81610779585341, -1.342572052510222, 0.1};
Point(p16 + 29) = {25.02590770561094, -1.39294055449993, 0.1};
Point(p16 + 30) = {25.241004, -1.409869, 0.1};
Point(p16 + 31) = {25.45610029438906, -1.39294055449993, 0.1};
Point(p16 + 32) = {25.66590020414659, -1.342572052510222, 0.1};
Point(p16 + 33) = {25.86523775920838, -1.260003733713337, 0.1};
Point(p16 + 34) = {26.04920460740539, -1.147268704146592, 0.1};
Point(p16 + 35) = {26.21327087438403, -1.007142874384035, 0.1};
Point(p16 + 36) = {26.35339670414659, -0.8430766074053846, 0.1};
Point(p16 + 37) = {26.46613173371334, -0.6591097592083789, 0.1};
Point(p16 + 38) = {26.54870005251022, -0.4597722041465924, 0.1};
Point(p16 + 39) = {26.59906855449993, -0.2499722943890625, 0.1};
Spline(16) = {11, p16 + 1, p16 + 2, p16 + 3, p16 + 4, p16 + 5, p16 + 6, p16 + 7, p16 + 8, p16 + 9, p16 + 10, p16 + 11, p16 + 12, p16 + 13, p16 + 14, p16 + 15, p16 + 16, p16 + 17, p16 + 18, p16 + 19, p16 + 20, p16 + 21, p16 + 22, p16 + 23, p16 + 24, p16 + 25, p16 + 26, p16 + 27, p16 + 28, p16 + 29, p16 + 30, p16 + 31, p16 + 32, p16 + 33, p16 + 34, p16 + 35, p16 + 36, p16 + 37, p16 + 38, p16 + 39, 11};
Line(17) = {12, 11};
p18 = newp;
Point(p18 + 1) = {26.59906855449993, 0.1802202943890621, 0};
Point(p18 + 2) = {26.54870005251022, 0.390020204146592, 0};
Point(p18 + 3) = {26.46613173371334, 0.5893577592083785, 0};
Point(p18 + 4) = {26.35339670414659, 0.7733246074053844, 0};
Point(p18 + 5) = {26.21327087438403, 0.9373908743840343, 0};
Point(p18 + 6) = {26.04920460740539, 1.077516704146592, 0};
Point(p18 + 7) = {25.86523775920838, 1.190251733713336, 0};
Point(p18 + 8) = {25.66590020414659, 1.272820052510222, 0};
Point(p18 + 9) = {25.45610029438906, 1.32318855449993, 0};
Point(p18 + 10) = {25.241004, 1.340117, 0};
Point(p18 + 11) = {25.02590770561094, 1.32318855449993, 0};
Point(p18 + 12) = {24.81610779585341, 1.272820052510222, 0};
Point(p18 + 13) = {24.61677024079162, 1.190251733713336, 0};
Point(p18 + 14) = {24.43280339259461, 1.077516704146592, 0};
Point(p18 + 15) = {24.26873712561597, 0.9373908743840346, 0};
Point(p18 + 16) = {24.12861129585341, 0.7733246074053846, 0};
Point(p18 + 17) = {24.01587626628666, 0.5893577592083787, 0};
Point(p18 + 18) = {23.93330794748978, 0.3900202041465922, 0};
Point(p18 + 19) = {23.88293944550007, 0.1802202943890623, 0};
Point(p18 + 20) = {23.866011, -0.03487599999999983, 0};
Point(p18 + 21) = {23.88293944550007, -0.249972294389062, 0};
Point(p18 + 22) = {23.93330794748978, -0.4597722041465925, 0};
Point(p18 + 23) = {24.01587626628666, -0.659109759208378, 0};
Point(p18 + 24) = {24.12861129585341, -0.8430766074053844, 0};
Point(p18 + 25) = {24.26873712561597, -1.007142874384034, 0};
Point(p18 + 26) = {24.43280339259461, -1.147268704146592, 0};
Point(p18 + 27) = {24.61677024079162, -1.260003733713336, 0};
Point(p18 + 28) = {24.81610779585341, -1.342572052510222, 0};
Point(p18 + 29) = {25.02590770561094, -1.39294055449993, 0};
Point(p18 + 30) = {25.241004, -1.409869, 0};
Point(p18 + 31) = {25.45610029438906, -1.39294055449993, 0};
Point(p18 + 32) = {25.66590020414659, -1.342572052510222, 0};
Point(p18 + 33) = {25.86523775920838, -1.260003733713337, 0};
Point(p18 + 34) = {26.04920460740539, -1.147268704146592, 0};
Point(p18 + 35) = {26.21327087438403, -1.007142874384035, 0};
Point(p18 + 36) = {26.35339670414659, -0.8430766074053846, 0};
Point(p18 + 37) = {26.46613173371334, -0.6591097592083789, 0};
Point(p18 + 38) = {26.54870005251022, -0.4597722041465924, 0};
Point(p18 + 39) = {26.59906855449993, -0.2499722943890625, 0};
Spline(18) = {12, p18 + 1, p18 + 2, p18 + 3, p18 + 4, p18 + 5, p18 + 6, p18 + 7, p18 + 8, p18 + 9, p18 + 10, p18 + 11, p18 + 12, p18 + 13, p18 + 14, p18 + 15, p18 + 16, p18 + 17, p18 + 18, p18 + 19, p18 + 20, p18 + 21, p18 + 22, p18 + 23, p18 + 24, p18 + 25, p18 + 26, p18 + 27, p18 + 28, p18 + 29, p18 + 30, p18 + 31, p18 + 32, p18 + 33, p18 + 34, p18 + 35, p18 + 36, p18 + 37, p18 + 38, p18 + 39, 12};
Line(19) = {14, 13};
Line(20) = {13, 15};
Line(21) = {16, 15};
Line(22) = {14, 16};
Line(23) = {14, 17};
Line(24) = {17, 18};
Line(25) = {13, 18};
Line(26) = {15, 19};
Line(27) = {18, 19};
Line(28) = {16, 20};
Line(29) = {20, 19};
Line(30) = {17, 20};
Curve Loop(7) = {-13, -14, 15, 14};
Surface(7) = {7};
Curve Loop(8) = {13};
Plane Surface(8) = {8};
Curve Loop(9) = {15};
Plane Surface(9) = {9};
Curve Loop(10) = {-16, -17, 18, 17};
Surface(10) = {10};
Curve Loop(11) = {16};
Plane Surface(11) = {11};
Curve Loop(12) = {18};
Plane Surface(12) = {12};
Curve Loop(13) = {-19, 22, 21, -20};
Plane Surface(13) = {13};
Curve Loop(14) = {-23, 19, 25, -24};
Plane Surface(14) = {14};
Curve Loop(15) = {-20, 25, 27, -26};
Plane Surface(15) = {15};
Curve Loop(16) = {-28, 21, 26, -29};
Plane Surface(16) = {16};
Curve Loop(17) = {-22, 23, 30, -28, -18, -15};
Plane Surface(17) = {17};
Curve Loop(18) = {-24, 30, 29, -27};
Plane Surface(18) = {18};
Surface Loop(1) = {13, 14, 15, 16, 17, 18, 10, 7, 11, 8};
Volume(1) = {1};
Surface Loop(2) = {7, 8, 9};
Volume(2) = {2};
Surface Loop(3) = {10, 11, 12};
Volume(3) = {3};
Physical Surface("WALLS") = {13, 18};
Physical Surface("LOAD") = {8, 11};
Physical Surface("BORDER") = {7, 9, 10, 12, 14, 15, 16, 17};
Physical Volume("SOLID") = {1, 2, 3};
