cl__1 = 0.107491;
cl__2 = 0.060646;
cl__3 = 0.523834;
cl__4 = 0.336286;
cl__5 = 3.713138;
cl__6 = 4.030086;
Point(9) = {7.448539999999999, 3.874261, 0.1, cl__1};
Point(10) = {7.448539999999999, 3.874261, 0, cl__1};
Point(11) = {9.161673, -0.8372660000000001, 0.1, cl__2};
Point(12) = {9.161673, -0.8372660000000001, 0, cl__2};
Point(13) = {0.348095, -3.544667, 1, cl__3};
Point(14) = {0.348095, -3.544667, 0, cl__3};
Point(15) = {0.348095, 5.471242, 1, cl__4};
Point(16) = {0.348095, 5.471242, 0, cl__4};
Point(17) = {32.765078, -3.544667, 0, cl__5};
Point(18) = {32.765078, -3.544667, 1, cl__5};
Point(19) = {32.765078, 5.471242, 1, cl__6};
Point(20) = {32.765078, 5.471242, 0, cl__6};
p13 = newp;
Point(p13 + 1) = {7.435306111124097, 4.042413501513, 0.1};
Point(p13 + 2) = {7.395930306761274, 4.206425530372591, 0.1};
Point(p13 + 3) = {7.331382149895746, 4.362258566103537, 0.1};
Point(p13 + 4) = {7.243251030372591, 4.506075482185945, 0.1};
Point(p13 + 5) = {7.133707028844888, 4.634335028844888, 0.1};
Point(p13 + 6) = {7.005447482185946, 4.743879030372591, 0.1};
Point(p13 + 7) = {6.861630566103537, 4.832010149895746, 0.1};
Point(p13 + 8) = {6.705797530372592, 4.896558306761275, 0.1};
Point(p13 + 9) = {6.541785501512999, 4.935934111124098, 0.1};
Point(p13 + 10) = {6.373633, 4.949168, 0.1};
Point(p13 + 11) = {6.205480498487001, 4.935934111124098, 0.1};
Point(p13 + 12) = {6.041468469627408, 4.896558306761275, 0.1};
Point(p13 + 13) = {5.885635433896462, 4.832010149895746, 0.1};
Point(p13 + 14) = {5.741818517814054, 4.743879030372592, 0.1};
Point(p13 + 15) = {5.613558971155111, 4.634335028844888, 0.1};
Point(p13 + 16) = {5.504014969627408, 4.506075482185945, 0.1};
Point(p13 + 17) = {5.415883850104254, 4.362258566103537, 0.1};
Point(p13 + 18) = {5.351335693238726, 4.206425530372591, 0.1};
Point(p13 + 19) = {5.311959888875903, 4.042413501513, 0.1};
Point(p13 + 20) = {5.298726, 3.874261, 0.1};
Point(p13 + 21) = {5.311959888875903, 3.706108498487001, 0.1};
Point(p13 + 22) = {5.351335693238726, 3.542096469627408, 0.1};
Point(p13 + 23) = {5.415883850104254, 3.386263433896464, 0.1};
Point(p13 + 24) = {5.504014969627408, 3.242446517814055, 0.1};
Point(p13 + 25) = {5.613558971155111, 3.114186971155112, 0.1};
Point(p13 + 26) = {5.741818517814054, 3.004642969627409, 0.1};
Point(p13 + 27) = {5.885635433896462, 2.916511850104254, 0.1};
Point(p13 + 28) = {6.041468469627408, 2.851963693238726, 0.1};
Point(p13 + 29) = {6.205480498487001, 2.812587888875902, 0.1};
Point(p13 + 30) = {6.373633, 2.799354, 0.1};
Point(p13 + 31) = {6.541785501512999, 2.812587888875902, 0.1};
Point(p13 + 32) = {6.705797530372592, 2.851963693238726, 0.1};
Point(p13 + 33) = {6.861630566103536, 2.916511850104254, 0.1};
Point(p13 + 34) = {7.005447482185945, 3.004642969627408, 0.1};
Point(p13 + 35) = {7.133707028844888, 3.114186971155112, 0.1};
Point(p13 + 36) = {7.243251030372591, 3.242446517814054, 0.1};
Point(p13 + 37) = {7.331382149895746, 3.386263433896463, 0.1};
Point(p13 + 38) = {7.395930306761274, 3.542096469627408, 0.1};
Point(p13 + 39) = {7.435306111124097, 3.706108498487001, 0.1};
Spline(13) = {9, p13 + 1, p13 + 2, p13 + 3, p13 + 4, p13 + 5, p13 + 6, p13 + 7, p13 + 8, p13 + 9, p13 + 10, p13 + 11, p13 + 12, p13 + 13, p13 + 14, p13 + 15, p13 + 16, p13 + 17, p13 + 18, p13 + 19, p13 + 20, p13 + 21, p13 + 22, p13 + 23, p13 + 24, p13 + 25, p13 + 26, p13 + 27, p13 + 28, p13 + 29, p13 + 30, p13 + 31, p13 + 32, p13 + 33, p13 + 34, p13 + 35, p13 + 36, p13 + 37, p13 + 38, p13 + 39, 9};
Line(14) = {10, 9};
p15 = newp;
Point(p15 + 1) = {7.435306111124097, 4.042413501513, 0};
Point(p15 + 2) = {7.395930306761274, 4.206425530372591, 0};
Point(p15 + 3) = {7.331382149895746, 4.362258566103537, 0};
Point(p15 + 4) = {7.243251030372591, 4.506075482185945, 0};
Point(p15 + 5) = {7.133707028844888, 4.634335028844888, 0};
Point(p15 + 6) = {7.005447482185946, 4.743879030372591, 0};
Point(p15 + 7) = {6.861630566103537, 4.832010149895746, 0};
Point(p15 + 8) = {6.705797530372592, 4.896558306761275, 0};
Point(p15 + 9) = {6.541785501512999, 4.935934111124098, 0};
Point(p15 + 10) = {6.373633, 4.949168, 0};
Point(p15 + 11) = {6.205480498487001, 4.935934111124098, 0};
Point(p15 + 12) = {6.041468469627408, 4.896558306761275, 0};
Point(p15 + 13) = {5.885635433896462, 4.832010149895746, 0};
Point(p15 + 14) = {5.741818517814054, 4.743879030372592, 0};
Point(p15 + 15) = {5.613558971155111, 4.634335028844888, 0};
Point(p15 + 16) = {5.504014969627408, 4.506075482185945, 0};
Point(p15 + 17) = {5.415883850104254, 4.362258566103537, 0};
Point(p15 + 18) = {5.351335693238726, 4.206425530372591, 0};
Point(p15 + 19) = {5.311959888875903, 4.042413501513, 0};
Point(p15 + 20) = {5.298726, 3.874261, 0};
Point(p15 + 21) = {5.311959888875903, 3.706108498487001, 0};
Point(p15 + 22) = {5.351335693238726, 3.542096469627408, 0};
Point(p15 + 23) = {5.415883850104254, 3.386263433896464, 0};
Point(p15 + 24) = {5.504014969627408, 3.242446517814055, 0};
Point(p15 + 25) = {5.613558971155111, 3.114186971155112, 0};
Point(p15 + 26) = {5.741818517814054, 3.004642969627409, 0};
Point(p15 + 27) = {5.885635433896462, 2.916511850104254, 0};
Point(p15 + 28) = {6.041468469627408, 2.851963693238726, 0};
Point(p15 + 29) = {6.205480498487001, 2.812587888875902, 0};
Point(p15 + 30) = {6.373633, 2.799354, 0};
Point(p15 + 31) = {6.541785501512999, 2.812587888875902, 0};
Point(p15 + 32) = {6.705797530372592, 2.851963693238726, 0};
Point(p15 + 33) = {6.861630566103536, 2.916511850104254, 0};
Point(p15 + 34) = {7.005447482185945, 3.004642969627408, 0};
Point(p15 + 35) = {7.133707028844888, 3.114186971155112, 0};
Point(p15 + 36) = {7.243251030372591, 3.242446517814054, 0};
Point(p15 + 37) = {7.331382149895746, 3.386263433896463, 0};
Point(p15 + 38) = {7.395930306761274, 3.542096469627408, 0};
Point(p15 + 39) = {7.435306111124097, 3.706108498487001, 0};
Spline(15) = {10, p15 + 1, p15 + 2, p15 + 3, p15 + 4, p15 + 5, p15 + 6, p15 + 7, p15 + 8, p15 + 9, p15 + 10, p15 + 11, p15 + 12, p15 + 13, p15 + 14, p15 + 15, p15 + 16, p15 + 17, p15 + 18, p15 + 19, p15 + 20, p15 + 21, p15 + 22, p15 + 23, p15 + 24, p15 + 25, p15 + 26, p15 + 27, p15 + 28, p15 + 29, p15 + 30, p15 + 31, p15 + 32, p15 + 33, p15 + 34, p15 + 35, p15 + 36, p15 + 37, p15 + 38, p15 + 39, 10};
p16 = newp;
Point(p16 + 1) = {9.154206409479031, -0.7423939721593763, 0.1};
Point(p16 + 2) = {9.131990490154941, -0.6498580085063974, 0.1};
Point(p16 + 3) = {9.0955722716919, -0.5619366515754558, 0.1};
Point(p16 + 4) = {9.045848491493603, -0.4807948169684452, 0.1};
Point(p16 + 5) = {8.984043514052299, -0.4084304859477004, 0.1};
Point(p16 + 6) = {8.911679183031556, -0.3466255085063975, 0.1};
Point(p16 + 7) = {8.830537348424544, -0.2969017283081015, 0.1};
Point(p16 + 8) = {8.742615991493603, -0.2604835098450596, 0.1};
Point(p16 + 9) = {8.650080027840623, -0.2382675905209697, 0.1};
Point(p16 + 10) = {8.555208, -0.2308009999999999, 0.1};
Point(p16 + 11) = {8.460335972159376, -0.2382675905209698, 0.1};
Point(p16 + 12) = {8.367800008506398, -0.2604835098450595, 0.1};
Point(p16 + 13) = {8.279878651575457, -0.2969017283081014, 0.1};
Point(p16 + 14) = {8.198736816968445, -0.3466255085063975, 0.1};
Point(p16 + 15) = {8.126372485947702, -0.4084304859477004, 0.1};
Point(p16 + 16) = {8.064567508506398, -0.4807948169684452, 0.1};
Point(p16 + 17) = {8.014843728308103, -0.5619366515754556, 0.1};
Point(p16 + 18) = {7.97842550984506, -0.6498580085063974, 0.1};
Point(p16 + 19) = {7.95620959052097, -0.7423939721593763, 0.1};
Point(p16 + 20) = {7.948743, -0.8372659999999998, 0.1};
Point(p16 + 21) = {7.95620959052097, -0.9321380278406235, 0.1};
Point(p16 + 22) = {7.97842550984506, -1.024673991493603, 0.1};
Point(p16 + 23) = {8.014843728308101, -1.112595348424544, 0.1};
Point(p16 + 24) = {8.064567508506398, -1.193737183031555, 0.1};
Point(p16 + 25) = {8.126372485947702, -1.2661015140523, 0.1};
Point(p16 + 26) = {8.198736816968445, -1.327906491493602, 0.1};
Point(p16 + 27) = {8.279878651575457, -1.377630271691898, 0.1};
Point(p16 + 28) = {8.367800008506398, -1.41404849015494, 0.1};
Point(p16 + 29) = {8.460335972159376, -1.43626440947903, 0.1};
Point(p16 + 30) = {8.555208, -1.443731, 0.1};
Point(p16 + 31) = {8.650080027840623, -1.43626440947903, 0.1};
Point(p16 + 32) = {8.742615991493603, -1.41404849015494, 0.1};
Point(p16 + 33) = {8.830537348424544, -1.377630271691899, 0.1};
Point(p16 + 34) = {8.911679183031556, -1.327906491493603, 0.1};
Point(p16 + 35) = {8.984043514052299, -1.2661015140523, 0.1};
Point(p16 + 36) = {9.045848491493603, -1.193737183031555, 0.1};
Point(p16 + 37) = {9.095572271691898, -1.112595348424544, 0.1};
Point(p16 + 38) = {9.131990490154941, -1.024673991493602, 0.1};
Point(p16 + 39) = {9.154206409479031, -0.9321380278406237, 0.1};
Spline(16) = {11, p16 + 1, p16 + 2, p16 + 3, p16 + 4, p16 + 5, p16 + 6, p16 + 7, p16 + 8, p16 + 9, p16 + 10, p16 + 11, p16 + 12, p16 + 13, p16 + 14, p16 + 15, p16 + 16, p16 + 17, p16 + 18, p16 + 19, p16 + 20, p16 + 21, p16 + 22, p16 + 23, p16 + 24, p16 + 25, p16 + 26, p16 + 27, p16 + 28, p16 + 29, p16 + 30, p16 + 31, p16 + 32, p16 + 33, p16 + 34, p16 + 35, p16 + 36, p16 + 37, p16 + 38, p16 + 39, 11};
Line(17) = {12, 11};
p18 = newp;
Point(p18 + 1) = {9.154206409479031, -0.7423939721593763, 0};
Point(p18 + 2) = {9.131990490154941, -0.6498580085063974, 0};
Point(p18 + 3) = {9.0955722716919, -0.5619366515754558, 0};
Point(p18 + 4) = {9.045848491493603, -0.4807948169684452, 0};
Point(p18 + 5) = {8.984043514052299, -0.4084304859477004, 0};
Point(p18 + 6) = {8.911679183031556, -0.3466255085063975, 0};
Point(p18 + 7) = {8.830537348424544, -0.2969017283081015, 0};
Point(p18 + 8) = {8.742615991493603, -0.2604835098450596, 0};
Point(p18 + 9) = {8.650080027840623, -0.2382675905209697, 0};
Point(p18 + 10) = {8.555208, -0.2308009999999999, 0};
Point(p18 + 11) = {8.460335972159376, -0.2382675905209698, 0};
Point(p18 + 12) = {8.367800008506398, -0.2604835098450595, 0};
Point(p18 + 13) = {8.279878651575457, -0.2969017283081014, 0};
Point(p18 + 14) = {8.198736816968445, -0.3466255085063975, 0};
Point(p18 + 15) = {8.126372485947702, -0.4084304859477004, 0};
Point(p18 + 16) = {8.064567508506398, -0.4807948169684452, 0};
Point(p18 + 17) = {8.014843728308103, -0.5619366515754556, 0};
Point(p18 + 18) = {7.97842550984506, -0.6498580085063974, 0};
Point(p18 + 19) = {7.95620959052097, -0.7423939721593763, 0};
Point(p18 + 20) = {7.948743, -0.8372659999999998, 0};
Point(p18 + 21) = {7.95620959052097, -0.9321380278406235, 0};
Point(p18 + 22) = {7.97842550984506, -1.024673991493603, 0};
Point(p18 + 23) = {8.014843728308101, -1.112595348424544, 0};
Point(p18 + 24) = {8.064567508506398, -1.193737183031555, 0};
Point(p18 + 25) = {8.126372485947702, -1.2661015140523, 0};
Point(p18 + 26) = {8.198736816968445, -1.327906491493602, 0};
Point(p18 + 27) = {8.279878651575457, -1.377630271691898, 0};
Point(p18 + 28) = {8.367800008506398, -1.41404849015494, 0};
Point(p18 + 29) = {8.460335972159376, -1.43626440947903, 0};
Point(p18 + 30) = {8.555208, -1.443731, 0};
Point(p18 + 31) = {8.650080027840623, -1.43626440947903, 0};
Point(p18 + 32) = {8.742615991493603, -1.41404849015494, 0};
Point(p18 + 33) = {8.830537348424544, -1.377630271691899, 0};
Point(p18 + 34) = {8.911679183031556, -1.327906491493603, 0};
Point(p18 + 35) = {8.984043514052299, -1.2661015140523, 0};
Point(p18 + 36) = {9.045848491493603, -1.193737183031555, 0};
Point(p18 + 37) = {9.095572271691898, -1.112595348424544, 0};
Point(p18 + 38) = {9.131990490154941, -1.024673991493602, 0};
Point(p18 + 39) = {9.154206409479031, -0.9321380278406237, 0};
Spline(18) = {12, p18 + 1, p18 + 2, p18 + 3, p18 + 4, p18 + 5, p18 + 6, p18 + 7, p18 + 8, p18 + 9, p18 + 10, p18 + 11, p18 + 12, p18 + 13, p18 + 14, p18 + 15, p18 + 16, p18 + 17, p18 + 18, p18 + 19, p18 + 20, p18 + 21, p18 + 22, p18 + 23, p18 + 24, p18 + 25, p18 + 26, p18 + 27, p18 + 28, p18 + 29, p18 + 30, p18 + 31, p18 + 32, p18 + 33, p18 + 34, p18 + 35, p18 + 36, p18 + 37, p18 + 38, p18 + 39, 12};
Line(19) = {14, 13};
Line(20) = {13, 15};
Line(21) = {16, 15};
Line(22) = {14, 16};
Line(23) = {14, 17};
Line(24) = {17, 18};
Line(25) = {13, 18};
Line(26) = {15, 19};
Line(27) = {18, 19};
Line(28) = {16, 20};
Line(29) = {20, 19};
Line(30) = {17, 20};
Curve Loop(7) = {-13, -14, 15, 14};
Surface(7) = {7};
Curve Loop(8) = {13};
Plane Surface(8) = {8};
Curve Loop(9) = {15};
Plane Surface(9) = {9};
Curve Loop(10) = {-16, -17, 18, 17};
Surface(10) = {10};
Curve Loop(11) = {16};
Plane Surface(11) = {11};
Curve Loop(12) = {18};
Plane Surface(12) = {12};
Curve Loop(13) = {-19, 22, 21, -20};
Plane Surface(13) = {13};
Curve Loop(14) = {-23, 19, 25, -24};
Plane Surface(14) = {14};
Curve Loop(15) = {-20, 25, 27, -26};
Plane Surface(15) = {15};
Curve Loop(16) = {-28, 21, 26, -29};
Plane Surface(16) = {16};
Curve Loop(17) = {-22, 23, 30, -28, -18, -15};
Plane Surface(17) = {17};
Curve Loop(18) = {-24, 30, 29, -27};
Plane Surface(18) = {18};
Surface Loop(1) = {13, 14, 15, 16, 17, 18, 10, 7, 11, 8};
Volume(1) = {1};
Surface Loop(2) = {7, 8, 9};
Volume(2) = {2};
Surface Loop(3) = {10, 11, 12};
Volume(3) = {3};
Physical Surface("WALLS") = {13, 18};
Physical Surface("LOAD") = {8, 11};
Physical Surface("BORDER") = {7, 9, 10, 12, 14, 15, 16, 17};
Physical Volume("SOLID") = {1, 2, 3};
