cl__1 = 0.053117;
cl__2 = 0.109519;
cl__3 = 4.558447;
cl__4 = 5.010267;
cl__5 = 0.114453;
cl__6 = 0.516321;
Point(9) = {38.230024, -1.840621, 0.1, cl__1};
Point(10) = {38.230024, -1.840621, 0, cl__1};
Point(11) = {23.295126, -0.9258750000000002, 0.1, cl__2};
Point(12) = {23.295126, -0.9258750000000002, 0, cl__2};
Point(13) = {0.685493, -3.392459, 1, cl__3};
Point(14) = {0.685493, -3.392459, 0, cl__3};
Point(15) = {0.685493, 4.991529999999999, 1, cl__4};
Point(16) = {0.685493, 4.991529999999999, 0, cl__4};
Point(17) = {38.880294, -3.392459, 0, cl__5};
Point(18) = {38.880294, -3.392459, 1, cl__5};
Point(19) = {38.880294, 4.991529999999999, 1, cl__6};
Point(20) = {38.880294, 4.991529999999999, 0, cl__6};
p13 = newp;
Point(p13 + 1) = {38.22348437893894, -1.757527235901186, 0.1};
Point(p13 + 2) = {38.20402654293004, -1.676479516046876, 0.1};
Point(p13 + 3) = {38.17212960847271, -1.599473504281846, 0.1};
Point(p13 + 4) = {38.12857898395312, -1.52840534418405, 0.1};
Point(p13 + 5) = {38.0744470302832, -1.465024969716798, 0.1};
Point(p13 + 6) = {38.01106665581595, -1.410893016046876, 0.1};
Point(p13 + 7) = {37.93999849571815, -1.367342391527292, 0.1};
Point(p13 + 8) = {37.86299248395312, -1.335445457069954, 0.1};
Point(p13 + 9) = {37.78194476409881, -1.315987621061059, 0.1};
Point(p13 + 10) = {37.698851, -1.309448, 0.1};
Point(p13 + 11) = {37.61575723590119, -1.315987621061059, 0.1};
Point(p13 + 12) = {37.53470951604687, -1.335445457069954, 0.1};
Point(p13 + 13) = {37.45770350428185, -1.367342391527292, 0.1};
Point(p13 + 14) = {37.38663534418405, -1.410893016046876, 0.1};
Point(p13 + 15) = {37.32325496971679, -1.465024969716798, 0.1};
Point(p13 + 16) = {37.26912301604688, -1.52840534418405, 0.1};
Point(p13 + 17) = {37.22557239152729, -1.599473504281846, 0.1};
Point(p13 + 18) = {37.19367545706995, -1.676479516046876, 0.1};
Point(p13 + 19) = {37.17421762106105, -1.757527235901186, 0.1};
Point(p13 + 20) = {37.167678, -1.840621, 0.1};
Point(p13 + 21) = {37.17421762106105, -1.923714764098815, 0.1};
Point(p13 + 22) = {37.19367545706995, -2.004762483953124, 0.1};
Point(p13 + 23) = {37.22557239152729, -2.081768495718154, 0.1};
Point(p13 + 24) = {37.26912301604688, -2.15283665581595, 0.1};
Point(p13 + 25) = {37.32325496971679, -2.216217030283202, 0.1};
Point(p13 + 26) = {37.38663534418405, -2.270348983953124, 0.1};
Point(p13 + 27) = {37.45770350428185, -2.313899608472708, 0.1};
Point(p13 + 28) = {37.53470951604687, -2.345796542930046, 0.1};
Point(p13 + 29) = {37.61575723590119, -2.365254378938941, 0.1};
Point(p13 + 30) = {37.698851, -2.371794, 0.1};
Point(p13 + 31) = {37.78194476409881, -2.365254378938941, 0.1};
Point(p13 + 32) = {37.86299248395312, -2.345796542930046, 0.1};
Point(p13 + 33) = {37.93999849571815, -2.313899608472708, 0.1};
Point(p13 + 34) = {38.01106665581595, -2.270348983953124, 0.1};
Point(p13 + 35) = {38.0744470302832, -2.216217030283202, 0.1};
Point(p13 + 36) = {38.12857898395312, -2.15283665581595, 0.1};
Point(p13 + 37) = {38.17212960847271, -2.081768495718154, 0.1};
Point(p13 + 38) = {38.20402654293004, -2.004762483953124, 0.1};
Point(p13 + 39) = {38.22348437893894, -1.923714764098815, 0.1};
Spline(13) = {9, p13 + 1, p13 + 2, p13 + 3, p13 + 4, p13 + 5, p13 + 6, p13 + 7, p13 + 8, p13 + 9, p13 + 10, p13 + 11, p13 + 12, p13 + 13, p13 + 14, p13 + 15, p13 + 16, p13 + 17, p13 + 18, p13 + 19, p13 + 20, p13 + 21, p13 + 22, p13 + 23, p13 + 24, p13 + 25, p13 + 26, p13 + 27, p13 + 28, p13 + 29, p13 + 30, p13 + 31, p13 + 32, p13 + 33, p13 + 34, p13 + 35, p13 + 36, p13 + 37, p13 + 38, p13 + 39, 9};
Line(14) = {10, 9};
p15 = newp;
Point(p15 + 1) = {38.22348437893894, -1.757527235901186, 0};
Point(p15 + 2) = {38.20402654293004, -1.676479516046876, 0};
Point(p15 + 3) = {38.17212960847271, -1.599473504281846, 0};
Point(p15 + 4) = {38.12857898395312, -1.52840534418405, 0};
Point(p15 + 5) = {38.0744470302832, -1.465024969716798, 0};
Point(p15 + 6) = {38.01106665581595, -1.410893016046876, 0};
Point(p15 + 7) = {37.93999849571815, -1.367342391527292, 0};
Point(p15 + 8) = {37.86299248395312, -1.335445457069954, 0};
Point(p15 + 9) = {37.78194476409881, -1.315987621061059, 0};
Point(p15 + 10) = {37.698851, -1.309448, 0};
Point(p15 + 11) = {37.61575723590119, -1.315987621061059, 0};
Point(p15 + 12) = {37.53470951604687, -1.335445457069954, 0};
Point(p15 + 13) = {37.45770350428185, -1.367342391527292, 0};
Point(p15 + 14) = {37.38663534418405, -1.410893016046876, 0};
Point(p15 + 15) = {37.32325496971679, -1.465024969716798, 0};
Point(p15 + 16) = {37.26912301604688, -1.52840534418405, 0};
Point(p15 + 17) = {37.22557239152729, -1.599473504281846, 0};
Point(p15 + 18) = {37.19367545706995, -1.676479516046876, 0};
Point(p15 + 19) = {37.17421762106105, -1.757527235901186, 0};
Point(p15 + 20) = {37.167678, -1.840621, 0};
Point(p15 + 21) = {37.17421762106105, -1.923714764098815, 0};
Point(p15 + 22) = {37.19367545706995, -2.004762483953124, 0};
Point(p15 + 23) = {37.22557239152729, -2.081768495718154, 0};
Point(p15 + 24) = {37.26912301604688, -2.15283665581595, 0};
Point(p15 + 25) = {37.32325496971679, -2.216217030283202, 0};
Point(p15 + 26) = {37.38663534418405, -2.270348983953124, 0};
Point(p15 + 27) = {37.45770350428185, -2.313899608472708, 0};
Point(p15 + 28) = {37.53470951604687, -2.345796542930046, 0};
Point(p15 + 29) = {37.61575723590119, -2.365254378938941, 0};
Point(p15 + 30) = {37.698851, -2.371794, 0};
Point(p15 + 31) = {37.78194476409881, -2.365254378938941, 0};
Point(p15 + 32) = {37.86299248395312, -2.345796542930046, 0};
Point(p15 + 33) = {37.93999849571815, -2.313899608472708, 0};
Point(p15 + 34) = {38.01106665581595, -2.270348983953124, 0};
Point(p15 + 35) = {38.0744470302832, -2.216217030283202, 0};
Point(p15 + 36) = {38.12857898395312, -2.15283665581595, 0};
Point(p15 + 37) = {38.17212960847271, -2.081768495718154, 0};
Point(p15 + 38) = {38.20402654293004, -2.004762483953124, 0};
Point(p15 + 39) = {38.22348437893894, -1.923714764098815, 0};
Spline(15) = {10, p15 + 1, p15 + 2, p15 + 3, p15 + 4, p15 + 5, p15 + 6, p15 + 7, p15 + 8, p15 + 9, p15 + 10, p15 + 11, p15 + 12, p15 + 13, p15 + 14, p15 + 15, p15 + 16, p15 + 17, p15 + 18, p15 + 19, p15 + 20, p15 + 21, p15 + 22, p15 + 23, p15 + 24, p15 + 25, p15 + 26, p15 + 27, p15 + 28, p15 + 29, p15 + 30, p15 + 31, p15 + 32, p15 + 33, p15 + 34, p15 + 35, p15 + 36, p15 + 37, p15 + 38, p15 + 39, 10};
p16 = newp;
Point(p16 + 1) = {23.28164236911307, -0.7545492253636594, 0.1};
Point(p16 + 2) = {23.24152348819432, -0.5874420598965127, 0.1};
Point(p16 + 3) = {23.17575721723891, -0.4286682366092464, 0.1};
Point(p16 + 4) = {23.08596294010349, -0.2821372939713018, 0.1};
Point(p16 + 5) = {22.97435168990125, -0.1514573100987427, 0.1};
Point(p16 + 6) = {22.8436717060287, -0.03984605989651269, 0.1};
Point(p16 + 7) = {22.69714076339075, 0.04994821723890686, 0.1};
Point(p16 + 8) = {22.53836694010349, 0.1157144881943217, 0.1};
Point(p16 + 9) = {22.37125977463634, 0.15583336911307, 0.1};
Point(p16 + 10) = {22.199934, 0.1693169999999999, 0.1};
Point(p16 + 11) = {22.02860822536366, 0.15583336911307, 0.1};
Point(p16 + 12) = {21.86150105989651, 0.115714488194322, 0.1};
Point(p16 + 13) = {21.70272723660925, 0.04994821723890697, 0.1};
Point(p16 + 14) = {21.5561962939713, -0.03984605989651258, 0.1};
Point(p16 + 15) = {21.42551631009874, -0.1514573100987426, 0.1};
Point(p16 + 16) = {21.31390505989651, -0.2821372939713017, 0.1};
Point(p16 + 17) = {21.22411078276109, -0.4286682366092462, 0.1};
Point(p16 + 18) = {21.15834451180568, -0.5874420598965124, 0.1};
Point(p16 + 19) = {21.11822563088693, -0.7545492253636594, 0.1};
Point(p16 + 20) = {21.104742, -0.9258749999999999, 0.1};
Point(p16 + 21) = {21.11822563088693, -1.09720077463634, 0.1};
Point(p16 + 22) = {21.15834451180568, -1.264307940103488, 0.1};
Point(p16 + 23) = {21.22411078276109, -1.423081763390753, 0.1};
Point(p16 + 24) = {21.31390505989651, -1.569612706028698, 0.1};
Point(p16 + 25) = {21.42551631009874, -1.700292689901257, 0.1};
Point(p16 + 26) = {21.5561962939713, -1.811903940103487, 0.1};
Point(p16 + 27) = {21.70272723660925, -1.901698217238907, 0.1};
Point(p16 + 28) = {21.86150105989651, -1.967464488194322, 0.1};
Point(p16 + 29) = {22.02860822536366, -2.00758336911307, 0.1};
Point(p16 + 30) = {22.199934, -2.021067, 0.1};
Point(p16 + 31) = {22.37125977463634, -2.00758336911307, 0.1};
Point(p16 + 32) = {22.53836694010349, -1.967464488194322, 0.1};
Point(p16 + 33) = {22.69714076339075, -1.901698217238907, 0.1};
Point(p16 + 34) = {22.8436717060287, -1.811903940103488, 0.1};
Point(p16 + 35) = {22.97435168990125, -1.700292689901258, 0.1};
Point(p16 + 36) = {23.08596294010349, -1.569612706028698, 0.1};
Point(p16 + 37) = {23.17575721723891, -1.423081763390754, 0.1};
Point(p16 + 38) = {23.24152348819432, -1.264307940103488, 0.1};
Point(p16 + 39) = {23.28164236911307, -1.097200774636341, 0.1};
Spline(16) = {11, p16 + 1, p16 + 2, p16 + 3, p16 + 4, p16 + 5, p16 + 6, p16 + 7, p16 + 8, p16 + 9, p16 + 10, p16 + 11, p16 + 12, p16 + 13, p16 + 14, p16 + 15, p16 + 16, p16 + 17, p16 + 18, p16 + 19, p16 + 20, p16 + 21, p16 + 22, p16 + 23, p16 + 24, p16 + 25, p16 + 26, p16 + 27, p16 + 28, p16 + 29, p16 + 30, p16 + 31, p16 + 32, p16 + 33, p16 + 34, p16 + 35, p16 + 36, p16 + 37, p16 + 38, p16 + 39, 11};
Line(17) = {12, 11};
p18 = newp;
Point(p18 + 1) = {23.28164236911307, -0.7545492253636594, 0};
Point(p18 + 2) = {23.24152348819432, -0.5874420598965127, 0};
Point(p18 + 3) = {23.17575721723891, -0.4286682366092464, 0};
Point(p18 + 4) = {23.08596294010349, -0.2821372939713018, 0};
Point(p18 + 5) = {22.97435168990125, -0.1514573100987427, 0};
Point(p18 + 6) = {22.8436717060287, -0.03984605989651269, 0};
Point(p18 + 7) = {22.69714076339075, 0.04994821723890686, 0};
Point(p18 + 8) = {22.53836694010349, 0.1157144881943217, 0};
Point(p18 + 9) = {22.37125977463634, 0.15583336911307, 0};
Point(p18 + 10) = {22.199934, 0.1693169999999999, 0};
Point(p18 + 11) = {22.02860822536366, 0.15583336911307, 0};
Point(p18 + 12) = {21.86150105989651, 0.115714488194322, 0};
Point(p18 + 13) = {21.70272723660925, 0.04994821723890697, 0};
Point(p18 + 14) = {21.5561962939713, -0.03984605989651258, 0};
Point(p18 + 15) = {21.42551631009874, -0.1514573100987426, 0};
Point(p18 + 16) = {21.31390505989651, -0.2821372939713017, 0};
Point(p18 + 17) = {21.22411078276109, -0.4286682366092462, 0};
Point(p18 + 18) = {21.15834451180568, -0.5874420598965124, 0};
Point(p18 + 19) = {21.11822563088693, -0.7545492253636594, 0};
Point(p18 + 20) = {21.104742, -0.9258749999999999, 0};
Point(p18 + 21) = {21.11822563088693, -1.09720077463634, 0};
Point(p18 + 22) = {21.15834451180568, -1.264307940103488, 0};
Point(p18 + 23) = {21.22411078276109, -1.423081763390753, 0};
Point(p18 + 24) = {21.31390505989651, -1.569612706028698, 0};
Point(p18 + 25) = {21.42551631009874, -1.700292689901257, 0};
Point(p18 + 26) = {21.5561962939713, -1.811903940103487, 0};
Point(p18 + 27) = {21.70272723660925, -1.901698217238907, 0};
Point(p18 + 28) = {21.86150105989651, -1.967464488194322, 0};
Point(p18 + 29) = {22.02860822536366, -2.00758336911307, 0};
Point(p18 + 30) = {22.199934, -2.021067, 0};
Point(p18 + 31) = {22.37125977463634, -2.00758336911307, 0};
Point(p18 + 32) = {22.53836694010349, -1.967464488194322, 0};
Point(p18 + 33) = {22.69714076339075, -1.901698217238907, 0};
Point(p18 + 34) = {22.8436717060287, -1.811903940103488, 0};
Point(p18 + 35) = {22.97435168990125, -1.700292689901258, 0};
Point(p18 + 36) = {23.08596294010349, -1.569612706028698, 0};
Point(p18 + 37) = {23.17575721723891, -1.423081763390754, 0};
Point(p18 + 38) = {23.24152348819432, -1.264307940103488, 0};
Point(p18 + 39) = {23.28164236911307, -1.097200774636341, 0};
Spline(18) = {12, p18 + 1, p18 + 2, p18 + 3, p18 + 4, p18 + 5, p18 + 6, p18 + 7, p18 + 8, p18 + 9, p18 + 10, p18 + 11, p18 + 12, p18 + 13, p18 + 14, p18 + 15, p18 + 16, p18 + 17, p18 + 18, p18 + 19, p18 + 20, p18 + 21, p18 + 22, p18 + 23, p18 + 24, p18 + 25, p18 + 26, p18 + 27, p18 + 28, p18 + 29, p18 + 30, p18 + 31, p18 + 32, p18 + 33, p18 + 34, p18 + 35, p18 + 36, p18 + 37, p18 + 38, p18 + 39, 12};
Line(19) = {14, 13};
Line(20) = {13, 15};
Line(21) = {16, 15};
Line(22) = {14, 16};
Line(23) = {14, 17};
Line(24) = {17, 18};
Line(25) = {13, 18};
Line(26) = {15, 19};
Line(27) = {18, 19};
Line(28) = {16, 20};
Line(29) = {20, 19};
Line(30) = {17, 20};
Curve Loop(7) = {-13, -14, 15, 14};
Surface(7) = {7};
Curve Loop(8) = {13};
Plane Surface(8) = {8};
Curve Loop(9) = {15};
Plane Surface(9) = {9};
Curve Loop(10) = {-16, -17, 18, 17};
Surface(10) = {10};
Curve Loop(11) = {16};
Plane Surface(11) = {11};
Curve Loop(12) = {18};
Plane Surface(12) = {12};
Curve Loop(13) = {-19, 22, 21, -20};
Plane Surface(13) = {13};
Curve Loop(14) = {-23, 19, 25, -24};
Plane Surface(14) = {14};
Curve Loop(15) = {-20, 25, 27, -26};
Plane Surface(15) = {15};
Curve Loop(16) = {-28, 21, 26, -29};
Plane Surface(16) = {16};
Curve Loop(17) = {-22, 23, 30, -28, -15, -18};
Plane Surface(17) = {17};
Curve Loop(18) = {-24, 30, 29, -27};
Plane Surface(18) = {18};
Surface Loop(1) = {13, 14, 15, 16, 17, 18, 7, 10, 8, 11};
Volume(1) = {1};
Surface Loop(2) = {7, 8, 9};
Volume(2) = {2};
Surface Loop(3) = {10, 11, 12};
Volume(3) = {3};
Physical Surface("WALLS") = {13, 18};
Physical Surface("LOAD") = {8, 11};
Physical Surface("BORDER") = {7, 9, 10, 12, 14, 15, 16, 17};
Physical Volume("SOLID") = {1, 2, 3};
