cl__1 = 0.095875;
cl__2 = 0.086177;
cl__3 = 2.644751;
cl__4 = 2.976781;
cl__5 = 0.704712;
cl__6 = 0.473856;
Point(9) = {16.481637, -0.7619480000000002, 0.1, cl__1};
Point(10) = {16.481637, -0.7619480000000002, 0, cl__1};
Point(11) = {32.867717, 2.475176, 0.1, cl__2};
Point(12) = {32.867717, 2.475176, 0, cl__2};
Point(13) = {0.085234, -3.828368, 1, cl__3};
Point(14) = {0.085234, -3.828368, 0, cl__3};
Point(15) = {0.085234, 4.573241, 1, cl__4};
Point(16) = {0.085234, 4.573241, 0, cl__4};
Point(17) = {37.548452, -3.828368, 0, cl__5};
Point(18) = {37.548452, -3.828368, 1, cl__5};
Point(19) = {37.548452, 4.573241, 1, cl__6};
Point(20) = {37.548452, 4.573241, 0, cl__6};
p13 = newp;
Point(p13 + 1) = {16.46983315961061, -0.6119659873392835, 0.1};
Point(p13 + 2) = {16.43471228816753, -0.4656770295920361, 0.1};
Point(p13 + 3) = {16.37713917808517, -0.3266832464032103, 0.1};
Point(p13 + 4) = {16.29853147040796, -0.1984071260088345, 0.1};
Point(p13 + 5) = {16.20082474778295, -0.08400725221705407, 0.1};
Point(p13 + 6) = {16.08642487399117, 0.01369947040796393, 0.1};
Point(p13 + 7) = {15.95814875359679, 0.09230717808517019, 0.1};
Point(p13 + 8) = {15.81915497040796, 0.1498802881675273, 0.1};
Point(p13 + 9) = {15.67286601266072, 0.1850011596106101, 0.1};
Point(p13 + 10) = {15.522884, 0.196805, 0.1};
Point(p13 + 11) = {15.37290198733928, 0.18500115961061, 0.1};
Point(p13 + 12) = {15.22661302959204, 0.1498802881675274, 0.1};
Point(p13 + 13) = {15.08761924640321, 0.0923071780851703, 0.1};
Point(p13 + 14) = {14.95934312600883, 0.01369947040796404, 0.1};
Point(p13 + 15) = {14.84494325221705, -0.08400725221705396, 0.1};
Point(p13 + 16) = {14.74723652959204, -0.1984071260088344, 0.1};
Point(p13 + 17) = {14.66862882191483, -0.3266832464032102, 0.1};
Point(p13 + 18) = {14.61105571183247, -0.4656770295920359, 0.1};
Point(p13 + 19) = {14.57593484038939, -0.6119659873392834, 0.1};
Point(p13 + 20) = {14.564131, -0.7619479999999998, 0.1};
Point(p13 + 21) = {14.57593484038939, -0.9119300126607164, 0.1};
Point(p13 + 22) = {14.61105571183247, -1.058218970407964, 0.1};
Point(p13 + 23) = {14.66862882191483, -1.197212753596789, 0.1};
Point(p13 + 24) = {14.74723652959204, -1.325488873991165, 0.1};
Point(p13 + 25) = {14.84494325221705, -1.439888747782946, 0.1};
Point(p13 + 26) = {14.95934312600883, -1.537595470407964, 0.1};
Point(p13 + 27) = {15.08761924640321, -1.61620317808517, 0.1};
Point(p13 + 28) = {15.22661302959204, -1.673776288167527, 0.1};
Point(p13 + 29) = {15.37290198733928, -1.70889715961061, 0.1};
Point(p13 + 30) = {15.522884, -1.720701, 0.1};
Point(p13 + 31) = {15.67286601266072, -1.70889715961061, 0.1};
Point(p13 + 32) = {15.81915497040796, -1.673776288167527, 0.1};
Point(p13 + 33) = {15.95814875359679, -1.61620317808517, 0.1};
Point(p13 + 34) = {16.08642487399116, -1.537595470407964, 0.1};
Point(p13 + 35) = {16.20082474778295, -1.439888747782946, 0.1};
Point(p13 + 36) = {16.29853147040796, -1.325488873991166, 0.1};
Point(p13 + 37) = {16.37713917808517, -1.19721275359679, 0.1};
Point(p13 + 38) = {16.43471228816753, -1.058218970407964, 0.1};
Point(p13 + 39) = {16.46983315961061, -0.9119300126607166, 0.1};
Spline(13) = {9, p13 + 1, p13 + 2, p13 + 3, p13 + 4, p13 + 5, p13 + 6, p13 + 7, p13 + 8, p13 + 9, p13 + 10, p13 + 11, p13 + 12, p13 + 13, p13 + 14, p13 + 15, p13 + 16, p13 + 17, p13 + 18, p13 + 19, p13 + 20, p13 + 21, p13 + 22, p13 + 23, p13 + 24, p13 + 25, p13 + 26, p13 + 27, p13 + 28, p13 + 29, p13 + 30, p13 + 31, p13 + 32, p13 + 33, p13 + 34, p13 + 35, p13 + 36, p13 + 37, p13 + 38, p13 + 39, 9};
Line(14) = {10, 9};
p15 = newp;
Point(p15 + 1) = {16.46983315961061, -0.6119659873392835, 0};
Point(p15 + 2) = {16.43471228816753, -0.4656770295920361, 0};
Point(p15 + 3) = {16.37713917808517, -0.3266832464032103, 0};
Point(p15 + 4) = {16.29853147040796, -0.1984071260088345, 0};
Point(p15 + 5) = {16.20082474778295, -0.08400725221705407, 0};
Point(p15 + 6) = {16.08642487399117, 0.01369947040796393, 0};
Point(p15 + 7) = {15.95814875359679, 0.09230717808517019, 0};
Point(p15 + 8) = {15.81915497040796, 0.1498802881675273, 0};
Point(p15 + 9) = {15.67286601266072, 0.1850011596106101, 0};
Point(p15 + 10) = {15.522884, 0.196805, 0};
Point(p15 + 11) = {15.37290198733928, 0.18500115961061, 0};
Point(p15 + 12) = {15.22661302959204, 0.1498802881675274, 0};
Point(p15 + 13) = {15.08761924640321, 0.0923071780851703, 0};
Point(p15 + 14) = {14.95934312600883, 0.01369947040796404, 0};
Point(p15 + 15) = {14.84494325221705, -0.08400725221705396, 0};
Point(p15 + 16) = {14.74723652959204, -0.1984071260088344, 0};
Point(p15 + 17) = {14.66862882191483, -0.3266832464032102, 0};
Point(p15 + 18) = {14.61105571183247, -0.4656770295920359, 0};
Point(p15 + 19) = {14.57593484038939, -0.6119659873392834, 0};
Point(p15 + 20) = {14.564131, -0.7619479999999998, 0};
Point(p15 + 21) = {14.57593484038939, -0.9119300126607164, 0};
Point(p15 + 22) = {14.61105571183247, -1.058218970407964, 0};
Point(p15 + 23) = {14.66862882191483, -1.197212753596789, 0};
Point(p15 + 24) = {14.74723652959204, -1.325488873991165, 0};
Point(p15 + 25) = {14.84494325221705, -1.439888747782946, 0};
Point(p15 + 26) = {14.95934312600883, -1.537595470407964, 0};
Point(p15 + 27) = {15.08761924640321, -1.61620317808517, 0};
Point(p15 + 28) = {15.22661302959204, -1.673776288167527, 0};
Point(p15 + 29) = {15.37290198733928, -1.70889715961061, 0};
Point(p15 + 30) = {15.522884, -1.720701, 0};
Point(p15 + 31) = {15.67286601266072, -1.70889715961061, 0};
Point(p15 + 32) = {15.81915497040796, -1.673776288167527, 0};
Point(p15 + 33) = {15.95814875359679, -1.61620317808517, 0};
Point(p15 + 34) = {16.08642487399116, -1.537595470407964, 0};
Point(p15 + 35) = {16.20082474778295, -1.439888747782946, 0};
Point(p15 + 36) = {16.29853147040796, -1.325488873991166, 0};
Point(p15 + 37) = {16.37713917808517, -1.19721275359679, 0};
Point(p15 + 38) = {16.43471228816753, -1.058218970407964, 0};
Point(p15 + 39) = {16.46983315961061, -0.9119300126607166, 0};
Spline(15) = {10, p15 + 1, p15 + 2, p15 + 3, p15 + 4, p15 + 5, p15 + 6, p15 + 7, p15 + 8, p15 + 9, p15 + 10, p15 + 11, p15 + 12, p15 + 13, p15 + 14, p15 + 15, p15 + 16, p15 + 17, p15 + 18, p15 + 19, p15 + 20, p15 + 21, p15 + 22, p15 + 23, p15 + 24, p15 + 25, p15 + 26, p15 + 27, p15 + 28, p15 + 29, p15 + 30, p15 + 31, p15 + 32, p15 + 33, p15 + 34, p15 + 35, p15 + 36, p15 + 37, p15 + 38, p15 + 39, 10};
p16 = newp;
Point(p16 + 1) = {32.85710713202803, 2.60998715467558, 0.1};
Point(p16 + 2) = {32.82553877827374, 2.741478811310476, 0.1};
Point(p16 + 3) = {32.77378925637591, 2.866413208922548, 0.1};
Point(p16 + 4) = {32.70313281131047, 2.981714048009094, 0.1};
Point(p16 + 5) = {32.61530923925026, 3.084542239250256, 0.1};
Point(p16 + 6) = {32.51248104800909, 3.172365811310476, 0.1};
Point(p16 + 7) = {32.39718020892255, 3.243022256375906, 0.1};
Point(p16 + 8) = {32.27224581131048, 3.29477177827374, 0.1};
Point(p16 + 9) = {32.14075415467558, 3.326340132028034, 0.1};
Point(p16 + 10) = {32.005943, 3.33695, 0.1};
Point(p16 + 11) = {31.87113184532442, 3.326340132028034, 0.1};
Point(p16 + 12) = {31.73964018868953, 3.29477177827374, 0.1};
Point(p16 + 13) = {31.61470579107745, 3.243022256375907, 0.1};
Point(p16 + 14) = {31.49940495199091, 3.172365811310476, 0.1};
Point(p16 + 15) = {31.39657676074975, 3.084542239250256, 0.1};
Point(p16 + 16) = {31.30875318868953, 2.981714048009094, 0.1};
Point(p16 + 17) = {31.23809674362409, 2.866413208922548, 0.1};
Point(p16 + 18) = {31.18634722172626, 2.741478811310476, 0.1};
Point(p16 + 19) = {31.15477886797197, 2.60998715467558, 0.1};
Point(p16 + 20) = {31.144169, 2.475176, 0.1};
Point(p16 + 21) = {31.15477886797197, 2.34036484532442, 0.1};
Point(p16 + 22) = {31.18634722172626, 2.208873188689524, 0.1};
Point(p16 + 23) = {31.23809674362409, 2.083938791077452, 0.1};
Point(p16 + 24) = {31.30875318868953, 1.968637951990906, 0.1};
Point(p16 + 25) = {31.39657676074975, 1.865809760749744, 0.1};
Point(p16 + 26) = {31.49940495199091, 1.777986188689524, 0.1};
Point(p16 + 27) = {31.61470579107745, 1.707329743624093, 0.1};
Point(p16 + 28) = {31.73964018868953, 1.65558022172626, 0.1};
Point(p16 + 29) = {31.87113184532442, 1.624011867971966, 0.1};
Point(p16 + 30) = {32.005943, 1.613402, 0.1};
Point(p16 + 31) = {32.14075415467558, 1.624011867971966, 0.1};
Point(p16 + 32) = {32.27224581131048, 1.65558022172626, 0.1};
Point(p16 + 33) = {32.39718020892255, 1.707329743624093, 0.1};
Point(p16 + 34) = {32.51248104800909, 1.777986188689524, 0.1};
Point(p16 + 35) = {32.61530923925026, 1.865809760749744, 0.1};
Point(p16 + 36) = {32.70313281131047, 1.968637951990906, 0.1};
Point(p16 + 37) = {32.77378925637591, 2.083938791077451, 0.1};
Point(p16 + 38) = {32.82553877827374, 2.208873188689524, 0.1};
Point(p16 + 39) = {32.85710713202803, 2.340364845324419, 0.1};
Spline(16) = {11, p16 + 1, p16 + 2, p16 + 3, p16 + 4, p16 + 5, p16 + 6, p16 + 7, p16 + 8, p16 + 9, p16 + 10, p16 + 11, p16 + 12, p16 + 13, p16 + 14, p16 + 15, p16 + 16, p16 + 17, p16 + 18, p16 + 19, p16 + 20, p16 + 21, p16 + 22, p16 + 23, p16 + 24, p16 + 25, p16 + 26, p16 + 27, p16 + 28, p16 + 29, p16 + 30, p16 + 31, p16 + 32, p16 + 33, p16 + 34, p16 + 35, p16 + 36, p16 + 37, p16 + 38, p16 + 39, 11};
Line(17) = {12, 11};
p18 = newp;
Point(p18 + 1) = {32.85710713202803, 2.60998715467558, 0};
Point(p18 + 2) = {32.82553877827374, 2.741478811310476, 0};
Point(p18 + 3) = {32.77378925637591, 2.866413208922548, 0};
Point(p18 + 4) = {32.70313281131047, 2.981714048009094, 0};
Point(p18 + 5) = {32.61530923925026, 3.084542239250256, 0};
Point(p18 + 6) = {32.51248104800909, 3.172365811310476, 0};
Point(p18 + 7) = {32.39718020892255, 3.243022256375906, 0};
Point(p18 + 8) = {32.27224581131048, 3.29477177827374, 0};
Point(p18 + 9) = {32.14075415467558, 3.326340132028034, 0};
Point(p18 + 10) = {32.005943, 3.33695, 0};
Point(p18 + 11) = {31.87113184532442, 3.326340132028034, 0};
Point(p18 + 12) = {31.73964018868953, 3.29477177827374, 0};
Point(p18 + 13) = {31.61470579107745, 3.243022256375907, 0};
Point(p18 + 14) = {31.49940495199091, 3.172365811310476, 0};
Point(p18 + 15) = {31.39657676074975, 3.084542239250256, 0};
Point(p18 + 16) = {31.30875318868953, 2.981714048009094, 0};
Point(p18 + 17) = {31.23809674362409, 2.866413208922548, 0};
Point(p18 + 18) = {31.18634722172626, 2.741478811310476, 0};
Point(p18 + 19) = {31.15477886797197, 2.60998715467558, 0};
Point(p18 + 20) = {31.144169, 2.475176, 0};
Point(p18 + 21) = {31.15477886797197, 2.34036484532442, 0};
Point(p18 + 22) = {31.18634722172626, 2.208873188689524, 0};
Point(p18 + 23) = {31.23809674362409, 2.083938791077452, 0};
Point(p18 + 24) = {31.30875318868953, 1.968637951990906, 0};
Point(p18 + 25) = {31.39657676074975, 1.865809760749744, 0};
Point(p18 + 26) = {31.49940495199091, 1.777986188689524, 0};
Point(p18 + 27) = {31.61470579107745, 1.707329743624093, 0};
Point(p18 + 28) = {31.73964018868953, 1.65558022172626, 0};
Point(p18 + 29) = {31.87113184532442, 1.624011867971966, 0};
Point(p18 + 30) = {32.005943, 1.613402, 0};
Point(p18 + 31) = {32.14075415467558, 1.624011867971966, 0};
Point(p18 + 32) = {32.27224581131048, 1.65558022172626, 0};
Point(p18 + 33) = {32.39718020892255, 1.707329743624093, 0};
Point(p18 + 34) = {32.51248104800909, 1.777986188689524, 0};
Point(p18 + 35) = {32.61530923925026, 1.865809760749744, 0};
Point(p18 + 36) = {32.70313281131047, 1.968637951990906, 0};
Point(p18 + 37) = {32.77378925637591, 2.083938791077451, 0};
Point(p18 + 38) = {32.82553877827374, 2.208873188689524, 0};
Point(p18 + 39) = {32.85710713202803, 2.340364845324419, 0};
Spline(18) = {12, p18 + 1, p18 + 2, p18 + 3, p18 + 4, p18 + 5, p18 + 6, p18 + 7, p18 + 8, p18 + 9, p18 + 10, p18 + 11, p18 + 12, p18 + 13, p18 + 14, p18 + 15, p18 + 16, p18 + 17, p18 + 18, p18 + 19, p18 + 20, p18 + 21, p18 + 22, p18 + 23, p18 + 24, p18 + 25, p18 + 26, p18 + 27, p18 + 28, p18 + 29, p18 + 30, p18 + 31, p18 + 32, p18 + 33, p18 + 34, p18 + 35, p18 + 36, p18 + 37, p18 + 38, p18 + 39, 12};
Line(19) = {14, 13};
Line(20) = {13, 15};
Line(21) = {16, 15};
Line(22) = {14, 16};
Line(23) = {14, 17};
Line(24) = {17, 18};
Line(25) = {13, 18};
Line(26) = {15, 19};
Line(27) = {18, 19};
Line(28) = {16, 20};
Line(29) = {20, 19};
Line(30) = {17, 20};
Curve Loop(7) = {-13, -14, 15, 14};
Surface(7) = {7};
Curve Loop(8) = {13};
Plane Surface(8) = {8};
Curve Loop(9) = {15};
Plane Surface(9) = {9};
Curve Loop(10) = {-16, -17, 18, 17};
Surface(10) = {10};
Curve Loop(11) = {16};
Plane Surface(11) = {11};
Curve Loop(12) = {18};
Plane Surface(12) = {12};
Curve Loop(13) = {-19, 22, 21, -20};
Plane Surface(13) = {13};
Curve Loop(14) = {-23, 19, 25, -24};
Plane Surface(14) = {14};
Curve Loop(15) = {-20, 25, 27, -26};
Plane Surface(15) = {15};
Curve Loop(16) = {-28, 21, 26, -29};
Plane Surface(16) = {16};
Curve Loop(17) = {-22, 23, 30, -28, -15, -18};
Plane Surface(17) = {17};
Curve Loop(18) = {-24, 30, 29, -27};
Plane Surface(18) = {18};
Surface Loop(1) = {13, 14, 15, 16, 17, 18, 7, 10, 8, 11};
Volume(1) = {1};
Surface Loop(2) = {7, 8, 9};
Volume(2) = {2};
Surface Loop(3) = {10, 11, 12};
Volume(3) = {3};
Physical Surface("WALLS") = {13, 18};
Physical Surface("LOAD") = {8, 11};
Physical Surface("BORDER") = {7, 9, 10, 12, 14, 15, 16, 17};
Physical Volume("SOLID") = {1, 2, 3};
