cl__1 = 0.122077;
cl__2 = 0.127143;
cl__3 = 0.838547;
cl__4 = 0.585627;
cl__5 = 2.39226;
cl__6 = 1.899257;
Point(9) = {17.53562, 2.623219999999999, 0.1, cl__1};
Point(10) = {17.53562, 2.623219999999999, 0, cl__1};
Point(11) = {9.655385000000001, 3.581969, 0.1, cl__2};
Point(12) = {9.655385000000001, 3.581969, 0, cl__2};
Point(13) = {0.741694, -3.894218, 1, cl__3};
Point(14) = {0.741694, -3.894218, 0, cl__3};
Point(15) = {0.741694, 5.375534, 1, cl__4};
Point(16) = {0.741694, 5.375534, 0, cl__4};
Point(17) = {31.194431, -3.894218, 0, cl__5};
Point(18) = {31.194431, -3.894218, 1, cl__5};
Point(19) = {31.194431, 5.375534, 1, cl__6};
Point(20) = {31.194431, 5.375534, 0, cl__6};
p13 = newp;
Point(p13 + 1) = {17.52059034479496, 2.814189876149302, 0.1};
Point(p13 + 2) = {17.47587145917157, 3.000457440155127, 0.1};
Point(p13 + 3) = {17.40256447050734, 3.177436166405047, 0.1};
Point(p13 + 4) = {17.30247444015513, 3.340768251300073, 0.1};
Point(p13 + 5) = {17.17806591684198, 3.486431916841977, 0.1};
Point(p13 + 6) = {17.03240225130007, 3.610840440155127, 0.1};
Point(p13 + 7) = {16.86907016640505, 3.710930470507337, 0.1};
Point(p13 + 8) = {16.69209144015513, 3.784237459171569, 0.1};
Point(p13 + 9) = {16.5058238761493, 3.828956344794964, 0.1};
Point(p13 + 10) = {16.314854, 3.843986, 0.1};
Point(p13 + 11) = {16.1238841238507, 3.828956344794964, 0.1};
Point(p13 + 12) = {15.93761655984487, 3.784237459171569, 0.1};
Point(p13 + 13) = {15.76063783359495, 3.710930470507337, 0.1};
Point(p13 + 14) = {15.59730574869993, 3.610840440155127, 0.1};
Point(p13 + 15) = {15.45164208315802, 3.486431916841977, 0.1};
Point(p13 + 16) = {15.32723355984487, 3.340768251300073, 0.1};
Point(p13 + 17) = {15.22714352949266, 3.177436166405048, 0.1};
Point(p13 + 18) = {15.15383654082843, 3.000457440155127, 0.1};
Point(p13 + 19) = {15.10911765520504, 2.814189876149302, 0.1};
Point(p13 + 20) = {15.094088, 2.62322, 0.1};
Point(p13 + 21) = {15.10911765520504, 2.432250123850697, 0.1};
Point(p13 + 22) = {15.15383654082843, 2.245982559844872, 0.1};
Point(p13 + 23) = {15.22714352949266, 2.069003833594953, 0.1};
Point(p13 + 24) = {15.32723355984487, 1.905671748699927, 0.1};
Point(p13 + 25) = {15.45164208315802, 1.760008083158023, 0.1};
Point(p13 + 26) = {15.59730574869993, 1.635599559844873, 0.1};
Point(p13 + 27) = {15.76063783359495, 1.535509529492663, 0.1};
Point(p13 + 28) = {15.93761655984487, 1.46220254082843, 0.1};
Point(p13 + 29) = {16.1238841238507, 1.417483655205036, 0.1};
Point(p13 + 30) = {16.314854, 1.402454, 0.1};
Point(p13 + 31) = {16.5058238761493, 1.417483655205036, 0.1};
Point(p13 + 32) = {16.69209144015513, 1.46220254082843, 0.1};
Point(p13 + 33) = {16.86907016640505, 1.535509529492663, 0.1};
Point(p13 + 34) = {17.03240225130007, 1.635599559844873, 0.1};
Point(p13 + 35) = {17.17806591684198, 1.760008083158023, 0.1};
Point(p13 + 36) = {17.30247444015513, 1.905671748699926, 0.1};
Point(p13 + 37) = {17.40256447050734, 2.069003833594952, 0.1};
Point(p13 + 38) = {17.47587145917157, 2.245982559844872, 0.1};
Point(p13 + 39) = {17.52059034479496, 2.432250123850697, 0.1};
Spline(13) = {9, p13 + 1, p13 + 2, p13 + 3, p13 + 4, p13 + 5, p13 + 6, p13 + 7, p13 + 8, p13 + 9, p13 + 10, p13 + 11, p13 + 12, p13 + 13, p13 + 14, p13 + 15, p13 + 16, p13 + 17, p13 + 18, p13 + 19, p13 + 20, p13 + 21, p13 + 22, p13 + 23, p13 + 24, p13 + 25, p13 + 26, p13 + 27, p13 + 28, p13 + 29, p13 + 30, p13 + 31, p13 + 32, p13 + 33, p13 + 34, p13 + 35, p13 + 36, p13 + 37, p13 + 38, p13 + 39, 9};
Line(14) = {10, 9};
p15 = newp;
Point(p15 + 1) = {17.52059034479496, 2.814189876149302, 0};
Point(p15 + 2) = {17.47587145917157, 3.000457440155127, 0};
Point(p15 + 3) = {17.40256447050734, 3.177436166405047, 0};
Point(p15 + 4) = {17.30247444015513, 3.340768251300073, 0};
Point(p15 + 5) = {17.17806591684198, 3.486431916841977, 0};
Point(p15 + 6) = {17.03240225130007, 3.610840440155127, 0};
Point(p15 + 7) = {16.86907016640505, 3.710930470507337, 0};
Point(p15 + 8) = {16.69209144015513, 3.784237459171569, 0};
Point(p15 + 9) = {16.5058238761493, 3.828956344794964, 0};
Point(p15 + 10) = {16.314854, 3.843986, 0};
Point(p15 + 11) = {16.1238841238507, 3.828956344794964, 0};
Point(p15 + 12) = {15.93761655984487, 3.784237459171569, 0};
Point(p15 + 13) = {15.76063783359495, 3.710930470507337, 0};
Point(p15 + 14) = {15.59730574869993, 3.610840440155127, 0};
Point(p15 + 15) = {15.45164208315802, 3.486431916841977, 0};
Point(p15 + 16) = {15.32723355984487, 3.340768251300073, 0};
Point(p15 + 17) = {15.22714352949266, 3.177436166405048, 0};
Point(p15 + 18) = {15.15383654082843, 3.000457440155127, 0};
Point(p15 + 19) = {15.10911765520504, 2.814189876149302, 0};
Point(p15 + 20) = {15.094088, 2.62322, 0};
Point(p15 + 21) = {15.10911765520504, 2.432250123850697, 0};
Point(p15 + 22) = {15.15383654082843, 2.245982559844872, 0};
Point(p15 + 23) = {15.22714352949266, 2.069003833594953, 0};
Point(p15 + 24) = {15.32723355984487, 1.905671748699927, 0};
Point(p15 + 25) = {15.45164208315802, 1.760008083158023, 0};
Point(p15 + 26) = {15.59730574869993, 1.635599559844873, 0};
Point(p15 + 27) = {15.76063783359495, 1.535509529492663, 0};
Point(p15 + 28) = {15.93761655984487, 1.46220254082843, 0};
Point(p15 + 29) = {16.1238841238507, 1.417483655205036, 0};
Point(p15 + 30) = {16.314854, 1.402454, 0};
Point(p15 + 31) = {16.5058238761493, 1.417483655205036, 0};
Point(p15 + 32) = {16.69209144015513, 1.46220254082843, 0};
Point(p15 + 33) = {16.86907016640505, 1.535509529492663, 0};
Point(p15 + 34) = {17.03240225130007, 1.635599559844873, 0};
Point(p15 + 35) = {17.17806591684198, 1.760008083158023, 0};
Point(p15 + 36) = {17.30247444015513, 1.905671748699926, 0};
Point(p15 + 37) = {17.40256447050734, 2.069003833594952, 0};
Point(p15 + 38) = {17.47587145917157, 2.245982559844872, 0};
Point(p15 + 39) = {17.52059034479496, 2.432250123850697, 0};
Spline(15) = {10, p15 + 1, p15 + 2, p15 + 3, p15 + 4, p15 + 5, p15 + 6, p15 + 7, p15 + 8, p15 + 9, p15 + 10, p15 + 11, p15 + 12, p15 + 13, p15 + 14, p15 + 15, p15 + 16, p15 + 17, p15 + 18, p15 + 19, p15 + 20, p15 + 21, p15 + 22, p15 + 23, p15 + 24, p15 + 25, p15 + 26, p15 + 27, p15 + 28, p15 + 29, p15 + 30, p15 + 31, p15 + 32, p15 + 33, p15 + 34, p15 + 35, p15 + 36, p15 + 37, p15 + 38, p15 + 39, 10};
p16 = newp;
Point(p16 + 1) = {9.639731586882876, 3.780864471886101, 0.1};
Point(p16 + 2) = {9.593156786513147, 3.97486247715814, 0.1};
Point(p16 + 3) = {9.516807425048817, 4.159186141083852, 0.1};
Point(p16 + 4) = {9.412563477158139, 4.329296803322219, 0.1};
Point(p16 + 5) = {9.282991774804012, 4.481005774804012, 0.1};
Point(p16 + 6) = {9.13128280332222, 4.61057747715814, 0.1};
Point(p16 + 7) = {8.961172141083852, 4.714821425048816, 0.1};
Point(p16 + 8) = {8.77684847715814, 4.791170786513147, 0.1};
Point(p16 + 9) = {8.582850471886101, 4.837745586882876, 0.1};
Point(p16 + 10) = {8.383955, 4.853399, 0.1};
Point(p16 + 11) = {8.1850595281139, 4.837745586882876, 0.1};
Point(p16 + 12) = {7.991061522841861, 4.791170786513147, 0.1};
Point(p16 + 13) = {7.806737858916148, 4.714821425048816, 0.1};
Point(p16 + 14) = {7.636627196677781, 4.61057747715814, 0.1};
Point(p16 + 15) = {7.484918225195988, 4.481005774804013, 0.1};
Point(p16 + 16) = {7.355346522841861, 4.329296803322219, 0.1};
Point(p16 + 17) = {7.251102574951184, 4.159186141083852, 0.1};
Point(p16 + 18) = {7.174753213486853, 3.97486247715814, 0.1};
Point(p16 + 19) = {7.128178413117125, 3.780864471886101, 0.1};
Point(p16 + 20) = {7.112525, 3.581969, 0.1};
Point(p16 + 21) = {7.128178413117125, 3.383073528113899, 0.1};
Point(p16 + 22) = {7.174753213486853, 3.18907552284186, 0.1};
Point(p16 + 23) = {7.251102574951183, 3.004751858916149, 0.1};
Point(p16 + 24) = {7.355346522841861, 2.834641196677781, 0.1};
Point(p16 + 25) = {7.484918225195988, 2.682932225195988, 0.1};
Point(p16 + 26) = {7.636627196677781, 2.553360522841861, 0.1};
Point(p16 + 27) = {7.806737858916148, 2.449116574951184, 0.1};
Point(p16 + 28) = {7.991061522841861, 2.372767213486853, 0.1};
Point(p16 + 29) = {8.1850595281139, 2.326192413117124, 0.1};
Point(p16 + 30) = {8.383955, 2.310539, 0.1};
Point(p16 + 31) = {8.582850471886101, 2.326192413117124, 0.1};
Point(p16 + 32) = {8.77684847715814, 2.372767213486853, 0.1};
Point(p16 + 33) = {8.961172141083852, 2.449116574951183, 0.1};
Point(p16 + 34) = {9.131282803322218, 2.55336052284186, 0.1};
Point(p16 + 35) = {9.282991774804012, 2.682932225195988, 0.1};
Point(p16 + 36) = {9.412563477158139, 2.834641196677781, 0.1};
Point(p16 + 37) = {9.516807425048817, 3.004751858916148, 0.1};
Point(p16 + 38) = {9.593156786513147, 3.18907552284186, 0.1};
Point(p16 + 39) = {9.639731586882876, 3.383073528113899, 0.1};
Spline(16) = {11, p16 + 1, p16 + 2, p16 + 3, p16 + 4, p16 + 5, p16 + 6, p16 + 7, p16 + 8, p16 + 9, p16 + 10, p16 + 11, p16 + 12, p16 + 13, p16 + 14, p16 + 15, p16 + 16, p16 + 17, p16 + 18, p16 + 19, p16 + 20, p16 + 21, p16 + 22, p16 + 23, p16 + 24, p16 + 25, p16 + 26, p16 + 27, p16 + 28, p16 + 29, p16 + 30, p16 + 31, p16 + 32, p16 + 33, p16 + 34, p16 + 35, p16 + 36, p16 + 37, p16 + 38, p16 + 39, 11};
Line(17) = {12, 11};
p18 = newp;
Point(p18 + 1) = {9.639731586882876, 3.780864471886101, 0};
Point(p18 + 2) = {9.593156786513147, 3.97486247715814, 0};
Point(p18 + 3) = {9.516807425048817, 4.159186141083852, 0};
Point(p18 + 4) = {9.412563477158139, 4.329296803322219, 0};
Point(p18 + 5) = {9.282991774804012, 4.481005774804012, 0};
Point(p18 + 6) = {9.13128280332222, 4.61057747715814, 0};
Point(p18 + 7) = {8.961172141083852, 4.714821425048816, 0};
Point(p18 + 8) = {8.77684847715814, 4.791170786513147, 0};
Point(p18 + 9) = {8.582850471886101, 4.837745586882876, 0};
Point(p18 + 10) = {8.383955, 4.853399, 0};
Point(p18 + 11) = {8.1850595281139, 4.837745586882876, 0};
Point(p18 + 12) = {7.991061522841861, 4.791170786513147, 0};
Point(p18 + 13) = {7.806737858916148, 4.714821425048816, 0};
Point(p18 + 14) = {7.636627196677781, 4.61057747715814, 0};
Point(p18 + 15) = {7.484918225195988, 4.481005774804013, 0};
Point(p18 + 16) = {7.355346522841861, 4.329296803322219, 0};
Point(p18 + 17) = {7.251102574951184, 4.159186141083852, 0};
Point(p18 + 18) = {7.174753213486853, 3.97486247715814, 0};
Point(p18 + 19) = {7.128178413117125, 3.780864471886101, 0};
Point(p18 + 20) = {7.112525, 3.581969, 0};
Point(p18 + 21) = {7.128178413117125, 3.383073528113899, 0};
Point(p18 + 22) = {7.174753213486853, 3.18907552284186, 0};
Point(p18 + 23) = {7.251102574951183, 3.004751858916149, 0};
Point(p18 + 24) = {7.355346522841861, 2.834641196677781, 0};
Point(p18 + 25) = {7.484918225195988, 2.682932225195988, 0};
Point(p18 + 26) = {7.636627196677781, 2.553360522841861, 0};
Point(p18 + 27) = {7.806737858916148, 2.449116574951184, 0};
Point(p18 + 28) = {7.991061522841861, 2.372767213486853, 0};
Point(p18 + 29) = {8.1850595281139, 2.326192413117124, 0};
Point(p18 + 30) = {8.383955, 2.310539, 0};
Point(p18 + 31) = {8.582850471886101, 2.326192413117124, 0};
Point(p18 + 32) = {8.77684847715814, 2.372767213486853, 0};
Point(p18 + 33) = {8.961172141083852, 2.449116574951183, 0};
Point(p18 + 34) = {9.131282803322218, 2.55336052284186, 0};
Point(p18 + 35) = {9.282991774804012, 2.682932225195988, 0};
Point(p18 + 36) = {9.412563477158139, 2.834641196677781, 0};
Point(p18 + 37) = {9.516807425048817, 3.004751858916148, 0};
Point(p18 + 38) = {9.593156786513147, 3.18907552284186, 0};
Point(p18 + 39) = {9.639731586882876, 3.383073528113899, 0};
Spline(18) = {12, p18 + 1, p18 + 2, p18 + 3, p18 + 4, p18 + 5, p18 + 6, p18 + 7, p18 + 8, p18 + 9, p18 + 10, p18 + 11, p18 + 12, p18 + 13, p18 + 14, p18 + 15, p18 + 16, p18 + 17, p18 + 18, p18 + 19, p18 + 20, p18 + 21, p18 + 22, p18 + 23, p18 + 24, p18 + 25, p18 + 26, p18 + 27, p18 + 28, p18 + 29, p18 + 30, p18 + 31, p18 + 32, p18 + 33, p18 + 34, p18 + 35, p18 + 36, p18 + 37, p18 + 38, p18 + 39, 12};
Line(19) = {14, 13};
Line(20) = {13, 15};
Line(21) = {16, 15};
Line(22) = {14, 16};
Line(23) = {14, 17};
Line(24) = {17, 18};
Line(25) = {13, 18};
Line(26) = {15, 19};
Line(27) = {18, 19};
Line(28) = {16, 20};
Line(29) = {20, 19};
Line(30) = {17, 20};
Curve Loop(7) = {-13, -14, 15, 14};
Surface(7) = {7};
Curve Loop(8) = {13};
Plane Surface(8) = {8};
Curve Loop(9) = {15};
Plane Surface(9) = {9};
Curve Loop(10) = {-16, -17, 18, 17};
Surface(10) = {10};
Curve Loop(11) = {16};
Plane Surface(11) = {11};
Curve Loop(12) = {18};
Plane Surface(12) = {12};
Curve Loop(13) = {-19, 22, 21, -20};
Plane Surface(13) = {13};
Curve Loop(14) = {-23, 19, 25, -24};
Plane Surface(14) = {14};
Curve Loop(15) = {-20, 25, 27, -26};
Plane Surface(15) = {15};
Curve Loop(16) = {-28, 21, 26, -29};
Plane Surface(16) = {16};
Curve Loop(17) = {-22, 23, 30, -28, -15, -18};
Plane Surface(17) = {17};
Curve Loop(18) = {-24, 30, 29, -27};
Plane Surface(18) = {18};
Surface Loop(1) = {13, 14, 15, 16, 17, 18, 7, 10, 8, 11};
Volume(1) = {1};
Surface Loop(2) = {7, 8, 9};
Volume(2) = {2};
Surface Loop(3) = {10, 11, 12};
Volume(3) = {3};
Physical Surface("WALLS") = {13, 18};
Physical Surface("LOAD") = {8, 11};
Physical Surface("BORDER") = {7, 9, 10, 12, 14, 15, 16, 17};
Physical Volume("SOLID") = {1, 2, 3};
