cl__1 = 0.07038;
cl__2 = 0.098303;
cl__3 = 0.606174;
cl__4 = 0.590717;
cl__5 = 2.536789;
cl__6 = 2.981479;
Point(9) = {7.914759, 0.2872019999999998, 0.1, cl__1};
Point(10) = {7.914759, 0.2872019999999998, 0, cl__1};
Point(11) = {19.036021, -1.82379, 0.1, cl__2};
Point(12) = {19.036021, -1.82379, 0, cl__2};
Point(13) = {0.6937950000000001, -3.667157, 1, cl__3};
Point(14) = {0.6937950000000001, -3.667157, 0, cl__3};
Point(15) = {0.6937950000000001, 3.889713, 1, cl__4};
Point(16) = {0.6937950000000001, 3.889713, 0, cl__4};
Point(17) = {34.500615, -3.667157, 0, cl__5};
Point(18) = {34.500615, -3.667157, 1, cl__5};
Point(19) = {34.500615, 3.889713, 1, cl__6};
Point(20) = {34.500615, 3.889713, 0, cl__6};
p13 = newp;
Point(p13 + 1) = {7.906094041799198, 0.3973007329297795, 0.1};
Point(p13 + 2) = {7.880312527225045, 0.5046884696580823, 0.1};
Point(p13 + 3) = {7.838049282730298, 0.6067209677071927, 0.1};
Point(p13 + 4) = {7.780344969658082, 0.7008858483486948, 0.1};
Point(p13 + 5) = {7.708620459705873, 0.7848644597058734, 0.1};
Point(p13 + 6) = {7.624641848348695, 0.8565889696580824, 0.1};
Point(p13 + 7) = {7.530476967707193, 0.9142932827302974, 0.1};
Point(p13 + 8) = {7.428444469658082, 0.9565565272250454, 0.1};
Point(p13 + 9) = {7.32105673292978, 0.9823380417991985, 0.1};
Point(p13 + 10) = {7.210958, 0.9910030000000001, 0.1};
Point(p13 + 11) = {7.10085926707022, 0.9823380417991985, 0.1};
Point(p13 + 12) = {6.993471530341917, 0.9565565272250454, 0.1};
Point(p13 + 13) = {6.891439032292807, 0.9142932827302976, 0.1};
Point(p13 + 14) = {6.797274151651305, 0.8565889696580824, 0.1};
Point(p13 + 15) = {6.713295540294126, 0.7848644597058734, 0.1};
Point(p13 + 16) = {6.641571030341917, 0.7008858483486951, 0.1};
Point(p13 + 17) = {6.583866717269702, 0.6067209677071929, 0.1};
Point(p13 + 18) = {6.541603472774955, 0.5046884696580825, 0.1};
Point(p13 + 19) = {6.515821958200801, 0.3973007329297796, 0.1};
Point(p13 + 20) = {6.507156999999999, 0.2872020000000001, 0.1};
Point(p13 + 21) = {6.515821958200801, 0.1771032670702206, 0.1};
Point(p13 + 22) = {6.541603472774955, 0.06971553034191744, 0.1};
Point(p13 + 23) = {6.583866717269702, -0.03231696770719245, 0.1};
Point(p13 + 24) = {6.641571030341917, -0.1264818483486948, 0.1};
Point(p13 + 25) = {6.713295540294126, -0.2104604597058733, 0.1};
Point(p13 + 26) = {6.797274151651305, -0.2821849696580823, 0.1};
Point(p13 + 27) = {6.891439032292807, -0.3398892827302974, 0.1};
Point(p13 + 28) = {6.993471530341917, -0.3821525272250454, 0.1};
Point(p13 + 29) = {7.10085926707022, -0.4079340417991985, 0.1};
Point(p13 + 30) = {7.210958, -0.416599, 0.1};
Point(p13 + 31) = {7.32105673292978, -0.4079340417991985, 0.1};
Point(p13 + 32) = {7.428444469658082, -0.3821525272250454, 0.1};
Point(p13 + 33) = {7.530476967707193, -0.3398892827302976, 0.1};
Point(p13 + 34) = {7.624641848348695, -0.2821849696580824, 0.1};
Point(p13 + 35) = {7.708620459705873, -0.2104604597058735, 0.1};
Point(p13 + 36) = {7.780344969658082, -0.126481848348695, 0.1};
Point(p13 + 37) = {7.838049282730298, -0.03231696770719289, 0.1};
Point(p13 + 38) = {7.880312527225045, 0.06971553034191749, 0.1};
Point(p13 + 39) = {7.906094041799198, 0.1771032670702203, 0.1};
Spline(13) = {9, p13 + 1, p13 + 2, p13 + 3, p13 + 4, p13 + 5, p13 + 6, p13 + 7, p13 + 8, p13 + 9, p13 + 10, p13 + 11, p13 + 12, p13 + 13, p13 + 14, p13 + 15, p13 + 16, p13 + 17, p13 + 18, p13 + 19, p13 + 20, p13 + 21, p13 + 22, p13 + 23, p13 + 24, p13 + 25, p13 + 26, p13 + 27, p13 + 28, p13 + 29, p13 + 30, p13 + 31, p13 + 32, p13 + 33, p13 + 34, p13 + 35, p13 + 36, p13 + 37, p13 + 38, p13 + 39, 9};
Line(14) = {10, 9};
p15 = newp;
Point(p15 + 1) = {7.906094041799198, 0.3973007329297795, 0};
Point(p15 + 2) = {7.880312527225045, 0.5046884696580823, 0};
Point(p15 + 3) = {7.838049282730298, 0.6067209677071927, 0};
Point(p15 + 4) = {7.780344969658082, 0.7008858483486948, 0};
Point(p15 + 5) = {7.708620459705873, 0.7848644597058734, 0};
Point(p15 + 6) = {7.624641848348695, 0.8565889696580824, 0};
Point(p15 + 7) = {7.530476967707193, 0.9142932827302974, 0};
Point(p15 + 8) = {7.428444469658082, 0.9565565272250454, 0};
Point(p15 + 9) = {7.32105673292978, 0.9823380417991985, 0};
Point(p15 + 10) = {7.210958, 0.9910030000000001, 0};
Point(p15 + 11) = {7.10085926707022, 0.9823380417991985, 0};
Point(p15 + 12) = {6.993471530341917, 0.9565565272250454, 0};
Point(p15 + 13) = {6.891439032292807, 0.9142932827302976, 0};
Point(p15 + 14) = {6.797274151651305, 0.8565889696580824, 0};
Point(p15 + 15) = {6.713295540294126, 0.7848644597058734, 0};
Point(p15 + 16) = {6.641571030341917, 0.7008858483486951, 0};
Point(p15 + 17) = {6.583866717269702, 0.6067209677071929, 0};
Point(p15 + 18) = {6.541603472774955, 0.5046884696580825, 0};
Point(p15 + 19) = {6.515821958200801, 0.3973007329297796, 0};
Point(p15 + 20) = {6.507156999999999, 0.2872020000000001, 0};
Point(p15 + 21) = {6.515821958200801, 0.1771032670702206, 0};
Point(p15 + 22) = {6.541603472774955, 0.06971553034191744, 0};
Point(p15 + 23) = {6.583866717269702, -0.03231696770719245, 0};
Point(p15 + 24) = {6.641571030341917, -0.1264818483486948, 0};
Point(p15 + 25) = {6.713295540294126, -0.2104604597058733, 0};
Point(p15 + 26) = {6.797274151651305, -0.2821849696580823, 0};
Point(p15 + 27) = {6.891439032292807, -0.3398892827302974, 0};
Point(p15 + 28) = {6.993471530341917, -0.3821525272250454, 0};
Point(p15 + 29) = {7.10085926707022, -0.4079340417991985, 0};
Point(p15 + 30) = {7.210958, -0.416599, 0};
Point(p15 + 31) = {7.32105673292978, -0.4079340417991985, 0};
Point(p15 + 32) = {7.428444469658082, -0.3821525272250454, 0};
Point(p15 + 33) = {7.530476967707193, -0.3398892827302976, 0};
Point(p15 + 34) = {7.624641848348695, -0.2821849696580824, 0};
Point(p15 + 35) = {7.708620459705873, -0.2104604597058735, 0};
Point(p15 + 36) = {7.780344969658082, -0.126481848348695, 0};
Point(p15 + 37) = {7.838049282730298, -0.03231696770719289, 0};
Point(p15 + 38) = {7.880312527225045, 0.06971553034191749, 0};
Point(p15 + 39) = {7.906094041799198, 0.1771032670702203, 0};
Spline(15) = {10, p15 + 1, p15 + 2, p15 + 3, p15 + 4, p15 + 5, p15 + 6, p15 + 7, p15 + 8, p15 + 9, p15 + 10, p15 + 11, p15 + 12, p15 + 13, p15 + 14, p15 + 15, p15 + 16, p15 + 17, p15 + 18, p15 + 19, p15 + 20, p15 + 21, p15 + 22, p15 + 23, p15 + 24, p15 + 25, p15 + 26, p15 + 27, p15 + 28, p15 + 29, p15 + 30, p15 + 31, p15 + 32, p15 + 33, p15 + 34, p15 + 35, p15 + 36, p15 + 37, p15 + 38, p15 + 39, 10};
p16 = newp;
Point(p16 + 1) = {19.02391831870187, -1.670010853569362, 0.1};
Point(p16 + 2) = {18.98790828298756, -1.520018260087573, 0.1};
Point(p16 + 3) = {18.92887757944679, -1.377505535003032, 0.1};
Point(p16 + 4) = {18.84827973991243, -1.24598181457994, 0.1};
Point(p16 + 5) = {18.74809935068269, -1.128685649317313, 0.1};
Point(p16 + 6) = {18.63080318542006, -1.028505260087573, 0.1};
Point(p16 + 7) = {18.49927946499697, -0.9479074205532056, 0.1};
Point(p16 + 8) = {18.35676673991243, -0.8888767170124404, 0.1};
Point(p16 + 9) = {18.20677414643064, -0.8528666812981242, 0.1};
Point(p16 + 10) = {18.052995, -0.8407640000000001, 0.1};
Point(p16 + 11) = {17.89921585356936, -0.8528666812981243, 0.1};
Point(p16 + 12) = {17.74922326008757, -0.8888767170124403, 0.1};
Point(p16 + 13) = {17.60671053500303, -0.9479074205532055, 0.1};
Point(p16 + 14) = {17.47518681457994, -1.028505260087573, 0.1};
Point(p16 + 15) = {17.35789064931731, -1.128685649317313, 0.1};
Point(p16 + 16) = {17.25771026008757, -1.245981814579939, 0.1};
Point(p16 + 17) = {17.1771124205532, -1.377505535003032, 0.1};
Point(p16 + 18) = {17.11808171701244, -1.520018260087573, 0.1};
Point(p16 + 19) = {17.08207168129812, -1.670010853569362, 0.1};
Point(p16 + 20) = {17.069969, -1.82379, 0.1};
Point(p16 + 21) = {17.08207168129812, -1.977569146430638, 0.1};
Point(p16 + 22) = {17.11808171701244, -2.127561739912427, 0.1};
Point(p16 + 23) = {17.1771124205532, -2.270074464996967, 0.1};
Point(p16 + 24) = {17.25771026008757, -2.401598185420061, 0.1};
Point(p16 + 25) = {17.35789064931731, -2.518894350682687, 0.1};
Point(p16 + 26) = {17.47518681457994, -2.619074739912427, 0.1};
Point(p16 + 27) = {17.60671053500303, -2.699672579446794, 0.1};
Point(p16 + 28) = {17.74922326008757, -2.75870328298756, 0.1};
Point(p16 + 29) = {17.89921585356936, -2.794713318701876, 0.1};
Point(p16 + 30) = {18.052995, -2.806816, 0.1};
Point(p16 + 31) = {18.20677414643064, -2.794713318701876, 0.1};
Point(p16 + 32) = {18.35676673991243, -2.75870328298756, 0.1};
Point(p16 + 33) = {18.49927946499697, -2.699672579446795, 0.1};
Point(p16 + 34) = {18.63080318542006, -2.619074739912427, 0.1};
Point(p16 + 35) = {18.74809935068269, -2.518894350682687, 0.1};
Point(p16 + 36) = {18.84827973991243, -2.401598185420061, 0.1};
Point(p16 + 37) = {18.92887757944679, -2.270074464996968, 0.1};
Point(p16 + 38) = {18.98790828298756, -2.127561739912427, 0.1};
Point(p16 + 39) = {19.02391831870187, -1.977569146430638, 0.1};
Spline(16) = {11, p16 + 1, p16 + 2, p16 + 3, p16 + 4, p16 + 5, p16 + 6, p16 + 7, p16 + 8, p16 + 9, p16 + 10, p16 + 11, p16 + 12, p16 + 13, p16 + 14, p16 + 15, p16 + 16, p16 + 17, p16 + 18, p16 + 19, p16 + 20, p16 + 21, p16 + 22, p16 + 23, p16 + 24, p16 + 25, p16 + 26, p16 + 27, p16 + 28, p16 + 29, p16 + 30, p16 + 31, p16 + 32, p16 + 33, p16 + 34, p16 + 35, p16 + 36, p16 + 37, p16 + 38, p16 + 39, 11};
Line(17) = {12, 11};
p18 = newp;
Point(p18 + 1) = {19.02391831870187, -1.670010853569362, 0};
Point(p18 + 2) = {18.98790828298756, -1.520018260087573, 0};
Point(p18 + 3) = {18.92887757944679, -1.377505535003032, 0};
Point(p18 + 4) = {18.84827973991243, -1.24598181457994, 0};
Point(p18 + 5) = {18.74809935068269, -1.128685649317313, 0};
Point(p18 + 6) = {18.63080318542006, -1.028505260087573, 0};
Point(p18 + 7) = {18.49927946499697, -0.9479074205532056, 0};
Point(p18 + 8) = {18.35676673991243, -0.8888767170124404, 0};
Point(p18 + 9) = {18.20677414643064, -0.8528666812981242, 0};
Point(p18 + 10) = {18.052995, -0.8407640000000001, 0};
Point(p18 + 11) = {17.89921585356936, -0.8528666812981243, 0};
Point(p18 + 12) = {17.74922326008757, -0.8888767170124403, 0};
Point(p18 + 13) = {17.60671053500303, -0.9479074205532055, 0};
Point(p18 + 14) = {17.47518681457994, -1.028505260087573, 0};
Point(p18 + 15) = {17.35789064931731, -1.128685649317313, 0};
Point(p18 + 16) = {17.25771026008757, -1.245981814579939, 0};
Point(p18 + 17) = {17.1771124205532, -1.377505535003032, 0};
Point(p18 + 18) = {17.11808171701244, -1.520018260087573, 0};
Point(p18 + 19) = {17.08207168129812, -1.670010853569362, 0};
Point(p18 + 20) = {17.069969, -1.82379, 0};
Point(p18 + 21) = {17.08207168129812, -1.977569146430638, 0};
Point(p18 + 22) = {17.11808171701244, -2.127561739912427, 0};
Point(p18 + 23) = {17.1771124205532, -2.270074464996967, 0};
Point(p18 + 24) = {17.25771026008757, -2.401598185420061, 0};
Point(p18 + 25) = {17.35789064931731, -2.518894350682687, 0};
Point(p18 + 26) = {17.47518681457994, -2.619074739912427, 0};
Point(p18 + 27) = {17.60671053500303, -2.699672579446794, 0};
Point(p18 + 28) = {17.74922326008757, -2.75870328298756, 0};
Point(p18 + 29) = {17.89921585356936, -2.794713318701876, 0};
Point(p18 + 30) = {18.052995, -2.806816, 0};
Point(p18 + 31) = {18.20677414643064, -2.794713318701876, 0};
Point(p18 + 32) = {18.35676673991243, -2.75870328298756, 0};
Point(p18 + 33) = {18.49927946499697, -2.699672579446795, 0};
Point(p18 + 34) = {18.63080318542006, -2.619074739912427, 0};
Point(p18 + 35) = {18.74809935068269, -2.518894350682687, 0};
Point(p18 + 36) = {18.84827973991243, -2.401598185420061, 0};
Point(p18 + 37) = {18.92887757944679, -2.270074464996968, 0};
Point(p18 + 38) = {18.98790828298756, -2.127561739912427, 0};
Point(p18 + 39) = {19.02391831870187, -1.977569146430638, 0};
Spline(18) = {12, p18 + 1, p18 + 2, p18 + 3, p18 + 4, p18 + 5, p18 + 6, p18 + 7, p18 + 8, p18 + 9, p18 + 10, p18 + 11, p18 + 12, p18 + 13, p18 + 14, p18 + 15, p18 + 16, p18 + 17, p18 + 18, p18 + 19, p18 + 20, p18 + 21, p18 + 22, p18 + 23, p18 + 24, p18 + 25, p18 + 26, p18 + 27, p18 + 28, p18 + 29, p18 + 30, p18 + 31, p18 + 32, p18 + 33, p18 + 34, p18 + 35, p18 + 36, p18 + 37, p18 + 38, p18 + 39, 12};
Line(19) = {14, 13};
Line(20) = {13, 15};
Line(21) = {16, 15};
Line(22) = {14, 16};
Line(23) = {14, 17};
Line(24) = {17, 18};
Line(25) = {13, 18};
Line(26) = {15, 19};
Line(27) = {18, 19};
Line(28) = {16, 20};
Line(29) = {20, 19};
Line(30) = {17, 20};
Curve Loop(7) = {-13, -14, 15, 14};
Surface(7) = {7};
Curve Loop(8) = {13};
Plane Surface(8) = {8};
Curve Loop(9) = {15};
Plane Surface(9) = {9};
Curve Loop(10) = {-16, -17, 18, 17};
Surface(10) = {10};
Curve Loop(11) = {16};
Plane Surface(11) = {11};
Curve Loop(12) = {18};
Plane Surface(12) = {12};
Curve Loop(13) = {-19, 22, 21, -20};
Plane Surface(13) = {13};
Curve Loop(14) = {-23, 19, 25, -24};
Plane Surface(14) = {14};
Curve Loop(15) = {-20, 25, 27, -26};
Plane Surface(15) = {15};
Curve Loop(16) = {-28, 21, 26, -29};
Plane Surface(16) = {16};
Curve Loop(17) = {-22, 23, 30, -28, -18, -15};
Plane Surface(17) = {17};
Curve Loop(18) = {-24, 30, 29, -27};
Plane Surface(18) = {18};
Surface Loop(1) = {13, 14, 15, 16, 17, 18, 10, 7, 11, 8};
Volume(1) = {1};
Surface Loop(2) = {7, 8, 9};
Volume(2) = {2};
Surface Loop(3) = {10, 11, 12};
Volume(3) = {3};
Physical Surface("WALLS") = {13, 18};
Physical Surface("LOAD") = {8, 11};
Physical Surface("BORDER") = {7, 9, 10, 12, 14, 15, 16, 17};
Physical Volume("SOLID") = {1, 2, 3};
