cl__1 = 0.109381;
cl__2 = 0.132701;
cl__3 = 1.399726;
cl__4 = 1.536563;
cl__5 = 0.889594;
cl__6 = 0.837849;
Point(9) = {21.764959, 2.008178, 0.1, cl__1};
Point(10) = {21.764959, 2.008178, 0, cl__1};
Point(11) = {18.926897, -0.4007810000000003, 0.1, cl__2};
Point(12) = {18.926897, -0.4007810000000003, 0, cl__2};
Point(13) = {0.041826, -3.40579, 1, cl__3};
Point(14) = {0.041826, -3.40579, 0, cl__3};
Point(15) = {0.041826, 4.876454000000001, 1, cl__4};
Point(16) = {0.041826, 4.876454000000001, 0, cl__4};
Point(17) = {33.803741, -3.40579, 0, cl__5};
Point(18) = {33.803741, -3.40579, 1, cl__5};
Point(19) = {33.803741, 4.876454000000001, 1, cl__6};
Point(20) = {33.803741, 4.876454000000001, 0, cl__6};
p13 = newp;
Point(p13 + 1) = {21.751492433073, 2.179286956467795, 0.1};
Point(p13 + 2) = {21.71142432386274, 2.346182642549284, 0.1};
Point(p13 + 3) = {21.64574128219638, 2.504755532558115, 0.1};
Point(p13 + 4) = {21.55606064254928, 2.651101035669021, 0.1};
Point(p13 + 5) = {21.44459063990253, 2.781615639902533, 0.1};
Point(p13 + 6) = {21.31407603566902, 2.893085642549284, 0.1};
Point(p13 + 7) = {21.16773053255811, 2.982766282196382, 0.1};
Point(p13 + 8) = {21.00915764254928, 3.048449323862737, 0.1};
Point(p13 + 9) = {20.84226195646779, 3.088517433073005, 0.1};
Point(p13 + 10) = {20.671153, 3.101984, 0.1};
Point(p13 + 11) = {20.50004404353221, 3.088517433073005, 0.1};
Point(p13 + 12) = {20.33314835745072, 3.048449323862737, 0.1};
Point(p13 + 13) = {20.17457546744189, 2.982766282196382, 0.1};
Point(p13 + 14) = {20.02822996433098, 2.893085642549284, 0.1};
Point(p13 + 15) = {19.89771536009747, 2.781615639902533, 0.1};
Point(p13 + 16) = {19.78624535745072, 2.651101035669021, 0.1};
Point(p13 + 17) = {19.69656471780362, 2.504755532558115, 0.1};
Point(p13 + 18) = {19.63088167613726, 2.346182642549284, 0.1};
Point(p13 + 19) = {19.590813566927, 2.179286956467795, 0.1};
Point(p13 + 20) = {19.577347, 2.008178, 0.1};
Point(p13 + 21) = {19.590813566927, 1.837069043532205, 0.1};
Point(p13 + 22) = {19.63088167613726, 1.670173357450716, 0.1};
Point(p13 + 23) = {19.69656471780362, 1.511600467441886, 0.1};
Point(p13 + 24) = {19.78624535745072, 1.365254964330979, 0.1};
Point(p13 + 25) = {19.89771536009747, 1.234740360097467, 0.1};
Point(p13 + 26) = {20.02822996433098, 1.123270357450716, 0.1};
Point(p13 + 27) = {20.17457546744189, 1.033589717803618, 0.1};
Point(p13 + 28) = {20.33314835745072, 0.9679066761372632, 0.1};
Point(p13 + 29) = {20.50004404353221, 0.9278385669269948, 0.1};
Point(p13 + 30) = {20.671153, 0.914372, 0.1};
Point(p13 + 31) = {20.84226195646779, 0.9278385669269946, 0.1};
Point(p13 + 32) = {21.00915764254928, 0.9679066761372632, 0.1};
Point(p13 + 33) = {21.16773053255811, 1.033589717803618, 0.1};
Point(p13 + 34) = {21.31407603566902, 1.123270357450716, 0.1};
Point(p13 + 35) = {21.44459063990253, 1.234740360097467, 0.1};
Point(p13 + 36) = {21.55606064254928, 1.365254964330979, 0.1};
Point(p13 + 37) = {21.64574128219638, 1.511600467441885, 0.1};
Point(p13 + 38) = {21.71142432386274, 1.670173357450716, 0.1};
Point(p13 + 39) = {21.751492433073, 1.837069043532205, 0.1};
Spline(13) = {9, p13 + 1, p13 + 2, p13 + 3, p13 + 4, p13 + 5, p13 + 6, p13 + 7, p13 + 8, p13 + 9, p13 + 10, p13 + 11, p13 + 12, p13 + 13, p13 + 14, p13 + 15, p13 + 16, p13 + 17, p13 + 18, p13 + 19, p13 + 20, p13 + 21, p13 + 22, p13 + 23, p13 + 24, p13 + 25, p13 + 26, p13 + 27, p13 + 28, p13 + 29, p13 + 30, p13 + 31, p13 + 32, p13 + 33, p13 + 34, p13 + 35, p13 + 36, p13 + 37, p13 + 38, p13 + 39, 9};
Line(14) = {10, 9};
p15 = newp;
Point(p15 + 1) = {21.751492433073, 2.179286956467795, 0};
Point(p15 + 2) = {21.71142432386274, 2.346182642549284, 0};
Point(p15 + 3) = {21.64574128219638, 2.504755532558115, 0};
Point(p15 + 4) = {21.55606064254928, 2.651101035669021, 0};
Point(p15 + 5) = {21.44459063990253, 2.781615639902533, 0};
Point(p15 + 6) = {21.31407603566902, 2.893085642549284, 0};
Point(p15 + 7) = {21.16773053255811, 2.982766282196382, 0};
Point(p15 + 8) = {21.00915764254928, 3.048449323862737, 0};
Point(p15 + 9) = {20.84226195646779, 3.088517433073005, 0};
Point(p15 + 10) = {20.671153, 3.101984, 0};
Point(p15 + 11) = {20.50004404353221, 3.088517433073005, 0};
Point(p15 + 12) = {20.33314835745072, 3.048449323862737, 0};
Point(p15 + 13) = {20.17457546744189, 2.982766282196382, 0};
Point(p15 + 14) = {20.02822996433098, 2.893085642549284, 0};
Point(p15 + 15) = {19.89771536009747, 2.781615639902533, 0};
Point(p15 + 16) = {19.78624535745072, 2.651101035669021, 0};
Point(p15 + 17) = {19.69656471780362, 2.504755532558115, 0};
Point(p15 + 18) = {19.63088167613726, 2.346182642549284, 0};
Point(p15 + 19) = {19.590813566927, 2.179286956467795, 0};
Point(p15 + 20) = {19.577347, 2.008178, 0};
Point(p15 + 21) = {19.590813566927, 1.837069043532205, 0};
Point(p15 + 22) = {19.63088167613726, 1.670173357450716, 0};
Point(p15 + 23) = {19.69656471780362, 1.511600467441886, 0};
Point(p15 + 24) = {19.78624535745072, 1.365254964330979, 0};
Point(p15 + 25) = {19.89771536009747, 1.234740360097467, 0};
Point(p15 + 26) = {20.02822996433098, 1.123270357450716, 0};
Point(p15 + 27) = {20.17457546744189, 1.033589717803618, 0};
Point(p15 + 28) = {20.33314835745072, 0.9679066761372632, 0};
Point(p15 + 29) = {20.50004404353221, 0.9278385669269948, 0};
Point(p15 + 30) = {20.671153, 0.914372, 0};
Point(p15 + 31) = {20.84226195646779, 0.9278385669269946, 0};
Point(p15 + 32) = {21.00915764254928, 0.9679066761372632, 0};
Point(p15 + 33) = {21.16773053255811, 1.033589717803618, 0};
Point(p15 + 34) = {21.31407603566902, 1.123270357450716, 0};
Point(p15 + 35) = {21.44459063990253, 1.234740360097467, 0};
Point(p15 + 36) = {21.55606064254928, 1.365254964330979, 0};
Point(p15 + 37) = {21.64574128219638, 1.511600467441885, 0};
Point(p15 + 38) = {21.71142432386274, 1.670173357450716, 0};
Point(p15 + 39) = {21.751492433073, 1.837069043532205, 0};
Spline(15) = {10, p15 + 1, p15 + 2, p15 + 3, p15 + 4, p15 + 5, p15 + 6, p15 + 7, p15 + 8, p15 + 9, p15 + 10, p15 + 11, p15 + 12, p15 + 13, p15 + 14, p15 + 15, p15 + 16, p15 + 17, p15 + 18, p15 + 19, p15 + 20, p15 + 21, p15 + 22, p15 + 23, p15 + 24, p15 + 25, p15 + 26, p15 + 27, p15 + 28, p15 + 29, p15 + 30, p15 + 31, p15 + 32, p15 + 33, p15 + 34, p15 + 35, p15 + 36, p15 + 37, p15 + 38, p15 + 39, 10};
p16 = newp;
Point(p16 + 1) = {18.91055930485315, -0.1931909005469632, 0.1};
Point(p16 + 2) = {18.86194850768883, 0.00928764170549895, 0.1};
Point(p16 + 3) = {18.78226156766321, 0.201668933059376, 0.1};
Point(p16 + 4) = {18.6734606417055, 0.3792159076446348, 0.1};
Point(p16 + 5) = {18.53822476970236, 0.5375567697023604, 0.1};
Point(p16 + 6) = {18.37988390764463, 0.6727926417054988, 0.1};
Point(p16 + 7) = {18.20233693305937, 0.781593567663206, 0.1};
Point(p16 + 8) = {18.0099556417055, 0.8612805076888317, 0.1};
Point(p16 + 9) = {17.80747709945303, 0.9098913048531538, 0.1};
Point(p16 + 10) = {17.599887, 0.926229, 0.1};
Point(p16 + 11) = {17.39229690054696, 0.9098913048531536, 0.1};
Point(p16 + 12) = {17.1898183582945, 0.8612805076888319, 0.1};
Point(p16 + 13) = {16.99743706694062, 0.781593567663206, 0.1};
Point(p16 + 14) = {16.81989009235537, 0.672792641705499, 0.1};
Point(p16 + 15) = {16.66154923029764, 0.5375567697023604, 0.1};
Point(p16 + 16) = {16.5263133582945, 0.3792159076446349, 0.1};
Point(p16 + 17) = {16.41751243233679, 0.2016689330593761, 0.1};
Point(p16 + 18) = {16.33782549231117, 0.009287641705499117, 0.1};
Point(p16 + 19) = {16.28921469514685, -0.1931909005469631, 0.1};
Point(p16 + 20) = {16.272877, -0.4007809999999998, 0.1};
Point(p16 + 21) = {16.28921469514685, -0.6083710994530366, 0.1};
Point(p16 + 22) = {16.33782549231117, -0.8108496417054993, 0.1};
Point(p16 + 23) = {16.41751243233679, -1.003230933059375, 0.1};
Point(p16 + 24) = {16.5263133582945, -1.180777907644635, 0.1};
Point(p16 + 25) = {16.66154923029764, -1.33911876970236, 0.1};
Point(p16 + 26) = {16.81989009235537, -1.474354641705499, 0.1};
Point(p16 + 27) = {16.99743706694062, -1.583155567663206, 0.1};
Point(p16 + 28) = {17.1898183582945, -1.662842507688832, 0.1};
Point(p16 + 29) = {17.39229690054696, -1.711453304853154, 0.1};
Point(p16 + 30) = {17.599887, -1.727791, 0.1};
Point(p16 + 31) = {17.80747709945303, -1.711453304853154, 0.1};
Point(p16 + 32) = {18.0099556417055, -1.662842507688832, 0.1};
Point(p16 + 33) = {18.20233693305937, -1.583155567663206, 0.1};
Point(p16 + 34) = {18.37988390764463, -1.474354641705499, 0.1};
Point(p16 + 35) = {18.53822476970236, -1.339118769702361, 0.1};
Point(p16 + 36) = {18.6734606417055, -1.180777907644635, 0.1};
Point(p16 + 37) = {18.78226156766321, -1.003230933059376, 0.1};
Point(p16 + 38) = {18.86194850768883, -0.8108496417054992, 0.1};
Point(p16 + 39) = {18.91055930485315, -0.6083710994530371, 0.1};
Spline(16) = {11, p16 + 1, p16 + 2, p16 + 3, p16 + 4, p16 + 5, p16 + 6, p16 + 7, p16 + 8, p16 + 9, p16 + 10, p16 + 11, p16 + 12, p16 + 13, p16 + 14, p16 + 15, p16 + 16, p16 + 17, p16 + 18, p16 + 19, p16 + 20, p16 + 21, p16 + 22, p16 + 23, p16 + 24, p16 + 25, p16 + 26, p16 + 27, p16 + 28, p16 + 29, p16 + 30, p16 + 31, p16 + 32, p16 + 33, p16 + 34, p16 + 35, p16 + 36, p16 + 37, p16 + 38, p16 + 39, 11};
Line(17) = {12, 11};
p18 = newp;
Point(p18 + 1) = {18.91055930485315, -0.1931909005469632, 0};
Point(p18 + 2) = {18.86194850768883, 0.00928764170549895, 0};
Point(p18 + 3) = {18.78226156766321, 0.201668933059376, 0};
Point(p18 + 4) = {18.6734606417055, 0.3792159076446348, 0};
Point(p18 + 5) = {18.53822476970236, 0.5375567697023604, 0};
Point(p18 + 6) = {18.37988390764463, 0.6727926417054988, 0};
Point(p18 + 7) = {18.20233693305937, 0.781593567663206, 0};
Point(p18 + 8) = {18.0099556417055, 0.8612805076888317, 0};
Point(p18 + 9) = {17.80747709945303, 0.9098913048531538, 0};
Point(p18 + 10) = {17.599887, 0.926229, 0};
Point(p18 + 11) = {17.39229690054696, 0.9098913048531536, 0};
Point(p18 + 12) = {17.1898183582945, 0.8612805076888319, 0};
Point(p18 + 13) = {16.99743706694062, 0.781593567663206, 0};
Point(p18 + 14) = {16.81989009235537, 0.672792641705499, 0};
Point(p18 + 15) = {16.66154923029764, 0.5375567697023604, 0};
Point(p18 + 16) = {16.5263133582945, 0.3792159076446349, 0};
Point(p18 + 17) = {16.41751243233679, 0.2016689330593761, 0};
Point(p18 + 18) = {16.33782549231117, 0.009287641705499117, 0};
Point(p18 + 19) = {16.28921469514685, -0.1931909005469631, 0};
Point(p18 + 20) = {16.272877, -0.4007809999999998, 0};
Point(p18 + 21) = {16.28921469514685, -0.6083710994530366, 0};
Point(p18 + 22) = {16.33782549231117, -0.8108496417054993, 0};
Point(p18 + 23) = {16.41751243233679, -1.003230933059375, 0};
Point(p18 + 24) = {16.5263133582945, -1.180777907644635, 0};
Point(p18 + 25) = {16.66154923029764, -1.33911876970236, 0};
Point(p18 + 26) = {16.81989009235537, -1.474354641705499, 0};
Point(p18 + 27) = {16.99743706694062, -1.583155567663206, 0};
Point(p18 + 28) = {17.1898183582945, -1.662842507688832, 0};
Point(p18 + 29) = {17.39229690054696, -1.711453304853154, 0};
Point(p18 + 30) = {17.599887, -1.727791, 0};
Point(p18 + 31) = {17.80747709945303, -1.711453304853154, 0};
Point(p18 + 32) = {18.0099556417055, -1.662842507688832, 0};
Point(p18 + 33) = {18.20233693305937, -1.583155567663206, 0};
Point(p18 + 34) = {18.37988390764463, -1.474354641705499, 0};
Point(p18 + 35) = {18.53822476970236, -1.339118769702361, 0};
Point(p18 + 36) = {18.6734606417055, -1.180777907644635, 0};
Point(p18 + 37) = {18.78226156766321, -1.003230933059376, 0};
Point(p18 + 38) = {18.86194850768883, -0.8108496417054992, 0};
Point(p18 + 39) = {18.91055930485315, -0.6083710994530371, 0};
Spline(18) = {12, p18 + 1, p18 + 2, p18 + 3, p18 + 4, p18 + 5, p18 + 6, p18 + 7, p18 + 8, p18 + 9, p18 + 10, p18 + 11, p18 + 12, p18 + 13, p18 + 14, p18 + 15, p18 + 16, p18 + 17, p18 + 18, p18 + 19, p18 + 20, p18 + 21, p18 + 22, p18 + 23, p18 + 24, p18 + 25, p18 + 26, p18 + 27, p18 + 28, p18 + 29, p18 + 30, p18 + 31, p18 + 32, p18 + 33, p18 + 34, p18 + 35, p18 + 36, p18 + 37, p18 + 38, p18 + 39, 12};
Line(19) = {14, 13};
Line(20) = {13, 15};
Line(21) = {16, 15};
Line(22) = {14, 16};
Line(23) = {14, 17};
Line(24) = {17, 18};
Line(25) = {13, 18};
Line(26) = {15, 19};
Line(27) = {18, 19};
Line(28) = {16, 20};
Line(29) = {20, 19};
Line(30) = {17, 20};
Curve Loop(7) = {-13, -14, 15, 14};
Surface(7) = {7};
Curve Loop(8) = {13};
Plane Surface(8) = {8};
Curve Loop(9) = {15};
Plane Surface(9) = {9};
Curve Loop(10) = {-16, -17, 18, 17};
Surface(10) = {10};
Curve Loop(11) = {16};
Plane Surface(11) = {11};
Curve Loop(12) = {18};
Plane Surface(12) = {12};
Curve Loop(13) = {-19, 22, 21, -20};
Plane Surface(13) = {13};
Curve Loop(14) = {-23, 19, 25, -24};
Plane Surface(14) = {14};
Curve Loop(15) = {-20, 25, 27, -26};
Plane Surface(15) = {15};
Curve Loop(16) = {-28, 21, 26, -29};
Plane Surface(16) = {16};
Curve Loop(17) = {-22, 23, 30, -28, -18, -15};
Plane Surface(17) = {17};
Curve Loop(18) = {-24, 30, 29, -27};
Plane Surface(18) = {18};
Surface Loop(1) = {13, 14, 15, 16, 17, 18, 10, 7, 11, 8};
Volume(1) = {1};
Surface Loop(2) = {7, 8, 9};
Volume(2) = {2};
Surface Loop(3) = {10, 11, 12};
Volume(3) = {3};
Physical Surface("WALLS") = {13, 18};
Physical Surface("LOAD") = {8, 11};
Physical Surface("BORDER") = {7, 9, 10, 12, 14, 15, 16, 17};
Physical Volume("SOLID") = {1, 2, 3};
