cl__1 = 0.120721;
cl__2 = 0.12074;
cl__3 = 1.906942;
cl__4 = 1.71182;
cl__5 = 0.826933;
cl__6 = 0.736756;
Point(9) = {26.333641, 3.417927, 0.1, cl__1};
Point(10) = {26.333641, 3.417927, 0, cl__1};
Point(11) = {23.458243, 2.766058, 0.1, cl__2};
Point(12) = {23.458243, 2.766058, 0, cl__2};
Point(13) = {0.540994, -3.711812, 1, cl__3};
Point(14) = {0.540994, -3.711812, 0, cl__3};
Point(15) = {0.540994, 5.627969999999999, 1, cl__4};
Point(16) = {0.540994, 5.627969999999999, 0, cl__4};
Point(17) = {38.900431, -3.711812, 0, cl__5};
Point(18) = {38.900431, -3.711812, 1, cl__5};
Point(19) = {38.900431, 5.627969999999999, 1, cl__6};
Point(20) = {38.900431, 5.627969999999999, 0, cl__6};
p13 = newp;
Point(p13 + 1) = {26.31877825396152, 3.606776094106752, 0.1};
Point(p13 + 2) = {26.27455598598016, 3.790975096762386, 0.1};
Point(p13 + 3) = {26.20206309505892, 3.965988417200079, 0.1};
Point(p13 + 4) = {26.10308459676239, 4.127506646634744, 0.1};
Point(p13 + 5) = {25.98005767020943, 4.271552670209431, 0.1};
Point(p13 + 6) = {25.83601164663474, 4.394579596762386, 0.1};
Point(p13 + 7) = {25.67449341720008, 4.493558095058916, 0.1};
Point(p13 + 8) = {25.49948009676239, 4.566050985980156, 0.1};
Point(p13 + 9) = {25.31528109410675, 4.610273253961516, 0.1};
Point(p13 + 10) = {25.126432, 4.625136, 0.1};
Point(p13 + 11) = {24.93758290589325, 4.610273253961516, 0.1};
Point(p13 + 12) = {24.75338390323762, 4.566050985980157, 0.1};
Point(p13 + 13) = {24.57837058279992, 4.493558095058916, 0.1};
Point(p13 + 14) = {24.41685235336526, 4.394579596762386, 0.1};
Point(p13 + 15) = {24.27280632979057, 4.271552670209431, 0.1};
Point(p13 + 16) = {24.14977940323762, 4.127506646634744, 0.1};
Point(p13 + 17) = {24.05080090494108, 3.965988417200079, 0.1};
Point(p13 + 18) = {23.97830801401985, 3.790975096762386, 0.1};
Point(p13 + 19) = {23.93408574603848, 3.606776094106752, 0.1};
Point(p13 + 20) = {23.919223, 3.417927, 0.1};
Point(p13 + 21) = {23.93408574603848, 3.229077905893248, 0.1};
Point(p13 + 22) = {23.97830801401985, 3.044878903237614, 0.1};
Point(p13 + 23) = {24.05080090494108, 2.869865582799922, 0.1};
Point(p13 + 24) = {24.14977940323762, 2.708347353365256, 0.1};
Point(p13 + 25) = {24.27280632979057, 2.564301329790569, 0.1};
Point(p13 + 26) = {24.41685235336526, 2.441274403237614, 0.1};
Point(p13 + 27) = {24.57837058279992, 2.342295904941085, 0.1};
Point(p13 + 28) = {24.75338390323762, 2.269803014019844, 0.1};
Point(p13 + 29) = {24.93758290589325, 2.225580746038485, 0.1};
Point(p13 + 30) = {25.126432, 2.210718, 0.1};
Point(p13 + 31) = {25.31528109410675, 2.225580746038484, 0.1};
Point(p13 + 32) = {25.49948009676239, 2.269803014019844, 0.1};
Point(p13 + 33) = {25.67449341720008, 2.342295904941085, 0.1};
Point(p13 + 34) = {25.83601164663474, 2.441274403237614, 0.1};
Point(p13 + 35) = {25.98005767020943, 2.564301329790569, 0.1};
Point(p13 + 36) = {26.10308459676239, 2.708347353365256, 0.1};
Point(p13 + 37) = {26.20206309505892, 2.869865582799922, 0.1};
Point(p13 + 38) = {26.27455598598016, 3.044878903237614, 0.1};
Point(p13 + 39) = {26.31877825396152, 3.229077905893248, 0.1};
Spline(13) = {9, p13 + 1, p13 + 2, p13 + 3, p13 + 4, p13 + 5, p13 + 6, p13 + 7, p13 + 8, p13 + 9, p13 + 10, p13 + 11, p13 + 12, p13 + 13, p13 + 14, p13 + 15, p13 + 16, p13 + 17, p13 + 18, p13 + 19, p13 + 20, p13 + 21, p13 + 22, p13 + 23, p13 + 24, p13 + 25, p13 + 26, p13 + 27, p13 + 28, p13 + 29, p13 + 30, p13 + 31, p13 + 32, p13 + 33, p13 + 34, p13 + 35, p13 + 36, p13 + 37, p13 + 38, p13 + 39, 9};
Line(14) = {10, 9};
p15 = newp;
Point(p15 + 1) = {26.31877825396152, 3.606776094106752, 0};
Point(p15 + 2) = {26.27455598598016, 3.790975096762386, 0};
Point(p15 + 3) = {26.20206309505892, 3.965988417200079, 0};
Point(p15 + 4) = {26.10308459676239, 4.127506646634744, 0};
Point(p15 + 5) = {25.98005767020943, 4.271552670209431, 0};
Point(p15 + 6) = {25.83601164663474, 4.394579596762386, 0};
Point(p15 + 7) = {25.67449341720008, 4.493558095058916, 0};
Point(p15 + 8) = {25.49948009676239, 4.566050985980156, 0};
Point(p15 + 9) = {25.31528109410675, 4.610273253961516, 0};
Point(p15 + 10) = {25.126432, 4.625136, 0};
Point(p15 + 11) = {24.93758290589325, 4.610273253961516, 0};
Point(p15 + 12) = {24.75338390323762, 4.566050985980157, 0};
Point(p15 + 13) = {24.57837058279992, 4.493558095058916, 0};
Point(p15 + 14) = {24.41685235336526, 4.394579596762386, 0};
Point(p15 + 15) = {24.27280632979057, 4.271552670209431, 0};
Point(p15 + 16) = {24.14977940323762, 4.127506646634744, 0};
Point(p15 + 17) = {24.05080090494108, 3.965988417200079, 0};
Point(p15 + 18) = {23.97830801401985, 3.790975096762386, 0};
Point(p15 + 19) = {23.93408574603848, 3.606776094106752, 0};
Point(p15 + 20) = {23.919223, 3.417927, 0};
Point(p15 + 21) = {23.93408574603848, 3.229077905893248, 0};
Point(p15 + 22) = {23.97830801401985, 3.044878903237614, 0};
Point(p15 + 23) = {24.05080090494108, 2.869865582799922, 0};
Point(p15 + 24) = {24.14977940323762, 2.708347353365256, 0};
Point(p15 + 25) = {24.27280632979057, 2.564301329790569, 0};
Point(p15 + 26) = {24.41685235336526, 2.441274403237614, 0};
Point(p15 + 27) = {24.57837058279992, 2.342295904941085, 0};
Point(p15 + 28) = {24.75338390323762, 2.269803014019844, 0};
Point(p15 + 29) = {24.93758290589325, 2.225580746038485, 0};
Point(p15 + 30) = {25.126432, 2.210718, 0};
Point(p15 + 31) = {25.31528109410675, 2.225580746038484, 0};
Point(p15 + 32) = {25.49948009676239, 2.269803014019844, 0};
Point(p15 + 33) = {25.67449341720008, 2.342295904941085, 0};
Point(p15 + 34) = {25.83601164663474, 2.441274403237614, 0};
Point(p15 + 35) = {25.98005767020943, 2.564301329790569, 0};
Point(p15 + 36) = {26.10308459676239, 2.708347353365256, 0};
Point(p15 + 37) = {26.20206309505892, 2.869865582799922, 0};
Point(p15 + 38) = {26.27455598598016, 3.044878903237614, 0};
Point(p15 + 39) = {26.31877825396152, 3.229077905893248, 0};
Spline(15) = {10, p15 + 1, p15 + 2, p15 + 3, p15 + 4, p15 + 5, p15 + 6, p15 + 7, p15 + 8, p15 + 9, p15 + 10, p15 + 11, p15 + 12, p15 + 13, p15 + 14, p15 + 15, p15 + 16, p15 + 17, p15 + 18, p15 + 19, p15 + 20, p15 + 21, p15 + 22, p15 + 23, p15 + 24, p15 + 25, p15 + 26, p15 + 27, p15 + 28, p15 + 29, p15 + 30, p15 + 31, p15 + 32, p15 + 33, p15 + 34, p15 + 35, p15 + 36, p15 + 37, p15 + 38, p15 + 39, 10};
p16 = newp;
Point(p16 + 1) = {23.44337791474623, 2.95493681665511, 0.1};
Point(p16 + 2) = {23.39914868671825, 3.139164809991317, 0.1};
Point(p16 + 3) = {23.32664438629851, 3.314205675395029, 0.1};
Point(p16 + 4) = {23.22765030999132, 3.47574932583268, 0.1};
Point(p16 + 5) = {23.10460402049786, 3.619818020497856, 0.1};
Point(p16 + 6) = {22.96053532583268, 3.742864309991317, 0.1};
Point(p16 + 7) = {22.79899167539503, 3.841858386298511, 0.1};
Point(p16 + 8) = {22.62395080999132, 3.914362686718252, 0.1};
Point(p16 + 9) = {22.43972281665511, 3.958591914746229, 0.1};
Point(p16 + 10) = {22.250844, 3.973457, 0.1};
Point(p16 + 11) = {22.06196518334489, 3.958591914746229, 0.1};
Point(p16 + 12) = {21.87773719000868, 3.914362686718252, 0.1};
Point(p16 + 13) = {21.70269632460497, 3.841858386298511, 0.1};
Point(p16 + 14) = {21.54115267416732, 3.742864309991317, 0.1};
Point(p16 + 15) = {21.39708397950215, 3.619818020497856, 0.1};
Point(p16 + 16) = {21.27403769000868, 3.47574932583268, 0.1};
Point(p16 + 17) = {21.17504361370149, 3.314205675395029, 0.1};
Point(p16 + 18) = {21.10253931328175, 3.139164809991317, 0.1};
Point(p16 + 19) = {21.05831008525377, 2.95493681665511, 0.1};
Point(p16 + 20) = {21.043445, 2.766058, 0.1};
Point(p16 + 21) = {21.05831008525377, 2.57717918334489, 0.1};
Point(p16 + 22) = {21.10253931328175, 2.392951190008683, 0.1};
Point(p16 + 23) = {21.17504361370149, 2.217910324604972, 0.1};
Point(p16 + 24) = {21.27403769000868, 2.056366674167321, 0.1};
Point(p16 + 25) = {21.39708397950215, 1.912297979502144, 0.1};
Point(p16 + 26) = {21.54115267416732, 1.789251690008683, 0.1};
Point(p16 + 27) = {21.70269632460497, 1.690257613701489, 0.1};
Point(p16 + 28) = {21.87773719000868, 1.617753313281748, 0.1};
Point(p16 + 29) = {22.06196518334489, 1.573524085253772, 0.1};
Point(p16 + 30) = {22.250844, 1.558659, 0.1};
Point(p16 + 31) = {22.43972281665511, 1.573524085253772, 0.1};
Point(p16 + 32) = {22.62395080999132, 1.617753313281748, 0.1};
Point(p16 + 33) = {22.79899167539503, 1.690257613701489, 0.1};
Point(p16 + 34) = {22.96053532583268, 1.789251690008683, 0.1};
Point(p16 + 35) = {23.10460402049786, 1.912297979502144, 0.1};
Point(p16 + 36) = {23.22765030999132, 2.05636667416732, 0.1};
Point(p16 + 37) = {23.32664438629851, 2.217910324604971, 0.1};
Point(p16 + 38) = {23.39914868671825, 2.392951190008683, 0.1};
Point(p16 + 39) = {23.44337791474623, 2.57717918334489, 0.1};
Spline(16) = {11, p16 + 1, p16 + 2, p16 + 3, p16 + 4, p16 + 5, p16 + 6, p16 + 7, p16 + 8, p16 + 9, p16 + 10, p16 + 11, p16 + 12, p16 + 13, p16 + 14, p16 + 15, p16 + 16, p16 + 17, p16 + 18, p16 + 19, p16 + 20, p16 + 21, p16 + 22, p16 + 23, p16 + 24, p16 + 25, p16 + 26, p16 + 27, p16 + 28, p16 + 29, p16 + 30, p16 + 31, p16 + 32, p16 + 33, p16 + 34, p16 + 35, p16 + 36, p16 + 37, p16 + 38, p16 + 39, 11};
Line(17) = {12, 11};
p18 = newp;
Point(p18 + 1) = {23.44337791474623, 2.95493681665511, 0};
Point(p18 + 2) = {23.39914868671825, 3.139164809991317, 0};
Point(p18 + 3) = {23.32664438629851, 3.314205675395029, 0};
Point(p18 + 4) = {23.22765030999132, 3.47574932583268, 0};
Point(p18 + 5) = {23.10460402049786, 3.619818020497856, 0};
Point(p18 + 6) = {22.96053532583268, 3.742864309991317, 0};
Point(p18 + 7) = {22.79899167539503, 3.841858386298511, 0};
Point(p18 + 8) = {22.62395080999132, 3.914362686718252, 0};
Point(p18 + 9) = {22.43972281665511, 3.958591914746229, 0};
Point(p18 + 10) = {22.250844, 3.973457, 0};
Point(p18 + 11) = {22.06196518334489, 3.958591914746229, 0};
Point(p18 + 12) = {21.87773719000868, 3.914362686718252, 0};
Point(p18 + 13) = {21.70269632460497, 3.841858386298511, 0};
Point(p18 + 14) = {21.54115267416732, 3.742864309991317, 0};
Point(p18 + 15) = {21.39708397950215, 3.619818020497856, 0};
Point(p18 + 16) = {21.27403769000868, 3.47574932583268, 0};
Point(p18 + 17) = {21.17504361370149, 3.314205675395029, 0};
Point(p18 + 18) = {21.10253931328175, 3.139164809991317, 0};
Point(p18 + 19) = {21.05831008525377, 2.95493681665511, 0};
Point(p18 + 20) = {21.043445, 2.766058, 0};
Point(p18 + 21) = {21.05831008525377, 2.57717918334489, 0};
Point(p18 + 22) = {21.10253931328175, 2.392951190008683, 0};
Point(p18 + 23) = {21.17504361370149, 2.217910324604972, 0};
Point(p18 + 24) = {21.27403769000868, 2.056366674167321, 0};
Point(p18 + 25) = {21.39708397950215, 1.912297979502144, 0};
Point(p18 + 26) = {21.54115267416732, 1.789251690008683, 0};
Point(p18 + 27) = {21.70269632460497, 1.690257613701489, 0};
Point(p18 + 28) = {21.87773719000868, 1.617753313281748, 0};
Point(p18 + 29) = {22.06196518334489, 1.573524085253772, 0};
Point(p18 + 30) = {22.250844, 1.558659, 0};
Point(p18 + 31) = {22.43972281665511, 1.573524085253772, 0};
Point(p18 + 32) = {22.62395080999132, 1.617753313281748, 0};
Point(p18 + 33) = {22.79899167539503, 1.690257613701489, 0};
Point(p18 + 34) = {22.96053532583268, 1.789251690008683, 0};
Point(p18 + 35) = {23.10460402049786, 1.912297979502144, 0};
Point(p18 + 36) = {23.22765030999132, 2.05636667416732, 0};
Point(p18 + 37) = {23.32664438629851, 2.217910324604971, 0};
Point(p18 + 38) = {23.39914868671825, 2.392951190008683, 0};
Point(p18 + 39) = {23.44337791474623, 2.57717918334489, 0};
Spline(18) = {12, p18 + 1, p18 + 2, p18 + 3, p18 + 4, p18 + 5, p18 + 6, p18 + 7, p18 + 8, p18 + 9, p18 + 10, p18 + 11, p18 + 12, p18 + 13, p18 + 14, p18 + 15, p18 + 16, p18 + 17, p18 + 18, p18 + 19, p18 + 20, p18 + 21, p18 + 22, p18 + 23, p18 + 24, p18 + 25, p18 + 26, p18 + 27, p18 + 28, p18 + 29, p18 + 30, p18 + 31, p18 + 32, p18 + 33, p18 + 34, p18 + 35, p18 + 36, p18 + 37, p18 + 38, p18 + 39, 12};
Line(19) = {14, 13};
Line(20) = {13, 15};
Line(21) = {16, 15};
Line(22) = {14, 16};
Line(23) = {14, 17};
Line(24) = {17, 18};
Line(25) = {13, 18};
Line(26) = {15, 19};
Line(27) = {18, 19};
Line(28) = {16, 20};
Line(29) = {20, 19};
Line(30) = {17, 20};
Curve Loop(7) = {-13, -14, 15, 14};
Surface(7) = {7};
Curve Loop(8) = {13};
Plane Surface(8) = {8};
Curve Loop(9) = {15};
Plane Surface(9) = {9};
Curve Loop(10) = {-16, -17, 18, 17};
Surface(10) = {10};
Curve Loop(11) = {16};
Plane Surface(11) = {11};
Curve Loop(12) = {18};
Plane Surface(12) = {12};
Curve Loop(13) = {-19, 22, 21, -20};
Plane Surface(13) = {13};
Curve Loop(14) = {-23, 19, 25, -24};
Plane Surface(14) = {14};
Curve Loop(15) = {-20, 25, 27, -26};
Plane Surface(15) = {15};
Curve Loop(16) = {-28, 21, 26, -29};
Plane Surface(16) = {16};
Curve Loop(17) = {-22, 23, 30, -28, -18, -15};
Plane Surface(17) = {17};
Curve Loop(18) = {-24, 30, 29, -27};
Plane Surface(18) = {18};
Surface Loop(1) = {13, 14, 15, 16, 17, 18, 10, 7, 11, 8};
Volume(1) = {1};
Surface Loop(2) = {7, 8, 9};
Volume(2) = {2};
Surface Loop(3) = {10, 11, 12};
Volume(3) = {3};
Physical Surface("WALLS") = {13, 18};
Physical Surface("LOAD") = {8, 11};
Physical Surface("BORDER") = {7, 9, 10, 12, 14, 15, 16, 17};
Physical Volume("SOLID") = {1, 2, 3};
