cl__1 = 0.071086;
cl__2 = 0.114226;
cl__3 = 1.914946;
cl__4 = 1.726392;
cl__5 = 0.714724;
cl__6 = 0.843846;
Point(9) = {14.28793, 1.081705, 0.1, cl__1};
Point(10) = {14.28793, 1.081705, 0, cl__1};
Point(11) = {23.792906, -1.218119, 0.1, cl__2};
Point(12) = {23.792906, -1.218119, 0, cl__2};
Point(13) = {0.8620139999999999, -3.58849, 1, cl__3};
Point(14) = {0.8620139999999999, -3.58849, 0, cl__3};
Point(15) = {0.8620139999999999, 4.274186, 1, cl__4};
Point(16) = {0.8620139999999999, 4.274186, 0, cl__4};
Point(17) = {30.844014, -3.58849, 0, cl__5};
Point(18) = {30.844014, -3.58849, 1, cl__5};
Point(19) = {30.844014, 4.274186, 1, cl__6};
Point(20) = {30.844014, 4.274186, 0, cl__6};
p13 = newp;
Point(p13 + 1) = {14.27917817073044, 1.192907534515103, 0.1};
Point(p13 + 2) = {14.25313818200402, 1.301371893570392, 0.1};
Point(p13 + 3) = {14.21045122476497, 1.404427324673355, 0.1};
Point(p13 + 4) = {14.15216839357039, 1.499536261088871, 0.1};
Point(p13 + 5) = {14.07972480515393, 1.584356805153925, 0.1};
Point(p13 + 6) = {13.99490426108887, 1.656800393570392, 0.1};
Point(p13 + 7) = {13.89979532467336, 1.715083224764971, 0.1};
Point(p13 + 8) = {13.79673989357039, 1.757770182004024, 0.1};
Point(p13 + 9) = {13.6882755345151, 1.783810170730438, 0.1};
Point(p13 + 10) = {13.577073, 1.792562, 0.1};
Point(p13 + 11) = {13.4658704654849, 1.783810170730438, 0.1};
Point(p13 + 12) = {13.35740610642961, 1.757770182004024, 0.1};
Point(p13 + 13) = {13.25435067532664, 1.715083224764971, 0.1};
Point(p13 + 14) = {13.15924173891113, 1.656800393570392, 0.1};
Point(p13 + 15) = {13.07442119484607, 1.584356805153925, 0.1};
Point(p13 + 16) = {13.00197760642961, 1.499536261088871, 0.1};
Point(p13 + 17) = {12.94369477523503, 1.404427324673355, 0.1};
Point(p13 + 18) = {12.90100781799598, 1.301371893570392, 0.1};
Point(p13 + 19) = {12.87496782926956, 1.192907534515103, 0.1};
Point(p13 + 20) = {12.866216, 1.081705, 0.1};
Point(p13 + 21) = {12.87496782926956, 0.9705024654848966, 0.1};
Point(p13 + 22) = {12.90100781799598, 0.8620381064296077, 0.1};
Point(p13 + 23) = {12.94369477523503, 0.7589826753266453, 0.1};
Point(p13 + 24) = {13.00197760642961, 0.6638737389111294, 0.1};
Point(p13 + 25) = {13.07442119484607, 0.5790531948460744, 0.1};
Point(p13 + 26) = {13.15924173891113, 0.5066096064296081, 0.1};
Point(p13 + 27) = {13.25435067532664, 0.4483267752350294, 0.1};
Point(p13 + 28) = {13.35740610642961, 0.405639817995976, 0.1};
Point(p13 + 29) = {13.4658704654849, 0.3795998292695622, 0.1};
Point(p13 + 30) = {13.577073, 0.370848, 0.1};
Point(p13 + 31) = {13.6882755345151, 0.3795998292695622, 0.1};
Point(p13 + 32) = {13.79673989357039, 0.4056398179959759, 0.1};
Point(p13 + 33) = {13.89979532467336, 0.4483267752350293, 0.1};
Point(p13 + 34) = {13.99490426108887, 0.5066096064296078, 0.1};
Point(p13 + 35) = {14.07972480515393, 0.5790531948460742, 0.1};
Point(p13 + 36) = {14.15216839357039, 0.6638737389111293, 0.1};
Point(p13 + 37) = {14.21045122476497, 0.7589826753266449, 0.1};
Point(p13 + 38) = {14.25313818200402, 0.8620381064296078, 0.1};
Point(p13 + 39) = {14.27917817073044, 0.9705024654848964, 0.1};
Spline(13) = {9, p13 + 1, p13 + 2, p13 + 3, p13 + 4, p13 + 5, p13 + 6, p13 + 7, p13 + 8, p13 + 9, p13 + 10, p13 + 11, p13 + 12, p13 + 13, p13 + 14, p13 + 15, p13 + 16, p13 + 17, p13 + 18, p13 + 19, p13 + 20, p13 + 21, p13 + 22, p13 + 23, p13 + 24, p13 + 25, p13 + 26, p13 + 27, p13 + 28, p13 + 29, p13 + 30, p13 + 31, p13 + 32, p13 + 33, p13 + 34, p13 + 35, p13 + 36, p13 + 37, p13 + 38, p13 + 39, 9};
Line(14) = {10, 9};
p15 = newp;
Point(p15 + 1) = {14.27917817073044, 1.192907534515103, 0};
Point(p15 + 2) = {14.25313818200402, 1.301371893570392, 0};
Point(p15 + 3) = {14.21045122476497, 1.404427324673355, 0};
Point(p15 + 4) = {14.15216839357039, 1.499536261088871, 0};
Point(p15 + 5) = {14.07972480515393, 1.584356805153925, 0};
Point(p15 + 6) = {13.99490426108887, 1.656800393570392, 0};
Point(p15 + 7) = {13.89979532467336, 1.715083224764971, 0};
Point(p15 + 8) = {13.79673989357039, 1.757770182004024, 0};
Point(p15 + 9) = {13.6882755345151, 1.783810170730438, 0};
Point(p15 + 10) = {13.577073, 1.792562, 0};
Point(p15 + 11) = {13.4658704654849, 1.783810170730438, 0};
Point(p15 + 12) = {13.35740610642961, 1.757770182004024, 0};
Point(p15 + 13) = {13.25435067532664, 1.715083224764971, 0};
Point(p15 + 14) = {13.15924173891113, 1.656800393570392, 0};
Point(p15 + 15) = {13.07442119484607, 1.584356805153925, 0};
Point(p15 + 16) = {13.00197760642961, 1.499536261088871, 0};
Point(p15 + 17) = {12.94369477523503, 1.404427324673355, 0};
Point(p15 + 18) = {12.90100781799598, 1.301371893570392, 0};
Point(p15 + 19) = {12.87496782926956, 1.192907534515103, 0};
Point(p15 + 20) = {12.866216, 1.081705, 0};
Point(p15 + 21) = {12.87496782926956, 0.9705024654848966, 0};
Point(p15 + 22) = {12.90100781799598, 0.8620381064296077, 0};
Point(p15 + 23) = {12.94369477523503, 0.7589826753266453, 0};
Point(p15 + 24) = {13.00197760642961, 0.6638737389111294, 0};
Point(p15 + 25) = {13.07442119484607, 0.5790531948460744, 0};
Point(p15 + 26) = {13.15924173891113, 0.5066096064296081, 0};
Point(p15 + 27) = {13.25435067532664, 0.4483267752350294, 0};
Point(p15 + 28) = {13.35740610642961, 0.405639817995976, 0};
Point(p15 + 29) = {13.4658704654849, 0.3795998292695622, 0};
Point(p15 + 30) = {13.577073, 0.370848, 0};
Point(p15 + 31) = {13.6882755345151, 0.3795998292695622, 0};
Point(p15 + 32) = {13.79673989357039, 0.4056398179959759, 0};
Point(p15 + 33) = {13.89979532467336, 0.4483267752350293, 0};
Point(p15 + 34) = {13.99490426108887, 0.5066096064296078, 0};
Point(p15 + 35) = {14.07972480515393, 0.5790531948460742, 0};
Point(p15 + 36) = {14.15216839357039, 0.6638737389111293, 0};
Point(p15 + 37) = {14.21045122476497, 0.7589826753266449, 0};
Point(p15 + 38) = {14.25313818200402, 0.8620381064296078, 0};
Point(p15 + 39) = {14.27917817073044, 0.9705024654848964, 0};
Spline(15) = {10, p15 + 1, p15 + 2, p15 + 3, p15 + 4, p15 + 5, p15 + 6, p15 + 7, p15 + 8, p15 + 9, p15 + 10, p15 + 11, p15 + 12, p15 + 13, p15 + 14, p15 + 15, p15 + 16, p15 + 17, p15 + 18, p15 + 19, p15 + 20, p15 + 21, p15 + 22, p15 + 23, p15 + 24, p15 + 25, p15 + 26, p15 + 27, p15 + 28, p15 + 29, p15 + 30, p15 + 31, p15 + 32, p15 + 33, p15 + 34, p15 + 35, p15 + 36, p15 + 37, p15 + 38, p15 + 39, 10};
p16 = newp;
Point(p16 + 1) = {23.77884287161654, -1.039430011528681, 0.1};
Point(p16 + 2) = {23.73699976735982, -0.8651409389882782, 0.1};
Point(p16 + 3) = {23.66840700332593, -0.6995433577770056, 0.1};
Point(p16 + 4) = {23.57475356101172, -0.5467148299311473, 0.1};
Point(p16 + 5) = {23.45834549898493, -0.410418501015073, 0.1};
Point(p16 + 6) = {23.32204917006885, -0.2940104389882783, 0.1};
Point(p16 + 7) = {23.169220642223, -0.2003569966740708, 0.1};
Point(p16 + 8) = {23.00362306101172, -0.1317642326401816, 0.1};
Point(p16 + 9) = {22.82933398847132, -0.08992112838345734, 0.1};
Point(p16 + 10) = {22.650645, -0.07585799999999998, 0.1};
Point(p16 + 11) = {22.47195601152868, -0.08992112838345734, 0.1};
Point(p16 + 12) = {22.29766693898828, -0.1317642326401816, 0.1};
Point(p16 + 13) = {22.13206935777701, -0.2003569966740706, 0.1};
Point(p16 + 14) = {21.97924082993115, -0.2940104389882782, 0.1};
Point(p16 + 15) = {21.84294450101507, -0.4104185010150729, 0.1};
Point(p16 + 16) = {21.72653643898828, -0.5467148299311472, 0.1};
Point(p16 + 17) = {21.63288299667407, -0.6995433577770054, 0.1};
Point(p16 + 18) = {21.56429023264018, -0.865140938988278, 0.1};
Point(p16 + 19) = {21.52244712838346, -1.039430011528681, 0.1};
Point(p16 + 20) = {21.508384, -1.218119, 0.1};
Point(p16 + 21) = {21.52244712838346, -1.396807988471319, 0.1};
Point(p16 + 22) = {21.56429023264018, -1.571097061011722, 0.1};
Point(p16 + 23) = {21.63288299667407, -1.736694642222994, 0.1};
Point(p16 + 24) = {21.72653643898828, -1.889523170068852, 0.1};
Point(p16 + 25) = {21.84294450101507, -2.025819498984927, 0.1};
Point(p16 + 26) = {21.97924082993115, -2.142227561011722, 0.1};
Point(p16 + 27) = {22.13206935777701, -2.235881003325929, 0.1};
Point(p16 + 28) = {22.29766693898828, -2.304473767359818, 0.1};
Point(p16 + 29) = {22.47195601152868, -2.346316871616542, 0.1};
Point(p16 + 30) = {22.650645, -2.36038, 0.1};
Point(p16 + 31) = {22.82933398847132, -2.346316871616542, 0.1};
Point(p16 + 32) = {23.00362306101172, -2.304473767359818, 0.1};
Point(p16 + 33) = {23.169220642223, -2.235881003325929, 0.1};
Point(p16 + 34) = {23.32204917006885, -2.142227561011722, 0.1};
Point(p16 + 35) = {23.45834549898493, -2.025819498984927, 0.1};
Point(p16 + 36) = {23.57475356101172, -1.889523170068853, 0.1};
Point(p16 + 37) = {23.66840700332593, -1.736694642222995, 0.1};
Point(p16 + 38) = {23.73699976735982, -1.571097061011722, 0.1};
Point(p16 + 39) = {23.77884287161654, -1.396807988471319, 0.1};
Spline(16) = {11, p16 + 1, p16 + 2, p16 + 3, p16 + 4, p16 + 5, p16 + 6, p16 + 7, p16 + 8, p16 + 9, p16 + 10, p16 + 11, p16 + 12, p16 + 13, p16 + 14, p16 + 15, p16 + 16, p16 + 17, p16 + 18, p16 + 19, p16 + 20, p16 + 21, p16 + 22, p16 + 23, p16 + 24, p16 + 25, p16 + 26, p16 + 27, p16 + 28, p16 + 29, p16 + 30, p16 + 31, p16 + 32, p16 + 33, p16 + 34, p16 + 35, p16 + 36, p16 + 37, p16 + 38, p16 + 39, 11};
Line(17) = {12, 11};
p18 = newp;
Point(p18 + 1) = {23.77884287161654, -1.039430011528681, 0};
Point(p18 + 2) = {23.73699976735982, -0.8651409389882782, 0};
Point(p18 + 3) = {23.66840700332593, -0.6995433577770056, 0};
Point(p18 + 4) = {23.57475356101172, -0.5467148299311473, 0};
Point(p18 + 5) = {23.45834549898493, -0.410418501015073, 0};
Point(p18 + 6) = {23.32204917006885, -0.2940104389882783, 0};
Point(p18 + 7) = {23.169220642223, -0.2003569966740708, 0};
Point(p18 + 8) = {23.00362306101172, -0.1317642326401816, 0};
Point(p18 + 9) = {22.82933398847132, -0.08992112838345734, 0};
Point(p18 + 10) = {22.650645, -0.07585799999999998, 0};
Point(p18 + 11) = {22.47195601152868, -0.08992112838345734, 0};
Point(p18 + 12) = {22.29766693898828, -0.1317642326401816, 0};
Point(p18 + 13) = {22.13206935777701, -0.2003569966740706, 0};
Point(p18 + 14) = {21.97924082993115, -0.2940104389882782, 0};
Point(p18 + 15) = {21.84294450101507, -0.4104185010150729, 0};
Point(p18 + 16) = {21.72653643898828, -0.5467148299311472, 0};
Point(p18 + 17) = {21.63288299667407, -0.6995433577770054, 0};
Point(p18 + 18) = {21.56429023264018, -0.865140938988278, 0};
Point(p18 + 19) = {21.52244712838346, -1.039430011528681, 0};
Point(p18 + 20) = {21.508384, -1.218119, 0};
Point(p18 + 21) = {21.52244712838346, -1.396807988471319, 0};
Point(p18 + 22) = {21.56429023264018, -1.571097061011722, 0};
Point(p18 + 23) = {21.63288299667407, -1.736694642222994, 0};
Point(p18 + 24) = {21.72653643898828, -1.889523170068852, 0};
Point(p18 + 25) = {21.84294450101507, -2.025819498984927, 0};
Point(p18 + 26) = {21.97924082993115, -2.142227561011722, 0};
Point(p18 + 27) = {22.13206935777701, -2.235881003325929, 0};
Point(p18 + 28) = {22.29766693898828, -2.304473767359818, 0};
Point(p18 + 29) = {22.47195601152868, -2.346316871616542, 0};
Point(p18 + 30) = {22.650645, -2.36038, 0};
Point(p18 + 31) = {22.82933398847132, -2.346316871616542, 0};
Point(p18 + 32) = {23.00362306101172, -2.304473767359818, 0};
Point(p18 + 33) = {23.169220642223, -2.235881003325929, 0};
Point(p18 + 34) = {23.32204917006885, -2.142227561011722, 0};
Point(p18 + 35) = {23.45834549898493, -2.025819498984927, 0};
Point(p18 + 36) = {23.57475356101172, -1.889523170068853, 0};
Point(p18 + 37) = {23.66840700332593, -1.736694642222995, 0};
Point(p18 + 38) = {23.73699976735982, -1.571097061011722, 0};
Point(p18 + 39) = {23.77884287161654, -1.396807988471319, 0};
Spline(18) = {12, p18 + 1, p18 + 2, p18 + 3, p18 + 4, p18 + 5, p18 + 6, p18 + 7, p18 + 8, p18 + 9, p18 + 10, p18 + 11, p18 + 12, p18 + 13, p18 + 14, p18 + 15, p18 + 16, p18 + 17, p18 + 18, p18 + 19, p18 + 20, p18 + 21, p18 + 22, p18 + 23, p18 + 24, p18 + 25, p18 + 26, p18 + 27, p18 + 28, p18 + 29, p18 + 30, p18 + 31, p18 + 32, p18 + 33, p18 + 34, p18 + 35, p18 + 36, p18 + 37, p18 + 38, p18 + 39, 12};
Line(19) = {14, 13};
Line(20) = {13, 15};
Line(21) = {16, 15};
Line(22) = {14, 16};
Line(23) = {14, 17};
Line(24) = {17, 18};
Line(25) = {13, 18};
Line(26) = {15, 19};
Line(27) = {18, 19};
Line(28) = {16, 20};
Line(29) = {20, 19};
Line(30) = {17, 20};
Curve Loop(7) = {-13, -14, 15, 14};
Surface(7) = {7};
Curve Loop(8) = {13};
Plane Surface(8) = {8};
Curve Loop(9) = {15};
Plane Surface(9) = {9};
Curve Loop(10) = {-16, -17, 18, 17};
Surface(10) = {10};
Curve Loop(11) = {16};
Plane Surface(11) = {11};
Curve Loop(12) = {18};
Plane Surface(12) = {12};
Curve Loop(13) = {-19, 22, 21, -20};
Plane Surface(13) = {13};
Curve Loop(14) = {-23, 19, 25, -24};
Plane Surface(14) = {14};
Curve Loop(15) = {-20, 25, 27, -26};
Plane Surface(15) = {15};
Curve Loop(16) = {-28, 21, 26, -29};
Plane Surface(16) = {16};
Curve Loop(17) = {-22, 23, 30, -28, -18, -15};
Plane Surface(17) = {17};
Curve Loop(18) = {-24, 30, 29, -27};
Plane Surface(18) = {18};
Surface Loop(1) = {13, 14, 15, 16, 17, 18, 10, 7, 11, 8};
Volume(1) = {1};
Surface Loop(2) = {7, 8, 9};
Volume(2) = {2};
Surface Loop(3) = {10, 11, 12};
Volume(3) = {3};
Physical Surface("WALLS") = {13, 18};
Physical Surface("LOAD") = {8, 11};
Physical Surface("BORDER") = {7, 9, 10, 12, 14, 15, 16, 17};
Physical Volume("SOLID") = {1, 2, 3};
