cl__1 = 0.09167699999999999;
cl__2 = 0.125949;
cl__3 = 4.652743;
cl__4 = 4.499721;
cl__5 = 0.330965;
cl__6 = 0.34867;
Point(9) = {26.502575, -2.230228, 0.1, cl__1};
Point(10) = {26.502575, -2.230228, 0, cl__1};
Point(11) = {26.787857, 2.330477999999999, 0.1, cl__2};
Point(12) = {26.787857, 2.330477999999999, 0, cl__2};
Point(13) = {0.491619, -4.139942, 1, cl__3};
Point(14) = {0.491619, -4.139942, 0, cl__3};
Point(15) = {0.491619, 5.532308, 1, cl__4};
Point(16) = {0.491619, 5.532308, 0, cl__4};
Point(17) = {30.982174, -4.139942, 0, cl__5};
Point(18) = {30.982174, -4.139942, 1, cl__5};
Point(19) = {30.982174, 5.532308, 1, cl__6};
Point(20) = {30.982174, 5.532308, 0, cl__6};
p13 = newp;
Point(p13 + 1) = {26.49128800307243, -2.086813106181672, 0.1};
Point(p13 + 2) = {26.45770493561346, -1.946929563015896, 0.1};
Point(p13 + 3) = {26.40265272419974, -1.814021767582276, 0.1};
Point(p13 + 4) = {26.3274869369841, -1.691362350900072, 0.1};
Point(p13 + 5) = {26.23405840510874, -1.581971594891265, 0.1};
Point(p13 + 6) = {26.12466764909993, -1.488543063015896, 0.1};
Point(p13 + 7) = {26.00200823241773, -1.413377275800257, 0.1};
Point(p13 + 8) = {25.86910043698411, -1.358325064386543, 0.1};
Point(p13 + 9) = {25.72921689381833, -1.324741996927574, 0.1};
Point(p13 + 10) = {25.585802, -1.313455, 0.1};
Point(p13 + 11) = {25.44238710618167, -1.324741996927574, 0.1};
Point(p13 + 12) = {25.3025035630159, -1.358325064386543, 0.1};
Point(p13 + 13) = {25.16959576758228, -1.413377275800257, 0.1};
Point(p13 + 14) = {25.04693635090007, -1.488543063015896, 0.1};
Point(p13 + 15) = {24.93754559489127, -1.581971594891265, 0.1};
Point(p13 + 16) = {24.8441170630159, -1.691362350900072, 0.1};
Point(p13 + 17) = {24.76895127580026, -1.814021767582276, 0.1};
Point(p13 + 18) = {24.71389906438655, -1.946929563015896, 0.1};
Point(p13 + 19) = {24.68031599692758, -2.086813106181672, 0.1};
Point(p13 + 20) = {24.669029, -2.230228, 0.1};
Point(p13 + 21) = {24.68031599692758, -2.373642893818327, 0.1};
Point(p13 + 22) = {24.71389906438655, -2.513526436984104, 0.1};
Point(p13 + 23) = {24.76895127580026, -2.646434232417723, 0.1};
Point(p13 + 24) = {24.8441170630159, -2.769093649099927, 0.1};
Point(p13 + 25) = {24.93754559489127, -2.878484405108734, 0.1};
Point(p13 + 26) = {25.04693635090007, -2.971912936984103, 0.1};
Point(p13 + 27) = {25.16959576758228, -3.047078724199742, 0.1};
Point(p13 + 28) = {25.3025035630159, -3.102130935613457, 0.1};
Point(p13 + 29) = {25.44238710618167, -3.135714003072426, 0.1};
Point(p13 + 30) = {25.585802, -3.147001, 0.1};
Point(p13 + 31) = {25.72921689381833, -3.135714003072426, 0.1};
Point(p13 + 32) = {25.86910043698411, -3.102130935613457, 0.1};
Point(p13 + 33) = {26.00200823241773, -3.047078724199743, 0.1};
Point(p13 + 34) = {26.12466764909993, -2.971912936984104, 0.1};
Point(p13 + 35) = {26.23405840510874, -2.878484405108735, 0.1};
Point(p13 + 36) = {26.3274869369841, -2.769093649099927, 0.1};
Point(p13 + 37) = {26.40265272419974, -2.646434232417723, 0.1};
Point(p13 + 38) = {26.45770493561346, -2.513526436984104, 0.1};
Point(p13 + 39) = {26.49128800307243, -2.373642893818328, 0.1};
Spline(13) = {9, p13 + 1, p13 + 2, p13 + 3, p13 + 4, p13 + 5, p13 + 6, p13 + 7, p13 + 8, p13 + 9, p13 + 10, p13 + 11, p13 + 12, p13 + 13, p13 + 14, p13 + 15, p13 + 16, p13 + 17, p13 + 18, p13 + 19, p13 + 20, p13 + 21, p13 + 22, p13 + 23, p13 + 24, p13 + 25, p13 + 26, p13 + 27, p13 + 28, p13 + 29, p13 + 30, p13 + 31, p13 + 32, p13 + 33, p13 + 34, p13 + 35, p13 + 36, p13 + 37, p13 + 38, p13 + 39, 9};
Line(14) = {10, 9};
p15 = newp;
Point(p15 + 1) = {26.49128800307243, -2.086813106181672, 0};
Point(p15 + 2) = {26.45770493561346, -1.946929563015896, 0};
Point(p15 + 3) = {26.40265272419974, -1.814021767582276, 0};
Point(p15 + 4) = {26.3274869369841, -1.691362350900072, 0};
Point(p15 + 5) = {26.23405840510874, -1.581971594891265, 0};
Point(p15 + 6) = {26.12466764909993, -1.488543063015896, 0};
Point(p15 + 7) = {26.00200823241773, -1.413377275800257, 0};
Point(p15 + 8) = {25.86910043698411, -1.358325064386543, 0};
Point(p15 + 9) = {25.72921689381833, -1.324741996927574, 0};
Point(p15 + 10) = {25.585802, -1.313455, 0};
Point(p15 + 11) = {25.44238710618167, -1.324741996927574, 0};
Point(p15 + 12) = {25.3025035630159, -1.358325064386543, 0};
Point(p15 + 13) = {25.16959576758228, -1.413377275800257, 0};
Point(p15 + 14) = {25.04693635090007, -1.488543063015896, 0};
Point(p15 + 15) = {24.93754559489127, -1.581971594891265, 0};
Point(p15 + 16) = {24.8441170630159, -1.691362350900072, 0};
Point(p15 + 17) = {24.76895127580026, -1.814021767582276, 0};
Point(p15 + 18) = {24.71389906438655, -1.946929563015896, 0};
Point(p15 + 19) = {24.68031599692758, -2.086813106181672, 0};
Point(p15 + 20) = {24.669029, -2.230228, 0};
Point(p15 + 21) = {24.68031599692758, -2.373642893818327, 0};
Point(p15 + 22) = {24.71389906438655, -2.513526436984104, 0};
Point(p15 + 23) = {24.76895127580026, -2.646434232417723, 0};
Point(p15 + 24) = {24.8441170630159, -2.769093649099927, 0};
Point(p15 + 25) = {24.93754559489127, -2.878484405108734, 0};
Point(p15 + 26) = {25.04693635090007, -2.971912936984103, 0};
Point(p15 + 27) = {25.16959576758228, -3.047078724199742, 0};
Point(p15 + 28) = {25.3025035630159, -3.102130935613457, 0};
Point(p15 + 29) = {25.44238710618167, -3.135714003072426, 0};
Point(p15 + 30) = {25.585802, -3.147001, 0};
Point(p15 + 31) = {25.72921689381833, -3.135714003072426, 0};
Point(p15 + 32) = {25.86910043698411, -3.102130935613457, 0};
Point(p15 + 33) = {26.00200823241773, -3.047078724199743, 0};
Point(p15 + 34) = {26.12466764909993, -2.971912936984104, 0};
Point(p15 + 35) = {26.23405840510874, -2.878484405108735, 0};
Point(p15 + 36) = {26.3274869369841, -2.769093649099927, 0};
Point(p15 + 37) = {26.40265272419974, -2.646434232417723, 0};
Point(p15 + 38) = {26.45770493561346, -2.513526436984104, 0};
Point(p15 + 39) = {26.49128800307243, -2.373642893818328, 0};
Spline(15) = {10, p15 + 1, p15 + 2, p15 + 3, p15 + 4, p15 + 5, p15 + 6, p15 + 7, p15 + 8, p15 + 9, p15 + 10, p15 + 11, p15 + 12, p15 + 13, p15 + 14, p15 + 15, p15 + 16, p15 + 17, p15 + 18, p15 + 19, p15 + 20, p15 + 21, p15 + 22, p15 + 23, p15 + 24, p15 + 25, p15 + 26, p15 + 27, p15 + 28, p15 + 29, p15 + 30, p15 + 31, p15 + 32, p15 + 33, p15 + 34, p15 + 35, p15 + 36, p15 + 37, p15 + 38, p15 + 39, 10};
p16 = newp;
Point(p16 + 1) = {26.77235055116119, 2.527506113676915, 0.1};
Point(p16 + 2) = {26.72621302487813, 2.719682741296285, 0.1};
Point(p16 + 3) = {26.65058048016958, 2.902275856488461, 0.1};
Point(p16 + 4) = {26.54731524129629, 3.070789410765604, 0.1};
Point(p16 + 5) = {26.41896004115699, 3.221074041156988, 0.1};
Point(p16 + 6) = {26.2686754107656, 3.349429241296285, 0.1};
Point(p16 + 7) = {26.10016185648846, 3.45269448016958, 0.1};
Point(p16 + 8) = {25.91756874129629, 3.528327024878132, 0.1};
Point(p16 + 9) = {25.72539211367691, 3.574464551161192, 0.1};
Point(p16 + 10) = {25.528364, 3.589971, 0.1};
Point(p16 + 11) = {25.33133588632309, 3.574464551161191, 0.1};
Point(p16 + 12) = {25.13915925870371, 3.528327024878132, 0.1};
Point(p16 + 13) = {24.95656614351154, 3.45269448016958, 0.1};
Point(p16 + 14) = {24.7880525892344, 3.349429241296285, 0.1};
Point(p16 + 15) = {24.63776795884301, 3.221074041156988, 0.1};
Point(p16 + 16) = {24.50941275870371, 3.070789410765604, 0.1};
Point(p16 + 17) = {24.40614751983042, 2.902275856488461, 0.1};
Point(p16 + 18) = {24.33051497512187, 2.719682741296285, 0.1};
Point(p16 + 19) = {24.28437744883881, 2.527506113676916, 0.1};
Point(p16 + 20) = {24.268871, 2.330478, 0.1};
Point(p16 + 21) = {24.28437744883881, 2.133449886323084, 0.1};
Point(p16 + 22) = {24.33051497512187, 1.941273258703714, 0.1};
Point(p16 + 23) = {24.40614751983042, 1.75868014351154, 0.1};
Point(p16 + 24) = {24.50941275870371, 1.590166589234396, 0.1};
Point(p16 + 25) = {24.63776795884301, 1.439881958843012, 0.1};
Point(p16 + 26) = {24.7880525892344, 1.311526758703714, 0.1};
Point(p16 + 27) = {24.95656614351154, 1.20826151983042, 0.1};
Point(p16 + 28) = {25.13915925870371, 1.132628975121868, 0.1};
Point(p16 + 29) = {25.33133588632309, 1.086491448838808, 0.1};
Point(p16 + 30) = {25.528364, 1.070985, 0.1};
Point(p16 + 31) = {25.72539211367691, 1.086491448838808, 0.1};
Point(p16 + 32) = {25.91756874129629, 1.132628975121868, 0.1};
Point(p16 + 33) = {26.10016185648846, 1.20826151983042, 0.1};
Point(p16 + 34) = {26.2686754107656, 1.311526758703714, 0.1};
Point(p16 + 35) = {26.41896004115699, 1.439881958843011, 0.1};
Point(p16 + 36) = {26.54731524129629, 1.590166589234396, 0.1};
Point(p16 + 37) = {26.65058048016958, 1.758680143511539, 0.1};
Point(p16 + 38) = {26.72621302487813, 1.941273258703714, 0.1};
Point(p16 + 39) = {26.77235055116119, 2.133449886323084, 0.1};
Spline(16) = {11, p16 + 1, p16 + 2, p16 + 3, p16 + 4, p16 + 5, p16 + 6, p16 + 7, p16 + 8, p16 + 9, p16 + 10, p16 + 11, p16 + 12, p16 + 13, p16 + 14, p16 + 15, p16 + 16, p16 + 17, p16 + 18, p16 + 19, p16 + 20, p16 + 21, p16 + 22, p16 + 23, p16 + 24, p16 + 25, p16 + 26, p16 + 27, p16 + 28, p16 + 29, p16 + 30, p16 + 31, p16 + 32, p16 + 33, p16 + 34, p16 + 35, p16 + 36, p16 + 37, p16 + 38, p16 + 39, 11};
Line(17) = {12, 11};
p18 = newp;
Point(p18 + 1) = {26.77235055116119, 2.527506113676915, 0};
Point(p18 + 2) = {26.72621302487813, 2.719682741296285, 0};
Point(p18 + 3) = {26.65058048016958, 2.902275856488461, 0};
Point(p18 + 4) = {26.54731524129629, 3.070789410765604, 0};
Point(p18 + 5) = {26.41896004115699, 3.221074041156988, 0};
Point(p18 + 6) = {26.2686754107656, 3.349429241296285, 0};
Point(p18 + 7) = {26.10016185648846, 3.45269448016958, 0};
Point(p18 + 8) = {25.91756874129629, 3.528327024878132, 0};
Point(p18 + 9) = {25.72539211367691, 3.574464551161192, 0};
Point(p18 + 10) = {25.528364, 3.589971, 0};
Point(p18 + 11) = {25.33133588632309, 3.574464551161191, 0};
Point(p18 + 12) = {25.13915925870371, 3.528327024878132, 0};
Point(p18 + 13) = {24.95656614351154, 3.45269448016958, 0};
Point(p18 + 14) = {24.7880525892344, 3.349429241296285, 0};
Point(p18 + 15) = {24.63776795884301, 3.221074041156988, 0};
Point(p18 + 16) = {24.50941275870371, 3.070789410765604, 0};
Point(p18 + 17) = {24.40614751983042, 2.902275856488461, 0};
Point(p18 + 18) = {24.33051497512187, 2.719682741296285, 0};
Point(p18 + 19) = {24.28437744883881, 2.527506113676916, 0};
Point(p18 + 20) = {24.268871, 2.330478, 0};
Point(p18 + 21) = {24.28437744883881, 2.133449886323084, 0};
Point(p18 + 22) = {24.33051497512187, 1.941273258703714, 0};
Point(p18 + 23) = {24.40614751983042, 1.75868014351154, 0};
Point(p18 + 24) = {24.50941275870371, 1.590166589234396, 0};
Point(p18 + 25) = {24.63776795884301, 1.439881958843012, 0};
Point(p18 + 26) = {24.7880525892344, 1.311526758703714, 0};
Point(p18 + 27) = {24.95656614351154, 1.20826151983042, 0};
Point(p18 + 28) = {25.13915925870371, 1.132628975121868, 0};
Point(p18 + 29) = {25.33133588632309, 1.086491448838808, 0};
Point(p18 + 30) = {25.528364, 1.070985, 0};
Point(p18 + 31) = {25.72539211367691, 1.086491448838808, 0};
Point(p18 + 32) = {25.91756874129629, 1.132628975121868, 0};
Point(p18 + 33) = {26.10016185648846, 1.20826151983042, 0};
Point(p18 + 34) = {26.2686754107656, 1.311526758703714, 0};
Point(p18 + 35) = {26.41896004115699, 1.439881958843011, 0};
Point(p18 + 36) = {26.54731524129629, 1.590166589234396, 0};
Point(p18 + 37) = {26.65058048016958, 1.758680143511539, 0};
Point(p18 + 38) = {26.72621302487813, 1.941273258703714, 0};
Point(p18 + 39) = {26.77235055116119, 2.133449886323084, 0};
Spline(18) = {12, p18 + 1, p18 + 2, p18 + 3, p18 + 4, p18 + 5, p18 + 6, p18 + 7, p18 + 8, p18 + 9, p18 + 10, p18 + 11, p18 + 12, p18 + 13, p18 + 14, p18 + 15, p18 + 16, p18 + 17, p18 + 18, p18 + 19, p18 + 20, p18 + 21, p18 + 22, p18 + 23, p18 + 24, p18 + 25, p18 + 26, p18 + 27, p18 + 28, p18 + 29, p18 + 30, p18 + 31, p18 + 32, p18 + 33, p18 + 34, p18 + 35, p18 + 36, p18 + 37, p18 + 38, p18 + 39, 12};
Line(19) = {14, 13};
Line(20) = {13, 15};
Line(21) = {16, 15};
Line(22) = {14, 16};
Line(23) = {14, 17};
Line(24) = {17, 18};
Line(25) = {13, 18};
Line(26) = {15, 19};
Line(27) = {18, 19};
Line(28) = {16, 20};
Line(29) = {20, 19};
Line(30) = {17, 20};
Curve Loop(7) = {-13, -14, 15, 14};
Surface(7) = {7};
Curve Loop(8) = {13};
Plane Surface(8) = {8};
Curve Loop(9) = {15};
Plane Surface(9) = {9};
Curve Loop(10) = {-16, -17, 18, 17};
Surface(10) = {10};
Curve Loop(11) = {16};
Plane Surface(11) = {11};
Curve Loop(12) = {18};
Plane Surface(12) = {12};
Curve Loop(13) = {-19, 22, 21, -20};
Plane Surface(13) = {13};
Curve Loop(14) = {-23, 19, 25, -24};
Plane Surface(14) = {14};
Curve Loop(15) = {-20, 25, 27, -26};
Plane Surface(15) = {15};
Curve Loop(16) = {-28, 21, 26, -29};
Plane Surface(16) = {16};
Curve Loop(17) = {-22, 23, 30, -28, -15, -18};
Plane Surface(17) = {17};
Curve Loop(18) = {-24, 30, 29, -27};
Plane Surface(18) = {18};
Surface Loop(1) = {13, 14, 15, 16, 17, 18, 7, 10, 8, 11};
Volume(1) = {1};
Surface Loop(2) = {7, 8, 9};
Volume(2) = {2};
Surface Loop(3) = {10, 11, 12};
Volume(3) = {3};
Physical Surface("WALLS") = {13, 18};
Physical Surface("LOAD") = {8, 11};
Physical Surface("BORDER") = {7, 9, 10, 12, 14, 15, 16, 17};
Physical Volume("SOLID") = {1, 2, 3};
