cl__1 = 0.135208;
cl__2 = 0.051908;
cl__3 = 0.968539;
cl__4 = 1.131407;
cl__5 = 1.172447;
cl__6 = 0.934986;
Point(9) = {15.556122, -1.719937, 0.1, cl__1};
Point(10) = {15.556122, -1.719937, 0, cl__1};
Point(11) = {24.644148, 2.739707, 0.1, cl__2};
Point(12) = {24.644148, 2.739707, 0, cl__2};
Point(13) = {0.617965, -3.707332, 1, cl__3};
Point(14) = {0.617965, -3.707332, 0, cl__3};
Point(15) = {0.617965, 3.813503, 1, cl__4};
Point(16) = {0.617965, 3.813503, 0, cl__4};
Point(17) = {36.547579, -3.707332, 0, cl__5};
Point(18) = {36.547579, -3.707332, 1, cl__5};
Point(19) = {36.547579, 3.813503, 1, cl__6};
Point(20) = {36.547579, 3.813503, 0, cl__6};
p13 = newp;
Point(p13 + 1) = {15.5394756146169, -1.50842461920501, 0.1};
Point(p13 + 2) = {15.4899463477219, -1.302120375194538, 0.1};
Point(p13 + 3) = {15.40875377424418, -1.106104163140655, 0.1};
Point(p13 + 4) = {15.29789712480546, -0.9252025527246361, 0.1};
Point(p13 + 5) = {15.16010605802705, -0.7638699419729494, 0.1};
Point(p13 + 6) = {14.99877344727536, -0.6260788751945381, 0.1};
Point(p13 + 7) = {14.81787183685934, -0.5152222257558192, 0.1};
Point(p13 + 8) = {14.62185562480546, -0.4340296522781, 0.1};
Point(p13 + 9) = {14.41555138079499, -0.3845003853831044, 0.1};
Point(p13 + 10) = {14.204039, -0.3678540000000001, 0.1};
Point(p13 + 11) = {13.99252661920501, -0.3845003853831046, 0.1};
Point(p13 + 12) = {13.78622237519454, -0.4340296522781, 0.1};
Point(p13 + 13) = {13.59020616314065, -0.515222225755819, 0.1};
Point(p13 + 14) = {13.40930455272464, -0.6260788751945381, 0.1};
Point(p13 + 15) = {13.24797194197295, -0.7638699419729493, 0.1};
Point(p13 + 16) = {13.11018087519454, -0.925202552724636, 0.1};
Point(p13 + 17) = {12.99932422575582, -1.106104163140654, 0.1};
Point(p13 + 18) = {12.9181316522781, -1.302120375194538, 0.1};
Point(p13 + 19) = {12.8686023853831, -1.508424619205009, 0.1};
Point(p13 + 20) = {12.851956, -1.719937, 0.1};
Point(p13 + 21) = {12.8686023853831, -1.93144938079499, 0.1};
Point(p13 + 22) = {12.9181316522781, -2.137753624805462, 0.1};
Point(p13 + 23) = {12.99932422575582, -2.333769836859345, 0.1};
Point(p13 + 24) = {13.11018087519454, -2.514671447275364, 0.1};
Point(p13 + 25) = {13.24797194197295, -2.676004058027051, 0.1};
Point(p13 + 26) = {13.40930455272464, -2.813795124805462, 0.1};
Point(p13 + 27) = {13.59020616314065, -2.924651774244181, 0.1};
Point(p13 + 28) = {13.78622237519454, -3.0058443477219, 0.1};
Point(p13 + 29) = {13.99252661920501, -3.055373614616895, 0.1};
Point(p13 + 30) = {14.204039, -3.07202, 0.1};
Point(p13 + 31) = {14.41555138079499, -3.055373614616895, 0.1};
Point(p13 + 32) = {14.62185562480546, -3.0058443477219, 0.1};
Point(p13 + 33) = {14.81787183685934, -2.924651774244181, 0.1};
Point(p13 + 34) = {14.99877344727536, -2.813795124805462, 0.1};
Point(p13 + 35) = {15.16010605802705, -2.676004058027051, 0.1};
Point(p13 + 36) = {15.29789712480546, -2.514671447275364, 0.1};
Point(p13 + 37) = {15.40875377424418, -2.333769836859346, 0.1};
Point(p13 + 38) = {15.4899463477219, -2.137753624805462, 0.1};
Point(p13 + 39) = {15.5394756146169, -1.931449380794991, 0.1};
Spline(13) = {9, p13 + 1, p13 + 2, p13 + 3, p13 + 4, p13 + 5, p13 + 6, p13 + 7, p13 + 8, p13 + 9, p13 + 10, p13 + 11, p13 + 12, p13 + 13, p13 + 14, p13 + 15, p13 + 16, p13 + 17, p13 + 18, p13 + 19, p13 + 20, p13 + 21, p13 + 22, p13 + 23, p13 + 24, p13 + 25, p13 + 26, p13 + 27, p13 + 28, p13 + 29, p13 + 30, p13 + 31, p13 + 32, p13 + 33, p13 + 34, p13 + 35, p13 + 36, p13 + 37, p13 + 38, p13 + 39, 9};
Line(14) = {10, 9};
p15 = newp;
Point(p15 + 1) = {15.5394756146169, -1.50842461920501, 0};
Point(p15 + 2) = {15.4899463477219, -1.302120375194538, 0};
Point(p15 + 3) = {15.40875377424418, -1.106104163140655, 0};
Point(p15 + 4) = {15.29789712480546, -0.9252025527246361, 0};
Point(p15 + 5) = {15.16010605802705, -0.7638699419729494, 0};
Point(p15 + 6) = {14.99877344727536, -0.6260788751945381, 0};
Point(p15 + 7) = {14.81787183685934, -0.5152222257558192, 0};
Point(p15 + 8) = {14.62185562480546, -0.4340296522781, 0};
Point(p15 + 9) = {14.41555138079499, -0.3845003853831044, 0};
Point(p15 + 10) = {14.204039, -0.3678540000000001, 0};
Point(p15 + 11) = {13.99252661920501, -0.3845003853831046, 0};
Point(p15 + 12) = {13.78622237519454, -0.4340296522781, 0};
Point(p15 + 13) = {13.59020616314065, -0.515222225755819, 0};
Point(p15 + 14) = {13.40930455272464, -0.6260788751945381, 0};
Point(p15 + 15) = {13.24797194197295, -0.7638699419729493, 0};
Point(p15 + 16) = {13.11018087519454, -0.925202552724636, 0};
Point(p15 + 17) = {12.99932422575582, -1.106104163140654, 0};
Point(p15 + 18) = {12.9181316522781, -1.302120375194538, 0};
Point(p15 + 19) = {12.8686023853831, -1.508424619205009, 0};
Point(p15 + 20) = {12.851956, -1.719937, 0};
Point(p15 + 21) = {12.8686023853831, -1.93144938079499, 0};
Point(p15 + 22) = {12.9181316522781, -2.137753624805462, 0};
Point(p15 + 23) = {12.99932422575582, -2.333769836859345, 0};
Point(p15 + 24) = {13.11018087519454, -2.514671447275364, 0};
Point(p15 + 25) = {13.24797194197295, -2.676004058027051, 0};
Point(p15 + 26) = {13.40930455272464, -2.813795124805462, 0};
Point(p15 + 27) = {13.59020616314065, -2.924651774244181, 0};
Point(p15 + 28) = {13.78622237519454, -3.0058443477219, 0};
Point(p15 + 29) = {13.99252661920501, -3.055373614616895, 0};
Point(p15 + 30) = {14.204039, -3.07202, 0};
Point(p15 + 31) = {14.41555138079499, -3.055373614616895, 0};
Point(p15 + 32) = {14.62185562480546, -3.0058443477219, 0};
Point(p15 + 33) = {14.81787183685934, -2.924651774244181, 0};
Point(p15 + 34) = {14.99877344727536, -2.813795124805462, 0};
Point(p15 + 35) = {15.16010605802705, -2.676004058027051, 0};
Point(p15 + 36) = {15.29789712480546, -2.514671447275364, 0};
Point(p15 + 37) = {15.40875377424418, -2.333769836859346, 0};
Point(p15 + 38) = {15.4899463477219, -2.137753624805462, 0};
Point(p15 + 39) = {15.5394756146169, -1.931449380794991, 0};
Spline(15) = {10, p15 + 1, p15 + 2, p15 + 3, p15 + 4, p15 + 5, p15 + 6, p15 + 7, p15 + 8, p15 + 9, p15 + 10, p15 + 11, p15 + 12, p15 + 13, p15 + 14, p15 + 15, p15 + 16, p15 + 17, p15 + 18, p15 + 19, p15 + 20, p15 + 21, p15 + 22, p15 + 23, p15 + 24, p15 + 25, p15 + 26, p15 + 27, p15 + 28, p15 + 29, p15 + 30, p15 + 31, p15 + 32, p15 + 33, p15 + 34, p15 + 35, p15 + 36, p15 + 37, p15 + 38, p15 + 39, 10};
p16 = newp;
Point(p16 + 1) = {24.63775728845944, 2.820908689244153, 0.1};
Point(p16 + 2) = {24.61874251436546, 2.900110923406159, 0.1};
Point(p16 + 3) = {24.58757188456265, 2.975363480623805, 0.1};
Point(p16 + 4) = {24.54501292340616, 3.044813393189473, 0.1};
Point(p16 + 5) = {24.49211357376475, 3.106750573764751, 0.1};
Point(p16 + 6) = {24.43017639318947, 3.159649923406159, 0.1};
Point(p16 + 7) = {24.36072648062381, 3.20220888456265, 0.1};
Point(p16 + 8) = {24.28547392340616, 3.233379514365456, 0.1};
Point(p16 + 9) = {24.20627168924415, 3.252394288459443, 0.1};
Point(p16 + 10) = {24.12507, 3.258785, 0.1};
Point(p16 + 11) = {24.04386831075585, 3.252394288459443, 0.1};
Point(p16 + 12) = {23.96466607659384, 3.233379514365456, 0.1};
Point(p16 + 13) = {23.88941351937619, 3.20220888456265, 0.1};
Point(p16 + 14) = {23.81996360681053, 3.159649923406159, 0.1};
Point(p16 + 15) = {23.75802642623525, 3.106750573764751, 0.1};
Point(p16 + 16) = {23.70512707659384, 3.044813393189473, 0.1};
Point(p16 + 17) = {23.66256811543735, 2.975363480623805, 0.1};
Point(p16 + 18) = {23.63139748563454, 2.900110923406159, 0.1};
Point(p16 + 19) = {23.61238271154056, 2.820908689244153, 0.1};
Point(p16 + 20) = {23.605992, 2.739707, 0.1};
Point(p16 + 21) = {23.61238271154056, 2.658505310755847, 0.1};
Point(p16 + 22) = {23.63139748563454, 2.579303076593841, 0.1};
Point(p16 + 23) = {23.66256811543735, 2.504050519376196, 0.1};
Point(p16 + 24) = {23.70512707659384, 2.434600606810528, 0.1};
Point(p16 + 25) = {23.75802642623525, 2.37266342623525, 0.1};
Point(p16 + 26) = {23.81996360681053, 2.319764076593841, 0.1};
Point(p16 + 27) = {23.88941351937619, 2.277205115437351, 0.1};
Point(p16 + 28) = {23.96466607659384, 2.246034485634544, 0.1};
Point(p16 + 29) = {24.04386831075585, 2.227019711540557, 0.1};
Point(p16 + 30) = {24.12507, 2.220629, 0.1};
Point(p16 + 31) = {24.20627168924415, 2.227019711540557, 0.1};
Point(p16 + 32) = {24.28547392340616, 2.246034485634544, 0.1};
Point(p16 + 33) = {24.3607264806238, 2.27720511543735, 0.1};
Point(p16 + 34) = {24.43017639318947, 2.319764076593841, 0.1};
Point(p16 + 35) = {24.49211357376475, 2.372663426235249, 0.1};
Point(p16 + 36) = {24.54501292340616, 2.434600606810528, 0.1};
Point(p16 + 37) = {24.58757188456265, 2.504050519376196, 0.1};
Point(p16 + 38) = {24.61874251436546, 2.579303076593841, 0.1};
Point(p16 + 39) = {24.63775728845944, 2.658505310755847, 0.1};
Spline(16) = {11, p16 + 1, p16 + 2, p16 + 3, p16 + 4, p16 + 5, p16 + 6, p16 + 7, p16 + 8, p16 + 9, p16 + 10, p16 + 11, p16 + 12, p16 + 13, p16 + 14, p16 + 15, p16 + 16, p16 + 17, p16 + 18, p16 + 19, p16 + 20, p16 + 21, p16 + 22, p16 + 23, p16 + 24, p16 + 25, p16 + 26, p16 + 27, p16 + 28, p16 + 29, p16 + 30, p16 + 31, p16 + 32, p16 + 33, p16 + 34, p16 + 35, p16 + 36, p16 + 37, p16 + 38, p16 + 39, 11};
Line(17) = {12, 11};
p18 = newp;
Point(p18 + 1) = {24.63775728845944, 2.820908689244153, 0};
Point(p18 + 2) = {24.61874251436546, 2.900110923406159, 0};
Point(p18 + 3) = {24.58757188456265, 2.975363480623805, 0};
Point(p18 + 4) = {24.54501292340616, 3.044813393189473, 0};
Point(p18 + 5) = {24.49211357376475, 3.106750573764751, 0};
Point(p18 + 6) = {24.43017639318947, 3.159649923406159, 0};
Point(p18 + 7) = {24.36072648062381, 3.20220888456265, 0};
Point(p18 + 8) = {24.28547392340616, 3.233379514365456, 0};
Point(p18 + 9) = {24.20627168924415, 3.252394288459443, 0};
Point(p18 + 10) = {24.12507, 3.258785, 0};
Point(p18 + 11) = {24.04386831075585, 3.252394288459443, 0};
Point(p18 + 12) = {23.96466607659384, 3.233379514365456, 0};
Point(p18 + 13) = {23.88941351937619, 3.20220888456265, 0};
Point(p18 + 14) = {23.81996360681053, 3.159649923406159, 0};
Point(p18 + 15) = {23.75802642623525, 3.106750573764751, 0};
Point(p18 + 16) = {23.70512707659384, 3.044813393189473, 0};
Point(p18 + 17) = {23.66256811543735, 2.975363480623805, 0};
Point(p18 + 18) = {23.63139748563454, 2.900110923406159, 0};
Point(p18 + 19) = {23.61238271154056, 2.820908689244153, 0};
Point(p18 + 20) = {23.605992, 2.739707, 0};
Point(p18 + 21) = {23.61238271154056, 2.658505310755847, 0};
Point(p18 + 22) = {23.63139748563454, 2.579303076593841, 0};
Point(p18 + 23) = {23.66256811543735, 2.504050519376196, 0};
Point(p18 + 24) = {23.70512707659384, 2.434600606810528, 0};
Point(p18 + 25) = {23.75802642623525, 2.37266342623525, 0};
Point(p18 + 26) = {23.81996360681053, 2.319764076593841, 0};
Point(p18 + 27) = {23.88941351937619, 2.277205115437351, 0};
Point(p18 + 28) = {23.96466607659384, 2.246034485634544, 0};
Point(p18 + 29) = {24.04386831075585, 2.227019711540557, 0};
Point(p18 + 30) = {24.12507, 2.220629, 0};
Point(p18 + 31) = {24.20627168924415, 2.227019711540557, 0};
Point(p18 + 32) = {24.28547392340616, 2.246034485634544, 0};
Point(p18 + 33) = {24.3607264806238, 2.27720511543735, 0};
Point(p18 + 34) = {24.43017639318947, 2.319764076593841, 0};
Point(p18 + 35) = {24.49211357376475, 2.372663426235249, 0};
Point(p18 + 36) = {24.54501292340616, 2.434600606810528, 0};
Point(p18 + 37) = {24.58757188456265, 2.504050519376196, 0};
Point(p18 + 38) = {24.61874251436546, 2.579303076593841, 0};
Point(p18 + 39) = {24.63775728845944, 2.658505310755847, 0};
Spline(18) = {12, p18 + 1, p18 + 2, p18 + 3, p18 + 4, p18 + 5, p18 + 6, p18 + 7, p18 + 8, p18 + 9, p18 + 10, p18 + 11, p18 + 12, p18 + 13, p18 + 14, p18 + 15, p18 + 16, p18 + 17, p18 + 18, p18 + 19, p18 + 20, p18 + 21, p18 + 22, p18 + 23, p18 + 24, p18 + 25, p18 + 26, p18 + 27, p18 + 28, p18 + 29, p18 + 30, p18 + 31, p18 + 32, p18 + 33, p18 + 34, p18 + 35, p18 + 36, p18 + 37, p18 + 38, p18 + 39, 12};
Line(19) = {14, 13};
Line(20) = {13, 15};
Line(21) = {16, 15};
Line(22) = {14, 16};
Line(23) = {14, 17};
Line(24) = {17, 18};
Line(25) = {13, 18};
Line(26) = {15, 19};
Line(27) = {18, 19};
Line(28) = {16, 20};
Line(29) = {20, 19};
Line(30) = {17, 20};
Curve Loop(7) = {-13, -14, 15, 14};
Surface(7) = {7};
Curve Loop(8) = {13};
Plane Surface(8) = {8};
Curve Loop(9) = {15};
Plane Surface(9) = {9};
Curve Loop(10) = {-16, -17, 18, 17};
Surface(10) = {10};
Curve Loop(11) = {16};
Plane Surface(11) = {11};
Curve Loop(12) = {18};
Plane Surface(12) = {12};
Curve Loop(13) = {-19, 22, 21, -20};
Plane Surface(13) = {13};
Curve Loop(14) = {-23, 19, 25, -24};
Plane Surface(14) = {14};
Curve Loop(15) = {-20, 25, 27, -26};
Plane Surface(15) = {15};
Curve Loop(16) = {-28, 21, 26, -29};
Plane Surface(16) = {16};
Curve Loop(17) = {-22, 23, 30, -28, -15, -18};
Plane Surface(17) = {17};
Curve Loop(18) = {-24, 30, 29, -27};
Plane Surface(18) = {18};
Surface Loop(1) = {13, 14, 15, 16, 17, 18, 7, 10, 8, 11};
Volume(1) = {1};
Surface Loop(2) = {7, 8, 9};
Volume(2) = {2};
Surface Loop(3) = {10, 11, 12};
Volume(3) = {3};
Physical Surface("WALLS") = {13, 18};
Physical Surface("LOAD") = {8, 11};
Physical Surface("BORDER") = {7, 9, 10, 12, 14, 15, 16, 17};
Physical Volume("SOLID") = {1, 2, 3};
