cl__1 = 0.061871;
cl__2 = 0.060264;
cl__3 = 3.408932;
cl__4 = 3.20197;
cl__5 = 0.465264;
cl__6 = 0.5558110000000001;
Point(9) = {33.179902, -0.4562860000000001, 0.1, cl__1};
Point(10) = {33.179902, -0.4562860000000001, 0, cl__1};
Point(11) = {19.509104, 1.322113, 0.1, cl__2};
Point(12) = {19.509104, 1.322113, 0, cl__2};
Point(13) = {0.235, -3.851029, 1, cl__3};
Point(14) = {0.235, -3.851029, 0, cl__3};
Point(15) = {0.235, 4.769216999999999, 1, cl__4};
Point(16) = {0.235, 4.769216999999999, 0, cl__4};
Point(17) = {38.012613, -3.851029, 0, cl__5};
Point(18) = {38.012613, -3.851029, 1, cl__5};
Point(19) = {38.012613, 4.769216999999999, 1, cl__6};
Point(20) = {38.012613, 4.769216999999999, 0, cl__6};
p13 = newp;
Point(p13 + 1) = {33.17228469014459, -0.3594989014383539, 0.1};
Point(p13 + 2) = {33.14962032402742, -0.2650950224612594, 0.1};
Point(p13 + 3) = {33.11246697356101, -0.1753988998776443, 0.1};
Point(p13 + 4) = {33.06173947753874, -0.09261914990988085, 0.1};
Point(p13 + 5) = {32.99868691526758, -0.01879408473241478, 0.1};
Point(p13 + 6) = {32.92486185009012, 0.04425847753874051, 0.1};
Point(p13 + 7) = {32.84208210012235, 0.0949859735610124, 0.1};
Point(p13 + 8) = {32.75238597753874, 0.1321393240274255, 0.1};
Point(p13 + 9) = {32.65798209856165, 0.1548036901445959, 0.1};
Point(p13 + 10) = {32.561195, 0.162421, 0.1};
Point(p13 + 11) = {32.46440790143835, 0.1548036901445958, 0.1};
Point(p13 + 12) = {32.37000402246126, 0.1321393240274256, 0.1};
Point(p13 + 13) = {32.28030789987764, 0.09498597356101252, 0.1};
Point(p13 + 14) = {32.19752814990988, 0.04425847753874063, 0.1};
Point(p13 + 15) = {32.12370308473241, -0.01879408473241473, 0.1};
Point(p13 + 16) = {32.06065052246126, -0.09261914990988079, 0.1};
Point(p13 + 17) = {32.00992302643898, -0.1753988998776442, 0.1};
Point(p13 + 18) = {31.97276967597257, -0.2650950224612594, 0.1};
Point(p13 + 19) = {31.9501053098554, -0.3594989014383538, 0.1};
Point(p13 + 20) = {31.942488, -0.456286, 0.1};
Point(p13 + 21) = {31.9501053098554, -0.5530730985616461, 0.1};
Point(p13 + 22) = {31.97276967597257, -0.6474769775387408, 0.1};
Point(p13 + 23) = {32.00992302643898, -0.7371731001223555, 0.1};
Point(p13 + 24) = {32.06065052246126, -0.8199528500901192, 0.1};
Point(p13 + 25) = {32.12370308473241, -0.8937779152675853, 0.1};
Point(p13 + 26) = {32.19752814990988, -0.9568304775387406, 0.1};
Point(p13 + 27) = {32.28030789987764, -1.007557973561013, 0.1};
Point(p13 + 28) = {32.37000402246126, -1.044711324027426, 0.1};
Point(p13 + 29) = {32.46440790143835, -1.067375690144596, 0.1};
Point(p13 + 30) = {32.561195, -1.074993, 0.1};
Point(p13 + 31) = {32.65798209856165, -1.067375690144596, 0.1};
Point(p13 + 32) = {32.75238597753874, -1.044711324027426, 0.1};
Point(p13 + 33) = {32.84208210012235, -1.007557973561013, 0.1};
Point(p13 + 34) = {32.92486185009012, -0.9568304775387406, 0.1};
Point(p13 + 35) = {32.99868691526758, -0.8937779152675853, 0.1};
Point(p13 + 36) = {33.06173947753874, -0.8199528500901192, 0.1};
Point(p13 + 37) = {33.11246697356101, -0.7371731001223559, 0.1};
Point(p13 + 38) = {33.14962032402742, -0.6474769775387408, 0.1};
Point(p13 + 39) = {33.17228469014459, -0.5530730985616463, 0.1};
Spline(13) = {9, p13 + 1, p13 + 2, p13 + 3, p13 + 4, p13 + 5, p13 + 6, p13 + 7, p13 + 8, p13 + 9, p13 + 10, p13 + 11, p13 + 12, p13 + 13, p13 + 14, p13 + 15, p13 + 16, p13 + 17, p13 + 18, p13 + 19, p13 + 20, p13 + 21, p13 + 22, p13 + 23, p13 + 24, p13 + 25, p13 + 26, p13 + 27, p13 + 28, p13 + 29, p13 + 30, p13 + 31, p13 + 32, p13 + 33, p13 + 34, p13 + 35, p13 + 36, p13 + 37, p13 + 38, p13 + 39, 9};
Line(14) = {10, 9};
p15 = newp;
Point(p15 + 1) = {33.17228469014459, -0.3594989014383539, 0};
Point(p15 + 2) = {33.14962032402742, -0.2650950224612594, 0};
Point(p15 + 3) = {33.11246697356101, -0.1753988998776443, 0};
Point(p15 + 4) = {33.06173947753874, -0.09261914990988085, 0};
Point(p15 + 5) = {32.99868691526758, -0.01879408473241478, 0};
Point(p15 + 6) = {32.92486185009012, 0.04425847753874051, 0};
Point(p15 + 7) = {32.84208210012235, 0.0949859735610124, 0};
Point(p15 + 8) = {32.75238597753874, 0.1321393240274255, 0};
Point(p15 + 9) = {32.65798209856165, 0.1548036901445959, 0};
Point(p15 + 10) = {32.561195, 0.162421, 0};
Point(p15 + 11) = {32.46440790143835, 0.1548036901445958, 0};
Point(p15 + 12) = {32.37000402246126, 0.1321393240274256, 0};
Point(p15 + 13) = {32.28030789987764, 0.09498597356101252, 0};
Point(p15 + 14) = {32.19752814990988, 0.04425847753874063, 0};
Point(p15 + 15) = {32.12370308473241, -0.01879408473241473, 0};
Point(p15 + 16) = {32.06065052246126, -0.09261914990988079, 0};
Point(p15 + 17) = {32.00992302643898, -0.1753988998776442, 0};
Point(p15 + 18) = {31.97276967597257, -0.2650950224612594, 0};
Point(p15 + 19) = {31.9501053098554, -0.3594989014383538, 0};
Point(p15 + 20) = {31.942488, -0.456286, 0};
Point(p15 + 21) = {31.9501053098554, -0.5530730985616461, 0};
Point(p15 + 22) = {31.97276967597257, -0.6474769775387408, 0};
Point(p15 + 23) = {32.00992302643898, -0.7371731001223555, 0};
Point(p15 + 24) = {32.06065052246126, -0.8199528500901192, 0};
Point(p15 + 25) = {32.12370308473241, -0.8937779152675853, 0};
Point(p15 + 26) = {32.19752814990988, -0.9568304775387406, 0};
Point(p15 + 27) = {32.28030789987764, -1.007557973561013, 0};
Point(p15 + 28) = {32.37000402246126, -1.044711324027426, 0};
Point(p15 + 29) = {32.46440790143835, -1.067375690144596, 0};
Point(p15 + 30) = {32.561195, -1.074993, 0};
Point(p15 + 31) = {32.65798209856165, -1.067375690144596, 0};
Point(p15 + 32) = {32.75238597753874, -1.044711324027426, 0};
Point(p15 + 33) = {32.84208210012235, -1.007557973561013, 0};
Point(p15 + 34) = {32.92486185009012, -0.9568304775387406, 0};
Point(p15 + 35) = {32.99868691526758, -0.8937779152675853, 0};
Point(p15 + 36) = {33.06173947753874, -0.8199528500901192, 0};
Point(p15 + 37) = {33.11246697356101, -0.7371731001223559, 0};
Point(p15 + 38) = {33.14962032402742, -0.6474769775387408, 0};
Point(p15 + 39) = {33.17228469014459, -0.5530730985616463, 0};
Spline(15) = {10, p15 + 1, p15 + 2, p15 + 3, p15 + 4, p15 + 5, p15 + 6, p15 + 7, p15 + 8, p15 + 9, p15 + 10, p15 + 11, p15 + 12, p15 + 13, p15 + 14, p15 + 15, p15 + 16, p15 + 17, p15 + 18, p15 + 19, p15 + 20, p15 + 21, p15 + 22, p15 + 23, p15 + 24, p15 + 25, p15 + 26, p15 + 27, p15 + 28, p15 + 29, p15 + 30, p15 + 31, p15 + 32, p15 + 33, p15 + 34, p15 + 35, p15 + 36, p15 + 37, p15 + 38, p15 + 39, 10};
p16 = newp;
Point(p16 + 1) = {19.50168446464128, 1.41638713531524, 0.1};
Point(p16 + 2) = {19.47960855214966, 1.508339928541101, 0.1};
Point(p16 + 3) = {19.44341984475645, 1.59570719673454, 0.1};
Point(p16 + 4) = {19.3940094285411, 1.676337667797293, 0.1};
Point(p16 + 5) = {19.33259395193461, 1.748245951934605, 0.1};
Point(p16 + 6) = {19.26068566779729, 1.809661428541101, 0.1};
Point(p16 + 7) = {19.18005519673454, 1.859071844756451, 0.1};
Point(p16 + 8) = {19.0926879285411, 1.89526055214966, 0.1};
Point(p16 + 9) = {19.00073513531524, 1.917336464641276, 0.1};
Point(p16 + 10) = {18.906461, 1.924756, 0.1};
Point(p16 + 11) = {18.81218686468476, 1.917336464641276, 0.1};
Point(p16 + 12) = {18.7202340714589, 1.89526055214966, 0.1};
Point(p16 + 13) = {18.63286680326546, 1.859071844756451, 0.1};
Point(p16 + 14) = {18.55223633220271, 1.809661428541101, 0.1};
Point(p16 + 15) = {18.4803280480654, 1.748245951934605, 0.1};
Point(p16 + 16) = {18.4189125714589, 1.676337667797293, 0.1};
Point(p16 + 17) = {18.36950215524355, 1.59570719673454, 0.1};
Point(p16 + 18) = {18.33331344785034, 1.508339928541102, 0.1};
Point(p16 + 19) = {18.31123753535872, 1.41638713531524, 0.1};
Point(p16 + 20) = {18.303818, 1.322113, 0.1};
Point(p16 + 21) = {18.31123753535872, 1.22783886468476, 0.1};
Point(p16 + 22) = {18.33331344785034, 1.135886071458899, 0.1};
Point(p16 + 23) = {18.36950215524355, 1.048518803265461, 0.1};
Point(p16 + 24) = {18.4189125714589, 0.9678883322027072, 0.1};
Point(p16 + 25) = {18.4803280480654, 0.8959800480653956, 0.1};
Point(p16 + 26) = {18.55223633220271, 0.8345645714588987, 0.1};
Point(p16 + 27) = {18.63286680326546, 0.7851541552435495, 0.1};
Point(p16 + 28) = {18.7202340714589, 0.7489654478503398, 0.1};
Point(p16 + 29) = {18.81218686468476, 0.7268895353587245, 0.1};
Point(p16 + 30) = {18.906461, 0.7194700000000001, 0.1};
Point(p16 + 31) = {19.00073513531524, 0.7268895353587245, 0.1};
Point(p16 + 32) = {19.0926879285411, 0.7489654478503398, 0.1};
Point(p16 + 33) = {19.18005519673454, 0.7851541552435494, 0.1};
Point(p16 + 34) = {19.26068566779729, 0.8345645714588985, 0.1};
Point(p16 + 35) = {19.33259395193461, 0.8959800480653954, 0.1};
Point(p16 + 36) = {19.3940094285411, 0.9678883322027071, 0.1};
Point(p16 + 37) = {19.44341984475645, 1.04851880326546, 0.1};
Point(p16 + 38) = {19.47960855214966, 1.135886071458899, 0.1};
Point(p16 + 39) = {19.50168446464128, 1.22783886468476, 0.1};
Spline(16) = {11, p16 + 1, p16 + 2, p16 + 3, p16 + 4, p16 + 5, p16 + 6, p16 + 7, p16 + 8, p16 + 9, p16 + 10, p16 + 11, p16 + 12, p16 + 13, p16 + 14, p16 + 15, p16 + 16, p16 + 17, p16 + 18, p16 + 19, p16 + 20, p16 + 21, p16 + 22, p16 + 23, p16 + 24, p16 + 25, p16 + 26, p16 + 27, p16 + 28, p16 + 29, p16 + 30, p16 + 31, p16 + 32, p16 + 33, p16 + 34, p16 + 35, p16 + 36, p16 + 37, p16 + 38, p16 + 39, 11};
Line(17) = {12, 11};
p18 = newp;
Point(p18 + 1) = {19.50168446464128, 1.41638713531524, 0};
Point(p18 + 2) = {19.47960855214966, 1.508339928541101, 0};
Point(p18 + 3) = {19.44341984475645, 1.59570719673454, 0};
Point(p18 + 4) = {19.3940094285411, 1.676337667797293, 0};
Point(p18 + 5) = {19.33259395193461, 1.748245951934605, 0};
Point(p18 + 6) = {19.26068566779729, 1.809661428541101, 0};
Point(p18 + 7) = {19.18005519673454, 1.859071844756451, 0};
Point(p18 + 8) = {19.0926879285411, 1.89526055214966, 0};
Point(p18 + 9) = {19.00073513531524, 1.917336464641276, 0};
Point(p18 + 10) = {18.906461, 1.924756, 0};
Point(p18 + 11) = {18.81218686468476, 1.917336464641276, 0};
Point(p18 + 12) = {18.7202340714589, 1.89526055214966, 0};
Point(p18 + 13) = {18.63286680326546, 1.859071844756451, 0};
Point(p18 + 14) = {18.55223633220271, 1.809661428541101, 0};
Point(p18 + 15) = {18.4803280480654, 1.748245951934605, 0};
Point(p18 + 16) = {18.4189125714589, 1.676337667797293, 0};
Point(p18 + 17) = {18.36950215524355, 1.59570719673454, 0};
Point(p18 + 18) = {18.33331344785034, 1.508339928541102, 0};
Point(p18 + 19) = {18.31123753535872, 1.41638713531524, 0};
Point(p18 + 20) = {18.303818, 1.322113, 0};
Point(p18 + 21) = {18.31123753535872, 1.22783886468476, 0};
Point(p18 + 22) = {18.33331344785034, 1.135886071458899, 0};
Point(p18 + 23) = {18.36950215524355, 1.048518803265461, 0};
Point(p18 + 24) = {18.4189125714589, 0.9678883322027072, 0};
Point(p18 + 25) = {18.4803280480654, 0.8959800480653956, 0};
Point(p18 + 26) = {18.55223633220271, 0.8345645714588987, 0};
Point(p18 + 27) = {18.63286680326546, 0.7851541552435495, 0};
Point(p18 + 28) = {18.7202340714589, 0.7489654478503398, 0};
Point(p18 + 29) = {18.81218686468476, 0.7268895353587245, 0};
Point(p18 + 30) = {18.906461, 0.7194700000000001, 0};
Point(p18 + 31) = {19.00073513531524, 0.7268895353587245, 0};
Point(p18 + 32) = {19.0926879285411, 0.7489654478503398, 0};
Point(p18 + 33) = {19.18005519673454, 0.7851541552435494, 0};
Point(p18 + 34) = {19.26068566779729, 0.8345645714588985, 0};
Point(p18 + 35) = {19.33259395193461, 0.8959800480653954, 0};
Point(p18 + 36) = {19.3940094285411, 0.9678883322027071, 0};
Point(p18 + 37) = {19.44341984475645, 1.04851880326546, 0};
Point(p18 + 38) = {19.47960855214966, 1.135886071458899, 0};
Point(p18 + 39) = {19.50168446464128, 1.22783886468476, 0};
Spline(18) = {12, p18 + 1, p18 + 2, p18 + 3, p18 + 4, p18 + 5, p18 + 6, p18 + 7, p18 + 8, p18 + 9, p18 + 10, p18 + 11, p18 + 12, p18 + 13, p18 + 14, p18 + 15, p18 + 16, p18 + 17, p18 + 18, p18 + 19, p18 + 20, p18 + 21, p18 + 22, p18 + 23, p18 + 24, p18 + 25, p18 + 26, p18 + 27, p18 + 28, p18 + 29, p18 + 30, p18 + 31, p18 + 32, p18 + 33, p18 + 34, p18 + 35, p18 + 36, p18 + 37, p18 + 38, p18 + 39, 12};
Line(19) = {14, 13};
Line(20) = {13, 15};
Line(21) = {16, 15};
Line(22) = {14, 16};
Line(23) = {14, 17};
Line(24) = {17, 18};
Line(25) = {13, 18};
Line(26) = {15, 19};
Line(27) = {18, 19};
Line(28) = {16, 20};
Line(29) = {20, 19};
Line(30) = {17, 20};
Curve Loop(7) = {-13, -14, 15, 14};
Surface(7) = {7};
Curve Loop(8) = {13};
Plane Surface(8) = {8};
Curve Loop(9) = {15};
Plane Surface(9) = {9};
Curve Loop(10) = {-16, -17, 18, 17};
Surface(10) = {10};
Curve Loop(11) = {16};
Plane Surface(11) = {11};
Curve Loop(12) = {18};
Plane Surface(12) = {12};
Curve Loop(13) = {-19, 22, 21, -20};
Plane Surface(13) = {13};
Curve Loop(14) = {-23, 19, 25, -24};
Plane Surface(14) = {14};
Curve Loop(15) = {-20, 25, 27, -26};
Plane Surface(15) = {15};
Curve Loop(16) = {-28, 21, 26, -29};
Plane Surface(16) = {16};
Curve Loop(17) = {-22, 23, 30, -28, -15, -18};
Plane Surface(17) = {17};
Curve Loop(18) = {-24, 30, 29, -27};
Plane Surface(18) = {18};
Surface Loop(1) = {13, 14, 15, 16, 17, 18, 7, 10, 8, 11};
Volume(1) = {1};
Surface Loop(2) = {7, 8, 9};
Volume(2) = {2};
Surface Loop(3) = {10, 11, 12};
Volume(3) = {3};
Physical Surface("WALLS") = {13, 18};
Physical Surface("LOAD") = {8, 11};
Physical Surface("BORDER") = {7, 9, 10, 12, 14, 15, 16, 17};
Physical Volume("SOLID") = {1, 2, 3};
