cl__1 = 0.07033399999999999;
cl__2 = 0.069048;
cl__3 = 0.211067;
cl__4 = 0.17967;
cl__5 = 5.690445;
cl__6 = 6.06787;
Point(9) = {6.023851000000001, -2.286815, 0.1, cl__1};
Point(10) = {6.023851000000001, -2.286815, 0, cl__1};
Point(11) = {4.359256, 1.997281, 0.1, cl__2};
Point(12) = {4.359256, 1.997281, 0, cl__2};
Point(13) = {0.914741, -3.884222, 1, cl__3};
Point(14) = {0.914741, -3.884222, 0, cl__3};
Point(15) = {0.914741, 5.008995000000001, 1, cl__4};
Point(16) = {0.914741, 5.008995000000001, 0, cl__4};
Point(17) = {39.677862, -3.884222, 0, cl__5};
Point(18) = {39.677862, -3.884222, 1, cl__5};
Point(19) = {39.677862, 5.008995000000001, 1, cl__6};
Point(20) = {39.677862, 5.008995000000001, 0, cl__6};
p13 = newp;
Point(p13 + 1) = {6.015191754409162, -2.176788852661999, 0.1};
Point(p13 + 2) = {5.989427237001484, -2.069471914227307, 0.1};
Point(p13 + 3) = {5.947191855703075, -1.967506683884686, 0.1};
Point(p13 + 4) = {5.889525585772692, -1.873403884008369, 0.1};
Point(p13 + 5) = {5.817848362159403, -1.789480637840597, 0.1};
Point(p13 + 6) = {5.733925115991632, -1.717803414227308, 0.1};
Point(p13 + 7) = {5.639822316115314, -1.660137144296926, 0.1};
Point(p13 + 8) = {5.537857085772693, -1.617901762998515, 0.1};
Point(p13 + 9) = {5.430540147338001, -1.592137245590838, 0.1};
Point(p13 + 10) = {5.320514, -1.583478, 0.1};
Point(p13 + 11) = {5.210487852661999, -1.592137245590838, 0.1};
Point(p13 + 12) = {5.103170914227308, -1.617901762998515, 0.1};
Point(p13 + 13) = {5.001205683884686, -1.660137144296926, 0.1};
Point(p13 + 14) = {4.907102884008369, -1.717803414227308, 0.1};
Point(p13 + 15) = {4.823179637840598, -1.789480637840597, 0.1};
Point(p13 + 16) = {4.751502414227308, -1.873403884008368, 0.1};
Point(p13 + 17) = {4.693836144296927, -1.967506683884686, 0.1};
Point(p13 + 18) = {4.651600762998516, -2.069471914227307, 0.1};
Point(p13 + 19) = {4.625836245590838, -2.176788852661999, 0.1};
Point(p13 + 20) = {4.617177, -2.286815, 0.1};
Point(p13 + 21) = {4.625836245590838, -2.396841147338001, 0.1};
Point(p13 + 22) = {4.651600762998516, -2.504158085772692, 0.1};
Point(p13 + 23) = {4.693836144296926, -2.606123316115313, 0.1};
Point(p13 + 24) = {4.751502414227308, -2.700226115991631, 0.1};
Point(p13 + 25) = {4.823179637840598, -2.784149362159403, 0.1};
Point(p13 + 26) = {4.907102884008369, -2.855826585772692, 0.1};
Point(p13 + 27) = {5.001205683884686, -2.913492855703074, 0.1};
Point(p13 + 28) = {5.103170914227308, -2.955728237001484, 0.1};
Point(p13 + 29) = {5.210487852661999, -2.981492754409162, 0.1};
Point(p13 + 30) = {5.320514, -2.990152, 0.1};
Point(p13 + 31) = {5.430540147338001, -2.981492754409162, 0.1};
Point(p13 + 32) = {5.537857085772693, -2.955728237001484, 0.1};
Point(p13 + 33) = {5.639822316115314, -2.913492855703074, 0.1};
Point(p13 + 34) = {5.733925115991632, -2.855826585772692, 0.1};
Point(p13 + 35) = {5.817848362159403, -2.784149362159403, 0.1};
Point(p13 + 36) = {5.889525585772692, -2.700226115991631, 0.1};
Point(p13 + 37) = {5.947191855703074, -2.606123316115314, 0.1};
Point(p13 + 38) = {5.989427237001484, -2.504158085772692, 0.1};
Point(p13 + 39) = {6.015191754409162, -2.396841147338001, 0.1};
Spline(13) = {9, p13 + 1, p13 + 2, p13 + 3, p13 + 4, p13 + 5, p13 + 6, p13 + 7, p13 + 8, p13 + 9, p13 + 10, p13 + 11, p13 + 12, p13 + 13, p13 + 14, p13 + 15, p13 + 16, p13 + 17, p13 + 18, p13 + 19, p13 + 20, p13 + 21, p13 + 22, p13 + 23, p13 + 24, p13 + 25, p13 + 26, p13 + 27, p13 + 28, p13 + 29, p13 + 30, p13 + 31, p13 + 32, p13 + 33, p13 + 34, p13 + 35, p13 + 36, p13 + 37, p13 + 38, p13 + 39, 9};
Line(14) = {10, 9};
p15 = newp;
Point(p15 + 1) = {6.015191754409162, -2.176788852661999, 0};
Point(p15 + 2) = {5.989427237001484, -2.069471914227307, 0};
Point(p15 + 3) = {5.947191855703075, -1.967506683884686, 0};
Point(p15 + 4) = {5.889525585772692, -1.873403884008369, 0};
Point(p15 + 5) = {5.817848362159403, -1.789480637840597, 0};
Point(p15 + 6) = {5.733925115991632, -1.717803414227308, 0};
Point(p15 + 7) = {5.639822316115314, -1.660137144296926, 0};
Point(p15 + 8) = {5.537857085772693, -1.617901762998515, 0};
Point(p15 + 9) = {5.430540147338001, -1.592137245590838, 0};
Point(p15 + 10) = {5.320514, -1.583478, 0};
Point(p15 + 11) = {5.210487852661999, -1.592137245590838, 0};
Point(p15 + 12) = {5.103170914227308, -1.617901762998515, 0};
Point(p15 + 13) = {5.001205683884686, -1.660137144296926, 0};
Point(p15 + 14) = {4.907102884008369, -1.717803414227308, 0};
Point(p15 + 15) = {4.823179637840598, -1.789480637840597, 0};
Point(p15 + 16) = {4.751502414227308, -1.873403884008368, 0};
Point(p15 + 17) = {4.693836144296927, -1.967506683884686, 0};
Point(p15 + 18) = {4.651600762998516, -2.069471914227307, 0};
Point(p15 + 19) = {4.625836245590838, -2.176788852661999, 0};
Point(p15 + 20) = {4.617177, -2.286815, 0};
Point(p15 + 21) = {4.625836245590838, -2.396841147338001, 0};
Point(p15 + 22) = {4.651600762998516, -2.504158085772692, 0};
Point(p15 + 23) = {4.693836144296926, -2.606123316115313, 0};
Point(p15 + 24) = {4.751502414227308, -2.700226115991631, 0};
Point(p15 + 25) = {4.823179637840598, -2.784149362159403, 0};
Point(p15 + 26) = {4.907102884008369, -2.855826585772692, 0};
Point(p15 + 27) = {5.001205683884686, -2.913492855703074, 0};
Point(p15 + 28) = {5.103170914227308, -2.955728237001484, 0};
Point(p15 + 29) = {5.210487852661999, -2.981492754409162, 0};
Point(p15 + 30) = {5.320514, -2.990152, 0};
Point(p15 + 31) = {5.430540147338001, -2.981492754409162, 0};
Point(p15 + 32) = {5.537857085772693, -2.955728237001484, 0};
Point(p15 + 33) = {5.639822316115314, -2.913492855703074, 0};
Point(p15 + 34) = {5.733925115991632, -2.855826585772692, 0};
Point(p15 + 35) = {5.817848362159403, -2.784149362159403, 0};
Point(p15 + 36) = {5.889525585772692, -2.700226115991631, 0};
Point(p15 + 37) = {5.947191855703074, -2.606123316115314, 0};
Point(p15 + 38) = {5.989427237001484, -2.504158085772692, 0};
Point(p15 + 39) = {6.015191754409162, -2.396841147338001, 0};
Spline(15) = {10, p15 + 1, p15 + 2, p15 + 3, p15 + 4, p15 + 5, p15 + 6, p15 + 7, p15 + 8, p15 + 9, p15 + 10, p15 + 11, p15 + 12, p15 + 13, p15 + 14, p15 + 15, p15 + 16, p15 + 17, p15 + 18, p15 + 19, p15 + 20, p15 + 21, p15 + 22, p15 + 23, p15 + 24, p15 + 25, p15 + 26, p15 + 27, p15 + 28, p15 + 29, p15 + 30, p15 + 31, p15 + 32, p15 + 33, p15 + 34, p15 + 35, p15 + 36, p15 + 37, p15 + 38, p15 + 39, 10};
p16 = newp;
Point(p16 + 1) = {4.350755020790812, 2.105296182289909, 0.1};
Point(p16 + 2) = {4.325461405484511, 2.210651672310003, 0.1};
Point(p16 + 3) = {4.283997966834633, 2.310753268241162, 0.1};
Point(p16 + 4) = {4.227385672310002, 2.403136136573412, 0.1};
Point(p16 + 5) = {4.15701850448725, 2.48552550448725, 0.1};
Point(p16 + 6) = {4.074629136573412, 2.555892672310002, 0.1};
Point(p16 + 7) = {3.982246268241162, 2.612504966834633, 0.1};
Point(p16 + 8) = {3.882144672310003, 2.65396840548451, 0.1};
Point(p16 + 9) = {3.776789182289909, 2.679262020790812, 0.1};
Point(p16 + 10) = {3.668774, 2.687763, 0.1};
Point(p16 + 11) = {3.560758817710091, 2.679262020790812, 0.1};
Point(p16 + 12) = {3.455403327689997, 2.65396840548451, 0.1};
Point(p16 + 13) = {3.355301731758838, 2.612504966834633, 0.1};
Point(p16 + 14) = {3.262918863426588, 2.555892672310002, 0.1};
Point(p16 + 15) = {3.18052949551275, 2.48552550448725, 0.1};
Point(p16 + 16) = {3.110162327689998, 2.403136136573412, 0.1};
Point(p16 + 17) = {3.053550033165367, 2.310753268241162, 0.1};
Point(p16 + 18) = {3.01208659451549, 2.210651672310003, 0.1};
Point(p16 + 19) = {2.986792979209188, 2.105296182289909, 0.1};
Point(p16 + 20) = {2.978292, 1.997281, 0.1};
Point(p16 + 21) = {2.986792979209188, 1.889265817710091, 0.1};
Point(p16 + 22) = {3.01208659451549, 1.783910327689997, 0.1};
Point(p16 + 23) = {3.053550033165367, 1.683808731758839, 0.1};
Point(p16 + 24) = {3.110162327689998, 1.591425863426589, 0.1};
Point(p16 + 25) = {3.18052949551275, 1.50903649551275, 0.1};
Point(p16 + 26) = {3.262918863426588, 1.438669327689998, 0.1};
Point(p16 + 27) = {3.355301731758838, 1.382057033165367, 0.1};
Point(p16 + 28) = {3.455403327689997, 1.34059359451549, 0.1};
Point(p16 + 29) = {3.560758817710091, 1.315299979209188, 0.1};
Point(p16 + 30) = {3.668774, 1.306799, 0.1};
Point(p16 + 31) = {3.776789182289908, 1.315299979209188, 0.1};
Point(p16 + 32) = {3.882144672310002, 1.34059359451549, 0.1};
Point(p16 + 33) = {3.982246268241162, 1.382057033165367, 0.1};
Point(p16 + 34) = {4.074629136573411, 1.438669327689998, 0.1};
Point(p16 + 35) = {4.15701850448725, 1.50903649551275, 0.1};
Point(p16 + 36) = {4.227385672310002, 1.591425863426589, 0.1};
Point(p16 + 37) = {4.283997966834633, 1.683808731758838, 0.1};
Point(p16 + 38) = {4.325461405484511, 1.783910327689997, 0.1};
Point(p16 + 39) = {4.350755020790812, 1.889265817710091, 0.1};
Spline(16) = {11, p16 + 1, p16 + 2, p16 + 3, p16 + 4, p16 + 5, p16 + 6, p16 + 7, p16 + 8, p16 + 9, p16 + 10, p16 + 11, p16 + 12, p16 + 13, p16 + 14, p16 + 15, p16 + 16, p16 + 17, p16 + 18, p16 + 19, p16 + 20, p16 + 21, p16 + 22, p16 + 23, p16 + 24, p16 + 25, p16 + 26, p16 + 27, p16 + 28, p16 + 29, p16 + 30, p16 + 31, p16 + 32, p16 + 33, p16 + 34, p16 + 35, p16 + 36, p16 + 37, p16 + 38, p16 + 39, 11};
Line(17) = {12, 11};
p18 = newp;
Point(p18 + 1) = {4.350755020790812, 2.105296182289909, 0};
Point(p18 + 2) = {4.325461405484511, 2.210651672310003, 0};
Point(p18 + 3) = {4.283997966834633, 2.310753268241162, 0};
Point(p18 + 4) = {4.227385672310002, 2.403136136573412, 0};
Point(p18 + 5) = {4.15701850448725, 2.48552550448725, 0};
Point(p18 + 6) = {4.074629136573412, 2.555892672310002, 0};
Point(p18 + 7) = {3.982246268241162, 2.612504966834633, 0};
Point(p18 + 8) = {3.882144672310003, 2.65396840548451, 0};
Point(p18 + 9) = {3.776789182289909, 2.679262020790812, 0};
Point(p18 + 10) = {3.668774, 2.687763, 0};
Point(p18 + 11) = {3.560758817710091, 2.679262020790812, 0};
Point(p18 + 12) = {3.455403327689997, 2.65396840548451, 0};
Point(p18 + 13) = {3.355301731758838, 2.612504966834633, 0};
Point(p18 + 14) = {3.262918863426588, 2.555892672310002, 0};
Point(p18 + 15) = {3.18052949551275, 2.48552550448725, 0};
Point(p18 + 16) = {3.110162327689998, 2.403136136573412, 0};
Point(p18 + 17) = {3.053550033165367, 2.310753268241162, 0};
Point(p18 + 18) = {3.01208659451549, 2.210651672310003, 0};
Point(p18 + 19) = {2.986792979209188, 2.105296182289909, 0};
Point(p18 + 20) = {2.978292, 1.997281, 0};
Point(p18 + 21) = {2.986792979209188, 1.889265817710091, 0};
Point(p18 + 22) = {3.01208659451549, 1.783910327689997, 0};
Point(p18 + 23) = {3.053550033165367, 1.683808731758839, 0};
Point(p18 + 24) = {3.110162327689998, 1.591425863426589, 0};
Point(p18 + 25) = {3.18052949551275, 1.50903649551275, 0};
Point(p18 + 26) = {3.262918863426588, 1.438669327689998, 0};
Point(p18 + 27) = {3.355301731758838, 1.382057033165367, 0};
Point(p18 + 28) = {3.455403327689997, 1.34059359451549, 0};
Point(p18 + 29) = {3.560758817710091, 1.315299979209188, 0};
Point(p18 + 30) = {3.668774, 1.306799, 0};
Point(p18 + 31) = {3.776789182289908, 1.315299979209188, 0};
Point(p18 + 32) = {3.882144672310002, 1.34059359451549, 0};
Point(p18 + 33) = {3.982246268241162, 1.382057033165367, 0};
Point(p18 + 34) = {4.074629136573411, 1.438669327689998, 0};
Point(p18 + 35) = {4.15701850448725, 1.50903649551275, 0};
Point(p18 + 36) = {4.227385672310002, 1.591425863426589, 0};
Point(p18 + 37) = {4.283997966834633, 1.683808731758838, 0};
Point(p18 + 38) = {4.325461405484511, 1.783910327689997, 0};
Point(p18 + 39) = {4.350755020790812, 1.889265817710091, 0};
Spline(18) = {12, p18 + 1, p18 + 2, p18 + 3, p18 + 4, p18 + 5, p18 + 6, p18 + 7, p18 + 8, p18 + 9, p18 + 10, p18 + 11, p18 + 12, p18 + 13, p18 + 14, p18 + 15, p18 + 16, p18 + 17, p18 + 18, p18 + 19, p18 + 20, p18 + 21, p18 + 22, p18 + 23, p18 + 24, p18 + 25, p18 + 26, p18 + 27, p18 + 28, p18 + 29, p18 + 30, p18 + 31, p18 + 32, p18 + 33, p18 + 34, p18 + 35, p18 + 36, p18 + 37, p18 + 38, p18 + 39, 12};
Line(19) = {14, 13};
Line(20) = {13, 15};
Line(21) = {16, 15};
Line(22) = {14, 16};
Line(23) = {14, 17};
Line(24) = {17, 18};
Line(25) = {13, 18};
Line(26) = {15, 19};
Line(27) = {18, 19};
Line(28) = {16, 20};
Line(29) = {20, 19};
Line(30) = {17, 20};
Curve Loop(7) = {-13, -14, 15, 14};
Surface(7) = {7};
Curve Loop(8) = {13};
Plane Surface(8) = {8};
Curve Loop(9) = {15};
Plane Surface(9) = {9};
Curve Loop(10) = {-16, -17, 18, 17};
Surface(10) = {10};
Curve Loop(11) = {16};
Plane Surface(11) = {11};
Curve Loop(12) = {18};
Plane Surface(12) = {12};
Curve Loop(13) = {-19, 22, 21, -20};
Plane Surface(13) = {13};
Curve Loop(14) = {-23, 19, 25, -24};
Plane Surface(14) = {14};
Curve Loop(15) = {-20, 25, 27, -26};
Plane Surface(15) = {15};
Curve Loop(16) = {-28, 21, 26, -29};
Plane Surface(16) = {16};
Curve Loop(17) = {-22, 23, 30, -28, -15, -18};
Plane Surface(17) = {17};
Curve Loop(18) = {-24, 30, 29, -27};
Plane Surface(18) = {18};
Surface Loop(1) = {13, 14, 15, 16, 17, 18, 7, 10, 8, 11};
Volume(1) = {1};
Surface Loop(2) = {7, 8, 9};
Volume(2) = {2};
Surface Loop(3) = {10, 11, 12};
Volume(3) = {3};
Physical Surface("WALLS") = {13, 18};
Physical Surface("LOAD") = {8, 11};
Physical Surface("BORDER") = {7, 9, 10, 12, 14, 15, 16, 17};
Physical Volume("SOLID") = {1, 2, 3};
