cl__1 = 0.117156;
cl__2 = 0.06944500000000001;
cl__3 = 0.353091;
cl__4 = 0.502904;
cl__5 = 3.628648;
cl__6 = 4.152571;
Point(9) = {18.820321, -0.4121390000000003, 0.1, cl__1};
Point(10) = {18.820321, -0.4121390000000003, 0, cl__1};
Point(11) = {3.558602, 0.08907099999999983, 0.1, cl__2};
Point(12) = {3.558602, 0.08907099999999983, 0, cl__2};
Point(13) = {0.222144, -2.842521, 1, cl__3};
Point(14) = {0.222144, -2.842521, 0, cl__3};
Point(15) = {0.222144, 4.713851, 1, cl__4};
Point(16) = {0.222144, 4.713851, 0, cl__4};
Point(17) = {32.779272, -2.842521, 0, cl__5};
Point(18) = {32.779272, -2.842521, 1, cl__5};
Point(19) = {32.779272, 4.713851, 1, cl__6};
Point(20) = {32.779272, 4.713851, 0, cl__6};
p13 = newp;
Point(p13 + 1) = {18.80589717693096, -0.2288669510063972, 0.1};
Point(p13 + 2) = {18.76298087011772, -0.05010766810407535, 0.1};
Point(p13 + 3) = {18.69262882146507, 0.119737201893864, 0.1};
Point(p13 + 4) = {18.59657333189593, 0.2764855146052653, 0.1};
Point(p13 + 5) = {18.47717960635335, 0.4162776063533493, 0.1};
Point(p13 + 6) = {18.33738751460526, 0.5356713318959248, 0.1};
Point(p13 + 7) = {18.18063920189386, 0.6317268214650757, 0.1};
Point(p13 + 8) = {18.01079433189592, 0.7020788701177176, 0.1};
Point(p13 + 9) = {17.8320350489936, 0.7449951769309584, 0.1};
Point(p13 + 10) = {17.648763, 0.7594190000000001, 0.1};
Point(p13 + 11) = {17.46549095100639, 0.7449951769309584, 0.1};
Point(p13 + 12) = {17.28673166810407, 0.7020788701177176, 0.1};
Point(p13 + 13) = {17.11688679810613, 0.631726821465076, 0.1};
Point(p13 + 14) = {16.96013848539473, 0.5356713318959248, 0.1};
Point(p13 + 15) = {16.82034639364665, 0.4162776063533494, 0.1};
Point(p13 + 16) = {16.70095266810407, 0.2764855146052654, 0.1};
Point(p13 + 17) = {16.60489717853492, 0.1197372018938641, 0.1};
Point(p13 + 18) = {16.53454512988228, -0.05010766810407519, 0.1};
Point(p13 + 19) = {16.49162882306904, -0.228866951006397, 0.1};
Point(p13 + 20) = {16.477205, -0.4121389999999998, 0.1};
Point(p13 + 21) = {16.49162882306904, -0.5954110489936026, 0.1};
Point(p13 + 22) = {16.53454512988228, -0.774170331895925, 0.1};
Point(p13 + 23) = {16.60489717853492, -0.9440152018938635, 0.1};
Point(p13 + 24) = {16.70095266810407, -1.100763514605265, 0.1};
Point(p13 + 25) = {16.82034639364665, -1.240555606353349, 0.1};
Point(p13 + 26) = {16.96013848539473, -1.359949331895925, 0.1};
Point(p13 + 27) = {17.11688679810613, -1.456004821465076, 0.1};
Point(p13 + 28) = {17.28673166810407, -1.526356870117718, 0.1};
Point(p13 + 29) = {17.46549095100639, -1.569273176930958, 0.1};
Point(p13 + 30) = {17.648763, -1.583697, 0.1};
Point(p13 + 31) = {17.8320350489936, -1.569273176930958, 0.1};
Point(p13 + 32) = {18.01079433189592, -1.526356870117718, 0.1};
Point(p13 + 33) = {18.18063920189386, -1.456004821465076, 0.1};
Point(p13 + 34) = {18.33738751460526, -1.359949331895925, 0.1};
Point(p13 + 35) = {18.47717960635335, -1.240555606353349, 0.1};
Point(p13 + 36) = {18.59657333189593, -1.100763514605265, 0.1};
Point(p13 + 37) = {18.69262882146507, -0.9440152018938641, 0.1};
Point(p13 + 38) = {18.76298087011772, -0.7741703318959249, 0.1};
Point(p13 + 39) = {18.80589717693096, -0.5954110489936031, 0.1};
Spline(13) = {9, p13 + 1, p13 + 2, p13 + 3, p13 + 4, p13 + 5, p13 + 6, p13 + 7, p13 + 8, p13 + 9, p13 + 10, p13 + 11, p13 + 12, p13 + 13, p13 + 14, p13 + 15, p13 + 16, p13 + 17, p13 + 18, p13 + 19, p13 + 20, p13 + 21, p13 + 22, p13 + 23, p13 + 24, p13 + 25, p13 + 26, p13 + 27, p13 + 28, p13 + 29, p13 + 30, p13 + 31, p13 + 32, p13 + 33, p13 + 34, p13 + 35, p13 + 36, p13 + 37, p13 + 38, p13 + 39, 9};
Line(14) = {10, 9};
p15 = newp;
Point(p15 + 1) = {18.80589717693096, -0.2288669510063972, 0};
Point(p15 + 2) = {18.76298087011772, -0.05010766810407535, 0};
Point(p15 + 3) = {18.69262882146507, 0.119737201893864, 0};
Point(p15 + 4) = {18.59657333189593, 0.2764855146052653, 0};
Point(p15 + 5) = {18.47717960635335, 0.4162776063533493, 0};
Point(p15 + 6) = {18.33738751460526, 0.5356713318959248, 0};
Point(p15 + 7) = {18.18063920189386, 0.6317268214650757, 0};
Point(p15 + 8) = {18.01079433189592, 0.7020788701177176, 0};
Point(p15 + 9) = {17.8320350489936, 0.7449951769309584, 0};
Point(p15 + 10) = {17.648763, 0.7594190000000001, 0};
Point(p15 + 11) = {17.46549095100639, 0.7449951769309584, 0};
Point(p15 + 12) = {17.28673166810407, 0.7020788701177176, 0};
Point(p15 + 13) = {17.11688679810613, 0.631726821465076, 0};
Point(p15 + 14) = {16.96013848539473, 0.5356713318959248, 0};
Point(p15 + 15) = {16.82034639364665, 0.4162776063533494, 0};
Point(p15 + 16) = {16.70095266810407, 0.2764855146052654, 0};
Point(p15 + 17) = {16.60489717853492, 0.1197372018938641, 0};
Point(p15 + 18) = {16.53454512988228, -0.05010766810407519, 0};
Point(p15 + 19) = {16.49162882306904, -0.228866951006397, 0};
Point(p15 + 20) = {16.477205, -0.4121389999999998, 0};
Point(p15 + 21) = {16.49162882306904, -0.5954110489936026, 0};
Point(p15 + 22) = {16.53454512988228, -0.774170331895925, 0};
Point(p15 + 23) = {16.60489717853492, -0.9440152018938635, 0};
Point(p15 + 24) = {16.70095266810407, -1.100763514605265, 0};
Point(p15 + 25) = {16.82034639364665, -1.240555606353349, 0};
Point(p15 + 26) = {16.96013848539473, -1.359949331895925, 0};
Point(p15 + 27) = {17.11688679810613, -1.456004821465076, 0};
Point(p15 + 28) = {17.28673166810407, -1.526356870117718, 0};
Point(p15 + 29) = {17.46549095100639, -1.569273176930958, 0};
Point(p15 + 30) = {17.648763, -1.583697, 0};
Point(p15 + 31) = {17.8320350489936, -1.569273176930958, 0};
Point(p15 + 32) = {18.01079433189592, -1.526356870117718, 0};
Point(p15 + 33) = {18.18063920189386, -1.456004821465076, 0};
Point(p15 + 34) = {18.33738751460526, -1.359949331895925, 0};
Point(p15 + 35) = {18.47717960635335, -1.240555606353349, 0};
Point(p15 + 36) = {18.59657333189593, -1.100763514605265, 0};
Point(p15 + 37) = {18.69262882146507, -0.9440152018938641, 0};
Point(p15 + 38) = {18.76298087011772, -0.7741703318959249, 0};
Point(p15 + 39) = {18.80589717693096, -0.5954110489936031, 0};
Spline(15) = {10, p15 + 1, p15 + 2, p15 + 3, p15 + 4, p15 + 5, p15 + 6, p15 + 7, p15 + 8, p15 + 9, p15 + 10, p15 + 11, p15 + 12, p15 + 13, p15 + 14, p15 + 15, p15 + 16, p15 + 17, p15 + 18, p15 + 19, p15 + 20, p15 + 21, p15 + 22, p15 + 23, p15 + 24, p15 + 25, p15 + 26, p15 + 27, p15 + 28, p15 + 29, p15 + 30, p15 + 31, p15 + 32, p15 + 33, p15 + 34, p15 + 35, p15 + 36, p15 + 37, p15 + 38, p15 + 39, 10};
p16 = newp;
Point(p16 + 1) = {3.550052168126293, 0.1977069142471883, 0.1};
Point(p16 + 2) = {3.524613197741169, 0.3036678517436822, 0.1};
Point(p16 + 3) = {3.482911480722612, 0.4043447025441282, 0.1};
Point(p16 + 4) = {3.425973851743682, 0.497258468454508, 0.1};
Point(p16 + 5) = {3.355202304194998, 0.5801213041949979, 0.1};
Point(p16 + 6) = {3.272339468454508, 0.6508928517436822, 0.1};
Point(p16 + 7) = {3.179425702544128, 0.707830480722612, 0.1};
Point(p16 + 8) = {3.078748851743682, 0.7495321977411694, 0.1};
Point(p16 + 9) = {2.972787914247188, 0.7749711681262934, 0.1};
Point(p16 + 10) = {2.864152, 0.783521, 0.1};
Point(p16 + 11) = {2.755516085752811, 0.7749711681262934, 0.1};
Point(p16 + 12) = {2.649555148256318, 0.7495321977411694, 0.1};
Point(p16 + 13) = {2.548878297455872, 0.7078304807226121, 0.1};
Point(p16 + 14) = {2.455964531545492, 0.6508928517436823, 0.1};
Point(p16 + 15) = {2.373101695805002, 0.580121304194998, 0.1};
Point(p16 + 16) = {2.302330148256318, 0.4972584684545081, 0.1};
Point(p16 + 17) = {2.245392519277388, 0.4043447025441284, 0.1};
Point(p16 + 18) = {2.20369080225883, 0.3036678517436823, 0.1};
Point(p16 + 19) = {2.178251831873706, 0.1977069142471884, 0.1};
Point(p16 + 20) = {2.169702, 0.08907100000000008, 0.1};
Point(p16 + 21) = {2.178251831873706, -0.01956491424718826, 0.1};
Point(p16 + 22) = {2.20369080225883, -0.1255258517436825, 0.1};
Point(p16 + 23) = {2.245392519277388, -0.2262027025441279, 0.1};
Point(p16 + 24) = {2.302330148256317, -0.3191164684545079, 0.1};
Point(p16 + 25) = {2.373101695805002, -0.4019793041949979, 0.1};
Point(p16 + 26) = {2.455964531545492, -0.4727508517436821, 0.1};
Point(p16 + 27) = {2.548878297455872, -0.529688480722612, 0.1};
Point(p16 + 28) = {2.649555148256317, -0.5713901977411694, 0.1};
Point(p16 + 29) = {2.755516085752811, -0.5968291681262934, 0.1};
Point(p16 + 30) = {2.864152, -0.605379, 0.1};
Point(p16 + 31) = {2.972787914247188, -0.5968291681262934, 0.1};
Point(p16 + 32) = {3.078748851743682, -0.5713901977411694, 0.1};
Point(p16 + 33) = {3.179425702544128, -0.5296884807226122, 0.1};
Point(p16 + 34) = {3.272339468454508, -0.4727508517436824, 0.1};
Point(p16 + 35) = {3.355202304194998, -0.4019793041949981, 0.1};
Point(p16 + 36) = {3.425973851743682, -0.319116468454508, 0.1};
Point(p16 + 37) = {3.482911480722612, -0.2262027025441284, 0.1};
Point(p16 + 38) = {3.524613197741169, -0.1255258517436824, 0.1};
Point(p16 + 39) = {3.550052168126293, -0.01956491424718851, 0.1};
Spline(16) = {11, p16 + 1, p16 + 2, p16 + 3, p16 + 4, p16 + 5, p16 + 6, p16 + 7, p16 + 8, p16 + 9, p16 + 10, p16 + 11, p16 + 12, p16 + 13, p16 + 14, p16 + 15, p16 + 16, p16 + 17, p16 + 18, p16 + 19, p16 + 20, p16 + 21, p16 + 22, p16 + 23, p16 + 24, p16 + 25, p16 + 26, p16 + 27, p16 + 28, p16 + 29, p16 + 30, p16 + 31, p16 + 32, p16 + 33, p16 + 34, p16 + 35, p16 + 36, p16 + 37, p16 + 38, p16 + 39, 11};
Line(17) = {12, 11};
p18 = newp;
Point(p18 + 1) = {3.550052168126293, 0.1977069142471883, 0};
Point(p18 + 2) = {3.524613197741169, 0.3036678517436822, 0};
Point(p18 + 3) = {3.482911480722612, 0.4043447025441282, 0};
Point(p18 + 4) = {3.425973851743682, 0.497258468454508, 0};
Point(p18 + 5) = {3.355202304194998, 0.5801213041949979, 0};
Point(p18 + 6) = {3.272339468454508, 0.6508928517436822, 0};
Point(p18 + 7) = {3.179425702544128, 0.707830480722612, 0};
Point(p18 + 8) = {3.078748851743682, 0.7495321977411694, 0};
Point(p18 + 9) = {2.972787914247188, 0.7749711681262934, 0};
Point(p18 + 10) = {2.864152, 0.783521, 0};
Point(p18 + 11) = {2.755516085752811, 0.7749711681262934, 0};
Point(p18 + 12) = {2.649555148256318, 0.7495321977411694, 0};
Point(p18 + 13) = {2.548878297455872, 0.7078304807226121, 0};
Point(p18 + 14) = {2.455964531545492, 0.6508928517436823, 0};
Point(p18 + 15) = {2.373101695805002, 0.580121304194998, 0};
Point(p18 + 16) = {2.302330148256318, 0.4972584684545081, 0};
Point(p18 + 17) = {2.245392519277388, 0.4043447025441284, 0};
Point(p18 + 18) = {2.20369080225883, 0.3036678517436823, 0};
Point(p18 + 19) = {2.178251831873706, 0.1977069142471884, 0};
Point(p18 + 20) = {2.169702, 0.08907100000000008, 0};
Point(p18 + 21) = {2.178251831873706, -0.01956491424718826, 0};
Point(p18 + 22) = {2.20369080225883, -0.1255258517436825, 0};
Point(p18 + 23) = {2.245392519277388, -0.2262027025441279, 0};
Point(p18 + 24) = {2.302330148256317, -0.3191164684545079, 0};
Point(p18 + 25) = {2.373101695805002, -0.4019793041949979, 0};
Point(p18 + 26) = {2.455964531545492, -0.4727508517436821, 0};
Point(p18 + 27) = {2.548878297455872, -0.529688480722612, 0};
Point(p18 + 28) = {2.649555148256317, -0.5713901977411694, 0};
Point(p18 + 29) = {2.755516085752811, -0.5968291681262934, 0};
Point(p18 + 30) = {2.864152, -0.605379, 0};
Point(p18 + 31) = {2.972787914247188, -0.5968291681262934, 0};
Point(p18 + 32) = {3.078748851743682, -0.5713901977411694, 0};
Point(p18 + 33) = {3.179425702544128, -0.5296884807226122, 0};
Point(p18 + 34) = {3.272339468454508, -0.4727508517436824, 0};
Point(p18 + 35) = {3.355202304194998, -0.4019793041949981, 0};
Point(p18 + 36) = {3.425973851743682, -0.319116468454508, 0};
Point(p18 + 37) = {3.482911480722612, -0.2262027025441284, 0};
Point(p18 + 38) = {3.524613197741169, -0.1255258517436824, 0};
Point(p18 + 39) = {3.550052168126293, -0.01956491424718851, 0};
Spline(18) = {12, p18 + 1, p18 + 2, p18 + 3, p18 + 4, p18 + 5, p18 + 6, p18 + 7, p18 + 8, p18 + 9, p18 + 10, p18 + 11, p18 + 12, p18 + 13, p18 + 14, p18 + 15, p18 + 16, p18 + 17, p18 + 18, p18 + 19, p18 + 20, p18 + 21, p18 + 22, p18 + 23, p18 + 24, p18 + 25, p18 + 26, p18 + 27, p18 + 28, p18 + 29, p18 + 30, p18 + 31, p18 + 32, p18 + 33, p18 + 34, p18 + 35, p18 + 36, p18 + 37, p18 + 38, p18 + 39, 12};
Line(19) = {14, 13};
Line(20) = {13, 15};
Line(21) = {16, 15};
Line(22) = {14, 16};
Line(23) = {14, 17};
Line(24) = {17, 18};
Line(25) = {13, 18};
Line(26) = {15, 19};
Line(27) = {18, 19};
Line(28) = {16, 20};
Line(29) = {20, 19};
Line(30) = {17, 20};
Curve Loop(7) = {-13, -14, 15, 14};
Surface(7) = {7};
Curve Loop(8) = {13};
Plane Surface(8) = {8};
Curve Loop(9) = {15};
Plane Surface(9) = {9};
Curve Loop(10) = {-16, -17, 18, 17};
Surface(10) = {10};
Curve Loop(11) = {16};
Plane Surface(11) = {11};
Curve Loop(12) = {18};
Plane Surface(12) = {12};
Curve Loop(13) = {-19, 22, 21, -20};
Plane Surface(13) = {13};
Curve Loop(14) = {-23, 19, 25, -24};
Plane Surface(14) = {14};
Curve Loop(15) = {-20, 25, 27, -26};
Plane Surface(15) = {15};
Curve Loop(16) = {-28, 21, 26, -29};
Plane Surface(16) = {16};
Curve Loop(17) = {-22, 23, 30, -28, -15, -18};
Plane Surface(17) = {17};
Curve Loop(18) = {-24, 30, 29, -27};
Plane Surface(18) = {18};
Surface Loop(1) = {13, 14, 15, 16, 17, 18, 7, 10, 8, 11};
Volume(1) = {1};
Surface Loop(2) = {7, 8, 9};
Volume(2) = {2};
Surface Loop(3) = {10, 11, 12};
Volume(3) = {3};
Physical Surface("WALLS") = {13, 18};
Physical Surface("LOAD") = {8, 11};
Physical Surface("BORDER") = {7, 9, 10, 12, 14, 15, 16, 17};
Physical Volume("SOLID") = {1, 2, 3};
