cl__1 = 0.12937;
cl__2 = 0.052628;
cl__3 = 3.749812;
cl__4 = 0.8595930000000001;
cl__5 = 0.960879;
cl__6 = 0.625938;
Point(9) = {29.715626, 1.219393, 0.1, cl__1};
Point(10) = {29.715626, 1.219393, 0, cl__1};
Point(11) = {4.782776, 2.571378, 0.1, cl__2};
Point(12) = {4.782776, 2.571378, 0, cl__2};
Point(13) = {0.319588, -4.080289, 1, cl__3};
Point(14) = {0.319588, -4.080289, 0, cl__3};
Point(15) = {0.319588, 4.775139, 1, cl__4};
Point(16) = {0.319588, 4.775139, 0, cl__4};
Point(17) = {30.649391, -4.080289, 0, cl__5};
Point(18) = {30.649391, -4.080289, 1, cl__5};
Point(19) = {30.649391, 4.775139, 1, cl__6};
Point(20) = {30.649391, 4.775139, 0, cl__6};
p13 = newp;
Point(p13 + 1) = {29.69969845547457, 1.421771641684686, 0.1};
Point(p13 + 2) = {29.65230801090497, 1.619167049554892, 0.1};
Point(p13 + 3) = {29.5746215763164, 1.806718693551053, 0.1};
Point(p13 + 4) = {29.46855204955489, 1.979808429749763, 0.1};
Point(p13 + 5) = {29.33671121439391, 2.134174214393912, 0.1};
Point(p13 + 6) = {29.18234542974976, 2.266015049554892, 0.1};
Point(p13 + 7) = {29.00925569355105, 2.372084576316395, 0.1};
Point(p13 + 8) = {28.82170404955489, 2.449771010904975, 0.1};
Point(p13 + 9) = {28.62430864168469, 2.497161455474568, 0.1};
Point(p13 + 10) = {28.42193, 2.513089, 0.1};
Point(p13 + 11) = {28.21955135831531, 2.497161455474567, 0.1};
Point(p13 + 12) = {28.02215595044511, 2.449771010904975, 0.1};
Point(p13 + 13) = {27.83460430644895, 2.372084576316395, 0.1};
Point(p13 + 14) = {27.66151457025024, 2.266015049554892, 0.1};
Point(p13 + 15) = {27.50714878560609, 2.134174214393912, 0.1};
Point(p13 + 16) = {27.37530795044511, 1.979808429749763, 0.1};
Point(p13 + 17) = {27.2692384236836, 1.806718693551053, 0.1};
Point(p13 + 18) = {27.19155198909503, 1.619167049554892, 0.1};
Point(p13 + 19) = {27.14416154452543, 1.421771641684687, 0.1};
Point(p13 + 20) = {27.128234, 1.219393, 0.1};
Point(p13 + 21) = {27.14416154452543, 1.017014358315314, 0.1};
Point(p13 + 22) = {27.19155198909503, 0.8196189504451076, 0.1};
Point(p13 + 23) = {27.2692384236836, 0.6320673064489478, 0.1};
Point(p13 + 24) = {27.37530795044511, 0.4589775702502368, 0.1};
Point(p13 + 25) = {27.50714878560609, 0.3046117856060883, 0.1};
Point(p13 + 26) = {27.66151457025024, 0.172770950445108, 0.1};
Point(p13 + 27) = {27.83460430644895, 0.06670142368360543, 0.1};
Point(p13 + 28) = {28.02215595044511, -0.01098501090497495, 0.1};
Point(p13 + 29) = {28.21955135831531, -0.05837545547456724, 0.1};
Point(p13 + 30) = {28.42193, -0.07430300000000001, 0.1};
Point(p13 + 31) = {28.62430864168469, -0.05837545547456746, 0.1};
Point(p13 + 32) = {28.82170404955489, -0.01098501090497517, 0.1};
Point(p13 + 33) = {29.00925569355105, 0.06670142368360499, 0.1};
Point(p13 + 34) = {29.18234542974976, 0.1727709504451078, 0.1};
Point(p13 + 35) = {29.33671121439391, 0.304611785606088, 0.1};
Point(p13 + 36) = {29.46855204955489, 0.4589775702502366, 0.1};
Point(p13 + 37) = {29.5746215763164, 0.632067306448947, 0.1};
Point(p13 + 38) = {29.65230801090497, 0.8196189504451077, 0.1};
Point(p13 + 39) = {29.69969845547457, 1.017014358315313, 0.1};
Spline(13) = {9, p13 + 1, p13 + 2, p13 + 3, p13 + 4, p13 + 5, p13 + 6, p13 + 7, p13 + 8, p13 + 9, p13 + 10, p13 + 11, p13 + 12, p13 + 13, p13 + 14, p13 + 15, p13 + 16, p13 + 17, p13 + 18, p13 + 19, p13 + 20, p13 + 21, p13 + 22, p13 + 23, p13 + 24, p13 + 25, p13 + 26, p13 + 27, p13 + 28, p13 + 29, p13 + 30, p13 + 31, p13 + 32, p13 + 33, p13 + 34, p13 + 35, p13 + 36, p13 + 37, p13 + 38, p13 + 39, 9};
Line(14) = {10, 9};
p15 = newp;
Point(p15 + 1) = {29.69969845547457, 1.421771641684686, 0};
Point(p15 + 2) = {29.65230801090497, 1.619167049554892, 0};
Point(p15 + 3) = {29.5746215763164, 1.806718693551053, 0};
Point(p15 + 4) = {29.46855204955489, 1.979808429749763, 0};
Point(p15 + 5) = {29.33671121439391, 2.134174214393912, 0};
Point(p15 + 6) = {29.18234542974976, 2.266015049554892, 0};
Point(p15 + 7) = {29.00925569355105, 2.372084576316395, 0};
Point(p15 + 8) = {28.82170404955489, 2.449771010904975, 0};
Point(p15 + 9) = {28.62430864168469, 2.497161455474568, 0};
Point(p15 + 10) = {28.42193, 2.513089, 0};
Point(p15 + 11) = {28.21955135831531, 2.497161455474567, 0};
Point(p15 + 12) = {28.02215595044511, 2.449771010904975, 0};
Point(p15 + 13) = {27.83460430644895, 2.372084576316395, 0};
Point(p15 + 14) = {27.66151457025024, 2.266015049554892, 0};
Point(p15 + 15) = {27.50714878560609, 2.134174214393912, 0};
Point(p15 + 16) = {27.37530795044511, 1.979808429749763, 0};
Point(p15 + 17) = {27.2692384236836, 1.806718693551053, 0};
Point(p15 + 18) = {27.19155198909503, 1.619167049554892, 0};
Point(p15 + 19) = {27.14416154452543, 1.421771641684687, 0};
Point(p15 + 20) = {27.128234, 1.219393, 0};
Point(p15 + 21) = {27.14416154452543, 1.017014358315314, 0};
Point(p15 + 22) = {27.19155198909503, 0.8196189504451076, 0};
Point(p15 + 23) = {27.2692384236836, 0.6320673064489478, 0};
Point(p15 + 24) = {27.37530795044511, 0.4589775702502368, 0};
Point(p15 + 25) = {27.50714878560609, 0.3046117856060883, 0};
Point(p15 + 26) = {27.66151457025024, 0.172770950445108, 0};
Point(p15 + 27) = {27.83460430644895, 0.06670142368360543, 0};
Point(p15 + 28) = {28.02215595044511, -0.01098501090497495, 0};
Point(p15 + 29) = {28.21955135831531, -0.05837545547456724, 0};
Point(p15 + 30) = {28.42193, -0.07430300000000001, 0};
Point(p15 + 31) = {28.62430864168469, -0.05837545547456746, 0};
Point(p15 + 32) = {28.82170404955489, -0.01098501090497517, 0};
Point(p15 + 33) = {29.00925569355105, 0.06670142368360499, 0};
Point(p15 + 34) = {29.18234542974976, 0.1727709504451078, 0};
Point(p15 + 35) = {29.33671121439391, 0.304611785606088, 0};
Point(p15 + 36) = {29.46855204955489, 0.4589775702502366, 0};
Point(p15 + 37) = {29.5746215763164, 0.632067306448947, 0};
Point(p15 + 38) = {29.65230801090497, 0.8196189504451077, 0};
Point(p15 + 39) = {29.69969845547457, 1.017014358315313, 0};
Spline(15) = {10, p15 + 1, p15 + 2, p15 + 3, p15 + 4, p15 + 5, p15 + 6, p15 + 7, p15 + 8, p15 + 9, p15 + 10, p15 + 11, p15 + 12, p15 + 13, p15 + 14, p15 + 15, p15 + 16, p15 + 17, p15 + 18, p15 + 19, p15 + 20, p15 + 21, p15 + 22, p15 + 23, p15 + 24, p15 + 25, p15 + 26, p15 + 27, p15 + 28, p15 + 29, p15 + 30, p15 + 31, p15 + 32, p15 + 33, p15 + 34, p15 + 35, p15 + 36, p15 + 37, p15 + 38, p15 + 39, 10};
p16 = newp;
Point(p16 + 1) = {4.776296570641771, 2.653706955999233, 0.1};
Point(p16 + 2) = {4.757017827621878, 2.734008699867625, 0.1};
Point(p16 + 3) = {4.725414477575951, 2.810305936164928, 0.1};
Point(p16 + 4) = {4.682264699867624, 2.880719973717492, 0.1};
Point(p16 + 5) = {4.628630985229981, 2.943516985229981, 0.1};
Point(p16 + 6) = {4.565833973717492, 2.997150699867625, 0.1};
Point(p16 + 7) = {4.495419936164927, 3.040300477575951, 0.1};
Point(p16 + 8) = {4.419122699867625, 3.071903827621879, 0.1};
Point(p16 + 9) = {4.338820955999233, 3.091182570641771, 0.1};
Point(p16 + 10) = {4.256492, 3.097662, 0.1};
Point(p16 + 11) = {4.174163044000767, 3.091182570641771, 0.1};
Point(p16 + 12) = {4.093861300132375, 3.071903827621879, 0.1};
Point(p16 + 13) = {4.017564063835072, 3.040300477575951, 0.1};
Point(p16 + 14) = {3.947150026282508, 2.997150699867625, 0.1};
Point(p16 + 15) = {3.884353014770019, 2.943516985229981, 0.1};
Point(p16 + 16) = {3.830719300132375, 2.880719973717492, 0.1};
Point(p16 + 17) = {3.787569522424049, 2.810305936164928, 0.1};
Point(p16 + 18) = {3.755966172378121, 2.734008699867625, 0.1};
Point(p16 + 19) = {3.736687429358228, 2.653706955999233, 0.1};
Point(p16 + 20) = {3.730208, 2.571378, 0.1};
Point(p16 + 21) = {3.736687429358228, 2.489049044000768, 0.1};
Point(p16 + 22) = {3.755966172378121, 2.408747300132375, 0.1};
Point(p16 + 23) = {3.787569522424048, 2.332450063835073, 0.1};
Point(p16 + 24) = {3.830719300132375, 2.262036026282508, 0.1};
Point(p16 + 25) = {3.884353014770018, 2.199239014770019, 0.1};
Point(p16 + 26) = {3.947150026282508, 2.145605300132376, 0.1};
Point(p16 + 27) = {4.017564063835072, 2.102455522424049, 0.1};
Point(p16 + 28) = {4.093861300132374, 2.070852172378121, 0.1};
Point(p16 + 29) = {4.174163044000767, 2.051573429358229, 0.1};
Point(p16 + 30) = {4.256492, 2.045094, 0.1};
Point(p16 + 31) = {4.338820955999233, 2.051573429358229, 0.1};
Point(p16 + 32) = {4.419122699867624, 2.070852172378121, 0.1};
Point(p16 + 33) = {4.495419936164927, 2.102455522424049, 0.1};
Point(p16 + 34) = {4.565833973717491, 2.145605300132375, 0.1};
Point(p16 + 35) = {4.628630985229981, 2.199239014770019, 0.1};
Point(p16 + 36) = {4.682264699867624, 2.262036026282508, 0.1};
Point(p16 + 37) = {4.725414477575951, 2.332450063835072, 0.1};
Point(p16 + 38) = {4.757017827621878, 2.408747300132375, 0.1};
Point(p16 + 39) = {4.776296570641771, 2.489049044000767, 0.1};
Spline(16) = {11, p16 + 1, p16 + 2, p16 + 3, p16 + 4, p16 + 5, p16 + 6, p16 + 7, p16 + 8, p16 + 9, p16 + 10, p16 + 11, p16 + 12, p16 + 13, p16 + 14, p16 + 15, p16 + 16, p16 + 17, p16 + 18, p16 + 19, p16 + 20, p16 + 21, p16 + 22, p16 + 23, p16 + 24, p16 + 25, p16 + 26, p16 + 27, p16 + 28, p16 + 29, p16 + 30, p16 + 31, p16 + 32, p16 + 33, p16 + 34, p16 + 35, p16 + 36, p16 + 37, p16 + 38, p16 + 39, 11};
Line(17) = {12, 11};
p18 = newp;
Point(p18 + 1) = {4.776296570641771, 2.653706955999233, 0};
Point(p18 + 2) = {4.757017827621878, 2.734008699867625, 0};
Point(p18 + 3) = {4.725414477575951, 2.810305936164928, 0};
Point(p18 + 4) = {4.682264699867624, 2.880719973717492, 0};
Point(p18 + 5) = {4.628630985229981, 2.943516985229981, 0};
Point(p18 + 6) = {4.565833973717492, 2.997150699867625, 0};
Point(p18 + 7) = {4.495419936164927, 3.040300477575951, 0};
Point(p18 + 8) = {4.419122699867625, 3.071903827621879, 0};
Point(p18 + 9) = {4.338820955999233, 3.091182570641771, 0};
Point(p18 + 10) = {4.256492, 3.097662, 0};
Point(p18 + 11) = {4.174163044000767, 3.091182570641771, 0};
Point(p18 + 12) = {4.093861300132375, 3.071903827621879, 0};
Point(p18 + 13) = {4.017564063835072, 3.040300477575951, 0};
Point(p18 + 14) = {3.947150026282508, 2.997150699867625, 0};
Point(p18 + 15) = {3.884353014770019, 2.943516985229981, 0};
Point(p18 + 16) = {3.830719300132375, 2.880719973717492, 0};
Point(p18 + 17) = {3.787569522424049, 2.810305936164928, 0};
Point(p18 + 18) = {3.755966172378121, 2.734008699867625, 0};
Point(p18 + 19) = {3.736687429358228, 2.653706955999233, 0};
Point(p18 + 20) = {3.730208, 2.571378, 0};
Point(p18 + 21) = {3.736687429358228, 2.489049044000768, 0};
Point(p18 + 22) = {3.755966172378121, 2.408747300132375, 0};
Point(p18 + 23) = {3.787569522424048, 2.332450063835073, 0};
Point(p18 + 24) = {3.830719300132375, 2.262036026282508, 0};
Point(p18 + 25) = {3.884353014770018, 2.199239014770019, 0};
Point(p18 + 26) = {3.947150026282508, 2.145605300132376, 0};
Point(p18 + 27) = {4.017564063835072, 2.102455522424049, 0};
Point(p18 + 28) = {4.093861300132374, 2.070852172378121, 0};
Point(p18 + 29) = {4.174163044000767, 2.051573429358229, 0};
Point(p18 + 30) = {4.256492, 2.045094, 0};
Point(p18 + 31) = {4.338820955999233, 2.051573429358229, 0};
Point(p18 + 32) = {4.419122699867624, 2.070852172378121, 0};
Point(p18 + 33) = {4.495419936164927, 2.102455522424049, 0};
Point(p18 + 34) = {4.565833973717491, 2.145605300132375, 0};
Point(p18 + 35) = {4.628630985229981, 2.199239014770019, 0};
Point(p18 + 36) = {4.682264699867624, 2.262036026282508, 0};
Point(p18 + 37) = {4.725414477575951, 2.332450063835072, 0};
Point(p18 + 38) = {4.757017827621878, 2.408747300132375, 0};
Point(p18 + 39) = {4.776296570641771, 2.489049044000767, 0};
Spline(18) = {12, p18 + 1, p18 + 2, p18 + 3, p18 + 4, p18 + 5, p18 + 6, p18 + 7, p18 + 8, p18 + 9, p18 + 10, p18 + 11, p18 + 12, p18 + 13, p18 + 14, p18 + 15, p18 + 16, p18 + 17, p18 + 18, p18 + 19, p18 + 20, p18 + 21, p18 + 22, p18 + 23, p18 + 24, p18 + 25, p18 + 26, p18 + 27, p18 + 28, p18 + 29, p18 + 30, p18 + 31, p18 + 32, p18 + 33, p18 + 34, p18 + 35, p18 + 36, p18 + 37, p18 + 38, p18 + 39, 12};
Line(19) = {14, 13};
Line(20) = {13, 15};
Line(21) = {16, 15};
Line(22) = {14, 16};
Line(23) = {14, 17};
Line(24) = {17, 18};
Line(25) = {13, 18};
Line(26) = {15, 19};
Line(27) = {18, 19};
Line(28) = {16, 20};
Line(29) = {20, 19};
Line(30) = {17, 20};
Curve Loop(7) = {-13, -14, 15, 14};
Surface(7) = {7};
Curve Loop(8) = {13};
Plane Surface(8) = {8};
Curve Loop(9) = {15};
Plane Surface(9) = {9};
Curve Loop(10) = {-16, -17, 18, 17};
Surface(10) = {10};
Curve Loop(11) = {16};
Plane Surface(11) = {11};
Curve Loop(12) = {18};
Plane Surface(12) = {12};
Curve Loop(13) = {-19, 22, 21, -20};
Plane Surface(13) = {13};
Curve Loop(14) = {-23, 19, 25, -24};
Plane Surface(14) = {14};
Curve Loop(15) = {-20, 25, 27, -26};
Plane Surface(15) = {15};
Curve Loop(16) = {-28, 21, 26, -29};
Plane Surface(16) = {16};
Curve Loop(17) = {-22, 23, 30, -28, -15, -18};
Plane Surface(17) = {17};
Curve Loop(18) = {-24, 30, 29, -27};
Plane Surface(18) = {18};
Surface Loop(1) = {13, 14, 15, 16, 17, 18, 7, 10, 8, 11};
Volume(1) = {1};
Surface Loop(2) = {7, 8, 9};
Volume(2) = {2};
Surface Loop(3) = {10, 11, 12};
Volume(3) = {3};
Physical Surface("WALLS") = {13, 18};
Physical Surface("LOAD") = {8, 11};
Physical Surface("BORDER") = {7, 9, 10, 12, 14, 15, 16, 17};
Physical Volume("SOLID") = {1, 2, 3};
