cl__1 = 0.129956;
cl__2 = 0.05113;
cl__3 = 0.687916;
cl__4 = 0.308525;
cl__5 = 3.524643;
cl__6 = 3.253041;
Point(9) = {5.672942, 3.462648, 0.1, cl__1};
Point(10) = {5.672942, 3.462648, 0, cl__1};
Point(11) = {21.294794, 1.367905, 0.1, cl__2};
Point(12) = {21.294794, 1.367905, 0, cl__2};
Point(13) = {0.179907, -4.364666, 1, cl__3};
Point(14) = {0.179907, -4.364666, 0, cl__3};
Point(15) = {0.179907, 5.583477999999999, 1, cl__4};
Point(16) = {0.179907, 5.583477999999999, 0, cl__4};
Point(17) = {37.08587, -4.364666, 0, cl__5};
Point(18) = {37.08587, -4.364666, 1, cl__5};
Point(19) = {37.08587, 5.583477999999999, 1, cl__6};
Point(20) = {37.08587, 5.583477999999999, 0, cl__6};
p13 = newp;
Point(p13 + 1) = {5.65694221065718, 3.665944599125543, 0.1};
Point(p13 + 2) = {5.609336810542595, 3.864235361277884, 0.1};
Point(p13 + 3) = {5.531298002600332, 4.052637709803524, 0.1};
Point(p13 + 4) = {5.424747361277884, 4.226512553610216, 0.1};
Point(p13 + 5) = {5.292308516985914, 4.381578516985915, 0.1};
Point(p13 + 6) = {5.137242553610215, 4.514017361277884, 0.1};
Point(p13 + 7) = {4.963367709803524, 4.620568002600332, 0.1};
Point(p13 + 8) = {4.774965361277884, 4.698606810542595, 0.1};
Point(p13 + 9) = {4.576674599125543, 4.74621221065718, 0.1};
Point(p13 + 10) = {4.373378, 4.762212, 0.1};
Point(p13 + 11) = {4.170081400874457, 4.74621221065718, 0.1};
Point(p13 + 12) = {3.971790638722116, 4.698606810542595, 0.1};
Point(p13 + 13) = {3.783388290196475, 4.620568002600332, 0.1};
Point(p13 + 14) = {3.609513446389784, 4.514017361277884, 0.1};
Point(p13 + 15) = {3.454447483014086, 4.381578516985915, 0.1};
Point(p13 + 16) = {3.322008638722115, 4.226512553610216, 0.1};
Point(p13 + 17) = {3.215457997399668, 4.052637709803525, 0.1};
Point(p13 + 18) = {3.137419189457405, 3.864235361277884, 0.1};
Point(p13 + 19) = {3.08981378934282, 3.665944599125543, 0.1};
Point(p13 + 20) = {3.073814, 3.462648, 0.1};
Point(p13 + 21) = {3.08981378934282, 3.259351400874458, 0.1};
Point(p13 + 22) = {3.137419189457405, 3.061060638722116, 0.1};
Point(p13 + 23) = {3.215457997399668, 2.872658290196477, 0.1};
Point(p13 + 24) = {3.322008638722115, 2.698783446389785, 0.1};
Point(p13 + 25) = {3.454447483014085, 2.543717483014086, 0.1};
Point(p13 + 26) = {3.609513446389784, 2.411278638722116, 0.1};
Point(p13 + 27) = {3.783388290196475, 2.304727997399668, 0.1};
Point(p13 + 28) = {3.971790638722116, 2.226689189457405, 0.1};
Point(p13 + 29) = {4.170081400874457, 2.179083789342821, 0.1};
Point(p13 + 30) = {4.373378, 2.163084, 0.1};
Point(p13 + 31) = {4.576674599125542, 2.179083789342821, 0.1};
Point(p13 + 32) = {4.774965361277884, 2.226689189457405, 0.1};
Point(p13 + 33) = {4.963367709803524, 2.304727997399668, 0.1};
Point(p13 + 34) = {5.137242553610215, 2.411278638722116, 0.1};
Point(p13 + 35) = {5.292308516985914, 2.543717483014086, 0.1};
Point(p13 + 36) = {5.424747361277884, 2.698783446389784, 0.1};
Point(p13 + 37) = {5.531298002600332, 2.872658290196476, 0.1};
Point(p13 + 38) = {5.609336810542595, 3.061060638722116, 0.1};
Point(p13 + 39) = {5.65694221065718, 3.259351400874457, 0.1};
Spline(13) = {9, p13 + 1, p13 + 2, p13 + 3, p13 + 4, p13 + 5, p13 + 6, p13 + 7, p13 + 8, p13 + 9, p13 + 10, p13 + 11, p13 + 12, p13 + 13, p13 + 14, p13 + 15, p13 + 16, p13 + 17, p13 + 18, p13 + 19, p13 + 20, p13 + 21, p13 + 22, p13 + 23, p13 + 24, p13 + 25, p13 + 26, p13 + 27, p13 + 28, p13 + 29, p13 + 30, p13 + 31, p13 + 32, p13 + 33, p13 + 34, p13 + 35, p13 + 36, p13 + 37, p13 + 38, p13 + 39, 9};
Line(14) = {10, 9};
p15 = newp;
Point(p15 + 1) = {5.65694221065718, 3.665944599125543, 0};
Point(p15 + 2) = {5.609336810542595, 3.864235361277884, 0};
Point(p15 + 3) = {5.531298002600332, 4.052637709803524, 0};
Point(p15 + 4) = {5.424747361277884, 4.226512553610216, 0};
Point(p15 + 5) = {5.292308516985914, 4.381578516985915, 0};
Point(p15 + 6) = {5.137242553610215, 4.514017361277884, 0};
Point(p15 + 7) = {4.963367709803524, 4.620568002600332, 0};
Point(p15 + 8) = {4.774965361277884, 4.698606810542595, 0};
Point(p15 + 9) = {4.576674599125543, 4.74621221065718, 0};
Point(p15 + 10) = {4.373378, 4.762212, 0};
Point(p15 + 11) = {4.170081400874457, 4.74621221065718, 0};
Point(p15 + 12) = {3.971790638722116, 4.698606810542595, 0};
Point(p15 + 13) = {3.783388290196475, 4.620568002600332, 0};
Point(p15 + 14) = {3.609513446389784, 4.514017361277884, 0};
Point(p15 + 15) = {3.454447483014086, 4.381578516985915, 0};
Point(p15 + 16) = {3.322008638722115, 4.226512553610216, 0};
Point(p15 + 17) = {3.215457997399668, 4.052637709803525, 0};
Point(p15 + 18) = {3.137419189457405, 3.864235361277884, 0};
Point(p15 + 19) = {3.08981378934282, 3.665944599125543, 0};
Point(p15 + 20) = {3.073814, 3.462648, 0};
Point(p15 + 21) = {3.08981378934282, 3.259351400874458, 0};
Point(p15 + 22) = {3.137419189457405, 3.061060638722116, 0};
Point(p15 + 23) = {3.215457997399668, 2.872658290196477, 0};
Point(p15 + 24) = {3.322008638722115, 2.698783446389785, 0};
Point(p15 + 25) = {3.454447483014085, 2.543717483014086, 0};
Point(p15 + 26) = {3.609513446389784, 2.411278638722116, 0};
Point(p15 + 27) = {3.783388290196475, 2.304727997399668, 0};
Point(p15 + 28) = {3.971790638722116, 2.226689189457405, 0};
Point(p15 + 29) = {4.170081400874457, 2.179083789342821, 0};
Point(p15 + 30) = {4.373378, 2.163084, 0};
Point(p15 + 31) = {4.576674599125542, 2.179083789342821, 0};
Point(p15 + 32) = {4.774965361277884, 2.226689189457405, 0};
Point(p15 + 33) = {4.963367709803524, 2.304727997399668, 0};
Point(p15 + 34) = {5.137242553610215, 2.411278638722116, 0};
Point(p15 + 35) = {5.292308516985914, 2.543717483014086, 0};
Point(p15 + 36) = {5.424747361277884, 2.698783446389784, 0};
Point(p15 + 37) = {5.531298002600332, 2.872658290196476, 0};
Point(p15 + 38) = {5.609336810542595, 3.061060638722116, 0};
Point(p15 + 39) = {5.65694221065718, 3.259351400874457, 0};
Spline(15) = {10, p15 + 1, p15 + 2, p15 + 3, p15 + 4, p15 + 5, p15 + 6, p15 + 7, p15 + 8, p15 + 9, p15 + 10, p15 + 11, p15 + 12, p15 + 13, p15 + 14, p15 + 15, p15 + 16, p15 + 17, p15 + 18, p15 + 19, p15 + 20, p15 + 21, p15 + 22, p15 + 23, p15 + 24, p15 + 25, p15 + 26, p15 + 27, p15 + 28, p15 + 29, p15 + 30, p15 + 31, p15 + 32, p15 + 33, p15 + 34, p15 + 35, p15 + 36, p15 + 37, p15 + 38, p15 + 39, 10};
p16 = newp;
Point(p16 + 1) = {21.28849908548127, 1.447889472671675, 0.1};
Point(p16 + 2) = {21.26976934361216, 1.525904462172927, 0.1};
Point(p16 + 3) = {21.23906596279794, 1.600028980545331, 0.1};
Point(p16 + 4) = {21.19714496217293, 1.668437836141385, 0.1};
Point(p16 + 5) = {21.14503857590034, 1.729446575900338, 0.1};
Point(p16 + 6) = {21.08402983614139, 1.781552962172927, 0.1};
Point(p16 + 7) = {21.01562098054533, 1.82347396279794, 0.1};
Point(p16 + 8) = {20.94149646217293, 1.854177343612163, 0.1};
Point(p16 + 9) = {20.86348147267168, 1.872907085481272, 0.1};
Point(p16 + 10) = {20.783497, 1.879202, 0.1};
Point(p16 + 11) = {20.70351252732832, 1.872907085481272, 0.1};
Point(p16 + 12) = {20.62549753782707, 1.854177343612163, 0.1};
Point(p16 + 13) = {20.55137301945467, 1.82347396279794, 0.1};
Point(p16 + 14) = {20.48296416385861, 1.781552962172927, 0.1};
Point(p16 + 15) = {20.42195542409966, 1.729446575900338, 0.1};
Point(p16 + 16) = {20.36984903782707, 1.668437836141385, 0.1};
Point(p16 + 17) = {20.32792803720206, 1.600028980545331, 0.1};
Point(p16 + 18) = {20.29722465638784, 1.525904462172927, 0.1};
Point(p16 + 19) = {20.27849491451873, 1.447889472671675, 0.1};
Point(p16 + 20) = {20.2722, 1.367905, 0.1};
Point(p16 + 21) = {20.27849491451873, 1.287920527328325, 0.1};
Point(p16 + 22) = {20.29722465638784, 1.209905537827072, 0.1};
Point(p16 + 23) = {20.32792803720206, 1.135781019454669, 0.1};
Point(p16 + 24) = {20.36984903782707, 1.067372163858615, 0.1};
Point(p16 + 25) = {20.42195542409966, 1.006363424099662, 0.1};
Point(p16 + 26) = {20.48296416385861, 0.9542570378270725, 0.1};
Point(p16 + 27) = {20.55137301945467, 0.91233603720206, 0.1};
Point(p16 + 28) = {20.62549753782707, 0.8816326563878368, 0.1};
Point(p16 + 29) = {20.70351252732832, 0.8629029145187278, 0.1};
Point(p16 + 30) = {20.783497, 0.8566079999999999, 0.1};
Point(p16 + 31) = {20.86348147267168, 0.8629029145187278, 0.1};
Point(p16 + 32) = {20.94149646217293, 0.8816326563878367, 0.1};
Point(p16 + 33) = {21.01562098054533, 0.9123360372020599, 0.1};
Point(p16 + 34) = {21.08402983614139, 0.9542570378270724, 0.1};
Point(p16 + 35) = {21.14503857590034, 1.006363424099662, 0.1};
Point(p16 + 36) = {21.19714496217293, 1.067372163858615, 0.1};
Point(p16 + 37) = {21.23906596279794, 1.135781019454669, 0.1};
Point(p16 + 38) = {21.26976934361216, 1.209905537827072, 0.1};
Point(p16 + 39) = {21.28849908548127, 1.287920527328325, 0.1};
Spline(16) = {11, p16 + 1, p16 + 2, p16 + 3, p16 + 4, p16 + 5, p16 + 6, p16 + 7, p16 + 8, p16 + 9, p16 + 10, p16 + 11, p16 + 12, p16 + 13, p16 + 14, p16 + 15, p16 + 16, p16 + 17, p16 + 18, p16 + 19, p16 + 20, p16 + 21, p16 + 22, p16 + 23, p16 + 24, p16 + 25, p16 + 26, p16 + 27, p16 + 28, p16 + 29, p16 + 30, p16 + 31, p16 + 32, p16 + 33, p16 + 34, p16 + 35, p16 + 36, p16 + 37, p16 + 38, p16 + 39, 11};
Line(17) = {12, 11};
p18 = newp;
Point(p18 + 1) = {21.28849908548127, 1.447889472671675, 0};
Point(p18 + 2) = {21.26976934361216, 1.525904462172927, 0};
Point(p18 + 3) = {21.23906596279794, 1.600028980545331, 0};
Point(p18 + 4) = {21.19714496217293, 1.668437836141385, 0};
Point(p18 + 5) = {21.14503857590034, 1.729446575900338, 0};
Point(p18 + 6) = {21.08402983614139, 1.781552962172927, 0};
Point(p18 + 7) = {21.01562098054533, 1.82347396279794, 0};
Point(p18 + 8) = {20.94149646217293, 1.854177343612163, 0};
Point(p18 + 9) = {20.86348147267168, 1.872907085481272, 0};
Point(p18 + 10) = {20.783497, 1.879202, 0};
Point(p18 + 11) = {20.70351252732832, 1.872907085481272, 0};
Point(p18 + 12) = {20.62549753782707, 1.854177343612163, 0};
Point(p18 + 13) = {20.55137301945467, 1.82347396279794, 0};
Point(p18 + 14) = {20.48296416385861, 1.781552962172927, 0};
Point(p18 + 15) = {20.42195542409966, 1.729446575900338, 0};
Point(p18 + 16) = {20.36984903782707, 1.668437836141385, 0};
Point(p18 + 17) = {20.32792803720206, 1.600028980545331, 0};
Point(p18 + 18) = {20.29722465638784, 1.525904462172927, 0};
Point(p18 + 19) = {20.27849491451873, 1.447889472671675, 0};
Point(p18 + 20) = {20.2722, 1.367905, 0};
Point(p18 + 21) = {20.27849491451873, 1.287920527328325, 0};
Point(p18 + 22) = {20.29722465638784, 1.209905537827072, 0};
Point(p18 + 23) = {20.32792803720206, 1.135781019454669, 0};
Point(p18 + 24) = {20.36984903782707, 1.067372163858615, 0};
Point(p18 + 25) = {20.42195542409966, 1.006363424099662, 0};
Point(p18 + 26) = {20.48296416385861, 0.9542570378270725, 0};
Point(p18 + 27) = {20.55137301945467, 0.91233603720206, 0};
Point(p18 + 28) = {20.62549753782707, 0.8816326563878368, 0};
Point(p18 + 29) = {20.70351252732832, 0.8629029145187278, 0};
Point(p18 + 30) = {20.783497, 0.8566079999999999, 0};
Point(p18 + 31) = {20.86348147267168, 0.8629029145187278, 0};
Point(p18 + 32) = {20.94149646217293, 0.8816326563878367, 0};
Point(p18 + 33) = {21.01562098054533, 0.9123360372020599, 0};
Point(p18 + 34) = {21.08402983614139, 0.9542570378270724, 0};
Point(p18 + 35) = {21.14503857590034, 1.006363424099662, 0};
Point(p18 + 36) = {21.19714496217293, 1.067372163858615, 0};
Point(p18 + 37) = {21.23906596279794, 1.135781019454669, 0};
Point(p18 + 38) = {21.26976934361216, 1.209905537827072, 0};
Point(p18 + 39) = {21.28849908548127, 1.287920527328325, 0};
Spline(18) = {12, p18 + 1, p18 + 2, p18 + 3, p18 + 4, p18 + 5, p18 + 6, p18 + 7, p18 + 8, p18 + 9, p18 + 10, p18 + 11, p18 + 12, p18 + 13, p18 + 14, p18 + 15, p18 + 16, p18 + 17, p18 + 18, p18 + 19, p18 + 20, p18 + 21, p18 + 22, p18 + 23, p18 + 24, p18 + 25, p18 + 26, p18 + 27, p18 + 28, p18 + 29, p18 + 30, p18 + 31, p18 + 32, p18 + 33, p18 + 34, p18 + 35, p18 + 36, p18 + 37, p18 + 38, p18 + 39, 12};
Line(19) = {14, 13};
Line(20) = {13, 15};
Line(21) = {16, 15};
Line(22) = {14, 16};
Line(23) = {14, 17};
Line(24) = {17, 18};
Line(25) = {13, 18};
Line(26) = {15, 19};
Line(27) = {18, 19};
Line(28) = {16, 20};
Line(29) = {20, 19};
Line(30) = {17, 20};
Curve Loop(7) = {-13, -14, 15, 14};
Surface(7) = {7};
Curve Loop(8) = {13};
Plane Surface(8) = {8};
Curve Loop(9) = {15};
Plane Surface(9) = {9};
Curve Loop(10) = {-16, -17, 18, 17};
Surface(10) = {10};
Curve Loop(11) = {16};
Plane Surface(11) = {11};
Curve Loop(12) = {18};
Plane Surface(12) = {12};
Curve Loop(13) = {-19, 22, 21, -20};
Plane Surface(13) = {13};
Curve Loop(14) = {-23, 19, 25, -24};
Plane Surface(14) = {14};
Curve Loop(15) = {-20, 25, 27, -26};
Plane Surface(15) = {15};
Curve Loop(16) = {-28, 21, 26, -29};
Plane Surface(16) = {16};
Curve Loop(17) = {-22, 23, 30, -28, -18, -15};
Plane Surface(17) = {17};
Curve Loop(18) = {-24, 30, 29, -27};
Plane Surface(18) = {18};
Surface Loop(1) = {13, 14, 15, 16, 17, 18, 10, 7, 11, 8};
Volume(1) = {1};
Surface Loop(2) = {7, 8, 9};
Volume(2) = {2};
Surface Loop(3) = {10, 11, 12};
Volume(3) = {3};
Physical Surface("WALLS") = {13, 18};
Physical Surface("LOAD") = {8, 11};
Physical Surface("BORDER") = {7, 9, 10, 12, 14, 15, 16, 17};
Physical Volume("SOLID") = {1, 2, 3};
