cl__1 = 0.13473;
cl__2 = 0.052527;
cl__3 = 4.293798;
cl__4 = 4.368561;
cl__5 = 0.268376;
cl__6 = 0.471543;
Point(9) = {30.101595, -2.005785, 0.1, cl__1};
Point(10) = {30.101595, -2.005785, 0, cl__1};
Point(11) = {28.148909, 0.2129729999999999, 0.1, cl__2};
Point(12) = {28.148909, 0.2129729999999999, 0, cl__2};
Point(13) = {0.570638, -4.017679, 1, cl__3};
Point(14) = {0.570638, -4.017679, 0, cl__3};
Point(15) = {0.570638, 5.351992999999999, 1, cl__4};
Point(16) = {0.570638, 5.351992999999999, 0, cl__4};
Point(17) = {34.174779, -4.017679, 0, cl__5};
Point(18) = {34.174779, -4.017679, 1, cl__5};
Point(19) = {34.174779, 5.351992999999999, 1, cl__6};
Point(20) = {34.174779, 5.351992999999999, 0, cl__6};
p13 = newp;
Point(p13 + 1) = {30.08500748897217, -1.795020688816832, 0.1};
Point(p13 + 2) = {30.03565339546098, -1.589446094461639, 0.1};
Point(p13 + 3) = {29.95474798104551, -1.394123145710409, 0.1};
Point(p13 + 4) = {29.84428340553836, -1.213861341801099, 0.1};
Point(p13 + 5) = {29.70697967339942, -1.053099326600583, 0.1};
Point(p13 + 6) = {29.5462176581989, -0.9157955944616389, 0.1};
Point(p13 + 7) = {29.36595585428959, -0.8053310189544878, 0.1};
Point(p13 + 8) = {29.17063290553836, -0.7244256045390232, 0.1};
Point(p13 + 9) = {28.96505831118317, -0.67507151102783, 0.1};
Point(p13 + 10) = {28.754294, -0.6584839999999998, 0.1};
Point(p13 + 11) = {28.54352968881683, -0.6750715110278303, 0.1};
Point(p13 + 12) = {28.33795509446164, -0.7244256045390232, 0.1};
Point(p13 + 13) = {28.14263214571041, -0.8053310189544876, 0.1};
Point(p13 + 14) = {27.9623703418011, -0.9157955944616387, 0.1};
Point(p13 + 15) = {27.80160832660059, -1.053099326600583, 0.1};
Point(p13 + 16) = {27.66430459446164, -1.213861341801098, 0.1};
Point(p13 + 17) = {27.55384001895449, -1.394123145710409, 0.1};
Point(p13 + 18) = {27.47293460453902, -1.589446094461639, 0.1};
Point(p13 + 19) = {27.42358051102783, -1.795020688816832, 0.1};
Point(p13 + 20) = {27.406993, -2.005785, 0.1};
Point(p13 + 21) = {27.42358051102783, -2.216549311183168, 0.1};
Point(p13 + 22) = {27.47293460453902, -2.422123905538361, 0.1};
Point(p13 + 23) = {27.55384001895449, -2.61744685428959, 0.1};
Point(p13 + 24) = {27.66430459446164, -2.797708658198901, 0.1};
Point(p13 + 25) = {27.80160832660059, -2.958470673399416, 0.1};
Point(p13 + 26) = {27.9623703418011, -3.095774405538361, 0.1};
Point(p13 + 27) = {28.14263214571041, -3.206238981045512, 0.1};
Point(p13 + 28) = {28.33795509446164, -3.287144395460976, 0.1};
Point(p13 + 29) = {28.54352968881683, -3.33649848897217, 0.1};
Point(p13 + 30) = {28.754294, -3.353086, 0.1};
Point(p13 + 31) = {28.96505831118317, -3.33649848897217, 0.1};
Point(p13 + 32) = {29.17063290553836, -3.287144395460976, 0.1};
Point(p13 + 33) = {29.36595585428959, -3.206238981045512, 0.1};
Point(p13 + 34) = {29.5462176581989, -3.095774405538361, 0.1};
Point(p13 + 35) = {29.70697967339942, -2.958470673399417, 0.1};
Point(p13 + 36) = {29.84428340553836, -2.797708658198902, 0.1};
Point(p13 + 37) = {29.95474798104551, -2.617446854289591, 0.1};
Point(p13 + 38) = {30.03565339546098, -2.422123905538361, 0.1};
Point(p13 + 39) = {30.08500748897217, -2.216549311183168, 0.1};
Spline(13) = {9, p13 + 1, p13 + 2, p13 + 3, p13 + 4, p13 + 5, p13 + 6, p13 + 7, p13 + 8, p13 + 9, p13 + 10, p13 + 11, p13 + 12, p13 + 13, p13 + 14, p13 + 15, p13 + 16, p13 + 17, p13 + 18, p13 + 19, p13 + 20, p13 + 21, p13 + 22, p13 + 23, p13 + 24, p13 + 25, p13 + 26, p13 + 27, p13 + 28, p13 + 29, p13 + 30, p13 + 31, p13 + 32, p13 + 33, p13 + 34, p13 + 35, p13 + 36, p13 + 37, p13 + 38, p13 + 39, 9};
Line(14) = {10, 9};
p15 = newp;
Point(p15 + 1) = {30.08500748897217, -1.795020688816832, 0};
Point(p15 + 2) = {30.03565339546098, -1.589446094461639, 0};
Point(p15 + 3) = {29.95474798104551, -1.394123145710409, 0};
Point(p15 + 4) = {29.84428340553836, -1.213861341801099, 0};
Point(p15 + 5) = {29.70697967339942, -1.053099326600583, 0};
Point(p15 + 6) = {29.5462176581989, -0.9157955944616389, 0};
Point(p15 + 7) = {29.36595585428959, -0.8053310189544878, 0};
Point(p15 + 8) = {29.17063290553836, -0.7244256045390232, 0};
Point(p15 + 9) = {28.96505831118317, -0.67507151102783, 0};
Point(p15 + 10) = {28.754294, -0.6584839999999998, 0};
Point(p15 + 11) = {28.54352968881683, -0.6750715110278303, 0};
Point(p15 + 12) = {28.33795509446164, -0.7244256045390232, 0};
Point(p15 + 13) = {28.14263214571041, -0.8053310189544876, 0};
Point(p15 + 14) = {27.9623703418011, -0.9157955944616387, 0};
Point(p15 + 15) = {27.80160832660059, -1.053099326600583, 0};
Point(p15 + 16) = {27.66430459446164, -1.213861341801098, 0};
Point(p15 + 17) = {27.55384001895449, -1.394123145710409, 0};
Point(p15 + 18) = {27.47293460453902, -1.589446094461639, 0};
Point(p15 + 19) = {27.42358051102783, -1.795020688816832, 0};
Point(p15 + 20) = {27.406993, -2.005785, 0};
Point(p15 + 21) = {27.42358051102783, -2.216549311183168, 0};
Point(p15 + 22) = {27.47293460453902, -2.422123905538361, 0};
Point(p15 + 23) = {27.55384001895449, -2.61744685428959, 0};
Point(p15 + 24) = {27.66430459446164, -2.797708658198901, 0};
Point(p15 + 25) = {27.80160832660059, -2.958470673399416, 0};
Point(p15 + 26) = {27.9623703418011, -3.095774405538361, 0};
Point(p15 + 27) = {28.14263214571041, -3.206238981045512, 0};
Point(p15 + 28) = {28.33795509446164, -3.287144395460976, 0};
Point(p15 + 29) = {28.54352968881683, -3.33649848897217, 0};
Point(p15 + 30) = {28.754294, -3.353086, 0};
Point(p15 + 31) = {28.96505831118317, -3.33649848897217, 0};
Point(p15 + 32) = {29.17063290553836, -3.287144395460976, 0};
Point(p15 + 33) = {29.36595585428959, -3.206238981045512, 0};
Point(p15 + 34) = {29.5462176581989, -3.095774405538361, 0};
Point(p15 + 35) = {29.70697967339942, -2.958470673399417, 0};
Point(p15 + 36) = {29.84428340553836, -2.797708658198902, 0};
Point(p15 + 37) = {29.95474798104551, -2.617446854289591, 0};
Point(p15 + 38) = {30.03565339546098, -2.422123905538361, 0};
Point(p15 + 39) = {30.08500748897217, -2.216549311183168, 0};
Spline(15) = {10, p15 + 1, p15 + 2, p15 + 3, p15 + 4, p15 + 5, p15 + 6, p15 + 7, p15 + 8, p15 + 9, p15 + 10, p15 + 11, p15 + 12, p15 + 13, p15 + 14, p15 + 15, p15 + 16, p15 + 17, p15 + 18, p15 + 19, p15 + 20, p15 + 21, p15 + 22, p15 + 23, p15 + 24, p15 + 25, p15 + 26, p15 + 27, p15 + 28, p15 + 29, p15 + 30, p15 + 31, p15 + 32, p15 + 33, p15 + 34, p15 + 35, p15 + 36, p15 + 37, p15 + 38, p15 + 39, 10};
p16 = newp;
Point(p16 + 1) = {28.14244203004109, 0.2951436443206121, 0.1};
Point(p16 + 2) = {28.12320035842739, 0.3752909746693174, 0.1};
Point(p16 + 3) = {28.09165777897347, 0.4514414977791912, 0.1};
Point(p16 + 4) = {28.04859097466932, 0.521720135042172, 0.1};
Point(p16 + 5) = {27.99506039316742, 0.5843963931674201, 0.1};
Point(p16 + 6) = {27.93238413504217, 0.6379269746693172, 0.1};
Point(p16 + 7) = {27.86210549777919, 0.6809937789734722, 0.1};
Point(p16 + 8) = {27.78595497466932, 0.7125363584273878, 0.1};
Point(p16 + 9) = {27.70580764432061, 0.7317780300410891, 0.1};
Point(p16 + 10) = {27.623637, 0.7382449999999999, 0.1};
Point(p16 + 11) = {27.54146635567939, 0.7317780300410891, 0.1};
Point(p16 + 12) = {27.46131902533068, 0.7125363584273879, 0.1};
Point(p16 + 13) = {27.38516850222081, 0.6809937789734724, 0.1};
Point(p16 + 14) = {27.31488986495783, 0.6379269746693174, 0.1};
Point(p16 + 15) = {27.25221360683258, 0.5843963931674202, 0.1};
Point(p16 + 16) = {27.19868302533068, 0.521720135042172, 0.1};
Point(p16 + 17) = {27.15561622102653, 0.4514414977791912, 0.1};
Point(p16 + 18) = {27.12407364157261, 0.3752909746693174, 0.1};
Point(p16 + 19) = {27.10483196995891, 0.2951436443206122, 0.1};
Point(p16 + 20) = {27.098365, 0.2129730000000001, 0.1};
Point(p16 + 21) = {27.10483196995891, 0.1308023556793879, 0.1};
Point(p16 + 22) = {27.12407364157261, 0.05065502533068247, 0.1};
Point(p16 + 23) = {27.15561622102653, -0.02549549777919094, 0.1};
Point(p16 + 24) = {27.19868302533068, -0.09577413504217189, 0.1};
Point(p16 + 25) = {27.25221360683258, -0.1584503931674201, 0.1};
Point(p16 + 26) = {27.31488986495783, -0.2119809746693173, 0.1};
Point(p16 + 27) = {27.38516850222081, -0.2550477789734723, 0.1};
Point(p16 + 28) = {27.46131902533068, -0.2865903584273879, 0.1};
Point(p16 + 29) = {27.54146635567939, -0.3058320300410892, 0.1};
Point(p16 + 30) = {27.623637, -0.312299, 0.1};
Point(p16 + 31) = {27.70580764432061, -0.3058320300410892, 0.1};
Point(p16 + 32) = {27.78595497466932, -0.2865903584273879, 0.1};
Point(p16 + 33) = {27.86210549777919, -0.2550477789734724, 0.1};
Point(p16 + 34) = {27.93238413504217, -0.2119809746693175, 0.1};
Point(p16 + 35) = {27.99506039316742, -0.1584503931674202, 0.1};
Point(p16 + 36) = {28.04859097466932, -0.095774135042172, 0.1};
Point(p16 + 37) = {28.09165777897347, -0.0254954977791913, 0.1};
Point(p16 + 38) = {28.12320035842739, 0.05065502533068253, 0.1};
Point(p16 + 39) = {28.14244203004109, 0.1308023556793877, 0.1};
Spline(16) = {11, p16 + 1, p16 + 2, p16 + 3, p16 + 4, p16 + 5, p16 + 6, p16 + 7, p16 + 8, p16 + 9, p16 + 10, p16 + 11, p16 + 12, p16 + 13, p16 + 14, p16 + 15, p16 + 16, p16 + 17, p16 + 18, p16 + 19, p16 + 20, p16 + 21, p16 + 22, p16 + 23, p16 + 24, p16 + 25, p16 + 26, p16 + 27, p16 + 28, p16 + 29, p16 + 30, p16 + 31, p16 + 32, p16 + 33, p16 + 34, p16 + 35, p16 + 36, p16 + 37, p16 + 38, p16 + 39, 11};
Line(17) = {12, 11};
p18 = newp;
Point(p18 + 1) = {28.14244203004109, 0.2951436443206121, 0};
Point(p18 + 2) = {28.12320035842739, 0.3752909746693174, 0};
Point(p18 + 3) = {28.09165777897347, 0.4514414977791912, 0};
Point(p18 + 4) = {28.04859097466932, 0.521720135042172, 0};
Point(p18 + 5) = {27.99506039316742, 0.5843963931674201, 0};
Point(p18 + 6) = {27.93238413504217, 0.6379269746693172, 0};
Point(p18 + 7) = {27.86210549777919, 0.6809937789734722, 0};
Point(p18 + 8) = {27.78595497466932, 0.7125363584273878, 0};
Point(p18 + 9) = {27.70580764432061, 0.7317780300410891, 0};
Point(p18 + 10) = {27.623637, 0.7382449999999999, 0};
Point(p18 + 11) = {27.54146635567939, 0.7317780300410891, 0};
Point(p18 + 12) = {27.46131902533068, 0.7125363584273879, 0};
Point(p18 + 13) = {27.38516850222081, 0.6809937789734724, 0};
Point(p18 + 14) = {27.31488986495783, 0.6379269746693174, 0};
Point(p18 + 15) = {27.25221360683258, 0.5843963931674202, 0};
Point(p18 + 16) = {27.19868302533068, 0.521720135042172, 0};
Point(p18 + 17) = {27.15561622102653, 0.4514414977791912, 0};
Point(p18 + 18) = {27.12407364157261, 0.3752909746693174, 0};
Point(p18 + 19) = {27.10483196995891, 0.2951436443206122, 0};
Point(p18 + 20) = {27.098365, 0.2129730000000001, 0};
Point(p18 + 21) = {27.10483196995891, 0.1308023556793879, 0};
Point(p18 + 22) = {27.12407364157261, 0.05065502533068247, 0};
Point(p18 + 23) = {27.15561622102653, -0.02549549777919094, 0};
Point(p18 + 24) = {27.19868302533068, -0.09577413504217189, 0};
Point(p18 + 25) = {27.25221360683258, -0.1584503931674201, 0};
Point(p18 + 26) = {27.31488986495783, -0.2119809746693173, 0};
Point(p18 + 27) = {27.38516850222081, -0.2550477789734723, 0};
Point(p18 + 28) = {27.46131902533068, -0.2865903584273879, 0};
Point(p18 + 29) = {27.54146635567939, -0.3058320300410892, 0};
Point(p18 + 30) = {27.623637, -0.312299, 0};
Point(p18 + 31) = {27.70580764432061, -0.3058320300410892, 0};
Point(p18 + 32) = {27.78595497466932, -0.2865903584273879, 0};
Point(p18 + 33) = {27.86210549777919, -0.2550477789734724, 0};
Point(p18 + 34) = {27.93238413504217, -0.2119809746693175, 0};
Point(p18 + 35) = {27.99506039316742, -0.1584503931674202, 0};
Point(p18 + 36) = {28.04859097466932, -0.095774135042172, 0};
Point(p18 + 37) = {28.09165777897347, -0.0254954977791913, 0};
Point(p18 + 38) = {28.12320035842739, 0.05065502533068253, 0};
Point(p18 + 39) = {28.14244203004109, 0.1308023556793877, 0};
Spline(18) = {12, p18 + 1, p18 + 2, p18 + 3, p18 + 4, p18 + 5, p18 + 6, p18 + 7, p18 + 8, p18 + 9, p18 + 10, p18 + 11, p18 + 12, p18 + 13, p18 + 14, p18 + 15, p18 + 16, p18 + 17, p18 + 18, p18 + 19, p18 + 20, p18 + 21, p18 + 22, p18 + 23, p18 + 24, p18 + 25, p18 + 26, p18 + 27, p18 + 28, p18 + 29, p18 + 30, p18 + 31, p18 + 32, p18 + 33, p18 + 34, p18 + 35, p18 + 36, p18 + 37, p18 + 38, p18 + 39, 12};
Line(19) = {14, 13};
Line(20) = {13, 15};
Line(21) = {16, 15};
Line(22) = {14, 16};
Line(23) = {14, 17};
Line(24) = {17, 18};
Line(25) = {13, 18};
Line(26) = {15, 19};
Line(27) = {18, 19};
Line(28) = {16, 20};
Line(29) = {20, 19};
Line(30) = {17, 20};
Curve Loop(7) = {-13, -14, 15, 14};
Surface(7) = {7};
Curve Loop(8) = {13};
Plane Surface(8) = {8};
Curve Loop(9) = {15};
Plane Surface(9) = {9};
Curve Loop(10) = {-16, -17, 18, 17};
Surface(10) = {10};
Curve Loop(11) = {16};
Plane Surface(11) = {11};
Curve Loop(12) = {18};
Plane Surface(12) = {12};
Curve Loop(13) = {-19, 22, 21, -20};
Plane Surface(13) = {13};
Curve Loop(14) = {-23, 19, 25, -24};
Plane Surface(14) = {14};
Curve Loop(15) = {-20, 25, 27, -26};
Plane Surface(15) = {15};
Curve Loop(16) = {-28, 21, 26, -29};
Plane Surface(16) = {16};
Curve Loop(17) = {-22, 23, 30, -28, -15, -18};
Plane Surface(17) = {17};
Curve Loop(18) = {-24, 30, 29, -27};
Plane Surface(18) = {18};
Surface Loop(1) = {13, 14, 15, 16, 17, 18, 7, 10, 8, 11};
Volume(1) = {1};
Surface Loop(2) = {7, 8, 9};
Volume(2) = {2};
Surface Loop(3) = {10, 11, 12};
Volume(3) = {3};
Physical Surface("WALLS") = {13, 18};
Physical Surface("LOAD") = {8, 11};
Physical Surface("BORDER") = {7, 9, 10, 12, 14, 15, 16, 17};
Physical Volume("SOLID") = {1, 2, 3};
