cl__1 = 0.089208;
cl__2 = 0.128878;
cl__3 = 2.638557;
cl__4 = 2.276605;
cl__5 = 0.667779;
cl__6 = 0.634873;
Point(9) = {23.78196, 3.576823, 0.1, cl__1};
Point(10) = {23.78196, 3.576823, 0, cl__1};
Point(11) = {27.245992, 1.431041, 0.1, cl__2};
Point(12) = {27.245992, 1.431041, 0, cl__2};
Point(13) = {0.455584, -3.647268, 1, cl__3};
Point(14) = {0.455584, -3.647268, 0, cl__3};
Point(15) = {0.455584, 5.016223, 1, cl__4};
Point(16) = {0.455584, 5.016223, 0, cl__4};
Point(17) = {37.102159, -3.647268, 0, cl__5};
Point(18) = {37.102159, -3.647268, 1, cl__5};
Point(19) = {37.102159, 5.016223, 1, cl__6};
Point(20) = {37.102159, 5.016223, 0, cl__6};
p13 = newp;
Point(p13 + 1) = {23.77097705181309, 3.716374588269694, 0.1};
Point(p13 + 2) = {23.73829864388703, 3.85248995329102, 0.1};
Point(p13 + 3) = {23.68472942707839, 3.981817483036156, 0.1};
Point(p13 + 4) = {23.61158845329102, 4.101172704509312, 0.1};
Point(p13 + 5) = {23.52067669604055, 4.207616696040552, 0.1};
Point(p13 + 6) = {23.41423270450931, 4.29852845329102, 0.1};
Point(p13 + 7) = {23.29487748303616, 4.371669427078387, 0.1};
Point(p13 + 8) = {23.16554995329102, 4.425238643887032, 0.1};
Point(p13 + 9) = {23.02943458826969, 4.457917051813089, 0.1};
Point(p13 + 10) = {22.889883, 4.4689, 0.1};
Point(p13 + 11) = {22.75033141173031, 4.457917051813089, 0.1};
Point(p13 + 12) = {22.61421604670898, 4.425238643887032, 0.1};
Point(p13 + 13) = {22.48488851696385, 4.371669427078387, 0.1};
Point(p13 + 14) = {22.36553329549069, 4.29852845329102, 0.1};
Point(p13 + 15) = {22.25908930395945, 4.207616696040552, 0.1};
Point(p13 + 16) = {22.16817754670898, 4.101172704509313, 0.1};
Point(p13 + 17) = {22.09503657292161, 3.981817483036156, 0.1};
Point(p13 + 18) = {22.04146735611297, 3.85248995329102, 0.1};
Point(p13 + 19) = {22.00878894818691, 3.716374588269694, 0.1};
Point(p13 + 20) = {21.997806, 3.576823, 0.1};
Point(p13 + 21) = {22.00878894818691, 3.437271411730306, 0.1};
Point(p13 + 22) = {22.04146735611297, 3.30115604670898, 0.1};
Point(p13 + 23) = {22.09503657292161, 3.171828516963845, 0.1};
Point(p13 + 24) = {22.16817754670898, 3.052473295490687, 0.1};
Point(p13 + 25) = {22.25908930395945, 2.946029303959449, 0.1};
Point(p13 + 26) = {22.36553329549069, 2.85511754670898, 0.1};
Point(p13 + 27) = {22.48488851696385, 2.781976572921613, 0.1};
Point(p13 + 28) = {22.61421604670898, 2.728407356112968, 0.1};
Point(p13 + 29) = {22.75033141173031, 2.695728948186912, 0.1};
Point(p13 + 30) = {22.889883, 2.684746, 0.1};
Point(p13 + 31) = {23.02943458826969, 2.695728948186911, 0.1};
Point(p13 + 32) = {23.16554995329102, 2.728407356112968, 0.1};
Point(p13 + 33) = {23.29487748303616, 2.781976572921613, 0.1};
Point(p13 + 34) = {23.41423270450931, 2.85511754670898, 0.1};
Point(p13 + 35) = {23.52067669604055, 2.946029303959448, 0.1};
Point(p13 + 36) = {23.61158845329102, 3.052473295490687, 0.1};
Point(p13 + 37) = {23.68472942707839, 3.171828516963844, 0.1};
Point(p13 + 38) = {23.73829864388703, 3.30115604670898, 0.1};
Point(p13 + 39) = {23.77097705181309, 3.437271411730306, 0.1};
Spline(13) = {9, p13 + 1, p13 + 2, p13 + 3, p13 + 4, p13 + 5, p13 + 6, p13 + 7, p13 + 8, p13 + 9, p13 + 10, p13 + 11, p13 + 12, p13 + 13, p13 + 14, p13 + 15, p13 + 16, p13 + 17, p13 + 18, p13 + 19, p13 + 20, p13 + 21, p13 + 22, p13 + 23, p13 + 24, p13 + 25, p13 + 26, p13 + 27, p13 + 28, p13 + 29, p13 + 30, p13 + 31, p13 + 32, p13 + 33, p13 + 34, p13 + 35, p13 + 36, p13 + 37, p13 + 38, p13 + 39, 9};
Line(14) = {10, 9};
p15 = newp;
Point(p15 + 1) = {23.77097705181309, 3.716374588269694, 0};
Point(p15 + 2) = {23.73829864388703, 3.85248995329102, 0};
Point(p15 + 3) = {23.68472942707839, 3.981817483036156, 0};
Point(p15 + 4) = {23.61158845329102, 4.101172704509312, 0};
Point(p15 + 5) = {23.52067669604055, 4.207616696040552, 0};
Point(p15 + 6) = {23.41423270450931, 4.29852845329102, 0};
Point(p15 + 7) = {23.29487748303616, 4.371669427078387, 0};
Point(p15 + 8) = {23.16554995329102, 4.425238643887032, 0};
Point(p15 + 9) = {23.02943458826969, 4.457917051813089, 0};
Point(p15 + 10) = {22.889883, 4.4689, 0};
Point(p15 + 11) = {22.75033141173031, 4.457917051813089, 0};
Point(p15 + 12) = {22.61421604670898, 4.425238643887032, 0};
Point(p15 + 13) = {22.48488851696385, 4.371669427078387, 0};
Point(p15 + 14) = {22.36553329549069, 4.29852845329102, 0};
Point(p15 + 15) = {22.25908930395945, 4.207616696040552, 0};
Point(p15 + 16) = {22.16817754670898, 4.101172704509313, 0};
Point(p15 + 17) = {22.09503657292161, 3.981817483036156, 0};
Point(p15 + 18) = {22.04146735611297, 3.85248995329102, 0};
Point(p15 + 19) = {22.00878894818691, 3.716374588269694, 0};
Point(p15 + 20) = {21.997806, 3.576823, 0};
Point(p15 + 21) = {22.00878894818691, 3.437271411730306, 0};
Point(p15 + 22) = {22.04146735611297, 3.30115604670898, 0};
Point(p15 + 23) = {22.09503657292161, 3.171828516963845, 0};
Point(p15 + 24) = {22.16817754670898, 3.052473295490687, 0};
Point(p15 + 25) = {22.25908930395945, 2.946029303959449, 0};
Point(p15 + 26) = {22.36553329549069, 2.85511754670898, 0};
Point(p15 + 27) = {22.48488851696385, 2.781976572921613, 0};
Point(p15 + 28) = {22.61421604670898, 2.728407356112968, 0};
Point(p15 + 29) = {22.75033141173031, 2.695728948186912, 0};
Point(p15 + 30) = {22.889883, 2.684746, 0};
Point(p15 + 31) = {23.02943458826969, 2.695728948186911, 0};
Point(p15 + 32) = {23.16554995329102, 2.728407356112968, 0};
Point(p15 + 33) = {23.29487748303616, 2.781976572921613, 0};
Point(p15 + 34) = {23.41423270450931, 2.85511754670898, 0};
Point(p15 + 35) = {23.52067669604055, 2.946029303959448, 0};
Point(p15 + 36) = {23.61158845329102, 3.052473295490687, 0};
Point(p15 + 37) = {23.68472942707839, 3.171828516963844, 0};
Point(p15 + 38) = {23.73829864388703, 3.30115604670898, 0};
Point(p15 + 39) = {23.77097705181309, 3.437271411730306, 0};
Spline(15) = {10, p15 + 1, p15 + 2, p15 + 3, p15 + 4, p15 + 5, p15 + 6, p15 + 7, p15 + 8, p15 + 9, p15 + 10, p15 + 11, p15 + 12, p15 + 13, p15 + 14, p15 + 15, p15 + 16, p15 + 17, p15 + 18, p15 + 19, p15 + 20, p15 + 21, p15 + 22, p15 + 23, p15 + 24, p15 + 25, p15 + 26, p15 + 27, p15 + 28, p15 + 29, p15 + 30, p15 + 31, p15 + 32, p15 + 33, p15 + 34, p15 + 35, p15 + 36, p15 + 37, p15 + 38, p15 + 39, 10};
p16 = newp;
Point(p16 + 1) = {27.23012499190386, 1.632650453420084, 0.1};
Point(p16 + 2) = {27.18291466601435, 1.82929561299355, 0.1};
Point(p16 + 3) = {27.10552349723696, 2.016134422263833, 0.1};
Point(p16 + 4) = {26.99985711299355, 2.188566289664241, 0.1};
Point(p16 + 5) = {26.86851737035082, 2.342345370350817, 0.1};
Point(p16 + 6) = {26.71473828966424, 2.47368511299355, 0.1};
Point(p16 + 7) = {26.54230642226383, 2.57935149723696, 0.1};
Point(p16 + 8) = {26.35546761299355, 2.656742666014352, 0.1};
Point(p16 + 9) = {26.15882245342008, 2.703952991903861, 0.1};
Point(p16 + 10) = {25.957213, 2.71982, 0.1};
Point(p16 + 11) = {25.75560354657992, 2.703952991903861, 0.1};
Point(p16 + 12) = {25.55895838700645, 2.656742666014352, 0.1};
Point(p16 + 13) = {25.37211957773616, 2.57935149723696, 0.1};
Point(p16 + 14) = {25.19968771033576, 2.47368511299355, 0.1};
Point(p16 + 15) = {25.04590862964918, 2.342345370350817, 0.1};
Point(p16 + 16) = {24.91456888700645, 2.188566289664241, 0.1};
Point(p16 + 17) = {24.80890250276304, 2.016134422263833, 0.1};
Point(p16 + 18) = {24.73151133398565, 1.82929561299355, 0.1};
Point(p16 + 19) = {24.68430100809614, 1.632650453420084, 0.1};
Point(p16 + 20) = {24.668434, 1.431041, 0.1};
Point(p16 + 21) = {24.68430100809614, 1.229431546579916, 0.1};
Point(p16 + 22) = {24.73151133398565, 1.032786387006449, 0.1};
Point(p16 + 23) = {24.80890250276304, 0.8459475777361674, 0.1};
Point(p16 + 24) = {24.91456888700645, 0.673515710335759, 0.1};
Point(p16 + 25) = {25.04590862964918, 0.5197366296491827, 0.1};
Point(p16 + 26) = {25.19968771033576, 0.3883968870064498, 0.1};
Point(p16 + 27) = {25.37211957773616, 0.2827305027630396, 0.1};
Point(p16 + 28) = {25.55895838700645, 0.2053393339856484, 0.1};
Point(p16 + 29) = {25.75560354657992, 0.1581290080961393, 0.1};
Point(p16 + 30) = {25.957213, 0.1422620000000001, 0.1};
Point(p16 + 31) = {26.15882245342008, 0.1581290080961391, 0.1};
Point(p16 + 32) = {26.35546761299355, 0.2053393339856482, 0.1};
Point(p16 + 33) = {26.54230642226383, 0.2827305027630393, 0.1};
Point(p16 + 34) = {26.71473828966424, 0.3883968870064496, 0.1};
Point(p16 + 35) = {26.86851737035082, 0.5197366296491823, 0.1};
Point(p16 + 36) = {26.99985711299355, 0.6735157103357586, 0.1};
Point(p16 + 37) = {27.10552349723696, 0.8459475777361665, 0.1};
Point(p16 + 38) = {27.18291466601435, 1.032786387006449, 0.1};
Point(p16 + 39) = {27.23012499190386, 1.229431546579916, 0.1};
Spline(16) = {11, p16 + 1, p16 + 2, p16 + 3, p16 + 4, p16 + 5, p16 + 6, p16 + 7, p16 + 8, p16 + 9, p16 + 10, p16 + 11, p16 + 12, p16 + 13, p16 + 14, p16 + 15, p16 + 16, p16 + 17, p16 + 18, p16 + 19, p16 + 20, p16 + 21, p16 + 22, p16 + 23, p16 + 24, p16 + 25, p16 + 26, p16 + 27, p16 + 28, p16 + 29, p16 + 30, p16 + 31, p16 + 32, p16 + 33, p16 + 34, p16 + 35, p16 + 36, p16 + 37, p16 + 38, p16 + 39, 11};
Line(17) = {12, 11};
p18 = newp;
Point(p18 + 1) = {27.23012499190386, 1.632650453420084, 0};
Point(p18 + 2) = {27.18291466601435, 1.82929561299355, 0};
Point(p18 + 3) = {27.10552349723696, 2.016134422263833, 0};
Point(p18 + 4) = {26.99985711299355, 2.188566289664241, 0};
Point(p18 + 5) = {26.86851737035082, 2.342345370350817, 0};
Point(p18 + 6) = {26.71473828966424, 2.47368511299355, 0};
Point(p18 + 7) = {26.54230642226383, 2.57935149723696, 0};
Point(p18 + 8) = {26.35546761299355, 2.656742666014352, 0};
Point(p18 + 9) = {26.15882245342008, 2.703952991903861, 0};
Point(p18 + 10) = {25.957213, 2.71982, 0};
Point(p18 + 11) = {25.75560354657992, 2.703952991903861, 0};
Point(p18 + 12) = {25.55895838700645, 2.656742666014352, 0};
Point(p18 + 13) = {25.37211957773616, 2.57935149723696, 0};
Point(p18 + 14) = {25.19968771033576, 2.47368511299355, 0};
Point(p18 + 15) = {25.04590862964918, 2.342345370350817, 0};
Point(p18 + 16) = {24.91456888700645, 2.188566289664241, 0};
Point(p18 + 17) = {24.80890250276304, 2.016134422263833, 0};
Point(p18 + 18) = {24.73151133398565, 1.82929561299355, 0};
Point(p18 + 19) = {24.68430100809614, 1.632650453420084, 0};
Point(p18 + 20) = {24.668434, 1.431041, 0};
Point(p18 + 21) = {24.68430100809614, 1.229431546579916, 0};
Point(p18 + 22) = {24.73151133398565, 1.032786387006449, 0};
Point(p18 + 23) = {24.80890250276304, 0.8459475777361674, 0};
Point(p18 + 24) = {24.91456888700645, 0.673515710335759, 0};
Point(p18 + 25) = {25.04590862964918, 0.5197366296491827, 0};
Point(p18 + 26) = {25.19968771033576, 0.3883968870064498, 0};
Point(p18 + 27) = {25.37211957773616, 0.2827305027630396, 0};
Point(p18 + 28) = {25.55895838700645, 0.2053393339856484, 0};
Point(p18 + 29) = {25.75560354657992, 0.1581290080961393, 0};
Point(p18 + 30) = {25.957213, 0.1422620000000001, 0};
Point(p18 + 31) = {26.15882245342008, 0.1581290080961391, 0};
Point(p18 + 32) = {26.35546761299355, 0.2053393339856482, 0};
Point(p18 + 33) = {26.54230642226383, 0.2827305027630393, 0};
Point(p18 + 34) = {26.71473828966424, 0.3883968870064496, 0};
Point(p18 + 35) = {26.86851737035082, 0.5197366296491823, 0};
Point(p18 + 36) = {26.99985711299355, 0.6735157103357586, 0};
Point(p18 + 37) = {27.10552349723696, 0.8459475777361665, 0};
Point(p18 + 38) = {27.18291466601435, 1.032786387006449, 0};
Point(p18 + 39) = {27.23012499190386, 1.229431546579916, 0};
Spline(18) = {12, p18 + 1, p18 + 2, p18 + 3, p18 + 4, p18 + 5, p18 + 6, p18 + 7, p18 + 8, p18 + 9, p18 + 10, p18 + 11, p18 + 12, p18 + 13, p18 + 14, p18 + 15, p18 + 16, p18 + 17, p18 + 18, p18 + 19, p18 + 20, p18 + 21, p18 + 22, p18 + 23, p18 + 24, p18 + 25, p18 + 26, p18 + 27, p18 + 28, p18 + 29, p18 + 30, p18 + 31, p18 + 32, p18 + 33, p18 + 34, p18 + 35, p18 + 36, p18 + 37, p18 + 38, p18 + 39, 12};
Line(19) = {14, 13};
Line(20) = {13, 15};
Line(21) = {16, 15};
Line(22) = {14, 16};
Line(23) = {14, 17};
Line(24) = {17, 18};
Line(25) = {13, 18};
Line(26) = {15, 19};
Line(27) = {18, 19};
Line(28) = {16, 20};
Line(29) = {20, 19};
Line(30) = {17, 20};
Curve Loop(7) = {-13, -14, 15, 14};
Surface(7) = {7};
Curve Loop(8) = {13};
Plane Surface(8) = {8};
Curve Loop(9) = {15};
Plane Surface(9) = {9};
Curve Loop(10) = {-16, -17, 18, 17};
Surface(10) = {10};
Curve Loop(11) = {16};
Plane Surface(11) = {11};
Curve Loop(12) = {18};
Plane Surface(12) = {12};
Curve Loop(13) = {-19, 22, 21, -20};
Plane Surface(13) = {13};
Curve Loop(14) = {-23, 19, 25, -24};
Plane Surface(14) = {14};
Curve Loop(15) = {-20, 25, 27, -26};
Plane Surface(15) = {15};
Curve Loop(16) = {-28, 21, 26, -29};
Plane Surface(16) = {16};
Curve Loop(17) = {-22, 23, 30, -28, -18, -15};
Plane Surface(17) = {17};
Curve Loop(18) = {-24, 30, 29, -27};
Plane Surface(18) = {18};
Surface Loop(1) = {13, 14, 15, 16, 17, 18, 10, 7, 11, 8};
Volume(1) = {1};
Surface Loop(2) = {7, 8, 9};
Volume(2) = {2};
Surface Loop(3) = {10, 11, 12};
Volume(3) = {3};
Physical Surface("WALLS") = {13, 18};
Physical Surface("LOAD") = {8, 11};
Physical Surface("BORDER") = {7, 9, 10, 12, 14, 15, 16, 17};
Physical Volume("SOLID") = {1, 2, 3};
