cl__1 = 0.106724;
cl__2 = 0.118184;
cl__3 = 4.776102;
cl__4 = 4.95954;
cl__5 = 0.175316;
cl__6 = 0.435272;
Point(9) = {25.633597, -0.1772810000000002, 0.1, cl__1};
Point(10) = {25.633597, -0.1772810000000002, 0, cl__1};
Point(11) = {29.264027, -1.394647, 0.1, cl__2};
Point(12) = {29.264027, -1.394647, 0, cl__2};
Point(13) = {0.785382, -4.402565, 1, cl__3};
Point(14) = {0.785382, -4.402565, 0, cl__3};
Point(15) = {0.785382, 5.482823000000001, 1, cl__4};
Point(16) = {0.785382, 5.482823000000001, 0, cl__4};
Point(17) = {30.033074, -4.402565, 0, cl__5};
Point(18) = {30.033074, -4.402565, 1, cl__5};
Point(19) = {30.033074, 5.482823000000001, 1, cl__6};
Point(20) = {30.033074, 5.482823000000001, 0, cl__6};
p13 = newp;
Point(p13 + 1) = {25.62045745537011, -0.01032725579260382, 0.1};
Point(p13 + 2) = {25.58136236067691, 0.1525155331446964, 0.1};
Point(p13 + 3) = {25.51727436690089, 0.3072376369040328, 0.1};
Point(p13 + 4) = {25.4297715331447, 0.4500292837976282, 0.1};
Point(p13 + 5) = {25.32100846958065, 0.5773744695806557, 0.1};
Point(p13 + 6) = {25.19366328379763, 0.6861375331446964, 0.1};
Point(p13 + 7) = {25.05087163690403, 0.7736403669008904, 0.1};
Point(p13 + 8) = {24.8961495331447, 0.8377283606769048, 0.1};
Point(p13 + 9) = {24.7333067442074, 0.8768234553701173, 0.1};
Point(p13 + 10) = {24.566353, 0.8899630000000001, 0.1};
Point(p13 + 11) = {24.3993992557926, 0.8768234553701171, 0.1};
Point(p13 + 12) = {24.2365564668553, 0.837728360676905, 0.1};
Point(p13 + 13) = {24.08183436309597, 0.7736403669008906, 0.1};
Point(p13 + 14) = {23.93904271620237, 0.6861375331446965, 0.1};
Point(p13 + 15) = {23.81169753041934, 0.5773744695806559, 0.1};
Point(p13 + 16) = {23.7029344668553, 0.4500292837976283, 0.1};
Point(p13 + 17) = {23.61543163309911, 0.3072376369040329, 0.1};
Point(p13 + 18) = {23.55134363932309, 0.1525155331446965, 0.1};
Point(p13 + 19) = {23.51224854462988, -0.01032725579260371, 0.1};
Point(p13 + 20) = {23.499109, -0.1772809999999999, 0.1};
Point(p13 + 21) = {23.51224854462988, -0.3442347442073961, 0.1};
Point(p13 + 22) = {23.55134363932309, -0.5070775331446967, 0.1};
Point(p13 + 23) = {23.61543163309911, -0.6617996369040324, 0.1};
Point(p13 + 24) = {23.7029344668553, -0.8045912837976281, 0.1};
Point(p13 + 25) = {23.81169753041934, -0.9319364695806558, 0.1};
Point(p13 + 26) = {23.93904271620237, -1.040699533144696, 0.1};
Point(p13 + 27) = {24.08183436309597, -1.12820236690089, 0.1};
Point(p13 + 28) = {24.2365564668553, -1.192290360676905, 0.1};
Point(p13 + 29) = {24.3993992557926, -1.231385455370117, 0.1};
Point(p13 + 30) = {24.566353, -1.244525, 0.1};
Point(p13 + 31) = {24.7333067442074, -1.231385455370117, 0.1};
Point(p13 + 32) = {24.89614953314469, -1.192290360676905, 0.1};
Point(p13 + 33) = {25.05087163690403, -1.128202366900891, 0.1};
Point(p13 + 34) = {25.19366328379763, -1.040699533144697, 0.1};
Point(p13 + 35) = {25.32100846958065, -0.931936469580656, 0.1};
Point(p13 + 36) = {25.4297715331447, -0.8045912837976283, 0.1};
Point(p13 + 37) = {25.51727436690089, -0.6617996369040331, 0.1};
Point(p13 + 38) = {25.58136236067691, -0.5070775331446966, 0.1};
Point(p13 + 39) = {25.62045745537011, -0.3442347442073964, 0.1};
Spline(13) = {9, p13 + 1, p13 + 2, p13 + 3, p13 + 4, p13 + 5, p13 + 6, p13 + 7, p13 + 8, p13 + 9, p13 + 10, p13 + 11, p13 + 12, p13 + 13, p13 + 14, p13 + 15, p13 + 16, p13 + 17, p13 + 18, p13 + 19, p13 + 20, p13 + 21, p13 + 22, p13 + 23, p13 + 24, p13 + 25, p13 + 26, p13 + 27, p13 + 28, p13 + 29, p13 + 30, p13 + 31, p13 + 32, p13 + 33, p13 + 34, p13 + 35, p13 + 36, p13 + 37, p13 + 38, p13 + 39, 9};
Line(14) = {10, 9};
p15 = newp;
Point(p15 + 1) = {25.62045745537011, -0.01032725579260382, 0};
Point(p15 + 2) = {25.58136236067691, 0.1525155331446964, 0};
Point(p15 + 3) = {25.51727436690089, 0.3072376369040328, 0};
Point(p15 + 4) = {25.4297715331447, 0.4500292837976282, 0};
Point(p15 + 5) = {25.32100846958065, 0.5773744695806557, 0};
Point(p15 + 6) = {25.19366328379763, 0.6861375331446964, 0};
Point(p15 + 7) = {25.05087163690403, 0.7736403669008904, 0};
Point(p15 + 8) = {24.8961495331447, 0.8377283606769048, 0};
Point(p15 + 9) = {24.7333067442074, 0.8768234553701173, 0};
Point(p15 + 10) = {24.566353, 0.8899630000000001, 0};
Point(p15 + 11) = {24.3993992557926, 0.8768234553701171, 0};
Point(p15 + 12) = {24.2365564668553, 0.837728360676905, 0};
Point(p15 + 13) = {24.08183436309597, 0.7736403669008906, 0};
Point(p15 + 14) = {23.93904271620237, 0.6861375331446965, 0};
Point(p15 + 15) = {23.81169753041934, 0.5773744695806559, 0};
Point(p15 + 16) = {23.7029344668553, 0.4500292837976283, 0};
Point(p15 + 17) = {23.61543163309911, 0.3072376369040329, 0};
Point(p15 + 18) = {23.55134363932309, 0.1525155331446965, 0};
Point(p15 + 19) = {23.51224854462988, -0.01032725579260371, 0};
Point(p15 + 20) = {23.499109, -0.1772809999999999, 0};
Point(p15 + 21) = {23.51224854462988, -0.3442347442073961, 0};
Point(p15 + 22) = {23.55134363932309, -0.5070775331446967, 0};
Point(p15 + 23) = {23.61543163309911, -0.6617996369040324, 0};
Point(p15 + 24) = {23.7029344668553, -0.8045912837976281, 0};
Point(p15 + 25) = {23.81169753041934, -0.9319364695806558, 0};
Point(p15 + 26) = {23.93904271620237, -1.040699533144696, 0};
Point(p15 + 27) = {24.08183436309597, -1.12820236690089, 0};
Point(p15 + 28) = {24.2365564668553, -1.192290360676905, 0};
Point(p15 + 29) = {24.3993992557926, -1.231385455370117, 0};
Point(p15 + 30) = {24.566353, -1.244525, 0};
Point(p15 + 31) = {24.7333067442074, -1.231385455370117, 0};
Point(p15 + 32) = {24.89614953314469, -1.192290360676905, 0};
Point(p15 + 33) = {25.05087163690403, -1.128202366900891, 0};
Point(p15 + 34) = {25.19366328379763, -1.040699533144697, 0};
Point(p15 + 35) = {25.32100846958065, -0.931936469580656, 0};
Point(p15 + 36) = {25.4297715331447, -0.8045912837976283, 0};
Point(p15 + 37) = {25.51727436690089, -0.6617996369040331, 0};
Point(p15 + 38) = {25.58136236067691, -0.5070775331446966, 0};
Point(p15 + 39) = {25.62045745537011, -0.3442347442073964, 0};
Spline(15) = {10, p15 + 1, p15 + 2, p15 + 3, p15 + 4, p15 + 5, p15 + 6, p15 + 7, p15 + 8, p15 + 9, p15 + 10, p15 + 11, p15 + 12, p15 + 13, p15 + 14, p15 + 15, p15 + 16, p15 + 17, p15 + 18, p15 + 19, p15 + 20, p15 + 21, p15 + 22, p15 + 23, p15 + 24, p15 + 25, p15 + 26, p15 + 27, p15 + 28, p15 + 29, p15 + 30, p15 + 31, p15 + 32, p15 + 33, p15 + 34, p15 + 35, p15 + 36, p15 + 37, p15 + 38, p15 + 39, 10};
p16 = newp;
Point(p16 + 1) = {29.2494766376956, -1.209767117574714, 0.1};
Point(p16 + 2) = {29.2061838289922, -1.02943959143589, 0.1};
Point(p16 + 3) = {29.13521458652069, -0.858104683749813, 0.1};
Point(p16 + 4) = {29.03831640856411, -0.6999812285716727, 0.1};
Point(p16 + 5) = {28.91787524985039, -0.5589627501496154, 0.1};
Point(p16 + 6) = {28.77685677142833, -0.4385215914358896, 0.1};
Point(p16 + 7) = {28.61873331625019, -0.3416234134793161, 0.1};
Point(p16 + 8) = {28.44739840856411, -0.2706541710078008, 0.1};
Point(p16 + 9) = {28.26707088242529, -0.2273613623044046, 0.1};
Point(p16 + 10) = {28.082191, -0.2128109999999999, 0.1};
Point(p16 + 11) = {27.89731111757472, -0.2273613623044048, 0.1};
Point(p16 + 12) = {27.71698359143589, -0.2706541710078008, 0.1};
Point(p16 + 13) = {27.54564868374981, -0.3416234134793159, 0.1};
Point(p16 + 14) = {27.38752522857168, -0.4385215914358895, 0.1};
Point(p16 + 15) = {27.24650675014962, -0.5589627501496153, 0.1};
Point(p16 + 16) = {27.12606559143589, -0.6999812285716724, 0.1};
Point(p16 + 17) = {27.02916741347932, -0.8581046837498129, 0.1};
Point(p16 + 18) = {26.9581981710078, -1.02943959143589, 0.1};
Point(p16 + 19) = {26.91490536230441, -1.209767117574714, 0.1};
Point(p16 + 20) = {26.900355, -1.394647, 0.1};
Point(p16 + 21) = {26.91490536230441, -1.579526882425286, 0.1};
Point(p16 + 22) = {26.9581981710078, -1.759854408564111, 0.1};
Point(p16 + 23) = {27.02916741347932, -1.931189316250186, 0.1};
Point(p16 + 24) = {27.12606559143589, -2.089312771428327, 0.1};
Point(p16 + 25) = {27.24650675014962, -2.230331249850384, 0.1};
Point(p16 + 26) = {27.38752522857168, -2.35077240856411, 0.1};
Point(p16 + 27) = {27.54564868374981, -2.447670586520684, 0.1};
Point(p16 + 28) = {27.71698359143589, -2.518639828992199, 0.1};
Point(p16 + 29) = {27.89731111757472, -2.561932637695595, 0.1};
Point(p16 + 30) = {28.082191, -2.576483, 0.1};
Point(p16 + 31) = {28.26707088242529, -2.561932637695596, 0.1};
Point(p16 + 32) = {28.44739840856411, -2.518639828992199, 0.1};
Point(p16 + 33) = {28.61873331625019, -2.447670586520684, 0.1};
Point(p16 + 34) = {28.77685677142833, -2.350772408564111, 0.1};
Point(p16 + 35) = {28.91787524985039, -2.230331249850385, 0.1};
Point(p16 + 36) = {29.03831640856411, -2.089312771428327, 0.1};
Point(p16 + 37) = {29.13521458652069, -1.931189316250187, 0.1};
Point(p16 + 38) = {29.2061838289922, -1.759854408564111, 0.1};
Point(p16 + 39) = {29.2494766376956, -1.579526882425287, 0.1};
Spline(16) = {11, p16 + 1, p16 + 2, p16 + 3, p16 + 4, p16 + 5, p16 + 6, p16 + 7, p16 + 8, p16 + 9, p16 + 10, p16 + 11, p16 + 12, p16 + 13, p16 + 14, p16 + 15, p16 + 16, p16 + 17, p16 + 18, p16 + 19, p16 + 20, p16 + 21, p16 + 22, p16 + 23, p16 + 24, p16 + 25, p16 + 26, p16 + 27, p16 + 28, p16 + 29, p16 + 30, p16 + 31, p16 + 32, p16 + 33, p16 + 34, p16 + 35, p16 + 36, p16 + 37, p16 + 38, p16 + 39, 11};
Line(17) = {12, 11};
p18 = newp;
Point(p18 + 1) = {29.2494766376956, -1.209767117574714, 0};
Point(p18 + 2) = {29.2061838289922, -1.02943959143589, 0};
Point(p18 + 3) = {29.13521458652069, -0.858104683749813, 0};
Point(p18 + 4) = {29.03831640856411, -0.6999812285716727, 0};
Point(p18 + 5) = {28.91787524985039, -0.5589627501496154, 0};
Point(p18 + 6) = {28.77685677142833, -0.4385215914358896, 0};
Point(p18 + 7) = {28.61873331625019, -0.3416234134793161, 0};
Point(p18 + 8) = {28.44739840856411, -0.2706541710078008, 0};
Point(p18 + 9) = {28.26707088242529, -0.2273613623044046, 0};
Point(p18 + 10) = {28.082191, -0.2128109999999999, 0};
Point(p18 + 11) = {27.89731111757472, -0.2273613623044048, 0};
Point(p18 + 12) = {27.71698359143589, -0.2706541710078008, 0};
Point(p18 + 13) = {27.54564868374981, -0.3416234134793159, 0};
Point(p18 + 14) = {27.38752522857168, -0.4385215914358895, 0};
Point(p18 + 15) = {27.24650675014962, -0.5589627501496153, 0};
Point(p18 + 16) = {27.12606559143589, -0.6999812285716724, 0};
Point(p18 + 17) = {27.02916741347932, -0.8581046837498129, 0};
Point(p18 + 18) = {26.9581981710078, -1.02943959143589, 0};
Point(p18 + 19) = {26.91490536230441, -1.209767117574714, 0};
Point(p18 + 20) = {26.900355, -1.394647, 0};
Point(p18 + 21) = {26.91490536230441, -1.579526882425286, 0};
Point(p18 + 22) = {26.9581981710078, -1.759854408564111, 0};
Point(p18 + 23) = {27.02916741347932, -1.931189316250186, 0};
Point(p18 + 24) = {27.12606559143589, -2.089312771428327, 0};
Point(p18 + 25) = {27.24650675014962, -2.230331249850384, 0};
Point(p18 + 26) = {27.38752522857168, -2.35077240856411, 0};
Point(p18 + 27) = {27.54564868374981, -2.447670586520684, 0};
Point(p18 + 28) = {27.71698359143589, -2.518639828992199, 0};
Point(p18 + 29) = {27.89731111757472, -2.561932637695595, 0};
Point(p18 + 30) = {28.082191, -2.576483, 0};
Point(p18 + 31) = {28.26707088242529, -2.561932637695596, 0};
Point(p18 + 32) = {28.44739840856411, -2.518639828992199, 0};
Point(p18 + 33) = {28.61873331625019, -2.447670586520684, 0};
Point(p18 + 34) = {28.77685677142833, -2.350772408564111, 0};
Point(p18 + 35) = {28.91787524985039, -2.230331249850385, 0};
Point(p18 + 36) = {29.03831640856411, -2.089312771428327, 0};
Point(p18 + 37) = {29.13521458652069, -1.931189316250187, 0};
Point(p18 + 38) = {29.2061838289922, -1.759854408564111, 0};
Point(p18 + 39) = {29.2494766376956, -1.579526882425287, 0};
Spline(18) = {12, p18 + 1, p18 + 2, p18 + 3, p18 + 4, p18 + 5, p18 + 6, p18 + 7, p18 + 8, p18 + 9, p18 + 10, p18 + 11, p18 + 12, p18 + 13, p18 + 14, p18 + 15, p18 + 16, p18 + 17, p18 + 18, p18 + 19, p18 + 20, p18 + 21, p18 + 22, p18 + 23, p18 + 24, p18 + 25, p18 + 26, p18 + 27, p18 + 28, p18 + 29, p18 + 30, p18 + 31, p18 + 32, p18 + 33, p18 + 34, p18 + 35, p18 + 36, p18 + 37, p18 + 38, p18 + 39, 12};
Line(19) = {14, 13};
Line(20) = {13, 15};
Line(21) = {16, 15};
Line(22) = {14, 16};
Line(23) = {14, 17};
Line(24) = {17, 18};
Line(25) = {13, 18};
Line(26) = {15, 19};
Line(27) = {18, 19};
Line(28) = {16, 20};
Line(29) = {20, 19};
Line(30) = {17, 20};
Curve Loop(7) = {-13, -14, 15, 14};
Surface(7) = {7};
Curve Loop(8) = {13};
Plane Surface(8) = {8};
Curve Loop(9) = {15};
Plane Surface(9) = {9};
Curve Loop(10) = {-16, -17, 18, 17};
Surface(10) = {10};
Curve Loop(11) = {16};
Plane Surface(11) = {11};
Curve Loop(12) = {18};
Plane Surface(12) = {12};
Curve Loop(13) = {-19, 22, 21, -20};
Plane Surface(13) = {13};
Curve Loop(14) = {-23, 19, 25, -24};
Plane Surface(14) = {14};
Curve Loop(15) = {-20, 25, 27, -26};
Plane Surface(15) = {15};
Curve Loop(16) = {-28, 21, 26, -29};
Plane Surface(16) = {16};
Curve Loop(17) = {-22, 23, 30, -28, -18, -15};
Plane Surface(17) = {17};
Curve Loop(18) = {-24, 30, 29, -27};
Plane Surface(18) = {18};
Surface Loop(1) = {13, 14, 15, 16, 17, 18, 10, 7, 11, 8};
Volume(1) = {1};
Surface Loop(2) = {7, 8, 9};
Volume(2) = {2};
Surface Loop(3) = {10, 11, 12};
Volume(3) = {3};
Physical Surface("WALLS") = {13, 18};
Physical Surface("LOAD") = {8, 11};
Physical Surface("BORDER") = {7, 9, 10, 12, 14, 15, 16, 17};
Physical Volume("SOLID") = {1, 2, 3};
