cl__1 = 0.06745;
cl__2 = 0.08237700000000001;
cl__3 = 0.484688;
cl__4 = 1.562517;
cl__5 = 0.926737;
cl__6 = 2.913013;
Point(9) = {4.76607, -2.431453, 0.1, cl__1};
Point(10) = {4.76607, -2.431453, 0, cl__1};
Point(11) = {25.688966, -2.555515, 0.1, cl__2};
Point(12) = {25.688966, -2.555515, 0, cl__2};
Point(13) = {0.869695, -4.547104, 1, cl__3};
Point(14) = {0.869695, -4.547104, 0, cl__3};
Point(15) = {0.869695, 5.204224000000001, 1, cl__4};
Point(16) = {0.869695, 5.204224000000001, 0, cl__4};
Point(17) = {31.475541, -4.547104, 0, cl__5};
Point(18) = {31.475541, -4.547104, 1, cl__5};
Point(19) = {31.475541, 5.204224000000001, 1, cl__6};
Point(20) = {31.475541, 5.204224000000001, 0, cl__6};
p13 = newp;
Point(p13 + 1) = {4.757765822666399, -2.325938422633759, 0.1};
Point(p13 + 2) = {4.733057767071532, -2.223021964345081, 0.1};
Point(p13 + 3) = {4.692554227545482, -2.125237769897175, 0.1};
Point(p13 + 4) = {4.63725253565492, -2.034993610684483, 0.1};
Point(p13 + 5) = {4.568514402589983, -1.954511597410017, 0.1};
Point(p13 + 6) = {4.488032389315516, -1.885773464345081, 0.1};
Point(p13 + 7) = {4.397788230102825, -1.830471772454518, 0.1};
Point(p13 + 8) = {4.300004035654919, -1.789968232928468, 0.1};
Point(p13 + 9) = {4.197087577366241, -1.765260177333601, 0.1};
Point(p13 + 10) = {4.091573, -1.756956, 0.1};
Point(p13 + 11) = {3.986058422633759, -1.765260177333601, 0.1};
Point(p13 + 12) = {3.883141964345081, -1.789968232928468, 0.1};
Point(p13 + 13) = {3.785357769897175, -1.830471772454518, 0.1};
Point(p13 + 14) = {3.695113610684484, -1.885773464345081, 0.1};
Point(p13 + 15) = {3.614631597410018, -1.954511597410017, 0.1};
Point(p13 + 16) = {3.545893464345081, -2.034993610684483, 0.1};
Point(p13 + 17) = {3.490591772454519, -2.125237769897175, 0.1};
Point(p13 + 18) = {3.450088232928468, -2.223021964345081, 0.1};
Point(p13 + 19) = {3.425380177333602, -2.325938422633759, 0.1};
Point(p13 + 20) = {3.417076, -2.431453, 0.1};
Point(p13 + 21) = {3.425380177333602, -2.53696757736624, 0.1};
Point(p13 + 22) = {3.450088232928468, -2.639884035654919, 0.1};
Point(p13 + 23) = {3.490591772454518, -2.737668230102825, 0.1};
Point(p13 + 24) = {3.545893464345081, -2.827912389315516, 0.1};
Point(p13 + 25) = {3.614631597410018, -2.908394402589983, 0.1};
Point(p13 + 26) = {3.695113610684484, -2.977132535654919, 0.1};
Point(p13 + 27) = {3.785357769897175, -3.032434227545481, 0.1};
Point(p13 + 28) = {3.883141964345081, -3.072937767071532, 0.1};
Point(p13 + 29) = {3.986058422633759, -3.097645822666399, 0.1};
Point(p13 + 30) = {4.091573, -3.10595, 0.1};
Point(p13 + 31) = {4.197087577366241, -3.097645822666399, 0.1};
Point(p13 + 32) = {4.300004035654919, -3.072937767071532, 0.1};
Point(p13 + 33) = {4.397788230102825, -3.032434227545481, 0.1};
Point(p13 + 34) = {4.488032389315516, -2.977132535654919, 0.1};
Point(p13 + 35) = {4.568514402589983, -2.908394402589983, 0.1};
Point(p13 + 36) = {4.63725253565492, -2.827912389315516, 0.1};
Point(p13 + 37) = {4.692554227545482, -2.737668230102825, 0.1};
Point(p13 + 38) = {4.733057767071532, -2.639884035654919, 0.1};
Point(p13 + 39) = {4.757765822666399, -2.536967577366241, 0.1};
Spline(13) = {9, p13 + 1, p13 + 2, p13 + 3, p13 + 4, p13 + 5, p13 + 6, p13 + 7, p13 + 8, p13 + 9, p13 + 10, p13 + 11, p13 + 12, p13 + 13, p13 + 14, p13 + 15, p13 + 16, p13 + 17, p13 + 18, p13 + 19, p13 + 20, p13 + 21, p13 + 22, p13 + 23, p13 + 24, p13 + 25, p13 + 26, p13 + 27, p13 + 28, p13 + 29, p13 + 30, p13 + 31, p13 + 32, p13 + 33, p13 + 34, p13 + 35, p13 + 36, p13 + 37, p13 + 38, p13 + 39, 9};
Line(14) = {10, 9};
p15 = newp;
Point(p15 + 1) = {4.757765822666399, -2.325938422633759, 0};
Point(p15 + 2) = {4.733057767071532, -2.223021964345081, 0};
Point(p15 + 3) = {4.692554227545482, -2.125237769897175, 0};
Point(p15 + 4) = {4.63725253565492, -2.034993610684483, 0};
Point(p15 + 5) = {4.568514402589983, -1.954511597410017, 0};
Point(p15 + 6) = {4.488032389315516, -1.885773464345081, 0};
Point(p15 + 7) = {4.397788230102825, -1.830471772454518, 0};
Point(p15 + 8) = {4.300004035654919, -1.789968232928468, 0};
Point(p15 + 9) = {4.197087577366241, -1.765260177333601, 0};
Point(p15 + 10) = {4.091573, -1.756956, 0};
Point(p15 + 11) = {3.986058422633759, -1.765260177333601, 0};
Point(p15 + 12) = {3.883141964345081, -1.789968232928468, 0};
Point(p15 + 13) = {3.785357769897175, -1.830471772454518, 0};
Point(p15 + 14) = {3.695113610684484, -1.885773464345081, 0};
Point(p15 + 15) = {3.614631597410018, -1.954511597410017, 0};
Point(p15 + 16) = {3.545893464345081, -2.034993610684483, 0};
Point(p15 + 17) = {3.490591772454519, -2.125237769897175, 0};
Point(p15 + 18) = {3.450088232928468, -2.223021964345081, 0};
Point(p15 + 19) = {3.425380177333602, -2.325938422633759, 0};
Point(p15 + 20) = {3.417076, -2.431453, 0};
Point(p15 + 21) = {3.425380177333602, -2.53696757736624, 0};
Point(p15 + 22) = {3.450088232928468, -2.639884035654919, 0};
Point(p15 + 23) = {3.490591772454518, -2.737668230102825, 0};
Point(p15 + 24) = {3.545893464345081, -2.827912389315516, 0};
Point(p15 + 25) = {3.614631597410018, -2.908394402589983, 0};
Point(p15 + 26) = {3.695113610684484, -2.977132535654919, 0};
Point(p15 + 27) = {3.785357769897175, -3.032434227545481, 0};
Point(p15 + 28) = {3.883141964345081, -3.072937767071532, 0};
Point(p15 + 29) = {3.986058422633759, -3.097645822666399, 0};
Point(p15 + 30) = {4.091573, -3.10595, 0};
Point(p15 + 31) = {4.197087577366241, -3.097645822666399, 0};
Point(p15 + 32) = {4.300004035654919, -3.072937767071532, 0};
Point(p15 + 33) = {4.397788230102825, -3.032434227545481, 0};
Point(p15 + 34) = {4.488032389315516, -2.977132535654919, 0};
Point(p15 + 35) = {4.568514402589983, -2.908394402589983, 0};
Point(p15 + 36) = {4.63725253565492, -2.827912389315516, 0};
Point(p15 + 37) = {4.692554227545482, -2.737668230102825, 0};
Point(p15 + 38) = {4.733057767071532, -2.639884035654919, 0};
Point(p15 + 39) = {4.757765822666399, -2.536967577366241, 0};
Spline(15) = {10, p15 + 1, p15 + 2, p15 + 3, p15 + 4, p15 + 5, p15 + 6, p15 + 7, p15 + 8, p15 + 9, p15 + 10, p15 + 11, p15 + 12, p15 + 13, p15 + 14, p15 + 15, p15 + 16, p15 + 17, p15 + 18, p15 + 19, p15 + 20, p15 + 21, p15 + 22, p15 + 23, p15 + 24, p15 + 25, p15 + 26, p15 + 27, p15 + 28, p15 + 29, p15 + 30, p15 + 31, p15 + 32, p15 + 33, p15 + 34, p15 + 35, p15 + 36, p15 + 37, p15 + 38, p15 + 39, 10};
p16 = newp;
Point(p16 + 1) = {25.6788240120204, -2.426648824299344, 0.1};
Point(p16 + 2) = {25.64864777748497, -2.300955761526756, 0.1};
Point(p16 + 3) = {25.59918033543718, -2.181530792039054, 0.1};
Point(p16 + 4) = {25.53163973847325, -2.071314554933777, 0.1};
Point(p16 + 5) = {25.44768906024482, -1.973020939755177, 0.1};
Point(p16 + 6) = {25.34939544506622, -1.889070261526755, 0.1};
Point(p16 + 7) = {25.23917920796094, -1.821529664562824, 0.1};
Point(p16 + 8) = {25.11975423847325, -1.772062222515025, 0.1};
Point(p16 + 9) = {24.99406117570065, -1.741885987979603, 0.1};
Point(p16 + 10) = {24.865195, -1.731744, 0.1};
Point(p16 + 11) = {24.73632882429934, -1.741885987979603, 0.1};
Point(p16 + 12) = {24.61063576152675, -1.772062222515025, 0.1};
Point(p16 + 13) = {24.49121079203906, -1.821529664562824, 0.1};
Point(p16 + 14) = {24.38099455493378, -1.889070261526755, 0.1};
Point(p16 + 15) = {24.28270093975518, -1.973020939755177, 0.1};
Point(p16 + 16) = {24.19875026152675, -2.071314554933777, 0.1};
Point(p16 + 17) = {24.13120966456282, -2.181530792039054, 0.1};
Point(p16 + 18) = {24.08174222251503, -2.300955761526756, 0.1};
Point(p16 + 19) = {24.0515659879796, -2.426648824299344, 0.1};
Point(p16 + 20) = {24.041424, -2.555515, 0.1};
Point(p16 + 21) = {24.0515659879796, -2.684381175700656, 0.1};
Point(p16 + 22) = {24.08174222251503, -2.810074238473245, 0.1};
Point(p16 + 23) = {24.13120966456282, -2.929499207960946, 0.1};
Point(p16 + 24) = {24.19875026152675, -3.039715445066223, 0.1};
Point(p16 + 25) = {24.28270093975518, -3.138009060244824, 0.1};
Point(p16 + 26) = {24.38099455493378, -3.221959738473245, 0.1};
Point(p16 + 27) = {24.49121079203906, -3.289500335437176, 0.1};
Point(p16 + 28) = {24.61063576152675, -3.338967777484975, 0.1};
Point(p16 + 29) = {24.73632882429934, -3.369144012020397, 0.1};
Point(p16 + 30) = {24.865195, -3.379286, 0.1};
Point(p16 + 31) = {24.99406117570065, -3.369144012020397, 0.1};
Point(p16 + 32) = {25.11975423847325, -3.338967777484975, 0.1};
Point(p16 + 33) = {25.23917920796094, -3.289500335437176, 0.1};
Point(p16 + 34) = {25.34939544506622, -3.221959738473245, 0.1};
Point(p16 + 35) = {25.44768906024482, -3.138009060244824, 0.1};
Point(p16 + 36) = {25.53163973847325, -3.039715445066223, 0.1};
Point(p16 + 37) = {25.59918033543718, -2.929499207960947, 0.1};
Point(p16 + 38) = {25.64864777748497, -2.810074238473245, 0.1};
Point(p16 + 39) = {25.6788240120204, -2.684381175700656, 0.1};
Spline(16) = {11, p16 + 1, p16 + 2, p16 + 3, p16 + 4, p16 + 5, p16 + 6, p16 + 7, p16 + 8, p16 + 9, p16 + 10, p16 + 11, p16 + 12, p16 + 13, p16 + 14, p16 + 15, p16 + 16, p16 + 17, p16 + 18, p16 + 19, p16 + 20, p16 + 21, p16 + 22, p16 + 23, p16 + 24, p16 + 25, p16 + 26, p16 + 27, p16 + 28, p16 + 29, p16 + 30, p16 + 31, p16 + 32, p16 + 33, p16 + 34, p16 + 35, p16 + 36, p16 + 37, p16 + 38, p16 + 39, 11};
Line(17) = {12, 11};
p18 = newp;
Point(p18 + 1) = {25.6788240120204, -2.426648824299344, 0};
Point(p18 + 2) = {25.64864777748497, -2.300955761526756, 0};
Point(p18 + 3) = {25.59918033543718, -2.181530792039054, 0};
Point(p18 + 4) = {25.53163973847325, -2.071314554933777, 0};
Point(p18 + 5) = {25.44768906024482, -1.973020939755177, 0};
Point(p18 + 6) = {25.34939544506622, -1.889070261526755, 0};
Point(p18 + 7) = {25.23917920796094, -1.821529664562824, 0};
Point(p18 + 8) = {25.11975423847325, -1.772062222515025, 0};
Point(p18 + 9) = {24.99406117570065, -1.741885987979603, 0};
Point(p18 + 10) = {24.865195, -1.731744, 0};
Point(p18 + 11) = {24.73632882429934, -1.741885987979603, 0};
Point(p18 + 12) = {24.61063576152675, -1.772062222515025, 0};
Point(p18 + 13) = {24.49121079203906, -1.821529664562824, 0};
Point(p18 + 14) = {24.38099455493378, -1.889070261526755, 0};
Point(p18 + 15) = {24.28270093975518, -1.973020939755177, 0};
Point(p18 + 16) = {24.19875026152675, -2.071314554933777, 0};
Point(p18 + 17) = {24.13120966456282, -2.181530792039054, 0};
Point(p18 + 18) = {24.08174222251503, -2.300955761526756, 0};
Point(p18 + 19) = {24.0515659879796, -2.426648824299344, 0};
Point(p18 + 20) = {24.041424, -2.555515, 0};
Point(p18 + 21) = {24.0515659879796, -2.684381175700656, 0};
Point(p18 + 22) = {24.08174222251503, -2.810074238473245, 0};
Point(p18 + 23) = {24.13120966456282, -2.929499207960946, 0};
Point(p18 + 24) = {24.19875026152675, -3.039715445066223, 0};
Point(p18 + 25) = {24.28270093975518, -3.138009060244824, 0};
Point(p18 + 26) = {24.38099455493378, -3.221959738473245, 0};
Point(p18 + 27) = {24.49121079203906, -3.289500335437176, 0};
Point(p18 + 28) = {24.61063576152675, -3.338967777484975, 0};
Point(p18 + 29) = {24.73632882429934, -3.369144012020397, 0};
Point(p18 + 30) = {24.865195, -3.379286, 0};
Point(p18 + 31) = {24.99406117570065, -3.369144012020397, 0};
Point(p18 + 32) = {25.11975423847325, -3.338967777484975, 0};
Point(p18 + 33) = {25.23917920796094, -3.289500335437176, 0};
Point(p18 + 34) = {25.34939544506622, -3.221959738473245, 0};
Point(p18 + 35) = {25.44768906024482, -3.138009060244824, 0};
Point(p18 + 36) = {25.53163973847325, -3.039715445066223, 0};
Point(p18 + 37) = {25.59918033543718, -2.929499207960947, 0};
Point(p18 + 38) = {25.64864777748497, -2.810074238473245, 0};
Point(p18 + 39) = {25.6788240120204, -2.684381175700656, 0};
Spline(18) = {12, p18 + 1, p18 + 2, p18 + 3, p18 + 4, p18 + 5, p18 + 6, p18 + 7, p18 + 8, p18 + 9, p18 + 10, p18 + 11, p18 + 12, p18 + 13, p18 + 14, p18 + 15, p18 + 16, p18 + 17, p18 + 18, p18 + 19, p18 + 20, p18 + 21, p18 + 22, p18 + 23, p18 + 24, p18 + 25, p18 + 26, p18 + 27, p18 + 28, p18 + 29, p18 + 30, p18 + 31, p18 + 32, p18 + 33, p18 + 34, p18 + 35, p18 + 36, p18 + 37, p18 + 38, p18 + 39, 12};
Line(19) = {14, 13};
Line(20) = {13, 15};
Line(21) = {16, 15};
Line(22) = {14, 16};
Line(23) = {14, 17};
Line(24) = {17, 18};
Line(25) = {13, 18};
Line(26) = {15, 19};
Line(27) = {18, 19};
Line(28) = {16, 20};
Line(29) = {20, 19};
Line(30) = {17, 20};
Curve Loop(7) = {-13, -14, 15, 14};
Surface(7) = {7};
Curve Loop(8) = {13};
Plane Surface(8) = {8};
Curve Loop(9) = {15};
Plane Surface(9) = {9};
Curve Loop(10) = {-16, -17, 18, 17};
Surface(10) = {10};
Curve Loop(11) = {16};
Plane Surface(11) = {11};
Curve Loop(12) = {18};
Plane Surface(12) = {12};
Curve Loop(13) = {-19, 22, 21, -20};
Plane Surface(13) = {13};
Curve Loop(14) = {-23, 19, 25, -24};
Plane Surface(14) = {14};
Curve Loop(15) = {-20, 25, 27, -26};
Plane Surface(15) = {15};
Curve Loop(16) = {-28, 21, 26, -29};
Plane Surface(16) = {16};
Curve Loop(17) = {-22, 23, 30, -28, -15, -18};
Plane Surface(17) = {17};
Curve Loop(18) = {-24, 30, 29, -27};
Plane Surface(18) = {18};
Surface Loop(1) = {13, 14, 15, 16, 17, 18, 7, 10, 8, 11};
Volume(1) = {1};
Surface Loop(2) = {7, 8, 9};
Volume(2) = {2};
Surface Loop(3) = {10, 11, 12};
Volume(3) = {3};
Physical Surface("WALLS") = {13, 18};
Physical Surface("LOAD") = {8, 11};
Physical Surface("BORDER") = {7, 9, 10, 12, 14, 15, 16, 17};
Physical Volume("SOLID") = {1, 2, 3};
