cl__1 = 0.08355;
cl__2 = 0.093866;
cl__3 = 3.157786;
cl__4 = 3.109453;
cl__5 = 0.556377;
cl__6 = 0.516939;
Point(9) = {30.15455, 0.8827049999999997, 0.1, cl__1};
Point(10) = {30.15455, 0.8827049999999997, 0, cl__1};
Point(11) = {27.651541, 0.5064519999999998, 0.1, cl__2};
Point(12) = {27.651541, 0.5064519999999998, 0, cl__2};
Point(13) = {0.575967, -4.604048, 1, cl__3};
Point(14) = {0.575967, -4.604048, 0, cl__3};
Point(15) = {0.575967, 4.878706, 1, cl__4};
Point(16) = {0.575967, 4.878706, 0, cl__4};
Point(17) = {38.364271, -4.604048, 0, cl__5};
Point(18) = {38.364271, -4.604048, 1, cl__5};
Point(19) = {38.364271, 4.878706, 1, cl__6};
Point(20) = {38.364271, 4.878706, 0, cl__6};
p13 = newp;
Point(p13 + 1) = {30.1442635593206, 1.013406621278973, 0.1};
Point(p13 + 2) = {30.11365752359067, 1.140889934868246, 0.1};
Point(p13 + 3) = {30.06348551498548, 1.26201587849439, 0.1};
Point(p13 + 4) = {29.99498293486825, 1.37380192943137, 0.1};
Point(p13 + 5) = {29.90983654410849, 1.473495544108485, 0.1};
Point(p13 + 6) = {29.81014292943137, 1.558641934868246, 0.1};
Point(p13 + 7) = {29.69835687849439, 1.627144514985478, 0.1};
Point(p13 + 8) = {29.57723093486825, 1.677316523590666, 0.1};
Point(p13 + 9) = {29.44974762127897, 1.7079225593206, 0.1};
Point(p13 + 10) = {29.319046, 1.718209, 0.1};
Point(p13 + 11) = {29.18834437872103, 1.7079225593206, 0.1};
Point(p13 + 12) = {29.06086106513175, 1.677316523590666, 0.1};
Point(p13 + 13) = {28.93973512150561, 1.627144514985478, 0.1};
Point(p13 + 14) = {28.82794907056863, 1.558641934868246, 0.1};
Point(p13 + 15) = {28.72825545589151, 1.473495544108485, 0.1};
Point(p13 + 16) = {28.64310906513175, 1.373801929431371, 0.1};
Point(p13 + 17) = {28.57460648501452, 1.26201587849439, 0.1};
Point(p13 + 18) = {28.52443447640933, 1.140889934868246, 0.1};
Point(p13 + 19) = {28.4938284406794, 1.013406621278973, 0.1};
Point(p13 + 20) = {28.483542, 0.8827050000000001, 0.1};
Point(p13 + 21) = {28.4938284406794, 0.752003378721027, 0.1};
Point(p13 + 22) = {28.52443447640933, 0.6245200651317536, 0.1};
Point(p13 + 23) = {28.57460648501452, 0.5033941215056101, 0.1};
Point(p13 + 24) = {28.64310906513175, 0.3916080705686296, 0.1};
Point(p13 + 25) = {28.72825545589151, 0.2919144558915148, 0.1};
Point(p13 + 26) = {28.82794907056863, 0.2067680651317539, 0.1};
Point(p13 + 27) = {28.93973512150561, 0.1382654850145218, 0.1};
Point(p13 + 28) = {29.06086106513175, 0.08809347640933396, 0.1};
Point(p13 + 29) = {29.18834437872103, 0.05748744067940004, 0.1};
Point(p13 + 30) = {29.319046, 0.04720099999999994, 0.1};
Point(p13 + 31) = {29.44974762127897, 0.05748744067939993, 0.1};
Point(p13 + 32) = {29.57723093486825, 0.08809347640933385, 0.1};
Point(p13 + 33) = {29.69835687849439, 0.1382654850145217, 0.1};
Point(p13 + 34) = {29.81014292943137, 0.2067680651317537, 0.1};
Point(p13 + 35) = {29.90983654410849, 0.2919144558915147, 0.1};
Point(p13 + 36) = {29.99498293486825, 0.3916080705686294, 0.1};
Point(p13 + 37) = {30.06348551498548, 0.5033941215056095, 0.1};
Point(p13 + 38) = {30.11365752359067, 0.6245200651317537, 0.1};
Point(p13 + 39) = {30.1442635593206, 0.7520033787210267, 0.1};
Spline(13) = {9, p13 + 1, p13 + 2, p13 + 3, p13 + 4, p13 + 5, p13 + 6, p13 + 7, p13 + 8, p13 + 9, p13 + 10, p13 + 11, p13 + 12, p13 + 13, p13 + 14, p13 + 15, p13 + 16, p13 + 17, p13 + 18, p13 + 19, p13 + 20, p13 + 21, p13 + 22, p13 + 23, p13 + 24, p13 + 25, p13 + 26, p13 + 27, p13 + 28, p13 + 29, p13 + 30, p13 + 31, p13 + 32, p13 + 33, p13 + 34, p13 + 35, p13 + 36, p13 + 37, p13 + 38, p13 + 39, 9};
Line(14) = {10, 9};
p15 = newp;
Point(p15 + 1) = {30.1442635593206, 1.013406621278973, 0};
Point(p15 + 2) = {30.11365752359067, 1.140889934868246, 0};
Point(p15 + 3) = {30.06348551498548, 1.26201587849439, 0};
Point(p15 + 4) = {29.99498293486825, 1.37380192943137, 0};
Point(p15 + 5) = {29.90983654410849, 1.473495544108485, 0};
Point(p15 + 6) = {29.81014292943137, 1.558641934868246, 0};
Point(p15 + 7) = {29.69835687849439, 1.627144514985478, 0};
Point(p15 + 8) = {29.57723093486825, 1.677316523590666, 0};
Point(p15 + 9) = {29.44974762127897, 1.7079225593206, 0};
Point(p15 + 10) = {29.319046, 1.718209, 0};
Point(p15 + 11) = {29.18834437872103, 1.7079225593206, 0};
Point(p15 + 12) = {29.06086106513175, 1.677316523590666, 0};
Point(p15 + 13) = {28.93973512150561, 1.627144514985478, 0};
Point(p15 + 14) = {28.82794907056863, 1.558641934868246, 0};
Point(p15 + 15) = {28.72825545589151, 1.473495544108485, 0};
Point(p15 + 16) = {28.64310906513175, 1.373801929431371, 0};
Point(p15 + 17) = {28.57460648501452, 1.26201587849439, 0};
Point(p15 + 18) = {28.52443447640933, 1.140889934868246, 0};
Point(p15 + 19) = {28.4938284406794, 1.013406621278973, 0};
Point(p15 + 20) = {28.483542, 0.8827050000000001, 0};
Point(p15 + 21) = {28.4938284406794, 0.752003378721027, 0};
Point(p15 + 22) = {28.52443447640933, 0.6245200651317536, 0};
Point(p15 + 23) = {28.57460648501452, 0.5033941215056101, 0};
Point(p15 + 24) = {28.64310906513175, 0.3916080705686296, 0};
Point(p15 + 25) = {28.72825545589151, 0.2919144558915148, 0};
Point(p15 + 26) = {28.82794907056863, 0.2067680651317539, 0};
Point(p15 + 27) = {28.93973512150561, 0.1382654850145218, 0};
Point(p15 + 28) = {29.06086106513175, 0.08809347640933396, 0};
Point(p15 + 29) = {29.18834437872103, 0.05748744067940004, 0};
Point(p15 + 30) = {29.319046, 0.04720099999999994, 0};
Point(p15 + 31) = {29.44974762127897, 0.05748744067939993, 0};
Point(p15 + 32) = {29.57723093486825, 0.08809347640933385, 0};
Point(p15 + 33) = {29.69835687849439, 0.1382654850145217, 0};
Point(p15 + 34) = {29.81014292943137, 0.2067680651317537, 0};
Point(p15 + 35) = {29.90983654410849, 0.2919144558915147, 0};
Point(p15 + 36) = {29.99498293486825, 0.3916080705686294, 0};
Point(p15 + 37) = {30.06348551498548, 0.5033941215056095, 0};
Point(p15 + 38) = {30.11365752359067, 0.6245200651317537, 0};
Point(p15 + 39) = {30.1442635593206, 0.7520033787210267, 0};
Spline(15) = {10, p15 + 1, p15 + 2, p15 + 3, p15 + 4, p15 + 5, p15 + 6, p15 + 7, p15 + 8, p15 + 9, p15 + 10, p15 + 11, p15 + 12, p15 + 13, p15 + 14, p15 + 15, p15 + 16, p15 + 17, p15 + 18, p15 + 19, p15 + 20, p15 + 21, p15 + 22, p15 + 23, p15 + 24, p15 + 25, p15 + 26, p15 + 27, p15 + 28, p15 + 29, p15 + 30, p15 + 31, p15 + 32, p15 + 33, p15 + 34, p15 + 35, p15 + 36, p15 + 37, p15 + 38, p15 + 39, 10};
p16 = newp;
Point(p16 + 1) = {27.63998452547137, 0.6532909313891282, 0.1};
Point(p16 + 2) = {27.60559966064212, 0.7965142009569826, 0.1};
Point(p16 + 3) = {27.54923307500118, 0.9325951764760227, 0.1};
Point(p16 + 4) = {27.47227270095698, 1.058183092702105, 0.1};
Point(p16 + 5) = {27.37661355833534, 1.170185558335346, 0.1};
Point(p16 + 6) = {27.2646110927021, 1.265844700956982, 0.1};
Point(p16 + 7) = {27.13902317647602, 1.342805075001178, 0.1};
Point(p16 + 8) = {27.00294220095698, 1.399171660642125, 0.1};
Point(p16 + 9) = {26.85971893138912, 1.433556525471372, 0.1};
Point(p16 + 10) = {26.71288, 1.445113, 0.1};
Point(p16 + 11) = {26.56604106861087, 1.433556525471372, 0.1};
Point(p16 + 12) = {26.42281779904302, 1.399171660642125, 0.1};
Point(p16 + 13) = {26.28673682352398, 1.342805075001178, 0.1};
Point(p16 + 14) = {26.16114890729789, 1.265844700956983, 0.1};
Point(p16 + 15) = {26.04914644166465, 1.170185558335346, 0.1};
Point(p16 + 16) = {25.95348729904302, 1.058183092702105, 0.1};
Point(p16 + 17) = {25.87652692499882, 0.9325951764760227, 0.1};
Point(p16 + 18) = {25.82016033935787, 0.7965142009569826, 0.1};
Point(p16 + 19) = {25.78577547452863, 0.6532909313891282, 0.1};
Point(p16 + 20) = {25.774219, 0.5064520000000001, 0.1};
Point(p16 + 21) = {25.78577547452863, 0.3596130686108719, 0.1};
Point(p16 + 22) = {25.82016033935787, 0.2163897990430172, 0.1};
Point(p16 + 23) = {25.87652692499882, 0.08030882352397778, 0.1};
Point(p16 + 24) = {25.95348729904302, -0.04527909270210495, 0.1};
Point(p16 + 25) = {26.04914644166465, -0.1572815583353457, 0.1};
Point(p16 + 26) = {26.16114890729789, -0.2529407009569824, 0.1};
Point(p16 + 27) = {26.28673682352397, -0.3299010750011775, 0.1};
Point(p16 + 28) = {26.42281779904302, -0.386267660642125, 0.1};
Point(p16 + 29) = {26.56604106861087, -0.4206525254713724, 0.1};
Point(p16 + 30) = {26.71288, -0.432209, 0.1};
Point(p16 + 31) = {26.85971893138912, -0.4206525254713726, 0.1};
Point(p16 + 32) = {27.00294220095698, -0.3862676606421251, 0.1};
Point(p16 + 33) = {27.13902317647602, -0.3299010750011777, 0.1};
Point(p16 + 34) = {27.2646110927021, -0.2529407009569826, 0.1};
Point(p16 + 35) = {27.37661355833534, -0.157281558335346, 0.1};
Point(p16 + 36) = {27.47227270095698, -0.04527909270210517, 0.1};
Point(p16 + 37) = {27.54923307500118, 0.08030882352397711, 0.1};
Point(p16 + 38) = {27.60559966064212, 0.2163897990430173, 0.1};
Point(p16 + 39) = {27.63998452547137, 0.3596130686108716, 0.1};
Spline(16) = {11, p16 + 1, p16 + 2, p16 + 3, p16 + 4, p16 + 5, p16 + 6, p16 + 7, p16 + 8, p16 + 9, p16 + 10, p16 + 11, p16 + 12, p16 + 13, p16 + 14, p16 + 15, p16 + 16, p16 + 17, p16 + 18, p16 + 19, p16 + 20, p16 + 21, p16 + 22, p16 + 23, p16 + 24, p16 + 25, p16 + 26, p16 + 27, p16 + 28, p16 + 29, p16 + 30, p16 + 31, p16 + 32, p16 + 33, p16 + 34, p16 + 35, p16 + 36, p16 + 37, p16 + 38, p16 + 39, 11};
Line(17) = {12, 11};
p18 = newp;
Point(p18 + 1) = {27.63998452547137, 0.6532909313891282, 0};
Point(p18 + 2) = {27.60559966064212, 0.7965142009569826, 0};
Point(p18 + 3) = {27.54923307500118, 0.9325951764760227, 0};
Point(p18 + 4) = {27.47227270095698, 1.058183092702105, 0};
Point(p18 + 5) = {27.37661355833534, 1.170185558335346, 0};
Point(p18 + 6) = {27.2646110927021, 1.265844700956982, 0};
Point(p18 + 7) = {27.13902317647602, 1.342805075001178, 0};
Point(p18 + 8) = {27.00294220095698, 1.399171660642125, 0};
Point(p18 + 9) = {26.85971893138912, 1.433556525471372, 0};
Point(p18 + 10) = {26.71288, 1.445113, 0};
Point(p18 + 11) = {26.56604106861087, 1.433556525471372, 0};
Point(p18 + 12) = {26.42281779904302, 1.399171660642125, 0};
Point(p18 + 13) = {26.28673682352398, 1.342805075001178, 0};
Point(p18 + 14) = {26.16114890729789, 1.265844700956983, 0};
Point(p18 + 15) = {26.04914644166465, 1.170185558335346, 0};
Point(p18 + 16) = {25.95348729904302, 1.058183092702105, 0};
Point(p18 + 17) = {25.87652692499882, 0.9325951764760227, 0};
Point(p18 + 18) = {25.82016033935787, 0.7965142009569826, 0};
Point(p18 + 19) = {25.78577547452863, 0.6532909313891282, 0};
Point(p18 + 20) = {25.774219, 0.5064520000000001, 0};
Point(p18 + 21) = {25.78577547452863, 0.3596130686108719, 0};
Point(p18 + 22) = {25.82016033935787, 0.2163897990430172, 0};
Point(p18 + 23) = {25.87652692499882, 0.08030882352397778, 0};
Point(p18 + 24) = {25.95348729904302, -0.04527909270210495, 0};
Point(p18 + 25) = {26.04914644166465, -0.1572815583353457, 0};
Point(p18 + 26) = {26.16114890729789, -0.2529407009569824, 0};
Point(p18 + 27) = {26.28673682352397, -0.3299010750011775, 0};
Point(p18 + 28) = {26.42281779904302, -0.386267660642125, 0};
Point(p18 + 29) = {26.56604106861087, -0.4206525254713724, 0};
Point(p18 + 30) = {26.71288, -0.432209, 0};
Point(p18 + 31) = {26.85971893138912, -0.4206525254713726, 0};
Point(p18 + 32) = {27.00294220095698, -0.3862676606421251, 0};
Point(p18 + 33) = {27.13902317647602, -0.3299010750011777, 0};
Point(p18 + 34) = {27.2646110927021, -0.2529407009569826, 0};
Point(p18 + 35) = {27.37661355833534, -0.157281558335346, 0};
Point(p18 + 36) = {27.47227270095698, -0.04527909270210517, 0};
Point(p18 + 37) = {27.54923307500118, 0.08030882352397711, 0};
Point(p18 + 38) = {27.60559966064212, 0.2163897990430173, 0};
Point(p18 + 39) = {27.63998452547137, 0.3596130686108716, 0};
Spline(18) = {12, p18 + 1, p18 + 2, p18 + 3, p18 + 4, p18 + 5, p18 + 6, p18 + 7, p18 + 8, p18 + 9, p18 + 10, p18 + 11, p18 + 12, p18 + 13, p18 + 14, p18 + 15, p18 + 16, p18 + 17, p18 + 18, p18 + 19, p18 + 20, p18 + 21, p18 + 22, p18 + 23, p18 + 24, p18 + 25, p18 + 26, p18 + 27, p18 + 28, p18 + 29, p18 + 30, p18 + 31, p18 + 32, p18 + 33, p18 + 34, p18 + 35, p18 + 36, p18 + 37, p18 + 38, p18 + 39, 12};
Line(19) = {14, 13};
Line(20) = {13, 15};
Line(21) = {16, 15};
Line(22) = {14, 16};
Line(23) = {14, 17};
Line(24) = {17, 18};
Line(25) = {13, 18};
Line(26) = {15, 19};
Line(27) = {18, 19};
Line(28) = {16, 20};
Line(29) = {20, 19};
Line(30) = {17, 20};
Curve Loop(7) = {-13, -14, 15, 14};
Surface(7) = {7};
Curve Loop(8) = {13};
Plane Surface(8) = {8};
Curve Loop(9) = {15};
Plane Surface(9) = {9};
Curve Loop(10) = {-16, -17, 18, 17};
Surface(10) = {10};
Curve Loop(11) = {16};
Plane Surface(11) = {11};
Curve Loop(12) = {18};
Plane Surface(12) = {12};
Curve Loop(13) = {-19, 22, 21, -20};
Plane Surface(13) = {13};
Curve Loop(14) = {-23, 19, 25, -24};
Plane Surface(14) = {14};
Curve Loop(15) = {-20, 25, 27, -26};
Plane Surface(15) = {15};
Curve Loop(16) = {-28, 21, 26, -29};
Plane Surface(16) = {16};
Curve Loop(17) = {-22, 23, 30, -28, -18, -15};
Plane Surface(17) = {17};
Curve Loop(18) = {-24, 30, 29, -27};
Plane Surface(18) = {18};
Surface Loop(1) = {13, 14, 15, 16, 17, 18, 10, 7, 11, 8};
Volume(1) = {1};
Surface Loop(2) = {7, 8, 9};
Volume(2) = {2};
Surface Loop(3) = {10, 11, 12};
Volume(3) = {3};
Physical Surface("WALLS") = {13, 18};
Physical Surface("LOAD") = {8, 11};
Physical Surface("BORDER") = {7, 9, 10, 12, 14, 15, 16, 17};
Physical Volume("SOLID") = {1, 2, 3};
