cl__1 = 0.063191;
cl__2 = 0.07503899999999999;
cl__3 = 0.5382479999999999;
cl__4 = 0.400782;
cl__5 = 3.706133;
cl__6 = 3.466506;
Point(9) = {6.702827, 1.866132, 0.1, cl__1};
Point(10) = {6.702827, 1.866132, 0, cl__1};
Point(11) = {8.972825, 1.52966, 0.1, cl__2};
Point(12) = {8.972825, 1.52966, 0, cl__2};
Point(13) = {0.857652, -4.506254, 1, cl__3};
Point(14) = {0.857652, -4.506254, 0, cl__3};
Point(15) = {0.857652, 5.388825000000001, 1, cl__4};
Point(16) = {0.857652, 5.388825000000001, 0, cl__4};
Point(17) = {30.00676, -4.506254, 0, cl__5};
Point(18) = {30.00676, -4.506254, 1, cl__5};
Point(19) = {30.00676, 5.388825000000001, 1, cl__6};
Point(20) = {30.00676, 5.388825000000001, 0, cl__6};
p13 = newp;
Point(p13 + 1) = {6.695047102370495, 1.964984972106967, 0.1};
Point(p13 + 2) = {6.67189897638162, 2.061403855966456, 0.1};
Point(p13 + 3) = {6.633952605719444, 2.153014498661916, 0.1};
Point(p13 + 4) = {6.582142355966456, 2.237561142131893, 0.1};
Point(p13 + 5) = {6.517743967419935, 2.312961967419935, 0.1};
Point(p13 + 6) = {6.442343142131894, 2.377360355966456, 0.1};
Point(p13 + 7) = {6.357796498661917, 2.429170605719444, 0.1};
Point(p13 + 8) = {6.266185855966456, 2.467116976381619, 0.1};
Point(p13 + 9) = {6.169766972106967, 2.490265102370495, 0.1};
Point(p13 + 10) = {6.070914, 2.498045, 0.1};
Point(p13 + 11) = {5.972061027893033, 2.490265102370495, 0.1};
Point(p13 + 12) = {5.875642144033544, 2.467116976381619, 0.1};
Point(p13 + 13) = {5.784031501338084, 2.429170605719444, 0.1};
Point(p13 + 14) = {5.699484857868106, 2.377360355966456, 0.1};
Point(p13 + 15) = {5.624084032580066, 2.312961967419935, 0.1};
Point(p13 + 16) = {5.559685644033544, 2.237561142131893, 0.1};
Point(p13 + 17) = {5.507875394280556, 2.153014498661916, 0.1};
Point(p13 + 18) = {5.469929023618381, 2.061403855966456, 0.1};
Point(p13 + 19) = {5.446780897629505, 1.964984972106967, 0.1};
Point(p13 + 20) = {5.439001, 1.866132, 0.1};
Point(p13 + 21) = {5.446780897629505, 1.767279027893033, 0.1};
Point(p13 + 22) = {5.469929023618381, 1.670860144033544, 0.1};
Point(p13 + 23) = {5.507875394280556, 1.579249501338084, 0.1};
Point(p13 + 24) = {5.559685644033544, 1.494702857868107, 0.1};
Point(p13 + 25) = {5.624084032580066, 1.419302032580065, 0.1};
Point(p13 + 26) = {5.699484857868106, 1.354903644033544, 0.1};
Point(p13 + 27) = {5.784031501338084, 1.303093394280556, 0.1};
Point(p13 + 28) = {5.875642144033544, 1.265147023618381, 0.1};
Point(p13 + 29) = {5.972061027893033, 1.241998897629505, 0.1};
Point(p13 + 30) = {6.070914, 1.234219, 0.1};
Point(p13 + 31) = {6.169766972106967, 1.241998897629505, 0.1};
Point(p13 + 32) = {6.266185855966456, 1.26514702361838, 0.1};
Point(p13 + 33) = {6.357796498661917, 1.303093394280556, 0.1};
Point(p13 + 34) = {6.442343142131894, 1.354903644033544, 0.1};
Point(p13 + 35) = {6.517743967419935, 1.419302032580065, 0.1};
Point(p13 + 36) = {6.582142355966456, 1.494702857868106, 0.1};
Point(p13 + 37) = {6.633952605719444, 1.579249501338084, 0.1};
Point(p13 + 38) = {6.67189897638162, 1.670860144033544, 0.1};
Point(p13 + 39) = {6.695047102370495, 1.767279027893032, 0.1};
Spline(13) = {9, p13 + 1, p13 + 2, p13 + 3, p13 + 4, p13 + 5, p13 + 6, p13 + 7, p13 + 8, p13 + 9, p13 + 10, p13 + 11, p13 + 12, p13 + 13, p13 + 14, p13 + 15, p13 + 16, p13 + 17, p13 + 18, p13 + 19, p13 + 20, p13 + 21, p13 + 22, p13 + 23, p13 + 24, p13 + 25, p13 + 26, p13 + 27, p13 + 28, p13 + 29, p13 + 30, p13 + 31, p13 + 32, p13 + 33, p13 + 34, p13 + 35, p13 + 36, p13 + 37, p13 + 38, p13 + 39, 9};
Line(14) = {10, 9};
p15 = newp;
Point(p15 + 1) = {6.695047102370495, 1.964984972106967, 0};
Point(p15 + 2) = {6.67189897638162, 2.061403855966456, 0};
Point(p15 + 3) = {6.633952605719444, 2.153014498661916, 0};
Point(p15 + 4) = {6.582142355966456, 2.237561142131893, 0};
Point(p15 + 5) = {6.517743967419935, 2.312961967419935, 0};
Point(p15 + 6) = {6.442343142131894, 2.377360355966456, 0};
Point(p15 + 7) = {6.357796498661917, 2.429170605719444, 0};
Point(p15 + 8) = {6.266185855966456, 2.467116976381619, 0};
Point(p15 + 9) = {6.169766972106967, 2.490265102370495, 0};
Point(p15 + 10) = {6.070914, 2.498045, 0};
Point(p15 + 11) = {5.972061027893033, 2.490265102370495, 0};
Point(p15 + 12) = {5.875642144033544, 2.467116976381619, 0};
Point(p15 + 13) = {5.784031501338084, 2.429170605719444, 0};
Point(p15 + 14) = {5.699484857868106, 2.377360355966456, 0};
Point(p15 + 15) = {5.624084032580066, 2.312961967419935, 0};
Point(p15 + 16) = {5.559685644033544, 2.237561142131893, 0};
Point(p15 + 17) = {5.507875394280556, 2.153014498661916, 0};
Point(p15 + 18) = {5.469929023618381, 2.061403855966456, 0};
Point(p15 + 19) = {5.446780897629505, 1.964984972106967, 0};
Point(p15 + 20) = {5.439001, 1.866132, 0};
Point(p15 + 21) = {5.446780897629505, 1.767279027893033, 0};
Point(p15 + 22) = {5.469929023618381, 1.670860144033544, 0};
Point(p15 + 23) = {5.507875394280556, 1.579249501338084, 0};
Point(p15 + 24) = {5.559685644033544, 1.494702857868107, 0};
Point(p15 + 25) = {5.624084032580066, 1.419302032580065, 0};
Point(p15 + 26) = {5.699484857868106, 1.354903644033544, 0};
Point(p15 + 27) = {5.784031501338084, 1.303093394280556, 0};
Point(p15 + 28) = {5.875642144033544, 1.265147023618381, 0};
Point(p15 + 29) = {5.972061027893033, 1.241998897629505, 0};
Point(p15 + 30) = {6.070914, 1.234219, 0};
Point(p15 + 31) = {6.169766972106967, 1.241998897629505, 0};
Point(p15 + 32) = {6.266185855966456, 1.26514702361838, 0};
Point(p15 + 33) = {6.357796498661917, 1.303093394280556, 0};
Point(p15 + 34) = {6.442343142131894, 1.354903644033544, 0};
Point(p15 + 35) = {6.517743967419935, 1.419302032580065, 0};
Point(p15 + 36) = {6.582142355966456, 1.494702857868106, 0};
Point(p15 + 37) = {6.633952605719444, 1.579249501338084, 0};
Point(p15 + 38) = {6.67189897638162, 1.670860144033544, 0};
Point(p15 + 39) = {6.695047102370495, 1.767279027893032, 0};
Spline(15) = {10, p15 + 1, p15 + 2, p15 + 3, p15 + 4, p15 + 5, p15 + 6, p15 + 7, p15 + 8, p15 + 9, p15 + 10, p15 + 11, p15 + 12, p15 + 13, p15 + 14, p15 + 15, p15 + 16, p15 + 17, p15 + 18, p15 + 19, p15 + 20, p15 + 21, p15 + 22, p15 + 23, p15 + 24, p15 + 25, p15 + 26, p15 + 27, p15 + 28, p15 + 29, p15 + 30, p15 + 31, p15 + 32, p15 + 33, p15 + 34, p15 + 35, p15 + 36, p15 + 37, p15 + 38, p15 + 39, 10};
p16 = newp;
Point(p16 + 1) = {8.963586466210845, 1.647046701787074, 0.1};
Point(p16 + 2) = {8.936098348206205, 1.761542953392022, 0.1};
Point(p16 + 3) = {8.891037494679185, 1.870329477109059, 0.1};
Point(p16 + 4) = {8.829513453392023, 1.970727587682497, 0.1};
Point(p16 + 5) = {8.753041150427793, 2.060265150427792, 0.1};
Point(p16 + 6) = {8.663503587682497, 2.136737453392022, 0.1};
Point(p16 + 7) = {8.563105477109058, 2.198261494679185, 0.1};
Point(p16 + 8) = {8.454318953392022, 2.243322348206204, 0.1};
Point(p16 + 9) = {8.339822701787075, 2.270810466210845, 0.1};
Point(p16 + 10) = {8.222436, 2.280049, 0.1};
Point(p16 + 11) = {8.105049298212926, 2.270810466210845, 0.1};
Point(p16 + 12) = {7.990553046607978, 2.243322348206204, 0.1};
Point(p16 + 13) = {7.881766522890941, 2.198261494679185, 0.1};
Point(p16 + 14) = {7.781368412317503, 2.136737453392023, 0.1};
Point(p16 + 15) = {7.691830849572208, 2.060265150427792, 0.1};
Point(p16 + 16) = {7.615358546607978, 1.970727587682497, 0.1};
Point(p16 + 17) = {7.553834505320815, 1.870329477109059, 0.1};
Point(p16 + 18) = {7.508773651793796, 1.761542953392023, 0.1};
Point(p16 + 19) = {7.481285533789156, 1.647046701787074, 0.1};
Point(p16 + 20) = {7.472047, 1.52966, 0.1};
Point(p16 + 21) = {7.481285533789155, 1.412273298212926, 0.1};
Point(p16 + 22) = {7.508773651793796, 1.297777046607977, 0.1};
Point(p16 + 23) = {7.553834505320815, 1.188990522890942, 0.1};
Point(p16 + 24) = {7.615358546607977, 1.088592412317503, 0.1};
Point(p16 + 25) = {7.691830849572208, 0.9990548495722079, 0.1};
Point(p16 + 26) = {7.781368412317503, 0.9225825466079777, 0.1};
Point(p16 + 27) = {7.881766522890941, 0.861058505320815, 0.1};
Point(p16 + 28) = {7.990553046607977, 0.8159976517937961, 0.1};
Point(p16 + 29) = {8.105049298212926, 0.7885095337891553, 0.1};
Point(p16 + 30) = {8.222436, 0.779271, 0.1};
Point(p16 + 31) = {8.339822701787075, 0.7885095337891552, 0.1};
Point(p16 + 32) = {8.454318953392022, 0.815997651793796, 0.1};
Point(p16 + 33) = {8.563105477109058, 0.8610585053208147, 0.1};
Point(p16 + 34) = {8.663503587682497, 0.9225825466079776, 0.1};
Point(p16 + 35) = {8.753041150427793, 0.9990548495722077, 0.1};
Point(p16 + 36) = {8.829513453392023, 1.088592412317503, 0.1};
Point(p16 + 37) = {8.891037494679185, 1.188990522890941, 0.1};
Point(p16 + 38) = {8.936098348206205, 1.297777046607977, 0.1};
Point(p16 + 39) = {8.963586466210845, 1.412273298212926, 0.1};
Spline(16) = {11, p16 + 1, p16 + 2, p16 + 3, p16 + 4, p16 + 5, p16 + 6, p16 + 7, p16 + 8, p16 + 9, p16 + 10, p16 + 11, p16 + 12, p16 + 13, p16 + 14, p16 + 15, p16 + 16, p16 + 17, p16 + 18, p16 + 19, p16 + 20, p16 + 21, p16 + 22, p16 + 23, p16 + 24, p16 + 25, p16 + 26, p16 + 27, p16 + 28, p16 + 29, p16 + 30, p16 + 31, p16 + 32, p16 + 33, p16 + 34, p16 + 35, p16 + 36, p16 + 37, p16 + 38, p16 + 39, 11};
Line(17) = {12, 11};
p18 = newp;
Point(p18 + 1) = {8.963586466210845, 1.647046701787074, 0};
Point(p18 + 2) = {8.936098348206205, 1.761542953392022, 0};
Point(p18 + 3) = {8.891037494679185, 1.870329477109059, 0};
Point(p18 + 4) = {8.829513453392023, 1.970727587682497, 0};
Point(p18 + 5) = {8.753041150427793, 2.060265150427792, 0};
Point(p18 + 6) = {8.663503587682497, 2.136737453392022, 0};
Point(p18 + 7) = {8.563105477109058, 2.198261494679185, 0};
Point(p18 + 8) = {8.454318953392022, 2.243322348206204, 0};
Point(p18 + 9) = {8.339822701787075, 2.270810466210845, 0};
Point(p18 + 10) = {8.222436, 2.280049, 0};
Point(p18 + 11) = {8.105049298212926, 2.270810466210845, 0};
Point(p18 + 12) = {7.990553046607978, 2.243322348206204, 0};
Point(p18 + 13) = {7.881766522890941, 2.198261494679185, 0};
Point(p18 + 14) = {7.781368412317503, 2.136737453392023, 0};
Point(p18 + 15) = {7.691830849572208, 2.060265150427792, 0};
Point(p18 + 16) = {7.615358546607978, 1.970727587682497, 0};
Point(p18 + 17) = {7.553834505320815, 1.870329477109059, 0};
Point(p18 + 18) = {7.508773651793796, 1.761542953392023, 0};
Point(p18 + 19) = {7.481285533789156, 1.647046701787074, 0};
Point(p18 + 20) = {7.472047, 1.52966, 0};
Point(p18 + 21) = {7.481285533789155, 1.412273298212926, 0};
Point(p18 + 22) = {7.508773651793796, 1.297777046607977, 0};
Point(p18 + 23) = {7.553834505320815, 1.188990522890942, 0};
Point(p18 + 24) = {7.615358546607977, 1.088592412317503, 0};
Point(p18 + 25) = {7.691830849572208, 0.9990548495722079, 0};
Point(p18 + 26) = {7.781368412317503, 0.9225825466079777, 0};
Point(p18 + 27) = {7.881766522890941, 0.861058505320815, 0};
Point(p18 + 28) = {7.990553046607977, 0.8159976517937961, 0};
Point(p18 + 29) = {8.105049298212926, 0.7885095337891553, 0};
Point(p18 + 30) = {8.222436, 0.779271, 0};
Point(p18 + 31) = {8.339822701787075, 0.7885095337891552, 0};
Point(p18 + 32) = {8.454318953392022, 0.815997651793796, 0};
Point(p18 + 33) = {8.563105477109058, 0.8610585053208147, 0};
Point(p18 + 34) = {8.663503587682497, 0.9225825466079776, 0};
Point(p18 + 35) = {8.753041150427793, 0.9990548495722077, 0};
Point(p18 + 36) = {8.829513453392023, 1.088592412317503, 0};
Point(p18 + 37) = {8.891037494679185, 1.188990522890941, 0};
Point(p18 + 38) = {8.936098348206205, 1.297777046607977, 0};
Point(p18 + 39) = {8.963586466210845, 1.412273298212926, 0};
Spline(18) = {12, p18 + 1, p18 + 2, p18 + 3, p18 + 4, p18 + 5, p18 + 6, p18 + 7, p18 + 8, p18 + 9, p18 + 10, p18 + 11, p18 + 12, p18 + 13, p18 + 14, p18 + 15, p18 + 16, p18 + 17, p18 + 18, p18 + 19, p18 + 20, p18 + 21, p18 + 22, p18 + 23, p18 + 24, p18 + 25, p18 + 26, p18 + 27, p18 + 28, p18 + 29, p18 + 30, p18 + 31, p18 + 32, p18 + 33, p18 + 34, p18 + 35, p18 + 36, p18 + 37, p18 + 38, p18 + 39, 12};
Line(19) = {14, 13};
Line(20) = {13, 15};
Line(21) = {16, 15};
Line(22) = {14, 16};
Line(23) = {14, 17};
Line(24) = {17, 18};
Line(25) = {13, 18};
Line(26) = {15, 19};
Line(27) = {18, 19};
Line(28) = {16, 20};
Line(29) = {20, 19};
Line(30) = {17, 20};
Curve Loop(7) = {-13, -14, 15, 14};
Surface(7) = {7};
Curve Loop(8) = {13};
Plane Surface(8) = {8};
Curve Loop(9) = {15};
Plane Surface(9) = {9};
Curve Loop(10) = {-16, -17, 18, 17};
Surface(10) = {10};
Curve Loop(11) = {16};
Plane Surface(11) = {11};
Curve Loop(12) = {18};
Plane Surface(12) = {12};
Curve Loop(13) = {-19, 22, 21, -20};
Plane Surface(13) = {13};
Curve Loop(14) = {-23, 19, 25, -24};
Plane Surface(14) = {14};
Curve Loop(15) = {-20, 25, 27, -26};
Plane Surface(15) = {15};
Curve Loop(16) = {-28, 21, 26, -29};
Plane Surface(16) = {16};
Curve Loop(17) = {-22, 23, 30, -28, -18, -15};
Plane Surface(17) = {17};
Curve Loop(18) = {-24, 30, 29, -27};
Plane Surface(18) = {18};
Surface Loop(1) = {13, 14, 15, 16, 17, 18, 10, 7, 11, 8};
Volume(1) = {1};
Surface Loop(2) = {7, 8, 9};
Volume(2) = {2};
Surface Loop(3) = {10, 11, 12};
Volume(3) = {3};
Physical Surface("WALLS") = {13, 18};
Physical Surface("LOAD") = {8, 11};
Physical Surface("BORDER") = {7, 9, 10, 12, 14, 15, 16, 17};
Physical Volume("SOLID") = {1, 2, 3};
