cl__1 = 0.096696;
cl__2 = 0.14227;
cl__3 = 4.75139;
cl__4 = 5.365812;
cl__5 = 0.361871;
cl__6 = 0.206277;
Point(9) = {26.402798, -2.404913000000001, 0.1, cl__1};
Point(10) = {26.402798, -2.404913000000001, 0, cl__1};
Point(11) = {35.653206, 1.353074, 0.1, cl__2};
Point(12) = {35.653206, 1.353074, 0, cl__2};
Point(13) = {0.856441, -4.744964, 1, cl__3};
Point(14) = {0.856441, -4.744964, 0, cl__3};
Point(15) = {0.856441, 5.004779, 1, cl__4};
Point(16) = {0.856441, 5.004779, 0, cl__4};
Point(17) = {36.56394599999999, -4.744964, 0, cl__5};
Point(18) = {36.56394599999999, -4.744964, 1, cl__5};
Point(19) = {36.56394599999999, 5.004779, 1, cl__6};
Point(20) = {36.56394599999999, 5.004779, 0, cl__6};
p13 = newp;
Point(p13 + 1) = {26.39089316706851, -2.253647755422559, 0.1};
Point(p13 + 2) = {26.3554718047707, -2.106107163187179, 0.1};
Point(p13 + 3) = {26.29740610460309, -1.965924162333847, 0.1};
Point(p13 + 4) = {26.21812583681282, -1.836550523584279, 0.1};
Point(p13 + 5) = {26.11958314470902, -1.721171855290981, 0.1};
Point(p13 + 6) = {26.00420447641572, -1.622629163187178, 0.1};
Point(p13 + 7) = {25.87483083766615, -1.543348895396913, 0.1};
Point(p13 + 8) = {25.73464783681282, -1.485283195229304, 0.1};
Point(p13 + 9) = {25.58710724457744, -1.449861832931488, 0.1};
Point(p13 + 10) = {25.435842, -1.437957, 0.1};
Point(p13 + 11) = {25.28457675542256, -1.449861832931488, 0.1};
Point(p13 + 12) = {25.13703616318718, -1.485283195229303, 0.1};
Point(p13 + 13) = {24.99685316233385, -1.543348895396913, 0.1};
Point(p13 + 14) = {24.86747952358428, -1.622629163187178, 0.1};
Point(p13 + 15) = {24.75210085529098, -1.721171855290981, 0.1};
Point(p13 + 16) = {24.65355816318718, -1.836550523584279, 0.1};
Point(p13 + 17) = {24.57427789539691, -1.965924162333847, 0.1};
Point(p13 + 18) = {24.5162121952293, -2.106107163187178, 0.1};
Point(p13 + 19) = {24.48079083293149, -2.253647755422559, 0.1};
Point(p13 + 20) = {24.468886, -2.404913, 0.1};
Point(p13 + 21) = {24.48079083293149, -2.556178244577441, 0.1};
Point(p13 + 22) = {24.5162121952293, -2.703718836812822, 0.1};
Point(p13 + 23) = {24.57427789539691, -2.843901837666153, 0.1};
Point(p13 + 24) = {24.65355816318718, -2.973275476415721, 0.1};
Point(p13 + 25) = {24.75210085529098, -3.088654144709019, 0.1};
Point(p13 + 26) = {24.86747952358428, -3.187196836812822, 0.1};
Point(p13 + 27) = {24.99685316233385, -3.266477104603088, 0.1};
Point(p13 + 28) = {25.13703616318718, -3.324542804770696, 0.1};
Point(p13 + 29) = {25.28457675542256, -3.359964167068512, 0.1};
Point(p13 + 30) = {25.435842, -3.371869, 0.1};
Point(p13 + 31) = {25.58710724457744, -3.359964167068512, 0.1};
Point(p13 + 32) = {25.73464783681282, -3.324542804770697, 0.1};
Point(p13 + 33) = {25.87483083766615, -3.266477104603088, 0.1};
Point(p13 + 34) = {26.00420447641572, -3.187196836812822, 0.1};
Point(p13 + 35) = {26.11958314470902, -3.088654144709019, 0.1};
Point(p13 + 36) = {26.21812583681282, -2.973275476415721, 0.1};
Point(p13 + 37) = {26.29740610460309, -2.843901837666154, 0.1};
Point(p13 + 38) = {26.3554718047707, -2.703718836812822, 0.1};
Point(p13 + 39) = {26.39089316706851, -2.556178244577442, 0.1};
Spline(13) = {9, p13 + 1, p13 + 2, p13 + 3, p13 + 4, p13 + 5, p13 + 6, p13 + 7, p13 + 8, p13 + 9, p13 + 10, p13 + 11, p13 + 12, p13 + 13, p13 + 14, p13 + 15, p13 + 16, p13 + 17, p13 + 18, p13 + 19, p13 + 20, p13 + 21, p13 + 22, p13 + 23, p13 + 24, p13 + 25, p13 + 26, p13 + 27, p13 + 28, p13 + 29, p13 + 30, p13 + 31, p13 + 32, p13 + 33, p13 + 34, p13 + 35, p13 + 36, p13 + 37, p13 + 38, p13 + 39, 9};
Line(14) = {10, 9};
p15 = newp;
Point(p15 + 1) = {26.39089316706851, -2.253647755422559, 0};
Point(p15 + 2) = {26.3554718047707, -2.106107163187179, 0};
Point(p15 + 3) = {26.29740610460309, -1.965924162333847, 0};
Point(p15 + 4) = {26.21812583681282, -1.836550523584279, 0};
Point(p15 + 5) = {26.11958314470902, -1.721171855290981, 0};
Point(p15 + 6) = {26.00420447641572, -1.622629163187178, 0};
Point(p15 + 7) = {25.87483083766615, -1.543348895396913, 0};
Point(p15 + 8) = {25.73464783681282, -1.485283195229304, 0};
Point(p15 + 9) = {25.58710724457744, -1.449861832931488, 0};
Point(p15 + 10) = {25.435842, -1.437957, 0};
Point(p15 + 11) = {25.28457675542256, -1.449861832931488, 0};
Point(p15 + 12) = {25.13703616318718, -1.485283195229303, 0};
Point(p15 + 13) = {24.99685316233385, -1.543348895396913, 0};
Point(p15 + 14) = {24.86747952358428, -1.622629163187178, 0};
Point(p15 + 15) = {24.75210085529098, -1.721171855290981, 0};
Point(p15 + 16) = {24.65355816318718, -1.836550523584279, 0};
Point(p15 + 17) = {24.57427789539691, -1.965924162333847, 0};
Point(p15 + 18) = {24.5162121952293, -2.106107163187178, 0};
Point(p15 + 19) = {24.48079083293149, -2.253647755422559, 0};
Point(p15 + 20) = {24.468886, -2.404913, 0};
Point(p15 + 21) = {24.48079083293149, -2.556178244577441, 0};
Point(p15 + 22) = {24.5162121952293, -2.703718836812822, 0};
Point(p15 + 23) = {24.57427789539691, -2.843901837666153, 0};
Point(p15 + 24) = {24.65355816318718, -2.973275476415721, 0};
Point(p15 + 25) = {24.75210085529098, -3.088654144709019, 0};
Point(p15 + 26) = {24.86747952358428, -3.187196836812822, 0};
Point(p15 + 27) = {24.99685316233385, -3.266477104603088, 0};
Point(p15 + 28) = {25.13703616318718, -3.324542804770696, 0};
Point(p15 + 29) = {25.28457675542256, -3.359964167068512, 0};
Point(p15 + 30) = {25.435842, -3.371869, 0};
Point(p15 + 31) = {25.58710724457744, -3.359964167068512, 0};
Point(p15 + 32) = {25.73464783681282, -3.324542804770697, 0};
Point(p15 + 33) = {25.87483083766615, -3.266477104603088, 0};
Point(p15 + 34) = {26.00420447641572, -3.187196836812822, 0};
Point(p15 + 35) = {26.11958314470902, -3.088654144709019, 0};
Point(p15 + 36) = {26.21812583681282, -2.973275476415721, 0};
Point(p15 + 37) = {26.29740610460309, -2.843901837666154, 0};
Point(p15 + 38) = {26.3554718047707, -2.703718836812822, 0};
Point(p15 + 39) = {26.39089316706851, -2.556178244577442, 0};
Spline(15) = {10, p15 + 1, p15 + 2, p15 + 3, p15 + 4, p15 + 5, p15 + 6, p15 + 7, p15 + 8, p15 + 9, p15 + 10, p15 + 11, p15 + 12, p15 + 13, p15 + 14, p15 + 15, p15 + 16, p15 + 17, p15 + 18, p15 + 19, p15 + 20, p15 + 21, p15 + 22, p15 + 23, p15 + 24, p15 + 25, p15 + 26, p15 + 27, p15 + 28, p15 + 29, p15 + 30, p15 + 31, p15 + 32, p15 + 33, p15 + 34, p15 + 35, p15 + 36, p15 + 37, p15 + 38, p15 + 39, 10};
p16 = newp;
Point(p16 + 1) = {35.635690263723, 1.575632531240411, 0.1};
Point(p16 + 2) = {35.58357435045053, 1.792710932812266, 0.1};
Point(p16 + 3) = {35.49814152693017, 1.998964014026955, 0.1};
Point(p16 + 4) = {35.38149543281227, 2.18931313951024, 0.1};
Point(p16 + 5) = {35.23650828206019, 2.359071282060195, 0.1};
Point(p16 + 6) = {35.06675013951024, 2.504058432812266, 0.1};
Point(p16 + 7) = {34.87640101402695, 2.62070452693017, 0.1};
Point(p16 + 8) = {34.67014793281226, 2.706137350450533, 0.1};
Point(p16 + 9) = {34.45306953124041, 2.758253263723, 0.1};
Point(p16 + 10) = {34.230511, 2.775769, 0.1};
Point(p16 + 11) = {34.00795246875959, 2.758253263723, 0.1};
Point(p16 + 12) = {33.79087406718774, 2.706137350450533, 0.1};
Point(p16 + 13) = {33.58462098597305, 2.620704526930171, 0.1};
Point(p16 + 14) = {33.39427186048976, 2.504058432812266, 0.1};
Point(p16 + 15) = {33.22451371793981, 2.359071282060195, 0.1};
Point(p16 + 16) = {33.07952656718773, 2.18931313951024, 0.1};
Point(p16 + 17) = {32.96288047306983, 1.998964014026955, 0.1};
Point(p16 + 18) = {32.87744764954947, 1.792710932812266, 0.1};
Point(p16 + 19) = {32.825331736277, 1.575632531240412, 0.1};
Point(p16 + 20) = {32.807816, 1.353074, 0.1};
Point(p16 + 21) = {32.825331736277, 1.130515468759589, 0.1};
Point(p16 + 22) = {32.87744764954947, 0.9134370671877339, 0.1};
Point(p16 + 23) = {32.96288047306983, 0.7071839859730462, 0.1};
Point(p16 + 24) = {33.07952656718773, 0.5168348604897601, 0.1};
Point(p16 + 25) = {33.22451371793981, 0.3470767179398049, 0.1};
Point(p16 + 26) = {33.39427186048976, 0.2020895671877343, 0.1};
Point(p16 + 27) = {33.58462098597305, 0.08544347306983013, 0.1};
Point(p16 + 28) = {33.79087406718774, 1.064954946672358e-05, 0.1};
Point(p16 + 29) = {34.00795246875959, -0.05210526372299928, 0.1};
Point(p16 + 30) = {34.230511, -0.06962099999999993, 0.1};
Point(p16 + 31) = {34.45306953124041, -0.05210526372299951, 0.1};
Point(p16 + 32) = {34.67014793281226, 1.064954946650154e-05, 0.1};
Point(p16 + 33) = {34.87640101402695, 0.08544347306982991, 0.1};
Point(p16 + 34) = {35.06675013951024, 0.2020895671877341, 0.1};
Point(p16 + 35) = {35.23650828206019, 0.3470767179398047, 0.1};
Point(p16 + 36) = {35.38149543281227, 0.5168348604897599, 0.1};
Point(p16 + 37) = {35.49814152693017, 0.7071839859730453, 0.1};
Point(p16 + 38) = {35.58357435045053, 0.913437067187734, 0.1};
Point(p16 + 39) = {35.635690263723, 1.130515468759588, 0.1};
Spline(16) = {11, p16 + 1, p16 + 2, p16 + 3, p16 + 4, p16 + 5, p16 + 6, p16 + 7, p16 + 8, p16 + 9, p16 + 10, p16 + 11, p16 + 12, p16 + 13, p16 + 14, p16 + 15, p16 + 16, p16 + 17, p16 + 18, p16 + 19, p16 + 20, p16 + 21, p16 + 22, p16 + 23, p16 + 24, p16 + 25, p16 + 26, p16 + 27, p16 + 28, p16 + 29, p16 + 30, p16 + 31, p16 + 32, p16 + 33, p16 + 34, p16 + 35, p16 + 36, p16 + 37, p16 + 38, p16 + 39, 11};
Line(17) = {12, 11};
p18 = newp;
Point(p18 + 1) = {35.635690263723, 1.575632531240411, 0};
Point(p18 + 2) = {35.58357435045053, 1.792710932812266, 0};
Point(p18 + 3) = {35.49814152693017, 1.998964014026955, 0};
Point(p18 + 4) = {35.38149543281227, 2.18931313951024, 0};
Point(p18 + 5) = {35.23650828206019, 2.359071282060195, 0};
Point(p18 + 6) = {35.06675013951024, 2.504058432812266, 0};
Point(p18 + 7) = {34.87640101402695, 2.62070452693017, 0};
Point(p18 + 8) = {34.67014793281226, 2.706137350450533, 0};
Point(p18 + 9) = {34.45306953124041, 2.758253263723, 0};
Point(p18 + 10) = {34.230511, 2.775769, 0};
Point(p18 + 11) = {34.00795246875959, 2.758253263723, 0};
Point(p18 + 12) = {33.79087406718774, 2.706137350450533, 0};
Point(p18 + 13) = {33.58462098597305, 2.620704526930171, 0};
Point(p18 + 14) = {33.39427186048976, 2.504058432812266, 0};
Point(p18 + 15) = {33.22451371793981, 2.359071282060195, 0};
Point(p18 + 16) = {33.07952656718773, 2.18931313951024, 0};
Point(p18 + 17) = {32.96288047306983, 1.998964014026955, 0};
Point(p18 + 18) = {32.87744764954947, 1.792710932812266, 0};
Point(p18 + 19) = {32.825331736277, 1.575632531240412, 0};
Point(p18 + 20) = {32.807816, 1.353074, 0};
Point(p18 + 21) = {32.825331736277, 1.130515468759589, 0};
Point(p18 + 22) = {32.87744764954947, 0.9134370671877339, 0};
Point(p18 + 23) = {32.96288047306983, 0.7071839859730462, 0};
Point(p18 + 24) = {33.07952656718773, 0.5168348604897601, 0};
Point(p18 + 25) = {33.22451371793981, 0.3470767179398049, 0};
Point(p18 + 26) = {33.39427186048976, 0.2020895671877343, 0};
Point(p18 + 27) = {33.58462098597305, 0.08544347306983013, 0};
Point(p18 + 28) = {33.79087406718774, 1.064954946672358e-05, 0};
Point(p18 + 29) = {34.00795246875959, -0.05210526372299928, 0};
Point(p18 + 30) = {34.230511, -0.06962099999999993, 0};
Point(p18 + 31) = {34.45306953124041, -0.05210526372299951, 0};
Point(p18 + 32) = {34.67014793281226, 1.064954946650154e-05, 0};
Point(p18 + 33) = {34.87640101402695, 0.08544347306982991, 0};
Point(p18 + 34) = {35.06675013951024, 0.2020895671877341, 0};
Point(p18 + 35) = {35.23650828206019, 0.3470767179398047, 0};
Point(p18 + 36) = {35.38149543281227, 0.5168348604897599, 0};
Point(p18 + 37) = {35.49814152693017, 0.7071839859730453, 0};
Point(p18 + 38) = {35.58357435045053, 0.913437067187734, 0};
Point(p18 + 39) = {35.635690263723, 1.130515468759588, 0};
Spline(18) = {12, p18 + 1, p18 + 2, p18 + 3, p18 + 4, p18 + 5, p18 + 6, p18 + 7, p18 + 8, p18 + 9, p18 + 10, p18 + 11, p18 + 12, p18 + 13, p18 + 14, p18 + 15, p18 + 16, p18 + 17, p18 + 18, p18 + 19, p18 + 20, p18 + 21, p18 + 22, p18 + 23, p18 + 24, p18 + 25, p18 + 26, p18 + 27, p18 + 28, p18 + 29, p18 + 30, p18 + 31, p18 + 32, p18 + 33, p18 + 34, p18 + 35, p18 + 36, p18 + 37, p18 + 38, p18 + 39, 12};
Line(19) = {14, 13};
Line(20) = {13, 15};
Line(21) = {16, 15};
Line(22) = {14, 16};
Line(23) = {14, 17};
Line(24) = {17, 18};
Line(25) = {13, 18};
Line(26) = {15, 19};
Line(27) = {18, 19};
Line(28) = {16, 20};
Line(29) = {20, 19};
Line(30) = {17, 20};
Curve Loop(7) = {-13, -14, 15, 14};
Surface(7) = {7};
Curve Loop(8) = {13};
Plane Surface(8) = {8};
Curve Loop(9) = {15};
Plane Surface(9) = {9};
Curve Loop(10) = {-16, -17, 18, 17};
Surface(10) = {10};
Curve Loop(11) = {16};
Plane Surface(11) = {11};
Curve Loop(12) = {18};
Plane Surface(12) = {12};
Curve Loop(13) = {-19, 22, 21, -20};
Plane Surface(13) = {13};
Curve Loop(14) = {-23, 19, 25, -24};
Plane Surface(14) = {14};
Curve Loop(15) = {-20, 25, 27, -26};
Plane Surface(15) = {15};
Curve Loop(16) = {-28, 21, 26, -29};
Plane Surface(16) = {16};
Curve Loop(17) = {-22, 23, 30, -28, -15, -18};
Plane Surface(17) = {17};
Curve Loop(18) = {-24, 30, 29, -27};
Plane Surface(18) = {18};
Surface Loop(1) = {13, 14, 15, 16, 17, 18, 7, 10, 8, 11};
Volume(1) = {1};
Surface Loop(2) = {7, 8, 9};
Volume(2) = {2};
Surface Loop(3) = {10, 11, 12};
Volume(3) = {3};
Physical Surface("WALLS") = {13, 18};
Physical Surface("LOAD") = {8, 11};
Physical Surface("BORDER") = {7, 9, 10, 12, 14, 15, 16, 17};
Physical Volume("SOLID") = {1, 2, 3};
