cl__1 = 0.109787;
cl__2 = 0.085142;
cl__3 = 5.036584;
cl__4 = 5.360155;
cl__5 = 0.232266;
cl__6 = 0.303513;
Point(9) = {29.886363, -0.1619180000000003, 0.1, cl__1};
Point(10) = {29.886363, -0.1619180000000003, 0, cl__1};
Point(11) = {26.74045, -1.089344, 0.1, cl__2};
Point(12) = {26.74045, -1.089344, 0, cl__2};
Point(13) = {0.304613, -4.138003, 1, cl__3};
Point(14) = {0.304613, -4.138003, 0, cl__3};
Point(15) = {0.304613, 4.951493999999999, 1, cl__4};
Point(16) = {0.304613, 4.951493999999999, 0, cl__4};
Point(17) = {30.839084, -4.138003, 0, cl__5};
Point(18) = {30.839084, -4.138003, 1, cl__5};
Point(19) = {30.839084, 4.951493999999999, 1, cl__6};
Point(20) = {30.839084, 4.951493999999999, 0, cl__6};
p13 = newp;
Point(p13 + 1) = {29.8728464231125, 0.00982639326478818, 0.1};
Point(p13 + 2) = {29.83262951543193, 0.1773418695804347, 0.1};
Point(p13 + 3) = {29.76670255069764, 0.3365036419680567, 0.1};
Point(p13 + 4) = {29.67668886958043, 0.4833926193638329, 0.1};
Point(p13 + 5) = {29.56480490764771, 0.6143919076477126, 0.1};
Point(p13 + 6) = {29.43380561936383, 0.7262758695804348, 0.1};
Point(p13 + 7) = {29.28691664196806, 0.816289550697635, 0.1};
Point(p13 + 8) = {29.12775486958044, 0.8822165154319277, 0.1};
Point(p13 + 9) = {28.96023939326479, 0.9224334231125029, 0.1};
Point(p13 + 10) = {28.788495, 0.9359500000000001, 0.1};
Point(p13 + 11) = {28.61675060673521, 0.9224334231125026, 0.1};
Point(p13 + 12) = {28.44923513041957, 0.8822165154319277, 0.1};
Point(p13 + 13) = {28.29007335803194, 0.8162895506976351, 0.1};
Point(p13 + 14) = {28.14318438063617, 0.7262758695804349, 0.1};
Point(p13 + 15) = {28.01218509235229, 0.6143919076477127, 0.1};
Point(p13 + 16) = {27.90030113041957, 0.483392619363833, 0.1};
Point(p13 + 17) = {27.81028744930236, 0.3365036419680569, 0.1};
Point(p13 + 18) = {27.74436048456807, 0.1773418695804349, 0.1};
Point(p13 + 19) = {27.7041435768875, 0.009826393264788319, 0.1};
Point(p13 + 20) = {27.690627, -0.1619179999999999, 0.1};
Point(p13 + 21) = {27.7041435768875, -0.3336623932647881, 0.1};
Point(p13 + 22) = {27.74436048456807, -0.5011778695804352, 0.1};
Point(p13 + 23) = {27.81028744930236, -0.6603396419680563, 0.1};
Point(p13 + 24) = {27.90030113041957, -0.8072286193638328, 0.1};
Point(p13 + 25) = {28.01218509235229, -0.9382279076477126, 0.1};
Point(p13 + 26) = {28.14318438063617, -1.050111869580435, 0.1};
Point(p13 + 27) = {28.29007335803194, -1.140125550697635, 0.1};
Point(p13 + 28) = {28.44923513041957, -1.206052515431928, 0.1};
Point(p13 + 29) = {28.61675060673521, -1.246269423112503, 0.1};
Point(p13 + 30) = {28.788495, -1.259786, 0.1};
Point(p13 + 31) = {28.96023939326479, -1.246269423112503, 0.1};
Point(p13 + 32) = {29.12775486958044, -1.206052515431928, 0.1};
Point(p13 + 33) = {29.28691664196806, -1.140125550697635, 0.1};
Point(p13 + 34) = {29.43380561936383, -1.050111869580435, 0.1};
Point(p13 + 35) = {29.56480490764771, -0.9382279076477128, 0.1};
Point(p13 + 36) = {29.67668886958043, -0.8072286193638331, 0.1};
Point(p13 + 37) = {29.76670255069764, -0.6603396419680569, 0.1};
Point(p13 + 38) = {29.83262951543193, -0.501177869580435, 0.1};
Point(p13 + 39) = {29.8728464231125, -0.3336623932647885, 0.1};
Spline(13) = {9, p13 + 1, p13 + 2, p13 + 3, p13 + 4, p13 + 5, p13 + 6, p13 + 7, p13 + 8, p13 + 9, p13 + 10, p13 + 11, p13 + 12, p13 + 13, p13 + 14, p13 + 15, p13 + 16, p13 + 17, p13 + 18, p13 + 19, p13 + 20, p13 + 21, p13 + 22, p13 + 23, p13 + 24, p13 + 25, p13 + 26, p13 + 27, p13 + 28, p13 + 29, p13 + 30, p13 + 31, p13 + 32, p13 + 33, p13 + 34, p13 + 35, p13 + 36, p13 + 37, p13 + 38, p13 + 39, 9};
Line(14) = {10, 9};
p15 = newp;
Point(p15 + 1) = {29.8728464231125, 0.00982639326478818, 0};
Point(p15 + 2) = {29.83262951543193, 0.1773418695804347, 0};
Point(p15 + 3) = {29.76670255069764, 0.3365036419680567, 0};
Point(p15 + 4) = {29.67668886958043, 0.4833926193638329, 0};
Point(p15 + 5) = {29.56480490764771, 0.6143919076477126, 0};
Point(p15 + 6) = {29.43380561936383, 0.7262758695804348, 0};
Point(p15 + 7) = {29.28691664196806, 0.816289550697635, 0};
Point(p15 + 8) = {29.12775486958044, 0.8822165154319277, 0};
Point(p15 + 9) = {28.96023939326479, 0.9224334231125029, 0};
Point(p15 + 10) = {28.788495, 0.9359500000000001, 0};
Point(p15 + 11) = {28.61675060673521, 0.9224334231125026, 0};
Point(p15 + 12) = {28.44923513041957, 0.8822165154319277, 0};
Point(p15 + 13) = {28.29007335803194, 0.8162895506976351, 0};
Point(p15 + 14) = {28.14318438063617, 0.7262758695804349, 0};
Point(p15 + 15) = {28.01218509235229, 0.6143919076477127, 0};
Point(p15 + 16) = {27.90030113041957, 0.483392619363833, 0};
Point(p15 + 17) = {27.81028744930236, 0.3365036419680569, 0};
Point(p15 + 18) = {27.74436048456807, 0.1773418695804349, 0};
Point(p15 + 19) = {27.7041435768875, 0.009826393264788319, 0};
Point(p15 + 20) = {27.690627, -0.1619179999999999, 0};
Point(p15 + 21) = {27.7041435768875, -0.3336623932647881, 0};
Point(p15 + 22) = {27.74436048456807, -0.5011778695804352, 0};
Point(p15 + 23) = {27.81028744930236, -0.6603396419680563, 0};
Point(p15 + 24) = {27.90030113041957, -0.8072286193638328, 0};
Point(p15 + 25) = {28.01218509235229, -0.9382279076477126, 0};
Point(p15 + 26) = {28.14318438063617, -1.050111869580435, 0};
Point(p15 + 27) = {28.29007335803194, -1.140125550697635, 0};
Point(p15 + 28) = {28.44923513041957, -1.206052515431928, 0};
Point(p15 + 29) = {28.61675060673521, -1.246269423112503, 0};
Point(p15 + 30) = {28.788495, -1.259786, 0};
Point(p15 + 31) = {28.96023939326479, -1.246269423112503, 0};
Point(p15 + 32) = {29.12775486958044, -1.206052515431928, 0};
Point(p15 + 33) = {29.28691664196806, -1.140125550697635, 0};
Point(p15 + 34) = {29.43380561936383, -1.050111869580435, 0};
Point(p15 + 35) = {29.56480490764771, -0.9382279076477128, 0};
Point(p15 + 36) = {29.67668886958043, -0.8072286193638331, 0};
Point(p15 + 37) = {29.76670255069764, -0.6603396419680569, 0};
Point(p15 + 38) = {29.83262951543193, -0.501177869580435, 0};
Point(p15 + 39) = {29.8728464231125, -0.3336623932647885, 0};
Spline(15) = {10, p15 + 1, p15 + 2, p15 + 3, p15 + 4, p15 + 5, p15 + 6, p15 + 7, p15 + 8, p15 + 9, p15 + 10, p15 + 11, p15 + 12, p15 + 13, p15 + 14, p15 + 15, p15 + 16, p15 + 17, p15 + 18, p15 + 19, p15 + 20, p15 + 21, p15 + 22, p15 + 23, p15 + 24, p15 + 25, p15 + 26, p15 + 27, p15 + 28, p15 + 29, p15 + 30, p15 + 31, p15 + 32, p15 + 33, p15 + 34, p15 + 35, p15 + 36, p15 + 37, p15 + 38, p15 + 39, 10};
p16 = newp;
Point(p16 + 1) = {26.72996763157283, -0.9561528806443769, 0.1};
Point(p16 + 2) = {26.69877863699099, -0.8262413686832711, 0.1};
Point(p16 + 3) = {26.64765099281141, -0.7028083166927547, 0.1};
Point(p16 + 4) = {26.57784363131673, -0.5888930560636472, 0.1};
Point(p16 + 5) = {26.49107544142429, -0.4873005585757122, 0.1};
Point(p16 + 6) = {26.38948294393635, -0.4005323686832711, 0.1};
Point(p16 + 7) = {26.27556768330724, -0.3307250071885883, 0.1};
Point(p16 + 8) = {26.15213463131673, -0.2795973630090131, 0.1};
Point(p16 + 9) = {26.02222311935562, -0.2484083684271691, 0.1};
Point(p16 + 10) = {25.889032, -0.2379260000000001, 0.1};
Point(p16 + 11) = {25.75584088064438, -0.2484083684271692, 0.1};
Point(p16 + 12) = {25.62592936868327, -0.2795973630090129, 0.1};
Point(p16 + 13) = {25.50249631669276, -0.3307250071885882, 0.1};
Point(p16 + 14) = {25.38858105606365, -0.400532368683271, 0.1};
Point(p16 + 15) = {25.28698855857571, -0.4873005585757121, 0.1};
Point(p16 + 16) = {25.20022036868327, -0.5888930560636471, 0.1};
Point(p16 + 17) = {25.13041300718859, -0.7028083166927546, 0.1};
Point(p16 + 18) = {25.07928536300901, -0.826241368683271, 0.1};
Point(p16 + 19) = {25.04809636842717, -0.9561528806443766, 0.1};
Point(p16 + 20) = {25.037614, -1.089344, 0.1};
Point(p16 + 21) = {25.04809636842717, -1.222535119355623, 0.1};
Point(p16 + 22) = {25.07928536300901, -1.352446631316729, 0.1};
Point(p16 + 23) = {25.13041300718859, -1.475879683307245, 0.1};
Point(p16 + 24) = {25.20022036868327, -1.589794943936353, 0.1};
Point(p16 + 25) = {25.28698855857571, -1.691387441424288, 0.1};
Point(p16 + 26) = {25.38858105606365, -1.778155631316729, 0.1};
Point(p16 + 27) = {25.50249631669276, -1.847962992811412, 0.1};
Point(p16 + 28) = {25.62592936868327, -1.899090636990987, 0.1};
Point(p16 + 29) = {25.75584088064438, -1.930279631572831, 0.1};
Point(p16 + 30) = {25.889032, -1.940762, 0.1};
Point(p16 + 31) = {26.02222311935562, -1.930279631572831, 0.1};
Point(p16 + 32) = {26.15213463131673, -1.899090636990987, 0.1};
Point(p16 + 33) = {26.27556768330724, -1.847962992811412, 0.1};
Point(p16 + 34) = {26.38948294393635, -1.778155631316729, 0.1};
Point(p16 + 35) = {26.49107544142429, -1.691387441424288, 0.1};
Point(p16 + 36) = {26.57784363131673, -1.589794943936353, 0.1};
Point(p16 + 37) = {26.64765099281141, -1.475879683307246, 0.1};
Point(p16 + 38) = {26.69877863699099, -1.352446631316729, 0.1};
Point(p16 + 39) = {26.72996763157283, -1.222535119355624, 0.1};
Spline(16) = {11, p16 + 1, p16 + 2, p16 + 3, p16 + 4, p16 + 5, p16 + 6, p16 + 7, p16 + 8, p16 + 9, p16 + 10, p16 + 11, p16 + 12, p16 + 13, p16 + 14, p16 + 15, p16 + 16, p16 + 17, p16 + 18, p16 + 19, p16 + 20, p16 + 21, p16 + 22, p16 + 23, p16 + 24, p16 + 25, p16 + 26, p16 + 27, p16 + 28, p16 + 29, p16 + 30, p16 + 31, p16 + 32, p16 + 33, p16 + 34, p16 + 35, p16 + 36, p16 + 37, p16 + 38, p16 + 39, 11};
Line(17) = {12, 11};
p18 = newp;
Point(p18 + 1) = {26.72996763157283, -0.9561528806443769, 0};
Point(p18 + 2) = {26.69877863699099, -0.8262413686832711, 0};
Point(p18 + 3) = {26.64765099281141, -0.7028083166927547, 0};
Point(p18 + 4) = {26.57784363131673, -0.5888930560636472, 0};
Point(p18 + 5) = {26.49107544142429, -0.4873005585757122, 0};
Point(p18 + 6) = {26.38948294393635, -0.4005323686832711, 0};
Point(p18 + 7) = {26.27556768330724, -0.3307250071885883, 0};
Point(p18 + 8) = {26.15213463131673, -0.2795973630090131, 0};
Point(p18 + 9) = {26.02222311935562, -0.2484083684271691, 0};
Point(p18 + 10) = {25.889032, -0.2379260000000001, 0};
Point(p18 + 11) = {25.75584088064438, -0.2484083684271692, 0};
Point(p18 + 12) = {25.62592936868327, -0.2795973630090129, 0};
Point(p18 + 13) = {25.50249631669276, -0.3307250071885882, 0};
Point(p18 + 14) = {25.38858105606365, -0.400532368683271, 0};
Point(p18 + 15) = {25.28698855857571, -0.4873005585757121, 0};
Point(p18 + 16) = {25.20022036868327, -0.5888930560636471, 0};
Point(p18 + 17) = {25.13041300718859, -0.7028083166927546, 0};
Point(p18 + 18) = {25.07928536300901, -0.826241368683271, 0};
Point(p18 + 19) = {25.04809636842717, -0.9561528806443766, 0};
Point(p18 + 20) = {25.037614, -1.089344, 0};
Point(p18 + 21) = {25.04809636842717, -1.222535119355623, 0};
Point(p18 + 22) = {25.07928536300901, -1.352446631316729, 0};
Point(p18 + 23) = {25.13041300718859, -1.475879683307245, 0};
Point(p18 + 24) = {25.20022036868327, -1.589794943936353, 0};
Point(p18 + 25) = {25.28698855857571, -1.691387441424288, 0};
Point(p18 + 26) = {25.38858105606365, -1.778155631316729, 0};
Point(p18 + 27) = {25.50249631669276, -1.847962992811412, 0};
Point(p18 + 28) = {25.62592936868327, -1.899090636990987, 0};
Point(p18 + 29) = {25.75584088064438, -1.930279631572831, 0};
Point(p18 + 30) = {25.889032, -1.940762, 0};
Point(p18 + 31) = {26.02222311935562, -1.930279631572831, 0};
Point(p18 + 32) = {26.15213463131673, -1.899090636990987, 0};
Point(p18 + 33) = {26.27556768330724, -1.847962992811412, 0};
Point(p18 + 34) = {26.38948294393635, -1.778155631316729, 0};
Point(p18 + 35) = {26.49107544142429, -1.691387441424288, 0};
Point(p18 + 36) = {26.57784363131673, -1.589794943936353, 0};
Point(p18 + 37) = {26.64765099281141, -1.475879683307246, 0};
Point(p18 + 38) = {26.69877863699099, -1.352446631316729, 0};
Point(p18 + 39) = {26.72996763157283, -1.222535119355624, 0};
Spline(18) = {12, p18 + 1, p18 + 2, p18 + 3, p18 + 4, p18 + 5, p18 + 6, p18 + 7, p18 + 8, p18 + 9, p18 + 10, p18 + 11, p18 + 12, p18 + 13, p18 + 14, p18 + 15, p18 + 16, p18 + 17, p18 + 18, p18 + 19, p18 + 20, p18 + 21, p18 + 22, p18 + 23, p18 + 24, p18 + 25, p18 + 26, p18 + 27, p18 + 28, p18 + 29, p18 + 30, p18 + 31, p18 + 32, p18 + 33, p18 + 34, p18 + 35, p18 + 36, p18 + 37, p18 + 38, p18 + 39, 12};
Line(19) = {14, 13};
Line(20) = {13, 15};
Line(21) = {16, 15};
Line(22) = {14, 16};
Line(23) = {14, 17};
Line(24) = {17, 18};
Line(25) = {13, 18};
Line(26) = {15, 19};
Line(27) = {18, 19};
Line(28) = {16, 20};
Line(29) = {20, 19};
Line(30) = {17, 20};
Curve Loop(7) = {-13, -14, 15, 14};
Surface(7) = {7};
Curve Loop(8) = {13};
Plane Surface(8) = {8};
Curve Loop(9) = {15};
Plane Surface(9) = {9};
Curve Loop(10) = {-16, -17, 18, 17};
Surface(10) = {10};
Curve Loop(11) = {16};
Plane Surface(11) = {11};
Curve Loop(12) = {18};
Plane Surface(12) = {12};
Curve Loop(13) = {-19, 22, 21, -20};
Plane Surface(13) = {13};
Curve Loop(14) = {-23, 19, 25, -24};
Plane Surface(14) = {14};
Curve Loop(15) = {-20, 25, 27, -26};
Plane Surface(15) = {15};
Curve Loop(16) = {-28, 21, 26, -29};
Plane Surface(16) = {16};
Curve Loop(17) = {-22, 23, 30, -28, -18, -15};
Plane Surface(17) = {17};
Curve Loop(18) = {-24, 30, 29, -27};
Plane Surface(18) = {18};
Surface Loop(1) = {13, 14, 15, 16, 17, 18, 10, 7, 11, 8};
Volume(1) = {1};
Surface Loop(2) = {7, 8, 9};
Volume(2) = {2};
Surface Loop(3) = {10, 11, 12};
Volume(3) = {3};
Physical Surface("WALLS") = {13, 18};
Physical Surface("LOAD") = {8, 11};
Physical Surface("BORDER") = {7, 9, 10, 12, 14, 15, 16, 17};
Physical Volume("SOLID") = {1, 2, 3};
