cl__1 = 0.070426;
cl__2 = 0.08957900000000001;
cl__3 = 2.318664;
cl__4 = 1.754536;
cl__5 = 0.647858;
cl__6 = 0.822464;
Point(9) = {18.579376, 3.894612, 0.1, cl__1};
Point(10) = {18.579376, 3.894612, 0, cl__1};
Point(11) = {25.383994, -2.34116, 0.1, cl__2};
Point(12) = {25.383994, -2.34116, 0, cl__2};
Point(13) = {0.594519, -3.860209, 1, cl__3};
Point(14) = {0.594519, -3.860209, 0, cl__3};
Point(15) = {0.594519, 5.098972, 1, cl__4};
Point(16) = {0.594519, 5.098972, 0, cl__4};
Point(17) = {34.192249, -3.860209, 0, cl__5};
Point(18) = {34.192249, -3.860209, 1, cl__5};
Point(19) = {34.192249, 5.098972, 1, cl__6};
Point(20) = {34.192249, 5.098972, 0, cl__6};
p13 = newp;
Point(p13 + 1) = {18.57070540305919, 4.004782379914768, 0.1};
Point(p13 + 2) = {18.54490711110951, 4.112239999441506, 0.1};
Point(p13 + 3) = {18.50261636371837, 4.214338895356073, 0.1};
Point(p13 + 4) = {18.44487449944151, 4.308565053994244, 0.1};
Point(p13 + 5) = {18.37310331461165, 4.392598314611656, 0.1};
Point(p13 + 6) = {18.28907005399424, 4.464369499441506, 0.1};
Point(p13 + 7) = {18.19484389535607, 4.522111363718375, 0.1};
Point(p13 + 8) = {18.09274499944151, 4.564402111109509, 0.1};
Point(p13 + 9) = {17.98528737991477, 4.590200403059191, 0.1};
Point(p13 + 10) = {17.875117, 4.598871, 0.1};
Point(p13 + 11) = {17.76494662008523, 4.590200403059191, 0.1};
Point(p13 + 12) = {17.65748900055849, 4.564402111109509, 0.1};
Point(p13 + 13) = {17.55539010464393, 4.522111363718376, 0.1};
Point(p13 + 14) = {17.46116394600575, 4.464369499441506, 0.1};
Point(p13 + 15) = {17.37713068538834, 4.392598314611657, 0.1};
Point(p13 + 16) = {17.3053595005585, 4.308565053994245, 0.1};
Point(p13 + 17) = {17.24761763628162, 4.214338895356073, 0.1};
Point(p13 + 18) = {17.20532688889049, 4.112239999441506, 0.1};
Point(p13 + 19) = {17.17952859694081, 4.004782379914768, 0.1};
Point(p13 + 20) = {17.170858, 3.894612, 0.1};
Point(p13 + 21) = {17.17952859694081, 3.784441620085232, 0.1};
Point(p13 + 22) = {17.20532688889049, 3.676984000558494, 0.1};
Point(p13 + 23) = {17.24761763628162, 3.574885104643927, 0.1};
Point(p13 + 24) = {17.30535950055849, 3.480658946005755, 0.1};
Point(p13 + 25) = {17.37713068538834, 3.396625685388343, 0.1};
Point(p13 + 26) = {17.46116394600575, 3.324854500558494, 0.1};
Point(p13 + 27) = {17.55539010464393, 3.267112636281624, 0.1};
Point(p13 + 28) = {17.65748900055849, 3.224821888890491, 0.1};
Point(p13 + 29) = {17.76494662008523, 3.199023596940809, 0.1};
Point(p13 + 30) = {17.875117, 3.190353, 0.1};
Point(p13 + 31) = {17.98528737991477, 3.199023596940809, 0.1};
Point(p13 + 32) = {18.09274499944151, 3.224821888890491, 0.1};
Point(p13 + 33) = {18.19484389535607, 3.267112636281624, 0.1};
Point(p13 + 34) = {18.28907005399424, 3.324854500558494, 0.1};
Point(p13 + 35) = {18.37310331461165, 3.396625685388343, 0.1};
Point(p13 + 36) = {18.4448744994415, 3.480658946005755, 0.1};
Point(p13 + 37) = {18.50261636371837, 3.574885104643927, 0.1};
Point(p13 + 38) = {18.54490711110951, 3.676984000558494, 0.1};
Point(p13 + 39) = {18.57070540305919, 3.784441620085232, 0.1};
Spline(13) = {9, p13 + 1, p13 + 2, p13 + 3, p13 + 4, p13 + 5, p13 + 6, p13 + 7, p13 + 8, p13 + 9, p13 + 10, p13 + 11, p13 + 12, p13 + 13, p13 + 14, p13 + 15, p13 + 16, p13 + 17, p13 + 18, p13 + 19, p13 + 20, p13 + 21, p13 + 22, p13 + 23, p13 + 24, p13 + 25, p13 + 26, p13 + 27, p13 + 28, p13 + 29, p13 + 30, p13 + 31, p13 + 32, p13 + 33, p13 + 34, p13 + 35, p13 + 36, p13 + 37, p13 + 38, p13 + 39, 9};
Line(14) = {10, 9};
p15 = newp;
Point(p15 + 1) = {18.57070540305919, 4.004782379914768, 0};
Point(p15 + 2) = {18.54490711110951, 4.112239999441506, 0};
Point(p15 + 3) = {18.50261636371837, 4.214338895356073, 0};
Point(p15 + 4) = {18.44487449944151, 4.308565053994244, 0};
Point(p15 + 5) = {18.37310331461165, 4.392598314611656, 0};
Point(p15 + 6) = {18.28907005399424, 4.464369499441506, 0};
Point(p15 + 7) = {18.19484389535607, 4.522111363718375, 0};
Point(p15 + 8) = {18.09274499944151, 4.564402111109509, 0};
Point(p15 + 9) = {17.98528737991477, 4.590200403059191, 0};
Point(p15 + 10) = {17.875117, 4.598871, 0};
Point(p15 + 11) = {17.76494662008523, 4.590200403059191, 0};
Point(p15 + 12) = {17.65748900055849, 4.564402111109509, 0};
Point(p15 + 13) = {17.55539010464393, 4.522111363718376, 0};
Point(p15 + 14) = {17.46116394600575, 4.464369499441506, 0};
Point(p15 + 15) = {17.37713068538834, 4.392598314611657, 0};
Point(p15 + 16) = {17.3053595005585, 4.308565053994245, 0};
Point(p15 + 17) = {17.24761763628162, 4.214338895356073, 0};
Point(p15 + 18) = {17.20532688889049, 4.112239999441506, 0};
Point(p15 + 19) = {17.17952859694081, 4.004782379914768, 0};
Point(p15 + 20) = {17.170858, 3.894612, 0};
Point(p15 + 21) = {17.17952859694081, 3.784441620085232, 0};
Point(p15 + 22) = {17.20532688889049, 3.676984000558494, 0};
Point(p15 + 23) = {17.24761763628162, 3.574885104643927, 0};
Point(p15 + 24) = {17.30535950055849, 3.480658946005755, 0};
Point(p15 + 25) = {17.37713068538834, 3.396625685388343, 0};
Point(p15 + 26) = {17.46116394600575, 3.324854500558494, 0};
Point(p15 + 27) = {17.55539010464393, 3.267112636281624, 0};
Point(p15 + 28) = {17.65748900055849, 3.224821888890491, 0};
Point(p15 + 29) = {17.76494662008523, 3.199023596940809, 0};
Point(p15 + 30) = {17.875117, 3.190353, 0};
Point(p15 + 31) = {17.98528737991477, 3.199023596940809, 0};
Point(p15 + 32) = {18.09274499944151, 3.224821888890491, 0};
Point(p15 + 33) = {18.19484389535607, 3.267112636281624, 0};
Point(p15 + 34) = {18.28907005399424, 3.324854500558494, 0};
Point(p15 + 35) = {18.37310331461165, 3.396625685388343, 0};
Point(p15 + 36) = {18.4448744994415, 3.480658946005755, 0};
Point(p15 + 37) = {18.50261636371837, 3.574885104643927, 0};
Point(p15 + 38) = {18.54490711110951, 3.676984000558494, 0};
Point(p15 + 39) = {18.57070540305919, 3.784441620085232, 0};
Spline(15) = {10, p15 + 1, p15 + 2, p15 + 3, p15 + 4, p15 + 5, p15 + 6, p15 + 7, p15 + 8, p15 + 9, p15 + 10, p15 + 11, p15 + 12, p15 + 13, p15 + 14, p15 + 15, p15 + 16, p15 + 17, p15 + 18, p15 + 19, p15 + 20, p15 + 21, p15 + 22, p15 + 23, p15 + 24, p15 + 25, p15 + 26, p15 + 27, p15 + 28, p15 + 29, p15 + 30, p15 + 31, p15 + 32, p15 + 33, p15 + 34, p15 + 35, p15 + 36, p15 + 37, p15 + 38, p15 + 39, 10};
p16 = newp;
Point(p16 + 1) = {25.37296538786835, -2.201028196299472, 0.1};
Point(p16 + 2) = {25.34015111250597, -2.064346902676843, 0.1};
Point(p16 + 3) = {25.2863591702766, -1.93448166620031, 0.1};
Point(p16 + 4) = {25.21291409732316, -1.814630199989935, 0.1};
Point(p16 + 5) = {25.12162435509197, -1.707743644908027, 0.1};
Point(p16 + 6) = {25.01473780001007, -1.616453902676843, 0.1};
Point(p16 + 7) = {24.89488633379969, -1.543008829723399, 0.1};
Point(p16 + 8) = {24.76502109732316, -1.48921688749403, 0.1};
Point(p16 + 9) = {24.62833980370053, -1.456402612131644, 0.1};
Point(p16 + 10) = {24.488208, -1.445374, 0.1};
Point(p16 + 11) = {24.34807619629947, -1.456402612131644, 0.1};
Point(p16 + 12) = {24.21139490267684, -1.489216887494029, 0.1};
Point(p16 + 13) = {24.08152966620031, -1.543008829723399, 0.1};
Point(p16 + 14) = {23.96167819998994, -1.616453902676843, 0.1};
Point(p16 + 15) = {23.85479164490803, -1.707743644908027, 0.1};
Point(p16 + 16) = {23.76350190267684, -1.814630199989935, 0.1};
Point(p16 + 17) = {23.6900568297234, -1.93448166620031, 0.1};
Point(p16 + 18) = {23.63626488749403, -2.064346902676843, 0.1};
Point(p16 + 19) = {23.60345061213165, -2.201028196299472, 0.1};
Point(p16 + 20) = {23.592422, -2.34116, 0.1};
Point(p16 + 21) = {23.60345061213165, -2.481291803700528, 0.1};
Point(p16 + 22) = {23.63626488749403, -2.617973097323157, 0.1};
Point(p16 + 23) = {23.6900568297234, -2.747838333799689, 0.1};
Point(p16 + 24) = {23.76350190267684, -2.867689800010065, 0.1};
Point(p16 + 25) = {23.85479164490803, -2.974576355091973, 0.1};
Point(p16 + 26) = {23.96167819998993, -3.065866097323156, 0.1};
Point(p16 + 27) = {24.08152966620031, -3.139311170276601, 0.1};
Point(p16 + 28) = {24.21139490267684, -3.19310311250597, 0.1};
Point(p16 + 29) = {24.34807619629947, -3.225917387868356, 0.1};
Point(p16 + 30) = {24.488208, -3.236946, 0.1};
Point(p16 + 31) = {24.62833980370053, -3.225917387868356, 0.1};
Point(p16 + 32) = {24.76502109732316, -3.193103112505971, 0.1};
Point(p16 + 33) = {24.89488633379969, -3.139311170276601, 0.1};
Point(p16 + 34) = {25.01473780001006, -3.065866097323156, 0.1};
Point(p16 + 35) = {25.12162435509197, -2.974576355091973, 0.1};
Point(p16 + 36) = {25.21291409732316, -2.867689800010065, 0.1};
Point(p16 + 37) = {25.2863591702766, -2.74783833379969, 0.1};
Point(p16 + 38) = {25.34015111250597, -2.617973097323157, 0.1};
Point(p16 + 39) = {25.37296538786835, -2.481291803700528, 0.1};
Spline(16) = {11, p16 + 1, p16 + 2, p16 + 3, p16 + 4, p16 + 5, p16 + 6, p16 + 7, p16 + 8, p16 + 9, p16 + 10, p16 + 11, p16 + 12, p16 + 13, p16 + 14, p16 + 15, p16 + 16, p16 + 17, p16 + 18, p16 + 19, p16 + 20, p16 + 21, p16 + 22, p16 + 23, p16 + 24, p16 + 25, p16 + 26, p16 + 27, p16 + 28, p16 + 29, p16 + 30, p16 + 31, p16 + 32, p16 + 33, p16 + 34, p16 + 35, p16 + 36, p16 + 37, p16 + 38, p16 + 39, 11};
Line(17) = {12, 11};
p18 = newp;
Point(p18 + 1) = {25.37296538786835, -2.201028196299472, 0};
Point(p18 + 2) = {25.34015111250597, -2.064346902676843, 0};
Point(p18 + 3) = {25.2863591702766, -1.93448166620031, 0};
Point(p18 + 4) = {25.21291409732316, -1.814630199989935, 0};
Point(p18 + 5) = {25.12162435509197, -1.707743644908027, 0};
Point(p18 + 6) = {25.01473780001007, -1.616453902676843, 0};
Point(p18 + 7) = {24.89488633379969, -1.543008829723399, 0};
Point(p18 + 8) = {24.76502109732316, -1.48921688749403, 0};
Point(p18 + 9) = {24.62833980370053, -1.456402612131644, 0};
Point(p18 + 10) = {24.488208, -1.445374, 0};
Point(p18 + 11) = {24.34807619629947, -1.456402612131644, 0};
Point(p18 + 12) = {24.21139490267684, -1.489216887494029, 0};
Point(p18 + 13) = {24.08152966620031, -1.543008829723399, 0};
Point(p18 + 14) = {23.96167819998994, -1.616453902676843, 0};
Point(p18 + 15) = {23.85479164490803, -1.707743644908027, 0};
Point(p18 + 16) = {23.76350190267684, -1.814630199989935, 0};
Point(p18 + 17) = {23.6900568297234, -1.93448166620031, 0};
Point(p18 + 18) = {23.63626488749403, -2.064346902676843, 0};
Point(p18 + 19) = {23.60345061213165, -2.201028196299472, 0};
Point(p18 + 20) = {23.592422, -2.34116, 0};
Point(p18 + 21) = {23.60345061213165, -2.481291803700528, 0};
Point(p18 + 22) = {23.63626488749403, -2.617973097323157, 0};
Point(p18 + 23) = {23.6900568297234, -2.747838333799689, 0};
Point(p18 + 24) = {23.76350190267684, -2.867689800010065, 0};
Point(p18 + 25) = {23.85479164490803, -2.974576355091973, 0};
Point(p18 + 26) = {23.96167819998993, -3.065866097323156, 0};
Point(p18 + 27) = {24.08152966620031, -3.139311170276601, 0};
Point(p18 + 28) = {24.21139490267684, -3.19310311250597, 0};
Point(p18 + 29) = {24.34807619629947, -3.225917387868356, 0};
Point(p18 + 30) = {24.488208, -3.236946, 0};
Point(p18 + 31) = {24.62833980370053, -3.225917387868356, 0};
Point(p18 + 32) = {24.76502109732316, -3.193103112505971, 0};
Point(p18 + 33) = {24.89488633379969, -3.139311170276601, 0};
Point(p18 + 34) = {25.01473780001006, -3.065866097323156, 0};
Point(p18 + 35) = {25.12162435509197, -2.974576355091973, 0};
Point(p18 + 36) = {25.21291409732316, -2.867689800010065, 0};
Point(p18 + 37) = {25.2863591702766, -2.74783833379969, 0};
Point(p18 + 38) = {25.34015111250597, -2.617973097323157, 0};
Point(p18 + 39) = {25.37296538786835, -2.481291803700528, 0};
Spline(18) = {12, p18 + 1, p18 + 2, p18 + 3, p18 + 4, p18 + 5, p18 + 6, p18 + 7, p18 + 8, p18 + 9, p18 + 10, p18 + 11, p18 + 12, p18 + 13, p18 + 14, p18 + 15, p18 + 16, p18 + 17, p18 + 18, p18 + 19, p18 + 20, p18 + 21, p18 + 22, p18 + 23, p18 + 24, p18 + 25, p18 + 26, p18 + 27, p18 + 28, p18 + 29, p18 + 30, p18 + 31, p18 + 32, p18 + 33, p18 + 34, p18 + 35, p18 + 36, p18 + 37, p18 + 38, p18 + 39, 12};
Line(19) = {14, 13};
Line(20) = {13, 15};
Line(21) = {16, 15};
Line(22) = {14, 16};
Line(23) = {14, 17};
Line(24) = {17, 18};
Line(25) = {13, 18};
Line(26) = {15, 19};
Line(27) = {18, 19};
Line(28) = {16, 20};
Line(29) = {20, 19};
Line(30) = {17, 20};
Curve Loop(7) = {-13, -14, 15, 14};
Surface(7) = {7};
Curve Loop(8) = {13};
Plane Surface(8) = {8};
Curve Loop(9) = {15};
Plane Surface(9) = {9};
Curve Loop(10) = {-16, -17, 18, 17};
Surface(10) = {10};
Curve Loop(11) = {16};
Plane Surface(11) = {11};
Curve Loop(12) = {18};
Plane Surface(12) = {12};
Curve Loop(13) = {-19, 22, 21, -20};
Plane Surface(13) = {13};
Curve Loop(14) = {-23, 19, 25, -24};
Plane Surface(14) = {14};
Curve Loop(15) = {-20, 25, 27, -26};
Plane Surface(15) = {15};
Curve Loop(16) = {-28, 21, 26, -29};
Plane Surface(16) = {16};
Curve Loop(17) = {-22, 23, 30, -28, -18, -15};
Plane Surface(17) = {17};
Curve Loop(18) = {-24, 30, 29, -27};
Plane Surface(18) = {18};
Surface Loop(1) = {13, 14, 15, 16, 17, 18, 10, 7, 11, 8};
Volume(1) = {1};
Surface Loop(2) = {7, 8, 9};
Volume(2) = {2};
Surface Loop(3) = {10, 11, 12};
Volume(3) = {3};
Physical Surface("WALLS") = {13, 18};
Physical Surface("LOAD") = {8, 11};
Physical Surface("BORDER") = {7, 9, 10, 12, 14, 15, 16, 17};
Physical Volume("SOLID") = {1, 2, 3};
