cl__1 = 0.054348;
cl__2 = 0.128919;
cl__3 = 0.441529;
cl__4 = 0.626574;
cl__5 = 3.312316;
cl__6 = 2.993714;
Point(9) = {22.107408, 1.23398, 0.1, cl__1};
Point(10) = {22.107408, 1.23398, 0, cl__1};
Point(11) = {7.588895, -1.629828, 0.1, cl__2};
Point(12) = {7.588895, -1.629828, 0, cl__2};
Point(13) = {0.729924, -3.631638, 1, cl__3};
Point(14) = {0.729924, -3.631638, 0, cl__3};
Point(15) = {0.729924, 3.914333, 1, cl__4};
Point(16) = {0.729924, 3.914333, 0, cl__4};
Point(17) = {36.987553, -3.631638, 0, cl__5};
Point(18) = {36.987553, -3.631638, 1, cl__5};
Point(19) = {36.987553, 3.914333, 1, cl__6};
Point(20) = {36.987553, 3.914333, 0, cl__6};
p13 = newp;
Point(p13 + 1) = {22.10071683472333, 1.318999315928995, 0.1};
Point(p13 + 2) = {22.08080809758912, 1.401925174136885, 0.1};
Point(p13 + 3) = {22.04817200777894, 1.480715664779448, 0.1};
Point(p13 + 4) = {22.00361217413688, 1.553430704486418, 0.1};
Point(p13 + 5) = {21.94822580765283, 1.618279807652827, 0.1};
Point(p13 + 6) = {21.88337670448642, 1.673666174136885, 0.1};
Point(p13 + 7) = {21.81066166477945, 1.718226007778943, 0.1};
Point(p13 + 8) = {21.73187117413688, 1.750862097589123, 0.1};
Point(p13 + 9) = {21.64894531592899, 1.770770834723327, 0.1};
Point(p13 + 10) = {21.563926, 1.777462, 0.1};
Point(p13 + 11) = {21.478906684071, 1.770770834723327, 0.1};
Point(p13 + 12) = {21.39598082586311, 1.750862097589123, 0.1};
Point(p13 + 13) = {21.31719033522055, 1.718226007778943, 0.1};
Point(p13 + 14) = {21.24447529551358, 1.673666174136885, 0.1};
Point(p13 + 15) = {21.17962619234717, 1.618279807652827, 0.1};
Point(p13 + 16) = {21.12423982586311, 1.553430704486418, 0.1};
Point(p13 + 17) = {21.07967999222106, 1.480715664779448, 0.1};
Point(p13 + 18) = {21.04704390241088, 1.401925174136885, 0.1};
Point(p13 + 19) = {21.02713516527667, 1.318999315928995, 0.1};
Point(p13 + 20) = {21.020444, 1.23398, 0.1};
Point(p13 + 21) = {21.02713516527667, 1.148960684071005, 0.1};
Point(p13 + 22) = {21.04704390241088, 1.066034825863115, 0.1};
Point(p13 + 23) = {21.07967999222106, 0.987244335220552, 0.1};
Point(p13 + 24) = {21.12423982586311, 0.9145292955135822, 0.1};
Point(p13 + 25) = {21.17962619234717, 0.8496801923471728, 0.1};
Point(p13 + 26) = {21.24447529551358, 0.7942938258631149, 0.1};
Point(p13 + 27) = {21.31719033522055, 0.7497339922210575, 0.1};
Point(p13 + 28) = {21.39598082586311, 0.7170979024108775, 0.1};
Point(p13 + 29) = {21.478906684071, 0.6971891652766734, 0.1};
Point(p13 + 30) = {21.563926, 0.6904980000000001, 0.1};
Point(p13 + 31) = {21.64894531592899, 0.6971891652766734, 0.1};
Point(p13 + 32) = {21.73187117413688, 0.7170979024108773, 0.1};
Point(p13 + 33) = {21.81066166477945, 0.7497339922210574, 0.1};
Point(p13 + 34) = {21.88337670448642, 0.7942938258631148, 0.1};
Point(p13 + 35) = {21.94822580765283, 0.8496801923471727, 0.1};
Point(p13 + 36) = {22.00361217413688, 0.9145292955135822, 0.1};
Point(p13 + 37) = {22.04817200777894, 0.9872443352205515, 0.1};
Point(p13 + 38) = {22.08080809758912, 1.066034825863115, 0.1};
Point(p13 + 39) = {22.10071683472333, 1.148960684071005, 0.1};
Spline(13) = {9, p13 + 1, p13 + 2, p13 + 3, p13 + 4, p13 + 5, p13 + 6, p13 + 7, p13 + 8, p13 + 9, p13 + 10, p13 + 11, p13 + 12, p13 + 13, p13 + 14, p13 + 15, p13 + 16, p13 + 17, p13 + 18, p13 + 19, p13 + 20, p13 + 21, p13 + 22, p13 + 23, p13 + 24, p13 + 25, p13 + 26, p13 + 27, p13 + 28, p13 + 29, p13 + 30, p13 + 31, p13 + 32, p13 + 33, p13 + 34, p13 + 35, p13 + 36, p13 + 37, p13 + 38, p13 + 39, 9};
Line(14) = {10, 9};
p15 = newp;
Point(p15 + 1) = {22.10071683472333, 1.318999315928995, 0};
Point(p15 + 2) = {22.08080809758912, 1.401925174136885, 0};
Point(p15 + 3) = {22.04817200777894, 1.480715664779448, 0};
Point(p15 + 4) = {22.00361217413688, 1.553430704486418, 0};
Point(p15 + 5) = {21.94822580765283, 1.618279807652827, 0};
Point(p15 + 6) = {21.88337670448642, 1.673666174136885, 0};
Point(p15 + 7) = {21.81066166477945, 1.718226007778943, 0};
Point(p15 + 8) = {21.73187117413688, 1.750862097589123, 0};
Point(p15 + 9) = {21.64894531592899, 1.770770834723327, 0};
Point(p15 + 10) = {21.563926, 1.777462, 0};
Point(p15 + 11) = {21.478906684071, 1.770770834723327, 0};
Point(p15 + 12) = {21.39598082586311, 1.750862097589123, 0};
Point(p15 + 13) = {21.31719033522055, 1.718226007778943, 0};
Point(p15 + 14) = {21.24447529551358, 1.673666174136885, 0};
Point(p15 + 15) = {21.17962619234717, 1.618279807652827, 0};
Point(p15 + 16) = {21.12423982586311, 1.553430704486418, 0};
Point(p15 + 17) = {21.07967999222106, 1.480715664779448, 0};
Point(p15 + 18) = {21.04704390241088, 1.401925174136885, 0};
Point(p15 + 19) = {21.02713516527667, 1.318999315928995, 0};
Point(p15 + 20) = {21.020444, 1.23398, 0};
Point(p15 + 21) = {21.02713516527667, 1.148960684071005, 0};
Point(p15 + 22) = {21.04704390241088, 1.066034825863115, 0};
Point(p15 + 23) = {21.07967999222106, 0.987244335220552, 0};
Point(p15 + 24) = {21.12423982586311, 0.9145292955135822, 0};
Point(p15 + 25) = {21.17962619234717, 0.8496801923471728, 0};
Point(p15 + 26) = {21.24447529551358, 0.7942938258631149, 0};
Point(p15 + 27) = {21.31719033522055, 0.7497339922210575, 0};
Point(p15 + 28) = {21.39598082586311, 0.7170979024108775, 0};
Point(p15 + 29) = {21.478906684071, 0.6971891652766734, 0};
Point(p15 + 30) = {21.563926, 0.6904980000000001, 0};
Point(p15 + 31) = {21.64894531592899, 0.6971891652766734, 0};
Point(p15 + 32) = {21.73187117413688, 0.7170979024108773, 0};
Point(p15 + 33) = {21.81066166477945, 0.7497339922210574, 0};
Point(p15 + 34) = {21.88337670448642, 0.7942938258631148, 0};
Point(p15 + 35) = {21.94822580765283, 0.8496801923471727, 0};
Point(p15 + 36) = {22.00361217413688, 0.9145292955135822, 0};
Point(p15 + 37) = {22.04817200777894, 0.9872443352205515, 0};
Point(p15 + 38) = {22.08080809758912, 1.066034825863115, 0};
Point(p15 + 39) = {22.10071683472333, 1.148960684071005, 0};
Spline(15) = {10, p15 + 1, p15 + 2, p15 + 3, p15 + 4, p15 + 5, p15 + 6, p15 + 7, p15 + 8, p15 + 9, p15 + 10, p15 + 11, p15 + 12, p15 + 13, p15 + 14, p15 + 15, p15 + 16, p15 + 17, p15 + 18, p15 + 19, p15 + 20, p15 + 21, p15 + 22, p15 + 23, p15 + 24, p15 + 25, p15 + 26, p15 + 27, p15 + 28, p15 + 29, p15 + 30, p15 + 31, p15 + 32, p15 + 33, p15 + 34, p15 + 35, p15 + 36, p15 + 37, p15 + 38, p15 + 39, 10};
p16 = newp;
Point(p16 + 1) = {7.573022956435164, -1.428154564883715, 0.1};
Point(p16 + 2) = {7.525797648129516, -1.23144699905575, 0.1};
Point(p16 + 3) = {7.448381918905353, -1.044548895621773, 0.1};
Point(p16 + 4) = {7.342682000944249, -0.8720623061675712, 0.1};
Point(p16 + 5) = {7.211300577024323, -0.7182344229756773, 0.1};
Point(p16 + 6) = {7.057472693832429, -0.5868529990557505, 0.1};
Point(p16 + 7) = {6.884986104378227, -0.4811530810946465, 0.1};
Point(p16 + 8) = {6.698088000944249, -0.4037373518704837, 0.1};
Point(p16 + 9) = {6.501380435116285, -0.3565120435648357, 0.1};
Point(p16 + 10) = {6.299707, -0.3406400000000001, 0.1};
Point(p16 + 11) = {6.098033564883714, -0.3565120435648357, 0.1};
Point(p16 + 12) = {5.90132599905575, -0.4037373518704834, 0.1};
Point(p16 + 13) = {5.714427895621773, -0.4811530810946465, 0.1};
Point(p16 + 14) = {5.541941306167571, -0.5868529990557503, 0.1};
Point(p16 + 15) = {5.388113422975677, -0.7182344229756772, 0.1};
Point(p16 + 16) = {5.25673199905575, -0.8720623061675711, 0.1};
Point(p16 + 17) = {5.151032081094646, -1.044548895621773, 0.1};
Point(p16 + 18) = {5.073616351870483, -1.23144699905575, 0.1};
Point(p16 + 19) = {5.026391043564836, -1.428154564883715, 0.1};
Point(p16 + 20) = {5.010519, -1.629828, 0.1};
Point(p16 + 21) = {5.026391043564836, -1.831501435116285, 0.1};
Point(p16 + 22) = {5.073616351870483, -2.02820900094425, 0.1};
Point(p16 + 23) = {5.151032081094645, -2.215107104378226, 0.1};
Point(p16 + 24) = {5.25673199905575, -2.387593693832429, 0.1};
Point(p16 + 25) = {5.388113422975676, -2.541421577024323, 0.1};
Point(p16 + 26) = {5.541941306167571, -2.67280300094425, 0.1};
Point(p16 + 27) = {5.714427895621773, -2.778502918905354, 0.1};
Point(p16 + 28) = {5.90132599905575, -2.855918648129516, 0.1};
Point(p16 + 29) = {6.098033564883714, -2.903143956435164, 0.1};
Point(p16 + 30) = {6.299707, -2.919016, 0.1};
Point(p16 + 31) = {6.501380435116284, -2.903143956435164, 0.1};
Point(p16 + 32) = {6.698088000944249, -2.855918648129517, 0.1};
Point(p16 + 33) = {6.884986104378227, -2.778502918905354, 0.1};
Point(p16 + 34) = {7.057472693832429, -2.67280300094425, 0.1};
Point(p16 + 35) = {7.211300577024322, -2.541421577024323, 0.1};
Point(p16 + 36) = {7.342682000944249, -2.387593693832429, 0.1};
Point(p16 + 37) = {7.448381918905353, -2.215107104378227, 0.1};
Point(p16 + 38) = {7.525797648129516, -2.02820900094425, 0.1};
Point(p16 + 39) = {7.573022956435164, -1.831501435116285, 0.1};
Spline(16) = {11, p16 + 1, p16 + 2, p16 + 3, p16 + 4, p16 + 5, p16 + 6, p16 + 7, p16 + 8, p16 + 9, p16 + 10, p16 + 11, p16 + 12, p16 + 13, p16 + 14, p16 + 15, p16 + 16, p16 + 17, p16 + 18, p16 + 19, p16 + 20, p16 + 21, p16 + 22, p16 + 23, p16 + 24, p16 + 25, p16 + 26, p16 + 27, p16 + 28, p16 + 29, p16 + 30, p16 + 31, p16 + 32, p16 + 33, p16 + 34, p16 + 35, p16 + 36, p16 + 37, p16 + 38, p16 + 39, 11};
Line(17) = {12, 11};
p18 = newp;
Point(p18 + 1) = {7.573022956435164, -1.428154564883715, 0};
Point(p18 + 2) = {7.525797648129516, -1.23144699905575, 0};
Point(p18 + 3) = {7.448381918905353, -1.044548895621773, 0};
Point(p18 + 4) = {7.342682000944249, -0.8720623061675712, 0};
Point(p18 + 5) = {7.211300577024323, -0.7182344229756773, 0};
Point(p18 + 6) = {7.057472693832429, -0.5868529990557505, 0};
Point(p18 + 7) = {6.884986104378227, -0.4811530810946465, 0};
Point(p18 + 8) = {6.698088000944249, -0.4037373518704837, 0};
Point(p18 + 9) = {6.501380435116285, -0.3565120435648357, 0};
Point(p18 + 10) = {6.299707, -0.3406400000000001, 0};
Point(p18 + 11) = {6.098033564883714, -0.3565120435648357, 0};
Point(p18 + 12) = {5.90132599905575, -0.4037373518704834, 0};
Point(p18 + 13) = {5.714427895621773, -0.4811530810946465, 0};
Point(p18 + 14) = {5.541941306167571, -0.5868529990557503, 0};
Point(p18 + 15) = {5.388113422975677, -0.7182344229756772, 0};
Point(p18 + 16) = {5.25673199905575, -0.8720623061675711, 0};
Point(p18 + 17) = {5.151032081094646, -1.044548895621773, 0};
Point(p18 + 18) = {5.073616351870483, -1.23144699905575, 0};
Point(p18 + 19) = {5.026391043564836, -1.428154564883715, 0};
Point(p18 + 20) = {5.010519, -1.629828, 0};
Point(p18 + 21) = {5.026391043564836, -1.831501435116285, 0};
Point(p18 + 22) = {5.073616351870483, -2.02820900094425, 0};
Point(p18 + 23) = {5.151032081094645, -2.215107104378226, 0};
Point(p18 + 24) = {5.25673199905575, -2.387593693832429, 0};
Point(p18 + 25) = {5.388113422975676, -2.541421577024323, 0};
Point(p18 + 26) = {5.541941306167571, -2.67280300094425, 0};
Point(p18 + 27) = {5.714427895621773, -2.778502918905354, 0};
Point(p18 + 28) = {5.90132599905575, -2.855918648129516, 0};
Point(p18 + 29) = {6.098033564883714, -2.903143956435164, 0};
Point(p18 + 30) = {6.299707, -2.919016, 0};
Point(p18 + 31) = {6.501380435116284, -2.903143956435164, 0};
Point(p18 + 32) = {6.698088000944249, -2.855918648129517, 0};
Point(p18 + 33) = {6.884986104378227, -2.778502918905354, 0};
Point(p18 + 34) = {7.057472693832429, -2.67280300094425, 0};
Point(p18 + 35) = {7.211300577024322, -2.541421577024323, 0};
Point(p18 + 36) = {7.342682000944249, -2.387593693832429, 0};
Point(p18 + 37) = {7.448381918905353, -2.215107104378227, 0};
Point(p18 + 38) = {7.525797648129516, -2.02820900094425, 0};
Point(p18 + 39) = {7.573022956435164, -1.831501435116285, 0};
Spline(18) = {12, p18 + 1, p18 + 2, p18 + 3, p18 + 4, p18 + 5, p18 + 6, p18 + 7, p18 + 8, p18 + 9, p18 + 10, p18 + 11, p18 + 12, p18 + 13, p18 + 14, p18 + 15, p18 + 16, p18 + 17, p18 + 18, p18 + 19, p18 + 20, p18 + 21, p18 + 22, p18 + 23, p18 + 24, p18 + 25, p18 + 26, p18 + 27, p18 + 28, p18 + 29, p18 + 30, p18 + 31, p18 + 32, p18 + 33, p18 + 34, p18 + 35, p18 + 36, p18 + 37, p18 + 38, p18 + 39, 12};
Line(19) = {14, 13};
Line(20) = {13, 15};
Line(21) = {16, 15};
Line(22) = {14, 16};
Line(23) = {14, 17};
Line(24) = {17, 18};
Line(25) = {13, 18};
Line(26) = {15, 19};
Line(27) = {18, 19};
Line(28) = {16, 20};
Line(29) = {20, 19};
Line(30) = {17, 20};
Curve Loop(7) = {-13, -14, 15, 14};
Surface(7) = {7};
Curve Loop(8) = {13};
Plane Surface(8) = {8};
Curve Loop(9) = {15};
Plane Surface(9) = {9};
Curve Loop(10) = {-16, -17, 18, 17};
Surface(10) = {10};
Curve Loop(11) = {16};
Plane Surface(11) = {11};
Curve Loop(12) = {18};
Plane Surface(12) = {12};
Curve Loop(13) = {-19, 22, 21, -20};
Plane Surface(13) = {13};
Curve Loop(14) = {-23, 19, 25, -24};
Plane Surface(14) = {14};
Curve Loop(15) = {-20, 25, 27, -26};
Plane Surface(15) = {15};
Curve Loop(16) = {-28, 21, 26, -29};
Plane Surface(16) = {16};
Curve Loop(17) = {-22, 23, 30, -28, -18, -15};
Plane Surface(17) = {17};
Curve Loop(18) = {-24, 30, 29, -27};
Plane Surface(18) = {18};
Surface Loop(1) = {13, 14, 15, 16, 17, 18, 10, 7, 11, 8};
Volume(1) = {1};
Surface Loop(2) = {7, 8, 9};
Volume(2) = {2};
Surface Loop(3) = {10, 11, 12};
Volume(3) = {3};
Physical Surface("WALLS") = {13, 18};
Physical Surface("LOAD") = {8, 11};
Physical Surface("BORDER") = {7, 9, 10, 12, 14, 15, 16, 17};
Physical Volume("SOLID") = {1, 2, 3};
