cl__1 = 0.129208;
cl__2 = 0.076683;
cl__3 = 0.554319;
cl__4 = 0.434257;
cl__5 = 3.328325;
cl__6 = 3.500526;
Point(9) = {4.681234, 0.9708569999999996, 0.1, cl__1};
Point(10) = {4.681234, 0.9708569999999996, 0, cl__1};
Point(11) = {21.837875, 0.2816319999999998, 0.1, cl__2};
Point(12) = {21.837875, 0.2816319999999998, 0, cl__2};
Point(13) = {0.997538, -3.299369, 1, cl__3};
Point(14) = {0.997538, -3.299369, 0, cl__3};
Point(15) = {0.997538, 4.318422, 1, cl__4};
Point(16) = {0.997538, 4.318422, 0, cl__4};
Point(17) = {30.909095, -3.299369, 0, cl__5};
Point(18) = {30.909095, -3.299369, 1, cl__5};
Point(19) = {30.909095, 4.318422, 1, cl__6};
Point(20) = {30.909095, 4.318422, 0, cl__6};
p13 = newp;
Point(p13 + 1) = {4.665326363427825, 1.172982687154716, 0.1};
Point(p13 + 2) = {4.617995152518126, 1.370131369074988, 0.1};
Point(p13 + 3) = {4.540405818766782, 1.557448590912974, 0.1};
Point(p13 + 4) = {4.434468869074988, 1.730321980996806, 0.1};
Point(p13 + 5) = {4.302792822728733, 1.884494822728733, 0.1};
Point(p13 + 6) = {4.148619980996807, 2.016170869074987, 0.1};
Point(p13 + 7) = {3.975746590912974, 2.122107818766782, 0.1};
Point(p13 + 8) = {3.788429369074988, 2.199697152518126, 0.1};
Point(p13 + 9) = {3.591280687154716, 2.247028363427825, 0.1};
Point(p13 + 10) = {3.389155, 2.262936, 0.1};
Point(p13 + 11) = {3.187029312845283, 2.247028363427825, 0.1};
Point(p13 + 12) = {2.989880630925013, 2.199697152518126, 0.1};
Point(p13 + 13) = {2.802563409087026, 2.122107818766782, 0.1};
Point(p13 + 14) = {2.629690019003194, 2.016170869074988, 0.1};
Point(p13 + 15) = {2.475517177271267, 1.884494822728733, 0.1};
Point(p13 + 16) = {2.343841130925012, 1.730321980996806, 0.1};
Point(p13 + 17) = {2.237904181233218, 1.557448590912974, 0.1};
Point(p13 + 18) = {2.160314847481875, 1.370131369074988, 0.1};
Point(p13 + 19) = {2.112983636572175, 1.172982687154717, 0.1};
Point(p13 + 20) = {2.097076, 0.9708570000000001, 0.1};
Point(p13 + 21) = {2.112983636572175, 0.7687313128452836, 0.1};
Point(p13 + 22) = {2.160314847481875, 0.5715826309250118, 0.1};
Point(p13 + 23) = {2.237904181233218, 0.3842654090870268, 0.1};
Point(p13 + 24) = {2.343841130925012, 0.2113920190031937, 0.1};
Point(p13 + 25) = {2.475517177271267, 0.05721917727126691, 0.1};
Point(p13 + 26) = {2.629690019003194, -0.0744568690749875, 0.1};
Point(p13 + 27) = {2.802563409087026, -0.1803938187667821, 0.1};
Point(p13 + 28) = {2.989880630925012, -0.2579831525181256, 0.1};
Point(p13 + 29) = {3.187029312845283, -0.3053143634278249, 0.1};
Point(p13 + 30) = {3.389155, -0.321222, 0.1};
Point(p13 + 31) = {3.591280687154716, -0.3053143634278249, 0.1};
Point(p13 + 32) = {3.788429369074988, -0.2579831525181259, 0.1};
Point(p13 + 33) = {3.975746590912974, -0.1803938187667823, 0.1};
Point(p13 + 34) = {4.148619980996807, -0.07445686907498794, 0.1};
Point(p13 + 35) = {4.302792822728733, 0.05721917727126669, 0.1};
Point(p13 + 36) = {4.434468869074988, 0.2113920190031935, 0.1};
Point(p13 + 37) = {4.540405818766782, 0.3842654090870259, 0.1};
Point(p13 + 38) = {4.617995152518126, 0.571582630925012, 0.1};
Point(p13 + 39) = {4.665326363427825, 0.7687313128452832, 0.1};
Spline(13) = {9, p13 + 1, p13 + 2, p13 + 3, p13 + 4, p13 + 5, p13 + 6, p13 + 7, p13 + 8, p13 + 9, p13 + 10, p13 + 11, p13 + 12, p13 + 13, p13 + 14, p13 + 15, p13 + 16, p13 + 17, p13 + 18, p13 + 19, p13 + 20, p13 + 21, p13 + 22, p13 + 23, p13 + 24, p13 + 25, p13 + 26, p13 + 27, p13 + 28, p13 + 29, p13 + 30, p13 + 31, p13 + 32, p13 + 33, p13 + 34, p13 + 35, p13 + 36, p13 + 37, p13 + 38, p13 + 39, 9};
Line(14) = {10, 9};
p15 = newp;
Point(p15 + 1) = {4.665326363427825, 1.172982687154716, 0};
Point(p15 + 2) = {4.617995152518126, 1.370131369074988, 0};
Point(p15 + 3) = {4.540405818766782, 1.557448590912974, 0};
Point(p15 + 4) = {4.434468869074988, 1.730321980996806, 0};
Point(p15 + 5) = {4.302792822728733, 1.884494822728733, 0};
Point(p15 + 6) = {4.148619980996807, 2.016170869074987, 0};
Point(p15 + 7) = {3.975746590912974, 2.122107818766782, 0};
Point(p15 + 8) = {3.788429369074988, 2.199697152518126, 0};
Point(p15 + 9) = {3.591280687154716, 2.247028363427825, 0};
Point(p15 + 10) = {3.389155, 2.262936, 0};
Point(p15 + 11) = {3.187029312845283, 2.247028363427825, 0};
Point(p15 + 12) = {2.989880630925013, 2.199697152518126, 0};
Point(p15 + 13) = {2.802563409087026, 2.122107818766782, 0};
Point(p15 + 14) = {2.629690019003194, 2.016170869074988, 0};
Point(p15 + 15) = {2.475517177271267, 1.884494822728733, 0};
Point(p15 + 16) = {2.343841130925012, 1.730321980996806, 0};
Point(p15 + 17) = {2.237904181233218, 1.557448590912974, 0};
Point(p15 + 18) = {2.160314847481875, 1.370131369074988, 0};
Point(p15 + 19) = {2.112983636572175, 1.172982687154717, 0};
Point(p15 + 20) = {2.097076, 0.9708570000000001, 0};
Point(p15 + 21) = {2.112983636572175, 0.7687313128452836, 0};
Point(p15 + 22) = {2.160314847481875, 0.5715826309250118, 0};
Point(p15 + 23) = {2.237904181233218, 0.3842654090870268, 0};
Point(p15 + 24) = {2.343841130925012, 0.2113920190031937, 0};
Point(p15 + 25) = {2.475517177271267, 0.05721917727126691, 0};
Point(p15 + 26) = {2.629690019003194, -0.0744568690749875, 0};
Point(p15 + 27) = {2.802563409087026, -0.1803938187667821, 0};
Point(p15 + 28) = {2.989880630925012, -0.2579831525181256, 0};
Point(p15 + 29) = {3.187029312845283, -0.3053143634278249, 0};
Point(p15 + 30) = {3.389155, -0.321222, 0};
Point(p15 + 31) = {3.591280687154716, -0.3053143634278249, 0};
Point(p15 + 32) = {3.788429369074988, -0.2579831525181259, 0};
Point(p15 + 33) = {3.975746590912974, -0.1803938187667823, 0};
Point(p15 + 34) = {4.148619980996807, -0.07445686907498794, 0};
Point(p15 + 35) = {4.302792822728733, 0.05721917727126669, 0};
Point(p15 + 36) = {4.434468869074988, 0.2113920190031935, 0};
Point(p15 + 37) = {4.540405818766782, 0.3842654090870259, 0};
Point(p15 + 38) = {4.617995152518126, 0.571582630925012, 0};
Point(p15 + 39) = {4.665326363427825, 0.7687313128452832, 0};
Spline(15) = {10, p15 + 1, p15 + 2, p15 + 3, p15 + 4, p15 + 5, p15 + 6, p15 + 7, p15 + 8, p15 + 9, p15 + 10, p15 + 11, p15 + 12, p15 + 13, p15 + 14, p15 + 15, p15 + 16, p15 + 17, p15 + 18, p15 + 19, p15 + 20, p15 + 21, p15 + 22, p15 + 23, p15 + 24, p15 + 25, p15 + 26, p15 + 27, p15 + 28, p15 + 29, p15 + 30, p15 + 31, p15 + 32, p15 + 33, p15 + 34, p15 + 35, p15 + 36, p15 + 37, p15 + 38, p15 + 39, 10};
p16 = newp;
Point(p16 + 1) = {21.82843411177686, 0.4015898586544751, 0.1};
Point(p16 + 2) = {21.80034391310803, 0.518593956711569, 0.1};
Point(p16 + 3) = {21.75429607791074, 0.6297632649627779, 0.1};
Point(p16 + 4) = {21.69142445671157, 0.7323604260891756, 0.1};
Point(p16 + 5) = {21.61327715748337, 0.8238591574833742, 0.1};
Point(p16 + 6) = {21.52177842608917, 0.902006456711569, 0.1};
Point(p16 + 7) = {21.41918126496278, 0.9648780779107451, 0.1};
Point(p16 + 8) = {21.30801195671157, 1.010925913108031, 0.1};
Point(p16 + 9) = {21.19100785865448, 1.039016111776867, 0.1};
Point(p16 + 10) = {21.07105, 1.048457, 0.1};
Point(p16 + 11) = {20.95109214134552, 1.039016111776866, 0.1};
Point(p16 + 12) = {20.83408804328843, 1.010925913108031, 0.1};
Point(p16 + 13) = {20.72291873503722, 0.9648780779107452, 0.1};
Point(p16 + 14) = {20.62032157391083, 0.9020064567115691, 0.1};
Point(p16 + 15) = {20.52882284251663, 0.8238591574833743, 0.1};
Point(p16 + 16) = {20.45067554328843, 0.7323604260891758, 0.1};
Point(p16 + 17) = {20.38780392208925, 0.629763264962778, 0.1};
Point(p16 + 18) = {20.34175608689197, 0.5185939567115692, 0.1};
Point(p16 + 19) = {20.31366588822313, 0.4015898586544751, 0.1};
Point(p16 + 20) = {20.304225, 0.2816320000000001, 0.1};
Point(p16 + 21) = {20.31366588822313, 0.161674141345525, 0.1};
Point(p16 + 22) = {20.34175608689197, 0.04467004328843072, 0.1};
Point(p16 + 23) = {20.38780392208925, -0.06649926496277758, 0.1};
Point(p16 + 24) = {20.45067554328843, -0.1690964260891756, 0.1};
Point(p16 + 25) = {20.52882284251663, -0.2605951574833743, 0.1};
Point(p16 + 26) = {20.62032157391083, -0.338742456711569, 0.1};
Point(p16 + 27) = {20.72291873503722, -0.4016140779107451, 0.1};
Point(p16 + 28) = {20.83408804328843, -0.4476619131080311, 0.1};
Point(p16 + 29) = {20.95109214134552, -0.4757521117768664, 0.1};
Point(p16 + 30) = {21.07105, -0.485193, 0.1};
Point(p16 + 31) = {21.19100785865447, -0.4757521117768665, 0.1};
Point(p16 + 32) = {21.30801195671157, -0.4476619131080312, 0.1};
Point(p16 + 33) = {21.41918126496278, -0.4016140779107453, 0.1};
Point(p16 + 34) = {21.52177842608917, -0.3387424567115691, 0.1};
Point(p16 + 35) = {21.61327715748337, -0.2605951574833745, 0.1};
Point(p16 + 36) = {21.69142445671157, -0.1690964260891758, 0.1};
Point(p16 + 37) = {21.75429607791074, -0.06649926496277808, 0.1};
Point(p16 + 38) = {21.80034391310803, 0.0446700432884308, 0.1};
Point(p16 + 39) = {21.82843411177686, 0.1616741413455248, 0.1};
Spline(16) = {11, p16 + 1, p16 + 2, p16 + 3, p16 + 4, p16 + 5, p16 + 6, p16 + 7, p16 + 8, p16 + 9, p16 + 10, p16 + 11, p16 + 12, p16 + 13, p16 + 14, p16 + 15, p16 + 16, p16 + 17, p16 + 18, p16 + 19, p16 + 20, p16 + 21, p16 + 22, p16 + 23, p16 + 24, p16 + 25, p16 + 26, p16 + 27, p16 + 28, p16 + 29, p16 + 30, p16 + 31, p16 + 32, p16 + 33, p16 + 34, p16 + 35, p16 + 36, p16 + 37, p16 + 38, p16 + 39, 11};
Line(17) = {12, 11};
p18 = newp;
Point(p18 + 1) = {21.82843411177686, 0.4015898586544751, 0};
Point(p18 + 2) = {21.80034391310803, 0.518593956711569, 0};
Point(p18 + 3) = {21.75429607791074, 0.6297632649627779, 0};
Point(p18 + 4) = {21.69142445671157, 0.7323604260891756, 0};
Point(p18 + 5) = {21.61327715748337, 0.8238591574833742, 0};
Point(p18 + 6) = {21.52177842608917, 0.902006456711569, 0};
Point(p18 + 7) = {21.41918126496278, 0.9648780779107451, 0};
Point(p18 + 8) = {21.30801195671157, 1.010925913108031, 0};
Point(p18 + 9) = {21.19100785865448, 1.039016111776867, 0};
Point(p18 + 10) = {21.07105, 1.048457, 0};
Point(p18 + 11) = {20.95109214134552, 1.039016111776866, 0};
Point(p18 + 12) = {20.83408804328843, 1.010925913108031, 0};
Point(p18 + 13) = {20.72291873503722, 0.9648780779107452, 0};
Point(p18 + 14) = {20.62032157391083, 0.9020064567115691, 0};
Point(p18 + 15) = {20.52882284251663, 0.8238591574833743, 0};
Point(p18 + 16) = {20.45067554328843, 0.7323604260891758, 0};
Point(p18 + 17) = {20.38780392208925, 0.629763264962778, 0};
Point(p18 + 18) = {20.34175608689197, 0.5185939567115692, 0};
Point(p18 + 19) = {20.31366588822313, 0.4015898586544751, 0};
Point(p18 + 20) = {20.304225, 0.2816320000000001, 0};
Point(p18 + 21) = {20.31366588822313, 0.161674141345525, 0};
Point(p18 + 22) = {20.34175608689197, 0.04467004328843072, 0};
Point(p18 + 23) = {20.38780392208925, -0.06649926496277758, 0};
Point(p18 + 24) = {20.45067554328843, -0.1690964260891756, 0};
Point(p18 + 25) = {20.52882284251663, -0.2605951574833743, 0};
Point(p18 + 26) = {20.62032157391083, -0.338742456711569, 0};
Point(p18 + 27) = {20.72291873503722, -0.4016140779107451, 0};
Point(p18 + 28) = {20.83408804328843, -0.4476619131080311, 0};
Point(p18 + 29) = {20.95109214134552, -0.4757521117768664, 0};
Point(p18 + 30) = {21.07105, -0.485193, 0};
Point(p18 + 31) = {21.19100785865447, -0.4757521117768665, 0};
Point(p18 + 32) = {21.30801195671157, -0.4476619131080312, 0};
Point(p18 + 33) = {21.41918126496278, -0.4016140779107453, 0};
Point(p18 + 34) = {21.52177842608917, -0.3387424567115691, 0};
Point(p18 + 35) = {21.61327715748337, -0.2605951574833745, 0};
Point(p18 + 36) = {21.69142445671157, -0.1690964260891758, 0};
Point(p18 + 37) = {21.75429607791074, -0.06649926496277808, 0};
Point(p18 + 38) = {21.80034391310803, 0.0446700432884308, 0};
Point(p18 + 39) = {21.82843411177686, 0.1616741413455248, 0};
Spline(18) = {12, p18 + 1, p18 + 2, p18 + 3, p18 + 4, p18 + 5, p18 + 6, p18 + 7, p18 + 8, p18 + 9, p18 + 10, p18 + 11, p18 + 12, p18 + 13, p18 + 14, p18 + 15, p18 + 16, p18 + 17, p18 + 18, p18 + 19, p18 + 20, p18 + 21, p18 + 22, p18 + 23, p18 + 24, p18 + 25, p18 + 26, p18 + 27, p18 + 28, p18 + 29, p18 + 30, p18 + 31, p18 + 32, p18 + 33, p18 + 34, p18 + 35, p18 + 36, p18 + 37, p18 + 38, p18 + 39, 12};
Line(19) = {14, 13};
Line(20) = {13, 15};
Line(21) = {16, 15};
Line(22) = {14, 16};
Line(23) = {14, 17};
Line(24) = {17, 18};
Line(25) = {13, 18};
Line(26) = {15, 19};
Line(27) = {18, 19};
Line(28) = {16, 20};
Line(29) = {20, 19};
Line(30) = {17, 20};
Curve Loop(7) = {-13, -14, 15, 14};
Surface(7) = {7};
Curve Loop(8) = {13};
Plane Surface(8) = {8};
Curve Loop(9) = {15};
Plane Surface(9) = {9};
Curve Loop(10) = {-16, -17, 18, 17};
Surface(10) = {10};
Curve Loop(11) = {16};
Plane Surface(11) = {11};
Curve Loop(12) = {18};
Plane Surface(12) = {12};
Curve Loop(13) = {-19, 22, 21, -20};
Plane Surface(13) = {13};
Curve Loop(14) = {-23, 19, 25, -24};
Plane Surface(14) = {14};
Curve Loop(15) = {-20, 25, 27, -26};
Plane Surface(15) = {15};
Curve Loop(16) = {-28, 21, 26, -29};
Plane Surface(16) = {16};
Curve Loop(17) = {-22, 23, 30, -28, -18, -15};
Plane Surface(17) = {17};
Curve Loop(18) = {-24, 30, 29, -27};
Plane Surface(18) = {18};
Surface Loop(1) = {13, 14, 15, 16, 17, 18, 10, 7, 11, 8};
Volume(1) = {1};
Surface Loop(2) = {7, 8, 9};
Volume(2) = {2};
Surface Loop(3) = {10, 11, 12};
Volume(3) = {3};
Physical Surface("WALLS") = {13, 18};
Physical Surface("LOAD") = {8, 11};
Physical Surface("BORDER") = {7, 9, 10, 12, 14, 15, 16, 17};
Physical Volume("SOLID") = {1, 2, 3};
