cl__1 = 0.075919;
cl__2 = 0.126581;
cl__3 = 0.95853;
cl__4 = 0.900791;
cl__5 = 1.042206;
cl__6 = 1.430687;
Point(9) = {27.143135, -0.2467470000000002, 0.1, cl__1};
Point(10) = {27.143135, -0.2467470000000002, 0, cl__1};
Point(11) = {10.037563, 1.341238, 0.1, cl__2};
Point(12) = {10.037563, 1.341238, 0, cl__2};
Point(13) = {0.5047779999999999, -4.040941, 1, cl__3};
Point(14) = {0.5047779999999999, -4.040941, 0, cl__3};
Point(15) = {0.5047779999999999, 5.702078999999999, 1, cl__4};
Point(16) = {0.5047779999999999, 5.702078999999999, 0, cl__4};
Point(17) = {35.47871900000001, -4.040941, 0, cl__5};
Point(18) = {35.47871900000001, -4.040941, 1, cl__5};
Point(19) = {35.47871900000001, 5.702078999999999, 1, cl__6};
Point(20) = {35.47871900000001, 5.702078999999999, 0, cl__6};
p13 = newp;
Point(p13 + 1) = {27.1337880866731, -0.127983205617177, 0.1};
Point(p13 + 2) = {27.10597749871915, -0.01214377000649494, 0.1};
Point(p13 + 3) = {27.06038802511161, 0.09791895547826596, 0.1};
Point(p13 + 4) = {26.9981422299935, 0.1994948612584272, 0.1};
Point(p13 + 5) = {26.92077281142258, 0.2900828114225774, 0.1};
Point(p13 + 6) = {26.83018486125843, 0.367452229993505, 0.1};
Point(p13 + 7) = {26.72860895547826, 0.4296980251116153, 0.1};
Point(p13 + 8) = {26.61854622999351, 0.4752874987191502, 0.1};
Point(p13 + 9) = {26.50270679438282, 0.5030980866731039, 0.1};
Point(p13 + 10) = {26.383943, 0.512445, 0.1};
Point(p13 + 11) = {26.26517920561718, 0.5030980866731036, 0.1};
Point(p13 + 12) = {26.14933977000649, 0.4752874987191503, 0.1};
Point(p13 + 13) = {26.03927704452173, 0.4296980251116154, 0.1};
Point(p13 + 14) = {25.93770113874157, 0.3674522299935051, 0.1};
Point(p13 + 15) = {25.84711318857742, 0.2900828114225775, 0.1};
Point(p13 + 16) = {25.76974377000649, 0.1994948612584274, 0.1};
Point(p13 + 17) = {25.70749797488838, 0.09791895547826607, 0.1};
Point(p13 + 18) = {25.66190850128085, -0.01214377000649486, 0.1};
Point(p13 + 19) = {25.63409791332689, -0.127983205617177, 0.1};
Point(p13 + 20) = {25.624751, -0.2467469999999999, 0.1};
Point(p13 + 21) = {25.63409791332689, -0.3655107943828229, 0.1};
Point(p13 + 22) = {25.66190850128085, -0.4813502299935053, 0.1};
Point(p13 + 23) = {25.70749797488838, -0.5914129554782657, 0.1};
Point(p13 + 24) = {25.76974377000649, -0.6929888612584272, 0.1};
Point(p13 + 25) = {25.84711318857742, -0.7835768114225774, 0.1};
Point(p13 + 26) = {25.93770113874157, -0.8609462299935049, 0.1};
Point(p13 + 27) = {26.03927704452173, -0.9231920251116152, 0.1};
Point(p13 + 28) = {26.14933977000649, -0.9687814987191501, 0.1};
Point(p13 + 29) = {26.26517920561718, -0.9965920866731037, 0.1};
Point(p13 + 30) = {26.383943, -1.005939, 0.1};
Point(p13 + 31) = {26.50270679438282, -0.9965920866731037, 0.1};
Point(p13 + 32) = {26.6185462299935, -0.9687814987191503, 0.1};
Point(p13 + 33) = {26.72860895547826, -0.9231920251116155, 0.1};
Point(p13 + 34) = {26.83018486125843, -0.8609462299935051, 0.1};
Point(p13 + 35) = {26.92077281142258, -0.7835768114225774, 0.1};
Point(p13 + 36) = {26.9981422299935, -0.6929888612584274, 0.1};
Point(p13 + 37) = {27.06038802511161, -0.5914129554782661, 0.1};
Point(p13 + 38) = {27.10597749871915, -0.4813502299935052, 0.1};
Point(p13 + 39) = {27.1337880866731, -0.3655107943828231, 0.1};
Spline(13) = {9, p13 + 1, p13 + 2, p13 + 3, p13 + 4, p13 + 5, p13 + 6, p13 + 7, p13 + 8, p13 + 9, p13 + 10, p13 + 11, p13 + 12, p13 + 13, p13 + 14, p13 + 15, p13 + 16, p13 + 17, p13 + 18, p13 + 19, p13 + 20, p13 + 21, p13 + 22, p13 + 23, p13 + 24, p13 + 25, p13 + 26, p13 + 27, p13 + 28, p13 + 29, p13 + 30, p13 + 31, p13 + 32, p13 + 33, p13 + 34, p13 + 35, p13 + 36, p13 + 37, p13 + 38, p13 + 39, 9};
Line(14) = {10, 9};
p15 = newp;
Point(p15 + 1) = {27.1337880866731, -0.127983205617177, 0};
Point(p15 + 2) = {27.10597749871915, -0.01214377000649494, 0};
Point(p15 + 3) = {27.06038802511161, 0.09791895547826596, 0};
Point(p15 + 4) = {26.9981422299935, 0.1994948612584272, 0};
Point(p15 + 5) = {26.92077281142258, 0.2900828114225774, 0};
Point(p15 + 6) = {26.83018486125843, 0.367452229993505, 0};
Point(p15 + 7) = {26.72860895547826, 0.4296980251116153, 0};
Point(p15 + 8) = {26.61854622999351, 0.4752874987191502, 0};
Point(p15 + 9) = {26.50270679438282, 0.5030980866731039, 0};
Point(p15 + 10) = {26.383943, 0.512445, 0};
Point(p15 + 11) = {26.26517920561718, 0.5030980866731036, 0};
Point(p15 + 12) = {26.14933977000649, 0.4752874987191503, 0};
Point(p15 + 13) = {26.03927704452173, 0.4296980251116154, 0};
Point(p15 + 14) = {25.93770113874157, 0.3674522299935051, 0};
Point(p15 + 15) = {25.84711318857742, 0.2900828114225775, 0};
Point(p15 + 16) = {25.76974377000649, 0.1994948612584274, 0};
Point(p15 + 17) = {25.70749797488838, 0.09791895547826607, 0};
Point(p15 + 18) = {25.66190850128085, -0.01214377000649486, 0};
Point(p15 + 19) = {25.63409791332689, -0.127983205617177, 0};
Point(p15 + 20) = {25.624751, -0.2467469999999999, 0};
Point(p15 + 21) = {25.63409791332689, -0.3655107943828229, 0};
Point(p15 + 22) = {25.66190850128085, -0.4813502299935053, 0};
Point(p15 + 23) = {25.70749797488838, -0.5914129554782657, 0};
Point(p15 + 24) = {25.76974377000649, -0.6929888612584272, 0};
Point(p15 + 25) = {25.84711318857742, -0.7835768114225774, 0};
Point(p15 + 26) = {25.93770113874157, -0.8609462299935049, 0};
Point(p15 + 27) = {26.03927704452173, -0.9231920251116152, 0};
Point(p15 + 28) = {26.14933977000649, -0.9687814987191501, 0};
Point(p15 + 29) = {26.26517920561718, -0.9965920866731037, 0};
Point(p15 + 30) = {26.383943, -1.005939, 0};
Point(p15 + 31) = {26.50270679438282, -0.9965920866731037, 0};
Point(p15 + 32) = {26.6185462299935, -0.9687814987191503, 0};
Point(p15 + 33) = {26.72860895547826, -0.9231920251116155, 0};
Point(p15 + 34) = {26.83018486125843, -0.8609462299935051, 0};
Point(p15 + 35) = {26.92077281142258, -0.7835768114225774, 0};
Point(p15 + 36) = {26.9981422299935, -0.6929888612584274, 0};
Point(p15 + 37) = {27.06038802511161, -0.5914129554782661, 0};
Point(p15 + 38) = {27.10597749871915, -0.4813502299935052, 0};
Point(p15 + 39) = {27.1337880866731, -0.3655107943828231, 0};
Spline(15) = {10, p15 + 1, p15 + 2, p15 + 3, p15 + 4, p15 + 5, p15 + 6, p15 + 7, p15 + 8, p15 + 9, p15 + 10, p15 + 11, p15 + 12, p15 + 13, p15 + 14, p15 + 15, p15 + 16, p15 + 17, p15 + 18, p15 + 19, p15 + 20, p15 + 21, p15 + 22, p15 + 23, p15 + 24, p15 + 25, p15 + 26, p15 + 27, p15 + 28, p15 + 29, p15 + 30, p15 + 31, p15 + 32, p15 + 33, p15 + 34, p15 + 35, p15 + 36, p15 + 37, p15 + 38, p15 + 39, 10};
p16 = newp;
Point(p16 + 1) = {10.02197872916209, 1.539254935930435, 0.1};
Point(p16 + 2) = {9.975609653117633, 1.73239603771773, 0.1};
Point(p16 + 3) = {9.899597532408974, 1.915905530437314, 0.1};
Point(p16 + 4) = {9.795814037717729, 2.085264801345344, 0.1};
Point(p16 + 5) = {9.666814663120869, 2.236303663120868, 0.1};
Point(p16 + 6) = {9.515775801345345, 2.365303037717729, 0.1};
Point(p16 + 7) = {9.346416530437315, 2.469086532408975, 0.1};
Point(p16 + 8) = {9.16290703771773, 2.545098653117633, 0.1};
Point(p16 + 9) = {8.969765935930434, 2.591467729162094, 0.1};
Point(p16 + 10) = {8.771749, 2.607052, 0.1};
Point(p16 + 11) = {8.573732064069565, 2.591467729162094, 0.1};
Point(p16 + 12) = {8.38059096228227, 2.545098653117634, 0.1};
Point(p16 + 13) = {8.197081469562685, 2.469086532408975, 0.1};
Point(p16 + 14) = {8.027722198654656, 2.36530303771773, 0.1};
Point(p16 + 15) = {7.876683336879132, 2.236303663120868, 0.1};
Point(p16 + 16) = {7.74768396228227, 2.085264801345345, 0.1};
Point(p16 + 17) = {7.643900467591025, 1.915905530437315, 0.1};
Point(p16 + 18) = {7.567888346882366, 1.73239603771773, 0.1};
Point(p16 + 19) = {7.521519270837906, 1.539254935930435, 0.1};
Point(p16 + 20) = {7.505935, 1.341238, 0.1};
Point(p16 + 21) = {7.521519270837906, 1.143221064069565, 0.1};
Point(p16 + 22) = {7.567888346882366, 0.9500799622822699, 0.1};
Point(p16 + 23) = {7.643900467591025, 0.7665704695626858, 0.1};
Point(p16 + 24) = {7.74768396228227, 0.5972111986546554, 0.1};
Point(p16 + 25) = {7.876683336879131, 0.4461723368791315, 0.1};
Point(p16 + 26) = {8.027722198654654, 0.3171729622822703, 0.1};
Point(p16 + 27) = {8.197081469562685, 0.2133894675910253, 0.1};
Point(p16 + 28) = {8.38059096228227, 0.1373773468823665, 0.1};
Point(p16 + 29) = {8.573732064069565, 0.0910082708379063, 0.1};
Point(p16 + 30) = {8.771749, 0.07542399999999994, 0.1};
Point(p16 + 31) = {8.969765935930434, 0.0910082708379063, 0.1};
Point(p16 + 32) = {9.16290703771773, 0.1373773468823662, 0.1};
Point(p16 + 33) = {9.346416530437315, 0.2133894675910251, 0.1};
Point(p16 + 34) = {9.515775801345344, 0.3171729622822701, 0.1};
Point(p16 + 35) = {9.666814663120869, 0.4461723368791313, 0.1};
Point(p16 + 36) = {9.795814037717729, 0.5972111986546552, 0.1};
Point(p16 + 37) = {9.899597532408974, 0.766570469562685, 0.1};
Point(p16 + 38) = {9.975609653117633, 0.95007996228227, 0.1};
Point(p16 + 39) = {10.02197872916209, 1.143221064069565, 0.1};
Spline(16) = {11, p16 + 1, p16 + 2, p16 + 3, p16 + 4, p16 + 5, p16 + 6, p16 + 7, p16 + 8, p16 + 9, p16 + 10, p16 + 11, p16 + 12, p16 + 13, p16 + 14, p16 + 15, p16 + 16, p16 + 17, p16 + 18, p16 + 19, p16 + 20, p16 + 21, p16 + 22, p16 + 23, p16 + 24, p16 + 25, p16 + 26, p16 + 27, p16 + 28, p16 + 29, p16 + 30, p16 + 31, p16 + 32, p16 + 33, p16 + 34, p16 + 35, p16 + 36, p16 + 37, p16 + 38, p16 + 39, 11};
Line(17) = {12, 11};
p18 = newp;
Point(p18 + 1) = {10.02197872916209, 1.539254935930435, 0};
Point(p18 + 2) = {9.975609653117633, 1.73239603771773, 0};
Point(p18 + 3) = {9.899597532408974, 1.915905530437314, 0};
Point(p18 + 4) = {9.795814037717729, 2.085264801345344, 0};
Point(p18 + 5) = {9.666814663120869, 2.236303663120868, 0};
Point(p18 + 6) = {9.515775801345345, 2.365303037717729, 0};
Point(p18 + 7) = {9.346416530437315, 2.469086532408975, 0};
Point(p18 + 8) = {9.16290703771773, 2.545098653117633, 0};
Point(p18 + 9) = {8.969765935930434, 2.591467729162094, 0};
Point(p18 + 10) = {8.771749, 2.607052, 0};
Point(p18 + 11) = {8.573732064069565, 2.591467729162094, 0};
Point(p18 + 12) = {8.38059096228227, 2.545098653117634, 0};
Point(p18 + 13) = {8.197081469562685, 2.469086532408975, 0};
Point(p18 + 14) = {8.027722198654656, 2.36530303771773, 0};
Point(p18 + 15) = {7.876683336879132, 2.236303663120868, 0};
Point(p18 + 16) = {7.74768396228227, 2.085264801345345, 0};
Point(p18 + 17) = {7.643900467591025, 1.915905530437315, 0};
Point(p18 + 18) = {7.567888346882366, 1.73239603771773, 0};
Point(p18 + 19) = {7.521519270837906, 1.539254935930435, 0};
Point(p18 + 20) = {7.505935, 1.341238, 0};
Point(p18 + 21) = {7.521519270837906, 1.143221064069565, 0};
Point(p18 + 22) = {7.567888346882366, 0.9500799622822699, 0};
Point(p18 + 23) = {7.643900467591025, 0.7665704695626858, 0};
Point(p18 + 24) = {7.74768396228227, 0.5972111986546554, 0};
Point(p18 + 25) = {7.876683336879131, 0.4461723368791315, 0};
Point(p18 + 26) = {8.027722198654654, 0.3171729622822703, 0};
Point(p18 + 27) = {8.197081469562685, 0.2133894675910253, 0};
Point(p18 + 28) = {8.38059096228227, 0.1373773468823665, 0};
Point(p18 + 29) = {8.573732064069565, 0.0910082708379063, 0};
Point(p18 + 30) = {8.771749, 0.07542399999999994, 0};
Point(p18 + 31) = {8.969765935930434, 0.0910082708379063, 0};
Point(p18 + 32) = {9.16290703771773, 0.1373773468823662, 0};
Point(p18 + 33) = {9.346416530437315, 0.2133894675910251, 0};
Point(p18 + 34) = {9.515775801345344, 0.3171729622822701, 0};
Point(p18 + 35) = {9.666814663120869, 0.4461723368791313, 0};
Point(p18 + 36) = {9.795814037717729, 0.5972111986546552, 0};
Point(p18 + 37) = {9.899597532408974, 0.766570469562685, 0};
Point(p18 + 38) = {9.975609653117633, 0.95007996228227, 0};
Point(p18 + 39) = {10.02197872916209, 1.143221064069565, 0};
Spline(18) = {12, p18 + 1, p18 + 2, p18 + 3, p18 + 4, p18 + 5, p18 + 6, p18 + 7, p18 + 8, p18 + 9, p18 + 10, p18 + 11, p18 + 12, p18 + 13, p18 + 14, p18 + 15, p18 + 16, p18 + 17, p18 + 18, p18 + 19, p18 + 20, p18 + 21, p18 + 22, p18 + 23, p18 + 24, p18 + 25, p18 + 26, p18 + 27, p18 + 28, p18 + 29, p18 + 30, p18 + 31, p18 + 32, p18 + 33, p18 + 34, p18 + 35, p18 + 36, p18 + 37, p18 + 38, p18 + 39, 12};
Line(19) = {14, 13};
Line(20) = {13, 15};
Line(21) = {16, 15};
Line(22) = {14, 16};
Line(23) = {14, 17};
Line(24) = {17, 18};
Line(25) = {13, 18};
Line(26) = {15, 19};
Line(27) = {18, 19};
Line(28) = {16, 20};
Line(29) = {20, 19};
Line(30) = {17, 20};
Curve Loop(7) = {-13, -14, 15, 14};
Surface(7) = {7};
Curve Loop(8) = {13};
Plane Surface(8) = {8};
Curve Loop(9) = {15};
Plane Surface(9) = {9};
Curve Loop(10) = {-16, -17, 18, 17};
Surface(10) = {10};
Curve Loop(11) = {16};
Plane Surface(11) = {11};
Curve Loop(12) = {18};
Plane Surface(12) = {12};
Curve Loop(13) = {-19, 22, 21, -20};
Plane Surface(13) = {13};
Curve Loop(14) = {-23, 19, 25, -24};
Plane Surface(14) = {14};
Curve Loop(15) = {-20, 25, 27, -26};
Plane Surface(15) = {15};
Curve Loop(16) = {-28, 21, 26, -29};
Plane Surface(16) = {16};
Curve Loop(17) = {-22, 23, 30, -28, -15, -18};
Plane Surface(17) = {17};
Curve Loop(18) = {-24, 30, 29, -27};
Plane Surface(18) = {18};
Surface Loop(1) = {13, 14, 15, 16, 17, 18, 7, 10, 8, 11};
Volume(1) = {1};
Surface Loop(2) = {7, 8, 9};
Volume(2) = {2};
Surface Loop(3) = {10, 11, 12};
Volume(3) = {3};
Physical Surface("WALLS") = {13, 18};
Physical Surface("LOAD") = {8, 11};
Physical Surface("BORDER") = {7, 9, 10, 12, 14, 15, 16, 17};
Physical Volume("SOLID") = {1, 2, 3};
