cl__1 = 0.133384;
cl__2 = 0.10543;
cl__3 = 0.896447;
cl__4 = 0.827243;
cl__5 = 1.641691;
cl__6 = 1.318809;
Point(9) = {8.788592, 0.6880329999999997, 0.1, cl__1};
Point(10) = {8.788592, 0.6880329999999997, 0, cl__1};
Point(11) = {28.345353, 0.9497379999999996, 0.1, cl__2};
Point(12) = {28.345353, 0.9497379999999996, 0, cl__2};
Point(13) = {0.166105, -4.802411, 1, cl__3};
Point(14) = {0.166105, -4.802411, 0, cl__3};
Point(15) = {0.166105, 5.107256, 1, cl__4};
Point(16) = {0.166105, 5.107256, 0, cl__4};
Point(17) = {37.025981, -4.802411, 0, cl__5};
Point(18) = {37.025981, -4.802411, 1, cl__5};
Point(19) = {37.025981, 5.107256, 1, cl__6};
Point(20) = {37.025981, 5.107256, 0, cl__6};
p13 = newp;
Point(p13 + 1) = {8.772170228531078, 0.8966913904147965, 0.1};
Point(p13 + 2) = {8.723309272638611, 1.100211918760085, 0.1};
Point(p13 + 3) = {8.643212251216889, 1.293583234182097, 0.1};
Point(p13 + 4) = {8.533851418760086, 1.47204389313254, 0.1};
Point(p13 + 5) = {8.397919601911084, 1.631199601911083, 0.1};
Point(p13 + 6) = {8.238763893132541, 1.767131418760085, 0.1};
Point(p13 + 7) = {8.060303234182097, 1.876492251216888, 0.1};
Point(p13 + 8) = {7.866931918760086, 1.956589272638611, 0.1};
Point(p13 + 9) = {7.663411390414796, 2.005450228531078, 0.1};
Point(p13 + 10) = {7.454753, 2.021872, 0.1};
Point(p13 + 11) = {7.246094609585203, 2.005450228531078, 0.1};
Point(p13 + 12) = {7.042574081239914, 1.956589272638611, 0.1};
Point(p13 + 13) = {6.849202765817903, 1.876492251216888, 0.1};
Point(p13 + 14) = {6.67074210686746, 1.767131418760086, 0.1};
Point(p13 + 15) = {6.511586398088917, 1.631199601911083, 0.1};
Point(p13 + 16) = {6.375654581239915, 1.47204389313254, 0.1};
Point(p13 + 17) = {6.266293748783112, 1.293583234182097, 0.1};
Point(p13 + 18) = {6.186196727361389, 1.100211918760086, 0.1};
Point(p13 + 19) = {6.137335771468923, 0.8966913904147966, 0.1};
Point(p13 + 20) = {6.120914, 0.6880330000000001, 0.1};
Point(p13 + 21) = {6.137335771468923, 0.4793746095852036, 0.1};
Point(p13 + 22) = {6.18619672736139, 0.2758540812399141, 0.1};
Point(p13 + 23) = {6.266293748783111, 0.08248276581790326, 0.1};
Point(p13 + 24) = {6.375654581239915, -0.0959778931325399, 0.1};
Point(p13 + 25) = {6.511586398088917, -0.2551336019110833, 0.1};
Point(p13 + 26) = {6.670742106867459, -0.3910654187600854, 0.1};
Point(p13 + 27) = {6.849202765817902, -0.5004262512168883, 0.1};
Point(p13 + 28) = {7.042574081239914, -0.5805232726386113, 0.1};
Point(p13 + 29) = {7.246094609585203, -0.6293842285310779, 0.1};
Point(p13 + 30) = {7.454753, -0.645806, 0.1};
Point(p13 + 31) = {7.663411390414796, -0.6293842285310779, 0.1};
Point(p13 + 32) = {7.866931918760085, -0.5805232726386115, 0.1};
Point(p13 + 33) = {8.060303234182097, -0.5004262512168886, 0.1};
Point(p13 + 34) = {8.238763893132539, -0.3910654187600856, 0.1};
Point(p13 + 35) = {8.397919601911083, -0.2551336019110836, 0.1};
Point(p13 + 36) = {8.533851418760086, -0.09597789313254024, 0.1};
Point(p13 + 37) = {8.643212251216889, 0.08248276581790237, 0.1};
Point(p13 + 38) = {8.723309272638611, 0.2758540812399142, 0.1};
Point(p13 + 39) = {8.772170228531078, 0.4793746095852032, 0.1};
Spline(13) = {9, p13 + 1, p13 + 2, p13 + 3, p13 + 4, p13 + 5, p13 + 6, p13 + 7, p13 + 8, p13 + 9, p13 + 10, p13 + 11, p13 + 12, p13 + 13, p13 + 14, p13 + 15, p13 + 16, p13 + 17, p13 + 18, p13 + 19, p13 + 20, p13 + 21, p13 + 22, p13 + 23, p13 + 24, p13 + 25, p13 + 26, p13 + 27, p13 + 28, p13 + 29, p13 + 30, p13 + 31, p13 + 32, p13 + 33, p13 + 34, p13 + 35, p13 + 36, p13 + 37, p13 + 38, p13 + 39, 9};
Line(14) = {10, 9};
p15 = newp;
Point(p15 + 1) = {8.772170228531078, 0.8966913904147965, 0};
Point(p15 + 2) = {8.723309272638611, 1.100211918760085, 0};
Point(p15 + 3) = {8.643212251216889, 1.293583234182097, 0};
Point(p15 + 4) = {8.533851418760086, 1.47204389313254, 0};
Point(p15 + 5) = {8.397919601911084, 1.631199601911083, 0};
Point(p15 + 6) = {8.238763893132541, 1.767131418760085, 0};
Point(p15 + 7) = {8.060303234182097, 1.876492251216888, 0};
Point(p15 + 8) = {7.866931918760086, 1.956589272638611, 0};
Point(p15 + 9) = {7.663411390414796, 2.005450228531078, 0};
Point(p15 + 10) = {7.454753, 2.021872, 0};
Point(p15 + 11) = {7.246094609585203, 2.005450228531078, 0};
Point(p15 + 12) = {7.042574081239914, 1.956589272638611, 0};
Point(p15 + 13) = {6.849202765817903, 1.876492251216888, 0};
Point(p15 + 14) = {6.67074210686746, 1.767131418760086, 0};
Point(p15 + 15) = {6.511586398088917, 1.631199601911083, 0};
Point(p15 + 16) = {6.375654581239915, 1.47204389313254, 0};
Point(p15 + 17) = {6.266293748783112, 1.293583234182097, 0};
Point(p15 + 18) = {6.186196727361389, 1.100211918760086, 0};
Point(p15 + 19) = {6.137335771468923, 0.8966913904147966, 0};
Point(p15 + 20) = {6.120914, 0.6880330000000001, 0};
Point(p15 + 21) = {6.137335771468923, 0.4793746095852036, 0};
Point(p15 + 22) = {6.18619672736139, 0.2758540812399141, 0};
Point(p15 + 23) = {6.266293748783111, 0.08248276581790326, 0};
Point(p15 + 24) = {6.375654581239915, -0.0959778931325399, 0};
Point(p15 + 25) = {6.511586398088917, -0.2551336019110833, 0};
Point(p15 + 26) = {6.670742106867459, -0.3910654187600854, 0};
Point(p15 + 27) = {6.849202765817902, -0.5004262512168883, 0};
Point(p15 + 28) = {7.042574081239914, -0.5805232726386113, 0};
Point(p15 + 29) = {7.246094609585203, -0.6293842285310779, 0};
Point(p15 + 30) = {7.454753, -0.645806, 0};
Point(p15 + 31) = {7.663411390414796, -0.6293842285310779, 0};
Point(p15 + 32) = {7.866931918760085, -0.5805232726386115, 0};
Point(p15 + 33) = {8.060303234182097, -0.5004262512168886, 0};
Point(p15 + 34) = {8.238763893132539, -0.3910654187600856, 0};
Point(p15 + 35) = {8.397919601911083, -0.2551336019110836, 0};
Point(p15 + 36) = {8.533851418760086, -0.09597789313254024, 0};
Point(p15 + 37) = {8.643212251216889, 0.08248276581790237, 0};
Point(p15 + 38) = {8.723309272638611, 0.2758540812399142, 0};
Point(p15 + 39) = {8.772170228531078, 0.4793746095852032, 0};
Spline(15) = {10, p15 + 1, p15 + 2, p15 + 3, p15 + 4, p15 + 5, p15 + 6, p15 + 7, p15 + 8, p15 + 9, p15 + 10, p15 + 11, p15 + 12, p15 + 13, p15 + 14, p15 + 15, p15 + 16, p15 + 17, p15 + 18, p15 + 19, p15 + 20, p15 + 21, p15 + 22, p15 + 23, p15 + 24, p15 + 25, p15 + 26, p15 + 27, p15 + 28, p15 + 29, p15 + 30, p15 + 31, p15 + 32, p15 + 33, p15 + 34, p15 + 35, p15 + 36, p15 + 37, p15 + 38, p15 + 39, 10};
p16 = newp;
Point(p16 + 1) = {28.33237275593116, 1.114667638664241, 0.1};
Point(p16 + 2) = {28.29375164041256, 1.275536162254479, 0.1};
Point(p16 + 3) = {28.23044063348442, 1.428382453827903, 0.1};
Point(p16 + 4) = {28.14399866225448, 1.569442930418216, 0.1};
Point(p16 + 5) = {28.03655421493888, 1.695244214938883, 0.1};
Point(p16 + 6) = {27.91075293041822, 1.802688662254479, 0.1};
Point(p16 + 7) = {27.7696924538279, 1.889130633484417, 0.1};
Point(p16 + 8) = {27.61684616225448, 1.952441640412562, 0.1};
Point(p16 + 9) = {27.45597763866424, 1.991062755931157, 0.1};
Point(p16 + 10) = {27.291048, 2.004043, 0.1};
Point(p16 + 11) = {27.12611836133576, 1.991062755931157, 0.1};
Point(p16 + 12) = {26.96524983774552, 1.952441640412562, 0.1};
Point(p16 + 13) = {26.8124035461721, 1.889130633484417, 0.1};
Point(p16 + 14) = {26.67134306958178, 1.802688662254479, 0.1};
Point(p16 + 15) = {26.54554178506112, 1.695244214938883, 0.1};
Point(p16 + 16) = {26.43809733774552, 1.569442930418216, 0.1};
Point(p16 + 17) = {26.35165536651558, 1.428382453827903, 0.1};
Point(p16 + 18) = {26.28834435958744, 1.275536162254479, 0.1};
Point(p16 + 19) = {26.24972324406884, 1.114667638664241, 0.1};
Point(p16 + 20) = {26.236743, 0.9497380000000001, 0.1};
Point(p16 + 21) = {26.24972324406884, 0.7848083613357595, 0.1};
Point(p16 + 22) = {26.28834435958744, 0.6239398377455208, 0.1};
Point(p16 + 23) = {26.35165536651558, 0.4710935461720976, 0.1};
Point(p16 + 24) = {26.43809733774552, 0.3300330695817841, 0.1};
Point(p16 + 25) = {26.54554178506112, 0.2042317850611171, 0.1};
Point(p16 + 26) = {26.67134306958178, 0.09678733774552106, 0.1};
Point(p16 + 27) = {26.8124035461721, 0.01034536651558282, 0.1};
Point(p16 + 28) = {26.96524983774552, -0.05296564041256202, 0.1};
Point(p16 + 29) = {27.12611836133576, -0.09158675593115673, 0.1};
Point(p16 + 30) = {27.291048, -0.1045670000000001, 0.1};
Point(p16 + 31) = {27.45597763866424, -0.09158675593115673, 0.1};
Point(p16 + 32) = {27.61684616225448, -0.05296564041256202, 0.1};
Point(p16 + 33) = {27.7696924538279, 0.0103453665155826, 0.1};
Point(p16 + 34) = {27.91075293041822, 0.09678733774552084, 0.1};
Point(p16 + 35) = {28.03655421493888, 0.2042317850611168, 0.1};
Point(p16 + 36) = {28.14399866225448, 0.3300330695817839, 0.1};
Point(p16 + 37) = {28.23044063348442, 0.4710935461720969, 0.1};
Point(p16 + 38) = {28.29375164041256, 0.6239398377455208, 0.1};
Point(p16 + 39) = {28.33237275593116, 0.784808361335759, 0.1};
Spline(16) = {11, p16 + 1, p16 + 2, p16 + 3, p16 + 4, p16 + 5, p16 + 6, p16 + 7, p16 + 8, p16 + 9, p16 + 10, p16 + 11, p16 + 12, p16 + 13, p16 + 14, p16 + 15, p16 + 16, p16 + 17, p16 + 18, p16 + 19, p16 + 20, p16 + 21, p16 + 22, p16 + 23, p16 + 24, p16 + 25, p16 + 26, p16 + 27, p16 + 28, p16 + 29, p16 + 30, p16 + 31, p16 + 32, p16 + 33, p16 + 34, p16 + 35, p16 + 36, p16 + 37, p16 + 38, p16 + 39, 11};
Line(17) = {12, 11};
p18 = newp;
Point(p18 + 1) = {28.33237275593116, 1.114667638664241, 0};
Point(p18 + 2) = {28.29375164041256, 1.275536162254479, 0};
Point(p18 + 3) = {28.23044063348442, 1.428382453827903, 0};
Point(p18 + 4) = {28.14399866225448, 1.569442930418216, 0};
Point(p18 + 5) = {28.03655421493888, 1.695244214938883, 0};
Point(p18 + 6) = {27.91075293041822, 1.802688662254479, 0};
Point(p18 + 7) = {27.7696924538279, 1.889130633484417, 0};
Point(p18 + 8) = {27.61684616225448, 1.952441640412562, 0};
Point(p18 + 9) = {27.45597763866424, 1.991062755931157, 0};
Point(p18 + 10) = {27.291048, 2.004043, 0};
Point(p18 + 11) = {27.12611836133576, 1.991062755931157, 0};
Point(p18 + 12) = {26.96524983774552, 1.952441640412562, 0};
Point(p18 + 13) = {26.8124035461721, 1.889130633484417, 0};
Point(p18 + 14) = {26.67134306958178, 1.802688662254479, 0};
Point(p18 + 15) = {26.54554178506112, 1.695244214938883, 0};
Point(p18 + 16) = {26.43809733774552, 1.569442930418216, 0};
Point(p18 + 17) = {26.35165536651558, 1.428382453827903, 0};
Point(p18 + 18) = {26.28834435958744, 1.275536162254479, 0};
Point(p18 + 19) = {26.24972324406884, 1.114667638664241, 0};
Point(p18 + 20) = {26.236743, 0.9497380000000001, 0};
Point(p18 + 21) = {26.24972324406884, 0.7848083613357595, 0};
Point(p18 + 22) = {26.28834435958744, 0.6239398377455208, 0};
Point(p18 + 23) = {26.35165536651558, 0.4710935461720976, 0};
Point(p18 + 24) = {26.43809733774552, 0.3300330695817841, 0};
Point(p18 + 25) = {26.54554178506112, 0.2042317850611171, 0};
Point(p18 + 26) = {26.67134306958178, 0.09678733774552106, 0};
Point(p18 + 27) = {26.8124035461721, 0.01034536651558282, 0};
Point(p18 + 28) = {26.96524983774552, -0.05296564041256202, 0};
Point(p18 + 29) = {27.12611836133576, -0.09158675593115673, 0};
Point(p18 + 30) = {27.291048, -0.1045670000000001, 0};
Point(p18 + 31) = {27.45597763866424, -0.09158675593115673, 0};
Point(p18 + 32) = {27.61684616225448, -0.05296564041256202, 0};
Point(p18 + 33) = {27.7696924538279, 0.0103453665155826, 0};
Point(p18 + 34) = {27.91075293041822, 0.09678733774552084, 0};
Point(p18 + 35) = {28.03655421493888, 0.2042317850611168, 0};
Point(p18 + 36) = {28.14399866225448, 0.3300330695817839, 0};
Point(p18 + 37) = {28.23044063348442, 0.4710935461720969, 0};
Point(p18 + 38) = {28.29375164041256, 0.6239398377455208, 0};
Point(p18 + 39) = {28.33237275593116, 0.784808361335759, 0};
Spline(18) = {12, p18 + 1, p18 + 2, p18 + 3, p18 + 4, p18 + 5, p18 + 6, p18 + 7, p18 + 8, p18 + 9, p18 + 10, p18 + 11, p18 + 12, p18 + 13, p18 + 14, p18 + 15, p18 + 16, p18 + 17, p18 + 18, p18 + 19, p18 + 20, p18 + 21, p18 + 22, p18 + 23, p18 + 24, p18 + 25, p18 + 26, p18 + 27, p18 + 28, p18 + 29, p18 + 30, p18 + 31, p18 + 32, p18 + 33, p18 + 34, p18 + 35, p18 + 36, p18 + 37, p18 + 38, p18 + 39, 12};
Line(19) = {14, 13};
Line(20) = {13, 15};
Line(21) = {16, 15};
Line(22) = {14, 16};
Line(23) = {14, 17};
Line(24) = {17, 18};
Line(25) = {13, 18};
Line(26) = {15, 19};
Line(27) = {18, 19};
Line(28) = {16, 20};
Line(29) = {20, 19};
Line(30) = {17, 20};
Curve Loop(7) = {-13, -14, 15, 14};
Surface(7) = {7};
Curve Loop(8) = {13};
Plane Surface(8) = {8};
Curve Loop(9) = {15};
Plane Surface(9) = {9};
Curve Loop(10) = {-16, -17, 18, 17};
Surface(10) = {10};
Curve Loop(11) = {16};
Plane Surface(11) = {11};
Curve Loop(12) = {18};
Plane Surface(12) = {12};
Curve Loop(13) = {-19, 22, 21, -20};
Plane Surface(13) = {13};
Curve Loop(14) = {-23, 19, 25, -24};
Plane Surface(14) = {14};
Curve Loop(15) = {-20, 25, 27, -26};
Plane Surface(15) = {15};
Curve Loop(16) = {-28, 21, 26, -29};
Plane Surface(16) = {16};
Curve Loop(17) = {-22, 23, 30, -28, -15, -18};
Plane Surface(17) = {17};
Curve Loop(18) = {-24, 30, 29, -27};
Plane Surface(18) = {18};
Surface Loop(1) = {13, 14, 15, 16, 17, 18, 7, 10, 8, 11};
Volume(1) = {1};
Surface Loop(2) = {7, 8, 9};
Volume(2) = {2};
Surface Loop(3) = {10, 11, 12};
Volume(3) = {3};
Physical Surface("WALLS") = {13, 18};
Physical Surface("LOAD") = {8, 11};
Physical Surface("BORDER") = {7, 9, 10, 12, 14, 15, 16, 17};
Physical Volume("SOLID") = {1, 2, 3};
