cl__1 = 0.051978;
cl__2 = 0.080318;
cl__3 = 0.42367;
cl__4 = 0.311258;
cl__5 = 3.996624;
cl__6 = 4.725714;
Point(9) = {17.271316, -2.573865000000001, 0.1, cl__1};
Point(10) = {17.271316, -2.573865000000001, 0, cl__1};
Point(11) = {4.193087, 1.048503, 0.1, cl__2};
Point(12) = {4.193087, 1.048503, 0, cl__2};
Point(13) = {0.357966, -4.444101, 1, cl__3};
Point(14) = {0.357966, -4.444101, 0, cl__3};
Point(15) = {0.357966, 4.798474000000001, 1, cl__4};
Point(16) = {0.357966, 4.798474000000001, 0, cl__4};
Point(17) = {37.679659, -4.444101, 0, cl__5};
Point(18) = {37.679659, -4.444101, 1, cl__5};
Point(19) = {37.679659, 4.798474000000001, 1, cl__6};
Point(20) = {37.679659, 4.798474000000001, 0, cl__6};
p13 = newp;
Point(p13 + 1) = {17.26491662105122, -2.492553180892459, 0.1};
Point(p13 + 2) = {17.24587605815293, -2.413243528629801, 0.1};
Point(p13 + 3) = {17.21466315315568, -2.337888910064379, 0.1};
Point(p13 + 4) = {17.1720464713702, -2.268344805992914, 0.1};
Point(p13 + 5) = {17.11907537693871, -2.206323623061294, 0.1};
Point(p13 + 6) = {17.05705419400709, -2.153352528629801, 0.1};
Point(p13 + 7) = {16.98751008993562, -2.110735846844322, 0.1};
Point(p13 + 8) = {16.9121554713702, -2.079522941847073, 0.1};
Point(p13 + 9) = {16.83284581910754, -2.060482378948778, 0.1};
Point(p13 + 10) = {16.751534, -2.054083, 0.1};
Point(p13 + 11) = {16.67022218089246, -2.060482378948779, 0.1};
Point(p13 + 12) = {16.5909125286298, -2.079522941847073, 0.1};
Point(p13 + 13) = {16.51555791006438, -2.110735846844322, 0.1};
Point(p13 + 14) = {16.44601380599291, -2.153352528629801, 0.1};
Point(p13 + 15) = {16.38399262306129, -2.206323623061294, 0.1};
Point(p13 + 16) = {16.3310215286298, -2.268344805992914, 0.1};
Point(p13 + 17) = {16.28840484684432, -2.337888910064379, 0.1};
Point(p13 + 18) = {16.25719194184707, -2.413243528629801, 0.1};
Point(p13 + 19) = {16.23815137894878, -2.492553180892459, 0.1};
Point(p13 + 20) = {16.231752, -2.573865, 0.1};
Point(p13 + 21) = {16.23815137894878, -2.655176819107541, 0.1};
Point(p13 + 22) = {16.25719194184707, -2.734486471370199, 0.1};
Point(p13 + 23) = {16.28840484684432, -2.809841089935621, 0.1};
Point(p13 + 24) = {16.3310215286298, -2.879385194007086, 0.1};
Point(p13 + 25) = {16.38399262306129, -2.941406376938706, 0.1};
Point(p13 + 26) = {16.44601380599291, -2.994377471370199, 0.1};
Point(p13 + 27) = {16.51555791006438, -3.036994153155678, 0.1};
Point(p13 + 28) = {16.5909125286298, -3.068207058152927, 0.1};
Point(p13 + 29) = {16.67022218089246, -3.087247621051222, 0.1};
Point(p13 + 30) = {16.751534, -3.093647, 0.1};
Point(p13 + 31) = {16.83284581910754, -3.087247621051222, 0.1};
Point(p13 + 32) = {16.9121554713702, -3.068207058152927, 0.1};
Point(p13 + 33) = {16.98751008993562, -3.036994153155678, 0.1};
Point(p13 + 34) = {17.05705419400709, -2.994377471370199, 0.1};
Point(p13 + 35) = {17.11907537693871, -2.941406376938706, 0.1};
Point(p13 + 36) = {17.1720464713702, -2.879385194007086, 0.1};
Point(p13 + 37) = {17.21466315315568, -2.809841089935621, 0.1};
Point(p13 + 38) = {17.24587605815293, -2.734486471370199, 0.1};
Point(p13 + 39) = {17.26491662105122, -2.655176819107541, 0.1};
Spline(13) = {9, p13 + 1, p13 + 2, p13 + 3, p13 + 4, p13 + 5, p13 + 6, p13 + 7, p13 + 8, p13 + 9, p13 + 10, p13 + 11, p13 + 12, p13 + 13, p13 + 14, p13 + 15, p13 + 16, p13 + 17, p13 + 18, p13 + 19, p13 + 20, p13 + 21, p13 + 22, p13 + 23, p13 + 24, p13 + 25, p13 + 26, p13 + 27, p13 + 28, p13 + 29, p13 + 30, p13 + 31, p13 + 32, p13 + 33, p13 + 34, p13 + 35, p13 + 36, p13 + 37, p13 + 38, p13 + 39, 9};
Line(14) = {10, 9};
p15 = newp;
Point(p15 + 1) = {17.26491662105122, -2.492553180892459, 0};
Point(p15 + 2) = {17.24587605815293, -2.413243528629801, 0};
Point(p15 + 3) = {17.21466315315568, -2.337888910064379, 0};
Point(p15 + 4) = {17.1720464713702, -2.268344805992914, 0};
Point(p15 + 5) = {17.11907537693871, -2.206323623061294, 0};
Point(p15 + 6) = {17.05705419400709, -2.153352528629801, 0};
Point(p15 + 7) = {16.98751008993562, -2.110735846844322, 0};
Point(p15 + 8) = {16.9121554713702, -2.079522941847073, 0};
Point(p15 + 9) = {16.83284581910754, -2.060482378948778, 0};
Point(p15 + 10) = {16.751534, -2.054083, 0};
Point(p15 + 11) = {16.67022218089246, -2.060482378948779, 0};
Point(p15 + 12) = {16.5909125286298, -2.079522941847073, 0};
Point(p15 + 13) = {16.51555791006438, -2.110735846844322, 0};
Point(p15 + 14) = {16.44601380599291, -2.153352528629801, 0};
Point(p15 + 15) = {16.38399262306129, -2.206323623061294, 0};
Point(p15 + 16) = {16.3310215286298, -2.268344805992914, 0};
Point(p15 + 17) = {16.28840484684432, -2.337888910064379, 0};
Point(p15 + 18) = {16.25719194184707, -2.413243528629801, 0};
Point(p15 + 19) = {16.23815137894878, -2.492553180892459, 0};
Point(p15 + 20) = {16.231752, -2.573865, 0};
Point(p15 + 21) = {16.23815137894878, -2.655176819107541, 0};
Point(p15 + 22) = {16.25719194184707, -2.734486471370199, 0};
Point(p15 + 23) = {16.28840484684432, -2.809841089935621, 0};
Point(p15 + 24) = {16.3310215286298, -2.879385194007086, 0};
Point(p15 + 25) = {16.38399262306129, -2.941406376938706, 0};
Point(p15 + 26) = {16.44601380599291, -2.994377471370199, 0};
Point(p15 + 27) = {16.51555791006438, -3.036994153155678, 0};
Point(p15 + 28) = {16.5909125286298, -3.068207058152927, 0};
Point(p15 + 29) = {16.67022218089246, -3.087247621051222, 0};
Point(p15 + 30) = {16.751534, -3.093647, 0};
Point(p15 + 31) = {16.83284581910754, -3.087247621051222, 0};
Point(p15 + 32) = {16.9121554713702, -3.068207058152927, 0};
Point(p15 + 33) = {16.98751008993562, -3.036994153155678, 0};
Point(p15 + 34) = {17.05705419400709, -2.994377471370199, 0};
Point(p15 + 35) = {17.11907537693871, -2.941406376938706, 0};
Point(p15 + 36) = {17.1720464713702, -2.879385194007086, 0};
Point(p15 + 37) = {17.21466315315568, -2.809841089935621, 0};
Point(p15 + 38) = {17.24587605815293, -2.734486471370199, 0};
Point(p15 + 39) = {17.26491662105122, -2.655176819107541, 0};
Spline(15) = {10, p15 + 1, p15 + 2, p15 + 3, p15 + 4, p15 + 5, p15 + 6, p15 + 7, p15 + 8, p15 + 9, p15 + 10, p15 + 11, p15 + 12, p15 + 13, p15 + 14, p15 + 15, p15 + 16, p15 + 17, p15 + 18, p15 + 19, p15 + 20, p15 + 21, p15 + 22, p15 + 23, p15 + 24, p15 + 25, p15 + 26, p15 + 27, p15 + 28, p15 + 29, p15 + 30, p15 + 31, p15 + 32, p15 + 33, p15 + 34, p15 + 35, p15 + 36, p15 + 37, p15 + 38, p15 + 39, 10};
p16 = newp;
Point(p16 + 1) = {4.183198533710862, 1.174147877196547, 0.1};
Point(p16 + 2) = {4.153776621701425, 1.296698960525076, 0.1};
Point(p16 + 3) = {4.105545729091089, 1.413138635590309, 0.1};
Point(p16 + 4) = {4.039693460525076, 1.520599771151016, 0.1};
Point(p16 + 5) = {3.95784131740663, 1.61643631740663, 0.1};
Point(p16 + 6) = {3.862004771151017, 1.698288460525076, 0.1};
Point(p16 + 7) = {3.75454363559031, 1.764140729091089, 0.1};
Point(p16 + 8) = {3.638103960525076, 1.812371621701425, 0.1};
Point(p16 + 9) = {3.515552877196548, 1.841793533710862, 0.1};
Point(p16 + 10) = {3.389908, 1.851682, 0.1};
Point(p16 + 11) = {3.264263122803452, 1.841793533710862, 0.1};
Point(p16 + 12) = {3.141712039474924, 1.812371621701425, 0.1};
Point(p16 + 13) = {3.025272364409691, 1.764140729091089, 0.1};
Point(p16 + 14) = {2.917811228848984, 1.698288460525076, 0.1};
Point(p16 + 15) = {2.82197468259337, 1.61643631740663, 0.1};
Point(p16 + 16) = {2.740122539474924, 1.520599771151016, 0.1};
Point(p16 + 17) = {2.674270270908911, 1.413138635590309, 0.1};
Point(p16 + 18) = {2.626039378298575, 1.296698960525076, 0.1};
Point(p16 + 19) = {2.596617466289138, 1.174147877196548, 0.1};
Point(p16 + 20) = {2.586729, 1.048503, 0.1};
Point(p16 + 21) = {2.596617466289138, 0.9228581228034525, 0.1};
Point(p16 + 22) = {2.626039378298575, 0.8003070394749239, 0.1};
Point(p16 + 23) = {2.674270270908911, 0.6838673644096909, 0.1};
Point(p16 + 24) = {2.740122539474924, 0.5764062288489837, 0.1};
Point(p16 + 25) = {2.82197468259337, 0.48056968259337, 0.1};
Point(p16 + 26) = {2.917811228848984, 0.3987175394749242, 0.1};
Point(p16 + 27) = {3.025272364409691, 0.3328652709089109, 0.1};
Point(p16 + 28) = {3.141712039474924, 0.2846343782985749, 0.1};
Point(p16 + 29) = {3.264263122803452, 0.255212466289138, 0.1};
Point(p16 + 30) = {3.389908, 0.245324, 0.1};
Point(p16 + 31) = {3.515552877196547, 0.2552124662891379, 0.1};
Point(p16 + 32) = {3.638103960525076, 0.2846343782985747, 0.1};
Point(p16 + 33) = {3.754543635590309, 0.3328652709089107, 0.1};
Point(p16 + 34) = {3.862004771151016, 0.3987175394749239, 0.1};
Point(p16 + 35) = {3.95784131740663, 0.4805696825933699, 0.1};
Point(p16 + 36) = {4.039693460525076, 0.5764062288489836, 0.1};
Point(p16 + 37) = {4.105545729091089, 0.6838673644096904, 0.1};
Point(p16 + 38) = {4.153776621701425, 0.8003070394749239, 0.1};
Point(p16 + 39) = {4.183198533710862, 0.9228581228034521, 0.1};
Spline(16) = {11, p16 + 1, p16 + 2, p16 + 3, p16 + 4, p16 + 5, p16 + 6, p16 + 7, p16 + 8, p16 + 9, p16 + 10, p16 + 11, p16 + 12, p16 + 13, p16 + 14, p16 + 15, p16 + 16, p16 + 17, p16 + 18, p16 + 19, p16 + 20, p16 + 21, p16 + 22, p16 + 23, p16 + 24, p16 + 25, p16 + 26, p16 + 27, p16 + 28, p16 + 29, p16 + 30, p16 + 31, p16 + 32, p16 + 33, p16 + 34, p16 + 35, p16 + 36, p16 + 37, p16 + 38, p16 + 39, 11};
Line(17) = {12, 11};
p18 = newp;
Point(p18 + 1) = {4.183198533710862, 1.174147877196547, 0};
Point(p18 + 2) = {4.153776621701425, 1.296698960525076, 0};
Point(p18 + 3) = {4.105545729091089, 1.413138635590309, 0};
Point(p18 + 4) = {4.039693460525076, 1.520599771151016, 0};
Point(p18 + 5) = {3.95784131740663, 1.61643631740663, 0};
Point(p18 + 6) = {3.862004771151017, 1.698288460525076, 0};
Point(p18 + 7) = {3.75454363559031, 1.764140729091089, 0};
Point(p18 + 8) = {3.638103960525076, 1.812371621701425, 0};
Point(p18 + 9) = {3.515552877196548, 1.841793533710862, 0};
Point(p18 + 10) = {3.389908, 1.851682, 0};
Point(p18 + 11) = {3.264263122803452, 1.841793533710862, 0};
Point(p18 + 12) = {3.141712039474924, 1.812371621701425, 0};
Point(p18 + 13) = {3.025272364409691, 1.764140729091089, 0};
Point(p18 + 14) = {2.917811228848984, 1.698288460525076, 0};
Point(p18 + 15) = {2.82197468259337, 1.61643631740663, 0};
Point(p18 + 16) = {2.740122539474924, 1.520599771151016, 0};
Point(p18 + 17) = {2.674270270908911, 1.413138635590309, 0};
Point(p18 + 18) = {2.626039378298575, 1.296698960525076, 0};
Point(p18 + 19) = {2.596617466289138, 1.174147877196548, 0};
Point(p18 + 20) = {2.586729, 1.048503, 0};
Point(p18 + 21) = {2.596617466289138, 0.9228581228034525, 0};
Point(p18 + 22) = {2.626039378298575, 0.8003070394749239, 0};
Point(p18 + 23) = {2.674270270908911, 0.6838673644096909, 0};
Point(p18 + 24) = {2.740122539474924, 0.5764062288489837, 0};
Point(p18 + 25) = {2.82197468259337, 0.48056968259337, 0};
Point(p18 + 26) = {2.917811228848984, 0.3987175394749242, 0};
Point(p18 + 27) = {3.025272364409691, 0.3328652709089109, 0};
Point(p18 + 28) = {3.141712039474924, 0.2846343782985749, 0};
Point(p18 + 29) = {3.264263122803452, 0.255212466289138, 0};
Point(p18 + 30) = {3.389908, 0.245324, 0};
Point(p18 + 31) = {3.515552877196547, 0.2552124662891379, 0};
Point(p18 + 32) = {3.638103960525076, 0.2846343782985747, 0};
Point(p18 + 33) = {3.754543635590309, 0.3328652709089107, 0};
Point(p18 + 34) = {3.862004771151016, 0.3987175394749239, 0};
Point(p18 + 35) = {3.95784131740663, 0.4805696825933699, 0};
Point(p18 + 36) = {4.039693460525076, 0.5764062288489836, 0};
Point(p18 + 37) = {4.105545729091089, 0.6838673644096904, 0};
Point(p18 + 38) = {4.153776621701425, 0.8003070394749239, 0};
Point(p18 + 39) = {4.183198533710862, 0.9228581228034521, 0};
Spline(18) = {12, p18 + 1, p18 + 2, p18 + 3, p18 + 4, p18 + 5, p18 + 6, p18 + 7, p18 + 8, p18 + 9, p18 + 10, p18 + 11, p18 + 12, p18 + 13, p18 + 14, p18 + 15, p18 + 16, p18 + 17, p18 + 18, p18 + 19, p18 + 20, p18 + 21, p18 + 22, p18 + 23, p18 + 24, p18 + 25, p18 + 26, p18 + 27, p18 + 28, p18 + 29, p18 + 30, p18 + 31, p18 + 32, p18 + 33, p18 + 34, p18 + 35, p18 + 36, p18 + 37, p18 + 38, p18 + 39, 12};
Line(19) = {14, 13};
Line(20) = {13, 15};
Line(21) = {16, 15};
Line(22) = {14, 16};
Line(23) = {14, 17};
Line(24) = {17, 18};
Line(25) = {13, 18};
Line(26) = {15, 19};
Line(27) = {18, 19};
Line(28) = {16, 20};
Line(29) = {20, 19};
Line(30) = {17, 20};
Curve Loop(7) = {-13, -14, 15, 14};
Surface(7) = {7};
Curve Loop(8) = {13};
Plane Surface(8) = {8};
Curve Loop(9) = {15};
Plane Surface(9) = {9};
Curve Loop(10) = {-16, -17, 18, 17};
Surface(10) = {10};
Curve Loop(11) = {16};
Plane Surface(11) = {11};
Curve Loop(12) = {18};
Plane Surface(12) = {12};
Curve Loop(13) = {-19, 22, 21, -20};
Plane Surface(13) = {13};
Curve Loop(14) = {-23, 19, 25, -24};
Plane Surface(14) = {14};
Curve Loop(15) = {-20, 25, 27, -26};
Plane Surface(15) = {15};
Curve Loop(16) = {-28, 21, 26, -29};
Plane Surface(16) = {16};
Curve Loop(17) = {-22, 23, 30, -28, -15, -18};
Plane Surface(17) = {17};
Curve Loop(18) = {-24, 30, 29, -27};
Plane Surface(18) = {18};
Surface Loop(1) = {13, 14, 15, 16, 17, 18, 7, 10, 8, 11};
Volume(1) = {1};
Surface Loop(2) = {7, 8, 9};
Volume(2) = {2};
Surface Loop(3) = {10, 11, 12};
Volume(3) = {3};
Physical Surface("WALLS") = {13, 18};
Physical Surface("LOAD") = {8, 11};
Physical Surface("BORDER") = {7, 9, 10, 12, 14, 15, 16, 17};
Physical Volume("SOLID") = {1, 2, 3};
