cl__1 = 0.13294;
cl__2 = 0.107735;
cl__3 = 0.941404;
cl__4 = 0.953546;
cl__5 = 1.435463;
cl__6 = 0.976994;
Point(9) = {14.715244, 0.5169089999999997, 0.1, cl__1};
Point(10) = {14.715244, 0.5169089999999997, 0, cl__1};
Point(11) = {22.949621, 3.592757999999999, 0.1, cl__2};
Point(12) = {22.949621, 3.592757999999999, 0, cl__2};
Point(13) = {0.807128, -4.236663, 1, cl__3};
Point(14) = {0.807128, -4.236663, 0, cl__3};
Point(15) = {0.807128, 5.696126, 1, cl__4};
Point(16) = {0.807128, 5.696126, 0, cl__4};
Point(17) = {35.362281, -4.236663, 0, cl__5};
Point(18) = {35.362281, -4.236663, 1, cl__5};
Point(19) = {35.362281, 5.696126, 1, cl__6};
Point(20) = {35.362281, 5.696126, 0, cl__6};
p13 = newp;
Point(p13 + 1) = {14.69887681842888, 0.724873759996808, 0.1};
Point(p13 + 2) = {14.65017828804536, 0.9277177374070269, 0.1};
Point(p13 + 3) = {14.57034752828864, 1.120446240306252, 0.1};
Point(p13 + 4) = {14.46135023740703, 1.298313653323875, 0.1};
Point(p13 + 5) = {14.3258702904433, 1.456940290443302, 0.1};
Point(p13 + 6) = {14.16724365332388, 1.592420237407027, 0.1};
Point(p13 + 7) = {13.98937624030625, 1.701417528288637, 0.1};
Point(p13 + 8) = {13.79664773740703, 1.781248288045358, 0.1};
Point(p13 + 9) = {13.59380375999681, 1.829946818428879, 0.1};
Point(p13 + 10) = {13.385839, 1.846314, 0.1};
Point(p13 + 11) = {13.17787424000319, 1.829946818428879, 0.1};
Point(p13 + 12) = {12.97503026259297, 1.781248288045359, 0.1};
Point(p13 + 13) = {12.78230175969375, 1.701417528288637, 0.1};
Point(p13 + 14) = {12.60443434667613, 1.592420237407027, 0.1};
Point(p13 + 15) = {12.4458077095567, 1.456940290443302, 0.1};
Point(p13 + 16) = {12.31032776259297, 1.298313653323875, 0.1};
Point(p13 + 17) = {12.20133047171136, 1.120446240306252, 0.1};
Point(p13 + 18) = {12.12149971195464, 0.927717737407027, 0.1};
Point(p13 + 19) = {12.07280118157112, 0.7248737599968083, 0.1};
Point(p13 + 20) = {12.056434, 0.5169090000000001, 0.1};
Point(p13 + 21) = {12.07280118157112, 0.308944240003192, 0.1};
Point(p13 + 22) = {12.12149971195464, 0.1061002625929726, 0.1};
Point(p13 + 23) = {12.20133047171136, -0.0866282403062516, 0.1};
Point(p13 + 24) = {12.31032776259297, -0.2644956533238751, 0.1};
Point(p13 + 25) = {12.4458077095567, -0.4231222904433022, 0.1};
Point(p13 + 26) = {12.60443434667613, -0.5586022374070269, 0.1};
Point(p13 + 27) = {12.78230175969375, -0.667599528288637, 0.1};
Point(p13 + 28) = {12.97503026259297, -0.7474302880453586, 0.1};
Point(p13 + 29) = {13.17787424000319, -0.7961288184288789, 0.1};
Point(p13 + 30) = {13.385839, -0.812496, 0.1};
Point(p13 + 31) = {13.59380375999681, -0.7961288184288792, 0.1};
Point(p13 + 32) = {13.79664773740703, -0.7474302880453588, 0.1};
Point(p13 + 33) = {13.98937624030625, -0.6675995282886374, 0.1};
Point(p13 + 34) = {14.16724365332388, -0.5586022374070271, 0.1};
Point(p13 + 35) = {14.3258702904433, -0.4231222904433024, 0.1};
Point(p13 + 36) = {14.46135023740703, -0.2644956533238754, 0.1};
Point(p13 + 37) = {14.57034752828864, -0.08662824030625249, 0.1};
Point(p13 + 38) = {14.65017828804536, 0.1061002625929727, 0.1};
Point(p13 + 39) = {14.69887681842888, 0.3089442400031915, 0.1};
Spline(13) = {9, p13 + 1, p13 + 2, p13 + 3, p13 + 4, p13 + 5, p13 + 6, p13 + 7, p13 + 8, p13 + 9, p13 + 10, p13 + 11, p13 + 12, p13 + 13, p13 + 14, p13 + 15, p13 + 16, p13 + 17, p13 + 18, p13 + 19, p13 + 20, p13 + 21, p13 + 22, p13 + 23, p13 + 24, p13 + 25, p13 + 26, p13 + 27, p13 + 28, p13 + 29, p13 + 30, p13 + 31, p13 + 32, p13 + 33, p13 + 34, p13 + 35, p13 + 36, p13 + 37, p13 + 38, p13 + 39, 9};
Line(14) = {10, 9};
p15 = newp;
Point(p15 + 1) = {14.69887681842888, 0.724873759996808, 0};
Point(p15 + 2) = {14.65017828804536, 0.9277177374070269, 0};
Point(p15 + 3) = {14.57034752828864, 1.120446240306252, 0};
Point(p15 + 4) = {14.46135023740703, 1.298313653323875, 0};
Point(p15 + 5) = {14.3258702904433, 1.456940290443302, 0};
Point(p15 + 6) = {14.16724365332388, 1.592420237407027, 0};
Point(p15 + 7) = {13.98937624030625, 1.701417528288637, 0};
Point(p15 + 8) = {13.79664773740703, 1.781248288045358, 0};
Point(p15 + 9) = {13.59380375999681, 1.829946818428879, 0};
Point(p15 + 10) = {13.385839, 1.846314, 0};
Point(p15 + 11) = {13.17787424000319, 1.829946818428879, 0};
Point(p15 + 12) = {12.97503026259297, 1.781248288045359, 0};
Point(p15 + 13) = {12.78230175969375, 1.701417528288637, 0};
Point(p15 + 14) = {12.60443434667613, 1.592420237407027, 0};
Point(p15 + 15) = {12.4458077095567, 1.456940290443302, 0};
Point(p15 + 16) = {12.31032776259297, 1.298313653323875, 0};
Point(p15 + 17) = {12.20133047171136, 1.120446240306252, 0};
Point(p15 + 18) = {12.12149971195464, 0.927717737407027, 0};
Point(p15 + 19) = {12.07280118157112, 0.7248737599968083, 0};
Point(p15 + 20) = {12.056434, 0.5169090000000001, 0};
Point(p15 + 21) = {12.07280118157112, 0.308944240003192, 0};
Point(p15 + 22) = {12.12149971195464, 0.1061002625929726, 0};
Point(p15 + 23) = {12.20133047171136, -0.0866282403062516, 0};
Point(p15 + 24) = {12.31032776259297, -0.2644956533238751, 0};
Point(p15 + 25) = {12.4458077095567, -0.4231222904433022, 0};
Point(p15 + 26) = {12.60443434667613, -0.5586022374070269, 0};
Point(p15 + 27) = {12.78230175969375, -0.667599528288637, 0};
Point(p15 + 28) = {12.97503026259297, -0.7474302880453586, 0};
Point(p15 + 29) = {13.17787424000319, -0.7961288184288789, 0};
Point(p15 + 30) = {13.385839, -0.812496, 0};
Point(p15 + 31) = {13.59380375999681, -0.7961288184288792, 0};
Point(p15 + 32) = {13.79664773740703, -0.7474302880453588, 0};
Point(p15 + 33) = {13.98937624030625, -0.6675995282886374, 0};
Point(p15 + 34) = {14.16724365332388, -0.5586022374070271, 0};
Point(p15 + 35) = {14.3258702904433, -0.4231222904433024, 0};
Point(p15 + 36) = {14.46135023740703, -0.2644956533238754, 0};
Point(p15 + 37) = {14.57034752828864, -0.08662824030625249, 0};
Point(p15 + 38) = {14.65017828804536, 0.1061002625929727, 0};
Point(p15 + 39) = {14.69887681842888, 0.3089442400031915, 0};
Spline(15) = {10, p15 + 1, p15 + 2, p15 + 3, p15 + 4, p15 + 5, p15 + 6, p15 + 7, p15 + 8, p15 + 9, p15 + 10, p15 + 11, p15 + 12, p15 + 13, p15 + 14, p15 + 15, p15 + 16, p15 + 17, p15 + 18, p15 + 19, p15 + 20, p15 + 21, p15 + 22, p15 + 23, p15 + 24, p15 + 25, p15 + 26, p15 + 27, p15 + 28, p15 + 29, p15 + 30, p15 + 31, p15 + 32, p15 + 33, p15 + 34, p15 + 35, p15 + 36, p15 + 37, p15 + 38, p15 + 39, 10};
p16 = newp;
Point(p16 + 1) = {22.93635700911685, 3.761292983780023, 0.1};
Point(p16 + 2) = {22.89689163994361, 3.925678076923838, 0.1};
Point(p16 + 3) = {22.83219666084739, 4.0818655728754, 0.1};
Point(p16 + 4) = {22.74386507692384, 4.226009617127801, 0.1};
Point(p16 + 5) = {22.63407190492489, 4.354560904924889, 0.1};
Point(p16 + 6) = {22.5055206171278, 4.464354076923838, 0.1};
Point(p16 + 7) = {22.3613765728754, 4.552685660847386, 0.1};
Point(p16 + 8) = {22.20518907692384, 4.617380639943616, 0.1};
Point(p16 + 9) = {22.04080398378002, 4.656846009116853, 0.1};
Point(p16 + 10) = {21.872269, 4.67011, 0.1};
Point(p16 + 11) = {21.70373401621998, 4.656846009116853, 0.1};
Point(p16 + 12) = {21.53934892307616, 4.617380639943616, 0.1};
Point(p16 + 13) = {21.3831614271246, 4.552685660847386, 0.1};
Point(p16 + 14) = {21.2390173828722, 4.464354076923838, 0.1};
Point(p16 + 15) = {21.11046609507511, 4.354560904924889, 0.1};
Point(p16 + 16) = {21.00067292307616, 4.226009617127801, 0.1};
Point(p16 + 17) = {20.91234133915261, 4.0818655728754, 0.1};
Point(p16 + 18) = {20.84764636005638, 3.925678076923838, 0.1};
Point(p16 + 19) = {20.80818099088315, 3.761292983780023, 0.1};
Point(p16 + 20) = {20.794917, 3.592758, 0.1};
Point(p16 + 21) = {20.80818099088314, 3.424223016219977, 0.1};
Point(p16 + 22) = {20.84764636005638, 3.259837923076161, 0.1};
Point(p16 + 23) = {20.91234133915261, 3.1036504271246, 0.1};
Point(p16 + 24) = {21.00067292307616, 2.959506382872199, 0.1};
Point(p16 + 25) = {21.11046609507511, 2.830955095075111, 0.1};
Point(p16 + 26) = {21.2390173828722, 2.721161923076162, 0.1};
Point(p16 + 27) = {21.3831614271246, 2.632830339152613, 0.1};
Point(p16 + 28) = {21.53934892307616, 2.568135360056384, 0.1};
Point(p16 + 29) = {21.70373401621998, 2.528669990883147, 0.1};
Point(p16 + 30) = {21.872269, 2.515406, 0.1};
Point(p16 + 31) = {22.04080398378002, 2.528669990883147, 0.1};
Point(p16 + 32) = {22.20518907692384, 2.568135360056384, 0.1};
Point(p16 + 33) = {22.3613765728754, 2.632830339152613, 0.1};
Point(p16 + 34) = {22.5055206171278, 2.721161923076161, 0.1};
Point(p16 + 35) = {22.63407190492489, 2.83095509507511, 0.1};
Point(p16 + 36) = {22.74386507692384, 2.959506382872199, 0.1};
Point(p16 + 37) = {22.83219666084739, 3.103650427124599, 0.1};
Point(p16 + 38) = {22.89689163994361, 3.259837923076161, 0.1};
Point(p16 + 39) = {22.93635700911685, 3.424223016219977, 0.1};
Spline(16) = {11, p16 + 1, p16 + 2, p16 + 3, p16 + 4, p16 + 5, p16 + 6, p16 + 7, p16 + 8, p16 + 9, p16 + 10, p16 + 11, p16 + 12, p16 + 13, p16 + 14, p16 + 15, p16 + 16, p16 + 17, p16 + 18, p16 + 19, p16 + 20, p16 + 21, p16 + 22, p16 + 23, p16 + 24, p16 + 25, p16 + 26, p16 + 27, p16 + 28, p16 + 29, p16 + 30, p16 + 31, p16 + 32, p16 + 33, p16 + 34, p16 + 35, p16 + 36, p16 + 37, p16 + 38, p16 + 39, 11};
Line(17) = {12, 11};
p18 = newp;
Point(p18 + 1) = {22.93635700911685, 3.761292983780023, 0};
Point(p18 + 2) = {22.89689163994361, 3.925678076923838, 0};
Point(p18 + 3) = {22.83219666084739, 4.0818655728754, 0};
Point(p18 + 4) = {22.74386507692384, 4.226009617127801, 0};
Point(p18 + 5) = {22.63407190492489, 4.354560904924889, 0};
Point(p18 + 6) = {22.5055206171278, 4.464354076923838, 0};
Point(p18 + 7) = {22.3613765728754, 4.552685660847386, 0};
Point(p18 + 8) = {22.20518907692384, 4.617380639943616, 0};
Point(p18 + 9) = {22.04080398378002, 4.656846009116853, 0};
Point(p18 + 10) = {21.872269, 4.67011, 0};
Point(p18 + 11) = {21.70373401621998, 4.656846009116853, 0};
Point(p18 + 12) = {21.53934892307616, 4.617380639943616, 0};
Point(p18 + 13) = {21.3831614271246, 4.552685660847386, 0};
Point(p18 + 14) = {21.2390173828722, 4.464354076923838, 0};
Point(p18 + 15) = {21.11046609507511, 4.354560904924889, 0};
Point(p18 + 16) = {21.00067292307616, 4.226009617127801, 0};
Point(p18 + 17) = {20.91234133915261, 4.0818655728754, 0};
Point(p18 + 18) = {20.84764636005638, 3.925678076923838, 0};
Point(p18 + 19) = {20.80818099088315, 3.761292983780023, 0};
Point(p18 + 20) = {20.794917, 3.592758, 0};
Point(p18 + 21) = {20.80818099088314, 3.424223016219977, 0};
Point(p18 + 22) = {20.84764636005638, 3.259837923076161, 0};
Point(p18 + 23) = {20.91234133915261, 3.1036504271246, 0};
Point(p18 + 24) = {21.00067292307616, 2.959506382872199, 0};
Point(p18 + 25) = {21.11046609507511, 2.830955095075111, 0};
Point(p18 + 26) = {21.2390173828722, 2.721161923076162, 0};
Point(p18 + 27) = {21.3831614271246, 2.632830339152613, 0};
Point(p18 + 28) = {21.53934892307616, 2.568135360056384, 0};
Point(p18 + 29) = {21.70373401621998, 2.528669990883147, 0};
Point(p18 + 30) = {21.872269, 2.515406, 0};
Point(p18 + 31) = {22.04080398378002, 2.528669990883147, 0};
Point(p18 + 32) = {22.20518907692384, 2.568135360056384, 0};
Point(p18 + 33) = {22.3613765728754, 2.632830339152613, 0};
Point(p18 + 34) = {22.5055206171278, 2.721161923076161, 0};
Point(p18 + 35) = {22.63407190492489, 2.83095509507511, 0};
Point(p18 + 36) = {22.74386507692384, 2.959506382872199, 0};
Point(p18 + 37) = {22.83219666084739, 3.103650427124599, 0};
Point(p18 + 38) = {22.89689163994361, 3.259837923076161, 0};
Point(p18 + 39) = {22.93635700911685, 3.424223016219977, 0};
Spline(18) = {12, p18 + 1, p18 + 2, p18 + 3, p18 + 4, p18 + 5, p18 + 6, p18 + 7, p18 + 8, p18 + 9, p18 + 10, p18 + 11, p18 + 12, p18 + 13, p18 + 14, p18 + 15, p18 + 16, p18 + 17, p18 + 18, p18 + 19, p18 + 20, p18 + 21, p18 + 22, p18 + 23, p18 + 24, p18 + 25, p18 + 26, p18 + 27, p18 + 28, p18 + 29, p18 + 30, p18 + 31, p18 + 32, p18 + 33, p18 + 34, p18 + 35, p18 + 36, p18 + 37, p18 + 38, p18 + 39, 12};
Line(19) = {14, 13};
Line(20) = {13, 15};
Line(21) = {16, 15};
Line(22) = {14, 16};
Line(23) = {14, 17};
Line(24) = {17, 18};
Line(25) = {13, 18};
Line(26) = {15, 19};
Line(27) = {18, 19};
Line(28) = {16, 20};
Line(29) = {20, 19};
Line(30) = {17, 20};
Curve Loop(7) = {-13, -14, 15, 14};
Surface(7) = {7};
Curve Loop(8) = {13};
Plane Surface(8) = {8};
Curve Loop(9) = {15};
Plane Surface(9) = {9};
Curve Loop(10) = {-16, -17, 18, 17};
Surface(10) = {10};
Curve Loop(11) = {16};
Plane Surface(11) = {11};
Curve Loop(12) = {18};
Plane Surface(12) = {12};
Curve Loop(13) = {-19, 22, 21, -20};
Plane Surface(13) = {13};
Curve Loop(14) = {-23, 19, 25, -24};
Plane Surface(14) = {14};
Curve Loop(15) = {-20, 25, 27, -26};
Plane Surface(15) = {15};
Curve Loop(16) = {-28, 21, 26, -29};
Plane Surface(16) = {16};
Curve Loop(17) = {-22, 23, 30, -28, -15, -18};
Plane Surface(17) = {17};
Curve Loop(18) = {-24, 30, 29, -27};
Plane Surface(18) = {18};
Surface Loop(1) = {13, 14, 15, 16, 17, 18, 7, 10, 8, 11};
Volume(1) = {1};
Surface Loop(2) = {7, 8, 9};
Volume(2) = {2};
Surface Loop(3) = {10, 11, 12};
Volume(3) = {3};
Physical Surface("WALLS") = {13, 18};
Physical Surface("LOAD") = {8, 11};
Physical Surface("BORDER") = {7, 9, 10, 12, 14, 15, 16, 17};
Physical Volume("SOLID") = {1, 2, 3};
