cl__1 = 0.058501;
cl__2 = 0.109056;
cl__3 = 0.322956;
cl__4 = 0.454202;
cl__5 = 4.275697;
cl__6 = 4.094296;
Point(9) = {16.701747, 1.26018, 0.1, cl__1};
Point(10) = {16.701747, 1.26018, 0, cl__1};
Point(11) = {6.365238, -0.7898620000000002, 0.1, cl__2};
Point(12) = {6.365238, -0.7898620000000002, 0, cl__2};
Point(13) = {0.841058, -3.498445, 1, cl__3};
Point(14) = {0.841058, -3.498445, 0, cl__3};
Point(15) = {0.841058, 4.449797999999999, 1, cl__4};
Point(16) = {0.841058, 4.449797999999999, 0, cl__4};
Point(17) = {36.79131099999999, -3.498445, 0, cl__5};
Point(18) = {36.79131099999999, -3.498445, 1, cl__5};
Point(19) = {36.79131099999999, 4.449797999999999, 1, cl__6};
Point(20) = {36.79131099999999, 4.449797999999999, 0, cl__6};
p13 = newp;
Point(p13 + 1) = {16.6945446053782, 1.351695100655325, 0.1};
Point(p13 + 2) = {16.67311476837176, 1.440956795811311, 0.1};
Point(p13 + 3) = {16.63798516268934, 1.525767166290633, 0.1};
Point(p13 + 4) = {16.59002079581131, 1.604037899302611, 0.1};
Point(p13 + 5) = {16.53040270963482, 1.673841709634817, 0.1};
Point(p13 + 6) = {16.46059889930261, 1.73345979581131, 0.1};
Point(p13 + 7) = {16.38232816629063, 1.78142416268934, 0.1};
Point(p13 + 8) = {16.29751779581131, 1.816553768371763, 0.1};
Point(p13 + 9) = {16.20825610065533, 1.837983605378199, 0.1};
Point(p13 + 10) = {16.116741, 1.845186, 0.1};
Point(p13 + 11) = {16.02522589934468, 1.837983605378199, 0.1};
Point(p13 + 12) = {15.93596420418869, 1.816553768371763, 0.1};
Point(p13 + 13) = {15.85115383370937, 1.781424162689341, 0.1};
Point(p13 + 14) = {15.77288310069739, 1.73345979581131, 0.1};
Point(p13 + 15) = {15.70307929036518, 1.673841709634817, 0.1};
Point(p13 + 16) = {15.64346120418869, 1.604037899302611, 0.1};
Point(p13 + 17) = {15.59549683731066, 1.525767166290633, 0.1};
Point(p13 + 18) = {15.56036723162824, 1.440956795811311, 0.1};
Point(p13 + 19) = {15.5389373946218, 1.351695100655325, 0.1};
Point(p13 + 20) = {15.531735, 1.26018, 0.1};
Point(p13 + 21) = {15.5389373946218, 1.168664899344675, 0.1};
Point(p13 + 22) = {15.56036723162824, 1.079403204188689, 0.1};
Point(p13 + 23) = {15.59549683731066, 0.994592833709367, 0.1};
Point(p13 + 24) = {15.64346120418869, 0.9163221006973896, 0.1};
Point(p13 + 25) = {15.70307929036518, 0.8465182903651827, 0.1};
Point(p13 + 26) = {15.77288310069739, 0.7869002041886897, 0.1};
Point(p13 + 27) = {15.85115383370937, 0.7389358373106598, 0.1};
Point(p13 + 28) = {15.93596420418869, 0.7038062316282375, 0.1};
Point(p13 + 29) = {16.02522589934468, 0.682376394621801, 0.1};
Point(p13 + 30) = {16.116741, 0.6751740000000001, 0.1};
Point(p13 + 31) = {16.20825610065533, 0.6823763946218009, 0.1};
Point(p13 + 32) = {16.29751779581131, 0.7038062316282374, 0.1};
Point(p13 + 33) = {16.38232816629063, 0.7389358373106596, 0.1};
Point(p13 + 34) = {16.46059889930261, 0.7869002041886894, 0.1};
Point(p13 + 35) = {16.53040270963482, 0.8465182903651826, 0.1};
Point(p13 + 36) = {16.59002079581131, 0.9163221006973894, 0.1};
Point(p13 + 37) = {16.63798516268934, 0.9945928337093666, 0.1};
Point(p13 + 38) = {16.67311476837176, 1.079403204188689, 0.1};
Point(p13 + 39) = {16.6945446053782, 1.168664899344675, 0.1};
Spline(13) = {9, p13 + 1, p13 + 2, p13 + 3, p13 + 4, p13 + 5, p13 + 6, p13 + 7, p13 + 8, p13 + 9, p13 + 10, p13 + 11, p13 + 12, p13 + 13, p13 + 14, p13 + 15, p13 + 16, p13 + 17, p13 + 18, p13 + 19, p13 + 20, p13 + 21, p13 + 22, p13 + 23, p13 + 24, p13 + 25, p13 + 26, p13 + 27, p13 + 28, p13 + 29, p13 + 30, p13 + 31, p13 + 32, p13 + 33, p13 + 34, p13 + 35, p13 + 36, p13 + 37, p13 + 38, p13 + 39, 9};
Line(14) = {10, 9};
p15 = newp;
Point(p15 + 1) = {16.6945446053782, 1.351695100655325, 0};
Point(p15 + 2) = {16.67311476837176, 1.440956795811311, 0};
Point(p15 + 3) = {16.63798516268934, 1.525767166290633, 0};
Point(p15 + 4) = {16.59002079581131, 1.604037899302611, 0};
Point(p15 + 5) = {16.53040270963482, 1.673841709634817, 0};
Point(p15 + 6) = {16.46059889930261, 1.73345979581131, 0};
Point(p15 + 7) = {16.38232816629063, 1.78142416268934, 0};
Point(p15 + 8) = {16.29751779581131, 1.816553768371763, 0};
Point(p15 + 9) = {16.20825610065533, 1.837983605378199, 0};
Point(p15 + 10) = {16.116741, 1.845186, 0};
Point(p15 + 11) = {16.02522589934468, 1.837983605378199, 0};
Point(p15 + 12) = {15.93596420418869, 1.816553768371763, 0};
Point(p15 + 13) = {15.85115383370937, 1.781424162689341, 0};
Point(p15 + 14) = {15.77288310069739, 1.73345979581131, 0};
Point(p15 + 15) = {15.70307929036518, 1.673841709634817, 0};
Point(p15 + 16) = {15.64346120418869, 1.604037899302611, 0};
Point(p15 + 17) = {15.59549683731066, 1.525767166290633, 0};
Point(p15 + 18) = {15.56036723162824, 1.440956795811311, 0};
Point(p15 + 19) = {15.5389373946218, 1.351695100655325, 0};
Point(p15 + 20) = {15.531735, 1.26018, 0};
Point(p15 + 21) = {15.5389373946218, 1.168664899344675, 0};
Point(p15 + 22) = {15.56036723162824, 1.079403204188689, 0};
Point(p15 + 23) = {15.59549683731066, 0.994592833709367, 0};
Point(p15 + 24) = {15.64346120418869, 0.9163221006973896, 0};
Point(p15 + 25) = {15.70307929036518, 0.8465182903651827, 0};
Point(p15 + 26) = {15.77288310069739, 0.7869002041886897, 0};
Point(p15 + 27) = {15.85115383370937, 0.7389358373106598, 0};
Point(p15 + 28) = {15.93596420418869, 0.7038062316282375, 0};
Point(p15 + 29) = {16.02522589934468, 0.682376394621801, 0};
Point(p15 + 30) = {16.116741, 0.6751740000000001, 0};
Point(p15 + 31) = {16.20825610065533, 0.6823763946218009, 0};
Point(p15 + 32) = {16.29751779581131, 0.7038062316282374, 0};
Point(p15 + 33) = {16.38232816629063, 0.7389358373106596, 0};
Point(p15 + 34) = {16.46059889930261, 0.7869002041886894, 0};
Point(p15 + 35) = {16.53040270963482, 0.8465182903651826, 0};
Point(p15 + 36) = {16.59002079581131, 0.9163221006973894, 0};
Point(p15 + 37) = {16.63798516268934, 0.9945928337093666, 0};
Point(p15 + 38) = {16.67311476837176, 1.079403204188689, 0};
Point(p15 + 39) = {16.6945446053782, 1.168664899344675, 0};
Spline(15) = {10, p15 + 1, p15 + 2, p15 + 3, p15 + 4, p15 + 5, p15 + 6, p15 + 7, p15 + 8, p15 + 9, p15 + 10, p15 + 11, p15 + 12, p15 + 13, p15 + 14, p15 + 15, p15 + 16, p15 + 17, p15 + 18, p15 + 19, p15 + 20, p15 + 21, p15 + 22, p15 + 23, p15 + 24, p15 + 25, p15 + 26, p15 + 27, p15 + 28, p15 + 29, p15 + 30, p15 + 31, p15 + 32, p15 + 33, p15 + 34, p15 + 35, p15 + 36, p15 + 37, p15 + 38, p15 + 39, 10};
p16 = newp;
Point(p16 + 1) = {6.351811433654412, -0.6192612991091209, 0.1};
Point(p16 + 2) = {6.311862341241294, -0.4528613536654404, 0.1};
Point(p16 + 3) = {6.246374401999294, -0.2947594825755391, 0.1};
Point(p16 + 4) = {6.15696014633456, -0.1488486786156773, 0.1};
Point(p16 + 5) = {6.045821249970458, -0.01872175002954235, 0.1};
Point(p16 + 6) = {5.915694321384323, 0.09241714633455944, 0.1};
Point(p16 + 7) = {5.769783517424461, 0.1818314019992938, 0.1};
Point(p16 + 8) = {5.61168164633456, 0.2473193412412938, 0.1};
Point(p16 + 9) = {5.445281700890879, 0.2872684336544117, 0.1};
Point(p16 + 10) = {5.274681, 0.300695, 0.1};
Point(p16 + 11) = {5.104080299109121, 0.2872684336544117, 0.1};
Point(p16 + 12) = {4.93768035366544, 0.2473193412412938, 0.1};
Point(p16 + 13) = {4.779578482575539, 0.1818314019992939, 0.1};
Point(p16 + 14) = {4.633667678615677, 0.09241714633455966, 0.1};
Point(p16 + 15) = {4.503540750029543, -0.01872175002954224, 0.1};
Point(p16 + 16) = {4.392401853665441, -0.1488486786156772, 0.1};
Point(p16 + 17) = {4.302987598000707, -0.294759482575539, 0.1};
Point(p16 + 18) = {4.237499658758706, -0.4528613536654403, 0.1};
Point(p16 + 19) = {4.197550566345589, -0.6192612991091208, 0.1};
Point(p16 + 20) = {4.184124000000001, -0.7898619999999998, 0.1};
Point(p16 + 21) = {4.197550566345589, -0.9604627008908789, 0.1};
Point(p16 + 22) = {4.237499658758707, -1.12686264633456, 0.1};
Point(p16 + 23) = {4.302987598000706, -1.28496451742446, 0.1};
Point(p16 + 24) = {4.39240185366544, -1.430875321384323, 0.1};
Point(p16 + 25) = {4.503540750029543, -1.561002249970457, 0.1};
Point(p16 + 26) = {4.633667678615677, -1.672141146334559, 0.1};
Point(p16 + 27) = {4.779578482575539, -1.761555401999294, 0.1};
Point(p16 + 28) = {4.93768035366544, -1.827043341241294, 0.1};
Point(p16 + 29) = {5.104080299109121, -1.866992433654412, 0.1};
Point(p16 + 30) = {5.274681, -1.880419, 0.1};
Point(p16 + 31) = {5.445281700890879, -1.866992433654412, 0.1};
Point(p16 + 32) = {5.611681646334559, -1.827043341241294, 0.1};
Point(p16 + 33) = {5.769783517424461, -1.761555401999294, 0.1};
Point(p16 + 34) = {5.915694321384323, -1.67214114633456, 0.1};
Point(p16 + 35) = {6.045821249970458, -1.561002249970458, 0.1};
Point(p16 + 36) = {6.156960146334559, -1.430875321384323, 0.1};
Point(p16 + 37) = {6.246374401999294, -1.284964517424461, 0.1};
Point(p16 + 38) = {6.311862341241294, -1.12686264633456, 0.1};
Point(p16 + 39) = {6.351811433654412, -0.9604627008908793, 0.1};
Spline(16) = {11, p16 + 1, p16 + 2, p16 + 3, p16 + 4, p16 + 5, p16 + 6, p16 + 7, p16 + 8, p16 + 9, p16 + 10, p16 + 11, p16 + 12, p16 + 13, p16 + 14, p16 + 15, p16 + 16, p16 + 17, p16 + 18, p16 + 19, p16 + 20, p16 + 21, p16 + 22, p16 + 23, p16 + 24, p16 + 25, p16 + 26, p16 + 27, p16 + 28, p16 + 29, p16 + 30, p16 + 31, p16 + 32, p16 + 33, p16 + 34, p16 + 35, p16 + 36, p16 + 37, p16 + 38, p16 + 39, 11};
Line(17) = {12, 11};
p18 = newp;
Point(p18 + 1) = {6.351811433654412, -0.6192612991091209, 0};
Point(p18 + 2) = {6.311862341241294, -0.4528613536654404, 0};
Point(p18 + 3) = {6.246374401999294, -0.2947594825755391, 0};
Point(p18 + 4) = {6.15696014633456, -0.1488486786156773, 0};
Point(p18 + 5) = {6.045821249970458, -0.01872175002954235, 0};
Point(p18 + 6) = {5.915694321384323, 0.09241714633455944, 0};
Point(p18 + 7) = {5.769783517424461, 0.1818314019992938, 0};
Point(p18 + 8) = {5.61168164633456, 0.2473193412412938, 0};
Point(p18 + 9) = {5.445281700890879, 0.2872684336544117, 0};
Point(p18 + 10) = {5.274681, 0.300695, 0};
Point(p18 + 11) = {5.104080299109121, 0.2872684336544117, 0};
Point(p18 + 12) = {4.93768035366544, 0.2473193412412938, 0};
Point(p18 + 13) = {4.779578482575539, 0.1818314019992939, 0};
Point(p18 + 14) = {4.633667678615677, 0.09241714633455966, 0};
Point(p18 + 15) = {4.503540750029543, -0.01872175002954224, 0};
Point(p18 + 16) = {4.392401853665441, -0.1488486786156772, 0};
Point(p18 + 17) = {4.302987598000707, -0.294759482575539, 0};
Point(p18 + 18) = {4.237499658758706, -0.4528613536654403, 0};
Point(p18 + 19) = {4.197550566345589, -0.6192612991091208, 0};
Point(p18 + 20) = {4.184124000000001, -0.7898619999999998, 0};
Point(p18 + 21) = {4.197550566345589, -0.9604627008908789, 0};
Point(p18 + 22) = {4.237499658758707, -1.12686264633456, 0};
Point(p18 + 23) = {4.302987598000706, -1.28496451742446, 0};
Point(p18 + 24) = {4.39240185366544, -1.430875321384323, 0};
Point(p18 + 25) = {4.503540750029543, -1.561002249970457, 0};
Point(p18 + 26) = {4.633667678615677, -1.672141146334559, 0};
Point(p18 + 27) = {4.779578482575539, -1.761555401999294, 0};
Point(p18 + 28) = {4.93768035366544, -1.827043341241294, 0};
Point(p18 + 29) = {5.104080299109121, -1.866992433654412, 0};
Point(p18 + 30) = {5.274681, -1.880419, 0};
Point(p18 + 31) = {5.445281700890879, -1.866992433654412, 0};
Point(p18 + 32) = {5.611681646334559, -1.827043341241294, 0};
Point(p18 + 33) = {5.769783517424461, -1.761555401999294, 0};
Point(p18 + 34) = {5.915694321384323, -1.67214114633456, 0};
Point(p18 + 35) = {6.045821249970458, -1.561002249970458, 0};
Point(p18 + 36) = {6.156960146334559, -1.430875321384323, 0};
Point(p18 + 37) = {6.246374401999294, -1.284964517424461, 0};
Point(p18 + 38) = {6.311862341241294, -1.12686264633456, 0};
Point(p18 + 39) = {6.351811433654412, -0.9604627008908793, 0};
Spline(18) = {12, p18 + 1, p18 + 2, p18 + 3, p18 + 4, p18 + 5, p18 + 6, p18 + 7, p18 + 8, p18 + 9, p18 + 10, p18 + 11, p18 + 12, p18 + 13, p18 + 14, p18 + 15, p18 + 16, p18 + 17, p18 + 18, p18 + 19, p18 + 20, p18 + 21, p18 + 22, p18 + 23, p18 + 24, p18 + 25, p18 + 26, p18 + 27, p18 + 28, p18 + 29, p18 + 30, p18 + 31, p18 + 32, p18 + 33, p18 + 34, p18 + 35, p18 + 36, p18 + 37, p18 + 38, p18 + 39, 12};
Line(19) = {14, 13};
Line(20) = {13, 15};
Line(21) = {16, 15};
Line(22) = {14, 16};
Line(23) = {14, 17};
Line(24) = {17, 18};
Line(25) = {13, 18};
Line(26) = {15, 19};
Line(27) = {18, 19};
Line(28) = {16, 20};
Line(29) = {20, 19};
Line(30) = {17, 20};
Curve Loop(7) = {-13, -14, 15, 14};
Surface(7) = {7};
Curve Loop(8) = {13};
Plane Surface(8) = {8};
Curve Loop(9) = {15};
Plane Surface(9) = {9};
Curve Loop(10) = {-16, -17, 18, 17};
Surface(10) = {10};
Curve Loop(11) = {16};
Plane Surface(11) = {11};
Curve Loop(12) = {18};
Plane Surface(12) = {12};
Curve Loop(13) = {-19, 22, 21, -20};
Plane Surface(13) = {13};
Curve Loop(14) = {-23, 19, 25, -24};
Plane Surface(14) = {14};
Curve Loop(15) = {-20, 25, 27, -26};
Plane Surface(15) = {15};
Curve Loop(16) = {-28, 21, 26, -29};
Plane Surface(16) = {16};
Curve Loop(17) = {-22, 23, 30, -28, -18, -15};
Plane Surface(17) = {17};
Curve Loop(18) = {-24, 30, 29, -27};
Plane Surface(18) = {18};
Surface Loop(1) = {13, 14, 15, 16, 17, 18, 10, 7, 11, 8};
Volume(1) = {1};
Surface Loop(2) = {7, 8, 9};
Volume(2) = {2};
Surface Loop(3) = {10, 11, 12};
Volume(3) = {3};
Physical Surface("WALLS") = {13, 18};
Physical Surface("LOAD") = {8, 11};
Physical Surface("BORDER") = {7, 9, 10, 12, 14, 15, 16, 17};
Physical Volume("SOLID") = {1, 2, 3};
