cl__1 = 0.065137;
cl__2 = 0.135996;
cl__3 = 1.577481;
cl__4 = 1.420733;
cl__5 = 0.861683;
cl__6 = 0.850039;
Point(9) = {23.356351, 1.130469, 0.1, cl__1};
Point(10) = {23.356351, 1.130469, 0, cl__1};
Point(11) = {14.2994, 1.646684, 0.1, cl__2};
Point(12) = {14.2994, 1.646684, 0, cl__2};
Point(13) = {0.133146, -3.420195, 1, cl__3};
Point(14) = {0.133146, -3.420195, 0, cl__3};
Point(15) = {0.133146, 5.406076000000001, 1, cl__4};
Point(16) = {0.133146, 5.406076000000001, 0, cl__4};
Point(17) = {31.42853, -3.420195, 0, cl__5};
Point(18) = {31.42853, -3.420195, 1, cl__5};
Point(19) = {31.42853, 5.406076000000001, 1, cl__6};
Point(20) = {31.42853, 5.406076000000001, 0, cl__6};
p13 = newp;
Point(p13 + 1) = {23.34833150516682, 1.232366343231115, 0.1};
Point(p13 + 2) = {23.32447048724524, 1.331754635693987, 0.1};
Point(p13 + 3) = {23.28535548368667, 1.426186607777348, 0.1};
Point(p13 + 4) = {23.23194963569399, 1.513337030926757, 0.1};
Point(p13 + 5) = {23.16556797248861, 1.591059972488606, 0.1};
Point(p13 + 6) = {23.08784503092676, 1.657441635693987, 0.1};
Point(p13 + 7) = {23.00069460777735, 1.710847483686674, 0.1};
Point(p13 + 8) = {22.90626263569399, 1.749962487245239, 0.1};
Point(p13 + 9) = {22.80687434323112, 1.773823505166817, 0.1};
Point(p13 + 10) = {22.704977, 1.781843, 0.1};
Point(p13 + 11) = {22.60307965676888, 1.773823505166817, 0.1};
Point(p13 + 12) = {22.50369136430601, 1.749962487245239, 0.1};
Point(p13 + 13) = {22.40925939222265, 1.710847483686674, 0.1};
Point(p13 + 14) = {22.32210896907324, 1.657441635693987, 0.1};
Point(p13 + 15) = {22.24438602751139, 1.591059972488606, 0.1};
Point(p13 + 16) = {22.17800436430601, 1.513337030926758, 0.1};
Point(p13 + 17) = {22.12459851631333, 1.426186607777348, 0.1};
Point(p13 + 18) = {22.08548351275476, 1.331754635693987, 0.1};
Point(p13 + 19) = {22.06162249483318, 1.232366343231115, 0.1};
Point(p13 + 20) = {22.053603, 1.130469, 0.1};
Point(p13 + 21) = {22.06162249483318, 1.028571656768885, 0.1};
Point(p13 + 22) = {22.08548351275476, 0.9291833643060128, 0.1};
Point(p13 + 23) = {22.12459851631333, 0.8347513922226527, 0.1};
Point(p13 + 24) = {22.17800436430601, 0.7476009690732426, 0.1};
Point(p13 + 25) = {22.24438602751139, 0.6698780275113938, 0.1};
Point(p13 + 26) = {22.32210896907324, 0.6034963643060129, 0.1};
Point(p13 + 27) = {22.40925939222265, 0.5500905163133261, 0.1};
Point(p13 + 28) = {22.50369136430601, 0.5109755127547606, 0.1};
Point(p13 + 29) = {22.60307965676888, 0.4871144948331827, 0.1};
Point(p13 + 30) = {22.704977, 0.4790949999999999, 0.1};
Point(p13 + 31) = {22.80687434323112, 0.4871144948331827, 0.1};
Point(p13 + 32) = {22.90626263569399, 0.5109755127547605, 0.1};
Point(p13 + 33) = {23.00069460777735, 0.550090516313326, 0.1};
Point(p13 + 34) = {23.08784503092676, 0.6034963643060128, 0.1};
Point(p13 + 35) = {23.16556797248861, 0.6698780275113936, 0.1};
Point(p13 + 36) = {23.23194963569399, 0.7476009690732425, 0.1};
Point(p13 + 37) = {23.28535548368667, 0.8347513922226523, 0.1};
Point(p13 + 38) = {23.32447048724524, 0.9291833643060128, 0.1};
Point(p13 + 39) = {23.34833150516682, 1.028571656768885, 0.1};
Spline(13) = {9, p13 + 1, p13 + 2, p13 + 3, p13 + 4, p13 + 5, p13 + 6, p13 + 7, p13 + 8, p13 + 9, p13 + 10, p13 + 11, p13 + 12, p13 + 13, p13 + 14, p13 + 15, p13 + 16, p13 + 17, p13 + 18, p13 + 19, p13 + 20, p13 + 21, p13 + 22, p13 + 23, p13 + 24, p13 + 25, p13 + 26, p13 + 27, p13 + 28, p13 + 29, p13 + 30, p13 + 31, p13 + 32, p13 + 33, p13 + 34, p13 + 35, p13 + 36, p13 + 37, p13 + 38, p13 + 39, 9};
Line(14) = {10, 9};
p15 = newp;
Point(p15 + 1) = {23.34833150516682, 1.232366343231115, 0};
Point(p15 + 2) = {23.32447048724524, 1.331754635693987, 0};
Point(p15 + 3) = {23.28535548368667, 1.426186607777348, 0};
Point(p15 + 4) = {23.23194963569399, 1.513337030926757, 0};
Point(p15 + 5) = {23.16556797248861, 1.591059972488606, 0};
Point(p15 + 6) = {23.08784503092676, 1.657441635693987, 0};
Point(p15 + 7) = {23.00069460777735, 1.710847483686674, 0};
Point(p15 + 8) = {22.90626263569399, 1.749962487245239, 0};
Point(p15 + 9) = {22.80687434323112, 1.773823505166817, 0};
Point(p15 + 10) = {22.704977, 1.781843, 0};
Point(p15 + 11) = {22.60307965676888, 1.773823505166817, 0};
Point(p15 + 12) = {22.50369136430601, 1.749962487245239, 0};
Point(p15 + 13) = {22.40925939222265, 1.710847483686674, 0};
Point(p15 + 14) = {22.32210896907324, 1.657441635693987, 0};
Point(p15 + 15) = {22.24438602751139, 1.591059972488606, 0};
Point(p15 + 16) = {22.17800436430601, 1.513337030926758, 0};
Point(p15 + 17) = {22.12459851631333, 1.426186607777348, 0};
Point(p15 + 18) = {22.08548351275476, 1.331754635693987, 0};
Point(p15 + 19) = {22.06162249483318, 1.232366343231115, 0};
Point(p15 + 20) = {22.053603, 1.130469, 0};
Point(p15 + 21) = {22.06162249483318, 1.028571656768885, 0};
Point(p15 + 22) = {22.08548351275476, 0.9291833643060128, 0};
Point(p15 + 23) = {22.12459851631333, 0.8347513922226527, 0};
Point(p15 + 24) = {22.17800436430601, 0.7476009690732426, 0};
Point(p15 + 25) = {22.24438602751139, 0.6698780275113938, 0};
Point(p15 + 26) = {22.32210896907324, 0.6034963643060129, 0};
Point(p15 + 27) = {22.40925939222265, 0.5500905163133261, 0};
Point(p15 + 28) = {22.50369136430601, 0.5109755127547606, 0};
Point(p15 + 29) = {22.60307965676888, 0.4871144948331827, 0};
Point(p15 + 30) = {22.704977, 0.4790949999999999, 0};
Point(p15 + 31) = {22.80687434323112, 0.4871144948331827, 0};
Point(p15 + 32) = {22.90626263569399, 0.5109755127547605, 0};
Point(p15 + 33) = {23.00069460777735, 0.550090516313326, 0};
Point(p15 + 34) = {23.08784503092676, 0.6034963643060128, 0};
Point(p15 + 35) = {23.16556797248861, 0.6698780275113936, 0};
Point(p15 + 36) = {23.23194963569399, 0.7476009690732425, 0};
Point(p15 + 37) = {23.28535548368667, 0.8347513922226523, 0};
Point(p15 + 38) = {23.32447048724524, 0.9291833643060128, 0};
Point(p15 + 39) = {23.34833150516682, 1.028571656768885, 0};
Spline(15) = {10, p15 + 1, p15 + 2, p15 + 3, p15 + 4, p15 + 5, p15 + 6, p15 + 7, p15 + 8, p15 + 9, p15 + 10, p15 + 11, p15 + 12, p15 + 13, p15 + 14, p15 + 15, p15 + 16, p15 + 17, p15 + 18, p15 + 19, p15 + 20, p15 + 21, p15 + 22, p15 + 23, p15 + 24, p15 + 25, p15 + 26, p15 + 27, p15 + 28, p15 + 29, p15 + 30, p15 + 31, p15 + 32, p15 + 33, p15 + 34, p15 + 35, p15 + 36, p15 + 37, p15 + 38, p15 + 39, 10};
p16 = newp;
Point(p16 + 1) = {14.28265659874079, 1.859429084379508, 0.1};
Point(p16 + 2) = {14.23283867307031, 2.066935678721137, 0.1};
Point(p16 + 3) = {14.15117290565479, 2.264094281997293, 0.1};
Point(p16 + 4) = {14.03967017872114, 2.446050195063429, 0.1};
Point(p16 + 5) = {13.9010760594628, 2.608323059462801, 0.1};
Point(p16 + 6) = {13.73880319506343, 2.746917178721136, 0.1};
Point(p16 + 7) = {13.55684728199729, 2.858419905654785, 0.1};
Point(p16 + 8) = {13.35968867872114, 2.940085673070306, 0.1};
Point(p16 + 9) = {13.15218208437951, 2.989903598740785, 0.1};
Point(p16 + 10) = {12.939437, 3.006647, 0.1};
Point(p16 + 11) = {12.72669191562049, 2.989903598740785, 0.1};
Point(p16 + 12) = {12.51918532127886, 2.940085673070306, 0.1};
Point(p16 + 13) = {12.32202671800271, 2.858419905654785, 0.1};
Point(p16 + 14) = {12.14007080493657, 2.746917178721137, 0.1};
Point(p16 + 15) = {11.9777979405372, 2.608323059462801, 0.1};
Point(p16 + 16) = {11.83920382127886, 2.446050195063429, 0.1};
Point(p16 + 17) = {11.72770109434521, 2.264094281997294, 0.1};
Point(p16 + 18) = {11.64603532692969, 2.066935678721137, 0.1};
Point(p16 + 19) = {11.59621740125921, 1.859429084379508, 0.1};
Point(p16 + 20) = {11.579474, 1.646684, 0.1};
Point(p16 + 21) = {11.59621740125921, 1.433938915620493, 0.1};
Point(p16 + 22) = {11.64603532692969, 1.226432321278863, 0.1};
Point(p16 + 23) = {11.72770109434521, 1.029273718002707, 0.1};
Point(p16 + 24) = {11.83920382127886, 0.8473178049365715, 0.1};
Point(p16 + 25) = {11.9777979405372, 0.6850449405371993, 0.1};
Point(p16 + 26) = {12.14007080493657, 0.5464508212788635, 0.1};
Point(p16 + 27) = {12.32202671800271, 0.4349480943452149, 0.1};
Point(p16 + 28) = {12.51918532127886, 0.3532823269296941, 0.1};
Point(p16 + 29) = {12.72669191562049, 0.3034644012592147, 0.1};
Point(p16 + 30) = {12.939437, 0.286721, 0.1};
Point(p16 + 31) = {13.15218208437951, 0.3034644012592147, 0.1};
Point(p16 + 32) = {13.35968867872114, 0.3532823269296941, 0.1};
Point(p16 + 33) = {13.55684728199729, 0.4349480943452144, 0.1};
Point(p16 + 34) = {13.73880319506343, 0.5464508212788632, 0.1};
Point(p16 + 35) = {13.9010760594628, 0.6850449405371991, 0.1};
Point(p16 + 36) = {14.03967017872114, 0.8473178049365713, 0.1};
Point(p16 + 37) = {14.15117290565479, 1.029273718002707, 0.1};
Point(p16 + 38) = {14.23283867307031, 1.226432321278863, 0.1};
Point(p16 + 39) = {14.28265659874079, 1.433938915620492, 0.1};
Spline(16) = {11, p16 + 1, p16 + 2, p16 + 3, p16 + 4, p16 + 5, p16 + 6, p16 + 7, p16 + 8, p16 + 9, p16 + 10, p16 + 11, p16 + 12, p16 + 13, p16 + 14, p16 + 15, p16 + 16, p16 + 17, p16 + 18, p16 + 19, p16 + 20, p16 + 21, p16 + 22, p16 + 23, p16 + 24, p16 + 25, p16 + 26, p16 + 27, p16 + 28, p16 + 29, p16 + 30, p16 + 31, p16 + 32, p16 + 33, p16 + 34, p16 + 35, p16 + 36, p16 + 37, p16 + 38, p16 + 39, 11};
Line(17) = {12, 11};
p18 = newp;
Point(p18 + 1) = {14.28265659874079, 1.859429084379508, 0};
Point(p18 + 2) = {14.23283867307031, 2.066935678721137, 0};
Point(p18 + 3) = {14.15117290565479, 2.264094281997293, 0};
Point(p18 + 4) = {14.03967017872114, 2.446050195063429, 0};
Point(p18 + 5) = {13.9010760594628, 2.608323059462801, 0};
Point(p18 + 6) = {13.73880319506343, 2.746917178721136, 0};
Point(p18 + 7) = {13.55684728199729, 2.858419905654785, 0};
Point(p18 + 8) = {13.35968867872114, 2.940085673070306, 0};
Point(p18 + 9) = {13.15218208437951, 2.989903598740785, 0};
Point(p18 + 10) = {12.939437, 3.006647, 0};
Point(p18 + 11) = {12.72669191562049, 2.989903598740785, 0};
Point(p18 + 12) = {12.51918532127886, 2.940085673070306, 0};
Point(p18 + 13) = {12.32202671800271, 2.858419905654785, 0};
Point(p18 + 14) = {12.14007080493657, 2.746917178721137, 0};
Point(p18 + 15) = {11.9777979405372, 2.608323059462801, 0};
Point(p18 + 16) = {11.83920382127886, 2.446050195063429, 0};
Point(p18 + 17) = {11.72770109434521, 2.264094281997294, 0};
Point(p18 + 18) = {11.64603532692969, 2.066935678721137, 0};
Point(p18 + 19) = {11.59621740125921, 1.859429084379508, 0};
Point(p18 + 20) = {11.579474, 1.646684, 0};
Point(p18 + 21) = {11.59621740125921, 1.433938915620493, 0};
Point(p18 + 22) = {11.64603532692969, 1.226432321278863, 0};
Point(p18 + 23) = {11.72770109434521, 1.029273718002707, 0};
Point(p18 + 24) = {11.83920382127886, 0.8473178049365715, 0};
Point(p18 + 25) = {11.9777979405372, 0.6850449405371993, 0};
Point(p18 + 26) = {12.14007080493657, 0.5464508212788635, 0};
Point(p18 + 27) = {12.32202671800271, 0.4349480943452149, 0};
Point(p18 + 28) = {12.51918532127886, 0.3532823269296941, 0};
Point(p18 + 29) = {12.72669191562049, 0.3034644012592147, 0};
Point(p18 + 30) = {12.939437, 0.286721, 0};
Point(p18 + 31) = {13.15218208437951, 0.3034644012592147, 0};
Point(p18 + 32) = {13.35968867872114, 0.3532823269296941, 0};
Point(p18 + 33) = {13.55684728199729, 0.4349480943452144, 0};
Point(p18 + 34) = {13.73880319506343, 0.5464508212788632, 0};
Point(p18 + 35) = {13.9010760594628, 0.6850449405371991, 0};
Point(p18 + 36) = {14.03967017872114, 0.8473178049365713, 0};
Point(p18 + 37) = {14.15117290565479, 1.029273718002707, 0};
Point(p18 + 38) = {14.23283867307031, 1.226432321278863, 0};
Point(p18 + 39) = {14.28265659874079, 1.433938915620492, 0};
Spline(18) = {12, p18 + 1, p18 + 2, p18 + 3, p18 + 4, p18 + 5, p18 + 6, p18 + 7, p18 + 8, p18 + 9, p18 + 10, p18 + 11, p18 + 12, p18 + 13, p18 + 14, p18 + 15, p18 + 16, p18 + 17, p18 + 18, p18 + 19, p18 + 20, p18 + 21, p18 + 22, p18 + 23, p18 + 24, p18 + 25, p18 + 26, p18 + 27, p18 + 28, p18 + 29, p18 + 30, p18 + 31, p18 + 32, p18 + 33, p18 + 34, p18 + 35, p18 + 36, p18 + 37, p18 + 38, p18 + 39, 12};
Line(19) = {14, 13};
Line(20) = {13, 15};
Line(21) = {16, 15};
Line(22) = {14, 16};
Line(23) = {14, 17};
Line(24) = {17, 18};
Line(25) = {13, 18};
Line(26) = {15, 19};
Line(27) = {18, 19};
Line(28) = {16, 20};
Line(29) = {20, 19};
Line(30) = {17, 20};
Curve Loop(7) = {-13, -14, 15, 14};
Surface(7) = {7};
Curve Loop(8) = {13};
Plane Surface(8) = {8};
Curve Loop(9) = {15};
Plane Surface(9) = {9};
Curve Loop(10) = {-16, -17, 18, 17};
Surface(10) = {10};
Curve Loop(11) = {16};
Plane Surface(11) = {11};
Curve Loop(12) = {18};
Plane Surface(12) = {12};
Curve Loop(13) = {-19, 22, 21, -20};
Plane Surface(13) = {13};
Curve Loop(14) = {-23, 19, 25, -24};
Plane Surface(14) = {14};
Curve Loop(15) = {-20, 25, 27, -26};
Plane Surface(15) = {15};
Curve Loop(16) = {-28, 21, 26, -29};
Plane Surface(16) = {16};
Curve Loop(17) = {-22, 23, 30, -28, -15, -18};
Plane Surface(17) = {17};
Curve Loop(18) = {-24, 30, 29, -27};
Plane Surface(18) = {18};
Surface Loop(1) = {13, 14, 15, 16, 17, 18, 7, 10, 8, 11};
Volume(1) = {1};
Surface Loop(2) = {7, 8, 9};
Volume(2) = {2};
Surface Loop(3) = {10, 11, 12};
Volume(3) = {3};
Physical Surface("WALLS") = {13, 18};
Physical Surface("LOAD") = {8, 11};
Physical Surface("BORDER") = {7, 9, 10, 12, 14, 15, 16, 17};
Physical Volume("SOLID") = {1, 2, 3};
