cl__1 = 0.100375;
cl__2 = 0.063192;
cl__3 = 4.118552;
cl__4 = 4.689401;
cl__5 = 0.5392400000000001;
cl__6 = 0.184021;
Point(9) = {24.037803, -2.133141, 0.1, cl__1};
Point(10) = {24.037803, -2.133141, 0, cl__1};
Point(11) = {37.547831, 3.362865999999999, 0.1, cl__2};
Point(12) = {37.547831, 3.362865999999999, 0, cl__2};
Point(13) = {0.394697, -4.078549, 1, cl__3};
Point(14) = {0.394697, -4.078549, 0, cl__3};
Point(15) = {0.394697, 4.820352000000001, 1, cl__4};
Point(16) = {0.394697, 4.820352000000001, 0, cl__4};
Point(17) = {39.680578, -4.078549, 0, cl__5};
Point(18) = {39.680578, -4.078549, 1, cl__5};
Point(19) = {39.680578, 4.820352000000001, 1, cl__6};
Point(20) = {39.680578, 4.820352000000001, 0, cl__6};
p13 = newp;
Point(p13 + 1) = {24.02544520880735, -1.976120375019264, 0.1};
Point(p13 + 2) = {23.98867612506171, -1.82296611894713, 0.1};
Point(p13 + 3) = {23.9284011256345, -1.677449397857929, 0.1};
Point(p13 + 4) = {23.84610438105287, -1.543153316367187, 0.1};
Point(p13 + 5) = {23.74381231029565, -1.423384689704347, 0.1};
Point(p13 + 6) = {23.62404368363281, -1.32109261894713, 0.1};
Point(p13 + 7) = {23.48974760214207, -1.238795874365499, 0.1};
Point(p13 + 8) = {23.34423088105287, -1.178520874938289, 0.1};
Point(p13 + 9) = {23.19107662498074, -1.141751791192652, 0.1};
Point(p13 + 10) = {23.034056, -1.129394, 0.1};
Point(p13 + 11) = {22.87703537501926, -1.141751791192652, 0.1};
Point(p13 + 12) = {22.72388111894713, -1.178520874938289, 0.1};
Point(p13 + 13) = {22.57836439785793, -1.238795874365499, 0.1};
Point(p13 + 14) = {22.44406831636719, -1.32109261894713, 0.1};
Point(p13 + 15) = {22.32429968970435, -1.423384689704347, 0.1};
Point(p13 + 16) = {22.22200761894713, -1.543153316367187, 0.1};
Point(p13 + 17) = {22.1397108743655, -1.677449397857929, 0.1};
Point(p13 + 18) = {22.07943587493829, -1.82296611894713, 0.1};
Point(p13 + 19) = {22.04266679119265, -1.976120375019264, 0.1};
Point(p13 + 20) = {22.030309, -2.133141, 0.1};
Point(p13 + 21) = {22.04266679119265, -2.290161624980737, 0.1};
Point(p13 + 22) = {22.07943587493829, -2.443315881052871, 0.1};
Point(p13 + 23) = {22.1397108743655, -2.58883260214207, 0.1};
Point(p13 + 24) = {22.22200761894713, -2.723128683632813, 0.1};
Point(p13 + 25) = {22.32429968970435, -2.842897310295654, 0.1};
Point(p13 + 26) = {22.44406831636719, -2.94518938105287, 0.1};
Point(p13 + 27) = {22.57836439785793, -3.027486125634502, 0.1};
Point(p13 + 28) = {22.72388111894713, -3.087761125061712, 0.1};
Point(p13 + 29) = {22.87703537501926, -3.124530208807348, 0.1};
Point(p13 + 30) = {23.034056, -3.136888, 0.1};
Point(p13 + 31) = {23.19107662498073, -3.124530208807348, 0.1};
Point(p13 + 32) = {23.34423088105287, -3.087761125061712, 0.1};
Point(p13 + 33) = {23.48974760214207, -3.027486125634502, 0.1};
Point(p13 + 34) = {23.62404368363281, -2.945189381052871, 0.1};
Point(p13 + 35) = {23.74381231029565, -2.842897310295654, 0.1};
Point(p13 + 36) = {23.84610438105287, -2.723128683632813, 0.1};
Point(p13 + 37) = {23.9284011256345, -2.588832602142071, 0.1};
Point(p13 + 38) = {23.98867612506171, -2.443315881052871, 0.1};
Point(p13 + 39) = {24.02544520880735, -2.290161624980737, 0.1};
Spline(13) = {9, p13 + 1, p13 + 2, p13 + 3, p13 + 4, p13 + 5, p13 + 6, p13 + 7, p13 + 8, p13 + 9, p13 + 10, p13 + 11, p13 + 12, p13 + 13, p13 + 14, p13 + 15, p13 + 16, p13 + 17, p13 + 18, p13 + 19, p13 + 20, p13 + 21, p13 + 22, p13 + 23, p13 + 24, p13 + 25, p13 + 26, p13 + 27, p13 + 28, p13 + 29, p13 + 30, p13 + 31, p13 + 32, p13 + 33, p13 + 34, p13 + 35, p13 + 36, p13 + 37, p13 + 38, p13 + 39, 9};
Line(14) = {10, 9};
p15 = newp;
Point(p15 + 1) = {24.02544520880735, -1.976120375019264, 0};
Point(p15 + 2) = {23.98867612506171, -1.82296611894713, 0};
Point(p15 + 3) = {23.9284011256345, -1.677449397857929, 0};
Point(p15 + 4) = {23.84610438105287, -1.543153316367187, 0};
Point(p15 + 5) = {23.74381231029565, -1.423384689704347, 0};
Point(p15 + 6) = {23.62404368363281, -1.32109261894713, 0};
Point(p15 + 7) = {23.48974760214207, -1.238795874365499, 0};
Point(p15 + 8) = {23.34423088105287, -1.178520874938289, 0};
Point(p15 + 9) = {23.19107662498074, -1.141751791192652, 0};
Point(p15 + 10) = {23.034056, -1.129394, 0};
Point(p15 + 11) = {22.87703537501926, -1.141751791192652, 0};
Point(p15 + 12) = {22.72388111894713, -1.178520874938289, 0};
Point(p15 + 13) = {22.57836439785793, -1.238795874365499, 0};
Point(p15 + 14) = {22.44406831636719, -1.32109261894713, 0};
Point(p15 + 15) = {22.32429968970435, -1.423384689704347, 0};
Point(p15 + 16) = {22.22200761894713, -1.543153316367187, 0};
Point(p15 + 17) = {22.1397108743655, -1.677449397857929, 0};
Point(p15 + 18) = {22.07943587493829, -1.82296611894713, 0};
Point(p15 + 19) = {22.04266679119265, -1.976120375019264, 0};
Point(p15 + 20) = {22.030309, -2.133141, 0};
Point(p15 + 21) = {22.04266679119265, -2.290161624980737, 0};
Point(p15 + 22) = {22.07943587493829, -2.443315881052871, 0};
Point(p15 + 23) = {22.1397108743655, -2.58883260214207, 0};
Point(p15 + 24) = {22.22200761894713, -2.723128683632813, 0};
Point(p15 + 25) = {22.32429968970435, -2.842897310295654, 0};
Point(p15 + 26) = {22.44406831636719, -2.94518938105287, 0};
Point(p15 + 27) = {22.57836439785793, -3.027486125634502, 0};
Point(p15 + 28) = {22.72388111894713, -3.087761125061712, 0};
Point(p15 + 29) = {22.87703537501926, -3.124530208807348, 0};
Point(p15 + 30) = {23.034056, -3.136888, 0};
Point(p15 + 31) = {23.19107662498073, -3.124530208807348, 0};
Point(p15 + 32) = {23.34423088105287, -3.087761125061712, 0};
Point(p15 + 33) = {23.48974760214207, -3.027486125634502, 0};
Point(p15 + 34) = {23.62404368363281, -2.945189381052871, 0};
Point(p15 + 35) = {23.74381231029565, -2.842897310295654, 0};
Point(p15 + 36) = {23.84610438105287, -2.723128683632813, 0};
Point(p15 + 37) = {23.9284011256345, -2.588832602142071, 0};
Point(p15 + 38) = {23.98867612506171, -2.443315881052871, 0};
Point(p15 + 39) = {24.02544520880735, -2.290161624980737, 0};
Spline(15) = {10, p15 + 1, p15 + 2, p15 + 3, p15 + 4, p15 + 5, p15 + 6, p15 + 7, p15 + 8, p15 + 9, p15 + 10, p15 + 11, p15 + 12, p15 + 13, p15 + 14, p15 + 15, p15 + 16, p15 + 17, p15 + 18, p15 + 19, p15 + 20, p15 + 21, p15 + 22, p15 + 23, p15 + 24, p15 + 25, p15 + 26, p15 + 27, p15 + 28, p15 + 29, p15 + 30, p15 + 31, p15 + 32, p15 + 33, p15 + 34, p15 + 35, p15 + 36, p15 + 37, p15 + 38, p15 + 39, 10};
p16 = newp;
Point(p16 + 1) = {37.54005101618888, 3.461720067148223, 0.1};
Point(p16 + 2) = {37.51690263377724, 3.558140019085417, 0.1};
Point(p16 + 3) = {37.47895584276512, 3.649751676595415, 0.1};
Point(p16 + 4) = {37.42714501908542, 3.73429925662866, 0.1};
Point(p16 + 5) = {37.3627459171674, 3.809700917167403, 0.1};
Point(p16 + 6) = {37.28734425662866, 3.874100019085417, 0.1};
Point(p16 + 7) = {37.20279667659542, 3.925910842765113, 0.1};
Point(p16 + 8) = {37.11118501908542, 3.963857633777233, 0.1};
Point(p16 + 9) = {37.01476506714823, 3.98700601618888, 0.1};
Point(p16 + 10) = {36.915911, 3.994786, 0.1};
Point(p16 + 11) = {36.81705693285178, 3.987006016188879, 0.1};
Point(p16 + 12) = {36.72063698091458, 3.963857633777233, 0.1};
Point(p16 + 13) = {36.62902532340458, 3.925910842765113, 0.1};
Point(p16 + 14) = {36.54447774337134, 3.874100019085417, 0.1};
Point(p16 + 15) = {36.4690760828326, 3.809700917167403, 0.1};
Point(p16 + 16) = {36.40467698091459, 3.73429925662866, 0.1};
Point(p16 + 17) = {36.35286615723489, 3.649751676595415, 0.1};
Point(p16 + 18) = {36.31491936622277, 3.558140019085417, 0.1};
Point(p16 + 19) = {36.29177098381112, 3.461720067148223, 0.1};
Point(p16 + 20) = {36.283991, 3.362866, 0.1};
Point(p16 + 21) = {36.29177098381112, 3.264011932851777, 0.1};
Point(p16 + 22) = {36.31491936622277, 3.167591980914583, 0.1};
Point(p16 + 23) = {36.35286615723489, 3.075980323404586, 0.1};
Point(p16 + 24) = {36.40467698091459, 2.99143274337134, 0.1};
Point(p16 + 25) = {36.4690760828326, 2.916031082832597, 0.1};
Point(p16 + 26) = {36.54447774337134, 2.851631980914583, 0.1};
Point(p16 + 27) = {36.62902532340458, 2.799821157234887, 0.1};
Point(p16 + 28) = {36.72063698091458, 2.761874366222766, 0.1};
Point(p16 + 29) = {36.81705693285178, 2.738725983811121, 0.1};
Point(p16 + 30) = {36.915911, 2.730946, 0.1};
Point(p16 + 31) = {37.01476506714823, 2.73872598381112, 0.1};
Point(p16 + 32) = {37.11118501908542, 2.761874366222766, 0.1};
Point(p16 + 33) = {37.20279667659542, 2.799821157234886, 0.1};
Point(p16 + 34) = {37.28734425662866, 2.851631980914583, 0.1};
Point(p16 + 35) = {37.3627459171674, 2.916031082832597, 0.1};
Point(p16 + 36) = {37.42714501908542, 2.99143274337134, 0.1};
Point(p16 + 37) = {37.47895584276512, 3.075980323404585, 0.1};
Point(p16 + 38) = {37.51690263377724, 3.167591980914583, 0.1};
Point(p16 + 39) = {37.54005101618888, 3.264011932851777, 0.1};
Spline(16) = {11, p16 + 1, p16 + 2, p16 + 3, p16 + 4, p16 + 5, p16 + 6, p16 + 7, p16 + 8, p16 + 9, p16 + 10, p16 + 11, p16 + 12, p16 + 13, p16 + 14, p16 + 15, p16 + 16, p16 + 17, p16 + 18, p16 + 19, p16 + 20, p16 + 21, p16 + 22, p16 + 23, p16 + 24, p16 + 25, p16 + 26, p16 + 27, p16 + 28, p16 + 29, p16 + 30, p16 + 31, p16 + 32, p16 + 33, p16 + 34, p16 + 35, p16 + 36, p16 + 37, p16 + 38, p16 + 39, 11};
Line(17) = {12, 11};
p18 = newp;
Point(p18 + 1) = {37.54005101618888, 3.461720067148223, 0};
Point(p18 + 2) = {37.51690263377724, 3.558140019085417, 0};
Point(p18 + 3) = {37.47895584276512, 3.649751676595415, 0};
Point(p18 + 4) = {37.42714501908542, 3.73429925662866, 0};
Point(p18 + 5) = {37.3627459171674, 3.809700917167403, 0};
Point(p18 + 6) = {37.28734425662866, 3.874100019085417, 0};
Point(p18 + 7) = {37.20279667659542, 3.925910842765113, 0};
Point(p18 + 8) = {37.11118501908542, 3.963857633777233, 0};
Point(p18 + 9) = {37.01476506714823, 3.98700601618888, 0};
Point(p18 + 10) = {36.915911, 3.994786, 0};
Point(p18 + 11) = {36.81705693285178, 3.987006016188879, 0};
Point(p18 + 12) = {36.72063698091458, 3.963857633777233, 0};
Point(p18 + 13) = {36.62902532340458, 3.925910842765113, 0};
Point(p18 + 14) = {36.54447774337134, 3.874100019085417, 0};
Point(p18 + 15) = {36.4690760828326, 3.809700917167403, 0};
Point(p18 + 16) = {36.40467698091459, 3.73429925662866, 0};
Point(p18 + 17) = {36.35286615723489, 3.649751676595415, 0};
Point(p18 + 18) = {36.31491936622277, 3.558140019085417, 0};
Point(p18 + 19) = {36.29177098381112, 3.461720067148223, 0};
Point(p18 + 20) = {36.283991, 3.362866, 0};
Point(p18 + 21) = {36.29177098381112, 3.264011932851777, 0};
Point(p18 + 22) = {36.31491936622277, 3.167591980914583, 0};
Point(p18 + 23) = {36.35286615723489, 3.075980323404586, 0};
Point(p18 + 24) = {36.40467698091459, 2.99143274337134, 0};
Point(p18 + 25) = {36.4690760828326, 2.916031082832597, 0};
Point(p18 + 26) = {36.54447774337134, 2.851631980914583, 0};
Point(p18 + 27) = {36.62902532340458, 2.799821157234887, 0};
Point(p18 + 28) = {36.72063698091458, 2.761874366222766, 0};
Point(p18 + 29) = {36.81705693285178, 2.738725983811121, 0};
Point(p18 + 30) = {36.915911, 2.730946, 0};
Point(p18 + 31) = {37.01476506714823, 2.73872598381112, 0};
Point(p18 + 32) = {37.11118501908542, 2.761874366222766, 0};
Point(p18 + 33) = {37.20279667659542, 2.799821157234886, 0};
Point(p18 + 34) = {37.28734425662866, 2.851631980914583, 0};
Point(p18 + 35) = {37.3627459171674, 2.916031082832597, 0};
Point(p18 + 36) = {37.42714501908542, 2.99143274337134, 0};
Point(p18 + 37) = {37.47895584276512, 3.075980323404585, 0};
Point(p18 + 38) = {37.51690263377724, 3.167591980914583, 0};
Point(p18 + 39) = {37.54005101618888, 3.264011932851777, 0};
Spline(18) = {12, p18 + 1, p18 + 2, p18 + 3, p18 + 4, p18 + 5, p18 + 6, p18 + 7, p18 + 8, p18 + 9, p18 + 10, p18 + 11, p18 + 12, p18 + 13, p18 + 14, p18 + 15, p18 + 16, p18 + 17, p18 + 18, p18 + 19, p18 + 20, p18 + 21, p18 + 22, p18 + 23, p18 + 24, p18 + 25, p18 + 26, p18 + 27, p18 + 28, p18 + 29, p18 + 30, p18 + 31, p18 + 32, p18 + 33, p18 + 34, p18 + 35, p18 + 36, p18 + 37, p18 + 38, p18 + 39, 12};
Line(19) = {14, 13};
Line(20) = {13, 15};
Line(21) = {16, 15};
Line(22) = {14, 16};
Line(23) = {14, 17};
Line(24) = {17, 18};
Line(25) = {13, 18};
Line(26) = {15, 19};
Line(27) = {18, 19};
Line(28) = {16, 20};
Line(29) = {20, 19};
Line(30) = {17, 20};
Curve Loop(7) = {-13, -14, 15, 14};
Surface(7) = {7};
Curve Loop(8) = {13};
Plane Surface(8) = {8};
Curve Loop(9) = {15};
Plane Surface(9) = {9};
Curve Loop(10) = {-16, -17, 18, 17};
Surface(10) = {10};
Curve Loop(11) = {16};
Plane Surface(11) = {11};
Curve Loop(12) = {18};
Plane Surface(12) = {12};
Curve Loop(13) = {-19, 22, 21, -20};
Plane Surface(13) = {13};
Curve Loop(14) = {-23, 19, 25, -24};
Plane Surface(14) = {14};
Curve Loop(15) = {-20, 25, 27, -26};
Plane Surface(15) = {15};
Curve Loop(16) = {-28, 21, 26, -29};
Plane Surface(16) = {16};
Curve Loop(17) = {-22, 23, 30, -28, -15, -18};
Plane Surface(17) = {17};
Curve Loop(18) = {-24, 30, 29, -27};
Plane Surface(18) = {18};
Surface Loop(1) = {13, 14, 15, 16, 17, 18, 7, 10, 8, 11};
Volume(1) = {1};
Surface Loop(2) = {7, 8, 9};
Volume(2) = {2};
Surface Loop(3) = {10, 11, 12};
Volume(3) = {3};
Physical Surface("WALLS") = {13, 18};
Physical Surface("LOAD") = {8, 11};
Physical Surface("BORDER") = {7, 9, 10, 12, 14, 15, 16, 17};
Physical Volume("SOLID") = {1, 2, 3};
