cl__1 = 0.123567;
cl__2 = 0.058959;
cl__3 = 0.469187;
cl__4 = 0.432404;
cl__5 = 4.019901;
cl__6 = 3.431884;
Point(9) = {8.075339, 1.059123, 0.1, cl__1};
Point(10) = {8.075339, 1.059123, 0, cl__1};
Point(11) = {11.869744, 3.872644, 0.1, cl__2};
Point(12) = {11.869744, 3.872644, 0, cl__2};
Point(13) = {0.134871, -4.006014, 1, cl__3};
Point(14) = {0.134871, -4.006014, 0, cl__3};
Point(15) = {0.134871, 5.124606999999999, 1, cl__4};
Point(16) = {0.134871, 5.124606999999999, 0, cl__4};
Point(17) = {34.878611, -4.006014, 0, cl__5};
Point(18) = {34.878611, -4.006014, 1, cl__5};
Point(19) = {34.878611, 5.124606999999999, 1, cl__6};
Point(20) = {34.878611, 5.124606999999999, 0, cl__6};
p13 = newp;
Point(p13 + 1) = {8.060125876446513, 1.252424062547332, 0.1};
Point(p13 + 2) = {8.014861103377399, 1.440965411405303, 0.1};
Point(p13 + 3) = {7.940659249730793, 1.620104532832166, 0.1};
Point(p13 + 4) = {7.839347411405303, 1.785430427129736, 0.1};
Point(p13 + 5) = {7.713420222095219, 1.932872222095219, 0.1};
Point(p13 + 6) = {7.565978427129735, 2.058799411405302, 0.1};
Point(p13 + 7) = {7.400652532832167, 2.160111249730792, 0.1};
Point(p13 + 8) = {7.221513411405303, 2.2343131033774, 0.1};
Point(p13 + 9) = {7.032972062547332, 2.279577876446512, 0.1};
Point(p13 + 10) = {6.839671, 2.294791, 0.1};
Point(p13 + 11) = {6.646369937452667, 2.279577876446512, 0.1};
Point(p13 + 12) = {6.457828588594698, 2.2343131033774, 0.1};
Point(p13 + 13) = {6.278689467167834, 2.160111249730792, 0.1};
Point(p13 + 14) = {6.113363572870265, 2.058799411405303, 0.1};
Point(p13 + 15) = {5.965921777904781, 1.932872222095219, 0.1};
Point(p13 + 16) = {5.839994588594697, 1.785430427129736, 0.1};
Point(p13 + 17) = {5.738682750269207, 1.620104532832166, 0.1};
Point(p13 + 18) = {5.6644808966226, 1.440965411405303, 0.1};
Point(p13 + 19) = {5.619216123553487, 1.252424062547332, 0.1};
Point(p13 + 20) = {5.604003000000001, 1.059123, 0.1};
Point(p13 + 21) = {5.619216123553487, 0.8658219374526681, 0.1};
Point(p13 + 22) = {5.6644808966226, 0.6772805885946971, 0.1};
Point(p13 + 23) = {5.738682750269207, 0.4981414671678344, 0.1};
Point(p13 + 24) = {5.839994588594697, 0.3328155728702645, 0.1};
Point(p13 + 25) = {5.965921777904781, 0.1853737779047813, 0.1};
Point(p13 + 26) = {6.113363572870265, 0.05944658859469765, 0.1};
Point(p13 + 27) = {6.278689467167833, -0.04186524973079209, 0.1};
Point(p13 + 28) = {6.457828588594698, -0.1160671033773997, 0.1};
Point(p13 + 29) = {6.646369937452667, -0.1613318764465126, 0.1};
Point(p13 + 30) = {6.839671, -0.176545, 0.1};
Point(p13 + 31) = {7.032972062547332, -0.1613318764465126, 0.1};
Point(p13 + 32) = {7.221513411405303, -0.1160671033773999, 0.1};
Point(p13 + 33) = {7.400652532832166, -0.04186524973079231, 0.1};
Point(p13 + 34) = {7.565978427129735, 0.05944658859469731, 0.1};
Point(p13 + 35) = {7.713420222095219, 0.185373777904781, 0.1};
Point(p13 + 36) = {7.839347411405303, 0.3328155728702642, 0.1};
Point(p13 + 37) = {7.940659249730793, 0.4981414671678335, 0.1};
Point(p13 + 38) = {8.014861103377399, 0.6772805885946973, 0.1};
Point(p13 + 39) = {8.060125876446513, 0.8658219374526677, 0.1};
Spline(13) = {9, p13 + 1, p13 + 2, p13 + 3, p13 + 4, p13 + 5, p13 + 6, p13 + 7, p13 + 8, p13 + 9, p13 + 10, p13 + 11, p13 + 12, p13 + 13, p13 + 14, p13 + 15, p13 + 16, p13 + 17, p13 + 18, p13 + 19, p13 + 20, p13 + 21, p13 + 22, p13 + 23, p13 + 24, p13 + 25, p13 + 26, p13 + 27, p13 + 28, p13 + 29, p13 + 30, p13 + 31, p13 + 32, p13 + 33, p13 + 34, p13 + 35, p13 + 36, p13 + 37, p13 + 38, p13 + 39, 9};
Line(14) = {10, 9};
p15 = newp;
Point(p15 + 1) = {8.060125876446513, 1.252424062547332, 0};
Point(p15 + 2) = {8.014861103377399, 1.440965411405303, 0};
Point(p15 + 3) = {7.940659249730793, 1.620104532832166, 0};
Point(p15 + 4) = {7.839347411405303, 1.785430427129736, 0};
Point(p15 + 5) = {7.713420222095219, 1.932872222095219, 0};
Point(p15 + 6) = {7.565978427129735, 2.058799411405302, 0};
Point(p15 + 7) = {7.400652532832167, 2.160111249730792, 0};
Point(p15 + 8) = {7.221513411405303, 2.2343131033774, 0};
Point(p15 + 9) = {7.032972062547332, 2.279577876446512, 0};
Point(p15 + 10) = {6.839671, 2.294791, 0};
Point(p15 + 11) = {6.646369937452667, 2.279577876446512, 0};
Point(p15 + 12) = {6.457828588594698, 2.2343131033774, 0};
Point(p15 + 13) = {6.278689467167834, 2.160111249730792, 0};
Point(p15 + 14) = {6.113363572870265, 2.058799411405303, 0};
Point(p15 + 15) = {5.965921777904781, 1.932872222095219, 0};
Point(p15 + 16) = {5.839994588594697, 1.785430427129736, 0};
Point(p15 + 17) = {5.738682750269207, 1.620104532832166, 0};
Point(p15 + 18) = {5.6644808966226, 1.440965411405303, 0};
Point(p15 + 19) = {5.619216123553487, 1.252424062547332, 0};
Point(p15 + 20) = {5.604003000000001, 1.059123, 0};
Point(p15 + 21) = {5.619216123553487, 0.8658219374526681, 0};
Point(p15 + 22) = {5.6644808966226, 0.6772805885946971, 0};
Point(p15 + 23) = {5.738682750269207, 0.4981414671678344, 0};
Point(p15 + 24) = {5.839994588594697, 0.3328155728702645, 0};
Point(p15 + 25) = {5.965921777904781, 0.1853737779047813, 0};
Point(p15 + 26) = {6.113363572870265, 0.05944658859469765, 0};
Point(p15 + 27) = {6.278689467167833, -0.04186524973079209, 0};
Point(p15 + 28) = {6.457828588594698, -0.1160671033773997, 0};
Point(p15 + 29) = {6.646369937452667, -0.1613318764465126, 0};
Point(p15 + 30) = {6.839671, -0.176545, 0};
Point(p15 + 31) = {7.032972062547332, -0.1613318764465126, 0};
Point(p15 + 32) = {7.221513411405303, -0.1160671033773999, 0};
Point(p15 + 33) = {7.400652532832166, -0.04186524973079231, 0};
Point(p15 + 34) = {7.565978427129735, 0.05944658859469731, 0};
Point(p15 + 35) = {7.713420222095219, 0.185373777904781, 0};
Point(p15 + 36) = {7.839347411405303, 0.3328155728702642, 0};
Point(p15 + 37) = {7.940659249730793, 0.4981414671678335, 0};
Point(p15 + 38) = {8.014861103377399, 0.6772805885946973, 0};
Point(p15 + 39) = {8.060125876446513, 0.8658219374526677, 0};
Spline(15) = {10, p15 + 1, p15 + 2, p15 + 3, p15 + 4, p15 + 5, p15 + 6, p15 + 7, p15 + 8, p15 + 9, p15 + 10, p15 + 11, p15 + 12, p15 + 13, p15 + 14, p15 + 15, p15 + 16, p15 + 17, p15 + 18, p15 + 19, p15 + 20, p15 + 21, p15 + 22, p15 + 23, p15 + 24, p15 + 25, p15 + 26, p15 + 27, p15 + 28, p15 + 29, p15 + 30, p15 + 31, p15 + 32, p15 + 33, p15 + 34, p15 + 35, p15 + 36, p15 + 37, p15 + 38, p15 + 39, 10};
p16 = newp;
Point(p16 + 1) = {11.86248510717319, 3.964876978415395, 0.1};
Point(p16 + 2) = {11.84088716672504, 4.054838874798497, 0.1};
Point(p16 + 3) = {11.80548199162884, 4.140314528693938, 0.1};
Point(p16 + 4) = {11.7571413747985, 4.219199245825381, 0.1};
Point(p16 + 5) = {11.69705562265368, 4.289550622653683, 0.1};
Point(p16 + 6) = {11.62670424582538, 4.349636374798497, 0.1};
Point(p16 + 7) = {11.54781952869394, 4.397976991628841, 0.1};
Point(p16 + 8) = {11.4623438747985, 4.433382166725041, 0.1};
Point(p16 + 9) = {11.37238197841539, 4.45498010717319, 0.1};
Point(p16 + 10) = {11.280149, 4.462239, 0.1};
Point(p16 + 11) = {11.18791602158461, 4.45498010717319, 0.1};
Point(p16 + 12) = {11.0979541252015, 4.433382166725041, 0.1};
Point(p16 + 13) = {11.01247847130606, 4.397976991628841, 0.1};
Point(p16 + 14) = {10.93359375417462, 4.349636374798497, 0.1};
Point(p16 + 15) = {10.86324237734632, 4.289550622653683, 0.1};
Point(p16 + 16) = {10.8031566252015, 4.219199245825381, 0.1};
Point(p16 + 17) = {10.75481600837116, 4.140314528693938, 0.1};
Point(p16 + 18) = {10.71941083327496, 4.054838874798497, 0.1};
Point(p16 + 19) = {10.69781289282681, 3.964876978415395, 0.1};
Point(p16 + 20) = {10.690554, 3.872644, 0.1};
Point(p16 + 21) = {10.69781289282681, 3.780411021584605, 0.1};
Point(p16 + 22) = {10.71941083327496, 3.690449125201503, 0.1};
Point(p16 + 23) = {10.75481600837116, 3.604973471306062, 0.1};
Point(p16 + 24) = {10.8031566252015, 3.52608875417462, 0.1};
Point(p16 + 25) = {10.86324237734632, 3.455737377346318, 0.1};
Point(p16 + 26) = {10.93359375417462, 3.395651625201503, 0.1};
Point(p16 + 27) = {11.01247847130606, 3.347311008371159, 0.1};
Point(p16 + 28) = {11.0979541252015, 3.311905833274959, 0.1};
Point(p16 + 29) = {11.1879160215846, 3.29030789282681, 0.1};
Point(p16 + 30) = {11.280149, 3.283049, 0.1};
Point(p16 + 31) = {11.37238197841539, 3.29030789282681, 0.1};
Point(p16 + 32) = {11.4623438747985, 3.311905833274959, 0.1};
Point(p16 + 33) = {11.54781952869394, 3.347311008371159, 0.1};
Point(p16 + 34) = {11.62670424582538, 3.395651625201503, 0.1};
Point(p16 + 35) = {11.69705562265368, 3.455737377346318, 0.1};
Point(p16 + 36) = {11.7571413747985, 3.526088754174619, 0.1};
Point(p16 + 37) = {11.80548199162884, 3.604973471306062, 0.1};
Point(p16 + 38) = {11.84088716672504, 3.690449125201503, 0.1};
Point(p16 + 39) = {11.86248510717319, 3.780411021584605, 0.1};
Spline(16) = {11, p16 + 1, p16 + 2, p16 + 3, p16 + 4, p16 + 5, p16 + 6, p16 + 7, p16 + 8, p16 + 9, p16 + 10, p16 + 11, p16 + 12, p16 + 13, p16 + 14, p16 + 15, p16 + 16, p16 + 17, p16 + 18, p16 + 19, p16 + 20, p16 + 21, p16 + 22, p16 + 23, p16 + 24, p16 + 25, p16 + 26, p16 + 27, p16 + 28, p16 + 29, p16 + 30, p16 + 31, p16 + 32, p16 + 33, p16 + 34, p16 + 35, p16 + 36, p16 + 37, p16 + 38, p16 + 39, 11};
Line(17) = {12, 11};
p18 = newp;
Point(p18 + 1) = {11.86248510717319, 3.964876978415395, 0};
Point(p18 + 2) = {11.84088716672504, 4.054838874798497, 0};
Point(p18 + 3) = {11.80548199162884, 4.140314528693938, 0};
Point(p18 + 4) = {11.7571413747985, 4.219199245825381, 0};
Point(p18 + 5) = {11.69705562265368, 4.289550622653683, 0};
Point(p18 + 6) = {11.62670424582538, 4.349636374798497, 0};
Point(p18 + 7) = {11.54781952869394, 4.397976991628841, 0};
Point(p18 + 8) = {11.4623438747985, 4.433382166725041, 0};
Point(p18 + 9) = {11.37238197841539, 4.45498010717319, 0};
Point(p18 + 10) = {11.280149, 4.462239, 0};
Point(p18 + 11) = {11.18791602158461, 4.45498010717319, 0};
Point(p18 + 12) = {11.0979541252015, 4.433382166725041, 0};
Point(p18 + 13) = {11.01247847130606, 4.397976991628841, 0};
Point(p18 + 14) = {10.93359375417462, 4.349636374798497, 0};
Point(p18 + 15) = {10.86324237734632, 4.289550622653683, 0};
Point(p18 + 16) = {10.8031566252015, 4.219199245825381, 0};
Point(p18 + 17) = {10.75481600837116, 4.140314528693938, 0};
Point(p18 + 18) = {10.71941083327496, 4.054838874798497, 0};
Point(p18 + 19) = {10.69781289282681, 3.964876978415395, 0};
Point(p18 + 20) = {10.690554, 3.872644, 0};
Point(p18 + 21) = {10.69781289282681, 3.780411021584605, 0};
Point(p18 + 22) = {10.71941083327496, 3.690449125201503, 0};
Point(p18 + 23) = {10.75481600837116, 3.604973471306062, 0};
Point(p18 + 24) = {10.8031566252015, 3.52608875417462, 0};
Point(p18 + 25) = {10.86324237734632, 3.455737377346318, 0};
Point(p18 + 26) = {10.93359375417462, 3.395651625201503, 0};
Point(p18 + 27) = {11.01247847130606, 3.347311008371159, 0};
Point(p18 + 28) = {11.0979541252015, 3.311905833274959, 0};
Point(p18 + 29) = {11.1879160215846, 3.29030789282681, 0};
Point(p18 + 30) = {11.280149, 3.283049, 0};
Point(p18 + 31) = {11.37238197841539, 3.29030789282681, 0};
Point(p18 + 32) = {11.4623438747985, 3.311905833274959, 0};
Point(p18 + 33) = {11.54781952869394, 3.347311008371159, 0};
Point(p18 + 34) = {11.62670424582538, 3.395651625201503, 0};
Point(p18 + 35) = {11.69705562265368, 3.455737377346318, 0};
Point(p18 + 36) = {11.7571413747985, 3.526088754174619, 0};
Point(p18 + 37) = {11.80548199162884, 3.604973471306062, 0};
Point(p18 + 38) = {11.84088716672504, 3.690449125201503, 0};
Point(p18 + 39) = {11.86248510717319, 3.780411021584605, 0};
Spline(18) = {12, p18 + 1, p18 + 2, p18 + 3, p18 + 4, p18 + 5, p18 + 6, p18 + 7, p18 + 8, p18 + 9, p18 + 10, p18 + 11, p18 + 12, p18 + 13, p18 + 14, p18 + 15, p18 + 16, p18 + 17, p18 + 18, p18 + 19, p18 + 20, p18 + 21, p18 + 22, p18 + 23, p18 + 24, p18 + 25, p18 + 26, p18 + 27, p18 + 28, p18 + 29, p18 + 30, p18 + 31, p18 + 32, p18 + 33, p18 + 34, p18 + 35, p18 + 36, p18 + 37, p18 + 38, p18 + 39, 12};
Line(19) = {14, 13};
Line(20) = {13, 15};
Line(21) = {16, 15};
Line(22) = {14, 16};
Line(23) = {14, 17};
Line(24) = {17, 18};
Line(25) = {13, 18};
Line(26) = {15, 19};
Line(27) = {18, 19};
Line(28) = {16, 20};
Line(29) = {20, 19};
Line(30) = {17, 20};
Curve Loop(7) = {-13, -14, 15, 14};
Surface(7) = {7};
Curve Loop(8) = {13};
Plane Surface(8) = {8};
Curve Loop(9) = {15};
Plane Surface(9) = {9};
Curve Loop(10) = {-16, -17, 18, 17};
Surface(10) = {10};
Curve Loop(11) = {16};
Plane Surface(11) = {11};
Curve Loop(12) = {18};
Plane Surface(12) = {12};
Curve Loop(13) = {-19, 22, 21, -20};
Plane Surface(13) = {13};
Curve Loop(14) = {-23, 19, 25, -24};
Plane Surface(14) = {14};
Curve Loop(15) = {-20, 25, 27, -26};
Plane Surface(15) = {15};
Curve Loop(16) = {-28, 21, 26, -29};
Plane Surface(16) = {16};
Curve Loop(17) = {-22, 23, 30, -28, -15, -18};
Plane Surface(17) = {17};
Curve Loop(18) = {-24, 30, 29, -27};
Plane Surface(18) = {18};
Surface Loop(1) = {13, 14, 15, 16, 17, 18, 7, 10, 8, 11};
Volume(1) = {1};
Surface Loop(2) = {7, 8, 9};
Volume(2) = {2};
Surface Loop(3) = {10, 11, 12};
Volume(3) = {3};
Physical Surface("WALLS") = {13, 18};
Physical Surface("LOAD") = {8, 11};
Physical Surface("BORDER") = {7, 9, 10, 12, 14, 15, 16, 17};
Physical Volume("SOLID") = {1, 2, 3};
