cl__1 = 0.08586000000000001;
cl__2 = 0.054597;
cl__3 = 0.247363;
cl__4 = 0.364819;
cl__5 = 4.743583;
cl__6 = 4.979078;
Point(9) = {7.750605, -1.10581, 0.1, cl__1};
Point(10) = {7.750605, -1.10581, 0, cl__1};
Point(11) = {4.840154, -0.8158280000000002, 0.1, cl__2};
Point(12) = {4.840154, -0.8158280000000002, 0, cl__2};
Point(13) = {0.416028, -4.007241, 1, cl__3};
Point(14) = {0.416028, -4.007241, 0, cl__3};
Point(15) = {0.416028, 5.188742, 1, cl__4};
Point(16) = {0.416028, 5.188742, 0, cl__4};
Point(17) = {38.022648, -4.007241, 0, cl__5};
Point(18) = {38.022648, -4.007241, 1, cl__5};
Point(19) = {38.022648, 5.188742, 1, cl__6};
Point(20) = {38.022648, 5.188742, 0, cl__6};
p13 = newp;
Point(p13 + 1) = {7.740034221546645, -0.9714955247509227, 0.1};
Point(p13 + 2) = {7.708582173834503, -0.8404883176466644, 0.1};
Point(p13 + 3) = {7.657023310661609, -0.7160142109141249, 0.1};
Point(p13 + 4) = {7.586627182353336, -0.6011381701669348, 0.1};
Point(p13 + 5) = {7.499127175219989, -0.4986888247800115, 0.1};
Point(p13 + 6) = {7.396677829833066, -0.4111888176466646, 0.1};
Point(p13 + 7) = {7.281801789085875, -0.3407926893383916, 0.1};
Point(p13 + 8) = {7.157327682353336, -0.2892338261654974, 0.1};
Point(p13 + 9) = {7.026320475249078, -0.2577817784533553, 0.1};
Point(p13 + 10) = {6.892006, -0.247211, 0.1};
Point(p13 + 11) = {6.757691524750923, -0.2577817784533554, 0.1};
Point(p13 + 12) = {6.626684317646665, -0.2892338261654973, 0.1};
Point(p13 + 13) = {6.502210210914125, -0.3407926893383915, 0.1};
Point(p13 + 14) = {6.387334170166936, -0.4111888176466645, 0.1};
Point(p13 + 15) = {6.284884824780012, -0.4986888247800114, 0.1};
Point(p13 + 16) = {6.197384817646665, -0.6011381701669347, 0.1};
Point(p13 + 17) = {6.126988689338392, -0.7160142109141248, 0.1};
Point(p13 + 18) = {6.075429826165498, -0.8404883176466644, 0.1};
Point(p13 + 19) = {6.043977778453356, -0.9714955247509227, 0.1};
Point(p13 + 20) = {6.033407, -1.10581, 0.1};
Point(p13 + 21) = {6.043977778453356, -1.240124475249077, 0.1};
Point(p13 + 22) = {6.075429826165498, -1.371131682353336, 0.1};
Point(p13 + 23) = {6.126988689338392, -1.495605789085875, 0.1};
Point(p13 + 24) = {6.197384817646665, -1.610481829833065, 0.1};
Point(p13 + 25) = {6.284884824780011, -1.712931175219988, 0.1};
Point(p13 + 26) = {6.387334170166935, -1.800431182353335, 0.1};
Point(p13 + 27) = {6.502210210914125, -1.870827310661608, 0.1};
Point(p13 + 28) = {6.626684317646665, -1.922386173834502, 0.1};
Point(p13 + 29) = {6.757691524750923, -1.953838221546645, 0.1};
Point(p13 + 30) = {6.892006, -1.964409, 0.1};
Point(p13 + 31) = {7.026320475249078, -1.953838221546645, 0.1};
Point(p13 + 32) = {7.157327682353335, -1.922386173834503, 0.1};
Point(p13 + 33) = {7.281801789085875, -1.870827310661609, 0.1};
Point(p13 + 34) = {7.396677829833065, -1.800431182353336, 0.1};
Point(p13 + 35) = {7.499127175219988, -1.712931175219988, 0.1};
Point(p13 + 36) = {7.586627182353336, -1.610481829833065, 0.1};
Point(p13 + 37) = {7.657023310661609, -1.495605789085875, 0.1};
Point(p13 + 38) = {7.708582173834503, -1.371131682353336, 0.1};
Point(p13 + 39) = {7.740034221546645, -1.240124475249077, 0.1};
Spline(13) = {9, p13 + 1, p13 + 2, p13 + 3, p13 + 4, p13 + 5, p13 + 6, p13 + 7, p13 + 8, p13 + 9, p13 + 10, p13 + 11, p13 + 12, p13 + 13, p13 + 14, p13 + 15, p13 + 16, p13 + 17, p13 + 18, p13 + 19, p13 + 20, p13 + 21, p13 + 22, p13 + 23, p13 + 24, p13 + 25, p13 + 26, p13 + 27, p13 + 28, p13 + 29, p13 + 30, p13 + 31, p13 + 32, p13 + 33, p13 + 34, p13 + 35, p13 + 36, p13 + 37, p13 + 38, p13 + 39, 9};
Line(14) = {10, 9};
p15 = newp;
Point(p15 + 1) = {7.740034221546645, -0.9714955247509227, 0};
Point(p15 + 2) = {7.708582173834503, -0.8404883176466644, 0};
Point(p15 + 3) = {7.657023310661609, -0.7160142109141249, 0};
Point(p15 + 4) = {7.586627182353336, -0.6011381701669348, 0};
Point(p15 + 5) = {7.499127175219989, -0.4986888247800115, 0};
Point(p15 + 6) = {7.396677829833066, -0.4111888176466646, 0};
Point(p15 + 7) = {7.281801789085875, -0.3407926893383916, 0};
Point(p15 + 8) = {7.157327682353336, -0.2892338261654974, 0};
Point(p15 + 9) = {7.026320475249078, -0.2577817784533553, 0};
Point(p15 + 10) = {6.892006, -0.247211, 0};
Point(p15 + 11) = {6.757691524750923, -0.2577817784533554, 0};
Point(p15 + 12) = {6.626684317646665, -0.2892338261654973, 0};
Point(p15 + 13) = {6.502210210914125, -0.3407926893383915, 0};
Point(p15 + 14) = {6.387334170166936, -0.4111888176466645, 0};
Point(p15 + 15) = {6.284884824780012, -0.4986888247800114, 0};
Point(p15 + 16) = {6.197384817646665, -0.6011381701669347, 0};
Point(p15 + 17) = {6.126988689338392, -0.7160142109141248, 0};
Point(p15 + 18) = {6.075429826165498, -0.8404883176466644, 0};
Point(p15 + 19) = {6.043977778453356, -0.9714955247509227, 0};
Point(p15 + 20) = {6.033407, -1.10581, 0};
Point(p15 + 21) = {6.043977778453356, -1.240124475249077, 0};
Point(p15 + 22) = {6.075429826165498, -1.371131682353336, 0};
Point(p15 + 23) = {6.126988689338392, -1.495605789085875, 0};
Point(p15 + 24) = {6.197384817646665, -1.610481829833065, 0};
Point(p15 + 25) = {6.284884824780011, -1.712931175219988, 0};
Point(p15 + 26) = {6.387334170166935, -1.800431182353335, 0};
Point(p15 + 27) = {6.502210210914125, -1.870827310661608, 0};
Point(p15 + 28) = {6.626684317646665, -1.922386173834502, 0};
Point(p15 + 29) = {6.757691524750923, -1.953838221546645, 0};
Point(p15 + 30) = {6.892006, -1.964409, 0};
Point(p15 + 31) = {7.026320475249078, -1.953838221546645, 0};
Point(p15 + 32) = {7.157327682353335, -1.922386173834503, 0};
Point(p15 + 33) = {7.281801789085875, -1.870827310661609, 0};
Point(p15 + 34) = {7.396677829833065, -1.800431182353336, 0};
Point(p15 + 35) = {7.499127175219988, -1.712931175219988, 0};
Point(p15 + 36) = {7.586627182353336, -1.610481829833065, 0};
Point(p15 + 37) = {7.657023310661609, -1.495605789085875, 0};
Point(p15 + 38) = {7.708582173834503, -1.371131682353336, 0};
Point(p15 + 39) = {7.740034221546645, -1.240124475249077, 0};
Spline(15) = {10, p15 + 1, p15 + 2, p15 + 3, p15 + 4, p15 + 5, p15 + 6, p15 + 7, p15 + 8, p15 + 9, p15 + 10, p15 + 11, p15 + 12, p15 + 13, p15 + 14, p15 + 15, p15 + 16, p15 + 17, p15 + 18, p15 + 19, p15 + 20, p15 + 21, p15 + 22, p15 + 23, p15 + 24, p15 + 25, p15 + 26, p15 + 27, p15 + 28, p15 + 29, p15 + 30, p15 + 31, p15 + 32, p15 + 33, p15 + 34, p15 + 35, p15 + 36, p15 + 37, p15 + 38, p15 + 39, 10};
p16 = newp;
Point(p16 + 1) = {4.833432178691409, -0.730419162253055, 0.1};
Point(p16 + 2) = {4.813432228314698, -0.6471133735471212, 0.1};
Point(p16 + 3) = {4.780646614024172, -0.5679618988762002, 0.1};
Point(p16 + 4) = {4.735882626452879, -0.4949137102353738, 0.1};
Point(p16 + 5) = {4.680242503537982, -0.4297674964620183, 0.1};
Point(p16 + 6) = {4.615096289764626, -0.3741273735471212, 0.1};
Point(p16 + 7) = {4.5420481011238, -0.3293633859758284, 0.1};
Point(p16 + 8) = {4.462896626452879, -0.2965777716853024, 0.1};
Point(p16 + 9) = {4.379590837746945, -0.2765778213085914, 0.1};
Point(p16 + 10) = {4.294182, -0.269856, 0.1};
Point(p16 + 11) = {4.208773162253055, -0.2765778213085914, 0.1};
Point(p16 + 12) = {4.125467373547122, -0.2965777716853024, 0.1};
Point(p16 + 13) = {4.0463158988762, -0.3293633859758284, 0.1};
Point(p16 + 14) = {3.973267710235374, -0.3741273735471212, 0.1};
Point(p16 + 15) = {3.908121496462019, -0.4297674964620182, 0.1};
Point(p16 + 16) = {3.852481373547121, -0.4949137102353738, 0.1};
Point(p16 + 17) = {3.807717385975828, -0.5679618988762001, 0.1};
Point(p16 + 18) = {3.774931771685303, -0.6471133735471212, 0.1};
Point(p16 + 19) = {3.754931821308592, -0.730419162253055, 0.1};
Point(p16 + 20) = {3.74821, -0.8158279999999999, 0.1};
Point(p16 + 21) = {3.754931821308592, -0.9012368377469449, 0.1};
Point(p16 + 22) = {3.774931771685303, -0.9845426264528789, 0.1};
Point(p16 + 23) = {3.807717385975828, -1.063694101123799, 0.1};
Point(p16 + 24) = {3.852481373547121, -1.136742289764626, 0.1};
Point(p16 + 25) = {3.908121496462019, -1.201888503537982, 0.1};
Point(p16 + 26) = {3.973267710235374, -1.257528626452879, 0.1};
Point(p16 + 27) = {4.0463158988762, -1.302292614024172, 0.1};
Point(p16 + 28) = {4.125467373547122, -1.335078228314698, 0.1};
Point(p16 + 29) = {4.208773162253055, -1.355078178691409, 0.1};
Point(p16 + 30) = {4.294182, -1.3618, 0.1};
Point(p16 + 31) = {4.379590837746945, -1.355078178691409, 0.1};
Point(p16 + 32) = {4.462896626452879, -1.335078228314698, 0.1};
Point(p16 + 33) = {4.5420481011238, -1.302292614024172, 0.1};
Point(p16 + 34) = {4.615096289764626, -1.257528626452879, 0.1};
Point(p16 + 35) = {4.680242503537982, -1.201888503537982, 0.1};
Point(p16 + 36) = {4.735882626452879, -1.136742289764626, 0.1};
Point(p16 + 37) = {4.780646614024172, -1.0636941011238, 0.1};
Point(p16 + 38) = {4.813432228314698, -0.9845426264528789, 0.1};
Point(p16 + 39) = {4.833432178691409, -0.9012368377469451, 0.1};
Spline(16) = {11, p16 + 1, p16 + 2, p16 + 3, p16 + 4, p16 + 5, p16 + 6, p16 + 7, p16 + 8, p16 + 9, p16 + 10, p16 + 11, p16 + 12, p16 + 13, p16 + 14, p16 + 15, p16 + 16, p16 + 17, p16 + 18, p16 + 19, p16 + 20, p16 + 21, p16 + 22, p16 + 23, p16 + 24, p16 + 25, p16 + 26, p16 + 27, p16 + 28, p16 + 29, p16 + 30, p16 + 31, p16 + 32, p16 + 33, p16 + 34, p16 + 35, p16 + 36, p16 + 37, p16 + 38, p16 + 39, 11};
Line(17) = {12, 11};
p18 = newp;
Point(p18 + 1) = {4.833432178691409, -0.730419162253055, 0};
Point(p18 + 2) = {4.813432228314698, -0.6471133735471212, 0};
Point(p18 + 3) = {4.780646614024172, -0.5679618988762002, 0};
Point(p18 + 4) = {4.735882626452879, -0.4949137102353738, 0};
Point(p18 + 5) = {4.680242503537982, -0.4297674964620183, 0};
Point(p18 + 6) = {4.615096289764626, -0.3741273735471212, 0};
Point(p18 + 7) = {4.5420481011238, -0.3293633859758284, 0};
Point(p18 + 8) = {4.462896626452879, -0.2965777716853024, 0};
Point(p18 + 9) = {4.379590837746945, -0.2765778213085914, 0};
Point(p18 + 10) = {4.294182, -0.269856, 0};
Point(p18 + 11) = {4.208773162253055, -0.2765778213085914, 0};
Point(p18 + 12) = {4.125467373547122, -0.2965777716853024, 0};
Point(p18 + 13) = {4.0463158988762, -0.3293633859758284, 0};
Point(p18 + 14) = {3.973267710235374, -0.3741273735471212, 0};
Point(p18 + 15) = {3.908121496462019, -0.4297674964620182, 0};
Point(p18 + 16) = {3.852481373547121, -0.4949137102353738, 0};
Point(p18 + 17) = {3.807717385975828, -0.5679618988762001, 0};
Point(p18 + 18) = {3.774931771685303, -0.6471133735471212, 0};
Point(p18 + 19) = {3.754931821308592, -0.730419162253055, 0};
Point(p18 + 20) = {3.74821, -0.8158279999999999, 0};
Point(p18 + 21) = {3.754931821308592, -0.9012368377469449, 0};
Point(p18 + 22) = {3.774931771685303, -0.9845426264528789, 0};
Point(p18 + 23) = {3.807717385975828, -1.063694101123799, 0};
Point(p18 + 24) = {3.852481373547121, -1.136742289764626, 0};
Point(p18 + 25) = {3.908121496462019, -1.201888503537982, 0};
Point(p18 + 26) = {3.973267710235374, -1.257528626452879, 0};
Point(p18 + 27) = {4.0463158988762, -1.302292614024172, 0};
Point(p18 + 28) = {4.125467373547122, -1.335078228314698, 0};
Point(p18 + 29) = {4.208773162253055, -1.355078178691409, 0};
Point(p18 + 30) = {4.294182, -1.3618, 0};
Point(p18 + 31) = {4.379590837746945, -1.355078178691409, 0};
Point(p18 + 32) = {4.462896626452879, -1.335078228314698, 0};
Point(p18 + 33) = {4.5420481011238, -1.302292614024172, 0};
Point(p18 + 34) = {4.615096289764626, -1.257528626452879, 0};
Point(p18 + 35) = {4.680242503537982, -1.201888503537982, 0};
Point(p18 + 36) = {4.735882626452879, -1.136742289764626, 0};
Point(p18 + 37) = {4.780646614024172, -1.0636941011238, 0};
Point(p18 + 38) = {4.813432228314698, -0.9845426264528789, 0};
Point(p18 + 39) = {4.833432178691409, -0.9012368377469451, 0};
Spline(18) = {12, p18 + 1, p18 + 2, p18 + 3, p18 + 4, p18 + 5, p18 + 6, p18 + 7, p18 + 8, p18 + 9, p18 + 10, p18 + 11, p18 + 12, p18 + 13, p18 + 14, p18 + 15, p18 + 16, p18 + 17, p18 + 18, p18 + 19, p18 + 20, p18 + 21, p18 + 22, p18 + 23, p18 + 24, p18 + 25, p18 + 26, p18 + 27, p18 + 28, p18 + 29, p18 + 30, p18 + 31, p18 + 32, p18 + 33, p18 + 34, p18 + 35, p18 + 36, p18 + 37, p18 + 38, p18 + 39, 12};
Line(19) = {14, 13};
Line(20) = {13, 15};
Line(21) = {16, 15};
Line(22) = {14, 16};
Line(23) = {14, 17};
Line(24) = {17, 18};
Line(25) = {13, 18};
Line(26) = {15, 19};
Line(27) = {18, 19};
Line(28) = {16, 20};
Line(29) = {20, 19};
Line(30) = {17, 20};
Curve Loop(7) = {-13, -14, 15, 14};
Surface(7) = {7};
Curve Loop(8) = {13};
Plane Surface(8) = {8};
Curve Loop(9) = {15};
Plane Surface(9) = {9};
Curve Loop(10) = {-16, -17, 18, 17};
Surface(10) = {10};
Curve Loop(11) = {16};
Plane Surface(11) = {11};
Curve Loop(12) = {18};
Plane Surface(12) = {12};
Curve Loop(13) = {-19, 22, 21, -20};
Plane Surface(13) = {13};
Curve Loop(14) = {-23, 19, 25, -24};
Plane Surface(14) = {14};
Curve Loop(15) = {-20, 25, 27, -26};
Plane Surface(15) = {15};
Curve Loop(16) = {-28, 21, 26, -29};
Plane Surface(16) = {16};
Curve Loop(17) = {-22, 23, 30, -28, -18, -15};
Plane Surface(17) = {17};
Curve Loop(18) = {-24, 30, 29, -27};
Plane Surface(18) = {18};
Surface Loop(1) = {13, 14, 15, 16, 17, 18, 10, 7, 11, 8};
Volume(1) = {1};
Surface Loop(2) = {7, 8, 9};
Volume(2) = {2};
Surface Loop(3) = {10, 11, 12};
Volume(3) = {3};
Physical Surface("WALLS") = {13, 18};
Physical Surface("LOAD") = {8, 11};
Physical Surface("BORDER") = {7, 9, 10, 12, 14, 15, 16, 17};
Physical Volume("SOLID") = {1, 2, 3};
