cl__1 = 0.06547799999999999;
cl__2 = 0.077556;
cl__3 = 0.652451;
cl__4 = 0.734307;
cl__5 = 2.120549;
cl__6 = 2.344681;
Point(9) = {11.957702, -1.073548, 0.1, cl__1};
Point(10) = {11.957702, -1.073548, 0, cl__1};
Point(11) = {15.930539, -1.047247, 0.1, cl__2};
Point(12) = {15.930539, -1.047247, 0, cl__2};
Point(13) = {0.709149, -3.107863, 1, cl__3};
Point(14) = {0.709149, -3.107863, 0, cl__3};
Point(15) = {0.709149, 4.686709, 1, cl__4};
Point(16) = {0.709149, 4.686709, 0, cl__4};
Point(17) = {35.779872, -3.107863, 0, cl__5};
Point(18) = {35.779872, -3.107863, 1, cl__5};
Point(19) = {35.779872, 4.686709, 1, cl__6};
Point(20) = {35.779872, 4.686709, 0, cl__6};
p13 = newp;
Point(p13 + 1) = {11.94964058396654, -0.9711179974154226, 0.1};
Point(p13 + 2) = {11.92565483468322, -0.8712101614401663, 0.1};
Point(p13 + 3) = {11.88633536090154, -0.7762845545710393, 0.1};
Point(p13 + 4) = {11.83265033855983, -0.6886785602891867, 0.1};
Point(p13 + 5) = {11.76592167107855, -0.6105493289214536, 0.1};
Point(p13 + 6) = {11.68779243971081, -0.5438206614401663, 0.1};
Point(p13 + 7) = {11.60018644542896, -0.4901356390984647, 0.1};
Point(p13 + 8) = {11.50526083855983, -0.4508161653167756, 0.1};
Point(p13 + 9) = {11.40535300258458, -0.4268304160334563, 0.1};
Point(p13 + 10) = {11.302923, -0.4187689999999999, 0.1};
Point(p13 + 11) = {11.20049299741542, -0.4268304160334563, 0.1};
Point(p13 + 12) = {11.10058516144017, -0.4508161653167755, 0.1};
Point(p13 + 13) = {11.00565955457104, -0.4901356390984646, 0.1};
Point(p13 + 14) = {10.91805356028919, -0.5438206614401663, 0.1};
Point(p13 + 15) = {10.83992432892145, -0.6105493289214535, 0.1};
Point(p13 + 16) = {10.77319566144017, -0.6886785602891866, 0.1};
Point(p13 + 17) = {10.71951063909846, -0.7762845545710392, 0.1};
Point(p13 + 18) = {10.68019116531678, -0.8712101614401662, 0.1};
Point(p13 + 19) = {10.65620541603346, -0.9711179974154225, 0.1};
Point(p13 + 20) = {10.648144, -1.073548, 0.1};
Point(p13 + 21) = {10.65620541603346, -1.175978002584577, 0.1};
Point(p13 + 22) = {10.68019116531678, -1.275885838559834, 0.1};
Point(p13 + 23) = {10.71951063909846, -1.37081144542896, 0.1};
Point(p13 + 24) = {10.77319566144017, -1.458417439710813, 0.1};
Point(p13 + 25) = {10.83992432892145, -1.536546671078546, 0.1};
Point(p13 + 26) = {10.91805356028919, -1.603275338559834, 0.1};
Point(p13 + 27) = {11.00565955457104, -1.656960360901535, 0.1};
Point(p13 + 28) = {11.10058516144017, -1.696279834683224, 0.1};
Point(p13 + 29) = {11.20049299741542, -1.720265583966543, 0.1};
Point(p13 + 30) = {11.302923, -1.728327, 0.1};
Point(p13 + 31) = {11.40535300258458, -1.720265583966543, 0.1};
Point(p13 + 32) = {11.50526083855983, -1.696279834683224, 0.1};
Point(p13 + 33) = {11.60018644542896, -1.656960360901535, 0.1};
Point(p13 + 34) = {11.68779243971081, -1.603275338559834, 0.1};
Point(p13 + 35) = {11.76592167107855, -1.536546671078546, 0.1};
Point(p13 + 36) = {11.83265033855983, -1.458417439710813, 0.1};
Point(p13 + 37) = {11.88633536090154, -1.370811445428961, 0.1};
Point(p13 + 38) = {11.92565483468322, -1.275885838559834, 0.1};
Point(p13 + 39) = {11.94964058396654, -1.175978002584577, 0.1};
Spline(13) = {9, p13 + 1, p13 + 2, p13 + 3, p13 + 4, p13 + 5, p13 + 6, p13 + 7, p13 + 8, p13 + 9, p13 + 10, p13 + 11, p13 + 12, p13 + 13, p13 + 14, p13 + 15, p13 + 16, p13 + 17, p13 + 18, p13 + 19, p13 + 20, p13 + 21, p13 + 22, p13 + 23, p13 + 24, p13 + 25, p13 + 26, p13 + 27, p13 + 28, p13 + 29, p13 + 30, p13 + 31, p13 + 32, p13 + 33, p13 + 34, p13 + 35, p13 + 36, p13 + 37, p13 + 38, p13 + 39, 9};
Line(14) = {10, 9};
p15 = newp;
Point(p15 + 1) = {11.94964058396654, -0.9711179974154226, 0};
Point(p15 + 2) = {11.92565483468322, -0.8712101614401663, 0};
Point(p15 + 3) = {11.88633536090154, -0.7762845545710393, 0};
Point(p15 + 4) = {11.83265033855983, -0.6886785602891867, 0};
Point(p15 + 5) = {11.76592167107855, -0.6105493289214536, 0};
Point(p15 + 6) = {11.68779243971081, -0.5438206614401663, 0};
Point(p15 + 7) = {11.60018644542896, -0.4901356390984647, 0};
Point(p15 + 8) = {11.50526083855983, -0.4508161653167756, 0};
Point(p15 + 9) = {11.40535300258458, -0.4268304160334563, 0};
Point(p15 + 10) = {11.302923, -0.4187689999999999, 0};
Point(p15 + 11) = {11.20049299741542, -0.4268304160334563, 0};
Point(p15 + 12) = {11.10058516144017, -0.4508161653167755, 0};
Point(p15 + 13) = {11.00565955457104, -0.4901356390984646, 0};
Point(p15 + 14) = {10.91805356028919, -0.5438206614401663, 0};
Point(p15 + 15) = {10.83992432892145, -0.6105493289214535, 0};
Point(p15 + 16) = {10.77319566144017, -0.6886785602891866, 0};
Point(p15 + 17) = {10.71951063909846, -0.7762845545710392, 0};
Point(p15 + 18) = {10.68019116531678, -0.8712101614401662, 0};
Point(p15 + 19) = {10.65620541603346, -0.9711179974154225, 0};
Point(p15 + 20) = {10.648144, -1.073548, 0};
Point(p15 + 21) = {10.65620541603346, -1.175978002584577, 0};
Point(p15 + 22) = {10.68019116531678, -1.275885838559834, 0};
Point(p15 + 23) = {10.71951063909846, -1.37081144542896, 0};
Point(p15 + 24) = {10.77319566144017, -1.458417439710813, 0};
Point(p15 + 25) = {10.83992432892145, -1.536546671078546, 0};
Point(p15 + 26) = {10.91805356028919, -1.603275338559834, 0};
Point(p15 + 27) = {11.00565955457104, -1.656960360901535, 0};
Point(p15 + 28) = {11.10058516144017, -1.696279834683224, 0};
Point(p15 + 29) = {11.20049299741542, -1.720265583966543, 0};
Point(p15 + 30) = {11.302923, -1.728327, 0};
Point(p15 + 31) = {11.40535300258458, -1.720265583966543, 0};
Point(p15 + 32) = {11.50526083855983, -1.696279834683224, 0};
Point(p15 + 33) = {11.60018644542896, -1.656960360901535, 0};
Point(p15 + 34) = {11.68779243971081, -1.603275338559834, 0};
Point(p15 + 35) = {11.76592167107855, -1.536546671078546, 0};
Point(p15 + 36) = {11.83265033855983, -1.458417439710813, 0};
Point(p15 + 37) = {11.88633536090154, -1.370811445428961, 0};
Point(p15 + 38) = {11.92565483468322, -1.275885838559834, 0};
Point(p15 + 39) = {11.94964058396654, -1.175978002584577, 0};
Spline(15) = {10, p15 + 1, p15 + 2, p15 + 3, p15 + 4, p15 + 5, p15 + 6, p15 + 7, p15 + 8, p15 + 9, p15 + 10, p15 + 11, p15 + 12, p15 + 13, p15 + 14, p15 + 15, p15 + 16, p15 + 17, p15 + 18, p15 + 19, p15 + 20, p15 + 21, p15 + 22, p15 + 23, p15 + 24, p15 + 25, p15 + 26, p15 + 27, p15 + 28, p15 + 29, p15 + 30, p15 + 31, p15 + 32, p15 + 33, p15 + 34, p15 + 35, p15 + 36, p15 + 37, p15 + 38, p15 + 39, 10};
p16 = newp;
Point(p16 + 1) = {15.92099055712031, -0.9259225298589335, 0.1};
Point(p16 + 2) = {15.89258034283439, -0.8075854708255714, 0.1};
Point(p16 + 3) = {15.84600791090605, -0.6951496740314975, 0.1};
Point(p16 + 4) = {15.78242002917443, -0.5913836819467972, 0.1};
Point(p16 + 5) = {15.70338244232382, -0.4988425576761801, 0.1};
Point(p16 + 6) = {15.6108413180532, -0.4198049708255716, 0.1};
Point(p16 + 7) = {15.5070753259685, -0.3562170890939453, 0.1};
Point(p16 + 8) = {15.39463952917443, -0.3096446571656145, 0.1};
Point(p16 + 9) = {15.27630247014107, -0.2812344428796945, 0.1};
Point(p16 + 10) = {15.154978, -0.2716860000000001, 0.1};
Point(p16 + 11) = {15.03365352985893, -0.2812344428796946, 0.1};
Point(p16 + 12) = {14.91531647082557, -0.3096446571656144, 0.1};
Point(p16 + 13) = {14.8028806740315, -0.3562170890939453, 0.1};
Point(p16 + 14) = {14.6991146819468, -0.4198049708255714, 0.1};
Point(p16 + 15) = {14.60657355767618, -0.49884255767618, 0.1};
Point(p16 + 16) = {14.52753597082557, -0.5913836819467972, 0.1};
Point(p16 + 17) = {14.46394808909394, -0.6951496740314973, 0.1};
Point(p16 + 18) = {14.41737565716561, -0.8075854708255714, 0.1};
Point(p16 + 19) = {14.38896544287969, -0.9259225298589335, 0.1};
Point(p16 + 20) = {14.379417, -1.047247, 0.1};
Point(p16 + 21) = {14.38896544287969, -1.168571470141067, 0.1};
Point(p16 + 22) = {14.41737565716561, -1.286908529174429, 0.1};
Point(p16 + 23) = {14.46394808909394, -1.399344325968502, 0.1};
Point(p16 + 24) = {14.52753597082557, -1.503110318053203, 0.1};
Point(p16 + 25) = {14.60657355767618, -1.59565144232382, 0.1};
Point(p16 + 26) = {14.6991146819468, -1.674689029174429, 0.1};
Point(p16 + 27) = {14.8028806740315, -1.738276910906055, 0.1};
Point(p16 + 28) = {14.91531647082557, -1.784849342834386, 0.1};
Point(p16 + 29) = {15.03365352985893, -1.813259557120305, 0.1};
Point(p16 + 30) = {15.154978, -1.822808, 0.1};
Point(p16 + 31) = {15.27630247014107, -1.813259557120306, 0.1};
Point(p16 + 32) = {15.39463952917443, -1.784849342834386, 0.1};
Point(p16 + 33) = {15.5070753259685, -1.738276910906055, 0.1};
Point(p16 + 34) = {15.6108413180532, -1.674689029174429, 0.1};
Point(p16 + 35) = {15.70338244232382, -1.59565144232382, 0.1};
Point(p16 + 36) = {15.78242002917443, -1.503110318053203, 0.1};
Point(p16 + 37) = {15.84600791090605, -1.399344325968503, 0.1};
Point(p16 + 38) = {15.89258034283439, -1.286908529174429, 0.1};
Point(p16 + 39) = {15.92099055712031, -1.168571470141067, 0.1};
Spline(16) = {11, p16 + 1, p16 + 2, p16 + 3, p16 + 4, p16 + 5, p16 + 6, p16 + 7, p16 + 8, p16 + 9, p16 + 10, p16 + 11, p16 + 12, p16 + 13, p16 + 14, p16 + 15, p16 + 16, p16 + 17, p16 + 18, p16 + 19, p16 + 20, p16 + 21, p16 + 22, p16 + 23, p16 + 24, p16 + 25, p16 + 26, p16 + 27, p16 + 28, p16 + 29, p16 + 30, p16 + 31, p16 + 32, p16 + 33, p16 + 34, p16 + 35, p16 + 36, p16 + 37, p16 + 38, p16 + 39, 11};
Line(17) = {12, 11};
p18 = newp;
Point(p18 + 1) = {15.92099055712031, -0.9259225298589335, 0};
Point(p18 + 2) = {15.89258034283439, -0.8075854708255714, 0};
Point(p18 + 3) = {15.84600791090605, -0.6951496740314975, 0};
Point(p18 + 4) = {15.78242002917443, -0.5913836819467972, 0};
Point(p18 + 5) = {15.70338244232382, -0.4988425576761801, 0};
Point(p18 + 6) = {15.6108413180532, -0.4198049708255716, 0};
Point(p18 + 7) = {15.5070753259685, -0.3562170890939453, 0};
Point(p18 + 8) = {15.39463952917443, -0.3096446571656145, 0};
Point(p18 + 9) = {15.27630247014107, -0.2812344428796945, 0};
Point(p18 + 10) = {15.154978, -0.2716860000000001, 0};
Point(p18 + 11) = {15.03365352985893, -0.2812344428796946, 0};
Point(p18 + 12) = {14.91531647082557, -0.3096446571656144, 0};
Point(p18 + 13) = {14.8028806740315, -0.3562170890939453, 0};
Point(p18 + 14) = {14.6991146819468, -0.4198049708255714, 0};
Point(p18 + 15) = {14.60657355767618, -0.49884255767618, 0};
Point(p18 + 16) = {14.52753597082557, -0.5913836819467972, 0};
Point(p18 + 17) = {14.46394808909394, -0.6951496740314973, 0};
Point(p18 + 18) = {14.41737565716561, -0.8075854708255714, 0};
Point(p18 + 19) = {14.38896544287969, -0.9259225298589335, 0};
Point(p18 + 20) = {14.379417, -1.047247, 0};
Point(p18 + 21) = {14.38896544287969, -1.168571470141067, 0};
Point(p18 + 22) = {14.41737565716561, -1.286908529174429, 0};
Point(p18 + 23) = {14.46394808909394, -1.399344325968502, 0};
Point(p18 + 24) = {14.52753597082557, -1.503110318053203, 0};
Point(p18 + 25) = {14.60657355767618, -1.59565144232382, 0};
Point(p18 + 26) = {14.6991146819468, -1.674689029174429, 0};
Point(p18 + 27) = {14.8028806740315, -1.738276910906055, 0};
Point(p18 + 28) = {14.91531647082557, -1.784849342834386, 0};
Point(p18 + 29) = {15.03365352985893, -1.813259557120305, 0};
Point(p18 + 30) = {15.154978, -1.822808, 0};
Point(p18 + 31) = {15.27630247014107, -1.813259557120306, 0};
Point(p18 + 32) = {15.39463952917443, -1.784849342834386, 0};
Point(p18 + 33) = {15.5070753259685, -1.738276910906055, 0};
Point(p18 + 34) = {15.6108413180532, -1.674689029174429, 0};
Point(p18 + 35) = {15.70338244232382, -1.59565144232382, 0};
Point(p18 + 36) = {15.78242002917443, -1.503110318053203, 0};
Point(p18 + 37) = {15.84600791090605, -1.399344325968503, 0};
Point(p18 + 38) = {15.89258034283439, -1.286908529174429, 0};
Point(p18 + 39) = {15.92099055712031, -1.168571470141067, 0};
Spline(18) = {12, p18 + 1, p18 + 2, p18 + 3, p18 + 4, p18 + 5, p18 + 6, p18 + 7, p18 + 8, p18 + 9, p18 + 10, p18 + 11, p18 + 12, p18 + 13, p18 + 14, p18 + 15, p18 + 16, p18 + 17, p18 + 18, p18 + 19, p18 + 20, p18 + 21, p18 + 22, p18 + 23, p18 + 24, p18 + 25, p18 + 26, p18 + 27, p18 + 28, p18 + 29, p18 + 30, p18 + 31, p18 + 32, p18 + 33, p18 + 34, p18 + 35, p18 + 36, p18 + 37, p18 + 38, p18 + 39, 12};
Line(19) = {14, 13};
Line(20) = {13, 15};
Line(21) = {16, 15};
Line(22) = {14, 16};
Line(23) = {14, 17};
Line(24) = {17, 18};
Line(25) = {13, 18};
Line(26) = {15, 19};
Line(27) = {18, 19};
Line(28) = {16, 20};
Line(29) = {20, 19};
Line(30) = {17, 20};
Curve Loop(7) = {-13, -14, 15, 14};
Surface(7) = {7};
Curve Loop(8) = {13};
Plane Surface(8) = {8};
Curve Loop(9) = {15};
Plane Surface(9) = {9};
Curve Loop(10) = {-16, -17, 18, 17};
Surface(10) = {10};
Curve Loop(11) = {16};
Plane Surface(11) = {11};
Curve Loop(12) = {18};
Plane Surface(12) = {12};
Curve Loop(13) = {-19, 22, 21, -20};
Plane Surface(13) = {13};
Curve Loop(14) = {-23, 19, 25, -24};
Plane Surface(14) = {14};
Curve Loop(15) = {-20, 25, 27, -26};
Plane Surface(15) = {15};
Curve Loop(16) = {-28, 21, 26, -29};
Plane Surface(16) = {16};
Curve Loop(17) = {-22, 23, 30, -28, -15, -18};
Plane Surface(17) = {17};
Curve Loop(18) = {-24, 30, 29, -27};
Plane Surface(18) = {18};
Surface Loop(1) = {13, 14, 15, 16, 17, 18, 7, 10, 8, 11};
Volume(1) = {1};
Surface Loop(2) = {7, 8, 9};
Volume(2) = {2};
Surface Loop(3) = {10, 11, 12};
Volume(3) = {3};
Physical Surface("WALLS") = {13, 18};
Physical Surface("LOAD") = {8, 11};
Physical Surface("BORDER") = {7, 9, 10, 12, 14, 15, 16, 17};
Physical Volume("SOLID") = {1, 2, 3};
