cl__1 = 0.09569900000000001;
cl__2 = 0.082797;
cl__3 = 0.865461;
cl__4 = 0.91545;
cl__5 = 1.325491;
cl__6 = 1.407219;
Point(9) = {11.099089, -0.2059140000000003, 0.1, cl__1};
Point(10) = {11.099089, -0.2059140000000003, 0, cl__1};
Point(11) = {19.290438, 0.1216049999999998, 0.1, cl__2};
Point(12) = {19.290438, 0.1216049999999998, 0, cl__2};
Point(13) = {0.509123, -3.421218, 1, cl__3};
Point(14) = {0.509123, -3.421218, 0, cl__3};
Point(15) = {0.509123, 4.421372999999999, 1, cl__4};
Point(16) = {0.509123, 4.421372999999999, 0, cl__4};
Point(17) = {30.453034, -3.421218, 0, cl__5};
Point(18) = {30.453034, -3.421218, 1, cl__5};
Point(19) = {30.453034, 4.421372999999999, 1, cl__6};
Point(20) = {30.453034, 4.421372999999999, 0, cl__6};
p13 = newp;
Point(p13 + 1) = {11.0873068773778, -0.05620793773561453, 0.1};
Point(p13 + 2) = {11.05225062447278, 0.08981186442988651, 0.1};
Point(p13 + 3) = {10.9947834425765, 0.2285499143552491, 0.1};
Point(p13 + 4) = {10.91632036442989, 0.3565900208061216, 0.1};
Point(p13 + 5) = {10.81879341142093, 0.4707794114209328, 0.1};
Point(p13 + 6) = {10.70460402080612, 0.5683063644298865, 0.1};
Point(p13 + 7) = {10.57656391435525, 0.6467694425765018, 0.1};
Point(p13 + 8) = {10.43782586442989, 0.7042366244727826, 0.1};
Point(p13 + 9) = {10.29180606226438, 0.7392928773778003, 0.1};
Point(p13 + 10) = {10.1421, 0.7510749999999999, 0.1};
Point(p13 + 11) = {9.992393937735613, 0.7392928773778001, 0.1};
Point(p13 + 12) = {9.846374135570112, 0.7042366244727827, 0.1};
Point(p13 + 13) = {9.707636085644751, 0.6467694425765019, 0.1};
Point(p13 + 14) = {9.579595979193877, 0.5683063644298866, 0.1};
Point(p13 + 15) = {9.465406588579066, 0.4707794114209329, 0.1};
Point(p13 + 16) = {9.367879635570112, 0.3565900208061217, 0.1};
Point(p13 + 17) = {9.289416557423497, 0.2285499143552492, 0.1};
Point(p13 + 18) = {9.231949375527217, 0.08981186442988662, 0.1};
Point(p13 + 19) = {9.1968931226222, -0.05620793773561442, 0.1};
Point(p13 + 20) = {9.185110999999999, -0.2059139999999999, 0.1};
Point(p13 + 21) = {9.1968931226222, -0.3556200622643854, 0.1};
Point(p13 + 22) = {9.231949375527217, -0.5016398644298868, 0.1};
Point(p13 + 23) = {9.289416557423497, -0.6403779143552487, 0.1};
Point(p13 + 24) = {9.367879635570112, -0.7684180208061215, 0.1};
Point(p13 + 25) = {9.465406588579066, -0.8826074114209329, 0.1};
Point(p13 + 26) = {9.579595979193877, -0.9801343644298866, 0.1};
Point(p13 + 27) = {9.707636085644751, -1.058597442576502, 0.1};
Point(p13 + 28) = {9.846374135570112, -1.116064624472783, 0.1};
Point(p13 + 29) = {9.992393937735613, -1.1511208773778, 0.1};
Point(p13 + 30) = {10.1421, -1.162903, 0.1};
Point(p13 + 31) = {10.29180606226438, -1.1511208773778, 0.1};
Point(p13 + 32) = {10.43782586442989, -1.116064624472783, 0.1};
Point(p13 + 33) = {10.57656391435525, -1.058597442576502, 0.1};
Point(p13 + 34) = {10.70460402080612, -0.9801343644298867, 0.1};
Point(p13 + 35) = {10.81879341142093, -0.8826074114209331, 0.1};
Point(p13 + 36) = {10.91632036442989, -0.7684180208061218, 0.1};
Point(p13 + 37) = {10.9947834425765, -0.6403779143552493, 0.1};
Point(p13 + 38) = {11.05225062447278, -0.5016398644298867, 0.1};
Point(p13 + 39) = {11.0873068773778, -0.3556200622643858, 0.1};
Spline(13) = {9, p13 + 1, p13 + 2, p13 + 3, p13 + 4, p13 + 5, p13 + 6, p13 + 7, p13 + 8, p13 + 9, p13 + 10, p13 + 11, p13 + 12, p13 + 13, p13 + 14, p13 + 15, p13 + 16, p13 + 17, p13 + 18, p13 + 19, p13 + 20, p13 + 21, p13 + 22, p13 + 23, p13 + 24, p13 + 25, p13 + 26, p13 + 27, p13 + 28, p13 + 29, p13 + 30, p13 + 31, p13 + 32, p13 + 33, p13 + 34, p13 + 35, p13 + 36, p13 + 37, p13 + 38, p13 + 39, 9};
Line(14) = {10, 9};
p15 = newp;
Point(p15 + 1) = {11.0873068773778, -0.05620793773561453, 0};
Point(p15 + 2) = {11.05225062447278, 0.08981186442988651, 0};
Point(p15 + 3) = {10.9947834425765, 0.2285499143552491, 0};
Point(p15 + 4) = {10.91632036442989, 0.3565900208061216, 0};
Point(p15 + 5) = {10.81879341142093, 0.4707794114209328, 0};
Point(p15 + 6) = {10.70460402080612, 0.5683063644298865, 0};
Point(p15 + 7) = {10.57656391435525, 0.6467694425765018, 0};
Point(p15 + 8) = {10.43782586442989, 0.7042366244727826, 0};
Point(p15 + 9) = {10.29180606226438, 0.7392928773778003, 0};
Point(p15 + 10) = {10.1421, 0.7510749999999999, 0};
Point(p15 + 11) = {9.992393937735613, 0.7392928773778001, 0};
Point(p15 + 12) = {9.846374135570112, 0.7042366244727827, 0};
Point(p15 + 13) = {9.707636085644751, 0.6467694425765019, 0};
Point(p15 + 14) = {9.579595979193877, 0.5683063644298866, 0};
Point(p15 + 15) = {9.465406588579066, 0.4707794114209329, 0};
Point(p15 + 16) = {9.367879635570112, 0.3565900208061217, 0};
Point(p15 + 17) = {9.289416557423497, 0.2285499143552492, 0};
Point(p15 + 18) = {9.231949375527217, 0.08981186442988662, 0};
Point(p15 + 19) = {9.1968931226222, -0.05620793773561442, 0};
Point(p15 + 20) = {9.185110999999999, -0.2059139999999999, 0};
Point(p15 + 21) = {9.1968931226222, -0.3556200622643854, 0};
Point(p15 + 22) = {9.231949375527217, -0.5016398644298868, 0};
Point(p15 + 23) = {9.289416557423497, -0.6403779143552487, 0};
Point(p15 + 24) = {9.367879635570112, -0.7684180208061215, 0};
Point(p15 + 25) = {9.465406588579066, -0.8826074114209329, 0};
Point(p15 + 26) = {9.579595979193877, -0.9801343644298866, 0};
Point(p15 + 27) = {9.707636085644751, -1.058597442576502, 0};
Point(p15 + 28) = {9.846374135570112, -1.116064624472783, 0};
Point(p15 + 29) = {9.992393937735613, -1.1511208773778, 0};
Point(p15 + 30) = {10.1421, -1.162903, 0};
Point(p15 + 31) = {10.29180606226438, -1.1511208773778, 0};
Point(p15 + 32) = {10.43782586442989, -1.116064624472783, 0};
Point(p15 + 33) = {10.57656391435525, -1.058597442576502, 0};
Point(p15 + 34) = {10.70460402080612, -0.9801343644298867, 0};
Point(p15 + 35) = {10.81879341142093, -0.8826074114209331, 0};
Point(p15 + 36) = {10.91632036442989, -0.7684180208061218, 0};
Point(p15 + 37) = {10.9947834425765, -0.6403779143552493, 0};
Point(p15 + 38) = {11.05225062447278, -0.5016398644298867, 0};
Point(p15 + 39) = {11.0873068773778, -0.3556200622643858, 0};
Spline(15) = {10, p15 + 1, p15 + 2, p15 + 3, p15 + 4, p15 + 5, p15 + 6, p15 + 7, p15 + 8, p15 + 9, p15 + 10, p15 + 11, p15 + 12, p15 + 13, p15 + 14, p15 + 15, p15 + 16, p15 + 17, p15 + 18, p15 + 19, p15 + 20, p15 + 21, p15 + 22, p15 + 23, p15 + 24, p15 + 25, p15 + 26, p15 + 27, p15 + 28, p15 + 29, p15 + 30, p15 + 31, p15 + 32, p15 + 33, p15 + 34, p15 + 35, p15 + 36, p15 + 37, p15 + 38, p15 + 39, 10};
p16 = newp;
Point(p16 + 1) = {19.2802443646092, 0.2511274182814998, 0.1};
Point(p16 + 2) = {19.24991445957084, 0.3774605647646477, 0.1};
Point(p16 + 3) = {19.20019510780615, 0.4974936981073536, 0.1};
Point(p16 + 4) = {19.13231056476465, 0.6082712041995898, 0.1};
Point(p16 + 5) = {19.0479323731919, 0.7070653731919009, 0.1};
Point(p16 + 6) = {18.94913820419959, 0.7914435647646476, 0.1};
Point(p16 + 7) = {18.83836069810735, 0.8593281078061461, 0.1};
Point(p16 + 8) = {18.71832756476465, 0.909047459570833, 0.1};
Point(p16 + 9) = {18.5919944182815, 0.9393773646091937, 0.1};
Point(p16 + 10) = {18.462472, 0.9495709999999999, 0.1};
Point(p16 + 11) = {18.3329495817185, 0.9393773646091937, 0.1};
Point(p16 + 12) = {18.20661643523535, 0.9090474595708331, 0.1};
Point(p16 + 13) = {18.08658330189265, 0.8593281078061462, 0.1};
Point(p16 + 14) = {17.97580579580041, 0.7914435647646477, 0.1};
Point(p16 + 15) = {17.8770116268081, 0.707065373191901, 0.1};
Point(p16 + 16) = {17.79263343523536, 0.6082712041995899, 0.1};
Point(p16 + 17) = {17.72474889219385, 0.4974936981073537, 0.1};
Point(p16 + 18) = {17.67502954042917, 0.3774605647646478, 0.1};
Point(p16 + 19) = {17.64469963539081, 0.2511274182814999, 0.1};
Point(p16 + 20) = {17.634506, 0.1216050000000001, 0.1};
Point(p16 + 21) = {17.64469963539081, -0.00791741828149968, 0.1};
Point(p16 + 22) = {17.67502954042917, -0.134250564764648, 0.1};
Point(p16 + 23) = {17.72474889219385, -0.2542836981073532, 0.1};
Point(p16 + 24) = {17.79263343523536, -0.3650612041995897, 0.1};
Point(p16 + 25) = {17.8770116268081, -0.4638553731919009, 0.1};
Point(p16 + 26) = {17.97580579580041, -0.5482335647646477, 0.1};
Point(p16 + 27) = {18.08658330189265, -0.6161181078061462, 0.1};
Point(p16 + 28) = {18.20661643523535, -0.6658374595708331, 0.1};
Point(p16 + 29) = {18.3329495817185, -0.6961673646091938, 0.1};
Point(p16 + 30) = {18.462472, -0.706361, 0.1};
Point(p16 + 31) = {18.5919944182815, -0.6961673646091938, 0.1};
Point(p16 + 32) = {18.71832756476465, -0.6658374595708332, 0.1};
Point(p16 + 33) = {18.83836069810735, -0.6161181078061463, 0.1};
Point(p16 + 34) = {18.94913820419959, -0.5482335647646479, 0.1};
Point(p16 + 35) = {19.0479323731919, -0.4638553731919011, 0.1};
Point(p16 + 36) = {19.13231056476465, -0.3650612041995899, 0.1};
Point(p16 + 37) = {19.20019510780615, -0.2542836981073537, 0.1};
Point(p16 + 38) = {19.24991445957084, -0.1342505647646479, 0.1};
Point(p16 + 39) = {19.2802443646092, -0.007917418281499985, 0.1};
Spline(16) = {11, p16 + 1, p16 + 2, p16 + 3, p16 + 4, p16 + 5, p16 + 6, p16 + 7, p16 + 8, p16 + 9, p16 + 10, p16 + 11, p16 + 12, p16 + 13, p16 + 14, p16 + 15, p16 + 16, p16 + 17, p16 + 18, p16 + 19, p16 + 20, p16 + 21, p16 + 22, p16 + 23, p16 + 24, p16 + 25, p16 + 26, p16 + 27, p16 + 28, p16 + 29, p16 + 30, p16 + 31, p16 + 32, p16 + 33, p16 + 34, p16 + 35, p16 + 36, p16 + 37, p16 + 38, p16 + 39, 11};
Line(17) = {12, 11};
p18 = newp;
Point(p18 + 1) = {19.2802443646092, 0.2511274182814998, 0};
Point(p18 + 2) = {19.24991445957084, 0.3774605647646477, 0};
Point(p18 + 3) = {19.20019510780615, 0.4974936981073536, 0};
Point(p18 + 4) = {19.13231056476465, 0.6082712041995898, 0};
Point(p18 + 5) = {19.0479323731919, 0.7070653731919009, 0};
Point(p18 + 6) = {18.94913820419959, 0.7914435647646476, 0};
Point(p18 + 7) = {18.83836069810735, 0.8593281078061461, 0};
Point(p18 + 8) = {18.71832756476465, 0.909047459570833, 0};
Point(p18 + 9) = {18.5919944182815, 0.9393773646091937, 0};
Point(p18 + 10) = {18.462472, 0.9495709999999999, 0};
Point(p18 + 11) = {18.3329495817185, 0.9393773646091937, 0};
Point(p18 + 12) = {18.20661643523535, 0.9090474595708331, 0};
Point(p18 + 13) = {18.08658330189265, 0.8593281078061462, 0};
Point(p18 + 14) = {17.97580579580041, 0.7914435647646477, 0};
Point(p18 + 15) = {17.8770116268081, 0.707065373191901, 0};
Point(p18 + 16) = {17.79263343523536, 0.6082712041995899, 0};
Point(p18 + 17) = {17.72474889219385, 0.4974936981073537, 0};
Point(p18 + 18) = {17.67502954042917, 0.3774605647646478, 0};
Point(p18 + 19) = {17.64469963539081, 0.2511274182814999, 0};
Point(p18 + 20) = {17.634506, 0.1216050000000001, 0};
Point(p18 + 21) = {17.64469963539081, -0.00791741828149968, 0};
Point(p18 + 22) = {17.67502954042917, -0.134250564764648, 0};
Point(p18 + 23) = {17.72474889219385, -0.2542836981073532, 0};
Point(p18 + 24) = {17.79263343523536, -0.3650612041995897, 0};
Point(p18 + 25) = {17.8770116268081, -0.4638553731919009, 0};
Point(p18 + 26) = {17.97580579580041, -0.5482335647646477, 0};
Point(p18 + 27) = {18.08658330189265, -0.6161181078061462, 0};
Point(p18 + 28) = {18.20661643523535, -0.6658374595708331, 0};
Point(p18 + 29) = {18.3329495817185, -0.6961673646091938, 0};
Point(p18 + 30) = {18.462472, -0.706361, 0};
Point(p18 + 31) = {18.5919944182815, -0.6961673646091938, 0};
Point(p18 + 32) = {18.71832756476465, -0.6658374595708332, 0};
Point(p18 + 33) = {18.83836069810735, -0.6161181078061463, 0};
Point(p18 + 34) = {18.94913820419959, -0.5482335647646479, 0};
Point(p18 + 35) = {19.0479323731919, -0.4638553731919011, 0};
Point(p18 + 36) = {19.13231056476465, -0.3650612041995899, 0};
Point(p18 + 37) = {19.20019510780615, -0.2542836981073537, 0};
Point(p18 + 38) = {19.24991445957084, -0.1342505647646479, 0};
Point(p18 + 39) = {19.2802443646092, -0.007917418281499985, 0};
Spline(18) = {12, p18 + 1, p18 + 2, p18 + 3, p18 + 4, p18 + 5, p18 + 6, p18 + 7, p18 + 8, p18 + 9, p18 + 10, p18 + 11, p18 + 12, p18 + 13, p18 + 14, p18 + 15, p18 + 16, p18 + 17, p18 + 18, p18 + 19, p18 + 20, p18 + 21, p18 + 22, p18 + 23, p18 + 24, p18 + 25, p18 + 26, p18 + 27, p18 + 28, p18 + 29, p18 + 30, p18 + 31, p18 + 32, p18 + 33, p18 + 34, p18 + 35, p18 + 36, p18 + 37, p18 + 38, p18 + 39, 12};
Line(19) = {14, 13};
Line(20) = {13, 15};
Line(21) = {16, 15};
Line(22) = {14, 16};
Line(23) = {14, 17};
Line(24) = {17, 18};
Line(25) = {13, 18};
Line(26) = {15, 19};
Line(27) = {18, 19};
Line(28) = {16, 20};
Line(29) = {20, 19};
Line(30) = {17, 20};
Curve Loop(7) = {-13, -14, 15, 14};
Surface(7) = {7};
Curve Loop(8) = {13};
Plane Surface(8) = {8};
Curve Loop(9) = {15};
Plane Surface(9) = {9};
Curve Loop(10) = {-16, -17, 18, 17};
Surface(10) = {10};
Curve Loop(11) = {16};
Plane Surface(11) = {11};
Curve Loop(12) = {18};
Plane Surface(12) = {12};
Curve Loop(13) = {-19, 22, 21, -20};
Plane Surface(13) = {13};
Curve Loop(14) = {-23, 19, 25, -24};
Plane Surface(14) = {14};
Curve Loop(15) = {-20, 25, 27, -26};
Plane Surface(15) = {15};
Curve Loop(16) = {-28, 21, 26, -29};
Plane Surface(16) = {16};
Curve Loop(17) = {-22, 23, 30, -28, -15, -18};
Plane Surface(17) = {17};
Curve Loop(18) = {-24, 30, 29, -27};
Plane Surface(18) = {18};
Surface Loop(1) = {13, 14, 15, 16, 17, 18, 7, 10, 8, 11};
Volume(1) = {1};
Surface Loop(2) = {7, 8, 9};
Volume(2) = {2};
Surface Loop(3) = {10, 11, 12};
Volume(3) = {3};
Physical Surface("WALLS") = {13, 18};
Physical Surface("LOAD") = {8, 11};
Physical Surface("BORDER") = {7, 9, 10, 12, 14, 15, 16, 17};
Physical Volume("SOLID") = {1, 2, 3};
