cl__1 = 0.119931;
cl__2 = 0.119706;
cl__3 = 1.334127;
cl__4 = 1.399137;
cl__5 = 0.842263;
cl__6 = 0.9384169999999999;
Point(9) = {30.02754, -0.4885610000000003, 0.1, cl__1};
Point(10) = {30.02754, -0.4885610000000003, 0, cl__1};
Point(11) = {14.243832, 0.4626819999999997, 0.1, cl__2};
Point(12) = {14.243832, 0.4626819999999997, 0, cl__2};
Point(13) = {0.705495, -3.838321, 1, cl__3};
Point(14) = {0.705495, -3.838321, 0, cl__3};
Point(15) = {0.705495, 5.309885999999999, 1, cl__4};
Point(16) = {0.705495, 5.309885999999999, 0, cl__4};
Point(17) = {38.54999, -3.838321, 0, cl__5};
Point(18) = {38.54999, -3.838321, 1, cl__5};
Point(19) = {38.54999, 5.309885999999999, 1, cl__6};
Point(20) = {38.54999, 5.309885999999999, 0, cl__6};
p13 = newp;
Point(p13 + 1) = {30.01277449144749, -0.3009474252981357, 0.1};
Point(p13 + 2) = {29.96884154161446, -0.1179535194591875, 0.1};
Point(p13 + 3) = {29.89682292553088, 0.05591480023313555, 0.1};
Point(p13 + 4) = {29.79849198054081, 0.2163763187121382, 0.1};
Point(p13 + 5) = {29.67626994085162, 0.3594799408516194, 0.1};
Point(p13 + 6) = {29.53316631871214, 0.4817019805408125, 0.1};
Point(p13 + 7) = {29.37270480023314, 0.5800329255308756, 0.1};
Point(p13 + 8) = {29.19883648054081, 0.6520515416144568, 0.1};
Point(p13 + 9) = {29.01584257470186, 0.6959844914474953, 0.1};
Point(p13 + 10) = {28.828229, 0.71075, 0.1};
Point(p13 + 11) = {28.64061542529814, 0.6959844914474951, 0.1};
Point(p13 + 12) = {28.45762151945919, 0.652051541614457, 0.1};
Point(p13 + 13) = {28.28375319976686, 0.5800329255308756, 0.1};
Point(p13 + 14) = {28.12329168128786, 0.4817019805408126, 0.1};
Point(p13 + 15) = {27.98018805914838, 0.3594799408516195, 0.1};
Point(p13 + 16) = {27.85796601945919, 0.2163763187121384, 0.1};
Point(p13 + 17) = {27.75963507446912, 0.05591480023313566, 0.1};
Point(p13 + 18) = {27.68761645838554, -0.1179535194591874, 0.1};
Point(p13 + 19) = {27.64368350855251, -0.3009474252981356, 0.1};
Point(p13 + 20) = {27.628918, -0.4885609999999999, 0.1};
Point(p13 + 21) = {27.64368350855251, -0.6761745747018642, 0.1};
Point(p13 + 22) = {27.68761645838554, -0.859168480540813, 0.1};
Point(p13 + 23) = {27.75963507446912, -1.033036800233135, 0.1};
Point(p13 + 24) = {27.85796601945919, -1.193498318712138, 0.1};
Point(p13 + 25) = {27.98018805914838, -1.336601940851619, 0.1};
Point(p13 + 26) = {28.12329168128786, -1.458823980540813, 0.1};
Point(p13 + 27) = {28.28375319976686, -1.557154925530876, 0.1};
Point(p13 + 28) = {28.45762151945919, -1.629173541614457, 0.1};
Point(p13 + 29) = {28.64061542529814, -1.673106491447495, 0.1};
Point(p13 + 30) = {28.828229, -1.687872, 0.1};
Point(p13 + 31) = {29.01584257470186, -1.673106491447495, 0.1};
Point(p13 + 32) = {29.19883648054081, -1.629173541614457, 0.1};
Point(p13 + 33) = {29.37270480023314, -1.557154925530876, 0.1};
Point(p13 + 34) = {29.53316631871214, -1.458823980540813, 0.1};
Point(p13 + 35) = {29.67626994085162, -1.33660194085162, 0.1};
Point(p13 + 36) = {29.79849198054081, -1.193498318712138, 0.1};
Point(p13 + 37) = {29.89682292553088, -1.033036800233136, 0.1};
Point(p13 + 38) = {29.96884154161446, -0.8591684805408129, 0.1};
Point(p13 + 39) = {30.01277449144749, -0.6761745747018646, 0.1};
Spline(13) = {9, p13 + 1, p13 + 2, p13 + 3, p13 + 4, p13 + 5, p13 + 6, p13 + 7, p13 + 8, p13 + 9, p13 + 10, p13 + 11, p13 + 12, p13 + 13, p13 + 14, p13 + 15, p13 + 16, p13 + 17, p13 + 18, p13 + 19, p13 + 20, p13 + 21, p13 + 22, p13 + 23, p13 + 24, p13 + 25, p13 + 26, p13 + 27, p13 + 28, p13 + 29, p13 + 30, p13 + 31, p13 + 32, p13 + 33, p13 + 34, p13 + 35, p13 + 36, p13 + 37, p13 + 38, p13 + 39, 9};
Line(14) = {10, 9};
p15 = newp;
Point(p15 + 1) = {30.01277449144749, -0.3009474252981357, 0};
Point(p15 + 2) = {29.96884154161446, -0.1179535194591875, 0};
Point(p15 + 3) = {29.89682292553088, 0.05591480023313555, 0};
Point(p15 + 4) = {29.79849198054081, 0.2163763187121382, 0};
Point(p15 + 5) = {29.67626994085162, 0.3594799408516194, 0};
Point(p15 + 6) = {29.53316631871214, 0.4817019805408125, 0};
Point(p15 + 7) = {29.37270480023314, 0.5800329255308756, 0};
Point(p15 + 8) = {29.19883648054081, 0.6520515416144568, 0};
Point(p15 + 9) = {29.01584257470186, 0.6959844914474953, 0};
Point(p15 + 10) = {28.828229, 0.71075, 0};
Point(p15 + 11) = {28.64061542529814, 0.6959844914474951, 0};
Point(p15 + 12) = {28.45762151945919, 0.652051541614457, 0};
Point(p15 + 13) = {28.28375319976686, 0.5800329255308756, 0};
Point(p15 + 14) = {28.12329168128786, 0.4817019805408126, 0};
Point(p15 + 15) = {27.98018805914838, 0.3594799408516195, 0};
Point(p15 + 16) = {27.85796601945919, 0.2163763187121384, 0};
Point(p15 + 17) = {27.75963507446912, 0.05591480023313566, 0};
Point(p15 + 18) = {27.68761645838554, -0.1179535194591874, 0};
Point(p15 + 19) = {27.64368350855251, -0.3009474252981356, 0};
Point(p15 + 20) = {27.628918, -0.4885609999999999, 0};
Point(p15 + 21) = {27.64368350855251, -0.6761745747018642, 0};
Point(p15 + 22) = {27.68761645838554, -0.859168480540813, 0};
Point(p15 + 23) = {27.75963507446912, -1.033036800233135, 0};
Point(p15 + 24) = {27.85796601945919, -1.193498318712138, 0};
Point(p15 + 25) = {27.98018805914838, -1.336601940851619, 0};
Point(p15 + 26) = {28.12329168128786, -1.458823980540813, 0};
Point(p15 + 27) = {28.28375319976686, -1.557154925530876, 0};
Point(p15 + 28) = {28.45762151945919, -1.629173541614457, 0};
Point(p15 + 29) = {28.64061542529814, -1.673106491447495, 0};
Point(p15 + 30) = {28.828229, -1.687872, 0};
Point(p15 + 31) = {29.01584257470186, -1.673106491447495, 0};
Point(p15 + 32) = {29.19883648054081, -1.629173541614457, 0};
Point(p15 + 33) = {29.37270480023314, -1.557154925530876, 0};
Point(p15 + 34) = {29.53316631871214, -1.458823980540813, 0};
Point(p15 + 35) = {29.67626994085162, -1.33660194085162, 0};
Point(p15 + 36) = {29.79849198054081, -1.193498318712138, 0};
Point(p15 + 37) = {29.89682292553088, -1.033036800233136, 0};
Point(p15 + 38) = {29.96884154161446, -0.8591684805408129, 0};
Point(p15 + 39) = {30.01277449144749, -0.6761745747018646, 0};
Spline(15) = {10, p15 + 1, p15 + 2, p15 + 3, p15 + 4, p15 + 5, p15 + 6, p15 + 7, p15 + 8, p15 + 9, p15 + 10, p15 + 11, p15 + 12, p15 + 13, p15 + 14, p15 + 15, p15 + 16, p15 + 17, p15 + 18, p15 + 19, p15 + 20, p15 + 21, p15 + 22, p15 + 23, p15 + 24, p15 + 25, p15 + 26, p15 + 27, p15 + 28, p15 + 29, p15 + 30, p15 + 31, p15 + 32, p15 + 33, p15 + 34, p15 + 35, p15 + 36, p15 + 37, p15 + 38, p15 + 39, 10};
p16 = newp;
Point(p16 + 1) = {14.22909424192779, 0.6499429714176637, 0.1};
Point(p16 + 2) = {14.18524386022673, 0.8325929562354915, 0.1};
Point(p16 + 3) = {14.11336059682536, 1.006134505646723, 0.1};
Point(p16 + 4) = {14.01521445623549, 1.166294450753471, 0.1};
Point(p16 + 5) = {13.89322212216683, 1.309129122166825, 0.1};
Point(p16 + 6) = {13.75038745075347, 1.431121456235491, 0.1};
Point(p16 + 7) = {13.59022750564672, 1.529267596825355, 0.1};
Point(p16 + 8) = {13.41668595623549, 1.601150860226728, 0.1};
Point(p16 + 9) = {13.23403597141766, 1.645001241927794, 0.1};
Point(p16 + 10) = {13.046775, 1.659739, 0.1};
Point(p16 + 11) = {12.85951402858234, 1.645001241927794, 0.1};
Point(p16 + 12) = {12.67686404376451, 1.601150860226728, 0.1};
Point(p16 + 13) = {12.50332249435328, 1.529267596825355, 0.1};
Point(p16 + 14) = {12.34316254924653, 1.431121456235491, 0.1};
Point(p16 + 15) = {12.20032787783317, 1.309129122166825, 0.1};
Point(p16 + 16) = {12.07833554376451, 1.166294450753471, 0.1};
Point(p16 + 17) = {11.98018940317464, 1.006134505646723, 0.1};
Point(p16 + 18) = {11.90830613977327, 0.8325929562354915, 0.1};
Point(p16 + 19) = {11.86445575807221, 0.6499429714176638, 0.1};
Point(p16 + 20) = {11.849718, 0.4626820000000001, 0.1};
Point(p16 + 21) = {11.86445575807221, 0.2754210285823365, 0.1};
Point(p16 + 22) = {11.90830613977327, 0.09277104376450818, 0.1};
Point(p16 + 23) = {11.98018940317464, -0.08077050564672211, 0.1};
Point(p16 + 24) = {12.07833554376451, -0.2409304507534709, 0.1};
Point(p16 + 25) = {12.20032787783317, -0.383765122166825, 0.1};
Point(p16 + 26) = {12.34316254924653, -0.5057574562354914, 0.1};
Point(p16 + 27) = {12.50332249435328, -0.603903596825355, 0.1};
Point(p16 + 28) = {12.67686404376451, -0.6757868602267276, 0.1};
Point(p16 + 29) = {12.85951402858234, -0.7196372419277937, 0.1};
Point(p16 + 30) = {13.046775, -0.734375, 0.1};
Point(p16 + 31) = {13.23403597141766, -0.7196372419277939, 0.1};
Point(p16 + 32) = {13.41668595623549, -0.6757868602267276, 0.1};
Point(p16 + 33) = {13.59022750564672, -0.6039035968253552, 0.1};
Point(p16 + 34) = {13.75038745075347, -0.5057574562354916, 0.1};
Point(p16 + 35) = {13.89322212216683, -0.3837651221668253, 0.1};
Point(p16 + 36) = {14.01521445623549, -0.2409304507534711, 0.1};
Point(p16 + 37) = {14.11336059682536, -0.08077050564672289, 0.1};
Point(p16 + 38) = {14.18524386022673, 0.09277104376450829, 0.1};
Point(p16 + 39) = {14.22909424192779, 0.275421028582336, 0.1};
Spline(16) = {11, p16 + 1, p16 + 2, p16 + 3, p16 + 4, p16 + 5, p16 + 6, p16 + 7, p16 + 8, p16 + 9, p16 + 10, p16 + 11, p16 + 12, p16 + 13, p16 + 14, p16 + 15, p16 + 16, p16 + 17, p16 + 18, p16 + 19, p16 + 20, p16 + 21, p16 + 22, p16 + 23, p16 + 24, p16 + 25, p16 + 26, p16 + 27, p16 + 28, p16 + 29, p16 + 30, p16 + 31, p16 + 32, p16 + 33, p16 + 34, p16 + 35, p16 + 36, p16 + 37, p16 + 38, p16 + 39, 11};
Line(17) = {12, 11};
p18 = newp;
Point(p18 + 1) = {14.22909424192779, 0.6499429714176637, 0};
Point(p18 + 2) = {14.18524386022673, 0.8325929562354915, 0};
Point(p18 + 3) = {14.11336059682536, 1.006134505646723, 0};
Point(p18 + 4) = {14.01521445623549, 1.166294450753471, 0};
Point(p18 + 5) = {13.89322212216683, 1.309129122166825, 0};
Point(p18 + 6) = {13.75038745075347, 1.431121456235491, 0};
Point(p18 + 7) = {13.59022750564672, 1.529267596825355, 0};
Point(p18 + 8) = {13.41668595623549, 1.601150860226728, 0};
Point(p18 + 9) = {13.23403597141766, 1.645001241927794, 0};
Point(p18 + 10) = {13.046775, 1.659739, 0};
Point(p18 + 11) = {12.85951402858234, 1.645001241927794, 0};
Point(p18 + 12) = {12.67686404376451, 1.601150860226728, 0};
Point(p18 + 13) = {12.50332249435328, 1.529267596825355, 0};
Point(p18 + 14) = {12.34316254924653, 1.431121456235491, 0};
Point(p18 + 15) = {12.20032787783317, 1.309129122166825, 0};
Point(p18 + 16) = {12.07833554376451, 1.166294450753471, 0};
Point(p18 + 17) = {11.98018940317464, 1.006134505646723, 0};
Point(p18 + 18) = {11.90830613977327, 0.8325929562354915, 0};
Point(p18 + 19) = {11.86445575807221, 0.6499429714176638, 0};
Point(p18 + 20) = {11.849718, 0.4626820000000001, 0};
Point(p18 + 21) = {11.86445575807221, 0.2754210285823365, 0};
Point(p18 + 22) = {11.90830613977327, 0.09277104376450818, 0};
Point(p18 + 23) = {11.98018940317464, -0.08077050564672211, 0};
Point(p18 + 24) = {12.07833554376451, -0.2409304507534709, 0};
Point(p18 + 25) = {12.20032787783317, -0.383765122166825, 0};
Point(p18 + 26) = {12.34316254924653, -0.5057574562354914, 0};
Point(p18 + 27) = {12.50332249435328, -0.603903596825355, 0};
Point(p18 + 28) = {12.67686404376451, -0.6757868602267276, 0};
Point(p18 + 29) = {12.85951402858234, -0.7196372419277937, 0};
Point(p18 + 30) = {13.046775, -0.734375, 0};
Point(p18 + 31) = {13.23403597141766, -0.7196372419277939, 0};
Point(p18 + 32) = {13.41668595623549, -0.6757868602267276, 0};
Point(p18 + 33) = {13.59022750564672, -0.6039035968253552, 0};
Point(p18 + 34) = {13.75038745075347, -0.5057574562354916, 0};
Point(p18 + 35) = {13.89322212216683, -0.3837651221668253, 0};
Point(p18 + 36) = {14.01521445623549, -0.2409304507534711, 0};
Point(p18 + 37) = {14.11336059682536, -0.08077050564672289, 0};
Point(p18 + 38) = {14.18524386022673, 0.09277104376450829, 0};
Point(p18 + 39) = {14.22909424192779, 0.275421028582336, 0};
Spline(18) = {12, p18 + 1, p18 + 2, p18 + 3, p18 + 4, p18 + 5, p18 + 6, p18 + 7, p18 + 8, p18 + 9, p18 + 10, p18 + 11, p18 + 12, p18 + 13, p18 + 14, p18 + 15, p18 + 16, p18 + 17, p18 + 18, p18 + 19, p18 + 20, p18 + 21, p18 + 22, p18 + 23, p18 + 24, p18 + 25, p18 + 26, p18 + 27, p18 + 28, p18 + 29, p18 + 30, p18 + 31, p18 + 32, p18 + 33, p18 + 34, p18 + 35, p18 + 36, p18 + 37, p18 + 38, p18 + 39, 12};
Line(19) = {14, 13};
Line(20) = {13, 15};
Line(21) = {16, 15};
Line(22) = {14, 16};
Line(23) = {14, 17};
Line(24) = {17, 18};
Line(25) = {13, 18};
Line(26) = {15, 19};
Line(27) = {18, 19};
Line(28) = {16, 20};
Line(29) = {20, 19};
Line(30) = {17, 20};
Curve Loop(7) = {-13, -14, 15, 14};
Surface(7) = {7};
Curve Loop(8) = {13};
Plane Surface(8) = {8};
Curve Loop(9) = {15};
Plane Surface(9) = {9};
Curve Loop(10) = {-16, -17, 18, 17};
Surface(10) = {10};
Curve Loop(11) = {16};
Plane Surface(11) = {11};
Curve Loop(12) = {18};
Plane Surface(12) = {12};
Curve Loop(13) = {-19, 22, 21, -20};
Plane Surface(13) = {13};
Curve Loop(14) = {-23, 19, 25, -24};
Plane Surface(14) = {14};
Curve Loop(15) = {-20, 25, 27, -26};
Plane Surface(15) = {15};
Curve Loop(16) = {-28, 21, 26, -29};
Plane Surface(16) = {16};
Curve Loop(17) = {-22, 23, 30, -28, -15, -18};
Plane Surface(17) = {17};
Curve Loop(18) = {-24, 30, 29, -27};
Plane Surface(18) = {18};
Surface Loop(1) = {13, 14, 15, 16, 17, 18, 7, 10, 8, 11};
Volume(1) = {1};
Surface Loop(2) = {7, 8, 9};
Volume(2) = {2};
Surface Loop(3) = {10, 11, 12};
Volume(3) = {3};
Physical Surface("WALLS") = {13, 18};
Physical Surface("LOAD") = {8, 11};
Physical Surface("BORDER") = {7, 9, 10, 12, 14, 15, 16, 17};
Physical Volume("SOLID") = {1, 2, 3};
