cl__1 = 0.055028;
cl__2 = 0.08268499999999999;
cl__3 = 0.385676;
cl__4 = 0.5024960000000001;
cl__5 = 3.337332;
cl__6 = 4.231321;
Point(9) = {4.658047, -0.3488070000000001, 0.1, cl__1};
Point(10) = {4.658047, -0.3488070000000001, 0, cl__1};
Point(11) = {12.302707, -2.625873, 0.1, cl__2};
Point(12) = {12.302707, -2.625873, 0, cl__2};
Point(13) = {0.39402, -3.989045, 1, cl__3};
Point(14) = {0.39402, -3.989045, 0, cl__3};
Point(15) = {0.39402, 5.117829, 1, cl__4};
Point(16) = {0.39402, 5.117829, 0, cl__4};
Point(17) = {30.27102, -3.989045, 0, cl__5};
Point(18) = {30.27102, -3.989045, 1, cl__5};
Point(19) = {30.27102, 5.117829, 1, cl__6};
Point(20) = {30.27102, 5.117829, 0, cl__6};
p13 = newp;
Point(p13 + 1) = {4.651272078504396, -0.2627234604053366, 0.1};
Point(p13 + 2) = {4.631114135069478, -0.178759583250382, 0.1};
Point(p13 + 3) = {4.598069525162996, -0.09898283785082349, 0.1};
Point(p13 + 4) = {4.552951916749618, -0.0253575924422364, 0.1};
Point(p13 + 5) = {4.49687225508524, 0.0403032550852393, 0.1};
Point(p13 + 6) = {4.431211407557764, 0.09638291674961796, 0.1};
Point(p13 + 7) = {4.357586162149176, 0.141500525162996, 0.1};
Point(p13 + 8) = {4.277809416749618, 0.1745451350694786, 0.1};
Point(p13 + 9) = {4.193845539594664, 0.1947030785043954, 0.1};
Point(p13 + 10) = {4.107762, 0.201478, 0.1};
Point(p13 + 11) = {4.021678460405337, 0.1947030785043954, 0.1};
Point(p13 + 12) = {3.937714583250382, 0.1745451350694787, 0.1};
Point(p13 + 13) = {3.857937837850824, 0.141500525162996, 0.1};
Point(p13 + 14) = {3.784312592442237, 0.09638291674961802, 0.1};
Point(p13 + 15) = {3.718651744914761, 0.04030325508523935, 0.1};
Point(p13 + 16) = {3.662572083250382, -0.02535759244223634, 0.1};
Point(p13 + 17) = {3.617454474837004, -0.09898283785082343, 0.1};
Point(p13 + 18) = {3.584409864930522, -0.178759583250382, 0.1};
Point(p13 + 19) = {3.564251921495605, -0.2627234604053365, 0.1};
Point(p13 + 20) = {3.557477, -0.3488069999999999, 0.1};
Point(p13 + 21) = {3.564251921495605, -0.4348905395946634, 0.1};
Point(p13 + 22) = {3.584409864930522, -0.5188544167496181, 0.1};
Point(p13 + 23) = {3.617454474837004, -0.5986311621491762, 0.1};
Point(p13 + 24) = {3.662572083250382, -0.6722564075577635, 0.1};
Point(p13 + 25) = {3.718651744914761, -0.7379172550852393, 0.1};
Point(p13 + 26) = {3.784312592442237, -0.7939969167496179, 0.1};
Point(p13 + 27) = {3.857937837850824, -0.8391145251629959, 0.1};
Point(p13 + 28) = {3.937714583250382, -0.8721591350694785, 0.1};
Point(p13 + 29) = {4.021678460405337, -0.8923170785043953, 0.1};
Point(p13 + 30) = {4.107762, -0.899092, 0.1};
Point(p13 + 31) = {4.193845539594664, -0.8923170785043953, 0.1};
Point(p13 + 32) = {4.277809416749618, -0.8721591350694786, 0.1};
Point(p13 + 33) = {4.357586162149176, -0.8391145251629961, 0.1};
Point(p13 + 34) = {4.431211407557764, -0.793996916749618, 0.1};
Point(p13 + 35) = {4.49687225508524, -0.7379172550852393, 0.1};
Point(p13 + 36) = {4.552951916749618, -0.6722564075577636, 0.1};
Point(p13 + 37) = {4.598069525162996, -0.5986311621491766, 0.1};
Point(p13 + 38) = {4.631114135069478, -0.5188544167496181, 0.1};
Point(p13 + 39) = {4.651272078504396, -0.4348905395946636, 0.1};
Spline(13) = {9, p13 + 1, p13 + 2, p13 + 3, p13 + 4, p13 + 5, p13 + 6, p13 + 7, p13 + 8, p13 + 9, p13 + 10, p13 + 11, p13 + 12, p13 + 13, p13 + 14, p13 + 15, p13 + 16, p13 + 17, p13 + 18, p13 + 19, p13 + 20, p13 + 21, p13 + 22, p13 + 23, p13 + 24, p13 + 25, p13 + 26, p13 + 27, p13 + 28, p13 + 29, p13 + 30, p13 + 31, p13 + 32, p13 + 33, p13 + 34, p13 + 35, p13 + 36, p13 + 37, p13 + 38, p13 + 39, 9};
Line(14) = {10, 9};
p15 = newp;
Point(p15 + 1) = {4.651272078504396, -0.2627234604053366, 0};
Point(p15 + 2) = {4.631114135069478, -0.178759583250382, 0};
Point(p15 + 3) = {4.598069525162996, -0.09898283785082349, 0};
Point(p15 + 4) = {4.552951916749618, -0.0253575924422364, 0};
Point(p15 + 5) = {4.49687225508524, 0.0403032550852393, 0};
Point(p15 + 6) = {4.431211407557764, 0.09638291674961796, 0};
Point(p15 + 7) = {4.357586162149176, 0.141500525162996, 0};
Point(p15 + 8) = {4.277809416749618, 0.1745451350694786, 0};
Point(p15 + 9) = {4.193845539594664, 0.1947030785043954, 0};
Point(p15 + 10) = {4.107762, 0.201478, 0};
Point(p15 + 11) = {4.021678460405337, 0.1947030785043954, 0};
Point(p15 + 12) = {3.937714583250382, 0.1745451350694787, 0};
Point(p15 + 13) = {3.857937837850824, 0.141500525162996, 0};
Point(p15 + 14) = {3.784312592442237, 0.09638291674961802, 0};
Point(p15 + 15) = {3.718651744914761, 0.04030325508523935, 0};
Point(p15 + 16) = {3.662572083250382, -0.02535759244223634, 0};
Point(p15 + 17) = {3.617454474837004, -0.09898283785082343, 0};
Point(p15 + 18) = {3.584409864930522, -0.178759583250382, 0};
Point(p15 + 19) = {3.564251921495605, -0.2627234604053365, 0};
Point(p15 + 20) = {3.557477, -0.3488069999999999, 0};
Point(p15 + 21) = {3.564251921495605, -0.4348905395946634, 0};
Point(p15 + 22) = {3.584409864930522, -0.5188544167496181, 0};
Point(p15 + 23) = {3.617454474837004, -0.5986311621491762, 0};
Point(p15 + 24) = {3.662572083250382, -0.6722564075577635, 0};
Point(p15 + 25) = {3.718651744914761, -0.7379172550852393, 0};
Point(p15 + 26) = {3.784312592442237, -0.7939969167496179, 0};
Point(p15 + 27) = {3.857937837850824, -0.8391145251629959, 0};
Point(p15 + 28) = {3.937714583250382, -0.8721591350694785, 0};
Point(p15 + 29) = {4.021678460405337, -0.8923170785043953, 0};
Point(p15 + 30) = {4.107762, -0.899092, 0};
Point(p15 + 31) = {4.193845539594664, -0.8923170785043953, 0};
Point(p15 + 32) = {4.277809416749618, -0.8721591350694786, 0};
Point(p15 + 33) = {4.357586162149176, -0.8391145251629961, 0};
Point(p15 + 34) = {4.431211407557764, -0.793996916749618, 0};
Point(p15 + 35) = {4.49687225508524, -0.7379172550852393, 0};
Point(p15 + 36) = {4.552951916749618, -0.6722564075577636, 0};
Point(p15 + 37) = {4.598069525162996, -0.5986311621491766, 0};
Point(p15 + 38) = {4.631114135069478, -0.5188544167496181, 0};
Point(p15 + 39) = {4.651272078504396, -0.4348905395946636, 0};
Spline(15) = {10, p15 + 1, p15 + 2, p15 + 3, p15 + 4, p15 + 5, p15 + 6, p15 + 7, p15 + 8, p15 + 9, p15 + 10, p15 + 11, p15 + 12, p15 + 13, p15 + 14, p15 + 15, p15 + 16, p15 + 17, p15 + 18, p15 + 19, p15 + 20, p15 + 21, p15 + 22, p15 + 23, p15 + 24, p15 + 25, p15 + 26, p15 + 27, p15 + 28, p15 + 29, p15 + 30, p15 + 31, p15 + 32, p15 + 33, p15 + 34, p15 + 35, p15 + 36, p15 + 37, p15 + 38, p15 + 39, 10};
p16 = newp;
Point(p16 + 1) = {12.29252715366773, -2.496525788319345, 0.1};
Point(p16 + 2) = {12.26223827627258, -2.370363534269052, 0.1};
Point(p16 + 3) = {12.21258618049906, -2.250492771252355, 0.1};
Point(p16 + 4) = {12.14479346573095, -2.139865115282978, 0.1};
Point(p16 + 5) = {12.06052941359697, -2.041204586403028, 0.1};
Point(p16 + 6) = {11.96186888471702, -1.956940534269052, 0.1};
Point(p16 + 7) = {11.85124122874764, -1.889147819500945, 0.1};
Point(p16 + 8) = {11.73137046573095, -1.839495723727417, 0.1};
Point(p16 + 9) = {11.60520821168065, -1.809206846332273, 0.1};
Point(p16 + 10) = {11.475861, -1.799027, 0.1};
Point(p16 + 11) = {11.34651378831935, -1.809206846332273, 0.1};
Point(p16 + 12) = {11.22035153426905, -1.839495723727417, 0.1};
Point(p16 + 13) = {11.10048077125236, -1.889147819500945, 0.1};
Point(p16 + 14) = {10.98985311528298, -1.956940534269052, 0.1};
Point(p16 + 15) = {10.89119258640303, -2.041204586403028, 0.1};
Point(p16 + 16) = {10.80692853426905, -2.139865115282978, 0.1};
Point(p16 + 17) = {10.73913581950094, -2.250492771252354, 0.1};
Point(p16 + 18) = {10.68948372372742, -2.370363534269052, 0.1};
Point(p16 + 19) = {10.65919484633227, -2.496525788319345, 0.1};
Point(p16 + 20) = {10.649015, -2.625873, 0.1};
Point(p16 + 21) = {10.65919484633227, -2.755220211680654, 0.1};
Point(p16 + 22) = {10.68948372372742, -2.881382465730948, 0.1};
Point(p16 + 23) = {10.73913581950094, -3.001253228747645, 0.1};
Point(p16 + 24) = {10.80692853426905, -3.111880884717022, 0.1};
Point(p16 + 25) = {10.89119258640303, -3.210541413596972, 0.1};
Point(p16 + 26) = {10.98985311528298, -3.294805465730947, 0.1};
Point(p16 + 27) = {11.10048077125236, -3.362598180499055, 0.1};
Point(p16 + 28) = {11.22035153426905, -3.412250276272582, 0.1};
Point(p16 + 29) = {11.34651378831935, -3.442539153667727, 0.1};
Point(p16 + 30) = {11.475861, -3.452719, 0.1};
Point(p16 + 31) = {11.60520821168065, -3.442539153667727, 0.1};
Point(p16 + 32) = {11.73137046573095, -3.412250276272582, 0.1};
Point(p16 + 33) = {11.85124122874764, -3.362598180499055, 0.1};
Point(p16 + 34) = {11.96186888471702, -3.294805465730948, 0.1};
Point(p16 + 35) = {12.06052941359697, -3.210541413596972, 0.1};
Point(p16 + 36) = {12.14479346573095, -3.111880884717022, 0.1};
Point(p16 + 37) = {12.21258618049906, -3.001253228747645, 0.1};
Point(p16 + 38) = {12.26223827627258, -2.881382465730948, 0.1};
Point(p16 + 39) = {12.29252715366773, -2.755220211680655, 0.1};
Spline(16) = {11, p16 + 1, p16 + 2, p16 + 3, p16 + 4, p16 + 5, p16 + 6, p16 + 7, p16 + 8, p16 + 9, p16 + 10, p16 + 11, p16 + 12, p16 + 13, p16 + 14, p16 + 15, p16 + 16, p16 + 17, p16 + 18, p16 + 19, p16 + 20, p16 + 21, p16 + 22, p16 + 23, p16 + 24, p16 + 25, p16 + 26, p16 + 27, p16 + 28, p16 + 29, p16 + 30, p16 + 31, p16 + 32, p16 + 33, p16 + 34, p16 + 35, p16 + 36, p16 + 37, p16 + 38, p16 + 39, 11};
Line(17) = {12, 11};
p18 = newp;
Point(p18 + 1) = {12.29252715366773, -2.496525788319345, 0};
Point(p18 + 2) = {12.26223827627258, -2.370363534269052, 0};
Point(p18 + 3) = {12.21258618049906, -2.250492771252355, 0};
Point(p18 + 4) = {12.14479346573095, -2.139865115282978, 0};
Point(p18 + 5) = {12.06052941359697, -2.041204586403028, 0};
Point(p18 + 6) = {11.96186888471702, -1.956940534269052, 0};
Point(p18 + 7) = {11.85124122874764, -1.889147819500945, 0};
Point(p18 + 8) = {11.73137046573095, -1.839495723727417, 0};
Point(p18 + 9) = {11.60520821168065, -1.809206846332273, 0};
Point(p18 + 10) = {11.475861, -1.799027, 0};
Point(p18 + 11) = {11.34651378831935, -1.809206846332273, 0};
Point(p18 + 12) = {11.22035153426905, -1.839495723727417, 0};
Point(p18 + 13) = {11.10048077125236, -1.889147819500945, 0};
Point(p18 + 14) = {10.98985311528298, -1.956940534269052, 0};
Point(p18 + 15) = {10.89119258640303, -2.041204586403028, 0};
Point(p18 + 16) = {10.80692853426905, -2.139865115282978, 0};
Point(p18 + 17) = {10.73913581950094, -2.250492771252354, 0};
Point(p18 + 18) = {10.68948372372742, -2.370363534269052, 0};
Point(p18 + 19) = {10.65919484633227, -2.496525788319345, 0};
Point(p18 + 20) = {10.649015, -2.625873, 0};
Point(p18 + 21) = {10.65919484633227, -2.755220211680654, 0};
Point(p18 + 22) = {10.68948372372742, -2.881382465730948, 0};
Point(p18 + 23) = {10.73913581950094, -3.001253228747645, 0};
Point(p18 + 24) = {10.80692853426905, -3.111880884717022, 0};
Point(p18 + 25) = {10.89119258640303, -3.210541413596972, 0};
Point(p18 + 26) = {10.98985311528298, -3.294805465730947, 0};
Point(p18 + 27) = {11.10048077125236, -3.362598180499055, 0};
Point(p18 + 28) = {11.22035153426905, -3.412250276272582, 0};
Point(p18 + 29) = {11.34651378831935, -3.442539153667727, 0};
Point(p18 + 30) = {11.475861, -3.452719, 0};
Point(p18 + 31) = {11.60520821168065, -3.442539153667727, 0};
Point(p18 + 32) = {11.73137046573095, -3.412250276272582, 0};
Point(p18 + 33) = {11.85124122874764, -3.362598180499055, 0};
Point(p18 + 34) = {11.96186888471702, -3.294805465730948, 0};
Point(p18 + 35) = {12.06052941359697, -3.210541413596972, 0};
Point(p18 + 36) = {12.14479346573095, -3.111880884717022, 0};
Point(p18 + 37) = {12.21258618049906, -3.001253228747645, 0};
Point(p18 + 38) = {12.26223827627258, -2.881382465730948, 0};
Point(p18 + 39) = {12.29252715366773, -2.755220211680655, 0};
Spline(18) = {12, p18 + 1, p18 + 2, p18 + 3, p18 + 4, p18 + 5, p18 + 6, p18 + 7, p18 + 8, p18 + 9, p18 + 10, p18 + 11, p18 + 12, p18 + 13, p18 + 14, p18 + 15, p18 + 16, p18 + 17, p18 + 18, p18 + 19, p18 + 20, p18 + 21, p18 + 22, p18 + 23, p18 + 24, p18 + 25, p18 + 26, p18 + 27, p18 + 28, p18 + 29, p18 + 30, p18 + 31, p18 + 32, p18 + 33, p18 + 34, p18 + 35, p18 + 36, p18 + 37, p18 + 38, p18 + 39, 12};
Line(19) = {14, 13};
Line(20) = {13, 15};
Line(21) = {16, 15};
Line(22) = {14, 16};
Line(23) = {14, 17};
Line(24) = {17, 18};
Line(25) = {13, 18};
Line(26) = {15, 19};
Line(27) = {18, 19};
Line(28) = {16, 20};
Line(29) = {20, 19};
Line(30) = {17, 20};
Curve Loop(7) = {-13, -14, 15, 14};
Surface(7) = {7};
Curve Loop(8) = {13};
Plane Surface(8) = {8};
Curve Loop(9) = {15};
Plane Surface(9) = {9};
Curve Loop(10) = {-16, -17, 18, 17};
Surface(10) = {10};
Curve Loop(11) = {16};
Plane Surface(11) = {11};
Curve Loop(12) = {18};
Plane Surface(12) = {12};
Curve Loop(13) = {-19, 22, 21, -20};
Plane Surface(13) = {13};
Curve Loop(14) = {-23, 19, 25, -24};
Plane Surface(14) = {14};
Curve Loop(15) = {-20, 25, 27, -26};
Plane Surface(15) = {15};
Curve Loop(16) = {-28, 21, 26, -29};
Plane Surface(16) = {16};
Curve Loop(17) = {-22, 23, 30, -28, -18, -15};
Plane Surface(17) = {17};
Curve Loop(18) = {-24, 30, 29, -27};
Plane Surface(18) = {18};
Surface Loop(1) = {13, 14, 15, 16, 17, 18, 10, 7, 11, 8};
Volume(1) = {1};
Surface Loop(2) = {7, 8, 9};
Volume(2) = {2};
Surface Loop(3) = {10, 11, 12};
Volume(3) = {3};
Physical Surface("WALLS") = {13, 18};
Physical Surface("LOAD") = {8, 11};
Physical Surface("BORDER") = {7, 9, 10, 12, 14, 15, 16, 17};
Physical Volume("SOLID") = {1, 2, 3};
