cl__1 = 0.111205;
cl__2 = 0.112898;
cl__3 = 0.5671850000000001;
cl__4 = 0.355719;
cl__5 = 3.848947;
cl__6 = 3.442496;
Point(9) = {18.291167, 1.726752, 0.1, cl__1};
Point(10) = {18.291167, 1.726752, 0, cl__1};
Point(11) = {4.707992000000001, 2.025662, 0.1, cl__2};
Point(12) = {4.707992000000001, 2.025662, 0, cl__2};
Point(13) = {0.134546, -3.714196, 1, cl__3};
Point(14) = {0.134546, -3.714196, 0, cl__3};
Point(15) = {0.134546, 5.103436, 1, cl__4};
Point(16) = {0.134546, 5.103436, 0, cl__4};
Point(17) = {32.744186, -3.714196, 0, cl__5};
Point(18) = {32.744186, -3.714196, 1, cl__5};
Point(19) = {32.744186, 5.103436, 1, cl__6};
Point(20) = {32.744186, 5.103436, 0, cl__6};
p13 = newp;
Point(p13 + 1) = {18.27747576991219, 1.900715572585849, 0.1};
Point(p13 + 2) = {18.23673920317209, 2.070395584662638, 0.1};
Point(p13 + 3) = {18.16996036924977, 2.231613951197362, 0.1};
Point(p13 + 4) = {18.07878358466264, 2.380400940952854, 0.1};
Point(p13 + 5) = {17.96545392444563, 2.513092924445625, 0.1};
Point(p13 + 6) = {17.83276194095286, 2.626422584662638, 0.1};
Point(p13 + 7) = {17.68397495119736, 2.717599369249771, 0.1};
Point(p13 + 8) = {17.52275658466264, 2.784378203172091, 0.1};
Point(p13 + 9) = {17.35307657258585, 2.825114769912186, 0.1};
Point(p13 + 10) = {17.179113, 2.838806, 0.1};
Point(p13 + 11) = {17.00514942741415, 2.825114769912186, 0.1};
Point(p13 + 12) = {16.83546941533736, 2.784378203172091, 0.1};
Point(p13 + 13) = {16.67425104880264, 2.717599369249772, 0.1};
Point(p13 + 14) = {16.52546405904715, 2.626422584662638, 0.1};
Point(p13 + 15) = {16.39277207555438, 2.513092924445625, 0.1};
Point(p13 + 16) = {16.27944241533736, 2.380400940952854, 0.1};
Point(p13 + 17) = {16.18826563075023, 2.231613951197362, 0.1};
Point(p13 + 18) = {16.12148679682791, 2.070395584662638, 0.1};
Point(p13 + 19) = {16.08075023008782, 1.900715572585849, 0.1};
Point(p13 + 20) = {16.067059, 1.726752, 0.1};
Point(p13 + 21) = {16.08075023008782, 1.552788427414151, 0.1};
Point(p13 + 22) = {16.12148679682791, 1.383108415337362, 0.1};
Point(p13 + 23) = {16.18826563075023, 1.221890048802639, 0.1};
Point(p13 + 24) = {16.27944241533736, 1.073103059047146, 0.1};
Point(p13 + 25) = {16.39277207555438, 0.9404110755543752, 0.1};
Point(p13 + 26) = {16.52546405904715, 0.8270814153373623, 0.1};
Point(p13 + 27) = {16.67425104880264, 0.7359046307502288, 0.1};
Point(p13 + 28) = {16.83546941533736, 0.6691257968279094, 0.1};
Point(p13 + 29) = {17.00514942741415, 0.6283892300878147, 0.1};
Point(p13 + 30) = {17.179113, 0.614698, 0.1};
Point(p13 + 31) = {17.35307657258585, 0.6283892300878147, 0.1};
Point(p13 + 32) = {17.52275658466264, 0.6691257968279092, 0.1};
Point(p13 + 33) = {17.68397495119736, 0.7359046307502286, 0.1};
Point(p13 + 34) = {17.83276194095285, 0.827081415337362, 0.1};
Point(p13 + 35) = {17.96545392444563, 0.9404110755543749, 0.1};
Point(p13 + 36) = {18.07878358466264, 1.073103059047146, 0.1};
Point(p13 + 37) = {18.16996036924977, 1.221890048802638, 0.1};
Point(p13 + 38) = {18.23673920317209, 1.383108415337362, 0.1};
Point(p13 + 39) = {18.27747576991219, 1.552788427414151, 0.1};
Spline(13) = {9, p13 + 1, p13 + 2, p13 + 3, p13 + 4, p13 + 5, p13 + 6, p13 + 7, p13 + 8, p13 + 9, p13 + 10, p13 + 11, p13 + 12, p13 + 13, p13 + 14, p13 + 15, p13 + 16, p13 + 17, p13 + 18, p13 + 19, p13 + 20, p13 + 21, p13 + 22, p13 + 23, p13 + 24, p13 + 25, p13 + 26, p13 + 27, p13 + 28, p13 + 29, p13 + 30, p13 + 31, p13 + 32, p13 + 33, p13 + 34, p13 + 35, p13 + 36, p13 + 37, p13 + 38, p13 + 39, 9};
Line(14) = {10, 9};
p15 = newp;
Point(p15 + 1) = {18.27747576991219, 1.900715572585849, 0};
Point(p15 + 2) = {18.23673920317209, 2.070395584662638, 0};
Point(p15 + 3) = {18.16996036924977, 2.231613951197362, 0};
Point(p15 + 4) = {18.07878358466264, 2.380400940952854, 0};
Point(p15 + 5) = {17.96545392444563, 2.513092924445625, 0};
Point(p15 + 6) = {17.83276194095286, 2.626422584662638, 0};
Point(p15 + 7) = {17.68397495119736, 2.717599369249771, 0};
Point(p15 + 8) = {17.52275658466264, 2.784378203172091, 0};
Point(p15 + 9) = {17.35307657258585, 2.825114769912186, 0};
Point(p15 + 10) = {17.179113, 2.838806, 0};
Point(p15 + 11) = {17.00514942741415, 2.825114769912186, 0};
Point(p15 + 12) = {16.83546941533736, 2.784378203172091, 0};
Point(p15 + 13) = {16.67425104880264, 2.717599369249772, 0};
Point(p15 + 14) = {16.52546405904715, 2.626422584662638, 0};
Point(p15 + 15) = {16.39277207555438, 2.513092924445625, 0};
Point(p15 + 16) = {16.27944241533736, 2.380400940952854, 0};
Point(p15 + 17) = {16.18826563075023, 2.231613951197362, 0};
Point(p15 + 18) = {16.12148679682791, 2.070395584662638, 0};
Point(p15 + 19) = {16.08075023008782, 1.900715572585849, 0};
Point(p15 + 20) = {16.067059, 1.726752, 0};
Point(p15 + 21) = {16.08075023008782, 1.552788427414151, 0};
Point(p15 + 22) = {16.12148679682791, 1.383108415337362, 0};
Point(p15 + 23) = {16.18826563075023, 1.221890048802639, 0};
Point(p15 + 24) = {16.27944241533736, 1.073103059047146, 0};
Point(p15 + 25) = {16.39277207555438, 0.9404110755543752, 0};
Point(p15 + 26) = {16.52546405904715, 0.8270814153373623, 0};
Point(p15 + 27) = {16.67425104880264, 0.7359046307502288, 0};
Point(p15 + 28) = {16.83546941533736, 0.6691257968279094, 0};
Point(p15 + 29) = {17.00514942741415, 0.6283892300878147, 0};
Point(p15 + 30) = {17.179113, 0.614698, 0};
Point(p15 + 31) = {17.35307657258585, 0.6283892300878147, 0};
Point(p15 + 32) = {17.52275658466264, 0.6691257968279092, 0};
Point(p15 + 33) = {17.68397495119736, 0.7359046307502286, 0};
Point(p15 + 34) = {17.83276194095285, 0.827081415337362, 0};
Point(p15 + 35) = {17.96545392444563, 0.9404110755543749, 0};
Point(p15 + 36) = {18.07878358466264, 1.073103059047146, 0};
Point(p15 + 37) = {18.16996036924977, 1.221890048802638, 0};
Point(p15 + 38) = {18.23673920317209, 1.383108415337362, 0};
Point(p15 + 39) = {18.27747576991219, 1.552788427414151, 0};
Spline(15) = {10, p15 + 1, p15 + 2, p15 + 3, p15 + 4, p15 + 5, p15 + 6, p15 + 7, p15 + 8, p15 + 9, p15 + 10, p15 + 11, p15 + 12, p15 + 13, p15 + 14, p15 + 15, p15 + 16, p15 + 17, p15 + 18, p15 + 19, p15 + 20, p15 + 21, p15 + 22, p15 + 23, p15 + 24, p15 + 25, p15 + 26, p15 + 27, p15 + 28, p15 + 29, p15 + 30, p15 + 31, p15 + 32, p15 + 33, p15 + 34, p15 + 35, p15 + 36, p15 + 37, p15 + 38, p15 + 39, 10};
p16 = newp;
Point(p16 + 1) = {4.694092395076758, 2.202273225906655, 0.1};
Point(p16 + 2) = {4.652735834710386, 2.374535697292434, 0.1};
Point(p16 + 3) = {4.58494065467166, 2.538207740405454, 0.1};
Point(p16 + 4) = {4.492376197292434, 2.689259206347904, 0.1};
Point(p16 + 5) = {4.377321706717208, 2.823970706717207, 0.1};
Point(p16 + 6) = {4.242610206347904, 2.939025197292434, 0.1};
Point(p16 + 7) = {4.091558740405454, 3.031589654671659, 0.1};
Point(p16 + 8) = {3.927886697292434, 3.099384834710386, 0.1};
Point(p16 + 9) = {3.755624225906655, 3.140741395076758, 0.1};
Point(p16 + 10) = {3.579013, 3.154641, 0.1};
Point(p16 + 11) = {3.402401774093345, 3.140741395076758, 0.1};
Point(p16 + 12) = {3.230139302707566, 3.099384834710386, 0.1};
Point(p16 + 13) = {3.066467259594547, 3.031589654671659, 0.1};
Point(p16 + 14) = {2.915415793652096, 2.939025197292434, 0.1};
Point(p16 + 15) = {2.780704293282793, 2.823970706717208, 0.1};
Point(p16 + 16) = {2.665649802707566, 2.689259206347904, 0.1};
Point(p16 + 17) = {2.573085345328341, 2.538207740405454, 0.1};
Point(p16 + 18) = {2.505290165289614, 2.374535697292434, 0.1};
Point(p16 + 19) = {2.463933604923242, 2.202273225906655, 0.1};
Point(p16 + 20) = {2.450034, 2.025662, 0.1};
Point(p16 + 21) = {2.463933604923242, 1.849050774093346, 0.1};
Point(p16 + 22) = {2.505290165289614, 1.676788302707566, 0.1};
Point(p16 + 23) = {2.573085345328341, 1.513116259594547, 0.1};
Point(p16 + 24) = {2.665649802707566, 1.362064793652096, 0.1};
Point(p16 + 25) = {2.780704293282793, 1.227353293282793, 0.1};
Point(p16 + 26) = {2.915415793652096, 1.112298802707566, 0.1};
Point(p16 + 27) = {3.066467259594546, 1.019734345328341, 0.1};
Point(p16 + 28) = {3.230139302707566, 0.9519391652896141, 0.1};
Point(p16 + 29) = {3.402401774093345, 0.9105826049232422, 0.1};
Point(p16 + 30) = {3.579013, 0.8966830000000001, 0.1};
Point(p16 + 31) = {3.755624225906655, 0.9105826049232422, 0.1};
Point(p16 + 32) = {3.927886697292434, 0.9519391652896139, 0.1};
Point(p16 + 33) = {4.091558740405453, 1.019734345328341, 0.1};
Point(p16 + 34) = {4.242610206347904, 1.112298802707566, 0.1};
Point(p16 + 35) = {4.377321706717208, 1.227353293282793, 0.1};
Point(p16 + 36) = {4.492376197292434, 1.362064793652096, 0.1};
Point(p16 + 37) = {4.58494065467166, 1.513116259594546, 0.1};
Point(p16 + 38) = {4.652735834710386, 1.676788302707566, 0.1};
Point(p16 + 39) = {4.694092395076758, 1.849050774093345, 0.1};
Spline(16) = {11, p16 + 1, p16 + 2, p16 + 3, p16 + 4, p16 + 5, p16 + 6, p16 + 7, p16 + 8, p16 + 9, p16 + 10, p16 + 11, p16 + 12, p16 + 13, p16 + 14, p16 + 15, p16 + 16, p16 + 17, p16 + 18, p16 + 19, p16 + 20, p16 + 21, p16 + 22, p16 + 23, p16 + 24, p16 + 25, p16 + 26, p16 + 27, p16 + 28, p16 + 29, p16 + 30, p16 + 31, p16 + 32, p16 + 33, p16 + 34, p16 + 35, p16 + 36, p16 + 37, p16 + 38, p16 + 39, 11};
Line(17) = {12, 11};
p18 = newp;
Point(p18 + 1) = {4.694092395076758, 2.202273225906655, 0};
Point(p18 + 2) = {4.652735834710386, 2.374535697292434, 0};
Point(p18 + 3) = {4.58494065467166, 2.538207740405454, 0};
Point(p18 + 4) = {4.492376197292434, 2.689259206347904, 0};
Point(p18 + 5) = {4.377321706717208, 2.823970706717207, 0};
Point(p18 + 6) = {4.242610206347904, 2.939025197292434, 0};
Point(p18 + 7) = {4.091558740405454, 3.031589654671659, 0};
Point(p18 + 8) = {3.927886697292434, 3.099384834710386, 0};
Point(p18 + 9) = {3.755624225906655, 3.140741395076758, 0};
Point(p18 + 10) = {3.579013, 3.154641, 0};
Point(p18 + 11) = {3.402401774093345, 3.140741395076758, 0};
Point(p18 + 12) = {3.230139302707566, 3.099384834710386, 0};
Point(p18 + 13) = {3.066467259594547, 3.031589654671659, 0};
Point(p18 + 14) = {2.915415793652096, 2.939025197292434, 0};
Point(p18 + 15) = {2.780704293282793, 2.823970706717208, 0};
Point(p18 + 16) = {2.665649802707566, 2.689259206347904, 0};
Point(p18 + 17) = {2.573085345328341, 2.538207740405454, 0};
Point(p18 + 18) = {2.505290165289614, 2.374535697292434, 0};
Point(p18 + 19) = {2.463933604923242, 2.202273225906655, 0};
Point(p18 + 20) = {2.450034, 2.025662, 0};
Point(p18 + 21) = {2.463933604923242, 1.849050774093346, 0};
Point(p18 + 22) = {2.505290165289614, 1.676788302707566, 0};
Point(p18 + 23) = {2.573085345328341, 1.513116259594547, 0};
Point(p18 + 24) = {2.665649802707566, 1.362064793652096, 0};
Point(p18 + 25) = {2.780704293282793, 1.227353293282793, 0};
Point(p18 + 26) = {2.915415793652096, 1.112298802707566, 0};
Point(p18 + 27) = {3.066467259594546, 1.019734345328341, 0};
Point(p18 + 28) = {3.230139302707566, 0.9519391652896141, 0};
Point(p18 + 29) = {3.402401774093345, 0.9105826049232422, 0};
Point(p18 + 30) = {3.579013, 0.8966830000000001, 0};
Point(p18 + 31) = {3.755624225906655, 0.9105826049232422, 0};
Point(p18 + 32) = {3.927886697292434, 0.9519391652896139, 0};
Point(p18 + 33) = {4.091558740405453, 1.019734345328341, 0};
Point(p18 + 34) = {4.242610206347904, 1.112298802707566, 0};
Point(p18 + 35) = {4.377321706717208, 1.227353293282793, 0};
Point(p18 + 36) = {4.492376197292434, 1.362064793652096, 0};
Point(p18 + 37) = {4.58494065467166, 1.513116259594546, 0};
Point(p18 + 38) = {4.652735834710386, 1.676788302707566, 0};
Point(p18 + 39) = {4.694092395076758, 1.849050774093345, 0};
Spline(18) = {12, p18 + 1, p18 + 2, p18 + 3, p18 + 4, p18 + 5, p18 + 6, p18 + 7, p18 + 8, p18 + 9, p18 + 10, p18 + 11, p18 + 12, p18 + 13, p18 + 14, p18 + 15, p18 + 16, p18 + 17, p18 + 18, p18 + 19, p18 + 20, p18 + 21, p18 + 22, p18 + 23, p18 + 24, p18 + 25, p18 + 26, p18 + 27, p18 + 28, p18 + 29, p18 + 30, p18 + 31, p18 + 32, p18 + 33, p18 + 34, p18 + 35, p18 + 36, p18 + 37, p18 + 38, p18 + 39, 12};
Line(19) = {14, 13};
Line(20) = {13, 15};
Line(21) = {16, 15};
Line(22) = {14, 16};
Line(23) = {14, 17};
Line(24) = {17, 18};
Line(25) = {13, 18};
Line(26) = {15, 19};
Line(27) = {18, 19};
Line(28) = {16, 20};
Line(29) = {20, 19};
Line(30) = {17, 20};
Curve Loop(7) = {-13, -14, 15, 14};
Surface(7) = {7};
Curve Loop(8) = {13};
Plane Surface(8) = {8};
Curve Loop(9) = {15};
Plane Surface(9) = {9};
Curve Loop(10) = {-16, -17, 18, 17};
Surface(10) = {10};
Curve Loop(11) = {16};
Plane Surface(11) = {11};
Curve Loop(12) = {18};
Plane Surface(12) = {12};
Curve Loop(13) = {-19, 22, 21, -20};
Plane Surface(13) = {13};
Curve Loop(14) = {-23, 19, 25, -24};
Plane Surface(14) = {14};
Curve Loop(15) = {-20, 25, 27, -26};
Plane Surface(15) = {15};
Curve Loop(16) = {-28, 21, 26, -29};
Plane Surface(16) = {16};
Curve Loop(17) = {-22, 23, 30, -28, -15, -18};
Plane Surface(17) = {17};
Curve Loop(18) = {-24, 30, 29, -27};
Plane Surface(18) = {18};
Surface Loop(1) = {13, 14, 15, 16, 17, 18, 7, 10, 8, 11};
Volume(1) = {1};
Surface Loop(2) = {7, 8, 9};
Volume(2) = {2};
Surface Loop(3) = {10, 11, 12};
Volume(3) = {3};
Physical Surface("WALLS") = {13, 18};
Physical Surface("LOAD") = {8, 11};
Physical Surface("BORDER") = {7, 9, 10, 12, 14, 15, 16, 17};
Physical Volume("SOLID") = {1, 2, 3};
