cl__1 = 0.098749;
cl__2 = 0.088107;
cl__3 = 1.462188;
cl__4 = 1.309372;
cl__5 = 0.964125;
cl__6 = 0.806852;
Point(9) = {14.949829, 1.410532, 0.1, cl__1};
Point(10) = {14.949829, 1.410532, 0, cl__1};
Point(11) = {29.840135, 3.173279, 0.1, cl__2};
Point(12) = {29.840135, 3.173279, 0, cl__2};
Point(13) = {0.360962, -3.511793, 1, cl__3};
Point(14) = {0.360962, -3.511793, 0, cl__3};
Point(15) = {0.360962, 4.632494, 1, cl__4};
Point(16) = {0.360962, 4.632494, 0, cl__4};
Point(17) = {39.318446, -3.511793, 0, cl__5};
Point(18) = {39.318446, -3.511793, 1, cl__5};
Point(19) = {39.318446, 4.632494, 1, cl__6};
Point(20) = {39.318446, 4.632494, 0, cl__6};
p13 = newp;
Point(p13 + 1) = {14.93767131020766, 1.565010095620438, 0.1};
Point(p13 + 2) = {14.90149760350237, 1.715684427843294, 0.1};
Point(p13 + 3) = {14.84219859659687, 1.858844894549804, 0.1};
Point(p13 + 4) = {14.76123442784329, 1.990966409927303, 0.1};
Point(p13 + 5) = {14.66059870378103, 2.108795703781028, 0.1};
Point(p13 + 6) = {14.5427694099273, 2.209431427843294, 0.1};
Point(p13 + 7) = {14.4106478945498, 2.290395596596868, 0.1};
Point(p13 + 8) = {14.26748742784329, 2.349694603502366, 0.1};
Point(p13 + 9) = {14.11681309562044, 2.385868310207655, 0.1};
Point(p13 + 10) = {13.962335, 2.398026, 0.1};
Point(p13 + 11) = {13.80785690437956, 2.385868310207655, 0.1};
Point(p13 + 12) = {13.6571825721567, 2.349694603502366, 0.1};
Point(p13 + 13) = {13.51402210545019, 2.290395596596868, 0.1};
Point(p13 + 14) = {13.3819005900727, 2.209431427843294, 0.1};
Point(p13 + 15) = {13.26407129621897, 2.108795703781029, 0.1};
Point(p13 + 16) = {13.16343557215671, 1.990966409927303, 0.1};
Point(p13 + 17) = {13.08247140340313, 1.858844894549804, 0.1};
Point(p13 + 18) = {13.02317239649763, 1.715684427843294, 0.1};
Point(p13 + 19) = {12.98699868979234, 1.565010095620438, 0.1};
Point(p13 + 20) = {12.974841, 1.410532, 0.1};
Point(p13 + 21) = {12.98699868979234, 1.256053904379562, 0.1};
Point(p13 + 22) = {13.02317239649763, 1.105379572156705, 0.1};
Point(p13 + 23) = {13.08247140340313, 0.9622191054501963, 0.1};
Point(p13 + 24) = {13.16343557215671, 0.8300975900726966, 0.1};
Point(p13 + 25) = {13.26407129621897, 0.7122682962189714, 0.1};
Point(p13 + 26) = {13.3819005900727, 0.6116325721567056, 0.1};
Point(p13 + 27) = {13.51402210545019, 0.5306684034031318, 0.1};
Point(p13 + 28) = {13.6571825721567, 0.4713693964976335, 0.1};
Point(p13 + 29) = {13.80785690437956, 0.435195689792345, 0.1};
Point(p13 + 30) = {13.962335, 0.4230379999999999, 0.1};
Point(p13 + 31) = {14.11681309562044, 0.4351956897923449, 0.1};
Point(p13 + 32) = {14.26748742784329, 0.4713693964976334, 0.1};
Point(p13 + 33) = {14.4106478945498, 0.5306684034031316, 0.1};
Point(p13 + 34) = {14.5427694099273, 0.6116325721567054, 0.1};
Point(p13 + 35) = {14.66059870378103, 0.7122682962189711, 0.1};
Point(p13 + 36) = {14.76123442784329, 0.8300975900726963, 0.1};
Point(p13 + 37) = {14.84219859659687, 0.9622191054501957, 0.1};
Point(p13 + 38) = {14.90149760350237, 1.105379572156705, 0.1};
Point(p13 + 39) = {14.93767131020766, 1.256053904379562, 0.1};
Spline(13) = {9, p13 + 1, p13 + 2, p13 + 3, p13 + 4, p13 + 5, p13 + 6, p13 + 7, p13 + 8, p13 + 9, p13 + 10, p13 + 11, p13 + 12, p13 + 13, p13 + 14, p13 + 15, p13 + 16, p13 + 17, p13 + 18, p13 + 19, p13 + 20, p13 + 21, p13 + 22, p13 + 23, p13 + 24, p13 + 25, p13 + 26, p13 + 27, p13 + 28, p13 + 29, p13 + 30, p13 + 31, p13 + 32, p13 + 33, p13 + 34, p13 + 35, p13 + 36, p13 + 37, p13 + 38, p13 + 39, 9};
Line(14) = {10, 9};
p15 = newp;
Point(p15 + 1) = {14.93767131020766, 1.565010095620438, 0};
Point(p15 + 2) = {14.90149760350237, 1.715684427843294, 0};
Point(p15 + 3) = {14.84219859659687, 1.858844894549804, 0};
Point(p15 + 4) = {14.76123442784329, 1.990966409927303, 0};
Point(p15 + 5) = {14.66059870378103, 2.108795703781028, 0};
Point(p15 + 6) = {14.5427694099273, 2.209431427843294, 0};
Point(p15 + 7) = {14.4106478945498, 2.290395596596868, 0};
Point(p15 + 8) = {14.26748742784329, 2.349694603502366, 0};
Point(p15 + 9) = {14.11681309562044, 2.385868310207655, 0};
Point(p15 + 10) = {13.962335, 2.398026, 0};
Point(p15 + 11) = {13.80785690437956, 2.385868310207655, 0};
Point(p15 + 12) = {13.6571825721567, 2.349694603502366, 0};
Point(p15 + 13) = {13.51402210545019, 2.290395596596868, 0};
Point(p15 + 14) = {13.3819005900727, 2.209431427843294, 0};
Point(p15 + 15) = {13.26407129621897, 2.108795703781029, 0};
Point(p15 + 16) = {13.16343557215671, 1.990966409927303, 0};
Point(p15 + 17) = {13.08247140340313, 1.858844894549804, 0};
Point(p15 + 18) = {13.02317239649763, 1.715684427843294, 0};
Point(p15 + 19) = {12.98699868979234, 1.565010095620438, 0};
Point(p15 + 20) = {12.974841, 1.410532, 0};
Point(p15 + 21) = {12.98699868979234, 1.256053904379562, 0};
Point(p15 + 22) = {13.02317239649763, 1.105379572156705, 0};
Point(p15 + 23) = {13.08247140340313, 0.9622191054501963, 0};
Point(p15 + 24) = {13.16343557215671, 0.8300975900726966, 0};
Point(p15 + 25) = {13.26407129621897, 0.7122682962189714, 0};
Point(p15 + 26) = {13.3819005900727, 0.6116325721567056, 0};
Point(p15 + 27) = {13.51402210545019, 0.5306684034031318, 0};
Point(p15 + 28) = {13.6571825721567, 0.4713693964976335, 0};
Point(p15 + 29) = {13.80785690437956, 0.435195689792345, 0};
Point(p15 + 30) = {13.962335, 0.4230379999999999, 0};
Point(p15 + 31) = {14.11681309562044, 0.4351956897923449, 0};
Point(p15 + 32) = {14.26748742784329, 0.4713693964976334, 0};
Point(p15 + 33) = {14.4106478945498, 0.5306684034031316, 0};
Point(p15 + 34) = {14.5427694099273, 0.6116325721567054, 0};
Point(p15 + 35) = {14.66059870378103, 0.7122682962189711, 0};
Point(p15 + 36) = {14.76123442784329, 0.8300975900726963, 0};
Point(p15 + 37) = {14.84219859659687, 0.9622191054501957, 0};
Point(p15 + 38) = {14.90149760350237, 1.105379572156705, 0};
Point(p15 + 39) = {14.93767131020766, 1.256053904379562, 0};
Spline(15) = {10, p15 + 1, p15 + 2, p15 + 3, p15 + 4, p15 + 5, p15 + 6, p15 + 7, p15 + 8, p15 + 9, p15 + 10, p15 + 11, p15 + 12, p15 + 13, p15 + 14, p15 + 15, p15 + 16, p15 + 17, p15 + 18, p15 + 19, p15 + 20, p15 + 21, p15 + 22, p15 + 23, p15 + 24, p15 + 25, p15 + 26, p15 + 27, p15 + 28, p15 + 29, p15 + 30, p15 + 31, p15 + 32, p15 + 33, p15 + 34, p15 + 35, p15 + 36, p15 + 37, p15 + 38, p15 + 39, 10};
p16 = newp;
Point(p16 + 1) = {29.8292875539365, 3.311108870547461, 0.1};
Point(p16 + 2) = {29.79701231586869, 3.445544912250929, 0.1};
Point(p16 + 3) = {29.74410400927317, 3.573276863596022, 0.1};
Point(p16 + 4) = {29.67186541225093, 3.691159540022582, 0.1};
Point(p16 + 5) = {29.58207527880682, 3.796290278806813, 0.1};
Point(p16 + 6) = {29.47694454002258, 3.886080412250929, 0.1};
Point(p16 + 7) = {29.35906186359603, 3.958319009273169, 0.1};
Point(p16 + 8) = {29.23132991225093, 4.011227315868688, 0.1};
Point(p16 + 9) = {29.09689387054746, 4.043502553936499, 0.1};
Point(p16 + 10) = {28.959064, 4.05435, 0.1};
Point(p16 + 11) = {28.82123412945254, 4.043502553936499, 0.1};
Point(p16 + 12) = {28.68679808774907, 4.011227315868688, 0.1};
Point(p16 + 13) = {28.55906613640398, 3.958319009273169, 0.1};
Point(p16 + 14) = {28.44118345997742, 3.886080412250929, 0.1};
Point(p16 + 15) = {28.33605272119319, 3.796290278806813, 0.1};
Point(p16 + 16) = {28.24626258774907, 3.691159540022582, 0.1};
Point(p16 + 17) = {28.17402399072683, 3.573276863596022, 0.1};
Point(p16 + 18) = {28.12111568413131, 3.445544912250929, 0.1};
Point(p16 + 19) = {28.0888404460635, 3.311108870547461, 0.1};
Point(p16 + 20) = {28.077993, 3.173279, 0.1};
Point(p16 + 21) = {28.0888404460635, 3.035449129452539, 0.1};
Point(p16 + 22) = {28.12111568413131, 2.901013087749071, 0.1};
Point(p16 + 23) = {28.17402399072683, 2.773281136403978, 0.1};
Point(p16 + 24) = {28.24626258774907, 2.655398459977418, 0.1};
Point(p16 + 25) = {28.33605272119319, 2.550267721193187, 0.1};
Point(p16 + 26) = {28.44118345997742, 2.460477587749071, 0.1};
Point(p16 + 27) = {28.55906613640398, 2.388238990726831, 0.1};
Point(p16 + 28) = {28.68679808774907, 2.335330684131313, 0.1};
Point(p16 + 29) = {28.82123412945254, 2.303055446063501, 0.1};
Point(p16 + 30) = {28.959064, 2.292208, 0.1};
Point(p16 + 31) = {29.09689387054746, 2.303055446063501, 0.1};
Point(p16 + 32) = {29.23132991225093, 2.335330684131312, 0.1};
Point(p16 + 33) = {29.35906186359602, 2.38823899072683, 0.1};
Point(p16 + 34) = {29.47694454002258, 2.460477587749071, 0.1};
Point(p16 + 35) = {29.58207527880682, 2.550267721193187, 0.1};
Point(p16 + 36) = {29.67186541225093, 2.655398459977418, 0.1};
Point(p16 + 37) = {29.74410400927317, 2.773281136403978, 0.1};
Point(p16 + 38) = {29.79701231586869, 2.901013087749071, 0.1};
Point(p16 + 39) = {29.8292875539365, 3.035449129452538, 0.1};
Spline(16) = {11, p16 + 1, p16 + 2, p16 + 3, p16 + 4, p16 + 5, p16 + 6, p16 + 7, p16 + 8, p16 + 9, p16 + 10, p16 + 11, p16 + 12, p16 + 13, p16 + 14, p16 + 15, p16 + 16, p16 + 17, p16 + 18, p16 + 19, p16 + 20, p16 + 21, p16 + 22, p16 + 23, p16 + 24, p16 + 25, p16 + 26, p16 + 27, p16 + 28, p16 + 29, p16 + 30, p16 + 31, p16 + 32, p16 + 33, p16 + 34, p16 + 35, p16 + 36, p16 + 37, p16 + 38, p16 + 39, 11};
Line(17) = {12, 11};
p18 = newp;
Point(p18 + 1) = {29.8292875539365, 3.311108870547461, 0};
Point(p18 + 2) = {29.79701231586869, 3.445544912250929, 0};
Point(p18 + 3) = {29.74410400927317, 3.573276863596022, 0};
Point(p18 + 4) = {29.67186541225093, 3.691159540022582, 0};
Point(p18 + 5) = {29.58207527880682, 3.796290278806813, 0};
Point(p18 + 6) = {29.47694454002258, 3.886080412250929, 0};
Point(p18 + 7) = {29.35906186359603, 3.958319009273169, 0};
Point(p18 + 8) = {29.23132991225093, 4.011227315868688, 0};
Point(p18 + 9) = {29.09689387054746, 4.043502553936499, 0};
Point(p18 + 10) = {28.959064, 4.05435, 0};
Point(p18 + 11) = {28.82123412945254, 4.043502553936499, 0};
Point(p18 + 12) = {28.68679808774907, 4.011227315868688, 0};
Point(p18 + 13) = {28.55906613640398, 3.958319009273169, 0};
Point(p18 + 14) = {28.44118345997742, 3.886080412250929, 0};
Point(p18 + 15) = {28.33605272119319, 3.796290278806813, 0};
Point(p18 + 16) = {28.24626258774907, 3.691159540022582, 0};
Point(p18 + 17) = {28.17402399072683, 3.573276863596022, 0};
Point(p18 + 18) = {28.12111568413131, 3.445544912250929, 0};
Point(p18 + 19) = {28.0888404460635, 3.311108870547461, 0};
Point(p18 + 20) = {28.077993, 3.173279, 0};
Point(p18 + 21) = {28.0888404460635, 3.035449129452539, 0};
Point(p18 + 22) = {28.12111568413131, 2.901013087749071, 0};
Point(p18 + 23) = {28.17402399072683, 2.773281136403978, 0};
Point(p18 + 24) = {28.24626258774907, 2.655398459977418, 0};
Point(p18 + 25) = {28.33605272119319, 2.550267721193187, 0};
Point(p18 + 26) = {28.44118345997742, 2.460477587749071, 0};
Point(p18 + 27) = {28.55906613640398, 2.388238990726831, 0};
Point(p18 + 28) = {28.68679808774907, 2.335330684131313, 0};
Point(p18 + 29) = {28.82123412945254, 2.303055446063501, 0};
Point(p18 + 30) = {28.959064, 2.292208, 0};
Point(p18 + 31) = {29.09689387054746, 2.303055446063501, 0};
Point(p18 + 32) = {29.23132991225093, 2.335330684131312, 0};
Point(p18 + 33) = {29.35906186359602, 2.38823899072683, 0};
Point(p18 + 34) = {29.47694454002258, 2.460477587749071, 0};
Point(p18 + 35) = {29.58207527880682, 2.550267721193187, 0};
Point(p18 + 36) = {29.67186541225093, 2.655398459977418, 0};
Point(p18 + 37) = {29.74410400927317, 2.773281136403978, 0};
Point(p18 + 38) = {29.79701231586869, 2.901013087749071, 0};
Point(p18 + 39) = {29.8292875539365, 3.035449129452538, 0};
Spline(18) = {12, p18 + 1, p18 + 2, p18 + 3, p18 + 4, p18 + 5, p18 + 6, p18 + 7, p18 + 8, p18 + 9, p18 + 10, p18 + 11, p18 + 12, p18 + 13, p18 + 14, p18 + 15, p18 + 16, p18 + 17, p18 + 18, p18 + 19, p18 + 20, p18 + 21, p18 + 22, p18 + 23, p18 + 24, p18 + 25, p18 + 26, p18 + 27, p18 + 28, p18 + 29, p18 + 30, p18 + 31, p18 + 32, p18 + 33, p18 + 34, p18 + 35, p18 + 36, p18 + 37, p18 + 38, p18 + 39, 12};
Line(19) = {14, 13};
Line(20) = {13, 15};
Line(21) = {16, 15};
Line(22) = {14, 16};
Line(23) = {14, 17};
Line(24) = {17, 18};
Line(25) = {13, 18};
Line(26) = {15, 19};
Line(27) = {18, 19};
Line(28) = {16, 20};
Line(29) = {20, 19};
Line(30) = {17, 20};
Curve Loop(7) = {-13, -14, 15, 14};
Surface(7) = {7};
Curve Loop(8) = {13};
Plane Surface(8) = {8};
Curve Loop(9) = {15};
Plane Surface(9) = {9};
Curve Loop(10) = {-16, -17, 18, 17};
Surface(10) = {10};
Curve Loop(11) = {16};
Plane Surface(11) = {11};
Curve Loop(12) = {18};
Plane Surface(12) = {12};
Curve Loop(13) = {-19, 22, 21, -20};
Plane Surface(13) = {13};
Curve Loop(14) = {-23, 19, 25, -24};
Plane Surface(14) = {14};
Curve Loop(15) = {-20, 25, 27, -26};
Plane Surface(15) = {15};
Curve Loop(16) = {-28, 21, 26, -29};
Plane Surface(16) = {16};
Curve Loop(17) = {-22, 23, 30, -28, -15, -18};
Plane Surface(17) = {17};
Curve Loop(18) = {-24, 30, 29, -27};
Plane Surface(18) = {18};
Surface Loop(1) = {13, 14, 15, 16, 17, 18, 7, 10, 8, 11};
Volume(1) = {1};
Surface Loop(2) = {7, 8, 9};
Volume(2) = {2};
Surface Loop(3) = {10, 11, 12};
Volume(3) = {3};
Physical Surface("WALLS") = {13, 18};
Physical Surface("LOAD") = {8, 11};
Physical Surface("BORDER") = {7, 9, 10, 12, 14, 15, 16, 17};
Physical Volume("SOLID") = {1, 2, 3};
