cl__1 = 0.090951;
cl__2 = 0.089715;
cl__3 = 2.488948;
cl__4 = 2.512733;
cl__5 = 0.637029;
cl__6 = 0.6482560000000001;
Point(9) = {27.048966, -2.1056, 0.1, cl__1};
Point(10) = {27.048966, -2.1056, 0, cl__1};
Point(11) = {27.017362, 2.957212, 0.1, cl__2};
Point(12) = {27.017362, 2.957212, 0, cl__2};
Point(13) = {0.572258, -3.594307, 1, cl__3};
Point(14) = {0.572258, -3.594307, 0, cl__3};
Point(15) = {0.572258, 5.524142999999999, 1, cl__4};
Point(16) = {0.572258, 5.524142999999999, 0, cl__4};
Point(17) = {38.571112, -3.594307, 0, cl__5};
Point(18) = {38.571112, -3.594307, 1, cl__5};
Point(19) = {38.571112, 5.524142999999999, 1, cl__6};
Point(20) = {38.571112, 5.524142999999999, 0, cl__6};
p13 = newp;
Point(p13 + 1) = {27.03776845958966, -1.963321759004655, 0.1};
Point(p13 + 2) = {27.00445155896605, -1.824546880497025, 0.1};
Point(p13 + 3) = {26.94983567079499, -1.692692462553384, 0.1};
Point(p13 + 4) = {26.87526561950298, -1.57100519854323, 0.1};
Point(p13 + 5) = {26.78257756723663, -1.462481432763367, 0.1};
Point(p13 + 6) = {26.67405380145677, -1.369793380497025, 0.1};
Point(p13 + 7) = {26.55236653744662, -1.29522332920501, 0.1};
Point(p13 + 8) = {26.42051211950297, -1.240607441033944, 0.1};
Point(p13 + 9) = {26.28173724099534, -1.207290540410338, 0.1};
Point(p13 + 10) = {26.139459, -1.196093, 0.1};
Point(p13 + 11) = {25.99718075900465, -1.207290540410338, 0.1};
Point(p13 + 12) = {25.85840588049702, -1.240607441033944, 0.1};
Point(p13 + 13) = {25.72655146255338, -1.29522332920501, 0.1};
Point(p13 + 14) = {25.60486419854323, -1.369793380497025, 0.1};
Point(p13 + 15) = {25.49634043276336, -1.462481432763367, 0.1};
Point(p13 + 16) = {25.40365238049703, -1.571005198543229, 0.1};
Point(p13 + 17) = {25.32908232920501, -1.692692462553384, 0.1};
Point(p13 + 18) = {25.27446644103394, -1.824546880497025, 0.1};
Point(p13 + 19) = {25.24114954041034, -1.963321759004655, 0.1};
Point(p13 + 20) = {25.229952, -2.1056, 0.1};
Point(p13 + 21) = {25.24114954041034, -2.247878240995345, 0.1};
Point(p13 + 22) = {25.27446644103394, -2.386653119502975, 0.1};
Point(p13 + 23) = {25.32908232920501, -2.518507537446615, 0.1};
Point(p13 + 24) = {25.40365238049702, -2.64019480145677, 0.1};
Point(p13 + 25) = {25.49634043276336, -2.748718567236633, 0.1};
Point(p13 + 26) = {25.60486419854323, -2.841406619502975, 0.1};
Point(p13 + 27) = {25.72655146255338, -2.91597667079499, 0.1};
Point(p13 + 28) = {25.85840588049702, -2.970592558966056, 0.1};
Point(p13 + 29) = {25.99718075900465, -3.003909459589662, 0.1};
Point(p13 + 30) = {26.139459, -3.015107, 0.1};
Point(p13 + 31) = {26.28173724099534, -3.003909459589662, 0.1};
Point(p13 + 32) = {26.42051211950297, -2.970592558966056, 0.1};
Point(p13 + 33) = {26.55236653744662, -2.91597667079499, 0.1};
Point(p13 + 34) = {26.67405380145677, -2.841406619502975, 0.1};
Point(p13 + 35) = {26.78257756723663, -2.748718567236633, 0.1};
Point(p13 + 36) = {26.87526561950297, -2.64019480145677, 0.1};
Point(p13 + 37) = {26.94983567079499, -2.518507537446616, 0.1};
Point(p13 + 38) = {27.00445155896605, -2.386653119502975, 0.1};
Point(p13 + 39) = {27.03776845958966, -2.247878240995346, 0.1};
Spline(13) = {9, p13 + 1, p13 + 2, p13 + 3, p13 + 4, p13 + 5, p13 + 6, p13 + 7, p13 + 8, p13 + 9, p13 + 10, p13 + 11, p13 + 12, p13 + 13, p13 + 14, p13 + 15, p13 + 16, p13 + 17, p13 + 18, p13 + 19, p13 + 20, p13 + 21, p13 + 22, p13 + 23, p13 + 24, p13 + 25, p13 + 26, p13 + 27, p13 + 28, p13 + 29, p13 + 30, p13 + 31, p13 + 32, p13 + 33, p13 + 34, p13 + 35, p13 + 36, p13 + 37, p13 + 38, p13 + 39, 9};
Line(14) = {10, 9};
p15 = newp;
Point(p15 + 1) = {27.03776845958966, -1.963321759004655, 0};
Point(p15 + 2) = {27.00445155896605, -1.824546880497025, 0};
Point(p15 + 3) = {26.94983567079499, -1.692692462553384, 0};
Point(p15 + 4) = {26.87526561950298, -1.57100519854323, 0};
Point(p15 + 5) = {26.78257756723663, -1.462481432763367, 0};
Point(p15 + 6) = {26.67405380145677, -1.369793380497025, 0};
Point(p15 + 7) = {26.55236653744662, -1.29522332920501, 0};
Point(p15 + 8) = {26.42051211950297, -1.240607441033944, 0};
Point(p15 + 9) = {26.28173724099534, -1.207290540410338, 0};
Point(p15 + 10) = {26.139459, -1.196093, 0};
Point(p15 + 11) = {25.99718075900465, -1.207290540410338, 0};
Point(p15 + 12) = {25.85840588049702, -1.240607441033944, 0};
Point(p15 + 13) = {25.72655146255338, -1.29522332920501, 0};
Point(p15 + 14) = {25.60486419854323, -1.369793380497025, 0};
Point(p15 + 15) = {25.49634043276336, -1.462481432763367, 0};
Point(p15 + 16) = {25.40365238049703, -1.571005198543229, 0};
Point(p15 + 17) = {25.32908232920501, -1.692692462553384, 0};
Point(p15 + 18) = {25.27446644103394, -1.824546880497025, 0};
Point(p15 + 19) = {25.24114954041034, -1.963321759004655, 0};
Point(p15 + 20) = {25.229952, -2.1056, 0};
Point(p15 + 21) = {25.24114954041034, -2.247878240995345, 0};
Point(p15 + 22) = {25.27446644103394, -2.386653119502975, 0};
Point(p15 + 23) = {25.32908232920501, -2.518507537446615, 0};
Point(p15 + 24) = {25.40365238049702, -2.64019480145677, 0};
Point(p15 + 25) = {25.49634043276336, -2.748718567236633, 0};
Point(p15 + 26) = {25.60486419854323, -2.841406619502975, 0};
Point(p15 + 27) = {25.72655146255338, -2.91597667079499, 0};
Point(p15 + 28) = {25.85840588049702, -2.970592558966056, 0};
Point(p15 + 29) = {25.99718075900465, -3.003909459589662, 0};
Point(p15 + 30) = {26.139459, -3.015107, 0};
Point(p15 + 31) = {26.28173724099534, -3.003909459589662, 0};
Point(p15 + 32) = {26.42051211950297, -2.970592558966056, 0};
Point(p15 + 33) = {26.55236653744662, -2.91597667079499, 0};
Point(p15 + 34) = {26.67405380145677, -2.841406619502975, 0};
Point(p15 + 35) = {26.78257756723663, -2.748718567236633, 0};
Point(p15 + 36) = {26.87526561950297, -2.64019480145677, 0};
Point(p15 + 37) = {26.94983567079499, -2.518507537446616, 0};
Point(p15 + 38) = {27.00445155896605, -2.386653119502975, 0};
Point(p15 + 39) = {27.03776845958966, -2.247878240995346, 0};
Spline(15) = {10, p15 + 1, p15 + 2, p15 + 3, p15 + 4, p15 + 5, p15 + 6, p15 + 7, p15 + 8, p15 + 9, p15 + 10, p15 + 11, p15 + 12, p15 + 13, p15 + 14, p15 + 15, p15 + 16, p15 + 17, p15 + 18, p15 + 19, p15 + 20, p15 + 21, p15 + 22, p15 + 23, p15 + 24, p15 + 25, p15 + 26, p15 + 27, p15 + 28, p15 + 29, p15 + 30, p15 + 31, p15 + 32, p15 + 33, p15 + 34, p15 + 35, p15 + 36, p15 + 37, p15 + 38, p15 + 39, 10};
p16 = newp;
Point(p16 + 1) = {27.00631655782995, 3.097557649614239, 0.1};
Point(p16 + 2) = {26.97345220676375, 3.234447523554467, 0.1};
Point(p16 + 3) = {26.91957817619517, 3.364510938812834, 0.1};
Point(p16 + 4) = {26.84602102355447, 3.484545302449949, 0.1};
Point(p16 + 5) = {26.75459197006185, 3.591594970061855, 0.1};
Point(p16 + 6) = {26.64754230244995, 3.683024023554467, 0.1};
Point(p16 + 7) = {26.52750793881283, 3.756581176195167, 0.1};
Point(p16 + 8) = {26.39744452355447, 3.810455206763746, 0.1};
Point(p16 + 9) = {26.26055464961424, 3.84331955782995, 0.1};
Point(p16 + 10) = {26.120209, 3.854365, 0.1};
Point(p16 + 11) = {25.97986335038576, 3.843319557829949, 0.1};
Point(p16 + 12) = {25.84297347644553, 3.810455206763746, 0.1};
Point(p16 + 13) = {25.71291006118717, 3.756581176195167, 0.1};
Point(p16 + 14) = {25.59287569755005, 3.683024023554467, 0.1};
Point(p16 + 15) = {25.48582602993815, 3.591594970061855, 0.1};
Point(p16 + 16) = {25.39439697644553, 3.484545302449949, 0.1};
Point(p16 + 17) = {25.32083982380483, 3.364510938812834, 0.1};
Point(p16 + 18) = {25.26696579323625, 3.234447523554468, 0.1};
Point(p16 + 19) = {25.23410144217005, 3.097557649614239, 0.1};
Point(p16 + 20) = {25.223056, 2.957212, 0.1};
Point(p16 + 21) = {25.23410144217005, 2.816866350385762, 0.1};
Point(p16 + 22) = {25.26696579323625, 2.679976476445533, 0.1};
Point(p16 + 23) = {25.32083982380483, 2.549913061187167, 0.1};
Point(p16 + 24) = {25.39439697644553, 2.429878697550051, 0.1};
Point(p16 + 25) = {25.48582602993815, 2.322829029938146, 0.1};
Point(p16 + 26) = {25.59287569755005, 2.231399976445533, 0.1};
Point(p16 + 27) = {25.71291006118717, 2.157842823804834, 0.1};
Point(p16 + 28) = {25.84297347644553, 2.103968793236255, 0.1};
Point(p16 + 29) = {25.97986335038576, 2.071104442170051, 0.1};
Point(p16 + 30) = {26.120209, 2.060059, 0.1};
Point(p16 + 31) = {26.26055464961424, 2.07110444217005, 0.1};
Point(p16 + 32) = {26.39744452355447, 2.103968793236254, 0.1};
Point(p16 + 33) = {26.52750793881283, 2.157842823804833, 0.1};
Point(p16 + 34) = {26.64754230244995, 2.231399976445533, 0.1};
Point(p16 + 35) = {26.75459197006185, 2.322829029938145, 0.1};
Point(p16 + 36) = {26.84602102355447, 2.429878697550051, 0.1};
Point(p16 + 37) = {26.91957817619517, 2.549913061187167, 0.1};
Point(p16 + 38) = {26.97345220676375, 2.679976476445533, 0.1};
Point(p16 + 39) = {27.00631655782995, 2.816866350385762, 0.1};
Spline(16) = {11, p16 + 1, p16 + 2, p16 + 3, p16 + 4, p16 + 5, p16 + 6, p16 + 7, p16 + 8, p16 + 9, p16 + 10, p16 + 11, p16 + 12, p16 + 13, p16 + 14, p16 + 15, p16 + 16, p16 + 17, p16 + 18, p16 + 19, p16 + 20, p16 + 21, p16 + 22, p16 + 23, p16 + 24, p16 + 25, p16 + 26, p16 + 27, p16 + 28, p16 + 29, p16 + 30, p16 + 31, p16 + 32, p16 + 33, p16 + 34, p16 + 35, p16 + 36, p16 + 37, p16 + 38, p16 + 39, 11};
Line(17) = {12, 11};
p18 = newp;
Point(p18 + 1) = {27.00631655782995, 3.097557649614239, 0};
Point(p18 + 2) = {26.97345220676375, 3.234447523554467, 0};
Point(p18 + 3) = {26.91957817619517, 3.364510938812834, 0};
Point(p18 + 4) = {26.84602102355447, 3.484545302449949, 0};
Point(p18 + 5) = {26.75459197006185, 3.591594970061855, 0};
Point(p18 + 6) = {26.64754230244995, 3.683024023554467, 0};
Point(p18 + 7) = {26.52750793881283, 3.756581176195167, 0};
Point(p18 + 8) = {26.39744452355447, 3.810455206763746, 0};
Point(p18 + 9) = {26.26055464961424, 3.84331955782995, 0};
Point(p18 + 10) = {26.120209, 3.854365, 0};
Point(p18 + 11) = {25.97986335038576, 3.843319557829949, 0};
Point(p18 + 12) = {25.84297347644553, 3.810455206763746, 0};
Point(p18 + 13) = {25.71291006118717, 3.756581176195167, 0};
Point(p18 + 14) = {25.59287569755005, 3.683024023554467, 0};
Point(p18 + 15) = {25.48582602993815, 3.591594970061855, 0};
Point(p18 + 16) = {25.39439697644553, 3.484545302449949, 0};
Point(p18 + 17) = {25.32083982380483, 3.364510938812834, 0};
Point(p18 + 18) = {25.26696579323625, 3.234447523554468, 0};
Point(p18 + 19) = {25.23410144217005, 3.097557649614239, 0};
Point(p18 + 20) = {25.223056, 2.957212, 0};
Point(p18 + 21) = {25.23410144217005, 2.816866350385762, 0};
Point(p18 + 22) = {25.26696579323625, 2.679976476445533, 0};
Point(p18 + 23) = {25.32083982380483, 2.549913061187167, 0};
Point(p18 + 24) = {25.39439697644553, 2.429878697550051, 0};
Point(p18 + 25) = {25.48582602993815, 2.322829029938146, 0};
Point(p18 + 26) = {25.59287569755005, 2.231399976445533, 0};
Point(p18 + 27) = {25.71291006118717, 2.157842823804834, 0};
Point(p18 + 28) = {25.84297347644553, 2.103968793236255, 0};
Point(p18 + 29) = {25.97986335038576, 2.071104442170051, 0};
Point(p18 + 30) = {26.120209, 2.060059, 0};
Point(p18 + 31) = {26.26055464961424, 2.07110444217005, 0};
Point(p18 + 32) = {26.39744452355447, 2.103968793236254, 0};
Point(p18 + 33) = {26.52750793881283, 2.157842823804833, 0};
Point(p18 + 34) = {26.64754230244995, 2.231399976445533, 0};
Point(p18 + 35) = {26.75459197006185, 2.322829029938145, 0};
Point(p18 + 36) = {26.84602102355447, 2.429878697550051, 0};
Point(p18 + 37) = {26.91957817619517, 2.549913061187167, 0};
Point(p18 + 38) = {26.97345220676375, 2.679976476445533, 0};
Point(p18 + 39) = {27.00631655782995, 2.816866350385762, 0};
Spline(18) = {12, p18 + 1, p18 + 2, p18 + 3, p18 + 4, p18 + 5, p18 + 6, p18 + 7, p18 + 8, p18 + 9, p18 + 10, p18 + 11, p18 + 12, p18 + 13, p18 + 14, p18 + 15, p18 + 16, p18 + 17, p18 + 18, p18 + 19, p18 + 20, p18 + 21, p18 + 22, p18 + 23, p18 + 24, p18 + 25, p18 + 26, p18 + 27, p18 + 28, p18 + 29, p18 + 30, p18 + 31, p18 + 32, p18 + 33, p18 + 34, p18 + 35, p18 + 36, p18 + 37, p18 + 38, p18 + 39, 12};
Line(19) = {14, 13};
Line(20) = {13, 15};
Line(21) = {16, 15};
Line(22) = {14, 16};
Line(23) = {14, 17};
Line(24) = {17, 18};
Line(25) = {13, 18};
Line(26) = {15, 19};
Line(27) = {18, 19};
Line(28) = {16, 20};
Line(29) = {20, 19};
Line(30) = {17, 20};
Curve Loop(7) = {-13, -14, 15, 14};
Surface(7) = {7};
Curve Loop(8) = {13};
Plane Surface(8) = {8};
Curve Loop(9) = {15};
Plane Surface(9) = {9};
Curve Loop(10) = {-16, -17, 18, 17};
Surface(10) = {10};
Curve Loop(11) = {16};
Plane Surface(11) = {11};
Curve Loop(12) = {18};
Plane Surface(12) = {12};
Curve Loop(13) = {-19, 22, 21, -20};
Plane Surface(13) = {13};
Curve Loop(14) = {-23, 19, 25, -24};
Plane Surface(14) = {14};
Curve Loop(15) = {-20, 25, 27, -26};
Plane Surface(15) = {15};
Curve Loop(16) = {-28, 21, 26, -29};
Plane Surface(16) = {16};
Curve Loop(17) = {-22, 23, 30, -28, -15, -18};
Plane Surface(17) = {17};
Curve Loop(18) = {-24, 30, 29, -27};
Plane Surface(18) = {18};
Surface Loop(1) = {13, 14, 15, 16, 17, 18, 7, 10, 8, 11};
Volume(1) = {1};
Surface Loop(2) = {7, 8, 9};
Volume(2) = {2};
Surface Loop(3) = {10, 11, 12};
Volume(3) = {3};
Physical Surface("WALLS") = {13, 18};
Physical Surface("LOAD") = {8, 11};
Physical Surface("BORDER") = {7, 9, 10, 12, 14, 15, 16, 17};
Physical Volume("SOLID") = {1, 2, 3};
