cl__1 = 0.121837;
cl__2 = 0.088409;
cl__3 = 3.365248;
cl__4 = 3.548862;
cl__5 = 0.641204;
cl__6 = 0.334915;
Point(9) = {34.898001, 2.373322, 0.1, cl__1};
Point(10) = {34.898001, 2.373322, 0, cl__1};
Point(11) = {14.358848, 0.1906529999999998, 0.1, cl__2};
Point(12) = {14.358848, 0.1906529999999998, 0, cl__2};
Point(13) = {0.178879, -3.4121, 1, cl__3};
Point(14) = {0.178879, -3.4121, 0, cl__3};
Point(15) = {0.178879, 4.59273, 1, cl__4};
Point(16) = {0.178879, 4.59273, 0, cl__4};
Point(17) = {37.126344, -3.4121, 0, cl__5};
Point(18) = {37.126344, -3.4121, 1, cl__5};
Point(19) = {37.126344, 4.59273, 1, cl__6};
Point(20) = {37.126344, 4.59273, 0, cl__6};
p13 = newp;
Point(p13 + 1) = {34.8830007819726, 2.563917841343391, 0.1};
Point(p13 + 2) = {34.83836948304111, 2.749820580521576, 0.1};
Point(p13 + 3) = {34.765206073908, 2.92645267512017, 0.1};
Point(p13 + 4) = {34.66531208052157, 3.089464856761842, 0.1};
Point(p13 + 5) = {34.54114722452816, 3.23484322452816, 0.1};
Point(p13 + 6) = {34.39576885676184, 3.359008080521576, 0.1};
Point(p13 + 7) = {34.23275667512017, 3.458902073908003, 0.1};
Point(p13 + 8) = {34.05612458052158, 3.532065483041108, 0.1};
Point(p13 + 9) = {33.87022184134339, 3.576696781972601, 0.1};
Point(p13 + 10) = {33.679626, 3.591697, 0.1};
Point(p13 + 11) = {33.4890301586566, 3.576696781972601, 0.1};
Point(p13 + 12) = {33.30312741947842, 3.532065483041108, 0.1};
Point(p13 + 13) = {33.12649532487983, 3.458902073908003, 0.1};
Point(p13 + 14) = {32.96348314323816, 3.359008080521576, 0.1};
Point(p13 + 15) = {32.81810477547184, 3.23484322452816, 0.1};
Point(p13 + 16) = {32.69393991947842, 3.089464856761842, 0.1};
Point(p13 + 17) = {32.59404592609199, 2.92645267512017, 0.1};
Point(p13 + 18) = {32.52088251695889, 2.749820580521577, 0.1};
Point(p13 + 19) = {32.4762512180274, 2.563917841343391, 0.1};
Point(p13 + 20) = {32.461251, 2.373322, 0.1};
Point(p13 + 21) = {32.4762512180274, 2.182726158656609, 0.1};
Point(p13 + 22) = {32.52088251695889, 1.996823419478423, 0.1};
Point(p13 + 23) = {32.59404592609199, 1.82019132487983, 0.1};
Point(p13 + 24) = {32.69393991947842, 1.657179143238158, 0.1};
Point(p13 + 25) = {32.81810477547184, 1.51180077547184, 0.1};
Point(p13 + 26) = {32.96348314323816, 1.387635919478424, 0.1};
Point(p13 + 27) = {33.12649532487983, 1.287741926091997, 0.1};
Point(p13 + 28) = {33.30312741947842, 1.214578516958892, 0.1};
Point(p13 + 29) = {33.4890301586566, 1.169947218027399, 0.1};
Point(p13 + 30) = {33.679626, 1.154947, 0.1};
Point(p13 + 31) = {33.87022184134339, 1.169947218027399, 0.1};
Point(p13 + 32) = {34.05612458052158, 1.214578516958892, 0.1};
Point(p13 + 33) = {34.23275667512017, 1.287741926091997, 0.1};
Point(p13 + 34) = {34.39576885676184, 1.387635919478423, 0.1};
Point(p13 + 35) = {34.54114722452816, 1.51180077547184, 0.1};
Point(p13 + 36) = {34.66531208052157, 1.657179143238158, 0.1};
Point(p13 + 37) = {34.765206073908, 1.820191324879829, 0.1};
Point(p13 + 38) = {34.83836948304111, 1.996823419478423, 0.1};
Point(p13 + 39) = {34.8830007819726, 2.182726158656608, 0.1};
Spline(13) = {9, p13 + 1, p13 + 2, p13 + 3, p13 + 4, p13 + 5, p13 + 6, p13 + 7, p13 + 8, p13 + 9, p13 + 10, p13 + 11, p13 + 12, p13 + 13, p13 + 14, p13 + 15, p13 + 16, p13 + 17, p13 + 18, p13 + 19, p13 + 20, p13 + 21, p13 + 22, p13 + 23, p13 + 24, p13 + 25, p13 + 26, p13 + 27, p13 + 28, p13 + 29, p13 + 30, p13 + 31, p13 + 32, p13 + 33, p13 + 34, p13 + 35, p13 + 36, p13 + 37, p13 + 38, p13 + 39, 9};
Line(14) = {10, 9};
p15 = newp;
Point(p15 + 1) = {34.8830007819726, 2.563917841343391, 0};
Point(p15 + 2) = {34.83836948304111, 2.749820580521576, 0};
Point(p15 + 3) = {34.765206073908, 2.92645267512017, 0};
Point(p15 + 4) = {34.66531208052157, 3.089464856761842, 0};
Point(p15 + 5) = {34.54114722452816, 3.23484322452816, 0};
Point(p15 + 6) = {34.39576885676184, 3.359008080521576, 0};
Point(p15 + 7) = {34.23275667512017, 3.458902073908003, 0};
Point(p15 + 8) = {34.05612458052158, 3.532065483041108, 0};
Point(p15 + 9) = {33.87022184134339, 3.576696781972601, 0};
Point(p15 + 10) = {33.679626, 3.591697, 0};
Point(p15 + 11) = {33.4890301586566, 3.576696781972601, 0};
Point(p15 + 12) = {33.30312741947842, 3.532065483041108, 0};
Point(p15 + 13) = {33.12649532487983, 3.458902073908003, 0};
Point(p15 + 14) = {32.96348314323816, 3.359008080521576, 0};
Point(p15 + 15) = {32.81810477547184, 3.23484322452816, 0};
Point(p15 + 16) = {32.69393991947842, 3.089464856761842, 0};
Point(p15 + 17) = {32.59404592609199, 2.92645267512017, 0};
Point(p15 + 18) = {32.52088251695889, 2.749820580521577, 0};
Point(p15 + 19) = {32.4762512180274, 2.563917841343391, 0};
Point(p15 + 20) = {32.461251, 2.373322, 0};
Point(p15 + 21) = {32.4762512180274, 2.182726158656609, 0};
Point(p15 + 22) = {32.52088251695889, 1.996823419478423, 0};
Point(p15 + 23) = {32.59404592609199, 1.82019132487983, 0};
Point(p15 + 24) = {32.69393991947842, 1.657179143238158, 0};
Point(p15 + 25) = {32.81810477547184, 1.51180077547184, 0};
Point(p15 + 26) = {32.96348314323816, 1.387635919478424, 0};
Point(p15 + 27) = {33.12649532487983, 1.287741926091997, 0};
Point(p15 + 28) = {33.30312741947842, 1.214578516958892, 0};
Point(p15 + 29) = {33.4890301586566, 1.169947218027399, 0};
Point(p15 + 30) = {33.679626, 1.154947, 0};
Point(p15 + 31) = {33.87022184134339, 1.169947218027399, 0};
Point(p15 + 32) = {34.05612458052158, 1.214578516958892, 0};
Point(p15 + 33) = {34.23275667512017, 1.287741926091997, 0};
Point(p15 + 34) = {34.39576885676184, 1.387635919478423, 0};
Point(p15 + 35) = {34.54114722452816, 1.51180077547184, 0};
Point(p15 + 36) = {34.66531208052157, 1.657179143238158, 0};
Point(p15 + 37) = {34.765206073908, 1.820191324879829, 0};
Point(p15 + 38) = {34.83836948304111, 1.996823419478423, 0};
Point(p15 + 39) = {34.8830007819726, 2.182726158656608, 0};
Spline(15) = {10, p15 + 1, p15 + 2, p15 + 3, p15 + 4, p15 + 5, p15 + 6, p15 + 7, p15 + 8, p15 + 9, p15 + 10, p15 + 11, p15 + 12, p15 + 13, p15 + 14, p15 + 15, p15 + 16, p15 + 17, p15 + 18, p15 + 19, p15 + 20, p15 + 21, p15 + 22, p15 + 23, p15 + 24, p15 + 25, p15 + 26, p15 + 27, p15 + 28, p15 + 29, p15 + 30, p15 + 31, p15 + 32, p15 + 33, p15 + 34, p15 + 35, p15 + 36, p15 + 37, p15 + 38, p15 + 39, 10};
p16 = newp;
Point(p16 + 1) = {14.34796342197173, 0.3289546768940226, 0.1};
Point(p16 + 2) = {14.31557770232183, 0.4638509075059641, 0.1};
Point(p16 + 3) = {14.26248828495012, 0.5920200989432366, 0.1};
Point(p16 + 4) = {14.19000240750596, 0.7103063003434956, 0.1};
Point(p16 + 5) = {14.09990491285887, 0.8157969128588711, 0.1};
Point(p16 + 6) = {13.9944143003435, 0.905894407505964, 0.1};
Point(p16 + 7) = {13.87612809894324, 0.9783802849501214, 0.1};
Point(p16 + 8) = {13.74795890750596, 1.031469702321833, 0.1};
Point(p16 + 9) = {13.61306267689402, 1.063855421971734, 0.1};
Point(p16 + 10) = {13.474761, 1.07474, 0.1};
Point(p16 + 11) = {13.33645932310598, 1.063855421971734, 0.1};
Point(p16 + 12) = {13.20156309249404, 1.031469702321834, 0.1};
Point(p16 + 13) = {13.07339390105676, 0.9783802849501215, 0.1};
Point(p16 + 14) = {12.95510769965651, 0.9058944075059641, 0.1};
Point(p16 + 15) = {12.84961708714113, 0.8157969128588712, 0.1};
Point(p16 + 16) = {12.75951959249404, 0.7103063003434957, 0.1};
Point(p16 + 17) = {12.68703371504988, 0.5920200989432367, 0.1};
Point(p16 + 18) = {12.63394429767817, 0.4638509075059641, 0.1};
Point(p16 + 19) = {12.60155857802827, 0.3289546768940227, 0.1};
Point(p16 + 20) = {12.590674, 0.1906530000000001, 0.1};
Point(p16 + 21) = {12.60155857802827, 0.05235132310597751, 0.1};
Point(p16 + 22) = {12.63394429767817, -0.08254490750596441, 0.1};
Point(p16 + 23) = {12.68703371504988, -0.2107140989432363, 0.1};
Point(p16 + 24) = {12.75951959249404, -0.3290003003434956, 0.1};
Point(p16 + 25) = {12.84961708714113, -0.4344909128588712, 0.1};
Point(p16 + 26) = {12.95510769965651, -0.524588407505964, 0.1};
Point(p16 + 27) = {13.07339390105676, -0.5970742849501215, 0.1};
Point(p16 + 28) = {13.20156309249404, -0.6501637023218334, 0.1};
Point(p16 + 29) = {13.33645932310598, -0.6825494219717335, 0.1};
Point(p16 + 30) = {13.474761, -0.693434, 0.1};
Point(p16 + 31) = {13.61306267689402, -0.6825494219717335, 0.1};
Point(p16 + 32) = {13.74795890750596, -0.6501637023218335, 0.1};
Point(p16 + 33) = {13.87612809894324, -0.5970742849501217, 0.1};
Point(p16 + 34) = {13.9944143003435, -0.5245884075059642, 0.1};
Point(p16 + 35) = {14.09990491285887, -0.4344909128588714, 0.1};
Point(p16 + 36) = {14.19000240750596, -0.3290003003434958, 0.1};
Point(p16 + 37) = {14.26248828495012, -0.2107140989432369, 0.1};
Point(p16 + 38) = {14.31557770232183, -0.0825449075059643, 0.1};
Point(p16 + 39) = {14.34796342197173, 0.05235132310597718, 0.1};
Spline(16) = {11, p16 + 1, p16 + 2, p16 + 3, p16 + 4, p16 + 5, p16 + 6, p16 + 7, p16 + 8, p16 + 9, p16 + 10, p16 + 11, p16 + 12, p16 + 13, p16 + 14, p16 + 15, p16 + 16, p16 + 17, p16 + 18, p16 + 19, p16 + 20, p16 + 21, p16 + 22, p16 + 23, p16 + 24, p16 + 25, p16 + 26, p16 + 27, p16 + 28, p16 + 29, p16 + 30, p16 + 31, p16 + 32, p16 + 33, p16 + 34, p16 + 35, p16 + 36, p16 + 37, p16 + 38, p16 + 39, 11};
Line(17) = {12, 11};
p18 = newp;
Point(p18 + 1) = {14.34796342197173, 0.3289546768940226, 0};
Point(p18 + 2) = {14.31557770232183, 0.4638509075059641, 0};
Point(p18 + 3) = {14.26248828495012, 0.5920200989432366, 0};
Point(p18 + 4) = {14.19000240750596, 0.7103063003434956, 0};
Point(p18 + 5) = {14.09990491285887, 0.8157969128588711, 0};
Point(p18 + 6) = {13.9944143003435, 0.905894407505964, 0};
Point(p18 + 7) = {13.87612809894324, 0.9783802849501214, 0};
Point(p18 + 8) = {13.74795890750596, 1.031469702321833, 0};
Point(p18 + 9) = {13.61306267689402, 1.063855421971734, 0};
Point(p18 + 10) = {13.474761, 1.07474, 0};
Point(p18 + 11) = {13.33645932310598, 1.063855421971734, 0};
Point(p18 + 12) = {13.20156309249404, 1.031469702321834, 0};
Point(p18 + 13) = {13.07339390105676, 0.9783802849501215, 0};
Point(p18 + 14) = {12.95510769965651, 0.9058944075059641, 0};
Point(p18 + 15) = {12.84961708714113, 0.8157969128588712, 0};
Point(p18 + 16) = {12.75951959249404, 0.7103063003434957, 0};
Point(p18 + 17) = {12.68703371504988, 0.5920200989432367, 0};
Point(p18 + 18) = {12.63394429767817, 0.4638509075059641, 0};
Point(p18 + 19) = {12.60155857802827, 0.3289546768940227, 0};
Point(p18 + 20) = {12.590674, 0.1906530000000001, 0};
Point(p18 + 21) = {12.60155857802827, 0.05235132310597751, 0};
Point(p18 + 22) = {12.63394429767817, -0.08254490750596441, 0};
Point(p18 + 23) = {12.68703371504988, -0.2107140989432363, 0};
Point(p18 + 24) = {12.75951959249404, -0.3290003003434956, 0};
Point(p18 + 25) = {12.84961708714113, -0.4344909128588712, 0};
Point(p18 + 26) = {12.95510769965651, -0.524588407505964, 0};
Point(p18 + 27) = {13.07339390105676, -0.5970742849501215, 0};
Point(p18 + 28) = {13.20156309249404, -0.6501637023218334, 0};
Point(p18 + 29) = {13.33645932310598, -0.6825494219717335, 0};
Point(p18 + 30) = {13.474761, -0.693434, 0};
Point(p18 + 31) = {13.61306267689402, -0.6825494219717335, 0};
Point(p18 + 32) = {13.74795890750596, -0.6501637023218335, 0};
Point(p18 + 33) = {13.87612809894324, -0.5970742849501217, 0};
Point(p18 + 34) = {13.9944143003435, -0.5245884075059642, 0};
Point(p18 + 35) = {14.09990491285887, -0.4344909128588714, 0};
Point(p18 + 36) = {14.19000240750596, -0.3290003003434958, 0};
Point(p18 + 37) = {14.26248828495012, -0.2107140989432369, 0};
Point(p18 + 38) = {14.31557770232183, -0.0825449075059643, 0};
Point(p18 + 39) = {14.34796342197173, 0.05235132310597718, 0};
Spline(18) = {12, p18 + 1, p18 + 2, p18 + 3, p18 + 4, p18 + 5, p18 + 6, p18 + 7, p18 + 8, p18 + 9, p18 + 10, p18 + 11, p18 + 12, p18 + 13, p18 + 14, p18 + 15, p18 + 16, p18 + 17, p18 + 18, p18 + 19, p18 + 20, p18 + 21, p18 + 22, p18 + 23, p18 + 24, p18 + 25, p18 + 26, p18 + 27, p18 + 28, p18 + 29, p18 + 30, p18 + 31, p18 + 32, p18 + 33, p18 + 34, p18 + 35, p18 + 36, p18 + 37, p18 + 38, p18 + 39, 12};
Line(19) = {14, 13};
Line(20) = {13, 15};
Line(21) = {16, 15};
Line(22) = {14, 16};
Line(23) = {14, 17};
Line(24) = {17, 18};
Line(25) = {13, 18};
Line(26) = {15, 19};
Line(27) = {18, 19};
Line(28) = {16, 20};
Line(29) = {20, 19};
Line(30) = {17, 20};
Curve Loop(7) = {-13, -14, 15, 14};
Surface(7) = {7};
Curve Loop(8) = {13};
Plane Surface(8) = {8};
Curve Loop(9) = {15};
Plane Surface(9) = {9};
Curve Loop(10) = {-16, -17, 18, 17};
Surface(10) = {10};
Curve Loop(11) = {16};
Plane Surface(11) = {11};
Curve Loop(12) = {18};
Plane Surface(12) = {12};
Curve Loop(13) = {-19, 22, 21, -20};
Plane Surface(13) = {13};
Curve Loop(14) = {-23, 19, 25, -24};
Plane Surface(14) = {14};
Curve Loop(15) = {-20, 25, 27, -26};
Plane Surface(15) = {15};
Curve Loop(16) = {-28, 21, 26, -29};
Plane Surface(16) = {16};
Curve Loop(17) = {-22, 23, 30, -28, -18, -15};
Plane Surface(17) = {17};
Curve Loop(18) = {-24, 30, 29, -27};
Plane Surface(18) = {18};
Surface Loop(1) = {13, 14, 15, 16, 17, 18, 10, 7, 11, 8};
Volume(1) = {1};
Surface Loop(2) = {7, 8, 9};
Volume(2) = {2};
Surface Loop(3) = {10, 11, 12};
Volume(3) = {3};
Physical Surface("WALLS") = {13, 18};
Physical Surface("LOAD") = {8, 11};
Physical Surface("BORDER") = {7, 9, 10, 12, 14, 15, 16, 17};
Physical Volume("SOLID") = {1, 2, 3};
