cl__1 = 0.087057;
cl__2 = 0.134958;
cl__3 = 0.809046;
cl__4 = 0.866563;
cl__5 = 1.443747;
cl__6 = 1.702936;
Point(9) = {14.238934, -0.6446720000000002, 0.1, cl__1};
Point(10) = {14.238934, -0.6446720000000002, 0, cl__1};
Point(11) = {20.83055, -1.429083000000001, 0.1, cl__2};
Point(12) = {20.83055, -1.429083000000001, 0, cl__2};
Point(13) = {0.101901, -3.728034, 1, cl__3};
Point(14) = {0.101901, -3.728034, 0, cl__3};
Point(15) = {0.101901, 5.272995000000001, 1, cl__4};
Point(16) = {0.101901, 5.272995000000001, 0, cl__4};
Point(17) = {38.502932, -3.728034, 0, cl__5};
Point(18) = {38.502932, -3.728034, 1, cl__5};
Point(19) = {38.502932, 5.272995000000001, 1, cl__6};
Point(20) = {38.502932, 5.272995000000001, 0, cl__6};
p13 = newp;
Point(p13 + 1) = {14.22821582636025, -0.5084846913354613, 0.1};
Point(p13 + 2) = {14.19632522244759, -0.3756507661900077, 0.1};
Point(p13 + 3) = {14.14404744076919, -0.2494410366512431, 0.1};
Point(p13 + 4) = {14.07266973380999, -0.1329632051264894, 0.1};
Point(p13 + 5) = {13.98394965760435, -0.0290853423956462, 0.1};
Point(p13 + 6) = {13.88007179487351, 0.05963473380999229, 0.1};
Point(p13 + 7) = {13.76359396334876, 0.1310124407691915, 0.1};
Point(p13 + 8) = {13.63738423380999, 0.1832902224475881, 0.1};
Point(p13 + 9) = {13.50455030866454, 0.2151808263602496, 0.1};
Point(p13 + 10) = {13.368363, 0.225899, 0.1};
Point(p13 + 11) = {13.23217569133546, 0.2151808263602496, 0.1};
Point(p13 + 12) = {13.09934176619001, 0.1832902224475882, 0.1};
Point(p13 + 13) = {12.97313203665124, 0.1310124407691916, 0.1};
Point(p13 + 14) = {12.85665420512649, 0.05963473380999229, 0.1};
Point(p13 + 15) = {12.75277634239565, -0.02908534239564609, 0.1};
Point(p13 + 16) = {12.66405626619001, -0.1329632051264893, 0.1};
Point(p13 + 17) = {12.59267855923081, -0.249441036651243, 0.1};
Point(p13 + 18) = {12.54040077755241, -0.3756507661900076, 0.1};
Point(p13 + 19) = {12.50851017363975, -0.508484691335461, 0.1};
Point(p13 + 20) = {12.497792, -0.6446719999999999, 0.1};
Point(p13 + 21) = {12.50851017363975, -0.7808593086645388, 0.1};
Point(p13 + 22) = {12.54040077755241, -0.9136932338099926, 0.1};
Point(p13 + 23) = {12.59267855923081, -1.039902963348757, 0.1};
Point(p13 + 24) = {12.66405626619001, -1.156380794873511, 0.1};
Point(p13 + 25) = {12.75277634239565, -1.260258657604354, 0.1};
Point(p13 + 26) = {12.85665420512649, -1.348978733809992, 0.1};
Point(p13 + 27) = {12.97313203665124, -1.420356440769192, 0.1};
Point(p13 + 28) = {13.09934176619001, -1.472634222447588, 0.1};
Point(p13 + 29) = {13.23217569133546, -1.50452482636025, 0.1};
Point(p13 + 30) = {13.368363, -1.515243, 0.1};
Point(p13 + 31) = {13.50455030866454, -1.50452482636025, 0.1};
Point(p13 + 32) = {13.63738423380999, -1.472634222447588, 0.1};
Point(p13 + 33) = {13.76359396334876, -1.420356440769192, 0.1};
Point(p13 + 34) = {13.88007179487351, -1.348978733809993, 0.1};
Point(p13 + 35) = {13.98394965760435, -1.260258657604354, 0.1};
Point(p13 + 36) = {14.07266973380999, -1.156380794873511, 0.1};
Point(p13 + 37) = {14.14404744076919, -1.039902963348757, 0.1};
Point(p13 + 38) = {14.19632522244759, -0.9136932338099926, 0.1};
Point(p13 + 39) = {14.22821582636025, -0.780859308664539, 0.1};
Spline(13) = {9, p13 + 1, p13 + 2, p13 + 3, p13 + 4, p13 + 5, p13 + 6, p13 + 7, p13 + 8, p13 + 9, p13 + 10, p13 + 11, p13 + 12, p13 + 13, p13 + 14, p13 + 15, p13 + 16, p13 + 17, p13 + 18, p13 + 19, p13 + 20, p13 + 21, p13 + 22, p13 + 23, p13 + 24, p13 + 25, p13 + 26, p13 + 27, p13 + 28, p13 + 29, p13 + 30, p13 + 31, p13 + 32, p13 + 33, p13 + 34, p13 + 35, p13 + 36, p13 + 37, p13 + 38, p13 + 39, 9};
Line(14) = {10, 9};
p15 = newp;
Point(p15 + 1) = {14.22821582636025, -0.5084846913354613, 0};
Point(p15 + 2) = {14.19632522244759, -0.3756507661900077, 0};
Point(p15 + 3) = {14.14404744076919, -0.2494410366512431, 0};
Point(p15 + 4) = {14.07266973380999, -0.1329632051264894, 0};
Point(p15 + 5) = {13.98394965760435, -0.0290853423956462, 0};
Point(p15 + 6) = {13.88007179487351, 0.05963473380999229, 0};
Point(p15 + 7) = {13.76359396334876, 0.1310124407691915, 0};
Point(p15 + 8) = {13.63738423380999, 0.1832902224475881, 0};
Point(p15 + 9) = {13.50455030866454, 0.2151808263602496, 0};
Point(p15 + 10) = {13.368363, 0.225899, 0};
Point(p15 + 11) = {13.23217569133546, 0.2151808263602496, 0};
Point(p15 + 12) = {13.09934176619001, 0.1832902224475882, 0};
Point(p15 + 13) = {12.97313203665124, 0.1310124407691916, 0};
Point(p15 + 14) = {12.85665420512649, 0.05963473380999229, 0};
Point(p15 + 15) = {12.75277634239565, -0.02908534239564609, 0};
Point(p15 + 16) = {12.66405626619001, -0.1329632051264893, 0};
Point(p15 + 17) = {12.59267855923081, -0.249441036651243, 0};
Point(p15 + 18) = {12.54040077755241, -0.3756507661900076, 0};
Point(p15 + 19) = {12.50851017363975, -0.508484691335461, 0};
Point(p15 + 20) = {12.497792, -0.6446719999999999, 0};
Point(p15 + 21) = {12.50851017363975, -0.7808593086645388, 0};
Point(p15 + 22) = {12.54040077755241, -0.9136932338099926, 0};
Point(p15 + 23) = {12.59267855923081, -1.039902963348757, 0};
Point(p15 + 24) = {12.66405626619001, -1.156380794873511, 0};
Point(p15 + 25) = {12.75277634239565, -1.260258657604354, 0};
Point(p15 + 26) = {12.85665420512649, -1.348978733809992, 0};
Point(p15 + 27) = {12.97313203665124, -1.420356440769192, 0};
Point(p15 + 28) = {13.09934176619001, -1.472634222447588, 0};
Point(p15 + 29) = {13.23217569133546, -1.50452482636025, 0};
Point(p15 + 30) = {13.368363, -1.515243, 0};
Point(p15 + 31) = {13.50455030866454, -1.50452482636025, 0};
Point(p15 + 32) = {13.63738423380999, -1.472634222447588, 0};
Point(p15 + 33) = {13.76359396334876, -1.420356440769192, 0};
Point(p15 + 34) = {13.88007179487351, -1.348978733809993, 0};
Point(p15 + 35) = {13.98394965760435, -1.260258657604354, 0};
Point(p15 + 36) = {14.07266973380999, -1.156380794873511, 0};
Point(p15 + 37) = {14.14404744076919, -1.039902963348757, 0};
Point(p15 + 38) = {14.19632522244759, -0.9136932338099926, 0};
Point(p15 + 39) = {14.22821582636025, -0.780859308664539, 0};
Spline(15) = {10, p15 + 1, p15 + 2, p15 + 3, p15 + 4, p15 + 5, p15 + 6, p15 + 7, p15 + 8, p15 + 9, p15 + 10, p15 + 11, p15 + 12, p15 + 13, p15 + 14, p15 + 15, p15 + 16, p15 + 17, p15 + 18, p15 + 19, p15 + 20, p15 + 21, p15 + 22, p15 + 23, p15 + 24, p15 + 25, p15 + 26, p15 + 27, p15 + 28, p15 + 29, p15 + 30, p15 + 31, p15 + 32, p15 + 33, p15 + 34, p15 + 35, p15 + 36, p15 + 37, p15 + 38, p15 + 39, 10};
p16 = newp;
Point(p16 + 1) = {20.81393447994702, -1.217962800408865, 0.1};
Point(p16 + 2) = {20.76449704903555, -1.012041080799436, 0.1};
Point(p16 + 3) = {20.68345502088804, -0.8163883173235015, 0.1};
Point(p16 + 4) = {20.57280391920056, -0.6358221303521333, 0.1};
Point(p16 + 5) = {20.43526834132662, -0.474788658673384, 0.1};
Point(p16 + 6) = {20.27423486964787, -0.3372530807994361, 0.1};
Point(p16 + 7) = {20.0936686826765, -0.2266019791119593, 0.1};
Point(p16 + 8) = {19.89801591920056, -0.1455599509644518, 0.1};
Point(p16 + 9) = {19.69209419959114, -0.09612252005297628, 0.1};
Point(p16 + 10) = {19.480974, -0.07950699999999999, 0.1};
Point(p16 + 11) = {19.26985380040886, -0.0961225200529765, 0.1};
Point(p16 + 12) = {19.06393208079944, -0.1455599509644516, 0.1};
Point(p16 + 13) = {18.8682793173235, -0.2266019791119591, 0.1};
Point(p16 + 14) = {18.68771313035213, -0.3372530807994358, 0.1};
Point(p16 + 15) = {18.52667965867338, -0.4747886586733839, 0.1};
Point(p16 + 16) = {18.38914408079944, -0.6358221303521332, 0.1};
Point(p16 + 17) = {18.27849297911196, -0.8163883173235014, 0.1};
Point(p16 + 18) = {18.19745095096445, -1.012041080799436, 0.1};
Point(p16 + 19) = {18.14801352005298, -1.217962800408865, 0.1};
Point(p16 + 20) = {18.131398, -1.429083, 0.1};
Point(p16 + 21) = {18.14801352005298, -1.640203199591135, 0.1};
Point(p16 + 22) = {18.19745095096445, -1.846124919200565, 0.1};
Point(p16 + 23) = {18.27849297911196, -2.041777682676498, 0.1};
Point(p16 + 24) = {18.38914408079944, -2.222343869647867, 0.1};
Point(p16 + 25) = {18.52667965867338, -2.383377341326616, 0.1};
Point(p16 + 26) = {18.68771313035213, -2.520912919200564, 0.1};
Point(p16 + 27) = {18.8682793173235, -2.631564020888041, 0.1};
Point(p16 + 28) = {19.06393208079944, -2.712606049035548, 0.1};
Point(p16 + 29) = {19.26985380040886, -2.762043479947024, 0.1};
Point(p16 + 30) = {19.480974, -2.778659, 0.1};
Point(p16 + 31) = {19.69209419959114, -2.762043479947024, 0.1};
Point(p16 + 32) = {19.89801591920056, -2.712606049035549, 0.1};
Point(p16 + 33) = {20.0936686826765, -2.631564020888041, 0.1};
Point(p16 + 34) = {20.27423486964787, -2.520912919200565, 0.1};
Point(p16 + 35) = {20.43526834132662, -2.383377341326617, 0.1};
Point(p16 + 36) = {20.57280391920056, -2.222343869647867, 0.1};
Point(p16 + 37) = {20.68345502088804, -2.041777682676499, 0.1};
Point(p16 + 38) = {20.76449704903555, -1.846124919200564, 0.1};
Point(p16 + 39) = {20.81393447994702, -1.640203199591135, 0.1};
Spline(16) = {11, p16 + 1, p16 + 2, p16 + 3, p16 + 4, p16 + 5, p16 + 6, p16 + 7, p16 + 8, p16 + 9, p16 + 10, p16 + 11, p16 + 12, p16 + 13, p16 + 14, p16 + 15, p16 + 16, p16 + 17, p16 + 18, p16 + 19, p16 + 20, p16 + 21, p16 + 22, p16 + 23, p16 + 24, p16 + 25, p16 + 26, p16 + 27, p16 + 28, p16 + 29, p16 + 30, p16 + 31, p16 + 32, p16 + 33, p16 + 34, p16 + 35, p16 + 36, p16 + 37, p16 + 38, p16 + 39, 11};
Line(17) = {12, 11};
p18 = newp;
Point(p18 + 1) = {20.81393447994702, -1.217962800408865, 0};
Point(p18 + 2) = {20.76449704903555, -1.012041080799436, 0};
Point(p18 + 3) = {20.68345502088804, -0.8163883173235015, 0};
Point(p18 + 4) = {20.57280391920056, -0.6358221303521333, 0};
Point(p18 + 5) = {20.43526834132662, -0.474788658673384, 0};
Point(p18 + 6) = {20.27423486964787, -0.3372530807994361, 0};
Point(p18 + 7) = {20.0936686826765, -0.2266019791119593, 0};
Point(p18 + 8) = {19.89801591920056, -0.1455599509644518, 0};
Point(p18 + 9) = {19.69209419959114, -0.09612252005297628, 0};
Point(p18 + 10) = {19.480974, -0.07950699999999999, 0};
Point(p18 + 11) = {19.26985380040886, -0.0961225200529765, 0};
Point(p18 + 12) = {19.06393208079944, -0.1455599509644516, 0};
Point(p18 + 13) = {18.8682793173235, -0.2266019791119591, 0};
Point(p18 + 14) = {18.68771313035213, -0.3372530807994358, 0};
Point(p18 + 15) = {18.52667965867338, -0.4747886586733839, 0};
Point(p18 + 16) = {18.38914408079944, -0.6358221303521332, 0};
Point(p18 + 17) = {18.27849297911196, -0.8163883173235014, 0};
Point(p18 + 18) = {18.19745095096445, -1.012041080799436, 0};
Point(p18 + 19) = {18.14801352005298, -1.217962800408865, 0};
Point(p18 + 20) = {18.131398, -1.429083, 0};
Point(p18 + 21) = {18.14801352005298, -1.640203199591135, 0};
Point(p18 + 22) = {18.19745095096445, -1.846124919200565, 0};
Point(p18 + 23) = {18.27849297911196, -2.041777682676498, 0};
Point(p18 + 24) = {18.38914408079944, -2.222343869647867, 0};
Point(p18 + 25) = {18.52667965867338, -2.383377341326616, 0};
Point(p18 + 26) = {18.68771313035213, -2.520912919200564, 0};
Point(p18 + 27) = {18.8682793173235, -2.631564020888041, 0};
Point(p18 + 28) = {19.06393208079944, -2.712606049035548, 0};
Point(p18 + 29) = {19.26985380040886, -2.762043479947024, 0};
Point(p18 + 30) = {19.480974, -2.778659, 0};
Point(p18 + 31) = {19.69209419959114, -2.762043479947024, 0};
Point(p18 + 32) = {19.89801591920056, -2.712606049035549, 0};
Point(p18 + 33) = {20.0936686826765, -2.631564020888041, 0};
Point(p18 + 34) = {20.27423486964787, -2.520912919200565, 0};
Point(p18 + 35) = {20.43526834132662, -2.383377341326617, 0};
Point(p18 + 36) = {20.57280391920056, -2.222343869647867, 0};
Point(p18 + 37) = {20.68345502088804, -2.041777682676499, 0};
Point(p18 + 38) = {20.76449704903555, -1.846124919200564, 0};
Point(p18 + 39) = {20.81393447994702, -1.640203199591135, 0};
Spline(18) = {12, p18 + 1, p18 + 2, p18 + 3, p18 + 4, p18 + 5, p18 + 6, p18 + 7, p18 + 8, p18 + 9, p18 + 10, p18 + 11, p18 + 12, p18 + 13, p18 + 14, p18 + 15, p18 + 16, p18 + 17, p18 + 18, p18 + 19, p18 + 20, p18 + 21, p18 + 22, p18 + 23, p18 + 24, p18 + 25, p18 + 26, p18 + 27, p18 + 28, p18 + 29, p18 + 30, p18 + 31, p18 + 32, p18 + 33, p18 + 34, p18 + 35, p18 + 36, p18 + 37, p18 + 38, p18 + 39, 12};
Line(19) = {14, 13};
Line(20) = {13, 15};
Line(21) = {16, 15};
Line(22) = {14, 16};
Line(23) = {14, 17};
Line(24) = {17, 18};
Line(25) = {13, 18};
Line(26) = {15, 19};
Line(27) = {18, 19};
Line(28) = {16, 20};
Line(29) = {20, 19};
Line(30) = {17, 20};
Curve Loop(7) = {-13, -14, 15, 14};
Surface(7) = {7};
Curve Loop(8) = {13};
Plane Surface(8) = {8};
Curve Loop(9) = {15};
Plane Surface(9) = {9};
Curve Loop(10) = {-16, -17, 18, 17};
Surface(10) = {10};
Curve Loop(11) = {16};
Plane Surface(11) = {11};
Curve Loop(12) = {18};
Plane Surface(12) = {12};
Curve Loop(13) = {-19, 22, 21, -20};
Plane Surface(13) = {13};
Curve Loop(14) = {-23, 19, 25, -24};
Plane Surface(14) = {14};
Curve Loop(15) = {-20, 25, 27, -26};
Plane Surface(15) = {15};
Curve Loop(16) = {-28, 21, 26, -29};
Plane Surface(16) = {16};
Curve Loop(17) = {-22, 23, 30, -28, -18, -15};
Plane Surface(17) = {17};
Curve Loop(18) = {-24, 30, 29, -27};
Plane Surface(18) = {18};
Surface Loop(1) = {13, 14, 15, 16, 17, 18, 10, 7, 11, 8};
Volume(1) = {1};
Surface Loop(2) = {7, 8, 9};
Volume(2) = {2};
Surface Loop(3) = {10, 11, 12};
Volume(3) = {3};
Physical Surface("WALLS") = {13, 18};
Physical Surface("LOAD") = {8, 11};
Physical Surface("BORDER") = {7, 9, 10, 12, 14, 15, 16, 17};
Physical Volume("SOLID") = {1, 2, 3};
