cl__1 = 0.140634;
cl__2 = 0.108274;
cl__3 = 4.670069;
cl__4 = 4.474471;
cl__5 = 0.278371;
cl__6 = 0.402288;
Point(9) = {28.028012, 1.285449, 0.1, cl__1};
Point(10) = {28.028012, 1.285449, 0, cl__1};
Point(11) = {33.205279, -1.368159, 0.1, cl__2};
Point(12) = {33.205279, -1.368159, 0, cl__2};
Point(13) = {0.065912, -4.010678, 1, cl__3};
Point(14) = {0.065912, -4.010678, 0, cl__3};
Point(15) = {0.065912, 4.199688999999999, 1, cl__4};
Point(16) = {0.065912, 4.199688999999999, 0, cl__4};
Point(17) = {36.783794, -4.010678, 0, cl__5};
Point(18) = {36.783794, -4.010678, 1, cl__5};
Point(19) = {36.783794, 4.199688999999999, 1, cl__6};
Point(20) = {36.783794, 4.199688999999999, 0, cl__6};
p13 = newp;
Point(p13 + 1) = {28.01069758397759, 1.505449514868074, 0.1};
Point(p13 + 2) = {27.95918067429607, 1.720032886920247, 0.1};
Point(p13 + 3) = {27.87472978824664, 1.923915361375213, 0.1};
Point(p13 + 4) = {27.75942438692025, 2.112076675064753, 0.1};
Point(p13 + 5) = {27.61610367197423, 2.279883671974233, 0.1};
Point(p13 + 6) = {27.44829667506475, 2.423204386920247, 0.1};
Point(p13 + 7) = {27.26013536137521, 2.538509788246642, 0.1};
Point(p13 + 8) = {27.05625288692025, 2.622960674296075, 0.1};
Point(p13 + 9) = {26.84166951486807, 2.674477583977588, 0.1};
Point(p13 + 10) = {26.621669, 2.691792, 0.1};
Point(p13 + 11) = {26.40166848513193, 2.674477583977588, 0.1};
Point(p13 + 12) = {26.18708511307975, 2.622960674296075, 0.1};
Point(p13 + 13) = {25.98320263862479, 2.538509788246642, 0.1};
Point(p13 + 14) = {25.79504132493525, 2.423204386920247, 0.1};
Point(p13 + 15) = {25.62723432802577, 2.279883671974233, 0.1};
Point(p13 + 16) = {25.48391361307975, 2.112076675064753, 0.1};
Point(p13 + 17) = {25.36860821175336, 1.923915361375214, 0.1};
Point(p13 + 18) = {25.28415732570393, 1.720032886920247, 0.1};
Point(p13 + 19) = {25.23264041602241, 1.505449514868074, 0.1};
Point(p13 + 20) = {25.215326, 1.285449, 0.1};
Point(p13 + 21) = {25.23264041602241, 1.065448485131927, 0.1};
Point(p13 + 22) = {25.28415732570393, 0.850865113079753, 0.1};
Point(p13 + 23) = {25.36860821175336, 0.6469826386247873, 0.1};
Point(p13 + 24) = {25.48391361307975, 0.4588213249352467, 0.1};
Point(p13 + 25) = {25.62723432802577, 0.2910143280257674, 0.1};
Point(p13 + 26) = {25.79504132493525, 0.1476936130797535, 0.1};
Point(p13 + 27) = {25.98320263862479, 0.03238821175335849, 0.1};
Point(p13 + 28) = {26.18708511307975, -0.05206267429607503, 0.1};
Point(p13 + 29) = {26.40166848513193, -0.1035795839775875, 0.1};
Point(p13 + 30) = {26.621669, -0.1208939999999998, 0.1};
Point(p13 + 31) = {26.84166951486807, -0.1035795839775877, 0.1};
Point(p13 + 32) = {27.05625288692025, -0.05206267429607503, 0.1};
Point(p13 + 33) = {27.26013536137521, 0.03238821175335804, 0.1};
Point(p13 + 34) = {27.44829667506475, 0.1476936130797533, 0.1};
Point(p13 + 35) = {27.61610367197423, 0.2910143280257671, 0.1};
Point(p13 + 36) = {27.75942438692025, 0.4588213249352464, 0.1};
Point(p13 + 37) = {27.87472978824664, 0.6469826386247864, 0.1};
Point(p13 + 38) = {27.95918067429607, 0.8508651130797531, 0.1};
Point(p13 + 39) = {28.01069758397759, 1.065448485131926, 0.1};
Spline(13) = {9, p13 + 1, p13 + 2, p13 + 3, p13 + 4, p13 + 5, p13 + 6, p13 + 7, p13 + 8, p13 + 9, p13 + 10, p13 + 11, p13 + 12, p13 + 13, p13 + 14, p13 + 15, p13 + 16, p13 + 17, p13 + 18, p13 + 19, p13 + 20, p13 + 21, p13 + 22, p13 + 23, p13 + 24, p13 + 25, p13 + 26, p13 + 27, p13 + 28, p13 + 29, p13 + 30, p13 + 31, p13 + 32, p13 + 33, p13 + 34, p13 + 35, p13 + 36, p13 + 37, p13 + 38, p13 + 39, 9};
Line(14) = {10, 9};
p15 = newp;
Point(p15 + 1) = {28.01069758397759, 1.505449514868074, 0};
Point(p15 + 2) = {27.95918067429607, 1.720032886920247, 0};
Point(p15 + 3) = {27.87472978824664, 1.923915361375213, 0};
Point(p15 + 4) = {27.75942438692025, 2.112076675064753, 0};
Point(p15 + 5) = {27.61610367197423, 2.279883671974233, 0};
Point(p15 + 6) = {27.44829667506475, 2.423204386920247, 0};
Point(p15 + 7) = {27.26013536137521, 2.538509788246642, 0};
Point(p15 + 8) = {27.05625288692025, 2.622960674296075, 0};
Point(p15 + 9) = {26.84166951486807, 2.674477583977588, 0};
Point(p15 + 10) = {26.621669, 2.691792, 0};
Point(p15 + 11) = {26.40166848513193, 2.674477583977588, 0};
Point(p15 + 12) = {26.18708511307975, 2.622960674296075, 0};
Point(p15 + 13) = {25.98320263862479, 2.538509788246642, 0};
Point(p15 + 14) = {25.79504132493525, 2.423204386920247, 0};
Point(p15 + 15) = {25.62723432802577, 2.279883671974233, 0};
Point(p15 + 16) = {25.48391361307975, 2.112076675064753, 0};
Point(p15 + 17) = {25.36860821175336, 1.923915361375214, 0};
Point(p15 + 18) = {25.28415732570393, 1.720032886920247, 0};
Point(p15 + 19) = {25.23264041602241, 1.505449514868074, 0};
Point(p15 + 20) = {25.215326, 1.285449, 0};
Point(p15 + 21) = {25.23264041602241, 1.065448485131927, 0};
Point(p15 + 22) = {25.28415732570393, 0.850865113079753, 0};
Point(p15 + 23) = {25.36860821175336, 0.6469826386247873, 0};
Point(p15 + 24) = {25.48391361307975, 0.4588213249352467, 0};
Point(p15 + 25) = {25.62723432802577, 0.2910143280257674, 0};
Point(p15 + 26) = {25.79504132493525, 0.1476936130797535, 0};
Point(p15 + 27) = {25.98320263862479, 0.03238821175335849, 0};
Point(p15 + 28) = {26.18708511307975, -0.05206267429607503, 0};
Point(p15 + 29) = {26.40166848513193, -0.1035795839775875, 0};
Point(p15 + 30) = {26.621669, -0.1208939999999998, 0};
Point(p15 + 31) = {26.84166951486807, -0.1035795839775877, 0};
Point(p15 + 32) = {27.05625288692025, -0.05206267429607503, 0};
Point(p15 + 33) = {27.26013536137521, 0.03238821175335804, 0};
Point(p15 + 34) = {27.44829667506475, 0.1476936130797533, 0};
Point(p15 + 35) = {27.61610367197423, 0.2910143280257671, 0};
Point(p15 + 36) = {27.75942438692025, 0.4588213249352464, 0};
Point(p15 + 37) = {27.87472978824664, 0.6469826386247864, 0};
Point(p15 + 38) = {27.95918067429607, 0.8508651130797531, 0};
Point(p15 + 39) = {28.01069758397759, 1.065448485131926, 0};
Spline(15) = {10, p15 + 1, p15 + 2, p15 + 3, p15 + 4, p15 + 5, p15 + 6, p15 + 7, p15 + 8, p15 + 9, p15 + 10, p15 + 11, p15 + 12, p15 + 13, p15 + 14, p15 + 15, p15 + 16, p15 + 17, p15 + 18, p15 + 19, p15 + 20, p15 + 21, p15 + 22, p15 + 23, p15 + 24, p15 + 25, p15 + 26, p15 + 27, p15 + 28, p15 + 29, p15 + 30, p15 + 31, p15 + 32, p15 + 33, p15 + 34, p15 + 35, p15 + 36, p15 + 37, p15 + 38, p15 + 39, 10};
p16 = newp;
Point(p16 + 1) = {33.19194867389599, -1.19878114732234, 0.1};
Point(p16 + 2) = {33.15228593245342, -1.033573939510469, 0.1};
Point(p16 + 3) = {33.08726740399972, -0.8766053263120031, 0.1};
Point(p16 + 4) = {32.99849406048953, -0.7317403959328476, 0.1};
Point(p16 + 5) = {32.88815179626192, -0.6025462037380774, 0.1};
Point(p16 + 6) = {32.75895760406716, -0.4922039395104694, 0.1};
Point(p16 + 7) = {32.614092673688, -0.4034305960002865, 0.1};
Point(p16 + 8) = {32.45712406048953, -0.3384120675465854, 0.1};
Point(p16 + 9) = {32.29191685267767, -0.2987493261040204, 0.1};
Point(p16 + 10) = {32.122539, -0.2854189999999999, 0.1};
Point(p16 + 11) = {31.95316114732234, -0.2987493261040206, 0.1};
Point(p16 + 12) = {31.78795393951047, -0.3384120675465851, 0.1};
Point(p16 + 13) = {31.63098532631201, -0.4034305960002864, 0.1};
Point(p16 + 14) = {31.48612039593285, -0.4922039395104693, 0.1};
Point(p16 + 15) = {31.35692620373808, -0.6025462037380773, 0.1};
Point(p16 + 16) = {31.24658393951047, -0.7317403959328473, 0.1};
Point(p16 + 17) = {31.15781059600029, -0.8766053263120029, 0.1};
Point(p16 + 18) = {31.09279206754659, -1.033573939510469, 0.1};
Point(p16 + 19) = {31.05312932610402, -1.19878114732234, 0.1};
Point(p16 + 20) = {31.039799, -1.368159, 0.1};
Point(p16 + 21) = {31.05312932610402, -1.537536852677659, 0.1};
Point(p16 + 22) = {31.09279206754659, -1.702744060489531, 0.1};
Point(p16 + 23) = {31.15781059600029, -1.859712673687996, 0.1};
Point(p16 + 24) = {31.24658393951047, -2.004577604067152, 0.1};
Point(p16 + 25) = {31.35692620373808, -2.133771796261922, 0.1};
Point(p16 + 26) = {31.48612039593285, -2.24411406048953, 0.1};
Point(p16 + 27) = {31.63098532631201, -2.332887403999713, 0.1};
Point(p16 + 28) = {31.78795393951047, -2.397905932453415, 0.1};
Point(p16 + 29) = {31.95316114732234, -2.437568673895979, 0.1};
Point(p16 + 30) = {32.122539, -2.450899, 0.1};
Point(p16 + 31) = {32.29191685267767, -2.43756867389598, 0.1};
Point(p16 + 32) = {32.45712406048953, -2.397905932453415, 0.1};
Point(p16 + 33) = {32.614092673688, -2.332887403999714, 0.1};
Point(p16 + 34) = {32.75895760406716, -2.24411406048953, 0.1};
Point(p16 + 35) = {32.88815179626192, -2.133771796261922, 0.1};
Point(p16 + 36) = {32.99849406048953, -2.004577604067153, 0.1};
Point(p16 + 37) = {33.08726740399972, -1.859712673687997, 0.1};
Point(p16 + 38) = {33.15228593245342, -1.702744060489531, 0.1};
Point(p16 + 39) = {33.19194867389598, -1.53753685267766, 0.1};
Spline(16) = {11, p16 + 1, p16 + 2, p16 + 3, p16 + 4, p16 + 5, p16 + 6, p16 + 7, p16 + 8, p16 + 9, p16 + 10, p16 + 11, p16 + 12, p16 + 13, p16 + 14, p16 + 15, p16 + 16, p16 + 17, p16 + 18, p16 + 19, p16 + 20, p16 + 21, p16 + 22, p16 + 23, p16 + 24, p16 + 25, p16 + 26, p16 + 27, p16 + 28, p16 + 29, p16 + 30, p16 + 31, p16 + 32, p16 + 33, p16 + 34, p16 + 35, p16 + 36, p16 + 37, p16 + 38, p16 + 39, 11};
Line(17) = {12, 11};
p18 = newp;
Point(p18 + 1) = {33.19194867389599, -1.19878114732234, 0};
Point(p18 + 2) = {33.15228593245342, -1.033573939510469, 0};
Point(p18 + 3) = {33.08726740399972, -0.8766053263120031, 0};
Point(p18 + 4) = {32.99849406048953, -0.7317403959328476, 0};
Point(p18 + 5) = {32.88815179626192, -0.6025462037380774, 0};
Point(p18 + 6) = {32.75895760406716, -0.4922039395104694, 0};
Point(p18 + 7) = {32.614092673688, -0.4034305960002865, 0};
Point(p18 + 8) = {32.45712406048953, -0.3384120675465854, 0};
Point(p18 + 9) = {32.29191685267767, -0.2987493261040204, 0};
Point(p18 + 10) = {32.122539, -0.2854189999999999, 0};
Point(p18 + 11) = {31.95316114732234, -0.2987493261040206, 0};
Point(p18 + 12) = {31.78795393951047, -0.3384120675465851, 0};
Point(p18 + 13) = {31.63098532631201, -0.4034305960002864, 0};
Point(p18 + 14) = {31.48612039593285, -0.4922039395104693, 0};
Point(p18 + 15) = {31.35692620373808, -0.6025462037380773, 0};
Point(p18 + 16) = {31.24658393951047, -0.7317403959328473, 0};
Point(p18 + 17) = {31.15781059600029, -0.8766053263120029, 0};
Point(p18 + 18) = {31.09279206754659, -1.033573939510469, 0};
Point(p18 + 19) = {31.05312932610402, -1.19878114732234, 0};
Point(p18 + 20) = {31.039799, -1.368159, 0};
Point(p18 + 21) = {31.05312932610402, -1.537536852677659, 0};
Point(p18 + 22) = {31.09279206754659, -1.702744060489531, 0};
Point(p18 + 23) = {31.15781059600029, -1.859712673687996, 0};
Point(p18 + 24) = {31.24658393951047, -2.004577604067152, 0};
Point(p18 + 25) = {31.35692620373808, -2.133771796261922, 0};
Point(p18 + 26) = {31.48612039593285, -2.24411406048953, 0};
Point(p18 + 27) = {31.63098532631201, -2.332887403999713, 0};
Point(p18 + 28) = {31.78795393951047, -2.397905932453415, 0};
Point(p18 + 29) = {31.95316114732234, -2.437568673895979, 0};
Point(p18 + 30) = {32.122539, -2.450899, 0};
Point(p18 + 31) = {32.29191685267767, -2.43756867389598, 0};
Point(p18 + 32) = {32.45712406048953, -2.397905932453415, 0};
Point(p18 + 33) = {32.614092673688, -2.332887403999714, 0};
Point(p18 + 34) = {32.75895760406716, -2.24411406048953, 0};
Point(p18 + 35) = {32.88815179626192, -2.133771796261922, 0};
Point(p18 + 36) = {32.99849406048953, -2.004577604067153, 0};
Point(p18 + 37) = {33.08726740399972, -1.859712673687997, 0};
Point(p18 + 38) = {33.15228593245342, -1.702744060489531, 0};
Point(p18 + 39) = {33.19194867389598, -1.53753685267766, 0};
Spline(18) = {12, p18 + 1, p18 + 2, p18 + 3, p18 + 4, p18 + 5, p18 + 6, p18 + 7, p18 + 8, p18 + 9, p18 + 10, p18 + 11, p18 + 12, p18 + 13, p18 + 14, p18 + 15, p18 + 16, p18 + 17, p18 + 18, p18 + 19, p18 + 20, p18 + 21, p18 + 22, p18 + 23, p18 + 24, p18 + 25, p18 + 26, p18 + 27, p18 + 28, p18 + 29, p18 + 30, p18 + 31, p18 + 32, p18 + 33, p18 + 34, p18 + 35, p18 + 36, p18 + 37, p18 + 38, p18 + 39, 12};
Line(19) = {14, 13};
Line(20) = {13, 15};
Line(21) = {16, 15};
Line(22) = {14, 16};
Line(23) = {14, 17};
Line(24) = {17, 18};
Line(25) = {13, 18};
Line(26) = {15, 19};
Line(27) = {18, 19};
Line(28) = {16, 20};
Line(29) = {20, 19};
Line(30) = {17, 20};
Curve Loop(7) = {-13, -14, 15, 14};
Surface(7) = {7};
Curve Loop(8) = {13};
Plane Surface(8) = {8};
Curve Loop(9) = {15};
Plane Surface(9) = {9};
Curve Loop(10) = {-16, -17, 18, 17};
Surface(10) = {10};
Curve Loop(11) = {16};
Plane Surface(11) = {11};
Curve Loop(12) = {18};
Plane Surface(12) = {12};
Curve Loop(13) = {-19, 22, 21, -20};
Plane Surface(13) = {13};
Curve Loop(14) = {-23, 19, 25, -24};
Plane Surface(14) = {14};
Curve Loop(15) = {-20, 25, 27, -26};
Plane Surface(15) = {15};
Curve Loop(16) = {-28, 21, 26, -29};
Plane Surface(16) = {16};
Curve Loop(17) = {-22, 23, 30, -28, -18, -15};
Plane Surface(17) = {17};
Curve Loop(18) = {-24, 30, 29, -27};
Plane Surface(18) = {18};
Surface Loop(1) = {13, 14, 15, 16, 17, 18, 10, 7, 11, 8};
Volume(1) = {1};
Surface Loop(2) = {7, 8, 9};
Volume(2) = {2};
Surface Loop(3) = {10, 11, 12};
Volume(3) = {3};
Physical Surface("WALLS") = {13, 18};
Physical Surface("LOAD") = {8, 11};
Physical Surface("BORDER") = {7, 9, 10, 12, 14, 15, 16, 17};
Physical Volume("SOLID") = {1, 2, 3};
