cl__1 = 0.06431199999999999;
cl__2 = 0.075533;
cl__3 = 0.697783;
cl__4 = 0.548531;
cl__5 = 2.430118;
cl__6 = 2.79871;
Point(9) = {9.776634999999999, 3.271653, 0.1, cl__1};
Point(10) = {9.776634999999999, 3.271653, 0, cl__1};
Point(11) = {18.244527, -1.94972, 0.1, cl__2};
Point(12) = {18.244527, -1.94972, 0, cl__2};
Point(13) = {0.531166, -3.396551, 1, cl__3};
Point(14) = {0.531166, -3.396551, 0, cl__3};
Point(15) = {0.531166, 4.528408000000001, 1, cl__4};
Point(16) = {0.531166, 4.528408000000001, 0, cl__4};
Point(17) = {37.925194, -3.396551, 0, cl__5};
Point(18) = {37.925194, -3.396551, 1, cl__5};
Point(19) = {37.925194, 4.528408000000001, 1, cl__6};
Point(20) = {37.925194, 4.528408000000001, 0, cl__6};
p13 = newp;
Point(p13 + 1) = {9.768717150226863, 3.372258820287743, 0.1};
Point(p13 + 2) = {9.745158564646706, 3.470387391388428, 0.1};
Point(p13 + 3) = {9.706539333822974, 3.563622462211498, 0.1};
Point(p13 + 4) = {9.653810391388427, 3.649668275883831, 0.1};
Point(p13 + 5) = {9.588270098903129, 3.72640609890313, 0.1};
Point(p13 + 6) = {9.51153227588383, 3.791946391388428, 0.1};
Point(p13 + 7) = {9.425486462211497, 3.844675333822975, 0.1};
Point(p13 + 8) = {9.332251391388427, 3.883294564646707, 0.1};
Point(p13 + 9) = {9.234122820287743, 3.906853150226864, 0.1};
Point(p13 + 10) = {9.133516999999999, 3.914771, 0.1};
Point(p13 + 11) = {9.032911179712256, 3.906853150226864, 0.1};
Point(p13 + 12) = {8.934782608611572, 3.883294564646707, 0.1};
Point(p13 + 13) = {8.841547537788502, 3.844675333822975, 0.1};
Point(p13 + 14) = {8.755501724116169, 3.791946391388428, 0.1};
Point(p13 + 15) = {8.67876390109687, 3.72640609890313, 0.1};
Point(p13 + 16) = {8.613223608611571, 3.649668275883831, 0.1};
Point(p13 + 17) = {8.560494666177025, 3.563622462211498, 0.1};
Point(p13 + 18) = {8.521875435353293, 3.470387391388428, 0.1};
Point(p13 + 19) = {8.498316849773136, 3.372258820287743, 0.1};
Point(p13 + 20) = {8.490399, 3.271653, 0.1};
Point(p13 + 21) = {8.498316849773136, 3.171047179712257, 0.1};
Point(p13 + 22) = {8.521875435353293, 3.072918608611572, 0.1};
Point(p13 + 23) = {8.560494666177025, 2.979683537788503, 0.1};
Point(p13 + 24) = {8.613223608611571, 2.89363772411617, 0.1};
Point(p13 + 25) = {8.67876390109687, 2.81689990109687, 0.1};
Point(p13 + 26) = {8.755501724116169, 2.751359608611573, 0.1};
Point(p13 + 27) = {8.841547537788502, 2.698630666177025, 0.1};
Point(p13 + 28) = {8.934782608611572, 2.660011435353294, 0.1};
Point(p13 + 29) = {9.032911179712256, 2.636452849773137, 0.1};
Point(p13 + 30) = {9.133516999999999, 2.628535, 0.1};
Point(p13 + 31) = {9.234122820287743, 2.636452849773137, 0.1};
Point(p13 + 32) = {9.332251391388427, 2.660011435353294, 0.1};
Point(p13 + 33) = {9.425486462211497, 2.698630666177025, 0.1};
Point(p13 + 34) = {9.51153227588383, 2.751359608611573, 0.1};
Point(p13 + 35) = {9.588270098903129, 2.81689990109687, 0.1};
Point(p13 + 36) = {9.653810391388427, 2.893637724116169, 0.1};
Point(p13 + 37) = {9.706539333822974, 2.979683537788502, 0.1};
Point(p13 + 38) = {9.745158564646706, 3.072918608611573, 0.1};
Point(p13 + 39) = {9.768717150226863, 3.171047179712257, 0.1};
Spline(13) = {9, p13 + 1, p13 + 2, p13 + 3, p13 + 4, p13 + 5, p13 + 6, p13 + 7, p13 + 8, p13 + 9, p13 + 10, p13 + 11, p13 + 12, p13 + 13, p13 + 14, p13 + 15, p13 + 16, p13 + 17, p13 + 18, p13 + 19, p13 + 20, p13 + 21, p13 + 22, p13 + 23, p13 + 24, p13 + 25, p13 + 26, p13 + 27, p13 + 28, p13 + 29, p13 + 30, p13 + 31, p13 + 32, p13 + 33, p13 + 34, p13 + 35, p13 + 36, p13 + 37, p13 + 38, p13 + 39, 9};
Line(14) = {10, 9};
p15 = newp;
Point(p15 + 1) = {9.768717150226863, 3.372258820287743, 0};
Point(p15 + 2) = {9.745158564646706, 3.470387391388428, 0};
Point(p15 + 3) = {9.706539333822974, 3.563622462211498, 0};
Point(p15 + 4) = {9.653810391388427, 3.649668275883831, 0};
Point(p15 + 5) = {9.588270098903129, 3.72640609890313, 0};
Point(p15 + 6) = {9.51153227588383, 3.791946391388428, 0};
Point(p15 + 7) = {9.425486462211497, 3.844675333822975, 0};
Point(p15 + 8) = {9.332251391388427, 3.883294564646707, 0};
Point(p15 + 9) = {9.234122820287743, 3.906853150226864, 0};
Point(p15 + 10) = {9.133516999999999, 3.914771, 0};
Point(p15 + 11) = {9.032911179712256, 3.906853150226864, 0};
Point(p15 + 12) = {8.934782608611572, 3.883294564646707, 0};
Point(p15 + 13) = {8.841547537788502, 3.844675333822975, 0};
Point(p15 + 14) = {8.755501724116169, 3.791946391388428, 0};
Point(p15 + 15) = {8.67876390109687, 3.72640609890313, 0};
Point(p15 + 16) = {8.613223608611571, 3.649668275883831, 0};
Point(p15 + 17) = {8.560494666177025, 3.563622462211498, 0};
Point(p15 + 18) = {8.521875435353293, 3.470387391388428, 0};
Point(p15 + 19) = {8.498316849773136, 3.372258820287743, 0};
Point(p15 + 20) = {8.490399, 3.271653, 0};
Point(p15 + 21) = {8.498316849773136, 3.171047179712257, 0};
Point(p15 + 22) = {8.521875435353293, 3.072918608611572, 0};
Point(p15 + 23) = {8.560494666177025, 2.979683537788503, 0};
Point(p15 + 24) = {8.613223608611571, 2.89363772411617, 0};
Point(p15 + 25) = {8.67876390109687, 2.81689990109687, 0};
Point(p15 + 26) = {8.755501724116169, 2.751359608611573, 0};
Point(p15 + 27) = {8.841547537788502, 2.698630666177025, 0};
Point(p15 + 28) = {8.934782608611572, 2.660011435353294, 0};
Point(p15 + 29) = {9.032911179712256, 2.636452849773137, 0};
Point(p15 + 30) = {9.133516999999999, 2.628535, 0};
Point(p15 + 31) = {9.234122820287743, 2.636452849773137, 0};
Point(p15 + 32) = {9.332251391388427, 2.660011435353294, 0};
Point(p15 + 33) = {9.425486462211497, 2.698630666177025, 0};
Point(p15 + 34) = {9.51153227588383, 2.751359608611573, 0};
Point(p15 + 35) = {9.588270098903129, 2.81689990109687, 0};
Point(p15 + 36) = {9.653810391388427, 2.893637724116169, 0};
Point(p15 + 37) = {9.706539333822974, 2.979683537788502, 0};
Point(p15 + 38) = {9.745158564646706, 3.072918608611573, 0};
Point(p15 + 39) = {9.768717150226863, 3.171047179712257, 0};
Spline(15) = {10, p15 + 1, p15 + 2, p15 + 3, p15 + 4, p15 + 5, p15 + 6, p15 + 7, p15 + 8, p15 + 9, p15 + 10, p15 + 11, p15 + 12, p15 + 13, p15 + 14, p15 + 15, p15 + 16, p15 + 17, p15 + 18, p15 + 19, p15 + 20, p15 + 21, p15 + 22, p15 + 23, p15 + 24, p15 + 25, p15 + 26, p15 + 27, p15 + 28, p15 + 29, p15 + 30, p15 + 31, p15 + 32, p15 + 33, p15 + 34, p15 + 35, p15 + 36, p15 + 37, p15 + 38, p15 + 39, 10};
p16 = newp;
Point(p16 + 1) = {18.2352276712367, -1.831560824824557, 0.1};
Point(p16 + 2) = {18.20755866528367, -1.716311120689754, 0.1};
Point(p16 + 3) = {18.16220128489563, -1.606808717803227, 0.1};
Point(p16 + 4) = {18.10027237931025, -1.505749928741683, 0.1};
Point(p16 + 5) = {18.02329684371329, -1.415623156286709, 0.1};
Point(p16 + 6) = {17.93317007125832, -1.338647620689754, 0.1};
Point(p16 + 7) = {17.83211128219677, -1.276718715104373, 0.1};
Point(p16 + 8) = {17.72260887931025, -1.23136133471633, 0.1};
Point(p16 + 9) = {17.60735917517544, -1.203692328763296, 0.1};
Point(p16 + 10) = {17.4892, -1.194393, 0.1};
Point(p16 + 11) = {17.37104082482456, -1.203692328763296, 0.1};
Point(p16 + 12) = {17.25579112068975, -1.23136133471633, 0.1};
Point(p16 + 13) = {17.14628871780323, -1.276718715104372, 0.1};
Point(p16 + 14) = {17.04522992874168, -1.338647620689754, 0.1};
Point(p16 + 15) = {16.95510315628671, -1.415623156286709, 0.1};
Point(p16 + 16) = {16.87812762068975, -1.505749928741683, 0.1};
Point(p16 + 17) = {16.81619871510437, -1.606808717803227, 0.1};
Point(p16 + 18) = {16.77084133471633, -1.716311120689754, 0.1};
Point(p16 + 19) = {16.7431723287633, -1.831560824824557, 0.1};
Point(p16 + 20) = {16.733873, -1.94972, 0.1};
Point(p16 + 21) = {16.7431723287633, -2.067879175175442, 0.1};
Point(p16 + 22) = {16.77084133471633, -2.183128879310246, 0.1};
Point(p16 + 23) = {16.81619871510437, -2.292631282196772, 0.1};
Point(p16 + 24) = {16.87812762068975, -2.393690071258317, 0.1};
Point(p16 + 25) = {16.95510315628671, -2.483816843713291, 0.1};
Point(p16 + 26) = {17.04522992874168, -2.560792379310246, 0.1};
Point(p16 + 27) = {17.14628871780323, -2.622721284895627, 0.1};
Point(p16 + 28) = {17.25579112068975, -2.668078665283669, 0.1};
Point(p16 + 29) = {17.37104082482456, -2.695747671236703, 0.1};
Point(p16 + 30) = {17.4892, -2.705047, 0.1};
Point(p16 + 31) = {17.60735917517544, -2.695747671236703, 0.1};
Point(p16 + 32) = {17.72260887931025, -2.668078665283669, 0.1};
Point(p16 + 33) = {17.83211128219677, -2.622721284895627, 0.1};
Point(p16 + 34) = {17.93317007125832, -2.560792379310246, 0.1};
Point(p16 + 35) = {18.02329684371329, -2.483816843713291, 0.1};
Point(p16 + 36) = {18.10027237931025, -2.393690071258317, 0.1};
Point(p16 + 37) = {18.16220128489563, -2.292631282196773, 0.1};
Point(p16 + 38) = {18.20755866528367, -2.183128879310246, 0.1};
Point(p16 + 39) = {18.2352276712367, -2.067879175175443, 0.1};
Spline(16) = {11, p16 + 1, p16 + 2, p16 + 3, p16 + 4, p16 + 5, p16 + 6, p16 + 7, p16 + 8, p16 + 9, p16 + 10, p16 + 11, p16 + 12, p16 + 13, p16 + 14, p16 + 15, p16 + 16, p16 + 17, p16 + 18, p16 + 19, p16 + 20, p16 + 21, p16 + 22, p16 + 23, p16 + 24, p16 + 25, p16 + 26, p16 + 27, p16 + 28, p16 + 29, p16 + 30, p16 + 31, p16 + 32, p16 + 33, p16 + 34, p16 + 35, p16 + 36, p16 + 37, p16 + 38, p16 + 39, 11};
Line(17) = {12, 11};
p18 = newp;
Point(p18 + 1) = {18.2352276712367, -1.831560824824557, 0};
Point(p18 + 2) = {18.20755866528367, -1.716311120689754, 0};
Point(p18 + 3) = {18.16220128489563, -1.606808717803227, 0};
Point(p18 + 4) = {18.10027237931025, -1.505749928741683, 0};
Point(p18 + 5) = {18.02329684371329, -1.415623156286709, 0};
Point(p18 + 6) = {17.93317007125832, -1.338647620689754, 0};
Point(p18 + 7) = {17.83211128219677, -1.276718715104373, 0};
Point(p18 + 8) = {17.72260887931025, -1.23136133471633, 0};
Point(p18 + 9) = {17.60735917517544, -1.203692328763296, 0};
Point(p18 + 10) = {17.4892, -1.194393, 0};
Point(p18 + 11) = {17.37104082482456, -1.203692328763296, 0};
Point(p18 + 12) = {17.25579112068975, -1.23136133471633, 0};
Point(p18 + 13) = {17.14628871780323, -1.276718715104372, 0};
Point(p18 + 14) = {17.04522992874168, -1.338647620689754, 0};
Point(p18 + 15) = {16.95510315628671, -1.415623156286709, 0};
Point(p18 + 16) = {16.87812762068975, -1.505749928741683, 0};
Point(p18 + 17) = {16.81619871510437, -1.606808717803227, 0};
Point(p18 + 18) = {16.77084133471633, -1.716311120689754, 0};
Point(p18 + 19) = {16.7431723287633, -1.831560824824557, 0};
Point(p18 + 20) = {16.733873, -1.94972, 0};
Point(p18 + 21) = {16.7431723287633, -2.067879175175442, 0};
Point(p18 + 22) = {16.77084133471633, -2.183128879310246, 0};
Point(p18 + 23) = {16.81619871510437, -2.292631282196772, 0};
Point(p18 + 24) = {16.87812762068975, -2.393690071258317, 0};
Point(p18 + 25) = {16.95510315628671, -2.483816843713291, 0};
Point(p18 + 26) = {17.04522992874168, -2.560792379310246, 0};
Point(p18 + 27) = {17.14628871780323, -2.622721284895627, 0};
Point(p18 + 28) = {17.25579112068975, -2.668078665283669, 0};
Point(p18 + 29) = {17.37104082482456, -2.695747671236703, 0};
Point(p18 + 30) = {17.4892, -2.705047, 0};
Point(p18 + 31) = {17.60735917517544, -2.695747671236703, 0};
Point(p18 + 32) = {17.72260887931025, -2.668078665283669, 0};
Point(p18 + 33) = {17.83211128219677, -2.622721284895627, 0};
Point(p18 + 34) = {17.93317007125832, -2.560792379310246, 0};
Point(p18 + 35) = {18.02329684371329, -2.483816843713291, 0};
Point(p18 + 36) = {18.10027237931025, -2.393690071258317, 0};
Point(p18 + 37) = {18.16220128489563, -2.292631282196773, 0};
Point(p18 + 38) = {18.20755866528367, -2.183128879310246, 0};
Point(p18 + 39) = {18.2352276712367, -2.067879175175443, 0};
Spline(18) = {12, p18 + 1, p18 + 2, p18 + 3, p18 + 4, p18 + 5, p18 + 6, p18 + 7, p18 + 8, p18 + 9, p18 + 10, p18 + 11, p18 + 12, p18 + 13, p18 + 14, p18 + 15, p18 + 16, p18 + 17, p18 + 18, p18 + 19, p18 + 20, p18 + 21, p18 + 22, p18 + 23, p18 + 24, p18 + 25, p18 + 26, p18 + 27, p18 + 28, p18 + 29, p18 + 30, p18 + 31, p18 + 32, p18 + 33, p18 + 34, p18 + 35, p18 + 36, p18 + 37, p18 + 38, p18 + 39, 12};
Line(19) = {14, 13};
Line(20) = {13, 15};
Line(21) = {16, 15};
Line(22) = {14, 16};
Line(23) = {14, 17};
Line(24) = {17, 18};
Line(25) = {13, 18};
Line(26) = {15, 19};
Line(27) = {18, 19};
Line(28) = {16, 20};
Line(29) = {20, 19};
Line(30) = {17, 20};
Curve Loop(7) = {-13, -14, 15, 14};
Surface(7) = {7};
Curve Loop(8) = {13};
Plane Surface(8) = {8};
Curve Loop(9) = {15};
Plane Surface(9) = {9};
Curve Loop(10) = {-16, -17, 18, 17};
Surface(10) = {10};
Curve Loop(11) = {16};
Plane Surface(11) = {11};
Curve Loop(12) = {18};
Plane Surface(12) = {12};
Curve Loop(13) = {-19, 22, 21, -20};
Plane Surface(13) = {13};
Curve Loop(14) = {-23, 19, 25, -24};
Plane Surface(14) = {14};
Curve Loop(15) = {-20, 25, 27, -26};
Plane Surface(15) = {15};
Curve Loop(16) = {-28, 21, 26, -29};
Plane Surface(16) = {16};
Curve Loop(17) = {-22, 23, 30, -28, -18, -15};
Plane Surface(17) = {17};
Curve Loop(18) = {-24, 30, 29, -27};
Plane Surface(18) = {18};
Surface Loop(1) = {13, 14, 15, 16, 17, 18, 10, 7, 11, 8};
Volume(1) = {1};
Surface Loop(2) = {7, 8, 9};
Volume(2) = {2};
Surface Loop(3) = {10, 11, 12};
Volume(3) = {3};
Physical Surface("WALLS") = {13, 18};
Physical Surface("LOAD") = {8, 11};
Physical Surface("BORDER") = {7, 9, 10, 12, 14, 15, 16, 17};
Physical Volume("SOLID") = {1, 2, 3};
