cl__1 = 0.07206600000000001;
cl__2 = 0.139049;
cl__3 = 2.819314;
cl__4 = 3.108056;
cl__5 = 0.433973;
cl__6 = 0.693972;
Point(9) = {29.650341, -1.1759, 0.1, cl__1};
Point(10) = {29.650341, -1.1759, 0, cl__1};
Point(11) = {17.054141, -0.1473070000000003, 0.1, cl__2};
Point(12) = {17.054141, -0.1473070000000003, 0, cl__2};
Point(13) = {0.198751, -4.046867, 1, cl__3};
Point(14) = {0.198751, -4.046867, 0, cl__3};
Point(15) = {0.198751, 5.400571, 1, cl__4};
Point(16) = {0.198751, 5.400571, 0, cl__4};
Point(17) = {33.256849, -4.046867, 0, cl__5};
Point(18) = {33.256849, -4.046867, 1, cl__5};
Point(19) = {33.256849, 5.400571, 1, cl__6};
Point(20) = {33.256849, 5.400571, 0, cl__6};
p13 = newp;
Point(p13 + 1) = {29.64146844259831, -1.063163469120712, 0.1};
Point(p13 + 2) = {29.61506924220281, -0.9532028857827672, 0.1};
Point(p13 + 3) = {29.57179343474116, -0.8487258444861989, 0.1};
Point(p13 + 4) = {29.51270661421723, -0.7523049167271494, 0.1};
Point(p13 + 5) = {29.43926369425024, -0.666314305749759, 0.1};
Point(p13 + 6) = {29.35327308327285, -0.5928713857827672, 0.1};
Point(p13 + 7) = {29.2568521555138, -0.5337845652588382, 0.1};
Point(p13 + 8) = {29.15237511421723, -0.4905087577971856, 0.1};
Point(p13 + 9) = {29.04241453087929, -0.4641095574016861, 0.1};
Point(p13 + 10) = {28.929678, -0.4552369999999999, 0.1};
Point(p13 + 11) = {28.81694146912071, -0.4641095574016862, 0.1};
Point(p13 + 12) = {28.70698088578277, -0.4905087577971856, 0.1};
Point(p13 + 13) = {28.6025038444862, -0.5337845652588381, 0.1};
Point(p13 + 14) = {28.50608291672715, -0.5928713857827671, 0.1};
Point(p13 + 15) = {28.42009230574976, -0.666314305749759, 0.1};
Point(p13 + 16) = {28.34664938578277, -0.7523049167271493, 0.1};
Point(p13 + 17) = {28.28756256525884, -0.8487258444861989, 0.1};
Point(p13 + 18) = {28.24428675779718, -0.9532028857827671, 0.1};
Point(p13 + 19) = {28.21788755740168, -1.063163469120712, 0.1};
Point(p13 + 20) = {28.209015, -1.1759, 0.1};
Point(p13 + 21) = {28.21788755740168, -1.288636530879288, 0.1};
Point(p13 + 22) = {28.24428675779718, -1.398597114217233, 0.1};
Point(p13 + 23) = {28.28756256525884, -1.503074155513801, 0.1};
Point(p13 + 24) = {28.34664938578277, -1.599495083272851, 0.1};
Point(p13 + 25) = {28.42009230574976, -1.685485694250241, 0.1};
Point(p13 + 26) = {28.50608291672715, -1.758928614217233, 0.1};
Point(p13 + 27) = {28.6025038444862, -1.818015434741162, 0.1};
Point(p13 + 28) = {28.70698088578277, -1.861291242202814, 0.1};
Point(p13 + 29) = {28.81694146912071, -1.887690442598314, 0.1};
Point(p13 + 30) = {28.929678, -1.896563, 0.1};
Point(p13 + 31) = {29.04241453087929, -1.887690442598314, 0.1};
Point(p13 + 32) = {29.15237511421723, -1.861291242202814, 0.1};
Point(p13 + 33) = {29.2568521555138, -1.818015434741162, 0.1};
Point(p13 + 34) = {29.35327308327285, -1.758928614217233, 0.1};
Point(p13 + 35) = {29.43926369425024, -1.685485694250241, 0.1};
Point(p13 + 36) = {29.51270661421723, -1.599495083272851, 0.1};
Point(p13 + 37) = {29.57179343474116, -1.503074155513801, 0.1};
Point(p13 + 38) = {29.61506924220281, -1.398597114217233, 0.1};
Point(p13 + 39) = {29.64146844259831, -1.288636530879288, 0.1};
Spline(13) = {9, p13 + 1, p13 + 2, p13 + 3, p13 + 4, p13 + 5, p13 + 6, p13 + 7, p13 + 8, p13 + 9, p13 + 10, p13 + 11, p13 + 12, p13 + 13, p13 + 14, p13 + 15, p13 + 16, p13 + 17, p13 + 18, p13 + 19, p13 + 20, p13 + 21, p13 + 22, p13 + 23, p13 + 24, p13 + 25, p13 + 26, p13 + 27, p13 + 28, p13 + 29, p13 + 30, p13 + 31, p13 + 32, p13 + 33, p13 + 34, p13 + 35, p13 + 36, p13 + 37, p13 + 38, p13 + 39, 9};
Line(14) = {10, 9};
p15 = newp;
Point(p15 + 1) = {29.64146844259831, -1.063163469120712, 0};
Point(p15 + 2) = {29.61506924220281, -0.9532028857827672, 0};
Point(p15 + 3) = {29.57179343474116, -0.8487258444861989, 0};
Point(p15 + 4) = {29.51270661421723, -0.7523049167271494, 0};
Point(p15 + 5) = {29.43926369425024, -0.666314305749759, 0};
Point(p15 + 6) = {29.35327308327285, -0.5928713857827672, 0};
Point(p15 + 7) = {29.2568521555138, -0.5337845652588382, 0};
Point(p15 + 8) = {29.15237511421723, -0.4905087577971856, 0};
Point(p15 + 9) = {29.04241453087929, -0.4641095574016861, 0};
Point(p15 + 10) = {28.929678, -0.4552369999999999, 0};
Point(p15 + 11) = {28.81694146912071, -0.4641095574016862, 0};
Point(p15 + 12) = {28.70698088578277, -0.4905087577971856, 0};
Point(p15 + 13) = {28.6025038444862, -0.5337845652588381, 0};
Point(p15 + 14) = {28.50608291672715, -0.5928713857827671, 0};
Point(p15 + 15) = {28.42009230574976, -0.666314305749759, 0};
Point(p15 + 16) = {28.34664938578277, -0.7523049167271493, 0};
Point(p15 + 17) = {28.28756256525884, -0.8487258444861989, 0};
Point(p15 + 18) = {28.24428675779718, -0.9532028857827671, 0};
Point(p15 + 19) = {28.21788755740168, -1.063163469120712, 0};
Point(p15 + 20) = {28.209015, -1.1759, 0};
Point(p15 + 21) = {28.21788755740168, -1.288636530879288, 0};
Point(p15 + 22) = {28.24428675779718, -1.398597114217233, 0};
Point(p15 + 23) = {28.28756256525884, -1.503074155513801, 0};
Point(p15 + 24) = {28.34664938578277, -1.599495083272851, 0};
Point(p15 + 25) = {28.42009230574976, -1.685485694250241, 0};
Point(p15 + 26) = {28.50608291672715, -1.758928614217233, 0};
Point(p15 + 27) = {28.6025038444862, -1.818015434741162, 0};
Point(p15 + 28) = {28.70698088578277, -1.861291242202814, 0};
Point(p15 + 29) = {28.81694146912071, -1.887690442598314, 0};
Point(p15 + 30) = {28.929678, -1.896563, 0};
Point(p15 + 31) = {29.04241453087929, -1.887690442598314, 0};
Point(p15 + 32) = {29.15237511421723, -1.861291242202814, 0};
Point(p15 + 33) = {29.2568521555138, -1.818015434741162, 0};
Point(p15 + 34) = {29.35327308327285, -1.758928614217233, 0};
Point(p15 + 35) = {29.43926369425024, -1.685485694250241, 0};
Point(p15 + 36) = {29.51270661421723, -1.599495083272851, 0};
Point(p15 + 37) = {29.57179343474116, -1.503074155513801, 0};
Point(p15 + 38) = {29.61506924220281, -1.398597114217233, 0};
Point(p15 + 39) = {29.64146844259831, -1.288636530879288, 0};
Spline(15) = {10, p15 + 1, p15 + 2, p15 + 3, p15 + 4, p15 + 5, p15 + 6, p15 + 7, p15 + 8, p15 + 9, p15 + 10, p15 + 11, p15 + 12, p15 + 13, p15 + 14, p15 + 15, p15 + 16, p15 + 17, p15 + 18, p15 + 19, p15 + 20, p15 + 21, p15 + 22, p15 + 23, p15 + 24, p15 + 25, p15 + 26, p15 + 27, p15 + 28, p15 + 29, p15 + 30, p15 + 31, p15 + 32, p15 + 33, p15 + 34, p15 + 35, p15 + 36, p15 + 37, p15 + 38, p15 + 39, 10};
p16 = newp;
Point(p16 + 1) = {17.03702177302579, 0.07021340285932559, 0.1};
Point(p16 + 2) = {16.98608562428673, 0.2823777314914263, 0.1};
Point(p16 + 3) = {16.90258677081216, 0.4839617959923427, 0.1};
Point(p16 + 4) = {16.78858123149143, 0.6700019276749087, 0.1};
Point(p16 + 5) = {16.6468762010653, 0.8359172010653013, 0.1};
Point(p16 + 6) = {16.48096092767491, 0.9776222314914264, 0.1};
Point(p16 + 7) = {16.29492079599234, 1.091627770812159, 0.1};
Point(p16 + 8) = {16.09333673149143, 1.175126624286732, 0.1};
Point(p16 + 9) = {15.88117240285933, 1.226062773025792, 0.1};
Point(p16 + 10) = {15.663652, 1.243182, 0.1};
Point(p16 + 11) = {15.44613159714067, 1.226062773025792, 0.1};
Point(p16 + 12) = {15.23396726850858, 1.175126624286732, 0.1};
Point(p16 + 13) = {15.03238320400766, 1.09162777081216, 0.1};
Point(p16 + 14) = {14.84634307232509, 0.9776222314914264, 0.1};
Point(p16 + 15) = {14.6804277989347, 0.8359172010653014, 0.1};
Point(p16 + 16) = {14.53872276850857, 0.670001927674909, 0.1};
Point(p16 + 17) = {14.42471722918784, 0.4839617959923429, 0.1};
Point(p16 + 18) = {14.34121837571327, 0.2823777314914264, 0.1};
Point(p16 + 19) = {14.29028222697421, 0.07021340285932576, 0.1};
Point(p16 + 20) = {14.273163, -0.1473069999999998, 0.1};
Point(p16 + 21) = {14.29028222697421, -0.3648274028593255, 0.1};
Point(p16 + 22) = {14.34121837571327, -0.5769917314914267, 0.1};
Point(p16 + 23) = {14.42471722918784, -0.7785757959923421, 0.1};
Point(p16 + 24) = {14.53872276850857, -0.9646159276749086, 0.1};
Point(p16 + 25) = {14.6804277989347, -1.130531201065301, 0.1};
Point(p16 + 26) = {14.84634307232509, -1.272236231491426, 0.1};
Point(p16 + 27) = {15.03238320400766, -1.386241770812159, 0.1};
Point(p16 + 28) = {15.23396726850858, -1.469740624286732, 0.1};
Point(p16 + 29) = {15.44613159714067, -1.520676773025793, 0.1};
Point(p16 + 30) = {15.663652, -1.537796, 0.1};
Point(p16 + 31) = {15.88117240285933, -1.520676773025793, 0.1};
Point(p16 + 32) = {16.09333673149143, -1.469740624286732, 0.1};
Point(p16 + 33) = {16.29492079599234, -1.38624177081216, 0.1};
Point(p16 + 34) = {16.48096092767491, -1.272236231491427, 0.1};
Point(p16 + 35) = {16.6468762010653, -1.130531201065302, 0.1};
Point(p16 + 36) = {16.78858123149143, -0.9646159276749089, 0.1};
Point(p16 + 37) = {16.90258677081216, -0.7785757959923429, 0.1};
Point(p16 + 38) = {16.98608562428673, -0.5769917314914266, 0.1};
Point(p16 + 39) = {17.03702177302579, -0.3648274028593259, 0.1};
Spline(16) = {11, p16 + 1, p16 + 2, p16 + 3, p16 + 4, p16 + 5, p16 + 6, p16 + 7, p16 + 8, p16 + 9, p16 + 10, p16 + 11, p16 + 12, p16 + 13, p16 + 14, p16 + 15, p16 + 16, p16 + 17, p16 + 18, p16 + 19, p16 + 20, p16 + 21, p16 + 22, p16 + 23, p16 + 24, p16 + 25, p16 + 26, p16 + 27, p16 + 28, p16 + 29, p16 + 30, p16 + 31, p16 + 32, p16 + 33, p16 + 34, p16 + 35, p16 + 36, p16 + 37, p16 + 38, p16 + 39, 11};
Line(17) = {12, 11};
p18 = newp;
Point(p18 + 1) = {17.03702177302579, 0.07021340285932559, 0};
Point(p18 + 2) = {16.98608562428673, 0.2823777314914263, 0};
Point(p18 + 3) = {16.90258677081216, 0.4839617959923427, 0};
Point(p18 + 4) = {16.78858123149143, 0.6700019276749087, 0};
Point(p18 + 5) = {16.6468762010653, 0.8359172010653013, 0};
Point(p18 + 6) = {16.48096092767491, 0.9776222314914264, 0};
Point(p18 + 7) = {16.29492079599234, 1.091627770812159, 0};
Point(p18 + 8) = {16.09333673149143, 1.175126624286732, 0};
Point(p18 + 9) = {15.88117240285933, 1.226062773025792, 0};
Point(p18 + 10) = {15.663652, 1.243182, 0};
Point(p18 + 11) = {15.44613159714067, 1.226062773025792, 0};
Point(p18 + 12) = {15.23396726850858, 1.175126624286732, 0};
Point(p18 + 13) = {15.03238320400766, 1.09162777081216, 0};
Point(p18 + 14) = {14.84634307232509, 0.9776222314914264, 0};
Point(p18 + 15) = {14.6804277989347, 0.8359172010653014, 0};
Point(p18 + 16) = {14.53872276850857, 0.670001927674909, 0};
Point(p18 + 17) = {14.42471722918784, 0.4839617959923429, 0};
Point(p18 + 18) = {14.34121837571327, 0.2823777314914264, 0};
Point(p18 + 19) = {14.29028222697421, 0.07021340285932576, 0};
Point(p18 + 20) = {14.273163, -0.1473069999999998, 0};
Point(p18 + 21) = {14.29028222697421, -0.3648274028593255, 0};
Point(p18 + 22) = {14.34121837571327, -0.5769917314914267, 0};
Point(p18 + 23) = {14.42471722918784, -0.7785757959923421, 0};
Point(p18 + 24) = {14.53872276850857, -0.9646159276749086, 0};
Point(p18 + 25) = {14.6804277989347, -1.130531201065301, 0};
Point(p18 + 26) = {14.84634307232509, -1.272236231491426, 0};
Point(p18 + 27) = {15.03238320400766, -1.386241770812159, 0};
Point(p18 + 28) = {15.23396726850858, -1.469740624286732, 0};
Point(p18 + 29) = {15.44613159714067, -1.520676773025793, 0};
Point(p18 + 30) = {15.663652, -1.537796, 0};
Point(p18 + 31) = {15.88117240285933, -1.520676773025793, 0};
Point(p18 + 32) = {16.09333673149143, -1.469740624286732, 0};
Point(p18 + 33) = {16.29492079599234, -1.38624177081216, 0};
Point(p18 + 34) = {16.48096092767491, -1.272236231491427, 0};
Point(p18 + 35) = {16.6468762010653, -1.130531201065302, 0};
Point(p18 + 36) = {16.78858123149143, -0.9646159276749089, 0};
Point(p18 + 37) = {16.90258677081216, -0.7785757959923429, 0};
Point(p18 + 38) = {16.98608562428673, -0.5769917314914266, 0};
Point(p18 + 39) = {17.03702177302579, -0.3648274028593259, 0};
Spline(18) = {12, p18 + 1, p18 + 2, p18 + 3, p18 + 4, p18 + 5, p18 + 6, p18 + 7, p18 + 8, p18 + 9, p18 + 10, p18 + 11, p18 + 12, p18 + 13, p18 + 14, p18 + 15, p18 + 16, p18 + 17, p18 + 18, p18 + 19, p18 + 20, p18 + 21, p18 + 22, p18 + 23, p18 + 24, p18 + 25, p18 + 26, p18 + 27, p18 + 28, p18 + 29, p18 + 30, p18 + 31, p18 + 32, p18 + 33, p18 + 34, p18 + 35, p18 + 36, p18 + 37, p18 + 38, p18 + 39, 12};
Line(19) = {14, 13};
Line(20) = {13, 15};
Line(21) = {16, 15};
Line(22) = {14, 16};
Line(23) = {14, 17};
Line(24) = {17, 18};
Line(25) = {13, 18};
Line(26) = {15, 19};
Line(27) = {18, 19};
Line(28) = {16, 20};
Line(29) = {20, 19};
Line(30) = {17, 20};
Curve Loop(7) = {-13, -14, 15, 14};
Surface(7) = {7};
Curve Loop(8) = {13};
Plane Surface(8) = {8};
Curve Loop(9) = {15};
Plane Surface(9) = {9};
Curve Loop(10) = {-16, -17, 18, 17};
Surface(10) = {10};
Curve Loop(11) = {16};
Plane Surface(11) = {11};
Curve Loop(12) = {18};
Plane Surface(12) = {12};
Curve Loop(13) = {-19, 22, 21, -20};
Plane Surface(13) = {13};
Curve Loop(14) = {-23, 19, 25, -24};
Plane Surface(14) = {14};
Curve Loop(15) = {-20, 25, 27, -26};
Plane Surface(15) = {15};
Curve Loop(16) = {-28, 21, 26, -29};
Plane Surface(16) = {16};
Curve Loop(17) = {-22, 23, 30, -28, -15, -18};
Plane Surface(17) = {17};
Curve Loop(18) = {-24, 30, 29, -27};
Plane Surface(18) = {18};
Surface Loop(1) = {13, 14, 15, 16, 17, 18, 7, 10, 8, 11};
Volume(1) = {1};
Surface Loop(2) = {7, 8, 9};
Volume(2) = {2};
Surface Loop(3) = {10, 11, 12};
Volume(3) = {3};
Physical Surface("WALLS") = {13, 18};
Physical Surface("LOAD") = {8, 11};
Physical Surface("BORDER") = {7, 9, 10, 12, 14, 15, 16, 17};
Physical Volume("SOLID") = {1, 2, 3};
