cl__1 = 0.142431;
cl__2 = 0.132234;
cl__3 = 0.404573;
cl__4 = 0.382034;
cl__5 = 3.955595;
cl__6 = 4.345816;
Point(9) = {18.228951, -0.02460300000000035, 0.1, cl__1};
Point(10) = {18.228951, -0.02460300000000035, 0, cl__1};
Point(11) = {3.995318, 1.017803, 0.1, cl__2};
Point(12) = {3.995318, 1.017803, 0, cl__2};
Point(13) = {0.743308, -4.072517, 1, cl__3};
Point(14) = {0.743308, -4.072517, 0, cl__3};
Point(15) = {0.743308, 5.861792, 1, cl__4};
Point(16) = {0.743308, 5.861792, 0, cl__4};
Point(17) = {33.866448, -4.072517, 0, cl__5};
Point(18) = {33.866448, -4.072517, 1, cl__5};
Point(19) = {33.866448, 5.861792, 1, cl__6};
Point(20) = {33.866448, 5.861792, 0, cl__6};
p13 = newp;
Point(p13 + 1) = {18.21141538039306, 0.1982081729014512, 0.1};
Point(p13 + 2) = {18.15924030672435, 0.4155329952581813, 0.1};
Point(p13 + 3) = {18.07371050246674, 0.6220202086840337, 0.1};
Point(p13 + 4) = {17.95693199525818, 0.8125854126926924, 0.1};
Point(p13 + 5) = {17.81178025951181, 0.9825362595118113, 0.1};
Point(p13 + 6) = {17.64182941269269, 1.127687995258181, 0.1};
Point(p13 + 7) = {17.45126420868403, 1.244466502466734, 0.1};
Point(p13 + 8) = {17.24477699525818, 1.32999630672435, 0.1};
Point(p13 + 9) = {17.02745217290145, 1.382171380393061, 0.1};
Point(p13 + 10) = {16.804641, 1.399707, 0.1};
Point(p13 + 11) = {16.58182982709855, 1.382171380393061, 0.1};
Point(p13 + 12) = {16.36450500474182, 1.32999630672435, 0.1};
Point(p13 + 13) = {16.15801779131597, 1.244466502466734, 0.1};
Point(p13 + 14) = {15.96745258730731, 1.127687995258182, 0.1};
Point(p13 + 15) = {15.79750174048819, 0.9825362595118116, 0.1};
Point(p13 + 16) = {15.65235000474182, 0.8125854126926925, 0.1};
Point(p13 + 17) = {15.53557149753327, 0.622020208684034, 0.1};
Point(p13 + 18) = {15.45004169327565, 0.4155329952581815, 0.1};
Point(p13 + 19) = {15.39786661960694, 0.1982081729014514, 0.1};
Point(p13 + 20) = {15.380331, -0.02460299999999983, 0.1};
Point(p13 + 21) = {15.39786661960694, -0.2474141729014511, 0.1};
Point(p13 + 22) = {15.45004169327565, -0.4647389952581818, 0.1};
Point(p13 + 23) = {15.53557149753327, -0.6712262086840333, 0.1};
Point(p13 + 24) = {15.65235000474182, -0.8617914126926923, 0.1};
Point(p13 + 25) = {15.79750174048819, -1.031742259511811, 0.1};
Point(p13 + 26) = {15.96745258730731, -1.176893995258181, 0.1};
Point(p13 + 27) = {16.15801779131597, -1.293672502466734, 0.1};
Point(p13 + 28) = {16.36450500474182, -1.37920230672435, 0.1};
Point(p13 + 29) = {16.58182982709855, -1.431377380393061, 0.1};
Point(p13 + 30) = {16.804641, -1.448913, 0.1};
Point(p13 + 31) = {17.02745217290145, -1.431377380393061, 0.1};
Point(p13 + 32) = {17.24477699525818, -1.37920230672435, 0.1};
Point(p13 + 33) = {17.45126420868403, -1.293672502466734, 0.1};
Point(p13 + 34) = {17.64182941269269, -1.176893995258181, 0.1};
Point(p13 + 35) = {17.81178025951181, -1.031742259511812, 0.1};
Point(p13 + 36) = {17.95693199525818, -0.8617914126926925, 0.1};
Point(p13 + 37) = {18.07371050246674, -0.6712262086840342, 0.1};
Point(p13 + 38) = {18.15924030672435, -0.4647389952581816, 0.1};
Point(p13 + 39) = {18.21141538039306, -0.2474141729014516, 0.1};
Spline(13) = {9, p13 + 1, p13 + 2, p13 + 3, p13 + 4, p13 + 5, p13 + 6, p13 + 7, p13 + 8, p13 + 9, p13 + 10, p13 + 11, p13 + 12, p13 + 13, p13 + 14, p13 + 15, p13 + 16, p13 + 17, p13 + 18, p13 + 19, p13 + 20, p13 + 21, p13 + 22, p13 + 23, p13 + 24, p13 + 25, p13 + 26, p13 + 27, p13 + 28, p13 + 29, p13 + 30, p13 + 31, p13 + 32, p13 + 33, p13 + 34, p13 + 35, p13 + 36, p13 + 37, p13 + 38, p13 + 39, 9};
Line(14) = {10, 9};
p15 = newp;
Point(p15 + 1) = {18.21141538039306, 0.1982081729014512, 0};
Point(p15 + 2) = {18.15924030672435, 0.4155329952581813, 0};
Point(p15 + 3) = {18.07371050246674, 0.6220202086840337, 0};
Point(p15 + 4) = {17.95693199525818, 0.8125854126926924, 0};
Point(p15 + 5) = {17.81178025951181, 0.9825362595118113, 0};
Point(p15 + 6) = {17.64182941269269, 1.127687995258181, 0};
Point(p15 + 7) = {17.45126420868403, 1.244466502466734, 0};
Point(p15 + 8) = {17.24477699525818, 1.32999630672435, 0};
Point(p15 + 9) = {17.02745217290145, 1.382171380393061, 0};
Point(p15 + 10) = {16.804641, 1.399707, 0};
Point(p15 + 11) = {16.58182982709855, 1.382171380393061, 0};
Point(p15 + 12) = {16.36450500474182, 1.32999630672435, 0};
Point(p15 + 13) = {16.15801779131597, 1.244466502466734, 0};
Point(p15 + 14) = {15.96745258730731, 1.127687995258182, 0};
Point(p15 + 15) = {15.79750174048819, 0.9825362595118116, 0};
Point(p15 + 16) = {15.65235000474182, 0.8125854126926925, 0};
Point(p15 + 17) = {15.53557149753327, 0.622020208684034, 0};
Point(p15 + 18) = {15.45004169327565, 0.4155329952581815, 0};
Point(p15 + 19) = {15.39786661960694, 0.1982081729014514, 0};
Point(p15 + 20) = {15.380331, -0.02460299999999983, 0};
Point(p15 + 21) = {15.39786661960694, -0.2474141729014511, 0};
Point(p15 + 22) = {15.45004169327565, -0.4647389952581818, 0};
Point(p15 + 23) = {15.53557149753327, -0.6712262086840333, 0};
Point(p15 + 24) = {15.65235000474182, -0.8617914126926923, 0};
Point(p15 + 25) = {15.79750174048819, -1.031742259511811, 0};
Point(p15 + 26) = {15.96745258730731, -1.176893995258181, 0};
Point(p15 + 27) = {16.15801779131597, -1.293672502466734, 0};
Point(p15 + 28) = {16.36450500474182, -1.37920230672435, 0};
Point(p15 + 29) = {16.58182982709855, -1.431377380393061, 0};
Point(p15 + 30) = {16.804641, -1.448913, 0};
Point(p15 + 31) = {17.02745217290145, -1.431377380393061, 0};
Point(p15 + 32) = {17.24477699525818, -1.37920230672435, 0};
Point(p15 + 33) = {17.45126420868403, -1.293672502466734, 0};
Point(p15 + 34) = {17.64182941269269, -1.176893995258181, 0};
Point(p15 + 35) = {17.81178025951181, -1.031742259511812, 0};
Point(p15 + 36) = {17.95693199525818, -0.8617914126926925, 0};
Point(p15 + 37) = {18.07371050246674, -0.6712262086840342, 0};
Point(p15 + 38) = {18.15924030672435, -0.4647389952581816, 0};
Point(p15 + 39) = {18.21141538039306, -0.2474141729014516, 0};
Spline(15) = {10, p15 + 1, p15 + 2, p15 + 3, p15 + 4, p15 + 5, p15 + 6, p15 + 7, p15 + 8, p15 + 9, p15 + 10, p15 + 11, p15 + 12, p15 + 13, p15 + 14, p15 + 15, p15 + 16, p15 + 17, p15 + 18, p15 + 19, p15 + 20, p15 + 21, p15 + 22, p15 + 23, p15 + 24, p15 + 25, p15 + 26, p15 + 27, p15 + 28, p15 + 29, p15 + 30, p15 + 31, p15 + 32, p15 + 33, p15 + 34, p15 + 35, p15 + 36, p15 + 37, p15 + 38, p15 + 39, 10};
p16 = newp;
Point(p16 + 1) = {3.979037787990915, 1.224662706935764, 0.1};
Point(p16 + 2) = {3.93059802481425, 1.426428841358762, 0.1};
Point(p16 + 3) = {3.851191458201771, 1.618133251416092, 0.1};
Point(p16 + 4) = {3.742773341358762, 1.795055538301681, 0.1};
Point(p16 + 5) = {3.608013288141001, 1.952839288141, 0.1};
Point(p16 + 6) = {3.450229538301681, 2.087599341358763, 0.1};
Point(p16 + 7) = {3.273307251416092, 2.19601745820177, 0.1};
Point(p16 + 8) = {3.081602841358762, 2.275424024814249, 0.1};
Point(p16 + 9) = {2.879836706935764, 2.323863787990915, 0.1};
Point(p16 + 10) = {2.672977, 2.340144, 0.1};
Point(p16 + 11) = {2.466117293064236, 2.323863787990915, 0.1};
Point(p16 + 12) = {2.264351158641237, 2.275424024814249, 0.1};
Point(p16 + 13) = {2.072646748583908, 2.196017458201771, 0.1};
Point(p16 + 14) = {1.895724461698319, 2.087599341358763, 0.1};
Point(p16 + 15) = {1.737940711859, 1.952839288141, 0.1};
Point(p16 + 16) = {1.603180658641238, 1.795055538301682, 0.1};
Point(p16 + 17) = {1.49476254179823, 1.618133251416092, 0.1};
Point(p16 + 18) = {1.41535597518575, 1.426428841358762, 0.1};
Point(p16 + 19) = {1.366916212009085, 1.224662706935764, 0.1};
Point(p16 + 20) = {1.350636, 1.017803, 0.1};
Point(p16 + 21) = {1.366916212009085, 0.8109432930642362, 0.1};
Point(p16 + 22) = {1.415355975185751, 0.6091771586412373, 0.1};
Point(p16 + 23) = {1.494762541798229, 0.4174727485839086, 0.1};
Point(p16 + 24) = {1.603180658641238, 0.240550461698319, 0.1};
Point(p16 + 25) = {1.737940711858999, 0.08276671185899964, 0.1};
Point(p16 + 26) = {1.895724461698319, -0.05199334135876232, 0.1};
Point(p16 + 27) = {2.072646748583908, -0.1604114582017704, 0.1};
Point(p16 + 28) = {2.264351158641237, -0.2398180248142496, 0.1};
Point(p16 + 29) = {2.466117293064236, -0.2882577879909149, 0.1};
Point(p16 + 30) = {2.672976999999999, -0.304538, 0.1};
Point(p16 + 31) = {2.879836706935764, -0.2882577879909149, 0.1};
Point(p16 + 32) = {3.081602841358762, -0.2398180248142496, 0.1};
Point(p16 + 33) = {3.273307251416092, -0.1604114582017708, 0.1};
Point(p16 + 34) = {3.450229538301681, -0.05199334135876255, 0.1};
Point(p16 + 35) = {3.608013288141001, 0.08276671185899942, 0.1};
Point(p16 + 36) = {3.742773341358762, 0.2405504616983186, 0.1};
Point(p16 + 37) = {3.85119145820177, 0.4174727485839077, 0.1};
Point(p16 + 38) = {3.93059802481425, 0.6091771586412373, 0.1};
Point(p16 + 39) = {3.979037787990915, 0.8109432930642357, 0.1};
Spline(16) = {11, p16 + 1, p16 + 2, p16 + 3, p16 + 4, p16 + 5, p16 + 6, p16 + 7, p16 + 8, p16 + 9, p16 + 10, p16 + 11, p16 + 12, p16 + 13, p16 + 14, p16 + 15, p16 + 16, p16 + 17, p16 + 18, p16 + 19, p16 + 20, p16 + 21, p16 + 22, p16 + 23, p16 + 24, p16 + 25, p16 + 26, p16 + 27, p16 + 28, p16 + 29, p16 + 30, p16 + 31, p16 + 32, p16 + 33, p16 + 34, p16 + 35, p16 + 36, p16 + 37, p16 + 38, p16 + 39, 11};
Line(17) = {12, 11};
p18 = newp;
Point(p18 + 1) = {3.979037787990915, 1.224662706935764, 0};
Point(p18 + 2) = {3.93059802481425, 1.426428841358762, 0};
Point(p18 + 3) = {3.851191458201771, 1.618133251416092, 0};
Point(p18 + 4) = {3.742773341358762, 1.795055538301681, 0};
Point(p18 + 5) = {3.608013288141001, 1.952839288141, 0};
Point(p18 + 6) = {3.450229538301681, 2.087599341358763, 0};
Point(p18 + 7) = {3.273307251416092, 2.19601745820177, 0};
Point(p18 + 8) = {3.081602841358762, 2.275424024814249, 0};
Point(p18 + 9) = {2.879836706935764, 2.323863787990915, 0};
Point(p18 + 10) = {2.672977, 2.340144, 0};
Point(p18 + 11) = {2.466117293064236, 2.323863787990915, 0};
Point(p18 + 12) = {2.264351158641237, 2.275424024814249, 0};
Point(p18 + 13) = {2.072646748583908, 2.196017458201771, 0};
Point(p18 + 14) = {1.895724461698319, 2.087599341358763, 0};
Point(p18 + 15) = {1.737940711859, 1.952839288141, 0};
Point(p18 + 16) = {1.603180658641238, 1.795055538301682, 0};
Point(p18 + 17) = {1.49476254179823, 1.618133251416092, 0};
Point(p18 + 18) = {1.41535597518575, 1.426428841358762, 0};
Point(p18 + 19) = {1.366916212009085, 1.224662706935764, 0};
Point(p18 + 20) = {1.350636, 1.017803, 0};
Point(p18 + 21) = {1.366916212009085, 0.8109432930642362, 0};
Point(p18 + 22) = {1.415355975185751, 0.6091771586412373, 0};
Point(p18 + 23) = {1.494762541798229, 0.4174727485839086, 0};
Point(p18 + 24) = {1.603180658641238, 0.240550461698319, 0};
Point(p18 + 25) = {1.737940711858999, 0.08276671185899964, 0};
Point(p18 + 26) = {1.895724461698319, -0.05199334135876232, 0};
Point(p18 + 27) = {2.072646748583908, -0.1604114582017704, 0};
Point(p18 + 28) = {2.264351158641237, -0.2398180248142496, 0};
Point(p18 + 29) = {2.466117293064236, -0.2882577879909149, 0};
Point(p18 + 30) = {2.672976999999999, -0.304538, 0};
Point(p18 + 31) = {2.879836706935764, -0.2882577879909149, 0};
Point(p18 + 32) = {3.081602841358762, -0.2398180248142496, 0};
Point(p18 + 33) = {3.273307251416092, -0.1604114582017708, 0};
Point(p18 + 34) = {3.450229538301681, -0.05199334135876255, 0};
Point(p18 + 35) = {3.608013288141001, 0.08276671185899942, 0};
Point(p18 + 36) = {3.742773341358762, 0.2405504616983186, 0};
Point(p18 + 37) = {3.85119145820177, 0.4174727485839077, 0};
Point(p18 + 38) = {3.93059802481425, 0.6091771586412373, 0};
Point(p18 + 39) = {3.979037787990915, 0.8109432930642357, 0};
Spline(18) = {12, p18 + 1, p18 + 2, p18 + 3, p18 + 4, p18 + 5, p18 + 6, p18 + 7, p18 + 8, p18 + 9, p18 + 10, p18 + 11, p18 + 12, p18 + 13, p18 + 14, p18 + 15, p18 + 16, p18 + 17, p18 + 18, p18 + 19, p18 + 20, p18 + 21, p18 + 22, p18 + 23, p18 + 24, p18 + 25, p18 + 26, p18 + 27, p18 + 28, p18 + 29, p18 + 30, p18 + 31, p18 + 32, p18 + 33, p18 + 34, p18 + 35, p18 + 36, p18 + 37, p18 + 38, p18 + 39, 12};
Line(19) = {14, 13};
Line(20) = {13, 15};
Line(21) = {16, 15};
Line(22) = {14, 16};
Line(23) = {14, 17};
Line(24) = {17, 18};
Line(25) = {13, 18};
Line(26) = {15, 19};
Line(27) = {18, 19};
Line(28) = {16, 20};
Line(29) = {20, 19};
Line(30) = {17, 20};
Curve Loop(7) = {-13, -14, 15, 14};
Surface(7) = {7};
Curve Loop(8) = {13};
Plane Surface(8) = {8};
Curve Loop(9) = {15};
Plane Surface(9) = {9};
Curve Loop(10) = {-16, -17, 18, 17};
Surface(10) = {10};
Curve Loop(11) = {16};
Plane Surface(11) = {11};
Curve Loop(12) = {18};
Plane Surface(12) = {12};
Curve Loop(13) = {-19, 22, 21, -20};
Plane Surface(13) = {13};
Curve Loop(14) = {-23, 19, 25, -24};
Plane Surface(14) = {14};
Curve Loop(15) = {-20, 25, 27, -26};
Plane Surface(15) = {15};
Curve Loop(16) = {-28, 21, 26, -29};
Plane Surface(16) = {16};
Curve Loop(17) = {-22, 23, 30, -28, -15, -18};
Plane Surface(17) = {17};
Curve Loop(18) = {-24, 30, 29, -27};
Plane Surface(18) = {18};
Surface Loop(1) = {13, 14, 15, 16, 17, 18, 7, 10, 8, 11};
Volume(1) = {1};
Surface Loop(2) = {7, 8, 9};
Volume(2) = {2};
Surface Loop(3) = {10, 11, 12};
Volume(3) = {3};
Physical Surface("WALLS") = {13, 18};
Physical Surface("LOAD") = {8, 11};
Physical Surface("BORDER") = {7, 9, 10, 12, 14, 15, 16, 17};
Physical Volume("SOLID") = {1, 2, 3};
