cl__1 = 0.057375;
cl__2 = 0.137796;
cl__3 = 2.867207;
cl__4 = 3.088064;
cl__5 = 0.6264999999999999;
cl__6 = 0.496626;
Point(9) = {29.830169, 2.870968, 0.1, cl__1};
Point(10) = {29.830169, 2.870968, 0, cl__1};
Point(11) = {27.247005, -1.380572, 0.1, cl__2};
Point(12) = {27.247005, -1.380572, 0, cl__2};
Point(13) = {0.554021, -4.070648, 1, cl__3};
Point(14) = {0.554021, -4.070648, 0, cl__3};
Point(15) = {0.554021, 4.808469000000001, 1, cl__4};
Point(16) = {0.554021, 4.808469000000001, 0, cl__4};
Point(17) = {38.036617, -4.070648, 0, cl__5};
Point(18) = {38.036617, -4.070648, 1, cl__5};
Point(19) = {38.036617, 4.808469000000001, 1, cl__6};
Point(20) = {38.036617, 4.808469000000001, 0, cl__6};
p13 = newp;
Point(p13 + 1) = {29.8231051731048, 2.960722430751297, 0.1};
Point(p13 + 2) = {29.80208762728086, 3.048266809539621, 0.1};
Point(p13 + 3) = {29.7676338842596, 3.131445503216065, 0.1};
Point(p13 + 4) = {29.72059230953962, 3.208210376288059, 0.1};
Point(p13 + 5) = {29.66212122281256, 3.276671222812563, 0.1};
Point(p13 + 6) = {29.59366037628806, 3.33514230953962, 0.1};
Point(p13 + 7) = {29.51689550321607, 3.3821838842596, 0.1};
Point(p13 + 8) = {29.43371680953962, 3.416637627280861, 0.1};
Point(p13 + 9) = {29.3461724307513, 3.437655173104801, 0.1};
Point(p13 + 10) = {29.256418, 3.444719, 0.1};
Point(p13 + 11) = {29.1666635692487, 3.437655173104801, 0.1};
Point(p13 + 12) = {29.07911919046038, 3.416637627280861, 0.1};
Point(p13 + 13) = {28.99594049678393, 3.3821838842596, 0.1};
Point(p13 + 14) = {28.91917562371194, 3.33514230953962, 0.1};
Point(p13 + 15) = {28.85071477718744, 3.276671222812563, 0.1};
Point(p13 + 16) = {28.79224369046038, 3.208210376288059, 0.1};
Point(p13 + 17) = {28.7452021157404, 3.131445503216065, 0.1};
Point(p13 + 18) = {28.71074837271914, 3.048266809539621, 0.1};
Point(p13 + 19) = {28.6897308268952, 2.960722430751297, 0.1};
Point(p13 + 20) = {28.682667, 2.870968, 0.1};
Point(p13 + 21) = {28.6897308268952, 2.781213569248703, 0.1};
Point(p13 + 22) = {28.71074837271914, 2.693669190460379, 0.1};
Point(p13 + 23) = {28.7452021157404, 2.610490496783935, 0.1};
Point(p13 + 24) = {28.79224369046038, 2.533725623711941, 0.1};
Point(p13 + 25) = {28.85071477718744, 2.465264777187437, 0.1};
Point(p13 + 26) = {28.91917562371194, 2.406793690460379, 0.1};
Point(p13 + 27) = {28.99594049678393, 2.3597521157404, 0.1};
Point(p13 + 28) = {29.07911919046038, 2.325298372719139, 0.1};
Point(p13 + 29) = {29.1666635692487, 2.304280826895199, 0.1};
Point(p13 + 30) = {29.256418, 2.297217, 0.1};
Point(p13 + 31) = {29.3461724307513, 2.304280826895199, 0.1};
Point(p13 + 32) = {29.43371680953962, 2.325298372719139, 0.1};
Point(p13 + 33) = {29.51689550321607, 2.3597521157404, 0.1};
Point(p13 + 34) = {29.59366037628806, 2.406793690460379, 0.1};
Point(p13 + 35) = {29.66212122281256, 2.465264777187437, 0.1};
Point(p13 + 36) = {29.72059230953962, 2.533725623711941, 0.1};
Point(p13 + 37) = {29.7676338842596, 2.610490496783935, 0.1};
Point(p13 + 38) = {29.80208762728086, 2.693669190460379, 0.1};
Point(p13 + 39) = {29.8231051731048, 2.781213569248702, 0.1};
Spline(13) = {9, p13 + 1, p13 + 2, p13 + 3, p13 + 4, p13 + 5, p13 + 6, p13 + 7, p13 + 8, p13 + 9, p13 + 10, p13 + 11, p13 + 12, p13 + 13, p13 + 14, p13 + 15, p13 + 16, p13 + 17, p13 + 18, p13 + 19, p13 + 20, p13 + 21, p13 + 22, p13 + 23, p13 + 24, p13 + 25, p13 + 26, p13 + 27, p13 + 28, p13 + 29, p13 + 30, p13 + 31, p13 + 32, p13 + 33, p13 + 34, p13 + 35, p13 + 36, p13 + 37, p13 + 38, p13 + 39, 9};
Line(14) = {10, 9};
p15 = newp;
Point(p15 + 1) = {29.8231051731048, 2.960722430751297, 0};
Point(p15 + 2) = {29.80208762728086, 3.048266809539621, 0};
Point(p15 + 3) = {29.7676338842596, 3.131445503216065, 0};
Point(p15 + 4) = {29.72059230953962, 3.208210376288059, 0};
Point(p15 + 5) = {29.66212122281256, 3.276671222812563, 0};
Point(p15 + 6) = {29.59366037628806, 3.33514230953962, 0};
Point(p15 + 7) = {29.51689550321607, 3.3821838842596, 0};
Point(p15 + 8) = {29.43371680953962, 3.416637627280861, 0};
Point(p15 + 9) = {29.3461724307513, 3.437655173104801, 0};
Point(p15 + 10) = {29.256418, 3.444719, 0};
Point(p15 + 11) = {29.1666635692487, 3.437655173104801, 0};
Point(p15 + 12) = {29.07911919046038, 3.416637627280861, 0};
Point(p15 + 13) = {28.99594049678393, 3.3821838842596, 0};
Point(p15 + 14) = {28.91917562371194, 3.33514230953962, 0};
Point(p15 + 15) = {28.85071477718744, 3.276671222812563, 0};
Point(p15 + 16) = {28.79224369046038, 3.208210376288059, 0};
Point(p15 + 17) = {28.7452021157404, 3.131445503216065, 0};
Point(p15 + 18) = {28.71074837271914, 3.048266809539621, 0};
Point(p15 + 19) = {28.6897308268952, 2.960722430751297, 0};
Point(p15 + 20) = {28.682667, 2.870968, 0};
Point(p15 + 21) = {28.6897308268952, 2.781213569248703, 0};
Point(p15 + 22) = {28.71074837271914, 2.693669190460379, 0};
Point(p15 + 23) = {28.7452021157404, 2.610490496783935, 0};
Point(p15 + 24) = {28.79224369046038, 2.533725623711941, 0};
Point(p15 + 25) = {28.85071477718744, 2.465264777187437, 0};
Point(p15 + 26) = {28.91917562371194, 2.406793690460379, 0};
Point(p15 + 27) = {28.99594049678393, 2.3597521157404, 0};
Point(p15 + 28) = {29.07911919046038, 2.325298372719139, 0};
Point(p15 + 29) = {29.1666635692487, 2.304280826895199, 0};
Point(p15 + 30) = {29.256418, 2.297217, 0};
Point(p15 + 31) = {29.3461724307513, 2.304280826895199, 0};
Point(p15 + 32) = {29.43371680953962, 2.325298372719139, 0};
Point(p15 + 33) = {29.51689550321607, 2.3597521157404, 0};
Point(p15 + 34) = {29.59366037628806, 2.406793690460379, 0};
Point(p15 + 35) = {29.66212122281256, 2.465264777187437, 0};
Point(p15 + 36) = {29.72059230953962, 2.533725623711941, 0};
Point(p15 + 37) = {29.7676338842596, 2.610490496783935, 0};
Point(p15 + 38) = {29.80208762728086, 2.693669190460379, 0};
Point(p15 + 39) = {29.8231051731048, 2.781213569248702, 0};
Spline(15) = {10, p15 + 1, p15 + 2, p15 + 3, p15 + 4, p15 + 5, p15 + 6, p15 + 7, p15 + 8, p15 + 9, p15 + 10, p15 + 11, p15 + 12, p15 + 13, p15 + 14, p15 + 15, p15 + 16, p15 + 17, p15 + 18, p15 + 19, p15 + 20, p15 + 21, p15 + 22, p15 + 23, p15 + 24, p15 + 25, p15 + 26, p15 + 27, p15 + 28, p15 + 29, p15 + 30, p15 + 31, p15 + 32, p15 + 33, p15 + 34, p15 + 35, p15 + 36, p15 + 37, p15 + 38, p15 + 39, 10};
p16 = newp;
Point(p16 + 1) = {27.23004002580647, -1.165011564553163, 0.1};
Point(p16 + 2) = {27.17956283719407, -0.9547589424310974, 0.1};
Point(p16 + 3) = {27.0968163500706, -0.7549912509788941, 0.1};
Point(p16 + 4) = {26.9838380575689, -0.5706274337510636, 0.1};
Point(p16 + 5) = {26.84340986020381, -0.4062071397961849, 0.1};
Point(p16 + 6) = {26.67898956624894, -0.2657789424310975, 0.1};
Point(p16 + 7) = {26.49462574902111, -0.1528006499293966, 0.1};
Point(p16 + 8) = {26.2948580575689, -0.07005416280593013, 0.1};
Point(p16 + 9) = {26.08460543544684, -0.01957697419352389, 0.1};
Point(p16 + 10) = {25.869045, -0.002611999999999837, 0.1};
Point(p16 + 11) = {25.65348456455316, -0.01957697419352389, 0.1};
Point(p16 + 12) = {25.4432319424311, -0.07005416280592991, 0.1};
Point(p16 + 13) = {25.2434642509789, -0.1528006499293963, 0.1};
Point(p16 + 14) = {25.05910043375106, -0.2657789424310972, 0.1};
Point(p16 + 15) = {24.89468013979619, -0.4062071397961847, 0.1};
Point(p16 + 16) = {24.7542519424311, -0.5706274337510634, 0.1};
Point(p16 + 17) = {24.6412736499294, -0.7549912509788939, 0.1};
Point(p16 + 18) = {24.55852716280593, -0.9547589424310972, 0.1};
Point(p16 + 19) = {24.50804997419353, -1.165011564553163, 0.1};
Point(p16 + 20) = {24.491085, -1.380572, 0.1};
Point(p16 + 21) = {24.50804997419353, -1.596132435446836, 0.1};
Point(p16 + 22) = {24.55852716280593, -1.806385057568903, 0.1};
Point(p16 + 23) = {24.6412736499294, -2.006152749021105, 0.1};
Point(p16 + 24) = {24.7542519424311, -2.190516566248936, 0.1};
Point(p16 + 25) = {24.89468013979619, -2.354936860203815, 0.1};
Point(p16 + 26) = {25.05910043375106, -2.495365057568902, 0.1};
Point(p16 + 27) = {25.24346425097889, -2.608343350070603, 0.1};
Point(p16 + 28) = {25.4432319424311, -2.691089837194069, 0.1};
Point(p16 + 29) = {25.65348456455316, -2.741567025806476, 0.1};
Point(p16 + 30) = {25.869045, -2.758532, 0.1};
Point(p16 + 31) = {26.08460543544684, -2.741567025806476, 0.1};
Point(p16 + 32) = {26.2948580575689, -2.69108983719407, 0.1};
Point(p16 + 33) = {26.4946257490211, -2.608343350070603, 0.1};
Point(p16 + 34) = {26.67898956624894, -2.495365057568903, 0.1};
Point(p16 + 35) = {26.84340986020381, -2.354936860203815, 0.1};
Point(p16 + 36) = {26.9838380575689, -2.190516566248936, 0.1};
Point(p16 + 37) = {27.0968163500706, -2.006152749021106, 0.1};
Point(p16 + 38) = {27.17956283719407, -1.806385057568903, 0.1};
Point(p16 + 39) = {27.23004002580647, -1.596132435446837, 0.1};
Spline(16) = {11, p16 + 1, p16 + 2, p16 + 3, p16 + 4, p16 + 5, p16 + 6, p16 + 7, p16 + 8, p16 + 9, p16 + 10, p16 + 11, p16 + 12, p16 + 13, p16 + 14, p16 + 15, p16 + 16, p16 + 17, p16 + 18, p16 + 19, p16 + 20, p16 + 21, p16 + 22, p16 + 23, p16 + 24, p16 + 25, p16 + 26, p16 + 27, p16 + 28, p16 + 29, p16 + 30, p16 + 31, p16 + 32, p16 + 33, p16 + 34, p16 + 35, p16 + 36, p16 + 37, p16 + 38, p16 + 39, 11};
Line(17) = {12, 11};
p18 = newp;
Point(p18 + 1) = {27.23004002580647, -1.165011564553163, 0};
Point(p18 + 2) = {27.17956283719407, -0.9547589424310974, 0};
Point(p18 + 3) = {27.0968163500706, -0.7549912509788941, 0};
Point(p18 + 4) = {26.9838380575689, -0.5706274337510636, 0};
Point(p18 + 5) = {26.84340986020381, -0.4062071397961849, 0};
Point(p18 + 6) = {26.67898956624894, -0.2657789424310975, 0};
Point(p18 + 7) = {26.49462574902111, -0.1528006499293966, 0};
Point(p18 + 8) = {26.2948580575689, -0.07005416280593013, 0};
Point(p18 + 9) = {26.08460543544684, -0.01957697419352389, 0};
Point(p18 + 10) = {25.869045, -0.002611999999999837, 0};
Point(p18 + 11) = {25.65348456455316, -0.01957697419352389, 0};
Point(p18 + 12) = {25.4432319424311, -0.07005416280592991, 0};
Point(p18 + 13) = {25.2434642509789, -0.1528006499293963, 0};
Point(p18 + 14) = {25.05910043375106, -0.2657789424310972, 0};
Point(p18 + 15) = {24.89468013979619, -0.4062071397961847, 0};
Point(p18 + 16) = {24.7542519424311, -0.5706274337510634, 0};
Point(p18 + 17) = {24.6412736499294, -0.7549912509788939, 0};
Point(p18 + 18) = {24.55852716280593, -0.9547589424310972, 0};
Point(p18 + 19) = {24.50804997419353, -1.165011564553163, 0};
Point(p18 + 20) = {24.491085, -1.380572, 0};
Point(p18 + 21) = {24.50804997419353, -1.596132435446836, 0};
Point(p18 + 22) = {24.55852716280593, -1.806385057568903, 0};
Point(p18 + 23) = {24.6412736499294, -2.006152749021105, 0};
Point(p18 + 24) = {24.7542519424311, -2.190516566248936, 0};
Point(p18 + 25) = {24.89468013979619, -2.354936860203815, 0};
Point(p18 + 26) = {25.05910043375106, -2.495365057568902, 0};
Point(p18 + 27) = {25.24346425097889, -2.608343350070603, 0};
Point(p18 + 28) = {25.4432319424311, -2.691089837194069, 0};
Point(p18 + 29) = {25.65348456455316, -2.741567025806476, 0};
Point(p18 + 30) = {25.869045, -2.758532, 0};
Point(p18 + 31) = {26.08460543544684, -2.741567025806476, 0};
Point(p18 + 32) = {26.2948580575689, -2.69108983719407, 0};
Point(p18 + 33) = {26.4946257490211, -2.608343350070603, 0};
Point(p18 + 34) = {26.67898956624894, -2.495365057568903, 0};
Point(p18 + 35) = {26.84340986020381, -2.354936860203815, 0};
Point(p18 + 36) = {26.9838380575689, -2.190516566248936, 0};
Point(p18 + 37) = {27.0968163500706, -2.006152749021106, 0};
Point(p18 + 38) = {27.17956283719407, -1.806385057568903, 0};
Point(p18 + 39) = {27.23004002580647, -1.596132435446837, 0};
Spline(18) = {12, p18 + 1, p18 + 2, p18 + 3, p18 + 4, p18 + 5, p18 + 6, p18 + 7, p18 + 8, p18 + 9, p18 + 10, p18 + 11, p18 + 12, p18 + 13, p18 + 14, p18 + 15, p18 + 16, p18 + 17, p18 + 18, p18 + 19, p18 + 20, p18 + 21, p18 + 22, p18 + 23, p18 + 24, p18 + 25, p18 + 26, p18 + 27, p18 + 28, p18 + 29, p18 + 30, p18 + 31, p18 + 32, p18 + 33, p18 + 34, p18 + 35, p18 + 36, p18 + 37, p18 + 38, p18 + 39, 12};
Line(19) = {14, 13};
Line(20) = {13, 15};
Line(21) = {16, 15};
Line(22) = {14, 16};
Line(23) = {14, 17};
Line(24) = {17, 18};
Line(25) = {13, 18};
Line(26) = {15, 19};
Line(27) = {18, 19};
Line(28) = {16, 20};
Line(29) = {20, 19};
Line(30) = {17, 20};
Curve Loop(7) = {-13, -14, 15, 14};
Surface(7) = {7};
Curve Loop(8) = {13};
Plane Surface(8) = {8};
Curve Loop(9) = {15};
Plane Surface(9) = {9};
Curve Loop(10) = {-16, -17, 18, 17};
Surface(10) = {10};
Curve Loop(11) = {16};
Plane Surface(11) = {11};
Curve Loop(12) = {18};
Plane Surface(12) = {12};
Curve Loop(13) = {-19, 22, 21, -20};
Plane Surface(13) = {13};
Curve Loop(14) = {-23, 19, 25, -24};
Plane Surface(14) = {14};
Curve Loop(15) = {-20, 25, 27, -26};
Plane Surface(15) = {15};
Curve Loop(16) = {-28, 21, 26, -29};
Plane Surface(16) = {16};
Curve Loop(17) = {-22, 23, 30, -28, -18, -15};
Plane Surface(17) = {17};
Curve Loop(18) = {-24, 30, 29, -27};
Plane Surface(18) = {18};
Surface Loop(1) = {13, 14, 15, 16, 17, 18, 10, 7, 11, 8};
Volume(1) = {1};
Surface Loop(2) = {7, 8, 9};
Volume(2) = {2};
Surface Loop(3) = {10, 11, 12};
Volume(3) = {3};
Physical Surface("WALLS") = {13, 18};
Physical Surface("LOAD") = {8, 11};
Physical Surface("BORDER") = {7, 9, 10, 12, 14, 15, 16, 17};
Physical Volume("SOLID") = {1, 2, 3};
