cl__1 = 0.11427;
cl__2 = 0.050611;
cl__3 = 1.549607;
cl__4 = 2.227821;
cl__5 = 0.806964;
cl__6 = 0.729789;
Point(9) = {31.936874, 1.014806, 0.1, cl__1};
Point(10) = {31.936874, 1.014806, 0, cl__1};
Point(11) = {12.131981, -1.431207, 0.1, cl__2};
Point(12) = {12.131981, -1.431207, 0, cl__2};
Point(13) = {0.845373, -4.100064, 1, cl__3};
Point(14) = {0.845373, -4.100064, 0, cl__3};
Point(15) = {0.845373, 4.835186, 1, cl__4};
Point(16) = {0.845373, 4.835186, 0, cl__4};
Point(17) = {37.62605600000001, -4.100064, 0, cl__5};
Point(18) = {37.62605600000001, -4.100064, 1, cl__5};
Point(19) = {37.62605600000001, 4.835186, 1, cl__6};
Point(20) = {37.62605600000001, 4.835186, 0, cl__6};
p13 = newp;
Point(p13 + 1) = {31.92280547910972, 1.193563506767007, 0.1};
Point(p13 + 2) = {31.88094633011395, 1.367919410455258, 0.1};
Point(p13 + 3) = {31.81232726418352, 1.53358049006188, 0.1};
Point(p13 + 4) = {31.71863791045526, 1.686467620009357, 0.1};
Point(p13 + 5) = {31.60218521175508, 1.822816211755087, 0.1};
Point(p13 + 6) = {31.46583662000936, 1.939268910455258, 0.1};
Point(p13 + 7) = {31.31294949006188, 2.032958264183524, 0.1};
Point(p13 + 8) = {31.14728841045526, 2.101577330113956, 0.1};
Point(p13 + 9) = {30.97293250676701, 2.143436479109723, 0.1};
Point(p13 + 10) = {30.794175, 2.157505, 0.1};
Point(p13 + 11) = {30.61541749323299, 2.143436479109723, 0.1};
Point(p13 + 12) = {30.44106158954474, 2.101577330113956, 0.1};
Point(p13 + 13) = {30.27540050993812, 2.032958264183524, 0.1};
Point(p13 + 14) = {30.12251337999064, 1.939268910455258, 0.1};
Point(p13 + 15) = {29.98616478824491, 1.822816211755087, 0.1};
Point(p13 + 16) = {29.86971208954474, 1.686467620009357, 0.1};
Point(p13 + 17) = {29.77602273581648, 1.533580490061881, 0.1};
Point(p13 + 18) = {29.70740366988604, 1.367919410455258, 0.1};
Point(p13 + 19) = {29.66554452089028, 1.193563506767007, 0.1};
Point(p13 + 20) = {29.651476, 1.014806, 0.1};
Point(p13 + 21) = {29.66554452089028, 0.8360484932329935, 0.1};
Point(p13 + 22) = {29.70740366988604, 0.6616925895447417, 0.1};
Point(p13 + 23) = {29.77602273581648, 0.4960315099381203, 0.1};
Point(p13 + 24) = {29.86971208954474, 0.3431443799906435, 0.1};
Point(p13 + 25) = {29.98616478824491, 0.2067957882449135, 0.1};
Point(p13 + 26) = {30.12251337999064, 0.09034308954474224, 0.1};
Point(p13 + 27) = {30.27540050993812, -0.003346264183523573, 0.1};
Point(p13 + 28) = {30.44106158954474, -0.07196533011395556, 0.1};
Point(p13 + 29) = {30.61541749323299, -0.1138244791097229, 0.1};
Point(p13 + 30) = {30.794175, -0.1278929999999998, 0.1};
Point(p13 + 31) = {30.97293250676701, -0.1138244791097232, 0.1};
Point(p13 + 32) = {31.14728841045526, -0.07196533011395556, 0.1};
Point(p13 + 33) = {31.31294949006188, -0.003346264183523795, 0.1};
Point(p13 + 34) = {31.46583662000936, 0.09034308954474202, 0.1};
Point(p13 + 35) = {31.60218521175508, 0.2067957882449133, 0.1};
Point(p13 + 36) = {31.71863791045526, 0.3431443799906433, 0.1};
Point(p13 + 37) = {31.81232726418352, 0.4960315099381195, 0.1};
Point(p13 + 38) = {31.88094633011395, 0.6616925895447419, 0.1};
Point(p13 + 39) = {31.92280547910972, 0.836048493232993, 0.1};
Spline(13) = {9, p13 + 1, p13 + 2, p13 + 3, p13 + 4, p13 + 5, p13 + 6, p13 + 7, p13 + 8, p13 + 9, p13 + 10, p13 + 11, p13 + 12, p13 + 13, p13 + 14, p13 + 15, p13 + 16, p13 + 17, p13 + 18, p13 + 19, p13 + 20, p13 + 21, p13 + 22, p13 + 23, p13 + 24, p13 + 25, p13 + 26, p13 + 27, p13 + 28, p13 + 29, p13 + 30, p13 + 31, p13 + 32, p13 + 33, p13 + 34, p13 + 35, p13 + 36, p13 + 37, p13 + 38, p13 + 39, 9};
Line(14) = {10, 9};
p15 = newp;
Point(p15 + 1) = {31.92280547910972, 1.193563506767007, 0};
Point(p15 + 2) = {31.88094633011395, 1.367919410455258, 0};
Point(p15 + 3) = {31.81232726418352, 1.53358049006188, 0};
Point(p15 + 4) = {31.71863791045526, 1.686467620009357, 0};
Point(p15 + 5) = {31.60218521175508, 1.822816211755087, 0};
Point(p15 + 6) = {31.46583662000936, 1.939268910455258, 0};
Point(p15 + 7) = {31.31294949006188, 2.032958264183524, 0};
Point(p15 + 8) = {31.14728841045526, 2.101577330113956, 0};
Point(p15 + 9) = {30.97293250676701, 2.143436479109723, 0};
Point(p15 + 10) = {30.794175, 2.157505, 0};
Point(p15 + 11) = {30.61541749323299, 2.143436479109723, 0};
Point(p15 + 12) = {30.44106158954474, 2.101577330113956, 0};
Point(p15 + 13) = {30.27540050993812, 2.032958264183524, 0};
Point(p15 + 14) = {30.12251337999064, 1.939268910455258, 0};
Point(p15 + 15) = {29.98616478824491, 1.822816211755087, 0};
Point(p15 + 16) = {29.86971208954474, 1.686467620009357, 0};
Point(p15 + 17) = {29.77602273581648, 1.533580490061881, 0};
Point(p15 + 18) = {29.70740366988604, 1.367919410455258, 0};
Point(p15 + 19) = {29.66554452089028, 1.193563506767007, 0};
Point(p15 + 20) = {29.651476, 1.014806, 0};
Point(p15 + 21) = {29.66554452089028, 0.8360484932329935, 0};
Point(p15 + 22) = {29.70740366988604, 0.6616925895447417, 0};
Point(p15 + 23) = {29.77602273581648, 0.4960315099381203, 0};
Point(p15 + 24) = {29.86971208954474, 0.3431443799906435, 0};
Point(p15 + 25) = {29.98616478824491, 0.2067957882449135, 0};
Point(p15 + 26) = {30.12251337999064, 0.09034308954474224, 0};
Point(p15 + 27) = {30.27540050993812, -0.003346264183523573, 0};
Point(p15 + 28) = {30.44106158954474, -0.07196533011395556, 0};
Point(p15 + 29) = {30.61541749323299, -0.1138244791097229, 0};
Point(p15 + 30) = {30.794175, -0.1278929999999998, 0};
Point(p15 + 31) = {30.97293250676701, -0.1138244791097232, 0};
Point(p15 + 32) = {31.14728841045526, -0.07196533011395556, 0};
Point(p15 + 33) = {31.31294949006188, -0.003346264183523795, 0};
Point(p15 + 34) = {31.46583662000936, 0.09034308954474202, 0};
Point(p15 + 35) = {31.60218521175508, 0.2067957882449133, 0};
Point(p15 + 36) = {31.71863791045526, 0.3431443799906433, 0};
Point(p15 + 37) = {31.81232726418352, 0.4960315099381195, 0};
Point(p15 + 38) = {31.88094633011395, 0.6616925895447419, 0};
Point(p15 + 39) = {31.92280547910972, 0.836048493232993, 0};
Spline(15) = {10, p15 + 1, p15 + 2, p15 + 3, p15 + 4, p15 + 5, p15 + 6, p15 + 7, p15 + 8, p15 + 9, p15 + 10, p15 + 11, p15 + 12, p15 + 13, p15 + 14, p15 + 15, p15 + 16, p15 + 17, p15 + 18, p15 + 19, p15 + 20, p15 + 21, p15 + 22, p15 + 23, p15 + 24, p15 + 25, p15 + 26, p15 + 27, p15 + 28, p15 + 29, p15 + 30, p15 + 31, p15 + 32, p15 + 33, p15 + 34, p15 + 35, p15 + 36, p15 + 37, p15 + 38, p15 + 39, 10};
p16 = newp;
Point(p16 + 1) = {12.12574999530524, -1.352034578636349, 0.1};
Point(p16 + 2) = {12.10721040923608, -1.274811645044873, 0.1};
Point(p16 + 3) = {12.07681874793088, -1.201439684138817, 0.1};
Point(p16 + 4) = {12.03532335495513, -1.133725357103265, 0.1};
Point(p16 + 5) = {11.9837459845992, -1.073336015400801, 0.1};
Point(p16 + 6) = {11.92335664289674, -1.021758645044873, 0.1};
Point(p16 + 7) = {11.85564231586118, -0.9802632520691219, 0.1};
Point(p16 + 8) = {11.78227035495513, -0.949871590763925, 0.1};
Point(p16 + 9) = {11.70504742136365, -0.9313320046947571, 0.1};
Point(p16 + 10) = {11.625875, -0.925101, 0.1};
Point(p16 + 11) = {11.54670257863635, -0.9313320046947572, 0.1};
Point(p16 + 12) = {11.46947964504487, -0.9498715907639249, 0.1};
Point(p16 + 13) = {11.39610768413882, -0.9802632520691219, 0.1};
Point(p16 + 14) = {11.32839335710327, -1.021758645044873, 0.1};
Point(p16 + 15) = {11.2680040154008, -1.073336015400801, 0.1};
Point(p16 + 16) = {11.21642664504487, -1.133725357103265, 0.1};
Point(p16 + 17) = {11.17493125206912, -1.201439684138817, 0.1};
Point(p16 + 18) = {11.14453959076392, -1.274811645044873, 0.1};
Point(p16 + 19) = {11.12600000469476, -1.352034578636349, 0.1};
Point(p16 + 20) = {11.119769, -1.431207, 0.1};
Point(p16 + 21) = {11.12600000469476, -1.510379421363651, 0.1};
Point(p16 + 22) = {11.14453959076393, -1.587602354955127, 0.1};
Point(p16 + 23) = {11.17493125206912, -1.660974315861183, 0.1};
Point(p16 + 24) = {11.21642664504487, -1.728688642896734, 0.1};
Point(p16 + 25) = {11.2680040154008, -1.789077984599199, 0.1};
Point(p16 + 26) = {11.32839335710327, -1.840655354955127, 0.1};
Point(p16 + 27) = {11.39610768413882, -1.882150747930878, 0.1};
Point(p16 + 28) = {11.46947964504487, -1.912542409236075, 0.1};
Point(p16 + 29) = {11.54670257863635, -1.931081995305242, 0.1};
Point(p16 + 30) = {11.625875, -1.937313, 0.1};
Point(p16 + 31) = {11.70504742136365, -1.931081995305243, 0.1};
Point(p16 + 32) = {11.78227035495513, -1.912542409236075, 0.1};
Point(p16 + 33) = {11.85564231586118, -1.882150747930878, 0.1};
Point(p16 + 34) = {11.92335664289674, -1.840655354955127, 0.1};
Point(p16 + 35) = {11.9837459845992, -1.789077984599199, 0.1};
Point(p16 + 36) = {12.03532335495513, -1.728688642896734, 0.1};
Point(p16 + 37) = {12.07681874793088, -1.660974315861183, 0.1};
Point(p16 + 38) = {12.10721040923608, -1.587602354955127, 0.1};
Point(p16 + 39) = {12.12574999530524, -1.510379421363651, 0.1};
Spline(16) = {11, p16 + 1, p16 + 2, p16 + 3, p16 + 4, p16 + 5, p16 + 6, p16 + 7, p16 + 8, p16 + 9, p16 + 10, p16 + 11, p16 + 12, p16 + 13, p16 + 14, p16 + 15, p16 + 16, p16 + 17, p16 + 18, p16 + 19, p16 + 20, p16 + 21, p16 + 22, p16 + 23, p16 + 24, p16 + 25, p16 + 26, p16 + 27, p16 + 28, p16 + 29, p16 + 30, p16 + 31, p16 + 32, p16 + 33, p16 + 34, p16 + 35, p16 + 36, p16 + 37, p16 + 38, p16 + 39, 11};
Line(17) = {12, 11};
p18 = newp;
Point(p18 + 1) = {12.12574999530524, -1.352034578636349, 0};
Point(p18 + 2) = {12.10721040923608, -1.274811645044873, 0};
Point(p18 + 3) = {12.07681874793088, -1.201439684138817, 0};
Point(p18 + 4) = {12.03532335495513, -1.133725357103265, 0};
Point(p18 + 5) = {11.9837459845992, -1.073336015400801, 0};
Point(p18 + 6) = {11.92335664289674, -1.021758645044873, 0};
Point(p18 + 7) = {11.85564231586118, -0.9802632520691219, 0};
Point(p18 + 8) = {11.78227035495513, -0.949871590763925, 0};
Point(p18 + 9) = {11.70504742136365, -0.9313320046947571, 0};
Point(p18 + 10) = {11.625875, -0.925101, 0};
Point(p18 + 11) = {11.54670257863635, -0.9313320046947572, 0};
Point(p18 + 12) = {11.46947964504487, -0.9498715907639249, 0};
Point(p18 + 13) = {11.39610768413882, -0.9802632520691219, 0};
Point(p18 + 14) = {11.32839335710327, -1.021758645044873, 0};
Point(p18 + 15) = {11.2680040154008, -1.073336015400801, 0};
Point(p18 + 16) = {11.21642664504487, -1.133725357103265, 0};
Point(p18 + 17) = {11.17493125206912, -1.201439684138817, 0};
Point(p18 + 18) = {11.14453959076392, -1.274811645044873, 0};
Point(p18 + 19) = {11.12600000469476, -1.352034578636349, 0};
Point(p18 + 20) = {11.119769, -1.431207, 0};
Point(p18 + 21) = {11.12600000469476, -1.510379421363651, 0};
Point(p18 + 22) = {11.14453959076393, -1.587602354955127, 0};
Point(p18 + 23) = {11.17493125206912, -1.660974315861183, 0};
Point(p18 + 24) = {11.21642664504487, -1.728688642896734, 0};
Point(p18 + 25) = {11.2680040154008, -1.789077984599199, 0};
Point(p18 + 26) = {11.32839335710327, -1.840655354955127, 0};
Point(p18 + 27) = {11.39610768413882, -1.882150747930878, 0};
Point(p18 + 28) = {11.46947964504487, -1.912542409236075, 0};
Point(p18 + 29) = {11.54670257863635, -1.931081995305242, 0};
Point(p18 + 30) = {11.625875, -1.937313, 0};
Point(p18 + 31) = {11.70504742136365, -1.931081995305243, 0};
Point(p18 + 32) = {11.78227035495513, -1.912542409236075, 0};
Point(p18 + 33) = {11.85564231586118, -1.882150747930878, 0};
Point(p18 + 34) = {11.92335664289674, -1.840655354955127, 0};
Point(p18 + 35) = {11.9837459845992, -1.789077984599199, 0};
Point(p18 + 36) = {12.03532335495513, -1.728688642896734, 0};
Point(p18 + 37) = {12.07681874793088, -1.660974315861183, 0};
Point(p18 + 38) = {12.10721040923608, -1.587602354955127, 0};
Point(p18 + 39) = {12.12574999530524, -1.510379421363651, 0};
Spline(18) = {12, p18 + 1, p18 + 2, p18 + 3, p18 + 4, p18 + 5, p18 + 6, p18 + 7, p18 + 8, p18 + 9, p18 + 10, p18 + 11, p18 + 12, p18 + 13, p18 + 14, p18 + 15, p18 + 16, p18 + 17, p18 + 18, p18 + 19, p18 + 20, p18 + 21, p18 + 22, p18 + 23, p18 + 24, p18 + 25, p18 + 26, p18 + 27, p18 + 28, p18 + 29, p18 + 30, p18 + 31, p18 + 32, p18 + 33, p18 + 34, p18 + 35, p18 + 36, p18 + 37, p18 + 38, p18 + 39, 12};
Line(19) = {14, 13};
Line(20) = {13, 15};
Line(21) = {16, 15};
Line(22) = {14, 16};
Line(23) = {14, 17};
Line(24) = {17, 18};
Line(25) = {13, 18};
Line(26) = {15, 19};
Line(27) = {18, 19};
Line(28) = {16, 20};
Line(29) = {20, 19};
Line(30) = {17, 20};
Curve Loop(7) = {-13, -14, 15, 14};
Surface(7) = {7};
Curve Loop(8) = {13};
Plane Surface(8) = {8};
Curve Loop(9) = {15};
Plane Surface(9) = {9};
Curve Loop(10) = {-16, -17, 18, 17};
Surface(10) = {10};
Curve Loop(11) = {16};
Plane Surface(11) = {11};
Curve Loop(12) = {18};
Plane Surface(12) = {12};
Curve Loop(13) = {-19, 22, 21, -20};
Plane Surface(13) = {13};
Curve Loop(14) = {-23, 19, 25, -24};
Plane Surface(14) = {14};
Curve Loop(15) = {-20, 25, 27, -26};
Plane Surface(15) = {15};
Curve Loop(16) = {-28, 21, 26, -29};
Plane Surface(16) = {16};
Curve Loop(17) = {-22, 23, 30, -28, -18, -15};
Plane Surface(17) = {17};
Curve Loop(18) = {-24, 30, 29, -27};
Plane Surface(18) = {18};
Surface Loop(1) = {13, 14, 15, 16, 17, 18, 10, 7, 11, 8};
Volume(1) = {1};
Surface Loop(2) = {7, 8, 9};
Volume(2) = {2};
Surface Loop(3) = {10, 11, 12};
Volume(3) = {3};
Physical Surface("WALLS") = {13, 18};
Physical Surface("LOAD") = {8, 11};
Physical Surface("BORDER") = {7, 9, 10, 12, 14, 15, 16, 17};
Physical Volume("SOLID") = {1, 2, 3};
