cl__1 = 0.118171;
cl__2 = 0.079133;
cl__3 = 2.203154;
cl__4 = 2.171051;
cl__5 = 0.6770620000000001;
cl__6 = 0.726863;
Point(9) = {21.175625, 0.4353579999999997, 0.1, cl__1};
Point(10) = {21.175625, 0.4353579999999997, 0, cl__1};
Point(11) = {24.706194, -0.5872160000000002, 0.1, cl__2};
Point(12) = {24.706194, -0.5872160000000002, 0, cl__2};
Point(13) = {0.575879, -4.528194, 1, cl__3};
Point(14) = {0.575879, -4.528194, 0, cl__3};
Point(15) = {0.575879, 5.013042, 1, cl__4};
Point(16) = {0.575879, 5.013042, 0, cl__4};
Point(17) = {33.760553, -4.528194, 0, cl__5};
Point(18) = {33.760553, -4.528194, 1, cl__5};
Point(19) = {33.760553, 5.013042, 1, cl__6};
Point(20) = {33.760553, 5.013042, 0, cl__6};
p13 = newp;
Point(p13 + 1) = {21.1610761520297, 0.6202186409860864, 0.1};
Point(p13 + 2) = {21.1177878490407, 0.8005273994738022, 0.1};
Point(p13 + 3) = {21.04682599271821, 0.971844475418719, 0.1};
Point(p13 + 4) = {20.9499378994738, 1.129951473842295, 0.1};
Point(p13 + 5) = {20.8295092757163, 1.270955275716299, 0.1};
Point(p13 + 6) = {20.6885054738423, 1.391383899473802, 0.1};
Point(p13 + 7) = {20.53039847541872, 1.488271992718209, 0.1};
Point(p13 + 8) = {20.3590813994738, 1.559233849040695, 0.1};
Point(p13 + 9) = {20.17877264098609, 1.602522152029702, 0.1};
Point(p13 + 10) = {19.993912, 1.617071, 0.1};
Point(p13 + 11) = {19.80905135901391, 1.602522152029702, 0.1};
Point(p13 + 12) = {19.6287426005262, 1.559233849040695, 0.1};
Point(p13 + 13) = {19.45742552458128, 1.488271992718209, 0.1};
Point(p13 + 14) = {19.29931852615771, 1.391383899473802, 0.1};
Point(p13 + 15) = {19.1583147242837, 1.270955275716299, 0.1};
Point(p13 + 16) = {19.0378861005262, 1.129951473842295, 0.1};
Point(p13 + 17) = {18.94099800728179, 0.9718444754187192, 0.1};
Point(p13 + 18) = {18.87003615095931, 0.8005273994738024, 0.1};
Point(p13 + 19) = {18.8267478479703, 0.6202186409860865, 0.1};
Point(p13 + 20) = {18.812199, 0.4353580000000002, 0.1};
Point(p13 + 21) = {18.8267478479703, 0.2504973590139138, 0.1};
Point(p13 + 22) = {18.87003615095931, 0.07018860052619741, 0.1};
Point(p13 + 23) = {18.94099800728179, -0.1011284754187185, 0.1};
Point(p13 + 24) = {19.0378861005262, -0.2592354738422952, 0.1};
Point(p13 + 25) = {19.1583147242837, -0.4002392757162986, 0.1};
Point(p13 + 26) = {19.29931852615771, -0.5206678994738021, 0.1};
Point(p13 + 27) = {19.45742552458128, -0.6175559927182087, 0.1};
Point(p13 + 28) = {19.6287426005262, -0.6885178490406948, 0.1};
Point(p13 + 29) = {19.80905135901391, -0.731806152029702, 0.1};
Point(p13 + 30) = {19.993912, -0.746355, 0.1};
Point(p13 + 31) = {20.17877264098609, -0.731806152029702, 0.1};
Point(p13 + 32) = {20.3590813994738, -0.6885178490406948, 0.1};
Point(p13 + 33) = {20.53039847541872, -0.6175559927182089, 0.1};
Point(p13 + 34) = {20.6885054738423, -0.5206678994738024, 0.1};
Point(p13 + 35) = {20.8295092757163, -0.4002392757162988, 0.1};
Point(p13 + 36) = {20.9499378994738, -0.2592354738422954, 0.1};
Point(p13 + 37) = {21.04682599271821, -0.1011284754187193, 0.1};
Point(p13 + 38) = {21.1177878490407, 0.07018860052619752, 0.1};
Point(p13 + 39) = {21.1610761520297, 0.2504973590139133, 0.1};
Spline(13) = {9, p13 + 1, p13 + 2, p13 + 3, p13 + 4, p13 + 5, p13 + 6, p13 + 7, p13 + 8, p13 + 9, p13 + 10, p13 + 11, p13 + 12, p13 + 13, p13 + 14, p13 + 15, p13 + 16, p13 + 17, p13 + 18, p13 + 19, p13 + 20, p13 + 21, p13 + 22, p13 + 23, p13 + 24, p13 + 25, p13 + 26, p13 + 27, p13 + 28, p13 + 29, p13 + 30, p13 + 31, p13 + 32, p13 + 33, p13 + 34, p13 + 35, p13 + 36, p13 + 37, p13 + 38, p13 + 39, 9};
Line(14) = {10, 9};
p15 = newp;
Point(p15 + 1) = {21.1610761520297, 0.6202186409860864, 0};
Point(p15 + 2) = {21.1177878490407, 0.8005273994738022, 0};
Point(p15 + 3) = {21.04682599271821, 0.971844475418719, 0};
Point(p15 + 4) = {20.9499378994738, 1.129951473842295, 0};
Point(p15 + 5) = {20.8295092757163, 1.270955275716299, 0};
Point(p15 + 6) = {20.6885054738423, 1.391383899473802, 0};
Point(p15 + 7) = {20.53039847541872, 1.488271992718209, 0};
Point(p15 + 8) = {20.3590813994738, 1.559233849040695, 0};
Point(p15 + 9) = {20.17877264098609, 1.602522152029702, 0};
Point(p15 + 10) = {19.993912, 1.617071, 0};
Point(p15 + 11) = {19.80905135901391, 1.602522152029702, 0};
Point(p15 + 12) = {19.6287426005262, 1.559233849040695, 0};
Point(p15 + 13) = {19.45742552458128, 1.488271992718209, 0};
Point(p15 + 14) = {19.29931852615771, 1.391383899473802, 0};
Point(p15 + 15) = {19.1583147242837, 1.270955275716299, 0};
Point(p15 + 16) = {19.0378861005262, 1.129951473842295, 0};
Point(p15 + 17) = {18.94099800728179, 0.9718444754187192, 0};
Point(p15 + 18) = {18.87003615095931, 0.8005273994738024, 0};
Point(p15 + 19) = {18.8267478479703, 0.6202186409860865, 0};
Point(p15 + 20) = {18.812199, 0.4353580000000002, 0};
Point(p15 + 21) = {18.8267478479703, 0.2504973590139138, 0};
Point(p15 + 22) = {18.87003615095931, 0.07018860052619741, 0};
Point(p15 + 23) = {18.94099800728179, -0.1011284754187185, 0};
Point(p15 + 24) = {19.0378861005262, -0.2592354738422952, 0};
Point(p15 + 25) = {19.1583147242837, -0.4002392757162986, 0};
Point(p15 + 26) = {19.29931852615771, -0.5206678994738021, 0};
Point(p15 + 27) = {19.45742552458128, -0.6175559927182087, 0};
Point(p15 + 28) = {19.6287426005262, -0.6885178490406948, 0};
Point(p15 + 29) = {19.80905135901391, -0.731806152029702, 0};
Point(p15 + 30) = {19.993912, -0.746355, 0};
Point(p15 + 31) = {20.17877264098609, -0.731806152029702, 0};
Point(p15 + 32) = {20.3590813994738, -0.6885178490406948, 0};
Point(p15 + 33) = {20.53039847541872, -0.6175559927182089, 0};
Point(p15 + 34) = {20.6885054738423, -0.5206678994738024, 0};
Point(p15 + 35) = {20.8295092757163, -0.4002392757162988, 0};
Point(p15 + 36) = {20.9499378994738, -0.2592354738422954, 0};
Point(p15 + 37) = {21.04682599271821, -0.1011284754187193, 0};
Point(p15 + 38) = {21.1177878490407, 0.07018860052619752, 0};
Point(p15 + 39) = {21.1610761520297, 0.2504973590139133, 0};
Spline(15) = {10, p15 + 1, p15 + 2, p15 + 3, p15 + 4, p15 + 5, p15 + 6, p15 + 7, p15 + 8, p15 + 9, p15 + 10, p15 + 11, p15 + 12, p15 + 13, p15 + 14, p15 + 15, p15 + 16, p15 + 17, p15 + 18, p15 + 19, p15 + 20, p15 + 21, p15 + 22, p15 + 23, p15 + 24, p15 + 25, p15 + 26, p15 + 27, p15 + 28, p15 + 29, p15 + 30, p15 + 31, p15 + 32, p15 + 33, p15 + 34, p15 + 35, p15 + 36, p15 + 37, p15 + 38, p15 + 39, 10};
p16 = newp;
Point(p16 + 1) = {24.69645140225149, -0.463424558345249, 0.1};
Point(p16 + 2) = {24.66746350409636, -0.3426812728242785, 0.1};
Point(p16 + 3) = {24.61994408379251, -0.2279592438506047, 0.1};
Point(p16 + 4) = {24.55506322717572, -0.1220833085181449, 0.1};
Point(p16 + 5) = {24.47441851626313, -0.02766048373686814, 0.1};
Point(p16 + 6) = {24.37999569148186, 0.05298422717572149, 0.1};
Point(p16 + 7) = {24.2741197561494, 0.1178650837925053, 0.1};
Point(p16 + 8) = {24.15939772717572, 0.1653845040963602, 0.1};
Point(p16 + 9) = {24.03865444165475, 0.194372402251491, 0.1};
Point(p16 + 10) = {23.914863, 0.204115, 0.1};
Point(p16 + 11) = {23.79107155834525, 0.1943724022514909, 0.1};
Point(p16 + 12) = {23.67032827282428, 0.1653845040963603, 0.1};
Point(p16 + 13) = {23.5556062438506, 0.1178650837925054, 0.1};
Point(p16 + 14) = {23.44973030851814, 0.0529842271757216, 0.1};
Point(p16 + 15) = {23.35530748373687, -0.02766048373686802, 0.1};
Point(p16 + 16) = {23.27466277282428, -0.1220833085181448, 0.1};
Point(p16 + 17) = {23.2097819162075, -0.2279592438506046, 0.1};
Point(p16 + 18) = {23.16226249590364, -0.3426812728242784, 0.1};
Point(p16 + 19) = {23.13327459774851, -0.4634245583452489, 0.1};
Point(p16 + 20) = {23.123532, -0.5872159999999998, 0.1};
Point(p16 + 21) = {23.13327459774851, -0.7110074416547508, 0.1};
Point(p16 + 22) = {23.16226249590364, -0.8317507271757217, 0.1};
Point(p16 + 23) = {23.20978191620749, -0.9464727561493949, 0.1};
Point(p16 + 24) = {23.27466277282428, -1.052348691481855, 0.1};
Point(p16 + 25) = {23.35530748373687, -1.146771516263132, 0.1};
Point(p16 + 26) = {23.44973030851814, -1.227416227175721, 0.1};
Point(p16 + 27) = {23.5556062438506, -1.292297083792505, 0.1};
Point(p16 + 28) = {23.67032827282428, -1.33981650409636, 0.1};
Point(p16 + 29) = {23.79107155834525, -1.368804402251491, 0.1};
Point(p16 + 30) = {23.914863, -1.378547, 0.1};
Point(p16 + 31) = {24.03865444165475, -1.368804402251491, 0.1};
Point(p16 + 32) = {24.15939772717572, -1.33981650409636, 0.1};
Point(p16 + 33) = {24.2741197561494, -1.292297083792505, 0.1};
Point(p16 + 34) = {24.37999569148186, -1.227416227175722, 0.1};
Point(p16 + 35) = {24.47441851626313, -1.146771516263132, 0.1};
Point(p16 + 36) = {24.55506322717572, -1.052348691481855, 0.1};
Point(p16 + 37) = {24.6199440837925, -0.9464727561493954, 0.1};
Point(p16 + 38) = {24.66746350409636, -0.8317507271757216, 0.1};
Point(p16 + 39) = {24.69645140225149, -0.711007441654751, 0.1};
Spline(16) = {11, p16 + 1, p16 + 2, p16 + 3, p16 + 4, p16 + 5, p16 + 6, p16 + 7, p16 + 8, p16 + 9, p16 + 10, p16 + 11, p16 + 12, p16 + 13, p16 + 14, p16 + 15, p16 + 16, p16 + 17, p16 + 18, p16 + 19, p16 + 20, p16 + 21, p16 + 22, p16 + 23, p16 + 24, p16 + 25, p16 + 26, p16 + 27, p16 + 28, p16 + 29, p16 + 30, p16 + 31, p16 + 32, p16 + 33, p16 + 34, p16 + 35, p16 + 36, p16 + 37, p16 + 38, p16 + 39, 11};
Line(17) = {12, 11};
p18 = newp;
Point(p18 + 1) = {24.69645140225149, -0.463424558345249, 0};
Point(p18 + 2) = {24.66746350409636, -0.3426812728242785, 0};
Point(p18 + 3) = {24.61994408379251, -0.2279592438506047, 0};
Point(p18 + 4) = {24.55506322717572, -0.1220833085181449, 0};
Point(p18 + 5) = {24.47441851626313, -0.02766048373686814, 0};
Point(p18 + 6) = {24.37999569148186, 0.05298422717572149, 0};
Point(p18 + 7) = {24.2741197561494, 0.1178650837925053, 0};
Point(p18 + 8) = {24.15939772717572, 0.1653845040963602, 0};
Point(p18 + 9) = {24.03865444165475, 0.194372402251491, 0};
Point(p18 + 10) = {23.914863, 0.204115, 0};
Point(p18 + 11) = {23.79107155834525, 0.1943724022514909, 0};
Point(p18 + 12) = {23.67032827282428, 0.1653845040963603, 0};
Point(p18 + 13) = {23.5556062438506, 0.1178650837925054, 0};
Point(p18 + 14) = {23.44973030851814, 0.0529842271757216, 0};
Point(p18 + 15) = {23.35530748373687, -0.02766048373686802, 0};
Point(p18 + 16) = {23.27466277282428, -0.1220833085181448, 0};
Point(p18 + 17) = {23.2097819162075, -0.2279592438506046, 0};
Point(p18 + 18) = {23.16226249590364, -0.3426812728242784, 0};
Point(p18 + 19) = {23.13327459774851, -0.4634245583452489, 0};
Point(p18 + 20) = {23.123532, -0.5872159999999998, 0};
Point(p18 + 21) = {23.13327459774851, -0.7110074416547508, 0};
Point(p18 + 22) = {23.16226249590364, -0.8317507271757217, 0};
Point(p18 + 23) = {23.20978191620749, -0.9464727561493949, 0};
Point(p18 + 24) = {23.27466277282428, -1.052348691481855, 0};
Point(p18 + 25) = {23.35530748373687, -1.146771516263132, 0};
Point(p18 + 26) = {23.44973030851814, -1.227416227175721, 0};
Point(p18 + 27) = {23.5556062438506, -1.292297083792505, 0};
Point(p18 + 28) = {23.67032827282428, -1.33981650409636, 0};
Point(p18 + 29) = {23.79107155834525, -1.368804402251491, 0};
Point(p18 + 30) = {23.914863, -1.378547, 0};
Point(p18 + 31) = {24.03865444165475, -1.368804402251491, 0};
Point(p18 + 32) = {24.15939772717572, -1.33981650409636, 0};
Point(p18 + 33) = {24.2741197561494, -1.292297083792505, 0};
Point(p18 + 34) = {24.37999569148186, -1.227416227175722, 0};
Point(p18 + 35) = {24.47441851626313, -1.146771516263132, 0};
Point(p18 + 36) = {24.55506322717572, -1.052348691481855, 0};
Point(p18 + 37) = {24.6199440837925, -0.9464727561493954, 0};
Point(p18 + 38) = {24.66746350409636, -0.8317507271757216, 0};
Point(p18 + 39) = {24.69645140225149, -0.711007441654751, 0};
Spline(18) = {12, p18 + 1, p18 + 2, p18 + 3, p18 + 4, p18 + 5, p18 + 6, p18 + 7, p18 + 8, p18 + 9, p18 + 10, p18 + 11, p18 + 12, p18 + 13, p18 + 14, p18 + 15, p18 + 16, p18 + 17, p18 + 18, p18 + 19, p18 + 20, p18 + 21, p18 + 22, p18 + 23, p18 + 24, p18 + 25, p18 + 26, p18 + 27, p18 + 28, p18 + 29, p18 + 30, p18 + 31, p18 + 32, p18 + 33, p18 + 34, p18 + 35, p18 + 36, p18 + 37, p18 + 38, p18 + 39, 12};
Line(19) = {14, 13};
Line(20) = {13, 15};
Line(21) = {16, 15};
Line(22) = {14, 16};
Line(23) = {14, 17};
Line(24) = {17, 18};
Line(25) = {13, 18};
Line(26) = {15, 19};
Line(27) = {18, 19};
Line(28) = {16, 20};
Line(29) = {20, 19};
Line(30) = {17, 20};
Curve Loop(7) = {-13, -14, 15, 14};
Surface(7) = {7};
Curve Loop(8) = {13};
Plane Surface(8) = {8};
Curve Loop(9) = {15};
Plane Surface(9) = {9};
Curve Loop(10) = {-16, -17, 18, 17};
Surface(10) = {10};
Curve Loop(11) = {16};
Plane Surface(11) = {11};
Curve Loop(12) = {18};
Plane Surface(12) = {12};
Curve Loop(13) = {-19, 22, 21, -20};
Plane Surface(13) = {13};
Curve Loop(14) = {-23, 19, 25, -24};
Plane Surface(14) = {14};
Curve Loop(15) = {-20, 25, 27, -26};
Plane Surface(15) = {15};
Curve Loop(16) = {-28, 21, 26, -29};
Plane Surface(16) = {16};
Curve Loop(17) = {-22, 23, 30, -28, -18, -15};
Plane Surface(17) = {17};
Curve Loop(18) = {-24, 30, 29, -27};
Plane Surface(18) = {18};
Surface Loop(1) = {13, 14, 15, 16, 17, 18, 10, 7, 11, 8};
Volume(1) = {1};
Surface Loop(2) = {7, 8, 9};
Volume(2) = {2};
Surface Loop(3) = {10, 11, 12};
Volume(3) = {3};
Physical Surface("WALLS") = {13, 18};
Physical Surface("LOAD") = {8, 11};
Physical Surface("BORDER") = {7, 9, 10, 12, 14, 15, 16, 17};
Physical Volume("SOLID") = {1, 2, 3};
