cl__1 = 0.122855;
cl__2 = 0.059911;
cl__3 = 0.306603;
cl__4 = 0.320403;
cl__5 = 4.820111;
cl__6 = 4.773672;
Point(9) = {7.492176, 0.005050999999999699, 0.1, cl__1};
Point(10) = {7.492176, 0.005050999999999699, 0, cl__1};
Point(11) = {10.033025, 0.5592109999999999, 0.1, cl__2};
Point(12) = {10.033025, 0.5592109999999999, 0, cl__2};
Point(13) = {0.920098, -3.775576, 1, cl__3};
Point(14) = {0.920098, -3.775576, 0, cl__3};
Point(15) = {0.920098, 4.186379, 1, cl__4};
Point(16) = {0.920098, 4.186379, 0, cl__4};
Point(17) = {39.011749, -3.775576, 0, cl__5};
Point(18) = {39.011749, -3.775576, 1, cl__5};
Point(19) = {39.011749, 4.186379, 1, cl__6};
Point(20) = {39.011749, 4.186379, 0, cl__6};
p13 = newp;
Point(p13 + 1) = {7.477050461591519, 0.1972391877630358, 0.1};
Point(p13 + 2) = {7.432046287320476, 0.3846950645073191, 0.1};
Point(p13 + 3) = {7.358271629317716, 0.5628028444170191, 0.1};
Point(p13 + 4) = {7.257543064507319, 0.7271769228449271, 0.1};
Point(p13 + 5) = {7.132340864453857, 0.8737698644538576, 0.1};
Point(p13 + 6) = {6.985747922844927, 0.998972064507319, 0.1};
Point(p13 + 7) = {6.821373844417019, 1.099700629317716, 0.1};
Point(p13 + 8) = {6.643266064507319, 1.173475287320476, 0.1};
Point(p13 + 9) = {6.455810187763036, 1.218479461591519, 0.1};
Point(p13 + 10) = {6.263622, 1.233605, 0.1};
Point(p13 + 11) = {6.071433812236964, 1.218479461591519, 0.1};
Point(p13 + 12) = {5.88397793549268, 1.173475287320476, 0.1};
Point(p13 + 13) = {5.70587015558298, 1.099700629317716, 0.1};
Point(p13 + 14) = {5.541496077155073, 0.9989720645073191, 0.1};
Point(p13 + 15) = {5.394903135546143, 0.8737698644538577, 0.1};
Point(p13 + 16) = {5.269700935492681, 0.7271769228449272, 0.1};
Point(p13 + 17) = {5.168972370682284, 0.5628028444170192, 0.1};
Point(p13 + 18) = {5.095197712679524, 0.3846950645073193, 0.1};
Point(p13 + 19) = {5.050193538408481, 0.1972391877630359, 0.1};
Point(p13 + 20) = {5.035068, 0.00505100000000015, 0.1};
Point(p13 + 21) = {5.050193538408481, -0.1871371877630356, 0.1};
Point(p13 + 22) = {5.095197712679524, -0.3745930645073196, 0.1};
Point(p13 + 23) = {5.168972370682283, -0.5527008444170185, 0.1};
Point(p13 + 24) = {5.269700935492681, -0.7170749228449268, 0.1};
Point(p13 + 25) = {5.394903135546142, -0.8636678644538576, 0.1};
Point(p13 + 26) = {5.541496077155073, -0.988870064507319, 0.1};
Point(p13 + 27) = {5.70587015558298, -1.089598629317716, 0.1};
Point(p13 + 28) = {5.88397793549268, -1.163373287320476, 0.1};
Point(p13 + 29) = {6.071433812236964, -1.208377461591519, 0.1};
Point(p13 + 30) = {6.263622, -1.223503, 0.1};
Point(p13 + 31) = {6.455810187763035, -1.208377461591519, 0.1};
Point(p13 + 32) = {6.643266064507319, -1.163373287320476, 0.1};
Point(p13 + 33) = {6.821373844417018, -1.089598629317716, 0.1};
Point(p13 + 34) = {6.985747922844927, -0.9888700645073193, 0.1};
Point(p13 + 35) = {7.132340864453857, -0.8636678644538578, 0.1};
Point(p13 + 36) = {7.257543064507319, -0.7170749228449271, 0.1};
Point(p13 + 37) = {7.358271629317716, -0.5527008444170193, 0.1};
Point(p13 + 38) = {7.432046287320476, -0.3745930645073193, 0.1};
Point(p13 + 39) = {7.477050461591519, -0.1871371877630361, 0.1};
Spline(13) = {9, p13 + 1, p13 + 2, p13 + 3, p13 + 4, p13 + 5, p13 + 6, p13 + 7, p13 + 8, p13 + 9, p13 + 10, p13 + 11, p13 + 12, p13 + 13, p13 + 14, p13 + 15, p13 + 16, p13 + 17, p13 + 18, p13 + 19, p13 + 20, p13 + 21, p13 + 22, p13 + 23, p13 + 24, p13 + 25, p13 + 26, p13 + 27, p13 + 28, p13 + 29, p13 + 30, p13 + 31, p13 + 32, p13 + 33, p13 + 34, p13 + 35, p13 + 36, p13 + 37, p13 + 38, p13 + 39, 9};
Line(14) = {10, 9};
p15 = newp;
Point(p15 + 1) = {7.477050461591519, 0.1972391877630358, 0};
Point(p15 + 2) = {7.432046287320476, 0.3846950645073191, 0};
Point(p15 + 3) = {7.358271629317716, 0.5628028444170191, 0};
Point(p15 + 4) = {7.257543064507319, 0.7271769228449271, 0};
Point(p15 + 5) = {7.132340864453857, 0.8737698644538576, 0};
Point(p15 + 6) = {6.985747922844927, 0.998972064507319, 0};
Point(p15 + 7) = {6.821373844417019, 1.099700629317716, 0};
Point(p15 + 8) = {6.643266064507319, 1.173475287320476, 0};
Point(p15 + 9) = {6.455810187763036, 1.218479461591519, 0};
Point(p15 + 10) = {6.263622, 1.233605, 0};
Point(p15 + 11) = {6.071433812236964, 1.218479461591519, 0};
Point(p15 + 12) = {5.88397793549268, 1.173475287320476, 0};
Point(p15 + 13) = {5.70587015558298, 1.099700629317716, 0};
Point(p15 + 14) = {5.541496077155073, 0.9989720645073191, 0};
Point(p15 + 15) = {5.394903135546143, 0.8737698644538577, 0};
Point(p15 + 16) = {5.269700935492681, 0.7271769228449272, 0};
Point(p15 + 17) = {5.168972370682284, 0.5628028444170192, 0};
Point(p15 + 18) = {5.095197712679524, 0.3846950645073193, 0};
Point(p15 + 19) = {5.050193538408481, 0.1972391877630359, 0};
Point(p15 + 20) = {5.035068, 0.00505100000000015, 0};
Point(p15 + 21) = {5.050193538408481, -0.1871371877630356, 0};
Point(p15 + 22) = {5.095197712679524, -0.3745930645073196, 0};
Point(p15 + 23) = {5.168972370682283, -0.5527008444170185, 0};
Point(p15 + 24) = {5.269700935492681, -0.7170749228449268, 0};
Point(p15 + 25) = {5.394903135546142, -0.8636678644538576, 0};
Point(p15 + 26) = {5.541496077155073, -0.988870064507319, 0};
Point(p15 + 27) = {5.70587015558298, -1.089598629317716, 0};
Point(p15 + 28) = {5.88397793549268, -1.163373287320476, 0};
Point(p15 + 29) = {6.071433812236964, -1.208377461591519, 0};
Point(p15 + 30) = {6.263622, -1.223503, 0};
Point(p15 + 31) = {6.455810187763035, -1.208377461591519, 0};
Point(p15 + 32) = {6.643266064507319, -1.163373287320476, 0};
Point(p15 + 33) = {6.821373844417018, -1.089598629317716, 0};
Point(p15 + 34) = {6.985747922844927, -0.9888700645073193, 0};
Point(p15 + 35) = {7.132340864453857, -0.8636678644538578, 0};
Point(p15 + 36) = {7.257543064507319, -0.7170749228449271, 0};
Point(p15 + 37) = {7.358271629317716, -0.5527008444170193, 0};
Point(p15 + 38) = {7.432046287320476, -0.3745930645073193, 0};
Point(p15 + 39) = {7.477050461591519, -0.1871371877630361, 0};
Spline(15) = {10, p15 + 1, p15 + 2, p15 + 3, p15 + 4, p15 + 5, p15 + 6, p15 + 7, p15 + 8, p15 + 9, p15 + 10, p15 + 11, p15 + 12, p15 + 13, p15 + 14, p15 + 15, p15 + 16, p15 + 17, p15 + 18, p15 + 19, p15 + 20, p15 + 21, p15 + 22, p15 + 23, p15 + 24, p15 + 25, p15 + 26, p15 + 27, p15 + 28, p15 + 29, p15 + 30, p15 + 31, p15 + 32, p15 + 33, p15 + 34, p15 + 35, p15 + 36, p15 + 37, p15 + 38, p15 + 39, 10};
p16 = newp;
Point(p16 + 1) = {10.02564901098059, 0.6529318266123926, 0.1};
Point(p16 + 2) = {10.00370266525152, 0.7443449354319973, 0.1};
Point(p16 + 3) = {9.967726354680396, 0.8311994323369609, 0.1};
Point(p16 + 4) = {9.918605935431996, 0.9113566713599344, 0.1};
Point(p16 + 5) = {9.857550915249547, 0.9828429152495477, 0.1};
Point(p16 + 6) = {9.786064671359934, 1.043897935431997, 0.1};
Point(p16 + 7) = {9.705907432336961, 1.093018354680396, 0.1};
Point(p16 + 8) = {9.619052935431997, 1.128994665251524, 0.1};
Point(p16 + 9) = {9.527639826612392, 1.150941010980591, 0.1};
Point(p16 + 10) = {9.433918999999999, 1.158317, 0.1};
Point(p16 + 11) = {9.340198173387607, 1.150941010980591, 0.1};
Point(p16 + 12) = {9.248785064568002, 1.128994665251524, 0.1};
Point(p16 + 13) = {9.161930567663038, 1.093018354680396, 0.1};
Point(p16 + 14) = {9.081773328640065, 1.043897935431997, 0.1};
Point(p16 + 15) = {9.010287084750452, 0.9828429152495478, 0.1};
Point(p16 + 16) = {8.949232064568003, 0.9113566713599346, 0.1};
Point(p16 + 17) = {8.900111645319603, 0.8311994323369609, 0.1};
Point(p16 + 18) = {8.864135334748475, 0.7443449354319973, 0.1};
Point(p16 + 19) = {8.842188989019409, 0.6529318266123927, 0.1};
Point(p16 + 20) = {8.834812999999999, 0.5592110000000001, 0.1};
Point(p16 + 21) = {8.842188989019409, 0.4654901733876075, 0.1};
Point(p16 + 22) = {8.864135334748475, 0.3740770645680026, 0.1};
Point(p16 + 23) = {8.900111645319603, 0.2872225676630394, 0.1};
Point(p16 + 24) = {8.949232064568003, 0.2070653286400657, 0.1};
Point(p16 + 25) = {9.010287084750452, 0.1355790847504523, 0.1};
Point(p16 + 26) = {9.081773328640065, 0.07452406456800281, 0.1};
Point(p16 + 27) = {9.161930567663038, 0.02540364531960371, 0.1};
Point(p16 + 28) = {9.248785064568002, -0.01057266525152423, 0.1};
Point(p16 + 29) = {9.340198173387607, -0.03251901098059051, 0.1};
Point(p16 + 30) = {9.433918999999999, -0.03989500000000001, 0.1};
Point(p16 + 31) = {9.527639826612392, -0.03251901098059062, 0.1};
Point(p16 + 32) = {9.619052935431997, -0.01057266525152434, 0.1};
Point(p16 + 33) = {9.705907432336961, 0.0254036453196036, 0.1};
Point(p16 + 34) = {9.786064671359934, 0.07452406456800265, 0.1};
Point(p16 + 35) = {9.857550915249547, 0.1355790847504522, 0.1};
Point(p16 + 36) = {9.918605935431996, 0.2070653286400655, 0.1};
Point(p16 + 37) = {9.967726354680396, 0.287222567663039, 0.1};
Point(p16 + 38) = {10.00370266525152, 0.3740770645680026, 0.1};
Point(p16 + 39) = {10.02564901098059, 0.4654901733876073, 0.1};
Spline(16) = {11, p16 + 1, p16 + 2, p16 + 3, p16 + 4, p16 + 5, p16 + 6, p16 + 7, p16 + 8, p16 + 9, p16 + 10, p16 + 11, p16 + 12, p16 + 13, p16 + 14, p16 + 15, p16 + 16, p16 + 17, p16 + 18, p16 + 19, p16 + 20, p16 + 21, p16 + 22, p16 + 23, p16 + 24, p16 + 25, p16 + 26, p16 + 27, p16 + 28, p16 + 29, p16 + 30, p16 + 31, p16 + 32, p16 + 33, p16 + 34, p16 + 35, p16 + 36, p16 + 37, p16 + 38, p16 + 39, 11};
Line(17) = {12, 11};
p18 = newp;
Point(p18 + 1) = {10.02564901098059, 0.6529318266123926, 0};
Point(p18 + 2) = {10.00370266525152, 0.7443449354319973, 0};
Point(p18 + 3) = {9.967726354680396, 0.8311994323369609, 0};
Point(p18 + 4) = {9.918605935431996, 0.9113566713599344, 0};
Point(p18 + 5) = {9.857550915249547, 0.9828429152495477, 0};
Point(p18 + 6) = {9.786064671359934, 1.043897935431997, 0};
Point(p18 + 7) = {9.705907432336961, 1.093018354680396, 0};
Point(p18 + 8) = {9.619052935431997, 1.128994665251524, 0};
Point(p18 + 9) = {9.527639826612392, 1.150941010980591, 0};
Point(p18 + 10) = {9.433918999999999, 1.158317, 0};
Point(p18 + 11) = {9.340198173387607, 1.150941010980591, 0};
Point(p18 + 12) = {9.248785064568002, 1.128994665251524, 0};
Point(p18 + 13) = {9.161930567663038, 1.093018354680396, 0};
Point(p18 + 14) = {9.081773328640065, 1.043897935431997, 0};
Point(p18 + 15) = {9.010287084750452, 0.9828429152495478, 0};
Point(p18 + 16) = {8.949232064568003, 0.9113566713599346, 0};
Point(p18 + 17) = {8.900111645319603, 0.8311994323369609, 0};
Point(p18 + 18) = {8.864135334748475, 0.7443449354319973, 0};
Point(p18 + 19) = {8.842188989019409, 0.6529318266123927, 0};
Point(p18 + 20) = {8.834812999999999, 0.5592110000000001, 0};
Point(p18 + 21) = {8.842188989019409, 0.4654901733876075, 0};
Point(p18 + 22) = {8.864135334748475, 0.3740770645680026, 0};
Point(p18 + 23) = {8.900111645319603, 0.2872225676630394, 0};
Point(p18 + 24) = {8.949232064568003, 0.2070653286400657, 0};
Point(p18 + 25) = {9.010287084750452, 0.1355790847504523, 0};
Point(p18 + 26) = {9.081773328640065, 0.07452406456800281, 0};
Point(p18 + 27) = {9.161930567663038, 0.02540364531960371, 0};
Point(p18 + 28) = {9.248785064568002, -0.01057266525152423, 0};
Point(p18 + 29) = {9.340198173387607, -0.03251901098059051, 0};
Point(p18 + 30) = {9.433918999999999, -0.03989500000000001, 0};
Point(p18 + 31) = {9.527639826612392, -0.03251901098059062, 0};
Point(p18 + 32) = {9.619052935431997, -0.01057266525152434, 0};
Point(p18 + 33) = {9.705907432336961, 0.0254036453196036, 0};
Point(p18 + 34) = {9.786064671359934, 0.07452406456800265, 0};
Point(p18 + 35) = {9.857550915249547, 0.1355790847504522, 0};
Point(p18 + 36) = {9.918605935431996, 0.2070653286400655, 0};
Point(p18 + 37) = {9.967726354680396, 0.287222567663039, 0};
Point(p18 + 38) = {10.00370266525152, 0.3740770645680026, 0};
Point(p18 + 39) = {10.02564901098059, 0.4654901733876073, 0};
Spline(18) = {12, p18 + 1, p18 + 2, p18 + 3, p18 + 4, p18 + 5, p18 + 6, p18 + 7, p18 + 8, p18 + 9, p18 + 10, p18 + 11, p18 + 12, p18 + 13, p18 + 14, p18 + 15, p18 + 16, p18 + 17, p18 + 18, p18 + 19, p18 + 20, p18 + 21, p18 + 22, p18 + 23, p18 + 24, p18 + 25, p18 + 26, p18 + 27, p18 + 28, p18 + 29, p18 + 30, p18 + 31, p18 + 32, p18 + 33, p18 + 34, p18 + 35, p18 + 36, p18 + 37, p18 + 38, p18 + 39, 12};
Line(19) = {14, 13};
Line(20) = {13, 15};
Line(21) = {16, 15};
Line(22) = {14, 16};
Line(23) = {14, 17};
Line(24) = {17, 18};
Line(25) = {13, 18};
Line(26) = {15, 19};
Line(27) = {18, 19};
Line(28) = {16, 20};
Line(29) = {20, 19};
Line(30) = {17, 20};
Curve Loop(7) = {-13, -14, 15, 14};
Surface(7) = {7};
Curve Loop(8) = {13};
Plane Surface(8) = {8};
Curve Loop(9) = {15};
Plane Surface(9) = {9};
Curve Loop(10) = {-16, -17, 18, 17};
Surface(10) = {10};
Curve Loop(11) = {16};
Plane Surface(11) = {11};
Curve Loop(12) = {18};
Plane Surface(12) = {12};
Curve Loop(13) = {-19, 22, 21, -20};
Plane Surface(13) = {13};
Curve Loop(14) = {-23, 19, 25, -24};
Plane Surface(14) = {14};
Curve Loop(15) = {-20, 25, 27, -26};
Plane Surface(15) = {15};
Curve Loop(16) = {-28, 21, 26, -29};
Plane Surface(16) = {16};
Curve Loop(17) = {-22, 23, 30, -28, -15, -18};
Plane Surface(17) = {17};
Curve Loop(18) = {-24, 30, 29, -27};
Plane Surface(18) = {18};
Surface Loop(1) = {13, 14, 15, 16, 17, 18, 7, 10, 8, 11};
Volume(1) = {1};
Surface Loop(2) = {7, 8, 9};
Volume(2) = {2};
Surface Loop(3) = {10, 11, 12};
Volume(3) = {3};
Physical Surface("WALLS") = {13, 18};
Physical Surface("LOAD") = {8, 11};
Physical Surface("BORDER") = {7, 9, 10, 12, 14, 15, 16, 17};
Physical Volume("SOLID") = {1, 2, 3};
