cl__1 = 0.07954799999999999;
cl__2 = 0.059448;
cl__3 = 0.745069;
cl__4 = 1.034432;
cl__5 = 1.328383;
cl__6 = 1.498387;
Point(9) = {33.676118, 0.2007629999999998, 0.1, cl__1};
Point(10) = {33.676118, 0.2007629999999998, 0, cl__1};
Point(11) = {4.799897, -0.6528040000000003, 0.1, cl__2};
Point(12) = {4.799897, -0.6528040000000003, 0, cl__2};
Point(13) = {0.290703, -3.909659, 1, cl__3};
Point(14) = {0.290703, -3.909659, 0, cl__3};
Point(15) = {0.290703, 4.784369, 1, cl__4};
Point(16) = {0.290703, 4.784369, 0, cl__4};
Point(17) = {39.072077, -3.909659, 0, cl__5};
Point(18) = {39.072077, -3.909659, 1, cl__5};
Point(19) = {39.072077, 4.784369, 1, cl__6};
Point(20) = {39.072077, 4.784369, 0, cl__6};
p13 = newp;
Point(p13 + 1) = {33.66632429655331, 0.3252038011191329, 0.1};
Point(p13 + 2) = {33.6371843396955, 0.4465804567193719, 0.1};
Point(p13 + 3) = {33.58941565187441, 0.5619042707138141, 0.1};
Point(p13 + 4) = {33.52419445671937, 0.6683355880641211, 0.1};
Point(p13 + 5) = {33.44312671651184, 0.7632537165118372, 0.1};
Point(p13 + 6) = {33.34820858806413, 0.8443214567193719, 0.1};
Point(p13 + 7) = {33.24177727071382, 0.9095426518744112, 0.1};
Point(p13 + 8) = {33.12645345671937, 0.9573113396955014, 0.1};
Point(p13 + 9) = {33.00507680111914, 0.9864512965533014, 0.1};
Point(p13 + 10) = {32.880636, 0.996245, 0.1};
Point(p13 + 11) = {32.75619519888087, 0.9864512965533013, 0.1};
Point(p13 + 12) = {32.63481854328063, 0.9573113396955014, 0.1};
Point(p13 + 13) = {32.51949472928619, 0.9095426518744113, 0.1};
Point(p13 + 14) = {32.41306341193588, 0.844321456719372, 0.1};
Point(p13 + 15) = {32.31814528348816, 0.7632537165118373, 0.1};
Point(p13 + 16) = {32.23707754328063, 0.6683355880641212, 0.1};
Point(p13 + 17) = {32.17185634812559, 0.5619042707138142, 0.1};
Point(p13 + 18) = {32.1240876603045, 0.446580456719372, 0.1};
Point(p13 + 19) = {32.0949477034467, 0.3252038011191331, 0.1};
Point(p13 + 20) = {32.085154, 0.2007630000000001, 0.1};
Point(p13 + 21) = {32.0949477034467, 0.07632219888086715, 0.1};
Point(p13 + 22) = {32.1240876603045, -0.04505445671937217, 0.1};
Point(p13 + 23) = {32.17185634812559, -0.1603782707138138, 0.1};
Point(p13 + 24) = {32.23707754328063, -0.266809588064121, 0.1};
Point(p13 + 25) = {32.31814528348816, -0.3617277165118371, 0.1};
Point(p13 + 26) = {32.41306341193588, -0.4427954567193718, 0.1};
Point(p13 + 27) = {32.51949472928619, -0.5080166518744111, 0.1};
Point(p13 + 28) = {32.63481854328063, -0.5557853396955014, 0.1};
Point(p13 + 29) = {32.75619519888087, -0.5849252965533013, 0.1};
Point(p13 + 30) = {32.880636, -0.594719, 0.1};
Point(p13 + 31) = {33.00507680111914, -0.5849252965533014, 0.1};
Point(p13 + 32) = {33.12645345671937, -0.5557853396955014, 0.1};
Point(p13 + 33) = {33.24177727071382, -0.5080166518744114, 0.1};
Point(p13 + 34) = {33.34820858806413, -0.442795456719372, 0.1};
Point(p13 + 35) = {33.44312671651184, -0.3617277165118373, 0.1};
Point(p13 + 36) = {33.52419445671937, -0.2668095880641213, 0.1};
Point(p13 + 37) = {33.58941565187441, -0.1603782707138143, 0.1};
Point(p13 + 38) = {33.6371843396955, -0.04505445671937208, 0.1};
Point(p13 + 39) = {33.66632429655331, 0.07632219888086686, 0.1};
Spline(13) = {9, p13 + 1, p13 + 2, p13 + 3, p13 + 4, p13 + 5, p13 + 6, p13 + 7, p13 + 8, p13 + 9, p13 + 10, p13 + 11, p13 + 12, p13 + 13, p13 + 14, p13 + 15, p13 + 16, p13 + 17, p13 + 18, p13 + 19, p13 + 20, p13 + 21, p13 + 22, p13 + 23, p13 + 24, p13 + 25, p13 + 26, p13 + 27, p13 + 28, p13 + 29, p13 + 30, p13 + 31, p13 + 32, p13 + 33, p13 + 34, p13 + 35, p13 + 36, p13 + 37, p13 + 38, p13 + 39, 9};
Line(14) = {10, 9};
p15 = newp;
Point(p15 + 1) = {33.66632429655331, 0.3252038011191329, 0};
Point(p15 + 2) = {33.6371843396955, 0.4465804567193719, 0};
Point(p15 + 3) = {33.58941565187441, 0.5619042707138141, 0};
Point(p15 + 4) = {33.52419445671937, 0.6683355880641211, 0};
Point(p15 + 5) = {33.44312671651184, 0.7632537165118372, 0};
Point(p15 + 6) = {33.34820858806413, 0.8443214567193719, 0};
Point(p15 + 7) = {33.24177727071382, 0.9095426518744112, 0};
Point(p15 + 8) = {33.12645345671937, 0.9573113396955014, 0};
Point(p15 + 9) = {33.00507680111914, 0.9864512965533014, 0};
Point(p15 + 10) = {32.880636, 0.996245, 0};
Point(p15 + 11) = {32.75619519888087, 0.9864512965533013, 0};
Point(p15 + 12) = {32.63481854328063, 0.9573113396955014, 0};
Point(p15 + 13) = {32.51949472928619, 0.9095426518744113, 0};
Point(p15 + 14) = {32.41306341193588, 0.844321456719372, 0};
Point(p15 + 15) = {32.31814528348816, 0.7632537165118373, 0};
Point(p15 + 16) = {32.23707754328063, 0.6683355880641212, 0};
Point(p15 + 17) = {32.17185634812559, 0.5619042707138142, 0};
Point(p15 + 18) = {32.1240876603045, 0.446580456719372, 0};
Point(p15 + 19) = {32.0949477034467, 0.3252038011191331, 0};
Point(p15 + 20) = {32.085154, 0.2007630000000001, 0};
Point(p15 + 21) = {32.0949477034467, 0.07632219888086715, 0};
Point(p15 + 22) = {32.1240876603045, -0.04505445671937217, 0};
Point(p15 + 23) = {32.17185634812559, -0.1603782707138138, 0};
Point(p15 + 24) = {32.23707754328063, -0.266809588064121, 0};
Point(p15 + 25) = {32.31814528348816, -0.3617277165118371, 0};
Point(p15 + 26) = {32.41306341193588, -0.4427954567193718, 0};
Point(p15 + 27) = {32.51949472928619, -0.5080166518744111, 0};
Point(p15 + 28) = {32.63481854328063, -0.5557853396955014, 0};
Point(p15 + 29) = {32.75619519888087, -0.5849252965533013, 0};
Point(p15 + 30) = {32.880636, -0.594719, 0};
Point(p15 + 31) = {33.00507680111914, -0.5849252965533014, 0};
Point(p15 + 32) = {33.12645345671937, -0.5557853396955014, 0};
Point(p15 + 33) = {33.24177727071382, -0.5080166518744114, 0};
Point(p15 + 34) = {33.34820858806413, -0.442795456719372, 0};
Point(p15 + 35) = {33.44312671651184, -0.3617277165118373, 0};
Point(p15 + 36) = {33.52419445671937, -0.2668095880641213, 0};
Point(p15 + 37) = {33.58941565187441, -0.1603782707138143, 0};
Point(p15 + 38) = {33.6371843396955, -0.04505445671937208, 0};
Point(p15 + 39) = {33.66632429655331, 0.07632219888086686, 0};
Spline(15) = {10, p15 + 1, p15 + 2, p15 + 3, p15 + 4, p15 + 5, p15 + 6, p15 + 7, p15 + 8, p15 + 9, p15 + 10, p15 + 11, p15 + 12, p15 + 13, p15 + 14, p15 + 15, p15 + 16, p15 + 17, p15 + 18, p15 + 19, p15 + 20, p15 + 21, p15 + 22, p15 + 23, p15 + 24, p15 + 25, p15 + 26, p15 + 27, p15 + 28, p15 + 29, p15 + 30, p15 + 31, p15 + 32, p15 + 33, p15 + 34, p15 + 35, p15 + 36, p15 + 37, p15 + 38, p15 + 39, 10};
p16 = newp;
Point(p16 + 1) = {4.79257791547036, -0.5598062134850235, 0.1};
Point(p16 + 2) = {4.770800882033209, -0.4690983411160038, 0.1};
Point(p16 + 3) = {4.735102122525598, -0.3829139117528353, 0.1};
Point(p16 + 4) = {4.686360658883997, -0.3033750720761614, 0.1};
Point(p16 + 5) = {4.625776667706903, -0.2324403322930966, 0.1};
Point(p16 + 6) = {4.554841927923839, -0.1718563411160038, 0.1};
Point(p16 + 7) = {4.475303088247164, -0.1231148774744024, 0.1};
Point(p16 + 8) = {4.389118658883996, -0.08741611796679194, 0.1};
Point(p16 + 9) = {4.298410786514976, -0.06563908452964018, 0.1};
Point(p16 + 10) = {4.205413, -0.05832000000000004, 0.1};
Point(p16 + 11) = {4.112415213485023, -0.06563908452964018, 0.1};
Point(p16 + 12) = {4.021707341116004, -0.08741611796679194, 0.1};
Point(p16 + 13) = {3.935522911752835, -0.1231148774744023, 0.1};
Point(p16 + 14) = {3.855984072076161, -0.1718563411160038, 0.1};
Point(p16 + 15) = {3.785049332293096, -0.2324403322930965, 0.1};
Point(p16 + 16) = {3.724465341116004, -0.3033750720761614, 0.1};
Point(p16 + 17) = {3.675723877474403, -0.3829139117528353, 0.1};
Point(p16 + 18) = {3.640025117966792, -0.4690983411160038, 0.1};
Point(p16 + 19) = {3.61824808452964, -0.5598062134850234, 0.1};
Point(p16 + 20) = {3.610929, -0.6528039999999999, 0.1};
Point(p16 + 21) = {3.61824808452964, -0.7458017865149766, 0.1};
Point(p16 + 22) = {3.640025117966792, -0.8365096588839964, 0.1};
Point(p16 + 23) = {3.675723877474402, -0.9226940882471645, 0.1};
Point(p16 + 24) = {3.724465341116004, -1.002232927923839, 0.1};
Point(p16 + 25) = {3.785049332293096, -1.073167667706904, 0.1};
Point(p16 + 26) = {3.855984072076161, -1.133751658883996, 0.1};
Point(p16 + 27) = {3.935522911752835, -1.182493122525598, 0.1};
Point(p16 + 28) = {4.021707341116004, -1.218191882033208, 0.1};
Point(p16 + 29) = {4.112415213485023, -1.23996891547036, 0.1};
Point(p16 + 30) = {4.205413, -1.247288, 0.1};
Point(p16 + 31) = {4.298410786514976, -1.23996891547036, 0.1};
Point(p16 + 32) = {4.389118658883996, -1.218191882033208, 0.1};
Point(p16 + 33) = {4.475303088247164, -1.182493122525598, 0.1};
Point(p16 + 34) = {4.554841927923839, -1.133751658883996, 0.1};
Point(p16 + 35) = {4.625776667706903, -1.073167667706904, 0.1};
Point(p16 + 36) = {4.686360658883996, -1.002232927923839, 0.1};
Point(p16 + 37) = {4.735102122525598, -0.9226940882471649, 0.1};
Point(p16 + 38) = {4.770800882033209, -0.8365096588839964, 0.1};
Point(p16 + 39) = {4.79257791547036, -0.7458017865149769, 0.1};
Spline(16) = {11, p16 + 1, p16 + 2, p16 + 3, p16 + 4, p16 + 5, p16 + 6, p16 + 7, p16 + 8, p16 + 9, p16 + 10, p16 + 11, p16 + 12, p16 + 13, p16 + 14, p16 + 15, p16 + 16, p16 + 17, p16 + 18, p16 + 19, p16 + 20, p16 + 21, p16 + 22, p16 + 23, p16 + 24, p16 + 25, p16 + 26, p16 + 27, p16 + 28, p16 + 29, p16 + 30, p16 + 31, p16 + 32, p16 + 33, p16 + 34, p16 + 35, p16 + 36, p16 + 37, p16 + 38, p16 + 39, 11};
Line(17) = {12, 11};
p18 = newp;
Point(p18 + 1) = {4.79257791547036, -0.5598062134850235, 0};
Point(p18 + 2) = {4.770800882033209, -0.4690983411160038, 0};
Point(p18 + 3) = {4.735102122525598, -0.3829139117528353, 0};
Point(p18 + 4) = {4.686360658883997, -0.3033750720761614, 0};
Point(p18 + 5) = {4.625776667706903, -0.2324403322930966, 0};
Point(p18 + 6) = {4.554841927923839, -0.1718563411160038, 0};
Point(p18 + 7) = {4.475303088247164, -0.1231148774744024, 0};
Point(p18 + 8) = {4.389118658883996, -0.08741611796679194, 0};
Point(p18 + 9) = {4.298410786514976, -0.06563908452964018, 0};
Point(p18 + 10) = {4.205413, -0.05832000000000004, 0};
Point(p18 + 11) = {4.112415213485023, -0.06563908452964018, 0};
Point(p18 + 12) = {4.021707341116004, -0.08741611796679194, 0};
Point(p18 + 13) = {3.935522911752835, -0.1231148774744023, 0};
Point(p18 + 14) = {3.855984072076161, -0.1718563411160038, 0};
Point(p18 + 15) = {3.785049332293096, -0.2324403322930965, 0};
Point(p18 + 16) = {3.724465341116004, -0.3033750720761614, 0};
Point(p18 + 17) = {3.675723877474403, -0.3829139117528353, 0};
Point(p18 + 18) = {3.640025117966792, -0.4690983411160038, 0};
Point(p18 + 19) = {3.61824808452964, -0.5598062134850234, 0};
Point(p18 + 20) = {3.610929, -0.6528039999999999, 0};
Point(p18 + 21) = {3.61824808452964, -0.7458017865149766, 0};
Point(p18 + 22) = {3.640025117966792, -0.8365096588839964, 0};
Point(p18 + 23) = {3.675723877474402, -0.9226940882471645, 0};
Point(p18 + 24) = {3.724465341116004, -1.002232927923839, 0};
Point(p18 + 25) = {3.785049332293096, -1.073167667706904, 0};
Point(p18 + 26) = {3.855984072076161, -1.133751658883996, 0};
Point(p18 + 27) = {3.935522911752835, -1.182493122525598, 0};
Point(p18 + 28) = {4.021707341116004, -1.218191882033208, 0};
Point(p18 + 29) = {4.112415213485023, -1.23996891547036, 0};
Point(p18 + 30) = {4.205413, -1.247288, 0};
Point(p18 + 31) = {4.298410786514976, -1.23996891547036, 0};
Point(p18 + 32) = {4.389118658883996, -1.218191882033208, 0};
Point(p18 + 33) = {4.475303088247164, -1.182493122525598, 0};
Point(p18 + 34) = {4.554841927923839, -1.133751658883996, 0};
Point(p18 + 35) = {4.625776667706903, -1.073167667706904, 0};
Point(p18 + 36) = {4.686360658883996, -1.002232927923839, 0};
Point(p18 + 37) = {4.735102122525598, -0.9226940882471649, 0};
Point(p18 + 38) = {4.770800882033209, -0.8365096588839964, 0};
Point(p18 + 39) = {4.79257791547036, -0.7458017865149769, 0};
Spline(18) = {12, p18 + 1, p18 + 2, p18 + 3, p18 + 4, p18 + 5, p18 + 6, p18 + 7, p18 + 8, p18 + 9, p18 + 10, p18 + 11, p18 + 12, p18 + 13, p18 + 14, p18 + 15, p18 + 16, p18 + 17, p18 + 18, p18 + 19, p18 + 20, p18 + 21, p18 + 22, p18 + 23, p18 + 24, p18 + 25, p18 + 26, p18 + 27, p18 + 28, p18 + 29, p18 + 30, p18 + 31, p18 + 32, p18 + 33, p18 + 34, p18 + 35, p18 + 36, p18 + 37, p18 + 38, p18 + 39, 12};
Line(19) = {14, 13};
Line(20) = {13, 15};
Line(21) = {16, 15};
Line(22) = {14, 16};
Line(23) = {14, 17};
Line(24) = {17, 18};
Line(25) = {13, 18};
Line(26) = {15, 19};
Line(27) = {18, 19};
Line(28) = {16, 20};
Line(29) = {20, 19};
Line(30) = {17, 20};
Curve Loop(7) = {-13, -14, 15, 14};
Surface(7) = {7};
Curve Loop(8) = {13};
Plane Surface(8) = {8};
Curve Loop(9) = {15};
Plane Surface(9) = {9};
Curve Loop(10) = {-16, -17, 18, 17};
Surface(10) = {10};
Curve Loop(11) = {16};
Plane Surface(11) = {11};
Curve Loop(12) = {18};
Plane Surface(12) = {12};
Curve Loop(13) = {-19, 22, 21, -20};
Plane Surface(13) = {13};
Curve Loop(14) = {-23, 19, 25, -24};
Plane Surface(14) = {14};
Curve Loop(15) = {-20, 25, 27, -26};
Plane Surface(15) = {15};
Curve Loop(16) = {-28, 21, 26, -29};
Plane Surface(16) = {16};
Curve Loop(17) = {-22, 23, 30, -28, -18, -15};
Plane Surface(17) = {17};
Curve Loop(18) = {-24, 30, 29, -27};
Plane Surface(18) = {18};
Surface Loop(1) = {13, 14, 15, 16, 17, 18, 10, 7, 11, 8};
Volume(1) = {1};
Surface Loop(2) = {7, 8, 9};
Volume(2) = {2};
Surface Loop(3) = {10, 11, 12};
Volume(3) = {3};
Physical Surface("WALLS") = {13, 18};
Physical Surface("LOAD") = {8, 11};
Physical Surface("BORDER") = {7, 9, 10, 12, 14, 15, 16, 17};
Physical Volume("SOLID") = {1, 2, 3};
