cl__1 = 0.094627;
cl__2 = 0.134552;
cl__3 = 0.329952;
cl__4 = 0.188877;
cl__5 = 4.983278;
cl__6 = 5.574461;
Point(9) = {9.812616, -2.134423, 0.1, cl__1};
Point(10) = {9.812616, -2.134423, 0, cl__1};
Point(11) = {4.318982, 1.619931, 0.1, cl__2};
Point(12) = {4.318982, 1.619931, 0, cl__2};
Point(13) = {0.735675, -3.953047, 1, cl__3};
Point(14) = {0.735675, -3.953047, 0, cl__3};
Point(15) = {0.735675, 4.951135000000001, 1, cl__4};
Point(16) = {0.735675, 4.951135000000001, 0, cl__4};
Point(17) = {33.869874, -3.953047, 0, cl__5};
Point(18) = {33.869874, -3.953047, 1, cl__5};
Point(19) = {33.869874, 4.951135000000001, 1, cl__6};
Point(20) = {33.869874, 4.951135000000001, 0, cl__6};
p13 = newp;
Point(p13 + 1) = {9.800965809119983, -1.986393289462986, 0.1};
Point(p13 + 2) = {9.766302102844165, -1.842008561681835, 0.1};
Point(p13 + 3) = {9.7094784166633, -1.70482404783996, 0.1};
Point(p13 + 4) = {9.631893938318164, -1.578217685957445, 0.1};
Point(p13 + 5) = {9.535459055153739, -1.465306944846262, 0.1};
Point(p13 + 6) = {9.422548314042556, -1.368872061681835, 0.1};
Point(p13 + 7) = {9.295941952160041, -1.291287583336701, 0.1};
Point(p13 + 8) = {9.158757438318165, -1.234463897155836, 0.1};
Point(p13 + 9) = {9.014372710537016, -1.199800190880017, 0.1};
Point(p13 + 10) = {8.866343000000001, -1.18815, 0.1};
Point(p13 + 11) = {8.718313289462985, -1.199800190880017, 0.1};
Point(p13 + 12) = {8.573928561681836, -1.234463897155836, 0.1};
Point(p13 + 13) = {8.43674404783996, -1.2912875833367, 0.1};
Point(p13 + 14) = {8.310137685957445, -1.368872061681835, 0.1};
Point(p13 + 15) = {8.197226944846262, -1.465306944846262, 0.1};
Point(p13 + 16) = {8.100792061681837, -1.578217685957444, 0.1};
Point(p13 + 17) = {8.023207583336701, -1.70482404783996, 0.1};
Point(p13 + 18) = {7.966383897155836, -1.842008561681835, 0.1};
Point(p13 + 19) = {7.931720190880018, -1.986393289462985, 0.1};
Point(p13 + 20) = {7.920070000000001, -2.134423, 0.1};
Point(p13 + 21) = {7.931720190880018, -2.282452710537014, 0.1};
Point(p13 + 22) = {7.966383897155837, -2.426837438318165, 0.1};
Point(p13 + 23) = {8.023207583336701, -2.56402195216004, 0.1};
Point(p13 + 24) = {8.100792061681837, -2.690628314042555, 0.1};
Point(p13 + 25) = {8.197226944846262, -2.803539055153738, 0.1};
Point(p13 + 26) = {8.310137685957445, -2.899973938318165, 0.1};
Point(p13 + 27) = {8.43674404783996, -2.9775584166633, 0.1};
Point(p13 + 28) = {8.573928561681836, -3.034382102844164, 0.1};
Point(p13 + 29) = {8.718313289462985, -3.069045809119983, 0.1};
Point(p13 + 30) = {8.866343000000001, -3.080696, 0.1};
Point(p13 + 31) = {9.014372710537014, -3.069045809119983, 0.1};
Point(p13 + 32) = {9.158757438318165, -3.034382102844164, 0.1};
Point(p13 + 33) = {9.295941952160041, -2.9775584166633, 0.1};
Point(p13 + 34) = {9.422548314042556, -2.899973938318165, 0.1};
Point(p13 + 35) = {9.535459055153739, -2.803539055153738, 0.1};
Point(p13 + 36) = {9.631893938318164, -2.690628314042556, 0.1};
Point(p13 + 37) = {9.7094784166633, -2.56402195216004, 0.1};
Point(p13 + 38) = {9.766302102844165, -2.426837438318165, 0.1};
Point(p13 + 39) = {9.800965809119983, -2.282452710537015, 0.1};
Spline(13) = {9, p13 + 1, p13 + 2, p13 + 3, p13 + 4, p13 + 5, p13 + 6, p13 + 7, p13 + 8, p13 + 9, p13 + 10, p13 + 11, p13 + 12, p13 + 13, p13 + 14, p13 + 15, p13 + 16, p13 + 17, p13 + 18, p13 + 19, p13 + 20, p13 + 21, p13 + 22, p13 + 23, p13 + 24, p13 + 25, p13 + 26, p13 + 27, p13 + 28, p13 + 29, p13 + 30, p13 + 31, p13 + 32, p13 + 33, p13 + 34, p13 + 35, p13 + 36, p13 + 37, p13 + 38, p13 + 39, 9};
Line(14) = {10, 9};
p15 = newp;
Point(p15 + 1) = {9.800965809119983, -1.986393289462986, 0};
Point(p15 + 2) = {9.766302102844165, -1.842008561681835, 0};
Point(p15 + 3) = {9.7094784166633, -1.70482404783996, 0};
Point(p15 + 4) = {9.631893938318164, -1.578217685957445, 0};
Point(p15 + 5) = {9.535459055153739, -1.465306944846262, 0};
Point(p15 + 6) = {9.422548314042556, -1.368872061681835, 0};
Point(p15 + 7) = {9.295941952160041, -1.291287583336701, 0};
Point(p15 + 8) = {9.158757438318165, -1.234463897155836, 0};
Point(p15 + 9) = {9.014372710537016, -1.199800190880017, 0};
Point(p15 + 10) = {8.866343000000001, -1.18815, 0};
Point(p15 + 11) = {8.718313289462985, -1.199800190880017, 0};
Point(p15 + 12) = {8.573928561681836, -1.234463897155836, 0};
Point(p15 + 13) = {8.43674404783996, -1.2912875833367, 0};
Point(p15 + 14) = {8.310137685957445, -1.368872061681835, 0};
Point(p15 + 15) = {8.197226944846262, -1.465306944846262, 0};
Point(p15 + 16) = {8.100792061681837, -1.578217685957444, 0};
Point(p15 + 17) = {8.023207583336701, -1.70482404783996, 0};
Point(p15 + 18) = {7.966383897155836, -1.842008561681835, 0};
Point(p15 + 19) = {7.931720190880018, -1.986393289462985, 0};
Point(p15 + 20) = {7.920070000000001, -2.134423, 0};
Point(p15 + 21) = {7.931720190880018, -2.282452710537014, 0};
Point(p15 + 22) = {7.966383897155837, -2.426837438318165, 0};
Point(p15 + 23) = {8.023207583336701, -2.56402195216004, 0};
Point(p15 + 24) = {8.100792061681837, -2.690628314042555, 0};
Point(p15 + 25) = {8.197226944846262, -2.803539055153738, 0};
Point(p15 + 26) = {8.310137685957445, -2.899973938318165, 0};
Point(p15 + 27) = {8.43674404783996, -2.9775584166633, 0};
Point(p15 + 28) = {8.573928561681836, -3.034382102844164, 0};
Point(p15 + 29) = {8.718313289462985, -3.069045809119983, 0};
Point(p15 + 30) = {8.866343000000001, -3.080696, 0};
Point(p15 + 31) = {9.014372710537014, -3.069045809119983, 0};
Point(p15 + 32) = {9.158757438318165, -3.034382102844164, 0};
Point(p15 + 33) = {9.295941952160041, -2.9775584166633, 0};
Point(p15 + 34) = {9.422548314042556, -2.899973938318165, 0};
Point(p15 + 35) = {9.535459055153739, -2.803539055153738, 0};
Point(p15 + 36) = {9.631893938318164, -2.690628314042556, 0};
Point(p15 + 37) = {9.7094784166633, -2.56402195216004, 0};
Point(p15 + 38) = {9.766302102844165, -2.426837438318165, 0};
Point(p15 + 39) = {9.800965809119983, -2.282452710537015, 0};
Spline(15) = {10, p15 + 1, p15 + 2, p15 + 3, p15 + 4, p15 + 5, p15 + 6, p15 + 7, p15 + 8, p15 + 9, p15 + 10, p15 + 11, p15 + 12, p15 + 13, p15 + 14, p15 + 15, p15 + 16, p15 + 17, p15 + 18, p15 + 19, p15 + 20, p15 + 21, p15 + 22, p15 + 23, p15 + 24, p15 + 25, p15 + 26, p15 + 27, p15 + 28, p15 + 29, p15 + 30, p15 + 31, p15 + 32, p15 + 33, p15 + 34, p15 + 35, p15 + 36, p15 + 37, p15 + 38, p15 + 39, 10};
p16 = newp;
Point(p16 + 1) = {4.30241640372591, 1.830416857835397, 0.1};
Point(p16 + 2) = {4.253127514861971, 2.035719855288374, 0.1};
Point(p16 + 3) = {4.172328989432457, 2.230784751200055, 0.1};
Point(p16 + 4) = {4.062010355288374, 2.410808400449821, 0.1};
Point(p16 + 5) = {3.924888023328904, 2.571358023328905, 0.1};
Point(p16 + 6) = {3.764338400449821, 2.708480355288374, 0.1};
Point(p16 + 7) = {3.584314751200055, 2.818798989432457, 0.1};
Point(p16 + 8) = {3.389249855288373, 2.899597514861971, 0.1};
Point(p16 + 9) = {3.183946857835397, 2.94888640372591, 0.1};
Point(p16 + 10) = {2.973461, 2.965452, 0.1};
Point(p16 + 11) = {2.762975142164603, 2.94888640372591, 0.1};
Point(p16 + 12) = {2.557672144711626, 2.899597514861972, 0.1};
Point(p16 + 13) = {2.362607248799945, 2.818798989432457, 0.1};
Point(p16 + 14) = {2.182583599550179, 2.708480355288374, 0.1};
Point(p16 + 15) = {2.022033976671096, 2.571358023328905, 0.1};
Point(p16 + 16) = {1.884911644711626, 2.410808400449821, 0.1};
Point(p16 + 17) = {1.774593010567543, 2.230784751200055, 0.1};
Point(p16 + 18) = {1.693794485138029, 2.035719855288374, 0.1};
Point(p16 + 19) = {1.64450559627409, 1.830416857835397, 0.1};
Point(p16 + 20) = {1.62794, 1.619931, 0.1};
Point(p16 + 21) = {1.64450559627409, 1.409445142164604, 0.1};
Point(p16 + 22) = {1.693794485138029, 1.204142144711626, 0.1};
Point(p16 + 23) = {1.774593010567543, 1.009077248799946, 0.1};
Point(p16 + 24) = {1.884911644711626, 0.8290535995501794, 0.1};
Point(p16 + 25) = {2.022033976671095, 0.6685039766710955, 0.1};
Point(p16 + 26) = {2.182583599550179, 0.5313816447116264, 0.1};
Point(p16 + 27) = {2.362607248799945, 0.4210630105675432, 0.1};
Point(p16 + 28) = {2.557672144711626, 0.3402644851380288, 0.1};
Point(p16 + 29) = {2.762975142164603, 0.2909755962740899, 0.1};
Point(p16 + 30) = {2.973460999999999, 0.27441, 0.1};
Point(p16 + 31) = {3.183946857835396, 0.2909755962740896, 0.1};
Point(p16 + 32) = {3.389249855288373, 0.3402644851380285, 0.1};
Point(p16 + 33) = {3.584314751200054, 0.421063010567543, 0.1};
Point(p16 + 34) = {3.76433840044982, 0.5313816447116262, 0.1};
Point(p16 + 35) = {3.924888023328904, 0.6685039766710952, 0.1};
Point(p16 + 36) = {4.062010355288374, 0.8290535995501791, 0.1};
Point(p16 + 37) = {4.172328989432456, 1.009077248799945, 0.1};
Point(p16 + 38) = {4.253127514861971, 1.204142144711626, 0.1};
Point(p16 + 39) = {4.30241640372591, 1.409445142164603, 0.1};
Spline(16) = {11, p16 + 1, p16 + 2, p16 + 3, p16 + 4, p16 + 5, p16 + 6, p16 + 7, p16 + 8, p16 + 9, p16 + 10, p16 + 11, p16 + 12, p16 + 13, p16 + 14, p16 + 15, p16 + 16, p16 + 17, p16 + 18, p16 + 19, p16 + 20, p16 + 21, p16 + 22, p16 + 23, p16 + 24, p16 + 25, p16 + 26, p16 + 27, p16 + 28, p16 + 29, p16 + 30, p16 + 31, p16 + 32, p16 + 33, p16 + 34, p16 + 35, p16 + 36, p16 + 37, p16 + 38, p16 + 39, 11};
Line(17) = {12, 11};
p18 = newp;
Point(p18 + 1) = {4.30241640372591, 1.830416857835397, 0};
Point(p18 + 2) = {4.253127514861971, 2.035719855288374, 0};
Point(p18 + 3) = {4.172328989432457, 2.230784751200055, 0};
Point(p18 + 4) = {4.062010355288374, 2.410808400449821, 0};
Point(p18 + 5) = {3.924888023328904, 2.571358023328905, 0};
Point(p18 + 6) = {3.764338400449821, 2.708480355288374, 0};
Point(p18 + 7) = {3.584314751200055, 2.818798989432457, 0};
Point(p18 + 8) = {3.389249855288373, 2.899597514861971, 0};
Point(p18 + 9) = {3.183946857835397, 2.94888640372591, 0};
Point(p18 + 10) = {2.973461, 2.965452, 0};
Point(p18 + 11) = {2.762975142164603, 2.94888640372591, 0};
Point(p18 + 12) = {2.557672144711626, 2.899597514861972, 0};
Point(p18 + 13) = {2.362607248799945, 2.818798989432457, 0};
Point(p18 + 14) = {2.182583599550179, 2.708480355288374, 0};
Point(p18 + 15) = {2.022033976671096, 2.571358023328905, 0};
Point(p18 + 16) = {1.884911644711626, 2.410808400449821, 0};
Point(p18 + 17) = {1.774593010567543, 2.230784751200055, 0};
Point(p18 + 18) = {1.693794485138029, 2.035719855288374, 0};
Point(p18 + 19) = {1.64450559627409, 1.830416857835397, 0};
Point(p18 + 20) = {1.62794, 1.619931, 0};
Point(p18 + 21) = {1.64450559627409, 1.409445142164604, 0};
Point(p18 + 22) = {1.693794485138029, 1.204142144711626, 0};
Point(p18 + 23) = {1.774593010567543, 1.009077248799946, 0};
Point(p18 + 24) = {1.884911644711626, 0.8290535995501794, 0};
Point(p18 + 25) = {2.022033976671095, 0.6685039766710955, 0};
Point(p18 + 26) = {2.182583599550179, 0.5313816447116264, 0};
Point(p18 + 27) = {2.362607248799945, 0.4210630105675432, 0};
Point(p18 + 28) = {2.557672144711626, 0.3402644851380288, 0};
Point(p18 + 29) = {2.762975142164603, 0.2909755962740899, 0};
Point(p18 + 30) = {2.973460999999999, 0.27441, 0};
Point(p18 + 31) = {3.183946857835396, 0.2909755962740896, 0};
Point(p18 + 32) = {3.389249855288373, 0.3402644851380285, 0};
Point(p18 + 33) = {3.584314751200054, 0.421063010567543, 0};
Point(p18 + 34) = {3.76433840044982, 0.5313816447116262, 0};
Point(p18 + 35) = {3.924888023328904, 0.6685039766710952, 0};
Point(p18 + 36) = {4.062010355288374, 0.8290535995501791, 0};
Point(p18 + 37) = {4.172328989432456, 1.009077248799945, 0};
Point(p18 + 38) = {4.253127514861971, 1.204142144711626, 0};
Point(p18 + 39) = {4.30241640372591, 1.409445142164603, 0};
Spline(18) = {12, p18 + 1, p18 + 2, p18 + 3, p18 + 4, p18 + 5, p18 + 6, p18 + 7, p18 + 8, p18 + 9, p18 + 10, p18 + 11, p18 + 12, p18 + 13, p18 + 14, p18 + 15, p18 + 16, p18 + 17, p18 + 18, p18 + 19, p18 + 20, p18 + 21, p18 + 22, p18 + 23, p18 + 24, p18 + 25, p18 + 26, p18 + 27, p18 + 28, p18 + 29, p18 + 30, p18 + 31, p18 + 32, p18 + 33, p18 + 34, p18 + 35, p18 + 36, p18 + 37, p18 + 38, p18 + 39, 12};
Line(19) = {14, 13};
Line(20) = {13, 15};
Line(21) = {16, 15};
Line(22) = {14, 16};
Line(23) = {14, 17};
Line(24) = {17, 18};
Line(25) = {13, 18};
Line(26) = {15, 19};
Line(27) = {18, 19};
Line(28) = {16, 20};
Line(29) = {20, 19};
Line(30) = {17, 20};
Curve Loop(7) = {-13, -14, 15, 14};
Surface(7) = {7};
Curve Loop(8) = {13};
Plane Surface(8) = {8};
Curve Loop(9) = {15};
Plane Surface(9) = {9};
Curve Loop(10) = {-16, -17, 18, 17};
Surface(10) = {10};
Curve Loop(11) = {16};
Plane Surface(11) = {11};
Curve Loop(12) = {18};
Plane Surface(12) = {12};
Curve Loop(13) = {-19, 22, 21, -20};
Plane Surface(13) = {13};
Curve Loop(14) = {-23, 19, 25, -24};
Plane Surface(14) = {14};
Curve Loop(15) = {-20, 25, 27, -26};
Plane Surface(15) = {15};
Curve Loop(16) = {-28, 21, 26, -29};
Plane Surface(16) = {16};
Curve Loop(17) = {-22, 23, 30, -28, -15, -18};
Plane Surface(17) = {17};
Curve Loop(18) = {-24, 30, 29, -27};
Plane Surface(18) = {18};
Surface Loop(1) = {13, 14, 15, 16, 17, 18, 7, 10, 8, 11};
Volume(1) = {1};
Surface Loop(2) = {7, 8, 9};
Volume(2) = {2};
Surface Loop(3) = {10, 11, 12};
Volume(3) = {3};
Physical Surface("WALLS") = {13, 18};
Physical Surface("LOAD") = {8, 11};
Physical Surface("BORDER") = {7, 9, 10, 12, 14, 15, 16, 17};
Physical Volume("SOLID") = {1, 2, 3};
