cl__1 = 0.13346;
cl__2 = 0.062745;
cl__3 = 3.553979;
cl__4 = 4.815773;
cl__5 = 0.425948;
cl__6 = 0.359281;
Point(9) = {29.132603, 0.4425799999999996, 0.1, cl__1};
Point(10) = {29.132603, 0.4425799999999996, 0, cl__1};
Point(11) = {18.541036, -3.416223, 0.1, cl__2};
Point(12) = {18.541036, -3.416223, 0, cl__2};
Point(13) = {0.427687, -4.844213, 1, cl__3};
Point(14) = {0.427687, -4.844213, 0, cl__3};
Point(15) = {0.427687, 4.863553, 1, cl__4};
Point(16) = {0.427687, 4.863553, 0, cl__4};
Point(17) = {30.752439, -4.844213, 0, cl__5};
Point(18) = {30.752439, -4.844213, 1, cl__5};
Point(19) = {30.752439, 4.863553, 1, cl__6};
Point(20) = {30.752439, 4.863553, 0, cl__6};
p13 = newp;
Point(p13 + 1) = {29.11617192091657, 0.6513566548703669, 0.1};
Point(p13 + 2) = {29.06728327136493, 0.8549925356078329, 0.1};
Point(p13 + 3) = {28.98714085214917, 1.0484734509999, 0.1};
Point(p13 + 4) = {28.87771803560783, 1.227035258783273, 0.1};
Point(p13 + 5) = {28.74170917463766, 1.38628117463766, 0.1};
Point(p13 + 6) = {28.58246325878327, 1.522290035607833, 0.1};
Point(p13 + 7) = {28.4039014509999, 1.631712852149175, 0.1};
Point(p13 + 8) = {28.21042053560783, 1.71185527136493, 0.1};
Point(p13 + 9) = {28.00678465487037, 1.760743920916568, 0.1};
Point(p13 + 10) = {27.798008, 1.777175, 0.1};
Point(p13 + 11) = {27.58923134512963, 1.760743920916568, 0.1};
Point(p13 + 12) = {27.38559546439217, 1.71185527136493, 0.1};
Point(p13 + 13) = {27.1921145490001, 1.631712852149175, 0.1};
Point(p13 + 14) = {27.01355274121673, 1.522290035607833, 0.1};
Point(p13 + 15) = {26.85430682536234, 1.38628117463766, 0.1};
Point(p13 + 16) = {26.71829796439217, 1.227035258783273, 0.1};
Point(p13 + 17) = {26.60887514785082, 1.048473450999901, 0.1};
Point(p13 + 18) = {26.52873272863507, 0.8549925356078331, 0.1};
Point(p13 + 19) = {26.47984407908343, 0.6513566548703671, 0.1};
Point(p13 + 20) = {26.463413, 0.4425800000000001, 0.1};
Point(p13 + 21) = {26.47984407908343, 0.2338033451296332, 0.1};
Point(p13 + 22) = {26.52873272863507, 0.03016746439216661, 0.1};
Point(p13 + 23) = {26.60887514785082, -0.1633134509998998, 0.1};
Point(p13 + 24) = {26.71829796439217, -0.3418752587832731, 0.1};
Point(p13 + 25) = {26.85430682536234, -0.5011211746376604, 0.1};
Point(p13 + 26) = {27.01355274121673, -0.6371300356078329, 0.1};
Point(p13 + 27) = {27.1921145490001, -0.7465528521491747, 0.1};
Point(p13 + 28) = {27.38559546439217, -0.8266952713649305, 0.1};
Point(p13 + 29) = {27.58923134512963, -0.8755839209165677, 0.1};
Point(p13 + 30) = {27.798008, -0.892015, 0.1};
Point(p13 + 31) = {28.00678465487037, -0.8755839209165679, 0.1};
Point(p13 + 32) = {28.21042053560783, -0.8266952713649305, 0.1};
Point(p13 + 33) = {28.4039014509999, -0.7465528521491751, 0.1};
Point(p13 + 34) = {28.58246325878327, -0.6371300356078331, 0.1};
Point(p13 + 35) = {28.74170917463766, -0.5011211746376606, 0.1};
Point(p13 + 36) = {28.87771803560783, -0.3418752587832733, 0.1};
Point(p13 + 37) = {28.98714085214917, -0.1633134509999007, 0.1};
Point(p13 + 38) = {29.06728327136493, 0.03016746439216678, 0.1};
Point(p13 + 39) = {29.11617192091657, 0.2338033451296327, 0.1};
Spline(13) = {9, p13 + 1, p13 + 2, p13 + 3, p13 + 4, p13 + 5, p13 + 6, p13 + 7, p13 + 8, p13 + 9, p13 + 10, p13 + 11, p13 + 12, p13 + 13, p13 + 14, p13 + 15, p13 + 16, p13 + 17, p13 + 18, p13 + 19, p13 + 20, p13 + 21, p13 + 22, p13 + 23, p13 + 24, p13 + 25, p13 + 26, p13 + 27, p13 + 28, p13 + 29, p13 + 30, p13 + 31, p13 + 32, p13 + 33, p13 + 34, p13 + 35, p13 + 36, p13 + 37, p13 + 38, p13 + 39, 9};
Line(14) = {10, 9};
p15 = newp;
Point(p15 + 1) = {29.11617192091657, 0.6513566548703669, 0};
Point(p15 + 2) = {29.06728327136493, 0.8549925356078329, 0};
Point(p15 + 3) = {28.98714085214917, 1.0484734509999, 0};
Point(p15 + 4) = {28.87771803560783, 1.227035258783273, 0};
Point(p15 + 5) = {28.74170917463766, 1.38628117463766, 0};
Point(p15 + 6) = {28.58246325878327, 1.522290035607833, 0};
Point(p15 + 7) = {28.4039014509999, 1.631712852149175, 0};
Point(p15 + 8) = {28.21042053560783, 1.71185527136493, 0};
Point(p15 + 9) = {28.00678465487037, 1.760743920916568, 0};
Point(p15 + 10) = {27.798008, 1.777175, 0};
Point(p15 + 11) = {27.58923134512963, 1.760743920916568, 0};
Point(p15 + 12) = {27.38559546439217, 1.71185527136493, 0};
Point(p15 + 13) = {27.1921145490001, 1.631712852149175, 0};
Point(p15 + 14) = {27.01355274121673, 1.522290035607833, 0};
Point(p15 + 15) = {26.85430682536234, 1.38628117463766, 0};
Point(p15 + 16) = {26.71829796439217, 1.227035258783273, 0};
Point(p15 + 17) = {26.60887514785082, 1.048473450999901, 0};
Point(p15 + 18) = {26.52873272863507, 0.8549925356078331, 0};
Point(p15 + 19) = {26.47984407908343, 0.6513566548703671, 0};
Point(p15 + 20) = {26.463413, 0.4425800000000001, 0};
Point(p15 + 21) = {26.47984407908343, 0.2338033451296332, 0};
Point(p15 + 22) = {26.52873272863507, 0.03016746439216661, 0};
Point(p15 + 23) = {26.60887514785082, -0.1633134509998998, 0};
Point(p15 + 24) = {26.71829796439217, -0.3418752587832731, 0};
Point(p15 + 25) = {26.85430682536234, -0.5011211746376604, 0};
Point(p15 + 26) = {27.01355274121673, -0.6371300356078329, 0};
Point(p15 + 27) = {27.1921145490001, -0.7465528521491747, 0};
Point(p15 + 28) = {27.38559546439217, -0.8266952713649305, 0};
Point(p15 + 29) = {27.58923134512963, -0.8755839209165677, 0};
Point(p15 + 30) = {27.798008, -0.892015, 0};
Point(p15 + 31) = {28.00678465487037, -0.8755839209165679, 0};
Point(p15 + 32) = {28.21042053560783, -0.8266952713649305, 0};
Point(p15 + 33) = {28.4039014509999, -0.7465528521491751, 0};
Point(p15 + 34) = {28.58246325878327, -0.6371300356078331, 0};
Point(p15 + 35) = {28.74170917463766, -0.5011211746376606, 0};
Point(p15 + 36) = {28.87771803560783, -0.3418752587832733, 0};
Point(p15 + 37) = {28.98714085214917, -0.1633134509999007, 0};
Point(p15 + 38) = {29.06728327136493, 0.03016746439216678, 0};
Point(p15 + 39) = {29.11617192091657, 0.2338033451296327, 0};
Spline(15) = {10, p15 + 1, p15 + 2, p15 + 3, p15 + 4, p15 + 5, p15 + 6, p15 + 7, p15 + 8, p15 + 9, p15 + 10, p15 + 11, p15 + 12, p15 + 13, p15 + 14, p15 + 15, p15 + 16, p15 + 17, p15 + 18, p15 + 19, p15 + 20, p15 + 21, p15 + 22, p15 + 23, p15 + 24, p15 + 25, p15 + 26, p15 + 27, p15 + 28, p15 + 29, p15 + 30, p15 + 31, p15 + 32, p15 + 33, p15 + 34, p15 + 35, p15 + 36, p15 + 37, p15 + 38, p15 + 39, 10};
p16 = newp;
Point(p16 + 1) = {18.53331109855306, -3.318068820648367, 0.1};
Point(p16 + 2) = {18.51032660692333, -3.222331522947417, 0.1};
Point(p16 + 3) = {18.47264847957589, -3.13136847690042, 0.1};
Point(p16 + 4) = {18.42120447705258, -3.047419494590097, 0.1};
Point(p16 + 5) = {18.35726132142837, -2.972551678571626, 0.1};
Point(p16 + 6) = {18.2823935054099, -2.908608522947417, 0.1};
Point(p16 + 7) = {18.19844452309958, -2.857164520424106, 0.1};
Point(p16 + 8) = {18.10748147705258, -2.819486393076671, 0.1};
Point(p16 + 9) = {18.01174417935163, -2.796501901446943, 0.1};
Point(p16 + 10) = {17.91359, -2.788777, 0.1};
Point(p16 + 11) = {17.81543582064837, -2.796501901446943, 0.1};
Point(p16 + 12) = {17.71969852294741, -2.819486393076671, 0.1};
Point(p16 + 13) = {17.62873547690042, -2.857164520424106, 0.1};
Point(p16 + 14) = {17.5447864945901, -2.908608522947417, 0.1};
Point(p16 + 15) = {17.46991867857162, -2.972551678571626, 0.1};
Point(p16 + 16) = {17.40597552294741, -3.047419494590097, 0.1};
Point(p16 + 17) = {17.3545315204241, -3.13136847690042, 0.1};
Point(p16 + 18) = {17.31685339307667, -3.222331522947417, 0.1};
Point(p16 + 19) = {17.29386890144694, -3.318068820648367, 0.1};
Point(p16 + 20) = {17.286144, -3.416223, 0.1};
Point(p16 + 21) = {17.29386890144694, -3.514377179351633, 0.1};
Point(p16 + 22) = {17.31685339307667, -3.610114477052583, 0.1};
Point(p16 + 23) = {17.3545315204241, -3.701077523099579, 0.1};
Point(p16 + 24) = {17.40597552294741, -3.785026505409903, 0.1};
Point(p16 + 25) = {17.46991867857162, -3.859894321428374, 0.1};
Point(p16 + 26) = {17.5447864945901, -3.923837477052583, 0.1};
Point(p16 + 27) = {17.62873547690042, -3.975281479575894, 0.1};
Point(p16 + 28) = {17.71969852294741, -4.012959606923329, 0.1};
Point(p16 + 29) = {17.81543582064837, -4.035944098553057, 0.1};
Point(p16 + 30) = {17.91359, -4.043669, 0.1};
Point(p16 + 31) = {18.01174417935163, -4.035944098553057, 0.1};
Point(p16 + 32) = {18.10748147705258, -4.012959606923329, 0.1};
Point(p16 + 33) = {18.19844452309958, -3.975281479575895, 0.1};
Point(p16 + 34) = {18.2823935054099, -3.923837477052583, 0.1};
Point(p16 + 35) = {18.35726132142837, -3.859894321428375, 0.1};
Point(p16 + 36) = {18.42120447705258, -3.785026505409903, 0.1};
Point(p16 + 37) = {18.47264847957589, -3.70107752309958, 0.1};
Point(p16 + 38) = {18.51032660692333, -3.610114477052583, 0.1};
Point(p16 + 39) = {18.53331109855306, -3.514377179351633, 0.1};
Spline(16) = {11, p16 + 1, p16 + 2, p16 + 3, p16 + 4, p16 + 5, p16 + 6, p16 + 7, p16 + 8, p16 + 9, p16 + 10, p16 + 11, p16 + 12, p16 + 13, p16 + 14, p16 + 15, p16 + 16, p16 + 17, p16 + 18, p16 + 19, p16 + 20, p16 + 21, p16 + 22, p16 + 23, p16 + 24, p16 + 25, p16 + 26, p16 + 27, p16 + 28, p16 + 29, p16 + 30, p16 + 31, p16 + 32, p16 + 33, p16 + 34, p16 + 35, p16 + 36, p16 + 37, p16 + 38, p16 + 39, 11};
Line(17) = {12, 11};
p18 = newp;
Point(p18 + 1) = {18.53331109855306, -3.318068820648367, 0};
Point(p18 + 2) = {18.51032660692333, -3.222331522947417, 0};
Point(p18 + 3) = {18.47264847957589, -3.13136847690042, 0};
Point(p18 + 4) = {18.42120447705258, -3.047419494590097, 0};
Point(p18 + 5) = {18.35726132142837, -2.972551678571626, 0};
Point(p18 + 6) = {18.2823935054099, -2.908608522947417, 0};
Point(p18 + 7) = {18.19844452309958, -2.857164520424106, 0};
Point(p18 + 8) = {18.10748147705258, -2.819486393076671, 0};
Point(p18 + 9) = {18.01174417935163, -2.796501901446943, 0};
Point(p18 + 10) = {17.91359, -2.788777, 0};
Point(p18 + 11) = {17.81543582064837, -2.796501901446943, 0};
Point(p18 + 12) = {17.71969852294741, -2.819486393076671, 0};
Point(p18 + 13) = {17.62873547690042, -2.857164520424106, 0};
Point(p18 + 14) = {17.5447864945901, -2.908608522947417, 0};
Point(p18 + 15) = {17.46991867857162, -2.972551678571626, 0};
Point(p18 + 16) = {17.40597552294741, -3.047419494590097, 0};
Point(p18 + 17) = {17.3545315204241, -3.13136847690042, 0};
Point(p18 + 18) = {17.31685339307667, -3.222331522947417, 0};
Point(p18 + 19) = {17.29386890144694, -3.318068820648367, 0};
Point(p18 + 20) = {17.286144, -3.416223, 0};
Point(p18 + 21) = {17.29386890144694, -3.514377179351633, 0};
Point(p18 + 22) = {17.31685339307667, -3.610114477052583, 0};
Point(p18 + 23) = {17.3545315204241, -3.701077523099579, 0};
Point(p18 + 24) = {17.40597552294741, -3.785026505409903, 0};
Point(p18 + 25) = {17.46991867857162, -3.859894321428374, 0};
Point(p18 + 26) = {17.5447864945901, -3.923837477052583, 0};
Point(p18 + 27) = {17.62873547690042, -3.975281479575894, 0};
Point(p18 + 28) = {17.71969852294741, -4.012959606923329, 0};
Point(p18 + 29) = {17.81543582064837, -4.035944098553057, 0};
Point(p18 + 30) = {17.91359, -4.043669, 0};
Point(p18 + 31) = {18.01174417935163, -4.035944098553057, 0};
Point(p18 + 32) = {18.10748147705258, -4.012959606923329, 0};
Point(p18 + 33) = {18.19844452309958, -3.975281479575895, 0};
Point(p18 + 34) = {18.2823935054099, -3.923837477052583, 0};
Point(p18 + 35) = {18.35726132142837, -3.859894321428375, 0};
Point(p18 + 36) = {18.42120447705258, -3.785026505409903, 0};
Point(p18 + 37) = {18.47264847957589, -3.70107752309958, 0};
Point(p18 + 38) = {18.51032660692333, -3.610114477052583, 0};
Point(p18 + 39) = {18.53331109855306, -3.514377179351633, 0};
Spline(18) = {12, p18 + 1, p18 + 2, p18 + 3, p18 + 4, p18 + 5, p18 + 6, p18 + 7, p18 + 8, p18 + 9, p18 + 10, p18 + 11, p18 + 12, p18 + 13, p18 + 14, p18 + 15, p18 + 16, p18 + 17, p18 + 18, p18 + 19, p18 + 20, p18 + 21, p18 + 22, p18 + 23, p18 + 24, p18 + 25, p18 + 26, p18 + 27, p18 + 28, p18 + 29, p18 + 30, p18 + 31, p18 + 32, p18 + 33, p18 + 34, p18 + 35, p18 + 36, p18 + 37, p18 + 38, p18 + 39, 12};
Line(19) = {14, 13};
Line(20) = {13, 15};
Line(21) = {16, 15};
Line(22) = {14, 16};
Line(23) = {14, 17};
Line(24) = {17, 18};
Line(25) = {13, 18};
Line(26) = {15, 19};
Line(27) = {18, 19};
Line(28) = {16, 20};
Line(29) = {20, 19};
Line(30) = {17, 20};
Curve Loop(7) = {-13, -14, 15, 14};
Surface(7) = {7};
Curve Loop(8) = {13};
Plane Surface(8) = {8};
Curve Loop(9) = {15};
Plane Surface(9) = {9};
Curve Loop(10) = {-16, -17, 18, 17};
Surface(10) = {10};
Curve Loop(11) = {16};
Plane Surface(11) = {11};
Curve Loop(12) = {18};
Plane Surface(12) = {12};
Curve Loop(13) = {-19, 22, 21, -20};
Plane Surface(13) = {13};
Curve Loop(14) = {-23, 19, 25, -24};
Plane Surface(14) = {14};
Curve Loop(15) = {-20, 25, 27, -26};
Plane Surface(15) = {15};
Curve Loop(16) = {-28, 21, 26, -29};
Plane Surface(16) = {16};
Curve Loop(17) = {-22, 23, 30, -28, -18, -15};
Plane Surface(17) = {17};
Curve Loop(18) = {-24, 30, 29, -27};
Plane Surface(18) = {18};
Surface Loop(1) = {13, 14, 15, 16, 17, 18, 10, 7, 11, 8};
Volume(1) = {1};
Surface Loop(2) = {7, 8, 9};
Volume(2) = {2};
Surface Loop(3) = {10, 11, 12};
Volume(3) = {3};
Physical Surface("WALLS") = {13, 18};
Physical Surface("LOAD") = {8, 11};
Physical Surface("BORDER") = {7, 9, 10, 12, 14, 15, 16, 17};
Physical Volume("SOLID") = {1, 2, 3};
