cl__1 = 0.109336;
cl__2 = 0.094526;
cl__3 = 2.207253;
cl__4 = 2.485296;
cl__5 = 0.722837;
cl__6 = 0.620602;
Point(9) = {23.134633, -1.451554, 0.1, cl__1};
Point(10) = {23.134633, -1.451554, 0, cl__1};
Point(11) = {24.720093, 2.857317999999999, 0.1, cl__2};
Point(12) = {24.720093, 2.857317999999999, 0, cl__2};
Point(13) = {0.947449, -3.533819, 1, cl__3};
Point(14) = {0.947449, -3.533819, 0, cl__3};
Point(15) = {0.947449, 4.823162, 1, cl__4};
Point(16) = {0.947449, 4.823162, 0, cl__4};
Point(17) = {34.116918, -3.533819, 0, cl__5};
Point(18) = {34.116918, -3.533819, 1, cl__5};
Point(19) = {34.116918, 4.823162, 1, cl__6};
Point(20) = {34.116918, 4.823162, 0, cl__6};
p13 = newp;
Point(p13 + 1) = {23.12117196100808, -1.280515282607008, 0.1};
Point(p13 + 2) = {23.08112029948692, -1.113688106081191, 0.1};
Point(p13 + 3) = {23.01546422026702, -0.9551803091762685, 0.1};
Point(p13 + 4) = {22.92582039391881, -0.8088948799092585, 0.1};
Point(p13 + 5) = {22.81439614895778, -0.6784338510422201, 0.1};
Point(p13 + 6) = {22.68393512009074, -0.5670096060811908, 0.1};
Point(p13 + 7) = {22.53764969082373, -0.4773657797329789, 0.1};
Point(p13 + 8) = {22.37914189391881, -0.4117097005130799, 0.1};
Point(p13 + 9) = {22.21231471739299, -0.371658038991922, 0.1};
Point(p13 + 10) = {22.041276, -0.3581970000000001, 0.1};
Point(p13 + 11) = {21.87023728260701, -0.3716580389919222, 0.1};
Point(p13 + 12) = {21.70341010608119, -0.4117097005130799, 0.1};
Point(p13 + 13) = {21.54490230917627, -0.4773657797329788, 0.1};
Point(p13 + 14) = {21.39861687990926, -0.5670096060811907, 0.1};
Point(p13 + 15) = {21.26815585104222, -0.67843385104222, 0.1};
Point(p13 + 16) = {21.15673160608119, -0.8088948799092583, 0.1};
Point(p13 + 17) = {21.06708777973298, -0.9551803091762683, 0.1};
Point(p13 + 18) = {21.00143170051308, -1.113688106081191, 0.1};
Point(p13 + 19) = {20.96138003899192, -1.280515282607008, 0.1};
Point(p13 + 20) = {20.947919, -1.451554, 0.1};
Point(p13 + 21) = {20.96138003899192, -1.622592717392991, 0.1};
Point(p13 + 22) = {21.00143170051308, -1.78941989391881, 0.1};
Point(p13 + 23) = {21.06708777973298, -1.947927690823731, 0.1};
Point(p13 + 24) = {21.15673160608119, -2.094213120090741, 0.1};
Point(p13 + 25) = {21.26815585104222, -2.22467414895778, 0.1};
Point(p13 + 26) = {21.39861687990926, -2.336098393918809, 0.1};
Point(p13 + 27) = {21.54490230917627, -2.425742220267021, 0.1};
Point(p13 + 28) = {21.70341010608119, -2.49139829948692, 0.1};
Point(p13 + 29) = {21.87023728260701, -2.531449961008078, 0.1};
Point(p13 + 30) = {22.041276, -2.544911, 0.1};
Point(p13 + 31) = {22.21231471739299, -2.531449961008078, 0.1};
Point(p13 + 32) = {22.37914189391881, -2.49139829948692, 0.1};
Point(p13 + 33) = {22.53764969082373, -2.425742220267022, 0.1};
Point(p13 + 34) = {22.68393512009074, -2.336098393918809, 0.1};
Point(p13 + 35) = {22.81439614895778, -2.22467414895778, 0.1};
Point(p13 + 36) = {22.92582039391881, -2.094213120090742, 0.1};
Point(p13 + 37) = {23.01546422026702, -1.947927690823732, 0.1};
Point(p13 + 38) = {23.08112029948692, -1.78941989391881, 0.1};
Point(p13 + 39) = {23.12117196100808, -1.622592717392992, 0.1};
Spline(13) = {9, p13 + 1, p13 + 2, p13 + 3, p13 + 4, p13 + 5, p13 + 6, p13 + 7, p13 + 8, p13 + 9, p13 + 10, p13 + 11, p13 + 12, p13 + 13, p13 + 14, p13 + 15, p13 + 16, p13 + 17, p13 + 18, p13 + 19, p13 + 20, p13 + 21, p13 + 22, p13 + 23, p13 + 24, p13 + 25, p13 + 26, p13 + 27, p13 + 28, p13 + 29, p13 + 30, p13 + 31, p13 + 32, p13 + 33, p13 + 34, p13 + 35, p13 + 36, p13 + 37, p13 + 38, p13 + 39, 9};
Line(14) = {10, 9};
p15 = newp;
Point(p15 + 1) = {23.12117196100808, -1.280515282607008, 0};
Point(p15 + 2) = {23.08112029948692, -1.113688106081191, 0};
Point(p15 + 3) = {23.01546422026702, -0.9551803091762685, 0};
Point(p15 + 4) = {22.92582039391881, -0.8088948799092585, 0};
Point(p15 + 5) = {22.81439614895778, -0.6784338510422201, 0};
Point(p15 + 6) = {22.68393512009074, -0.5670096060811908, 0};
Point(p15 + 7) = {22.53764969082373, -0.4773657797329789, 0};
Point(p15 + 8) = {22.37914189391881, -0.4117097005130799, 0};
Point(p15 + 9) = {22.21231471739299, -0.371658038991922, 0};
Point(p15 + 10) = {22.041276, -0.3581970000000001, 0};
Point(p15 + 11) = {21.87023728260701, -0.3716580389919222, 0};
Point(p15 + 12) = {21.70341010608119, -0.4117097005130799, 0};
Point(p15 + 13) = {21.54490230917627, -0.4773657797329788, 0};
Point(p15 + 14) = {21.39861687990926, -0.5670096060811907, 0};
Point(p15 + 15) = {21.26815585104222, -0.67843385104222, 0};
Point(p15 + 16) = {21.15673160608119, -0.8088948799092583, 0};
Point(p15 + 17) = {21.06708777973298, -0.9551803091762683, 0};
Point(p15 + 18) = {21.00143170051308, -1.113688106081191, 0};
Point(p15 + 19) = {20.96138003899192, -1.280515282607008, 0};
Point(p15 + 20) = {20.947919, -1.451554, 0};
Point(p15 + 21) = {20.96138003899192, -1.622592717392991, 0};
Point(p15 + 22) = {21.00143170051308, -1.78941989391881, 0};
Point(p15 + 23) = {21.06708777973298, -1.947927690823731, 0};
Point(p15 + 24) = {21.15673160608119, -2.094213120090741, 0};
Point(p15 + 25) = {21.26815585104222, -2.22467414895778, 0};
Point(p15 + 26) = {21.39861687990926, -2.336098393918809, 0};
Point(p15 + 27) = {21.54490230917627, -2.425742220267021, 0};
Point(p15 + 28) = {21.70341010608119, -2.49139829948692, 0};
Point(p15 + 29) = {21.87023728260701, -2.531449961008078, 0};
Point(p15 + 30) = {22.041276, -2.544911, 0};
Point(p15 + 31) = {22.21231471739299, -2.531449961008078, 0};
Point(p15 + 32) = {22.37914189391881, -2.49139829948692, 0};
Point(p15 + 33) = {22.53764969082373, -2.425742220267022, 0};
Point(p15 + 34) = {22.68393512009074, -2.336098393918809, 0};
Point(p15 + 35) = {22.81439614895778, -2.22467414895778, 0};
Point(p15 + 36) = {22.92582039391881, -2.094213120090742, 0};
Point(p15 + 37) = {23.01546422026702, -1.947927690823732, 0};
Point(p15 + 38) = {23.08112029948692, -1.78941989391881, 0};
Point(p15 + 39) = {23.12117196100808, -1.622592717392992, 0};
Spline(15) = {10, p15 + 1, p15 + 2, p15 + 3, p15 + 4, p15 + 5, p15 + 6, p15 + 7, p15 + 8, p15 + 9, p15 + 10, p15 + 11, p15 + 12, p15 + 13, p15 + 14, p15 + 15, p15 + 16, p15 + 17, p15 + 18, p15 + 19, p15 + 20, p15 + 21, p15 + 22, p15 + 23, p15 + 24, p15 + 25, p15 + 26, p15 + 27, p15 + 28, p15 + 29, p15 + 30, p15 + 31, p15 + 32, p15 + 33, p15 + 34, p15 + 35, p15 + 36, p15 + 37, p15 + 38, p15 + 39, 10};
p16 = newp;
Point(p16 + 1) = {24.7084553300776, 3.005188616686068, 0.1};
Point(p16 + 2) = {24.67382887836709, 3.149418168034885, 0.1};
Point(p16 + 3) = {24.6170662630282, 3.286455243821805, 0.1};
Point(p16 + 4) = {24.53956516803489, 3.412925536440974, 0.1};
Point(p16 + 5) = {24.44323392755727, 3.525714927557271, 0.1};
Point(p16 + 6) = {24.33044453644098, 3.622046168034885, 0.1};
Point(p16 + 7) = {24.20397424382181, 3.6995472630282, 0.1};
Point(p16 + 8) = {24.06693716803489, 3.756309878367091, 0.1};
Point(p16 + 9) = {23.92270761668607, 3.790936330077598, 0.1};
Point(p16 + 10) = {23.774837, 3.802574, 0.1};
Point(p16 + 11) = {23.62696638331393, 3.790936330077597, 0.1};
Point(p16 + 12) = {23.48273683196512, 3.756309878367091, 0.1};
Point(p16 + 13) = {23.3456997561782, 3.6995472630282, 0.1};
Point(p16 + 14) = {23.21922946355903, 3.622046168034885, 0.1};
Point(p16 + 15) = {23.10644007244273, 3.525714927557271, 0.1};
Point(p16 + 16) = {23.01010883196512, 3.412925536440974, 0.1};
Point(p16 + 17) = {22.9326077369718, 3.286455243821805, 0.1};
Point(p16 + 18) = {22.87584512163291, 3.149418168034885, 0.1};
Point(p16 + 19) = {22.84121866992241, 3.005188616686068, 0.1};
Point(p16 + 20) = {22.829581, 2.857318, 0.1};
Point(p16 + 21) = {22.84121866992241, 2.709447383313932, 0.1};
Point(p16 + 22) = {22.87584512163291, 2.565217831965114, 0.1};
Point(p16 + 23) = {22.9326077369718, 2.428180756178195, 0.1};
Point(p16 + 24) = {23.01010883196512, 2.301710463559026, 0.1};
Point(p16 + 25) = {23.10644007244273, 2.188921072442729, 0.1};
Point(p16 + 26) = {23.21922946355903, 2.092589831965115, 0.1};
Point(p16 + 27) = {23.3456997561782, 2.0150887369718, 0.1};
Point(p16 + 28) = {23.48273683196512, 1.958326121632908, 0.1};
Point(p16 + 29) = {23.62696638331393, 1.923699669922402, 0.1};
Point(p16 + 30) = {23.774837, 1.912062, 0.1};
Point(p16 + 31) = {23.92270761668607, 1.923699669922402, 0.1};
Point(p16 + 32) = {24.06693716803489, 1.958326121632908, 0.1};
Point(p16 + 33) = {24.20397424382181, 2.0150887369718, 0.1};
Point(p16 + 34) = {24.33044453644098, 2.092589831965114, 0.1};
Point(p16 + 35) = {24.44323392755727, 2.188921072442728, 0.1};
Point(p16 + 36) = {24.53956516803489, 2.301710463559026, 0.1};
Point(p16 + 37) = {24.6170662630282, 2.428180756178195, 0.1};
Point(p16 + 38) = {24.67382887836709, 2.565217831965114, 0.1};
Point(p16 + 39) = {24.7084553300776, 2.709447383313931, 0.1};
Spline(16) = {11, p16 + 1, p16 + 2, p16 + 3, p16 + 4, p16 + 5, p16 + 6, p16 + 7, p16 + 8, p16 + 9, p16 + 10, p16 + 11, p16 + 12, p16 + 13, p16 + 14, p16 + 15, p16 + 16, p16 + 17, p16 + 18, p16 + 19, p16 + 20, p16 + 21, p16 + 22, p16 + 23, p16 + 24, p16 + 25, p16 + 26, p16 + 27, p16 + 28, p16 + 29, p16 + 30, p16 + 31, p16 + 32, p16 + 33, p16 + 34, p16 + 35, p16 + 36, p16 + 37, p16 + 38, p16 + 39, 11};
Line(17) = {12, 11};
p18 = newp;
Point(p18 + 1) = {24.7084553300776, 3.005188616686068, 0};
Point(p18 + 2) = {24.67382887836709, 3.149418168034885, 0};
Point(p18 + 3) = {24.6170662630282, 3.286455243821805, 0};
Point(p18 + 4) = {24.53956516803489, 3.412925536440974, 0};
Point(p18 + 5) = {24.44323392755727, 3.525714927557271, 0};
Point(p18 + 6) = {24.33044453644098, 3.622046168034885, 0};
Point(p18 + 7) = {24.20397424382181, 3.6995472630282, 0};
Point(p18 + 8) = {24.06693716803489, 3.756309878367091, 0};
Point(p18 + 9) = {23.92270761668607, 3.790936330077598, 0};
Point(p18 + 10) = {23.774837, 3.802574, 0};
Point(p18 + 11) = {23.62696638331393, 3.790936330077597, 0};
Point(p18 + 12) = {23.48273683196512, 3.756309878367091, 0};
Point(p18 + 13) = {23.3456997561782, 3.6995472630282, 0};
Point(p18 + 14) = {23.21922946355903, 3.622046168034885, 0};
Point(p18 + 15) = {23.10644007244273, 3.525714927557271, 0};
Point(p18 + 16) = {23.01010883196512, 3.412925536440974, 0};
Point(p18 + 17) = {22.9326077369718, 3.286455243821805, 0};
Point(p18 + 18) = {22.87584512163291, 3.149418168034885, 0};
Point(p18 + 19) = {22.84121866992241, 3.005188616686068, 0};
Point(p18 + 20) = {22.829581, 2.857318, 0};
Point(p18 + 21) = {22.84121866992241, 2.709447383313932, 0};
Point(p18 + 22) = {22.87584512163291, 2.565217831965114, 0};
Point(p18 + 23) = {22.9326077369718, 2.428180756178195, 0};
Point(p18 + 24) = {23.01010883196512, 2.301710463559026, 0};
Point(p18 + 25) = {23.10644007244273, 2.188921072442729, 0};
Point(p18 + 26) = {23.21922946355903, 2.092589831965115, 0};
Point(p18 + 27) = {23.3456997561782, 2.0150887369718, 0};
Point(p18 + 28) = {23.48273683196512, 1.958326121632908, 0};
Point(p18 + 29) = {23.62696638331393, 1.923699669922402, 0};
Point(p18 + 30) = {23.774837, 1.912062, 0};
Point(p18 + 31) = {23.92270761668607, 1.923699669922402, 0};
Point(p18 + 32) = {24.06693716803489, 1.958326121632908, 0};
Point(p18 + 33) = {24.20397424382181, 2.0150887369718, 0};
Point(p18 + 34) = {24.33044453644098, 2.092589831965114, 0};
Point(p18 + 35) = {24.44323392755727, 2.188921072442728, 0};
Point(p18 + 36) = {24.53956516803489, 2.301710463559026, 0};
Point(p18 + 37) = {24.6170662630282, 2.428180756178195, 0};
Point(p18 + 38) = {24.67382887836709, 2.565217831965114, 0};
Point(p18 + 39) = {24.7084553300776, 2.709447383313931, 0};
Spline(18) = {12, p18 + 1, p18 + 2, p18 + 3, p18 + 4, p18 + 5, p18 + 6, p18 + 7, p18 + 8, p18 + 9, p18 + 10, p18 + 11, p18 + 12, p18 + 13, p18 + 14, p18 + 15, p18 + 16, p18 + 17, p18 + 18, p18 + 19, p18 + 20, p18 + 21, p18 + 22, p18 + 23, p18 + 24, p18 + 25, p18 + 26, p18 + 27, p18 + 28, p18 + 29, p18 + 30, p18 + 31, p18 + 32, p18 + 33, p18 + 34, p18 + 35, p18 + 36, p18 + 37, p18 + 38, p18 + 39, 12};
Line(19) = {14, 13};
Line(20) = {13, 15};
Line(21) = {16, 15};
Line(22) = {14, 16};
Line(23) = {14, 17};
Line(24) = {17, 18};
Line(25) = {13, 18};
Line(26) = {15, 19};
Line(27) = {18, 19};
Line(28) = {16, 20};
Line(29) = {20, 19};
Line(30) = {17, 20};
Curve Loop(7) = {-13, -14, 15, 14};
Surface(7) = {7};
Curve Loop(8) = {13};
Plane Surface(8) = {8};
Curve Loop(9) = {15};
Plane Surface(9) = {9};
Curve Loop(10) = {-16, -17, 18, 17};
Surface(10) = {10};
Curve Loop(11) = {16};
Plane Surface(11) = {11};
Curve Loop(12) = {18};
Plane Surface(12) = {12};
Curve Loop(13) = {-19, 22, 21, -20};
Plane Surface(13) = {13};
Curve Loop(14) = {-23, 19, 25, -24};
Plane Surface(14) = {14};
Curve Loop(15) = {-20, 25, 27, -26};
Plane Surface(15) = {15};
Curve Loop(16) = {-28, 21, 26, -29};
Plane Surface(16) = {16};
Curve Loop(17) = {-22, 23, 30, -28, -15, -18};
Plane Surface(17) = {17};
Curve Loop(18) = {-24, 30, 29, -27};
Plane Surface(18) = {18};
Surface Loop(1) = {13, 14, 15, 16, 17, 18, 7, 10, 8, 11};
Volume(1) = {1};
Surface Loop(2) = {7, 8, 9};
Volume(2) = {2};
Surface Loop(3) = {10, 11, 12};
Volume(3) = {3};
Physical Surface("WALLS") = {13, 18};
Physical Surface("LOAD") = {8, 11};
Physical Surface("BORDER") = {7, 9, 10, 12, 14, 15, 16, 17};
Physical Volume("SOLID") = {1, 2, 3};
