cl__1 = 0.111033;
cl__2 = 0.120118;
cl__3 = 0.480366;
cl__4 = 0.581463;
cl__5 = 3.494943;
cl__6 = 2.866964;
Point(9) = {8.637574000000001, -0.3424720000000003, 0.1, cl__1};
Point(10) = {8.637574000000001, -0.3424720000000003, 0, cl__1};
Point(11) = {11.706297, 3.690655, 0.1, cl__2};
Point(12) = {11.706297, 3.690655, 0, cl__2};
Point(13) = {0.8517130000000001, -4.021308, 1, cl__3};
Point(14) = {0.8517130000000001, -4.021308, 0, cl__3};
Point(15) = {0.8517130000000001, 5.682770000000001, 1, cl__4};
Point(16) = {0.8517130000000001, 5.682770000000001, 0, cl__4};
Point(17) = {30.866629, -4.021308, 0, cl__5};
Point(18) = {30.866629, -4.021308, 1, cl__5};
Point(19) = {30.866629, 5.682770000000001, 1, cl__6};
Point(20) = {30.866629, 5.682770000000001, 0, cl__6};
p13 = newp;
Point(p13 + 1) = {8.62390397058968, -0.1687778075629504, 0.1};
Point(p13 + 2) = {8.583230483851031, 0.0006394573983241059, 0.1};
Point(p13 + 3) = {8.51655505601512, 0.1616081795568105, 0.1};
Point(p13 + 4) = {8.425519457398325, 0.3101647747484063, 0.1};
Point(p13 + 5) = {8.312365286568422, 0.4426512865684217, 0.1};
Point(p13 + 6) = {8.179878774748406, 0.5558054573983241, 0.1};
Point(p13 + 7) = {8.031322179556811, 0.6468410560151189, 0.1};
Point(p13 + 8) = {7.870353457398324, 0.7135164838510305, 0.1};
Point(p13 + 9) = {7.70093619243705, 0.7541899705896805, 0.1};
Point(p13 + 10) = {7.527242, 0.7678600000000001, 0.1};
Point(p13 + 11) = {7.353547807562951, 0.7541899705896805, 0.1};
Point(p13 + 12) = {7.184130542601676, 0.7135164838510307, 0.1};
Point(p13 + 13) = {7.02316182044319, 0.646841056015119, 0.1};
Point(p13 + 14) = {6.874605225251594, 0.5558054573983242, 0.1};
Point(p13 + 15) = {6.742118713431578, 0.4426512865684218, 0.1};
Point(p13 + 16) = {6.628964542601676, 0.3101647747484064, 0.1};
Point(p13 + 17) = {6.537928943984881, 0.1616081795568106, 0.1};
Point(p13 + 18) = {6.47125351614897, 0.0006394573983242724, 0.1};
Point(p13 + 19) = {6.430580029410319, -0.1687778075629502, 0.1};
Point(p13 + 20) = {6.41691, -0.3424719999999999, 0.1};
Point(p13 + 21) = {6.430580029410319, -0.5161661924370495, 0.1};
Point(p13 + 22) = {6.47125351614897, -0.6855834573983245, 0.1};
Point(p13 + 23) = {6.537928943984881, -0.8465521795568099, 0.1};
Point(p13 + 24) = {6.628964542601676, -0.9951087747484062, 0.1};
Point(p13 + 25) = {6.742118713431578, -1.127595286568422, 0.1};
Point(p13 + 26) = {6.874605225251594, -1.240749457398324, 0.1};
Point(p13 + 27) = {7.02316182044319, -1.331785056015119, 0.1};
Point(p13 + 28) = {7.184130542601676, -1.39846048385103, 0.1};
Point(p13 + 29) = {7.353547807562951, -1.439133970589681, 0.1};
Point(p13 + 30) = {7.527242, -1.452804, 0.1};
Point(p13 + 31) = {7.70093619243705, -1.439133970589681, 0.1};
Point(p13 + 32) = {7.870353457398324, -1.398460483851031, 0.1};
Point(p13 + 33) = {8.03132217955681, -1.331785056015119, 0.1};
Point(p13 + 34) = {8.179878774748406, -1.240749457398324, 0.1};
Point(p13 + 35) = {8.312365286568422, -1.127595286568422, 0.1};
Point(p13 + 36) = {8.425519457398325, -0.9951087747484064, 0.1};
Point(p13 + 37) = {8.516555056015118, -0.8465521795568107, 0.1};
Point(p13 + 38) = {8.583230483851031, -0.6855834573983244, 0.1};
Point(p13 + 39) = {8.62390397058968, -0.51616619243705, 0.1};
Spline(13) = {9, p13 + 1, p13 + 2, p13 + 3, p13 + 4, p13 + 5, p13 + 6, p13 + 7, p13 + 8, p13 + 9, p13 + 10, p13 + 11, p13 + 12, p13 + 13, p13 + 14, p13 + 15, p13 + 16, p13 + 17, p13 + 18, p13 + 19, p13 + 20, p13 + 21, p13 + 22, p13 + 23, p13 + 24, p13 + 25, p13 + 26, p13 + 27, p13 + 28, p13 + 29, p13 + 30, p13 + 31, p13 + 32, p13 + 33, p13 + 34, p13 + 35, p13 + 36, p13 + 37, p13 + 38, p13 + 39, 9};
Line(14) = {10, 9};
p15 = newp;
Point(p15 + 1) = {8.62390397058968, -0.1687778075629504, 0};
Point(p15 + 2) = {8.583230483851031, 0.0006394573983241059, 0};
Point(p15 + 3) = {8.51655505601512, 0.1616081795568105, 0};
Point(p15 + 4) = {8.425519457398325, 0.3101647747484063, 0};
Point(p15 + 5) = {8.312365286568422, 0.4426512865684217, 0};
Point(p15 + 6) = {8.179878774748406, 0.5558054573983241, 0};
Point(p15 + 7) = {8.031322179556811, 0.6468410560151189, 0};
Point(p15 + 8) = {7.870353457398324, 0.7135164838510305, 0};
Point(p15 + 9) = {7.70093619243705, 0.7541899705896805, 0};
Point(p15 + 10) = {7.527242, 0.7678600000000001, 0};
Point(p15 + 11) = {7.353547807562951, 0.7541899705896805, 0};
Point(p15 + 12) = {7.184130542601676, 0.7135164838510307, 0};
Point(p15 + 13) = {7.02316182044319, 0.646841056015119, 0};
Point(p15 + 14) = {6.874605225251594, 0.5558054573983242, 0};
Point(p15 + 15) = {6.742118713431578, 0.4426512865684218, 0};
Point(p15 + 16) = {6.628964542601676, 0.3101647747484064, 0};
Point(p15 + 17) = {6.537928943984881, 0.1616081795568106, 0};
Point(p15 + 18) = {6.47125351614897, 0.0006394573983242724, 0};
Point(p15 + 19) = {6.430580029410319, -0.1687778075629502, 0};
Point(p15 + 20) = {6.41691, -0.3424719999999999, 0};
Point(p15 + 21) = {6.430580029410319, -0.5161661924370495, 0};
Point(p15 + 22) = {6.47125351614897, -0.6855834573983245, 0};
Point(p15 + 23) = {6.537928943984881, -0.8465521795568099, 0};
Point(p15 + 24) = {6.628964542601676, -0.9951087747484062, 0};
Point(p15 + 25) = {6.742118713431578, -1.127595286568422, 0};
Point(p15 + 26) = {6.874605225251594, -1.240749457398324, 0};
Point(p15 + 27) = {7.02316182044319, -1.331785056015119, 0};
Point(p15 + 28) = {7.184130542601676, -1.39846048385103, 0};
Point(p15 + 29) = {7.353547807562951, -1.439133970589681, 0};
Point(p15 + 30) = {7.527242, -1.452804, 0};
Point(p15 + 31) = {7.70093619243705, -1.439133970589681, 0};
Point(p15 + 32) = {7.870353457398324, -1.398460483851031, 0};
Point(p15 + 33) = {8.03132217955681, -1.331785056015119, 0};
Point(p15 + 34) = {8.179878774748406, -1.240749457398324, 0};
Point(p15 + 35) = {8.312365286568422, -1.127595286568422, 0};
Point(p15 + 36) = {8.425519457398325, -0.9951087747484064, 0};
Point(p15 + 37) = {8.516555056015118, -0.8465521795568107, 0};
Point(p15 + 38) = {8.583230483851031, -0.6855834573983244, 0};
Point(p15 + 39) = {8.62390397058968, -0.51616619243705, 0};
Spline(15) = {10, p15 + 1, p15 + 2, p15 + 3, p15 + 4, p15 + 5, p15 + 6, p15 + 7, p15 + 8, p15 + 9, p15 + 10, p15 + 11, p15 + 12, p15 + 13, p15 + 14, p15 + 15, p15 + 16, p15 + 17, p15 + 18, p15 + 19, p15 + 20, p15 + 21, p15 + 22, p15 + 23, p15 + 24, p15 + 25, p15 + 26, p15 + 27, p15 + 28, p15 + 29, p15 + 30, p15 + 31, p15 + 32, p15 + 33, p15 + 34, p15 + 35, p15 + 36, p15 + 37, p15 + 38, p15 + 39, 10};
p16 = newp;
Point(p16 + 1) = {11.69150843170943, 3.878561576454885, 0.1};
Point(p16 + 2) = {11.64750687046948, 4.061841269371277, 0.1};
Point(p16 + 3) = {11.57537578075068, 4.235981124439148, 0.1};
Point(p16 + 4) = {11.47689126937128, 4.396693240489682, 0.1};
Point(p16 + 5) = {11.35447835185278, 4.540020351852782, 0.1};
Point(p16 + 6) = {11.21115124048968, 4.662433269371276, 0.1};
Point(p16 + 7) = {11.05043912443915, 4.76091778075068, 0.1};
Point(p16 + 8) = {10.87629926937128, 4.833048870469478, 0.1};
Point(p16 + 9) = {10.69301957645489, 4.87705043170943, 0.1};
Point(p16 + 10) = {10.505113, 4.891839, 0.1};
Point(p16 + 11) = {10.31720642354511, 4.87705043170943, 0.1};
Point(p16 + 12) = {10.13392673062872, 4.833048870469478, 0.1};
Point(p16 + 13) = {9.959786875560852, 4.760917780750681, 0.1};
Point(p16 + 14) = {9.799074759510319, 4.662433269371277, 0.1};
Point(p16 + 15) = {9.655747648147218, 4.540020351852782, 0.1};
Point(p16 + 16) = {9.533334730628724, 4.396693240489682, 0.1};
Point(p16 + 17) = {9.43485021924932, 4.235981124439148, 0.1};
Point(p16 + 18) = {9.362719129530522, 4.061841269371277, 0.1};
Point(p16 + 19) = {9.31871756829057, 3.878561576454885, 0.1};
Point(p16 + 20) = {9.303929, 3.690655, 0.1};
Point(p16 + 21) = {9.31871756829057, 3.502748423545115, 0.1};
Point(p16 + 22) = {9.362719129530522, 3.319468730628723, 0.1};
Point(p16 + 23) = {9.434850219249318, 3.145328875560853, 0.1};
Point(p16 + 24) = {9.533334730628724, 2.984616759510318, 0.1};
Point(p16 + 25) = {9.655747648147218, 2.841289648147218, 0.1};
Point(p16 + 26) = {9.799074759510317, 2.718876730628723, 0.1};
Point(p16 + 27) = {9.959786875560852, 2.62039221924932, 0.1};
Point(p16 + 28) = {10.13392673062872, 2.548261129530522, 0.1};
Point(p16 + 29) = {10.31720642354511, 2.50425956829057, 0.1};
Point(p16 + 30) = {10.505113, 2.489471, 0.1};
Point(p16 + 31) = {10.69301957645488, 2.50425956829057, 0.1};
Point(p16 + 32) = {10.87629926937128, 2.548261129530522, 0.1};
Point(p16 + 33) = {11.05043912443915, 2.620392219249319, 0.1};
Point(p16 + 34) = {11.21115124048968, 2.718876730628723, 0.1};
Point(p16 + 35) = {11.35447835185278, 2.841289648147218, 0.1};
Point(p16 + 36) = {11.47689126937128, 2.984616759510318, 0.1};
Point(p16 + 37) = {11.57537578075068, 3.145328875560852, 0.1};
Point(p16 + 38) = {11.64750687046948, 3.319468730628723, 0.1};
Point(p16 + 39) = {11.69150843170943, 3.502748423545115, 0.1};
Spline(16) = {11, p16 + 1, p16 + 2, p16 + 3, p16 + 4, p16 + 5, p16 + 6, p16 + 7, p16 + 8, p16 + 9, p16 + 10, p16 + 11, p16 + 12, p16 + 13, p16 + 14, p16 + 15, p16 + 16, p16 + 17, p16 + 18, p16 + 19, p16 + 20, p16 + 21, p16 + 22, p16 + 23, p16 + 24, p16 + 25, p16 + 26, p16 + 27, p16 + 28, p16 + 29, p16 + 30, p16 + 31, p16 + 32, p16 + 33, p16 + 34, p16 + 35, p16 + 36, p16 + 37, p16 + 38, p16 + 39, 11};
Line(17) = {12, 11};
p18 = newp;
Point(p18 + 1) = {11.69150843170943, 3.878561576454885, 0};
Point(p18 + 2) = {11.64750687046948, 4.061841269371277, 0};
Point(p18 + 3) = {11.57537578075068, 4.235981124439148, 0};
Point(p18 + 4) = {11.47689126937128, 4.396693240489682, 0};
Point(p18 + 5) = {11.35447835185278, 4.540020351852782, 0};
Point(p18 + 6) = {11.21115124048968, 4.662433269371276, 0};
Point(p18 + 7) = {11.05043912443915, 4.76091778075068, 0};
Point(p18 + 8) = {10.87629926937128, 4.833048870469478, 0};
Point(p18 + 9) = {10.69301957645489, 4.87705043170943, 0};
Point(p18 + 10) = {10.505113, 4.891839, 0};
Point(p18 + 11) = {10.31720642354511, 4.87705043170943, 0};
Point(p18 + 12) = {10.13392673062872, 4.833048870469478, 0};
Point(p18 + 13) = {9.959786875560852, 4.760917780750681, 0};
Point(p18 + 14) = {9.799074759510319, 4.662433269371277, 0};
Point(p18 + 15) = {9.655747648147218, 4.540020351852782, 0};
Point(p18 + 16) = {9.533334730628724, 4.396693240489682, 0};
Point(p18 + 17) = {9.43485021924932, 4.235981124439148, 0};
Point(p18 + 18) = {9.362719129530522, 4.061841269371277, 0};
Point(p18 + 19) = {9.31871756829057, 3.878561576454885, 0};
Point(p18 + 20) = {9.303929, 3.690655, 0};
Point(p18 + 21) = {9.31871756829057, 3.502748423545115, 0};
Point(p18 + 22) = {9.362719129530522, 3.319468730628723, 0};
Point(p18 + 23) = {9.434850219249318, 3.145328875560853, 0};
Point(p18 + 24) = {9.533334730628724, 2.984616759510318, 0};
Point(p18 + 25) = {9.655747648147218, 2.841289648147218, 0};
Point(p18 + 26) = {9.799074759510317, 2.718876730628723, 0};
Point(p18 + 27) = {9.959786875560852, 2.62039221924932, 0};
Point(p18 + 28) = {10.13392673062872, 2.548261129530522, 0};
Point(p18 + 29) = {10.31720642354511, 2.50425956829057, 0};
Point(p18 + 30) = {10.505113, 2.489471, 0};
Point(p18 + 31) = {10.69301957645488, 2.50425956829057, 0};
Point(p18 + 32) = {10.87629926937128, 2.548261129530522, 0};
Point(p18 + 33) = {11.05043912443915, 2.620392219249319, 0};
Point(p18 + 34) = {11.21115124048968, 2.718876730628723, 0};
Point(p18 + 35) = {11.35447835185278, 2.841289648147218, 0};
Point(p18 + 36) = {11.47689126937128, 2.984616759510318, 0};
Point(p18 + 37) = {11.57537578075068, 3.145328875560852, 0};
Point(p18 + 38) = {11.64750687046948, 3.319468730628723, 0};
Point(p18 + 39) = {11.69150843170943, 3.502748423545115, 0};
Spline(18) = {12, p18 + 1, p18 + 2, p18 + 3, p18 + 4, p18 + 5, p18 + 6, p18 + 7, p18 + 8, p18 + 9, p18 + 10, p18 + 11, p18 + 12, p18 + 13, p18 + 14, p18 + 15, p18 + 16, p18 + 17, p18 + 18, p18 + 19, p18 + 20, p18 + 21, p18 + 22, p18 + 23, p18 + 24, p18 + 25, p18 + 26, p18 + 27, p18 + 28, p18 + 29, p18 + 30, p18 + 31, p18 + 32, p18 + 33, p18 + 34, p18 + 35, p18 + 36, p18 + 37, p18 + 38, p18 + 39, 12};
Line(19) = {14, 13};
Line(20) = {13, 15};
Line(21) = {16, 15};
Line(22) = {14, 16};
Line(23) = {14, 17};
Line(24) = {17, 18};
Line(25) = {13, 18};
Line(26) = {15, 19};
Line(27) = {18, 19};
Line(28) = {16, 20};
Line(29) = {20, 19};
Line(30) = {17, 20};
Curve Loop(7) = {-13, -14, 15, 14};
Surface(7) = {7};
Curve Loop(8) = {13};
Plane Surface(8) = {8};
Curve Loop(9) = {15};
Plane Surface(9) = {9};
Curve Loop(10) = {-16, -17, 18, 17};
Surface(10) = {10};
Curve Loop(11) = {16};
Plane Surface(11) = {11};
Curve Loop(12) = {18};
Plane Surface(12) = {12};
Curve Loop(13) = {-19, 22, 21, -20};
Plane Surface(13) = {13};
Curve Loop(14) = {-23, 19, 25, -24};
Plane Surface(14) = {14};
Curve Loop(15) = {-20, 25, 27, -26};
Plane Surface(15) = {15};
Curve Loop(16) = {-28, 21, 26, -29};
Plane Surface(16) = {16};
Curve Loop(17) = {-22, 23, 30, -28, -15, -18};
Plane Surface(17) = {17};
Curve Loop(18) = {-24, 30, 29, -27};
Plane Surface(18) = {18};
Surface Loop(1) = {13, 14, 15, 16, 17, 18, 7, 10, 8, 11};
Volume(1) = {1};
Surface Loop(2) = {7, 8, 9};
Volume(2) = {2};
Surface Loop(3) = {10, 11, 12};
Volume(3) = {3};
Physical Surface("WALLS") = {13, 18};
Physical Surface("LOAD") = {8, 11};
Physical Surface("BORDER") = {7, 9, 10, 12, 14, 15, 16, 17};
Physical Volume("SOLID") = {1, 2, 3};
