cl__1 = 0.100707;
cl__2 = 0.129182;
cl__3 = 2.81349;
cl__4 = 2.938204;
cl__5 = 0.599328;
cl__6 = 0.556675;
Point(9) = {27.322144, 1.111053, 0.1, cl__1};
Point(10) = {27.322144, 1.111053, 0, cl__1};
Point(11) = {15.528211, 0.5247299999999997, 0.1, cl__2};
Point(12) = {15.528211, 0.5247299999999997, 0, cl__2};
Point(13) = {0.05689, -3.998616, 1, cl__3};
Point(14) = {0.05689, -3.998616, 0, cl__3};
Point(15) = {0.05689, 5.662008999999999, 1, cl__4};
Point(16) = {0.05689, 5.662008999999999, 0, cl__4};
Point(17) = {30.76731, -3.998616, 0, cl__5};
Point(18) = {30.76731, -3.998616, 1, cl__5};
Point(19) = {30.76731, 5.662008999999999, 1, cl__6};
Point(20) = {30.76731, 5.662008999999999, 0, cl__6};
p13 = newp;
Point(p13 + 1) = {27.30974532178647, 1.268593143839135, 0.1};
Point(p13 + 2) = {27.27285458375233, 1.42225412649119, 0.1};
Point(p13 + 3) = {27.21238015830133, 1.568252304591706, 0.1};
Point(p13 + 4) = {27.12981112649119, 1.702992718455676, 0.1};
Point(p13 + 5) = {27.02718061191598, 1.823157611915974, 0.1};
Point(p13 + 6) = {26.90701571845568, 1.92578812649119, 0.1};
Point(p13 + 7) = {26.77227530459171, 2.008357158301331, 0.1};
Point(p13 + 8) = {26.62627712649119, 2.068831583752328, 0.1};
Point(p13 + 9) = {26.47261614383914, 2.105722321786464, 0.1};
Point(p13 + 10) = {26.315076, 2.118121, 0.1};
Point(p13 + 11) = {26.15753585616087, 2.105722321786464, 0.1};
Point(p13 + 12) = {26.00387487350881, 2.068831583752328, 0.1};
Point(p13 + 13) = {25.85787669540829, 2.008357158301331, 0.1};
Point(p13 + 14) = {25.72313628154432, 1.92578812649119, 0.1};
Point(p13 + 15) = {25.60297138808403, 1.823157611915974, 0.1};
Point(p13 + 16) = {25.50034087350881, 1.702992718455677, 0.1};
Point(p13 + 17) = {25.41777184169867, 1.568252304591706, 0.1};
Point(p13 + 18) = {25.35729741624767, 1.42225412649119, 0.1};
Point(p13 + 19) = {25.32040667821354, 1.268593143839135, 0.1};
Point(p13 + 20) = {25.308008, 1.111053, 0.1};
Point(p13 + 21) = {25.32040667821354, 0.953512856160865, 0.1};
Point(p13 + 22) = {25.35729741624768, 0.7998518735088103, 0.1};
Point(p13 + 23) = {25.41777184169867, 0.6538536954082946, 0.1};
Point(p13 + 24) = {25.50034087350881, 0.5191132815443238, 0.1};
Point(p13 + 25) = {25.60297138808403, 0.398948388084026, 0.1};
Point(p13 + 26) = {25.72313628154432, 0.2963178735088106, 0.1};
Point(p13 + 27) = {25.85787669540829, 0.2137488416986688, 0.1};
Point(p13 + 28) = {26.00387487350881, 0.1532744162476724, 0.1};
Point(p13 + 29) = {26.15753585616087, 0.1163836782135359, 0.1};
Point(p13 + 30) = {26.315076, 0.103985, 0.1};
Point(p13 + 31) = {26.47261614383914, 0.1163836782135358, 0.1};
Point(p13 + 32) = {26.62627712649119, 0.1532744162476722, 0.1};
Point(p13 + 33) = {26.77227530459171, 0.2137488416986686, 0.1};
Point(p13 + 34) = {26.90701571845568, 0.2963178735088103, 0.1};
Point(p13 + 35) = {27.02718061191598, 0.3989483880840258, 0.1};
Point(p13 + 36) = {27.12981112649119, 0.5191132815443236, 0.1};
Point(p13 + 37) = {27.21238015830133, 0.653853695408294, 0.1};
Point(p13 + 38) = {27.27285458375233, 0.7998518735088103, 0.1};
Point(p13 + 39) = {27.30974532178647, 0.9535128561608646, 0.1};
Spline(13) = {9, p13 + 1, p13 + 2, p13 + 3, p13 + 4, p13 + 5, p13 + 6, p13 + 7, p13 + 8, p13 + 9, p13 + 10, p13 + 11, p13 + 12, p13 + 13, p13 + 14, p13 + 15, p13 + 16, p13 + 17, p13 + 18, p13 + 19, p13 + 20, p13 + 21, p13 + 22, p13 + 23, p13 + 24, p13 + 25, p13 + 26, p13 + 27, p13 + 28, p13 + 29, p13 + 30, p13 + 31, p13 + 32, p13 + 33, p13 + 34, p13 + 35, p13 + 36, p13 + 37, p13 + 38, p13 + 39, 9};
Line(14) = {10, 9};
p15 = newp;
Point(p15 + 1) = {27.30974532178647, 1.268593143839135, 0};
Point(p15 + 2) = {27.27285458375233, 1.42225412649119, 0};
Point(p15 + 3) = {27.21238015830133, 1.568252304591706, 0};
Point(p15 + 4) = {27.12981112649119, 1.702992718455676, 0};
Point(p15 + 5) = {27.02718061191598, 1.823157611915974, 0};
Point(p15 + 6) = {26.90701571845568, 1.92578812649119, 0};
Point(p15 + 7) = {26.77227530459171, 2.008357158301331, 0};
Point(p15 + 8) = {26.62627712649119, 2.068831583752328, 0};
Point(p15 + 9) = {26.47261614383914, 2.105722321786464, 0};
Point(p15 + 10) = {26.315076, 2.118121, 0};
Point(p15 + 11) = {26.15753585616087, 2.105722321786464, 0};
Point(p15 + 12) = {26.00387487350881, 2.068831583752328, 0};
Point(p15 + 13) = {25.85787669540829, 2.008357158301331, 0};
Point(p15 + 14) = {25.72313628154432, 1.92578812649119, 0};
Point(p15 + 15) = {25.60297138808403, 1.823157611915974, 0};
Point(p15 + 16) = {25.50034087350881, 1.702992718455677, 0};
Point(p15 + 17) = {25.41777184169867, 1.568252304591706, 0};
Point(p15 + 18) = {25.35729741624767, 1.42225412649119, 0};
Point(p15 + 19) = {25.32040667821354, 1.268593143839135, 0};
Point(p15 + 20) = {25.308008, 1.111053, 0};
Point(p15 + 21) = {25.32040667821354, 0.953512856160865, 0};
Point(p15 + 22) = {25.35729741624768, 0.7998518735088103, 0};
Point(p15 + 23) = {25.41777184169867, 0.6538536954082946, 0};
Point(p15 + 24) = {25.50034087350881, 0.5191132815443238, 0};
Point(p15 + 25) = {25.60297138808403, 0.398948388084026, 0};
Point(p15 + 26) = {25.72313628154432, 0.2963178735088106, 0};
Point(p15 + 27) = {25.85787669540829, 0.2137488416986688, 0};
Point(p15 + 28) = {26.00387487350881, 0.1532744162476724, 0};
Point(p15 + 29) = {26.15753585616087, 0.1163836782135359, 0};
Point(p15 + 30) = {26.315076, 0.103985, 0};
Point(p15 + 31) = {26.47261614383914, 0.1163836782135358, 0};
Point(p15 + 32) = {26.62627712649119, 0.1532744162476722, 0};
Point(p15 + 33) = {26.77227530459171, 0.2137488416986686, 0};
Point(p15 + 34) = {26.90701571845568, 0.2963178735088103, 0};
Point(p15 + 35) = {27.02718061191598, 0.3989483880840258, 0};
Point(p15 + 36) = {27.12981112649119, 0.5191132815443236, 0};
Point(p15 + 37) = {27.21238015830133, 0.653853695408294, 0};
Point(p15 + 38) = {27.27285458375233, 0.7998518735088103, 0};
Point(p15 + 39) = {27.30974532178647, 0.9535128561608646, 0};
Spline(15) = {10, p15 + 1, p15 + 2, p15 + 3, p15 + 4, p15 + 5, p15 + 6, p15 + 7, p15 + 8, p15 + 9, p15 + 10, p15 + 11, p15 + 12, p15 + 13, p15 + 14, p15 + 15, p15 + 16, p15 + 17, p15 + 18, p15 + 19, p15 + 20, p15 + 21, p15 + 22, p15 + 23, p15 + 24, p15 + 25, p15 + 26, p15 + 27, p15 + 28, p15 + 29, p15 + 30, p15 + 31, p15 + 32, p15 + 33, p15 + 34, p15 + 35, p15 + 36, p15 + 37, p15 + 38, p15 + 39, 10};
p16 = newp;
Point(p16 + 1) = {15.51230657677093, 0.726814857759341, 0.1};
Point(p16 + 2) = {15.46498492676737, 0.9239237156394557, 0.1};
Point(p16 + 3) = {15.38741126606397, 1.111203099392542, 0.1};
Point(p16 + 4) = {15.28149571563945, 1.284041569045958, 0.1};
Point(p16 + 5) = {15.14984626785884, 1.438183267858843, 0.1};
Point(p16 + 6) = {14.99570456904596, 1.569832715639456, 0.1};
Point(p16 + 7) = {14.82286609939254, 1.675748266063969, 0.1};
Point(p16 + 8) = {14.63558671563946, 1.753321926767373, 0.1};
Point(p16 + 9) = {14.43847785775934, 1.80064357677093, 0.1};
Point(p16 + 10) = {14.236393, 1.816548, 0.1};
Point(p16 + 11) = {14.03430814224066, 1.80064357677093, 0.1};
Point(p16 + 12) = {13.83719928436054, 1.753321926767373, 0.1};
Point(p16 + 13) = {13.64991990060746, 1.675748266063969, 0.1};
Point(p16 + 14) = {13.47708143095404, 1.569832715639456, 0.1};
Point(p16 + 15) = {13.32293973214116, 1.438183267858844, 0.1};
Point(p16 + 16) = {13.19129028436054, 1.284041569045958, 0.1};
Point(p16 + 17) = {13.08537473393603, 1.111203099392542, 0.1};
Point(p16 + 18) = {13.00780107323263, 0.923923715639456, 0.1};
Point(p16 + 19) = {12.96047942322907, 0.7268148577593412, 0.1};
Point(p16 + 20) = {12.944575, 0.5247300000000001, 0.1};
Point(p16 + 21) = {12.96047942322907, 0.3226451422406592, 0.1};
Point(p16 + 22) = {13.00780107323263, 0.1255362843605438, 0.1};
Point(p16 + 23) = {13.08537473393603, -0.06174309939254119, 0.1};
Point(p16 + 24) = {13.19129028436054, -0.2345815690459578, 0.1};
Point(p16 + 25) = {13.32293973214116, -0.3887232678588433, 0.1};
Point(p16 + 26) = {13.47708143095404, -0.5203727156394556, 0.1};
Point(p16 + 27) = {13.64991990060746, -0.6262882660639687, 0.1};
Point(p16 + 28) = {13.83719928436054, -0.7038619267673726, 0.1};
Point(p16 + 29) = {14.03430814224066, -0.7511835767709295, 0.1};
Point(p16 + 30) = {14.236393, -0.7670879999999999, 0.1};
Point(p16 + 31) = {14.43847785775934, -0.7511835767709295, 0.1};
Point(p16 + 32) = {14.63558671563946, -0.7038619267673726, 0.1};
Point(p16 + 33) = {14.82286609939254, -0.6262882660639691, 0.1};
Point(p16 + 34) = {14.99570456904596, -0.5203727156394559, 0.1};
Point(p16 + 35) = {15.14984626785884, -0.3887232678588436, 0.1};
Point(p16 + 36) = {15.28149571563945, -0.2345815690459582, 0.1};
Point(p16 + 37) = {15.38741126606397, -0.06174309939254197, 0.1};
Point(p16 + 38) = {15.46498492676737, 0.125536284360544, 0.1};
Point(p16 + 39) = {15.51230657677093, 0.3226451422406588, 0.1};
Spline(16) = {11, p16 + 1, p16 + 2, p16 + 3, p16 + 4, p16 + 5, p16 + 6, p16 + 7, p16 + 8, p16 + 9, p16 + 10, p16 + 11, p16 + 12, p16 + 13, p16 + 14, p16 + 15, p16 + 16, p16 + 17, p16 + 18, p16 + 19, p16 + 20, p16 + 21, p16 + 22, p16 + 23, p16 + 24, p16 + 25, p16 + 26, p16 + 27, p16 + 28, p16 + 29, p16 + 30, p16 + 31, p16 + 32, p16 + 33, p16 + 34, p16 + 35, p16 + 36, p16 + 37, p16 + 38, p16 + 39, 11};
Line(17) = {12, 11};
p18 = newp;
Point(p18 + 1) = {15.51230657677093, 0.726814857759341, 0};
Point(p18 + 2) = {15.46498492676737, 0.9239237156394557, 0};
Point(p18 + 3) = {15.38741126606397, 1.111203099392542, 0};
Point(p18 + 4) = {15.28149571563945, 1.284041569045958, 0};
Point(p18 + 5) = {15.14984626785884, 1.438183267858843, 0};
Point(p18 + 6) = {14.99570456904596, 1.569832715639456, 0};
Point(p18 + 7) = {14.82286609939254, 1.675748266063969, 0};
Point(p18 + 8) = {14.63558671563946, 1.753321926767373, 0};
Point(p18 + 9) = {14.43847785775934, 1.80064357677093, 0};
Point(p18 + 10) = {14.236393, 1.816548, 0};
Point(p18 + 11) = {14.03430814224066, 1.80064357677093, 0};
Point(p18 + 12) = {13.83719928436054, 1.753321926767373, 0};
Point(p18 + 13) = {13.64991990060746, 1.675748266063969, 0};
Point(p18 + 14) = {13.47708143095404, 1.569832715639456, 0};
Point(p18 + 15) = {13.32293973214116, 1.438183267858844, 0};
Point(p18 + 16) = {13.19129028436054, 1.284041569045958, 0};
Point(p18 + 17) = {13.08537473393603, 1.111203099392542, 0};
Point(p18 + 18) = {13.00780107323263, 0.923923715639456, 0};
Point(p18 + 19) = {12.96047942322907, 0.7268148577593412, 0};
Point(p18 + 20) = {12.944575, 0.5247300000000001, 0};
Point(p18 + 21) = {12.96047942322907, 0.3226451422406592, 0};
Point(p18 + 22) = {13.00780107323263, 0.1255362843605438, 0};
Point(p18 + 23) = {13.08537473393603, -0.06174309939254119, 0};
Point(p18 + 24) = {13.19129028436054, -0.2345815690459578, 0};
Point(p18 + 25) = {13.32293973214116, -0.3887232678588433, 0};
Point(p18 + 26) = {13.47708143095404, -0.5203727156394556, 0};
Point(p18 + 27) = {13.64991990060746, -0.6262882660639687, 0};
Point(p18 + 28) = {13.83719928436054, -0.7038619267673726, 0};
Point(p18 + 29) = {14.03430814224066, -0.7511835767709295, 0};
Point(p18 + 30) = {14.236393, -0.7670879999999999, 0};
Point(p18 + 31) = {14.43847785775934, -0.7511835767709295, 0};
Point(p18 + 32) = {14.63558671563946, -0.7038619267673726, 0};
Point(p18 + 33) = {14.82286609939254, -0.6262882660639691, 0};
Point(p18 + 34) = {14.99570456904596, -0.5203727156394559, 0};
Point(p18 + 35) = {15.14984626785884, -0.3887232678588436, 0};
Point(p18 + 36) = {15.28149571563945, -0.2345815690459582, 0};
Point(p18 + 37) = {15.38741126606397, -0.06174309939254197, 0};
Point(p18 + 38) = {15.46498492676737, 0.125536284360544, 0};
Point(p18 + 39) = {15.51230657677093, 0.3226451422406588, 0};
Spline(18) = {12, p18 + 1, p18 + 2, p18 + 3, p18 + 4, p18 + 5, p18 + 6, p18 + 7, p18 + 8, p18 + 9, p18 + 10, p18 + 11, p18 + 12, p18 + 13, p18 + 14, p18 + 15, p18 + 16, p18 + 17, p18 + 18, p18 + 19, p18 + 20, p18 + 21, p18 + 22, p18 + 23, p18 + 24, p18 + 25, p18 + 26, p18 + 27, p18 + 28, p18 + 29, p18 + 30, p18 + 31, p18 + 32, p18 + 33, p18 + 34, p18 + 35, p18 + 36, p18 + 37, p18 + 38, p18 + 39, 12};
Line(19) = {14, 13};
Line(20) = {13, 15};
Line(21) = {16, 15};
Line(22) = {14, 16};
Line(23) = {14, 17};
Line(24) = {17, 18};
Line(25) = {13, 18};
Line(26) = {15, 19};
Line(27) = {18, 19};
Line(28) = {16, 20};
Line(29) = {20, 19};
Line(30) = {17, 20};
Curve Loop(7) = {-13, -14, 15, 14};
Surface(7) = {7};
Curve Loop(8) = {13};
Plane Surface(8) = {8};
Curve Loop(9) = {15};
Plane Surface(9) = {9};
Curve Loop(10) = {-16, -17, 18, 17};
Surface(10) = {10};
Curve Loop(11) = {16};
Plane Surface(11) = {11};
Curve Loop(12) = {18};
Plane Surface(12) = {12};
Curve Loop(13) = {-19, 22, 21, -20};
Plane Surface(13) = {13};
Curve Loop(14) = {-23, 19, 25, -24};
Plane Surface(14) = {14};
Curve Loop(15) = {-20, 25, 27, -26};
Plane Surface(15) = {15};
Curve Loop(16) = {-28, 21, 26, -29};
Plane Surface(16) = {16};
Curve Loop(17) = {-22, 23, 30, -28, -18, -15};
Plane Surface(17) = {17};
Curve Loop(18) = {-24, 30, 29, -27};
Plane Surface(18) = {18};
Surface Loop(1) = {13, 14, 15, 16, 17, 18, 10, 7, 11, 8};
Volume(1) = {1};
Surface Loop(2) = {7, 8, 9};
Volume(2) = {2};
Surface Loop(3) = {10, 11, 12};
Volume(3) = {3};
Physical Surface("WALLS") = {13, 18};
Physical Surface("LOAD") = {8, 11};
Physical Surface("BORDER") = {7, 9, 10, 12, 14, 15, 16, 17};
Physical Volume("SOLID") = {1, 2, 3};
