cl__1 = 0.065359;
cl__2 = 0.079455;
cl__3 = 0.874591;
cl__4 = 0.916459;
cl__5 = 1.531074;
cl__6 = 1.178874;
Point(9) = {19.164914, 2.591081, 0.1, cl__1};
Point(10) = {19.164914, 2.591081, 0, cl__1};
Point(11) = {12.47656, -0.5519390000000002, 0.1, cl__2};
Point(12) = {12.47656, -0.5519390000000002, 0, cl__2};
Point(13) = {0.265265, -3.530521, 1, cl__3};
Point(14) = {0.265265, -3.530521, 0, cl__3};
Point(15) = {0.265265, 4.093567999999999, 1, cl__4};
Point(16) = {0.265265, 4.093567999999999, 0, cl__4};
Point(17) = {32.375483, -3.530521, 0, cl__5};
Point(18) = {32.375483, -3.530521, 1, cl__5};
Point(19) = {32.375483, 4.093567999999999, 1, cl__6};
Point(20) = {32.375483, 4.093567999999999, 0, cl__6};
p13 = newp;
Point(p13 + 1) = {19.15686722252957, 2.693325002005644, 0.1};
Point(p13 + 2) = {19.13292502848535, 2.793051417353522, 0.1};
Point(p13 + 3) = {19.09367695414428, 2.88780465072477, 0.1};
Point(p13 + 4) = {19.04008941735352, 2.975251563045838, 0.1};
Point(p13 + 5) = {18.97348192111571, 3.053238921115716, 0.1};
Point(p13 + 6) = {18.89549456304584, 3.119846417353522, 0.1};
Point(p13 + 7) = {18.80804765072477, 3.173433954144275, 0.1};
Point(p13 + 8) = {18.71329441735352, 3.212682028485349, 0.1};
Point(p13 + 9) = {18.61356800200564, 3.236624222529576, 0.1};
Point(p13 + 10) = {18.511324, 3.244671, 0.1};
Point(p13 + 11) = {18.40907999799435, 3.236624222529576, 0.1};
Point(p13 + 12) = {18.30935358264648, 3.212682028485349, 0.1};
Point(p13 + 13) = {18.21460034927523, 3.173433954144275, 0.1};
Point(p13 + 14) = {18.12715343695416, 3.119846417353522, 0.1};
Point(p13 + 15) = {18.04916607888428, 3.053238921115716, 0.1};
Point(p13 + 16) = {17.98255858264648, 2.975251563045838, 0.1};
Point(p13 + 17) = {17.92897104585572, 2.887804650724771, 0.1};
Point(p13 + 18) = {17.88972297151465, 2.793051417353522, 0.1};
Point(p13 + 19) = {17.86578077747042, 2.693325002005645, 0.1};
Point(p13 + 20) = {17.857734, 2.591081, 0.1};
Point(p13 + 21) = {17.86578077747042, 2.488836997994356, 0.1};
Point(p13 + 22) = {17.88972297151465, 2.389110582646478, 0.1};
Point(p13 + 23) = {17.92897104585572, 2.29435734927523, 0.1};
Point(p13 + 24) = {17.98255858264648, 2.206910436954162, 0.1};
Point(p13 + 25) = {18.04916607888428, 2.128923078884284, 0.1};
Point(p13 + 26) = {18.12715343695416, 2.062315582646478, 0.1};
Point(p13 + 27) = {18.21460034927523, 2.008728045855725, 0.1};
Point(p13 + 28) = {18.30935358264648, 1.969479971514651, 0.1};
Point(p13 + 29) = {18.40907999799435, 1.945537777470424, 0.1};
Point(p13 + 30) = {18.511324, 1.937491, 0.1};
Point(p13 + 31) = {18.61356800200564, 1.945537777470424, 0.1};
Point(p13 + 32) = {18.71329441735352, 1.96947997151465, 0.1};
Point(p13 + 33) = {18.80804765072477, 2.008728045855725, 0.1};
Point(p13 + 34) = {18.89549456304584, 2.062315582646478, 0.1};
Point(p13 + 35) = {18.97348192111571, 2.128923078884284, 0.1};
Point(p13 + 36) = {19.04008941735352, 2.206910436954162, 0.1};
Point(p13 + 37) = {19.09367695414428, 2.294357349275229, 0.1};
Point(p13 + 38) = {19.13292502848535, 2.389110582646478, 0.1};
Point(p13 + 39) = {19.15686722252957, 2.488836997994355, 0.1};
Spline(13) = {9, p13 + 1, p13 + 2, p13 + 3, p13 + 4, p13 + 5, p13 + 6, p13 + 7, p13 + 8, p13 + 9, p13 + 10, p13 + 11, p13 + 12, p13 + 13, p13 + 14, p13 + 15, p13 + 16, p13 + 17, p13 + 18, p13 + 19, p13 + 20, p13 + 21, p13 + 22, p13 + 23, p13 + 24, p13 + 25, p13 + 26, p13 + 27, p13 + 28, p13 + 29, p13 + 30, p13 + 31, p13 + 32, p13 + 33, p13 + 34, p13 + 35, p13 + 36, p13 + 37, p13 + 38, p13 + 39, 9};
Line(14) = {10, 9};
p15 = newp;
Point(p15 + 1) = {19.15686722252957, 2.693325002005644, 0};
Point(p15 + 2) = {19.13292502848535, 2.793051417353522, 0};
Point(p15 + 3) = {19.09367695414428, 2.88780465072477, 0};
Point(p15 + 4) = {19.04008941735352, 2.975251563045838, 0};
Point(p15 + 5) = {18.97348192111571, 3.053238921115716, 0};
Point(p15 + 6) = {18.89549456304584, 3.119846417353522, 0};
Point(p15 + 7) = {18.80804765072477, 3.173433954144275, 0};
Point(p15 + 8) = {18.71329441735352, 3.212682028485349, 0};
Point(p15 + 9) = {18.61356800200564, 3.236624222529576, 0};
Point(p15 + 10) = {18.511324, 3.244671, 0};
Point(p15 + 11) = {18.40907999799435, 3.236624222529576, 0};
Point(p15 + 12) = {18.30935358264648, 3.212682028485349, 0};
Point(p15 + 13) = {18.21460034927523, 3.173433954144275, 0};
Point(p15 + 14) = {18.12715343695416, 3.119846417353522, 0};
Point(p15 + 15) = {18.04916607888428, 3.053238921115716, 0};
Point(p15 + 16) = {17.98255858264648, 2.975251563045838, 0};
Point(p15 + 17) = {17.92897104585572, 2.887804650724771, 0};
Point(p15 + 18) = {17.88972297151465, 2.793051417353522, 0};
Point(p15 + 19) = {17.86578077747042, 2.693325002005645, 0};
Point(p15 + 20) = {17.857734, 2.591081, 0};
Point(p15 + 21) = {17.86578077747042, 2.488836997994356, 0};
Point(p15 + 22) = {17.88972297151465, 2.389110582646478, 0};
Point(p15 + 23) = {17.92897104585572, 2.29435734927523, 0};
Point(p15 + 24) = {17.98255858264648, 2.206910436954162, 0};
Point(p15 + 25) = {18.04916607888428, 2.128923078884284, 0};
Point(p15 + 26) = {18.12715343695416, 2.062315582646478, 0};
Point(p15 + 27) = {18.21460034927523, 2.008728045855725, 0};
Point(p15 + 28) = {18.30935358264648, 1.969479971514651, 0};
Point(p15 + 29) = {18.40907999799435, 1.945537777470424, 0};
Point(p15 + 30) = {18.511324, 1.937491, 0};
Point(p15 + 31) = {18.61356800200564, 1.945537777470424, 0};
Point(p15 + 32) = {18.71329441735352, 1.96947997151465, 0};
Point(p15 + 33) = {18.80804765072477, 2.008728045855725, 0};
Point(p15 + 34) = {18.89549456304584, 2.062315582646478, 0};
Point(p15 + 35) = {18.97348192111571, 2.128923078884284, 0};
Point(p15 + 36) = {19.04008941735352, 2.206910436954162, 0};
Point(p15 + 37) = {19.09367695414428, 2.294357349275229, 0};
Point(p15 + 38) = {19.13292502848535, 2.389110582646478, 0};
Point(p15 + 39) = {19.15686722252957, 2.488836997994355, 0};
Spline(15) = {10, p15 + 1, p15 + 2, p15 + 3, p15 + 4, p15 + 5, p15 + 6, p15 + 7, p15 + 8, p15 + 9, p15 + 10, p15 + 11, p15 + 12, p15 + 13, p15 + 14, p15 + 15, p15 + 16, p15 + 17, p15 + 18, p15 + 19, p15 + 20, p15 + 21, p15 + 22, p15 + 23, p15 + 24, p15 + 25, p15 + 26, p15 + 27, p15 + 28, p15 + 29, p15 + 30, p15 + 31, p15 + 32, p15 + 33, p15 + 34, p15 + 35, p15 + 36, p15 + 37, p15 + 38, p15 + 39, 10};
p16 = newp;
Point(p16 + 1) = {12.46677778333152, -0.4276441522367496, 0.1};
Point(p16 + 2) = {12.4376720039658, -0.3064098561363799, 0.1};
Point(p16 + 3) = {12.38995934278734, -0.1912213024224428, 0.1};
Point(p16 + 4) = {12.32481464386362, -0.08491481557626773, 0.1};
Point(p16 + 5) = {12.24384198588499, 0.009891985884990073, 0.1};
Point(p16 + 6) = {12.14903518442373, 0.09086464386362003, 0.1};
Point(p16 + 7) = {12.04272869757756, 0.1560093427873435, 0.1};
Point(p16 + 8) = {11.92754014386362, 0.203722003965798, 0.1};
Point(p16 + 9) = {11.80630584776325, 0.2328277833315261, 0.1};
Point(p16 + 10) = {11.682011, 0.24261, 0.1};
Point(p16 + 11) = {11.55771615223675, 0.232827783331526, 0.1};
Point(p16 + 12) = {11.43648185613638, 0.203722003965798, 0.1};
Point(p16 + 13) = {11.32129330242244, 0.1560093427873436, 0.1};
Point(p16 + 14) = {11.21498681557627, 0.09086464386362014, 0.1};
Point(p16 + 15) = {11.12018001411501, 0.009891985884990184, 0.1};
Point(p16 + 16) = {11.03920735613638, -0.08491481557626768, 0.1};
Point(p16 + 17) = {10.97406265721266, -0.1912213024224428, 0.1};
Point(p16 + 18) = {10.9263499960342, -0.3064098561363798, 0.1};
Point(p16 + 19) = {10.89724421666847, -0.4276441522367495, 0.1};
Point(p16 + 20) = {10.887462, -0.5519389999999998, 0.1};
Point(p16 + 21) = {10.89724421666847, -0.6762338477632502, 0.1};
Point(p16 + 22) = {10.9263499960342, -0.7974681438636203, 0.1};
Point(p16 + 23) = {10.97406265721266, -0.9126566975775567, 0.1};
Point(p16 + 24) = {11.03920735613638, -1.018963184423732, 0.1};
Point(p16 + 25) = {11.12018001411501, -1.11376998588499, 0.1};
Point(p16 + 26) = {11.21498681557627, -1.19474264386362, 0.1};
Point(p16 + 27) = {11.32129330242244, -1.259887342787343, 0.1};
Point(p16 + 28) = {11.43648185613638, -1.307600003965798, 0.1};
Point(p16 + 29) = {11.55771615223675, -1.336705783331526, 0.1};
Point(p16 + 30) = {11.682011, -1.346488, 0.1};
Point(p16 + 31) = {11.80630584776325, -1.336705783331526, 0.1};
Point(p16 + 32) = {11.92754014386362, -1.307600003965798, 0.1};
Point(p16 + 33) = {12.04272869757756, -1.259887342787343, 0.1};
Point(p16 + 34) = {12.14903518442373, -1.19474264386362, 0.1};
Point(p16 + 35) = {12.24384198588499, -1.11376998588499, 0.1};
Point(p16 + 36) = {12.32481464386362, -1.018963184423732, 0.1};
Point(p16 + 37) = {12.38995934278734, -0.9126566975775572, 0.1};
Point(p16 + 38) = {12.4376720039658, -0.7974681438636202, 0.1};
Point(p16 + 39) = {12.46677778333152, -0.6762338477632506, 0.1};
Spline(16) = {11, p16 + 1, p16 + 2, p16 + 3, p16 + 4, p16 + 5, p16 + 6, p16 + 7, p16 + 8, p16 + 9, p16 + 10, p16 + 11, p16 + 12, p16 + 13, p16 + 14, p16 + 15, p16 + 16, p16 + 17, p16 + 18, p16 + 19, p16 + 20, p16 + 21, p16 + 22, p16 + 23, p16 + 24, p16 + 25, p16 + 26, p16 + 27, p16 + 28, p16 + 29, p16 + 30, p16 + 31, p16 + 32, p16 + 33, p16 + 34, p16 + 35, p16 + 36, p16 + 37, p16 + 38, p16 + 39, 11};
Line(17) = {12, 11};
p18 = newp;
Point(p18 + 1) = {12.46677778333152, -0.4276441522367496, 0};
Point(p18 + 2) = {12.4376720039658, -0.3064098561363799, 0};
Point(p18 + 3) = {12.38995934278734, -0.1912213024224428, 0};
Point(p18 + 4) = {12.32481464386362, -0.08491481557626773, 0};
Point(p18 + 5) = {12.24384198588499, 0.009891985884990073, 0};
Point(p18 + 6) = {12.14903518442373, 0.09086464386362003, 0};
Point(p18 + 7) = {12.04272869757756, 0.1560093427873435, 0};
Point(p18 + 8) = {11.92754014386362, 0.203722003965798, 0};
Point(p18 + 9) = {11.80630584776325, 0.2328277833315261, 0};
Point(p18 + 10) = {11.682011, 0.24261, 0};
Point(p18 + 11) = {11.55771615223675, 0.232827783331526, 0};
Point(p18 + 12) = {11.43648185613638, 0.203722003965798, 0};
Point(p18 + 13) = {11.32129330242244, 0.1560093427873436, 0};
Point(p18 + 14) = {11.21498681557627, 0.09086464386362014, 0};
Point(p18 + 15) = {11.12018001411501, 0.009891985884990184, 0};
Point(p18 + 16) = {11.03920735613638, -0.08491481557626768, 0};
Point(p18 + 17) = {10.97406265721266, -0.1912213024224428, 0};
Point(p18 + 18) = {10.9263499960342, -0.3064098561363798, 0};
Point(p18 + 19) = {10.89724421666847, -0.4276441522367495, 0};
Point(p18 + 20) = {10.887462, -0.5519389999999998, 0};
Point(p18 + 21) = {10.89724421666847, -0.6762338477632502, 0};
Point(p18 + 22) = {10.9263499960342, -0.7974681438636203, 0};
Point(p18 + 23) = {10.97406265721266, -0.9126566975775567, 0};
Point(p18 + 24) = {11.03920735613638, -1.018963184423732, 0};
Point(p18 + 25) = {11.12018001411501, -1.11376998588499, 0};
Point(p18 + 26) = {11.21498681557627, -1.19474264386362, 0};
Point(p18 + 27) = {11.32129330242244, -1.259887342787343, 0};
Point(p18 + 28) = {11.43648185613638, -1.307600003965798, 0};
Point(p18 + 29) = {11.55771615223675, -1.336705783331526, 0};
Point(p18 + 30) = {11.682011, -1.346488, 0};
Point(p18 + 31) = {11.80630584776325, -1.336705783331526, 0};
Point(p18 + 32) = {11.92754014386362, -1.307600003965798, 0};
Point(p18 + 33) = {12.04272869757756, -1.259887342787343, 0};
Point(p18 + 34) = {12.14903518442373, -1.19474264386362, 0};
Point(p18 + 35) = {12.24384198588499, -1.11376998588499, 0};
Point(p18 + 36) = {12.32481464386362, -1.018963184423732, 0};
Point(p18 + 37) = {12.38995934278734, -0.9126566975775572, 0};
Point(p18 + 38) = {12.4376720039658, -0.7974681438636202, 0};
Point(p18 + 39) = {12.46677778333152, -0.6762338477632506, 0};
Spline(18) = {12, p18 + 1, p18 + 2, p18 + 3, p18 + 4, p18 + 5, p18 + 6, p18 + 7, p18 + 8, p18 + 9, p18 + 10, p18 + 11, p18 + 12, p18 + 13, p18 + 14, p18 + 15, p18 + 16, p18 + 17, p18 + 18, p18 + 19, p18 + 20, p18 + 21, p18 + 22, p18 + 23, p18 + 24, p18 + 25, p18 + 26, p18 + 27, p18 + 28, p18 + 29, p18 + 30, p18 + 31, p18 + 32, p18 + 33, p18 + 34, p18 + 35, p18 + 36, p18 + 37, p18 + 38, p18 + 39, 12};
Line(19) = {14, 13};
Line(20) = {13, 15};
Line(21) = {16, 15};
Line(22) = {14, 16};
Line(23) = {14, 17};
Line(24) = {17, 18};
Line(25) = {13, 18};
Line(26) = {15, 19};
Line(27) = {18, 19};
Line(28) = {16, 20};
Line(29) = {20, 19};
Line(30) = {17, 20};
Curve Loop(7) = {-13, -14, 15, 14};
Surface(7) = {7};
Curve Loop(8) = {13};
Plane Surface(8) = {8};
Curve Loop(9) = {15};
Plane Surface(9) = {9};
Curve Loop(10) = {-16, -17, 18, 17};
Surface(10) = {10};
Curve Loop(11) = {16};
Plane Surface(11) = {11};
Curve Loop(12) = {18};
Plane Surface(12) = {12};
Curve Loop(13) = {-19, 22, 21, -20};
Plane Surface(13) = {13};
Curve Loop(14) = {-23, 19, 25, -24};
Plane Surface(14) = {14};
Curve Loop(15) = {-20, 25, 27, -26};
Plane Surface(15) = {15};
Curve Loop(16) = {-28, 21, 26, -29};
Plane Surface(16) = {16};
Curve Loop(17) = {-22, 23, 30, -28, -18, -15};
Plane Surface(17) = {17};
Curve Loop(18) = {-24, 30, 29, -27};
Plane Surface(18) = {18};
Surface Loop(1) = {13, 14, 15, 16, 17, 18, 10, 7, 11, 8};
Volume(1) = {1};
Surface Loop(2) = {7, 8, 9};
Volume(2) = {2};
Surface Loop(3) = {10, 11, 12};
Volume(3) = {3};
Physical Surface("WALLS") = {13, 18};
Physical Surface("LOAD") = {8, 11};
Physical Surface("BORDER") = {7, 9, 10, 12, 14, 15, 16, 17};
Physical Volume("SOLID") = {1, 2, 3};
