cl__1 = 0.0601;
cl__2 = 0.086483;
cl__3 = 0.152152;
cl__4 = 0.448551;
cl__5 = 5.030779;
cl__6 = 4.791078;
Point(9) = {3.176605, -2.197386, 0.1, cl__1};
Point(10) = {3.176605, -2.197386, 0, cl__1};
Point(11) = {9.837536999999999, 1.115797, 0.1, cl__2};
Point(12) = {9.837536999999999, 1.115797, 0, cl__2};
Point(13) = {0.704572, -4.065911, 1, cl__3};
Point(14) = {0.704572, -4.065911, 0, cl__3};
Point(15) = {0.704572, 4.157559000000001, 1, cl__4};
Point(16) = {0.704572, 4.157559000000001, 0, cl__4};
Point(17) = {32.278983, -4.065911, 0, cl__5};
Point(18) = {32.278983, -4.065911, 1, cl__5};
Point(19) = {32.278983, 4.157559000000001, 1, cl__6};
Point(20) = {32.278983, 4.157559000000001, 0, cl__6};
p13 = newp;
Point(p13 + 1) = {3.169205680386018, -2.103368730076356, 0.1};
Point(p13 + 2) = {3.147189917349904, -2.011666477363662, 0.1};
Point(p13 + 3) = {3.111099812043733, -1.924537255666033, 0.1};
Point(p13 + 4) = {3.061824022636338, -1.844126475586971, 0.1};
Point(p13 + 5) = {3.000575882599896, -1.772414117400104, 0.1};
Point(p13 + 6) = {2.928863524413028, -1.711165977363662, 0.1};
Point(p13 + 7) = {2.848452744333967, -1.661890187956267, 0.1};
Point(p13 + 8) = {2.761323522636338, -1.625800082650096, 0.1};
Point(p13 + 9) = {2.669621269923644, -1.603784319613982, 0.1};
Point(p13 + 10) = {2.575604, -1.596385, 0.1};
Point(p13 + 11) = {2.481586730076356, -1.603784319613982, 0.1};
Point(p13 + 12) = {2.389884477363662, -1.625800082650096, 0.1};
Point(p13 + 13) = {2.302755255666033, -1.661890187956267, 0.1};
Point(p13 + 14) = {2.222344475586971, -1.711165977363662, 0.1};
Point(p13 + 15) = {2.150632117400104, -1.772414117400104, 0.1};
Point(p13 + 16) = {2.089383977363662, -1.844126475586971, 0.1};
Point(p13 + 17) = {2.040108187956267, -1.924537255666033, 0.1};
Point(p13 + 18) = {2.004018082650096, -2.011666477363662, 0.1};
Point(p13 + 19) = {1.982002319613982, -2.103368730076356, 0.1};
Point(p13 + 20) = {1.974603, -2.197386, 0.1};
Point(p13 + 21) = {1.982002319613982, -2.291403269923644, 0.1};
Point(p13 + 22) = {2.004018082650096, -2.383105522636338, 0.1};
Point(p13 + 23) = {2.040108187956267, -2.470234744333967, 0.1};
Point(p13 + 24) = {2.089383977363662, -2.550645524413028, 0.1};
Point(p13 + 25) = {2.150632117400103, -2.622357882599896, 0.1};
Point(p13 + 26) = {2.222344475586971, -2.683606022636337, 0.1};
Point(p13 + 27) = {2.302755255666032, -2.732881812043733, 0.1};
Point(p13 + 28) = {2.389884477363662, -2.768971917349903, 0.1};
Point(p13 + 29) = {2.481586730076356, -2.790987680386018, 0.1};
Point(p13 + 30) = {2.575604, -2.798387, 0.1};
Point(p13 + 31) = {2.669621269923644, -2.790987680386018, 0.1};
Point(p13 + 32) = {2.761323522636337, -2.768971917349903, 0.1};
Point(p13 + 33) = {2.848452744333967, -2.732881812043733, 0.1};
Point(p13 + 34) = {2.928863524413028, -2.683606022636338, 0.1};
Point(p13 + 35) = {3.000575882599896, -2.622357882599896, 0.1};
Point(p13 + 36) = {3.061824022636337, -2.550645524413028, 0.1};
Point(p13 + 37) = {3.111099812043733, -2.470234744333967, 0.1};
Point(p13 + 38) = {3.147189917349904, -2.383105522636338, 0.1};
Point(p13 + 39) = {3.169205680386018, -2.291403269923644, 0.1};
Spline(13) = {9, p13 + 1, p13 + 2, p13 + 3, p13 + 4, p13 + 5, p13 + 6, p13 + 7, p13 + 8, p13 + 9, p13 + 10, p13 + 11, p13 + 12, p13 + 13, p13 + 14, p13 + 15, p13 + 16, p13 + 17, p13 + 18, p13 + 19, p13 + 20, p13 + 21, p13 + 22, p13 + 23, p13 + 24, p13 + 25, p13 + 26, p13 + 27, p13 + 28, p13 + 29, p13 + 30, p13 + 31, p13 + 32, p13 + 33, p13 + 34, p13 + 35, p13 + 36, p13 + 37, p13 + 38, p13 + 39, 9};
Line(14) = {10, 9};
p15 = newp;
Point(p15 + 1) = {3.169205680386018, -2.103368730076356, 0};
Point(p15 + 2) = {3.147189917349904, -2.011666477363662, 0};
Point(p15 + 3) = {3.111099812043733, -1.924537255666033, 0};
Point(p15 + 4) = {3.061824022636338, -1.844126475586971, 0};
Point(p15 + 5) = {3.000575882599896, -1.772414117400104, 0};
Point(p15 + 6) = {2.928863524413028, -1.711165977363662, 0};
Point(p15 + 7) = {2.848452744333967, -1.661890187956267, 0};
Point(p15 + 8) = {2.761323522636338, -1.625800082650096, 0};
Point(p15 + 9) = {2.669621269923644, -1.603784319613982, 0};
Point(p15 + 10) = {2.575604, -1.596385, 0};
Point(p15 + 11) = {2.481586730076356, -1.603784319613982, 0};
Point(p15 + 12) = {2.389884477363662, -1.625800082650096, 0};
Point(p15 + 13) = {2.302755255666033, -1.661890187956267, 0};
Point(p15 + 14) = {2.222344475586971, -1.711165977363662, 0};
Point(p15 + 15) = {2.150632117400104, -1.772414117400104, 0};
Point(p15 + 16) = {2.089383977363662, -1.844126475586971, 0};
Point(p15 + 17) = {2.040108187956267, -1.924537255666033, 0};
Point(p15 + 18) = {2.004018082650096, -2.011666477363662, 0};
Point(p15 + 19) = {1.982002319613982, -2.103368730076356, 0};
Point(p15 + 20) = {1.974603, -2.197386, 0};
Point(p15 + 21) = {1.982002319613982, -2.291403269923644, 0};
Point(p15 + 22) = {2.004018082650096, -2.383105522636338, 0};
Point(p15 + 23) = {2.040108187956267, -2.470234744333967, 0};
Point(p15 + 24) = {2.089383977363662, -2.550645524413028, 0};
Point(p15 + 25) = {2.150632117400103, -2.622357882599896, 0};
Point(p15 + 26) = {2.222344475586971, -2.683606022636337, 0};
Point(p15 + 27) = {2.302755255666032, -2.732881812043733, 0};
Point(p15 + 28) = {2.389884477363662, -2.768971917349903, 0};
Point(p15 + 29) = {2.481586730076356, -2.790987680386018, 0};
Point(p15 + 30) = {2.575604, -2.798387, 0};
Point(p15 + 31) = {2.669621269923644, -2.790987680386018, 0};
Point(p15 + 32) = {2.761323522636337, -2.768971917349903, 0};
Point(p15 + 33) = {2.848452744333967, -2.732881812043733, 0};
Point(p15 + 34) = {2.928863524413028, -2.683606022636338, 0};
Point(p15 + 35) = {3.000575882599896, -2.622357882599896, 0};
Point(p15 + 36) = {3.061824022636337, -2.550645524413028, 0};
Point(p15 + 37) = {3.111099812043733, -2.470234744333967, 0};
Point(p15 + 38) = {3.147189917349904, -2.383105522636338, 0};
Point(p15 + 39) = {3.169205680386018, -2.291403269923644, 0};
Spline(15) = {10, p15 + 1, p15 + 2, p15 + 3, p15 + 4, p15 + 5, p15 + 6, p15 + 7, p15 + 8, p15 + 9, p15 + 10, p15 + 11, p15 + 12, p15 + 13, p15 + 14, p15 + 15, p15 + 16, p15 + 17, p15 + 18, p15 + 19, p15 + 20, p15 + 21, p15 + 22, p15 + 23, p15 + 24, p15 + 25, p15 + 26, p15 + 27, p15 + 28, p15 + 29, p15 + 30, p15 + 31, p15 + 32, p15 + 33, p15 + 34, p15 + 35, p15 + 36, p15 + 37, p15 + 38, p15 + 39, 10};
p16 = newp;
Point(p16 + 1) = {9.826889482973574, 1.251086531269673, 0.1};
Point(p16 + 2) = {9.79520910910057, 1.383044785279274, 0.1};
Point(p16 + 3) = {9.743275954326874, 1.508422511870752, 0.1};
Point(p16 + 4) = {9.672368785279275, 1.624132495310604, 0.1};
Point(p16 + 5) = {9.584233571787124, 1.727325571787124, 0.1};
Point(p16 + 6) = {9.481040495310603, 1.815460785279274, 0.1};
Point(p16 + 7) = {9.365330511870752, 1.886367954326874, 0.1};
Point(p16 + 8) = {9.239952785279273, 1.93830110910057, 0.1};
Point(p16 + 9) = {9.107994531269673, 1.969981482973574, 0.1};
Point(p16 + 10) = {8.972704999999999, 1.980629, 0.1};
Point(p16 + 11) = {8.837415468730326, 1.969981482973574, 0.1};
Point(p16 + 12) = {8.705457214720726, 1.93830110910057, 0.1};
Point(p16 + 13) = {8.580079488129249, 1.886367954326875, 0.1};
Point(p16 + 14) = {8.464369504689396, 1.815460785279275, 0.1};
Point(p16 + 15) = {8.361176428212875, 1.727325571787124, 0.1};
Point(p16 + 16) = {8.273041214720726, 1.624132495310604, 0.1};
Point(p16 + 17) = {8.202134045673125, 1.508422511870752, 0.1};
Point(p16 + 18) = {8.150200890899429, 1.383044785279274, 0.1};
Point(p16 + 19) = {8.118520517026425, 1.251086531269673, 0.1};
Point(p16 + 20) = {8.107873, 1.115797, 0.1};
Point(p16 + 21) = {8.118520517026425, 0.980507468730327, 0.1};
Point(p16 + 22) = {8.150200890899429, 0.8485492147207252, 0.1};
Point(p16 + 23) = {8.202134045673125, 0.7231714881292486, 0.1};
Point(p16 + 24) = {8.273041214720724, 0.6074615046893959, 0.1};
Point(p16 + 25) = {8.361176428212875, 0.5042684282128757, 0.1};
Point(p16 + 26) = {8.464369504689396, 0.4161332147207254, 0.1};
Point(p16 + 27) = {8.580079488129247, 0.3452260456731254, 0.1};
Point(p16 + 28) = {8.705457214720726, 0.2932928908994297, 0.1};
Point(p16 + 29) = {8.837415468730326, 0.2616125170264257, 0.1};
Point(p16 + 30) = {8.972704999999999, 0.2509649999999999, 0.1};
Point(p16 + 31) = {9.107994531269672, 0.2616125170264257, 0.1};
Point(p16 + 32) = {9.239952785279273, 0.2932928908994296, 0.1};
Point(p16 + 33) = {9.36533051187075, 0.3452260456731252, 0.1};
Point(p16 + 34) = {9.481040495310603, 0.4161332147207253, 0.1};
Point(p16 + 35) = {9.584233571787124, 0.5042684282128755, 0.1};
Point(p16 + 36) = {9.672368785279273, 0.6074615046893956, 0.1};
Point(p16 + 37) = {9.743275954326874, 0.723171488129248, 0.1};
Point(p16 + 38) = {9.79520910910057, 0.8485492147207252, 0.1};
Point(p16 + 39) = {9.826889482973574, 0.9805074687303268, 0.1};
Spline(16) = {11, p16 + 1, p16 + 2, p16 + 3, p16 + 4, p16 + 5, p16 + 6, p16 + 7, p16 + 8, p16 + 9, p16 + 10, p16 + 11, p16 + 12, p16 + 13, p16 + 14, p16 + 15, p16 + 16, p16 + 17, p16 + 18, p16 + 19, p16 + 20, p16 + 21, p16 + 22, p16 + 23, p16 + 24, p16 + 25, p16 + 26, p16 + 27, p16 + 28, p16 + 29, p16 + 30, p16 + 31, p16 + 32, p16 + 33, p16 + 34, p16 + 35, p16 + 36, p16 + 37, p16 + 38, p16 + 39, 11};
Line(17) = {12, 11};
p18 = newp;
Point(p18 + 1) = {9.826889482973574, 1.251086531269673, 0};
Point(p18 + 2) = {9.79520910910057, 1.383044785279274, 0};
Point(p18 + 3) = {9.743275954326874, 1.508422511870752, 0};
Point(p18 + 4) = {9.672368785279275, 1.624132495310604, 0};
Point(p18 + 5) = {9.584233571787124, 1.727325571787124, 0};
Point(p18 + 6) = {9.481040495310603, 1.815460785279274, 0};
Point(p18 + 7) = {9.365330511870752, 1.886367954326874, 0};
Point(p18 + 8) = {9.239952785279273, 1.93830110910057, 0};
Point(p18 + 9) = {9.107994531269673, 1.969981482973574, 0};
Point(p18 + 10) = {8.972704999999999, 1.980629, 0};
Point(p18 + 11) = {8.837415468730326, 1.969981482973574, 0};
Point(p18 + 12) = {8.705457214720726, 1.93830110910057, 0};
Point(p18 + 13) = {8.580079488129249, 1.886367954326875, 0};
Point(p18 + 14) = {8.464369504689396, 1.815460785279275, 0};
Point(p18 + 15) = {8.361176428212875, 1.727325571787124, 0};
Point(p18 + 16) = {8.273041214720726, 1.624132495310604, 0};
Point(p18 + 17) = {8.202134045673125, 1.508422511870752, 0};
Point(p18 + 18) = {8.150200890899429, 1.383044785279274, 0};
Point(p18 + 19) = {8.118520517026425, 1.251086531269673, 0};
Point(p18 + 20) = {8.107873, 1.115797, 0};
Point(p18 + 21) = {8.118520517026425, 0.980507468730327, 0};
Point(p18 + 22) = {8.150200890899429, 0.8485492147207252, 0};
Point(p18 + 23) = {8.202134045673125, 0.7231714881292486, 0};
Point(p18 + 24) = {8.273041214720724, 0.6074615046893959, 0};
Point(p18 + 25) = {8.361176428212875, 0.5042684282128757, 0};
Point(p18 + 26) = {8.464369504689396, 0.4161332147207254, 0};
Point(p18 + 27) = {8.580079488129247, 0.3452260456731254, 0};
Point(p18 + 28) = {8.705457214720726, 0.2932928908994297, 0};
Point(p18 + 29) = {8.837415468730326, 0.2616125170264257, 0};
Point(p18 + 30) = {8.972704999999999, 0.2509649999999999, 0};
Point(p18 + 31) = {9.107994531269672, 0.2616125170264257, 0};
Point(p18 + 32) = {9.239952785279273, 0.2932928908994296, 0};
Point(p18 + 33) = {9.36533051187075, 0.3452260456731252, 0};
Point(p18 + 34) = {9.481040495310603, 0.4161332147207253, 0};
Point(p18 + 35) = {9.584233571787124, 0.5042684282128755, 0};
Point(p18 + 36) = {9.672368785279273, 0.6074615046893956, 0};
Point(p18 + 37) = {9.743275954326874, 0.723171488129248, 0};
Point(p18 + 38) = {9.79520910910057, 0.8485492147207252, 0};
Point(p18 + 39) = {9.826889482973574, 0.9805074687303268, 0};
Spline(18) = {12, p18 + 1, p18 + 2, p18 + 3, p18 + 4, p18 + 5, p18 + 6, p18 + 7, p18 + 8, p18 + 9, p18 + 10, p18 + 11, p18 + 12, p18 + 13, p18 + 14, p18 + 15, p18 + 16, p18 + 17, p18 + 18, p18 + 19, p18 + 20, p18 + 21, p18 + 22, p18 + 23, p18 + 24, p18 + 25, p18 + 26, p18 + 27, p18 + 28, p18 + 29, p18 + 30, p18 + 31, p18 + 32, p18 + 33, p18 + 34, p18 + 35, p18 + 36, p18 + 37, p18 + 38, p18 + 39, 12};
Line(19) = {14, 13};
Line(20) = {13, 15};
Line(21) = {16, 15};
Line(22) = {14, 16};
Line(23) = {14, 17};
Line(24) = {17, 18};
Line(25) = {13, 18};
Line(26) = {15, 19};
Line(27) = {18, 19};
Line(28) = {16, 20};
Line(29) = {20, 19};
Line(30) = {17, 20};
Curve Loop(7) = {-13, -14, 15, 14};
Surface(7) = {7};
Curve Loop(8) = {13};
Plane Surface(8) = {8};
Curve Loop(9) = {15};
Plane Surface(9) = {9};
Curve Loop(10) = {-16, -17, 18, 17};
Surface(10) = {10};
Curve Loop(11) = {16};
Plane Surface(11) = {11};
Curve Loop(12) = {18};
Plane Surface(12) = {12};
Curve Loop(13) = {-19, 22, 21, -20};
Plane Surface(13) = {13};
Curve Loop(14) = {-23, 19, 25, -24};
Plane Surface(14) = {14};
Curve Loop(15) = {-20, 25, 27, -26};
Plane Surface(15) = {15};
Curve Loop(16) = {-28, 21, 26, -29};
Plane Surface(16) = {16};
Curve Loop(17) = {-22, 23, 30, -28, -15, -18};
Plane Surface(17) = {17};
Curve Loop(18) = {-24, 30, 29, -27};
Plane Surface(18) = {18};
Surface Loop(1) = {13, 14, 15, 16, 17, 18, 7, 10, 8, 11};
Volume(1) = {1};
Surface Loop(2) = {7, 8, 9};
Volume(2) = {2};
Surface Loop(3) = {10, 11, 12};
Volume(3) = {3};
Physical Surface("WALLS") = {13, 18};
Physical Surface("LOAD") = {8, 11};
Physical Surface("BORDER") = {7, 9, 10, 12, 14, 15, 16, 17};
Physical Volume("SOLID") = {1, 2, 3};
