cl__1 = 0.09354899999999999;
cl__2 = 0.07684000000000001;
cl__3 = 2.889471;
cl__4 = 2.381114;
cl__5 = 0.702171;
cl__6 = 0.538169;
Point(9) = {33.758823, 1.884221, 0.1, cl__1};
Point(10) = {33.758823, 1.884221, 0, cl__1};
Point(11) = {18.020576, 2.099789, 0.1, cl__2};
Point(12) = {18.020576, 2.099789, 0, cl__2};
Point(13) = {0.822331, -4.438943, 1, cl__3};
Point(14) = {0.822331, -4.438943, 0, cl__3};
Point(15) = {0.822331, 4.65002, 1, cl__4};
Point(16) = {0.822331, 4.65002, 0, cl__4};
Point(17) = {39.607876, -4.438943, 0, cl__5};
Point(18) = {39.607876, -4.438943, 1, cl__5};
Point(19) = {39.607876, 4.65002, 1, cl__6};
Point(20) = {39.607876, 4.65002, 0, cl__6};
p13 = newp;
Point(p13 + 1) = {33.74730560267832, 2.03056340839709, 0.1};
Point(p13 + 2) = {33.7130370072594, 2.173302381016836, 0.1};
Point(p13 + 3) = {33.6568610202934, 2.308923210629849, 0.1};
Point(p13 + 4) = {33.58016088101684, 2.434086462311329, 0.1};
Point(p13 + 5) = {33.48482520141186, 2.54571020141186, 0.1};
Point(p13 + 6) = {33.37320146231133, 2.641045881016836, 0.1};
Point(p13 + 7) = {33.24803821062984, 2.717746020293403, 0.1};
Point(p13 + 8) = {33.11241738101683, 2.773922007259404, 0.1};
Point(p13 + 9) = {32.96967840839709, 2.808190602678323, 0.1};
Point(p13 + 10) = {32.823336, 2.819708, 0.1};
Point(p13 + 11) = {32.67699359160291, 2.808190602678323, 0.1};
Point(p13 + 12) = {32.53425461898316, 2.773922007259404, 0.1};
Point(p13 + 13) = {32.39863378937015, 2.717746020293403, 0.1};
Point(p13 + 14) = {32.27347053768867, 2.641045881016836, 0.1};
Point(p13 + 15) = {32.16184679858814, 2.54571020141186, 0.1};
Point(p13 + 16) = {32.06651111898316, 2.434086462311329, 0.1};
Point(p13 + 17) = {31.98981097970659, 2.30892321062985, 0.1};
Point(p13 + 18) = {31.93363499274059, 2.173302381016836, 0.1};
Point(p13 + 19) = {31.89936639732167, 2.03056340839709, 0.1};
Point(p13 + 20) = {31.887849, 1.884221, 0.1};
Point(p13 + 21) = {31.89936639732167, 1.73787859160291, 0.1};
Point(p13 + 22) = {31.93363499274059, 1.595139618983163, 0.1};
Point(p13 + 23) = {31.98981097970659, 1.459518789370151, 0.1};
Point(p13 + 24) = {32.06651111898316, 1.334355537688671, 0.1};
Point(p13 + 25) = {32.16184679858814, 1.22273179858814, 0.1};
Point(p13 + 26) = {32.27347053768867, 1.127396118983164, 0.1};
Point(p13 + 27) = {32.39863378937014, 1.050695979706596, 0.1};
Point(p13 + 28) = {32.53425461898316, 0.9945199927405957, 0.1};
Point(p13 + 29) = {32.67699359160291, 0.9602513973216764, 0.1};
Point(p13 + 30) = {32.823336, 0.948734, 0.1};
Point(p13 + 31) = {32.96967840839709, 0.9602513973216763, 0.1};
Point(p13 + 32) = {33.11241738101683, 0.9945199927405955, 0.1};
Point(p13 + 33) = {33.24803821062984, 1.050695979706596, 0.1};
Point(p13 + 34) = {33.37320146231133, 1.127396118983163, 0.1};
Point(p13 + 35) = {33.48482520141186, 1.22273179858814, 0.1};
Point(p13 + 36) = {33.58016088101684, 1.334355537688671, 0.1};
Point(p13 + 37) = {33.6568610202934, 1.45951878937015, 0.1};
Point(p13 + 38) = {33.7130370072594, 1.595139618983163, 0.1};
Point(p13 + 39) = {33.74730560267832, 1.737878591602909, 0.1};
Spline(13) = {9, p13 + 1, p13 + 2, p13 + 3, p13 + 4, p13 + 5, p13 + 6, p13 + 7, p13 + 8, p13 + 9, p13 + 10, p13 + 11, p13 + 12, p13 + 13, p13 + 14, p13 + 15, p13 + 16, p13 + 17, p13 + 18, p13 + 19, p13 + 20, p13 + 21, p13 + 22, p13 + 23, p13 + 24, p13 + 25, p13 + 26, p13 + 27, p13 + 28, p13 + 29, p13 + 30, p13 + 31, p13 + 32, p13 + 33, p13 + 34, p13 + 35, p13 + 36, p13 + 37, p13 + 38, p13 + 39, 9};
Line(14) = {10, 9};
p15 = newp;
Point(p15 + 1) = {33.74730560267832, 2.03056340839709, 0};
Point(p15 + 2) = {33.7130370072594, 2.173302381016836, 0};
Point(p15 + 3) = {33.6568610202934, 2.308923210629849, 0};
Point(p15 + 4) = {33.58016088101684, 2.434086462311329, 0};
Point(p15 + 5) = {33.48482520141186, 2.54571020141186, 0};
Point(p15 + 6) = {33.37320146231133, 2.641045881016836, 0};
Point(p15 + 7) = {33.24803821062984, 2.717746020293403, 0};
Point(p15 + 8) = {33.11241738101683, 2.773922007259404, 0};
Point(p15 + 9) = {32.96967840839709, 2.808190602678323, 0};
Point(p15 + 10) = {32.823336, 2.819708, 0};
Point(p15 + 11) = {32.67699359160291, 2.808190602678323, 0};
Point(p15 + 12) = {32.53425461898316, 2.773922007259404, 0};
Point(p15 + 13) = {32.39863378937015, 2.717746020293403, 0};
Point(p15 + 14) = {32.27347053768867, 2.641045881016836, 0};
Point(p15 + 15) = {32.16184679858814, 2.54571020141186, 0};
Point(p15 + 16) = {32.06651111898316, 2.434086462311329, 0};
Point(p15 + 17) = {31.98981097970659, 2.30892321062985, 0};
Point(p15 + 18) = {31.93363499274059, 2.173302381016836, 0};
Point(p15 + 19) = {31.89936639732167, 2.03056340839709, 0};
Point(p15 + 20) = {31.887849, 1.884221, 0};
Point(p15 + 21) = {31.89936639732167, 1.73787859160291, 0};
Point(p15 + 22) = {31.93363499274059, 1.595139618983163, 0};
Point(p15 + 23) = {31.98981097970659, 1.459518789370151, 0};
Point(p15 + 24) = {32.06651111898316, 1.334355537688671, 0};
Point(p15 + 25) = {32.16184679858814, 1.22273179858814, 0};
Point(p15 + 26) = {32.27347053768867, 1.127396118983164, 0};
Point(p15 + 27) = {32.39863378937014, 1.050695979706596, 0};
Point(p15 + 28) = {32.53425461898316, 0.9945199927405957, 0};
Point(p15 + 29) = {32.67699359160291, 0.9602513973216764, 0};
Point(p15 + 30) = {32.823336, 0.948734, 0};
Point(p15 + 31) = {32.96967840839709, 0.9602513973216763, 0};
Point(p15 + 32) = {33.11241738101683, 0.9945199927405955, 0};
Point(p15 + 33) = {33.24803821062984, 1.050695979706596, 0};
Point(p15 + 34) = {33.37320146231133, 1.127396118983163, 0};
Point(p15 + 35) = {33.48482520141186, 1.22273179858814, 0};
Point(p15 + 36) = {33.58016088101684, 1.334355537688671, 0};
Point(p15 + 37) = {33.6568610202934, 1.45951878937015, 0};
Point(p15 + 38) = {33.7130370072594, 1.595139618983163, 0};
Point(p15 + 39) = {33.74730560267832, 1.737878591602909, 0};
Spline(15) = {10, p15 + 1, p15 + 2, p15 + 3, p15 + 4, p15 + 5, p15 + 6, p15 + 7, p15 + 8, p15 + 9, p15 + 10, p15 + 11, p15 + 12, p15 + 13, p15 + 14, p15 + 15, p15 + 16, p15 + 17, p15 + 18, p15 + 19, p15 + 20, p15 + 21, p15 + 22, p15 + 23, p15 + 24, p15 + 25, p15 + 26, p15 + 27, p15 + 28, p15 + 29, p15 + 30, p15 + 31, p15 + 32, p15 + 33, p15 + 34, p15 + 35, p15 + 36, p15 + 37, p15 + 38, p15 + 39, 10};
p16 = newp;
Point(p16 + 1) = {18.01111577015994, 2.219992617199053, 0.1};
Point(p16 + 2) = {17.98296802289513, 2.337236422409732, 0.1};
Point(p16 + 3) = {17.93682584916024, 2.448633484037869, 0.1};
Point(p16 + 4) = {17.87382542240973, 2.551440836720527, 0.1};
Point(p16 + 5) = {17.79551802223662, 2.643127022236618, 0.1};
Point(p16 + 6) = {17.70383183672052, 2.721434422409732, 0.1};
Point(p16 + 7) = {17.60102448403787, 2.784434849160245, 0.1};
Point(p16 + 8) = {17.48962742240973, 2.830577022895131, 0.1};
Point(p16 + 9) = {17.37238361719905, 2.858724770159941, 0.1};
Point(p16 + 10) = {17.25218, 2.868185, 0.1};
Point(p16 + 11) = {17.13197638280095, 2.858724770159941, 0.1};
Point(p16 + 12) = {17.01473257759027, 2.830577022895131, 0.1};
Point(p16 + 13) = {16.90333551596213, 2.784434849160245, 0.1};
Point(p16 + 14) = {16.80052816327947, 2.721434422409732, 0.1};
Point(p16 + 15) = {16.70884197776338, 2.643127022236619, 0.1};
Point(p16 + 16) = {16.63053457759027, 2.551440836720527, 0.1};
Point(p16 + 17) = {16.56753415083976, 2.448633484037869, 0.1};
Point(p16 + 18) = {16.52139197710487, 2.337236422409732, 0.1};
Point(p16 + 19) = {16.49324422984006, 2.219992617199053, 0.1};
Point(p16 + 20) = {16.483784, 2.099789, 0.1};
Point(p16 + 21) = {16.49324422984006, 1.979585382800947, 0.1};
Point(p16 + 22) = {16.52139197710487, 1.862341577590268, 0.1};
Point(p16 + 23) = {16.56753415083976, 1.750944515962132, 0.1};
Point(p16 + 24) = {16.63053457759027, 1.648137163279473, 0.1};
Point(p16 + 25) = {16.70884197776338, 1.556450977763382, 0.1};
Point(p16 + 26) = {16.80052816327947, 1.478143577590268, 0.1};
Point(p16 + 27) = {16.90333551596213, 1.415143150839755, 0.1};
Point(p16 + 28) = {17.01473257759027, 1.369000977104869, 0.1};
Point(p16 + 29) = {17.13197638280095, 1.340853229840059, 0.1};
Point(p16 + 30) = {17.25218, 1.331393, 0.1};
Point(p16 + 31) = {17.37238361719905, 1.340853229840059, 0.1};
Point(p16 + 32) = {17.48962742240973, 1.369000977104869, 0.1};
Point(p16 + 33) = {17.60102448403787, 1.415143150839755, 0.1};
Point(p16 + 34) = {17.70383183672052, 1.478143577590268, 0.1};
Point(p16 + 35) = {17.79551802223662, 1.556450977763381, 0.1};
Point(p16 + 36) = {17.87382542240973, 1.648137163279473, 0.1};
Point(p16 + 37) = {17.93682584916024, 1.750944515962131, 0.1};
Point(p16 + 38) = {17.98296802289513, 1.862341577590268, 0.1};
Point(p16 + 39) = {18.01111577015994, 1.979585382800946, 0.1};
Spline(16) = {11, p16 + 1, p16 + 2, p16 + 3, p16 + 4, p16 + 5, p16 + 6, p16 + 7, p16 + 8, p16 + 9, p16 + 10, p16 + 11, p16 + 12, p16 + 13, p16 + 14, p16 + 15, p16 + 16, p16 + 17, p16 + 18, p16 + 19, p16 + 20, p16 + 21, p16 + 22, p16 + 23, p16 + 24, p16 + 25, p16 + 26, p16 + 27, p16 + 28, p16 + 29, p16 + 30, p16 + 31, p16 + 32, p16 + 33, p16 + 34, p16 + 35, p16 + 36, p16 + 37, p16 + 38, p16 + 39, 11};
Line(17) = {12, 11};
p18 = newp;
Point(p18 + 1) = {18.01111577015994, 2.219992617199053, 0};
Point(p18 + 2) = {17.98296802289513, 2.337236422409732, 0};
Point(p18 + 3) = {17.93682584916024, 2.448633484037869, 0};
Point(p18 + 4) = {17.87382542240973, 2.551440836720527, 0};
Point(p18 + 5) = {17.79551802223662, 2.643127022236618, 0};
Point(p18 + 6) = {17.70383183672052, 2.721434422409732, 0};
Point(p18 + 7) = {17.60102448403787, 2.784434849160245, 0};
Point(p18 + 8) = {17.48962742240973, 2.830577022895131, 0};
Point(p18 + 9) = {17.37238361719905, 2.858724770159941, 0};
Point(p18 + 10) = {17.25218, 2.868185, 0};
Point(p18 + 11) = {17.13197638280095, 2.858724770159941, 0};
Point(p18 + 12) = {17.01473257759027, 2.830577022895131, 0};
Point(p18 + 13) = {16.90333551596213, 2.784434849160245, 0};
Point(p18 + 14) = {16.80052816327947, 2.721434422409732, 0};
Point(p18 + 15) = {16.70884197776338, 2.643127022236619, 0};
Point(p18 + 16) = {16.63053457759027, 2.551440836720527, 0};
Point(p18 + 17) = {16.56753415083976, 2.448633484037869, 0};
Point(p18 + 18) = {16.52139197710487, 2.337236422409732, 0};
Point(p18 + 19) = {16.49324422984006, 2.219992617199053, 0};
Point(p18 + 20) = {16.483784, 2.099789, 0};
Point(p18 + 21) = {16.49324422984006, 1.979585382800947, 0};
Point(p18 + 22) = {16.52139197710487, 1.862341577590268, 0};
Point(p18 + 23) = {16.56753415083976, 1.750944515962132, 0};
Point(p18 + 24) = {16.63053457759027, 1.648137163279473, 0};
Point(p18 + 25) = {16.70884197776338, 1.556450977763382, 0};
Point(p18 + 26) = {16.80052816327947, 1.478143577590268, 0};
Point(p18 + 27) = {16.90333551596213, 1.415143150839755, 0};
Point(p18 + 28) = {17.01473257759027, 1.369000977104869, 0};
Point(p18 + 29) = {17.13197638280095, 1.340853229840059, 0};
Point(p18 + 30) = {17.25218, 1.331393, 0};
Point(p18 + 31) = {17.37238361719905, 1.340853229840059, 0};
Point(p18 + 32) = {17.48962742240973, 1.369000977104869, 0};
Point(p18 + 33) = {17.60102448403787, 1.415143150839755, 0};
Point(p18 + 34) = {17.70383183672052, 1.478143577590268, 0};
Point(p18 + 35) = {17.79551802223662, 1.556450977763381, 0};
Point(p18 + 36) = {17.87382542240973, 1.648137163279473, 0};
Point(p18 + 37) = {17.93682584916024, 1.750944515962131, 0};
Point(p18 + 38) = {17.98296802289513, 1.862341577590268, 0};
Point(p18 + 39) = {18.01111577015994, 1.979585382800946, 0};
Spline(18) = {12, p18 + 1, p18 + 2, p18 + 3, p18 + 4, p18 + 5, p18 + 6, p18 + 7, p18 + 8, p18 + 9, p18 + 10, p18 + 11, p18 + 12, p18 + 13, p18 + 14, p18 + 15, p18 + 16, p18 + 17, p18 + 18, p18 + 19, p18 + 20, p18 + 21, p18 + 22, p18 + 23, p18 + 24, p18 + 25, p18 + 26, p18 + 27, p18 + 28, p18 + 29, p18 + 30, p18 + 31, p18 + 32, p18 + 33, p18 + 34, p18 + 35, p18 + 36, p18 + 37, p18 + 38, p18 + 39, 12};
Line(19) = {14, 13};
Line(20) = {13, 15};
Line(21) = {16, 15};
Line(22) = {14, 16};
Line(23) = {14, 17};
Line(24) = {17, 18};
Line(25) = {13, 18};
Line(26) = {15, 19};
Line(27) = {18, 19};
Line(28) = {16, 20};
Line(29) = {20, 19};
Line(30) = {17, 20};
Curve Loop(7) = {-13, -14, 15, 14};
Surface(7) = {7};
Curve Loop(8) = {13};
Plane Surface(8) = {8};
Curve Loop(9) = {15};
Plane Surface(9) = {9};
Curve Loop(10) = {-16, -17, 18, 17};
Surface(10) = {10};
Curve Loop(11) = {16};
Plane Surface(11) = {11};
Curve Loop(12) = {18};
Plane Surface(12) = {12};
Curve Loop(13) = {-19, 22, 21, -20};
Plane Surface(13) = {13};
Curve Loop(14) = {-23, 19, 25, -24};
Plane Surface(14) = {14};
Curve Loop(15) = {-20, 25, 27, -26};
Plane Surface(15) = {15};
Curve Loop(16) = {-28, 21, 26, -29};
Plane Surface(16) = {16};
Curve Loop(17) = {-22, 23, 30, -28, -15, -18};
Plane Surface(17) = {17};
Curve Loop(18) = {-24, 30, 29, -27};
Plane Surface(18) = {18};
Surface Loop(1) = {13, 14, 15, 16, 17, 18, 7, 10, 8, 11};
Volume(1) = {1};
Surface Loop(2) = {7, 8, 9};
Volume(2) = {2};
Surface Loop(3) = {10, 11, 12};
Volume(3) = {3};
Physical Surface("WALLS") = {13, 18};
Physical Surface("LOAD") = {8, 11};
Physical Surface("BORDER") = {7, 9, 10, 12, 14, 15, 16, 17};
Physical Volume("SOLID") = {1, 2, 3};
