cl__1 = 0.061237;
cl__2 = 0.051373;
cl__3 = 4.4701;
cl__4 = 4.04081;
cl__5 = 0.4775;
cl__6 = 0.28242;
Point(9) = {25.983632, 2.928594, 0.1, cl__1};
Point(10) = {25.983632, 2.928594, 0, cl__1};
Point(11) = {29.602236, 2.657703, 0.1, cl__2};
Point(12) = {29.602236, 2.657703, 0, cl__2};
Point(13) = {0.671748, -3.727382, 1, cl__3};
Point(14) = {0.671748, -3.727382, 0, cl__3};
Point(15) = {0.671748, 4.574463999999999, 1, cl__4};
Point(16) = {0.671748, 4.574463999999999, 0, cl__4};
Point(17) = {33.483079, -3.727382, 0, cl__5};
Point(18) = {33.483079, -3.727382, 1, cl__5};
Point(19) = {33.483079, 4.574463999999999, 1, cl__6};
Point(20) = {33.483079, 4.574463999999999, 0, cl__6};
p13 = newp;
Point(p13 + 1) = {25.97609268450692, 3.024390086225616, 0.1};
Point(p13 + 2) = {25.95366038099669, 3.117827354879375, 0.1};
Point(p13 + 3) = {25.91688744723028, 3.206605070306506, 0.1};
Point(p13 + 4) = {25.86667935487937, 3.288537230516846, 0.1};
Point(p13 + 5) = {25.80427239380877, 3.361606393808768, 0.1};
Point(p13 + 6) = {25.73120323051685, 3.424013354879375, 0.1};
Point(p13 + 7) = {25.6492710703065, 3.474221447230279, 0.1};
Point(p13 + 8) = {25.56049335487937, 3.510994380996696, 0.1};
Point(p13 + 9) = {25.46705608622561, 3.533426684506926, 0.1};
Point(p13 + 10) = {25.37126, 3.540966, 0.1};
Point(p13 + 11) = {25.27546391377438, 3.533426684506925, 0.1};
Point(p13 + 12) = {25.18202664512063, 3.510994380996696, 0.1};
Point(p13 + 13) = {25.09324892969349, 3.474221447230279, 0.1};
Point(p13 + 14) = {25.01131676948315, 3.424013354879375, 0.1};
Point(p13 + 15) = {24.93824760619123, 3.361606393808768, 0.1};
Point(p13 + 16) = {24.87584064512063, 3.288537230516846, 0.1};
Point(p13 + 17) = {24.82563255276972, 3.206605070306506, 0.1};
Point(p13 + 18) = {24.7888596190033, 3.117827354879375, 0.1};
Point(p13 + 19) = {24.76642731549308, 3.024390086225616, 0.1};
Point(p13 + 20) = {24.758888, 2.928594, 0.1};
Point(p13 + 21) = {24.76642731549308, 2.832797913774384, 0.1};
Point(p13 + 22) = {24.7888596190033, 2.739360645120624, 0.1};
Point(p13 + 23) = {24.82563255276972, 2.650582929693495, 0.1};
Point(p13 + 24) = {24.87584064512063, 2.568650769483154, 0.1};
Point(p13 + 25) = {24.93824760619123, 2.495581606191231, 0.1};
Point(p13 + 26) = {25.01131676948315, 2.433174645120625, 0.1};
Point(p13 + 27) = {25.09324892969349, 2.382966552769721, 0.1};
Point(p13 + 28) = {25.18202664512063, 2.346193619003304, 0.1};
Point(p13 + 29) = {25.27546391377438, 2.323761315493075, 0.1};
Point(p13 + 30) = {25.37126, 2.316222, 0.1};
Point(p13 + 31) = {25.46705608622561, 2.323761315493074, 0.1};
Point(p13 + 32) = {25.56049335487937, 2.346193619003304, 0.1};
Point(p13 + 33) = {25.6492710703065, 2.38296655276972, 0.1};
Point(p13 + 34) = {25.73120323051685, 2.433174645120625, 0.1};
Point(p13 + 35) = {25.80427239380877, 2.495581606191231, 0.1};
Point(p13 + 36) = {25.86667935487937, 2.568650769483154, 0.1};
Point(p13 + 37) = {25.91688744723028, 2.650582929693494, 0.1};
Point(p13 + 38) = {25.95366038099669, 2.739360645120624, 0.1};
Point(p13 + 39) = {25.97609268450692, 2.832797913774384, 0.1};
Spline(13) = {9, p13 + 1, p13 + 2, p13 + 3, p13 + 4, p13 + 5, p13 + 6, p13 + 7, p13 + 8, p13 + 9, p13 + 10, p13 + 11, p13 + 12, p13 + 13, p13 + 14, p13 + 15, p13 + 16, p13 + 17, p13 + 18, p13 + 19, p13 + 20, p13 + 21, p13 + 22, p13 + 23, p13 + 24, p13 + 25, p13 + 26, p13 + 27, p13 + 28, p13 + 29, p13 + 30, p13 + 31, p13 + 32, p13 + 33, p13 + 34, p13 + 35, p13 + 36, p13 + 37, p13 + 38, p13 + 39, 9};
Line(14) = {10, 9};
p15 = newp;
Point(p15 + 1) = {25.97609268450692, 3.024390086225616, 0};
Point(p15 + 2) = {25.95366038099669, 3.117827354879375, 0};
Point(p15 + 3) = {25.91688744723028, 3.206605070306506, 0};
Point(p15 + 4) = {25.86667935487937, 3.288537230516846, 0};
Point(p15 + 5) = {25.80427239380877, 3.361606393808768, 0};
Point(p15 + 6) = {25.73120323051685, 3.424013354879375, 0};
Point(p15 + 7) = {25.6492710703065, 3.474221447230279, 0};
Point(p15 + 8) = {25.56049335487937, 3.510994380996696, 0};
Point(p15 + 9) = {25.46705608622561, 3.533426684506926, 0};
Point(p15 + 10) = {25.37126, 3.540966, 0};
Point(p15 + 11) = {25.27546391377438, 3.533426684506925, 0};
Point(p15 + 12) = {25.18202664512063, 3.510994380996696, 0};
Point(p15 + 13) = {25.09324892969349, 3.474221447230279, 0};
Point(p15 + 14) = {25.01131676948315, 3.424013354879375, 0};
Point(p15 + 15) = {24.93824760619123, 3.361606393808768, 0};
Point(p15 + 16) = {24.87584064512063, 3.288537230516846, 0};
Point(p15 + 17) = {24.82563255276972, 3.206605070306506, 0};
Point(p15 + 18) = {24.7888596190033, 3.117827354879375, 0};
Point(p15 + 19) = {24.76642731549308, 3.024390086225616, 0};
Point(p15 + 20) = {24.758888, 2.928594, 0};
Point(p15 + 21) = {24.76642731549308, 2.832797913774384, 0};
Point(p15 + 22) = {24.7888596190033, 2.739360645120624, 0};
Point(p15 + 23) = {24.82563255276972, 2.650582929693495, 0};
Point(p15 + 24) = {24.87584064512063, 2.568650769483154, 0};
Point(p15 + 25) = {24.93824760619123, 2.495581606191231, 0};
Point(p15 + 26) = {25.01131676948315, 2.433174645120625, 0};
Point(p15 + 27) = {25.09324892969349, 2.382966552769721, 0};
Point(p15 + 28) = {25.18202664512063, 2.346193619003304, 0};
Point(p15 + 29) = {25.27546391377438, 2.323761315493075, 0};
Point(p15 + 30) = {25.37126, 2.316222, 0};
Point(p15 + 31) = {25.46705608622561, 2.323761315493074, 0};
Point(p15 + 32) = {25.56049335487937, 2.346193619003304, 0};
Point(p15 + 33) = {25.6492710703065, 2.38296655276972, 0};
Point(p15 + 34) = {25.73120323051685, 2.433174645120625, 0};
Point(p15 + 35) = {25.80427239380877, 2.495581606191231, 0};
Point(p15 + 36) = {25.86667935487937, 2.568650769483154, 0};
Point(p15 + 37) = {25.91688744723028, 2.650582929693494, 0};
Point(p15 + 38) = {25.95366038099669, 2.739360645120624, 0};
Point(p15 + 39) = {25.97609268450692, 2.832797913774384, 0};
Spline(15) = {10, p15 + 1, p15 + 2, p15 + 3, p15 + 4, p15 + 5, p15 + 6, p15 + 7, p15 + 8, p15 + 9, p15 + 10, p15 + 11, p15 + 12, p15 + 13, p15 + 14, p15 + 15, p15 + 16, p15 + 17, p15 + 18, p15 + 19, p15 + 20, p15 + 21, p15 + 22, p15 + 23, p15 + 24, p15 + 25, p15 + 26, p15 + 27, p15 + 28, p15 + 29, p15 + 30, p15 + 31, p15 + 32, p15 + 33, p15 + 34, p15 + 35, p15 + 36, p15 + 37, p15 + 38, p15 + 39, 10};
p16 = newp;
Point(p16 + 1) = {29.59591109427896, 2.738068547028513, 0.1};
Point(p16 + 2) = {29.57709211728586, 2.816455227571225, 0.1};
Point(p16 + 3) = {29.54624245469086, 2.890932901402697, 0.1};
Point(p16 + 4) = {29.50412172757122, 2.959667681015969, 0.1};
Point(p16 + 5) = {29.45176708801931, 3.020967088019309, 0.1};
Point(p16 + 6) = {29.39046768101597, 3.073321727571225, 0.1};
Point(p16 + 7) = {29.3217329014027, 3.115442454690863, 0.1};
Point(p16 + 8) = {29.24725522757122, 3.146292117285858, 0.1};
Point(p16 + 9) = {29.16886854702851, 3.165111094278962, 0.1};
Point(p16 + 10) = {29.088503, 3.171436, 0.1};
Point(p16 + 11) = {29.00813745297149, 3.165111094278962, 0.1};
Point(p16 + 12) = {28.92975077242878, 3.146292117285858, 0.1};
Point(p16 + 13) = {28.8552730985973, 3.115442454690863, 0.1};
Point(p16 + 14) = {28.78653831898403, 3.073321727571225, 0.1};
Point(p16 + 15) = {28.72523891198069, 3.020967088019309, 0.1};
Point(p16 + 16) = {28.67288427242877, 2.959667681015969, 0.1};
Point(p16 + 17) = {28.63076354530914, 2.890932901402697, 0.1};
Point(p16 + 18) = {28.59991388271414, 2.816455227571225, 0.1};
Point(p16 + 19) = {28.58109490572104, 2.738068547028513, 0.1};
Point(p16 + 20) = {28.57477, 2.657703, 0.1};
Point(p16 + 21) = {28.58109490572104, 2.577337452971487, 0.1};
Point(p16 + 22) = {28.59991388271414, 2.498950772428775, 0.1};
Point(p16 + 23) = {28.63076354530914, 2.424473098597304, 0.1};
Point(p16 + 24) = {28.67288427242877, 2.355738318984031, 0.1};
Point(p16 + 25) = {28.72523891198069, 2.294438911980691, 0.1};
Point(p16 + 26) = {28.78653831898403, 2.242084272428775, 0.1};
Point(p16 + 27) = {28.8552730985973, 2.199963545309137, 0.1};
Point(p16 + 28) = {28.92975077242878, 2.169113882714142, 0.1};
Point(p16 + 29) = {29.00813745297149, 2.150294905721038, 0.1};
Point(p16 + 30) = {29.088503, 2.14397, 0.1};
Point(p16 + 31) = {29.16886854702851, 2.150294905721038, 0.1};
Point(p16 + 32) = {29.24725522757122, 2.169113882714142, 0.1};
Point(p16 + 33) = {29.3217329014027, 2.199963545309137, 0.1};
Point(p16 + 34) = {29.39046768101597, 2.242084272428775, 0.1};
Point(p16 + 35) = {29.45176708801931, 2.294438911980691, 0.1};
Point(p16 + 36) = {29.50412172757122, 2.355738318984031, 0.1};
Point(p16 + 37) = {29.54624245469086, 2.424473098597304, 0.1};
Point(p16 + 38) = {29.57709211728586, 2.498950772428775, 0.1};
Point(p16 + 39) = {29.59591109427896, 2.577337452971487, 0.1};
Spline(16) = {11, p16 + 1, p16 + 2, p16 + 3, p16 + 4, p16 + 5, p16 + 6, p16 + 7, p16 + 8, p16 + 9, p16 + 10, p16 + 11, p16 + 12, p16 + 13, p16 + 14, p16 + 15, p16 + 16, p16 + 17, p16 + 18, p16 + 19, p16 + 20, p16 + 21, p16 + 22, p16 + 23, p16 + 24, p16 + 25, p16 + 26, p16 + 27, p16 + 28, p16 + 29, p16 + 30, p16 + 31, p16 + 32, p16 + 33, p16 + 34, p16 + 35, p16 + 36, p16 + 37, p16 + 38, p16 + 39, 11};
Line(17) = {12, 11};
p18 = newp;
Point(p18 + 1) = {29.59591109427896, 2.738068547028513, 0};
Point(p18 + 2) = {29.57709211728586, 2.816455227571225, 0};
Point(p18 + 3) = {29.54624245469086, 2.890932901402697, 0};
Point(p18 + 4) = {29.50412172757122, 2.959667681015969, 0};
Point(p18 + 5) = {29.45176708801931, 3.020967088019309, 0};
Point(p18 + 6) = {29.39046768101597, 3.073321727571225, 0};
Point(p18 + 7) = {29.3217329014027, 3.115442454690863, 0};
Point(p18 + 8) = {29.24725522757122, 3.146292117285858, 0};
Point(p18 + 9) = {29.16886854702851, 3.165111094278962, 0};
Point(p18 + 10) = {29.088503, 3.171436, 0};
Point(p18 + 11) = {29.00813745297149, 3.165111094278962, 0};
Point(p18 + 12) = {28.92975077242878, 3.146292117285858, 0};
Point(p18 + 13) = {28.8552730985973, 3.115442454690863, 0};
Point(p18 + 14) = {28.78653831898403, 3.073321727571225, 0};
Point(p18 + 15) = {28.72523891198069, 3.020967088019309, 0};
Point(p18 + 16) = {28.67288427242877, 2.959667681015969, 0};
Point(p18 + 17) = {28.63076354530914, 2.890932901402697, 0};
Point(p18 + 18) = {28.59991388271414, 2.816455227571225, 0};
Point(p18 + 19) = {28.58109490572104, 2.738068547028513, 0};
Point(p18 + 20) = {28.57477, 2.657703, 0};
Point(p18 + 21) = {28.58109490572104, 2.577337452971487, 0};
Point(p18 + 22) = {28.59991388271414, 2.498950772428775, 0};
Point(p18 + 23) = {28.63076354530914, 2.424473098597304, 0};
Point(p18 + 24) = {28.67288427242877, 2.355738318984031, 0};
Point(p18 + 25) = {28.72523891198069, 2.294438911980691, 0};
Point(p18 + 26) = {28.78653831898403, 2.242084272428775, 0};
Point(p18 + 27) = {28.8552730985973, 2.199963545309137, 0};
Point(p18 + 28) = {28.92975077242878, 2.169113882714142, 0};
Point(p18 + 29) = {29.00813745297149, 2.150294905721038, 0};
Point(p18 + 30) = {29.088503, 2.14397, 0};
Point(p18 + 31) = {29.16886854702851, 2.150294905721038, 0};
Point(p18 + 32) = {29.24725522757122, 2.169113882714142, 0};
Point(p18 + 33) = {29.3217329014027, 2.199963545309137, 0};
Point(p18 + 34) = {29.39046768101597, 2.242084272428775, 0};
Point(p18 + 35) = {29.45176708801931, 2.294438911980691, 0};
Point(p18 + 36) = {29.50412172757122, 2.355738318984031, 0};
Point(p18 + 37) = {29.54624245469086, 2.424473098597304, 0};
Point(p18 + 38) = {29.57709211728586, 2.498950772428775, 0};
Point(p18 + 39) = {29.59591109427896, 2.577337452971487, 0};
Spline(18) = {12, p18 + 1, p18 + 2, p18 + 3, p18 + 4, p18 + 5, p18 + 6, p18 + 7, p18 + 8, p18 + 9, p18 + 10, p18 + 11, p18 + 12, p18 + 13, p18 + 14, p18 + 15, p18 + 16, p18 + 17, p18 + 18, p18 + 19, p18 + 20, p18 + 21, p18 + 22, p18 + 23, p18 + 24, p18 + 25, p18 + 26, p18 + 27, p18 + 28, p18 + 29, p18 + 30, p18 + 31, p18 + 32, p18 + 33, p18 + 34, p18 + 35, p18 + 36, p18 + 37, p18 + 38, p18 + 39, 12};
Line(19) = {14, 13};
Line(20) = {13, 15};
Line(21) = {16, 15};
Line(22) = {14, 16};
Line(23) = {14, 17};
Line(24) = {17, 18};
Line(25) = {13, 18};
Line(26) = {15, 19};
Line(27) = {18, 19};
Line(28) = {16, 20};
Line(29) = {20, 19};
Line(30) = {17, 20};
Curve Loop(7) = {-13, -14, 15, 14};
Surface(7) = {7};
Curve Loop(8) = {13};
Plane Surface(8) = {8};
Curve Loop(9) = {15};
Plane Surface(9) = {9};
Curve Loop(10) = {-16, -17, 18, 17};
Surface(10) = {10};
Curve Loop(11) = {16};
Plane Surface(11) = {11};
Curve Loop(12) = {18};
Plane Surface(12) = {12};
Curve Loop(13) = {-19, 22, 21, -20};
Plane Surface(13) = {13};
Curve Loop(14) = {-23, 19, 25, -24};
Plane Surface(14) = {14};
Curve Loop(15) = {-20, 25, 27, -26};
Plane Surface(15) = {15};
Curve Loop(16) = {-28, 21, 26, -29};
Plane Surface(16) = {16};
Curve Loop(17) = {-22, 23, 30, -28, -18, -15};
Plane Surface(17) = {17};
Curve Loop(18) = {-24, 30, 29, -27};
Plane Surface(18) = {18};
Surface Loop(1) = {13, 14, 15, 16, 17, 18, 10, 7, 11, 8};
Volume(1) = {1};
Surface Loop(2) = {7, 8, 9};
Volume(2) = {2};
Surface Loop(3) = {10, 11, 12};
Volume(3) = {3};
Physical Surface("WALLS") = {13, 18};
Physical Surface("LOAD") = {8, 11};
Physical Surface("BORDER") = {7, 9, 10, 12, 14, 15, 16, 17};
Physical Volume("SOLID") = {1, 2, 3};
