cl__1 = 0.075181;
cl__2 = 0.062228;
cl__3 = 5.905707;
cl__4 = 6.559863;
cl__5 = 0.22182;
cl__6 = 0.098661;
Point(9) = {34.198941, 4.131046, 0.1, cl__1};
Point(10) = {34.198941, 4.131046, 0, cl__1};
Point(11) = {31.776276, -2.507247, 0.1, cl__2};
Point(12) = {31.776276, -2.507247, 0, cl__2};
Point(13) = {0.73448, -3.853292, 1, cl__3};
Point(14) = {0.73448, -3.853292, 0, cl__3};
Point(15) = {0.73448, 5.719162000000001, 1, cl__4};
Point(16) = {0.73448, 5.719162000000001, 0, cl__4};
Point(17) = {35.219575, -3.853292, 0, cl__5};
Point(18) = {35.219575, -3.853292, 1, cl__5};
Point(19) = {35.219575, 5.719162000000001, 1, cl__6};
Point(20) = {35.219575, 5.719162000000001, 0, cl__6};
p13 = newp;
Point(p13 + 1) = {34.18968499596615, 4.248654682292966, 0.1};
Point(p13 + 2) = {34.16214489740283, 4.363367448507041, 0.1};
Point(p13 + 3) = {34.11699883293701, 4.47235968962819, 0.1};
Point(p13 + 4) = {34.05535844850704, 4.5729476549555, 0.1};
Point(p13 + 5) = {33.9787415349503, 4.662654534950296, 0.1};
Point(p13 + 6) = {33.8890346549555, 4.739271448507041, 0.1};
Point(p13 + 7) = {33.78844668962819, 4.800911832937009, 0.1};
Point(p13 + 8) = {33.67945444850704, 4.846057897402828, 0.1};
Point(p13 + 9) = {33.56474168229297, 4.87359799596615, 0.1};
Point(p13 + 10) = {33.447133, 4.882854, 0.1};
Point(p13 + 11) = {33.32952431770703, 4.87359799596615, 0.1};
Point(p13 + 12) = {33.21481155149296, 4.846057897402828, 0.1};
Point(p13 + 13) = {33.10581931037181, 4.800911832937009, 0.1};
Point(p13 + 14) = {33.0052313450445, 4.739271448507041, 0.1};
Point(p13 + 15) = {32.91552446504971, 4.662654534950296, 0.1};
Point(p13 + 16) = {32.83890755149296, 4.572947654955501, 0.1};
Point(p13 + 17) = {32.77726716706299, 4.47235968962819, 0.1};
Point(p13 + 18) = {32.73212110259718, 4.363367448507041, 0.1};
Point(p13 + 19) = {32.70458100403386, 4.248654682292966, 0.1};
Point(p13 + 20) = {32.695325, 4.131046, 0.1};
Point(p13 + 21) = {32.70458100403385, 4.013437317707035, 0.1};
Point(p13 + 22) = {32.73212110259718, 3.89872455149296, 0.1};
Point(p13 + 23) = {32.77726716706299, 3.789732310371812, 0.1};
Point(p13 + 24) = {32.83890755149296, 3.689144345044501, 0.1};
Point(p13 + 25) = {32.91552446504971, 3.599437465049705, 0.1};
Point(p13 + 26) = {33.0052313450445, 3.52282055149296, 0.1};
Point(p13 + 27) = {33.10581931037181, 3.461180167062992, 0.1};
Point(p13 + 28) = {33.21481155149296, 3.416034102597174, 0.1};
Point(p13 + 29) = {33.32952431770703, 3.388494004033851, 0.1};
Point(p13 + 30) = {33.447133, 3.379238, 0.1};
Point(p13 + 31) = {33.56474168229297, 3.388494004033851, 0.1};
Point(p13 + 32) = {33.67945444850704, 3.416034102597174, 0.1};
Point(p13 + 33) = {33.78844668962819, 3.461180167062992, 0.1};
Point(p13 + 34) = {33.8890346549555, 3.52282055149296, 0.1};
Point(p13 + 35) = {33.9787415349503, 3.599437465049705, 0.1};
Point(p13 + 36) = {34.05535844850704, 3.689144345044501, 0.1};
Point(p13 + 37) = {34.11699883293701, 3.789732310371811, 0.1};
Point(p13 + 38) = {34.16214489740283, 3.89872455149296, 0.1};
Point(p13 + 39) = {34.18968499596615, 4.013437317707035, 0.1};
Spline(13) = {9, p13 + 1, p13 + 2, p13 + 3, p13 + 4, p13 + 5, p13 + 6, p13 + 7, p13 + 8, p13 + 9, p13 + 10, p13 + 11, p13 + 12, p13 + 13, p13 + 14, p13 + 15, p13 + 16, p13 + 17, p13 + 18, p13 + 19, p13 + 20, p13 + 21, p13 + 22, p13 + 23, p13 + 24, p13 + 25, p13 + 26, p13 + 27, p13 + 28, p13 + 29, p13 + 30, p13 + 31, p13 + 32, p13 + 33, p13 + 34, p13 + 35, p13 + 36, p13 + 37, p13 + 38, p13 + 39, 9};
Line(14) = {10, 9};
p15 = newp;
Point(p15 + 1) = {34.18968499596615, 4.248654682292966, 0};
Point(p15 + 2) = {34.16214489740283, 4.363367448507041, 0};
Point(p15 + 3) = {34.11699883293701, 4.47235968962819, 0};
Point(p15 + 4) = {34.05535844850704, 4.5729476549555, 0};
Point(p15 + 5) = {33.9787415349503, 4.662654534950296, 0};
Point(p15 + 6) = {33.8890346549555, 4.739271448507041, 0};
Point(p15 + 7) = {33.78844668962819, 4.800911832937009, 0};
Point(p15 + 8) = {33.67945444850704, 4.846057897402828, 0};
Point(p15 + 9) = {33.56474168229297, 4.87359799596615, 0};
Point(p15 + 10) = {33.447133, 4.882854, 0};
Point(p15 + 11) = {33.32952431770703, 4.87359799596615, 0};
Point(p15 + 12) = {33.21481155149296, 4.846057897402828, 0};
Point(p15 + 13) = {33.10581931037181, 4.800911832937009, 0};
Point(p15 + 14) = {33.0052313450445, 4.739271448507041, 0};
Point(p15 + 15) = {32.91552446504971, 4.662654534950296, 0};
Point(p15 + 16) = {32.83890755149296, 4.572947654955501, 0};
Point(p15 + 17) = {32.77726716706299, 4.47235968962819, 0};
Point(p15 + 18) = {32.73212110259718, 4.363367448507041, 0};
Point(p15 + 19) = {32.70458100403386, 4.248654682292966, 0};
Point(p15 + 20) = {32.695325, 4.131046, 0};
Point(p15 + 21) = {32.70458100403385, 4.013437317707035, 0};
Point(p15 + 22) = {32.73212110259718, 3.89872455149296, 0};
Point(p15 + 23) = {32.77726716706299, 3.789732310371812, 0};
Point(p15 + 24) = {32.83890755149296, 3.689144345044501, 0};
Point(p15 + 25) = {32.91552446504971, 3.599437465049705, 0};
Point(p15 + 26) = {33.0052313450445, 3.52282055149296, 0};
Point(p15 + 27) = {33.10581931037181, 3.461180167062992, 0};
Point(p15 + 28) = {33.21481155149296, 3.416034102597174, 0};
Point(p15 + 29) = {33.32952431770703, 3.388494004033851, 0};
Point(p15 + 30) = {33.447133, 3.379238, 0};
Point(p15 + 31) = {33.56474168229297, 3.388494004033851, 0};
Point(p15 + 32) = {33.67945444850704, 3.416034102597174, 0};
Point(p15 + 33) = {33.78844668962819, 3.461180167062992, 0};
Point(p15 + 34) = {33.8890346549555, 3.52282055149296, 0};
Point(p15 + 35) = {33.9787415349503, 3.599437465049705, 0};
Point(p15 + 36) = {34.05535844850704, 3.689144345044501, 0};
Point(p15 + 37) = {34.11699883293701, 3.789732310371811, 0};
Point(p15 + 38) = {34.16214489740283, 3.89872455149296, 0};
Point(p15 + 39) = {34.18968499596615, 4.013437317707035, 0};
Spline(15) = {10, p15 + 1, p15 + 2, p15 + 3, p15 + 4, p15 + 5, p15 + 6, p15 + 7, p15 + 8, p15 + 9, p15 + 10, p15 + 11, p15 + 12, p15 + 13, p15 + 14, p15 + 15, p15 + 16, p15 + 17, p15 + 18, p15 + 19, p15 + 20, p15 + 21, p15 + 22, p15 + 23, p15 + 24, p15 + 25, p15 + 26, p15 + 27, p15 + 28, p15 + 29, p15 + 30, p15 + 31, p15 + 32, p15 + 33, p15 + 34, p15 + 35, p15 + 36, p15 + 37, p15 + 38, p15 + 39, 10};
p16 = newp;
Point(p16 + 1) = {31.76861473752052, -2.40990143039816, 0.1};
Point(p16 + 2) = {31.7458195957906, -2.314952831791341, 0.1};
Point(p16 + 3) = {31.70845186685236, -2.224739153793574, 0.1};
Point(p16 + 4) = {31.65743166820866, -2.141481756559197, 0.1};
Point(p16 + 5) = {31.59401528647642, -2.067230713523579, 0.1};
Point(p16 + 6) = {31.5197642434408, -2.003814331791341, 0.1};
Point(p16 + 7) = {31.43650684620642, -1.952794133147635, 0.1};
Point(p16 + 8) = {31.34629316820866, -1.915426404209401, 0.1};
Point(p16 + 9) = {31.25134456960184, -1.892631262479479, 0.1};
Point(p16 + 10) = {31.153999, -1.88497, 0.1};
Point(p16 + 11) = {31.05665343039816, -1.89263126247948, 0.1};
Point(p16 + 12) = {30.96170483179134, -1.915426404209401, 0.1};
Point(p16 + 13) = {30.87149115379357, -1.952794133147635, 0.1};
Point(p16 + 14) = {30.78823375655919, -2.003814331791341, 0.1};
Point(p16 + 15) = {30.71398271352358, -2.067230713523579, 0.1};
Point(p16 + 16) = {30.65056633179134, -2.141481756559197, 0.1};
Point(p16 + 17) = {30.59954613314763, -2.224739153793574, 0.1};
Point(p16 + 18) = {30.5621784042094, -2.314952831791341, 0.1};
Point(p16 + 19) = {30.53938326247948, -2.40990143039816, 0.1};
Point(p16 + 20) = {30.531722, -2.507247, 0.1};
Point(p16 + 21) = {30.53938326247948, -2.60459256960184, 0.1};
Point(p16 + 22) = {30.5621784042094, -2.699541168208659, 0.1};
Point(p16 + 23) = {30.59954613314763, -2.789754846206426, 0.1};
Point(p16 + 24) = {30.65056633179134, -2.873012243440803, 0.1};
Point(p16 + 25) = {30.71398271352358, -2.947263286476421, 0.1};
Point(p16 + 26) = {30.78823375655919, -3.010679668208659, 0.1};
Point(p16 + 27) = {30.87149115379357, -3.061699866852365, 0.1};
Point(p16 + 28) = {30.96170483179134, -3.099067595790599, 0.1};
Point(p16 + 29) = {31.05665343039816, -3.12186273752052, 0.1};
Point(p16 + 30) = {31.153999, -3.129524, 0.1};
Point(p16 + 31) = {31.25134456960184, -3.12186273752052, 0.1};
Point(p16 + 32) = {31.34629316820866, -3.099067595790599, 0.1};
Point(p16 + 33) = {31.43650684620642, -3.061699866852365, 0.1};
Point(p16 + 34) = {31.5197642434408, -3.010679668208659, 0.1};
Point(p16 + 35) = {31.59401528647642, -2.947263286476421, 0.1};
Point(p16 + 36) = {31.65743166820866, -2.873012243440803, 0.1};
Point(p16 + 37) = {31.70845186685236, -2.789754846206426, 0.1};
Point(p16 + 38) = {31.7458195957906, -2.699541168208659, 0.1};
Point(p16 + 39) = {31.76861473752052, -2.60459256960184, 0.1};
Spline(16) = {11, p16 + 1, p16 + 2, p16 + 3, p16 + 4, p16 + 5, p16 + 6, p16 + 7, p16 + 8, p16 + 9, p16 + 10, p16 + 11, p16 + 12, p16 + 13, p16 + 14, p16 + 15, p16 + 16, p16 + 17, p16 + 18, p16 + 19, p16 + 20, p16 + 21, p16 + 22, p16 + 23, p16 + 24, p16 + 25, p16 + 26, p16 + 27, p16 + 28, p16 + 29, p16 + 30, p16 + 31, p16 + 32, p16 + 33, p16 + 34, p16 + 35, p16 + 36, p16 + 37, p16 + 38, p16 + 39, 11};
Line(17) = {12, 11};
p18 = newp;
Point(p18 + 1) = {31.76861473752052, -2.40990143039816, 0};
Point(p18 + 2) = {31.7458195957906, -2.314952831791341, 0};
Point(p18 + 3) = {31.70845186685236, -2.224739153793574, 0};
Point(p18 + 4) = {31.65743166820866, -2.141481756559197, 0};
Point(p18 + 5) = {31.59401528647642, -2.067230713523579, 0};
Point(p18 + 6) = {31.5197642434408, -2.003814331791341, 0};
Point(p18 + 7) = {31.43650684620642, -1.952794133147635, 0};
Point(p18 + 8) = {31.34629316820866, -1.915426404209401, 0};
Point(p18 + 9) = {31.25134456960184, -1.892631262479479, 0};
Point(p18 + 10) = {31.153999, -1.88497, 0};
Point(p18 + 11) = {31.05665343039816, -1.89263126247948, 0};
Point(p18 + 12) = {30.96170483179134, -1.915426404209401, 0};
Point(p18 + 13) = {30.87149115379357, -1.952794133147635, 0};
Point(p18 + 14) = {30.78823375655919, -2.003814331791341, 0};
Point(p18 + 15) = {30.71398271352358, -2.067230713523579, 0};
Point(p18 + 16) = {30.65056633179134, -2.141481756559197, 0};
Point(p18 + 17) = {30.59954613314763, -2.224739153793574, 0};
Point(p18 + 18) = {30.5621784042094, -2.314952831791341, 0};
Point(p18 + 19) = {30.53938326247948, -2.40990143039816, 0};
Point(p18 + 20) = {30.531722, -2.507247, 0};
Point(p18 + 21) = {30.53938326247948, -2.60459256960184, 0};
Point(p18 + 22) = {30.5621784042094, -2.699541168208659, 0};
Point(p18 + 23) = {30.59954613314763, -2.789754846206426, 0};
Point(p18 + 24) = {30.65056633179134, -2.873012243440803, 0};
Point(p18 + 25) = {30.71398271352358, -2.947263286476421, 0};
Point(p18 + 26) = {30.78823375655919, -3.010679668208659, 0};
Point(p18 + 27) = {30.87149115379357, -3.061699866852365, 0};
Point(p18 + 28) = {30.96170483179134, -3.099067595790599, 0};
Point(p18 + 29) = {31.05665343039816, -3.12186273752052, 0};
Point(p18 + 30) = {31.153999, -3.129524, 0};
Point(p18 + 31) = {31.25134456960184, -3.12186273752052, 0};
Point(p18 + 32) = {31.34629316820866, -3.099067595790599, 0};
Point(p18 + 33) = {31.43650684620642, -3.061699866852365, 0};
Point(p18 + 34) = {31.5197642434408, -3.010679668208659, 0};
Point(p18 + 35) = {31.59401528647642, -2.947263286476421, 0};
Point(p18 + 36) = {31.65743166820866, -2.873012243440803, 0};
Point(p18 + 37) = {31.70845186685236, -2.789754846206426, 0};
Point(p18 + 38) = {31.7458195957906, -2.699541168208659, 0};
Point(p18 + 39) = {31.76861473752052, -2.60459256960184, 0};
Spline(18) = {12, p18 + 1, p18 + 2, p18 + 3, p18 + 4, p18 + 5, p18 + 6, p18 + 7, p18 + 8, p18 + 9, p18 + 10, p18 + 11, p18 + 12, p18 + 13, p18 + 14, p18 + 15, p18 + 16, p18 + 17, p18 + 18, p18 + 19, p18 + 20, p18 + 21, p18 + 22, p18 + 23, p18 + 24, p18 + 25, p18 + 26, p18 + 27, p18 + 28, p18 + 29, p18 + 30, p18 + 31, p18 + 32, p18 + 33, p18 + 34, p18 + 35, p18 + 36, p18 + 37, p18 + 38, p18 + 39, 12};
Line(19) = {14, 13};
Line(20) = {13, 15};
Line(21) = {16, 15};
Line(22) = {14, 16};
Line(23) = {14, 17};
Line(24) = {17, 18};
Line(25) = {13, 18};
Line(26) = {15, 19};
Line(27) = {18, 19};
Line(28) = {16, 20};
Line(29) = {20, 19};
Line(30) = {17, 20};
Curve Loop(7) = {-13, -14, 15, 14};
Surface(7) = {7};
Curve Loop(8) = {13};
Plane Surface(8) = {8};
Curve Loop(9) = {15};
Plane Surface(9) = {9};
Curve Loop(10) = {-16, -17, 18, 17};
Surface(10) = {10};
Curve Loop(11) = {16};
Plane Surface(11) = {11};
Curve Loop(12) = {18};
Plane Surface(12) = {12};
Curve Loop(13) = {-19, 22, 21, -20};
Plane Surface(13) = {13};
Curve Loop(14) = {-23, 19, 25, -24};
Plane Surface(14) = {14};
Curve Loop(15) = {-20, 25, 27, -26};
Plane Surface(15) = {15};
Curve Loop(16) = {-28, 21, 26, -29};
Plane Surface(16) = {16};
Curve Loop(17) = {-22, 23, 30, -28, -18, -15};
Plane Surface(17) = {17};
Curve Loop(18) = {-24, 30, 29, -27};
Plane Surface(18) = {18};
Surface Loop(1) = {13, 14, 15, 16, 17, 18, 10, 7, 11, 8};
Volume(1) = {1};
Surface Loop(2) = {7, 8, 9};
Volume(2) = {2};
Surface Loop(3) = {10, 11, 12};
Volume(3) = {3};
Physical Surface("WALLS") = {13, 18};
Physical Surface("LOAD") = {8, 11};
Physical Surface("BORDER") = {7, 9, 10, 12, 14, 15, 16, 17};
Physical Volume("SOLID") = {1, 2, 3};
