cl__1 = 0.116983;
cl__2 = 0.055249;
cl__3 = 1.476678;
cl__4 = 1.339875;
cl__5 = 0.82718;
cl__6 = 0.93163;
Point(9) = {21.935288, -2.532297, 0.1, cl__1};
Point(10) = {21.935288, -2.532297, 0, cl__1};
Point(11) = {19.343808, 1.356348, 0.1, cl__2};
Point(12) = {19.343808, 1.356348, 0, cl__2};
Point(13) = {0.479079, -4.714212, 1, cl__3};
Point(14) = {0.479079, -4.714212, 0, cl__3};
Point(15) = {0.479079, 5.118348000000001, 1, cl__4};
Point(16) = {0.479079, 5.118348000000001, 0, cl__4};
Point(17) = {35.385779, -4.714212, 0, cl__5};
Point(18) = {35.385779, -4.714212, 1, cl__5};
Point(19) = {35.385779, 5.118348000000001, 1, cl__6};
Point(20) = {35.385779, 5.118348000000001, 0, cl__6};
p13 = newp;
Point(p13 + 1) = {21.92088540223177, -2.349294644024126, 0.1};
Point(p13 + 2) = {21.87803224868362, -2.170798413402378, 0.1};
Point(p13 + 3) = {21.80778372621737, -2.001203477727687, 0.1};
Point(p13 + 4) = {21.71186958659762, -1.844685827169687, 0.1};
Point(p13 + 5) = {21.59265155426258, -1.705099445737416, 0.1};
Point(p13 + 6) = {21.45306517283031, -1.585881413402378, 0.1};
Point(p13 + 7) = {21.29654752227231, -1.489967273782625, 0.1};
Point(p13 + 8) = {21.12695258659762, -1.419718751316375, 0.1};
Point(p13 + 9) = {20.94845635597587, -1.376865597768227, 0.1};
Point(p13 + 10) = {20.765454, -1.362463, 0.1};
Point(p13 + 11) = {20.58245164402413, -1.376865597768228, 0.1};
Point(p13 + 12) = {20.40395541340238, -1.419718751316375, 0.1};
Point(p13 + 13) = {20.23436047772768, -1.489967273782625, 0.1};
Point(p13 + 14) = {20.07784282716969, -1.585881413402378, 0.1};
Point(p13 + 15) = {19.93825644573742, -1.705099445737416, 0.1};
Point(p13 + 16) = {19.81903841340237, -1.844685827169687, 0.1};
Point(p13 + 17) = {19.72312427378262, -2.001203477727687, 0.1};
Point(p13 + 18) = {19.65287575131637, -2.170798413402378, 0.1};
Point(p13 + 19) = {19.61002259776822, -2.349294644024126, 0.1};
Point(p13 + 20) = {19.59562, -2.532297, 0.1};
Point(p13 + 21) = {19.61002259776822, -2.715299355975873, 0.1};
Point(p13 + 22) = {19.65287575131637, -2.893795586597622, 0.1};
Point(p13 + 23) = {19.72312427378262, -3.063390522272312, 0.1};
Point(p13 + 24) = {19.81903841340237, -3.219908172830313, 0.1};
Point(p13 + 25) = {19.93825644573742, -3.359494554262583, 0.1};
Point(p13 + 26) = {20.07784282716969, -3.478712586597622, 0.1};
Point(p13 + 27) = {20.23436047772768, -3.574626726217375, 0.1};
Point(p13 + 28) = {20.40395541340238, -3.644875248683625, 0.1};
Point(p13 + 29) = {20.58245164402413, -3.687728402231772, 0.1};
Point(p13 + 30) = {20.765454, -3.702131, 0.1};
Point(p13 + 31) = {20.94845635597587, -3.687728402231772, 0.1};
Point(p13 + 32) = {21.12695258659762, -3.644875248683625, 0.1};
Point(p13 + 33) = {21.29654752227231, -3.574626726217375, 0.1};
Point(p13 + 34) = {21.45306517283031, -3.478712586597622, 0.1};
Point(p13 + 35) = {21.59265155426258, -3.359494554262584, 0.1};
Point(p13 + 36) = {21.71186958659762, -3.219908172830313, 0.1};
Point(p13 + 37) = {21.80778372621737, -3.063390522272313, 0.1};
Point(p13 + 38) = {21.87803224868362, -2.893795586597622, 0.1};
Point(p13 + 39) = {21.92088540223177, -2.715299355975874, 0.1};
Spline(13) = {9, p13 + 1, p13 + 2, p13 + 3, p13 + 4, p13 + 5, p13 + 6, p13 + 7, p13 + 8, p13 + 9, p13 + 10, p13 + 11, p13 + 12, p13 + 13, p13 + 14, p13 + 15, p13 + 16, p13 + 17, p13 + 18, p13 + 19, p13 + 20, p13 + 21, p13 + 22, p13 + 23, p13 + 24, p13 + 25, p13 + 26, p13 + 27, p13 + 28, p13 + 29, p13 + 30, p13 + 31, p13 + 32, p13 + 33, p13 + 34, p13 + 35, p13 + 36, p13 + 37, p13 + 38, p13 + 39, 9};
Line(14) = {10, 9};
p15 = newp;
Point(p15 + 1) = {21.92088540223177, -2.349294644024126, 0};
Point(p15 + 2) = {21.87803224868362, -2.170798413402378, 0};
Point(p15 + 3) = {21.80778372621737, -2.001203477727687, 0};
Point(p15 + 4) = {21.71186958659762, -1.844685827169687, 0};
Point(p15 + 5) = {21.59265155426258, -1.705099445737416, 0};
Point(p15 + 6) = {21.45306517283031, -1.585881413402378, 0};
Point(p15 + 7) = {21.29654752227231, -1.489967273782625, 0};
Point(p15 + 8) = {21.12695258659762, -1.419718751316375, 0};
Point(p15 + 9) = {20.94845635597587, -1.376865597768227, 0};
Point(p15 + 10) = {20.765454, -1.362463, 0};
Point(p15 + 11) = {20.58245164402413, -1.376865597768228, 0};
Point(p15 + 12) = {20.40395541340238, -1.419718751316375, 0};
Point(p15 + 13) = {20.23436047772768, -1.489967273782625, 0};
Point(p15 + 14) = {20.07784282716969, -1.585881413402378, 0};
Point(p15 + 15) = {19.93825644573742, -1.705099445737416, 0};
Point(p15 + 16) = {19.81903841340237, -1.844685827169687, 0};
Point(p15 + 17) = {19.72312427378262, -2.001203477727687, 0};
Point(p15 + 18) = {19.65287575131637, -2.170798413402378, 0};
Point(p15 + 19) = {19.61002259776822, -2.349294644024126, 0};
Point(p15 + 20) = {19.59562, -2.532297, 0};
Point(p15 + 21) = {19.61002259776822, -2.715299355975873, 0};
Point(p15 + 22) = {19.65287575131637, -2.893795586597622, 0};
Point(p15 + 23) = {19.72312427378262, -3.063390522272312, 0};
Point(p15 + 24) = {19.81903841340237, -3.219908172830313, 0};
Point(p15 + 25) = {19.93825644573742, -3.359494554262583, 0};
Point(p15 + 26) = {20.07784282716969, -3.478712586597622, 0};
Point(p15 + 27) = {20.23436047772768, -3.574626726217375, 0};
Point(p15 + 28) = {20.40395541340238, -3.644875248683625, 0};
Point(p15 + 29) = {20.58245164402413, -3.687728402231772, 0};
Point(p15 + 30) = {20.765454, -3.702131, 0};
Point(p15 + 31) = {20.94845635597587, -3.687728402231772, 0};
Point(p15 + 32) = {21.12695258659762, -3.644875248683625, 0};
Point(p15 + 33) = {21.29654752227231, -3.574626726217375, 0};
Point(p15 + 34) = {21.45306517283031, -3.478712586597622, 0};
Point(p15 + 35) = {21.59265155426258, -3.359494554262584, 0};
Point(p15 + 36) = {21.71186958659762, -3.219908172830313, 0};
Point(p15 + 37) = {21.80778372621737, -3.063390522272313, 0};
Point(p15 + 38) = {21.87803224868362, -2.893795586597622, 0};
Point(p15 + 39) = {21.92088540223177, -2.715299355975874, 0};
Spline(15) = {10, p15 + 1, p15 + 2, p15 + 3, p15 + 4, p15 + 5, p15 + 6, p15 + 7, p15 + 8, p15 + 9, p15 + 10, p15 + 11, p15 + 12, p15 + 13, p15 + 14, p15 + 15, p15 + 16, p15 + 17, p15 + 18, p15 + 19, p15 + 20, p15 + 21, p15 + 22, p15 + 23, p15 + 24, p15 + 25, p15 + 26, p15 + 27, p15 + 28, p15 + 29, p15 + 30, p15 + 31, p15 + 32, p15 + 33, p15 + 34, p15 + 35, p15 + 36, p15 + 37, p15 + 38, p15 + 39, 10};
p16 = newp;
Point(p16 + 1) = {19.33700591898375, 1.442776634024542, 0.1};
Point(p16 + 2) = {19.31676716574443, 1.527077108239209, 0.1};
Point(p16 + 3) = {19.28359008555535, 1.607173665191602, 0.1};
Point(p16 + 4) = {19.23829160823921, 1.681094061824321, 0.1};
Point(p16 + 5) = {19.18198713264454, 1.747018132644537, 0.1};
Point(p16 + 6) = {19.11606306182432, 1.803322608239209, 0.1};
Point(p16 + 7) = {19.0421426651916, 1.848621085555356, 0.1};
Point(p16 + 8) = {18.96204610823921, 1.881798165744426, 0.1};
Point(p16 + 9) = {18.87774563402454, 1.902036918983748, 0.1};
Point(p16 + 10) = {18.791317, 1.908839, 0.1};
Point(p16 + 11) = {18.70488836597546, 1.902036918983748, 0.1};
Point(p16 + 12) = {18.62058789176079, 1.881798165744426, 0.1};
Point(p16 + 13) = {18.5404913348084, 1.848621085555356, 0.1};
Point(p16 + 14) = {18.46657093817568, 1.803322608239209, 0.1};
Point(p16 + 15) = {18.40064686735546, 1.747018132644537, 0.1};
Point(p16 + 16) = {18.34434239176079, 1.681094061824321, 0.1};
Point(p16 + 17) = {18.29904391444465, 1.607173665191602, 0.1};
Point(p16 + 18) = {18.26586683425557, 1.527077108239209, 0.1};
Point(p16 + 19) = {18.24562808101625, 1.442776634024542, 0.1};
Point(p16 + 20) = {18.238826, 1.356348, 0.1};
Point(p16 + 21) = {18.24562808101625, 1.269919365975458, 0.1};
Point(p16 + 22) = {18.26586683425557, 1.185618891760791, 0.1};
Point(p16 + 23) = {18.29904391444465, 1.105522334808398, 0.1};
Point(p16 + 24) = {18.34434239176079, 1.031601938175679, 0.1};
Point(p16 + 25) = {18.40064686735546, 0.9656778673554633, 0.1};
Point(p16 + 26) = {18.46657093817568, 0.9093733917607911, 0.1};
Point(p16 + 27) = {18.5404913348084, 0.8640749144446447, 0.1};
Point(p16 + 28) = {18.62058789176079, 0.8308978342555745, 0.1};
Point(p16 + 29) = {18.70488836597546, 0.8106590810162519, 0.1};
Point(p16 + 30) = {18.791317, 0.8038570000000002, 0.1};
Point(p16 + 31) = {18.87774563402454, 0.8106590810162519, 0.1};
Point(p16 + 32) = {18.96204610823921, 0.8308978342555744, 0.1};
Point(p16 + 33) = {19.0421426651916, 0.8640749144446445, 0.1};
Point(p16 + 34) = {19.11606306182432, 0.909373391760791, 0.1};
Point(p16 + 35) = {19.18198713264454, 0.9656778673554632, 0.1};
Point(p16 + 36) = {19.23829160823921, 1.031601938175679, 0.1};
Point(p16 + 37) = {19.28359008555535, 1.105522334808398, 0.1};
Point(p16 + 38) = {19.31676716574443, 1.185618891760791, 0.1};
Point(p16 + 39) = {19.33700591898375, 1.269919365975458, 0.1};
Spline(16) = {11, p16 + 1, p16 + 2, p16 + 3, p16 + 4, p16 + 5, p16 + 6, p16 + 7, p16 + 8, p16 + 9, p16 + 10, p16 + 11, p16 + 12, p16 + 13, p16 + 14, p16 + 15, p16 + 16, p16 + 17, p16 + 18, p16 + 19, p16 + 20, p16 + 21, p16 + 22, p16 + 23, p16 + 24, p16 + 25, p16 + 26, p16 + 27, p16 + 28, p16 + 29, p16 + 30, p16 + 31, p16 + 32, p16 + 33, p16 + 34, p16 + 35, p16 + 36, p16 + 37, p16 + 38, p16 + 39, 11};
Line(17) = {12, 11};
p18 = newp;
Point(p18 + 1) = {19.33700591898375, 1.442776634024542, 0};
Point(p18 + 2) = {19.31676716574443, 1.527077108239209, 0};
Point(p18 + 3) = {19.28359008555535, 1.607173665191602, 0};
Point(p18 + 4) = {19.23829160823921, 1.681094061824321, 0};
Point(p18 + 5) = {19.18198713264454, 1.747018132644537, 0};
Point(p18 + 6) = {19.11606306182432, 1.803322608239209, 0};
Point(p18 + 7) = {19.0421426651916, 1.848621085555356, 0};
Point(p18 + 8) = {18.96204610823921, 1.881798165744426, 0};
Point(p18 + 9) = {18.87774563402454, 1.902036918983748, 0};
Point(p18 + 10) = {18.791317, 1.908839, 0};
Point(p18 + 11) = {18.70488836597546, 1.902036918983748, 0};
Point(p18 + 12) = {18.62058789176079, 1.881798165744426, 0};
Point(p18 + 13) = {18.5404913348084, 1.848621085555356, 0};
Point(p18 + 14) = {18.46657093817568, 1.803322608239209, 0};
Point(p18 + 15) = {18.40064686735546, 1.747018132644537, 0};
Point(p18 + 16) = {18.34434239176079, 1.681094061824321, 0};
Point(p18 + 17) = {18.29904391444465, 1.607173665191602, 0};
Point(p18 + 18) = {18.26586683425557, 1.527077108239209, 0};
Point(p18 + 19) = {18.24562808101625, 1.442776634024542, 0};
Point(p18 + 20) = {18.238826, 1.356348, 0};
Point(p18 + 21) = {18.24562808101625, 1.269919365975458, 0};
Point(p18 + 22) = {18.26586683425557, 1.185618891760791, 0};
Point(p18 + 23) = {18.29904391444465, 1.105522334808398, 0};
Point(p18 + 24) = {18.34434239176079, 1.031601938175679, 0};
Point(p18 + 25) = {18.40064686735546, 0.9656778673554633, 0};
Point(p18 + 26) = {18.46657093817568, 0.9093733917607911, 0};
Point(p18 + 27) = {18.5404913348084, 0.8640749144446447, 0};
Point(p18 + 28) = {18.62058789176079, 0.8308978342555745, 0};
Point(p18 + 29) = {18.70488836597546, 0.8106590810162519, 0};
Point(p18 + 30) = {18.791317, 0.8038570000000002, 0};
Point(p18 + 31) = {18.87774563402454, 0.8106590810162519, 0};
Point(p18 + 32) = {18.96204610823921, 0.8308978342555744, 0};
Point(p18 + 33) = {19.0421426651916, 0.8640749144446445, 0};
Point(p18 + 34) = {19.11606306182432, 0.909373391760791, 0};
Point(p18 + 35) = {19.18198713264454, 0.9656778673554632, 0};
Point(p18 + 36) = {19.23829160823921, 1.031601938175679, 0};
Point(p18 + 37) = {19.28359008555535, 1.105522334808398, 0};
Point(p18 + 38) = {19.31676716574443, 1.185618891760791, 0};
Point(p18 + 39) = {19.33700591898375, 1.269919365975458, 0};
Spline(18) = {12, p18 + 1, p18 + 2, p18 + 3, p18 + 4, p18 + 5, p18 + 6, p18 + 7, p18 + 8, p18 + 9, p18 + 10, p18 + 11, p18 + 12, p18 + 13, p18 + 14, p18 + 15, p18 + 16, p18 + 17, p18 + 18, p18 + 19, p18 + 20, p18 + 21, p18 + 22, p18 + 23, p18 + 24, p18 + 25, p18 + 26, p18 + 27, p18 + 28, p18 + 29, p18 + 30, p18 + 31, p18 + 32, p18 + 33, p18 + 34, p18 + 35, p18 + 36, p18 + 37, p18 + 38, p18 + 39, 12};
Line(19) = {14, 13};
Line(20) = {13, 15};
Line(21) = {16, 15};
Line(22) = {14, 16};
Line(23) = {14, 17};
Line(24) = {17, 18};
Line(25) = {13, 18};
Line(26) = {15, 19};
Line(27) = {18, 19};
Line(28) = {16, 20};
Line(29) = {20, 19};
Line(30) = {17, 20};
Curve Loop(7) = {-13, -14, 15, 14};
Surface(7) = {7};
Curve Loop(8) = {13};
Plane Surface(8) = {8};
Curve Loop(9) = {15};
Plane Surface(9) = {9};
Curve Loop(10) = {-16, -17, 18, 17};
Surface(10) = {10};
Curve Loop(11) = {16};
Plane Surface(11) = {11};
Curve Loop(12) = {18};
Plane Surface(12) = {12};
Curve Loop(13) = {-19, 22, 21, -20};
Plane Surface(13) = {13};
Curve Loop(14) = {-23, 19, 25, -24};
Plane Surface(14) = {14};
Curve Loop(15) = {-20, 25, 27, -26};
Plane Surface(15) = {15};
Curve Loop(16) = {-28, 21, 26, -29};
Plane Surface(16) = {16};
Curve Loop(17) = {-22, 23, 30, -28, -15, -18};
Plane Surface(17) = {17};
Curve Loop(18) = {-24, 30, 29, -27};
Plane Surface(18) = {18};
Surface Loop(1) = {13, 14, 15, 16, 17, 18, 7, 10, 8, 11};
Volume(1) = {1};
Surface Loop(2) = {7, 8, 9};
Volume(2) = {2};
Surface Loop(3) = {10, 11, 12};
Volume(3) = {3};
Physical Surface("WALLS") = {13, 18};
Physical Surface("LOAD") = {8, 11};
Physical Surface("BORDER") = {7, 9, 10, 12, 14, 15, 16, 17};
Physical Volume("SOLID") = {1, 2, 3};
