cl__1 = 0.080905;
cl__2 = 0.050068;
cl__3 = 1.765804;
cl__4 = 2.029558;
cl__5 = 0.691445;
cl__6 = 0.83377;
Point(9) = {35.611771, -0.0692520000000002, 0.1, cl__1};
Point(10) = {35.611771, -0.0692520000000002, 0, cl__1};
Point(11) = {9.138294, 0.2356299999999999, 0.1, cl__2};
Point(12) = {9.138294, 0.2356299999999999, 0, cl__2};
Point(13) = {0.028207, -3.753947, 1, cl__3};
Point(14) = {0.028207, -3.753947, 0, cl__3};
Point(15) = {0.028207, 5.155068999999999, 1, cl__4};
Point(16) = {0.028207, 5.155068999999999, 0, cl__4};
Point(17) = {39.475588, -3.753947, 0, cl__5};
Point(18) = {39.475588, -3.753947, 1, cl__5};
Point(19) = {39.475588, 5.155068999999999, 1, cl__6};
Point(20) = {39.475588, 5.155068999999999, 0, cl__6};
p13 = newp;
Point(p13 + 1) = {35.60181021502352, 0.05731177324419391, 0.1};
Point(p13 + 2) = {35.57217312767814, 0.1807591263500343, 0.1};
Point(p13 + 3) = {35.52358950141417, 0.2980503757857795, 0.1};
Point(p13 + 4) = {35.45725562635003, 0.4062974217229823, 0.1};
Point(p13 + 5) = {35.37480486263932, 0.5028348626393199, 0.1};
Point(p13 + 6) = {35.27826742172298, 0.5852856263500343, 0.1};
Point(p13 + 7) = {35.17002037578578, 0.6516195014141716, 0.1};
Point(p13 + 8) = {35.05272912635003, 0.7002031276781429, 0.1};
Point(p13 + 9) = {34.92928177324419, 0.729840215023518, 0.1};
Point(p13 + 10) = {34.802718, 0.739801, 0.1};
Point(p13 + 11) = {34.67615422675581, 0.7298402150235179, 0.1};
Point(p13 + 12) = {34.55270687364997, 0.700203127678143, 0.1};
Point(p13 + 13) = {34.43541562421422, 0.6516195014141717, 0.1};
Point(p13 + 14) = {34.32716857827702, 0.5852856263500344, 0.1};
Point(p13 + 15) = {34.23063113736068, 0.5028348626393199, 0.1};
Point(p13 + 16) = {34.14818037364996, 0.4062974217229824, 0.1};
Point(p13 + 17) = {34.08184649858583, 0.2980503757857796, 0.1};
Point(p13 + 18) = {34.03326287232186, 0.1807591263500344, 0.1};
Point(p13 + 19) = {34.00362578497648, 0.05731177324419399, 0.1};
Point(p13 + 20) = {33.993665, -0.0692519999999999, 0.1};
Point(p13 + 21) = {34.00362578497648, -0.1958157732441938, 0.1};
Point(p13 + 22) = {34.03326287232186, -0.3192631263500346, 0.1};
Point(p13 + 23) = {34.08184649858583, -0.4365543757857792, 0.1};
Point(p13 + 24) = {34.14818037364996, -0.5448014217229822, 0.1};
Point(p13 + 25) = {34.23063113736068, -0.6413388626393198, 0.1};
Point(p13 + 26) = {34.32716857827702, -0.7237896263500343, 0.1};
Point(p13 + 27) = {34.43541562421422, -0.7901235014141715, 0.1};
Point(p13 + 28) = {34.55270687364997, -0.8387071276781428, 0.1};
Point(p13 + 29) = {34.67615422675581, -0.8683442150235179, 0.1};
Point(p13 + 30) = {34.802718, -0.878305, 0.1};
Point(p13 + 31) = {34.92928177324419, -0.868344215023518, 0.1};
Point(p13 + 32) = {35.05272912635003, -0.8387071276781429, 0.1};
Point(p13 + 33) = {35.17002037578578, -0.7901235014141718, 0.1};
Point(p13 + 34) = {35.27826742172298, -0.7237896263500344, 0.1};
Point(p13 + 35) = {35.37480486263932, -0.6413388626393199, 0.1};
Point(p13 + 36) = {35.45725562635003, -0.5448014217229824, 0.1};
Point(p13 + 37) = {35.52358950141417, -0.4365543757857797, 0.1};
Point(p13 + 38) = {35.57217312767814, -0.3192631263500345, 0.1};
Point(p13 + 39) = {35.60181021502352, -0.1958157732441941, 0.1};
Spline(13) = {9, p13 + 1, p13 + 2, p13 + 3, p13 + 4, p13 + 5, p13 + 6, p13 + 7, p13 + 8, p13 + 9, p13 + 10, p13 + 11, p13 + 12, p13 + 13, p13 + 14, p13 + 15, p13 + 16, p13 + 17, p13 + 18, p13 + 19, p13 + 20, p13 + 21, p13 + 22, p13 + 23, p13 + 24, p13 + 25, p13 + 26, p13 + 27, p13 + 28, p13 + 29, p13 + 30, p13 + 31, p13 + 32, p13 + 33, p13 + 34, p13 + 35, p13 + 36, p13 + 37, p13 + 38, p13 + 39, 9};
Line(14) = {10, 9};
p15 = newp;
Point(p15 + 1) = {35.60181021502352, 0.05731177324419391, 0};
Point(p15 + 2) = {35.57217312767814, 0.1807591263500343, 0};
Point(p15 + 3) = {35.52358950141417, 0.2980503757857795, 0};
Point(p15 + 4) = {35.45725562635003, 0.4062974217229823, 0};
Point(p15 + 5) = {35.37480486263932, 0.5028348626393199, 0};
Point(p15 + 6) = {35.27826742172298, 0.5852856263500343, 0};
Point(p15 + 7) = {35.17002037578578, 0.6516195014141716, 0};
Point(p15 + 8) = {35.05272912635003, 0.7002031276781429, 0};
Point(p15 + 9) = {34.92928177324419, 0.729840215023518, 0};
Point(p15 + 10) = {34.802718, 0.739801, 0};
Point(p15 + 11) = {34.67615422675581, 0.7298402150235179, 0};
Point(p15 + 12) = {34.55270687364997, 0.700203127678143, 0};
Point(p15 + 13) = {34.43541562421422, 0.6516195014141717, 0};
Point(p15 + 14) = {34.32716857827702, 0.5852856263500344, 0};
Point(p15 + 15) = {34.23063113736068, 0.5028348626393199, 0};
Point(p15 + 16) = {34.14818037364996, 0.4062974217229824, 0};
Point(p15 + 17) = {34.08184649858583, 0.2980503757857796, 0};
Point(p15 + 18) = {34.03326287232186, 0.1807591263500344, 0};
Point(p15 + 19) = {34.00362578497648, 0.05731177324419399, 0};
Point(p15 + 20) = {33.993665, -0.0692519999999999, 0};
Point(p15 + 21) = {34.00362578497648, -0.1958157732441938, 0};
Point(p15 + 22) = {34.03326287232186, -0.3192631263500346, 0};
Point(p15 + 23) = {34.08184649858583, -0.4365543757857792, 0};
Point(p15 + 24) = {34.14818037364996, -0.5448014217229822, 0};
Point(p15 + 25) = {34.23063113736068, -0.6413388626393198, 0};
Point(p15 + 26) = {34.32716857827702, -0.7237896263500343, 0};
Point(p15 + 27) = {34.43541562421422, -0.7901235014141715, 0};
Point(p15 + 28) = {34.55270687364997, -0.8387071276781428, 0};
Point(p15 + 29) = {34.67615422675581, -0.8683442150235179, 0};
Point(p15 + 30) = {34.802718, -0.878305, 0};
Point(p15 + 31) = {34.92928177324419, -0.868344215023518, 0};
Point(p15 + 32) = {35.05272912635003, -0.8387071276781429, 0};
Point(p15 + 33) = {35.17002037578578, -0.7901235014141718, 0};
Point(p15 + 34) = {35.27826742172298, -0.7237896263500344, 0};
Point(p15 + 35) = {35.37480486263932, -0.6413388626393199, 0};
Point(p15 + 36) = {35.45725562635003, -0.5448014217229824, 0};
Point(p15 + 37) = {35.52358950141417, -0.4365543757857797, 0};
Point(p15 + 38) = {35.57217312767814, -0.3192631263500345, 0};
Point(p15 + 39) = {35.60181021502352, -0.1958157732441941, 0};
Spline(15) = {10, p15 + 1, p15 + 2, p15 + 3, p15 + 4, p15 + 5, p15 + 6, p15 + 7, p15 + 8, p15 + 9, p15 + 10, p15 + 11, p15 + 12, p15 + 13, p15 + 14, p15 + 15, p15 + 16, p15 + 17, p15 + 18, p15 + 19, p15 + 20, p15 + 21, p15 + 22, p15 + 23, p15 + 24, p15 + 25, p15 + 26, p15 + 27, p15 + 28, p15 + 29, p15 + 30, p15 + 31, p15 + 32, p15 + 33, p15 + 34, p15 + 35, p15 + 36, p15 + 37, p15 + 38, p15 + 39, 10};
p16 = newp;
Point(p16 + 1) = {9.132129761434195, 0.3139540772597379, 0.1};
Point(p16 + 2) = {9.113788829748206, 0.3903495557946318, 0.1};
Point(p16 + 3) = {9.083722819550204, 0.4629353253810955, 0.1};
Point(p16 + 4) = {9.042672055794631, 0.5299240834735524, 0.1};
Point(p16 + 5) = {8.991647344524823, 0.5896663445248241, 0.1};
Point(p16 + 6) = {8.931905083473552, 0.6406910557946317, 0.1};
Point(p16 + 7) = {8.864916325381095, 0.6817418195502045, 0.1};
Point(p16 + 8) = {8.792330555794631, 0.7118078297482063, 0.1};
Point(p16 + 9) = {8.715935077259738, 0.7301487614341954, 0.1};
Point(p16 + 10) = {8.637611, 0.736313, 0.1};
Point(p16 + 11) = {8.559286922740261, 0.7301487614341953, 0.1};
Point(p16 + 12) = {8.482891444205368, 0.7118078297482064, 0.1};
Point(p16 + 13) = {8.410305674618904, 0.6817418195502045, 0.1};
Point(p16 + 14) = {8.343316916526447, 0.6406910557946318, 0.1};
Point(p16 + 15) = {8.283574655475176, 0.5896663445248242, 0.1};
Point(p16 + 16) = {8.232549944205369, 0.5299240834735524, 0.1};
Point(p16 + 17) = {8.191499180449796, 0.4629353253810956, 0.1};
Point(p16 + 18) = {8.161433170251794, 0.3903495557946318, 0.1};
Point(p16 + 19) = {8.143092238565805, 0.313954077259738, 0.1};
Point(p16 + 20) = {8.136927999999999, 0.2356300000000001, 0.1};
Point(p16 + 21) = {8.143092238565805, 0.1573059227402622, 0.1};
Point(p16 + 22) = {8.161433170251794, 0.08091044420536805, 0.1};
Point(p16 + 23) = {8.191499180449796, 0.008324674618904737, 0.1};
Point(p16 + 24) = {8.232549944205369, -0.05866408347355229, 0.1};
Point(p16 + 25) = {8.283574655475176, -0.1184063445248241, 0.1};
Point(p16 + 26) = {8.343316916526447, -0.1694310557946317, 0.1};
Point(p16 + 27) = {8.410305674618904, -0.2104818195502045, 0.1};
Point(p16 + 28) = {8.482891444205368, -0.2405478297482063, 0.1};
Point(p16 + 29) = {8.559286922740261, -0.2588887614341953, 0.1};
Point(p16 + 30) = {8.637611, -0.265053, 0.1};
Point(p16 + 31) = {8.715935077259738, -0.2588887614341954, 0.1};
Point(p16 + 32) = {8.792330555794631, -0.2405478297482064, 0.1};
Point(p16 + 33) = {8.864916325381095, -0.2104818195502046, 0.1};
Point(p16 + 34) = {8.931905083473552, -0.1694310557946319, 0.1};
Point(p16 + 35) = {8.991647344524823, -0.1184063445248242, 0.1};
Point(p16 + 36) = {9.042672055794631, -0.0586640834735524, 0.1};
Point(p16 + 37) = {9.083722819550204, 0.008324674618904404, 0.1};
Point(p16 + 38) = {9.113788829748206, 0.08091044420536811, 0.1};
Point(p16 + 39) = {9.132129761434195, 0.1573059227402619, 0.1};
Spline(16) = {11, p16 + 1, p16 + 2, p16 + 3, p16 + 4, p16 + 5, p16 + 6, p16 + 7, p16 + 8, p16 + 9, p16 + 10, p16 + 11, p16 + 12, p16 + 13, p16 + 14, p16 + 15, p16 + 16, p16 + 17, p16 + 18, p16 + 19, p16 + 20, p16 + 21, p16 + 22, p16 + 23, p16 + 24, p16 + 25, p16 + 26, p16 + 27, p16 + 28, p16 + 29, p16 + 30, p16 + 31, p16 + 32, p16 + 33, p16 + 34, p16 + 35, p16 + 36, p16 + 37, p16 + 38, p16 + 39, 11};
Line(17) = {12, 11};
p18 = newp;
Point(p18 + 1) = {9.132129761434195, 0.3139540772597379, 0};
Point(p18 + 2) = {9.113788829748206, 0.3903495557946318, 0};
Point(p18 + 3) = {9.083722819550204, 0.4629353253810955, 0};
Point(p18 + 4) = {9.042672055794631, 0.5299240834735524, 0};
Point(p18 + 5) = {8.991647344524823, 0.5896663445248241, 0};
Point(p18 + 6) = {8.931905083473552, 0.6406910557946317, 0};
Point(p18 + 7) = {8.864916325381095, 0.6817418195502045, 0};
Point(p18 + 8) = {8.792330555794631, 0.7118078297482063, 0};
Point(p18 + 9) = {8.715935077259738, 0.7301487614341954, 0};
Point(p18 + 10) = {8.637611, 0.736313, 0};
Point(p18 + 11) = {8.559286922740261, 0.7301487614341953, 0};
Point(p18 + 12) = {8.482891444205368, 0.7118078297482064, 0};
Point(p18 + 13) = {8.410305674618904, 0.6817418195502045, 0};
Point(p18 + 14) = {8.343316916526447, 0.6406910557946318, 0};
Point(p18 + 15) = {8.283574655475176, 0.5896663445248242, 0};
Point(p18 + 16) = {8.232549944205369, 0.5299240834735524, 0};
Point(p18 + 17) = {8.191499180449796, 0.4629353253810956, 0};
Point(p18 + 18) = {8.161433170251794, 0.3903495557946318, 0};
Point(p18 + 19) = {8.143092238565805, 0.313954077259738, 0};
Point(p18 + 20) = {8.136927999999999, 0.2356300000000001, 0};
Point(p18 + 21) = {8.143092238565805, 0.1573059227402622, 0};
Point(p18 + 22) = {8.161433170251794, 0.08091044420536805, 0};
Point(p18 + 23) = {8.191499180449796, 0.008324674618904737, 0};
Point(p18 + 24) = {8.232549944205369, -0.05866408347355229, 0};
Point(p18 + 25) = {8.283574655475176, -0.1184063445248241, 0};
Point(p18 + 26) = {8.343316916526447, -0.1694310557946317, 0};
Point(p18 + 27) = {8.410305674618904, -0.2104818195502045, 0};
Point(p18 + 28) = {8.482891444205368, -0.2405478297482063, 0};
Point(p18 + 29) = {8.559286922740261, -0.2588887614341953, 0};
Point(p18 + 30) = {8.637611, -0.265053, 0};
Point(p18 + 31) = {8.715935077259738, -0.2588887614341954, 0};
Point(p18 + 32) = {8.792330555794631, -0.2405478297482064, 0};
Point(p18 + 33) = {8.864916325381095, -0.2104818195502046, 0};
Point(p18 + 34) = {8.931905083473552, -0.1694310557946319, 0};
Point(p18 + 35) = {8.991647344524823, -0.1184063445248242, 0};
Point(p18 + 36) = {9.042672055794631, -0.0586640834735524, 0};
Point(p18 + 37) = {9.083722819550204, 0.008324674618904404, 0};
Point(p18 + 38) = {9.113788829748206, 0.08091044420536811, 0};
Point(p18 + 39) = {9.132129761434195, 0.1573059227402619, 0};
Spline(18) = {12, p18 + 1, p18 + 2, p18 + 3, p18 + 4, p18 + 5, p18 + 6, p18 + 7, p18 + 8, p18 + 9, p18 + 10, p18 + 11, p18 + 12, p18 + 13, p18 + 14, p18 + 15, p18 + 16, p18 + 17, p18 + 18, p18 + 19, p18 + 20, p18 + 21, p18 + 22, p18 + 23, p18 + 24, p18 + 25, p18 + 26, p18 + 27, p18 + 28, p18 + 29, p18 + 30, p18 + 31, p18 + 32, p18 + 33, p18 + 34, p18 + 35, p18 + 36, p18 + 37, p18 + 38, p18 + 39, 12};
Line(19) = {14, 13};
Line(20) = {13, 15};
Line(21) = {16, 15};
Line(22) = {14, 16};
Line(23) = {14, 17};
Line(24) = {17, 18};
Line(25) = {13, 18};
Line(26) = {15, 19};
Line(27) = {18, 19};
Line(28) = {16, 20};
Line(29) = {20, 19};
Line(30) = {17, 20};
Curve Loop(7) = {-13, -14, 15, 14};
Surface(7) = {7};
Curve Loop(8) = {13};
Plane Surface(8) = {8};
Curve Loop(9) = {15};
Plane Surface(9) = {9};
Curve Loop(10) = {-16, -17, 18, 17};
Surface(10) = {10};
Curve Loop(11) = {16};
Plane Surface(11) = {11};
Curve Loop(12) = {18};
Plane Surface(12) = {12};
Curve Loop(13) = {-19, 22, 21, -20};
Plane Surface(13) = {13};
Curve Loop(14) = {-23, 19, 25, -24};
Plane Surface(14) = {14};
Curve Loop(15) = {-20, 25, 27, -26};
Plane Surface(15) = {15};
Curve Loop(16) = {-28, 21, 26, -29};
Plane Surface(16) = {16};
Curve Loop(17) = {-22, 23, 30, -28, -15, -18};
Plane Surface(17) = {17};
Curve Loop(18) = {-24, 30, 29, -27};
Plane Surface(18) = {18};
Surface Loop(1) = {13, 14, 15, 16, 17, 18, 7, 10, 8, 11};
Volume(1) = {1};
Surface Loop(2) = {7, 8, 9};
Volume(2) = {2};
Surface Loop(3) = {10, 11, 12};
Volume(3) = {3};
Physical Surface("WALLS") = {13, 18};
Physical Surface("LOAD") = {8, 11};
Physical Surface("BORDER") = {7, 9, 10, 12, 14, 15, 16, 17};
Physical Volume("SOLID") = {1, 2, 3};
