cl__1 = 0.059981;
cl__2 = 0.123854;
cl__3 = 1.49951;
cl__4 = 1.77585;
cl__5 = 0.673566;
cl__6 = 0.970869;
Point(9) = {10.16476, -0.3562140000000001, 0.1, cl__1};
Point(10) = {10.16476, -0.3562140000000001, 0, cl__1};
Point(11) = {27.139395, -1.867622, 0.1, cl__2};
Point(12) = {27.139395, -1.867622, 0, cl__2};
Point(13) = {0.10129, -4.72994, 1, cl__3};
Point(14) = {0.10129, -4.72994, 0, cl__3};
Point(15) = {0.10129, 5.241725, 1, cl__4};
Point(16) = {0.10129, 5.241725, 0, cl__4};
Point(17) = {32.311602, -4.72994, 0, cl__5};
Point(18) = {32.311602, -4.72994, 1, cl__5};
Point(19) = {32.311602, 5.241725, 1, cl__6};
Point(20) = {32.311602, 5.241725, 0, cl__6};
p13 = newp;
Point(p13 + 1) = {10.15737535588403, -0.2623831999586841, 0.1};
Point(p13 + 2) = {10.13540325798248, -0.1708628256209571, 0.1};
Point(p13 + 3) = {10.0993847322669, -0.08390641234172214, 0.1};
Point(p13 + 4) = {10.05020667437904, -0.003655115607703929, 0.1};
Point(p13 + 5) = {9.989080011316723, 0.0679150113167219, 0.1};
Point(p13 + 6) = {9.917509884392297, 0.1290416743790428, 0.1};
Point(p13 + 7) = {9.837258587658278, 0.1782197322669007, 0.1};
Point(p13 + 8) = {9.750302174379044, 0.2142382579824798, 0.1};
Point(p13 + 9) = {9.658781800041316, 0.236210355884029, 0.1};
Point(p13 + 10) = {9.564951000000001, 0.2435950000000001, 0.1};
Point(p13 + 11) = {9.471120199958685, 0.236210355884029, 0.1};
Point(p13 + 12) = {9.379599825620957, 0.2142382579824799, 0.1};
Point(p13 + 13) = {9.292643412341723, 0.1782197322669009, 0.1};
Point(p13 + 14) = {9.212392115607704, 0.1290416743790429, 0.1};
Point(p13 + 15) = {9.140821988683278, 0.06791501131672195, 0.1};
Point(p13 + 16) = {9.079695325620957, -0.003655115607703874, 0.1};
Point(p13 + 17) = {9.030517267733099, -0.08390641234172208, 0.1};
Point(p13 + 18) = {8.994498742017521, -0.1708628256209571, 0.1};
Point(p13 + 19) = {8.972526644115971, -0.2623831999586841, 0.1};
Point(p13 + 20) = {8.965142, -0.3562139999999999, 0.1};
Point(p13 + 21) = {8.972526644115971, -0.4500448000413158, 0.1};
Point(p13 + 22) = {8.994498742017521, -0.5415651743790431, 0.1};
Point(p13 + 23) = {9.030517267733099, -0.6285215876582775, 0.1};
Point(p13 + 24) = {9.079695325620957, -0.708772884392296, 0.1};
Point(p13 + 25) = {9.140821988683278, -0.7803430113167218, 0.1};
Point(p13 + 26) = {9.212392115607704, -0.8414696743790429, 0.1};
Point(p13 + 27) = {9.292643412341723, -0.8906477322669006, 0.1};
Point(p13 + 28) = {9.379599825620957, -0.9266662579824798, 0.1};
Point(p13 + 29) = {9.471120199958685, -0.948638355884029, 0.1};
Point(p13 + 30) = {9.564951000000001, -0.9560230000000001, 0.1};
Point(p13 + 31) = {9.658781800041316, -0.948638355884029, 0.1};
Point(p13 + 32) = {9.750302174379044, -0.9266662579824798, 0.1};
Point(p13 + 33) = {9.837258587658278, -0.8906477322669009, 0.1};
Point(p13 + 34) = {9.917509884392297, -0.8414696743790429, 0.1};
Point(p13 + 35) = {9.989080011316723, -0.780343011316722, 0.1};
Point(p13 + 36) = {10.05020667437904, -0.708772884392296, 0.1};
Point(p13 + 37) = {10.0993847322669, -0.6285215876582779, 0.1};
Point(p13 + 38) = {10.13540325798248, -0.5415651743790429, 0.1};
Point(p13 + 39) = {10.15737535588403, -0.450044800041316, 0.1};
Spline(13) = {9, p13 + 1, p13 + 2, p13 + 3, p13 + 4, p13 + 5, p13 + 6, p13 + 7, p13 + 8, p13 + 9, p13 + 10, p13 + 11, p13 + 12, p13 + 13, p13 + 14, p13 + 15, p13 + 16, p13 + 17, p13 + 18, p13 + 19, p13 + 20, p13 + 21, p13 + 22, p13 + 23, p13 + 24, p13 + 25, p13 + 26, p13 + 27, p13 + 28, p13 + 29, p13 + 30, p13 + 31, p13 + 32, p13 + 33, p13 + 34, p13 + 35, p13 + 36, p13 + 37, p13 + 38, p13 + 39, 9};
Line(14) = {10, 9};
p15 = newp;
Point(p15 + 1) = {10.15737535588403, -0.2623831999586841, 0};
Point(p15 + 2) = {10.13540325798248, -0.1708628256209571, 0};
Point(p15 + 3) = {10.0993847322669, -0.08390641234172214, 0};
Point(p15 + 4) = {10.05020667437904, -0.003655115607703929, 0};
Point(p15 + 5) = {9.989080011316723, 0.0679150113167219, 0};
Point(p15 + 6) = {9.917509884392297, 0.1290416743790428, 0};
Point(p15 + 7) = {9.837258587658278, 0.1782197322669007, 0};
Point(p15 + 8) = {9.750302174379044, 0.2142382579824798, 0};
Point(p15 + 9) = {9.658781800041316, 0.236210355884029, 0};
Point(p15 + 10) = {9.564951000000001, 0.2435950000000001, 0};
Point(p15 + 11) = {9.471120199958685, 0.236210355884029, 0};
Point(p15 + 12) = {9.379599825620957, 0.2142382579824799, 0};
Point(p15 + 13) = {9.292643412341723, 0.1782197322669009, 0};
Point(p15 + 14) = {9.212392115607704, 0.1290416743790429, 0};
Point(p15 + 15) = {9.140821988683278, 0.06791501131672195, 0};
Point(p15 + 16) = {9.079695325620957, -0.003655115607703874, 0};
Point(p15 + 17) = {9.030517267733099, -0.08390641234172208, 0};
Point(p15 + 18) = {8.994498742017521, -0.1708628256209571, 0};
Point(p15 + 19) = {8.972526644115971, -0.2623831999586841, 0};
Point(p15 + 20) = {8.965142, -0.3562139999999999, 0};
Point(p15 + 21) = {8.972526644115971, -0.4500448000413158, 0};
Point(p15 + 22) = {8.994498742017521, -0.5415651743790431, 0};
Point(p15 + 23) = {9.030517267733099, -0.6285215876582775, 0};
Point(p15 + 24) = {9.079695325620957, -0.708772884392296, 0};
Point(p15 + 25) = {9.140821988683278, -0.7803430113167218, 0};
Point(p15 + 26) = {9.212392115607704, -0.8414696743790429, 0};
Point(p15 + 27) = {9.292643412341723, -0.8906477322669006, 0};
Point(p15 + 28) = {9.379599825620957, -0.9266662579824798, 0};
Point(p15 + 29) = {9.471120199958685, -0.948638355884029, 0};
Point(p15 + 30) = {9.564951000000001, -0.9560230000000001, 0};
Point(p15 + 31) = {9.658781800041316, -0.948638355884029, 0};
Point(p15 + 32) = {9.750302174379044, -0.9266662579824798, 0};
Point(p15 + 33) = {9.837258587658278, -0.8906477322669009, 0};
Point(p15 + 34) = {9.917509884392297, -0.8414696743790429, 0};
Point(p15 + 35) = {9.989080011316723, -0.780343011316722, 0};
Point(p15 + 36) = {10.05020667437904, -0.708772884392296, 0};
Point(p15 + 37) = {10.0993847322669, -0.6285215876582779, 0};
Point(p15 + 38) = {10.13540325798248, -0.5415651743790429, 0};
Point(p15 + 39) = {10.15737535588403, -0.450044800041316, 0};
Spline(15) = {10, p15 + 1, p15 + 2, p15 + 3, p15 + 4, p15 + 5, p15 + 6, p15 + 7, p15 + 8, p15 + 9, p15 + 10, p15 + 11, p15 + 12, p15 + 13, p15 + 14, p15 + 15, p15 + 16, p15 + 17, p15 + 18, p15 + 19, p15 + 20, p15 + 21, p15 + 22, p15 + 23, p15 + 24, p15 + 25, p15 + 26, p15 + 27, p15 + 28, p15 + 29, p15 + 30, p15 + 31, p15 + 32, p15 + 33, p15 + 34, p15 + 35, p15 + 36, p15 + 37, p15 + 38, p15 + 39, 10};
p16 = newp;
Point(p16 + 1) = {27.1241465173607, -1.673871657669072, 0.1};
Point(p16 + 2) = {27.0787765376922, -1.484892091786853, 0.1};
Point(p16 + 3) = {27.00440222046826, -1.305336606452582, 0.1};
Point(p16 + 4) = {26.90285490821315, -1.13962645362568, 0.1};
Point(p16 + 5) = {26.77663503277079, -0.9918419672292135, 0.1};
Point(p16 + 6) = {26.62885054637432, -0.8656220917868527, 0.1};
Point(p16 + 7) = {26.46314039354742, -0.7640747795317389, 0.1};
Point(p16 + 8) = {26.28358490821315, -0.6897004623078005, 0.1};
Point(p16 + 9) = {26.09460534233093, -0.6443304826392979, 0.1};
Point(p16 + 10) = {25.900855, -0.6290819999999999, 0.1};
Point(p16 + 11) = {25.70710465766907, -0.6443304826392982, 0.1};
Point(p16 + 12) = {25.51812509178685, -0.6897004623078002, 0.1};
Point(p16 + 13) = {25.33856960645258, -0.7640747795317386, 0.1};
Point(p16 + 14) = {25.17285945362568, -0.8656220917868525, 0.1};
Point(p16 + 15) = {25.02507496722921, -0.9918419672292133, 0.1};
Point(p16 + 16) = {24.89885509178685, -1.13962645362568, 0.1};
Point(p16 + 17) = {24.79730777953174, -1.305336606452582, 0.1};
Point(p16 + 18) = {24.7229334623078, -1.484892091786852, 0.1};
Point(p16 + 19) = {24.6775634826393, -1.673871657669072, 0.1};
Point(p16 + 20) = {24.662315, -1.867622, 0.1};
Point(p16 + 21) = {24.6775634826393, -2.061372342330927, 0.1};
Point(p16 + 22) = {24.7229334623078, -2.250351908213148, 0.1};
Point(p16 + 23) = {24.79730777953174, -2.429907393547418, 0.1};
Point(p16 + 24) = {24.89885509178685, -2.595617546374319, 0.1};
Point(p16 + 25) = {25.02507496722921, -2.743402032770786, 0.1};
Point(p16 + 26) = {25.17285945362568, -2.869621908213147, 0.1};
Point(p16 + 27) = {25.33856960645258, -2.971169220468261, 0.1};
Point(p16 + 28) = {25.51812509178685, -3.0455435376922, 0.1};
Point(p16 + 29) = {25.70710465766907, -3.090913517360701, 0.1};
Point(p16 + 30) = {25.900855, -3.106162, 0.1};
Point(p16 + 31) = {26.09460534233093, -3.090913517360702, 0.1};
Point(p16 + 32) = {26.28358490821315, -3.0455435376922, 0.1};
Point(p16 + 33) = {26.46314039354742, -2.971169220468261, 0.1};
Point(p16 + 34) = {26.62885054637432, -2.869621908213147, 0.1};
Point(p16 + 35) = {26.77663503277079, -2.743402032770787, 0.1};
Point(p16 + 36) = {26.90285490821315, -2.59561754637432, 0.1};
Point(p16 + 37) = {27.00440222046826, -2.429907393547418, 0.1};
Point(p16 + 38) = {27.0787765376922, -2.250351908213148, 0.1};
Point(p16 + 39) = {27.1241465173607, -2.061372342330928, 0.1};
Spline(16) = {11, p16 + 1, p16 + 2, p16 + 3, p16 + 4, p16 + 5, p16 + 6, p16 + 7, p16 + 8, p16 + 9, p16 + 10, p16 + 11, p16 + 12, p16 + 13, p16 + 14, p16 + 15, p16 + 16, p16 + 17, p16 + 18, p16 + 19, p16 + 20, p16 + 21, p16 + 22, p16 + 23, p16 + 24, p16 + 25, p16 + 26, p16 + 27, p16 + 28, p16 + 29, p16 + 30, p16 + 31, p16 + 32, p16 + 33, p16 + 34, p16 + 35, p16 + 36, p16 + 37, p16 + 38, p16 + 39, 11};
Line(17) = {12, 11};
p18 = newp;
Point(p18 + 1) = {27.1241465173607, -1.673871657669072, 0};
Point(p18 + 2) = {27.0787765376922, -1.484892091786853, 0};
Point(p18 + 3) = {27.00440222046826, -1.305336606452582, 0};
Point(p18 + 4) = {26.90285490821315, -1.13962645362568, 0};
Point(p18 + 5) = {26.77663503277079, -0.9918419672292135, 0};
Point(p18 + 6) = {26.62885054637432, -0.8656220917868527, 0};
Point(p18 + 7) = {26.46314039354742, -0.7640747795317389, 0};
Point(p18 + 8) = {26.28358490821315, -0.6897004623078005, 0};
Point(p18 + 9) = {26.09460534233093, -0.6443304826392979, 0};
Point(p18 + 10) = {25.900855, -0.6290819999999999, 0};
Point(p18 + 11) = {25.70710465766907, -0.6443304826392982, 0};
Point(p18 + 12) = {25.51812509178685, -0.6897004623078002, 0};
Point(p18 + 13) = {25.33856960645258, -0.7640747795317386, 0};
Point(p18 + 14) = {25.17285945362568, -0.8656220917868525, 0};
Point(p18 + 15) = {25.02507496722921, -0.9918419672292133, 0};
Point(p18 + 16) = {24.89885509178685, -1.13962645362568, 0};
Point(p18 + 17) = {24.79730777953174, -1.305336606452582, 0};
Point(p18 + 18) = {24.7229334623078, -1.484892091786852, 0};
Point(p18 + 19) = {24.6775634826393, -1.673871657669072, 0};
Point(p18 + 20) = {24.662315, -1.867622, 0};
Point(p18 + 21) = {24.6775634826393, -2.061372342330927, 0};
Point(p18 + 22) = {24.7229334623078, -2.250351908213148, 0};
Point(p18 + 23) = {24.79730777953174, -2.429907393547418, 0};
Point(p18 + 24) = {24.89885509178685, -2.595617546374319, 0};
Point(p18 + 25) = {25.02507496722921, -2.743402032770786, 0};
Point(p18 + 26) = {25.17285945362568, -2.869621908213147, 0};
Point(p18 + 27) = {25.33856960645258, -2.971169220468261, 0};
Point(p18 + 28) = {25.51812509178685, -3.0455435376922, 0};
Point(p18 + 29) = {25.70710465766907, -3.090913517360701, 0};
Point(p18 + 30) = {25.900855, -3.106162, 0};
Point(p18 + 31) = {26.09460534233093, -3.090913517360702, 0};
Point(p18 + 32) = {26.28358490821315, -3.0455435376922, 0};
Point(p18 + 33) = {26.46314039354742, -2.971169220468261, 0};
Point(p18 + 34) = {26.62885054637432, -2.869621908213147, 0};
Point(p18 + 35) = {26.77663503277079, -2.743402032770787, 0};
Point(p18 + 36) = {26.90285490821315, -2.59561754637432, 0};
Point(p18 + 37) = {27.00440222046826, -2.429907393547418, 0};
Point(p18 + 38) = {27.0787765376922, -2.250351908213148, 0};
Point(p18 + 39) = {27.1241465173607, -2.061372342330928, 0};
Spline(18) = {12, p18 + 1, p18 + 2, p18 + 3, p18 + 4, p18 + 5, p18 + 6, p18 + 7, p18 + 8, p18 + 9, p18 + 10, p18 + 11, p18 + 12, p18 + 13, p18 + 14, p18 + 15, p18 + 16, p18 + 17, p18 + 18, p18 + 19, p18 + 20, p18 + 21, p18 + 22, p18 + 23, p18 + 24, p18 + 25, p18 + 26, p18 + 27, p18 + 28, p18 + 29, p18 + 30, p18 + 31, p18 + 32, p18 + 33, p18 + 34, p18 + 35, p18 + 36, p18 + 37, p18 + 38, p18 + 39, 12};
Line(19) = {14, 13};
Line(20) = {13, 15};
Line(21) = {16, 15};
Line(22) = {14, 16};
Line(23) = {14, 17};
Line(24) = {17, 18};
Line(25) = {13, 18};
Line(26) = {15, 19};
Line(27) = {18, 19};
Line(28) = {16, 20};
Line(29) = {20, 19};
Line(30) = {17, 20};
Curve Loop(7) = {-13, -14, 15, 14};
Surface(7) = {7};
Curve Loop(8) = {13};
Plane Surface(8) = {8};
Curve Loop(9) = {15};
Plane Surface(9) = {9};
Curve Loop(10) = {-16, -17, 18, 17};
Surface(10) = {10};
Curve Loop(11) = {16};
Plane Surface(11) = {11};
Curve Loop(12) = {18};
Plane Surface(12) = {12};
Curve Loop(13) = {-19, 22, 21, -20};
Plane Surface(13) = {13};
Curve Loop(14) = {-23, 19, 25, -24};
Plane Surface(14) = {14};
Curve Loop(15) = {-20, 25, 27, -26};
Plane Surface(15) = {15};
Curve Loop(16) = {-28, 21, 26, -29};
Plane Surface(16) = {16};
Curve Loop(17) = {-22, 23, 30, -28, -18, -15};
Plane Surface(17) = {17};
Curve Loop(18) = {-24, 30, 29, -27};
Plane Surface(18) = {18};
Surface Loop(1) = {13, 14, 15, 16, 17, 18, 10, 7, 11, 8};
Volume(1) = {1};
Surface Loop(2) = {7, 8, 9};
Volume(2) = {2};
Surface Loop(3) = {10, 11, 12};
Volume(3) = {3};
Physical Surface("WALLS") = {13, 18};
Physical Surface("LOAD") = {8, 11};
Physical Surface("BORDER") = {7, 9, 10, 12, 14, 15, 16, 17};
Physical Volume("SOLID") = {1, 2, 3};
