cl__1 = 0.113202;
cl__2 = 0.06712;
cl__3 = 1.095498;
cl__4 = 0.805263;
cl__5 = 0.9379150000000001;
cl__6 = 1.842555;
Point(9) = {5.844788, 1.861518, 0.1, cl__1};
Point(10) = {5.844788, 1.861518, 0, cl__1};
Point(11) = {30.095678, -0.3507670000000002, 0.1, cl__2};
Point(12) = {30.095678, -0.3507670000000002, 0, cl__2};
Point(13) = {0.144941, -3.306276, 1, cl__3};
Point(14) = {0.144941, -3.306276, 0, cl__3};
Point(15) = {0.144941, 5.162049999999999, 1, cl__4};
Point(16) = {0.144941, 5.162049999999999, 0, cl__4};
Point(17) = {34.549908, -3.306276, 0, cl__5};
Point(18) = {34.549908, -3.306276, 1, cl__5};
Point(19) = {34.549908, 5.162049999999999, 1, cl__6};
Point(20) = {34.549908, 5.162049999999999, 0, cl__6};
p13 = newp;
Point(p13 + 1) = {5.830850943008849, 2.038605099549307, 0.1};
Point(p13 + 2) = {5.789382948632956, 2.211331726989322, 0.1};
Point(p13 + 3) = {5.721405096518241, 2.375444779505662, 0.1};
Point(p13 + 4) = {5.628591226989323, 2.526903249085378, 0.1};
Point(p13 + 5) = {5.513226725545577, 2.661977725545577, 0.1};
Point(p13 + 6) = {5.378152249085378, 2.777342226989322, 0.1};
Point(p13 + 7) = {5.226693779505662, 2.87015609651824, 0.1};
Point(p13 + 8) = {5.062580726989323, 2.938133948632956, 0.1};
Point(p13 + 9) = {4.889854099549307, 2.979601943008849, 0.1};
Point(p13 + 10) = {4.712767, 2.993539, 0.1};
Point(p13 + 11) = {4.535679900450693, 2.979601943008849, 0.1};
Point(p13 + 12) = {4.362953273010678, 2.938133948632956, 0.1};
Point(p13 + 13) = {4.198840220494339, 2.87015609651824, 0.1};
Point(p13 + 14) = {4.047381750914623, 2.777342226989322, 0.1};
Point(p13 + 15) = {3.912307274454424, 2.661977725545577, 0.1};
Point(p13 + 16) = {3.796942773010678, 2.526903249085378, 0.1};
Point(p13 + 17) = {3.70412890348176, 2.375444779505662, 0.1};
Point(p13 + 18) = {3.636151051367045, 2.211331726989322, 0.1};
Point(p13 + 19) = {3.594683056991152, 2.038605099549307, 0.1};
Point(p13 + 20) = {3.580746, 1.861518, 0.1};
Point(p13 + 21) = {3.594683056991152, 1.684430900450693, 0.1};
Point(p13 + 22) = {3.636151051367045, 1.511704273010677, 0.1};
Point(p13 + 23) = {3.704128903481759, 1.347591220494339, 0.1};
Point(p13 + 24) = {3.796942773010678, 1.196132750914622, 0.1};
Point(p13 + 25) = {3.912307274454423, 1.061058274454423, 0.1};
Point(p13 + 26) = {4.047381750914623, 0.9456937730106778, 0.1};
Point(p13 + 27) = {4.198840220494339, 0.8528799034817598, 0.1};
Point(p13 + 28) = {4.362953273010678, 0.7849020513670442, 0.1};
Point(p13 + 29) = {4.535679900450693, 0.7434340569911517, 0.1};
Point(p13 + 30) = {4.712767, 0.7294970000000001, 0.1};
Point(p13 + 31) = {4.889854099549307, 0.7434340569911515, 0.1};
Point(p13 + 32) = {5.062580726989323, 0.7849020513670439, 0.1};
Point(p13 + 33) = {5.226693779505662, 0.8528799034817596, 0.1};
Point(p13 + 34) = {5.378152249085378, 0.9456937730106776, 0.1};
Point(p13 + 35) = {5.513226725545577, 1.061058274454423, 0.1};
Point(p13 + 36) = {5.628591226989323, 1.196132750914622, 0.1};
Point(p13 + 37) = {5.72140509651824, 1.347591220494338, 0.1};
Point(p13 + 38) = {5.789382948632956, 1.511704273010678, 0.1};
Point(p13 + 39) = {5.830850943008849, 1.684430900450693, 0.1};
Spline(13) = {9, p13 + 1, p13 + 2, p13 + 3, p13 + 4, p13 + 5, p13 + 6, p13 + 7, p13 + 8, p13 + 9, p13 + 10, p13 + 11, p13 + 12, p13 + 13, p13 + 14, p13 + 15, p13 + 16, p13 + 17, p13 + 18, p13 + 19, p13 + 20, p13 + 21, p13 + 22, p13 + 23, p13 + 24, p13 + 25, p13 + 26, p13 + 27, p13 + 28, p13 + 29, p13 + 30, p13 + 31, p13 + 32, p13 + 33, p13 + 34, p13 + 35, p13 + 36, p13 + 37, p13 + 38, p13 + 39, 9};
Line(14) = {10, 9};
p15 = newp;
Point(p15 + 1) = {5.830850943008849, 2.038605099549307, 0};
Point(p15 + 2) = {5.789382948632956, 2.211331726989322, 0};
Point(p15 + 3) = {5.721405096518241, 2.375444779505662, 0};
Point(p15 + 4) = {5.628591226989323, 2.526903249085378, 0};
Point(p15 + 5) = {5.513226725545577, 2.661977725545577, 0};
Point(p15 + 6) = {5.378152249085378, 2.777342226989322, 0};
Point(p15 + 7) = {5.226693779505662, 2.87015609651824, 0};
Point(p15 + 8) = {5.062580726989323, 2.938133948632956, 0};
Point(p15 + 9) = {4.889854099549307, 2.979601943008849, 0};
Point(p15 + 10) = {4.712767, 2.993539, 0};
Point(p15 + 11) = {4.535679900450693, 2.979601943008849, 0};
Point(p15 + 12) = {4.362953273010678, 2.938133948632956, 0};
Point(p15 + 13) = {4.198840220494339, 2.87015609651824, 0};
Point(p15 + 14) = {4.047381750914623, 2.777342226989322, 0};
Point(p15 + 15) = {3.912307274454424, 2.661977725545577, 0};
Point(p15 + 16) = {3.796942773010678, 2.526903249085378, 0};
Point(p15 + 17) = {3.70412890348176, 2.375444779505662, 0};
Point(p15 + 18) = {3.636151051367045, 2.211331726989322, 0};
Point(p15 + 19) = {3.594683056991152, 2.038605099549307, 0};
Point(p15 + 20) = {3.580746, 1.861518, 0};
Point(p15 + 21) = {3.594683056991152, 1.684430900450693, 0};
Point(p15 + 22) = {3.636151051367045, 1.511704273010677, 0};
Point(p15 + 23) = {3.704128903481759, 1.347591220494339, 0};
Point(p15 + 24) = {3.796942773010678, 1.196132750914622, 0};
Point(p15 + 25) = {3.912307274454423, 1.061058274454423, 0};
Point(p15 + 26) = {4.047381750914623, 0.9456937730106778, 0};
Point(p15 + 27) = {4.198840220494339, 0.8528799034817598, 0};
Point(p15 + 28) = {4.362953273010678, 0.7849020513670442, 0};
Point(p15 + 29) = {4.535679900450693, 0.7434340569911517, 0};
Point(p15 + 30) = {4.712767, 0.7294970000000001, 0};
Point(p15 + 31) = {4.889854099549307, 0.7434340569911515, 0};
Point(p15 + 32) = {5.062580726989323, 0.7849020513670439, 0};
Point(p15 + 33) = {5.226693779505662, 0.8528799034817596, 0};
Point(p15 + 34) = {5.378152249085378, 0.9456937730106776, 0};
Point(p15 + 35) = {5.513226725545577, 1.061058274454423, 0};
Point(p15 + 36) = {5.628591226989323, 1.196132750914622, 0};
Point(p15 + 37) = {5.72140509651824, 1.347591220494338, 0};
Point(p15 + 38) = {5.789382948632956, 1.511704273010678, 0};
Point(p15 + 39) = {5.830850943008849, 1.684430900450693, 0};
Spline(15) = {10, p15 + 1, p15 + 2, p15 + 3, p15 + 4, p15 + 5, p15 + 6, p15 + 7, p15 + 8, p15 + 9, p15 + 10, p15 + 11, p15 + 12, p15 + 13, p15 + 14, p15 + 15, p15 + 16, p15 + 17, p15 + 18, p15 + 19, p15 + 20, p15 + 21, p15 + 22, p15 + 23, p15 + 24, p15 + 25, p15 + 26, p15 + 27, p15 + 28, p15 + 29, p15 + 30, p15 + 31, p15 + 32, p15 + 33, p15 + 34, p15 + 35, p15 + 36, p15 + 37, p15 + 38, p15 + 39, 10};
p16 = newp;
Point(p16 + 1) = {30.0874144018958, -0.245768030630532, 0.1};
Point(p16 + 2) = {30.06282708479382, -0.1433544843585409, 0.1};
Point(p16 + 3) = {30.02252147004176, -0.04604812258431645, 0.1};
Point(p16 + 4) = {29.96749001564146, 0.04375504912396028, 0.1};
Point(p16 + 5) = {29.89908777863919, 0.1238437786391919, 0.1};
Point(p16 + 6) = {29.81899904912396, 0.1922460156414591, 0.1};
Point(p16 + 7) = {29.72919587741568, 0.2472774700417567, 0.1};
Point(p16 + 8) = {29.63188951564146, 0.2875830847938234, 0.1};
Point(p16 + 9) = {29.52947596936947, 0.3121704018957971, 0.1};
Point(p16 + 10) = {29.424477, 0.3204340000000001, 0.1};
Point(p16 + 11) = {29.31947803063053, 0.3121704018957971, 0.1};
Point(p16 + 12) = {29.21706448435854, 0.2875830847938235, 0.1};
Point(p16 + 13) = {29.11975812258432, 0.2472774700417568, 0.1};
Point(p16 + 14) = {29.02995495087604, 0.1922460156414591, 0.1};
Point(p16 + 15) = {28.94986622136081, 0.1238437786391919, 0.1};
Point(p16 + 16) = {28.88146398435854, 0.04375504912396039, 0.1};
Point(p16 + 17) = {28.82643252995824, -0.0460481225843164, 0.1};
Point(p16 + 18) = {28.78612691520618, -0.1433544843585408, 0.1};
Point(p16 + 19) = {28.7615395981042, -0.2457680306305319, 0.1};
Point(p16 + 20) = {28.753276, -0.3507669999999999, 0.1};
Point(p16 + 21) = {28.7615395981042, -0.4557659693694679, 0.1};
Point(p16 + 22) = {28.78612691520618, -0.5581795156414593, 0.1};
Point(p16 + 23) = {28.82643252995824, -0.6554858774156833, 0.1};
Point(p16 + 24) = {28.88146398435854, -0.7452890491239602, 0.1};
Point(p16 + 25) = {28.94986622136081, -0.8253777786391918, 0.1};
Point(p16 + 26) = {29.02995495087604, -0.893780015641459, 0.1};
Point(p16 + 27) = {29.11975812258432, -0.9488114700417567, 0.1};
Point(p16 + 28) = {29.21706448435854, -0.9891170847938233, 0.1};
Point(p16 + 29) = {29.31947803063053, -1.013704401895797, 0.1};
Point(p16 + 30) = {29.424477, -1.021968, 0.1};
Point(p16 + 31) = {29.52947596936947, -1.013704401895797, 0.1};
Point(p16 + 32) = {29.63188951564146, -0.9891170847938235, 0.1};
Point(p16 + 33) = {29.72919587741568, -0.9488114700417569, 0.1};
Point(p16 + 34) = {29.81899904912396, -0.8937800156414593, 0.1};
Point(p16 + 35) = {29.89908777863919, -0.825377778639192, 0.1};
Point(p16 + 36) = {29.96749001564146, -0.7452890491239603, 0.1};
Point(p16 + 37) = {30.02252147004176, -0.6554858774156838, 0.1};
Point(p16 + 38) = {30.06282708479382, -0.5581795156414593, 0.1};
Point(p16 + 39) = {30.0874144018958, -0.4557659693694682, 0.1};
Spline(16) = {11, p16 + 1, p16 + 2, p16 + 3, p16 + 4, p16 + 5, p16 + 6, p16 + 7, p16 + 8, p16 + 9, p16 + 10, p16 + 11, p16 + 12, p16 + 13, p16 + 14, p16 + 15, p16 + 16, p16 + 17, p16 + 18, p16 + 19, p16 + 20, p16 + 21, p16 + 22, p16 + 23, p16 + 24, p16 + 25, p16 + 26, p16 + 27, p16 + 28, p16 + 29, p16 + 30, p16 + 31, p16 + 32, p16 + 33, p16 + 34, p16 + 35, p16 + 36, p16 + 37, p16 + 38, p16 + 39, 11};
Line(17) = {12, 11};
p18 = newp;
Point(p18 + 1) = {30.0874144018958, -0.245768030630532, 0};
Point(p18 + 2) = {30.06282708479382, -0.1433544843585409, 0};
Point(p18 + 3) = {30.02252147004176, -0.04604812258431645, 0};
Point(p18 + 4) = {29.96749001564146, 0.04375504912396028, 0};
Point(p18 + 5) = {29.89908777863919, 0.1238437786391919, 0};
Point(p18 + 6) = {29.81899904912396, 0.1922460156414591, 0};
Point(p18 + 7) = {29.72919587741568, 0.2472774700417567, 0};
Point(p18 + 8) = {29.63188951564146, 0.2875830847938234, 0};
Point(p18 + 9) = {29.52947596936947, 0.3121704018957971, 0};
Point(p18 + 10) = {29.424477, 0.3204340000000001, 0};
Point(p18 + 11) = {29.31947803063053, 0.3121704018957971, 0};
Point(p18 + 12) = {29.21706448435854, 0.2875830847938235, 0};
Point(p18 + 13) = {29.11975812258432, 0.2472774700417568, 0};
Point(p18 + 14) = {29.02995495087604, 0.1922460156414591, 0};
Point(p18 + 15) = {28.94986622136081, 0.1238437786391919, 0};
Point(p18 + 16) = {28.88146398435854, 0.04375504912396039, 0};
Point(p18 + 17) = {28.82643252995824, -0.0460481225843164, 0};
Point(p18 + 18) = {28.78612691520618, -0.1433544843585408, 0};
Point(p18 + 19) = {28.7615395981042, -0.2457680306305319, 0};
Point(p18 + 20) = {28.753276, -0.3507669999999999, 0};
Point(p18 + 21) = {28.7615395981042, -0.4557659693694679, 0};
Point(p18 + 22) = {28.78612691520618, -0.5581795156414593, 0};
Point(p18 + 23) = {28.82643252995824, -0.6554858774156833, 0};
Point(p18 + 24) = {28.88146398435854, -0.7452890491239602, 0};
Point(p18 + 25) = {28.94986622136081, -0.8253777786391918, 0};
Point(p18 + 26) = {29.02995495087604, -0.893780015641459, 0};
Point(p18 + 27) = {29.11975812258432, -0.9488114700417567, 0};
Point(p18 + 28) = {29.21706448435854, -0.9891170847938233, 0};
Point(p18 + 29) = {29.31947803063053, -1.013704401895797, 0};
Point(p18 + 30) = {29.424477, -1.021968, 0};
Point(p18 + 31) = {29.52947596936947, -1.013704401895797, 0};
Point(p18 + 32) = {29.63188951564146, -0.9891170847938235, 0};
Point(p18 + 33) = {29.72919587741568, -0.9488114700417569, 0};
Point(p18 + 34) = {29.81899904912396, -0.8937800156414593, 0};
Point(p18 + 35) = {29.89908777863919, -0.825377778639192, 0};
Point(p18 + 36) = {29.96749001564146, -0.7452890491239603, 0};
Point(p18 + 37) = {30.02252147004176, -0.6554858774156838, 0};
Point(p18 + 38) = {30.06282708479382, -0.5581795156414593, 0};
Point(p18 + 39) = {30.0874144018958, -0.4557659693694682, 0};
Spline(18) = {12, p18 + 1, p18 + 2, p18 + 3, p18 + 4, p18 + 5, p18 + 6, p18 + 7, p18 + 8, p18 + 9, p18 + 10, p18 + 11, p18 + 12, p18 + 13, p18 + 14, p18 + 15, p18 + 16, p18 + 17, p18 + 18, p18 + 19, p18 + 20, p18 + 21, p18 + 22, p18 + 23, p18 + 24, p18 + 25, p18 + 26, p18 + 27, p18 + 28, p18 + 29, p18 + 30, p18 + 31, p18 + 32, p18 + 33, p18 + 34, p18 + 35, p18 + 36, p18 + 37, p18 + 38, p18 + 39, 12};
Line(19) = {14, 13};
Line(20) = {13, 15};
Line(21) = {16, 15};
Line(22) = {14, 16};
Line(23) = {14, 17};
Line(24) = {17, 18};
Line(25) = {13, 18};
Line(26) = {15, 19};
Line(27) = {18, 19};
Line(28) = {16, 20};
Line(29) = {20, 19};
Line(30) = {17, 20};
Curve Loop(7) = {-13, -14, 15, 14};
Surface(7) = {7};
Curve Loop(8) = {13};
Plane Surface(8) = {8};
Curve Loop(9) = {15};
Plane Surface(9) = {9};
Curve Loop(10) = {-16, -17, 18, 17};
Surface(10) = {10};
Curve Loop(11) = {16};
Plane Surface(11) = {11};
Curve Loop(12) = {18};
Plane Surface(12) = {12};
Curve Loop(13) = {-19, 22, 21, -20};
Plane Surface(13) = {13};
Curve Loop(14) = {-23, 19, 25, -24};
Plane Surface(14) = {14};
Curve Loop(15) = {-20, 25, 27, -26};
Plane Surface(15) = {15};
Curve Loop(16) = {-28, 21, 26, -29};
Plane Surface(16) = {16};
Curve Loop(17) = {-22, 23, 30, -28, -18, -15};
Plane Surface(17) = {17};
Curve Loop(18) = {-24, 30, 29, -27};
Plane Surface(18) = {18};
Surface Loop(1) = {13, 14, 15, 16, 17, 18, 10, 7, 11, 8};
Volume(1) = {1};
Surface Loop(2) = {7, 8, 9};
Volume(2) = {2};
Surface Loop(3) = {10, 11, 12};
Volume(3) = {3};
Physical Surface("WALLS") = {13, 18};
Physical Surface("LOAD") = {8, 11};
Physical Surface("BORDER") = {7, 9, 10, 12, 14, 15, 16, 17};
Physical Volume("SOLID") = {1, 2, 3};
