cl__1 = 0.072127;
cl__2 = 0.143476;
cl__3 = 0.292298;
cl__4 = 0.531838;
cl__5 = 4.039109;
cl__6 = 3.969126;
Point(9) = {15.261881, 0.5466659999999998, 0.1, cl__1};
Point(10) = {15.261881, 0.5466659999999998, 0, cl__1};
Point(11) = {6.560755, -2.091598, 0.1, cl__2};
Point(12) = {6.560755, -2.091598, 0, cl__2};
Point(13) = {0.35926, -4.110035, 1, cl__3};
Point(14) = {0.35926, -4.110035, 0, cl__3};
Point(15) = {0.35926, 4.633158, 1, cl__4};
Point(16) = {0.35926, 4.633158, 0, cl__4};
Point(17) = {35.128166, -4.110035, 0, cl__5};
Point(18) = {35.128166, -4.110035, 1, cl__5};
Point(19) = {35.128166, 4.633158, 1, cl__6};
Point(20) = {35.128166, 4.633158, 0, cl__6};
p13 = newp;
Point(p13 + 1) = {15.25300092017442, 0.6594981123374275, 0.1};
Point(p13 + 2) = {15.22657933773427, 0.7695519236007957, 0.1};
Point(p13 + 3) = {15.18326683972744, 0.8741175437091417, 0.1};
Point(p13 + 4) = {15.1241299236008, 0.9706202200620012, 0.1};
Point(p13 + 5) = {15.05062473649355, 1.056683736493546, 0.1};
Point(p13 + 6) = {14.964561220062, 1.130188923600796, 0.1};
Point(p13 + 7) = {14.86805854370914, 1.189325839727441, 0.1};
Point(p13 + 8) = {14.7634929236008, 1.23263833773427, 0.1};
Point(p13 + 9) = {14.65343911233743, 1.259059920174417, 0.1};
Point(p13 + 10) = {14.540607, 1.26794, 0.1};
Point(p13 + 11) = {14.42777488766257, 1.259059920174417, 0.1};
Point(p13 + 12) = {14.3177210763992, 1.23263833773427, 0.1};
Point(p13 + 13) = {14.21315545629086, 1.189325839727441, 0.1};
Point(p13 + 14) = {14.116652779938, 1.130188923600796, 0.1};
Point(p13 + 15) = {14.03058926350645, 1.056683736493546, 0.1};
Point(p13 + 16) = {13.9570840763992, 0.9706202200620013, 0.1};
Point(p13 + 17) = {13.89794716027256, 0.874117543709142, 0.1};
Point(p13 + 18) = {13.85463466226573, 0.7695519236007958, 0.1};
Point(p13 + 19) = {13.82821307982558, 0.6594981123374275, 0.1};
Point(p13 + 20) = {13.819333, 0.5466660000000001, 0.1};
Point(p13 + 21) = {13.82821307982558, 0.4338338876625726, 0.1};
Point(p13 + 22) = {13.85463466226573, 0.3237800763992039, 0.1};
Point(p13 + 23) = {13.89794716027256, 0.2192144562908585, 0.1};
Point(p13 + 24) = {13.9570840763992, 0.1227117799379988, 0.1};
Point(p13 + 25) = {14.03058926350645, 0.03664826350645423, 0.1};
Point(p13 + 26) = {14.116652779938, -0.03685692360079573, 0.1};
Point(p13 + 27) = {14.21315545629086, -0.0959938397274408, 0.1};
Point(p13 + 28) = {14.3177210763992, -0.1393063377342706, 0.1};
Point(p13 + 29) = {14.42777488766257, -0.1657279201744173, 0.1};
Point(p13 + 30) = {14.540607, -0.174608, 0.1};
Point(p13 + 31) = {14.65343911233743, -0.1657279201744174, 0.1};
Point(p13 + 32) = {14.7634929236008, -0.1393063377342706, 0.1};
Point(p13 + 33) = {14.86805854370914, -0.09599383972744091, 0.1};
Point(p13 + 34) = {14.964561220062, -0.03685692360079595, 0.1};
Point(p13 + 35) = {15.05062473649355, 0.036648263506454, 0.1};
Point(p13 + 36) = {15.1241299236008, 0.1227117799379986, 0.1};
Point(p13 + 37) = {15.18326683972744, 0.219214456290858, 0.1};
Point(p13 + 38) = {15.22657933773427, 0.323780076399204, 0.1};
Point(p13 + 39) = {15.25300092017442, 0.4338338876625724, 0.1};
Spline(13) = {9, p13 + 1, p13 + 2, p13 + 3, p13 + 4, p13 + 5, p13 + 6, p13 + 7, p13 + 8, p13 + 9, p13 + 10, p13 + 11, p13 + 12, p13 + 13, p13 + 14, p13 + 15, p13 + 16, p13 + 17, p13 + 18, p13 + 19, p13 + 20, p13 + 21, p13 + 22, p13 + 23, p13 + 24, p13 + 25, p13 + 26, p13 + 27, p13 + 28, p13 + 29, p13 + 30, p13 + 31, p13 + 32, p13 + 33, p13 + 34, p13 + 35, p13 + 36, p13 + 37, p13 + 38, p13 + 39, 9};
Line(14) = {10, 9};
p15 = newp;
Point(p15 + 1) = {15.25300092017442, 0.6594981123374275, 0};
Point(p15 + 2) = {15.22657933773427, 0.7695519236007957, 0};
Point(p15 + 3) = {15.18326683972744, 0.8741175437091417, 0};
Point(p15 + 4) = {15.1241299236008, 0.9706202200620012, 0};
Point(p15 + 5) = {15.05062473649355, 1.056683736493546, 0};
Point(p15 + 6) = {14.964561220062, 1.130188923600796, 0};
Point(p15 + 7) = {14.86805854370914, 1.189325839727441, 0};
Point(p15 + 8) = {14.7634929236008, 1.23263833773427, 0};
Point(p15 + 9) = {14.65343911233743, 1.259059920174417, 0};
Point(p15 + 10) = {14.540607, 1.26794, 0};
Point(p15 + 11) = {14.42777488766257, 1.259059920174417, 0};
Point(p15 + 12) = {14.3177210763992, 1.23263833773427, 0};
Point(p15 + 13) = {14.21315545629086, 1.189325839727441, 0};
Point(p15 + 14) = {14.116652779938, 1.130188923600796, 0};
Point(p15 + 15) = {14.03058926350645, 1.056683736493546, 0};
Point(p15 + 16) = {13.9570840763992, 0.9706202200620013, 0};
Point(p15 + 17) = {13.89794716027256, 0.874117543709142, 0};
Point(p15 + 18) = {13.85463466226573, 0.7695519236007958, 0};
Point(p15 + 19) = {13.82821307982558, 0.6594981123374275, 0};
Point(p15 + 20) = {13.819333, 0.5466660000000001, 0};
Point(p15 + 21) = {13.82821307982558, 0.4338338876625726, 0};
Point(p15 + 22) = {13.85463466226573, 0.3237800763992039, 0};
Point(p15 + 23) = {13.89794716027256, 0.2192144562908585, 0};
Point(p15 + 24) = {13.9570840763992, 0.1227117799379988, 0};
Point(p15 + 25) = {14.03058926350645, 0.03664826350645423, 0};
Point(p15 + 26) = {14.116652779938, -0.03685692360079573, 0};
Point(p15 + 27) = {14.21315545629086, -0.0959938397274408, 0};
Point(p15 + 28) = {14.3177210763992, -0.1393063377342706, 0};
Point(p15 + 29) = {14.42777488766257, -0.1657279201744173, 0};
Point(p15 + 30) = {14.540607, -0.174608, 0};
Point(p15 + 31) = {14.65343911233743, -0.1657279201744174, 0};
Point(p15 + 32) = {14.7634929236008, -0.1393063377342706, 0};
Point(p15 + 33) = {14.86805854370914, -0.09599383972744091, 0};
Point(p15 + 34) = {14.964561220062, -0.03685692360079595, 0};
Point(p15 + 35) = {15.05062473649355, 0.036648263506454, 0};
Point(p15 + 36) = {15.1241299236008, 0.1227117799379986, 0};
Point(p15 + 37) = {15.18326683972744, 0.219214456290858, 0};
Point(p15 + 38) = {15.22657933773427, 0.323780076399204, 0};
Point(p15 + 39) = {15.25300092017442, 0.4338338876625724, 0};
Spline(15) = {10, p15 + 1, p15 + 2, p15 + 3, p15 + 4, p15 + 5, p15 + 6, p15 + 7, p15 + 8, p15 + 9, p15 + 10, p15 + 11, p15 + 12, p15 + 13, p15 + 14, p15 + 15, p15 + 16, p15 + 17, p15 + 18, p15 + 19, p15 + 20, p15 + 21, p15 + 22, p15 + 23, p15 + 24, p15 + 25, p15 + 26, p15 + 27, p15 + 28, p15 + 29, p15 + 30, p15 + 31, p15 + 32, p15 + 33, p15 + 34, p15 + 35, p15 + 36, p15 + 37, p15 + 38, p15 + 39, 10};
p16 = newp;
Point(p16 + 1) = {6.543090748175599, -1.867152399807808, 0.1};
Point(p16 + 2) = {6.490532945206602, -1.648233395184589, 0.1};
Point(p16 + 3) = {6.404375738631455, -1.440231498574687, 0.1};
Point(p16 + 4) = {6.286740604815411, -1.248268406991356, 0.1};
Point(p16 + 5) = {6.140524111161648, -1.077070888838351, 0.1};
Point(p16 + 6) = {5.969326593008645, -0.9308543951845891, 0.1};
Point(p16 + 7) = {5.777363501425313, -0.8132192613685456, 0.1};
Point(p16 + 8) = {5.569361604815411, -0.7270620547933979, 0.1};
Point(p16 + 9) = {5.350442600192191, -0.6745042518244011, 0.1};
Point(p16 + 10) = {5.125997, -0.6568399999999999, 0.1};
Point(p16 + 11) = {4.901551399807808, -0.6745042518244013, 0.1};
Point(p16 + 12) = {4.682632395184589, -0.7270620547933979, 0.1};
Point(p16 + 13) = {4.474630498574688, -0.8132192613685456, 0.1};
Point(p16 + 14) = {4.282667406991356, -0.9308543951845889, 0.1};
Point(p16 + 15) = {4.111469888838352, -1.077070888838351, 0.1};
Point(p16 + 16) = {3.965253395184589, -1.248268406991356, 0.1};
Point(p16 + 17) = {3.847618261368546, -1.440231498574687, 0.1};
Point(p16 + 18) = {3.761461054793398, -1.648233395184589, 0.1};
Point(p16 + 19) = {3.708903251824402, -1.867152399807808, 0.1};
Point(p16 + 20) = {3.691239, -2.091598, 0.1};
Point(p16 + 21) = {3.708903251824401, -2.316043600192191, 0.1};
Point(p16 + 22) = {3.761461054793398, -2.534962604815411, 0.1};
Point(p16 + 23) = {3.847618261368545, -2.742964501425312, 0.1};
Point(p16 + 24) = {3.965253395184589, -2.934927593008644, 0.1};
Point(p16 + 25) = {4.111469888838351, -3.106125111161648, 0.1};
Point(p16 + 26) = {4.282667406991355, -3.252341604815411, 0.1};
Point(p16 + 27) = {4.474630498574687, -3.369976738631454, 0.1};
Point(p16 + 28) = {4.682632395184589, -3.456133945206602, 0.1};
Point(p16 + 29) = {4.901551399807808, -3.508691748175599, 0.1};
Point(p16 + 30) = {5.125997, -3.526356, 0.1};
Point(p16 + 31) = {5.350442600192191, -3.508691748175599, 0.1};
Point(p16 + 32) = {5.569361604815411, -3.456133945206602, 0.1};
Point(p16 + 33) = {5.777363501425312, -3.369976738631454, 0.1};
Point(p16 + 34) = {5.969326593008644, -3.252341604815411, 0.1};
Point(p16 + 35) = {6.140524111161648, -3.106125111161648, 0.1};
Point(p16 + 36) = {6.28674060481541, -2.934927593008644, 0.1};
Point(p16 + 37) = {6.404375738631455, -2.742964501425313, 0.1};
Point(p16 + 38) = {6.490532945206602, -2.534962604815411, 0.1};
Point(p16 + 39) = {6.543090748175598, -2.316043600192192, 0.1};
Spline(16) = {11, p16 + 1, p16 + 2, p16 + 3, p16 + 4, p16 + 5, p16 + 6, p16 + 7, p16 + 8, p16 + 9, p16 + 10, p16 + 11, p16 + 12, p16 + 13, p16 + 14, p16 + 15, p16 + 16, p16 + 17, p16 + 18, p16 + 19, p16 + 20, p16 + 21, p16 + 22, p16 + 23, p16 + 24, p16 + 25, p16 + 26, p16 + 27, p16 + 28, p16 + 29, p16 + 30, p16 + 31, p16 + 32, p16 + 33, p16 + 34, p16 + 35, p16 + 36, p16 + 37, p16 + 38, p16 + 39, 11};
Line(17) = {12, 11};
p18 = newp;
Point(p18 + 1) = {6.543090748175599, -1.867152399807808, 0};
Point(p18 + 2) = {6.490532945206602, -1.648233395184589, 0};
Point(p18 + 3) = {6.404375738631455, -1.440231498574687, 0};
Point(p18 + 4) = {6.286740604815411, -1.248268406991356, 0};
Point(p18 + 5) = {6.140524111161648, -1.077070888838351, 0};
Point(p18 + 6) = {5.969326593008645, -0.9308543951845891, 0};
Point(p18 + 7) = {5.777363501425313, -0.8132192613685456, 0};
Point(p18 + 8) = {5.569361604815411, -0.7270620547933979, 0};
Point(p18 + 9) = {5.350442600192191, -0.6745042518244011, 0};
Point(p18 + 10) = {5.125997, -0.6568399999999999, 0};
Point(p18 + 11) = {4.901551399807808, -0.6745042518244013, 0};
Point(p18 + 12) = {4.682632395184589, -0.7270620547933979, 0};
Point(p18 + 13) = {4.474630498574688, -0.8132192613685456, 0};
Point(p18 + 14) = {4.282667406991356, -0.9308543951845889, 0};
Point(p18 + 15) = {4.111469888838352, -1.077070888838351, 0};
Point(p18 + 16) = {3.965253395184589, -1.248268406991356, 0};
Point(p18 + 17) = {3.847618261368546, -1.440231498574687, 0};
Point(p18 + 18) = {3.761461054793398, -1.648233395184589, 0};
Point(p18 + 19) = {3.708903251824402, -1.867152399807808, 0};
Point(p18 + 20) = {3.691239, -2.091598, 0};
Point(p18 + 21) = {3.708903251824401, -2.316043600192191, 0};
Point(p18 + 22) = {3.761461054793398, -2.534962604815411, 0};
Point(p18 + 23) = {3.847618261368545, -2.742964501425312, 0};
Point(p18 + 24) = {3.965253395184589, -2.934927593008644, 0};
Point(p18 + 25) = {4.111469888838351, -3.106125111161648, 0};
Point(p18 + 26) = {4.282667406991355, -3.252341604815411, 0};
Point(p18 + 27) = {4.474630498574687, -3.369976738631454, 0};
Point(p18 + 28) = {4.682632395184589, -3.456133945206602, 0};
Point(p18 + 29) = {4.901551399807808, -3.508691748175599, 0};
Point(p18 + 30) = {5.125997, -3.526356, 0};
Point(p18 + 31) = {5.350442600192191, -3.508691748175599, 0};
Point(p18 + 32) = {5.569361604815411, -3.456133945206602, 0};
Point(p18 + 33) = {5.777363501425312, -3.369976738631454, 0};
Point(p18 + 34) = {5.969326593008644, -3.252341604815411, 0};
Point(p18 + 35) = {6.140524111161648, -3.106125111161648, 0};
Point(p18 + 36) = {6.28674060481541, -2.934927593008644, 0};
Point(p18 + 37) = {6.404375738631455, -2.742964501425313, 0};
Point(p18 + 38) = {6.490532945206602, -2.534962604815411, 0};
Point(p18 + 39) = {6.543090748175598, -2.316043600192192, 0};
Spline(18) = {12, p18 + 1, p18 + 2, p18 + 3, p18 + 4, p18 + 5, p18 + 6, p18 + 7, p18 + 8, p18 + 9, p18 + 10, p18 + 11, p18 + 12, p18 + 13, p18 + 14, p18 + 15, p18 + 16, p18 + 17, p18 + 18, p18 + 19, p18 + 20, p18 + 21, p18 + 22, p18 + 23, p18 + 24, p18 + 25, p18 + 26, p18 + 27, p18 + 28, p18 + 29, p18 + 30, p18 + 31, p18 + 32, p18 + 33, p18 + 34, p18 + 35, p18 + 36, p18 + 37, p18 + 38, p18 + 39, 12};
Line(19) = {14, 13};
Line(20) = {13, 15};
Line(21) = {16, 15};
Line(22) = {14, 16};
Line(23) = {14, 17};
Line(24) = {17, 18};
Line(25) = {13, 18};
Line(26) = {15, 19};
Line(27) = {18, 19};
Line(28) = {16, 20};
Line(29) = {20, 19};
Line(30) = {17, 20};
Curve Loop(7) = {-13, -14, 15, 14};
Surface(7) = {7};
Curve Loop(8) = {13};
Plane Surface(8) = {8};
Curve Loop(9) = {15};
Plane Surface(9) = {9};
Curve Loop(10) = {-16, -17, 18, 17};
Surface(10) = {10};
Curve Loop(11) = {16};
Plane Surface(11) = {11};
Curve Loop(12) = {18};
Plane Surface(12) = {12};
Curve Loop(13) = {-19, 22, 21, -20};
Plane Surface(13) = {13};
Curve Loop(14) = {-23, 19, 25, -24};
Plane Surface(14) = {14};
Curve Loop(15) = {-20, 25, 27, -26};
Plane Surface(15) = {15};
Curve Loop(16) = {-28, 21, 26, -29};
Plane Surface(16) = {16};
Curve Loop(17) = {-22, 23, 30, -28, -18, -15};
Plane Surface(17) = {17};
Curve Loop(18) = {-24, 30, 29, -27};
Plane Surface(18) = {18};
Surface Loop(1) = {13, 14, 15, 16, 17, 18, 10, 7, 11, 8};
Volume(1) = {1};
Surface Loop(2) = {7, 8, 9};
Volume(2) = {2};
Surface Loop(3) = {10, 11, 12};
Volume(3) = {3};
Physical Surface("WALLS") = {13, 18};
Physical Surface("LOAD") = {8, 11};
Physical Surface("BORDER") = {7, 9, 10, 12, 14, 15, 16, 17};
Physical Volume("SOLID") = {1, 2, 3};
