cl__1 = 0.109216;
cl__2 = 0.132202;
cl__3 = 1.06038;
cl__4 = 1.079422;
cl__5 = 0.956186;
cl__6 = 0.998277;
Point(9) = {18.765072, -0.1313860000000003, 0.1, cl__1};
Point(10) = {18.765072, -0.1313860000000003, 0, cl__1};
Point(11) = {15.569856, 0.5413559999999996, 0.1, cl__2};
Point(12) = {15.569856, 0.5413559999999996, 0, cl__2};
Point(13) = {0.236154, -4.250967, 1, cl__3};
Point(14) = {0.236154, -4.250967, 0, cl__3};
Point(15) = {0.236154, 5.576191000000001, 1, cl__4};
Point(16) = {0.236154, 5.576191000000001, 0, cl__4};
Point(17) = {30.778944, -4.250967, 0, cl__5};
Point(18) = {30.778944, -4.250967, 1, cl__5};
Point(19) = {30.778944, 5.576191000000001, 1, cl__6};
Point(20) = {30.778944, 5.576191000000001, 0, cl__6};
p13 = newp;
Point(p13 + 1) = {18.75162566112941, 0.03946593464173367, 0.1};
Point(p13 + 2) = {18.71161773800646, 0.2061109276275256, 0.1};
Point(p13 + 3) = {18.64603335847714, 0.3644456261670426, 0.1};
Point(p13 + 4) = {18.55648742762753, 0.5105713044995044, 0.1};
Point(p13 + 5) = {18.44518486346104, 0.6408898634610433, 0.1};
Point(p13 + 6) = {18.31486630449951, 0.7521924276275256, 0.1};
Point(p13 + 7) = {18.16874062616704, 0.8417383584771403, 0.1};
Point(p13 + 8) = {18.01040592762753, 0.9073227380064637, 0.1};
Point(p13 + 9) = {17.84376093464174, 0.9473306611294074, 0.1};
Point(p13 + 10) = {17.672909, 0.960777, 0.1};
Point(p13 + 11) = {17.50205706535827, 0.9473306611294072, 0.1};
Point(p13 + 12) = {17.33541207237247, 0.9073227380064639, 0.1};
Point(p13 + 13) = {17.17707737383296, 0.8417383584771404, 0.1};
Point(p13 + 14) = {17.0309516955005, 0.7521924276275257, 0.1};
Point(p13 + 15) = {16.90063313653896, 0.6408898634610434, 0.1};
Point(p13 + 16) = {16.78933057237247, 0.5105713044995045, 0.1};
Point(p13 + 17) = {16.69978464152286, 0.3644456261670427, 0.1};
Point(p13 + 18) = {16.63420026199354, 0.2061109276275258, 0.1};
Point(p13 + 19) = {16.59419233887059, 0.03946593464173379, 0.1};
Point(p13 + 20) = {16.580746, -0.1313859999999999, 0.1};
Point(p13 + 21) = {16.59419233887059, -0.3022379346417335, 0.1};
Point(p13 + 22) = {16.63420026199354, -0.468882927627526, 0.1};
Point(p13 + 23) = {16.69978464152286, -0.6272176261670421, 0.1};
Point(p13 + 24) = {16.78933057237247, -0.7733433044995042, 0.1};
Point(p13 + 25) = {16.90063313653896, -0.9036618634610433, 0.1};
Point(p13 + 26) = {17.03095169550049, -1.014964427627526, 0.1};
Point(p13 + 27) = {17.17707737383296, -1.10451035847714, 0.1};
Point(p13 + 28) = {17.33541207237247, -1.170094738006464, 0.1};
Point(p13 + 29) = {17.50205706535827, -1.210102661129407, 0.1};
Point(p13 + 30) = {17.672909, -1.223549, 0.1};
Point(p13 + 31) = {17.84376093464173, -1.210102661129407, 0.1};
Point(p13 + 32) = {18.01040592762753, -1.170094738006464, 0.1};
Point(p13 + 33) = {18.16874062616704, -1.104510358477141, 0.1};
Point(p13 + 34) = {18.3148663044995, -1.014964427627526, 0.1};
Point(p13 + 35) = {18.44518486346104, -0.9036618634610435, 0.1};
Point(p13 + 36) = {18.55648742762753, -0.7733433044995045, 0.1};
Point(p13 + 37) = {18.64603335847714, -0.6272176261670428, 0.1};
Point(p13 + 38) = {18.71161773800646, -0.4688829276275259, 0.1};
Point(p13 + 39) = {18.75162566112941, -0.3022379346417339, 0.1};
Spline(13) = {9, p13 + 1, p13 + 2, p13 + 3, p13 + 4, p13 + 5, p13 + 6, p13 + 7, p13 + 8, p13 + 9, p13 + 10, p13 + 11, p13 + 12, p13 + 13, p13 + 14, p13 + 15, p13 + 16, p13 + 17, p13 + 18, p13 + 19, p13 + 20, p13 + 21, p13 + 22, p13 + 23, p13 + 24, p13 + 25, p13 + 26, p13 + 27, p13 + 28, p13 + 29, p13 + 30, p13 + 31, p13 + 32, p13 + 33, p13 + 34, p13 + 35, p13 + 36, p13 + 37, p13 + 38, p13 + 39, 9};
Line(14) = {10, 9};
p15 = newp;
Point(p15 + 1) = {18.75162566112941, 0.03946593464173367, 0};
Point(p15 + 2) = {18.71161773800646, 0.2061109276275256, 0};
Point(p15 + 3) = {18.64603335847714, 0.3644456261670426, 0};
Point(p15 + 4) = {18.55648742762753, 0.5105713044995044, 0};
Point(p15 + 5) = {18.44518486346104, 0.6408898634610433, 0};
Point(p15 + 6) = {18.31486630449951, 0.7521924276275256, 0};
Point(p15 + 7) = {18.16874062616704, 0.8417383584771403, 0};
Point(p15 + 8) = {18.01040592762753, 0.9073227380064637, 0};
Point(p15 + 9) = {17.84376093464174, 0.9473306611294074, 0};
Point(p15 + 10) = {17.672909, 0.960777, 0};
Point(p15 + 11) = {17.50205706535827, 0.9473306611294072, 0};
Point(p15 + 12) = {17.33541207237247, 0.9073227380064639, 0};
Point(p15 + 13) = {17.17707737383296, 0.8417383584771404, 0};
Point(p15 + 14) = {17.0309516955005, 0.7521924276275257, 0};
Point(p15 + 15) = {16.90063313653896, 0.6408898634610434, 0};
Point(p15 + 16) = {16.78933057237247, 0.5105713044995045, 0};
Point(p15 + 17) = {16.69978464152286, 0.3644456261670427, 0};
Point(p15 + 18) = {16.63420026199354, 0.2061109276275258, 0};
Point(p15 + 19) = {16.59419233887059, 0.03946593464173379, 0};
Point(p15 + 20) = {16.580746, -0.1313859999999999, 0};
Point(p15 + 21) = {16.59419233887059, -0.3022379346417335, 0};
Point(p15 + 22) = {16.63420026199354, -0.468882927627526, 0};
Point(p15 + 23) = {16.69978464152286, -0.6272176261670421, 0};
Point(p15 + 24) = {16.78933057237247, -0.7733433044995042, 0};
Point(p15 + 25) = {16.90063313653896, -0.9036618634610433, 0};
Point(p15 + 26) = {17.03095169550049, -1.014964427627526, 0};
Point(p15 + 27) = {17.17707737383296, -1.10451035847714, 0};
Point(p15 + 28) = {17.33541207237247, -1.170094738006464, 0};
Point(p15 + 29) = {17.50205706535827, -1.210102661129407, 0};
Point(p15 + 30) = {17.672909, -1.223549, 0};
Point(p15 + 31) = {17.84376093464173, -1.210102661129407, 0};
Point(p15 + 32) = {18.01040592762753, -1.170094738006464, 0};
Point(p15 + 33) = {18.16874062616704, -1.104510358477141, 0};
Point(p15 + 34) = {18.3148663044995, -1.014964427627526, 0};
Point(p15 + 35) = {18.44518486346104, -0.9036618634610435, 0};
Point(p15 + 36) = {18.55648742762753, -0.7733433044995045, 0};
Point(p15 + 37) = {18.64603335847714, -0.6272176261670428, 0};
Point(p15 + 38) = {18.71161773800646, -0.4688829276275259, 0};
Point(p15 + 39) = {18.75162566112941, -0.3022379346417339, 0};
Spline(15) = {10, p15 + 1, p15 + 2, p15 + 3, p15 + 4, p15 + 5, p15 + 6, p15 + 7, p15 + 8, p15 + 9, p15 + 10, p15 + 11, p15 + 12, p15 + 13, p15 + 14, p15 + 15, p15 + 16, p15 + 17, p15 + 18, p15 + 19, p15 + 20, p15 + 21, p15 + 22, p15 + 23, p15 + 24, p15 + 25, p15 + 26, p15 + 27, p15 + 28, p15 + 29, p15 + 30, p15 + 31, p15 + 32, p15 + 33, p15 + 34, p15 + 35, p15 + 36, p15 + 37, p15 + 38, p15 + 39, 10};
p16 = newp;
Point(p16 + 1) = {15.55357970309861, 0.748165960775881, 0.1};
Point(p16 + 2) = {15.50515158884207, 0.949883573954551, 0.1};
Point(p16 + 3) = {15.42576411812708, 1.141541882437175, 0.1};
Point(p16 + 4) = {15.31737207395455, 1.318421622591452, 0.1};
Point(p16 + 5) = {15.18264442818458, 1.476167428184583, 0.1};
Point(p16 + 6) = {15.02489862259145, 1.610895073954551, 0.1};
Point(p16 + 7) = {14.84801888243718, 1.719287118127078, 0.1};
Point(p16 + 8) = {14.65636057395455, 1.798674588842068, 0.1};
Point(p16 + 9) = {14.45464296077588, 1.847102703098606, 0.1};
Point(p16 + 10) = {14.247833, 1.863379, 0.1};
Point(p16 + 11) = {14.04102303922412, 1.847102703098606, 0.1};
Point(p16 + 12) = {13.83930542604545, 1.798674588842068, 0.1};
Point(p16 + 13) = {13.64764711756282, 1.719287118127079, 0.1};
Point(p16 + 14) = {13.47076737740855, 1.610895073954551, 0.1};
Point(p16 + 15) = {13.31302157181542, 1.476167428184583, 0.1};
Point(p16 + 16) = {13.17829392604545, 1.318421622591452, 0.1};
Point(p16 + 17) = {13.06990188187292, 1.141541882437175, 0.1};
Point(p16 + 18) = {12.99051441115793, 0.9498835739545511, 0.1};
Point(p16 + 19) = {12.94208629690139, 0.7481659607758813, 0.1};
Point(p16 + 20) = {12.92581, 0.5413560000000001, 0.1};
Point(p16 + 21) = {12.94208629690139, 0.334546039224119, 0.1};
Point(p16 + 22) = {12.99051441115793, 0.1328284260454484, 0.1};
Point(p16 + 23) = {13.06990188187292, -0.05882988243717424, 0.1};
Point(p16 + 24) = {13.17829392604545, -0.2357096225914521, 0.1};
Point(p16 + 25) = {13.31302157181542, -0.393455428184583, 0.1};
Point(p16 + 26) = {13.47076737740855, -0.528183073954551, 0.1};
Point(p16 + 27) = {13.64764711756282, -0.6365751181270785, 0.1};
Point(p16 + 28) = {13.83930542604545, -0.7159625888420678, 0.1};
Point(p16 + 29) = {14.04102303922412, -0.7643907030986057, 0.1};
Point(p16 + 30) = {14.247833, -0.780667, 0.1};
Point(p16 + 31) = {14.45464296077588, -0.7643907030986059, 0.1};
Point(p16 + 32) = {14.65636057395455, -0.715962588842068, 0.1};
Point(p16 + 33) = {14.84801888243717, -0.6365751181270789, 0.1};
Point(p16 + 34) = {15.02489862259145, -0.5281830739545512, 0.1};
Point(p16 + 35) = {15.18264442818458, -0.3934554281845833, 0.1};
Point(p16 + 36) = {15.31737207395455, -0.2357096225914523, 0.1};
Point(p16 + 37) = {15.42576411812708, -0.05882988243717513, 0.1};
Point(p16 + 38) = {15.50515158884207, 0.1328284260454486, 0.1};
Point(p16 + 39) = {15.55357970309861, 0.3345460392241185, 0.1};
Spline(16) = {11, p16 + 1, p16 + 2, p16 + 3, p16 + 4, p16 + 5, p16 + 6, p16 + 7, p16 + 8, p16 + 9, p16 + 10, p16 + 11, p16 + 12, p16 + 13, p16 + 14, p16 + 15, p16 + 16, p16 + 17, p16 + 18, p16 + 19, p16 + 20, p16 + 21, p16 + 22, p16 + 23, p16 + 24, p16 + 25, p16 + 26, p16 + 27, p16 + 28, p16 + 29, p16 + 30, p16 + 31, p16 + 32, p16 + 33, p16 + 34, p16 + 35, p16 + 36, p16 + 37, p16 + 38, p16 + 39, 11};
Line(17) = {12, 11};
p18 = newp;
Point(p18 + 1) = {15.55357970309861, 0.748165960775881, 0};
Point(p18 + 2) = {15.50515158884207, 0.949883573954551, 0};
Point(p18 + 3) = {15.42576411812708, 1.141541882437175, 0};
Point(p18 + 4) = {15.31737207395455, 1.318421622591452, 0};
Point(p18 + 5) = {15.18264442818458, 1.476167428184583, 0};
Point(p18 + 6) = {15.02489862259145, 1.610895073954551, 0};
Point(p18 + 7) = {14.84801888243718, 1.719287118127078, 0};
Point(p18 + 8) = {14.65636057395455, 1.798674588842068, 0};
Point(p18 + 9) = {14.45464296077588, 1.847102703098606, 0};
Point(p18 + 10) = {14.247833, 1.863379, 0};
Point(p18 + 11) = {14.04102303922412, 1.847102703098606, 0};
Point(p18 + 12) = {13.83930542604545, 1.798674588842068, 0};
Point(p18 + 13) = {13.64764711756282, 1.719287118127079, 0};
Point(p18 + 14) = {13.47076737740855, 1.610895073954551, 0};
Point(p18 + 15) = {13.31302157181542, 1.476167428184583, 0};
Point(p18 + 16) = {13.17829392604545, 1.318421622591452, 0};
Point(p18 + 17) = {13.06990188187292, 1.141541882437175, 0};
Point(p18 + 18) = {12.99051441115793, 0.9498835739545511, 0};
Point(p18 + 19) = {12.94208629690139, 0.7481659607758813, 0};
Point(p18 + 20) = {12.92581, 0.5413560000000001, 0};
Point(p18 + 21) = {12.94208629690139, 0.334546039224119, 0};
Point(p18 + 22) = {12.99051441115793, 0.1328284260454484, 0};
Point(p18 + 23) = {13.06990188187292, -0.05882988243717424, 0};
Point(p18 + 24) = {13.17829392604545, -0.2357096225914521, 0};
Point(p18 + 25) = {13.31302157181542, -0.393455428184583, 0};
Point(p18 + 26) = {13.47076737740855, -0.528183073954551, 0};
Point(p18 + 27) = {13.64764711756282, -0.6365751181270785, 0};
Point(p18 + 28) = {13.83930542604545, -0.7159625888420678, 0};
Point(p18 + 29) = {14.04102303922412, -0.7643907030986057, 0};
Point(p18 + 30) = {14.247833, -0.780667, 0};
Point(p18 + 31) = {14.45464296077588, -0.7643907030986059, 0};
Point(p18 + 32) = {14.65636057395455, -0.715962588842068, 0};
Point(p18 + 33) = {14.84801888243717, -0.6365751181270789, 0};
Point(p18 + 34) = {15.02489862259145, -0.5281830739545512, 0};
Point(p18 + 35) = {15.18264442818458, -0.3934554281845833, 0};
Point(p18 + 36) = {15.31737207395455, -0.2357096225914523, 0};
Point(p18 + 37) = {15.42576411812708, -0.05882988243717513, 0};
Point(p18 + 38) = {15.50515158884207, 0.1328284260454486, 0};
Point(p18 + 39) = {15.55357970309861, 0.3345460392241185, 0};
Spline(18) = {12, p18 + 1, p18 + 2, p18 + 3, p18 + 4, p18 + 5, p18 + 6, p18 + 7, p18 + 8, p18 + 9, p18 + 10, p18 + 11, p18 + 12, p18 + 13, p18 + 14, p18 + 15, p18 + 16, p18 + 17, p18 + 18, p18 + 19, p18 + 20, p18 + 21, p18 + 22, p18 + 23, p18 + 24, p18 + 25, p18 + 26, p18 + 27, p18 + 28, p18 + 29, p18 + 30, p18 + 31, p18 + 32, p18 + 33, p18 + 34, p18 + 35, p18 + 36, p18 + 37, p18 + 38, p18 + 39, 12};
Line(19) = {14, 13};
Line(20) = {13, 15};
Line(21) = {16, 15};
Line(22) = {14, 16};
Line(23) = {14, 17};
Line(24) = {17, 18};
Line(25) = {13, 18};
Line(26) = {15, 19};
Line(27) = {18, 19};
Line(28) = {16, 20};
Line(29) = {20, 19};
Line(30) = {17, 20};
Curve Loop(7) = {-13, -14, 15, 14};
Surface(7) = {7};
Curve Loop(8) = {13};
Plane Surface(8) = {8};
Curve Loop(9) = {15};
Plane Surface(9) = {9};
Curve Loop(10) = {-16, -17, 18, 17};
Surface(10) = {10};
Curve Loop(11) = {16};
Plane Surface(11) = {11};
Curve Loop(12) = {18};
Plane Surface(12) = {12};
Curve Loop(13) = {-19, 22, 21, -20};
Plane Surface(13) = {13};
Curve Loop(14) = {-23, 19, 25, -24};
Plane Surface(14) = {14};
Curve Loop(15) = {-20, 25, 27, -26};
Plane Surface(15) = {15};
Curve Loop(16) = {-28, 21, 26, -29};
Plane Surface(16) = {16};
Curve Loop(17) = {-22, 23, 30, -28, -15, -18};
Plane Surface(17) = {17};
Curve Loop(18) = {-24, 30, 29, -27};
Plane Surface(18) = {18};
Surface Loop(1) = {13, 14, 15, 16, 17, 18, 7, 10, 8, 11};
Volume(1) = {1};
Surface Loop(2) = {7, 8, 9};
Volume(2) = {2};
Surface Loop(3) = {10, 11, 12};
Volume(3) = {3};
Physical Surface("WALLS") = {13, 18};
Physical Surface("LOAD") = {8, 11};
Physical Surface("BORDER") = {7, 9, 10, 12, 14, 15, 16, 17};
Physical Volume("SOLID") = {1, 2, 3};
