cl__1 = 0.125999;
cl__2 = 0.142767;
cl__3 = 0.849764;
cl__4 = 0.930976;
cl__5 = 1.397613;
cl__6 = 1.335385;
Point(9) = {27.01064, 1.101903, 0.1, cl__1};
Point(10) = {27.01064, 1.101903, 0, cl__1};
Point(11) = {8.357151999999999, 0.4324679999999997, 0.1, cl__2};
Point(12) = {8.357151999999999, 0.4324679999999997, 0, cl__2};
Point(13) = {0.323274, -3.423061, 1, cl__3};
Point(14) = {0.323274, -3.423061, 0, cl__3};
Point(15) = {0.323274, 5.363429999999999, 1, cl__4};
Point(16) = {0.323274, 5.363429999999999, 0, cl__4};
Point(17) = {34.041751, -3.423061, 0, cl__5};
Point(18) = {34.041751, -3.423061, 1, cl__5};
Point(19) = {34.041751, 5.363429999999999, 1, cl__6};
Point(20) = {34.041751, 5.363429999999999, 0, cl__6};
p13 = newp;
Point(p13 + 1) = {26.99512741995481, 1.299009018040506, 0.1};
Point(p13 + 2) = {26.94897165102325, 1.491261631759484, 0.1};
Point(p13 + 3) = {26.87330920141862, 1.673926943757331, 0.1};
Point(p13 + 4) = {26.77000313175948, 1.842507127821245, 0.1};
Point(p13 + 5) = {26.64159718033402, 1.992851180334019, 0.1};
Point(p13 + 6) = {26.49125312782125, 2.121257131759484, 0.1};
Point(p13 + 7) = {26.32267294375733, 2.224563201418626, 0.1};
Point(p13 + 8) = {26.14000763175948, 2.300225651023247, 0.1};
Point(p13 + 9) = {25.9477550180405, 2.346381419954808, 0.1};
Point(p13 + 10) = {25.750649, 2.361894, 0.1};
Point(p13 + 11) = {25.5535429819595, 2.346381419954808, 0.1};
Point(p13 + 12) = {25.36129036824051, 2.300225651023247, 0.1};
Point(p13 + 13) = {25.17862505624267, 2.224563201418626, 0.1};
Point(p13 + 14) = {25.01004487217875, 2.121257131759485, 0.1};
Point(p13 + 15) = {24.85970081966598, 1.992851180334019, 0.1};
Point(p13 + 16) = {24.73129486824051, 1.842507127821246, 0.1};
Point(p13 + 17) = {24.62798879858137, 1.673926943757332, 0.1};
Point(p13 + 18) = {24.55232634897675, 1.491261631759484, 0.1};
Point(p13 + 19) = {24.50617058004519, 1.299009018040506, 0.1};
Point(p13 + 20) = {24.490658, 1.101903, 0.1};
Point(p13 + 21) = {24.50617058004519, 0.9047969819594947, 0.1};
Point(p13 + 22) = {24.55232634897675, 0.7125443682405153, 0.1};
Point(p13 + 23) = {24.62798879858137, 0.5298790562426694, 0.1};
Point(p13 + 24) = {24.73129486824051, 0.3612988721787547, 0.1};
Point(p13 + 25) = {24.85970081966598, 0.2109548196659808, 0.1};
Point(p13 + 26) = {25.01004487217875, 0.08254886824051577, 0.1};
Point(p13 + 27) = {25.17862505624267, -0.02075720141862569, 0.1};
Point(p13 + 28) = {25.36129036824051, -0.0964196510232469, 0.1};
Point(p13 + 29) = {25.55354298195949, -0.1425754199548082, 0.1};
Point(p13 + 30) = {25.750649, -0.158088, 0.1};
Point(p13 + 31) = {25.9477550180405, -0.1425754199548082, 0.1};
Point(p13 + 32) = {26.14000763175948, -0.0964196510232469, 0.1};
Point(p13 + 33) = {26.32267294375733, -0.02075720141862591, 0.1};
Point(p13 + 34) = {26.49125312782125, 0.08254886824051555, 0.1};
Point(p13 + 35) = {26.64159718033402, 0.2109548196659806, 0.1};
Point(p13 + 36) = {26.77000313175948, 0.3612988721787543, 0.1};
Point(p13 + 37) = {26.87330920141862, 0.5298790562426685, 0.1};
Point(p13 + 38) = {26.94897165102325, 0.7125443682405155, 0.1};
Point(p13 + 39) = {26.99512741995481, 0.9047969819594942, 0.1};
Spline(13) = {9, p13 + 1, p13 + 2, p13 + 3, p13 + 4, p13 + 5, p13 + 6, p13 + 7, p13 + 8, p13 + 9, p13 + 10, p13 + 11, p13 + 12, p13 + 13, p13 + 14, p13 + 15, p13 + 16, p13 + 17, p13 + 18, p13 + 19, p13 + 20, p13 + 21, p13 + 22, p13 + 23, p13 + 24, p13 + 25, p13 + 26, p13 + 27, p13 + 28, p13 + 29, p13 + 30, p13 + 31, p13 + 32, p13 + 33, p13 + 34, p13 + 35, p13 + 36, p13 + 37, p13 + 38, p13 + 39, 9};
Line(14) = {10, 9};
p15 = newp;
Point(p15 + 1) = {26.99512741995481, 1.299009018040506, 0};
Point(p15 + 2) = {26.94897165102325, 1.491261631759484, 0};
Point(p15 + 3) = {26.87330920141862, 1.673926943757331, 0};
Point(p15 + 4) = {26.77000313175948, 1.842507127821245, 0};
Point(p15 + 5) = {26.64159718033402, 1.992851180334019, 0};
Point(p15 + 6) = {26.49125312782125, 2.121257131759484, 0};
Point(p15 + 7) = {26.32267294375733, 2.224563201418626, 0};
Point(p15 + 8) = {26.14000763175948, 2.300225651023247, 0};
Point(p15 + 9) = {25.9477550180405, 2.346381419954808, 0};
Point(p15 + 10) = {25.750649, 2.361894, 0};
Point(p15 + 11) = {25.5535429819595, 2.346381419954808, 0};
Point(p15 + 12) = {25.36129036824051, 2.300225651023247, 0};
Point(p15 + 13) = {25.17862505624267, 2.224563201418626, 0};
Point(p15 + 14) = {25.01004487217875, 2.121257131759485, 0};
Point(p15 + 15) = {24.85970081966598, 1.992851180334019, 0};
Point(p15 + 16) = {24.73129486824051, 1.842507127821246, 0};
Point(p15 + 17) = {24.62798879858137, 1.673926943757332, 0};
Point(p15 + 18) = {24.55232634897675, 1.491261631759484, 0};
Point(p15 + 19) = {24.50617058004519, 1.299009018040506, 0};
Point(p15 + 20) = {24.490658, 1.101903, 0};
Point(p15 + 21) = {24.50617058004519, 0.9047969819594947, 0};
Point(p15 + 22) = {24.55232634897675, 0.7125443682405153, 0};
Point(p15 + 23) = {24.62798879858137, 0.5298790562426694, 0};
Point(p15 + 24) = {24.73129486824051, 0.3612988721787547, 0};
Point(p15 + 25) = {24.85970081966598, 0.2109548196659808, 0};
Point(p15 + 26) = {25.01004487217875, 0.08254886824051577, 0};
Point(p15 + 27) = {25.17862505624267, -0.02075720141862569, 0};
Point(p15 + 28) = {25.36129036824051, -0.0964196510232469, 0};
Point(p15 + 29) = {25.55354298195949, -0.1425754199548082, 0};
Point(p15 + 30) = {25.750649, -0.158088, 0};
Point(p15 + 31) = {25.9477550180405, -0.1425754199548082, 0};
Point(p15 + 32) = {26.14000763175948, -0.0964196510232469, 0};
Point(p15 + 33) = {26.32267294375733, -0.02075720141862591, 0};
Point(p15 + 34) = {26.49125312782125, 0.08254886824051555, 0};
Point(p15 + 35) = {26.64159718033402, 0.2109548196659806, 0};
Point(p15 + 36) = {26.77000313175948, 0.3612988721787543, 0};
Point(p15 + 37) = {26.87330920141862, 0.5298790562426685, 0};
Point(p15 + 38) = {26.94897165102325, 0.7125443682405155, 0};
Point(p15 + 39) = {26.99512741995481, 0.9047969819594942, 0};
Spline(15) = {10, p15 + 1, p15 + 2, p15 + 3, p15 + 4, p15 + 5, p15 + 6, p15 + 7, p15 + 8, p15 + 9, p15 + 10, p15 + 11, p15 + 12, p15 + 13, p15 + 14, p15 + 15, p15 + 16, p15 + 17, p15 + 18, p15 + 19, p15 + 20, p15 + 21, p15 + 22, p15 + 23, p15 + 24, p15 + 25, p15 + 26, p15 + 27, p15 + 28, p15 + 29, p15 + 30, p15 + 31, p15 + 32, p15 + 33, p15 + 34, p15 + 35, p15 + 36, p15 + 37, p15 + 38, p15 + 39, 10};
p16 = newp;
Point(p16 + 1) = {8.339574976282481, 0.6558052620073815, 0.1};
Point(p16 + 2) = {8.287276709788649, 0.8736432194102643, 0.1};
Point(p16 + 3) = {8.201544957407579, 1.080617978734658, 0.1};
Point(p16 + 4) = {8.084490719410264, 1.271633134496152, 0.1};
Point(p16 + 5) = {7.938996259616942, 1.441985259616942, 0.1};
Point(p16 + 6) = {7.768644134496152, 1.587479719410264, 0.1};
Point(p16 + 7) = {7.577628978734658, 1.70453395740758, 0.1};
Point(p16 + 8) = {7.370654219410264, 1.790265709788651, 0.1};
Point(p16 + 9) = {7.152816262007382, 1.842563976282482, 0.1};
Point(p16 + 10) = {6.929479, 1.860141, 0.1};
Point(p16 + 11) = {6.706141737992618, 1.842563976282482, 0.1};
Point(p16 + 12) = {6.488303780589735, 1.790265709788651, 0.1};
Point(p16 + 13) = {6.281329021265342, 1.70453395740758, 0.1};
Point(p16 + 14) = {6.090313865503848, 1.587479719410264, 0.1};
Point(p16 + 15) = {5.919961740383058, 1.441985259616942, 0.1};
Point(p16 + 16) = {5.774467280589736, 1.271633134496152, 0.1};
Point(p16 + 17) = {5.65741304259242, 1.080617978734658, 0.1};
Point(p16 + 18) = {5.571681290211349, 0.8736432194102645, 0.1};
Point(p16 + 19) = {5.519383023717518, 0.6558052620073818, 0.1};
Point(p16 + 20) = {5.501806, 0.4324680000000002, 0.1};
Point(p16 + 21) = {5.519383023717518, 0.2091307379926187, 0.1};
Point(p16 + 22) = {5.571681290211349, -0.008707219410264699, 0.1};
Point(p16 + 23) = {5.657413042592419, -0.2156819787346573, 0.1};
Point(p16 + 24) = {5.774467280589736, -0.4066971344961518, 0.1};
Point(p16 + 25) = {5.919961740383058, -0.5770492596169416, 0.1};
Point(p16 + 26) = {6.090313865503847, -0.7225437194102642, 0.1};
Point(p16 + 27) = {6.281329021265342, -0.8395979574075796, 0.1};
Point(p16 + 28) = {6.488303780589735, -0.9253297097886506, 0.1};
Point(p16 + 29) = {6.706141737992618, -0.9776279762824818, 0.1};
Point(p16 + 30) = {6.929479, -0.9952049999999999, 0.1};
Point(p16 + 31) = {7.152816262007381, -0.977627976282482, 0.1};
Point(p16 + 32) = {7.370654219410264, -0.9253297097886508, 0.1};
Point(p16 + 33) = {7.577628978734658, -0.8395979574075798, 0.1};
Point(p16 + 34) = {7.768644134496151, -0.7225437194102644, 0.1};
Point(p16 + 35) = {7.938996259616942, -0.5770492596169421, 0.1};
Point(p16 + 36) = {8.084490719410264, -0.4066971344961521, 0.1};
Point(p16 + 37) = {8.201544957407579, -0.2156819787346582, 0.1};
Point(p16 + 38) = {8.287276709788649, -0.008707219410264588, 0.1};
Point(p16 + 39) = {8.339574976282481, 0.2091307379926181, 0.1};
Spline(16) = {11, p16 + 1, p16 + 2, p16 + 3, p16 + 4, p16 + 5, p16 + 6, p16 + 7, p16 + 8, p16 + 9, p16 + 10, p16 + 11, p16 + 12, p16 + 13, p16 + 14, p16 + 15, p16 + 16, p16 + 17, p16 + 18, p16 + 19, p16 + 20, p16 + 21, p16 + 22, p16 + 23, p16 + 24, p16 + 25, p16 + 26, p16 + 27, p16 + 28, p16 + 29, p16 + 30, p16 + 31, p16 + 32, p16 + 33, p16 + 34, p16 + 35, p16 + 36, p16 + 37, p16 + 38, p16 + 39, 11};
Line(17) = {12, 11};
p18 = newp;
Point(p18 + 1) = {8.339574976282481, 0.6558052620073815, 0};
Point(p18 + 2) = {8.287276709788649, 0.8736432194102643, 0};
Point(p18 + 3) = {8.201544957407579, 1.080617978734658, 0};
Point(p18 + 4) = {8.084490719410264, 1.271633134496152, 0};
Point(p18 + 5) = {7.938996259616942, 1.441985259616942, 0};
Point(p18 + 6) = {7.768644134496152, 1.587479719410264, 0};
Point(p18 + 7) = {7.577628978734658, 1.70453395740758, 0};
Point(p18 + 8) = {7.370654219410264, 1.790265709788651, 0};
Point(p18 + 9) = {7.152816262007382, 1.842563976282482, 0};
Point(p18 + 10) = {6.929479, 1.860141, 0};
Point(p18 + 11) = {6.706141737992618, 1.842563976282482, 0};
Point(p18 + 12) = {6.488303780589735, 1.790265709788651, 0};
Point(p18 + 13) = {6.281329021265342, 1.70453395740758, 0};
Point(p18 + 14) = {6.090313865503848, 1.587479719410264, 0};
Point(p18 + 15) = {5.919961740383058, 1.441985259616942, 0};
Point(p18 + 16) = {5.774467280589736, 1.271633134496152, 0};
Point(p18 + 17) = {5.65741304259242, 1.080617978734658, 0};
Point(p18 + 18) = {5.571681290211349, 0.8736432194102645, 0};
Point(p18 + 19) = {5.519383023717518, 0.6558052620073818, 0};
Point(p18 + 20) = {5.501806, 0.4324680000000002, 0};
Point(p18 + 21) = {5.519383023717518, 0.2091307379926187, 0};
Point(p18 + 22) = {5.571681290211349, -0.008707219410264699, 0};
Point(p18 + 23) = {5.657413042592419, -0.2156819787346573, 0};
Point(p18 + 24) = {5.774467280589736, -0.4066971344961518, 0};
Point(p18 + 25) = {5.919961740383058, -0.5770492596169416, 0};
Point(p18 + 26) = {6.090313865503847, -0.7225437194102642, 0};
Point(p18 + 27) = {6.281329021265342, -0.8395979574075796, 0};
Point(p18 + 28) = {6.488303780589735, -0.9253297097886506, 0};
Point(p18 + 29) = {6.706141737992618, -0.9776279762824818, 0};
Point(p18 + 30) = {6.929479, -0.9952049999999999, 0};
Point(p18 + 31) = {7.152816262007381, -0.977627976282482, 0};
Point(p18 + 32) = {7.370654219410264, -0.9253297097886508, 0};
Point(p18 + 33) = {7.577628978734658, -0.8395979574075798, 0};
Point(p18 + 34) = {7.768644134496151, -0.7225437194102644, 0};
Point(p18 + 35) = {7.938996259616942, -0.5770492596169421, 0};
Point(p18 + 36) = {8.084490719410264, -0.4066971344961521, 0};
Point(p18 + 37) = {8.201544957407579, -0.2156819787346582, 0};
Point(p18 + 38) = {8.287276709788649, -0.008707219410264588, 0};
Point(p18 + 39) = {8.339574976282481, 0.2091307379926181, 0};
Spline(18) = {12, p18 + 1, p18 + 2, p18 + 3, p18 + 4, p18 + 5, p18 + 6, p18 + 7, p18 + 8, p18 + 9, p18 + 10, p18 + 11, p18 + 12, p18 + 13, p18 + 14, p18 + 15, p18 + 16, p18 + 17, p18 + 18, p18 + 19, p18 + 20, p18 + 21, p18 + 22, p18 + 23, p18 + 24, p18 + 25, p18 + 26, p18 + 27, p18 + 28, p18 + 29, p18 + 30, p18 + 31, p18 + 32, p18 + 33, p18 + 34, p18 + 35, p18 + 36, p18 + 37, p18 + 38, p18 + 39, 12};
Line(19) = {14, 13};
Line(20) = {13, 15};
Line(21) = {16, 15};
Line(22) = {14, 16};
Line(23) = {14, 17};
Line(24) = {17, 18};
Line(25) = {13, 18};
Line(26) = {15, 19};
Line(27) = {18, 19};
Line(28) = {16, 20};
Line(29) = {20, 19};
Line(30) = {17, 20};
Curve Loop(7) = {-13, -14, 15, 14};
Surface(7) = {7};
Curve Loop(8) = {13};
Plane Surface(8) = {8};
Curve Loop(9) = {15};
Plane Surface(9) = {9};
Curve Loop(10) = {-16, -17, 18, 17};
Surface(10) = {10};
Curve Loop(11) = {16};
Plane Surface(11) = {11};
Curve Loop(12) = {18};
Plane Surface(12) = {12};
Curve Loop(13) = {-19, 22, 21, -20};
Plane Surface(13) = {13};
Curve Loop(14) = {-23, 19, 25, -24};
Plane Surface(14) = {14};
Curve Loop(15) = {-20, 25, 27, -26};
Plane Surface(15) = {15};
Curve Loop(16) = {-28, 21, 26, -29};
Plane Surface(16) = {16};
Curve Loop(17) = {-22, 23, 30, -28, -18, -15};
Plane Surface(17) = {17};
Curve Loop(18) = {-24, 30, 29, -27};
Plane Surface(18) = {18};
Surface Loop(1) = {13, 14, 15, 16, 17, 18, 10, 7, 11, 8};
Volume(1) = {1};
Surface Loop(2) = {7, 8, 9};
Volume(2) = {2};
Surface Loop(3) = {10, 11, 12};
Volume(3) = {3};
Physical Surface("WALLS") = {13, 18};
Physical Surface("LOAD") = {8, 11};
Physical Surface("BORDER") = {7, 9, 10, 12, 14, 15, 16, 17};
Physical Volume("SOLID") = {1, 2, 3};
