cl__1 = 0.057707;
cl__2 = 0.09996099999999999;
cl__3 = 1.576545;
cl__4 = 1.912581;
cl__5 = 0.790529;
cl__6 = 0.804318;
Point(9) = {23.884148, 0.5871269999999997, 0.1, cl__1};
Point(10) = {23.884148, 0.5871269999999997, 0, cl__1};
Point(11) = {15.893593, -1.071406000000001, 0.1, cl__2};
Point(12) = {15.893593, -1.071406000000001, 0, cl__2};
Point(13) = {0.029356, -3.022732, 0.1, cl__3};
Point(14) = {0.029356, -3.022732, 0, cl__3};
Point(15) = {0.029356, 4.636948, 0.1, cl__4};
Point(16) = {0.029356, 4.636948, 0, cl__4};
Point(17) = {32.719806, -3.022732, 0, cl__5};
Point(18) = {32.719806, -3.022732, 0.1, cl__5};
Point(19) = {32.719806, 4.636948, 0.1, cl__6};
Point(20) = {32.719806, 4.636948, 0, cl__6};
p13 = newp;
Point(p13 + 1) = {23.87704331070724, 0.677400636740766, 0.1};
Point(p13 + 2) = {23.85590418385845, 0.7654514369439509, 0.1};
Point(p13 + 3) = {23.82125113491338, 0.8491112976847002, 0.1};
Point(p13 + 4) = {23.77393743694395, 0.9263202355404174, 0.1};
Point(p13 + 5) = {23.71512811021932, 0.9951771102193209, 0.1};
Point(p13 + 6) = {23.64627123554042, 1.053986436943951, 0.1};
Point(p13 + 7) = {23.5690622976847, 1.101300134913381, 0.1};
Point(p13 + 8) = {23.48540243694395, 1.135953183858444, 0.1};
Point(p13 + 9) = {23.39735163674077, 1.157092310707236, 0.1};
Point(p13 + 10) = {23.307078, 1.164197, 0.1};
Point(p13 + 11) = {23.21680436325924, 1.157092310707236, 0.1};
Point(p13 + 12) = {23.12875356305605, 1.135953183858444, 0.1};
Point(p13 + 13) = {23.0450937023153, 1.101300134913382, 0.1};
Point(p13 + 14) = {22.96788476445958, 1.053986436943951, 0.1};
Point(p13 + 15) = {22.89902788978068, 0.995177110219321, 0.1};
Point(p13 + 16) = {22.84021856305605, 0.9263202355404174, 0.1};
Point(p13 + 17) = {22.79290486508662, 0.8491112976847002, 0.1};
Point(p13 + 18) = {22.75825181614156, 0.7654514369439509, 0.1};
Point(p13 + 19) = {22.73711268929276, 0.677400636740766, 0.1};
Point(p13 + 20) = {22.730008, 0.5871270000000001, 0.1};
Point(p13 + 21) = {22.73711268929276, 0.496853363259234, 0.1};
Point(p13 + 22) = {22.75825181614156, 0.4088025630560489, 0.1};
Point(p13 + 23) = {22.79290486508662, 0.3251427023153, 0.1};
Point(p13 + 24) = {22.84021856305605, 0.2479337644595825, 0.1};
Point(p13 + 25) = {22.89902788978068, 0.179076889780679, 0.1};
Point(p13 + 26) = {22.96788476445958, 0.1202675630560491, 0.1};
Point(p13 + 27) = {23.0450937023153, 0.07295386508661861, 0.1};
Point(p13 + 28) = {23.12875356305605, 0.03830081614155578, 0.1};
Point(p13 + 29) = {23.21680436325924, 0.01716168929276385, 0.1};
Point(p13 + 30) = {23.307078, 0.01005699999999998, 0.1};
Point(p13 + 31) = {23.39735163674077, 0.01716168929276385, 0.1};
Point(p13 + 32) = {23.48540243694395, 0.03830081614155567, 0.1};
Point(p13 + 33) = {23.5690622976847, 0.0729538650866185, 0.1};
Point(p13 + 34) = {23.64627123554042, 0.120267563056049, 0.1};
Point(p13 + 35) = {23.71512811021932, 0.1790768897806789, 0.1};
Point(p13 + 36) = {23.77393743694395, 0.2479337644595824, 0.1};
Point(p13 + 37) = {23.82125113491338, 0.3251427023152996, 0.1};
Point(p13 + 38) = {23.85590418385845, 0.408802563056049, 0.1};
Point(p13 + 39) = {23.87704331070724, 0.4968533632592338, 0.1};
Spline(13) = {9, p13 + 1, p13 + 2, p13 + 3, p13 + 4, p13 + 5, p13 + 6, p13 + 7, p13 + 8, p13 + 9, p13 + 10, p13 + 11, p13 + 12, p13 + 13, p13 + 14, p13 + 15, p13 + 16, p13 + 17, p13 + 18, p13 + 19, p13 + 20, p13 + 21, p13 + 22, p13 + 23, p13 + 24, p13 + 25, p13 + 26, p13 + 27, p13 + 28, p13 + 29, p13 + 30, p13 + 31, p13 + 32, p13 + 33, p13 + 34, p13 + 35, p13 + 36, p13 + 37, p13 + 38, p13 + 39, 9};
Line(14) = {10, 9};
p15 = newp;
Point(p15 + 1) = {23.87704331070724, 0.677400636740766, 0};
Point(p15 + 2) = {23.85590418385845, 0.7654514369439509, 0};
Point(p15 + 3) = {23.82125113491338, 0.8491112976847002, 0};
Point(p15 + 4) = {23.77393743694395, 0.9263202355404174, 0};
Point(p15 + 5) = {23.71512811021932, 0.9951771102193209, 0};
Point(p15 + 6) = {23.64627123554042, 1.053986436943951, 0};
Point(p15 + 7) = {23.5690622976847, 1.101300134913381, 0};
Point(p15 + 8) = {23.48540243694395, 1.135953183858444, 0};
Point(p15 + 9) = {23.39735163674077, 1.157092310707236, 0};
Point(p15 + 10) = {23.307078, 1.164197, 0};
Point(p15 + 11) = {23.21680436325924, 1.157092310707236, 0};
Point(p15 + 12) = {23.12875356305605, 1.135953183858444, 0};
Point(p15 + 13) = {23.0450937023153, 1.101300134913382, 0};
Point(p15 + 14) = {22.96788476445958, 1.053986436943951, 0};
Point(p15 + 15) = {22.89902788978068, 0.995177110219321, 0};
Point(p15 + 16) = {22.84021856305605, 0.9263202355404174, 0};
Point(p15 + 17) = {22.79290486508662, 0.8491112976847002, 0};
Point(p15 + 18) = {22.75825181614156, 0.7654514369439509, 0};
Point(p15 + 19) = {22.73711268929276, 0.677400636740766, 0};
Point(p15 + 20) = {22.730008, 0.5871270000000001, 0};
Point(p15 + 21) = {22.73711268929276, 0.496853363259234, 0};
Point(p15 + 22) = {22.75825181614156, 0.4088025630560489, 0};
Point(p15 + 23) = {22.79290486508662, 0.3251427023153, 0};
Point(p15 + 24) = {22.84021856305605, 0.2479337644595825, 0};
Point(p15 + 25) = {22.89902788978068, 0.179076889780679, 0};
Point(p15 + 26) = {22.96788476445958, 0.1202675630560491, 0};
Point(p15 + 27) = {23.0450937023153, 0.07295386508661861, 0};
Point(p15 + 28) = {23.12875356305605, 0.03830081614155578, 0};
Point(p15 + 29) = {23.21680436325924, 0.01716168929276385, 0};
Point(p15 + 30) = {23.307078, 0.01005699999999998, 0};
Point(p15 + 31) = {23.39735163674077, 0.01716168929276385, 0};
Point(p15 + 32) = {23.48540243694395, 0.03830081614155567, 0};
Point(p15 + 33) = {23.5690622976847, 0.0729538650866185, 0};
Point(p15 + 34) = {23.64627123554042, 0.120267563056049, 0};
Point(p15 + 35) = {23.71512811021932, 0.1790768897806789, 0};
Point(p15 + 36) = {23.77393743694395, 0.2479337644595824, 0};
Point(p15 + 37) = {23.82125113491338, 0.3251427023152996, 0};
Point(p15 + 38) = {23.85590418385845, 0.408802563056049, 0};
Point(p15 + 39) = {23.87704331070724, 0.4968533632592338, 0};
Spline(15) = {10, p15 + 1, p15 + 2, p15 + 3, p15 + 4, p15 + 5, p15 + 6, p15 + 7, p15 + 8, p15 + 9, p15 + 10, p15 + 11, p15 + 12, p15 + 13, p15 + 14, p15 + 15, p15 + 16, p15 + 17, p15 + 18, p15 + 19, p15 + 20, p15 + 21, p15 + 22, p15 + 23, p15 + 24, p15 + 25, p15 + 26, p15 + 27, p15 + 28, p15 + 29, p15 + 30, p15 + 31, p15 + 32, p15 + 33, p15 + 34, p15 + 35, p15 + 36, p15 + 37, p15 + 38, p15 + 39, 10};
p16 = newp;
Point(p16 + 1) = {15.88128614214231, -0.9150325444011349, 0.1};
Point(p16 + 2) = {15.8446686042538, -0.7625095222528588, 0.1};
Point(p16 + 3) = {15.78464203164394, -0.6175925565553517, 0.1};
Point(p16 + 4) = {15.70268447774714, -0.483849983955921, 0.1};
Point(p16 + 5) = {15.60081400954189, -0.3645749904581154, 0.1};
Point(p16 + 6) = {15.48153901604408, -0.262704522252859, 0.1};
Point(p16 + 7) = {15.34779644344465, -0.1807469683560657, 0.1};
Point(p16 + 8) = {15.20287947774714, -0.1207203957462016, 0.1};
Point(p16 + 9) = {15.05035645559887, -0.08410285785769445, 0.1};
Point(p16 + 10) = {14.893983, -0.07179600000000008, 0.1};
Point(p16 + 11) = {14.73760954440113, -0.08410285785769456, 0.1};
Point(p16 + 12) = {14.58508652225286, -0.1207203957462015, 0.1};
Point(p16 + 13) = {14.44016955655535, -0.1807469683560656, 0.1};
Point(p16 + 14) = {14.30642698395592, -0.2627045222528589, 0.1};
Point(p16 + 15) = {14.18715199045812, -0.3645749904581153, 0.1};
Point(p16 + 16) = {14.08528152225286, -0.4838499839559209, 0.1};
Point(p16 + 17) = {14.00332396835607, -0.6175925565553517, 0.1};
Point(p16 + 18) = {13.9432973957462, -0.7625095222528588, 0.1};
Point(p16 + 19) = {13.90667985785769, -0.9150325444011348, 0.1};
Point(p16 + 20) = {13.894373, -1.071406, 0.1};
Point(p16 + 21) = {13.90667985785769, -1.227779455598865, 0.1};
Point(p16 + 22) = {13.9432973957462, -1.380302477747142, 0.1};
Point(p16 + 23) = {14.00332396835607, -1.525219443444648, 0.1};
Point(p16 + 24) = {14.08528152225286, -1.658962016044079, 0.1};
Point(p16 + 25) = {14.18715199045812, -1.778237009541885, 0.1};
Point(p16 + 26) = {14.30642698395592, -1.880107477747141, 0.1};
Point(p16 + 27) = {14.44016955655535, -1.962065031643935, 0.1};
Point(p16 + 28) = {14.58508652225286, -2.022091604253799, 0.1};
Point(p16 + 29) = {14.73760954440113, -2.058709142142305, 0.1};
Point(p16 + 30) = {14.893983, -2.071016, 0.1};
Point(p16 + 31) = {15.05035645559887, -2.058709142142306, 0.1};
Point(p16 + 32) = {15.20287947774714, -2.022091604253799, 0.1};
Point(p16 + 33) = {15.34779644344465, -1.962065031643935, 0.1};
Point(p16 + 34) = {15.48153901604408, -1.880107477747141, 0.1};
Point(p16 + 35) = {15.60081400954189, -1.778237009541885, 0.1};
Point(p16 + 36) = {15.70268447774714, -1.658962016044079, 0.1};
Point(p16 + 37) = {15.78464203164394, -1.525219443444649, 0.1};
Point(p16 + 38) = {15.8446686042538, -1.380302477747142, 0.1};
Point(p16 + 39) = {15.88128614214231, -1.227779455598865, 0.1};
Spline(16) = {11, p16 + 1, p16 + 2, p16 + 3, p16 + 4, p16 + 5, p16 + 6, p16 + 7, p16 + 8, p16 + 9, p16 + 10, p16 + 11, p16 + 12, p16 + 13, p16 + 14, p16 + 15, p16 + 16, p16 + 17, p16 + 18, p16 + 19, p16 + 20, p16 + 21, p16 + 22, p16 + 23, p16 + 24, p16 + 25, p16 + 26, p16 + 27, p16 + 28, p16 + 29, p16 + 30, p16 + 31, p16 + 32, p16 + 33, p16 + 34, p16 + 35, p16 + 36, p16 + 37, p16 + 38, p16 + 39, 11};
Line(17) = {12, 11};
p18 = newp;
Point(p18 + 1) = {15.88128614214231, -0.9150325444011349, 0};
Point(p18 + 2) = {15.8446686042538, -0.7625095222528588, 0};
Point(p18 + 3) = {15.78464203164394, -0.6175925565553517, 0};
Point(p18 + 4) = {15.70268447774714, -0.483849983955921, 0};
Point(p18 + 5) = {15.60081400954189, -0.3645749904581154, 0};
Point(p18 + 6) = {15.48153901604408, -0.262704522252859, 0};
Point(p18 + 7) = {15.34779644344465, -0.1807469683560657, 0};
Point(p18 + 8) = {15.20287947774714, -0.1207203957462016, 0};
Point(p18 + 9) = {15.05035645559887, -0.08410285785769445, 0};
Point(p18 + 10) = {14.893983, -0.07179600000000008, 0};
Point(p18 + 11) = {14.73760954440113, -0.08410285785769456, 0};
Point(p18 + 12) = {14.58508652225286, -0.1207203957462015, 0};
Point(p18 + 13) = {14.44016955655535, -0.1807469683560656, 0};
Point(p18 + 14) = {14.30642698395592, -0.2627045222528589, 0};
Point(p18 + 15) = {14.18715199045812, -0.3645749904581153, 0};
Point(p18 + 16) = {14.08528152225286, -0.4838499839559209, 0};
Point(p18 + 17) = {14.00332396835607, -0.6175925565553517, 0};
Point(p18 + 18) = {13.9432973957462, -0.7625095222528588, 0};
Point(p18 + 19) = {13.90667985785769, -0.9150325444011348, 0};
Point(p18 + 20) = {13.894373, -1.071406, 0};
Point(p18 + 21) = {13.90667985785769, -1.227779455598865, 0};
Point(p18 + 22) = {13.9432973957462, -1.380302477747142, 0};
Point(p18 + 23) = {14.00332396835607, -1.525219443444648, 0};
Point(p18 + 24) = {14.08528152225286, -1.658962016044079, 0};
Point(p18 + 25) = {14.18715199045812, -1.778237009541885, 0};
Point(p18 + 26) = {14.30642698395592, -1.880107477747141, 0};
Point(p18 + 27) = {14.44016955655535, -1.962065031643935, 0};
Point(p18 + 28) = {14.58508652225286, -2.022091604253799, 0};
Point(p18 + 29) = {14.73760954440113, -2.058709142142305, 0};
Point(p18 + 30) = {14.893983, -2.071016, 0};
Point(p18 + 31) = {15.05035645559887, -2.058709142142306, 0};
Point(p18 + 32) = {15.20287947774714, -2.022091604253799, 0};
Point(p18 + 33) = {15.34779644344465, -1.962065031643935, 0};
Point(p18 + 34) = {15.48153901604408, -1.880107477747141, 0};
Point(p18 + 35) = {15.60081400954189, -1.778237009541885, 0};
Point(p18 + 36) = {15.70268447774714, -1.658962016044079, 0};
Point(p18 + 37) = {15.78464203164394, -1.525219443444649, 0};
Point(p18 + 38) = {15.8446686042538, -1.380302477747142, 0};
Point(p18 + 39) = {15.88128614214231, -1.227779455598865, 0};
Spline(18) = {12, p18 + 1, p18 + 2, p18 + 3, p18 + 4, p18 + 5, p18 + 6, p18 + 7, p18 + 8, p18 + 9, p18 + 10, p18 + 11, p18 + 12, p18 + 13, p18 + 14, p18 + 15, p18 + 16, p18 + 17, p18 + 18, p18 + 19, p18 + 20, p18 + 21, p18 + 22, p18 + 23, p18 + 24, p18 + 25, p18 + 26, p18 + 27, p18 + 28, p18 + 29, p18 + 30, p18 + 31, p18 + 32, p18 + 33, p18 + 34, p18 + 35, p18 + 36, p18 + 37, p18 + 38, p18 + 39, 12};
Line(19) = {14, 13};
Line(20) = {13, 15};
Line(21) = {16, 15};
Line(22) = {14, 16};
Line(23) = {14, 17};
Line(24) = {17, 18};
Line(25) = {13, 18};
Line(26) = {15, 19};
Line(27) = {18, 19};
Line(28) = {16, 20};
Line(29) = {20, 19};
Line(30) = {17, 20};
Curve Loop(7) = {-13, -14, 15, 14};
Surface(7) = {7};
Curve Loop(8) = {13};
Plane Surface(8) = {8};
Curve Loop(9) = {15};
Plane Surface(9) = {9};
Curve Loop(10) = {-16, -17, 18, 17};
Surface(10) = {10};
Curve Loop(11) = {16};
Plane Surface(11) = {11};
Curve Loop(12) = {18};
Plane Surface(12) = {12};
Curve Loop(13) = {-19, 22, 21, -20};
Plane Surface(13) = {13};
Curve Loop(14) = {-23, 19, 25, -24};
Plane Surface(14) = {14};
Curve Loop(15) = {-20, 25, 27, -26, -16, -13};
Plane Surface(15) = {15};
Curve Loop(16) = {-28, 21, 26, -29};
Plane Surface(16) = {16};
Curve Loop(17) = {-22, 23, 30, -28, -18, -15};
Plane Surface(17) = {17};
Curve Loop(18) = {-24, 30, 29, -27};
Plane Surface(18) = {18};
Surface Loop(1) = {13, 14, 15, 16, 17, 18, 10, 7};
Volume(1) = {1};
Surface Loop(2) = {7, 8, 9};
Volume(2) = {2};
Surface Loop(3) = {10, 11, 12};
Volume(3) = {3};
Physical Surface("WALLS") = {13, 18};
Physical Surface("LOAD") = {8, 11};
Physical Surface("BORDER") = {7, 9, 10, 12, 14, 15, 16, 17};
Physical Volume("SOLID") = {1, 2, 3};
