cl__1 = 0.080064;
cl__2 = 0.093196;
cl__3 = 2.23318;
cl__4 = 2.579695;
cl__5 = 0.657793;
cl__6 = 0.6636300000000001;
Point(9) = {26.748387, 0.4802849999999998, 0.1, cl__1};
Point(10) = {26.748387, 0.4802849999999998, 0, cl__1};
Point(11) = {20.466205, -1.679141, 0.1, cl__2};
Point(12) = {20.466205, -1.679141, 0, cl__2};
Point(13) = {0.632207, -3.221697, 0.1, cl__3};
Point(14) = {0.632207, -3.221697, 0, cl__3};
Point(15) = {0.632207, 4.392015, 0.1, cl__4};
Point(16) = {0.632207, 4.392015, 0, cl__4};
Point(17) = {35.103284, -3.221697, 0, cl__5};
Point(18) = {35.103284, -3.221697, 0.1, cl__5};
Point(19) = {35.103284, 4.392015, 0.1, cl__6};
Point(20) = {35.103284, 4.392015, 0, cl__6};
p13 = newp;
Point(p13 + 1) = {26.73852981763741, 0.6055323772208804, 0.1};
Point(p13 + 2) = {26.70920098709352, 0.7276957483423692, 0.1};
Point(p13 + 3) = {26.66112268151313, 0.8437670457304712, 0.1};
Point(p13 + 4) = {26.59547874834237, 0.9508882088249411, 0.1};
Point(p13 + 5) = {26.51388555907564, 1.046421559075635, 0.1};
Point(p13 + 6) = {26.41835220882494, 1.128014748342369, 0.1};
Point(p13 + 7) = {26.31123104573047, 1.193658681513126, 0.1};
Point(p13 + 8) = {26.19515974834237, 1.241736987093519, 0.1};
Point(p13 + 9) = {26.07299637722088, 1.27106581763741, 0.1};
Point(p13 + 10) = {25.947749, 1.280923, 0.1};
Point(p13 + 11) = {25.82250162277912, 1.27106581763741, 0.1};
Point(p13 + 12) = {25.70033825165763, 1.241736987093519, 0.1};
Point(p13 + 13) = {25.58426695426953, 1.193658681513126, 0.1};
Point(p13 + 14) = {25.47714579117506, 1.128014748342369, 0.1};
Point(p13 + 15) = {25.38161244092437, 1.046421559075635, 0.1};
Point(p13 + 16) = {25.30001925165763, 0.9508882088249412, 0.1};
Point(p13 + 17) = {25.23437531848688, 0.8437670457304713, 0.1};
Point(p13 + 18) = {25.18629701290648, 0.7276957483423692, 0.1};
Point(p13 + 19) = {25.15696818236259, 0.6055323772208805, 0.1};
Point(p13 + 20) = {25.147111, 0.4802850000000001, 0.1};
Point(p13 + 21) = {25.15696818236259, 0.3550376227791198, 0.1};
Point(p13 + 22) = {25.18629701290648, 0.2328742516576306, 0.1};
Point(p13 + 23) = {25.23437531848688, 0.1168029542695291, 0.1};
Point(p13 + 24) = {25.30001925165763, 0.009681791175059018, 0.1};
Point(p13 + 25) = {25.38161244092437, -0.08585155907563496, 0.1};
Point(p13 + 26) = {25.47714579117506, -0.1674447483423691, 0.1};
Point(p13 + 27) = {25.58426695426953, -0.2330886815131264, 0.1};
Point(p13 + 28) = {25.70033825165763, -0.2811669870935191, 0.1};
Point(p13 + 29) = {25.82250162277912, -0.3104958176374098, 0.1};
Point(p13 + 30) = {25.947749, -0.3203529999999999, 0.1};
Point(p13 + 31) = {26.07299637722088, -0.3104958176374099, 0.1};
Point(p13 + 32) = {26.19515974834237, -0.2811669870935191, 0.1};
Point(p13 + 33) = {26.31123104573047, -0.2330886815131265, 0.1};
Point(p13 + 34) = {26.41835220882494, -0.1674447483423692, 0.1};
Point(p13 + 35) = {26.51388555907564, -0.08585155907563508, 0.1};
Point(p13 + 36) = {26.59547874834237, 0.009681791175058851, 0.1};
Point(p13 + 37) = {26.66112268151313, 0.1168029542695286, 0.1};
Point(p13 + 38) = {26.70920098709352, 0.2328742516576307, 0.1};
Point(p13 + 39) = {26.73852981763741, 0.3550376227791194, 0.1};
Spline(13) = {9, p13 + 1, p13 + 2, p13 + 3, p13 + 4, p13 + 5, p13 + 6, p13 + 7, p13 + 8, p13 + 9, p13 + 10, p13 + 11, p13 + 12, p13 + 13, p13 + 14, p13 + 15, p13 + 16, p13 + 17, p13 + 18, p13 + 19, p13 + 20, p13 + 21, p13 + 22, p13 + 23, p13 + 24, p13 + 25, p13 + 26, p13 + 27, p13 + 28, p13 + 29, p13 + 30, p13 + 31, p13 + 32, p13 + 33, p13 + 34, p13 + 35, p13 + 36, p13 + 37, p13 + 38, p13 + 39, 9};
Line(14) = {10, 9};
p15 = newp;
Point(p15 + 1) = {26.73852981763741, 0.6055323772208804, 0};
Point(p15 + 2) = {26.70920098709352, 0.7276957483423692, 0};
Point(p15 + 3) = {26.66112268151313, 0.8437670457304712, 0};
Point(p15 + 4) = {26.59547874834237, 0.9508882088249411, 0};
Point(p15 + 5) = {26.51388555907564, 1.046421559075635, 0};
Point(p15 + 6) = {26.41835220882494, 1.128014748342369, 0};
Point(p15 + 7) = {26.31123104573047, 1.193658681513126, 0};
Point(p15 + 8) = {26.19515974834237, 1.241736987093519, 0};
Point(p15 + 9) = {26.07299637722088, 1.27106581763741, 0};
Point(p15 + 10) = {25.947749, 1.280923, 0};
Point(p15 + 11) = {25.82250162277912, 1.27106581763741, 0};
Point(p15 + 12) = {25.70033825165763, 1.241736987093519, 0};
Point(p15 + 13) = {25.58426695426953, 1.193658681513126, 0};
Point(p15 + 14) = {25.47714579117506, 1.128014748342369, 0};
Point(p15 + 15) = {25.38161244092437, 1.046421559075635, 0};
Point(p15 + 16) = {25.30001925165763, 0.9508882088249412, 0};
Point(p15 + 17) = {25.23437531848688, 0.8437670457304713, 0};
Point(p15 + 18) = {25.18629701290648, 0.7276957483423692, 0};
Point(p15 + 19) = {25.15696818236259, 0.6055323772208805, 0};
Point(p15 + 20) = {25.147111, 0.4802850000000001, 0};
Point(p15 + 21) = {25.15696818236259, 0.3550376227791198, 0};
Point(p15 + 22) = {25.18629701290648, 0.2328742516576306, 0};
Point(p15 + 23) = {25.23437531848688, 0.1168029542695291, 0};
Point(p15 + 24) = {25.30001925165763, 0.009681791175059018, 0};
Point(p15 + 25) = {25.38161244092437, -0.08585155907563496, 0};
Point(p15 + 26) = {25.47714579117506, -0.1674447483423691, 0};
Point(p15 + 27) = {25.58426695426953, -0.2330886815131264, 0};
Point(p15 + 28) = {25.70033825165763, -0.2811669870935191, 0};
Point(p15 + 29) = {25.82250162277912, -0.3104958176374098, 0};
Point(p15 + 30) = {25.947749, -0.3203529999999999, 0};
Point(p15 + 31) = {26.07299637722088, -0.3104958176374099, 0};
Point(p15 + 32) = {26.19515974834237, -0.2811669870935191, 0};
Point(p15 + 33) = {26.31123104573047, -0.2330886815131265, 0};
Point(p15 + 34) = {26.41835220882494, -0.1674447483423692, 0};
Point(p15 + 35) = {26.51388555907564, -0.08585155907563508, 0};
Point(p15 + 36) = {26.59547874834237, 0.009681791175058851, 0};
Point(p15 + 37) = {26.66112268151313, 0.1168029542695286, 0};
Point(p15 + 38) = {26.70920098709352, 0.2328742516576307, 0};
Point(p15 + 39) = {26.73852981763741, 0.3550376227791194, 0};
Spline(15) = {10, p15 + 1, p15 + 2, p15 + 3, p15 + 4, p15 + 5, p15 + 6, p15 + 7, p15 + 8, p15 + 9, p15 + 10, p15 + 11, p15 + 12, p15 + 13, p15 + 14, p15 + 15, p15 + 16, p15 + 17, p15 + 18, p15 + 19, p15 + 20, p15 + 21, p15 + 22, p15 + 23, p15 + 24, p15 + 25, p15 + 26, p15 + 27, p15 + 28, p15 + 29, p15 + 30, p15 + 31, p15 + 32, p15 + 33, p15 + 34, p15 + 35, p15 + 36, p15 + 37, p15 + 38, p15 + 39, 10};
p16 = newp;
Point(p16 + 1) = {20.45473100127773, -1.533350023092176, 0.1};
Point(p16 + 2) = {20.42059153303946, -1.391148903888335, 0.1};
Point(p16 + 3) = {20.36462722229564, -1.256039105881733, 0.1};
Point(p16 + 4) = {20.28821609611166, -1.131347480703002, 0.1};
Point(p16 + 5) = {20.19323965000818, -1.020144349991823, 0.1};
Point(p16 + 6) = {20.082036519297, -0.9251679038883354, 0.1};
Point(p16 + 7) = {19.95734489411827, -0.8487567777043604, 0.1};
Point(p16 + 8) = {19.82223509611167, -0.7927924669605362, 0.1};
Point(p16 + 9) = {19.68003397690782, -0.7586529987222742, 0.1};
Point(p16 + 10) = {19.534243, -0.747179, 0.1};
Point(p16 + 11) = {19.38845202309218, -0.7586529987222743, 0.1};
Point(p16 + 12) = {19.24625090388833, -0.7927924669605361, 0.1};
Point(p16 + 13) = {19.11114110588173, -0.8487567777043603, 0.1};
Point(p16 + 14) = {18.986449480703, -0.9251679038883353, 0.1};
Point(p16 + 15) = {18.87524634999182, -1.020144349991823, 0.1};
Point(p16 + 16) = {18.78026990388834, -1.131347480703002, 0.1};
Point(p16 + 17) = {18.70385877770436, -1.256039105881732, 0.1};
Point(p16 + 18) = {18.64789446696054, -1.391148903888335, 0.1};
Point(p16 + 19) = {18.61375499872227, -1.533350023092176, 0.1};
Point(p16 + 20) = {18.602281, -1.679141, 0.1};
Point(p16 + 21) = {18.61375499872227, -1.824931976907824, 0.1};
Point(p16 + 22) = {18.64789446696054, -1.967133096111665, 0.1};
Point(p16 + 23) = {18.70385877770436, -2.102242894118267, 0.1};
Point(p16 + 24) = {18.78026990388834, -2.226934519296998, 0.1};
Point(p16 + 25) = {18.87524634999182, -2.338137650008177, 0.1};
Point(p16 + 26) = {18.986449480703, -2.433114096111665, 0.1};
Point(p16 + 27) = {19.11114110588173, -2.50952522229564, 0.1};
Point(p16 + 28) = {19.24625090388833, -2.565489533039464, 0.1};
Point(p16 + 29) = {19.38845202309218, -2.599629001277726, 0.1};
Point(p16 + 30) = {19.534243, -2.611103, 0.1};
Point(p16 + 31) = {19.68003397690782, -2.599629001277726, 0.1};
Point(p16 + 32) = {19.82223509611167, -2.565489533039464, 0.1};
Point(p16 + 33) = {19.95734489411827, -2.50952522229564, 0.1};
Point(p16 + 34) = {20.082036519297, -2.433114096111665, 0.1};
Point(p16 + 35) = {20.19323965000818, -2.338137650008177, 0.1};
Point(p16 + 36) = {20.28821609611166, -2.226934519296998, 0.1};
Point(p16 + 37) = {20.36462722229564, -2.102242894118268, 0.1};
Point(p16 + 38) = {20.42059153303946, -1.967133096111665, 0.1};
Point(p16 + 39) = {20.45473100127773, -1.824931976907824, 0.1};
Spline(16) = {11, p16 + 1, p16 + 2, p16 + 3, p16 + 4, p16 + 5, p16 + 6, p16 + 7, p16 + 8, p16 + 9, p16 + 10, p16 + 11, p16 + 12, p16 + 13, p16 + 14, p16 + 15, p16 + 16, p16 + 17, p16 + 18, p16 + 19, p16 + 20, p16 + 21, p16 + 22, p16 + 23, p16 + 24, p16 + 25, p16 + 26, p16 + 27, p16 + 28, p16 + 29, p16 + 30, p16 + 31, p16 + 32, p16 + 33, p16 + 34, p16 + 35, p16 + 36, p16 + 37, p16 + 38, p16 + 39, 11};
Line(17) = {12, 11};
p18 = newp;
Point(p18 + 1) = {20.45473100127773, -1.533350023092176, 0};
Point(p18 + 2) = {20.42059153303946, -1.391148903888335, 0};
Point(p18 + 3) = {20.36462722229564, -1.256039105881733, 0};
Point(p18 + 4) = {20.28821609611166, -1.131347480703002, 0};
Point(p18 + 5) = {20.19323965000818, -1.020144349991823, 0};
Point(p18 + 6) = {20.082036519297, -0.9251679038883354, 0};
Point(p18 + 7) = {19.95734489411827, -0.8487567777043604, 0};
Point(p18 + 8) = {19.82223509611167, -0.7927924669605362, 0};
Point(p18 + 9) = {19.68003397690782, -0.7586529987222742, 0};
Point(p18 + 10) = {19.534243, -0.747179, 0};
Point(p18 + 11) = {19.38845202309218, -0.7586529987222743, 0};
Point(p18 + 12) = {19.24625090388833, -0.7927924669605361, 0};
Point(p18 + 13) = {19.11114110588173, -0.8487567777043603, 0};
Point(p18 + 14) = {18.986449480703, -0.9251679038883353, 0};
Point(p18 + 15) = {18.87524634999182, -1.020144349991823, 0};
Point(p18 + 16) = {18.78026990388834, -1.131347480703002, 0};
Point(p18 + 17) = {18.70385877770436, -1.256039105881732, 0};
Point(p18 + 18) = {18.64789446696054, -1.391148903888335, 0};
Point(p18 + 19) = {18.61375499872227, -1.533350023092176, 0};
Point(p18 + 20) = {18.602281, -1.679141, 0};
Point(p18 + 21) = {18.61375499872227, -1.824931976907824, 0};
Point(p18 + 22) = {18.64789446696054, -1.967133096111665, 0};
Point(p18 + 23) = {18.70385877770436, -2.102242894118267, 0};
Point(p18 + 24) = {18.78026990388834, -2.226934519296998, 0};
Point(p18 + 25) = {18.87524634999182, -2.338137650008177, 0};
Point(p18 + 26) = {18.986449480703, -2.433114096111665, 0};
Point(p18 + 27) = {19.11114110588173, -2.50952522229564, 0};
Point(p18 + 28) = {19.24625090388833, -2.565489533039464, 0};
Point(p18 + 29) = {19.38845202309218, -2.599629001277726, 0};
Point(p18 + 30) = {19.534243, -2.611103, 0};
Point(p18 + 31) = {19.68003397690782, -2.599629001277726, 0};
Point(p18 + 32) = {19.82223509611167, -2.565489533039464, 0};
Point(p18 + 33) = {19.95734489411827, -2.50952522229564, 0};
Point(p18 + 34) = {20.082036519297, -2.433114096111665, 0};
Point(p18 + 35) = {20.19323965000818, -2.338137650008177, 0};
Point(p18 + 36) = {20.28821609611166, -2.226934519296998, 0};
Point(p18 + 37) = {20.36462722229564, -2.102242894118268, 0};
Point(p18 + 38) = {20.42059153303946, -1.967133096111665, 0};
Point(p18 + 39) = {20.45473100127773, -1.824931976907824, 0};
Spline(18) = {12, p18 + 1, p18 + 2, p18 + 3, p18 + 4, p18 + 5, p18 + 6, p18 + 7, p18 + 8, p18 + 9, p18 + 10, p18 + 11, p18 + 12, p18 + 13, p18 + 14, p18 + 15, p18 + 16, p18 + 17, p18 + 18, p18 + 19, p18 + 20, p18 + 21, p18 + 22, p18 + 23, p18 + 24, p18 + 25, p18 + 26, p18 + 27, p18 + 28, p18 + 29, p18 + 30, p18 + 31, p18 + 32, p18 + 33, p18 + 34, p18 + 35, p18 + 36, p18 + 37, p18 + 38, p18 + 39, 12};
Line(19) = {14, 13};
Line(20) = {13, 15};
Line(21) = {16, 15};
Line(22) = {14, 16};
Line(23) = {14, 17};
Line(24) = {17, 18};
Line(25) = {13, 18};
Line(26) = {15, 19};
Line(27) = {18, 19};
Line(28) = {16, 20};
Line(29) = {20, 19};
Line(30) = {17, 20};
Curve Loop(7) = {-13, -14, 15, 14};
Surface(7) = {7};
Curve Loop(8) = {13};
Plane Surface(8) = {8};
Curve Loop(9) = {15};
Plane Surface(9) = {9};
Curve Loop(10) = {-16, -17, 18, 17};
Surface(10) = {10};
Curve Loop(11) = {16};
Plane Surface(11) = {11};
Curve Loop(12) = {18};
Plane Surface(12) = {12};
Curve Loop(13) = {-19, 22, 21, -20};
Plane Surface(13) = {13};
Curve Loop(14) = {-23, 19, 25, -24};
Plane Surface(14) = {14};
Curve Loop(15) = {-20, 25, 27, -26, -16, -13};
Plane Surface(15) = {15};
Curve Loop(16) = {-28, 21, 26, -29};
Plane Surface(16) = {16};
Curve Loop(17) = {-22, 23, 30, -28, -18, -15};
Plane Surface(17) = {17};
Curve Loop(18) = {-24, 30, 29, -27};
Plane Surface(18) = {18};
Surface Loop(1) = {13, 14, 15, 16, 17, 18, 10, 7};
Volume(1) = {1};
Surface Loop(2) = {7, 8, 9};
Volume(2) = {2};
Surface Loop(3) = {10, 11, 12};
Volume(3) = {3};
Physical Surface("WALLS") = {13, 18};
Physical Surface("LOAD") = {8, 11};
Physical Surface("BORDER") = {7, 9, 10, 12, 14, 15, 16, 17};
Physical Volume("SOLID") = {1, 2, 3};
