cl__1 = 0.149146;
cl__2 = 0.110841;
cl__3 = 0.707027;
cl__4 = 0.7830549999999999;
cl__5 = 2.091558;
cl__6 = 1.865671;
Point(9) = {13.475968, -1.542306, 0.1, cl__1};
Point(10) = {13.475968, -1.542306, 0, cl__1};
Point(11) = {15.755112, 1.884591, 0.1, cl__2};
Point(12) = {15.755112, 1.884591, 0, cl__2};
Point(13) = {0.166809, -3.991495, 0.1, cl__3};
Point(14) = {0.166809, -3.991495, 0, cl__3};
Point(15) = {0.166809, 4.352286999999999, 0.1, cl__4};
Point(16) = {0.166809, 4.352286999999999, 0, cl__4};
Point(17) = {34.015571, -3.991495, 0, cl__5};
Point(18) = {34.015571, -3.991495, 0.1, cl__5};
Point(19) = {34.015571, 4.352286999999999, 0.1, cl__6};
Point(20) = {34.015571, 4.352286999999999, 0, cl__6};
p13 = newp;
Point(p13 + 1) = {13.45760561552905, -1.308989783467702, 0.1};
Point(p13 + 2) = {13.40297060496312, -1.081418586518558, 0.1};
Point(p13 + 3) = {13.31340826358556, -0.8651959672869564, 0.1};
Point(p13 + 4) = {13.19112391348144, -0.6656460442601111, 0.1};
Point(p13 + 5) = {13.03912860118883, -0.4876823988111683, 0.1};
Point(p13 + 6) = {12.86116495573989, -0.3356870865185579, 0.1};
Point(p13 + 7) = {12.66161503271304, -0.2134027364144444, 0.1};
Point(p13 + 8) = {12.44539241348144, -0.1238403950368814, 0.1};
Point(p13 + 9) = {12.2178212165323, -0.06920538447095392, 0.1};
Point(p13 + 10) = {11.984505, -0.05084299999999997, 0.1};
Point(p13 + 11) = {11.7511887834677, -0.06920538447095415, 0.1};
Point(p13 + 12) = {11.52361758651856, -0.1238403950368812, 0.1};
Point(p13 + 13) = {11.30739496728696, -0.2134027364144442, 0.1};
Point(p13 + 14) = {11.10784504426011, -0.3356870865185577, 0.1};
Point(p13 + 15) = {10.92988139881117, -0.4876823988111683, 0.1};
Point(p13 + 16) = {10.77788608651856, -0.665646044260111, 0.1};
Point(p13 + 17) = {10.65560173641444, -0.8651959672869561, 0.1};
Point(p13 + 18) = {10.56603939503688, -1.081418586518557, 0.1};
Point(p13 + 19) = {10.51140438447096, -1.308989783467702, 0.1};
Point(p13 + 20) = {10.493042, -1.542306, 0.1};
Point(p13 + 21) = {10.51140438447095, -1.775622216532298, 0.1};
Point(p13 + 22) = {10.56603939503688, -2.003193413481442, 0.1};
Point(p13 + 23) = {10.65560173641444, -2.219416032713043, 0.1};
Point(p13 + 24) = {10.77788608651856, -2.418965955739889, 0.1};
Point(p13 + 25) = {10.92988139881117, -2.596929601188831, 0.1};
Point(p13 + 26) = {11.10784504426011, -2.748924913481442, 0.1};
Point(p13 + 27) = {11.30739496728696, -2.871209263585556, 0.1};
Point(p13 + 28) = {11.52361758651856, -2.960771604963119, 0.1};
Point(p13 + 29) = {11.7511887834677, -3.015406615529046, 0.1};
Point(p13 + 30) = {11.984505, -3.033769, 0.1};
Point(p13 + 31) = {12.2178212165323, -3.015406615529046, 0.1};
Point(p13 + 32) = {12.44539241348144, -2.960771604963119, 0.1};
Point(p13 + 33) = {12.66161503271304, -2.871209263585556, 0.1};
Point(p13 + 34) = {12.86116495573989, -2.748924913481442, 0.1};
Point(p13 + 35) = {13.03912860118883, -2.596929601188832, 0.1};
Point(p13 + 36) = {13.19112391348144, -2.418965955739889, 0.1};
Point(p13 + 37) = {13.31340826358556, -2.219416032713044, 0.1};
Point(p13 + 38) = {13.40297060496312, -2.003193413481442, 0.1};
Point(p13 + 39) = {13.45760561552905, -1.775622216532298, 0.1};
Spline(13) = {9, p13 + 1, p13 + 2, p13 + 3, p13 + 4, p13 + 5, p13 + 6, p13 + 7, p13 + 8, p13 + 9, p13 + 10, p13 + 11, p13 + 12, p13 + 13, p13 + 14, p13 + 15, p13 + 16, p13 + 17, p13 + 18, p13 + 19, p13 + 20, p13 + 21, p13 + 22, p13 + 23, p13 + 24, p13 + 25, p13 + 26, p13 + 27, p13 + 28, p13 + 29, p13 + 30, p13 + 31, p13 + 32, p13 + 33, p13 + 34, p13 + 35, p13 + 36, p13 + 37, p13 + 38, p13 + 39, 9};
Line(14) = {10, 9};
p15 = newp;
Point(p15 + 1) = {13.45760561552905, -1.308989783467702, 0};
Point(p15 + 2) = {13.40297060496312, -1.081418586518558, 0};
Point(p15 + 3) = {13.31340826358556, -0.8651959672869564, 0};
Point(p15 + 4) = {13.19112391348144, -0.6656460442601111, 0};
Point(p15 + 5) = {13.03912860118883, -0.4876823988111683, 0};
Point(p15 + 6) = {12.86116495573989, -0.3356870865185579, 0};
Point(p15 + 7) = {12.66161503271304, -0.2134027364144444, 0};
Point(p15 + 8) = {12.44539241348144, -0.1238403950368814, 0};
Point(p15 + 9) = {12.2178212165323, -0.06920538447095392, 0};
Point(p15 + 10) = {11.984505, -0.05084299999999997, 0};
Point(p15 + 11) = {11.7511887834677, -0.06920538447095415, 0};
Point(p15 + 12) = {11.52361758651856, -0.1238403950368812, 0};
Point(p15 + 13) = {11.30739496728696, -0.2134027364144442, 0};
Point(p15 + 14) = {11.10784504426011, -0.3356870865185577, 0};
Point(p15 + 15) = {10.92988139881117, -0.4876823988111683, 0};
Point(p15 + 16) = {10.77788608651856, -0.665646044260111, 0};
Point(p15 + 17) = {10.65560173641444, -0.8651959672869561, 0};
Point(p15 + 18) = {10.56603939503688, -1.081418586518557, 0};
Point(p15 + 19) = {10.51140438447096, -1.308989783467702, 0};
Point(p15 + 20) = {10.493042, -1.542306, 0};
Point(p15 + 21) = {10.51140438447095, -1.775622216532298, 0};
Point(p15 + 22) = {10.56603939503688, -2.003193413481442, 0};
Point(p15 + 23) = {10.65560173641444, -2.219416032713043, 0};
Point(p15 + 24) = {10.77788608651856, -2.418965955739889, 0};
Point(p15 + 25) = {10.92988139881117, -2.596929601188831, 0};
Point(p15 + 26) = {11.10784504426011, -2.748924913481442, 0};
Point(p15 + 27) = {11.30739496728696, -2.871209263585556, 0};
Point(p15 + 28) = {11.52361758651856, -2.960771604963119, 0};
Point(p15 + 29) = {11.7511887834677, -3.015406615529046, 0};
Point(p15 + 30) = {11.984505, -3.033769, 0};
Point(p15 + 31) = {12.2178212165323, -3.015406615529046, 0};
Point(p15 + 32) = {12.44539241348144, -2.960771604963119, 0};
Point(p15 + 33) = {12.66161503271304, -2.871209263585556, 0};
Point(p15 + 34) = {12.86116495573989, -2.748924913481442, 0};
Point(p15 + 35) = {13.03912860118883, -2.596929601188832, 0};
Point(p15 + 36) = {13.19112391348144, -2.418965955739889, 0};
Point(p15 + 37) = {13.31340826358556, -2.219416032713044, 0};
Point(p15 + 38) = {13.40297060496312, -2.003193413481442, 0};
Point(p15 + 39) = {13.45760561552905, -1.775622216532298, 0};
Spline(15) = {10, p15 + 1, p15 + 2, p15 + 3, p15 + 4, p15 + 5, p15 + 6, p15 + 7, p15 + 8, p15 + 9, p15 + 10, p15 + 11, p15 + 12, p15 + 13, p15 + 14, p15 + 15, p15 + 16, p15 + 17, p15 + 18, p15 + 19, p15 + 20, p15 + 21, p15 + 22, p15 + 23, p15 + 24, p15 + 25, p15 + 26, p15 + 27, p15 + 28, p15 + 29, p15 + 30, p15 + 31, p15 + 32, p15 + 33, p15 + 34, p15 + 35, p15 + 36, p15 + 37, p15 + 38, p15 + 39, 10};
p16 = newp;
Point(p16 + 1) = {15.74146559666408, 2.057984994698637, 0.1};
Point(p16 + 2) = {15.70086240639626, 2.227109453786118, 0.1};
Point(p16 + 3) = {15.6343022144952, 2.38779997178781, 0.1};
Point(p16 + 4) = {15.54342395378612, 2.536099814849257, 0.1};
Point(p16 + 5) = {15.43046534865532, 2.668357348655324, 0.1};
Point(p16 + 6) = {15.29820781484926, 2.781315953786119, 0.1};
Point(p16 + 7) = {15.14990797178781, 2.872194214495202, 0.1};
Point(p16 + 8) = {14.98921745378612, 2.93875440639626, 0.1};
Point(p16 + 9) = {14.82009299469864, 2.979357596664078, 0.1};
Point(p16 + 10) = {14.646699, 2.993004, 0.1};
Point(p16 + 11) = {14.47330500530136, 2.979357596664078, 0.1};
Point(p16 + 12) = {14.30418054621388, 2.93875440639626, 0.1};
Point(p16 + 13) = {14.14349002821219, 2.872194214495202, 0.1};
Point(p16 + 14) = {13.99519018515074, 2.781315953786119, 0.1};
Point(p16 + 15) = {13.86293265134467, 2.668357348655324, 0.1};
Point(p16 + 16) = {13.74997404621388, 2.536099814849257, 0.1};
Point(p16 + 17) = {13.6590957855048, 2.38779997178781, 0.1};
Point(p16 + 18) = {13.59253559360374, 2.227109453786118, 0.1};
Point(p16 + 19) = {13.55193240333592, 2.057984994698637, 0.1};
Point(p16 + 20) = {13.538286, 1.884591, 0.1};
Point(p16 + 21) = {13.55193240333592, 1.711197005301363, 0.1};
Point(p16 + 22) = {13.59253559360374, 1.542072546213881, 0.1};
Point(p16 + 23) = {13.6590957855048, 1.38138202821219, 0.1};
Point(p16 + 24) = {13.74997404621388, 1.233082185150743, 0.1};
Point(p16 + 25) = {13.86293265134467, 1.100824651344675, 0.1};
Point(p16 + 26) = {13.99519018515074, 0.9878660462138813, 0.1};
Point(p16 + 27) = {14.14349002821219, 0.8969877855047985, 0.1};
Point(p16 + 28) = {14.30418054621388, 0.8304275936037397, 0.1};
Point(p16 + 29) = {14.47330500530136, 0.7898244033359214, 0.1};
Point(p16 + 30) = {14.646699, 0.7761779999999998, 0.1};
Point(p16 + 31) = {14.82009299469864, 0.7898244033359214, 0.1};
Point(p16 + 32) = {14.98921745378612, 0.8304275936037397, 0.1};
Point(p16 + 33) = {15.14990797178781, 0.8969877855047983, 0.1};
Point(p16 + 34) = {15.29820781484926, 0.9878660462138811, 0.1};
Point(p16 + 35) = {15.43046534865532, 1.100824651344675, 0.1};
Point(p16 + 36) = {15.54342395378612, 1.233082185150743, 0.1};
Point(p16 + 37) = {15.6343022144952, 1.381382028212189, 0.1};
Point(p16 + 38) = {15.70086240639626, 1.542072546213881, 0.1};
Point(p16 + 39) = {15.74146559666408, 1.711197005301362, 0.1};
Spline(16) = {11, p16 + 1, p16 + 2, p16 + 3, p16 + 4, p16 + 5, p16 + 6, p16 + 7, p16 + 8, p16 + 9, p16 + 10, p16 + 11, p16 + 12, p16 + 13, p16 + 14, p16 + 15, p16 + 16, p16 + 17, p16 + 18, p16 + 19, p16 + 20, p16 + 21, p16 + 22, p16 + 23, p16 + 24, p16 + 25, p16 + 26, p16 + 27, p16 + 28, p16 + 29, p16 + 30, p16 + 31, p16 + 32, p16 + 33, p16 + 34, p16 + 35, p16 + 36, p16 + 37, p16 + 38, p16 + 39, 11};
Line(17) = {12, 11};
p18 = newp;
Point(p18 + 1) = {15.74146559666408, 2.057984994698637, 0};
Point(p18 + 2) = {15.70086240639626, 2.227109453786118, 0};
Point(p18 + 3) = {15.6343022144952, 2.38779997178781, 0};
Point(p18 + 4) = {15.54342395378612, 2.536099814849257, 0};
Point(p18 + 5) = {15.43046534865532, 2.668357348655324, 0};
Point(p18 + 6) = {15.29820781484926, 2.781315953786119, 0};
Point(p18 + 7) = {15.14990797178781, 2.872194214495202, 0};
Point(p18 + 8) = {14.98921745378612, 2.93875440639626, 0};
Point(p18 + 9) = {14.82009299469864, 2.979357596664078, 0};
Point(p18 + 10) = {14.646699, 2.993004, 0};
Point(p18 + 11) = {14.47330500530136, 2.979357596664078, 0};
Point(p18 + 12) = {14.30418054621388, 2.93875440639626, 0};
Point(p18 + 13) = {14.14349002821219, 2.872194214495202, 0};
Point(p18 + 14) = {13.99519018515074, 2.781315953786119, 0};
Point(p18 + 15) = {13.86293265134467, 2.668357348655324, 0};
Point(p18 + 16) = {13.74997404621388, 2.536099814849257, 0};
Point(p18 + 17) = {13.6590957855048, 2.38779997178781, 0};
Point(p18 + 18) = {13.59253559360374, 2.227109453786118, 0};
Point(p18 + 19) = {13.55193240333592, 2.057984994698637, 0};
Point(p18 + 20) = {13.538286, 1.884591, 0};
Point(p18 + 21) = {13.55193240333592, 1.711197005301363, 0};
Point(p18 + 22) = {13.59253559360374, 1.542072546213881, 0};
Point(p18 + 23) = {13.6590957855048, 1.38138202821219, 0};
Point(p18 + 24) = {13.74997404621388, 1.233082185150743, 0};
Point(p18 + 25) = {13.86293265134467, 1.100824651344675, 0};
Point(p18 + 26) = {13.99519018515074, 0.9878660462138813, 0};
Point(p18 + 27) = {14.14349002821219, 0.8969877855047985, 0};
Point(p18 + 28) = {14.30418054621388, 0.8304275936037397, 0};
Point(p18 + 29) = {14.47330500530136, 0.7898244033359214, 0};
Point(p18 + 30) = {14.646699, 0.7761779999999998, 0};
Point(p18 + 31) = {14.82009299469864, 0.7898244033359214, 0};
Point(p18 + 32) = {14.98921745378612, 0.8304275936037397, 0};
Point(p18 + 33) = {15.14990797178781, 0.8969877855047983, 0};
Point(p18 + 34) = {15.29820781484926, 0.9878660462138811, 0};
Point(p18 + 35) = {15.43046534865532, 1.100824651344675, 0};
Point(p18 + 36) = {15.54342395378612, 1.233082185150743, 0};
Point(p18 + 37) = {15.6343022144952, 1.381382028212189, 0};
Point(p18 + 38) = {15.70086240639626, 1.542072546213881, 0};
Point(p18 + 39) = {15.74146559666408, 1.711197005301362, 0};
Spline(18) = {12, p18 + 1, p18 + 2, p18 + 3, p18 + 4, p18 + 5, p18 + 6, p18 + 7, p18 + 8, p18 + 9, p18 + 10, p18 + 11, p18 + 12, p18 + 13, p18 + 14, p18 + 15, p18 + 16, p18 + 17, p18 + 18, p18 + 19, p18 + 20, p18 + 21, p18 + 22, p18 + 23, p18 + 24, p18 + 25, p18 + 26, p18 + 27, p18 + 28, p18 + 29, p18 + 30, p18 + 31, p18 + 32, p18 + 33, p18 + 34, p18 + 35, p18 + 36, p18 + 37, p18 + 38, p18 + 39, 12};
Line(19) = {14, 13};
Line(20) = {13, 15};
Line(21) = {16, 15};
Line(22) = {14, 16};
Line(23) = {14, 17};
Line(24) = {17, 18};
Line(25) = {13, 18};
Line(26) = {15, 19};
Line(27) = {18, 19};
Line(28) = {16, 20};
Line(29) = {20, 19};
Line(30) = {17, 20};
Curve Loop(7) = {-13, -14, 15, 14};
Surface(7) = {7};
Curve Loop(8) = {13};
Plane Surface(8) = {8};
Curve Loop(9) = {15};
Plane Surface(9) = {9};
Curve Loop(10) = {-16, -17, 18, 17};
Surface(10) = {10};
Curve Loop(11) = {16};
Plane Surface(11) = {11};
Curve Loop(12) = {18};
Plane Surface(12) = {12};
Curve Loop(13) = {-19, 22, 21, -20};
Plane Surface(13) = {13};
Curve Loop(14) = {-23, 19, 25, -24};
Plane Surface(14) = {14};
Curve Loop(15) = {-20, 25, 27, -26, -13, -16};
Plane Surface(15) = {15};
Curve Loop(16) = {-28, 21, 26, -29};
Plane Surface(16) = {16};
Curve Loop(17) = {-22, 23, 30, -28, -15, -18};
Plane Surface(17) = {17};
Curve Loop(18) = {-24, 30, 29, -27};
Plane Surface(18) = {18};
Surface Loop(1) = {13, 14, 15, 16, 17, 18, 7, 10};
Volume(1) = {1};
Surface Loop(2) = {7, 8, 9};
Volume(2) = {2};
Surface Loop(3) = {10, 11, 12};
Volume(3) = {3};
Physical Surface("WALLS") = {13, 18};
Physical Surface("LOAD") = {8, 11};
Physical Surface("BORDER") = {7, 9, 10, 12, 14, 15, 16, 17};
Physical Volume("SOLID") = {1, 2, 3};
