cl__1 = 0.080095;
cl__2 = 0.115471;
cl__3 = 3.53791;
cl__4 = 3.431264;
cl__5 = 0.529774;
cl__6 = 0.43818;
Point(9) = {36.374772, 1.061963, 0.1, cl__1};
Point(10) = {36.374772, 1.061963, 0, cl__1};
Point(11) = {18.093862, 0.7353239999999996, 0.1, cl__2};
Point(12) = {18.093862, 0.7353239999999996, 0, cl__2};
Point(13) = {0.127288, -4.176201, 0.1, cl__3};
Point(14) = {0.127288, -4.176201, 0, cl__3};
Point(15) = {0.127288, 5.017094000000001, 0.1, cl__4};
Point(16) = {0.127288, 5.017094000000001, 0, cl__4};
Point(17) = {39.403637, -4.176201, 0, cl__5};
Point(18) = {39.403637, -4.176201, 0.1, cl__5};
Point(19) = {39.403637, 5.017094000000001, 0.1, cl__6};
Point(20) = {39.403637, 5.017094000000001, 0, cl__6};
p13 = newp;
Point(p13 + 1) = {36.36491097639968, 1.187259184773973, 0.1};
Point(p13 + 2) = {36.3355707167266, 1.309470161644614, 0.1};
Point(p13 + 3) = {36.28747367554868, 1.42558669076639, 0.1};
Point(p13 + 4) = {36.22180416164461, 1.532749597823656, 0.1};
Point(p13 + 5) = {36.14017917639136, 1.628320176391365, 0.1};
Point(p13 + 6) = {36.04460859782365, 1.709945161644614, 0.1};
Point(p13 + 7) = {35.93744569076639, 1.775614675548673, 0.1};
Point(p13 + 8) = {35.82132916164461, 1.823711716726603, 0.1};
Point(p13 + 9) = {35.69911818477397, 1.853051976399676, 0.1};
Point(p13 + 10) = {35.573822, 1.862913, 0.1};
Point(p13 + 11) = {35.44852581522603, 1.853051976399676, 0.1};
Point(p13 + 12) = {35.32631483835539, 1.823711716726603, 0.1};
Point(p13 + 13) = {35.21019830923361, 1.775614675548673, 0.1};
Point(p13 + 14) = {35.10303540217635, 1.709945161644614, 0.1};
Point(p13 + 15) = {35.00746482360864, 1.628320176391365, 0.1};
Point(p13 + 16) = {34.92583983835539, 1.532749597823656, 0.1};
Point(p13 + 17) = {34.86017032445132, 1.42558669076639, 0.1};
Point(p13 + 18) = {34.8120732832734, 1.309470161644614, 0.1};
Point(p13 + 19) = {34.78273302360032, 1.187259184773973, 0.1};
Point(p13 + 20) = {34.772872, 1.061963, 0.1};
Point(p13 + 21) = {34.78273302360032, 0.9366668152260271, 0.1};
Point(p13 + 22) = {34.8120732832734, 0.8144558383553856, 0.1};
Point(p13 + 23) = {34.86017032445132, 0.6983393092336103, 0.1};
Point(p13 + 24) = {34.92583983835539, 0.5911764021763437, 0.1};
Point(p13 + 25) = {35.00746482360864, 0.4956058236086348, 0.1};
Point(p13 + 26) = {35.10303540217635, 0.4139808383553859, 0.1};
Point(p13 + 27) = {35.21019830923361, 0.3483113244513267, 0.1};
Point(p13 + 28) = {35.32631483835539, 0.3002142832733967, 0.1};
Point(p13 + 29) = {35.44852581522603, 0.2708740236003244, 0.1};
Point(p13 + 30) = {35.573822, 0.2610129999999999, 0.1};
Point(p13 + 31) = {35.69911818477397, 0.2708740236003243, 0.1};
Point(p13 + 32) = {35.82132916164461, 0.3002142832733966, 0.1};
Point(p13 + 33) = {35.93744569076639, 0.3483113244513266, 0.1};
Point(p13 + 34) = {36.04460859782365, 0.4139808383553857, 0.1};
Point(p13 + 35) = {36.14017917639136, 0.4956058236086346, 0.1};
Point(p13 + 36) = {36.22180416164461, 0.5911764021763435, 0.1};
Point(p13 + 37) = {36.28747367554868, 0.6983393092336099, 0.1};
Point(p13 + 38) = {36.3355707167266, 0.8144558383553857, 0.1};
Point(p13 + 39) = {36.36491097639968, 0.9366668152260269, 0.1};
Spline(13) = {9, p13 + 1, p13 + 2, p13 + 3, p13 + 4, p13 + 5, p13 + 6, p13 + 7, p13 + 8, p13 + 9, p13 + 10, p13 + 11, p13 + 12, p13 + 13, p13 + 14, p13 + 15, p13 + 16, p13 + 17, p13 + 18, p13 + 19, p13 + 20, p13 + 21, p13 + 22, p13 + 23, p13 + 24, p13 + 25, p13 + 26, p13 + 27, p13 + 28, p13 + 29, p13 + 30, p13 + 31, p13 + 32, p13 + 33, p13 + 34, p13 + 35, p13 + 36, p13 + 37, p13 + 38, p13 + 39, 9};
Line(14) = {10, 9};
p15 = newp;
Point(p15 + 1) = {36.36491097639968, 1.187259184773973, 0};
Point(p15 + 2) = {36.3355707167266, 1.309470161644614, 0};
Point(p15 + 3) = {36.28747367554868, 1.42558669076639, 0};
Point(p15 + 4) = {36.22180416164461, 1.532749597823656, 0};
Point(p15 + 5) = {36.14017917639136, 1.628320176391365, 0};
Point(p15 + 6) = {36.04460859782365, 1.709945161644614, 0};
Point(p15 + 7) = {35.93744569076639, 1.775614675548673, 0};
Point(p15 + 8) = {35.82132916164461, 1.823711716726603, 0};
Point(p15 + 9) = {35.69911818477397, 1.853051976399676, 0};
Point(p15 + 10) = {35.573822, 1.862913, 0};
Point(p15 + 11) = {35.44852581522603, 1.853051976399676, 0};
Point(p15 + 12) = {35.32631483835539, 1.823711716726603, 0};
Point(p15 + 13) = {35.21019830923361, 1.775614675548673, 0};
Point(p15 + 14) = {35.10303540217635, 1.709945161644614, 0};
Point(p15 + 15) = {35.00746482360864, 1.628320176391365, 0};
Point(p15 + 16) = {34.92583983835539, 1.532749597823656, 0};
Point(p15 + 17) = {34.86017032445132, 1.42558669076639, 0};
Point(p15 + 18) = {34.8120732832734, 1.309470161644614, 0};
Point(p15 + 19) = {34.78273302360032, 1.187259184773973, 0};
Point(p15 + 20) = {34.772872, 1.061963, 0};
Point(p15 + 21) = {34.78273302360032, 0.9366668152260271, 0};
Point(p15 + 22) = {34.8120732832734, 0.8144558383553856, 0};
Point(p15 + 23) = {34.86017032445132, 0.6983393092336103, 0};
Point(p15 + 24) = {34.92583983835539, 0.5911764021763437, 0};
Point(p15 + 25) = {35.00746482360864, 0.4956058236086348, 0};
Point(p15 + 26) = {35.10303540217635, 0.4139808383553859, 0};
Point(p15 + 27) = {35.21019830923361, 0.3483113244513267, 0};
Point(p15 + 28) = {35.32631483835539, 0.3002142832733967, 0};
Point(p15 + 29) = {35.44852581522603, 0.2708740236003244, 0};
Point(p15 + 30) = {35.573822, 0.2610129999999999, 0};
Point(p15 + 31) = {35.69911818477397, 0.2708740236003243, 0};
Point(p15 + 32) = {35.82132916164461, 0.3002142832733966, 0};
Point(p15 + 33) = {35.93744569076639, 0.3483113244513266, 0};
Point(p15 + 34) = {36.04460859782365, 0.4139808383553857, 0};
Point(p15 + 35) = {36.14017917639136, 0.4956058236086346, 0};
Point(p15 + 36) = {36.22180416164461, 0.5911764021763435, 0};
Point(p15 + 37) = {36.28747367554868, 0.6983393092336099, 0};
Point(p15 + 38) = {36.3355707167266, 0.8144558383553857, 0};
Point(p15 + 39) = {36.36491097639968, 0.9366668152260269, 0};
Spline(15) = {10, p15 + 1, p15 + 2, p15 + 3, p15 + 4, p15 + 5, p15 + 6, p15 + 7, p15 + 8, p15 + 9, p15 + 10, p15 + 11, p15 + 12, p15 + 13, p15 + 14, p15 + 15, p15 + 16, p15 + 17, p15 + 18, p15 + 19, p15 + 20, p15 + 21, p15 + 22, p15 + 23, p15 + 24, p15 + 25, p15 + 26, p15 + 27, p15 + 28, p15 + 29, p15 + 30, p15 + 31, p15 + 32, p15 + 33, p15 + 34, p15 + 35, p15 + 36, p15 + 37, p15 + 38, p15 + 39, 10};
p16 = newp;
Point(p16 + 1) = {18.07964565301525, 0.9159598153887448, 0.1};
Point(p16 + 2) = {18.03734666570511, 1.092147777506718, 0.1};
Point(p16 + 3) = {17.96800657951945, 1.259549553992253, 0.1};
Point(p16 + 4) = {17.87333277750672, 1.414043157533633, 0.1};
Point(p16 + 5) = {17.75565644287679, 1.551824442876793, 0.1};
Point(p16 + 6) = {17.61787515753363, 1.669500777506718, 0.1};
Point(p16 + 7) = {17.46338155399225, 1.764174579519453, 0.1};
Point(p16 + 8) = {17.29597977750672, 1.833514665705112, 0.1};
Point(p16 + 9) = {17.11979181538874, 1.875813653015249, 0.1};
Point(p16 + 10) = {16.939156, 1.89003, 0.1};
Point(p16 + 11) = {16.75852018461126, 1.875813653015249, 0.1};
Point(p16 + 12) = {16.58233222249328, 1.833514665705112, 0.1};
Point(p16 + 13) = {16.41493044600775, 1.764174579519453, 0.1};
Point(p16 + 14) = {16.26043684246637, 1.669500777506718, 0.1};
Point(p16 + 15) = {16.12265555712321, 1.551824442876794, 0.1};
Point(p16 + 16) = {16.00497922249328, 1.414043157533633, 0.1};
Point(p16 + 17) = {15.91030542048055, 1.259549553992253, 0.1};
Point(p16 + 18) = {15.84096533429489, 1.092147777506718, 0.1};
Point(p16 + 19) = {15.79866634698475, 0.9159598153887449, 0.1};
Point(p16 + 20) = {15.78445, 0.7353240000000001, 0.1};
Point(p16 + 21) = {15.79866634698475, 0.5546881846112552, 0.1};
Point(p16 + 22) = {15.84096533429489, 0.3785002224932816, 0.1};
Point(p16 + 23) = {15.91030542048055, 0.2110984460077474, 0.1};
Point(p16 + 24) = {16.00497922249328, 0.05660484246636766, 0.1};
Point(p16 + 25) = {16.12265555712321, -0.08117644287679349, 0.1};
Point(p16 + 26) = {16.26043684246637, -0.1988527775067179, 0.1};
Point(p16 + 27) = {16.41493044600775, -0.2935265795194534, 0.1};
Point(p16 + 28) = {16.58233222249328, -0.3628666657051115, 0.1};
Point(p16 + 29) = {16.75852018461126, -0.4051656530152491, 0.1};
Point(p16 + 30) = {16.939156, -0.419382, 0.1};
Point(p16 + 31) = {17.11979181538874, -0.4051656530152491, 0.1};
Point(p16 + 32) = {17.29597977750672, -0.3628666657051117, 0.1};
Point(p16 + 33) = {17.46338155399225, -0.2935265795194536, 0.1};
Point(p16 + 34) = {17.61787515753363, -0.1988527775067183, 0.1};
Point(p16 + 35) = {17.75565644287679, -0.08117644287679371, 0.1};
Point(p16 + 36) = {17.87333277750672, 0.05660484246636732, 0.1};
Point(p16 + 37) = {17.96800657951945, 0.2110984460077466, 0.1};
Point(p16 + 38) = {18.03734666570511, 0.3785002224932817, 0.1};
Point(p16 + 39) = {18.07964565301525, 0.5546881846112548, 0.1};
Spline(16) = {11, p16 + 1, p16 + 2, p16 + 3, p16 + 4, p16 + 5, p16 + 6, p16 + 7, p16 + 8, p16 + 9, p16 + 10, p16 + 11, p16 + 12, p16 + 13, p16 + 14, p16 + 15, p16 + 16, p16 + 17, p16 + 18, p16 + 19, p16 + 20, p16 + 21, p16 + 22, p16 + 23, p16 + 24, p16 + 25, p16 + 26, p16 + 27, p16 + 28, p16 + 29, p16 + 30, p16 + 31, p16 + 32, p16 + 33, p16 + 34, p16 + 35, p16 + 36, p16 + 37, p16 + 38, p16 + 39, 11};
Line(17) = {12, 11};
p18 = newp;
Point(p18 + 1) = {18.07964565301525, 0.9159598153887448, 0};
Point(p18 + 2) = {18.03734666570511, 1.092147777506718, 0};
Point(p18 + 3) = {17.96800657951945, 1.259549553992253, 0};
Point(p18 + 4) = {17.87333277750672, 1.414043157533633, 0};
Point(p18 + 5) = {17.75565644287679, 1.551824442876793, 0};
Point(p18 + 6) = {17.61787515753363, 1.669500777506718, 0};
Point(p18 + 7) = {17.46338155399225, 1.764174579519453, 0};
Point(p18 + 8) = {17.29597977750672, 1.833514665705112, 0};
Point(p18 + 9) = {17.11979181538874, 1.875813653015249, 0};
Point(p18 + 10) = {16.939156, 1.89003, 0};
Point(p18 + 11) = {16.75852018461126, 1.875813653015249, 0};
Point(p18 + 12) = {16.58233222249328, 1.833514665705112, 0};
Point(p18 + 13) = {16.41493044600775, 1.764174579519453, 0};
Point(p18 + 14) = {16.26043684246637, 1.669500777506718, 0};
Point(p18 + 15) = {16.12265555712321, 1.551824442876794, 0};
Point(p18 + 16) = {16.00497922249328, 1.414043157533633, 0};
Point(p18 + 17) = {15.91030542048055, 1.259549553992253, 0};
Point(p18 + 18) = {15.84096533429489, 1.092147777506718, 0};
Point(p18 + 19) = {15.79866634698475, 0.9159598153887449, 0};
Point(p18 + 20) = {15.78445, 0.7353240000000001, 0};
Point(p18 + 21) = {15.79866634698475, 0.5546881846112552, 0};
Point(p18 + 22) = {15.84096533429489, 0.3785002224932816, 0};
Point(p18 + 23) = {15.91030542048055, 0.2110984460077474, 0};
Point(p18 + 24) = {16.00497922249328, 0.05660484246636766, 0};
Point(p18 + 25) = {16.12265555712321, -0.08117644287679349, 0};
Point(p18 + 26) = {16.26043684246637, -0.1988527775067179, 0};
Point(p18 + 27) = {16.41493044600775, -0.2935265795194534, 0};
Point(p18 + 28) = {16.58233222249328, -0.3628666657051115, 0};
Point(p18 + 29) = {16.75852018461126, -0.4051656530152491, 0};
Point(p18 + 30) = {16.939156, -0.419382, 0};
Point(p18 + 31) = {17.11979181538874, -0.4051656530152491, 0};
Point(p18 + 32) = {17.29597977750672, -0.3628666657051117, 0};
Point(p18 + 33) = {17.46338155399225, -0.2935265795194536, 0};
Point(p18 + 34) = {17.61787515753363, -0.1988527775067183, 0};
Point(p18 + 35) = {17.75565644287679, -0.08117644287679371, 0};
Point(p18 + 36) = {17.87333277750672, 0.05660484246636732, 0};
Point(p18 + 37) = {17.96800657951945, 0.2110984460077466, 0};
Point(p18 + 38) = {18.03734666570511, 0.3785002224932817, 0};
Point(p18 + 39) = {18.07964565301525, 0.5546881846112548, 0};
Spline(18) = {12, p18 + 1, p18 + 2, p18 + 3, p18 + 4, p18 + 5, p18 + 6, p18 + 7, p18 + 8, p18 + 9, p18 + 10, p18 + 11, p18 + 12, p18 + 13, p18 + 14, p18 + 15, p18 + 16, p18 + 17, p18 + 18, p18 + 19, p18 + 20, p18 + 21, p18 + 22, p18 + 23, p18 + 24, p18 + 25, p18 + 26, p18 + 27, p18 + 28, p18 + 29, p18 + 30, p18 + 31, p18 + 32, p18 + 33, p18 + 34, p18 + 35, p18 + 36, p18 + 37, p18 + 38, p18 + 39, 12};
Line(19) = {14, 13};
Line(20) = {13, 15};
Line(21) = {16, 15};
Line(22) = {14, 16};
Line(23) = {14, 17};
Line(24) = {17, 18};
Line(25) = {13, 18};
Line(26) = {15, 19};
Line(27) = {18, 19};
Line(28) = {16, 20};
Line(29) = {20, 19};
Line(30) = {17, 20};
Curve Loop(7) = {-13, -14, 15, 14};
Surface(7) = {7};
Curve Loop(8) = {13};
Plane Surface(8) = {8};
Curve Loop(9) = {15};
Plane Surface(9) = {9};
Curve Loop(10) = {-16, -17, 18, 17};
Surface(10) = {10};
Curve Loop(11) = {16};
Plane Surface(11) = {11};
Curve Loop(12) = {18};
Plane Surface(12) = {12};
Curve Loop(13) = {-19, 22, 21, -20};
Plane Surface(13) = {13};
Curve Loop(14) = {-23, 19, 25, -24};
Plane Surface(14) = {14};
Curve Loop(15) = {-20, 25, 27, -26, -16, -13};
Plane Surface(15) = {15};
Curve Loop(16) = {-28, 21, 26, -29};
Plane Surface(16) = {16};
Curve Loop(17) = {-22, 23, 30, -28, -18, -15};
Plane Surface(17) = {17};
Curve Loop(18) = {-24, 30, 29, -27};
Plane Surface(18) = {18};
Surface Loop(1) = {13, 14, 15, 16, 17, 18, 10, 7};
Volume(1) = {1};
Surface Loop(2) = {7, 8, 9};
Volume(2) = {2};
Surface Loop(3) = {10, 11, 12};
Volume(3) = {3};
Physical Surface("WALLS") = {13, 18};
Physical Surface("LOAD") = {8, 11};
Physical Surface("BORDER") = {7, 9, 10, 12, 14, 15, 16, 17};
Physical Volume("SOLID") = {1, 2, 3};
