cl__1 = 0.114147;
cl__2 = 0.118087;
cl__3 = 1.057399;
cl__4 = 1.487338;
cl__5 = 1.032021;
cl__6 = 0.829176;
Point(9) = {23.992767, 1.524175, 0.1, cl__1};
Point(10) = {23.992767, 1.524175, 0, cl__1};
Point(11) = {10.082025, -0.9325040000000002, 0.1, cl__2};
Point(12) = {10.082025, -0.9325040000000002, 0, cl__2};
Point(13) = {0.029763, -4.612224, 0.1, cl__3};
Point(14) = {0.029763, -4.612224, 0, cl__3};
Point(15) = {0.029763, 4.903393, 0.1, cl__4};
Point(16) = {0.029763, 4.903393, 0, cl__4};
Point(17) = {30.099487, -4.612224, 0, cl__5};
Point(18) = {30.099487, -4.612224, 0.1, cl__5};
Point(19) = {30.099487, 4.903393, 0.1, cl__6};
Point(20) = {30.099487, 4.903393, 0, cl__6};
p13 = newp;
Point(p13 + 1) = {23.97871365938577, 1.702739623071612, 0.1};
Point(p13 + 2) = {23.93689967742936, 1.876907392501194, 0.1};
Point(p13 + 3) = {23.8683546531392, 2.042389719775702, 0.1};
Point(p13 + 4) = {23.77476639250119, 2.19511188079328, 0.1};
Point(p13 + 5) = {23.65843934909388, 2.331313349093884, 0.1};
Point(p13 + 6) = {23.52223788079328, 2.447640392501194, 0.1};
Point(p13 + 7) = {23.3695157197757, 2.5412286531392, 0.1};
Point(p13 + 8) = {23.2040333925012, 2.609773677429364, 0.1};
Point(p13 + 9) = {23.02986562307161, 2.65158765938577, 0.1};
Point(p13 + 10) = {22.851301, 2.665641, 0.1};
Point(p13 + 11) = {22.67273637692839, 2.651587659385769, 0.1};
Point(p13 + 12) = {22.49856860749881, 2.609773677429364, 0.1};
Point(p13 + 13) = {22.3330862802243, 2.5412286531392, 0.1};
Point(p13 + 14) = {22.18036411920672, 2.447640392501194, 0.1};
Point(p13 + 15) = {22.04416265090612, 2.331313349093884, 0.1};
Point(p13 + 16) = {21.92783560749881, 2.19511188079328, 0.1};
Point(p13 + 17) = {21.8342473468608, 2.042389719775702, 0.1};
Point(p13 + 18) = {21.76570232257064, 1.876907392501194, 0.1};
Point(p13 + 19) = {21.72388834061423, 1.702739623071612, 0.1};
Point(p13 + 20) = {21.709835, 1.524175, 0.1};
Point(p13 + 21) = {21.72388834061423, 1.345610376928388, 0.1};
Point(p13 + 22) = {21.76570232257064, 1.171442607498806, 0.1};
Point(p13 + 23) = {21.8342473468608, 1.005960280224299, 0.1};
Point(p13 + 24) = {21.92783560749881, 0.85323811920672, 0.1};
Point(p13 + 25) = {22.04416265090612, 0.7170366509061165, 0.1};
Point(p13 + 26) = {22.18036411920672, 0.6007096074988063, 0.1};
Point(p13 + 27) = {22.3330862802243, 0.5071213468608005, 0.1};
Point(p13 + 28) = {22.4985686074988, 0.4385763225706363, 0.1};
Point(p13 + 29) = {22.67273637692839, 0.3967623406142307, 0.1};
Point(p13 + 30) = {22.851301, 0.382709, 0.1};
Point(p13 + 31) = {23.02986562307161, 0.3967623406142304, 0.1};
Point(p13 + 32) = {23.20403339250119, 0.4385763225706361, 0.1};
Point(p13 + 33) = {23.3695157197757, 0.5071213468608002, 0.1};
Point(p13 + 34) = {23.52223788079328, 0.6007096074988061, 0.1};
Point(p13 + 35) = {23.65843934909388, 0.7170366509061161, 0.1};
Point(p13 + 36) = {23.77476639250119, 0.8532381192067198, 0.1};
Point(p13 + 37) = {23.8683546531392, 1.005960280224298, 0.1};
Point(p13 + 38) = {23.93689967742936, 1.171442607498806, 0.1};
Point(p13 + 39) = {23.97871365938577, 1.345610376928388, 0.1};
Spline(13) = {9, p13 + 1, p13 + 2, p13 + 3, p13 + 4, p13 + 5, p13 + 6, p13 + 7, p13 + 8, p13 + 9, p13 + 10, p13 + 11, p13 + 12, p13 + 13, p13 + 14, p13 + 15, p13 + 16, p13 + 17, p13 + 18, p13 + 19, p13 + 20, p13 + 21, p13 + 22, p13 + 23, p13 + 24, p13 + 25, p13 + 26, p13 + 27, p13 + 28, p13 + 29, p13 + 30, p13 + 31, p13 + 32, p13 + 33, p13 + 34, p13 + 35, p13 + 36, p13 + 37, p13 + 38, p13 + 39, 9};
Line(14) = {10, 9};
p15 = newp;
Point(p15 + 1) = {23.97871365938577, 1.702739623071612, 0};
Point(p15 + 2) = {23.93689967742936, 1.876907392501194, 0};
Point(p15 + 3) = {23.8683546531392, 2.042389719775702, 0};
Point(p15 + 4) = {23.77476639250119, 2.19511188079328, 0};
Point(p15 + 5) = {23.65843934909388, 2.331313349093884, 0};
Point(p15 + 6) = {23.52223788079328, 2.447640392501194, 0};
Point(p15 + 7) = {23.3695157197757, 2.5412286531392, 0};
Point(p15 + 8) = {23.2040333925012, 2.609773677429364, 0};
Point(p15 + 9) = {23.02986562307161, 2.65158765938577, 0};
Point(p15 + 10) = {22.851301, 2.665641, 0};
Point(p15 + 11) = {22.67273637692839, 2.651587659385769, 0};
Point(p15 + 12) = {22.49856860749881, 2.609773677429364, 0};
Point(p15 + 13) = {22.3330862802243, 2.5412286531392, 0};
Point(p15 + 14) = {22.18036411920672, 2.447640392501194, 0};
Point(p15 + 15) = {22.04416265090612, 2.331313349093884, 0};
Point(p15 + 16) = {21.92783560749881, 2.19511188079328, 0};
Point(p15 + 17) = {21.8342473468608, 2.042389719775702, 0};
Point(p15 + 18) = {21.76570232257064, 1.876907392501194, 0};
Point(p15 + 19) = {21.72388834061423, 1.702739623071612, 0};
Point(p15 + 20) = {21.709835, 1.524175, 0};
Point(p15 + 21) = {21.72388834061423, 1.345610376928388, 0};
Point(p15 + 22) = {21.76570232257064, 1.171442607498806, 0};
Point(p15 + 23) = {21.8342473468608, 1.005960280224299, 0};
Point(p15 + 24) = {21.92783560749881, 0.85323811920672, 0};
Point(p15 + 25) = {22.04416265090612, 0.7170366509061165, 0};
Point(p15 + 26) = {22.18036411920672, 0.6007096074988063, 0};
Point(p15 + 27) = {22.3330862802243, 0.5071213468608005, 0};
Point(p15 + 28) = {22.4985686074988, 0.4385763225706363, 0};
Point(p15 + 29) = {22.67273637692839, 0.3967623406142307, 0};
Point(p15 + 30) = {22.851301, 0.382709, 0};
Point(p15 + 31) = {23.02986562307161, 0.3967623406142304, 0};
Point(p15 + 32) = {23.20403339250119, 0.4385763225706361, 0};
Point(p15 + 33) = {23.3695157197757, 0.5071213468608002, 0};
Point(p15 + 34) = {23.52223788079328, 0.6007096074988061, 0};
Point(p15 + 35) = {23.65843934909388, 0.7170366509061161, 0};
Point(p15 + 36) = {23.77476639250119, 0.8532381192067198, 0};
Point(p15 + 37) = {23.8683546531392, 1.005960280224298, 0};
Point(p15 + 38) = {23.93689967742936, 1.171442607498806, 0};
Point(p15 + 39) = {23.97871365938577, 1.345610376928388, 0};
Spline(15) = {10, p15 + 1, p15 + 2, p15 + 3, p15 + 4, p15 + 5, p15 + 6, p15 + 7, p15 + 8, p15 + 9, p15 + 10, p15 + 11, p15 + 12, p15 + 13, p15 + 14, p15 + 15, p15 + 16, p15 + 17, p15 + 18, p15 + 19, p15 + 20, p15 + 21, p15 + 22, p15 + 23, p15 + 24, p15 + 25, p15 + 26, p15 + 27, p15 + 28, p15 + 29, p15 + 30, p15 + 31, p15 + 32, p15 + 33, p15 + 34, p15 + 35, p15 + 36, p15 + 37, p15 + 38, p15 + 39, 10};
p16 = newp;
Point(p16 + 1) = {10.06748651844692, -0.7477750768334775, 0.1};
Point(p16 + 2) = {10.02422905945397, -0.5675947928354614, 0.1};
Point(p16 + 3) = {9.953317765224842, -0.3963997845820617, 0.1};
Point(p16 + 4) = {9.856498707164539, -0.238405441340135, 0.1};
Point(p16 + 5) = {9.73615589180654, -0.0975021081934605, 0.1};
Point(p16 + 6) = {9.595252558659865, 0.02284070716453845, 0.1};
Point(p16 + 7) = {9.437258215417938, 0.1196597652248421, 0.1};
Point(p16 + 8) = {9.266063207164539, 0.1905710594539742, 0.1};
Point(p16 + 9) = {9.085882923166523, 0.2338285184469209, 0.1};
Point(p16 + 10) = {8.901154, 0.248367, 0.1};
Point(p16 + 11) = {8.716425076833477, 0.2338285184469209, 0.1};
Point(p16 + 12) = {8.536244792835461, 0.1905710594539745, 0.1};
Point(p16 + 13) = {8.365049784582062, 0.1196597652248421, 0.1};
Point(p16 + 14) = {8.207055441340135, 0.02284070716453857, 0.1};
Point(p16 + 15) = {8.06615210819346, -0.09750210819346039, 0.1};
Point(p16 + 16) = {7.945809292835461, -0.2384054413401349, 0.1};
Point(p16 + 17) = {7.848990234775158, -0.3963997845820616, 0.1};
Point(p16 + 18) = {7.778078940546026, -0.5675947928354614, 0.1};
Point(p16 + 19) = {7.734821481553079, -0.7477750768334774, 0.1};
Point(p16 + 20) = {7.720283, -0.9325039999999999, 0.1};
Point(p16 + 21) = {7.734821481553079, -1.117232923166522, 0.1};
Point(p16 + 22) = {7.778078940546026, -1.297413207164539, 0.1};
Point(p16 + 23) = {7.848990234775157, -1.468608215417938, 0.1};
Point(p16 + 24) = {7.945809292835461, -1.626602558659865, 0.1};
Point(p16 + 25) = {8.06615210819346, -1.76750589180654, 0.1};
Point(p16 + 26) = {8.207055441340135, -1.887848707164538, 0.1};
Point(p16 + 27) = {8.365049784582062, -1.984667765224842, 0.1};
Point(p16 + 28) = {8.536244792835461, -2.055579059453974, 0.1};
Point(p16 + 29) = {8.716425076833477, -2.098836518446921, 0.1};
Point(p16 + 30) = {8.901154, -2.113375, 0.1};
Point(p16 + 31) = {9.085882923166523, -2.098836518446921, 0.1};
Point(p16 + 32) = {9.266063207164539, -2.055579059453974, 0.1};
Point(p16 + 33) = {9.437258215417938, -1.984667765224842, 0.1};
Point(p16 + 34) = {9.595252558659865, -1.887848707164539, 0.1};
Point(p16 + 35) = {9.73615589180654, -1.76750589180654, 0.1};
Point(p16 + 36) = {9.856498707164539, -1.626602558659865, 0.1};
Point(p16 + 37) = {9.953317765224842, -1.468608215417939, 0.1};
Point(p16 + 38) = {10.02422905945397, -1.297413207164539, 0.1};
Point(p16 + 39) = {10.06748651844692, -1.117232923166523, 0.1};
Spline(16) = {11, p16 + 1, p16 + 2, p16 + 3, p16 + 4, p16 + 5, p16 + 6, p16 + 7, p16 + 8, p16 + 9, p16 + 10, p16 + 11, p16 + 12, p16 + 13, p16 + 14, p16 + 15, p16 + 16, p16 + 17, p16 + 18, p16 + 19, p16 + 20, p16 + 21, p16 + 22, p16 + 23, p16 + 24, p16 + 25, p16 + 26, p16 + 27, p16 + 28, p16 + 29, p16 + 30, p16 + 31, p16 + 32, p16 + 33, p16 + 34, p16 + 35, p16 + 36, p16 + 37, p16 + 38, p16 + 39, 11};
Line(17) = {12, 11};
p18 = newp;
Point(p18 + 1) = {10.06748651844692, -0.7477750768334775, 0};
Point(p18 + 2) = {10.02422905945397, -0.5675947928354614, 0};
Point(p18 + 3) = {9.953317765224842, -0.3963997845820617, 0};
Point(p18 + 4) = {9.856498707164539, -0.238405441340135, 0};
Point(p18 + 5) = {9.73615589180654, -0.0975021081934605, 0};
Point(p18 + 6) = {9.595252558659865, 0.02284070716453845, 0};
Point(p18 + 7) = {9.437258215417938, 0.1196597652248421, 0};
Point(p18 + 8) = {9.266063207164539, 0.1905710594539742, 0};
Point(p18 + 9) = {9.085882923166523, 0.2338285184469209, 0};
Point(p18 + 10) = {8.901154, 0.248367, 0};
Point(p18 + 11) = {8.716425076833477, 0.2338285184469209, 0};
Point(p18 + 12) = {8.536244792835461, 0.1905710594539745, 0};
Point(p18 + 13) = {8.365049784582062, 0.1196597652248421, 0};
Point(p18 + 14) = {8.207055441340135, 0.02284070716453857, 0};
Point(p18 + 15) = {8.06615210819346, -0.09750210819346039, 0};
Point(p18 + 16) = {7.945809292835461, -0.2384054413401349, 0};
Point(p18 + 17) = {7.848990234775158, -0.3963997845820616, 0};
Point(p18 + 18) = {7.778078940546026, -0.5675947928354614, 0};
Point(p18 + 19) = {7.734821481553079, -0.7477750768334774, 0};
Point(p18 + 20) = {7.720283, -0.9325039999999999, 0};
Point(p18 + 21) = {7.734821481553079, -1.117232923166522, 0};
Point(p18 + 22) = {7.778078940546026, -1.297413207164539, 0};
Point(p18 + 23) = {7.848990234775157, -1.468608215417938, 0};
Point(p18 + 24) = {7.945809292835461, -1.626602558659865, 0};
Point(p18 + 25) = {8.06615210819346, -1.76750589180654, 0};
Point(p18 + 26) = {8.207055441340135, -1.887848707164538, 0};
Point(p18 + 27) = {8.365049784582062, -1.984667765224842, 0};
Point(p18 + 28) = {8.536244792835461, -2.055579059453974, 0};
Point(p18 + 29) = {8.716425076833477, -2.098836518446921, 0};
Point(p18 + 30) = {8.901154, -2.113375, 0};
Point(p18 + 31) = {9.085882923166523, -2.098836518446921, 0};
Point(p18 + 32) = {9.266063207164539, -2.055579059453974, 0};
Point(p18 + 33) = {9.437258215417938, -1.984667765224842, 0};
Point(p18 + 34) = {9.595252558659865, -1.887848707164539, 0};
Point(p18 + 35) = {9.73615589180654, -1.76750589180654, 0};
Point(p18 + 36) = {9.856498707164539, -1.626602558659865, 0};
Point(p18 + 37) = {9.953317765224842, -1.468608215417939, 0};
Point(p18 + 38) = {10.02422905945397, -1.297413207164539, 0};
Point(p18 + 39) = {10.06748651844692, -1.117232923166523, 0};
Spline(18) = {12, p18 + 1, p18 + 2, p18 + 3, p18 + 4, p18 + 5, p18 + 6, p18 + 7, p18 + 8, p18 + 9, p18 + 10, p18 + 11, p18 + 12, p18 + 13, p18 + 14, p18 + 15, p18 + 16, p18 + 17, p18 + 18, p18 + 19, p18 + 20, p18 + 21, p18 + 22, p18 + 23, p18 + 24, p18 + 25, p18 + 26, p18 + 27, p18 + 28, p18 + 29, p18 + 30, p18 + 31, p18 + 32, p18 + 33, p18 + 34, p18 + 35, p18 + 36, p18 + 37, p18 + 38, p18 + 39, 12};
Line(19) = {14, 13};
Line(20) = {13, 15};
Line(21) = {16, 15};
Line(22) = {14, 16};
Line(23) = {14, 17};
Line(24) = {17, 18};
Line(25) = {13, 18};
Line(26) = {15, 19};
Line(27) = {18, 19};
Line(28) = {16, 20};
Line(29) = {20, 19};
Line(30) = {17, 20};
Curve Loop(7) = {-13, -14, 15, 14};
Surface(7) = {7};
Curve Loop(8) = {13};
Plane Surface(8) = {8};
Curve Loop(9) = {15};
Plane Surface(9) = {9};
Curve Loop(10) = {-16, -17, 18, 17};
Surface(10) = {10};
Curve Loop(11) = {16};
Plane Surface(11) = {11};
Curve Loop(12) = {18};
Plane Surface(12) = {12};
Curve Loop(13) = {-19, 22, 21, -20};
Plane Surface(13) = {13};
Curve Loop(14) = {-23, 19, 25, -24};
Plane Surface(14) = {14};
Curve Loop(15) = {-20, 25, 27, -26, -16, -13};
Plane Surface(15) = {15};
Curve Loop(16) = {-28, 21, 26, -29};
Plane Surface(16) = {16};
Curve Loop(17) = {-22, 23, 30, -28, -18, -15};
Plane Surface(17) = {17};
Curve Loop(18) = {-24, 30, 29, -27};
Plane Surface(18) = {18};
Surface Loop(1) = {13, 14, 15, 16, 17, 18, 10, 7};
Volume(1) = {1};
Surface Loop(2) = {7, 8, 9};
Volume(2) = {2};
Surface Loop(3) = {10, 11, 12};
Volume(3) = {3};
Physical Surface("WALLS") = {13, 18};
Physical Surface("LOAD") = {8, 11};
Physical Surface("BORDER") = {7, 9, 10, 12, 14, 15, 16, 17};
Physical Volume("SOLID") = {1, 2, 3};
