cl__1 = 0.085186;
cl__2 = 0.11283;
cl__3 = 0.568546;
cl__4 = 0.703554;
cl__5 = 2.528793;
cl__6 = 2.546099;
Point(9) = {27.552789, 0.05123799999999978, 0.1, cl__1};
Point(10) = {27.552789, 0.05123799999999978, 0, cl__1};
Point(11) = {6.330704, -0.8035120000000003, 0.1, cl__2};
Point(12) = {6.330704, -0.8035120000000003, 0, cl__2};
Point(13) = {0.255534, -3.954075, 0.1, cl__3};
Point(14) = {0.255534, -3.954075, 0, cl__3};
Point(15) = {0.255534, 4.134576000000001, 0.1, cl__4};
Point(16) = {0.255534, 4.134576000000001, 0, cl__4};
Point(17) = {38.227078, -3.954075, 0, cl__5};
Point(18) = {38.227078, -3.954075, 0.1, cl__5};
Point(19) = {38.227078, 4.134576000000001, 0.1, cl__6};
Point(20) = {38.227078, 4.134576000000001, 0, cl__6};
p13 = newp;
Point(p13 + 1) = {27.54230123906601, 0.1844976376513109, 0.1};
Point(p13 + 2) = {27.51109619974512, 0.3144759807602652, 0.1};
Point(p13 + 3) = {27.45994225366901, 0.4379725311461313, 0.1};
Point(p13 + 4) = {27.39009898076026, 0.551946393876857, 0.1};
Point(p13 + 5) = {27.30328615419445, 0.6535911541944476, 0.1};
Point(p13 + 6) = {27.20164139387686, 0.7404039807602651, 0.1};
Point(p13 + 7) = {27.08766753114613, 0.8102472536690062, 0.1};
Point(p13 + 8) = {26.96417098076027, 0.8614011997451243, 0.1};
Point(p13 + 9) = {26.83419263765131, 0.8926062390660117, 0.1};
Point(p13 + 10) = {26.700933, 0.903094, 0.1};
Point(p13 + 11) = {26.56767336234869, 0.8926062390660116, 0.1};
Point(p13 + 12) = {26.43769501923973, 0.8614011997451243, 0.1};
Point(p13 + 13) = {26.31419846885387, 0.8102472536690063, 0.1};
Point(p13 + 14) = {26.20022460612314, 0.7404039807602651, 0.1};
Point(p13 + 15) = {26.09857984580555, 0.6535911541944477, 0.1};
Point(p13 + 16) = {26.01176701923973, 0.5519463938768571, 0.1};
Point(p13 + 17) = {25.94192374633099, 0.4379725311461314, 0.1};
Point(p13 + 18) = {25.89076980025488, 0.3144759807602653, 0.1};
Point(p13 + 19) = {25.85956476093399, 0.184497637651311, 0.1};
Point(p13 + 20) = {25.849077, 0.0512380000000001, 0.1};
Point(p13 + 21) = {25.85956476093399, -0.08202163765131079, 0.1};
Point(p13 + 22) = {25.89076980025488, -0.2119999807602654, 0.1};
Point(p13 + 23) = {25.94192374633099, -0.3354965311461309, 0.1};
Point(p13 + 24) = {26.01176701923973, -0.4494703938768568, 0.1};
Point(p13 + 25) = {26.09857984580555, -0.5511151541944476, 0.1};
Point(p13 + 26) = {26.20022460612314, -0.6379279807602651, 0.1};
Point(p13 + 27) = {26.31419846885387, -0.7077712536690062, 0.1};
Point(p13 + 28) = {26.43769501923973, -0.7589251997451243, 0.1};
Point(p13 + 29) = {26.56767336234869, -0.7901302390660115, 0.1};
Point(p13 + 30) = {26.700933, -0.8006179999999999, 0.1};
Point(p13 + 31) = {26.83419263765131, -0.7901302390660117, 0.1};
Point(p13 + 32) = {26.96417098076027, -0.7589251997451243, 0.1};
Point(p13 + 33) = {27.08766753114613, -0.7077712536690064, 0.1};
Point(p13 + 34) = {27.20164139387686, -0.6379279807602652, 0.1};
Point(p13 + 35) = {27.30328615419445, -0.5511151541944477, 0.1};
Point(p13 + 36) = {27.39009898076026, -0.4494703938768571, 0.1};
Point(p13 + 37) = {27.45994225366901, -0.3354965311461315, 0.1};
Point(p13 + 38) = {27.51109619974512, -0.2119999807602654, 0.1};
Point(p13 + 39) = {27.54230123906601, -0.0820216376513111, 0.1};
Spline(13) = {9, p13 + 1, p13 + 2, p13 + 3, p13 + 4, p13 + 5, p13 + 6, p13 + 7, p13 + 8, p13 + 9, p13 + 10, p13 + 11, p13 + 12, p13 + 13, p13 + 14, p13 + 15, p13 + 16, p13 + 17, p13 + 18, p13 + 19, p13 + 20, p13 + 21, p13 + 22, p13 + 23, p13 + 24, p13 + 25, p13 + 26, p13 + 27, p13 + 28, p13 + 29, p13 + 30, p13 + 31, p13 + 32, p13 + 33, p13 + 34, p13 + 35, p13 + 36, p13 + 37, p13 + 38, p13 + 39, 9};
Line(14) = {10, 9};
p15 = newp;
Point(p15 + 1) = {27.54230123906601, 0.1844976376513109, 0};
Point(p15 + 2) = {27.51109619974512, 0.3144759807602652, 0};
Point(p15 + 3) = {27.45994225366901, 0.4379725311461313, 0};
Point(p15 + 4) = {27.39009898076026, 0.551946393876857, 0};
Point(p15 + 5) = {27.30328615419445, 0.6535911541944476, 0};
Point(p15 + 6) = {27.20164139387686, 0.7404039807602651, 0};
Point(p15 + 7) = {27.08766753114613, 0.8102472536690062, 0};
Point(p15 + 8) = {26.96417098076027, 0.8614011997451243, 0};
Point(p15 + 9) = {26.83419263765131, 0.8926062390660117, 0};
Point(p15 + 10) = {26.700933, 0.903094, 0};
Point(p15 + 11) = {26.56767336234869, 0.8926062390660116, 0};
Point(p15 + 12) = {26.43769501923973, 0.8614011997451243, 0};
Point(p15 + 13) = {26.31419846885387, 0.8102472536690063, 0};
Point(p15 + 14) = {26.20022460612314, 0.7404039807602651, 0};
Point(p15 + 15) = {26.09857984580555, 0.6535911541944477, 0};
Point(p15 + 16) = {26.01176701923973, 0.5519463938768571, 0};
Point(p15 + 17) = {25.94192374633099, 0.4379725311461314, 0};
Point(p15 + 18) = {25.89076980025488, 0.3144759807602653, 0};
Point(p15 + 19) = {25.85956476093399, 0.184497637651311, 0};
Point(p15 + 20) = {25.849077, 0.0512380000000001, 0};
Point(p15 + 21) = {25.85956476093399, -0.08202163765131079, 0};
Point(p15 + 22) = {25.89076980025488, -0.2119999807602654, 0};
Point(p15 + 23) = {25.94192374633099, -0.3354965311461309, 0};
Point(p15 + 24) = {26.01176701923973, -0.4494703938768568, 0};
Point(p15 + 25) = {26.09857984580555, -0.5511151541944476, 0};
Point(p15 + 26) = {26.20022460612314, -0.6379279807602651, 0};
Point(p15 + 27) = {26.31419846885387, -0.7077712536690062, 0};
Point(p15 + 28) = {26.43769501923973, -0.7589251997451243, 0};
Point(p15 + 29) = {26.56767336234869, -0.7901302390660115, 0};
Point(p15 + 30) = {26.700933, -0.8006179999999999, 0};
Point(p15 + 31) = {26.83419263765131, -0.7901302390660117, 0};
Point(p15 + 32) = {26.96417098076027, -0.7589251997451243, 0};
Point(p15 + 33) = {27.08766753114613, -0.7077712536690064, 0};
Point(p15 + 34) = {27.20164139387686, -0.6379279807602652, 0};
Point(p15 + 35) = {27.30328615419445, -0.5511151541944477, 0};
Point(p15 + 36) = {27.39009898076026, -0.4494703938768571, 0};
Point(p15 + 37) = {27.45994225366901, -0.3354965311461315, 0};
Point(p15 + 38) = {27.51109619974512, -0.2119999807602654, 0};
Point(p15 + 39) = {27.54230123906601, -0.0820216376513111, 0};
Spline(15) = {10, p15 + 1, p15 + 2, p15 + 3, p15 + 4, p15 + 5, p15 + 6, p15 + 7, p15 + 8, p15 + 9, p15 + 10, p15 + 11, p15 + 12, p15 + 13, p15 + 14, p15 + 15, p15 + 16, p15 + 17, p15 + 18, p15 + 19, p15 + 20, p15 + 21, p15 + 22, p15 + 23, p15 + 24, p15 + 25, p15 + 26, p15 + 27, p15 + 28, p15 + 29, p15 + 30, p15 + 31, p15 + 32, p15 + 33, p15 + 34, p15 + 35, p15 + 36, p15 + 37, p15 + 38, p15 + 39, 10};
p16 = newp;
Point(p16 + 1) = {6.316812803940132, -0.6270076188329676, 0.1};
Point(p16 + 2) = {6.275481263109757, -0.4548493613147244, 0.1};
Point(p16 + 3) = {6.207727097215638, -0.2912763351058684, 0.1};
Point(p16 + 4) = {6.115218638685276, -0.1403162509794118, 0.1};
Point(p16 + 5) = {6.000233752785657, -0.005686247214343298, 0.1};
Point(p16 + 6) = {5.865603749020589, 0.1092986386852756, 0.1};
Point(p16 + 7) = {5.714643664894131, 0.2018070972156385, 0.1};
Point(p16 + 8) = {5.551070638685276, 0.2695612631097566, 0.1};
Point(p16 + 9) = {5.378912381167033, 0.3108928039401315, 0.1};
Point(p16 + 10) = {5.202408, 0.324784, 0.1};
Point(p16 + 11) = {5.025903618832968, 0.3108928039401313, 0.1};
Point(p16 + 12) = {4.853745361314725, 0.2695612631097566, 0.1};
Point(p16 + 13) = {4.690172335105869, 0.2018070972156387, 0.1};
Point(p16 + 14) = {4.539212250979412, 0.1092986386852757, 0.1};
Point(p16 + 15) = {4.404582247214344, -0.005686247214343187, 0.1};
Point(p16 + 16) = {4.289597361314724, -0.1403162509794116, 0.1};
Point(p16 + 17) = {4.197088902784362, -0.2912763351058683, 0.1};
Point(p16 + 18) = {4.129334736890243, -0.4548493613147243, 0.1};
Point(p16 + 19) = {4.088003196059869, -0.6270076188329675, 0.1};
Point(p16 + 20) = {4.074112, -0.8035119999999999, 0.1};
Point(p16 + 21) = {4.088003196059868, -0.9800163811670322, 0.1};
Point(p16 + 22) = {4.129334736890244, -1.152174638685276, 0.1};
Point(p16 + 23) = {4.197088902784361, -1.315747664894131, 0.1};
Point(p16 + 24) = {4.289597361314724, -1.466707749020588, 0.1};
Point(p16 + 25) = {4.404582247214343, -1.601337752785657, 0.1};
Point(p16 + 26) = {4.539212250979412, -1.716322638685276, 0.1};
Point(p16 + 27) = {4.690172335105868, -1.808831097215639, 0.1};
Point(p16 + 28) = {4.853745361314724, -1.876585263109757, 0.1};
Point(p16 + 29) = {5.025903618832968, -1.917916803940131, 0.1};
Point(p16 + 30) = {5.202408, -1.931808, 0.1};
Point(p16 + 31) = {5.378912381167032, -1.917916803940132, 0.1};
Point(p16 + 32) = {5.551070638685276, -1.876585263109757, 0.1};
Point(p16 + 33) = {5.714643664894131, -1.808831097215639, 0.1};
Point(p16 + 34) = {5.865603749020588, -1.716322638685276, 0.1};
Point(p16 + 35) = {6.000233752785657, -1.601337752785657, 0.1};
Point(p16 + 36) = {6.115218638685276, -1.466707749020588, 0.1};
Point(p16 + 37) = {6.207727097215638, -1.315747664894132, 0.1};
Point(p16 + 38) = {6.275481263109757, -1.152174638685276, 0.1};
Point(p16 + 39) = {6.316812803940131, -0.9800163811670326, 0.1};
Spline(16) = {11, p16 + 1, p16 + 2, p16 + 3, p16 + 4, p16 + 5, p16 + 6, p16 + 7, p16 + 8, p16 + 9, p16 + 10, p16 + 11, p16 + 12, p16 + 13, p16 + 14, p16 + 15, p16 + 16, p16 + 17, p16 + 18, p16 + 19, p16 + 20, p16 + 21, p16 + 22, p16 + 23, p16 + 24, p16 + 25, p16 + 26, p16 + 27, p16 + 28, p16 + 29, p16 + 30, p16 + 31, p16 + 32, p16 + 33, p16 + 34, p16 + 35, p16 + 36, p16 + 37, p16 + 38, p16 + 39, 11};
Line(17) = {12, 11};
p18 = newp;
Point(p18 + 1) = {6.316812803940132, -0.6270076188329676, 0};
Point(p18 + 2) = {6.275481263109757, -0.4548493613147244, 0};
Point(p18 + 3) = {6.207727097215638, -0.2912763351058684, 0};
Point(p18 + 4) = {6.115218638685276, -0.1403162509794118, 0};
Point(p18 + 5) = {6.000233752785657, -0.005686247214343298, 0};
Point(p18 + 6) = {5.865603749020589, 0.1092986386852756, 0};
Point(p18 + 7) = {5.714643664894131, 0.2018070972156385, 0};
Point(p18 + 8) = {5.551070638685276, 0.2695612631097566, 0};
Point(p18 + 9) = {5.378912381167033, 0.3108928039401315, 0};
Point(p18 + 10) = {5.202408, 0.324784, 0};
Point(p18 + 11) = {5.025903618832968, 0.3108928039401313, 0};
Point(p18 + 12) = {4.853745361314725, 0.2695612631097566, 0};
Point(p18 + 13) = {4.690172335105869, 0.2018070972156387, 0};
Point(p18 + 14) = {4.539212250979412, 0.1092986386852757, 0};
Point(p18 + 15) = {4.404582247214344, -0.005686247214343187, 0};
Point(p18 + 16) = {4.289597361314724, -0.1403162509794116, 0};
Point(p18 + 17) = {4.197088902784362, -0.2912763351058683, 0};
Point(p18 + 18) = {4.129334736890243, -0.4548493613147243, 0};
Point(p18 + 19) = {4.088003196059869, -0.6270076188329675, 0};
Point(p18 + 20) = {4.074112, -0.8035119999999999, 0};
Point(p18 + 21) = {4.088003196059868, -0.9800163811670322, 0};
Point(p18 + 22) = {4.129334736890244, -1.152174638685276, 0};
Point(p18 + 23) = {4.197088902784361, -1.315747664894131, 0};
Point(p18 + 24) = {4.289597361314724, -1.466707749020588, 0};
Point(p18 + 25) = {4.404582247214343, -1.601337752785657, 0};
Point(p18 + 26) = {4.539212250979412, -1.716322638685276, 0};
Point(p18 + 27) = {4.690172335105868, -1.808831097215639, 0};
Point(p18 + 28) = {4.853745361314724, -1.876585263109757, 0};
Point(p18 + 29) = {5.025903618832968, -1.917916803940131, 0};
Point(p18 + 30) = {5.202408, -1.931808, 0};
Point(p18 + 31) = {5.378912381167032, -1.917916803940132, 0};
Point(p18 + 32) = {5.551070638685276, -1.876585263109757, 0};
Point(p18 + 33) = {5.714643664894131, -1.808831097215639, 0};
Point(p18 + 34) = {5.865603749020588, -1.716322638685276, 0};
Point(p18 + 35) = {6.000233752785657, -1.601337752785657, 0};
Point(p18 + 36) = {6.115218638685276, -1.466707749020588, 0};
Point(p18 + 37) = {6.207727097215638, -1.315747664894132, 0};
Point(p18 + 38) = {6.275481263109757, -1.152174638685276, 0};
Point(p18 + 39) = {6.316812803940131, -0.9800163811670326, 0};
Spline(18) = {12, p18 + 1, p18 + 2, p18 + 3, p18 + 4, p18 + 5, p18 + 6, p18 + 7, p18 + 8, p18 + 9, p18 + 10, p18 + 11, p18 + 12, p18 + 13, p18 + 14, p18 + 15, p18 + 16, p18 + 17, p18 + 18, p18 + 19, p18 + 20, p18 + 21, p18 + 22, p18 + 23, p18 + 24, p18 + 25, p18 + 26, p18 + 27, p18 + 28, p18 + 29, p18 + 30, p18 + 31, p18 + 32, p18 + 33, p18 + 34, p18 + 35, p18 + 36, p18 + 37, p18 + 38, p18 + 39, 12};
Line(19) = {14, 13};
Line(20) = {13, 15};
Line(21) = {16, 15};
Line(22) = {14, 16};
Line(23) = {14, 17};
Line(24) = {17, 18};
Line(25) = {13, 18};
Line(26) = {15, 19};
Line(27) = {18, 19};
Line(28) = {16, 20};
Line(29) = {20, 19};
Line(30) = {17, 20};
Curve Loop(7) = {-13, -14, 15, 14};
Surface(7) = {7};
Curve Loop(8) = {13};
Plane Surface(8) = {8};
Curve Loop(9) = {15};
Plane Surface(9) = {9};
Curve Loop(10) = {-16, -17, 18, 17};
Surface(10) = {10};
Curve Loop(11) = {16};
Plane Surface(11) = {11};
Curve Loop(12) = {18};
Plane Surface(12) = {12};
Curve Loop(13) = {-19, 22, 21, -20};
Plane Surface(13) = {13};
Curve Loop(14) = {-23, 19, 25, -24};
Plane Surface(14) = {14};
Curve Loop(15) = {-20, 25, 27, -26, -16, -13};
Plane Surface(15) = {15};
Curve Loop(16) = {-28, 21, 26, -29};
Plane Surface(16) = {16};
Curve Loop(17) = {-22, 23, 30, -28, -18, -15};
Plane Surface(17) = {17};
Curve Loop(18) = {-24, 30, 29, -27};
Plane Surface(18) = {18};
Surface Loop(1) = {13, 14, 15, 16, 17, 18, 10, 7};
Volume(1) = {1};
Surface Loop(2) = {7, 8, 9};
Volume(2) = {2};
Surface Loop(3) = {10, 11, 12};
Volume(3) = {3};
Physical Surface("WALLS") = {13, 18};
Physical Surface("LOAD") = {8, 11};
Physical Surface("BORDER") = {7, 9, 10, 12, 14, 15, 16, 17};
Physical Volume("SOLID") = {1, 2, 3};
