cl__1 = 0.086557;
cl__2 = 0.056701;
cl__3 = 0.415653;
cl__4 = 0.431355;
cl__5 = 3.937284;
cl__6 = 3.899029;
Point(9) = {15.079663, 0.9265499999999998, 0.1, cl__1};
Point(10) = {15.079663, 0.9265499999999998, 0, cl__1};
Point(11) = {7.381364, 0.4572379999999998, 0.1, cl__2};
Point(12) = {7.381364, 0.4572379999999998, 0, cl__2};
Point(13) = {0.945322, -3.214055, 1, cl__3};
Point(14) = {0.945322, -3.214055, 0, cl__3};
Point(15) = {0.945322, 4.563361, 1, cl__4};
Point(16) = {0.945322, 4.563361, 0, cl__4};
Point(17) = {38.879779, -3.214055, 0, cl__5};
Point(18) = {38.879779, -3.214055, 1, cl__5};
Point(19) = {38.879779, 4.563361, 1, cl__6};
Point(20) = {38.879779, 4.563361, 0, cl__6};
p13 = newp;
Point(p13 + 1) = {15.06900638465727, 1.061955136339338, 0.1};
Point(p13 + 2) = {15.03729893986611, 1.194026148838118, 0.1};
Point(p13 + 3) = {14.98532140814825, 1.319511010850059, 0.1};
Point(p13 + 4) = {14.91435364883812, 1.435319868612048, 0.1};
Point(p13 + 5) = {14.82614312369842, 1.538601123698421, 0.1};
Point(p13 + 6) = {14.72286186861205, 1.626811648838117, 0.1};
Point(p13 + 7) = {14.60705301085006, 1.69777940814825, 0.1};
Point(p13 + 8) = {14.48156814883812, 1.749756939866112, 0.1};
Point(p13 + 9) = {14.34949713633934, 1.781464384657274, 0.1};
Point(p13 + 10) = {14.214092, 1.792121, 0.1};
Point(p13 + 11) = {14.07868686366066, 1.781464384657274, 0.1};
Point(p13 + 12) = {13.94661585116188, 1.749756939866112, 0.1};
Point(p13 + 13) = {13.82113098914994, 1.69777940814825, 0.1};
Point(p13 + 14) = {13.70532213138795, 1.626811648838117, 0.1};
Point(p13 + 15) = {13.60204087630158, 1.538601123698421, 0.1};
Point(p13 + 16) = {13.51383035116188, 1.435319868612048, 0.1};
Point(p13 + 17) = {13.44286259185175, 1.319511010850059, 0.1};
Point(p13 + 18) = {13.39088506013389, 1.194026148838118, 0.1};
Point(p13 + 19) = {13.35917761534273, 1.061955136339338, 0.1};
Point(p13 + 20) = {13.348521, 0.9265500000000001, 0.1};
Point(p13 + 21) = {13.35917761534273, 0.7911448636606624, 0.1};
Point(p13 + 22) = {13.39088506013389, 0.6590738511618821, 0.1};
Point(p13 + 23) = {13.44286259185175, 0.5335889891499412, 0.1};
Point(p13 + 24) = {13.51383035116188, 0.4177801313879518, 0.1};
Point(p13 + 25) = {13.60204087630158, 0.3144988763015789, 0.1};
Point(p13 + 26) = {13.70532213138795, 0.2262883511618825, 0.1};
Point(p13 + 27) = {13.82113098914994, 0.1553205918517503, 0.1};
Point(p13 + 28) = {13.94661585116188, 0.1033430601338877, 0.1};
Point(p13 + 29) = {14.07868686366066, 0.07163561534272611, 0.1};
Point(p13 + 30) = {14.214092, 0.06097900000000001, 0.1};
Point(p13 + 31) = {14.34949713633934, 0.071635615342726, 0.1};
Point(p13 + 32) = {14.48156814883812, 0.1033430601338876, 0.1};
Point(p13 + 33) = {14.60705301085006, 0.1553205918517501, 0.1};
Point(p13 + 34) = {14.72286186861205, 0.2262883511618823, 0.1};
Point(p13 + 35) = {14.82614312369842, 0.3144988763015787, 0.1};
Point(p13 + 36) = {14.91435364883812, 0.4177801313879517, 0.1};
Point(p13 + 37) = {14.98532140814825, 0.5335889891499406, 0.1};
Point(p13 + 38) = {15.03729893986611, 0.6590738511618822, 0.1};
Point(p13 + 39) = {15.06900638465727, 0.7911448636606622, 0.1};
Spline(13) = {9, p13 + 1, p13 + 2, p13 + 3, p13 + 4, p13 + 5, p13 + 6, p13 + 7, p13 + 8, p13 + 9, p13 + 10, p13 + 11, p13 + 12, p13 + 13, p13 + 14, p13 + 15, p13 + 16, p13 + 17, p13 + 18, p13 + 19, p13 + 20, p13 + 21, p13 + 22, p13 + 23, p13 + 24, p13 + 25, p13 + 26, p13 + 27, p13 + 28, p13 + 29, p13 + 30, p13 + 31, p13 + 32, p13 + 33, p13 + 34, p13 + 35, p13 + 36, p13 + 37, p13 + 38, p13 + 39, 9};
Line(14) = {10, 9};
p15 = newp;
Point(p15 + 1) = {15.06900638465727, 1.061955136339338, 0};
Point(p15 + 2) = {15.03729893986611, 1.194026148838118, 0};
Point(p15 + 3) = {14.98532140814825, 1.319511010850059, 0};
Point(p15 + 4) = {14.91435364883812, 1.435319868612048, 0};
Point(p15 + 5) = {14.82614312369842, 1.538601123698421, 0};
Point(p15 + 6) = {14.72286186861205, 1.626811648838117, 0};
Point(p15 + 7) = {14.60705301085006, 1.69777940814825, 0};
Point(p15 + 8) = {14.48156814883812, 1.749756939866112, 0};
Point(p15 + 9) = {14.34949713633934, 1.781464384657274, 0};
Point(p15 + 10) = {14.214092, 1.792121, 0};
Point(p15 + 11) = {14.07868686366066, 1.781464384657274, 0};
Point(p15 + 12) = {13.94661585116188, 1.749756939866112, 0};
Point(p15 + 13) = {13.82113098914994, 1.69777940814825, 0};
Point(p15 + 14) = {13.70532213138795, 1.626811648838117, 0};
Point(p15 + 15) = {13.60204087630158, 1.538601123698421, 0};
Point(p15 + 16) = {13.51383035116188, 1.435319868612048, 0};
Point(p15 + 17) = {13.44286259185175, 1.319511010850059, 0};
Point(p15 + 18) = {13.39088506013389, 1.194026148838118, 0};
Point(p15 + 19) = {13.35917761534273, 1.061955136339338, 0};
Point(p15 + 20) = {13.348521, 0.9265500000000001, 0};
Point(p15 + 21) = {13.35917761534273, 0.7911448636606624, 0};
Point(p15 + 22) = {13.39088506013389, 0.6590738511618821, 0};
Point(p15 + 23) = {13.44286259185175, 0.5335889891499412, 0};
Point(p15 + 24) = {13.51383035116188, 0.4177801313879518, 0};
Point(p15 + 25) = {13.60204087630158, 0.3144988763015789, 0};
Point(p15 + 26) = {13.70532213138795, 0.2262883511618825, 0};
Point(p15 + 27) = {13.82113098914994, 0.1553205918517503, 0};
Point(p15 + 28) = {13.94661585116188, 0.1033430601338877, 0};
Point(p15 + 29) = {14.07868686366066, 0.07163561534272611, 0};
Point(p15 + 30) = {14.214092, 0.06097900000000001, 0};
Point(p15 + 31) = {14.34949713633934, 0.071635615342726, 0};
Point(p15 + 32) = {14.48156814883812, 0.1033430601338876, 0};
Point(p15 + 33) = {14.60705301085006, 0.1553205918517501, 0};
Point(p15 + 34) = {14.72286186861205, 0.2262883511618823, 0};
Point(p15 + 35) = {14.82614312369842, 0.3144988763015787, 0};
Point(p15 + 36) = {14.91435364883812, 0.4177801313879517, 0};
Point(p15 + 37) = {14.98532140814825, 0.5335889891499406, 0};
Point(p15 + 38) = {15.03729893986611, 0.6590738511618822, 0};
Point(p15 + 39) = {15.06900638465727, 0.7911448636606622, 0};
Spline(15) = {10, p15 + 1, p15 + 2, p15 + 3, p15 + 4, p15 + 5, p15 + 6, p15 + 7, p15 + 8, p15 + 9, p15 + 10, p15 + 11, p15 + 12, p15 + 13, p15 + 14, p15 + 15, p15 + 16, p15 + 17, p15 + 18, p15 + 19, p15 + 20, p15 + 21, p15 + 22, p15 + 23, p15 + 24, p15 + 25, p15 + 26, p15 + 27, p15 + 28, p15 + 29, p15 + 30, p15 + 31, p15 + 32, p15 + 33, p15 + 34, p15 + 35, p15 + 36, p15 + 37, p15 + 38, p15 + 39, 10};
p16 = newp;
Point(p16 + 1) = {7.374383215247487, 0.5459372802846011, 0.1};
Point(p16 + 2) = {7.35361275107845, 0.6324524899125614, 0.1};
Point(p16 + 3) = {7.31956404525395, 0.7146533372953214, 0.1};
Point(p16 + 4) = {7.273075489912562, 0.790515764761346, 0.1};
Point(p16 + 5) = {7.21529178757346, 0.8581717875734596, 0.1};
Point(p16 + 6) = {7.147635764761347, 0.9159554899125614, 0.1};
Point(p16 + 7) = {7.071773337295322, 0.9624440452539496, 0.1};
Point(p16 + 8) = {6.989572489912562, 0.9964927510784498, 0.1};
Point(p16 + 9) = {6.903057280284601, 1.017263215247487, 0.1};
Point(p16 + 10) = {6.814358, 1.024244, 0.1};
Point(p16 + 11) = {6.725658719715399, 1.017263215247487, 0.1};
Point(p16 + 12) = {6.639143510087439, 0.9964927510784498, 0.1};
Point(p16 + 13) = {6.556942662704679, 0.9624440452539498, 0.1};
Point(p16 + 14) = {6.481080235238655, 0.9159554899125615, 0.1};
Point(p16 + 15) = {6.413424212426541, 0.8581717875734596, 0.1};
Point(p16 + 16) = {6.355640510087439, 0.7905157647613461, 0.1};
Point(p16 + 17) = {6.309151954746051, 0.7146533372953214, 0.1};
Point(p16 + 18) = {6.275103248921551, 0.6324524899125614, 0.1};
Point(p16 + 19) = {6.254332784752513, 0.5459372802846012, 0.1};
Point(p16 + 20) = {6.247352, 0.457238, 0.1};
Point(p16 + 21) = {6.254332784752513, 0.3685387197153989, 0.1};
Point(p16 + 22) = {6.275103248921551, 0.2820235100874384, 0.1};
Point(p16 + 23) = {6.30915195474605, 0.1998226627046788, 0.1};
Point(p16 + 24) = {6.355640510087439, 0.123960235238654, 0.1};
Point(p16 + 25) = {6.41342421242654, 0.05630421242654043, 0.1};
Point(p16 + 26) = {6.481080235238654, -0.001479489912561416, 0.1};
Point(p16 + 27) = {6.556942662704679, -0.04796804525394965, 0.1};
Point(p16 + 28) = {6.639143510087439, -0.0820167510784498, 0.1};
Point(p16 + 29) = {6.725658719715399, -0.1027872152474866, 0.1};
Point(p16 + 30) = {6.814358, -0.109768, 0.1};
Point(p16 + 31) = {6.903057280284601, -0.1027872152474867, 0.1};
Point(p16 + 32) = {6.989572489912562, -0.08201675107844991, 0.1};
Point(p16 + 33) = {7.071773337295322, -0.04796804525394988, 0.1};
Point(p16 + 34) = {7.147635764761346, -0.001479489912561527, 0.1};
Point(p16 + 35) = {7.215291787573459, 0.05630421242654032, 0.1};
Point(p16 + 36) = {7.273075489912562, 0.1239602352386539, 0.1};
Point(p16 + 37) = {7.31956404525395, 0.1998226627046784, 0.1};
Point(p16 + 38) = {7.35361275107845, 0.2820235100874384, 0.1};
Point(p16 + 39) = {7.374383215247487, 0.3685387197153987, 0.1};
Spline(16) = {11, p16 + 1, p16 + 2, p16 + 3, p16 + 4, p16 + 5, p16 + 6, p16 + 7, p16 + 8, p16 + 9, p16 + 10, p16 + 11, p16 + 12, p16 + 13, p16 + 14, p16 + 15, p16 + 16, p16 + 17, p16 + 18, p16 + 19, p16 + 20, p16 + 21, p16 + 22, p16 + 23, p16 + 24, p16 + 25, p16 + 26, p16 + 27, p16 + 28, p16 + 29, p16 + 30, p16 + 31, p16 + 32, p16 + 33, p16 + 34, p16 + 35, p16 + 36, p16 + 37, p16 + 38, p16 + 39, 11};
Line(17) = {12, 11};
p18 = newp;
Point(p18 + 1) = {7.374383215247487, 0.5459372802846011, 0};
Point(p18 + 2) = {7.35361275107845, 0.6324524899125614, 0};
Point(p18 + 3) = {7.31956404525395, 0.7146533372953214, 0};
Point(p18 + 4) = {7.273075489912562, 0.790515764761346, 0};
Point(p18 + 5) = {7.21529178757346, 0.8581717875734596, 0};
Point(p18 + 6) = {7.147635764761347, 0.9159554899125614, 0};
Point(p18 + 7) = {7.071773337295322, 0.9624440452539496, 0};
Point(p18 + 8) = {6.989572489912562, 0.9964927510784498, 0};
Point(p18 + 9) = {6.903057280284601, 1.017263215247487, 0};
Point(p18 + 10) = {6.814358, 1.024244, 0};
Point(p18 + 11) = {6.725658719715399, 1.017263215247487, 0};
Point(p18 + 12) = {6.639143510087439, 0.9964927510784498, 0};
Point(p18 + 13) = {6.556942662704679, 0.9624440452539498, 0};
Point(p18 + 14) = {6.481080235238655, 0.9159554899125615, 0};
Point(p18 + 15) = {6.413424212426541, 0.8581717875734596, 0};
Point(p18 + 16) = {6.355640510087439, 0.7905157647613461, 0};
Point(p18 + 17) = {6.309151954746051, 0.7146533372953214, 0};
Point(p18 + 18) = {6.275103248921551, 0.6324524899125614, 0};
Point(p18 + 19) = {6.254332784752513, 0.5459372802846012, 0};
Point(p18 + 20) = {6.247352, 0.457238, 0};
Point(p18 + 21) = {6.254332784752513, 0.3685387197153989, 0};
Point(p18 + 22) = {6.275103248921551, 0.2820235100874384, 0};
Point(p18 + 23) = {6.30915195474605, 0.1998226627046788, 0};
Point(p18 + 24) = {6.355640510087439, 0.123960235238654, 0};
Point(p18 + 25) = {6.41342421242654, 0.05630421242654043, 0};
Point(p18 + 26) = {6.481080235238654, -0.001479489912561416, 0};
Point(p18 + 27) = {6.556942662704679, -0.04796804525394965, 0};
Point(p18 + 28) = {6.639143510087439, -0.0820167510784498, 0};
Point(p18 + 29) = {6.725658719715399, -0.1027872152474866, 0};
Point(p18 + 30) = {6.814358, -0.109768, 0};
Point(p18 + 31) = {6.903057280284601, -0.1027872152474867, 0};
Point(p18 + 32) = {6.989572489912562, -0.08201675107844991, 0};
Point(p18 + 33) = {7.071773337295322, -0.04796804525394988, 0};
Point(p18 + 34) = {7.147635764761346, -0.001479489912561527, 0};
Point(p18 + 35) = {7.215291787573459, 0.05630421242654032, 0};
Point(p18 + 36) = {7.273075489912562, 0.1239602352386539, 0};
Point(p18 + 37) = {7.31956404525395, 0.1998226627046784, 0};
Point(p18 + 38) = {7.35361275107845, 0.2820235100874384, 0};
Point(p18 + 39) = {7.374383215247487, 0.3685387197153987, 0};
Spline(18) = {12, p18 + 1, p18 + 2, p18 + 3, p18 + 4, p18 + 5, p18 + 6, p18 + 7, p18 + 8, p18 + 9, p18 + 10, p18 + 11, p18 + 12, p18 + 13, p18 + 14, p18 + 15, p18 + 16, p18 + 17, p18 + 18, p18 + 19, p18 + 20, p18 + 21, p18 + 22, p18 + 23, p18 + 24, p18 + 25, p18 + 26, p18 + 27, p18 + 28, p18 + 29, p18 + 30, p18 + 31, p18 + 32, p18 + 33, p18 + 34, p18 + 35, p18 + 36, p18 + 37, p18 + 38, p18 + 39, 12};
Line(19) = {14, 13};
Line(20) = {13, 15};
Line(21) = {16, 15};
Line(22) = {14, 16};
Line(23) = {14, 17};
Line(24) = {17, 18};
Line(25) = {13, 18};
Line(26) = {15, 19};
Line(27) = {18, 19};
Line(28) = {16, 20};
Line(29) = {20, 19};
Line(30) = {17, 20};
Curve Loop(7) = {-13, -14, 15, 14};
Surface(7) = {7};
Curve Loop(8) = {13};
Plane Surface(8) = {8};
Curve Loop(9) = {15};
Plane Surface(9) = {9};
Curve Loop(10) = {-16, -17, 18, 17};
Surface(10) = {10};
Curve Loop(11) = {16};
Plane Surface(11) = {11};
Curve Loop(12) = {18};
Plane Surface(12) = {12};
Curve Loop(13) = {-19, 22, 21, -20};
Plane Surface(13) = {13};
Curve Loop(14) = {-23, 19, 25, -24};
Plane Surface(14) = {14};
Curve Loop(15) = {-20, 25, 27, -26};
Plane Surface(15) = {15};
Curve Loop(16) = {-28, 21, 26, -29};
Plane Surface(16) = {16};
Curve Loop(17) = {-22, 23, 30, -28, -18, -15};
Plane Surface(17) = {17};
Curve Loop(18) = {-24, 30, 29, -27};
Plane Surface(18) = {18};
Surface Loop(1) = {13, 14, 15, 16, 17, 18, 10, 7, 11, 8};
Volume(1) = {1};
Surface Loop(2) = {7, 8, 9};
Volume(2) = {2};
Surface Loop(3) = {10, 11, 12};
Volume(3) = {3};
Physical Surface("WALLS") = {13, 18};
Physical Surface("LOAD") = {8, 11};
Physical Surface("BORDER") = {7, 9, 10, 12, 14, 15, 16, 17};
Physical Volume("SOLID") = {1, 2, 3};
