cl__1 = 0.114885;
cl__2 = 0.06594;
cl__3 = 2.662618;
cl__4 = 0.306078;
cl__5 = 2.56947;
cl__6 = 0.938236;
Point(9) = {28.9814, 2.538432999999999, 0.1, cl__1};
Point(10) = {28.9814, 2.538432999999999, 0, cl__1};
Point(11) = {2.578207, 3.745168, 0.1, cl__2};
Point(12) = {2.578207, 3.745168, 0, cl__2};
Point(13) = {0.400778, -3.269834, 0.1, cl__3};
Point(14) = {0.400778, -3.269834, 0, cl__3};
Point(15) = {0.400778, 5.194455000000001, 0.1, cl__4};
Point(16) = {0.400778, 5.194455000000001, 0, cl__4};
Point(17) = {32.718331, -3.269834, 0, cl__5};
Point(18) = {32.718331, -3.269834, 0.1, cl__5};
Point(19) = {32.718331, 5.194455000000001, 0.1, cl__6};
Point(20) = {32.718331, 5.194455000000001, 0, cl__6};
p13 = newp;
Point(p13 + 1) = {28.96725579933936, 2.718152109423609, 0.1};
Point(p13 + 2) = {28.92517147451962, 2.893445937919681, 0.1};
Point(p13 + 3) = {28.85618328128771, 3.059998169663779, 0.1};
Point(p13 + 4) = {28.76198993791968, 3.213707735955198, 0.1};
Point(p13 + 5) = {28.64491079713904, 3.35078979713904, 0.1};
Point(p13 + 6) = {28.5078287359552, 3.467868937919681, 0.1};
Point(p13 + 7) = {28.35411916966378, 3.56206228128771, 0.1};
Point(p13 + 8) = {28.18756693791968, 3.631050474519622, 0.1};
Point(p13 + 9) = {28.01227310942361, 3.673134799339362, 0.1};
Point(p13 + 10) = {27.832554, 3.687279, 0.1};
Point(p13 + 11) = {27.65283489057639, 3.673134799339361, 0.1};
Point(p13 + 12) = {27.47754106208032, 3.631050474519622, 0.1};
Point(p13 + 13) = {27.31098883033622, 3.56206228128771, 0.1};
Point(p13 + 14) = {27.1572792640448, 3.467868937919681, 0.1};
Point(p13 + 15) = {27.02019720286096, 3.35078979713904, 0.1};
Point(p13 + 16) = {26.90311806208032, 3.213707735955198, 0.1};
Point(p13 + 17) = {26.80892471871229, 3.059998169663779, 0.1};
Point(p13 + 18) = {26.73993652548038, 2.893445937919681, 0.1};
Point(p13 + 19) = {26.69785220066064, 2.718152109423609, 0.1};
Point(p13 + 20) = {26.683708, 2.538433, 0.1};
Point(p13 + 21) = {26.69785220066064, 2.358713890576391, 0.1};
Point(p13 + 22) = {26.73993652548038, 2.183420062080319, 0.1};
Point(p13 + 23) = {26.80892471871229, 2.016867830336221, 0.1};
Point(p13 + 24) = {26.90311806208032, 1.863158264044801, 0.1};
Point(p13 + 25) = {27.02019720286096, 1.72607620286096, 0.1};
Point(p13 + 26) = {27.1572792640448, 1.608997062080319, 0.1};
Point(p13 + 27) = {27.31098883033622, 1.51480371871229, 0.1};
Point(p13 + 28) = {27.47754106208032, 1.445815525480378, 0.1};
Point(p13 + 29) = {27.65283489057639, 1.403731200660638, 0.1};
Point(p13 + 30) = {27.832554, 1.389587, 0.1};
Point(p13 + 31) = {28.01227310942361, 1.403731200660638, 0.1};
Point(p13 + 32) = {28.18756693791968, 1.445815525480378, 0.1};
Point(p13 + 33) = {28.35411916966378, 1.51480371871229, 0.1};
Point(p13 + 34) = {28.5078287359552, 1.608997062080319, 0.1};
Point(p13 + 35) = {28.64491079713904, 1.726076202860959, 0.1};
Point(p13 + 36) = {28.76198993791968, 1.863158264044801, 0.1};
Point(p13 + 37) = {28.85618328128771, 2.01686783033622, 0.1};
Point(p13 + 38) = {28.92517147451962, 2.183420062080319, 0.1};
Point(p13 + 39) = {28.96725579933936, 2.358713890576391, 0.1};
Spline(13) = {9, p13 + 1, p13 + 2, p13 + 3, p13 + 4, p13 + 5, p13 + 6, p13 + 7, p13 + 8, p13 + 9, p13 + 10, p13 + 11, p13 + 12, p13 + 13, p13 + 14, p13 + 15, p13 + 16, p13 + 17, p13 + 18, p13 + 19, p13 + 20, p13 + 21, p13 + 22, p13 + 23, p13 + 24, p13 + 25, p13 + 26, p13 + 27, p13 + 28, p13 + 29, p13 + 30, p13 + 31, p13 + 32, p13 + 33, p13 + 34, p13 + 35, p13 + 36, p13 + 37, p13 + 38, p13 + 39, 9};
Line(14) = {10, 9};
p15 = newp;
Point(p15 + 1) = {28.96725579933936, 2.718152109423609, 0};
Point(p15 + 2) = {28.92517147451962, 2.893445937919681, 0};
Point(p15 + 3) = {28.85618328128771, 3.059998169663779, 0};
Point(p15 + 4) = {28.76198993791968, 3.213707735955198, 0};
Point(p15 + 5) = {28.64491079713904, 3.35078979713904, 0};
Point(p15 + 6) = {28.5078287359552, 3.467868937919681, 0};
Point(p15 + 7) = {28.35411916966378, 3.56206228128771, 0};
Point(p15 + 8) = {28.18756693791968, 3.631050474519622, 0};
Point(p15 + 9) = {28.01227310942361, 3.673134799339362, 0};
Point(p15 + 10) = {27.832554, 3.687279, 0};
Point(p15 + 11) = {27.65283489057639, 3.673134799339361, 0};
Point(p15 + 12) = {27.47754106208032, 3.631050474519622, 0};
Point(p15 + 13) = {27.31098883033622, 3.56206228128771, 0};
Point(p15 + 14) = {27.1572792640448, 3.467868937919681, 0};
Point(p15 + 15) = {27.02019720286096, 3.35078979713904, 0};
Point(p15 + 16) = {26.90311806208032, 3.213707735955198, 0};
Point(p15 + 17) = {26.80892471871229, 3.059998169663779, 0};
Point(p15 + 18) = {26.73993652548038, 2.893445937919681, 0};
Point(p15 + 19) = {26.69785220066064, 2.718152109423609, 0};
Point(p15 + 20) = {26.683708, 2.538433, 0};
Point(p15 + 21) = {26.69785220066064, 2.358713890576391, 0};
Point(p15 + 22) = {26.73993652548038, 2.183420062080319, 0};
Point(p15 + 23) = {26.80892471871229, 2.016867830336221, 0};
Point(p15 + 24) = {26.90311806208032, 1.863158264044801, 0};
Point(p15 + 25) = {27.02019720286096, 1.72607620286096, 0};
Point(p15 + 26) = {27.1572792640448, 1.608997062080319, 0};
Point(p15 + 27) = {27.31098883033622, 1.51480371871229, 0};
Point(p15 + 28) = {27.47754106208032, 1.445815525480378, 0};
Point(p15 + 29) = {27.65283489057639, 1.403731200660638, 0};
Point(p15 + 30) = {27.832554, 1.389587, 0};
Point(p15 + 31) = {28.01227310942361, 1.403731200660638, 0};
Point(p15 + 32) = {28.18756693791968, 1.445815525480378, 0};
Point(p15 + 33) = {28.35411916966378, 1.51480371871229, 0};
Point(p15 + 34) = {28.5078287359552, 1.608997062080319, 0};
Point(p15 + 35) = {28.64491079713904, 1.726076202860959, 0};
Point(p15 + 36) = {28.76198993791968, 1.863158264044801, 0};
Point(p15 + 37) = {28.85618328128771, 2.01686783033622, 0};
Point(p15 + 38) = {28.92517147451962, 2.183420062080319, 0};
Point(p15 + 39) = {28.96725579933936, 2.358713890576391, 0};
Spline(15) = {10, p15 + 1, p15 + 2, p15 + 3, p15 + 4, p15 + 5, p15 + 6, p15 + 7, p15 + 8, p15 + 9, p15 + 10, p15 + 11, p15 + 12, p15 + 13, p15 + 14, p15 + 15, p15 + 16, p15 + 17, p15 + 18, p15 + 19, p15 + 20, p15 + 21, p15 + 22, p15 + 23, p15 + 24, p15 + 25, p15 + 26, p15 + 27, p15 + 28, p15 + 29, p15 + 30, p15 + 31, p15 + 32, p15 + 33, p15 + 34, p15 + 35, p15 + 36, p15 + 37, p15 + 38, p15 + 39, 10};
p16 = newp;
Point(p16 + 1) = {2.570088753346731, 3.848320104075203, 0.1};
Point(p16 + 2) = {2.545933911562443, 3.948932261005869, 0.1};
Point(p16 + 3) = {2.506337247017189, 4.044527065575759, 0.1};
Point(p16 + 4) = {2.452273761005868, 4.132750656435396, 0.1};
Point(p16 + 5) = {2.385074675980503, 4.211430675980504, 0.1};
Point(p16 + 6) = {2.306394656435395, 4.278629761005869, 0.1};
Point(p16 + 7) = {2.218171065575758, 4.332693247017189, 0.1};
Point(p16 + 8) = {2.122576261005868, 4.372289911562443, 0.1};
Point(p16 + 9) = {2.021964104075203, 4.396444753346731, 0.1};
Point(p16 + 10) = {1.918812, 4.404563, 0.1};
Point(p16 + 11) = {1.815659895924797, 4.396444753346731, 0.1};
Point(p16 + 12) = {1.715047738994132, 4.372289911562443, 0.1};
Point(p16 + 13) = {1.619452934424241, 4.332693247017189, 0.1};
Point(p16 + 14) = {1.531229343564605, 4.278629761005869, 0.1};
Point(p16 + 15) = {1.452549324019496, 4.211430675980504, 0.1};
Point(p16 + 16) = {1.385350238994131, 4.132750656435396, 0.1};
Point(p16 + 17) = {1.331286752982811, 4.044527065575759, 0.1};
Point(p16 + 18) = {1.291690088437557, 3.948932261005869, 0.1};
Point(p16 + 19) = {1.267535246653269, 3.848320104075203, 0.1};
Point(p16 + 20) = {1.259417, 3.745168, 0.1};
Point(p16 + 21) = {1.267535246653269, 3.642015895924797, 0.1};
Point(p16 + 22) = {1.291690088437557, 3.541403738994132, 0.1};
Point(p16 + 23) = {1.331286752982811, 3.445808934424242, 0.1};
Point(p16 + 24) = {1.385350238994131, 3.357585343564605, 0.1};
Point(p16 + 25) = {1.452549324019496, 3.278905324019497, 0.1};
Point(p16 + 26) = {1.531229343564604, 3.211706238994132, 0.1};
Point(p16 + 27) = {1.619452934424241, 3.157642752982811, 0.1};
Point(p16 + 28) = {1.715047738994131, 3.118046088437557, 0.1};
Point(p16 + 29) = {1.815659895924797, 3.09389124665327, 0.1};
Point(p16 + 30) = {1.918812, 3.085773, 0.1};
Point(p16 + 31) = {2.021964104075203, 3.093891246653269, 0.1};
Point(p16 + 32) = {2.122576261005868, 3.118046088437557, 0.1};
Point(p16 + 33) = {2.218171065575758, 3.157642752982811, 0.1};
Point(p16 + 34) = {2.306394656435395, 3.211706238994132, 0.1};
Point(p16 + 35) = {2.385074675980503, 3.278905324019497, 0.1};
Point(p16 + 36) = {2.452273761005868, 3.357585343564605, 0.1};
Point(p16 + 37) = {2.506337247017189, 3.445808934424242, 0.1};
Point(p16 + 38) = {2.545933911562443, 3.541403738994132, 0.1};
Point(p16 + 39) = {2.570088753346731, 3.642015895924797, 0.1};
Spline(16) = {11, p16 + 1, p16 + 2, p16 + 3, p16 + 4, p16 + 5, p16 + 6, p16 + 7, p16 + 8, p16 + 9, p16 + 10, p16 + 11, p16 + 12, p16 + 13, p16 + 14, p16 + 15, p16 + 16, p16 + 17, p16 + 18, p16 + 19, p16 + 20, p16 + 21, p16 + 22, p16 + 23, p16 + 24, p16 + 25, p16 + 26, p16 + 27, p16 + 28, p16 + 29, p16 + 30, p16 + 31, p16 + 32, p16 + 33, p16 + 34, p16 + 35, p16 + 36, p16 + 37, p16 + 38, p16 + 39, 11};
Line(17) = {12, 11};
p18 = newp;
Point(p18 + 1) = {2.570088753346731, 3.848320104075203, 0};
Point(p18 + 2) = {2.545933911562443, 3.948932261005869, 0};
Point(p18 + 3) = {2.506337247017189, 4.044527065575759, 0};
Point(p18 + 4) = {2.452273761005868, 4.132750656435396, 0};
Point(p18 + 5) = {2.385074675980503, 4.211430675980504, 0};
Point(p18 + 6) = {2.306394656435395, 4.278629761005869, 0};
Point(p18 + 7) = {2.218171065575758, 4.332693247017189, 0};
Point(p18 + 8) = {2.122576261005868, 4.372289911562443, 0};
Point(p18 + 9) = {2.021964104075203, 4.396444753346731, 0};
Point(p18 + 10) = {1.918812, 4.404563, 0};
Point(p18 + 11) = {1.815659895924797, 4.396444753346731, 0};
Point(p18 + 12) = {1.715047738994132, 4.372289911562443, 0};
Point(p18 + 13) = {1.619452934424241, 4.332693247017189, 0};
Point(p18 + 14) = {1.531229343564605, 4.278629761005869, 0};
Point(p18 + 15) = {1.452549324019496, 4.211430675980504, 0};
Point(p18 + 16) = {1.385350238994131, 4.132750656435396, 0};
Point(p18 + 17) = {1.331286752982811, 4.044527065575759, 0};
Point(p18 + 18) = {1.291690088437557, 3.948932261005869, 0};
Point(p18 + 19) = {1.267535246653269, 3.848320104075203, 0};
Point(p18 + 20) = {1.259417, 3.745168, 0};
Point(p18 + 21) = {1.267535246653269, 3.642015895924797, 0};
Point(p18 + 22) = {1.291690088437557, 3.541403738994132, 0};
Point(p18 + 23) = {1.331286752982811, 3.445808934424242, 0};
Point(p18 + 24) = {1.385350238994131, 3.357585343564605, 0};
Point(p18 + 25) = {1.452549324019496, 3.278905324019497, 0};
Point(p18 + 26) = {1.531229343564604, 3.211706238994132, 0};
Point(p18 + 27) = {1.619452934424241, 3.157642752982811, 0};
Point(p18 + 28) = {1.715047738994131, 3.118046088437557, 0};
Point(p18 + 29) = {1.815659895924797, 3.09389124665327, 0};
Point(p18 + 30) = {1.918812, 3.085773, 0};
Point(p18 + 31) = {2.021964104075203, 3.093891246653269, 0};
Point(p18 + 32) = {2.122576261005868, 3.118046088437557, 0};
Point(p18 + 33) = {2.218171065575758, 3.157642752982811, 0};
Point(p18 + 34) = {2.306394656435395, 3.211706238994132, 0};
Point(p18 + 35) = {2.385074675980503, 3.278905324019497, 0};
Point(p18 + 36) = {2.452273761005868, 3.357585343564605, 0};
Point(p18 + 37) = {2.506337247017189, 3.445808934424242, 0};
Point(p18 + 38) = {2.545933911562443, 3.541403738994132, 0};
Point(p18 + 39) = {2.570088753346731, 3.642015895924797, 0};
Spline(18) = {12, p18 + 1, p18 + 2, p18 + 3, p18 + 4, p18 + 5, p18 + 6, p18 + 7, p18 + 8, p18 + 9, p18 + 10, p18 + 11, p18 + 12, p18 + 13, p18 + 14, p18 + 15, p18 + 16, p18 + 17, p18 + 18, p18 + 19, p18 + 20, p18 + 21, p18 + 22, p18 + 23, p18 + 24, p18 + 25, p18 + 26, p18 + 27, p18 + 28, p18 + 29, p18 + 30, p18 + 31, p18 + 32, p18 + 33, p18 + 34, p18 + 35, p18 + 36, p18 + 37, p18 + 38, p18 + 39, 12};
Line(19) = {14, 13};
Line(20) = {13, 15};
Line(21) = {16, 15};
Line(22) = {14, 16};
Line(23) = {14, 17};
Line(24) = {17, 18};
Line(25) = {13, 18};
Line(26) = {15, 19};
Line(27) = {18, 19};
Line(28) = {16, 20};
Line(29) = {20, 19};
Line(30) = {17, 20};
Curve Loop(7) = {-13, -14, 15, 14};
Surface(7) = {7};
Curve Loop(8) = {13};
Plane Surface(8) = {8};
Curve Loop(9) = {15};
Plane Surface(9) = {9};
Curve Loop(10) = {-16, -17, 18, 17};
Surface(10) = {10};
Curve Loop(11) = {16};
Plane Surface(11) = {11};
Curve Loop(12) = {18};
Plane Surface(12) = {12};
Curve Loop(13) = {-19, 22, 21, -20};
Plane Surface(13) = {13};
Curve Loop(14) = {-23, 19, 25, -24};
Plane Surface(14) = {14};
Curve Loop(15) = {-20, 25, 27, -26, -13, -16};
Plane Surface(15) = {15};
Curve Loop(16) = {-28, 21, 26, -29};
Plane Surface(16) = {16};
Curve Loop(17) = {-22, 23, 30, -28, -15, -18};
Plane Surface(17) = {17};
Curve Loop(18) = {-24, 30, 29, -27};
Plane Surface(18) = {18};
Surface Loop(1) = {13, 14, 15, 16, 17, 18, 7, 10};
Volume(1) = {1};
Surface Loop(2) = {7, 8, 9};
Volume(2) = {2};
Surface Loop(3) = {10, 11, 12};
Volume(3) = {3};
Physical Surface("WALLS") = {13, 18};
Physical Surface("LOAD") = {8, 11};
Physical Surface("BORDER") = {7, 9, 10, 12, 14, 15, 16, 17};
Physical Volume("SOLID") = {1, 2, 3};
