cl__1 = 0.071502;
cl__2 = 0.059509;
cl__3 = 2.07001;
cl__4 = 2.28777;
cl__5 = 0.747301;
cl__6 = 0.660583;
Point(9) = {28.439411, 1.711056, 0.1, cl__1};
Point(10) = {28.439411, 1.711056, 0, cl__1};
Point(11) = {16.945657, -0.6509080000000002, 0.1, cl__2};
Point(12) = {16.945657, -0.6509080000000002, 0, cl__2};
Point(13) = {0.5305569999999999, -3.420258, 1, cl__3};
Point(14) = {0.5305569999999999, -3.420258, 0, cl__3};
Point(15) = {0.5305569999999999, 4.327688, 1, cl__4};
Point(16) = {0.5305569999999999, 4.327688, 0, cl__4};
Point(17) = {36.054268, -3.420258, 0, cl__5};
Point(18) = {36.054268, -3.420258, 1, cl__5};
Point(19) = {36.054268, 4.327688, 1, cl__6};
Point(20) = {36.054268, 4.327688, 0, cl__6};
p13 = newp;
Point(p13 + 1) = {28.43060788035736, 1.822910240496461, 0.1};
Point(p13 + 2) = {28.40441528345091, 1.932010258368958, 0.1};
Point(p13 + 3) = {28.36147815794474, 2.03566964909527, 0.1};
Point(p13 + 4) = {28.30285375836896, 2.131335974449921, 0.1};
Point(p13 + 5) = {28.22998561200435, 2.216653612004349, 0.1};
Point(p13 + 6) = {28.14466797444992, 2.289521758368958, 0.1};
Point(p13 + 7) = {28.04900164909527, 2.348146157944739, 0.1};
Point(p13 + 8) = {27.94534225836896, 2.391083283450909, 0.1};
Point(p13 + 9) = {27.83624224049646, 2.417275880357357, 0.1};
Point(p13 + 10) = {27.724388, 2.426079, 0.1};
Point(p13 + 11) = {27.61253375950354, 2.417275880357357, 0.1};
Point(p13 + 12) = {27.50343374163104, 2.391083283450909, 0.1};
Point(p13 + 13) = {27.39977435090473, 2.348146157944739, 0.1};
Point(p13 + 14) = {27.30410802555008, 2.289521758368958, 0.1};
Point(p13 + 15) = {27.21879038799565, 2.216653612004349, 0.1};
Point(p13 + 16) = {27.14592224163104, 2.131335974449921, 0.1};
Point(p13 + 17) = {27.08729784205526, 2.03566964909527, 0.1};
Point(p13 + 18) = {27.04436071654909, 1.932010258368958, 0.1};
Point(p13 + 19) = {27.01816811964265, 1.822910240496461, 0.1};
Point(p13 + 20) = {27.009365, 1.711056, 0.1};
Point(p13 + 21) = {27.01816811964265, 1.599201759503539, 0.1};
Point(p13 + 22) = {27.04436071654909, 1.490101741631042, 0.1};
Point(p13 + 23) = {27.08729784205526, 1.38644235090473, 0.1};
Point(p13 + 24) = {27.14592224163104, 1.290776025550079, 0.1};
Point(p13 + 25) = {27.21879038799565, 1.205458387995651, 0.1};
Point(p13 + 26) = {27.30410802555008, 1.132590241631042, 0.1};
Point(p13 + 27) = {27.39977435090473, 1.073965842055261, 0.1};
Point(p13 + 28) = {27.50343374163104, 1.03102871654909, 0.1};
Point(p13 + 29) = {27.61253375950354, 1.004836119642643, 0.1};
Point(p13 + 30) = {27.724388, 0.9960329999999999, 0.1};
Point(p13 + 31) = {27.83624224049646, 1.004836119642643, 0.1};
Point(p13 + 32) = {27.94534225836896, 1.03102871654909, 0.1};
Point(p13 + 33) = {28.04900164909527, 1.07396584205526, 0.1};
Point(p13 + 34) = {28.14466797444992, 1.132590241631042, 0.1};
Point(p13 + 35) = {28.22998561200435, 1.205458387995651, 0.1};
Point(p13 + 36) = {28.30285375836896, 1.290776025550079, 0.1};
Point(p13 + 37) = {28.36147815794474, 1.38644235090473, 0.1};
Point(p13 + 38) = {28.40441528345091, 1.490101741631042, 0.1};
Point(p13 + 39) = {28.43060788035736, 1.599201759503539, 0.1};
Spline(13) = {9, p13 + 1, p13 + 2, p13 + 3, p13 + 4, p13 + 5, p13 + 6, p13 + 7, p13 + 8, p13 + 9, p13 + 10, p13 + 11, p13 + 12, p13 + 13, p13 + 14, p13 + 15, p13 + 16, p13 + 17, p13 + 18, p13 + 19, p13 + 20, p13 + 21, p13 + 22, p13 + 23, p13 + 24, p13 + 25, p13 + 26, p13 + 27, p13 + 28, p13 + 29, p13 + 30, p13 + 31, p13 + 32, p13 + 33, p13 + 34, p13 + 35, p13 + 36, p13 + 37, p13 + 38, p13 + 39, 9};
Line(14) = {10, 9};
p15 = newp;
Point(p15 + 1) = {28.43060788035736, 1.822910240496461, 0};
Point(p15 + 2) = {28.40441528345091, 1.932010258368958, 0};
Point(p15 + 3) = {28.36147815794474, 2.03566964909527, 0};
Point(p15 + 4) = {28.30285375836896, 2.131335974449921, 0};
Point(p15 + 5) = {28.22998561200435, 2.216653612004349, 0};
Point(p15 + 6) = {28.14466797444992, 2.289521758368958, 0};
Point(p15 + 7) = {28.04900164909527, 2.348146157944739, 0};
Point(p15 + 8) = {27.94534225836896, 2.391083283450909, 0};
Point(p15 + 9) = {27.83624224049646, 2.417275880357357, 0};
Point(p15 + 10) = {27.724388, 2.426079, 0};
Point(p15 + 11) = {27.61253375950354, 2.417275880357357, 0};
Point(p15 + 12) = {27.50343374163104, 2.391083283450909, 0};
Point(p15 + 13) = {27.39977435090473, 2.348146157944739, 0};
Point(p15 + 14) = {27.30410802555008, 2.289521758368958, 0};
Point(p15 + 15) = {27.21879038799565, 2.216653612004349, 0};
Point(p15 + 16) = {27.14592224163104, 2.131335974449921, 0};
Point(p15 + 17) = {27.08729784205526, 2.03566964909527, 0};
Point(p15 + 18) = {27.04436071654909, 1.932010258368958, 0};
Point(p15 + 19) = {27.01816811964265, 1.822910240496461, 0};
Point(p15 + 20) = {27.009365, 1.711056, 0};
Point(p15 + 21) = {27.01816811964265, 1.599201759503539, 0};
Point(p15 + 22) = {27.04436071654909, 1.490101741631042, 0};
Point(p15 + 23) = {27.08729784205526, 1.38644235090473, 0};
Point(p15 + 24) = {27.14592224163104, 1.290776025550079, 0};
Point(p15 + 25) = {27.21879038799565, 1.205458387995651, 0};
Point(p15 + 26) = {27.30410802555008, 1.132590241631042, 0};
Point(p15 + 27) = {27.39977435090473, 1.073965842055261, 0};
Point(p15 + 28) = {27.50343374163104, 1.03102871654909, 0};
Point(p15 + 29) = {27.61253375950354, 1.004836119642643, 0};
Point(p15 + 30) = {27.724388, 0.9960329999999999, 0};
Point(p15 + 31) = {27.83624224049646, 1.004836119642643, 0};
Point(p15 + 32) = {27.94534225836896, 1.03102871654909, 0};
Point(p15 + 33) = {28.04900164909527, 1.07396584205526, 0};
Point(p15 + 34) = {28.14466797444992, 1.132590241631042, 0};
Point(p15 + 35) = {28.22998561200435, 1.205458387995651, 0};
Point(p15 + 36) = {28.30285375836896, 1.290776025550079, 0};
Point(p15 + 37) = {28.36147815794474, 1.38644235090473, 0};
Point(p15 + 38) = {28.40441528345091, 1.490101741631042, 0};
Point(p15 + 39) = {28.43060788035736, 1.599201759503539, 0};
Spline(15) = {10, p15 + 1, p15 + 2, p15 + 3, p15 + 4, p15 + 5, p15 + 6, p15 + 7, p15 + 8, p15 + 9, p15 + 10, p15 + 11, p15 + 12, p15 + 13, p15 + 14, p15 + 15, p15 + 16, p15 + 17, p15 + 18, p15 + 19, p15 + 20, p15 + 21, p15 + 22, p15 + 23, p15 + 24, p15 + 25, p15 + 26, p15 + 27, p15 + 28, p15 + 29, p15 + 30, p15 + 31, p15 + 32, p15 + 33, p15 + 34, p15 + 35, p15 + 36, p15 + 37, p15 + 38, p15 + 39, 10};
p16 = newp;
Point(p16 + 1) = {16.9383305038514, -0.5578160399370692, 0.1};
Point(p16 + 2) = {16.91653141805602, -0.4670163128853901, 0.1};
Point(p16 + 3) = {16.88079650845316, -0.3807446094719921, 0.1};
Point(p16 + 4) = {16.83200568711461, -0.3011252253542814, 0.1};
Point(p16 + 5) = {16.77136034598918, -0.2301186540108223, 0.1};
Point(p16 + 6) = {16.70035377464572, -0.1694733128853901, 0.1};
Point(p16 + 7) = {16.62073439052801, -0.120682491546841, 0.1};
Point(p16 + 8) = {16.53446268711461, -0.08494758194398233, 0.1};
Point(p16 + 9) = {16.44366296006293, -0.06314849614860185, 0.1};
Point(p16 + 10) = {16.350571, -0.05582200000000004, 0.1};
Point(p16 + 11) = {16.25747903993707, -0.06314849614860196, 0.1};
Point(p16 + 12) = {16.16667931288539, -0.08494758194398222, 0.1};
Point(p16 + 13) = {16.08040760947199, -0.120682491546841, 0.1};
Point(p16 + 14) = {16.00078822535428, -0.1694733128853901, 0.1};
Point(p16 + 15) = {15.92978165401082, -0.2301186540108222, 0.1};
Point(p16 + 16) = {15.86913631288539, -0.3011252253542813, 0.1};
Point(p16 + 17) = {15.82034549154684, -0.3807446094719921, 0.1};
Point(p16 + 18) = {15.78461058194398, -0.46701631288539, 0.1};
Point(p16 + 19) = {15.7628114961486, -0.5578160399370692, 0.1};
Point(p16 + 20) = {15.755485, -0.6509079999999999, 0.1};
Point(p16 + 21) = {15.7628114961486, -0.7439999600629308, 0.1};
Point(p16 + 22) = {15.78461058194398, -0.8347996871146102, 0.1};
Point(p16 + 23) = {15.82034549154684, -0.9210713905280077, 0.1};
Point(p16 + 24) = {15.86913631288539, -1.000690774645719, 0.1};
Point(p16 + 25) = {15.92978165401082, -1.071697345989178, 0.1};
Point(p16 + 26) = {16.00078822535428, -1.13234268711461, 0.1};
Point(p16 + 27) = {16.08040760947199, -1.181133508453159, 0.1};
Point(p16 + 28) = {16.16667931288539, -1.216868418056018, 0.1};
Point(p16 + 29) = {16.25747903993707, -1.238667503851398, 0.1};
Point(p16 + 30) = {16.350571, -1.245994, 0.1};
Point(p16 + 31) = {16.44366296006293, -1.238667503851398, 0.1};
Point(p16 + 32) = {16.53446268711461, -1.216868418056018, 0.1};
Point(p16 + 33) = {16.62073439052801, -1.181133508453159, 0.1};
Point(p16 + 34) = {16.70035377464572, -1.13234268711461, 0.1};
Point(p16 + 35) = {16.77136034598918, -1.071697345989178, 0.1};
Point(p16 + 36) = {16.83200568711461, -1.000690774645719, 0.1};
Point(p16 + 37) = {16.88079650845316, -0.9210713905280081, 0.1};
Point(p16 + 38) = {16.91653141805602, -0.8347996871146102, 0.1};
Point(p16 + 39) = {16.9383305038514, -0.743999960062931, 0.1};
Spline(16) = {11, p16 + 1, p16 + 2, p16 + 3, p16 + 4, p16 + 5, p16 + 6, p16 + 7, p16 + 8, p16 + 9, p16 + 10, p16 + 11, p16 + 12, p16 + 13, p16 + 14, p16 + 15, p16 + 16, p16 + 17, p16 + 18, p16 + 19, p16 + 20, p16 + 21, p16 + 22, p16 + 23, p16 + 24, p16 + 25, p16 + 26, p16 + 27, p16 + 28, p16 + 29, p16 + 30, p16 + 31, p16 + 32, p16 + 33, p16 + 34, p16 + 35, p16 + 36, p16 + 37, p16 + 38, p16 + 39, 11};
Line(17) = {12, 11};
p18 = newp;
Point(p18 + 1) = {16.9383305038514, -0.5578160399370692, 0};
Point(p18 + 2) = {16.91653141805602, -0.4670163128853901, 0};
Point(p18 + 3) = {16.88079650845316, -0.3807446094719921, 0};
Point(p18 + 4) = {16.83200568711461, -0.3011252253542814, 0};
Point(p18 + 5) = {16.77136034598918, -0.2301186540108223, 0};
Point(p18 + 6) = {16.70035377464572, -0.1694733128853901, 0};
Point(p18 + 7) = {16.62073439052801, -0.120682491546841, 0};
Point(p18 + 8) = {16.53446268711461, -0.08494758194398233, 0};
Point(p18 + 9) = {16.44366296006293, -0.06314849614860185, 0};
Point(p18 + 10) = {16.350571, -0.05582200000000004, 0};
Point(p18 + 11) = {16.25747903993707, -0.06314849614860196, 0};
Point(p18 + 12) = {16.16667931288539, -0.08494758194398222, 0};
Point(p18 + 13) = {16.08040760947199, -0.120682491546841, 0};
Point(p18 + 14) = {16.00078822535428, -0.1694733128853901, 0};
Point(p18 + 15) = {15.92978165401082, -0.2301186540108222, 0};
Point(p18 + 16) = {15.86913631288539, -0.3011252253542813, 0};
Point(p18 + 17) = {15.82034549154684, -0.3807446094719921, 0};
Point(p18 + 18) = {15.78461058194398, -0.46701631288539, 0};
Point(p18 + 19) = {15.7628114961486, -0.5578160399370692, 0};
Point(p18 + 20) = {15.755485, -0.6509079999999999, 0};
Point(p18 + 21) = {15.7628114961486, -0.7439999600629308, 0};
Point(p18 + 22) = {15.78461058194398, -0.8347996871146102, 0};
Point(p18 + 23) = {15.82034549154684, -0.9210713905280077, 0};
Point(p18 + 24) = {15.86913631288539, -1.000690774645719, 0};
Point(p18 + 25) = {15.92978165401082, -1.071697345989178, 0};
Point(p18 + 26) = {16.00078822535428, -1.13234268711461, 0};
Point(p18 + 27) = {16.08040760947199, -1.181133508453159, 0};
Point(p18 + 28) = {16.16667931288539, -1.216868418056018, 0};
Point(p18 + 29) = {16.25747903993707, -1.238667503851398, 0};
Point(p18 + 30) = {16.350571, -1.245994, 0};
Point(p18 + 31) = {16.44366296006293, -1.238667503851398, 0};
Point(p18 + 32) = {16.53446268711461, -1.216868418056018, 0};
Point(p18 + 33) = {16.62073439052801, -1.181133508453159, 0};
Point(p18 + 34) = {16.70035377464572, -1.13234268711461, 0};
Point(p18 + 35) = {16.77136034598918, -1.071697345989178, 0};
Point(p18 + 36) = {16.83200568711461, -1.000690774645719, 0};
Point(p18 + 37) = {16.88079650845316, -0.9210713905280081, 0};
Point(p18 + 38) = {16.91653141805602, -0.8347996871146102, 0};
Point(p18 + 39) = {16.9383305038514, -0.743999960062931, 0};
Spline(18) = {12, p18 + 1, p18 + 2, p18 + 3, p18 + 4, p18 + 5, p18 + 6, p18 + 7, p18 + 8, p18 + 9, p18 + 10, p18 + 11, p18 + 12, p18 + 13, p18 + 14, p18 + 15, p18 + 16, p18 + 17, p18 + 18, p18 + 19, p18 + 20, p18 + 21, p18 + 22, p18 + 23, p18 + 24, p18 + 25, p18 + 26, p18 + 27, p18 + 28, p18 + 29, p18 + 30, p18 + 31, p18 + 32, p18 + 33, p18 + 34, p18 + 35, p18 + 36, p18 + 37, p18 + 38, p18 + 39, 12};
Line(19) = {14, 13};
Line(20) = {13, 15};
Line(21) = {16, 15};
Line(22) = {14, 16};
Line(23) = {14, 17};
Line(24) = {17, 18};
Line(25) = {13, 18};
Line(26) = {15, 19};
Line(27) = {18, 19};
Line(28) = {16, 20};
Line(29) = {20, 19};
Line(30) = {17, 20};
Curve Loop(7) = {-13, -14, 15, 14};
Surface(7) = {7};
Curve Loop(8) = {13};
Plane Surface(8) = {8};
Curve Loop(9) = {15};
Plane Surface(9) = {9};
Curve Loop(10) = {-16, -17, 18, 17};
Surface(10) = {10};
Curve Loop(11) = {16};
Plane Surface(11) = {11};
Curve Loop(12) = {18};
Plane Surface(12) = {12};
Curve Loop(13) = {-19, 22, 21, -20};
Plane Surface(13) = {13};
Curve Loop(14) = {-23, 19, 25, -24};
Plane Surface(14) = {14};
Curve Loop(15) = {-20, 25, 27, -26};
Plane Surface(15) = {15};
Curve Loop(16) = {-28, 21, 26, -29};
Plane Surface(16) = {16};
Curve Loop(17) = {-22, 23, 30, -28, -18, -15};
Plane Surface(17) = {17};
Curve Loop(18) = {-24, 30, 29, -27};
Plane Surface(18) = {18};
Surface Loop(1) = {13, 14, 15, 16, 17, 18, 10, 7, 11, 8};
Volume(1) = {1};
Surface Loop(2) = {7, 8, 9};
Volume(2) = {2};
Surface Loop(3) = {10, 11, 12};
Volume(3) = {3};
Physical Surface("WALLS") = {13, 18};
Physical Surface("LOAD") = {8, 11};
Physical Surface("BORDER") = {7, 9, 10, 12, 14, 15, 16, 17};
Physical Volume("SOLID") = {1, 2, 3};
