cl__1 = 0.07381699999999999;
cl__2 = 0.120085;
cl__3 = 1.111191;
cl__4 = 1.052539;
cl__5 = 0.966215;
cl__6 = 0.980801;
Point(9) = {4.216743, 0.2861869999999998, 0.1, cl__1};
Point(10) = {4.216743, 0.2861869999999998, 0, cl__1};
Point(11) = {31.227888, 0.1896669999999997, 0.1, cl__2};
Point(12) = {31.227888, 0.1896669999999997, 0, cl__2};
Point(13) = {0.410036, -4.56647, 0.1, cl__3};
Point(14) = {0.410036, -4.56647, 0, cl__3};
Point(15) = {0.410036, 5.032465000000001, 0.1, cl__4};
Point(16) = {0.410036, 5.032465000000001, 0, cl__4};
Point(17) = {33.464237, -4.56647, 0, cl__5};
Point(18) = {33.464237, -4.56647, 0.1, cl__5};
Point(19) = {33.464237, 5.032465000000001, 0.1, cl__6};
Point(20) = {33.464237, 5.032465000000001, 0, cl__6};
p13 = newp;
Point(p13 + 1) = {4.207654927000432, 0.4016619161898172, 0.1};
Point(p13 + 2) = {4.180614486520561, 0.5142934567037662, 0.1};
Point(p13 + 3) = {4.136287503947079, 0.6213082592117418, 0.1};
Point(p13 + 4) = {4.075765456703767, 0.7200712641142304, 0.1};
Point(p13 + 5) = {4.000538598454912, 0.8081505984549113, 0.1};
Point(p13 + 6) = {3.912459264114231, 0.8833774567037662, 0.1};
Point(p13 + 7) = {3.813696259211742, 0.9438995039470792, 0.1};
Point(p13 + 8) = {3.706681456703766, 0.988226486520561, 0.1};
Point(p13 + 9) = {3.594049916189817, 1.015266927000432, 0.1};
Point(p13 + 10) = {3.478575, 1.024355, 0.1};
Point(p13 + 11) = {3.363100083810183, 1.015266927000432, 0.1};
Point(p13 + 12) = {3.250468543296234, 0.988226486520561, 0.1};
Point(p13 + 13) = {3.143453740788258, 0.9438995039470792, 0.1};
Point(p13 + 14) = {3.04469073588577, 0.8833774567037662, 0.1};
Point(p13 + 15) = {2.956611401545089, 0.8081505984549116, 0.1};
Point(p13 + 16) = {2.881384543296234, 0.7200712641142304, 0.1};
Point(p13 + 17) = {2.820862496052921, 0.6213082592117418, 0.1};
Point(p13 + 18) = {2.776535513479439, 0.5142934567037662, 0.1};
Point(p13 + 19) = {2.749495072999569, 0.4016619161898173, 0.1};
Point(p13 + 20) = {2.740407, 0.2861870000000001, 0.1};
Point(p13 + 21) = {2.749495072999569, 0.170712083810183, 0.1};
Point(p13 + 22) = {2.776535513479439, 0.05808054329623361, 0.1};
Point(p13 + 23) = {2.820862496052921, -0.04893425921174144, 0.1};
Point(p13 + 24) = {2.881384543296234, -0.1476972641142302, 0.1};
Point(p13 + 25) = {2.956611401545088, -0.2357765984549113, 0.1};
Point(p13 + 26) = {3.04469073588577, -0.3110034567037661, 0.1};
Point(p13 + 27) = {3.143453740788258, -0.3715255039470791, 0.1};
Point(p13 + 28) = {3.250468543296234, -0.4158524865205609, 0.1};
Point(p13 + 29) = {3.363100083810183, -0.4428929270004316, 0.1};
Point(p13 + 30) = {3.478575, -0.451981, 0.1};
Point(p13 + 31) = {3.594049916189817, -0.4428929270004316, 0.1};
Point(p13 + 32) = {3.706681456703766, -0.415852486520561, 0.1};
Point(p13 + 33) = {3.813696259211742, -0.3715255039470792, 0.1};
Point(p13 + 34) = {3.91245926411423, -0.3110034567037663, 0.1};
Point(p13 + 35) = {4.000538598454911, -0.2357765984549116, 0.1};
Point(p13 + 36) = {4.075765456703766, -0.1476972641142304, 0.1};
Point(p13 + 37) = {4.136287503947079, -0.04893425921174188, 0.1};
Point(p13 + 38) = {4.180614486520561, 0.05808054329623369, 0.1};
Point(p13 + 39) = {4.207654927000432, 0.1707120838101827, 0.1};
Spline(13) = {9, p13 + 1, p13 + 2, p13 + 3, p13 + 4, p13 + 5, p13 + 6, p13 + 7, p13 + 8, p13 + 9, p13 + 10, p13 + 11, p13 + 12, p13 + 13, p13 + 14, p13 + 15, p13 + 16, p13 + 17, p13 + 18, p13 + 19, p13 + 20, p13 + 21, p13 + 22, p13 + 23, p13 + 24, p13 + 25, p13 + 26, p13 + 27, p13 + 28, p13 + 29, p13 + 30, p13 + 31, p13 + 32, p13 + 33, p13 + 34, p13 + 35, p13 + 36, p13 + 37, p13 + 38, p13 + 39, 9};
Line(14) = {10, 9};
p15 = newp;
Point(p15 + 1) = {4.207654927000432, 0.4016619161898172, 0};
Point(p15 + 2) = {4.180614486520561, 0.5142934567037662, 0};
Point(p15 + 3) = {4.136287503947079, 0.6213082592117418, 0};
Point(p15 + 4) = {4.075765456703767, 0.7200712641142304, 0};
Point(p15 + 5) = {4.000538598454912, 0.8081505984549113, 0};
Point(p15 + 6) = {3.912459264114231, 0.8833774567037662, 0};
Point(p15 + 7) = {3.813696259211742, 0.9438995039470792, 0};
Point(p15 + 8) = {3.706681456703766, 0.988226486520561, 0};
Point(p15 + 9) = {3.594049916189817, 1.015266927000432, 0};
Point(p15 + 10) = {3.478575, 1.024355, 0};
Point(p15 + 11) = {3.363100083810183, 1.015266927000432, 0};
Point(p15 + 12) = {3.250468543296234, 0.988226486520561, 0};
Point(p15 + 13) = {3.143453740788258, 0.9438995039470792, 0};
Point(p15 + 14) = {3.04469073588577, 0.8833774567037662, 0};
Point(p15 + 15) = {2.956611401545089, 0.8081505984549116, 0};
Point(p15 + 16) = {2.881384543296234, 0.7200712641142304, 0};
Point(p15 + 17) = {2.820862496052921, 0.6213082592117418, 0};
Point(p15 + 18) = {2.776535513479439, 0.5142934567037662, 0};
Point(p15 + 19) = {2.749495072999569, 0.4016619161898173, 0};
Point(p15 + 20) = {2.740407, 0.2861870000000001, 0};
Point(p15 + 21) = {2.749495072999569, 0.170712083810183, 0};
Point(p15 + 22) = {2.776535513479439, 0.05808054329623361, 0};
Point(p15 + 23) = {2.820862496052921, -0.04893425921174144, 0};
Point(p15 + 24) = {2.881384543296234, -0.1476972641142302, 0};
Point(p15 + 25) = {2.956611401545088, -0.2357765984549113, 0};
Point(p15 + 26) = {3.04469073588577, -0.3110034567037661, 0};
Point(p15 + 27) = {3.143453740788258, -0.3715255039470791, 0};
Point(p15 + 28) = {3.250468543296234, -0.4158524865205609, 0};
Point(p15 + 29) = {3.363100083810183, -0.4428929270004316, 0};
Point(p15 + 30) = {3.478575, -0.451981, 0};
Point(p15 + 31) = {3.594049916189817, -0.4428929270004316, 0};
Point(p15 + 32) = {3.706681456703766, -0.415852486520561, 0};
Point(p15 + 33) = {3.813696259211742, -0.3715255039470792, 0};
Point(p15 + 34) = {3.91245926411423, -0.3110034567037663, 0};
Point(p15 + 35) = {4.000538598454911, -0.2357765984549116, 0};
Point(p15 + 36) = {4.075765456703766, -0.1476972641142304, 0};
Point(p15 + 37) = {4.136287503947079, -0.04893425921174188, 0};
Point(p15 + 38) = {4.180614486520561, 0.05808054329623369, 0};
Point(p15 + 39) = {4.207654927000432, 0.1707120838101827, 0};
Spline(15) = {10, p15 + 1, p15 + 2, p15 + 3, p15 + 4, p15 + 5, p15 + 6, p15 + 7, p15 + 8, p15 + 9, p15 + 10, p15 + 11, p15 + 12, p15 + 13, p15 + 14, p15 + 15, p15 + 16, p15 + 17, p15 + 18, p15 + 19, p15 + 20, p15 + 21, p15 + 22, p15 + 23, p15 + 24, p15 + 25, p15 + 26, p15 + 27, p15 + 28, p15 + 29, p15 + 30, p15 + 31, p15 + 32, p15 + 33, p15 + 34, p15 + 35, p15 + 36, p15 + 37, p15 + 38, p15 + 39, 10};
p16 = newp;
Point(p16 + 1) = {31.21310358073865, 0.3775208580401661, 0.1};
Point(p16 + 2) = {31.16911436442349, 0.5607491306441724, 0.1};
Point(p16 + 3) = {31.09700351155203, 0.7348401296407355, 0.1};
Point(p16 + 4) = {30.99854663064417, 0.8955071568596595, 0.1};
Point(p16 + 5) = {30.87616805686752, 1.038794056867522, 0.1};
Point(p16 + 6) = {30.73288115685966, 1.161172630644172, 0.1};
Point(p16 + 7) = {30.57221412964073, 1.259629511552029, 0.1};
Point(p16 + 8) = {30.39812313064417, 1.331740364423486, 0.1};
Point(p16 + 9) = {30.21489485804017, 1.375729580738649, 0.1};
Point(p16 + 10) = {30.027041, 1.390514, 0.1};
Point(p16 + 11) = {29.83918714195983, 1.375729580738649, 0.1};
Point(p16 + 12) = {29.65595886935583, 1.331740364423486, 0.1};
Point(p16 + 13) = {29.48186787035927, 1.259629511552029, 0.1};
Point(p16 + 14) = {29.32120084314034, 1.161172630644173, 0.1};
Point(p16 + 15) = {29.17791394313248, 1.038794056867522, 0.1};
Point(p16 + 16) = {29.05553536935583, 0.8955071568596596, 0.1};
Point(p16 + 17) = {28.95707848844797, 0.7348401296407356, 0.1};
Point(p16 + 18) = {28.88496763557652, 0.5607491306441726, 0.1};
Point(p16 + 19) = {28.84097841926135, 0.3775208580401662, 0.1};
Point(p16 + 20) = {28.826194, 0.1896670000000001, 0.1};
Point(p16 + 21) = {28.84097841926135, 0.001813141959834008, 0.1};
Point(p16 + 22) = {28.88496763557652, -0.1814151306441728, 0.1};
Point(p16 + 23) = {28.95707848844797, -0.3555061296407349, 0.1};
Point(p16 + 24) = {29.05553536935583, -0.5161731568596594, 0.1};
Point(p16 + 25) = {29.17791394313248, -0.659460056867522, 0.1};
Point(p16 + 26) = {29.32120084314034, -0.7818386306441724, 0.1};
Point(p16 + 27) = {29.48186787035926, -0.8802955115520288, 0.1};
Point(p16 + 28) = {29.65595886935583, -0.9524063644234861, 0.1};
Point(p16 + 29) = {29.83918714195983, -0.9963955807386493, 0.1};
Point(p16 + 30) = {30.027041, -1.01118, 0.1};
Point(p16 + 31) = {30.21489485804017, -0.9963955807386493, 0.1};
Point(p16 + 32) = {30.39812313064417, -0.9524063644234864, 0.1};
Point(p16 + 33) = {30.57221412964073, -0.8802955115520292, 0.1};
Point(p16 + 34) = {30.73288115685966, -0.7818386306441726, 0.1};
Point(p16 + 35) = {30.87616805686752, -0.6594600568675222, 0.1};
Point(p16 + 36) = {30.99854663064417, -0.5161731568596596, 0.1};
Point(p16 + 37) = {31.09700351155203, -0.3555061296407357, 0.1};
Point(p16 + 38) = {31.16911436442349, -0.1814151306441727, 0.1};
Point(p16 + 39) = {31.21310358073865, 0.001813141959833592, 0.1};
Spline(16) = {11, p16 + 1, p16 + 2, p16 + 3, p16 + 4, p16 + 5, p16 + 6, p16 + 7, p16 + 8, p16 + 9, p16 + 10, p16 + 11, p16 + 12, p16 + 13, p16 + 14, p16 + 15, p16 + 16, p16 + 17, p16 + 18, p16 + 19, p16 + 20, p16 + 21, p16 + 22, p16 + 23, p16 + 24, p16 + 25, p16 + 26, p16 + 27, p16 + 28, p16 + 29, p16 + 30, p16 + 31, p16 + 32, p16 + 33, p16 + 34, p16 + 35, p16 + 36, p16 + 37, p16 + 38, p16 + 39, 11};
Line(17) = {12, 11};
p18 = newp;
Point(p18 + 1) = {31.21310358073865, 0.3775208580401661, 0};
Point(p18 + 2) = {31.16911436442349, 0.5607491306441724, 0};
Point(p18 + 3) = {31.09700351155203, 0.7348401296407355, 0};
Point(p18 + 4) = {30.99854663064417, 0.8955071568596595, 0};
Point(p18 + 5) = {30.87616805686752, 1.038794056867522, 0};
Point(p18 + 6) = {30.73288115685966, 1.161172630644172, 0};
Point(p18 + 7) = {30.57221412964073, 1.259629511552029, 0};
Point(p18 + 8) = {30.39812313064417, 1.331740364423486, 0};
Point(p18 + 9) = {30.21489485804017, 1.375729580738649, 0};
Point(p18 + 10) = {30.027041, 1.390514, 0};
Point(p18 + 11) = {29.83918714195983, 1.375729580738649, 0};
Point(p18 + 12) = {29.65595886935583, 1.331740364423486, 0};
Point(p18 + 13) = {29.48186787035927, 1.259629511552029, 0};
Point(p18 + 14) = {29.32120084314034, 1.161172630644173, 0};
Point(p18 + 15) = {29.17791394313248, 1.038794056867522, 0};
Point(p18 + 16) = {29.05553536935583, 0.8955071568596596, 0};
Point(p18 + 17) = {28.95707848844797, 0.7348401296407356, 0};
Point(p18 + 18) = {28.88496763557652, 0.5607491306441726, 0};
Point(p18 + 19) = {28.84097841926135, 0.3775208580401662, 0};
Point(p18 + 20) = {28.826194, 0.1896670000000001, 0};
Point(p18 + 21) = {28.84097841926135, 0.001813141959834008, 0};
Point(p18 + 22) = {28.88496763557652, -0.1814151306441728, 0};
Point(p18 + 23) = {28.95707848844797, -0.3555061296407349, 0};
Point(p18 + 24) = {29.05553536935583, -0.5161731568596594, 0};
Point(p18 + 25) = {29.17791394313248, -0.659460056867522, 0};
Point(p18 + 26) = {29.32120084314034, -0.7818386306441724, 0};
Point(p18 + 27) = {29.48186787035926, -0.8802955115520288, 0};
Point(p18 + 28) = {29.65595886935583, -0.9524063644234861, 0};
Point(p18 + 29) = {29.83918714195983, -0.9963955807386493, 0};
Point(p18 + 30) = {30.027041, -1.01118, 0};
Point(p18 + 31) = {30.21489485804017, -0.9963955807386493, 0};
Point(p18 + 32) = {30.39812313064417, -0.9524063644234864, 0};
Point(p18 + 33) = {30.57221412964073, -0.8802955115520292, 0};
Point(p18 + 34) = {30.73288115685966, -0.7818386306441726, 0};
Point(p18 + 35) = {30.87616805686752, -0.6594600568675222, 0};
Point(p18 + 36) = {30.99854663064417, -0.5161731568596596, 0};
Point(p18 + 37) = {31.09700351155203, -0.3555061296407357, 0};
Point(p18 + 38) = {31.16911436442349, -0.1814151306441727, 0};
Point(p18 + 39) = {31.21310358073865, 0.001813141959833592, 0};
Spline(18) = {12, p18 + 1, p18 + 2, p18 + 3, p18 + 4, p18 + 5, p18 + 6, p18 + 7, p18 + 8, p18 + 9, p18 + 10, p18 + 11, p18 + 12, p18 + 13, p18 + 14, p18 + 15, p18 + 16, p18 + 17, p18 + 18, p18 + 19, p18 + 20, p18 + 21, p18 + 22, p18 + 23, p18 + 24, p18 + 25, p18 + 26, p18 + 27, p18 + 28, p18 + 29, p18 + 30, p18 + 31, p18 + 32, p18 + 33, p18 + 34, p18 + 35, p18 + 36, p18 + 37, p18 + 38, p18 + 39, 12};
Line(19) = {14, 13};
Line(20) = {13, 15};
Line(21) = {16, 15};
Line(22) = {14, 16};
Line(23) = {14, 17};
Line(24) = {17, 18};
Line(25) = {13, 18};
Line(26) = {15, 19};
Line(27) = {18, 19};
Line(28) = {16, 20};
Line(29) = {20, 19};
Line(30) = {17, 20};
Curve Loop(7) = {-13, -14, 15, 14};
Surface(7) = {7};
Curve Loop(8) = {13};
Plane Surface(8) = {8};
Curve Loop(9) = {15};
Plane Surface(9) = {9};
Curve Loop(10) = {-16, -17, 18, 17};
Surface(10) = {10};
Curve Loop(11) = {16};
Plane Surface(11) = {11};
Curve Loop(12) = {18};
Plane Surface(12) = {12};
Curve Loop(13) = {-19, 22, 21, -20};
Plane Surface(13) = {13};
Curve Loop(14) = {-23, 19, 25, -24};
Plane Surface(14) = {14};
Curve Loop(15) = {-20, 25, 27, -26, -13, -16};
Plane Surface(15) = {15};
Curve Loop(16) = {-28, 21, 26, -29};
Plane Surface(16) = {16};
Curve Loop(17) = {-22, 23, 30, -28, -15, -18};
Plane Surface(17) = {17};
Curve Loop(18) = {-24, 30, 29, -27};
Plane Surface(18) = {18};
Surface Loop(1) = {13, 14, 15, 16, 17, 18, 7, 10};
Volume(1) = {1};
Surface Loop(2) = {7, 8, 9};
Volume(2) = {2};
Surface Loop(3) = {10, 11, 12};
Volume(3) = {3};
Physical Surface("WALLS") = {13, 18};
Physical Surface("LOAD") = {8, 11};
Physical Surface("BORDER") = {7, 9, 10, 12, 14, 15, 16, 17};
Physical Volume("SOLID") = {1, 2, 3};
