cl__1 = 0.06711399999999999;
cl__2 = 0.087946;
cl__3 = 2.597579;
cl__4 = 2.452216;
cl__5 = 0.530932;
cl__6 = 0.74592;
Point(9) = {21.842311, 1.074028, 0.1, cl__1};
Point(10) = {21.842311, 1.074028, 0, cl__1};
Point(11) = {24.699866, -3.31267, 0.1, cl__2};
Point(12) = {24.699866, -3.31267, 0, cl__2};
Point(13) = {0.370181, -4.711311, 0.1, cl__3};
Point(14) = {0.370181, -4.711311, 0, cl__3};
Point(15) = {0.370181, 5.130324999999999, 0.1, cl__4};
Point(16) = {0.370181, 5.130324999999999, 0, cl__4};
Point(17) = {32.669778, -4.711311, 0, cl__5};
Point(18) = {32.669778, -4.711311, 0.1, cl__5};
Point(19) = {32.669778, 5.130324999999999, 0.1, cl__6};
Point(20) = {32.669778, 5.130324999999999, 0, cl__6};
p13 = newp;
Point(p13 + 1) = {21.83404816521868, 1.179017270432635, 0.1};
Point(p13 + 2) = {21.80946311928981, 1.281421356587808, 0.1};
Point(p13 + 3) = {21.76916122763726, 1.3787187300047, 0.1};
Point(p13 + 4) = {21.7141348565878, 1.468513606438318, 0.1};
Point(p13 + 5) = {21.64573893801876, 1.548594938018758, 0.1};
Point(p13 + 6) = {21.56565760643832, 1.616990856587808, 0.1};
Point(p13 + 7) = {21.4758627300047, 1.672017227637257, 0.1};
Point(p13 + 8) = {21.37856535658781, 1.712319119289813, 0.1};
Point(p13 + 9) = {21.27616127043263, 1.73690416521868, 0.1};
Point(p13 + 10) = {21.171172, 1.745167, 0.1};
Point(p13 + 11) = {21.06618272956736, 1.73690416521868, 0.1};
Point(p13 + 12) = {20.96377864341219, 1.712319119289813, 0.1};
Point(p13 + 13) = {20.8664812699953, 1.672017227637257, 0.1};
Point(p13 + 14) = {20.77668639356168, 1.616990856587808, 0.1};
Point(p13 + 15) = {20.69660506198124, 1.548594938018758, 0.1};
Point(p13 + 16) = {20.62820914341219, 1.468513606438318, 0.1};
Point(p13 + 17) = {20.57318277236274, 1.3787187300047, 0.1};
Point(p13 + 18) = {20.53288088071018, 1.281421356587808, 0.1};
Point(p13 + 19) = {20.50829583478132, 1.179017270432636, 0.1};
Point(p13 + 20) = {20.500033, 1.074028, 0.1};
Point(p13 + 21) = {20.50829583478132, 0.9690387295673646, 0.1};
Point(p13 + 22) = {20.53288088071018, 0.8666346434121919, 0.1};
Point(p13 + 23) = {20.57318277236274, 0.7693372699953006, 0.1};
Point(p13 + 24) = {20.62820914341219, 0.6795423935616819, 0.1};
Point(p13 + 25) = {20.69660506198124, 0.5994610619812417, 0.1};
Point(p13 + 26) = {20.77668639356168, 0.5310651434121921, 0.1};
Point(p13 + 27) = {20.8664812699953, 0.4760387723627429, 0.1};
Point(p13 + 28) = {20.96377864341219, 0.4357368807101869, 0.1};
Point(p13 + 29) = {21.06618272956736, 0.4111518347813199, 0.1};
Point(p13 + 30) = {21.171172, 0.4028889999999999, 0.1};
Point(p13 + 31) = {21.27616127043263, 0.4111518347813198, 0.1};
Point(p13 + 32) = {21.37856535658781, 0.4357368807101868, 0.1};
Point(p13 + 33) = {21.4758627300047, 0.4760387723627428, 0.1};
Point(p13 + 34) = {21.56565760643832, 0.531065143412192, 0.1};
Point(p13 + 35) = {21.64573893801876, 0.5994610619812415, 0.1};
Point(p13 + 36) = {21.7141348565878, 0.6795423935616818, 0.1};
Point(p13 + 37) = {21.76916122763726, 0.7693372699953002, 0.1};
Point(p13 + 38) = {21.80946311928981, 0.866634643412192, 0.1};
Point(p13 + 39) = {21.83404816521868, 0.9690387295673644, 0.1};
Spline(13) = {9, p13 + 1, p13 + 2, p13 + 3, p13 + 4, p13 + 5, p13 + 6, p13 + 7, p13 + 8, p13 + 9, p13 + 10, p13 + 11, p13 + 12, p13 + 13, p13 + 14, p13 + 15, p13 + 16, p13 + 17, p13 + 18, p13 + 19, p13 + 20, p13 + 21, p13 + 22, p13 + 23, p13 + 24, p13 + 25, p13 + 26, p13 + 27, p13 + 28, p13 + 29, p13 + 30, p13 + 31, p13 + 32, p13 + 33, p13 + 34, p13 + 35, p13 + 36, p13 + 37, p13 + 38, p13 + 39, 9};
Line(14) = {10, 9};
p15 = newp;
Point(p15 + 1) = {21.83404816521868, 1.179017270432635, 0};
Point(p15 + 2) = {21.80946311928981, 1.281421356587808, 0};
Point(p15 + 3) = {21.76916122763726, 1.3787187300047, 0};
Point(p15 + 4) = {21.7141348565878, 1.468513606438318, 0};
Point(p15 + 5) = {21.64573893801876, 1.548594938018758, 0};
Point(p15 + 6) = {21.56565760643832, 1.616990856587808, 0};
Point(p15 + 7) = {21.4758627300047, 1.672017227637257, 0};
Point(p15 + 8) = {21.37856535658781, 1.712319119289813, 0};
Point(p15 + 9) = {21.27616127043263, 1.73690416521868, 0};
Point(p15 + 10) = {21.171172, 1.745167, 0};
Point(p15 + 11) = {21.06618272956736, 1.73690416521868, 0};
Point(p15 + 12) = {20.96377864341219, 1.712319119289813, 0};
Point(p15 + 13) = {20.8664812699953, 1.672017227637257, 0};
Point(p15 + 14) = {20.77668639356168, 1.616990856587808, 0};
Point(p15 + 15) = {20.69660506198124, 1.548594938018758, 0};
Point(p15 + 16) = {20.62820914341219, 1.468513606438318, 0};
Point(p15 + 17) = {20.57318277236274, 1.3787187300047, 0};
Point(p15 + 18) = {20.53288088071018, 1.281421356587808, 0};
Point(p15 + 19) = {20.50829583478132, 1.179017270432636, 0};
Point(p15 + 20) = {20.500033, 1.074028, 0};
Point(p15 + 21) = {20.50829583478132, 0.9690387295673646, 0};
Point(p15 + 22) = {20.53288088071018, 0.8666346434121919, 0};
Point(p15 + 23) = {20.57318277236274, 0.7693372699953006, 0};
Point(p15 + 24) = {20.62820914341219, 0.6795423935616819, 0};
Point(p15 + 25) = {20.69660506198124, 0.5994610619812417, 0};
Point(p15 + 26) = {20.77668639356168, 0.5310651434121921, 0};
Point(p15 + 27) = {20.8664812699953, 0.4760387723627429, 0};
Point(p15 + 28) = {20.96377864341219, 0.4357368807101869, 0};
Point(p15 + 29) = {21.06618272956736, 0.4111518347813199, 0};
Point(p15 + 30) = {21.171172, 0.4028889999999999, 0};
Point(p15 + 31) = {21.27616127043263, 0.4111518347813198, 0};
Point(p15 + 32) = {21.37856535658781, 0.4357368807101868, 0};
Point(p15 + 33) = {21.4758627300047, 0.4760387723627428, 0};
Point(p15 + 34) = {21.56565760643832, 0.531065143412192, 0};
Point(p15 + 35) = {21.64573893801876, 0.5994610619812415, 0};
Point(p15 + 36) = {21.7141348565878, 0.6795423935616818, 0};
Point(p15 + 37) = {21.76916122763726, 0.7693372699953002, 0};
Point(p15 + 38) = {21.80946311928981, 0.866634643412192, 0};
Point(p15 + 39) = {21.83404816521868, 0.9690387295673644, 0};
Spline(15) = {10, p15 + 1, p15 + 2, p15 + 3, p15 + 4, p15 + 5, p15 + 6, p15 + 7, p15 + 8, p15 + 9, p15 + 10, p15 + 11, p15 + 12, p15 + 13, p15 + 14, p15 + 15, p15 + 16, p15 + 17, p15 + 18, p15 + 19, p15 + 20, p15 + 21, p15 + 22, p15 + 23, p15 + 24, p15 + 25, p15 + 26, p15 + 27, p15 + 28, p15 + 29, p15 + 30, p15 + 31, p15 + 32, p15 + 33, p15 + 34, p15 + 35, p15 + 36, p15 + 37, p15 + 38, p15 + 39, 10};
p16 = newp;
Point(p16 + 1) = {24.6890384495781, -3.175092927548044, 0.1};
Point(p16 + 2) = {24.65682240853835, -3.040903459211981, 0.1};
Point(p16 + 3) = {24.60401114273008, -2.913405785051557, 0.1};
Point(p16 + 4) = {24.53190504078802, -2.795739320945123, 0.1};
Point(p16 + 5) = {24.44227959424842, -2.690801405751585, 0.1};
Point(p16 + 6) = {24.33734167905488, -2.601175959211981, 0.1};
Point(p16 + 7) = {24.21967521494844, -2.529069857269919, 0.1};
Point(p16 + 8) = {24.09217754078802, -2.476258591461646, 0.1};
Point(p16 + 9) = {23.95798807245196, -2.444042550421903, 0.1};
Point(p16 + 10) = {23.820411, -2.433215, 0.1};
Point(p16 + 11) = {23.68283392754804, -2.444042550421903, 0.1};
Point(p16 + 12) = {23.54864445921198, -2.476258591461646, 0.1};
Point(p16 + 13) = {23.42114678505156, -2.529069857269919, 0.1};
Point(p16 + 14) = {23.30348032094512, -2.601175959211981, 0.1};
Point(p16 + 15) = {23.19854240575158, -2.690801405751585, 0.1};
Point(p16 + 16) = {23.10891695921198, -2.795739320945123, 0.1};
Point(p16 + 17) = {23.03681085726992, -2.913405785051557, 0.1};
Point(p16 + 18) = {22.98399959146165, -3.040903459211981, 0.1};
Point(p16 + 19) = {22.9517835504219, -3.175092927548044, 0.1};
Point(p16 + 20) = {22.940956, -3.31267, 0.1};
Point(p16 + 21) = {22.9517835504219, -3.450247072451956, 0.1};
Point(p16 + 22) = {22.98399959146165, -3.584436540788019, 0.1};
Point(p16 + 23) = {23.03681085726992, -3.711934214948442, 0.1};
Point(p16 + 24) = {23.10891695921198, -3.829600679054876, 0.1};
Point(p16 + 25) = {23.19854240575158, -3.934538594248415, 0.1};
Point(p16 + 26) = {23.30348032094512, -4.024164040788019, 0.1};
Point(p16 + 27) = {23.42114678505156, -4.096270142730081, 0.1};
Point(p16 + 28) = {23.54864445921198, -4.149081408538354, 0.1};
Point(p16 + 29) = {23.68283392754804, -4.181297449578096, 0.1};
Point(p16 + 30) = {23.820411, -4.192125, 0.1};
Point(p16 + 31) = {23.95798807245196, -4.181297449578096, 0.1};
Point(p16 + 32) = {24.09217754078802, -4.149081408538354, 0.1};
Point(p16 + 33) = {24.21967521494844, -4.096270142730081, 0.1};
Point(p16 + 34) = {24.33734167905488, -4.024164040788019, 0.1};
Point(p16 + 35) = {24.44227959424842, -3.934538594248415, 0.1};
Point(p16 + 36) = {24.53190504078802, -3.829600679054877, 0.1};
Point(p16 + 37) = {24.60401114273008, -3.711934214948443, 0.1};
Point(p16 + 38) = {24.65682240853835, -3.584436540788019, 0.1};
Point(p16 + 39) = {24.6890384495781, -3.450247072451956, 0.1};
Spline(16) = {11, p16 + 1, p16 + 2, p16 + 3, p16 + 4, p16 + 5, p16 + 6, p16 + 7, p16 + 8, p16 + 9, p16 + 10, p16 + 11, p16 + 12, p16 + 13, p16 + 14, p16 + 15, p16 + 16, p16 + 17, p16 + 18, p16 + 19, p16 + 20, p16 + 21, p16 + 22, p16 + 23, p16 + 24, p16 + 25, p16 + 26, p16 + 27, p16 + 28, p16 + 29, p16 + 30, p16 + 31, p16 + 32, p16 + 33, p16 + 34, p16 + 35, p16 + 36, p16 + 37, p16 + 38, p16 + 39, 11};
Line(17) = {12, 11};
p18 = newp;
Point(p18 + 1) = {24.6890384495781, -3.175092927548044, 0};
Point(p18 + 2) = {24.65682240853835, -3.040903459211981, 0};
Point(p18 + 3) = {24.60401114273008, -2.913405785051557, 0};
Point(p18 + 4) = {24.53190504078802, -2.795739320945123, 0};
Point(p18 + 5) = {24.44227959424842, -2.690801405751585, 0};
Point(p18 + 6) = {24.33734167905488, -2.601175959211981, 0};
Point(p18 + 7) = {24.21967521494844, -2.529069857269919, 0};
Point(p18 + 8) = {24.09217754078802, -2.476258591461646, 0};
Point(p18 + 9) = {23.95798807245196, -2.444042550421903, 0};
Point(p18 + 10) = {23.820411, -2.433215, 0};
Point(p18 + 11) = {23.68283392754804, -2.444042550421903, 0};
Point(p18 + 12) = {23.54864445921198, -2.476258591461646, 0};
Point(p18 + 13) = {23.42114678505156, -2.529069857269919, 0};
Point(p18 + 14) = {23.30348032094512, -2.601175959211981, 0};
Point(p18 + 15) = {23.19854240575158, -2.690801405751585, 0};
Point(p18 + 16) = {23.10891695921198, -2.795739320945123, 0};
Point(p18 + 17) = {23.03681085726992, -2.913405785051557, 0};
Point(p18 + 18) = {22.98399959146165, -3.040903459211981, 0};
Point(p18 + 19) = {22.9517835504219, -3.175092927548044, 0};
Point(p18 + 20) = {22.940956, -3.31267, 0};
Point(p18 + 21) = {22.9517835504219, -3.450247072451956, 0};
Point(p18 + 22) = {22.98399959146165, -3.584436540788019, 0};
Point(p18 + 23) = {23.03681085726992, -3.711934214948442, 0};
Point(p18 + 24) = {23.10891695921198, -3.829600679054876, 0};
Point(p18 + 25) = {23.19854240575158, -3.934538594248415, 0};
Point(p18 + 26) = {23.30348032094512, -4.024164040788019, 0};
Point(p18 + 27) = {23.42114678505156, -4.096270142730081, 0};
Point(p18 + 28) = {23.54864445921198, -4.149081408538354, 0};
Point(p18 + 29) = {23.68283392754804, -4.181297449578096, 0};
Point(p18 + 30) = {23.820411, -4.192125, 0};
Point(p18 + 31) = {23.95798807245196, -4.181297449578096, 0};
Point(p18 + 32) = {24.09217754078802, -4.149081408538354, 0};
Point(p18 + 33) = {24.21967521494844, -4.096270142730081, 0};
Point(p18 + 34) = {24.33734167905488, -4.024164040788019, 0};
Point(p18 + 35) = {24.44227959424842, -3.934538594248415, 0};
Point(p18 + 36) = {24.53190504078802, -3.829600679054877, 0};
Point(p18 + 37) = {24.60401114273008, -3.711934214948443, 0};
Point(p18 + 38) = {24.65682240853835, -3.584436540788019, 0};
Point(p18 + 39) = {24.6890384495781, -3.450247072451956, 0};
Spline(18) = {12, p18 + 1, p18 + 2, p18 + 3, p18 + 4, p18 + 5, p18 + 6, p18 + 7, p18 + 8, p18 + 9, p18 + 10, p18 + 11, p18 + 12, p18 + 13, p18 + 14, p18 + 15, p18 + 16, p18 + 17, p18 + 18, p18 + 19, p18 + 20, p18 + 21, p18 + 22, p18 + 23, p18 + 24, p18 + 25, p18 + 26, p18 + 27, p18 + 28, p18 + 29, p18 + 30, p18 + 31, p18 + 32, p18 + 33, p18 + 34, p18 + 35, p18 + 36, p18 + 37, p18 + 38, p18 + 39, 12};
Line(19) = {14, 13};
Line(20) = {13, 15};
Line(21) = {16, 15};
Line(22) = {14, 16};
Line(23) = {14, 17};
Line(24) = {17, 18};
Line(25) = {13, 18};
Line(26) = {15, 19};
Line(27) = {18, 19};
Line(28) = {16, 20};
Line(29) = {20, 19};
Line(30) = {17, 20};
Curve Loop(7) = {-13, -14, 15, 14};
Surface(7) = {7};
Curve Loop(8) = {13};
Plane Surface(8) = {8};
Curve Loop(9) = {15};
Plane Surface(9) = {9};
Curve Loop(10) = {-16, -17, 18, 17};
Surface(10) = {10};
Curve Loop(11) = {16};
Plane Surface(11) = {11};
Curve Loop(12) = {18};
Plane Surface(12) = {12};
Curve Loop(13) = {-19, 22, 21, -20};
Plane Surface(13) = {13};
Curve Loop(14) = {-23, 19, 25, -24};
Plane Surface(14) = {14};
Curve Loop(15) = {-20, 25, 27, -26, -16, -13};
Plane Surface(15) = {15};
Curve Loop(16) = {-28, 21, 26, -29};
Plane Surface(16) = {16};
Curve Loop(17) = {-22, 23, 30, -28, -18, -15};
Plane Surface(17) = {17};
Curve Loop(18) = {-24, 30, 29, -27};
Plane Surface(18) = {18};
Surface Loop(1) = {13, 14, 15, 16, 17, 18, 10, 7};
Volume(1) = {1};
Surface Loop(2) = {7, 8, 9};
Volume(2) = {2};
Surface Loop(3) = {10, 11, 12};
Volume(3) = {3};
Physical Surface("WALLS") = {13, 18};
Physical Surface("LOAD") = {8, 11};
Physical Surface("BORDER") = {7, 9, 10, 12, 14, 15, 16, 17};
Physical Volume("SOLID") = {1, 2, 3};
