cl__1 = 0.056228;
cl__2 = 0.082505;
cl__3 = 0.67903;
cl__4 = 1.895314;
cl__5 = 1.858244;
cl__6 = 0.854004;
Point(9) = {32.688317, 1.787393, 0.1, cl__1};
Point(10) = {32.688317, 1.787393, 0, cl__1};
Point(11) = {5.907489, -2.218036, 0.1, cl__2};
Point(12) = {5.907489, -2.218036, 0, cl__2};
Point(13) = {0.841167, -3.641687, 0.1, cl__3};
Point(14) = {0.841167, -3.641687, 0, cl__3};
Point(15) = {0.841167, 3.937239, 0.1, cl__4};
Point(16) = {0.841167, 3.937239, 0, cl__4};
Point(17) = {36.807269, -3.641687, 0, cl__5};
Point(18) = {36.807269, -3.641687, 0.1, cl__5};
Point(19) = {36.807269, 3.937239, 0.1, cl__6};
Point(20) = {36.807269, 3.937239, 0, cl__6};
p13 = newp;
Point(p13 + 1) = {32.68139438783817, 1.875353127437286, 0.1};
Point(p13 + 2) = {32.66079700903895, 1.96114738461414, 0.1};
Point(p13 + 3) = {32.62703203942716, 2.042663232184052, 0.1};
Point(p13 + 4) = {32.58093088461414, 2.117893479444264, 0.1};
Point(p13 + 5) = {32.52362870803235, 2.184985708032353, 0.1};
Point(p13 + 6) = {32.45653647944426, 2.24228788461414, 0.1};
Point(p13 + 7) = {32.38130623218405, 2.28838903942716, 0.1};
Point(p13 + 8) = {32.29979038461414, 2.322154009038955, 0.1};
Point(p13 + 9) = {32.21399612743728, 2.342751387838175, 0.1};
Point(p13 + 10) = {32.126036, 2.349674, 0.1};
Point(p13 + 11) = {32.03807587256271, 2.342751387838175, 0.1};
Point(p13 + 12) = {31.95228161538586, 2.322154009038955, 0.1};
Point(p13 + 13) = {31.87076576781595, 2.28838903942716, 0.1};
Point(p13 + 14) = {31.79553552055573, 2.24228788461414, 0.1};
Point(p13 + 15) = {31.72844329196765, 2.184985708032353, 0.1};
Point(p13 + 16) = {31.67114111538586, 2.117893479444264, 0.1};
Point(p13 + 17) = {31.62503996057284, 2.042663232184052, 0.1};
Point(p13 + 18) = {31.59127499096104, 1.96114738461414, 0.1};
Point(p13 + 19) = {31.57067761216182, 1.875353127437286, 0.1};
Point(p13 + 20) = {31.563755, 1.787393, 0.1};
Point(p13 + 21) = {31.57067761216182, 1.699432872562714, 0.1};
Point(p13 + 22) = {31.59127499096104, 1.61363861538586, 0.1};
Point(p13 + 23) = {31.62503996057284, 1.532122767815948, 0.1};
Point(p13 + 24) = {31.67114111538586, 1.456892520555736, 0.1};
Point(p13 + 25) = {31.72844329196765, 1.389800291967647, 0.1};
Point(p13 + 26) = {31.79553552055573, 1.33249811538586, 0.1};
Point(p13 + 27) = {31.87076576781595, 1.28639696057284, 0.1};
Point(p13 + 28) = {31.95228161538586, 1.252631990961045, 0.1};
Point(p13 + 29) = {32.03807587256271, 1.232034612161825, 0.1};
Point(p13 + 30) = {32.126036, 1.225112, 0.1};
Point(p13 + 31) = {32.21399612743728, 1.232034612161825, 0.1};
Point(p13 + 32) = {32.29979038461414, 1.252631990961045, 0.1};
Point(p13 + 33) = {32.38130623218405, 1.28639696057284, 0.1};
Point(p13 + 34) = {32.45653647944426, 1.33249811538586, 0.1};
Point(p13 + 35) = {32.52362870803235, 1.389800291967647, 0.1};
Point(p13 + 36) = {32.58093088461414, 1.456892520555736, 0.1};
Point(p13 + 37) = {32.62703203942716, 1.532122767815948, 0.1};
Point(p13 + 38) = {32.66079700903895, 1.61363861538586, 0.1};
Point(p13 + 39) = {32.68139438783817, 1.699432872562714, 0.1};
Spline(13) = {9, p13 + 1, p13 + 2, p13 + 3, p13 + 4, p13 + 5, p13 + 6, p13 + 7, p13 + 8, p13 + 9, p13 + 10, p13 + 11, p13 + 12, p13 + 13, p13 + 14, p13 + 15, p13 + 16, p13 + 17, p13 + 18, p13 + 19, p13 + 20, p13 + 21, p13 + 22, p13 + 23, p13 + 24, p13 + 25, p13 + 26, p13 + 27, p13 + 28, p13 + 29, p13 + 30, p13 + 31, p13 + 32, p13 + 33, p13 + 34, p13 + 35, p13 + 36, p13 + 37, p13 + 38, p13 + 39, 9};
Line(14) = {10, 9};
p15 = newp;
Point(p15 + 1) = {32.68139438783817, 1.875353127437286, 0};
Point(p15 + 2) = {32.66079700903895, 1.96114738461414, 0};
Point(p15 + 3) = {32.62703203942716, 2.042663232184052, 0};
Point(p15 + 4) = {32.58093088461414, 2.117893479444264, 0};
Point(p15 + 5) = {32.52362870803235, 2.184985708032353, 0};
Point(p15 + 6) = {32.45653647944426, 2.24228788461414, 0};
Point(p15 + 7) = {32.38130623218405, 2.28838903942716, 0};
Point(p15 + 8) = {32.29979038461414, 2.322154009038955, 0};
Point(p15 + 9) = {32.21399612743728, 2.342751387838175, 0};
Point(p15 + 10) = {32.126036, 2.349674, 0};
Point(p15 + 11) = {32.03807587256271, 2.342751387838175, 0};
Point(p15 + 12) = {31.95228161538586, 2.322154009038955, 0};
Point(p15 + 13) = {31.87076576781595, 2.28838903942716, 0};
Point(p15 + 14) = {31.79553552055573, 2.24228788461414, 0};
Point(p15 + 15) = {31.72844329196765, 2.184985708032353, 0};
Point(p15 + 16) = {31.67114111538586, 2.117893479444264, 0};
Point(p15 + 17) = {31.62503996057284, 2.042663232184052, 0};
Point(p15 + 18) = {31.59127499096104, 1.96114738461414, 0};
Point(p15 + 19) = {31.57067761216182, 1.875353127437286, 0};
Point(p15 + 20) = {31.563755, 1.787393, 0};
Point(p15 + 21) = {31.57067761216182, 1.699432872562714, 0};
Point(p15 + 22) = {31.59127499096104, 1.61363861538586, 0};
Point(p15 + 23) = {31.62503996057284, 1.532122767815948, 0};
Point(p15 + 24) = {31.67114111538586, 1.456892520555736, 0};
Point(p15 + 25) = {31.72844329196765, 1.389800291967647, 0};
Point(p15 + 26) = {31.79553552055573, 1.33249811538586, 0};
Point(p15 + 27) = {31.87076576781595, 1.28639696057284, 0};
Point(p15 + 28) = {31.95228161538586, 1.252631990961045, 0};
Point(p15 + 29) = {32.03807587256271, 1.232034612161825, 0};
Point(p15 + 30) = {32.126036, 1.225112, 0};
Point(p15 + 31) = {32.21399612743728, 1.232034612161825, 0};
Point(p15 + 32) = {32.29979038461414, 1.252631990961045, 0};
Point(p15 + 33) = {32.38130623218405, 1.28639696057284, 0};
Point(p15 + 34) = {32.45653647944426, 1.33249811538586, 0};
Point(p15 + 35) = {32.52362870803235, 1.389800291967647, 0};
Point(p15 + 36) = {32.58093088461414, 1.456892520555736, 0};
Point(p15 + 37) = {32.62703203942716, 1.532122767815948, 0};
Point(p15 + 38) = {32.66079700903895, 1.61363861538586, 0};
Point(p15 + 39) = {32.68139438783817, 1.699432872562714, 0};
Spline(15) = {10, p15 + 1, p15 + 2, p15 + 3, p15 + 4, p15 + 5, p15 + 6, p15 + 7, p15 + 8, p15 + 9, p15 + 10, p15 + 11, p15 + 12, p15 + 13, p15 + 14, p15 + 15, p15 + 16, p15 + 17, p15 + 18, p15 + 19, p15 + 20, p15 + 21, p15 + 22, p15 + 23, p15 + 24, p15 + 25, p15 + 26, p15 + 27, p15 + 28, p15 + 29, p15 + 30, p15 + 31, p15 + 32, p15 + 33, p15 + 34, p15 + 35, p15 + 36, p15 + 37, p15 + 38, p15 + 39, 10};
p16 = newp;
Point(p16 + 1) = {5.897331265408019, -2.088969744618558, 0.1};
Point(p16 + 2) = {5.867108178769317, -1.96308152879095, 0.1};
Point(p16 + 3) = {5.817563932781613, -1.843471138189887, 0.1};
Point(p16 + 4) = {5.749918471209051, -1.733083777596095, 0.1};
Point(p16 + 5) = {5.665837449817961, -1.634637550182039, 0.1};
Point(p16 + 6) = {5.567391222403905, -1.55055652879095, 0.1};
Point(p16 + 7) = {5.457003861810113, -1.482911067218387, 0.1};
Point(p16 + 8) = {5.33739347120905, -1.433366821230684, 0.1};
Point(p16 + 9) = {5.211505255381442, -1.403143734591982, 0.1};
Point(p16 + 10) = {5.082439, -1.392986, 0.1};
Point(p16 + 11) = {4.953372744618557, -1.403143734591982, 0.1};
Point(p16 + 12) = {4.82748452879095, -1.433366821230684, 0.1};
Point(p16 + 13) = {4.707874138189887, -1.482911067218387, 0.1};
Point(p16 + 14) = {4.597486777596095, -1.55055652879095, 0.1};
Point(p16 + 15) = {4.499040550182039, -1.634637550182039, 0.1};
Point(p16 + 16) = {4.414959528790949, -1.733083777596095, 0.1};
Point(p16 + 17) = {4.347314067218387, -1.843471138189887, 0.1};
Point(p16 + 18) = {4.297769821230683, -1.96308152879095, 0.1};
Point(p16 + 19) = {4.267546734591981, -2.088969744618558, 0.1};
Point(p16 + 20) = {4.257389, -2.218036, 0.1};
Point(p16 + 21) = {4.267546734591981, -2.347102255381443, 0.1};
Point(p16 + 22) = {4.297769821230684, -2.472990471209051, 0.1};
Point(p16 + 23) = {4.347314067218387, -2.592600861810113, 0.1};
Point(p16 + 24) = {4.414959528790949, -2.702988222403905, 0.1};
Point(p16 + 25) = {4.499040550182039, -2.801434449817961, 0.1};
Point(p16 + 26) = {4.597486777596095, -2.88551547120905, 0.1};
Point(p16 + 27) = {4.707874138189887, -2.953160932781613, 0.1};
Point(p16 + 28) = {4.82748452879095, -3.002705178769316, 0.1};
Point(p16 + 29) = {4.953372744618557, -3.032928265408018, 0.1};
Point(p16 + 30) = {5.082439, -3.043086, 0.1};
Point(p16 + 31) = {5.211505255381442, -3.032928265408018, 0.1};
Point(p16 + 32) = {5.33739347120905, -3.002705178769316, 0.1};
Point(p16 + 33) = {5.457003861810113, -2.953160932781613, 0.1};
Point(p16 + 34) = {5.567391222403905, -2.885515471209051, 0.1};
Point(p16 + 35) = {5.66583744981796, -2.801434449817961, 0.1};
Point(p16 + 36) = {5.749918471209051, -2.702988222403905, 0.1};
Point(p16 + 37) = {5.817563932781613, -2.592600861810114, 0.1};
Point(p16 + 38) = {5.867108178769317, -2.472990471209051, 0.1};
Point(p16 + 39) = {5.897331265408019, -2.347102255381443, 0.1};
Spline(16) = {11, p16 + 1, p16 + 2, p16 + 3, p16 + 4, p16 + 5, p16 + 6, p16 + 7, p16 + 8, p16 + 9, p16 + 10, p16 + 11, p16 + 12, p16 + 13, p16 + 14, p16 + 15, p16 + 16, p16 + 17, p16 + 18, p16 + 19, p16 + 20, p16 + 21, p16 + 22, p16 + 23, p16 + 24, p16 + 25, p16 + 26, p16 + 27, p16 + 28, p16 + 29, p16 + 30, p16 + 31, p16 + 32, p16 + 33, p16 + 34, p16 + 35, p16 + 36, p16 + 37, p16 + 38, p16 + 39, 11};
Line(17) = {12, 11};
p18 = newp;
Point(p18 + 1) = {5.897331265408019, -2.088969744618558, 0};
Point(p18 + 2) = {5.867108178769317, -1.96308152879095, 0};
Point(p18 + 3) = {5.817563932781613, -1.843471138189887, 0};
Point(p18 + 4) = {5.749918471209051, -1.733083777596095, 0};
Point(p18 + 5) = {5.665837449817961, -1.634637550182039, 0};
Point(p18 + 6) = {5.567391222403905, -1.55055652879095, 0};
Point(p18 + 7) = {5.457003861810113, -1.482911067218387, 0};
Point(p18 + 8) = {5.33739347120905, -1.433366821230684, 0};
Point(p18 + 9) = {5.211505255381442, -1.403143734591982, 0};
Point(p18 + 10) = {5.082439, -1.392986, 0};
Point(p18 + 11) = {4.953372744618557, -1.403143734591982, 0};
Point(p18 + 12) = {4.82748452879095, -1.433366821230684, 0};
Point(p18 + 13) = {4.707874138189887, -1.482911067218387, 0};
Point(p18 + 14) = {4.597486777596095, -1.55055652879095, 0};
Point(p18 + 15) = {4.499040550182039, -1.634637550182039, 0};
Point(p18 + 16) = {4.414959528790949, -1.733083777596095, 0};
Point(p18 + 17) = {4.347314067218387, -1.843471138189887, 0};
Point(p18 + 18) = {4.297769821230683, -1.96308152879095, 0};
Point(p18 + 19) = {4.267546734591981, -2.088969744618558, 0};
Point(p18 + 20) = {4.257389, -2.218036, 0};
Point(p18 + 21) = {4.267546734591981, -2.347102255381443, 0};
Point(p18 + 22) = {4.297769821230684, -2.472990471209051, 0};
Point(p18 + 23) = {4.347314067218387, -2.592600861810113, 0};
Point(p18 + 24) = {4.414959528790949, -2.702988222403905, 0};
Point(p18 + 25) = {4.499040550182039, -2.801434449817961, 0};
Point(p18 + 26) = {4.597486777596095, -2.88551547120905, 0};
Point(p18 + 27) = {4.707874138189887, -2.953160932781613, 0};
Point(p18 + 28) = {4.82748452879095, -3.002705178769316, 0};
Point(p18 + 29) = {4.953372744618557, -3.032928265408018, 0};
Point(p18 + 30) = {5.082439, -3.043086, 0};
Point(p18 + 31) = {5.211505255381442, -3.032928265408018, 0};
Point(p18 + 32) = {5.33739347120905, -3.002705178769316, 0};
Point(p18 + 33) = {5.457003861810113, -2.953160932781613, 0};
Point(p18 + 34) = {5.567391222403905, -2.885515471209051, 0};
Point(p18 + 35) = {5.66583744981796, -2.801434449817961, 0};
Point(p18 + 36) = {5.749918471209051, -2.702988222403905, 0};
Point(p18 + 37) = {5.817563932781613, -2.592600861810114, 0};
Point(p18 + 38) = {5.867108178769317, -2.472990471209051, 0};
Point(p18 + 39) = {5.897331265408019, -2.347102255381443, 0};
Spline(18) = {12, p18 + 1, p18 + 2, p18 + 3, p18 + 4, p18 + 5, p18 + 6, p18 + 7, p18 + 8, p18 + 9, p18 + 10, p18 + 11, p18 + 12, p18 + 13, p18 + 14, p18 + 15, p18 + 16, p18 + 17, p18 + 18, p18 + 19, p18 + 20, p18 + 21, p18 + 22, p18 + 23, p18 + 24, p18 + 25, p18 + 26, p18 + 27, p18 + 28, p18 + 29, p18 + 30, p18 + 31, p18 + 32, p18 + 33, p18 + 34, p18 + 35, p18 + 36, p18 + 37, p18 + 38, p18 + 39, 12};
Line(19) = {14, 13};
Line(20) = {13, 15};
Line(21) = {16, 15};
Line(22) = {14, 16};
Line(23) = {14, 17};
Line(24) = {17, 18};
Line(25) = {13, 18};
Line(26) = {15, 19};
Line(27) = {18, 19};
Line(28) = {16, 20};
Line(29) = {20, 19};
Line(30) = {17, 20};
Curve Loop(7) = {-13, -14, 15, 14};
Surface(7) = {7};
Curve Loop(8) = {13};
Plane Surface(8) = {8};
Curve Loop(9) = {15};
Plane Surface(9) = {9};
Curve Loop(10) = {-16, -17, 18, 17};
Surface(10) = {10};
Curve Loop(11) = {16};
Plane Surface(11) = {11};
Curve Loop(12) = {18};
Plane Surface(12) = {12};
Curve Loop(13) = {-19, 22, 21, -20};
Plane Surface(13) = {13};
Curve Loop(14) = {-23, 19, 25, -24};
Plane Surface(14) = {14};
Curve Loop(15) = {-20, 25, 27, -26, -16, -13};
Plane Surface(15) = {15};
Curve Loop(16) = {-28, 21, 26, -29};
Plane Surface(16) = {16};
Curve Loop(17) = {-22, 23, 30, -28, -18, -15};
Plane Surface(17) = {17};
Curve Loop(18) = {-24, 30, 29, -27};
Plane Surface(18) = {18};
Surface Loop(1) = {13, 14, 15, 16, 17, 18, 10, 7};
Volume(1) = {1};
Surface Loop(2) = {7, 8, 9};
Volume(2) = {2};
Surface Loop(3) = {10, 11, 12};
Volume(3) = {3};
Physical Surface("WALLS") = {13, 18};
Physical Surface("LOAD") = {8, 11};
Physical Surface("BORDER") = {7, 9, 10, 12, 14, 15, 16, 17};
Physical Volume("SOLID") = {1, 2, 3};
