cl__1 = 0.148238;
cl__2 = 0.058873;
cl__3 = 1.501673;
cl__4 = 0.606812;
cl__5 = 0.979443;
cl__6 = 2.041643;
Point(9) = {29.274973, -2.586496, 0.1, cl__1};
Point(10) = {29.274973, -2.586496, 0, cl__1};
Point(11) = {6.848964, 3.803869999999999, 0.1, cl__2};
Point(12) = {6.848964, 3.803869999999999, 0, cl__2};
Point(13) = {0.6884980000000001, -4.808637, 0.1, cl__3};
Point(14) = {0.6884980000000001, -4.808637, 0, cl__3};
Point(15) = {0.6884980000000001, 5.063332999999999, 0.1, cl__4};
Point(16) = {0.6884980000000001, 5.063332999999999, 0, cl__4};
Point(17) = {37.28830900000001, -4.808637, 0, cl__5};
Point(18) = {37.28830900000001, -4.808637, 0.1, cl__5};
Point(19) = {37.28830900000001, 5.063332999999999, 0.1, cl__6};
Point(20) = {37.28830900000001, 5.063332999999999, 0, cl__6};
p13 = newp;
Point(p13 + 1) = {29.25672244233142, -2.354600677713663, 0.1};
Point(p13 + 2) = {29.20242015862561, -2.128415387878465, 0.1};
Point(p13 + 3) = {29.11340325132635, -1.913509562996091, 0.1};
Point(p13 + 4) = {28.99186361212153, -1.715174897706683, 0.1};
Point(p13 + 5) = {28.84079395029531, -1.538295049704686, 0.1};
Point(p13 + 6) = {28.66391410229332, -1.387225387878465, 0.1};
Point(p13 + 7) = {28.46557943700391, -1.265685748673647, 0.1};
Point(p13 + 8) = {28.25067361212153, -1.17666884137439, 0.1};
Point(p13 + 9) = {28.02448832228634, -1.12236655766858, 0.1};
Point(p13 + 10) = {27.792593, -1.104116, 0.1};
Point(p13 + 11) = {27.56069767771366, -1.12236655766858, 0.1};
Point(p13 + 12) = {27.33451238787847, -1.17666884137439, 0.1};
Point(p13 + 13) = {27.11960656299609, -1.265685748673647, 0.1};
Point(p13 + 14) = {26.92127189770668, -1.387225387878465, 0.1};
Point(p13 + 15) = {26.74439204970469, -1.538295049704685, 0.1};
Point(p13 + 16) = {26.59332238787847, -1.715174897706683, 0.1};
Point(p13 + 17) = {26.47178274867365, -1.913509562996091, 0.1};
Point(p13 + 18) = {26.38276584137439, -2.128415387878465, 0.1};
Point(p13 + 19) = {26.32846355766858, -2.354600677713662, 0.1};
Point(p13 + 20) = {26.310213, -2.586496, 0.1};
Point(p13 + 21) = {26.32846355766858, -2.818391322286337, 0.1};
Point(p13 + 22) = {26.38276584137439, -3.044576612121535, 0.1};
Point(p13 + 23) = {26.47178274867365, -3.259482437003909, 0.1};
Point(p13 + 24) = {26.59332238787847, -3.457817102293316, 0.1};
Point(p13 + 25) = {26.74439204970469, -3.634696950295314, 0.1};
Point(p13 + 26) = {26.92127189770668, -3.785766612121535, 0.1};
Point(p13 + 27) = {27.11960656299609, -3.907306251326353, 0.1};
Point(p13 + 28) = {27.33451238787847, -3.99632315862561, 0.1};
Point(p13 + 29) = {27.56069767771366, -4.05062544233142, 0.1};
Point(p13 + 30) = {27.792593, -4.068875999999999, 0.1};
Point(p13 + 31) = {28.02448832228634, -4.050625442331421, 0.1};
Point(p13 + 32) = {28.25067361212153, -3.99632315862561, 0.1};
Point(p13 + 33) = {28.46557943700391, -3.907306251326353, 0.1};
Point(p13 + 34) = {28.66391410229332, -3.785766612121535, 0.1};
Point(p13 + 35) = {28.84079395029531, -3.634696950295314, 0.1};
Point(p13 + 36) = {28.99186361212153, -3.457817102293316, 0.1};
Point(p13 + 37) = {29.11340325132635, -3.25948243700391, 0.1};
Point(p13 + 38) = {29.20242015862561, -3.044576612121535, 0.1};
Point(p13 + 39) = {29.25672244233142, -2.818391322286338, 0.1};
Spline(13) = {9, p13 + 1, p13 + 2, p13 + 3, p13 + 4, p13 + 5, p13 + 6, p13 + 7, p13 + 8, p13 + 9, p13 + 10, p13 + 11, p13 + 12, p13 + 13, p13 + 14, p13 + 15, p13 + 16, p13 + 17, p13 + 18, p13 + 19, p13 + 20, p13 + 21, p13 + 22, p13 + 23, p13 + 24, p13 + 25, p13 + 26, p13 + 27, p13 + 28, p13 + 29, p13 + 30, p13 + 31, p13 + 32, p13 + 33, p13 + 34, p13 + 35, p13 + 36, p13 + 37, p13 + 38, p13 + 39, 9};
Line(14) = {10, 9};
p15 = newp;
Point(p15 + 1) = {29.25672244233142, -2.354600677713663, 0};
Point(p15 + 2) = {29.20242015862561, -2.128415387878465, 0};
Point(p15 + 3) = {29.11340325132635, -1.913509562996091, 0};
Point(p15 + 4) = {28.99186361212153, -1.715174897706683, 0};
Point(p15 + 5) = {28.84079395029531, -1.538295049704686, 0};
Point(p15 + 6) = {28.66391410229332, -1.387225387878465, 0};
Point(p15 + 7) = {28.46557943700391, -1.265685748673647, 0};
Point(p15 + 8) = {28.25067361212153, -1.17666884137439, 0};
Point(p15 + 9) = {28.02448832228634, -1.12236655766858, 0};
Point(p15 + 10) = {27.792593, -1.104116, 0};
Point(p15 + 11) = {27.56069767771366, -1.12236655766858, 0};
Point(p15 + 12) = {27.33451238787847, -1.17666884137439, 0};
Point(p15 + 13) = {27.11960656299609, -1.265685748673647, 0};
Point(p15 + 14) = {26.92127189770668, -1.387225387878465, 0};
Point(p15 + 15) = {26.74439204970469, -1.538295049704685, 0};
Point(p15 + 16) = {26.59332238787847, -1.715174897706683, 0};
Point(p15 + 17) = {26.47178274867365, -1.913509562996091, 0};
Point(p15 + 18) = {26.38276584137439, -2.128415387878465, 0};
Point(p15 + 19) = {26.32846355766858, -2.354600677713662, 0};
Point(p15 + 20) = {26.310213, -2.586496, 0};
Point(p15 + 21) = {26.32846355766858, -2.818391322286337, 0};
Point(p15 + 22) = {26.38276584137439, -3.044576612121535, 0};
Point(p15 + 23) = {26.47178274867365, -3.259482437003909, 0};
Point(p15 + 24) = {26.59332238787847, -3.457817102293316, 0};
Point(p15 + 25) = {26.74439204970469, -3.634696950295314, 0};
Point(p15 + 26) = {26.92127189770668, -3.785766612121535, 0};
Point(p15 + 27) = {27.11960656299609, -3.907306251326353, 0};
Point(p15 + 28) = {27.33451238787847, -3.99632315862561, 0};
Point(p15 + 29) = {27.56069767771366, -4.05062544233142, 0};
Point(p15 + 30) = {27.792593, -4.068875999999999, 0};
Point(p15 + 31) = {28.02448832228634, -4.050625442331421, 0};
Point(p15 + 32) = {28.25067361212153, -3.99632315862561, 0};
Point(p15 + 33) = {28.46557943700391, -3.907306251326353, 0};
Point(p15 + 34) = {28.66391410229332, -3.785766612121535, 0};
Point(p15 + 35) = {28.84079395029531, -3.634696950295314, 0};
Point(p15 + 36) = {28.99186361212153, -3.457817102293316, 0};
Point(p15 + 37) = {29.11340325132635, -3.25948243700391, 0};
Point(p15 + 38) = {29.20242015862561, -3.044576612121535, 0};
Point(p15 + 39) = {29.25672244233142, -2.818391322286338, 0};
Spline(15) = {10, p15 + 1, p15 + 2, p15 + 3, p15 + 4, p15 + 5, p15 + 6, p15 + 7, p15 + 8, p15 + 9, p15 + 10, p15 + 11, p15 + 12, p15 + 13, p15 + 14, p15 + 15, p15 + 16, p15 + 17, p15 + 18, p15 + 19, p15 + 20, p15 + 21, p15 + 22, p15 + 23, p15 + 24, p15 + 25, p15 + 26, p15 + 27, p15 + 28, p15 + 29, p15 + 30, p15 + 31, p15 + 32, p15 + 33, p15 + 34, p15 + 35, p15 + 36, p15 + 37, p15 + 38, p15 + 39, 10};
p16 = newp;
Point(p16 + 1) = {6.841715806005213, 3.895967036865275, 0.1};
Point(p16 + 2) = {6.820149698612381, 3.985796339030385, 0.1};
Point(p16 + 3) = {6.784796706959321, 4.071146010949664, 0.1};
Point(p16 + 4) = {6.736527339030386, 4.149914460441138, 0.1};
Point(p16 + 5) = {6.676530146860832, 4.220162146860831, 0.1};
Point(p16 + 6) = {6.606282460441139, 4.280159339030385, 0.1};
Point(p16 + 7) = {6.527514010949664, 4.328428706959321, 0.1};
Point(p16 + 8) = {6.442164339030385, 4.363781698612381, 0.1};
Point(p16 + 9) = {6.352335036865275, 4.385347806005213, 0.1};
Point(p16 + 10) = {6.260238, 4.392596, 0.1};
Point(p16 + 11) = {6.168140963134725, 4.385347806005213, 0.1};
Point(p16 + 12) = {6.078311660969615, 4.363781698612381, 0.1};
Point(p16 + 13) = {5.992961989050336, 4.328428706959321, 0.1};
Point(p16 + 14) = {5.914193539558862, 4.280159339030385, 0.1};
Point(p16 + 15) = {5.843945853139169, 4.220162146860831, 0.1};
Point(p16 + 16) = {5.783948660969615, 4.149914460441138, 0.1};
Point(p16 + 17) = {5.735679293040679, 4.071146010949664, 0.1};
Point(p16 + 18) = {5.700326301387619, 3.985796339030385, 0.1};
Point(p16 + 19) = {5.678760193994787, 3.895967036865275, 0.1};
Point(p16 + 20) = {5.671512, 3.80387, 0.1};
Point(p16 + 21) = {5.678760193994787, 3.711772963134725, 0.1};
Point(p16 + 22) = {5.700326301387619, 3.621943660969615, 0.1};
Point(p16 + 23) = {5.735679293040679, 3.536593989050336, 0.1};
Point(p16 + 24) = {5.783948660969615, 3.457825539558861, 0.1};
Point(p16 + 25) = {5.843945853139169, 3.387577853139168, 0.1};
Point(p16 + 26) = {5.914193539558862, 3.327580660969615, 0.1};
Point(p16 + 27) = {5.992961989050336, 3.279311293040679, 0.1};
Point(p16 + 28) = {6.078311660969614, 3.243958301387619, 0.1};
Point(p16 + 29) = {6.168140963134725, 3.222392193994787, 0.1};
Point(p16 + 30) = {6.260238, 3.215144, 0.1};
Point(p16 + 31) = {6.352335036865275, 3.222392193994787, 0.1};
Point(p16 + 32) = {6.442164339030385, 3.243958301387619, 0.1};
Point(p16 + 33) = {6.527514010949664, 3.279311293040679, 0.1};
Point(p16 + 34) = {6.606282460441139, 3.327580660969614, 0.1};
Point(p16 + 35) = {6.676530146860832, 3.387577853139168, 0.1};
Point(p16 + 36) = {6.736527339030386, 3.457825539558861, 0.1};
Point(p16 + 37) = {6.784796706959321, 3.536593989050335, 0.1};
Point(p16 + 38) = {6.820149698612381, 3.621943660969615, 0.1};
Point(p16 + 39) = {6.841715806005213, 3.711772963134725, 0.1};
Spline(16) = {11, p16 + 1, p16 + 2, p16 + 3, p16 + 4, p16 + 5, p16 + 6, p16 + 7, p16 + 8, p16 + 9, p16 + 10, p16 + 11, p16 + 12, p16 + 13, p16 + 14, p16 + 15, p16 + 16, p16 + 17, p16 + 18, p16 + 19, p16 + 20, p16 + 21, p16 + 22, p16 + 23, p16 + 24, p16 + 25, p16 + 26, p16 + 27, p16 + 28, p16 + 29, p16 + 30, p16 + 31, p16 + 32, p16 + 33, p16 + 34, p16 + 35, p16 + 36, p16 + 37, p16 + 38, p16 + 39, 11};
Line(17) = {12, 11};
p18 = newp;
Point(p18 + 1) = {6.841715806005213, 3.895967036865275, 0};
Point(p18 + 2) = {6.820149698612381, 3.985796339030385, 0};
Point(p18 + 3) = {6.784796706959321, 4.071146010949664, 0};
Point(p18 + 4) = {6.736527339030386, 4.149914460441138, 0};
Point(p18 + 5) = {6.676530146860832, 4.220162146860831, 0};
Point(p18 + 6) = {6.606282460441139, 4.280159339030385, 0};
Point(p18 + 7) = {6.527514010949664, 4.328428706959321, 0};
Point(p18 + 8) = {6.442164339030385, 4.363781698612381, 0};
Point(p18 + 9) = {6.352335036865275, 4.385347806005213, 0};
Point(p18 + 10) = {6.260238, 4.392596, 0};
Point(p18 + 11) = {6.168140963134725, 4.385347806005213, 0};
Point(p18 + 12) = {6.078311660969615, 4.363781698612381, 0};
Point(p18 + 13) = {5.992961989050336, 4.328428706959321, 0};
Point(p18 + 14) = {5.914193539558862, 4.280159339030385, 0};
Point(p18 + 15) = {5.843945853139169, 4.220162146860831, 0};
Point(p18 + 16) = {5.783948660969615, 4.149914460441138, 0};
Point(p18 + 17) = {5.735679293040679, 4.071146010949664, 0};
Point(p18 + 18) = {5.700326301387619, 3.985796339030385, 0};
Point(p18 + 19) = {5.678760193994787, 3.895967036865275, 0};
Point(p18 + 20) = {5.671512, 3.80387, 0};
Point(p18 + 21) = {5.678760193994787, 3.711772963134725, 0};
Point(p18 + 22) = {5.700326301387619, 3.621943660969615, 0};
Point(p18 + 23) = {5.735679293040679, 3.536593989050336, 0};
Point(p18 + 24) = {5.783948660969615, 3.457825539558861, 0};
Point(p18 + 25) = {5.843945853139169, 3.387577853139168, 0};
Point(p18 + 26) = {5.914193539558862, 3.327580660969615, 0};
Point(p18 + 27) = {5.992961989050336, 3.279311293040679, 0};
Point(p18 + 28) = {6.078311660969614, 3.243958301387619, 0};
Point(p18 + 29) = {6.168140963134725, 3.222392193994787, 0};
Point(p18 + 30) = {6.260238, 3.215144, 0};
Point(p18 + 31) = {6.352335036865275, 3.222392193994787, 0};
Point(p18 + 32) = {6.442164339030385, 3.243958301387619, 0};
Point(p18 + 33) = {6.527514010949664, 3.279311293040679, 0};
Point(p18 + 34) = {6.606282460441139, 3.327580660969614, 0};
Point(p18 + 35) = {6.676530146860832, 3.387577853139168, 0};
Point(p18 + 36) = {6.736527339030386, 3.457825539558861, 0};
Point(p18 + 37) = {6.784796706959321, 3.536593989050335, 0};
Point(p18 + 38) = {6.820149698612381, 3.621943660969615, 0};
Point(p18 + 39) = {6.841715806005213, 3.711772963134725, 0};
Spline(18) = {12, p18 + 1, p18 + 2, p18 + 3, p18 + 4, p18 + 5, p18 + 6, p18 + 7, p18 + 8, p18 + 9, p18 + 10, p18 + 11, p18 + 12, p18 + 13, p18 + 14, p18 + 15, p18 + 16, p18 + 17, p18 + 18, p18 + 19, p18 + 20, p18 + 21, p18 + 22, p18 + 23, p18 + 24, p18 + 25, p18 + 26, p18 + 27, p18 + 28, p18 + 29, p18 + 30, p18 + 31, p18 + 32, p18 + 33, p18 + 34, p18 + 35, p18 + 36, p18 + 37, p18 + 38, p18 + 39, 12};
Line(19) = {14, 13};
Line(20) = {13, 15};
Line(21) = {16, 15};
Line(22) = {14, 16};
Line(23) = {14, 17};
Line(24) = {17, 18};
Line(25) = {13, 18};
Line(26) = {15, 19};
Line(27) = {18, 19};
Line(28) = {16, 20};
Line(29) = {20, 19};
Line(30) = {17, 20};
Curve Loop(7) = {-13, -14, 15, 14};
Surface(7) = {7};
Curve Loop(8) = {13};
Plane Surface(8) = {8};
Curve Loop(9) = {15};
Plane Surface(9) = {9};
Curve Loop(10) = {-16, -17, 18, 17};
Surface(10) = {10};
Curve Loop(11) = {16};
Plane Surface(11) = {11};
Curve Loop(12) = {18};
Plane Surface(12) = {12};
Curve Loop(13) = {-19, 22, 21, -20};
Plane Surface(13) = {13};
Curve Loop(14) = {-23, 19, 25, -24};
Plane Surface(14) = {14};
Curve Loop(15) = {-20, 25, 27, -26, -13, -16};
Plane Surface(15) = {15};
Curve Loop(16) = {-28, 21, 26, -29};
Plane Surface(16) = {16};
Curve Loop(17) = {-22, 23, 30, -28, -15, -18};
Plane Surface(17) = {17};
Curve Loop(18) = {-24, 30, 29, -27};
Plane Surface(18) = {18};
Surface Loop(1) = {13, 14, 15, 16, 17, 18, 7, 10};
Volume(1) = {1};
Surface Loop(2) = {7, 8, 9};
Volume(2) = {2};
Surface Loop(3) = {10, 11, 12};
Volume(3) = {3};
Physical Surface("WALLS") = {13, 18};
Physical Surface("LOAD") = {8, 11};
Physical Surface("BORDER") = {7, 9, 10, 12, 14, 15, 16, 17};
Physical Volume("SOLID") = {1, 2, 3};
