cl__1 = 0.056779;
cl__2 = 0.14691;
cl__3 = 0.5531239999999999;
cl__4 = 0.687669;
cl__5 = 2.710273;
cl__6 = 2.543117;
Point(9) = {10.875684, -2.1581, 0.1, cl__1};
Point(10) = {10.875684, -2.1581, 0, cl__1};
Point(11) = {16.46914, 2.004081999999999, 0.1, cl__2};
Point(12) = {16.46914, 2.004081999999999, 0, cl__2};
Point(13) = {0.708966, -3.669185, 0.1, cl__3};
Point(14) = {0.708966, -3.669185, 0, cl__3};
Point(15) = {0.708966, 4.947389999999999, 0.1, cl__4};
Point(16) = {0.708966, 4.947389999999999, 0, cl__4};
Point(17) = {38.866535, -3.669185, 0, cl__5};
Point(18) = {38.866535, -3.669185, 0.1, cl__5};
Point(19) = {38.866535, 4.947389999999999, 0.1, cl__6};
Point(20) = {38.866535, 4.947389999999999, 0, cl__6};
p13 = newp;
Point(p13 + 1) = {10.86869350134821, -2.069277292922482, 0.1};
Point(p13 + 2) = {10.84789413466981, -1.982641695678877, 0.1};
Point(p13 + 3) = {10.81379804940153, -1.900326464200384, 0.1};
Point(p13 + 4) = {10.76724480432112, -1.824358472674595, 0.1};
Point(p13 + 5) = {10.70938069482382, -1.756608305176184, 0.1};
Point(p13 + 6) = {10.6416305273254, -1.698744195678877, 0.1};
Point(p13 + 7) = {10.56566253579962, -1.652190950598466, 0.1};
Point(p13 + 8) = {10.48334730432112, -1.618094865330193, 0.1};
Point(p13 + 9) = {10.39671170707752, -1.597295498651784, 0.1};
Point(p13 + 10) = {10.307889, -1.590305, 0.1};
Point(p13 + 11) = {10.21906629292248, -1.597295498651784, 0.1};
Point(p13 + 12) = {10.13243069567888, -1.618094865330193, 0.1};
Point(p13 + 13) = {10.05011546420038, -1.652190950598466, 0.1};
Point(p13 + 14) = {9.974147472674595, -1.698744195678877, 0.1};
Point(p13 + 15) = {9.906397305176183, -1.756608305176184, 0.1};
Point(p13 + 16) = {9.848533195678876, -1.824358472674595, 0.1};
Point(p13 + 17) = {9.801979950598465, -1.900326464200384, 0.1};
Point(p13 + 18) = {9.767883865330193, -1.982641695678877, 0.1};
Point(p13 + 19) = {9.747084498651784, -2.069277292922482, 0.1};
Point(p13 + 20) = {9.740093999999999, -2.1581, 0.1};
Point(p13 + 21) = {9.747084498651784, -2.246922707077518, 0.1};
Point(p13 + 22) = {9.767883865330193, -2.333558304321123, 0.1};
Point(p13 + 23) = {9.801979950598465, -2.415873535799616, 0.1};
Point(p13 + 24) = {9.848533195678876, -2.491841527325405, 0.1};
Point(p13 + 25) = {9.906397305176183, -2.559591694823816, 0.1};
Point(p13 + 26) = {9.974147472674595, -2.617455804321124, 0.1};
Point(p13 + 27) = {10.05011546420038, -2.664009049401534, 0.1};
Point(p13 + 28) = {10.13243069567888, -2.698105134669807, 0.1};
Point(p13 + 29) = {10.21906629292248, -2.718904501348216, 0.1};
Point(p13 + 30) = {10.307889, -2.725895, 0.1};
Point(p13 + 31) = {10.39671170707752, -2.718904501348216, 0.1};
Point(p13 + 32) = {10.48334730432112, -2.698105134669807, 0.1};
Point(p13 + 33) = {10.56566253579962, -2.664009049401534, 0.1};
Point(p13 + 34) = {10.6416305273254, -2.617455804321124, 0.1};
Point(p13 + 35) = {10.70938069482382, -2.559591694823816, 0.1};
Point(p13 + 36) = {10.76724480432112, -2.491841527325405, 0.1};
Point(p13 + 37) = {10.81379804940153, -2.415873535799616, 0.1};
Point(p13 + 38) = {10.84789413466981, -2.333558304321123, 0.1};
Point(p13 + 39) = {10.86869350134821, -2.246922707077518, 0.1};
Spline(13) = {9, p13 + 1, p13 + 2, p13 + 3, p13 + 4, p13 + 5, p13 + 6, p13 + 7, p13 + 8, p13 + 9, p13 + 10, p13 + 11, p13 + 12, p13 + 13, p13 + 14, p13 + 15, p13 + 16, p13 + 17, p13 + 18, p13 + 19, p13 + 20, p13 + 21, p13 + 22, p13 + 23, p13 + 24, p13 + 25, p13 + 26, p13 + 27, p13 + 28, p13 + 29, p13 + 30, p13 + 31, p13 + 32, p13 + 33, p13 + 34, p13 + 35, p13 + 36, p13 + 37, p13 + 38, p13 + 39, 9};
Line(14) = {10, 9};
p15 = newp;
Point(p15 + 1) = {10.86869350134821, -2.069277292922482, 0};
Point(p15 + 2) = {10.84789413466981, -1.982641695678877, 0};
Point(p15 + 3) = {10.81379804940153, -1.900326464200384, 0};
Point(p15 + 4) = {10.76724480432112, -1.824358472674595, 0};
Point(p15 + 5) = {10.70938069482382, -1.756608305176184, 0};
Point(p15 + 6) = {10.6416305273254, -1.698744195678877, 0};
Point(p15 + 7) = {10.56566253579962, -1.652190950598466, 0};
Point(p15 + 8) = {10.48334730432112, -1.618094865330193, 0};
Point(p15 + 9) = {10.39671170707752, -1.597295498651784, 0};
Point(p15 + 10) = {10.307889, -1.590305, 0};
Point(p15 + 11) = {10.21906629292248, -1.597295498651784, 0};
Point(p15 + 12) = {10.13243069567888, -1.618094865330193, 0};
Point(p15 + 13) = {10.05011546420038, -1.652190950598466, 0};
Point(p15 + 14) = {9.974147472674595, -1.698744195678877, 0};
Point(p15 + 15) = {9.906397305176183, -1.756608305176184, 0};
Point(p15 + 16) = {9.848533195678876, -1.824358472674595, 0};
Point(p15 + 17) = {9.801979950598465, -1.900326464200384, 0};
Point(p15 + 18) = {9.767883865330193, -1.982641695678877, 0};
Point(p15 + 19) = {9.747084498651784, -2.069277292922482, 0};
Point(p15 + 20) = {9.740093999999999, -2.1581, 0};
Point(p15 + 21) = {9.747084498651784, -2.246922707077518, 0};
Point(p15 + 22) = {9.767883865330193, -2.333558304321123, 0};
Point(p15 + 23) = {9.801979950598465, -2.415873535799616, 0};
Point(p15 + 24) = {9.848533195678876, -2.491841527325405, 0};
Point(p15 + 25) = {9.906397305176183, -2.559591694823816, 0};
Point(p15 + 26) = {9.974147472674595, -2.617455804321124, 0};
Point(p15 + 27) = {10.05011546420038, -2.664009049401534, 0};
Point(p15 + 28) = {10.13243069567888, -2.698105134669807, 0};
Point(p15 + 29) = {10.21906629292248, -2.718904501348216, 0};
Point(p15 + 30) = {10.307889, -2.725895, 0};
Point(p15 + 31) = {10.39671170707752, -2.718904501348216, 0};
Point(p15 + 32) = {10.48334730432112, -2.698105134669807, 0};
Point(p15 + 33) = {10.56566253579962, -2.664009049401534, 0};
Point(p15 + 34) = {10.6416305273254, -2.617455804321124, 0};
Point(p15 + 35) = {10.70938069482382, -2.559591694823816, 0};
Point(p15 + 36) = {10.76724480432112, -2.491841527325405, 0};
Point(p15 + 37) = {10.81379804940153, -2.415873535799616, 0};
Point(p15 + 38) = {10.84789413466981, -2.333558304321123, 0};
Point(p15 + 39) = {10.86869350134821, -2.246922707077518, 0};
Spline(15) = {10, p15 + 1, p15 + 2, p15 + 3, p15 + 4, p15 + 5, p15 + 6, p15 + 7, p15 + 8, p15 + 9, p15 + 10, p15 + 11, p15 + 12, p15 + 13, p15 + 14, p15 + 15, p15 + 16, p15 + 17, p15 + 18, p15 + 19, p15 + 20, p15 + 21, p15 + 22, p15 + 23, p15 + 24, p15 + 25, p15 + 26, p15 + 27, p15 + 28, p15 + 29, p15 + 30, p15 + 31, p15 + 32, p15 + 33, p15 + 34, p15 + 35, p15 + 36, p15 + 37, p15 + 38, p15 + 39, 10};
p16 = newp;
Point(p16 + 1) = {16.451052916545, 2.233900185459533, 0.1};
Point(p16 + 2) = {16.39723703020224, 2.458059484470224, 0.1};
Point(p16 + 3) = {16.30901746669818, 2.671040351148367, 0.1};
Point(p16 + 4) = {16.18856648447023, 2.867598489713377, 0.1};
Point(p16 + 5) = {16.03884998645472, 3.042893986454719, 0.1};
Point(p16 + 6) = {15.86355448971338, 3.192610484470224, 0.1};
Point(p16 + 7) = {15.66699635114837, 3.313061466698179, 0.1};
Point(p16 + 8) = {15.45401548447022, 3.401281030202242, 0.1};
Point(p16 + 9) = {15.22985618545953, 3.455096916544998, 0.1};
Point(p16 + 10) = {15.000038, 3.473184, 0.1};
Point(p16 + 11) = {14.77021981454047, 3.455096916544998, 0.1};
Point(p16 + 12) = {14.54606051552978, 3.401281030202242, 0.1};
Point(p16 + 13) = {14.33307964885163, 3.313061466698179, 0.1};
Point(p16 + 14) = {14.13652151028662, 3.192610484470224, 0.1};
Point(p16 + 15) = {13.96122601354528, 3.042893986454719, 0.1};
Point(p16 + 16) = {13.81150951552978, 2.867598489713377, 0.1};
Point(p16 + 17) = {13.69105853330182, 2.671040351148368, 0.1};
Point(p16 + 18) = {13.60283896979776, 2.458059484470224, 0.1};
Point(p16 + 19) = {13.549023083455, 2.233900185459533, 0.1};
Point(p16 + 20) = {13.530936, 2.004082, 0.1};
Point(p16 + 21) = {13.549023083455, 1.774263814540467, 0.1};
Point(p16 + 22) = {13.60283896979776, 1.550104515529775, 0.1};
Point(p16 + 23) = {13.69105853330182, 1.337123648851633, 0.1};
Point(p16 + 24) = {13.81150951552978, 1.140565510286623, 0.1};
Point(p16 + 25) = {13.96122601354528, 0.9652700135452807, 0.1};
Point(p16 + 26) = {14.13652151028662, 0.8155535155297762, 0.1};
Point(p16 + 27) = {14.33307964885163, 0.6951025333018206, 0.1};
Point(p16 + 28) = {14.54606051552978, 0.6068829697977574, 0.1};
Point(p16 + 29) = {14.77021981454047, 0.553067083455002, 0.1};
Point(p16 + 30) = {15.000038, 0.53498, 0.1};
Point(p16 + 31) = {15.22985618545953, 0.553067083455002, 0.1};
Point(p16 + 32) = {15.45401548447022, 0.6068829697977571, 0.1};
Point(p16 + 33) = {15.66699635114837, 0.6951025333018201, 0.1};
Point(p16 + 34) = {15.86355448971338, 0.8155535155297757, 0.1};
Point(p16 + 35) = {16.03884998645472, 0.9652700135452803, 0.1};
Point(p16 + 36) = {16.18856648447022, 1.140565510286623, 0.1};
Point(p16 + 37) = {16.30901746669818, 1.337123648851632, 0.1};
Point(p16 + 38) = {16.39723703020224, 1.550104515529776, 0.1};
Point(p16 + 39) = {16.451052916545, 1.774263814540466, 0.1};
Spline(16) = {11, p16 + 1, p16 + 2, p16 + 3, p16 + 4, p16 + 5, p16 + 6, p16 + 7, p16 + 8, p16 + 9, p16 + 10, p16 + 11, p16 + 12, p16 + 13, p16 + 14, p16 + 15, p16 + 16, p16 + 17, p16 + 18, p16 + 19, p16 + 20, p16 + 21, p16 + 22, p16 + 23, p16 + 24, p16 + 25, p16 + 26, p16 + 27, p16 + 28, p16 + 29, p16 + 30, p16 + 31, p16 + 32, p16 + 33, p16 + 34, p16 + 35, p16 + 36, p16 + 37, p16 + 38, p16 + 39, 11};
Line(17) = {12, 11};
p18 = newp;
Point(p18 + 1) = {16.451052916545, 2.233900185459533, 0};
Point(p18 + 2) = {16.39723703020224, 2.458059484470224, 0};
Point(p18 + 3) = {16.30901746669818, 2.671040351148367, 0};
Point(p18 + 4) = {16.18856648447023, 2.867598489713377, 0};
Point(p18 + 5) = {16.03884998645472, 3.042893986454719, 0};
Point(p18 + 6) = {15.86355448971338, 3.192610484470224, 0};
Point(p18 + 7) = {15.66699635114837, 3.313061466698179, 0};
Point(p18 + 8) = {15.45401548447022, 3.401281030202242, 0};
Point(p18 + 9) = {15.22985618545953, 3.455096916544998, 0};
Point(p18 + 10) = {15.000038, 3.473184, 0};
Point(p18 + 11) = {14.77021981454047, 3.455096916544998, 0};
Point(p18 + 12) = {14.54606051552978, 3.401281030202242, 0};
Point(p18 + 13) = {14.33307964885163, 3.313061466698179, 0};
Point(p18 + 14) = {14.13652151028662, 3.192610484470224, 0};
Point(p18 + 15) = {13.96122601354528, 3.042893986454719, 0};
Point(p18 + 16) = {13.81150951552978, 2.867598489713377, 0};
Point(p18 + 17) = {13.69105853330182, 2.671040351148368, 0};
Point(p18 + 18) = {13.60283896979776, 2.458059484470224, 0};
Point(p18 + 19) = {13.549023083455, 2.233900185459533, 0};
Point(p18 + 20) = {13.530936, 2.004082, 0};
Point(p18 + 21) = {13.549023083455, 1.774263814540467, 0};
Point(p18 + 22) = {13.60283896979776, 1.550104515529775, 0};
Point(p18 + 23) = {13.69105853330182, 1.337123648851633, 0};
Point(p18 + 24) = {13.81150951552978, 1.140565510286623, 0};
Point(p18 + 25) = {13.96122601354528, 0.9652700135452807, 0};
Point(p18 + 26) = {14.13652151028662, 0.8155535155297762, 0};
Point(p18 + 27) = {14.33307964885163, 0.6951025333018206, 0};
Point(p18 + 28) = {14.54606051552978, 0.6068829697977574, 0};
Point(p18 + 29) = {14.77021981454047, 0.553067083455002, 0};
Point(p18 + 30) = {15.000038, 0.53498, 0};
Point(p18 + 31) = {15.22985618545953, 0.553067083455002, 0};
Point(p18 + 32) = {15.45401548447022, 0.6068829697977571, 0};
Point(p18 + 33) = {15.66699635114837, 0.6951025333018201, 0};
Point(p18 + 34) = {15.86355448971338, 0.8155535155297757, 0};
Point(p18 + 35) = {16.03884998645472, 0.9652700135452803, 0};
Point(p18 + 36) = {16.18856648447022, 1.140565510286623, 0};
Point(p18 + 37) = {16.30901746669818, 1.337123648851632, 0};
Point(p18 + 38) = {16.39723703020224, 1.550104515529776, 0};
Point(p18 + 39) = {16.451052916545, 1.774263814540466, 0};
Spline(18) = {12, p18 + 1, p18 + 2, p18 + 3, p18 + 4, p18 + 5, p18 + 6, p18 + 7, p18 + 8, p18 + 9, p18 + 10, p18 + 11, p18 + 12, p18 + 13, p18 + 14, p18 + 15, p18 + 16, p18 + 17, p18 + 18, p18 + 19, p18 + 20, p18 + 21, p18 + 22, p18 + 23, p18 + 24, p18 + 25, p18 + 26, p18 + 27, p18 + 28, p18 + 29, p18 + 30, p18 + 31, p18 + 32, p18 + 33, p18 + 34, p18 + 35, p18 + 36, p18 + 37, p18 + 38, p18 + 39, 12};
Line(19) = {14, 13};
Line(20) = {13, 15};
Line(21) = {16, 15};
Line(22) = {14, 16};
Line(23) = {14, 17};
Line(24) = {17, 18};
Line(25) = {13, 18};
Line(26) = {15, 19};
Line(27) = {18, 19};
Line(28) = {16, 20};
Line(29) = {20, 19};
Line(30) = {17, 20};
Curve Loop(7) = {-13, -14, 15, 14};
Surface(7) = {7};
Curve Loop(8) = {13};
Plane Surface(8) = {8};
Curve Loop(9) = {15};
Plane Surface(9) = {9};
Curve Loop(10) = {-16, -17, 18, 17};
Surface(10) = {10};
Curve Loop(11) = {16};
Plane Surface(11) = {11};
Curve Loop(12) = {18};
Plane Surface(12) = {12};
Curve Loop(13) = {-19, 22, 21, -20};
Plane Surface(13) = {13};
Curve Loop(14) = {-23, 19, 25, -24};
Plane Surface(14) = {14};
Curve Loop(15) = {-20, 25, 27, -26, -13, -16};
Plane Surface(15) = {15};
Curve Loop(16) = {-28, 21, 26, -29};
Plane Surface(16) = {16};
Curve Loop(17) = {-22, 23, 30, -28, -15, -18};
Plane Surface(17) = {17};
Curve Loop(18) = {-24, 30, 29, -27};
Plane Surface(18) = {18};
Surface Loop(1) = {13, 14, 15, 16, 17, 18, 7, 10};
Volume(1) = {1};
Surface Loop(2) = {7, 8, 9};
Volume(2) = {2};
Surface Loop(3) = {10, 11, 12};
Volume(3) = {3};
Physical Surface("WALLS") = {13, 18};
Physical Surface("LOAD") = {8, 11};
Physical Surface("BORDER") = {7, 9, 10, 12, 14, 15, 16, 17};
Physical Volume("SOLID") = {1, 2, 3};
