cl__1 = 0.122738;
cl__2 = 0.073627;
cl__3 = 5.383497;
cl__4 = 4.911724;
cl__5 = 0.183154;
cl__6 = 0.364372;
Point(9) = {29.438054, -1.321714, 0.1, cl__1};
Point(10) = {29.438054, -1.321714, 0, cl__1};
Point(11) = {26.238547, 2.764412, 0.1, cl__2};
Point(12) = {26.238547, 2.764412, 0, cl__2};
Point(13) = {0.168133, -3.876957, 0.1, cl__3};
Point(14) = {0.168133, -3.876957, 0, cl__3};
Point(15) = {0.168133, 4.897923, 0.1, cl__4};
Point(16) = {0.168133, 4.897923, 0, cl__4};
Point(17) = {31.140267, -3.876957, 0, cl__5};
Point(18) = {31.140267, -3.876957, 0.1, cl__5};
Point(19) = {31.140267, 4.897923, 0.1, cl__6};
Point(20) = {31.140267, 4.897923, 0, cl__6};
p13 = newp;
Point(p13 + 1) = {29.42294292779132, -1.129709622733386, 0.1};
Point(p13 + 2) = {29.37798179591383, -0.9424330304610715, 0.1};
Point(p13 + 3) = {29.30427769665179, -0.7644955944201749, 0.1};
Point(p13 + 4) = {29.20364546953893, -0.6002787248265167, 0.1};
Point(p13 + 5) = {29.07856301398596, -0.4538259860140367, 0.1};
Point(p13 + 6) = {28.93211027517348, -0.3287435304610715, 0.1};
Point(p13 + 7) = {28.76789340557982, -0.2281113033482054, 0.1};
Point(p13 + 8) = {28.58995596953893, -0.1544072040861708, 0.1};
Point(p13 + 9) = {28.40267937726661, -0.1094460722086805, 0.1};
Point(p13 + 10) = {28.210675, -0.09433500000000006, 0.1};
Point(p13 + 11) = {28.01867062273339, -0.1094460722086805, 0.1};
Point(p13 + 12) = {27.83139403046107, -0.1544072040861706, 0.1};
Point(p13 + 13) = {27.65345659442017, -0.2281113033482052, 0.1};
Point(p13 + 14) = {27.48923972482651, -0.3287435304610714, 0.1};
Point(p13 + 15) = {27.34278698601403, -0.4538259860140365, 0.1};
Point(p13 + 16) = {27.21770453046107, -0.6002787248265166, 0.1};
Point(p13 + 17) = {27.1170723033482, -0.7644955944201748, 0.1};
Point(p13 + 18) = {27.04336820408617, -0.9424330304610713, 0.1};
Point(p13 + 19) = {26.99840707220868, -1.129709622733386, 0.1};
Point(p13 + 20) = {26.983296, -1.321714, 0.1};
Point(p13 + 21) = {26.99840707220868, -1.513718377266613, 0.1};
Point(p13 + 22) = {27.04336820408617, -1.700994969538929, 0.1};
Point(p13 + 23) = {27.1170723033482, -1.878932405579825, 0.1};
Point(p13 + 24) = {27.21770453046107, -2.043149275173483, 0.1};
Point(p13 + 25) = {27.34278698601403, -2.189602013985963, 0.1};
Point(p13 + 26) = {27.48923972482651, -2.314684469538928, 0.1};
Point(p13 + 27) = {27.65345659442017, -2.415316696651795, 0.1};
Point(p13 + 28) = {27.83139403046107, -2.489020795913829, 0.1};
Point(p13 + 29) = {28.01867062273339, -2.53398192779132, 0.1};
Point(p13 + 30) = {28.210675, -2.549093, 0.1};
Point(p13 + 31) = {28.40267937726661, -2.53398192779132, 0.1};
Point(p13 + 32) = {28.58995596953893, -2.48902079591383, 0.1};
Point(p13 + 33) = {28.76789340557982, -2.415316696651795, 0.1};
Point(p13 + 34) = {28.93211027517348, -2.314684469538929, 0.1};
Point(p13 + 35) = {29.07856301398596, -2.189602013985964, 0.1};
Point(p13 + 36) = {29.20364546953893, -2.043149275173484, 0.1};
Point(p13 + 37) = {29.30427769665179, -1.878932405579826, 0.1};
Point(p13 + 38) = {29.37798179591383, -1.700994969538929, 0.1};
Point(p13 + 39) = {29.42294292779132, -1.513718377266614, 0.1};
Spline(13) = {9, p13 + 1, p13 + 2, p13 + 3, p13 + 4, p13 + 5, p13 + 6, p13 + 7, p13 + 8, p13 + 9, p13 + 10, p13 + 11, p13 + 12, p13 + 13, p13 + 14, p13 + 15, p13 + 16, p13 + 17, p13 + 18, p13 + 19, p13 + 20, p13 + 21, p13 + 22, p13 + 23, p13 + 24, p13 + 25, p13 + 26, p13 + 27, p13 + 28, p13 + 29, p13 + 30, p13 + 31, p13 + 32, p13 + 33, p13 + 34, p13 + 35, p13 + 36, p13 + 37, p13 + 38, p13 + 39, 9};
Line(14) = {10, 9};
p15 = newp;
Point(p15 + 1) = {29.42294292779132, -1.129709622733386, 0};
Point(p15 + 2) = {29.37798179591383, -0.9424330304610715, 0};
Point(p15 + 3) = {29.30427769665179, -0.7644955944201749, 0};
Point(p15 + 4) = {29.20364546953893, -0.6002787248265167, 0};
Point(p15 + 5) = {29.07856301398596, -0.4538259860140367, 0};
Point(p15 + 6) = {28.93211027517348, -0.3287435304610715, 0};
Point(p15 + 7) = {28.76789340557982, -0.2281113033482054, 0};
Point(p15 + 8) = {28.58995596953893, -0.1544072040861708, 0};
Point(p15 + 9) = {28.40267937726661, -0.1094460722086805, 0};
Point(p15 + 10) = {28.210675, -0.09433500000000006, 0};
Point(p15 + 11) = {28.01867062273339, -0.1094460722086805, 0};
Point(p15 + 12) = {27.83139403046107, -0.1544072040861706, 0};
Point(p15 + 13) = {27.65345659442017, -0.2281113033482052, 0};
Point(p15 + 14) = {27.48923972482651, -0.3287435304610714, 0};
Point(p15 + 15) = {27.34278698601403, -0.4538259860140365, 0};
Point(p15 + 16) = {27.21770453046107, -0.6002787248265166, 0};
Point(p15 + 17) = {27.1170723033482, -0.7644955944201748, 0};
Point(p15 + 18) = {27.04336820408617, -0.9424330304610713, 0};
Point(p15 + 19) = {26.99840707220868, -1.129709622733386, 0};
Point(p15 + 20) = {26.983296, -1.321714, 0};
Point(p15 + 21) = {26.99840707220868, -1.513718377266613, 0};
Point(p15 + 22) = {27.04336820408617, -1.700994969538929, 0};
Point(p15 + 23) = {27.1170723033482, -1.878932405579825, 0};
Point(p15 + 24) = {27.21770453046107, -2.043149275173483, 0};
Point(p15 + 25) = {27.34278698601403, -2.189602013985963, 0};
Point(p15 + 26) = {27.48923972482651, -2.314684469538928, 0};
Point(p15 + 27) = {27.65345659442017, -2.415316696651795, 0};
Point(p15 + 28) = {27.83139403046107, -2.489020795913829, 0};
Point(p15 + 29) = {28.01867062273339, -2.53398192779132, 0};
Point(p15 + 30) = {28.210675, -2.549093, 0};
Point(p15 + 31) = {28.40267937726661, -2.53398192779132, 0};
Point(p15 + 32) = {28.58995596953893, -2.48902079591383, 0};
Point(p15 + 33) = {28.76789340557982, -2.415316696651795, 0};
Point(p15 + 34) = {28.93211027517348, -2.314684469538929, 0};
Point(p15 + 35) = {29.07856301398596, -2.189602013985964, 0};
Point(p15 + 36) = {29.20364546953893, -2.043149275173484, 0};
Point(p15 + 37) = {29.30427769665179, -1.878932405579826, 0};
Point(p15 + 38) = {29.37798179591383, -1.700994969538929, 0};
Point(p15 + 39) = {29.42294292779132, -1.513718377266614, 0};
Spline(15) = {10, p15 + 1, p15 + 2, p15 + 3, p15 + 4, p15 + 5, p15 + 6, p15 + 7, p15 + 8, p15 + 9, p15 + 10, p15 + 11, p15 + 12, p15 + 13, p15 + 14, p15 + 15, p15 + 16, p15 + 17, p15 + 18, p15 + 19, p15 + 20, p15 + 21, p15 + 22, p15 + 23, p15 + 24, p15 + 25, p15 + 26, p15 + 27, p15 + 28, p15 + 29, p15 + 30, p15 + 31, p15 + 32, p15 + 33, p15 + 34, p15 + 35, p15 + 36, p15 + 37, p15 + 38, p15 + 39, 10};
p16 = newp;
Point(p16 + 1) = {26.22948230684164, 2.879589847140706, 0.1};
Point(p16 + 2) = {26.20251143019612, 2.991931633431448, 0.1};
Point(p16 + 3) = {26.15829848255765, 3.098671131252736, 0.1};
Point(p16 + 4) = {26.09793213343145, 3.197180059920127, 0.1};
Point(p16 + 5) = {26.02289880267744, 3.285032802677438, 0.1};
Point(p16 + 6) = {25.93504605992013, 3.360066133431448, 0.1};
Point(p16 + 7) = {25.83653713125274, 3.420432482557645, 0.1};
Point(p16 + 8) = {25.72979763343145, 3.464645430196116, 0.1};
Point(p16 + 9) = {25.61745584714071, 3.491616306841641, 0.1};
Point(p16 + 10) = {25.502278, 3.500681, 0.1};
Point(p16 + 11) = {25.38710015285929, 3.491616306841641, 0.1};
Point(p16 + 12) = {25.27475836656855, 3.464645430196116, 0.1};
Point(p16 + 13) = {25.16801886874726, 3.420432482557645, 0.1};
Point(p16 + 14) = {25.06950994007988, 3.360066133431448, 0.1};
Point(p16 + 15) = {24.98165719732256, 3.285032802677438, 0.1};
Point(p16 + 16) = {24.90662386656855, 3.197180059920127, 0.1};
Point(p16 + 17) = {24.84625751744235, 3.098671131252737, 0.1};
Point(p16 + 18) = {24.80204456980388, 2.991931633431448, 0.1};
Point(p16 + 19) = {24.77507369315836, 2.879589847140706, 0.1};
Point(p16 + 20) = {24.766009, 2.764412, 0.1};
Point(p16 + 21) = {24.77507369315836, 2.649234152859294, 0.1};
Point(p16 + 22) = {24.80204456980388, 2.536892366568552, 0.1};
Point(p16 + 23) = {24.84625751744235, 2.430152868747264, 0.1};
Point(p16 + 24) = {24.90662386656855, 2.331643940079873, 0.1};
Point(p16 + 25) = {24.98165719732256, 2.243791197322562, 0.1};
Point(p16 + 26) = {25.06950994007987, 2.168757866568552, 0.1};
Point(p16 + 27) = {25.16801886874726, 2.108391517442355, 0.1};
Point(p16 + 28) = {25.27475836656855, 2.064178569803884, 0.1};
Point(p16 + 29) = {25.38710015285929, 2.037207693158359, 0.1};
Point(p16 + 30) = {25.502278, 2.028143, 0.1};
Point(p16 + 31) = {25.61745584714071, 2.037207693158359, 0.1};
Point(p16 + 32) = {25.72979763343145, 2.064178569803884, 0.1};
Point(p16 + 33) = {25.83653713125274, 2.108391517442355, 0.1};
Point(p16 + 34) = {25.93504605992013, 2.168757866568552, 0.1};
Point(p16 + 35) = {26.02289880267744, 2.243791197322562, 0.1};
Point(p16 + 36) = {26.09793213343145, 2.331643940079873, 0.1};
Point(p16 + 37) = {26.15829848255765, 2.430152868747264, 0.1};
Point(p16 + 38) = {26.20251143019612, 2.536892366568552, 0.1};
Point(p16 + 39) = {26.22948230684164, 2.649234152859294, 0.1};
Spline(16) = {11, p16 + 1, p16 + 2, p16 + 3, p16 + 4, p16 + 5, p16 + 6, p16 + 7, p16 + 8, p16 + 9, p16 + 10, p16 + 11, p16 + 12, p16 + 13, p16 + 14, p16 + 15, p16 + 16, p16 + 17, p16 + 18, p16 + 19, p16 + 20, p16 + 21, p16 + 22, p16 + 23, p16 + 24, p16 + 25, p16 + 26, p16 + 27, p16 + 28, p16 + 29, p16 + 30, p16 + 31, p16 + 32, p16 + 33, p16 + 34, p16 + 35, p16 + 36, p16 + 37, p16 + 38, p16 + 39, 11};
Line(17) = {12, 11};
p18 = newp;
Point(p18 + 1) = {26.22948230684164, 2.879589847140706, 0};
Point(p18 + 2) = {26.20251143019612, 2.991931633431448, 0};
Point(p18 + 3) = {26.15829848255765, 3.098671131252736, 0};
Point(p18 + 4) = {26.09793213343145, 3.197180059920127, 0};
Point(p18 + 5) = {26.02289880267744, 3.285032802677438, 0};
Point(p18 + 6) = {25.93504605992013, 3.360066133431448, 0};
Point(p18 + 7) = {25.83653713125274, 3.420432482557645, 0};
Point(p18 + 8) = {25.72979763343145, 3.464645430196116, 0};
Point(p18 + 9) = {25.61745584714071, 3.491616306841641, 0};
Point(p18 + 10) = {25.502278, 3.500681, 0};
Point(p18 + 11) = {25.38710015285929, 3.491616306841641, 0};
Point(p18 + 12) = {25.27475836656855, 3.464645430196116, 0};
Point(p18 + 13) = {25.16801886874726, 3.420432482557645, 0};
Point(p18 + 14) = {25.06950994007988, 3.360066133431448, 0};
Point(p18 + 15) = {24.98165719732256, 3.285032802677438, 0};
Point(p18 + 16) = {24.90662386656855, 3.197180059920127, 0};
Point(p18 + 17) = {24.84625751744235, 3.098671131252737, 0};
Point(p18 + 18) = {24.80204456980388, 2.991931633431448, 0};
Point(p18 + 19) = {24.77507369315836, 2.879589847140706, 0};
Point(p18 + 20) = {24.766009, 2.764412, 0};
Point(p18 + 21) = {24.77507369315836, 2.649234152859294, 0};
Point(p18 + 22) = {24.80204456980388, 2.536892366568552, 0};
Point(p18 + 23) = {24.84625751744235, 2.430152868747264, 0};
Point(p18 + 24) = {24.90662386656855, 2.331643940079873, 0};
Point(p18 + 25) = {24.98165719732256, 2.243791197322562, 0};
Point(p18 + 26) = {25.06950994007987, 2.168757866568552, 0};
Point(p18 + 27) = {25.16801886874726, 2.108391517442355, 0};
Point(p18 + 28) = {25.27475836656855, 2.064178569803884, 0};
Point(p18 + 29) = {25.38710015285929, 2.037207693158359, 0};
Point(p18 + 30) = {25.502278, 2.028143, 0};
Point(p18 + 31) = {25.61745584714071, 2.037207693158359, 0};
Point(p18 + 32) = {25.72979763343145, 2.064178569803884, 0};
Point(p18 + 33) = {25.83653713125274, 2.108391517442355, 0};
Point(p18 + 34) = {25.93504605992013, 2.168757866568552, 0};
Point(p18 + 35) = {26.02289880267744, 2.243791197322562, 0};
Point(p18 + 36) = {26.09793213343145, 2.331643940079873, 0};
Point(p18 + 37) = {26.15829848255765, 2.430152868747264, 0};
Point(p18 + 38) = {26.20251143019612, 2.536892366568552, 0};
Point(p18 + 39) = {26.22948230684164, 2.649234152859294, 0};
Spline(18) = {12, p18 + 1, p18 + 2, p18 + 3, p18 + 4, p18 + 5, p18 + 6, p18 + 7, p18 + 8, p18 + 9, p18 + 10, p18 + 11, p18 + 12, p18 + 13, p18 + 14, p18 + 15, p18 + 16, p18 + 17, p18 + 18, p18 + 19, p18 + 20, p18 + 21, p18 + 22, p18 + 23, p18 + 24, p18 + 25, p18 + 26, p18 + 27, p18 + 28, p18 + 29, p18 + 30, p18 + 31, p18 + 32, p18 + 33, p18 + 34, p18 + 35, p18 + 36, p18 + 37, p18 + 38, p18 + 39, 12};
Line(19) = {14, 13};
Line(20) = {13, 15};
Line(21) = {16, 15};
Line(22) = {14, 16};
Line(23) = {14, 17};
Line(24) = {17, 18};
Line(25) = {13, 18};
Line(26) = {15, 19};
Line(27) = {18, 19};
Line(28) = {16, 20};
Line(29) = {20, 19};
Line(30) = {17, 20};
Curve Loop(7) = {-13, -14, 15, 14};
Surface(7) = {7};
Curve Loop(8) = {13};
Plane Surface(8) = {8};
Curve Loop(9) = {15};
Plane Surface(9) = {9};
Curve Loop(10) = {-16, -17, 18, 17};
Surface(10) = {10};
Curve Loop(11) = {16};
Plane Surface(11) = {11};
Curve Loop(12) = {18};
Plane Surface(12) = {12};
Curve Loop(13) = {-19, 22, 21, -20};
Plane Surface(13) = {13};
Curve Loop(14) = {-23, 19, 25, -24};
Plane Surface(14) = {14};
Curve Loop(15) = {-20, 25, 27, -26, -13, -16};
Plane Surface(15) = {15};
Curve Loop(16) = {-28, 21, 26, -29};
Plane Surface(16) = {16};
Curve Loop(17) = {-22, 23, 30, -28, -15, -18};
Plane Surface(17) = {17};
Curve Loop(18) = {-24, 30, 29, -27};
Plane Surface(18) = {18};
Surface Loop(1) = {13, 14, 15, 16, 17, 18, 7, 10};
Volume(1) = {1};
Surface Loop(2) = {7, 8, 9};
Volume(2) = {2};
Surface Loop(3) = {10, 11, 12};
Volume(3) = {3};
Physical Surface("WALLS") = {13, 18};
Physical Surface("LOAD") = {8, 11};
Physical Surface("BORDER") = {7, 9, 10, 12, 14, 15, 16, 17};
Physical Volume("SOLID") = {1, 2, 3};
