cl__1 = 0.112506;
cl__2 = 0.140841;
cl__3 = 4.237801;
cl__4 = 4.005669;
cl__5 = 0.551154;
cl__6 = 0.24244;
Point(9) = {33.037235, 2.653332, 0.1, cl__1};
Point(10) = {33.037235, 2.653332, 0, cl__1};
Point(11) = {20.217766, 1.360965, 0.1, cl__2};
Point(12) = {20.217766, 1.360965, 0, cl__2};
Point(13) = {0.706956, -3.906244, 0.1, cl__3};
Point(14) = {0.706956, -3.906244, 0, cl__3};
Point(15) = {0.706956, 5.312218000000001, 0.1, cl__4};
Point(16) = {0.706956, 5.312218000000001, 0, cl__4};
Point(17) = {34.540313, -3.906244, 0, cl__5};
Point(18) = {34.540313, -3.906244, 0.1, cl__5};
Point(19) = {34.540313, 5.312218000000001, 0.1, cl__6};
Point(20) = {34.540313, 5.312218000000001, 0, cl__6};
p13 = newp;
Point(p13 + 1) = {33.02338366909328, 2.829329846369232, 0.1};
Point(p13 + 2) = {32.98217074210999, 3.000994041657489, 0.1};
Point(p13 + 3) = {32.91461101809032, 3.164097643655975, 0.1};
Point(p13 + 4) = {32.82236804165749, 3.314624500373665, 0.1};
Point(p13 + 5) = {32.70771314102817, 3.448868141028175, 0.1};
Point(p13 + 6) = {32.57346950037366, 3.563523041657489, 0.1};
Point(p13 + 7) = {32.42294264365597, 3.655766018090317, 0.1};
Point(p13 + 8) = {32.25983904165749, 3.723325742109993, 0.1};
Point(p13 + 9) = {32.08817484636923, 3.764538669093284, 0.1};
Point(p13 + 10) = {31.912177, 3.77839, 0.1};
Point(p13 + 11) = {31.73617915363077, 3.764538669093284, 0.1};
Point(p13 + 12) = {31.56451495834251, 3.723325742109993, 0.1};
Point(p13 + 13) = {31.40141135634402, 3.655766018090317, 0.1};
Point(p13 + 14) = {31.25088449962633, 3.563523041657489, 0.1};
Point(p13 + 15) = {31.11664085897182, 3.448868141028175, 0.1};
Point(p13 + 16) = {31.00198595834251, 3.314624500373665, 0.1};
Point(p13 + 17) = {30.90974298190968, 3.164097643655975, 0.1};
Point(p13 + 18) = {30.84218325789001, 3.000994041657489, 0.1};
Point(p13 + 19) = {30.80097033090671, 2.829329846369232, 0.1};
Point(p13 + 20) = {30.787119, 2.653332, 0.1};
Point(p13 + 21) = {30.80097033090671, 2.477334153630768, 0.1};
Point(p13 + 22) = {30.84218325789001, 2.30566995834251, 0.1};
Point(p13 + 23) = {30.90974298190968, 2.142566356344025, 0.1};
Point(p13 + 24) = {31.00198595834251, 1.992039499626335, 0.1};
Point(p13 + 25) = {31.11664085897182, 1.857795858971825, 0.1};
Point(p13 + 26) = {31.25088449962633, 1.74314095834251, 0.1};
Point(p13 + 27) = {31.40141135634402, 1.650897981909683, 0.1};
Point(p13 + 28) = {31.56451495834251, 1.583338257890007, 0.1};
Point(p13 + 29) = {31.73617915363077, 1.542125330906716, 0.1};
Point(p13 + 30) = {31.912177, 1.528274, 0.1};
Point(p13 + 31) = {32.08817484636923, 1.542125330906715, 0.1};
Point(p13 + 32) = {32.25983904165749, 1.583338257890007, 0.1};
Point(p13 + 33) = {32.42294264365597, 1.650897981909683, 0.1};
Point(p13 + 34) = {32.57346950037366, 1.74314095834251, 0.1};
Point(p13 + 35) = {32.70771314102817, 1.857795858971825, 0.1};
Point(p13 + 36) = {32.82236804165749, 1.992039499626335, 0.1};
Point(p13 + 37) = {32.91461101809032, 2.142566356344024, 0.1};
Point(p13 + 38) = {32.98217074210999, 2.30566995834251, 0.1};
Point(p13 + 39) = {33.02338366909328, 2.477334153630768, 0.1};
Spline(13) = {9, p13 + 1, p13 + 2, p13 + 3, p13 + 4, p13 + 5, p13 + 6, p13 + 7, p13 + 8, p13 + 9, p13 + 10, p13 + 11, p13 + 12, p13 + 13, p13 + 14, p13 + 15, p13 + 16, p13 + 17, p13 + 18, p13 + 19, p13 + 20, p13 + 21, p13 + 22, p13 + 23, p13 + 24, p13 + 25, p13 + 26, p13 + 27, p13 + 28, p13 + 29, p13 + 30, p13 + 31, p13 + 32, p13 + 33, p13 + 34, p13 + 35, p13 + 36, p13 + 37, p13 + 38, p13 + 39, 9};
Line(14) = {10, 9};
p15 = newp;
Point(p15 + 1) = {33.02338366909328, 2.829329846369232, 0};
Point(p15 + 2) = {32.98217074210999, 3.000994041657489, 0};
Point(p15 + 3) = {32.91461101809032, 3.164097643655975, 0};
Point(p15 + 4) = {32.82236804165749, 3.314624500373665, 0};
Point(p15 + 5) = {32.70771314102817, 3.448868141028175, 0};
Point(p15 + 6) = {32.57346950037366, 3.563523041657489, 0};
Point(p15 + 7) = {32.42294264365597, 3.655766018090317, 0};
Point(p15 + 8) = {32.25983904165749, 3.723325742109993, 0};
Point(p15 + 9) = {32.08817484636923, 3.764538669093284, 0};
Point(p15 + 10) = {31.912177, 3.77839, 0};
Point(p15 + 11) = {31.73617915363077, 3.764538669093284, 0};
Point(p15 + 12) = {31.56451495834251, 3.723325742109993, 0};
Point(p15 + 13) = {31.40141135634402, 3.655766018090317, 0};
Point(p15 + 14) = {31.25088449962633, 3.563523041657489, 0};
Point(p15 + 15) = {31.11664085897182, 3.448868141028175, 0};
Point(p15 + 16) = {31.00198595834251, 3.314624500373665, 0};
Point(p15 + 17) = {30.90974298190968, 3.164097643655975, 0};
Point(p15 + 18) = {30.84218325789001, 3.000994041657489, 0};
Point(p15 + 19) = {30.80097033090671, 2.829329846369232, 0};
Point(p15 + 20) = {30.787119, 2.653332, 0};
Point(p15 + 21) = {30.80097033090671, 2.477334153630768, 0};
Point(p15 + 22) = {30.84218325789001, 2.30566995834251, 0};
Point(p15 + 23) = {30.90974298190968, 2.142566356344025, 0};
Point(p15 + 24) = {31.00198595834251, 1.992039499626335, 0};
Point(p15 + 25) = {31.11664085897182, 1.857795858971825, 0};
Point(p15 + 26) = {31.25088449962633, 1.74314095834251, 0};
Point(p15 + 27) = {31.40141135634402, 1.650897981909683, 0};
Point(p15 + 28) = {31.56451495834251, 1.583338257890007, 0};
Point(p15 + 29) = {31.73617915363077, 1.542125330906716, 0};
Point(p15 + 30) = {31.912177, 1.528274, 0};
Point(p15 + 31) = {32.08817484636923, 1.542125330906715, 0};
Point(p15 + 32) = {32.25983904165749, 1.583338257890007, 0};
Point(p15 + 33) = {32.42294264365597, 1.650897981909683, 0};
Point(p15 + 34) = {32.57346950037366, 1.74314095834251, 0};
Point(p15 + 35) = {32.70771314102817, 1.857795858971825, 0};
Point(p15 + 36) = {32.82236804165749, 1.992039499626335, 0};
Point(p15 + 37) = {32.91461101809032, 2.142566356344024, 0};
Point(p15 + 38) = {32.98217074210999, 2.30566995834251, 0};
Point(p15 + 39) = {33.02338366909328, 2.477334153630768, 0};
Spline(15) = {10, p15 + 1, p15 + 2, p15 + 3, p15 + 4, p15 + 5, p15 + 6, p15 + 7, p15 + 8, p15 + 9, p15 + 10, p15 + 11, p15 + 12, p15 + 13, p15 + 14, p15 + 15, p15 + 16, p15 + 17, p15 + 18, p15 + 19, p15 + 20, p15 + 21, p15 + 22, p15 + 23, p15 + 24, p15 + 25, p15 + 26, p15 + 27, p15 + 28, p15 + 29, p15 + 30, p15 + 31, p15 + 32, p15 + 33, p15 + 34, p15 + 35, p15 + 36, p15 + 37, p15 + 38, p15 + 39, 10};
p16 = newp;
Point(p16 + 1) = {20.20042612346594, 1.581289021341777, 0.1};
Point(p16 + 2) = {20.14883345917177, 1.796187934064614, 0.1};
Point(p16 + 3) = {20.06425838973867, 2.000370213728675, 0.1};
Point(p16 + 4) = {19.94878343406462, 2.188808214966494, 0.1};
Point(p16 + 5) = {19.80525196879773, 2.356861968797727, 0.1};
Point(p16 + 6) = {19.6371982149665, 2.500393434064614, 0.1};
Point(p16 + 7) = {19.44876021372868, 2.615868389738663, 0.1};
Point(p16 + 8) = {19.24457793406462, 2.700443459171773, 0.1};
Point(p16 + 9) = {19.02967902134178, 2.752036123465939, 0.1};
Point(p16 + 10) = {18.809355, 2.769376, 0.1};
Point(p16 + 11) = {18.58903097865822, 2.752036123465938, 0.1};
Point(p16 + 12) = {18.37413206593538, 2.700443459171773, 0.1};
Point(p16 + 13) = {18.16994978627132, 2.615868389738663, 0.1};
Point(p16 + 14) = {17.9815117850335, 2.500393434064614, 0.1};
Point(p16 + 15) = {17.81345803120227, 2.356861968797727, 0.1};
Point(p16 + 16) = {17.66992656593539, 2.188808214966495, 0.1};
Point(p16 + 17) = {17.55445161026134, 2.000370213728675, 0.1};
Point(p16 + 18) = {17.46987654082823, 1.796187934064614, 0.1};
Point(p16 + 19) = {17.41828387653406, 1.581289021341777, 0.1};
Point(p16 + 20) = {17.400944, 1.360965, 0.1};
Point(p16 + 21) = {17.41828387653406, 1.140640978658223, 0.1};
Point(p16 + 22) = {17.46987654082823, 0.9257420659353854, 0.1};
Point(p16 + 23) = {17.55445161026134, 0.7215597862713258, 0.1};
Point(p16 + 24) = {17.66992656593538, 0.5331217850335057, 0.1};
Point(p16 + 25) = {17.81345803120227, 0.3650680312022734, 0.1};
Point(p16 + 26) = {17.9815117850335, 0.2215365659353861, 0.1};
Point(p16 + 27) = {18.16994978627132, 0.1060616102613365, 0.1};
Point(p16 + 28) = {18.37413206593538, 0.02148654082822632, 0.1};
Point(p16 + 29) = {18.58903097865822, -0.03010612346593855, 0.1};
Point(p16 + 30) = {18.809355, -0.0474460000000001, 0.1};
Point(p16 + 31) = {19.02967902134178, -0.03010612346593877, 0.1};
Point(p16 + 32) = {19.24457793406462, 0.02148654082822632, 0.1};
Point(p16 + 33) = {19.44876021372868, 0.1060616102613363, 0.1};
Point(p16 + 34) = {19.6371982149665, 0.2215365659353856, 0.1};
Point(p16 + 35) = {19.80525196879773, 0.3650680312022732, 0.1};
Point(p16 + 36) = {19.94878343406461, 0.5331217850335054, 0.1};
Point(p16 + 37) = {20.06425838973867, 0.7215597862713249, 0.1};
Point(p16 + 38) = {20.14883345917177, 0.9257420659353857, 0.1};
Point(p16 + 39) = {20.20042612346594, 1.140640978658223, 0.1};
Spline(16) = {11, p16 + 1, p16 + 2, p16 + 3, p16 + 4, p16 + 5, p16 + 6, p16 + 7, p16 + 8, p16 + 9, p16 + 10, p16 + 11, p16 + 12, p16 + 13, p16 + 14, p16 + 15, p16 + 16, p16 + 17, p16 + 18, p16 + 19, p16 + 20, p16 + 21, p16 + 22, p16 + 23, p16 + 24, p16 + 25, p16 + 26, p16 + 27, p16 + 28, p16 + 29, p16 + 30, p16 + 31, p16 + 32, p16 + 33, p16 + 34, p16 + 35, p16 + 36, p16 + 37, p16 + 38, p16 + 39, 11};
Line(17) = {12, 11};
p18 = newp;
Point(p18 + 1) = {20.20042612346594, 1.581289021341777, 0};
Point(p18 + 2) = {20.14883345917177, 1.796187934064614, 0};
Point(p18 + 3) = {20.06425838973867, 2.000370213728675, 0};
Point(p18 + 4) = {19.94878343406462, 2.188808214966494, 0};
Point(p18 + 5) = {19.80525196879773, 2.356861968797727, 0};
Point(p18 + 6) = {19.6371982149665, 2.500393434064614, 0};
Point(p18 + 7) = {19.44876021372868, 2.615868389738663, 0};
Point(p18 + 8) = {19.24457793406462, 2.700443459171773, 0};
Point(p18 + 9) = {19.02967902134178, 2.752036123465939, 0};
Point(p18 + 10) = {18.809355, 2.769376, 0};
Point(p18 + 11) = {18.58903097865822, 2.752036123465938, 0};
Point(p18 + 12) = {18.37413206593538, 2.700443459171773, 0};
Point(p18 + 13) = {18.16994978627132, 2.615868389738663, 0};
Point(p18 + 14) = {17.9815117850335, 2.500393434064614, 0};
Point(p18 + 15) = {17.81345803120227, 2.356861968797727, 0};
Point(p18 + 16) = {17.66992656593539, 2.188808214966495, 0};
Point(p18 + 17) = {17.55445161026134, 2.000370213728675, 0};
Point(p18 + 18) = {17.46987654082823, 1.796187934064614, 0};
Point(p18 + 19) = {17.41828387653406, 1.581289021341777, 0};
Point(p18 + 20) = {17.400944, 1.360965, 0};
Point(p18 + 21) = {17.41828387653406, 1.140640978658223, 0};
Point(p18 + 22) = {17.46987654082823, 0.9257420659353854, 0};
Point(p18 + 23) = {17.55445161026134, 0.7215597862713258, 0};
Point(p18 + 24) = {17.66992656593538, 0.5331217850335057, 0};
Point(p18 + 25) = {17.81345803120227, 0.3650680312022734, 0};
Point(p18 + 26) = {17.9815117850335, 0.2215365659353861, 0};
Point(p18 + 27) = {18.16994978627132, 0.1060616102613365, 0};
Point(p18 + 28) = {18.37413206593538, 0.02148654082822632, 0};
Point(p18 + 29) = {18.58903097865822, -0.03010612346593855, 0};
Point(p18 + 30) = {18.809355, -0.0474460000000001, 0};
Point(p18 + 31) = {19.02967902134178, -0.03010612346593877, 0};
Point(p18 + 32) = {19.24457793406462, 0.02148654082822632, 0};
Point(p18 + 33) = {19.44876021372868, 0.1060616102613363, 0};
Point(p18 + 34) = {19.6371982149665, 0.2215365659353856, 0};
Point(p18 + 35) = {19.80525196879773, 0.3650680312022732, 0};
Point(p18 + 36) = {19.94878343406461, 0.5331217850335054, 0};
Point(p18 + 37) = {20.06425838973867, 0.7215597862713249, 0};
Point(p18 + 38) = {20.14883345917177, 0.9257420659353857, 0};
Point(p18 + 39) = {20.20042612346594, 1.140640978658223, 0};
Spline(18) = {12, p18 + 1, p18 + 2, p18 + 3, p18 + 4, p18 + 5, p18 + 6, p18 + 7, p18 + 8, p18 + 9, p18 + 10, p18 + 11, p18 + 12, p18 + 13, p18 + 14, p18 + 15, p18 + 16, p18 + 17, p18 + 18, p18 + 19, p18 + 20, p18 + 21, p18 + 22, p18 + 23, p18 + 24, p18 + 25, p18 + 26, p18 + 27, p18 + 28, p18 + 29, p18 + 30, p18 + 31, p18 + 32, p18 + 33, p18 + 34, p18 + 35, p18 + 36, p18 + 37, p18 + 38, p18 + 39, 12};
Line(19) = {14, 13};
Line(20) = {13, 15};
Line(21) = {16, 15};
Line(22) = {14, 16};
Line(23) = {14, 17};
Line(24) = {17, 18};
Line(25) = {13, 18};
Line(26) = {15, 19};
Line(27) = {18, 19};
Line(28) = {16, 20};
Line(29) = {20, 19};
Line(30) = {17, 20};
Curve Loop(7) = {-13, -14, 15, 14};
Surface(7) = {7};
Curve Loop(8) = {13};
Plane Surface(8) = {8};
Curve Loop(9) = {15};
Plane Surface(9) = {9};
Curve Loop(10) = {-16, -17, 18, 17};
Surface(10) = {10};
Curve Loop(11) = {16};
Plane Surface(11) = {11};
Curve Loop(12) = {18};
Plane Surface(12) = {12};
Curve Loop(13) = {-19, 22, 21, -20};
Plane Surface(13) = {13};
Curve Loop(14) = {-23, 19, 25, -24};
Plane Surface(14) = {14};
Curve Loop(15) = {-20, 25, 27, -26, -16, -13};
Plane Surface(15) = {15};
Curve Loop(16) = {-28, 21, 26, -29};
Plane Surface(16) = {16};
Curve Loop(17) = {-22, 23, 30, -28, -18, -15};
Plane Surface(17) = {17};
Curve Loop(18) = {-24, 30, 29, -27};
Plane Surface(18) = {18};
Surface Loop(1) = {13, 14, 15, 16, 17, 18, 10, 7};
Volume(1) = {1};
Surface Loop(2) = {7, 8, 9};
Volume(2) = {2};
Surface Loop(3) = {10, 11, 12};
Volume(3) = {3};
Physical Surface("WALLS") = {13, 18};
Physical Surface("LOAD") = {8, 11};
Physical Surface("BORDER") = {7, 9, 10, 12, 14, 15, 16, 17};
Physical Volume("SOLID") = {1, 2, 3};
