cl__1 = 0.087551;
cl__2 = 0.099298;
cl__3 = 1.743188;
cl__4 = 2.102664;
cl__5 = 0.7838310000000001;
cl__6 = 0.731544;
Point(9) = {14.869957, -1.459011, 0.1, cl__1};
Point(10) = {14.869957, -1.459011, 0, cl__1};
Point(11) = {26.489859, 0.7140499999999997, 0.1, cl__2};
Point(12) = {26.489859, 0.7140499999999997, 0, cl__2};
Point(13) = {0.027171, -4.09155, 0.1, cl__3};
Point(14) = {0.027171, -4.09155, 0, cl__3};
Point(15) = {0.027171, 4.208553999999999, 0.1, cl__4};
Point(16) = {0.027171, 4.208553999999999, 0, cl__4};
Point(17) = {33.899397, -4.09155, 0, cl__5};
Point(18) = {33.899397, -4.09155, 0.1, cl__5};
Point(19) = {33.899397, 4.208553999999999, 0.1, cl__6};
Point(20) = {33.899397, 4.208553999999999, 0, cl__6};
p13 = newp;
Point(p13 + 1) = {14.85917798213947, -1.322050592209232, 0.1};
Point(p13 + 2) = {14.82710634375112, -1.188462604203807, 0.1};
Point(p13 + 3) = {14.77453179501173, -1.06153641560153, 0.1};
Point(p13 + 4) = {14.70274889579619, -0.94439737040966, 0.1};
Point(p13 + 5) = {14.61352517931698, -0.8399298206830224, 0.1};
Point(p13 + 6) = {14.50905762959034, -0.7507061042038068, 0.1};
Point(p13 + 7) = {14.39191858439847, -0.6789232049882696, 0.1};
Point(p13 + 8) = {14.26499239579619, -0.6263486562488814, 0.1};
Point(p13 + 9) = {14.13140440779077, -0.5942770178605292, 0.1};
Point(p13 + 10) = {13.994444, -0.5834980000000001, 0.1};
Point(p13 + 11) = {13.85748359220923, -0.5942770178605293, 0.1};
Point(p13 + 12) = {13.72389560420381, -0.6263486562488813, 0.1};
Point(p13 + 13) = {13.59696941560153, -0.6789232049882695, 0.1};
Point(p13 + 14) = {13.47983037040966, -0.7507061042038067, 0.1};
Point(p13 + 15) = {13.37536282068302, -0.8399298206830222, 0.1};
Point(p13 + 16) = {13.28613910420381, -0.94439737040966, 0.1};
Point(p13 + 17) = {13.21435620498827, -1.06153641560153, 0.1};
Point(p13 + 18) = {13.16178165624888, -1.188462604203807, 0.1};
Point(p13 + 19) = {13.12971001786053, -1.322050592209232, 0.1};
Point(p13 + 20) = {13.118931, -1.459011, 0.1};
Point(p13 + 21) = {13.12971001786053, -1.595971407790768, 0.1};
Point(p13 + 22) = {13.16178165624888, -1.729559395796194, 0.1};
Point(p13 + 23) = {13.21435620498827, -1.856485584398469, 0.1};
Point(p13 + 24) = {13.28613910420381, -1.97362462959034, 0.1};
Point(p13 + 25) = {13.37536282068302, -2.078092179316978, 0.1};
Point(p13 + 26) = {13.47983037040966, -2.167315895796193, 0.1};
Point(p13 + 27) = {13.59696941560153, -2.23909879501173, 0.1};
Point(p13 + 28) = {13.72389560420381, -2.291673343751119, 0.1};
Point(p13 + 29) = {13.85748359220923, -2.323744982139471, 0.1};
Point(p13 + 30) = {13.994444, -2.334524, 0.1};
Point(p13 + 31) = {14.13140440779077, -2.323744982139471, 0.1};
Point(p13 + 32) = {14.26499239579619, -2.291673343751119, 0.1};
Point(p13 + 33) = {14.39191858439847, -2.23909879501173, 0.1};
Point(p13 + 34) = {14.50905762959034, -2.167315895796194, 0.1};
Point(p13 + 35) = {14.61352517931698, -2.078092179316978, 0.1};
Point(p13 + 36) = {14.70274889579619, -1.97362462959034, 0.1};
Point(p13 + 37) = {14.77453179501173, -1.85648558439847, 0.1};
Point(p13 + 38) = {14.82710634375112, -1.729559395796194, 0.1};
Point(p13 + 39) = {14.85917798213947, -1.595971407790768, 0.1};
Spline(13) = {9, p13 + 1, p13 + 2, p13 + 3, p13 + 4, p13 + 5, p13 + 6, p13 + 7, p13 + 8, p13 + 9, p13 + 10, p13 + 11, p13 + 12, p13 + 13, p13 + 14, p13 + 15, p13 + 16, p13 + 17, p13 + 18, p13 + 19, p13 + 20, p13 + 21, p13 + 22, p13 + 23, p13 + 24, p13 + 25, p13 + 26, p13 + 27, p13 + 28, p13 + 29, p13 + 30, p13 + 31, p13 + 32, p13 + 33, p13 + 34, p13 + 35, p13 + 36, p13 + 37, p13 + 38, p13 + 39, 9};
Line(14) = {10, 9};
p15 = newp;
Point(p15 + 1) = {14.85917798213947, -1.322050592209232, 0};
Point(p15 + 2) = {14.82710634375112, -1.188462604203807, 0};
Point(p15 + 3) = {14.77453179501173, -1.06153641560153, 0};
Point(p15 + 4) = {14.70274889579619, -0.94439737040966, 0};
Point(p15 + 5) = {14.61352517931698, -0.8399298206830224, 0};
Point(p15 + 6) = {14.50905762959034, -0.7507061042038068, 0};
Point(p15 + 7) = {14.39191858439847, -0.6789232049882696, 0};
Point(p15 + 8) = {14.26499239579619, -0.6263486562488814, 0};
Point(p15 + 9) = {14.13140440779077, -0.5942770178605292, 0};
Point(p15 + 10) = {13.994444, -0.5834980000000001, 0};
Point(p15 + 11) = {13.85748359220923, -0.5942770178605293, 0};
Point(p15 + 12) = {13.72389560420381, -0.6263486562488813, 0};
Point(p15 + 13) = {13.59696941560153, -0.6789232049882695, 0};
Point(p15 + 14) = {13.47983037040966, -0.7507061042038067, 0};
Point(p15 + 15) = {13.37536282068302, -0.8399298206830222, 0};
Point(p15 + 16) = {13.28613910420381, -0.94439737040966, 0};
Point(p15 + 17) = {13.21435620498827, -1.06153641560153, 0};
Point(p15 + 18) = {13.16178165624888, -1.188462604203807, 0};
Point(p15 + 19) = {13.12971001786053, -1.322050592209232, 0};
Point(p15 + 20) = {13.118931, -1.459011, 0};
Point(p15 + 21) = {13.12971001786053, -1.595971407790768, 0};
Point(p15 + 22) = {13.16178165624888, -1.729559395796194, 0};
Point(p15 + 23) = {13.21435620498827, -1.856485584398469, 0};
Point(p15 + 24) = {13.28613910420381, -1.97362462959034, 0};
Point(p15 + 25) = {13.37536282068302, -2.078092179316978, 0};
Point(p15 + 26) = {13.47983037040966, -2.167315895796193, 0};
Point(p15 + 27) = {13.59696941560153, -2.23909879501173, 0};
Point(p15 + 28) = {13.72389560420381, -2.291673343751119, 0};
Point(p15 + 29) = {13.85748359220923, -2.323744982139471, 0};
Point(p15 + 30) = {13.994444, -2.334524, 0};
Point(p15 + 31) = {14.13140440779077, -2.323744982139471, 0};
Point(p15 + 32) = {14.26499239579619, -2.291673343751119, 0};
Point(p15 + 33) = {14.39191858439847, -2.23909879501173, 0};
Point(p15 + 34) = {14.50905762959034, -2.167315895796194, 0};
Point(p15 + 35) = {14.61352517931698, -2.078092179316978, 0};
Point(p15 + 36) = {14.70274889579619, -1.97362462959034, 0};
Point(p15 + 37) = {14.77453179501173, -1.85648558439847, 0};
Point(p15 + 38) = {14.82710634375112, -1.729559395796194, 0};
Point(p15 + 39) = {14.85917798213947, -1.595971407790768, 0};
Spline(15) = {10, p15 + 1, p15 + 2, p15 + 3, p15 + 4, p15 + 5, p15 + 6, p15 + 7, p15 + 8, p15 + 9, p15 + 10, p15 + 11, p15 + 12, p15 + 13, p15 + 14, p15 + 15, p15 + 16, p15 + 17, p15 + 18, p15 + 19, p15 + 20, p15 + 21, p15 + 22, p15 + 23, p15 + 24, p15 + 25, p15 + 26, p15 + 27, p15 + 28, p15 + 29, p15 + 30, p15 + 31, p15 + 32, p15 + 33, p15 + 34, p15 + 35, p15 + 36, p15 + 37, p15 + 38, p15 + 39, 10};
p16 = newp;
Point(p16 + 1) = {26.47763378075582, 0.8693861386611834, 0.1};
Point(p16 + 2) = {26.44125914849425, 1.020897386057441, 0.1};
Point(p16 + 3) = {26.38163076738204, 1.164853032440875, 0.1};
Point(p16 + 4) = {26.30021688605744, 1.297708412036128, 0.1};
Point(p16 + 5) = {26.19902218447584, 1.416192184475837, 0.1};
Point(p16 + 6) = {26.08053841203613, 1.517386886057441, 0.1};
Point(p16 + 7) = {25.94768303244088, 1.598800767382041, 0.1};
Point(p16 + 8) = {25.80372738605744, 1.658429148494245, 0.1};
Point(p16 + 9) = {25.65221613866118, 1.694803780755819, 0.1};
Point(p16 + 10) = {25.49688, 1.707029, 0.1};
Point(p16 + 11) = {25.34154386133882, 1.694803780755819, 0.1};
Point(p16 + 12) = {25.19003261394256, 1.658429148494245, 0.1};
Point(p16 + 13) = {25.04607696755912, 1.598800767382041, 0.1};
Point(p16 + 14) = {24.91322158796387, 1.517386886057441, 0.1};
Point(p16 + 15) = {24.79473781552417, 1.416192184475837, 0.1};
Point(p16 + 16) = {24.69354311394256, 1.297708412036128, 0.1};
Point(p16 + 17) = {24.61212923261796, 1.164853032440875, 0.1};
Point(p16 + 18) = {24.55250085150576, 1.020897386057441, 0.1};
Point(p16 + 19) = {24.51612621924418, 0.8693861386611834, 0.1};
Point(p16 + 20) = {24.503901, 0.7140500000000001, 0.1};
Point(p16 + 21) = {24.51612621924418, 0.5587138613388167, 0.1};
Point(p16 + 22) = {24.55250085150576, 0.4072026139425587, 0.1};
Point(p16 + 23) = {24.61212923261796, 0.263246967559125, 0.1};
Point(p16 + 24) = {24.69354311394256, 0.1303915879638724, 0.1};
Point(p16 + 25) = {24.79473781552417, 0.01190781552416331, 0.1};
Point(p16 + 26) = {24.91322158796387, -0.08928688605744084, 0.1};
Point(p16 + 27) = {25.04607696755912, -0.1707007673820412, 0.1};
Point(p16 + 28) = {25.19003261394256, -0.2303291484942452, 0.1};
Point(p16 + 29) = {25.34154386133882, -0.2667037807558191, 0.1};
Point(p16 + 30) = {25.49688, -0.278929, 0.1};
Point(p16 + 31) = {25.65221613866118, -0.2667037807558192, 0.1};
Point(p16 + 32) = {25.80372738605744, -0.2303291484942454, 0.1};
Point(p16 + 33) = {25.94768303244087, -0.1707007673820414, 0.1};
Point(p16 + 34) = {26.08053841203613, -0.08928688605744106, 0.1};
Point(p16 + 35) = {26.19902218447584, 0.01190781552416309, 0.1};
Point(p16 + 36) = {26.30021688605744, 0.1303915879638722, 0.1};
Point(p16 + 37) = {26.38163076738204, 0.2632469675591244, 0.1};
Point(p16 + 38) = {26.44125914849425, 0.4072026139425589, 0.1};
Point(p16 + 39) = {26.47763378075582, 0.5587138613388163, 0.1};
Spline(16) = {11, p16 + 1, p16 + 2, p16 + 3, p16 + 4, p16 + 5, p16 + 6, p16 + 7, p16 + 8, p16 + 9, p16 + 10, p16 + 11, p16 + 12, p16 + 13, p16 + 14, p16 + 15, p16 + 16, p16 + 17, p16 + 18, p16 + 19, p16 + 20, p16 + 21, p16 + 22, p16 + 23, p16 + 24, p16 + 25, p16 + 26, p16 + 27, p16 + 28, p16 + 29, p16 + 30, p16 + 31, p16 + 32, p16 + 33, p16 + 34, p16 + 35, p16 + 36, p16 + 37, p16 + 38, p16 + 39, 11};
Line(17) = {12, 11};
p18 = newp;
Point(p18 + 1) = {26.47763378075582, 0.8693861386611834, 0};
Point(p18 + 2) = {26.44125914849425, 1.020897386057441, 0};
Point(p18 + 3) = {26.38163076738204, 1.164853032440875, 0};
Point(p18 + 4) = {26.30021688605744, 1.297708412036128, 0};
Point(p18 + 5) = {26.19902218447584, 1.416192184475837, 0};
Point(p18 + 6) = {26.08053841203613, 1.517386886057441, 0};
Point(p18 + 7) = {25.94768303244088, 1.598800767382041, 0};
Point(p18 + 8) = {25.80372738605744, 1.658429148494245, 0};
Point(p18 + 9) = {25.65221613866118, 1.694803780755819, 0};
Point(p18 + 10) = {25.49688, 1.707029, 0};
Point(p18 + 11) = {25.34154386133882, 1.694803780755819, 0};
Point(p18 + 12) = {25.19003261394256, 1.658429148494245, 0};
Point(p18 + 13) = {25.04607696755912, 1.598800767382041, 0};
Point(p18 + 14) = {24.91322158796387, 1.517386886057441, 0};
Point(p18 + 15) = {24.79473781552417, 1.416192184475837, 0};
Point(p18 + 16) = {24.69354311394256, 1.297708412036128, 0};
Point(p18 + 17) = {24.61212923261796, 1.164853032440875, 0};
Point(p18 + 18) = {24.55250085150576, 1.020897386057441, 0};
Point(p18 + 19) = {24.51612621924418, 0.8693861386611834, 0};
Point(p18 + 20) = {24.503901, 0.7140500000000001, 0};
Point(p18 + 21) = {24.51612621924418, 0.5587138613388167, 0};
Point(p18 + 22) = {24.55250085150576, 0.4072026139425587, 0};
Point(p18 + 23) = {24.61212923261796, 0.263246967559125, 0};
Point(p18 + 24) = {24.69354311394256, 0.1303915879638724, 0};
Point(p18 + 25) = {24.79473781552417, 0.01190781552416331, 0};
Point(p18 + 26) = {24.91322158796387, -0.08928688605744084, 0};
Point(p18 + 27) = {25.04607696755912, -0.1707007673820412, 0};
Point(p18 + 28) = {25.19003261394256, -0.2303291484942452, 0};
Point(p18 + 29) = {25.34154386133882, -0.2667037807558191, 0};
Point(p18 + 30) = {25.49688, -0.278929, 0};
Point(p18 + 31) = {25.65221613866118, -0.2667037807558192, 0};
Point(p18 + 32) = {25.80372738605744, -0.2303291484942454, 0};
Point(p18 + 33) = {25.94768303244087, -0.1707007673820414, 0};
Point(p18 + 34) = {26.08053841203613, -0.08928688605744106, 0};
Point(p18 + 35) = {26.19902218447584, 0.01190781552416309, 0};
Point(p18 + 36) = {26.30021688605744, 0.1303915879638722, 0};
Point(p18 + 37) = {26.38163076738204, 0.2632469675591244, 0};
Point(p18 + 38) = {26.44125914849425, 0.4072026139425589, 0};
Point(p18 + 39) = {26.47763378075582, 0.5587138613388163, 0};
Spline(18) = {12, p18 + 1, p18 + 2, p18 + 3, p18 + 4, p18 + 5, p18 + 6, p18 + 7, p18 + 8, p18 + 9, p18 + 10, p18 + 11, p18 + 12, p18 + 13, p18 + 14, p18 + 15, p18 + 16, p18 + 17, p18 + 18, p18 + 19, p18 + 20, p18 + 21, p18 + 22, p18 + 23, p18 + 24, p18 + 25, p18 + 26, p18 + 27, p18 + 28, p18 + 29, p18 + 30, p18 + 31, p18 + 32, p18 + 33, p18 + 34, p18 + 35, p18 + 36, p18 + 37, p18 + 38, p18 + 39, 12};
Line(19) = {14, 13};
Line(20) = {13, 15};
Line(21) = {16, 15};
Line(22) = {14, 16};
Line(23) = {14, 17};
Line(24) = {17, 18};
Line(25) = {13, 18};
Line(26) = {15, 19};
Line(27) = {18, 19};
Line(28) = {16, 20};
Line(29) = {20, 19};
Line(30) = {17, 20};
Curve Loop(7) = {-13, -14, 15, 14};
Surface(7) = {7};
Curve Loop(8) = {13};
Plane Surface(8) = {8};
Curve Loop(9) = {15};
Plane Surface(9) = {9};
Curve Loop(10) = {-16, -17, 18, 17};
Surface(10) = {10};
Curve Loop(11) = {16};
Plane Surface(11) = {11};
Curve Loop(12) = {18};
Plane Surface(12) = {12};
Curve Loop(13) = {-19, 22, 21, -20};
Plane Surface(13) = {13};
Curve Loop(14) = {-23, 19, 25, -24};
Plane Surface(14) = {14};
Curve Loop(15) = {-20, 25, 27, -26, -13, -16};
Plane Surface(15) = {15};
Curve Loop(16) = {-28, 21, 26, -29};
Plane Surface(16) = {16};
Curve Loop(17) = {-22, 23, 30, -28, -15, -18};
Plane Surface(17) = {17};
Curve Loop(18) = {-24, 30, 29, -27};
Plane Surface(18) = {18};
Surface Loop(1) = {13, 14, 15, 16, 17, 18, 7, 10};
Volume(1) = {1};
Surface Loop(2) = {7, 8, 9};
Volume(2) = {2};
Surface Loop(3) = {10, 11, 12};
Volume(3) = {3};
Physical Surface("WALLS") = {13, 18};
Physical Surface("LOAD") = {8, 11};
Physical Surface("BORDER") = {7, 9, 10, 12, 14, 15, 16, 17};
Physical Volume("SOLID") = {1, 2, 3};
