cl__1 = 0.086646;
cl__2 = 0.145775;
cl__3 = 1.472441;
cl__4 = 1.25724;
cl__5 = 0.88119;
cl__6 = 0.901857;
Point(9) = {17.086415, 1.657659, 0.1, cl__1};
Point(10) = {17.086415, 1.657659, 0, cl__1};
Point(11) = {20.41811, -0.4813980000000003, 0.1, cl__2};
Point(12) = {20.41811, -0.4813980000000003, 0, cl__2};
Point(13) = {0.578134, -3.97545, 0.1, cl__3};
Point(14) = {0.578134, -3.97545, 0, cl__3};
Point(15) = {0.578134, 4.003419000000001, 0.1, cl__4};
Point(16) = {0.578134, 4.003419000000001, 0, cl__4};
Point(17) = {32.169981, -3.97545, 0, cl__5};
Point(18) = {32.169981, -3.97545, 0.1, cl__5};
Point(19) = {32.169981, 4.003419000000001, 0.1, cl__6};
Point(20) = {32.169981, 4.003419000000001, 0, cl__6};
p13 = newp;
Point(p13 + 1) = {17.07574740265708, 1.793203675882153, 0.1};
Point(p13 + 2) = {17.04400728227865, 1.9254107919971, 0.1};
Point(p13 + 3) = {16.99197618596783, 2.051024970375827, 0.1};
Point(p13 + 4) = {16.9209352919971, 2.166953173057093, 0.1};
Point(p13 + 5) = {16.83263386294724, 2.270340862947239, 0.1};
Point(p13 + 6) = {16.72924617305709, 2.3586422919971, 0.1};
Point(p13 + 7) = {16.61331797037582, 2.429683185967826, 0.1};
Point(p13 + 8) = {16.4877037919971, 2.481714282278648, 0.1};
Point(p13 + 9) = {16.35549667588215, 2.513454402657085, 0.1};
Point(p13 + 10) = {16.219952, 2.524122, 0.1};
Point(p13 + 11) = {16.08440732411784, 2.513454402657085, 0.1};
Point(p13 + 12) = {15.9522002080029, 2.481714282278648, 0.1};
Point(p13 + 13) = {15.82658602962417, 2.429683185967826, 0.1};
Point(p13 + 14) = {15.71065782694291, 2.3586422919971, 0.1};
Point(p13 + 15) = {15.60727013705276, 2.270340862947239, 0.1};
Point(p13 + 16) = {15.5189687080029, 2.166953173057093, 0.1};
Point(p13 + 17) = {15.44792781403217, 2.051024970375827, 0.1};
Point(p13 + 18) = {15.39589671772135, 1.9254107919971, 0.1};
Point(p13 + 19) = {15.36415659734291, 1.793203675882154, 0.1};
Point(p13 + 20) = {15.353489, 1.657659, 0.1};
Point(p13 + 21) = {15.36415659734291, 1.522114324117847, 0.1};
Point(p13 + 22) = {15.39589671772135, 1.3899072080029, 0.1};
Point(p13 + 23) = {15.44792781403217, 1.264293029624173, 0.1};
Point(p13 + 24) = {15.5189687080029, 1.148364826942907, 0.1};
Point(p13 + 25) = {15.60727013705276, 1.044977137052761, 0.1};
Point(p13 + 26) = {15.71065782694291, 0.9566757080029, 0.1};
Point(p13 + 27) = {15.82658602962417, 0.8856348140321743, 0.1};
Point(p13 + 28) = {15.9522002080029, 0.8336037177213524, 0.1};
Point(p13 + 29) = {16.08440732411784, 0.8018635973429152, 0.1};
Point(p13 + 30) = {16.219952, 0.791196, 0.1};
Point(p13 + 31) = {16.35549667588215, 0.8018635973429151, 0.1};
Point(p13 + 32) = {16.4877037919971, 0.8336037177213523, 0.1};
Point(p13 + 33) = {16.61331797037582, 0.8856348140321741, 0.1};
Point(p13 + 34) = {16.72924617305709, 0.9566757080028998, 0.1};
Point(p13 + 35) = {16.83263386294724, 1.04497713705276, 0.1};
Point(p13 + 36) = {16.9209352919971, 1.148364826942907, 0.1};
Point(p13 + 37) = {16.99197618596783, 1.264293029624173, 0.1};
Point(p13 + 38) = {17.04400728227865, 1.3899072080029, 0.1};
Point(p13 + 39) = {17.07574740265708, 1.522114324117846, 0.1};
Spline(13) = {9, p13 + 1, p13 + 2, p13 + 3, p13 + 4, p13 + 5, p13 + 6, p13 + 7, p13 + 8, p13 + 9, p13 + 10, p13 + 11, p13 + 12, p13 + 13, p13 + 14, p13 + 15, p13 + 16, p13 + 17, p13 + 18, p13 + 19, p13 + 20, p13 + 21, p13 + 22, p13 + 23, p13 + 24, p13 + 25, p13 + 26, p13 + 27, p13 + 28, p13 + 29, p13 + 30, p13 + 31, p13 + 32, p13 + 33, p13 + 34, p13 + 35, p13 + 36, p13 + 37, p13 + 38, p13 + 39, 9};
Line(14) = {10, 9};
p15 = newp;
Point(p15 + 1) = {17.07574740265708, 1.793203675882153, 0};
Point(p15 + 2) = {17.04400728227865, 1.9254107919971, 0};
Point(p15 + 3) = {16.99197618596783, 2.051024970375827, 0};
Point(p15 + 4) = {16.9209352919971, 2.166953173057093, 0};
Point(p15 + 5) = {16.83263386294724, 2.270340862947239, 0};
Point(p15 + 6) = {16.72924617305709, 2.3586422919971, 0};
Point(p15 + 7) = {16.61331797037582, 2.429683185967826, 0};
Point(p15 + 8) = {16.4877037919971, 2.481714282278648, 0};
Point(p15 + 9) = {16.35549667588215, 2.513454402657085, 0};
Point(p15 + 10) = {16.219952, 2.524122, 0};
Point(p15 + 11) = {16.08440732411784, 2.513454402657085, 0};
Point(p15 + 12) = {15.9522002080029, 2.481714282278648, 0};
Point(p15 + 13) = {15.82658602962417, 2.429683185967826, 0};
Point(p15 + 14) = {15.71065782694291, 2.3586422919971, 0};
Point(p15 + 15) = {15.60727013705276, 2.270340862947239, 0};
Point(p15 + 16) = {15.5189687080029, 2.166953173057093, 0};
Point(p15 + 17) = {15.44792781403217, 2.051024970375827, 0};
Point(p15 + 18) = {15.39589671772135, 1.9254107919971, 0};
Point(p15 + 19) = {15.36415659734291, 1.793203675882154, 0};
Point(p15 + 20) = {15.353489, 1.657659, 0};
Point(p15 + 21) = {15.36415659734291, 1.522114324117847, 0};
Point(p15 + 22) = {15.39589671772135, 1.3899072080029, 0};
Point(p15 + 23) = {15.44792781403217, 1.264293029624173, 0};
Point(p15 + 24) = {15.5189687080029, 1.148364826942907, 0};
Point(p15 + 25) = {15.60727013705276, 1.044977137052761, 0};
Point(p15 + 26) = {15.71065782694291, 0.9566757080029, 0};
Point(p15 + 27) = {15.82658602962417, 0.8856348140321743, 0};
Point(p15 + 28) = {15.9522002080029, 0.8336037177213524, 0};
Point(p15 + 29) = {16.08440732411784, 0.8018635973429152, 0};
Point(p15 + 30) = {16.219952, 0.791196, 0};
Point(p15 + 31) = {16.35549667588215, 0.8018635973429151, 0};
Point(p15 + 32) = {16.4877037919971, 0.8336037177213523, 0};
Point(p15 + 33) = {16.61331797037582, 0.8856348140321741, 0};
Point(p15 + 34) = {16.72924617305709, 0.9566757080028998, 0};
Point(p15 + 35) = {16.83263386294724, 1.04497713705276, 0};
Point(p15 + 36) = {16.9209352919971, 1.148364826942907, 0};
Point(p15 + 37) = {16.99197618596783, 1.264293029624173, 0};
Point(p15 + 38) = {17.04400728227865, 1.3899072080029, 0};
Point(p15 + 39) = {17.07574740265708, 1.522114324117846, 0};
Spline(15) = {10, p15 + 1, p15 + 2, p15 + 3, p15 + 4, p15 + 5, p15 + 6, p15 + 7, p15 + 8, p15 + 9, p15 + 10, p15 + 11, p15 + 12, p15 + 13, p15 + 14, p15 + 15, p15 + 16, p15 + 17, p15 + 18, p15 + 19, p15 + 20, p15 + 21, p15 + 22, p15 + 23, p15 + 24, p15 + 25, p15 + 26, p15 + 27, p15 + 28, p15 + 29, p15 + 30, p15 + 31, p15 + 32, p15 + 33, p15 + 34, p15 + 35, p15 + 36, p15 + 37, p15 + 38, p15 + 39, 10};
p16 = newp;
Point(p16 + 1) = {20.40016270312588, -0.2533559714565335, 0.1};
Point(p16 + 2) = {20.34676273451623, -0.03092909448390918, 0.1};
Point(p16 + 3) = {20.25922497862254, 0.1804057430143248, 0.1};
Point(p16 + 4) = {20.13970490551609, 0.3754447759588482, 0.1};
Point(p16 + 5) = {19.99114549606113, 0.5493854960611273, 0.1};
Point(p16 + 6) = {19.81720477595885, 0.6979449055160907, 0.1};
Point(p16 + 7) = {19.62216574301432, 0.8174649786225447, 0.1};
Point(p16 + 8) = {19.41083090551609, 0.9050027345162275, 0.1};
Point(p16 + 9) = {19.18840402854347, 0.9584027031258811, 0.1};
Point(p16 + 10) = {18.960362, 0.9763500000000001, 0.1};
Point(p16 + 11) = {18.73231997145653, 0.9584027031258808, 0.1};
Point(p16 + 12) = {18.50989309448391, 0.9050027345162277, 0.1};
Point(p16 + 13) = {18.29855825698568, 0.817464978622545, 0.1};
Point(p16 + 14) = {18.10351922404115, 0.6979449055160909, 0.1};
Point(p16 + 15) = {17.92957850393887, 0.5493854960611273, 0.1};
Point(p16 + 16) = {17.78101909448391, 0.3754447759588483, 0.1};
Point(p16 + 17) = {17.66149902137746, 0.180405743014325, 0.1};
Point(p16 + 18) = {17.57396126548377, -0.03092909448390901, 0.1};
Point(p16 + 19) = {17.52056129687412, -0.2533559714565333, 0.1};
Point(p16 + 20) = {17.502614, -0.4813979999999998, 0.1};
Point(p16 + 21) = {17.52056129687412, -0.7094400285434663, 0.1};
Point(p16 + 22) = {17.57396126548377, -0.9318669055160913, 0.1};
Point(p16 + 23) = {17.66149902137746, -1.143201743014324, 0.1};
Point(p16 + 24) = {17.78101909448391, -1.338240775958848, 0.1};
Point(p16 + 25) = {17.92957850393887, -1.512181496061127, 0.1};
Point(p16 + 26) = {18.10351922404115, -1.660740905516091, 0.1};
Point(p16 + 27) = {18.29855825698568, -1.780260978622545, 0.1};
Point(p16 + 28) = {18.50989309448391, -1.867798734516227, 0.1};
Point(p16 + 29) = {18.73231997145653, -1.921198703125881, 0.1};
Point(p16 + 30) = {18.960362, -1.939146, 0.1};
Point(p16 + 31) = {19.18840402854347, -1.921198703125881, 0.1};
Point(p16 + 32) = {19.41083090551609, -1.867798734516228, 0.1};
Point(p16 + 33) = {19.62216574301432, -1.780260978622545, 0.1};
Point(p16 + 34) = {19.81720477595885, -1.660740905516091, 0.1};
Point(p16 + 35) = {19.99114549606113, -1.512181496061128, 0.1};
Point(p16 + 36) = {20.13970490551609, -1.338240775958848, 0.1};
Point(p16 + 37) = {20.25922497862254, -1.143201743014325, 0.1};
Point(p16 + 38) = {20.34676273451623, -0.9318669055160911, 0.1};
Point(p16 + 39) = {20.40016270312588, -0.7094400285434668, 0.1};
Spline(16) = {11, p16 + 1, p16 + 2, p16 + 3, p16 + 4, p16 + 5, p16 + 6, p16 + 7, p16 + 8, p16 + 9, p16 + 10, p16 + 11, p16 + 12, p16 + 13, p16 + 14, p16 + 15, p16 + 16, p16 + 17, p16 + 18, p16 + 19, p16 + 20, p16 + 21, p16 + 22, p16 + 23, p16 + 24, p16 + 25, p16 + 26, p16 + 27, p16 + 28, p16 + 29, p16 + 30, p16 + 31, p16 + 32, p16 + 33, p16 + 34, p16 + 35, p16 + 36, p16 + 37, p16 + 38, p16 + 39, 11};
Line(17) = {12, 11};
p18 = newp;
Point(p18 + 1) = {20.40016270312588, -0.2533559714565335, 0};
Point(p18 + 2) = {20.34676273451623, -0.03092909448390918, 0};
Point(p18 + 3) = {20.25922497862254, 0.1804057430143248, 0};
Point(p18 + 4) = {20.13970490551609, 0.3754447759588482, 0};
Point(p18 + 5) = {19.99114549606113, 0.5493854960611273, 0};
Point(p18 + 6) = {19.81720477595885, 0.6979449055160907, 0};
Point(p18 + 7) = {19.62216574301432, 0.8174649786225447, 0};
Point(p18 + 8) = {19.41083090551609, 0.9050027345162275, 0};
Point(p18 + 9) = {19.18840402854347, 0.9584027031258811, 0};
Point(p18 + 10) = {18.960362, 0.9763500000000001, 0};
Point(p18 + 11) = {18.73231997145653, 0.9584027031258808, 0};
Point(p18 + 12) = {18.50989309448391, 0.9050027345162277, 0};
Point(p18 + 13) = {18.29855825698568, 0.817464978622545, 0};
Point(p18 + 14) = {18.10351922404115, 0.6979449055160909, 0};
Point(p18 + 15) = {17.92957850393887, 0.5493854960611273, 0};
Point(p18 + 16) = {17.78101909448391, 0.3754447759588483, 0};
Point(p18 + 17) = {17.66149902137746, 0.180405743014325, 0};
Point(p18 + 18) = {17.57396126548377, -0.03092909448390901, 0};
Point(p18 + 19) = {17.52056129687412, -0.2533559714565333, 0};
Point(p18 + 20) = {17.502614, -0.4813979999999998, 0};
Point(p18 + 21) = {17.52056129687412, -0.7094400285434663, 0};
Point(p18 + 22) = {17.57396126548377, -0.9318669055160913, 0};
Point(p18 + 23) = {17.66149902137746, -1.143201743014324, 0};
Point(p18 + 24) = {17.78101909448391, -1.338240775958848, 0};
Point(p18 + 25) = {17.92957850393887, -1.512181496061127, 0};
Point(p18 + 26) = {18.10351922404115, -1.660740905516091, 0};
Point(p18 + 27) = {18.29855825698568, -1.780260978622545, 0};
Point(p18 + 28) = {18.50989309448391, -1.867798734516227, 0};
Point(p18 + 29) = {18.73231997145653, -1.921198703125881, 0};
Point(p18 + 30) = {18.960362, -1.939146, 0};
Point(p18 + 31) = {19.18840402854347, -1.921198703125881, 0};
Point(p18 + 32) = {19.41083090551609, -1.867798734516228, 0};
Point(p18 + 33) = {19.62216574301432, -1.780260978622545, 0};
Point(p18 + 34) = {19.81720477595885, -1.660740905516091, 0};
Point(p18 + 35) = {19.99114549606113, -1.512181496061128, 0};
Point(p18 + 36) = {20.13970490551609, -1.338240775958848, 0};
Point(p18 + 37) = {20.25922497862254, -1.143201743014325, 0};
Point(p18 + 38) = {20.34676273451623, -0.9318669055160911, 0};
Point(p18 + 39) = {20.40016270312588, -0.7094400285434668, 0};
Spline(18) = {12, p18 + 1, p18 + 2, p18 + 3, p18 + 4, p18 + 5, p18 + 6, p18 + 7, p18 + 8, p18 + 9, p18 + 10, p18 + 11, p18 + 12, p18 + 13, p18 + 14, p18 + 15, p18 + 16, p18 + 17, p18 + 18, p18 + 19, p18 + 20, p18 + 21, p18 + 22, p18 + 23, p18 + 24, p18 + 25, p18 + 26, p18 + 27, p18 + 28, p18 + 29, p18 + 30, p18 + 31, p18 + 32, p18 + 33, p18 + 34, p18 + 35, p18 + 36, p18 + 37, p18 + 38, p18 + 39, 12};
Line(19) = {14, 13};
Line(20) = {13, 15};
Line(21) = {16, 15};
Line(22) = {14, 16};
Line(23) = {14, 17};
Line(24) = {17, 18};
Line(25) = {13, 18};
Line(26) = {15, 19};
Line(27) = {18, 19};
Line(28) = {16, 20};
Line(29) = {20, 19};
Line(30) = {17, 20};
Curve Loop(7) = {-13, -14, 15, 14};
Surface(7) = {7};
Curve Loop(8) = {13};
Plane Surface(8) = {8};
Curve Loop(9) = {15};
Plane Surface(9) = {9};
Curve Loop(10) = {-16, -17, 18, 17};
Surface(10) = {10};
Curve Loop(11) = {16};
Plane Surface(11) = {11};
Curve Loop(12) = {18};
Plane Surface(12) = {12};
Curve Loop(13) = {-19, 22, 21, -20};
Plane Surface(13) = {13};
Curve Loop(14) = {-23, 19, 25, -24};
Plane Surface(14) = {14};
Curve Loop(15) = {-20, 25, 27, -26, -16, -13};
Plane Surface(15) = {15};
Curve Loop(16) = {-28, 21, 26, -29};
Plane Surface(16) = {16};
Curve Loop(17) = {-22, 23, 30, -28, -18, -15};
Plane Surface(17) = {17};
Curve Loop(18) = {-24, 30, 29, -27};
Plane Surface(18) = {18};
Surface Loop(1) = {13, 14, 15, 16, 17, 18, 10, 7};
Volume(1) = {1};
Surface Loop(2) = {7, 8, 9};
Volume(2) = {2};
Surface Loop(3) = {10, 11, 12};
Volume(3) = {3};
Physical Surface("WALLS") = {13, 18};
Physical Surface("LOAD") = {8, 11};
Physical Surface("BORDER") = {7, 9, 10, 12, 14, 15, 16, 17};
Physical Volume("SOLID") = {1, 2, 3};
