cl__1 = 0.132829;
cl__2 = 0.07997899999999999;
cl__3 = 0.7030920000000001;
cl__4 = 0.789772;
cl__5 = 2.111293;
cl__6 = 1.83496;
Point(9) = {13.269582, -1.52963, 0.1, cl__1};
Point(10) = {13.269582, -1.52963, 0, cl__1};
Point(11) = {22.043428, 1.951362, 0.1, cl__2};
Point(12) = {22.043428, 1.951362, 0, cl__2};
Point(13) = {0.6130679999999999, -4.511647, 0.1, cl__3};
Point(14) = {0.6130679999999999, -4.511647, 0, cl__3};
Point(15) = {0.6130679999999999, 4.836651, 0.1, cl__4};
Point(16) = {0.6130679999999999, 4.836651, 0, cl__4};
Point(17) = {39.906157, -4.511647, 0, cl__5};
Point(18) = {39.906157, -4.511647, 0.1, cl__5};
Point(19) = {39.906157, 4.836651, 0.1, cl__6};
Point(20) = {39.906157, 4.836651, 0, cl__6};
p13 = newp;
Point(p13 + 1) = {13.25322855824077, -1.321839820866177, 0.1};
Point(p13 + 2) = {13.20457090897317, -1.119166125558696, 0.1};
Point(p13 + 3) = {13.12480716500764, -0.9265994130914572, 0.1};
Point(p13 + 4) = {13.0159013744413, -0.7488813150176832, 0.1};
Point(p13 + 5) = {12.8805351592755, -0.590387840724502, 0.1};
Point(p13 + 6) = {12.72204168498232, -0.4550216255586956, 0.1};
Point(p13 + 7) = {12.54432358690854, -0.3461158349923572, 0.1};
Point(p13 + 8) = {12.35175687444131, -0.2663520910268269, 0.1};
Point(p13 + 9) = {12.14908317913382, -0.217694441759225, 0.1};
Point(p13 + 10) = {11.941293, -0.201341, 0.1};
Point(p13 + 11) = {11.73350282086618, -0.2176944417592253, 0.1};
Point(p13 + 12) = {11.53082912555869, -0.2663520910268267, 0.1};
Point(p13 + 13) = {11.33826241309146, -0.346115834992357, 0.1};
Point(p13 + 14) = {11.16054431501768, -0.4550216255586954, 0.1};
Point(p13 + 15) = {11.0020508407245, -0.5903878407245019, 0.1};
Point(p13 + 16) = {10.8666846255587, -0.7488813150176831, 0.1};
Point(p13 + 17) = {10.75777883499236, -0.9265994130914571, 0.1};
Point(p13 + 18) = {10.67801509102683, -1.119166125558695, 0.1};
Point(p13 + 19) = {10.62935744175923, -1.321839820866177, 0.1};
Point(p13 + 20) = {10.613004, -1.52963, 0.1};
Point(p13 + 21) = {10.62935744175923, -1.737420179133823, 0.1};
Point(p13 + 22) = {10.67801509102683, -1.940093874441305, 0.1};
Point(p13 + 23) = {10.75777883499236, -2.132660586908542, 0.1};
Point(p13 + 24) = {10.8666846255587, -2.310378684982317, 0.1};
Point(p13 + 25) = {11.0020508407245, -2.468872159275498, 0.1};
Point(p13 + 26) = {11.16054431501768, -2.604238374441304, 0.1};
Point(p13 + 27) = {11.33826241309146, -2.713144165007643, 0.1};
Point(p13 + 28) = {11.53082912555869, -2.792907908973173, 0.1};
Point(p13 + 29) = {11.73350282086618, -2.841565558240775, 0.1};
Point(p13 + 30) = {11.941293, -2.857919, 0.1};
Point(p13 + 31) = {12.14908317913382, -2.841565558240775, 0.1};
Point(p13 + 32) = {12.3517568744413, -2.792907908973174, 0.1};
Point(p13 + 33) = {12.54432358690854, -2.713144165007643, 0.1};
Point(p13 + 34) = {12.72204168498232, -2.604238374441305, 0.1};
Point(p13 + 35) = {12.8805351592755, -2.468872159275498, 0.1};
Point(p13 + 36) = {13.0159013744413, -2.310378684982317, 0.1};
Point(p13 + 37) = {13.12480716500764, -2.132660586908543, 0.1};
Point(p13 + 38) = {13.20457090897317, -1.940093874441305, 0.1};
Point(p13 + 39) = {13.25322855824077, -1.737420179133824, 0.1};
Spline(13) = {9, p13 + 1, p13 + 2, p13 + 3, p13 + 4, p13 + 5, p13 + 6, p13 + 7, p13 + 8, p13 + 9, p13 + 10, p13 + 11, p13 + 12, p13 + 13, p13 + 14, p13 + 15, p13 + 16, p13 + 17, p13 + 18, p13 + 19, p13 + 20, p13 + 21, p13 + 22, p13 + 23, p13 + 24, p13 + 25, p13 + 26, p13 + 27, p13 + 28, p13 + 29, p13 + 30, p13 + 31, p13 + 32, p13 + 33, p13 + 34, p13 + 35, p13 + 36, p13 + 37, p13 + 38, p13 + 39, 9};
Line(14) = {10, 9};
p15 = newp;
Point(p15 + 1) = {13.25322855824077, -1.321839820866177, 0};
Point(p15 + 2) = {13.20457090897317, -1.119166125558696, 0};
Point(p15 + 3) = {13.12480716500764, -0.9265994130914572, 0};
Point(p15 + 4) = {13.0159013744413, -0.7488813150176832, 0};
Point(p15 + 5) = {12.8805351592755, -0.590387840724502, 0};
Point(p15 + 6) = {12.72204168498232, -0.4550216255586956, 0};
Point(p15 + 7) = {12.54432358690854, -0.3461158349923572, 0};
Point(p15 + 8) = {12.35175687444131, -0.2663520910268269, 0};
Point(p15 + 9) = {12.14908317913382, -0.217694441759225, 0};
Point(p15 + 10) = {11.941293, -0.201341, 0};
Point(p15 + 11) = {11.73350282086618, -0.2176944417592253, 0};
Point(p15 + 12) = {11.53082912555869, -0.2663520910268267, 0};
Point(p15 + 13) = {11.33826241309146, -0.346115834992357, 0};
Point(p15 + 14) = {11.16054431501768, -0.4550216255586954, 0};
Point(p15 + 15) = {11.0020508407245, -0.5903878407245019, 0};
Point(p15 + 16) = {10.8666846255587, -0.7488813150176831, 0};
Point(p15 + 17) = {10.75777883499236, -0.9265994130914571, 0};
Point(p15 + 18) = {10.67801509102683, -1.119166125558695, 0};
Point(p15 + 19) = {10.62935744175923, -1.321839820866177, 0};
Point(p15 + 20) = {10.613004, -1.52963, 0};
Point(p15 + 21) = {10.62935744175923, -1.737420179133823, 0};
Point(p15 + 22) = {10.67801509102683, -1.940093874441305, 0};
Point(p15 + 23) = {10.75777883499236, -2.132660586908542, 0};
Point(p15 + 24) = {10.8666846255587, -2.310378684982317, 0};
Point(p15 + 25) = {11.0020508407245, -2.468872159275498, 0};
Point(p15 + 26) = {11.16054431501768, -2.604238374441304, 0};
Point(p15 + 27) = {11.33826241309146, -2.713144165007643, 0};
Point(p15 + 28) = {11.53082912555869, -2.792907908973173, 0};
Point(p15 + 29) = {11.73350282086618, -2.841565558240775, 0};
Point(p15 + 30) = {11.941293, -2.857919, 0};
Point(p15 + 31) = {12.14908317913382, -2.841565558240775, 0};
Point(p15 + 32) = {12.3517568744413, -2.792907908973174, 0};
Point(p15 + 33) = {12.54432358690854, -2.713144165007643, 0};
Point(p15 + 34) = {12.72204168498232, -2.604238374441305, 0};
Point(p15 + 35) = {12.8805351592755, -2.468872159275498, 0};
Point(p15 + 36) = {13.0159013744413, -2.310378684982317, 0};
Point(p15 + 37) = {13.12480716500764, -2.132660586908543, 0};
Point(p15 + 38) = {13.20457090897317, -1.940093874441305, 0};
Point(p15 + 39) = {13.25322855824077, -1.737420179133824, 0};
Spline(15) = {10, p15 + 1, p15 + 2, p15 + 3, p15 + 4, p15 + 5, p15 + 6, p15 + 7, p15 + 8, p15 + 9, p15 + 10, p15 + 11, p15 + 12, p15 + 13, p15 + 14, p15 + 15, p15 + 16, p15 + 17, p15 + 18, p15 + 19, p15 + 20, p15 + 21, p15 + 22, p15 + 23, p15 + 24, p15 + 25, p15 + 26, p15 + 27, p15 + 28, p15 + 29, p15 + 30, p15 + 31, p15 + 32, p15 + 33, p15 + 34, p15 + 35, p15 + 36, p15 + 37, p15 + 38, p15 + 39, 10};
p16 = newp;
Point(p16 + 1) = {22.03358124561293, 2.076476877228991, 0.1};
Point(p16 + 2) = {22.00428344222422, 2.198511010948134, 0.1};
Point(p16 + 3) = {21.95625599898714, 2.314459515777192, 0.1};
Point(p16 + 4) = {21.89068151094813, 2.42146735471625, 0.1};
Point(p16 + 5) = {21.80917463963197, 2.51689963963197, 0.1};
Point(p16 + 6) = {21.71374235471625, 2.598406510948133, 0.1};
Point(p16 + 7) = {21.60673451577719, 2.663980998987139, 0.1};
Point(p16 + 8) = {21.49078601094813, 2.712008442224217, 0.1};
Point(p16 + 9) = {21.36875187722899, 2.741306245612926, 0.1};
Point(p16 + 10) = {21.243637, 2.751153, 0.1};
Point(p16 + 11) = {21.11852212277101, 2.741306245612926, 0.1};
Point(p16 + 12) = {20.99648798905186, 2.712008442224217, 0.1};
Point(p16 + 13) = {20.88053948422281, 2.663980998987139, 0.1};
Point(p16 + 14) = {20.77353164528375, 2.598406510948134, 0.1};
Point(p16 + 15) = {20.67809936036803, 2.51689963963197, 0.1};
Point(p16 + 16) = {20.59659248905187, 2.42146735471625, 0.1};
Point(p16 + 17) = {20.53101800101286, 2.314459515777192, 0.1};
Point(p16 + 18) = {20.48299055777578, 2.198511010948134, 0.1};
Point(p16 + 19) = {20.45369275438707, 2.076476877228991, 0.1};
Point(p16 + 20) = {20.443846, 1.951362, 0.1};
Point(p16 + 21) = {20.45369275438707, 1.826247122771009, 0.1};
Point(p16 + 22) = {20.48299055777578, 1.704212989051866, 0.1};
Point(p16 + 23) = {20.53101800101286, 1.588264484222809, 0.1};
Point(p16 + 24) = {20.59659248905187, 1.481256645283751, 0.1};
Point(p16 + 25) = {20.67809936036803, 1.38582436036803, 0.1};
Point(p16 + 26) = {20.77353164528375, 1.304317489051867, 0.1};
Point(p16 + 27) = {20.88053948422281, 1.238743001012861, 0.1};
Point(p16 + 28) = {20.99648798905186, 1.190715557775783, 0.1};
Point(p16 + 29) = {21.11852212277101, 1.161417754387074, 0.1};
Point(p16 + 30) = {21.243637, 1.151571, 0.1};
Point(p16 + 31) = {21.36875187722899, 1.161417754387074, 0.1};
Point(p16 + 32) = {21.49078601094813, 1.190715557775783, 0.1};
Point(p16 + 33) = {21.60673451577719, 1.238743001012861, 0.1};
Point(p16 + 34) = {21.71374235471625, 1.304317489051866, 0.1};
Point(p16 + 35) = {21.80917463963197, 1.38582436036803, 0.1};
Point(p16 + 36) = {21.89068151094813, 1.481256645283751, 0.1};
Point(p16 + 37) = {21.95625599898714, 1.588264484222808, 0.1};
Point(p16 + 38) = {22.00428344222422, 1.704212989051866, 0.1};
Point(p16 + 39) = {22.03358124561293, 1.826247122771009, 0.1};
Spline(16) = {11, p16 + 1, p16 + 2, p16 + 3, p16 + 4, p16 + 5, p16 + 6, p16 + 7, p16 + 8, p16 + 9, p16 + 10, p16 + 11, p16 + 12, p16 + 13, p16 + 14, p16 + 15, p16 + 16, p16 + 17, p16 + 18, p16 + 19, p16 + 20, p16 + 21, p16 + 22, p16 + 23, p16 + 24, p16 + 25, p16 + 26, p16 + 27, p16 + 28, p16 + 29, p16 + 30, p16 + 31, p16 + 32, p16 + 33, p16 + 34, p16 + 35, p16 + 36, p16 + 37, p16 + 38, p16 + 39, 11};
Line(17) = {12, 11};
p18 = newp;
Point(p18 + 1) = {22.03358124561293, 2.076476877228991, 0};
Point(p18 + 2) = {22.00428344222422, 2.198511010948134, 0};
Point(p18 + 3) = {21.95625599898714, 2.314459515777192, 0};
Point(p18 + 4) = {21.89068151094813, 2.42146735471625, 0};
Point(p18 + 5) = {21.80917463963197, 2.51689963963197, 0};
Point(p18 + 6) = {21.71374235471625, 2.598406510948133, 0};
Point(p18 + 7) = {21.60673451577719, 2.663980998987139, 0};
Point(p18 + 8) = {21.49078601094813, 2.712008442224217, 0};
Point(p18 + 9) = {21.36875187722899, 2.741306245612926, 0};
Point(p18 + 10) = {21.243637, 2.751153, 0};
Point(p18 + 11) = {21.11852212277101, 2.741306245612926, 0};
Point(p18 + 12) = {20.99648798905186, 2.712008442224217, 0};
Point(p18 + 13) = {20.88053948422281, 2.663980998987139, 0};
Point(p18 + 14) = {20.77353164528375, 2.598406510948134, 0};
Point(p18 + 15) = {20.67809936036803, 2.51689963963197, 0};
Point(p18 + 16) = {20.59659248905187, 2.42146735471625, 0};
Point(p18 + 17) = {20.53101800101286, 2.314459515777192, 0};
Point(p18 + 18) = {20.48299055777578, 2.198511010948134, 0};
Point(p18 + 19) = {20.45369275438707, 2.076476877228991, 0};
Point(p18 + 20) = {20.443846, 1.951362, 0};
Point(p18 + 21) = {20.45369275438707, 1.826247122771009, 0};
Point(p18 + 22) = {20.48299055777578, 1.704212989051866, 0};
Point(p18 + 23) = {20.53101800101286, 1.588264484222809, 0};
Point(p18 + 24) = {20.59659248905187, 1.481256645283751, 0};
Point(p18 + 25) = {20.67809936036803, 1.38582436036803, 0};
Point(p18 + 26) = {20.77353164528375, 1.304317489051867, 0};
Point(p18 + 27) = {20.88053948422281, 1.238743001012861, 0};
Point(p18 + 28) = {20.99648798905186, 1.190715557775783, 0};
Point(p18 + 29) = {21.11852212277101, 1.161417754387074, 0};
Point(p18 + 30) = {21.243637, 1.151571, 0};
Point(p18 + 31) = {21.36875187722899, 1.161417754387074, 0};
Point(p18 + 32) = {21.49078601094813, 1.190715557775783, 0};
Point(p18 + 33) = {21.60673451577719, 1.238743001012861, 0};
Point(p18 + 34) = {21.71374235471625, 1.304317489051866, 0};
Point(p18 + 35) = {21.80917463963197, 1.38582436036803, 0};
Point(p18 + 36) = {21.89068151094813, 1.481256645283751, 0};
Point(p18 + 37) = {21.95625599898714, 1.588264484222808, 0};
Point(p18 + 38) = {22.00428344222422, 1.704212989051866, 0};
Point(p18 + 39) = {22.03358124561293, 1.826247122771009, 0};
Spline(18) = {12, p18 + 1, p18 + 2, p18 + 3, p18 + 4, p18 + 5, p18 + 6, p18 + 7, p18 + 8, p18 + 9, p18 + 10, p18 + 11, p18 + 12, p18 + 13, p18 + 14, p18 + 15, p18 + 16, p18 + 17, p18 + 18, p18 + 19, p18 + 20, p18 + 21, p18 + 22, p18 + 23, p18 + 24, p18 + 25, p18 + 26, p18 + 27, p18 + 28, p18 + 29, p18 + 30, p18 + 31, p18 + 32, p18 + 33, p18 + 34, p18 + 35, p18 + 36, p18 + 37, p18 + 38, p18 + 39, 12};
Line(19) = {14, 13};
Line(20) = {13, 15};
Line(21) = {16, 15};
Line(22) = {14, 16};
Line(23) = {14, 17};
Line(24) = {17, 18};
Line(25) = {13, 18};
Line(26) = {15, 19};
Line(27) = {18, 19};
Line(28) = {16, 20};
Line(29) = {20, 19};
Line(30) = {17, 20};
Curve Loop(7) = {-13, -14, 15, 14};
Surface(7) = {7};
Curve Loop(8) = {13};
Plane Surface(8) = {8};
Curve Loop(9) = {15};
Plane Surface(9) = {9};
Curve Loop(10) = {-16, -17, 18, 17};
Surface(10) = {10};
Curve Loop(11) = {16};
Plane Surface(11) = {11};
Curve Loop(12) = {18};
Plane Surface(12) = {12};
Curve Loop(13) = {-19, 22, 21, -20};
Plane Surface(13) = {13};
Curve Loop(14) = {-23, 19, 25, -24};
Plane Surface(14) = {14};
Curve Loop(15) = {-20, 25, 27, -26, -13, -16};
Plane Surface(15) = {15};
Curve Loop(16) = {-28, 21, 26, -29};
Plane Surface(16) = {16};
Curve Loop(17) = {-22, 23, 30, -28, -15, -18};
Plane Surface(17) = {17};
Curve Loop(18) = {-24, 30, 29, -27};
Plane Surface(18) = {18};
Surface Loop(1) = {13, 14, 15, 16, 17, 18, 7, 10};
Volume(1) = {1};
Surface Loop(2) = {7, 8, 9};
Volume(2) = {2};
Surface Loop(3) = {10, 11, 12};
Volume(3) = {3};
Physical Surface("WALLS") = {13, 18};
Physical Surface("LOAD") = {8, 11};
Physical Surface("BORDER") = {7, 9, 10, 12, 14, 15, 16, 17};
Physical Volume("SOLID") = {1, 2, 3};
