cl__1 = 0.123079;
cl__2 = 0.131714;
cl__3 = 2.540498;
cl__4 = 3.05044;
cl__5 = 0.515557;
cl__6 = 0.669658;
Point(9) = {22.51764, -1.949986, 0.1, cl__1};
Point(10) = {22.51764, -1.949986, 0, cl__1};
Point(11) = {28.886372, -1.485591000000001, 0.1, cl__2};
Point(12) = {28.886372, -1.485591000000001, 0, cl__2};
Point(13) = {0.825705, -4.194974, 1, cl__3};
Point(14) = {0.825705, -4.194974, 0, cl__3};
Point(15) = {0.825705, 5.574164999999999, 1, cl__4};
Point(16) = {0.825705, 5.574164999999999, 0, cl__4};
Point(17) = {35.762324, -4.194974, 0, cl__5};
Point(18) = {35.762324, -4.194974, 1, cl__5};
Point(19) = {35.762324, 5.574164999999999, 1, cl__6};
Point(20) = {35.762324, 5.574164999999999, 0, cl__6};
p13 = newp;
Point(p13 + 1) = {22.50248694503275, -1.757448181207599, 0.1};
Point(p13 + 2) = {22.45740089863439, -1.569651282510253, 0.1};
Point(p13 + 3) = {22.38349202889928, -1.391219486816063, 0.1};
Point(p13 + 4) = {22.28258021748974, -1.226546377116199, 0.1};
Point(p13 + 5) = {22.15715024810981, -1.07968675189019, 0.1};
Point(p13 + 6) = {22.0102906228838, -0.954256782510253, 0.1};
Point(p13 + 7) = {21.84561751318394, -0.853344971100723, 0.1};
Point(p13 + 8) = {21.66718571748975, -0.7794361013656044, 0.1};
Point(p13 + 9) = {21.4793888187924, -0.734350054967251, 0.1};
Point(p13 + 10) = {21.286851, -0.7191970000000001, 0.1};
Point(p13 + 11) = {21.0943131812076, -0.7343500549672513, 0.1};
Point(p13 + 12) = {20.90651628251025, -0.7794361013656042, 0.1};
Point(p13 + 13) = {20.72808448681606, -0.853344971100723, 0.1};
Point(p13 + 14) = {20.5634113771162, -0.9542567825102529, 0.1};
Point(p13 + 15) = {20.41655175189019, -1.07968675189019, 0.1};
Point(p13 + 16) = {20.29112178251025, -1.226546377116199, 0.1};
Point(p13 + 17) = {20.19020997110072, -1.391219486816063, 0.1};
Point(p13 + 18) = {20.1163011013656, -1.569651282510253, 0.1};
Point(p13 + 19) = {20.07121505496725, -1.757448181207599, 0.1};
Point(p13 + 20) = {20.056062, -1.949986, 0.1};
Point(p13 + 21) = {20.07121505496725, -2.142523818792401, 0.1};
Point(p13 + 22) = {20.1163011013656, -2.330320717489748, 0.1};
Point(p13 + 23) = {20.19020997110072, -2.508752513183937, 0.1};
Point(p13 + 24) = {20.29112178251025, -2.6734256228838, 0.1};
Point(p13 + 25) = {20.41655175189019, -2.820285248109809, 0.1};
Point(p13 + 26) = {20.5634113771162, -2.945715217489747, 0.1};
Point(p13 + 27) = {20.72808448681606, -3.046627028899277, 0.1};
Point(p13 + 28) = {20.90651628251025, -3.120535898634396, 0.1};
Point(p13 + 29) = {21.0943131812076, -3.165621945032749, 0.1};
Point(p13 + 30) = {21.286851, -3.180775, 0.1};
Point(p13 + 31) = {21.4793888187924, -3.165621945032749, 0.1};
Point(p13 + 32) = {21.66718571748974, -3.120535898634396, 0.1};
Point(p13 + 33) = {21.84561751318394, -3.046627028899277, 0.1};
Point(p13 + 34) = {22.0102906228838, -2.945715217489747, 0.1};
Point(p13 + 35) = {22.15715024810981, -2.82028524810981, 0.1};
Point(p13 + 36) = {22.28258021748974, -2.673425622883801, 0.1};
Point(p13 + 37) = {22.38349202889928, -2.508752513183937, 0.1};
Point(p13 + 38) = {22.45740089863439, -2.330320717489748, 0.1};
Point(p13 + 39) = {22.50248694503275, -2.142523818792401, 0.1};
Spline(13) = {9, p13 + 1, p13 + 2, p13 + 3, p13 + 4, p13 + 5, p13 + 6, p13 + 7, p13 + 8, p13 + 9, p13 + 10, p13 + 11, p13 + 12, p13 + 13, p13 + 14, p13 + 15, p13 + 16, p13 + 17, p13 + 18, p13 + 19, p13 + 20, p13 + 21, p13 + 22, p13 + 23, p13 + 24, p13 + 25, p13 + 26, p13 + 27, p13 + 28, p13 + 29, p13 + 30, p13 + 31, p13 + 32, p13 + 33, p13 + 34, p13 + 35, p13 + 36, p13 + 37, p13 + 38, p13 + 39, 9};
Line(14) = {10, 9};
p15 = newp;
Point(p15 + 1) = {22.50248694503275, -1.757448181207599, 0};
Point(p15 + 2) = {22.45740089863439, -1.569651282510253, 0};
Point(p15 + 3) = {22.38349202889928, -1.391219486816063, 0};
Point(p15 + 4) = {22.28258021748974, -1.226546377116199, 0};
Point(p15 + 5) = {22.15715024810981, -1.07968675189019, 0};
Point(p15 + 6) = {22.0102906228838, -0.954256782510253, 0};
Point(p15 + 7) = {21.84561751318394, -0.853344971100723, 0};
Point(p15 + 8) = {21.66718571748975, -0.7794361013656044, 0};
Point(p15 + 9) = {21.4793888187924, -0.734350054967251, 0};
Point(p15 + 10) = {21.286851, -0.7191970000000001, 0};
Point(p15 + 11) = {21.0943131812076, -0.7343500549672513, 0};
Point(p15 + 12) = {20.90651628251025, -0.7794361013656042, 0};
Point(p15 + 13) = {20.72808448681606, -0.853344971100723, 0};
Point(p15 + 14) = {20.5634113771162, -0.9542567825102529, 0};
Point(p15 + 15) = {20.41655175189019, -1.07968675189019, 0};
Point(p15 + 16) = {20.29112178251025, -1.226546377116199, 0};
Point(p15 + 17) = {20.19020997110072, -1.391219486816063, 0};
Point(p15 + 18) = {20.1163011013656, -1.569651282510253, 0};
Point(p15 + 19) = {20.07121505496725, -1.757448181207599, 0};
Point(p15 + 20) = {20.056062, -1.949986, 0};
Point(p15 + 21) = {20.07121505496725, -2.142523818792401, 0};
Point(p15 + 22) = {20.1163011013656, -2.330320717489748, 0};
Point(p15 + 23) = {20.19020997110072, -2.508752513183937, 0};
Point(p15 + 24) = {20.29112178251025, -2.6734256228838, 0};
Point(p15 + 25) = {20.41655175189019, -2.820285248109809, 0};
Point(p15 + 26) = {20.5634113771162, -2.945715217489747, 0};
Point(p15 + 27) = {20.72808448681606, -3.046627028899277, 0};
Point(p15 + 28) = {20.90651628251025, -3.120535898634396, 0};
Point(p15 + 29) = {21.0943131812076, -3.165621945032749, 0};
Point(p15 + 30) = {21.286851, -3.180775, 0};
Point(p15 + 31) = {21.4793888187924, -3.165621945032749, 0};
Point(p15 + 32) = {21.66718571748974, -3.120535898634396, 0};
Point(p15 + 33) = {21.84561751318394, -3.046627028899277, 0};
Point(p15 + 34) = {22.0102906228838, -2.945715217489747, 0};
Point(p15 + 35) = {22.15715024810981, -2.82028524810981, 0};
Point(p15 + 36) = {22.28258021748974, -2.673425622883801, 0};
Point(p15 + 37) = {22.38349202889928, -2.508752513183937, 0};
Point(p15 + 38) = {22.45740089863439, -2.330320717489748, 0};
Point(p15 + 39) = {22.50248694503275, -2.142523818792401, 0};
Spline(15) = {10, p15 + 1, p15 + 2, p15 + 3, p15 + 4, p15 + 5, p15 + 6, p15 + 7, p15 + 8, p15 + 9, p15 + 10, p15 + 11, p15 + 12, p15 + 13, p15 + 14, p15 + 15, p15 + 16, p15 + 17, p15 + 18, p15 + 19, p15 + 20, p15 + 21, p15 + 22, p15 + 23, p15 + 24, p15 + 25, p15 + 26, p15 + 27, p15 + 28, p15 + 29, p15 + 30, p15 + 31, p15 + 32, p15 + 33, p15 + 34, p15 + 35, p15 + 36, p15 + 37, p15 + 38, p15 + 39, 10};
p16 = newp;
Point(p16 + 1) = {28.87015579630816, -1.27954459584798, 0.1};
Point(p16 + 2) = {28.82190648198603, -1.078571737994993, 0.1};
Point(p16 + 3) = {28.74281211528251, -0.887621045192054, 0.1};
Point(p16 + 4) = {28.63482026200501, -0.7113943572249875, 0.1};
Point(p16 + 5) = {28.50059003998561, -0.5542309600143885, 0.1};
Point(p16 + 6) = {28.34342664277501, -0.4200007379949933, 0.1};
Point(p16 + 7) = {28.16719995480795, -0.3120088847174849, 0.1};
Point(p16 + 8) = {27.97624926200501, -0.2329145180139689, 0.1};
Point(p16 + 9) = {27.77527640415202, -0.184665203691839, 0.1};
Point(p16 + 10) = {27.56923, -0.1684490000000001, 0.1};
Point(p16 + 11) = {27.36318359584798, -0.1846652036918393, 0.1};
Point(p16 + 12) = {27.16221073799499, -0.2329145180139689, 0.1};
Point(p16 + 13) = {26.97126004519205, -0.3120088847174849, 0.1};
Point(p16 + 14) = {26.79503335722499, -0.420000737994993, 0.1};
Point(p16 + 15) = {26.63786996001439, -0.5542309600143884, 0.1};
Point(p16 + 16) = {26.50363973799499, -0.7113943572249873, 0.1};
Point(p16 + 17) = {26.39564788471749, -0.8876210451920539, 0.1};
Point(p16 + 18) = {26.31655351801397, -1.078571737994993, 0.1};
Point(p16 + 19) = {26.26830420369184, -1.27954459584798, 0.1};
Point(p16 + 20) = {26.252088, -1.485591, 0.1};
Point(p16 + 21) = {26.26830420369184, -1.69163740415202, 0.1};
Point(p16 + 22) = {26.31655351801397, -1.892610262005008, 0.1};
Point(p16 + 23) = {26.39564788471748, -2.083560954807946, 0.1};
Point(p16 + 24) = {26.50363973799499, -2.259787642775013, 0.1};
Point(p16 + 25) = {26.63786996001439, -2.416951039985612, 0.1};
Point(p16 + 26) = {26.79503335722499, -2.551181262005007, 0.1};
Point(p16 + 27) = {26.97126004519205, -2.659173115282515, 0.1};
Point(p16 + 28) = {27.16221073799499, -2.738267481986031, 0.1};
Point(p16 + 29) = {27.36318359584798, -2.786516796308161, 0.1};
Point(p16 + 30) = {27.56923, -2.802733, 0.1};
Point(p16 + 31) = {27.77527640415202, -2.786516796308161, 0.1};
Point(p16 + 32) = {27.97624926200501, -2.738267481986031, 0.1};
Point(p16 + 33) = {28.16719995480795, -2.659173115282516, 0.1};
Point(p16 + 34) = {28.34342664277501, -2.551181262005008, 0.1};
Point(p16 + 35) = {28.50059003998561, -2.416951039985612, 0.1};
Point(p16 + 36) = {28.63482026200501, -2.259787642775013, 0.1};
Point(p16 + 37) = {28.74281211528251, -2.083560954807946, 0.1};
Point(p16 + 38) = {28.82190648198603, -1.892610262005007, 0.1};
Point(p16 + 39) = {28.87015579630816, -1.69163740415202, 0.1};
Spline(16) = {11, p16 + 1, p16 + 2, p16 + 3, p16 + 4, p16 + 5, p16 + 6, p16 + 7, p16 + 8, p16 + 9, p16 + 10, p16 + 11, p16 + 12, p16 + 13, p16 + 14, p16 + 15, p16 + 16, p16 + 17, p16 + 18, p16 + 19, p16 + 20, p16 + 21, p16 + 22, p16 + 23, p16 + 24, p16 + 25, p16 + 26, p16 + 27, p16 + 28, p16 + 29, p16 + 30, p16 + 31, p16 + 32, p16 + 33, p16 + 34, p16 + 35, p16 + 36, p16 + 37, p16 + 38, p16 + 39, 11};
Line(17) = {12, 11};
p18 = newp;
Point(p18 + 1) = {28.87015579630816, -1.27954459584798, 0};
Point(p18 + 2) = {28.82190648198603, -1.078571737994993, 0};
Point(p18 + 3) = {28.74281211528251, -0.887621045192054, 0};
Point(p18 + 4) = {28.63482026200501, -0.7113943572249875, 0};
Point(p18 + 5) = {28.50059003998561, -0.5542309600143885, 0};
Point(p18 + 6) = {28.34342664277501, -0.4200007379949933, 0};
Point(p18 + 7) = {28.16719995480795, -0.3120088847174849, 0};
Point(p18 + 8) = {27.97624926200501, -0.2329145180139689, 0};
Point(p18 + 9) = {27.77527640415202, -0.184665203691839, 0};
Point(p18 + 10) = {27.56923, -0.1684490000000001, 0};
Point(p18 + 11) = {27.36318359584798, -0.1846652036918393, 0};
Point(p18 + 12) = {27.16221073799499, -0.2329145180139689, 0};
Point(p18 + 13) = {26.97126004519205, -0.3120088847174849, 0};
Point(p18 + 14) = {26.79503335722499, -0.420000737994993, 0};
Point(p18 + 15) = {26.63786996001439, -0.5542309600143884, 0};
Point(p18 + 16) = {26.50363973799499, -0.7113943572249873, 0};
Point(p18 + 17) = {26.39564788471749, -0.8876210451920539, 0};
Point(p18 + 18) = {26.31655351801397, -1.078571737994993, 0};
Point(p18 + 19) = {26.26830420369184, -1.27954459584798, 0};
Point(p18 + 20) = {26.252088, -1.485591, 0};
Point(p18 + 21) = {26.26830420369184, -1.69163740415202, 0};
Point(p18 + 22) = {26.31655351801397, -1.892610262005008, 0};
Point(p18 + 23) = {26.39564788471748, -2.083560954807946, 0};
Point(p18 + 24) = {26.50363973799499, -2.259787642775013, 0};
Point(p18 + 25) = {26.63786996001439, -2.416951039985612, 0};
Point(p18 + 26) = {26.79503335722499, -2.551181262005007, 0};
Point(p18 + 27) = {26.97126004519205, -2.659173115282515, 0};
Point(p18 + 28) = {27.16221073799499, -2.738267481986031, 0};
Point(p18 + 29) = {27.36318359584798, -2.786516796308161, 0};
Point(p18 + 30) = {27.56923, -2.802733, 0};
Point(p18 + 31) = {27.77527640415202, -2.786516796308161, 0};
Point(p18 + 32) = {27.97624926200501, -2.738267481986031, 0};
Point(p18 + 33) = {28.16719995480795, -2.659173115282516, 0};
Point(p18 + 34) = {28.34342664277501, -2.551181262005008, 0};
Point(p18 + 35) = {28.50059003998561, -2.416951039985612, 0};
Point(p18 + 36) = {28.63482026200501, -2.259787642775013, 0};
Point(p18 + 37) = {28.74281211528251, -2.083560954807946, 0};
Point(p18 + 38) = {28.82190648198603, -1.892610262005007, 0};
Point(p18 + 39) = {28.87015579630816, -1.69163740415202, 0};
Spline(18) = {12, p18 + 1, p18 + 2, p18 + 3, p18 + 4, p18 + 5, p18 + 6, p18 + 7, p18 + 8, p18 + 9, p18 + 10, p18 + 11, p18 + 12, p18 + 13, p18 + 14, p18 + 15, p18 + 16, p18 + 17, p18 + 18, p18 + 19, p18 + 20, p18 + 21, p18 + 22, p18 + 23, p18 + 24, p18 + 25, p18 + 26, p18 + 27, p18 + 28, p18 + 29, p18 + 30, p18 + 31, p18 + 32, p18 + 33, p18 + 34, p18 + 35, p18 + 36, p18 + 37, p18 + 38, p18 + 39, 12};
Line(19) = {14, 13};
Line(20) = {13, 15};
Line(21) = {16, 15};
Line(22) = {14, 16};
Line(23) = {14, 17};
Line(24) = {17, 18};
Line(25) = {13, 18};
Line(26) = {15, 19};
Line(27) = {18, 19};
Line(28) = {16, 20};
Line(29) = {20, 19};
Line(30) = {17, 20};
Curve Loop(7) = {-13, -14, 15, 14};
Surface(7) = {7};
Curve Loop(8) = {13};
Plane Surface(8) = {8};
Curve Loop(9) = {15};
Plane Surface(9) = {9};
Curve Loop(10) = {-16, -17, 18, 17};
Surface(10) = {10};
Curve Loop(11) = {16};
Plane Surface(11) = {11};
Curve Loop(12) = {18};
Plane Surface(12) = {12};
Curve Loop(13) = {-19, 22, 21, -20};
Plane Surface(13) = {13};
Curve Loop(14) = {-23, 19, 25, -24};
Plane Surface(14) = {14};
Curve Loop(15) = {-20, 25, 27, -26};
Plane Surface(15) = {15};
Curve Loop(16) = {-28, 21, 26, -29};
Plane Surface(16) = {16};
Curve Loop(17) = {-22, 23, 30, -28, -15, -18};
Plane Surface(17) = {17};
Curve Loop(18) = {-24, 30, 29, -27};
Plane Surface(18) = {18};
Surface Loop(1) = {13, 14, 15, 16, 17, 18, 7, 10, 8, 11};
Volume(1) = {1};
Surface Loop(2) = {7, 8, 9};
Volume(2) = {2};
Surface Loop(3) = {10, 11, 12};
Volume(3) = {3};
Physical Surface("WALLS") = {13, 18};
Physical Surface("LOAD") = {8, 11};
Physical Surface("BORDER") = {7, 9, 10, 12, 14, 15, 16, 17};
Physical Volume("SOLID") = {1, 2, 3};
