cl__1 = 0.14552;
cl__2 = 0.14574;
cl__3 = 2.82319;
cl__4 = 2.961214;
cl__5 = 0.6068170000000001;
cl__6 = 0.543835;
Point(9) = {25.730466, -0.3898580000000004, 0.1, cl__1};
Point(10) = {25.730466, -0.3898580000000004, 0, cl__1};
Point(11) = {28.382945, 1.988301, 0.1, cl__2};
Point(12) = {28.382945, 1.988301, 0, cl__2};
Point(13) = {0.025962, -3.5614, 1, cl__3};
Point(14) = {0.025962, -3.5614, 0, cl__3};
Point(15) = {0.025962, 4.924024999999999, 1, cl__4};
Point(16) = {0.025962, 4.924024999999999, 0, cl__4};
Point(17) = {36.806394, -3.5614, 0, cl__5};
Point(18) = {36.806394, -3.5614, 1, cl__5};
Point(19) = {36.806394, 4.924024999999999, 1, cl__6};
Point(20) = {36.806394, 4.924024999999999, 0, cl__6};
p13 = newp;
Point(p13 + 1) = {25.71255004861073, -0.1622142536045259, 0.1};
Point(p13 + 2) = {25.65924334462574, 0.05982414824841226, 0.1};
Point(p13 + 3) = {25.57185847601196, 0.270789883201988, 0.1};
Point(p13 + 4) = {25.45254714824841, 0.4654882747065116, 0.1};
Point(p13 + 5) = {25.30424720219623, 0.6391252021962264, 0.1};
Point(p13 + 6) = {25.13061027470651, 0.7874251482484123, 0.1};
Point(p13 + 7) = {24.93591188320199, 0.9067364760119612, 0.1};
Point(p13 + 8) = {24.72494614824841, 0.99412134462574, 0.1};
Point(p13 + 9) = {24.50290774639548, 1.047428048610726, 0.1};
Point(p13 + 10) = {24.275264, 1.065344, 0.1};
Point(p13 + 11) = {24.04762025360452, 1.047428048610725, 0.1};
Point(p13 + 12) = {23.82558185175159, 0.9941213446257402, 0.1};
Point(p13 + 13) = {23.61461611679801, 0.9067364760119614, 0.1};
Point(p13 + 14) = {23.41991772529349, 0.7874251482484123, 0.1};
Point(p13 + 15) = {23.24628079780377, 0.6391252021962264, 0.1};
Point(p13 + 16) = {23.09798085175159, 0.4654882747065117, 0.1};
Point(p13 + 17) = {22.97866952398804, 0.2707898832019881, 0.1};
Point(p13 + 18) = {22.89128465537426, 0.05982414824841242, 0.1};
Point(p13 + 19) = {22.83797795138927, -0.1622142536045258, 0.1};
Point(p13 + 20) = {22.820062, -0.3898579999999998, 0.1};
Point(p13 + 21) = {22.83797795138927, -0.6175017463954738, 0.1};
Point(p13 + 22) = {22.89128465537426, -0.8395401482484127, 0.1};
Point(p13 + 23) = {22.97866952398804, -1.050505883201987, 0.1};
Point(p13 + 24) = {23.09798085175159, -1.245204274706511, 0.1};
Point(p13 + 25) = {23.24628079780377, -1.418841202196226, 0.1};
Point(p13 + 26) = {23.41991772529349, -1.567141148248412, 0.1};
Point(p13 + 27) = {23.61461611679801, -1.686452476011961, 0.1};
Point(p13 + 28) = {23.82558185175159, -1.77383734462574, 0.1};
Point(p13 + 29) = {24.04762025360452, -1.827144048610726, 0.1};
Point(p13 + 30) = {24.275264, -1.84506, 0.1};
Point(p13 + 31) = {24.50290774639547, -1.827144048610726, 0.1};
Point(p13 + 32) = {24.72494614824841, -1.77383734462574, 0.1};
Point(p13 + 33) = {24.93591188320199, -1.686452476011962, 0.1};
Point(p13 + 34) = {25.13061027470651, -1.567141148248413, 0.1};
Point(p13 + 35) = {25.30424720219623, -1.418841202196227, 0.1};
Point(p13 + 36) = {25.45254714824841, -1.245204274706512, 0.1};
Point(p13 + 37) = {25.57185847601196, -1.050505883201988, 0.1};
Point(p13 + 38) = {25.65924334462574, -0.8395401482484126, 0.1};
Point(p13 + 39) = {25.71255004861073, -0.6175017463954744, 0.1};
Spline(13) = {9, p13 + 1, p13 + 2, p13 + 3, p13 + 4, p13 + 5, p13 + 6, p13 + 7, p13 + 8, p13 + 9, p13 + 10, p13 + 11, p13 + 12, p13 + 13, p13 + 14, p13 + 15, p13 + 16, p13 + 17, p13 + 18, p13 + 19, p13 + 20, p13 + 21, p13 + 22, p13 + 23, p13 + 24, p13 + 25, p13 + 26, p13 + 27, p13 + 28, p13 + 29, p13 + 30, p13 + 31, p13 + 32, p13 + 33, p13 + 34, p13 + 35, p13 + 36, p13 + 37, p13 + 38, p13 + 39, 9};
Line(14) = {10, 9};
p15 = newp;
Point(p15 + 1) = {25.71255004861073, -0.1622142536045259, 0};
Point(p15 + 2) = {25.65924334462574, 0.05982414824841226, 0};
Point(p15 + 3) = {25.57185847601196, 0.270789883201988, 0};
Point(p15 + 4) = {25.45254714824841, 0.4654882747065116, 0};
Point(p15 + 5) = {25.30424720219623, 0.6391252021962264, 0};
Point(p15 + 6) = {25.13061027470651, 0.7874251482484123, 0};
Point(p15 + 7) = {24.93591188320199, 0.9067364760119612, 0};
Point(p15 + 8) = {24.72494614824841, 0.99412134462574, 0};
Point(p15 + 9) = {24.50290774639548, 1.047428048610726, 0};
Point(p15 + 10) = {24.275264, 1.065344, 0};
Point(p15 + 11) = {24.04762025360452, 1.047428048610725, 0};
Point(p15 + 12) = {23.82558185175159, 0.9941213446257402, 0};
Point(p15 + 13) = {23.61461611679801, 0.9067364760119614, 0};
Point(p15 + 14) = {23.41991772529349, 0.7874251482484123, 0};
Point(p15 + 15) = {23.24628079780377, 0.6391252021962264, 0};
Point(p15 + 16) = {23.09798085175159, 0.4654882747065117, 0};
Point(p15 + 17) = {22.97866952398804, 0.2707898832019881, 0};
Point(p15 + 18) = {22.89128465537426, 0.05982414824841242, 0};
Point(p15 + 19) = {22.83797795138927, -0.1622142536045258, 0};
Point(p15 + 20) = {22.820062, -0.3898579999999998, 0};
Point(p15 + 21) = {22.83797795138927, -0.6175017463954738, 0};
Point(p15 + 22) = {22.89128465537426, -0.8395401482484127, 0};
Point(p15 + 23) = {22.97866952398804, -1.050505883201987, 0};
Point(p15 + 24) = {23.09798085175159, -1.245204274706511, 0};
Point(p15 + 25) = {23.24628079780377, -1.418841202196226, 0};
Point(p15 + 26) = {23.41991772529349, -1.567141148248412, 0};
Point(p15 + 27) = {23.61461611679801, -1.686452476011961, 0};
Point(p15 + 28) = {23.82558185175159, -1.77383734462574, 0};
Point(p15 + 29) = {24.04762025360452, -1.827144048610726, 0};
Point(p15 + 30) = {24.275264, -1.84506, 0};
Point(p15 + 31) = {24.50290774639547, -1.827144048610726, 0};
Point(p15 + 32) = {24.72494614824841, -1.77383734462574, 0};
Point(p15 + 33) = {24.93591188320199, -1.686452476011962, 0};
Point(p15 + 34) = {25.13061027470651, -1.567141148248413, 0};
Point(p15 + 35) = {25.30424720219623, -1.418841202196227, 0};
Point(p15 + 36) = {25.45254714824841, -1.245204274706512, 0};
Point(p15 + 37) = {25.57185847601196, -1.050505883201988, 0};
Point(p15 + 38) = {25.65924334462574, -0.8395401482484126, 0};
Point(p15 + 39) = {25.71255004861073, -0.6175017463954744, 0};
Spline(15) = {10, p15 + 1, p15 + 2, p15 + 3, p15 + 4, p15 + 5, p15 + 6, p15 + 7, p15 + 8, p15 + 9, p15 + 10, p15 + 11, p15 + 12, p15 + 13, p15 + 14, p15 + 15, p15 + 16, p15 + 17, p15 + 18, p15 + 19, p15 + 20, p15 + 21, p15 + 22, p15 + 23, p15 + 24, p15 + 25, p15 + 26, p15 + 27, p15 + 28, p15 + 29, p15 + 30, p15 + 31, p15 + 32, p15 + 33, p15 + 34, p15 + 35, p15 + 36, p15 + 37, p15 + 38, p15 + 39, 10};
p16 = newp;
Point(p16 + 1) = {28.36500195064838, 2.216289058653027, 0.1};
Point(p16 + 2) = {28.3116146200181, 2.438663294653032, 0.1};
Point(p16 + 3) = {28.2240975813717, 2.649948116291915, 0.1};
Point(p16 + 4) = {28.10460579465303, 2.844940990046807, 0.1};
Point(p16 + 5) = {27.95608154422162, 3.018840544221618, 0.1};
Point(p16 + 6) = {27.78218199004681, 3.167364794653031, 0.1};
Point(p16 + 7) = {27.58718911629191, 3.2868565813717, 0.1};
Point(p16 + 8) = {27.37590429465303, 3.374373620018106, 0.1};
Point(p16 + 9) = {27.15353005865303, 3.427760950648376, 0.1};
Point(p16 + 10) = {26.925542, 3.445704, 0.1};
Point(p16 + 11) = {26.69755394134697, 3.427760950648375, 0.1};
Point(p16 + 12) = {26.47517970534697, 3.374373620018106, 0.1};
Point(p16 + 13) = {26.26389488370809, 3.2868565813717, 0.1};
Point(p16 + 14) = {26.06890200995319, 3.167364794653031, 0.1};
Point(p16 + 15) = {25.89500245577838, 3.018840544221618, 0.1};
Point(p16 + 16) = {25.74647820534697, 2.844940990046807, 0.1};
Point(p16 + 17) = {25.6269864186283, 2.649948116291915, 0.1};
Point(p16 + 18) = {25.5394693799819, 2.438663294653032, 0.1};
Point(p16 + 19) = {25.48608204935162, 2.216289058653028, 0.1};
Point(p16 + 20) = {25.468139, 1.988301, 0.1};
Point(p16 + 21) = {25.48608204935162, 1.760312941346973, 0.1};
Point(p16 + 22) = {25.5394693799819, 1.537938705346968, 0.1};
Point(p16 + 23) = {25.6269864186283, 1.326653883708086, 0.1};
Point(p16 + 24) = {25.74647820534697, 1.131661009953193, 0.1};
Point(p16 + 25) = {25.89500245577838, 0.9577614557783822, 0.1};
Point(p16 + 26) = {26.06890200995319, 0.8092372053469687, 0.1};
Point(p16 + 27) = {26.26389488370809, 0.6897454186283003, 0.1};
Point(p16 + 28) = {26.47517970534697, 0.6022283799818944, 0.1};
Point(p16 + 29) = {26.69755394134697, 0.5488410493516247, 0.1};
Point(p16 + 30) = {26.925542, 0.5308980000000001, 0.1};
Point(p16 + 31) = {27.15353005865303, 0.5488410493516245, 0.1};
Point(p16 + 32) = {27.37590429465303, 0.6022283799818944, 0.1};
Point(p16 + 33) = {27.58718911629191, 0.6897454186283001, 0.1};
Point(p16 + 34) = {27.78218199004681, 0.8092372053469683, 0.1};
Point(p16 + 35) = {27.95608154422162, 0.957761455778382, 0.1};
Point(p16 + 36) = {28.10460579465303, 1.131661009953193, 0.1};
Point(p16 + 37) = {28.2240975813717, 1.326653883708085, 0.1};
Point(p16 + 38) = {28.3116146200181, 1.537938705346968, 0.1};
Point(p16 + 39) = {28.36500195064838, 1.760312941346972, 0.1};
Spline(16) = {11, p16 + 1, p16 + 2, p16 + 3, p16 + 4, p16 + 5, p16 + 6, p16 + 7, p16 + 8, p16 + 9, p16 + 10, p16 + 11, p16 + 12, p16 + 13, p16 + 14, p16 + 15, p16 + 16, p16 + 17, p16 + 18, p16 + 19, p16 + 20, p16 + 21, p16 + 22, p16 + 23, p16 + 24, p16 + 25, p16 + 26, p16 + 27, p16 + 28, p16 + 29, p16 + 30, p16 + 31, p16 + 32, p16 + 33, p16 + 34, p16 + 35, p16 + 36, p16 + 37, p16 + 38, p16 + 39, 11};
Line(17) = {12, 11};
p18 = newp;
Point(p18 + 1) = {28.36500195064838, 2.216289058653027, 0};
Point(p18 + 2) = {28.3116146200181, 2.438663294653032, 0};
Point(p18 + 3) = {28.2240975813717, 2.649948116291915, 0};
Point(p18 + 4) = {28.10460579465303, 2.844940990046807, 0};
Point(p18 + 5) = {27.95608154422162, 3.018840544221618, 0};
Point(p18 + 6) = {27.78218199004681, 3.167364794653031, 0};
Point(p18 + 7) = {27.58718911629191, 3.2868565813717, 0};
Point(p18 + 8) = {27.37590429465303, 3.374373620018106, 0};
Point(p18 + 9) = {27.15353005865303, 3.427760950648376, 0};
Point(p18 + 10) = {26.925542, 3.445704, 0};
Point(p18 + 11) = {26.69755394134697, 3.427760950648375, 0};
Point(p18 + 12) = {26.47517970534697, 3.374373620018106, 0};
Point(p18 + 13) = {26.26389488370809, 3.2868565813717, 0};
Point(p18 + 14) = {26.06890200995319, 3.167364794653031, 0};
Point(p18 + 15) = {25.89500245577838, 3.018840544221618, 0};
Point(p18 + 16) = {25.74647820534697, 2.844940990046807, 0};
Point(p18 + 17) = {25.6269864186283, 2.649948116291915, 0};
Point(p18 + 18) = {25.5394693799819, 2.438663294653032, 0};
Point(p18 + 19) = {25.48608204935162, 2.216289058653028, 0};
Point(p18 + 20) = {25.468139, 1.988301, 0};
Point(p18 + 21) = {25.48608204935162, 1.760312941346973, 0};
Point(p18 + 22) = {25.5394693799819, 1.537938705346968, 0};
Point(p18 + 23) = {25.6269864186283, 1.326653883708086, 0};
Point(p18 + 24) = {25.74647820534697, 1.131661009953193, 0};
Point(p18 + 25) = {25.89500245577838, 0.9577614557783822, 0};
Point(p18 + 26) = {26.06890200995319, 0.8092372053469687, 0};
Point(p18 + 27) = {26.26389488370809, 0.6897454186283003, 0};
Point(p18 + 28) = {26.47517970534697, 0.6022283799818944, 0};
Point(p18 + 29) = {26.69755394134697, 0.5488410493516247, 0};
Point(p18 + 30) = {26.925542, 0.5308980000000001, 0};
Point(p18 + 31) = {27.15353005865303, 0.5488410493516245, 0};
Point(p18 + 32) = {27.37590429465303, 0.6022283799818944, 0};
Point(p18 + 33) = {27.58718911629191, 0.6897454186283001, 0};
Point(p18 + 34) = {27.78218199004681, 0.8092372053469683, 0};
Point(p18 + 35) = {27.95608154422162, 0.957761455778382, 0};
Point(p18 + 36) = {28.10460579465303, 1.131661009953193, 0};
Point(p18 + 37) = {28.2240975813717, 1.326653883708085, 0};
Point(p18 + 38) = {28.3116146200181, 1.537938705346968, 0};
Point(p18 + 39) = {28.36500195064838, 1.760312941346972, 0};
Spline(18) = {12, p18 + 1, p18 + 2, p18 + 3, p18 + 4, p18 + 5, p18 + 6, p18 + 7, p18 + 8, p18 + 9, p18 + 10, p18 + 11, p18 + 12, p18 + 13, p18 + 14, p18 + 15, p18 + 16, p18 + 17, p18 + 18, p18 + 19, p18 + 20, p18 + 21, p18 + 22, p18 + 23, p18 + 24, p18 + 25, p18 + 26, p18 + 27, p18 + 28, p18 + 29, p18 + 30, p18 + 31, p18 + 32, p18 + 33, p18 + 34, p18 + 35, p18 + 36, p18 + 37, p18 + 38, p18 + 39, 12};
Line(19) = {14, 13};
Line(20) = {13, 15};
Line(21) = {16, 15};
Line(22) = {14, 16};
Line(23) = {14, 17};
Line(24) = {17, 18};
Line(25) = {13, 18};
Line(26) = {15, 19};
Line(27) = {18, 19};
Line(28) = {16, 20};
Line(29) = {20, 19};
Line(30) = {17, 20};
Curve Loop(7) = {-13, -14, 15, 14};
Surface(7) = {7};
Curve Loop(8) = {13};
Plane Surface(8) = {8};
Curve Loop(9) = {15};
Plane Surface(9) = {9};
Curve Loop(10) = {-16, -17, 18, 17};
Surface(10) = {10};
Curve Loop(11) = {16};
Plane Surface(11) = {11};
Curve Loop(12) = {18};
Plane Surface(12) = {12};
Curve Loop(13) = {-19, 22, 21, -20};
Plane Surface(13) = {13};
Curve Loop(14) = {-23, 19, 25, -24};
Plane Surface(14) = {14};
Curve Loop(15) = {-20, 25, 27, -26};
Plane Surface(15) = {15};
Curve Loop(16) = {-28, 21, 26, -29};
Plane Surface(16) = {16};
Curve Loop(17) = {-22, 23, 30, -28, -15, -18};
Plane Surface(17) = {17};
Curve Loop(18) = {-24, 30, 29, -27};
Plane Surface(18) = {18};
Surface Loop(1) = {13, 14, 15, 16, 17, 18, 7, 10, 8, 11};
Volume(1) = {1};
Surface Loop(2) = {7, 8, 9};
Volume(2) = {2};
Surface Loop(3) = {10, 11, 12};
Volume(3) = {3};
Physical Surface("WALLS") = {13, 18};
Physical Surface("LOAD") = {8, 11};
Physical Surface("BORDER") = {7, 9, 10, 12, 14, 15, 16, 17};
Physical Volume("SOLID") = {1, 2, 3};
