cl__1 = 0.089113;
cl__2 = 0.100047;
cl__3 = 2.718703;
cl__4 = 2.905748;
cl__5 = 0.598572;
cl__6 = 0.578759;
Point(9) = {21.132504, -0.4853520000000002, 0.1, cl__1};
Point(10) = {21.132504, -0.4853520000000002, 0, cl__1};
Point(11) = {28.177627, 0.7929949999999998, 0.1, cl__2};
Point(12) = {28.177627, 0.7929949999999998, 0, cl__2};
Point(13) = {0.258738, -3.964972, 1, cl__3};
Point(14) = {0.258738, -3.964972, 0, cl__3};
Point(15) = {0.258738, 4.986324, 1, cl__4};
Point(16) = {0.258738, 4.986324, 0, cl__4};
Point(17) = {35.187977, -3.964972, 0, cl__5};
Point(18) = {35.187977, -3.964972, 1, cl__5};
Point(19) = {35.187977, 4.986324, 1, cl__6};
Point(20) = {35.187977, 4.986324, 0, cl__6};
p13 = newp;
Point(p13 + 1) = {21.12153266170791, -0.3459479294308389, 0.1};
Point(p13 + 2) = {21.08888879759217, -0.2099764497346757, 0.1};
Point(p13 + 3) = {21.03537620792608, -0.08078563000509875, 0.1};
Point(p13 + 4) = {20.96231255026532, 0.03844342301640069, 0.1};
Point(p13 + 5) = {20.87149689434589, 0.1447748943458927, 0.1};
Point(p13 + 6) = {20.7651654230164, 0.2355905502653243, 0.1};
Point(p13 + 7) = {20.6459363699949, 0.3086542079260769, 0.1};
Point(p13 + 8) = {20.51674555026532, 0.3621667975921653, 0.1};
Point(p13 + 9) = {20.38077407056916, 0.3948106617079075, 0.1};
Point(p13 + 10) = {20.24137, 0.405782, 0.1};
Point(p13 + 11) = {20.10196592943084, 0.3948106617079074, 0.1};
Point(p13 + 12) = {19.96599444973468, 0.3621667975921654, 0.1};
Point(p13 + 13) = {19.8368036300051, 0.308654207926077, 0.1};
Point(p13 + 14) = {19.7175745769836, 0.2355905502653244, 0.1};
Point(p13 + 15) = {19.61124310565411, 0.1447748943458929, 0.1};
Point(p13 + 16) = {19.52042744973468, 0.0384434230164008, 0.1};
Point(p13 + 17) = {19.44736379207392, -0.08078563000509864, 0.1};
Point(p13 + 18) = {19.39385120240783, -0.2099764497346756, 0.1};
Point(p13 + 19) = {19.36120733829209, -0.3459479294308389, 0.1};
Point(p13 + 20) = {19.350236, -0.4853519999999999, 0.1};
Point(p13 + 21) = {19.36120733829209, -0.624756070569161, 0.1};
Point(p13 + 22) = {19.39385120240783, -0.7607275502653247, 0.1};
Point(p13 + 23) = {19.44736379207392, -0.8899183699949009, 0.1};
Point(p13 + 24) = {19.52042744973468, -1.009147423016401, 0.1};
Point(p13 + 25) = {19.61124310565411, -1.115478894345893, 0.1};
Point(p13 + 26) = {19.7175745769836, -1.206294550265324, 0.1};
Point(p13 + 27) = {19.8368036300051, -1.279358207926077, 0.1};
Point(p13 + 28) = {19.96599444973468, -1.332870797592165, 0.1};
Point(p13 + 29) = {20.10196592943084, -1.365514661707907, 0.1};
Point(p13 + 30) = {20.24137, -1.376486, 0.1};
Point(p13 + 31) = {20.38077407056916, -1.365514661707907, 0.1};
Point(p13 + 32) = {20.51674555026532, -1.332870797592165, 0.1};
Point(p13 + 33) = {20.6459363699949, -1.279358207926077, 0.1};
Point(p13 + 34) = {20.7651654230164, -1.206294550265325, 0.1};
Point(p13 + 35) = {20.87149689434589, -1.115478894345893, 0.1};
Point(p13 + 36) = {20.96231255026532, -1.009147423016401, 0.1};
Point(p13 + 37) = {21.03537620792608, -0.8899183699949014, 0.1};
Point(p13 + 38) = {21.08888879759217, -0.7607275502653246, 0.1};
Point(p13 + 39) = {21.12153266170791, -0.6247560705691613, 0.1};
Spline(13) = {9, p13 + 1, p13 + 2, p13 + 3, p13 + 4, p13 + 5, p13 + 6, p13 + 7, p13 + 8, p13 + 9, p13 + 10, p13 + 11, p13 + 12, p13 + 13, p13 + 14, p13 + 15, p13 + 16, p13 + 17, p13 + 18, p13 + 19, p13 + 20, p13 + 21, p13 + 22, p13 + 23, p13 + 24, p13 + 25, p13 + 26, p13 + 27, p13 + 28, p13 + 29, p13 + 30, p13 + 31, p13 + 32, p13 + 33, p13 + 34, p13 + 35, p13 + 36, p13 + 37, p13 + 38, p13 + 39, 9};
Line(14) = {10, 9};
p15 = newp;
Point(p15 + 1) = {21.12153266170791, -0.3459479294308389, 0};
Point(p15 + 2) = {21.08888879759217, -0.2099764497346757, 0};
Point(p15 + 3) = {21.03537620792608, -0.08078563000509875, 0};
Point(p15 + 4) = {20.96231255026532, 0.03844342301640069, 0};
Point(p15 + 5) = {20.87149689434589, 0.1447748943458927, 0};
Point(p15 + 6) = {20.7651654230164, 0.2355905502653243, 0};
Point(p15 + 7) = {20.6459363699949, 0.3086542079260769, 0};
Point(p15 + 8) = {20.51674555026532, 0.3621667975921653, 0};
Point(p15 + 9) = {20.38077407056916, 0.3948106617079075, 0};
Point(p15 + 10) = {20.24137, 0.405782, 0};
Point(p15 + 11) = {20.10196592943084, 0.3948106617079074, 0};
Point(p15 + 12) = {19.96599444973468, 0.3621667975921654, 0};
Point(p15 + 13) = {19.8368036300051, 0.308654207926077, 0};
Point(p15 + 14) = {19.7175745769836, 0.2355905502653244, 0};
Point(p15 + 15) = {19.61124310565411, 0.1447748943458929, 0};
Point(p15 + 16) = {19.52042744973468, 0.0384434230164008, 0};
Point(p15 + 17) = {19.44736379207392, -0.08078563000509864, 0};
Point(p15 + 18) = {19.39385120240783, -0.2099764497346756, 0};
Point(p15 + 19) = {19.36120733829209, -0.3459479294308389, 0};
Point(p15 + 20) = {19.350236, -0.4853519999999999, 0};
Point(p15 + 21) = {19.36120733829209, -0.624756070569161, 0};
Point(p15 + 22) = {19.39385120240783, -0.7607275502653247, 0};
Point(p15 + 23) = {19.44736379207392, -0.8899183699949009, 0};
Point(p15 + 24) = {19.52042744973468, -1.009147423016401, 0};
Point(p15 + 25) = {19.61124310565411, -1.115478894345893, 0};
Point(p15 + 26) = {19.7175745769836, -1.206294550265324, 0};
Point(p15 + 27) = {19.8368036300051, -1.279358207926077, 0};
Point(p15 + 28) = {19.96599444973468, -1.332870797592165, 0};
Point(p15 + 29) = {20.10196592943084, -1.365514661707907, 0};
Point(p15 + 30) = {20.24137, -1.376486, 0};
Point(p15 + 31) = {20.38077407056916, -1.365514661707907, 0};
Point(p15 + 32) = {20.51674555026532, -1.332870797592165, 0};
Point(p15 + 33) = {20.6459363699949, -1.279358207926077, 0};
Point(p15 + 34) = {20.7651654230164, -1.206294550265325, 0};
Point(p15 + 35) = {20.87149689434589, -1.115478894345893, 0};
Point(p15 + 36) = {20.96231255026532, -1.009147423016401, 0};
Point(p15 + 37) = {21.03537620792608, -0.8899183699949014, 0};
Point(p15 + 38) = {21.08888879759217, -0.7607275502653246, 0};
Point(p15 + 39) = {21.12153266170791, -0.6247560705691613, 0};
Spline(15) = {10, p15 + 1, p15 + 2, p15 + 3, p15 + 4, p15 + 5, p15 + 6, p15 + 7, p15 + 8, p15 + 9, p15 + 10, p15 + 11, p15 + 12, p15 + 13, p15 + 14, p15 + 15, p15 + 16, p15 + 17, p15 + 18, p15 + 19, p15 + 20, p15 + 21, p15 + 22, p15 + 23, p15 + 24, p15 + 25, p15 + 26, p15 + 27, p15 + 28, p15 + 29, p15 + 30, p15 + 31, p15 + 32, p15 + 33, p15 + 34, p15 + 35, p15 + 36, p15 + 37, p15 + 38, p15 + 39, 10};
p16 = newp;
Point(p16 + 1) = {28.16530960336186, 0.9495023635009396, 0.1};
Point(p16 + 2) = {28.12866070863175, 1.102155996294326, 0.1};
Point(p16 + 3) = {28.06858273322864, 1.247197059312426, 0.1};
Point(p16 + 4) = {27.98655499629433, 1.381054160220041, 0.1};
Point(p16 + 5) = {27.88459729294658, 1.500431292946581, 0.1};
Point(p16 + 6) = {27.76522016022004, 1.602388996294326, 0.1};
Point(p16 + 7) = {27.63136305931243, 1.68441673322864, 0.1};
Point(p16 + 8) = {27.48632199629433, 1.744494708631747, 0.1};
Point(p16 + 9) = {27.33366836350094, 1.781143603361855, 0.1};
Point(p16 + 10) = {27.177161, 1.793461, 0.1};
Point(p16 + 11) = {27.02065363649906, 1.781143603361855, 0.1};
Point(p16 + 12) = {26.86800000370567, 1.744494708631747, 0.1};
Point(p16 + 13) = {26.72295894068758, 1.68441673322864, 0.1};
Point(p16 + 14) = {26.58910183977996, 1.602388996294326, 0.1};
Point(p16 + 15) = {26.46972470705342, 1.500431292946581, 0.1};
Point(p16 + 16) = {26.36776700370568, 1.381054160220041, 0.1};
Point(p16 + 17) = {26.28573926677136, 1.247197059312426, 0.1};
Point(p16 + 18) = {26.22566129136825, 1.102155996294326, 0.1};
Point(p16 + 19) = {26.18901239663815, 0.9495023635009398, 0.1};
Point(p16 + 20) = {26.176695, 0.7929950000000001, 0.1};
Point(p16 + 21) = {26.18901239663815, 0.6364876364990605, 0.1};
Point(p16 + 22) = {26.22566129136825, 0.4838340037056735, 0.1};
Point(p16 + 23) = {26.28573926677136, 0.338792940687575, 0.1};
Point(p16 + 24) = {26.36776700370568, 0.2049358397799587, 0.1};
Point(p16 + 25) = {26.46972470705342, 0.0855587070534195, 0.1};
Point(p16 + 26) = {26.58910183977996, -0.01639899629432617, 0.1};
Point(p16 + 27) = {26.72295894068758, -0.0984267332286396, 0.1};
Point(p16 + 28) = {26.86800000370567, -0.1585047086317471, 0.1};
Point(p16 + 29) = {27.02065363649906, -0.1951536033618551, 0.1};
Point(p16 + 30) = {27.177161, -0.2074710000000001, 0.1};
Point(p16 + 31) = {27.33366836350094, -0.1951536033618552, 0.1};
Point(p16 + 32) = {27.48632199629433, -0.1585047086317473, 0.1};
Point(p16 + 33) = {27.63136305931243, -0.09842673322863982, 0.1};
Point(p16 + 34) = {27.76522016022004, -0.0163989962943264, 0.1};
Point(p16 + 35) = {27.88459729294658, 0.08555870705341928, 0.1};
Point(p16 + 36) = {27.98655499629433, 0.2049358397799584, 0.1};
Point(p16 + 37) = {28.06858273322864, 0.3387929406875744, 0.1};
Point(p16 + 38) = {28.12866070863175, 0.4838340037056736, 0.1};
Point(p16 + 39) = {28.16530960336186, 0.6364876364990601, 0.1};
Spline(16) = {11, p16 + 1, p16 + 2, p16 + 3, p16 + 4, p16 + 5, p16 + 6, p16 + 7, p16 + 8, p16 + 9, p16 + 10, p16 + 11, p16 + 12, p16 + 13, p16 + 14, p16 + 15, p16 + 16, p16 + 17, p16 + 18, p16 + 19, p16 + 20, p16 + 21, p16 + 22, p16 + 23, p16 + 24, p16 + 25, p16 + 26, p16 + 27, p16 + 28, p16 + 29, p16 + 30, p16 + 31, p16 + 32, p16 + 33, p16 + 34, p16 + 35, p16 + 36, p16 + 37, p16 + 38, p16 + 39, 11};
Line(17) = {12, 11};
p18 = newp;
Point(p18 + 1) = {28.16530960336186, 0.9495023635009396, 0};
Point(p18 + 2) = {28.12866070863175, 1.102155996294326, 0};
Point(p18 + 3) = {28.06858273322864, 1.247197059312426, 0};
Point(p18 + 4) = {27.98655499629433, 1.381054160220041, 0};
Point(p18 + 5) = {27.88459729294658, 1.500431292946581, 0};
Point(p18 + 6) = {27.76522016022004, 1.602388996294326, 0};
Point(p18 + 7) = {27.63136305931243, 1.68441673322864, 0};
Point(p18 + 8) = {27.48632199629433, 1.744494708631747, 0};
Point(p18 + 9) = {27.33366836350094, 1.781143603361855, 0};
Point(p18 + 10) = {27.177161, 1.793461, 0};
Point(p18 + 11) = {27.02065363649906, 1.781143603361855, 0};
Point(p18 + 12) = {26.86800000370567, 1.744494708631747, 0};
Point(p18 + 13) = {26.72295894068758, 1.68441673322864, 0};
Point(p18 + 14) = {26.58910183977996, 1.602388996294326, 0};
Point(p18 + 15) = {26.46972470705342, 1.500431292946581, 0};
Point(p18 + 16) = {26.36776700370568, 1.381054160220041, 0};
Point(p18 + 17) = {26.28573926677136, 1.247197059312426, 0};
Point(p18 + 18) = {26.22566129136825, 1.102155996294326, 0};
Point(p18 + 19) = {26.18901239663815, 0.9495023635009398, 0};
Point(p18 + 20) = {26.176695, 0.7929950000000001, 0};
Point(p18 + 21) = {26.18901239663815, 0.6364876364990605, 0};
Point(p18 + 22) = {26.22566129136825, 0.4838340037056735, 0};
Point(p18 + 23) = {26.28573926677136, 0.338792940687575, 0};
Point(p18 + 24) = {26.36776700370568, 0.2049358397799587, 0};
Point(p18 + 25) = {26.46972470705342, 0.0855587070534195, 0};
Point(p18 + 26) = {26.58910183977996, -0.01639899629432617, 0};
Point(p18 + 27) = {26.72295894068758, -0.0984267332286396, 0};
Point(p18 + 28) = {26.86800000370567, -0.1585047086317471, 0};
Point(p18 + 29) = {27.02065363649906, -0.1951536033618551, 0};
Point(p18 + 30) = {27.177161, -0.2074710000000001, 0};
Point(p18 + 31) = {27.33366836350094, -0.1951536033618552, 0};
Point(p18 + 32) = {27.48632199629433, -0.1585047086317473, 0};
Point(p18 + 33) = {27.63136305931243, -0.09842673322863982, 0};
Point(p18 + 34) = {27.76522016022004, -0.0163989962943264, 0};
Point(p18 + 35) = {27.88459729294658, 0.08555870705341928, 0};
Point(p18 + 36) = {27.98655499629433, 0.2049358397799584, 0};
Point(p18 + 37) = {28.06858273322864, 0.3387929406875744, 0};
Point(p18 + 38) = {28.12866070863175, 0.4838340037056736, 0};
Point(p18 + 39) = {28.16530960336186, 0.6364876364990601, 0};
Spline(18) = {12, p18 + 1, p18 + 2, p18 + 3, p18 + 4, p18 + 5, p18 + 6, p18 + 7, p18 + 8, p18 + 9, p18 + 10, p18 + 11, p18 + 12, p18 + 13, p18 + 14, p18 + 15, p18 + 16, p18 + 17, p18 + 18, p18 + 19, p18 + 20, p18 + 21, p18 + 22, p18 + 23, p18 + 24, p18 + 25, p18 + 26, p18 + 27, p18 + 28, p18 + 29, p18 + 30, p18 + 31, p18 + 32, p18 + 33, p18 + 34, p18 + 35, p18 + 36, p18 + 37, p18 + 38, p18 + 39, 12};
Line(19) = {14, 13};
Line(20) = {13, 15};
Line(21) = {16, 15};
Line(22) = {14, 16};
Line(23) = {14, 17};
Line(24) = {17, 18};
Line(25) = {13, 18};
Line(26) = {15, 19};
Line(27) = {18, 19};
Line(28) = {16, 20};
Line(29) = {20, 19};
Line(30) = {17, 20};
Curve Loop(7) = {-13, -14, 15, 14};
Surface(7) = {7};
Curve Loop(8) = {13};
Plane Surface(8) = {8};
Curve Loop(9) = {15};
Plane Surface(9) = {9};
Curve Loop(10) = {-16, -17, 18, 17};
Surface(10) = {10};
Curve Loop(11) = {16};
Plane Surface(11) = {11};
Curve Loop(12) = {18};
Plane Surface(12) = {12};
Curve Loop(13) = {-19, 22, 21, -20};
Plane Surface(13) = {13};
Curve Loop(14) = {-23, 19, 25, -24};
Plane Surface(14) = {14};
Curve Loop(15) = {-20, 25, 27, -26};
Plane Surface(15) = {15};
Curve Loop(16) = {-28, 21, 26, -29};
Plane Surface(16) = {16};
Curve Loop(17) = {-22, 23, 30, -28, -15, -18};
Plane Surface(17) = {17};
Curve Loop(18) = {-24, 30, 29, -27};
Plane Surface(18) = {18};
Surface Loop(1) = {13, 14, 15, 16, 17, 18, 7, 10, 8, 11};
Volume(1) = {1};
Surface Loop(2) = {7, 8, 9};
Volume(2) = {2};
Surface Loop(3) = {10, 11, 12};
Volume(3) = {3};
Physical Surface("WALLS") = {13, 18};
Physical Surface("LOAD") = {8, 11};
Physical Surface("BORDER") = {7, 9, 10, 12, 14, 15, 16, 17};
Physical Volume("SOLID") = {1, 2, 3};
