cl__1 = 0.109555;
cl__2 = 0.121435;
cl__3 = 2.42153;
cl__4 = 2.524702;
cl__5 = 0.666861;
cl__6 = 0.628617;
Point(9) = {23.478384, 0.3240929999999997, 0.1, cl__1};
Point(10) = {23.478384, 0.3240929999999997, 0, cl__1};
Point(11) = {26.703182, 1.678789, 0.1, cl__2};
Point(12) = {26.703182, 1.678789, 0, cl__2};
Point(13) = {0.805388, -3.878924, 0.1, cl__3};
Point(14) = {0.805388, -3.878924, 0, cl__3};
Point(15) = {0.805388, 5.856923, 0.1, cl__4};
Point(16) = {0.805388, 5.856923, 0, cl__4};
Point(17) = {35.655973, -3.878924, 0, cl__5};
Point(18) = {35.655973, -3.878924, 0.1, cl__5};
Point(19) = {35.655973, 5.856923, 0.1, cl__6};
Point(20) = {35.655973, 5.856923, 0, cl__6};
p13 = newp;
Point(p13 + 1) = {23.46489597385066, 0.4954746217403599, 0.1};
Point(p13 + 2) = {23.42476401537064, 0.6626362591704793, 0.1};
Point(p13 + 3) = {23.35897630656804, 0.8214618379991607, 0.1};
Point(p13 + 4) = {23.26915275917048, 0.9680405453637668, 0.1};
Point(p13 + 5) = {23.15750512702214, 1.098763127022141, 0.1};
Point(p13 + 6) = {23.02678254536377, 1.210410759170479, 0.1};
Point(p13 + 7) = {22.88020383799916, 1.300234306568042, 0.1};
Point(p13 + 8) = {22.72137825917048, 1.366022015370639, 0.1};
Point(p13 + 9) = {22.55421662174036, 1.406153973850663, 0.1};
Point(p13 + 10) = {22.382835, 1.419642, 0.1};
Point(p13 + 11) = {22.21145337825964, 1.406153973850663, 0.1};
Point(p13 + 12) = {22.04429174082952, 1.366022015370639, 0.1};
Point(p13 + 13) = {21.88546616200084, 1.300234306568042, 0.1};
Point(p13 + 14) = {21.73888745463623, 1.210410759170479, 0.1};
Point(p13 + 15) = {21.60816487297786, 1.098763127022141, 0.1};
Point(p13 + 16) = {21.49651724082952, 0.9680405453637668, 0.1};
Point(p13 + 17) = {21.40669369343196, 0.8214618379991609, 0.1};
Point(p13 + 18) = {21.34090598462936, 0.6626362591704794, 0.1};
Point(p13 + 19) = {21.30077402614934, 0.4954746217403601, 0.1};
Point(p13 + 20) = {21.287286, 0.3240930000000001, 0.1};
Point(p13 + 21) = {21.30077402614934, 0.1527113782596402, 0.1};
Point(p13 + 22) = {21.34090598462936, -0.0144502591704796, 0.1};
Point(p13 + 23) = {21.40669369343196, -0.1732758379991602, 0.1};
Point(p13 + 24) = {21.49651724082952, -0.3198545453637666, 0.1};
Point(p13 + 25) = {21.60816487297786, -0.450577127022141, 0.1};
Point(p13 + 26) = {21.73888745463623, -0.5622247591704792, 0.1};
Point(p13 + 27) = {21.88546616200084, -0.6520483065680422, 0.1};
Point(p13 + 28) = {22.04429174082952, -0.7178360153706393, 0.1};
Point(p13 + 29) = {22.21145337825964, -0.7579679738506626, 0.1};
Point(p13 + 30) = {22.382835, -0.7714560000000001, 0.1};
Point(p13 + 31) = {22.55421662174036, -0.7579679738506628, 0.1};
Point(p13 + 32) = {22.72137825917048, -0.7178360153706393, 0.1};
Point(p13 + 33) = {22.88020383799916, -0.6520483065680425, 0.1};
Point(p13 + 34) = {23.02678254536377, -0.5622247591704794, 0.1};
Point(p13 + 35) = {23.15750512702214, -0.4505771270221412, 0.1};
Point(p13 + 36) = {23.26915275917048, -0.3198545453637668, 0.1};
Point(p13 + 37) = {23.35897630656804, -0.173275837999161, 0.1};
Point(p13 + 38) = {23.42476401537064, -0.01445025917047948, 0.1};
Point(p13 + 39) = {23.46489597385066, 0.1527113782596398, 0.1};
Spline(13) = {9, p13 + 1, p13 + 2, p13 + 3, p13 + 4, p13 + 5, p13 + 6, p13 + 7, p13 + 8, p13 + 9, p13 + 10, p13 + 11, p13 + 12, p13 + 13, p13 + 14, p13 + 15, p13 + 16, p13 + 17, p13 + 18, p13 + 19, p13 + 20, p13 + 21, p13 + 22, p13 + 23, p13 + 24, p13 + 25, p13 + 26, p13 + 27, p13 + 28, p13 + 29, p13 + 30, p13 + 31, p13 + 32, p13 + 33, p13 + 34, p13 + 35, p13 + 36, p13 + 37, p13 + 38, p13 + 39, 9};
Line(14) = {10, 9};
p15 = newp;
Point(p15 + 1) = {23.46489597385066, 0.4954746217403599, 0};
Point(p15 + 2) = {23.42476401537064, 0.6626362591704793, 0};
Point(p15 + 3) = {23.35897630656804, 0.8214618379991607, 0};
Point(p15 + 4) = {23.26915275917048, 0.9680405453637668, 0};
Point(p15 + 5) = {23.15750512702214, 1.098763127022141, 0};
Point(p15 + 6) = {23.02678254536377, 1.210410759170479, 0};
Point(p15 + 7) = {22.88020383799916, 1.300234306568042, 0};
Point(p15 + 8) = {22.72137825917048, 1.366022015370639, 0};
Point(p15 + 9) = {22.55421662174036, 1.406153973850663, 0};
Point(p15 + 10) = {22.382835, 1.419642, 0};
Point(p15 + 11) = {22.21145337825964, 1.406153973850663, 0};
Point(p15 + 12) = {22.04429174082952, 1.366022015370639, 0};
Point(p15 + 13) = {21.88546616200084, 1.300234306568042, 0};
Point(p15 + 14) = {21.73888745463623, 1.210410759170479, 0};
Point(p15 + 15) = {21.60816487297786, 1.098763127022141, 0};
Point(p15 + 16) = {21.49651724082952, 0.9680405453637668, 0};
Point(p15 + 17) = {21.40669369343196, 0.8214618379991609, 0};
Point(p15 + 18) = {21.34090598462936, 0.6626362591704794, 0};
Point(p15 + 19) = {21.30077402614934, 0.4954746217403601, 0};
Point(p15 + 20) = {21.287286, 0.3240930000000001, 0};
Point(p15 + 21) = {21.30077402614934, 0.1527113782596402, 0};
Point(p15 + 22) = {21.34090598462936, -0.0144502591704796, 0};
Point(p15 + 23) = {21.40669369343196, -0.1732758379991602, 0};
Point(p15 + 24) = {21.49651724082952, -0.3198545453637666, 0};
Point(p15 + 25) = {21.60816487297786, -0.450577127022141, 0};
Point(p15 + 26) = {21.73888745463623, -0.5622247591704792, 0};
Point(p15 + 27) = {21.88546616200084, -0.6520483065680422, 0};
Point(p15 + 28) = {22.04429174082952, -0.7178360153706393, 0};
Point(p15 + 29) = {22.21145337825964, -0.7579679738506626, 0};
Point(p15 + 30) = {22.382835, -0.7714560000000001, 0};
Point(p15 + 31) = {22.55421662174036, -0.7579679738506628, 0};
Point(p15 + 32) = {22.72137825917048, -0.7178360153706393, 0};
Point(p15 + 33) = {22.88020383799916, -0.6520483065680425, 0};
Point(p15 + 34) = {23.02678254536377, -0.5622247591704794, 0};
Point(p15 + 35) = {23.15750512702214, -0.4505771270221412, 0};
Point(p15 + 36) = {23.26915275917048, -0.3198545453637668, 0};
Point(p15 + 37) = {23.35897630656804, -0.173275837999161, 0};
Point(p15 + 38) = {23.42476401537064, -0.01445025917047948, 0};
Point(p15 + 39) = {23.46489597385066, 0.1527113782596398, 0};
Spline(15) = {10, p15 + 1, p15 + 2, p15 + 3, p15 + 4, p15 + 5, p15 + 6, p15 + 7, p15 + 8, p15 + 9, p15 + 10, p15 + 11, p15 + 12, p15 + 13, p15 + 14, p15 + 15, p15 + 16, p15 + 17, p15 + 18, p15 + 19, p15 + 20, p15 + 21, p15 + 22, p15 + 23, p15 + 24, p15 + 25, p15 + 26, p15 + 27, p15 + 28, p15 + 29, p15 + 30, p15 + 31, p15 + 32, p15 + 33, p15 + 34, p15 + 35, p15 + 36, p15 + 37, p15 + 38, p15 + 39, 10};
p16 = newp;
Point(p16 + 1) = {26.68823132409005, 1.86875534905607, 0.1};
Point(p16 + 2) = {26.64374743161954, 2.054044096136212, 0.1};
Point(p16 + 3) = {26.57082566365467, 2.230092817349218, 0.1};
Point(p16 + 4) = {26.47126159613621, 2.392566608906617, 0.1};
Point(p16 + 5) = {26.34750682684067, 2.537464826840665, 0.1};
Point(p16 + 6) = {26.20260860890662, 2.661219596136212, 0.1};
Point(p16 + 7) = {26.04013481734922, 2.760783663654669, 0.1};
Point(p16 + 8) = {25.86408609613621, 2.833705431619536, 0.1};
Point(p16 + 9) = {25.67879734905607, 2.878189324090046, 0.1};
Point(p16 + 10) = {25.488831, 2.89314, 0.1};
Point(p16 + 11) = {25.29886465094393, 2.878189324090046, 0.1};
Point(p16 + 12) = {25.11357590386379, 2.833705431619536, 0.1};
Point(p16 + 13) = {24.93752718265078, 2.760783663654669, 0.1};
Point(p16 + 14) = {24.77505339109338, 2.661219596136212, 0.1};
Point(p16 + 15) = {24.63015517315934, 2.537464826840665, 0.1};
Point(p16 + 16) = {24.50640040386379, 2.392566608906617, 0.1};
Point(p16 + 17) = {24.40683633634533, 2.230092817349218, 0.1};
Point(p16 + 18) = {24.33391456838046, 2.054044096136212, 0.1};
Point(p16 + 19) = {24.28943067590995, 1.86875534905607, 0.1};
Point(p16 + 20) = {24.27448, 1.678789, 0.1};
Point(p16 + 21) = {24.28943067590995, 1.488822650943931, 0.1};
Point(p16 + 22) = {24.33391456838046, 1.303533903863788, 0.1};
Point(p16 + 23) = {24.40683633634533, 1.127485182650782, 0.1};
Point(p16 + 24) = {24.50640040386379, 0.9650113910933832, 0.1};
Point(p16 + 25) = {24.63015517315933, 0.8201131731593351, 0.1};
Point(p16 + 26) = {24.77505339109338, 0.6963584038637884, 0.1};
Point(p16 + 27) = {24.93752718265078, 0.5967943363453314, 0.1};
Point(p16 + 28) = {25.11357590386379, 0.5238725683804641, 0.1};
Point(p16 + 29) = {25.29886465094393, 0.4793886759099542, 0.1};
Point(p16 + 30) = {25.488831, 0.4644380000000001, 0.1};
Point(p16 + 31) = {25.67879734905607, 0.4793886759099539, 0.1};
Point(p16 + 32) = {25.86408609613621, 0.5238725683804639, 0.1};
Point(p16 + 33) = {26.04013481734922, 0.5967943363453312, 0.1};
Point(p16 + 34) = {26.20260860890662, 0.6963584038637882, 0.1};
Point(p16 + 35) = {26.34750682684066, 0.8201131731593347, 0.1};
Point(p16 + 36) = {26.47126159613621, 0.965011391093383, 0.1};
Point(p16 + 37) = {26.57082566365467, 1.127485182650781, 0.1};
Point(p16 + 38) = {26.64374743161954, 1.303533903863788, 0.1};
Point(p16 + 39) = {26.68823132409005, 1.48882265094393, 0.1};
Spline(16) = {11, p16 + 1, p16 + 2, p16 + 3, p16 + 4, p16 + 5, p16 + 6, p16 + 7, p16 + 8, p16 + 9, p16 + 10, p16 + 11, p16 + 12, p16 + 13, p16 + 14, p16 + 15, p16 + 16, p16 + 17, p16 + 18, p16 + 19, p16 + 20, p16 + 21, p16 + 22, p16 + 23, p16 + 24, p16 + 25, p16 + 26, p16 + 27, p16 + 28, p16 + 29, p16 + 30, p16 + 31, p16 + 32, p16 + 33, p16 + 34, p16 + 35, p16 + 36, p16 + 37, p16 + 38, p16 + 39, 11};
Line(17) = {12, 11};
p18 = newp;
Point(p18 + 1) = {26.68823132409005, 1.86875534905607, 0};
Point(p18 + 2) = {26.64374743161954, 2.054044096136212, 0};
Point(p18 + 3) = {26.57082566365467, 2.230092817349218, 0};
Point(p18 + 4) = {26.47126159613621, 2.392566608906617, 0};
Point(p18 + 5) = {26.34750682684067, 2.537464826840665, 0};
Point(p18 + 6) = {26.20260860890662, 2.661219596136212, 0};
Point(p18 + 7) = {26.04013481734922, 2.760783663654669, 0};
Point(p18 + 8) = {25.86408609613621, 2.833705431619536, 0};
Point(p18 + 9) = {25.67879734905607, 2.878189324090046, 0};
Point(p18 + 10) = {25.488831, 2.89314, 0};
Point(p18 + 11) = {25.29886465094393, 2.878189324090046, 0};
Point(p18 + 12) = {25.11357590386379, 2.833705431619536, 0};
Point(p18 + 13) = {24.93752718265078, 2.760783663654669, 0};
Point(p18 + 14) = {24.77505339109338, 2.661219596136212, 0};
Point(p18 + 15) = {24.63015517315934, 2.537464826840665, 0};
Point(p18 + 16) = {24.50640040386379, 2.392566608906617, 0};
Point(p18 + 17) = {24.40683633634533, 2.230092817349218, 0};
Point(p18 + 18) = {24.33391456838046, 2.054044096136212, 0};
Point(p18 + 19) = {24.28943067590995, 1.86875534905607, 0};
Point(p18 + 20) = {24.27448, 1.678789, 0};
Point(p18 + 21) = {24.28943067590995, 1.488822650943931, 0};
Point(p18 + 22) = {24.33391456838046, 1.303533903863788, 0};
Point(p18 + 23) = {24.40683633634533, 1.127485182650782, 0};
Point(p18 + 24) = {24.50640040386379, 0.9650113910933832, 0};
Point(p18 + 25) = {24.63015517315933, 0.8201131731593351, 0};
Point(p18 + 26) = {24.77505339109338, 0.6963584038637884, 0};
Point(p18 + 27) = {24.93752718265078, 0.5967943363453314, 0};
Point(p18 + 28) = {25.11357590386379, 0.5238725683804641, 0};
Point(p18 + 29) = {25.29886465094393, 0.4793886759099542, 0};
Point(p18 + 30) = {25.488831, 0.4644380000000001, 0};
Point(p18 + 31) = {25.67879734905607, 0.4793886759099539, 0};
Point(p18 + 32) = {25.86408609613621, 0.5238725683804639, 0};
Point(p18 + 33) = {26.04013481734922, 0.5967943363453312, 0};
Point(p18 + 34) = {26.20260860890662, 0.6963584038637882, 0};
Point(p18 + 35) = {26.34750682684066, 0.8201131731593347, 0};
Point(p18 + 36) = {26.47126159613621, 0.965011391093383, 0};
Point(p18 + 37) = {26.57082566365467, 1.127485182650781, 0};
Point(p18 + 38) = {26.64374743161954, 1.303533903863788, 0};
Point(p18 + 39) = {26.68823132409005, 1.48882265094393, 0};
Spline(18) = {12, p18 + 1, p18 + 2, p18 + 3, p18 + 4, p18 + 5, p18 + 6, p18 + 7, p18 + 8, p18 + 9, p18 + 10, p18 + 11, p18 + 12, p18 + 13, p18 + 14, p18 + 15, p18 + 16, p18 + 17, p18 + 18, p18 + 19, p18 + 20, p18 + 21, p18 + 22, p18 + 23, p18 + 24, p18 + 25, p18 + 26, p18 + 27, p18 + 28, p18 + 29, p18 + 30, p18 + 31, p18 + 32, p18 + 33, p18 + 34, p18 + 35, p18 + 36, p18 + 37, p18 + 38, p18 + 39, 12};
Line(19) = {14, 13};
Line(20) = {13, 15};
Line(21) = {16, 15};
Line(22) = {14, 16};
Line(23) = {14, 17};
Line(24) = {17, 18};
Line(25) = {13, 18};
Line(26) = {15, 19};
Line(27) = {18, 19};
Line(28) = {16, 20};
Line(29) = {20, 19};
Line(30) = {17, 20};
Curve Loop(7) = {-13, -14, 15, 14};
Surface(7) = {7};
Curve Loop(8) = {13};
Plane Surface(8) = {8};
Curve Loop(9) = {15};
Plane Surface(9) = {9};
Curve Loop(10) = {-16, -17, 18, 17};
Surface(10) = {10};
Curve Loop(11) = {16};
Plane Surface(11) = {11};
Curve Loop(12) = {18};
Plane Surface(12) = {12};
Curve Loop(13) = {-19, 22, 21, -20};
Plane Surface(13) = {13};
Curve Loop(14) = {-23, 19, 25, -24};
Plane Surface(14) = {14};
Curve Loop(15) = {-20, 25, 27, -26, -13, -16};
Plane Surface(15) = {15};
Curve Loop(16) = {-28, 21, 26, -29};
Plane Surface(16) = {16};
Curve Loop(17) = {-22, 23, 30, -28, -15, -18};
Plane Surface(17) = {17};
Curve Loop(18) = {-24, 30, 29, -27};
Plane Surface(18) = {18};
Surface Loop(1) = {13, 14, 15, 16, 17, 18, 7, 10};
Volume(1) = {1};
Surface Loop(2) = {7, 8, 9};
Volume(2) = {2};
Surface Loop(3) = {10, 11, 12};
Volume(3) = {3};
Physical Surface("WALLS") = {13, 18};
Physical Surface("LOAD") = {8, 11};
Physical Surface("BORDER") = {7, 9, 10, 12, 14, 15, 16, 17};
Physical Volume("SOLID") = {1, 2, 3};
