cl__1 = 0.06708;
cl__2 = 0.062739;
cl__3 = 1.328188;
cl__4 = 1.608416;
cl__5 = 0.8915149999999999;
cl__6 = 0.837606;
Point(9) = {11.320387, -0.3367450000000002, 0.1, cl__1};
Point(10) = {11.320387, -0.3367450000000002, 0, cl__1};
Point(11) = {23.89805, 0.9074119999999998, 0.1, cl__2};
Point(12) = {23.89805, 0.9074119999999998, 0, cl__2};
Point(13) = {0.882404, -3.890885, 0.1, cl__3};
Point(14) = {0.882404, -3.890885, 0, cl__3};
Point(15) = {0.882404, 4.797451, 0.1, cl__4};
Point(16) = {0.882404, 4.797451, 0, cl__4};
Point(17) = {30.302641, -3.890885, 0, cl__5};
Point(18) = {30.302641, -3.890885, 0.1, cl__5};
Point(19) = {30.302641, 4.797451, 0.1, cl__6};
Point(20) = {30.302641, 4.797451, 0, cl__6};
p13 = newp;
Point(p13 + 1) = {11.3121283142479, -0.2318084479820831, 0.1};
Point(p13 + 2) = {11.28755561324382, -0.1294557821392965, 0.1};
Point(p13 + 3) = {11.2472739584386, -0.03220726479371255, 0.1};
Point(p13 + 4) = {11.1922752178607, 0.05754252280829558, 0.1};
Point(p13 + 5) = {11.1239136430335, 0.1375836430334984, 0.1};
Point(p13 + 6) = {11.0438725228083, 0.2059452178607035, 0.1};
Point(p13 + 7) = {10.95412273520629, 0.2609439584386055, 0.1};
Point(p13 + 8) = {10.8568742178607, 0.3012256132438215, 0.1};
Point(p13 + 9) = {10.75452155201792, 0.3257983142478996, 0.1};
Point(p13 + 10) = {10.649585, 0.334057, 0.1};
Point(p13 + 11) = {10.54464844798208, 0.3257983142478996, 0.1};
Point(p13 + 12) = {10.4422957821393, 0.3012256132438216, 0.1};
Point(p13 + 13) = {10.34504726479371, 0.2609439584386056, 0.1};
Point(p13 + 14) = {10.25529747719171, 0.2059452178607035, 0.1};
Point(p13 + 15) = {10.1752563569665, 0.1375836430334985, 0.1};
Point(p13 + 16) = {10.1068947821393, 0.05754252280829564, 0.1};
Point(p13 + 17) = {10.0518960415614, -0.0322072647937125, 0.1};
Point(p13 + 18) = {10.01161438675618, -0.1294557821392965, 0.1};
Point(p13 + 19) = {9.9870416857521, -0.231808447982083, 0.1};
Point(p13 + 20) = {9.978783, -0.336745, 0.1};
Point(p13 + 21) = {9.9870416857521, -0.4416815520179169, 0.1};
Point(p13 + 22) = {10.01161438675618, -0.5440342178607037, 0.1};
Point(p13 + 23) = {10.05189604156139, -0.6412827352062871, 0.1};
Point(p13 + 24) = {10.1068947821393, -0.7310325228082954, 0.1};
Point(p13 + 25) = {10.1752563569665, -0.8110736430334984, 0.1};
Point(p13 + 26) = {10.2552974771917, -0.8794352178607034, 0.1};
Point(p13 + 27) = {10.34504726479371, -0.9344339584386054, 0.1};
Point(p13 + 28) = {10.4422957821393, -0.9747156132438215, 0.1};
Point(p13 + 29) = {10.54464844798208, -0.9992883142478997, 0.1};
Point(p13 + 30) = {10.649585, -1.007547, 0.1};
Point(p13 + 31) = {10.75452155201792, -0.9992883142478997, 0.1};
Point(p13 + 32) = {10.8568742178607, -0.9747156132438217, 0.1};
Point(p13 + 33) = {10.95412273520629, -0.9344339584386057, 0.1};
Point(p13 + 34) = {11.04387252280829, -0.8794352178607037, 0.1};
Point(p13 + 35) = {11.1239136430335, -0.8110736430334986, 0.1};
Point(p13 + 36) = {11.1922752178607, -0.7310325228082957, 0.1};
Point(p13 + 37) = {11.2472739584386, -0.6412827352062875, 0.1};
Point(p13 + 38) = {11.28755561324382, -0.5440342178607036, 0.1};
Point(p13 + 39) = {11.3121283142479, -0.4416815520179171, 0.1};
Spline(13) = {9, p13 + 1, p13 + 2, p13 + 3, p13 + 4, p13 + 5, p13 + 6, p13 + 7, p13 + 8, p13 + 9, p13 + 10, p13 + 11, p13 + 12, p13 + 13, p13 + 14, p13 + 15, p13 + 16, p13 + 17, p13 + 18, p13 + 19, p13 + 20, p13 + 21, p13 + 22, p13 + 23, p13 + 24, p13 + 25, p13 + 26, p13 + 27, p13 + 28, p13 + 29, p13 + 30, p13 + 31, p13 + 32, p13 + 33, p13 + 34, p13 + 35, p13 + 36, p13 + 37, p13 + 38, p13 + 39, 9};
Line(14) = {10, 9};
p15 = newp;
Point(p15 + 1) = {11.3121283142479, -0.2318084479820831, 0};
Point(p15 + 2) = {11.28755561324382, -0.1294557821392965, 0};
Point(p15 + 3) = {11.2472739584386, -0.03220726479371255, 0};
Point(p15 + 4) = {11.1922752178607, 0.05754252280829558, 0};
Point(p15 + 5) = {11.1239136430335, 0.1375836430334984, 0};
Point(p15 + 6) = {11.0438725228083, 0.2059452178607035, 0};
Point(p15 + 7) = {10.95412273520629, 0.2609439584386055, 0};
Point(p15 + 8) = {10.8568742178607, 0.3012256132438215, 0};
Point(p15 + 9) = {10.75452155201792, 0.3257983142478996, 0};
Point(p15 + 10) = {10.649585, 0.334057, 0};
Point(p15 + 11) = {10.54464844798208, 0.3257983142478996, 0};
Point(p15 + 12) = {10.4422957821393, 0.3012256132438216, 0};
Point(p15 + 13) = {10.34504726479371, 0.2609439584386056, 0};
Point(p15 + 14) = {10.25529747719171, 0.2059452178607035, 0};
Point(p15 + 15) = {10.1752563569665, 0.1375836430334985, 0};
Point(p15 + 16) = {10.1068947821393, 0.05754252280829564, 0};
Point(p15 + 17) = {10.0518960415614, -0.0322072647937125, 0};
Point(p15 + 18) = {10.01161438675618, -0.1294557821392965, 0};
Point(p15 + 19) = {9.9870416857521, -0.231808447982083, 0};
Point(p15 + 20) = {9.978783, -0.336745, 0};
Point(p15 + 21) = {9.9870416857521, -0.4416815520179169, 0};
Point(p15 + 22) = {10.01161438675618, -0.5440342178607037, 0};
Point(p15 + 23) = {10.05189604156139, -0.6412827352062871, 0};
Point(p15 + 24) = {10.1068947821393, -0.7310325228082954, 0};
Point(p15 + 25) = {10.1752563569665, -0.8110736430334984, 0};
Point(p15 + 26) = {10.2552974771917, -0.8794352178607034, 0};
Point(p15 + 27) = {10.34504726479371, -0.9344339584386054, 0};
Point(p15 + 28) = {10.4422957821393, -0.9747156132438215, 0};
Point(p15 + 29) = {10.54464844798208, -0.9992883142478997, 0};
Point(p15 + 30) = {10.649585, -1.007547, 0};
Point(p15 + 31) = {10.75452155201792, -0.9992883142478997, 0};
Point(p15 + 32) = {10.8568742178607, -0.9747156132438217, 0};
Point(p15 + 33) = {10.95412273520629, -0.9344339584386057, 0};
Point(p15 + 34) = {11.04387252280829, -0.8794352178607037, 0};
Point(p15 + 35) = {11.1239136430335, -0.8110736430334986, 0};
Point(p15 + 36) = {11.1922752178607, -0.7310325228082957, 0};
Point(p15 + 37) = {11.2472739584386, -0.6412827352062875, 0};
Point(p15 + 38) = {11.28755561324382, -0.5440342178607036, 0};
Point(p15 + 39) = {11.3121283142479, -0.4416815520179171, 0};
Spline(15) = {10, p15 + 1, p15 + 2, p15 + 3, p15 + 4, p15 + 5, p15 + 6, p15 + 7, p15 + 8, p15 + 9, p15 + 10, p15 + 11, p15 + 12, p15 + 13, p15 + 14, p15 + 15, p15 + 16, p15 + 17, p15 + 18, p15 + 19, p15 + 20, p15 + 21, p15 + 22, p15 + 23, p15 + 24, p15 + 25, p15 + 26, p15 + 27, p15 + 28, p15 + 29, p15 + 30, p15 + 31, p15 + 32, p15 + 33, p15 + 34, p15 + 35, p15 + 36, p15 + 37, p15 + 38, p15 + 39, 10};
p16 = newp;
Point(p16 + 1) = {23.89032573875934, 1.005558044759451, 0.1};
Point(p16 + 2) = {23.86734315198448, 1.101287408168876, 0.1};
Point(p16 + 3) = {23.82966814723664, 1.192242915593593, 0.1};
Point(p16 + 4) = {23.77822840816888, 1.276184940576784, 0.1};
Point(p16 + 5) = {23.71429055187575, 1.351046551875753, 0.1};
Point(p16 + 6) = {23.63942894057678, 1.414984408168876, 0.1};
Point(p16 + 7) = {23.55548691559359, 1.466424147236637, 0.1};
Point(p16 + 8) = {23.46453140816887, 1.504099151984482, 0.1};
Point(p16 + 9) = {23.36880204475945, 1.527081738759346, 0.1};
Point(p16 + 10) = {23.270656, 1.534806, 0.1};
Point(p16 + 11) = {23.17250995524055, 1.527081738759346, 0.1};
Point(p16 + 12) = {23.07678059183112, 1.504099151984482, 0.1};
Point(p16 + 13) = {22.98582508440641, 1.466424147236637, 0.1};
Point(p16 + 14) = {22.90188305942322, 1.414984408168876, 0.1};
Point(p16 + 15) = {22.82702144812425, 1.351046551875753, 0.1};
Point(p16 + 16) = {22.76308359183112, 1.276184940576784, 0.1};
Point(p16 + 17) = {22.71164385276336, 1.192242915593593, 0.1};
Point(p16 + 18) = {22.67396884801552, 1.101287408168876, 0.1};
Point(p16 + 19) = {22.65098626124065, 1.005558044759451, 0.1};
Point(p16 + 20) = {22.643262, 0.9074120000000001, 0.1};
Point(p16 + 21) = {22.65098626124065, 0.8092659552405495, 0.1};
Point(p16 + 22) = {22.67396884801552, 0.7135365918311241, 0.1};
Point(p16 + 23) = {22.71164385276336, 0.622581084406407, 0.1};
Point(p16 + 24) = {22.76308359183112, 0.5386390594232162, 0.1};
Point(p16 + 25) = {22.82702144812425, 0.4637774481242473, 0.1};
Point(p16 + 26) = {22.90188305942322, 0.3998395918311243, 0.1};
Point(p16 + 27) = {22.98582508440641, 0.3483998527633632, 0.1};
Point(p16 + 28) = {23.07678059183112, 0.3107248480155185, 0.1};
Point(p16 + 29) = {23.17250995524055, 0.2877422612406542, 0.1};
Point(p16 + 30) = {23.270656, 0.280018, 0.1};
Point(p16 + 31) = {23.36880204475945, 0.2877422612406542, 0.1};
Point(p16 + 32) = {23.46453140816887, 0.3107248480155184, 0.1};
Point(p16 + 33) = {23.55548691559359, 0.348399852763363, 0.1};
Point(p16 + 34) = {23.63942894057678, 0.3998395918311242, 0.1};
Point(p16 + 35) = {23.71429055187575, 0.4637774481242471, 0.1};
Point(p16 + 36) = {23.77822840816888, 0.538639059423216, 0.1};
Point(p16 + 37) = {23.82966814723664, 0.6225810844064066, 0.1};
Point(p16 + 38) = {23.86734315198448, 0.7135365918311241, 0.1};
Point(p16 + 39) = {23.89032573875934, 0.8092659552405492, 0.1};
Spline(16) = {11, p16 + 1, p16 + 2, p16 + 3, p16 + 4, p16 + 5, p16 + 6, p16 + 7, p16 + 8, p16 + 9, p16 + 10, p16 + 11, p16 + 12, p16 + 13, p16 + 14, p16 + 15, p16 + 16, p16 + 17, p16 + 18, p16 + 19, p16 + 20, p16 + 21, p16 + 22, p16 + 23, p16 + 24, p16 + 25, p16 + 26, p16 + 27, p16 + 28, p16 + 29, p16 + 30, p16 + 31, p16 + 32, p16 + 33, p16 + 34, p16 + 35, p16 + 36, p16 + 37, p16 + 38, p16 + 39, 11};
Line(17) = {12, 11};
p18 = newp;
Point(p18 + 1) = {23.89032573875934, 1.005558044759451, 0};
Point(p18 + 2) = {23.86734315198448, 1.101287408168876, 0};
Point(p18 + 3) = {23.82966814723664, 1.192242915593593, 0};
Point(p18 + 4) = {23.77822840816888, 1.276184940576784, 0};
Point(p18 + 5) = {23.71429055187575, 1.351046551875753, 0};
Point(p18 + 6) = {23.63942894057678, 1.414984408168876, 0};
Point(p18 + 7) = {23.55548691559359, 1.466424147236637, 0};
Point(p18 + 8) = {23.46453140816887, 1.504099151984482, 0};
Point(p18 + 9) = {23.36880204475945, 1.527081738759346, 0};
Point(p18 + 10) = {23.270656, 1.534806, 0};
Point(p18 + 11) = {23.17250995524055, 1.527081738759346, 0};
Point(p18 + 12) = {23.07678059183112, 1.504099151984482, 0};
Point(p18 + 13) = {22.98582508440641, 1.466424147236637, 0};
Point(p18 + 14) = {22.90188305942322, 1.414984408168876, 0};
Point(p18 + 15) = {22.82702144812425, 1.351046551875753, 0};
Point(p18 + 16) = {22.76308359183112, 1.276184940576784, 0};
Point(p18 + 17) = {22.71164385276336, 1.192242915593593, 0};
Point(p18 + 18) = {22.67396884801552, 1.101287408168876, 0};
Point(p18 + 19) = {22.65098626124065, 1.005558044759451, 0};
Point(p18 + 20) = {22.643262, 0.9074120000000001, 0};
Point(p18 + 21) = {22.65098626124065, 0.8092659552405495, 0};
Point(p18 + 22) = {22.67396884801552, 0.7135365918311241, 0};
Point(p18 + 23) = {22.71164385276336, 0.622581084406407, 0};
Point(p18 + 24) = {22.76308359183112, 0.5386390594232162, 0};
Point(p18 + 25) = {22.82702144812425, 0.4637774481242473, 0};
Point(p18 + 26) = {22.90188305942322, 0.3998395918311243, 0};
Point(p18 + 27) = {22.98582508440641, 0.3483998527633632, 0};
Point(p18 + 28) = {23.07678059183112, 0.3107248480155185, 0};
Point(p18 + 29) = {23.17250995524055, 0.2877422612406542, 0};
Point(p18 + 30) = {23.270656, 0.280018, 0};
Point(p18 + 31) = {23.36880204475945, 0.2877422612406542, 0};
Point(p18 + 32) = {23.46453140816887, 0.3107248480155184, 0};
Point(p18 + 33) = {23.55548691559359, 0.348399852763363, 0};
Point(p18 + 34) = {23.63942894057678, 0.3998395918311242, 0};
Point(p18 + 35) = {23.71429055187575, 0.4637774481242471, 0};
Point(p18 + 36) = {23.77822840816888, 0.538639059423216, 0};
Point(p18 + 37) = {23.82966814723664, 0.6225810844064066, 0};
Point(p18 + 38) = {23.86734315198448, 0.7135365918311241, 0};
Point(p18 + 39) = {23.89032573875934, 0.8092659552405492, 0};
Spline(18) = {12, p18 + 1, p18 + 2, p18 + 3, p18 + 4, p18 + 5, p18 + 6, p18 + 7, p18 + 8, p18 + 9, p18 + 10, p18 + 11, p18 + 12, p18 + 13, p18 + 14, p18 + 15, p18 + 16, p18 + 17, p18 + 18, p18 + 19, p18 + 20, p18 + 21, p18 + 22, p18 + 23, p18 + 24, p18 + 25, p18 + 26, p18 + 27, p18 + 28, p18 + 29, p18 + 30, p18 + 31, p18 + 32, p18 + 33, p18 + 34, p18 + 35, p18 + 36, p18 + 37, p18 + 38, p18 + 39, 12};
Line(19) = {14, 13};
Line(20) = {13, 15};
Line(21) = {16, 15};
Line(22) = {14, 16};
Line(23) = {14, 17};
Line(24) = {17, 18};
Line(25) = {13, 18};
Line(26) = {15, 19};
Line(27) = {18, 19};
Line(28) = {16, 20};
Line(29) = {20, 19};
Line(30) = {17, 20};
Curve Loop(7) = {-13, -14, 15, 14};
Surface(7) = {7};
Curve Loop(8) = {13};
Plane Surface(8) = {8};
Curve Loop(9) = {15};
Plane Surface(9) = {9};
Curve Loop(10) = {-16, -17, 18, 17};
Surface(10) = {10};
Curve Loop(11) = {16};
Plane Surface(11) = {11};
Curve Loop(12) = {18};
Plane Surface(12) = {12};
Curve Loop(13) = {-19, 22, 21, -20};
Plane Surface(13) = {13};
Curve Loop(14) = {-23, 19, 25, -24};
Plane Surface(14) = {14};
Curve Loop(15) = {-20, 25, 27, -26, -13, -16};
Plane Surface(15) = {15};
Curve Loop(16) = {-28, 21, 26, -29};
Plane Surface(16) = {16};
Curve Loop(17) = {-22, 23, 30, -28, -15, -18};
Plane Surface(17) = {17};
Curve Loop(18) = {-24, 30, 29, -27};
Plane Surface(18) = {18};
Surface Loop(1) = {13, 14, 15, 16, 17, 18, 7, 10};
Volume(1) = {1};
Surface Loop(2) = {7, 8, 9};
Volume(2) = {2};
Surface Loop(3) = {10, 11, 12};
Volume(3) = {3};
Physical Surface("WALLS") = {13, 18};
Physical Surface("LOAD") = {8, 11};
Physical Surface("BORDER") = {7, 9, 10, 12, 14, 15, 16, 17};
Physical Volume("SOLID") = {1, 2, 3};
