cl__1 = 0.06318;
cl__2 = 0.096828;
cl__3 = 3.698863;
cl__4 = 3.865439;
cl__5 = 0.534151;
cl__6 = 0.349929;
Point(9) = {27.335858, -0.3407890000000002, 0.1, cl__1};
Point(10) = {27.335858, -0.3407890000000002, 0, cl__1};
Point(11) = {29.690244, 4.169277, 0.1, cl__2};
Point(12) = {29.690244, 4.169277, 0, cl__2};
Point(13) = {0.7128989999999999, -4.296232, 1, cl__3};
Point(14) = {0.7128989999999999, -4.296232, 0, cl__3};
Point(15) = {0.7128989999999999, 5.637973000000001, 1, cl__4};
Point(16) = {0.7128989999999999, 5.637973000000001, 0, cl__4};
Point(17) = {35.33485, -4.296232, 0, cl__5};
Point(18) = {35.33485, -4.296232, 1, cl__5};
Point(19) = {35.33485, 5.637973000000001, 1, cl__6};
Point(20) = {35.33485, 5.637973000000001, 0, cl__6};
p13 = newp;
Point(p13 + 1) = {27.32807955514631, -0.2419544871599074, 0.1};
Point(p13 + 2) = {27.3049357517127, -0.1455536080388801, 0.1};
Point(p13 + 3) = {27.26699646694959, -0.05396007221705307, 0.1};
Point(p13 + 4) = {27.21519589196112, 0.03057078347212305, 0.1};
Point(p13 + 5) = {27.15080952881976, 0.1059575288197547, 0.1};
Point(p13 + 6) = {27.07542278347212, 0.1703438919611199, 0.1};
Point(p13 + 7) = {26.99089192778295, 0.2221444669495898, 0.1};
Point(p13 + 8) = {26.89929839196112, 0.2600837517126965, 0.1};
Point(p13 + 9) = {26.80289751284009, 0.283227555146305, 0.1};
Point(p13 + 10) = {26.704063, 0.291006, 0.1};
Point(p13 + 11) = {26.60522848715991, 0.2832275551463049, 0.1};
Point(p13 + 12) = {26.50882760803888, 0.2600837517126966, 0.1};
Point(p13 + 13) = {26.41723407221706, 0.2221444669495899, 0.1};
Point(p13 + 14) = {26.33270321652788, 0.1703438919611199, 0.1};
Point(p13 + 15) = {26.25731647118025, 0.1059575288197548, 0.1};
Point(p13 + 16) = {26.19293010803888, 0.03057078347212311, 0.1};
Point(p13 + 17) = {26.14112953305041, -0.05396007221705301, 0.1};
Point(p13 + 18) = {26.10319024828731, -0.14555360803888, 0.1};
Point(p13 + 19) = {26.0800464448537, -0.2419544871599073, 0.1};
Point(p13 + 20) = {26.072268, -0.340789, 0.1};
Point(p13 + 21) = {26.0800464448537, -0.4396235128400926, 0.1};
Point(p13 + 22) = {26.10319024828731, -0.5360243919611201, 0.1};
Point(p13 + 23) = {26.14112953305041, -0.6276179277829467, 0.1};
Point(p13 + 24) = {26.19293010803888, -0.712148783472123, 0.1};
Point(p13 + 25) = {26.25731647118025, -0.7875355288197547, 0.1};
Point(p13 + 26) = {26.33270321652788, -0.8519218919611199, 0.1};
Point(p13 + 27) = {26.41723407221706, -0.9037224669495898, 0.1};
Point(p13 + 28) = {26.50882760803888, -0.9416617517126965, 0.1};
Point(p13 + 29) = {26.60522848715991, -0.9648055551463049, 0.1};
Point(p13 + 30) = {26.704063, -0.972584, 0.1};
Point(p13 + 31) = {26.80289751284009, -0.9648055551463051, 0.1};
Point(p13 + 32) = {26.89929839196112, -0.9416617517126966, 0.1};
Point(p13 + 33) = {26.99089192778295, -0.90372246694959, 0.1};
Point(p13 + 34) = {27.07542278347212, -0.85192189196112, 0.1};
Point(p13 + 35) = {27.15080952881976, -0.787535528819755, 0.1};
Point(p13 + 36) = {27.21519589196112, -0.7121487834721232, 0.1};
Point(p13 + 37) = {27.26699646694959, -0.627617927782947, 0.1};
Point(p13 + 38) = {27.3049357517127, -0.5360243919611201, 0.1};
Point(p13 + 39) = {27.32807955514631, -0.4396235128400928, 0.1};
Spline(13) = {9, p13 + 1, p13 + 2, p13 + 3, p13 + 4, p13 + 5, p13 + 6, p13 + 7, p13 + 8, p13 + 9, p13 + 10, p13 + 11, p13 + 12, p13 + 13, p13 + 14, p13 + 15, p13 + 16, p13 + 17, p13 + 18, p13 + 19, p13 + 20, p13 + 21, p13 + 22, p13 + 23, p13 + 24, p13 + 25, p13 + 26, p13 + 27, p13 + 28, p13 + 29, p13 + 30, p13 + 31, p13 + 32, p13 + 33, p13 + 34, p13 + 35, p13 + 36, p13 + 37, p13 + 38, p13 + 39, 9};
Line(14) = {10, 9};
p15 = newp;
Point(p15 + 1) = {27.32807955514631, -0.2419544871599074, 0};
Point(p15 + 2) = {27.3049357517127, -0.1455536080388801, 0};
Point(p15 + 3) = {27.26699646694959, -0.05396007221705307, 0};
Point(p15 + 4) = {27.21519589196112, 0.03057078347212305, 0};
Point(p15 + 5) = {27.15080952881976, 0.1059575288197547, 0};
Point(p15 + 6) = {27.07542278347212, 0.1703438919611199, 0};
Point(p15 + 7) = {26.99089192778295, 0.2221444669495898, 0};
Point(p15 + 8) = {26.89929839196112, 0.2600837517126965, 0};
Point(p15 + 9) = {26.80289751284009, 0.283227555146305, 0};
Point(p15 + 10) = {26.704063, 0.291006, 0};
Point(p15 + 11) = {26.60522848715991, 0.2832275551463049, 0};
Point(p15 + 12) = {26.50882760803888, 0.2600837517126966, 0};
Point(p15 + 13) = {26.41723407221706, 0.2221444669495899, 0};
Point(p15 + 14) = {26.33270321652788, 0.1703438919611199, 0};
Point(p15 + 15) = {26.25731647118025, 0.1059575288197548, 0};
Point(p15 + 16) = {26.19293010803888, 0.03057078347212311, 0};
Point(p15 + 17) = {26.14112953305041, -0.05396007221705301, 0};
Point(p15 + 18) = {26.10319024828731, -0.14555360803888, 0};
Point(p15 + 19) = {26.0800464448537, -0.2419544871599073, 0};
Point(p15 + 20) = {26.072268, -0.340789, 0};
Point(p15 + 21) = {26.0800464448537, -0.4396235128400926, 0};
Point(p15 + 22) = {26.10319024828731, -0.5360243919611201, 0};
Point(p15 + 23) = {26.14112953305041, -0.6276179277829467, 0};
Point(p15 + 24) = {26.19293010803888, -0.712148783472123, 0};
Point(p15 + 25) = {26.25731647118025, -0.7875355288197547, 0};
Point(p15 + 26) = {26.33270321652788, -0.8519218919611199, 0};
Point(p15 + 27) = {26.41723407221706, -0.9037224669495898, 0};
Point(p15 + 28) = {26.50882760803888, -0.9416617517126965, 0};
Point(p15 + 29) = {26.60522848715991, -0.9648055551463049, 0};
Point(p15 + 30) = {26.704063, -0.972584, 0};
Point(p15 + 31) = {26.80289751284009, -0.9648055551463051, 0};
Point(p15 + 32) = {26.89929839196112, -0.9416617517126966, 0};
Point(p15 + 33) = {26.99089192778295, -0.90372246694959, 0};
Point(p15 + 34) = {27.07542278347212, -0.85192189196112, 0};
Point(p15 + 35) = {27.15080952881976, -0.787535528819755, 0};
Point(p15 + 36) = {27.21519589196112, -0.7121487834721232, 0};
Point(p15 + 37) = {27.26699646694959, -0.627617927782947, 0};
Point(p15 + 38) = {27.3049357517127, -0.5360243919611201, 0};
Point(p15 + 39) = {27.32807955514631, -0.4396235128400928, 0};
Spline(15) = {10, p15 + 1, p15 + 2, p15 + 3, p15 + 4, p15 + 5, p15 + 6, p15 + 7, p15 + 8, p15 + 9, p15 + 10, p15 + 11, p15 + 12, p15 + 13, p15 + 14, p15 + 15, p15 + 16, p15 + 17, p15 + 18, p15 + 19, p15 + 20, p15 + 21, p15 + 22, p15 + 23, p15 + 24, p15 + 25, p15 + 26, p15 + 27, p15 + 28, p15 + 29, p15 + 30, p15 + 31, p15 + 32, p15 + 33, p15 + 34, p15 + 35, p15 + 36, p15 + 37, p15 + 38, p15 + 39, 10};
p16 = newp;
Point(p16 + 1) = {29.6783229156781, 4.320748738071295, 0.1};
Point(p16 + 2) = {29.64285319937221, 4.468490739245397, 0.1};
Point(p16 + 3) = {29.58470823321502, 4.608865105125809, 0.1};
Point(p16 + 4) = {29.5053197392454, 4.738415352948746, 0.1};
Point(p16 + 5) = {29.40664252566019, 4.853951525660186, 0.1};
Point(p16 + 6) = {29.29110635294875, 4.952628739245396, 0.1};
Point(p16 + 7) = {29.16155610512581, 5.032017233215016, 0.1};
Point(p16 + 8) = {29.0211817392454, 5.090162199372206, 0.1};
Point(p16 + 9) = {28.87343973807129, 5.125631915678098, 0.1};
Point(p16 + 10) = {28.721968, 5.137553, 0.1};
Point(p16 + 11) = {28.57049626192871, 5.125631915678097, 0.1};
Point(p16 + 12) = {28.4227542607546, 5.090162199372206, 0.1};
Point(p16 + 13) = {28.28237989487419, 5.032017233215016, 0.1};
Point(p16 + 14) = {28.15282964705125, 4.952628739245397, 0.1};
Point(p16 + 15) = {28.03729347433982, 4.853951525660186, 0.1};
Point(p16 + 16) = {27.9386162607546, 4.738415352948747, 0.1};
Point(p16 + 17) = {27.85922776678498, 4.60886510512581, 0.1};
Point(p16 + 18) = {27.80108280062779, 4.468490739245397, 0.1};
Point(p16 + 19) = {27.7656130843219, 4.320748738071295, 0.1};
Point(p16 + 20) = {27.753692, 4.169277, 0.1};
Point(p16 + 21) = {27.7656130843219, 4.017805261928705, 0.1};
Point(p16 + 22) = {27.8010828006278, 3.870063260754603, 0.1};
Point(p16 + 23) = {27.85922776678498, 3.729688894874191, 0.1};
Point(p16 + 24) = {27.9386162607546, 3.600138647051254, 0.1};
Point(p16 + 25) = {28.03729347433982, 3.484602474339815, 0.1};
Point(p16 + 26) = {28.15282964705125, 3.385925260754604, 0.1};
Point(p16 + 27) = {28.28237989487419, 3.306536766784984, 0.1};
Point(p16 + 28) = {28.4227542607546, 3.248391800627794, 0.1};
Point(p16 + 29) = {28.57049626192871, 3.212922084321903, 0.1};
Point(p16 + 30) = {28.721968, 3.201001, 0.1};
Point(p16 + 31) = {28.87343973807129, 3.212922084321903, 0.1};
Point(p16 + 32) = {29.0211817392454, 3.248391800627794, 0.1};
Point(p16 + 33) = {29.16155610512581, 3.306536766784984, 0.1};
Point(p16 + 34) = {29.29110635294875, 3.385925260754604, 0.1};
Point(p16 + 35) = {29.40664252566019, 3.484602474339814, 0.1};
Point(p16 + 36) = {29.5053197392454, 3.600138647051253, 0.1};
Point(p16 + 37) = {29.58470823321502, 3.729688894874191, 0.1};
Point(p16 + 38) = {29.64285319937221, 3.870063260754603, 0.1};
Point(p16 + 39) = {29.6783229156781, 4.017805261928705, 0.1};
Spline(16) = {11, p16 + 1, p16 + 2, p16 + 3, p16 + 4, p16 + 5, p16 + 6, p16 + 7, p16 + 8, p16 + 9, p16 + 10, p16 + 11, p16 + 12, p16 + 13, p16 + 14, p16 + 15, p16 + 16, p16 + 17, p16 + 18, p16 + 19, p16 + 20, p16 + 21, p16 + 22, p16 + 23, p16 + 24, p16 + 25, p16 + 26, p16 + 27, p16 + 28, p16 + 29, p16 + 30, p16 + 31, p16 + 32, p16 + 33, p16 + 34, p16 + 35, p16 + 36, p16 + 37, p16 + 38, p16 + 39, 11};
Line(17) = {12, 11};
p18 = newp;
Point(p18 + 1) = {29.6783229156781, 4.320748738071295, 0};
Point(p18 + 2) = {29.64285319937221, 4.468490739245397, 0};
Point(p18 + 3) = {29.58470823321502, 4.608865105125809, 0};
Point(p18 + 4) = {29.5053197392454, 4.738415352948746, 0};
Point(p18 + 5) = {29.40664252566019, 4.853951525660186, 0};
Point(p18 + 6) = {29.29110635294875, 4.952628739245396, 0};
Point(p18 + 7) = {29.16155610512581, 5.032017233215016, 0};
Point(p18 + 8) = {29.0211817392454, 5.090162199372206, 0};
Point(p18 + 9) = {28.87343973807129, 5.125631915678098, 0};
Point(p18 + 10) = {28.721968, 5.137553, 0};
Point(p18 + 11) = {28.57049626192871, 5.125631915678097, 0};
Point(p18 + 12) = {28.4227542607546, 5.090162199372206, 0};
Point(p18 + 13) = {28.28237989487419, 5.032017233215016, 0};
Point(p18 + 14) = {28.15282964705125, 4.952628739245397, 0};
Point(p18 + 15) = {28.03729347433982, 4.853951525660186, 0};
Point(p18 + 16) = {27.9386162607546, 4.738415352948747, 0};
Point(p18 + 17) = {27.85922776678498, 4.60886510512581, 0};
Point(p18 + 18) = {27.80108280062779, 4.468490739245397, 0};
Point(p18 + 19) = {27.7656130843219, 4.320748738071295, 0};
Point(p18 + 20) = {27.753692, 4.169277, 0};
Point(p18 + 21) = {27.7656130843219, 4.017805261928705, 0};
Point(p18 + 22) = {27.8010828006278, 3.870063260754603, 0};
Point(p18 + 23) = {27.85922776678498, 3.729688894874191, 0};
Point(p18 + 24) = {27.9386162607546, 3.600138647051254, 0};
Point(p18 + 25) = {28.03729347433982, 3.484602474339815, 0};
Point(p18 + 26) = {28.15282964705125, 3.385925260754604, 0};
Point(p18 + 27) = {28.28237989487419, 3.306536766784984, 0};
Point(p18 + 28) = {28.4227542607546, 3.248391800627794, 0};
Point(p18 + 29) = {28.57049626192871, 3.212922084321903, 0};
Point(p18 + 30) = {28.721968, 3.201001, 0};
Point(p18 + 31) = {28.87343973807129, 3.212922084321903, 0};
Point(p18 + 32) = {29.0211817392454, 3.248391800627794, 0};
Point(p18 + 33) = {29.16155610512581, 3.306536766784984, 0};
Point(p18 + 34) = {29.29110635294875, 3.385925260754604, 0};
Point(p18 + 35) = {29.40664252566019, 3.484602474339814, 0};
Point(p18 + 36) = {29.5053197392454, 3.600138647051253, 0};
Point(p18 + 37) = {29.58470823321502, 3.729688894874191, 0};
Point(p18 + 38) = {29.64285319937221, 3.870063260754603, 0};
Point(p18 + 39) = {29.6783229156781, 4.017805261928705, 0};
Spline(18) = {12, p18 + 1, p18 + 2, p18 + 3, p18 + 4, p18 + 5, p18 + 6, p18 + 7, p18 + 8, p18 + 9, p18 + 10, p18 + 11, p18 + 12, p18 + 13, p18 + 14, p18 + 15, p18 + 16, p18 + 17, p18 + 18, p18 + 19, p18 + 20, p18 + 21, p18 + 22, p18 + 23, p18 + 24, p18 + 25, p18 + 26, p18 + 27, p18 + 28, p18 + 29, p18 + 30, p18 + 31, p18 + 32, p18 + 33, p18 + 34, p18 + 35, p18 + 36, p18 + 37, p18 + 38, p18 + 39, 12};
Line(19) = {14, 13};
Line(20) = {13, 15};
Line(21) = {16, 15};
Line(22) = {14, 16};
Line(23) = {14, 17};
Line(24) = {17, 18};
Line(25) = {13, 18};
Line(26) = {15, 19};
Line(27) = {18, 19};
Line(28) = {16, 20};
Line(29) = {20, 19};
Line(30) = {17, 20};
Curve Loop(7) = {-13, -14, 15, 14};
Surface(7) = {7};
Curve Loop(8) = {13};
Plane Surface(8) = {8};
Curve Loop(9) = {15};
Plane Surface(9) = {9};
Curve Loop(10) = {-16, -17, 18, 17};
Surface(10) = {10};
Curve Loop(11) = {16};
Plane Surface(11) = {11};
Curve Loop(12) = {18};
Plane Surface(12) = {12};
Curve Loop(13) = {-19, 22, 21, -20};
Plane Surface(13) = {13};
Curve Loop(14) = {-23, 19, 25, -24};
Plane Surface(14) = {14};
Curve Loop(15) = {-20, 25, 27, -26};
Plane Surface(15) = {15};
Curve Loop(16) = {-28, 21, 26, -29};
Plane Surface(16) = {16};
Curve Loop(17) = {-22, 23, 30, -28, -15, -18};
Plane Surface(17) = {17};
Curve Loop(18) = {-24, 30, 29, -27};
Plane Surface(18) = {18};
Surface Loop(1) = {13, 14, 15, 16, 17, 18, 7, 10, 8, 11};
Volume(1) = {1};
Surface Loop(2) = {7, 8, 9};
Volume(2) = {2};
Surface Loop(3) = {10, 11, 12};
Volume(3) = {3};
Physical Surface("WALLS") = {13, 18};
Physical Surface("LOAD") = {8, 11};
Physical Surface("BORDER") = {7, 9, 10, 12, 14, 15, 16, 17};
Physical Volume("SOLID") = {1, 2, 3};
