cl__1 = 0.050893;
cl__2 = 0.058948;
cl__3 = 0.681883;
cl__4 = 0.403861;
cl__5 = 2.753186;
cl__6 = 3.461423;
Point(9) = {4.471855, 2.402108, 0.1, cl__1};
Point(10) = {4.471855, 2.402108, 0, cl__1};
Point(11) = {20.336683, -1.068376, 0.1, cl__2};
Point(12) = {20.336683, -1.068376, 0, cl__2};
Point(13) = {0.472826, -3.472387, 0.1, cl__3};
Point(14) = {0.472826, -3.472387, 0, cl__3};
Point(15) = {0.472826, 4.835271000000001, 0.1, cl__4};
Point(16) = {0.472826, 4.835271000000001, 0, cl__4};
Point(17) = {33.121094, -3.472387, 0, cl__5};
Point(18) = {33.121094, -3.472387, 0.1, cl__5};
Point(19) = {33.121094, 4.835271000000001, 0.1, cl__6};
Point(20) = {33.121094, 4.835271000000001, 0, cl__6};
p13 = newp;
Point(p13 + 1) = {4.465589227179083, 2.481722192292925, 0.1};
Point(p13 + 2) = {4.446946192838093, 2.559376018947242, 0.1};
Point(p13 + 3) = {4.416384950355186, 2.633157385032447, 0.1};
Point(p13 + 4) = {4.374658018947242, 2.701249548449209, 0.1};
Point(p13 + 5) = {4.322792854149269, 2.76197585414927, 0.1};
Point(p13 + 6) = {4.262066548449209, 2.813841018947242, 0.1};
Point(p13 + 7) = {4.193974385032448, 2.855567950355186, 0.1};
Point(p13 + 8) = {4.120193018947242, 2.886129192838093, 0.1};
Point(p13 + 9) = {4.042539192292924, 2.904772227179083, 0.1};
Point(p13 + 10) = {3.962925, 2.911038, 0.1};
Point(p13 + 11) = {3.883310807707075, 2.904772227179083, 0.1};
Point(p13 + 12) = {3.805656981052758, 2.886129192838093, 0.1};
Point(p13 + 13) = {3.731875614967552, 2.855567950355186, 0.1};
Point(p13 + 14) = {3.663783451550791, 2.813841018947242, 0.1};
Point(p13 + 15) = {3.60305714585073, 2.76197585414927, 0.1};
Point(p13 + 16) = {3.551191981052758, 2.701249548449209, 0.1};
Point(p13 + 17) = {3.509465049644814, 2.633157385032448, 0.1};
Point(p13 + 18) = {3.478903807161907, 2.559376018947242, 0.1};
Point(p13 + 19) = {3.460260772820916, 2.481722192292925, 0.1};
Point(p13 + 20) = {3.453995, 2.402108, 0.1};
Point(p13 + 21) = {3.460260772820916, 2.322493807707076, 0.1};
Point(p13 + 22) = {3.478903807161907, 2.244839981052758, 0.1};
Point(p13 + 23) = {3.509465049644814, 2.171058614967553, 0.1};
Point(p13 + 24) = {3.551191981052758, 2.102966451550792, 0.1};
Point(p13 + 25) = {3.60305714585073, 2.042240145850731, 0.1};
Point(p13 + 26) = {3.663783451550791, 1.990374981052758, 0.1};
Point(p13 + 27) = {3.731875614967552, 1.948648049644814, 0.1};
Point(p13 + 28) = {3.805656981052758, 1.918086807161908, 0.1};
Point(p13 + 29) = {3.883310807707075, 1.899443772820917, 0.1};
Point(p13 + 30) = {3.962925, 1.893178, 0.1};
Point(p13 + 31) = {4.042539192292924, 1.899443772820917, 0.1};
Point(p13 + 32) = {4.120193018947242, 1.918086807161908, 0.1};
Point(p13 + 33) = {4.193974385032448, 1.948648049644814, 0.1};
Point(p13 + 34) = {4.262066548449208, 1.990374981052758, 0.1};
Point(p13 + 35) = {4.322792854149269, 2.04224014585073, 0.1};
Point(p13 + 36) = {4.374658018947242, 2.102966451550792, 0.1};
Point(p13 + 37) = {4.416384950355186, 2.171058614967552, 0.1};
Point(p13 + 38) = {4.446946192838093, 2.244839981052758, 0.1};
Point(p13 + 39) = {4.465589227179083, 2.322493807707075, 0.1};
Spline(13) = {9, p13 + 1, p13 + 2, p13 + 3, p13 + 4, p13 + 5, p13 + 6, p13 + 7, p13 + 8, p13 + 9, p13 + 10, p13 + 11, p13 + 12, p13 + 13, p13 + 14, p13 + 15, p13 + 16, p13 + 17, p13 + 18, p13 + 19, p13 + 20, p13 + 21, p13 + 22, p13 + 23, p13 + 24, p13 + 25, p13 + 26, p13 + 27, p13 + 28, p13 + 29, p13 + 30, p13 + 31, p13 + 32, p13 + 33, p13 + 34, p13 + 35, p13 + 36, p13 + 37, p13 + 38, p13 + 39, 9};
Line(14) = {10, 9};
p15 = newp;
Point(p15 + 1) = {4.465589227179083, 2.481722192292925, 0};
Point(p15 + 2) = {4.446946192838093, 2.559376018947242, 0};
Point(p15 + 3) = {4.416384950355186, 2.633157385032447, 0};
Point(p15 + 4) = {4.374658018947242, 2.701249548449209, 0};
Point(p15 + 5) = {4.322792854149269, 2.76197585414927, 0};
Point(p15 + 6) = {4.262066548449209, 2.813841018947242, 0};
Point(p15 + 7) = {4.193974385032448, 2.855567950355186, 0};
Point(p15 + 8) = {4.120193018947242, 2.886129192838093, 0};
Point(p15 + 9) = {4.042539192292924, 2.904772227179083, 0};
Point(p15 + 10) = {3.962925, 2.911038, 0};
Point(p15 + 11) = {3.883310807707075, 2.904772227179083, 0};
Point(p15 + 12) = {3.805656981052758, 2.886129192838093, 0};
Point(p15 + 13) = {3.731875614967552, 2.855567950355186, 0};
Point(p15 + 14) = {3.663783451550791, 2.813841018947242, 0};
Point(p15 + 15) = {3.60305714585073, 2.76197585414927, 0};
Point(p15 + 16) = {3.551191981052758, 2.701249548449209, 0};
Point(p15 + 17) = {3.509465049644814, 2.633157385032448, 0};
Point(p15 + 18) = {3.478903807161907, 2.559376018947242, 0};
Point(p15 + 19) = {3.460260772820916, 2.481722192292925, 0};
Point(p15 + 20) = {3.453995, 2.402108, 0};
Point(p15 + 21) = {3.460260772820916, 2.322493807707076, 0};
Point(p15 + 22) = {3.478903807161907, 2.244839981052758, 0};
Point(p15 + 23) = {3.509465049644814, 2.171058614967553, 0};
Point(p15 + 24) = {3.551191981052758, 2.102966451550792, 0};
Point(p15 + 25) = {3.60305714585073, 2.042240145850731, 0};
Point(p15 + 26) = {3.663783451550791, 1.990374981052758, 0};
Point(p15 + 27) = {3.731875614967552, 1.948648049644814, 0};
Point(p15 + 28) = {3.805656981052758, 1.918086807161908, 0};
Point(p15 + 29) = {3.883310807707075, 1.899443772820917, 0};
Point(p15 + 30) = {3.962925, 1.893178, 0};
Point(p15 + 31) = {4.042539192292924, 1.899443772820917, 0};
Point(p15 + 32) = {4.120193018947242, 1.918086807161908, 0};
Point(p15 + 33) = {4.193974385032448, 1.948648049644814, 0};
Point(p15 + 34) = {4.262066548449208, 1.990374981052758, 0};
Point(p15 + 35) = {4.322792854149269, 2.04224014585073, 0};
Point(p15 + 36) = {4.374658018947242, 2.102966451550792, 0};
Point(p15 + 37) = {4.416384950355186, 2.171058614967552, 0};
Point(p15 + 38) = {4.446946192838093, 2.244839981052758, 0};
Point(p15 + 39) = {4.465589227179083, 2.322493807707075, 0};
Spline(15) = {10, p15 + 1, p15 + 2, p15 + 3, p15 + 4, p15 + 5, p15 + 6, p15 + 7, p15 + 8, p15 + 9, p15 + 10, p15 + 11, p15 + 12, p15 + 13, p15 + 14, p15 + 15, p15 + 16, p15 + 17, p15 + 18, p15 + 19, p15 + 20, p15 + 21, p15 + 22, p15 + 23, p15 + 24, p15 + 25, p15 + 26, p15 + 27, p15 + 28, p15 + 29, p15 + 30, p15 + 31, p15 + 32, p15 + 33, p15 + 34, p15 + 35, p15 + 36, p15 + 37, p15 + 38, p15 + 39, 10};
p16 = newp;
Point(p16 + 1) = {20.32942552301402, -0.9761610115480847, 0.1};
Point(p16 + 2) = {20.30783179522567, -0.886216662155856, 0.1};
Point(p16 + 3) = {20.27243352587856, -0.800757680213532, 0.1};
Point(p16 + 4) = {20.22410233784414, -0.721888349478633, 0.1};
Point(p16 + 5) = {20.16402830537384, -0.651550694626154, 0.1};
Point(p16 + 6) = {20.09369065052137, -0.591476662155856, 0.1};
Point(p16 + 7) = {20.01482131978647, -0.543145474121441, 0.1};
Point(p16 + 8) = {19.92936233784414, -0.5077472047743329, 0.1};
Point(p16 + 9) = {19.83941798845191, -0.4861534769859782, 0.1};
Point(p16 + 10) = {19.747203, -0.478896, 0.1};
Point(p16 + 11) = {19.65498801154808, -0.4861534769859782, 0.1};
Point(p16 + 12) = {19.56504366215585, -0.5077472047743328, 0.1};
Point(p16 + 13) = {19.47958468021353, -0.5431454741214409, 0.1};
Point(p16 + 14) = {19.40071534947863, -0.591476662155856, 0.1};
Point(p16 + 15) = {19.33037769462615, -0.651550694626154, 0.1};
Point(p16 + 16) = {19.27030366215585, -0.7218883494786328, 0.1};
Point(p16 + 17) = {19.22197247412144, -0.8007576802135319, 0.1};
Point(p16 + 18) = {19.18657420477433, -0.8862166621558559, 0.1};
Point(p16 + 19) = {19.16498047698598, -0.9761610115480847, 0.1};
Point(p16 + 20) = {19.157723, -1.068376, 0.1};
Point(p16 + 21) = {19.16498047698598, -1.160590988451915, 0.1};
Point(p16 + 22) = {19.18657420477433, -1.250535337844144, 0.1};
Point(p16 + 23) = {19.22197247412144, -1.335994319786468, 0.1};
Point(p16 + 24) = {19.27030366215585, -1.414863650521367, 0.1};
Point(p16 + 25) = {19.33037769462615, -1.485201305373846, 0.1};
Point(p16 + 26) = {19.40071534947863, -1.545275337844144, 0.1};
Point(p16 + 27) = {19.47958468021353, -1.593606525878559, 0.1};
Point(p16 + 28) = {19.56504366215585, -1.629004795225667, 0.1};
Point(p16 + 29) = {19.65498801154808, -1.650598523014022, 0.1};
Point(p16 + 30) = {19.747203, -1.657856, 0.1};
Point(p16 + 31) = {19.83941798845191, -1.650598523014022, 0.1};
Point(p16 + 32) = {19.92936233784414, -1.629004795225667, 0.1};
Point(p16 + 33) = {20.01482131978647, -1.593606525878559, 0.1};
Point(p16 + 34) = {20.09369065052137, -1.545275337844144, 0.1};
Point(p16 + 35) = {20.16402830537384, -1.485201305373846, 0.1};
Point(p16 + 36) = {20.22410233784414, -1.414863650521367, 0.1};
Point(p16 + 37) = {20.27243352587856, -1.335994319786468, 0.1};
Point(p16 + 38) = {20.30783179522567, -1.250535337844144, 0.1};
Point(p16 + 39) = {20.32942552301402, -1.160590988451915, 0.1};
Spline(16) = {11, p16 + 1, p16 + 2, p16 + 3, p16 + 4, p16 + 5, p16 + 6, p16 + 7, p16 + 8, p16 + 9, p16 + 10, p16 + 11, p16 + 12, p16 + 13, p16 + 14, p16 + 15, p16 + 16, p16 + 17, p16 + 18, p16 + 19, p16 + 20, p16 + 21, p16 + 22, p16 + 23, p16 + 24, p16 + 25, p16 + 26, p16 + 27, p16 + 28, p16 + 29, p16 + 30, p16 + 31, p16 + 32, p16 + 33, p16 + 34, p16 + 35, p16 + 36, p16 + 37, p16 + 38, p16 + 39, 11};
Line(17) = {12, 11};
p18 = newp;
Point(p18 + 1) = {20.32942552301402, -0.9761610115480847, 0};
Point(p18 + 2) = {20.30783179522567, -0.886216662155856, 0};
Point(p18 + 3) = {20.27243352587856, -0.800757680213532, 0};
Point(p18 + 4) = {20.22410233784414, -0.721888349478633, 0};
Point(p18 + 5) = {20.16402830537384, -0.651550694626154, 0};
Point(p18 + 6) = {20.09369065052137, -0.591476662155856, 0};
Point(p18 + 7) = {20.01482131978647, -0.543145474121441, 0};
Point(p18 + 8) = {19.92936233784414, -0.5077472047743329, 0};
Point(p18 + 9) = {19.83941798845191, -0.4861534769859782, 0};
Point(p18 + 10) = {19.747203, -0.478896, 0};
Point(p18 + 11) = {19.65498801154808, -0.4861534769859782, 0};
Point(p18 + 12) = {19.56504366215585, -0.5077472047743328, 0};
Point(p18 + 13) = {19.47958468021353, -0.5431454741214409, 0};
Point(p18 + 14) = {19.40071534947863, -0.591476662155856, 0};
Point(p18 + 15) = {19.33037769462615, -0.651550694626154, 0};
Point(p18 + 16) = {19.27030366215585, -0.7218883494786328, 0};
Point(p18 + 17) = {19.22197247412144, -0.8007576802135319, 0};
Point(p18 + 18) = {19.18657420477433, -0.8862166621558559, 0};
Point(p18 + 19) = {19.16498047698598, -0.9761610115480847, 0};
Point(p18 + 20) = {19.157723, -1.068376, 0};
Point(p18 + 21) = {19.16498047698598, -1.160590988451915, 0};
Point(p18 + 22) = {19.18657420477433, -1.250535337844144, 0};
Point(p18 + 23) = {19.22197247412144, -1.335994319786468, 0};
Point(p18 + 24) = {19.27030366215585, -1.414863650521367, 0};
Point(p18 + 25) = {19.33037769462615, -1.485201305373846, 0};
Point(p18 + 26) = {19.40071534947863, -1.545275337844144, 0};
Point(p18 + 27) = {19.47958468021353, -1.593606525878559, 0};
Point(p18 + 28) = {19.56504366215585, -1.629004795225667, 0};
Point(p18 + 29) = {19.65498801154808, -1.650598523014022, 0};
Point(p18 + 30) = {19.747203, -1.657856, 0};
Point(p18 + 31) = {19.83941798845191, -1.650598523014022, 0};
Point(p18 + 32) = {19.92936233784414, -1.629004795225667, 0};
Point(p18 + 33) = {20.01482131978647, -1.593606525878559, 0};
Point(p18 + 34) = {20.09369065052137, -1.545275337844144, 0};
Point(p18 + 35) = {20.16402830537384, -1.485201305373846, 0};
Point(p18 + 36) = {20.22410233784414, -1.414863650521367, 0};
Point(p18 + 37) = {20.27243352587856, -1.335994319786468, 0};
Point(p18 + 38) = {20.30783179522567, -1.250535337844144, 0};
Point(p18 + 39) = {20.32942552301402, -1.160590988451915, 0};
Spline(18) = {12, p18 + 1, p18 + 2, p18 + 3, p18 + 4, p18 + 5, p18 + 6, p18 + 7, p18 + 8, p18 + 9, p18 + 10, p18 + 11, p18 + 12, p18 + 13, p18 + 14, p18 + 15, p18 + 16, p18 + 17, p18 + 18, p18 + 19, p18 + 20, p18 + 21, p18 + 22, p18 + 23, p18 + 24, p18 + 25, p18 + 26, p18 + 27, p18 + 28, p18 + 29, p18 + 30, p18 + 31, p18 + 32, p18 + 33, p18 + 34, p18 + 35, p18 + 36, p18 + 37, p18 + 38, p18 + 39, 12};
Line(19) = {14, 13};
Line(20) = {13, 15};
Line(21) = {16, 15};
Line(22) = {14, 16};
Line(23) = {14, 17};
Line(24) = {17, 18};
Line(25) = {13, 18};
Line(26) = {15, 19};
Line(27) = {18, 19};
Line(28) = {16, 20};
Line(29) = {20, 19};
Line(30) = {17, 20};
Curve Loop(7) = {-13, -14, 15, 14};
Surface(7) = {7};
Curve Loop(8) = {13};
Plane Surface(8) = {8};
Curve Loop(9) = {15};
Plane Surface(9) = {9};
Curve Loop(10) = {-16, -17, 18, 17};
Surface(10) = {10};
Curve Loop(11) = {16};
Plane Surface(11) = {11};
Curve Loop(12) = {18};
Plane Surface(12) = {12};
Curve Loop(13) = {-19, 22, 21, -20};
Plane Surface(13) = {13};
Curve Loop(14) = {-23, 19, 25, -24};
Plane Surface(14) = {14};
Curve Loop(15) = {-20, 25, 27, -26, -16, -13};
Plane Surface(15) = {15};
Curve Loop(16) = {-28, 21, 26, -29};
Plane Surface(16) = {16};
Curve Loop(17) = {-22, 23, 30, -28, -18, -15};
Plane Surface(17) = {17};
Curve Loop(18) = {-24, 30, 29, -27};
Plane Surface(18) = {18};
Surface Loop(1) = {13, 14, 15, 16, 17, 18, 10, 7};
Volume(1) = {1};
Surface Loop(2) = {7, 8, 9};
Volume(2) = {2};
Surface Loop(3) = {10, 11, 12};
Volume(3) = {3};
Physical Surface("WALLS") = {13, 18};
Physical Surface("LOAD") = {8, 11};
Physical Surface("BORDER") = {7, 9, 10, 12, 14, 15, 16, 17};
Physical Volume("SOLID") = {1, 2, 3};
