cl__1 = 0.137848;
cl__2 = 0.068287;
cl__3 = 0.646414;
cl__4 = 0.285101;
cl__5 = 3.686036;
cl__6 = 3.53789;
Point(9) = {14.710775, 1.173001, 0.1, cl__1};
Point(10) = {14.710775, 1.173001, 0, cl__1};
Point(11) = {3.514063, 3.033105, 0.1, cl__2};
Point(12) = {3.514063, 3.033105, 0, cl__2};
Point(13) = {0.094998, -4.056794, 0.1, cl__3};
Point(14) = {0.094998, -4.056794, 0, cl__3};
Point(15) = {0.094998, 5.573202999999999, 0.1, cl__4};
Point(16) = {0.094998, 5.573202999999999, 0, cl__4};
Point(17) = {30.45889, -4.056794, 0, cl__5};
Point(18) = {30.45889, -4.056794, 0.1, cl__5};
Point(19) = {30.45889, 5.573202999999999, 0.1, cl__6};
Point(20) = {30.45889, 5.573202999999999, 0, cl__6};
p13 = newp;
Point(p13 + 1) = {14.69380367299022, 1.388642155630797, 0.1};
Point(p13 + 2) = {14.64330758235648, 1.598973510338, 0.1};
Point(p13 + 3) = {14.56053010943709, 1.798816008118971, 0.1};
Point(p13 + 4) = {14.447509510338, 1.983248863439119, 0.1};
Point(p13 + 5) = {14.30702872730291, 2.147730727302907, 0.1};
Point(p13 + 6) = {14.14254686343912, 2.288211510338, 0.1};
Point(p13 + 7) = {13.95811400811897, 2.401232109437085, 0.1};
Point(p13 + 8) = {13.758271510338, 2.484009582356478, 0.1};
Point(p13 + 9) = {13.5479401556308, 2.534505672990223, 0.1};
Point(p13 + 10) = {13.332299, 2.551477, 0.1};
Point(p13 + 11) = {13.1166578443692, 2.534505672990223, 0.1};
Point(p13 + 12) = {12.906326489662, 2.484009582356478, 0.1};
Point(p13 + 13) = {12.70648399188103, 2.401232109437085, 0.1};
Point(p13 + 14) = {12.52205113656088, 2.288211510338, 0.1};
Point(p13 + 15) = {12.35756927269709, 2.147730727302907, 0.1};
Point(p13 + 16) = {12.217088489662, 1.983248863439119, 0.1};
Point(p13 + 17) = {12.10406789056292, 1.798816008118972, 0.1};
Point(p13 + 18) = {12.02129041764352, 1.598973510338, 0.1};
Point(p13 + 19) = {11.97079432700978, 1.388642155630798, 0.1};
Point(p13 + 20) = {11.953823, 1.173001, 0.1};
Point(p13 + 21) = {11.97079432700978, 0.9573598443692029, 0.1};
Point(p13 + 22) = {12.02129041764352, 0.7470284896619995, 0.1};
Point(p13 + 23) = {12.10406789056292, 0.5471859918810291, 0.1};
Point(p13 + 24) = {12.217088489662, 0.3627531365608809, 0.1};
Point(p13 + 25) = {12.35756927269709, 0.1982712726970928, 0.1};
Point(p13 + 26) = {12.52205113656088, 0.05779048966200007, 0.1};
Point(p13 + 27) = {12.70648399188103, -0.05523010943708462, 0.1};
Point(p13 + 28) = {12.906326489662, -0.1380075823564781, 0.1};
Point(p13 + 29) = {13.1166578443692, -0.188503672990223, 0.1};
Point(p13 + 30) = {13.332299, -0.2054750000000001, 0.1};
Point(p13 + 31) = {13.5479401556308, -0.1885036729902232, 0.1};
Point(p13 + 32) = {13.758271510338, -0.1380075823564784, 0.1};
Point(p13 + 33) = {13.95811400811897, -0.05523010943708484, 0.1};
Point(p13 + 34) = {14.14254686343912, 0.05779048966199962, 0.1};
Point(p13 + 35) = {14.30702872730291, 0.1982712726970924, 0.1};
Point(p13 + 36) = {14.447509510338, 0.3627531365608806, 0.1};
Point(p13 + 37) = {14.56053010943709, 0.5471859918810282, 0.1};
Point(p13 + 38) = {14.64330758235648, 0.7470284896619996, 0.1};
Point(p13 + 39) = {14.69380367299022, 0.9573598443692023, 0.1};
Spline(13) = {9, p13 + 1, p13 + 2, p13 + 3, p13 + 4, p13 + 5, p13 + 6, p13 + 7, p13 + 8, p13 + 9, p13 + 10, p13 + 11, p13 + 12, p13 + 13, p13 + 14, p13 + 15, p13 + 16, p13 + 17, p13 + 18, p13 + 19, p13 + 20, p13 + 21, p13 + 22, p13 + 23, p13 + 24, p13 + 25, p13 + 26, p13 + 27, p13 + 28, p13 + 29, p13 + 30, p13 + 31, p13 + 32, p13 + 33, p13 + 34, p13 + 35, p13 + 36, p13 + 37, p13 + 38, p13 + 39, 9};
Line(14) = {10, 9};
p15 = newp;
Point(p15 + 1) = {14.69380367299022, 1.388642155630797, 0};
Point(p15 + 2) = {14.64330758235648, 1.598973510338, 0};
Point(p15 + 3) = {14.56053010943709, 1.798816008118971, 0};
Point(p15 + 4) = {14.447509510338, 1.983248863439119, 0};
Point(p15 + 5) = {14.30702872730291, 2.147730727302907, 0};
Point(p15 + 6) = {14.14254686343912, 2.288211510338, 0};
Point(p15 + 7) = {13.95811400811897, 2.401232109437085, 0};
Point(p15 + 8) = {13.758271510338, 2.484009582356478, 0};
Point(p15 + 9) = {13.5479401556308, 2.534505672990223, 0};
Point(p15 + 10) = {13.332299, 2.551477, 0};
Point(p15 + 11) = {13.1166578443692, 2.534505672990223, 0};
Point(p15 + 12) = {12.906326489662, 2.484009582356478, 0};
Point(p15 + 13) = {12.70648399188103, 2.401232109437085, 0};
Point(p15 + 14) = {12.52205113656088, 2.288211510338, 0};
Point(p15 + 15) = {12.35756927269709, 2.147730727302907, 0};
Point(p15 + 16) = {12.217088489662, 1.983248863439119, 0};
Point(p15 + 17) = {12.10406789056292, 1.798816008118972, 0};
Point(p15 + 18) = {12.02129041764352, 1.598973510338, 0};
Point(p15 + 19) = {11.97079432700978, 1.388642155630798, 0};
Point(p15 + 20) = {11.953823, 1.173001, 0};
Point(p15 + 21) = {11.97079432700978, 0.9573598443692029, 0};
Point(p15 + 22) = {12.02129041764352, 0.7470284896619995, 0};
Point(p15 + 23) = {12.10406789056292, 0.5471859918810291, 0};
Point(p15 + 24) = {12.217088489662, 0.3627531365608809, 0};
Point(p15 + 25) = {12.35756927269709, 0.1982712726970928, 0};
Point(p15 + 26) = {12.52205113656088, 0.05779048966200007, 0};
Point(p15 + 27) = {12.70648399188103, -0.05523010943708462, 0};
Point(p15 + 28) = {12.906326489662, -0.1380075823564781, 0};
Point(p15 + 29) = {13.1166578443692, -0.188503672990223, 0};
Point(p15 + 30) = {13.332299, -0.2054750000000001, 0};
Point(p15 + 31) = {13.5479401556308, -0.1885036729902232, 0};
Point(p15 + 32) = {13.758271510338, -0.1380075823564784, 0};
Point(p15 + 33) = {13.95811400811897, -0.05523010943708484, 0};
Point(p15 + 34) = {14.14254686343912, 0.05779048966199962, 0};
Point(p15 + 35) = {14.30702872730291, 0.1982712726970924, 0};
Point(p15 + 36) = {14.447509510338, 0.3627531365608806, 0};
Point(p15 + 37) = {14.56053010943709, 0.5471859918810282, 0};
Point(p15 + 38) = {14.64330758235648, 0.7470284896619996, 0};
Point(p15 + 39) = {14.69380367299022, 0.9573598443692023, 0};
Spline(15) = {10, p15 + 1, p15 + 2, p15 + 3, p15 + 4, p15 + 5, p15 + 6, p15 + 7, p15 + 8, p15 + 9, p15 + 10, p15 + 11, p15 + 12, p15 + 13, p15 + 14, p15 + 15, p15 + 16, p15 + 17, p15 + 18, p15 + 19, p15 + 20, p15 + 21, p15 + 22, p15 + 23, p15 + 24, p15 + 25, p15 + 26, p15 + 27, p15 + 28, p15 + 29, p15 + 30, p15 + 31, p15 + 32, p15 + 33, p15 + 34, p15 + 35, p15 + 36, p15 + 37, p15 + 38, p15 + 39, 10};
p16 = newp;
Point(p16 + 1) = {3.505655749453861, 3.139929246707557, 0.1};
Point(p16 + 2) = {3.480641012225955, 3.244123125931826, 0.1};
Point(p16 + 3) = {3.439634734165987, 3.343121038566645, 0.1};
Point(p16 + 4) = {3.383646625931826, 3.434485327447709, 0.1};
Point(p16 + 5) = {3.314055300562076, 3.515966300562076, 0.1};
Point(p16 + 6) = {3.232574327447709, 3.585557625931826, 0.1};
Point(p16 + 7) = {3.141210038566645, 3.641545734165986, 0.1};
Point(p16 + 8) = {3.042212125931826, 3.682552012225955, 0.1};
Point(p16 + 9) = {2.938018246707558, 3.707566749453861, 0.1};
Point(p16 + 10) = {2.831194, 3.715974, 0.1};
Point(p16 + 11) = {2.724369753292442, 3.707566749453861, 0.1};
Point(p16 + 12) = {2.620175874068174, 3.682552012225955, 0.1};
Point(p16 + 13) = {2.521177961433355, 3.641545734165986, 0.1};
Point(p16 + 14) = {2.429813672552291, 3.585557625931826, 0.1};
Point(p16 + 15) = {2.348332699437924, 3.515966300562076, 0.1};
Point(p16 + 16) = {2.278741374068174, 3.434485327447709, 0.1};
Point(p16 + 17) = {2.222753265834013, 3.343121038566645, 0.1};
Point(p16 + 18) = {2.181746987774045, 3.244123125931826, 0.1};
Point(p16 + 19) = {2.156732250546139, 3.139929246707557, 0.1};
Point(p16 + 20) = {2.148325, 3.033105, 0.1};
Point(p16 + 21) = {2.156732250546139, 2.926280753292442, 0.1};
Point(p16 + 22) = {2.181746987774045, 2.822086874068174, 0.1};
Point(p16 + 23) = {2.222753265834013, 2.723088961433356, 0.1};
Point(p16 + 24) = {2.278741374068174, 2.631724672552291, 0.1};
Point(p16 + 25) = {2.348332699437923, 2.550243699437924, 0.1};
Point(p16 + 26) = {2.429813672552291, 2.480652374068174, 0.1};
Point(p16 + 27) = {2.521177961433355, 2.424664265834013, 0.1};
Point(p16 + 28) = {2.620175874068174, 2.383657987774045, 0.1};
Point(p16 + 29) = {2.724369753292442, 2.358643250546139, 0.1};
Point(p16 + 30) = {2.831194, 2.350236, 0.1};
Point(p16 + 31) = {2.938018246707557, 2.358643250546139, 0.1};
Point(p16 + 32) = {3.042212125931826, 2.383657987774045, 0.1};
Point(p16 + 33) = {3.141210038566645, 2.424664265834013, 0.1};
Point(p16 + 34) = {3.232574327447709, 2.480652374068174, 0.1};
Point(p16 + 35) = {3.314055300562076, 2.550243699437923, 0.1};
Point(p16 + 36) = {3.383646625931826, 2.631724672552291, 0.1};
Point(p16 + 37) = {3.439634734165987, 2.723088961433355, 0.1};
Point(p16 + 38) = {3.480641012225955, 2.822086874068174, 0.1};
Point(p16 + 39) = {3.505655749453861, 2.926280753292442, 0.1};
Spline(16) = {11, p16 + 1, p16 + 2, p16 + 3, p16 + 4, p16 + 5, p16 + 6, p16 + 7, p16 + 8, p16 + 9, p16 + 10, p16 + 11, p16 + 12, p16 + 13, p16 + 14, p16 + 15, p16 + 16, p16 + 17, p16 + 18, p16 + 19, p16 + 20, p16 + 21, p16 + 22, p16 + 23, p16 + 24, p16 + 25, p16 + 26, p16 + 27, p16 + 28, p16 + 29, p16 + 30, p16 + 31, p16 + 32, p16 + 33, p16 + 34, p16 + 35, p16 + 36, p16 + 37, p16 + 38, p16 + 39, 11};
Line(17) = {12, 11};
p18 = newp;
Point(p18 + 1) = {3.505655749453861, 3.139929246707557, 0};
Point(p18 + 2) = {3.480641012225955, 3.244123125931826, 0};
Point(p18 + 3) = {3.439634734165987, 3.343121038566645, 0};
Point(p18 + 4) = {3.383646625931826, 3.434485327447709, 0};
Point(p18 + 5) = {3.314055300562076, 3.515966300562076, 0};
Point(p18 + 6) = {3.232574327447709, 3.585557625931826, 0};
Point(p18 + 7) = {3.141210038566645, 3.641545734165986, 0};
Point(p18 + 8) = {3.042212125931826, 3.682552012225955, 0};
Point(p18 + 9) = {2.938018246707558, 3.707566749453861, 0};
Point(p18 + 10) = {2.831194, 3.715974, 0};
Point(p18 + 11) = {2.724369753292442, 3.707566749453861, 0};
Point(p18 + 12) = {2.620175874068174, 3.682552012225955, 0};
Point(p18 + 13) = {2.521177961433355, 3.641545734165986, 0};
Point(p18 + 14) = {2.429813672552291, 3.585557625931826, 0};
Point(p18 + 15) = {2.348332699437924, 3.515966300562076, 0};
Point(p18 + 16) = {2.278741374068174, 3.434485327447709, 0};
Point(p18 + 17) = {2.222753265834013, 3.343121038566645, 0};
Point(p18 + 18) = {2.181746987774045, 3.244123125931826, 0};
Point(p18 + 19) = {2.156732250546139, 3.139929246707557, 0};
Point(p18 + 20) = {2.148325, 3.033105, 0};
Point(p18 + 21) = {2.156732250546139, 2.926280753292442, 0};
Point(p18 + 22) = {2.181746987774045, 2.822086874068174, 0};
Point(p18 + 23) = {2.222753265834013, 2.723088961433356, 0};
Point(p18 + 24) = {2.278741374068174, 2.631724672552291, 0};
Point(p18 + 25) = {2.348332699437923, 2.550243699437924, 0};
Point(p18 + 26) = {2.429813672552291, 2.480652374068174, 0};
Point(p18 + 27) = {2.521177961433355, 2.424664265834013, 0};
Point(p18 + 28) = {2.620175874068174, 2.383657987774045, 0};
Point(p18 + 29) = {2.724369753292442, 2.358643250546139, 0};
Point(p18 + 30) = {2.831194, 2.350236, 0};
Point(p18 + 31) = {2.938018246707557, 2.358643250546139, 0};
Point(p18 + 32) = {3.042212125931826, 2.383657987774045, 0};
Point(p18 + 33) = {3.141210038566645, 2.424664265834013, 0};
Point(p18 + 34) = {3.232574327447709, 2.480652374068174, 0};
Point(p18 + 35) = {3.314055300562076, 2.550243699437923, 0};
Point(p18 + 36) = {3.383646625931826, 2.631724672552291, 0};
Point(p18 + 37) = {3.439634734165987, 2.723088961433355, 0};
Point(p18 + 38) = {3.480641012225955, 2.822086874068174, 0};
Point(p18 + 39) = {3.505655749453861, 2.926280753292442, 0};
Spline(18) = {12, p18 + 1, p18 + 2, p18 + 3, p18 + 4, p18 + 5, p18 + 6, p18 + 7, p18 + 8, p18 + 9, p18 + 10, p18 + 11, p18 + 12, p18 + 13, p18 + 14, p18 + 15, p18 + 16, p18 + 17, p18 + 18, p18 + 19, p18 + 20, p18 + 21, p18 + 22, p18 + 23, p18 + 24, p18 + 25, p18 + 26, p18 + 27, p18 + 28, p18 + 29, p18 + 30, p18 + 31, p18 + 32, p18 + 33, p18 + 34, p18 + 35, p18 + 36, p18 + 37, p18 + 38, p18 + 39, 12};
Line(19) = {14, 13};
Line(20) = {13, 15};
Line(21) = {16, 15};
Line(22) = {14, 16};
Line(23) = {14, 17};
Line(24) = {17, 18};
Line(25) = {13, 18};
Line(26) = {15, 19};
Line(27) = {18, 19};
Line(28) = {16, 20};
Line(29) = {20, 19};
Line(30) = {17, 20};
Curve Loop(7) = {-13, -14, 15, 14};
Surface(7) = {7};
Curve Loop(8) = {13};
Plane Surface(8) = {8};
Curve Loop(9) = {15};
Plane Surface(9) = {9};
Curve Loop(10) = {-16, -17, 18, 17};
Surface(10) = {10};
Curve Loop(11) = {16};
Plane Surface(11) = {11};
Curve Loop(12) = {18};
Plane Surface(12) = {12};
Curve Loop(13) = {-19, 22, 21, -20};
Plane Surface(13) = {13};
Curve Loop(14) = {-23, 19, 25, -24};
Plane Surface(14) = {14};
Curve Loop(15) = {-20, 25, 27, -26, -13, -16};
Plane Surface(15) = {15};
Curve Loop(16) = {-28, 21, 26, -29};
Plane Surface(16) = {16};
Curve Loop(17) = {-22, 23, 30, -28, -15, -18};
Plane Surface(17) = {17};
Curve Loop(18) = {-24, 30, 29, -27};
Plane Surface(18) = {18};
Surface Loop(1) = {13, 14, 15, 16, 17, 18, 7, 10};
Volume(1) = {1};
Surface Loop(2) = {7, 8, 9};
Volume(2) = {2};
Surface Loop(3) = {10, 11, 12};
Volume(3) = {3};
Physical Surface("WALLS") = {13, 18};
Physical Surface("LOAD") = {8, 11};
Physical Surface("BORDER") = {7, 9, 10, 12, 14, 15, 16, 17};
Physical Volume("SOLID") = {1, 2, 3};
