cl__1 = 0.12166;
cl__2 = 0.100824;
cl__3 = 2.915264;
cl__4 = 2.050831;
cl__5 = 0.5932190000000001;
cl__6 = 0.707735;
Point(9) = {30.020805, -0.0126610000000003, 0.1, cl__1};
Point(10) = {30.020805, -0.0126610000000003, 0, cl__1};
Point(11) = {14.285871, 3.287898999999999, 0.1, cl__2};
Point(12) = {14.285871, 3.287898999999999, 0, cl__2};
Point(13) = {0.9922569999999999, -2.983903, 0.1, cl__3};
Point(14) = {0.9922569999999999, -2.983903, 0, cl__3};
Point(15) = {0.9922569999999999, 4.809761999999999, 0.1, cl__4};
Point(16) = {0.9922569999999999, 4.809761999999999, 0, cl__4};
Point(17) = {34.614479, -2.983903, 0, cl__5};
Point(18) = {34.614479, -2.983903, 0.1, cl__5};
Point(19) = {34.614479, 4.809761999999999, 0.1, cl__6};
Point(20) = {34.614479, 4.809761999999999, 0, cl__6};
p13 = newp;
Point(p13 + 1) = {30.00582659823307, 0.17765763947134, 0.1};
Point(p13 + 2) = {29.96126021089423, 0.3632900024075442, 0.1};
Point(p13 + 3) = {29.88820321034714, 0.5396652039546318, 0.1};
Point(p13 + 4) = {29.78845450240754, 0.7024403012947797, 0.1};
Point(p13 + 5) = {29.6644702313119, 0.8476072313118972, 0.1};
Point(p13 + 6) = {29.51930330129478, 0.9715915024075441, 0.1};
Point(p13 + 7) = {29.35652820395463, 1.071340210347141, 0.1};
Point(p13 + 8) = {29.18015300240754, 1.144397210894233, 0.1};
Point(p13 + 9) = {28.99452063947134, 1.188963598233066, 0.1};
Point(p13 + 10) = {28.804202, 1.203942, 0.1};
Point(p13 + 11) = {28.61388336052866, 1.188963598233066, 0.1};
Point(p13 + 12) = {28.42825099759246, 1.144397210894233, 0.1};
Point(p13 + 13) = {28.25187579604537, 1.071340210347141, 0.1};
Point(p13 + 14) = {28.08910069870522, 0.9715915024075442, 0.1};
Point(p13 + 15) = {27.9439337686881, 0.8476072313118974, 0.1};
Point(p13 + 16) = {27.81994949759246, 0.7024403012947799, 0.1};
Point(p13 + 17) = {27.72020078965286, 0.5396652039546319, 0.1};
Point(p13 + 18) = {27.64714378910577, 0.3632900024075443, 0.1};
Point(p13 + 19) = {27.60257740176693, 0.1776576394713401, 0.1};
Point(p13 + 20) = {27.587599, -0.01266099999999985, 0.1};
Point(p13 + 21) = {27.60257740176693, -0.2029796394713399, 0.1};
Point(p13 + 22) = {27.64714378910577, -0.3886120024075446, 0.1};
Point(p13 + 23) = {27.72020078965286, -0.5649872039546313, 0.1};
Point(p13 + 24) = {27.81994949759246, -0.7277623012947797, 0.1};
Point(p13 + 25) = {27.9439337686881, -0.8729292313118973, 0.1};
Point(p13 + 26) = {28.08910069870522, -0.9969135024075442, 0.1};
Point(p13 + 27) = {28.25187579604537, -1.096662210347141, 0.1};
Point(p13 + 28) = {28.42825099759246, -1.169719210894233, 0.1};
Point(p13 + 29) = {28.61388336052866, -1.214285598233066, 0.1};
Point(p13 + 30) = {28.804202, -1.229264, 0.1};
Point(p13 + 31) = {28.99452063947134, -1.214285598233066, 0.1};
Point(p13 + 32) = {29.18015300240754, -1.169719210894233, 0.1};
Point(p13 + 33) = {29.35652820395463, -1.096662210347141, 0.1};
Point(p13 + 34) = {29.51930330129478, -0.9969135024075444, 0.1};
Point(p13 + 35) = {29.6644702313119, -0.8729292313118976, 0.1};
Point(p13 + 36) = {29.78845450240754, -0.7277623012947799, 0.1};
Point(p13 + 37) = {29.88820321034714, -0.5649872039546321, 0.1};
Point(p13 + 38) = {29.96126021089423, -0.3886120024075444, 0.1};
Point(p13 + 39) = {30.00582659823307, -0.2029796394713403, 0.1};
Spline(13) = {9, p13 + 1, p13 + 2, p13 + 3, p13 + 4, p13 + 5, p13 + 6, p13 + 7, p13 + 8, p13 + 9, p13 + 10, p13 + 11, p13 + 12, p13 + 13, p13 + 14, p13 + 15, p13 + 16, p13 + 17, p13 + 18, p13 + 19, p13 + 20, p13 + 21, p13 + 22, p13 + 23, p13 + 24, p13 + 25, p13 + 26, p13 + 27, p13 + 28, p13 + 29, p13 + 30, p13 + 31, p13 + 32, p13 + 33, p13 + 34, p13 + 35, p13 + 36, p13 + 37, p13 + 38, p13 + 39, 9};
Line(14) = {10, 9};
p15 = newp;
Point(p15 + 1) = {30.00582659823307, 0.17765763947134, 0};
Point(p15 + 2) = {29.96126021089423, 0.3632900024075442, 0};
Point(p15 + 3) = {29.88820321034714, 0.5396652039546318, 0};
Point(p15 + 4) = {29.78845450240754, 0.7024403012947797, 0};
Point(p15 + 5) = {29.6644702313119, 0.8476072313118972, 0};
Point(p15 + 6) = {29.51930330129478, 0.9715915024075441, 0};
Point(p15 + 7) = {29.35652820395463, 1.071340210347141, 0};
Point(p15 + 8) = {29.18015300240754, 1.144397210894233, 0};
Point(p15 + 9) = {28.99452063947134, 1.188963598233066, 0};
Point(p15 + 10) = {28.804202, 1.203942, 0};
Point(p15 + 11) = {28.61388336052866, 1.188963598233066, 0};
Point(p15 + 12) = {28.42825099759246, 1.144397210894233, 0};
Point(p15 + 13) = {28.25187579604537, 1.071340210347141, 0};
Point(p15 + 14) = {28.08910069870522, 0.9715915024075442, 0};
Point(p15 + 15) = {27.9439337686881, 0.8476072313118974, 0};
Point(p15 + 16) = {27.81994949759246, 0.7024403012947799, 0};
Point(p15 + 17) = {27.72020078965286, 0.5396652039546319, 0};
Point(p15 + 18) = {27.64714378910577, 0.3632900024075443, 0};
Point(p15 + 19) = {27.60257740176693, 0.1776576394713401, 0};
Point(p15 + 20) = {27.587599, -0.01266099999999985, 0};
Point(p15 + 21) = {27.60257740176693, -0.2029796394713399, 0};
Point(p15 + 22) = {27.64714378910577, -0.3886120024075446, 0};
Point(p15 + 23) = {27.72020078965286, -0.5649872039546313, 0};
Point(p15 + 24) = {27.81994949759246, -0.7277623012947797, 0};
Point(p15 + 25) = {27.9439337686881, -0.8729292313118973, 0};
Point(p15 + 26) = {28.08910069870522, -0.9969135024075442, 0};
Point(p15 + 27) = {28.25187579604537, -1.096662210347141, 0};
Point(p15 + 28) = {28.42825099759246, -1.169719210894233, 0};
Point(p15 + 29) = {28.61388336052866, -1.214285598233066, 0};
Point(p15 + 30) = {28.804202, -1.229264, 0};
Point(p15 + 31) = {28.99452063947134, -1.214285598233066, 0};
Point(p15 + 32) = {29.18015300240754, -1.169719210894233, 0};
Point(p15 + 33) = {29.35652820395463, -1.096662210347141, 0};
Point(p15 + 34) = {29.51930330129478, -0.9969135024075444, 0};
Point(p15 + 35) = {29.6644702313119, -0.8729292313118976, 0};
Point(p15 + 36) = {29.78845450240754, -0.7277623012947799, 0};
Point(p15 + 37) = {29.88820321034714, -0.5649872039546321, 0};
Point(p15 + 38) = {29.96126021089423, -0.3886120024075444, 0};
Point(p15 + 39) = {30.00582659823307, -0.2029796394713403, 0};
Spline(15) = {10, p15 + 1, p15 + 2, p15 + 3, p15 + 4, p15 + 5, p15 + 6, p15 + 7, p15 + 8, p15 + 9, p15 + 10, p15 + 11, p15 + 12, p15 + 13, p15 + 14, p15 + 15, p15 + 16, p15 + 17, p15 + 18, p15 + 19, p15 + 20, p15 + 21, p15 + 22, p15 + 23, p15 + 24, p15 + 25, p15 + 26, p15 + 27, p15 + 28, p15 + 29, p15 + 30, p15 + 31, p15 + 32, p15 + 33, p15 + 34, p15 + 35, p15 + 36, p15 + 37, p15 + 38, p15 + 39, 10};
p16 = newp;
Point(p16 + 1) = {14.27345788020998, 3.445622641466627, 0.1};
Point(p16 + 2) = {14.23652417304594, 3.599462603425591, 0.1};
Point(p16 + 3) = {14.1759793089542, 3.7456308354479, 0.1};
Point(p16 + 4) = {14.09331410342559, 3.880528190556615, 0.1};
Point(p16 + 5) = {13.99056404817031, 4.000833048170306, 0.1};
Point(p16 + 6) = {13.87025919055662, 4.103583103425591, 0.1};
Point(p16 + 7) = {13.7353618354479, 4.186248308954204, 0.1};
Point(p16 + 8) = {13.58919360342559, 4.246793173045941, 0.1};
Point(p16 + 9) = {13.43535364146663, 4.283726880209982, 0.1};
Point(p16 + 10) = {13.27763, 4.296139999999999, 0.1};
Point(p16 + 11) = {13.11990635853337, 4.283726880209982, 0.1};
Point(p16 + 12) = {12.96606639657441, 4.246793173045942, 0.1};
Point(p16 + 13) = {12.8198981645521, 4.186248308954204, 0.1};
Point(p16 + 14) = {12.68500080944339, 4.103583103425591, 0.1};
Point(p16 + 15) = {12.56469595182969, 4.000833048170306, 0.1};
Point(p16 + 16) = {12.46194589657441, 3.880528190556615, 0.1};
Point(p16 + 17) = {12.3792806910458, 3.7456308354479, 0.1};
Point(p16 + 18) = {12.31873582695406, 3.599462603425591, 0.1};
Point(p16 + 19) = {12.28180211979002, 3.445622641466628, 0.1};
Point(p16 + 20) = {12.269389, 3.287899, 0.1};
Point(p16 + 21) = {12.28180211979002, 3.130175358533373, 0.1};
Point(p16 + 22) = {12.31873582695406, 2.976335396574408, 0.1};
Point(p16 + 23) = {12.3792806910458, 2.8301671645521, 0.1};
Point(p16 + 24) = {12.46194589657441, 2.695269809443385, 0.1};
Point(p16 + 25) = {12.56469595182969, 2.574964951829694, 0.1};
Point(p16 + 26) = {12.68500080944338, 2.472214896574409, 0.1};
Point(p16 + 27) = {12.8198981645521, 2.389549691045796, 0.1};
Point(p16 + 28) = {12.96606639657441, 2.329004826954058, 0.1};
Point(p16 + 29) = {13.11990635853337, 2.292071119790018, 0.1};
Point(p16 + 30) = {13.27763, 2.279658, 0.1};
Point(p16 + 31) = {13.43535364146663, 2.292071119790018, 0.1};
Point(p16 + 32) = {13.58919360342559, 2.329004826954058, 0.1};
Point(p16 + 33) = {13.7353618354479, 2.389549691045795, 0.1};
Point(p16 + 34) = {13.87025919055661, 2.472214896574409, 0.1};
Point(p16 + 35) = {13.99056404817031, 2.574964951829694, 0.1};
Point(p16 + 36) = {14.09331410342559, 2.695269809443384, 0.1};
Point(p16 + 37) = {14.1759793089542, 2.830167164552099, 0.1};
Point(p16 + 38) = {14.23652417304594, 2.976335396574409, 0.1};
Point(p16 + 39) = {14.27345788020998, 3.130175358533372, 0.1};
Spline(16) = {11, p16 + 1, p16 + 2, p16 + 3, p16 + 4, p16 + 5, p16 + 6, p16 + 7, p16 + 8, p16 + 9, p16 + 10, p16 + 11, p16 + 12, p16 + 13, p16 + 14, p16 + 15, p16 + 16, p16 + 17, p16 + 18, p16 + 19, p16 + 20, p16 + 21, p16 + 22, p16 + 23, p16 + 24, p16 + 25, p16 + 26, p16 + 27, p16 + 28, p16 + 29, p16 + 30, p16 + 31, p16 + 32, p16 + 33, p16 + 34, p16 + 35, p16 + 36, p16 + 37, p16 + 38, p16 + 39, 11};
Line(17) = {12, 11};
p18 = newp;
Point(p18 + 1) = {14.27345788020998, 3.445622641466627, 0};
Point(p18 + 2) = {14.23652417304594, 3.599462603425591, 0};
Point(p18 + 3) = {14.1759793089542, 3.7456308354479, 0};
Point(p18 + 4) = {14.09331410342559, 3.880528190556615, 0};
Point(p18 + 5) = {13.99056404817031, 4.000833048170306, 0};
Point(p18 + 6) = {13.87025919055662, 4.103583103425591, 0};
Point(p18 + 7) = {13.7353618354479, 4.186248308954204, 0};
Point(p18 + 8) = {13.58919360342559, 4.246793173045941, 0};
Point(p18 + 9) = {13.43535364146663, 4.283726880209982, 0};
Point(p18 + 10) = {13.27763, 4.296139999999999, 0};
Point(p18 + 11) = {13.11990635853337, 4.283726880209982, 0};
Point(p18 + 12) = {12.96606639657441, 4.246793173045942, 0};
Point(p18 + 13) = {12.8198981645521, 4.186248308954204, 0};
Point(p18 + 14) = {12.68500080944339, 4.103583103425591, 0};
Point(p18 + 15) = {12.56469595182969, 4.000833048170306, 0};
Point(p18 + 16) = {12.46194589657441, 3.880528190556615, 0};
Point(p18 + 17) = {12.3792806910458, 3.7456308354479, 0};
Point(p18 + 18) = {12.31873582695406, 3.599462603425591, 0};
Point(p18 + 19) = {12.28180211979002, 3.445622641466628, 0};
Point(p18 + 20) = {12.269389, 3.287899, 0};
Point(p18 + 21) = {12.28180211979002, 3.130175358533373, 0};
Point(p18 + 22) = {12.31873582695406, 2.976335396574408, 0};
Point(p18 + 23) = {12.3792806910458, 2.8301671645521, 0};
Point(p18 + 24) = {12.46194589657441, 2.695269809443385, 0};
Point(p18 + 25) = {12.56469595182969, 2.574964951829694, 0};
Point(p18 + 26) = {12.68500080944338, 2.472214896574409, 0};
Point(p18 + 27) = {12.8198981645521, 2.389549691045796, 0};
Point(p18 + 28) = {12.96606639657441, 2.329004826954058, 0};
Point(p18 + 29) = {13.11990635853337, 2.292071119790018, 0};
Point(p18 + 30) = {13.27763, 2.279658, 0};
Point(p18 + 31) = {13.43535364146663, 2.292071119790018, 0};
Point(p18 + 32) = {13.58919360342559, 2.329004826954058, 0};
Point(p18 + 33) = {13.7353618354479, 2.389549691045795, 0};
Point(p18 + 34) = {13.87025919055661, 2.472214896574409, 0};
Point(p18 + 35) = {13.99056404817031, 2.574964951829694, 0};
Point(p18 + 36) = {14.09331410342559, 2.695269809443384, 0};
Point(p18 + 37) = {14.1759793089542, 2.830167164552099, 0};
Point(p18 + 38) = {14.23652417304594, 2.976335396574409, 0};
Point(p18 + 39) = {14.27345788020998, 3.130175358533372, 0};
Spline(18) = {12, p18 + 1, p18 + 2, p18 + 3, p18 + 4, p18 + 5, p18 + 6, p18 + 7, p18 + 8, p18 + 9, p18 + 10, p18 + 11, p18 + 12, p18 + 13, p18 + 14, p18 + 15, p18 + 16, p18 + 17, p18 + 18, p18 + 19, p18 + 20, p18 + 21, p18 + 22, p18 + 23, p18 + 24, p18 + 25, p18 + 26, p18 + 27, p18 + 28, p18 + 29, p18 + 30, p18 + 31, p18 + 32, p18 + 33, p18 + 34, p18 + 35, p18 + 36, p18 + 37, p18 + 38, p18 + 39, 12};
Line(19) = {14, 13};
Line(20) = {13, 15};
Line(21) = {16, 15};
Line(22) = {14, 16};
Line(23) = {14, 17};
Line(24) = {17, 18};
Line(25) = {13, 18};
Line(26) = {15, 19};
Line(27) = {18, 19};
Line(28) = {16, 20};
Line(29) = {20, 19};
Line(30) = {17, 20};
Curve Loop(7) = {-13, -14, 15, 14};
Surface(7) = {7};
Curve Loop(8) = {13};
Plane Surface(8) = {8};
Curve Loop(9) = {15};
Plane Surface(9) = {9};
Curve Loop(10) = {-16, -17, 18, 17};
Surface(10) = {10};
Curve Loop(11) = {16};
Plane Surface(11) = {11};
Curve Loop(12) = {18};
Plane Surface(12) = {12};
Curve Loop(13) = {-19, 22, 21, -20};
Plane Surface(13) = {13};
Curve Loop(14) = {-23, 19, 25, -24};
Plane Surface(14) = {14};
Curve Loop(15) = {-20, 25, 27, -26, -13, -16};
Plane Surface(15) = {15};
Curve Loop(16) = {-28, 21, 26, -29};
Plane Surface(16) = {16};
Curve Loop(17) = {-22, 23, 30, -28, -15, -18};
Plane Surface(17) = {17};
Curve Loop(18) = {-24, 30, 29, -27};
Plane Surface(18) = {18};
Surface Loop(1) = {13, 14, 15, 16, 17, 18, 7, 10};
Volume(1) = {1};
Surface Loop(2) = {7, 8, 9};
Volume(2) = {2};
Surface Loop(3) = {10, 11, 12};
Volume(3) = {3};
Physical Surface("WALLS") = {13, 18};
Physical Surface("LOAD") = {8, 11};
Physical Surface("BORDER") = {7, 9, 10, 12, 14, 15, 16, 17};
Physical Volume("SOLID") = {1, 2, 3};
