cl__1 = 0.145073;
cl__2 = 0.141335;
cl__3 = 0.923449;
cl__4 = 1.198474;
cl__5 = 1.33084;
cl__6 = 0.9143869999999999;
Point(9) = {10.256005, -0.3985160000000003, 0.1, cl__1};
Point(10) = {10.256005, -0.3985160000000003, 0, cl__1};
Point(11) = {30.497618, 2.301839999999999, 0.1, cl__2};
Point(12) = {30.497618, 2.301839999999999, 0, cl__2};
Point(13) = {0.864594, -3.391584, 0.1, cl__3};
Point(14) = {0.864594, -3.391584, 0, cl__3};
Point(15) = {0.864594, 4.894664000000001, 0.1, cl__4};
Point(16) = {0.864594, 4.894664000000001, 0, cl__4};
Point(17) = {37.052662, -3.391584, 0, cl__5};
Point(18) = {37.052662, -3.391584, 0.1, cl__5};
Point(19) = {37.052662, 4.894664000000001, 0.1, cl__6};
Point(20) = {37.052662, 4.894664000000001, 0, cl__6};
p13 = newp;
Point(p13 + 1) = {10.23814414328656, -0.171572297835581, 0.1};
Point(p13 + 2) = {10.18500136671532, 0.04978329719858438, 0.1};
Point(p13 + 3) = {10.09788522181622, 0.2601002757156535, 0.1};
Point(p13 + 4) = {9.978940797198584, 0.4541999357025027, 0.1};
Point(p13 + 5) = {9.831096899350417, 0.6273028993504165, 0.1};
Point(p13 + 6) = {9.657993935702503, 0.7751467971985843, 0.1};
Point(p13 + 7) = {9.463894275715653, 0.8940912218162184, 0.1};
Point(p13 + 8) = {9.253577297198584, 0.9812073667153193, 0.1};
Point(p13 + 9) = {9.032221702164419, 1.034350143286562, 0.1};
Point(p13 + 10) = {8.805277999999999, 1.052211, 0.1};
Point(p13 + 11) = {8.57833429783558, 1.034350143286562, 0.1};
Point(p13 + 12) = {8.356978702801415, 0.9812073667153195, 0.1};
Point(p13 + 13) = {8.146661724284346, 0.8940912218162186, 0.1};
Point(p13 + 14) = {7.952562064297497, 0.7751467971985845, 0.1};
Point(p13 + 15) = {7.779459100649583, 0.6273028993504167, 0.1};
Point(p13 + 16) = {7.631615202801415, 0.4541999357025029, 0.1};
Point(p13 + 17) = {7.512670778183781, 0.2601002757156536, 0.1};
Point(p13 + 18) = {7.42555463328468, 0.04978329719858454, 0.1};
Point(p13 + 19) = {7.372411856713438, -0.1715722978355808, 0.1};
Point(p13 + 20) = {7.354550999999999, -0.3985159999999998, 0.1};
Point(p13 + 21) = {7.372411856713437, -0.6254597021644188, 0.1};
Point(p13 + 22) = {7.425554633284681, -0.8468152971985847, 0.1};
Point(p13 + 23) = {7.51267077818378, -1.057132275715653, 0.1};
Point(p13 + 24) = {7.631615202801415, -1.251231935702503, 0.1};
Point(p13 + 25) = {7.779459100649582, -1.424334899350416, 0.1};
Point(p13 + 26) = {7.952562064297497, -1.572178797198584, 0.1};
Point(p13 + 27) = {8.146661724284346, -1.691123221816218, 0.1};
Point(p13 + 28) = {8.356978702801415, -1.778239366715319, 0.1};
Point(p13 + 29) = {8.57833429783558, -1.831382143286562, 0.1};
Point(p13 + 30) = {8.805277999999999, -1.849243, 0.1};
Point(p13 + 31) = {9.032221702164419, -1.831382143286563, 0.1};
Point(p13 + 32) = {9.253577297198584, -1.77823936671532, 0.1};
Point(p13 + 33) = {9.463894275715653, -1.691123221816218, 0.1};
Point(p13 + 34) = {9.657993935702502, -1.572178797198585, 0.1};
Point(p13 + 35) = {9.831096899350417, -1.424334899350417, 0.1};
Point(p13 + 36) = {9.978940797198584, -1.251231935702503, 0.1};
Point(p13 + 37) = {10.09788522181622, -1.057132275715654, 0.1};
Point(p13 + 38) = {10.18500136671532, -0.8468152971985847, 0.1};
Point(p13 + 39) = {10.23814414328656, -0.6254597021644194, 0.1};
Spline(13) = {9, p13 + 1, p13 + 2, p13 + 3, p13 + 4, p13 + 5, p13 + 6, p13 + 7, p13 + 8, p13 + 9, p13 + 10, p13 + 11, p13 + 12, p13 + 13, p13 + 14, p13 + 15, p13 + 16, p13 + 17, p13 + 18, p13 + 19, p13 + 20, p13 + 21, p13 + 22, p13 + 23, p13 + 24, p13 + 25, p13 + 26, p13 + 27, p13 + 28, p13 + 29, p13 + 30, p13 + 31, p13 + 32, p13 + 33, p13 + 34, p13 + 35, p13 + 36, p13 + 37, p13 + 38, p13 + 39, 9};
Line(14) = {10, 9};
p15 = newp;
Point(p15 + 1) = {10.23814414328656, -0.171572297835581, 0};
Point(p15 + 2) = {10.18500136671532, 0.04978329719858438, 0};
Point(p15 + 3) = {10.09788522181622, 0.2601002757156535, 0};
Point(p15 + 4) = {9.978940797198584, 0.4541999357025027, 0};
Point(p15 + 5) = {9.831096899350417, 0.6273028993504165, 0};
Point(p15 + 6) = {9.657993935702503, 0.7751467971985843, 0};
Point(p15 + 7) = {9.463894275715653, 0.8940912218162184, 0};
Point(p15 + 8) = {9.253577297198584, 0.9812073667153193, 0};
Point(p15 + 9) = {9.032221702164419, 1.034350143286562, 0};
Point(p15 + 10) = {8.805277999999999, 1.052211, 0};
Point(p15 + 11) = {8.57833429783558, 1.034350143286562, 0};
Point(p15 + 12) = {8.356978702801415, 0.9812073667153195, 0};
Point(p15 + 13) = {8.146661724284346, 0.8940912218162186, 0};
Point(p15 + 14) = {7.952562064297497, 0.7751467971985845, 0};
Point(p15 + 15) = {7.779459100649583, 0.6273028993504167, 0};
Point(p15 + 16) = {7.631615202801415, 0.4541999357025029, 0};
Point(p15 + 17) = {7.512670778183781, 0.2601002757156536, 0};
Point(p15 + 18) = {7.42555463328468, 0.04978329719858454, 0};
Point(p15 + 19) = {7.372411856713438, -0.1715722978355808, 0};
Point(p15 + 20) = {7.354550999999999, -0.3985159999999998, 0};
Point(p15 + 21) = {7.372411856713437, -0.6254597021644188, 0};
Point(p15 + 22) = {7.425554633284681, -0.8468152971985847, 0};
Point(p15 + 23) = {7.51267077818378, -1.057132275715653, 0};
Point(p15 + 24) = {7.631615202801415, -1.251231935702503, 0};
Point(p15 + 25) = {7.779459100649582, -1.424334899350416, 0};
Point(p15 + 26) = {7.952562064297497, -1.572178797198584, 0};
Point(p15 + 27) = {8.146661724284346, -1.691123221816218, 0};
Point(p15 + 28) = {8.356978702801415, -1.778239366715319, 0};
Point(p15 + 29) = {8.57833429783558, -1.831382143286562, 0};
Point(p15 + 30) = {8.805277999999999, -1.849243, 0};
Point(p15 + 31) = {9.032221702164419, -1.831382143286563, 0};
Point(p15 + 32) = {9.253577297198584, -1.77823936671532, 0};
Point(p15 + 33) = {9.463894275715653, -1.691123221816218, 0};
Point(p15 + 34) = {9.657993935702502, -1.572178797198585, 0};
Point(p15 + 35) = {9.831096899350417, -1.424334899350417, 0};
Point(p15 + 36) = {9.978940797198584, -1.251231935702503, 0};
Point(p15 + 37) = {10.09788522181622, -1.057132275715654, 0};
Point(p15 + 38) = {10.18500136671532, -0.8468152971985847, 0};
Point(p15 + 39) = {10.23814414328656, -0.6254597021644194, 0};
Spline(15) = {10, p15 + 1, p15 + 2, p15 + 3, p15 + 4, p15 + 5, p15 + 6, p15 + 7, p15 + 8, p15 + 9, p15 + 10, p15 + 11, p15 + 12, p15 + 13, p15 + 14, p15 + 15, p15 + 16, p15 + 17, p15 + 18, p15 + 19, p15 + 20, p15 + 21, p15 + 22, p15 + 23, p15 + 24, p15 + 25, p15 + 26, p15 + 27, p15 + 28, p15 + 29, p15 + 30, p15 + 31, p15 + 32, p15 + 33, p15 + 34, p15 + 35, p15 + 36, p15 + 37, p15 + 38, p15 + 39, 10};
p16 = newp;
Point(p16 + 1) = {30.4802172669335, 2.52293727690247, 0.1};
Point(p16 + 2) = {30.42844353153182, 2.738590405067809, 0.1};
Point(p16 + 3) = {30.34357163498773, 2.943489288768887, 0.1};
Point(p16 + 4) = {30.22769140506781, 3.132588637468576, 0.1};
Point(p16 + 5) = {30.08365619761713, 3.301232197617131, 0.1};
Point(p16 + 6) = {29.91501263746858, 3.445267405067809, 0.1};
Point(p16 + 7) = {29.72591328876889, 3.561147634987726, 0.1};
Point(p16 + 8) = {29.52101440506781, 3.64601953153182, 0.1};
Point(p16 + 9) = {29.30536127690247, 3.6977932669335, 0.1};
Point(p16 + 10) = {29.084264, 3.715194, 0.1};
Point(p16 + 11) = {28.86316672309753, 3.6977932669335, 0.1};
Point(p16 + 12) = {28.64751359493219, 3.64601953153182, 0.1};
Point(p16 + 13) = {28.44261471123111, 3.561147634987726, 0.1};
Point(p16 + 14) = {28.25351536253142, 3.445267405067809, 0.1};
Point(p16 + 15) = {28.08487180238287, 3.301232197617132, 0.1};
Point(p16 + 16) = {27.94083659493219, 3.132588637468576, 0.1};
Point(p16 + 17) = {27.82495636501227, 2.943489288768887, 0.1};
Point(p16 + 18) = {27.74008446846818, 2.738590405067809, 0.1};
Point(p16 + 19) = {27.6883107330665, 2.52293727690247, 0.1};
Point(p16 + 20) = {27.67091, 2.30184, 0.1};
Point(p16 + 21) = {27.6883107330665, 2.08074272309753, 0.1};
Point(p16 + 22) = {27.74008446846818, 1.86508959493219, 0.1};
Point(p16 + 23) = {27.82495636501227, 1.660190711231113, 0.1};
Point(p16 + 24) = {27.94083659493219, 1.471091362531424, 0.1};
Point(p16 + 25) = {28.08487180238287, 1.302447802382868, 0.1};
Point(p16 + 26) = {28.25351536253142, 1.158412594932191, 0.1};
Point(p16 + 27) = {28.44261471123111, 1.042532365012274, 0.1};
Point(p16 + 28) = {28.64751359493219, 0.9576604684681795, 0.1};
Point(p16 + 29) = {28.86316672309753, 0.9058867330664997, 0.1};
Point(p16 + 30) = {29.084264, 0.8884859999999999, 0.1};
Point(p16 + 31) = {29.30536127690247, 0.9058867330664995, 0.1};
Point(p16 + 32) = {29.52101440506781, 0.9576604684681793, 0.1};
Point(p16 + 33) = {29.72591328876889, 1.042532365012273, 0.1};
Point(p16 + 34) = {29.91501263746858, 1.15841259493219, 0.1};
Point(p16 + 35) = {30.08365619761713, 1.302447802382868, 0.1};
Point(p16 + 36) = {30.22769140506781, 1.471091362531424, 0.1};
Point(p16 + 37) = {30.34357163498773, 1.660190711231112, 0.1};
Point(p16 + 38) = {30.42844353153182, 1.86508959493219, 0.1};
Point(p16 + 39) = {30.4802172669335, 2.080742723097529, 0.1};
Spline(16) = {11, p16 + 1, p16 + 2, p16 + 3, p16 + 4, p16 + 5, p16 + 6, p16 + 7, p16 + 8, p16 + 9, p16 + 10, p16 + 11, p16 + 12, p16 + 13, p16 + 14, p16 + 15, p16 + 16, p16 + 17, p16 + 18, p16 + 19, p16 + 20, p16 + 21, p16 + 22, p16 + 23, p16 + 24, p16 + 25, p16 + 26, p16 + 27, p16 + 28, p16 + 29, p16 + 30, p16 + 31, p16 + 32, p16 + 33, p16 + 34, p16 + 35, p16 + 36, p16 + 37, p16 + 38, p16 + 39, 11};
Line(17) = {12, 11};
p18 = newp;
Point(p18 + 1) = {30.4802172669335, 2.52293727690247, 0};
Point(p18 + 2) = {30.42844353153182, 2.738590405067809, 0};
Point(p18 + 3) = {30.34357163498773, 2.943489288768887, 0};
Point(p18 + 4) = {30.22769140506781, 3.132588637468576, 0};
Point(p18 + 5) = {30.08365619761713, 3.301232197617131, 0};
Point(p18 + 6) = {29.91501263746858, 3.445267405067809, 0};
Point(p18 + 7) = {29.72591328876889, 3.561147634987726, 0};
Point(p18 + 8) = {29.52101440506781, 3.64601953153182, 0};
Point(p18 + 9) = {29.30536127690247, 3.6977932669335, 0};
Point(p18 + 10) = {29.084264, 3.715194, 0};
Point(p18 + 11) = {28.86316672309753, 3.6977932669335, 0};
Point(p18 + 12) = {28.64751359493219, 3.64601953153182, 0};
Point(p18 + 13) = {28.44261471123111, 3.561147634987726, 0};
Point(p18 + 14) = {28.25351536253142, 3.445267405067809, 0};
Point(p18 + 15) = {28.08487180238287, 3.301232197617132, 0};
Point(p18 + 16) = {27.94083659493219, 3.132588637468576, 0};
Point(p18 + 17) = {27.82495636501227, 2.943489288768887, 0};
Point(p18 + 18) = {27.74008446846818, 2.738590405067809, 0};
Point(p18 + 19) = {27.6883107330665, 2.52293727690247, 0};
Point(p18 + 20) = {27.67091, 2.30184, 0};
Point(p18 + 21) = {27.6883107330665, 2.08074272309753, 0};
Point(p18 + 22) = {27.74008446846818, 1.86508959493219, 0};
Point(p18 + 23) = {27.82495636501227, 1.660190711231113, 0};
Point(p18 + 24) = {27.94083659493219, 1.471091362531424, 0};
Point(p18 + 25) = {28.08487180238287, 1.302447802382868, 0};
Point(p18 + 26) = {28.25351536253142, 1.158412594932191, 0};
Point(p18 + 27) = {28.44261471123111, 1.042532365012274, 0};
Point(p18 + 28) = {28.64751359493219, 0.9576604684681795, 0};
Point(p18 + 29) = {28.86316672309753, 0.9058867330664997, 0};
Point(p18 + 30) = {29.084264, 0.8884859999999999, 0};
Point(p18 + 31) = {29.30536127690247, 0.9058867330664995, 0};
Point(p18 + 32) = {29.52101440506781, 0.9576604684681793, 0};
Point(p18 + 33) = {29.72591328876889, 1.042532365012273, 0};
Point(p18 + 34) = {29.91501263746858, 1.15841259493219, 0};
Point(p18 + 35) = {30.08365619761713, 1.302447802382868, 0};
Point(p18 + 36) = {30.22769140506781, 1.471091362531424, 0};
Point(p18 + 37) = {30.34357163498773, 1.660190711231112, 0};
Point(p18 + 38) = {30.42844353153182, 1.86508959493219, 0};
Point(p18 + 39) = {30.4802172669335, 2.080742723097529, 0};
Spline(18) = {12, p18 + 1, p18 + 2, p18 + 3, p18 + 4, p18 + 5, p18 + 6, p18 + 7, p18 + 8, p18 + 9, p18 + 10, p18 + 11, p18 + 12, p18 + 13, p18 + 14, p18 + 15, p18 + 16, p18 + 17, p18 + 18, p18 + 19, p18 + 20, p18 + 21, p18 + 22, p18 + 23, p18 + 24, p18 + 25, p18 + 26, p18 + 27, p18 + 28, p18 + 29, p18 + 30, p18 + 31, p18 + 32, p18 + 33, p18 + 34, p18 + 35, p18 + 36, p18 + 37, p18 + 38, p18 + 39, 12};
Line(19) = {14, 13};
Line(20) = {13, 15};
Line(21) = {16, 15};
Line(22) = {14, 16};
Line(23) = {14, 17};
Line(24) = {17, 18};
Line(25) = {13, 18};
Line(26) = {15, 19};
Line(27) = {18, 19};
Line(28) = {16, 20};
Line(29) = {20, 19};
Line(30) = {17, 20};
Curve Loop(7) = {-13, -14, 15, 14};
Surface(7) = {7};
Curve Loop(8) = {13};
Plane Surface(8) = {8};
Curve Loop(9) = {15};
Plane Surface(9) = {9};
Curve Loop(10) = {-16, -17, 18, 17};
Surface(10) = {10};
Curve Loop(11) = {16};
Plane Surface(11) = {11};
Curve Loop(12) = {18};
Plane Surface(12) = {12};
Curve Loop(13) = {-19, 22, 21, -20};
Plane Surface(13) = {13};
Curve Loop(14) = {-23, 19, 25, -24};
Plane Surface(14) = {14};
Curve Loop(15) = {-20, 25, 27, -26, -13, -16};
Plane Surface(15) = {15};
Curve Loop(16) = {-28, 21, 26, -29};
Plane Surface(16) = {16};
Curve Loop(17) = {-22, 23, 30, -28, -15, -18};
Plane Surface(17) = {17};
Curve Loop(18) = {-24, 30, 29, -27};
Plane Surface(18) = {18};
Surface Loop(1) = {13, 14, 15, 16, 17, 18, 7, 10};
Volume(1) = {1};
Surface Loop(2) = {7, 8, 9};
Volume(2) = {2};
Surface Loop(3) = {10, 11, 12};
Volume(3) = {3};
Physical Surface("WALLS") = {13, 18};
Physical Surface("LOAD") = {8, 11};
Physical Surface("BORDER") = {7, 9, 10, 12, 14, 15, 16, 17};
Physical Volume("SOLID") = {1, 2, 3};
