cl__1 = 0.065775;
cl__2 = 0.111168;
cl__3 = 4.980721;
cl__4 = 4.677847;
cl__5 = 0.28557;
cl__6 = 0.334222;
Point(9) = {29.815906, -1.223792, 0.1, cl__1};
Point(10) = {29.815906, -1.223792, 0, cl__1};
Point(11) = {28.760138, 1.909136, 0.1, cl__2};
Point(12) = {28.760138, 1.909136, 0, cl__2};
Point(13) = {0.67169, -4.389834, 0.1, cl__3};
Point(14) = {0.67169, -4.389834, 0, cl__3};
Point(15) = {0.67169, 4.989827000000001, 0.1, cl__4};
Point(16) = {0.67169, 4.989827000000001, 0, cl__4};
Point(17) = {33.161772, -4.389834, 0, cl__5};
Point(18) = {33.161772, -4.389834, 0.1, cl__5};
Point(19) = {33.161772, 4.989827000000001, 0.1, cl__6};
Point(20) = {33.161772, 4.989827000000001, 0, cl__6};
p13 = newp;
Point(p13 + 1) = {29.80780804296143, -1.120897699923183, 0.1};
Point(p13 + 2) = {29.78371357042359, -1.020536999000861, 0.1};
Point(p13 + 3) = {29.74421586826533, -0.9251811107678123, 0.1};
Point(p13 + 4) = {29.69028750099914, -0.8371780136603827, 0.1};
Point(p13 + 5) = {29.62325636400511, -0.758694635994892, 0.1};
Point(p13 + 6) = {29.54477298633962, -0.6916634990008615, 0.1};
Point(p13 + 7) = {29.45676988923219, -0.6377351317346737, 0.1};
Point(p13 + 8) = {29.36141400099914, -0.5982374295764117, 0.1};
Point(p13 + 9) = {29.26105330007682, -0.57414295703857, 0.1};
Point(p13 + 10) = {29.158159, -0.566045, 0.1};
Point(p13 + 11) = {29.05526469992319, -0.57414295703857, 0.1};
Point(p13 + 12) = {28.95490399900086, -0.5982374295764116, 0.1};
Point(p13 + 13) = {28.85954811076781, -0.6377351317346736, 0.1};
Point(p13 + 14) = {28.77154501366038, -0.6916634990008614, 0.1};
Point(p13 + 15) = {28.69306163599489, -0.7586946359948918, 0.1};
Point(p13 + 16) = {28.62603049900086, -0.8371780136603826, 0.1};
Point(p13 + 17) = {28.57210213173467, -0.9251811107678123, 0.1};
Point(p13 + 18) = {28.53260442957641, -1.020536999000861, 0.1};
Point(p13 + 19) = {28.50850995703857, -1.120897699923183, 0.1};
Point(p13 + 20) = {28.500412, -1.223792, 0.1};
Point(p13 + 21) = {28.50850995703857, -1.326686300076817, 0.1};
Point(p13 + 22) = {28.53260442957641, -1.427047000999139, 0.1};
Point(p13 + 23) = {28.57210213173467, -1.522402889232187, 0.1};
Point(p13 + 24) = {28.62603049900086, -1.610405986339617, 0.1};
Point(p13 + 25) = {28.69306163599489, -1.688889364005108, 0.1};
Point(p13 + 26) = {28.77154501366038, -1.755920500999138, 0.1};
Point(p13 + 27) = {28.85954811076781, -1.809848868265326, 0.1};
Point(p13 + 28) = {28.95490399900086, -1.849346570423588, 0.1};
Point(p13 + 29) = {29.05526469992319, -1.87344104296143, 0.1};
Point(p13 + 30) = {29.158159, -1.881539, 0.1};
Point(p13 + 31) = {29.26105330007682, -1.87344104296143, 0.1};
Point(p13 + 32) = {29.36141400099914, -1.849346570423589, 0.1};
Point(p13 + 33) = {29.45676988923219, -1.809848868265326, 0.1};
Point(p13 + 34) = {29.54477298633962, -1.755920500999139, 0.1};
Point(p13 + 35) = {29.62325636400511, -1.688889364005108, 0.1};
Point(p13 + 36) = {29.69028750099914, -1.610405986339617, 0.1};
Point(p13 + 37) = {29.74421586826533, -1.522402889232188, 0.1};
Point(p13 + 38) = {29.78371357042359, -1.427047000999139, 0.1};
Point(p13 + 39) = {29.80780804296143, -1.326686300076817, 0.1};
Spline(13) = {9, p13 + 1, p13 + 2, p13 + 3, p13 + 4, p13 + 5, p13 + 6, p13 + 7, p13 + 8, p13 + 9, p13 + 10, p13 + 11, p13 + 12, p13 + 13, p13 + 14, p13 + 15, p13 + 16, p13 + 17, p13 + 18, p13 + 19, p13 + 20, p13 + 21, p13 + 22, p13 + 23, p13 + 24, p13 + 25, p13 + 26, p13 + 27, p13 + 28, p13 + 29, p13 + 30, p13 + 31, p13 + 32, p13 + 33, p13 + 34, p13 + 35, p13 + 36, p13 + 37, p13 + 38, p13 + 39, 9};
Line(14) = {10, 9};
p15 = newp;
Point(p15 + 1) = {29.80780804296143, -1.120897699923183, 0};
Point(p15 + 2) = {29.78371357042359, -1.020536999000861, 0};
Point(p15 + 3) = {29.74421586826533, -0.9251811107678123, 0};
Point(p15 + 4) = {29.69028750099914, -0.8371780136603827, 0};
Point(p15 + 5) = {29.62325636400511, -0.758694635994892, 0};
Point(p15 + 6) = {29.54477298633962, -0.6916634990008615, 0};
Point(p15 + 7) = {29.45676988923219, -0.6377351317346737, 0};
Point(p15 + 8) = {29.36141400099914, -0.5982374295764117, 0};
Point(p15 + 9) = {29.26105330007682, -0.57414295703857, 0};
Point(p15 + 10) = {29.158159, -0.566045, 0};
Point(p15 + 11) = {29.05526469992319, -0.57414295703857, 0};
Point(p15 + 12) = {28.95490399900086, -0.5982374295764116, 0};
Point(p15 + 13) = {28.85954811076781, -0.6377351317346736, 0};
Point(p15 + 14) = {28.77154501366038, -0.6916634990008614, 0};
Point(p15 + 15) = {28.69306163599489, -0.7586946359948918, 0};
Point(p15 + 16) = {28.62603049900086, -0.8371780136603826, 0};
Point(p15 + 17) = {28.57210213173467, -0.9251811107678123, 0};
Point(p15 + 18) = {28.53260442957641, -1.020536999000861, 0};
Point(p15 + 19) = {28.50850995703857, -1.120897699923183, 0};
Point(p15 + 20) = {28.500412, -1.223792, 0};
Point(p15 + 21) = {28.50850995703857, -1.326686300076817, 0};
Point(p15 + 22) = {28.53260442957641, -1.427047000999139, 0};
Point(p15 + 23) = {28.57210213173467, -1.522402889232187, 0};
Point(p15 + 24) = {28.62603049900086, -1.610405986339617, 0};
Point(p15 + 25) = {28.69306163599489, -1.688889364005108, 0};
Point(p15 + 26) = {28.77154501366038, -1.755920500999138, 0};
Point(p15 + 27) = {28.85954811076781, -1.809848868265326, 0};
Point(p15 + 28) = {28.95490399900086, -1.849346570423588, 0};
Point(p15 + 29) = {29.05526469992319, -1.87344104296143, 0};
Point(p15 + 30) = {29.158159, -1.881539, 0};
Point(p15 + 31) = {29.26105330007682, -1.87344104296143, 0};
Point(p15 + 32) = {29.36141400099914, -1.849346570423589, 0};
Point(p15 + 33) = {29.45676988923219, -1.809848868265326, 0};
Point(p15 + 34) = {29.54477298633962, -1.755920500999139, 0};
Point(p15 + 35) = {29.62325636400511, -1.688889364005108, 0};
Point(p15 + 36) = {29.69028750099914, -1.610405986339617, 0};
Point(p15 + 37) = {29.74421586826533, -1.522402889232188, 0};
Point(p15 + 38) = {29.78371357042359, -1.427047000999139, 0};
Point(p15 + 39) = {29.80780804296143, -1.326686300076817, 0};
Spline(15) = {10, p15 + 1, p15 + 2, p15 + 3, p15 + 4, p15 + 5, p15 + 6, p15 + 7, p15 + 8, p15 + 9, p15 + 10, p15 + 11, p15 + 12, p15 + 13, p15 + 14, p15 + 15, p15 + 16, p15 + 17, p15 + 18, p15 + 19, p15 + 20, p15 + 21, p15 + 22, p15 + 23, p15 + 24, p15 + 25, p15 + 26, p15 + 27, p15 + 28, p15 + 29, p15 + 30, p15 + 31, p15 + 32, p15 + 33, p15 + 34, p15 + 35, p15 + 36, p15 + 37, p15 + 38, p15 + 39, 10};
p16 = newp;
Point(p16 + 1) = {28.74645139909612, 2.083040753226994, 0.1};
Point(p16 + 2) = {28.70572860592196, 2.252663394272753, 0.1};
Point(p16 + 3) = {28.63897235079668, 2.41382725076946, 0.1};
Point(p16 + 4) = {28.54782639427275, 2.562563933697992, 0.1};
Point(p16 + 5) = {28.4345350522959, 2.695211052295899, 0.1};
Point(p16 + 6) = {28.30188793369799, 2.808502394272753, 0.1};
Point(p16 + 7) = {28.15315125076946, 2.899648350796676, 0.1};
Point(p16 + 8) = {27.99198739427275, 2.966404605921964, 0.1};
Point(p16 + 9) = {27.82236475322699, 3.007127399096121, 0.1};
Point(p16 + 10) = {27.64846, 3.020814, 0.1};
Point(p16 + 11) = {27.47455524677301, 3.007127399096121, 0.1};
Point(p16 + 12) = {27.30493260572725, 2.966404605921964, 0.1};
Point(p16 + 13) = {27.14376874923054, 2.899648350796676, 0.1};
Point(p16 + 14) = {26.99503206630201, 2.808502394272753, 0.1};
Point(p16 + 15) = {26.8623849477041, 2.695211052295899, 0.1};
Point(p16 + 16) = {26.74909360572725, 2.562563933697992, 0.1};
Point(p16 + 17) = {26.65794764920332, 2.41382725076946, 0.1};
Point(p16 + 18) = {26.59119139407804, 2.252663394272753, 0.1};
Point(p16 + 19) = {26.55046860090388, 2.083040753226994, 0.1};
Point(p16 + 20) = {26.536782, 1.909136, 0.1};
Point(p16 + 21) = {26.55046860090388, 1.735231246773006, 0.1};
Point(p16 + 22) = {26.59119139407804, 1.565608605727247, 0.1};
Point(p16 + 23) = {26.65794764920332, 1.404444749230541, 0.1};
Point(p16 + 24) = {26.74909360572725, 1.255708066302008, 0.1};
Point(p16 + 25) = {26.8623849477041, 1.123060947704101, 0.1};
Point(p16 + 26) = {26.99503206630201, 1.009769605727247, 0.1};
Point(p16 + 27) = {27.14376874923054, 0.9186236492033236, 0.1};
Point(p16 + 28) = {27.30493260572725, 0.8518673940780364, 0.1};
Point(p16 + 29) = {27.474555246773, 0.8111446009038785, 0.1};
Point(p16 + 30) = {27.64846, 0.797458, 0.1};
Point(p16 + 31) = {27.82236475322699, 0.8111446009038785, 0.1};
Point(p16 + 32) = {27.99198739427275, 0.8518673940780361, 0.1};
Point(p16 + 33) = {28.15315125076946, 0.9186236492033234, 0.1};
Point(p16 + 34) = {28.30188793369799, 1.009769605727247, 0.1};
Point(p16 + 35) = {28.4345350522959, 1.123060947704101, 0.1};
Point(p16 + 36) = {28.54782639427275, 1.255708066302008, 0.1};
Point(p16 + 37) = {28.63897235079668, 1.40444474923054, 0.1};
Point(p16 + 38) = {28.70572860592196, 1.565608605727247, 0.1};
Point(p16 + 39) = {28.74645139909612, 1.735231246773006, 0.1};
Spline(16) = {11, p16 + 1, p16 + 2, p16 + 3, p16 + 4, p16 + 5, p16 + 6, p16 + 7, p16 + 8, p16 + 9, p16 + 10, p16 + 11, p16 + 12, p16 + 13, p16 + 14, p16 + 15, p16 + 16, p16 + 17, p16 + 18, p16 + 19, p16 + 20, p16 + 21, p16 + 22, p16 + 23, p16 + 24, p16 + 25, p16 + 26, p16 + 27, p16 + 28, p16 + 29, p16 + 30, p16 + 31, p16 + 32, p16 + 33, p16 + 34, p16 + 35, p16 + 36, p16 + 37, p16 + 38, p16 + 39, 11};
Line(17) = {12, 11};
p18 = newp;
Point(p18 + 1) = {28.74645139909612, 2.083040753226994, 0};
Point(p18 + 2) = {28.70572860592196, 2.252663394272753, 0};
Point(p18 + 3) = {28.63897235079668, 2.41382725076946, 0};
Point(p18 + 4) = {28.54782639427275, 2.562563933697992, 0};
Point(p18 + 5) = {28.4345350522959, 2.695211052295899, 0};
Point(p18 + 6) = {28.30188793369799, 2.808502394272753, 0};
Point(p18 + 7) = {28.15315125076946, 2.899648350796676, 0};
Point(p18 + 8) = {27.99198739427275, 2.966404605921964, 0};
Point(p18 + 9) = {27.82236475322699, 3.007127399096121, 0};
Point(p18 + 10) = {27.64846, 3.020814, 0};
Point(p18 + 11) = {27.47455524677301, 3.007127399096121, 0};
Point(p18 + 12) = {27.30493260572725, 2.966404605921964, 0};
Point(p18 + 13) = {27.14376874923054, 2.899648350796676, 0};
Point(p18 + 14) = {26.99503206630201, 2.808502394272753, 0};
Point(p18 + 15) = {26.8623849477041, 2.695211052295899, 0};
Point(p18 + 16) = {26.74909360572725, 2.562563933697992, 0};
Point(p18 + 17) = {26.65794764920332, 2.41382725076946, 0};
Point(p18 + 18) = {26.59119139407804, 2.252663394272753, 0};
Point(p18 + 19) = {26.55046860090388, 2.083040753226994, 0};
Point(p18 + 20) = {26.536782, 1.909136, 0};
Point(p18 + 21) = {26.55046860090388, 1.735231246773006, 0};
Point(p18 + 22) = {26.59119139407804, 1.565608605727247, 0};
Point(p18 + 23) = {26.65794764920332, 1.404444749230541, 0};
Point(p18 + 24) = {26.74909360572725, 1.255708066302008, 0};
Point(p18 + 25) = {26.8623849477041, 1.123060947704101, 0};
Point(p18 + 26) = {26.99503206630201, 1.009769605727247, 0};
Point(p18 + 27) = {27.14376874923054, 0.9186236492033236, 0};
Point(p18 + 28) = {27.30493260572725, 0.8518673940780364, 0};
Point(p18 + 29) = {27.474555246773, 0.8111446009038785, 0};
Point(p18 + 30) = {27.64846, 0.797458, 0};
Point(p18 + 31) = {27.82236475322699, 0.8111446009038785, 0};
Point(p18 + 32) = {27.99198739427275, 0.8518673940780361, 0};
Point(p18 + 33) = {28.15315125076946, 0.9186236492033234, 0};
Point(p18 + 34) = {28.30188793369799, 1.009769605727247, 0};
Point(p18 + 35) = {28.4345350522959, 1.123060947704101, 0};
Point(p18 + 36) = {28.54782639427275, 1.255708066302008, 0};
Point(p18 + 37) = {28.63897235079668, 1.40444474923054, 0};
Point(p18 + 38) = {28.70572860592196, 1.565608605727247, 0};
Point(p18 + 39) = {28.74645139909612, 1.735231246773006, 0};
Spline(18) = {12, p18 + 1, p18 + 2, p18 + 3, p18 + 4, p18 + 5, p18 + 6, p18 + 7, p18 + 8, p18 + 9, p18 + 10, p18 + 11, p18 + 12, p18 + 13, p18 + 14, p18 + 15, p18 + 16, p18 + 17, p18 + 18, p18 + 19, p18 + 20, p18 + 21, p18 + 22, p18 + 23, p18 + 24, p18 + 25, p18 + 26, p18 + 27, p18 + 28, p18 + 29, p18 + 30, p18 + 31, p18 + 32, p18 + 33, p18 + 34, p18 + 35, p18 + 36, p18 + 37, p18 + 38, p18 + 39, 12};
Line(19) = {14, 13};
Line(20) = {13, 15};
Line(21) = {16, 15};
Line(22) = {14, 16};
Line(23) = {14, 17};
Line(24) = {17, 18};
Line(25) = {13, 18};
Line(26) = {15, 19};
Line(27) = {18, 19};
Line(28) = {16, 20};
Line(29) = {20, 19};
Line(30) = {17, 20};
Curve Loop(7) = {-13, -14, 15, 14};
Surface(7) = {7};
Curve Loop(8) = {13};
Plane Surface(8) = {8};
Curve Loop(9) = {15};
Plane Surface(9) = {9};
Curve Loop(10) = {-16, -17, 18, 17};
Surface(10) = {10};
Curve Loop(11) = {16};
Plane Surface(11) = {11};
Curve Loop(12) = {18};
Plane Surface(12) = {12};
Curve Loop(13) = {-19, 22, 21, -20};
Plane Surface(13) = {13};
Curve Loop(14) = {-23, 19, 25, -24};
Plane Surface(14) = {14};
Curve Loop(15) = {-20, 25, 27, -26, -13, -16};
Plane Surface(15) = {15};
Curve Loop(16) = {-28, 21, 26, -29};
Plane Surface(16) = {16};
Curve Loop(17) = {-22, 23, 30, -28, -15, -18};
Plane Surface(17) = {17};
Curve Loop(18) = {-24, 30, 29, -27};
Plane Surface(18) = {18};
Surface Loop(1) = {13, 14, 15, 16, 17, 18, 7, 10};
Volume(1) = {1};
Surface Loop(2) = {7, 8, 9};
Volume(2) = {2};
Surface Loop(3) = {10, 11, 12};
Volume(3) = {3};
Physical Surface("WALLS") = {13, 18};
Physical Surface("LOAD") = {8, 11};
Physical Surface("BORDER") = {7, 9, 10, 12, 14, 15, 16, 17};
Physical Volume("SOLID") = {1, 2, 3};
