cl__1 = 0.080357;
cl__2 = 0.050832;
cl__3 = 0.690246;
cl__4 = 0.718195;
cl__5 = 2.053462;
cl__6 = 2.302636;
Point(9) = {14.720559, -2.066777, 0.1, cl__1};
Point(10) = {14.720559, -2.066777, 0, cl__1};
Point(11) = {13.592133, -0.2650410000000001, 0.1, cl__2};
Point(12) = {13.592133, -0.2650410000000001, 0, cl__2};
Point(13) = {0.347168, -3.762657, 0.1, cl__3};
Point(14) = {0.347168, -3.762657, 0, cl__3};
Point(15) = {0.347168, 4.841994000000001, 0.1, cl__4};
Point(16) = {0.347168, 4.841994000000001, 0, cl__4};
Point(17) = {38.047077, -3.762657, 0, cl__5};
Point(18) = {38.047077, -3.762657, 0.1, cl__5};
Point(19) = {38.047077, 4.841994000000001, 0.1, cl__6};
Point(20) = {38.047077, 4.841994000000001, 0, cl__6};
p13 = newp;
Point(p13 + 1) = {14.71066568291706, -1.941070487624227, 0.1};
Point(p13 + 2) = {14.68122933796884, -1.81845928677914, 0.1};
Point(p13 + 3) = {14.63297478566162, -1.701962492152793, 0.1};
Point(p13 + 4) = {14.56709021322086, -1.594448641459581, 0.1};
Point(p13 + 5) = {14.48519791747842, -1.498565082521583, 0.1};
Point(p13 + 6) = {14.38931435854042, -1.416672786779141, 0.1};
Point(p13 + 7) = {14.28180050784721, -1.350788214338381, 0.1};
Point(p13 + 8) = {14.16530371322086, -1.302533662031155, 0.1};
Point(p13 + 9) = {14.04269251237577, -1.273097317082943, 0.1};
Point(p13 + 10) = {13.916986, -1.263204, 0.1};
Point(p13 + 11) = {13.79127948762423, -1.273097317082944, 0.1};
Point(p13 + 12) = {13.66866828677914, -1.302533662031155, 0.1};
Point(p13 + 13) = {13.55217149215279, -1.350788214338381, 0.1};
Point(p13 + 14) = {13.44465764145958, -1.41667278677914, 0.1};
Point(p13 + 15) = {13.34877408252158, -1.498565082521583, 0.1};
Point(p13 + 16) = {13.26688178677914, -1.59444864145958, 0.1};
Point(p13 + 17) = {13.20099721433838, -1.701962492152793, 0.1};
Point(p13 + 18) = {13.15274266203116, -1.81845928677914, 0.1};
Point(p13 + 19) = {13.12330631708294, -1.941070487624227, 0.1};
Point(p13 + 20) = {13.113413, -2.066777, 0.1};
Point(p13 + 21) = {13.12330631708294, -2.192483512375774, 0.1};
Point(p13 + 22) = {13.15274266203116, -2.31509471322086, 0.1};
Point(p13 + 23) = {13.20099721433838, -2.431591507847207, 0.1};
Point(p13 + 24) = {13.26688178677914, -2.53910535854042, 0.1};
Point(p13 + 25) = {13.34877408252158, -2.634988917478418, 0.1};
Point(p13 + 26) = {13.44465764145958, -2.71688121322086, 0.1};
Point(p13 + 27) = {13.55217149215279, -2.782765785661619, 0.1};
Point(p13 + 28) = {13.66866828677914, -2.831020337968845, 0.1};
Point(p13 + 29) = {13.79127948762423, -2.860456682917056, 0.1};
Point(p13 + 30) = {13.916986, -2.87035, 0.1};
Point(p13 + 31) = {14.04269251237577, -2.860456682917057, 0.1};
Point(p13 + 32) = {14.16530371322086, -2.831020337968845, 0.1};
Point(p13 + 33) = {14.28180050784721, -2.78276578566162, 0.1};
Point(p13 + 34) = {14.38931435854042, -2.71688121322086, 0.1};
Point(p13 + 35) = {14.48519791747842, -2.634988917478418, 0.1};
Point(p13 + 36) = {14.56709021322086, -2.53910535854042, 0.1};
Point(p13 + 37) = {14.63297478566162, -2.431591507847207, 0.1};
Point(p13 + 38) = {14.68122933796884, -2.31509471322086, 0.1};
Point(p13 + 39) = {14.71066568291706, -2.192483512375774, 0.1};
Spline(13) = {9, p13 + 1, p13 + 2, p13 + 3, p13 + 4, p13 + 5, p13 + 6, p13 + 7, p13 + 8, p13 + 9, p13 + 10, p13 + 11, p13 + 12, p13 + 13, p13 + 14, p13 + 15, p13 + 16, p13 + 17, p13 + 18, p13 + 19, p13 + 20, p13 + 21, p13 + 22, p13 + 23, p13 + 24, p13 + 25, p13 + 26, p13 + 27, p13 + 28, p13 + 29, p13 + 30, p13 + 31, p13 + 32, p13 + 33, p13 + 34, p13 + 35, p13 + 36, p13 + 37, p13 + 38, p13 + 39, 9};
Line(14) = {10, 9};
p15 = newp;
Point(p15 + 1) = {14.71066568291706, -1.941070487624227, 0};
Point(p15 + 2) = {14.68122933796884, -1.81845928677914, 0};
Point(p15 + 3) = {14.63297478566162, -1.701962492152793, 0};
Point(p15 + 4) = {14.56709021322086, -1.594448641459581, 0};
Point(p15 + 5) = {14.48519791747842, -1.498565082521583, 0};
Point(p15 + 6) = {14.38931435854042, -1.416672786779141, 0};
Point(p15 + 7) = {14.28180050784721, -1.350788214338381, 0};
Point(p15 + 8) = {14.16530371322086, -1.302533662031155, 0};
Point(p15 + 9) = {14.04269251237577, -1.273097317082943, 0};
Point(p15 + 10) = {13.916986, -1.263204, 0};
Point(p15 + 11) = {13.79127948762423, -1.273097317082944, 0};
Point(p15 + 12) = {13.66866828677914, -1.302533662031155, 0};
Point(p15 + 13) = {13.55217149215279, -1.350788214338381, 0};
Point(p15 + 14) = {13.44465764145958, -1.41667278677914, 0};
Point(p15 + 15) = {13.34877408252158, -1.498565082521583, 0};
Point(p15 + 16) = {13.26688178677914, -1.59444864145958, 0};
Point(p15 + 17) = {13.20099721433838, -1.701962492152793, 0};
Point(p15 + 18) = {13.15274266203116, -1.81845928677914, 0};
Point(p15 + 19) = {13.12330631708294, -1.941070487624227, 0};
Point(p15 + 20) = {13.113413, -2.066777, 0};
Point(p15 + 21) = {13.12330631708294, -2.192483512375774, 0};
Point(p15 + 22) = {13.15274266203116, -2.31509471322086, 0};
Point(p15 + 23) = {13.20099721433838, -2.431591507847207, 0};
Point(p15 + 24) = {13.26688178677914, -2.53910535854042, 0};
Point(p15 + 25) = {13.34877408252158, -2.634988917478418, 0};
Point(p15 + 26) = {13.44465764145958, -2.71688121322086, 0};
Point(p15 + 27) = {13.55217149215279, -2.782765785661619, 0};
Point(p15 + 28) = {13.66866828677914, -2.831020337968845, 0};
Point(p15 + 29) = {13.79127948762423, -2.860456682917056, 0};
Point(p15 + 30) = {13.916986, -2.87035, 0};
Point(p15 + 31) = {14.04269251237577, -2.860456682917057, 0};
Point(p15 + 32) = {14.16530371322086, -2.831020337968845, 0};
Point(p15 + 33) = {14.28180050784721, -2.78276578566162, 0};
Point(p15 + 34) = {14.38931435854042, -2.71688121322086, 0};
Point(p15 + 35) = {14.48519791747842, -2.634988917478418, 0};
Point(p15 + 36) = {14.56709021322086, -2.53910535854042, 0};
Point(p15 + 37) = {14.63297478566162, -2.431591507847207, 0};
Point(p15 + 38) = {14.68122933796884, -2.31509471322086, 0};
Point(p15 + 39) = {14.71066568291706, -2.192483512375774, 0};
Spline(15) = {10, p15 + 1, p15 + 2, p15 + 3, p15 + 4, p15 + 5, p15 + 6, p15 + 7, p15 + 8, p15 + 9, p15 + 10, p15 + 11, p15 + 12, p15 + 13, p15 + 14, p15 + 15, p15 + 16, p15 + 17, p15 + 18, p15 + 19, p15 + 20, p15 + 21, p15 + 22, p15 + 23, p15 + 24, p15 + 25, p15 + 26, p15 + 27, p15 + 28, p15 + 29, p15 + 30, p15 + 31, p15 + 32, p15 + 33, p15 + 34, p15 + 35, p15 + 36, p15 + 37, p15 + 38, p15 + 39, 10};
p16 = newp;
Point(p16 + 1) = {13.5858747742263, -0.185522702034145, 0.1};
Point(p16 + 2) = {13.5672541951936, -0.1079624084703099, 0.1};
Point(p16 + 3) = {13.53672976335586, -0.03426991114389283, 0.1};
Point(p16 + 4) = {13.49505309152969, 0.03374023608955307, 0.1};
Point(p16 + 5) = {13.4432503976924, 0.09439339769240224, 0.1};
Point(p16 + 6) = {13.38259723608955, 0.1461960915296901, 0.1};
Point(p16 + 7) = {13.31458708885611, 0.1878727633558586, 0.1};
Point(p16 + 8) = {13.24089459152969, 0.2183971951936036, 0.1};
Point(p16 + 9) = {13.16333429796586, 0.2370177742262986, 0.1};
Point(p16 + 10) = {13.083816, 0.243276, 0.1};
Point(p16 + 11) = {13.00429770203415, 0.2370177742262986, 0.1};
Point(p16 + 12) = {12.92673740847031, 0.2183971951936036, 0.1};
Point(p16 + 13) = {12.85304491114389, 0.1878727633558586, 0.1};
Point(p16 + 14) = {12.78503476391045, 0.1461960915296902, 0.1};
Point(p16 + 15) = {12.7243816023076, 0.09439339769240229, 0.1};
Point(p16 + 16) = {12.67257890847031, 0.03374023608955312, 0.1};
Point(p16 + 17) = {12.63090223664414, -0.03426991114389277, 0.1};
Point(p16 + 18) = {12.6003778048064, -0.1079624084703098, 0.1};
Point(p16 + 19) = {12.5817572257737, -0.1855227020341449, 0.1};
Point(p16 + 20) = {12.575499, -0.265041, 0.1};
Point(p16 + 21) = {12.5817572257737, -0.344559297965855, 0.1};
Point(p16 + 22) = {12.6003778048064, -0.4221195915296904, 0.1};
Point(p16 + 23) = {12.63090223664414, -0.495812088856107, 0.1};
Point(p16 + 24) = {12.67257890847031, -0.5638222360895531, 0.1};
Point(p16 + 25) = {12.7243816023076, -0.6244753976924022, 0.1};
Point(p16 + 26) = {12.78503476391045, -0.6762780915296902, 0.1};
Point(p16 + 27) = {12.85304491114389, -0.7179547633558586, 0.1};
Point(p16 + 28) = {12.92673740847031, -0.7484791951936036, 0.1};
Point(p16 + 29) = {13.00429770203415, -0.7670997742262986, 0.1};
Point(p16 + 30) = {13.083816, -0.773358, 0.1};
Point(p16 + 31) = {13.16333429796586, -0.7670997742262986, 0.1};
Point(p16 + 32) = {13.24089459152969, -0.7484791951936036, 0.1};
Point(p16 + 33) = {13.31458708885611, -0.7179547633558587, 0.1};
Point(p16 + 34) = {13.38259723608955, -0.6762780915296902, 0.1};
Point(p16 + 35) = {13.4432503976924, -0.6244753976924025, 0.1};
Point(p16 + 36) = {13.49505309152969, -0.5638222360895532, 0.1};
Point(p16 + 37) = {13.53672976335586, -0.4958120888561073, 0.1};
Point(p16 + 38) = {13.5672541951936, -0.4221195915296903, 0.1};
Point(p16 + 39) = {13.5858747742263, -0.3445592979658552, 0.1};
Spline(16) = {11, p16 + 1, p16 + 2, p16 + 3, p16 + 4, p16 + 5, p16 + 6, p16 + 7, p16 + 8, p16 + 9, p16 + 10, p16 + 11, p16 + 12, p16 + 13, p16 + 14, p16 + 15, p16 + 16, p16 + 17, p16 + 18, p16 + 19, p16 + 20, p16 + 21, p16 + 22, p16 + 23, p16 + 24, p16 + 25, p16 + 26, p16 + 27, p16 + 28, p16 + 29, p16 + 30, p16 + 31, p16 + 32, p16 + 33, p16 + 34, p16 + 35, p16 + 36, p16 + 37, p16 + 38, p16 + 39, 11};
Line(17) = {12, 11};
p18 = newp;
Point(p18 + 1) = {13.5858747742263, -0.185522702034145, 0};
Point(p18 + 2) = {13.5672541951936, -0.1079624084703099, 0};
Point(p18 + 3) = {13.53672976335586, -0.03426991114389283, 0};
Point(p18 + 4) = {13.49505309152969, 0.03374023608955307, 0};
Point(p18 + 5) = {13.4432503976924, 0.09439339769240224, 0};
Point(p18 + 6) = {13.38259723608955, 0.1461960915296901, 0};
Point(p18 + 7) = {13.31458708885611, 0.1878727633558586, 0};
Point(p18 + 8) = {13.24089459152969, 0.2183971951936036, 0};
Point(p18 + 9) = {13.16333429796586, 0.2370177742262986, 0};
Point(p18 + 10) = {13.083816, 0.243276, 0};
Point(p18 + 11) = {13.00429770203415, 0.2370177742262986, 0};
Point(p18 + 12) = {12.92673740847031, 0.2183971951936036, 0};
Point(p18 + 13) = {12.85304491114389, 0.1878727633558586, 0};
Point(p18 + 14) = {12.78503476391045, 0.1461960915296902, 0};
Point(p18 + 15) = {12.7243816023076, 0.09439339769240229, 0};
Point(p18 + 16) = {12.67257890847031, 0.03374023608955312, 0};
Point(p18 + 17) = {12.63090223664414, -0.03426991114389277, 0};
Point(p18 + 18) = {12.6003778048064, -0.1079624084703098, 0};
Point(p18 + 19) = {12.5817572257737, -0.1855227020341449, 0};
Point(p18 + 20) = {12.575499, -0.265041, 0};
Point(p18 + 21) = {12.5817572257737, -0.344559297965855, 0};
Point(p18 + 22) = {12.6003778048064, -0.4221195915296904, 0};
Point(p18 + 23) = {12.63090223664414, -0.495812088856107, 0};
Point(p18 + 24) = {12.67257890847031, -0.5638222360895531, 0};
Point(p18 + 25) = {12.7243816023076, -0.6244753976924022, 0};
Point(p18 + 26) = {12.78503476391045, -0.6762780915296902, 0};
Point(p18 + 27) = {12.85304491114389, -0.7179547633558586, 0};
Point(p18 + 28) = {12.92673740847031, -0.7484791951936036, 0};
Point(p18 + 29) = {13.00429770203415, -0.7670997742262986, 0};
Point(p18 + 30) = {13.083816, -0.773358, 0};
Point(p18 + 31) = {13.16333429796586, -0.7670997742262986, 0};
Point(p18 + 32) = {13.24089459152969, -0.7484791951936036, 0};
Point(p18 + 33) = {13.31458708885611, -0.7179547633558587, 0};
Point(p18 + 34) = {13.38259723608955, -0.6762780915296902, 0};
Point(p18 + 35) = {13.4432503976924, -0.6244753976924025, 0};
Point(p18 + 36) = {13.49505309152969, -0.5638222360895532, 0};
Point(p18 + 37) = {13.53672976335586, -0.4958120888561073, 0};
Point(p18 + 38) = {13.5672541951936, -0.4221195915296903, 0};
Point(p18 + 39) = {13.5858747742263, -0.3445592979658552, 0};
Spline(18) = {12, p18 + 1, p18 + 2, p18 + 3, p18 + 4, p18 + 5, p18 + 6, p18 + 7, p18 + 8, p18 + 9, p18 + 10, p18 + 11, p18 + 12, p18 + 13, p18 + 14, p18 + 15, p18 + 16, p18 + 17, p18 + 18, p18 + 19, p18 + 20, p18 + 21, p18 + 22, p18 + 23, p18 + 24, p18 + 25, p18 + 26, p18 + 27, p18 + 28, p18 + 29, p18 + 30, p18 + 31, p18 + 32, p18 + 33, p18 + 34, p18 + 35, p18 + 36, p18 + 37, p18 + 38, p18 + 39, 12};
Line(19) = {14, 13};
Line(20) = {13, 15};
Line(21) = {16, 15};
Line(22) = {14, 16};
Line(23) = {14, 17};
Line(24) = {17, 18};
Line(25) = {13, 18};
Line(26) = {15, 19};
Line(27) = {18, 19};
Line(28) = {16, 20};
Line(29) = {20, 19};
Line(30) = {17, 20};
Curve Loop(7) = {-13, -14, 15, 14};
Surface(7) = {7};
Curve Loop(8) = {13};
Plane Surface(8) = {8};
Curve Loop(9) = {15};
Plane Surface(9) = {9};
Curve Loop(10) = {-16, -17, 18, 17};
Surface(10) = {10};
Curve Loop(11) = {16};
Plane Surface(11) = {11};
Curve Loop(12) = {18};
Plane Surface(12) = {12};
Curve Loop(13) = {-19, 22, 21, -20};
Plane Surface(13) = {13};
Curve Loop(14) = {-23, 19, 25, -24};
Plane Surface(14) = {14};
Curve Loop(15) = {-20, 25, 27, -26, -13, -16};
Plane Surface(15) = {15};
Curve Loop(16) = {-28, 21, 26, -29};
Plane Surface(16) = {16};
Curve Loop(17) = {-22, 23, 30, -28, -15, -18};
Plane Surface(17) = {17};
Curve Loop(18) = {-24, 30, 29, -27};
Plane Surface(18) = {18};
Surface Loop(1) = {13, 14, 15, 16, 17, 18, 7, 10};
Volume(1) = {1};
Surface Loop(2) = {7, 8, 9};
Volume(2) = {2};
Surface Loop(3) = {10, 11, 12};
Volume(3) = {3};
Physical Surface("WALLS") = {13, 18};
Physical Surface("LOAD") = {8, 11};
Physical Surface("BORDER") = {7, 9, 10, 12, 14, 15, 16, 17};
Physical Volume("SOLID") = {1, 2, 3};
