cl__1 = 0.137419;
cl__2 = 0.095693;
cl__3 = 1.066146;
cl__4 = 1.113481;
cl__5 = 1.086501;
cl__6 = 0.913901;
Point(9) = {23.923494, 3.679273999999999, 0.1, cl__1};
Point(10) = {23.923494, 3.679273999999999, 0, cl__1};
Point(11) = {17.779917, 0.2582659999999998, 0.1, cl__2};
Point(12) = {17.779917, 0.2582659999999998, 0, cl__2};
Point(13) = {0.386079, -4.312334, 0.1, cl__3};
Point(14) = {0.386079, -4.312334, 0, cl__3};
Point(15) = {0.386079, 5.639711, 0.1, cl__4};
Point(16) = {0.386079, 5.639711, 0, cl__4};
Point(17) = {38.207476, -4.312334, 0, cl__5};
Point(18) = {38.207476, -4.312334, 0.1, cl__5};
Point(19) = {38.207476, 5.639711, 0.1, cl__6};
Point(20) = {38.207476, 5.639711, 0, cl__6};
p13 = newp;
Point(p13 + 1) = {23.90657544076243, 3.894244677513635, 0.1};
Point(p13 + 2) = {23.85623635412763, 4.103922063500109, 0.1};
Point(p13 + 3) = {23.77371625547441, 4.303143204837088, 0.1};
Point(p13 + 4) = {23.66104706350011, 4.487002615847794, 0.1};
Point(p13 + 5) = {23.52100306763874, 4.650973067638741, 0.1};
Point(p13 + 6) = {23.35703261584779, 4.791017063500108, 0.1};
Point(p13 + 7) = {23.17317320483709, 4.903686255474414, 0.1};
Point(p13 + 8) = {22.97395206350011, 4.986206354127637, 0.1};
Point(p13 + 9) = {22.76427467751363, 5.036545440762432, 0.1};
Point(p13 + 10) = {22.549304, 5.053464, 0.1};
Point(p13 + 11) = {22.33433332248637, 5.036545440762432, 0.1};
Point(p13 + 12) = {22.12465593649989, 4.986206354127637, 0.1};
Point(p13 + 13) = {21.92543479516291, 4.903686255474414, 0.1};
Point(p13 + 14) = {21.74157538415221, 4.791017063500109, 0.1};
Point(p13 + 15) = {21.57760493236126, 4.650973067638741, 0.1};
Point(p13 + 16) = {21.43756093649989, 4.487002615847794, 0.1};
Point(p13 + 17) = {21.32489174452559, 4.303143204837088, 0.1};
Point(p13 + 18) = {21.24237164587236, 4.103922063500109, 0.1};
Point(p13 + 19) = {21.19203255923757, 3.894244677513635, 0.1};
Point(p13 + 20) = {21.175114, 3.679274, 0.1};
Point(p13 + 21) = {21.19203255923757, 3.464303322486365, 0.1};
Point(p13 + 22) = {21.24237164587236, 3.25462593649989, 0.1};
Point(p13 + 23) = {21.32489174452559, 3.055404795162913, 0.1};
Point(p13 + 24) = {21.43756093649989, 2.871545384152206, 0.1};
Point(p13 + 25) = {21.57760493236126, 2.707574932361258, 0.1};
Point(p13 + 26) = {21.74157538415221, 2.567530936499891, 0.1};
Point(p13 + 27) = {21.92543479516291, 2.454861744525587, 0.1};
Point(p13 + 28) = {22.12465593649989, 2.372341645872363, 0.1};
Point(p13 + 29) = {22.33433332248637, 2.322002559237568, 0.1};
Point(p13 + 30) = {22.549304, 2.305084, 0.1};
Point(p13 + 31) = {22.76427467751363, 2.322002559237568, 0.1};
Point(p13 + 32) = {22.97395206350011, 2.372341645872363, 0.1};
Point(p13 + 33) = {23.17317320483709, 2.454861744525586, 0.1};
Point(p13 + 34) = {23.35703261584779, 2.567530936499891, 0.1};
Point(p13 + 35) = {23.52100306763874, 2.707574932361258, 0.1};
Point(p13 + 36) = {23.66104706350011, 2.871545384152206, 0.1};
Point(p13 + 37) = {23.77371625547441, 3.055404795162912, 0.1};
Point(p13 + 38) = {23.85623635412763, 3.254625936499891, 0.1};
Point(p13 + 39) = {23.90657544076243, 3.464303322486365, 0.1};
Spline(13) = {9, p13 + 1, p13 + 2, p13 + 3, p13 + 4, p13 + 5, p13 + 6, p13 + 7, p13 + 8, p13 + 9, p13 + 10, p13 + 11, p13 + 12, p13 + 13, p13 + 14, p13 + 15, p13 + 16, p13 + 17, p13 + 18, p13 + 19, p13 + 20, p13 + 21, p13 + 22, p13 + 23, p13 + 24, p13 + 25, p13 + 26, p13 + 27, p13 + 28, p13 + 29, p13 + 30, p13 + 31, p13 + 32, p13 + 33, p13 + 34, p13 + 35, p13 + 36, p13 + 37, p13 + 38, p13 + 39, 9};
Line(14) = {10, 9};
p15 = newp;
Point(p15 + 1) = {23.90657544076243, 3.894244677513635, 0};
Point(p15 + 2) = {23.85623635412763, 4.103922063500109, 0};
Point(p15 + 3) = {23.77371625547441, 4.303143204837088, 0};
Point(p15 + 4) = {23.66104706350011, 4.487002615847794, 0};
Point(p15 + 5) = {23.52100306763874, 4.650973067638741, 0};
Point(p15 + 6) = {23.35703261584779, 4.791017063500108, 0};
Point(p15 + 7) = {23.17317320483709, 4.903686255474414, 0};
Point(p15 + 8) = {22.97395206350011, 4.986206354127637, 0};
Point(p15 + 9) = {22.76427467751363, 5.036545440762432, 0};
Point(p15 + 10) = {22.549304, 5.053464, 0};
Point(p15 + 11) = {22.33433332248637, 5.036545440762432, 0};
Point(p15 + 12) = {22.12465593649989, 4.986206354127637, 0};
Point(p15 + 13) = {21.92543479516291, 4.903686255474414, 0};
Point(p15 + 14) = {21.74157538415221, 4.791017063500109, 0};
Point(p15 + 15) = {21.57760493236126, 4.650973067638741, 0};
Point(p15 + 16) = {21.43756093649989, 4.487002615847794, 0};
Point(p15 + 17) = {21.32489174452559, 4.303143204837088, 0};
Point(p15 + 18) = {21.24237164587236, 4.103922063500109, 0};
Point(p15 + 19) = {21.19203255923757, 3.894244677513635, 0};
Point(p15 + 20) = {21.175114, 3.679274, 0};
Point(p15 + 21) = {21.19203255923757, 3.464303322486365, 0};
Point(p15 + 22) = {21.24237164587236, 3.25462593649989, 0};
Point(p15 + 23) = {21.32489174452559, 3.055404795162913, 0};
Point(p15 + 24) = {21.43756093649989, 2.871545384152206, 0};
Point(p15 + 25) = {21.57760493236126, 2.707574932361258, 0};
Point(p15 + 26) = {21.74157538415221, 2.567530936499891, 0};
Point(p15 + 27) = {21.92543479516291, 2.454861744525587, 0};
Point(p15 + 28) = {22.12465593649989, 2.372341645872363, 0};
Point(p15 + 29) = {22.33433332248637, 2.322002559237568, 0};
Point(p15 + 30) = {22.549304, 2.305084, 0};
Point(p15 + 31) = {22.76427467751363, 2.322002559237568, 0};
Point(p15 + 32) = {22.97395206350011, 2.372341645872363, 0};
Point(p15 + 33) = {23.17317320483709, 2.454861744525586, 0};
Point(p15 + 34) = {23.35703261584779, 2.567530936499891, 0};
Point(p15 + 35) = {23.52100306763874, 2.707574932361258, 0};
Point(p15 + 36) = {23.66104706350011, 2.871545384152206, 0};
Point(p15 + 37) = {23.77371625547441, 3.055404795162912, 0};
Point(p15 + 38) = {23.85623635412763, 3.254625936499891, 0};
Point(p15 + 39) = {23.90657544076243, 3.464303322486365, 0};
Spline(15) = {10, p15 + 1, p15 + 2, p15 + 3, p15 + 4, p15 + 5, p15 + 6, p15 + 7, p15 + 8, p15 + 9, p15 + 10, p15 + 11, p15 + 12, p15 + 13, p15 + 14, p15 + 15, p15 + 16, p15 + 17, p15 + 18, p15 + 19, p15 + 20, p15 + 21, p15 + 22, p15 + 23, p15 + 24, p15 + 25, p15 + 26, p15 + 27, p15 + 28, p15 + 29, p15 + 30, p15 + 31, p15 + 32, p15 + 33, p15 + 34, p15 + 35, p15 + 36, p15 + 37, p15 + 38, p15 + 39, 10};
p16 = newp;
Point(p16 + 1) = {17.76813562838903, 0.407962519762018, 0.1};
Point(p16 + 2) = {17.73308161002529, 0.5539730143932297, 0.1};
Point(p16 + 3) = {17.67561809117853, 0.692702220934765, 0.1};
Point(p16 + 4) = {17.59716001439323, 0.8207341659057318, 0.1};
Point(p16 + 5) = {17.49963927790728, 0.9349162779072805, 0.1};
Point(p16 + 6) = {17.38545716590573, 1.03243701439323, 0.1};
Point(p16 + 7) = {17.25742522093476, 1.110895091178526, 0.1};
Point(p16 + 8) = {17.11869601439323, 1.168358610025289, 0.1};
Point(p16 + 9) = {16.97268551976202, 1.203412628389024, 0.1};
Point(p16 + 10) = {16.822989, 1.215194, 0.1};
Point(p16 + 11) = {16.67329248023798, 1.203412628389024, 0.1};
Point(p16 + 12) = {16.52728198560677, 1.168358610025289, 0.1};
Point(p16 + 13) = {16.38855277906524, 1.110895091178526, 0.1};
Point(p16 + 14) = {16.26052083409427, 1.03243701439323, 0.1};
Point(p16 + 15) = {16.14633872209272, 0.9349162779072806, 0.1};
Point(p16 + 16) = {16.04881798560677, 0.8207341659057318, 0.1};
Point(p16 + 17) = {15.97035990882147, 0.6927022209347651, 0.1};
Point(p16 + 18) = {15.91289638997471, 0.5539730143932298, 0.1};
Point(p16 + 19) = {15.87784237161098, 0.4079625197620181, 0.1};
Point(p16 + 20) = {15.866061, 0.2582660000000001, 0.1};
Point(p16 + 21) = {15.87784237161098, 0.108569480237982, 0.1};
Point(p16 + 22) = {15.91289638997471, -0.03744101439323, 0.1};
Point(p16 + 23) = {15.97035990882147, -0.1761702209347646, 0.1};
Point(p16 + 24) = {16.04881798560677, -0.3042021659057317, 0.1};
Point(p16 + 25) = {16.14633872209272, -0.4183842779072805, 0.1};
Point(p16 + 26) = {16.26052083409427, -0.5159050143932297, 0.1};
Point(p16 + 27) = {16.38855277906524, -0.5943630911785264, 0.1};
Point(p16 + 28) = {16.52728198560677, -0.6518266100252886, 0.1};
Point(p16 + 29) = {16.67329248023798, -0.6868806283890239, 0.1};
Point(p16 + 30) = {16.822989, -0.698662, 0.1};
Point(p16 + 31) = {16.97268551976202, -0.686880628389024, 0.1};
Point(p16 + 32) = {17.11869601439323, -0.6518266100252887, 0.1};
Point(p16 + 33) = {17.25742522093476, -0.5943630911785266, 0.1};
Point(p16 + 34) = {17.38545716590573, -0.5159050143932298, 0.1};
Point(p16 + 35) = {17.49963927790728, -0.4183842779072807, 0.1};
Point(p16 + 36) = {17.59716001439323, -0.3042021659057318, 0.1};
Point(p16 + 37) = {17.67561809117853, -0.1761702209347652, 0.1};
Point(p16 + 38) = {17.73308161002529, -0.03744101439322989, 0.1};
Point(p16 + 39) = {17.76813562838903, 0.1085694802379817, 0.1};
Spline(16) = {11, p16 + 1, p16 + 2, p16 + 3, p16 + 4, p16 + 5, p16 + 6, p16 + 7, p16 + 8, p16 + 9, p16 + 10, p16 + 11, p16 + 12, p16 + 13, p16 + 14, p16 + 15, p16 + 16, p16 + 17, p16 + 18, p16 + 19, p16 + 20, p16 + 21, p16 + 22, p16 + 23, p16 + 24, p16 + 25, p16 + 26, p16 + 27, p16 + 28, p16 + 29, p16 + 30, p16 + 31, p16 + 32, p16 + 33, p16 + 34, p16 + 35, p16 + 36, p16 + 37, p16 + 38, p16 + 39, 11};
Line(17) = {12, 11};
p18 = newp;
Point(p18 + 1) = {17.76813562838903, 0.407962519762018, 0};
Point(p18 + 2) = {17.73308161002529, 0.5539730143932297, 0};
Point(p18 + 3) = {17.67561809117853, 0.692702220934765, 0};
Point(p18 + 4) = {17.59716001439323, 0.8207341659057318, 0};
Point(p18 + 5) = {17.49963927790728, 0.9349162779072805, 0};
Point(p18 + 6) = {17.38545716590573, 1.03243701439323, 0};
Point(p18 + 7) = {17.25742522093476, 1.110895091178526, 0};
Point(p18 + 8) = {17.11869601439323, 1.168358610025289, 0};
Point(p18 + 9) = {16.97268551976202, 1.203412628389024, 0};
Point(p18 + 10) = {16.822989, 1.215194, 0};
Point(p18 + 11) = {16.67329248023798, 1.203412628389024, 0};
Point(p18 + 12) = {16.52728198560677, 1.168358610025289, 0};
Point(p18 + 13) = {16.38855277906524, 1.110895091178526, 0};
Point(p18 + 14) = {16.26052083409427, 1.03243701439323, 0};
Point(p18 + 15) = {16.14633872209272, 0.9349162779072806, 0};
Point(p18 + 16) = {16.04881798560677, 0.8207341659057318, 0};
Point(p18 + 17) = {15.97035990882147, 0.6927022209347651, 0};
Point(p18 + 18) = {15.91289638997471, 0.5539730143932298, 0};
Point(p18 + 19) = {15.87784237161098, 0.4079625197620181, 0};
Point(p18 + 20) = {15.866061, 0.2582660000000001, 0};
Point(p18 + 21) = {15.87784237161098, 0.108569480237982, 0};
Point(p18 + 22) = {15.91289638997471, -0.03744101439323, 0};
Point(p18 + 23) = {15.97035990882147, -0.1761702209347646, 0};
Point(p18 + 24) = {16.04881798560677, -0.3042021659057317, 0};
Point(p18 + 25) = {16.14633872209272, -0.4183842779072805, 0};
Point(p18 + 26) = {16.26052083409427, -0.5159050143932297, 0};
Point(p18 + 27) = {16.38855277906524, -0.5943630911785264, 0};
Point(p18 + 28) = {16.52728198560677, -0.6518266100252886, 0};
Point(p18 + 29) = {16.67329248023798, -0.6868806283890239, 0};
Point(p18 + 30) = {16.822989, -0.698662, 0};
Point(p18 + 31) = {16.97268551976202, -0.686880628389024, 0};
Point(p18 + 32) = {17.11869601439323, -0.6518266100252887, 0};
Point(p18 + 33) = {17.25742522093476, -0.5943630911785266, 0};
Point(p18 + 34) = {17.38545716590573, -0.5159050143932298, 0};
Point(p18 + 35) = {17.49963927790728, -0.4183842779072807, 0};
Point(p18 + 36) = {17.59716001439323, -0.3042021659057318, 0};
Point(p18 + 37) = {17.67561809117853, -0.1761702209347652, 0};
Point(p18 + 38) = {17.73308161002529, -0.03744101439322989, 0};
Point(p18 + 39) = {17.76813562838903, 0.1085694802379817, 0};
Spline(18) = {12, p18 + 1, p18 + 2, p18 + 3, p18 + 4, p18 + 5, p18 + 6, p18 + 7, p18 + 8, p18 + 9, p18 + 10, p18 + 11, p18 + 12, p18 + 13, p18 + 14, p18 + 15, p18 + 16, p18 + 17, p18 + 18, p18 + 19, p18 + 20, p18 + 21, p18 + 22, p18 + 23, p18 + 24, p18 + 25, p18 + 26, p18 + 27, p18 + 28, p18 + 29, p18 + 30, p18 + 31, p18 + 32, p18 + 33, p18 + 34, p18 + 35, p18 + 36, p18 + 37, p18 + 38, p18 + 39, 12};
Line(19) = {14, 13};
Line(20) = {13, 15};
Line(21) = {16, 15};
Line(22) = {14, 16};
Line(23) = {14, 17};
Line(24) = {17, 18};
Line(25) = {13, 18};
Line(26) = {15, 19};
Line(27) = {18, 19};
Line(28) = {16, 20};
Line(29) = {20, 19};
Line(30) = {17, 20};
Curve Loop(7) = {-13, -14, 15, 14};
Surface(7) = {7};
Curve Loop(8) = {13};
Plane Surface(8) = {8};
Curve Loop(9) = {15};
Plane Surface(9) = {9};
Curve Loop(10) = {-16, -17, 18, 17};
Surface(10) = {10};
Curve Loop(11) = {16};
Plane Surface(11) = {11};
Curve Loop(12) = {18};
Plane Surface(12) = {12};
Curve Loop(13) = {-19, 22, 21, -20};
Plane Surface(13) = {13};
Curve Loop(14) = {-23, 19, 25, -24};
Plane Surface(14) = {14};
Curve Loop(15) = {-20, 25, 27, -26, -16, -13};
Plane Surface(15) = {15};
Curve Loop(16) = {-28, 21, 26, -29};
Plane Surface(16) = {16};
Curve Loop(17) = {-22, 23, 30, -28, -18, -15};
Plane Surface(17) = {17};
Curve Loop(18) = {-24, 30, 29, -27};
Plane Surface(18) = {18};
Surface Loop(1) = {13, 14, 15, 16, 17, 18, 10, 7};
Volume(1) = {1};
Surface Loop(2) = {7, 8, 9};
Volume(2) = {2};
Surface Loop(3) = {10, 11, 12};
Volume(3) = {3};
Physical Surface("WALLS") = {13, 18};
Physical Surface("LOAD") = {8, 11};
Physical Surface("BORDER") = {7, 9, 10, 12, 14, 15, 16, 17};
Physical Volume("SOLID") = {1, 2, 3};
