cl__1 = 0.145545;
cl__2 = 0.139432;
cl__3 = 0.5119939999999999;
cl__4 = 0.644184;
cl__5 = 2.730236;
cl__6 = 3.024512;
Point(9) = {8.620685999999999, -1.413140000000001, 0.1, cl__1};
Point(10) = {8.620685999999999, -1.413140000000001, 0, cl__1};
Point(11) = {16.245063, -1.123201, 0.1, cl__2};
Point(12) = {16.245063, -1.123201, 0, cl__2};
Point(13) = {0.586827, -3.807092, 0.1, cl__3};
Point(14) = {0.586827, -3.807092, 0, cl__3};
Point(15) = {0.586827, 3.861794, 0.1, cl__4};
Point(16) = {0.586827, 3.861794, 0, cl__4};
Point(17) = {31.162683, -3.807092, 0, cl__5};
Point(18) = {31.162683, -3.807092, 0.1, cl__5};
Point(19) = {31.162683, 3.861794, 0.1, cl__6};
Point(20) = {31.162683, 3.861794, 0, cl__6};
p13 = newp;
Point(p13 + 1) = {8.60276704456583, -1.185458083595056, 0.1};
Point(p13 + 2) = {8.549451402415716, -0.9633824516049604, 0.1};
Point(p13 + 3) = {8.462051881603863, -0.7523813431160757, 0.1};
Point(p13 + 4) = {8.34272054839504, -0.5576503056919292, 0.1};
Point(p13 + 5) = {8.194395736250836, -0.3839842637491644, 0.1};
Point(p13 + 6) = {8.02072969430807, -0.2356594516049604, 0.1};
Point(p13 + 7) = {7.825998656883924, -0.1163281183961369, 0.1};
Point(p13 + 8) = {7.614997548395039, -0.02892859758428412, 0.1};
Point(p13 + 9) = {7.392921916404944, 0.02438704456583074, 0.1};
Point(p13 + 10) = {7.16524, 0.04230599999999995, 0.1};
Point(p13 + 11) = {6.937558083595055, 0.02438704456583074, 0.1};
Point(p13 + 12) = {6.71548245160496, -0.0289285975842839, 0.1};
Point(p13 + 13) = {6.504481343116075, -0.1163281183961367, 0.1};
Point(p13 + 14) = {6.309750305691929, -0.2356594516049604, 0.1};
Point(p13 + 15) = {6.136084263749164, -0.3839842637491642, 0.1};
Point(p13 + 16) = {5.98775945160496, -0.5576503056919291, 0.1};
Point(p13 + 17) = {5.868428118396137, -0.7523813431160755, 0.1};
Point(p13 + 18) = {5.781028597584283, -0.9633824516049603, 0.1};
Point(p13 + 19) = {5.727712955434169, -1.185458083595056, 0.1};
Point(p13 + 20) = {5.709794, -1.41314, 0.1};
Point(p13 + 21) = {5.727712955434169, -1.640821916404944, 0.1};
Point(p13 + 22) = {5.781028597584283, -1.86289754839504, 0.1};
Point(p13 + 23) = {5.868428118396136, -2.073898656883924, 0.1};
Point(p13 + 24) = {5.98775945160496, -2.268629694308071, 0.1};
Point(p13 + 25) = {6.136084263749163, -2.442295736250836, 0.1};
Point(p13 + 26) = {6.309750305691929, -2.59062054839504, 0.1};
Point(p13 + 27) = {6.504481343116075, -2.709951881603863, 0.1};
Point(p13 + 28) = {6.71548245160496, -2.797351402415716, 0.1};
Point(p13 + 29) = {6.937558083595055, -2.850667044565831, 0.1};
Point(p13 + 30) = {7.16524, -2.868586, 0.1};
Point(p13 + 31) = {7.392921916404943, -2.850667044565831, 0.1};
Point(p13 + 32) = {7.614997548395039, -2.797351402415716, 0.1};
Point(p13 + 33) = {7.825998656883924, -2.709951881603863, 0.1};
Point(p13 + 34) = {8.02072969430807, -2.59062054839504, 0.1};
Point(p13 + 35) = {8.194395736250836, -2.442295736250836, 0.1};
Point(p13 + 36) = {8.34272054839504, -2.268629694308071, 0.1};
Point(p13 + 37) = {8.462051881603863, -2.073898656883925, 0.1};
Point(p13 + 38) = {8.549451402415716, -1.86289754839504, 0.1};
Point(p13 + 39) = {8.60276704456583, -1.640821916404944, 0.1};
Spline(13) = {9, p13 + 1, p13 + 2, p13 + 3, p13 + 4, p13 + 5, p13 + 6, p13 + 7, p13 + 8, p13 + 9, p13 + 10, p13 + 11, p13 + 12, p13 + 13, p13 + 14, p13 + 15, p13 + 16, p13 + 17, p13 + 18, p13 + 19, p13 + 20, p13 + 21, p13 + 22, p13 + 23, p13 + 24, p13 + 25, p13 + 26, p13 + 27, p13 + 28, p13 + 29, p13 + 30, p13 + 31, p13 + 32, p13 + 33, p13 + 34, p13 + 35, p13 + 36, p13 + 37, p13 + 38, p13 + 39, 9};
Line(14) = {10, 9};
p15 = newp;
Point(p15 + 1) = {8.60276704456583, -1.185458083595056, 0};
Point(p15 + 2) = {8.549451402415716, -0.9633824516049604, 0};
Point(p15 + 3) = {8.462051881603863, -0.7523813431160757, 0};
Point(p15 + 4) = {8.34272054839504, -0.5576503056919292, 0};
Point(p15 + 5) = {8.194395736250836, -0.3839842637491644, 0};
Point(p15 + 6) = {8.02072969430807, -0.2356594516049604, 0};
Point(p15 + 7) = {7.825998656883924, -0.1163281183961369, 0};
Point(p15 + 8) = {7.614997548395039, -0.02892859758428412, 0};
Point(p15 + 9) = {7.392921916404944, 0.02438704456583074, 0};
Point(p15 + 10) = {7.16524, 0.04230599999999995, 0};
Point(p15 + 11) = {6.937558083595055, 0.02438704456583074, 0};
Point(p15 + 12) = {6.71548245160496, -0.0289285975842839, 0};
Point(p15 + 13) = {6.504481343116075, -0.1163281183961367, 0};
Point(p15 + 14) = {6.309750305691929, -0.2356594516049604, 0};
Point(p15 + 15) = {6.136084263749164, -0.3839842637491642, 0};
Point(p15 + 16) = {5.98775945160496, -0.5576503056919291, 0};
Point(p15 + 17) = {5.868428118396137, -0.7523813431160755, 0};
Point(p15 + 18) = {5.781028597584283, -0.9633824516049603, 0};
Point(p15 + 19) = {5.727712955434169, -1.185458083595056, 0};
Point(p15 + 20) = {5.709794, -1.41314, 0};
Point(p15 + 21) = {5.727712955434169, -1.640821916404944, 0};
Point(p15 + 22) = {5.781028597584283, -1.86289754839504, 0};
Point(p15 + 23) = {5.868428118396136, -2.073898656883924, 0};
Point(p15 + 24) = {5.98775945160496, -2.268629694308071, 0};
Point(p15 + 25) = {6.136084263749163, -2.442295736250836, 0};
Point(p15 + 26) = {6.309750305691929, -2.59062054839504, 0};
Point(p15 + 27) = {6.504481343116075, -2.709951881603863, 0};
Point(p15 + 28) = {6.71548245160496, -2.797351402415716, 0};
Point(p15 + 29) = {6.937558083595055, -2.850667044565831, 0};
Point(p15 + 30) = {7.16524, -2.868586, 0};
Point(p15 + 31) = {7.392921916404943, -2.850667044565831, 0};
Point(p15 + 32) = {7.614997548395039, -2.797351402415716, 0};
Point(p15 + 33) = {7.825998656883924, -2.709951881603863, 0};
Point(p15 + 34) = {8.02072969430807, -2.59062054839504, 0};
Point(p15 + 35) = {8.194395736250836, -2.442295736250836, 0};
Point(p15 + 36) = {8.34272054839504, -2.268629694308071, 0};
Point(p15 + 37) = {8.462051881603863, -2.073898656883925, 0};
Point(p15 + 38) = {8.549451402415716, -1.86289754839504, 0};
Point(p15 + 39) = {8.60276704456583, -1.640821916404944, 0};
Spline(15) = {10, p15 + 1, p15 + 2, p15 + 3, p15 + 4, p15 + 5, p15 + 6, p15 + 7, p15 + 8, p15 + 9, p15 + 10, p15 + 11, p15 + 12, p15 + 13, p15 + 14, p15 + 15, p15 + 16, p15 + 17, p15 + 18, p15 + 19, p15 + 20, p15 + 21, p15 + 22, p15 + 23, p15 + 24, p15 + 25, p15 + 26, p15 + 27, p15 + 28, p15 + 29, p15 + 30, p15 + 31, p15 + 32, p15 + 33, p15 + 34, p15 + 35, p15 + 36, p15 + 37, p15 + 38, p15 + 39, 10};
p16 = newp;
Point(p16 + 1) = {16.22789665630525, -0.9050819224429654, 0.1};
Point(p16 + 2) = {16.1768203175746, -0.6923336604711008, 0.1};
Point(p16 + 3) = {16.09309165278023, -0.490194782365154, 0.1};
Point(p16 + 4) = {15.9787723395289, -0.3036426181645678, 0.1};
Point(p16 + 5) = {15.8366772987169, -0.1372707012830977, 0.1};
Point(p16 + 6) = {15.67030538183543, 0.00482433952889938, 0.1};
Point(p16 + 7) = {15.48375321763485, 0.1191436527802283, 0.1};
Point(p16 + 8) = {15.2816143395289, 0.2028723175745935, 0.1};
Point(p16 + 9) = {15.06886607755703, 0.2539486563052504, 0.1};
Point(p16 + 10) = {14.850747, 0.2711150000000002, 0.1};
Point(p16 + 11) = {14.63262792244297, 0.2539486563052502, 0.1};
Point(p16 + 12) = {14.4198796604711, 0.2028723175745937, 0.1};
Point(p16 + 13) = {14.21774078236515, 0.1191436527802285, 0.1};
Point(p16 + 14) = {14.03118861816457, 0.00482433952889938, 0.1};
Point(p16 + 15) = {13.8648167012831, -0.1372707012830976, 0.1};
Point(p16 + 16) = {13.7227216604711, -0.3036426181645677, 0.1};
Point(p16 + 17) = {13.60840234721977, -0.4901947823651538, 0.1};
Point(p16 + 18) = {13.52467368242541, -0.6923336604711006, 0.1};
Point(p16 + 19) = {13.47359734369475, -0.9050819224429651, 0.1};
Point(p16 + 20) = {13.456431, -1.123201, 0.1};
Point(p16 + 21) = {13.47359734369475, -1.341320077557034, 0.1};
Point(p16 + 22) = {13.52467368242541, -1.5540683395289, 0.1};
Point(p16 + 23) = {13.60840234721977, -1.756207217634845, 0.1};
Point(p16 + 24) = {13.7227216604711, -1.942759381835432, 0.1};
Point(p16 + 25) = {13.8648167012831, -2.109131298716902, 0.1};
Point(p16 + 26) = {14.03118861816457, -2.251226339528899, 0.1};
Point(p16 + 27) = {14.21774078236515, -2.365545652780228, 0.1};
Point(p16 + 28) = {14.4198796604711, -2.449274317574593, 0.1};
Point(p16 + 29) = {14.63262792244297, -2.50035065630525, 0.1};
Point(p16 + 30) = {14.850747, -2.517517, 0.1};
Point(p16 + 31) = {15.06886607755703, -2.50035065630525, 0.1};
Point(p16 + 32) = {15.2816143395289, -2.449274317574593, 0.1};
Point(p16 + 33) = {15.48375321763485, -2.365545652780229, 0.1};
Point(p16 + 34) = {15.67030538183543, -2.251226339528899, 0.1};
Point(p16 + 35) = {15.8366772987169, -2.109131298716902, 0.1};
Point(p16 + 36) = {15.9787723395289, -1.942759381835432, 0.1};
Point(p16 + 37) = {16.09309165278023, -1.756207217634846, 0.1};
Point(p16 + 38) = {16.1768203175746, -1.554068339528899, 0.1};
Point(p16 + 39) = {16.22789665630525, -1.341320077557035, 0.1};
Spline(16) = {11, p16 + 1, p16 + 2, p16 + 3, p16 + 4, p16 + 5, p16 + 6, p16 + 7, p16 + 8, p16 + 9, p16 + 10, p16 + 11, p16 + 12, p16 + 13, p16 + 14, p16 + 15, p16 + 16, p16 + 17, p16 + 18, p16 + 19, p16 + 20, p16 + 21, p16 + 22, p16 + 23, p16 + 24, p16 + 25, p16 + 26, p16 + 27, p16 + 28, p16 + 29, p16 + 30, p16 + 31, p16 + 32, p16 + 33, p16 + 34, p16 + 35, p16 + 36, p16 + 37, p16 + 38, p16 + 39, 11};
Line(17) = {12, 11};
p18 = newp;
Point(p18 + 1) = {16.22789665630525, -0.9050819224429654, 0};
Point(p18 + 2) = {16.1768203175746, -0.6923336604711008, 0};
Point(p18 + 3) = {16.09309165278023, -0.490194782365154, 0};
Point(p18 + 4) = {15.9787723395289, -0.3036426181645678, 0};
Point(p18 + 5) = {15.8366772987169, -0.1372707012830977, 0};
Point(p18 + 6) = {15.67030538183543, 0.00482433952889938, 0};
Point(p18 + 7) = {15.48375321763485, 0.1191436527802283, 0};
Point(p18 + 8) = {15.2816143395289, 0.2028723175745935, 0};
Point(p18 + 9) = {15.06886607755703, 0.2539486563052504, 0};
Point(p18 + 10) = {14.850747, 0.2711150000000002, 0};
Point(p18 + 11) = {14.63262792244297, 0.2539486563052502, 0};
Point(p18 + 12) = {14.4198796604711, 0.2028723175745937, 0};
Point(p18 + 13) = {14.21774078236515, 0.1191436527802285, 0};
Point(p18 + 14) = {14.03118861816457, 0.00482433952889938, 0};
Point(p18 + 15) = {13.8648167012831, -0.1372707012830976, 0};
Point(p18 + 16) = {13.7227216604711, -0.3036426181645677, 0};
Point(p18 + 17) = {13.60840234721977, -0.4901947823651538, 0};
Point(p18 + 18) = {13.52467368242541, -0.6923336604711006, 0};
Point(p18 + 19) = {13.47359734369475, -0.9050819224429651, 0};
Point(p18 + 20) = {13.456431, -1.123201, 0};
Point(p18 + 21) = {13.47359734369475, -1.341320077557034, 0};
Point(p18 + 22) = {13.52467368242541, -1.5540683395289, 0};
Point(p18 + 23) = {13.60840234721977, -1.756207217634845, 0};
Point(p18 + 24) = {13.7227216604711, -1.942759381835432, 0};
Point(p18 + 25) = {13.8648167012831, -2.109131298716902, 0};
Point(p18 + 26) = {14.03118861816457, -2.251226339528899, 0};
Point(p18 + 27) = {14.21774078236515, -2.365545652780228, 0};
Point(p18 + 28) = {14.4198796604711, -2.449274317574593, 0};
Point(p18 + 29) = {14.63262792244297, -2.50035065630525, 0};
Point(p18 + 30) = {14.850747, -2.517517, 0};
Point(p18 + 31) = {15.06886607755703, -2.50035065630525, 0};
Point(p18 + 32) = {15.2816143395289, -2.449274317574593, 0};
Point(p18 + 33) = {15.48375321763485, -2.365545652780229, 0};
Point(p18 + 34) = {15.67030538183543, -2.251226339528899, 0};
Point(p18 + 35) = {15.8366772987169, -2.109131298716902, 0};
Point(p18 + 36) = {15.9787723395289, -1.942759381835432, 0};
Point(p18 + 37) = {16.09309165278023, -1.756207217634846, 0};
Point(p18 + 38) = {16.1768203175746, -1.554068339528899, 0};
Point(p18 + 39) = {16.22789665630525, -1.341320077557035, 0};
Spline(18) = {12, p18 + 1, p18 + 2, p18 + 3, p18 + 4, p18 + 5, p18 + 6, p18 + 7, p18 + 8, p18 + 9, p18 + 10, p18 + 11, p18 + 12, p18 + 13, p18 + 14, p18 + 15, p18 + 16, p18 + 17, p18 + 18, p18 + 19, p18 + 20, p18 + 21, p18 + 22, p18 + 23, p18 + 24, p18 + 25, p18 + 26, p18 + 27, p18 + 28, p18 + 29, p18 + 30, p18 + 31, p18 + 32, p18 + 33, p18 + 34, p18 + 35, p18 + 36, p18 + 37, p18 + 38, p18 + 39, 12};
Line(19) = {14, 13};
Line(20) = {13, 15};
Line(21) = {16, 15};
Line(22) = {14, 16};
Line(23) = {14, 17};
Line(24) = {17, 18};
Line(25) = {13, 18};
Line(26) = {15, 19};
Line(27) = {18, 19};
Line(28) = {16, 20};
Line(29) = {20, 19};
Line(30) = {17, 20};
Curve Loop(7) = {-13, -14, 15, 14};
Surface(7) = {7};
Curve Loop(8) = {13};
Plane Surface(8) = {8};
Curve Loop(9) = {15};
Plane Surface(9) = {9};
Curve Loop(10) = {-16, -17, 18, 17};
Surface(10) = {10};
Curve Loop(11) = {16};
Plane Surface(11) = {11};
Curve Loop(12) = {18};
Plane Surface(12) = {12};
Curve Loop(13) = {-19, 22, 21, -20};
Plane Surface(13) = {13};
Curve Loop(14) = {-23, 19, 25, -24};
Plane Surface(14) = {14};
Curve Loop(15) = {-20, 25, 27, -26, -13, -16};
Plane Surface(15) = {15};
Curve Loop(16) = {-28, 21, 26, -29};
Plane Surface(16) = {16};
Curve Loop(17) = {-22, 23, 30, -28, -15, -18};
Plane Surface(17) = {17};
Curve Loop(18) = {-24, 30, 29, -27};
Plane Surface(18) = {18};
Surface Loop(1) = {13, 14, 15, 16, 17, 18, 7, 10};
Volume(1) = {1};
Surface Loop(2) = {7, 8, 9};
Volume(2) = {2};
Surface Loop(3) = {10, 11, 12};
Volume(3) = {3};
Physical Surface("WALLS") = {13, 18};
Physical Surface("LOAD") = {8, 11};
Physical Surface("BORDER") = {7, 9, 10, 12, 14, 15, 16, 17};
Physical Volume("SOLID") = {1, 2, 3};
