cl__1 = 0.096802;
cl__2 = 0.106778;
cl__3 = 5.538597;
cl__4 = 5.310641;
cl__5 = 0.342318;
cl__6 = 0.143709;
Point(9) = {37.69605, 2.786594, 0.1, cl__1};
Point(10) = {37.69605, 2.786594, 0, cl__1};
Point(11) = {29.893331, 2.308015, 0.1, cl__2};
Point(12) = {29.893331, 2.308015, 0, cl__2};
Point(13) = {0.723118, -3.032162, 0.1, cl__3};
Point(14) = {0.723118, -3.032162, 0, cl__3};
Point(15) = {0.723118, 4.9055, 0.1, cl__4};
Point(16) = {0.723118, 4.9055, 0, cl__4};
Point(17) = {39.132298, -3.032162, 0, cl__5};
Point(18) = {39.132298, -3.032162, 0.1, cl__5};
Point(19) = {39.132298, 4.9055, 0.1, cl__6};
Point(20) = {39.132298, 4.9055, 0, cl__6};
p13 = newp;
Point(p13 + 1) = {37.68413205515125, 2.938025847282709, 0.1};
Point(p13 + 2) = {37.64867167996055, 3.085728939911831, 0.1};
Point(p13 + 3) = {37.59054202655135, 3.226066337548376, 0.1};
Point(p13 + 4) = {37.51117443991183, 3.355582467709412, 0.1};
Point(p13 + 5) = {37.41252321343098, 3.471088213430983, 0.1};
Point(p13 + 6) = {37.29701746770941, 3.569739439911831, 0.1};
Point(p13 + 7) = {37.16750133754837, 3.649107026551348, 0.1};
Point(p13 + 8) = {37.02716393991183, 3.707236679960551, 0.1};
Point(p13 + 9) = {36.87946084728271, 3.742697055151246, 0.1};
Point(p13 + 10) = {36.728029, 3.754615, 0.1};
Point(p13 + 11) = {36.57659715271729, 3.742697055151246, 0.1};
Point(p13 + 12) = {36.42889406008817, 3.707236679960551, 0.1};
Point(p13 + 13) = {36.28855666245163, 3.649107026551348, 0.1};
Point(p13 + 14) = {36.15904053229059, 3.569739439911831, 0.1};
Point(p13 + 15) = {36.04353478656902, 3.471088213430983, 0.1};
Point(p13 + 16) = {35.94488356008817, 3.355582467709412, 0.1};
Point(p13 + 17) = {35.86551597344865, 3.226066337548376, 0.1};
Point(p13 + 18) = {35.80738632003945, 3.085728939911831, 0.1};
Point(p13 + 19) = {35.77192594484875, 2.938025847282709, 0.1};
Point(p13 + 20) = {35.760008, 2.786594, 0.1};
Point(p13 + 21) = {35.77192594484875, 2.635162152717291, 0.1};
Point(p13 + 22) = {35.80738632003945, 2.487459060088169, 0.1};
Point(p13 + 23) = {35.86551597344865, 2.347121662451625, 0.1};
Point(p13 + 24) = {35.94488356008817, 2.217605532290588, 0.1};
Point(p13 + 25) = {36.04353478656902, 2.102099786569017, 0.1};
Point(p13 + 26) = {36.15904053229059, 2.003448560088169, 0.1};
Point(p13 + 27) = {36.28855666245163, 1.924080973448652, 0.1};
Point(p13 + 28) = {36.42889406008817, 1.865951320039449, 0.1};
Point(p13 + 29) = {36.57659715271729, 1.830490944848754, 0.1};
Point(p13 + 30) = {36.728029, 1.818573, 0.1};
Point(p13 + 31) = {36.87946084728271, 1.830490944848754, 0.1};
Point(p13 + 32) = {37.02716393991183, 1.865951320039449, 0.1};
Point(p13 + 33) = {37.16750133754837, 1.924080973448652, 0.1};
Point(p13 + 34) = {37.29701746770941, 2.003448560088169, 0.1};
Point(p13 + 35) = {37.41252321343098, 2.102099786569017, 0.1};
Point(p13 + 36) = {37.51117443991183, 2.217605532290588, 0.1};
Point(p13 + 37) = {37.59054202655135, 2.347121662451624, 0.1};
Point(p13 + 38) = {37.64867167996055, 2.487459060088169, 0.1};
Point(p13 + 39) = {37.68413205515125, 2.635162152717291, 0.1};
Spline(13) = {9, p13 + 1, p13 + 2, p13 + 3, p13 + 4, p13 + 5, p13 + 6, p13 + 7, p13 + 8, p13 + 9, p13 + 10, p13 + 11, p13 + 12, p13 + 13, p13 + 14, p13 + 15, p13 + 16, p13 + 17, p13 + 18, p13 + 19, p13 + 20, p13 + 21, p13 + 22, p13 + 23, p13 + 24, p13 + 25, p13 + 26, p13 + 27, p13 + 28, p13 + 29, p13 + 30, p13 + 31, p13 + 32, p13 + 33, p13 + 34, p13 + 35, p13 + 36, p13 + 37, p13 + 38, p13 + 39, 9};
Line(14) = {10, 9};
p15 = newp;
Point(p15 + 1) = {37.68413205515125, 2.938025847282709, 0};
Point(p15 + 2) = {37.64867167996055, 3.085728939911831, 0};
Point(p15 + 3) = {37.59054202655135, 3.226066337548376, 0};
Point(p15 + 4) = {37.51117443991183, 3.355582467709412, 0};
Point(p15 + 5) = {37.41252321343098, 3.471088213430983, 0};
Point(p15 + 6) = {37.29701746770941, 3.569739439911831, 0};
Point(p15 + 7) = {37.16750133754837, 3.649107026551348, 0};
Point(p15 + 8) = {37.02716393991183, 3.707236679960551, 0};
Point(p15 + 9) = {36.87946084728271, 3.742697055151246, 0};
Point(p15 + 10) = {36.728029, 3.754615, 0};
Point(p15 + 11) = {36.57659715271729, 3.742697055151246, 0};
Point(p15 + 12) = {36.42889406008817, 3.707236679960551, 0};
Point(p15 + 13) = {36.28855666245163, 3.649107026551348, 0};
Point(p15 + 14) = {36.15904053229059, 3.569739439911831, 0};
Point(p15 + 15) = {36.04353478656902, 3.471088213430983, 0};
Point(p15 + 16) = {35.94488356008817, 3.355582467709412, 0};
Point(p15 + 17) = {35.86551597344865, 3.226066337548376, 0};
Point(p15 + 18) = {35.80738632003945, 3.085728939911831, 0};
Point(p15 + 19) = {35.77192594484875, 2.938025847282709, 0};
Point(p15 + 20) = {35.760008, 2.786594, 0};
Point(p15 + 21) = {35.77192594484875, 2.635162152717291, 0};
Point(p15 + 22) = {35.80738632003945, 2.487459060088169, 0};
Point(p15 + 23) = {35.86551597344865, 2.347121662451625, 0};
Point(p15 + 24) = {35.94488356008817, 2.217605532290588, 0};
Point(p15 + 25) = {36.04353478656902, 2.102099786569017, 0};
Point(p15 + 26) = {36.15904053229059, 2.003448560088169, 0};
Point(p15 + 27) = {36.28855666245163, 1.924080973448652, 0};
Point(p15 + 28) = {36.42889406008817, 1.865951320039449, 0};
Point(p15 + 29) = {36.57659715271729, 1.830490944848754, 0};
Point(p15 + 30) = {36.728029, 1.818573, 0};
Point(p15 + 31) = {36.87946084728271, 1.830490944848754, 0};
Point(p15 + 32) = {37.02716393991183, 1.865951320039449, 0};
Point(p15 + 33) = {37.16750133754837, 1.924080973448652, 0};
Point(p15 + 34) = {37.29701746770941, 2.003448560088169, 0};
Point(p15 + 35) = {37.41252321343098, 2.102099786569017, 0};
Point(p15 + 36) = {37.51117443991183, 2.217605532290588, 0};
Point(p15 + 37) = {37.59054202655135, 2.347121662451624, 0};
Point(p15 + 38) = {37.64867167996055, 2.487459060088169, 0};
Point(p15 + 39) = {37.68413205515125, 2.635162152717291, 0};
Spline(15) = {10, p15 + 1, p15 + 2, p15 + 3, p15 + 4, p15 + 5, p15 + 6, p15 + 7, p15 + 8, p15 + 9, p15 + 10, p15 + 11, p15 + 12, p15 + 13, p15 + 14, p15 + 15, p15 + 16, p15 + 17, p15 + 18, p15 + 19, p15 + 20, p15 + 21, p15 + 22, p15 + 23, p15 + 24, p15 + 25, p15 + 26, p15 + 27, p15 + 28, p15 + 29, p15 + 30, p15 + 31, p15 + 32, p15 + 33, p15 + 34, p15 + 35, p15 + 36, p15 + 37, p15 + 38, p15 + 39, 10};
p16 = newp;
Point(p16 + 1) = {29.88018484400902, 2.475052749515123, 0.1};
Point(p16 + 2) = {29.84107007802616, 2.637977475270676, 0.1};
Point(p16 + 3) = {29.77694983740438, 2.792777429802393, 0.1};
Point(p16 + 4) = {29.68940297527067, 2.935640924478109, 0.1};
Point(p16 + 5) = {29.58058518592215, 3.063050185922153, 0.1};
Point(p16 + 6) = {29.45317592447811, 3.171867975270676, 0.1};
Point(p16 + 7) = {29.31031242980239, 3.25941483740438, 0.1};
Point(p16 + 8) = {29.15551247527068, 3.323535078026156, 0.1};
Point(p16 + 9) = {28.99258774951512, 3.362649844009017, 0.1};
Point(p16 + 10) = {28.82555, 3.375796, 0.1};
Point(p16 + 11) = {28.65851225048488, 3.362649844009017, 0.1};
Point(p16 + 12) = {28.49558752472932, 3.323535078026156, 0.1};
Point(p16 + 13) = {28.34078757019761, 3.25941483740438, 0.1};
Point(p16 + 14) = {28.19792407552189, 3.171867975270676, 0.1};
Point(p16 + 15) = {28.07051481407785, 3.063050185922153, 0.1};
Point(p16 + 16) = {27.96169702472933, 2.935640924478109, 0.1};
Point(p16 + 17) = {27.87415016259562, 2.792777429802393, 0.1};
Point(p16 + 18) = {27.81002992197384, 2.637977475270676, 0.1};
Point(p16 + 19) = {27.77091515599098, 2.475052749515123, 0.1};
Point(p16 + 20) = {27.757769, 2.308015, 0.1};
Point(p16 + 21) = {27.77091515599098, 2.140977250484878, 0.1};
Point(p16 + 22) = {27.81002992197384, 1.978052524729324, 0.1};
Point(p16 + 23) = {27.87415016259562, 1.823252570197608, 0.1};
Point(p16 + 24) = {27.96169702472933, 1.680389075521891, 0.1};
Point(p16 + 25) = {28.07051481407785, 1.552979814077847, 0.1};
Point(p16 + 26) = {28.19792407552189, 1.444162024729324, 0.1};
Point(p16 + 27) = {28.34078757019761, 1.356615162595621, 0.1};
Point(p16 + 28) = {28.49558752472932, 1.292494921973845, 0.1};
Point(p16 + 29) = {28.65851225048488, 1.253380155990983, 0.1};
Point(p16 + 30) = {28.82555, 1.240234, 0.1};
Point(p16 + 31) = {28.99258774951512, 1.253380155990983, 0.1};
Point(p16 + 32) = {29.15551247527068, 1.292494921973845, 0.1};
Point(p16 + 33) = {29.31031242980239, 1.35661516259562, 0.1};
Point(p16 + 34) = {29.45317592447811, 1.444162024729324, 0.1};
Point(p16 + 35) = {29.58058518592215, 1.552979814077847, 0.1};
Point(p16 + 36) = {29.68940297527067, 1.680389075521891, 0.1};
Point(p16 + 37) = {29.77694983740438, 1.823252570197607, 0.1};
Point(p16 + 38) = {29.84107007802616, 1.978052524729324, 0.1};
Point(p16 + 39) = {29.88018484400902, 2.140977250484877, 0.1};
Spline(16) = {11, p16 + 1, p16 + 2, p16 + 3, p16 + 4, p16 + 5, p16 + 6, p16 + 7, p16 + 8, p16 + 9, p16 + 10, p16 + 11, p16 + 12, p16 + 13, p16 + 14, p16 + 15, p16 + 16, p16 + 17, p16 + 18, p16 + 19, p16 + 20, p16 + 21, p16 + 22, p16 + 23, p16 + 24, p16 + 25, p16 + 26, p16 + 27, p16 + 28, p16 + 29, p16 + 30, p16 + 31, p16 + 32, p16 + 33, p16 + 34, p16 + 35, p16 + 36, p16 + 37, p16 + 38, p16 + 39, 11};
Line(17) = {12, 11};
p18 = newp;
Point(p18 + 1) = {29.88018484400902, 2.475052749515123, 0};
Point(p18 + 2) = {29.84107007802616, 2.637977475270676, 0};
Point(p18 + 3) = {29.77694983740438, 2.792777429802393, 0};
Point(p18 + 4) = {29.68940297527067, 2.935640924478109, 0};
Point(p18 + 5) = {29.58058518592215, 3.063050185922153, 0};
Point(p18 + 6) = {29.45317592447811, 3.171867975270676, 0};
Point(p18 + 7) = {29.31031242980239, 3.25941483740438, 0};
Point(p18 + 8) = {29.15551247527068, 3.323535078026156, 0};
Point(p18 + 9) = {28.99258774951512, 3.362649844009017, 0};
Point(p18 + 10) = {28.82555, 3.375796, 0};
Point(p18 + 11) = {28.65851225048488, 3.362649844009017, 0};
Point(p18 + 12) = {28.49558752472932, 3.323535078026156, 0};
Point(p18 + 13) = {28.34078757019761, 3.25941483740438, 0};
Point(p18 + 14) = {28.19792407552189, 3.171867975270676, 0};
Point(p18 + 15) = {28.07051481407785, 3.063050185922153, 0};
Point(p18 + 16) = {27.96169702472933, 2.935640924478109, 0};
Point(p18 + 17) = {27.87415016259562, 2.792777429802393, 0};
Point(p18 + 18) = {27.81002992197384, 2.637977475270676, 0};
Point(p18 + 19) = {27.77091515599098, 2.475052749515123, 0};
Point(p18 + 20) = {27.757769, 2.308015, 0};
Point(p18 + 21) = {27.77091515599098, 2.140977250484878, 0};
Point(p18 + 22) = {27.81002992197384, 1.978052524729324, 0};
Point(p18 + 23) = {27.87415016259562, 1.823252570197608, 0};
Point(p18 + 24) = {27.96169702472933, 1.680389075521891, 0};
Point(p18 + 25) = {28.07051481407785, 1.552979814077847, 0};
Point(p18 + 26) = {28.19792407552189, 1.444162024729324, 0};
Point(p18 + 27) = {28.34078757019761, 1.356615162595621, 0};
Point(p18 + 28) = {28.49558752472932, 1.292494921973845, 0};
Point(p18 + 29) = {28.65851225048488, 1.253380155990983, 0};
Point(p18 + 30) = {28.82555, 1.240234, 0};
Point(p18 + 31) = {28.99258774951512, 1.253380155990983, 0};
Point(p18 + 32) = {29.15551247527068, 1.292494921973845, 0};
Point(p18 + 33) = {29.31031242980239, 1.35661516259562, 0};
Point(p18 + 34) = {29.45317592447811, 1.444162024729324, 0};
Point(p18 + 35) = {29.58058518592215, 1.552979814077847, 0};
Point(p18 + 36) = {29.68940297527067, 1.680389075521891, 0};
Point(p18 + 37) = {29.77694983740438, 1.823252570197607, 0};
Point(p18 + 38) = {29.84107007802616, 1.978052524729324, 0};
Point(p18 + 39) = {29.88018484400902, 2.140977250484877, 0};
Spline(18) = {12, p18 + 1, p18 + 2, p18 + 3, p18 + 4, p18 + 5, p18 + 6, p18 + 7, p18 + 8, p18 + 9, p18 + 10, p18 + 11, p18 + 12, p18 + 13, p18 + 14, p18 + 15, p18 + 16, p18 + 17, p18 + 18, p18 + 19, p18 + 20, p18 + 21, p18 + 22, p18 + 23, p18 + 24, p18 + 25, p18 + 26, p18 + 27, p18 + 28, p18 + 29, p18 + 30, p18 + 31, p18 + 32, p18 + 33, p18 + 34, p18 + 35, p18 + 36, p18 + 37, p18 + 38, p18 + 39, 12};
Line(19) = {14, 13};
Line(20) = {13, 15};
Line(21) = {16, 15};
Line(22) = {14, 16};
Line(23) = {14, 17};
Line(24) = {17, 18};
Line(25) = {13, 18};
Line(26) = {15, 19};
Line(27) = {18, 19};
Line(28) = {16, 20};
Line(29) = {20, 19};
Line(30) = {17, 20};
Curve Loop(7) = {-13, -14, 15, 14};
Surface(7) = {7};
Curve Loop(8) = {13};
Plane Surface(8) = {8};
Curve Loop(9) = {15};
Plane Surface(9) = {9};
Curve Loop(10) = {-16, -17, 18, 17};
Surface(10) = {10};
Curve Loop(11) = {16};
Plane Surface(11) = {11};
Curve Loop(12) = {18};
Plane Surface(12) = {12};
Curve Loop(13) = {-19, 22, 21, -20};
Plane Surface(13) = {13};
Curve Loop(14) = {-23, 19, 25, -24};
Plane Surface(14) = {14};
Curve Loop(15) = {-20, 25, 27, -26, -16, -13};
Plane Surface(15) = {15};
Curve Loop(16) = {-28, 21, 26, -29};
Plane Surface(16) = {16};
Curve Loop(17) = {-22, 23, 30, -28, -18, -15};
Plane Surface(17) = {17};
Curve Loop(18) = {-24, 30, 29, -27};
Plane Surface(18) = {18};
Surface Loop(1) = {13, 14, 15, 16, 17, 18, 10, 7};
Volume(1) = {1};
Surface Loop(2) = {7, 8, 9};
Volume(2) = {2};
Surface Loop(3) = {10, 11, 12};
Volume(3) = {3};
Physical Surface("WALLS") = {13, 18};
Physical Surface("LOAD") = {8, 11};
Physical Surface("BORDER") = {7, 9, 10, 12, 14, 15, 16, 17};
Physical Volume("SOLID") = {1, 2, 3};
