cl__1 = 0.098417;
cl__2 = 0.128521;
cl__3 = 0.582952;
cl__4 = 0.580102;
cl__5 = 2.726324;
cl__6 = 2.985727;
Point(9) = {15.463803, -0.7110120000000002, 0.1, cl__1};
Point(10) = {15.463803, -0.7110120000000002, 0, cl__1};
Point(11) = {8.958161, 0.4185979999999997, 0.1, cl__2};
Point(12) = {8.958161, 0.4185979999999997, 0, cl__2};
Point(13) = {0.75239, -3.440741, 0.1, cl__3};
Point(14) = {0.75239, -3.440741, 0, cl__3};
Point(15) = {0.75239, 4.210839, 0.1, cl__4};
Point(16) = {0.75239, 4.210839, 0, cl__4};
Point(17) = {31.150814, -3.440741, 0, cl__5};
Point(18) = {31.150814, -3.440741, 0.1, cl__5};
Point(19) = {31.150814, 4.210839, 0.1, cl__6};
Point(20) = {31.150814, 4.210839, 0, cl__6};
p13 = newp;
Point(p13 + 1) = {15.4516862095402, -0.5570535796724259, 0.1};
Point(p13 + 2) = {15.41563419375523, -0.4068861266120192, 0.1};
Point(p13 + 3) = {15.35653467292351, -0.2642072618903308, 0.1};
Point(p13 + 4) = {15.27584287338798, -0.1325302126808121, 0.1};
Point(p13 + 5) = {15.17554569505393, -0.0150973049460732, 0.1};
Point(p13 + 6) = {15.05811278731919, 0.08519987338798074, 0.1};
Point(p13 + 7) = {14.92643573810967, 0.1658916729235144, 0.1};
Point(p13 + 8) = {14.78375687338798, 0.2249911937552339, 0.1};
Point(p13 + 9) = {14.63358942032757, 0.261043209540198, 0.1};
Point(p13 + 10) = {14.479631, 0.2731600000000001, 0.1};
Point(p13 + 11) = {14.32567257967242, 0.2610432095401979, 0.1};
Point(p13 + 12) = {14.17550512661202, 0.224991193755234, 0.1};
Point(p13 + 13) = {14.03282626189033, 0.1658916729235145, 0.1};
Point(p13 + 14) = {13.90114921268081, 0.08519987338798085, 0.1};
Point(p13 + 15) = {13.78371630494607, -0.01509730494607309, 0.1};
Point(p13 + 16) = {13.68341912661202, -0.132530212680812, 0.1};
Point(p13 + 17) = {13.60272732707648, -0.2642072618903307, 0.1};
Point(p13 + 18) = {13.54362780624477, -0.4068861266120191, 0.1};
Point(p13 + 19) = {13.5075757904598, -0.5570535796724257, 0.1};
Point(p13 + 20) = {13.495459, -0.7110119999999999, 0.1};
Point(p13 + 21) = {13.5075757904598, -0.864970420327574, 0.1};
Point(p13 + 22) = {13.54362780624477, -1.015137873387981, 0.1};
Point(p13 + 23) = {13.60272732707648, -1.157816738109669, 0.1};
Point(p13 + 24) = {13.68341912661202, -1.289493787319188, 0.1};
Point(p13 + 25) = {13.78371630494607, -1.406926695053927, 0.1};
Point(p13 + 26) = {13.90114921268081, -1.507223873387981, 0.1};
Point(p13 + 27) = {14.03282626189033, -1.587915672923514, 0.1};
Point(p13 + 28) = {14.17550512661202, -1.647015193755234, 0.1};
Point(p13 + 29) = {14.32567257967242, -1.683067209540198, 0.1};
Point(p13 + 30) = {14.479631, -1.695184, 0.1};
Point(p13 + 31) = {14.63358942032757, -1.683067209540198, 0.1};
Point(p13 + 32) = {14.78375687338798, -1.647015193755234, 0.1};
Point(p13 + 33) = {14.92643573810967, -1.587915672923514, 0.1};
Point(p13 + 34) = {15.05811278731919, -1.507223873387981, 0.1};
Point(p13 + 35) = {15.17554569505393, -1.406926695053927, 0.1};
Point(p13 + 36) = {15.27584287338798, -1.289493787319188, 0.1};
Point(p13 + 37) = {15.35653467292351, -1.157816738109669, 0.1};
Point(p13 + 38) = {15.41563419375523, -1.015137873387981, 0.1};
Point(p13 + 39) = {15.4516862095402, -0.8649704203275743, 0.1};
Spline(13) = {9, p13 + 1, p13 + 2, p13 + 3, p13 + 4, p13 + 5, p13 + 6, p13 + 7, p13 + 8, p13 + 9, p13 + 10, p13 + 11, p13 + 12, p13 + 13, p13 + 14, p13 + 15, p13 + 16, p13 + 17, p13 + 18, p13 + 19, p13 + 20, p13 + 21, p13 + 22, p13 + 23, p13 + 24, p13 + 25, p13 + 26, p13 + 27, p13 + 28, p13 + 29, p13 + 30, p13 + 31, p13 + 32, p13 + 33, p13 + 34, p13 + 35, p13 + 36, p13 + 37, p13 + 38, p13 + 39, 9};
Line(14) = {10, 9};
p15 = newp;
Point(p15 + 1) = {15.4516862095402, -0.5570535796724259, 0};
Point(p15 + 2) = {15.41563419375523, -0.4068861266120192, 0};
Point(p15 + 3) = {15.35653467292351, -0.2642072618903308, 0};
Point(p15 + 4) = {15.27584287338798, -0.1325302126808121, 0};
Point(p15 + 5) = {15.17554569505393, -0.0150973049460732, 0};
Point(p15 + 6) = {15.05811278731919, 0.08519987338798074, 0};
Point(p15 + 7) = {14.92643573810967, 0.1658916729235144, 0};
Point(p15 + 8) = {14.78375687338798, 0.2249911937552339, 0};
Point(p15 + 9) = {14.63358942032757, 0.261043209540198, 0};
Point(p15 + 10) = {14.479631, 0.2731600000000001, 0};
Point(p15 + 11) = {14.32567257967242, 0.2610432095401979, 0};
Point(p15 + 12) = {14.17550512661202, 0.224991193755234, 0};
Point(p15 + 13) = {14.03282626189033, 0.1658916729235145, 0};
Point(p15 + 14) = {13.90114921268081, 0.08519987338798085, 0};
Point(p15 + 15) = {13.78371630494607, -0.01509730494607309, 0};
Point(p15 + 16) = {13.68341912661202, -0.132530212680812, 0};
Point(p15 + 17) = {13.60272732707648, -0.2642072618903307, 0};
Point(p15 + 18) = {13.54362780624477, -0.4068861266120191, 0};
Point(p15 + 19) = {13.5075757904598, -0.5570535796724257, 0};
Point(p15 + 20) = {13.495459, -0.7110119999999999, 0};
Point(p15 + 21) = {13.5075757904598, -0.864970420327574, 0};
Point(p15 + 22) = {13.54362780624477, -1.015137873387981, 0};
Point(p15 + 23) = {13.60272732707648, -1.157816738109669, 0};
Point(p15 + 24) = {13.68341912661202, -1.289493787319188, 0};
Point(p15 + 25) = {13.78371630494607, -1.406926695053927, 0};
Point(p15 + 26) = {13.90114921268081, -1.507223873387981, 0};
Point(p15 + 27) = {14.03282626189033, -1.587915672923514, 0};
Point(p15 + 28) = {14.17550512661202, -1.647015193755234, 0};
Point(p15 + 29) = {14.32567257967242, -1.683067209540198, 0};
Point(p15 + 30) = {14.479631, -1.695184, 0};
Point(p15 + 31) = {14.63358942032757, -1.683067209540198, 0};
Point(p15 + 32) = {14.78375687338798, -1.647015193755234, 0};
Point(p15 + 33) = {14.92643573810967, -1.587915672923514, 0};
Point(p15 + 34) = {15.05811278731919, -1.507223873387981, 0};
Point(p15 + 35) = {15.17554569505393, -1.406926695053927, 0};
Point(p15 + 36) = {15.27584287338798, -1.289493787319188, 0};
Point(p15 + 37) = {15.35653467292351, -1.157816738109669, 0};
Point(p15 + 38) = {15.41563419375523, -1.015137873387981, 0};
Point(p15 + 39) = {15.4516862095402, -0.8649704203275743, 0};
Spline(15) = {10, p15 + 1, p15 + 2, p15 + 3, p15 + 4, p15 + 5, p15 + 6, p15 + 7, p15 + 8, p15 + 9, p15 + 10, p15 + 11, p15 + 12, p15 + 13, p15 + 14, p15 + 15, p15 + 16, p15 + 17, p15 + 18, p15 + 19, p15 + 20, p15 + 21, p15 + 22, p15 + 23, p15 + 24, p15 + 25, p15 + 26, p15 + 27, p15 + 28, p15 + 29, p15 + 30, p15 + 31, p15 + 32, p15 + 33, p15 + 34, p15 + 35, p15 + 36, p15 + 37, p15 + 38, p15 + 39, 10};
p16 = newp;
Point(p16 + 1) = {8.942337882969639, 0.6196497645522153, 0.1};
Point(p16 + 2) = {8.89525814953376, 0.8157509674086036, 0.1};
Point(p16 + 3) = {8.81808105897823, 1.002072946132262, 0.1};
Point(p16 + 4) = {8.712706967408604, 1.174027835239819, 0.1};
Point(p16 + 5) = {8.581730534675888, 1.327381534675887, 0.1};
Point(p16 + 6) = {8.428376835239819, 1.458357967408604, 0.1};
Point(p16 + 7) = {8.256421946132262, 1.563732058978229, 0.1};
Point(p16 + 8) = {8.070099967408604, 1.64090914953376, 0.1};
Point(p16 + 9) = {7.873998764552215, 1.687988882969639, 0.1};
Point(p16 + 10) = {7.672947, 1.703812, 0.1};
Point(p16 + 11) = {7.471895235447784, 1.687988882969639, 0.1};
Point(p16 + 12) = {7.275794032591396, 1.64090914953376, 0.1};
Point(p16 + 13) = {7.089472053867738, 1.563732058978229, 0.1};
Point(p16 + 14) = {6.917517164760182, 1.458357967408604, 0.1};
Point(p16 + 15) = {6.764163465324113, 1.327381534675887, 0.1};
Point(p16 + 16) = {6.633187032591396, 1.174027835239819, 0.1};
Point(p16 + 17) = {6.527812941021771, 1.002072946132262, 0.1};
Point(p16 + 18) = {6.45063585046624, 0.8157509674086039, 0.1};
Point(p16 + 19) = {6.403556117030361, 0.6196497645522154, 0.1};
Point(p16 + 20) = {6.387733, 0.4185980000000002, 0.1};
Point(p16 + 21) = {6.403556117030361, 0.2175462354477849, 0.1};
Point(p16 + 22) = {6.450635850466241, 0.02144503259139591, 0.1};
Point(p16 + 23) = {6.52781294102177, -0.1648769461322612, 0.1};
Point(p16 + 24) = {6.633187032591396, -0.3368318352398184, 0.1};
Point(p16 + 25) = {6.764163465324112, -0.4901855346758874, 0.1};
Point(p16 + 26) = {6.917517164760181, -0.6211619674086035, 0.1};
Point(p16 + 27) = {7.089472053867738, -0.726536058978229, 0.1};
Point(p16 + 28) = {7.275794032591396, -0.8037131495337595, 0.1};
Point(p16 + 29) = {7.471895235447784, -0.8507928829696394, 0.1};
Point(p16 + 30) = {7.672947, -0.8666160000000001, 0.1};
Point(p16 + 31) = {7.873998764552215, -0.8507928829696394, 0.1};
Point(p16 + 32) = {8.070099967408604, -0.8037131495337597, 0.1};
Point(p16 + 33) = {8.256421946132262, -0.7265360589782293, 0.1};
Point(p16 + 34) = {8.428376835239819, -0.621161967408604, 0.1};
Point(p16 + 35) = {8.581730534675888, -0.4901855346758878, 0.1};
Point(p16 + 36) = {8.712706967408604, -0.3368318352398187, 0.1};
Point(p16 + 37) = {8.81808105897823, -0.1648769461322621, 0.1};
Point(p16 + 38) = {8.89525814953376, 0.02144503259139607, 0.1};
Point(p16 + 39) = {8.942337882969639, 0.2175462354477844, 0.1};
Spline(16) = {11, p16 + 1, p16 + 2, p16 + 3, p16 + 4, p16 + 5, p16 + 6, p16 + 7, p16 + 8, p16 + 9, p16 + 10, p16 + 11, p16 + 12, p16 + 13, p16 + 14, p16 + 15, p16 + 16, p16 + 17, p16 + 18, p16 + 19, p16 + 20, p16 + 21, p16 + 22, p16 + 23, p16 + 24, p16 + 25, p16 + 26, p16 + 27, p16 + 28, p16 + 29, p16 + 30, p16 + 31, p16 + 32, p16 + 33, p16 + 34, p16 + 35, p16 + 36, p16 + 37, p16 + 38, p16 + 39, 11};
Line(17) = {12, 11};
p18 = newp;
Point(p18 + 1) = {8.942337882969639, 0.6196497645522153, 0};
Point(p18 + 2) = {8.89525814953376, 0.8157509674086036, 0};
Point(p18 + 3) = {8.81808105897823, 1.002072946132262, 0};
Point(p18 + 4) = {8.712706967408604, 1.174027835239819, 0};
Point(p18 + 5) = {8.581730534675888, 1.327381534675887, 0};
Point(p18 + 6) = {8.428376835239819, 1.458357967408604, 0};
Point(p18 + 7) = {8.256421946132262, 1.563732058978229, 0};
Point(p18 + 8) = {8.070099967408604, 1.64090914953376, 0};
Point(p18 + 9) = {7.873998764552215, 1.687988882969639, 0};
Point(p18 + 10) = {7.672947, 1.703812, 0};
Point(p18 + 11) = {7.471895235447784, 1.687988882969639, 0};
Point(p18 + 12) = {7.275794032591396, 1.64090914953376, 0};
Point(p18 + 13) = {7.089472053867738, 1.563732058978229, 0};
Point(p18 + 14) = {6.917517164760182, 1.458357967408604, 0};
Point(p18 + 15) = {6.764163465324113, 1.327381534675887, 0};
Point(p18 + 16) = {6.633187032591396, 1.174027835239819, 0};
Point(p18 + 17) = {6.527812941021771, 1.002072946132262, 0};
Point(p18 + 18) = {6.45063585046624, 0.8157509674086039, 0};
Point(p18 + 19) = {6.403556117030361, 0.6196497645522154, 0};
Point(p18 + 20) = {6.387733, 0.4185980000000002, 0};
Point(p18 + 21) = {6.403556117030361, 0.2175462354477849, 0};
Point(p18 + 22) = {6.450635850466241, 0.02144503259139591, 0};
Point(p18 + 23) = {6.52781294102177, -0.1648769461322612, 0};
Point(p18 + 24) = {6.633187032591396, -0.3368318352398184, 0};
Point(p18 + 25) = {6.764163465324112, -0.4901855346758874, 0};
Point(p18 + 26) = {6.917517164760181, -0.6211619674086035, 0};
Point(p18 + 27) = {7.089472053867738, -0.726536058978229, 0};
Point(p18 + 28) = {7.275794032591396, -0.8037131495337595, 0};
Point(p18 + 29) = {7.471895235447784, -0.8507928829696394, 0};
Point(p18 + 30) = {7.672947, -0.8666160000000001, 0};
Point(p18 + 31) = {7.873998764552215, -0.8507928829696394, 0};
Point(p18 + 32) = {8.070099967408604, -0.8037131495337597, 0};
Point(p18 + 33) = {8.256421946132262, -0.7265360589782293, 0};
Point(p18 + 34) = {8.428376835239819, -0.621161967408604, 0};
Point(p18 + 35) = {8.581730534675888, -0.4901855346758878, 0};
Point(p18 + 36) = {8.712706967408604, -0.3368318352398187, 0};
Point(p18 + 37) = {8.81808105897823, -0.1648769461322621, 0};
Point(p18 + 38) = {8.89525814953376, 0.02144503259139607, 0};
Point(p18 + 39) = {8.942337882969639, 0.2175462354477844, 0};
Spline(18) = {12, p18 + 1, p18 + 2, p18 + 3, p18 + 4, p18 + 5, p18 + 6, p18 + 7, p18 + 8, p18 + 9, p18 + 10, p18 + 11, p18 + 12, p18 + 13, p18 + 14, p18 + 15, p18 + 16, p18 + 17, p18 + 18, p18 + 19, p18 + 20, p18 + 21, p18 + 22, p18 + 23, p18 + 24, p18 + 25, p18 + 26, p18 + 27, p18 + 28, p18 + 29, p18 + 30, p18 + 31, p18 + 32, p18 + 33, p18 + 34, p18 + 35, p18 + 36, p18 + 37, p18 + 38, p18 + 39, 12};
Line(19) = {14, 13};
Line(20) = {13, 15};
Line(21) = {16, 15};
Line(22) = {14, 16};
Line(23) = {14, 17};
Line(24) = {17, 18};
Line(25) = {13, 18};
Line(26) = {15, 19};
Line(27) = {18, 19};
Line(28) = {16, 20};
Line(29) = {20, 19};
Line(30) = {17, 20};
Curve Loop(7) = {-13, -14, 15, 14};
Surface(7) = {7};
Curve Loop(8) = {13};
Plane Surface(8) = {8};
Curve Loop(9) = {15};
Plane Surface(9) = {9};
Curve Loop(10) = {-16, -17, 18, 17};
Surface(10) = {10};
Curve Loop(11) = {16};
Plane Surface(11) = {11};
Curve Loop(12) = {18};
Plane Surface(12) = {12};
Curve Loop(13) = {-19, 22, 21, -20};
Plane Surface(13) = {13};
Curve Loop(14) = {-23, 19, 25, -24};
Plane Surface(14) = {14};
Curve Loop(15) = {-20, 25, 27, -26, -13, -16};
Plane Surface(15) = {15};
Curve Loop(16) = {-28, 21, 26, -29};
Plane Surface(16) = {16};
Curve Loop(17) = {-22, 23, 30, -28, -15, -18};
Plane Surface(17) = {17};
Curve Loop(18) = {-24, 30, 29, -27};
Plane Surface(18) = {18};
Surface Loop(1) = {13, 14, 15, 16, 17, 18, 7, 10};
Volume(1) = {1};
Surface Loop(2) = {7, 8, 9};
Volume(2) = {2};
Surface Loop(3) = {10, 11, 12};
Volume(3) = {3};
Physical Surface("WALLS") = {13, 18};
Physical Surface("LOAD") = {8, 11};
Physical Surface("BORDER") = {7, 9, 10, 12, 14, 15, 16, 17};
Physical Volume("SOLID") = {1, 2, 3};
