cl__1 = 0.077125;
cl__2 = 0.060301;
cl__3 = 0.150705;
cl__4 = 0.486128;
cl__5 = 4.851527;
cl__6 = 4.659867;
Point(9) = {9.642982, 1.19019, 0.1, cl__1};
Point(10) = {9.642982, 1.19019, 0, cl__1};
Point(11) = {3.258659, -2.740791000000001, 0.1, cl__2};
Point(12) = {3.258659, -2.740791000000001, 0, cl__2};
Point(13) = {0.161999, -3.885978, 1, cl__3};
Point(14) = {0.161999, -3.885978, 0, cl__3};
Point(15) = {0.161999, 4.342413000000001, 1, cl__4};
Point(16) = {0.161999, 4.342413000000001, 0, cl__4};
Point(17) = {33.168782, -3.885978, 0, cl__5};
Point(18) = {33.168782, -3.885978, 1, cl__5};
Point(19) = {33.168782, 4.342413000000001, 1, cl__6};
Point(20) = {33.168782, 4.342413000000001, 0, cl__6};
p13 = newp;
Point(p13 + 1) = {9.633486657307319, 1.310839768293348, 0.1};
Point(p13 + 2) = {9.605234436079604, 1.428518738877689, 0.1};
Point(p13 + 3) = {9.558920999767231, 1.540329264943126, 0.1};
Point(p13 + 4) = {9.495686738877689, 1.643518200260065, 0.1};
Point(p13 + 5) = {9.417088690776563, 1.735544690776563, 0.1};
Point(p13 + 6) = {9.325062200260065, 1.81414273887769, 0.1};
Point(p13 + 7) = {9.221873264943126, 1.87737699976723, 0.1};
Point(p13 + 8) = {9.110062738877689, 1.923690436079605, 0.1};
Point(p13 + 9) = {8.992383768293347, 1.951942657307319, 0.1};
Point(p13 + 10) = {8.871734, 1.961438, 0.1};
Point(p13 + 11) = {8.751084231706653, 1.951942657307319, 0.1};
Point(p13 + 12) = {8.633405261122311, 1.923690436079605, 0.1};
Point(p13 + 13) = {8.521594735056874, 1.87737699976723, 0.1};
Point(p13 + 14) = {8.418405799739935, 1.81414273887769, 0.1};
Point(p13 + 15) = {8.326379309223437, 1.735544690776563, 0.1};
Point(p13 + 16) = {8.247781261122311, 1.643518200260065, 0.1};
Point(p13 + 17) = {8.18454700023277, 1.540329264943126, 0.1};
Point(p13 + 18) = {8.138233563920396, 1.42851873887769, 0.1};
Point(p13 + 19) = {8.109981342692681, 1.310839768293348, 0.1};
Point(p13 + 20) = {8.100486, 1.19019, 0.1};
Point(p13 + 21) = {8.109981342692681, 1.069540231706652, 0.1};
Point(p13 + 22) = {8.138233563920396, 0.9518612611223104, 0.1};
Point(p13 + 23) = {8.184547000232769, 0.8400507350568744, 0.1};
Point(p13 + 24) = {8.247781261122311, 0.7368617997399348, 0.1};
Point(p13 + 25) = {8.326379309223437, 0.6448353092234377, 0.1};
Point(p13 + 26) = {8.418405799739935, 0.5662372611223107, 0.1};
Point(p13 + 27) = {8.521594735056874, 0.5030030002327698, 0.1};
Point(p13 + 28) = {8.633405261122311, 0.4566895639203955, 0.1};
Point(p13 + 29) = {8.751084231706653, 0.4284373426926813, 0.1};
Point(p13 + 30) = {8.871734, 0.418942, 0.1};
Point(p13 + 31) = {8.992383768293347, 0.4284373426926812, 0.1};
Point(p13 + 32) = {9.110062738877689, 0.4566895639203954, 0.1};
Point(p13 + 33) = {9.221873264943126, 0.5030030002327696, 0.1};
Point(p13 + 34) = {9.325062200260065, 0.5662372611223105, 0.1};
Point(p13 + 35) = {9.417088690776563, 0.6448353092234376, 0.1};
Point(p13 + 36) = {9.495686738877689, 0.7368617997399347, 0.1};
Point(p13 + 37) = {9.55892099976723, 0.840050735056874, 0.1};
Point(p13 + 38) = {9.605234436079604, 0.9518612611223105, 0.1};
Point(p13 + 39) = {9.633486657307319, 1.069540231706652, 0.1};
Spline(13) = {9, p13 + 1, p13 + 2, p13 + 3, p13 + 4, p13 + 5, p13 + 6, p13 + 7, p13 + 8, p13 + 9, p13 + 10, p13 + 11, p13 + 12, p13 + 13, p13 + 14, p13 + 15, p13 + 16, p13 + 17, p13 + 18, p13 + 19, p13 + 20, p13 + 21, p13 + 22, p13 + 23, p13 + 24, p13 + 25, p13 + 26, p13 + 27, p13 + 28, p13 + 29, p13 + 30, p13 + 31, p13 + 32, p13 + 33, p13 + 34, p13 + 35, p13 + 36, p13 + 37, p13 + 38, p13 + 39, 9};
Line(14) = {10, 9};
p15 = newp;
Point(p15 + 1) = {9.633486657307319, 1.310839768293348, 0};
Point(p15 + 2) = {9.605234436079604, 1.428518738877689, 0};
Point(p15 + 3) = {9.558920999767231, 1.540329264943126, 0};
Point(p15 + 4) = {9.495686738877689, 1.643518200260065, 0};
Point(p15 + 5) = {9.417088690776563, 1.735544690776563, 0};
Point(p15 + 6) = {9.325062200260065, 1.81414273887769, 0};
Point(p15 + 7) = {9.221873264943126, 1.87737699976723, 0};
Point(p15 + 8) = {9.110062738877689, 1.923690436079605, 0};
Point(p15 + 9) = {8.992383768293347, 1.951942657307319, 0};
Point(p15 + 10) = {8.871734, 1.961438, 0};
Point(p15 + 11) = {8.751084231706653, 1.951942657307319, 0};
Point(p15 + 12) = {8.633405261122311, 1.923690436079605, 0};
Point(p15 + 13) = {8.521594735056874, 1.87737699976723, 0};
Point(p15 + 14) = {8.418405799739935, 1.81414273887769, 0};
Point(p15 + 15) = {8.326379309223437, 1.735544690776563, 0};
Point(p15 + 16) = {8.247781261122311, 1.643518200260065, 0};
Point(p15 + 17) = {8.18454700023277, 1.540329264943126, 0};
Point(p15 + 18) = {8.138233563920396, 1.42851873887769, 0};
Point(p15 + 19) = {8.109981342692681, 1.310839768293348, 0};
Point(p15 + 20) = {8.100486, 1.19019, 0};
Point(p15 + 21) = {8.109981342692681, 1.069540231706652, 0};
Point(p15 + 22) = {8.138233563920396, 0.9518612611223104, 0};
Point(p15 + 23) = {8.184547000232769, 0.8400507350568744, 0};
Point(p15 + 24) = {8.247781261122311, 0.7368617997399348, 0};
Point(p15 + 25) = {8.326379309223437, 0.6448353092234377, 0};
Point(p15 + 26) = {8.418405799739935, 0.5662372611223107, 0};
Point(p15 + 27) = {8.521594735056874, 0.5030030002327698, 0};
Point(p15 + 28) = {8.633405261122311, 0.4566895639203955, 0};
Point(p15 + 29) = {8.751084231706653, 0.4284373426926813, 0};
Point(p15 + 30) = {8.871734, 0.418942, 0};
Point(p15 + 31) = {8.992383768293347, 0.4284373426926812, 0};
Point(p15 + 32) = {9.110062738877689, 0.4566895639203954, 0};
Point(p15 + 33) = {9.221873264943126, 0.5030030002327696, 0};
Point(p15 + 34) = {9.325062200260065, 0.5662372611223105, 0};
Point(p15 + 35) = {9.417088690776563, 0.6448353092234376, 0};
Point(p15 + 36) = {9.495686738877689, 0.7368617997399347, 0};
Point(p15 + 37) = {9.55892099976723, 0.840050735056874, 0};
Point(p15 + 38) = {9.605234436079604, 0.9518612611223105, 0};
Point(p15 + 39) = {9.633486657307319, 1.069540231706652, 0};
Spline(15) = {10, p15 + 1, p15 + 2, p15 + 3, p15 + 4, p15 + 5, p15 + 6, p15 + 7, p15 + 8, p15 + 9, p15 + 10, p15 + 11, p15 + 12, p15 + 13, p15 + 14, p15 + 15, p15 + 16, p15 + 17, p15 + 18, p15 + 19, p15 + 20, p15 + 21, p15 + 22, p15 + 23, p15 + 24, p15 + 25, p15 + 26, p15 + 27, p15 + 28, p15 + 29, p15 + 30, p15 + 31, p15 + 32, p15 + 33, p15 + 34, p15 + 35, p15 + 36, p15 + 37, p15 + 38, p15 + 39, 10};
p16 = newp;
Point(p16 + 1) = {3.251234958573933, -2.646459609670555, 0.1};
Point(p16 + 2) = {3.229145638834624, -2.554450971238957, 0.1};
Point(p16 + 3) = {3.192934953144304, -2.467030642742556, 0.1};
Point(p16 + 4) = {3.143494528761043, -2.386351202800368, 0.1};
Point(p16 + 5) = {3.082041753016519, -2.314399246983482, 0.1};
Point(p16 + 6) = {3.010089797199632, -2.252946471238958, 0.1};
Point(p16 + 7) = {2.929410357257444, -2.203506046855697, 0.1};
Point(p16 + 8) = {2.841990028761043, -2.167295361165376, 0.1};
Point(p16 + 9) = {2.749981390329445, -2.145206041426067, 0.1};
Point(p16 + 10) = {2.65565, -2.137782, 0.1};
Point(p16 + 11) = {2.561318609670555, -2.145206041426067, 0.1};
Point(p16 + 12) = {2.469309971238957, -2.167295361165376, 0.1};
Point(p16 + 13) = {2.381889642742556, -2.203506046855697, 0.1};
Point(p16 + 14) = {2.301210202800368, -2.252946471238957, 0.1};
Point(p16 + 15) = {2.229258246983481, -2.314399246983482, 0.1};
Point(p16 + 16) = {2.167805471238958, -2.386351202800368, 0.1};
Point(p16 + 17) = {2.118365046855696, -2.467030642742556, 0.1};
Point(p16 + 18) = {2.082154361165376, -2.554450971238957, 0.1};
Point(p16 + 19) = {2.060065041426067, -2.646459609670555, 0.1};
Point(p16 + 20) = {2.052641, -2.740791, 0.1};
Point(p16 + 21) = {2.060065041426067, -2.835122390329445, 0.1};
Point(p16 + 22) = {2.082154361165376, -2.927131028761043, 0.1};
Point(p16 + 23) = {2.118365046855696, -3.014551357257444, 0.1};
Point(p16 + 24) = {2.167805471238957, -3.095230797199632, 0.1};
Point(p16 + 25) = {2.229258246983481, -3.167182753016519, 0.1};
Point(p16 + 26) = {2.301210202800368, -3.228635528761043, 0.1};
Point(p16 + 27) = {2.381889642742556, -3.278075953144304, 0.1};
Point(p16 + 28) = {2.469309971238957, -3.314286638834624, 0.1};
Point(p16 + 29) = {2.561318609670555, -3.336375958573933, 0.1};
Point(p16 + 30) = {2.65565, -3.3438, 0.1};
Point(p16 + 31) = {2.749981390329444, -3.336375958573933, 0.1};
Point(p16 + 32) = {2.841990028761042, -3.314286638834624, 0.1};
Point(p16 + 33) = {2.929410357257444, -3.278075953144304, 0.1};
Point(p16 + 34) = {3.010089797199632, -3.228635528761043, 0.1};
Point(p16 + 35) = {3.082041753016519, -3.167182753016519, 0.1};
Point(p16 + 36) = {3.143494528761043, -3.095230797199632, 0.1};
Point(p16 + 37) = {3.192934953144304, -3.014551357257444, 0.1};
Point(p16 + 38) = {3.229145638834624, -2.927131028761043, 0.1};
Point(p16 + 39) = {3.251234958573933, -2.835122390329445, 0.1};
Spline(16) = {11, p16 + 1, p16 + 2, p16 + 3, p16 + 4, p16 + 5, p16 + 6, p16 + 7, p16 + 8, p16 + 9, p16 + 10, p16 + 11, p16 + 12, p16 + 13, p16 + 14, p16 + 15, p16 + 16, p16 + 17, p16 + 18, p16 + 19, p16 + 20, p16 + 21, p16 + 22, p16 + 23, p16 + 24, p16 + 25, p16 + 26, p16 + 27, p16 + 28, p16 + 29, p16 + 30, p16 + 31, p16 + 32, p16 + 33, p16 + 34, p16 + 35, p16 + 36, p16 + 37, p16 + 38, p16 + 39, 11};
Line(17) = {12, 11};
p18 = newp;
Point(p18 + 1) = {3.251234958573933, -2.646459609670555, 0};
Point(p18 + 2) = {3.229145638834624, -2.554450971238957, 0};
Point(p18 + 3) = {3.192934953144304, -2.467030642742556, 0};
Point(p18 + 4) = {3.143494528761043, -2.386351202800368, 0};
Point(p18 + 5) = {3.082041753016519, -2.314399246983482, 0};
Point(p18 + 6) = {3.010089797199632, -2.252946471238958, 0};
Point(p18 + 7) = {2.929410357257444, -2.203506046855697, 0};
Point(p18 + 8) = {2.841990028761043, -2.167295361165376, 0};
Point(p18 + 9) = {2.749981390329445, -2.145206041426067, 0};
Point(p18 + 10) = {2.65565, -2.137782, 0};
Point(p18 + 11) = {2.561318609670555, -2.145206041426067, 0};
Point(p18 + 12) = {2.469309971238957, -2.167295361165376, 0};
Point(p18 + 13) = {2.381889642742556, -2.203506046855697, 0};
Point(p18 + 14) = {2.301210202800368, -2.252946471238957, 0};
Point(p18 + 15) = {2.229258246983481, -2.314399246983482, 0};
Point(p18 + 16) = {2.167805471238958, -2.386351202800368, 0};
Point(p18 + 17) = {2.118365046855696, -2.467030642742556, 0};
Point(p18 + 18) = {2.082154361165376, -2.554450971238957, 0};
Point(p18 + 19) = {2.060065041426067, -2.646459609670555, 0};
Point(p18 + 20) = {2.052641, -2.740791, 0};
Point(p18 + 21) = {2.060065041426067, -2.835122390329445, 0};
Point(p18 + 22) = {2.082154361165376, -2.927131028761043, 0};
Point(p18 + 23) = {2.118365046855696, -3.014551357257444, 0};
Point(p18 + 24) = {2.167805471238957, -3.095230797199632, 0};
Point(p18 + 25) = {2.229258246983481, -3.167182753016519, 0};
Point(p18 + 26) = {2.301210202800368, -3.228635528761043, 0};
Point(p18 + 27) = {2.381889642742556, -3.278075953144304, 0};
Point(p18 + 28) = {2.469309971238957, -3.314286638834624, 0};
Point(p18 + 29) = {2.561318609670555, -3.336375958573933, 0};
Point(p18 + 30) = {2.65565, -3.3438, 0};
Point(p18 + 31) = {2.749981390329444, -3.336375958573933, 0};
Point(p18 + 32) = {2.841990028761042, -3.314286638834624, 0};
Point(p18 + 33) = {2.929410357257444, -3.278075953144304, 0};
Point(p18 + 34) = {3.010089797199632, -3.228635528761043, 0};
Point(p18 + 35) = {3.082041753016519, -3.167182753016519, 0};
Point(p18 + 36) = {3.143494528761043, -3.095230797199632, 0};
Point(p18 + 37) = {3.192934953144304, -3.014551357257444, 0};
Point(p18 + 38) = {3.229145638834624, -2.927131028761043, 0};
Point(p18 + 39) = {3.251234958573933, -2.835122390329445, 0};
Spline(18) = {12, p18 + 1, p18 + 2, p18 + 3, p18 + 4, p18 + 5, p18 + 6, p18 + 7, p18 + 8, p18 + 9, p18 + 10, p18 + 11, p18 + 12, p18 + 13, p18 + 14, p18 + 15, p18 + 16, p18 + 17, p18 + 18, p18 + 19, p18 + 20, p18 + 21, p18 + 22, p18 + 23, p18 + 24, p18 + 25, p18 + 26, p18 + 27, p18 + 28, p18 + 29, p18 + 30, p18 + 31, p18 + 32, p18 + 33, p18 + 34, p18 + 35, p18 + 36, p18 + 37, p18 + 38, p18 + 39, 12};
Line(19) = {14, 13};
Line(20) = {13, 15};
Line(21) = {16, 15};
Line(22) = {14, 16};
Line(23) = {14, 17};
Line(24) = {17, 18};
Line(25) = {13, 18};
Line(26) = {15, 19};
Line(27) = {18, 19};
Line(28) = {16, 20};
Line(29) = {20, 19};
Line(30) = {17, 20};
Curve Loop(7) = {-13, -14, 15, 14};
Surface(7) = {7};
Curve Loop(8) = {13};
Plane Surface(8) = {8};
Curve Loop(9) = {15};
Plane Surface(9) = {9};
Curve Loop(10) = {-16, -17, 18, 17};
Surface(10) = {10};
Curve Loop(11) = {16};
Plane Surface(11) = {11};
Curve Loop(12) = {18};
Plane Surface(12) = {12};
Curve Loop(13) = {-19, 22, 21, -20};
Plane Surface(13) = {13};
Curve Loop(14) = {-23, 19, 25, -24};
Plane Surface(14) = {14};
Curve Loop(15) = {-20, 25, 27, -26};
Plane Surface(15) = {15};
Curve Loop(16) = {-28, 21, 26, -29};
Plane Surface(16) = {16};
Curve Loop(17) = {-22, 23, 30, -28, -18, -15};
Plane Surface(17) = {17};
Curve Loop(18) = {-24, 30, 29, -27};
Plane Surface(18) = {18};
Surface Loop(1) = {13, 14, 15, 16, 17, 18, 10, 7, 11, 8};
Volume(1) = {1};
Surface Loop(2) = {7, 8, 9};
Volume(2) = {2};
Surface Loop(3) = {10, 11, 12};
Volume(3) = {3};
Physical Surface("WALLS") = {13, 18};
Physical Surface("LOAD") = {8, 11};
Physical Surface("BORDER") = {7, 9, 10, 12, 14, 15, 16, 17};
Physical Volume("SOLID") = {1, 2, 3};
