cl__1 = 0.054614;
cl__2 = 0.081248;
cl__3 = 0.358831;
cl__4 = 0.53566;
cl__5 = 3.823049;
cl__6 = 3.665582;
Point(9) = {3.756674, -0.2976440000000002, 0.1, cl__1};
Point(10) = {3.756674, -0.2976440000000002, 0, cl__1};
Point(11) = {20.006454, 1.428588, 0.1, cl__2};
Point(12) = {20.006454, 1.428588, 0, cl__2};
Point(13) = {0.00411, -3.560522, 1, cl__3};
Point(14) = {0.00411, -3.560522, 0, cl__3};
Point(15) = {0.00411, 5.425196999999999, 1, cl__4};
Point(16) = {0.00411, 5.425196999999999, 0, cl__4};
Point(17) = {36.870523, -3.560522, 0, cl__5};
Point(18) = {36.870523, -3.560522, 1, cl__5};
Point(19) = {36.870523, 5.425196999999999, 1, cl__6};
Point(20) = {36.870523, 5.425196999999999, 0, cl__6};
p13 = newp;
Point(p13 + 1) = {3.749950110332628, -0.2122088812629283, 0.1};
Point(p13 + 2) = {3.729944005809435, -0.1288774586920663, 0.1};
Point(p13 + 3) = {3.697148303120235, -0.04970162847224396, 0.1};
Point(p13 + 4) = {3.652370541307934, 0.02336903768701126, 0.1};
Point(p13 + 5) = {3.596713297477221, 0.088535297477221, 0.1};
Point(p13 + 6) = {3.531547037687012, 0.1441925413079337, 0.1};
Point(p13 + 7) = {3.458476371527756, 0.1889703031202351, 0.1};
Point(p13 + 8) = {3.379300541307934, 0.2217660058094351, 0.1};
Point(p13 + 9) = {3.295969118737072, 0.2417721103326285, 0.1};
Point(p13 + 10) = {3.210534, 0.2484959999999999, 0.1};
Point(p13 + 11) = {3.125098881262928, 0.2417721103326285, 0.1};
Point(p13 + 12) = {3.041767458692066, 0.2217660058094352, 0.1};
Point(p13 + 13) = {2.962591628472244, 0.1889703031202352, 0.1};
Point(p13 + 14) = {2.889520962312989, 0.1441925413079337, 0.1};
Point(p13 + 15) = {2.824354702522779, 0.08853529747722105, 0.1};
Point(p13 + 16) = {2.768697458692066, 0.02336903768701132, 0.1};
Point(p13 + 17) = {2.723919696879765, -0.04970162847224391, 0.1};
Point(p13 + 18) = {2.691123994190565, -0.1288774586920662, 0.1};
Point(p13 + 19) = {2.671117889667372, -0.2122088812629283, 0.1};
Point(p13 + 20) = {2.664394, -0.297644, 0.1};
Point(p13 + 21) = {2.671117889667372, -0.3830791187370716, 0.1};
Point(p13 + 22) = {2.691123994190565, -0.466410541307934, 0.1};
Point(p13 + 23) = {2.723919696879765, -0.5455863715277558, 0.1};
Point(p13 + 24) = {2.768697458692066, -0.6186570376870112, 0.1};
Point(p13 + 25) = {2.824354702522779, -0.683823297477221, 0.1};
Point(p13 + 26) = {2.889520962312988, -0.7394805413079337, 0.1};
Point(p13 + 27) = {2.962591628472244, -0.7842583031202351, 0.1};
Point(p13 + 28) = {3.041767458692066, -0.8170540058094351, 0.1};
Point(p13 + 29) = {3.125098881262928, -0.8370601103326285, 0.1};
Point(p13 + 30) = {3.210534, -0.843784, 0.1};
Point(p13 + 31) = {3.295969118737072, -0.8370601103326285, 0.1};
Point(p13 + 32) = {3.379300541307934, -0.8170540058094352, 0.1};
Point(p13 + 33) = {3.458476371527756, -0.7842583031202353, 0.1};
Point(p13 + 34) = {3.531547037687011, -0.7394805413079338, 0.1};
Point(p13 + 35) = {3.596713297477221, -0.6838232974772211, 0.1};
Point(p13 + 36) = {3.652370541307934, -0.6186570376870113, 0.1};
Point(p13 + 37) = {3.697148303120235, -0.5455863715277562, 0.1};
Point(p13 + 38) = {3.729944005809435, -0.4664105413079339, 0.1};
Point(p13 + 39) = {3.749950110332628, -0.3830791187370718, 0.1};
Spline(13) = {9, p13 + 1, p13 + 2, p13 + 3, p13 + 4, p13 + 5, p13 + 6, p13 + 7, p13 + 8, p13 + 9, p13 + 10, p13 + 11, p13 + 12, p13 + 13, p13 + 14, p13 + 15, p13 + 16, p13 + 17, p13 + 18, p13 + 19, p13 + 20, p13 + 21, p13 + 22, p13 + 23, p13 + 24, p13 + 25, p13 + 26, p13 + 27, p13 + 28, p13 + 29, p13 + 30, p13 + 31, p13 + 32, p13 + 33, p13 + 34, p13 + 35, p13 + 36, p13 + 37, p13 + 38, p13 + 39, 9};
Line(14) = {10, 9};
p15 = newp;
Point(p15 + 1) = {3.749950110332628, -0.2122088812629283, 0};
Point(p15 + 2) = {3.729944005809435, -0.1288774586920663, 0};
Point(p15 + 3) = {3.697148303120235, -0.04970162847224396, 0};
Point(p15 + 4) = {3.652370541307934, 0.02336903768701126, 0};
Point(p15 + 5) = {3.596713297477221, 0.088535297477221, 0};
Point(p15 + 6) = {3.531547037687012, 0.1441925413079337, 0};
Point(p15 + 7) = {3.458476371527756, 0.1889703031202351, 0};
Point(p15 + 8) = {3.379300541307934, 0.2217660058094351, 0};
Point(p15 + 9) = {3.295969118737072, 0.2417721103326285, 0};
Point(p15 + 10) = {3.210534, 0.2484959999999999, 0};
Point(p15 + 11) = {3.125098881262928, 0.2417721103326285, 0};
Point(p15 + 12) = {3.041767458692066, 0.2217660058094352, 0};
Point(p15 + 13) = {2.962591628472244, 0.1889703031202352, 0};
Point(p15 + 14) = {2.889520962312989, 0.1441925413079337, 0};
Point(p15 + 15) = {2.824354702522779, 0.08853529747722105, 0};
Point(p15 + 16) = {2.768697458692066, 0.02336903768701132, 0};
Point(p15 + 17) = {2.723919696879765, -0.04970162847224391, 0};
Point(p15 + 18) = {2.691123994190565, -0.1288774586920662, 0};
Point(p15 + 19) = {2.671117889667372, -0.2122088812629283, 0};
Point(p15 + 20) = {2.664394, -0.297644, 0};
Point(p15 + 21) = {2.671117889667372, -0.3830791187370716, 0};
Point(p15 + 22) = {2.691123994190565, -0.466410541307934, 0};
Point(p15 + 23) = {2.723919696879765, -0.5455863715277558, 0};
Point(p15 + 24) = {2.768697458692066, -0.6186570376870112, 0};
Point(p15 + 25) = {2.824354702522779, -0.683823297477221, 0};
Point(p15 + 26) = {2.889520962312988, -0.7394805413079337, 0};
Point(p15 + 27) = {2.962591628472244, -0.7842583031202351, 0};
Point(p15 + 28) = {3.041767458692066, -0.8170540058094351, 0};
Point(p15 + 29) = {3.125098881262928, -0.8370601103326285, 0};
Point(p15 + 30) = {3.210534, -0.843784, 0};
Point(p15 + 31) = {3.295969118737072, -0.8370601103326285, 0};
Point(p15 + 32) = {3.379300541307934, -0.8170540058094352, 0};
Point(p15 + 33) = {3.458476371527756, -0.7842583031202353, 0};
Point(p15 + 34) = {3.531547037687011, -0.7394805413079338, 0};
Point(p15 + 35) = {3.596713297477221, -0.6838232974772211, 0};
Point(p15 + 36) = {3.652370541307934, -0.6186570376870113, 0};
Point(p15 + 37) = {3.697148303120235, -0.5455863715277562, 0};
Point(p15 + 38) = {3.729944005809435, -0.4664105413079339, 0};
Point(p15 + 39) = {3.749950110332628, -0.3830791187370718, 0};
Spline(15) = {10, p15 + 1, p15 + 2, p15 + 3, p15 + 4, p15 + 5, p15 + 6, p15 + 7, p15 + 8, p15 + 9, p15 + 10, p15 + 11, p15 + 12, p15 + 13, p15 + 14, p15 + 15, p15 + 16, p15 + 17, p15 + 18, p15 + 19, p15 + 20, p15 + 21, p15 + 22, p15 + 23, p15 + 24, p15 + 25, p15 + 26, p15 + 27, p15 + 28, p15 + 29, p15 + 30, p15 + 31, p15 + 32, p15 + 33, p15 + 34, p15 + 35, p15 + 36, p15 + 37, p15 + 38, p15 + 39, 10};
p16 = newp;
Point(p16 + 1) = {19.99645101065508, 1.555688030590352, 0.1};
Point(p16 + 2) = {19.966688349416, 1.679658436606752, 0.1};
Point(p16 + 3) = {19.91789887177909, 1.797446655218887, 0.1};
Point(p16 + 4) = {19.85128393660675, 1.906152349567841, 0.1};
Point(p16 + 5) = {19.76848382468523, 2.003098824685227, 0.1};
Point(p16 + 6) = {19.67153734956784, 2.085898936606752, 0.1};
Point(p16 + 7) = {19.56283165521889, 2.152513871779089, 0.1};
Point(p16 + 8) = {19.44504343660675, 2.201303349416003, 0.1};
Point(p16 + 9) = {19.32107303059035, 2.231066010655078, 0.1};
Point(p16 + 10) = {19.193973, 2.241069, 0.1};
Point(p16 + 11) = {19.06687296940965, 2.231066010655078, 0.1};
Point(p16 + 12) = {18.94290256339325, 2.201303349416003, 0.1};
Point(p16 + 13) = {18.82511434478111, 2.152513871779089, 0.1};
Point(p16 + 14) = {18.71640865043216, 2.085898936606752, 0.1};
Point(p16 + 15) = {18.61946217531477, 2.003098824685227, 0.1};
Point(p16 + 16) = {18.53666206339325, 1.906152349567841, 0.1};
Point(p16 + 17) = {18.47004712822091, 1.797446655218887, 0.1};
Point(p16 + 18) = {18.421257650584, 1.679658436606752, 0.1};
Point(p16 + 19) = {18.39149498934492, 1.555688030590352, 0.1};
Point(p16 + 20) = {18.381492, 1.428588, 0.1};
Point(p16 + 21) = {18.39149498934492, 1.301487969409648, 0.1};
Point(p16 + 22) = {18.421257650584, 1.177517563393248, 0.1};
Point(p16 + 23) = {18.47004712822091, 1.059729344781114, 0.1};
Point(p16 + 24) = {18.53666206339325, 0.9510236504321592, 0.1};
Point(p16 + 25) = {18.61946217531477, 0.8540771753147727, 0.1};
Point(p16 + 26) = {18.71640865043216, 0.7712770633932484, 0.1};
Point(p16 + 27) = {18.82511434478111, 0.7046621282209107, 0.1};
Point(p16 + 28) = {18.94290256339325, 0.6558726505839974, 0.1};
Point(p16 + 29) = {19.06687296940965, 0.6261099893449219, 0.1};
Point(p16 + 30) = {19.193973, 0.616107, 0.1};
Point(p16 + 31) = {19.32107303059035, 0.6261099893449218, 0.1};
Point(p16 + 32) = {19.44504343660675, 0.6558726505839972, 0.1};
Point(p16 + 33) = {19.56283165521889, 0.7046621282209106, 0.1};
Point(p16 + 34) = {19.67153734956784, 0.7712770633932482, 0.1};
Point(p16 + 35) = {19.76848382468523, 0.8540771753147726, 0.1};
Point(p16 + 36) = {19.85128393660675, 0.951023650432159, 0.1};
Point(p16 + 37) = {19.91789887177909, 1.059729344781113, 0.1};
Point(p16 + 38) = {19.966688349416, 1.177517563393248, 0.1};
Point(p16 + 39) = {19.99645101065508, 1.301487969409648, 0.1};
Spline(16) = {11, p16 + 1, p16 + 2, p16 + 3, p16 + 4, p16 + 5, p16 + 6, p16 + 7, p16 + 8, p16 + 9, p16 + 10, p16 + 11, p16 + 12, p16 + 13, p16 + 14, p16 + 15, p16 + 16, p16 + 17, p16 + 18, p16 + 19, p16 + 20, p16 + 21, p16 + 22, p16 + 23, p16 + 24, p16 + 25, p16 + 26, p16 + 27, p16 + 28, p16 + 29, p16 + 30, p16 + 31, p16 + 32, p16 + 33, p16 + 34, p16 + 35, p16 + 36, p16 + 37, p16 + 38, p16 + 39, 11};
Line(17) = {12, 11};
p18 = newp;
Point(p18 + 1) = {19.99645101065508, 1.555688030590352, 0};
Point(p18 + 2) = {19.966688349416, 1.679658436606752, 0};
Point(p18 + 3) = {19.91789887177909, 1.797446655218887, 0};
Point(p18 + 4) = {19.85128393660675, 1.906152349567841, 0};
Point(p18 + 5) = {19.76848382468523, 2.003098824685227, 0};
Point(p18 + 6) = {19.67153734956784, 2.085898936606752, 0};
Point(p18 + 7) = {19.56283165521889, 2.152513871779089, 0};
Point(p18 + 8) = {19.44504343660675, 2.201303349416003, 0};
Point(p18 + 9) = {19.32107303059035, 2.231066010655078, 0};
Point(p18 + 10) = {19.193973, 2.241069, 0};
Point(p18 + 11) = {19.06687296940965, 2.231066010655078, 0};
Point(p18 + 12) = {18.94290256339325, 2.201303349416003, 0};
Point(p18 + 13) = {18.82511434478111, 2.152513871779089, 0};
Point(p18 + 14) = {18.71640865043216, 2.085898936606752, 0};
Point(p18 + 15) = {18.61946217531477, 2.003098824685227, 0};
Point(p18 + 16) = {18.53666206339325, 1.906152349567841, 0};
Point(p18 + 17) = {18.47004712822091, 1.797446655218887, 0};
Point(p18 + 18) = {18.421257650584, 1.679658436606752, 0};
Point(p18 + 19) = {18.39149498934492, 1.555688030590352, 0};
Point(p18 + 20) = {18.381492, 1.428588, 0};
Point(p18 + 21) = {18.39149498934492, 1.301487969409648, 0};
Point(p18 + 22) = {18.421257650584, 1.177517563393248, 0};
Point(p18 + 23) = {18.47004712822091, 1.059729344781114, 0};
Point(p18 + 24) = {18.53666206339325, 0.9510236504321592, 0};
Point(p18 + 25) = {18.61946217531477, 0.8540771753147727, 0};
Point(p18 + 26) = {18.71640865043216, 0.7712770633932484, 0};
Point(p18 + 27) = {18.82511434478111, 0.7046621282209107, 0};
Point(p18 + 28) = {18.94290256339325, 0.6558726505839974, 0};
Point(p18 + 29) = {19.06687296940965, 0.6261099893449219, 0};
Point(p18 + 30) = {19.193973, 0.616107, 0};
Point(p18 + 31) = {19.32107303059035, 0.6261099893449218, 0};
Point(p18 + 32) = {19.44504343660675, 0.6558726505839972, 0};
Point(p18 + 33) = {19.56283165521889, 0.7046621282209106, 0};
Point(p18 + 34) = {19.67153734956784, 0.7712770633932482, 0};
Point(p18 + 35) = {19.76848382468523, 0.8540771753147726, 0};
Point(p18 + 36) = {19.85128393660675, 0.951023650432159, 0};
Point(p18 + 37) = {19.91789887177909, 1.059729344781113, 0};
Point(p18 + 38) = {19.966688349416, 1.177517563393248, 0};
Point(p18 + 39) = {19.99645101065508, 1.301487969409648, 0};
Spline(18) = {12, p18 + 1, p18 + 2, p18 + 3, p18 + 4, p18 + 5, p18 + 6, p18 + 7, p18 + 8, p18 + 9, p18 + 10, p18 + 11, p18 + 12, p18 + 13, p18 + 14, p18 + 15, p18 + 16, p18 + 17, p18 + 18, p18 + 19, p18 + 20, p18 + 21, p18 + 22, p18 + 23, p18 + 24, p18 + 25, p18 + 26, p18 + 27, p18 + 28, p18 + 29, p18 + 30, p18 + 31, p18 + 32, p18 + 33, p18 + 34, p18 + 35, p18 + 36, p18 + 37, p18 + 38, p18 + 39, 12};
Line(19) = {14, 13};
Line(20) = {13, 15};
Line(21) = {16, 15};
Line(22) = {14, 16};
Line(23) = {14, 17};
Line(24) = {17, 18};
Line(25) = {13, 18};
Line(26) = {15, 19};
Line(27) = {18, 19};
Line(28) = {16, 20};
Line(29) = {20, 19};
Line(30) = {17, 20};
Curve Loop(7) = {-13, -14, 15, 14};
Surface(7) = {7};
Curve Loop(8) = {13};
Plane Surface(8) = {8};
Curve Loop(9) = {15};
Plane Surface(9) = {9};
Curve Loop(10) = {-16, -17, 18, 17};
Surface(10) = {10};
Curve Loop(11) = {16};
Plane Surface(11) = {11};
Curve Loop(12) = {18};
Plane Surface(12) = {12};
Curve Loop(13) = {-19, 22, 21, -20};
Plane Surface(13) = {13};
Curve Loop(14) = {-23, 19, 25, -24};
Plane Surface(14) = {14};
Curve Loop(15) = {-20, 25, 27, -26};
Plane Surface(15) = {15};
Curve Loop(16) = {-28, 21, 26, -29};
Plane Surface(16) = {16};
Curve Loop(17) = {-22, 23, 30, -28, -15, -18};
Plane Surface(17) = {17};
Curve Loop(18) = {-24, 30, 29, -27};
Plane Surface(18) = {18};
Surface Loop(1) = {13, 14, 15, 16, 17, 18, 7, 10, 8, 11};
Volume(1) = {1};
Surface Loop(2) = {7, 8, 9};
Volume(2) = {2};
Surface Loop(3) = {10, 11, 12};
Volume(3) = {3};
Physical Surface("WALLS") = {13, 18};
Physical Surface("LOAD") = {8, 11};
Physical Surface("BORDER") = {7, 9, 10, 12, 14, 15, 16, 17};
Physical Volume("SOLID") = {1, 2, 3};
