cl__1 = 0.050613;
cl__2 = 0.12244;
cl__3 = 1.830921;
cl__4 = 2.056405;
cl__5 = 0.71844;
cl__6 = 0.786538;
Point(9) = {19.710658, -1.45605, 0.1, cl__1};
Point(10) = {19.710658, -1.45605, 0, cl__1};
Point(11) = {27.218914, -1.311849, 0.1, cl__2};
Point(12) = {27.218914, -1.311849, 0, cl__2};
Point(13) = {0.201187, -3.853089, 0.1, cl__3};
Point(14) = {0.201187, -3.853089, 0, cl__3};
Point(15) = {0.201187, 4.416342, 0.1, cl__4};
Point(16) = {0.201187, 4.416342, 0, cl__4};
Point(17) = {37.90195499999999, -3.853089, 0, cl__5};
Point(18) = {37.90195499999999, -3.853089, 0.1, cl__5};
Point(19) = {37.90195499999999, 4.416342, 0.1, cl__6};
Point(20) = {37.90195499999999, 4.416342, 0, cl__6};
p13 = newp;
Point(p13 + 1) = {19.70442668751376, -1.376873667774723, 0.1};
Point(p13 + 2) = {19.68588618564898, -1.299646919620014, 0.1};
Point(p13 + 3) = {19.65549302309398, -1.226271334376324, 0.1};
Point(p13 + 4) = {19.61399558037999, -1.158553662471958, 0.1};
Point(p13 + 5) = {19.56241566226873, -1.098161337731272, 0.1};
Point(p13 + 6) = {19.50202333752804, -1.046581419620014, 0.1};
Point(p13 + 7) = {19.43430566562368, -1.005083976906017, 0.1};
Point(p13 + 8) = {19.36093008037999, -0.9746908143510178, 0.1};
Point(p13 + 9) = {19.28370333222528, -0.9561503124862424, 0.1};
Point(p13 + 10) = {19.204527, -0.9499190000000001, 0.1};
Point(p13 + 11) = {19.12535066777472, -0.9561503124862425, 0.1};
Point(p13 + 12) = {19.04812391962001, -0.9746908143510177, 0.1};
Point(p13 + 13) = {18.97474833437632, -1.005083976906017, 0.1};
Point(p13 + 14) = {18.90703066247196, -1.046581419620014, 0.1};
Point(p13 + 15) = {18.84663833773127, -1.098161337731272, 0.1};
Point(p13 + 16) = {18.79505841962001, -1.158553662471958, 0.1};
Point(p13 + 17) = {18.75356097690602, -1.226271334376323, 0.1};
Point(p13 + 18) = {18.72316781435102, -1.299646919620014, 0.1};
Point(p13 + 19) = {18.70462731248624, -1.376873667774723, 0.1};
Point(p13 + 20) = {18.698396, -1.45605, 0.1};
Point(p13 + 21) = {18.70462731248624, -1.535226332225277, 0.1};
Point(p13 + 22) = {18.72316781435102, -1.612453080379987, 0.1};
Point(p13 + 23) = {18.75356097690602, -1.685828665623676, 0.1};
Point(p13 + 24) = {18.79505841962001, -1.753546337528042, 0.1};
Point(p13 + 25) = {18.84663833773127, -1.813938662268729, 0.1};
Point(p13 + 26) = {18.90703066247196, -1.865518580379987, 0.1};
Point(p13 + 27) = {18.97474833437632, -1.907016023093983, 0.1};
Point(p13 + 28) = {19.04812391962001, -1.937409185648982, 0.1};
Point(p13 + 29) = {19.12535066777472, -1.955949687513758, 0.1};
Point(p13 + 30) = {19.204527, -1.962181, 0.1};
Point(p13 + 31) = {19.28370333222528, -1.955949687513758, 0.1};
Point(p13 + 32) = {19.36093008037999, -1.937409185648983, 0.1};
Point(p13 + 33) = {19.43430566562368, -1.907016023093983, 0.1};
Point(p13 + 34) = {19.50202333752804, -1.865518580379987, 0.1};
Point(p13 + 35) = {19.56241566226873, -1.813938662268729, 0.1};
Point(p13 + 36) = {19.61399558037999, -1.753546337528042, 0.1};
Point(p13 + 37) = {19.65549302309398, -1.685828665623677, 0.1};
Point(p13 + 38) = {19.68588618564898, -1.612453080379987, 0.1};
Point(p13 + 39) = {19.70442668751376, -1.535226332225277, 0.1};
Spline(13) = {9, p13 + 1, p13 + 2, p13 + 3, p13 + 4, p13 + 5, p13 + 6, p13 + 7, p13 + 8, p13 + 9, p13 + 10, p13 + 11, p13 + 12, p13 + 13, p13 + 14, p13 + 15, p13 + 16, p13 + 17, p13 + 18, p13 + 19, p13 + 20, p13 + 21, p13 + 22, p13 + 23, p13 + 24, p13 + 25, p13 + 26, p13 + 27, p13 + 28, p13 + 29, p13 + 30, p13 + 31, p13 + 32, p13 + 33, p13 + 34, p13 + 35, p13 + 36, p13 + 37, p13 + 38, p13 + 39, 9};
Line(14) = {10, 9};
p15 = newp;
Point(p15 + 1) = {19.70442668751376, -1.376873667774723, 0};
Point(p15 + 2) = {19.68588618564898, -1.299646919620014, 0};
Point(p15 + 3) = {19.65549302309398, -1.226271334376324, 0};
Point(p15 + 4) = {19.61399558037999, -1.158553662471958, 0};
Point(p15 + 5) = {19.56241566226873, -1.098161337731272, 0};
Point(p15 + 6) = {19.50202333752804, -1.046581419620014, 0};
Point(p15 + 7) = {19.43430566562368, -1.005083976906017, 0};
Point(p15 + 8) = {19.36093008037999, -0.9746908143510178, 0};
Point(p15 + 9) = {19.28370333222528, -0.9561503124862424, 0};
Point(p15 + 10) = {19.204527, -0.9499190000000001, 0};
Point(p15 + 11) = {19.12535066777472, -0.9561503124862425, 0};
Point(p15 + 12) = {19.04812391962001, -0.9746908143510177, 0};
Point(p15 + 13) = {18.97474833437632, -1.005083976906017, 0};
Point(p15 + 14) = {18.90703066247196, -1.046581419620014, 0};
Point(p15 + 15) = {18.84663833773127, -1.098161337731272, 0};
Point(p15 + 16) = {18.79505841962001, -1.158553662471958, 0};
Point(p15 + 17) = {18.75356097690602, -1.226271334376323, 0};
Point(p15 + 18) = {18.72316781435102, -1.299646919620014, 0};
Point(p15 + 19) = {18.70462731248624, -1.376873667774723, 0};
Point(p15 + 20) = {18.698396, -1.45605, 0};
Point(p15 + 21) = {18.70462731248624, -1.535226332225277, 0};
Point(p15 + 22) = {18.72316781435102, -1.612453080379987, 0};
Point(p15 + 23) = {18.75356097690602, -1.685828665623676, 0};
Point(p15 + 24) = {18.79505841962001, -1.753546337528042, 0};
Point(p15 + 25) = {18.84663833773127, -1.813938662268729, 0};
Point(p15 + 26) = {18.90703066247196, -1.865518580379987, 0};
Point(p15 + 27) = {18.97474833437632, -1.907016023093983, 0};
Point(p15 + 28) = {19.04812391962001, -1.937409185648982, 0};
Point(p15 + 29) = {19.12535066777472, -1.955949687513758, 0};
Point(p15 + 30) = {19.204527, -1.962181, 0};
Point(p15 + 31) = {19.28370333222528, -1.955949687513758, 0};
Point(p15 + 32) = {19.36093008037999, -1.937409185648983, 0};
Point(p15 + 33) = {19.43430566562368, -1.907016023093983, 0};
Point(p15 + 34) = {19.50202333752804, -1.865518580379987, 0};
Point(p15 + 35) = {19.56241566226873, -1.813938662268729, 0};
Point(p15 + 36) = {19.61399558037999, -1.753546337528042, 0};
Point(p15 + 37) = {19.65549302309398, -1.685828665623677, 0};
Point(p15 + 38) = {19.68588618564898, -1.612453080379987, 0};
Point(p15 + 39) = {19.70442668751376, -1.535226332225277, 0};
Spline(15) = {10, p15 + 1, p15 + 2, p15 + 3, p15 + 4, p15 + 5, p15 + 6, p15 + 7, p15 + 8, p15 + 9, p15 + 10, p15 + 11, p15 + 12, p15 + 13, p15 + 14, p15 + 15, p15 + 16, p15 + 17, p15 + 18, p15 + 19, p15 + 20, p15 + 21, p15 + 22, p15 + 23, p15 + 24, p15 + 25, p15 + 26, p15 + 27, p15 + 28, p15 + 29, p15 + 30, p15 + 31, p15 + 32, p15 + 33, p15 + 34, p15 + 35, p15 + 36, p15 + 37, p15 + 38, p15 + 39, 10};
p16 = newp;
Point(p16 + 1) = {27.20383964115966, -1.120311110308136, 0.1};
Point(p16 + 2) = {27.15898774538223, -0.9334895191382976, 0.1};
Point(p16 + 3) = {27.08546271519666, -0.7559843940903982, 0.1};
Point(p16 + 4) = {26.9850749808617, -0.5921665004488529, 0.1};
Point(p16 + 5) = {26.86029642156446, -0.446069578435535, 0.1};
Point(p16 + 6) = {26.71419949955115, -0.3212910191382977, 0.1};
Point(p16 + 7) = {26.5503816059096, -0.2209032848033352, 0.1};
Point(p16 + 8) = {26.3728764808617, -0.1473782546177629, 0.1};
Point(p16 + 9) = {26.18605488969186, -0.1025263588403351, 0.1};
Point(p16 + 10) = {25.994517, -0.08745200000000009, 0.1};
Point(p16 + 11) = {25.80297911030813, -0.1025263588403353, 0.1};
Point(p16 + 12) = {25.61615751913829, -0.1473782546177629, 0.1};
Point(p16 + 13) = {25.4386523940904, -0.220903284803335, 0.1};
Point(p16 + 14) = {25.27483450044885, -0.3212910191382975, 0.1};
Point(p16 + 15) = {25.12873757843553, -0.4460695784355347, 0.1};
Point(p16 + 16) = {25.0039590191383, -0.5921665004488527, 0.1};
Point(p16 + 17) = {24.90357128480333, -0.7559843940903981, 0.1};
Point(p16 + 18) = {24.83004625461776, -0.9334895191382975, 0.1};
Point(p16 + 19) = {24.78519435884033, -1.120311110308136, 0.1};
Point(p16 + 20) = {24.77012, -1.311849, 0.1};
Point(p16 + 21) = {24.78519435884033, -1.503386889691863, 0.1};
Point(p16 + 22) = {24.83004625461776, -1.690208480861703, 0.1};
Point(p16 + 23) = {24.90357128480333, -1.867713605909601, 0.1};
Point(p16 + 24) = {25.0039590191383, -2.031531499551147, 0.1};
Point(p16 + 25) = {25.12873757843553, -2.177628421564465, 0.1};
Point(p16 + 26) = {25.27483450044885, -2.302406980861702, 0.1};
Point(p16 + 27) = {25.4386523940904, -2.402794715196665, 0.1};
Point(p16 + 28) = {25.61615751913829, -2.476319745382237, 0.1};
Point(p16 + 29) = {25.80297911030813, -2.521171641159665, 0.1};
Point(p16 + 30) = {25.994517, -2.536246, 0.1};
Point(p16 + 31) = {26.18605488969186, -2.521171641159665, 0.1};
Point(p16 + 32) = {26.3728764808617, -2.476319745382237, 0.1};
Point(p16 + 33) = {26.5503816059096, -2.402794715196666, 0.1};
Point(p16 + 34) = {26.71419949955115, -2.302406980861702, 0.1};
Point(p16 + 35) = {26.86029642156446, -2.177628421564465, 0.1};
Point(p16 + 36) = {26.9850749808617, -2.031531499551147, 0.1};
Point(p16 + 37) = {27.08546271519666, -1.867713605909602, 0.1};
Point(p16 + 38) = {27.15898774538223, -1.690208480861703, 0.1};
Point(p16 + 39) = {27.20383964115966, -1.503386889691864, 0.1};
Spline(16) = {11, p16 + 1, p16 + 2, p16 + 3, p16 + 4, p16 + 5, p16 + 6, p16 + 7, p16 + 8, p16 + 9, p16 + 10, p16 + 11, p16 + 12, p16 + 13, p16 + 14, p16 + 15, p16 + 16, p16 + 17, p16 + 18, p16 + 19, p16 + 20, p16 + 21, p16 + 22, p16 + 23, p16 + 24, p16 + 25, p16 + 26, p16 + 27, p16 + 28, p16 + 29, p16 + 30, p16 + 31, p16 + 32, p16 + 33, p16 + 34, p16 + 35, p16 + 36, p16 + 37, p16 + 38, p16 + 39, 11};
Line(17) = {12, 11};
p18 = newp;
Point(p18 + 1) = {27.20383964115966, -1.120311110308136, 0};
Point(p18 + 2) = {27.15898774538223, -0.9334895191382976, 0};
Point(p18 + 3) = {27.08546271519666, -0.7559843940903982, 0};
Point(p18 + 4) = {26.9850749808617, -0.5921665004488529, 0};
Point(p18 + 5) = {26.86029642156446, -0.446069578435535, 0};
Point(p18 + 6) = {26.71419949955115, -0.3212910191382977, 0};
Point(p18 + 7) = {26.5503816059096, -0.2209032848033352, 0};
Point(p18 + 8) = {26.3728764808617, -0.1473782546177629, 0};
Point(p18 + 9) = {26.18605488969186, -0.1025263588403351, 0};
Point(p18 + 10) = {25.994517, -0.08745200000000009, 0};
Point(p18 + 11) = {25.80297911030813, -0.1025263588403353, 0};
Point(p18 + 12) = {25.61615751913829, -0.1473782546177629, 0};
Point(p18 + 13) = {25.4386523940904, -0.220903284803335, 0};
Point(p18 + 14) = {25.27483450044885, -0.3212910191382975, 0};
Point(p18 + 15) = {25.12873757843553, -0.4460695784355347, 0};
Point(p18 + 16) = {25.0039590191383, -0.5921665004488527, 0};
Point(p18 + 17) = {24.90357128480333, -0.7559843940903981, 0};
Point(p18 + 18) = {24.83004625461776, -0.9334895191382975, 0};
Point(p18 + 19) = {24.78519435884033, -1.120311110308136, 0};
Point(p18 + 20) = {24.77012, -1.311849, 0};
Point(p18 + 21) = {24.78519435884033, -1.503386889691863, 0};
Point(p18 + 22) = {24.83004625461776, -1.690208480861703, 0};
Point(p18 + 23) = {24.90357128480333, -1.867713605909601, 0};
Point(p18 + 24) = {25.0039590191383, -2.031531499551147, 0};
Point(p18 + 25) = {25.12873757843553, -2.177628421564465, 0};
Point(p18 + 26) = {25.27483450044885, -2.302406980861702, 0};
Point(p18 + 27) = {25.4386523940904, -2.402794715196665, 0};
Point(p18 + 28) = {25.61615751913829, -2.476319745382237, 0};
Point(p18 + 29) = {25.80297911030813, -2.521171641159665, 0};
Point(p18 + 30) = {25.994517, -2.536246, 0};
Point(p18 + 31) = {26.18605488969186, -2.521171641159665, 0};
Point(p18 + 32) = {26.3728764808617, -2.476319745382237, 0};
Point(p18 + 33) = {26.5503816059096, -2.402794715196666, 0};
Point(p18 + 34) = {26.71419949955115, -2.302406980861702, 0};
Point(p18 + 35) = {26.86029642156446, -2.177628421564465, 0};
Point(p18 + 36) = {26.9850749808617, -2.031531499551147, 0};
Point(p18 + 37) = {27.08546271519666, -1.867713605909602, 0};
Point(p18 + 38) = {27.15898774538223, -1.690208480861703, 0};
Point(p18 + 39) = {27.20383964115966, -1.503386889691864, 0};
Spline(18) = {12, p18 + 1, p18 + 2, p18 + 3, p18 + 4, p18 + 5, p18 + 6, p18 + 7, p18 + 8, p18 + 9, p18 + 10, p18 + 11, p18 + 12, p18 + 13, p18 + 14, p18 + 15, p18 + 16, p18 + 17, p18 + 18, p18 + 19, p18 + 20, p18 + 21, p18 + 22, p18 + 23, p18 + 24, p18 + 25, p18 + 26, p18 + 27, p18 + 28, p18 + 29, p18 + 30, p18 + 31, p18 + 32, p18 + 33, p18 + 34, p18 + 35, p18 + 36, p18 + 37, p18 + 38, p18 + 39, 12};
Line(19) = {14, 13};
Line(20) = {13, 15};
Line(21) = {16, 15};
Line(22) = {14, 16};
Line(23) = {14, 17};
Line(24) = {17, 18};
Line(25) = {13, 18};
Line(26) = {15, 19};
Line(27) = {18, 19};
Line(28) = {16, 20};
Line(29) = {20, 19};
Line(30) = {17, 20};
Curve Loop(7) = {-13, -14, 15, 14};
Surface(7) = {7};
Curve Loop(8) = {13};
Plane Surface(8) = {8};
Curve Loop(9) = {15};
Plane Surface(9) = {9};
Curve Loop(10) = {-16, -17, 18, 17};
Surface(10) = {10};
Curve Loop(11) = {16};
Plane Surface(11) = {11};
Curve Loop(12) = {18};
Plane Surface(12) = {12};
Curve Loop(13) = {-19, 22, 21, -20};
Plane Surface(13) = {13};
Curve Loop(14) = {-23, 19, 25, -24};
Plane Surface(14) = {14};
Curve Loop(15) = {-20, 25, 27, -26, -13, -16};
Plane Surface(15) = {15};
Curve Loop(16) = {-28, 21, 26, -29};
Plane Surface(16) = {16};
Curve Loop(17) = {-22, 23, 30, -28, -15, -18};
Plane Surface(17) = {17};
Curve Loop(18) = {-24, 30, 29, -27};
Plane Surface(18) = {18};
Surface Loop(1) = {13, 14, 15, 16, 17, 18, 7, 10};
Volume(1) = {1};
Surface Loop(2) = {7, 8, 9};
Volume(2) = {2};
Surface Loop(3) = {10, 11, 12};
Volume(3) = {3};
Physical Surface("WALLS") = {13, 18};
Physical Surface("LOAD") = {8, 11};
Physical Surface("BORDER") = {7, 9, 10, 12, 14, 15, 16, 17};
Physical Volume("SOLID") = {1, 2, 3};
