cl__1 = 0.058425;
cl__2 = 0.110759;
cl__3 = 0.449372;
cl__4 = 0.685864;
cl__5 = 3.051934;
cl__6 = 2.828583;
Point(9) = {5.831301, -2.001478, 0.1, cl__1};
Point(10) = {5.831301, -2.001478, 0, cl__1};
Point(11) = {21.873501, 0.8974639999999998, 0.1, cl__2};
Point(12) = {21.873501, 0.8974639999999998, 0, cl__2};
Point(13) = {0.086688, -4.386502, 0.1, cl__3};
Point(14) = {0.086688, -4.386502, 0, cl__3};
Point(15) = {0.086688, 4.587433000000001, 0.1, cl__4};
Point(16) = {0.086688, 4.587433000000001, 0, cl__4};
Point(17) = {37.524456, -4.386502, 0, cl__5};
Point(18) = {37.524456, -4.386502, 0.1, cl__5};
Point(19) = {37.524456, 4.587433000000001, 0.1, cl__6};
Point(20) = {37.524456, 4.587433000000001, 0, cl__6};
p13 = newp;
Point(p13 + 1) = {5.824107925304369, -1.91008132023471, 0.1};
Point(p13 + 2) = {5.802705818588927, -1.820935130053432, 0.1};
Point(p13 + 3) = {5.76762167075053, -1.73623450451767, 0.1};
Point(p13 + 4) = {5.719719369946569, -1.658065054133375, 0.1};
Point(p13 + 5) = {5.660178429801459, -1.588351570198541, 0.1};
Point(p13 + 6) = {5.590464945866625, -1.528810630053431, 0.1};
Point(p13 + 7) = {5.512295495482331, -1.48090832924947, 0.1};
Point(p13 + 8) = {5.427594869946569, -1.445824181411073, 0.1};
Point(p13 + 9) = {5.33844867976529, -1.424422074695631, 0.1};
Point(p13 + 10) = {5.247052, -1.417229, 0.1};
Point(p13 + 11) = {5.15565532023471, -1.424422074695632, 0.1};
Point(p13 + 12) = {5.066509130053431, -1.445824181411073, 0.1};
Point(p13 + 13) = {4.981808504517669, -1.48090832924947, 0.1};
Point(p13 + 14) = {4.903639054133375, -1.528810630053431, 0.1};
Point(p13 + 15) = {4.833925570198541, -1.588351570198541, 0.1};
Point(p13 + 16) = {4.774384630053431, -1.658065054133375, 0.1};
Point(p13 + 17) = {4.72648232924947, -1.736234504517669, 0.1};
Point(p13 + 18) = {4.691398181411073, -1.820935130053431, 0.1};
Point(p13 + 19) = {4.669996074695631, -1.91008132023471, 0.1};
Point(p13 + 20) = {4.662803, -2.001478, 0.1};
Point(p13 + 21) = {4.669996074695631, -2.09287467976529, 0.1};
Point(p13 + 22) = {4.691398181411073, -2.182020869946569, 0.1};
Point(p13 + 23) = {4.72648232924947, -2.26672149548233, 0.1};
Point(p13 + 24) = {4.774384630053431, -2.344890945866625, 0.1};
Point(p13 + 25) = {4.833925570198541, -2.414604429801459, 0.1};
Point(p13 + 26) = {4.903639054133375, -2.474145369946569, 0.1};
Point(p13 + 27) = {4.981808504517669, -2.52204767075053, 0.1};
Point(p13 + 28) = {5.066509130053431, -2.557131818588927, 0.1};
Point(p13 + 29) = {5.15565532023471, -2.578533925304368, 0.1};
Point(p13 + 30) = {5.247052, -2.585727, 0.1};
Point(p13 + 31) = {5.33844867976529, -2.578533925304369, 0.1};
Point(p13 + 32) = {5.427594869946569, -2.557131818588927, 0.1};
Point(p13 + 33) = {5.512295495482331, -2.52204767075053, 0.1};
Point(p13 + 34) = {5.590464945866625, -2.474145369946569, 0.1};
Point(p13 + 35) = {5.660178429801459, -2.41460442980146, 0.1};
Point(p13 + 36) = {5.719719369946569, -2.344890945866625, 0.1};
Point(p13 + 37) = {5.76762167075053, -2.266721495482331, 0.1};
Point(p13 + 38) = {5.802705818588927, -2.182020869946569, 0.1};
Point(p13 + 39) = {5.824107925304369, -2.09287467976529, 0.1};
Spline(13) = {9, p13 + 1, p13 + 2, p13 + 3, p13 + 4, p13 + 5, p13 + 6, p13 + 7, p13 + 8, p13 + 9, p13 + 10, p13 + 11, p13 + 12, p13 + 13, p13 + 14, p13 + 15, p13 + 16, p13 + 17, p13 + 18, p13 + 19, p13 + 20, p13 + 21, p13 + 22, p13 + 23, p13 + 24, p13 + 25, p13 + 26, p13 + 27, p13 + 28, p13 + 29, p13 + 30, p13 + 31, p13 + 32, p13 + 33, p13 + 34, p13 + 35, p13 + 36, p13 + 37, p13 + 38, p13 + 39, 9};
Line(14) = {10, 9};
p15 = newp;
Point(p15 + 1) = {5.824107925304369, -1.91008132023471, 0};
Point(p15 + 2) = {5.802705818588927, -1.820935130053432, 0};
Point(p15 + 3) = {5.76762167075053, -1.73623450451767, 0};
Point(p15 + 4) = {5.719719369946569, -1.658065054133375, 0};
Point(p15 + 5) = {5.660178429801459, -1.588351570198541, 0};
Point(p15 + 6) = {5.590464945866625, -1.528810630053431, 0};
Point(p15 + 7) = {5.512295495482331, -1.48090832924947, 0};
Point(p15 + 8) = {5.427594869946569, -1.445824181411073, 0};
Point(p15 + 9) = {5.33844867976529, -1.424422074695631, 0};
Point(p15 + 10) = {5.247052, -1.417229, 0};
Point(p15 + 11) = {5.15565532023471, -1.424422074695632, 0};
Point(p15 + 12) = {5.066509130053431, -1.445824181411073, 0};
Point(p15 + 13) = {4.981808504517669, -1.48090832924947, 0};
Point(p15 + 14) = {4.903639054133375, -1.528810630053431, 0};
Point(p15 + 15) = {4.833925570198541, -1.588351570198541, 0};
Point(p15 + 16) = {4.774384630053431, -1.658065054133375, 0};
Point(p15 + 17) = {4.72648232924947, -1.736234504517669, 0};
Point(p15 + 18) = {4.691398181411073, -1.820935130053431, 0};
Point(p15 + 19) = {4.669996074695631, -1.91008132023471, 0};
Point(p15 + 20) = {4.662803, -2.001478, 0};
Point(p15 + 21) = {4.669996074695631, -2.09287467976529, 0};
Point(p15 + 22) = {4.691398181411073, -2.182020869946569, 0};
Point(p15 + 23) = {4.72648232924947, -2.26672149548233, 0};
Point(p15 + 24) = {4.774384630053431, -2.344890945866625, 0};
Point(p15 + 25) = {4.833925570198541, -2.414604429801459, 0};
Point(p15 + 26) = {4.903639054133375, -2.474145369946569, 0};
Point(p15 + 27) = {4.981808504517669, -2.52204767075053, 0};
Point(p15 + 28) = {5.066509130053431, -2.557131818588927, 0};
Point(p15 + 29) = {5.15565532023471, -2.578533925304368, 0};
Point(p15 + 30) = {5.247052, -2.585727, 0};
Point(p15 + 31) = {5.33844867976529, -2.578533925304369, 0};
Point(p15 + 32) = {5.427594869946569, -2.557131818588927, 0};
Point(p15 + 33) = {5.512295495482331, -2.52204767075053, 0};
Point(p15 + 34) = {5.590464945866625, -2.474145369946569, 0};
Point(p15 + 35) = {5.660178429801459, -2.41460442980146, 0};
Point(p15 + 36) = {5.719719369946569, -2.344890945866625, 0};
Point(p15 + 37) = {5.76762167075053, -2.266721495482331, 0};
Point(p15 + 38) = {5.802705818588927, -2.182020869946569, 0};
Point(p15 + 39) = {5.824107925304369, -2.09287467976529, 0};
Spline(15) = {10, p15 + 1, p15 + 2, p15 + 3, p15 + 4, p15 + 5, p15 + 6, p15 + 7, p15 + 8, p15 + 9, p15 + 10, p15 + 11, p15 + 12, p15 + 13, p15 + 14, p15 + 15, p15 + 16, p15 + 17, p15 + 18, p15 + 19, p15 + 20, p15 + 21, p15 + 22, p15 + 23, p15 + 24, p15 + 25, p15 + 26, p15 + 27, p15 + 28, p15 + 29, p15 + 30, p15 + 31, p15 + 32, p15 + 33, p15 + 34, p15 + 35, p15 + 36, p15 + 37, p15 + 38, p15 + 39, 10};
p16 = newp;
Point(p16 + 1) = {21.85986469222479, 1.070729718437304, 0.1};
Point(p16 + 2) = {21.8192915400529, 1.239729059850731, 0.1};
Point(p16 + 3) = {21.75278058914537, 1.400300699578024, 0.1};
Point(p16 + 4) = {21.66196955985073, 1.548490830942377, 0.1};
Point(p16 + 5) = {21.54909452109475, 1.680650521094752, 0.1};
Point(p16 + 6) = {21.41693483094238, 1.793525559850731, 0.1};
Point(p16 + 7) = {21.26874469957802, 1.884336589145367, 0.1};
Point(p16 + 8) = {21.10817305985073, 1.950847540052898, 0.1};
Point(p16 + 9) = {20.9391737184373, 1.991420692224791, 0.1};
Point(p16 + 10) = {20.765908, 2.005057, 0.1};
Point(p16 + 11) = {20.5926422815627, 1.99142069222479, 0.1};
Point(p16 + 12) = {20.42364294014927, 1.950847540052898, 0.1};
Point(p16 + 13) = {20.26307130042198, 1.884336589145367, 0.1};
Point(p16 + 14) = {20.11488116905762, 1.793525559850731, 0.1};
Point(p16 + 15) = {19.98272147890525, 1.680650521094752, 0.1};
Point(p16 + 16) = {19.86984644014927, 1.548490830942377, 0.1};
Point(p16 + 17) = {19.77903541085463, 1.400300699578024, 0.1};
Point(p16 + 18) = {19.7125244599471, 1.239729059850731, 0.1};
Point(p16 + 19) = {19.67195130777521, 1.070729718437305, 0.1};
Point(p16 + 20) = {19.658315, 0.8974640000000002, 0.1};
Point(p16 + 21) = {19.67195130777521, 0.7241982815626957, 0.1};
Point(p16 + 22) = {19.7125244599471, 0.5551989401492685, 0.1};
Point(p16 + 23) = {19.77903541085463, 0.3946273004219767, 0.1};
Point(p16 + 24) = {19.86984644014927, 0.2464371690576229, 0.1};
Point(p16 + 25) = {19.98272147890525, 0.1142774789052483, 0.1};
Point(p16 + 26) = {20.11488116905762, 0.001402440149268935, 0.1};
Point(p16 + 27) = {20.26307130042198, -0.08940858914536687, 0.1};
Point(p16 + 28) = {20.42364294014927, -0.1559195400528981, 0.1};
Point(p16 + 29) = {20.5926422815627, -0.1964926922247903, 0.1};
Point(p16 + 30) = {20.765908, -0.210129, 0.1};
Point(p16 + 31) = {20.9391737184373, -0.1964926922247905, 0.1};
Point(p16 + 32) = {21.10817305985073, -0.1559195400528981, 0.1};
Point(p16 + 33) = {21.26874469957802, -0.08940858914536709, 0.1};
Point(p16 + 34) = {21.41693483094238, 0.001402440149268713, 0.1};
Point(p16 + 35) = {21.54909452109475, 0.1142774789052481, 0.1};
Point(p16 + 36) = {21.66196955985073, 0.2464371690576227, 0.1};
Point(p16 + 37) = {21.75278058914537, 0.394627300421976, 0.1};
Point(p16 + 38) = {21.8192915400529, 0.5551989401492687, 0.1};
Point(p16 + 39) = {21.85986469222479, 0.7241982815626953, 0.1};
Spline(16) = {11, p16 + 1, p16 + 2, p16 + 3, p16 + 4, p16 + 5, p16 + 6, p16 + 7, p16 + 8, p16 + 9, p16 + 10, p16 + 11, p16 + 12, p16 + 13, p16 + 14, p16 + 15, p16 + 16, p16 + 17, p16 + 18, p16 + 19, p16 + 20, p16 + 21, p16 + 22, p16 + 23, p16 + 24, p16 + 25, p16 + 26, p16 + 27, p16 + 28, p16 + 29, p16 + 30, p16 + 31, p16 + 32, p16 + 33, p16 + 34, p16 + 35, p16 + 36, p16 + 37, p16 + 38, p16 + 39, 11};
Line(17) = {12, 11};
p18 = newp;
Point(p18 + 1) = {21.85986469222479, 1.070729718437304, 0};
Point(p18 + 2) = {21.8192915400529, 1.239729059850731, 0};
Point(p18 + 3) = {21.75278058914537, 1.400300699578024, 0};
Point(p18 + 4) = {21.66196955985073, 1.548490830942377, 0};
Point(p18 + 5) = {21.54909452109475, 1.680650521094752, 0};
Point(p18 + 6) = {21.41693483094238, 1.793525559850731, 0};
Point(p18 + 7) = {21.26874469957802, 1.884336589145367, 0};
Point(p18 + 8) = {21.10817305985073, 1.950847540052898, 0};
Point(p18 + 9) = {20.9391737184373, 1.991420692224791, 0};
Point(p18 + 10) = {20.765908, 2.005057, 0};
Point(p18 + 11) = {20.5926422815627, 1.99142069222479, 0};
Point(p18 + 12) = {20.42364294014927, 1.950847540052898, 0};
Point(p18 + 13) = {20.26307130042198, 1.884336589145367, 0};
Point(p18 + 14) = {20.11488116905762, 1.793525559850731, 0};
Point(p18 + 15) = {19.98272147890525, 1.680650521094752, 0};
Point(p18 + 16) = {19.86984644014927, 1.548490830942377, 0};
Point(p18 + 17) = {19.77903541085463, 1.400300699578024, 0};
Point(p18 + 18) = {19.7125244599471, 1.239729059850731, 0};
Point(p18 + 19) = {19.67195130777521, 1.070729718437305, 0};
Point(p18 + 20) = {19.658315, 0.8974640000000002, 0};
Point(p18 + 21) = {19.67195130777521, 0.7241982815626957, 0};
Point(p18 + 22) = {19.7125244599471, 0.5551989401492685, 0};
Point(p18 + 23) = {19.77903541085463, 0.3946273004219767, 0};
Point(p18 + 24) = {19.86984644014927, 0.2464371690576229, 0};
Point(p18 + 25) = {19.98272147890525, 0.1142774789052483, 0};
Point(p18 + 26) = {20.11488116905762, 0.001402440149268935, 0};
Point(p18 + 27) = {20.26307130042198, -0.08940858914536687, 0};
Point(p18 + 28) = {20.42364294014927, -0.1559195400528981, 0};
Point(p18 + 29) = {20.5926422815627, -0.1964926922247903, 0};
Point(p18 + 30) = {20.765908, -0.210129, 0};
Point(p18 + 31) = {20.9391737184373, -0.1964926922247905, 0};
Point(p18 + 32) = {21.10817305985073, -0.1559195400528981, 0};
Point(p18 + 33) = {21.26874469957802, -0.08940858914536709, 0};
Point(p18 + 34) = {21.41693483094238, 0.001402440149268713, 0};
Point(p18 + 35) = {21.54909452109475, 0.1142774789052481, 0};
Point(p18 + 36) = {21.66196955985073, 0.2464371690576227, 0};
Point(p18 + 37) = {21.75278058914537, 0.394627300421976, 0};
Point(p18 + 38) = {21.8192915400529, 0.5551989401492687, 0};
Point(p18 + 39) = {21.85986469222479, 0.7241982815626953, 0};
Spline(18) = {12, p18 + 1, p18 + 2, p18 + 3, p18 + 4, p18 + 5, p18 + 6, p18 + 7, p18 + 8, p18 + 9, p18 + 10, p18 + 11, p18 + 12, p18 + 13, p18 + 14, p18 + 15, p18 + 16, p18 + 17, p18 + 18, p18 + 19, p18 + 20, p18 + 21, p18 + 22, p18 + 23, p18 + 24, p18 + 25, p18 + 26, p18 + 27, p18 + 28, p18 + 29, p18 + 30, p18 + 31, p18 + 32, p18 + 33, p18 + 34, p18 + 35, p18 + 36, p18 + 37, p18 + 38, p18 + 39, 12};
Line(19) = {14, 13};
Line(20) = {13, 15};
Line(21) = {16, 15};
Line(22) = {14, 16};
Line(23) = {14, 17};
Line(24) = {17, 18};
Line(25) = {13, 18};
Line(26) = {15, 19};
Line(27) = {18, 19};
Line(28) = {16, 20};
Line(29) = {20, 19};
Line(30) = {17, 20};
Curve Loop(7) = {-13, -14, 15, 14};
Surface(7) = {7};
Curve Loop(8) = {13};
Plane Surface(8) = {8};
Curve Loop(9) = {15};
Plane Surface(9) = {9};
Curve Loop(10) = {-16, -17, 18, 17};
Surface(10) = {10};
Curve Loop(11) = {16};
Plane Surface(11) = {11};
Curve Loop(12) = {18};
Plane Surface(12) = {12};
Curve Loop(13) = {-19, 22, 21, -20};
Plane Surface(13) = {13};
Curve Loop(14) = {-23, 19, 25, -24};
Plane Surface(14) = {14};
Curve Loop(15) = {-20, 25, 27, -26, -13, -16};
Plane Surface(15) = {15};
Curve Loop(16) = {-28, 21, 26, -29};
Plane Surface(16) = {16};
Curve Loop(17) = {-22, 23, 30, -28, -15, -18};
Plane Surface(17) = {17};
Curve Loop(18) = {-24, 30, 29, -27};
Plane Surface(18) = {18};
Surface Loop(1) = {13, 14, 15, 16, 17, 18, 7, 10};
Volume(1) = {1};
Surface Loop(2) = {7, 8, 9};
Volume(2) = {2};
Surface Loop(3) = {10, 11, 12};
Volume(3) = {3};
Physical Surface("WALLS") = {13, 18};
Physical Surface("LOAD") = {8, 11};
Physical Surface("BORDER") = {7, 9, 10, 12, 14, 15, 16, 17};
Physical Volume("SOLID") = {1, 2, 3};
