cl__1 = 0.138413;
cl__2 = 0.065455;
cl__3 = 0.453996;
cl__4 = 0.244111;
cl__5 = 4.533473;
cl__6 = 4.466414;
Point(9) = {5.286307000000001, 2.703614, 0.1, cl__1};
Point(10) = {5.286307000000001, 2.703614, 0, cl__1};
Point(11) = {16.081136, 1.164596, 0.1, cl__2};
Point(12) = {16.081136, 1.164596, 0, cl__2};
Point(13) = {0.308258, -3.926897, 0.1, cl__3};
Point(14) = {0.308258, -3.926897, 0, cl__3};
Point(15) = {0.308258, 5.724859, 0.1, cl__4};
Point(16) = {0.308258, 5.724859, 0, cl__4};
Point(17) = {37.961223, -3.926897, 0, cl__5};
Point(18) = {37.961223, -3.926897, 0.1, cl__5};
Point(19) = {37.961223, 5.724859, 0.1, cl__6};
Point(20) = {37.961223, 5.724859, 0, cl__6};
p13 = newp;
Point(p13 + 1) = {5.269266001309651, 2.92014041826846, 0.1};
Point(p13 + 2) = {5.218562611182192, 3.131335237509168, 0.1};
Point(p13 + 3) = {5.135445315357467, 3.331998140356998, 0.1};
Point(p13 + 4) = {5.021960737509168, 3.517188140181842, 0.1};
Point(p13 + 5) = {4.880903244577642, 3.682345244577642, 0.1};
Point(p13 + 6) = {4.715746140181842, 3.823402737509168, 0.1};
Point(p13 + 7) = {4.530556140356998, 3.936887315357466, 0.1};
Point(p13 + 8) = {4.329893237509168, 4.020004611182192, 0.1};
Point(p13 + 9) = {4.11869841826846, 4.070708001309651, 0.1};
Point(p13 + 10) = {3.902172, 4.087749, 0.1};
Point(p13 + 11) = {3.68564558173154, 4.070708001309651, 0.1};
Point(p13 + 12) = {3.474450762490832, 4.020004611182192, 0.1};
Point(p13 + 13) = {3.273787859643003, 3.936887315357466, 0.1};
Point(p13 + 14) = {3.088597859818158, 3.823402737509168, 0.1};
Point(p13 + 15) = {2.923440755422358, 3.682345244577642, 0.1};
Point(p13 + 16) = {2.782383262490832, 3.517188140181842, 0.1};
Point(p13 + 17) = {2.668898684642534, 3.331998140356998, 0.1};
Point(p13 + 18) = {2.585781388817808, 3.131335237509168, 0.1};
Point(p13 + 19) = {2.535077998690349, 2.92014041826846, 0.1};
Point(p13 + 20) = {2.518037000000001, 2.703614, 0.1};
Point(p13 + 21) = {2.535077998690349, 2.48708758173154, 0.1};
Point(p13 + 22) = {2.585781388817808, 2.275892762490832, 0.1};
Point(p13 + 23) = {2.668898684642533, 2.075229859643003, 0.1};
Point(p13 + 24) = {2.782383262490832, 1.890039859818158, 0.1};
Point(p13 + 25) = {2.923440755422358, 1.724882755422358, 0.1};
Point(p13 + 26) = {3.088597859818158, 1.583825262490832, 0.1};
Point(p13 + 27) = {3.273787859643003, 1.470340684642534, 0.1};
Point(p13 + 28) = {3.474450762490832, 1.387223388817808, 0.1};
Point(p13 + 29) = {3.68564558173154, 1.336519998690349, 0.1};
Point(p13 + 30) = {3.902172, 1.319479, 0.1};
Point(p13 + 31) = {4.11869841826846, 1.336519998690349, 0.1};
Point(p13 + 32) = {4.329893237509168, 1.387223388817808, 0.1};
Point(p13 + 33) = {4.530556140356998, 1.470340684642533, 0.1};
Point(p13 + 34) = {4.715746140181842, 1.583825262490832, 0.1};
Point(p13 + 35) = {4.880903244577642, 1.724882755422358, 0.1};
Point(p13 + 36) = {5.021960737509168, 1.890039859818158, 0.1};
Point(p13 + 37) = {5.135445315357467, 2.075229859643002, 0.1};
Point(p13 + 38) = {5.218562611182192, 2.275892762490832, 0.1};
Point(p13 + 39) = {5.269266001309651, 2.48708758173154, 0.1};
Spline(13) = {9, p13 + 1, p13 + 2, p13 + 3, p13 + 4, p13 + 5, p13 + 6, p13 + 7, p13 + 8, p13 + 9, p13 + 10, p13 + 11, p13 + 12, p13 + 13, p13 + 14, p13 + 15, p13 + 16, p13 + 17, p13 + 18, p13 + 19, p13 + 20, p13 + 21, p13 + 22, p13 + 23, p13 + 24, p13 + 25, p13 + 26, p13 + 27, p13 + 28, p13 + 29, p13 + 30, p13 + 31, p13 + 32, p13 + 33, p13 + 34, p13 + 35, p13 + 36, p13 + 37, p13 + 38, p13 + 39, 9};
Line(14) = {10, 9};
p15 = newp;
Point(p15 + 1) = {5.269266001309651, 2.92014041826846, 0};
Point(p15 + 2) = {5.218562611182192, 3.131335237509168, 0};
Point(p15 + 3) = {5.135445315357467, 3.331998140356998, 0};
Point(p15 + 4) = {5.021960737509168, 3.517188140181842, 0};
Point(p15 + 5) = {4.880903244577642, 3.682345244577642, 0};
Point(p15 + 6) = {4.715746140181842, 3.823402737509168, 0};
Point(p15 + 7) = {4.530556140356998, 3.936887315357466, 0};
Point(p15 + 8) = {4.329893237509168, 4.020004611182192, 0};
Point(p15 + 9) = {4.11869841826846, 4.070708001309651, 0};
Point(p15 + 10) = {3.902172, 4.087749, 0};
Point(p15 + 11) = {3.68564558173154, 4.070708001309651, 0};
Point(p15 + 12) = {3.474450762490832, 4.020004611182192, 0};
Point(p15 + 13) = {3.273787859643003, 3.936887315357466, 0};
Point(p15 + 14) = {3.088597859818158, 3.823402737509168, 0};
Point(p15 + 15) = {2.923440755422358, 3.682345244577642, 0};
Point(p15 + 16) = {2.782383262490832, 3.517188140181842, 0};
Point(p15 + 17) = {2.668898684642534, 3.331998140356998, 0};
Point(p15 + 18) = {2.585781388817808, 3.131335237509168, 0};
Point(p15 + 19) = {2.535077998690349, 2.92014041826846, 0};
Point(p15 + 20) = {2.518037000000001, 2.703614, 0};
Point(p15 + 21) = {2.535077998690349, 2.48708758173154, 0};
Point(p15 + 22) = {2.585781388817808, 2.275892762490832, 0};
Point(p15 + 23) = {2.668898684642533, 2.075229859643003, 0};
Point(p15 + 24) = {2.782383262490832, 1.890039859818158, 0};
Point(p15 + 25) = {2.923440755422358, 1.724882755422358, 0};
Point(p15 + 26) = {3.088597859818158, 1.583825262490832, 0};
Point(p15 + 27) = {3.273787859643003, 1.470340684642534, 0};
Point(p15 + 28) = {3.474450762490832, 1.387223388817808, 0};
Point(p15 + 29) = {3.68564558173154, 1.336519998690349, 0};
Point(p15 + 30) = {3.902172, 1.319479, 0};
Point(p15 + 31) = {4.11869841826846, 1.336519998690349, 0};
Point(p15 + 32) = {4.329893237509168, 1.387223388817808, 0};
Point(p15 + 33) = {4.530556140356998, 1.470340684642533, 0};
Point(p15 + 34) = {4.715746140181842, 1.583825262490832, 0};
Point(p15 + 35) = {4.880903244577642, 1.724882755422358, 0};
Point(p15 + 36) = {5.021960737509168, 1.890039859818158, 0};
Point(p15 + 37) = {5.135445315357467, 2.075229859643002, 0};
Point(p15 + 38) = {5.218562611182192, 2.275892762490832, 0};
Point(p15 + 39) = {5.269266001309651, 2.48708758173154, 0};
Spline(15) = {10, p15 + 1, p15 + 2, p15 + 3, p15 + 4, p15 + 5, p15 + 6, p15 + 7, p15 + 8, p15 + 9, p15 + 10, p15 + 11, p15 + 12, p15 + 13, p15 + 14, p15 + 15, p15 + 16, p15 + 17, p15 + 18, p15 + 19, p15 + 20, p15 + 21, p15 + 22, p15 + 23, p15 + 24, p15 + 25, p15 + 26, p15 + 27, p15 + 28, p15 + 29, p15 + 30, p15 + 31, p15 + 32, p15 + 33, p15 + 34, p15 + 35, p15 + 36, p15 + 37, p15 + 38, p15 + 39, 10};
p16 = newp;
Point(p16 + 1) = {16.07307736640157, 1.266990648395478, 0.1};
Point(p16 + 2) = {16.04909989591054, 1.366864000719105, 0.1};
Point(p16 + 3) = {16.00979399342707, 1.46175684357602, 0.1};
Point(p16 + 4) = {15.95612750071911, 1.549332600243795, 0.1};
Point(p16 + 5) = {15.889421864946, 1.627434864945998, 0.1};
Point(p16 + 6) = {15.8113196002438, 1.694140500719105, 0.1};
Point(p16 + 7) = {15.72374384357602, 1.747806993427069, 0.1};
Point(p16 + 8) = {15.62885100071911, 1.787112895910542, 0.1};
Point(p16 + 9) = {15.52897764839548, 1.811090366401569, 0.1};
Point(p16 + 10) = {15.426583, 1.819149, 0.1};
Point(p16 + 11) = {15.32418835160452, 1.811090366401569, 0.1};
Point(p16 + 12) = {15.2243149992809, 1.787112895910542, 0.1};
Point(p16 + 13) = {15.12942215642398, 1.747806993427069, 0.1};
Point(p16 + 14) = {15.04184639975621, 1.694140500719105, 0.1};
Point(p16 + 15) = {14.963744135054, 1.627434864945998, 0.1};
Point(p16 + 16) = {14.8970384992809, 1.549332600243795, 0.1};
Point(p16 + 17) = {14.84337200657293, 1.46175684357602, 0.1};
Point(p16 + 18) = {14.80406610408946, 1.366864000719105, 0.1};
Point(p16 + 19) = {14.78008863359843, 1.266990648395478, 0.1};
Point(p16 + 20) = {14.77203, 1.164596, 0.1};
Point(p16 + 21) = {14.78008863359843, 1.062201351604522, 0.1};
Point(p16 + 22) = {14.80406610408946, 0.9623279992808949, 0.1};
Point(p16 + 23) = {14.84337200657293, 0.8674351564239806, 0.1};
Point(p16 + 24) = {14.8970384992809, 0.7798593997562049, 0.1};
Point(p16 + 25) = {14.963744135054, 0.7017571350540017, 0.1};
Point(p16 + 26) = {15.04184639975621, 0.635051499280895, 0.1};
Point(p16 + 27) = {15.12942215642398, 0.5813850065729312, 0.1};
Point(p16 + 28) = {15.2243149992809, 0.5420791040894583, 0.1};
Point(p16 + 29) = {15.32418835160452, 0.5181016335984308, 0.1};
Point(p16 + 30) = {15.426583, 0.5100429999999999, 0.1};
Point(p16 + 31) = {15.52897764839548, 0.5181016335984308, 0.1};
Point(p16 + 32) = {15.62885100071911, 0.5420791040894583, 0.1};
Point(p16 + 33) = {15.72374384357602, 0.581385006572931, 0.1};
Point(p16 + 34) = {15.8113196002438, 0.6350514992808949, 0.1};
Point(p16 + 35) = {15.889421864946, 0.7017571350540015, 0.1};
Point(p16 + 36) = {15.95612750071911, 0.7798593997562047, 0.1};
Point(p16 + 37) = {16.00979399342707, 0.8674351564239803, 0.1};
Point(p16 + 38) = {16.04909989591054, 0.9623279992808949, 0.1};
Point(p16 + 39) = {16.07307736640157, 1.062201351604521, 0.1};
Spline(16) = {11, p16 + 1, p16 + 2, p16 + 3, p16 + 4, p16 + 5, p16 + 6, p16 + 7, p16 + 8, p16 + 9, p16 + 10, p16 + 11, p16 + 12, p16 + 13, p16 + 14, p16 + 15, p16 + 16, p16 + 17, p16 + 18, p16 + 19, p16 + 20, p16 + 21, p16 + 22, p16 + 23, p16 + 24, p16 + 25, p16 + 26, p16 + 27, p16 + 28, p16 + 29, p16 + 30, p16 + 31, p16 + 32, p16 + 33, p16 + 34, p16 + 35, p16 + 36, p16 + 37, p16 + 38, p16 + 39, 11};
Line(17) = {12, 11};
p18 = newp;
Point(p18 + 1) = {16.07307736640157, 1.266990648395478, 0};
Point(p18 + 2) = {16.04909989591054, 1.366864000719105, 0};
Point(p18 + 3) = {16.00979399342707, 1.46175684357602, 0};
Point(p18 + 4) = {15.95612750071911, 1.549332600243795, 0};
Point(p18 + 5) = {15.889421864946, 1.627434864945998, 0};
Point(p18 + 6) = {15.8113196002438, 1.694140500719105, 0};
Point(p18 + 7) = {15.72374384357602, 1.747806993427069, 0};
Point(p18 + 8) = {15.62885100071911, 1.787112895910542, 0};
Point(p18 + 9) = {15.52897764839548, 1.811090366401569, 0};
Point(p18 + 10) = {15.426583, 1.819149, 0};
Point(p18 + 11) = {15.32418835160452, 1.811090366401569, 0};
Point(p18 + 12) = {15.2243149992809, 1.787112895910542, 0};
Point(p18 + 13) = {15.12942215642398, 1.747806993427069, 0};
Point(p18 + 14) = {15.04184639975621, 1.694140500719105, 0};
Point(p18 + 15) = {14.963744135054, 1.627434864945998, 0};
Point(p18 + 16) = {14.8970384992809, 1.549332600243795, 0};
Point(p18 + 17) = {14.84337200657293, 1.46175684357602, 0};
Point(p18 + 18) = {14.80406610408946, 1.366864000719105, 0};
Point(p18 + 19) = {14.78008863359843, 1.266990648395478, 0};
Point(p18 + 20) = {14.77203, 1.164596, 0};
Point(p18 + 21) = {14.78008863359843, 1.062201351604522, 0};
Point(p18 + 22) = {14.80406610408946, 0.9623279992808949, 0};
Point(p18 + 23) = {14.84337200657293, 0.8674351564239806, 0};
Point(p18 + 24) = {14.8970384992809, 0.7798593997562049, 0};
Point(p18 + 25) = {14.963744135054, 0.7017571350540017, 0};
Point(p18 + 26) = {15.04184639975621, 0.635051499280895, 0};
Point(p18 + 27) = {15.12942215642398, 0.5813850065729312, 0};
Point(p18 + 28) = {15.2243149992809, 0.5420791040894583, 0};
Point(p18 + 29) = {15.32418835160452, 0.5181016335984308, 0};
Point(p18 + 30) = {15.426583, 0.5100429999999999, 0};
Point(p18 + 31) = {15.52897764839548, 0.5181016335984308, 0};
Point(p18 + 32) = {15.62885100071911, 0.5420791040894583, 0};
Point(p18 + 33) = {15.72374384357602, 0.581385006572931, 0};
Point(p18 + 34) = {15.8113196002438, 0.6350514992808949, 0};
Point(p18 + 35) = {15.889421864946, 0.7017571350540015, 0};
Point(p18 + 36) = {15.95612750071911, 0.7798593997562047, 0};
Point(p18 + 37) = {16.00979399342707, 0.8674351564239803, 0};
Point(p18 + 38) = {16.04909989591054, 0.9623279992808949, 0};
Point(p18 + 39) = {16.07307736640157, 1.062201351604521, 0};
Spline(18) = {12, p18 + 1, p18 + 2, p18 + 3, p18 + 4, p18 + 5, p18 + 6, p18 + 7, p18 + 8, p18 + 9, p18 + 10, p18 + 11, p18 + 12, p18 + 13, p18 + 14, p18 + 15, p18 + 16, p18 + 17, p18 + 18, p18 + 19, p18 + 20, p18 + 21, p18 + 22, p18 + 23, p18 + 24, p18 + 25, p18 + 26, p18 + 27, p18 + 28, p18 + 29, p18 + 30, p18 + 31, p18 + 32, p18 + 33, p18 + 34, p18 + 35, p18 + 36, p18 + 37, p18 + 38, p18 + 39, 12};
Line(19) = {14, 13};
Line(20) = {13, 15};
Line(21) = {16, 15};
Line(22) = {14, 16};
Line(23) = {14, 17};
Line(24) = {17, 18};
Line(25) = {13, 18};
Line(26) = {15, 19};
Line(27) = {18, 19};
Line(28) = {16, 20};
Line(29) = {20, 19};
Line(30) = {17, 20};
Curve Loop(7) = {-13, -14, 15, 14};
Surface(7) = {7};
Curve Loop(8) = {13};
Plane Surface(8) = {8};
Curve Loop(9) = {15};
Plane Surface(9) = {9};
Curve Loop(10) = {-16, -17, 18, 17};
Surface(10) = {10};
Curve Loop(11) = {16};
Plane Surface(11) = {11};
Curve Loop(12) = {18};
Plane Surface(12) = {12};
Curve Loop(13) = {-19, 22, 21, -20};
Plane Surface(13) = {13};
Curve Loop(14) = {-23, 19, 25, -24};
Plane Surface(14) = {14};
Curve Loop(15) = {-20, 25, 27, -26, -16, -13};
Plane Surface(15) = {15};
Curve Loop(16) = {-28, 21, 26, -29};
Plane Surface(16) = {16};
Curve Loop(17) = {-22, 23, 30, -28, -18, -15};
Plane Surface(17) = {17};
Curve Loop(18) = {-24, 30, 29, -27};
Plane Surface(18) = {18};
Surface Loop(1) = {13, 14, 15, 16, 17, 18, 10, 7};
Volume(1) = {1};
Surface Loop(2) = {7, 8, 9};
Volume(2) = {2};
Surface Loop(3) = {10, 11, 12};
Volume(3) = {3};
Physical Surface("WALLS") = {13, 18};
Physical Surface("LOAD") = {8, 11};
Physical Surface("BORDER") = {7, 9, 10, 12, 14, 15, 16, 17};
Physical Volume("SOLID") = {1, 2, 3};
