cl__1 = 0.08115700000000001;
cl__2 = 0.138973;
cl__3 = 3.894886;
cl__4 = 2.995626;
cl__5 = 0.423267;
cl__6 = 0.561812;
Point(9) = {35.49767600000001, -0.1594490000000002, 0.1, cl__1};
Point(10) = {35.49767600000001, -0.1594490000000002, 0, cl__1};
Point(11) = {15.008913, 2.46812, 0.1, cl__2};
Point(12) = {15.008913, 2.46812, 0, cl__2};
Point(13) = {0.532096, -3.341346, 1, cl__3};
Point(14) = {0.532096, -3.341346, 0, cl__3};
Point(15) = {0.532096, 4.443571, 1, cl__4};
Point(16) = {0.532096, 4.443571, 0, cl__4};
Point(17) = {37.563068, -3.341346, 0, cl__5};
Point(18) = {37.563068, -3.341346, 1, cl__5};
Point(19) = {37.563068, 4.443571, 1, cl__6};
Point(20) = {37.563068, 4.443571, 0, cl__6};
p13 = newp;
Point(p13 + 1) = {35.48768418964182, -0.03249101190390472, 0.1};
Point(p13 + 2) = {35.45795479009921, 0.09134084917585916, 0.1};
Point(p13 + 3) = {35.40921983785513, 0.2089974318451231, 0.1};
Point(p13 + 4) = {35.34267934917586, 0.3175816405587593, 0.1};
Point(p13 + 5) = {35.25997177172791, 0.4144197717279098, 0.1};
Point(p13 + 6) = {35.16313364055876, 0.4971273491758592, 0.1};
Point(p13 + 7) = {35.05454943184512, 0.5636678378551261, 0.1};
Point(p13 + 8) = {34.93689284917586, 0.6124027900992066, 0.1};
Point(p13 + 9) = {34.8130609880961, 0.6421321896418177, 0.1};
Point(p13 + 10) = {34.686103, 0.6521239999999999, 0.1};
Point(p13 + 11) = {34.55914501190391, 0.6421321896418177, 0.1};
Point(p13 + 12) = {34.43531315082414, 0.6124027900992066, 0.1};
Point(p13 + 13) = {34.31765656815488, 0.5636678378551263, 0.1};
Point(p13 + 14) = {34.20907235944124, 0.4971273491758592, 0.1};
Point(p13 + 15) = {34.11223422827209, 0.4144197717279099, 0.1};
Point(p13 + 16) = {34.02952665082415, 0.3175816405587594, 0.1};
Point(p13 + 17) = {33.96298616214488, 0.2089974318451233, 0.1};
Point(p13 + 18) = {33.9142512099008, 0.09134084917585927, 0.1};
Point(p13 + 19) = {33.88452181035819, -0.03249101190390463, 0.1};
Point(p13 + 20) = {33.87453, -0.1594489999999999, 0.1};
Point(p13 + 21) = {33.88452181035819, -0.2864069880960952, 0.1};
Point(p13 + 22) = {33.9142512099008, -0.4102388491758595, 0.1};
Point(p13 + 23) = {33.96298616214488, -0.5278954318451228, 0.1};
Point(p13 + 24) = {34.02952665082415, -0.6364796405587592, 0.1};
Point(p13 + 25) = {34.11223422827209, -0.7333177717279098, 0.1};
Point(p13 + 26) = {34.20907235944124, -0.8160253491758591, 0.1};
Point(p13 + 27) = {34.31765656815488, -0.8825658378551262, 0.1};
Point(p13 + 28) = {34.43531315082414, -0.9313007900992067, 0.1};
Point(p13 + 29) = {34.55914501190391, -0.9610301896418176, 0.1};
Point(p13 + 30) = {34.686103, -0.9710220000000001, 0.1};
Point(p13 + 31) = {34.8130609880961, -0.9610301896418176, 0.1};
Point(p13 + 32) = {34.93689284917586, -0.9313007900992067, 0.1};
Point(p13 + 33) = {35.05454943184512, -0.8825658378551264, 0.1};
Point(p13 + 34) = {35.16313364055876, -0.8160253491758593, 0.1};
Point(p13 + 35) = {35.25997177172791, -0.73331777172791, 0.1};
Point(p13 + 36) = {35.34267934917586, -0.6364796405587594, 0.1};
Point(p13 + 37) = {35.40921983785513, -0.5278954318451233, 0.1};
Point(p13 + 38) = {35.45795479009921, -0.4102388491758593, 0.1};
Point(p13 + 39) = {35.48768418964182, -0.2864069880960955, 0.1};
Spline(13) = {9, p13 + 1, p13 + 2, p13 + 3, p13 + 4, p13 + 5, p13 + 6, p13 + 7, p13 + 8, p13 + 9, p13 + 10, p13 + 11, p13 + 12, p13 + 13, p13 + 14, p13 + 15, p13 + 16, p13 + 17, p13 + 18, p13 + 19, p13 + 20, p13 + 21, p13 + 22, p13 + 23, p13 + 24, p13 + 25, p13 + 26, p13 + 27, p13 + 28, p13 + 29, p13 + 30, p13 + 31, p13 + 32, p13 + 33, p13 + 34, p13 + 35, p13 + 36, p13 + 37, p13 + 38, p13 + 39, 9};
Line(14) = {10, 9};
p15 = newp;
Point(p15 + 1) = {35.48768418964182, -0.03249101190390472, 0};
Point(p15 + 2) = {35.45795479009921, 0.09134084917585916, 0};
Point(p15 + 3) = {35.40921983785513, 0.2089974318451231, 0};
Point(p15 + 4) = {35.34267934917586, 0.3175816405587593, 0};
Point(p15 + 5) = {35.25997177172791, 0.4144197717279098, 0};
Point(p15 + 6) = {35.16313364055876, 0.4971273491758592, 0};
Point(p15 + 7) = {35.05454943184512, 0.5636678378551261, 0};
Point(p15 + 8) = {34.93689284917586, 0.6124027900992066, 0};
Point(p15 + 9) = {34.8130609880961, 0.6421321896418177, 0};
Point(p15 + 10) = {34.686103, 0.6521239999999999, 0};
Point(p15 + 11) = {34.55914501190391, 0.6421321896418177, 0};
Point(p15 + 12) = {34.43531315082414, 0.6124027900992066, 0};
Point(p15 + 13) = {34.31765656815488, 0.5636678378551263, 0};
Point(p15 + 14) = {34.20907235944124, 0.4971273491758592, 0};
Point(p15 + 15) = {34.11223422827209, 0.4144197717279099, 0};
Point(p15 + 16) = {34.02952665082415, 0.3175816405587594, 0};
Point(p15 + 17) = {33.96298616214488, 0.2089974318451233, 0};
Point(p15 + 18) = {33.9142512099008, 0.09134084917585927, 0};
Point(p15 + 19) = {33.88452181035819, -0.03249101190390463, 0};
Point(p15 + 20) = {33.87453, -0.1594489999999999, 0};
Point(p15 + 21) = {33.88452181035819, -0.2864069880960952, 0};
Point(p15 + 22) = {33.9142512099008, -0.4102388491758595, 0};
Point(p15 + 23) = {33.96298616214488, -0.5278954318451228, 0};
Point(p15 + 24) = {34.02952665082415, -0.6364796405587592, 0};
Point(p15 + 25) = {34.11223422827209, -0.7333177717279098, 0};
Point(p15 + 26) = {34.20907235944124, -0.8160253491758591, 0};
Point(p15 + 27) = {34.31765656815488, -0.8825658378551262, 0};
Point(p15 + 28) = {34.43531315082414, -0.9313007900992067, 0};
Point(p15 + 29) = {34.55914501190391, -0.9610301896418176, 0};
Point(p15 + 30) = {34.686103, -0.9710220000000001, 0};
Point(p15 + 31) = {34.8130609880961, -0.9610301896418176, 0};
Point(p15 + 32) = {34.93689284917586, -0.9313007900992067, 0};
Point(p15 + 33) = {35.05454943184512, -0.8825658378551264, 0};
Point(p15 + 34) = {35.16313364055876, -0.8160253491758593, 0};
Point(p15 + 35) = {35.25997177172791, -0.73331777172791, 0};
Point(p15 + 36) = {35.34267934917586, -0.6364796405587594, 0};
Point(p15 + 37) = {35.40921983785513, -0.5278954318451233, 0};
Point(p15 + 38) = {35.45795479009921, -0.4102388491758593, 0};
Point(p15 + 39) = {35.48768418964182, -0.2864069880960955, 0};
Spline(15) = {10, p15 + 1, p15 + 2, p15 + 3, p15 + 4, p15 + 5, p15 + 6, p15 + 7, p15 + 8, p15 + 9, p15 + 10, p15 + 11, p15 + 12, p15 + 13, p15 + 14, p15 + 15, p15 + 16, p15 + 17, p15 + 18, p15 + 19, p15 + 20, p15 + 21, p15 + 22, p15 + 23, p15 + 24, p15 + 25, p15 + 26, p15 + 27, p15 + 28, p15 + 29, p15 + 30, p15 + 31, p15 + 32, p15 + 33, p15 + 34, p15 + 35, p15 + 36, p15 + 37, p15 + 38, p15 + 39, 10};
p16 = newp;
Point(p16 + 1) = {14.99180316682192, 2.6855210433625, 0.1};
Point(p16 + 2) = {14.9408949681648, 2.897568951524718, 0.1};
Point(p16 + 3) = {14.8574419328342, 3.099042401241041, 0.1};
Point(p16 + 4) = {14.74349895152472, 3.284980447527409, 0.1};
Point(p16 + 5) = {14.60187167859126, 3.450804678591256, 0.1};
Point(p16 + 6) = {14.43604744752741, 3.592431951524718, 0.1};
Point(p16 + 7) = {14.25010940124104, 3.706374932834203, 0.1};
Point(p16 + 8) = {14.04863595152472, 3.789827968164798, 0.1};
Point(p16 + 9) = {13.8365880433625, 3.840736166821919, 0.1};
Point(p16 + 10) = {13.619187, 3.857846, 0.1};
Point(p16 + 11) = {13.4017859566375, 3.840736166821918, 0.1};
Point(p16 + 12) = {13.18973804847528, 3.789827968164799, 0.1};
Point(p16 + 13) = {12.98826459875896, 3.706374932834204, 0.1};
Point(p16 + 14) = {12.80232655247259, 3.592431951524718, 0.1};
Point(p16 + 15) = {12.63650232140875, 3.450804678591256, 0.1};
Point(p16 + 16) = {12.49487504847528, 3.28498044752741, 0.1};
Point(p16 + 17) = {12.3809320671658, 3.099042401241041, 0.1};
Point(p16 + 18) = {12.2974790318352, 2.897568951524718, 0.1};
Point(p16 + 19) = {12.24657083317808, 2.6855210433625, 0.1};
Point(p16 + 20) = {12.229461, 2.46812, 0.1};
Point(p16 + 21) = {12.24657083317808, 2.2507189566375, 0.1};
Point(p16 + 22) = {12.2974790318352, 2.038671048475281, 0.1};
Point(p16 + 23) = {12.3809320671658, 1.837197598758959, 0.1};
Point(p16 + 24) = {12.49487504847528, 1.65125955247259, 0.1};
Point(p16 + 25) = {12.63650232140874, 1.485435321408744, 0.1};
Point(p16 + 26) = {12.80232655247259, 1.343808048475282, 0.1};
Point(p16 + 27) = {12.98826459875896, 1.229865067165796, 0.1};
Point(p16 + 28) = {13.18973804847528, 1.146412031835201, 0.1};
Point(p16 + 29) = {13.4017859566375, 1.095503833178082, 0.1};
Point(p16 + 30) = {13.619187, 1.078394, 0.1};
Point(p16 + 31) = {13.8365880433625, 1.095503833178081, 0.1};
Point(p16 + 32) = {14.04863595152472, 1.146412031835201, 0.1};
Point(p16 + 33) = {14.25010940124104, 1.229865067165796, 0.1};
Point(p16 + 34) = {14.43604744752741, 1.343808048475281, 0.1};
Point(p16 + 35) = {14.60187167859126, 1.485435321408744, 0.1};
Point(p16 + 36) = {14.74349895152472, 1.65125955247259, 0.1};
Point(p16 + 37) = {14.8574419328342, 1.837197598758958, 0.1};
Point(p16 + 38) = {14.9408949681648, 2.038671048475281, 0.1};
Point(p16 + 39) = {14.99180316682192, 2.250718956637499, 0.1};
Spline(16) = {11, p16 + 1, p16 + 2, p16 + 3, p16 + 4, p16 + 5, p16 + 6, p16 + 7, p16 + 8, p16 + 9, p16 + 10, p16 + 11, p16 + 12, p16 + 13, p16 + 14, p16 + 15, p16 + 16, p16 + 17, p16 + 18, p16 + 19, p16 + 20, p16 + 21, p16 + 22, p16 + 23, p16 + 24, p16 + 25, p16 + 26, p16 + 27, p16 + 28, p16 + 29, p16 + 30, p16 + 31, p16 + 32, p16 + 33, p16 + 34, p16 + 35, p16 + 36, p16 + 37, p16 + 38, p16 + 39, 11};
Line(17) = {12, 11};
p18 = newp;
Point(p18 + 1) = {14.99180316682192, 2.6855210433625, 0};
Point(p18 + 2) = {14.9408949681648, 2.897568951524718, 0};
Point(p18 + 3) = {14.8574419328342, 3.099042401241041, 0};
Point(p18 + 4) = {14.74349895152472, 3.284980447527409, 0};
Point(p18 + 5) = {14.60187167859126, 3.450804678591256, 0};
Point(p18 + 6) = {14.43604744752741, 3.592431951524718, 0};
Point(p18 + 7) = {14.25010940124104, 3.706374932834203, 0};
Point(p18 + 8) = {14.04863595152472, 3.789827968164798, 0};
Point(p18 + 9) = {13.8365880433625, 3.840736166821919, 0};
Point(p18 + 10) = {13.619187, 3.857846, 0};
Point(p18 + 11) = {13.4017859566375, 3.840736166821918, 0};
Point(p18 + 12) = {13.18973804847528, 3.789827968164799, 0};
Point(p18 + 13) = {12.98826459875896, 3.706374932834204, 0};
Point(p18 + 14) = {12.80232655247259, 3.592431951524718, 0};
Point(p18 + 15) = {12.63650232140875, 3.450804678591256, 0};
Point(p18 + 16) = {12.49487504847528, 3.28498044752741, 0};
Point(p18 + 17) = {12.3809320671658, 3.099042401241041, 0};
Point(p18 + 18) = {12.2974790318352, 2.897568951524718, 0};
Point(p18 + 19) = {12.24657083317808, 2.6855210433625, 0};
Point(p18 + 20) = {12.229461, 2.46812, 0};
Point(p18 + 21) = {12.24657083317808, 2.2507189566375, 0};
Point(p18 + 22) = {12.2974790318352, 2.038671048475281, 0};
Point(p18 + 23) = {12.3809320671658, 1.837197598758959, 0};
Point(p18 + 24) = {12.49487504847528, 1.65125955247259, 0};
Point(p18 + 25) = {12.63650232140874, 1.485435321408744, 0};
Point(p18 + 26) = {12.80232655247259, 1.343808048475282, 0};
Point(p18 + 27) = {12.98826459875896, 1.229865067165796, 0};
Point(p18 + 28) = {13.18973804847528, 1.146412031835201, 0};
Point(p18 + 29) = {13.4017859566375, 1.095503833178082, 0};
Point(p18 + 30) = {13.619187, 1.078394, 0};
Point(p18 + 31) = {13.8365880433625, 1.095503833178081, 0};
Point(p18 + 32) = {14.04863595152472, 1.146412031835201, 0};
Point(p18 + 33) = {14.25010940124104, 1.229865067165796, 0};
Point(p18 + 34) = {14.43604744752741, 1.343808048475281, 0};
Point(p18 + 35) = {14.60187167859126, 1.485435321408744, 0};
Point(p18 + 36) = {14.74349895152472, 1.65125955247259, 0};
Point(p18 + 37) = {14.8574419328342, 1.837197598758958, 0};
Point(p18 + 38) = {14.9408949681648, 2.038671048475281, 0};
Point(p18 + 39) = {14.99180316682192, 2.250718956637499, 0};
Spline(18) = {12, p18 + 1, p18 + 2, p18 + 3, p18 + 4, p18 + 5, p18 + 6, p18 + 7, p18 + 8, p18 + 9, p18 + 10, p18 + 11, p18 + 12, p18 + 13, p18 + 14, p18 + 15, p18 + 16, p18 + 17, p18 + 18, p18 + 19, p18 + 20, p18 + 21, p18 + 22, p18 + 23, p18 + 24, p18 + 25, p18 + 26, p18 + 27, p18 + 28, p18 + 29, p18 + 30, p18 + 31, p18 + 32, p18 + 33, p18 + 34, p18 + 35, p18 + 36, p18 + 37, p18 + 38, p18 + 39, 12};
Line(19) = {14, 13};
Line(20) = {13, 15};
Line(21) = {16, 15};
Line(22) = {14, 16};
Line(23) = {14, 17};
Line(24) = {17, 18};
Line(25) = {13, 18};
Line(26) = {15, 19};
Line(27) = {18, 19};
Line(28) = {16, 20};
Line(29) = {20, 19};
Line(30) = {17, 20};
Curve Loop(7) = {-13, -14, 15, 14};
Surface(7) = {7};
Curve Loop(8) = {13};
Plane Surface(8) = {8};
Curve Loop(9) = {15};
Plane Surface(9) = {9};
Curve Loop(10) = {-16, -17, 18, 17};
Surface(10) = {10};
Curve Loop(11) = {16};
Plane Surface(11) = {11};
Curve Loop(12) = {18};
Plane Surface(12) = {12};
Curve Loop(13) = {-19, 22, 21, -20};
Plane Surface(13) = {13};
Curve Loop(14) = {-23, 19, 25, -24};
Plane Surface(14) = {14};
Curve Loop(15) = {-20, 25, 27, -26};
Plane Surface(15) = {15};
Curve Loop(16) = {-28, 21, 26, -29};
Plane Surface(16) = {16};
Curve Loop(17) = {-22, 23, 30, -28, -15, -18};
Plane Surface(17) = {17};
Curve Loop(18) = {-24, 30, 29, -27};
Plane Surface(18) = {18};
Surface Loop(1) = {13, 14, 15, 16, 17, 18, 7, 10, 8, 11};
Volume(1) = {1};
Surface Loop(2) = {7, 8, 9};
Volume(2) = {2};
Surface Loop(3) = {10, 11, 12};
Volume(3) = {3};
Physical Surface("WALLS") = {13, 18};
Physical Surface("LOAD") = {8, 11};
Physical Surface("BORDER") = {7, 9, 10, 12, 14, 15, 16, 17};
Physical Volume("SOLID") = {1, 2, 3};
