cl__1 = 0.074532;
cl__2 = 0.100502;
cl__3 = 2.675948;
cl__4 = 2.093591;
cl__5 = 0.599353;
cl__6 = 0.733042;
Point(9) = {15.908099, 2.242799999999999, 0.1, cl__1};
Point(10) = {15.908099, 2.242799999999999, 0, cl__1};
Point(11) = {30.515301, -1.322838, 0.1, cl__2};
Point(12) = {30.515301, -1.322838, 0, cl__2};
Point(13) = {0.732552, -4.068965, 0.1, cl__3};
Point(14) = {0.732552, -4.068965, 0, cl__3};
Point(15) = {0.732552, 4.267553999999999, 0.1, cl__4};
Point(16) = {0.732552, 4.267553999999999, 0, cl__4};
Point(17) = {36.47093, -4.068965, 0, cl__5};
Point(18) = {36.47093, -4.068965, 0.1, cl__5};
Point(19) = {36.47093, 4.267553999999999, 0.1, cl__6};
Point(20) = {36.47093, 4.267553999999999, 0, cl__6};
p13 = newp;
Point(p13 + 1) = {15.898922923259, 2.359393109745925, 0.1};
Point(p13 + 2) = {15.87162063849904, 2.473115310179558, 0.1};
Point(p13 + 3) = {15.82686441858198, 2.58116638330388, 0.1};
Point(p13 + 4) = {15.76575631017956, 2.680885753097617, 0.1};
Point(p13 + 5) = {15.68980099772683, 2.769817997726832, 0.1};
Point(p13 + 6) = {15.60086875309762, 2.845773310179558, 0.1};
Point(p13 + 7) = {15.50114938330388, 2.906881418581977, 0.1};
Point(p13 + 8) = {15.39309831017956, 2.951637638499038, 0.1};
Point(p13 + 9) = {15.27937610974592, 2.978939923259006, 0.1};
Point(p13 + 10) = {15.162783, 2.988116, 0.1};
Point(p13 + 11) = {15.04618989025407, 2.978939923259006, 0.1};
Point(p13 + 12) = {14.93246768982044, 2.951637638499038, 0.1};
Point(p13 + 13) = {14.82441661669612, 2.906881418581977, 0.1};
Point(p13 + 14) = {14.72469724690238, 2.845773310179558, 0.1};
Point(p13 + 15) = {14.63576500227317, 2.769817997726833, 0.1};
Point(p13 + 16) = {14.55980968982044, 2.680885753097617, 0.1};
Point(p13 + 17) = {14.49870158141802, 2.58116638330388, 0.1};
Point(p13 + 18) = {14.45394536150096, 2.473115310179558, 0.1};
Point(p13 + 19) = {14.42664307674099, 2.359393109745925, 0.1};
Point(p13 + 20) = {14.417467, 2.2428, 0.1};
Point(p13 + 21) = {14.42664307674099, 2.126206890254075, 0.1};
Point(p13 + 22) = {14.45394536150096, 2.012484689820441, 0.1};
Point(p13 + 23) = {14.49870158141802, 1.90443361669612, 0.1};
Point(p13 + 24) = {14.55980968982044, 1.804714246902383, 0.1};
Point(p13 + 25) = {14.63576500227317, 1.715782002273167, 0.1};
Point(p13 + 26) = {14.72469724690238, 1.639826689820442, 0.1};
Point(p13 + 27) = {14.82441661669612, 1.578718581418022, 0.1};
Point(p13 + 28) = {14.93246768982044, 1.533962361500961, 0.1};
Point(p13 + 29) = {15.04618989025407, 1.506660076740994, 0.1};
Point(p13 + 30) = {15.162783, 1.497484, 0.1};
Point(p13 + 31) = {15.27937610974592, 1.506660076740994, 0.1};
Point(p13 + 32) = {15.39309831017956, 1.533962361500961, 0.1};
Point(p13 + 33) = {15.50114938330388, 1.578718581418022, 0.1};
Point(p13 + 34) = {15.60086875309762, 1.639826689820441, 0.1};
Point(p13 + 35) = {15.68980099772683, 1.715782002273167, 0.1};
Point(p13 + 36) = {15.76575631017956, 1.804714246902383, 0.1};
Point(p13 + 37) = {15.82686441858198, 1.90443361669612, 0.1};
Point(p13 + 38) = {15.87162063849904, 2.012484689820441, 0.1};
Point(p13 + 39) = {15.898922923259, 2.126206890254075, 0.1};
Spline(13) = {9, p13 + 1, p13 + 2, p13 + 3, p13 + 4, p13 + 5, p13 + 6, p13 + 7, p13 + 8, p13 + 9, p13 + 10, p13 + 11, p13 + 12, p13 + 13, p13 + 14, p13 + 15, p13 + 16, p13 + 17, p13 + 18, p13 + 19, p13 + 20, p13 + 21, p13 + 22, p13 + 23, p13 + 24, p13 + 25, p13 + 26, p13 + 27, p13 + 28, p13 + 29, p13 + 30, p13 + 31, p13 + 32, p13 + 33, p13 + 34, p13 + 35, p13 + 36, p13 + 37, p13 + 38, p13 + 39, 9};
Line(14) = {10, 9};
p15 = newp;
Point(p15 + 1) = {15.898922923259, 2.359393109745925, 0};
Point(p15 + 2) = {15.87162063849904, 2.473115310179558, 0};
Point(p15 + 3) = {15.82686441858198, 2.58116638330388, 0};
Point(p15 + 4) = {15.76575631017956, 2.680885753097617, 0};
Point(p15 + 5) = {15.68980099772683, 2.769817997726832, 0};
Point(p15 + 6) = {15.60086875309762, 2.845773310179558, 0};
Point(p15 + 7) = {15.50114938330388, 2.906881418581977, 0};
Point(p15 + 8) = {15.39309831017956, 2.951637638499038, 0};
Point(p15 + 9) = {15.27937610974592, 2.978939923259006, 0};
Point(p15 + 10) = {15.162783, 2.988116, 0};
Point(p15 + 11) = {15.04618989025407, 2.978939923259006, 0};
Point(p15 + 12) = {14.93246768982044, 2.951637638499038, 0};
Point(p15 + 13) = {14.82441661669612, 2.906881418581977, 0};
Point(p15 + 14) = {14.72469724690238, 2.845773310179558, 0};
Point(p15 + 15) = {14.63576500227317, 2.769817997726833, 0};
Point(p15 + 16) = {14.55980968982044, 2.680885753097617, 0};
Point(p15 + 17) = {14.49870158141802, 2.58116638330388, 0};
Point(p15 + 18) = {14.45394536150096, 2.473115310179558, 0};
Point(p15 + 19) = {14.42664307674099, 2.359393109745925, 0};
Point(p15 + 20) = {14.417467, 2.2428, 0};
Point(p15 + 21) = {14.42664307674099, 2.126206890254075, 0};
Point(p15 + 22) = {14.45394536150096, 2.012484689820441, 0};
Point(p15 + 23) = {14.49870158141802, 1.90443361669612, 0};
Point(p15 + 24) = {14.55980968982044, 1.804714246902383, 0};
Point(p15 + 25) = {14.63576500227317, 1.715782002273167, 0};
Point(p15 + 26) = {14.72469724690238, 1.639826689820442, 0};
Point(p15 + 27) = {14.82441661669612, 1.578718581418022, 0};
Point(p15 + 28) = {14.93246768982044, 1.533962361500961, 0};
Point(p15 + 29) = {15.04618989025407, 1.506660076740994, 0};
Point(p15 + 30) = {15.162783, 1.497484, 0};
Point(p15 + 31) = {15.27937610974592, 1.506660076740994, 0};
Point(p15 + 32) = {15.39309831017956, 1.533962361500961, 0};
Point(p15 + 33) = {15.50114938330388, 1.578718581418022, 0};
Point(p15 + 34) = {15.60086875309762, 1.639826689820441, 0};
Point(p15 + 35) = {15.68980099772683, 1.715782002273167, 0};
Point(p15 + 36) = {15.76575631017956, 1.804714246902383, 0};
Point(p15 + 37) = {15.82686441858198, 1.90443361669612, 0};
Point(p15 + 38) = {15.87162063849904, 2.012484689820441, 0};
Point(p15 + 39) = {15.898922923259, 2.126206890254075, 0};
Spline(15) = {10, p15 + 1, p15 + 2, p15 + 3, p15 + 4, p15 + 5, p15 + 6, p15 + 7, p15 + 8, p15 + 9, p15 + 10, p15 + 11, p15 + 12, p15 + 13, p15 + 14, p15 + 15, p15 + 16, p15 + 17, p15 + 18, p15 + 19, p15 + 20, p15 + 21, p15 + 22, p15 + 23, p15 + 24, p15 + 25, p15 + 26, p15 + 27, p15 + 28, p15 + 29, p15 + 30, p15 + 31, p15 + 32, p15 + 33, p15 + 34, p15 + 35, p15 + 36, p15 + 37, p15 + 38, p15 + 39, 10};
p16 = newp;
Point(p16 + 1) = {30.50292749912995, -1.165617764641872, 0.1};
Point(p16 + 2) = {30.4661116731765, -1.012268813262307, 0.1};
Point(p16 + 3) = {30.40576004995937, -0.8665671059802615, 0.1};
Point(p16 + 4) = {30.32335868673769, -0.7321003023852617, 0.1};
Point(p16 + 5) = {30.22093657854845, -0.6121794214515525, 0.1};
Point(p16 + 6) = {30.10101569761474, -0.5097573132623072, 0.1};
Point(p16 + 7) = {29.96654889401974, -0.427355950040634, 0.1};
Point(p16 + 8) = {29.82084718673769, -0.3670043268234958, 0.1};
Point(p16 + 9) = {29.66749823535813, -0.3301885008700528, 0.1};
Point(p16 + 10) = {29.510278, -0.317815, 0.1};
Point(p16 + 11) = {29.35305776464187, -0.3301885008700529, 0.1};
Point(p16 + 12) = {29.19970881326231, -0.3670043268234957, 0.1};
Point(p16 + 13) = {29.05400710598026, -0.4273559500406339, 0.1};
Point(p16 + 14) = {28.91954030238526, -0.5097573132623071, 0.1};
Point(p16 + 15) = {28.79961942145155, -0.6121794214515524, 0.1};
Point(p16 + 16) = {28.69719731326231, -0.7321003023852616, 0.1};
Point(p16 + 17) = {28.61479595004063, -0.8665671059802613, 0.1};
Point(p16 + 18) = {28.5544443268235, -1.012268813262307, 0.1};
Point(p16 + 19) = {28.51762850087005, -1.165617764641872, 0.1};
Point(p16 + 20) = {28.505255, -1.322838, 0.1};
Point(p16 + 21) = {28.51762850087005, -1.480058235358128, 0.1};
Point(p16 + 22) = {28.5544443268235, -1.633407186737693, 0.1};
Point(p16 + 23) = {28.61479595004063, -1.779108894019738, 0.1};
Point(p16 + 24) = {28.69719731326231, -1.913575697614738, 0.1};
Point(p16 + 25) = {28.79961942145155, -2.033496578548447, 0.1};
Point(p16 + 26) = {28.91954030238526, -2.135918686737693, 0.1};
Point(p16 + 27) = {29.05400710598026, -2.218320049959366, 0.1};
Point(p16 + 28) = {29.19970881326231, -2.278671673176504, 0.1};
Point(p16 + 29) = {29.35305776464187, -2.315487499129947, 0.1};
Point(p16 + 30) = {29.510278, -2.327861, 0.1};
Point(p16 + 31) = {29.66749823535813, -2.315487499129947, 0.1};
Point(p16 + 32) = {29.82084718673769, -2.278671673176504, 0.1};
Point(p16 + 33) = {29.96654889401974, -2.218320049959366, 0.1};
Point(p16 + 34) = {30.10101569761474, -2.135918686737693, 0.1};
Point(p16 + 35) = {30.22093657854845, -2.033496578548448, 0.1};
Point(p16 + 36) = {30.32335868673769, -1.913575697614738, 0.1};
Point(p16 + 37) = {30.40576004995937, -1.779108894019739, 0.1};
Point(p16 + 38) = {30.4661116731765, -1.633407186737693, 0.1};
Point(p16 + 39) = {30.50292749912995, -1.480058235358128, 0.1};
Spline(16) = {11, p16 + 1, p16 + 2, p16 + 3, p16 + 4, p16 + 5, p16 + 6, p16 + 7, p16 + 8, p16 + 9, p16 + 10, p16 + 11, p16 + 12, p16 + 13, p16 + 14, p16 + 15, p16 + 16, p16 + 17, p16 + 18, p16 + 19, p16 + 20, p16 + 21, p16 + 22, p16 + 23, p16 + 24, p16 + 25, p16 + 26, p16 + 27, p16 + 28, p16 + 29, p16 + 30, p16 + 31, p16 + 32, p16 + 33, p16 + 34, p16 + 35, p16 + 36, p16 + 37, p16 + 38, p16 + 39, 11};
Line(17) = {12, 11};
p18 = newp;
Point(p18 + 1) = {30.50292749912995, -1.165617764641872, 0};
Point(p18 + 2) = {30.4661116731765, -1.012268813262307, 0};
Point(p18 + 3) = {30.40576004995937, -0.8665671059802615, 0};
Point(p18 + 4) = {30.32335868673769, -0.7321003023852617, 0};
Point(p18 + 5) = {30.22093657854845, -0.6121794214515525, 0};
Point(p18 + 6) = {30.10101569761474, -0.5097573132623072, 0};
Point(p18 + 7) = {29.96654889401974, -0.427355950040634, 0};
Point(p18 + 8) = {29.82084718673769, -0.3670043268234958, 0};
Point(p18 + 9) = {29.66749823535813, -0.3301885008700528, 0};
Point(p18 + 10) = {29.510278, -0.317815, 0};
Point(p18 + 11) = {29.35305776464187, -0.3301885008700529, 0};
Point(p18 + 12) = {29.19970881326231, -0.3670043268234957, 0};
Point(p18 + 13) = {29.05400710598026, -0.4273559500406339, 0};
Point(p18 + 14) = {28.91954030238526, -0.5097573132623071, 0};
Point(p18 + 15) = {28.79961942145155, -0.6121794214515524, 0};
Point(p18 + 16) = {28.69719731326231, -0.7321003023852616, 0};
Point(p18 + 17) = {28.61479595004063, -0.8665671059802613, 0};
Point(p18 + 18) = {28.5544443268235, -1.012268813262307, 0};
Point(p18 + 19) = {28.51762850087005, -1.165617764641872, 0};
Point(p18 + 20) = {28.505255, -1.322838, 0};
Point(p18 + 21) = {28.51762850087005, -1.480058235358128, 0};
Point(p18 + 22) = {28.5544443268235, -1.633407186737693, 0};
Point(p18 + 23) = {28.61479595004063, -1.779108894019738, 0};
Point(p18 + 24) = {28.69719731326231, -1.913575697614738, 0};
Point(p18 + 25) = {28.79961942145155, -2.033496578548447, 0};
Point(p18 + 26) = {28.91954030238526, -2.135918686737693, 0};
Point(p18 + 27) = {29.05400710598026, -2.218320049959366, 0};
Point(p18 + 28) = {29.19970881326231, -2.278671673176504, 0};
Point(p18 + 29) = {29.35305776464187, -2.315487499129947, 0};
Point(p18 + 30) = {29.510278, -2.327861, 0};
Point(p18 + 31) = {29.66749823535813, -2.315487499129947, 0};
Point(p18 + 32) = {29.82084718673769, -2.278671673176504, 0};
Point(p18 + 33) = {29.96654889401974, -2.218320049959366, 0};
Point(p18 + 34) = {30.10101569761474, -2.135918686737693, 0};
Point(p18 + 35) = {30.22093657854845, -2.033496578548448, 0};
Point(p18 + 36) = {30.32335868673769, -1.913575697614738, 0};
Point(p18 + 37) = {30.40576004995937, -1.779108894019739, 0};
Point(p18 + 38) = {30.4661116731765, -1.633407186737693, 0};
Point(p18 + 39) = {30.50292749912995, -1.480058235358128, 0};
Spline(18) = {12, p18 + 1, p18 + 2, p18 + 3, p18 + 4, p18 + 5, p18 + 6, p18 + 7, p18 + 8, p18 + 9, p18 + 10, p18 + 11, p18 + 12, p18 + 13, p18 + 14, p18 + 15, p18 + 16, p18 + 17, p18 + 18, p18 + 19, p18 + 20, p18 + 21, p18 + 22, p18 + 23, p18 + 24, p18 + 25, p18 + 26, p18 + 27, p18 + 28, p18 + 29, p18 + 30, p18 + 31, p18 + 32, p18 + 33, p18 + 34, p18 + 35, p18 + 36, p18 + 37, p18 + 38, p18 + 39, 12};
Line(19) = {14, 13};
Line(20) = {13, 15};
Line(21) = {16, 15};
Line(22) = {14, 16};
Line(23) = {14, 17};
Line(24) = {17, 18};
Line(25) = {13, 18};
Line(26) = {15, 19};
Line(27) = {18, 19};
Line(28) = {16, 20};
Line(29) = {20, 19};
Line(30) = {17, 20};
Curve Loop(7) = {-13, -14, 15, 14};
Surface(7) = {7};
Curve Loop(8) = {13};
Plane Surface(8) = {8};
Curve Loop(9) = {15};
Plane Surface(9) = {9};
Curve Loop(10) = {-16, -17, 18, 17};
Surface(10) = {10};
Curve Loop(11) = {16};
Plane Surface(11) = {11};
Curve Loop(12) = {18};
Plane Surface(12) = {12};
Curve Loop(13) = {-19, 22, 21, -20};
Plane Surface(13) = {13};
Curve Loop(14) = {-23, 19, 25, -24};
Plane Surface(14) = {14};
Curve Loop(15) = {-20, 25, 27, -26, -16, -13};
Plane Surface(15) = {15};
Curve Loop(16) = {-28, 21, 26, -29};
Plane Surface(16) = {16};
Curve Loop(17) = {-22, 23, 30, -28, -18, -15};
Plane Surface(17) = {17};
Curve Loop(18) = {-24, 30, 29, -27};
Plane Surface(18) = {18};
Surface Loop(1) = {13, 14, 15, 16, 17, 18, 10, 7};
Volume(1) = {1};
Surface Loop(2) = {7, 8, 9};
Volume(2) = {2};
Surface Loop(3) = {10, 11, 12};
Volume(3) = {3};
Physical Surface("WALLS") = {13, 18};
Physical Surface("LOAD") = {8, 11};
Physical Surface("BORDER") = {7, 9, 10, 12, 14, 15, 16, 17};
Physical Volume("SOLID") = {1, 2, 3};
