cl__1 = 0.116414;
cl__2 = 0.071185;
cl__3 = 0.880436;
cl__4 = 0.952833;
cl__5 = 1.210519;
cl__6 = 1.334548;
Point(9) = {28.750504, -0.3877440000000003, 0.1, cl__1};
Point(10) = {28.750504, -0.3877440000000003, 0, cl__1};
Point(11) = {8.933047, -0.6565570000000002, 0.1, cl__2};
Point(12) = {8.933047, -0.6565570000000002, 0, cl__2};
Point(13) = {0.327289, -4.663432, 0.1, cl__3};
Point(14) = {0.327289, -4.663432, 0, cl__3};
Point(15) = {0.327289, 4.668378000000001, 0.1, cl__4};
Point(16) = {0.327289, 4.668378000000001, 0, cl__4};
Point(17) = {37.741353, -4.663432, 0, cl__5};
Point(18) = {37.741353, -4.663432, 0.1, cl__5};
Point(19) = {37.741353, 4.668378000000001, 0.1, cl__6};
Point(20) = {37.741353, 4.668378000000001, 0, cl__6};
p13 = newp;
Point(p13 + 1) = {28.73617145557379, -0.2056317561302054, 0.1};
Point(p13 + 2) = {28.69352673710591, -0.02800372010037122, 0.1};
Point(p13 + 3) = {28.62361989909474, 0.140766316328795, 0.1};
Point(p13 + 4) = {28.52817227989963, 0.2965226747447689, 0.1};
Point(p13 + 5) = {28.40953411667763, 0.4354301166776322, 0.1};
Point(p13 + 6) = {28.27062667474477, 0.5540682798996288, 0.1};
Point(p13 + 7) = {28.11487031632879, 0.6495158990947433, 0.1};
Point(p13 + 8) = {27.94610027989963, 0.7194227371059053, 0.1};
Point(p13 + 9) = {27.76847224386979, 0.7620674555737862, 0.1};
Point(p13 + 10) = {27.58636, 0.7764000000000001, 0.1};
Point(p13 + 11) = {27.4042477561302, 0.762067455573786, 0.1};
Point(p13 + 12) = {27.22661972010037, 0.7194227371059053, 0.1};
Point(p13 + 13) = {27.0578496836712, 0.6495158990947435, 0.1};
Point(p13 + 14) = {26.90209332525523, 0.5540682798996289, 0.1};
Point(p13 + 15) = {26.76318588332237, 0.4354301166776323, 0.1};
Point(p13 + 16) = {26.64454772010037, 0.296522674744769, 0.1};
Point(p13 + 17) = {26.54910010090526, 0.1407663163287951, 0.1};
Point(p13 + 18) = {26.47919326289409, -0.02800372010037105, 0.1};
Point(p13 + 19) = {26.43654854442621, -0.2056317561302053, 0.1};
Point(p13 + 20) = {26.422216, -0.3877439999999998, 0.1};
Point(p13 + 21) = {26.43654854442621, -0.5698562438697944, 0.1};
Point(p13 + 22) = {26.47919326289409, -0.7474842798996291, 0.1};
Point(p13 + 23) = {26.54910010090526, -0.9162543163287944, 0.1};
Point(p13 + 24) = {26.64454772010037, -1.072010674744769, 0.1};
Point(p13 + 25) = {26.76318588332237, -1.210918116677632, 0.1};
Point(p13 + 26) = {26.90209332525523, -1.329556279899629, 0.1};
Point(p13 + 27) = {27.0578496836712, -1.425003899094743, 0.1};
Point(p13 + 28) = {27.22661972010037, -1.494910737105905, 0.1};
Point(p13 + 29) = {27.4042477561302, -1.537555455573786, 0.1};
Point(p13 + 30) = {27.58636, -1.551888, 0.1};
Point(p13 + 31) = {27.76847224386979, -1.537555455573786, 0.1};
Point(p13 + 32) = {27.94610027989963, -1.494910737105905, 0.1};
Point(p13 + 33) = {28.11487031632879, -1.425003899094743, 0.1};
Point(p13 + 34) = {28.27062667474477, -1.329556279899629, 0.1};
Point(p13 + 35) = {28.40953411667763, -1.210918116677632, 0.1};
Point(p13 + 36) = {28.52817227989963, -1.072010674744769, 0.1};
Point(p13 + 37) = {28.62361989909474, -0.9162543163287952, 0.1};
Point(p13 + 38) = {28.69352673710591, -0.7474842798996291, 0.1};
Point(p13 + 39) = {28.73617145557379, -0.5698562438697948, 0.1};
Spline(13) = {9, p13 + 1, p13 + 2, p13 + 3, p13 + 4, p13 + 5, p13 + 6, p13 + 7, p13 + 8, p13 + 9, p13 + 10, p13 + 11, p13 + 12, p13 + 13, p13 + 14, p13 + 15, p13 + 16, p13 + 17, p13 + 18, p13 + 19, p13 + 20, p13 + 21, p13 + 22, p13 + 23, p13 + 24, p13 + 25, p13 + 26, p13 + 27, p13 + 28, p13 + 29, p13 + 30, p13 + 31, p13 + 32, p13 + 33, p13 + 34, p13 + 35, p13 + 36, p13 + 37, p13 + 38, p13 + 39, 9};
Line(14) = {10, 9};
p15 = newp;
Point(p15 + 1) = {28.73617145557379, -0.2056317561302054, 0};
Point(p15 + 2) = {28.69352673710591, -0.02800372010037122, 0};
Point(p15 + 3) = {28.62361989909474, 0.140766316328795, 0};
Point(p15 + 4) = {28.52817227989963, 0.2965226747447689, 0};
Point(p15 + 5) = {28.40953411667763, 0.4354301166776322, 0};
Point(p15 + 6) = {28.27062667474477, 0.5540682798996288, 0};
Point(p15 + 7) = {28.11487031632879, 0.6495158990947433, 0};
Point(p15 + 8) = {27.94610027989963, 0.7194227371059053, 0};
Point(p15 + 9) = {27.76847224386979, 0.7620674555737862, 0};
Point(p15 + 10) = {27.58636, 0.7764000000000001, 0};
Point(p15 + 11) = {27.4042477561302, 0.762067455573786, 0};
Point(p15 + 12) = {27.22661972010037, 0.7194227371059053, 0};
Point(p15 + 13) = {27.0578496836712, 0.6495158990947435, 0};
Point(p15 + 14) = {26.90209332525523, 0.5540682798996289, 0};
Point(p15 + 15) = {26.76318588332237, 0.4354301166776323, 0};
Point(p15 + 16) = {26.64454772010037, 0.296522674744769, 0};
Point(p15 + 17) = {26.54910010090526, 0.1407663163287951, 0};
Point(p15 + 18) = {26.47919326289409, -0.02800372010037105, 0};
Point(p15 + 19) = {26.43654854442621, -0.2056317561302053, 0};
Point(p15 + 20) = {26.422216, -0.3877439999999998, 0};
Point(p15 + 21) = {26.43654854442621, -0.5698562438697944, 0};
Point(p15 + 22) = {26.47919326289409, -0.7474842798996291, 0};
Point(p15 + 23) = {26.54910010090526, -0.9162543163287944, 0};
Point(p15 + 24) = {26.64454772010037, -1.072010674744769, 0};
Point(p15 + 25) = {26.76318588332237, -1.210918116677632, 0};
Point(p15 + 26) = {26.90209332525523, -1.329556279899629, 0};
Point(p15 + 27) = {27.0578496836712, -1.425003899094743, 0};
Point(p15 + 28) = {27.22661972010037, -1.494910737105905, 0};
Point(p15 + 29) = {27.4042477561302, -1.537555455573786, 0};
Point(p15 + 30) = {27.58636, -1.551888, 0};
Point(p15 + 31) = {27.76847224386979, -1.537555455573786, 0};
Point(p15 + 32) = {27.94610027989963, -1.494910737105905, 0};
Point(p15 + 33) = {28.11487031632879, -1.425003899094743, 0};
Point(p15 + 34) = {28.27062667474477, -1.329556279899629, 0};
Point(p15 + 35) = {28.40953411667763, -1.210918116677632, 0};
Point(p15 + 36) = {28.52817227989963, -1.072010674744769, 0};
Point(p15 + 37) = {28.62361989909474, -0.9162543163287952, 0};
Point(p15 + 38) = {28.69352673710591, -0.7474842798996291, 0};
Point(p15 + 39) = {28.73617145557379, -0.5698562438697948, 0};
Spline(15) = {10, p15 + 1, p15 + 2, p15 + 3, p15 + 4, p15 + 5, p15 + 6, p15 + 7, p15 + 8, p15 + 9, p15 + 10, p15 + 11, p15 + 12, p15 + 13, p15 + 14, p15 + 15, p15 + 16, p15 + 17, p15 + 18, p15 + 19, p15 + 20, p15 + 21, p15 + 22, p15 + 23, p15 + 24, p15 + 25, p15 + 26, p15 + 27, p15 + 28, p15 + 29, p15 + 30, p15 + 31, p15 + 32, p15 + 33, p15 + 34, p15 + 35, p15 + 36, p15 + 37, p15 + 38, p15 + 39, 10};
p16 = newp;
Point(p16 + 1) = {8.92428293294099, -0.5451989696266466, 0.1};
Point(p16 + 2) = {8.898206532181222, -0.4365829435371993, 0.1};
Point(p16 + 3) = {8.855459885250015, -0.3333834087699039, 0.1};
Point(p16 + 4) = {8.797095556462802, -0.2381414803703507, 0.1};
Point(p16 + 5) = {8.724550669294427, -0.153202330705575, 0.1};
Point(p16 + 6) = {8.63961151962965, -0.08065744353719928, 0.1};
Point(p16 + 7) = {8.544369591230097, -0.02229311474998619, 0.1};
Point(p16 + 8) = {8.441170056462802, 0.02045353218122137, 0.1};
Point(p16 + 9) = {8.332554030373354, 0.0465299329409895, 0.1};
Point(p16 + 10) = {8.221196000000001, 0.05529400000000007, 0.1};
Point(p16 + 11) = {8.109837969626648, 0.04652993294098939, 0.1};
Point(p16 + 12) = {8.0012219435372, 0.02045353218122148, 0.1};
Point(p16 + 13) = {7.898022408769905, -0.02229311474998608, 0.1};
Point(p16 + 14) = {7.802780480370352, -0.08065744353719917, 0.1};
Point(p16 + 15) = {7.717841330705576, -0.1532023307055749, 0.1};
Point(p16 + 16) = {7.6452964435372, -0.2381414803703505, 0.1};
Point(p16 + 17) = {7.586932114749987, -0.3333834087699037, 0.1};
Point(p16 + 18) = {7.54418546781878, -0.4365829435371992, 0.1};
Point(p16 + 19) = {7.518109067059012, -0.5451989696266465, 0.1};
Point(p16 + 20) = {7.509345000000001, -0.6565569999999998, 0.1};
Point(p16 + 21) = {7.518109067059012, -0.7679150303733533, 0.1};
Point(p16 + 22) = {7.54418546781878, -0.8765310564628008, 0.1};
Point(p16 + 23) = {7.586932114749986, -0.9797305912300958, 0.1};
Point(p16 + 24) = {7.6452964435372, -1.074972519629649, 0.1};
Point(p16 + 25) = {7.717841330705576, -1.159911669294425, 0.1};
Point(p16 + 26) = {7.802780480370352, -1.232456556462801, 0.1};
Point(p16 + 27) = {7.898022408769904, -1.290820885250014, 0.1};
Point(p16 + 28) = {8.0012219435372, -1.333567532181221, 0.1};
Point(p16 + 29) = {8.109837969626648, -1.359643932940989, 0.1};
Point(p16 + 30) = {8.221196000000001, -1.368408, 0.1};
Point(p16 + 31) = {8.332554030373354, -1.35964393294099, 0.1};
Point(p16 + 32) = {8.441170056462802, -1.333567532181221, 0.1};
Point(p16 + 33) = {8.544369591230097, -1.290820885250014, 0.1};
Point(p16 + 34) = {8.63961151962965, -1.232456556462801, 0.1};
Point(p16 + 35) = {8.724550669294425, -1.159911669294425, 0.1};
Point(p16 + 36) = {8.797095556462802, -1.074972519629649, 0.1};
Point(p16 + 37) = {8.855459885250015, -0.9797305912300962, 0.1};
Point(p16 + 38) = {8.898206532181222, -0.8765310564628008, 0.1};
Point(p16 + 39) = {8.92428293294099, -0.7679150303733535, 0.1};
Spline(16) = {11, p16 + 1, p16 + 2, p16 + 3, p16 + 4, p16 + 5, p16 + 6, p16 + 7, p16 + 8, p16 + 9, p16 + 10, p16 + 11, p16 + 12, p16 + 13, p16 + 14, p16 + 15, p16 + 16, p16 + 17, p16 + 18, p16 + 19, p16 + 20, p16 + 21, p16 + 22, p16 + 23, p16 + 24, p16 + 25, p16 + 26, p16 + 27, p16 + 28, p16 + 29, p16 + 30, p16 + 31, p16 + 32, p16 + 33, p16 + 34, p16 + 35, p16 + 36, p16 + 37, p16 + 38, p16 + 39, 11};
Line(17) = {12, 11};
p18 = newp;
Point(p18 + 1) = {8.92428293294099, -0.5451989696266466, 0};
Point(p18 + 2) = {8.898206532181222, -0.4365829435371993, 0};
Point(p18 + 3) = {8.855459885250015, -0.3333834087699039, 0};
Point(p18 + 4) = {8.797095556462802, -0.2381414803703507, 0};
Point(p18 + 5) = {8.724550669294427, -0.153202330705575, 0};
Point(p18 + 6) = {8.63961151962965, -0.08065744353719928, 0};
Point(p18 + 7) = {8.544369591230097, -0.02229311474998619, 0};
Point(p18 + 8) = {8.441170056462802, 0.02045353218122137, 0};
Point(p18 + 9) = {8.332554030373354, 0.0465299329409895, 0};
Point(p18 + 10) = {8.221196000000001, 0.05529400000000007, 0};
Point(p18 + 11) = {8.109837969626648, 0.04652993294098939, 0};
Point(p18 + 12) = {8.0012219435372, 0.02045353218122148, 0};
Point(p18 + 13) = {7.898022408769905, -0.02229311474998608, 0};
Point(p18 + 14) = {7.802780480370352, -0.08065744353719917, 0};
Point(p18 + 15) = {7.717841330705576, -0.1532023307055749, 0};
Point(p18 + 16) = {7.6452964435372, -0.2381414803703505, 0};
Point(p18 + 17) = {7.586932114749987, -0.3333834087699037, 0};
Point(p18 + 18) = {7.54418546781878, -0.4365829435371992, 0};
Point(p18 + 19) = {7.518109067059012, -0.5451989696266465, 0};
Point(p18 + 20) = {7.509345000000001, -0.6565569999999998, 0};
Point(p18 + 21) = {7.518109067059012, -0.7679150303733533, 0};
Point(p18 + 22) = {7.54418546781878, -0.8765310564628008, 0};
Point(p18 + 23) = {7.586932114749986, -0.9797305912300958, 0};
Point(p18 + 24) = {7.6452964435372, -1.074972519629649, 0};
Point(p18 + 25) = {7.717841330705576, -1.159911669294425, 0};
Point(p18 + 26) = {7.802780480370352, -1.232456556462801, 0};
Point(p18 + 27) = {7.898022408769904, -1.290820885250014, 0};
Point(p18 + 28) = {8.0012219435372, -1.333567532181221, 0};
Point(p18 + 29) = {8.109837969626648, -1.359643932940989, 0};
Point(p18 + 30) = {8.221196000000001, -1.368408, 0};
Point(p18 + 31) = {8.332554030373354, -1.35964393294099, 0};
Point(p18 + 32) = {8.441170056462802, -1.333567532181221, 0};
Point(p18 + 33) = {8.544369591230097, -1.290820885250014, 0};
Point(p18 + 34) = {8.63961151962965, -1.232456556462801, 0};
Point(p18 + 35) = {8.724550669294425, -1.159911669294425, 0};
Point(p18 + 36) = {8.797095556462802, -1.074972519629649, 0};
Point(p18 + 37) = {8.855459885250015, -0.9797305912300962, 0};
Point(p18 + 38) = {8.898206532181222, -0.8765310564628008, 0};
Point(p18 + 39) = {8.92428293294099, -0.7679150303733535, 0};
Spline(18) = {12, p18 + 1, p18 + 2, p18 + 3, p18 + 4, p18 + 5, p18 + 6, p18 + 7, p18 + 8, p18 + 9, p18 + 10, p18 + 11, p18 + 12, p18 + 13, p18 + 14, p18 + 15, p18 + 16, p18 + 17, p18 + 18, p18 + 19, p18 + 20, p18 + 21, p18 + 22, p18 + 23, p18 + 24, p18 + 25, p18 + 26, p18 + 27, p18 + 28, p18 + 29, p18 + 30, p18 + 31, p18 + 32, p18 + 33, p18 + 34, p18 + 35, p18 + 36, p18 + 37, p18 + 38, p18 + 39, 12};
Line(19) = {14, 13};
Line(20) = {13, 15};
Line(21) = {16, 15};
Line(22) = {14, 16};
Line(23) = {14, 17};
Line(24) = {17, 18};
Line(25) = {13, 18};
Line(26) = {15, 19};
Line(27) = {18, 19};
Line(28) = {16, 20};
Line(29) = {20, 19};
Line(30) = {17, 20};
Curve Loop(7) = {-13, -14, 15, 14};
Surface(7) = {7};
Curve Loop(8) = {13};
Plane Surface(8) = {8};
Curve Loop(9) = {15};
Plane Surface(9) = {9};
Curve Loop(10) = {-16, -17, 18, 17};
Surface(10) = {10};
Curve Loop(11) = {16};
Plane Surface(11) = {11};
Curve Loop(12) = {18};
Plane Surface(12) = {12};
Curve Loop(13) = {-19, 22, 21, -20};
Plane Surface(13) = {13};
Curve Loop(14) = {-23, 19, 25, -24};
Plane Surface(14) = {14};
Curve Loop(15) = {-20, 25, 27, -26, -16, -13};
Plane Surface(15) = {15};
Curve Loop(16) = {-28, 21, 26, -29};
Plane Surface(16) = {16};
Curve Loop(17) = {-22, 23, 30, -28, -18, -15};
Plane Surface(17) = {17};
Curve Loop(18) = {-24, 30, 29, -27};
Plane Surface(18) = {18};
Surface Loop(1) = {13, 14, 15, 16, 17, 18, 10, 7};
Volume(1) = {1};
Surface Loop(2) = {7, 8, 9};
Volume(2) = {2};
Surface Loop(3) = {10, 11, 12};
Volume(3) = {3};
Physical Surface("WALLS") = {13, 18};
Physical Surface("LOAD") = {8, 11};
Physical Surface("BORDER") = {7, 9, 10, 12, 14, 15, 16, 17};
Physical Volume("SOLID") = {1, 2, 3};
