cl__1 = 0.116008;
cl__2 = 0.097591;
cl__3 = 0.698785;
cl__4 = 0.43403;
cl__5 = 3.081054;
cl__6 = 2.815538;
Point(9) = {5.224411, 1.525976, 0.1, cl__1};
Point(10) = {5.224411, 1.525976, 0, cl__1};
Point(11) = {26.442518, 0.6295749999999998, 0.1, cl__2};
Point(12) = {26.442518, 0.6295749999999998, 0, cl__2};
Point(13) = {0.49148, -4.22483, 0.1, cl__3};
Point(14) = {0.49148, -4.22483, 0, cl__3};
Point(15) = {0.49148, 4.493806999999999, 0.1, cl__4};
Point(16) = {0.49148, 4.493806999999999, 0, cl__4};
Point(17) = {37.157232, -4.22483, 0, cl__5};
Point(18) = {37.157232, -4.22483, 0.1, cl__5};
Point(19) = {37.157232, 4.493806999999999, 0.1, cl__6};
Point(20) = {37.157232, 4.493806999999999, 0, cl__6};
p13 = newp;
Point(p13 + 1) = {5.210128502469267, 1.707452337769406, 0.1};
Point(p13 + 2) = {5.167632692367166, 1.884460125817495, 0.1};
Point(p13 + 3) = {5.097969957573918, 2.052640844947354, 0.1};
Point(p13 + 4) = {5.002855625817495, 2.2078533276942, 0.1};
Point(p13 + 5) = {4.884631727612109, 2.346275727612109, 0.1};
Point(p13 + 6) = {4.7462093276942, 2.464499625817495, 0.1};
Point(p13 + 7) = {4.590996844947354, 2.559613957573918, 0.1};
Point(p13 + 8) = {4.422816125817495, 2.629276692367165, 0.1};
Point(p13 + 9) = {4.245808337769406, 2.671772502469267, 0.1};
Point(p13 + 10) = {4.064332, 2.686055, 0.1};
Point(p13 + 11) = {3.882855662230594, 2.671772502469267, 0.1};
Point(p13 + 12) = {3.705847874182506, 2.629276692367165, 0.1};
Point(p13 + 13) = {3.537667155052647, 2.559613957573918, 0.1};
Point(p13 + 14) = {3.3824546723058, 2.464499625817495, 0.1};
Point(p13 + 15) = {3.244032272387892, 2.346275727612109, 0.1};
Point(p13 + 16) = {3.125808374182506, 2.2078533276942, 0.1};
Point(p13 + 17) = {3.030694042426083, 2.052640844947354, 0.1};
Point(p13 + 18) = {2.961031307632835, 1.884460125817495, 0.1};
Point(p13 + 19) = {2.918535497530733, 1.707452337769406, 0.1};
Point(p13 + 20) = {2.904253, 1.525976, 0.1};
Point(p13 + 21) = {2.918535497530733, 1.344499662230594, 0.1};
Point(p13 + 22) = {2.961031307632835, 1.167491874182505, 0.1};
Point(p13 + 23) = {3.030694042426082, 0.9993111550526468, 0.1};
Point(p13 + 24) = {3.125808374182506, 0.8440986723058002, 0.1};
Point(p13 + 25) = {3.244032272387891, 0.7056762723878911, 0.1};
Point(p13 + 26) = {3.3824546723058, 0.5874523741825054, 0.1};
Point(p13 + 27) = {3.537667155052646, 0.4923380424260824, 0.1};
Point(p13 + 28) = {3.705847874182505, 0.4226753076328345, 0.1};
Point(p13 + 29) = {3.882855662230594, 0.3801794975307333, 0.1};
Point(p13 + 30) = {4.064332, 0.3658969999999999, 0.1};
Point(p13 + 31) = {4.245808337769406, 0.3801794975307331, 0.1};
Point(p13 + 32) = {4.422816125817494, 0.4226753076328345, 0.1};
Point(p13 + 33) = {4.590996844947353, 0.4923380424260821, 0.1};
Point(p13 + 34) = {4.7462093276942, 0.5874523741825052, 0.1};
Point(p13 + 35) = {4.884631727612109, 0.7056762723878909, 0.1};
Point(p13 + 36) = {5.002855625817495, 0.8440986723057998, 0.1};
Point(p13 + 37) = {5.097969957573918, 0.999311155052646, 0.1};
Point(p13 + 38) = {5.167632692367166, 1.167491874182505, 0.1};
Point(p13 + 39) = {5.210128502469267, 1.344499662230594, 0.1};
Spline(13) = {9, p13 + 1, p13 + 2, p13 + 3, p13 + 4, p13 + 5, p13 + 6, p13 + 7, p13 + 8, p13 + 9, p13 + 10, p13 + 11, p13 + 12, p13 + 13, p13 + 14, p13 + 15, p13 + 16, p13 + 17, p13 + 18, p13 + 19, p13 + 20, p13 + 21, p13 + 22, p13 + 23, p13 + 24, p13 + 25, p13 + 26, p13 + 27, p13 + 28, p13 + 29, p13 + 30, p13 + 31, p13 + 32, p13 + 33, p13 + 34, p13 + 35, p13 + 36, p13 + 37, p13 + 38, p13 + 39, 9};
Line(14) = {10, 9};
p15 = newp;
Point(p15 + 1) = {5.210128502469267, 1.707452337769406, 0};
Point(p15 + 2) = {5.167632692367166, 1.884460125817495, 0};
Point(p15 + 3) = {5.097969957573918, 2.052640844947354, 0};
Point(p15 + 4) = {5.002855625817495, 2.2078533276942, 0};
Point(p15 + 5) = {4.884631727612109, 2.346275727612109, 0};
Point(p15 + 6) = {4.7462093276942, 2.464499625817495, 0};
Point(p15 + 7) = {4.590996844947354, 2.559613957573918, 0};
Point(p15 + 8) = {4.422816125817495, 2.629276692367165, 0};
Point(p15 + 9) = {4.245808337769406, 2.671772502469267, 0};
Point(p15 + 10) = {4.064332, 2.686055, 0};
Point(p15 + 11) = {3.882855662230594, 2.671772502469267, 0};
Point(p15 + 12) = {3.705847874182506, 2.629276692367165, 0};
Point(p15 + 13) = {3.537667155052647, 2.559613957573918, 0};
Point(p15 + 14) = {3.3824546723058, 2.464499625817495, 0};
Point(p15 + 15) = {3.244032272387892, 2.346275727612109, 0};
Point(p15 + 16) = {3.125808374182506, 2.2078533276942, 0};
Point(p15 + 17) = {3.030694042426083, 2.052640844947354, 0};
Point(p15 + 18) = {2.961031307632835, 1.884460125817495, 0};
Point(p15 + 19) = {2.918535497530733, 1.707452337769406, 0};
Point(p15 + 20) = {2.904253, 1.525976, 0};
Point(p15 + 21) = {2.918535497530733, 1.344499662230594, 0};
Point(p15 + 22) = {2.961031307632835, 1.167491874182505, 0};
Point(p15 + 23) = {3.030694042426082, 0.9993111550526468, 0};
Point(p15 + 24) = {3.125808374182506, 0.8440986723058002, 0};
Point(p15 + 25) = {3.244032272387891, 0.7056762723878911, 0};
Point(p15 + 26) = {3.3824546723058, 0.5874523741825054, 0};
Point(p15 + 27) = {3.537667155052646, 0.4923380424260824, 0};
Point(p15 + 28) = {3.705847874182505, 0.4226753076328345, 0};
Point(p15 + 29) = {3.882855662230594, 0.3801794975307333, 0};
Point(p15 + 30) = {4.064332, 0.3658969999999999, 0};
Point(p15 + 31) = {4.245808337769406, 0.3801794975307331, 0};
Point(p15 + 32) = {4.422816125817494, 0.4226753076328345, 0};
Point(p15 + 33) = {4.590996844947353, 0.4923380424260821, 0};
Point(p15 + 34) = {4.7462093276942, 0.5874523741825052, 0};
Point(p15 + 35) = {4.884631727612109, 0.7056762723878909, 0};
Point(p15 + 36) = {5.002855625817495, 0.8440986723057998, 0};
Point(p15 + 37) = {5.097969957573918, 0.999311155052646, 0};
Point(p15 + 38) = {5.167632692367166, 1.167491874182505, 0};
Point(p15 + 39) = {5.210128502469267, 1.344499662230594, 0};
Spline(15) = {10, p15 + 1, p15 + 2, p15 + 3, p15 + 4, p15 + 5, p15 + 6, p15 + 7, p15 + 8, p15 + 9, p15 + 10, p15 + 11, p15 + 12, p15 + 13, p15 + 14, p15 + 15, p15 + 16, p15 + 17, p15 + 18, p15 + 19, p15 + 20, p15 + 21, p15 + 22, p15 + 23, p15 + 24, p15 + 25, p15 + 26, p15 + 27, p15 + 28, p15 + 29, p15 + 30, p15 + 31, p15 + 32, p15 + 33, p15 + 34, p15 + 35, p15 + 36, p15 + 37, p15 + 38, p15 + 39, 10};
p16 = newp;
Point(p16 + 1) = {26.43050291615854, 0.7822411152118767, 0.1};
Point(p16 + 2) = {26.39475351587412, 0.9311480839974493, 0.1};
Point(p16 + 3) = {26.33615006802719, 1.072629322591321, 0.1};
Point(p16 + 4) = {26.25613558399745, 1.20320109335, 0.1};
Point(p16 + 5) = {26.15668028593455, 1.319648285934545, 0.1};
Point(p16 + 6) = {26.04023309335, 1.419103583997449, 0.1};
Point(p16 + 7) = {25.90966132259132, 1.499118068027194, 0.1};
Point(p16 + 8) = {25.76818008399745, 1.55772151587412, 0.1};
Point(p16 + 9) = {25.61927311521188, 1.593470916158541, 0.1};
Point(p16 + 10) = {25.466607, 1.605486, 0.1};
Point(p16 + 11) = {25.31394088478812, 1.593470916158541, 0.1};
Point(p16 + 12) = {25.16503391600255, 1.55772151587412, 0.1};
Point(p16 + 13) = {25.02355267740868, 1.499118068027194, 0.1};
Point(p16 + 14) = {24.89298090665, 1.419103583997449, 0.1};
Point(p16 + 15) = {24.77653371406545, 1.319648285934545, 0.1};
Point(p16 + 16) = {24.67707841600255, 1.20320109335, 0.1};
Point(p16 + 17) = {24.59706393197281, 1.072629322591321, 0.1};
Point(p16 + 18) = {24.53846048412588, 0.9311480839974493, 0.1};
Point(p16 + 19) = {24.50271108384146, 0.7822411152118769, 0.1};
Point(p16 + 20) = {24.490696, 0.6295750000000001, 0.1};
Point(p16 + 21) = {24.50271108384146, 0.4769088847881233, 0.1};
Point(p16 + 22) = {24.53846048412588, 0.3280019160025504, 0.1};
Point(p16 + 23) = {24.59706393197281, 0.1865206774086796, 0.1};
Point(p16 + 24) = {24.67707841600255, 0.05594890665000041, 0.1};
Point(p16 + 25) = {24.77653371406545, -0.06049828593454476, 0.1};
Point(p16 + 26) = {24.89298090665, -0.1599535839974492, 0.1};
Point(p16 + 27) = {25.02355267740868, -0.2399680680271942, 0.1};
Point(p16 + 28) = {25.16503391600255, -0.2985715158741196, 0.1};
Point(p16 + 29) = {25.31394088478812, -0.3343209161585413, 0.1};
Point(p16 + 30) = {25.466607, -0.346336, 0.1};
Point(p16 + 31) = {25.61927311521188, -0.3343209161585414, 0.1};
Point(p16 + 32) = {25.76818008399745, -0.2985715158741197, 0.1};
Point(p16 + 33) = {25.90966132259132, -0.2399680680271944, 0.1};
Point(p16 + 34) = {26.04023309335, -0.1599535839974494, 0.1};
Point(p16 + 35) = {26.15668028593455, -0.06049828593454487, 0.1};
Point(p16 + 36) = {26.25613558399745, 0.05594890665000019, 0.1};
Point(p16 + 37) = {26.33615006802719, 0.186520677408679, 0.1};
Point(p16 + 38) = {26.39475351587412, 0.3280019160025505, 0.1};
Point(p16 + 39) = {26.43050291615854, 0.476908884788123, 0.1};
Spline(16) = {11, p16 + 1, p16 + 2, p16 + 3, p16 + 4, p16 + 5, p16 + 6, p16 + 7, p16 + 8, p16 + 9, p16 + 10, p16 + 11, p16 + 12, p16 + 13, p16 + 14, p16 + 15, p16 + 16, p16 + 17, p16 + 18, p16 + 19, p16 + 20, p16 + 21, p16 + 22, p16 + 23, p16 + 24, p16 + 25, p16 + 26, p16 + 27, p16 + 28, p16 + 29, p16 + 30, p16 + 31, p16 + 32, p16 + 33, p16 + 34, p16 + 35, p16 + 36, p16 + 37, p16 + 38, p16 + 39, 11};
Line(17) = {12, 11};
p18 = newp;
Point(p18 + 1) = {26.43050291615854, 0.7822411152118767, 0};
Point(p18 + 2) = {26.39475351587412, 0.9311480839974493, 0};
Point(p18 + 3) = {26.33615006802719, 1.072629322591321, 0};
Point(p18 + 4) = {26.25613558399745, 1.20320109335, 0};
Point(p18 + 5) = {26.15668028593455, 1.319648285934545, 0};
Point(p18 + 6) = {26.04023309335, 1.419103583997449, 0};
Point(p18 + 7) = {25.90966132259132, 1.499118068027194, 0};
Point(p18 + 8) = {25.76818008399745, 1.55772151587412, 0};
Point(p18 + 9) = {25.61927311521188, 1.593470916158541, 0};
Point(p18 + 10) = {25.466607, 1.605486, 0};
Point(p18 + 11) = {25.31394088478812, 1.593470916158541, 0};
Point(p18 + 12) = {25.16503391600255, 1.55772151587412, 0};
Point(p18 + 13) = {25.02355267740868, 1.499118068027194, 0};
Point(p18 + 14) = {24.89298090665, 1.419103583997449, 0};
Point(p18 + 15) = {24.77653371406545, 1.319648285934545, 0};
Point(p18 + 16) = {24.67707841600255, 1.20320109335, 0};
Point(p18 + 17) = {24.59706393197281, 1.072629322591321, 0};
Point(p18 + 18) = {24.53846048412588, 0.9311480839974493, 0};
Point(p18 + 19) = {24.50271108384146, 0.7822411152118769, 0};
Point(p18 + 20) = {24.490696, 0.6295750000000001, 0};
Point(p18 + 21) = {24.50271108384146, 0.4769088847881233, 0};
Point(p18 + 22) = {24.53846048412588, 0.3280019160025504, 0};
Point(p18 + 23) = {24.59706393197281, 0.1865206774086796, 0};
Point(p18 + 24) = {24.67707841600255, 0.05594890665000041, 0};
Point(p18 + 25) = {24.77653371406545, -0.06049828593454476, 0};
Point(p18 + 26) = {24.89298090665, -0.1599535839974492, 0};
Point(p18 + 27) = {25.02355267740868, -0.2399680680271942, 0};
Point(p18 + 28) = {25.16503391600255, -0.2985715158741196, 0};
Point(p18 + 29) = {25.31394088478812, -0.3343209161585413, 0};
Point(p18 + 30) = {25.466607, -0.346336, 0};
Point(p18 + 31) = {25.61927311521188, -0.3343209161585414, 0};
Point(p18 + 32) = {25.76818008399745, -0.2985715158741197, 0};
Point(p18 + 33) = {25.90966132259132, -0.2399680680271944, 0};
Point(p18 + 34) = {26.04023309335, -0.1599535839974494, 0};
Point(p18 + 35) = {26.15668028593455, -0.06049828593454487, 0};
Point(p18 + 36) = {26.25613558399745, 0.05594890665000019, 0};
Point(p18 + 37) = {26.33615006802719, 0.186520677408679, 0};
Point(p18 + 38) = {26.39475351587412, 0.3280019160025505, 0};
Point(p18 + 39) = {26.43050291615854, 0.476908884788123, 0};
Spline(18) = {12, p18 + 1, p18 + 2, p18 + 3, p18 + 4, p18 + 5, p18 + 6, p18 + 7, p18 + 8, p18 + 9, p18 + 10, p18 + 11, p18 + 12, p18 + 13, p18 + 14, p18 + 15, p18 + 16, p18 + 17, p18 + 18, p18 + 19, p18 + 20, p18 + 21, p18 + 22, p18 + 23, p18 + 24, p18 + 25, p18 + 26, p18 + 27, p18 + 28, p18 + 29, p18 + 30, p18 + 31, p18 + 32, p18 + 33, p18 + 34, p18 + 35, p18 + 36, p18 + 37, p18 + 38, p18 + 39, 12};
Line(19) = {14, 13};
Line(20) = {13, 15};
Line(21) = {16, 15};
Line(22) = {14, 16};
Line(23) = {14, 17};
Line(24) = {17, 18};
Line(25) = {13, 18};
Line(26) = {15, 19};
Line(27) = {18, 19};
Line(28) = {16, 20};
Line(29) = {20, 19};
Line(30) = {17, 20};
Curve Loop(7) = {-13, -14, 15, 14};
Surface(7) = {7};
Curve Loop(8) = {13};
Plane Surface(8) = {8};
Curve Loop(9) = {15};
Plane Surface(9) = {9};
Curve Loop(10) = {-16, -17, 18, 17};
Surface(10) = {10};
Curve Loop(11) = {16};
Plane Surface(11) = {11};
Curve Loop(12) = {18};
Plane Surface(12) = {12};
Curve Loop(13) = {-19, 22, 21, -20};
Plane Surface(13) = {13};
Curve Loop(14) = {-23, 19, 25, -24};
Plane Surface(14) = {14};
Curve Loop(15) = {-20, 25, 27, -26, -16, -13};
Plane Surface(15) = {15};
Curve Loop(16) = {-28, 21, 26, -29};
Plane Surface(16) = {16};
Curve Loop(17) = {-22, 23, 30, -28, -18, -15};
Plane Surface(17) = {17};
Curve Loop(18) = {-24, 30, 29, -27};
Plane Surface(18) = {18};
Surface Loop(1) = {13, 14, 15, 16, 17, 18, 10, 7};
Volume(1) = {1};
Surface Loop(2) = {7, 8, 9};
Volume(2) = {2};
Surface Loop(3) = {10, 11, 12};
Volume(3) = {3};
Physical Surface("WALLS") = {13, 18};
Physical Surface("LOAD") = {8, 11};
Physical Surface("BORDER") = {7, 9, 10, 12, 14, 15, 16, 17};
Physical Volume("SOLID") = {1, 2, 3};
