cl__1 = 0.088279;
cl__2 = 0.065427;
cl__3 = 2.363485;
cl__4 = 3.711774;
cl__5 = 0.794296;
cl__6 = 0.325344;
Point(9) = {13.638321, -1.683333, 0.1, cl__1};
Point(10) = {13.638321, -1.683333, 0, cl__1};
Point(11) = {30.563491, 3.146542999999999, 0.1, cl__2};
Point(12) = {30.563491, 3.146542999999999, 0, cl__2};
Point(13) = {0.861248, -3.762098, 0.1, cl__3};
Point(14) = {0.861248, -3.762098, 0, cl__3};
Point(15) = {0.861248, 5.493456999999999, 0.1, cl__4};
Point(16) = {0.861248, 5.493456999999999, 0, cl__4};
Point(17) = {32.352412, -3.762098, 0, cl__5};
Point(18) = {32.352412, -3.762098, 0.1, cl__5};
Point(19) = {32.352412, 5.493456999999999, 0.1, cl__6};
Point(20) = {32.352412, 5.493456999999999, 0, cl__6};
p13 = newp;
Point(p13 + 1) = {13.62745239019398, -1.545234218607135, 0.1};
Point(p13 + 2) = {13.5951141820202, -1.41053588753574, 0.1};
Point(p13 + 3) = {13.54210264948825, -1.282554726734926, 0.1};
Point(p13 + 4) = {13.46972311246426, -1.164442057128728, 0.1};
Point(p13 + 5) = {13.37975779536367, -1.059106204636328, 0.1};
Point(p13 + 6) = {13.27442194287127, -0.9691408875357402, 0.1};
Point(p13 + 7) = {13.15630927326507, -0.8967613505117508, 0.1};
Point(p13 + 8) = {13.02832811246426, -0.8437498179798014, 0.1};
Point(p13 + 9) = {12.89362978139287, -0.8114116098060183, 0.1};
Point(p13 + 10) = {12.755531, -0.800543, 0.1};
Point(p13 + 11) = {12.61743221860713, -0.8114116098060185, 0.1};
Point(p13 + 12) = {12.48273388753574, -0.8437498179798013, 0.1};
Point(p13 + 13) = {12.35475272673492, -0.8967613505117507, 0.1};
Point(p13 + 14) = {12.23664005712873, -0.9691408875357401, 0.1};
Point(p13 + 15) = {12.13130420463633, -1.059106204636328, 0.1};
Point(p13 + 16) = {12.04133888753574, -1.164442057128728, 0.1};
Point(p13 + 17) = {11.96895935051175, -1.282554726734925, 0.1};
Point(p13 + 18) = {11.9159478179798, -1.41053588753574, 0.1};
Point(p13 + 19) = {11.88360960980602, -1.545234218607134, 0.1};
Point(p13 + 20) = {11.872741, -1.683333, 0.1};
Point(p13 + 21) = {11.88360960980602, -1.821431781392865, 0.1};
Point(p13 + 22) = {11.9159478179798, -1.95613011246426, 0.1};
Point(p13 + 23) = {11.96895935051175, -2.084111273265074, 0.1};
Point(p13 + 24) = {12.04133888753574, -2.202223942871272, 0.1};
Point(p13 + 25) = {12.13130420463633, -2.307559795363672, 0.1};
Point(p13 + 26) = {12.23664005712873, -2.39752511246426, 0.1};
Point(p13 + 27) = {12.35475272673492, -2.469904649488249, 0.1};
Point(p13 + 28) = {12.48273388753574, -2.522916182020198, 0.1};
Point(p13 + 29) = {12.61743221860713, -2.555254390193982, 0.1};
Point(p13 + 30) = {12.755531, -2.566123, 0.1};
Point(p13 + 31) = {12.89362978139286, -2.555254390193982, 0.1};
Point(p13 + 32) = {13.02832811246426, -2.522916182020198, 0.1};
Point(p13 + 33) = {13.15630927326507, -2.46990464948825, 0.1};
Point(p13 + 34) = {13.27442194287127, -2.39752511246426, 0.1};
Point(p13 + 35) = {13.37975779536367, -2.307559795363672, 0.1};
Point(p13 + 36) = {13.46972311246426, -2.202223942871273, 0.1};
Point(p13 + 37) = {13.54210264948825, -2.084111273265075, 0.1};
Point(p13 + 38) = {13.5951141820202, -1.95613011246426, 0.1};
Point(p13 + 39) = {13.62745239019398, -1.821431781392866, 0.1};
Spline(13) = {9, p13 + 1, p13 + 2, p13 + 3, p13 + 4, p13 + 5, p13 + 6, p13 + 7, p13 + 8, p13 + 9, p13 + 10, p13 + 11, p13 + 12, p13 + 13, p13 + 14, p13 + 15, p13 + 16, p13 + 17, p13 + 18, p13 + 19, p13 + 20, p13 + 21, p13 + 22, p13 + 23, p13 + 24, p13 + 25, p13 + 26, p13 + 27, p13 + 28, p13 + 29, p13 + 30, p13 + 31, p13 + 32, p13 + 33, p13 + 34, p13 + 35, p13 + 36, p13 + 37, p13 + 38, p13 + 39, 9};
Line(14) = {10, 9};
p15 = newp;
Point(p15 + 1) = {13.62745239019398, -1.545234218607135, 0};
Point(p15 + 2) = {13.5951141820202, -1.41053588753574, 0};
Point(p15 + 3) = {13.54210264948825, -1.282554726734926, 0};
Point(p15 + 4) = {13.46972311246426, -1.164442057128728, 0};
Point(p15 + 5) = {13.37975779536367, -1.059106204636328, 0};
Point(p15 + 6) = {13.27442194287127, -0.9691408875357402, 0};
Point(p15 + 7) = {13.15630927326507, -0.8967613505117508, 0};
Point(p15 + 8) = {13.02832811246426, -0.8437498179798014, 0};
Point(p15 + 9) = {12.89362978139287, -0.8114116098060183, 0};
Point(p15 + 10) = {12.755531, -0.800543, 0};
Point(p15 + 11) = {12.61743221860713, -0.8114116098060185, 0};
Point(p15 + 12) = {12.48273388753574, -0.8437498179798013, 0};
Point(p15 + 13) = {12.35475272673492, -0.8967613505117507, 0};
Point(p15 + 14) = {12.23664005712873, -0.9691408875357401, 0};
Point(p15 + 15) = {12.13130420463633, -1.059106204636328, 0};
Point(p15 + 16) = {12.04133888753574, -1.164442057128728, 0};
Point(p15 + 17) = {11.96895935051175, -1.282554726734925, 0};
Point(p15 + 18) = {11.9159478179798, -1.41053588753574, 0};
Point(p15 + 19) = {11.88360960980602, -1.545234218607134, 0};
Point(p15 + 20) = {11.872741, -1.683333, 0};
Point(p15 + 21) = {11.88360960980602, -1.821431781392865, 0};
Point(p15 + 22) = {11.9159478179798, -1.95613011246426, 0};
Point(p15 + 23) = {11.96895935051175, -2.084111273265074, 0};
Point(p15 + 24) = {12.04133888753574, -2.202223942871272, 0};
Point(p15 + 25) = {12.13130420463633, -2.307559795363672, 0};
Point(p15 + 26) = {12.23664005712873, -2.39752511246426, 0};
Point(p15 + 27) = {12.35475272673492, -2.469904649488249, 0};
Point(p15 + 28) = {12.48273388753574, -2.522916182020198, 0};
Point(p15 + 29) = {12.61743221860713, -2.555254390193982, 0};
Point(p15 + 30) = {12.755531, -2.566123, 0};
Point(p15 + 31) = {12.89362978139286, -2.555254390193982, 0};
Point(p15 + 32) = {13.02832811246426, -2.522916182020198, 0};
Point(p15 + 33) = {13.15630927326507, -2.46990464948825, 0};
Point(p15 + 34) = {13.27442194287127, -2.39752511246426, 0};
Point(p15 + 35) = {13.37975779536367, -2.307559795363672, 0};
Point(p15 + 36) = {13.46972311246426, -2.202223942871273, 0};
Point(p15 + 37) = {13.54210264948825, -2.084111273265075, 0};
Point(p15 + 38) = {13.5951141820202, -1.95613011246426, 0};
Point(p15 + 39) = {13.62745239019398, -1.821431781392866, 0};
Spline(15) = {10, p15 + 1, p15 + 2, p15 + 3, p15 + 4, p15 + 5, p15 + 6, p15 + 7, p15 + 8, p15 + 9, p15 + 10, p15 + 11, p15 + 12, p15 + 13, p15 + 14, p15 + 15, p15 + 16, p15 + 17, p15 + 18, p15 + 19, p15 + 20, p15 + 21, p15 + 22, p15 + 23, p15 + 24, p15 + 25, p15 + 26, p15 + 27, p15 + 28, p15 + 29, p15 + 30, p15 + 31, p15 + 32, p15 + 33, p15 + 34, p15 + 35, p15 + 36, p15 + 37, p15 + 38, p15 + 39, 10};
p16 = newp;
Point(p16 + 1) = {30.55543588753616, 3.248892908138477, 0.1};
Point(p16 + 2) = {30.53146889374688, 3.348722621858713, 0.1};
Point(p16 + 3) = {30.49218016556115, 3.443574002293094, 0.1};
Point(p16 + 4) = {30.43853712185871, 3.531111493661639, 0.1};
Point(p16 + 5) = {30.37186063240658, 3.609179632406579, 0.1};
Point(p16 + 6) = {30.29379249366164, 3.675856121858714, 0.1};
Point(p16 + 7) = {30.20625500229309, 3.729499165561151, 0.1};
Point(p16 + 8) = {30.11140362185871, 3.768787893746881, 0.1};
Point(p16 + 9) = {30.01157390813848, 3.792754887536159, 0.1};
Point(p16 + 10) = {29.909224, 3.80081, 0.1};
Point(p16 + 11) = {29.80687409186152, 3.792754887536159, 0.1};
Point(p16 + 12) = {29.70704437814128, 3.768787893746881, 0.1};
Point(p16 + 13) = {29.61219299770691, 3.729499165561151, 0.1};
Point(p16 + 14) = {29.52465550633836, 3.675856121858714, 0.1};
Point(p16 + 15) = {29.44658736759342, 3.609179632406579, 0.1};
Point(p16 + 16) = {29.37991087814128, 3.53111149366164, 0.1};
Point(p16 + 17) = {29.32626783443885, 3.443574002293094, 0.1};
Point(p16 + 18) = {29.28697910625312, 3.348722621858714, 0.1};
Point(p16 + 19) = {29.26301211246384, 3.248892908138477, 0.1};
Point(p16 + 20) = {29.254957, 3.146543, 0.1};
Point(p16 + 21) = {29.26301211246384, 3.044193091861523, 0.1};
Point(p16 + 22) = {29.28697910625312, 2.944363378141286, 0.1};
Point(p16 + 23) = {29.32626783443885, 2.849511997706906, 0.1};
Point(p16 + 24) = {29.37991087814128, 2.761974506338361, 0.1};
Point(p16 + 25) = {29.44658736759342, 2.683906367593421, 0.1};
Point(p16 + 26) = {29.52465550633836, 2.617229878141286, 0.1};
Point(p16 + 27) = {29.61219299770691, 2.563586834438849, 0.1};
Point(p16 + 28) = {29.70704437814128, 2.524298106253119, 0.1};
Point(p16 + 29) = {29.80687409186152, 2.500331112463841, 0.1};
Point(p16 + 30) = {29.909224, 2.492276, 0.1};
Point(p16 + 31) = {30.01157390813847, 2.500331112463841, 0.1};
Point(p16 + 32) = {30.11140362185871, 2.524298106253119, 0.1};
Point(p16 + 33) = {30.20625500229309, 2.563586834438849, 0.1};
Point(p16 + 34) = {30.29379249366164, 2.617229878141286, 0.1};
Point(p16 + 35) = {30.37186063240658, 2.683906367593421, 0.1};
Point(p16 + 36) = {30.43853712185871, 2.76197450633836, 0.1};
Point(p16 + 37) = {30.49218016556115, 2.849511997706906, 0.1};
Point(p16 + 38) = {30.53146889374688, 2.944363378141286, 0.1};
Point(p16 + 39) = {30.55543588753616, 3.044193091861523, 0.1};
Spline(16) = {11, p16 + 1, p16 + 2, p16 + 3, p16 + 4, p16 + 5, p16 + 6, p16 + 7, p16 + 8, p16 + 9, p16 + 10, p16 + 11, p16 + 12, p16 + 13, p16 + 14, p16 + 15, p16 + 16, p16 + 17, p16 + 18, p16 + 19, p16 + 20, p16 + 21, p16 + 22, p16 + 23, p16 + 24, p16 + 25, p16 + 26, p16 + 27, p16 + 28, p16 + 29, p16 + 30, p16 + 31, p16 + 32, p16 + 33, p16 + 34, p16 + 35, p16 + 36, p16 + 37, p16 + 38, p16 + 39, 11};
Line(17) = {12, 11};
p18 = newp;
Point(p18 + 1) = {30.55543588753616, 3.248892908138477, 0};
Point(p18 + 2) = {30.53146889374688, 3.348722621858713, 0};
Point(p18 + 3) = {30.49218016556115, 3.443574002293094, 0};
Point(p18 + 4) = {30.43853712185871, 3.531111493661639, 0};
Point(p18 + 5) = {30.37186063240658, 3.609179632406579, 0};
Point(p18 + 6) = {30.29379249366164, 3.675856121858714, 0};
Point(p18 + 7) = {30.20625500229309, 3.729499165561151, 0};
Point(p18 + 8) = {30.11140362185871, 3.768787893746881, 0};
Point(p18 + 9) = {30.01157390813848, 3.792754887536159, 0};
Point(p18 + 10) = {29.909224, 3.80081, 0};
Point(p18 + 11) = {29.80687409186152, 3.792754887536159, 0};
Point(p18 + 12) = {29.70704437814128, 3.768787893746881, 0};
Point(p18 + 13) = {29.61219299770691, 3.729499165561151, 0};
Point(p18 + 14) = {29.52465550633836, 3.675856121858714, 0};
Point(p18 + 15) = {29.44658736759342, 3.609179632406579, 0};
Point(p18 + 16) = {29.37991087814128, 3.53111149366164, 0};
Point(p18 + 17) = {29.32626783443885, 3.443574002293094, 0};
Point(p18 + 18) = {29.28697910625312, 3.348722621858714, 0};
Point(p18 + 19) = {29.26301211246384, 3.248892908138477, 0};
Point(p18 + 20) = {29.254957, 3.146543, 0};
Point(p18 + 21) = {29.26301211246384, 3.044193091861523, 0};
Point(p18 + 22) = {29.28697910625312, 2.944363378141286, 0};
Point(p18 + 23) = {29.32626783443885, 2.849511997706906, 0};
Point(p18 + 24) = {29.37991087814128, 2.761974506338361, 0};
Point(p18 + 25) = {29.44658736759342, 2.683906367593421, 0};
Point(p18 + 26) = {29.52465550633836, 2.617229878141286, 0};
Point(p18 + 27) = {29.61219299770691, 2.563586834438849, 0};
Point(p18 + 28) = {29.70704437814128, 2.524298106253119, 0};
Point(p18 + 29) = {29.80687409186152, 2.500331112463841, 0};
Point(p18 + 30) = {29.909224, 2.492276, 0};
Point(p18 + 31) = {30.01157390813847, 2.500331112463841, 0};
Point(p18 + 32) = {30.11140362185871, 2.524298106253119, 0};
Point(p18 + 33) = {30.20625500229309, 2.563586834438849, 0};
Point(p18 + 34) = {30.29379249366164, 2.617229878141286, 0};
Point(p18 + 35) = {30.37186063240658, 2.683906367593421, 0};
Point(p18 + 36) = {30.43853712185871, 2.76197450633836, 0};
Point(p18 + 37) = {30.49218016556115, 2.849511997706906, 0};
Point(p18 + 38) = {30.53146889374688, 2.944363378141286, 0};
Point(p18 + 39) = {30.55543588753616, 3.044193091861523, 0};
Spline(18) = {12, p18 + 1, p18 + 2, p18 + 3, p18 + 4, p18 + 5, p18 + 6, p18 + 7, p18 + 8, p18 + 9, p18 + 10, p18 + 11, p18 + 12, p18 + 13, p18 + 14, p18 + 15, p18 + 16, p18 + 17, p18 + 18, p18 + 19, p18 + 20, p18 + 21, p18 + 22, p18 + 23, p18 + 24, p18 + 25, p18 + 26, p18 + 27, p18 + 28, p18 + 29, p18 + 30, p18 + 31, p18 + 32, p18 + 33, p18 + 34, p18 + 35, p18 + 36, p18 + 37, p18 + 38, p18 + 39, 12};
Line(19) = {14, 13};
Line(20) = {13, 15};
Line(21) = {16, 15};
Line(22) = {14, 16};
Line(23) = {14, 17};
Line(24) = {17, 18};
Line(25) = {13, 18};
Line(26) = {15, 19};
Line(27) = {18, 19};
Line(28) = {16, 20};
Line(29) = {20, 19};
Line(30) = {17, 20};
Curve Loop(7) = {-13, -14, 15, 14};
Surface(7) = {7};
Curve Loop(8) = {13};
Plane Surface(8) = {8};
Curve Loop(9) = {15};
Plane Surface(9) = {9};
Curve Loop(10) = {-16, -17, 18, 17};
Surface(10) = {10};
Curve Loop(11) = {16};
Plane Surface(11) = {11};
Curve Loop(12) = {18};
Plane Surface(12) = {12};
Curve Loop(13) = {-19, 22, 21, -20};
Plane Surface(13) = {13};
Curve Loop(14) = {-23, 19, 25, -24};
Plane Surface(14) = {14};
Curve Loop(15) = {-20, 25, 27, -26, -13, -16};
Plane Surface(15) = {15};
Curve Loop(16) = {-28, 21, 26, -29};
Plane Surface(16) = {16};
Curve Loop(17) = {-22, 23, 30, -28, -15, -18};
Plane Surface(17) = {17};
Curve Loop(18) = {-24, 30, 29, -27};
Plane Surface(18) = {18};
Surface Loop(1) = {13, 14, 15, 16, 17, 18, 7, 10};
Volume(1) = {1};
Surface Loop(2) = {7, 8, 9};
Volume(2) = {2};
Surface Loop(3) = {10, 11, 12};
Volume(3) = {3};
Physical Surface("WALLS") = {13, 18};
Physical Surface("LOAD") = {8, 11};
Physical Surface("BORDER") = {7, 9, 10, 12, 14, 15, 16, 17};
Physical Volume("SOLID") = {1, 2, 3};
