cl__1 = 0.120367;
cl__2 = 0.05423;
cl__3 = 0.333227;
cl__4 = 0.128027;
cl__5 = 5.433583;
cl__6 = 5.646466;
Point(9) = {7.66658, -1.044182, 0.1, cl__1};
Point(10) = {7.66658, -1.044182, 0, cl__1};
Point(11) = {3.193589, 3.153349, 0.1, cl__2};
Point(12) = {3.193589, 3.153349, 0, cl__2};
Point(13) = {0.429914, -4.075044, 0.1, cl__3};
Point(14) = {0.429914, -4.075044, 0, cl__3};
Point(15) = {0.429914, 4.641538000000001, 0.1, cl__4};
Point(16) = {0.429914, 4.641538000000001, 0, cl__4};
Point(17) = {36.78486299999999, -4.075044, 0, cl__5};
Point(18) = {36.78486299999999, -4.075044, 0.1, cl__5};
Point(19) = {36.78486299999999, 4.641538000000001, 0.1, cl__6};
Point(20) = {36.78486299999999, 4.641538000000001, 0, cl__6};
p13 = newp;
Point(p13 + 1) = {7.65176081261249, -0.8558863710305602, 0.1};
Point(p13 + 2) = {7.607668148025503, -0.6722272053637126, 0.1};
Point(p13 + 3) = {7.535387713976337, -0.4977268011879999, 0.1};
Point(p13 + 4) = {7.436699294636287, -0.3366819375878666, 0.1};
Point(p13 + 5) = {7.314032926417593, -0.1930580735824072, 0.1};
Point(p13 + 6) = {7.170409062412133, -0.07039170536371275, 0.1};
Point(p13 + 7) = {7.009364198811999, 0.02829671397633682, 0.1};
Point(p13 + 8) = {6.834863794636287, 0.1005771480255038, 0.1};
Point(p13 + 9) = {6.65120462896944, 0.1446698126124901, 0.1};
Point(p13 + 10) = {6.462909, 0.159489, 0.1};
Point(p13 + 11) = {6.27461337103056, 0.1446698126124899, 0.1};
Point(p13 + 12) = {6.090954205363713, 0.1005771480255038, 0.1};
Point(p13 + 13) = {5.916453801188, 0.02829671397633704, 0.1};
Point(p13 + 14) = {5.755408937587866, -0.07039170536371264, 0.1};
Point(p13 + 15) = {5.611785073582407, -0.1930580735824071, 0.1};
Point(p13 + 16) = {5.489118705363713, -0.3366819375878665, 0.1};
Point(p13 + 17) = {5.390430286023663, -0.4977268011879998, 0.1};
Point(p13 + 18) = {5.318149851974496, -0.6722272053637125, 0.1};
Point(p13 + 19) = {5.27405718738751, -0.8558863710305601, 0.1};
Point(p13 + 20) = {5.259238, -1.044182, 0.1};
Point(p13 + 21) = {5.27405718738751, -1.232477628969439, 0.1};
Point(p13 + 22) = {5.318149851974496, -1.416136794636288, 0.1};
Point(p13 + 23) = {5.390430286023663, -1.590637198811999, 0.1};
Point(p13 + 24) = {5.489118705363713, -1.751682062412133, 0.1};
Point(p13 + 25) = {5.611785073582407, -1.895305926417593, 0.1};
Point(p13 + 26) = {5.755408937587866, -2.017972294636287, 0.1};
Point(p13 + 27) = {5.916453801188, -2.116660713976337, 0.1};
Point(p13 + 28) = {6.090954205363713, -2.188941148025504, 0.1};
Point(p13 + 29) = {6.27461337103056, -2.23303381261249, 0.1};
Point(p13 + 30) = {6.462909, -2.247853, 0.1};
Point(p13 + 31) = {6.651204628969439, -2.23303381261249, 0.1};
Point(p13 + 32) = {6.834863794636287, -2.188941148025504, 0.1};
Point(p13 + 33) = {7.009364198811999, -2.116660713976337, 0.1};
Point(p13 + 34) = {7.170409062412133, -2.017972294636287, 0.1};
Point(p13 + 35) = {7.314032926417593, -1.895305926417593, 0.1};
Point(p13 + 36) = {7.436699294636287, -1.751682062412133, 0.1};
Point(p13 + 37) = {7.535387713976337, -1.590637198812, 0.1};
Point(p13 + 38) = {7.607668148025503, -1.416136794636287, 0.1};
Point(p13 + 39) = {7.65176081261249, -1.23247762896944, 0.1};
Spline(13) = {9, p13 + 1, p13 + 2, p13 + 3, p13 + 4, p13 + 5, p13 + 6, p13 + 7, p13 + 8, p13 + 9, p13 + 10, p13 + 11, p13 + 12, p13 + 13, p13 + 14, p13 + 15, p13 + 16, p13 + 17, p13 + 18, p13 + 19, p13 + 20, p13 + 21, p13 + 22, p13 + 23, p13 + 24, p13 + 25, p13 + 26, p13 + 27, p13 + 28, p13 + 29, p13 + 30, p13 + 31, p13 + 32, p13 + 33, p13 + 34, p13 + 35, p13 + 36, p13 + 37, p13 + 38, p13 + 39, 9};
Line(14) = {10, 9};
p15 = newp;
Point(p15 + 1) = {7.65176081261249, -0.8558863710305602, 0};
Point(p15 + 2) = {7.607668148025503, -0.6722272053637126, 0};
Point(p15 + 3) = {7.535387713976337, -0.4977268011879999, 0};
Point(p15 + 4) = {7.436699294636287, -0.3366819375878666, 0};
Point(p15 + 5) = {7.314032926417593, -0.1930580735824072, 0};
Point(p15 + 6) = {7.170409062412133, -0.07039170536371275, 0};
Point(p15 + 7) = {7.009364198811999, 0.02829671397633682, 0};
Point(p15 + 8) = {6.834863794636287, 0.1005771480255038, 0};
Point(p15 + 9) = {6.65120462896944, 0.1446698126124901, 0};
Point(p15 + 10) = {6.462909, 0.159489, 0};
Point(p15 + 11) = {6.27461337103056, 0.1446698126124899, 0};
Point(p15 + 12) = {6.090954205363713, 0.1005771480255038, 0};
Point(p15 + 13) = {5.916453801188, 0.02829671397633704, 0};
Point(p15 + 14) = {5.755408937587866, -0.07039170536371264, 0};
Point(p15 + 15) = {5.611785073582407, -0.1930580735824071, 0};
Point(p15 + 16) = {5.489118705363713, -0.3366819375878665, 0};
Point(p15 + 17) = {5.390430286023663, -0.4977268011879998, 0};
Point(p15 + 18) = {5.318149851974496, -0.6722272053637125, 0};
Point(p15 + 19) = {5.27405718738751, -0.8558863710305601, 0};
Point(p15 + 20) = {5.259238, -1.044182, 0};
Point(p15 + 21) = {5.27405718738751, -1.232477628969439, 0};
Point(p15 + 22) = {5.318149851974496, -1.416136794636288, 0};
Point(p15 + 23) = {5.390430286023663, -1.590637198811999, 0};
Point(p15 + 24) = {5.489118705363713, -1.751682062412133, 0};
Point(p15 + 25) = {5.611785073582407, -1.895305926417593, 0};
Point(p15 + 26) = {5.755408937587866, -2.017972294636287, 0};
Point(p15 + 27) = {5.916453801188, -2.116660713976337, 0};
Point(p15 + 28) = {6.090954205363713, -2.188941148025504, 0};
Point(p15 + 29) = {6.27461337103056, -2.23303381261249, 0};
Point(p15 + 30) = {6.462909, -2.247853, 0};
Point(p15 + 31) = {6.651204628969439, -2.23303381261249, 0};
Point(p15 + 32) = {6.834863794636287, -2.188941148025504, 0};
Point(p15 + 33) = {7.009364198811999, -2.116660713976337, 0};
Point(p15 + 34) = {7.170409062412133, -2.017972294636287, 0};
Point(p15 + 35) = {7.314032926417593, -1.895305926417593, 0};
Point(p15 + 36) = {7.436699294636287, -1.751682062412133, 0};
Point(p15 + 37) = {7.535387713976337, -1.590637198812, 0};
Point(p15 + 38) = {7.607668148025503, -1.416136794636287, 0};
Point(p15 + 39) = {7.65176081261249, -1.23247762896944, 0};
Spline(15) = {10, p15 + 1, p15 + 2, p15 + 3, p15 + 4, p15 + 5, p15 + 6, p15 + 7, p15 + 8, p15 + 9, p15 + 10, p15 + 11, p15 + 12, p15 + 13, p15 + 14, p15 + 15, p15 + 16, p15 + 17, p15 + 18, p15 + 19, p15 + 20, p15 + 21, p15 + 22, p15 + 23, p15 + 24, p15 + 25, p15 + 26, p15 + 27, p15 + 28, p15 + 29, p15 + 30, p15 + 31, p15 + 32, p15 + 33, p15 + 34, p15 + 35, p15 + 36, p15 + 37, p15 + 38, p15 + 39, 10};
p16 = newp;
Point(p16 + 1) = {3.186912362481424, 3.238183723260247, 0.1};
Point(p16 + 2) = {3.167046850899894, 3.320929534083523, 0.1};
Point(p16 + 3) = {3.1344816200804, 3.399548955989756, 0.1};
Point(p16 + 4) = {3.090018534083523, 3.472106117888713, 0.1};
Point(p16 + 5) = {3.034752421651027, 3.536814421651027, 0.1};
Point(p16 + 6) = {2.970044117888713, 3.592080534083522, 0.1};
Point(p16 + 7) = {2.897486955989756, 3.6365436200804, 0.1};
Point(p16 + 8) = {2.818867534083523, 3.669108850899894, 0.1};
Point(p16 + 9) = {2.736121723260247, 3.688974362481424, 0.1};
Point(p16 + 10) = {2.651287, 3.695651, 0.1};
Point(p16 + 11) = {2.566452276739752, 3.688974362481424, 0.1};
Point(p16 + 12) = {2.483706465916477, 3.669108850899894, 0.1};
Point(p16 + 13) = {2.405087044010244, 3.6365436200804, 0.1};
Point(p16 + 14) = {2.332529882111287, 3.592080534083522, 0.1};
Point(p16 + 15) = {2.267821578348973, 3.536814421651027, 0.1};
Point(p16 + 16) = {2.212555465916477, 3.472106117888713, 0.1};
Point(p16 + 17) = {2.1680923799196, 3.399548955989756, 0.1};
Point(p16 + 18) = {2.135527149100106, 3.320929534083523, 0.1};
Point(p16 + 19) = {2.115661637518575, 3.238183723260248, 0.1};
Point(p16 + 20) = {2.108985, 3.153349, 0.1};
Point(p16 + 21) = {2.115661637518575, 3.068514276739753, 0.1};
Point(p16 + 22) = {2.135527149100106, 2.985768465916477, 0.1};
Point(p16 + 23) = {2.168092379919599, 2.907149044010245, 0.1};
Point(p16 + 24) = {2.212555465916477, 2.834591882111287, 0.1};
Point(p16 + 25) = {2.267821578348973, 2.769883578348973, 0.1};
Point(p16 + 26) = {2.332529882111287, 2.714617465916477, 0.1};
Point(p16 + 27) = {2.405087044010244, 2.6701543799196, 0.1};
Point(p16 + 28) = {2.483706465916477, 2.637589149100106, 0.1};
Point(p16 + 29) = {2.566452276739752, 2.617723637518576, 0.1};
Point(p16 + 30) = {2.651287, 2.611047, 0.1};
Point(p16 + 31) = {2.736121723260247, 2.617723637518576, 0.1};
Point(p16 + 32) = {2.818867534083523, 2.637589149100106, 0.1};
Point(p16 + 33) = {2.897486955989756, 2.670154379919599, 0.1};
Point(p16 + 34) = {2.970044117888713, 2.714617465916477, 0.1};
Point(p16 + 35) = {3.034752421651027, 2.769883578348973, 0.1};
Point(p16 + 36) = {3.090018534083522, 2.834591882111287, 0.1};
Point(p16 + 37) = {3.1344816200804, 2.907149044010244, 0.1};
Point(p16 + 38) = {3.167046850899894, 2.985768465916477, 0.1};
Point(p16 + 39) = {3.186912362481424, 3.068514276739752, 0.1};
Spline(16) = {11, p16 + 1, p16 + 2, p16 + 3, p16 + 4, p16 + 5, p16 + 6, p16 + 7, p16 + 8, p16 + 9, p16 + 10, p16 + 11, p16 + 12, p16 + 13, p16 + 14, p16 + 15, p16 + 16, p16 + 17, p16 + 18, p16 + 19, p16 + 20, p16 + 21, p16 + 22, p16 + 23, p16 + 24, p16 + 25, p16 + 26, p16 + 27, p16 + 28, p16 + 29, p16 + 30, p16 + 31, p16 + 32, p16 + 33, p16 + 34, p16 + 35, p16 + 36, p16 + 37, p16 + 38, p16 + 39, 11};
Line(17) = {12, 11};
p18 = newp;
Point(p18 + 1) = {3.186912362481424, 3.238183723260247, 0};
Point(p18 + 2) = {3.167046850899894, 3.320929534083523, 0};
Point(p18 + 3) = {3.1344816200804, 3.399548955989756, 0};
Point(p18 + 4) = {3.090018534083523, 3.472106117888713, 0};
Point(p18 + 5) = {3.034752421651027, 3.536814421651027, 0};
Point(p18 + 6) = {2.970044117888713, 3.592080534083522, 0};
Point(p18 + 7) = {2.897486955989756, 3.6365436200804, 0};
Point(p18 + 8) = {2.818867534083523, 3.669108850899894, 0};
Point(p18 + 9) = {2.736121723260247, 3.688974362481424, 0};
Point(p18 + 10) = {2.651287, 3.695651, 0};
Point(p18 + 11) = {2.566452276739752, 3.688974362481424, 0};
Point(p18 + 12) = {2.483706465916477, 3.669108850899894, 0};
Point(p18 + 13) = {2.405087044010244, 3.6365436200804, 0};
Point(p18 + 14) = {2.332529882111287, 3.592080534083522, 0};
Point(p18 + 15) = {2.267821578348973, 3.536814421651027, 0};
Point(p18 + 16) = {2.212555465916477, 3.472106117888713, 0};
Point(p18 + 17) = {2.1680923799196, 3.399548955989756, 0};
Point(p18 + 18) = {2.135527149100106, 3.320929534083523, 0};
Point(p18 + 19) = {2.115661637518575, 3.238183723260248, 0};
Point(p18 + 20) = {2.108985, 3.153349, 0};
Point(p18 + 21) = {2.115661637518575, 3.068514276739753, 0};
Point(p18 + 22) = {2.135527149100106, 2.985768465916477, 0};
Point(p18 + 23) = {2.168092379919599, 2.907149044010245, 0};
Point(p18 + 24) = {2.212555465916477, 2.834591882111287, 0};
Point(p18 + 25) = {2.267821578348973, 2.769883578348973, 0};
Point(p18 + 26) = {2.332529882111287, 2.714617465916477, 0};
Point(p18 + 27) = {2.405087044010244, 2.6701543799196, 0};
Point(p18 + 28) = {2.483706465916477, 2.637589149100106, 0};
Point(p18 + 29) = {2.566452276739752, 2.617723637518576, 0};
Point(p18 + 30) = {2.651287, 2.611047, 0};
Point(p18 + 31) = {2.736121723260247, 2.617723637518576, 0};
Point(p18 + 32) = {2.818867534083523, 2.637589149100106, 0};
Point(p18 + 33) = {2.897486955989756, 2.670154379919599, 0};
Point(p18 + 34) = {2.970044117888713, 2.714617465916477, 0};
Point(p18 + 35) = {3.034752421651027, 2.769883578348973, 0};
Point(p18 + 36) = {3.090018534083522, 2.834591882111287, 0};
Point(p18 + 37) = {3.1344816200804, 2.907149044010244, 0};
Point(p18 + 38) = {3.167046850899894, 2.985768465916477, 0};
Point(p18 + 39) = {3.186912362481424, 3.068514276739752, 0};
Spline(18) = {12, p18 + 1, p18 + 2, p18 + 3, p18 + 4, p18 + 5, p18 + 6, p18 + 7, p18 + 8, p18 + 9, p18 + 10, p18 + 11, p18 + 12, p18 + 13, p18 + 14, p18 + 15, p18 + 16, p18 + 17, p18 + 18, p18 + 19, p18 + 20, p18 + 21, p18 + 22, p18 + 23, p18 + 24, p18 + 25, p18 + 26, p18 + 27, p18 + 28, p18 + 29, p18 + 30, p18 + 31, p18 + 32, p18 + 33, p18 + 34, p18 + 35, p18 + 36, p18 + 37, p18 + 38, p18 + 39, 12};
Line(19) = {14, 13};
Line(20) = {13, 15};
Line(21) = {16, 15};
Line(22) = {14, 16};
Line(23) = {14, 17};
Line(24) = {17, 18};
Line(25) = {13, 18};
Line(26) = {15, 19};
Line(27) = {18, 19};
Line(28) = {16, 20};
Line(29) = {20, 19};
Line(30) = {17, 20};
Curve Loop(7) = {-13, -14, 15, 14};
Surface(7) = {7};
Curve Loop(8) = {13};
Plane Surface(8) = {8};
Curve Loop(9) = {15};
Plane Surface(9) = {9};
Curve Loop(10) = {-16, -17, 18, 17};
Surface(10) = {10};
Curve Loop(11) = {16};
Plane Surface(11) = {11};
Curve Loop(12) = {18};
Plane Surface(12) = {12};
Curve Loop(13) = {-19, 22, 21, -20};
Plane Surface(13) = {13};
Curve Loop(14) = {-23, 19, 25, -24};
Plane Surface(14) = {14};
Curve Loop(15) = {-20, 25, 27, -26, -13, -16};
Plane Surface(15) = {15};
Curve Loop(16) = {-28, 21, 26, -29};
Plane Surface(16) = {16};
Curve Loop(17) = {-22, 23, 30, -28, -15, -18};
Plane Surface(17) = {17};
Curve Loop(18) = {-24, 30, 29, -27};
Plane Surface(18) = {18};
Surface Loop(1) = {13, 14, 15, 16, 17, 18, 7, 10};
Volume(1) = {1};
Surface Loop(2) = {7, 8, 9};
Volume(2) = {2};
Surface Loop(3) = {10, 11, 12};
Volume(3) = {3};
Physical Surface("WALLS") = {13, 18};
Physical Surface("LOAD") = {8, 11};
Physical Surface("BORDER") = {7, 9, 10, 12, 14, 15, 16, 17};
Physical Volume("SOLID") = {1, 2, 3};
