cl__1 = 0.081633;
cl__2 = 0.093612;
cl__3 = 0.755408;
cl__4 = 0.602989;
cl__5 = 2.052683;
cl__6 = 2.575385;
Point(9) = {19.511647, -1.214196, 0.1, cl__1};
Point(10) = {19.511647, -1.214196, 0, cl__1};
Point(11) = {8.259045, 2.148855, 0.1, cl__2};
Point(12) = {8.259045, 2.148855, 0, cl__2};
Point(13) = {0.450646, -3.86387, 0.1, cl__3};
Point(14) = {0.450646, -3.86387, 0, cl__3};
Point(15) = {0.450646, 5.096555, 0.1, cl__4};
Point(16) = {0.450646, 5.096555, 0, cl__4};
Point(17) = {33.056755, -3.86387, 0, cl__5};
Point(18) = {33.056755, -3.86387, 0.1, cl__5};
Point(19) = {33.056755, 5.096555, 0.1, cl__6};
Point(20) = {33.056755, 5.096555, 0, cl__6};
p13 = newp;
Point(p13 + 1) = {19.50159658614305, -1.086493383850313, 0.1};
Point(p13 + 2) = {19.47169281911677, -0.9619352299309161, 0.1};
Point(p13 + 3) = {19.42267202891026, -0.8435885733761166, 0.1};
Point(p13 + 4) = {19.35574127006909, -0.7343675016403286, 0.1};
Point(p13 + 5) = {19.27254860000636, -0.6369613999936422, 0.1};
Point(p13 + 6) = {19.17514249835967, -0.5537687299309162, 0.1};
Point(p13 + 7) = {19.06592142662388, -0.4868379710897373, 0.1};
Point(p13 + 8) = {18.94757477006909, -0.4378171808832285, 0.1};
Point(p13 + 9) = {18.82301661614969, -0.4079134138569495, 0.1};
Point(p13 + 10) = {18.695314, -0.3978630000000001, 0.1};
Point(p13 + 11) = {18.56761138385031, -0.4079134138569496, 0.1};
Point(p13 + 12) = {18.44305322993091, -0.4378171808832284, 0.1};
Point(p13 + 13) = {18.32470657337612, -0.4868379710897371, 0.1};
Point(p13 + 14) = {18.21548550164033, -0.5537687299309161, 0.1};
Point(p13 + 15) = {18.11807939999364, -0.6369613999936421, 0.1};
Point(p13 + 16) = {18.03488672993092, -0.7343675016403285, 0.1};
Point(p13 + 17) = {17.96795597108974, -0.8435885733761166, 0.1};
Point(p13 + 18) = {17.91893518088323, -0.9619352299309161, 0.1};
Point(p13 + 19) = {17.88903141385695, -1.086493383850313, 0.1};
Point(p13 + 20) = {17.878981, -1.214196, 0.1};
Point(p13 + 21) = {17.88903141385695, -1.341898616149687, 0.1};
Point(p13 + 22) = {17.91893518088323, -1.466456770069084, 0.1};
Point(p13 + 23) = {17.96795597108974, -1.584803426623883, 0.1};
Point(p13 + 24) = {18.03488672993091, -1.694024498359672, 0.1};
Point(p13 + 25) = {18.11807939999364, -1.791430600006358, 0.1};
Point(p13 + 26) = {18.21548550164033, -1.874623270069084, 0.1};
Point(p13 + 27) = {18.32470657337612, -1.941554028910263, 0.1};
Point(p13 + 28) = {18.44305322993091, -1.990574819116772, 0.1};
Point(p13 + 29) = {18.56761138385031, -2.02047858614305, 0.1};
Point(p13 + 30) = {18.695314, -2.030529, 0.1};
Point(p13 + 31) = {18.82301661614969, -2.020478586143051, 0.1};
Point(p13 + 32) = {18.94757477006908, -1.990574819116772, 0.1};
Point(p13 + 33) = {19.06592142662388, -1.941554028910263, 0.1};
Point(p13 + 34) = {19.17514249835967, -1.874623270069084, 0.1};
Point(p13 + 35) = {19.27254860000636, -1.791430600006358, 0.1};
Point(p13 + 36) = {19.35574127006908, -1.694024498359672, 0.1};
Point(p13 + 37) = {19.42267202891026, -1.584803426623884, 0.1};
Point(p13 + 38) = {19.47169281911677, -1.466456770069084, 0.1};
Point(p13 + 39) = {19.50159658614305, -1.341898616149687, 0.1};
Spline(13) = {9, p13 + 1, p13 + 2, p13 + 3, p13 + 4, p13 + 5, p13 + 6, p13 + 7, p13 + 8, p13 + 9, p13 + 10, p13 + 11, p13 + 12, p13 + 13, p13 + 14, p13 + 15, p13 + 16, p13 + 17, p13 + 18, p13 + 19, p13 + 20, p13 + 21, p13 + 22, p13 + 23, p13 + 24, p13 + 25, p13 + 26, p13 + 27, p13 + 28, p13 + 29, p13 + 30, p13 + 31, p13 + 32, p13 + 33, p13 + 34, p13 + 35, p13 + 36, p13 + 37, p13 + 38, p13 + 39, 9};
Line(14) = {10, 9};
p15 = newp;
Point(p15 + 1) = {19.50159658614305, -1.086493383850313, 0};
Point(p15 + 2) = {19.47169281911677, -0.9619352299309161, 0};
Point(p15 + 3) = {19.42267202891026, -0.8435885733761166, 0};
Point(p15 + 4) = {19.35574127006909, -0.7343675016403286, 0};
Point(p15 + 5) = {19.27254860000636, -0.6369613999936422, 0};
Point(p15 + 6) = {19.17514249835967, -0.5537687299309162, 0};
Point(p15 + 7) = {19.06592142662388, -0.4868379710897373, 0};
Point(p15 + 8) = {18.94757477006909, -0.4378171808832285, 0};
Point(p15 + 9) = {18.82301661614969, -0.4079134138569495, 0};
Point(p15 + 10) = {18.695314, -0.3978630000000001, 0};
Point(p15 + 11) = {18.56761138385031, -0.4079134138569496, 0};
Point(p15 + 12) = {18.44305322993091, -0.4378171808832284, 0};
Point(p15 + 13) = {18.32470657337612, -0.4868379710897371, 0};
Point(p15 + 14) = {18.21548550164033, -0.5537687299309161, 0};
Point(p15 + 15) = {18.11807939999364, -0.6369613999936421, 0};
Point(p15 + 16) = {18.03488672993092, -0.7343675016403285, 0};
Point(p15 + 17) = {17.96795597108974, -0.8435885733761166, 0};
Point(p15 + 18) = {17.91893518088323, -0.9619352299309161, 0};
Point(p15 + 19) = {17.88903141385695, -1.086493383850313, 0};
Point(p15 + 20) = {17.878981, -1.214196, 0};
Point(p15 + 21) = {17.88903141385695, -1.341898616149687, 0};
Point(p15 + 22) = {17.91893518088323, -1.466456770069084, 0};
Point(p15 + 23) = {17.96795597108974, -1.584803426623883, 0};
Point(p15 + 24) = {18.03488672993091, -1.694024498359672, 0};
Point(p15 + 25) = {18.11807939999364, -1.791430600006358, 0};
Point(p15 + 26) = {18.21548550164033, -1.874623270069084, 0};
Point(p15 + 27) = {18.32470657337612, -1.941554028910263, 0};
Point(p15 + 28) = {18.44305322993091, -1.990574819116772, 0};
Point(p15 + 29) = {18.56761138385031, -2.02047858614305, 0};
Point(p15 + 30) = {18.695314, -2.030529, 0};
Point(p15 + 31) = {18.82301661614969, -2.020478586143051, 0};
Point(p15 + 32) = {18.94757477006908, -1.990574819116772, 0};
Point(p15 + 33) = {19.06592142662388, -1.941554028910263, 0};
Point(p15 + 34) = {19.17514249835967, -1.874623270069084, 0};
Point(p15 + 35) = {19.27254860000636, -1.791430600006358, 0};
Point(p15 + 36) = {19.35574127006908, -1.694024498359672, 0};
Point(p15 + 37) = {19.42267202891026, -1.584803426623884, 0};
Point(p15 + 38) = {19.47169281911677, -1.466456770069084, 0};
Point(p15 + 39) = {19.50159658614305, -1.341898616149687, 0};
Spline(15) = {10, p15 + 1, p15 + 2, p15 + 3, p15 + 4, p15 + 5, p15 + 6, p15 + 7, p15 + 8, p15 + 9, p15 + 10, p15 + 11, p15 + 12, p15 + 13, p15 + 14, p15 + 15, p15 + 16, p15 + 17, p15 + 18, p15 + 19, p15 + 20, p15 + 21, p15 + 22, p15 + 23, p15 + 24, p15 + 25, p15 + 26, p15 + 27, p15 + 28, p15 + 29, p15 + 30, p15 + 31, p15 + 32, p15 + 33, p15 + 34, p15 + 35, p15 + 36, p15 + 37, p15 + 38, p15 + 39, 10};
p16 = newp;
Point(p16 + 1) = {8.247519760151283, 2.295297057151321, 0.1};
Point(p16 + 2) = {8.213227830260283, 2.438133224842253, 0.1};
Point(p16 + 3) = {8.157013591449312, 2.573846402578184, 0.1};
Point(p16 + 4) = {8.080261224842253, 2.699094881517039, 0.1};
Point(p16 + 5) = {7.984860628431475, 2.810794628431476, 0.1};
Point(p16 + 6) = {7.873160881517039, 2.906195224842254, 0.1};
Point(p16 + 7) = {7.747912402578184, 2.982947591449312, 0.1};
Point(p16 + 8) = {7.612199224842254, 3.039161830260285, 0.1};
Point(p16 + 9) = {7.469363057151321, 3.073453760151283, 0.1};
Point(p16 + 10) = {7.322921, 3.084979, 0.1};
Point(p16 + 11) = {7.176478942848679, 3.073453760151283, 0.1};
Point(p16 + 12) = {7.033642775157746, 3.039161830260285, 0.1};
Point(p16 + 13) = {6.897929597421816, 2.982947591449312, 0.1};
Point(p16 + 14) = {6.772681118482961, 2.906195224842254, 0.1};
Point(p16 + 15) = {6.660981371568525, 2.810794628431476, 0.1};
Point(p16 + 16) = {6.565580775157747, 2.699094881517039, 0.1};
Point(p16 + 17) = {6.488828408550688, 2.573846402578184, 0.1};
Point(p16 + 18) = {6.432614169739716, 2.438133224842253, 0.1};
Point(p16 + 19) = {6.398322239848717, 2.295297057151322, 0.1};
Point(p16 + 20) = {6.386797, 2.148855, 0.1};
Point(p16 + 21) = {6.398322239848717, 2.002412942848679, 0.1};
Point(p16 + 22) = {6.432614169739716, 1.859576775157747, 0.1};
Point(p16 + 23) = {6.488828408550688, 1.723863597421817, 0.1};
Point(p16 + 24) = {6.565580775157747, 1.598615118482961, 0.1};
Point(p16 + 25) = {6.660981371568524, 1.486915371568525, 0.1};
Point(p16 + 26) = {6.772681118482961, 1.391514775157747, 0.1};
Point(p16 + 27) = {6.897929597421816, 1.314762408550689, 0.1};
Point(p16 + 28) = {7.033642775157746, 1.258548169739716, 0.1};
Point(p16 + 29) = {7.176478942848679, 1.224256239848718, 0.1};
Point(p16 + 30) = {7.322921, 1.212731, 0.1};
Point(p16 + 31) = {7.469363057151321, 1.224256239848717, 0.1};
Point(p16 + 32) = {7.612199224842253, 1.258548169739716, 0.1};
Point(p16 + 33) = {7.747912402578184, 1.314762408550688, 0.1};
Point(p16 + 34) = {7.873160881517039, 1.391514775157747, 0.1};
Point(p16 + 35) = {7.984860628431475, 1.486915371568525, 0.1};
Point(p16 + 36) = {8.080261224842253, 1.598615118482961, 0.1};
Point(p16 + 37) = {8.157013591449312, 1.723863597421817, 0.1};
Point(p16 + 38) = {8.213227830260283, 1.859576775157747, 0.1};
Point(p16 + 39) = {8.247519760151283, 2.002412942848679, 0.1};
Spline(16) = {11, p16 + 1, p16 + 2, p16 + 3, p16 + 4, p16 + 5, p16 + 6, p16 + 7, p16 + 8, p16 + 9, p16 + 10, p16 + 11, p16 + 12, p16 + 13, p16 + 14, p16 + 15, p16 + 16, p16 + 17, p16 + 18, p16 + 19, p16 + 20, p16 + 21, p16 + 22, p16 + 23, p16 + 24, p16 + 25, p16 + 26, p16 + 27, p16 + 28, p16 + 29, p16 + 30, p16 + 31, p16 + 32, p16 + 33, p16 + 34, p16 + 35, p16 + 36, p16 + 37, p16 + 38, p16 + 39, 11};
Line(17) = {12, 11};
p18 = newp;
Point(p18 + 1) = {8.247519760151283, 2.295297057151321, 0};
Point(p18 + 2) = {8.213227830260283, 2.438133224842253, 0};
Point(p18 + 3) = {8.157013591449312, 2.573846402578184, 0};
Point(p18 + 4) = {8.080261224842253, 2.699094881517039, 0};
Point(p18 + 5) = {7.984860628431475, 2.810794628431476, 0};
Point(p18 + 6) = {7.873160881517039, 2.906195224842254, 0};
Point(p18 + 7) = {7.747912402578184, 2.982947591449312, 0};
Point(p18 + 8) = {7.612199224842254, 3.039161830260285, 0};
Point(p18 + 9) = {7.469363057151321, 3.073453760151283, 0};
Point(p18 + 10) = {7.322921, 3.084979, 0};
Point(p18 + 11) = {7.176478942848679, 3.073453760151283, 0};
Point(p18 + 12) = {7.033642775157746, 3.039161830260285, 0};
Point(p18 + 13) = {6.897929597421816, 2.982947591449312, 0};
Point(p18 + 14) = {6.772681118482961, 2.906195224842254, 0};
Point(p18 + 15) = {6.660981371568525, 2.810794628431476, 0};
Point(p18 + 16) = {6.565580775157747, 2.699094881517039, 0};
Point(p18 + 17) = {6.488828408550688, 2.573846402578184, 0};
Point(p18 + 18) = {6.432614169739716, 2.438133224842253, 0};
Point(p18 + 19) = {6.398322239848717, 2.295297057151322, 0};
Point(p18 + 20) = {6.386797, 2.148855, 0};
Point(p18 + 21) = {6.398322239848717, 2.002412942848679, 0};
Point(p18 + 22) = {6.432614169739716, 1.859576775157747, 0};
Point(p18 + 23) = {6.488828408550688, 1.723863597421817, 0};
Point(p18 + 24) = {6.565580775157747, 1.598615118482961, 0};
Point(p18 + 25) = {6.660981371568524, 1.486915371568525, 0};
Point(p18 + 26) = {6.772681118482961, 1.391514775157747, 0};
Point(p18 + 27) = {6.897929597421816, 1.314762408550689, 0};
Point(p18 + 28) = {7.033642775157746, 1.258548169739716, 0};
Point(p18 + 29) = {7.176478942848679, 1.224256239848718, 0};
Point(p18 + 30) = {7.322921, 1.212731, 0};
Point(p18 + 31) = {7.469363057151321, 1.224256239848717, 0};
Point(p18 + 32) = {7.612199224842253, 1.258548169739716, 0};
Point(p18 + 33) = {7.747912402578184, 1.314762408550688, 0};
Point(p18 + 34) = {7.873160881517039, 1.391514775157747, 0};
Point(p18 + 35) = {7.984860628431475, 1.486915371568525, 0};
Point(p18 + 36) = {8.080261224842253, 1.598615118482961, 0};
Point(p18 + 37) = {8.157013591449312, 1.723863597421817, 0};
Point(p18 + 38) = {8.213227830260283, 1.859576775157747, 0};
Point(p18 + 39) = {8.247519760151283, 2.002412942848679, 0};
Spline(18) = {12, p18 + 1, p18 + 2, p18 + 3, p18 + 4, p18 + 5, p18 + 6, p18 + 7, p18 + 8, p18 + 9, p18 + 10, p18 + 11, p18 + 12, p18 + 13, p18 + 14, p18 + 15, p18 + 16, p18 + 17, p18 + 18, p18 + 19, p18 + 20, p18 + 21, p18 + 22, p18 + 23, p18 + 24, p18 + 25, p18 + 26, p18 + 27, p18 + 28, p18 + 29, p18 + 30, p18 + 31, p18 + 32, p18 + 33, p18 + 34, p18 + 35, p18 + 36, p18 + 37, p18 + 38, p18 + 39, 12};
Line(19) = {14, 13};
Line(20) = {13, 15};
Line(21) = {16, 15};
Line(22) = {14, 16};
Line(23) = {14, 17};
Line(24) = {17, 18};
Line(25) = {13, 18};
Line(26) = {15, 19};
Line(27) = {18, 19};
Line(28) = {16, 20};
Line(29) = {20, 19};
Line(30) = {17, 20};
Curve Loop(7) = {-13, -14, 15, 14};
Surface(7) = {7};
Curve Loop(8) = {13};
Plane Surface(8) = {8};
Curve Loop(9) = {15};
Plane Surface(9) = {9};
Curve Loop(10) = {-16, -17, 18, 17};
Surface(10) = {10};
Curve Loop(11) = {16};
Plane Surface(11) = {11};
Curve Loop(12) = {18};
Plane Surface(12) = {12};
Curve Loop(13) = {-19, 22, 21, -20};
Plane Surface(13) = {13};
Curve Loop(14) = {-23, 19, 25, -24};
Plane Surface(14) = {14};
Curve Loop(15) = {-20, 25, 27, -26, -13, -16};
Plane Surface(15) = {15};
Curve Loop(16) = {-28, 21, 26, -29};
Plane Surface(16) = {16};
Curve Loop(17) = {-22, 23, 30, -28, -15, -18};
Plane Surface(17) = {17};
Curve Loop(18) = {-24, 30, 29, -27};
Plane Surface(18) = {18};
Surface Loop(1) = {13, 14, 15, 16, 17, 18, 7, 10};
Volume(1) = {1};
Surface Loop(2) = {7, 8, 9};
Volume(2) = {2};
Surface Loop(3) = {10, 11, 12};
Volume(3) = {3};
Physical Surface("WALLS") = {13, 18};
Physical Surface("LOAD") = {8, 11};
Physical Surface("BORDER") = {7, 9, 10, 12, 14, 15, 16, 17};
Physical Volume("SOLID") = {1, 2, 3};
