cl__1 = 0.08429;
cl__2 = 0.092206;
cl__3 = 0.698278;
cl__4 = 1.654573;
cl__5 = 2.03197;
cl__6 = 0.852367;
Point(9) = {5.920588, -1.551245, 0.1, cl__1};
Point(10) = {5.920588, -1.551245, 0, cl__1};
Point(11) = {29.6907, 2.908315, 0.1, cl__2};
Point(12) = {29.6907, 2.908315, 0, cl__2};
Point(13) = {0.421007, -3.329318, 0.1, cl__3};
Point(14) = {0.421007, -3.329318, 0, cl__3};
Point(15) = {0.421007, 4.778563, 0.1, cl__4};
Point(16) = {0.421007, 4.778563, 0, cl__4};
Point(17) = {34.446243, -3.329318, 0, cl__5};
Point(18) = {34.446243, -3.329318, 0.1, cl__5};
Point(19) = {34.446243, 4.778563, 0.1, cl__6};
Point(20) = {34.446243, 4.778563, 0, cl__6};
p13 = newp;
Point(p13 + 1) = {5.910210502287642, -1.419386389417589, 0.1};
Point(p13 + 2) = {5.879333537585185, -1.290774575441357, 0.1};
Point(p13 + 3) = {5.828717399238376, -1.168576407769536, 0.1};
Point(p13 + 4) = {5.759608424558643, -1.055800810842674, 0.1};
Point(p13 + 5) = {5.673708305862141, -0.9552246941378592, 0.1};
Point(p13 + 6) = {5.573132189157326, -0.8693245754413569, 0.1};
Point(p13 + 7) = {5.460356592230465, -0.8002156007616248, 0.1};
Point(p13 + 8) = {5.338158424558643, -0.7495994624148151, 0.1};
Point(p13 + 9) = {5.209546610582411, -0.7187224977123584, 0.1};
Point(p13 + 10) = {5.077688, -0.708345, 0.1};
Point(p13 + 11) = {4.94582938941759, -0.7187224977123585, 0.1};
Point(p13 + 12) = {4.817217575441357, -0.749599462414815, 0.1};
Point(p13 + 13) = {4.695019407769537, -0.8002156007616247, 0.1};
Point(p13 + 14) = {4.582243810842675, -0.8693245754413568, 0.1};
Point(p13 + 15) = {4.481667694137859, -0.955224694137859, 0.1};
Point(p13 + 16) = {4.395767575441357, -1.055800810842674, 0.1};
Point(p13 + 17) = {4.326658600761625, -1.168576407769536, 0.1};
Point(p13 + 18) = {4.276042462414815, -1.290774575441357, 0.1};
Point(p13 + 19) = {4.245165497712359, -1.419386389417589, 0.1};
Point(p13 + 20) = {4.234788, -1.551245, 0.1};
Point(p13 + 21) = {4.245165497712359, -1.68310361058241, 0.1};
Point(p13 + 22) = {4.276042462414815, -1.811715424558643, 0.1};
Point(p13 + 23) = {4.326658600761625, -1.933913592230464, 0.1};
Point(p13 + 24) = {4.395767575441357, -2.046689189157326, 0.1};
Point(p13 + 25) = {4.481667694137859, -2.147265305862141, 0.1};
Point(p13 + 26) = {4.582243810842675, -2.233165424558643, 0.1};
Point(p13 + 27) = {4.695019407769536, -2.302274399238375, 0.1};
Point(p13 + 28) = {4.817217575441357, -2.352890537585185, 0.1};
Point(p13 + 29) = {4.94582938941759, -2.383767502287641, 0.1};
Point(p13 + 30) = {5.077688, -2.394145, 0.1};
Point(p13 + 31) = {5.209546610582411, -2.383767502287641, 0.1};
Point(p13 + 32) = {5.338158424558643, -2.352890537585185, 0.1};
Point(p13 + 33) = {5.460356592230464, -2.302274399238375, 0.1};
Point(p13 + 34) = {5.573132189157326, -2.233165424558643, 0.1};
Point(p13 + 35) = {5.673708305862141, -2.147265305862141, 0.1};
Point(p13 + 36) = {5.759608424558643, -2.046689189157326, 0.1};
Point(p13 + 37) = {5.828717399238375, -1.933913592230464, 0.1};
Point(p13 + 38) = {5.879333537585185, -1.811715424558643, 0.1};
Point(p13 + 39) = {5.910210502287642, -1.683103610582411, 0.1};
Spline(13) = {9, p13 + 1, p13 + 2, p13 + 3, p13 + 4, p13 + 5, p13 + 6, p13 + 7, p13 + 8, p13 + 9, p13 + 10, p13 + 11, p13 + 12, p13 + 13, p13 + 14, p13 + 15, p13 + 16, p13 + 17, p13 + 18, p13 + 19, p13 + 20, p13 + 21, p13 + 22, p13 + 23, p13 + 24, p13 + 25, p13 + 26, p13 + 27, p13 + 28, p13 + 29, p13 + 30, p13 + 31, p13 + 32, p13 + 33, p13 + 34, p13 + 35, p13 + 36, p13 + 37, p13 + 38, p13 + 39, 9};
Line(14) = {10, 9};
p15 = newp;
Point(p15 + 1) = {5.910210502287642, -1.419386389417589, 0};
Point(p15 + 2) = {5.879333537585185, -1.290774575441357, 0};
Point(p15 + 3) = {5.828717399238376, -1.168576407769536, 0};
Point(p15 + 4) = {5.759608424558643, -1.055800810842674, 0};
Point(p15 + 5) = {5.673708305862141, -0.9552246941378592, 0};
Point(p15 + 6) = {5.573132189157326, -0.8693245754413569, 0};
Point(p15 + 7) = {5.460356592230465, -0.8002156007616248, 0};
Point(p15 + 8) = {5.338158424558643, -0.7495994624148151, 0};
Point(p15 + 9) = {5.209546610582411, -0.7187224977123584, 0};
Point(p15 + 10) = {5.077688, -0.708345, 0};
Point(p15 + 11) = {4.94582938941759, -0.7187224977123585, 0};
Point(p15 + 12) = {4.817217575441357, -0.749599462414815, 0};
Point(p15 + 13) = {4.695019407769537, -0.8002156007616247, 0};
Point(p15 + 14) = {4.582243810842675, -0.8693245754413568, 0};
Point(p15 + 15) = {4.481667694137859, -0.955224694137859, 0};
Point(p15 + 16) = {4.395767575441357, -1.055800810842674, 0};
Point(p15 + 17) = {4.326658600761625, -1.168576407769536, 0};
Point(p15 + 18) = {4.276042462414815, -1.290774575441357, 0};
Point(p15 + 19) = {4.245165497712359, -1.419386389417589, 0};
Point(p15 + 20) = {4.234788, -1.551245, 0};
Point(p15 + 21) = {4.245165497712359, -1.68310361058241, 0};
Point(p15 + 22) = {4.276042462414815, -1.811715424558643, 0};
Point(p15 + 23) = {4.326658600761625, -1.933913592230464, 0};
Point(p15 + 24) = {4.395767575441357, -2.046689189157326, 0};
Point(p15 + 25) = {4.481667694137859, -2.147265305862141, 0};
Point(p15 + 26) = {4.582243810842675, -2.233165424558643, 0};
Point(p15 + 27) = {4.695019407769536, -2.302274399238375, 0};
Point(p15 + 28) = {4.817217575441357, -2.352890537585185, 0};
Point(p15 + 29) = {4.94582938941759, -2.383767502287641, 0};
Point(p15 + 30) = {5.077688, -2.394145, 0};
Point(p15 + 31) = {5.209546610582411, -2.383767502287641, 0};
Point(p15 + 32) = {5.338158424558643, -2.352890537585185, 0};
Point(p15 + 33) = {5.460356592230464, -2.302274399238375, 0};
Point(p15 + 34) = {5.573132189157326, -2.233165424558643, 0};
Point(p15 + 35) = {5.673708305862141, -2.147265305862141, 0};
Point(p15 + 36) = {5.759608424558643, -2.046689189157326, 0};
Point(p15 + 37) = {5.828717399238375, -1.933913592230464, 0};
Point(p15 + 38) = {5.879333537585185, -1.811715424558643, 0};
Point(p15 + 39) = {5.910210502287642, -1.683103610582411, 0};
Spline(15) = {10, p15 + 1, p15 + 2, p15 + 3, p15 + 4, p15 + 5, p15 + 6, p15 + 7, p15 + 8, p15 + 9, p15 + 10, p15 + 11, p15 + 12, p15 + 13, p15 + 14, p15 + 15, p15 + 16, p15 + 17, p15 + 18, p15 + 19, p15 + 20, p15 + 21, p15 + 22, p15 + 23, p15 + 24, p15 + 25, p15 + 26, p15 + 27, p15 + 28, p15 + 29, p15 + 30, p15 + 31, p15 + 32, p15 + 33, p15 + 34, p15 + 35, p15 + 36, p15 + 37, p15 + 38, p15 + 39, 10};
p16 = newp;
Point(p16 + 1) = {29.67934789901749, 3.05255711926946, 0.1};
Point(p16 + 2) = {29.64557112247163, 3.193247518850358, 0.1};
Point(p16 + 3) = {29.59020136669965, 3.326921934180346, 0.1};
Point(p16 + 4) = {29.51460201885036, 3.45028885751405, 0.1};
Point(p16 + 5) = {29.42063458576765, 3.560310585767649, 0.1};
Point(p16 + 6) = {29.31061285751405, 3.654278018850358, 0.1};
Point(p16 + 7) = {29.18724593418035, 3.729877366699651, 0.1};
Point(p16 + 8) = {29.05357151885036, 3.785247122471626, 0.1};
Point(p16 + 9) = {28.91288111926946, 3.819023899017493, 0.1};
Point(p16 + 10) = {28.768639, 3.830376, 0.1};
Point(p16 + 11) = {28.62439688073054, 3.819023899017493, 0.1};
Point(p16 + 12) = {28.48370648114964, 3.785247122471626, 0.1};
Point(p16 + 13) = {28.35003206581965, 3.729877366699651, 0.1};
Point(p16 + 14) = {28.22666514248595, 3.654278018850358, 0.1};
Point(p16 + 15) = {28.11664341423235, 3.560310585767649, 0.1};
Point(p16 + 16) = {28.02267598114964, 3.45028885751405, 0.1};
Point(p16 + 17) = {27.94707663330035, 3.326921934180346, 0.1};
Point(p16 + 18) = {27.89170687752837, 3.193247518850359, 0.1};
Point(p16 + 19) = {27.85793010098251, 3.05255711926946, 0.1};
Point(p16 + 20) = {27.846578, 2.908315, 0.1};
Point(p16 + 21) = {27.85793010098251, 2.76407288073054, 0.1};
Point(p16 + 22) = {27.89170687752837, 2.623382481149641, 0.1};
Point(p16 + 23) = {27.94707663330035, 2.489708065819654, 0.1};
Point(p16 + 24) = {28.02267598114964, 2.36634114248595, 0.1};
Point(p16 + 25) = {28.11664341423235, 2.256319414232351, 0.1};
Point(p16 + 26) = {28.22666514248595, 2.162351981149642, 0.1};
Point(p16 + 27) = {28.35003206581965, 2.086752633300349, 0.1};
Point(p16 + 28) = {28.48370648114964, 2.031382877528374, 0.1};
Point(p16 + 29) = {28.62439688073054, 1.997606100982507, 0.1};
Point(p16 + 30) = {28.768639, 1.986254, 0.1};
Point(p16 + 31) = {28.91288111926946, 1.997606100982507, 0.1};
Point(p16 + 32) = {29.05357151885036, 2.031382877528374, 0.1};
Point(p16 + 33) = {29.18724593418035, 2.086752633300349, 0.1};
Point(p16 + 34) = {29.31061285751405, 2.162351981149642, 0.1};
Point(p16 + 35) = {29.42063458576765, 2.256319414232351, 0.1};
Point(p16 + 36) = {29.51460201885036, 2.36634114248595, 0.1};
Point(p16 + 37) = {29.59020136669965, 2.489708065819654, 0.1};
Point(p16 + 38) = {29.64557112247163, 2.623382481149641, 0.1};
Point(p16 + 39) = {29.67934789901749, 2.764072880730539, 0.1};
Spline(16) = {11, p16 + 1, p16 + 2, p16 + 3, p16 + 4, p16 + 5, p16 + 6, p16 + 7, p16 + 8, p16 + 9, p16 + 10, p16 + 11, p16 + 12, p16 + 13, p16 + 14, p16 + 15, p16 + 16, p16 + 17, p16 + 18, p16 + 19, p16 + 20, p16 + 21, p16 + 22, p16 + 23, p16 + 24, p16 + 25, p16 + 26, p16 + 27, p16 + 28, p16 + 29, p16 + 30, p16 + 31, p16 + 32, p16 + 33, p16 + 34, p16 + 35, p16 + 36, p16 + 37, p16 + 38, p16 + 39, 11};
Line(17) = {12, 11};
p18 = newp;
Point(p18 + 1) = {29.67934789901749, 3.05255711926946, 0};
Point(p18 + 2) = {29.64557112247163, 3.193247518850358, 0};
Point(p18 + 3) = {29.59020136669965, 3.326921934180346, 0};
Point(p18 + 4) = {29.51460201885036, 3.45028885751405, 0};
Point(p18 + 5) = {29.42063458576765, 3.560310585767649, 0};
Point(p18 + 6) = {29.31061285751405, 3.654278018850358, 0};
Point(p18 + 7) = {29.18724593418035, 3.729877366699651, 0};
Point(p18 + 8) = {29.05357151885036, 3.785247122471626, 0};
Point(p18 + 9) = {28.91288111926946, 3.819023899017493, 0};
Point(p18 + 10) = {28.768639, 3.830376, 0};
Point(p18 + 11) = {28.62439688073054, 3.819023899017493, 0};
Point(p18 + 12) = {28.48370648114964, 3.785247122471626, 0};
Point(p18 + 13) = {28.35003206581965, 3.729877366699651, 0};
Point(p18 + 14) = {28.22666514248595, 3.654278018850358, 0};
Point(p18 + 15) = {28.11664341423235, 3.560310585767649, 0};
Point(p18 + 16) = {28.02267598114964, 3.45028885751405, 0};
Point(p18 + 17) = {27.94707663330035, 3.326921934180346, 0};
Point(p18 + 18) = {27.89170687752837, 3.193247518850359, 0};
Point(p18 + 19) = {27.85793010098251, 3.05255711926946, 0};
Point(p18 + 20) = {27.846578, 2.908315, 0};
Point(p18 + 21) = {27.85793010098251, 2.76407288073054, 0};
Point(p18 + 22) = {27.89170687752837, 2.623382481149641, 0};
Point(p18 + 23) = {27.94707663330035, 2.489708065819654, 0};
Point(p18 + 24) = {28.02267598114964, 2.36634114248595, 0};
Point(p18 + 25) = {28.11664341423235, 2.256319414232351, 0};
Point(p18 + 26) = {28.22666514248595, 2.162351981149642, 0};
Point(p18 + 27) = {28.35003206581965, 2.086752633300349, 0};
Point(p18 + 28) = {28.48370648114964, 2.031382877528374, 0};
Point(p18 + 29) = {28.62439688073054, 1.997606100982507, 0};
Point(p18 + 30) = {28.768639, 1.986254, 0};
Point(p18 + 31) = {28.91288111926946, 1.997606100982507, 0};
Point(p18 + 32) = {29.05357151885036, 2.031382877528374, 0};
Point(p18 + 33) = {29.18724593418035, 2.086752633300349, 0};
Point(p18 + 34) = {29.31061285751405, 2.162351981149642, 0};
Point(p18 + 35) = {29.42063458576765, 2.256319414232351, 0};
Point(p18 + 36) = {29.51460201885036, 2.36634114248595, 0};
Point(p18 + 37) = {29.59020136669965, 2.489708065819654, 0};
Point(p18 + 38) = {29.64557112247163, 2.623382481149641, 0};
Point(p18 + 39) = {29.67934789901749, 2.764072880730539, 0};
Spline(18) = {12, p18 + 1, p18 + 2, p18 + 3, p18 + 4, p18 + 5, p18 + 6, p18 + 7, p18 + 8, p18 + 9, p18 + 10, p18 + 11, p18 + 12, p18 + 13, p18 + 14, p18 + 15, p18 + 16, p18 + 17, p18 + 18, p18 + 19, p18 + 20, p18 + 21, p18 + 22, p18 + 23, p18 + 24, p18 + 25, p18 + 26, p18 + 27, p18 + 28, p18 + 29, p18 + 30, p18 + 31, p18 + 32, p18 + 33, p18 + 34, p18 + 35, p18 + 36, p18 + 37, p18 + 38, p18 + 39, 12};
Line(19) = {14, 13};
Line(20) = {13, 15};
Line(21) = {16, 15};
Line(22) = {14, 16};
Line(23) = {14, 17};
Line(24) = {17, 18};
Line(25) = {13, 18};
Line(26) = {15, 19};
Line(27) = {18, 19};
Line(28) = {16, 20};
Line(29) = {20, 19};
Line(30) = {17, 20};
Curve Loop(7) = {-13, -14, 15, 14};
Surface(7) = {7};
Curve Loop(8) = {13};
Plane Surface(8) = {8};
Curve Loop(9) = {15};
Plane Surface(9) = {9};
Curve Loop(10) = {-16, -17, 18, 17};
Surface(10) = {10};
Curve Loop(11) = {16};
Plane Surface(11) = {11};
Curve Loop(12) = {18};
Plane Surface(12) = {12};
Curve Loop(13) = {-19, 22, 21, -20};
Plane Surface(13) = {13};
Curve Loop(14) = {-23, 19, 25, -24};
Plane Surface(14) = {14};
Curve Loop(15) = {-20, 25, 27, -26, -13, -16};
Plane Surface(15) = {15};
Curve Loop(16) = {-28, 21, 26, -29};
Plane Surface(16) = {16};
Curve Loop(17) = {-22, 23, 30, -28, -15, -18};
Plane Surface(17) = {17};
Curve Loop(18) = {-24, 30, 29, -27};
Plane Surface(18) = {18};
Surface Loop(1) = {13, 14, 15, 16, 17, 18, 7, 10};
Volume(1) = {1};
Surface Loop(2) = {7, 8, 9};
Volume(2) = {2};
Surface Loop(3) = {10, 11, 12};
Volume(3) = {3};
Physical Surface("WALLS") = {13, 18};
Physical Surface("LOAD") = {8, 11};
Physical Surface("BORDER") = {7, 9, 10, 12, 14, 15, 16, 17};
Physical Volume("SOLID") = {1, 2, 3};
