cl__1 = 0.081806;
cl__2 = 0.065541;
cl__3 = 3.391041;
cl__4 = 3.052653;
cl__5 = 0.542741;
cl__6 = 0.504248;
Point(9) = {24.047174, 2.236333, 0.1, cl__1};
Point(10) = {24.047174, 2.236333, 0, cl__1};
Point(11) = {26.510392, 0.8048989999999999, 0.1, cl__2};
Point(12) = {26.510392, 0.8048989999999999, 0, cl__2};
Point(13) = {0.236772, -4.49003, 0.1, cl__3};
Point(14) = {0.236772, -4.49003, 0, cl__3};
Point(15) = {0.236772, 5.012011999999999, 0.1, cl__4};
Point(16) = {0.236772, 5.012011999999999, 0, cl__4};
Point(17) = {33.150089, -4.49003, 0, cl__5};
Point(18) = {33.150089, -4.49003, 0.1, cl__5};
Point(19) = {33.150089, 5.012011999999999, 0.1, cl__6};
Point(20) = {33.150089, 5.012011999999999, 0, cl__6};
p13 = newp;
Point(p13 + 1) = {24.03710234853058, 2.364305465601881, 0.1};
Point(p13 + 2) = {24.00713539160738, 2.489126824384381, 0.1};
Point(p13 + 3) = {23.95801101516449, 2.607723560235934, 0.1};
Point(p13 + 4) = {23.89093882438438, 2.717175427919876, 0.1};
Point(p13 + 5) = {23.80757035920391, 2.814787359203905, 0.1};
Point(p13 + 6) = {23.70995842791988, 2.898155824384381, 0.1};
Point(p13 + 7) = {23.60050656023594, 2.965228015164488, 0.1};
Point(p13 + 8) = {23.48190982438438, 3.014352391607381, 0.1};
Point(p13 + 9) = {23.35708846560188, 3.044319348530578, 0.1};
Point(p13 + 10) = {23.229116, 3.054391, 0.1};
Point(p13 + 11) = {23.10114353439812, 3.044319348530577, 0.1};
Point(p13 + 12) = {22.97632217561562, 3.014352391607381, 0.1};
Point(p13 + 13) = {22.85772543976407, 2.965228015164488, 0.1};
Point(p13 + 14) = {22.74827357208013, 2.898155824384381, 0.1};
Point(p13 + 15) = {22.65066164079609, 2.814787359203905, 0.1};
Point(p13 + 16) = {22.56729317561562, 2.717175427919876, 0.1};
Point(p13 + 17) = {22.50022098483552, 2.607723560235934, 0.1};
Point(p13 + 18) = {22.45109660839262, 2.489126824384381, 0.1};
Point(p13 + 19) = {22.42112965146942, 2.364305465601881, 0.1};
Point(p13 + 20) = {22.411058, 2.236333, 0.1};
Point(p13 + 21) = {22.42112965146942, 2.108360534398119, 0.1};
Point(p13 + 22) = {22.45109660839262, 1.983539175615619, 0.1};
Point(p13 + 23) = {22.50022098483552, 1.864942439764066, 0.1};
Point(p13 + 24) = {22.56729317561562, 1.755490572080124, 0.1};
Point(p13 + 25) = {22.65066164079609, 1.657878640796095, 0.1};
Point(p13 + 26) = {22.74827357208013, 1.574510175615619, 0.1};
Point(p13 + 27) = {22.85772543976407, 1.507437984835512, 0.1};
Point(p13 + 28) = {22.97632217561562, 1.458313608392619, 0.1};
Point(p13 + 29) = {23.10114353439812, 1.428346651469423, 0.1};
Point(p13 + 30) = {23.229116, 1.418275, 0.1};
Point(p13 + 31) = {23.35708846560188, 1.428346651469423, 0.1};
Point(p13 + 32) = {23.48190982438438, 1.458313608392619, 0.1};
Point(p13 + 33) = {23.60050656023594, 1.507437984835512, 0.1};
Point(p13 + 34) = {23.70995842791988, 1.574510175615619, 0.1};
Point(p13 + 35) = {23.80757035920391, 1.657878640796095, 0.1};
Point(p13 + 36) = {23.89093882438438, 1.755490572080124, 0.1};
Point(p13 + 37) = {23.95801101516449, 1.864942439764066, 0.1};
Point(p13 + 38) = {24.00713539160738, 1.983539175615619, 0.1};
Point(p13 + 39) = {24.03710234853058, 2.108360534398119, 0.1};
Spline(13) = {9, p13 + 1, p13 + 2, p13 + 3, p13 + 4, p13 + 5, p13 + 6, p13 + 7, p13 + 8, p13 + 9, p13 + 10, p13 + 11, p13 + 12, p13 + 13, p13 + 14, p13 + 15, p13 + 16, p13 + 17, p13 + 18, p13 + 19, p13 + 20, p13 + 21, p13 + 22, p13 + 23, p13 + 24, p13 + 25, p13 + 26, p13 + 27, p13 + 28, p13 + 29, p13 + 30, p13 + 31, p13 + 32, p13 + 33, p13 + 34, p13 + 35, p13 + 36, p13 + 37, p13 + 38, p13 + 39, 9};
Line(14) = {10, 9};
p15 = newp;
Point(p15 + 1) = {24.03710234853058, 2.364305465601881, 0};
Point(p15 + 2) = {24.00713539160738, 2.489126824384381, 0};
Point(p15 + 3) = {23.95801101516449, 2.607723560235934, 0};
Point(p15 + 4) = {23.89093882438438, 2.717175427919876, 0};
Point(p15 + 5) = {23.80757035920391, 2.814787359203905, 0};
Point(p15 + 6) = {23.70995842791988, 2.898155824384381, 0};
Point(p15 + 7) = {23.60050656023594, 2.965228015164488, 0};
Point(p15 + 8) = {23.48190982438438, 3.014352391607381, 0};
Point(p15 + 9) = {23.35708846560188, 3.044319348530578, 0};
Point(p15 + 10) = {23.229116, 3.054391, 0};
Point(p15 + 11) = {23.10114353439812, 3.044319348530577, 0};
Point(p15 + 12) = {22.97632217561562, 3.014352391607381, 0};
Point(p15 + 13) = {22.85772543976407, 2.965228015164488, 0};
Point(p15 + 14) = {22.74827357208013, 2.898155824384381, 0};
Point(p15 + 15) = {22.65066164079609, 2.814787359203905, 0};
Point(p15 + 16) = {22.56729317561562, 2.717175427919876, 0};
Point(p15 + 17) = {22.50022098483552, 2.607723560235934, 0};
Point(p15 + 18) = {22.45109660839262, 2.489126824384381, 0};
Point(p15 + 19) = {22.42112965146942, 2.364305465601881, 0};
Point(p15 + 20) = {22.411058, 2.236333, 0};
Point(p15 + 21) = {22.42112965146942, 2.108360534398119, 0};
Point(p15 + 22) = {22.45109660839262, 1.983539175615619, 0};
Point(p15 + 23) = {22.50022098483552, 1.864942439764066, 0};
Point(p15 + 24) = {22.56729317561562, 1.755490572080124, 0};
Point(p15 + 25) = {22.65066164079609, 1.657878640796095, 0};
Point(p15 + 26) = {22.74827357208013, 1.574510175615619, 0};
Point(p15 + 27) = {22.85772543976407, 1.507437984835512, 0};
Point(p15 + 28) = {22.97632217561562, 1.458313608392619, 0};
Point(p15 + 29) = {23.10114353439812, 1.428346651469423, 0};
Point(p15 + 30) = {23.229116, 1.418275, 0};
Point(p15 + 31) = {23.35708846560188, 1.428346651469423, 0};
Point(p15 + 32) = {23.48190982438438, 1.458313608392619, 0};
Point(p15 + 33) = {23.60050656023594, 1.507437984835512, 0};
Point(p15 + 34) = {23.70995842791988, 1.574510175615619, 0};
Point(p15 + 35) = {23.80757035920391, 1.657878640796095, 0};
Point(p15 + 36) = {23.89093882438438, 1.755490572080124, 0};
Point(p15 + 37) = {23.95801101516449, 1.864942439764066, 0};
Point(p15 + 38) = {24.00713539160738, 1.983539175615619, 0};
Point(p15 + 39) = {24.03710234853058, 2.108360534398119, 0};
Spline(15) = {10, p15 + 1, p15 + 2, p15 + 3, p15 + 4, p15 + 5, p15 + 6, p15 + 7, p15 + 8, p15 + 9, p15 + 10, p15 + 11, p15 + 12, p15 + 13, p15 + 14, p15 + 15, p15 + 16, p15 + 17, p15 + 18, p15 + 19, p15 + 20, p15 + 21, p15 + 22, p15 + 23, p15 + 24, p15 + 25, p15 + 26, p15 + 27, p15 + 28, p15 + 29, p15 + 30, p15 + 31, p15 + 32, p15 + 33, p15 + 34, p15 + 35, p15 + 36, p15 + 37, p15 + 38, p15 + 39, 10};
p16 = newp;
Point(p16 + 1) = {26.5023228029978, 0.9074278691664828, 0.1};
Point(p16 + 2) = {26.47831390240152, 1.007432137300279, 0.1};
Point(p16 + 3) = {26.43895647702482, 1.102449367424796, 0.1};
Point(p16 + 4) = {26.38521963730028, 1.190139919990262, 0.1};
Point(p16 + 5) = {26.31842656256426, 1.268344562564256, 0.1};
Point(p16 + 6) = {26.24022191999026, 1.335137637300279, 0.1};
Point(p16 + 7) = {26.1525313674248, 1.388874477024822, 0.1};
Point(p16 + 8) = {26.05751413730028, 1.428231902401523, 0.1};
Point(p16 + 9) = {25.95750986916648, 1.4522408029978, 0.1};
Point(p16 + 10) = {25.854981, 1.46031, 0.1};
Point(p16 + 11) = {25.75245213083351, 1.4522408029978, 0.1};
Point(p16 + 12) = {25.65244786269972, 1.428231902401523, 0.1};
Point(p16 + 13) = {25.5574306325752, 1.388874477024822, 0.1};
Point(p16 + 14) = {25.46974008000974, 1.335137637300279, 0.1};
Point(p16 + 15) = {25.39153543743574, 1.268344562564256, 0.1};
Point(p16 + 16) = {25.32474236269972, 1.190139919990262, 0.1};
Point(p16 + 17) = {25.27100552297518, 1.102449367424796, 0.1};
Point(p16 + 18) = {25.23164809759848, 1.007432137300279, 0.1};
Point(p16 + 19) = {25.2076391970022, 0.9074278691664829, 0.1};
Point(p16 + 20) = {25.19957, 0.8048990000000001, 0.1};
Point(p16 + 21) = {25.2076391970022, 0.7023701308335174, 0.1};
Point(p16 + 22) = {25.23164809759848, 0.6023658626997211, 0.1};
Point(p16 + 23) = {25.27100552297518, 0.5073486325752042, 0.1};
Point(p16 + 24) = {25.32474236269972, 0.419658080009738, 0.1};
Point(p16 + 25) = {25.39153543743574, 0.3414534374357438, 0.1};
Point(p16 + 26) = {25.46974008000974, 0.2746603626997215, 0.1};
Point(p16 + 27) = {25.5574306325752, 0.2209235229751777, 0.1};
Point(p16 + 28) = {25.65244786269972, 0.1815660975984772, 0.1};
Point(p16 + 29) = {25.75245213083351, 0.1575571970022003, 0.1};
Point(p16 + 30) = {25.854981, 0.1494880000000001, 0.1};
Point(p16 + 31) = {25.95750986916648, 0.1575571970022003, 0.1};
Point(p16 + 32) = {26.05751413730028, 0.1815660975984771, 0.1};
Point(p16 + 33) = {26.1525313674248, 0.2209235229751776, 0.1};
Point(p16 + 34) = {26.24022191999026, 0.2746603626997213, 0.1};
Point(p16 + 35) = {26.31842656256426, 0.3414534374357436, 0.1};
Point(p16 + 36) = {26.38521963730028, 0.4196580800097379, 0.1};
Point(p16 + 37) = {26.43895647702482, 0.5073486325752039, 0.1};
Point(p16 + 38) = {26.47831390240152, 0.6023658626997213, 0.1};
Point(p16 + 39) = {26.5023228029978, 0.7023701308335171, 0.1};
Spline(16) = {11, p16 + 1, p16 + 2, p16 + 3, p16 + 4, p16 + 5, p16 + 6, p16 + 7, p16 + 8, p16 + 9, p16 + 10, p16 + 11, p16 + 12, p16 + 13, p16 + 14, p16 + 15, p16 + 16, p16 + 17, p16 + 18, p16 + 19, p16 + 20, p16 + 21, p16 + 22, p16 + 23, p16 + 24, p16 + 25, p16 + 26, p16 + 27, p16 + 28, p16 + 29, p16 + 30, p16 + 31, p16 + 32, p16 + 33, p16 + 34, p16 + 35, p16 + 36, p16 + 37, p16 + 38, p16 + 39, 11};
Line(17) = {12, 11};
p18 = newp;
Point(p18 + 1) = {26.5023228029978, 0.9074278691664828, 0};
Point(p18 + 2) = {26.47831390240152, 1.007432137300279, 0};
Point(p18 + 3) = {26.43895647702482, 1.102449367424796, 0};
Point(p18 + 4) = {26.38521963730028, 1.190139919990262, 0};
Point(p18 + 5) = {26.31842656256426, 1.268344562564256, 0};
Point(p18 + 6) = {26.24022191999026, 1.335137637300279, 0};
Point(p18 + 7) = {26.1525313674248, 1.388874477024822, 0};
Point(p18 + 8) = {26.05751413730028, 1.428231902401523, 0};
Point(p18 + 9) = {25.95750986916648, 1.4522408029978, 0};
Point(p18 + 10) = {25.854981, 1.46031, 0};
Point(p18 + 11) = {25.75245213083351, 1.4522408029978, 0};
Point(p18 + 12) = {25.65244786269972, 1.428231902401523, 0};
Point(p18 + 13) = {25.5574306325752, 1.388874477024822, 0};
Point(p18 + 14) = {25.46974008000974, 1.335137637300279, 0};
Point(p18 + 15) = {25.39153543743574, 1.268344562564256, 0};
Point(p18 + 16) = {25.32474236269972, 1.190139919990262, 0};
Point(p18 + 17) = {25.27100552297518, 1.102449367424796, 0};
Point(p18 + 18) = {25.23164809759848, 1.007432137300279, 0};
Point(p18 + 19) = {25.2076391970022, 0.9074278691664829, 0};
Point(p18 + 20) = {25.19957, 0.8048990000000001, 0};
Point(p18 + 21) = {25.2076391970022, 0.7023701308335174, 0};
Point(p18 + 22) = {25.23164809759848, 0.6023658626997211, 0};
Point(p18 + 23) = {25.27100552297518, 0.5073486325752042, 0};
Point(p18 + 24) = {25.32474236269972, 0.419658080009738, 0};
Point(p18 + 25) = {25.39153543743574, 0.3414534374357438, 0};
Point(p18 + 26) = {25.46974008000974, 0.2746603626997215, 0};
Point(p18 + 27) = {25.5574306325752, 0.2209235229751777, 0};
Point(p18 + 28) = {25.65244786269972, 0.1815660975984772, 0};
Point(p18 + 29) = {25.75245213083351, 0.1575571970022003, 0};
Point(p18 + 30) = {25.854981, 0.1494880000000001, 0};
Point(p18 + 31) = {25.95750986916648, 0.1575571970022003, 0};
Point(p18 + 32) = {26.05751413730028, 0.1815660975984771, 0};
Point(p18 + 33) = {26.1525313674248, 0.2209235229751776, 0};
Point(p18 + 34) = {26.24022191999026, 0.2746603626997213, 0};
Point(p18 + 35) = {26.31842656256426, 0.3414534374357436, 0};
Point(p18 + 36) = {26.38521963730028, 0.4196580800097379, 0};
Point(p18 + 37) = {26.43895647702482, 0.5073486325752039, 0};
Point(p18 + 38) = {26.47831390240152, 0.6023658626997213, 0};
Point(p18 + 39) = {26.5023228029978, 0.7023701308335171, 0};
Spline(18) = {12, p18 + 1, p18 + 2, p18 + 3, p18 + 4, p18 + 5, p18 + 6, p18 + 7, p18 + 8, p18 + 9, p18 + 10, p18 + 11, p18 + 12, p18 + 13, p18 + 14, p18 + 15, p18 + 16, p18 + 17, p18 + 18, p18 + 19, p18 + 20, p18 + 21, p18 + 22, p18 + 23, p18 + 24, p18 + 25, p18 + 26, p18 + 27, p18 + 28, p18 + 29, p18 + 30, p18 + 31, p18 + 32, p18 + 33, p18 + 34, p18 + 35, p18 + 36, p18 + 37, p18 + 38, p18 + 39, 12};
Line(19) = {14, 13};
Line(20) = {13, 15};
Line(21) = {16, 15};
Line(22) = {14, 16};
Line(23) = {14, 17};
Line(24) = {17, 18};
Line(25) = {13, 18};
Line(26) = {15, 19};
Line(27) = {18, 19};
Line(28) = {16, 20};
Line(29) = {20, 19};
Line(30) = {17, 20};
Curve Loop(7) = {-13, -14, 15, 14};
Surface(7) = {7};
Curve Loop(8) = {13};
Plane Surface(8) = {8};
Curve Loop(9) = {15};
Plane Surface(9) = {9};
Curve Loop(10) = {-16, -17, 18, 17};
Surface(10) = {10};
Curve Loop(11) = {16};
Plane Surface(11) = {11};
Curve Loop(12) = {18};
Plane Surface(12) = {12};
Curve Loop(13) = {-19, 22, 21, -20};
Plane Surface(13) = {13};
Curve Loop(14) = {-23, 19, 25, -24};
Plane Surface(14) = {14};
Curve Loop(15) = {-20, 25, 27, -26, -16, -13};
Plane Surface(15) = {15};
Curve Loop(16) = {-28, 21, 26, -29};
Plane Surface(16) = {16};
Curve Loop(17) = {-22, 23, 30, -28, -18, -15};
Plane Surface(17) = {17};
Curve Loop(18) = {-24, 30, 29, -27};
Plane Surface(18) = {18};
Surface Loop(1) = {13, 14, 15, 16, 17, 18, 10, 7};
Volume(1) = {1};
Surface Loop(2) = {7, 8, 9};
Volume(2) = {2};
Surface Loop(3) = {10, 11, 12};
Volume(3) = {3};
Physical Surface("WALLS") = {13, 18};
Physical Surface("LOAD") = {8, 11};
Physical Surface("BORDER") = {7, 9, 10, 12, 14, 15, 16, 17};
Physical Volume("SOLID") = {1, 2, 3};
