cl__1 = 0.144821;
cl__2 = 0.092421;
cl__3 = 0.765503;
cl__4 = 0.89059;
cl__5 = 2.526927;
cl__6 = 0.981843;
Point(9) = {7.945424, 0.1320969999999996, 0.1, cl__1};
Point(10) = {7.945424, 0.1320969999999996, 0, cl__1};
Point(11) = {27.032286, 3.469603, 0.1, cl__2};
Point(12) = {27.032286, 3.469603, 0, cl__2};
Point(13) = {0.911336, -3.931412, 1, cl__3};
Point(14) = {0.911336, -3.931412, 0, cl__3};
Point(15) = {0.911336, 5.57563, 1, cl__4};
Point(16) = {0.911336, 5.57563, 0, cl__4};
Point(17) = {33.74958, -3.931412, 0, cl__5};
Point(18) = {33.74958, -3.931412, 1, cl__5};
Point(19) = {33.74958, 5.57563, 1, cl__6};
Point(20) = {33.74958, 5.57563, 0, cl__6};
p13 = newp;
Point(p13 + 1) = {7.927594107109966, 0.3586472694848428, 0.1};
Point(p13 + 2) = {7.874543459576837, 0.5796191194577314, 0.1};
Point(p13 + 3) = {7.787578340407885, 0.7895714896088085, 0.1};
Point(p13 + 4) = {7.668840119457732, 0.9833346557929872, 0.1};
Point(p13 + 5) = {7.521252525795733, 1.156137525795732, 0.1};
Point(p13 + 6) = {7.348449655792987, 1.303725119457731, 0.1};
Point(p13 + 7) = {7.154686489608808, 1.422463340407884, 0.1};
Point(p13 + 8) = {6.944734119457731, 1.509428459576837, 0.1};
Point(p13 + 9) = {6.723762269484843, 1.562479107109966, 0.1};
Point(p13 + 10) = {6.497212, 1.580309, 0.1};
Point(p13 + 11) = {6.270661730515157, 1.562479107109966, 0.1};
Point(p13 + 12) = {6.049689880542269, 1.509428459576837, 0.1};
Point(p13 + 13) = {5.839737510391192, 1.422463340407885, 0.1};
Point(p13 + 14) = {5.645974344207013, 1.303725119457731, 0.1};
Point(p13 + 15) = {5.473171474204268, 1.156137525795732, 0.1};
Point(p13 + 16) = {5.325583880542268, 0.9833346557929873, 0.1};
Point(p13 + 17) = {5.206845659592116, 0.7895714896088086, 0.1};
Point(p13 + 18) = {5.119880540423163, 0.5796191194577315, 0.1};
Point(p13 + 19) = {5.066829892890034, 0.358647269484843, 0.1};
Point(p13 + 20) = {5.049, 0.1320970000000002, 0.1};
Point(p13 + 21) = {5.066829892890034, -0.09445326948484267, 0.1};
Point(p13 + 22) = {5.119880540423163, -0.3154251194577318, 0.1};
Point(p13 + 23) = {5.206845659592116, -0.5253774896088078, 0.1};
Point(p13 + 24) = {5.325583880542268, -0.7191406557929869, 0.1};
Point(p13 + 25) = {5.473171474204268, -0.8919435257957323, 0.1};
Point(p13 + 26) = {5.645974344207013, -1.039531119457731, 0.1};
Point(p13 + 27) = {5.839737510391192, -1.158269340407885, 0.1};
Point(p13 + 28) = {6.049689880542268, -1.245234459576837, 0.1};
Point(p13 + 29) = {6.270661730515157, -1.298285107109966, 0.1};
Point(p13 + 30) = {6.497212, -1.316115, 0.1};
Point(p13 + 31) = {6.723762269484843, -1.298285107109966, 0.1};
Point(p13 + 32) = {6.944734119457731, -1.245234459576837, 0.1};
Point(p13 + 33) = {7.154686489608808, -1.158269340407885, 0.1};
Point(p13 + 34) = {7.348449655792987, -1.039531119457732, 0.1};
Point(p13 + 35) = {7.521252525795733, -0.8919435257957326, 0.1};
Point(p13 + 36) = {7.668840119457732, -0.7191406557929872, 0.1};
Point(p13 + 37) = {7.787578340407885, -0.5253774896088088, 0.1};
Point(p13 + 38) = {7.874543459576837, -0.3154251194577317, 0.1};
Point(p13 + 39) = {7.927594107109966, -0.0944532694848432, 0.1};
Spline(13) = {9, p13 + 1, p13 + 2, p13 + 3, p13 + 4, p13 + 5, p13 + 6, p13 + 7, p13 + 8, p13 + 9, p13 + 10, p13 + 11, p13 + 12, p13 + 13, p13 + 14, p13 + 15, p13 + 16, p13 + 17, p13 + 18, p13 + 19, p13 + 20, p13 + 21, p13 + 22, p13 + 23, p13 + 24, p13 + 25, p13 + 26, p13 + 27, p13 + 28, p13 + 29, p13 + 30, p13 + 31, p13 + 32, p13 + 33, p13 + 34, p13 + 35, p13 + 36, p13 + 37, p13 + 38, p13 + 39, 9};
Line(14) = {10, 9};
p15 = newp;
Point(p15 + 1) = {7.927594107109966, 0.3586472694848428, 0};
Point(p15 + 2) = {7.874543459576837, 0.5796191194577314, 0};
Point(p15 + 3) = {7.787578340407885, 0.7895714896088085, 0};
Point(p15 + 4) = {7.668840119457732, 0.9833346557929872, 0};
Point(p15 + 5) = {7.521252525795733, 1.156137525795732, 0};
Point(p15 + 6) = {7.348449655792987, 1.303725119457731, 0};
Point(p15 + 7) = {7.154686489608808, 1.422463340407884, 0};
Point(p15 + 8) = {6.944734119457731, 1.509428459576837, 0};
Point(p15 + 9) = {6.723762269484843, 1.562479107109966, 0};
Point(p15 + 10) = {6.497212, 1.580309, 0};
Point(p15 + 11) = {6.270661730515157, 1.562479107109966, 0};
Point(p15 + 12) = {6.049689880542269, 1.509428459576837, 0};
Point(p15 + 13) = {5.839737510391192, 1.422463340407885, 0};
Point(p15 + 14) = {5.645974344207013, 1.303725119457731, 0};
Point(p15 + 15) = {5.473171474204268, 1.156137525795732, 0};
Point(p15 + 16) = {5.325583880542268, 0.9833346557929873, 0};
Point(p15 + 17) = {5.206845659592116, 0.7895714896088086, 0};
Point(p15 + 18) = {5.119880540423163, 0.5796191194577315, 0};
Point(p15 + 19) = {5.066829892890034, 0.358647269484843, 0};
Point(p15 + 20) = {5.049, 0.1320970000000002, 0};
Point(p15 + 21) = {5.066829892890034, -0.09445326948484267, 0};
Point(p15 + 22) = {5.119880540423163, -0.3154251194577318, 0};
Point(p15 + 23) = {5.206845659592116, -0.5253774896088078, 0};
Point(p15 + 24) = {5.325583880542268, -0.7191406557929869, 0};
Point(p15 + 25) = {5.473171474204268, -0.8919435257957323, 0};
Point(p15 + 26) = {5.645974344207013, -1.039531119457731, 0};
Point(p15 + 27) = {5.839737510391192, -1.158269340407885, 0};
Point(p15 + 28) = {6.049689880542268, -1.245234459576837, 0};
Point(p15 + 29) = {6.270661730515157, -1.298285107109966, 0};
Point(p15 + 30) = {6.497212, -1.316115, 0};
Point(p15 + 31) = {6.723762269484843, -1.298285107109966, 0};
Point(p15 + 32) = {6.944734119457731, -1.245234459576837, 0};
Point(p15 + 33) = {7.154686489608808, -1.158269340407885, 0};
Point(p15 + 34) = {7.348449655792987, -1.039531119457732, 0};
Point(p15 + 35) = {7.521252525795733, -0.8919435257957326, 0};
Point(p15 + 36) = {7.668840119457732, -0.7191406557929872, 0};
Point(p15 + 37) = {7.787578340407885, -0.5253774896088088, 0};
Point(p15 + 38) = {7.874543459576837, -0.3154251194577317, 0};
Point(p15 + 39) = {7.927594107109966, -0.0944532694848432, 0};
Spline(15) = {10, p15 + 1, p15 + 2, p15 + 3, p15 + 4, p15 + 5, p15 + 6, p15 + 7, p15 + 8, p15 + 9, p15 + 10, p15 + 11, p15 + 12, p15 + 13, p15 + 14, p15 + 15, p15 + 16, p15 + 17, p15 + 18, p15 + 19, p15 + 20, p15 + 21, p15 + 22, p15 + 23, p15 + 24, p15 + 25, p15 + 26, p15 + 27, p15 + 28, p15 + 29, p15 + 30, p15 + 31, p15 + 32, p15 + 33, p15 + 34, p15 + 35, p15 + 36, p15 + 37, p15 + 38, p15 + 39, 10};
p16 = newp;
Point(p16 + 1) = {27.02090745357309, 3.614181140500367, 0.1};
Point(p16 + 2) = {26.98705199186863, 3.755199287354276, 0.1};
Point(p16 + 3) = {26.93155324871361, 3.889185105773787, 0.1};
Point(p16 + 4) = {26.85577778735428, 4.012839420235975, 0.1};
Point(p16 + 5) = {26.76159145113364, 4.123117451133638, 0.1};
Point(p16 + 6) = {26.65131342023598, 4.217303787354276, 0.1};
Point(p16 + 7) = {26.52765910577379, 4.293079248713608, 0.1};
Point(p16 + 8) = {26.39367328735428, 4.348577991868628, 0.1};
Point(p16 + 9) = {26.25265514050037, 4.382433453573092, 0.1};
Point(p16 + 10) = {26.108077, 4.393812, 0.1};
Point(p16 + 11) = {25.96349885949963, 4.382433453573092, 0.1};
Point(p16 + 12) = {25.82248071264572, 4.348577991868628, 0.1};
Point(p16 + 13) = {25.68849489422621, 4.293079248713608, 0.1};
Point(p16 + 14) = {25.56484057976403, 4.217303787354276, 0.1};
Point(p16 + 15) = {25.45456254886636, 4.123117451133638, 0.1};
Point(p16 + 16) = {25.36037621264573, 4.012839420235975, 0.1};
Point(p16 + 17) = {25.28460075128639, 3.889185105773787, 0.1};
Point(p16 + 18) = {25.22910200813137, 3.755199287354276, 0.1};
Point(p16 + 19) = {25.19524654642691, 3.614181140500367, 0.1};
Point(p16 + 20) = {25.183868, 3.469603, 0.1};
Point(p16 + 21) = {25.19524654642691, 3.325024859499634, 0.1};
Point(p16 + 22) = {25.22910200813137, 3.184006712645724, 0.1};
Point(p16 + 23) = {25.28460075128639, 3.050020894226214, 0.1};
Point(p16 + 24) = {25.36037621264573, 2.926366579764026, 0.1};
Point(p16 + 25) = {25.45456254886636, 2.816088548866362, 0.1};
Point(p16 + 26) = {25.56484057976403, 2.721902212645725, 0.1};
Point(p16 + 27) = {25.68849489422621, 2.646126751286393, 0.1};
Point(p16 + 28) = {25.82248071264572, 2.590628008131373, 0.1};
Point(p16 + 29) = {25.96349885949963, 2.556772546426909, 0.1};
Point(p16 + 30) = {26.108077, 2.545394, 0.1};
Point(p16 + 31) = {26.25265514050037, 2.556772546426909, 0.1};
Point(p16 + 32) = {26.39367328735428, 2.590628008131373, 0.1};
Point(p16 + 33) = {26.52765910577379, 2.646126751286393, 0.1};
Point(p16 + 34) = {26.65131342023598, 2.721902212645724, 0.1};
Point(p16 + 35) = {26.76159145113364, 2.816088548866362, 0.1};
Point(p16 + 36) = {26.85577778735428, 2.926366579764026, 0.1};
Point(p16 + 37) = {26.93155324871361, 3.050020894226213, 0.1};
Point(p16 + 38) = {26.98705199186863, 3.184006712645724, 0.1};
Point(p16 + 39) = {27.02090745357309, 3.325024859499633, 0.1};
Spline(16) = {11, p16 + 1, p16 + 2, p16 + 3, p16 + 4, p16 + 5, p16 + 6, p16 + 7, p16 + 8, p16 + 9, p16 + 10, p16 + 11, p16 + 12, p16 + 13, p16 + 14, p16 + 15, p16 + 16, p16 + 17, p16 + 18, p16 + 19, p16 + 20, p16 + 21, p16 + 22, p16 + 23, p16 + 24, p16 + 25, p16 + 26, p16 + 27, p16 + 28, p16 + 29, p16 + 30, p16 + 31, p16 + 32, p16 + 33, p16 + 34, p16 + 35, p16 + 36, p16 + 37, p16 + 38, p16 + 39, 11};
Line(17) = {12, 11};
p18 = newp;
Point(p18 + 1) = {27.02090745357309, 3.614181140500367, 0};
Point(p18 + 2) = {26.98705199186863, 3.755199287354276, 0};
Point(p18 + 3) = {26.93155324871361, 3.889185105773787, 0};
Point(p18 + 4) = {26.85577778735428, 4.012839420235975, 0};
Point(p18 + 5) = {26.76159145113364, 4.123117451133638, 0};
Point(p18 + 6) = {26.65131342023598, 4.217303787354276, 0};
Point(p18 + 7) = {26.52765910577379, 4.293079248713608, 0};
Point(p18 + 8) = {26.39367328735428, 4.348577991868628, 0};
Point(p18 + 9) = {26.25265514050037, 4.382433453573092, 0};
Point(p18 + 10) = {26.108077, 4.393812, 0};
Point(p18 + 11) = {25.96349885949963, 4.382433453573092, 0};
Point(p18 + 12) = {25.82248071264572, 4.348577991868628, 0};
Point(p18 + 13) = {25.68849489422621, 4.293079248713608, 0};
Point(p18 + 14) = {25.56484057976403, 4.217303787354276, 0};
Point(p18 + 15) = {25.45456254886636, 4.123117451133638, 0};
Point(p18 + 16) = {25.36037621264573, 4.012839420235975, 0};
Point(p18 + 17) = {25.28460075128639, 3.889185105773787, 0};
Point(p18 + 18) = {25.22910200813137, 3.755199287354276, 0};
Point(p18 + 19) = {25.19524654642691, 3.614181140500367, 0};
Point(p18 + 20) = {25.183868, 3.469603, 0};
Point(p18 + 21) = {25.19524654642691, 3.325024859499634, 0};
Point(p18 + 22) = {25.22910200813137, 3.184006712645724, 0};
Point(p18 + 23) = {25.28460075128639, 3.050020894226214, 0};
Point(p18 + 24) = {25.36037621264573, 2.926366579764026, 0};
Point(p18 + 25) = {25.45456254886636, 2.816088548866362, 0};
Point(p18 + 26) = {25.56484057976403, 2.721902212645725, 0};
Point(p18 + 27) = {25.68849489422621, 2.646126751286393, 0};
Point(p18 + 28) = {25.82248071264572, 2.590628008131373, 0};
Point(p18 + 29) = {25.96349885949963, 2.556772546426909, 0};
Point(p18 + 30) = {26.108077, 2.545394, 0};
Point(p18 + 31) = {26.25265514050037, 2.556772546426909, 0};
Point(p18 + 32) = {26.39367328735428, 2.590628008131373, 0};
Point(p18 + 33) = {26.52765910577379, 2.646126751286393, 0};
Point(p18 + 34) = {26.65131342023598, 2.721902212645724, 0};
Point(p18 + 35) = {26.76159145113364, 2.816088548866362, 0};
Point(p18 + 36) = {26.85577778735428, 2.926366579764026, 0};
Point(p18 + 37) = {26.93155324871361, 3.050020894226213, 0};
Point(p18 + 38) = {26.98705199186863, 3.184006712645724, 0};
Point(p18 + 39) = {27.02090745357309, 3.325024859499633, 0};
Spline(18) = {12, p18 + 1, p18 + 2, p18 + 3, p18 + 4, p18 + 5, p18 + 6, p18 + 7, p18 + 8, p18 + 9, p18 + 10, p18 + 11, p18 + 12, p18 + 13, p18 + 14, p18 + 15, p18 + 16, p18 + 17, p18 + 18, p18 + 19, p18 + 20, p18 + 21, p18 + 22, p18 + 23, p18 + 24, p18 + 25, p18 + 26, p18 + 27, p18 + 28, p18 + 29, p18 + 30, p18 + 31, p18 + 32, p18 + 33, p18 + 34, p18 + 35, p18 + 36, p18 + 37, p18 + 38, p18 + 39, 12};
Line(19) = {14, 13};
Line(20) = {13, 15};
Line(21) = {16, 15};
Line(22) = {14, 16};
Line(23) = {14, 17};
Line(24) = {17, 18};
Line(25) = {13, 18};
Line(26) = {15, 19};
Line(27) = {18, 19};
Line(28) = {16, 20};
Line(29) = {20, 19};
Line(30) = {17, 20};
Curve Loop(7) = {-13, -14, 15, 14};
Surface(7) = {7};
Curve Loop(8) = {13};
Plane Surface(8) = {8};
Curve Loop(9) = {15};
Plane Surface(9) = {9};
Curve Loop(10) = {-16, -17, 18, 17};
Surface(10) = {10};
Curve Loop(11) = {16};
Plane Surface(11) = {11};
Curve Loop(12) = {18};
Plane Surface(12) = {12};
Curve Loop(13) = {-19, 22, 21, -20};
Plane Surface(13) = {13};
Curve Loop(14) = {-23, 19, 25, -24};
Plane Surface(14) = {14};
Curve Loop(15) = {-20, 25, 27, -26};
Plane Surface(15) = {15};
Curve Loop(16) = {-28, 21, 26, -29};
Plane Surface(16) = {16};
Curve Loop(17) = {-22, 23, 30, -28, -15, -18};
Plane Surface(17) = {17};
Curve Loop(18) = {-24, 30, 29, -27};
Plane Surface(18) = {18};
Surface Loop(1) = {13, 14, 15, 16, 17, 18, 7, 10, 8, 11};
Volume(1) = {1};
Surface Loop(2) = {7, 8, 9};
Volume(2) = {2};
Surface Loop(3) = {10, 11, 12};
Volume(3) = {3};
Physical Surface("WALLS") = {13, 18};
Physical Surface("LOAD") = {8, 11};
Physical Surface("BORDER") = {7, 9, 10, 12, 14, 15, 16, 17};
Physical Volume("SOLID") = {1, 2, 3};
