cl__1 = 0.126219;
cl__2 = 0.051415;
cl__3 = 0.257046;
cl__4 = 0.260449;
cl__5 = 5.052035;
cl__6 = 5.513502;
Point(9) = {5.689128999999999, 0.2932699999999997, 0.1, cl__1};
Point(10) = {5.689128999999999, 0.2932699999999997, 0, cl__1};
Point(11) = {8.937520000000001, -2.6213, 0.1, cl__2};
Point(12) = {8.937520000000001, -2.6213, 0, cl__2};
Point(13) = {0.745935, -3.757854, 0.1, cl__3};
Point(14) = {0.745935, -3.757854, 0, cl__3};
Point(15) = {0.745935, 4.419437, 0.1, cl__4};
Point(16) = {0.745935, 4.419437, 0, cl__4};
Point(17) = {37.02854900000001, -3.757854, 0, cl__5};
Point(18) = {37.02854900000001, -3.757854, 0.1, cl__5};
Point(19) = {37.02854900000001, 4.419437, 0.1, cl__6};
Point(20) = {37.02854900000001, 4.419437, 0, cl__6};
p13 = newp;
Point(p13 + 1) = {5.673589346615777, 0.490720017429129, 0.1};
Point(p13 + 2) = {5.62735302430258, 0.6833081601301148, 0.1};
Point(p13 + 3) = {5.551558524765316, 0.8662922688662584, 0.1};
Point(p13 + 4) = {5.448072160130115, 1.035166667591037, 0.1};
Point(p13 + 5) = {5.319442108145848, 1.185773108145848, 0.1};
Point(p13 + 6) = {5.168835667591036, 1.314403160130115, 0.1};
Point(p13 + 7) = {4.999961268866258, 1.417889524765316, 0.1};
Point(p13 + 8) = {4.816977160130115, 1.49368402430258, 0.1};
Point(p13 + 9) = {4.624389017429129, 1.539920346615777, 0.1};
Point(p13 + 10) = {4.426939, 1.55546, 0.1};
Point(p13 + 11) = {4.229488982570871, 1.539920346615777, 0.1};
Point(p13 + 12) = {4.036900839869885, 1.49368402430258, 0.1};
Point(p13 + 13) = {3.853916731133741, 1.417889524765316, 0.1};
Point(p13 + 14) = {3.685042332408964, 1.314403160130115, 0.1};
Point(p13 + 15) = {3.534435891854152, 1.185773108145848, 0.1};
Point(p13 + 16) = {3.405805839869885, 1.035166667591037, 0.1};
Point(p13 + 17) = {3.302319475234684, 0.8662922688662587, 0.1};
Point(p13 + 18) = {3.22652497569742, 0.683308160130115, 0.1};
Point(p13 + 19) = {3.180288653384223, 0.4907200174291291, 0.1};
Point(p13 + 20) = {3.164749, 0.2932700000000001, 0.1};
Point(p13 + 21) = {3.180288653384223, 0.09581998257087113, 0.1};
Point(p13 + 22) = {3.22652497569742, -0.0967681601301153, 0.1};
Point(p13 + 23) = {3.302319475234683, -0.279752268866258, 0.1};
Point(p13 + 24) = {3.405805839869885, -0.4486266675910365, 0.1};
Point(p13 + 25) = {3.534435891854152, -0.5992331081458484, 0.1};
Point(p13 + 26) = {3.685042332408963, -0.7278631601301149, 0.1};
Point(p13 + 27) = {3.853916731133741, -0.831349524765316, 0.1};
Point(p13 + 28) = {4.036900839869885, -0.9071440243025799, 0.1};
Point(p13 + 29) = {4.229488982570871, -0.9533803466157769, 0.1};
Point(p13 + 30) = {4.426939, -0.96892, 0.1};
Point(p13 + 31) = {4.624389017429129, -0.9533803466157769, 0.1};
Point(p13 + 32) = {4.816977160130115, -0.9071440243025799, 0.1};
Point(p13 + 33) = {4.999961268866258, -0.8313495247653162, 0.1};
Point(p13 + 34) = {5.168835667591036, -0.7278631601301151, 0.1};
Point(p13 + 35) = {5.319442108145848, -0.5992331081458486, 0.1};
Point(p13 + 36) = {5.448072160130115, -0.4486266675910368, 0.1};
Point(p13 + 37) = {5.551558524765316, -0.2797522688662588, 0.1};
Point(p13 + 38) = {5.62735302430258, -0.09676816013011513, 0.1};
Point(p13 + 39) = {5.673589346615777, 0.09581998257087068, 0.1};
Spline(13) = {9, p13 + 1, p13 + 2, p13 + 3, p13 + 4, p13 + 5, p13 + 6, p13 + 7, p13 + 8, p13 + 9, p13 + 10, p13 + 11, p13 + 12, p13 + 13, p13 + 14, p13 + 15, p13 + 16, p13 + 17, p13 + 18, p13 + 19, p13 + 20, p13 + 21, p13 + 22, p13 + 23, p13 + 24, p13 + 25, p13 + 26, p13 + 27, p13 + 28, p13 + 29, p13 + 30, p13 + 31, p13 + 32, p13 + 33, p13 + 34, p13 + 35, p13 + 36, p13 + 37, p13 + 38, p13 + 39, 9};
Line(14) = {10, 9};
p15 = newp;
Point(p15 + 1) = {5.673589346615777, 0.490720017429129, 0};
Point(p15 + 2) = {5.62735302430258, 0.6833081601301148, 0};
Point(p15 + 3) = {5.551558524765316, 0.8662922688662584, 0};
Point(p15 + 4) = {5.448072160130115, 1.035166667591037, 0};
Point(p15 + 5) = {5.319442108145848, 1.185773108145848, 0};
Point(p15 + 6) = {5.168835667591036, 1.314403160130115, 0};
Point(p15 + 7) = {4.999961268866258, 1.417889524765316, 0};
Point(p15 + 8) = {4.816977160130115, 1.49368402430258, 0};
Point(p15 + 9) = {4.624389017429129, 1.539920346615777, 0};
Point(p15 + 10) = {4.426939, 1.55546, 0};
Point(p15 + 11) = {4.229488982570871, 1.539920346615777, 0};
Point(p15 + 12) = {4.036900839869885, 1.49368402430258, 0};
Point(p15 + 13) = {3.853916731133741, 1.417889524765316, 0};
Point(p15 + 14) = {3.685042332408964, 1.314403160130115, 0};
Point(p15 + 15) = {3.534435891854152, 1.185773108145848, 0};
Point(p15 + 16) = {3.405805839869885, 1.035166667591037, 0};
Point(p15 + 17) = {3.302319475234684, 0.8662922688662587, 0};
Point(p15 + 18) = {3.22652497569742, 0.683308160130115, 0};
Point(p15 + 19) = {3.180288653384223, 0.4907200174291291, 0};
Point(p15 + 20) = {3.164749, 0.2932700000000001, 0};
Point(p15 + 21) = {3.180288653384223, 0.09581998257087113, 0};
Point(p15 + 22) = {3.22652497569742, -0.0967681601301153, 0};
Point(p15 + 23) = {3.302319475234683, -0.279752268866258, 0};
Point(p15 + 24) = {3.405805839869885, -0.4486266675910365, 0};
Point(p15 + 25) = {3.534435891854152, -0.5992331081458484, 0};
Point(p15 + 26) = {3.685042332408963, -0.7278631601301149, 0};
Point(p15 + 27) = {3.853916731133741, -0.831349524765316, 0};
Point(p15 + 28) = {4.036900839869885, -0.9071440243025799, 0};
Point(p15 + 29) = {4.229488982570871, -0.9533803466157769, 0};
Point(p15 + 30) = {4.426939, -0.96892, 0};
Point(p15 + 31) = {4.624389017429129, -0.9533803466157769, 0};
Point(p15 + 32) = {4.816977160130115, -0.9071440243025799, 0};
Point(p15 + 33) = {4.999961268866258, -0.8313495247653162, 0};
Point(p15 + 34) = {5.168835667591036, -0.7278631601301151, 0};
Point(p15 + 35) = {5.319442108145848, -0.5992331081458486, 0};
Point(p15 + 36) = {5.448072160130115, -0.4486266675910368, 0};
Point(p15 + 37) = {5.551558524765316, -0.2797522688662588, 0};
Point(p15 + 38) = {5.62735302430258, -0.09676816013011513, 0};
Point(p15 + 39) = {5.673589346615777, 0.09581998257087068, 0};
Spline(15) = {10, p15 + 1, p15 + 2, p15 + 3, p15 + 4, p15 + 5, p15 + 6, p15 + 7, p15 + 8, p15 + 9, p15 + 10, p15 + 11, p15 + 12, p15 + 13, p15 + 14, p15 + 15, p15 + 16, p15 + 17, p15 + 18, p15 + 19, p15 + 20, p15 + 21, p15 + 22, p15 + 23, p15 + 24, p15 + 25, p15 + 26, p15 + 27, p15 + 28, p15 + 29, p15 + 30, p15 + 31, p15 + 32, p15 + 33, p15 + 34, p15 + 35, p15 + 36, p15 + 37, p15 + 38, p15 + 39, 10};
p16 = newp;
Point(p16 + 1) = {8.931189984940309, -2.540869532668495, 0.1};
Point(p16 + 2) = {8.912355805740122, -2.46241953037611, 0.1};
Point(p16 + 3) = {8.881481222398401, -2.387881692539912, 0.1};
Point(p16 + 4) = {8.839326469623892, -2.31909138810433, 0.1};
Point(p16 + 5) = {8.786929537333501, -2.257742462666499, 0.1};
Point(p16 + 6) = {8.725580611895671, -2.20534553037611, 0.1};
Point(p16 + 7) = {8.656790307460088, -2.163190777601599, 0.1};
Point(p16 + 8) = {8.58225246962389, -2.13231619425988, 0.1};
Point(p16 + 9) = {8.503802467331505, -2.113482015059691, 0.1};
Point(p16 + 10) = {8.423372000000001, -2.107152, 0.1};
Point(p16 + 11) = {8.342941532668496, -2.113482015059692, 0.1};
Point(p16 + 12) = {8.264491530376111, -2.13231619425988, 0.1};
Point(p16 + 13) = {8.189953692539913, -2.163190777601599, 0.1};
Point(p16 + 14) = {8.12116338810433, -2.20534553037611, 0.1};
Point(p16 + 15) = {8.0598144626665, -2.257742462666499, 0.1};
Point(p16 + 16) = {8.007417530376109, -2.31909138810433, 0.1};
Point(p16 + 17) = {7.965262777601599, -2.387881692539912, 0.1};
Point(p16 + 18) = {7.93438819425988, -2.46241953037611, 0.1};
Point(p16 + 19) = {7.915554015059691, -2.540869532668495, 0.1};
Point(p16 + 20) = {7.909224, -2.6213, 0.1};
Point(p16 + 21) = {7.915554015059691, -2.701730467331505, 0.1};
Point(p16 + 22) = {7.93438819425988, -2.780180469623891, 0.1};
Point(p16 + 23) = {7.965262777601599, -2.854718307460089, 0.1};
Point(p16 + 24) = {8.007417530376109, -2.923508611895671, 0.1};
Point(p16 + 25) = {8.0598144626665, -2.984857537333501, 0.1};
Point(p16 + 26) = {8.12116338810433, -3.037254469623891, 0.1};
Point(p16 + 27) = {8.189953692539913, -3.079409222398401, 0.1};
Point(p16 + 28) = {8.264491530376111, -3.110283805740121, 0.1};
Point(p16 + 29) = {8.342941532668496, -3.129117984940309, 0.1};
Point(p16 + 30) = {8.423372000000001, -3.135448, 0.1};
Point(p16 + 31) = {8.503802467331505, -3.129117984940309, 0.1};
Point(p16 + 32) = {8.58225246962389, -3.110283805740121, 0.1};
Point(p16 + 33) = {8.656790307460088, -3.079409222398401, 0.1};
Point(p16 + 34) = {8.725580611895671, -3.037254469623891, 0.1};
Point(p16 + 35) = {8.786929537333501, -2.984857537333501, 0.1};
Point(p16 + 36) = {8.839326469623892, -2.923508611895671, 0.1};
Point(p16 + 37) = {8.881481222398401, -2.854718307460089, 0.1};
Point(p16 + 38) = {8.912355805740122, -2.780180469623891, 0.1};
Point(p16 + 39) = {8.931189984940309, -2.701730467331505, 0.1};
Spline(16) = {11, p16 + 1, p16 + 2, p16 + 3, p16 + 4, p16 + 5, p16 + 6, p16 + 7, p16 + 8, p16 + 9, p16 + 10, p16 + 11, p16 + 12, p16 + 13, p16 + 14, p16 + 15, p16 + 16, p16 + 17, p16 + 18, p16 + 19, p16 + 20, p16 + 21, p16 + 22, p16 + 23, p16 + 24, p16 + 25, p16 + 26, p16 + 27, p16 + 28, p16 + 29, p16 + 30, p16 + 31, p16 + 32, p16 + 33, p16 + 34, p16 + 35, p16 + 36, p16 + 37, p16 + 38, p16 + 39, 11};
Line(17) = {12, 11};
p18 = newp;
Point(p18 + 1) = {8.931189984940309, -2.540869532668495, 0};
Point(p18 + 2) = {8.912355805740122, -2.46241953037611, 0};
Point(p18 + 3) = {8.881481222398401, -2.387881692539912, 0};
Point(p18 + 4) = {8.839326469623892, -2.31909138810433, 0};
Point(p18 + 5) = {8.786929537333501, -2.257742462666499, 0};
Point(p18 + 6) = {8.725580611895671, -2.20534553037611, 0};
Point(p18 + 7) = {8.656790307460088, -2.163190777601599, 0};
Point(p18 + 8) = {8.58225246962389, -2.13231619425988, 0};
Point(p18 + 9) = {8.503802467331505, -2.113482015059691, 0};
Point(p18 + 10) = {8.423372000000001, -2.107152, 0};
Point(p18 + 11) = {8.342941532668496, -2.113482015059692, 0};
Point(p18 + 12) = {8.264491530376111, -2.13231619425988, 0};
Point(p18 + 13) = {8.189953692539913, -2.163190777601599, 0};
Point(p18 + 14) = {8.12116338810433, -2.20534553037611, 0};
Point(p18 + 15) = {8.0598144626665, -2.257742462666499, 0};
Point(p18 + 16) = {8.007417530376109, -2.31909138810433, 0};
Point(p18 + 17) = {7.965262777601599, -2.387881692539912, 0};
Point(p18 + 18) = {7.93438819425988, -2.46241953037611, 0};
Point(p18 + 19) = {7.915554015059691, -2.540869532668495, 0};
Point(p18 + 20) = {7.909224, -2.6213, 0};
Point(p18 + 21) = {7.915554015059691, -2.701730467331505, 0};
Point(p18 + 22) = {7.93438819425988, -2.780180469623891, 0};
Point(p18 + 23) = {7.965262777601599, -2.854718307460089, 0};
Point(p18 + 24) = {8.007417530376109, -2.923508611895671, 0};
Point(p18 + 25) = {8.0598144626665, -2.984857537333501, 0};
Point(p18 + 26) = {8.12116338810433, -3.037254469623891, 0};
Point(p18 + 27) = {8.189953692539913, -3.079409222398401, 0};
Point(p18 + 28) = {8.264491530376111, -3.110283805740121, 0};
Point(p18 + 29) = {8.342941532668496, -3.129117984940309, 0};
Point(p18 + 30) = {8.423372000000001, -3.135448, 0};
Point(p18 + 31) = {8.503802467331505, -3.129117984940309, 0};
Point(p18 + 32) = {8.58225246962389, -3.110283805740121, 0};
Point(p18 + 33) = {8.656790307460088, -3.079409222398401, 0};
Point(p18 + 34) = {8.725580611895671, -3.037254469623891, 0};
Point(p18 + 35) = {8.786929537333501, -2.984857537333501, 0};
Point(p18 + 36) = {8.839326469623892, -2.923508611895671, 0};
Point(p18 + 37) = {8.881481222398401, -2.854718307460089, 0};
Point(p18 + 38) = {8.912355805740122, -2.780180469623891, 0};
Point(p18 + 39) = {8.931189984940309, -2.701730467331505, 0};
Spline(18) = {12, p18 + 1, p18 + 2, p18 + 3, p18 + 4, p18 + 5, p18 + 6, p18 + 7, p18 + 8, p18 + 9, p18 + 10, p18 + 11, p18 + 12, p18 + 13, p18 + 14, p18 + 15, p18 + 16, p18 + 17, p18 + 18, p18 + 19, p18 + 20, p18 + 21, p18 + 22, p18 + 23, p18 + 24, p18 + 25, p18 + 26, p18 + 27, p18 + 28, p18 + 29, p18 + 30, p18 + 31, p18 + 32, p18 + 33, p18 + 34, p18 + 35, p18 + 36, p18 + 37, p18 + 38, p18 + 39, 12};
Line(19) = {14, 13};
Line(20) = {13, 15};
Line(21) = {16, 15};
Line(22) = {14, 16};
Line(23) = {14, 17};
Line(24) = {17, 18};
Line(25) = {13, 18};
Line(26) = {15, 19};
Line(27) = {18, 19};
Line(28) = {16, 20};
Line(29) = {20, 19};
Line(30) = {17, 20};
Curve Loop(7) = {-13, -14, 15, 14};
Surface(7) = {7};
Curve Loop(8) = {13};
Plane Surface(8) = {8};
Curve Loop(9) = {15};
Plane Surface(9) = {9};
Curve Loop(10) = {-16, -17, 18, 17};
Surface(10) = {10};
Curve Loop(11) = {16};
Plane Surface(11) = {11};
Curve Loop(12) = {18};
Plane Surface(12) = {12};
Curve Loop(13) = {-19, 22, 21, -20};
Plane Surface(13) = {13};
Curve Loop(14) = {-23, 19, 25, -24};
Plane Surface(14) = {14};
Curve Loop(15) = {-20, 25, 27, -26, -16, -13};
Plane Surface(15) = {15};
Curve Loop(16) = {-28, 21, 26, -29};
Plane Surface(16) = {16};
Curve Loop(17) = {-22, 23, 30, -28, -18, -15};
Plane Surface(17) = {17};
Curve Loop(18) = {-24, 30, 29, -27};
Plane Surface(18) = {18};
Surface Loop(1) = {13, 14, 15, 16, 17, 18, 10, 7};
Volume(1) = {1};
Surface Loop(2) = {7, 8, 9};
Volume(2) = {2};
Surface Loop(3) = {10, 11, 12};
Volume(3) = {3};
Physical Surface("WALLS") = {13, 18};
Physical Surface("LOAD") = {8, 11};
Physical Surface("BORDER") = {7, 9, 10, 12, 14, 15, 16, 17};
Physical Volume("SOLID") = {1, 2, 3};
