cl__1 = 0.06433;
cl__2 = 0.102234;
cl__3 = 0.98612;
cl__4 = 0.923866;
cl__5 = 1.269569;
cl__6 = 1.021771;
Point(9) = {18.879493, 2.410953, 0.1, cl__1};
Point(10) = {18.879493, 2.410953, 0, cl__1};
Point(11) = {17.0206, 1.869706, 0.1, cl__2};
Point(12) = {17.0206, 1.869706, 0, cl__2};
Point(13) = {0.443774, -4.350133, 0.1, cl__3};
Point(14) = {0.443774, -4.350133, 0, cl__3};
Point(15) = {0.443774, 4.400003, 0.1, cl__4};
Point(16) = {0.443774, 4.400003, 0, cl__4};
Point(17) = {34.826632, -4.350133, 0, cl__5};
Point(18) = {34.826632, -4.350133, 0.1, cl__5};
Point(19) = {34.826632, 4.400003, 0.1, cl__6};
Point(20) = {34.826632, 4.400003, 0, cl__6};
p13 = newp;
Point(p13 + 1) = {18.87157297106315, 2.511586509188056, 0.1};
Point(p13 + 2) = {18.84800790165009, 2.609742087396432, 0.1};
Point(p13 + 3) = {18.80937804197776, 2.703002818529952, 0.1};
Point(p13 + 4) = {18.75663458739643, 2.789072313873487, 0.1};
Point(p13 + 5) = {18.6910762568034, 2.8658312568034, 0.1};
Point(p13 + 6) = {18.61431731387349, 2.931389587396432, 0.1};
Point(p13 + 7) = {18.52824781852995, 2.984133041977756, 0.1};
Point(p13 + 8) = {18.43498708739643, 3.022762901650091, 0.1};
Point(p13 + 9) = {18.33683150918806, 3.046327971063149, 0.1};
Point(p13 + 10) = {18.236198, 3.054248, 0.1};
Point(p13 + 11) = {18.13556449081195, 3.046327971063149, 0.1};
Point(p13 + 12) = {18.03740891260357, 3.022762901650091, 0.1};
Point(p13 + 13) = {17.94414818147005, 2.984133041977756, 0.1};
Point(p13 + 14) = {17.85807868612651, 2.931389587396432, 0.1};
Point(p13 + 15) = {17.7813197431966, 2.8658312568034, 0.1};
Point(p13 + 16) = {17.71576141260357, 2.789072313873487, 0.1};
Point(p13 + 17) = {17.66301795802224, 2.703002818529952, 0.1};
Point(p13 + 18) = {17.62438809834991, 2.609742087396432, 0.1};
Point(p13 + 19) = {17.60082302893685, 2.511586509188056, 0.1};
Point(p13 + 20) = {17.592903, 2.410953, 0.1};
Point(p13 + 21) = {17.60082302893685, 2.310319490811945, 0.1};
Point(p13 + 22) = {17.62438809834991, 2.212163912603568, 0.1};
Point(p13 + 23) = {17.66301795802224, 2.118903181470049, 0.1};
Point(p13 + 24) = {17.71576141260357, 2.032833686126514, 0.1};
Point(p13 + 25) = {17.7813197431966, 1.9560747431966, 0.1};
Point(p13 + 26) = {17.85807868612651, 1.890516412603569, 0.1};
Point(p13 + 27) = {17.94414818147005, 1.837772958022244, 0.1};
Point(p13 + 28) = {18.03740891260357, 1.799143098349909, 0.1};
Point(p13 + 29) = {18.13556449081195, 1.775578028936851, 0.1};
Point(p13 + 30) = {18.236198, 1.767658, 0.1};
Point(p13 + 31) = {18.33683150918806, 1.775578028936851, 0.1};
Point(p13 + 32) = {18.43498708739643, 1.799143098349909, 0.1};
Point(p13 + 33) = {18.52824781852995, 1.837772958022244, 0.1};
Point(p13 + 34) = {18.61431731387349, 1.890516412603568, 0.1};
Point(p13 + 35) = {18.6910762568034, 1.9560747431966, 0.1};
Point(p13 + 36) = {18.75663458739643, 2.032833686126513, 0.1};
Point(p13 + 37) = {18.80937804197776, 2.118903181470048, 0.1};
Point(p13 + 38) = {18.84800790165009, 2.212163912603568, 0.1};
Point(p13 + 39) = {18.87157297106315, 2.310319490811945, 0.1};
Spline(13) = {9, p13 + 1, p13 + 2, p13 + 3, p13 + 4, p13 + 5, p13 + 6, p13 + 7, p13 + 8, p13 + 9, p13 + 10, p13 + 11, p13 + 12, p13 + 13, p13 + 14, p13 + 15, p13 + 16, p13 + 17, p13 + 18, p13 + 19, p13 + 20, p13 + 21, p13 + 22, p13 + 23, p13 + 24, p13 + 25, p13 + 26, p13 + 27, p13 + 28, p13 + 29, p13 + 30, p13 + 31, p13 + 32, p13 + 33, p13 + 34, p13 + 35, p13 + 36, p13 + 37, p13 + 38, p13 + 39, 9};
Line(14) = {10, 9};
p15 = newp;
Point(p15 + 1) = {18.87157297106315, 2.511586509188056, 0};
Point(p15 + 2) = {18.84800790165009, 2.609742087396432, 0};
Point(p15 + 3) = {18.80937804197776, 2.703002818529952, 0};
Point(p15 + 4) = {18.75663458739643, 2.789072313873487, 0};
Point(p15 + 5) = {18.6910762568034, 2.8658312568034, 0};
Point(p15 + 6) = {18.61431731387349, 2.931389587396432, 0};
Point(p15 + 7) = {18.52824781852995, 2.984133041977756, 0};
Point(p15 + 8) = {18.43498708739643, 3.022762901650091, 0};
Point(p15 + 9) = {18.33683150918806, 3.046327971063149, 0};
Point(p15 + 10) = {18.236198, 3.054248, 0};
Point(p15 + 11) = {18.13556449081195, 3.046327971063149, 0};
Point(p15 + 12) = {18.03740891260357, 3.022762901650091, 0};
Point(p15 + 13) = {17.94414818147005, 2.984133041977756, 0};
Point(p15 + 14) = {17.85807868612651, 2.931389587396432, 0};
Point(p15 + 15) = {17.7813197431966, 2.8658312568034, 0};
Point(p15 + 16) = {17.71576141260357, 2.789072313873487, 0};
Point(p15 + 17) = {17.66301795802224, 2.703002818529952, 0};
Point(p15 + 18) = {17.62438809834991, 2.609742087396432, 0};
Point(p15 + 19) = {17.60082302893685, 2.511586509188056, 0};
Point(p15 + 20) = {17.592903, 2.410953, 0};
Point(p15 + 21) = {17.60082302893685, 2.310319490811945, 0};
Point(p15 + 22) = {17.62438809834991, 2.212163912603568, 0};
Point(p15 + 23) = {17.66301795802224, 2.118903181470049, 0};
Point(p15 + 24) = {17.71576141260357, 2.032833686126514, 0};
Point(p15 + 25) = {17.7813197431966, 1.9560747431966, 0};
Point(p15 + 26) = {17.85807868612651, 1.890516412603569, 0};
Point(p15 + 27) = {17.94414818147005, 1.837772958022244, 0};
Point(p15 + 28) = {18.03740891260357, 1.799143098349909, 0};
Point(p15 + 29) = {18.13556449081195, 1.775578028936851, 0};
Point(p15 + 30) = {18.236198, 1.767658, 0};
Point(p15 + 31) = {18.33683150918806, 1.775578028936851, 0};
Point(p15 + 32) = {18.43498708739643, 1.799143098349909, 0};
Point(p15 + 33) = {18.52824781852995, 1.837772958022244, 0};
Point(p15 + 34) = {18.61431731387349, 1.890516412603568, 0};
Point(p15 + 35) = {18.6910762568034, 1.9560747431966, 0};
Point(p15 + 36) = {18.75663458739643, 2.032833686126513, 0};
Point(p15 + 37) = {18.80937804197776, 2.118903181470048, 0};
Point(p15 + 38) = {18.84800790165009, 2.212163912603568, 0};
Point(p15 + 39) = {18.87157297106315, 2.310319490811945, 0};
Spline(15) = {10, p15 + 1, p15 + 2, p15 + 3, p15 + 4, p15 + 5, p15 + 6, p15 + 7, p15 + 8, p15 + 9, p15 + 10, p15 + 11, p15 + 12, p15 + 13, p15 + 14, p15 + 15, p15 + 16, p15 + 17, p15 + 18, p15 + 19, p15 + 20, p15 + 21, p15 + 22, p15 + 23, p15 + 24, p15 + 25, p15 + 26, p15 + 27, p15 + 28, p15 + 29, p15 + 30, p15 + 31, p15 + 32, p15 + 33, p15 + 34, p15 + 35, p15 + 36, p15 + 37, p15 + 38, p15 + 39, 10};
p16 = newp;
Point(p16 + 1) = {17.00801323656574, 2.029635993161555, 0.1};
Point(p16 + 2) = {16.97056287415177, 2.185627979114256, 0.1};
Point(p16 + 3) = {16.90917106497136, 2.333840917456227, 0.1};
Point(p16 + 4) = {16.82534947911426, 2.470625313754948, 0.1};
Point(p16 + 5) = {16.72116208221216, 2.592613082212161, 0.1};
Point(p16 + 6) = {16.59917431375495, 2.696800479114255, 0.1};
Point(p16 + 7) = {16.46238991745623, 2.780622064971357, 0.1};
Point(p16 + 8) = {16.31417697911425, 2.842013874151769, 0.1};
Point(p16 + 9) = {16.15818499316156, 2.879464236565736, 0.1};
Point(p16 + 10) = {15.998255, 2.892051, 0.1};
Point(p16 + 11) = {15.83832500683845, 2.879464236565736, 0.1};
Point(p16 + 12) = {15.68233302088574, 2.842013874151769, 0.1};
Point(p16 + 13) = {15.53412008254377, 2.780622064971357, 0.1};
Point(p16 + 14) = {15.39733568624505, 2.696800479114256, 0.1};
Point(p16 + 15) = {15.27534791778784, 2.592613082212161, 0.1};
Point(p16 + 16) = {15.17116052088575, 2.470625313754949, 0.1};
Point(p16 + 17) = {15.08733893502864, 2.333840917456227, 0.1};
Point(p16 + 18) = {15.02594712584823, 2.185627979114256, 0.1};
Point(p16 + 19) = {14.98849676343426, 2.029635993161555, 0.1};
Point(p16 + 20) = {14.97591, 1.869706, 0.1};
Point(p16 + 21) = {14.98849676343426, 1.709776006838445, 0.1};
Point(p16 + 22) = {15.02594712584823, 1.553784020885744, 0.1};
Point(p16 + 23) = {15.08733893502864, 1.405571082543774, 0.1};
Point(p16 + 24) = {15.17116052088574, 1.268786686245052, 0.1};
Point(p16 + 25) = {15.27534791778784, 1.146798917787839, 0.1};
Point(p16 + 26) = {15.39733568624505, 1.042611520885744, 0.1};
Point(p16 + 27) = {15.53412008254377, 0.9587899350286432, 0.1};
Point(p16 + 28) = {15.68233302088574, 0.8973981258482313, 0.1};
Point(p16 + 29) = {15.83832500683845, 0.859947763434264, 0.1};
Point(p16 + 30) = {15.998255, 0.847361, 0.1};
Point(p16 + 31) = {16.15818499316156, 0.8599477634342638, 0.1};
Point(p16 + 32) = {16.31417697911425, 0.8973981258482312, 0.1};
Point(p16 + 33) = {16.46238991745623, 0.958789935028643, 0.1};
Point(p16 + 34) = {16.59917431375495, 1.042611520885744, 0.1};
Point(p16 + 35) = {16.72116208221216, 1.146798917787839, 0.1};
Point(p16 + 36) = {16.82534947911426, 1.268786686245051, 0.1};
Point(p16 + 37) = {16.90917106497136, 1.405571082543773, 0.1};
Point(p16 + 38) = {16.97056287415177, 1.553784020885744, 0.1};
Point(p16 + 39) = {17.00801323656574, 1.709776006838445, 0.1};
Spline(16) = {11, p16 + 1, p16 + 2, p16 + 3, p16 + 4, p16 + 5, p16 + 6, p16 + 7, p16 + 8, p16 + 9, p16 + 10, p16 + 11, p16 + 12, p16 + 13, p16 + 14, p16 + 15, p16 + 16, p16 + 17, p16 + 18, p16 + 19, p16 + 20, p16 + 21, p16 + 22, p16 + 23, p16 + 24, p16 + 25, p16 + 26, p16 + 27, p16 + 28, p16 + 29, p16 + 30, p16 + 31, p16 + 32, p16 + 33, p16 + 34, p16 + 35, p16 + 36, p16 + 37, p16 + 38, p16 + 39, 11};
Line(17) = {12, 11};
p18 = newp;
Point(p18 + 1) = {17.00801323656574, 2.029635993161555, 0};
Point(p18 + 2) = {16.97056287415177, 2.185627979114256, 0};
Point(p18 + 3) = {16.90917106497136, 2.333840917456227, 0};
Point(p18 + 4) = {16.82534947911426, 2.470625313754948, 0};
Point(p18 + 5) = {16.72116208221216, 2.592613082212161, 0};
Point(p18 + 6) = {16.59917431375495, 2.696800479114255, 0};
Point(p18 + 7) = {16.46238991745623, 2.780622064971357, 0};
Point(p18 + 8) = {16.31417697911425, 2.842013874151769, 0};
Point(p18 + 9) = {16.15818499316156, 2.879464236565736, 0};
Point(p18 + 10) = {15.998255, 2.892051, 0};
Point(p18 + 11) = {15.83832500683845, 2.879464236565736, 0};
Point(p18 + 12) = {15.68233302088574, 2.842013874151769, 0};
Point(p18 + 13) = {15.53412008254377, 2.780622064971357, 0};
Point(p18 + 14) = {15.39733568624505, 2.696800479114256, 0};
Point(p18 + 15) = {15.27534791778784, 2.592613082212161, 0};
Point(p18 + 16) = {15.17116052088575, 2.470625313754949, 0};
Point(p18 + 17) = {15.08733893502864, 2.333840917456227, 0};
Point(p18 + 18) = {15.02594712584823, 2.185627979114256, 0};
Point(p18 + 19) = {14.98849676343426, 2.029635993161555, 0};
Point(p18 + 20) = {14.97591, 1.869706, 0};
Point(p18 + 21) = {14.98849676343426, 1.709776006838445, 0};
Point(p18 + 22) = {15.02594712584823, 1.553784020885744, 0};
Point(p18 + 23) = {15.08733893502864, 1.405571082543774, 0};
Point(p18 + 24) = {15.17116052088574, 1.268786686245052, 0};
Point(p18 + 25) = {15.27534791778784, 1.146798917787839, 0};
Point(p18 + 26) = {15.39733568624505, 1.042611520885744, 0};
Point(p18 + 27) = {15.53412008254377, 0.9587899350286432, 0};
Point(p18 + 28) = {15.68233302088574, 0.8973981258482313, 0};
Point(p18 + 29) = {15.83832500683845, 0.859947763434264, 0};
Point(p18 + 30) = {15.998255, 0.847361, 0};
Point(p18 + 31) = {16.15818499316156, 0.8599477634342638, 0};
Point(p18 + 32) = {16.31417697911425, 0.8973981258482312, 0};
Point(p18 + 33) = {16.46238991745623, 0.958789935028643, 0};
Point(p18 + 34) = {16.59917431375495, 1.042611520885744, 0};
Point(p18 + 35) = {16.72116208221216, 1.146798917787839, 0};
Point(p18 + 36) = {16.82534947911426, 1.268786686245051, 0};
Point(p18 + 37) = {16.90917106497136, 1.405571082543773, 0};
Point(p18 + 38) = {16.97056287415177, 1.553784020885744, 0};
Point(p18 + 39) = {17.00801323656574, 1.709776006838445, 0};
Spline(18) = {12, p18 + 1, p18 + 2, p18 + 3, p18 + 4, p18 + 5, p18 + 6, p18 + 7, p18 + 8, p18 + 9, p18 + 10, p18 + 11, p18 + 12, p18 + 13, p18 + 14, p18 + 15, p18 + 16, p18 + 17, p18 + 18, p18 + 19, p18 + 20, p18 + 21, p18 + 22, p18 + 23, p18 + 24, p18 + 25, p18 + 26, p18 + 27, p18 + 28, p18 + 29, p18 + 30, p18 + 31, p18 + 32, p18 + 33, p18 + 34, p18 + 35, p18 + 36, p18 + 37, p18 + 38, p18 + 39, 12};
Line(19) = {14, 13};
Line(20) = {13, 15};
Line(21) = {16, 15};
Line(22) = {14, 16};
Line(23) = {14, 17};
Line(24) = {17, 18};
Line(25) = {13, 18};
Line(26) = {15, 19};
Line(27) = {18, 19};
Line(28) = {16, 20};
Line(29) = {20, 19};
Line(30) = {17, 20};
Curve Loop(7) = {-13, -14, 15, 14};
Surface(7) = {7};
Curve Loop(8) = {13};
Plane Surface(8) = {8};
Curve Loop(9) = {15};
Plane Surface(9) = {9};
Curve Loop(10) = {-16, -17, 18, 17};
Surface(10) = {10};
Curve Loop(11) = {16};
Plane Surface(11) = {11};
Curve Loop(12) = {18};
Plane Surface(12) = {12};
Curve Loop(13) = {-19, 22, 21, -20};
Plane Surface(13) = {13};
Curve Loop(14) = {-23, 19, 25, -24};
Plane Surface(14) = {14};
Curve Loop(15) = {-20, 25, 27, -26, -16, -13};
Plane Surface(15) = {15};
Curve Loop(16) = {-28, 21, 26, -29};
Plane Surface(16) = {16};
Curve Loop(17) = {-22, 23, 30, -28, -18, -15};
Plane Surface(17) = {17};
Curve Loop(18) = {-24, 30, 29, -27};
Plane Surface(18) = {18};
Surface Loop(1) = {13, 14, 15, 16, 17, 18, 10, 7};
Volume(1) = {1};
Surface Loop(2) = {7, 8, 9};
Volume(2) = {2};
Surface Loop(3) = {10, 11, 12};
Volume(3) = {3};
Physical Surface("WALLS") = {13, 18};
Physical Surface("LOAD") = {8, 11};
Physical Surface("BORDER") = {7, 9, 10, 12, 14, 15, 16, 17};
Physical Volume("SOLID") = {1, 2, 3};
