cl__1 = 0.068998;
cl__2 = 0.122997;
cl__3 = 0.334242;
cl__4 = 0.8108109999999999;
cl__5 = 3.313393;
cl__6 = 2.538441;
Point(9) = {4.628663, -2.324019, 0.1, cl__1};
Point(10) = {4.628663, -2.324019, 0, cl__1};
Point(11) = {28.349206, 1.752493, 0.1, cl__2};
Point(12) = {28.349206, 1.752493, 0, cl__2};
Point(13) = {0.942442, -3.781383, 0.1, cl__3};
Point(14) = {0.942442, -3.781383, 0, cl__3};
Point(15) = {0.942442, 4.111376, 0.1, cl__4};
Point(16) = {0.942442, 4.111376, 0, cl__4};
Point(17) = {38.897532, -3.781383, 0, cl__5};
Point(18) = {38.897532, -3.781383, 0.1, cl__5};
Point(19) = {38.897532, 4.111376, 0.1, cl__6};
Point(20) = {38.897532, 4.111376, 0, cl__6};
p13 = newp;
Point(p13 + 1) = {4.620168151997196, -2.216081722073681, 0.1};
Point(p13 + 2) = {4.594892779339395, -2.110802218153196, 0.1};
Point(p13 + 3) = {4.553459245585587, -2.010772819027709, 0.1};
Point(p13 + 4) = {4.496887781846803, -1.91845658048223, 0.1};
Point(p13 + 5) = {4.426571365310219, -1.836126634689781, 0.1};
Point(p13 + 6) = {4.34424141951777, -1.765810218153196, 0.1};
Point(p13 + 7) = {4.251925180972291, -1.709238754414413, 0.1};
Point(p13 + 8) = {4.151895781846804, -1.667805220660604, 0.1};
Point(p13 + 9) = {4.046616277926319, -1.642529848002804, 0.1};
Point(p13 + 10) = {3.938679, -1.634035, 0.1};
Point(p13 + 11) = {3.830741722073681, -1.642529848002804, 0.1};
Point(p13 + 12) = {3.725462218153196, -1.667805220660604, 0.1};
Point(p13 + 13) = {3.625432819027709, -1.709238754414413, 0.1};
Point(p13 + 14) = {3.53311658048223, -1.765810218153196, 0.1};
Point(p13 + 15) = {3.450786634689781, -1.836126634689781, 0.1};
Point(p13 + 16) = {3.380470218153196, -1.91845658048223, 0.1};
Point(p13 + 17) = {3.323898754414413, -2.010772819027708, 0.1};
Point(p13 + 18) = {3.282465220660605, -2.110802218153196, 0.1};
Point(p13 + 19) = {3.257189848002804, -2.216081722073681, 0.1};
Point(p13 + 20) = {3.248695, -2.324019, 0.1};
Point(p13 + 21) = {3.257189848002804, -2.431956277926318, 0.1};
Point(p13 + 22) = {3.282465220660605, -2.537235781846804, 0.1};
Point(p13 + 23) = {3.323898754414413, -2.637265180972291, 0.1};
Point(p13 + 24) = {3.380470218153196, -2.729581419517769, 0.1};
Point(p13 + 25) = {3.450786634689781, -2.811911365310219, 0.1};
Point(p13 + 26) = {3.53311658048223, -2.882227781846804, 0.1};
Point(p13 + 27) = {3.625432819027708, -2.938799245585586, 0.1};
Point(p13 + 28) = {3.725462218153196, -2.980232779339395, 0.1};
Point(p13 + 29) = {3.830741722073681, -3.005508151997195, 0.1};
Point(p13 + 30) = {3.938679, -3.014003, 0.1};
Point(p13 + 31) = {4.046616277926319, -3.005508151997196, 0.1};
Point(p13 + 32) = {4.151895781846804, -2.980232779339395, 0.1};
Point(p13 + 33) = {4.251925180972291, -2.938799245585587, 0.1};
Point(p13 + 34) = {4.34424141951777, -2.882227781846804, 0.1};
Point(p13 + 35) = {4.426571365310219, -2.811911365310219, 0.1};
Point(p13 + 36) = {4.496887781846803, -2.72958141951777, 0.1};
Point(p13 + 37) = {4.553459245585587, -2.637265180972292, 0.1};
Point(p13 + 38) = {4.594892779339395, -2.537235781846804, 0.1};
Point(p13 + 39) = {4.620168151997196, -2.431956277926319, 0.1};
Spline(13) = {9, p13 + 1, p13 + 2, p13 + 3, p13 + 4, p13 + 5, p13 + 6, p13 + 7, p13 + 8, p13 + 9, p13 + 10, p13 + 11, p13 + 12, p13 + 13, p13 + 14, p13 + 15, p13 + 16, p13 + 17, p13 + 18, p13 + 19, p13 + 20, p13 + 21, p13 + 22, p13 + 23, p13 + 24, p13 + 25, p13 + 26, p13 + 27, p13 + 28, p13 + 29, p13 + 30, p13 + 31, p13 + 32, p13 + 33, p13 + 34, p13 + 35, p13 + 36, p13 + 37, p13 + 38, p13 + 39, 9};
Line(14) = {10, 9};
p15 = newp;
Point(p15 + 1) = {4.620168151997196, -2.216081722073681, 0};
Point(p15 + 2) = {4.594892779339395, -2.110802218153196, 0};
Point(p15 + 3) = {4.553459245585587, -2.010772819027709, 0};
Point(p15 + 4) = {4.496887781846803, -1.91845658048223, 0};
Point(p15 + 5) = {4.426571365310219, -1.836126634689781, 0};
Point(p15 + 6) = {4.34424141951777, -1.765810218153196, 0};
Point(p15 + 7) = {4.251925180972291, -1.709238754414413, 0};
Point(p15 + 8) = {4.151895781846804, -1.667805220660604, 0};
Point(p15 + 9) = {4.046616277926319, -1.642529848002804, 0};
Point(p15 + 10) = {3.938679, -1.634035, 0};
Point(p15 + 11) = {3.830741722073681, -1.642529848002804, 0};
Point(p15 + 12) = {3.725462218153196, -1.667805220660604, 0};
Point(p15 + 13) = {3.625432819027709, -1.709238754414413, 0};
Point(p15 + 14) = {3.53311658048223, -1.765810218153196, 0};
Point(p15 + 15) = {3.450786634689781, -1.836126634689781, 0};
Point(p15 + 16) = {3.380470218153196, -1.91845658048223, 0};
Point(p15 + 17) = {3.323898754414413, -2.010772819027708, 0};
Point(p15 + 18) = {3.282465220660605, -2.110802218153196, 0};
Point(p15 + 19) = {3.257189848002804, -2.216081722073681, 0};
Point(p15 + 20) = {3.248695, -2.324019, 0};
Point(p15 + 21) = {3.257189848002804, -2.431956277926318, 0};
Point(p15 + 22) = {3.282465220660605, -2.537235781846804, 0};
Point(p15 + 23) = {3.323898754414413, -2.637265180972291, 0};
Point(p15 + 24) = {3.380470218153196, -2.729581419517769, 0};
Point(p15 + 25) = {3.450786634689781, -2.811911365310219, 0};
Point(p15 + 26) = {3.53311658048223, -2.882227781846804, 0};
Point(p15 + 27) = {3.625432819027708, -2.938799245585586, 0};
Point(p15 + 28) = {3.725462218153196, -2.980232779339395, 0};
Point(p15 + 29) = {3.830741722073681, -3.005508151997195, 0};
Point(p15 + 30) = {3.938679, -3.014003, 0};
Point(p15 + 31) = {4.046616277926319, -3.005508151997196, 0};
Point(p15 + 32) = {4.151895781846804, -2.980232779339395, 0};
Point(p15 + 33) = {4.251925180972291, -2.938799245585587, 0};
Point(p15 + 34) = {4.34424141951777, -2.882227781846804, 0};
Point(p15 + 35) = {4.426571365310219, -2.811911365310219, 0};
Point(p15 + 36) = {4.496887781846803, -2.72958141951777, 0};
Point(p15 + 37) = {4.553459245585587, -2.637265180972292, 0};
Point(p15 + 38) = {4.594892779339395, -2.537235781846804, 0};
Point(p15 + 39) = {4.620168151997196, -2.431956277926319, 0};
Spline(15) = {10, p15 + 1, p15 + 2, p15 + 3, p15 + 4, p15 + 5, p15 + 6, p15 + 7, p15 + 8, p15 + 9, p15 + 10, p15 + 11, p15 + 12, p15 + 13, p15 + 14, p15 + 15, p15 + 16, p15 + 17, p15 + 18, p15 + 19, p15 + 20, p15 + 21, p15 + 22, p15 + 23, p15 + 24, p15 + 25, p15 + 26, p15 + 27, p15 + 28, p15 + 29, p15 + 30, p15 + 31, p15 + 32, p15 + 33, p15 + 34, p15 + 35, p15 + 36, p15 + 37, p15 + 38, p15 + 39, 10};
p16 = newp;
Point(p16 + 1) = {28.33406297903516, 1.944903324703393, 0.1};
Point(p16 + 2) = {28.28900678757362, 2.132575868639332, 0.1};
Point(p16 + 3) = {28.21514685858206, 2.310889510926649, 0.1};
Point(p16 + 4) = {28.11430186863933, 2.475453577903182, 0.1};
Point(p16 + 5) = {27.98895495608314, 2.622215956083143, 0.1};
Point(p16 + 6) = {27.84219257790318, 2.747562868639331, 0.1};
Point(p16 + 7) = {27.67762851092665, 2.848407858582064, 0.1};
Point(p16 + 8) = {27.49931486863933, 2.922267787573615, 0.1};
Point(p16 + 9) = {27.31164232470339, 2.967323979035164, 0.1};
Point(p16 + 10) = {27.119232, 2.982467, 0.1};
Point(p16 + 11) = {26.92682167529661, 2.967323979035164, 0.1};
Point(p16 + 12) = {26.73914913136067, 2.922267787573615, 0.1};
Point(p16 + 13) = {26.56083548907335, 2.848407858582064, 0.1};
Point(p16 + 14) = {26.39627142209682, 2.747562868639331, 0.1};
Point(p16 + 15) = {26.24950904391686, 2.622215956083143, 0.1};
Point(p16 + 16) = {26.12416213136067, 2.475453577903183, 0.1};
Point(p16 + 17) = {26.02331714141794, 2.310889510926649, 0.1};
Point(p16 + 18) = {25.94945721242638, 2.132575868639332, 0.1};
Point(p16 + 19) = {25.90440102096484, 1.944903324703393, 0.1};
Point(p16 + 20) = {25.889258, 1.752493, 0.1};
Point(p16 + 21) = {25.90440102096484, 1.560082675296607, 0.1};
Point(p16 + 22) = {25.94945721242638, 1.372410131360668, 0.1};
Point(p16 + 23) = {26.02331714141794, 1.194096489073351, 0.1};
Point(p16 + 24) = {26.12416213136067, 1.029532422096818, 0.1};
Point(p16 + 25) = {26.24950904391686, 0.8827700439168576, 0.1};
Point(p16 + 26) = {26.39627142209682, 0.7574231313606686, 0.1};
Point(p16 + 27) = {26.56083548907335, 0.6565781414179366, 0.1};
Point(p16 + 28) = {26.73914913136067, 0.582718212426385, 0.1};
Point(p16 + 29) = {26.92682167529661, 0.5376620209648364, 0.1};
Point(p16 + 30) = {27.119232, 0.5225190000000002, 0.1};
Point(p16 + 31) = {27.31164232470339, 0.5376620209648362, 0.1};
Point(p16 + 32) = {27.49931486863933, 0.5827182124263848, 0.1};
Point(p16 + 33) = {27.67762851092665, 0.6565781414179364, 0.1};
Point(p16 + 34) = {27.84219257790318, 0.7574231313606684, 0.1};
Point(p16 + 35) = {27.98895495608314, 0.8827700439168573, 0.1};
Point(p16 + 36) = {28.11430186863933, 1.029532422096818, 0.1};
Point(p16 + 37) = {28.21514685858206, 1.194096489073351, 0.1};
Point(p16 + 38) = {28.28900678757362, 1.372410131360668, 0.1};
Point(p16 + 39) = {28.33406297903516, 1.560082675296607, 0.1};
Spline(16) = {11, p16 + 1, p16 + 2, p16 + 3, p16 + 4, p16 + 5, p16 + 6, p16 + 7, p16 + 8, p16 + 9, p16 + 10, p16 + 11, p16 + 12, p16 + 13, p16 + 14, p16 + 15, p16 + 16, p16 + 17, p16 + 18, p16 + 19, p16 + 20, p16 + 21, p16 + 22, p16 + 23, p16 + 24, p16 + 25, p16 + 26, p16 + 27, p16 + 28, p16 + 29, p16 + 30, p16 + 31, p16 + 32, p16 + 33, p16 + 34, p16 + 35, p16 + 36, p16 + 37, p16 + 38, p16 + 39, 11};
Line(17) = {12, 11};
p18 = newp;
Point(p18 + 1) = {28.33406297903516, 1.944903324703393, 0};
Point(p18 + 2) = {28.28900678757362, 2.132575868639332, 0};
Point(p18 + 3) = {28.21514685858206, 2.310889510926649, 0};
Point(p18 + 4) = {28.11430186863933, 2.475453577903182, 0};
Point(p18 + 5) = {27.98895495608314, 2.622215956083143, 0};
Point(p18 + 6) = {27.84219257790318, 2.747562868639331, 0};
Point(p18 + 7) = {27.67762851092665, 2.848407858582064, 0};
Point(p18 + 8) = {27.49931486863933, 2.922267787573615, 0};
Point(p18 + 9) = {27.31164232470339, 2.967323979035164, 0};
Point(p18 + 10) = {27.119232, 2.982467, 0};
Point(p18 + 11) = {26.92682167529661, 2.967323979035164, 0};
Point(p18 + 12) = {26.73914913136067, 2.922267787573615, 0};
Point(p18 + 13) = {26.56083548907335, 2.848407858582064, 0};
Point(p18 + 14) = {26.39627142209682, 2.747562868639331, 0};
Point(p18 + 15) = {26.24950904391686, 2.622215956083143, 0};
Point(p18 + 16) = {26.12416213136067, 2.475453577903183, 0};
Point(p18 + 17) = {26.02331714141794, 2.310889510926649, 0};
Point(p18 + 18) = {25.94945721242638, 2.132575868639332, 0};
Point(p18 + 19) = {25.90440102096484, 1.944903324703393, 0};
Point(p18 + 20) = {25.889258, 1.752493, 0};
Point(p18 + 21) = {25.90440102096484, 1.560082675296607, 0};
Point(p18 + 22) = {25.94945721242638, 1.372410131360668, 0};
Point(p18 + 23) = {26.02331714141794, 1.194096489073351, 0};
Point(p18 + 24) = {26.12416213136067, 1.029532422096818, 0};
Point(p18 + 25) = {26.24950904391686, 0.8827700439168576, 0};
Point(p18 + 26) = {26.39627142209682, 0.7574231313606686, 0};
Point(p18 + 27) = {26.56083548907335, 0.6565781414179366, 0};
Point(p18 + 28) = {26.73914913136067, 0.582718212426385, 0};
Point(p18 + 29) = {26.92682167529661, 0.5376620209648364, 0};
Point(p18 + 30) = {27.119232, 0.5225190000000002, 0};
Point(p18 + 31) = {27.31164232470339, 0.5376620209648362, 0};
Point(p18 + 32) = {27.49931486863933, 0.5827182124263848, 0};
Point(p18 + 33) = {27.67762851092665, 0.6565781414179364, 0};
Point(p18 + 34) = {27.84219257790318, 0.7574231313606684, 0};
Point(p18 + 35) = {27.98895495608314, 0.8827700439168573, 0};
Point(p18 + 36) = {28.11430186863933, 1.029532422096818, 0};
Point(p18 + 37) = {28.21514685858206, 1.194096489073351, 0};
Point(p18 + 38) = {28.28900678757362, 1.372410131360668, 0};
Point(p18 + 39) = {28.33406297903516, 1.560082675296607, 0};
Spline(18) = {12, p18 + 1, p18 + 2, p18 + 3, p18 + 4, p18 + 5, p18 + 6, p18 + 7, p18 + 8, p18 + 9, p18 + 10, p18 + 11, p18 + 12, p18 + 13, p18 + 14, p18 + 15, p18 + 16, p18 + 17, p18 + 18, p18 + 19, p18 + 20, p18 + 21, p18 + 22, p18 + 23, p18 + 24, p18 + 25, p18 + 26, p18 + 27, p18 + 28, p18 + 29, p18 + 30, p18 + 31, p18 + 32, p18 + 33, p18 + 34, p18 + 35, p18 + 36, p18 + 37, p18 + 38, p18 + 39, 12};
Line(19) = {14, 13};
Line(20) = {13, 15};
Line(21) = {16, 15};
Line(22) = {14, 16};
Line(23) = {14, 17};
Line(24) = {17, 18};
Line(25) = {13, 18};
Line(26) = {15, 19};
Line(27) = {18, 19};
Line(28) = {16, 20};
Line(29) = {20, 19};
Line(30) = {17, 20};
Curve Loop(7) = {-13, -14, 15, 14};
Surface(7) = {7};
Curve Loop(8) = {13};
Plane Surface(8) = {8};
Curve Loop(9) = {15};
Plane Surface(9) = {9};
Curve Loop(10) = {-16, -17, 18, 17};
Surface(10) = {10};
Curve Loop(11) = {16};
Plane Surface(11) = {11};
Curve Loop(12) = {18};
Plane Surface(12) = {12};
Curve Loop(13) = {-19, 22, 21, -20};
Plane Surface(13) = {13};
Curve Loop(14) = {-23, 19, 25, -24};
Plane Surface(14) = {14};
Curve Loop(15) = {-20, 25, 27, -26, -13, -16};
Plane Surface(15) = {15};
Curve Loop(16) = {-28, 21, 26, -29};
Plane Surface(16) = {16};
Curve Loop(17) = {-22, 23, 30, -28, -15, -18};
Plane Surface(17) = {17};
Curve Loop(18) = {-24, 30, 29, -27};
Plane Surface(18) = {18};
Surface Loop(1) = {13, 14, 15, 16, 17, 18, 7, 10};
Volume(1) = {1};
Surface Loop(2) = {7, 8, 9};
Volume(2) = {2};
Surface Loop(3) = {10, 11, 12};
Volume(3) = {3};
Physical Surface("WALLS") = {13, 18};
Physical Surface("LOAD") = {8, 11};
Physical Surface("BORDER") = {7, 9, 10, 12, 14, 15, 16, 17};
Physical Volume("SOLID") = {1, 2, 3};
