cl__1 = 0.149396;
cl__2 = 0.121075;
cl__3 = 3.361684;
cl__4 = 3.741924;
cl__5 = 0.42598;
cl__6 = 0.523495;
Point(9) = {32.132269, -0.5023240000000003, 0.1, cl__1};
Point(10) = {32.132269, -0.5023240000000003, 0, cl__1};
Point(11) = {23.265811, -1.231440000000001, 0.1, cl__2};
Point(12) = {23.265811, -1.231440000000001, 0, cl__2};
Point(13) = {0.102416, -3.292065, 1, cl__3};
Point(14) = {0.102416, -3.292065, 0, cl__3};
Point(15) = {0.102416, 4.952207, 1, cl__4};
Point(16) = {0.102416, 4.952207, 0, cl__4};
Point(17) = {37.513455, -3.292065, 0, cl__5};
Point(18) = {37.513455, -3.292065, 1, cl__5};
Point(19) = {37.513455, 4.952207, 1, cl__6};
Point(20) = {37.513455, 4.952207, 0, cl__6};
p13 = newp;
Point(p13 + 1) = {32.11387589793883, -0.2686174794774268, 0.1};
Point(p13 + 2) = {32.05914949097128, -0.04066558911759238, 0.1};
Point(p13 + 3) = {31.96943732486341, 0.1759187390098937, 0.1};
Point(p13 + 4) = {31.84694841088241, 0.3758024799443586, 0.1};
Point(p13 + 5) = {31.69469883260789, 0.5540638326078919, 0.1};
Point(p13 + 6) = {31.51643747994436, 0.7063134108824074, 0.1};
Point(p13 + 7) = {31.31655373900989, 0.8288023248634055, 0.1};
Point(p13 + 8) = {31.09996941088241, 0.9185144909712748, 0.1};
Point(p13 + 9) = {30.87201752052258, 0.9732408979388307, 0.1};
Point(p13 + 10) = {30.638311, 0.9916339999999999, 0.1};
Point(p13 + 11) = {30.40460447947743, 0.9732408979388305, 0.1};
Point(p13 + 12) = {30.17665258911759, 0.918514490971275, 0.1};
Point(p13 + 13) = {29.96006826099011, 0.8288023248634055, 0.1};
Point(p13 + 14) = {29.76018452005564, 0.7063134108824076, 0.1};
Point(p13 + 15) = {29.58192316739211, 0.5540638326078922, 0.1};
Point(p13 + 16) = {29.42967358911759, 0.3758024799443587, 0.1};
Point(p13 + 17) = {29.3071846751366, 0.1759187390098939, 0.1};
Point(p13 + 18) = {29.21747250902873, -0.04066558911759222, 0.1};
Point(p13 + 19) = {29.16274610206117, -0.2686174794774266, 0.1};
Point(p13 + 20) = {29.144353, -0.5023239999999998, 0.1};
Point(p13 + 21) = {29.16274610206117, -0.736030520522573, 0.1};
Point(p13 + 22) = {29.21747250902873, -0.9639824108824081, 0.1};
Point(p13 + 23) = {29.3071846751366, -1.180566739009893, 0.1};
Point(p13 + 24) = {29.42967358911759, -1.380450479944358, 0.1};
Point(p13 + 25) = {29.58192316739211, -1.558711832607892, 0.1};
Point(p13 + 26) = {29.76018452005564, -1.710961410882407, 0.1};
Point(p13 + 27) = {29.96006826099011, -1.833450324863406, 0.1};
Point(p13 + 28) = {30.17665258911759, -1.923162490971275, 0.1};
Point(p13 + 29) = {30.40460447947743, -1.97788889793883, 0.1};
Point(p13 + 30) = {30.638311, -1.996282, 0.1};
Point(p13 + 31) = {30.87201752052258, -1.977888897938831, 0.1};
Point(p13 + 32) = {31.09996941088241, -1.923162490971275, 0.1};
Point(p13 + 33) = {31.31655373900989, -1.833450324863406, 0.1};
Point(p13 + 34) = {31.51643747994436, -1.710961410882408, 0.1};
Point(p13 + 35) = {31.69469883260789, -1.558711832607892, 0.1};
Point(p13 + 36) = {31.84694841088241, -1.380450479944359, 0.1};
Point(p13 + 37) = {31.96943732486341, -1.180566739009894, 0.1};
Point(p13 + 38) = {32.05914949097128, -0.963982410882408, 0.1};
Point(p13 + 39) = {32.11387589793883, -0.7360305205225736, 0.1};
Spline(13) = {9, p13 + 1, p13 + 2, p13 + 3, p13 + 4, p13 + 5, p13 + 6, p13 + 7, p13 + 8, p13 + 9, p13 + 10, p13 + 11, p13 + 12, p13 + 13, p13 + 14, p13 + 15, p13 + 16, p13 + 17, p13 + 18, p13 + 19, p13 + 20, p13 + 21, p13 + 22, p13 + 23, p13 + 24, p13 + 25, p13 + 26, p13 + 27, p13 + 28, p13 + 29, p13 + 30, p13 + 31, p13 + 32, p13 + 33, p13 + 34, p13 + 35, p13 + 36, p13 + 37, p13 + 38, p13 + 39, 9};
Line(14) = {10, 9};
p15 = newp;
Point(p15 + 1) = {32.11387589793883, -0.2686174794774268, 0};
Point(p15 + 2) = {32.05914949097128, -0.04066558911759238, 0};
Point(p15 + 3) = {31.96943732486341, 0.1759187390098937, 0};
Point(p15 + 4) = {31.84694841088241, 0.3758024799443586, 0};
Point(p15 + 5) = {31.69469883260789, 0.5540638326078919, 0};
Point(p15 + 6) = {31.51643747994436, 0.7063134108824074, 0};
Point(p15 + 7) = {31.31655373900989, 0.8288023248634055, 0};
Point(p15 + 8) = {31.09996941088241, 0.9185144909712748, 0};
Point(p15 + 9) = {30.87201752052258, 0.9732408979388307, 0};
Point(p15 + 10) = {30.638311, 0.9916339999999999, 0};
Point(p15 + 11) = {30.40460447947743, 0.9732408979388305, 0};
Point(p15 + 12) = {30.17665258911759, 0.918514490971275, 0};
Point(p15 + 13) = {29.96006826099011, 0.8288023248634055, 0};
Point(p15 + 14) = {29.76018452005564, 0.7063134108824076, 0};
Point(p15 + 15) = {29.58192316739211, 0.5540638326078922, 0};
Point(p15 + 16) = {29.42967358911759, 0.3758024799443587, 0};
Point(p15 + 17) = {29.3071846751366, 0.1759187390098939, 0};
Point(p15 + 18) = {29.21747250902873, -0.04066558911759222, 0};
Point(p15 + 19) = {29.16274610206117, -0.2686174794774266, 0};
Point(p15 + 20) = {29.144353, -0.5023239999999998, 0};
Point(p15 + 21) = {29.16274610206117, -0.736030520522573, 0};
Point(p15 + 22) = {29.21747250902873, -0.9639824108824081, 0};
Point(p15 + 23) = {29.3071846751366, -1.180566739009893, 0};
Point(p15 + 24) = {29.42967358911759, -1.380450479944358, 0};
Point(p15 + 25) = {29.58192316739211, -1.558711832607892, 0};
Point(p15 + 26) = {29.76018452005564, -1.710961410882407, 0};
Point(p15 + 27) = {29.96006826099011, -1.833450324863406, 0};
Point(p15 + 28) = {30.17665258911759, -1.923162490971275, 0};
Point(p15 + 29) = {30.40460447947743, -1.97788889793883, 0};
Point(p15 + 30) = {30.638311, -1.996282, 0};
Point(p15 + 31) = {30.87201752052258, -1.977888897938831, 0};
Point(p15 + 32) = {31.09996941088241, -1.923162490971275, 0};
Point(p15 + 33) = {31.31655373900989, -1.833450324863406, 0};
Point(p15 + 34) = {31.51643747994436, -1.710961410882408, 0};
Point(p15 + 35) = {31.69469883260789, -1.558711832607892, 0};
Point(p15 + 36) = {31.84694841088241, -1.380450479944359, 0};
Point(p15 + 37) = {31.96943732486341, -1.180566739009894, 0};
Point(p15 + 38) = {32.05914949097128, -0.963982410882408, 0};
Point(p15 + 39) = {32.11387589793883, -0.7360305205225736, 0};
Spline(15) = {10, p15 + 1, p15 + 2, p15 + 3, p15 + 4, p15 + 5, p15 + 6, p15 + 7, p15 + 8, p15 + 9, p15 + 10, p15 + 11, p15 + 12, p15 + 13, p15 + 14, p15 + 15, p15 + 16, p15 + 17, p15 + 18, p15 + 19, p15 + 20, p15 + 21, p15 + 22, p15 + 23, p15 + 24, p15 + 25, p15 + 26, p15 + 27, p15 + 28, p15 + 29, p15 + 30, p15 + 31, p15 + 32, p15 + 33, p15 + 34, p15 + 35, p15 + 36, p15 + 37, p15 + 38, p15 + 39, 10};
p16 = newp;
Point(p16 + 1) = {23.25090460912893, -1.04203634571468, 0.1};
Point(p16 + 2) = {23.20655248133042, -0.8572964379925549, 0.1};
Point(p16 + 3) = {23.13384671318716, -0.6817691864783448, 0.1};
Point(p16 + 4) = {23.03457756200745, -0.519776654645879, 0.1};
Point(p16 + 5) = {22.91118936374874, -0.375307636251263, 0.1};
Point(p16 + 6) = {22.76672034535412, -0.251919437992555, 0.1};
Point(p16 + 7) = {22.60472781352166, -0.152650286812837, 0.1};
Point(p16 + 8) = {22.42920056200744, -0.07994451866957775, 0.1};
Point(p16 + 9) = {22.24446065428532, -0.03559239087107446, 0.1};
Point(p16 + 10) = {22.055057, -0.02068599999999998, 0.1};
Point(p16 + 11) = {21.86565334571468, -0.03559239087107469, 0.1};
Point(p16 + 12) = {21.68091343799256, -0.07994451866957752, 0.1};
Point(p16 + 13) = {21.50538618647835, -0.1526502868128368, 0.1};
Point(p16 + 14) = {21.34339365464588, -0.2519194379925549, 0.1};
Point(p16 + 15) = {21.19892463625126, -0.3753076362512628, 0.1};
Point(p16 + 16) = {21.07553643799256, -0.5197766546458789, 0.1};
Point(p16 + 17) = {20.97626728681284, -0.6817691864783447, 0.1};
Point(p16 + 18) = {20.90356151866958, -0.8572964379925548, 0.1};
Point(p16 + 19) = {20.85920939087108, -1.04203634571468, 0.1};
Point(p16 + 20) = {20.844303, -1.23144, 0.1};
Point(p16 + 21) = {20.85920939087108, -1.42084365428532, 0.1};
Point(p16 + 22) = {20.90356151866958, -1.605583562007446, 0.1};
Point(p16 + 23) = {20.97626728681284, -1.781110813521655, 0.1};
Point(p16 + 24) = {21.07553643799256, -1.943103345354121, 0.1};
Point(p16 + 25) = {21.19892463625126, -2.087572363748737, 0.1};
Point(p16 + 26) = {21.34339365464588, -2.210960562007445, 0.1};
Point(p16 + 27) = {21.50538618647835, -2.310229713187163, 0.1};
Point(p16 + 28) = {21.68091343799255, -2.382935481330422, 0.1};
Point(p16 + 29) = {21.86565334571468, -2.427287609128926, 0.1};
Point(p16 + 30) = {22.055057, -2.442194, 0.1};
Point(p16 + 31) = {22.24446065428532, -2.427287609128926, 0.1};
Point(p16 + 32) = {22.42920056200744, -2.382935481330422, 0.1};
Point(p16 + 33) = {22.60472781352166, -2.310229713187163, 0.1};
Point(p16 + 34) = {22.76672034535412, -2.210960562007446, 0.1};
Point(p16 + 35) = {22.91118936374874, -2.087572363748738, 0.1};
Point(p16 + 36) = {23.03457756200745, -1.943103345354121, 0.1};
Point(p16 + 37) = {23.13384671318716, -1.781110813521656, 0.1};
Point(p16 + 38) = {23.20655248133042, -1.605583562007445, 0.1};
Point(p16 + 39) = {23.25090460912893, -1.42084365428532, 0.1};
Spline(16) = {11, p16 + 1, p16 + 2, p16 + 3, p16 + 4, p16 + 5, p16 + 6, p16 + 7, p16 + 8, p16 + 9, p16 + 10, p16 + 11, p16 + 12, p16 + 13, p16 + 14, p16 + 15, p16 + 16, p16 + 17, p16 + 18, p16 + 19, p16 + 20, p16 + 21, p16 + 22, p16 + 23, p16 + 24, p16 + 25, p16 + 26, p16 + 27, p16 + 28, p16 + 29, p16 + 30, p16 + 31, p16 + 32, p16 + 33, p16 + 34, p16 + 35, p16 + 36, p16 + 37, p16 + 38, p16 + 39, 11};
Line(17) = {12, 11};
p18 = newp;
Point(p18 + 1) = {23.25090460912893, -1.04203634571468, 0};
Point(p18 + 2) = {23.20655248133042, -0.8572964379925549, 0};
Point(p18 + 3) = {23.13384671318716, -0.6817691864783448, 0};
Point(p18 + 4) = {23.03457756200745, -0.519776654645879, 0};
Point(p18 + 5) = {22.91118936374874, -0.375307636251263, 0};
Point(p18 + 6) = {22.76672034535412, -0.251919437992555, 0};
Point(p18 + 7) = {22.60472781352166, -0.152650286812837, 0};
Point(p18 + 8) = {22.42920056200744, -0.07994451866957775, 0};
Point(p18 + 9) = {22.24446065428532, -0.03559239087107446, 0};
Point(p18 + 10) = {22.055057, -0.02068599999999998, 0};
Point(p18 + 11) = {21.86565334571468, -0.03559239087107469, 0};
Point(p18 + 12) = {21.68091343799256, -0.07994451866957752, 0};
Point(p18 + 13) = {21.50538618647835, -0.1526502868128368, 0};
Point(p18 + 14) = {21.34339365464588, -0.2519194379925549, 0};
Point(p18 + 15) = {21.19892463625126, -0.3753076362512628, 0};
Point(p18 + 16) = {21.07553643799256, -0.5197766546458789, 0};
Point(p18 + 17) = {20.97626728681284, -0.6817691864783447, 0};
Point(p18 + 18) = {20.90356151866958, -0.8572964379925548, 0};
Point(p18 + 19) = {20.85920939087108, -1.04203634571468, 0};
Point(p18 + 20) = {20.844303, -1.23144, 0};
Point(p18 + 21) = {20.85920939087108, -1.42084365428532, 0};
Point(p18 + 22) = {20.90356151866958, -1.605583562007446, 0};
Point(p18 + 23) = {20.97626728681284, -1.781110813521655, 0};
Point(p18 + 24) = {21.07553643799256, -1.943103345354121, 0};
Point(p18 + 25) = {21.19892463625126, -2.087572363748737, 0};
Point(p18 + 26) = {21.34339365464588, -2.210960562007445, 0};
Point(p18 + 27) = {21.50538618647835, -2.310229713187163, 0};
Point(p18 + 28) = {21.68091343799255, -2.382935481330422, 0};
Point(p18 + 29) = {21.86565334571468, -2.427287609128926, 0};
Point(p18 + 30) = {22.055057, -2.442194, 0};
Point(p18 + 31) = {22.24446065428532, -2.427287609128926, 0};
Point(p18 + 32) = {22.42920056200744, -2.382935481330422, 0};
Point(p18 + 33) = {22.60472781352166, -2.310229713187163, 0};
Point(p18 + 34) = {22.76672034535412, -2.210960562007446, 0};
Point(p18 + 35) = {22.91118936374874, -2.087572363748738, 0};
Point(p18 + 36) = {23.03457756200745, -1.943103345354121, 0};
Point(p18 + 37) = {23.13384671318716, -1.781110813521656, 0};
Point(p18 + 38) = {23.20655248133042, -1.605583562007445, 0};
Point(p18 + 39) = {23.25090460912893, -1.42084365428532, 0};
Spline(18) = {12, p18 + 1, p18 + 2, p18 + 3, p18 + 4, p18 + 5, p18 + 6, p18 + 7, p18 + 8, p18 + 9, p18 + 10, p18 + 11, p18 + 12, p18 + 13, p18 + 14, p18 + 15, p18 + 16, p18 + 17, p18 + 18, p18 + 19, p18 + 20, p18 + 21, p18 + 22, p18 + 23, p18 + 24, p18 + 25, p18 + 26, p18 + 27, p18 + 28, p18 + 29, p18 + 30, p18 + 31, p18 + 32, p18 + 33, p18 + 34, p18 + 35, p18 + 36, p18 + 37, p18 + 38, p18 + 39, 12};
Line(19) = {14, 13};
Line(20) = {13, 15};
Line(21) = {16, 15};
Line(22) = {14, 16};
Line(23) = {14, 17};
Line(24) = {17, 18};
Line(25) = {13, 18};
Line(26) = {15, 19};
Line(27) = {18, 19};
Line(28) = {16, 20};
Line(29) = {20, 19};
Line(30) = {17, 20};
Curve Loop(7) = {-13, -14, 15, 14};
Surface(7) = {7};
Curve Loop(8) = {13};
Plane Surface(8) = {8};
Curve Loop(9) = {15};
Plane Surface(9) = {9};
Curve Loop(10) = {-16, -17, 18, 17};
Surface(10) = {10};
Curve Loop(11) = {16};
Plane Surface(11) = {11};
Curve Loop(12) = {18};
Plane Surface(12) = {12};
Curve Loop(13) = {-19, 22, 21, -20};
Plane Surface(13) = {13};
Curve Loop(14) = {-23, 19, 25, -24};
Plane Surface(14) = {14};
Curve Loop(15) = {-20, 25, 27, -26};
Plane Surface(15) = {15};
Curve Loop(16) = {-28, 21, 26, -29};
Plane Surface(16) = {16};
Curve Loop(17) = {-22, 23, 30, -28, -18, -15};
Plane Surface(17) = {17};
Curve Loop(18) = {-24, 30, 29, -27};
Plane Surface(18) = {18};
Surface Loop(1) = {13, 14, 15, 16, 17, 18, 10, 7, 11, 8};
Volume(1) = {1};
Surface Loop(2) = {7, 8, 9};
Volume(2) = {2};
Surface Loop(3) = {10, 11, 12};
Volume(3) = {3};
Physical Surface("WALLS") = {13, 18};
Physical Surface("LOAD") = {8, 11};
Physical Surface("BORDER") = {7, 9, 10, 12, 14, 15, 16, 17};
Physical Volume("SOLID") = {1, 2, 3};
