cl__1 = 0.096204;
cl__2 = 0.11303;
cl__3 = 3.507486;
cl__4 = 4.130566;
cl__5 = 0.355082;
cl__6 = 0.521054;
Point(9) = {25.350648, -2.495643, 0.1, cl__1};
Point(10) = {25.350648, -2.495643, 0, cl__1};
Point(11) = {27.983425, -1.274625, 0.1, cl__2};
Point(12) = {27.983425, -1.274625, 0, cl__2};
Point(13) = {0.51346, -4.311162, 0.1, cl__3};
Point(14) = {0.51346, -4.311162, 0, cl__3};
Point(15) = {0.51346, 5.66553, 0.1, cl__4};
Point(16) = {0.51346, 5.66553, 0, cl__4};
Point(17) = {32.601668, -4.311162, 0, cl__5};
Point(18) = {32.601668, -4.311162, 0.1, cl__5};
Point(19) = {32.601668, 5.66553, 0.1, cl__6};
Point(20) = {32.601668, 5.66553, 0, cl__6};
p13 = newp;
Point(p13 + 1) = {25.33880365425117, -2.345146317949301, 0.1};
Point(p13 + 2) = {25.30356226410614, -2.198355363680542, 0.1};
Point(p13 + 3) = {25.24579158954975, -2.058884617659067, 0.1};
Point(p13 + 4) = {25.16691413631946, -1.930168312528792, 0.1};
Point(p13 + 5) = {25.06887212909305, -1.81537587090695, 0.1};
Point(p13 + 6) = {24.95407968747121, -1.717333863680542, 0.1};
Point(p13 + 7) = {24.82536338234093, -1.63845641045025, 0.1};
Point(p13 + 8) = {24.68589263631945, -1.580685735893861, 0.1};
Point(p13 + 9) = {24.5391016820507, -1.545444345748832, 0.1};
Point(p13 + 10) = {24.388605, -1.5336, 0.1};
Point(p13 + 11) = {24.2381083179493, -1.545444345748832, 0.1};
Point(p13 + 12) = {24.09131736368054, -1.580685735893861, 0.1};
Point(p13 + 13) = {23.95184661765906, -1.63845641045025, 0.1};
Point(p13 + 14) = {23.82313031252879, -1.717333863680542, 0.1};
Point(p13 + 15) = {23.70833787090695, -1.81537587090695, 0.1};
Point(p13 + 16) = {23.61029586368054, -1.930168312528792, 0.1};
Point(p13 + 17) = {23.53141841045025, -2.058884617659067, 0.1};
Point(p13 + 18) = {23.47364773589386, -2.198355363680542, 0.1};
Point(p13 + 19) = {23.43840634574883, -2.345146317949301, 0.1};
Point(p13 + 20) = {23.426562, -2.495643, 0.1};
Point(p13 + 21) = {23.43840634574883, -2.646139682050698, 0.1};
Point(p13 + 22) = {23.47364773589386, -2.792930636319458, 0.1};
Point(p13 + 23) = {23.53141841045025, -2.932401382340932, 0.1};
Point(p13 + 24) = {23.61029586368054, -3.061117687471207, 0.1};
Point(p13 + 25) = {23.70833787090695, -3.17591012909305, 0.1};
Point(p13 + 26) = {23.82313031252879, -3.273952136319457, 0.1};
Point(p13 + 27) = {23.95184661765906, -3.35282958954975, 0.1};
Point(p13 + 28) = {24.09131736368054, -3.410600264106138, 0.1};
Point(p13 + 29) = {24.2381083179493, -3.445841654251168, 0.1};
Point(p13 + 30) = {24.388605, -3.457686, 0.1};
Point(p13 + 31) = {24.5391016820507, -3.445841654251168, 0.1};
Point(p13 + 32) = {24.68589263631945, -3.410600264106138, 0.1};
Point(p13 + 33) = {24.82536338234093, -3.35282958954975, 0.1};
Point(p13 + 34) = {24.95407968747121, -3.273952136319457, 0.1};
Point(p13 + 35) = {25.06887212909305, -3.17591012909305, 0.1};
Point(p13 + 36) = {25.16691413631946, -3.061117687471208, 0.1};
Point(p13 + 37) = {25.24579158954975, -2.932401382340933, 0.1};
Point(p13 + 38) = {25.30356226410614, -2.792930636319458, 0.1};
Point(p13 + 39) = {25.33880365425117, -2.646139682050699, 0.1};
Spline(13) = {9, p13 + 1, p13 + 2, p13 + 3, p13 + 4, p13 + 5, p13 + 6, p13 + 7, p13 + 8, p13 + 9, p13 + 10, p13 + 11, p13 + 12, p13 + 13, p13 + 14, p13 + 15, p13 + 16, p13 + 17, p13 + 18, p13 + 19, p13 + 20, p13 + 21, p13 + 22, p13 + 23, p13 + 24, p13 + 25, p13 + 26, p13 + 27, p13 + 28, p13 + 29, p13 + 30, p13 + 31, p13 + 32, p13 + 33, p13 + 34, p13 + 35, p13 + 36, p13 + 37, p13 + 38, p13 + 39, 9};
Line(14) = {10, 9};
p15 = newp;
Point(p15 + 1) = {25.33880365425117, -2.345146317949301, 0};
Point(p15 + 2) = {25.30356226410614, -2.198355363680542, 0};
Point(p15 + 3) = {25.24579158954975, -2.058884617659067, 0};
Point(p15 + 4) = {25.16691413631946, -1.930168312528792, 0};
Point(p15 + 5) = {25.06887212909305, -1.81537587090695, 0};
Point(p15 + 6) = {24.95407968747121, -1.717333863680542, 0};
Point(p15 + 7) = {24.82536338234093, -1.63845641045025, 0};
Point(p15 + 8) = {24.68589263631945, -1.580685735893861, 0};
Point(p15 + 9) = {24.5391016820507, -1.545444345748832, 0};
Point(p15 + 10) = {24.388605, -1.5336, 0};
Point(p15 + 11) = {24.2381083179493, -1.545444345748832, 0};
Point(p15 + 12) = {24.09131736368054, -1.580685735893861, 0};
Point(p15 + 13) = {23.95184661765906, -1.63845641045025, 0};
Point(p15 + 14) = {23.82313031252879, -1.717333863680542, 0};
Point(p15 + 15) = {23.70833787090695, -1.81537587090695, 0};
Point(p15 + 16) = {23.61029586368054, -1.930168312528792, 0};
Point(p15 + 17) = {23.53141841045025, -2.058884617659067, 0};
Point(p15 + 18) = {23.47364773589386, -2.198355363680542, 0};
Point(p15 + 19) = {23.43840634574883, -2.345146317949301, 0};
Point(p15 + 20) = {23.426562, -2.495643, 0};
Point(p15 + 21) = {23.43840634574883, -2.646139682050698, 0};
Point(p15 + 22) = {23.47364773589386, -2.792930636319458, 0};
Point(p15 + 23) = {23.53141841045025, -2.932401382340932, 0};
Point(p15 + 24) = {23.61029586368054, -3.061117687471207, 0};
Point(p15 + 25) = {23.70833787090695, -3.17591012909305, 0};
Point(p15 + 26) = {23.82313031252879, -3.273952136319457, 0};
Point(p15 + 27) = {23.95184661765906, -3.35282958954975, 0};
Point(p15 + 28) = {24.09131736368054, -3.410600264106138, 0};
Point(p15 + 29) = {24.2381083179493, -3.445841654251168, 0};
Point(p15 + 30) = {24.388605, -3.457686, 0};
Point(p15 + 31) = {24.5391016820507, -3.445841654251168, 0};
Point(p15 + 32) = {24.68589263631945, -3.410600264106138, 0};
Point(p15 + 33) = {24.82536338234093, -3.35282958954975, 0};
Point(p15 + 34) = {24.95407968747121, -3.273952136319457, 0};
Point(p15 + 35) = {25.06887212909305, -3.17591012909305, 0};
Point(p15 + 36) = {25.16691413631946, -3.061117687471208, 0};
Point(p15 + 37) = {25.24579158954975, -2.932401382340933, 0};
Point(p15 + 38) = {25.30356226410614, -2.792930636319458, 0};
Point(p15 + 39) = {25.33880365425117, -2.646139682050699, 0};
Spline(15) = {10, p15 + 1, p15 + 2, p15 + 3, p15 + 4, p15 + 5, p15 + 6, p15 + 7, p15 + 8, p15 + 9, p15 + 10, p15 + 11, p15 + 12, p15 + 13, p15 + 14, p15 + 15, p15 + 16, p15 + 17, p15 + 18, p15 + 19, p15 + 20, p15 + 21, p15 + 22, p15 + 23, p15 + 24, p15 + 25, p15 + 26, p15 + 27, p15 + 28, p15 + 29, p15 + 30, p15 + 31, p15 + 32, p15 + 33, p15 + 34, p15 + 35, p15 + 36, p15 + 37, p15 + 38, p15 + 39, 10};
p16 = newp;
Point(p16 + 1) = {27.969509155998, -1.097807437033957, 0.1};
Point(p16 + 2) = {27.92810427825538, -0.9253437092919856, 0.1};
Point(p16 + 3) = {27.86022989227707, -0.7614804461253897, 0.1};
Point(p16 + 4) = {27.76755729070802, -0.610252504904322, 0.1};
Point(p16 + 5) = {27.65236838056159, -0.4753836194384077, 0.1};
Point(p16 + 6) = {27.51749949509568, -0.3601947092919856, 0.1};
Point(p16 + 7) = {27.36627155387461, -0.2675221077229362, 0.1};
Point(p16 + 8) = {27.20240829070801, -0.1996477217446204, 0.1};
Point(p16 + 9) = {27.02994456296604, -0.158242844001997, 0.1};
Point(p16 + 10) = {26.853127, -0.1443269999999999, 0.1};
Point(p16 + 11) = {26.67630943703396, -0.158242844001997, 0.1};
Point(p16 + 12) = {26.50384570929199, -0.1996477217446202, 0.1};
Point(p16 + 13) = {26.33998244612539, -0.2675221077229359, 0.1};
Point(p16 + 14) = {26.18875450490432, -0.3601947092919855, 0.1};
Point(p16 + 15) = {26.05388561943841, -0.4753836194384076, 0.1};
Point(p16 + 16) = {25.93869670929199, -0.6102525049043219, 0.1};
Point(p16 + 17) = {25.84602410772294, -0.7614804461253896, 0.1};
Point(p16 + 18) = {25.77814972174462, -0.9253437092919854, 0.1};
Point(p16 + 19) = {25.736744844002, -1.097807437033957, 0.1};
Point(p16 + 20) = {25.722829, -1.274625, 0.1};
Point(p16 + 21) = {25.736744844002, -1.451442562966043, 0.1};
Point(p16 + 22) = {25.77814972174462, -1.623906290708015, 0.1};
Point(p16 + 23) = {25.84602410772294, -1.78776955387461, 0.1};
Point(p16 + 24) = {25.93869670929199, -1.938997495095677, 0.1};
Point(p16 + 25) = {26.05388561943841, -2.073866380561592, 0.1};
Point(p16 + 26) = {26.18875450490432, -2.189055290708014, 0.1};
Point(p16 + 27) = {26.33998244612539, -2.281727892277064, 0.1};
Point(p16 + 28) = {26.50384570929199, -2.34960227825538, 0.1};
Point(p16 + 29) = {26.67630943703396, -2.391007155998003, 0.1};
Point(p16 + 30) = {26.853127, -2.404923, 0.1};
Point(p16 + 31) = {27.02994456296604, -2.391007155998003, 0.1};
Point(p16 + 32) = {27.20240829070801, -2.34960227825538, 0.1};
Point(p16 + 33) = {27.36627155387461, -2.281727892277064, 0.1};
Point(p16 + 34) = {27.51749949509568, -2.189055290708014, 0.1};
Point(p16 + 35) = {27.65236838056159, -2.073866380561592, 0.1};
Point(p16 + 36) = {27.76755729070802, -1.938997495095678, 0.1};
Point(p16 + 37) = {27.86022989227707, -1.78776955387461, 0.1};
Point(p16 + 38) = {27.92810427825538, -1.623906290708014, 0.1};
Point(p16 + 39) = {27.969509155998, -1.451442562966043, 0.1};
Spline(16) = {11, p16 + 1, p16 + 2, p16 + 3, p16 + 4, p16 + 5, p16 + 6, p16 + 7, p16 + 8, p16 + 9, p16 + 10, p16 + 11, p16 + 12, p16 + 13, p16 + 14, p16 + 15, p16 + 16, p16 + 17, p16 + 18, p16 + 19, p16 + 20, p16 + 21, p16 + 22, p16 + 23, p16 + 24, p16 + 25, p16 + 26, p16 + 27, p16 + 28, p16 + 29, p16 + 30, p16 + 31, p16 + 32, p16 + 33, p16 + 34, p16 + 35, p16 + 36, p16 + 37, p16 + 38, p16 + 39, 11};
Line(17) = {12, 11};
p18 = newp;
Point(p18 + 1) = {27.969509155998, -1.097807437033957, 0};
Point(p18 + 2) = {27.92810427825538, -0.9253437092919856, 0};
Point(p18 + 3) = {27.86022989227707, -0.7614804461253897, 0};
Point(p18 + 4) = {27.76755729070802, -0.610252504904322, 0};
Point(p18 + 5) = {27.65236838056159, -0.4753836194384077, 0};
Point(p18 + 6) = {27.51749949509568, -0.3601947092919856, 0};
Point(p18 + 7) = {27.36627155387461, -0.2675221077229362, 0};
Point(p18 + 8) = {27.20240829070801, -0.1996477217446204, 0};
Point(p18 + 9) = {27.02994456296604, -0.158242844001997, 0};
Point(p18 + 10) = {26.853127, -0.1443269999999999, 0};
Point(p18 + 11) = {26.67630943703396, -0.158242844001997, 0};
Point(p18 + 12) = {26.50384570929199, -0.1996477217446202, 0};
Point(p18 + 13) = {26.33998244612539, -0.2675221077229359, 0};
Point(p18 + 14) = {26.18875450490432, -0.3601947092919855, 0};
Point(p18 + 15) = {26.05388561943841, -0.4753836194384076, 0};
Point(p18 + 16) = {25.93869670929199, -0.6102525049043219, 0};
Point(p18 + 17) = {25.84602410772294, -0.7614804461253896, 0};
Point(p18 + 18) = {25.77814972174462, -0.9253437092919854, 0};
Point(p18 + 19) = {25.736744844002, -1.097807437033957, 0};
Point(p18 + 20) = {25.722829, -1.274625, 0};
Point(p18 + 21) = {25.736744844002, -1.451442562966043, 0};
Point(p18 + 22) = {25.77814972174462, -1.623906290708015, 0};
Point(p18 + 23) = {25.84602410772294, -1.78776955387461, 0};
Point(p18 + 24) = {25.93869670929199, -1.938997495095677, 0};
Point(p18 + 25) = {26.05388561943841, -2.073866380561592, 0};
Point(p18 + 26) = {26.18875450490432, -2.189055290708014, 0};
Point(p18 + 27) = {26.33998244612539, -2.281727892277064, 0};
Point(p18 + 28) = {26.50384570929199, -2.34960227825538, 0};
Point(p18 + 29) = {26.67630943703396, -2.391007155998003, 0};
Point(p18 + 30) = {26.853127, -2.404923, 0};
Point(p18 + 31) = {27.02994456296604, -2.391007155998003, 0};
Point(p18 + 32) = {27.20240829070801, -2.34960227825538, 0};
Point(p18 + 33) = {27.36627155387461, -2.281727892277064, 0};
Point(p18 + 34) = {27.51749949509568, -2.189055290708014, 0};
Point(p18 + 35) = {27.65236838056159, -2.073866380561592, 0};
Point(p18 + 36) = {27.76755729070802, -1.938997495095678, 0};
Point(p18 + 37) = {27.86022989227707, -1.78776955387461, 0};
Point(p18 + 38) = {27.92810427825538, -1.623906290708014, 0};
Point(p18 + 39) = {27.969509155998, -1.451442562966043, 0};
Spline(18) = {12, p18 + 1, p18 + 2, p18 + 3, p18 + 4, p18 + 5, p18 + 6, p18 + 7, p18 + 8, p18 + 9, p18 + 10, p18 + 11, p18 + 12, p18 + 13, p18 + 14, p18 + 15, p18 + 16, p18 + 17, p18 + 18, p18 + 19, p18 + 20, p18 + 21, p18 + 22, p18 + 23, p18 + 24, p18 + 25, p18 + 26, p18 + 27, p18 + 28, p18 + 29, p18 + 30, p18 + 31, p18 + 32, p18 + 33, p18 + 34, p18 + 35, p18 + 36, p18 + 37, p18 + 38, p18 + 39, 12};
Line(19) = {14, 13};
Line(20) = {13, 15};
Line(21) = {16, 15};
Line(22) = {14, 16};
Line(23) = {14, 17};
Line(24) = {17, 18};
Line(25) = {13, 18};
Line(26) = {15, 19};
Line(27) = {18, 19};
Line(28) = {16, 20};
Line(29) = {20, 19};
Line(30) = {17, 20};
Curve Loop(7) = {-13, -14, 15, 14};
Surface(7) = {7};
Curve Loop(8) = {13};
Plane Surface(8) = {8};
Curve Loop(9) = {15};
Plane Surface(9) = {9};
Curve Loop(10) = {-16, -17, 18, 17};
Surface(10) = {10};
Curve Loop(11) = {16};
Plane Surface(11) = {11};
Curve Loop(12) = {18};
Plane Surface(12) = {12};
Curve Loop(13) = {-19, 22, 21, -20};
Plane Surface(13) = {13};
Curve Loop(14) = {-23, 19, 25, -24};
Plane Surface(14) = {14};
Curve Loop(15) = {-20, 25, 27, -26, -13, -16};
Plane Surface(15) = {15};
Curve Loop(16) = {-28, 21, 26, -29};
Plane Surface(16) = {16};
Curve Loop(17) = {-22, 23, 30, -28, -15, -18};
Plane Surface(17) = {17};
Curve Loop(18) = {-24, 30, 29, -27};
Plane Surface(18) = {18};
Surface Loop(1) = {13, 14, 15, 16, 17, 18, 7, 10};
Volume(1) = {1};
Surface Loop(2) = {7, 8, 9};
Volume(2) = {2};
Surface Loop(3) = {10, 11, 12};
Volume(3) = {3};
Physical Surface("WALLS") = {13, 18};
Physical Surface("LOAD") = {8, 11};
Physical Surface("BORDER") = {7, 9, 10, 12, 14, 15, 16, 17};
Physical Volume("SOLID") = {1, 2, 3};
