cl__1 = 0.125988;
cl__2 = 0.136425;
cl__3 = 1.682496;
cl__4 = 1.382328;
cl__5 = 0.870325;
cl__6 = 0.82634;
Point(9) = {19.059944, 2.391928, 0.1, cl__1};
Point(10) = {19.059944, 2.391928, 0, cl__1};
Point(11) = {24.250227, 1.170572, 0.1, cl__2};
Point(12) = {24.250227, 1.170572, 0, cl__2};
Point(13) = {0.146444, -4.502997, 0.1, cl__3};
Point(14) = {0.146444, -4.502997, 0, cl__3};
Point(15) = {0.146444, 4.897540999999999, 0.1, cl__4};
Point(16) = {0.146444, 4.897540999999999, 0, cl__4};
Point(17) = {36.02399, -4.502997, 0, cl__5};
Point(18) = {36.02399, -4.502997, 0.1, cl__5};
Point(19) = {36.02399, 4.897540999999999, 0.1, cl__6};
Point(20) = {36.02399, 4.897540999999999, 0, cl__6};
p13 = newp;
Point(p13 + 1) = {19.04443282348398, 2.589016184511491, 0.1};
Point(p13 + 2) = {18.99828123058039, 2.781251403822126, 0.1};
Point(p13 + 3) = {18.92262562667487, 2.963900188840361, 0.1};
Point(p13 + 4) = {18.81932890382213, 3.132465120302484, 0.1};
Point(p13 + 5) = {18.69093457016096, 3.282795570160964, 0.1};
Point(p13 + 6) = {18.54060412030248, 3.411189903822126, 0.1};
Point(p13 + 7) = {18.37203918884036, 3.514486626674868, 0.1};
Point(p13 + 8) = {18.18939040382212, 3.590142230580389, 0.1};
Point(p13 + 9) = {17.99715518451149, 3.63629382348398, 0.1};
Point(p13 + 10) = {17.800067, 3.651805, 0.1};
Point(p13 + 11) = {17.60297881548851, 3.63629382348398, 0.1};
Point(p13 + 12) = {17.41074359617787, 3.590142230580389, 0.1};
Point(p13 + 13) = {17.22809481115964, 3.514486626674868, 0.1};
Point(p13 + 14) = {17.05952987969751, 3.411189903822126, 0.1};
Point(p13 + 15) = {16.90919942983903, 3.282795570160964, 0.1};
Point(p13 + 16) = {16.78080509617787, 3.132465120302484, 0.1};
Point(p13 + 17) = {16.67750837332513, 2.963900188840361, 0.1};
Point(p13 + 18) = {16.60185276941961, 2.781251403822126, 0.1};
Point(p13 + 19) = {16.55570117651602, 2.589016184511491, 0.1};
Point(p13 + 20) = {16.54019, 2.391928, 0.1};
Point(p13 + 21) = {16.55570117651602, 2.194839815488509, 0.1};
Point(p13 + 22) = {16.60185276941961, 2.002604596177874, 0.1};
Point(p13 + 23) = {16.67750837332513, 1.81995581115964, 0.1};
Point(p13 + 24) = {16.78080509617787, 1.651390879697516, 0.1};
Point(p13 + 25) = {16.90919942983903, 1.501060429839036, 0.1};
Point(p13 + 26) = {17.05952987969751, 1.372666096177874, 0.1};
Point(p13 + 27) = {17.22809481115964, 1.269369373325132, 0.1};
Point(p13 + 28) = {17.41074359617787, 1.193713769419611, 0.1};
Point(p13 + 29) = {17.60297881548851, 1.14756217651602, 0.1};
Point(p13 + 30) = {17.800067, 1.132051, 0.1};
Point(p13 + 31) = {17.99715518451149, 1.14756217651602, 0.1};
Point(p13 + 32) = {18.18939040382212, 1.193713769419611, 0.1};
Point(p13 + 33) = {18.37203918884036, 1.269369373325132, 0.1};
Point(p13 + 34) = {18.54060412030248, 1.372666096177874, 0.1};
Point(p13 + 35) = {18.69093457016096, 1.501060429839036, 0.1};
Point(p13 + 36) = {18.81932890382213, 1.651390879697516, 0.1};
Point(p13 + 37) = {18.92262562667486, 1.819955811159639, 0.1};
Point(p13 + 38) = {18.99828123058039, 2.002604596177874, 0.1};
Point(p13 + 39) = {19.04443282348398, 2.194839815488509, 0.1};
Spline(13) = {9, p13 + 1, p13 + 2, p13 + 3, p13 + 4, p13 + 5, p13 + 6, p13 + 7, p13 + 8, p13 + 9, p13 + 10, p13 + 11, p13 + 12, p13 + 13, p13 + 14, p13 + 15, p13 + 16, p13 + 17, p13 + 18, p13 + 19, p13 + 20, p13 + 21, p13 + 22, p13 + 23, p13 + 24, p13 + 25, p13 + 26, p13 + 27, p13 + 28, p13 + 29, p13 + 30, p13 + 31, p13 + 32, p13 + 33, p13 + 34, p13 + 35, p13 + 36, p13 + 37, p13 + 38, p13 + 39, 9};
Line(14) = {10, 9};
p15 = newp;
Point(p15 + 1) = {19.04443282348398, 2.589016184511491, 0};
Point(p15 + 2) = {18.99828123058039, 2.781251403822126, 0};
Point(p15 + 3) = {18.92262562667487, 2.963900188840361, 0};
Point(p15 + 4) = {18.81932890382213, 3.132465120302484, 0};
Point(p15 + 5) = {18.69093457016096, 3.282795570160964, 0};
Point(p15 + 6) = {18.54060412030248, 3.411189903822126, 0};
Point(p15 + 7) = {18.37203918884036, 3.514486626674868, 0};
Point(p15 + 8) = {18.18939040382212, 3.590142230580389, 0};
Point(p15 + 9) = {17.99715518451149, 3.63629382348398, 0};
Point(p15 + 10) = {17.800067, 3.651805, 0};
Point(p15 + 11) = {17.60297881548851, 3.63629382348398, 0};
Point(p15 + 12) = {17.41074359617787, 3.590142230580389, 0};
Point(p15 + 13) = {17.22809481115964, 3.514486626674868, 0};
Point(p15 + 14) = {17.05952987969751, 3.411189903822126, 0};
Point(p15 + 15) = {16.90919942983903, 3.282795570160964, 0};
Point(p15 + 16) = {16.78080509617787, 3.132465120302484, 0};
Point(p15 + 17) = {16.67750837332513, 2.963900188840361, 0};
Point(p15 + 18) = {16.60185276941961, 2.781251403822126, 0};
Point(p15 + 19) = {16.55570117651602, 2.589016184511491, 0};
Point(p15 + 20) = {16.54019, 2.391928, 0};
Point(p15 + 21) = {16.55570117651602, 2.194839815488509, 0};
Point(p15 + 22) = {16.60185276941961, 2.002604596177874, 0};
Point(p15 + 23) = {16.67750837332513, 1.81995581115964, 0};
Point(p15 + 24) = {16.78080509617787, 1.651390879697516, 0};
Point(p15 + 25) = {16.90919942983903, 1.501060429839036, 0};
Point(p15 + 26) = {17.05952987969751, 1.372666096177874, 0};
Point(p15 + 27) = {17.22809481115964, 1.269369373325132, 0};
Point(p15 + 28) = {17.41074359617787, 1.193713769419611, 0};
Point(p15 + 29) = {17.60297881548851, 1.14756217651602, 0};
Point(p15 + 30) = {17.800067, 1.132051, 0};
Point(p15 + 31) = {17.99715518451149, 1.14756217651602, 0};
Point(p15 + 32) = {18.18939040382212, 1.193713769419611, 0};
Point(p15 + 33) = {18.37203918884036, 1.269369373325132, 0};
Point(p15 + 34) = {18.54060412030248, 1.372666096177874, 0};
Point(p15 + 35) = {18.69093457016096, 1.501060429839036, 0};
Point(p15 + 36) = {18.81932890382213, 1.651390879697516, 0};
Point(p15 + 37) = {18.92262562667486, 1.819955811159639, 0};
Point(p15 + 38) = {18.99828123058039, 2.002604596177874, 0};
Point(p15 + 39) = {19.04443282348398, 2.194839815488509, 0};
Spline(15) = {10, p15 + 1, p15 + 2, p15 + 3, p15 + 4, p15 + 5, p15 + 6, p15 + 7, p15 + 8, p15 + 9, p15 + 10, p15 + 11, p15 + 12, p15 + 13, p15 + 14, p15 + 15, p15 + 16, p15 + 17, p15 + 18, p15 + 19, p15 + 20, p15 + 21, p15 + 22, p15 + 23, p15 + 24, p15 + 25, p15 + 26, p15 + 27, p15 + 28, p15 + 29, p15 + 30, p15 + 31, p15 + 32, p15 + 33, p15 + 34, p15 + 35, p15 + 36, p15 + 37, p15 + 38, p15 + 39, 10};
p16 = newp;
Point(p16 + 1) = {24.23343085559189, 1.38398724962774, 0.1};
Point(p16 + 2) = {24.18345599918612, 1.592147507525039, 0.1};
Point(p16 + 3) = {24.10153297760441, 1.789927177298178, 0.1};
Point(p16 + 4) = {23.98967900752504, 1.97245626708425, 0.1};
Point(p16 + 5) = {23.8506483049134, 2.135240304913404, 0.1};
Point(p16 + 6) = {23.68786426708425, 2.274271007525039, 0.1};
Point(p16 + 7) = {23.50533517729818, 2.386124977604408, 0.1};
Point(p16 + 8) = {23.30755550752504, 2.468047999186114, 0.1};
Point(p16 + 9) = {23.09939524962774, 2.518022855591895, 0.1};
Point(p16 + 10) = {22.88598, 2.534819, 0.1};
Point(p16 + 11) = {22.67256475037226, 2.518022855591894, 0.1};
Point(p16 + 12) = {22.46440449247496, 2.468047999186115, 0.1};
Point(p16 + 13) = {22.26662482270182, 2.386124977604408, 0.1};
Point(p16 + 14) = {22.08409573291575, 2.274271007525039, 0.1};
Point(p16 + 15) = {21.9213116950866, 2.135240304913404, 0.1};
Point(p16 + 16) = {21.78228099247496, 1.97245626708425, 0.1};
Point(p16 + 17) = {21.67042702239559, 1.789927177298178, 0.1};
Point(p16 + 18) = {21.58850400081388, 1.592147507525039, 0.1};
Point(p16 + 19) = {21.53852914440811, 1.38398724962774, 0.1};
Point(p16 + 20) = {21.521733, 1.170572, 0.1};
Point(p16 + 21) = {21.53852914440811, 0.9571567503722602, 0.1};
Point(p16 + 22) = {21.58850400081388, 0.7489964924749606, 0.1};
Point(p16 + 23) = {21.67042702239559, 0.5512168227018232, 0.1};
Point(p16 + 24) = {21.78228099247496, 0.3686877329157505, 0.1};
Point(p16 + 25) = {21.9213116950866, 0.2059036950865961, 0.1};
Point(p16 + 26) = {22.08409573291575, 0.06687299247496115, 0.1};
Point(p16 + 27) = {22.26662482270182, -0.04498097760440833, 0.1};
Point(p16 + 28) = {22.46440449247496, -0.1269039991861143, 0.1};
Point(p16 + 29) = {22.67256475037226, -0.1768788555918948, 0.1};
Point(p16 + 30) = {22.88598, -0.193675, 0.1};
Point(p16 + 31) = {23.09939524962774, -0.176878855591895, 0.1};
Point(p16 + 32) = {23.30755550752504, -0.1269039991861145, 0.1};
Point(p16 + 33) = {23.50533517729818, -0.04498097760440856, 0.1};
Point(p16 + 34) = {23.68786426708425, 0.06687299247496092, 0.1};
Point(p16 + 35) = {23.8506483049134, 0.2059036950865958, 0.1};
Point(p16 + 36) = {23.98967900752504, 0.3686877329157502, 0.1};
Point(p16 + 37) = {24.10153297760441, 0.5512168227018223, 0.1};
Point(p16 + 38) = {24.18345599918612, 0.7489964924749608, 0.1};
Point(p16 + 39) = {24.23343085559189, 0.9571567503722598, 0.1};
Spline(16) = {11, p16 + 1, p16 + 2, p16 + 3, p16 + 4, p16 + 5, p16 + 6, p16 + 7, p16 + 8, p16 + 9, p16 + 10, p16 + 11, p16 + 12, p16 + 13, p16 + 14, p16 + 15, p16 + 16, p16 + 17, p16 + 18, p16 + 19, p16 + 20, p16 + 21, p16 + 22, p16 + 23, p16 + 24, p16 + 25, p16 + 26, p16 + 27, p16 + 28, p16 + 29, p16 + 30, p16 + 31, p16 + 32, p16 + 33, p16 + 34, p16 + 35, p16 + 36, p16 + 37, p16 + 38, p16 + 39, 11};
Line(17) = {12, 11};
p18 = newp;
Point(p18 + 1) = {24.23343085559189, 1.38398724962774, 0};
Point(p18 + 2) = {24.18345599918612, 1.592147507525039, 0};
Point(p18 + 3) = {24.10153297760441, 1.789927177298178, 0};
Point(p18 + 4) = {23.98967900752504, 1.97245626708425, 0};
Point(p18 + 5) = {23.8506483049134, 2.135240304913404, 0};
Point(p18 + 6) = {23.68786426708425, 2.274271007525039, 0};
Point(p18 + 7) = {23.50533517729818, 2.386124977604408, 0};
Point(p18 + 8) = {23.30755550752504, 2.468047999186114, 0};
Point(p18 + 9) = {23.09939524962774, 2.518022855591895, 0};
Point(p18 + 10) = {22.88598, 2.534819, 0};
Point(p18 + 11) = {22.67256475037226, 2.518022855591894, 0};
Point(p18 + 12) = {22.46440449247496, 2.468047999186115, 0};
Point(p18 + 13) = {22.26662482270182, 2.386124977604408, 0};
Point(p18 + 14) = {22.08409573291575, 2.274271007525039, 0};
Point(p18 + 15) = {21.9213116950866, 2.135240304913404, 0};
Point(p18 + 16) = {21.78228099247496, 1.97245626708425, 0};
Point(p18 + 17) = {21.67042702239559, 1.789927177298178, 0};
Point(p18 + 18) = {21.58850400081388, 1.592147507525039, 0};
Point(p18 + 19) = {21.53852914440811, 1.38398724962774, 0};
Point(p18 + 20) = {21.521733, 1.170572, 0};
Point(p18 + 21) = {21.53852914440811, 0.9571567503722602, 0};
Point(p18 + 22) = {21.58850400081388, 0.7489964924749606, 0};
Point(p18 + 23) = {21.67042702239559, 0.5512168227018232, 0};
Point(p18 + 24) = {21.78228099247496, 0.3686877329157505, 0};
Point(p18 + 25) = {21.9213116950866, 0.2059036950865961, 0};
Point(p18 + 26) = {22.08409573291575, 0.06687299247496115, 0};
Point(p18 + 27) = {22.26662482270182, -0.04498097760440833, 0};
Point(p18 + 28) = {22.46440449247496, -0.1269039991861143, 0};
Point(p18 + 29) = {22.67256475037226, -0.1768788555918948, 0};
Point(p18 + 30) = {22.88598, -0.193675, 0};
Point(p18 + 31) = {23.09939524962774, -0.176878855591895, 0};
Point(p18 + 32) = {23.30755550752504, -0.1269039991861145, 0};
Point(p18 + 33) = {23.50533517729818, -0.04498097760440856, 0};
Point(p18 + 34) = {23.68786426708425, 0.06687299247496092, 0};
Point(p18 + 35) = {23.8506483049134, 0.2059036950865958, 0};
Point(p18 + 36) = {23.98967900752504, 0.3686877329157502, 0};
Point(p18 + 37) = {24.10153297760441, 0.5512168227018223, 0};
Point(p18 + 38) = {24.18345599918612, 0.7489964924749608, 0};
Point(p18 + 39) = {24.23343085559189, 0.9571567503722598, 0};
Spline(18) = {12, p18 + 1, p18 + 2, p18 + 3, p18 + 4, p18 + 5, p18 + 6, p18 + 7, p18 + 8, p18 + 9, p18 + 10, p18 + 11, p18 + 12, p18 + 13, p18 + 14, p18 + 15, p18 + 16, p18 + 17, p18 + 18, p18 + 19, p18 + 20, p18 + 21, p18 + 22, p18 + 23, p18 + 24, p18 + 25, p18 + 26, p18 + 27, p18 + 28, p18 + 29, p18 + 30, p18 + 31, p18 + 32, p18 + 33, p18 + 34, p18 + 35, p18 + 36, p18 + 37, p18 + 38, p18 + 39, 12};
Line(19) = {14, 13};
Line(20) = {13, 15};
Line(21) = {16, 15};
Line(22) = {14, 16};
Line(23) = {14, 17};
Line(24) = {17, 18};
Line(25) = {13, 18};
Line(26) = {15, 19};
Line(27) = {18, 19};
Line(28) = {16, 20};
Line(29) = {20, 19};
Line(30) = {17, 20};
Curve Loop(7) = {-13, -14, 15, 14};
Surface(7) = {7};
Curve Loop(8) = {13};
Plane Surface(8) = {8};
Curve Loop(9) = {15};
Plane Surface(9) = {9};
Curve Loop(10) = {-16, -17, 18, 17};
Surface(10) = {10};
Curve Loop(11) = {16};
Plane Surface(11) = {11};
Curve Loop(12) = {18};
Plane Surface(12) = {12};
Curve Loop(13) = {-19, 22, 21, -20};
Plane Surface(13) = {13};
Curve Loop(14) = {-23, 19, 25, -24};
Plane Surface(14) = {14};
Curve Loop(15) = {-20, 25, 27, -26, -16, -13};
Plane Surface(15) = {15};
Curve Loop(16) = {-28, 21, 26, -29};
Plane Surface(16) = {16};
Curve Loop(17) = {-22, 23, 30, -28, -18, -15};
Plane Surface(17) = {17};
Curve Loop(18) = {-24, 30, 29, -27};
Plane Surface(18) = {18};
Surface Loop(1) = {13, 14, 15, 16, 17, 18, 10, 7};
Volume(1) = {1};
Surface Loop(2) = {7, 8, 9};
Volume(2) = {2};
Surface Loop(3) = {10, 11, 12};
Volume(3) = {3};
Physical Surface("WALLS") = {13, 18};
Physical Surface("LOAD") = {8, 11};
Physical Surface("BORDER") = {7, 9, 10, 12, 14, 15, 16, 17};
Physical Volume("SOLID") = {1, 2, 3};
