cl__1 = 0.065086;
cl__2 = 0.100455;
cl__3 = 0.63201;
cl__4 = 0.643706;
cl__5 = 2.611983;
cl__6 = 2.444585;
Point(9) = {12.900439, -0.2224970000000002, 0.1, cl__1};
Point(10) = {12.900439, -0.2224970000000002, 0, cl__1};
Point(11) = {14.088896, 1.956614, 0.1, cl__2};
Point(12) = {14.088896, 1.956614, 0, cl__2};
Point(13) = {0.895877, -4.115063, 0.1, cl__3};
Point(14) = {0.895877, -4.115063, 0, cl__3};
Point(15) = {0.895877, 5.014531000000001, 0.1, cl__4};
Point(16) = {0.895877, 5.014531000000001, 0, cl__4};
Point(17) = {38.098159, -4.115063, 0, cl__5};
Point(18) = {38.098159, -4.115063, 0.1, cl__5};
Point(19) = {38.098159, 5.014531000000001, 0.1, cl__6};
Point(20) = {38.098159, 5.014531000000001, 0, cl__6};
p13 = newp;
Point(p13 + 1) = {12.89242582104809, -0.1206799076494503, 0.1};
Point(p13 + 2) = {12.86858359525238, -0.02136989002412737, 0.1};
Point(p13 + 3) = {12.82949939733976, 0.07298771065098114, 0.1};
Point(p13 + 4) = {12.77613560997587, 0.1600694970923314, 0.1};
Point(p13 + 5) = {12.70980622670986, 0.2377312267098575, 0.1};
Point(p13 + 6) = {12.63214449709233, 0.3040606099758726, 0.1};
Point(p13 + 7) = {12.54506271065098, 0.3574243973397652, 0.1};
Point(p13 + 8) = {12.45070510997587, 0.39650859525238, 0.1};
Point(p13 + 9) = {12.35139509235055, 0.420350821048092, 0.1};
Point(p13 + 10) = {12.249578, 0.428364, 0.1};
Point(p13 + 11) = {12.14776090764945, 0.4203508210480919, 0.1};
Point(p13 + 12) = {12.04845089002413, 0.39650859525238, 0.1};
Point(p13 + 13) = {11.95409328934902, 0.3574243973397653, 0.1};
Point(p13 + 14) = {11.86701150290767, 0.3040606099758726, 0.1};
Point(p13 + 15) = {11.78934977329014, 0.2377312267098576, 0.1};
Point(p13 + 16) = {11.72302039002413, 0.1600694970923314, 0.1};
Point(p13 + 17) = {11.66965660266023, 0.0729877106509812, 0.1};
Point(p13 + 18) = {11.63057240474762, -0.02136989002412729, 0.1};
Point(p13 + 19) = {11.60673017895191, -0.1206799076494502, 0.1};
Point(p13 + 20) = {11.598717, -0.2224969999999999, 0.1};
Point(p13 + 21) = {11.60673017895191, -0.3243140923505496, 0.1};
Point(p13 + 22) = {11.63057240474762, -0.4236241099758729, 0.1};
Point(p13 + 23) = {11.66965660266023, -0.5179817106509809, 0.1};
Point(p13 + 24) = {11.72302039002413, -0.6050634970923313, 0.1};
Point(p13 + 25) = {11.78934977329014, -0.6827252267098575, 0.1};
Point(p13 + 26) = {11.86701150290767, -0.7490546099758726, 0.1};
Point(p13 + 27) = {11.95409328934902, -0.8024183973397652, 0.1};
Point(p13 + 28) = {12.04845089002413, -0.84150259525238, 0.1};
Point(p13 + 29) = {12.14776090764945, -0.8653448210480919, 0.1};
Point(p13 + 30) = {12.249578, -0.8733580000000001, 0.1};
Point(p13 + 31) = {12.35139509235055, -0.8653448210480921, 0.1};
Point(p13 + 32) = {12.45070510997587, -0.84150259525238, 0.1};
Point(p13 + 33) = {12.54506271065098, -0.8024183973397654, 0.1};
Point(p13 + 34) = {12.63214449709233, -0.7490546099758728, 0.1};
Point(p13 + 35) = {12.70980622670986, -0.6827252267098576, 0.1};
Point(p13 + 36) = {12.77613560997587, -0.6050634970923314, 0.1};
Point(p13 + 37) = {12.82949939733976, -0.5179817106509813, 0.1};
Point(p13 + 38) = {12.86858359525238, -0.4236241099758728, 0.1};
Point(p13 + 39) = {12.89242582104809, -0.3243140923505499, 0.1};
Spline(13) = {9, p13 + 1, p13 + 2, p13 + 3, p13 + 4, p13 + 5, p13 + 6, p13 + 7, p13 + 8, p13 + 9, p13 + 10, p13 + 11, p13 + 12, p13 + 13, p13 + 14, p13 + 15, p13 + 16, p13 + 17, p13 + 18, p13 + 19, p13 + 20, p13 + 21, p13 + 22, p13 + 23, p13 + 24, p13 + 25, p13 + 26, p13 + 27, p13 + 28, p13 + 29, p13 + 30, p13 + 31, p13 + 32, p13 + 33, p13 + 34, p13 + 35, p13 + 36, p13 + 37, p13 + 38, p13 + 39, 9};
Line(14) = {10, 9};
p15 = newp;
Point(p15 + 1) = {12.89242582104809, -0.1206799076494503, 0};
Point(p15 + 2) = {12.86858359525238, -0.02136989002412737, 0};
Point(p15 + 3) = {12.82949939733976, 0.07298771065098114, 0};
Point(p15 + 4) = {12.77613560997587, 0.1600694970923314, 0};
Point(p15 + 5) = {12.70980622670986, 0.2377312267098575, 0};
Point(p15 + 6) = {12.63214449709233, 0.3040606099758726, 0};
Point(p15 + 7) = {12.54506271065098, 0.3574243973397652, 0};
Point(p15 + 8) = {12.45070510997587, 0.39650859525238, 0};
Point(p15 + 9) = {12.35139509235055, 0.420350821048092, 0};
Point(p15 + 10) = {12.249578, 0.428364, 0};
Point(p15 + 11) = {12.14776090764945, 0.4203508210480919, 0};
Point(p15 + 12) = {12.04845089002413, 0.39650859525238, 0};
Point(p15 + 13) = {11.95409328934902, 0.3574243973397653, 0};
Point(p15 + 14) = {11.86701150290767, 0.3040606099758726, 0};
Point(p15 + 15) = {11.78934977329014, 0.2377312267098576, 0};
Point(p15 + 16) = {11.72302039002413, 0.1600694970923314, 0};
Point(p15 + 17) = {11.66965660266023, 0.0729877106509812, 0};
Point(p15 + 18) = {11.63057240474762, -0.02136989002412729, 0};
Point(p15 + 19) = {11.60673017895191, -0.1206799076494502, 0};
Point(p15 + 20) = {11.598717, -0.2224969999999999, 0};
Point(p15 + 21) = {11.60673017895191, -0.3243140923505496, 0};
Point(p15 + 22) = {11.63057240474762, -0.4236241099758729, 0};
Point(p15 + 23) = {11.66965660266023, -0.5179817106509809, 0};
Point(p15 + 24) = {11.72302039002413, -0.6050634970923313, 0};
Point(p15 + 25) = {11.78934977329014, -0.6827252267098575, 0};
Point(p15 + 26) = {11.86701150290767, -0.7490546099758726, 0};
Point(p15 + 27) = {11.95409328934902, -0.8024183973397652, 0};
Point(p15 + 28) = {12.04845089002413, -0.84150259525238, 0};
Point(p15 + 29) = {12.14776090764945, -0.8653448210480919, 0};
Point(p15 + 30) = {12.249578, -0.8733580000000001, 0};
Point(p15 + 31) = {12.35139509235055, -0.8653448210480921, 0};
Point(p15 + 32) = {12.45070510997587, -0.84150259525238, 0};
Point(p15 + 33) = {12.54506271065098, -0.8024183973397654, 0};
Point(p15 + 34) = {12.63214449709233, -0.7490546099758728, 0};
Point(p15 + 35) = {12.70980622670986, -0.6827252267098576, 0};
Point(p15 + 36) = {12.77613560997587, -0.6050634970923314, 0};
Point(p15 + 37) = {12.82949939733976, -0.5179817106509813, 0};
Point(p15 + 38) = {12.86858359525238, -0.4236241099758728, 0};
Point(p15 + 39) = {12.89242582104809, -0.3243140923505499, 0};
Spline(15) = {10, p15 + 1, p15 + 2, p15 + 3, p15 + 4, p15 + 5, p15 + 6, p15 + 7, p15 + 8, p15 + 9, p15 + 10, p15 + 11, p15 + 12, p15 + 13, p15 + 14, p15 + 15, p15 + 16, p15 + 17, p15 + 18, p15 + 19, p15 + 20, p15 + 21, p15 + 22, p15 + 23, p15 + 24, p15 + 25, p15 + 26, p15 + 27, p15 + 28, p15 + 29, p15 + 30, p15 + 31, p15 + 32, p15 + 33, p15 + 34, p15 + 35, p15 + 36, p15 + 37, p15 + 38, p15 + 39, 10};
p16 = newp;
Point(p16 + 1) = {14.0765283348565, 2.113760085421699, 0.1};
Point(p16 + 2) = {14.03972987238778, 2.267036712682359, 0.1};
Point(p16 + 3) = {13.9794067128669, 2.412669702522862, 0.1};
Point(p16 + 4) = {13.89704421268236, 2.547073087405152, 0.1};
Point(p16 + 5) = {13.79467040993416, 2.666937409934165, 0.1};
Point(p16 + 6) = {13.67480608740515, 2.769311212682359, 0.1};
Point(p16 + 7) = {13.54040270252286, 2.851673712866901, 0.1};
Point(p16 + 8) = {13.39476971268236, 2.91199687238778, 0.1};
Point(p16 + 9) = {13.2414930854217, 2.948795334856505, 0.1};
Point(p16 + 10) = {13.084347, 2.961163, 0.1};
Point(p16 + 11) = {12.9272009145783, 2.948795334856505, 0.1};
Point(p16 + 12) = {12.77392428731764, 2.91199687238778, 0.1};
Point(p16 + 13) = {12.62829129747714, 2.851673712866901, 0.1};
Point(p16 + 14) = {12.49388791259485, 2.769311212682359, 0.1};
Point(p16 + 15) = {12.37402359006583, 2.666937409934165, 0.1};
Point(p16 + 16) = {12.27164978731764, 2.547073087405152, 0.1};
Point(p16 + 17) = {12.1892872871331, 2.412669702522862, 0.1};
Point(p16 + 18) = {12.12896412761222, 2.267036712682359, 0.1};
Point(p16 + 19) = {12.09216566514349, 2.113760085421699, 0.1};
Point(p16 + 20) = {12.079798, 1.956614, 0.1};
Point(p16 + 21) = {12.09216566514349, 1.799467914578301, 0.1};
Point(p16 + 22) = {12.12896412761222, 1.646191287317641, 0.1};
Point(p16 + 23) = {12.1892872871331, 1.500558297477139, 0.1};
Point(p16 + 24) = {12.27164978731764, 1.366154912594849, 0.1};
Point(p16 + 25) = {12.37402359006583, 1.246290590065835, 0.1};
Point(p16 + 26) = {12.49388791259485, 1.143916787317641, 0.1};
Point(p16 + 27) = {12.62829129747714, 1.0615542871331, 0.1};
Point(p16 + 28) = {12.77392428731764, 1.00123112761222, 0.1};
Point(p16 + 29) = {12.9272009145783, 0.9644326651434952, 0.1};
Point(p16 + 30) = {13.084347, 0.9520650000000002, 0.1};
Point(p16 + 31) = {13.2414930854217, 0.9644326651434951, 0.1};
Point(p16 + 32) = {13.39476971268236, 1.00123112761222, 0.1};
Point(p16 + 33) = {13.54040270252286, 1.061554287133099, 0.1};
Point(p16 + 34) = {13.67480608740515, 1.143916787317641, 0.1};
Point(p16 + 35) = {13.79467040993416, 1.246290590065835, 0.1};
Point(p16 + 36) = {13.89704421268236, 1.366154912594848, 0.1};
Point(p16 + 37) = {13.9794067128669, 1.500558297477138, 0.1};
Point(p16 + 38) = {14.03972987238778, 1.646191287317641, 0.1};
Point(p16 + 39) = {14.0765283348565, 1.799467914578301, 0.1};
Spline(16) = {11, p16 + 1, p16 + 2, p16 + 3, p16 + 4, p16 + 5, p16 + 6, p16 + 7, p16 + 8, p16 + 9, p16 + 10, p16 + 11, p16 + 12, p16 + 13, p16 + 14, p16 + 15, p16 + 16, p16 + 17, p16 + 18, p16 + 19, p16 + 20, p16 + 21, p16 + 22, p16 + 23, p16 + 24, p16 + 25, p16 + 26, p16 + 27, p16 + 28, p16 + 29, p16 + 30, p16 + 31, p16 + 32, p16 + 33, p16 + 34, p16 + 35, p16 + 36, p16 + 37, p16 + 38, p16 + 39, 11};
Line(17) = {12, 11};
p18 = newp;
Point(p18 + 1) = {14.0765283348565, 2.113760085421699, 0};
Point(p18 + 2) = {14.03972987238778, 2.267036712682359, 0};
Point(p18 + 3) = {13.9794067128669, 2.412669702522862, 0};
Point(p18 + 4) = {13.89704421268236, 2.547073087405152, 0};
Point(p18 + 5) = {13.79467040993416, 2.666937409934165, 0};
Point(p18 + 6) = {13.67480608740515, 2.769311212682359, 0};
Point(p18 + 7) = {13.54040270252286, 2.851673712866901, 0};
Point(p18 + 8) = {13.39476971268236, 2.91199687238778, 0};
Point(p18 + 9) = {13.2414930854217, 2.948795334856505, 0};
Point(p18 + 10) = {13.084347, 2.961163, 0};
Point(p18 + 11) = {12.9272009145783, 2.948795334856505, 0};
Point(p18 + 12) = {12.77392428731764, 2.91199687238778, 0};
Point(p18 + 13) = {12.62829129747714, 2.851673712866901, 0};
Point(p18 + 14) = {12.49388791259485, 2.769311212682359, 0};
Point(p18 + 15) = {12.37402359006583, 2.666937409934165, 0};
Point(p18 + 16) = {12.27164978731764, 2.547073087405152, 0};
Point(p18 + 17) = {12.1892872871331, 2.412669702522862, 0};
Point(p18 + 18) = {12.12896412761222, 2.267036712682359, 0};
Point(p18 + 19) = {12.09216566514349, 2.113760085421699, 0};
Point(p18 + 20) = {12.079798, 1.956614, 0};
Point(p18 + 21) = {12.09216566514349, 1.799467914578301, 0};
Point(p18 + 22) = {12.12896412761222, 1.646191287317641, 0};
Point(p18 + 23) = {12.1892872871331, 1.500558297477139, 0};
Point(p18 + 24) = {12.27164978731764, 1.366154912594849, 0};
Point(p18 + 25) = {12.37402359006583, 1.246290590065835, 0};
Point(p18 + 26) = {12.49388791259485, 1.143916787317641, 0};
Point(p18 + 27) = {12.62829129747714, 1.0615542871331, 0};
Point(p18 + 28) = {12.77392428731764, 1.00123112761222, 0};
Point(p18 + 29) = {12.9272009145783, 0.9644326651434952, 0};
Point(p18 + 30) = {13.084347, 0.9520650000000002, 0};
Point(p18 + 31) = {13.2414930854217, 0.9644326651434951, 0};
Point(p18 + 32) = {13.39476971268236, 1.00123112761222, 0};
Point(p18 + 33) = {13.54040270252286, 1.061554287133099, 0};
Point(p18 + 34) = {13.67480608740515, 1.143916787317641, 0};
Point(p18 + 35) = {13.79467040993416, 1.246290590065835, 0};
Point(p18 + 36) = {13.89704421268236, 1.366154912594848, 0};
Point(p18 + 37) = {13.9794067128669, 1.500558297477138, 0};
Point(p18 + 38) = {14.03972987238778, 1.646191287317641, 0};
Point(p18 + 39) = {14.0765283348565, 1.799467914578301, 0};
Spline(18) = {12, p18 + 1, p18 + 2, p18 + 3, p18 + 4, p18 + 5, p18 + 6, p18 + 7, p18 + 8, p18 + 9, p18 + 10, p18 + 11, p18 + 12, p18 + 13, p18 + 14, p18 + 15, p18 + 16, p18 + 17, p18 + 18, p18 + 19, p18 + 20, p18 + 21, p18 + 22, p18 + 23, p18 + 24, p18 + 25, p18 + 26, p18 + 27, p18 + 28, p18 + 29, p18 + 30, p18 + 31, p18 + 32, p18 + 33, p18 + 34, p18 + 35, p18 + 36, p18 + 37, p18 + 38, p18 + 39, 12};
Line(19) = {14, 13};
Line(20) = {13, 15};
Line(21) = {16, 15};
Line(22) = {14, 16};
Line(23) = {14, 17};
Line(24) = {17, 18};
Line(25) = {13, 18};
Line(26) = {15, 19};
Line(27) = {18, 19};
Line(28) = {16, 20};
Line(29) = {20, 19};
Line(30) = {17, 20};
Curve Loop(7) = {-13, -14, 15, 14};
Surface(7) = {7};
Curve Loop(8) = {13};
Plane Surface(8) = {8};
Curve Loop(9) = {15};
Plane Surface(9) = {9};
Curve Loop(10) = {-16, -17, 18, 17};
Surface(10) = {10};
Curve Loop(11) = {16};
Plane Surface(11) = {11};
Curve Loop(12) = {18};
Plane Surface(12) = {12};
Curve Loop(13) = {-19, 22, 21, -20};
Plane Surface(13) = {13};
Curve Loop(14) = {-23, 19, 25, -24};
Plane Surface(14) = {14};
Curve Loop(15) = {-20, 25, 27, -26, -13, -16};
Plane Surface(15) = {15};
Curve Loop(16) = {-28, 21, 26, -29};
Plane Surface(16) = {16};
Curve Loop(17) = {-22, 23, 30, -28, -15, -18};
Plane Surface(17) = {17};
Curve Loop(18) = {-24, 30, 29, -27};
Plane Surface(18) = {18};
Surface Loop(1) = {13, 14, 15, 16, 17, 18, 7, 10};
Volume(1) = {1};
Surface Loop(2) = {7, 8, 9};
Volume(2) = {2};
Surface Loop(3) = {10, 11, 12};
Volume(3) = {3};
Physical Surface("WALLS") = {13, 18};
Physical Surface("LOAD") = {8, 11};
Physical Surface("BORDER") = {7, 9, 10, 12, 14, 15, 16, 17};
Physical Volume("SOLID") = {1, 2, 3};
