cl__1 = 0.07362;
cl__2 = 0.065275;
cl__3 = 0.484251;
cl__4 = 0.62329;
cl__5 = 3.082724;
cl__6 = 2.96781;
Point(9) = {13.156679, 1.043665, 0.1, cl__1};
Point(10) = {13.156679, 1.043665, 0, cl__1};
Point(11) = {8.679627, -2.163813000000001, 0.1, cl__2};
Point(12) = {8.679627, -2.163813000000001, 0, cl__2};
Point(13) = {0.021488, -3.91957, 0.1, cl__3};
Point(14) = {0.021488, -3.91957, 0, cl__3};
Point(15) = {0.021488, 4.414353999999999, 0.1, cl__4};
Point(16) = {0.021488, 4.414353999999999, 0, cl__4};
Point(17) = {35.294153, -3.91957, 0, cl__5};
Point(18) = {35.294153, -3.91957, 0.1, cl__5};
Point(19) = {35.294153, 4.414353999999999, 0.1, cl__6};
Point(20) = {35.294153, 4.414353999999999, 0, cl__6};
p13 = newp;
Point(p13 + 1) = {13.14761509478784, 1.158832835334943, 0.1};
Point(p13 + 2) = {13.12064656257907, 1.271164856343808, 0.1};
Point(p13 + 3) = {13.0764374581401, 1.377895075860753, 0.1};
Point(p13 + 4) = {13.01607635634381, 1.47639544166398, 0.1};
Point(p13 + 5) = {12.94104954784344, 1.564240547843442, 0.1};
Point(p13 + 6) = {12.85320444166398, 1.639267356343808, 0.1};
Point(p13 + 7) = {12.75470407586075, 1.699628458140097, 0.1};
Point(p13 + 8) = {12.64797385634381, 1.743837562579074, 0.1};
Point(p13 + 9) = {12.53564183533494, 1.770806094787843, 0.1};
Point(p13 + 10) = {12.420474, 1.77987, 0.1};
Point(p13 + 11) = {12.30530616466506, 1.770806094787843, 0.1};
Point(p13 + 12) = {12.19297414365619, 1.743837562579074, 0.1};
Point(p13 + 13) = {12.08624392413925, 1.699628458140098, 0.1};
Point(p13 + 14) = {11.98774355833602, 1.639267356343808, 0.1};
Point(p13 + 15) = {11.89989845215656, 1.564240547843442, 0.1};
Point(p13 + 16) = {11.82487164365619, 1.47639544166398, 0.1};
Point(p13 + 17) = {11.7645105418599, 1.377895075860753, 0.1};
Point(p13 + 18) = {11.72030143742093, 1.271164856343808, 0.1};
Point(p13 + 19) = {11.69333290521216, 1.158832835334943, 0.1};
Point(p13 + 20) = {11.684269, 1.043665, 0.1};
Point(p13 + 21) = {11.69333290521216, 0.9284971646650569, 0.1};
Point(p13 + 22) = {11.72030143742093, 0.8161651436561916, 0.1};
Point(p13 + 23) = {11.7645105418599, 0.7094349241392474, 0.1};
Point(p13 + 24) = {11.82487164365619, 0.61093455833602, 0.1};
Point(p13 + 25) = {11.89989845215656, 0.5230894521565579, 0.1};
Point(p13 + 26) = {11.98774355833602, 0.448062643656192, 0.1};
Point(p13 + 27) = {12.08624392413925, 0.3877015418599028, 0.1};
Point(p13 + 28) = {12.19297414365619, 0.3434924374209266, 0.1};
Point(p13 + 29) = {12.30530616466506, 0.3165239052121568, 0.1};
Point(p13 + 30) = {12.420474, 0.3074600000000001, 0.1};
Point(p13 + 31) = {12.53564183533494, 0.3165239052121567, 0.1};
Point(p13 + 32) = {12.64797385634381, 0.3434924374209265, 0.1};
Point(p13 + 33) = {12.75470407586075, 0.3877015418599026, 0.1};
Point(p13 + 34) = {12.85320444166398, 0.4480626436561918, 0.1};
Point(p13 + 35) = {12.94104954784344, 0.5230894521565578, 0.1};
Point(p13 + 36) = {13.01607635634381, 0.6109345583360197, 0.1};
Point(p13 + 37) = {13.0764374581401, 0.7094349241392469, 0.1};
Point(p13 + 38) = {13.12064656257907, 0.8161651436561917, 0.1};
Point(p13 + 39) = {13.14761509478784, 0.9284971646650567, 0.1};
Spline(13) = {9, p13 + 1, p13 + 2, p13 + 3, p13 + 4, p13 + 5, p13 + 6, p13 + 7, p13 + 8, p13 + 9, p13 + 10, p13 + 11, p13 + 12, p13 + 13, p13 + 14, p13 + 15, p13 + 16, p13 + 17, p13 + 18, p13 + 19, p13 + 20, p13 + 21, p13 + 22, p13 + 23, p13 + 24, p13 + 25, p13 + 26, p13 + 27, p13 + 28, p13 + 29, p13 + 30, p13 + 31, p13 + 32, p13 + 33, p13 + 34, p13 + 35, p13 + 36, p13 + 37, p13 + 38, p13 + 39, 9};
Line(14) = {10, 9};
p15 = newp;
Point(p15 + 1) = {13.14761509478784, 1.158832835334943, 0};
Point(p15 + 2) = {13.12064656257907, 1.271164856343808, 0};
Point(p15 + 3) = {13.0764374581401, 1.377895075860753, 0};
Point(p15 + 4) = {13.01607635634381, 1.47639544166398, 0};
Point(p15 + 5) = {12.94104954784344, 1.564240547843442, 0};
Point(p15 + 6) = {12.85320444166398, 1.639267356343808, 0};
Point(p15 + 7) = {12.75470407586075, 1.699628458140097, 0};
Point(p15 + 8) = {12.64797385634381, 1.743837562579074, 0};
Point(p15 + 9) = {12.53564183533494, 1.770806094787843, 0};
Point(p15 + 10) = {12.420474, 1.77987, 0};
Point(p15 + 11) = {12.30530616466506, 1.770806094787843, 0};
Point(p15 + 12) = {12.19297414365619, 1.743837562579074, 0};
Point(p15 + 13) = {12.08624392413925, 1.699628458140098, 0};
Point(p15 + 14) = {11.98774355833602, 1.639267356343808, 0};
Point(p15 + 15) = {11.89989845215656, 1.564240547843442, 0};
Point(p15 + 16) = {11.82487164365619, 1.47639544166398, 0};
Point(p15 + 17) = {11.7645105418599, 1.377895075860753, 0};
Point(p15 + 18) = {11.72030143742093, 1.271164856343808, 0};
Point(p15 + 19) = {11.69333290521216, 1.158832835334943, 0};
Point(p15 + 20) = {11.684269, 1.043665, 0};
Point(p15 + 21) = {11.69333290521216, 0.9284971646650569, 0};
Point(p15 + 22) = {11.72030143742093, 0.8161651436561916, 0};
Point(p15 + 23) = {11.7645105418599, 0.7094349241392474, 0};
Point(p15 + 24) = {11.82487164365619, 0.61093455833602, 0};
Point(p15 + 25) = {11.89989845215656, 0.5230894521565579, 0};
Point(p15 + 26) = {11.98774355833602, 0.448062643656192, 0};
Point(p15 + 27) = {12.08624392413925, 0.3877015418599028, 0};
Point(p15 + 28) = {12.19297414365619, 0.3434924374209266, 0};
Point(p15 + 29) = {12.30530616466506, 0.3165239052121568, 0};
Point(p15 + 30) = {12.420474, 0.3074600000000001, 0};
Point(p15 + 31) = {12.53564183533494, 0.3165239052121567, 0};
Point(p15 + 32) = {12.64797385634381, 0.3434924374209265, 0};
Point(p15 + 33) = {12.75470407586075, 0.3877015418599026, 0};
Point(p15 + 34) = {12.85320444166398, 0.4480626436561918, 0};
Point(p15 + 35) = {12.94104954784344, 0.5230894521565578, 0};
Point(p15 + 36) = {13.01607635634381, 0.6109345583360197, 0};
Point(p15 + 37) = {13.0764374581401, 0.7094349241392469, 0};
Point(p15 + 38) = {13.12064656257907, 0.8161651436561917, 0};
Point(p15 + 39) = {13.14761509478784, 0.9284971646650567, 0};
Spline(15) = {10, p15 + 1, p15 + 2, p15 + 3, p15 + 4, p15 + 5, p15 + 6, p15 + 7, p15 + 8, p15 + 9, p15 + 10, p15 + 11, p15 + 12, p15 + 13, p15 + 14, p15 + 15, p15 + 16, p15 + 17, p15 + 18, p15 + 19, p15 + 20, p15 + 21, p15 + 22, p15 + 23, p15 + 24, p15 + 25, p15 + 26, p15 + 27, p15 + 28, p15 + 29, p15 + 30, p15 + 31, p15 + 32, p15 + 33, p15 + 34, p15 + 35, p15 + 36, p15 + 37, p15 + 38, p15 + 39, 10};
p16 = newp;
Point(p16 + 1) = {8.671590576635136, -2.061700559379454, 0.1};
Point(p16 + 2) = {8.647679189955145, -1.962102465938748, 0.1};
Point(p16 + 3) = {8.608481617657432, -1.867471155285511, 0.1};
Point(p16 + 4) = {8.554963034061252, -1.780136764351341, 0.1};
Point(p16 + 5) = {8.488441244312737, -1.702249755687262, 0.1};
Point(p16 + 6) = {8.410554235648659, -1.635727965938748, 0.1};
Point(p16 + 7) = {8.32321984471449, -1.582209382342567, 0.1};
Point(p16 + 8) = {8.228588534061252, -1.543011810044855, 0.1};
Point(p16 + 9) = {8.128990440620546, -1.519100423364865, 0.1};
Point(p16 + 10) = {8.026878, -1.511064, 0.1};
Point(p16 + 11) = {7.924765559379455, -1.519100423364865, 0.1};
Point(p16 + 12) = {7.825167465938748, -1.543011810044855, 0.1};
Point(p16 + 13) = {7.730536155285511, -1.582209382342567, 0.1};
Point(p16 + 14) = {7.643201764351341, -1.635727965938748, 0.1};
Point(p16 + 15) = {7.565314755687262, -1.702249755687262, 0.1};
Point(p16 + 16) = {7.498792965938748, -1.780136764351341, 0.1};
Point(p16 + 17) = {7.445274382342567, -1.867471155285511, 0.1};
Point(p16 + 18) = {7.406076810044855, -1.962102465938748, 0.1};
Point(p16 + 19) = {7.382165423364865, -2.061700559379454, 0.1};
Point(p16 + 20) = {7.374129, -2.163813, 0.1};
Point(p16 + 21) = {7.382165423364865, -2.265925440620546, 0.1};
Point(p16 + 22) = {7.406076810044855, -2.365523534061253, 0.1};
Point(p16 + 23) = {7.445274382342567, -2.460154844714489, 0.1};
Point(p16 + 24) = {7.498792965938748, -2.54748923564866, 0.1};
Point(p16 + 25) = {7.565314755687262, -2.625376244312738, 0.1};
Point(p16 + 26) = {7.64320176435134, -2.691898034061253, 0.1};
Point(p16 + 27) = {7.730536155285511, -2.745416617657433, 0.1};
Point(p16 + 28) = {7.825167465938748, -2.784614189955145, 0.1};
Point(p16 + 29) = {7.924765559379455, -2.808525576635136, 0.1};
Point(p16 + 30) = {8.026878, -2.816562, 0.1};
Point(p16 + 31) = {8.128990440620546, -2.808525576635136, 0.1};
Point(p16 + 32) = {8.228588534061252, -2.784614189955145, 0.1};
Point(p16 + 33) = {8.323219844714489, -2.745416617657433, 0.1};
Point(p16 + 34) = {8.410554235648659, -2.691898034061253, 0.1};
Point(p16 + 35) = {8.488441244312737, -2.625376244312738, 0.1};
Point(p16 + 36) = {8.554963034061252, -2.54748923564866, 0.1};
Point(p16 + 37) = {8.608481617657432, -2.46015484471449, 0.1};
Point(p16 + 38) = {8.647679189955145, -2.365523534061253, 0.1};
Point(p16 + 39) = {8.671590576635136, -2.265925440620546, 0.1};
Spline(16) = {11, p16 + 1, p16 + 2, p16 + 3, p16 + 4, p16 + 5, p16 + 6, p16 + 7, p16 + 8, p16 + 9, p16 + 10, p16 + 11, p16 + 12, p16 + 13, p16 + 14, p16 + 15, p16 + 16, p16 + 17, p16 + 18, p16 + 19, p16 + 20, p16 + 21, p16 + 22, p16 + 23, p16 + 24, p16 + 25, p16 + 26, p16 + 27, p16 + 28, p16 + 29, p16 + 30, p16 + 31, p16 + 32, p16 + 33, p16 + 34, p16 + 35, p16 + 36, p16 + 37, p16 + 38, p16 + 39, 11};
Line(17) = {12, 11};
p18 = newp;
Point(p18 + 1) = {8.671590576635136, -2.061700559379454, 0};
Point(p18 + 2) = {8.647679189955145, -1.962102465938748, 0};
Point(p18 + 3) = {8.608481617657432, -1.867471155285511, 0};
Point(p18 + 4) = {8.554963034061252, -1.780136764351341, 0};
Point(p18 + 5) = {8.488441244312737, -1.702249755687262, 0};
Point(p18 + 6) = {8.410554235648659, -1.635727965938748, 0};
Point(p18 + 7) = {8.32321984471449, -1.582209382342567, 0};
Point(p18 + 8) = {8.228588534061252, -1.543011810044855, 0};
Point(p18 + 9) = {8.128990440620546, -1.519100423364865, 0};
Point(p18 + 10) = {8.026878, -1.511064, 0};
Point(p18 + 11) = {7.924765559379455, -1.519100423364865, 0};
Point(p18 + 12) = {7.825167465938748, -1.543011810044855, 0};
Point(p18 + 13) = {7.730536155285511, -1.582209382342567, 0};
Point(p18 + 14) = {7.643201764351341, -1.635727965938748, 0};
Point(p18 + 15) = {7.565314755687262, -1.702249755687262, 0};
Point(p18 + 16) = {7.498792965938748, -1.780136764351341, 0};
Point(p18 + 17) = {7.445274382342567, -1.867471155285511, 0};
Point(p18 + 18) = {7.406076810044855, -1.962102465938748, 0};
Point(p18 + 19) = {7.382165423364865, -2.061700559379454, 0};
Point(p18 + 20) = {7.374129, -2.163813, 0};
Point(p18 + 21) = {7.382165423364865, -2.265925440620546, 0};
Point(p18 + 22) = {7.406076810044855, -2.365523534061253, 0};
Point(p18 + 23) = {7.445274382342567, -2.460154844714489, 0};
Point(p18 + 24) = {7.498792965938748, -2.54748923564866, 0};
Point(p18 + 25) = {7.565314755687262, -2.625376244312738, 0};
Point(p18 + 26) = {7.64320176435134, -2.691898034061253, 0};
Point(p18 + 27) = {7.730536155285511, -2.745416617657433, 0};
Point(p18 + 28) = {7.825167465938748, -2.784614189955145, 0};
Point(p18 + 29) = {7.924765559379455, -2.808525576635136, 0};
Point(p18 + 30) = {8.026878, -2.816562, 0};
Point(p18 + 31) = {8.128990440620546, -2.808525576635136, 0};
Point(p18 + 32) = {8.228588534061252, -2.784614189955145, 0};
Point(p18 + 33) = {8.323219844714489, -2.745416617657433, 0};
Point(p18 + 34) = {8.410554235648659, -2.691898034061253, 0};
Point(p18 + 35) = {8.488441244312737, -2.625376244312738, 0};
Point(p18 + 36) = {8.554963034061252, -2.54748923564866, 0};
Point(p18 + 37) = {8.608481617657432, -2.46015484471449, 0};
Point(p18 + 38) = {8.647679189955145, -2.365523534061253, 0};
Point(p18 + 39) = {8.671590576635136, -2.265925440620546, 0};
Spline(18) = {12, p18 + 1, p18 + 2, p18 + 3, p18 + 4, p18 + 5, p18 + 6, p18 + 7, p18 + 8, p18 + 9, p18 + 10, p18 + 11, p18 + 12, p18 + 13, p18 + 14, p18 + 15, p18 + 16, p18 + 17, p18 + 18, p18 + 19, p18 + 20, p18 + 21, p18 + 22, p18 + 23, p18 + 24, p18 + 25, p18 + 26, p18 + 27, p18 + 28, p18 + 29, p18 + 30, p18 + 31, p18 + 32, p18 + 33, p18 + 34, p18 + 35, p18 + 36, p18 + 37, p18 + 38, p18 + 39, 12};
Line(19) = {14, 13};
Line(20) = {13, 15};
Line(21) = {16, 15};
Line(22) = {14, 16};
Line(23) = {14, 17};
Line(24) = {17, 18};
Line(25) = {13, 18};
Line(26) = {15, 19};
Line(27) = {18, 19};
Line(28) = {16, 20};
Line(29) = {20, 19};
Line(30) = {17, 20};
Curve Loop(7) = {-13, -14, 15, 14};
Surface(7) = {7};
Curve Loop(8) = {13};
Plane Surface(8) = {8};
Curve Loop(9) = {15};
Plane Surface(9) = {9};
Curve Loop(10) = {-16, -17, 18, 17};
Surface(10) = {10};
Curve Loop(11) = {16};
Plane Surface(11) = {11};
Curve Loop(12) = {18};
Plane Surface(12) = {12};
Curve Loop(13) = {-19, 22, 21, -20};
Plane Surface(13) = {13};
Curve Loop(14) = {-23, 19, 25, -24};
Plane Surface(14) = {14};
Curve Loop(15) = {-20, 25, 27, -26, -16, -13};
Plane Surface(15) = {15};
Curve Loop(16) = {-28, 21, 26, -29};
Plane Surface(16) = {16};
Curve Loop(17) = {-22, 23, 30, -28, -18, -15};
Plane Surface(17) = {17};
Curve Loop(18) = {-24, 30, 29, -27};
Plane Surface(18) = {18};
Surface Loop(1) = {13, 14, 15, 16, 17, 18, 10, 7};
Volume(1) = {1};
Surface Loop(2) = {7, 8, 9};
Volume(2) = {2};
Surface Loop(3) = {10, 11, 12};
Volume(3) = {3};
Physical Surface("WALLS") = {13, 18};
Physical Surface("LOAD") = {8, 11};
Physical Surface("BORDER") = {7, 9, 10, 12, 14, 15, 16, 17};
Physical Volume("SOLID") = {1, 2, 3};
