cl__1 = 0.122431;
cl__2 = 0.136947;
cl__3 = 0.7284080000000001;
cl__4 = 0.532555;
cl__5 = 2.442484;
cl__6 = 2.69907;
Point(9) = {8.003681999999998, 2.534281, 0.1, cl__1};
Point(10) = {8.003681999999998, 2.534281, 0, cl__1};
Point(11) = {21.504421, -0.1995480000000003, 0.1, cl__2};
Point(12) = {21.504421, -0.1995480000000003, 0, cl__2};
Point(13) = {0.268462, -4.168354, 0.1, cl__3};
Point(14) = {0.268462, -4.168354, 0, cl__3};
Point(15) = {0.268462, 5.515697, 0.1, cl__4};
Point(16) = {0.268462, 5.515697, 0, cl__4};
Point(17) = {36.029221, -4.168354, 0, cl__5};
Point(18) = {36.029221, -4.168354, 0.1, cl__5};
Point(19) = {36.029221, 5.515697, 0.1, cl__6};
Point(20) = {36.029221, 5.515697, 0, cl__6};
p13 = newp;
Point(p13 + 1) = {7.988608773832331, 2.72580449772108, 0.1};
Point(p13 + 2) = {7.943760248182738, 2.91261205129822, 0.1};
Point(p13 + 3) = {7.87024074259644, 3.090103838783626, 0.1};
Point(p13 + 4) = {7.76986055129822, 3.253909423307936, 0.1};
Point(p13 + 5) = {7.645091367740596, 3.399995367740596, 0.1};
Point(p13 + 6) = {7.499005423307937, 3.52476455129822, 0.1};
Point(p13 + 7) = {7.335199838783626, 3.62514474259644, 0.1};
Point(p13 + 8) = {7.15770805129822, 3.698664248182738, 0.1};
Point(p13 + 9) = {6.97090049772108, 3.74351277383233, 0.1};
Point(p13 + 10) = {6.779377, 3.758586, 0.1};
Point(p13 + 11) = {6.58785350227892, 3.74351277383233, 0.1};
Point(p13 + 12) = {6.40104594870178, 3.698664248182738, 0.1};
Point(p13 + 13) = {6.223554161216375, 3.62514474259644, 0.1};
Point(p13 + 14) = {6.059748576692064, 3.52476455129822, 0.1};
Point(p13 + 15) = {5.913662632259404, 3.399995367740596, 0.1};
Point(p13 + 16) = {5.78889344870178, 3.253909423307936, 0.1};
Point(p13 + 17) = {5.68851325740356, 3.090103838783626, 0.1};
Point(p13 + 18) = {5.614993751817263, 2.91261205129822, 0.1};
Point(p13 + 19) = {5.57014522616767, 2.72580449772108, 0.1};
Point(p13 + 20) = {5.555072, 2.534281, 0.1};
Point(p13 + 21) = {5.57014522616767, 2.34275750227892, 0.1};
Point(p13 + 22) = {5.614993751817263, 2.155949948701779, 0.1};
Point(p13 + 23) = {5.68851325740356, 1.978458161216375, 0.1};
Point(p13 + 24) = {5.78889344870178, 1.814652576692064, 0.1};
Point(p13 + 25) = {5.913662632259404, 1.668566632259404, 0.1};
Point(p13 + 26) = {6.059748576692064, 1.54379744870178, 0.1};
Point(p13 + 27) = {6.223554161216375, 1.44341725740356, 0.1};
Point(p13 + 28) = {6.40104594870178, 1.369897751817262, 0.1};
Point(p13 + 29) = {6.58785350227892, 1.32504922616767, 0.1};
Point(p13 + 30) = {6.779377, 1.309976, 0.1};
Point(p13 + 31) = {6.97090049772108, 1.32504922616767, 0.1};
Point(p13 + 32) = {7.15770805129822, 1.369897751817262, 0.1};
Point(p13 + 33) = {7.335199838783626, 1.44341725740356, 0.1};
Point(p13 + 34) = {7.499005423307937, 1.54379744870178, 0.1};
Point(p13 + 35) = {7.645091367740596, 1.668566632259404, 0.1};
Point(p13 + 36) = {7.76986055129822, 1.814652576692064, 0.1};
Point(p13 + 37) = {7.87024074259644, 1.978458161216374, 0.1};
Point(p13 + 38) = {7.943760248182738, 2.15594994870178, 0.1};
Point(p13 + 39) = {7.98860877383233, 2.34275750227892, 0.1};
Spline(13) = {9, p13 + 1, p13 + 2, p13 + 3, p13 + 4, p13 + 5, p13 + 6, p13 + 7, p13 + 8, p13 + 9, p13 + 10, p13 + 11, p13 + 12, p13 + 13, p13 + 14, p13 + 15, p13 + 16, p13 + 17, p13 + 18, p13 + 19, p13 + 20, p13 + 21, p13 + 22, p13 + 23, p13 + 24, p13 + 25, p13 + 26, p13 + 27, p13 + 28, p13 + 29, p13 + 30, p13 + 31, p13 + 32, p13 + 33, p13 + 34, p13 + 35, p13 + 36, p13 + 37, p13 + 38, p13 + 39, 9};
Line(14) = {10, 9};
p15 = newp;
Point(p15 + 1) = {7.988608773832331, 2.72580449772108, 0};
Point(p15 + 2) = {7.943760248182738, 2.91261205129822, 0};
Point(p15 + 3) = {7.87024074259644, 3.090103838783626, 0};
Point(p15 + 4) = {7.76986055129822, 3.253909423307936, 0};
Point(p15 + 5) = {7.645091367740596, 3.399995367740596, 0};
Point(p15 + 6) = {7.499005423307937, 3.52476455129822, 0};
Point(p15 + 7) = {7.335199838783626, 3.62514474259644, 0};
Point(p15 + 8) = {7.15770805129822, 3.698664248182738, 0};
Point(p15 + 9) = {6.97090049772108, 3.74351277383233, 0};
Point(p15 + 10) = {6.779377, 3.758586, 0};
Point(p15 + 11) = {6.58785350227892, 3.74351277383233, 0};
Point(p15 + 12) = {6.40104594870178, 3.698664248182738, 0};
Point(p15 + 13) = {6.223554161216375, 3.62514474259644, 0};
Point(p15 + 14) = {6.059748576692064, 3.52476455129822, 0};
Point(p15 + 15) = {5.913662632259404, 3.399995367740596, 0};
Point(p15 + 16) = {5.78889344870178, 3.253909423307936, 0};
Point(p15 + 17) = {5.68851325740356, 3.090103838783626, 0};
Point(p15 + 18) = {5.614993751817263, 2.91261205129822, 0};
Point(p15 + 19) = {5.57014522616767, 2.72580449772108, 0};
Point(p15 + 20) = {5.555072, 2.534281, 0};
Point(p15 + 21) = {5.57014522616767, 2.34275750227892, 0};
Point(p15 + 22) = {5.614993751817263, 2.155949948701779, 0};
Point(p15 + 23) = {5.68851325740356, 1.978458161216375, 0};
Point(p15 + 24) = {5.78889344870178, 1.814652576692064, 0};
Point(p15 + 25) = {5.913662632259404, 1.668566632259404, 0};
Point(p15 + 26) = {6.059748576692064, 1.54379744870178, 0};
Point(p15 + 27) = {6.223554161216375, 1.44341725740356, 0};
Point(p15 + 28) = {6.40104594870178, 1.369897751817262, 0};
Point(p15 + 29) = {6.58785350227892, 1.32504922616767, 0};
Point(p15 + 30) = {6.779377, 1.309976, 0};
Point(p15 + 31) = {6.97090049772108, 1.32504922616767, 0};
Point(p15 + 32) = {7.15770805129822, 1.369897751817262, 0};
Point(p15 + 33) = {7.335199838783626, 1.44341725740356, 0};
Point(p15 + 34) = {7.499005423307937, 1.54379744870178, 0};
Point(p15 + 35) = {7.645091367740596, 1.668566632259404, 0};
Point(p15 + 36) = {7.76986055129822, 1.814652576692064, 0};
Point(p15 + 37) = {7.87024074259644, 1.978458161216374, 0};
Point(p15 + 38) = {7.943760248182738, 2.15594994870178, 0};
Point(p15 + 39) = {7.98860877383233, 2.34275750227892, 0};
Spline(15) = {10, p15 + 1, p15 + 2, p15 + 3, p15 + 4, p15 + 5, p15 + 6, p15 + 7, p15 + 8, p15 + 9, p15 + 10, p15 + 11, p15 + 12, p15 + 13, p15 + 14, p15 + 15, p15 + 16, p15 + 17, p15 + 18, p15 + 19, p15 + 20, p15 + 21, p15 + 22, p15 + 23, p15 + 24, p15 + 25, p15 + 26, p15 + 27, p15 + 28, p15 + 29, p15 + 30, p15 + 31, p15 + 32, p15 + 33, p15 + 34, p15 + 35, p15 + 36, p15 + 37, p15 + 38, p15 + 39, 10};
p16 = newp;
Point(p16 + 1) = {21.48756050254818, 0.01468493257650513, 0.1};
Point(p16 + 2) = {21.43739417159679, 0.2236427393546367, 0.1};
Point(p16 + 3) = {21.35515726870634, 0.4221801856403161, 0.1};
Point(p16 + 4) = {21.24287473935464, 0.6054086205979825, 0.1};
Point(p16 + 5) = {21.10331135205867, 0.7688163520586659, 0.1};
Point(p16 + 6) = {20.93990362059798, 0.9083797393546367, 0.1};
Point(p16 + 7) = {20.75667518564032, 1.020662268706341, 0.1};
Point(p16 + 8) = {20.55813773935464, 1.102899171596789, 0.1};
Point(p16 + 9) = {20.3491799325765, 1.153065502548186, 0.1};
Point(p16 + 10) = {20.134947, 1.169926, 0.1};
Point(p16 + 11) = {19.9207140674235, 1.153065502548186, 0.1};
Point(p16 + 12) = {19.71175626064536, 1.102899171596789, 0.1};
Point(p16 + 13) = {19.51321881435969, 1.020662268706341, 0.1};
Point(p16 + 14) = {19.32999037940202, 0.9083797393546369, 0.1};
Point(p16 + 15) = {19.16658264794133, 0.7688163520586662, 0.1};
Point(p16 + 16) = {19.02701926064536, 0.6054086205979825, 0.1};
Point(p16 + 17) = {18.91473673129366, 0.4221801856403162, 0.1};
Point(p16 + 18) = {18.83249982840321, 0.2236427393546369, 0.1};
Point(p16 + 19) = {18.78233349745182, 0.0146849325765053, 0.1};
Point(p16 + 20) = {18.765473, -0.1995479999999998, 0.1};
Point(p16 + 21) = {18.78233349745182, -0.413780932576505, 0.1};
Point(p16 + 22) = {18.83249982840321, -0.6227387393546372, 0.1};
Point(p16 + 23) = {18.91473673129366, -0.8212761856403155, 0.1};
Point(p16 + 24) = {19.02701926064536, -1.004504620597982, 0.1};
Point(p16 + 25) = {19.16658264794133, -1.167912352058666, 0.1};
Point(p16 + 26) = {19.32999037940202, -1.307475739354637, 0.1};
Point(p16 + 27) = {19.51321881435969, -1.419758268706341, 0.1};
Point(p16 + 28) = {19.71175626064536, -1.501995171596789, 0.1};
Point(p16 + 29) = {19.9207140674235, -1.552161502548186, 0.1};
Point(p16 + 30) = {20.134947, -1.569022, 0.1};
Point(p16 + 31) = {20.3491799325765, -1.552161502548186, 0.1};
Point(p16 + 32) = {20.55813773935464, -1.501995171596789, 0.1};
Point(p16 + 33) = {20.75667518564032, -1.419758268706341, 0.1};
Point(p16 + 34) = {20.93990362059798, -1.307475739354637, 0.1};
Point(p16 + 35) = {21.10331135205867, -1.167912352058666, 0.1};
Point(p16 + 36) = {21.24287473935464, -1.004504620597983, 0.1};
Point(p16 + 37) = {21.35515726870634, -0.8212761856403163, 0.1};
Point(p16 + 38) = {21.43739417159679, -0.6227387393546371, 0.1};
Point(p16 + 39) = {21.48756050254818, -0.4137809325765055, 0.1};
Spline(16) = {11, p16 + 1, p16 + 2, p16 + 3, p16 + 4, p16 + 5, p16 + 6, p16 + 7, p16 + 8, p16 + 9, p16 + 10, p16 + 11, p16 + 12, p16 + 13, p16 + 14, p16 + 15, p16 + 16, p16 + 17, p16 + 18, p16 + 19, p16 + 20, p16 + 21, p16 + 22, p16 + 23, p16 + 24, p16 + 25, p16 + 26, p16 + 27, p16 + 28, p16 + 29, p16 + 30, p16 + 31, p16 + 32, p16 + 33, p16 + 34, p16 + 35, p16 + 36, p16 + 37, p16 + 38, p16 + 39, 11};
Line(17) = {12, 11};
p18 = newp;
Point(p18 + 1) = {21.48756050254818, 0.01468493257650513, 0};
Point(p18 + 2) = {21.43739417159679, 0.2236427393546367, 0};
Point(p18 + 3) = {21.35515726870634, 0.4221801856403161, 0};
Point(p18 + 4) = {21.24287473935464, 0.6054086205979825, 0};
Point(p18 + 5) = {21.10331135205867, 0.7688163520586659, 0};
Point(p18 + 6) = {20.93990362059798, 0.9083797393546367, 0};
Point(p18 + 7) = {20.75667518564032, 1.020662268706341, 0};
Point(p18 + 8) = {20.55813773935464, 1.102899171596789, 0};
Point(p18 + 9) = {20.3491799325765, 1.153065502548186, 0};
Point(p18 + 10) = {20.134947, 1.169926, 0};
Point(p18 + 11) = {19.9207140674235, 1.153065502548186, 0};
Point(p18 + 12) = {19.71175626064536, 1.102899171596789, 0};
Point(p18 + 13) = {19.51321881435969, 1.020662268706341, 0};
Point(p18 + 14) = {19.32999037940202, 0.9083797393546369, 0};
Point(p18 + 15) = {19.16658264794133, 0.7688163520586662, 0};
Point(p18 + 16) = {19.02701926064536, 0.6054086205979825, 0};
Point(p18 + 17) = {18.91473673129366, 0.4221801856403162, 0};
Point(p18 + 18) = {18.83249982840321, 0.2236427393546369, 0};
Point(p18 + 19) = {18.78233349745182, 0.0146849325765053, 0};
Point(p18 + 20) = {18.765473, -0.1995479999999998, 0};
Point(p18 + 21) = {18.78233349745182, -0.413780932576505, 0};
Point(p18 + 22) = {18.83249982840321, -0.6227387393546372, 0};
Point(p18 + 23) = {18.91473673129366, -0.8212761856403155, 0};
Point(p18 + 24) = {19.02701926064536, -1.004504620597982, 0};
Point(p18 + 25) = {19.16658264794133, -1.167912352058666, 0};
Point(p18 + 26) = {19.32999037940202, -1.307475739354637, 0};
Point(p18 + 27) = {19.51321881435969, -1.419758268706341, 0};
Point(p18 + 28) = {19.71175626064536, -1.501995171596789, 0};
Point(p18 + 29) = {19.9207140674235, -1.552161502548186, 0};
Point(p18 + 30) = {20.134947, -1.569022, 0};
Point(p18 + 31) = {20.3491799325765, -1.552161502548186, 0};
Point(p18 + 32) = {20.55813773935464, -1.501995171596789, 0};
Point(p18 + 33) = {20.75667518564032, -1.419758268706341, 0};
Point(p18 + 34) = {20.93990362059798, -1.307475739354637, 0};
Point(p18 + 35) = {21.10331135205867, -1.167912352058666, 0};
Point(p18 + 36) = {21.24287473935464, -1.004504620597983, 0};
Point(p18 + 37) = {21.35515726870634, -0.8212761856403163, 0};
Point(p18 + 38) = {21.43739417159679, -0.6227387393546371, 0};
Point(p18 + 39) = {21.48756050254818, -0.4137809325765055, 0};
Spline(18) = {12, p18 + 1, p18 + 2, p18 + 3, p18 + 4, p18 + 5, p18 + 6, p18 + 7, p18 + 8, p18 + 9, p18 + 10, p18 + 11, p18 + 12, p18 + 13, p18 + 14, p18 + 15, p18 + 16, p18 + 17, p18 + 18, p18 + 19, p18 + 20, p18 + 21, p18 + 22, p18 + 23, p18 + 24, p18 + 25, p18 + 26, p18 + 27, p18 + 28, p18 + 29, p18 + 30, p18 + 31, p18 + 32, p18 + 33, p18 + 34, p18 + 35, p18 + 36, p18 + 37, p18 + 38, p18 + 39, 12};
Line(19) = {14, 13};
Line(20) = {13, 15};
Line(21) = {16, 15};
Line(22) = {14, 16};
Line(23) = {14, 17};
Line(24) = {17, 18};
Line(25) = {13, 18};
Line(26) = {15, 19};
Line(27) = {18, 19};
Line(28) = {16, 20};
Line(29) = {20, 19};
Line(30) = {17, 20};
Curve Loop(7) = {-13, -14, 15, 14};
Surface(7) = {7};
Curve Loop(8) = {13};
Plane Surface(8) = {8};
Curve Loop(9) = {15};
Plane Surface(9) = {9};
Curve Loop(10) = {-16, -17, 18, 17};
Surface(10) = {10};
Curve Loop(11) = {16};
Plane Surface(11) = {11};
Curve Loop(12) = {18};
Plane Surface(12) = {12};
Curve Loop(13) = {-19, 22, 21, -20};
Plane Surface(13) = {13};
Curve Loop(14) = {-23, 19, 25, -24};
Plane Surface(14) = {14};
Curve Loop(15) = {-20, 25, 27, -26, -16, -13};
Plane Surface(15) = {15};
Curve Loop(16) = {-28, 21, 26, -29};
Plane Surface(16) = {16};
Curve Loop(17) = {-22, 23, 30, -28, -18, -15};
Plane Surface(17) = {17};
Curve Loop(18) = {-24, 30, 29, -27};
Plane Surface(18) = {18};
Surface Loop(1) = {13, 14, 15, 16, 17, 18, 10, 7};
Volume(1) = {1};
Surface Loop(2) = {7, 8, 9};
Volume(2) = {2};
Surface Loop(3) = {10, 11, 12};
Volume(3) = {3};
Physical Surface("WALLS") = {13, 18};
Physical Surface("LOAD") = {8, 11};
Physical Surface("BORDER") = {7, 9, 10, 12, 14, 15, 16, 17};
Physical Volume("SOLID") = {1, 2, 3};
