cl__1 = 0.055313;
cl__2 = 0.085924;
cl__3 = 1.207509;
cl__4 = 1.312683;
cl__5 = 1.026895;
cl__6 = 0.831313;
Point(9) = {12.754283, 0.4819259999999999, 0.1, cl__1};
Point(10) = {12.754283, 0.4819259999999999, 0, cl__1};
Point(11) = {24.101935, 3.162093, 0.1, cl__2};
Point(12) = {24.101935, 3.162093, 0, cl__2};
Point(13) = {0.570276, -4.015962, 1, cl__3};
Point(14) = {0.570276, -4.015962, 0, cl__3};
Point(15) = {0.570276, 5.842371, 1, cl__4};
Point(16) = {0.570276, 5.842371, 0, cl__4};
Point(17) = {33.045501, -4.015962, 0, cl__5};
Point(18) = {33.045501, -4.015962, 1, cl__5};
Point(19) = {33.045501, 5.842371, 1, cl__6};
Point(20) = {33.045501, 5.842371, 0, cl__6};
p13 = newp;
Point(p13 + 1) = {12.74747308876837, 0.5684541263443078, 0.1};
Point(p13 + 2) = {12.72721103768879, 0.6528516430476315, 0.1};
Point(p13 + 3) = {12.69399576570474, 0.7330404031494363, 0.1};
Point(p13 + 4) = {12.64864514304763, 0.8070458932447788, 0.1};
Point(p13 + 5) = {12.59227585255737, 0.8730458525573714, 0.1};
Point(p13 + 6) = {12.52627589324478, 0.9294151430476316, 0.1};
Point(p13 + 7) = {12.45227040314944, 0.9747657657047394, 0.1};
Point(p13 + 8) = {12.37208164304763, 1.007981037688789, 0.1};
Point(p13 + 9) = {12.28768412634431, 1.028243088768367, 0.1};
Point(p13 + 10) = {12.201156, 1.035053, 0.1};
Point(p13 + 11) = {12.11462787365569, 1.028243088768367, 0.1};
Point(p13 + 12) = {12.03023035695237, 1.007981037688789, 0.1};
Point(p13 + 13) = {11.95004159685056, 0.9747657657047395, 0.1};
Point(p13 + 14) = {11.87603610675522, 0.9294151430476316, 0.1};
Point(p13 + 15) = {11.81003614744263, 0.8730458525573715, 0.1};
Point(p13 + 16) = {11.75366685695237, 0.8070458932447788, 0.1};
Point(p13 + 17) = {11.70831623429526, 0.7330404031494364, 0.1};
Point(p13 + 18) = {11.67510096231121, 0.6528516430476317, 0.1};
Point(p13 + 19) = {11.65483891123163, 0.5684541263443079, 0.1};
Point(p13 + 20) = {11.648029, 0.4819260000000001, 0.1};
Point(p13 + 21) = {11.65483891123163, 0.3953978736556923, 0.1};
Point(p13 + 22) = {11.67510096231121, 0.3110003569523683, 0.1};
Point(p13 + 23) = {11.70831623429526, 0.230811596850564, 0.1};
Point(p13 + 24) = {11.75366685695237, 0.1568061067552213, 0.1};
Point(p13 + 25) = {11.81003614744263, 0.09080614744262855, 0.1};
Point(p13 + 26) = {11.87603610675522, 0.03443685695236848, 0.1};
Point(p13 + 27) = {11.95004159685056, -0.01091376570473934, 0.1};
Point(p13 + 28) = {12.03023035695237, -0.04412903768878945, 0.1};
Point(p13 + 29) = {12.11462787365569, -0.06439108876836669, 0.1};
Point(p13 + 30) = {12.201156, -0.07120100000000001, 0.1};
Point(p13 + 31) = {12.28768412634431, -0.0643910887683668, 0.1};
Point(p13 + 32) = {12.37208164304763, -0.04412903768878945, 0.1};
Point(p13 + 33) = {12.45227040314944, -0.01091376570473945, 0.1};
Point(p13 + 34) = {12.52627589324478, 0.03443685695236837, 0.1};
Point(p13 + 35) = {12.59227585255737, 0.09080614744262844, 0.1};
Point(p13 + 36) = {12.64864514304763, 0.1568061067552212, 0.1};
Point(p13 + 37) = {12.69399576570474, 0.2308115968505636, 0.1};
Point(p13 + 38) = {12.72721103768879, 0.3110003569523684, 0.1};
Point(p13 + 39) = {12.74747308876837, 0.3953978736556921, 0.1};
Spline(13) = {9, p13 + 1, p13 + 2, p13 + 3, p13 + 4, p13 + 5, p13 + 6, p13 + 7, p13 + 8, p13 + 9, p13 + 10, p13 + 11, p13 + 12, p13 + 13, p13 + 14, p13 + 15, p13 + 16, p13 + 17, p13 + 18, p13 + 19, p13 + 20, p13 + 21, p13 + 22, p13 + 23, p13 + 24, p13 + 25, p13 + 26, p13 + 27, p13 + 28, p13 + 29, p13 + 30, p13 + 31, p13 + 32, p13 + 33, p13 + 34, p13 + 35, p13 + 36, p13 + 37, p13 + 38, p13 + 39, 9};
Line(14) = {10, 9};
p15 = newp;
Point(p15 + 1) = {12.74747308876837, 0.5684541263443078, 0};
Point(p15 + 2) = {12.72721103768879, 0.6528516430476315, 0};
Point(p15 + 3) = {12.69399576570474, 0.7330404031494363, 0};
Point(p15 + 4) = {12.64864514304763, 0.8070458932447788, 0};
Point(p15 + 5) = {12.59227585255737, 0.8730458525573714, 0};
Point(p15 + 6) = {12.52627589324478, 0.9294151430476316, 0};
Point(p15 + 7) = {12.45227040314944, 0.9747657657047394, 0};
Point(p15 + 8) = {12.37208164304763, 1.007981037688789, 0};
Point(p15 + 9) = {12.28768412634431, 1.028243088768367, 0};
Point(p15 + 10) = {12.201156, 1.035053, 0};
Point(p15 + 11) = {12.11462787365569, 1.028243088768367, 0};
Point(p15 + 12) = {12.03023035695237, 1.007981037688789, 0};
Point(p15 + 13) = {11.95004159685056, 0.9747657657047395, 0};
Point(p15 + 14) = {11.87603610675522, 0.9294151430476316, 0};
Point(p15 + 15) = {11.81003614744263, 0.8730458525573715, 0};
Point(p15 + 16) = {11.75366685695237, 0.8070458932447788, 0};
Point(p15 + 17) = {11.70831623429526, 0.7330404031494364, 0};
Point(p15 + 18) = {11.67510096231121, 0.6528516430476317, 0};
Point(p15 + 19) = {11.65483891123163, 0.5684541263443079, 0};
Point(p15 + 20) = {11.648029, 0.4819260000000001, 0};
Point(p15 + 21) = {11.65483891123163, 0.3953978736556923, 0};
Point(p15 + 22) = {11.67510096231121, 0.3110003569523683, 0};
Point(p15 + 23) = {11.70831623429526, 0.230811596850564, 0};
Point(p15 + 24) = {11.75366685695237, 0.1568061067552213, 0};
Point(p15 + 25) = {11.81003614744263, 0.09080614744262855, 0};
Point(p15 + 26) = {11.87603610675522, 0.03443685695236848, 0};
Point(p15 + 27) = {11.95004159685056, -0.01091376570473934, 0};
Point(p15 + 28) = {12.03023035695237, -0.04412903768878945, 0};
Point(p15 + 29) = {12.11462787365569, -0.06439108876836669, 0};
Point(p15 + 30) = {12.201156, -0.07120100000000001, 0};
Point(p15 + 31) = {12.28768412634431, -0.0643910887683668, 0};
Point(p15 + 32) = {12.37208164304763, -0.04412903768878945, 0};
Point(p15 + 33) = {12.45227040314944, -0.01091376570473945, 0};
Point(p15 + 34) = {12.52627589324478, 0.03443685695236837, 0};
Point(p15 + 35) = {12.59227585255737, 0.09080614744262844, 0};
Point(p15 + 36) = {12.64864514304763, 0.1568061067552212, 0};
Point(p15 + 37) = {12.69399576570474, 0.2308115968505636, 0};
Point(p15 + 38) = {12.72721103768879, 0.3110003569523684, 0};
Point(p15 + 39) = {12.74747308876837, 0.3953978736556921, 0};
Spline(15) = {10, p15 + 1, p15 + 2, p15 + 3, p15 + 4, p15 + 5, p15 + 6, p15 + 7, p15 + 8, p15 + 9, p15 + 10, p15 + 11, p15 + 12, p15 + 13, p15 + 14, p15 + 15, p15 + 16, p15 + 17, p15 + 18, p15 + 19, p15 + 20, p15 + 21, p15 + 22, p15 + 23, p15 + 24, p15 + 25, p15 + 26, p15 + 27, p15 + 28, p15 + 29, p15 + 30, p15 + 31, p15 + 32, p15 + 33, p15 + 34, p15 + 35, p15 + 36, p15 + 37, p15 + 38, p15 + 39, 10};
p16 = newp;
Point(p16 + 1) = {24.09135626821467, 3.296508531913493, 0.1};
Point(p16 + 2) = {24.05988055634403, 3.427614307331702, 0.1};
Point(p16 + 3) = {24.00828290087624, 3.552182066948707, 0.1};
Point(p16 + 4) = {23.9378338073317, 3.667144539106046, 0.1};
Point(p16 + 5) = {23.85026796620063, 3.769670966200635, 0.1};
Point(p16 + 6) = {23.74774153910604, 3.857236807331702, 0.1};
Point(p16 + 7) = {23.63277906694871, 3.927685900876234, 0.1};
Point(p16 + 8) = {23.5082113073317, 3.979283556344029, 0.1};
Point(p16 + 9) = {23.37710553191349, 4.010759268214669, 0.1};
Point(p16 + 10) = {23.24269, 4.021338, 0.1};
Point(p16 + 11) = {23.10827446808651, 4.010759268214669, 0.1};
Point(p16 + 12) = {22.9771686926683, 3.979283556344029, 0.1};
Point(p16 + 13) = {22.85260093305129, 3.927685900876234, 0.1};
Point(p16 + 14) = {22.73763846089395, 3.857236807331702, 0.1};
Point(p16 + 15) = {22.63511203379937, 3.769670966200635, 0.1};
Point(p16 + 16) = {22.5475461926683, 3.667144539106046, 0.1};
Point(p16 + 17) = {22.47709709912376, 3.552182066948707, 0.1};
Point(p16 + 18) = {22.42549944365597, 3.427614307331702, 0.1};
Point(p16 + 19) = {22.39402373178533, 3.296508531913493, 0.1};
Point(p16 + 20) = {22.383445, 3.162093, 0.1};
Point(p16 + 21) = {22.39402373178533, 3.027677468086507, 0.1};
Point(p16 + 22) = {22.42549944365597, 2.896571692668298, 0.1};
Point(p16 + 23) = {22.47709709912376, 2.772003933051294, 0.1};
Point(p16 + 24) = {22.5475461926683, 2.657041460893954, 0.1};
Point(p16 + 25) = {22.63511203379936, 2.554515033799365, 0.1};
Point(p16 + 26) = {22.73763846089395, 2.466949192668298, 0.1};
Point(p16 + 27) = {22.85260093305129, 2.396500099123766, 0.1};
Point(p16 + 28) = {22.9771686926683, 2.344902443655971, 0.1};
Point(p16 + 29) = {23.10827446808651, 2.313426731785331, 0.1};
Point(p16 + 30) = {23.24269, 2.302848, 0.1};
Point(p16 + 31) = {23.37710553191349, 2.313426731785331, 0.1};
Point(p16 + 32) = {23.5082113073317, 2.344902443655971, 0.1};
Point(p16 + 33) = {23.63277906694871, 2.396500099123766, 0.1};
Point(p16 + 34) = {23.74774153910604, 2.466949192668298, 0.1};
Point(p16 + 35) = {23.85026796620063, 2.554515033799365, 0.1};
Point(p16 + 36) = {23.9378338073317, 2.657041460893954, 0.1};
Point(p16 + 37) = {24.00828290087624, 2.772003933051293, 0.1};
Point(p16 + 38) = {24.05988055634403, 2.896571692668298, 0.1};
Point(p16 + 39) = {24.09135626821467, 3.027677468086507, 0.1};
Spline(16) = {11, p16 + 1, p16 + 2, p16 + 3, p16 + 4, p16 + 5, p16 + 6, p16 + 7, p16 + 8, p16 + 9, p16 + 10, p16 + 11, p16 + 12, p16 + 13, p16 + 14, p16 + 15, p16 + 16, p16 + 17, p16 + 18, p16 + 19, p16 + 20, p16 + 21, p16 + 22, p16 + 23, p16 + 24, p16 + 25, p16 + 26, p16 + 27, p16 + 28, p16 + 29, p16 + 30, p16 + 31, p16 + 32, p16 + 33, p16 + 34, p16 + 35, p16 + 36, p16 + 37, p16 + 38, p16 + 39, 11};
Line(17) = {12, 11};
p18 = newp;
Point(p18 + 1) = {24.09135626821467, 3.296508531913493, 0};
Point(p18 + 2) = {24.05988055634403, 3.427614307331702, 0};
Point(p18 + 3) = {24.00828290087624, 3.552182066948707, 0};
Point(p18 + 4) = {23.9378338073317, 3.667144539106046, 0};
Point(p18 + 5) = {23.85026796620063, 3.769670966200635, 0};
Point(p18 + 6) = {23.74774153910604, 3.857236807331702, 0};
Point(p18 + 7) = {23.63277906694871, 3.927685900876234, 0};
Point(p18 + 8) = {23.5082113073317, 3.979283556344029, 0};
Point(p18 + 9) = {23.37710553191349, 4.010759268214669, 0};
Point(p18 + 10) = {23.24269, 4.021338, 0};
Point(p18 + 11) = {23.10827446808651, 4.010759268214669, 0};
Point(p18 + 12) = {22.9771686926683, 3.979283556344029, 0};
Point(p18 + 13) = {22.85260093305129, 3.927685900876234, 0};
Point(p18 + 14) = {22.73763846089395, 3.857236807331702, 0};
Point(p18 + 15) = {22.63511203379937, 3.769670966200635, 0};
Point(p18 + 16) = {22.5475461926683, 3.667144539106046, 0};
Point(p18 + 17) = {22.47709709912376, 3.552182066948707, 0};
Point(p18 + 18) = {22.42549944365597, 3.427614307331702, 0};
Point(p18 + 19) = {22.39402373178533, 3.296508531913493, 0};
Point(p18 + 20) = {22.383445, 3.162093, 0};
Point(p18 + 21) = {22.39402373178533, 3.027677468086507, 0};
Point(p18 + 22) = {22.42549944365597, 2.896571692668298, 0};
Point(p18 + 23) = {22.47709709912376, 2.772003933051294, 0};
Point(p18 + 24) = {22.5475461926683, 2.657041460893954, 0};
Point(p18 + 25) = {22.63511203379936, 2.554515033799365, 0};
Point(p18 + 26) = {22.73763846089395, 2.466949192668298, 0};
Point(p18 + 27) = {22.85260093305129, 2.396500099123766, 0};
Point(p18 + 28) = {22.9771686926683, 2.344902443655971, 0};
Point(p18 + 29) = {23.10827446808651, 2.313426731785331, 0};
Point(p18 + 30) = {23.24269, 2.302848, 0};
Point(p18 + 31) = {23.37710553191349, 2.313426731785331, 0};
Point(p18 + 32) = {23.5082113073317, 2.344902443655971, 0};
Point(p18 + 33) = {23.63277906694871, 2.396500099123766, 0};
Point(p18 + 34) = {23.74774153910604, 2.466949192668298, 0};
Point(p18 + 35) = {23.85026796620063, 2.554515033799365, 0};
Point(p18 + 36) = {23.9378338073317, 2.657041460893954, 0};
Point(p18 + 37) = {24.00828290087624, 2.772003933051293, 0};
Point(p18 + 38) = {24.05988055634403, 2.896571692668298, 0};
Point(p18 + 39) = {24.09135626821467, 3.027677468086507, 0};
Spline(18) = {12, p18 + 1, p18 + 2, p18 + 3, p18 + 4, p18 + 5, p18 + 6, p18 + 7, p18 + 8, p18 + 9, p18 + 10, p18 + 11, p18 + 12, p18 + 13, p18 + 14, p18 + 15, p18 + 16, p18 + 17, p18 + 18, p18 + 19, p18 + 20, p18 + 21, p18 + 22, p18 + 23, p18 + 24, p18 + 25, p18 + 26, p18 + 27, p18 + 28, p18 + 29, p18 + 30, p18 + 31, p18 + 32, p18 + 33, p18 + 34, p18 + 35, p18 + 36, p18 + 37, p18 + 38, p18 + 39, 12};
Line(19) = {14, 13};
Line(20) = {13, 15};
Line(21) = {16, 15};
Line(22) = {14, 16};
Line(23) = {14, 17};
Line(24) = {17, 18};
Line(25) = {13, 18};
Line(26) = {15, 19};
Line(27) = {18, 19};
Line(28) = {16, 20};
Line(29) = {20, 19};
Line(30) = {17, 20};
Curve Loop(7) = {-13, -14, 15, 14};
Surface(7) = {7};
Curve Loop(8) = {13};
Plane Surface(8) = {8};
Curve Loop(9) = {15};
Plane Surface(9) = {9};
Curve Loop(10) = {-16, -17, 18, 17};
Surface(10) = {10};
Curve Loop(11) = {16};
Plane Surface(11) = {11};
Curve Loop(12) = {18};
Plane Surface(12) = {12};
Curve Loop(13) = {-19, 22, 21, -20};
Plane Surface(13) = {13};
Curve Loop(14) = {-23, 19, 25, -24};
Plane Surface(14) = {14};
Curve Loop(15) = {-20, 25, 27, -26};
Plane Surface(15) = {15};
Curve Loop(16) = {-28, 21, 26, -29};
Plane Surface(16) = {16};
Curve Loop(17) = {-22, 23, 30, -28, -15, -18};
Plane Surface(17) = {17};
Curve Loop(18) = {-24, 30, 29, -27};
Plane Surface(18) = {18};
Surface Loop(1) = {13, 14, 15, 16, 17, 18, 7, 10, 8, 11};
Volume(1) = {1};
Surface Loop(2) = {7, 8, 9};
Volume(2) = {2};
Surface Loop(3) = {10, 11, 12};
Volume(3) = {3};
Physical Surface("WALLS") = {13, 18};
Physical Surface("LOAD") = {8, 11};
Physical Surface("BORDER") = {7, 9, 10, 12, 14, 15, 16, 17};
Physical Volume("SOLID") = {1, 2, 3};
