cl__1 = 0.146332;
cl__2 = 0.052107;
cl__3 = 1.552625;
cl__4 = 1.390758;
cl__5 = 0.92079;
cl__6 = 0.805041;
Point(9) = {18.197214, 1.515126, 0.1, cl__1};
Point(10) = {18.197214, 1.515126, 0, cl__1};
Point(11) = {28.780862, 2.664513, 0.1, cl__2};
Point(12) = {28.780862, 2.664513, 0, cl__2};
Point(13) = {0.490359, -3.770907, 0.1, cl__3};
Point(14) = {0.490359, -3.770907, 0, cl__3};
Point(15) = {0.490359, 4.520318000000001, 0.1, cl__4};
Point(16) = {0.490359, 4.520318000000001, 0, cl__4};
Point(17) = {39.487109, -3.770907, 0, cl__5};
Point(18) = {39.487109, -3.770907, 0.1, cl__5};
Point(19) = {39.487109, 4.520318000000001, 0.1, cl__6};
Point(20) = {39.487109, 4.520318000000001, 0, cl__6};
p13 = newp;
Point(p13 + 1) = {18.17919816411797, 1.744038899210345, 0.1};
Point(p13 + 2) = {18.12559426614244, 1.967315203123776, 0.1};
Point(p13 + 3) = {18.0377222119427, 2.179457108126375, 0.1};
Point(p13 + 4) = {17.91774570312378, 2.37524097645836, 0.1};
Point(p13 + 5) = {17.76861895951199, 2.549845959511993, 0.1};
Point(p13 + 6) = {17.59401397645836, 2.698972703123776, 0.1};
Point(p13 + 7) = {17.39823010812638, 2.818949211942702, 0.1};
Point(p13 + 8) = {17.18608820312378, 2.906821266142442, 0.1};
Point(p13 + 9) = {16.96281189921035, 2.960425164117974, 0.1};
Point(p13 + 10) = {16.733899, 2.978441, 0.1};
Point(p13 + 11) = {16.50498610078965, 2.960425164117974, 0.1};
Point(p13 + 12) = {16.28170979687622, 2.906821266142443, 0.1};
Point(p13 + 13) = {16.06956789187362, 2.818949211942702, 0.1};
Point(p13 + 14) = {15.87378402354164, 2.698972703123776, 0.1};
Point(p13 + 15) = {15.69917904048801, 2.549845959511993, 0.1};
Point(p13 + 16) = {15.55005229687622, 2.37524097645836, 0.1};
Point(p13 + 17) = {15.4300757880573, 2.179457108126375, 0.1};
Point(p13 + 18) = {15.34220373385756, 1.967315203123776, 0.1};
Point(p13 + 19) = {15.28859983588203, 1.744038899210345, 0.1};
Point(p13 + 20) = {15.270584, 1.515126, 0.1};
Point(p13 + 21) = {15.28859983588203, 1.286213100789655, 0.1};
Point(p13 + 22) = {15.34220373385756, 1.062936796876223, 0.1};
Point(p13 + 23) = {15.4300757880573, 0.8507948918736258, 0.1};
Point(p13 + 24) = {15.55005229687622, 0.6550110235416399, 0.1};
Point(p13 + 25) = {15.69917904048801, 0.4804060404880073, 0.1};
Point(p13 + 26) = {15.87378402354164, 0.3312792968762239, 0.1};
Point(p13 + 27) = {16.06956789187362, 0.2113027880572986, 0.1};
Point(p13 + 28) = {16.28170979687622, 0.1234307338575575, 0.1};
Point(p13 + 29) = {16.50498610078965, 0.06982683588202621, 0.1};
Point(p13 + 30) = {16.733899, 0.05181100000000005, 0.1};
Point(p13 + 31) = {16.96281189921035, 0.06982683588202598, 0.1};
Point(p13 + 32) = {17.18608820312378, 0.1234307338575573, 0.1};
Point(p13 + 33) = {17.39823010812638, 0.2113027880572984, 0.1};
Point(p13 + 34) = {17.59401397645836, 0.3312792968762237, 0.1};
Point(p13 + 35) = {17.76861895951199, 0.4804060404880071, 0.1};
Point(p13 + 36) = {17.91774570312378, 0.6550110235416395, 0.1};
Point(p13 + 37) = {18.0377222119427, 0.8507948918736248, 0.1};
Point(p13 + 38) = {18.12559426614244, 1.062936796876224, 0.1};
Point(p13 + 39) = {18.17919816411797, 1.286213100789654, 0.1};
Spline(13) = {9, p13 + 1, p13 + 2, p13 + 3, p13 + 4, p13 + 5, p13 + 6, p13 + 7, p13 + 8, p13 + 9, p13 + 10, p13 + 11, p13 + 12, p13 + 13, p13 + 14, p13 + 15, p13 + 16, p13 + 17, p13 + 18, p13 + 19, p13 + 20, p13 + 21, p13 + 22, p13 + 23, p13 + 24, p13 + 25, p13 + 26, p13 + 27, p13 + 28, p13 + 29, p13 + 30, p13 + 31, p13 + 32, p13 + 33, p13 + 34, p13 + 35, p13 + 36, p13 + 37, p13 + 38, p13 + 39, 9};
Line(14) = {10, 9};
p15 = newp;
Point(p15 + 1) = {18.17919816411797, 1.744038899210345, 0};
Point(p15 + 2) = {18.12559426614244, 1.967315203123776, 0};
Point(p15 + 3) = {18.0377222119427, 2.179457108126375, 0};
Point(p15 + 4) = {17.91774570312378, 2.37524097645836, 0};
Point(p15 + 5) = {17.76861895951199, 2.549845959511993, 0};
Point(p15 + 6) = {17.59401397645836, 2.698972703123776, 0};
Point(p15 + 7) = {17.39823010812638, 2.818949211942702, 0};
Point(p15 + 8) = {17.18608820312378, 2.906821266142442, 0};
Point(p15 + 9) = {16.96281189921035, 2.960425164117974, 0};
Point(p15 + 10) = {16.733899, 2.978441, 0};
Point(p15 + 11) = {16.50498610078965, 2.960425164117974, 0};
Point(p15 + 12) = {16.28170979687622, 2.906821266142443, 0};
Point(p15 + 13) = {16.06956789187362, 2.818949211942702, 0};
Point(p15 + 14) = {15.87378402354164, 2.698972703123776, 0};
Point(p15 + 15) = {15.69917904048801, 2.549845959511993, 0};
Point(p15 + 16) = {15.55005229687622, 2.37524097645836, 0};
Point(p15 + 17) = {15.4300757880573, 2.179457108126375, 0};
Point(p15 + 18) = {15.34220373385756, 1.967315203123776, 0};
Point(p15 + 19) = {15.28859983588203, 1.744038899210345, 0};
Point(p15 + 20) = {15.270584, 1.515126, 0};
Point(p15 + 21) = {15.28859983588203, 1.286213100789655, 0};
Point(p15 + 22) = {15.34220373385756, 1.062936796876223, 0};
Point(p15 + 23) = {15.4300757880573, 0.8507948918736258, 0};
Point(p15 + 24) = {15.55005229687622, 0.6550110235416399, 0};
Point(p15 + 25) = {15.69917904048801, 0.4804060404880073, 0};
Point(p15 + 26) = {15.87378402354164, 0.3312792968762239, 0};
Point(p15 + 27) = {16.06956789187362, 0.2113027880572986, 0};
Point(p15 + 28) = {16.28170979687622, 0.1234307338575575, 0};
Point(p15 + 29) = {16.50498610078965, 0.06982683588202621, 0};
Point(p15 + 30) = {16.733899, 0.05181100000000005, 0};
Point(p15 + 31) = {16.96281189921035, 0.06982683588202598, 0};
Point(p15 + 32) = {17.18608820312378, 0.1234307338575573, 0};
Point(p15 + 33) = {17.39823010812638, 0.2113027880572984, 0};
Point(p15 + 34) = {17.59401397645836, 0.3312792968762237, 0};
Point(p15 + 35) = {17.76861895951199, 0.4804060404880071, 0};
Point(p15 + 36) = {17.91774570312378, 0.6550110235416395, 0};
Point(p15 + 37) = {18.0377222119427, 0.8507948918736248, 0};
Point(p15 + 38) = {18.12559426614244, 1.062936796876224, 0};
Point(p15 + 39) = {18.17919816411797, 1.286213100789654, 0};
Spline(15) = {10, p15 + 1, p15 + 2, p15 + 3, p15 + 4, p15 + 5, p15 + 6, p15 + 7, p15 + 8, p15 + 9, p15 + 10, p15 + 11, p15 + 12, p15 + 13, p15 + 14, p15 + 15, p15 + 16, p15 + 17, p15 + 18, p15 + 19, p15 + 20, p15 + 21, p15 + 22, p15 + 23, p15 + 24, p15 + 25, p15 + 26, p15 + 27, p15 + 28, p15 + 29, p15 + 30, p15 + 31, p15 + 32, p15 + 33, p15 + 34, p15 + 35, p15 + 36, p15 + 37, p15 + 38, p15 + 39, 10};
p16 = newp;
Point(p16 + 1) = {28.77444671438727, 2.746026932436373, 0.1};
Point(p16 + 2) = {28.75535882317198, 2.825533721326931, 0.1};
Point(p16 + 3) = {28.72406833358493, 2.901075645661285, 0.1};
Point(p16 + 4) = {28.68134572132693, 2.970792612553048, 0.1};
Point(p16 + 5) = {28.6282429589, 3.032967958899999, 0.1};
Point(p16 + 6) = {28.56606761255305, 3.086070721326931, 0.1};
Point(p16 + 7) = {28.49635064566128, 3.128793333584929, 0.1};
Point(p16 + 8) = {28.42080872132693, 3.160083823171981, 0.1};
Point(p16 + 9) = {28.34130193243637, 3.179171714387271, 0.1};
Point(p16 + 10) = {28.259788, 3.185587, 0.1};
Point(p16 + 11) = {28.17827406756363, 3.179171714387271, 0.1};
Point(p16 + 12) = {28.09876727867307, 3.160083823171981, 0.1};
Point(p16 + 13) = {28.02322535433872, 3.128793333584929, 0.1};
Point(p16 + 14) = {27.95350838744695, 3.086070721326931, 0.1};
Point(p16 + 15) = {27.8913330411, 3.032967958899999, 0.1};
Point(p16 + 16) = {27.83823027867307, 2.970792612553048, 0.1};
Point(p16 + 17) = {27.79550766641507, 2.901075645661285, 0.1};
Point(p16 + 18) = {27.76421717682802, 2.825533721326931, 0.1};
Point(p16 + 19) = {27.74512928561273, 2.746026932436373, 0.1};
Point(p16 + 20) = {27.738714, 2.664513, 0.1};
Point(p16 + 21) = {27.74512928561273, 2.582999067563627, 0.1};
Point(p16 + 22) = {27.76421717682802, 2.503492278673068, 0.1};
Point(p16 + 23) = {27.79550766641507, 2.427950354338716, 0.1};
Point(p16 + 24) = {27.83823027867307, 2.358233387446952, 0.1};
Point(p16 + 25) = {27.8913330411, 2.296058041100001, 0.1};
Point(p16 + 26) = {27.95350838744695, 2.242955278673068, 0.1};
Point(p16 + 27) = {28.02322535433872, 2.20023266641507, 0.1};
Point(p16 + 28) = {28.09876727867307, 2.168942176828019, 0.1};
Point(p16 + 29) = {28.17827406756363, 2.149854285612729, 0.1};
Point(p16 + 30) = {28.259788, 2.143439, 0.1};
Point(p16 + 31) = {28.34130193243637, 2.149854285612729, 0.1};
Point(p16 + 32) = {28.42080872132693, 2.168942176828019, 0.1};
Point(p16 + 33) = {28.49635064566128, 2.20023266641507, 0.1};
Point(p16 + 34) = {28.56606761255305, 2.242955278673068, 0.1};
Point(p16 + 35) = {28.6282429589, 2.296058041100001, 0.1};
Point(p16 + 36) = {28.68134572132693, 2.358233387446952, 0.1};
Point(p16 + 37) = {28.72406833358493, 2.427950354338715, 0.1};
Point(p16 + 38) = {28.75535882317198, 2.503492278673068, 0.1};
Point(p16 + 39) = {28.77444671438727, 2.582999067563627, 0.1};
Spline(16) = {11, p16 + 1, p16 + 2, p16 + 3, p16 + 4, p16 + 5, p16 + 6, p16 + 7, p16 + 8, p16 + 9, p16 + 10, p16 + 11, p16 + 12, p16 + 13, p16 + 14, p16 + 15, p16 + 16, p16 + 17, p16 + 18, p16 + 19, p16 + 20, p16 + 21, p16 + 22, p16 + 23, p16 + 24, p16 + 25, p16 + 26, p16 + 27, p16 + 28, p16 + 29, p16 + 30, p16 + 31, p16 + 32, p16 + 33, p16 + 34, p16 + 35, p16 + 36, p16 + 37, p16 + 38, p16 + 39, 11};
Line(17) = {12, 11};
p18 = newp;
Point(p18 + 1) = {28.77444671438727, 2.746026932436373, 0};
Point(p18 + 2) = {28.75535882317198, 2.825533721326931, 0};
Point(p18 + 3) = {28.72406833358493, 2.901075645661285, 0};
Point(p18 + 4) = {28.68134572132693, 2.970792612553048, 0};
Point(p18 + 5) = {28.6282429589, 3.032967958899999, 0};
Point(p18 + 6) = {28.56606761255305, 3.086070721326931, 0};
Point(p18 + 7) = {28.49635064566128, 3.128793333584929, 0};
Point(p18 + 8) = {28.42080872132693, 3.160083823171981, 0};
Point(p18 + 9) = {28.34130193243637, 3.179171714387271, 0};
Point(p18 + 10) = {28.259788, 3.185587, 0};
Point(p18 + 11) = {28.17827406756363, 3.179171714387271, 0};
Point(p18 + 12) = {28.09876727867307, 3.160083823171981, 0};
Point(p18 + 13) = {28.02322535433872, 3.128793333584929, 0};
Point(p18 + 14) = {27.95350838744695, 3.086070721326931, 0};
Point(p18 + 15) = {27.8913330411, 3.032967958899999, 0};
Point(p18 + 16) = {27.83823027867307, 2.970792612553048, 0};
Point(p18 + 17) = {27.79550766641507, 2.901075645661285, 0};
Point(p18 + 18) = {27.76421717682802, 2.825533721326931, 0};
Point(p18 + 19) = {27.74512928561273, 2.746026932436373, 0};
Point(p18 + 20) = {27.738714, 2.664513, 0};
Point(p18 + 21) = {27.74512928561273, 2.582999067563627, 0};
Point(p18 + 22) = {27.76421717682802, 2.503492278673068, 0};
Point(p18 + 23) = {27.79550766641507, 2.427950354338716, 0};
Point(p18 + 24) = {27.83823027867307, 2.358233387446952, 0};
Point(p18 + 25) = {27.8913330411, 2.296058041100001, 0};
Point(p18 + 26) = {27.95350838744695, 2.242955278673068, 0};
Point(p18 + 27) = {28.02322535433872, 2.20023266641507, 0};
Point(p18 + 28) = {28.09876727867307, 2.168942176828019, 0};
Point(p18 + 29) = {28.17827406756363, 2.149854285612729, 0};
Point(p18 + 30) = {28.259788, 2.143439, 0};
Point(p18 + 31) = {28.34130193243637, 2.149854285612729, 0};
Point(p18 + 32) = {28.42080872132693, 2.168942176828019, 0};
Point(p18 + 33) = {28.49635064566128, 2.20023266641507, 0};
Point(p18 + 34) = {28.56606761255305, 2.242955278673068, 0};
Point(p18 + 35) = {28.6282429589, 2.296058041100001, 0};
Point(p18 + 36) = {28.68134572132693, 2.358233387446952, 0};
Point(p18 + 37) = {28.72406833358493, 2.427950354338715, 0};
Point(p18 + 38) = {28.75535882317198, 2.503492278673068, 0};
Point(p18 + 39) = {28.77444671438727, 2.582999067563627, 0};
Spline(18) = {12, p18 + 1, p18 + 2, p18 + 3, p18 + 4, p18 + 5, p18 + 6, p18 + 7, p18 + 8, p18 + 9, p18 + 10, p18 + 11, p18 + 12, p18 + 13, p18 + 14, p18 + 15, p18 + 16, p18 + 17, p18 + 18, p18 + 19, p18 + 20, p18 + 21, p18 + 22, p18 + 23, p18 + 24, p18 + 25, p18 + 26, p18 + 27, p18 + 28, p18 + 29, p18 + 30, p18 + 31, p18 + 32, p18 + 33, p18 + 34, p18 + 35, p18 + 36, p18 + 37, p18 + 38, p18 + 39, 12};
Line(19) = {14, 13};
Line(20) = {13, 15};
Line(21) = {16, 15};
Line(22) = {14, 16};
Line(23) = {14, 17};
Line(24) = {17, 18};
Line(25) = {13, 18};
Line(26) = {15, 19};
Line(27) = {18, 19};
Line(28) = {16, 20};
Line(29) = {20, 19};
Line(30) = {17, 20};
Curve Loop(7) = {-13, -14, 15, 14};
Surface(7) = {7};
Curve Loop(8) = {13};
Plane Surface(8) = {8};
Curve Loop(9) = {15};
Plane Surface(9) = {9};
Curve Loop(10) = {-16, -17, 18, 17};
Surface(10) = {10};
Curve Loop(11) = {16};
Plane Surface(11) = {11};
Curve Loop(12) = {18};
Plane Surface(12) = {12};
Curve Loop(13) = {-19, 22, 21, -20};
Plane Surface(13) = {13};
Curve Loop(14) = {-23, 19, 25, -24};
Plane Surface(14) = {14};
Curve Loop(15) = {-20, 25, 27, -26, -13, -16};
Plane Surface(15) = {15};
Curve Loop(16) = {-28, 21, 26, -29};
Plane Surface(16) = {16};
Curve Loop(17) = {-22, 23, 30, -28, -15, -18};
Plane Surface(17) = {17};
Curve Loop(18) = {-24, 30, 29, -27};
Plane Surface(18) = {18};
Surface Loop(1) = {13, 14, 15, 16, 17, 18, 7, 10};
Volume(1) = {1};
Surface Loop(2) = {7, 8, 9};
Volume(2) = {2};
Surface Loop(3) = {10, 11, 12};
Volume(3) = {3};
Physical Surface("WALLS") = {13, 18};
Physical Surface("LOAD") = {8, 11};
Physical Surface("BORDER") = {7, 9, 10, 12, 14, 15, 16, 17};
Physical Volume("SOLID") = {1, 2, 3};
