cl__1 = 0.076125;
cl__2 = 0.129937;
cl__3 = 1.994738;
cl__4 = 1.627486;
cl__5 = 0.774678;
cl__6 = 0.7902400000000001;
Point(9) = {16.804008, 2.425119, 0.1, cl__1};
Point(10) = {16.804008, 2.425119, 0, cl__1};
Point(11) = {26.469595, -0.1188100000000003, 0.1, cl__2};
Point(12) = {26.469595, -0.1188100000000003, 0, cl__2};
Point(13) = {0.111549, -3.764306, 0.1, cl__3};
Point(14) = {0.111549, -3.764306, 0, cl__3};
Point(15) = {0.111549, 4.113533, 0.1, cl__4};
Point(16) = {0.111549, 4.113533, 0, cl__4};
Point(17) = {35.91770099999999, -3.764306, 0, cl__5};
Point(18) = {35.91770099999999, -3.764306, 0.1, cl__5};
Point(19) = {35.91770099999999, 4.113533, 0.1, cl__6};
Point(20) = {35.91770099999999, 4.113533, 0, cl__6};
p13 = newp;
Point(p13 + 1) = {16.79463571234307, 2.544205205815271, 0.1};
Point(p13 + 2) = {16.76674962619924, 2.660359114018912, 0.1};
Point(p13 + 3) = {16.72103638955797, 2.770720629898229, 0.1};
Point(p13 + 4) = {16.65862161401891, 2.872572286663402, 0.1};
Point(p13 + 5) = {16.5810421584986, 2.963406158498603, 0.1};
Point(p13 + 6) = {16.4902082866634, 3.040985614018912, 0.1};
Point(p13 + 7) = {16.38835662989823, 3.103400389557967, 0.1};
Point(p13 + 8) = {16.27799511401891, 3.149113626199235, 0.1};
Point(p13 + 9) = {16.16184120581527, 3.17699971234307, 0.1};
Point(p13 + 10) = {16.042755, 3.186372, 0.1};
Point(p13 + 11) = {15.92366879418473, 3.17699971234307, 0.1};
Point(p13 + 12) = {15.80751488598109, 3.149113626199235, 0.1};
Point(p13 + 13) = {15.69715337010177, 3.103400389557968, 0.1};
Point(p13 + 14) = {15.5953017133366, 3.040985614018912, 0.1};
Point(p13 + 15) = {15.5044678415014, 2.963406158498603, 0.1};
Point(p13 + 16) = {15.42688838598109, 2.872572286663402, 0.1};
Point(p13 + 17) = {15.36447361044203, 2.770720629898229, 0.1};
Point(p13 + 18) = {15.31876037380077, 2.660359114018912, 0.1};
Point(p13 + 19) = {15.29087428765693, 2.544205205815271, 0.1};
Point(p13 + 20) = {15.281502, 2.425119, 0.1};
Point(p13 + 21) = {15.29087428765693, 2.306032794184729, 0.1};
Point(p13 + 22) = {15.31876037380077, 2.189878885981088, 0.1};
Point(p13 + 23) = {15.36447361044203, 2.079517370101771, 0.1};
Point(p13 + 24) = {15.42688838598109, 1.977665713336598, 0.1};
Point(p13 + 25) = {15.5044678415014, 1.886831841501397, 0.1};
Point(p13 + 26) = {15.5953017133366, 1.809252385981088, 0.1};
Point(p13 + 27) = {15.69715337010177, 1.746837610442033, 0.1};
Point(p13 + 28) = {15.80751488598109, 1.701124373800766, 0.1};
Point(p13 + 29) = {15.92366879418473, 1.67323828765693, 0.1};
Point(p13 + 30) = {16.042755, 1.663866, 0.1};
Point(p13 + 31) = {16.16184120581527, 1.67323828765693, 0.1};
Point(p13 + 32) = {16.27799511401891, 1.701124373800766, 0.1};
Point(p13 + 33) = {16.38835662989823, 1.746837610442032, 0.1};
Point(p13 + 34) = {16.4902082866634, 1.809252385981088, 0.1};
Point(p13 + 35) = {16.5810421584986, 1.886831841501397, 0.1};
Point(p13 + 36) = {16.65862161401891, 1.977665713336598, 0.1};
Point(p13 + 37) = {16.72103638955797, 2.079517370101771, 0.1};
Point(p13 + 38) = {16.76674962619924, 2.189878885981088, 0.1};
Point(p13 + 39) = {16.79463571234307, 2.306032794184729, 0.1};
Spline(13) = {9, p13 + 1, p13 + 2, p13 + 3, p13 + 4, p13 + 5, p13 + 6, p13 + 7, p13 + 8, p13 + 9, p13 + 10, p13 + 11, p13 + 12, p13 + 13, p13 + 14, p13 + 15, p13 + 16, p13 + 17, p13 + 18, p13 + 19, p13 + 20, p13 + 21, p13 + 22, p13 + 23, p13 + 24, p13 + 25, p13 + 26, p13 + 27, p13 + 28, p13 + 29, p13 + 30, p13 + 31, p13 + 32, p13 + 33, p13 + 34, p13 + 35, p13 + 36, p13 + 37, p13 + 38, p13 + 39, 9};
Line(14) = {10, 9};
p15 = newp;
Point(p15 + 1) = {16.79463571234307, 2.544205205815271, 0};
Point(p15 + 2) = {16.76674962619924, 2.660359114018912, 0};
Point(p15 + 3) = {16.72103638955797, 2.770720629898229, 0};
Point(p15 + 4) = {16.65862161401891, 2.872572286663402, 0};
Point(p15 + 5) = {16.5810421584986, 2.963406158498603, 0};
Point(p15 + 6) = {16.4902082866634, 3.040985614018912, 0};
Point(p15 + 7) = {16.38835662989823, 3.103400389557967, 0};
Point(p15 + 8) = {16.27799511401891, 3.149113626199235, 0};
Point(p15 + 9) = {16.16184120581527, 3.17699971234307, 0};
Point(p15 + 10) = {16.042755, 3.186372, 0};
Point(p15 + 11) = {15.92366879418473, 3.17699971234307, 0};
Point(p15 + 12) = {15.80751488598109, 3.149113626199235, 0};
Point(p15 + 13) = {15.69715337010177, 3.103400389557968, 0};
Point(p15 + 14) = {15.5953017133366, 3.040985614018912, 0};
Point(p15 + 15) = {15.5044678415014, 2.963406158498603, 0};
Point(p15 + 16) = {15.42688838598109, 2.872572286663402, 0};
Point(p15 + 17) = {15.36447361044203, 2.770720629898229, 0};
Point(p15 + 18) = {15.31876037380077, 2.660359114018912, 0};
Point(p15 + 19) = {15.29087428765693, 2.544205205815271, 0};
Point(p15 + 20) = {15.281502, 2.425119, 0};
Point(p15 + 21) = {15.29087428765693, 2.306032794184729, 0};
Point(p15 + 22) = {15.31876037380077, 2.189878885981088, 0};
Point(p15 + 23) = {15.36447361044203, 2.079517370101771, 0};
Point(p15 + 24) = {15.42688838598109, 1.977665713336598, 0};
Point(p15 + 25) = {15.5044678415014, 1.886831841501397, 0};
Point(p15 + 26) = {15.5953017133366, 1.809252385981088, 0};
Point(p15 + 27) = {15.69715337010177, 1.746837610442033, 0};
Point(p15 + 28) = {15.80751488598109, 1.701124373800766, 0};
Point(p15 + 29) = {15.92366879418473, 1.67323828765693, 0};
Point(p15 + 30) = {16.042755, 1.663866, 0};
Point(p15 + 31) = {16.16184120581527, 1.67323828765693, 0};
Point(p15 + 32) = {16.27799511401891, 1.701124373800766, 0};
Point(p15 + 33) = {16.38835662989823, 1.746837610442032, 0};
Point(p15 + 34) = {16.4902082866634, 1.809252385981088, 0};
Point(p15 + 35) = {16.5810421584986, 1.886831841501397, 0};
Point(p15 + 36) = {16.65862161401891, 1.977665713336598, 0};
Point(p15 + 37) = {16.72103638955797, 2.079517370101771, 0};
Point(p15 + 38) = {16.76674962619924, 2.189878885981088, 0};
Point(p15 + 39) = {16.79463571234307, 2.306032794184729, 0};
Spline(15) = {10, p15 + 1, p15 + 2, p15 + 3, p15 + 4, p15 + 5, p15 + 6, p15 + 7, p15 + 8, p15 + 9, p15 + 10, p15 + 11, p15 + 12, p15 + 13, p15 + 14, p15 + 15, p15 + 16, p15 + 17, p15 + 18, p15 + 19, p15 + 20, p15 + 21, p15 + 22, p15 + 23, p15 + 24, p15 + 25, p15 + 26, p15 + 27, p15 + 28, p15 + 29, p15 + 30, p15 + 31, p15 + 32, p15 + 33, p15 + 34, p15 + 35, p15 + 36, p15 + 37, p15 + 38, p15 + 39, 10};
p16 = newp;
Point(p16 + 1) = {26.45359757449578, 0.08445656370825486, 0.1};
Point(p16 + 2) = {26.40599920769147, 0.2827180300149641, 0.1};
Point(p16 + 3) = {26.32797192934769, 0.4710925436275744, 0.1};
Point(p16 + 4) = {26.22143703001496, 0.6449416988417754, 0.1};
Point(p16 + 5) = {26.08901775248393, 0.7999847524839265, 0.1};
Point(p16 + 6) = {25.93397469884178, 0.9324040300149642, 0.1};
Point(p16 + 7) = {25.76012554362757, 1.038938929347688, 0.1};
Point(p16 + 8) = {25.57175103001497, 1.116966207691466, 0.1};
Point(p16 + 9) = {25.37348956370825, 1.164564574495785, 0.1};
Point(p16 + 10) = {25.170223, 1.180562, 0.1};
Point(p16 + 11) = {24.96695643629175, 1.164564574495785, 0.1};
Point(p16 + 12) = {24.76869496998503, 1.116966207691466, 0.1};
Point(p16 + 13) = {24.58032045637243, 1.038938929347688, 0.1};
Point(p16 + 14) = {24.40647130115822, 0.9324040300149642, 0.1};
Point(p16 + 15) = {24.25142824751607, 0.7999847524839268, 0.1};
Point(p16 + 16) = {24.11900896998504, 0.6449416988417755, 0.1};
Point(p16 + 17) = {24.01247407065231, 0.4710925436275745, 0.1};
Point(p16 + 18) = {23.93444679230853, 0.2827180300149643, 0.1};
Point(p16 + 19) = {23.88684842550422, 0.08445656370825499, 0.1};
Point(p16 + 20) = {23.870851, -0.1188099999999998, 0.1};
Point(p16 + 21) = {23.88684842550422, -0.3220765637082547, 0.1};
Point(p16 + 22) = {23.93444679230853, -0.5203380300149646, 0.1};
Point(p16 + 23) = {24.01247407065231, -0.7087125436275737, 0.1};
Point(p16 + 24) = {24.11900896998504, -0.8825616988417753, 0.1};
Point(p16 + 25) = {24.25142824751607, -1.037604752483926, 0.1};
Point(p16 + 26) = {24.40647130115822, -1.170024030014964, 0.1};
Point(p16 + 27) = {24.58032045637243, -1.276558929347688, 0.1};
Point(p16 + 28) = {24.76869496998503, -1.354586207691466, 0.1};
Point(p16 + 29) = {24.96695643629175, -1.402184574495785, 0.1};
Point(p16 + 30) = {25.170223, -1.418182, 0.1};
Point(p16 + 31) = {25.37348956370825, -1.402184574495785, 0.1};
Point(p16 + 32) = {25.57175103001497, -1.354586207691467, 0.1};
Point(p16 + 33) = {25.76012554362757, -1.276558929347688, 0.1};
Point(p16 + 34) = {25.93397469884178, -1.170024030014964, 0.1};
Point(p16 + 35) = {26.08901775248393, -1.037604752483927, 0.1};
Point(p16 + 36) = {26.22143703001496, -0.8825616988417755, 0.1};
Point(p16 + 37) = {26.32797192934769, -0.7087125436275746, 0.1};
Point(p16 + 38) = {26.40599920769147, -0.5203380300149645, 0.1};
Point(p16 + 39) = {26.45359757449578, -0.3220765637082552, 0.1};
Spline(16) = {11, p16 + 1, p16 + 2, p16 + 3, p16 + 4, p16 + 5, p16 + 6, p16 + 7, p16 + 8, p16 + 9, p16 + 10, p16 + 11, p16 + 12, p16 + 13, p16 + 14, p16 + 15, p16 + 16, p16 + 17, p16 + 18, p16 + 19, p16 + 20, p16 + 21, p16 + 22, p16 + 23, p16 + 24, p16 + 25, p16 + 26, p16 + 27, p16 + 28, p16 + 29, p16 + 30, p16 + 31, p16 + 32, p16 + 33, p16 + 34, p16 + 35, p16 + 36, p16 + 37, p16 + 38, p16 + 39, 11};
Line(17) = {12, 11};
p18 = newp;
Point(p18 + 1) = {26.45359757449578, 0.08445656370825486, 0};
Point(p18 + 2) = {26.40599920769147, 0.2827180300149641, 0};
Point(p18 + 3) = {26.32797192934769, 0.4710925436275744, 0};
Point(p18 + 4) = {26.22143703001496, 0.6449416988417754, 0};
Point(p18 + 5) = {26.08901775248393, 0.7999847524839265, 0};
Point(p18 + 6) = {25.93397469884178, 0.9324040300149642, 0};
Point(p18 + 7) = {25.76012554362757, 1.038938929347688, 0};
Point(p18 + 8) = {25.57175103001497, 1.116966207691466, 0};
Point(p18 + 9) = {25.37348956370825, 1.164564574495785, 0};
Point(p18 + 10) = {25.170223, 1.180562, 0};
Point(p18 + 11) = {24.96695643629175, 1.164564574495785, 0};
Point(p18 + 12) = {24.76869496998503, 1.116966207691466, 0};
Point(p18 + 13) = {24.58032045637243, 1.038938929347688, 0};
Point(p18 + 14) = {24.40647130115822, 0.9324040300149642, 0};
Point(p18 + 15) = {24.25142824751607, 0.7999847524839268, 0};
Point(p18 + 16) = {24.11900896998504, 0.6449416988417755, 0};
Point(p18 + 17) = {24.01247407065231, 0.4710925436275745, 0};
Point(p18 + 18) = {23.93444679230853, 0.2827180300149643, 0};
Point(p18 + 19) = {23.88684842550422, 0.08445656370825499, 0};
Point(p18 + 20) = {23.870851, -0.1188099999999998, 0};
Point(p18 + 21) = {23.88684842550422, -0.3220765637082547, 0};
Point(p18 + 22) = {23.93444679230853, -0.5203380300149646, 0};
Point(p18 + 23) = {24.01247407065231, -0.7087125436275737, 0};
Point(p18 + 24) = {24.11900896998504, -0.8825616988417753, 0};
Point(p18 + 25) = {24.25142824751607, -1.037604752483926, 0};
Point(p18 + 26) = {24.40647130115822, -1.170024030014964, 0};
Point(p18 + 27) = {24.58032045637243, -1.276558929347688, 0};
Point(p18 + 28) = {24.76869496998503, -1.354586207691466, 0};
Point(p18 + 29) = {24.96695643629175, -1.402184574495785, 0};
Point(p18 + 30) = {25.170223, -1.418182, 0};
Point(p18 + 31) = {25.37348956370825, -1.402184574495785, 0};
Point(p18 + 32) = {25.57175103001497, -1.354586207691467, 0};
Point(p18 + 33) = {25.76012554362757, -1.276558929347688, 0};
Point(p18 + 34) = {25.93397469884178, -1.170024030014964, 0};
Point(p18 + 35) = {26.08901775248393, -1.037604752483927, 0};
Point(p18 + 36) = {26.22143703001496, -0.8825616988417755, 0};
Point(p18 + 37) = {26.32797192934769, -0.7087125436275746, 0};
Point(p18 + 38) = {26.40599920769147, -0.5203380300149645, 0};
Point(p18 + 39) = {26.45359757449578, -0.3220765637082552, 0};
Spline(18) = {12, p18 + 1, p18 + 2, p18 + 3, p18 + 4, p18 + 5, p18 + 6, p18 + 7, p18 + 8, p18 + 9, p18 + 10, p18 + 11, p18 + 12, p18 + 13, p18 + 14, p18 + 15, p18 + 16, p18 + 17, p18 + 18, p18 + 19, p18 + 20, p18 + 21, p18 + 22, p18 + 23, p18 + 24, p18 + 25, p18 + 26, p18 + 27, p18 + 28, p18 + 29, p18 + 30, p18 + 31, p18 + 32, p18 + 33, p18 + 34, p18 + 35, p18 + 36, p18 + 37, p18 + 38, p18 + 39, 12};
Line(19) = {14, 13};
Line(20) = {13, 15};
Line(21) = {16, 15};
Line(22) = {14, 16};
Line(23) = {14, 17};
Line(24) = {17, 18};
Line(25) = {13, 18};
Line(26) = {15, 19};
Line(27) = {18, 19};
Line(28) = {16, 20};
Line(29) = {20, 19};
Line(30) = {17, 20};
Curve Loop(7) = {-13, -14, 15, 14};
Surface(7) = {7};
Curve Loop(8) = {13};
Plane Surface(8) = {8};
Curve Loop(9) = {15};
Plane Surface(9) = {9};
Curve Loop(10) = {-16, -17, 18, 17};
Surface(10) = {10};
Curve Loop(11) = {16};
Plane Surface(11) = {11};
Curve Loop(12) = {18};
Plane Surface(12) = {12};
Curve Loop(13) = {-19, 22, 21, -20};
Plane Surface(13) = {13};
Curve Loop(14) = {-23, 19, 25, -24};
Plane Surface(14) = {14};
Curve Loop(15) = {-20, 25, 27, -26, -16, -13};
Plane Surface(15) = {15};
Curve Loop(16) = {-28, 21, 26, -29};
Plane Surface(16) = {16};
Curve Loop(17) = {-22, 23, 30, -28, -18, -15};
Plane Surface(17) = {17};
Curve Loop(18) = {-24, 30, 29, -27};
Plane Surface(18) = {18};
Surface Loop(1) = {13, 14, 15, 16, 17, 18, 10, 7};
Volume(1) = {1};
Surface Loop(2) = {7, 8, 9};
Volume(2) = {2};
Surface Loop(3) = {10, 11, 12};
Volume(3) = {3};
Physical Surface("WALLS") = {13, 18};
Physical Surface("LOAD") = {8, 11};
Physical Surface("BORDER") = {7, 9, 10, 12, 14, 15, 16, 17};
Physical Volume("SOLID") = {1, 2, 3};
