cl__1 = 0.072269;
cl__2 = 0.103193;
cl__3 = 1.978777;
cl__4 = 1.680709;
cl__5 = 0.779146;
cl__6 = 0.7764529999999999;
Point(9) = {17.531811, 2.014983, 0.1, cl__1};
Point(10) = {17.531811, 2.014983, 0, cl__1};
Point(11) = {22.438949, 0.3930369999999997, 0.1, cl__2};
Point(12) = {22.438949, 0.3930369999999997, 0, cl__2};
Point(13) = {0.6535339999999999, -4.073803, 0.1, cl__3};
Point(14) = {0.6535339999999999, -4.073803, 0, cl__3};
Point(15) = {0.6535339999999999, 4.769343000000001, 0.1, cl__4};
Point(16) = {0.6535339999999999, 4.769343000000001, 0, cl__4};
Point(17) = {31.784736, -4.073803, 0, cl__5};
Point(18) = {31.784736, -4.073803, 0.1, cl__5};
Point(19) = {31.784736, 4.769343000000001, 0.1, cl__6};
Point(20) = {31.784736, 4.769343000000001, 0, cl__6};
p13 = newp;
Point(p13 + 1) = {17.5229134868647, 2.128036623539924, 0.1};
Point(p13 + 2) = {17.49644003376135, 2.238306491664831, 0.1};
Point(p13 + 3) = {17.45304250496569, 2.343077394256773, 0.1};
Point(p13 + 4) = {17.39378949166483, 2.439769523979248, 0.1};
Point(p13 + 5) = {17.32013999969571, 2.526001999695706, 0.1};
Point(p13 + 6) = {17.23390752397925, 2.599651491664831, 0.1};
Point(p13 + 7) = {17.13721539425677, 2.658904504965692, 0.1};
Point(p13 + 8) = {17.03244449166483, 2.702302033761344, 0.1};
Point(p13 + 9) = {16.92217462353993, 2.7287754868647, 0.1};
Point(p13 + 10) = {16.809121, 2.737673, 0.1};
Point(p13 + 11) = {16.69606737646007, 2.7287754868647, 0.1};
Point(p13 + 12) = {16.58579750833517, 2.702302033761344, 0.1};
Point(p13 + 13) = {16.48102660574323, 2.658904504965692, 0.1};
Point(p13 + 14) = {16.38433447602075, 2.599651491664831, 0.1};
Point(p13 + 15) = {16.29810200030429, 2.526001999695706, 0.1};
Point(p13 + 16) = {16.22445250833517, 2.439769523979248, 0.1};
Point(p13 + 17) = {16.16519949503431, 2.343077394256773, 0.1};
Point(p13 + 18) = {16.12180196623866, 2.238306491664831, 0.1};
Point(p13 + 19) = {16.0953285131353, 2.128036623539924, 0.1};
Point(p13 + 20) = {16.086431, 2.014983, 0.1};
Point(p13 + 21) = {16.0953285131353, 1.901929376460076, 0.1};
Point(p13 + 22) = {16.12180196623866, 1.791659508335169, 0.1};
Point(p13 + 23) = {16.16519949503431, 1.686888605743227, 0.1};
Point(p13 + 24) = {16.22445250833517, 1.590196476020753, 0.1};
Point(p13 + 25) = {16.29810200030429, 1.503964000304294, 0.1};
Point(p13 + 26) = {16.38433447602075, 1.430314508335169, 0.1};
Point(p13 + 27) = {16.48102660574323, 1.371061495034308, 0.1};
Point(p13 + 28) = {16.58579750833517, 1.327663966238656, 0.1};
Point(p13 + 29) = {16.69606737646007, 1.3011905131353, 0.1};
Point(p13 + 30) = {16.809121, 1.292293, 0.1};
Point(p13 + 31) = {16.92217462353992, 1.3011905131353, 0.1};
Point(p13 + 32) = {17.03244449166483, 1.327663966238655, 0.1};
Point(p13 + 33) = {17.13721539425677, 1.371061495034308, 0.1};
Point(p13 + 34) = {17.23390752397925, 1.430314508335169, 0.1};
Point(p13 + 35) = {17.32013999969571, 1.503964000304294, 0.1};
Point(p13 + 36) = {17.39378949166483, 1.590196476020752, 0.1};
Point(p13 + 37) = {17.45304250496569, 1.686888605743227, 0.1};
Point(p13 + 38) = {17.49644003376135, 1.791659508335169, 0.1};
Point(p13 + 39) = {17.5229134868647, 1.901929376460075, 0.1};
Spline(13) = {9, p13 + 1, p13 + 2, p13 + 3, p13 + 4, p13 + 5, p13 + 6, p13 + 7, p13 + 8, p13 + 9, p13 + 10, p13 + 11, p13 + 12, p13 + 13, p13 + 14, p13 + 15, p13 + 16, p13 + 17, p13 + 18, p13 + 19, p13 + 20, p13 + 21, p13 + 22, p13 + 23, p13 + 24, p13 + 25, p13 + 26, p13 + 27, p13 + 28, p13 + 29, p13 + 30, p13 + 31, p13 + 32, p13 + 33, p13 + 34, p13 + 35, p13 + 36, p13 + 37, p13 + 38, p13 + 39, 9};
Line(14) = {10, 9};
p15 = newp;
Point(p15 + 1) = {17.5229134868647, 2.128036623539924, 0};
Point(p15 + 2) = {17.49644003376135, 2.238306491664831, 0};
Point(p15 + 3) = {17.45304250496569, 2.343077394256773, 0};
Point(p15 + 4) = {17.39378949166483, 2.439769523979248, 0};
Point(p15 + 5) = {17.32013999969571, 2.526001999695706, 0};
Point(p15 + 6) = {17.23390752397925, 2.599651491664831, 0};
Point(p15 + 7) = {17.13721539425677, 2.658904504965692, 0};
Point(p15 + 8) = {17.03244449166483, 2.702302033761344, 0};
Point(p15 + 9) = {16.92217462353993, 2.7287754868647, 0};
Point(p15 + 10) = {16.809121, 2.737673, 0};
Point(p15 + 11) = {16.69606737646007, 2.7287754868647, 0};
Point(p15 + 12) = {16.58579750833517, 2.702302033761344, 0};
Point(p15 + 13) = {16.48102660574323, 2.658904504965692, 0};
Point(p15 + 14) = {16.38433447602075, 2.599651491664831, 0};
Point(p15 + 15) = {16.29810200030429, 2.526001999695706, 0};
Point(p15 + 16) = {16.22445250833517, 2.439769523979248, 0};
Point(p15 + 17) = {16.16519949503431, 2.343077394256773, 0};
Point(p15 + 18) = {16.12180196623866, 2.238306491664831, 0};
Point(p15 + 19) = {16.0953285131353, 2.128036623539924, 0};
Point(p15 + 20) = {16.086431, 2.014983, 0};
Point(p15 + 21) = {16.0953285131353, 1.901929376460076, 0};
Point(p15 + 22) = {16.12180196623866, 1.791659508335169, 0};
Point(p15 + 23) = {16.16519949503431, 1.686888605743227, 0};
Point(p15 + 24) = {16.22445250833517, 1.590196476020753, 0};
Point(p15 + 25) = {16.29810200030429, 1.503964000304294, 0};
Point(p15 + 26) = {16.38433447602075, 1.430314508335169, 0};
Point(p15 + 27) = {16.48102660574323, 1.371061495034308, 0};
Point(p15 + 28) = {16.58579750833517, 1.327663966238656, 0};
Point(p15 + 29) = {16.69606737646007, 1.3011905131353, 0};
Point(p15 + 30) = {16.809121, 1.292293, 0};
Point(p15 + 31) = {16.92217462353992, 1.3011905131353, 0};
Point(p15 + 32) = {17.03244449166483, 1.327663966238655, 0};
Point(p15 + 33) = {17.13721539425677, 1.371061495034308, 0};
Point(p15 + 34) = {17.23390752397925, 1.430314508335169, 0};
Point(p15 + 35) = {17.32013999969571, 1.503964000304294, 0};
Point(p15 + 36) = {17.39378949166483, 1.590196476020752, 0};
Point(p15 + 37) = {17.45304250496569, 1.686888605743227, 0};
Point(p15 + 38) = {17.49644003376135, 1.791659508335169, 0};
Point(p15 + 39) = {17.5229134868647, 1.901929376460075, 0};
Spline(15) = {10, p15 + 1, p15 + 2, p15 + 3, p15 + 4, p15 + 5, p15 + 6, p15 + 7, p15 + 8, p15 + 9, p15 + 10, p15 + 11, p15 + 12, p15 + 13, p15 + 14, p15 + 15, p15 + 16, p15 + 17, p15 + 18, p15 + 19, p15 + 20, p15 + 21, p15 + 22, p15 + 23, p15 + 24, p15 + 25, p15 + 26, p15 + 27, p15 + 28, p15 + 29, p15 + 30, p15 + 31, p15 + 32, p15 + 33, p15 + 34, p15 + 35, p15 + 36, p15 + 37, p15 + 38, p15 + 39, 10};
p16 = newp;
Point(p16 + 1) = {22.4262441800637, 0.5544670432468256, 0.1};
Point(p16 + 2) = {22.38844255508652, 0.7119221430733169, 0.1};
Point(p16 + 3) = {22.3264749265318, 0.8615252323582294, 0.1};
Point(p16 + 4) = {22.24186714307332, 0.999592586539181, 0.1};
Point(p16 + 5) = {22.13670252913696, 1.122724529136959, 0.1};
Point(p16 + 6) = {22.01357058653918, 1.227889143073317, 0.1};
Point(p16 + 7) = {21.87550323235823, 1.312496926531799, 0.1};
Point(p16 + 8) = {21.72590014307332, 1.374464555086523, 0.1};
Point(p16 + 9) = {21.56844504324683, 1.412266180063703, 0.1};
Point(p16 + 10) = {21.407015, 1.424971, 0.1};
Point(p16 + 11) = {21.24558495675318, 1.412266180063703, 0.1};
Point(p16 + 12) = {21.08812985692668, 1.374464555086523, 0.1};
Point(p16 + 13) = {20.93852676764177, 1.312496926531799, 0.1};
Point(p16 + 14) = {20.80045941346082, 1.227889143073317, 0.1};
Point(p16 + 15) = {20.67732747086304, 1.122724529136959, 0.1};
Point(p16 + 16) = {20.57216285692668, 0.999592586539181, 0.1};
Point(p16 + 17) = {20.4875550734682, 0.8615252323582295, 0.1};
Point(p16 + 18) = {20.42558744491348, 0.7119221430733171, 0.1};
Point(p16 + 19) = {20.3877858199363, 0.5544670432468257, 0.1};
Point(p16 + 20) = {20.375081, 0.3930370000000001, 0.1};
Point(p16 + 21) = {20.3877858199363, 0.2316069567531746, 0.1};
Point(p16 + 22) = {20.42558744491348, 0.07415185692668275, 0.1};
Point(p16 + 23) = {20.4875550734682, -0.07545123235822893, 0.1};
Point(p16 + 24) = {20.57216285692668, -0.2135185865391808, 0.1};
Point(p16 + 25) = {20.67732747086304, -0.3366505291369585, 0.1};
Point(p16 + 26) = {20.80045941346082, -0.4418151430733168, 0.1};
Point(p16 + 27) = {20.93852676764177, -0.526422926531799, 0.1};
Point(p16 + 28) = {21.08812985692668, -0.5883905550865229, 0.1};
Point(p16 + 29) = {21.24558495675318, -0.6261921800637027, 0.1};
Point(p16 + 30) = {21.407015, -0.6388969999999998, 0.1};
Point(p16 + 31) = {21.56844504324683, -0.6261921800637027, 0.1};
Point(p16 + 32) = {21.72590014307332, -0.5883905550865229, 0.1};
Point(p16 + 33) = {21.87550323235823, -0.5264229265317992, 0.1};
Point(p16 + 34) = {22.01357058653918, -0.441815143073317, 0.1};
Point(p16 + 35) = {22.13670252913696, -0.3366505291369588, 0.1};
Point(p16 + 36) = {22.24186714307332, -0.213518586539181, 0.1};
Point(p16 + 37) = {22.3264749265318, -0.07545123235822959, 0.1};
Point(p16 + 38) = {22.38844255508652, 0.07415185692668286, 0.1};
Point(p16 + 39) = {22.4262441800637, 0.2316069567531742, 0.1};
Spline(16) = {11, p16 + 1, p16 + 2, p16 + 3, p16 + 4, p16 + 5, p16 + 6, p16 + 7, p16 + 8, p16 + 9, p16 + 10, p16 + 11, p16 + 12, p16 + 13, p16 + 14, p16 + 15, p16 + 16, p16 + 17, p16 + 18, p16 + 19, p16 + 20, p16 + 21, p16 + 22, p16 + 23, p16 + 24, p16 + 25, p16 + 26, p16 + 27, p16 + 28, p16 + 29, p16 + 30, p16 + 31, p16 + 32, p16 + 33, p16 + 34, p16 + 35, p16 + 36, p16 + 37, p16 + 38, p16 + 39, 11};
Line(17) = {12, 11};
p18 = newp;
Point(p18 + 1) = {22.4262441800637, 0.5544670432468256, 0};
Point(p18 + 2) = {22.38844255508652, 0.7119221430733169, 0};
Point(p18 + 3) = {22.3264749265318, 0.8615252323582294, 0};
Point(p18 + 4) = {22.24186714307332, 0.999592586539181, 0};
Point(p18 + 5) = {22.13670252913696, 1.122724529136959, 0};
Point(p18 + 6) = {22.01357058653918, 1.227889143073317, 0};
Point(p18 + 7) = {21.87550323235823, 1.312496926531799, 0};
Point(p18 + 8) = {21.72590014307332, 1.374464555086523, 0};
Point(p18 + 9) = {21.56844504324683, 1.412266180063703, 0};
Point(p18 + 10) = {21.407015, 1.424971, 0};
Point(p18 + 11) = {21.24558495675318, 1.412266180063703, 0};
Point(p18 + 12) = {21.08812985692668, 1.374464555086523, 0};
Point(p18 + 13) = {20.93852676764177, 1.312496926531799, 0};
Point(p18 + 14) = {20.80045941346082, 1.227889143073317, 0};
Point(p18 + 15) = {20.67732747086304, 1.122724529136959, 0};
Point(p18 + 16) = {20.57216285692668, 0.999592586539181, 0};
Point(p18 + 17) = {20.4875550734682, 0.8615252323582295, 0};
Point(p18 + 18) = {20.42558744491348, 0.7119221430733171, 0};
Point(p18 + 19) = {20.3877858199363, 0.5544670432468257, 0};
Point(p18 + 20) = {20.375081, 0.3930370000000001, 0};
Point(p18 + 21) = {20.3877858199363, 0.2316069567531746, 0};
Point(p18 + 22) = {20.42558744491348, 0.07415185692668275, 0};
Point(p18 + 23) = {20.4875550734682, -0.07545123235822893, 0};
Point(p18 + 24) = {20.57216285692668, -0.2135185865391808, 0};
Point(p18 + 25) = {20.67732747086304, -0.3366505291369585, 0};
Point(p18 + 26) = {20.80045941346082, -0.4418151430733168, 0};
Point(p18 + 27) = {20.93852676764177, -0.526422926531799, 0};
Point(p18 + 28) = {21.08812985692668, -0.5883905550865229, 0};
Point(p18 + 29) = {21.24558495675318, -0.6261921800637027, 0};
Point(p18 + 30) = {21.407015, -0.6388969999999998, 0};
Point(p18 + 31) = {21.56844504324683, -0.6261921800637027, 0};
Point(p18 + 32) = {21.72590014307332, -0.5883905550865229, 0};
Point(p18 + 33) = {21.87550323235823, -0.5264229265317992, 0};
Point(p18 + 34) = {22.01357058653918, -0.441815143073317, 0};
Point(p18 + 35) = {22.13670252913696, -0.3366505291369588, 0};
Point(p18 + 36) = {22.24186714307332, -0.213518586539181, 0};
Point(p18 + 37) = {22.3264749265318, -0.07545123235822959, 0};
Point(p18 + 38) = {22.38844255508652, 0.07415185692668286, 0};
Point(p18 + 39) = {22.4262441800637, 0.2316069567531742, 0};
Spline(18) = {12, p18 + 1, p18 + 2, p18 + 3, p18 + 4, p18 + 5, p18 + 6, p18 + 7, p18 + 8, p18 + 9, p18 + 10, p18 + 11, p18 + 12, p18 + 13, p18 + 14, p18 + 15, p18 + 16, p18 + 17, p18 + 18, p18 + 19, p18 + 20, p18 + 21, p18 + 22, p18 + 23, p18 + 24, p18 + 25, p18 + 26, p18 + 27, p18 + 28, p18 + 29, p18 + 30, p18 + 31, p18 + 32, p18 + 33, p18 + 34, p18 + 35, p18 + 36, p18 + 37, p18 + 38, p18 + 39, 12};
Line(19) = {14, 13};
Line(20) = {13, 15};
Line(21) = {16, 15};
Line(22) = {14, 16};
Line(23) = {14, 17};
Line(24) = {17, 18};
Line(25) = {13, 18};
Line(26) = {15, 19};
Line(27) = {18, 19};
Line(28) = {16, 20};
Line(29) = {20, 19};
Line(30) = {17, 20};
Curve Loop(7) = {-13, -14, 15, 14};
Surface(7) = {7};
Curve Loop(8) = {13};
Plane Surface(8) = {8};
Curve Loop(9) = {15};
Plane Surface(9) = {9};
Curve Loop(10) = {-16, -17, 18, 17};
Surface(10) = {10};
Curve Loop(11) = {16};
Plane Surface(11) = {11};
Curve Loop(12) = {18};
Plane Surface(12) = {12};
Curve Loop(13) = {-19, 22, 21, -20};
Plane Surface(13) = {13};
Curve Loop(14) = {-23, 19, 25, -24};
Plane Surface(14) = {14};
Curve Loop(15) = {-20, 25, 27, -26, -16, -13};
Plane Surface(15) = {15};
Curve Loop(16) = {-28, 21, 26, -29};
Plane Surface(16) = {16};
Curve Loop(17) = {-22, 23, 30, -28, -18, -15};
Plane Surface(17) = {17};
Curve Loop(18) = {-24, 30, 29, -27};
Plane Surface(18) = {18};
Surface Loop(1) = {13, 14, 15, 16, 17, 18, 10, 7};
Volume(1) = {1};
Surface Loop(2) = {7, 8, 9};
Volume(2) = {2};
Surface Loop(3) = {10, 11, 12};
Volume(3) = {3};
Physical Surface("WALLS") = {13, 18};
Physical Surface("LOAD") = {8, 11};
Physical Surface("BORDER") = {7, 9, 10, 12, 14, 15, 16, 17};
Physical Volume("SOLID") = {1, 2, 3};
