cl__1 = 0.12888;
cl__2 = 0.080927;
cl__3 = 2.588522;
cl__4 = 2.698493;
cl__5 = 0.7803639999999999;
cl__6 = 0.454376;
Point(9) = {37.431235, 1.745804, 0.1, cl__1};
Point(10) = {37.431235, 1.745804, 0, cl__1};
Point(11) = {10.016351, 0.4827529999999998, 0.1, cl__2};
Point(12) = {10.016351, 0.4827529999999998, 0, cl__2};
Point(13) = {0.966805, -3.971965, 1, cl__3};
Point(14) = {0.966805, -3.971965, 0, cl__3};
Point(15) = {0.966805, 5.183594, 1, cl__4};
Point(16) = {0.966805, 5.183594, 0, cl__4};
Point(17) = {38.41473, -3.971965, 0, cl__5};
Point(18) = {38.41473, -3.971965, 1, cl__5};
Point(19) = {38.41473, 5.183594, 1, cl__6};
Point(20) = {38.41473, 5.183594, 0, cl__6};
p13 = newp;
Point(p13 + 1) = {37.41536769642403, 1.947417207847244, 0.1};
Point(p13 + 2) = {37.36815649137074, 2.144066029401415, 0.1};
Point(p13 + 3) = {37.29076388139354, 2.330908318035827, 0.1};
Point(p13 + 4) = {37.18509552940142, 2.503343396510296, 0.1};
Point(p13 + 5) = {37.05375334091357, 2.657125340913566, 0.1};
Point(p13 + 6) = {36.8999713965103, 2.788467529401415, 0.1};
Point(p13 + 7) = {36.72753631803582, 2.894135881393541, 0.1};
Point(p13 + 8) = {36.54069402940141, 2.971528491370742, 0.1};
Point(p13 + 9) = {36.34404520784724, 3.018739696424035, 0.1};
Point(p13 + 10) = {36.142432, 3.034607, 0.1};
Point(p13 + 11) = {35.94081879215275, 3.018739696424035, 0.1};
Point(p13 + 12) = {35.74416997059858, 2.971528491370742, 0.1};
Point(p13 + 13) = {35.55732768196417, 2.894135881393541, 0.1};
Point(p13 + 14) = {35.3848926034897, 2.788467529401415, 0.1};
Point(p13 + 15) = {35.23111065908643, 2.657125340913566, 0.1};
Point(p13 + 16) = {35.09976847059858, 2.503343396510296, 0.1};
Point(p13 + 17) = {34.99410011860646, 2.330908318035827, 0.1};
Point(p13 + 18) = {34.91670750862926, 2.144066029401416, 0.1};
Point(p13 + 19) = {34.86949630357596, 1.947417207847245, 0.1};
Point(p13 + 20) = {34.853629, 1.745804, 0.1};
Point(p13 + 21) = {34.86949630357596, 1.544190792152755, 0.1};
Point(p13 + 22) = {34.91670750862926, 1.347541970598584, 0.1};
Point(p13 + 23) = {34.99410011860646, 1.160699681964174, 0.1};
Point(p13 + 24) = {35.09976847059858, 0.9882646034897038, 0.1};
Point(p13 + 25) = {35.23111065908643, 0.834482659086434, 0.1};
Point(p13 + 26) = {35.3848926034897, 0.7031404705985846, 0.1};
Point(p13 + 27) = {35.55732768196417, 0.5974721186064591, 0.1};
Point(p13 + 28) = {35.74416997059858, 0.5200795086292573, 0.1};
Point(p13 + 29) = {35.94081879215275, 0.4728683035759649, 0.1};
Point(p13 + 30) = {36.142432, 0.457001, 0.1};
Point(p13 + 31) = {36.34404520784724, 0.4728683035759647, 0.1};
Point(p13 + 32) = {36.54069402940141, 0.5200795086292571, 0.1};
Point(p13 + 33) = {36.72753631803582, 0.5974721186064587, 0.1};
Point(p13 + 34) = {36.8999713965103, 0.7031404705985844, 0.1};
Point(p13 + 35) = {37.05375334091357, 0.8344826590864337, 0.1};
Point(p13 + 36) = {37.18509552940142, 0.9882646034897036, 0.1};
Point(p13 + 37) = {37.29076388139354, 1.160699681964173, 0.1};
Point(p13 + 38) = {37.36815649137074, 1.347541970598584, 0.1};
Point(p13 + 39) = {37.41536769642403, 1.544190792152755, 0.1};
Spline(13) = {9, p13 + 1, p13 + 2, p13 + 3, p13 + 4, p13 + 5, p13 + 6, p13 + 7, p13 + 8, p13 + 9, p13 + 10, p13 + 11, p13 + 12, p13 + 13, p13 + 14, p13 + 15, p13 + 16, p13 + 17, p13 + 18, p13 + 19, p13 + 20, p13 + 21, p13 + 22, p13 + 23, p13 + 24, p13 + 25, p13 + 26, p13 + 27, p13 + 28, p13 + 29, p13 + 30, p13 + 31, p13 + 32, p13 + 33, p13 + 34, p13 + 35, p13 + 36, p13 + 37, p13 + 38, p13 + 39, 9};
Line(14) = {10, 9};
p15 = newp;
Point(p15 + 1) = {37.41536769642403, 1.947417207847244, 0};
Point(p15 + 2) = {37.36815649137074, 2.144066029401415, 0};
Point(p15 + 3) = {37.29076388139354, 2.330908318035827, 0};
Point(p15 + 4) = {37.18509552940142, 2.503343396510296, 0};
Point(p15 + 5) = {37.05375334091357, 2.657125340913566, 0};
Point(p15 + 6) = {36.8999713965103, 2.788467529401415, 0};
Point(p15 + 7) = {36.72753631803582, 2.894135881393541, 0};
Point(p15 + 8) = {36.54069402940141, 2.971528491370742, 0};
Point(p15 + 9) = {36.34404520784724, 3.018739696424035, 0};
Point(p15 + 10) = {36.142432, 3.034607, 0};
Point(p15 + 11) = {35.94081879215275, 3.018739696424035, 0};
Point(p15 + 12) = {35.74416997059858, 2.971528491370742, 0};
Point(p15 + 13) = {35.55732768196417, 2.894135881393541, 0};
Point(p15 + 14) = {35.3848926034897, 2.788467529401415, 0};
Point(p15 + 15) = {35.23111065908643, 2.657125340913566, 0};
Point(p15 + 16) = {35.09976847059858, 2.503343396510296, 0};
Point(p15 + 17) = {34.99410011860646, 2.330908318035827, 0};
Point(p15 + 18) = {34.91670750862926, 2.144066029401416, 0};
Point(p15 + 19) = {34.86949630357596, 1.947417207847245, 0};
Point(p15 + 20) = {34.853629, 1.745804, 0};
Point(p15 + 21) = {34.86949630357596, 1.544190792152755, 0};
Point(p15 + 22) = {34.91670750862926, 1.347541970598584, 0};
Point(p15 + 23) = {34.99410011860646, 1.160699681964174, 0};
Point(p15 + 24) = {35.09976847059858, 0.9882646034897038, 0};
Point(p15 + 25) = {35.23111065908643, 0.834482659086434, 0};
Point(p15 + 26) = {35.3848926034897, 0.7031404705985846, 0};
Point(p15 + 27) = {35.55732768196417, 0.5974721186064591, 0};
Point(p15 + 28) = {35.74416997059858, 0.5200795086292573, 0};
Point(p15 + 29) = {35.94081879215275, 0.4728683035759649, 0};
Point(p15 + 30) = {36.142432, 0.457001, 0};
Point(p15 + 31) = {36.34404520784724, 0.4728683035759647, 0};
Point(p15 + 32) = {36.54069402940141, 0.5200795086292571, 0};
Point(p15 + 33) = {36.72753631803582, 0.5974721186064587, 0};
Point(p15 + 34) = {36.8999713965103, 0.7031404705985844, 0};
Point(p15 + 35) = {37.05375334091357, 0.8344826590864337, 0};
Point(p15 + 36) = {37.18509552940142, 0.9882646034897036, 0};
Point(p15 + 37) = {37.29076388139354, 1.160699681964173, 0};
Point(p15 + 38) = {37.36815649137074, 1.347541970598584, 0};
Point(p15 + 39) = {37.41536769642403, 1.544190792152755, 0};
Spline(15) = {10, p15 + 1, p15 + 2, p15 + 3, p15 + 4, p15 + 5, p15 + 6, p15 + 7, p15 + 8, p15 + 9, p15 + 10, p15 + 11, p15 + 12, p15 + 13, p15 + 14, p15 + 15, p15 + 16, p15 + 17, p15 + 18, p15 + 19, p15 + 20, p15 + 21, p15 + 22, p15 + 23, p15 + 24, p15 + 25, p15 + 26, p15 + 27, p15 + 28, p15 + 29, p15 + 30, p15 + 31, p15 + 32, p15 + 33, p15 + 34, p15 + 35, p15 + 36, p15 + 37, p15 + 38, p15 + 39, 10};
p16 = newp;
Point(p16 + 1) = {10.00638755570509, 0.6093505630886425, 0.1};
Point(p16 + 2) = {9.976742555885663, 0.7328308740208194, 0.1};
Point(p16 + 3) = {9.928145958823396, 0.8501534377337232, 0.1};
Point(p16 + 4) = {9.861794374020819, 0.9584293833374775, 0.1};
Point(p16 + 5) = {9.779321597704056, 1.054992597704056, 0.1};
Point(p16 + 6) = {9.682758383337477, 1.137465374020819, 0.1};
Point(p16 + 7) = {9.574482437733723, 1.203816958823396, 0.1};
Point(p16 + 8) = {9.457159874020819, 1.252413555885663, 0.1};
Point(p16 + 9) = {9.333679563088642, 1.282058555705087, 0.1};
Point(p16 + 10) = {9.207082, 1.292022, 0.1};
Point(p16 + 11) = {9.080484436911357, 1.282058555705087, 0.1};
Point(p16 + 12) = {8.95700412597918, 1.252413555885663, 0.1};
Point(p16 + 13) = {8.839681562266277, 1.203816958823396, 0.1};
Point(p16 + 14) = {8.731405616662522, 1.137465374020819, 0.1};
Point(p16 + 15) = {8.634842402295943, 1.054992597704056, 0.1};
Point(p16 + 16) = {8.55236962597918, 0.9584293833374775, 0.1};
Point(p16 + 17) = {8.486018041176603, 0.8501534377337233, 0.1};
Point(p16 + 18) = {8.437421444114337, 0.7328308740208194, 0.1};
Point(p16 + 19) = {8.407776444294914, 0.6093505630886427, 0.1};
Point(p16 + 20) = {8.397812999999999, 0.4827530000000001, 0.1};
Point(p16 + 21) = {8.407776444294914, 0.3561554369113575, 0.1};
Point(p16 + 22) = {8.437421444114337, 0.2326751259791804, 0.1};
Point(p16 + 23) = {8.486018041176603, 0.1153525622662771, 0.1};
Point(p16 + 24) = {8.55236962597918, 0.007076616662522628, 0.1};
Point(p16 + 25) = {8.634842402295943, -0.08948659770405609, 0.1};
Point(p16 + 26) = {8.731405616662522, -0.1719593740208193, 0.1};
Point(p16 + 27) = {8.839681562266277, -0.2383109588233963, 0.1};
Point(p16 + 28) = {8.95700412597918, -0.2869075558856626, 0.1};
Point(p16 + 29) = {9.080484436911357, -0.3165525557050864, 0.1};
Point(p16 + 30) = {9.207082, -0.326516, 0.1};
Point(p16 + 31) = {9.333679563088642, -0.3165525557050866, 0.1};
Point(p16 + 32) = {9.457159874020819, -0.2869075558856627, 0.1};
Point(p16 + 33) = {9.574482437733723, -0.2383109588233964, 0.1};
Point(p16 + 34) = {9.682758383337477, -0.1719593740208195, 0.1};
Point(p16 + 35) = {9.779321597704056, -0.08948659770405631, 0.1};
Point(p16 + 36) = {9.861794374020819, 0.007076616662522461, 0.1};
Point(p16 + 37) = {9.928145958823396, 0.1153525622662765, 0.1};
Point(p16 + 38) = {9.976742555885663, 0.2326751259791805, 0.1};
Point(p16 + 39) = {10.00638755570509, 0.3561554369113572, 0.1};
Spline(16) = {11, p16 + 1, p16 + 2, p16 + 3, p16 + 4, p16 + 5, p16 + 6, p16 + 7, p16 + 8, p16 + 9, p16 + 10, p16 + 11, p16 + 12, p16 + 13, p16 + 14, p16 + 15, p16 + 16, p16 + 17, p16 + 18, p16 + 19, p16 + 20, p16 + 21, p16 + 22, p16 + 23, p16 + 24, p16 + 25, p16 + 26, p16 + 27, p16 + 28, p16 + 29, p16 + 30, p16 + 31, p16 + 32, p16 + 33, p16 + 34, p16 + 35, p16 + 36, p16 + 37, p16 + 38, p16 + 39, 11};
Line(17) = {12, 11};
p18 = newp;
Point(p18 + 1) = {10.00638755570509, 0.6093505630886425, 0};
Point(p18 + 2) = {9.976742555885663, 0.7328308740208194, 0};
Point(p18 + 3) = {9.928145958823396, 0.8501534377337232, 0};
Point(p18 + 4) = {9.861794374020819, 0.9584293833374775, 0};
Point(p18 + 5) = {9.779321597704056, 1.054992597704056, 0};
Point(p18 + 6) = {9.682758383337477, 1.137465374020819, 0};
Point(p18 + 7) = {9.574482437733723, 1.203816958823396, 0};
Point(p18 + 8) = {9.457159874020819, 1.252413555885663, 0};
Point(p18 + 9) = {9.333679563088642, 1.282058555705087, 0};
Point(p18 + 10) = {9.207082, 1.292022, 0};
Point(p18 + 11) = {9.080484436911357, 1.282058555705087, 0};
Point(p18 + 12) = {8.95700412597918, 1.252413555885663, 0};
Point(p18 + 13) = {8.839681562266277, 1.203816958823396, 0};
Point(p18 + 14) = {8.731405616662522, 1.137465374020819, 0};
Point(p18 + 15) = {8.634842402295943, 1.054992597704056, 0};
Point(p18 + 16) = {8.55236962597918, 0.9584293833374775, 0};
Point(p18 + 17) = {8.486018041176603, 0.8501534377337233, 0};
Point(p18 + 18) = {8.437421444114337, 0.7328308740208194, 0};
Point(p18 + 19) = {8.407776444294914, 0.6093505630886427, 0};
Point(p18 + 20) = {8.397812999999999, 0.4827530000000001, 0};
Point(p18 + 21) = {8.407776444294914, 0.3561554369113575, 0};
Point(p18 + 22) = {8.437421444114337, 0.2326751259791804, 0};
Point(p18 + 23) = {8.486018041176603, 0.1153525622662771, 0};
Point(p18 + 24) = {8.55236962597918, 0.007076616662522628, 0};
Point(p18 + 25) = {8.634842402295943, -0.08948659770405609, 0};
Point(p18 + 26) = {8.731405616662522, -0.1719593740208193, 0};
Point(p18 + 27) = {8.839681562266277, -0.2383109588233963, 0};
Point(p18 + 28) = {8.95700412597918, -0.2869075558856626, 0};
Point(p18 + 29) = {9.080484436911357, -0.3165525557050864, 0};
Point(p18 + 30) = {9.207082, -0.326516, 0};
Point(p18 + 31) = {9.333679563088642, -0.3165525557050866, 0};
Point(p18 + 32) = {9.457159874020819, -0.2869075558856627, 0};
Point(p18 + 33) = {9.574482437733723, -0.2383109588233964, 0};
Point(p18 + 34) = {9.682758383337477, -0.1719593740208195, 0};
Point(p18 + 35) = {9.779321597704056, -0.08948659770405631, 0};
Point(p18 + 36) = {9.861794374020819, 0.007076616662522461, 0};
Point(p18 + 37) = {9.928145958823396, 0.1153525622662765, 0};
Point(p18 + 38) = {9.976742555885663, 0.2326751259791805, 0};
Point(p18 + 39) = {10.00638755570509, 0.3561554369113572, 0};
Spline(18) = {12, p18 + 1, p18 + 2, p18 + 3, p18 + 4, p18 + 5, p18 + 6, p18 + 7, p18 + 8, p18 + 9, p18 + 10, p18 + 11, p18 + 12, p18 + 13, p18 + 14, p18 + 15, p18 + 16, p18 + 17, p18 + 18, p18 + 19, p18 + 20, p18 + 21, p18 + 22, p18 + 23, p18 + 24, p18 + 25, p18 + 26, p18 + 27, p18 + 28, p18 + 29, p18 + 30, p18 + 31, p18 + 32, p18 + 33, p18 + 34, p18 + 35, p18 + 36, p18 + 37, p18 + 38, p18 + 39, 12};
Line(19) = {14, 13};
Line(20) = {13, 15};
Line(21) = {16, 15};
Line(22) = {14, 16};
Line(23) = {14, 17};
Line(24) = {17, 18};
Line(25) = {13, 18};
Line(26) = {15, 19};
Line(27) = {18, 19};
Line(28) = {16, 20};
Line(29) = {20, 19};
Line(30) = {17, 20};
Curve Loop(7) = {-13, -14, 15, 14};
Surface(7) = {7};
Curve Loop(8) = {13};
Plane Surface(8) = {8};
Curve Loop(9) = {15};
Plane Surface(9) = {9};
Curve Loop(10) = {-16, -17, 18, 17};
Surface(10) = {10};
Curve Loop(11) = {16};
Plane Surface(11) = {11};
Curve Loop(12) = {18};
Plane Surface(12) = {12};
Curve Loop(13) = {-19, 22, 21, -20};
Plane Surface(13) = {13};
Curve Loop(14) = {-23, 19, 25, -24};
Plane Surface(14) = {14};
Curve Loop(15) = {-20, 25, 27, -26};
Plane Surface(15) = {15};
Curve Loop(16) = {-28, 21, 26, -29};
Plane Surface(16) = {16};
Curve Loop(17) = {-22, 23, 30, -28, -18, -15};
Plane Surface(17) = {17};
Curve Loop(18) = {-24, 30, 29, -27};
Plane Surface(18) = {18};
Surface Loop(1) = {13, 14, 15, 16, 17, 18, 10, 7, 11, 8};
Volume(1) = {1};
Surface Loop(2) = {7, 8, 9};
Volume(2) = {2};
Surface Loop(3) = {10, 11, 12};
Volume(3) = {3};
Physical Surface("WALLS") = {13, 18};
Physical Surface("LOAD") = {8, 11};
Physical Surface("BORDER") = {7, 9, 10, 12, 14, 15, 16, 17};
Physical Volume("SOLID") = {1, 2, 3};
