cl__1 = 0.057774;
cl__2 = 0.054252;
cl__3 = 3.238802;
cl__4 = 2.928769;
cl__5 = 0.599338;
cl__6 = 0.490374;
Point(9) = {23.665189, 2.634301, 0.1, cl__1};
Point(10) = {23.665189, 2.634301, 0, cl__1};
Point(11) = {26.433084, 2.386706, 0.1, cl__2};
Point(12) = {26.433084, 2.386706, 0, cl__2};
Point(13) = {0.597649, -3.873779, 1, cl__3};
Point(14) = {0.597649, -3.873779, 0, cl__3};
Point(15) = {0.597649, 5.400958, 1, cl__4};
Point(16) = {0.597649, 5.400958, 0, cl__4};
Point(17) = {33.420452, -3.873779, 0, cl__5};
Point(18) = {33.420452, -3.873779, 1, cl__5};
Point(19) = {33.420452, 5.400958, 1, cl__6};
Point(20) = {33.420452, 5.400958, 0, cl__6};
p13 = newp;
Point(p13 + 1) = {23.65807612345373, 2.724678665660018, 0.1};
Point(p13 + 2) = {23.63691263644178, 2.81283093324521, 0.1};
Point(p13 + 3) = {23.60221965425197, 2.896587201367027, 0.1};
Point(p13 + 4) = {23.55485143324521, 2.973885112733192, 0.1};
Point(p13 + 5) = {23.49597433622881, 3.04282133622881, 0.1};
Point(p13 + 6) = {23.42703811273319, 3.10169843324521, 0.1};
Point(p13 + 7) = {23.34974020136703, 3.149066654251966, 0.1};
Point(p13 + 8) = {23.26598393324521, 3.18375963644178, 0.1};
Point(p13 + 9) = {23.17783166566002, 3.204923123453732, 0.1};
Point(p13 + 10) = {23.087454, 3.212036, 0.1};
Point(p13 + 11) = {22.99707633433998, 3.204923123453732, 0.1};
Point(p13 + 12) = {22.90892406675479, 3.18375963644178, 0.1};
Point(p13 + 13) = {22.82516779863298, 3.149066654251967, 0.1};
Point(p13 + 14) = {22.74786988726681, 3.10169843324521, 0.1};
Point(p13 + 15) = {22.67893366377119, 3.04282133622881, 0.1};
Point(p13 + 16) = {22.62005656675479, 2.973885112733192, 0.1};
Point(p13 + 17) = {22.57268834574803, 2.896587201367027, 0.1};
Point(p13 + 18) = {22.53799536355822, 2.81283093324521, 0.1};
Point(p13 + 19) = {22.51683187654627, 2.724678665660018, 0.1};
Point(p13 + 20) = {22.509719, 2.634301, 0.1};
Point(p13 + 21) = {22.51683187654627, 2.543923334339982, 0.1};
Point(p13 + 22) = {22.53799536355822, 2.455771066754789, 0.1};
Point(p13 + 23) = {22.57268834574803, 2.372014798632973, 0.1};
Point(p13 + 24) = {22.62005656675479, 2.294716887266808, 0.1};
Point(p13 + 25) = {22.67893366377119, 2.22578066377119, 0.1};
Point(p13 + 26) = {22.74786988726681, 2.166903566754789, 0.1};
Point(p13 + 27) = {22.82516779863298, 2.119535345748033, 0.1};
Point(p13 + 28) = {22.90892406675479, 2.084842363558219, 0.1};
Point(p13 + 29) = {22.99707633433998, 2.063678876546268, 0.1};
Point(p13 + 30) = {23.087454, 2.056566, 0.1};
Point(p13 + 31) = {23.17783166566002, 2.063678876546268, 0.1};
Point(p13 + 32) = {23.26598393324521, 2.084842363558219, 0.1};
Point(p13 + 33) = {23.34974020136703, 2.119535345748033, 0.1};
Point(p13 + 34) = {23.42703811273319, 2.166903566754789, 0.1};
Point(p13 + 35) = {23.49597433622881, 2.225780663771189, 0.1};
Point(p13 + 36) = {23.55485143324521, 2.294716887266808, 0.1};
Point(p13 + 37) = {23.60221965425197, 2.372014798632973, 0.1};
Point(p13 + 38) = {23.63691263644178, 2.45577106675479, 0.1};
Point(p13 + 39) = {23.65807612345373, 2.543923334339982, 0.1};
Spline(13) = {9, p13 + 1, p13 + 2, p13 + 3, p13 + 4, p13 + 5, p13 + 6, p13 + 7, p13 + 8, p13 + 9, p13 + 10, p13 + 11, p13 + 12, p13 + 13, p13 + 14, p13 + 15, p13 + 16, p13 + 17, p13 + 18, p13 + 19, p13 + 20, p13 + 21, p13 + 22, p13 + 23, p13 + 24, p13 + 25, p13 + 26, p13 + 27, p13 + 28, p13 + 29, p13 + 30, p13 + 31, p13 + 32, p13 + 33, p13 + 34, p13 + 35, p13 + 36, p13 + 37, p13 + 38, p13 + 39, 9};
Line(14) = {10, 9};
p15 = newp;
Point(p15 + 1) = {23.65807612345373, 2.724678665660018, 0};
Point(p15 + 2) = {23.63691263644178, 2.81283093324521, 0};
Point(p15 + 3) = {23.60221965425197, 2.896587201367027, 0};
Point(p15 + 4) = {23.55485143324521, 2.973885112733192, 0};
Point(p15 + 5) = {23.49597433622881, 3.04282133622881, 0};
Point(p15 + 6) = {23.42703811273319, 3.10169843324521, 0};
Point(p15 + 7) = {23.34974020136703, 3.149066654251966, 0};
Point(p15 + 8) = {23.26598393324521, 3.18375963644178, 0};
Point(p15 + 9) = {23.17783166566002, 3.204923123453732, 0};
Point(p15 + 10) = {23.087454, 3.212036, 0};
Point(p15 + 11) = {22.99707633433998, 3.204923123453732, 0};
Point(p15 + 12) = {22.90892406675479, 3.18375963644178, 0};
Point(p15 + 13) = {22.82516779863298, 3.149066654251967, 0};
Point(p15 + 14) = {22.74786988726681, 3.10169843324521, 0};
Point(p15 + 15) = {22.67893366377119, 3.04282133622881, 0};
Point(p15 + 16) = {22.62005656675479, 2.973885112733192, 0};
Point(p15 + 17) = {22.57268834574803, 2.896587201367027, 0};
Point(p15 + 18) = {22.53799536355822, 2.81283093324521, 0};
Point(p15 + 19) = {22.51683187654627, 2.724678665660018, 0};
Point(p15 + 20) = {22.509719, 2.634301, 0};
Point(p15 + 21) = {22.51683187654627, 2.543923334339982, 0};
Point(p15 + 22) = {22.53799536355822, 2.455771066754789, 0};
Point(p15 + 23) = {22.57268834574803, 2.372014798632973, 0};
Point(p15 + 24) = {22.62005656675479, 2.294716887266808, 0};
Point(p15 + 25) = {22.67893366377119, 2.22578066377119, 0};
Point(p15 + 26) = {22.74786988726681, 2.166903566754789, 0};
Point(p15 + 27) = {22.82516779863298, 2.119535345748033, 0};
Point(p15 + 28) = {22.90892406675479, 2.084842363558219, 0};
Point(p15 + 29) = {22.99707633433998, 2.063678876546268, 0};
Point(p15 + 30) = {23.087454, 2.056566, 0};
Point(p15 + 31) = {23.17783166566002, 2.063678876546268, 0};
Point(p15 + 32) = {23.26598393324521, 2.084842363558219, 0};
Point(p15 + 33) = {23.34974020136703, 2.119535345748033, 0};
Point(p15 + 34) = {23.42703811273319, 2.166903566754789, 0};
Point(p15 + 35) = {23.49597433622881, 2.225780663771189, 0};
Point(p15 + 36) = {23.55485143324521, 2.294716887266808, 0};
Point(p15 + 37) = {23.60221965425197, 2.372014798632973, 0};
Point(p15 + 38) = {23.63691263644178, 2.45577106675479, 0};
Point(p15 + 39) = {23.65807612345373, 2.543923334339982, 0};
Spline(15) = {10, p15 + 1, p15 + 2, p15 + 3, p15 + 4, p15 + 5, p15 + 6, p15 + 7, p15 + 8, p15 + 9, p15 + 10, p15 + 11, p15 + 12, p15 + 13, p15 + 14, p15 + 15, p15 + 16, p15 + 17, p15 + 18, p15 + 19, p15 + 20, p15 + 21, p15 + 22, p15 + 23, p15 + 24, p15 + 25, p15 + 26, p15 + 27, p15 + 28, p15 + 29, p15 + 30, p15 + 31, p15 + 32, p15 + 33, p15 + 34, p15 + 35, p15 + 36, p15 + 37, p15 + 38, p15 + 39, 10};
p16 = newp;
Point(p16 + 1) = {26.42640471547465, 2.471574356670231, 0.1};
Point(p16 + 2) = {26.4065313280509, 2.554352972737314, 0.1};
Point(p16 + 3) = {26.3739531864831, 2.6330035639472, 0.1};
Point(p16 + 4) = {26.32947247273732, 2.705589491717956, 0.1};
Point(p16 + 5) = {26.27418444960898, 2.770323449608982, 0.1};
Point(p16 + 6) = {26.20945049171796, 2.825611472737314, 0.1};
Point(p16 + 7) = {26.1368645639472, 2.870092186483101, 0.1};
Point(p16 + 8) = {26.05821397273731, 2.902670328050898, 0.1};
Point(p16 + 9) = {25.97543535667023, 2.922543715474653, 0.1};
Point(p16 + 10) = {25.890567, 2.929223, 0.1};
Point(p16 + 11) = {25.80569864332977, 2.922543715474653, 0.1};
Point(p16 + 12) = {25.72292002726269, 2.902670328050898, 0.1};
Point(p16 + 13) = {25.6442694360528, 2.870092186483101, 0.1};
Point(p16 + 14) = {25.57168350828205, 2.825611472737314, 0.1};
Point(p16 + 15) = {25.50694955039102, 2.770323449608982, 0.1};
Point(p16 + 16) = {25.45166152726269, 2.705589491717956, 0.1};
Point(p16 + 17) = {25.4071808135169, 2.6330035639472, 0.1};
Point(p16 + 18) = {25.3746026719491, 2.554352972737314, 0.1};
Point(p16 + 19) = {25.35472928452535, 2.471574356670231, 0.1};
Point(p16 + 20) = {25.34805, 2.386706, 0.1};
Point(p16 + 21) = {25.35472928452535, 2.301837643329769, 0.1};
Point(p16 + 22) = {25.3746026719491, 2.219059027262687, 0.1};
Point(p16 + 23) = {25.4071808135169, 2.140408436052801, 0.1};
Point(p16 + 24) = {25.45166152726269, 2.067822508282045, 0.1};
Point(p16 + 25) = {25.50694955039102, 2.003088550391018, 0.1};
Point(p16 + 26) = {25.57168350828205, 1.947800527262687, 0.1};
Point(p16 + 27) = {25.6442694360528, 1.903319813516899, 0.1};
Point(p16 + 28) = {25.72292002726269, 1.870741671949102, 0.1};
Point(p16 + 29) = {25.80569864332977, 1.850868284525348, 0.1};
Point(p16 + 30) = {25.890567, 1.844189, 0.1};
Point(p16 + 31) = {25.97543535667023, 1.850868284525348, 0.1};
Point(p16 + 32) = {26.05821397273731, 1.870741671949102, 0.1};
Point(p16 + 33) = {26.1368645639472, 1.903319813516899, 0.1};
Point(p16 + 34) = {26.20945049171796, 1.947800527262687, 0.1};
Point(p16 + 35) = {26.27418444960898, 2.003088550391018, 0.1};
Point(p16 + 36) = {26.32947247273732, 2.067822508282045, 0.1};
Point(p16 + 37) = {26.3739531864831, 2.1404084360528, 0.1};
Point(p16 + 38) = {26.4065313280509, 2.219059027262687, 0.1};
Point(p16 + 39) = {26.42640471547465, 2.301837643329769, 0.1};
Spline(16) = {11, p16 + 1, p16 + 2, p16 + 3, p16 + 4, p16 + 5, p16 + 6, p16 + 7, p16 + 8, p16 + 9, p16 + 10, p16 + 11, p16 + 12, p16 + 13, p16 + 14, p16 + 15, p16 + 16, p16 + 17, p16 + 18, p16 + 19, p16 + 20, p16 + 21, p16 + 22, p16 + 23, p16 + 24, p16 + 25, p16 + 26, p16 + 27, p16 + 28, p16 + 29, p16 + 30, p16 + 31, p16 + 32, p16 + 33, p16 + 34, p16 + 35, p16 + 36, p16 + 37, p16 + 38, p16 + 39, 11};
Line(17) = {12, 11};
p18 = newp;
Point(p18 + 1) = {26.42640471547465, 2.471574356670231, 0};
Point(p18 + 2) = {26.4065313280509, 2.554352972737314, 0};
Point(p18 + 3) = {26.3739531864831, 2.6330035639472, 0};
Point(p18 + 4) = {26.32947247273732, 2.705589491717956, 0};
Point(p18 + 5) = {26.27418444960898, 2.770323449608982, 0};
Point(p18 + 6) = {26.20945049171796, 2.825611472737314, 0};
Point(p18 + 7) = {26.1368645639472, 2.870092186483101, 0};
Point(p18 + 8) = {26.05821397273731, 2.902670328050898, 0};
Point(p18 + 9) = {25.97543535667023, 2.922543715474653, 0};
Point(p18 + 10) = {25.890567, 2.929223, 0};
Point(p18 + 11) = {25.80569864332977, 2.922543715474653, 0};
Point(p18 + 12) = {25.72292002726269, 2.902670328050898, 0};
Point(p18 + 13) = {25.6442694360528, 2.870092186483101, 0};
Point(p18 + 14) = {25.57168350828205, 2.825611472737314, 0};
Point(p18 + 15) = {25.50694955039102, 2.770323449608982, 0};
Point(p18 + 16) = {25.45166152726269, 2.705589491717956, 0};
Point(p18 + 17) = {25.4071808135169, 2.6330035639472, 0};
Point(p18 + 18) = {25.3746026719491, 2.554352972737314, 0};
Point(p18 + 19) = {25.35472928452535, 2.471574356670231, 0};
Point(p18 + 20) = {25.34805, 2.386706, 0};
Point(p18 + 21) = {25.35472928452535, 2.301837643329769, 0};
Point(p18 + 22) = {25.3746026719491, 2.219059027262687, 0};
Point(p18 + 23) = {25.4071808135169, 2.140408436052801, 0};
Point(p18 + 24) = {25.45166152726269, 2.067822508282045, 0};
Point(p18 + 25) = {25.50694955039102, 2.003088550391018, 0};
Point(p18 + 26) = {25.57168350828205, 1.947800527262687, 0};
Point(p18 + 27) = {25.6442694360528, 1.903319813516899, 0};
Point(p18 + 28) = {25.72292002726269, 1.870741671949102, 0};
Point(p18 + 29) = {25.80569864332977, 1.850868284525348, 0};
Point(p18 + 30) = {25.890567, 1.844189, 0};
Point(p18 + 31) = {25.97543535667023, 1.850868284525348, 0};
Point(p18 + 32) = {26.05821397273731, 1.870741671949102, 0};
Point(p18 + 33) = {26.1368645639472, 1.903319813516899, 0};
Point(p18 + 34) = {26.20945049171796, 1.947800527262687, 0};
Point(p18 + 35) = {26.27418444960898, 2.003088550391018, 0};
Point(p18 + 36) = {26.32947247273732, 2.067822508282045, 0};
Point(p18 + 37) = {26.3739531864831, 2.1404084360528, 0};
Point(p18 + 38) = {26.4065313280509, 2.219059027262687, 0};
Point(p18 + 39) = {26.42640471547465, 2.301837643329769, 0};
Spline(18) = {12, p18 + 1, p18 + 2, p18 + 3, p18 + 4, p18 + 5, p18 + 6, p18 + 7, p18 + 8, p18 + 9, p18 + 10, p18 + 11, p18 + 12, p18 + 13, p18 + 14, p18 + 15, p18 + 16, p18 + 17, p18 + 18, p18 + 19, p18 + 20, p18 + 21, p18 + 22, p18 + 23, p18 + 24, p18 + 25, p18 + 26, p18 + 27, p18 + 28, p18 + 29, p18 + 30, p18 + 31, p18 + 32, p18 + 33, p18 + 34, p18 + 35, p18 + 36, p18 + 37, p18 + 38, p18 + 39, 12};
Line(19) = {14, 13};
Line(20) = {13, 15};
Line(21) = {16, 15};
Line(22) = {14, 16};
Line(23) = {14, 17};
Line(24) = {17, 18};
Line(25) = {13, 18};
Line(26) = {15, 19};
Line(27) = {18, 19};
Line(28) = {16, 20};
Line(29) = {20, 19};
Line(30) = {17, 20};
Curve Loop(7) = {-13, -14, 15, 14};
Surface(7) = {7};
Curve Loop(8) = {13};
Plane Surface(8) = {8};
Curve Loop(9) = {15};
Plane Surface(9) = {9};
Curve Loop(10) = {-16, -17, 18, 17};
Surface(10) = {10};
Curve Loop(11) = {16};
Plane Surface(11) = {11};
Curve Loop(12) = {18};
Plane Surface(12) = {12};
Curve Loop(13) = {-19, 22, 21, -20};
Plane Surface(13) = {13};
Curve Loop(14) = {-23, 19, 25, -24};
Plane Surface(14) = {14};
Curve Loop(15) = {-20, 25, 27, -26};
Plane Surface(15) = {15};
Curve Loop(16) = {-28, 21, 26, -29};
Plane Surface(16) = {16};
Curve Loop(17) = {-22, 23, 30, -28, -18, -15};
Plane Surface(17) = {17};
Curve Loop(18) = {-24, 30, 29, -27};
Plane Surface(18) = {18};
Surface Loop(1) = {13, 14, 15, 16, 17, 18, 10, 7, 11, 8};
Volume(1) = {1};
Surface Loop(2) = {7, 8, 9};
Volume(2) = {2};
Surface Loop(3) = {10, 11, 12};
Volume(3) = {3};
Physical Surface("WALLS") = {13, 18};
Physical Surface("LOAD") = {8, 11};
Physical Surface("BORDER") = {7, 9, 10, 12, 14, 15, 16, 17};
Physical Volume("SOLID") = {1, 2, 3};
