cl__1 = 0.093613;
cl__2 = 0.051991;
cl__3 = 4.205128;
cl__4 = 4.26049;
cl__5 = 0.309821;
cl__6 = 0.454957;
Point(9) = {16.74479, 0.4656719999999998, 0.1, cl__1};
Point(10) = {16.74479, 0.4656719999999998, 0, cl__1};
Point(11) = {33.345198, -0.1102050000000001, 0.1, cl__2};
Point(12) = {33.345198, -0.1102050000000001, 0, cl__2};
Point(13) = {0.256447, -3.290716, 0.1, cl__3};
Point(14) = {0.256447, -3.290716, 0, cl__3};
Point(15) = {0.256447, 4.493180000000001, 0.1, cl__4};
Point(16) = {0.256447, 4.493180000000001, 0, cl__4};
Point(17) = {34.05866, -3.290716, 0, cl__5};
Point(18) = {34.05866, -3.290716, 0.1, cl__5};
Point(19) = {34.05866, 4.493180000000001, 0.1, cl__6};
Point(20) = {34.05866, 4.493180000000001, 0, cl__6};
p13 = newp;
Point(p13 + 1) = {16.73326464934635, 0.6121154650615064, 0.1};
Point(p13 + 2) = {16.69897238976893, 0.7549530059952025, 0.1};
Point(p13 + 3) = {16.64275761050803, 0.8906674884926811, 0.1};
Point(p13 + 4) = {16.5660045059952, 1.01591717158431, 0.1};
Point(p13 + 5) = {16.47060299239251, 1.127617992392506, 0.1};
Point(p13 + 6) = {16.35890217158431, 1.223019505995202, 0.1};
Point(p13 + 7) = {16.23365248849268, 1.299772610508029, 0.1};
Point(p13 + 8) = {16.0979380059952, 1.355987389768931, 0.1};
Point(p13 + 9) = {15.95510046506151, 1.390279649346348, 0.1};
Point(p13 + 10) = {15.808657, 1.401805, 0.1};
Point(p13 + 11) = {15.66221353493849, 1.390279649346348, 0.1};
Point(p13 + 12) = {15.5193759940048, 1.355987389768931, 0.1};
Point(p13 + 13) = {15.38366151150732, 1.299772610508029, 0.1};
Point(p13 + 14) = {15.25841182841569, 1.223019505995203, 0.1};
Point(p13 + 15) = {15.14671100760749, 1.127617992392506, 0.1};
Point(p13 + 16) = {15.0513094940048, 1.01591717158431, 0.1};
Point(p13 + 17) = {14.97455638949197, 0.8906674884926812, 0.1};
Point(p13 + 18) = {14.91834161023107, 0.7549530059952028, 0.1};
Point(p13 + 19) = {14.88404935065365, 0.6121154650615065, 0.1};
Point(p13 + 20) = {14.872524, 0.4656720000000001, 0.1};
Point(p13 + 21) = {14.88404935065365, 0.3192285349384936, 0.1};
Point(p13 + 22) = {14.91834161023107, 0.176390994004797, 0.1};
Point(p13 + 23) = {14.97455638949197, 0.04067651150731927, 0.1};
Point(p13 + 24) = {15.0513094940048, -0.08457317158430966, 0.1};
Point(p13 + 25) = {15.14671100760749, -0.1962739923925062, 0.1};
Point(p13 + 26) = {15.25841182841569, -0.2916755059952026, 0.1};
Point(p13 + 27) = {15.38366151150732, -0.3684286105080293, 0.1};
Point(p13 + 28) = {15.5193759940048, -0.424643389768931, 0.1};
Point(p13 + 29) = {15.66221353493849, -0.458935649346348, 0.1};
Point(p13 + 30) = {15.808657, -0.470461, 0.1};
Point(p13 + 31) = {15.95510046506151, -0.4589356493463481, 0.1};
Point(p13 + 32) = {16.0979380059952, -0.4246433897689311, 0.1};
Point(p13 + 33) = {16.23365248849268, -0.3684286105080296, 0.1};
Point(p13 + 34) = {16.35890217158431, -0.2916755059952028, 0.1};
Point(p13 + 35) = {16.47060299239251, -0.1962739923925064, 0.1};
Point(p13 + 36) = {16.5660045059952, -0.08457317158430988, 0.1};
Point(p13 + 37) = {16.64275761050803, 0.04067651150731866, 0.1};
Point(p13 + 38) = {16.69897238976893, 0.1763909940047971, 0.1};
Point(p13 + 39) = {16.73326464934635, 0.3192285349384933, 0.1};
Spline(13) = {9, p13 + 1, p13 + 2, p13 + 3, p13 + 4, p13 + 5, p13 + 6, p13 + 7, p13 + 8, p13 + 9, p13 + 10, p13 + 11, p13 + 12, p13 + 13, p13 + 14, p13 + 15, p13 + 16, p13 + 17, p13 + 18, p13 + 19, p13 + 20, p13 + 21, p13 + 22, p13 + 23, p13 + 24, p13 + 25, p13 + 26, p13 + 27, p13 + 28, p13 + 29, p13 + 30, p13 + 31, p13 + 32, p13 + 33, p13 + 34, p13 + 35, p13 + 36, p13 + 37, p13 + 38, p13 + 39, 9};
Line(14) = {10, 9};
p15 = newp;
Point(p15 + 1) = {16.73326464934635, 0.6121154650615064, 0};
Point(p15 + 2) = {16.69897238976893, 0.7549530059952025, 0};
Point(p15 + 3) = {16.64275761050803, 0.8906674884926811, 0};
Point(p15 + 4) = {16.5660045059952, 1.01591717158431, 0};
Point(p15 + 5) = {16.47060299239251, 1.127617992392506, 0};
Point(p15 + 6) = {16.35890217158431, 1.223019505995202, 0};
Point(p15 + 7) = {16.23365248849268, 1.299772610508029, 0};
Point(p15 + 8) = {16.0979380059952, 1.355987389768931, 0};
Point(p15 + 9) = {15.95510046506151, 1.390279649346348, 0};
Point(p15 + 10) = {15.808657, 1.401805, 0};
Point(p15 + 11) = {15.66221353493849, 1.390279649346348, 0};
Point(p15 + 12) = {15.5193759940048, 1.355987389768931, 0};
Point(p15 + 13) = {15.38366151150732, 1.299772610508029, 0};
Point(p15 + 14) = {15.25841182841569, 1.223019505995203, 0};
Point(p15 + 15) = {15.14671100760749, 1.127617992392506, 0};
Point(p15 + 16) = {15.0513094940048, 1.01591717158431, 0};
Point(p15 + 17) = {14.97455638949197, 0.8906674884926812, 0};
Point(p15 + 18) = {14.91834161023107, 0.7549530059952028, 0};
Point(p15 + 19) = {14.88404935065365, 0.6121154650615065, 0};
Point(p15 + 20) = {14.872524, 0.4656720000000001, 0};
Point(p15 + 21) = {14.88404935065365, 0.3192285349384936, 0};
Point(p15 + 22) = {14.91834161023107, 0.176390994004797, 0};
Point(p15 + 23) = {14.97455638949197, 0.04067651150731927, 0};
Point(p15 + 24) = {15.0513094940048, -0.08457317158430966, 0};
Point(p15 + 25) = {15.14671100760749, -0.1962739923925062, 0};
Point(p15 + 26) = {15.25841182841569, -0.2916755059952026, 0};
Point(p15 + 27) = {15.38366151150732, -0.3684286105080293, 0};
Point(p15 + 28) = {15.5193759940048, -0.424643389768931, 0};
Point(p15 + 29) = {15.66221353493849, -0.458935649346348, 0};
Point(p15 + 30) = {15.808657, -0.470461, 0};
Point(p15 + 31) = {15.95510046506151, -0.4589356493463481, 0};
Point(p15 + 32) = {16.0979380059952, -0.4246433897689311, 0};
Point(p15 + 33) = {16.23365248849268, -0.3684286105080296, 0};
Point(p15 + 34) = {16.35890217158431, -0.2916755059952028, 0};
Point(p15 + 35) = {16.47060299239251, -0.1962739923925064, 0};
Point(p15 + 36) = {16.5660045059952, -0.08457317158430988, 0};
Point(p15 + 37) = {16.64275761050803, 0.04067651150731866, 0};
Point(p15 + 38) = {16.69897238976893, 0.1763909940047971, 0};
Point(p15 + 39) = {16.73326464934635, 0.3192285349384933, 0};
Spline(15) = {10, p15 + 1, p15 + 2, p15 + 3, p15 + 4, p15 + 5, p15 + 6, p15 + 7, p15 + 8, p15 + 9, p15 + 10, p15 + 11, p15 + 12, p15 + 13, p15 + 14, p15 + 15, p15 + 16, p15 + 17, p15 + 18, p15 + 19, p15 + 20, p15 + 21, p15 + 22, p15 + 23, p15 + 24, p15 + 25, p15 + 26, p15 + 27, p15 + 28, p15 + 29, p15 + 30, p15 + 31, p15 + 32, p15 + 33, p15 + 34, p15 + 35, p15 + 36, p15 + 37, p15 + 38, p15 + 39, 10};
p16 = newp;
Point(p16 + 1) = {33.33879705747047, -0.02887331371539861, 0.1};
Point(p16 + 2) = {33.3197518423305, 0.05045571652848452, 0.1};
Point(p16 + 3) = {33.28853131098425, 0.125828746729088, 0.1};
Point(p16 + 4) = {33.24590421652848, 0.1953898427341274, 0.1};
Point(p16 + 5) = {33.19292017949991, 0.2574261794999167, 0.1};
Point(p16 + 6) = {33.13088384273413, 0.3104102165284844, 0.1};
Point(p16 + 7) = {33.06132274672908, 0.3530373109842501, 0.1};
Point(p16 + 8) = {32.98594971652848, 0.3842578423304969, 0.1};
Point(p16 + 9) = {32.9066206862846, 0.4033030574704775, 0.1};
Point(p16 + 10) = {32.825289, 0.409704, 0.1};
Point(p16 + 11) = {32.7439573137154, 0.4033030574704773, 0.1};
Point(p16 + 12) = {32.66462828347152, 0.384257842330497, 0.1};
Point(p16 + 13) = {32.58925525327091, 0.3530373109842501, 0.1};
Point(p16 + 14) = {32.51969415726587, 0.3104102165284845, 0.1};
Point(p16 + 15) = {32.45765782050008, 0.2574261794999168, 0.1};
Point(p16 + 16) = {32.40467378347152, 0.1953898427341275, 0.1};
Point(p16 + 17) = {32.36204668901575, 0.1258287467290881, 0.1};
Point(p16 + 18) = {32.3308261576695, 0.05045571652848457, 0.1};
Point(p16 + 19) = {32.31178094252952, -0.02887331371539856, 0.1};
Point(p16 + 20) = {32.30538, -0.1102049999999999, 0.1};
Point(p16 + 21) = {32.31178094252952, -0.1915366862846013, 0.1};
Point(p16 + 22) = {32.3308261576695, -0.2708657165284847, 0.1};
Point(p16 + 23) = {32.36204668901575, -0.3462387467290877, 0.1};
Point(p16 + 24) = {32.40467378347152, -0.4157998427341273, 0.1};
Point(p16 + 25) = {32.45765782050008, -0.4778361794999167, 0.1};
Point(p16 + 26) = {32.51969415726587, -0.5308202165284844, 0.1};
Point(p16 + 27) = {32.58925525327091, -0.5734473109842501, 0.1};
Point(p16 + 28) = {32.66462828347152, -0.604667842330497, 0.1};
Point(p16 + 29) = {32.7439573137154, -0.6237130574704773, 0.1};
Point(p16 + 30) = {32.825289, -0.630114, 0.1};
Point(p16 + 31) = {32.9066206862846, -0.6237130574704774, 0.1};
Point(p16 + 32) = {32.98594971652848, -0.604667842330497, 0.1};
Point(p16 + 33) = {33.06132274672908, -0.5734473109842502, 0.1};
Point(p16 + 34) = {33.13088384273413, -0.5308202165284845, 0.1};
Point(p16 + 35) = {33.19292017949991, -0.4778361794999168, 0.1};
Point(p16 + 36) = {33.24590421652848, -0.4157998427341275, 0.1};
Point(p16 + 37) = {33.28853131098425, -0.3462387467290881, 0.1};
Point(p16 + 38) = {33.3197518423305, -0.2708657165284846, 0.1};
Point(p16 + 39) = {33.33879705747047, -0.1915366862846015, 0.1};
Spline(16) = {11, p16 + 1, p16 + 2, p16 + 3, p16 + 4, p16 + 5, p16 + 6, p16 + 7, p16 + 8, p16 + 9, p16 + 10, p16 + 11, p16 + 12, p16 + 13, p16 + 14, p16 + 15, p16 + 16, p16 + 17, p16 + 18, p16 + 19, p16 + 20, p16 + 21, p16 + 22, p16 + 23, p16 + 24, p16 + 25, p16 + 26, p16 + 27, p16 + 28, p16 + 29, p16 + 30, p16 + 31, p16 + 32, p16 + 33, p16 + 34, p16 + 35, p16 + 36, p16 + 37, p16 + 38, p16 + 39, 11};
Line(17) = {12, 11};
p18 = newp;
Point(p18 + 1) = {33.33879705747047, -0.02887331371539861, 0};
Point(p18 + 2) = {33.3197518423305, 0.05045571652848452, 0};
Point(p18 + 3) = {33.28853131098425, 0.125828746729088, 0};
Point(p18 + 4) = {33.24590421652848, 0.1953898427341274, 0};
Point(p18 + 5) = {33.19292017949991, 0.2574261794999167, 0};
Point(p18 + 6) = {33.13088384273413, 0.3104102165284844, 0};
Point(p18 + 7) = {33.06132274672908, 0.3530373109842501, 0};
Point(p18 + 8) = {32.98594971652848, 0.3842578423304969, 0};
Point(p18 + 9) = {32.9066206862846, 0.4033030574704775, 0};
Point(p18 + 10) = {32.825289, 0.409704, 0};
Point(p18 + 11) = {32.7439573137154, 0.4033030574704773, 0};
Point(p18 + 12) = {32.66462828347152, 0.384257842330497, 0};
Point(p18 + 13) = {32.58925525327091, 0.3530373109842501, 0};
Point(p18 + 14) = {32.51969415726587, 0.3104102165284845, 0};
Point(p18 + 15) = {32.45765782050008, 0.2574261794999168, 0};
Point(p18 + 16) = {32.40467378347152, 0.1953898427341275, 0};
Point(p18 + 17) = {32.36204668901575, 0.1258287467290881, 0};
Point(p18 + 18) = {32.3308261576695, 0.05045571652848457, 0};
Point(p18 + 19) = {32.31178094252952, -0.02887331371539856, 0};
Point(p18 + 20) = {32.30538, -0.1102049999999999, 0};
Point(p18 + 21) = {32.31178094252952, -0.1915366862846013, 0};
Point(p18 + 22) = {32.3308261576695, -0.2708657165284847, 0};
Point(p18 + 23) = {32.36204668901575, -0.3462387467290877, 0};
Point(p18 + 24) = {32.40467378347152, -0.4157998427341273, 0};
Point(p18 + 25) = {32.45765782050008, -0.4778361794999167, 0};
Point(p18 + 26) = {32.51969415726587, -0.5308202165284844, 0};
Point(p18 + 27) = {32.58925525327091, -0.5734473109842501, 0};
Point(p18 + 28) = {32.66462828347152, -0.604667842330497, 0};
Point(p18 + 29) = {32.7439573137154, -0.6237130574704773, 0};
Point(p18 + 30) = {32.825289, -0.630114, 0};
Point(p18 + 31) = {32.9066206862846, -0.6237130574704774, 0};
Point(p18 + 32) = {32.98594971652848, -0.604667842330497, 0};
Point(p18 + 33) = {33.06132274672908, -0.5734473109842502, 0};
Point(p18 + 34) = {33.13088384273413, -0.5308202165284845, 0};
Point(p18 + 35) = {33.19292017949991, -0.4778361794999168, 0};
Point(p18 + 36) = {33.24590421652848, -0.4157998427341275, 0};
Point(p18 + 37) = {33.28853131098425, -0.3462387467290881, 0};
Point(p18 + 38) = {33.3197518423305, -0.2708657165284846, 0};
Point(p18 + 39) = {33.33879705747047, -0.1915366862846015, 0};
Spline(18) = {12, p18 + 1, p18 + 2, p18 + 3, p18 + 4, p18 + 5, p18 + 6, p18 + 7, p18 + 8, p18 + 9, p18 + 10, p18 + 11, p18 + 12, p18 + 13, p18 + 14, p18 + 15, p18 + 16, p18 + 17, p18 + 18, p18 + 19, p18 + 20, p18 + 21, p18 + 22, p18 + 23, p18 + 24, p18 + 25, p18 + 26, p18 + 27, p18 + 28, p18 + 29, p18 + 30, p18 + 31, p18 + 32, p18 + 33, p18 + 34, p18 + 35, p18 + 36, p18 + 37, p18 + 38, p18 + 39, 12};
Line(19) = {14, 13};
Line(20) = {13, 15};
Line(21) = {16, 15};
Line(22) = {14, 16};
Line(23) = {14, 17};
Line(24) = {17, 18};
Line(25) = {13, 18};
Line(26) = {15, 19};
Line(27) = {18, 19};
Line(28) = {16, 20};
Line(29) = {20, 19};
Line(30) = {17, 20};
Curve Loop(7) = {-13, -14, 15, 14};
Surface(7) = {7};
Curve Loop(8) = {13};
Plane Surface(8) = {8};
Curve Loop(9) = {15};
Plane Surface(9) = {9};
Curve Loop(10) = {-16, -17, 18, 17};
Surface(10) = {10};
Curve Loop(11) = {16};
Plane Surface(11) = {11};
Curve Loop(12) = {18};
Plane Surface(12) = {12};
Curve Loop(13) = {-19, 22, 21, -20};
Plane Surface(13) = {13};
Curve Loop(14) = {-23, 19, 25, -24};
Plane Surface(14) = {14};
Curve Loop(15) = {-20, 25, 27, -26, -16, -13};
Plane Surface(15) = {15};
Curve Loop(16) = {-28, 21, 26, -29};
Plane Surface(16) = {16};
Curve Loop(17) = {-22, 23, 30, -28, -18, -15};
Plane Surface(17) = {17};
Curve Loop(18) = {-24, 30, 29, -27};
Plane Surface(18) = {18};
Surface Loop(1) = {13, 14, 15, 16, 17, 18, 10, 7};
Volume(1) = {1};
Surface Loop(2) = {7, 8, 9};
Volume(2) = {2};
Surface Loop(3) = {10, 11, 12};
Volume(3) = {3};
Physical Surface("WALLS") = {13, 18};
Physical Surface("LOAD") = {8, 11};
Physical Surface("BORDER") = {7, 9, 10, 12, 14, 15, 16, 17};
Physical Volume("SOLID") = {1, 2, 3};
