cl__1 = 0.116758;
cl__2 = 0.121927;
cl__3 = 4.098087;
cl__4 = 3.453185;
cl__5 = 0.460361;
cl__6 = 0.427873;
Point(9) = {17.118076, 2.444477, 0.1, cl__1};
Point(10) = {17.118076, 2.444477, 0, cl__1};
Point(11) = {32.369058, 0.9136059999999998, 0.1, cl__2};
Point(12) = {32.369058, 0.9136059999999998, 0, cl__2};
Point(13) = {0.194435, -3.358626, 0.1, cl__3};
Point(14) = {0.194435, -3.358626, 0, cl__3};
Point(15) = {0.194435, 4.751335, 0.1, cl__4};
Point(16) = {0.194435, 4.751335, 0, cl__4};
Point(17) = {34.943771, -3.358626, 0, cl__5};
Point(18) = {34.943771, -3.358626, 0.1, cl__5};
Point(19) = {34.943771, 4.751335, 0.1, cl__6};
Point(20) = {34.943771, 4.751335, 0, cl__6};
p13 = newp;
Point(p13 + 1) = {17.10370117733539, 2.627126439822743, 0.1};
Point(p13 + 2) = {17.06093066518286, 2.805278444258312, 0.1};
Point(p13 + 3) = {16.99081761549881, 2.9745463197049, 0.1};
Point(p13 + 4) = {16.89508844425831, 3.130762129301141, 0.1};
Point(p13 + 5) = {16.77610032136423, 3.270079321364227, 0.1};
Point(p13 + 6) = {16.63678312930114, 3.389067444258312, 0.1};
Point(p13 + 7) = {16.4805673197049, 3.484796615498806, 0.1};
Point(p13 + 8) = {16.31129944425831, 3.554909665182863, 0.1};
Point(p13 + 9) = {16.13314743982274, 3.597680177335389, 0.1};
Point(p13 + 10) = {15.950498, 3.612055, 0.1};
Point(p13 + 11) = {15.76784856017726, 3.597680177335389, 0.1};
Point(p13 + 12) = {15.58969655574169, 3.554909665182863, 0.1};
Point(p13 + 13) = {15.4204286802951, 3.484796615498806, 0.1};
Point(p13 + 14) = {15.26421287069886, 3.389067444258313, 0.1};
Point(p13 + 15) = {15.12489567863577, 3.270079321364227, 0.1};
Point(p13 + 16) = {15.00590755574169, 3.130762129301141, 0.1};
Point(p13 + 17) = {14.91017838450119, 2.974546319704901, 0.1};
Point(p13 + 18) = {14.84006533481714, 2.805278444258312, 0.1};
Point(p13 + 19) = {14.79729482266461, 2.627126439822743, 0.1};
Point(p13 + 20) = {14.78292, 2.444477, 0.1};
Point(p13 + 21) = {14.79729482266461, 2.261827560177257, 0.1};
Point(p13 + 22) = {14.84006533481714, 2.083675555741687, 0.1};
Point(p13 + 23) = {14.91017838450119, 1.9144076802951, 0.1};
Point(p13 + 24) = {15.00590755574169, 1.758191870698859, 0.1};
Point(p13 + 25) = {15.12489567863577, 1.618874678635773, 0.1};
Point(p13 + 26) = {15.26421287069886, 1.499886555741688, 0.1};
Point(p13 + 27) = {15.4204286802951, 1.404157384501194, 0.1};
Point(p13 + 28) = {15.58969655574169, 1.334044334817137, 0.1};
Point(p13 + 29) = {15.76784856017726, 1.29127382266461, 0.1};
Point(p13 + 30) = {15.950498, 1.276899, 0.1};
Point(p13 + 31) = {16.13314743982274, 1.29127382266461, 0.1};
Point(p13 + 32) = {16.31129944425831, 1.334044334817137, 0.1};
Point(p13 + 33) = {16.4805673197049, 1.404157384501194, 0.1};
Point(p13 + 34) = {16.63678312930114, 1.499886555741687, 0.1};
Point(p13 + 35) = {16.77610032136423, 1.618874678635773, 0.1};
Point(p13 + 36) = {16.89508844425831, 1.758191870698859, 0.1};
Point(p13 + 37) = {16.99081761549881, 1.914407680295099, 0.1};
Point(p13 + 38) = {17.06093066518286, 2.083675555741687, 0.1};
Point(p13 + 39) = {17.10370117733539, 2.261827560177257, 0.1};
Spline(13) = {9, p13 + 1, p13 + 2, p13 + 3, p13 + 4, p13 + 5, p13 + 6, p13 + 7, p13 + 8, p13 + 9, p13 + 10, p13 + 11, p13 + 12, p13 + 13, p13 + 14, p13 + 15, p13 + 16, p13 + 17, p13 + 18, p13 + 19, p13 + 20, p13 + 21, p13 + 22, p13 + 23, p13 + 24, p13 + 25, p13 + 26, p13 + 27, p13 + 28, p13 + 29, p13 + 30, p13 + 31, p13 + 32, p13 + 33, p13 + 34, p13 + 35, p13 + 36, p13 + 37, p13 + 38, p13 + 39, 9};
Line(14) = {10, 9};
p15 = newp;
Point(p15 + 1) = {17.10370117733539, 2.627126439822743, 0};
Point(p15 + 2) = {17.06093066518286, 2.805278444258312, 0};
Point(p15 + 3) = {16.99081761549881, 2.9745463197049, 0};
Point(p15 + 4) = {16.89508844425831, 3.130762129301141, 0};
Point(p15 + 5) = {16.77610032136423, 3.270079321364227, 0};
Point(p15 + 6) = {16.63678312930114, 3.389067444258312, 0};
Point(p15 + 7) = {16.4805673197049, 3.484796615498806, 0};
Point(p15 + 8) = {16.31129944425831, 3.554909665182863, 0};
Point(p15 + 9) = {16.13314743982274, 3.597680177335389, 0};
Point(p15 + 10) = {15.950498, 3.612055, 0};
Point(p15 + 11) = {15.76784856017726, 3.597680177335389, 0};
Point(p15 + 12) = {15.58969655574169, 3.554909665182863, 0};
Point(p15 + 13) = {15.4204286802951, 3.484796615498806, 0};
Point(p15 + 14) = {15.26421287069886, 3.389067444258313, 0};
Point(p15 + 15) = {15.12489567863577, 3.270079321364227, 0};
Point(p15 + 16) = {15.00590755574169, 3.130762129301141, 0};
Point(p15 + 17) = {14.91017838450119, 2.974546319704901, 0};
Point(p15 + 18) = {14.84006533481714, 2.805278444258312, 0};
Point(p15 + 19) = {14.79729482266461, 2.627126439822743, 0};
Point(p15 + 20) = {14.78292, 2.444477, 0};
Point(p15 + 21) = {14.79729482266461, 2.261827560177257, 0};
Point(p15 + 22) = {14.84006533481714, 2.083675555741687, 0};
Point(p15 + 23) = {14.91017838450119, 1.9144076802951, 0};
Point(p15 + 24) = {15.00590755574169, 1.758191870698859, 0};
Point(p15 + 25) = {15.12489567863577, 1.618874678635773, 0};
Point(p15 + 26) = {15.26421287069886, 1.499886555741688, 0};
Point(p15 + 27) = {15.4204286802951, 1.404157384501194, 0};
Point(p15 + 28) = {15.58969655574169, 1.334044334817137, 0};
Point(p15 + 29) = {15.76784856017726, 1.29127382266461, 0};
Point(p15 + 30) = {15.950498, 1.276899, 0};
Point(p15 + 31) = {16.13314743982274, 1.29127382266461, 0};
Point(p15 + 32) = {16.31129944425831, 1.334044334817137, 0};
Point(p15 + 33) = {16.4805673197049, 1.404157384501194, 0};
Point(p15 + 34) = {16.63678312930114, 1.499886555741687, 0};
Point(p15 + 35) = {16.77610032136423, 1.618874678635773, 0};
Point(p15 + 36) = {16.89508844425831, 1.758191870698859, 0};
Point(p15 + 37) = {16.99081761549881, 1.914407680295099, 0};
Point(p15 + 38) = {17.06093066518286, 2.083675555741687, 0};
Point(p15 + 39) = {17.10370117733539, 2.261827560177257, 0};
Spline(15) = {10, p15 + 1, p15 + 2, p15 + 3, p15 + 4, p15 + 5, p15 + 6, p15 + 7, p15 + 8, p15 + 9, p15 + 10, p15 + 11, p15 + 12, p15 + 13, p15 + 14, p15 + 15, p15 + 16, p15 + 17, p15 + 18, p15 + 19, p15 + 20, p15 + 21, p15 + 22, p15 + 23, p15 + 24, p15 + 25, p15 + 26, p15 + 27, p15 + 28, p15 + 29, p15 + 30, p15 + 31, p15 + 32, p15 + 33, p15 + 34, p15 + 35, p15 + 36, p15 + 37, p15 + 38, p15 + 39, 10};
p16 = newp;
Point(p16 + 1) = {32.35404671379079, 1.104342475927462, 0.1};
Point(p16 + 2) = {32.30938248284926, 1.29038238679952, 0.1};
Point(p16 + 3) = {32.23616508877325, 1.467144812579436, 0.1};
Point(p16 + 4) = {32.13619738679952, 1.630277275703653, 0.1};
Point(p16 + 5) = {32.01194091352445, 1.775762913524447, 0.1};
Point(p16 + 6) = {31.86645527570365, 1.900019386799519, 0.1};
Point(p16 + 7) = {31.70332281257944, 1.999987088773248, 0.1};
Point(p16 + 8) = {31.52656038679952, 2.073204482849257, 0.1};
Point(p16 + 9) = {31.34052047592746, 2.117868713790796, 0.1};
Point(p16 + 10) = {31.149784, 2.13288, 0.1};
Point(p16 + 11) = {30.95904752407254, 2.117868713790796, 0.1};
Point(p16 + 12) = {30.77300761320048, 2.073204482849257, 0.1};
Point(p16 + 13) = {30.59624518742056, 1.999987088773248, 0.1};
Point(p16 + 14) = {30.43311272429635, 1.90001938679952, 0.1};
Point(p16 + 15) = {30.28762708647555, 1.775762913524447, 0.1};
Point(p16 + 16) = {30.16337061320048, 1.630277275703653, 0.1};
Point(p16 + 17) = {30.06340291122675, 1.467144812579436, 0.1};
Point(p16 + 18) = {29.99018551715074, 1.29038238679952, 0.1};
Point(p16 + 19) = {29.9455212862092, 1.104342475927463, 0.1};
Point(p16 + 20) = {29.93051, 0.9136060000000001, 0.1};
Point(p16 + 21) = {29.9455212862092, 0.7228695240725377, 0.1};
Point(p16 + 22) = {29.99018551715074, 0.5368296132004799, 0.1};
Point(p16 + 23) = {30.06340291122675, 0.3600671874205644, 0.1};
Point(p16 + 24) = {30.16337061320048, 0.1969347242963473, 0.1};
Point(p16 + 25) = {30.28762708647555, 0.05144908647555357, 0.1};
Point(p16 + 26) = {30.43311272429635, -0.07280738679951948, 0.1};
Point(p16 + 27) = {30.59624518742056, -0.1727750887732479, 0.1};
Point(p16 + 28) = {30.77300761320048, -0.2459924828492569, 0.1};
Point(p16 + 29) = {30.95904752407254, -0.2906567137907957, 0.1};
Point(p16 + 30) = {31.149784, -0.3056679999999999, 0.1};
Point(p16 + 31) = {31.34052047592746, -0.2906567137907959, 0.1};
Point(p16 + 32) = {31.52656038679952, -0.2459924828492571, 0.1};
Point(p16 + 33) = {31.70332281257944, -0.1727750887732481, 0.1};
Point(p16 + 34) = {31.86645527570365, -0.07280738679951981, 0.1};
Point(p16 + 35) = {32.01194091352445, 0.05144908647555335, 0.1};
Point(p16 + 36) = {32.13619738679952, 0.1969347242963471, 0.1};
Point(p16 + 37) = {32.23616508877325, 0.3600671874205637, 0.1};
Point(p16 + 38) = {32.30938248284926, 0.5368296132004802, 0.1};
Point(p16 + 39) = {32.35404671379079, 0.7228695240725372, 0.1};
Spline(16) = {11, p16 + 1, p16 + 2, p16 + 3, p16 + 4, p16 + 5, p16 + 6, p16 + 7, p16 + 8, p16 + 9, p16 + 10, p16 + 11, p16 + 12, p16 + 13, p16 + 14, p16 + 15, p16 + 16, p16 + 17, p16 + 18, p16 + 19, p16 + 20, p16 + 21, p16 + 22, p16 + 23, p16 + 24, p16 + 25, p16 + 26, p16 + 27, p16 + 28, p16 + 29, p16 + 30, p16 + 31, p16 + 32, p16 + 33, p16 + 34, p16 + 35, p16 + 36, p16 + 37, p16 + 38, p16 + 39, 11};
Line(17) = {12, 11};
p18 = newp;
Point(p18 + 1) = {32.35404671379079, 1.104342475927462, 0};
Point(p18 + 2) = {32.30938248284926, 1.29038238679952, 0};
Point(p18 + 3) = {32.23616508877325, 1.467144812579436, 0};
Point(p18 + 4) = {32.13619738679952, 1.630277275703653, 0};
Point(p18 + 5) = {32.01194091352445, 1.775762913524447, 0};
Point(p18 + 6) = {31.86645527570365, 1.900019386799519, 0};
Point(p18 + 7) = {31.70332281257944, 1.999987088773248, 0};
Point(p18 + 8) = {31.52656038679952, 2.073204482849257, 0};
Point(p18 + 9) = {31.34052047592746, 2.117868713790796, 0};
Point(p18 + 10) = {31.149784, 2.13288, 0};
Point(p18 + 11) = {30.95904752407254, 2.117868713790796, 0};
Point(p18 + 12) = {30.77300761320048, 2.073204482849257, 0};
Point(p18 + 13) = {30.59624518742056, 1.999987088773248, 0};
Point(p18 + 14) = {30.43311272429635, 1.90001938679952, 0};
Point(p18 + 15) = {30.28762708647555, 1.775762913524447, 0};
Point(p18 + 16) = {30.16337061320048, 1.630277275703653, 0};
Point(p18 + 17) = {30.06340291122675, 1.467144812579436, 0};
Point(p18 + 18) = {29.99018551715074, 1.29038238679952, 0};
Point(p18 + 19) = {29.9455212862092, 1.104342475927463, 0};
Point(p18 + 20) = {29.93051, 0.9136060000000001, 0};
Point(p18 + 21) = {29.9455212862092, 0.7228695240725377, 0};
Point(p18 + 22) = {29.99018551715074, 0.5368296132004799, 0};
Point(p18 + 23) = {30.06340291122675, 0.3600671874205644, 0};
Point(p18 + 24) = {30.16337061320048, 0.1969347242963473, 0};
Point(p18 + 25) = {30.28762708647555, 0.05144908647555357, 0};
Point(p18 + 26) = {30.43311272429635, -0.07280738679951948, 0};
Point(p18 + 27) = {30.59624518742056, -0.1727750887732479, 0};
Point(p18 + 28) = {30.77300761320048, -0.2459924828492569, 0};
Point(p18 + 29) = {30.95904752407254, -0.2906567137907957, 0};
Point(p18 + 30) = {31.149784, -0.3056679999999999, 0};
Point(p18 + 31) = {31.34052047592746, -0.2906567137907959, 0};
Point(p18 + 32) = {31.52656038679952, -0.2459924828492571, 0};
Point(p18 + 33) = {31.70332281257944, -0.1727750887732481, 0};
Point(p18 + 34) = {31.86645527570365, -0.07280738679951981, 0};
Point(p18 + 35) = {32.01194091352445, 0.05144908647555335, 0};
Point(p18 + 36) = {32.13619738679952, 0.1969347242963471, 0};
Point(p18 + 37) = {32.23616508877325, 0.3600671874205637, 0};
Point(p18 + 38) = {32.30938248284926, 0.5368296132004802, 0};
Point(p18 + 39) = {32.35404671379079, 0.7228695240725372, 0};
Spline(18) = {12, p18 + 1, p18 + 2, p18 + 3, p18 + 4, p18 + 5, p18 + 6, p18 + 7, p18 + 8, p18 + 9, p18 + 10, p18 + 11, p18 + 12, p18 + 13, p18 + 14, p18 + 15, p18 + 16, p18 + 17, p18 + 18, p18 + 19, p18 + 20, p18 + 21, p18 + 22, p18 + 23, p18 + 24, p18 + 25, p18 + 26, p18 + 27, p18 + 28, p18 + 29, p18 + 30, p18 + 31, p18 + 32, p18 + 33, p18 + 34, p18 + 35, p18 + 36, p18 + 37, p18 + 38, p18 + 39, 12};
Line(19) = {14, 13};
Line(20) = {13, 15};
Line(21) = {16, 15};
Line(22) = {14, 16};
Line(23) = {14, 17};
Line(24) = {17, 18};
Line(25) = {13, 18};
Line(26) = {15, 19};
Line(27) = {18, 19};
Line(28) = {16, 20};
Line(29) = {20, 19};
Line(30) = {17, 20};
Curve Loop(7) = {-13, -14, 15, 14};
Surface(7) = {7};
Curve Loop(8) = {13};
Plane Surface(8) = {8};
Curve Loop(9) = {15};
Plane Surface(9) = {9};
Curve Loop(10) = {-16, -17, 18, 17};
Surface(10) = {10};
Curve Loop(11) = {16};
Plane Surface(11) = {11};
Curve Loop(12) = {18};
Plane Surface(12) = {12};
Curve Loop(13) = {-19, 22, 21, -20};
Plane Surface(13) = {13};
Curve Loop(14) = {-23, 19, 25, -24};
Plane Surface(14) = {14};
Curve Loop(15) = {-20, 25, 27, -26, -16, -13};
Plane Surface(15) = {15};
Curve Loop(16) = {-28, 21, 26, -29};
Plane Surface(16) = {16};
Curve Loop(17) = {-22, 23, 30, -28, -18, -15};
Plane Surface(17) = {17};
Curve Loop(18) = {-24, 30, 29, -27};
Plane Surface(18) = {18};
Surface Loop(1) = {13, 14, 15, 16, 17, 18, 10, 7};
Volume(1) = {1};
Surface Loop(2) = {7, 8, 9};
Volume(2) = {2};
Surface Loop(3) = {10, 11, 12};
Volume(3) = {3};
Physical Surface("WALLS") = {13, 18};
Physical Surface("LOAD") = {8, 11};
Physical Surface("BORDER") = {7, 9, 10, 12, 14, 15, 16, 17};
Physical Volume("SOLID") = {1, 2, 3};
