cl__1 = 0.072981;
cl__2 = 0.09198000000000001;
cl__3 = 3.25238;
cl__4 = 3.106351;
cl__5 = 0.5165960000000001;
cl__6 = 0.5427;
Point(9) = {17.617889, 0.7570819999999998, 0.1, cl__1};
Point(10) = {17.617889, 0.7570819999999998, 0, cl__1};
Point(11) = {32.932595, 0.03643099999999978, 0.1, cl__2};
Point(12) = {32.932595, 0.03643099999999978, 0, cl__2};
Point(13) = {0.659649, -3.913818, 0.1, cl__3};
Point(14) = {0.659649, -3.913818, 0, cl__3};
Point(15) = {0.659649, 4.44286, 0.1, cl__4};
Point(16) = {0.659649, 4.44286, 0, cl__4};
Point(17) = {37.241868, -3.913818, 0, cl__5};
Point(18) = {37.241868, -3.913818, 0.1, cl__5};
Point(19) = {37.241868, 4.44286, 0.1, cl__6};
Point(20) = {37.241868, 4.44286, 0, cl__6};
p13 = newp;
Point(p13 + 1) = {17.6089037786031, 0.8712500626688711, 0.1};
Point(p13 + 2) = {17.58216936038343, 0.9826069287327579, 0.1};
Point(p13 + 3) = {17.53834403544401, 1.088410622576918, 0.1};
Point(p13 + 4) = {17.47850692873276, 1.186055906116579, 0.1};
Point(p13 + 5) = {17.40413142840488, 1.273138428404879, 0.1};
Point(p13 + 6) = {17.31704890611658, 1.347513928732758, 0.1};
Point(p13 + 7) = {17.21940362257692, 1.407351035444009, 0.1};
Point(p13 + 8) = {17.11359992873276, 1.451176360383431, 0.1};
Point(p13 + 9) = {17.00224306266887, 1.4779107786031, 0.1};
Point(p13 + 10) = {16.888075, 1.486896, 0.1};
Point(p13 + 11) = {16.77390693733113, 1.4779107786031, 0.1};
Point(p13 + 12) = {16.66255007126724, 1.451176360383431, 0.1};
Point(p13 + 13) = {16.55674637742308, 1.40735103544401, 0.1};
Point(p13 + 14) = {16.45910109388342, 1.347513928732758, 0.1};
Point(p13 + 15) = {16.37201857159512, 1.273138428404879, 0.1};
Point(p13 + 16) = {16.29764307126724, 1.186055906116579, 0.1};
Point(p13 + 17) = {16.23780596455599, 1.088410622576918, 0.1};
Point(p13 + 18) = {16.19398063961657, 0.9826069287327579, 0.1};
Point(p13 + 19) = {16.1672462213969, 0.8712500626688712, 0.1};
Point(p13 + 20) = {16.158261, 0.7570820000000001, 0.1};
Point(p13 + 21) = {16.1672462213969, 0.6429139373311291, 0.1};
Point(p13 + 22) = {16.19398063961657, 0.5315570712672419, 0.1};
Point(p13 + 23) = {16.23780596455599, 0.4257533774230828, 0.1};
Point(p13 + 24) = {16.29764307126724, 0.3281080938834212, 0.1};
Point(p13 + 25) = {16.37201857159512, 0.2410255715951211, 0.1};
Point(p13 + 26) = {16.45910109388342, 0.1666500712672423, 0.1};
Point(p13 + 27) = {16.55674637742308, 0.1068129645559907, 0.1};
Point(p13 + 28) = {16.66255007126724, 0.06298763961656884, 0.1};
Point(p13 + 29) = {16.77390693733113, 0.03625322139690024, 0.1};
Point(p13 + 30) = {16.888075, 0.02726800000000007, 0.1};
Point(p13 + 31) = {17.00224306266887, 0.03625322139690024, 0.1};
Point(p13 + 32) = {17.11359992873276, 0.06298763961656884, 0.1};
Point(p13 + 33) = {17.21940362257692, 0.1068129645559904, 0.1};
Point(p13 + 34) = {17.31704890611658, 0.1666500712672421, 0.1};
Point(p13 + 35) = {17.40413142840488, 0.2410255715951209, 0.1};
Point(p13 + 36) = {17.47850692873276, 0.328108093883421, 0.1};
Point(p13 + 37) = {17.53834403544401, 0.4257533774230823, 0.1};
Point(p13 + 38) = {17.58216936038343, 0.5315570712672421, 0.1};
Point(p13 + 39) = {17.6089037786031, 0.6429139373311288, 0.1};
Spline(13) = {9, p13 + 1, p13 + 2, p13 + 3, p13 + 4, p13 + 5, p13 + 6, p13 + 7, p13 + 8, p13 + 9, p13 + 10, p13 + 11, p13 + 12, p13 + 13, p13 + 14, p13 + 15, p13 + 16, p13 + 17, p13 + 18, p13 + 19, p13 + 20, p13 + 21, p13 + 22, p13 + 23, p13 + 24, p13 + 25, p13 + 26, p13 + 27, p13 + 28, p13 + 29, p13 + 30, p13 + 31, p13 + 32, p13 + 33, p13 + 34, p13 + 35, p13 + 36, p13 + 37, p13 + 38, p13 + 39, 9};
Line(14) = {10, 9};
p15 = newp;
Point(p15 + 1) = {17.6089037786031, 0.8712500626688711, 0};
Point(p15 + 2) = {17.58216936038343, 0.9826069287327579, 0};
Point(p15 + 3) = {17.53834403544401, 1.088410622576918, 0};
Point(p15 + 4) = {17.47850692873276, 1.186055906116579, 0};
Point(p15 + 5) = {17.40413142840488, 1.273138428404879, 0};
Point(p15 + 6) = {17.31704890611658, 1.347513928732758, 0};
Point(p15 + 7) = {17.21940362257692, 1.407351035444009, 0};
Point(p15 + 8) = {17.11359992873276, 1.451176360383431, 0};
Point(p15 + 9) = {17.00224306266887, 1.4779107786031, 0};
Point(p15 + 10) = {16.888075, 1.486896, 0};
Point(p15 + 11) = {16.77390693733113, 1.4779107786031, 0};
Point(p15 + 12) = {16.66255007126724, 1.451176360383431, 0};
Point(p15 + 13) = {16.55674637742308, 1.40735103544401, 0};
Point(p15 + 14) = {16.45910109388342, 1.347513928732758, 0};
Point(p15 + 15) = {16.37201857159512, 1.273138428404879, 0};
Point(p15 + 16) = {16.29764307126724, 1.186055906116579, 0};
Point(p15 + 17) = {16.23780596455599, 1.088410622576918, 0};
Point(p15 + 18) = {16.19398063961657, 0.9826069287327579, 0};
Point(p15 + 19) = {16.1672462213969, 0.8712500626688712, 0};
Point(p15 + 20) = {16.158261, 0.7570820000000001, 0};
Point(p15 + 21) = {16.1672462213969, 0.6429139373311291, 0};
Point(p15 + 22) = {16.19398063961657, 0.5315570712672419, 0};
Point(p15 + 23) = {16.23780596455599, 0.4257533774230828, 0};
Point(p15 + 24) = {16.29764307126724, 0.3281080938834212, 0};
Point(p15 + 25) = {16.37201857159512, 0.2410255715951211, 0};
Point(p15 + 26) = {16.45910109388342, 0.1666500712672423, 0};
Point(p15 + 27) = {16.55674637742308, 0.1068129645559907, 0};
Point(p15 + 28) = {16.66255007126724, 0.06298763961656884, 0};
Point(p15 + 29) = {16.77390693733113, 0.03625322139690024, 0};
Point(p15 + 30) = {16.888075, 0.02726800000000007, 0};
Point(p15 + 31) = {17.00224306266887, 0.03625322139690024, 0};
Point(p15 + 32) = {17.11359992873276, 0.06298763961656884, 0};
Point(p15 + 33) = {17.21940362257692, 0.1068129645559904, 0};
Point(p15 + 34) = {17.31704890611658, 0.1666500712672421, 0};
Point(p15 + 35) = {17.40413142840488, 0.2410255715951209, 0};
Point(p15 + 36) = {17.47850692873276, 0.328108093883421, 0};
Point(p15 + 37) = {17.53834403544401, 0.4257533774230823, 0};
Point(p15 + 38) = {17.58216936038343, 0.5315570712672421, 0};
Point(p15 + 39) = {17.6089037786031, 0.6429139373311288, 0};
Spline(15) = {10, p15 + 1, p15 + 2, p15 + 3, p15 + 4, p15 + 5, p15 + 6, p15 + 7, p15 + 8, p15 + 9, p15 + 10, p15 + 11, p15 + 12, p15 + 13, p15 + 14, p15 + 15, p15 + 16, p15 + 17, p15 + 18, p15 + 19, p15 + 20, p15 + 21, p15 + 22, p15 + 23, p15 + 24, p15 + 25, p15 + 26, p15 + 27, p15 + 28, p15 + 29, p15 + 30, p15 + 31, p15 + 32, p15 + 33, p15 + 34, p15 + 35, p15 + 36, p15 + 37, p15 + 38, p15 + 39, 10};
p16 = newp;
Point(p16 + 1) = {32.9212707972377, 0.1803186387716791, 0.1};
Point(p16 + 2) = {32.8875770284057, 0.3206632863411047, 0.1};
Point(p16 + 3) = {32.83234334591584, 0.4540091917079364, 0.1};
Point(p16 + 4) = {32.7569297863411, 0.5770729361323553, 0.1};
Point(p16 + 5) = {32.66319328180148, 0.6868242818014805, 0.1};
Point(p16 + 6) = {32.55344193613235, 0.7805607863411047, 0.1};
Point(p16 + 7) = {32.43037819170794, 0.8559743459158398, 0.1};
Point(p16 + 8) = {32.2970322863411, 0.9112080284057008, 0.1};
Point(p16 + 9) = {32.15668763877168, 0.9449017972377047, 0.1};
Point(p16 + 10) = {32.0128, 0.956226, 0.1};
Point(p16 + 11) = {31.86891236122832, 0.9449017972377046, 0.1};
Point(p16 + 12) = {31.72856771365889, 0.9112080284057008, 0.1};
Point(p16 + 13) = {31.59522180829206, 0.8559743459158399, 0.1};
Point(p16 + 14) = {31.47215806386764, 0.7805607863411048, 0.1};
Point(p16 + 15) = {31.36240671819852, 0.6868242818014806, 0.1};
Point(p16 + 16) = {31.26867021365889, 0.5770729361323554, 0.1};
Point(p16 + 17) = {31.19325665408416, 0.4540091917079365, 0.1};
Point(p16 + 18) = {31.1380229715943, 0.3206632863411049, 0.1};
Point(p16 + 19) = {31.10432920276229, 0.1803186387716793, 0.1};
Point(p16 + 20) = {31.093005, 0.03643100000000011, 0.1};
Point(p16 + 21) = {31.10432920276229, -0.1074566387716791, 0.1};
Point(p16 + 22) = {31.1380229715943, -0.247801286341105, 0.1};
Point(p16 + 23) = {31.19325665408416, -0.381147191707936, 0.1};
Point(p16 + 24) = {31.26867021365889, -0.5042109361323552, 0.1};
Point(p16 + 25) = {31.36240671819852, -0.6139622818014805, 0.1};
Point(p16 + 26) = {31.47215806386764, -0.7076987863411047, 0.1};
Point(p16 + 27) = {31.59522180829206, -0.7831123459158398, 0.1};
Point(p16 + 28) = {31.72856771365889, -0.8383460284057008, 0.1};
Point(p16 + 29) = {31.86891236122832, -0.8720397972377046, 0.1};
Point(p16 + 30) = {32.0128, -0.883364, 0.1};
Point(p16 + 31) = {32.15668763877168, -0.8720397972377048, 0.1};
Point(p16 + 32) = {32.2970322863411, -0.8383460284057008, 0.1};
Point(p16 + 33) = {32.43037819170794, -0.78311234591584, 0.1};
Point(p16 + 34) = {32.55344193613235, -0.7076987863411049, 0.1};
Point(p16 + 35) = {32.66319328180148, -0.6139622818014806, 0.1};
Point(p16 + 36) = {32.7569297863411, -0.5042109361323555, 0.1};
Point(p16 + 37) = {32.83234334591584, -0.3811471917079367, 0.1};
Point(p16 + 38) = {32.8875770284057, -0.247801286341105, 0.1};
Point(p16 + 39) = {32.9212707972377, -0.1074566387716794, 0.1};
Spline(16) = {11, p16 + 1, p16 + 2, p16 + 3, p16 + 4, p16 + 5, p16 + 6, p16 + 7, p16 + 8, p16 + 9, p16 + 10, p16 + 11, p16 + 12, p16 + 13, p16 + 14, p16 + 15, p16 + 16, p16 + 17, p16 + 18, p16 + 19, p16 + 20, p16 + 21, p16 + 22, p16 + 23, p16 + 24, p16 + 25, p16 + 26, p16 + 27, p16 + 28, p16 + 29, p16 + 30, p16 + 31, p16 + 32, p16 + 33, p16 + 34, p16 + 35, p16 + 36, p16 + 37, p16 + 38, p16 + 39, 11};
Line(17) = {12, 11};
p18 = newp;
Point(p18 + 1) = {32.9212707972377, 0.1803186387716791, 0};
Point(p18 + 2) = {32.8875770284057, 0.3206632863411047, 0};
Point(p18 + 3) = {32.83234334591584, 0.4540091917079364, 0};
Point(p18 + 4) = {32.7569297863411, 0.5770729361323553, 0};
Point(p18 + 5) = {32.66319328180148, 0.6868242818014805, 0};
Point(p18 + 6) = {32.55344193613235, 0.7805607863411047, 0};
Point(p18 + 7) = {32.43037819170794, 0.8559743459158398, 0};
Point(p18 + 8) = {32.2970322863411, 0.9112080284057008, 0};
Point(p18 + 9) = {32.15668763877168, 0.9449017972377047, 0};
Point(p18 + 10) = {32.0128, 0.956226, 0};
Point(p18 + 11) = {31.86891236122832, 0.9449017972377046, 0};
Point(p18 + 12) = {31.72856771365889, 0.9112080284057008, 0};
Point(p18 + 13) = {31.59522180829206, 0.8559743459158399, 0};
Point(p18 + 14) = {31.47215806386764, 0.7805607863411048, 0};
Point(p18 + 15) = {31.36240671819852, 0.6868242818014806, 0};
Point(p18 + 16) = {31.26867021365889, 0.5770729361323554, 0};
Point(p18 + 17) = {31.19325665408416, 0.4540091917079365, 0};
Point(p18 + 18) = {31.1380229715943, 0.3206632863411049, 0};
Point(p18 + 19) = {31.10432920276229, 0.1803186387716793, 0};
Point(p18 + 20) = {31.093005, 0.03643100000000011, 0};
Point(p18 + 21) = {31.10432920276229, -0.1074566387716791, 0};
Point(p18 + 22) = {31.1380229715943, -0.247801286341105, 0};
Point(p18 + 23) = {31.19325665408416, -0.381147191707936, 0};
Point(p18 + 24) = {31.26867021365889, -0.5042109361323552, 0};
Point(p18 + 25) = {31.36240671819852, -0.6139622818014805, 0};
Point(p18 + 26) = {31.47215806386764, -0.7076987863411047, 0};
Point(p18 + 27) = {31.59522180829206, -0.7831123459158398, 0};
Point(p18 + 28) = {31.72856771365889, -0.8383460284057008, 0};
Point(p18 + 29) = {31.86891236122832, -0.8720397972377046, 0};
Point(p18 + 30) = {32.0128, -0.883364, 0};
Point(p18 + 31) = {32.15668763877168, -0.8720397972377048, 0};
Point(p18 + 32) = {32.2970322863411, -0.8383460284057008, 0};
Point(p18 + 33) = {32.43037819170794, -0.78311234591584, 0};
Point(p18 + 34) = {32.55344193613235, -0.7076987863411049, 0};
Point(p18 + 35) = {32.66319328180148, -0.6139622818014806, 0};
Point(p18 + 36) = {32.7569297863411, -0.5042109361323555, 0};
Point(p18 + 37) = {32.83234334591584, -0.3811471917079367, 0};
Point(p18 + 38) = {32.8875770284057, -0.247801286341105, 0};
Point(p18 + 39) = {32.9212707972377, -0.1074566387716794, 0};
Spline(18) = {12, p18 + 1, p18 + 2, p18 + 3, p18 + 4, p18 + 5, p18 + 6, p18 + 7, p18 + 8, p18 + 9, p18 + 10, p18 + 11, p18 + 12, p18 + 13, p18 + 14, p18 + 15, p18 + 16, p18 + 17, p18 + 18, p18 + 19, p18 + 20, p18 + 21, p18 + 22, p18 + 23, p18 + 24, p18 + 25, p18 + 26, p18 + 27, p18 + 28, p18 + 29, p18 + 30, p18 + 31, p18 + 32, p18 + 33, p18 + 34, p18 + 35, p18 + 36, p18 + 37, p18 + 38, p18 + 39, 12};
Line(19) = {14, 13};
Line(20) = {13, 15};
Line(21) = {16, 15};
Line(22) = {14, 16};
Line(23) = {14, 17};
Line(24) = {17, 18};
Line(25) = {13, 18};
Line(26) = {15, 19};
Line(27) = {18, 19};
Line(28) = {16, 20};
Line(29) = {20, 19};
Line(30) = {17, 20};
Curve Loop(7) = {-13, -14, 15, 14};
Surface(7) = {7};
Curve Loop(8) = {13};
Plane Surface(8) = {8};
Curve Loop(9) = {15};
Plane Surface(9) = {9};
Curve Loop(10) = {-16, -17, 18, 17};
Surface(10) = {10};
Curve Loop(11) = {16};
Plane Surface(11) = {11};
Curve Loop(12) = {18};
Plane Surface(12) = {12};
Curve Loop(13) = {-19, 22, 21, -20};
Plane Surface(13) = {13};
Curve Loop(14) = {-23, 19, 25, -24};
Plane Surface(14) = {14};
Curve Loop(15) = {-20, 25, 27, -26, -16, -13};
Plane Surface(15) = {15};
Curve Loop(16) = {-28, 21, 26, -29};
Plane Surface(16) = {16};
Curve Loop(17) = {-22, 23, 30, -28, -18, -15};
Plane Surface(17) = {17};
Curve Loop(18) = {-24, 30, 29, -27};
Plane Surface(18) = {18};
Surface Loop(1) = {13, 14, 15, 16, 17, 18, 10, 7};
Volume(1) = {1};
Surface Loop(2) = {7, 8, 9};
Volume(2) = {2};
Surface Loop(3) = {10, 11, 12};
Volume(3) = {3};
Physical Surface("WALLS") = {13, 18};
Physical Surface("LOAD") = {8, 11};
Physical Surface("BORDER") = {7, 9, 10, 12, 14, 15, 16, 17};
Physical Volume("SOLID") = {1, 2, 3};
