cl__1 = 0.122026;
cl__2 = 0.07106999999999999;
cl__3 = 0.667017;
cl__4 = 0.54139;
cl__5 = 2.674637;
cl__6 = 2.764571;
Point(9) = {9.782926, 2.425848, 0.1, cl__1};
Point(10) = {9.782926, 2.425848, 0, cl__1};
Point(11) = {18.610135, -0.1651570000000002, 0.1, cl__2};
Point(12) = {18.610135, -0.1651570000000002, 0, cl__2};
Point(13) = {0.186906, -3.53569, 0.1, cl__3};
Point(14) = {0.186906, -3.53569, 0, cl__3};
Point(15) = {0.186906, 4.260135999999999, 0.1, cl__4};
Point(16) = {0.186906, 4.260135999999999, 0, cl__4};
Point(17) = {37.173027, -3.53569, 0, cl__5};
Point(18) = {37.173027, -3.53569, 0.1, cl__5};
Point(19) = {37.173027, 4.260135999999999, 0.1, cl__6};
Point(20) = {37.173027, 4.260135999999999, 0, cl__6};
p13 = newp;
Point(p13 + 1) = {9.767902623741261, 2.616738094572132, 0.1};
Point(p13 + 2) = {9.72320242034826, 2.802927841487996, 0.1};
Point(p13 + 3) = {9.649926057180002, 2.97983263125018, 0.1};
Point(p13 + 4) = {9.549877841487996, 3.143096480821404, 0.1};
Point(p13 + 5) = {9.425521292383573, 3.288699292383571, 0.1};
Point(p13 + 6) = {9.279918480821404, 3.413055841487996, 0.1};
Point(p13 + 7) = {9.116654631250181, 3.513104057180001, 0.1};
Point(p13 + 8) = {8.939749841487997, 3.586380420348259, 0.1};
Point(p13 + 9) = {8.753560094572133, 3.63108062374126, 0.1};
Point(p13 + 10) = {8.562670000000001, 3.646104, 0.1};
Point(p13 + 11) = {8.371779905427868, 3.63108062374126, 0.1};
Point(p13 + 12) = {8.185590158512005, 3.586380420348259, 0.1};
Point(p13 + 13) = {8.00868536874982, 3.513104057180001, 0.1};
Point(p13 + 14) = {7.845421519178597, 3.413055841487996, 0.1};
Point(p13 + 15) = {7.699818707616429, 3.288699292383572, 0.1};
Point(p13 + 16) = {7.575462158512005, 3.143096480821404, 0.1};
Point(p13 + 17) = {7.475413942819999, 2.97983263125018, 0.1};
Point(p13 + 18) = {7.402137579651741, 2.802927841487996, 0.1};
Point(p13 + 19) = {7.357437376258741, 2.616738094572132, 0.1};
Point(p13 + 20) = {7.342414000000001, 2.425848, 0.1};
Point(p13 + 21) = {7.357437376258741, 2.234957905427868, 0.1};
Point(p13 + 22) = {7.402137579651741, 2.048768158512003, 0.1};
Point(p13 + 23) = {7.475413942819999, 1.87186336874982, 0.1};
Point(p13 + 24) = {7.575462158512005, 1.708599519178596, 0.1};
Point(p13 + 25) = {7.699818707616429, 1.562996707616428, 0.1};
Point(p13 + 26) = {7.845421519178596, 1.438640158512004, 0.1};
Point(p13 + 27) = {8.00868536874982, 1.338591942819999, 0.1};
Point(p13 + 28) = {8.185590158512005, 1.265315579651741, 0.1};
Point(p13 + 29) = {8.371779905427868, 1.22061537625874, 0.1};
Point(p13 + 30) = {8.562670000000001, 1.205592, 0.1};
Point(p13 + 31) = {8.753560094572132, 1.220615376258739, 0.1};
Point(p13 + 32) = {8.939749841487997, 1.265315579651741, 0.1};
Point(p13 + 33) = {9.116654631250181, 1.338591942819999, 0.1};
Point(p13 + 34) = {9.279918480821404, 1.438640158512004, 0.1};
Point(p13 + 35) = {9.425521292383571, 1.562996707616428, 0.1};
Point(p13 + 36) = {9.549877841487996, 1.708599519178596, 0.1};
Point(p13 + 37) = {9.649926057180002, 1.871863368749819, 0.1};
Point(p13 + 38) = {9.72320242034826, 2.048768158512004, 0.1};
Point(p13 + 39) = {9.767902623741261, 2.234957905427867, 0.1};
Spline(13) = {9, p13 + 1, p13 + 2, p13 + 3, p13 + 4, p13 + 5, p13 + 6, p13 + 7, p13 + 8, p13 + 9, p13 + 10, p13 + 11, p13 + 12, p13 + 13, p13 + 14, p13 + 15, p13 + 16, p13 + 17, p13 + 18, p13 + 19, p13 + 20, p13 + 21, p13 + 22, p13 + 23, p13 + 24, p13 + 25, p13 + 26, p13 + 27, p13 + 28, p13 + 29, p13 + 30, p13 + 31, p13 + 32, p13 + 33, p13 + 34, p13 + 35, p13 + 36, p13 + 37, p13 + 38, p13 + 39, 9};
Line(14) = {10, 9};
p15 = newp;
Point(p15 + 1) = {9.767902623741261, 2.616738094572132, 0};
Point(p15 + 2) = {9.72320242034826, 2.802927841487996, 0};
Point(p15 + 3) = {9.649926057180002, 2.97983263125018, 0};
Point(p15 + 4) = {9.549877841487996, 3.143096480821404, 0};
Point(p15 + 5) = {9.425521292383573, 3.288699292383571, 0};
Point(p15 + 6) = {9.279918480821404, 3.413055841487996, 0};
Point(p15 + 7) = {9.116654631250181, 3.513104057180001, 0};
Point(p15 + 8) = {8.939749841487997, 3.586380420348259, 0};
Point(p15 + 9) = {8.753560094572133, 3.63108062374126, 0};
Point(p15 + 10) = {8.562670000000001, 3.646104, 0};
Point(p15 + 11) = {8.371779905427868, 3.63108062374126, 0};
Point(p15 + 12) = {8.185590158512005, 3.586380420348259, 0};
Point(p15 + 13) = {8.00868536874982, 3.513104057180001, 0};
Point(p15 + 14) = {7.845421519178597, 3.413055841487996, 0};
Point(p15 + 15) = {7.699818707616429, 3.288699292383572, 0};
Point(p15 + 16) = {7.575462158512005, 3.143096480821404, 0};
Point(p15 + 17) = {7.475413942819999, 2.97983263125018, 0};
Point(p15 + 18) = {7.402137579651741, 2.802927841487996, 0};
Point(p15 + 19) = {7.357437376258741, 2.616738094572132, 0};
Point(p15 + 20) = {7.342414000000001, 2.425848, 0};
Point(p15 + 21) = {7.357437376258741, 2.234957905427868, 0};
Point(p15 + 22) = {7.402137579651741, 2.048768158512003, 0};
Point(p15 + 23) = {7.475413942819999, 1.87186336874982, 0};
Point(p15 + 24) = {7.575462158512005, 1.708599519178596, 0};
Point(p15 + 25) = {7.699818707616429, 1.562996707616428, 0};
Point(p15 + 26) = {7.845421519178596, 1.438640158512004, 0};
Point(p15 + 27) = {8.00868536874982, 1.338591942819999, 0};
Point(p15 + 28) = {8.185590158512005, 1.265315579651741, 0};
Point(p15 + 29) = {8.371779905427868, 1.22061537625874, 0};
Point(p15 + 30) = {8.562670000000001, 1.205592, 0};
Point(p15 + 31) = {8.753560094572132, 1.220615376258739, 0};
Point(p15 + 32) = {8.939749841487997, 1.265315579651741, 0};
Point(p15 + 33) = {9.116654631250181, 1.338591942819999, 0};
Point(p15 + 34) = {9.279918480821404, 1.438640158512004, 0};
Point(p15 + 35) = {9.425521292383571, 1.562996707616428, 0};
Point(p15 + 36) = {9.549877841487996, 1.708599519178596, 0};
Point(p15 + 37) = {9.649926057180002, 1.871863368749819, 0};
Point(p15 + 38) = {9.72320242034826, 2.048768158512004, 0};
Point(p15 + 39) = {9.767902623741261, 2.234957905427867, 0};
Spline(15) = {10, p15 + 1, p15 + 2, p15 + 3, p15 + 4, p15 + 5, p15 + 6, p15 + 7, p15 + 8, p15 + 9, p15 + 10, p15 + 11, p15 + 12, p15 + 13, p15 + 14, p15 + 15, p15 + 16, p15 + 17, p15 + 18, p15 + 19, p15 + 20, p15 + 21, p15 + 22, p15 + 23, p15 + 24, p15 + 25, p15 + 26, p15 + 27, p15 + 28, p15 + 29, p15 + 30, p15 + 31, p15 + 32, p15 + 33, p15 + 34, p15 + 35, p15 + 36, p15 + 37, p15 + 38, p15 + 39, 10};
p16 = newp;
Point(p16 + 1) = {18.60138505441433, -0.05397839995804776, 0.1};
Point(p16 + 2) = {18.57535067035703, 0.05446261397025262, 0.1};
Point(p16 + 3) = {18.53267290076677, 0.1574958641268948, 0.1};
Point(p16 + 4) = {18.47440261397025, 0.2525843299452699, 0.1};
Point(p16 + 5) = {18.4019746178164, 0.337386617816404, 0.1};
Point(p16 + 6) = {18.31717232994527, 0.4098146139702525, 0.1};
Point(p16 + 7) = {18.22208386412689, 0.4680849007667698, 0.1};
Point(p16 + 8) = {18.11905061397025, 0.5107626703570308, 0.1};
Point(p16 + 9) = {18.01060960004195, 0.5367970544143268, 0.1};
Point(p16 + 10) = {17.899431, 0.545547, 0.1};
Point(p16 + 11) = {17.78825239995805, 0.5367970544143267, 0.1};
Point(p16 + 12) = {17.67981138602975, 0.5107626703570308, 0.1};
Point(p16 + 13) = {17.57677813587311, 0.4680849007667698, 0.1};
Point(p16 + 14) = {17.48168967005473, 0.4098146139702527, 0.1};
Point(p16 + 15) = {17.3968873821836, 0.3373866178164041, 0.1};
Point(p16 + 16) = {17.32445938602975, 0.2525843299452699, 0.1};
Point(p16 + 17) = {17.26618909923323, 0.1574958641268949, 0.1};
Point(p16 + 18) = {17.22351132964297, 0.0544626139702527, 0.1};
Point(p16 + 19) = {17.19747694558567, -0.05397839995804768, 0.1};
Point(p16 + 20) = {17.188727, -0.1651569999999999, 0.1};
Point(p16 + 21) = {17.19747694558567, -0.2763356000419522, 0.1};
Point(p16 + 22) = {17.22351132964297, -0.3847766139702529, 0.1};
Point(p16 + 23) = {17.26618909923323, -0.4878098641268945, 0.1};
Point(p16 + 24) = {17.32445938602975, -0.5828983299452697, 0.1};
Point(p16 + 25) = {17.3968873821836, -0.667700617816404, 0.1};
Point(p16 + 26) = {17.48168967005473, -0.7401286139702525, 0.1};
Point(p16 + 27) = {17.57677813587311, -0.7983989007667698, 0.1};
Point(p16 + 28) = {17.67981138602975, -0.8410766703570308, 0.1};
Point(p16 + 29) = {17.78825239995805, -0.8671110544143267, 0.1};
Point(p16 + 30) = {17.899431, -0.875861, 0.1};
Point(p16 + 31) = {18.01060960004195, -0.8671110544143268, 0.1};
Point(p16 + 32) = {18.11905061397025, -0.8410766703570308, 0.1};
Point(p16 + 33) = {18.22208386412689, -0.7983989007667699, 0.1};
Point(p16 + 34) = {18.31717232994527, -0.7401286139702528, 0.1};
Point(p16 + 35) = {18.4019746178164, -0.6677006178164042, 0.1};
Point(p16 + 36) = {18.47440261397025, -0.5828983299452699, 0.1};
Point(p16 + 37) = {18.53267290076677, -0.487809864126895, 0.1};
Point(p16 + 38) = {18.57535067035703, -0.3847766139702528, 0.1};
Point(p16 + 39) = {18.60138505441433, -0.2763356000419524, 0.1};
Spline(16) = {11, p16 + 1, p16 + 2, p16 + 3, p16 + 4, p16 + 5, p16 + 6, p16 + 7, p16 + 8, p16 + 9, p16 + 10, p16 + 11, p16 + 12, p16 + 13, p16 + 14, p16 + 15, p16 + 16, p16 + 17, p16 + 18, p16 + 19, p16 + 20, p16 + 21, p16 + 22, p16 + 23, p16 + 24, p16 + 25, p16 + 26, p16 + 27, p16 + 28, p16 + 29, p16 + 30, p16 + 31, p16 + 32, p16 + 33, p16 + 34, p16 + 35, p16 + 36, p16 + 37, p16 + 38, p16 + 39, 11};
Line(17) = {12, 11};
p18 = newp;
Point(p18 + 1) = {18.60138505441433, -0.05397839995804776, 0};
Point(p18 + 2) = {18.57535067035703, 0.05446261397025262, 0};
Point(p18 + 3) = {18.53267290076677, 0.1574958641268948, 0};
Point(p18 + 4) = {18.47440261397025, 0.2525843299452699, 0};
Point(p18 + 5) = {18.4019746178164, 0.337386617816404, 0};
Point(p18 + 6) = {18.31717232994527, 0.4098146139702525, 0};
Point(p18 + 7) = {18.22208386412689, 0.4680849007667698, 0};
Point(p18 + 8) = {18.11905061397025, 0.5107626703570308, 0};
Point(p18 + 9) = {18.01060960004195, 0.5367970544143268, 0};
Point(p18 + 10) = {17.899431, 0.545547, 0};
Point(p18 + 11) = {17.78825239995805, 0.5367970544143267, 0};
Point(p18 + 12) = {17.67981138602975, 0.5107626703570308, 0};
Point(p18 + 13) = {17.57677813587311, 0.4680849007667698, 0};
Point(p18 + 14) = {17.48168967005473, 0.4098146139702527, 0};
Point(p18 + 15) = {17.3968873821836, 0.3373866178164041, 0};
Point(p18 + 16) = {17.32445938602975, 0.2525843299452699, 0};
Point(p18 + 17) = {17.26618909923323, 0.1574958641268949, 0};
Point(p18 + 18) = {17.22351132964297, 0.0544626139702527, 0};
Point(p18 + 19) = {17.19747694558567, -0.05397839995804768, 0};
Point(p18 + 20) = {17.188727, -0.1651569999999999, 0};
Point(p18 + 21) = {17.19747694558567, -0.2763356000419522, 0};
Point(p18 + 22) = {17.22351132964297, -0.3847766139702529, 0};
Point(p18 + 23) = {17.26618909923323, -0.4878098641268945, 0};
Point(p18 + 24) = {17.32445938602975, -0.5828983299452697, 0};
Point(p18 + 25) = {17.3968873821836, -0.667700617816404, 0};
Point(p18 + 26) = {17.48168967005473, -0.7401286139702525, 0};
Point(p18 + 27) = {17.57677813587311, -0.7983989007667698, 0};
Point(p18 + 28) = {17.67981138602975, -0.8410766703570308, 0};
Point(p18 + 29) = {17.78825239995805, -0.8671110544143267, 0};
Point(p18 + 30) = {17.899431, -0.875861, 0};
Point(p18 + 31) = {18.01060960004195, -0.8671110544143268, 0};
Point(p18 + 32) = {18.11905061397025, -0.8410766703570308, 0};
Point(p18 + 33) = {18.22208386412689, -0.7983989007667699, 0};
Point(p18 + 34) = {18.31717232994527, -0.7401286139702528, 0};
Point(p18 + 35) = {18.4019746178164, -0.6677006178164042, 0};
Point(p18 + 36) = {18.47440261397025, -0.5828983299452699, 0};
Point(p18 + 37) = {18.53267290076677, -0.487809864126895, 0};
Point(p18 + 38) = {18.57535067035703, -0.3847766139702528, 0};
Point(p18 + 39) = {18.60138505441433, -0.2763356000419524, 0};
Spline(18) = {12, p18 + 1, p18 + 2, p18 + 3, p18 + 4, p18 + 5, p18 + 6, p18 + 7, p18 + 8, p18 + 9, p18 + 10, p18 + 11, p18 + 12, p18 + 13, p18 + 14, p18 + 15, p18 + 16, p18 + 17, p18 + 18, p18 + 19, p18 + 20, p18 + 21, p18 + 22, p18 + 23, p18 + 24, p18 + 25, p18 + 26, p18 + 27, p18 + 28, p18 + 29, p18 + 30, p18 + 31, p18 + 32, p18 + 33, p18 + 34, p18 + 35, p18 + 36, p18 + 37, p18 + 38, p18 + 39, 12};
Line(19) = {14, 13};
Line(20) = {13, 15};
Line(21) = {16, 15};
Line(22) = {14, 16};
Line(23) = {14, 17};
Line(24) = {17, 18};
Line(25) = {13, 18};
Line(26) = {15, 19};
Line(27) = {18, 19};
Line(28) = {16, 20};
Line(29) = {20, 19};
Line(30) = {17, 20};
Curve Loop(7) = {-13, -14, 15, 14};
Surface(7) = {7};
Curve Loop(8) = {13};
Plane Surface(8) = {8};
Curve Loop(9) = {15};
Plane Surface(9) = {9};
Curve Loop(10) = {-16, -17, 18, 17};
Surface(10) = {10};
Curve Loop(11) = {16};
Plane Surface(11) = {11};
Curve Loop(12) = {18};
Plane Surface(12) = {12};
Curve Loop(13) = {-19, 22, 21, -20};
Plane Surface(13) = {13};
Curve Loop(14) = {-23, 19, 25, -24};
Plane Surface(14) = {14};
Curve Loop(15) = {-20, 25, 27, -26, -16, -13};
Plane Surface(15) = {15};
Curve Loop(16) = {-28, 21, 26, -29};
Plane Surface(16) = {16};
Curve Loop(17) = {-22, 23, 30, -28, -18, -15};
Plane Surface(17) = {17};
Curve Loop(18) = {-24, 30, 29, -27};
Plane Surface(18) = {18};
Surface Loop(1) = {13, 14, 15, 16, 17, 18, 10, 7};
Volume(1) = {1};
Surface Loop(2) = {7, 8, 9};
Volume(2) = {2};
Surface Loop(3) = {10, 11, 12};
Volume(3) = {3};
Physical Surface("WALLS") = {13, 18};
Physical Surface("LOAD") = {8, 11};
Physical Surface("BORDER") = {7, 9, 10, 12, 14, 15, 16, 17};
Physical Volume("SOLID") = {1, 2, 3};
