cl__1 = 0.149511;
cl__2 = 0.09665899999999999;
cl__3 = 3.789344;
cl__4 = 3.214716;
cl__5 = 0.330256;
cl__6 = 0.634845;
Point(9) = {38.511083, -0.5146340000000004, 0.1, cl__1};
Point(10) = {38.511083, -0.5146340000000004, 0, cl__1};
Point(11) = {11.772014, 1.374662, 0.1, cl__2};
Point(12) = {11.772014, 1.374662, 0, cl__2};
Point(13) = {0.93789, -3.173862, 0.1, cl__3};
Point(14) = {0.93789, -3.173862, 0, cl__3};
Point(15) = {0.93789, 4.455795, 0.1, cl__4};
Point(16) = {0.93789, 4.455795, 0, cl__4};
Point(17) = {39.430742, -3.173862, 0, cl__5};
Point(18) = {39.430742, -3.173862, 0.1, cl__5};
Point(19) = {39.430742, 4.455795, 0.1, cl__6};
Point(20) = {39.430742, 4.455795, 0, cl__6};
p13 = newp;
Point(p13 + 1) = {38.49267576415383, -0.2807478927115606, 0.1};
Point(p13 + 2) = {38.43790730385198, -0.05262083760804992, 0.1};
Point(p13 + 3) = {38.34812620035317, 0.1641299201035947, 0.1};
Point(p13 + 4) = {38.22554316239195, 0.3641672574139904, 0.1};
Point(p13 + 5) = {38.07317659119269, 0.5425655911926943, 0.1};
Point(p13 + 6) = {37.89477825741399, 0.69493216239195, 0.1};
Point(p13 + 7) = {37.69474092010359, 0.8175152003531738, 0.1};
Point(p13 + 8) = {37.47799016239195, 0.9072963038519819, 0.1};
Point(p13 + 9) = {37.24986310728844, 0.962064764153834, 0.1};
Point(p13 + 10) = {37.015977, 0.980472, 0.1};
Point(p13 + 11) = {36.78209089271156, 0.9620647641538338, 0.1};
Point(p13 + 12) = {36.55396383760805, 0.9072963038519819, 0.1};
Point(p13 + 13) = {36.33721307989641, 0.817515200353174, 0.1};
Point(p13 + 14) = {36.13717574258601, 0.6949321623919502, 0.1};
Point(p13 + 15) = {35.95877740880731, 0.5425655911926943, 0.1};
Point(p13 + 16) = {35.80641083760805, 0.3641672574139905, 0.1};
Point(p13 + 17) = {35.68382779964683, 0.164129920103595, 0.1};
Point(p13 + 18) = {35.59404669614802, -0.05262083760804975, 0.1};
Point(p13 + 19) = {35.53927823584617, -0.2807478927115604, 0.1};
Point(p13 + 20) = {35.520871, -0.5146339999999998, 0.1};
Point(p13 + 21) = {35.53927823584617, -0.7485201072884393, 0.1};
Point(p13 + 22) = {35.59404669614802, -0.9766471623919506, 0.1};
Point(p13 + 23) = {35.68382779964683, -1.193397920103594, 0.1};
Point(p13 + 24) = {35.80641083760805, -1.39343525741399, 0.1};
Point(p13 + 25) = {35.95877740880731, -1.571833591192694, 0.1};
Point(p13 + 26) = {36.13717574258601, -1.72420016239195, 0.1};
Point(p13 + 27) = {36.3372130798964, -1.846783200353174, 0.1};
Point(p13 + 28) = {36.55396383760805, -1.936564303851982, 0.1};
Point(p13 + 29) = {36.78209089271156, -1.991332764153834, 0.1};
Point(p13 + 30) = {37.015977, -2.00974, 0.1};
Point(p13 + 31) = {37.24986310728844, -1.991332764153834, 0.1};
Point(p13 + 32) = {37.47799016239195, -1.936564303851982, 0.1};
Point(p13 + 33) = {37.69474092010359, -1.846783200353174, 0.1};
Point(p13 + 34) = {37.89477825741399, -1.724200162391951, 0.1};
Point(p13 + 35) = {38.07317659119269, -1.571833591192695, 0.1};
Point(p13 + 36) = {38.22554316239195, -1.393435257413991, 0.1};
Point(p13 + 37) = {38.34812620035317, -1.193397920103595, 0.1};
Point(p13 + 38) = {38.43790730385198, -0.9766471623919505, 0.1};
Point(p13 + 39) = {38.49267576415383, -0.7485201072884398, 0.1};
Spline(13) = {9, p13 + 1, p13 + 2, p13 + 3, p13 + 4, p13 + 5, p13 + 6, p13 + 7, p13 + 8, p13 + 9, p13 + 10, p13 + 11, p13 + 12, p13 + 13, p13 + 14, p13 + 15, p13 + 16, p13 + 17, p13 + 18, p13 + 19, p13 + 20, p13 + 21, p13 + 22, p13 + 23, p13 + 24, p13 + 25, p13 + 26, p13 + 27, p13 + 28, p13 + 29, p13 + 30, p13 + 31, p13 + 32, p13 + 33, p13 + 34, p13 + 35, p13 + 36, p13 + 37, p13 + 38, p13 + 39, 9};
Line(14) = {10, 9};
p15 = newp;
Point(p15 + 1) = {38.49267576415383, -0.2807478927115606, 0};
Point(p15 + 2) = {38.43790730385198, -0.05262083760804992, 0};
Point(p15 + 3) = {38.34812620035317, 0.1641299201035947, 0};
Point(p15 + 4) = {38.22554316239195, 0.3641672574139904, 0};
Point(p15 + 5) = {38.07317659119269, 0.5425655911926943, 0};
Point(p15 + 6) = {37.89477825741399, 0.69493216239195, 0};
Point(p15 + 7) = {37.69474092010359, 0.8175152003531738, 0};
Point(p15 + 8) = {37.47799016239195, 0.9072963038519819, 0};
Point(p15 + 9) = {37.24986310728844, 0.962064764153834, 0};
Point(p15 + 10) = {37.015977, 0.980472, 0};
Point(p15 + 11) = {36.78209089271156, 0.9620647641538338, 0};
Point(p15 + 12) = {36.55396383760805, 0.9072963038519819, 0};
Point(p15 + 13) = {36.33721307989641, 0.817515200353174, 0};
Point(p15 + 14) = {36.13717574258601, 0.6949321623919502, 0};
Point(p15 + 15) = {35.95877740880731, 0.5425655911926943, 0};
Point(p15 + 16) = {35.80641083760805, 0.3641672574139905, 0};
Point(p15 + 17) = {35.68382779964683, 0.164129920103595, 0};
Point(p15 + 18) = {35.59404669614802, -0.05262083760804975, 0};
Point(p15 + 19) = {35.53927823584617, -0.2807478927115604, 0};
Point(p15 + 20) = {35.520871, -0.5146339999999998, 0};
Point(p15 + 21) = {35.53927823584617, -0.7485201072884393, 0};
Point(p15 + 22) = {35.59404669614802, -0.9766471623919506, 0};
Point(p15 + 23) = {35.68382779964683, -1.193397920103594, 0};
Point(p15 + 24) = {35.80641083760805, -1.39343525741399, 0};
Point(p15 + 25) = {35.95877740880731, -1.571833591192694, 0};
Point(p15 + 26) = {36.13717574258601, -1.72420016239195, 0};
Point(p15 + 27) = {36.3372130798964, -1.846783200353174, 0};
Point(p15 + 28) = {36.55396383760805, -1.936564303851982, 0};
Point(p15 + 29) = {36.78209089271156, -1.991332764153834, 0};
Point(p15 + 30) = {37.015977, -2.00974, 0};
Point(p15 + 31) = {37.24986310728844, -1.991332764153834, 0};
Point(p15 + 32) = {37.47799016239195, -1.936564303851982, 0};
Point(p15 + 33) = {37.69474092010359, -1.846783200353174, 0};
Point(p15 + 34) = {37.89477825741399, -1.724200162391951, 0};
Point(p15 + 35) = {38.07317659119269, -1.571833591192695, 0};
Point(p15 + 36) = {38.22554316239195, -1.393435257413991, 0};
Point(p15 + 37) = {38.34812620035317, -1.193397920103595, 0};
Point(p15 + 38) = {38.43790730385198, -0.9766471623919505, 0};
Point(p15 + 39) = {38.49267576415383, -0.7485201072884398, 0};
Spline(15) = {10, p15 + 1, p15 + 2, p15 + 3, p15 + 4, p15 + 5, p15 + 6, p15 + 7, p15 + 8, p15 + 9, p15 + 10, p15 + 11, p15 + 12, p15 + 13, p15 + 14, p15 + 15, p15 + 16, p15 + 17, p15 + 18, p15 + 19, p15 + 20, p15 + 21, p15 + 22, p15 + 23, p15 + 24, p15 + 25, p15 + 26, p15 + 27, p15 + 28, p15 + 29, p15 + 30, p15 + 31, p15 + 32, p15 + 33, p15 + 34, p15 + 35, p15 + 36, p15 + 37, p15 + 38, p15 + 39, 10};
p16 = newp;
Point(p16 + 1) = {11.76011371007083, 1.525869520259842, 0.1};
Point(p16 + 2) = {11.72470586491618, 1.673353809541897, 0.1};
Point(p16 + 3) = {11.66666232319566, 1.813483315171749, 0.1};
Point(p16 + 4) = {11.5874123095419, 1.942807583657625, 0.1};
Point(p16 + 5) = {11.48890722230676, 2.058142222306762, 0.1};
Point(p16 + 6) = {11.37357258365762, 2.156647309541897, 0.1};
Point(p16 + 7) = {11.24424831517175, 2.235897323195662, 0.1};
Point(p16 + 8) = {11.1041188095419, 2.293940864916184, 0.1};
Point(p16 + 9) = {10.95663452025984, 2.329348710070832, 0.1};
Point(p16 + 10) = {10.805427, 2.341249, 0.1};
Point(p16 + 11) = {10.65421947974016, 2.329348710070832, 0.1};
Point(p16 + 12) = {10.5067351904581, 2.293940864916184, 0.1};
Point(p16 + 13) = {10.36660568482825, 2.235897323195662, 0.1};
Point(p16 + 14) = {10.23728141634238, 2.156647309541897, 0.1};
Point(p16 + 15) = {10.12194677769324, 2.058142222306762, 0.1};
Point(p16 + 16) = {10.0234416904581, 1.942807583657625, 0.1};
Point(p16 + 17) = {9.944191676804339, 1.813483315171749, 0.1};
Point(p16 + 18) = {9.886148135083817, 1.673353809541897, 0.1};
Point(p16 + 19) = {9.850740289929167, 1.525869520259842, 0.1};
Point(p16 + 20) = {9.838839999999999, 1.374662, 0.1};
Point(p16 + 21) = {9.850740289929167, 1.223454479740159, 0.1};
Point(p16 + 22) = {9.886148135083817, 1.075970190458102, 0.1};
Point(p16 + 23) = {9.944191676804337, 0.9358406848282512, 0.1};
Point(p16 + 24) = {10.0234416904581, 0.8065164163423755, 0.1};
Point(p16 + 25) = {10.12194677769324, 0.6911817776932387, 0.1};
Point(p16 + 26) = {10.23728141634238, 0.5926766904581029, 0.1};
Point(p16 + 27) = {10.36660568482825, 0.5134266768043382, 0.1};
Point(p16 + 28) = {10.5067351904581, 0.4553831350838166, 0.1};
Point(p16 + 29) = {10.65421947974016, 0.4199752899291678, 0.1};
Point(p16 + 30) = {10.805427, 0.4080750000000001, 0.1};
Point(p16 + 31) = {10.95663452025984, 0.4199752899291677, 0.1};
Point(p16 + 32) = {11.1041188095419, 0.4553831350838164, 0.1};
Point(p16 + 33) = {11.24424831517175, 0.513426676804338, 0.1};
Point(p16 + 34) = {11.37357258365762, 0.5926766904581027, 0.1};
Point(p16 + 35) = {11.48890722230676, 0.6911817776932385, 0.1};
Point(p16 + 36) = {11.5874123095419, 0.8065164163423753, 0.1};
Point(p16 + 37) = {11.66666232319566, 0.9358406848282506, 0.1};
Point(p16 + 38) = {11.72470586491618, 1.075970190458102, 0.1};
Point(p16 + 39) = {11.76011371007083, 1.223454479740158, 0.1};
Spline(16) = {11, p16 + 1, p16 + 2, p16 + 3, p16 + 4, p16 + 5, p16 + 6, p16 + 7, p16 + 8, p16 + 9, p16 + 10, p16 + 11, p16 + 12, p16 + 13, p16 + 14, p16 + 15, p16 + 16, p16 + 17, p16 + 18, p16 + 19, p16 + 20, p16 + 21, p16 + 22, p16 + 23, p16 + 24, p16 + 25, p16 + 26, p16 + 27, p16 + 28, p16 + 29, p16 + 30, p16 + 31, p16 + 32, p16 + 33, p16 + 34, p16 + 35, p16 + 36, p16 + 37, p16 + 38, p16 + 39, 11};
Line(17) = {12, 11};
p18 = newp;
Point(p18 + 1) = {11.76011371007083, 1.525869520259842, 0};
Point(p18 + 2) = {11.72470586491618, 1.673353809541897, 0};
Point(p18 + 3) = {11.66666232319566, 1.813483315171749, 0};
Point(p18 + 4) = {11.5874123095419, 1.942807583657625, 0};
Point(p18 + 5) = {11.48890722230676, 2.058142222306762, 0};
Point(p18 + 6) = {11.37357258365762, 2.156647309541897, 0};
Point(p18 + 7) = {11.24424831517175, 2.235897323195662, 0};
Point(p18 + 8) = {11.1041188095419, 2.293940864916184, 0};
Point(p18 + 9) = {10.95663452025984, 2.329348710070832, 0};
Point(p18 + 10) = {10.805427, 2.341249, 0};
Point(p18 + 11) = {10.65421947974016, 2.329348710070832, 0};
Point(p18 + 12) = {10.5067351904581, 2.293940864916184, 0};
Point(p18 + 13) = {10.36660568482825, 2.235897323195662, 0};
Point(p18 + 14) = {10.23728141634238, 2.156647309541897, 0};
Point(p18 + 15) = {10.12194677769324, 2.058142222306762, 0};
Point(p18 + 16) = {10.0234416904581, 1.942807583657625, 0};
Point(p18 + 17) = {9.944191676804339, 1.813483315171749, 0};
Point(p18 + 18) = {9.886148135083817, 1.673353809541897, 0};
Point(p18 + 19) = {9.850740289929167, 1.525869520259842, 0};
Point(p18 + 20) = {9.838839999999999, 1.374662, 0};
Point(p18 + 21) = {9.850740289929167, 1.223454479740159, 0};
Point(p18 + 22) = {9.886148135083817, 1.075970190458102, 0};
Point(p18 + 23) = {9.944191676804337, 0.9358406848282512, 0};
Point(p18 + 24) = {10.0234416904581, 0.8065164163423755, 0};
Point(p18 + 25) = {10.12194677769324, 0.6911817776932387, 0};
Point(p18 + 26) = {10.23728141634238, 0.5926766904581029, 0};
Point(p18 + 27) = {10.36660568482825, 0.5134266768043382, 0};
Point(p18 + 28) = {10.5067351904581, 0.4553831350838166, 0};
Point(p18 + 29) = {10.65421947974016, 0.4199752899291678, 0};
Point(p18 + 30) = {10.805427, 0.4080750000000001, 0};
Point(p18 + 31) = {10.95663452025984, 0.4199752899291677, 0};
Point(p18 + 32) = {11.1041188095419, 0.4553831350838164, 0};
Point(p18 + 33) = {11.24424831517175, 0.513426676804338, 0};
Point(p18 + 34) = {11.37357258365762, 0.5926766904581027, 0};
Point(p18 + 35) = {11.48890722230676, 0.6911817776932385, 0};
Point(p18 + 36) = {11.5874123095419, 0.8065164163423753, 0};
Point(p18 + 37) = {11.66666232319566, 0.9358406848282506, 0};
Point(p18 + 38) = {11.72470586491618, 1.075970190458102, 0};
Point(p18 + 39) = {11.76011371007083, 1.223454479740158, 0};
Spline(18) = {12, p18 + 1, p18 + 2, p18 + 3, p18 + 4, p18 + 5, p18 + 6, p18 + 7, p18 + 8, p18 + 9, p18 + 10, p18 + 11, p18 + 12, p18 + 13, p18 + 14, p18 + 15, p18 + 16, p18 + 17, p18 + 18, p18 + 19, p18 + 20, p18 + 21, p18 + 22, p18 + 23, p18 + 24, p18 + 25, p18 + 26, p18 + 27, p18 + 28, p18 + 29, p18 + 30, p18 + 31, p18 + 32, p18 + 33, p18 + 34, p18 + 35, p18 + 36, p18 + 37, p18 + 38, p18 + 39, 12};
Line(19) = {14, 13};
Line(20) = {13, 15};
Line(21) = {16, 15};
Line(22) = {14, 16};
Line(23) = {14, 17};
Line(24) = {17, 18};
Line(25) = {13, 18};
Line(26) = {15, 19};
Line(27) = {18, 19};
Line(28) = {16, 20};
Line(29) = {20, 19};
Line(30) = {17, 20};
Curve Loop(7) = {-13, -14, 15, 14};
Surface(7) = {7};
Curve Loop(8) = {13};
Plane Surface(8) = {8};
Curve Loop(9) = {15};
Plane Surface(9) = {9};
Curve Loop(10) = {-16, -17, 18, 17};
Surface(10) = {10};
Curve Loop(11) = {16};
Plane Surface(11) = {11};
Curve Loop(12) = {18};
Plane Surface(12) = {12};
Curve Loop(13) = {-19, 22, 21, -20};
Plane Surface(13) = {13};
Curve Loop(14) = {-23, 19, 25, -24};
Plane Surface(14) = {14};
Curve Loop(15) = {-20, 25, 27, -26, -13, -16};
Plane Surface(15) = {15};
Curve Loop(16) = {-28, 21, 26, -29};
Plane Surface(16) = {16};
Curve Loop(17) = {-22, 23, 30, -28, -15, -18};
Plane Surface(17) = {17};
Curve Loop(18) = {-24, 30, 29, -27};
Plane Surface(18) = {18};
Surface Loop(1) = {13, 14, 15, 16, 17, 18, 7, 10};
Volume(1) = {1};
Surface Loop(2) = {7, 8, 9};
Volume(2) = {2};
Surface Loop(3) = {10, 11, 12};
Volume(3) = {3};
Physical Surface("WALLS") = {13, 18};
Physical Surface("LOAD") = {8, 11};
Physical Surface("BORDER") = {7, 9, 10, 12, 14, 15, 16, 17};
Physical Volume("SOLID") = {1, 2, 3};
