cl__1 = 0.081271;
cl__2 = 0.101472;
cl__3 = 1.522504;
cl__4 = 1.437323;
cl__5 = 0.850561;
cl__6 = 0.870486;
Point(9) = {13.469116, 0.6136689999999998, 0.1, cl__1};
Point(10) = {13.469116, 0.6136689999999998, 0, cl__1};
Point(11) = {30.511713, -0.01370100000000025, 0.1, cl__2};
Point(12) = {30.511713, -0.01370100000000025, 0, cl__2};
Point(13) = {0.615377, -3.701354, 0.1, cl__3};
Point(14) = {0.615377, -3.701354, 0, cl__3};
Point(15) = {0.615377, 4.197895000000001, 0.1, cl__4};
Point(16) = {0.615377, 4.197895000000001, 0, cl__4};
Point(17) = {38.653075, -3.701354, 0, cl__5};
Point(18) = {38.653075, -3.701354, 0.1, cl__5};
Point(19) = {38.653075, 4.197895000000001, 0.1, cl__6};
Point(20) = {38.653075, 4.197895000000001, 0, cl__6};
p13 = newp;
Point(p13 + 1) = {13.45911012972678, 0.7408056362551713, 0.1};
Point(p13 + 2) = {13.42933889664082, 0.8648117465834354, 0.1};
Point(p13 + 3) = {13.38053536730575, 0.9826338889958257, 0.1};
Point(p13 + 4) = {13.31390124658344, 1.091370891316877, 0.1};
Point(p13 + 5) = {13.23107728767203, 1.188345287672025, 0.1};
Point(p13 + 6) = {13.13410289131688, 1.271169246583435, 0.1};
Point(p13 + 7) = {13.02536588899583, 1.337803367305749, 0.1};
Point(p13 + 8) = {12.90754374658344, 1.386606896640816, 0.1};
Point(p13 + 9) = {12.78353763625517, 1.416378129726777, 0.1};
Point(p13 + 10) = {12.656401, 1.426384, 0.1};
Point(p13 + 11) = {12.52926436374483, 1.416378129726777, 0.1};
Point(p13 + 12) = {12.40525825341657, 1.386606896640816, 0.1};
Point(p13 + 13) = {12.28743611100417, 1.337803367305749, 0.1};
Point(p13 + 14) = {12.17869910868312, 1.271169246583435, 0.1};
Point(p13 + 15) = {12.08172471232798, 1.188345287672025, 0.1};
Point(p13 + 16) = {11.99890075341657, 1.091370891316877, 0.1};
Point(p13 + 17) = {11.93226663269425, 0.9826338889958258, 0.1};
Point(p13 + 18) = {11.88346310335919, 0.8648117465834355, 0.1};
Point(p13 + 19) = {11.85369187027322, 0.7408056362551714, 0.1};
Point(p13 + 20) = {11.843686, 0.6136690000000001, 0.1};
Point(p13 + 21) = {11.85369187027322, 0.4865323637448289, 0.1};
Point(p13 + 22) = {11.88346310335919, 0.3625262534165644, 0.1};
Point(p13 + 23) = {11.93226663269425, 0.2447041110041747, 0.1};
Point(p13 + 24) = {11.99890075341657, 0.1359671086831228, 0.1};
Point(p13 + 25) = {12.08172471232798, 0.03899271232797508, 0.1};
Point(p13 + 26) = {12.17869910868312, -0.04383124658343529, 0.1};
Point(p13 + 27) = {12.28743611100417, -0.1104653673057493, 0.1};
Point(p13 + 28) = {12.40525825341657, -0.1592688966408157, 0.1};
Point(p13 + 29) = {12.52926436374483, -0.1890401297267772, 0.1};
Point(p13 + 30) = {12.656401, -0.1990459999999999, 0.1};
Point(p13 + 31) = {12.78353763625517, -0.1890401297267773, 0.1};
Point(p13 + 32) = {12.90754374658344, -0.1592688966408158, 0.1};
Point(p13 + 33) = {13.02536588899583, -0.1104653673057494, 0.1};
Point(p13 + 34) = {13.13410289131688, -0.04383124658343551, 0.1};
Point(p13 + 35) = {13.23107728767203, 0.03899271232797497, 0.1};
Point(p13 + 36) = {13.31390124658344, 0.1359671086831226, 0.1};
Point(p13 + 37) = {13.38053536730575, 0.2447041110041741, 0.1};
Point(p13 + 38) = {13.42933889664082, 0.3625262534165645, 0.1};
Point(p13 + 39) = {13.45911012972678, 0.4865323637448286, 0.1};
Spline(13) = {9, p13 + 1, p13 + 2, p13 + 3, p13 + 4, p13 + 5, p13 + 6, p13 + 7, p13 + 8, p13 + 9, p13 + 10, p13 + 11, p13 + 12, p13 + 13, p13 + 14, p13 + 15, p13 + 16, p13 + 17, p13 + 18, p13 + 19, p13 + 20, p13 + 21, p13 + 22, p13 + 23, p13 + 24, p13 + 25, p13 + 26, p13 + 27, p13 + 28, p13 + 29, p13 + 30, p13 + 31, p13 + 32, p13 + 33, p13 + 34, p13 + 35, p13 + 36, p13 + 37, p13 + 38, p13 + 39, 9};
Line(14) = {10, 9};
p15 = newp;
Point(p15 + 1) = {13.45911012972678, 0.7408056362551713, 0};
Point(p15 + 2) = {13.42933889664082, 0.8648117465834354, 0};
Point(p15 + 3) = {13.38053536730575, 0.9826338889958257, 0};
Point(p15 + 4) = {13.31390124658344, 1.091370891316877, 0};
Point(p15 + 5) = {13.23107728767203, 1.188345287672025, 0};
Point(p15 + 6) = {13.13410289131688, 1.271169246583435, 0};
Point(p15 + 7) = {13.02536588899583, 1.337803367305749, 0};
Point(p15 + 8) = {12.90754374658344, 1.386606896640816, 0};
Point(p15 + 9) = {12.78353763625517, 1.416378129726777, 0};
Point(p15 + 10) = {12.656401, 1.426384, 0};
Point(p15 + 11) = {12.52926436374483, 1.416378129726777, 0};
Point(p15 + 12) = {12.40525825341657, 1.386606896640816, 0};
Point(p15 + 13) = {12.28743611100417, 1.337803367305749, 0};
Point(p15 + 14) = {12.17869910868312, 1.271169246583435, 0};
Point(p15 + 15) = {12.08172471232798, 1.188345287672025, 0};
Point(p15 + 16) = {11.99890075341657, 1.091370891316877, 0};
Point(p15 + 17) = {11.93226663269425, 0.9826338889958258, 0};
Point(p15 + 18) = {11.88346310335919, 0.8648117465834355, 0};
Point(p15 + 19) = {11.85369187027322, 0.7408056362551714, 0};
Point(p15 + 20) = {11.843686, 0.6136690000000001, 0};
Point(p15 + 21) = {11.85369187027322, 0.4865323637448289, 0};
Point(p15 + 22) = {11.88346310335919, 0.3625262534165644, 0};
Point(p15 + 23) = {11.93226663269425, 0.2447041110041747, 0};
Point(p15 + 24) = {11.99890075341657, 0.1359671086831228, 0};
Point(p15 + 25) = {12.08172471232798, 0.03899271232797508, 0};
Point(p15 + 26) = {12.17869910868312, -0.04383124658343529, 0};
Point(p15 + 27) = {12.28743611100417, -0.1104653673057493, 0};
Point(p15 + 28) = {12.40525825341657, -0.1592688966408157, 0};
Point(p15 + 29) = {12.52926436374483, -0.1890401297267772, 0};
Point(p15 + 30) = {12.656401, -0.1990459999999999, 0};
Point(p15 + 31) = {12.78353763625517, -0.1890401297267773, 0};
Point(p15 + 32) = {12.90754374658344, -0.1592688966408158, 0};
Point(p15 + 33) = {13.02536588899583, -0.1104653673057494, 0};
Point(p15 + 34) = {13.13410289131688, -0.04383124658343551, 0};
Point(p15 + 35) = {13.23107728767203, 0.03899271232797497, 0};
Point(p15 + 36) = {13.31390124658344, 0.1359671086831226, 0};
Point(p15 + 37) = {13.38053536730575, 0.2447041110041741, 0};
Point(p15 + 38) = {13.42933889664082, 0.3625262534165645, 0};
Point(p15 + 39) = {13.45911012972678, 0.4865323637448286, 0};
Spline(15) = {10, p15 + 1, p15 + 2, p15 + 3, p15 + 4, p15 + 5, p15 + 6, p15 + 7, p15 + 8, p15 + 9, p15 + 10, p15 + 11, p15 + 12, p15 + 13, p15 + 14, p15 + 15, p15 + 16, p15 + 17, p15 + 18, p15 + 19, p15 + 20, p15 + 21, p15 + 22, p15 + 23, p15 + 24, p15 + 25, p15 + 26, p15 + 27, p15 + 28, p15 + 29, p15 + 30, p15 + 31, p15 + 32, p15 + 33, p15 + 34, p15 + 35, p15 + 36, p15 + 37, p15 + 38, p15 + 39, 10};
p16 = newp;
Point(p16 + 1) = {30.4992200514104, 0.1450369625379483, 0.1};
Point(p16 + 2) = {30.4620488234976, 0.2998662696171185, 0.1};
Point(p16 + 3) = {30.40111459525705, 0.4469745098482116, 0.1};
Point(p16 + 4) = {30.31791776961712, 0.5827393901324799, 0.1};
Point(p16 + 5) = {30.21450692853952, 0.7038179285395195, 0.1};
Point(p16 + 6) = {30.09342839013248, 0.8072287696171185, 0.1};
Point(p16 + 7) = {29.95766350984821, 0.8904255952570417, 0.1};
Point(p16 + 8) = {29.81055526961712, 0.9513598234975998, 0.1};
Point(p16 + 9) = {29.65572596253795, 0.9885310514104013, 0.1};
Point(p16 + 10) = {29.496988, 1.001024, 0.1};
Point(p16 + 11) = {29.33825003746205, 0.9885310514104011, 0.1};
Point(p16 + 12) = {29.18342073038288, 0.9513598234976, 0.1};
Point(p16 + 13) = {29.03631249015179, 0.8904255952570418, 0.1};
Point(p16 + 14) = {28.90054760986752, 0.8072287696171186, 0.1};
Point(p16 + 15) = {28.77946907146048, 0.7038179285395196, 0.1};
Point(p16 + 16) = {28.67605823038288, 0.58273939013248, 0.1};
Point(p16 + 17) = {28.59286140474296, 0.4469745098482117, 0.1};
Point(p16 + 18) = {28.5319271765024, 0.2998662696171186, 0.1};
Point(p16 + 19) = {28.4947559485896, 0.1450369625379484, 0.1};
Point(p16 + 20) = {28.482263, -0.01370099999999987, 0.1};
Point(p16 + 21) = {28.4947559485896, -0.1724389625379482, 0.1};
Point(p16 + 22) = {28.5319271765024, -0.3272682696171189, 0.1};
Point(p16 + 23) = {28.59286140474296, -0.4743765098482112, 0.1};
Point(p16 + 24) = {28.67605823038288, -0.6101413901324797, 0.1};
Point(p16 + 25) = {28.77946907146048, -0.7312199285395194, 0.1};
Point(p16 + 26) = {28.90054760986752, -0.8346307696171185, 0.1};
Point(p16 + 27) = {29.03631249015179, -0.9178275952570416, 0.1};
Point(p16 + 28) = {29.18342073038288, -0.9787618234975998, 0.1};
Point(p16 + 29) = {29.33825003746205, -1.015933051410401, 0.1};
Point(p16 + 30) = {29.496988, -1.028426, 0.1};
Point(p16 + 31) = {29.65572596253795, -1.015933051410401, 0.1};
Point(p16 + 32) = {29.81055526961712, -0.9787618234975999, 0.1};
Point(p16 + 33) = {29.95766350984821, -0.9178275952570418, 0.1};
Point(p16 + 34) = {30.09342839013248, -0.8346307696171187, 0.1};
Point(p16 + 35) = {30.21450692853952, -0.7312199285395197, 0.1};
Point(p16 + 36) = {30.31791776961712, -0.6101413901324799, 0.1};
Point(p16 + 37) = {30.40111459525704, -0.4743765098482119, 0.1};
Point(p16 + 38) = {30.4620488234976, -0.3272682696171187, 0.1};
Point(p16 + 39) = {30.4992200514104, -0.1724389625379485, 0.1};
Spline(16) = {11, p16 + 1, p16 + 2, p16 + 3, p16 + 4, p16 + 5, p16 + 6, p16 + 7, p16 + 8, p16 + 9, p16 + 10, p16 + 11, p16 + 12, p16 + 13, p16 + 14, p16 + 15, p16 + 16, p16 + 17, p16 + 18, p16 + 19, p16 + 20, p16 + 21, p16 + 22, p16 + 23, p16 + 24, p16 + 25, p16 + 26, p16 + 27, p16 + 28, p16 + 29, p16 + 30, p16 + 31, p16 + 32, p16 + 33, p16 + 34, p16 + 35, p16 + 36, p16 + 37, p16 + 38, p16 + 39, 11};
Line(17) = {12, 11};
p18 = newp;
Point(p18 + 1) = {30.4992200514104, 0.1450369625379483, 0};
Point(p18 + 2) = {30.4620488234976, 0.2998662696171185, 0};
Point(p18 + 3) = {30.40111459525705, 0.4469745098482116, 0};
Point(p18 + 4) = {30.31791776961712, 0.5827393901324799, 0};
Point(p18 + 5) = {30.21450692853952, 0.7038179285395195, 0};
Point(p18 + 6) = {30.09342839013248, 0.8072287696171185, 0};
Point(p18 + 7) = {29.95766350984821, 0.8904255952570417, 0};
Point(p18 + 8) = {29.81055526961712, 0.9513598234975998, 0};
Point(p18 + 9) = {29.65572596253795, 0.9885310514104013, 0};
Point(p18 + 10) = {29.496988, 1.001024, 0};
Point(p18 + 11) = {29.33825003746205, 0.9885310514104011, 0};
Point(p18 + 12) = {29.18342073038288, 0.9513598234976, 0};
Point(p18 + 13) = {29.03631249015179, 0.8904255952570418, 0};
Point(p18 + 14) = {28.90054760986752, 0.8072287696171186, 0};
Point(p18 + 15) = {28.77946907146048, 0.7038179285395196, 0};
Point(p18 + 16) = {28.67605823038288, 0.58273939013248, 0};
Point(p18 + 17) = {28.59286140474296, 0.4469745098482117, 0};
Point(p18 + 18) = {28.5319271765024, 0.2998662696171186, 0};
Point(p18 + 19) = {28.4947559485896, 0.1450369625379484, 0};
Point(p18 + 20) = {28.482263, -0.01370099999999987, 0};
Point(p18 + 21) = {28.4947559485896, -0.1724389625379482, 0};
Point(p18 + 22) = {28.5319271765024, -0.3272682696171189, 0};
Point(p18 + 23) = {28.59286140474296, -0.4743765098482112, 0};
Point(p18 + 24) = {28.67605823038288, -0.6101413901324797, 0};
Point(p18 + 25) = {28.77946907146048, -0.7312199285395194, 0};
Point(p18 + 26) = {28.90054760986752, -0.8346307696171185, 0};
Point(p18 + 27) = {29.03631249015179, -0.9178275952570416, 0};
Point(p18 + 28) = {29.18342073038288, -0.9787618234975998, 0};
Point(p18 + 29) = {29.33825003746205, -1.015933051410401, 0};
Point(p18 + 30) = {29.496988, -1.028426, 0};
Point(p18 + 31) = {29.65572596253795, -1.015933051410401, 0};
Point(p18 + 32) = {29.81055526961712, -0.9787618234975999, 0};
Point(p18 + 33) = {29.95766350984821, -0.9178275952570418, 0};
Point(p18 + 34) = {30.09342839013248, -0.8346307696171187, 0};
Point(p18 + 35) = {30.21450692853952, -0.7312199285395197, 0};
Point(p18 + 36) = {30.31791776961712, -0.6101413901324799, 0};
Point(p18 + 37) = {30.40111459525704, -0.4743765098482119, 0};
Point(p18 + 38) = {30.4620488234976, -0.3272682696171187, 0};
Point(p18 + 39) = {30.4992200514104, -0.1724389625379485, 0};
Spline(18) = {12, p18 + 1, p18 + 2, p18 + 3, p18 + 4, p18 + 5, p18 + 6, p18 + 7, p18 + 8, p18 + 9, p18 + 10, p18 + 11, p18 + 12, p18 + 13, p18 + 14, p18 + 15, p18 + 16, p18 + 17, p18 + 18, p18 + 19, p18 + 20, p18 + 21, p18 + 22, p18 + 23, p18 + 24, p18 + 25, p18 + 26, p18 + 27, p18 + 28, p18 + 29, p18 + 30, p18 + 31, p18 + 32, p18 + 33, p18 + 34, p18 + 35, p18 + 36, p18 + 37, p18 + 38, p18 + 39, 12};
Line(19) = {14, 13};
Line(20) = {13, 15};
Line(21) = {16, 15};
Line(22) = {14, 16};
Line(23) = {14, 17};
Line(24) = {17, 18};
Line(25) = {13, 18};
Line(26) = {15, 19};
Line(27) = {18, 19};
Line(28) = {16, 20};
Line(29) = {20, 19};
Line(30) = {17, 20};
Curve Loop(7) = {-13, -14, 15, 14};
Surface(7) = {7};
Curve Loop(8) = {13};
Plane Surface(8) = {8};
Curve Loop(9) = {15};
Plane Surface(9) = {9};
Curve Loop(10) = {-16, -17, 18, 17};
Surface(10) = {10};
Curve Loop(11) = {16};
Plane Surface(11) = {11};
Curve Loop(12) = {18};
Plane Surface(12) = {12};
Curve Loop(13) = {-19, 22, 21, -20};
Plane Surface(13) = {13};
Curve Loop(14) = {-23, 19, 25, -24};
Plane Surface(14) = {14};
Curve Loop(15) = {-20, 25, 27, -26, -16, -13};
Plane Surface(15) = {15};
Curve Loop(16) = {-28, 21, 26, -29};
Plane Surface(16) = {16};
Curve Loop(17) = {-22, 23, 30, -28, -18, -15};
Plane Surface(17) = {17};
Curve Loop(18) = {-24, 30, 29, -27};
Plane Surface(18) = {18};
Surface Loop(1) = {13, 14, 15, 16, 17, 18, 10, 7};
Volume(1) = {1};
Surface Loop(2) = {7, 8, 9};
Volume(2) = {2};
Surface Loop(3) = {10, 11, 12};
Volume(3) = {3};
Physical Surface("WALLS") = {13, 18};
Physical Surface("LOAD") = {8, 11};
Physical Surface("BORDER") = {7, 9, 10, 12, 14, 15, 16, 17};
Physical Volume("SOLID") = {1, 2, 3};
