cl__1 = 0.135177;
cl__2 = 0.088001;
cl__3 = 4.074683;
cl__4 = 3.949984;
cl__5 = 0.503371;
cl__6 = 0.318653;
Point(9) = {26.668603, 1.181597, 0.1, cl__1};
Point(10) = {26.668603, 1.181597, 0, cl__1};
Point(11) = {32.031221, 2.833737999999999, 0.1, cl__2};
Point(12) = {32.031221, 2.833737999999999, 0, cl__2};
Point(13) = {0.722444, -3.532973, 0.1, cl__3};
Point(14) = {0.722444, -3.532973, 0, cl__3};
Point(15) = {0.722444, 4.35293, 0.1, cl__4};
Point(16) = {0.722444, 4.35293, 0, cl__4};
Point(17) = {36.547813, -3.532973, 0, cl__5};
Point(18) = {36.547813, -3.532973, 0.1, cl__5};
Point(19) = {36.547813, 4.35293, 0.1, cl__6};
Point(20) = {36.547813, 4.35293, 0, cl__6};
p13 = newp;
Point(p13 + 1) = {26.65196052972459, 1.393059634635108, 0.1};
Point(p13 + 2) = {26.60244291174972, 1.599315357401251, 0.1};
Point(p13 + 3) = {26.52126943416949, 1.795285467880428, 0.1};
Point(p13 + 4) = {26.41043885740125, 1.976144531565135, 0.1};
Point(p13 + 5) = {26.27268019807063, 2.137439198070633, 0.1};
Point(p13 + 6) = {26.11138553156514, 2.275197857401251, 0.1};
Point(p13 + 7) = {25.93052646788043, 2.386028434169489, 0.1};
Point(p13 + 8) = {25.73455635740125, 2.467201911749719, 0.1};
Point(p13 + 9) = {25.52830063463511, 2.516719529724587, 0.1};
Point(p13 + 10) = {25.316838, 2.533362, 0.1};
Point(p13 + 11) = {25.10537536536489, 2.516719529724586, 0.1};
Point(p13 + 12) = {24.89911964259875, 2.467201911749719, 0.1};
Point(p13 + 13) = {24.70314953211957, 2.386028434169489, 0.1};
Point(p13 + 14) = {24.52229046843486, 2.275197857401251, 0.1};
Point(p13 + 15) = {24.36099580192937, 2.137439198070633, 0.1};
Point(p13 + 16) = {24.22323714259875, 1.976144531565135, 0.1};
Point(p13 + 17) = {24.11240656583051, 1.795285467880429, 0.1};
Point(p13 + 18) = {24.03123308825028, 1.599315357401251, 0.1};
Point(p13 + 19) = {23.98171547027541, 1.393059634635108, 0.1};
Point(p13 + 20) = {23.965073, 1.181597, 0.1};
Point(p13 + 21) = {23.98171547027541, 0.9701343653648924, 0.1};
Point(p13 + 22) = {24.03123308825028, 0.7638786425987487, 0.1};
Point(p13 + 23) = {24.11240656583051, 0.5679085321195722, 0.1};
Point(p13 + 24) = {24.22323714259875, 0.3870494684348651, 0.1};
Point(p13 + 25) = {24.36099580192937, 0.2257548019293666, 0.1};
Point(p13 + 26) = {24.52229046843486, 0.08799614259874922, 0.1};
Point(p13 + 27) = {24.70314953211957, -0.02283443416948905, 0.1};
Point(p13 + 28) = {24.89911964259875, -0.1040079117497184, 0.1};
Point(p13 + 29) = {25.10537536536489, -0.1535255297245863, 0.1};
Point(p13 + 30) = {25.316838, -0.1701680000000001, 0.1};
Point(p13 + 31) = {25.52830063463511, -0.1535255297245866, 0.1};
Point(p13 + 32) = {25.73455635740125, -0.1040079117497184, 0.1};
Point(p13 + 33) = {25.93052646788043, -0.02283443416948927, 0.1};
Point(p13 + 34) = {26.11138553156513, 0.08799614259874899, 0.1};
Point(p13 + 35) = {26.27268019807063, 0.2257548019293663, 0.1};
Point(p13 + 36) = {26.41043885740125, 0.3870494684348649, 0.1};
Point(p13 + 37) = {26.52126943416949, 0.5679085321195713, 0.1};
Point(p13 + 38) = {26.60244291174972, 0.7638786425987489, 0.1};
Point(p13 + 39) = {26.65196052972459, 0.9701343653648919, 0.1};
Spline(13) = {9, p13 + 1, p13 + 2, p13 + 3, p13 + 4, p13 + 5, p13 + 6, p13 + 7, p13 + 8, p13 + 9, p13 + 10, p13 + 11, p13 + 12, p13 + 13, p13 + 14, p13 + 15, p13 + 16, p13 + 17, p13 + 18, p13 + 19, p13 + 20, p13 + 21, p13 + 22, p13 + 23, p13 + 24, p13 + 25, p13 + 26, p13 + 27, p13 + 28, p13 + 29, p13 + 30, p13 + 31, p13 + 32, p13 + 33, p13 + 34, p13 + 35, p13 + 36, p13 + 37, p13 + 38, p13 + 39, 9};
Line(14) = {10, 9};
p15 = newp;
Point(p15 + 1) = {26.65196052972459, 1.393059634635108, 0};
Point(p15 + 2) = {26.60244291174972, 1.599315357401251, 0};
Point(p15 + 3) = {26.52126943416949, 1.795285467880428, 0};
Point(p15 + 4) = {26.41043885740125, 1.976144531565135, 0};
Point(p15 + 5) = {26.27268019807063, 2.137439198070633, 0};
Point(p15 + 6) = {26.11138553156514, 2.275197857401251, 0};
Point(p15 + 7) = {25.93052646788043, 2.386028434169489, 0};
Point(p15 + 8) = {25.73455635740125, 2.467201911749719, 0};
Point(p15 + 9) = {25.52830063463511, 2.516719529724587, 0};
Point(p15 + 10) = {25.316838, 2.533362, 0};
Point(p15 + 11) = {25.10537536536489, 2.516719529724586, 0};
Point(p15 + 12) = {24.89911964259875, 2.467201911749719, 0};
Point(p15 + 13) = {24.70314953211957, 2.386028434169489, 0};
Point(p15 + 14) = {24.52229046843486, 2.275197857401251, 0};
Point(p15 + 15) = {24.36099580192937, 2.137439198070633, 0};
Point(p15 + 16) = {24.22323714259875, 1.976144531565135, 0};
Point(p15 + 17) = {24.11240656583051, 1.795285467880429, 0};
Point(p15 + 18) = {24.03123308825028, 1.599315357401251, 0};
Point(p15 + 19) = {23.98171547027541, 1.393059634635108, 0};
Point(p15 + 20) = {23.965073, 1.181597, 0};
Point(p15 + 21) = {23.98171547027541, 0.9701343653648924, 0};
Point(p15 + 22) = {24.03123308825028, 0.7638786425987487, 0};
Point(p15 + 23) = {24.11240656583051, 0.5679085321195722, 0};
Point(p15 + 24) = {24.22323714259875, 0.3870494684348651, 0};
Point(p15 + 25) = {24.36099580192937, 0.2257548019293666, 0};
Point(p15 + 26) = {24.52229046843486, 0.08799614259874922, 0};
Point(p15 + 27) = {24.70314953211957, -0.02283443416948905, 0};
Point(p15 + 28) = {24.89911964259875, -0.1040079117497184, 0};
Point(p15 + 29) = {25.10537536536489, -0.1535255297245863, 0};
Point(p15 + 30) = {25.316838, -0.1701680000000001, 0};
Point(p15 + 31) = {25.52830063463511, -0.1535255297245866, 0};
Point(p15 + 32) = {25.73455635740125, -0.1040079117497184, 0};
Point(p15 + 33) = {25.93052646788043, -0.02283443416948927, 0};
Point(p15 + 34) = {26.11138553156513, 0.08799614259874899, 0};
Point(p15 + 35) = {26.27268019807063, 0.2257548019293663, 0};
Point(p15 + 36) = {26.41043885740125, 0.3870494684348649, 0};
Point(p15 + 37) = {26.52126943416949, 0.5679085321195713, 0};
Point(p15 + 38) = {26.60244291174972, 0.7638786425987489, 0};
Point(p15 + 39) = {26.65196052972459, 0.9701343653648919, 0};
Spline(15) = {10, p15 + 1, p15 + 2, p15 + 3, p15 + 4, p15 + 5, p15 + 6, p15 + 7, p15 + 8, p15 + 9, p15 + 10, p15 + 11, p15 + 12, p15 + 13, p15 + 14, p15 + 15, p15 + 16, p15 + 17, p15 + 18, p15 + 19, p15 + 20, p15 + 21, p15 + 22, p15 + 23, p15 + 24, p15 + 25, p15 + 26, p15 + 27, p15 + 28, p15 + 29, p15 + 30, p15 + 31, p15 + 32, p15 + 33, p15 + 34, p15 + 35, p15 + 36, p15 + 37, p15 + 38, p15 + 39, 10};
p16 = newp;
Point(p16 + 1) = {32.02038662891879, 2.971401737145588, 0.1};
Point(p16 + 2) = {31.98815029384838, 3.105675736202903, 0.1};
Point(p16 + 3) = {31.93530576034448, 3.233253725685299, 0.1};
Point(p16 + 4) = {31.86315423620291, 3.350994312084647, 0.1};
Point(p16 + 5) = {31.77347233140519, 3.455998331405192, 0.1};
Point(p16 + 6) = {31.66846831208465, 3.545680236202903, 0.1};
Point(p16 + 7) = {31.5507277256853, 3.617831760344481, 0.1};
Point(p16 + 8) = {31.42314973620291, 3.670676293848381, 0.1};
Point(p16 + 9) = {31.28887573714559, 3.702912628918786, 0.1};
Point(p16 + 10) = {31.151212, 3.713747, 0.1};
Point(p16 + 11) = {31.01354826285441, 3.702912628918786, 0.1};
Point(p16 + 12) = {30.8792742637971, 3.670676293848382, 0.1};
Point(p16 + 13) = {30.7516962743147, 3.617831760344481, 0.1};
Point(p16 + 14) = {30.63395568791535, 3.545680236202903, 0.1};
Point(p16 + 15) = {30.52895166859481, 3.455998331405192, 0.1};
Point(p16 + 16) = {30.4392697637971, 3.350994312084647, 0.1};
Point(p16 + 17) = {30.36711823965552, 3.233253725685299, 0.1};
Point(p16 + 18) = {30.31427370615162, 3.105675736202903, 0.1};
Point(p16 + 19) = {30.28203737108122, 2.971401737145588, 0.1};
Point(p16 + 20) = {30.271203, 2.833738, 0.1};
Point(p16 + 21) = {30.28203737108121, 2.696074262854411, 0.1};
Point(p16 + 22) = {30.31427370615162, 2.561800263797096, 0.1};
Point(p16 + 23) = {30.36711823965552, 2.434222274314701, 0.1};
Point(p16 + 24) = {30.4392697637971, 2.316481687915353, 0.1};
Point(p16 + 25) = {30.52895166859481, 2.211477668594807, 0.1};
Point(p16 + 26) = {30.63395568791535, 2.121795763797097, 0.1};
Point(p16 + 27) = {30.7516962743147, 2.049644239655518, 0.1};
Point(p16 + 28) = {30.8792742637971, 1.996799706151618, 0.1};
Point(p16 + 29) = {31.01354826285441, 1.964563371081213, 0.1};
Point(p16 + 30) = {31.151212, 1.953729, 0.1};
Point(p16 + 31) = {31.28887573714559, 1.964563371081213, 0.1};
Point(p16 + 32) = {31.42314973620291, 1.996799706151618, 0.1};
Point(p16 + 33) = {31.5507277256853, 2.049644239655518, 0.1};
Point(p16 + 34) = {31.66846831208465, 2.121795763797096, 0.1};
Point(p16 + 35) = {31.77347233140519, 2.211477668594807, 0.1};
Point(p16 + 36) = {31.8631542362029, 2.316481687915353, 0.1};
Point(p16 + 37) = {31.93530576034448, 2.434222274314701, 0.1};
Point(p16 + 38) = {31.98815029384838, 2.561800263797096, 0.1};
Point(p16 + 39) = {32.02038662891879, 2.696074262854411, 0.1};
Spline(16) = {11, p16 + 1, p16 + 2, p16 + 3, p16 + 4, p16 + 5, p16 + 6, p16 + 7, p16 + 8, p16 + 9, p16 + 10, p16 + 11, p16 + 12, p16 + 13, p16 + 14, p16 + 15, p16 + 16, p16 + 17, p16 + 18, p16 + 19, p16 + 20, p16 + 21, p16 + 22, p16 + 23, p16 + 24, p16 + 25, p16 + 26, p16 + 27, p16 + 28, p16 + 29, p16 + 30, p16 + 31, p16 + 32, p16 + 33, p16 + 34, p16 + 35, p16 + 36, p16 + 37, p16 + 38, p16 + 39, 11};
Line(17) = {12, 11};
p18 = newp;
Point(p18 + 1) = {32.02038662891879, 2.971401737145588, 0};
Point(p18 + 2) = {31.98815029384838, 3.105675736202903, 0};
Point(p18 + 3) = {31.93530576034448, 3.233253725685299, 0};
Point(p18 + 4) = {31.86315423620291, 3.350994312084647, 0};
Point(p18 + 5) = {31.77347233140519, 3.455998331405192, 0};
Point(p18 + 6) = {31.66846831208465, 3.545680236202903, 0};
Point(p18 + 7) = {31.5507277256853, 3.617831760344481, 0};
Point(p18 + 8) = {31.42314973620291, 3.670676293848381, 0};
Point(p18 + 9) = {31.28887573714559, 3.702912628918786, 0};
Point(p18 + 10) = {31.151212, 3.713747, 0};
Point(p18 + 11) = {31.01354826285441, 3.702912628918786, 0};
Point(p18 + 12) = {30.8792742637971, 3.670676293848382, 0};
Point(p18 + 13) = {30.7516962743147, 3.617831760344481, 0};
Point(p18 + 14) = {30.63395568791535, 3.545680236202903, 0};
Point(p18 + 15) = {30.52895166859481, 3.455998331405192, 0};
Point(p18 + 16) = {30.4392697637971, 3.350994312084647, 0};
Point(p18 + 17) = {30.36711823965552, 3.233253725685299, 0};
Point(p18 + 18) = {30.31427370615162, 3.105675736202903, 0};
Point(p18 + 19) = {30.28203737108122, 2.971401737145588, 0};
Point(p18 + 20) = {30.271203, 2.833738, 0};
Point(p18 + 21) = {30.28203737108121, 2.696074262854411, 0};
Point(p18 + 22) = {30.31427370615162, 2.561800263797096, 0};
Point(p18 + 23) = {30.36711823965552, 2.434222274314701, 0};
Point(p18 + 24) = {30.4392697637971, 2.316481687915353, 0};
Point(p18 + 25) = {30.52895166859481, 2.211477668594807, 0};
Point(p18 + 26) = {30.63395568791535, 2.121795763797097, 0};
Point(p18 + 27) = {30.7516962743147, 2.049644239655518, 0};
Point(p18 + 28) = {30.8792742637971, 1.996799706151618, 0};
Point(p18 + 29) = {31.01354826285441, 1.964563371081213, 0};
Point(p18 + 30) = {31.151212, 1.953729, 0};
Point(p18 + 31) = {31.28887573714559, 1.964563371081213, 0};
Point(p18 + 32) = {31.42314973620291, 1.996799706151618, 0};
Point(p18 + 33) = {31.5507277256853, 2.049644239655518, 0};
Point(p18 + 34) = {31.66846831208465, 2.121795763797096, 0};
Point(p18 + 35) = {31.77347233140519, 2.211477668594807, 0};
Point(p18 + 36) = {31.8631542362029, 2.316481687915353, 0};
Point(p18 + 37) = {31.93530576034448, 2.434222274314701, 0};
Point(p18 + 38) = {31.98815029384838, 2.561800263797096, 0};
Point(p18 + 39) = {32.02038662891879, 2.696074262854411, 0};
Spline(18) = {12, p18 + 1, p18 + 2, p18 + 3, p18 + 4, p18 + 5, p18 + 6, p18 + 7, p18 + 8, p18 + 9, p18 + 10, p18 + 11, p18 + 12, p18 + 13, p18 + 14, p18 + 15, p18 + 16, p18 + 17, p18 + 18, p18 + 19, p18 + 20, p18 + 21, p18 + 22, p18 + 23, p18 + 24, p18 + 25, p18 + 26, p18 + 27, p18 + 28, p18 + 29, p18 + 30, p18 + 31, p18 + 32, p18 + 33, p18 + 34, p18 + 35, p18 + 36, p18 + 37, p18 + 38, p18 + 39, 12};
Line(19) = {14, 13};
Line(20) = {13, 15};
Line(21) = {16, 15};
Line(22) = {14, 16};
Line(23) = {14, 17};
Line(24) = {17, 18};
Line(25) = {13, 18};
Line(26) = {15, 19};
Line(27) = {18, 19};
Line(28) = {16, 20};
Line(29) = {20, 19};
Line(30) = {17, 20};
Curve Loop(7) = {-13, -14, 15, 14};
Surface(7) = {7};
Curve Loop(8) = {13};
Plane Surface(8) = {8};
Curve Loop(9) = {15};
Plane Surface(9) = {9};
Curve Loop(10) = {-16, -17, 18, 17};
Surface(10) = {10};
Curve Loop(11) = {16};
Plane Surface(11) = {11};
Curve Loop(12) = {18};
Plane Surface(12) = {12};
Curve Loop(13) = {-19, 22, 21, -20};
Plane Surface(13) = {13};
Curve Loop(14) = {-23, 19, 25, -24};
Plane Surface(14) = {14};
Curve Loop(15) = {-20, 25, 27, -26, -13, -16};
Plane Surface(15) = {15};
Curve Loop(16) = {-28, 21, 26, -29};
Plane Surface(16) = {16};
Curve Loop(17) = {-22, 23, 30, -28, -15, -18};
Plane Surface(17) = {17};
Curve Loop(18) = {-24, 30, 29, -27};
Plane Surface(18) = {18};
Surface Loop(1) = {13, 14, 15, 16, 17, 18, 7, 10};
Volume(1) = {1};
Surface Loop(2) = {7, 8, 9};
Volume(2) = {2};
Surface Loop(3) = {10, 11, 12};
Volume(3) = {3};
Physical Surface("WALLS") = {13, 18};
Physical Surface("LOAD") = {8, 11};
Physical Surface("BORDER") = {7, 9, 10, 12, 14, 15, 16, 17};
Physical Volume("SOLID") = {1, 2, 3};
