cl__1 = 0.086784;
cl__2 = 0.102746;
cl__3 = 0.628075;
cl__4 = 0.744441;
cl__5 = 2.545156;
cl__6 = 2.010647;
Point(9) = {16.389762, 3.190802, 0.1, cl__1};
Point(10) = {16.389762, 3.190802, 0, cl__1};
Point(11) = {10.352605, -1.124759, 0.1, cl__2};
Point(12) = {10.352605, -1.124759, 0, cl__2};
Point(13) = {0.448928, -4.226769, 1, cl__3};
Point(14) = {0.448928, -4.226769, 0, cl__3};
Point(15) = {0.448928, 5.294790999999999, 1, cl__4};
Point(16) = {0.448928, 5.294790999999999, 0, cl__4};
Point(17) = {33.094679, -4.226769, 0, cl__5};
Point(18) = {33.094679, -4.226769, 1, cl__5};
Point(19) = {33.094679, 5.294790999999999, 1, cl__6};
Point(20) = {33.094679, 5.294790999999999, 0, cl__6};
p13 = newp;
Point(p13 + 1) = {16.37907743719042, 3.326562242574979, 0.1};
Point(p13 + 2) = {16.3472868381581, 3.458979617415349, 0.1};
Point(p13 + 3) = {16.29517299295816, 3.584793569284468, 0.1};
Point(p13 + 4) = {16.22401911741535, 3.700906141134752, 0.1};
Point(p13 + 5) = {16.13557725609171, 3.804458256091714, 0.1};
Point(p13 + 6) = {16.03202514113475, 3.892900117415349, 0.1};
Point(p13 + 7) = {15.91591256928447, 3.964053992958157, 0.1};
Point(p13 + 8) = {15.79009861741535, 4.016167838158102, 0.1};
Point(p13 + 9) = {15.65768124257498, 4.047958437190425, 0.1};
Point(p13 + 10) = {15.521921, 4.058643, 0.1};
Point(p13 + 11) = {15.38616075742502, 4.047958437190425, 0.1};
Point(p13 + 12) = {15.25374338258465, 4.016167838158102, 0.1};
Point(p13 + 13) = {15.12792943071553, 3.964053992958157, 0.1};
Point(p13 + 14) = {15.01181685886525, 3.892900117415349, 0.1};
Point(p13 + 15) = {14.90826474390829, 3.804458256091715, 0.1};
Point(p13 + 16) = {14.81982288258465, 3.700906141134753, 0.1};
Point(p13 + 17) = {14.74866900704184, 3.584793569284468, 0.1};
Point(p13 + 18) = {14.6965551618419, 3.458979617415349, 0.1};
Point(p13 + 19) = {14.66476456280958, 3.326562242574979, 0.1};
Point(p13 + 20) = {14.65408, 3.190802, 0.1};
Point(p13 + 21) = {14.66476456280958, 3.055041757425021, 0.1};
Point(p13 + 22) = {14.6965551618419, 2.922624382584651, 0.1};
Point(p13 + 23) = {14.74866900704184, 2.796810430715532, 0.1};
Point(p13 + 24) = {14.81982288258465, 2.680697858865248, 0.1};
Point(p13 + 25) = {14.90826474390829, 2.577145743908286, 0.1};
Point(p13 + 26) = {15.01181685886525, 2.488703882584652, 0.1};
Point(p13 + 27) = {15.12792943071553, 2.417550007041843, 0.1};
Point(p13 + 28) = {15.25374338258465, 2.365436161841898, 0.1};
Point(p13 + 29) = {15.38616075742502, 2.333645562809576, 0.1};
Point(p13 + 30) = {15.521921, 2.322961, 0.1};
Point(p13 + 31) = {15.65768124257498, 2.333645562809575, 0.1};
Point(p13 + 32) = {15.79009861741535, 2.365436161841898, 0.1};
Point(p13 + 33) = {15.91591256928447, 2.417550007041843, 0.1};
Point(p13 + 34) = {16.03202514113475, 2.488703882584651, 0.1};
Point(p13 + 35) = {16.13557725609171, 2.577145743908285, 0.1};
Point(p13 + 36) = {16.22401911741535, 2.680697858865248, 0.1};
Point(p13 + 37) = {16.29517299295816, 2.796810430715532, 0.1};
Point(p13 + 38) = {16.3472868381581, 2.922624382584651, 0.1};
Point(p13 + 39) = {16.37907743719042, 3.055041757425021, 0.1};
Spline(13) = {9, p13 + 1, p13 + 2, p13 + 3, p13 + 4, p13 + 5, p13 + 6, p13 + 7, p13 + 8, p13 + 9, p13 + 10, p13 + 11, p13 + 12, p13 + 13, p13 + 14, p13 + 15, p13 + 16, p13 + 17, p13 + 18, p13 + 19, p13 + 20, p13 + 21, p13 + 22, p13 + 23, p13 + 24, p13 + 25, p13 + 26, p13 + 27, p13 + 28, p13 + 29, p13 + 30, p13 + 31, p13 + 32, p13 + 33, p13 + 34, p13 + 35, p13 + 36, p13 + 37, p13 + 38, p13 + 39, 9};
Line(14) = {10, 9};
p15 = newp;
Point(p15 + 1) = {16.37907743719042, 3.326562242574979, 0};
Point(p15 + 2) = {16.3472868381581, 3.458979617415349, 0};
Point(p15 + 3) = {16.29517299295816, 3.584793569284468, 0};
Point(p15 + 4) = {16.22401911741535, 3.700906141134752, 0};
Point(p15 + 5) = {16.13557725609171, 3.804458256091714, 0};
Point(p15 + 6) = {16.03202514113475, 3.892900117415349, 0};
Point(p15 + 7) = {15.91591256928447, 3.964053992958157, 0};
Point(p15 + 8) = {15.79009861741535, 4.016167838158102, 0};
Point(p15 + 9) = {15.65768124257498, 4.047958437190425, 0};
Point(p15 + 10) = {15.521921, 4.058643, 0};
Point(p15 + 11) = {15.38616075742502, 4.047958437190425, 0};
Point(p15 + 12) = {15.25374338258465, 4.016167838158102, 0};
Point(p15 + 13) = {15.12792943071553, 3.964053992958157, 0};
Point(p15 + 14) = {15.01181685886525, 3.892900117415349, 0};
Point(p15 + 15) = {14.90826474390829, 3.804458256091715, 0};
Point(p15 + 16) = {14.81982288258465, 3.700906141134753, 0};
Point(p15 + 17) = {14.74866900704184, 3.584793569284468, 0};
Point(p15 + 18) = {14.6965551618419, 3.458979617415349, 0};
Point(p15 + 19) = {14.66476456280958, 3.326562242574979, 0};
Point(p15 + 20) = {14.65408, 3.190802, 0};
Point(p15 + 21) = {14.66476456280958, 3.055041757425021, 0};
Point(p15 + 22) = {14.6965551618419, 2.922624382584651, 0};
Point(p15 + 23) = {14.74866900704184, 2.796810430715532, 0};
Point(p15 + 24) = {14.81982288258465, 2.680697858865248, 0};
Point(p15 + 25) = {14.90826474390829, 2.577145743908286, 0};
Point(p15 + 26) = {15.01181685886525, 2.488703882584652, 0};
Point(p15 + 27) = {15.12792943071553, 2.417550007041843, 0};
Point(p15 + 28) = {15.25374338258465, 2.365436161841898, 0};
Point(p15 + 29) = {15.38616075742502, 2.333645562809576, 0};
Point(p15 + 30) = {15.521921, 2.322961, 0};
Point(p15 + 31) = {15.65768124257498, 2.333645562809575, 0};
Point(p15 + 32) = {15.79009861741535, 2.365436161841898, 0};
Point(p15 + 33) = {15.91591256928447, 2.417550007041843, 0};
Point(p15 + 34) = {16.03202514113475, 2.488703882584651, 0};
Point(p15 + 35) = {16.13557725609171, 2.577145743908285, 0};
Point(p15 + 36) = {16.22401911741535, 2.680697858865248, 0};
Point(p15 + 37) = {16.29517299295816, 2.796810430715532, 0};
Point(p15 + 38) = {16.3472868381581, 2.922624382584651, 0};
Point(p15 + 39) = {16.37907743719042, 3.055041757425021, 0};
Spline(15) = {10, p15 + 1, p15 + 2, p15 + 3, p15 + 4, p15 + 5, p15 + 6, p15 + 7, p15 + 8, p15 + 9, p15 + 10, p15 + 11, p15 + 12, p15 + 13, p15 + 14, p15 + 15, p15 + 16, p15 + 17, p15 + 18, p15 + 19, p15 + 20, p15 + 21, p15 + 22, p15 + 23, p15 + 24, p15 + 25, p15 + 26, p15 + 27, p15 + 28, p15 + 29, p15 + 30, p15 + 31, p15 + 32, p15 + 33, p15 + 34, p15 + 35, p15 + 36, p15 + 37, p15 + 38, p15 + 39, 10};
p16 = newp;
Point(p16 + 1) = {10.33995526242788, -0.9640288445497645, 0.1};
Point(p16 + 2) = {10.30231752823262, -0.8072563989595166, 0.1};
Point(p16 + 3) = {10.24061856334258, -0.6583019211376053, 0.1};
Point(p16 + 4) = {10.15637760104048, -0.5208331646795756, 0.1};
Point(p16 + 5) = {10.05166893339793, -0.39823506660207, 0.1};
Point(p16 + 6) = {9.929070835320424, -0.2935263989595166, 0.1};
Point(p16 + 7) = {9.791602078862393, -0.2092854366574196, 0.1};
Point(p16 + 8) = {9.642647601040483, -0.1475864717673816, 0.1};
Point(p16 + 9) = {9.485875155450234, -0.1099487375721198, 0.1};
Point(p16 + 10) = {9.325144999999999, -0.09729900000000002, 0.1};
Point(p16 + 11) = {9.164414844549764, -0.10994873757212, 0.1};
Point(p16 + 12) = {9.007642398959515, -0.1475864717673815, 0.1};
Point(p16 + 13) = {8.858687921137605, -0.2092854366574195, 0.1};
Point(p16 + 14) = {8.721219164679574, -0.2935263989595165, 0.1};
Point(p16 + 15) = {8.598621066602069, -0.3982350666020699, 0.1};
Point(p16 + 16) = {8.493912398959516, -0.5208331646795755, 0.1};
Point(p16 + 17) = {8.409671436657419, -0.6583019211376052, 0.1};
Point(p16 + 18) = {8.347972471767381, -0.8072563989595165, 0.1};
Point(p16 + 19) = {8.31033473757212, -0.9640288445497643, 0.1};
Point(p16 + 20) = {8.297685, -1.124759, 0.1};
Point(p16 + 21) = {8.310334737572118, -1.285489155450235, 0.1};
Point(p16 + 22) = {8.347972471767381, -1.442261601040484, 0.1};
Point(p16 + 23) = {8.409671436657419, -1.591216078862394, 0.1};
Point(p16 + 24) = {8.493912398959516, -1.728684835320424, 0.1};
Point(p16 + 25) = {8.598621066602069, -1.85128293339793, 0.1};
Point(p16 + 26) = {8.721219164679574, -1.955991601040484, 0.1};
Point(p16 + 27) = {8.858687921137605, -2.040232563342581, 0.1};
Point(p16 + 28) = {9.007642398959515, -2.101931528232619, 0.1};
Point(p16 + 29) = {9.164414844549764, -2.13956926242788, 0.1};
Point(p16 + 30) = {9.325144999999999, -2.152219, 0.1};
Point(p16 + 31) = {9.485875155450234, -2.13956926242788, 0.1};
Point(p16 + 32) = {9.642647601040482, -2.101931528232619, 0.1};
Point(p16 + 33) = {9.791602078862393, -2.040232563342581, 0.1};
Point(p16 + 34) = {9.929070835320424, -1.955991601040484, 0.1};
Point(p16 + 35) = {10.05166893339793, -1.85128293339793, 0.1};
Point(p16 + 36) = {10.15637760104048, -1.728684835320425, 0.1};
Point(p16 + 37) = {10.24061856334258, -1.591216078862395, 0.1};
Point(p16 + 38) = {10.30231752823262, -1.442261601040484, 0.1};
Point(p16 + 39) = {10.33995526242788, -1.285489155450236, 0.1};
Spline(16) = {11, p16 + 1, p16 + 2, p16 + 3, p16 + 4, p16 + 5, p16 + 6, p16 + 7, p16 + 8, p16 + 9, p16 + 10, p16 + 11, p16 + 12, p16 + 13, p16 + 14, p16 + 15, p16 + 16, p16 + 17, p16 + 18, p16 + 19, p16 + 20, p16 + 21, p16 + 22, p16 + 23, p16 + 24, p16 + 25, p16 + 26, p16 + 27, p16 + 28, p16 + 29, p16 + 30, p16 + 31, p16 + 32, p16 + 33, p16 + 34, p16 + 35, p16 + 36, p16 + 37, p16 + 38, p16 + 39, 11};
Line(17) = {12, 11};
p18 = newp;
Point(p18 + 1) = {10.33995526242788, -0.9640288445497645, 0};
Point(p18 + 2) = {10.30231752823262, -0.8072563989595166, 0};
Point(p18 + 3) = {10.24061856334258, -0.6583019211376053, 0};
Point(p18 + 4) = {10.15637760104048, -0.5208331646795756, 0};
Point(p18 + 5) = {10.05166893339793, -0.39823506660207, 0};
Point(p18 + 6) = {9.929070835320424, -0.2935263989595166, 0};
Point(p18 + 7) = {9.791602078862393, -0.2092854366574196, 0};
Point(p18 + 8) = {9.642647601040483, -0.1475864717673816, 0};
Point(p18 + 9) = {9.485875155450234, -0.1099487375721198, 0};
Point(p18 + 10) = {9.325144999999999, -0.09729900000000002, 0};
Point(p18 + 11) = {9.164414844549764, -0.10994873757212, 0};
Point(p18 + 12) = {9.007642398959515, -0.1475864717673815, 0};
Point(p18 + 13) = {8.858687921137605, -0.2092854366574195, 0};
Point(p18 + 14) = {8.721219164679574, -0.2935263989595165, 0};
Point(p18 + 15) = {8.598621066602069, -0.3982350666020699, 0};
Point(p18 + 16) = {8.493912398959516, -0.5208331646795755, 0};
Point(p18 + 17) = {8.409671436657419, -0.6583019211376052, 0};
Point(p18 + 18) = {8.347972471767381, -0.8072563989595165, 0};
Point(p18 + 19) = {8.31033473757212, -0.9640288445497643, 0};
Point(p18 + 20) = {8.297685, -1.124759, 0};
Point(p18 + 21) = {8.310334737572118, -1.285489155450235, 0};
Point(p18 + 22) = {8.347972471767381, -1.442261601040484, 0};
Point(p18 + 23) = {8.409671436657419, -1.591216078862394, 0};
Point(p18 + 24) = {8.493912398959516, -1.728684835320424, 0};
Point(p18 + 25) = {8.598621066602069, -1.85128293339793, 0};
Point(p18 + 26) = {8.721219164679574, -1.955991601040484, 0};
Point(p18 + 27) = {8.858687921137605, -2.040232563342581, 0};
Point(p18 + 28) = {9.007642398959515, -2.101931528232619, 0};
Point(p18 + 29) = {9.164414844549764, -2.13956926242788, 0};
Point(p18 + 30) = {9.325144999999999, -2.152219, 0};
Point(p18 + 31) = {9.485875155450234, -2.13956926242788, 0};
Point(p18 + 32) = {9.642647601040482, -2.101931528232619, 0};
Point(p18 + 33) = {9.791602078862393, -2.040232563342581, 0};
Point(p18 + 34) = {9.929070835320424, -1.955991601040484, 0};
Point(p18 + 35) = {10.05166893339793, -1.85128293339793, 0};
Point(p18 + 36) = {10.15637760104048, -1.728684835320425, 0};
Point(p18 + 37) = {10.24061856334258, -1.591216078862395, 0};
Point(p18 + 38) = {10.30231752823262, -1.442261601040484, 0};
Point(p18 + 39) = {10.33995526242788, -1.285489155450236, 0};
Spline(18) = {12, p18 + 1, p18 + 2, p18 + 3, p18 + 4, p18 + 5, p18 + 6, p18 + 7, p18 + 8, p18 + 9, p18 + 10, p18 + 11, p18 + 12, p18 + 13, p18 + 14, p18 + 15, p18 + 16, p18 + 17, p18 + 18, p18 + 19, p18 + 20, p18 + 21, p18 + 22, p18 + 23, p18 + 24, p18 + 25, p18 + 26, p18 + 27, p18 + 28, p18 + 29, p18 + 30, p18 + 31, p18 + 32, p18 + 33, p18 + 34, p18 + 35, p18 + 36, p18 + 37, p18 + 38, p18 + 39, 12};
Line(19) = {14, 13};
Line(20) = {13, 15};
Line(21) = {16, 15};
Line(22) = {14, 16};
Line(23) = {14, 17};
Line(24) = {17, 18};
Line(25) = {13, 18};
Line(26) = {15, 19};
Line(27) = {18, 19};
Line(28) = {16, 20};
Line(29) = {20, 19};
Line(30) = {17, 20};
Curve Loop(7) = {-13, -14, 15, 14};
Surface(7) = {7};
Curve Loop(8) = {13};
Plane Surface(8) = {8};
Curve Loop(9) = {15};
Plane Surface(9) = {9};
Curve Loop(10) = {-16, -17, 18, 17};
Surface(10) = {10};
Curve Loop(11) = {16};
Plane Surface(11) = {11};
Curve Loop(12) = {18};
Plane Surface(12) = {12};
Curve Loop(13) = {-19, 22, 21, -20};
Plane Surface(13) = {13};
Curve Loop(14) = {-23, 19, 25, -24};
Plane Surface(14) = {14};
Curve Loop(15) = {-20, 25, 27, -26};
Plane Surface(15) = {15};
Curve Loop(16) = {-28, 21, 26, -29};
Plane Surface(16) = {16};
Curve Loop(17) = {-22, 23, 30, -28, -18, -15};
Plane Surface(17) = {17};
Curve Loop(18) = {-24, 30, 29, -27};
Plane Surface(18) = {18};
Surface Loop(1) = {13, 14, 15, 16, 17, 18, 10, 7, 11, 8};
Volume(1) = {1};
Surface Loop(2) = {7, 8, 9};
Volume(2) = {2};
Surface Loop(3) = {10, 11, 12};
Volume(3) = {3};
Physical Surface("WALLS") = {13, 18};
Physical Surface("LOAD") = {8, 11};
Physical Surface("BORDER") = {7, 9, 10, 12, 14, 15, 16, 17};
Physical Volume("SOLID") = {1, 2, 3};
