cl__1 = 0.130515;
cl__2 = 0.082597;
cl__3 = 1.300883;
cl__4 = 1.792549;
cl__5 = 0.8628209999999999;
cl__6 = 0.83078;
Point(9) = {15.111733, -1.520406, 0.1, cl__1};
Point(10) = {15.111733, -1.520406, 0, cl__1};
Point(11) = {23.74007, 0.8506169999999998, 0.1, cl__2};
Point(12) = {23.74007, 0.8506169999999998, 0, cl__2};
Point(13) = {0.968574, -4.113265, 0.1, cl__3};
Point(14) = {0.968574, -4.113265, 0, cl__3};
Point(15) = {0.968574, 5.062092, 0.1, cl__4};
Point(16) = {0.968574, 5.062092, 0, cl__4};
Point(17) = {31.763238, -4.113265, 0, cl__5};
Point(18) = {31.763238, -4.113265, 0.1, cl__5};
Point(19) = {31.763238, 5.062092, 0.1, cl__6};
Point(20) = {31.763238, 5.062092, 0, cl__6};
p13 = newp;
Point(p13 + 1) = {15.09566438848111, -1.316234932214883, 0.1};
Point(p13 + 2) = {15.04785421646868, -1.11709123372356, 0.1};
Point(p13 + 3) = {14.96947972907054, -0.9278784833029315, 0.1};
Point(p13 + 4) = {14.86247076627644, -0.7532557268294695, 0.1};
Point(p13 + 5) = {14.72946224389275, -0.5975227561072528, 0.1};
Point(p13 + 6) = {14.57372927317053, -0.4645142337235599, 0.1};
Point(p13 + 7) = {14.39910651669707, -0.3575052709294551, 0.1};
Point(p13 + 8) = {14.20989376627644, -0.2791307835313153, 0.1};
Point(p13 + 9) = {14.01075006778512, -0.2313206115188935, 0.1};
Point(p13 + 10) = {13.806579, -0.215252, 0.1};
Point(p13 + 11) = {13.60240793221488, -0.2313206115188937, 0.1};
Point(p13 + 12) = {13.40326423372356, -0.279130783531315, 0.1};
Point(p13 + 13) = {13.21405148330293, -0.3575052709294548, 0.1};
Point(p13 + 14) = {13.03942872682947, -0.4645142337235597, 0.1};
Point(p13 + 15) = {12.88369575610725, -0.5975227561072527, 0.1};
Point(p13 + 16) = {12.75068723372356, -0.7532557268294693, 0.1};
Point(p13 + 17) = {12.64367827092945, -0.9278784833029314, 0.1};
Point(p13 + 18) = {12.56530378353131, -1.11709123372356, 0.1};
Point(p13 + 19) = {12.51749361151889, -1.316234932214882, 0.1};
Point(p13 + 20) = {12.501425, -1.520406, 0.1};
Point(p13 + 21) = {12.51749361151889, -1.724577067785117, 0.1};
Point(p13 + 22) = {12.56530378353131, -1.92372076627644, 0.1};
Point(p13 + 23) = {12.64367827092945, -2.112933516697068, 0.1};
Point(p13 + 24) = {12.75068723372356, -2.28755627317053, 0.1};
Point(p13 + 25) = {12.88369575610725, -2.443289243892747, 0.1};
Point(p13 + 26) = {13.03942872682947, -2.57629776627644, 0.1};
Point(p13 + 27) = {13.21405148330293, -2.683306729070545, 0.1};
Point(p13 + 28) = {13.40326423372356, -2.761681216468685, 0.1};
Point(p13 + 29) = {13.60240793221488, -2.809491388481106, 0.1};
Point(p13 + 30) = {13.806579, -2.82556, 0.1};
Point(p13 + 31) = {14.01075006778512, -2.809491388481106, 0.1};
Point(p13 + 32) = {14.20989376627644, -2.761681216468685, 0.1};
Point(p13 + 33) = {14.39910651669707, -2.683306729070545, 0.1};
Point(p13 + 34) = {14.57372927317053, -2.57629776627644, 0.1};
Point(p13 + 35) = {14.72946224389275, -2.443289243892747, 0.1};
Point(p13 + 36) = {14.86247076627644, -2.287556273170531, 0.1};
Point(p13 + 37) = {14.96947972907054, -2.112933516697069, 0.1};
Point(p13 + 38) = {15.04785421646868, -1.92372076627644, 0.1};
Point(p13 + 39) = {15.09566438848111, -1.724577067785118, 0.1};
Spline(13) = {9, p13 + 1, p13 + 2, p13 + 3, p13 + 4, p13 + 5, p13 + 6, p13 + 7, p13 + 8, p13 + 9, p13 + 10, p13 + 11, p13 + 12, p13 + 13, p13 + 14, p13 + 15, p13 + 16, p13 + 17, p13 + 18, p13 + 19, p13 + 20, p13 + 21, p13 + 22, p13 + 23, p13 + 24, p13 + 25, p13 + 26, p13 + 27, p13 + 28, p13 + 29, p13 + 30, p13 + 31, p13 + 32, p13 + 33, p13 + 34, p13 + 35, p13 + 36, p13 + 37, p13 + 38, p13 + 39, 9};
Line(14) = {10, 9};
p15 = newp;
Point(p15 + 1) = {15.09566438848111, -1.316234932214883, 0};
Point(p15 + 2) = {15.04785421646868, -1.11709123372356, 0};
Point(p15 + 3) = {14.96947972907054, -0.9278784833029315, 0};
Point(p15 + 4) = {14.86247076627644, -0.7532557268294695, 0};
Point(p15 + 5) = {14.72946224389275, -0.5975227561072528, 0};
Point(p15 + 6) = {14.57372927317053, -0.4645142337235599, 0};
Point(p15 + 7) = {14.39910651669707, -0.3575052709294551, 0};
Point(p15 + 8) = {14.20989376627644, -0.2791307835313153, 0};
Point(p15 + 9) = {14.01075006778512, -0.2313206115188935, 0};
Point(p15 + 10) = {13.806579, -0.215252, 0};
Point(p15 + 11) = {13.60240793221488, -0.2313206115188937, 0};
Point(p15 + 12) = {13.40326423372356, -0.279130783531315, 0};
Point(p15 + 13) = {13.21405148330293, -0.3575052709294548, 0};
Point(p15 + 14) = {13.03942872682947, -0.4645142337235597, 0};
Point(p15 + 15) = {12.88369575610725, -0.5975227561072527, 0};
Point(p15 + 16) = {12.75068723372356, -0.7532557268294693, 0};
Point(p15 + 17) = {12.64367827092945, -0.9278784833029314, 0};
Point(p15 + 18) = {12.56530378353131, -1.11709123372356, 0};
Point(p15 + 19) = {12.51749361151889, -1.316234932214882, 0};
Point(p15 + 20) = {12.501425, -1.520406, 0};
Point(p15 + 21) = {12.51749361151889, -1.724577067785117, 0};
Point(p15 + 22) = {12.56530378353131, -1.92372076627644, 0};
Point(p15 + 23) = {12.64367827092945, -2.112933516697068, 0};
Point(p15 + 24) = {12.75068723372356, -2.28755627317053, 0};
Point(p15 + 25) = {12.88369575610725, -2.443289243892747, 0};
Point(p15 + 26) = {13.03942872682947, -2.57629776627644, 0};
Point(p15 + 27) = {13.21405148330293, -2.683306729070545, 0};
Point(p15 + 28) = {13.40326423372356, -2.761681216468685, 0};
Point(p15 + 29) = {13.60240793221488, -2.809491388481106, 0};
Point(p15 + 30) = {13.806579, -2.82556, 0};
Point(p15 + 31) = {14.01075006778512, -2.809491388481106, 0};
Point(p15 + 32) = {14.20989376627644, -2.761681216468685, 0};
Point(p15 + 33) = {14.39910651669707, -2.683306729070545, 0};
Point(p15 + 34) = {14.57372927317053, -2.57629776627644, 0};
Point(p15 + 35) = {14.72946224389275, -2.443289243892747, 0};
Point(p15 + 36) = {14.86247076627644, -2.287556273170531, 0};
Point(p15 + 37) = {14.96947972907054, -2.112933516697069, 0};
Point(p15 + 38) = {15.04785421646868, -1.92372076627644, 0};
Point(p15 + 39) = {15.09566438848111, -1.724577067785118, 0};
Spline(15) = {10, p15 + 1, p15 + 2, p15 + 3, p15 + 4, p15 + 5, p15 + 6, p15 + 7, p15 + 8, p15 + 9, p15 + 10, p15 + 11, p15 + 12, p15 + 13, p15 + 14, p15 + 15, p15 + 16, p15 + 17, p15 + 18, p15 + 19, p15 + 20, p15 + 21, p15 + 22, p15 + 23, p15 + 24, p15 + 25, p15 + 26, p15 + 27, p15 + 28, p15 + 29, p15 + 30, p15 + 31, p15 + 32, p15 + 33, p15 + 34, p15 + 35, p15 + 36, p15 + 37, p15 + 38, p15 + 39, 10};
p16 = newp;
Point(p16 + 1) = {23.72990091405805, 0.9798274879582095, 0.1};
Point(p16 + 2) = {23.69964405287734, 1.105856384877864, 0.1};
Point(p16 + 3) = {23.65004444079691, 1.225600441050873, 0.1};
Point(p16 + 4) = {23.58232338487786, 1.336111160406519, 0.1};
Point(p16 + 5) = {23.49814840227021, 1.434667402270215, 0.1};
Point(p16 + 6) = {23.39959216040652, 1.518842384877864, 0.1};
Point(p16 + 7) = {23.28908144105087, 1.586563440796914, 0.1};
Point(p16 + 8) = {23.16933738487786, 1.636163052877341, 0.1};
Point(p16 + 9) = {23.04330848795821, 1.666419914058047, 0.1};
Point(p16 + 10) = {22.914098, 1.676589, 0.1};
Point(p16 + 11) = {22.78488751204179, 1.666419914058047, 0.1};
Point(p16 + 12) = {22.65885861512213, 1.636163052877341, 0.1};
Point(p16 + 13) = {22.53911455894913, 1.586563440796914, 0.1};
Point(p16 + 14) = {22.42860383959348, 1.518842384877864, 0.1};
Point(p16 + 15) = {22.33004759772978, 1.434667402270215, 0.1};
Point(p16 + 16) = {22.24587261512213, 1.336111160406519, 0.1};
Point(p16 + 17) = {22.17815155920308, 1.225600441050873, 0.1};
Point(p16 + 18) = {22.12855194712266, 1.105856384877864, 0.1};
Point(p16 + 19) = {22.09829508594195, 0.9798274879582096, 0.1};
Point(p16 + 20) = {22.088126, 0.8506170000000001, 0.1};
Point(p16 + 21) = {22.09829508594195, 0.7214065120417905, 0.1};
Point(p16 + 22) = {22.12855194712266, 0.5953776151221356, 0.1};
Point(p16 + 23) = {22.17815155920308, 0.4756335589491274, 0.1};
Point(p16 + 24) = {22.24587261512213, 0.3651228395934814, 0.1};
Point(p16 + 25) = {22.33004759772978, 0.266566597729785, 0.1};
Point(p16 + 26) = {22.42860383959348, 0.182391615122136, 0.1};
Point(p16 + 27) = {22.53911455894913, 0.1146705592030854, 0.1};
Point(p16 + 28) = {22.65885861512213, 0.06507094712265937, 0.1};
Point(p16 + 29) = {22.78488751204179, 0.0348140859419529, 0.1};
Point(p16 + 30) = {22.914098, 0.02464499999999992, 0.1};
Point(p16 + 31) = {23.04330848795821, 0.03481408594195279, 0.1};
Point(p16 + 32) = {23.16933738487786, 0.06507094712265926, 0.1};
Point(p16 + 33) = {23.28908144105087, 0.1146705592030852, 0.1};
Point(p16 + 34) = {23.39959216040652, 0.1823916151221358, 0.1};
Point(p16 + 35) = {23.49814840227021, 0.2665665977297847, 0.1};
Point(p16 + 36) = {23.58232338487786, 0.3651228395934812, 0.1};
Point(p16 + 37) = {23.65004444079691, 0.4756335589491268, 0.1};
Point(p16 + 38) = {23.69964405287734, 0.5953776151221357, 0.1};
Point(p16 + 39) = {23.72990091405805, 0.7214065120417902, 0.1};
Spline(16) = {11, p16 + 1, p16 + 2, p16 + 3, p16 + 4, p16 + 5, p16 + 6, p16 + 7, p16 + 8, p16 + 9, p16 + 10, p16 + 11, p16 + 12, p16 + 13, p16 + 14, p16 + 15, p16 + 16, p16 + 17, p16 + 18, p16 + 19, p16 + 20, p16 + 21, p16 + 22, p16 + 23, p16 + 24, p16 + 25, p16 + 26, p16 + 27, p16 + 28, p16 + 29, p16 + 30, p16 + 31, p16 + 32, p16 + 33, p16 + 34, p16 + 35, p16 + 36, p16 + 37, p16 + 38, p16 + 39, 11};
Line(17) = {12, 11};
p18 = newp;
Point(p18 + 1) = {23.72990091405805, 0.9798274879582095, 0};
Point(p18 + 2) = {23.69964405287734, 1.105856384877864, 0};
Point(p18 + 3) = {23.65004444079691, 1.225600441050873, 0};
Point(p18 + 4) = {23.58232338487786, 1.336111160406519, 0};
Point(p18 + 5) = {23.49814840227021, 1.434667402270215, 0};
Point(p18 + 6) = {23.39959216040652, 1.518842384877864, 0};
Point(p18 + 7) = {23.28908144105087, 1.586563440796914, 0};
Point(p18 + 8) = {23.16933738487786, 1.636163052877341, 0};
Point(p18 + 9) = {23.04330848795821, 1.666419914058047, 0};
Point(p18 + 10) = {22.914098, 1.676589, 0};
Point(p18 + 11) = {22.78488751204179, 1.666419914058047, 0};
Point(p18 + 12) = {22.65885861512213, 1.636163052877341, 0};
Point(p18 + 13) = {22.53911455894913, 1.586563440796914, 0};
Point(p18 + 14) = {22.42860383959348, 1.518842384877864, 0};
Point(p18 + 15) = {22.33004759772978, 1.434667402270215, 0};
Point(p18 + 16) = {22.24587261512213, 1.336111160406519, 0};
Point(p18 + 17) = {22.17815155920308, 1.225600441050873, 0};
Point(p18 + 18) = {22.12855194712266, 1.105856384877864, 0};
Point(p18 + 19) = {22.09829508594195, 0.9798274879582096, 0};
Point(p18 + 20) = {22.088126, 0.8506170000000001, 0};
Point(p18 + 21) = {22.09829508594195, 0.7214065120417905, 0};
Point(p18 + 22) = {22.12855194712266, 0.5953776151221356, 0};
Point(p18 + 23) = {22.17815155920308, 0.4756335589491274, 0};
Point(p18 + 24) = {22.24587261512213, 0.3651228395934814, 0};
Point(p18 + 25) = {22.33004759772978, 0.266566597729785, 0};
Point(p18 + 26) = {22.42860383959348, 0.182391615122136, 0};
Point(p18 + 27) = {22.53911455894913, 0.1146705592030854, 0};
Point(p18 + 28) = {22.65885861512213, 0.06507094712265937, 0};
Point(p18 + 29) = {22.78488751204179, 0.0348140859419529, 0};
Point(p18 + 30) = {22.914098, 0.02464499999999992, 0};
Point(p18 + 31) = {23.04330848795821, 0.03481408594195279, 0};
Point(p18 + 32) = {23.16933738487786, 0.06507094712265926, 0};
Point(p18 + 33) = {23.28908144105087, 0.1146705592030852, 0};
Point(p18 + 34) = {23.39959216040652, 0.1823916151221358, 0};
Point(p18 + 35) = {23.49814840227021, 0.2665665977297847, 0};
Point(p18 + 36) = {23.58232338487786, 0.3651228395934812, 0};
Point(p18 + 37) = {23.65004444079691, 0.4756335589491268, 0};
Point(p18 + 38) = {23.69964405287734, 0.5953776151221357, 0};
Point(p18 + 39) = {23.72990091405805, 0.7214065120417902, 0};
Spline(18) = {12, p18 + 1, p18 + 2, p18 + 3, p18 + 4, p18 + 5, p18 + 6, p18 + 7, p18 + 8, p18 + 9, p18 + 10, p18 + 11, p18 + 12, p18 + 13, p18 + 14, p18 + 15, p18 + 16, p18 + 17, p18 + 18, p18 + 19, p18 + 20, p18 + 21, p18 + 22, p18 + 23, p18 + 24, p18 + 25, p18 + 26, p18 + 27, p18 + 28, p18 + 29, p18 + 30, p18 + 31, p18 + 32, p18 + 33, p18 + 34, p18 + 35, p18 + 36, p18 + 37, p18 + 38, p18 + 39, 12};
Line(19) = {14, 13};
Line(20) = {13, 15};
Line(21) = {16, 15};
Line(22) = {14, 16};
Line(23) = {14, 17};
Line(24) = {17, 18};
Line(25) = {13, 18};
Line(26) = {15, 19};
Line(27) = {18, 19};
Line(28) = {16, 20};
Line(29) = {20, 19};
Line(30) = {17, 20};
Curve Loop(7) = {-13, -14, 15, 14};
Surface(7) = {7};
Curve Loop(8) = {13};
Plane Surface(8) = {8};
Curve Loop(9) = {15};
Plane Surface(9) = {9};
Curve Loop(10) = {-16, -17, 18, 17};
Surface(10) = {10};
Curve Loop(11) = {16};
Plane Surface(11) = {11};
Curve Loop(12) = {18};
Plane Surface(12) = {12};
Curve Loop(13) = {-19, 22, 21, -20};
Plane Surface(13) = {13};
Curve Loop(14) = {-23, 19, 25, -24};
Plane Surface(14) = {14};
Curve Loop(15) = {-20, 25, 27, -26, -13, -16};
Plane Surface(15) = {15};
Curve Loop(16) = {-28, 21, 26, -29};
Plane Surface(16) = {16};
Curve Loop(17) = {-22, 23, 30, -28, -15, -18};
Plane Surface(17) = {17};
Curve Loop(18) = {-24, 30, 29, -27};
Plane Surface(18) = {18};
Surface Loop(1) = {13, 14, 15, 16, 17, 18, 7, 10};
Volume(1) = {1};
Surface Loop(2) = {7, 8, 9};
Volume(2) = {2};
Surface Loop(3) = {10, 11, 12};
Volume(3) = {3};
Physical Surface("WALLS") = {13, 18};
Physical Surface("LOAD") = {8, 11};
Physical Surface("BORDER") = {7, 9, 10, 12, 14, 15, 16, 17};
Physical Volume("SOLID") = {1, 2, 3};
