cl__1 = 0.07008499999999999;
cl__2 = 0.09910099999999999;
cl__3 = 0.576134;
cl__4 = 0.551554;
cl__5 = 3.089926;
cl__6 = 2.837915;
Point(9) = {13.444807, 3.506806, 0.1, cl__1};
Point(10) = {13.444807, 3.506806, 0, cl__1};
Point(11) = {12.573813, 1.52853, 0.1, cl__2};
Point(12) = {12.573813, 1.52853, 0, cl__2};
Point(13) = {0.8154749999999999, -3.060647, 1, cl__3};
Point(14) = {0.8154749999999999, -3.060647, 0, cl__3};
Point(15) = {0.8154749999999999, 4.779664, 1, cl__4};
Point(16) = {0.8154749999999999, 4.779664, 0, cl__4};
Point(17) = {39.742253, -3.060647, 0, cl__5};
Point(18) = {39.742253, -3.060647, 1, cl__5};
Point(19) = {39.742253, 4.779664, 1, cl__6};
Point(20) = {39.742253, 4.779664, 0, cl__6};
p13 = newp;
Point(p13 + 1) = {13.43617836119444, 3.616443251257911, 0.1};
Point(p13 + 2) = {13.41050491050198, 3.723380869524676, 0.1};
Point(p13 + 3) = {13.36841881348394, 3.824985695732961, 0.1};
Point(p13 + 4) = {13.31095636952468, 3.918755881854432, 0.1};
Point(p13 + 5) = {13.23953249470137, 4.002382494701373, 0.1};
Point(p13 + 6) = {13.15590588185443, 4.073806369524676, 0.1};
Point(p13 + 7) = {13.06213569573296, 4.131268813483942, 0.1};
Point(p13 + 8) = {12.96053086952468, 4.173354910501975, 0.1};
Point(p13 + 9) = {12.85359325125791, 4.199028361194443, 0.1};
Point(p13 + 10) = {12.743956, 4.207657, 0.1};
Point(p13 + 11) = {12.63431874874209, 4.199028361194443, 0.1};
Point(p13 + 12) = {12.52738113047532, 4.173354910501975, 0.1};
Point(p13 + 13) = {12.42577630426704, 4.131268813483942, 0.1};
Point(p13 + 14) = {12.33200611814557, 4.073806369524676, 0.1};
Point(p13 + 15) = {12.24837950529863, 4.002382494701373, 0.1};
Point(p13 + 16) = {12.17695563047532, 3.918755881854432, 0.1};
Point(p13 + 17) = {12.11949318651606, 3.824985695732961, 0.1};
Point(p13 + 18) = {12.07740708949803, 3.723380869524676, 0.1};
Point(p13 + 19) = {12.05173363880556, 3.616443251257911, 0.1};
Point(p13 + 20) = {12.043105, 3.506806, 0.1};
Point(p13 + 21) = {12.05173363880556, 3.397168748742089, 0.1};
Point(p13 + 22) = {12.07740708949803, 3.290231130475324, 0.1};
Point(p13 + 23) = {12.11949318651606, 3.188626304267039, 0.1};
Point(p13 + 24) = {12.17695563047532, 3.094856118145568, 0.1};
Point(p13 + 25) = {12.24837950529863, 3.011229505298627, 0.1};
Point(p13 + 26) = {12.33200611814557, 2.939805630475324, 0.1};
Point(p13 + 27) = {12.42577630426704, 2.882343186516058, 0.1};
Point(p13 + 28) = {12.52738113047532, 2.840257089498025, 0.1};
Point(p13 + 29) = {12.63431874874209, 2.814583638805557, 0.1};
Point(p13 + 30) = {12.743956, 2.805955, 0.1};
Point(p13 + 31) = {12.85359325125791, 2.814583638805557, 0.1};
Point(p13 + 32) = {12.96053086952468, 2.840257089498025, 0.1};
Point(p13 + 33) = {13.06213569573296, 2.882343186516058, 0.1};
Point(p13 + 34) = {13.15590588185443, 2.939805630475324, 0.1};
Point(p13 + 35) = {13.23953249470137, 3.011229505298627, 0.1};
Point(p13 + 36) = {13.31095636952468, 3.094856118145568, 0.1};
Point(p13 + 37) = {13.36841881348394, 3.188626304267039, 0.1};
Point(p13 + 38) = {13.41050491050198, 3.290231130475324, 0.1};
Point(p13 + 39) = {13.43617836119444, 3.397168748742089, 0.1};
Spline(13) = {9, p13 + 1, p13 + 2, p13 + 3, p13 + 4, p13 + 5, p13 + 6, p13 + 7, p13 + 8, p13 + 9, p13 + 10, p13 + 11, p13 + 12, p13 + 13, p13 + 14, p13 + 15, p13 + 16, p13 + 17, p13 + 18, p13 + 19, p13 + 20, p13 + 21, p13 + 22, p13 + 23, p13 + 24, p13 + 25, p13 + 26, p13 + 27, p13 + 28, p13 + 29, p13 + 30, p13 + 31, p13 + 32, p13 + 33, p13 + 34, p13 + 35, p13 + 36, p13 + 37, p13 + 38, p13 + 39, 9};
Line(14) = {10, 9};
p15 = newp;
Point(p15 + 1) = {13.43617836119444, 3.616443251257911, 0};
Point(p15 + 2) = {13.41050491050198, 3.723380869524676, 0};
Point(p15 + 3) = {13.36841881348394, 3.824985695732961, 0};
Point(p15 + 4) = {13.31095636952468, 3.918755881854432, 0};
Point(p15 + 5) = {13.23953249470137, 4.002382494701373, 0};
Point(p15 + 6) = {13.15590588185443, 4.073806369524676, 0};
Point(p15 + 7) = {13.06213569573296, 4.131268813483942, 0};
Point(p15 + 8) = {12.96053086952468, 4.173354910501975, 0};
Point(p15 + 9) = {12.85359325125791, 4.199028361194443, 0};
Point(p15 + 10) = {12.743956, 4.207657, 0};
Point(p15 + 11) = {12.63431874874209, 4.199028361194443, 0};
Point(p15 + 12) = {12.52738113047532, 4.173354910501975, 0};
Point(p15 + 13) = {12.42577630426704, 4.131268813483942, 0};
Point(p15 + 14) = {12.33200611814557, 4.073806369524676, 0};
Point(p15 + 15) = {12.24837950529863, 4.002382494701373, 0};
Point(p15 + 16) = {12.17695563047532, 3.918755881854432, 0};
Point(p15 + 17) = {12.11949318651606, 3.824985695732961, 0};
Point(p15 + 18) = {12.07740708949803, 3.723380869524676, 0};
Point(p15 + 19) = {12.05173363880556, 3.616443251257911, 0};
Point(p15 + 20) = {12.043105, 3.506806, 0};
Point(p15 + 21) = {12.05173363880556, 3.397168748742089, 0};
Point(p15 + 22) = {12.07740708949803, 3.290231130475324, 0};
Point(p15 + 23) = {12.11949318651606, 3.188626304267039, 0};
Point(p15 + 24) = {12.17695563047532, 3.094856118145568, 0};
Point(p15 + 25) = {12.24837950529863, 3.011229505298627, 0};
Point(p15 + 26) = {12.33200611814557, 2.939805630475324, 0};
Point(p15 + 27) = {12.42577630426704, 2.882343186516058, 0};
Point(p15 + 28) = {12.52738113047532, 2.840257089498025, 0};
Point(p15 + 29) = {12.63431874874209, 2.814583638805557, 0};
Point(p15 + 30) = {12.743956, 2.805955, 0};
Point(p15 + 31) = {12.85359325125791, 2.814583638805557, 0};
Point(p15 + 32) = {12.96053086952468, 2.840257089498025, 0};
Point(p15 + 33) = {13.06213569573296, 2.882343186516058, 0};
Point(p15 + 34) = {13.15590588185443, 2.939805630475324, 0};
Point(p15 + 35) = {13.23953249470137, 3.011229505298627, 0};
Point(p15 + 36) = {13.31095636952468, 3.094856118145568, 0};
Point(p15 + 37) = {13.36841881348394, 3.188626304267039, 0};
Point(p15 + 38) = {13.41050491050198, 3.290231130475324, 0};
Point(p15 + 39) = {13.43617836119444, 3.397168748742089, 0};
Spline(15) = {10, p15 + 1, p15 + 2, p15 + 3, p15 + 4, p15 + 5, p15 + 6, p15 + 7, p15 + 8, p15 + 9, p15 + 10, p15 + 11, p15 + 12, p15 + 13, p15 + 14, p15 + 15, p15 + 16, p15 + 17, p15 + 18, p15 + 19, p15 + 20, p15 + 21, p15 + 22, p15 + 23, p15 + 24, p15 + 25, p15 + 26, p15 + 27, p15 + 28, p15 + 29, p15 + 30, p15 + 31, p15 + 32, p15 + 33, p15 + 34, p15 + 35, p15 + 36, p15 + 37, p15 + 38, p15 + 39, 10};
p16 = newp;
Point(p16 + 1) = {12.56161205934817, 1.683557649896124, 0.1};
Point(p16 + 2) = {12.52530966504411, 1.834768004544533, 0.1};
Point(p16 + 3) = {12.46579970251634, 1.978437763175389, 0.1};
Point(p16 + 4) = {12.38454750454453, 2.111029299518607, 0.1};
Point(p16 + 5) = {12.28355376990334, 2.229277769903337, 0.1};
Point(p16 + 6) = {12.16530529951861, 2.330271504544533, 0.1};
Point(p16 + 7) = {12.03271376317539, 2.411523702516342, 0.1};
Point(p16 + 8) = {11.88904400454453, 2.471033665044111, 0.1};
Point(p16 + 9) = {11.73783364989612, 2.507336059348166, 0.1};
Point(p16 + 10) = {11.582806, 2.519537, 0.1};
Point(p16 + 11) = {11.42777835010387, 2.507336059348166, 0.1};
Point(p16 + 12) = {11.27656799545547, 2.471033665044111, 0.1};
Point(p16 + 13) = {11.13289823682461, 2.411523702516342, 0.1};
Point(p16 + 14) = {11.00030670048139, 2.330271504544533, 0.1};
Point(p16 + 15) = {10.88205823009666, 2.229277769903337, 0.1};
Point(p16 + 16) = {10.78106449545547, 2.111029299518607, 0.1};
Point(p16 + 17) = {10.69981229748366, 1.978437763175389, 0.1};
Point(p16 + 18) = {10.64030233495589, 1.834768004544534, 0.1};
Point(p16 + 19) = {10.60399994065183, 1.683557649896124, 0.1};
Point(p16 + 20) = {10.591799, 1.52853, 0.1};
Point(p16 + 21) = {10.60399994065183, 1.373502350103876, 0.1};
Point(p16 + 22) = {10.64030233495589, 1.222291995455466, 0.1};
Point(p16 + 23) = {10.69981229748366, 1.078622236824611, 0.1};
Point(p16 + 24) = {10.78106449545547, 0.9460307004813931, 0.1};
Point(p16 + 25) = {10.88205823009666, 0.8277822300966631, 0.1};
Point(p16 + 26) = {11.00030670048139, 0.7267884954554665, 0.1};
Point(p16 + 27) = {11.13289823682461, 0.6455362974836582, 0.1};
Point(p16 + 28) = {11.27656799545547, 0.5860263349558887, 0.1};
Point(p16 + 29) = {11.42777835010387, 0.5497239406518344, 0.1};
Point(p16 + 30) = {11.582806, 0.537523, 0.1};
Point(p16 + 31) = {11.73783364989612, 0.5497239406518343, 0.1};
Point(p16 + 32) = {11.88904400454453, 0.5860263349558886, 0.1};
Point(p16 + 33) = {12.03271376317539, 0.6455362974836579, 0.1};
Point(p16 + 34) = {12.16530529951861, 0.7267884954554663, 0.1};
Point(p16 + 35) = {12.28355376990334, 0.8277822300966629, 0.1};
Point(p16 + 36) = {12.38454750454453, 0.9460307004813929, 0.1};
Point(p16 + 37) = {12.46579970251634, 1.078622236824611, 0.1};
Point(p16 + 38) = {12.52530966504411, 1.222291995455466, 0.1};
Point(p16 + 39) = {12.56161205934817, 1.373502350103876, 0.1};
Spline(16) = {11, p16 + 1, p16 + 2, p16 + 3, p16 + 4, p16 + 5, p16 + 6, p16 + 7, p16 + 8, p16 + 9, p16 + 10, p16 + 11, p16 + 12, p16 + 13, p16 + 14, p16 + 15, p16 + 16, p16 + 17, p16 + 18, p16 + 19, p16 + 20, p16 + 21, p16 + 22, p16 + 23, p16 + 24, p16 + 25, p16 + 26, p16 + 27, p16 + 28, p16 + 29, p16 + 30, p16 + 31, p16 + 32, p16 + 33, p16 + 34, p16 + 35, p16 + 36, p16 + 37, p16 + 38, p16 + 39, 11};
Line(17) = {12, 11};
p18 = newp;
Point(p18 + 1) = {12.56161205934817, 1.683557649896124, 0};
Point(p18 + 2) = {12.52530966504411, 1.834768004544533, 0};
Point(p18 + 3) = {12.46579970251634, 1.978437763175389, 0};
Point(p18 + 4) = {12.38454750454453, 2.111029299518607, 0};
Point(p18 + 5) = {12.28355376990334, 2.229277769903337, 0};
Point(p18 + 6) = {12.16530529951861, 2.330271504544533, 0};
Point(p18 + 7) = {12.03271376317539, 2.411523702516342, 0};
Point(p18 + 8) = {11.88904400454453, 2.471033665044111, 0};
Point(p18 + 9) = {11.73783364989612, 2.507336059348166, 0};
Point(p18 + 10) = {11.582806, 2.519537, 0};
Point(p18 + 11) = {11.42777835010387, 2.507336059348166, 0};
Point(p18 + 12) = {11.27656799545547, 2.471033665044111, 0};
Point(p18 + 13) = {11.13289823682461, 2.411523702516342, 0};
Point(p18 + 14) = {11.00030670048139, 2.330271504544533, 0};
Point(p18 + 15) = {10.88205823009666, 2.229277769903337, 0};
Point(p18 + 16) = {10.78106449545547, 2.111029299518607, 0};
Point(p18 + 17) = {10.69981229748366, 1.978437763175389, 0};
Point(p18 + 18) = {10.64030233495589, 1.834768004544534, 0};
Point(p18 + 19) = {10.60399994065183, 1.683557649896124, 0};
Point(p18 + 20) = {10.591799, 1.52853, 0};
Point(p18 + 21) = {10.60399994065183, 1.373502350103876, 0};
Point(p18 + 22) = {10.64030233495589, 1.222291995455466, 0};
Point(p18 + 23) = {10.69981229748366, 1.078622236824611, 0};
Point(p18 + 24) = {10.78106449545547, 0.9460307004813931, 0};
Point(p18 + 25) = {10.88205823009666, 0.8277822300966631, 0};
Point(p18 + 26) = {11.00030670048139, 0.7267884954554665, 0};
Point(p18 + 27) = {11.13289823682461, 0.6455362974836582, 0};
Point(p18 + 28) = {11.27656799545547, 0.5860263349558887, 0};
Point(p18 + 29) = {11.42777835010387, 0.5497239406518344, 0};
Point(p18 + 30) = {11.582806, 0.537523, 0};
Point(p18 + 31) = {11.73783364989612, 0.5497239406518343, 0};
Point(p18 + 32) = {11.88904400454453, 0.5860263349558886, 0};
Point(p18 + 33) = {12.03271376317539, 0.6455362974836579, 0};
Point(p18 + 34) = {12.16530529951861, 0.7267884954554663, 0};
Point(p18 + 35) = {12.28355376990334, 0.8277822300966629, 0};
Point(p18 + 36) = {12.38454750454453, 0.9460307004813929, 0};
Point(p18 + 37) = {12.46579970251634, 1.078622236824611, 0};
Point(p18 + 38) = {12.52530966504411, 1.222291995455466, 0};
Point(p18 + 39) = {12.56161205934817, 1.373502350103876, 0};
Spline(18) = {12, p18 + 1, p18 + 2, p18 + 3, p18 + 4, p18 + 5, p18 + 6, p18 + 7, p18 + 8, p18 + 9, p18 + 10, p18 + 11, p18 + 12, p18 + 13, p18 + 14, p18 + 15, p18 + 16, p18 + 17, p18 + 18, p18 + 19, p18 + 20, p18 + 21, p18 + 22, p18 + 23, p18 + 24, p18 + 25, p18 + 26, p18 + 27, p18 + 28, p18 + 29, p18 + 30, p18 + 31, p18 + 32, p18 + 33, p18 + 34, p18 + 35, p18 + 36, p18 + 37, p18 + 38, p18 + 39, 12};
Line(19) = {14, 13};
Line(20) = {13, 15};
Line(21) = {16, 15};
Line(22) = {14, 16};
Line(23) = {14, 17};
Line(24) = {17, 18};
Line(25) = {13, 18};
Line(26) = {15, 19};
Line(27) = {18, 19};
Line(28) = {16, 20};
Line(29) = {20, 19};
Line(30) = {17, 20};
Curve Loop(7) = {-13, -14, 15, 14};
Surface(7) = {7};
Curve Loop(8) = {13};
Plane Surface(8) = {8};
Curve Loop(9) = {15};
Plane Surface(9) = {9};
Curve Loop(10) = {-16, -17, 18, 17};
Surface(10) = {10};
Curve Loop(11) = {16};
Plane Surface(11) = {11};
Curve Loop(12) = {18};
Plane Surface(12) = {12};
Curve Loop(13) = {-19, 22, 21, -20};
Plane Surface(13) = {13};
Curve Loop(14) = {-23, 19, 25, -24};
Plane Surface(14) = {14};
Curve Loop(15) = {-20, 25, 27, -26};
Plane Surface(15) = {15};
Curve Loop(16) = {-28, 21, 26, -29};
Plane Surface(16) = {16};
Curve Loop(17) = {-22, 23, 30, -28, -18, -15};
Plane Surface(17) = {17};
Curve Loop(18) = {-24, 30, 29, -27};
Plane Surface(18) = {18};
Surface Loop(1) = {13, 14, 15, 16, 17, 18, 10, 7, 11, 8};
Volume(1) = {1};
Surface Loop(2) = {7, 8, 9};
Volume(2) = {2};
Surface Loop(3) = {10, 11, 12};
Volume(3) = {3};
Physical Surface("WALLS") = {13, 18};
Physical Surface("LOAD") = {8, 11};
Physical Surface("BORDER") = {7, 9, 10, 12, 14, 15, 16, 17};
Physical Volume("SOLID") = {1, 2, 3};
