cl__1 = 0.113127;
cl__2 = 0.057134;
cl__3 = 3.474051;
cl__4 = 2.969249;
cl__5 = 0.438417;
cl__6 = 0.609745;
Point(9) = {26.532752, -1.287712, 0.1, cl__1};
Point(10) = {26.532752, -1.287712, 0, cl__1};
Point(11) = {18.548479, 2.762924, 0.1, cl__2};
Point(12) = {18.548479, 2.762924, 0, cl__2};
Point(13) = {0.286524, -3.327757, 1, cl__3};
Point(14) = {0.286524, -3.327757, 0, cl__3};
Point(15) = {0.286524, 4.591182, 1, cl__4};
Point(16) = {0.286524, 4.591182, 0, cl__4};
Point(17) = {31.448484, -3.327757, 0, cl__5};
Point(18) = {31.448484, -3.327757, 1, cl__5};
Point(19) = {31.448484, 4.591182, 1, cl__6};
Point(20) = {31.448484, 4.591182, 0, cl__6};
p13 = newp;
Point(p13 + 1) = {26.51882415213008, -1.110741913430543, 0.1};
Point(p13 + 2) = {26.47738355835877, -0.9381294177224702, 0.1};
Point(p13 + 3) = {26.40945062363815, -0.7741248053881437, 0.1};
Point(p13 + 4) = {26.31669808227753, -0.622766414283337, 0.1};
Point(p13 + 5) = {26.20140980967325, -0.4877811903267509, 0.1};
Point(p13 + 6) = {26.06642458571666, -0.3724929177224702, 0.1};
Point(p13 + 7) = {25.91506619461185, -0.2797403763618527, 0.1};
Point(p13 + 8) = {25.75106158227753, -0.2118074416412328, 0.1};
Point(p13 + 9) = {25.57844908656946, -0.1703668478699167, 0.1};
Point(p13 + 10) = {25.401479, -0.156439, 0.1};
Point(p13 + 11) = {25.22450891343054, -0.1703668478699167, 0.1};
Point(p13 + 12) = {25.05189641772247, -0.2118074416412326, 0.1};
Point(p13 + 13) = {24.88789180538814, -0.2797403763618524, 0.1};
Point(p13 + 14) = {24.73653341428334, -0.3724929177224701, 0.1};
Point(p13 + 15) = {24.60154819032675, -0.4877811903267507, 0.1};
Point(p13 + 16) = {24.48625991772247, -0.6227664142833369, 0.1};
Point(p13 + 17) = {24.39350737636185, -0.7741248053881435, 0.1};
Point(p13 + 18) = {24.32557444164123, -0.9381294177224699, 0.1};
Point(p13 + 19) = {24.28413384786991, -1.110741913430543, 0.1};
Point(p13 + 20) = {24.270206, -1.287712, 0.1};
Point(p13 + 21) = {24.28413384786991, -1.464682086569457, 0.1};
Point(p13 + 22) = {24.32557444164123, -1.63729458227753, 0.1};
Point(p13 + 23) = {24.39350737636185, -1.801299194611856, 0.1};
Point(p13 + 24) = {24.48625991772247, -1.952657585716663, 0.1};
Point(p13 + 25) = {24.60154819032675, -2.087642809673249, 0.1};
Point(p13 + 26) = {24.73653341428334, -2.20293108227753, 0.1};
Point(p13 + 27) = {24.88789180538814, -2.295683623638147, 0.1};
Point(p13 + 28) = {25.05189641772247, -2.363616558358767, 0.1};
Point(p13 + 29) = {25.22450891343054, -2.405057152130083, 0.1};
Point(p13 + 30) = {25.401479, -2.418985, 0.1};
Point(p13 + 31) = {25.57844908656946, -2.405057152130083, 0.1};
Point(p13 + 32) = {25.75106158227753, -2.363616558358768, 0.1};
Point(p13 + 33) = {25.91506619461185, -2.295683623638148, 0.1};
Point(p13 + 34) = {26.06642458571666, -2.20293108227753, 0.1};
Point(p13 + 35) = {26.20140980967325, -2.087642809673249, 0.1};
Point(p13 + 36) = {26.31669808227753, -1.952657585716663, 0.1};
Point(p13 + 37) = {26.40945062363815, -1.801299194611857, 0.1};
Point(p13 + 38) = {26.47738355835877, -1.63729458227753, 0.1};
Point(p13 + 39) = {26.51882415213008, -1.464682086569457, 0.1};
Spline(13) = {9, p13 + 1, p13 + 2, p13 + 3, p13 + 4, p13 + 5, p13 + 6, p13 + 7, p13 + 8, p13 + 9, p13 + 10, p13 + 11, p13 + 12, p13 + 13, p13 + 14, p13 + 15, p13 + 16, p13 + 17, p13 + 18, p13 + 19, p13 + 20, p13 + 21, p13 + 22, p13 + 23, p13 + 24, p13 + 25, p13 + 26, p13 + 27, p13 + 28, p13 + 29, p13 + 30, p13 + 31, p13 + 32, p13 + 33, p13 + 34, p13 + 35, p13 + 36, p13 + 37, p13 + 38, p13 + 39, 9};
Line(14) = {10, 9};
p15 = newp;
Point(p15 + 1) = {26.51882415213008, -1.110741913430543, 0};
Point(p15 + 2) = {26.47738355835877, -0.9381294177224702, 0};
Point(p15 + 3) = {26.40945062363815, -0.7741248053881437, 0};
Point(p15 + 4) = {26.31669808227753, -0.622766414283337, 0};
Point(p15 + 5) = {26.20140980967325, -0.4877811903267509, 0};
Point(p15 + 6) = {26.06642458571666, -0.3724929177224702, 0};
Point(p15 + 7) = {25.91506619461185, -0.2797403763618527, 0};
Point(p15 + 8) = {25.75106158227753, -0.2118074416412328, 0};
Point(p15 + 9) = {25.57844908656946, -0.1703668478699167, 0};
Point(p15 + 10) = {25.401479, -0.156439, 0};
Point(p15 + 11) = {25.22450891343054, -0.1703668478699167, 0};
Point(p15 + 12) = {25.05189641772247, -0.2118074416412326, 0};
Point(p15 + 13) = {24.88789180538814, -0.2797403763618524, 0};
Point(p15 + 14) = {24.73653341428334, -0.3724929177224701, 0};
Point(p15 + 15) = {24.60154819032675, -0.4877811903267507, 0};
Point(p15 + 16) = {24.48625991772247, -0.6227664142833369, 0};
Point(p15 + 17) = {24.39350737636185, -0.7741248053881435, 0};
Point(p15 + 18) = {24.32557444164123, -0.9381294177224699, 0};
Point(p15 + 19) = {24.28413384786991, -1.110741913430543, 0};
Point(p15 + 20) = {24.270206, -1.287712, 0};
Point(p15 + 21) = {24.28413384786991, -1.464682086569457, 0};
Point(p15 + 22) = {24.32557444164123, -1.63729458227753, 0};
Point(p15 + 23) = {24.39350737636185, -1.801299194611856, 0};
Point(p15 + 24) = {24.48625991772247, -1.952657585716663, 0};
Point(p15 + 25) = {24.60154819032675, -2.087642809673249, 0};
Point(p15 + 26) = {24.73653341428334, -2.20293108227753, 0};
Point(p15 + 27) = {24.88789180538814, -2.295683623638147, 0};
Point(p15 + 28) = {25.05189641772247, -2.363616558358767, 0};
Point(p15 + 29) = {25.22450891343054, -2.405057152130083, 0};
Point(p15 + 30) = {25.401479, -2.418985, 0};
Point(p15 + 31) = {25.57844908656946, -2.405057152130083, 0};
Point(p15 + 32) = {25.75106158227753, -2.363616558358768, 0};
Point(p15 + 33) = {25.91506619461185, -2.295683623638148, 0};
Point(p15 + 34) = {26.06642458571666, -2.20293108227753, 0};
Point(p15 + 35) = {26.20140980967325, -2.087642809673249, 0};
Point(p15 + 36) = {26.31669808227753, -1.952657585716663, 0};
Point(p15 + 37) = {26.40945062363815, -1.801299194611857, 0};
Point(p15 + 38) = {26.47738355835877, -1.63729458227753, 0};
Point(p15 + 39) = {26.51882415213008, -1.464682086569457, 0};
Spline(15) = {10, p15 + 1, p15 + 2, p15 + 3, p15 + 4, p15 + 5, p15 + 6, p15 + 7, p15 + 8, p15 + 9, p15 + 10, p15 + 11, p15 + 12, p15 + 13, p15 + 14, p15 + 15, p15 + 16, p15 + 17, p15 + 18, p15 + 19, p15 + 20, p15 + 21, p15 + 22, p15 + 23, p15 + 24, p15 + 25, p15 + 26, p15 + 27, p15 + 28, p15 + 29, p15 + 30, p15 + 31, p15 + 32, p15 + 33, p15 + 34, p15 + 35, p15 + 36, p15 + 37, p15 + 38, p15 + 39, 10};
p16 = newp;
Point(p16 + 1) = {18.54144480726899, 2.852301892993946, 0.1};
Point(p16 + 2) = {18.52051543424614, 2.93947900563416, 0.1};
Point(p16 + 3) = {18.48620623155588, 3.022308748083192, 0.1};
Point(p16 + 4) = {18.43936200563416, 3.098751577185791, 0.1};
Point(p16 + 5) = {18.38113621679025, 3.166925216790247, 0.1};
Point(p16 + 6) = {18.31296257718579, 3.22515100563416, 0.1};
Point(p16 + 7) = {18.23651974808319, 3.271995231555879, 0.1};
Point(p16 + 8) = {18.15369000563416, 3.306304434246138, 0.1};
Point(p16 + 9) = {18.06651289299394, 3.327233807268988, 0.1};
Point(p16 + 10) = {17.977135, 3.334268, 0.1};
Point(p16 + 11) = {17.88775710700606, 3.327233807268988, 0.1};
Point(p16 + 12) = {17.80057999436584, 3.306304434246138, 0.1};
Point(p16 + 13) = {17.71775025191681, 3.271995231555879, 0.1};
Point(p16 + 14) = {17.64130742281421, 3.22515100563416, 0.1};
Point(p16 + 15) = {17.57313378320976, 3.166925216790247, 0.1};
Point(p16 + 16) = {17.51490799436584, 3.098751577185791, 0.1};
Point(p16 + 17) = {17.46806376844412, 3.022308748083192, 0.1};
Point(p16 + 18) = {17.43375456575386, 2.93947900563416, 0.1};
Point(p16 + 19) = {17.41282519273101, 2.852301892993946, 0.1};
Point(p16 + 20) = {17.405791, 2.762924, 0.1};
Point(p16 + 21) = {17.41282519273101, 2.673546107006054, 0.1};
Point(p16 + 22) = {17.43375456575386, 2.58636899436584, 0.1};
Point(p16 + 23) = {17.46806376844412, 2.503539251916809, 0.1};
Point(p16 + 24) = {17.51490799436584, 2.427096422814209, 0.1};
Point(p16 + 25) = {17.57313378320976, 2.358922783209753, 0.1};
Point(p16 + 26) = {17.64130742281421, 2.30069699436584, 0.1};
Point(p16 + 27) = {17.71775025191681, 2.253852768444121, 0.1};
Point(p16 + 28) = {17.80057999436584, 2.219543565753862, 0.1};
Point(p16 + 29) = {17.88775710700606, 2.198614192731012, 0.1};
Point(p16 + 30) = {17.977135, 2.19158, 0.1};
Point(p16 + 31) = {18.06651289299394, 2.198614192731012, 0.1};
Point(p16 + 32) = {18.15369000563416, 2.219543565753862, 0.1};
Point(p16 + 33) = {18.23651974808319, 2.253852768444121, 0.1};
Point(p16 + 34) = {18.31296257718579, 2.30069699436584, 0.1};
Point(p16 + 35) = {18.38113621679025, 2.358922783209753, 0.1};
Point(p16 + 36) = {18.43936200563416, 2.427096422814209, 0.1};
Point(p16 + 37) = {18.48620623155588, 2.503539251916808, 0.1};
Point(p16 + 38) = {18.52051543424614, 2.58636899436584, 0.1};
Point(p16 + 39) = {18.54144480726899, 2.673546107006054, 0.1};
Spline(16) = {11, p16 + 1, p16 + 2, p16 + 3, p16 + 4, p16 + 5, p16 + 6, p16 + 7, p16 + 8, p16 + 9, p16 + 10, p16 + 11, p16 + 12, p16 + 13, p16 + 14, p16 + 15, p16 + 16, p16 + 17, p16 + 18, p16 + 19, p16 + 20, p16 + 21, p16 + 22, p16 + 23, p16 + 24, p16 + 25, p16 + 26, p16 + 27, p16 + 28, p16 + 29, p16 + 30, p16 + 31, p16 + 32, p16 + 33, p16 + 34, p16 + 35, p16 + 36, p16 + 37, p16 + 38, p16 + 39, 11};
Line(17) = {12, 11};
p18 = newp;
Point(p18 + 1) = {18.54144480726899, 2.852301892993946, 0};
Point(p18 + 2) = {18.52051543424614, 2.93947900563416, 0};
Point(p18 + 3) = {18.48620623155588, 3.022308748083192, 0};
Point(p18 + 4) = {18.43936200563416, 3.098751577185791, 0};
Point(p18 + 5) = {18.38113621679025, 3.166925216790247, 0};
Point(p18 + 6) = {18.31296257718579, 3.22515100563416, 0};
Point(p18 + 7) = {18.23651974808319, 3.271995231555879, 0};
Point(p18 + 8) = {18.15369000563416, 3.306304434246138, 0};
Point(p18 + 9) = {18.06651289299394, 3.327233807268988, 0};
Point(p18 + 10) = {17.977135, 3.334268, 0};
Point(p18 + 11) = {17.88775710700606, 3.327233807268988, 0};
Point(p18 + 12) = {17.80057999436584, 3.306304434246138, 0};
Point(p18 + 13) = {17.71775025191681, 3.271995231555879, 0};
Point(p18 + 14) = {17.64130742281421, 3.22515100563416, 0};
Point(p18 + 15) = {17.57313378320976, 3.166925216790247, 0};
Point(p18 + 16) = {17.51490799436584, 3.098751577185791, 0};
Point(p18 + 17) = {17.46806376844412, 3.022308748083192, 0};
Point(p18 + 18) = {17.43375456575386, 2.93947900563416, 0};
Point(p18 + 19) = {17.41282519273101, 2.852301892993946, 0};
Point(p18 + 20) = {17.405791, 2.762924, 0};
Point(p18 + 21) = {17.41282519273101, 2.673546107006054, 0};
Point(p18 + 22) = {17.43375456575386, 2.58636899436584, 0};
Point(p18 + 23) = {17.46806376844412, 2.503539251916809, 0};
Point(p18 + 24) = {17.51490799436584, 2.427096422814209, 0};
Point(p18 + 25) = {17.57313378320976, 2.358922783209753, 0};
Point(p18 + 26) = {17.64130742281421, 2.30069699436584, 0};
Point(p18 + 27) = {17.71775025191681, 2.253852768444121, 0};
Point(p18 + 28) = {17.80057999436584, 2.219543565753862, 0};
Point(p18 + 29) = {17.88775710700606, 2.198614192731012, 0};
Point(p18 + 30) = {17.977135, 2.19158, 0};
Point(p18 + 31) = {18.06651289299394, 2.198614192731012, 0};
Point(p18 + 32) = {18.15369000563416, 2.219543565753862, 0};
Point(p18 + 33) = {18.23651974808319, 2.253852768444121, 0};
Point(p18 + 34) = {18.31296257718579, 2.30069699436584, 0};
Point(p18 + 35) = {18.38113621679025, 2.358922783209753, 0};
Point(p18 + 36) = {18.43936200563416, 2.427096422814209, 0};
Point(p18 + 37) = {18.48620623155588, 2.503539251916808, 0};
Point(p18 + 38) = {18.52051543424614, 2.58636899436584, 0};
Point(p18 + 39) = {18.54144480726899, 2.673546107006054, 0};
Spline(18) = {12, p18 + 1, p18 + 2, p18 + 3, p18 + 4, p18 + 5, p18 + 6, p18 + 7, p18 + 8, p18 + 9, p18 + 10, p18 + 11, p18 + 12, p18 + 13, p18 + 14, p18 + 15, p18 + 16, p18 + 17, p18 + 18, p18 + 19, p18 + 20, p18 + 21, p18 + 22, p18 + 23, p18 + 24, p18 + 25, p18 + 26, p18 + 27, p18 + 28, p18 + 29, p18 + 30, p18 + 31, p18 + 32, p18 + 33, p18 + 34, p18 + 35, p18 + 36, p18 + 37, p18 + 38, p18 + 39, 12};
Line(19) = {14, 13};
Line(20) = {13, 15};
Line(21) = {16, 15};
Line(22) = {14, 16};
Line(23) = {14, 17};
Line(24) = {17, 18};
Line(25) = {13, 18};
Line(26) = {15, 19};
Line(27) = {18, 19};
Line(28) = {16, 20};
Line(29) = {20, 19};
Line(30) = {17, 20};
Curve Loop(7) = {-13, -14, 15, 14};
Surface(7) = {7};
Curve Loop(8) = {13};
Plane Surface(8) = {8};
Curve Loop(9) = {15};
Plane Surface(9) = {9};
Curve Loop(10) = {-16, -17, 18, 17};
Surface(10) = {10};
Curve Loop(11) = {16};
Plane Surface(11) = {11};
Curve Loop(12) = {18};
Plane Surface(12) = {12};
Curve Loop(13) = {-19, 22, 21, -20};
Plane Surface(13) = {13};
Curve Loop(14) = {-23, 19, 25, -24};
Plane Surface(14) = {14};
Curve Loop(15) = {-20, 25, 27, -26};
Plane Surface(15) = {15};
Curve Loop(16) = {-28, 21, 26, -29};
Plane Surface(16) = {16};
Curve Loop(17) = {-22, 23, 30, -28, -15, -18};
Plane Surface(17) = {17};
Curve Loop(18) = {-24, 30, 29, -27};
Plane Surface(18) = {18};
Surface Loop(1) = {13, 14, 15, 16, 17, 18, 7, 10, 8, 11};
Volume(1) = {1};
Surface Loop(2) = {7, 8, 9};
Volume(2) = {2};
Surface Loop(3) = {10, 11, 12};
Volume(3) = {3};
Physical Surface("WALLS") = {13, 18};
Physical Surface("LOAD") = {8, 11};
Physical Surface("BORDER") = {7, 9, 10, 12, 14, 15, 16, 17};
Physical Volume("SOLID") = {1, 2, 3};
