cl__1 = 0.056625;
cl__2 = 0.128237;
cl__3 = 0.445407;
cl__4 = 0.864718;
cl__5 = 2.676583;
cl__6 = 2.204287;
Point(9) = {4.744554, -1.889001, 0.1, cl__1};
Point(10) = {4.744554, -1.889001, 0, cl__1};
Point(11) = {24.737881, 1.946842, 0.1, cl__2};
Point(12) = {24.737881, 1.946842, 0, cl__2};
Point(13) = {0.107817, -3.031026, 1, cl__3};
Point(14) = {0.107817, -3.031026, 0, cl__3};
Point(15) = {0.107817, 4.617137, 1, cl__4};
Point(16) = {0.107817, 4.617137, 0, cl__4};
Point(17) = {35.134792, -3.031026, 0, cl__5};
Point(18) = {35.134792, -3.031026, 1, cl__5};
Point(19) = {35.134792, 4.617137, 1, cl__6};
Point(20) = {35.134792, 4.617137, 0, cl__6};
p13 = newp;
Point(p13 + 1) = {4.737582559796975, -1.800420453474364, 0.1};
Point(p13 + 2) = {4.716839899182582, -1.714021053986169, 0.1};
Point(p13 + 3) = {4.682836771302091, -1.631930241493981, 0.1};
Point(p13 + 4) = {4.636410446013831, -1.556169364245144, 0.1};
Point(p13 + 5) = {4.57870409352654, -1.488603906473461, 0.1};
Point(p13 + 6) = {4.511138635754857, -1.430897553986169, 0.1};
Point(p13 + 7) = {4.43537775850602, -1.384471228697909, 0.1};
Point(p13 + 8) = {4.353286946013831, -1.350468100817418, 0.1};
Point(p13 + 9) = {4.266887546525636, -1.329725440203025, 0.1};
Point(p13 + 10) = {4.178307, -1.322754, 0.1};
Point(p13 + 11) = {4.089726453474364, -1.329725440203025, 0.1};
Point(p13 + 12) = {4.00332705398617, -1.350468100817418, 0.1};
Point(p13 + 13) = {3.921236241493981, -1.384471228697909, 0.1};
Point(p13 + 14) = {3.845475364245144, -1.430897553986169, 0.1};
Point(p13 + 15) = {3.777909906473461, -1.488603906473461, 0.1};
Point(p13 + 16) = {3.72020355398617, -1.556169364245144, 0.1};
Point(p13 + 17) = {3.67377722869791, -1.631930241493981, 0.1};
Point(p13 + 18) = {3.639774100817418, -1.714021053986169, 0.1};
Point(p13 + 19) = {3.619031440203025, -1.800420453474364, 0.1};
Point(p13 + 20) = {3.61206, -1.889001, 0.1};
Point(p13 + 21) = {3.619031440203025, -1.977581546525635, 0.1};
Point(p13 + 22) = {3.639774100817418, -2.063980946013831, 0.1};
Point(p13 + 23) = {3.673777228697909, -2.146071758506019, 0.1};
Point(p13 + 24) = {3.72020355398617, -2.221832635754856, 0.1};
Point(p13 + 25) = {3.777909906473461, -2.289398093526539, 0.1};
Point(p13 + 26) = {3.845475364245144, -2.347104446013831, 0.1};
Point(p13 + 27) = {3.921236241493981, -2.393530771302091, 0.1};
Point(p13 + 28) = {4.003327053986169, -2.427533899182582, 0.1};
Point(p13 + 29) = {4.089726453474364, -2.448276559796975, 0.1};
Point(p13 + 30) = {4.178307, -2.455248, 0.1};
Point(p13 + 31) = {4.266887546525636, -2.448276559796975, 0.1};
Point(p13 + 32) = {4.353286946013831, -2.427533899182582, 0.1};
Point(p13 + 33) = {4.43537775850602, -2.393530771302091, 0.1};
Point(p13 + 34) = {4.511138635754856, -2.347104446013831, 0.1};
Point(p13 + 35) = {4.57870409352654, -2.289398093526539, 0.1};
Point(p13 + 36) = {4.636410446013831, -2.221832635754856, 0.1};
Point(p13 + 37) = {4.682836771302091, -2.146071758506019, 0.1};
Point(p13 + 38) = {4.716839899182582, -2.063980946013831, 0.1};
Point(p13 + 39) = {4.737582559796975, -1.977581546525636, 0.1};
Spline(13) = {9, p13 + 1, p13 + 2, p13 + 3, p13 + 4, p13 + 5, p13 + 6, p13 + 7, p13 + 8, p13 + 9, p13 + 10, p13 + 11, p13 + 12, p13 + 13, p13 + 14, p13 + 15, p13 + 16, p13 + 17, p13 + 18, p13 + 19, p13 + 20, p13 + 21, p13 + 22, p13 + 23, p13 + 24, p13 + 25, p13 + 26, p13 + 27, p13 + 28, p13 + 29, p13 + 30, p13 + 31, p13 + 32, p13 + 33, p13 + 34, p13 + 35, p13 + 36, p13 + 37, p13 + 38, p13 + 39, 9};
Line(14) = {10, 9};
p15 = newp;
Point(p15 + 1) = {4.737582559796975, -1.800420453474364, 0};
Point(p15 + 2) = {4.716839899182582, -1.714021053986169, 0};
Point(p15 + 3) = {4.682836771302091, -1.631930241493981, 0};
Point(p15 + 4) = {4.636410446013831, -1.556169364245144, 0};
Point(p15 + 5) = {4.57870409352654, -1.488603906473461, 0};
Point(p15 + 6) = {4.511138635754857, -1.430897553986169, 0};
Point(p15 + 7) = {4.43537775850602, -1.384471228697909, 0};
Point(p15 + 8) = {4.353286946013831, -1.350468100817418, 0};
Point(p15 + 9) = {4.266887546525636, -1.329725440203025, 0};
Point(p15 + 10) = {4.178307, -1.322754, 0};
Point(p15 + 11) = {4.089726453474364, -1.329725440203025, 0};
Point(p15 + 12) = {4.00332705398617, -1.350468100817418, 0};
Point(p15 + 13) = {3.921236241493981, -1.384471228697909, 0};
Point(p15 + 14) = {3.845475364245144, -1.430897553986169, 0};
Point(p15 + 15) = {3.777909906473461, -1.488603906473461, 0};
Point(p15 + 16) = {3.72020355398617, -1.556169364245144, 0};
Point(p15 + 17) = {3.67377722869791, -1.631930241493981, 0};
Point(p15 + 18) = {3.639774100817418, -1.714021053986169, 0};
Point(p15 + 19) = {3.619031440203025, -1.800420453474364, 0};
Point(p15 + 20) = {3.61206, -1.889001, 0};
Point(p15 + 21) = {3.619031440203025, -1.977581546525635, 0};
Point(p15 + 22) = {3.639774100817418, -2.063980946013831, 0};
Point(p15 + 23) = {3.673777228697909, -2.146071758506019, 0};
Point(p15 + 24) = {3.72020355398617, -2.221832635754856, 0};
Point(p15 + 25) = {3.777909906473461, -2.289398093526539, 0};
Point(p15 + 26) = {3.845475364245144, -2.347104446013831, 0};
Point(p15 + 27) = {3.921236241493981, -2.393530771302091, 0};
Point(p15 + 28) = {4.003327053986169, -2.427533899182582, 0};
Point(p15 + 29) = {4.089726453474364, -2.448276559796975, 0};
Point(p15 + 30) = {4.178307, -2.455248, 0};
Point(p15 + 31) = {4.266887546525636, -2.448276559796975, 0};
Point(p15 + 32) = {4.353286946013831, -2.427533899182582, 0};
Point(p15 + 33) = {4.43537775850602, -2.393530771302091, 0};
Point(p15 + 34) = {4.511138635754856, -2.347104446013831, 0};
Point(p15 + 35) = {4.57870409352654, -2.289398093526539, 0};
Point(p15 + 36) = {4.636410446013831, -2.221832635754856, 0};
Point(p15 + 37) = {4.682836771302091, -2.146071758506019, 0};
Point(p15 + 38) = {4.716839899182582, -2.063980946013831, 0};
Point(p15 + 39) = {4.737582559796975, -1.977581546525636, 0};
Spline(15) = {10, p15 + 1, p15 + 2, p15 + 3, p15 + 4, p15 + 5, p15 + 6, p15 + 7, p15 + 8, p15 + 9, p15 + 10, p15 + 11, p15 + 12, p15 + 13, p15 + 14, p15 + 15, p15 + 16, p15 + 17, p15 + 18, p15 + 19, p15 + 20, p15 + 21, p15 + 22, p15 + 23, p15 + 24, p15 + 25, p15 + 26, p15 + 27, p15 + 28, p15 + 29, p15 + 30, p15 + 31, p15 + 32, p15 + 33, p15 + 34, p15 + 35, p15 + 36, p15 + 37, p15 + 38, p15 + 39, 10};
p16 = newp;
Point(p16 + 1) = {24.72209288501733, 2.147449021368106, 0.1};
Point(p16 + 2) = {24.67511729585793, 2.343116432093596, 0.1};
Point(p16 + 3) = {24.59811092742996, 2.529026251141502, 0.1};
Point(p16 + 4) = {24.4929699320936, 2.700600761767551, 0.1};
Point(p16 + 5) = {24.36228323009697, 2.853615230096974, 0.1};
Point(p16 + 6) = {24.20926876176755, 2.984301932093596, 0.1};
Point(p16 + 7) = {24.0376942511415, 3.089442927429961, 0.1};
Point(p16 + 8) = {23.8517844320936, 3.166449295857932, 0.1};
Point(p16 + 9) = {23.65611702136811, 3.213424885017327, 0.1};
Point(p16 + 10) = {23.45551, 3.229213, 0.1};
Point(p16 + 11) = {23.25490297863189, 3.213424885017327, 0.1};
Point(p16 + 12) = {23.05923556790641, 3.166449295857932, 0.1};
Point(p16 + 13) = {22.8733257488585, 3.089442927429961, 0.1};
Point(p16 + 14) = {22.70175123823245, 2.984301932093596, 0.1};
Point(p16 + 15) = {22.54873676990303, 2.853615230096974, 0.1};
Point(p16 + 16) = {22.4180500679064, 2.700600761767551, 0.1};
Point(p16 + 17) = {22.31290907257004, 2.529026251141502, 0.1};
Point(p16 + 18) = {22.23590270414207, 2.343116432093596, 0.1};
Point(p16 + 19) = {22.18892711498267, 2.147449021368106, 0.1};
Point(p16 + 20) = {22.173139, 1.946842, 0.1};
Point(p16 + 21) = {22.18892711498267, 1.746234978631894, 0.1};
Point(p16 + 22) = {22.23590270414207, 1.550567567906404, 0.1};
Point(p16 + 23) = {22.31290907257004, 1.364657748858498, 0.1};
Point(p16 + 24) = {22.4180500679064, 1.193083238232449, 0.1};
Point(p16 + 25) = {22.54873676990303, 1.040068769903026, 0.1};
Point(p16 + 26) = {22.70175123823245, 0.9093820679064044, 0.1};
Point(p16 + 27) = {22.8733257488585, 0.8042410725700386, 0.1};
Point(p16 + 28) = {23.05923556790641, 0.7272347041420677, 0.1};
Point(p16 + 29) = {23.25490297863189, 0.6802591149826727, 0.1};
Point(p16 + 30) = {23.45551, 0.664471, 0.1};
Point(p16 + 31) = {23.65611702136811, 0.6802591149826727, 0.1};
Point(p16 + 32) = {23.8517844320936, 0.7272347041420675, 0.1};
Point(p16 + 33) = {24.0376942511415, 0.8042410725700384, 0.1};
Point(p16 + 34) = {24.20926876176755, 0.9093820679064042, 0.1};
Point(p16 + 35) = {24.36228323009697, 1.040068769903026, 0.1};
Point(p16 + 36) = {24.4929699320936, 1.193083238232449, 0.1};
Point(p16 + 37) = {24.59811092742996, 1.364657748858497, 0.1};
Point(p16 + 38) = {24.67511729585793, 1.550567567906404, 0.1};
Point(p16 + 39) = {24.72209288501733, 1.746234978631894, 0.1};
Spline(16) = {11, p16 + 1, p16 + 2, p16 + 3, p16 + 4, p16 + 5, p16 + 6, p16 + 7, p16 + 8, p16 + 9, p16 + 10, p16 + 11, p16 + 12, p16 + 13, p16 + 14, p16 + 15, p16 + 16, p16 + 17, p16 + 18, p16 + 19, p16 + 20, p16 + 21, p16 + 22, p16 + 23, p16 + 24, p16 + 25, p16 + 26, p16 + 27, p16 + 28, p16 + 29, p16 + 30, p16 + 31, p16 + 32, p16 + 33, p16 + 34, p16 + 35, p16 + 36, p16 + 37, p16 + 38, p16 + 39, 11};
Line(17) = {12, 11};
p18 = newp;
Point(p18 + 1) = {24.72209288501733, 2.147449021368106, 0};
Point(p18 + 2) = {24.67511729585793, 2.343116432093596, 0};
Point(p18 + 3) = {24.59811092742996, 2.529026251141502, 0};
Point(p18 + 4) = {24.4929699320936, 2.700600761767551, 0};
Point(p18 + 5) = {24.36228323009697, 2.853615230096974, 0};
Point(p18 + 6) = {24.20926876176755, 2.984301932093596, 0};
Point(p18 + 7) = {24.0376942511415, 3.089442927429961, 0};
Point(p18 + 8) = {23.8517844320936, 3.166449295857932, 0};
Point(p18 + 9) = {23.65611702136811, 3.213424885017327, 0};
Point(p18 + 10) = {23.45551, 3.229213, 0};
Point(p18 + 11) = {23.25490297863189, 3.213424885017327, 0};
Point(p18 + 12) = {23.05923556790641, 3.166449295857932, 0};
Point(p18 + 13) = {22.8733257488585, 3.089442927429961, 0};
Point(p18 + 14) = {22.70175123823245, 2.984301932093596, 0};
Point(p18 + 15) = {22.54873676990303, 2.853615230096974, 0};
Point(p18 + 16) = {22.4180500679064, 2.700600761767551, 0};
Point(p18 + 17) = {22.31290907257004, 2.529026251141502, 0};
Point(p18 + 18) = {22.23590270414207, 2.343116432093596, 0};
Point(p18 + 19) = {22.18892711498267, 2.147449021368106, 0};
Point(p18 + 20) = {22.173139, 1.946842, 0};
Point(p18 + 21) = {22.18892711498267, 1.746234978631894, 0};
Point(p18 + 22) = {22.23590270414207, 1.550567567906404, 0};
Point(p18 + 23) = {22.31290907257004, 1.364657748858498, 0};
Point(p18 + 24) = {22.4180500679064, 1.193083238232449, 0};
Point(p18 + 25) = {22.54873676990303, 1.040068769903026, 0};
Point(p18 + 26) = {22.70175123823245, 0.9093820679064044, 0};
Point(p18 + 27) = {22.8733257488585, 0.8042410725700386, 0};
Point(p18 + 28) = {23.05923556790641, 0.7272347041420677, 0};
Point(p18 + 29) = {23.25490297863189, 0.6802591149826727, 0};
Point(p18 + 30) = {23.45551, 0.664471, 0};
Point(p18 + 31) = {23.65611702136811, 0.6802591149826727, 0};
Point(p18 + 32) = {23.8517844320936, 0.7272347041420675, 0};
Point(p18 + 33) = {24.0376942511415, 0.8042410725700384, 0};
Point(p18 + 34) = {24.20926876176755, 0.9093820679064042, 0};
Point(p18 + 35) = {24.36228323009697, 1.040068769903026, 0};
Point(p18 + 36) = {24.4929699320936, 1.193083238232449, 0};
Point(p18 + 37) = {24.59811092742996, 1.364657748858497, 0};
Point(p18 + 38) = {24.67511729585793, 1.550567567906404, 0};
Point(p18 + 39) = {24.72209288501733, 1.746234978631894, 0};
Spline(18) = {12, p18 + 1, p18 + 2, p18 + 3, p18 + 4, p18 + 5, p18 + 6, p18 + 7, p18 + 8, p18 + 9, p18 + 10, p18 + 11, p18 + 12, p18 + 13, p18 + 14, p18 + 15, p18 + 16, p18 + 17, p18 + 18, p18 + 19, p18 + 20, p18 + 21, p18 + 22, p18 + 23, p18 + 24, p18 + 25, p18 + 26, p18 + 27, p18 + 28, p18 + 29, p18 + 30, p18 + 31, p18 + 32, p18 + 33, p18 + 34, p18 + 35, p18 + 36, p18 + 37, p18 + 38, p18 + 39, 12};
Line(19) = {14, 13};
Line(20) = {13, 15};
Line(21) = {16, 15};
Line(22) = {14, 16};
Line(23) = {14, 17};
Line(24) = {17, 18};
Line(25) = {13, 18};
Line(26) = {15, 19};
Line(27) = {18, 19};
Line(28) = {16, 20};
Line(29) = {20, 19};
Line(30) = {17, 20};
Curve Loop(7) = {-13, -14, 15, 14};
Surface(7) = {7};
Curve Loop(8) = {13};
Plane Surface(8) = {8};
Curve Loop(9) = {15};
Plane Surface(9) = {9};
Curve Loop(10) = {-16, -17, 18, 17};
Surface(10) = {10};
Curve Loop(11) = {16};
Plane Surface(11) = {11};
Curve Loop(12) = {18};
Plane Surface(12) = {12};
Curve Loop(13) = {-19, 22, 21, -20};
Plane Surface(13) = {13};
Curve Loop(14) = {-23, 19, 25, -24};
Plane Surface(14) = {14};
Curve Loop(15) = {-20, 25, 27, -26};
Plane Surface(15) = {15};
Curve Loop(16) = {-28, 21, 26, -29};
Plane Surface(16) = {16};
Curve Loop(17) = {-22, 23, 30, -28, -15, -18};
Plane Surface(17) = {17};
Curve Loop(18) = {-24, 30, 29, -27};
Plane Surface(18) = {18};
Surface Loop(1) = {13, 14, 15, 16, 17, 18, 7, 10, 8, 11};
Volume(1) = {1};
Surface Loop(2) = {7, 8, 9};
Volume(2) = {2};
Surface Loop(3) = {10, 11, 12};
Volume(3) = {3};
Physical Surface("WALLS") = {13, 18};
Physical Surface("LOAD") = {8, 11};
Physical Surface("BORDER") = {7, 9, 10, 12, 14, 15, 16, 17};
Physical Volume("SOLID") = {1, 2, 3};
