cl__1 = 0.062087;
cl__2 = 0.06421399999999999;
cl__3 = 1.362633;
cl__4 = 1.094335;
cl__5 = 0.887695;
cl__6 = 0.973154;
Point(9) = {20.890775, -0.9027950000000001, 0.1, cl__1};
Point(10) = {20.890775, -0.9027950000000001, 0, cl__1};
Point(11) = {17.014585, 2.876963, 0.1, cl__2};
Point(12) = {17.014585, 2.876963, 0, cl__2};
Point(13) = {0.746496, -3.995708, 1, cl__3};
Point(14) = {0.746496, -3.995708, 0, cl__3};
Point(15) = {0.746496, 5.883846, 1, cl__4};
Point(16) = {0.746496, 5.883846, 0, cl__4};
Point(17) = {33.69332, -3.995708, 0, cl__5};
Point(18) = {33.69332, -3.995708, 1, cl__5};
Point(19) = {33.69332, 5.883846, 1, cl__6};
Point(20) = {33.69332, 5.883846, 0, cl__6};
p13 = newp;
Point(p13 + 1) = {20.88313110927194, -0.805670159428332, 0.1};
Point(p13 + 2) = {20.8603876550461, -0.7109368547704039, 0.1};
Point(p13 + 3) = {20.82310465664673, -0.6209277343887065, 0.1};
Point(p13 + 4) = {20.77220014522959, -0.5378591215501813, 0.1};
Point(p13 + 5) = {20.70892755880817, -0.463776441191833, 0.1};
Point(p13 + 6) = {20.63484487844982, -0.400503854770404, 0.1};
Point(p13 + 7) = {20.55177626561129, -0.3495993433532648, 0.1};
Point(p13 + 8) = {20.46176714522959, -0.3123163449538932, 0.1};
Point(p13 + 9) = {20.36703384057166, -0.2895728907280591, 0.1};
Point(p13 + 10) = {20.269909, -0.281929, 0.1};
Point(p13 + 11) = {20.17278415942833, -0.2895728907280593, 0.1};
Point(p13 + 12) = {20.0780508547704, -0.3123163449538932, 0.1};
Point(p13 + 13) = {19.98804173438871, -0.3495993433532648, 0.1};
Point(p13 + 14) = {19.90497312155018, -0.4005038547704038, 0.1};
Point(p13 + 15) = {19.83089044119183, -0.4637764411918329, 0.1};
Point(p13 + 16) = {19.7676178547704, -0.5378591215501813, 0.1};
Point(p13 + 17) = {19.71671334335326, -0.6209277343887065, 0.1};
Point(p13 + 18) = {19.67943034495389, -0.7109368547704038, 0.1};
Point(p13 + 19) = {19.65668689072806, -0.805670159428332, 0.1};
Point(p13 + 20) = {19.649043, -0.9027949999999999, 0.1};
Point(p13 + 21) = {19.65668689072806, -0.9999198405716679, 0.1};
Point(p13 + 22) = {19.67943034495389, -1.094653145229596, 0.1};
Point(p13 + 23) = {19.71671334335326, -1.184662265611293, 0.1};
Point(p13 + 24) = {19.7676178547704, -1.267730878449818, 0.1};
Point(p13 + 25) = {19.83089044119183, -1.341813558808167, 0.1};
Point(p13 + 26) = {19.90497312155018, -1.405086145229596, 0.1};
Point(p13 + 27) = {19.98804173438871, -1.455990656646735, 0.1};
Point(p13 + 28) = {20.0780508547704, -1.493273655046107, 0.1};
Point(p13 + 29) = {20.17278415942833, -1.516017109271941, 0.1};
Point(p13 + 30) = {20.269909, -1.523661, 0.1};
Point(p13 + 31) = {20.36703384057166, -1.516017109271941, 0.1};
Point(p13 + 32) = {20.46176714522959, -1.493273655046107, 0.1};
Point(p13 + 33) = {20.55177626561129, -1.455990656646735, 0.1};
Point(p13 + 34) = {20.63484487844982, -1.405086145229596, 0.1};
Point(p13 + 35) = {20.70892755880817, -1.341813558808167, 0.1};
Point(p13 + 36) = {20.77220014522959, -1.267730878449819, 0.1};
Point(p13 + 37) = {20.82310465664673, -1.184662265611294, 0.1};
Point(p13 + 38) = {20.8603876550461, -1.094653145229596, 0.1};
Point(p13 + 39) = {20.88313110927194, -0.9999198405716682, 0.1};
Spline(13) = {9, p13 + 1, p13 + 2, p13 + 3, p13 + 4, p13 + 5, p13 + 6, p13 + 7, p13 + 8, p13 + 9, p13 + 10, p13 + 11, p13 + 12, p13 + 13, p13 + 14, p13 + 15, p13 + 16, p13 + 17, p13 + 18, p13 + 19, p13 + 20, p13 + 21, p13 + 22, p13 + 23, p13 + 24, p13 + 25, p13 + 26, p13 + 27, p13 + 28, p13 + 29, p13 + 30, p13 + 31, p13 + 32, p13 + 33, p13 + 34, p13 + 35, p13 + 36, p13 + 37, p13 + 38, p13 + 39, 9};
Line(14) = {10, 9};
p15 = newp;
Point(p15 + 1) = {20.88313110927194, -0.805670159428332, 0};
Point(p15 + 2) = {20.8603876550461, -0.7109368547704039, 0};
Point(p15 + 3) = {20.82310465664673, -0.6209277343887065, 0};
Point(p15 + 4) = {20.77220014522959, -0.5378591215501813, 0};
Point(p15 + 5) = {20.70892755880817, -0.463776441191833, 0};
Point(p15 + 6) = {20.63484487844982, -0.400503854770404, 0};
Point(p15 + 7) = {20.55177626561129, -0.3495993433532648, 0};
Point(p15 + 8) = {20.46176714522959, -0.3123163449538932, 0};
Point(p15 + 9) = {20.36703384057166, -0.2895728907280591, 0};
Point(p15 + 10) = {20.269909, -0.281929, 0};
Point(p15 + 11) = {20.17278415942833, -0.2895728907280593, 0};
Point(p15 + 12) = {20.0780508547704, -0.3123163449538932, 0};
Point(p15 + 13) = {19.98804173438871, -0.3495993433532648, 0};
Point(p15 + 14) = {19.90497312155018, -0.4005038547704038, 0};
Point(p15 + 15) = {19.83089044119183, -0.4637764411918329, 0};
Point(p15 + 16) = {19.7676178547704, -0.5378591215501813, 0};
Point(p15 + 17) = {19.71671334335326, -0.6209277343887065, 0};
Point(p15 + 18) = {19.67943034495389, -0.7109368547704038, 0};
Point(p15 + 19) = {19.65668689072806, -0.805670159428332, 0};
Point(p15 + 20) = {19.649043, -0.9027949999999999, 0};
Point(p15 + 21) = {19.65668689072806, -0.9999198405716679, 0};
Point(p15 + 22) = {19.67943034495389, -1.094653145229596, 0};
Point(p15 + 23) = {19.71671334335326, -1.184662265611293, 0};
Point(p15 + 24) = {19.7676178547704, -1.267730878449818, 0};
Point(p15 + 25) = {19.83089044119183, -1.341813558808167, 0};
Point(p15 + 26) = {19.90497312155018, -1.405086145229596, 0};
Point(p15 + 27) = {19.98804173438871, -1.455990656646735, 0};
Point(p15 + 28) = {20.0780508547704, -1.493273655046107, 0};
Point(p15 + 29) = {20.17278415942833, -1.516017109271941, 0};
Point(p15 + 30) = {20.269909, -1.523661, 0};
Point(p15 + 31) = {20.36703384057166, -1.516017109271941, 0};
Point(p15 + 32) = {20.46176714522959, -1.493273655046107, 0};
Point(p15 + 33) = {20.55177626561129, -1.455990656646735, 0};
Point(p15 + 34) = {20.63484487844982, -1.405086145229596, 0};
Point(p15 + 35) = {20.70892755880817, -1.341813558808167, 0};
Point(p15 + 36) = {20.77220014522959, -1.267730878449819, 0};
Point(p15 + 37) = {20.82310465664673, -1.184662265611294, 0};
Point(p15 + 38) = {20.8603876550461, -1.094653145229596, 0};
Point(p15 + 39) = {20.88313110927194, -0.9999198405716682, 0};
Spline(15) = {10, p15 + 1, p15 + 2, p15 + 3, p15 + 4, p15 + 5, p15 + 6, p15 + 7, p15 + 8, p15 + 9, p15 + 10, p15 + 11, p15 + 12, p15 + 13, p15 + 14, p15 + 15, p15 + 16, p15 + 17, p15 + 18, p15 + 19, p15 + 20, p15 + 21, p15 + 22, p15 + 23, p15 + 24, p15 + 25, p15 + 26, p15 + 27, p15 + 28, p15 + 29, p15 + 30, p15 + 31, p15 + 32, p15 + 33, p15 + 34, p15 + 35, p15 + 36, p15 + 37, p15 + 38, p15 + 39, 10};
p16 = newp;
Point(p16 + 1) = {17.00667919102976, 2.977415827380934, 0.1};
Point(p16 + 2) = {16.98315643137377, 3.075395172767929, 0.1};
Point(p16 + 3) = {16.94459592944232, 3.168488459502752, 0.1};
Point(p16 + 4) = {16.89194717276793, 3.254403421907089, 0.1};
Point(p16 + 5) = {16.82650654847113, 3.33102454847113, 0.1};
Point(p16 + 6) = {16.74988542190709, 3.396465172767929, 0.1};
Point(p16 + 7) = {16.66397045950275, 3.449113929442318, 0.1};
Point(p16 + 8) = {16.57087717276793, 3.48767443137377, 0.1};
Point(p16 + 9) = {16.47289782738093, 3.511197191029762, 0.1};
Point(p16 + 10) = {16.372445, 3.519103, 0.1};
Point(p16 + 11) = {16.27199217261906, 3.511197191029762, 0.1};
Point(p16 + 12) = {16.17401282723207, 3.48767443137377, 0.1};
Point(p16 + 13) = {16.08091954049724, 3.449113929442318, 0.1};
Point(p16 + 14) = {15.99500457809291, 3.396465172767929, 0.1};
Point(p16 + 15) = {15.91838345152887, 3.33102454847113, 0.1};
Point(p16 + 16) = {15.85294282723207, 3.254403421907089, 0.1};
Point(p16 + 17) = {15.80029407055768, 3.168488459502753, 0.1};
Point(p16 + 18) = {15.76173356862623, 3.075395172767929, 0.1};
Point(p16 + 19) = {15.73821080897024, 2.977415827380934, 0.1};
Point(p16 + 20) = {15.730305, 2.876963, 0.1};
Point(p16 + 21) = {15.73821080897024, 2.776510172619066, 0.1};
Point(p16 + 22) = {15.76173356862623, 2.678530827232071, 0.1};
Point(p16 + 23) = {15.80029407055768, 2.585437540497248, 0.1};
Point(p16 + 24) = {15.85294282723207, 2.499522578092911, 0.1};
Point(p16 + 25) = {15.91838345152887, 2.42290145152887, 0.1};
Point(p16 + 26) = {15.99500457809291, 2.357460827232071, 0.1};
Point(p16 + 27) = {16.08091954049724, 2.304812070557682, 0.1};
Point(p16 + 28) = {16.17401282723207, 2.26625156862623, 0.1};
Point(p16 + 29) = {16.27199217261906, 2.242728808970238, 0.1};
Point(p16 + 30) = {16.372445, 2.234823, 0.1};
Point(p16 + 31) = {16.47289782738093, 2.242728808970238, 0.1};
Point(p16 + 32) = {16.57087717276793, 2.26625156862623, 0.1};
Point(p16 + 33) = {16.66397045950275, 2.304812070557681, 0.1};
Point(p16 + 34) = {16.74988542190709, 2.357460827232071, 0.1};
Point(p16 + 35) = {16.82650654847113, 2.42290145152887, 0.1};
Point(p16 + 36) = {16.89194717276793, 2.499522578092911, 0.1};
Point(p16 + 37) = {16.94459592944232, 2.585437540497247, 0.1};
Point(p16 + 38) = {16.98315643137377, 2.678530827232071, 0.1};
Point(p16 + 39) = {17.00667919102976, 2.776510172619066, 0.1};
Spline(16) = {11, p16 + 1, p16 + 2, p16 + 3, p16 + 4, p16 + 5, p16 + 6, p16 + 7, p16 + 8, p16 + 9, p16 + 10, p16 + 11, p16 + 12, p16 + 13, p16 + 14, p16 + 15, p16 + 16, p16 + 17, p16 + 18, p16 + 19, p16 + 20, p16 + 21, p16 + 22, p16 + 23, p16 + 24, p16 + 25, p16 + 26, p16 + 27, p16 + 28, p16 + 29, p16 + 30, p16 + 31, p16 + 32, p16 + 33, p16 + 34, p16 + 35, p16 + 36, p16 + 37, p16 + 38, p16 + 39, 11};
Line(17) = {12, 11};
p18 = newp;
Point(p18 + 1) = {17.00667919102976, 2.977415827380934, 0};
Point(p18 + 2) = {16.98315643137377, 3.075395172767929, 0};
Point(p18 + 3) = {16.94459592944232, 3.168488459502752, 0};
Point(p18 + 4) = {16.89194717276793, 3.254403421907089, 0};
Point(p18 + 5) = {16.82650654847113, 3.33102454847113, 0};
Point(p18 + 6) = {16.74988542190709, 3.396465172767929, 0};
Point(p18 + 7) = {16.66397045950275, 3.449113929442318, 0};
Point(p18 + 8) = {16.57087717276793, 3.48767443137377, 0};
Point(p18 + 9) = {16.47289782738093, 3.511197191029762, 0};
Point(p18 + 10) = {16.372445, 3.519103, 0};
Point(p18 + 11) = {16.27199217261906, 3.511197191029762, 0};
Point(p18 + 12) = {16.17401282723207, 3.48767443137377, 0};
Point(p18 + 13) = {16.08091954049724, 3.449113929442318, 0};
Point(p18 + 14) = {15.99500457809291, 3.396465172767929, 0};
Point(p18 + 15) = {15.91838345152887, 3.33102454847113, 0};
Point(p18 + 16) = {15.85294282723207, 3.254403421907089, 0};
Point(p18 + 17) = {15.80029407055768, 3.168488459502753, 0};
Point(p18 + 18) = {15.76173356862623, 3.075395172767929, 0};
Point(p18 + 19) = {15.73821080897024, 2.977415827380934, 0};
Point(p18 + 20) = {15.730305, 2.876963, 0};
Point(p18 + 21) = {15.73821080897024, 2.776510172619066, 0};
Point(p18 + 22) = {15.76173356862623, 2.678530827232071, 0};
Point(p18 + 23) = {15.80029407055768, 2.585437540497248, 0};
Point(p18 + 24) = {15.85294282723207, 2.499522578092911, 0};
Point(p18 + 25) = {15.91838345152887, 2.42290145152887, 0};
Point(p18 + 26) = {15.99500457809291, 2.357460827232071, 0};
Point(p18 + 27) = {16.08091954049724, 2.304812070557682, 0};
Point(p18 + 28) = {16.17401282723207, 2.26625156862623, 0};
Point(p18 + 29) = {16.27199217261906, 2.242728808970238, 0};
Point(p18 + 30) = {16.372445, 2.234823, 0};
Point(p18 + 31) = {16.47289782738093, 2.242728808970238, 0};
Point(p18 + 32) = {16.57087717276793, 2.26625156862623, 0};
Point(p18 + 33) = {16.66397045950275, 2.304812070557681, 0};
Point(p18 + 34) = {16.74988542190709, 2.357460827232071, 0};
Point(p18 + 35) = {16.82650654847113, 2.42290145152887, 0};
Point(p18 + 36) = {16.89194717276793, 2.499522578092911, 0};
Point(p18 + 37) = {16.94459592944232, 2.585437540497247, 0};
Point(p18 + 38) = {16.98315643137377, 2.678530827232071, 0};
Point(p18 + 39) = {17.00667919102976, 2.776510172619066, 0};
Spline(18) = {12, p18 + 1, p18 + 2, p18 + 3, p18 + 4, p18 + 5, p18 + 6, p18 + 7, p18 + 8, p18 + 9, p18 + 10, p18 + 11, p18 + 12, p18 + 13, p18 + 14, p18 + 15, p18 + 16, p18 + 17, p18 + 18, p18 + 19, p18 + 20, p18 + 21, p18 + 22, p18 + 23, p18 + 24, p18 + 25, p18 + 26, p18 + 27, p18 + 28, p18 + 29, p18 + 30, p18 + 31, p18 + 32, p18 + 33, p18 + 34, p18 + 35, p18 + 36, p18 + 37, p18 + 38, p18 + 39, 12};
Line(19) = {14, 13};
Line(20) = {13, 15};
Line(21) = {16, 15};
Line(22) = {14, 16};
Line(23) = {14, 17};
Line(24) = {17, 18};
Line(25) = {13, 18};
Line(26) = {15, 19};
Line(27) = {18, 19};
Line(28) = {16, 20};
Line(29) = {20, 19};
Line(30) = {17, 20};
Curve Loop(7) = {-13, -14, 15, 14};
Surface(7) = {7};
Curve Loop(8) = {13};
Plane Surface(8) = {8};
Curve Loop(9) = {15};
Plane Surface(9) = {9};
Curve Loop(10) = {-16, -17, 18, 17};
Surface(10) = {10};
Curve Loop(11) = {16};
Plane Surface(11) = {11};
Curve Loop(12) = {18};
Plane Surface(12) = {12};
Curve Loop(13) = {-19, 22, 21, -20};
Plane Surface(13) = {13};
Curve Loop(14) = {-23, 19, 25, -24};
Plane Surface(14) = {14};
Curve Loop(15) = {-20, 25, 27, -26};
Plane Surface(15) = {15};
Curve Loop(16) = {-28, 21, 26, -29};
Plane Surface(16) = {16};
Curve Loop(17) = {-22, 23, 30, -28, -15, -18};
Plane Surface(17) = {17};
Curve Loop(18) = {-24, 30, 29, -27};
Plane Surface(18) = {18};
Surface Loop(1) = {13, 14, 15, 16, 17, 18, 7, 10, 8, 11};
Volume(1) = {1};
Surface Loop(2) = {7, 8, 9};
Volume(2) = {2};
Surface Loop(3) = {10, 11, 12};
Volume(3) = {3};
Physical Surface("WALLS") = {13, 18};
Physical Surface("LOAD") = {8, 11};
Physical Surface("BORDER") = {7, 9, 10, 12, 14, 15, 16, 17};
Physical Volume("SOLID") = {1, 2, 3};
