cl__1 = 0.055717;
cl__2 = 0.135272;
cl__3 = 1.515897;
cl__4 = 1.38734;
cl__5 = 0.86015;
cl__6 = 0.875799;
Point(9) = {20.718196, 1.955781, 0.1, cl__1};
Point(10) = {20.718196, 1.955781, 0, cl__1};
Point(11) = {23.074828, 0.02248099999999967, 0.1, cl__2};
Point(12) = {23.074828, 0.02248099999999967, 0, cl__2};
Point(13) = {0.9954229999999999, -3.387728, 0.1, cl__3};
Point(14) = {0.9954229999999999, -3.387728, 0, cl__3};
Point(15) = {0.9954229999999999, 4.499264, 0.1, cl__4};
Point(16) = {0.9954229999999999, 4.499264, 0, cl__4};
Point(17) = {37.184083, -3.387728, 0, cl__5};
Point(18) = {37.184083, -3.387728, 0.1, cl__5};
Point(19) = {37.184083, 4.499264, 0.1, cl__6};
Point(20) = {37.184083, 4.499264, 0, cl__6};
p13 = newp;
Point(p13 + 1) = {20.71133637428769, 2.04294080871414, 0.1};
Point(p13 + 2) = {20.69092640390159, 2.127954453670918, 0.1};
Point(p13 + 3) = {20.65746865004941, 2.208728616787385, 0.1};
Point(p13 + 4) = {20.61178695367092, 2.283274370093536, 0.1};
Point(p13 + 5) = {20.5550061497398, 2.349756149739803, 0.1};
Point(p13 + 6) = {20.48852437009354, 2.406536953670917, 0.1};
Point(p13 + 7) = {20.41397861678739, 2.452218650049412, 0.1};
Point(p13 + 8) = {20.33320445367092, 2.485676403901589, 0.1};
Point(p13 + 9) = {20.24819080871414, 2.50608637428769, 0.1};
Point(p13 + 10) = {20.161031, 2.512946, 0.1};
Point(p13 + 11) = {20.07387119128586, 2.50608637428769, 0.1};
Point(p13 + 12) = {19.98885754632908, 2.485676403901589, 0.1};
Point(p13 + 13) = {19.90808338321262, 2.452218650049412, 0.1};
Point(p13 + 14) = {19.83353762990647, 2.406536953670917, 0.1};
Point(p13 + 15) = {19.7670558502602, 2.349756149739803, 0.1};
Point(p13 + 16) = {19.71027504632908, 2.283274370093536, 0.1};
Point(p13 + 17) = {19.66459334995059, 2.208728616787385, 0.1};
Point(p13 + 18) = {19.63113559609841, 2.127954453670918, 0.1};
Point(p13 + 19) = {19.61072562571231, 2.04294080871414, 0.1};
Point(p13 + 20) = {19.603866, 1.955781, 0.1};
Point(p13 + 21) = {19.61072562571231, 1.86862119128586, 0.1};
Point(p13 + 22) = {19.63113559609841, 1.783607546329082, 0.1};
Point(p13 + 23) = {19.66459334995059, 1.702833383212616, 0.1};
Point(p13 + 24) = {19.71027504632908, 1.628287629906464, 0.1};
Point(p13 + 25) = {19.7670558502602, 1.561805850260197, 0.1};
Point(p13 + 26) = {19.83353762990647, 1.505025046329082, 0.1};
Point(p13 + 27) = {19.90808338321262, 1.459343349950588, 0.1};
Point(p13 + 28) = {19.98885754632908, 1.425885596098411, 0.1};
Point(p13 + 29) = {20.07387119128586, 1.40547562571231, 0.1};
Point(p13 + 30) = {20.161031, 1.398616, 0.1};
Point(p13 + 31) = {20.24819080871414, 1.40547562571231, 0.1};
Point(p13 + 32) = {20.33320445367092, 1.425885596098411, 0.1};
Point(p13 + 33) = {20.41397861678739, 1.459343349950588, 0.1};
Point(p13 + 34) = {20.48852437009354, 1.505025046329082, 0.1};
Point(p13 + 35) = {20.5550061497398, 1.561805850260197, 0.1};
Point(p13 + 36) = {20.61178695367092, 1.628287629906464, 0.1};
Point(p13 + 37) = {20.65746865004941, 1.702833383212615, 0.1};
Point(p13 + 38) = {20.69092640390159, 1.783607546329082, 0.1};
Point(p13 + 39) = {20.71133637428769, 1.86862119128586, 0.1};
Spline(13) = {9, p13 + 1, p13 + 2, p13 + 3, p13 + 4, p13 + 5, p13 + 6, p13 + 7, p13 + 8, p13 + 9, p13 + 10, p13 + 11, p13 + 12, p13 + 13, p13 + 14, p13 + 15, p13 + 16, p13 + 17, p13 + 18, p13 + 19, p13 + 20, p13 + 21, p13 + 22, p13 + 23, p13 + 24, p13 + 25, p13 + 26, p13 + 27, p13 + 28, p13 + 29, p13 + 30, p13 + 31, p13 + 32, p13 + 33, p13 + 34, p13 + 35, p13 + 36, p13 + 37, p13 + 38, p13 + 39, 9};
Line(14) = {10, 9};
p15 = newp;
Point(p15 + 1) = {20.71133637428769, 2.04294080871414, 0};
Point(p15 + 2) = {20.69092640390159, 2.127954453670918, 0};
Point(p15 + 3) = {20.65746865004941, 2.208728616787385, 0};
Point(p15 + 4) = {20.61178695367092, 2.283274370093536, 0};
Point(p15 + 5) = {20.5550061497398, 2.349756149739803, 0};
Point(p15 + 6) = {20.48852437009354, 2.406536953670917, 0};
Point(p15 + 7) = {20.41397861678739, 2.452218650049412, 0};
Point(p15 + 8) = {20.33320445367092, 2.485676403901589, 0};
Point(p15 + 9) = {20.24819080871414, 2.50608637428769, 0};
Point(p15 + 10) = {20.161031, 2.512946, 0};
Point(p15 + 11) = {20.07387119128586, 2.50608637428769, 0};
Point(p15 + 12) = {19.98885754632908, 2.485676403901589, 0};
Point(p15 + 13) = {19.90808338321262, 2.452218650049412, 0};
Point(p15 + 14) = {19.83353762990647, 2.406536953670917, 0};
Point(p15 + 15) = {19.7670558502602, 2.349756149739803, 0};
Point(p15 + 16) = {19.71027504632908, 2.283274370093536, 0};
Point(p15 + 17) = {19.66459334995059, 2.208728616787385, 0};
Point(p15 + 18) = {19.63113559609841, 2.127954453670918, 0};
Point(p15 + 19) = {19.61072562571231, 2.04294080871414, 0};
Point(p15 + 20) = {19.603866, 1.955781, 0};
Point(p15 + 21) = {19.61072562571231, 1.86862119128586, 0};
Point(p15 + 22) = {19.63113559609841, 1.783607546329082, 0};
Point(p15 + 23) = {19.66459334995059, 1.702833383212616, 0};
Point(p15 + 24) = {19.71027504632908, 1.628287629906464, 0};
Point(p15 + 25) = {19.7670558502602, 1.561805850260197, 0};
Point(p15 + 26) = {19.83353762990647, 1.505025046329082, 0};
Point(p15 + 27) = {19.90808338321262, 1.459343349950588, 0};
Point(p15 + 28) = {19.98885754632908, 1.425885596098411, 0};
Point(p15 + 29) = {20.07387119128586, 1.40547562571231, 0};
Point(p15 + 30) = {20.161031, 1.398616, 0};
Point(p15 + 31) = {20.24819080871414, 1.40547562571231, 0};
Point(p15 + 32) = {20.33320445367092, 1.425885596098411, 0};
Point(p15 + 33) = {20.41397861678739, 1.459343349950588, 0};
Point(p15 + 34) = {20.48852437009354, 1.505025046329082, 0};
Point(p15 + 35) = {20.5550061497398, 1.561805850260197, 0};
Point(p15 + 36) = {20.61178695367092, 1.628287629906464, 0};
Point(p15 + 37) = {20.65746865004941, 1.702833383212615, 0};
Point(p15 + 38) = {20.69092640390159, 1.783607546329082, 0};
Point(p15 + 39) = {20.71133637428769, 1.86862119128586, 0};
Spline(15) = {10, p15 + 1, p15 + 2, p15 + 3, p15 + 4, p15 + 5, p15 + 6, p15 + 7, p15 + 8, p15 + 9, p15 + 10, p15 + 11, p15 + 12, p15 + 13, p15 + 14, p15 + 15, p15 + 16, p15 + 17, p15 + 18, p15 + 19, p15 + 20, p15 + 21, p15 + 22, p15 + 23, p15 + 24, p15 + 25, p15 + 26, p15 + 27, p15 + 28, p15 + 29, p15 + 30, p15 + 31, p15 + 32, p15 + 33, p15 + 34, p15 + 35, p15 + 36, p15 + 37, p15 + 38, p15 + 39, 10};
p16 = newp;
Point(p16 + 1) = {23.05817377208985, 0.2340930295492211, 0.1};
Point(p16 + 2) = {23.00862117072278, 0.4404944686308788, 0.1};
Point(p16 + 3) = {22.92739034540009, 0.6366030288076796, 0.1};
Point(p16 + 4) = {22.81648146863088, 0.8175898664810742, 0.1};
Point(p16 + 5) = {22.67862548504667, 0.9789984850466664, 0.1};
Point(p16 + 6) = {22.51721686648107, 1.116854468630879, 0.1};
Point(p16 + 7) = {22.33623002880768, 1.227763345400089, 0.1};
Point(p16 + 8) = {22.14012146863088, 1.30899417072278, 0.1};
Point(p16 + 9) = {21.93372002954922, 1.358546772089855, 0.1};
Point(p16 + 10) = {21.722108, 1.375201, 0.1};
Point(p16 + 11) = {21.51049597045078, 1.358546772089855, 0.1};
Point(p16 + 12) = {21.30409453136912, 1.30899417072278, 0.1};
Point(p16 + 13) = {21.10798597119232, 1.227763345400089, 0.1};
Point(p16 + 14) = {20.92699913351893, 1.116854468630879, 0.1};
Point(p16 + 15) = {20.76559051495333, 0.9789984850466665, 0.1};
Point(p16 + 16) = {20.62773453136912, 0.8175898664810743, 0.1};
Point(p16 + 17) = {20.51682565459991, 0.6366030288076797, 0.1};
Point(p16 + 18) = {20.43559482927722, 0.4404944686308789, 0.1};
Point(p16 + 19) = {20.38604222791015, 0.2340930295492212, 0.1};
Point(p16 + 20) = {20.369388, 0.02248100000000017, 0.1};
Point(p16 + 21) = {20.38604222791015, -0.1891310295492209, 0.1};
Point(p16 + 22) = {20.43559482927722, -0.3955324686308793, 0.1};
Point(p16 + 23) = {20.51682565459991, -0.5916410288076791, 0.1};
Point(p16 + 24) = {20.62773453136912, -0.7726278664810741, 0.1};
Point(p16 + 25) = {20.76559051495333, -0.9340364850466665, 0.1};
Point(p16 + 26) = {20.92699913351893, -1.071892468630879, 0.1};
Point(p16 + 27) = {21.10798597119232, -1.182801345400089, 0.1};
Point(p16 + 28) = {21.30409453136912, -1.26403217072278, 0.1};
Point(p16 + 29) = {21.51049597045078, -1.313584772089855, 0.1};
Point(p16 + 30) = {21.722108, -1.330239, 0.1};
Point(p16 + 31) = {21.93372002954922, -1.313584772089855, 0.1};
Point(p16 + 32) = {22.14012146863088, -1.26403217072278, 0.1};
Point(p16 + 33) = {22.33623002880768, -1.182801345400089, 0.1};
Point(p16 + 34) = {22.51721686648107, -1.071892468630879, 0.1};
Point(p16 + 35) = {22.67862548504667, -0.9340364850466668, 0.1};
Point(p16 + 36) = {22.81648146863088, -0.7726278664810744, 0.1};
Point(p16 + 37) = {22.92739034540009, -0.59164102880768, 0.1};
Point(p16 + 38) = {23.00862117072278, -0.3955324686308791, 0.1};
Point(p16 + 39) = {23.05817377208985, -0.1891310295492214, 0.1};
Spline(16) = {11, p16 + 1, p16 + 2, p16 + 3, p16 + 4, p16 + 5, p16 + 6, p16 + 7, p16 + 8, p16 + 9, p16 + 10, p16 + 11, p16 + 12, p16 + 13, p16 + 14, p16 + 15, p16 + 16, p16 + 17, p16 + 18, p16 + 19, p16 + 20, p16 + 21, p16 + 22, p16 + 23, p16 + 24, p16 + 25, p16 + 26, p16 + 27, p16 + 28, p16 + 29, p16 + 30, p16 + 31, p16 + 32, p16 + 33, p16 + 34, p16 + 35, p16 + 36, p16 + 37, p16 + 38, p16 + 39, 11};
Line(17) = {12, 11};
p18 = newp;
Point(p18 + 1) = {23.05817377208985, 0.2340930295492211, 0};
Point(p18 + 2) = {23.00862117072278, 0.4404944686308788, 0};
Point(p18 + 3) = {22.92739034540009, 0.6366030288076796, 0};
Point(p18 + 4) = {22.81648146863088, 0.8175898664810742, 0};
Point(p18 + 5) = {22.67862548504667, 0.9789984850466664, 0};
Point(p18 + 6) = {22.51721686648107, 1.116854468630879, 0};
Point(p18 + 7) = {22.33623002880768, 1.227763345400089, 0};
Point(p18 + 8) = {22.14012146863088, 1.30899417072278, 0};
Point(p18 + 9) = {21.93372002954922, 1.358546772089855, 0};
Point(p18 + 10) = {21.722108, 1.375201, 0};
Point(p18 + 11) = {21.51049597045078, 1.358546772089855, 0};
Point(p18 + 12) = {21.30409453136912, 1.30899417072278, 0};
Point(p18 + 13) = {21.10798597119232, 1.227763345400089, 0};
Point(p18 + 14) = {20.92699913351893, 1.116854468630879, 0};
Point(p18 + 15) = {20.76559051495333, 0.9789984850466665, 0};
Point(p18 + 16) = {20.62773453136912, 0.8175898664810743, 0};
Point(p18 + 17) = {20.51682565459991, 0.6366030288076797, 0};
Point(p18 + 18) = {20.43559482927722, 0.4404944686308789, 0};
Point(p18 + 19) = {20.38604222791015, 0.2340930295492212, 0};
Point(p18 + 20) = {20.369388, 0.02248100000000017, 0};
Point(p18 + 21) = {20.38604222791015, -0.1891310295492209, 0};
Point(p18 + 22) = {20.43559482927722, -0.3955324686308793, 0};
Point(p18 + 23) = {20.51682565459991, -0.5916410288076791, 0};
Point(p18 + 24) = {20.62773453136912, -0.7726278664810741, 0};
Point(p18 + 25) = {20.76559051495333, -0.9340364850466665, 0};
Point(p18 + 26) = {20.92699913351893, -1.071892468630879, 0};
Point(p18 + 27) = {21.10798597119232, -1.182801345400089, 0};
Point(p18 + 28) = {21.30409453136912, -1.26403217072278, 0};
Point(p18 + 29) = {21.51049597045078, -1.313584772089855, 0};
Point(p18 + 30) = {21.722108, -1.330239, 0};
Point(p18 + 31) = {21.93372002954922, -1.313584772089855, 0};
Point(p18 + 32) = {22.14012146863088, -1.26403217072278, 0};
Point(p18 + 33) = {22.33623002880768, -1.182801345400089, 0};
Point(p18 + 34) = {22.51721686648107, -1.071892468630879, 0};
Point(p18 + 35) = {22.67862548504667, -0.9340364850466668, 0};
Point(p18 + 36) = {22.81648146863088, -0.7726278664810744, 0};
Point(p18 + 37) = {22.92739034540009, -0.59164102880768, 0};
Point(p18 + 38) = {23.00862117072278, -0.3955324686308791, 0};
Point(p18 + 39) = {23.05817377208985, -0.1891310295492214, 0};
Spline(18) = {12, p18 + 1, p18 + 2, p18 + 3, p18 + 4, p18 + 5, p18 + 6, p18 + 7, p18 + 8, p18 + 9, p18 + 10, p18 + 11, p18 + 12, p18 + 13, p18 + 14, p18 + 15, p18 + 16, p18 + 17, p18 + 18, p18 + 19, p18 + 20, p18 + 21, p18 + 22, p18 + 23, p18 + 24, p18 + 25, p18 + 26, p18 + 27, p18 + 28, p18 + 29, p18 + 30, p18 + 31, p18 + 32, p18 + 33, p18 + 34, p18 + 35, p18 + 36, p18 + 37, p18 + 38, p18 + 39, 12};
Line(19) = {14, 13};
Line(20) = {13, 15};
Line(21) = {16, 15};
Line(22) = {14, 16};
Line(23) = {14, 17};
Line(24) = {17, 18};
Line(25) = {13, 18};
Line(26) = {15, 19};
Line(27) = {18, 19};
Line(28) = {16, 20};
Line(29) = {20, 19};
Line(30) = {17, 20};
Curve Loop(7) = {-13, -14, 15, 14};
Surface(7) = {7};
Curve Loop(8) = {13};
Plane Surface(8) = {8};
Curve Loop(9) = {15};
Plane Surface(9) = {9};
Curve Loop(10) = {-16, -17, 18, 17};
Surface(10) = {10};
Curve Loop(11) = {16};
Plane Surface(11) = {11};
Curve Loop(12) = {18};
Plane Surface(12) = {12};
Curve Loop(13) = {-19, 22, 21, -20};
Plane Surface(13) = {13};
Curve Loop(14) = {-23, 19, 25, -24};
Plane Surface(14) = {14};
Curve Loop(15) = {-20, 25, 27, -26, -16, -13};
Plane Surface(15) = {15};
Curve Loop(16) = {-28, 21, 26, -29};
Plane Surface(16) = {16};
Curve Loop(17) = {-22, 23, 30, -28, -18, -15};
Plane Surface(17) = {17};
Curve Loop(18) = {-24, 30, 29, -27};
Plane Surface(18) = {18};
Surface Loop(1) = {13, 14, 15, 16, 17, 18, 10, 7};
Volume(1) = {1};
Surface Loop(2) = {7, 8, 9};
Volume(2) = {2};
Surface Loop(3) = {10, 11, 12};
Volume(3) = {3};
Physical Surface("WALLS") = {13, 18};
Physical Surface("LOAD") = {8, 11};
Physical Surface("BORDER") = {7, 9, 10, 12, 14, 15, 16, 17};
Physical Volume("SOLID") = {1, 2, 3};
