cl__1 = 0.147229;
cl__2 = 0.12858;
cl__3 = 4.255819;
cl__4 = 4.337069;
cl__5 = 0.496719;
cl__6 = 0.251944;
Point(9) = {17.108739, -0.03526400000000036, 0.1, cl__1};
Point(10) = {17.108739, -0.03526400000000036, 0, cl__1};
Point(11) = {35.74986800000001, 1.379754, 0.1, cl__2};
Point(12) = {35.74986800000001, 1.379754, 0, cl__2};
Point(13) = {0.301764, -3.883043, 1, cl__3};
Point(14) = {0.301764, -3.883043, 0, cl__3};
Point(15) = {0.301764, 4.169564, 1, cl__4};
Point(16) = {0.301764, 4.169564, 0, cl__4};
Point(17) = {36.602124, -3.883043, 0, cl__5};
Point(18) = {36.602124, -3.883043, 1, cl__5};
Point(19) = {36.602124, 4.169564, 1, cl__6};
Point(20) = {36.602124, 4.169564, 0, cl__6};
p13 = newp;
Point(p13 + 1) = {17.09061266697482, 0.1950528985340815, 0.1};
Point(p13 + 2) = {17.03667999837619, 0.4196986306482913, 0.1};
Point(p13 + 3) = {16.94826899549729, 0.6331416728615373, 0.1};
Point(p13 + 4) = {16.82755663064829, 0.8301263490976853, 0.1};
Point(p13 + 5) = {16.67751524287314, 1.005802242873142, 0.1};
Point(p13 + 6) = {16.50183934909769, 1.155843630648291, 0.1};
Point(p13 + 7) = {16.30485467286154, 1.276555995497292, 0.1};
Point(p13 + 8) = {16.09141163064829, 1.364966998376192, 0.1};
Point(p13 + 9) = {15.86676589853408, 1.418899666974816, 0.1};
Point(p13 + 10) = {15.636449, 1.437026, 0.1};
Point(p13 + 11) = {15.40613210146592, 1.418899666974815, 0.1};
Point(p13 + 12) = {15.18148636935171, 1.364966998376192, 0.1};
Point(p13 + 13) = {14.96804332713846, 1.276555995497292, 0.1};
Point(p13 + 14) = {14.77105865090232, 1.155843630648292, 0.1};
Point(p13 + 15) = {14.59538275712686, 1.005802242873142, 0.1};
Point(p13 + 16) = {14.44534136935171, 0.8301263490976856, 0.1};
Point(p13 + 17) = {14.32462900450271, 0.6331416728615376, 0.1};
Point(p13 + 18) = {14.23621800162381, 0.4196986306482915, 0.1};
Point(p13 + 19) = {14.18228533302518, 0.1950528985340817, 0.1};
Point(p13 + 20) = {14.164159, -0.03526399999999982, 0.1};
Point(p13 + 21) = {14.18228533302518, -0.2655808985340813, 0.1};
Point(p13 + 22) = {14.23621800162381, -0.4902266306482919, 0.1};
Point(p13 + 23) = {14.32462900450271, -0.7036696728615366, 0.1};
Point(p13 + 24) = {14.44534136935171, -0.9006543490976852, 0.1};
Point(p13 + 25) = {14.59538275712686, -1.076330242873142, 0.1};
Point(p13 + 26) = {14.77105865090232, -1.226371630648291, 0.1};
Point(p13 + 27) = {14.96804332713846, -1.347083995497292, 0.1};
Point(p13 + 28) = {15.18148636935171, -1.435494998376192, 0.1};
Point(p13 + 29) = {15.40613210146592, -1.489427666974815, 0.1};
Point(p13 + 30) = {15.636449, -1.507554, 0.1};
Point(p13 + 31) = {15.86676589853408, -1.489427666974815, 0.1};
Point(p13 + 32) = {16.09141163064829, -1.435494998376192, 0.1};
Point(p13 + 33) = {16.30485467286154, -1.347083995497292, 0.1};
Point(p13 + 34) = {16.50183934909769, -1.226371630648292, 0.1};
Point(p13 + 35) = {16.67751524287314, -1.076330242873142, 0.1};
Point(p13 + 36) = {16.82755663064829, -0.9006543490976855, 0.1};
Point(p13 + 37) = {16.94826899549729, -0.7036696728615376, 0.1};
Point(p13 + 38) = {17.03667999837619, -0.4902266306482917, 0.1};
Point(p13 + 39) = {17.09061266697482, -0.2655808985340819, 0.1};
Spline(13) = {9, p13 + 1, p13 + 2, p13 + 3, p13 + 4, p13 + 5, p13 + 6, p13 + 7, p13 + 8, p13 + 9, p13 + 10, p13 + 11, p13 + 12, p13 + 13, p13 + 14, p13 + 15, p13 + 16, p13 + 17, p13 + 18, p13 + 19, p13 + 20, p13 + 21, p13 + 22, p13 + 23, p13 + 24, p13 + 25, p13 + 26, p13 + 27, p13 + 28, p13 + 29, p13 + 30, p13 + 31, p13 + 32, p13 + 33, p13 + 34, p13 + 35, p13 + 36, p13 + 37, p13 + 38, p13 + 39, 9};
Line(14) = {10, 9};
p15 = newp;
Point(p15 + 1) = {17.09061266697482, 0.1950528985340815, 0};
Point(p15 + 2) = {17.03667999837619, 0.4196986306482913, 0};
Point(p15 + 3) = {16.94826899549729, 0.6331416728615373, 0};
Point(p15 + 4) = {16.82755663064829, 0.8301263490976853, 0};
Point(p15 + 5) = {16.67751524287314, 1.005802242873142, 0};
Point(p15 + 6) = {16.50183934909769, 1.155843630648291, 0};
Point(p15 + 7) = {16.30485467286154, 1.276555995497292, 0};
Point(p15 + 8) = {16.09141163064829, 1.364966998376192, 0};
Point(p15 + 9) = {15.86676589853408, 1.418899666974816, 0};
Point(p15 + 10) = {15.636449, 1.437026, 0};
Point(p15 + 11) = {15.40613210146592, 1.418899666974815, 0};
Point(p15 + 12) = {15.18148636935171, 1.364966998376192, 0};
Point(p15 + 13) = {14.96804332713846, 1.276555995497292, 0};
Point(p15 + 14) = {14.77105865090232, 1.155843630648292, 0};
Point(p15 + 15) = {14.59538275712686, 1.005802242873142, 0};
Point(p15 + 16) = {14.44534136935171, 0.8301263490976856, 0};
Point(p15 + 17) = {14.32462900450271, 0.6331416728615376, 0};
Point(p15 + 18) = {14.23621800162381, 0.4196986306482915, 0};
Point(p15 + 19) = {14.18228533302518, 0.1950528985340817, 0};
Point(p15 + 20) = {14.164159, -0.03526399999999982, 0};
Point(p15 + 21) = {14.18228533302518, -0.2655808985340813, 0};
Point(p15 + 22) = {14.23621800162381, -0.4902266306482919, 0};
Point(p15 + 23) = {14.32462900450271, -0.7036696728615366, 0};
Point(p15 + 24) = {14.44534136935171, -0.9006543490976852, 0};
Point(p15 + 25) = {14.59538275712686, -1.076330242873142, 0};
Point(p15 + 26) = {14.77105865090232, -1.226371630648291, 0};
Point(p15 + 27) = {14.96804332713846, -1.347083995497292, 0};
Point(p15 + 28) = {15.18148636935171, -1.435494998376192, 0};
Point(p15 + 29) = {15.40613210146592, -1.489427666974815, 0};
Point(p15 + 30) = {15.636449, -1.507554, 0};
Point(p15 + 31) = {15.86676589853408, -1.489427666974815, 0};
Point(p15 + 32) = {16.09141163064829, -1.435494998376192, 0};
Point(p15 + 33) = {16.30485467286154, -1.347083995497292, 0};
Point(p15 + 34) = {16.50183934909769, -1.226371630648292, 0};
Point(p15 + 35) = {16.67751524287314, -1.076330242873142, 0};
Point(p15 + 36) = {16.82755663064829, -0.9006543490976855, 0};
Point(p15 + 37) = {16.94826899549729, -0.7036696728615376, 0};
Point(p15 + 38) = {17.03667999837619, -0.4902266306482917, 0};
Point(p15 + 39) = {17.09061266697482, -0.2655808985340819, 0};
Spline(15) = {10, p15 + 1, p15 + 2, p15 + 3, p15 + 4, p15 + 5, p15 + 6, p15 + 7, p15 + 8, p15 + 9, p15 + 10, p15 + 11, p15 + 12, p15 + 13, p15 + 14, p15 + 15, p15 + 16, p15 + 17, p15 + 18, p15 + 19, p15 + 20, p15 + 21, p15 + 22, p15 + 23, p15 + 24, p15 + 25, p15 + 26, p15 + 27, p15 + 28, p15 + 29, p15 + 30, p15 + 31, p15 + 32, p15 + 33, p15 + 34, p15 + 35, p15 + 36, p15 + 37, p15 + 38, p15 + 39, 10};
p16 = newp;
Point(p16 + 1) = {35.73403760677893, 1.580898217321054, 0.1};
Point(p16 + 2) = {35.68693622393489, 1.777089596452279, 0.1};
Point(p16 + 3) = {35.60972364383403, 1.963497254517608, 0.1};
Point(p16 + 4) = {35.50430109645228, 2.135531216323924, 0.1};
Point(p16 + 5) = {35.37326443478357, 2.288955434783569, 0.1};
Point(p16 + 6) = {35.21984021632392, 2.419992096452279, 0.1};
Point(p16 + 7) = {35.04780625451761, 2.525414643834024, 0.1};
Point(p16 + 8) = {34.86139859645228, 2.60262722393489, 0.1};
Point(p16 + 9) = {34.66520721732105, 2.649728606778931, 0.1};
Point(p16 + 10) = {34.464063, 2.665559, 0.1};
Point(p16 + 11) = {34.26291878267895, 2.649728606778931, 0.1};
Point(p16 + 12) = {34.06672740354772, 2.60262722393489, 0.1};
Point(p16 + 13) = {33.8803197454824, 2.525414643834024, 0.1};
Point(p16 + 14) = {33.70828578367608, 2.419992096452279, 0.1};
Point(p16 + 15) = {33.55486156521643, 2.288955434783569, 0.1};
Point(p16 + 16) = {33.42382490354773, 2.135531216323924, 0.1};
Point(p16 + 17) = {33.31840235616598, 1.963497254517608, 0.1};
Point(p16 + 18) = {33.24118977606511, 1.777089596452279, 0.1};
Point(p16 + 19) = {33.19408839322107, 1.580898217321054, 0.1};
Point(p16 + 20) = {33.178258, 1.379754, 0.1};
Point(p16 + 21) = {33.19408839322107, 1.178609782678946, 0.1};
Point(p16 + 22) = {33.24118977606511, 0.9824184035477203, 0.1};
Point(p16 + 23) = {33.31840235616598, 0.7960107454823926, 0.1};
Point(p16 + 24) = {33.42382490354773, 0.6239767836760766, 0.1};
Point(p16 + 25) = {33.55486156521643, 0.4705525652164312, 0.1};
Point(p16 + 26) = {33.70828578367608, 0.3395159035477207, 0.1};
Point(p16 + 27) = {33.8803197454824, 0.2340933561659757, 0.1};
Point(p16 + 28) = {34.06672740354772, 0.1568807760651099, 0.1};
Point(p16 + 29) = {34.26291878267895, 0.1097793932210689, 0.1};
Point(p16 + 30) = {34.464063, 0.09394899999999984, 0.1};
Point(p16 + 31) = {34.66520721732105, 0.1097793932210687, 0.1};
Point(p16 + 32) = {34.86139859645228, 0.1568807760651099, 0.1};
Point(p16 + 33) = {35.04780625451761, 0.2340933561659753, 0.1};
Point(p16 + 34) = {35.21984021632392, 0.3395159035477204, 0.1};
Point(p16 + 35) = {35.37326443478357, 0.470552565216431, 0.1};
Point(p16 + 36) = {35.50430109645228, 0.6239767836760763, 0.1};
Point(p16 + 37) = {35.60972364383403, 0.7960107454823917, 0.1};
Point(p16 + 38) = {35.68693622393489, 0.9824184035477204, 0.1};
Point(p16 + 39) = {35.73403760677893, 1.178609782678945, 0.1};
Spline(16) = {11, p16 + 1, p16 + 2, p16 + 3, p16 + 4, p16 + 5, p16 + 6, p16 + 7, p16 + 8, p16 + 9, p16 + 10, p16 + 11, p16 + 12, p16 + 13, p16 + 14, p16 + 15, p16 + 16, p16 + 17, p16 + 18, p16 + 19, p16 + 20, p16 + 21, p16 + 22, p16 + 23, p16 + 24, p16 + 25, p16 + 26, p16 + 27, p16 + 28, p16 + 29, p16 + 30, p16 + 31, p16 + 32, p16 + 33, p16 + 34, p16 + 35, p16 + 36, p16 + 37, p16 + 38, p16 + 39, 11};
Line(17) = {12, 11};
p18 = newp;
Point(p18 + 1) = {35.73403760677893, 1.580898217321054, 0};
Point(p18 + 2) = {35.68693622393489, 1.777089596452279, 0};
Point(p18 + 3) = {35.60972364383403, 1.963497254517608, 0};
Point(p18 + 4) = {35.50430109645228, 2.135531216323924, 0};
Point(p18 + 5) = {35.37326443478357, 2.288955434783569, 0};
Point(p18 + 6) = {35.21984021632392, 2.419992096452279, 0};
Point(p18 + 7) = {35.04780625451761, 2.525414643834024, 0};
Point(p18 + 8) = {34.86139859645228, 2.60262722393489, 0};
Point(p18 + 9) = {34.66520721732105, 2.649728606778931, 0};
Point(p18 + 10) = {34.464063, 2.665559, 0};
Point(p18 + 11) = {34.26291878267895, 2.649728606778931, 0};
Point(p18 + 12) = {34.06672740354772, 2.60262722393489, 0};
Point(p18 + 13) = {33.8803197454824, 2.525414643834024, 0};
Point(p18 + 14) = {33.70828578367608, 2.419992096452279, 0};
Point(p18 + 15) = {33.55486156521643, 2.288955434783569, 0};
Point(p18 + 16) = {33.42382490354773, 2.135531216323924, 0};
Point(p18 + 17) = {33.31840235616598, 1.963497254517608, 0};
Point(p18 + 18) = {33.24118977606511, 1.777089596452279, 0};
Point(p18 + 19) = {33.19408839322107, 1.580898217321054, 0};
Point(p18 + 20) = {33.178258, 1.379754, 0};
Point(p18 + 21) = {33.19408839322107, 1.178609782678946, 0};
Point(p18 + 22) = {33.24118977606511, 0.9824184035477203, 0};
Point(p18 + 23) = {33.31840235616598, 0.7960107454823926, 0};
Point(p18 + 24) = {33.42382490354773, 0.6239767836760766, 0};
Point(p18 + 25) = {33.55486156521643, 0.4705525652164312, 0};
Point(p18 + 26) = {33.70828578367608, 0.3395159035477207, 0};
Point(p18 + 27) = {33.8803197454824, 0.2340933561659757, 0};
Point(p18 + 28) = {34.06672740354772, 0.1568807760651099, 0};
Point(p18 + 29) = {34.26291878267895, 0.1097793932210689, 0};
Point(p18 + 30) = {34.464063, 0.09394899999999984, 0};
Point(p18 + 31) = {34.66520721732105, 0.1097793932210687, 0};
Point(p18 + 32) = {34.86139859645228, 0.1568807760651099, 0};
Point(p18 + 33) = {35.04780625451761, 0.2340933561659753, 0};
Point(p18 + 34) = {35.21984021632392, 0.3395159035477204, 0};
Point(p18 + 35) = {35.37326443478357, 0.470552565216431, 0};
Point(p18 + 36) = {35.50430109645228, 0.6239767836760763, 0};
Point(p18 + 37) = {35.60972364383403, 0.7960107454823917, 0};
Point(p18 + 38) = {35.68693622393489, 0.9824184035477204, 0};
Point(p18 + 39) = {35.73403760677893, 1.178609782678945, 0};
Spline(18) = {12, p18 + 1, p18 + 2, p18 + 3, p18 + 4, p18 + 5, p18 + 6, p18 + 7, p18 + 8, p18 + 9, p18 + 10, p18 + 11, p18 + 12, p18 + 13, p18 + 14, p18 + 15, p18 + 16, p18 + 17, p18 + 18, p18 + 19, p18 + 20, p18 + 21, p18 + 22, p18 + 23, p18 + 24, p18 + 25, p18 + 26, p18 + 27, p18 + 28, p18 + 29, p18 + 30, p18 + 31, p18 + 32, p18 + 33, p18 + 34, p18 + 35, p18 + 36, p18 + 37, p18 + 38, p18 + 39, 12};
Line(19) = {14, 13};
Line(20) = {13, 15};
Line(21) = {16, 15};
Line(22) = {14, 16};
Line(23) = {14, 17};
Line(24) = {17, 18};
Line(25) = {13, 18};
Line(26) = {15, 19};
Line(27) = {18, 19};
Line(28) = {16, 20};
Line(29) = {20, 19};
Line(30) = {17, 20};
Curve Loop(7) = {-13, -14, 15, 14};
Surface(7) = {7};
Curve Loop(8) = {13};
Plane Surface(8) = {8};
Curve Loop(9) = {15};
Plane Surface(9) = {9};
Curve Loop(10) = {-16, -17, 18, 17};
Surface(10) = {10};
Curve Loop(11) = {16};
Plane Surface(11) = {11};
Curve Loop(12) = {18};
Plane Surface(12) = {12};
Curve Loop(13) = {-19, 22, 21, -20};
Plane Surface(13) = {13};
Curve Loop(14) = {-23, 19, 25, -24};
Plane Surface(14) = {14};
Curve Loop(15) = {-20, 25, 27, -26};
Plane Surface(15) = {15};
Curve Loop(16) = {-28, 21, 26, -29};
Plane Surface(16) = {16};
Curve Loop(17) = {-22, 23, 30, -28, -15, -18};
Plane Surface(17) = {17};
Curve Loop(18) = {-24, 30, 29, -27};
Plane Surface(18) = {18};
Surface Loop(1) = {13, 14, 15, 16, 17, 18, 7, 10, 8, 11};
Volume(1) = {1};
Surface Loop(2) = {7, 8, 9};
Volume(2) = {2};
Surface Loop(3) = {10, 11, 12};
Volume(3) = {3};
Physical Surface("WALLS") = {13, 18};
Physical Surface("LOAD") = {8, 11};
Physical Surface("BORDER") = {7, 9, 10, 12, 14, 15, 16, 17};
Physical Volume("SOLID") = {1, 2, 3};
