cl__1 = 0.068304;
cl__2 = 0.091824;
cl__3 = 0.442897;
cl__4 = 0.8906809999999999;
cl__5 = 2.21875;
cl__6 = 2.527383;
Point(9) = {4.318785, -1.524822, 0.1, cl__1};
Point(10) = {4.318785, -1.524822, 0, cl__1};
Point(11) = {22.309036, 0.08481099999999978, 0.1, cl__2};
Point(12) = {22.309036, 0.08481099999999978, 0, cl__2};
Point(13) = {0.297445, -3.30295, 1, cl__3};
Point(14) = {0.297445, -3.30295, 0, cl__3};
Point(15) = {0.297445, 4.531919, 1, cl__4};
Point(16) = {0.297445, 4.531919, 0, cl__4};
Point(17) = {30.84752, -3.30295, 0, cl__5};
Point(18) = {30.84752, -3.30295, 1, cl__5};
Point(19) = {30.84752, 4.531919, 1, cl__6};
Point(20) = {30.84752, 4.531919, 0, cl__6};
p13 = newp;
Point(p13 + 1) = {4.310375582601806, -1.417970220826595, 0.1};
Point(p13 + 2) = {4.285354398172823, -1.313749487077164, 0.1};
Point(p13 + 3) = {4.244337551314244, -1.214726059105401, 0.1};
Point(p13 + 4) = {4.188335012922836, -1.123338222347888, 0.1};
Point(p13 + 5) = {4.118725751355566, -1.041836248644435, 0.1};
Point(p13 + 6) = {4.037223777652112, -0.9722269870771639, 0.1};
Point(p13 + 7) = {3.945835940894599, -0.9162244486857563, 0.1};
Point(p13 + 8) = {3.846812512922836, -0.8752076018271767, 0.1};
Point(p13 + 9) = {3.742591779173405, -0.850186417398194, 0.1};
Point(p13 + 10) = {3.63574, -0.8417769999999999, 0.1};
Point(p13 + 11) = {3.528888220826595, -0.8501864173981941, 0.1};
Point(p13 + 12) = {3.424667487077164, -0.8752076018271767, 0.1};
Point(p13 + 13) = {3.325644059105402, -0.9162244486857561, 0.1};
Point(p13 + 14) = {3.234256222347888, -0.9722269870771639, 0.1};
Point(p13 + 15) = {3.152754248644435, -1.041836248644435, 0.1};
Point(p13 + 16) = {3.083144987077164, -1.123338222347888, 0.1};
Point(p13 + 17) = {3.027142448685757, -1.214726059105401, 0.1};
Point(p13 + 18) = {2.986125601827177, -1.313749487077164, 0.1};
Point(p13 + 19) = {2.961104417398194, -1.417970220826595, 0.1};
Point(p13 + 20) = {2.952695, -1.524822, 0.1};
Point(p13 + 21) = {2.961104417398194, -1.631673779173404, 0.1};
Point(p13 + 22) = {2.986125601827177, -1.735894512922836, 0.1};
Point(p13 + 23) = {3.027142448685757, -1.834917940894598, 0.1};
Point(p13 + 24) = {3.083144987077164, -1.926305777652112, 0.1};
Point(p13 + 25) = {3.152754248644435, -2.007807751355565, 0.1};
Point(p13 + 26) = {3.234256222347888, -2.077417012922836, 0.1};
Point(p13 + 27) = {3.325644059105402, -2.133419551314244, 0.1};
Point(p13 + 28) = {3.424667487077164, -2.174436398172823, 0.1};
Point(p13 + 29) = {3.528888220826595, -2.199457582601806, 0.1};
Point(p13 + 30) = {3.63574, -2.207867, 0.1};
Point(p13 + 31) = {3.742591779173404, -2.199457582601806, 0.1};
Point(p13 + 32) = {3.846812512922836, -2.174436398172823, 0.1};
Point(p13 + 33) = {3.945835940894599, -2.133419551314244, 0.1};
Point(p13 + 34) = {4.037223777652112, -2.077417012922836, 0.1};
Point(p13 + 35) = {4.118725751355566, -2.007807751355565, 0.1};
Point(p13 + 36) = {4.188335012922836, -1.926305777652112, 0.1};
Point(p13 + 37) = {4.244337551314244, -1.834917940894599, 0.1};
Point(p13 + 38) = {4.285354398172823, -1.735894512922836, 0.1};
Point(p13 + 39) = {4.310375582601806, -1.631673779173405, 0.1};
Spline(13) = {9, p13 + 1, p13 + 2, p13 + 3, p13 + 4, p13 + 5, p13 + 6, p13 + 7, p13 + 8, p13 + 9, p13 + 10, p13 + 11, p13 + 12, p13 + 13, p13 + 14, p13 + 15, p13 + 16, p13 + 17, p13 + 18, p13 + 19, p13 + 20, p13 + 21, p13 + 22, p13 + 23, p13 + 24, p13 + 25, p13 + 26, p13 + 27, p13 + 28, p13 + 29, p13 + 30, p13 + 31, p13 + 32, p13 + 33, p13 + 34, p13 + 35, p13 + 36, p13 + 37, p13 + 38, p13 + 39, 9};
Line(14) = {10, 9};
p15 = newp;
Point(p15 + 1) = {4.310375582601806, -1.417970220826595, 0};
Point(p15 + 2) = {4.285354398172823, -1.313749487077164, 0};
Point(p15 + 3) = {4.244337551314244, -1.214726059105401, 0};
Point(p15 + 4) = {4.188335012922836, -1.123338222347888, 0};
Point(p15 + 5) = {4.118725751355566, -1.041836248644435, 0};
Point(p15 + 6) = {4.037223777652112, -0.9722269870771639, 0};
Point(p15 + 7) = {3.945835940894599, -0.9162244486857563, 0};
Point(p15 + 8) = {3.846812512922836, -0.8752076018271767, 0};
Point(p15 + 9) = {3.742591779173405, -0.850186417398194, 0};
Point(p15 + 10) = {3.63574, -0.8417769999999999, 0};
Point(p15 + 11) = {3.528888220826595, -0.8501864173981941, 0};
Point(p15 + 12) = {3.424667487077164, -0.8752076018271767, 0};
Point(p15 + 13) = {3.325644059105402, -0.9162244486857561, 0};
Point(p15 + 14) = {3.234256222347888, -0.9722269870771639, 0};
Point(p15 + 15) = {3.152754248644435, -1.041836248644435, 0};
Point(p15 + 16) = {3.083144987077164, -1.123338222347888, 0};
Point(p15 + 17) = {3.027142448685757, -1.214726059105401, 0};
Point(p15 + 18) = {2.986125601827177, -1.313749487077164, 0};
Point(p15 + 19) = {2.961104417398194, -1.417970220826595, 0};
Point(p15 + 20) = {2.952695, -1.524822, 0};
Point(p15 + 21) = {2.961104417398194, -1.631673779173404, 0};
Point(p15 + 22) = {2.986125601827177, -1.735894512922836, 0};
Point(p15 + 23) = {3.027142448685757, -1.834917940894598, 0};
Point(p15 + 24) = {3.083144987077164, -1.926305777652112, 0};
Point(p15 + 25) = {3.152754248644435, -2.007807751355565, 0};
Point(p15 + 26) = {3.234256222347888, -2.077417012922836, 0};
Point(p15 + 27) = {3.325644059105402, -2.133419551314244, 0};
Point(p15 + 28) = {3.424667487077164, -2.174436398172823, 0};
Point(p15 + 29) = {3.528888220826595, -2.199457582601806, 0};
Point(p15 + 30) = {3.63574, -2.207867, 0};
Point(p15 + 31) = {3.742591779173404, -2.199457582601806, 0};
Point(p15 + 32) = {3.846812512922836, -2.174436398172823, 0};
Point(p15 + 33) = {3.945835940894599, -2.133419551314244, 0};
Point(p15 + 34) = {4.037223777652112, -2.077417012922836, 0};
Point(p15 + 35) = {4.118725751355566, -2.007807751355565, 0};
Point(p15 + 36) = {4.188335012922836, -1.926305777652112, 0};
Point(p15 + 37) = {4.244337551314244, -1.834917940894599, 0};
Point(p15 + 38) = {4.285354398172823, -1.735894512922836, 0};
Point(p15 + 39) = {4.310375582601806, -1.631673779173405, 0};
Spline(15) = {10, p15 + 1, p15 + 2, p15 + 3, p15 + 4, p15 + 5, p15 + 6, p15 + 7, p15 + 8, p15 + 9, p15 + 10, p15 + 11, p15 + 12, p15 + 13, p15 + 14, p15 + 15, p15 + 16, p15 + 17, p15 + 18, p15 + 19, p15 + 20, p15 + 21, p15 + 22, p15 + 23, p15 + 24, p15 + 25, p15 + 26, p15 + 27, p15 + 28, p15 + 29, p15 + 30, p15 + 31, p15 + 32, p15 + 33, p15 + 34, p15 + 35, p15 + 36, p15 + 37, p15 + 38, p15 + 39, 10};
p16 = newp;
Point(p16 + 1) = {22.29773095417974, 0.2284552267440766, 0.1};
Point(p16 + 2) = {22.26409418446634, 0.3685624558978573, 0.1};
Point(p16 + 3) = {22.2089539397642, 0.5016827824903417, 0.1};
Point(p16 + 4) = {22.13366795589786, 0.6245383422797882, 0.1};
Point(p16 + 5) = {22.04009002364995, 0.7341040236499542, 0.1};
Point(p16 + 6) = {21.93052434227979, 0.8276819558978573, 0.1};
Point(p16 + 7) = {21.80766878249034, 0.9029679397642026, 0.1};
Point(p16 + 8) = {21.67454845589786, 0.9581081844663455, 0.1};
Point(p16 + 9) = {21.53444122674408, 0.9917449541797387, 0.1};
Point(p16 + 10) = {21.390797, 1.00305, 0.1};
Point(p16 + 11) = {21.24715277325592, 0.9917449541797386, 0.1};
Point(p16 + 12) = {21.10704554410214, 0.9581081844663456, 0.1};
Point(p16 + 13) = {20.97392521750966, 0.9029679397642028, 0.1};
Point(p16 + 14) = {20.85106965772021, 0.8276819558978573, 0.1};
Point(p16 + 15) = {20.74150397635005, 0.7341040236499542, 0.1};
Point(p16 + 16) = {20.64792604410214, 0.6245383422797883, 0.1};
Point(p16 + 17) = {20.57264006023579, 0.5016827824903418, 0.1};
Point(p16 + 18) = {20.51749981553365, 0.3685624558978574, 0.1};
Point(p16 + 19) = {20.48386304582026, 0.2284552267440766, 0.1};
Point(p16 + 20) = {20.472558, 0.08481100000000011, 0.1};
Point(p16 + 21) = {20.48386304582026, -0.05883322674407646, 0.1};
Point(p16 + 22) = {20.51749981553365, -0.1989404558978577, 0.1};
Point(p16 + 23) = {20.57264006023579, -0.3320607824903413, 0.1};
Point(p16 + 24) = {20.64792604410214, -0.4549163422797882, 0.1};
Point(p16 + 25) = {20.74150397635005, -0.5644820236499543, 0.1};
Point(p16 + 26) = {20.85106965772021, -0.6580599558978574, 0.1};
Point(p16 + 27) = {20.97392521750966, -0.7333459397642027, 0.1};
Point(p16 + 28) = {21.10704554410214, -0.7884861844663456, 0.1};
Point(p16 + 29) = {21.24715277325592, -0.8221229541797387, 0.1};
Point(p16 + 30) = {21.390797, -0.8334280000000001, 0.1};
Point(p16 + 31) = {21.53444122674408, -0.8221229541797388, 0.1};
Point(p16 + 32) = {21.67454845589786, -0.7884861844663457, 0.1};
Point(p16 + 33) = {21.80766878249034, -0.7333459397642029, 0.1};
Point(p16 + 34) = {21.93052434227979, -0.6580599558978575, 0.1};
Point(p16 + 35) = {22.04009002364995, -0.5644820236499544, 0.1};
Point(p16 + 36) = {22.13366795589786, -0.4549163422797884, 0.1};
Point(p16 + 37) = {22.2089539397642, -0.3320607824903419, 0.1};
Point(p16 + 38) = {22.26409418446634, -0.1989404558978576, 0.1};
Point(p16 + 39) = {22.29773095417974, -0.05883322674407679, 0.1};
Spline(16) = {11, p16 + 1, p16 + 2, p16 + 3, p16 + 4, p16 + 5, p16 + 6, p16 + 7, p16 + 8, p16 + 9, p16 + 10, p16 + 11, p16 + 12, p16 + 13, p16 + 14, p16 + 15, p16 + 16, p16 + 17, p16 + 18, p16 + 19, p16 + 20, p16 + 21, p16 + 22, p16 + 23, p16 + 24, p16 + 25, p16 + 26, p16 + 27, p16 + 28, p16 + 29, p16 + 30, p16 + 31, p16 + 32, p16 + 33, p16 + 34, p16 + 35, p16 + 36, p16 + 37, p16 + 38, p16 + 39, 11};
Line(17) = {12, 11};
p18 = newp;
Point(p18 + 1) = {22.29773095417974, 0.2284552267440766, 0};
Point(p18 + 2) = {22.26409418446634, 0.3685624558978573, 0};
Point(p18 + 3) = {22.2089539397642, 0.5016827824903417, 0};
Point(p18 + 4) = {22.13366795589786, 0.6245383422797882, 0};
Point(p18 + 5) = {22.04009002364995, 0.7341040236499542, 0};
Point(p18 + 6) = {21.93052434227979, 0.8276819558978573, 0};
Point(p18 + 7) = {21.80766878249034, 0.9029679397642026, 0};
Point(p18 + 8) = {21.67454845589786, 0.9581081844663455, 0};
Point(p18 + 9) = {21.53444122674408, 0.9917449541797387, 0};
Point(p18 + 10) = {21.390797, 1.00305, 0};
Point(p18 + 11) = {21.24715277325592, 0.9917449541797386, 0};
Point(p18 + 12) = {21.10704554410214, 0.9581081844663456, 0};
Point(p18 + 13) = {20.97392521750966, 0.9029679397642028, 0};
Point(p18 + 14) = {20.85106965772021, 0.8276819558978573, 0};
Point(p18 + 15) = {20.74150397635005, 0.7341040236499542, 0};
Point(p18 + 16) = {20.64792604410214, 0.6245383422797883, 0};
Point(p18 + 17) = {20.57264006023579, 0.5016827824903418, 0};
Point(p18 + 18) = {20.51749981553365, 0.3685624558978574, 0};
Point(p18 + 19) = {20.48386304582026, 0.2284552267440766, 0};
Point(p18 + 20) = {20.472558, 0.08481100000000011, 0};
Point(p18 + 21) = {20.48386304582026, -0.05883322674407646, 0};
Point(p18 + 22) = {20.51749981553365, -0.1989404558978577, 0};
Point(p18 + 23) = {20.57264006023579, -0.3320607824903413, 0};
Point(p18 + 24) = {20.64792604410214, -0.4549163422797882, 0};
Point(p18 + 25) = {20.74150397635005, -0.5644820236499543, 0};
Point(p18 + 26) = {20.85106965772021, -0.6580599558978574, 0};
Point(p18 + 27) = {20.97392521750966, -0.7333459397642027, 0};
Point(p18 + 28) = {21.10704554410214, -0.7884861844663456, 0};
Point(p18 + 29) = {21.24715277325592, -0.8221229541797387, 0};
Point(p18 + 30) = {21.390797, -0.8334280000000001, 0};
Point(p18 + 31) = {21.53444122674408, -0.8221229541797388, 0};
Point(p18 + 32) = {21.67454845589786, -0.7884861844663457, 0};
Point(p18 + 33) = {21.80766878249034, -0.7333459397642029, 0};
Point(p18 + 34) = {21.93052434227979, -0.6580599558978575, 0};
Point(p18 + 35) = {22.04009002364995, -0.5644820236499544, 0};
Point(p18 + 36) = {22.13366795589786, -0.4549163422797884, 0};
Point(p18 + 37) = {22.2089539397642, -0.3320607824903419, 0};
Point(p18 + 38) = {22.26409418446634, -0.1989404558978576, 0};
Point(p18 + 39) = {22.29773095417974, -0.05883322674407679, 0};
Spline(18) = {12, p18 + 1, p18 + 2, p18 + 3, p18 + 4, p18 + 5, p18 + 6, p18 + 7, p18 + 8, p18 + 9, p18 + 10, p18 + 11, p18 + 12, p18 + 13, p18 + 14, p18 + 15, p18 + 16, p18 + 17, p18 + 18, p18 + 19, p18 + 20, p18 + 21, p18 + 22, p18 + 23, p18 + 24, p18 + 25, p18 + 26, p18 + 27, p18 + 28, p18 + 29, p18 + 30, p18 + 31, p18 + 32, p18 + 33, p18 + 34, p18 + 35, p18 + 36, p18 + 37, p18 + 38, p18 + 39, 12};
Line(19) = {14, 13};
Line(20) = {13, 15};
Line(21) = {16, 15};
Line(22) = {14, 16};
Line(23) = {14, 17};
Line(24) = {17, 18};
Line(25) = {13, 18};
Line(26) = {15, 19};
Line(27) = {18, 19};
Line(28) = {16, 20};
Line(29) = {20, 19};
Line(30) = {17, 20};
Curve Loop(7) = {-13, -14, 15, 14};
Surface(7) = {7};
Curve Loop(8) = {13};
Plane Surface(8) = {8};
Curve Loop(9) = {15};
Plane Surface(9) = {9};
Curve Loop(10) = {-16, -17, 18, 17};
Surface(10) = {10};
Curve Loop(11) = {16};
Plane Surface(11) = {11};
Curve Loop(12) = {18};
Plane Surface(12) = {12};
Curve Loop(13) = {-19, 22, 21, -20};
Plane Surface(13) = {13};
Curve Loop(14) = {-23, 19, 25, -24};
Plane Surface(14) = {14};
Curve Loop(15) = {-20, 25, 27, -26};
Plane Surface(15) = {15};
Curve Loop(16) = {-28, 21, 26, -29};
Plane Surface(16) = {16};
Curve Loop(17) = {-22, 23, 30, -28, -15, -18};
Plane Surface(17) = {17};
Curve Loop(18) = {-24, 30, 29, -27};
Plane Surface(18) = {18};
Surface Loop(1) = {13, 14, 15, 16, 17, 18, 7, 10, 8, 11};
Volume(1) = {1};
Surface Loop(2) = {7, 8, 9};
Volume(2) = {2};
Surface Loop(3) = {10, 11, 12};
Volume(3) = {3};
Physical Surface("WALLS") = {13, 18};
Physical Surface("LOAD") = {8, 11};
Physical Surface("BORDER") = {7, 9, 10, 12, 14, 15, 16, 17};
Physical Volume("SOLID") = {1, 2, 3};
