cl__1 = 0.065703;
cl__2 = 0.10059;
cl__3 = 1.449629;
cl__4 = 1.94804;
cl__5 = 1.379534;
cl__6 = 0.50612;
Point(9) = {30.764172, 3.947104, 0.1, cl__1};
Point(10) = {30.764172, 3.947104, 0, cl__1};
Point(11) = {11.104985, -0.5616620000000002, 0.1, cl__2};
Point(12) = {11.104985, -0.5616620000000002, 0, cl__2};
Point(13) = {0.926632, -4.36417, 0.1, cl__3};
Point(14) = {0.926632, -4.36417, 0, cl__3};
Point(15) = {0.926632, 5.239822, 0.1, cl__4};
Point(16) = {0.926632, 5.239822, 0, cl__4};
Point(17) = {34.57135599999999, -4.36417, 0, cl__5};
Point(18) = {34.57135599999999, -4.36417, 0.1, cl__5};
Point(19) = {34.57135599999999, 5.239822, 0.1, cl__6};
Point(20) = {34.57135599999999, 5.239822, 0, cl__6};
p13 = newp;
Point(p13 + 1) = {30.75608283348625, 4.049886605868778, 0.1};
Point(p13 + 2) = {30.73201451607095, 4.150138362865155, 0.1};
Point(p13 + 3) = {30.69255968960706, 4.245390740015374, 0.1};
Point(p13 + 4) = {30.63868986286516, 4.33329830766948, 0.1};
Point(p13 + 5) = {30.57173148976334, 4.411696489763341, 0.1};
Point(p13 + 6) = {30.49333330766948, 4.478654862865155, 0.1};
Point(p13 + 7) = {30.40542574001537, 4.532524689607055, 0.1};
Point(p13 + 8) = {30.31017336286515, 4.571979516070954, 0.1};
Point(p13 + 9) = {30.20992160586878, 4.596047833486245, 0.1};
Point(p13 + 10) = {30.107139, 4.604137, 0.1};
Point(p13 + 11) = {30.00435639413122, 4.596047833486245, 0.1};
Point(p13 + 12) = {29.90410463713485, 4.571979516070954, 0.1};
Point(p13 + 13) = {29.80885225998463, 4.532524689607056, 0.1};
Point(p13 + 14) = {29.72094469233052, 4.478654862865155, 0.1};
Point(p13 + 15) = {29.64254651023666, 4.411696489763341, 0.1};
Point(p13 + 16) = {29.57558813713484, 4.33329830766948, 0.1};
Point(p13 + 17) = {29.52171831039295, 4.245390740015374, 0.1};
Point(p13 + 18) = {29.48226348392905, 4.150138362865155, 0.1};
Point(p13 + 19) = {29.45819516651375, 4.049886605868778, 0.1};
Point(p13 + 20) = {29.450106, 3.947104, 0.1};
Point(p13 + 21) = {29.45819516651375, 3.844321394131222, 0.1};
Point(p13 + 22) = {29.48226348392905, 3.744069637134845, 0.1};
Point(p13 + 23) = {29.52171831039295, 3.648817259984626, 0.1};
Point(p13 + 24) = {29.57558813713484, 3.56090969233052, 0.1};
Point(p13 + 25) = {29.64254651023666, 3.482511510236659, 0.1};
Point(p13 + 26) = {29.72094469233052, 3.415553137134845, 0.1};
Point(p13 + 27) = {29.80885225998463, 3.361683310392944, 0.1};
Point(p13 + 28) = {29.90410463713485, 3.322228483929046, 0.1};
Point(p13 + 29) = {30.00435639413122, 3.298160166513755, 0.1};
Point(p13 + 30) = {30.107139, 3.290071, 0.1};
Point(p13 + 31) = {30.20992160586878, 3.298160166513755, 0.1};
Point(p13 + 32) = {30.31017336286515, 3.322228483929046, 0.1};
Point(p13 + 33) = {30.40542574001537, 3.361683310392944, 0.1};
Point(p13 + 34) = {30.49333330766948, 3.415553137134845, 0.1};
Point(p13 + 35) = {30.57173148976334, 3.482511510236659, 0.1};
Point(p13 + 36) = {30.63868986286516, 3.560909692330519, 0.1};
Point(p13 + 37) = {30.69255968960706, 3.648817259984626, 0.1};
Point(p13 + 38) = {30.73201451607095, 3.744069637134845, 0.1};
Point(p13 + 39) = {30.75608283348625, 3.844321394131222, 0.1};
Spline(13) = {9, p13 + 1, p13 + 2, p13 + 3, p13 + 4, p13 + 5, p13 + 6, p13 + 7, p13 + 8, p13 + 9, p13 + 10, p13 + 11, p13 + 12, p13 + 13, p13 + 14, p13 + 15, p13 + 16, p13 + 17, p13 + 18, p13 + 19, p13 + 20, p13 + 21, p13 + 22, p13 + 23, p13 + 24, p13 + 25, p13 + 26, p13 + 27, p13 + 28, p13 + 29, p13 + 30, p13 + 31, p13 + 32, p13 + 33, p13 + 34, p13 + 35, p13 + 36, p13 + 37, p13 + 38, p13 + 39, 9};
Line(14) = {10, 9};
p15 = newp;
Point(p15 + 1) = {30.75608283348625, 4.049886605868778, 0};
Point(p15 + 2) = {30.73201451607095, 4.150138362865155, 0};
Point(p15 + 3) = {30.69255968960706, 4.245390740015374, 0};
Point(p15 + 4) = {30.63868986286516, 4.33329830766948, 0};
Point(p15 + 5) = {30.57173148976334, 4.411696489763341, 0};
Point(p15 + 6) = {30.49333330766948, 4.478654862865155, 0};
Point(p15 + 7) = {30.40542574001537, 4.532524689607055, 0};
Point(p15 + 8) = {30.31017336286515, 4.571979516070954, 0};
Point(p15 + 9) = {30.20992160586878, 4.596047833486245, 0};
Point(p15 + 10) = {30.107139, 4.604137, 0};
Point(p15 + 11) = {30.00435639413122, 4.596047833486245, 0};
Point(p15 + 12) = {29.90410463713485, 4.571979516070954, 0};
Point(p15 + 13) = {29.80885225998463, 4.532524689607056, 0};
Point(p15 + 14) = {29.72094469233052, 4.478654862865155, 0};
Point(p15 + 15) = {29.64254651023666, 4.411696489763341, 0};
Point(p15 + 16) = {29.57558813713484, 4.33329830766948, 0};
Point(p15 + 17) = {29.52171831039295, 4.245390740015374, 0};
Point(p15 + 18) = {29.48226348392905, 4.150138362865155, 0};
Point(p15 + 19) = {29.45819516651375, 4.049886605868778, 0};
Point(p15 + 20) = {29.450106, 3.947104, 0};
Point(p15 + 21) = {29.45819516651375, 3.844321394131222, 0};
Point(p15 + 22) = {29.48226348392905, 3.744069637134845, 0};
Point(p15 + 23) = {29.52171831039295, 3.648817259984626, 0};
Point(p15 + 24) = {29.57558813713484, 3.56090969233052, 0};
Point(p15 + 25) = {29.64254651023666, 3.482511510236659, 0};
Point(p15 + 26) = {29.72094469233052, 3.415553137134845, 0};
Point(p15 + 27) = {29.80885225998463, 3.361683310392944, 0};
Point(p15 + 28) = {29.90410463713485, 3.322228483929046, 0};
Point(p15 + 29) = {30.00435639413122, 3.298160166513755, 0};
Point(p15 + 30) = {30.107139, 3.290071, 0};
Point(p15 + 31) = {30.20992160586878, 3.298160166513755, 0};
Point(p15 + 32) = {30.31017336286515, 3.322228483929046, 0};
Point(p15 + 33) = {30.40542574001537, 3.361683310392944, 0};
Point(p15 + 34) = {30.49333330766948, 3.415553137134845, 0};
Point(p15 + 35) = {30.57173148976334, 3.482511510236659, 0};
Point(p15 + 36) = {30.63868986286516, 3.560909692330519, 0};
Point(p15 + 37) = {30.69255968960706, 3.648817259984626, 0};
Point(p15 + 38) = {30.73201451607095, 3.744069637134845, 0};
Point(p15 + 39) = {30.75608283348625, 3.844321394131222, 0};
Spline(15) = {10, p15 + 1, p15 + 2, p15 + 3, p15 + 4, p15 + 5, p15 + 6, p15 + 7, p15 + 8, p15 + 9, p15 + 10, p15 + 11, p15 + 12, p15 + 13, p15 + 14, p15 + 15, p15 + 16, p15 + 17, p15 + 18, p15 + 19, p15 + 20, p15 + 21, p15 + 22, p15 + 23, p15 + 24, p15 + 25, p15 + 26, p15 + 27, p15 + 28, p15 + 29, p15 + 30, p15 + 31, p15 + 32, p15 + 33, p15 + 34, p15 + 35, p15 + 36, p15 + 37, p15 + 38, p15 + 39, 10};
p16 = newp;
Point(p16 + 1) = {11.09260073873963, -0.4043050409194269, 0.1};
Point(p16 + 2) = {11.05575289657175, -0.2508227324092235, 0.1};
Point(p16 + 3) = {10.99534878966151, -0.1049943182834891, 0.1};
Point(p16 + 4) = {10.91287576759078, 0.02958942192524183, 0.1};
Point(p16 + 5) = {10.8103645898752, 0.1496145898752046, 0.1};
Point(p16 + 6) = {10.69033942192524, 0.2521257675907764, 0.1};
Point(p16 + 7) = {10.55575568171651, 0.3345987896615066, 0.1};
Point(p16 + 8) = {10.40992726759078, 0.3950028965717461, 0.1};
Point(p16 + 9) = {10.25644495908057, 0.4318507387396273, 0.1};
Point(p16 + 10) = {10.099088, 0.444235, 0.1};
Point(p16 + 11) = {9.941731040919427, 0.4318507387396272, 0.1};
Point(p16 + 12) = {9.788248732409224, 0.3950028965717463, 0.1};
Point(p16 + 13) = {9.64242031828349, 0.3345987896615068, 0.1};
Point(p16 + 14) = {9.507836578074759, 0.2521257675907765, 0.1};
Point(p16 + 15) = {9.387811410124796, 0.1496145898752047, 0.1};
Point(p16 + 16) = {9.285300232409224, 0.02958942192524194, 0.1};
Point(p16 + 17) = {9.202827210338494, -0.104994318283489, 0.1};
Point(p16 + 18) = {9.142423103428253, -0.2508227324092234, 0.1};
Point(p16 + 19) = {9.105575261260373, -0.4043050409194268, 0.1};
Point(p16 + 20) = {9.093191000000001, -0.5616619999999999, 0.1};
Point(p16 + 21) = {9.105575261260373, -0.719018959080573, 0.1};
Point(p16 + 22) = {9.142423103428253, -0.8725012675907768, 0.1};
Point(p16 + 23) = {9.202827210338492, -1.01832968171651, 0.1};
Point(p16 + 24) = {9.285300232409224, -1.152913421925242, 0.1};
Point(p16 + 25) = {9.387811410124796, -1.272938589875205, 0.1};
Point(p16 + 26) = {9.507836578074759, -1.375449767590776, 0.1};
Point(p16 + 27) = {9.64242031828349, -1.457922789661507, 0.1};
Point(p16 + 28) = {9.788248732409224, -1.518326896571746, 0.1};
Point(p16 + 29) = {9.941731040919427, -1.555174738739627, 0.1};
Point(p16 + 30) = {10.099088, -1.567559, 0.1};
Point(p16 + 31) = {10.25644495908057, -1.555174738739627, 0.1};
Point(p16 + 32) = {10.40992726759078, -1.518326896571746, 0.1};
Point(p16 + 33) = {10.55575568171651, -1.457922789661507, 0.1};
Point(p16 + 34) = {10.69033942192524, -1.375449767590777, 0.1};
Point(p16 + 35) = {10.8103645898752, -1.272938589875205, 0.1};
Point(p16 + 36) = {10.91287576759078, -1.152913421925242, 0.1};
Point(p16 + 37) = {10.99534878966151, -1.018329681716511, 0.1};
Point(p16 + 38) = {11.05575289657175, -0.8725012675907766, 0.1};
Point(p16 + 39) = {11.09260073873963, -0.7190189590805733, 0.1};
Spline(16) = {11, p16 + 1, p16 + 2, p16 + 3, p16 + 4, p16 + 5, p16 + 6, p16 + 7, p16 + 8, p16 + 9, p16 + 10, p16 + 11, p16 + 12, p16 + 13, p16 + 14, p16 + 15, p16 + 16, p16 + 17, p16 + 18, p16 + 19, p16 + 20, p16 + 21, p16 + 22, p16 + 23, p16 + 24, p16 + 25, p16 + 26, p16 + 27, p16 + 28, p16 + 29, p16 + 30, p16 + 31, p16 + 32, p16 + 33, p16 + 34, p16 + 35, p16 + 36, p16 + 37, p16 + 38, p16 + 39, 11};
Line(17) = {12, 11};
p18 = newp;
Point(p18 + 1) = {11.09260073873963, -0.4043050409194269, 0};
Point(p18 + 2) = {11.05575289657175, -0.2508227324092235, 0};
Point(p18 + 3) = {10.99534878966151, -0.1049943182834891, 0};
Point(p18 + 4) = {10.91287576759078, 0.02958942192524183, 0};
Point(p18 + 5) = {10.8103645898752, 0.1496145898752046, 0};
Point(p18 + 6) = {10.69033942192524, 0.2521257675907764, 0};
Point(p18 + 7) = {10.55575568171651, 0.3345987896615066, 0};
Point(p18 + 8) = {10.40992726759078, 0.3950028965717461, 0};
Point(p18 + 9) = {10.25644495908057, 0.4318507387396273, 0};
Point(p18 + 10) = {10.099088, 0.444235, 0};
Point(p18 + 11) = {9.941731040919427, 0.4318507387396272, 0};
Point(p18 + 12) = {9.788248732409224, 0.3950028965717463, 0};
Point(p18 + 13) = {9.64242031828349, 0.3345987896615068, 0};
Point(p18 + 14) = {9.507836578074759, 0.2521257675907765, 0};
Point(p18 + 15) = {9.387811410124796, 0.1496145898752047, 0};
Point(p18 + 16) = {9.285300232409224, 0.02958942192524194, 0};
Point(p18 + 17) = {9.202827210338494, -0.104994318283489, 0};
Point(p18 + 18) = {9.142423103428253, -0.2508227324092234, 0};
Point(p18 + 19) = {9.105575261260373, -0.4043050409194268, 0};
Point(p18 + 20) = {9.093191000000001, -0.5616619999999999, 0};
Point(p18 + 21) = {9.105575261260373, -0.719018959080573, 0};
Point(p18 + 22) = {9.142423103428253, -0.8725012675907768, 0};
Point(p18 + 23) = {9.202827210338492, -1.01832968171651, 0};
Point(p18 + 24) = {9.285300232409224, -1.152913421925242, 0};
Point(p18 + 25) = {9.387811410124796, -1.272938589875205, 0};
Point(p18 + 26) = {9.507836578074759, -1.375449767590776, 0};
Point(p18 + 27) = {9.64242031828349, -1.457922789661507, 0};
Point(p18 + 28) = {9.788248732409224, -1.518326896571746, 0};
Point(p18 + 29) = {9.941731040919427, -1.555174738739627, 0};
Point(p18 + 30) = {10.099088, -1.567559, 0};
Point(p18 + 31) = {10.25644495908057, -1.555174738739627, 0};
Point(p18 + 32) = {10.40992726759078, -1.518326896571746, 0};
Point(p18 + 33) = {10.55575568171651, -1.457922789661507, 0};
Point(p18 + 34) = {10.69033942192524, -1.375449767590777, 0};
Point(p18 + 35) = {10.8103645898752, -1.272938589875205, 0};
Point(p18 + 36) = {10.91287576759078, -1.152913421925242, 0};
Point(p18 + 37) = {10.99534878966151, -1.018329681716511, 0};
Point(p18 + 38) = {11.05575289657175, -0.8725012675907766, 0};
Point(p18 + 39) = {11.09260073873963, -0.7190189590805733, 0};
Spline(18) = {12, p18 + 1, p18 + 2, p18 + 3, p18 + 4, p18 + 5, p18 + 6, p18 + 7, p18 + 8, p18 + 9, p18 + 10, p18 + 11, p18 + 12, p18 + 13, p18 + 14, p18 + 15, p18 + 16, p18 + 17, p18 + 18, p18 + 19, p18 + 20, p18 + 21, p18 + 22, p18 + 23, p18 + 24, p18 + 25, p18 + 26, p18 + 27, p18 + 28, p18 + 29, p18 + 30, p18 + 31, p18 + 32, p18 + 33, p18 + 34, p18 + 35, p18 + 36, p18 + 37, p18 + 38, p18 + 39, 12};
Line(19) = {14, 13};
Line(20) = {13, 15};
Line(21) = {16, 15};
Line(22) = {14, 16};
Line(23) = {14, 17};
Line(24) = {17, 18};
Line(25) = {13, 18};
Line(26) = {15, 19};
Line(27) = {18, 19};
Line(28) = {16, 20};
Line(29) = {20, 19};
Line(30) = {17, 20};
Curve Loop(7) = {-13, -14, 15, 14};
Surface(7) = {7};
Curve Loop(8) = {13};
Plane Surface(8) = {8};
Curve Loop(9) = {15};
Plane Surface(9) = {9};
Curve Loop(10) = {-16, -17, 18, 17};
Surface(10) = {10};
Curve Loop(11) = {16};
Plane Surface(11) = {11};
Curve Loop(12) = {18};
Plane Surface(12) = {12};
Curve Loop(13) = {-19, 22, 21, -20};
Plane Surface(13) = {13};
Curve Loop(14) = {-23, 19, 25, -24};
Plane Surface(14) = {14};
Curve Loop(15) = {-20, 25, 27, -26, -16, -13};
Plane Surface(15) = {15};
Curve Loop(16) = {-28, 21, 26, -29};
Plane Surface(16) = {16};
Curve Loop(17) = {-22, 23, 30, -28, -18, -15};
Plane Surface(17) = {17};
Curve Loop(18) = {-24, 30, 29, -27};
Plane Surface(18) = {18};
Surface Loop(1) = {13, 14, 15, 16, 17, 18, 10, 7};
Volume(1) = {1};
Surface Loop(2) = {7, 8, 9};
Volume(2) = {2};
Surface Loop(3) = {10, 11, 12};
Volume(3) = {3};
Physical Surface("WALLS") = {13, 18};
Physical Surface("LOAD") = {8, 11};
Physical Surface("BORDER") = {7, 9, 10, 12, 14, 15, 16, 17};
Physical Volume("SOLID") = {1, 2, 3};
