cl__1 = 0.08236499999999999;
cl__2 = 0.076734;
cl__3 = 0.939849;
cl__4 = 0.92554;
cl__5 = 0.985855;
cl__6 = 1.515945;
Point(9) = {9.647573, 0.3107899999999998, 0.1, cl__1};
Point(10) = {9.647573, 0.3107899999999998, 0, cl__1};
Point(11) = {22.869245, -1.68882, 0.1, cl__2};
Point(12) = {22.869245, -1.68882, 0, cl__2};
Point(13) = {0.632771, -3.842293, 0.1, cl__3};
Point(14) = {0.632771, -3.842293, 0, cl__3};
Point(15) = {0.632771, 4.174256, 0.1, cl__4};
Point(16) = {0.632771, 4.174256, 0, cl__4};
Point(17) = {31.39235, -3.842293, 0, cl__5};
Point(18) = {31.39235, -3.842293, 0.1, cl__5};
Point(19) = {31.39235, 4.174256, 0.1, cl__6};
Point(20) = {31.39235, 4.174256, 0, cl__6};
p13 = newp;
Point(p13 + 1) = {9.637432452484548, 0.4396378728682463, 0.1};
Point(p13 + 2) = {9.607260503872569, 0.5653130834849029, 0.1};
Point(p13 + 3) = {9.557800087673845, 0.6847210910724766, 0.1};
Point(p13 + 4) = {9.490269083484904, 0.7949216741917047, 0.1};
Point(p13 + 5) = {9.406330328751425, 0.8932013287514246, 0.1};
Point(p13 + 6) = {9.308050674191705, 0.9771400834849029, 0.1};
Point(p13 + 7) = {9.197850091072477, 1.044671087673846, 0.1};
Point(p13 + 8) = {9.078442083484903, 1.094131503872569, 0.1};
Point(p13 + 9) = {8.952766872868246, 1.124303452484548, 0.1};
Point(p13 + 10) = {8.823919, 1.134444, 0.1};
Point(p13 + 11) = {8.695071127131754, 1.124303452484547, 0.1};
Point(p13 + 12) = {8.569395916515097, 1.094131503872569, 0.1};
Point(p13 + 13) = {8.449987908927524, 1.044671087673846, 0.1};
Point(p13 + 14) = {8.339787325808295, 0.977140083484903, 0.1};
Point(p13 + 15) = {8.241507671248575, 0.8932013287514247, 0.1};
Point(p13 + 16) = {8.157568916515098, 0.7949216741917048, 0.1};
Point(p13 + 17) = {8.090037912326155, 0.6847210910724768, 0.1};
Point(p13 + 18) = {8.040577496127431, 0.5653130834849029, 0.1};
Point(p13 + 19) = {8.010405547515452, 0.4396378728682464, 0.1};
Point(p13 + 20) = {8.000265000000001, 0.3107900000000001, 0.1};
Point(p13 + 21) = {8.010405547515452, 0.1819421271317538, 0.1};
Point(p13 + 22) = {8.040577496127431, 0.0562669165150968, 0.1};
Point(p13 + 23) = {8.090037912326153, -0.06314109107247629, 0.1};
Point(p13 + 24) = {8.157568916515096, -0.1733416741917045, 0.1};
Point(p13 + 25) = {8.241507671248575, -0.2716213287514245, 0.1};
Point(p13 + 26) = {8.339787325808295, -0.3555600834849029, 0.1};
Point(p13 + 27) = {8.449987908927524, -0.4230910876738458, 0.1};
Point(p13 + 28) = {8.569395916515097, -0.4725515038725684, 0.1};
Point(p13 + 29) = {8.695071127131754, -0.5027234524845475, 0.1};
Point(p13 + 30) = {8.823919, -0.512864, 0.1};
Point(p13 + 31) = {8.952766872868246, -0.5027234524845476, 0.1};
Point(p13 + 32) = {9.078442083484903, -0.4725515038725685, 0.1};
Point(p13 + 33) = {9.197850091072477, -0.4230910876738461, 0.1};
Point(p13 + 34) = {9.308050674191705, -0.3555600834849031, 0.1};
Point(p13 + 35) = {9.406330328751425, -0.2716213287514248, 0.1};
Point(p13 + 36) = {9.490269083484902, -0.1733416741917048, 0.1};
Point(p13 + 37) = {9.557800087673845, -0.06314109107247678, 0.1};
Point(p13 + 38) = {9.607260503872569, 0.05626691651509691, 0.1};
Point(p13 + 39) = {9.637432452484548, 0.1819421271317535, 0.1};
Spline(13) = {9, p13 + 1, p13 + 2, p13 + 3, p13 + 4, p13 + 5, p13 + 6, p13 + 7, p13 + 8, p13 + 9, p13 + 10, p13 + 11, p13 + 12, p13 + 13, p13 + 14, p13 + 15, p13 + 16, p13 + 17, p13 + 18, p13 + 19, p13 + 20, p13 + 21, p13 + 22, p13 + 23, p13 + 24, p13 + 25, p13 + 26, p13 + 27, p13 + 28, p13 + 29, p13 + 30, p13 + 31, p13 + 32, p13 + 33, p13 + 34, p13 + 35, p13 + 36, p13 + 37, p13 + 38, p13 + 39, 9};
Line(14) = {10, 9};
p15 = newp;
Point(p15 + 1) = {9.637432452484548, 0.4396378728682463, 0};
Point(p15 + 2) = {9.607260503872569, 0.5653130834849029, 0};
Point(p15 + 3) = {9.557800087673845, 0.6847210910724766, 0};
Point(p15 + 4) = {9.490269083484904, 0.7949216741917047, 0};
Point(p15 + 5) = {9.406330328751425, 0.8932013287514246, 0};
Point(p15 + 6) = {9.308050674191705, 0.9771400834849029, 0};
Point(p15 + 7) = {9.197850091072477, 1.044671087673846, 0};
Point(p15 + 8) = {9.078442083484903, 1.094131503872569, 0};
Point(p15 + 9) = {8.952766872868246, 1.124303452484548, 0};
Point(p15 + 10) = {8.823919, 1.134444, 0};
Point(p15 + 11) = {8.695071127131754, 1.124303452484547, 0};
Point(p15 + 12) = {8.569395916515097, 1.094131503872569, 0};
Point(p15 + 13) = {8.449987908927524, 1.044671087673846, 0};
Point(p15 + 14) = {8.339787325808295, 0.977140083484903, 0};
Point(p15 + 15) = {8.241507671248575, 0.8932013287514247, 0};
Point(p15 + 16) = {8.157568916515098, 0.7949216741917048, 0};
Point(p15 + 17) = {8.090037912326155, 0.6847210910724768, 0};
Point(p15 + 18) = {8.040577496127431, 0.5653130834849029, 0};
Point(p15 + 19) = {8.010405547515452, 0.4396378728682464, 0};
Point(p15 + 20) = {8.000265000000001, 0.3107900000000001, 0};
Point(p15 + 21) = {8.010405547515452, 0.1819421271317538, 0};
Point(p15 + 22) = {8.040577496127431, 0.0562669165150968, 0};
Point(p15 + 23) = {8.090037912326153, -0.06314109107247629, 0};
Point(p15 + 24) = {8.157568916515096, -0.1733416741917045, 0};
Point(p15 + 25) = {8.241507671248575, -0.2716213287514245, 0};
Point(p15 + 26) = {8.339787325808295, -0.3555600834849029, 0};
Point(p15 + 27) = {8.449987908927524, -0.4230910876738458, 0};
Point(p15 + 28) = {8.569395916515097, -0.4725515038725684, 0};
Point(p15 + 29) = {8.695071127131754, -0.5027234524845475, 0};
Point(p15 + 30) = {8.823919, -0.512864, 0};
Point(p15 + 31) = {8.952766872868246, -0.5027234524845476, 0};
Point(p15 + 32) = {9.078442083484903, -0.4725515038725685, 0};
Point(p15 + 33) = {9.197850091072477, -0.4230910876738461, 0};
Point(p15 + 34) = {9.308050674191705, -0.3555600834849031, 0};
Point(p15 + 35) = {9.406330328751425, -0.2716213287514248, 0};
Point(p15 + 36) = {9.490269083484902, -0.1733416741917048, 0};
Point(p15 + 37) = {9.557800087673845, -0.06314109107247678, 0};
Point(p15 + 38) = {9.607260503872569, 0.05626691651509691, 0};
Point(p15 + 39) = {9.637432452484548, 0.1819421271317535, 0};
Spline(15) = {10, p15 + 1, p15 + 2, p15 + 3, p15 + 4, p15 + 5, p15 + 6, p15 + 7, p15 + 8, p15 + 9, p15 + 10, p15 + 11, p15 + 12, p15 + 13, p15 + 14, p15 + 15, p15 + 16, p15 + 17, p15 + 18, p15 + 19, p15 + 20, p15 + 21, p15 + 22, p15 + 23, p15 + 24, p15 + 25, p15 + 26, p15 + 27, p15 + 28, p15 + 29, p15 + 30, p15 + 31, p15 + 32, p15 + 33, p15 + 34, p15 + 35, p15 + 36, p15 + 37, p15 + 38, p15 + 39, 10};
p16 = newp;
Point(p16 + 1) = {22.8597977343373, -1.568781108292634, 0.1};
Point(p16 + 2) = {22.83168856038347, -1.451697972485345, 0.1};
Point(p16 + 3) = {22.78560961929027, -1.340453567958357, 0.1};
Point(p16 + 4) = {22.72269552751466, -1.237787101150137, 0.1};
Point(p16 + 5) = {22.64449543879603, -1.146226561203971, 0.1};
Point(p16 + 6) = {22.55293489884986, -1.068026472485345, 0.1};
Point(p16 + 7) = {22.45026843204164, -1.005112380709725, 0.1};
Point(p16 + 8) = {22.33902402751465, -0.959033439616528, 0.1};
Point(p16 + 9) = {22.22194089170737, -0.9309242656627051, 0.1};
Point(p16 + 10) = {22.101902, -0.921477, 0.1};
Point(p16 + 11) = {21.98186310829263, -0.9309242656627053, 0.1};
Point(p16 + 12) = {21.86477997248534, -0.9590334396165279, 0.1};
Point(p16 + 13) = {21.75353556795836, -1.005112380709725, 0.1};
Point(p16 + 14) = {21.65086910115014, -1.068026472485345, 0.1};
Point(p16 + 15) = {21.55930856120397, -1.146226561203971, 0.1};
Point(p16 + 16) = {21.48110847248534, -1.237787101150137, 0.1};
Point(p16 + 17) = {21.41819438070972, -1.340453567958357, 0.1};
Point(p16 + 18) = {21.37211543961653, -1.451697972485345, 0.1};
Point(p16 + 19) = {21.3440062656627, -1.568781108292634, 0.1};
Point(p16 + 20) = {21.334559, -1.68882, 0.1};
Point(p16 + 21) = {21.3440062656627, -1.808858891707366, 0.1};
Point(p16 + 22) = {21.37211543961653, -1.925942027514655, 0.1};
Point(p16 + 23) = {21.41819438070972, -2.037186432041643, 0.1};
Point(p16 + 24) = {21.48110847248534, -2.139852898849863, 0.1};
Point(p16 + 25) = {21.55930856120397, -2.231413438796029, 0.1};
Point(p16 + 26) = {21.65086910115014, -2.309613527514655, 0.1};
Point(p16 + 27) = {21.75353556795836, -2.372527619290275, 0.1};
Point(p16 + 28) = {21.86477997248534, -2.418606560383472, 0.1};
Point(p16 + 29) = {21.98186310829263, -2.446715734337295, 0.1};
Point(p16 + 30) = {22.101902, -2.456163, 0.1};
Point(p16 + 31) = {22.22194089170737, -2.446715734337295, 0.1};
Point(p16 + 32) = {22.33902402751465, -2.418606560383472, 0.1};
Point(p16 + 33) = {22.45026843204164, -2.372527619290275, 0.1};
Point(p16 + 34) = {22.55293489884986, -2.309613527514655, 0.1};
Point(p16 + 35) = {22.64449543879603, -2.231413438796029, 0.1};
Point(p16 + 36) = {22.72269552751466, -2.139852898849863, 0.1};
Point(p16 + 37) = {22.78560961929027, -2.037186432041643, 0.1};
Point(p16 + 38) = {22.83168856038347, -1.925942027514655, 0.1};
Point(p16 + 39) = {22.8597977343373, -1.808858891707366, 0.1};
Spline(16) = {11, p16 + 1, p16 + 2, p16 + 3, p16 + 4, p16 + 5, p16 + 6, p16 + 7, p16 + 8, p16 + 9, p16 + 10, p16 + 11, p16 + 12, p16 + 13, p16 + 14, p16 + 15, p16 + 16, p16 + 17, p16 + 18, p16 + 19, p16 + 20, p16 + 21, p16 + 22, p16 + 23, p16 + 24, p16 + 25, p16 + 26, p16 + 27, p16 + 28, p16 + 29, p16 + 30, p16 + 31, p16 + 32, p16 + 33, p16 + 34, p16 + 35, p16 + 36, p16 + 37, p16 + 38, p16 + 39, 11};
Line(17) = {12, 11};
p18 = newp;
Point(p18 + 1) = {22.8597977343373, -1.568781108292634, 0};
Point(p18 + 2) = {22.83168856038347, -1.451697972485345, 0};
Point(p18 + 3) = {22.78560961929027, -1.340453567958357, 0};
Point(p18 + 4) = {22.72269552751466, -1.237787101150137, 0};
Point(p18 + 5) = {22.64449543879603, -1.146226561203971, 0};
Point(p18 + 6) = {22.55293489884986, -1.068026472485345, 0};
Point(p18 + 7) = {22.45026843204164, -1.005112380709725, 0};
Point(p18 + 8) = {22.33902402751465, -0.959033439616528, 0};
Point(p18 + 9) = {22.22194089170737, -0.9309242656627051, 0};
Point(p18 + 10) = {22.101902, -0.921477, 0};
Point(p18 + 11) = {21.98186310829263, -0.9309242656627053, 0};
Point(p18 + 12) = {21.86477997248534, -0.9590334396165279, 0};
Point(p18 + 13) = {21.75353556795836, -1.005112380709725, 0};
Point(p18 + 14) = {21.65086910115014, -1.068026472485345, 0};
Point(p18 + 15) = {21.55930856120397, -1.146226561203971, 0};
Point(p18 + 16) = {21.48110847248534, -1.237787101150137, 0};
Point(p18 + 17) = {21.41819438070972, -1.340453567958357, 0};
Point(p18 + 18) = {21.37211543961653, -1.451697972485345, 0};
Point(p18 + 19) = {21.3440062656627, -1.568781108292634, 0};
Point(p18 + 20) = {21.334559, -1.68882, 0};
Point(p18 + 21) = {21.3440062656627, -1.808858891707366, 0};
Point(p18 + 22) = {21.37211543961653, -1.925942027514655, 0};
Point(p18 + 23) = {21.41819438070972, -2.037186432041643, 0};
Point(p18 + 24) = {21.48110847248534, -2.139852898849863, 0};
Point(p18 + 25) = {21.55930856120397, -2.231413438796029, 0};
Point(p18 + 26) = {21.65086910115014, -2.309613527514655, 0};
Point(p18 + 27) = {21.75353556795836, -2.372527619290275, 0};
Point(p18 + 28) = {21.86477997248534, -2.418606560383472, 0};
Point(p18 + 29) = {21.98186310829263, -2.446715734337295, 0};
Point(p18 + 30) = {22.101902, -2.456163, 0};
Point(p18 + 31) = {22.22194089170737, -2.446715734337295, 0};
Point(p18 + 32) = {22.33902402751465, -2.418606560383472, 0};
Point(p18 + 33) = {22.45026843204164, -2.372527619290275, 0};
Point(p18 + 34) = {22.55293489884986, -2.309613527514655, 0};
Point(p18 + 35) = {22.64449543879603, -2.231413438796029, 0};
Point(p18 + 36) = {22.72269552751466, -2.139852898849863, 0};
Point(p18 + 37) = {22.78560961929027, -2.037186432041643, 0};
Point(p18 + 38) = {22.83168856038347, -1.925942027514655, 0};
Point(p18 + 39) = {22.8597977343373, -1.808858891707366, 0};
Spline(18) = {12, p18 + 1, p18 + 2, p18 + 3, p18 + 4, p18 + 5, p18 + 6, p18 + 7, p18 + 8, p18 + 9, p18 + 10, p18 + 11, p18 + 12, p18 + 13, p18 + 14, p18 + 15, p18 + 16, p18 + 17, p18 + 18, p18 + 19, p18 + 20, p18 + 21, p18 + 22, p18 + 23, p18 + 24, p18 + 25, p18 + 26, p18 + 27, p18 + 28, p18 + 29, p18 + 30, p18 + 31, p18 + 32, p18 + 33, p18 + 34, p18 + 35, p18 + 36, p18 + 37, p18 + 38, p18 + 39, 12};
Line(19) = {14, 13};
Line(20) = {13, 15};
Line(21) = {16, 15};
Line(22) = {14, 16};
Line(23) = {14, 17};
Line(24) = {17, 18};
Line(25) = {13, 18};
Line(26) = {15, 19};
Line(27) = {18, 19};
Line(28) = {16, 20};
Line(29) = {20, 19};
Line(30) = {17, 20};
Curve Loop(7) = {-13, -14, 15, 14};
Surface(7) = {7};
Curve Loop(8) = {13};
Plane Surface(8) = {8};
Curve Loop(9) = {15};
Plane Surface(9) = {9};
Curve Loop(10) = {-16, -17, 18, 17};
Surface(10) = {10};
Curve Loop(11) = {16};
Plane Surface(11) = {11};
Curve Loop(12) = {18};
Plane Surface(12) = {12};
Curve Loop(13) = {-19, 22, 21, -20};
Plane Surface(13) = {13};
Curve Loop(14) = {-23, 19, 25, -24};
Plane Surface(14) = {14};
Curve Loop(15) = {-20, 25, 27, -26, -16, -13};
Plane Surface(15) = {15};
Curve Loop(16) = {-28, 21, 26, -29};
Plane Surface(16) = {16};
Curve Loop(17) = {-22, 23, 30, -28, -18, -15};
Plane Surface(17) = {17};
Curve Loop(18) = {-24, 30, 29, -27};
Plane Surface(18) = {18};
Surface Loop(1) = {13, 14, 15, 16, 17, 18, 10, 7};
Volume(1) = {1};
Surface Loop(2) = {7, 8, 9};
Volume(2) = {2};
Surface Loop(3) = {10, 11, 12};
Volume(3) = {3};
Physical Surface("WALLS") = {13, 18};
Physical Surface("LOAD") = {8, 11};
Physical Surface("BORDER") = {7, 9, 10, 12, 14, 15, 16, 17};
Physical Volume("SOLID") = {1, 2, 3};
