cl__1 = 0.081971;
cl__2 = 0.056423;
cl__3 = 0.844339;
cl__4 = 1.114732;
cl__5 = 1.313024;
cl__6 = 1.07301;
Point(9) = {10.176157, -1.756357, 0.1, cl__1};
Point(10) = {10.176157, -1.756357, 0, cl__1};
Point(11) = {23.288292, 1.588129, 0.1, cl__2};
Point(12) = {23.288292, 1.588129, 0, cl__2};
Point(13) = {0.5213, -3.220106, 0.1, cl__3};
Point(14) = {0.5213, -3.220106, 0, cl__3};
Point(15) = {0.5213, 4.473602, 0.1, cl__4};
Point(16) = {0.5213, 4.473602, 0, cl__4};
Point(17) = {32.74597499999999, -3.220106, 0, cl__5};
Point(18) = {32.74597499999999, -3.220106, 0.1, cl__5};
Point(19) = {32.74597499999999, 4.473602, 0.1, cl__6};
Point(20) = {32.74597499999999, 4.473602, 0, cl__6};
p13 = newp;
Point(p13 + 1) = {10.16606500966924, -1.628126104661872, 0.1};
Point(p13 + 2) = {10.1360375369723, -1.503052679540912, 0.1};
Point(p13 + 3) = {10.08681395794245, -1.384216447458496, 0.1};
Point(p13 + 4) = {10.01960632045909, -1.274543550843337, 0.1};
Point(p13 + 5) = {9.936069499606424, -1.176734500393575, 0.1};
Point(p13 + 6) = {9.838260449156662, -1.093197679540912, 0.1};
Point(p13 + 7) = {9.728587552541503, -1.025990042057553, 0.1};
Point(p13 + 8) = {9.609751320459088, -0.9767664630276996, 0.1};
Point(p13 + 9) = {9.484677895338127, -0.9467389903307595, 0.1};
Point(p13 + 10) = {9.356446999999999, -0.9366469999999999, 0.1};
Point(p13 + 11) = {9.228216104661872, -0.9467389903307596, 0.1};
Point(p13 + 12) = {9.103142679540911, -0.9767664630276995, 0.1};
Point(p13 + 13) = {8.984306447458495, -1.025990042057553, 0.1};
Point(p13 + 14) = {8.874633550843336, -1.093197679540912, 0.1};
Point(p13 + 15) = {8.776824500393575, -1.176734500393575, 0.1};
Point(p13 + 16) = {8.69328767954091, -1.274543550843337, 0.1};
Point(p13 + 17) = {8.626080042057552, -1.384216447458496, 0.1};
Point(p13 + 18) = {8.576856463027699, -1.503052679540912, 0.1};
Point(p13 + 19) = {8.546828990330759, -1.628126104661872, 0.1};
Point(p13 + 20) = {8.536736999999999, -1.756357, 0.1};
Point(p13 + 21) = {8.546828990330759, -1.884587895338127, 0.1};
Point(p13 + 22) = {8.576856463027699, -2.009661320459089, 0.1};
Point(p13 + 23) = {8.626080042057552, -2.128497552541504, 0.1};
Point(p13 + 24) = {8.69328767954091, -2.238170449156663, 0.1};
Point(p13 + 25) = {8.776824500393575, -2.335979499606425, 0.1};
Point(p13 + 26) = {8.874633550843336, -2.419516320459088, 0.1};
Point(p13 + 27) = {8.984306447458495, -2.486723957942447, 0.1};
Point(p13 + 28) = {9.103142679540911, -2.5359475369723, 0.1};
Point(p13 + 29) = {9.228216104661872, -2.56597500966924, 0.1};
Point(p13 + 30) = {9.356446999999999, -2.576067, 0.1};
Point(p13 + 31) = {9.484677895338127, -2.56597500966924, 0.1};
Point(p13 + 32) = {9.609751320459088, -2.535947536972301, 0.1};
Point(p13 + 33) = {9.728587552541503, -2.486723957942447, 0.1};
Point(p13 + 34) = {9.838260449156662, -2.419516320459088, 0.1};
Point(p13 + 35) = {9.936069499606424, -2.335979499606425, 0.1};
Point(p13 + 36) = {10.01960632045909, -2.238170449156663, 0.1};
Point(p13 + 37) = {10.08681395794245, -2.128497552541504, 0.1};
Point(p13 + 38) = {10.1360375369723, -2.009661320459088, 0.1};
Point(p13 + 39) = {10.16606500966924, -1.884587895338128, 0.1};
Spline(13) = {9, p13 + 1, p13 + 2, p13 + 3, p13 + 4, p13 + 5, p13 + 6, p13 + 7, p13 + 8, p13 + 9, p13 + 10, p13 + 11, p13 + 12, p13 + 13, p13 + 14, p13 + 15, p13 + 16, p13 + 17, p13 + 18, p13 + 19, p13 + 20, p13 + 21, p13 + 22, p13 + 23, p13 + 24, p13 + 25, p13 + 26, p13 + 27, p13 + 28, p13 + 29, p13 + 30, p13 + 31, p13 + 32, p13 + 33, p13 + 34, p13 + 35, p13 + 36, p13 + 37, p13 + 38, p13 + 39, 9};
Line(14) = {10, 9};
p15 = newp;
Point(p15 + 1) = {10.16606500966924, -1.628126104661872, 0};
Point(p15 + 2) = {10.1360375369723, -1.503052679540912, 0};
Point(p15 + 3) = {10.08681395794245, -1.384216447458496, 0};
Point(p15 + 4) = {10.01960632045909, -1.274543550843337, 0};
Point(p15 + 5) = {9.936069499606424, -1.176734500393575, 0};
Point(p15 + 6) = {9.838260449156662, -1.093197679540912, 0};
Point(p15 + 7) = {9.728587552541503, -1.025990042057553, 0};
Point(p15 + 8) = {9.609751320459088, -0.9767664630276996, 0};
Point(p15 + 9) = {9.484677895338127, -0.9467389903307595, 0};
Point(p15 + 10) = {9.356446999999999, -0.9366469999999999, 0};
Point(p15 + 11) = {9.228216104661872, -0.9467389903307596, 0};
Point(p15 + 12) = {9.103142679540911, -0.9767664630276995, 0};
Point(p15 + 13) = {8.984306447458495, -1.025990042057553, 0};
Point(p15 + 14) = {8.874633550843336, -1.093197679540912, 0};
Point(p15 + 15) = {8.776824500393575, -1.176734500393575, 0};
Point(p15 + 16) = {8.69328767954091, -1.274543550843337, 0};
Point(p15 + 17) = {8.626080042057552, -1.384216447458496, 0};
Point(p15 + 18) = {8.576856463027699, -1.503052679540912, 0};
Point(p15 + 19) = {8.546828990330759, -1.628126104661872, 0};
Point(p15 + 20) = {8.536736999999999, -1.756357, 0};
Point(p15 + 21) = {8.546828990330759, -1.884587895338127, 0};
Point(p15 + 22) = {8.576856463027699, -2.009661320459089, 0};
Point(p15 + 23) = {8.626080042057552, -2.128497552541504, 0};
Point(p15 + 24) = {8.69328767954091, -2.238170449156663, 0};
Point(p15 + 25) = {8.776824500393575, -2.335979499606425, 0};
Point(p15 + 26) = {8.874633550843336, -2.419516320459088, 0};
Point(p15 + 27) = {8.984306447458495, -2.486723957942447, 0};
Point(p15 + 28) = {9.103142679540911, -2.5359475369723, 0};
Point(p15 + 29) = {9.228216104661872, -2.56597500966924, 0};
Point(p15 + 30) = {9.356446999999999, -2.576067, 0};
Point(p15 + 31) = {9.484677895338127, -2.56597500966924, 0};
Point(p15 + 32) = {9.609751320459088, -2.535947536972301, 0};
Point(p15 + 33) = {9.728587552541503, -2.486723957942447, 0};
Point(p15 + 34) = {9.838260449156662, -2.419516320459088, 0};
Point(p15 + 35) = {9.936069499606424, -2.335979499606425, 0};
Point(p15 + 36) = {10.01960632045909, -2.238170449156663, 0};
Point(p15 + 37) = {10.08681395794245, -2.128497552541504, 0};
Point(p15 + 38) = {10.1360375369723, -2.009661320459088, 0};
Point(p15 + 39) = {10.16606500966924, -1.884587895338128, 0};
Spline(15) = {10, p15 + 1, p15 + 2, p15 + 3, p15 + 4, p15 + 5, p15 + 6, p15 + 7, p15 + 8, p15 + 9, p15 + 10, p15 + 11, p15 + 12, p15 + 13, p15 + 14, p15 + 15, p15 + 16, p15 + 17, p15 + 18, p15 + 19, p15 + 20, p15 + 21, p15 + 22, p15 + 23, p15 + 24, p15 + 25, p15 + 26, p15 + 27, p15 + 28, p15 + 29, p15 + 30, p15 + 31, p15 + 32, p15 + 33, p15 + 34, p15 + 35, p15 + 36, p15 + 37, p15 + 38, p15 + 39, 10};
p16 = newp;
Point(p16 + 1) = {23.28134540472566, 1.676393861775184, 0.1};
Point(p16 + 2) = {23.2606766671327, 1.762485349719182, 0.1};
Point(p16 + 3) = {23.22679472013628, 1.844283605677545, 0.1};
Point(p16 + 4) = {23.18053384971918, 1.91977448511573, 0.1};
Point(p16 + 5) = {23.1230331520421, 1.987099152042104, 0.1};
Point(p16 + 6) = {23.05570848511573, 2.044599849719182, 0.1};
Point(p16 + 7) = {22.98021760567755, 2.090860720136278, 0.1};
Point(p16 + 8) = {22.89841934971918, 2.124742667132698, 0.1};
Point(p16 + 9) = {22.81232786177518, 2.145411404725654, 0.1};
Point(p16 + 10) = {22.724063, 2.152358, 0.1};
Point(p16 + 11) = {22.63579813822482, 2.145411404725654, 0.1};
Point(p16 + 12) = {22.54970665028082, 2.124742667132698, 0.1};
Point(p16 + 13) = {22.46790839432246, 2.090860720136279, 0.1};
Point(p16 + 14) = {22.39241751488427, 2.044599849719182, 0.1};
Point(p16 + 15) = {22.3250928479579, 1.987099152042104, 0.1};
Point(p16 + 16) = {22.26759215028082, 1.91977448511573, 0.1};
Point(p16 + 17) = {22.22133127986372, 1.844283605677545, 0.1};
Point(p16 + 18) = {22.1874493328673, 1.762485349719182, 0.1};
Point(p16 + 19) = {22.16678059527435, 1.676393861775184, 0.1};
Point(p16 + 20) = {22.159834, 1.588129, 0.1};
Point(p16 + 21) = {22.16678059527435, 1.499864138224815, 0.1};
Point(p16 + 22) = {22.1874493328673, 1.413772650280817, 0.1};
Point(p16 + 23) = {22.22133127986372, 1.331974394322455, 0.1};
Point(p16 + 24) = {22.26759215028082, 1.25648351488427, 0.1};
Point(p16 + 25) = {22.3250928479579, 1.189158847957895, 0.1};
Point(p16 + 26) = {22.39241751488427, 1.131658150280818, 0.1};
Point(p16 + 27) = {22.46790839432246, 1.085397279863721, 0.1};
Point(p16 + 28) = {22.54970665028082, 1.051515332867302, 0.1};
Point(p16 + 29) = {22.63579813822482, 1.030846595274346, 0.1};
Point(p16 + 30) = {22.724063, 1.0239, 0.1};
Point(p16 + 31) = {22.81232786177518, 1.030846595274346, 0.1};
Point(p16 + 32) = {22.89841934971918, 1.051515332867302, 0.1};
Point(p16 + 33) = {22.98021760567755, 1.085397279863721, 0.1};
Point(p16 + 34) = {23.05570848511573, 1.131658150280818, 0.1};
Point(p16 + 35) = {23.1230331520421, 1.189158847957895, 0.1};
Point(p16 + 36) = {23.18053384971918, 1.25648351488427, 0.1};
Point(p16 + 37) = {23.22679472013628, 1.331974394322455, 0.1};
Point(p16 + 38) = {23.2606766671327, 1.413772650280818, 0.1};
Point(p16 + 39) = {23.28134540472566, 1.499864138224815, 0.1};
Spline(16) = {11, p16 + 1, p16 + 2, p16 + 3, p16 + 4, p16 + 5, p16 + 6, p16 + 7, p16 + 8, p16 + 9, p16 + 10, p16 + 11, p16 + 12, p16 + 13, p16 + 14, p16 + 15, p16 + 16, p16 + 17, p16 + 18, p16 + 19, p16 + 20, p16 + 21, p16 + 22, p16 + 23, p16 + 24, p16 + 25, p16 + 26, p16 + 27, p16 + 28, p16 + 29, p16 + 30, p16 + 31, p16 + 32, p16 + 33, p16 + 34, p16 + 35, p16 + 36, p16 + 37, p16 + 38, p16 + 39, 11};
Line(17) = {12, 11};
p18 = newp;
Point(p18 + 1) = {23.28134540472566, 1.676393861775184, 0};
Point(p18 + 2) = {23.2606766671327, 1.762485349719182, 0};
Point(p18 + 3) = {23.22679472013628, 1.844283605677545, 0};
Point(p18 + 4) = {23.18053384971918, 1.91977448511573, 0};
Point(p18 + 5) = {23.1230331520421, 1.987099152042104, 0};
Point(p18 + 6) = {23.05570848511573, 2.044599849719182, 0};
Point(p18 + 7) = {22.98021760567755, 2.090860720136278, 0};
Point(p18 + 8) = {22.89841934971918, 2.124742667132698, 0};
Point(p18 + 9) = {22.81232786177518, 2.145411404725654, 0};
Point(p18 + 10) = {22.724063, 2.152358, 0};
Point(p18 + 11) = {22.63579813822482, 2.145411404725654, 0};
Point(p18 + 12) = {22.54970665028082, 2.124742667132698, 0};
Point(p18 + 13) = {22.46790839432246, 2.090860720136279, 0};
Point(p18 + 14) = {22.39241751488427, 2.044599849719182, 0};
Point(p18 + 15) = {22.3250928479579, 1.987099152042104, 0};
Point(p18 + 16) = {22.26759215028082, 1.91977448511573, 0};
Point(p18 + 17) = {22.22133127986372, 1.844283605677545, 0};
Point(p18 + 18) = {22.1874493328673, 1.762485349719182, 0};
Point(p18 + 19) = {22.16678059527435, 1.676393861775184, 0};
Point(p18 + 20) = {22.159834, 1.588129, 0};
Point(p18 + 21) = {22.16678059527435, 1.499864138224815, 0};
Point(p18 + 22) = {22.1874493328673, 1.413772650280817, 0};
Point(p18 + 23) = {22.22133127986372, 1.331974394322455, 0};
Point(p18 + 24) = {22.26759215028082, 1.25648351488427, 0};
Point(p18 + 25) = {22.3250928479579, 1.189158847957895, 0};
Point(p18 + 26) = {22.39241751488427, 1.131658150280818, 0};
Point(p18 + 27) = {22.46790839432246, 1.085397279863721, 0};
Point(p18 + 28) = {22.54970665028082, 1.051515332867302, 0};
Point(p18 + 29) = {22.63579813822482, 1.030846595274346, 0};
Point(p18 + 30) = {22.724063, 1.0239, 0};
Point(p18 + 31) = {22.81232786177518, 1.030846595274346, 0};
Point(p18 + 32) = {22.89841934971918, 1.051515332867302, 0};
Point(p18 + 33) = {22.98021760567755, 1.085397279863721, 0};
Point(p18 + 34) = {23.05570848511573, 1.131658150280818, 0};
Point(p18 + 35) = {23.1230331520421, 1.189158847957895, 0};
Point(p18 + 36) = {23.18053384971918, 1.25648351488427, 0};
Point(p18 + 37) = {23.22679472013628, 1.331974394322455, 0};
Point(p18 + 38) = {23.2606766671327, 1.413772650280818, 0};
Point(p18 + 39) = {23.28134540472566, 1.499864138224815, 0};
Spline(18) = {12, p18 + 1, p18 + 2, p18 + 3, p18 + 4, p18 + 5, p18 + 6, p18 + 7, p18 + 8, p18 + 9, p18 + 10, p18 + 11, p18 + 12, p18 + 13, p18 + 14, p18 + 15, p18 + 16, p18 + 17, p18 + 18, p18 + 19, p18 + 20, p18 + 21, p18 + 22, p18 + 23, p18 + 24, p18 + 25, p18 + 26, p18 + 27, p18 + 28, p18 + 29, p18 + 30, p18 + 31, p18 + 32, p18 + 33, p18 + 34, p18 + 35, p18 + 36, p18 + 37, p18 + 38, p18 + 39, 12};
Line(19) = {14, 13};
Line(20) = {13, 15};
Line(21) = {16, 15};
Line(22) = {14, 16};
Line(23) = {14, 17};
Line(24) = {17, 18};
Line(25) = {13, 18};
Line(26) = {15, 19};
Line(27) = {18, 19};
Line(28) = {16, 20};
Line(29) = {20, 19};
Line(30) = {17, 20};
Curve Loop(7) = {-13, -14, 15, 14};
Surface(7) = {7};
Curve Loop(8) = {13};
Plane Surface(8) = {8};
Curve Loop(9) = {15};
Plane Surface(9) = {9};
Curve Loop(10) = {-16, -17, 18, 17};
Surface(10) = {10};
Curve Loop(11) = {16};
Plane Surface(11) = {11};
Curve Loop(12) = {18};
Plane Surface(12) = {12};
Curve Loop(13) = {-19, 22, 21, -20};
Plane Surface(13) = {13};
Curve Loop(14) = {-23, 19, 25, -24};
Plane Surface(14) = {14};
Curve Loop(15) = {-20, 25, 27, -26, -13, -16};
Plane Surface(15) = {15};
Curve Loop(16) = {-28, 21, 26, -29};
Plane Surface(16) = {16};
Curve Loop(17) = {-22, 23, 30, -28, -15, -18};
Plane Surface(17) = {17};
Curve Loop(18) = {-24, 30, 29, -27};
Plane Surface(18) = {18};
Surface Loop(1) = {13, 14, 15, 16, 17, 18, 7, 10};
Volume(1) = {1};
Surface Loop(2) = {7, 8, 9};
Volume(2) = {2};
Surface Loop(3) = {10, 11, 12};
Volume(3) = {3};
Physical Surface("WALLS") = {13, 18};
Physical Surface("LOAD") = {8, 11};
Physical Surface("BORDER") = {7, 9, 10, 12, 14, 15, 16, 17};
Physical Volume("SOLID") = {1, 2, 3};
