cl__1 = 0.08189;
cl__2 = 0.082067;
cl__3 = 3.347379;
cl__4 = 3.05443;
cl__5 = 0.605118;
cl__6 = 0.448065;
Point(9) = {26.973677, 1.79478, 0.1, cl__1};
Point(10) = {26.973677, 1.79478, 0, cl__1};
Point(11) = {19.990394, 1.337509, 0.1, cl__2};
Point(12) = {19.990394, 1.337509, 0, cl__2};
Point(13) = {0.883757, -3.860475, 1, cl__3};
Point(14) = {0.883757, -3.860475, 0, cl__3};
Point(15) = {0.883757, 3.891767, 1, cl__4};
Point(16) = {0.883757, 3.891767, 0, cl__4};
Point(17) = {32.060817, -3.860475, 0, cl__5};
Point(18) = {32.060817, -3.860475, 1, cl__5};
Point(19) = {32.060817, 3.891767, 1, cl__6};
Point(20) = {32.060817, 3.891767, 0, cl__6};
p13 = newp;
Point(p13 + 1) = {26.96359493286672, 1.922884809159305, 0.1};
Point(p13 + 2) = {26.93359698542017, 2.047835252761622, 0.1};
Point(p13 + 3) = {26.88442180668395, 2.166554636198714, 0.1};
Point(p13 + 4) = {26.81728025276162, 2.276119694243315, 0.1};
Point(p13 + 5) = {26.73382557154079, 2.373832571540789, 0.1};
Point(p13 + 6) = {26.63611269424332, 2.457287252761622, 0.1};
Point(p13 + 7) = {26.52654763619871, 2.524428806683951, 0.1};
Point(p13 + 8) = {26.40782825276162, 2.573603985420166, 0.1};
Point(p13 + 9) = {26.2828778091593, 2.603601932866721, 0.1};
Point(p13 + 10) = {26.154773, 2.613684, 0.1};
Point(p13 + 11) = {26.02666819084069, 2.603601932866721, 0.1};
Point(p13 + 12) = {25.90171774723838, 2.573603985420167, 0.1};
Point(p13 + 13) = {25.78299836380128, 2.524428806683951, 0.1};
Point(p13 + 14) = {25.67343330575669, 2.457287252761622, 0.1};
Point(p13 + 15) = {25.57572042845921, 2.373832571540789, 0.1};
Point(p13 + 16) = {25.49226574723838, 2.276119694243316, 0.1};
Point(p13 + 17) = {25.42512419331605, 2.166554636198714, 0.1};
Point(p13 + 18) = {25.37594901457983, 2.047835252761622, 0.1};
Point(p13 + 19) = {25.34595106713328, 1.922884809159305, 0.1};
Point(p13 + 20) = {25.335869, 1.79478, 0.1};
Point(p13 + 21) = {25.34595106713328, 1.666675190840695, 0.1};
Point(p13 + 22) = {25.37594901457983, 1.541724747238378, 0.1};
Point(p13 + 23) = {25.42512419331605, 1.423005363801287, 0.1};
Point(p13 + 24) = {25.49226574723838, 1.313440305756685, 0.1};
Point(p13 + 25) = {25.57572042845921, 1.215727428459211, 0.1};
Point(p13 + 26) = {25.67343330575668, 1.132272747238378, 0.1};
Point(p13 + 27) = {25.78299836380128, 1.065131193316049, 0.1};
Point(p13 + 28) = {25.90171774723838, 1.015956014579834, 0.1};
Point(p13 + 29) = {26.02666819084069, 0.9859580671332795, 0.1};
Point(p13 + 30) = {26.154773, 0.9758760000000001, 0.1};
Point(p13 + 31) = {26.2828778091593, 0.9859580671332794, 0.1};
Point(p13 + 32) = {26.40782825276162, 1.015956014579833, 0.1};
Point(p13 + 33) = {26.52654763619871, 1.065131193316049, 0.1};
Point(p13 + 34) = {26.63611269424331, 1.132272747238378, 0.1};
Point(p13 + 35) = {26.73382557154079, 1.215727428459211, 0.1};
Point(p13 + 36) = {26.81728025276162, 1.313440305756685, 0.1};
Point(p13 + 37) = {26.88442180668395, 1.423005363801286, 0.1};
Point(p13 + 38) = {26.93359698542017, 1.541724747238378, 0.1};
Point(p13 + 39) = {26.96359493286672, 1.666675190840695, 0.1};
Spline(13) = {9, p13 + 1, p13 + 2, p13 + 3, p13 + 4, p13 + 5, p13 + 6, p13 + 7, p13 + 8, p13 + 9, p13 + 10, p13 + 11, p13 + 12, p13 + 13, p13 + 14, p13 + 15, p13 + 16, p13 + 17, p13 + 18, p13 + 19, p13 + 20, p13 + 21, p13 + 22, p13 + 23, p13 + 24, p13 + 25, p13 + 26, p13 + 27, p13 + 28, p13 + 29, p13 + 30, p13 + 31, p13 + 32, p13 + 33, p13 + 34, p13 + 35, p13 + 36, p13 + 37, p13 + 38, p13 + 39, 9};
Line(14) = {10, 9};
p15 = newp;
Point(p15 + 1) = {26.96359493286672, 1.922884809159305, 0};
Point(p15 + 2) = {26.93359698542017, 2.047835252761622, 0};
Point(p15 + 3) = {26.88442180668395, 2.166554636198714, 0};
Point(p15 + 4) = {26.81728025276162, 2.276119694243315, 0};
Point(p15 + 5) = {26.73382557154079, 2.373832571540789, 0};
Point(p15 + 6) = {26.63611269424332, 2.457287252761622, 0};
Point(p15 + 7) = {26.52654763619871, 2.524428806683951, 0};
Point(p15 + 8) = {26.40782825276162, 2.573603985420166, 0};
Point(p15 + 9) = {26.2828778091593, 2.603601932866721, 0};
Point(p15 + 10) = {26.154773, 2.613684, 0};
Point(p15 + 11) = {26.02666819084069, 2.603601932866721, 0};
Point(p15 + 12) = {25.90171774723838, 2.573603985420167, 0};
Point(p15 + 13) = {25.78299836380128, 2.524428806683951, 0};
Point(p15 + 14) = {25.67343330575669, 2.457287252761622, 0};
Point(p15 + 15) = {25.57572042845921, 2.373832571540789, 0};
Point(p15 + 16) = {25.49226574723838, 2.276119694243316, 0};
Point(p15 + 17) = {25.42512419331605, 2.166554636198714, 0};
Point(p15 + 18) = {25.37594901457983, 2.047835252761622, 0};
Point(p15 + 19) = {25.34595106713328, 1.922884809159305, 0};
Point(p15 + 20) = {25.335869, 1.79478, 0};
Point(p15 + 21) = {25.34595106713328, 1.666675190840695, 0};
Point(p15 + 22) = {25.37594901457983, 1.541724747238378, 0};
Point(p15 + 23) = {25.42512419331605, 1.423005363801287, 0};
Point(p15 + 24) = {25.49226574723838, 1.313440305756685, 0};
Point(p15 + 25) = {25.57572042845921, 1.215727428459211, 0};
Point(p15 + 26) = {25.67343330575668, 1.132272747238378, 0};
Point(p15 + 27) = {25.78299836380128, 1.065131193316049, 0};
Point(p15 + 28) = {25.90171774723838, 1.015956014579834, 0};
Point(p15 + 29) = {26.02666819084069, 0.9859580671332795, 0};
Point(p15 + 30) = {26.154773, 0.9758760000000001, 0};
Point(p15 + 31) = {26.2828778091593, 0.9859580671332794, 0};
Point(p15 + 32) = {26.40782825276162, 1.015956014579833, 0};
Point(p15 + 33) = {26.52654763619871, 1.065131193316049, 0};
Point(p15 + 34) = {26.63611269424331, 1.132272747238378, 0};
Point(p15 + 35) = {26.73382557154079, 1.215727428459211, 0};
Point(p15 + 36) = {26.81728025276162, 1.313440305756685, 0};
Point(p15 + 37) = {26.88442180668395, 1.423005363801286, 0};
Point(p15 + 38) = {26.93359698542017, 1.541724747238378, 0};
Point(p15 + 39) = {26.96359493286672, 1.666675190840695, 0};
Spline(15) = {10, p15 + 1, p15 + 2, p15 + 3, p15 + 4, p15 + 5, p15 + 6, p15 + 7, p15 + 8, p15 + 9, p15 + 10, p15 + 11, p15 + 12, p15 + 13, p15 + 14, p15 + 15, p15 + 16, p15 + 17, p15 + 18, p15 + 19, p15 + 20, p15 + 21, p15 + 22, p15 + 23, p15 + 24, p15 + 25, p15 + 26, p15 + 27, p15 + 28, p15 + 29, p15 + 30, p15 + 31, p15 + 32, p15 + 33, p15 + 34, p15 + 35, p15 + 36, p15 + 37, p15 + 38, p15 + 39, 10};
p16 = newp;
Point(p16 + 1) = {19.98029025203451, 1.465889290252241, 0.1};
Point(p16 + 2) = {19.95022779594536, 1.591108431688716, 0.1};
Point(p16 + 3) = {19.90094686917305, 1.710083113468755, 0.1};
Point(p16 + 4) = {19.83366093168872, 1.819883784072603, 0.1};
Point(p16 + 5) = {19.75002678658246, 1.917806786582458, 0.1};
Point(p16 + 6) = {19.6521037840726, 2.001440931688716, 0.1};
Point(p16 + 7) = {19.54230311346875, 2.068726869173047, 0.1};
Point(p16 + 8) = {19.42332843168872, 2.118007795945362, 0.1};
Point(p16 + 9) = {19.29810929025224, 2.148070252034509, 0.1};
Point(p16 + 10) = {19.169729, 2.158174, 0.1};
Point(p16 + 11) = {19.04134870974776, 2.148070252034509, 0.1};
Point(p16 + 12) = {18.91612956831128, 2.118007795945362, 0.1};
Point(p16 + 13) = {18.79715488653125, 2.068726869173047, 0.1};
Point(p16 + 14) = {18.6873542159274, 2.001440931688716, 0.1};
Point(p16 + 15) = {18.58943121341754, 1.917806786582458, 0.1};
Point(p16 + 16) = {18.50579706831128, 1.819883784072603, 0.1};
Point(p16 + 17) = {18.43851113082695, 1.710083113468755, 0.1};
Point(p16 + 18) = {18.38923020405464, 1.591108431688716, 0.1};
Point(p16 + 19) = {18.35916774796549, 1.465889290252241, 0.1};
Point(p16 + 20) = {18.349064, 1.337509, 0.1};
Point(p16 + 21) = {18.35916774796549, 1.209128709747759, 0.1};
Point(p16 + 22) = {18.38923020405464, 1.083909568311284, 0.1};
Point(p16 + 23) = {18.43851113082695, 0.9649348865312453, 0.1};
Point(p16 + 24) = {18.50579706831128, 0.8551342159273977, 0.1};
Point(p16 + 25) = {18.58943121341754, 0.7572112134175421, 0.1};
Point(p16 + 26) = {18.6873542159274, 0.6735770683112839, 0.1};
Point(p16 + 27) = {18.79715488653125, 0.6062911308269532, 0.1};
Point(p16 + 28) = {18.91612956831128, 0.5570102040546379, 0.1};
Point(p16 + 29) = {19.04134870974776, 0.5269477479654915, 0.1};
Point(p16 + 30) = {19.169729, 0.5168440000000001, 0.1};
Point(p16 + 31) = {19.29810929025224, 0.5269477479654914, 0.1};
Point(p16 + 32) = {19.42332843168872, 0.5570102040546379, 0.1};
Point(p16 + 33) = {19.54230311346875, 0.6062911308269531, 0.1};
Point(p16 + 34) = {19.6521037840726, 0.6735770683112837, 0.1};
Point(p16 + 35) = {19.75002678658246, 0.7572112134175419, 0.1};
Point(p16 + 36) = {19.83366093168872, 0.8551342159273976, 0.1};
Point(p16 + 37) = {19.90094686917305, 0.9649348865312448, 0.1};
Point(p16 + 38) = {19.95022779594536, 1.083909568311284, 0.1};
Point(p16 + 39) = {19.98029025203451, 1.209128709747759, 0.1};
Spline(16) = {11, p16 + 1, p16 + 2, p16 + 3, p16 + 4, p16 + 5, p16 + 6, p16 + 7, p16 + 8, p16 + 9, p16 + 10, p16 + 11, p16 + 12, p16 + 13, p16 + 14, p16 + 15, p16 + 16, p16 + 17, p16 + 18, p16 + 19, p16 + 20, p16 + 21, p16 + 22, p16 + 23, p16 + 24, p16 + 25, p16 + 26, p16 + 27, p16 + 28, p16 + 29, p16 + 30, p16 + 31, p16 + 32, p16 + 33, p16 + 34, p16 + 35, p16 + 36, p16 + 37, p16 + 38, p16 + 39, 11};
Line(17) = {12, 11};
p18 = newp;
Point(p18 + 1) = {19.98029025203451, 1.465889290252241, 0};
Point(p18 + 2) = {19.95022779594536, 1.591108431688716, 0};
Point(p18 + 3) = {19.90094686917305, 1.710083113468755, 0};
Point(p18 + 4) = {19.83366093168872, 1.819883784072603, 0};
Point(p18 + 5) = {19.75002678658246, 1.917806786582458, 0};
Point(p18 + 6) = {19.6521037840726, 2.001440931688716, 0};
Point(p18 + 7) = {19.54230311346875, 2.068726869173047, 0};
Point(p18 + 8) = {19.42332843168872, 2.118007795945362, 0};
Point(p18 + 9) = {19.29810929025224, 2.148070252034509, 0};
Point(p18 + 10) = {19.169729, 2.158174, 0};
Point(p18 + 11) = {19.04134870974776, 2.148070252034509, 0};
Point(p18 + 12) = {18.91612956831128, 2.118007795945362, 0};
Point(p18 + 13) = {18.79715488653125, 2.068726869173047, 0};
Point(p18 + 14) = {18.6873542159274, 2.001440931688716, 0};
Point(p18 + 15) = {18.58943121341754, 1.917806786582458, 0};
Point(p18 + 16) = {18.50579706831128, 1.819883784072603, 0};
Point(p18 + 17) = {18.43851113082695, 1.710083113468755, 0};
Point(p18 + 18) = {18.38923020405464, 1.591108431688716, 0};
Point(p18 + 19) = {18.35916774796549, 1.465889290252241, 0};
Point(p18 + 20) = {18.349064, 1.337509, 0};
Point(p18 + 21) = {18.35916774796549, 1.209128709747759, 0};
Point(p18 + 22) = {18.38923020405464, 1.083909568311284, 0};
Point(p18 + 23) = {18.43851113082695, 0.9649348865312453, 0};
Point(p18 + 24) = {18.50579706831128, 0.8551342159273977, 0};
Point(p18 + 25) = {18.58943121341754, 0.7572112134175421, 0};
Point(p18 + 26) = {18.6873542159274, 0.6735770683112839, 0};
Point(p18 + 27) = {18.79715488653125, 0.6062911308269532, 0};
Point(p18 + 28) = {18.91612956831128, 0.5570102040546379, 0};
Point(p18 + 29) = {19.04134870974776, 0.5269477479654915, 0};
Point(p18 + 30) = {19.169729, 0.5168440000000001, 0};
Point(p18 + 31) = {19.29810929025224, 0.5269477479654914, 0};
Point(p18 + 32) = {19.42332843168872, 0.5570102040546379, 0};
Point(p18 + 33) = {19.54230311346875, 0.6062911308269531, 0};
Point(p18 + 34) = {19.6521037840726, 0.6735770683112837, 0};
Point(p18 + 35) = {19.75002678658246, 0.7572112134175419, 0};
Point(p18 + 36) = {19.83366093168872, 0.8551342159273976, 0};
Point(p18 + 37) = {19.90094686917305, 0.9649348865312448, 0};
Point(p18 + 38) = {19.95022779594536, 1.083909568311284, 0};
Point(p18 + 39) = {19.98029025203451, 1.209128709747759, 0};
Spline(18) = {12, p18 + 1, p18 + 2, p18 + 3, p18 + 4, p18 + 5, p18 + 6, p18 + 7, p18 + 8, p18 + 9, p18 + 10, p18 + 11, p18 + 12, p18 + 13, p18 + 14, p18 + 15, p18 + 16, p18 + 17, p18 + 18, p18 + 19, p18 + 20, p18 + 21, p18 + 22, p18 + 23, p18 + 24, p18 + 25, p18 + 26, p18 + 27, p18 + 28, p18 + 29, p18 + 30, p18 + 31, p18 + 32, p18 + 33, p18 + 34, p18 + 35, p18 + 36, p18 + 37, p18 + 38, p18 + 39, 12};
Line(19) = {14, 13};
Line(20) = {13, 15};
Line(21) = {16, 15};
Line(22) = {14, 16};
Line(23) = {14, 17};
Line(24) = {17, 18};
Line(25) = {13, 18};
Line(26) = {15, 19};
Line(27) = {18, 19};
Line(28) = {16, 20};
Line(29) = {20, 19};
Line(30) = {17, 20};
Curve Loop(7) = {-13, -14, 15, 14};
Surface(7) = {7};
Curve Loop(8) = {13};
Plane Surface(8) = {8};
Curve Loop(9) = {15};
Plane Surface(9) = {9};
Curve Loop(10) = {-16, -17, 18, 17};
Surface(10) = {10};
Curve Loop(11) = {16};
Plane Surface(11) = {11};
Curve Loop(12) = {18};
Plane Surface(12) = {12};
Curve Loop(13) = {-19, 22, 21, -20};
Plane Surface(13) = {13};
Curve Loop(14) = {-23, 19, 25, -24};
Plane Surface(14) = {14};
Curve Loop(15) = {-20, 25, 27, -26};
Plane Surface(15) = {15};
Curve Loop(16) = {-28, 21, 26, -29};
Plane Surface(16) = {16};
Curve Loop(17) = {-22, 23, 30, -28, -18, -15};
Plane Surface(17) = {17};
Curve Loop(18) = {-24, 30, 29, -27};
Plane Surface(18) = {18};
Surface Loop(1) = {13, 14, 15, 16, 17, 18, 10, 7, 11, 8};
Volume(1) = {1};
Surface Loop(2) = {7, 8, 9};
Volume(2) = {2};
Surface Loop(3) = {10, 11, 12};
Volume(3) = {3};
Physical Surface("WALLS") = {13, 18};
Physical Surface("LOAD") = {8, 11};
Physical Surface("BORDER") = {7, 9, 10, 12, 14, 15, 16, 17};
Physical Volume("SOLID") = {1, 2, 3};
