cl__1 = 0.09705900000000001;
cl__2 = 0.093093;
cl__3 = 4.066062;
cl__4 = 2.869917;
cl__5 = 0.584582;
cl__6 = 0.39823;
Point(9) = {27.645265, 1.521479, 0.1, cl__1};
Point(10) = {27.645265, 1.521479, 0, cl__1};
Point(11) = {17.156036, 3.42419, 0.1, cl__2};
Point(12) = {17.156036, 3.42419, 0, cl__2};
Point(13) = {0.49876, -4.623001, 1, cl__3};
Point(14) = {0.49876, -4.623001, 0, cl__3};
Point(15) = {0.49876, 5.240081, 1, cl__4};
Point(16) = {0.49876, 5.240081, 0, cl__4};
Point(17) = {30.231763, -4.623001, 0, cl__5};
Point(18) = {30.231763, -4.623001, 1, cl__5};
Point(19) = {30.231763, 5.240081, 1, cl__6};
Point(20) = {30.231763, 5.240081, 0, cl__6};
p13 = newp;
Point(p13 + 1) = {27.63331546343321, 1.673312258120003, 0.1};
Point(p13 + 2) = {27.59776109098136, 1.821406877519397, 0.1};
Point(p13 + 3) = {27.53947734929242, 1.962116277170707, 0.1};
Point(p13 + 4) = {27.4598993775194, 2.091975724666795, 0.1};
Point(p13 + 5) = {27.36098664943151, 2.207787649431507, 0.1};
Point(p13 + 6) = {27.2451747246668, 2.306700377519397, 0.1};
Point(p13 + 7) = {27.11531527717071, 2.386278349292415, 0.1};
Point(p13 + 8) = {26.9746058775194, 2.444562090981364, 0.1};
Point(p13 + 9) = {26.82651125812, 2.480116463433213, 0.1};
Point(p13 + 10) = {26.674678, 2.492066, 0.1};
Point(p13 + 11) = {26.52284474188, 2.480116463433213, 0.1};
Point(p13 + 12) = {26.3747501224806, 2.444562090981364, 0.1};
Point(p13 + 13) = {26.23404072282929, 2.386278349292415, 0.1};
Point(p13 + 14) = {26.1041812753332, 2.306700377519397, 0.1};
Point(p13 + 15) = {25.98836935056849, 2.207787649431507, 0.1};
Point(p13 + 16) = {25.8894566224806, 2.091975724666795, 0.1};
Point(p13 + 17) = {25.80987865070759, 1.962116277170708, 0.1};
Point(p13 + 18) = {25.75159490901864, 1.821406877519397, 0.1};
Point(p13 + 19) = {25.71604053656679, 1.673312258120003, 0.1};
Point(p13 + 20) = {25.704091, 1.521479, 0.1};
Point(p13 + 21) = {25.71604053656679, 1.369645741879998, 0.1};
Point(p13 + 22) = {25.75159490901864, 1.221551122480603, 0.1};
Point(p13 + 23) = {25.80987865070759, 1.080841722829293, 0.1};
Point(p13 + 24) = {25.8894566224806, 0.9509822753332056, 0.1};
Point(p13 + 25) = {25.98836935056849, 0.8351703505684925, 0.1};
Point(p13 + 26) = {26.1041812753332, 0.736257622480603, 0.1};
Point(p13 + 27) = {26.23404072282929, 0.6566796507075847, 0.1};
Point(p13 + 28) = {26.3747501224806, 0.5983959090186358, 0.1};
Point(p13 + 29) = {26.52284474188, 0.5628415365667871, 0.1};
Point(p13 + 30) = {26.674678, 0.550892, 0.1};
Point(p13 + 31) = {26.82651125812, 0.562841536566787, 0.1};
Point(p13 + 32) = {26.9746058775194, 0.5983959090186357, 0.1};
Point(p13 + 33) = {27.11531527717071, 0.6566796507075845, 0.1};
Point(p13 + 34) = {27.24517472466679, 0.7362576224806028, 0.1};
Point(p13 + 35) = {27.36098664943151, 0.8351703505684923, 0.1};
Point(p13 + 36) = {27.4598993775194, 0.9509822753332053, 0.1};
Point(p13 + 37) = {27.53947734929242, 1.080841722829292, 0.1};
Point(p13 + 38) = {27.59776109098136, 1.221551122480603, 0.1};
Point(p13 + 39) = {27.63331546343321, 1.369645741879997, 0.1};
Spline(13) = {9, p13 + 1, p13 + 2, p13 + 3, p13 + 4, p13 + 5, p13 + 6, p13 + 7, p13 + 8, p13 + 9, p13 + 10, p13 + 11, p13 + 12, p13 + 13, p13 + 14, p13 + 15, p13 + 16, p13 + 17, p13 + 18, p13 + 19, p13 + 20, p13 + 21, p13 + 22, p13 + 23, p13 + 24, p13 + 25, p13 + 26, p13 + 27, p13 + 28, p13 + 29, p13 + 30, p13 + 31, p13 + 32, p13 + 33, p13 + 34, p13 + 35, p13 + 36, p13 + 37, p13 + 38, p13 + 39, 9};
Line(14) = {10, 9};
p15 = newp;
Point(p15 + 1) = {27.63331546343321, 1.673312258120003, 0};
Point(p15 + 2) = {27.59776109098136, 1.821406877519397, 0};
Point(p15 + 3) = {27.53947734929242, 1.962116277170707, 0};
Point(p15 + 4) = {27.4598993775194, 2.091975724666795, 0};
Point(p15 + 5) = {27.36098664943151, 2.207787649431507, 0};
Point(p15 + 6) = {27.2451747246668, 2.306700377519397, 0};
Point(p15 + 7) = {27.11531527717071, 2.386278349292415, 0};
Point(p15 + 8) = {26.9746058775194, 2.444562090981364, 0};
Point(p15 + 9) = {26.82651125812, 2.480116463433213, 0};
Point(p15 + 10) = {26.674678, 2.492066, 0};
Point(p15 + 11) = {26.52284474188, 2.480116463433213, 0};
Point(p15 + 12) = {26.3747501224806, 2.444562090981364, 0};
Point(p15 + 13) = {26.23404072282929, 2.386278349292415, 0};
Point(p15 + 14) = {26.1041812753332, 2.306700377519397, 0};
Point(p15 + 15) = {25.98836935056849, 2.207787649431507, 0};
Point(p15 + 16) = {25.8894566224806, 2.091975724666795, 0};
Point(p15 + 17) = {25.80987865070759, 1.962116277170708, 0};
Point(p15 + 18) = {25.75159490901864, 1.821406877519397, 0};
Point(p15 + 19) = {25.71604053656679, 1.673312258120003, 0};
Point(p15 + 20) = {25.704091, 1.521479, 0};
Point(p15 + 21) = {25.71604053656679, 1.369645741879998, 0};
Point(p15 + 22) = {25.75159490901864, 1.221551122480603, 0};
Point(p15 + 23) = {25.80987865070759, 1.080841722829293, 0};
Point(p15 + 24) = {25.8894566224806, 0.9509822753332056, 0};
Point(p15 + 25) = {25.98836935056849, 0.8351703505684925, 0};
Point(p15 + 26) = {26.1041812753332, 0.736257622480603, 0};
Point(p15 + 27) = {26.23404072282929, 0.6566796507075847, 0};
Point(p15 + 28) = {26.3747501224806, 0.5983959090186358, 0};
Point(p15 + 29) = {26.52284474188, 0.5628415365667871, 0};
Point(p15 + 30) = {26.674678, 0.550892, 0};
Point(p15 + 31) = {26.82651125812, 0.562841536566787, 0};
Point(p15 + 32) = {26.9746058775194, 0.5983959090186357, 0};
Point(p15 + 33) = {27.11531527717071, 0.6566796507075845, 0};
Point(p15 + 34) = {27.24517472466679, 0.7362576224806028, 0};
Point(p15 + 35) = {27.36098664943151, 0.8351703505684923, 0};
Point(p15 + 36) = {27.4598993775194, 0.9509822753332053, 0};
Point(p15 + 37) = {27.53947734929242, 1.080841722829292, 0};
Point(p15 + 38) = {27.59776109098136, 1.221551122480603, 0};
Point(p15 + 39) = {27.63331546343321, 1.369645741879997, 0};
Spline(15) = {10, p15 + 1, p15 + 2, p15 + 3, p15 + 4, p15 + 5, p15 + 6, p15 + 7, p15 + 8, p15 + 9, p15 + 10, p15 + 11, p15 + 12, p15 + 13, p15 + 14, p15 + 15, p15 + 16, p15 + 17, p15 + 18, p15 + 19, p15 + 20, p15 + 21, p15 + 22, p15 + 23, p15 + 24, p15 + 25, p15 + 26, p15 + 27, p15 + 28, p15 + 29, p15 + 30, p15 + 31, p15 + 32, p15 + 33, p15 + 34, p15 + 35, p15 + 36, p15 + 37, p15 + 38, p15 + 39, 10};
p16 = newp;
Point(p16 + 1) = {17.14457473153355, 3.569819223670972, 0.1};
Point(p16 + 2) = {17.11047314060161, 3.711862572539481, 0.1};
Point(p16 + 3) = {17.05457092154963, 3.846822467941537, 0.1};
Point(p16 + 4) = {16.97824457253948, 3.971375749346127, 0.1};
Point(p16 + 5) = {16.88337350159643, 4.08245550159643, 0.1};
Point(p16 + 6) = {16.77229374934613, 4.177326572539481, 0.1};
Point(p16 + 7) = {16.64774046794154, 4.253652921549628, 0.1};
Point(p16 + 8) = {16.51278057253948, 4.309555140601614, 0.1};
Point(p16 + 9) = {16.37073722367097, 4.34365673153355, 0.1};
Point(p16 + 10) = {16.225108, 4.355118, 0.1};
Point(p16 + 11) = {16.07947877632903, 4.34365673153355, 0.1};
Point(p16 + 12) = {15.93743542746052, 4.309555140601614, 0.1};
Point(p16 + 13) = {15.80247553205846, 4.253652921549628, 0.1};
Point(p16 + 14) = {15.67792225065387, 4.177326572539481, 0.1};
Point(p16 + 15) = {15.56684249840357, 4.082455501596431, 0.1};
Point(p16 + 16) = {15.47197142746052, 3.971375749346127, 0.1};
Point(p16 + 17) = {15.39564507845037, 3.846822467941537, 0.1};
Point(p16 + 18) = {15.33974285939838, 3.711862572539481, 0.1};
Point(p16 + 19) = {15.30564126846645, 3.569819223670972, 0.1};
Point(p16 + 20) = {15.29418, 3.42419, 0.1};
Point(p16 + 21) = {15.30564126846645, 3.278560776329028, 0.1};
Point(p16 + 22) = {15.33974285939838, 3.136517427460519, 0.1};
Point(p16 + 23) = {15.39564507845037, 3.001557532058464, 0.1};
Point(p16 + 24) = {15.47197142746052, 2.877004250653873, 0.1};
Point(p16 + 25) = {15.56684249840357, 2.76592449840357, 0.1};
Point(p16 + 26) = {15.67792225065387, 2.671053427460519, 0.1};
Point(p16 + 27) = {15.80247553205846, 2.594727078450371, 0.1};
Point(p16 + 28) = {15.93743542746052, 2.538824859398385, 0.1};
Point(p16 + 29) = {16.07947877632903, 2.504723268466449, 0.1};
Point(p16 + 30) = {16.225108, 2.493262, 0.1};
Point(p16 + 31) = {16.37073722367097, 2.504723268466449, 0.1};
Point(p16 + 32) = {16.51278057253948, 2.538824859398385, 0.1};
Point(p16 + 33) = {16.64774046794154, 2.594727078450371, 0.1};
Point(p16 + 34) = {16.77229374934613, 2.671053427460519, 0.1};
Point(p16 + 35) = {16.88337350159643, 2.765924498403569, 0.1};
Point(p16 + 36) = {16.97824457253948, 2.877004250653872, 0.1};
Point(p16 + 37) = {17.05457092154963, 3.001557532058463, 0.1};
Point(p16 + 38) = {17.11047314060161, 3.136517427460519, 0.1};
Point(p16 + 39) = {17.14457473153355, 3.278560776329027, 0.1};
Spline(16) = {11, p16 + 1, p16 + 2, p16 + 3, p16 + 4, p16 + 5, p16 + 6, p16 + 7, p16 + 8, p16 + 9, p16 + 10, p16 + 11, p16 + 12, p16 + 13, p16 + 14, p16 + 15, p16 + 16, p16 + 17, p16 + 18, p16 + 19, p16 + 20, p16 + 21, p16 + 22, p16 + 23, p16 + 24, p16 + 25, p16 + 26, p16 + 27, p16 + 28, p16 + 29, p16 + 30, p16 + 31, p16 + 32, p16 + 33, p16 + 34, p16 + 35, p16 + 36, p16 + 37, p16 + 38, p16 + 39, 11};
Line(17) = {12, 11};
p18 = newp;
Point(p18 + 1) = {17.14457473153355, 3.569819223670972, 0};
Point(p18 + 2) = {17.11047314060161, 3.711862572539481, 0};
Point(p18 + 3) = {17.05457092154963, 3.846822467941537, 0};
Point(p18 + 4) = {16.97824457253948, 3.971375749346127, 0};
Point(p18 + 5) = {16.88337350159643, 4.08245550159643, 0};
Point(p18 + 6) = {16.77229374934613, 4.177326572539481, 0};
Point(p18 + 7) = {16.64774046794154, 4.253652921549628, 0};
Point(p18 + 8) = {16.51278057253948, 4.309555140601614, 0};
Point(p18 + 9) = {16.37073722367097, 4.34365673153355, 0};
Point(p18 + 10) = {16.225108, 4.355118, 0};
Point(p18 + 11) = {16.07947877632903, 4.34365673153355, 0};
Point(p18 + 12) = {15.93743542746052, 4.309555140601614, 0};
Point(p18 + 13) = {15.80247553205846, 4.253652921549628, 0};
Point(p18 + 14) = {15.67792225065387, 4.177326572539481, 0};
Point(p18 + 15) = {15.56684249840357, 4.082455501596431, 0};
Point(p18 + 16) = {15.47197142746052, 3.971375749346127, 0};
Point(p18 + 17) = {15.39564507845037, 3.846822467941537, 0};
Point(p18 + 18) = {15.33974285939838, 3.711862572539481, 0};
Point(p18 + 19) = {15.30564126846645, 3.569819223670972, 0};
Point(p18 + 20) = {15.29418, 3.42419, 0};
Point(p18 + 21) = {15.30564126846645, 3.278560776329028, 0};
Point(p18 + 22) = {15.33974285939838, 3.136517427460519, 0};
Point(p18 + 23) = {15.39564507845037, 3.001557532058464, 0};
Point(p18 + 24) = {15.47197142746052, 2.877004250653873, 0};
Point(p18 + 25) = {15.56684249840357, 2.76592449840357, 0};
Point(p18 + 26) = {15.67792225065387, 2.671053427460519, 0};
Point(p18 + 27) = {15.80247553205846, 2.594727078450371, 0};
Point(p18 + 28) = {15.93743542746052, 2.538824859398385, 0};
Point(p18 + 29) = {16.07947877632903, 2.504723268466449, 0};
Point(p18 + 30) = {16.225108, 2.493262, 0};
Point(p18 + 31) = {16.37073722367097, 2.504723268466449, 0};
Point(p18 + 32) = {16.51278057253948, 2.538824859398385, 0};
Point(p18 + 33) = {16.64774046794154, 2.594727078450371, 0};
Point(p18 + 34) = {16.77229374934613, 2.671053427460519, 0};
Point(p18 + 35) = {16.88337350159643, 2.765924498403569, 0};
Point(p18 + 36) = {16.97824457253948, 2.877004250653872, 0};
Point(p18 + 37) = {17.05457092154963, 3.001557532058463, 0};
Point(p18 + 38) = {17.11047314060161, 3.136517427460519, 0};
Point(p18 + 39) = {17.14457473153355, 3.278560776329027, 0};
Spline(18) = {12, p18 + 1, p18 + 2, p18 + 3, p18 + 4, p18 + 5, p18 + 6, p18 + 7, p18 + 8, p18 + 9, p18 + 10, p18 + 11, p18 + 12, p18 + 13, p18 + 14, p18 + 15, p18 + 16, p18 + 17, p18 + 18, p18 + 19, p18 + 20, p18 + 21, p18 + 22, p18 + 23, p18 + 24, p18 + 25, p18 + 26, p18 + 27, p18 + 28, p18 + 29, p18 + 30, p18 + 31, p18 + 32, p18 + 33, p18 + 34, p18 + 35, p18 + 36, p18 + 37, p18 + 38, p18 + 39, 12};
Line(19) = {14, 13};
Line(20) = {13, 15};
Line(21) = {16, 15};
Line(22) = {14, 16};
Line(23) = {14, 17};
Line(24) = {17, 18};
Line(25) = {13, 18};
Line(26) = {15, 19};
Line(27) = {18, 19};
Line(28) = {16, 20};
Line(29) = {20, 19};
Line(30) = {17, 20};
Curve Loop(7) = {-13, -14, 15, 14};
Surface(7) = {7};
Curve Loop(8) = {13};
Plane Surface(8) = {8};
Curve Loop(9) = {15};
Plane Surface(9) = {9};
Curve Loop(10) = {-16, -17, 18, 17};
Surface(10) = {10};
Curve Loop(11) = {16};
Plane Surface(11) = {11};
Curve Loop(12) = {18};
Plane Surface(12) = {12};
Curve Loop(13) = {-19, 22, 21, -20};
Plane Surface(13) = {13};
Curve Loop(14) = {-23, 19, 25, -24};
Plane Surface(14) = {14};
Curve Loop(15) = {-20, 25, 27, -26};
Plane Surface(15) = {15};
Curve Loop(16) = {-28, 21, 26, -29};
Plane Surface(16) = {16};
Curve Loop(17) = {-22, 23, 30, -28, -15, -18};
Plane Surface(17) = {17};
Curve Loop(18) = {-24, 30, 29, -27};
Plane Surface(18) = {18};
Surface Loop(1) = {13, 14, 15, 16, 17, 18, 7, 10, 8, 11};
Volume(1) = {1};
Surface Loop(2) = {7, 8, 9};
Volume(2) = {2};
Surface Loop(3) = {10, 11, 12};
Volume(3) = {3};
Physical Surface("WALLS") = {13, 18};
Physical Surface("LOAD") = {8, 11};
Physical Surface("BORDER") = {7, 9, 10, 12, 14, 15, 16, 17};
Physical Volume("SOLID") = {1, 2, 3};
