cl__1 = 0.08054699999999999;
cl__2 = 0.064;
cl__3 = 2.401698;
cl__4 = 2.804822;
cl__5 = 0.793144;
cl__6 = 0.457407;
Point(9) = {18.083476, -1.36946, 0.1, cl__1};
Point(10) = {18.083476, -1.36946, 0, cl__1};
Point(11) = {32.063906, 3.477627, 0.1, cl__2};
Point(12) = {32.063906, 3.477627, 0, cl__2};
Point(13) = {0.84011, -4.713051, 0.1, cl__3};
Point(14) = {0.84011, -4.713051, 0, cl__3};
Point(15) = {0.84011, 4.981664, 0.1, cl__4};
Point(16) = {0.84011, 4.981664, 0, cl__4};
Point(17) = {37.329728, -4.713051, 0, cl__5};
Point(18) = {37.329728, -4.713051, 0.1, cl__5};
Point(19) = {37.329728, 4.981664, 0.1, cl__6};
Point(20) = {37.329728, 4.981664, 0, cl__6};
p13 = newp;
Point(p13 + 1) = {18.07355930307585, -1.243456418575115, 0.1};
Point(p13 + 2) = {18.04405339429329, -1.120555463506822, 0.1};
Point(p13 + 3) = {17.99568480705105, -1.003783364193788, 0.1};
Point(p13 + 4) = {17.92964453649318, -0.8960154372654769, 0.1};
Point(p13 + 5) = {17.84755871325589, -0.7999052867441092, 0.1};
Point(p13 + 6) = {17.75144856273452, -0.7178194635068224, 0.1};
Point(p13 + 7) = {17.64368063580621, -0.6517791929489469, 0.1};
Point(p13 + 8) = {17.52690853649318, -0.60341060570671, 0.1};
Point(p13 + 9) = {17.40400758142489, -0.5739046969241531, 0.1};
Point(p13 + 10) = {17.278004, -0.5639879999999999, 0.1};
Point(p13 + 11) = {17.15200041857511, -0.5739046969241532, 0.1};
Point(p13 + 12) = {17.02909946350682, -0.6034106057067099, 0.1};
Point(p13 + 13) = {16.91232736419379, -0.6517791929489468, 0.1};
Point(p13 + 14) = {16.80455943726547, -0.7178194635068222, 0.1};
Point(p13 + 15) = {16.70844928674411, -0.7999052867441091, 0.1};
Point(p13 + 16) = {16.62636346350682, -0.8960154372654769, 0.1};
Point(p13 + 17) = {16.56032319294895, -1.003783364193788, 0.1};
Point(p13 + 18) = {16.51195460570671, -1.120555463506822, 0.1};
Point(p13 + 19) = {16.48244869692415, -1.243456418575115, 0.1};
Point(p13 + 20) = {16.472532, -1.36946, 0.1};
Point(p13 + 21) = {16.48244869692415, -1.495463581424885, 0.1};
Point(p13 + 22) = {16.51195460570671, -1.618364536493178, 0.1};
Point(p13 + 23) = {16.56032319294895, -1.735136635806212, 0.1};
Point(p13 + 24) = {16.62636346350682, -1.842904562734523, 0.1};
Point(p13 + 25) = {16.70844928674411, -1.939014713255891, 0.1};
Point(p13 + 26) = {16.80455943726547, -2.021100536493178, 0.1};
Point(p13 + 27) = {16.91232736419379, -2.087140807051053, 0.1};
Point(p13 + 28) = {17.02909946350682, -2.13550939429329, 0.1};
Point(p13 + 29) = {17.15200041857511, -2.165015303075847, 0.1};
Point(p13 + 30) = {17.278004, -2.174932, 0.1};
Point(p13 + 31) = {17.40400758142489, -2.165015303075847, 0.1};
Point(p13 + 32) = {17.52690853649318, -2.13550939429329, 0.1};
Point(p13 + 33) = {17.64368063580621, -2.087140807051053, 0.1};
Point(p13 + 34) = {17.75144856273452, -2.021100536493178, 0.1};
Point(p13 + 35) = {17.84755871325589, -1.939014713255891, 0.1};
Point(p13 + 36) = {17.92964453649318, -1.842904562734523, 0.1};
Point(p13 + 37) = {17.99568480705105, -1.735136635806212, 0.1};
Point(p13 + 38) = {18.04405339429329, -1.618364536493178, 0.1};
Point(p13 + 39) = {18.07355930307585, -1.495463581424885, 0.1};
Spline(13) = {9, p13 + 1, p13 + 2, p13 + 3, p13 + 4, p13 + 5, p13 + 6, p13 + 7, p13 + 8, p13 + 9, p13 + 10, p13 + 11, p13 + 12, p13 + 13, p13 + 14, p13 + 15, p13 + 16, p13 + 17, p13 + 18, p13 + 19, p13 + 20, p13 + 21, p13 + 22, p13 + 23, p13 + 24, p13 + 25, p13 + 26, p13 + 27, p13 + 28, p13 + 29, p13 + 30, p13 + 31, p13 + 32, p13 + 33, p13 + 34, p13 + 35, p13 + 36, p13 + 37, p13 + 38, p13 + 39, 9};
Line(14) = {10, 9};
p15 = newp;
Point(p15 + 1) = {18.07355930307585, -1.243456418575115, 0};
Point(p15 + 2) = {18.04405339429329, -1.120555463506822, 0};
Point(p15 + 3) = {17.99568480705105, -1.003783364193788, 0};
Point(p15 + 4) = {17.92964453649318, -0.8960154372654769, 0};
Point(p15 + 5) = {17.84755871325589, -0.7999052867441092, 0};
Point(p15 + 6) = {17.75144856273452, -0.7178194635068224, 0};
Point(p15 + 7) = {17.64368063580621, -0.6517791929489469, 0};
Point(p15 + 8) = {17.52690853649318, -0.60341060570671, 0};
Point(p15 + 9) = {17.40400758142489, -0.5739046969241531, 0};
Point(p15 + 10) = {17.278004, -0.5639879999999999, 0};
Point(p15 + 11) = {17.15200041857511, -0.5739046969241532, 0};
Point(p15 + 12) = {17.02909946350682, -0.6034106057067099, 0};
Point(p15 + 13) = {16.91232736419379, -0.6517791929489468, 0};
Point(p15 + 14) = {16.80455943726547, -0.7178194635068222, 0};
Point(p15 + 15) = {16.70844928674411, -0.7999052867441091, 0};
Point(p15 + 16) = {16.62636346350682, -0.8960154372654769, 0};
Point(p15 + 17) = {16.56032319294895, -1.003783364193788, 0};
Point(p15 + 18) = {16.51195460570671, -1.120555463506822, 0};
Point(p15 + 19) = {16.48244869692415, -1.243456418575115, 0};
Point(p15 + 20) = {16.472532, -1.36946, 0};
Point(p15 + 21) = {16.48244869692415, -1.495463581424885, 0};
Point(p15 + 22) = {16.51195460570671, -1.618364536493178, 0};
Point(p15 + 23) = {16.56032319294895, -1.735136635806212, 0};
Point(p15 + 24) = {16.62636346350682, -1.842904562734523, 0};
Point(p15 + 25) = {16.70844928674411, -1.939014713255891, 0};
Point(p15 + 26) = {16.80455943726547, -2.021100536493178, 0};
Point(p15 + 27) = {16.91232736419379, -2.087140807051053, 0};
Point(p15 + 28) = {17.02909946350682, -2.13550939429329, 0};
Point(p15 + 29) = {17.15200041857511, -2.165015303075847, 0};
Point(p15 + 30) = {17.278004, -2.174932, 0};
Point(p15 + 31) = {17.40400758142489, -2.165015303075847, 0};
Point(p15 + 32) = {17.52690853649318, -2.13550939429329, 0};
Point(p15 + 33) = {17.64368063580621, -2.087140807051053, 0};
Point(p15 + 34) = {17.75144856273452, -2.021100536493178, 0};
Point(p15 + 35) = {17.84755871325589, -1.939014713255891, 0};
Point(p15 + 36) = {17.92964453649318, -1.842904562734523, 0};
Point(p15 + 37) = {17.99568480705105, -1.735136635806212, 0};
Point(p15 + 38) = {18.04405339429329, -1.618364536493178, 0};
Point(p15 + 39) = {18.07355930307585, -1.495463581424885, 0};
Spline(15) = {10, p15 + 1, p15 + 2, p15 + 3, p15 + 4, p15 + 5, p15 + 6, p15 + 7, p15 + 8, p15 + 9, p15 + 10, p15 + 11, p15 + 12, p15 + 13, p15 + 14, p15 + 15, p15 + 16, p15 + 17, p15 + 18, p15 + 19, p15 + 20, p15 + 21, p15 + 22, p15 + 23, p15 + 24, p15 + 25, p15 + 26, p15 + 27, p15 + 28, p15 + 29, p15 + 30, p15 + 31, p15 + 32, p15 + 33, p15 + 34, p15 + 35, p15 + 36, p15 + 37, p15 + 38, p15 + 39, 10};
p16 = newp;
Point(p16 + 1) = {32.05602651335757, 3.577745370494678, 0.1};
Point(p16 + 2) = {32.03258207254193, 3.675398494433955, 0.1};
Point(p16 + 3) = {31.9941499574936, 3.768181827814309, 0.1};
Point(p16 + 4) = {31.94167649443396, 3.853810737037688, 0.1};
Point(p16 + 5) = {31.87645375417295, 3.930176754172953, 0.1};
Point(p16 + 6) = {31.80008773703769, 3.995399494433955, 0.1};
Point(p16 + 7) = {31.71445882781431, 4.047872957493603, 0.1};
Point(p16 + 8) = {31.62167549443395, 4.086305072541931, 0.1};
Point(p16 + 9) = {31.52402237049468, 4.10974951335757, 0.1};
Point(p16 + 10) = {31.423904, 4.117629, 0.1};
Point(p16 + 11) = {31.32378562950532, 4.10974951335757, 0.1};
Point(p16 + 12) = {31.22613250556605, 4.086305072541931, 0.1};
Point(p16 + 13) = {31.13334917218569, 4.047872957493604, 0.1};
Point(p16 + 14) = {31.04772026296231, 3.995399494433955, 0.1};
Point(p16 + 15) = {30.97135424582705, 3.930176754172953, 0.1};
Point(p16 + 16) = {30.90613150556604, 3.853810737037688, 0.1};
Point(p16 + 17) = {30.8536580425064, 3.768181827814309, 0.1};
Point(p16 + 18) = {30.81522592745807, 3.675398494433955, 0.1};
Point(p16 + 19) = {30.79178148664243, 3.577745370494678, 0.1};
Point(p16 + 20) = {30.783902, 3.477627, 0.1};
Point(p16 + 21) = {30.79178148664243, 3.377508629505322, 0.1};
Point(p16 + 22) = {30.81522592745807, 3.279855505566045, 0.1};
Point(p16 + 23) = {30.8536580425064, 3.187072172185691, 0.1};
Point(p16 + 24) = {30.90613150556604, 3.101443262962313, 0.1};
Point(p16 + 25) = {30.97135424582705, 3.025077245827047, 0.1};
Point(p16 + 26) = {31.04772026296231, 2.959854505566045, 0.1};
Point(p16 + 27) = {31.13334917218569, 2.907381042506396, 0.1};
Point(p16 + 28) = {31.22613250556605, 2.868948927458069, 0.1};
Point(p16 + 29) = {31.32378562950532, 2.845504486642431, 0.1};
Point(p16 + 30) = {31.423904, 2.837625, 0.1};
Point(p16 + 31) = {31.52402237049468, 2.845504486642431, 0.1};
Point(p16 + 32) = {31.62167549443395, 2.868948927458069, 0.1};
Point(p16 + 33) = {31.71445882781431, 2.907381042506396, 0.1};
Point(p16 + 34) = {31.80008773703769, 2.959854505566045, 0.1};
Point(p16 + 35) = {31.87645375417295, 3.025077245827047, 0.1};
Point(p16 + 36) = {31.94167649443396, 3.101443262962313, 0.1};
Point(p16 + 37) = {31.9941499574936, 3.18707217218569, 0.1};
Point(p16 + 38) = {32.03258207254193, 3.279855505566045, 0.1};
Point(p16 + 39) = {32.05602651335757, 3.377508629505322, 0.1};
Spline(16) = {11, p16 + 1, p16 + 2, p16 + 3, p16 + 4, p16 + 5, p16 + 6, p16 + 7, p16 + 8, p16 + 9, p16 + 10, p16 + 11, p16 + 12, p16 + 13, p16 + 14, p16 + 15, p16 + 16, p16 + 17, p16 + 18, p16 + 19, p16 + 20, p16 + 21, p16 + 22, p16 + 23, p16 + 24, p16 + 25, p16 + 26, p16 + 27, p16 + 28, p16 + 29, p16 + 30, p16 + 31, p16 + 32, p16 + 33, p16 + 34, p16 + 35, p16 + 36, p16 + 37, p16 + 38, p16 + 39, 11};
Line(17) = {12, 11};
p18 = newp;
Point(p18 + 1) = {32.05602651335757, 3.577745370494678, 0};
Point(p18 + 2) = {32.03258207254193, 3.675398494433955, 0};
Point(p18 + 3) = {31.9941499574936, 3.768181827814309, 0};
Point(p18 + 4) = {31.94167649443396, 3.853810737037688, 0};
Point(p18 + 5) = {31.87645375417295, 3.930176754172953, 0};
Point(p18 + 6) = {31.80008773703769, 3.995399494433955, 0};
Point(p18 + 7) = {31.71445882781431, 4.047872957493603, 0};
Point(p18 + 8) = {31.62167549443395, 4.086305072541931, 0};
Point(p18 + 9) = {31.52402237049468, 4.10974951335757, 0};
Point(p18 + 10) = {31.423904, 4.117629, 0};
Point(p18 + 11) = {31.32378562950532, 4.10974951335757, 0};
Point(p18 + 12) = {31.22613250556605, 4.086305072541931, 0};
Point(p18 + 13) = {31.13334917218569, 4.047872957493604, 0};
Point(p18 + 14) = {31.04772026296231, 3.995399494433955, 0};
Point(p18 + 15) = {30.97135424582705, 3.930176754172953, 0};
Point(p18 + 16) = {30.90613150556604, 3.853810737037688, 0};
Point(p18 + 17) = {30.8536580425064, 3.768181827814309, 0};
Point(p18 + 18) = {30.81522592745807, 3.675398494433955, 0};
Point(p18 + 19) = {30.79178148664243, 3.577745370494678, 0};
Point(p18 + 20) = {30.783902, 3.477627, 0};
Point(p18 + 21) = {30.79178148664243, 3.377508629505322, 0};
Point(p18 + 22) = {30.81522592745807, 3.279855505566045, 0};
Point(p18 + 23) = {30.8536580425064, 3.187072172185691, 0};
Point(p18 + 24) = {30.90613150556604, 3.101443262962313, 0};
Point(p18 + 25) = {30.97135424582705, 3.025077245827047, 0};
Point(p18 + 26) = {31.04772026296231, 2.959854505566045, 0};
Point(p18 + 27) = {31.13334917218569, 2.907381042506396, 0};
Point(p18 + 28) = {31.22613250556605, 2.868948927458069, 0};
Point(p18 + 29) = {31.32378562950532, 2.845504486642431, 0};
Point(p18 + 30) = {31.423904, 2.837625, 0};
Point(p18 + 31) = {31.52402237049468, 2.845504486642431, 0};
Point(p18 + 32) = {31.62167549443395, 2.868948927458069, 0};
Point(p18 + 33) = {31.71445882781431, 2.907381042506396, 0};
Point(p18 + 34) = {31.80008773703769, 2.959854505566045, 0};
Point(p18 + 35) = {31.87645375417295, 3.025077245827047, 0};
Point(p18 + 36) = {31.94167649443396, 3.101443262962313, 0};
Point(p18 + 37) = {31.9941499574936, 3.18707217218569, 0};
Point(p18 + 38) = {32.03258207254193, 3.279855505566045, 0};
Point(p18 + 39) = {32.05602651335757, 3.377508629505322, 0};
Spline(18) = {12, p18 + 1, p18 + 2, p18 + 3, p18 + 4, p18 + 5, p18 + 6, p18 + 7, p18 + 8, p18 + 9, p18 + 10, p18 + 11, p18 + 12, p18 + 13, p18 + 14, p18 + 15, p18 + 16, p18 + 17, p18 + 18, p18 + 19, p18 + 20, p18 + 21, p18 + 22, p18 + 23, p18 + 24, p18 + 25, p18 + 26, p18 + 27, p18 + 28, p18 + 29, p18 + 30, p18 + 31, p18 + 32, p18 + 33, p18 + 34, p18 + 35, p18 + 36, p18 + 37, p18 + 38, p18 + 39, 12};
Line(19) = {14, 13};
Line(20) = {13, 15};
Line(21) = {16, 15};
Line(22) = {14, 16};
Line(23) = {14, 17};
Line(24) = {17, 18};
Line(25) = {13, 18};
Line(26) = {15, 19};
Line(27) = {18, 19};
Line(28) = {16, 20};
Line(29) = {20, 19};
Line(30) = {17, 20};
Curve Loop(7) = {-13, -14, 15, 14};
Surface(7) = {7};
Curve Loop(8) = {13};
Plane Surface(8) = {8};
Curve Loop(9) = {15};
Plane Surface(9) = {9};
Curve Loop(10) = {-16, -17, 18, 17};
Surface(10) = {10};
Curve Loop(11) = {16};
Plane Surface(11) = {11};
Curve Loop(12) = {18};
Plane Surface(12) = {12};
Curve Loop(13) = {-19, 22, 21, -20};
Plane Surface(13) = {13};
Curve Loop(14) = {-23, 19, 25, -24};
Plane Surface(14) = {14};
Curve Loop(15) = {-20, 25, 27, -26, -13, -16};
Plane Surface(15) = {15};
Curve Loop(16) = {-28, 21, 26, -29};
Plane Surface(16) = {16};
Curve Loop(17) = {-22, 23, 30, -28, -15, -18};
Plane Surface(17) = {17};
Curve Loop(18) = {-24, 30, 29, -27};
Plane Surface(18) = {18};
Surface Loop(1) = {13, 14, 15, 16, 17, 18, 7, 10};
Volume(1) = {1};
Surface Loop(2) = {7, 8, 9};
Volume(2) = {2};
Surface Loop(3) = {10, 11, 12};
Volume(3) = {3};
Physical Surface("WALLS") = {13, 18};
Physical Surface("LOAD") = {8, 11};
Physical Surface("BORDER") = {7, 9, 10, 12, 14, 15, 16, 17};
Physical Volume("SOLID") = {1, 2, 3};
