cl__1 = 0.143915;
cl__2 = 0.085271;
cl__3 = 0.5336610000000001;
cl__4 = 0.610008;
cl__5 = 2.228367;
cl__6 = 3.725126;
Point(9) = {5.960165, -0.1741290000000004, 0.1, cl__1};
Point(10) = {5.960165, -0.1741290000000004, 0, cl__1};
Point(11) = {30.513702, -2.22302, 0.1, cl__2};
Point(12) = {30.513702, -2.22302, 0, cl__2};
Point(13) = {0.709337, -3.843578, 0.1, cl__3};
Point(14) = {0.709337, -3.843578, 0, cl__3};
Point(15) = {0.709337, 4.253004, 0.1, cl__4};
Point(16) = {0.709337, 4.253004, 0, cl__4};
Point(17) = {39.812516, -3.843578, 0, cl__5};
Point(18) = {39.812516, -3.843578, 0.1, cl__5};
Point(19) = {39.812516, 4.253004, 0.1, cl__6};
Point(20) = {39.812516, 4.253004, 0, cl__6};
p13 = newp;
Point(p13 + 1) = {5.942446699990811, 0.05100334749371818, 0.1};
Point(p13 + 2) = {5.889728083313138, 0.2705921894207168, 0.1};
Point(p13 + 3) = {5.803307257272641, 0.4792305197191693, 0.1};
Point(p13 + 4) = {5.685312189420717, 0.6717809702662082, 0.1};
Point(p13 + 5) = {5.538648309931057, 0.8435023099310575, 0.1};
Point(p13 + 6) = {5.366926970266208, 0.9901661894207168, 0.1};
Point(p13 + 7) = {5.174376519719169, 1.108161257272641, 0.1};
Point(p13 + 8) = {4.965738189420716, 1.194582083313138, 0.1};
Point(p13 + 9) = {4.746149347493718, 1.247300699990811, 0.1};
Point(p13 + 10) = {4.521017, 1.265019, 0.1};
Point(p13 + 11) = {4.295884652506281, 1.247300699990811, 0.1};
Point(p13 + 12) = {4.076295810579283, 1.194582083313138, 0.1};
Point(p13 + 13) = {3.867657480280831, 1.108161257272641, 0.1};
Point(p13 + 14) = {3.675107029733792, 0.990166189420717, 0.1};
Point(p13 + 15) = {3.503385690068942, 0.8435023099310577, 0.1};
Point(p13 + 16) = {3.356721810579283, 0.6717809702662084, 0.1};
Point(p13 + 17) = {3.238726742727358, 0.4792305197191694, 0.1};
Point(p13 + 18) = {3.152305916686862, 0.2705921894207169, 0.1};
Point(p13 + 19) = {3.099587300009188, 0.05100334749371835, 0.1};
Point(p13 + 20) = {3.081868999999999, -0.1741289999999998, 0.1};
Point(p13 + 21) = {3.099587300009188, -0.399261347493718, 0.1};
Point(p13 + 22) = {3.152305916686862, -0.6188501894207173, 0.1};
Point(p13 + 23) = {3.238726742727358, -0.8274885197191686, 0.1};
Point(p13 + 24) = {3.356721810579283, -1.020038970266208, 0.1};
Point(p13 + 25) = {3.503385690068942, -1.191760309931057, 0.1};
Point(p13 + 26) = {3.675107029733791, -1.338424189420717, 0.1};
Point(p13 + 27) = {3.86765748028083, -1.456419257272641, 0.1};
Point(p13 + 28) = {4.076295810579283, -1.542840083313138, 0.1};
Point(p13 + 29) = {4.295884652506281, -1.595558699990811, 0.1};
Point(p13 + 30) = {4.521017, -1.613277, 0.1};
Point(p13 + 31) = {4.746149347493717, -1.595558699990811, 0.1};
Point(p13 + 32) = {4.965738189420716, -1.542840083313138, 0.1};
Point(p13 + 33) = {5.174376519719169, -1.456419257272642, 0.1};
Point(p13 + 34) = {5.366926970266207, -1.338424189420717, 0.1};
Point(p13 + 35) = {5.538648309931057, -1.191760309931058, 0.1};
Point(p13 + 36) = {5.685312189420716, -1.020038970266208, 0.1};
Point(p13 + 37) = {5.803307257272641, -0.8274885197191696, 0.1};
Point(p13 + 38) = {5.889728083313138, -0.6188501894207171, 0.1};
Point(p13 + 39) = {5.942446699990811, -0.3992613474937186, 0.1};
Spline(13) = {9, p13 + 1, p13 + 2, p13 + 3, p13 + 4, p13 + 5, p13 + 6, p13 + 7, p13 + 8, p13 + 9, p13 + 10, p13 + 11, p13 + 12, p13 + 13, p13 + 14, p13 + 15, p13 + 16, p13 + 17, p13 + 18, p13 + 19, p13 + 20, p13 + 21, p13 + 22, p13 + 23, p13 + 24, p13 + 25, p13 + 26, p13 + 27, p13 + 28, p13 + 29, p13 + 30, p13 + 31, p13 + 32, p13 + 33, p13 + 34, p13 + 35, p13 + 36, p13 + 37, p13 + 38, p13 + 39, 9};
Line(14) = {10, 9};
p15 = newp;
Point(p15 + 1) = {5.942446699990811, 0.05100334749371818, 0};
Point(p15 + 2) = {5.889728083313138, 0.2705921894207168, 0};
Point(p15 + 3) = {5.803307257272641, 0.4792305197191693, 0};
Point(p15 + 4) = {5.685312189420717, 0.6717809702662082, 0};
Point(p15 + 5) = {5.538648309931057, 0.8435023099310575, 0};
Point(p15 + 6) = {5.366926970266208, 0.9901661894207168, 0};
Point(p15 + 7) = {5.174376519719169, 1.108161257272641, 0};
Point(p15 + 8) = {4.965738189420716, 1.194582083313138, 0};
Point(p15 + 9) = {4.746149347493718, 1.247300699990811, 0};
Point(p15 + 10) = {4.521017, 1.265019, 0};
Point(p15 + 11) = {4.295884652506281, 1.247300699990811, 0};
Point(p15 + 12) = {4.076295810579283, 1.194582083313138, 0};
Point(p15 + 13) = {3.867657480280831, 1.108161257272641, 0};
Point(p15 + 14) = {3.675107029733792, 0.990166189420717, 0};
Point(p15 + 15) = {3.503385690068942, 0.8435023099310577, 0};
Point(p15 + 16) = {3.356721810579283, 0.6717809702662084, 0};
Point(p15 + 17) = {3.238726742727358, 0.4792305197191694, 0};
Point(p15 + 18) = {3.152305916686862, 0.2705921894207169, 0};
Point(p15 + 19) = {3.099587300009188, 0.05100334749371835, 0};
Point(p15 + 20) = {3.081868999999999, -0.1741289999999998, 0};
Point(p15 + 21) = {3.099587300009188, -0.399261347493718, 0};
Point(p15 + 22) = {3.152305916686862, -0.6188501894207173, 0};
Point(p15 + 23) = {3.238726742727358, -0.8274885197191686, 0};
Point(p15 + 24) = {3.356721810579283, -1.020038970266208, 0};
Point(p15 + 25) = {3.503385690068942, -1.191760309931057, 0};
Point(p15 + 26) = {3.675107029733791, -1.338424189420717, 0};
Point(p15 + 27) = {3.86765748028083, -1.456419257272641, 0};
Point(p15 + 28) = {4.076295810579283, -1.542840083313138, 0};
Point(p15 + 29) = {4.295884652506281, -1.595558699990811, 0};
Point(p15 + 30) = {4.521017, -1.613277, 0};
Point(p15 + 31) = {4.746149347493717, -1.595558699990811, 0};
Point(p15 + 32) = {4.965738189420716, -1.542840083313138, 0};
Point(p15 + 33) = {5.174376519719169, -1.456419257272642, 0};
Point(p15 + 34) = {5.366926970266207, -1.338424189420717, 0};
Point(p15 + 35) = {5.538648309931057, -1.191760309931058, 0};
Point(p15 + 36) = {5.685312189420716, -1.020038970266208, 0};
Point(p15 + 37) = {5.803307257272641, -0.8274885197191696, 0};
Point(p15 + 38) = {5.889728083313138, -0.6188501894207171, 0};
Point(p15 + 39) = {5.942446699990811, -0.3992613474937186, 0};
Spline(15) = {10, p15 + 1, p15 + 2, p15 + 3, p15 + 4, p15 + 5, p15 + 6, p15 + 7, p15 + 8, p15 + 9, p15 + 10, p15 + 11, p15 + 12, p15 + 13, p15 + 14, p15 + 15, p15 + 16, p15 + 17, p15 + 18, p15 + 19, p15 + 20, p15 + 21, p15 + 22, p15 + 23, p15 + 24, p15 + 25, p15 + 26, p15 + 27, p15 + 28, p15 + 29, p15 + 30, p15 + 31, p15 + 32, p15 + 33, p15 + 34, p15 + 35, p15 + 36, p15 + 37, p15 + 38, p15 + 39, 10};
p16 = newp;
Point(p16 + 1) = {30.50320370028556, -2.089626454446615, 0.1};
Point(p16 + 2) = {30.47196730412308, -1.95951750069255, 0.1};
Point(p16 + 3) = {30.42076195525371, -1.835896852986092, 0.1};
Point(p16 + 4) = {30.35084849930745, -1.721808461947181, 0.1};
Point(p16 + 5) = {30.26394843759914, -1.620061562400857, 0.1};
Point(p16 + 6) = {30.16220153805282, -1.53316150069255, 0.1};
Point(p16 + 7) = {30.04811314701391, -1.463248044746289, 0.1};
Point(p16 + 8) = {29.92449249930745, -1.412042695876927, 0.1};
Point(p16 + 9) = {29.79438354555339, -1.380806299714439, 0.1};
Point(p16 + 10) = {29.66099, -1.370308, 0.1};
Point(p16 + 11) = {29.52759645444662, -1.380806299714439, 0.1};
Point(p16 + 12) = {29.39748750069255, -1.412042695876927, 0.1};
Point(p16 + 13) = {29.27386685298609, -1.463248044746289, 0.1};
Point(p16 + 14) = {29.15977846194718, -1.53316150069255, 0.1};
Point(p16 + 15) = {29.05803156240086, -1.620061562400857, 0.1};
Point(p16 + 16) = {28.97113150069255, -1.721808461947181, 0.1};
Point(p16 + 17) = {28.90121804474629, -1.835896852986092, 0.1};
Point(p16 + 18) = {28.85001269587693, -1.95951750069255, 0.1};
Point(p16 + 19) = {28.81877629971444, -2.089626454446615, 0.1};
Point(p16 + 20) = {28.808278, -2.22302, 0.1};
Point(p16 + 21) = {28.81877629971444, -2.356413545553385, 0.1};
Point(p16 + 22) = {28.85001269587693, -2.48652249930745, 0.1};
Point(p16 + 23) = {28.90121804474629, -2.610143147013908, 0.1};
Point(p16 + 24) = {28.97113150069255, -2.724231538052819, 0.1};
Point(p16 + 25) = {29.05803156240086, -2.825978437599143, 0.1};
Point(p16 + 26) = {29.15977846194718, -2.91287849930745, 0.1};
Point(p16 + 27) = {29.27386685298609, -2.982791955253711, 0.1};
Point(p16 + 28) = {29.39748750069255, -3.033997304123073, 0.1};
Point(p16 + 29) = {29.52759645444662, -3.065233700285561, 0.1};
Point(p16 + 30) = {29.66099, -3.075732, 0.1};
Point(p16 + 31) = {29.79438354555339, -3.065233700285561, 0.1};
Point(p16 + 32) = {29.92449249930745, -3.033997304123073, 0.1};
Point(p16 + 33) = {30.04811314701391, -2.982791955253711, 0.1};
Point(p16 + 34) = {30.16220153805282, -2.912878499307451, 0.1};
Point(p16 + 35) = {30.26394843759914, -2.825978437599144, 0.1};
Point(p16 + 36) = {30.35084849930745, -2.72423153805282, 0.1};
Point(p16 + 37) = {30.42076195525371, -2.610143147013908, 0.1};
Point(p16 + 38) = {30.47196730412308, -2.48652249930745, 0.1};
Point(p16 + 39) = {30.50320370028556, -2.356413545553385, 0.1};
Spline(16) = {11, p16 + 1, p16 + 2, p16 + 3, p16 + 4, p16 + 5, p16 + 6, p16 + 7, p16 + 8, p16 + 9, p16 + 10, p16 + 11, p16 + 12, p16 + 13, p16 + 14, p16 + 15, p16 + 16, p16 + 17, p16 + 18, p16 + 19, p16 + 20, p16 + 21, p16 + 22, p16 + 23, p16 + 24, p16 + 25, p16 + 26, p16 + 27, p16 + 28, p16 + 29, p16 + 30, p16 + 31, p16 + 32, p16 + 33, p16 + 34, p16 + 35, p16 + 36, p16 + 37, p16 + 38, p16 + 39, 11};
Line(17) = {12, 11};
p18 = newp;
Point(p18 + 1) = {30.50320370028556, -2.089626454446615, 0};
Point(p18 + 2) = {30.47196730412308, -1.95951750069255, 0};
Point(p18 + 3) = {30.42076195525371, -1.835896852986092, 0};
Point(p18 + 4) = {30.35084849930745, -1.721808461947181, 0};
Point(p18 + 5) = {30.26394843759914, -1.620061562400857, 0};
Point(p18 + 6) = {30.16220153805282, -1.53316150069255, 0};
Point(p18 + 7) = {30.04811314701391, -1.463248044746289, 0};
Point(p18 + 8) = {29.92449249930745, -1.412042695876927, 0};
Point(p18 + 9) = {29.79438354555339, -1.380806299714439, 0};
Point(p18 + 10) = {29.66099, -1.370308, 0};
Point(p18 + 11) = {29.52759645444662, -1.380806299714439, 0};
Point(p18 + 12) = {29.39748750069255, -1.412042695876927, 0};
Point(p18 + 13) = {29.27386685298609, -1.463248044746289, 0};
Point(p18 + 14) = {29.15977846194718, -1.53316150069255, 0};
Point(p18 + 15) = {29.05803156240086, -1.620061562400857, 0};
Point(p18 + 16) = {28.97113150069255, -1.721808461947181, 0};
Point(p18 + 17) = {28.90121804474629, -1.835896852986092, 0};
Point(p18 + 18) = {28.85001269587693, -1.95951750069255, 0};
Point(p18 + 19) = {28.81877629971444, -2.089626454446615, 0};
Point(p18 + 20) = {28.808278, -2.22302, 0};
Point(p18 + 21) = {28.81877629971444, -2.356413545553385, 0};
Point(p18 + 22) = {28.85001269587693, -2.48652249930745, 0};
Point(p18 + 23) = {28.90121804474629, -2.610143147013908, 0};
Point(p18 + 24) = {28.97113150069255, -2.724231538052819, 0};
Point(p18 + 25) = {29.05803156240086, -2.825978437599143, 0};
Point(p18 + 26) = {29.15977846194718, -2.91287849930745, 0};
Point(p18 + 27) = {29.27386685298609, -2.982791955253711, 0};
Point(p18 + 28) = {29.39748750069255, -3.033997304123073, 0};
Point(p18 + 29) = {29.52759645444662, -3.065233700285561, 0};
Point(p18 + 30) = {29.66099, -3.075732, 0};
Point(p18 + 31) = {29.79438354555339, -3.065233700285561, 0};
Point(p18 + 32) = {29.92449249930745, -3.033997304123073, 0};
Point(p18 + 33) = {30.04811314701391, -2.982791955253711, 0};
Point(p18 + 34) = {30.16220153805282, -2.912878499307451, 0};
Point(p18 + 35) = {30.26394843759914, -2.825978437599144, 0};
Point(p18 + 36) = {30.35084849930745, -2.72423153805282, 0};
Point(p18 + 37) = {30.42076195525371, -2.610143147013908, 0};
Point(p18 + 38) = {30.47196730412308, -2.48652249930745, 0};
Point(p18 + 39) = {30.50320370028556, -2.356413545553385, 0};
Spline(18) = {12, p18 + 1, p18 + 2, p18 + 3, p18 + 4, p18 + 5, p18 + 6, p18 + 7, p18 + 8, p18 + 9, p18 + 10, p18 + 11, p18 + 12, p18 + 13, p18 + 14, p18 + 15, p18 + 16, p18 + 17, p18 + 18, p18 + 19, p18 + 20, p18 + 21, p18 + 22, p18 + 23, p18 + 24, p18 + 25, p18 + 26, p18 + 27, p18 + 28, p18 + 29, p18 + 30, p18 + 31, p18 + 32, p18 + 33, p18 + 34, p18 + 35, p18 + 36, p18 + 37, p18 + 38, p18 + 39, 12};
Line(19) = {14, 13};
Line(20) = {13, 15};
Line(21) = {16, 15};
Line(22) = {14, 16};
Line(23) = {14, 17};
Line(24) = {17, 18};
Line(25) = {13, 18};
Line(26) = {15, 19};
Line(27) = {18, 19};
Line(28) = {16, 20};
Line(29) = {20, 19};
Line(30) = {17, 20};
Curve Loop(7) = {-13, -14, 15, 14};
Surface(7) = {7};
Curve Loop(8) = {13};
Plane Surface(8) = {8};
Curve Loop(9) = {15};
Plane Surface(9) = {9};
Curve Loop(10) = {-16, -17, 18, 17};
Surface(10) = {10};
Curve Loop(11) = {16};
Plane Surface(11) = {11};
Curve Loop(12) = {18};
Plane Surface(12) = {12};
Curve Loop(13) = {-19, 22, 21, -20};
Plane Surface(13) = {13};
Curve Loop(14) = {-23, 19, 25, -24};
Plane Surface(14) = {14};
Curve Loop(15) = {-20, 25, 27, -26, -16, -13};
Plane Surface(15) = {15};
Curve Loop(16) = {-28, 21, 26, -29};
Plane Surface(16) = {16};
Curve Loop(17) = {-22, 23, 30, -28, -18, -15};
Plane Surface(17) = {17};
Curve Loop(18) = {-24, 30, 29, -27};
Plane Surface(18) = {18};
Surface Loop(1) = {13, 14, 15, 16, 17, 18, 10, 7};
Volume(1) = {1};
Surface Loop(2) = {7, 8, 9};
Volume(2) = {2};
Surface Loop(3) = {10, 11, 12};
Volume(3) = {3};
Physical Surface("WALLS") = {13, 18};
Physical Surface("LOAD") = {8, 11};
Physical Surface("BORDER") = {7, 9, 10, 12, 14, 15, 16, 17};
Physical Volume("SOLID") = {1, 2, 3};
