cl__1 = 0.14097;
cl__2 = 0.149463;
cl__3 = 1.83387;
cl__4 = 2.074272;
cl__5 = 0.746534;
cl__6 = 0.754115;
Point(9) = {25.278909, -0.08275400000000034, 0.1, cl__1};
Point(10) = {25.278909, -0.08275400000000034, 0, cl__1};
Point(11) = {20.571849, -1.486631, 0.1, cl__2};
Point(12) = {20.571849, -1.486631, 0, cl__2};
Point(13) = {0.964026, -4.191196, 0.1, cl__3};
Point(14) = {0.964026, -4.191196, 0, cl__3};
Point(15) = {0.964026, 4.312847, 0.1, cl__4};
Point(16) = {0.964026, 4.312847, 0, cl__4};
Point(17) = {34.78981899999999, -4.191196, 0, cl__5};
Point(18) = {34.78981899999999, -4.191196, 0.1, cl__5};
Point(19) = {34.78981899999999, 4.312847, 0.1, cl__6};
Point(20) = {34.78981899999999, 4.312847, 0, cl__6};
p13 = newp;
Point(p13 + 1) = {25.26155324142531, 0.1377718218016785, 0.1};
Point(p13 + 2) = {25.2099133220778, 0.3528675659873577, 0.1};
Point(p13 + 3) = {25.12526078815487, 0.5572368614733388, 0.1};
Point(p13 + 4) = {25.00968006598736, 0.7458474579419517, 0.1};
Point(p13 + 5) = {24.86601713654546, 0.9140551365454572, 0.1};
Point(p13 + 6) = {24.69780945794195, 1.057718065987358, 0.1};
Point(p13 + 7) = {24.50919886147334, 1.173298788154866, 0.1};
Point(p13 + 8) = {24.30482956598736, 1.257951322077794, 0.1};
Point(p13 + 9) = {24.08973382180168, 1.309591241425306, 0.1};
Point(p13 + 10) = {23.869208, 1.326947, 0.1};
Point(p13 + 11) = {23.64868217819832, 1.309591241425306, 0.1};
Point(p13 + 12) = {23.43358643401264, 1.257951322077794, 0.1};
Point(p13 + 13) = {23.22921713852666, 1.173298788154866, 0.1};
Point(p13 + 14) = {23.04060654205805, 1.057718065987358, 0.1};
Point(p13 + 15) = {22.87239886345454, 0.9140551365454573, 0.1};
Point(p13 + 16) = {22.72873593401264, 0.7458474579419518, 0.1};
Point(p13 + 17) = {22.61315521184513, 0.557236861473339, 0.1};
Point(p13 + 18) = {22.52850267792221, 0.3528675659873579, 0.1};
Point(p13 + 19) = {22.47686275857469, 0.1377718218016787, 0.1};
Point(p13 + 20) = {22.459507, -0.08275399999999983, 0.1};
Point(p13 + 21) = {22.47686275857469, -0.3032798218016783, 0.1};
Point(p13 + 22) = {22.52850267792221, -0.5183755659873582, 0.1};
Point(p13 + 23) = {22.61315521184513, -0.7227448614733382, 0.1};
Point(p13 + 24) = {22.72873593401264, -0.9113554579419516, 0.1};
Point(p13 + 25) = {22.87239886345454, -1.079563136545457, 0.1};
Point(p13 + 26) = {23.04060654205805, -1.223226065987358, 0.1};
Point(p13 + 27) = {23.22921713852666, -1.338806788154866, 0.1};
Point(p13 + 28) = {23.43358643401264, -1.423459322077794, 0.1};
Point(p13 + 29) = {23.64868217819832, -1.475099241425306, 0.1};
Point(p13 + 30) = {23.869208, -1.492455, 0.1};
Point(p13 + 31) = {24.08973382180168, -1.475099241425306, 0.1};
Point(p13 + 32) = {24.30482956598736, -1.423459322077794, 0.1};
Point(p13 + 33) = {24.50919886147334, -1.338806788154867, 0.1};
Point(p13 + 34) = {24.69780945794195, -1.223226065987358, 0.1};
Point(p13 + 35) = {24.86601713654546, -1.079563136545457, 0.1};
Point(p13 + 36) = {25.00968006598736, -0.9113554579419518, 0.1};
Point(p13 + 37) = {25.12526078815487, -0.7227448614733392, 0.1};
Point(p13 + 38) = {25.2099133220778, -0.5183755659873581, 0.1};
Point(p13 + 39) = {25.26155324142531, -0.3032798218016789, 0.1};
Spline(13) = {9, p13 + 1, p13 + 2, p13 + 3, p13 + 4, p13 + 5, p13 + 6, p13 + 7, p13 + 8, p13 + 9, p13 + 10, p13 + 11, p13 + 12, p13 + 13, p13 + 14, p13 + 15, p13 + 16, p13 + 17, p13 + 18, p13 + 19, p13 + 20, p13 + 21, p13 + 22, p13 + 23, p13 + 24, p13 + 25, p13 + 26, p13 + 27, p13 + 28, p13 + 29, p13 + 30, p13 + 31, p13 + 32, p13 + 33, p13 + 34, p13 + 35, p13 + 36, p13 + 37, p13 + 38, p13 + 39, 9};
Line(14) = {10, 9};
p15 = newp;
Point(p15 + 1) = {25.26155324142531, 0.1377718218016785, 0};
Point(p15 + 2) = {25.2099133220778, 0.3528675659873577, 0};
Point(p15 + 3) = {25.12526078815487, 0.5572368614733388, 0};
Point(p15 + 4) = {25.00968006598736, 0.7458474579419517, 0};
Point(p15 + 5) = {24.86601713654546, 0.9140551365454572, 0};
Point(p15 + 6) = {24.69780945794195, 1.057718065987358, 0};
Point(p15 + 7) = {24.50919886147334, 1.173298788154866, 0};
Point(p15 + 8) = {24.30482956598736, 1.257951322077794, 0};
Point(p15 + 9) = {24.08973382180168, 1.309591241425306, 0};
Point(p15 + 10) = {23.869208, 1.326947, 0};
Point(p15 + 11) = {23.64868217819832, 1.309591241425306, 0};
Point(p15 + 12) = {23.43358643401264, 1.257951322077794, 0};
Point(p15 + 13) = {23.22921713852666, 1.173298788154866, 0};
Point(p15 + 14) = {23.04060654205805, 1.057718065987358, 0};
Point(p15 + 15) = {22.87239886345454, 0.9140551365454573, 0};
Point(p15 + 16) = {22.72873593401264, 0.7458474579419518, 0};
Point(p15 + 17) = {22.61315521184513, 0.557236861473339, 0};
Point(p15 + 18) = {22.52850267792221, 0.3528675659873579, 0};
Point(p15 + 19) = {22.47686275857469, 0.1377718218016787, 0};
Point(p15 + 20) = {22.459507, -0.08275399999999983, 0};
Point(p15 + 21) = {22.47686275857469, -0.3032798218016783, 0};
Point(p15 + 22) = {22.52850267792221, -0.5183755659873582, 0};
Point(p15 + 23) = {22.61315521184513, -0.7227448614733382, 0};
Point(p15 + 24) = {22.72873593401264, -0.9113554579419516, 0};
Point(p15 + 25) = {22.87239886345454, -1.079563136545457, 0};
Point(p15 + 26) = {23.04060654205805, -1.223226065987358, 0};
Point(p15 + 27) = {23.22921713852666, -1.338806788154866, 0};
Point(p15 + 28) = {23.43358643401264, -1.423459322077794, 0};
Point(p15 + 29) = {23.64868217819832, -1.475099241425306, 0};
Point(p15 + 30) = {23.869208, -1.492455, 0};
Point(p15 + 31) = {24.08973382180168, -1.475099241425306, 0};
Point(p15 + 32) = {24.30482956598736, -1.423459322077794, 0};
Point(p15 + 33) = {24.50919886147334, -1.338806788154867, 0};
Point(p15 + 34) = {24.69780945794195, -1.223226065987358, 0};
Point(p15 + 35) = {24.86601713654546, -1.079563136545457, 0};
Point(p15 + 36) = {25.00968006598736, -0.9113554579419518, 0};
Point(p15 + 37) = {25.12526078815487, -0.7227448614733392, 0};
Point(p15 + 38) = {25.2099133220778, -0.5183755659873581, 0};
Point(p15 + 39) = {25.26155324142531, -0.3032798218016789, 0};
Spline(15) = {10, p15 + 1, p15 + 2, p15 + 3, p15 + 4, p15 + 5, p15 + 6, p15 + 7, p15 + 8, p15 + 9, p15 + 10, p15 + 11, p15 + 12, p15 + 13, p15 + 14, p15 + 15, p15 + 16, p15 + 17, p15 + 18, p15 + 19, p15 + 20, p15 + 21, p15 + 22, p15 + 23, p15 + 24, p15 + 25, p15 + 26, p15 + 27, p15 + 28, p15 + 29, p15 + 30, p15 + 31, p15 + 32, p15 + 33, p15 + 34, p15 + 35, p15 + 36, p15 + 37, p15 + 38, p15 + 39, 10};
p16 = newp;
Point(p16 + 1) = {20.55344764912703, -1.25281966838585, 0.1};
Point(p16 + 2) = {20.49869669883719, -1.024765547731361, 0.1};
Point(p16 + 3) = {20.40894429923461, -0.8080840873552807, 0.1};
Point(p16 + 4) = {20.28640045226864, -0.6081107039366055, 0.1};
Point(p16 + 5) = {20.13408259415129, -0.4297694058487129, 0.1};
Point(p16 + 6) = {19.9557412960634, -0.2774515477313613, 0.1};
Point(p16 + 7) = {19.75576791264472, -0.1549077007653883, 0.1};
Point(p16 + 8) = {19.53908645226864, -0.06515530116280721, 0.1};
Point(p16 + 9) = {19.31103233161415, -0.01040435087297031, 0.1};
Point(p16 + 10) = {19.077221, 0.007997000000000032, 0.1};
Point(p16 + 11) = {18.84340966838585, -0.01040435087297054, 0.1};
Point(p16 + 12) = {18.61535554773136, -0.06515530116280699, 0.1};
Point(p16 + 13) = {18.39867408735528, -0.1549077007653881, 0.1};
Point(p16 + 14) = {18.19870070393661, -0.277451547731361, 0.1};
Point(p16 + 15) = {18.02035940584872, -0.4297694058487127, 0.1};
Point(p16 + 16) = {17.86804154773136, -0.6081107039366053, 0.1};
Point(p16 + 17) = {17.74549770076539, -0.8080840873552806, 0.1};
Point(p16 + 18) = {17.65574530116281, -1.024765547731361, 0.1};
Point(p16 + 19) = {17.60099435087297, -1.25281966838585, 0.1};
Point(p16 + 20) = {17.582593, -1.486631, 0.1};
Point(p16 + 21) = {17.60099435087297, -1.72044233161415, 0.1};
Point(p16 + 22) = {17.65574530116281, -1.948496452268639, 0.1};
Point(p16 + 23) = {17.74549770076539, -2.165177912644719, 0.1};
Point(p16 + 24) = {17.86804154773136, -2.365151296063394, 0.1};
Point(p16 + 25) = {18.02035940584872, -2.543492594151287, 0.1};
Point(p16 + 26) = {18.19870070393661, -2.695810452268639, 0.1};
Point(p16 + 27) = {18.39867408735528, -2.818354299234612, 0.1};
Point(p16 + 28) = {18.61535554773136, -2.908106698837193, 0.1};
Point(p16 + 29) = {18.84340966838585, -2.96285764912703, 0.1};
Point(p16 + 30) = {19.077221, -2.981259, 0.1};
Point(p16 + 31) = {19.31103233161415, -2.96285764912703, 0.1};
Point(p16 + 32) = {19.53908645226864, -2.908106698837193, 0.1};
Point(p16 + 33) = {19.75576791264472, -2.818354299234612, 0.1};
Point(p16 + 34) = {19.95574129606339, -2.695810452268639, 0.1};
Point(p16 + 35) = {20.13408259415129, -2.543492594151287, 0.1};
Point(p16 + 36) = {20.28640045226864, -2.365151296063395, 0.1};
Point(p16 + 37) = {20.40894429923461, -2.16517791264472, 0.1};
Point(p16 + 38) = {20.49869669883719, -1.948496452268639, 0.1};
Point(p16 + 39) = {20.55344764912703, -1.720442331614151, 0.1};
Spline(16) = {11, p16 + 1, p16 + 2, p16 + 3, p16 + 4, p16 + 5, p16 + 6, p16 + 7, p16 + 8, p16 + 9, p16 + 10, p16 + 11, p16 + 12, p16 + 13, p16 + 14, p16 + 15, p16 + 16, p16 + 17, p16 + 18, p16 + 19, p16 + 20, p16 + 21, p16 + 22, p16 + 23, p16 + 24, p16 + 25, p16 + 26, p16 + 27, p16 + 28, p16 + 29, p16 + 30, p16 + 31, p16 + 32, p16 + 33, p16 + 34, p16 + 35, p16 + 36, p16 + 37, p16 + 38, p16 + 39, 11};
Line(17) = {12, 11};
p18 = newp;
Point(p18 + 1) = {20.55344764912703, -1.25281966838585, 0};
Point(p18 + 2) = {20.49869669883719, -1.024765547731361, 0};
Point(p18 + 3) = {20.40894429923461, -0.8080840873552807, 0};
Point(p18 + 4) = {20.28640045226864, -0.6081107039366055, 0};
Point(p18 + 5) = {20.13408259415129, -0.4297694058487129, 0};
Point(p18 + 6) = {19.9557412960634, -0.2774515477313613, 0};
Point(p18 + 7) = {19.75576791264472, -0.1549077007653883, 0};
Point(p18 + 8) = {19.53908645226864, -0.06515530116280721, 0};
Point(p18 + 9) = {19.31103233161415, -0.01040435087297031, 0};
Point(p18 + 10) = {19.077221, 0.007997000000000032, 0};
Point(p18 + 11) = {18.84340966838585, -0.01040435087297054, 0};
Point(p18 + 12) = {18.61535554773136, -0.06515530116280699, 0};
Point(p18 + 13) = {18.39867408735528, -0.1549077007653881, 0};
Point(p18 + 14) = {18.19870070393661, -0.277451547731361, 0};
Point(p18 + 15) = {18.02035940584872, -0.4297694058487127, 0};
Point(p18 + 16) = {17.86804154773136, -0.6081107039366053, 0};
Point(p18 + 17) = {17.74549770076539, -0.8080840873552806, 0};
Point(p18 + 18) = {17.65574530116281, -1.024765547731361, 0};
Point(p18 + 19) = {17.60099435087297, -1.25281966838585, 0};
Point(p18 + 20) = {17.582593, -1.486631, 0};
Point(p18 + 21) = {17.60099435087297, -1.72044233161415, 0};
Point(p18 + 22) = {17.65574530116281, -1.948496452268639, 0};
Point(p18 + 23) = {17.74549770076539, -2.165177912644719, 0};
Point(p18 + 24) = {17.86804154773136, -2.365151296063394, 0};
Point(p18 + 25) = {18.02035940584872, -2.543492594151287, 0};
Point(p18 + 26) = {18.19870070393661, -2.695810452268639, 0};
Point(p18 + 27) = {18.39867408735528, -2.818354299234612, 0};
Point(p18 + 28) = {18.61535554773136, -2.908106698837193, 0};
Point(p18 + 29) = {18.84340966838585, -2.96285764912703, 0};
Point(p18 + 30) = {19.077221, -2.981259, 0};
Point(p18 + 31) = {19.31103233161415, -2.96285764912703, 0};
Point(p18 + 32) = {19.53908645226864, -2.908106698837193, 0};
Point(p18 + 33) = {19.75576791264472, -2.818354299234612, 0};
Point(p18 + 34) = {19.95574129606339, -2.695810452268639, 0};
Point(p18 + 35) = {20.13408259415129, -2.543492594151287, 0};
Point(p18 + 36) = {20.28640045226864, -2.365151296063395, 0};
Point(p18 + 37) = {20.40894429923461, -2.16517791264472, 0};
Point(p18 + 38) = {20.49869669883719, -1.948496452268639, 0};
Point(p18 + 39) = {20.55344764912703, -1.720442331614151, 0};
Spline(18) = {12, p18 + 1, p18 + 2, p18 + 3, p18 + 4, p18 + 5, p18 + 6, p18 + 7, p18 + 8, p18 + 9, p18 + 10, p18 + 11, p18 + 12, p18 + 13, p18 + 14, p18 + 15, p18 + 16, p18 + 17, p18 + 18, p18 + 19, p18 + 20, p18 + 21, p18 + 22, p18 + 23, p18 + 24, p18 + 25, p18 + 26, p18 + 27, p18 + 28, p18 + 29, p18 + 30, p18 + 31, p18 + 32, p18 + 33, p18 + 34, p18 + 35, p18 + 36, p18 + 37, p18 + 38, p18 + 39, 12};
Line(19) = {14, 13};
Line(20) = {13, 15};
Line(21) = {16, 15};
Line(22) = {14, 16};
Line(23) = {14, 17};
Line(24) = {17, 18};
Line(25) = {13, 18};
Line(26) = {15, 19};
Line(27) = {18, 19};
Line(28) = {16, 20};
Line(29) = {20, 19};
Line(30) = {17, 20};
Curve Loop(7) = {-13, -14, 15, 14};
Surface(7) = {7};
Curve Loop(8) = {13};
Plane Surface(8) = {8};
Curve Loop(9) = {15};
Plane Surface(9) = {9};
Curve Loop(10) = {-16, -17, 18, 17};
Surface(10) = {10};
Curve Loop(11) = {16};
Plane Surface(11) = {11};
Curve Loop(12) = {18};
Plane Surface(12) = {12};
Curve Loop(13) = {-19, 22, 21, -20};
Plane Surface(13) = {13};
Curve Loop(14) = {-23, 19, 25, -24};
Plane Surface(14) = {14};
Curve Loop(15) = {-20, 25, 27, -26, -16, -13};
Plane Surface(15) = {15};
Curve Loop(16) = {-28, 21, 26, -29};
Plane Surface(16) = {16};
Curve Loop(17) = {-22, 23, 30, -28, -18, -15};
Plane Surface(17) = {17};
Curve Loop(18) = {-24, 30, 29, -27};
Plane Surface(18) = {18};
Surface Loop(1) = {13, 14, 15, 16, 17, 18, 10, 7};
Volume(1) = {1};
Surface Loop(2) = {7, 8, 9};
Volume(2) = {2};
Surface Loop(3) = {10, 11, 12};
Volume(3) = {3};
Physical Surface("WALLS") = {13, 18};
Physical Surface("LOAD") = {8, 11};
Physical Surface("BORDER") = {7, 9, 10, 12, 14, 15, 16, 17};
Physical Volume("SOLID") = {1, 2, 3};
