cl__1 = 0.12324;
cl__2 = 0.086711;
cl__3 = 0.355156;
cl__4 = 0.452731;
cl__5 = 3.910756;
cl__6 = 4.224867;
Point(9) = {8.132063, -1.214789, 0.1, cl__1};
Point(10) = {8.132063, -1.214789, 0, cl__1};
Point(11) = {11.798243, -1.887157, 0.1, cl__2};
Point(12) = {11.798243, -1.887157, 0, cl__2};
Point(13) = {0.4375, -3.692505, 1, cl__3};
Point(14) = {0.4375, -3.692505, 0, cl__3};
Point(15) = {0.4375, 4.281935000000001, 1, cl__4};
Point(16) = {0.4375, 4.281935000000001, 0, cl__4};
Point(17) = {36.970378, -3.692505, 0, cl__5};
Point(18) = {36.970378, -3.692505, 1, cl__5};
Point(19) = {36.970378, 4.281935000000001, 1, cl__6};
Point(20) = {36.970378, 4.281935000000001, 0, cl__6};
p13 = newp;
Point(p13 + 1) = {8.11689008632613, -1.021998852415489, 0.1};
Point(p13 + 2) = {8.07174495279518, -0.833955838098326, 0.1};
Point(p13 + 3) = {7.997739222422793, -0.655290200139983, 0.1};
Point(p13 + 4) = {7.896695161901674, -0.4904012795042514, 0.1};
Point(p13 + 5) = {7.771100811347864, -0.3433491886521365, 0.1};
Point(p13 + 6) = {7.624048720495749, -0.2177548380983261, 0.1};
Point(p13 + 7) = {7.459159799860017, -0.1167107775772072, 0.1};
Point(p13 + 8) = {7.280494161901674, -0.04270504720482005, 0.1};
Point(p13 + 9) = {7.09245114758451, 0.002440086326129132, 0.1};
Point(p13 + 10) = {6.899661, 0.0176130000000001, 0.1};
Point(p13 + 11) = {6.70687085241549, 0.00244008632612891, 0.1};
Point(p13 + 12) = {6.518827838098326, -0.04270504720482005, 0.1};
Point(p13 + 13) = {6.340162200139983, -0.1167107775772069, 0.1};
Point(p13 + 14) = {6.175273279504252, -0.217754838098326, 0.1};
Point(p13 + 15) = {6.028221188652137, -0.3433491886521363, 0.1};
Point(p13 + 16) = {5.902626838098326, -0.4904012795042513, 0.1};
Point(p13 + 17) = {5.801582777577208, -0.6552902001399828, 0.1};
Point(p13 + 18) = {5.72757704720482, -0.8339558380983259, 0.1};
Point(p13 + 19) = {5.682431913673871, -1.021998852415489, 0.1};
Point(p13 + 20) = {5.667259, -1.214789, 0.1};
Point(p13 + 21) = {5.682431913673871, -1.40757914758451, 0.1};
Point(p13 + 22) = {5.727577047204821, -1.595622161901674, 0.1};
Point(p13 + 23) = {5.801582777577207, -1.774287799860016, 0.1};
Point(p13 + 24) = {5.902626838098326, -1.939176720495748, 0.1};
Point(p13 + 25) = {6.028221188652136, -2.086228811347863, 0.1};
Point(p13 + 26) = {6.175273279504252, -2.211823161901674, 0.1};
Point(p13 + 27) = {6.340162200139983, -2.312867222422793, 0.1};
Point(p13 + 28) = {6.518827838098326, -2.38687295279518, 0.1};
Point(p13 + 29) = {6.70687085241549, -2.432018086326129, 0.1};
Point(p13 + 30) = {6.899661, -2.447191, 0.1};
Point(p13 + 31) = {7.09245114758451, -2.432018086326129, 0.1};
Point(p13 + 32) = {7.280494161901673, -2.38687295279518, 0.1};
Point(p13 + 33) = {7.459159799860017, -2.312867222422793, 0.1};
Point(p13 + 34) = {7.624048720495749, -2.211823161901674, 0.1};
Point(p13 + 35) = {7.771100811347863, -2.086228811347864, 0.1};
Point(p13 + 36) = {7.896695161901674, -1.939176720495749, 0.1};
Point(p13 + 37) = {7.997739222422792, -1.774287799860017, 0.1};
Point(p13 + 38) = {8.07174495279518, -1.595622161901674, 0.1};
Point(p13 + 39) = {8.116890086326128, -1.407579147584511, 0.1};
Spline(13) = {9, p13 + 1, p13 + 2, p13 + 3, p13 + 4, p13 + 5, p13 + 6, p13 + 7, p13 + 8, p13 + 9, p13 + 10, p13 + 11, p13 + 12, p13 + 13, p13 + 14, p13 + 15, p13 + 16, p13 + 17, p13 + 18, p13 + 19, p13 + 20, p13 + 21, p13 + 22, p13 + 23, p13 + 24, p13 + 25, p13 + 26, p13 + 27, p13 + 28, p13 + 29, p13 + 30, p13 + 31, p13 + 32, p13 + 33, p13 + 34, p13 + 35, p13 + 36, p13 + 37, p13 + 38, p13 + 39, 9};
Line(14) = {10, 9};
p15 = newp;
Point(p15 + 1) = {8.11689008632613, -1.021998852415489, 0};
Point(p15 + 2) = {8.07174495279518, -0.833955838098326, 0};
Point(p15 + 3) = {7.997739222422793, -0.655290200139983, 0};
Point(p15 + 4) = {7.896695161901674, -0.4904012795042514, 0};
Point(p15 + 5) = {7.771100811347864, -0.3433491886521365, 0};
Point(p15 + 6) = {7.624048720495749, -0.2177548380983261, 0};
Point(p15 + 7) = {7.459159799860017, -0.1167107775772072, 0};
Point(p15 + 8) = {7.280494161901674, -0.04270504720482005, 0};
Point(p15 + 9) = {7.09245114758451, 0.002440086326129132, 0};
Point(p15 + 10) = {6.899661, 0.0176130000000001, 0};
Point(p15 + 11) = {6.70687085241549, 0.00244008632612891, 0};
Point(p15 + 12) = {6.518827838098326, -0.04270504720482005, 0};
Point(p15 + 13) = {6.340162200139983, -0.1167107775772069, 0};
Point(p15 + 14) = {6.175273279504252, -0.217754838098326, 0};
Point(p15 + 15) = {6.028221188652137, -0.3433491886521363, 0};
Point(p15 + 16) = {5.902626838098326, -0.4904012795042513, 0};
Point(p15 + 17) = {5.801582777577208, -0.6552902001399828, 0};
Point(p15 + 18) = {5.72757704720482, -0.8339558380983259, 0};
Point(p15 + 19) = {5.682431913673871, -1.021998852415489, 0};
Point(p15 + 20) = {5.667259, -1.214789, 0};
Point(p15 + 21) = {5.682431913673871, -1.40757914758451, 0};
Point(p15 + 22) = {5.727577047204821, -1.595622161901674, 0};
Point(p15 + 23) = {5.801582777577207, -1.774287799860016, 0};
Point(p15 + 24) = {5.902626838098326, -1.939176720495748, 0};
Point(p15 + 25) = {6.028221188652136, -2.086228811347863, 0};
Point(p15 + 26) = {6.175273279504252, -2.211823161901674, 0};
Point(p15 + 27) = {6.340162200139983, -2.312867222422793, 0};
Point(p15 + 28) = {6.518827838098326, -2.38687295279518, 0};
Point(p15 + 29) = {6.70687085241549, -2.432018086326129, 0};
Point(p15 + 30) = {6.899661, -2.447191, 0};
Point(p15 + 31) = {7.09245114758451, -2.432018086326129, 0};
Point(p15 + 32) = {7.280494161901673, -2.38687295279518, 0};
Point(p15 + 33) = {7.459159799860017, -2.312867222422793, 0};
Point(p15 + 34) = {7.624048720495749, -2.211823161901674, 0};
Point(p15 + 35) = {7.771100811347863, -2.086228811347864, 0};
Point(p15 + 36) = {7.896695161901674, -1.939176720495749, 0};
Point(p15 + 37) = {7.997739222422792, -1.774287799860017, 0};
Point(p15 + 38) = {8.07174495279518, -1.595622161901674, 0};
Point(p15 + 39) = {8.116890086326128, -1.407579147584511, 0};
Spline(15) = {10, p15 + 1, p15 + 2, p15 + 3, p15 + 4, p15 + 5, p15 + 6, p15 + 7, p15 + 8, p15 + 9, p15 + 10, p15 + 11, p15 + 12, p15 + 13, p15 + 14, p15 + 15, p15 + 16, p15 + 17, p15 + 18, p15 + 19, p15 + 20, p15 + 21, p15 + 22, p15 + 23, p15 + 24, p15 + 25, p15 + 26, p15 + 27, p15 + 28, p15 + 29, p15 + 30, p15 + 31, p15 + 32, p15 + 33, p15 + 34, p15 + 35, p15 + 36, p15 + 37, p15 + 38, p15 + 39, 10};
p16 = newp;
Point(p16 + 1) = {11.78756740007847, -1.75151064171557, 0.1};
Point(p16 + 2) = {11.75580346901424, -1.619204346956556, 0.1};
Point(p16 + 3) = {11.70373334020855, -1.493495935799342, 0.1};
Point(p16 + 4) = {11.63263915304344, -1.377480766528917, 0.1};
Point(p16 + 5) = {11.54427148235501, -1.274015517644989, 0.1};
Point(p16 + 6) = {11.44080623347108, -1.185647846956556, 0.1};
Point(p16 + 7) = {11.32479106420066, -1.114553659791452, 0.1};
Point(p16 + 8) = {11.19908265304344, -1.062483530985761, 0.1};
Point(p16 + 9) = {11.06677635828443, -1.030719599921528, 0.1};
Point(p16 + 10) = {10.93113, -1.020044, 0.1};
Point(p16 + 11) = {10.79548364171557, -1.030719599921528, 0.1};
Point(p16 + 12) = {10.66317734695656, -1.062483530985761, 0.1};
Point(p16 + 13) = {10.53746893579934, -1.114553659791452, 0.1};
Point(p16 + 14) = {10.42145376652892, -1.185647846956556, 0.1};
Point(p16 + 15) = {10.31798851764499, -1.274015517644989, 0.1};
Point(p16 + 16) = {10.22962084695656, -1.377480766528917, 0.1};
Point(p16 + 17) = {10.15852665979145, -1.493495935799342, 0.1};
Point(p16 + 18) = {10.10645653098576, -1.619204346956556, 0.1};
Point(p16 + 19) = {10.07469259992153, -1.75151064171557, 0.1};
Point(p16 + 20) = {10.064017, -1.887157, 0.1};
Point(p16 + 21) = {10.07469259992153, -2.022803358284429, 0.1};
Point(p16 + 22) = {10.10645653098576, -2.155109653043444, 0.1};
Point(p16 + 23) = {10.15852665979145, -2.280818064200657, 0.1};
Point(p16 + 24) = {10.22962084695656, -2.396833233471083, 0.1};
Point(p16 + 25) = {10.31798851764499, -2.500298482355011, 0.1};
Point(p16 + 26) = {10.42145376652892, -2.588666153043444, 0.1};
Point(p16 + 27) = {10.53746893579934, -2.659760340208548, 0.1};
Point(p16 + 28) = {10.66317734695656, -2.711830469014239, 0.1};
Point(p16 + 29) = {10.79548364171557, -2.743594400078472, 0.1};
Point(p16 + 30) = {10.93113, -2.75427, 0.1};
Point(p16 + 31) = {11.06677635828443, -2.743594400078472, 0.1};
Point(p16 + 32) = {11.19908265304344, -2.711830469014239, 0.1};
Point(p16 + 33) = {11.32479106420066, -2.659760340208548, 0.1};
Point(p16 + 34) = {11.44080623347108, -2.588666153043444, 0.1};
Point(p16 + 35) = {11.54427148235501, -2.500298482355011, 0.1};
Point(p16 + 36) = {11.63263915304344, -2.396833233471083, 0.1};
Point(p16 + 37) = {11.70373334020855, -2.280818064200658, 0.1};
Point(p16 + 38) = {11.75580346901424, -2.155109653043444, 0.1};
Point(p16 + 39) = {11.78756740007847, -2.02280335828443, 0.1};
Spline(16) = {11, p16 + 1, p16 + 2, p16 + 3, p16 + 4, p16 + 5, p16 + 6, p16 + 7, p16 + 8, p16 + 9, p16 + 10, p16 + 11, p16 + 12, p16 + 13, p16 + 14, p16 + 15, p16 + 16, p16 + 17, p16 + 18, p16 + 19, p16 + 20, p16 + 21, p16 + 22, p16 + 23, p16 + 24, p16 + 25, p16 + 26, p16 + 27, p16 + 28, p16 + 29, p16 + 30, p16 + 31, p16 + 32, p16 + 33, p16 + 34, p16 + 35, p16 + 36, p16 + 37, p16 + 38, p16 + 39, 11};
Line(17) = {12, 11};
p18 = newp;
Point(p18 + 1) = {11.78756740007847, -1.75151064171557, 0};
Point(p18 + 2) = {11.75580346901424, -1.619204346956556, 0};
Point(p18 + 3) = {11.70373334020855, -1.493495935799342, 0};
Point(p18 + 4) = {11.63263915304344, -1.377480766528917, 0};
Point(p18 + 5) = {11.54427148235501, -1.274015517644989, 0};
Point(p18 + 6) = {11.44080623347108, -1.185647846956556, 0};
Point(p18 + 7) = {11.32479106420066, -1.114553659791452, 0};
Point(p18 + 8) = {11.19908265304344, -1.062483530985761, 0};
Point(p18 + 9) = {11.06677635828443, -1.030719599921528, 0};
Point(p18 + 10) = {10.93113, -1.020044, 0};
Point(p18 + 11) = {10.79548364171557, -1.030719599921528, 0};
Point(p18 + 12) = {10.66317734695656, -1.062483530985761, 0};
Point(p18 + 13) = {10.53746893579934, -1.114553659791452, 0};
Point(p18 + 14) = {10.42145376652892, -1.185647846956556, 0};
Point(p18 + 15) = {10.31798851764499, -1.274015517644989, 0};
Point(p18 + 16) = {10.22962084695656, -1.377480766528917, 0};
Point(p18 + 17) = {10.15852665979145, -1.493495935799342, 0};
Point(p18 + 18) = {10.10645653098576, -1.619204346956556, 0};
Point(p18 + 19) = {10.07469259992153, -1.75151064171557, 0};
Point(p18 + 20) = {10.064017, -1.887157, 0};
Point(p18 + 21) = {10.07469259992153, -2.022803358284429, 0};
Point(p18 + 22) = {10.10645653098576, -2.155109653043444, 0};
Point(p18 + 23) = {10.15852665979145, -2.280818064200657, 0};
Point(p18 + 24) = {10.22962084695656, -2.396833233471083, 0};
Point(p18 + 25) = {10.31798851764499, -2.500298482355011, 0};
Point(p18 + 26) = {10.42145376652892, -2.588666153043444, 0};
Point(p18 + 27) = {10.53746893579934, -2.659760340208548, 0};
Point(p18 + 28) = {10.66317734695656, -2.711830469014239, 0};
Point(p18 + 29) = {10.79548364171557, -2.743594400078472, 0};
Point(p18 + 30) = {10.93113, -2.75427, 0};
Point(p18 + 31) = {11.06677635828443, -2.743594400078472, 0};
Point(p18 + 32) = {11.19908265304344, -2.711830469014239, 0};
Point(p18 + 33) = {11.32479106420066, -2.659760340208548, 0};
Point(p18 + 34) = {11.44080623347108, -2.588666153043444, 0};
Point(p18 + 35) = {11.54427148235501, -2.500298482355011, 0};
Point(p18 + 36) = {11.63263915304344, -2.396833233471083, 0};
Point(p18 + 37) = {11.70373334020855, -2.280818064200658, 0};
Point(p18 + 38) = {11.75580346901424, -2.155109653043444, 0};
Point(p18 + 39) = {11.78756740007847, -2.02280335828443, 0};
Spline(18) = {12, p18 + 1, p18 + 2, p18 + 3, p18 + 4, p18 + 5, p18 + 6, p18 + 7, p18 + 8, p18 + 9, p18 + 10, p18 + 11, p18 + 12, p18 + 13, p18 + 14, p18 + 15, p18 + 16, p18 + 17, p18 + 18, p18 + 19, p18 + 20, p18 + 21, p18 + 22, p18 + 23, p18 + 24, p18 + 25, p18 + 26, p18 + 27, p18 + 28, p18 + 29, p18 + 30, p18 + 31, p18 + 32, p18 + 33, p18 + 34, p18 + 35, p18 + 36, p18 + 37, p18 + 38, p18 + 39, 12};
Line(19) = {14, 13};
Line(20) = {13, 15};
Line(21) = {16, 15};
Line(22) = {14, 16};
Line(23) = {14, 17};
Line(24) = {17, 18};
Line(25) = {13, 18};
Line(26) = {15, 19};
Line(27) = {18, 19};
Line(28) = {16, 20};
Line(29) = {20, 19};
Line(30) = {17, 20};
Curve Loop(7) = {-13, -14, 15, 14};
Surface(7) = {7};
Curve Loop(8) = {13};
Plane Surface(8) = {8};
Curve Loop(9) = {15};
Plane Surface(9) = {9};
Curve Loop(10) = {-16, -17, 18, 17};
Surface(10) = {10};
Curve Loop(11) = {16};
Plane Surface(11) = {11};
Curve Loop(12) = {18};
Plane Surface(12) = {12};
Curve Loop(13) = {-19, 22, 21, -20};
Plane Surface(13) = {13};
Curve Loop(14) = {-23, 19, 25, -24};
Plane Surface(14) = {14};
Curve Loop(15) = {-20, 25, 27, -26};
Plane Surface(15) = {15};
Curve Loop(16) = {-28, 21, 26, -29};
Plane Surface(16) = {16};
Curve Loop(17) = {-22, 23, 30, -28, -18, -15};
Plane Surface(17) = {17};
Curve Loop(18) = {-24, 30, 29, -27};
Plane Surface(18) = {18};
Surface Loop(1) = {13, 14, 15, 16, 17, 18, 10, 7, 11, 8};
Volume(1) = {1};
Surface Loop(2) = {7, 8, 9};
Volume(2) = {2};
Surface Loop(3) = {10, 11, 12};
Volume(3) = {3};
Physical Surface("WALLS") = {13, 18};
Physical Surface("LOAD") = {8, 11};
Physical Surface("BORDER") = {7, 9, 10, 12, 14, 15, 16, 17};
Physical Volume("SOLID") = {1, 2, 3};
