cl__1 = 0.077668;
cl__2 = 0.105168;
cl__3 = 0.225584;
cl__4 = 0.317092;
cl__5 = 5.324356;
cl__6 = 5.010251;
Point(9) = {4.131026, -0.6236190000000003, 0.1, cl__1};
Point(10) = {4.131026, -0.6236190000000003, 0, cl__1};
Point(11) = {10.571758, 1.968435, 0.1, cl__2};
Point(12) = {10.571758, 1.968435, 0, cl__2};
Point(13) = {0.717612, -3.876383, 1, cl__3};
Point(14) = {0.717612, -3.876383, 0, cl__3};
Point(15) = {0.717612, 4.283576999999999, 1, cl__4};
Point(16) = {0.717612, 4.283576999999999, 0, cl__4};
Point(17) = {36.342379, -3.876383, 0, cl__5};
Point(18) = {36.342379, -3.876383, 1, cl__5};
Point(19) = {36.342379, 4.283576999999999, 1, cl__6};
Point(20) = {36.342379, 4.283576999999999, 0, cl__6};
p13 = newp;
Point(p13 + 1) = {4.121463780373432, -0.5021194796925535, 0.1};
Point(p13 + 2) = {4.09301257507612, -0.3836116808088659, 0.1};
Point(p13 + 3) = {4.046372947206621, -0.2710136586622888, 0.1};
Point(p13 + 4) = {3.982693319191134, -0.167097950249482, 0.1};
Point(p13 + 5) = {3.903541694811968, -0.07442330518803231, 0.1};
Point(p13 + 6) = {3.810867049750518, 0.004728319191134145, 0.1};
Point(p13 + 7) = {3.706951341337711, 0.06840794720662147, 0.1};
Point(p13 + 8) = {3.594353319191134, 0.1150475750761198, 0.1};
Point(p13 + 9) = {3.475845520307447, 0.1434987803734316, 0.1};
Point(p13 + 10) = {3.354346, 0.153061, 0.1};
Point(p13 + 11) = {3.232846479692554, 0.1434987803734316, 0.1};
Point(p13 + 12) = {3.114338680808866, 0.11504757507612, 0.1};
Point(p13 + 13) = {3.001740658662289, 0.06840794720662158, 0.1};
Point(p13 + 14) = {2.897824950249482, 0.004728319191134145, 0.1};
Point(p13 + 15) = {2.805150305188032, -0.0744233051880322, 0.1};
Point(p13 + 16) = {2.725998680808866, -0.1670979502494819, 0.1};
Point(p13 + 17) = {2.662319052793379, -0.2710136586622888, 0.1};
Point(p13 + 18) = {2.61567942492388, -0.3836116808088658, 0.1};
Point(p13 + 19) = {2.587228219626569, -0.5021194796925534, 0.1};
Point(p13 + 20) = {2.577666, -0.6236189999999999, 0.1};
Point(p13 + 21) = {2.587228219626569, -0.7451185203074464, 0.1};
Point(p13 + 22) = {2.61567942492388, -0.8636263191911344, 0.1};
Point(p13 + 23) = {2.662319052793378, -0.9762243413377109, 0.1};
Point(p13 + 24) = {2.725998680808866, -1.080140049750518, 0.1};
Point(p13 + 25) = {2.805150305188032, -1.172814694811968, 0.1};
Point(p13 + 26) = {2.897824950249482, -1.251966319191134, 0.1};
Point(p13 + 27) = {3.001740658662289, -1.315645947206622, 0.1};
Point(p13 + 28) = {3.114338680808866, -1.36228557507612, 0.1};
Point(p13 + 29) = {3.232846479692554, -1.390736780373432, 0.1};
Point(p13 + 30) = {3.354346, -1.400299, 0.1};
Point(p13 + 31) = {3.475845520307447, -1.390736780373432, 0.1};
Point(p13 + 32) = {3.594353319191134, -1.36228557507612, 0.1};
Point(p13 + 33) = {3.706951341337711, -1.315645947206622, 0.1};
Point(p13 + 34) = {3.810867049750518, -1.251966319191134, 0.1};
Point(p13 + 35) = {3.903541694811968, -1.172814694811968, 0.1};
Point(p13 + 36) = {3.982693319191134, -1.080140049750518, 0.1};
Point(p13 + 37) = {4.046372947206621, -0.9762243413377114, 0.1};
Point(p13 + 38) = {4.09301257507612, -0.8636263191911344, 0.1};
Point(p13 + 39) = {4.121463780373432, -0.7451185203074467, 0.1};
Spline(13) = {9, p13 + 1, p13 + 2, p13 + 3, p13 + 4, p13 + 5, p13 + 6, p13 + 7, p13 + 8, p13 + 9, p13 + 10, p13 + 11, p13 + 12, p13 + 13, p13 + 14, p13 + 15, p13 + 16, p13 + 17, p13 + 18, p13 + 19, p13 + 20, p13 + 21, p13 + 22, p13 + 23, p13 + 24, p13 + 25, p13 + 26, p13 + 27, p13 + 28, p13 + 29, p13 + 30, p13 + 31, p13 + 32, p13 + 33, p13 + 34, p13 + 35, p13 + 36, p13 + 37, p13 + 38, p13 + 39, 9};
Line(14) = {10, 9};
p15 = newp;
Point(p15 + 1) = {4.121463780373432, -0.5021194796925535, 0};
Point(p15 + 2) = {4.09301257507612, -0.3836116808088659, 0};
Point(p15 + 3) = {4.046372947206621, -0.2710136586622888, 0};
Point(p15 + 4) = {3.982693319191134, -0.167097950249482, 0};
Point(p15 + 5) = {3.903541694811968, -0.07442330518803231, 0};
Point(p15 + 6) = {3.810867049750518, 0.004728319191134145, 0};
Point(p15 + 7) = {3.706951341337711, 0.06840794720662147, 0};
Point(p15 + 8) = {3.594353319191134, 0.1150475750761198, 0};
Point(p15 + 9) = {3.475845520307447, 0.1434987803734316, 0};
Point(p15 + 10) = {3.354346, 0.153061, 0};
Point(p15 + 11) = {3.232846479692554, 0.1434987803734316, 0};
Point(p15 + 12) = {3.114338680808866, 0.11504757507612, 0};
Point(p15 + 13) = {3.001740658662289, 0.06840794720662158, 0};
Point(p15 + 14) = {2.897824950249482, 0.004728319191134145, 0};
Point(p15 + 15) = {2.805150305188032, -0.0744233051880322, 0};
Point(p15 + 16) = {2.725998680808866, -0.1670979502494819, 0};
Point(p15 + 17) = {2.662319052793379, -0.2710136586622888, 0};
Point(p15 + 18) = {2.61567942492388, -0.3836116808088658, 0};
Point(p15 + 19) = {2.587228219626569, -0.5021194796925534, 0};
Point(p15 + 20) = {2.577666, -0.6236189999999999, 0};
Point(p15 + 21) = {2.587228219626569, -0.7451185203074464, 0};
Point(p15 + 22) = {2.61567942492388, -0.8636263191911344, 0};
Point(p15 + 23) = {2.662319052793378, -0.9762243413377109, 0};
Point(p15 + 24) = {2.725998680808866, -1.080140049750518, 0};
Point(p15 + 25) = {2.805150305188032, -1.172814694811968, 0};
Point(p15 + 26) = {2.897824950249482, -1.251966319191134, 0};
Point(p15 + 27) = {3.001740658662289, -1.315645947206622, 0};
Point(p15 + 28) = {3.114338680808866, -1.36228557507612, 0};
Point(p15 + 29) = {3.232846479692554, -1.390736780373432, 0};
Point(p15 + 30) = {3.354346, -1.400299, 0};
Point(p15 + 31) = {3.475845520307447, -1.390736780373432, 0};
Point(p15 + 32) = {3.594353319191134, -1.36228557507612, 0};
Point(p15 + 33) = {3.706951341337711, -1.315645947206622, 0};
Point(p15 + 34) = {3.810867049750518, -1.251966319191134, 0};
Point(p15 + 35) = {3.903541694811968, -1.172814694811968, 0};
Point(p15 + 36) = {3.982693319191134, -1.080140049750518, 0};
Point(p15 + 37) = {4.046372947206621, -0.9762243413377114, 0};
Point(p15 + 38) = {4.09301257507612, -0.8636263191911344, 0};
Point(p15 + 39) = {4.121463780373432, -0.7451185203074467, 0};
Spline(15) = {10, p15 + 1, p15 + 2, p15 + 3, p15 + 4, p15 + 5, p15 + 6, p15 + 7, p15 + 8, p15 + 9, p15 + 10, p15 + 11, p15 + 12, p15 + 13, p15 + 14, p15 + 15, p15 + 16, p15 + 17, p15 + 18, p15 + 19, p15 + 20, p15 + 21, p15 + 22, p15 + 23, p15 + 24, p15 + 25, p15 + 26, p15 + 27, p15 + 28, p15 + 29, p15 + 30, p15 + 31, p15 + 32, p15 + 33, p15 + 34, p15 + 35, p15 + 36, p15 + 37, p15 + 38, p15 + 39, 10};
p16 = newp;
Point(p16 + 1) = {10.55881007403709, 2.13295399819351, 0.1};
Point(p16 + 2) = {10.52028511705729, 2.293421992644245, 0.1};
Point(p16 + 3) = {10.45713174135842, 2.445887728766087, 0.1};
Point(p16 + 4) = {10.37090499264425, 2.586596994130948, 0.1};
Point(p16 + 5) = {10.26372805963827, 2.712085059638268, 0.1};
Point(p16 + 6) = {10.13823999413095, 2.819261992644245, 0.1};
Point(p16 + 7) = {9.997530728766087, 2.905488741358423, 0.1};
Point(p16 + 8) = {9.845064992644245, 2.968642117057287, 0.1};
Point(p16 + 9) = {9.684596998193509, 3.007167074037095, 0.1};
Point(p16 + 10) = {9.520078, 3.020115, 0.1};
Point(p16 + 11) = {9.35555900180649, 3.007167074037094, 0.1};
Point(p16 + 12) = {9.195091007355755, 2.968642117057287, 0.1};
Point(p16 + 13) = {9.042625271233913, 2.905488741358423, 0.1};
Point(p16 + 14) = {8.901916005869051, 2.819261992644245, 0.1};
Point(p16 + 15) = {8.776427940361732, 2.712085059638268, 0.1};
Point(p16 + 16) = {8.669251007355756, 2.586596994130948, 0.1};
Point(p16 + 17) = {8.583024258641577, 2.445887728766087, 0.1};
Point(p16 + 18) = {8.519870882942712, 2.293421992644245, 0.1};
Point(p16 + 19) = {8.481345925962906, 2.13295399819351, 0.1};
Point(p16 + 20) = {8.468398000000001, 1.968435, 0.1};
Point(p16 + 21) = {8.481345925962906, 1.80391600180649, 0.1};
Point(p16 + 22) = {8.519870882942714, 1.643448007355755, 0.1};
Point(p16 + 23) = {8.583024258641577, 1.490982271233914, 0.1};
Point(p16 + 24) = {8.669251007355754, 1.350273005869052, 0.1};
Point(p16 + 25) = {8.776427940361732, 1.224784940361732, 0.1};
Point(p16 + 26) = {8.901916005869051, 1.117608007355755, 0.1};
Point(p16 + 27) = {9.042625271233913, 1.031381258641577, 0.1};
Point(p16 + 28) = {9.195091007355755, 0.9682278829427129, 0.1};
Point(p16 + 29) = {9.35555900180649, 0.9297029259629057, 0.1};
Point(p16 + 30) = {9.520078, 0.916755, 0.1};
Point(p16 + 31) = {9.684596998193509, 0.9297029259629055, 0.1};
Point(p16 + 32) = {9.845064992644245, 0.9682278829427129, 0.1};
Point(p16 + 33) = {9.997530728766087, 1.031381258641577, 0.1};
Point(p16 + 34) = {10.13823999413095, 1.117608007355755, 0.1};
Point(p16 + 35) = {10.26372805963827, 1.224784940361731, 0.1};
Point(p16 + 36) = {10.37090499264424, 1.350273005869052, 0.1};
Point(p16 + 37) = {10.45713174135842, 1.490982271233913, 0.1};
Point(p16 + 38) = {10.52028511705729, 1.643448007355755, 0.1};
Point(p16 + 39) = {10.55881007403709, 1.80391600180649, 0.1};
Spline(16) = {11, p16 + 1, p16 + 2, p16 + 3, p16 + 4, p16 + 5, p16 + 6, p16 + 7, p16 + 8, p16 + 9, p16 + 10, p16 + 11, p16 + 12, p16 + 13, p16 + 14, p16 + 15, p16 + 16, p16 + 17, p16 + 18, p16 + 19, p16 + 20, p16 + 21, p16 + 22, p16 + 23, p16 + 24, p16 + 25, p16 + 26, p16 + 27, p16 + 28, p16 + 29, p16 + 30, p16 + 31, p16 + 32, p16 + 33, p16 + 34, p16 + 35, p16 + 36, p16 + 37, p16 + 38, p16 + 39, 11};
Line(17) = {12, 11};
p18 = newp;
Point(p18 + 1) = {10.55881007403709, 2.13295399819351, 0};
Point(p18 + 2) = {10.52028511705729, 2.293421992644245, 0};
Point(p18 + 3) = {10.45713174135842, 2.445887728766087, 0};
Point(p18 + 4) = {10.37090499264425, 2.586596994130948, 0};
Point(p18 + 5) = {10.26372805963827, 2.712085059638268, 0};
Point(p18 + 6) = {10.13823999413095, 2.819261992644245, 0};
Point(p18 + 7) = {9.997530728766087, 2.905488741358423, 0};
Point(p18 + 8) = {9.845064992644245, 2.968642117057287, 0};
Point(p18 + 9) = {9.684596998193509, 3.007167074037095, 0};
Point(p18 + 10) = {9.520078, 3.020115, 0};
Point(p18 + 11) = {9.35555900180649, 3.007167074037094, 0};
Point(p18 + 12) = {9.195091007355755, 2.968642117057287, 0};
Point(p18 + 13) = {9.042625271233913, 2.905488741358423, 0};
Point(p18 + 14) = {8.901916005869051, 2.819261992644245, 0};
Point(p18 + 15) = {8.776427940361732, 2.712085059638268, 0};
Point(p18 + 16) = {8.669251007355756, 2.586596994130948, 0};
Point(p18 + 17) = {8.583024258641577, 2.445887728766087, 0};
Point(p18 + 18) = {8.519870882942712, 2.293421992644245, 0};
Point(p18 + 19) = {8.481345925962906, 2.13295399819351, 0};
Point(p18 + 20) = {8.468398000000001, 1.968435, 0};
Point(p18 + 21) = {8.481345925962906, 1.80391600180649, 0};
Point(p18 + 22) = {8.519870882942714, 1.643448007355755, 0};
Point(p18 + 23) = {8.583024258641577, 1.490982271233914, 0};
Point(p18 + 24) = {8.669251007355754, 1.350273005869052, 0};
Point(p18 + 25) = {8.776427940361732, 1.224784940361732, 0};
Point(p18 + 26) = {8.901916005869051, 1.117608007355755, 0};
Point(p18 + 27) = {9.042625271233913, 1.031381258641577, 0};
Point(p18 + 28) = {9.195091007355755, 0.9682278829427129, 0};
Point(p18 + 29) = {9.35555900180649, 0.9297029259629057, 0};
Point(p18 + 30) = {9.520078, 0.916755, 0};
Point(p18 + 31) = {9.684596998193509, 0.9297029259629055, 0};
Point(p18 + 32) = {9.845064992644245, 0.9682278829427129, 0};
Point(p18 + 33) = {9.997530728766087, 1.031381258641577, 0};
Point(p18 + 34) = {10.13823999413095, 1.117608007355755, 0};
Point(p18 + 35) = {10.26372805963827, 1.224784940361731, 0};
Point(p18 + 36) = {10.37090499264424, 1.350273005869052, 0};
Point(p18 + 37) = {10.45713174135842, 1.490982271233913, 0};
Point(p18 + 38) = {10.52028511705729, 1.643448007355755, 0};
Point(p18 + 39) = {10.55881007403709, 1.80391600180649, 0};
Spline(18) = {12, p18 + 1, p18 + 2, p18 + 3, p18 + 4, p18 + 5, p18 + 6, p18 + 7, p18 + 8, p18 + 9, p18 + 10, p18 + 11, p18 + 12, p18 + 13, p18 + 14, p18 + 15, p18 + 16, p18 + 17, p18 + 18, p18 + 19, p18 + 20, p18 + 21, p18 + 22, p18 + 23, p18 + 24, p18 + 25, p18 + 26, p18 + 27, p18 + 28, p18 + 29, p18 + 30, p18 + 31, p18 + 32, p18 + 33, p18 + 34, p18 + 35, p18 + 36, p18 + 37, p18 + 38, p18 + 39, 12};
Line(19) = {14, 13};
Line(20) = {13, 15};
Line(21) = {16, 15};
Line(22) = {14, 16};
Line(23) = {14, 17};
Line(24) = {17, 18};
Line(25) = {13, 18};
Line(26) = {15, 19};
Line(27) = {18, 19};
Line(28) = {16, 20};
Line(29) = {20, 19};
Line(30) = {17, 20};
Curve Loop(7) = {-13, -14, 15, 14};
Surface(7) = {7};
Curve Loop(8) = {13};
Plane Surface(8) = {8};
Curve Loop(9) = {15};
Plane Surface(9) = {9};
Curve Loop(10) = {-16, -17, 18, 17};
Surface(10) = {10};
Curve Loop(11) = {16};
Plane Surface(11) = {11};
Curve Loop(12) = {18};
Plane Surface(12) = {12};
Curve Loop(13) = {-19, 22, 21, -20};
Plane Surface(13) = {13};
Curve Loop(14) = {-23, 19, 25, -24};
Plane Surface(14) = {14};
Curve Loop(15) = {-20, 25, 27, -26};
Plane Surface(15) = {15};
Curve Loop(16) = {-28, 21, 26, -29};
Plane Surface(16) = {16};
Curve Loop(17) = {-22, 23, 30, -28, -15, -18};
Plane Surface(17) = {17};
Curve Loop(18) = {-24, 30, 29, -27};
Plane Surface(18) = {18};
Surface Loop(1) = {13, 14, 15, 16, 17, 18, 7, 10, 8, 11};
Volume(1) = {1};
Surface Loop(2) = {7, 8, 9};
Volume(2) = {2};
Surface Loop(3) = {10, 11, 12};
Volume(3) = {3};
Physical Surface("WALLS") = {13, 18};
Physical Surface("LOAD") = {8, 11};
Physical Surface("BORDER") = {7, 9, 10, 12, 14, 15, 16, 17};
Physical Volume("SOLID") = {1, 2, 3};
