cl__1 = 0.085953;
cl__2 = 0.113818;
cl__3 = 4.40309;
cl__4 = 3.962686;
cl__5 = 0.344632;
cl__6 = 0.433892;
Point(9) = {19.774222, 2.471712999999999, 0.1, cl__1};
Point(10) = {19.774222, 2.471712999999999, 0, cl__1};
Point(11) = {32.294779, 0.3137749999999997, 0.1, cl__2};
Point(12) = {32.294779, 0.3137749999999997, 0, cl__2};
Point(13) = {0.073965, -3.260306, 0.1, cl__3};
Point(14) = {0.073965, -3.260306, 0, cl__3};
Point(15) = {0.073965, 5.241707, 0.1, cl__4};
Point(16) = {0.073965, 5.241707, 0, cl__4};
Point(17) = {34.792347, -3.260306, 0, cl__5};
Point(18) = {34.792347, -3.260306, 0.1, cl__5};
Point(19) = {34.792347, 5.241707, 0.1, cl__6};
Point(20) = {34.792347, 5.241707, 0, cl__6};
p13 = newp;
Point(p13 + 1) = {19.7636397717034, 2.606172959301564, 0.1};
Point(p13 + 2) = {19.73215365639466, 2.737322068158104, 0.1};
Point(p13 + 3) = {19.6805389467291, 2.861931000250633, 0.1};
Point(p13 + 4) = {19.6100665681581, 2.976931470117697, 0.1};
Point(p13 + 5) = {19.52247178452649, 3.079491784526492, 0.1};
Point(p13 + 6) = {19.4199114701177, 3.167086568158104, 0.1};
Point(p13 + 7) = {19.30491100025063, 3.237558946729103, 0.1};
Point(p13 + 8) = {19.1803020681581, 3.289173656394657, 0.1};
Point(p13 + 9) = {19.04915295930157, 3.320659771703398, 0.1};
Point(p13 + 10) = {18.914693, 3.331242, 0.1};
Point(p13 + 11) = {18.78023304069843, 3.320659771703398, 0.1};
Point(p13 + 12) = {18.6490839318419, 3.289173656394657, 0.1};
Point(p13 + 13) = {18.52447499974937, 3.237558946729103, 0.1};
Point(p13 + 14) = {18.4094745298823, 3.167086568158104, 0.1};
Point(p13 + 15) = {18.30691421547351, 3.079491784526492, 0.1};
Point(p13 + 16) = {18.2193194318419, 2.976931470117697, 0.1};
Point(p13 + 17) = {18.1488470532709, 2.861931000250633, 0.1};
Point(p13 + 18) = {18.09723234360534, 2.737322068158104, 0.1};
Point(p13 + 19) = {18.0657462282966, 2.606172959301564, 0.1};
Point(p13 + 20) = {18.055164, 2.471713, 0.1};
Point(p13 + 21) = {18.0657462282966, 2.337253040698435, 0.1};
Point(p13 + 22) = {18.09723234360534, 2.206103931841895, 0.1};
Point(p13 + 23) = {18.1488470532709, 2.081494999749367, 0.1};
Point(p13 + 24) = {18.2193194318419, 1.966494529882303, 0.1};
Point(p13 + 25) = {18.30691421547351, 1.863934215473508, 0.1};
Point(p13 + 26) = {18.4094745298823, 1.776339431841896, 0.1};
Point(p13 + 27) = {18.52447499974937, 1.705867053270896, 0.1};
Point(p13 + 28) = {18.6490839318419, 1.654252343605343, 0.1};
Point(p13 + 29) = {18.78023304069843, 1.622766228296602, 0.1};
Point(p13 + 30) = {18.914693, 1.612184, 0.1};
Point(p13 + 31) = {19.04915295930157, 1.622766228296602, 0.1};
Point(p13 + 32) = {19.1803020681581, 1.654252343605343, 0.1};
Point(p13 + 33) = {19.30491100025063, 1.705867053270896, 0.1};
Point(p13 + 34) = {19.4199114701177, 1.776339431841896, 0.1};
Point(p13 + 35) = {19.52247178452649, 1.863934215473508, 0.1};
Point(p13 + 36) = {19.6100665681581, 1.966494529882302, 0.1};
Point(p13 + 37) = {19.6805389467291, 2.081494999749367, 0.1};
Point(p13 + 38) = {19.73215365639466, 2.206103931841895, 0.1};
Point(p13 + 39) = {19.7636397717034, 2.337253040698435, 0.1};
Spline(13) = {9, p13 + 1, p13 + 2, p13 + 3, p13 + 4, p13 + 5, p13 + 6, p13 + 7, p13 + 8, p13 + 9, p13 + 10, p13 + 11, p13 + 12, p13 + 13, p13 + 14, p13 + 15, p13 + 16, p13 + 17, p13 + 18, p13 + 19, p13 + 20, p13 + 21, p13 + 22, p13 + 23, p13 + 24, p13 + 25, p13 + 26, p13 + 27, p13 + 28, p13 + 29, p13 + 30, p13 + 31, p13 + 32, p13 + 33, p13 + 34, p13 + 35, p13 + 36, p13 + 37, p13 + 38, p13 + 39, 9};
Line(14) = {10, 9};
p15 = newp;
Point(p15 + 1) = {19.7636397717034, 2.606172959301564, 0};
Point(p15 + 2) = {19.73215365639466, 2.737322068158104, 0};
Point(p15 + 3) = {19.6805389467291, 2.861931000250633, 0};
Point(p15 + 4) = {19.6100665681581, 2.976931470117697, 0};
Point(p15 + 5) = {19.52247178452649, 3.079491784526492, 0};
Point(p15 + 6) = {19.4199114701177, 3.167086568158104, 0};
Point(p15 + 7) = {19.30491100025063, 3.237558946729103, 0};
Point(p15 + 8) = {19.1803020681581, 3.289173656394657, 0};
Point(p15 + 9) = {19.04915295930157, 3.320659771703398, 0};
Point(p15 + 10) = {18.914693, 3.331242, 0};
Point(p15 + 11) = {18.78023304069843, 3.320659771703398, 0};
Point(p15 + 12) = {18.6490839318419, 3.289173656394657, 0};
Point(p15 + 13) = {18.52447499974937, 3.237558946729103, 0};
Point(p15 + 14) = {18.4094745298823, 3.167086568158104, 0};
Point(p15 + 15) = {18.30691421547351, 3.079491784526492, 0};
Point(p15 + 16) = {18.2193194318419, 2.976931470117697, 0};
Point(p15 + 17) = {18.1488470532709, 2.861931000250633, 0};
Point(p15 + 18) = {18.09723234360534, 2.737322068158104, 0};
Point(p15 + 19) = {18.0657462282966, 2.606172959301564, 0};
Point(p15 + 20) = {18.055164, 2.471713, 0};
Point(p15 + 21) = {18.0657462282966, 2.337253040698435, 0};
Point(p15 + 22) = {18.09723234360534, 2.206103931841895, 0};
Point(p15 + 23) = {18.1488470532709, 2.081494999749367, 0};
Point(p15 + 24) = {18.2193194318419, 1.966494529882303, 0};
Point(p15 + 25) = {18.30691421547351, 1.863934215473508, 0};
Point(p15 + 26) = {18.4094745298823, 1.776339431841896, 0};
Point(p15 + 27) = {18.52447499974937, 1.705867053270896, 0};
Point(p15 + 28) = {18.6490839318419, 1.654252343605343, 0};
Point(p15 + 29) = {18.78023304069843, 1.622766228296602, 0};
Point(p15 + 30) = {18.914693, 1.612184, 0};
Point(p15 + 31) = {19.04915295930157, 1.622766228296602, 0};
Point(p15 + 32) = {19.1803020681581, 1.654252343605343, 0};
Point(p15 + 33) = {19.30491100025063, 1.705867053270896, 0};
Point(p15 + 34) = {19.4199114701177, 1.776339431841896, 0};
Point(p15 + 35) = {19.52247178452649, 1.863934215473508, 0};
Point(p15 + 36) = {19.6100665681581, 1.966494529882302, 0};
Point(p15 + 37) = {19.6805389467291, 2.081494999749367, 0};
Point(p15 + 38) = {19.73215365639466, 2.206103931841895, 0};
Point(p15 + 39) = {19.7636397717034, 2.337253040698435, 0};
Spline(15) = {10, p15 + 1, p15 + 2, p15 + 3, p15 + 4, p15 + 5, p15 + 6, p15 + 7, p15 + 8, p15 + 9, p15 + 10, p15 + 11, p15 + 12, p15 + 13, p15 + 14, p15 + 15, p15 + 16, p15 + 17, p15 + 18, p15 + 19, p15 + 20, p15 + 21, p15 + 22, p15 + 23, p15 + 24, p15 + 25, p15 + 26, p15 + 27, p15 + 28, p15 + 29, p15 + 30, p15 + 31, p15 + 32, p15 + 33, p15 + 34, p15 + 35, p15 + 36, p15 + 37, p15 + 38, p15 + 39, 10};
p16 = newp;
Point(p16 + 1) = {32.28076611549857, 0.49182557941949, 0.1};
Point(p16 + 2) = {32.23907250571682, 0.6654919626576776, 0.1};
Point(p16 + 3) = {32.17072480570071, 0.8304979069935573, 0.1};
Point(p16 + 4) = {32.07740596265768, 0.9827804184542471, 0.1};
Point(p16 + 5) = {31.96141379621091, 1.118589796210905, 0.1};
Point(p16 + 6) = {31.82560441845425, 1.234581962657678, 0.1};
Point(p16 + 7) = {31.67332190699356, 1.327900805700716, 0.1};
Point(p16 + 8) = {31.50831596265768, 1.396248505716818, 0.1};
Point(p16 + 9) = {31.33464957941949, 1.437942115498574, 0.1};
Point(p16 + 10) = {31.156599, 1.451955, 0.1};
Point(p16 + 11) = {30.97854842058051, 1.437942115498574, 0.1};
Point(p16 + 12) = {30.80488203734232, 1.396248505716818, 0.1};
Point(p16 + 13) = {30.63987609300644, 1.327900805700716, 0.1};
Point(p16 + 14) = {30.48759358154575, 1.234581962657678, 0.1};
Point(p16 + 15) = {30.35178420378909, 1.118589796210905, 0.1};
Point(p16 + 16) = {30.23579203734232, 0.9827804184542472, 0.1};
Point(p16 + 17) = {30.14247319429928, 0.8304979069935574, 0.1};
Point(p16 + 18) = {30.07412549428318, 0.6654919626576778, 0.1};
Point(p16 + 19) = {30.03243188450143, 0.4918255794194901, 0.1};
Point(p16 + 20) = {30.018419, 0.3137750000000002, 0.1};
Point(p16 + 21) = {30.03243188450143, 0.1357244205805102, 0.1};
Point(p16 + 22) = {30.07412549428318, -0.03794196265767796, 0.1};
Point(p16 + 23) = {30.14247319429928, -0.2029479069935568, 0.1};
Point(p16 + 24) = {30.23579203734232, -0.3552304184542469, 0.1};
Point(p16 + 25) = {30.35178420378909, -0.4910397962109045, 0.1};
Point(p16 + 26) = {30.48759358154575, -0.6070319626576776, 0.1};
Point(p16 + 27) = {30.63987609300644, -0.7003508057007165, 0.1};
Point(p16 + 28) = {30.80488203734232, -0.7686985057168177, 0.1};
Point(p16 + 29) = {30.97854842058051, -0.8103921154985737, 0.1};
Point(p16 + 30) = {31.156599, -0.8244049999999999, 0.1};
Point(p16 + 31) = {31.33464957941949, -0.8103921154985739, 0.1};
Point(p16 + 32) = {31.50831596265768, -0.768698505716818, 0.1};
Point(p16 + 33) = {31.67332190699356, -0.7003508057007167, 0.1};
Point(p16 + 34) = {31.82560441845425, -0.6070319626576778, 0.1};
Point(p16 + 35) = {31.96141379621091, -0.4910397962109048, 0.1};
Point(p16 + 36) = {32.07740596265768, -0.3552304184542472, 0.1};
Point(p16 + 37) = {32.17072480570071, -0.2029479069935576, 0.1};
Point(p16 + 38) = {32.23907250571682, -0.03794196265767785, 0.1};
Point(p16 + 39) = {32.28076611549857, 0.1357244205805098, 0.1};
Spline(16) = {11, p16 + 1, p16 + 2, p16 + 3, p16 + 4, p16 + 5, p16 + 6, p16 + 7, p16 + 8, p16 + 9, p16 + 10, p16 + 11, p16 + 12, p16 + 13, p16 + 14, p16 + 15, p16 + 16, p16 + 17, p16 + 18, p16 + 19, p16 + 20, p16 + 21, p16 + 22, p16 + 23, p16 + 24, p16 + 25, p16 + 26, p16 + 27, p16 + 28, p16 + 29, p16 + 30, p16 + 31, p16 + 32, p16 + 33, p16 + 34, p16 + 35, p16 + 36, p16 + 37, p16 + 38, p16 + 39, 11};
Line(17) = {12, 11};
p18 = newp;
Point(p18 + 1) = {32.28076611549857, 0.49182557941949, 0};
Point(p18 + 2) = {32.23907250571682, 0.6654919626576776, 0};
Point(p18 + 3) = {32.17072480570071, 0.8304979069935573, 0};
Point(p18 + 4) = {32.07740596265768, 0.9827804184542471, 0};
Point(p18 + 5) = {31.96141379621091, 1.118589796210905, 0};
Point(p18 + 6) = {31.82560441845425, 1.234581962657678, 0};
Point(p18 + 7) = {31.67332190699356, 1.327900805700716, 0};
Point(p18 + 8) = {31.50831596265768, 1.396248505716818, 0};
Point(p18 + 9) = {31.33464957941949, 1.437942115498574, 0};
Point(p18 + 10) = {31.156599, 1.451955, 0};
Point(p18 + 11) = {30.97854842058051, 1.437942115498574, 0};
Point(p18 + 12) = {30.80488203734232, 1.396248505716818, 0};
Point(p18 + 13) = {30.63987609300644, 1.327900805700716, 0};
Point(p18 + 14) = {30.48759358154575, 1.234581962657678, 0};
Point(p18 + 15) = {30.35178420378909, 1.118589796210905, 0};
Point(p18 + 16) = {30.23579203734232, 0.9827804184542472, 0};
Point(p18 + 17) = {30.14247319429928, 0.8304979069935574, 0};
Point(p18 + 18) = {30.07412549428318, 0.6654919626576778, 0};
Point(p18 + 19) = {30.03243188450143, 0.4918255794194901, 0};
Point(p18 + 20) = {30.018419, 0.3137750000000002, 0};
Point(p18 + 21) = {30.03243188450143, 0.1357244205805102, 0};
Point(p18 + 22) = {30.07412549428318, -0.03794196265767796, 0};
Point(p18 + 23) = {30.14247319429928, -0.2029479069935568, 0};
Point(p18 + 24) = {30.23579203734232, -0.3552304184542469, 0};
Point(p18 + 25) = {30.35178420378909, -0.4910397962109045, 0};
Point(p18 + 26) = {30.48759358154575, -0.6070319626576776, 0};
Point(p18 + 27) = {30.63987609300644, -0.7003508057007165, 0};
Point(p18 + 28) = {30.80488203734232, -0.7686985057168177, 0};
Point(p18 + 29) = {30.97854842058051, -0.8103921154985737, 0};
Point(p18 + 30) = {31.156599, -0.8244049999999999, 0};
Point(p18 + 31) = {31.33464957941949, -0.8103921154985739, 0};
Point(p18 + 32) = {31.50831596265768, -0.768698505716818, 0};
Point(p18 + 33) = {31.67332190699356, -0.7003508057007167, 0};
Point(p18 + 34) = {31.82560441845425, -0.6070319626576778, 0};
Point(p18 + 35) = {31.96141379621091, -0.4910397962109048, 0};
Point(p18 + 36) = {32.07740596265768, -0.3552304184542472, 0};
Point(p18 + 37) = {32.17072480570071, -0.2029479069935576, 0};
Point(p18 + 38) = {32.23907250571682, -0.03794196265767785, 0};
Point(p18 + 39) = {32.28076611549857, 0.1357244205805098, 0};
Spline(18) = {12, p18 + 1, p18 + 2, p18 + 3, p18 + 4, p18 + 5, p18 + 6, p18 + 7, p18 + 8, p18 + 9, p18 + 10, p18 + 11, p18 + 12, p18 + 13, p18 + 14, p18 + 15, p18 + 16, p18 + 17, p18 + 18, p18 + 19, p18 + 20, p18 + 21, p18 + 22, p18 + 23, p18 + 24, p18 + 25, p18 + 26, p18 + 27, p18 + 28, p18 + 29, p18 + 30, p18 + 31, p18 + 32, p18 + 33, p18 + 34, p18 + 35, p18 + 36, p18 + 37, p18 + 38, p18 + 39, 12};
Line(19) = {14, 13};
Line(20) = {13, 15};
Line(21) = {16, 15};
Line(22) = {14, 16};
Line(23) = {14, 17};
Line(24) = {17, 18};
Line(25) = {13, 18};
Line(26) = {15, 19};
Line(27) = {18, 19};
Line(28) = {16, 20};
Line(29) = {20, 19};
Line(30) = {17, 20};
Curve Loop(7) = {-13, -14, 15, 14};
Surface(7) = {7};
Curve Loop(8) = {13};
Plane Surface(8) = {8};
Curve Loop(9) = {15};
Plane Surface(9) = {9};
Curve Loop(10) = {-16, -17, 18, 17};
Surface(10) = {10};
Curve Loop(11) = {16};
Plane Surface(11) = {11};
Curve Loop(12) = {18};
Plane Surface(12) = {12};
Curve Loop(13) = {-19, 22, 21, -20};
Plane Surface(13) = {13};
Curve Loop(14) = {-23, 19, 25, -24};
Plane Surface(14) = {14};
Curve Loop(15) = {-20, 25, 27, -26, -16, -13};
Plane Surface(15) = {15};
Curve Loop(16) = {-28, 21, 26, -29};
Plane Surface(16) = {16};
Curve Loop(17) = {-22, 23, 30, -28, -18, -15};
Plane Surface(17) = {17};
Curve Loop(18) = {-24, 30, 29, -27};
Plane Surface(18) = {18};
Surface Loop(1) = {13, 14, 15, 16, 17, 18, 10, 7};
Volume(1) = {1};
Surface Loop(2) = {7, 8, 9};
Volume(2) = {2};
Surface Loop(3) = {10, 11, 12};
Volume(3) = {3};
Physical Surface("WALLS") = {13, 18};
Physical Surface("LOAD") = {8, 11};
Physical Surface("BORDER") = {7, 9, 10, 12, 14, 15, 16, 17};
Physical Volume("SOLID") = {1, 2, 3};
