cl__1 = 0.094886;
cl__2 = 0.11263;
cl__3 = 1.371097;
cl__4 = 1.83698;
cl__5 = 0.831469;
cl__6 = 0.83288;
Point(9) = {11.743231, -0.6444090000000002, 0.1, cl__1};
Point(10) = {11.743231, -0.6444090000000002, 0, cl__1};
Point(11) = {32.509715, 0.7459249999999996, 0.1, cl__2};
Point(12) = {32.509715, 0.7459249999999996, 0, cl__2};
Point(13) = {0.361472, -3.271664, 1, cl__3};
Point(14) = {0.361472, -3.271664, 0, cl__3};
Point(15) = {0.361472, 4.789707, 1, cl__4};
Point(16) = {0.361472, 4.789707, 0, cl__4};
Point(17) = {38.838025, -3.271664, 0, cl__5};
Point(18) = {38.838025, -3.271664, 1, cl__5};
Point(19) = {38.838025, 4.789707, 1, cl__6};
Point(20) = {38.838025, 4.789707, 0, cl__6};
p13 = newp;
Point(p13 + 1) = {11.73154894654544, -0.4959744370674615, 0.1};
Point(p13 + 2) = {11.69679043710834, -0.3511948257003931, 0.1};
Point(p13 + 3) = {11.6398113415479, -0.213635120426634, 0.1};
Point(p13 + 4) = {11.56201467429961, -0.08668249772451164, 0.1};
Point(p13 + 5) = {11.46531604750345, 0.02653704750344854, 0.1};
Point(p13 + 6) = {11.35209650227549, 0.1232356742996069, 0.1};
Point(p13 + 7) = {11.22514387957337, 0.2010323415478988, 0.1};
Point(p13 + 8) = {11.08758417429961, 0.2580114371083356, 0.1};
Point(p13 + 9) = {10.94280456293254, 0.292769946545443, 0.1};
Point(p13 + 10) = {10.79437, 0.3044519999999999, 0.1};
Point(p13 + 11) = {10.64593543706746, 0.2927699465454429, 0.1};
Point(p13 + 12) = {10.50115582570039, 0.2580114371083357, 0.1};
Point(p13 + 13) = {10.36359612042664, 0.201032341547899, 0.1};
Point(p13 + 14) = {10.23664349772451, 0.1232356742996069, 0.1};
Point(p13 + 15) = {10.12342395249655, 0.02653704750344865, 0.1};
Point(p13 + 16) = {10.02672532570039, -0.08668249772451153, 0.1};
Point(p13 + 17) = {9.948928658452102, -0.2136351204266339, 0.1};
Point(p13 + 18) = {9.891949562891664, -0.351194825700393, 0.1};
Point(p13 + 19) = {9.857191053454558, -0.4959744370674614, 0.1};
Point(p13 + 20) = {9.845509, -0.6444089999999999, 0.1};
Point(p13 + 21) = {9.857191053454558, -0.7928435629325384, 0.1};
Point(p13 + 22) = {9.891949562891664, -0.9376231742996073, 0.1};
Point(p13 + 23) = {9.948928658452102, -1.075182879573366, 0.1};
Point(p13 + 24) = {10.02672532570039, -1.202135502275488, 0.1};
Point(p13 + 25) = {10.12342395249655, -1.315355047503449, 0.1};
Point(p13 + 26) = {10.23664349772451, -1.412053674299607, 0.1};
Point(p13 + 27) = {10.36359612042664, -1.489850341547899, 0.1};
Point(p13 + 28) = {10.50115582570039, -1.546829437108336, 0.1};
Point(p13 + 29) = {10.64593543706746, -1.581587946545443, 0.1};
Point(p13 + 30) = {10.79437, -1.59327, 0.1};
Point(p13 + 31) = {10.94280456293254, -1.581587946545443, 0.1};
Point(p13 + 32) = {11.08758417429961, -1.546829437108336, 0.1};
Point(p13 + 33) = {11.22514387957337, -1.489850341547899, 0.1};
Point(p13 + 34) = {11.35209650227549, -1.412053674299607, 0.1};
Point(p13 + 35) = {11.46531604750345, -1.315355047503449, 0.1};
Point(p13 + 36) = {11.56201467429961, -1.202135502275488, 0.1};
Point(p13 + 37) = {11.6398113415479, -1.075182879573366, 0.1};
Point(p13 + 38) = {11.69679043710834, -0.9376231742996072, 0.1};
Point(p13 + 39) = {11.73154894654544, -0.7928435629325388, 0.1};
Spline(13) = {9, p13 + 1, p13 + 2, p13 + 3, p13 + 4, p13 + 5, p13 + 6, p13 + 7, p13 + 8, p13 + 9, p13 + 10, p13 + 11, p13 + 12, p13 + 13, p13 + 14, p13 + 15, p13 + 16, p13 + 17, p13 + 18, p13 + 19, p13 + 20, p13 + 21, p13 + 22, p13 + 23, p13 + 24, p13 + 25, p13 + 26, p13 + 27, p13 + 28, p13 + 29, p13 + 30, p13 + 31, p13 + 32, p13 + 33, p13 + 34, p13 + 35, p13 + 36, p13 + 37, p13 + 38, p13 + 39, 9};
Line(14) = {10, 9};
p15 = newp;
Point(p15 + 1) = {11.73154894654544, -0.4959744370674615, 0};
Point(p15 + 2) = {11.69679043710834, -0.3511948257003931, 0};
Point(p15 + 3) = {11.6398113415479, -0.213635120426634, 0};
Point(p15 + 4) = {11.56201467429961, -0.08668249772451164, 0};
Point(p15 + 5) = {11.46531604750345, 0.02653704750344854, 0};
Point(p15 + 6) = {11.35209650227549, 0.1232356742996069, 0};
Point(p15 + 7) = {11.22514387957337, 0.2010323415478988, 0};
Point(p15 + 8) = {11.08758417429961, 0.2580114371083356, 0};
Point(p15 + 9) = {10.94280456293254, 0.292769946545443, 0};
Point(p15 + 10) = {10.79437, 0.3044519999999999, 0};
Point(p15 + 11) = {10.64593543706746, 0.2927699465454429, 0};
Point(p15 + 12) = {10.50115582570039, 0.2580114371083357, 0};
Point(p15 + 13) = {10.36359612042664, 0.201032341547899, 0};
Point(p15 + 14) = {10.23664349772451, 0.1232356742996069, 0};
Point(p15 + 15) = {10.12342395249655, 0.02653704750344865, 0};
Point(p15 + 16) = {10.02672532570039, -0.08668249772451153, 0};
Point(p15 + 17) = {9.948928658452102, -0.2136351204266339, 0};
Point(p15 + 18) = {9.891949562891664, -0.351194825700393, 0};
Point(p15 + 19) = {9.857191053454558, -0.4959744370674614, 0};
Point(p15 + 20) = {9.845509, -0.6444089999999999, 0};
Point(p15 + 21) = {9.857191053454558, -0.7928435629325384, 0};
Point(p15 + 22) = {9.891949562891664, -0.9376231742996073, 0};
Point(p15 + 23) = {9.948928658452102, -1.075182879573366, 0};
Point(p15 + 24) = {10.02672532570039, -1.202135502275488, 0};
Point(p15 + 25) = {10.12342395249655, -1.315355047503449, 0};
Point(p15 + 26) = {10.23664349772451, -1.412053674299607, 0};
Point(p15 + 27) = {10.36359612042664, -1.489850341547899, 0};
Point(p15 + 28) = {10.50115582570039, -1.546829437108336, 0};
Point(p15 + 29) = {10.64593543706746, -1.581587946545443, 0};
Point(p15 + 30) = {10.79437, -1.59327, 0};
Point(p15 + 31) = {10.94280456293254, -1.581587946545443, 0};
Point(p15 + 32) = {11.08758417429961, -1.546829437108336, 0};
Point(p15 + 33) = {11.22514387957337, -1.489850341547899, 0};
Point(p15 + 34) = {11.35209650227549, -1.412053674299607, 0};
Point(p15 + 35) = {11.46531604750345, -1.315355047503449, 0};
Point(p15 + 36) = {11.56201467429961, -1.202135502275488, 0};
Point(p15 + 37) = {11.6398113415479, -1.075182879573366, 0};
Point(p15 + 38) = {11.69679043710834, -0.9376231742996072, 0};
Point(p15 + 39) = {11.73154894654544, -0.7928435629325388, 0};
Spline(15) = {10, p15 + 1, p15 + 2, p15 + 3, p15 + 4, p15 + 5, p15 + 6, p15 + 7, p15 + 8, p15 + 9, p15 + 10, p15 + 11, p15 + 12, p15 + 13, p15 + 14, p15 + 15, p15 + 16, p15 + 17, p15 + 18, p15 + 19, p15 + 20, p15 + 21, p15 + 22, p15 + 23, p15 + 24, p15 + 25, p15 + 26, p15 + 27, p15 + 28, p15 + 29, p15 + 30, p15 + 31, p15 + 32, p15 + 33, p15 + 34, p15 + 35, p15 + 36, p15 + 37, p15 + 38, p15 + 39, 10};
p16 = newp;
Point(p16 + 1) = {32.49584841494728, 0.9221166686714168, 0.1};
Point(p16 + 2) = {32.45459010113368, 1.09396991371352, 0.1};
Point(p16 + 3) = {32.38695597517378, 1.257253137885152, 0.1};
Point(p16 + 4) = {32.29461141371352, 1.407945766301256, 0.1};
Point(p16 + 5) = {32.17983024633006, 1.542337246330065, 0.1};
Point(p16 + 6) = {32.04543876630125, 1.65711841371352, 0.1};
Point(p16 + 7) = {31.89474613788515, 1.749462975173786, 0.1};
Point(p16 + 8) = {31.73146291371352, 1.817097101133683, 0.1};
Point(p16 + 9) = {31.55960966867142, 1.858355414947282, 0.1};
Point(p16 + 10) = {31.383418, 1.872222, 0.1};
Point(p16 + 11) = {31.20722633132858, 1.858355414947282, 0.1};
Point(p16 + 12) = {31.03537308628648, 1.817097101133683, 0.1};
Point(p16 + 13) = {30.87208986211485, 1.749462975173786, 0.1};
Point(p16 + 14) = {30.72139723369874, 1.65711841371352, 0.1};
Point(p16 + 15) = {30.58700575366993, 1.542337246330065, 0.1};
Point(p16 + 16) = {30.47222458628648, 1.407945766301256, 0.1};
Point(p16 + 17) = {30.37988002482621, 1.257253137885152, 0.1};
Point(p16 + 18) = {30.31224589886632, 1.09396991371352, 0.1};
Point(p16 + 19) = {30.27098758505272, 0.9221166686714171, 0.1};
Point(p16 + 20) = {30.257121, 0.7459250000000001, 0.1};
Point(p16 + 21) = {30.27098758505272, 0.5697333313285832, 0.1};
Point(p16 + 22) = {30.31224589886632, 0.3978800862864794, 0.1};
Point(p16 + 23) = {30.37988002482621, 0.2345968621148481, 0.1};
Point(p16 + 24) = {30.47222458628648, 0.08390423369874445, 0.1};
Point(p16 + 25) = {30.58700575366993, -0.05048724633006496, 0.1};
Point(p16 + 26) = {30.72139723369874, -0.1652684137135202, 0.1};
Point(p16 + 27) = {30.87208986211485, -0.2576129751737861, 0.1};
Point(p16 + 28) = {31.03537308628648, -0.3252471011336826, 0.1};
Point(p16 + 29) = {31.20722633132858, -0.3665054149472819, 0.1};
Point(p16 + 30) = {31.383418, -0.3803720000000002, 0.1};
Point(p16 + 31) = {31.55960966867142, -0.3665054149472819, 0.1};
Point(p16 + 32) = {31.73146291371352, -0.3252471011336828, 0.1};
Point(p16 + 33) = {31.89474613788515, -0.2576129751737866, 0.1};
Point(p16 + 34) = {32.04543876630125, -0.1652684137135204, 0.1};
Point(p16 + 35) = {32.17983024633006, -0.05048724633006518, 0.1};
Point(p16 + 36) = {32.29461141371352, 0.08390423369874411, 0.1};
Point(p16 + 37) = {32.38695597517378, 0.2345968621148473, 0.1};
Point(p16 + 38) = {32.45459010113368, 0.3978800862864795, 0.1};
Point(p16 + 39) = {32.49584841494728, 0.5697333313285827, 0.1};
Spline(16) = {11, p16 + 1, p16 + 2, p16 + 3, p16 + 4, p16 + 5, p16 + 6, p16 + 7, p16 + 8, p16 + 9, p16 + 10, p16 + 11, p16 + 12, p16 + 13, p16 + 14, p16 + 15, p16 + 16, p16 + 17, p16 + 18, p16 + 19, p16 + 20, p16 + 21, p16 + 22, p16 + 23, p16 + 24, p16 + 25, p16 + 26, p16 + 27, p16 + 28, p16 + 29, p16 + 30, p16 + 31, p16 + 32, p16 + 33, p16 + 34, p16 + 35, p16 + 36, p16 + 37, p16 + 38, p16 + 39, 11};
Line(17) = {12, 11};
p18 = newp;
Point(p18 + 1) = {32.49584841494728, 0.9221166686714168, 0};
Point(p18 + 2) = {32.45459010113368, 1.09396991371352, 0};
Point(p18 + 3) = {32.38695597517378, 1.257253137885152, 0};
Point(p18 + 4) = {32.29461141371352, 1.407945766301256, 0};
Point(p18 + 5) = {32.17983024633006, 1.542337246330065, 0};
Point(p18 + 6) = {32.04543876630125, 1.65711841371352, 0};
Point(p18 + 7) = {31.89474613788515, 1.749462975173786, 0};
Point(p18 + 8) = {31.73146291371352, 1.817097101133683, 0};
Point(p18 + 9) = {31.55960966867142, 1.858355414947282, 0};
Point(p18 + 10) = {31.383418, 1.872222, 0};
Point(p18 + 11) = {31.20722633132858, 1.858355414947282, 0};
Point(p18 + 12) = {31.03537308628648, 1.817097101133683, 0};
Point(p18 + 13) = {30.87208986211485, 1.749462975173786, 0};
Point(p18 + 14) = {30.72139723369874, 1.65711841371352, 0};
Point(p18 + 15) = {30.58700575366993, 1.542337246330065, 0};
Point(p18 + 16) = {30.47222458628648, 1.407945766301256, 0};
Point(p18 + 17) = {30.37988002482621, 1.257253137885152, 0};
Point(p18 + 18) = {30.31224589886632, 1.09396991371352, 0};
Point(p18 + 19) = {30.27098758505272, 0.9221166686714171, 0};
Point(p18 + 20) = {30.257121, 0.7459250000000001, 0};
Point(p18 + 21) = {30.27098758505272, 0.5697333313285832, 0};
Point(p18 + 22) = {30.31224589886632, 0.3978800862864794, 0};
Point(p18 + 23) = {30.37988002482621, 0.2345968621148481, 0};
Point(p18 + 24) = {30.47222458628648, 0.08390423369874445, 0};
Point(p18 + 25) = {30.58700575366993, -0.05048724633006496, 0};
Point(p18 + 26) = {30.72139723369874, -0.1652684137135202, 0};
Point(p18 + 27) = {30.87208986211485, -0.2576129751737861, 0};
Point(p18 + 28) = {31.03537308628648, -0.3252471011336826, 0};
Point(p18 + 29) = {31.20722633132858, -0.3665054149472819, 0};
Point(p18 + 30) = {31.383418, -0.3803720000000002, 0};
Point(p18 + 31) = {31.55960966867142, -0.3665054149472819, 0};
Point(p18 + 32) = {31.73146291371352, -0.3252471011336828, 0};
Point(p18 + 33) = {31.89474613788515, -0.2576129751737866, 0};
Point(p18 + 34) = {32.04543876630125, -0.1652684137135204, 0};
Point(p18 + 35) = {32.17983024633006, -0.05048724633006518, 0};
Point(p18 + 36) = {32.29461141371352, 0.08390423369874411, 0};
Point(p18 + 37) = {32.38695597517378, 0.2345968621148473, 0};
Point(p18 + 38) = {32.45459010113368, 0.3978800862864795, 0};
Point(p18 + 39) = {32.49584841494728, 0.5697333313285827, 0};
Spline(18) = {12, p18 + 1, p18 + 2, p18 + 3, p18 + 4, p18 + 5, p18 + 6, p18 + 7, p18 + 8, p18 + 9, p18 + 10, p18 + 11, p18 + 12, p18 + 13, p18 + 14, p18 + 15, p18 + 16, p18 + 17, p18 + 18, p18 + 19, p18 + 20, p18 + 21, p18 + 22, p18 + 23, p18 + 24, p18 + 25, p18 + 26, p18 + 27, p18 + 28, p18 + 29, p18 + 30, p18 + 31, p18 + 32, p18 + 33, p18 + 34, p18 + 35, p18 + 36, p18 + 37, p18 + 38, p18 + 39, 12};
Line(19) = {14, 13};
Line(20) = {13, 15};
Line(21) = {16, 15};
Line(22) = {14, 16};
Line(23) = {14, 17};
Line(24) = {17, 18};
Line(25) = {13, 18};
Line(26) = {15, 19};
Line(27) = {18, 19};
Line(28) = {16, 20};
Line(29) = {20, 19};
Line(30) = {17, 20};
Curve Loop(7) = {-13, -14, 15, 14};
Surface(7) = {7};
Curve Loop(8) = {13};
Plane Surface(8) = {8};
Curve Loop(9) = {15};
Plane Surface(9) = {9};
Curve Loop(10) = {-16, -17, 18, 17};
Surface(10) = {10};
Curve Loop(11) = {16};
Plane Surface(11) = {11};
Curve Loop(12) = {18};
Plane Surface(12) = {12};
Curve Loop(13) = {-19, 22, 21, -20};
Plane Surface(13) = {13};
Curve Loop(14) = {-23, 19, 25, -24};
Plane Surface(14) = {14};
Curve Loop(15) = {-20, 25, 27, -26};
Plane Surface(15) = {15};
Curve Loop(16) = {-28, 21, 26, -29};
Plane Surface(16) = {16};
Curve Loop(17) = {-22, 23, 30, -28, -15, -18};
Plane Surface(17) = {17};
Curve Loop(18) = {-24, 30, 29, -27};
Plane Surface(18) = {18};
Surface Loop(1) = {13, 14, 15, 16, 17, 18, 7, 10, 8, 11};
Volume(1) = {1};
Surface Loop(2) = {7, 8, 9};
Volume(2) = {2};
Surface Loop(3) = {10, 11, 12};
Volume(3) = {3};
Physical Surface("WALLS") = {13, 18};
Physical Surface("LOAD") = {8, 11};
Physical Surface("BORDER") = {7, 9, 10, 12, 14, 15, 16, 17};
Physical Volume("SOLID") = {1, 2, 3};
