cl__1 = 0.085697;
cl__2 = 0.138949;
cl__3 = 0.5646330000000001;
cl__4 = 0.778786;
cl__5 = 1.654083;
cl__6 = 3.202138;
Point(9) = {30.4867, -2.714725, 0.1, cl__1};
Point(10) = {30.4867, -2.714725, 0, cl__1};
Point(11) = {6.285551, -1.159908, 0.1, cl__2};
Point(12) = {6.285551, -1.159908, 0, cl__2};
Point(13) = {0.19947, -4.352324, 0.1, cl__3};
Point(14) = {0.19947, -4.352324, 0, cl__3};
Point(15) = {0.19947, 4.436134999999999, 0.1, cl__4};
Point(16) = {0.19947, 4.436134999999999, 0, cl__4};
Point(17) = {39.33371, -4.352324, 0, cl__5};
Point(18) = {39.33371, -4.352324, 0.1, cl__5};
Point(19) = {39.33371, 4.436134999999999, 0.1, cl__6};
Point(20) = {39.33371, 4.436134999999999, 0, cl__6};
p13 = newp;
Point(p13 + 1) = {30.47614922799318, -2.580664730756613, 0.1};
Point(p13 + 2) = {30.44475670699552, -2.449905470262524, 0.1};
Point(p13 + 3) = {30.3932954250598, -2.325666945476202, 0.1};
Point(p13 + 4) = {30.32303252973748, -2.21100832120191, 0.1};
Point(p13 + 5) = {30.23569812670056, -2.10875287329944, 0.1};
Point(p13 + 6) = {30.13344267879809, -2.021418470262524, 0.1};
Point(p13 + 7) = {30.0187840545238, -1.951155574940198, 0.1};
Point(p13 + 8) = {29.89454552973748, -1.899694293004477, 0.1};
Point(p13 + 9) = {29.76378626924339, -1.868301772006822, 0.1};
Point(p13 + 10) = {29.629726, -1.857751, 0.1};
Point(p13 + 11) = {29.49566573075661, -1.868301772006823, 0.1};
Point(p13 + 12) = {29.36490647026253, -1.899694293004477, 0.1};
Point(p13 + 13) = {29.2406679454762, -1.951155574940198, 0.1};
Point(p13 + 14) = {29.12600932120191, -2.021418470262524, 0.1};
Point(p13 + 15) = {29.02375387329944, -2.10875287329944, 0.1};
Point(p13 + 16) = {28.93641947026252, -2.21100832120191, 0.1};
Point(p13 + 17) = {28.8661565749402, -2.325666945476202, 0.1};
Point(p13 + 18) = {28.81469529300448, -2.449905470262524, 0.1};
Point(p13 + 19) = {28.78330277200682, -2.580664730756613, 0.1};
Point(p13 + 20) = {28.772752, -2.714725, 0.1};
Point(p13 + 21) = {28.78330277200682, -2.848785269243387, 0.1};
Point(p13 + 22) = {28.81469529300448, -2.979544529737477, 0.1};
Point(p13 + 23) = {28.8661565749402, -3.103783054523798, 0.1};
Point(p13 + 24) = {28.93641947026252, -3.21844167879809, 0.1};
Point(p13 + 25) = {29.02375387329944, -3.32069712670056, 0.1};
Point(p13 + 26) = {29.12600932120191, -3.408031529737476, 0.1};
Point(p13 + 27) = {29.2406679454762, -3.478294425059802, 0.1};
Point(p13 + 28) = {29.36490647026253, -3.529755706995523, 0.1};
Point(p13 + 29) = {29.49566573075661, -3.561148227993177, 0.1};
Point(p13 + 30) = {29.629726, -3.571699, 0.1};
Point(p13 + 31) = {29.76378626924339, -3.561148227993177, 0.1};
Point(p13 + 32) = {29.89454552973748, -3.529755706995523, 0.1};
Point(p13 + 33) = {30.0187840545238, -3.478294425059802, 0.1};
Point(p13 + 34) = {30.13344267879809, -3.408031529737476, 0.1};
Point(p13 + 35) = {30.23569812670056, -3.320697126700561, 0.1};
Point(p13 + 36) = {30.32303252973748, -3.21844167879809, 0.1};
Point(p13 + 37) = {30.3932954250598, -3.103783054523799, 0.1};
Point(p13 + 38) = {30.44475670699552, -2.979544529737476, 0.1};
Point(p13 + 39) = {30.47614922799318, -2.848785269243387, 0.1};
Spline(13) = {9, p13 + 1, p13 + 2, p13 + 3, p13 + 4, p13 + 5, p13 + 6, p13 + 7, p13 + 8, p13 + 9, p13 + 10, p13 + 11, p13 + 12, p13 + 13, p13 + 14, p13 + 15, p13 + 16, p13 + 17, p13 + 18, p13 + 19, p13 + 20, p13 + 21, p13 + 22, p13 + 23, p13 + 24, p13 + 25, p13 + 26, p13 + 27, p13 + 28, p13 + 29, p13 + 30, p13 + 31, p13 + 32, p13 + 33, p13 + 34, p13 + 35, p13 + 36, p13 + 37, p13 + 38, p13 + 39, 9};
Line(14) = {10, 9};
p15 = newp;
Point(p15 + 1) = {30.47614922799318, -2.580664730756613, 0};
Point(p15 + 2) = {30.44475670699552, -2.449905470262524, 0};
Point(p15 + 3) = {30.3932954250598, -2.325666945476202, 0};
Point(p15 + 4) = {30.32303252973748, -2.21100832120191, 0};
Point(p15 + 5) = {30.23569812670056, -2.10875287329944, 0};
Point(p15 + 6) = {30.13344267879809, -2.021418470262524, 0};
Point(p15 + 7) = {30.0187840545238, -1.951155574940198, 0};
Point(p15 + 8) = {29.89454552973748, -1.899694293004477, 0};
Point(p15 + 9) = {29.76378626924339, -1.868301772006822, 0};
Point(p15 + 10) = {29.629726, -1.857751, 0};
Point(p15 + 11) = {29.49566573075661, -1.868301772006823, 0};
Point(p15 + 12) = {29.36490647026253, -1.899694293004477, 0};
Point(p15 + 13) = {29.2406679454762, -1.951155574940198, 0};
Point(p15 + 14) = {29.12600932120191, -2.021418470262524, 0};
Point(p15 + 15) = {29.02375387329944, -2.10875287329944, 0};
Point(p15 + 16) = {28.93641947026252, -2.21100832120191, 0};
Point(p15 + 17) = {28.8661565749402, -2.325666945476202, 0};
Point(p15 + 18) = {28.81469529300448, -2.449905470262524, 0};
Point(p15 + 19) = {28.78330277200682, -2.580664730756613, 0};
Point(p15 + 20) = {28.772752, -2.714725, 0};
Point(p15 + 21) = {28.78330277200682, -2.848785269243387, 0};
Point(p15 + 22) = {28.81469529300448, -2.979544529737477, 0};
Point(p15 + 23) = {28.8661565749402, -3.103783054523798, 0};
Point(p15 + 24) = {28.93641947026252, -3.21844167879809, 0};
Point(p15 + 25) = {29.02375387329944, -3.32069712670056, 0};
Point(p15 + 26) = {29.12600932120191, -3.408031529737476, 0};
Point(p15 + 27) = {29.2406679454762, -3.478294425059802, 0};
Point(p15 + 28) = {29.36490647026253, -3.529755706995523, 0};
Point(p15 + 29) = {29.49566573075661, -3.561148227993177, 0};
Point(p15 + 30) = {29.629726, -3.571699, 0};
Point(p15 + 31) = {29.76378626924339, -3.561148227993177, 0};
Point(p15 + 32) = {29.89454552973748, -3.529755706995523, 0};
Point(p15 + 33) = {30.0187840545238, -3.478294425059802, 0};
Point(p15 + 34) = {30.13344267879809, -3.408031529737476, 0};
Point(p15 + 35) = {30.23569812670056, -3.320697126700561, 0};
Point(p15 + 36) = {30.32303252973748, -3.21844167879809, 0};
Point(p15 + 37) = {30.3932954250598, -3.103783054523799, 0};
Point(p15 + 38) = {30.44475670699552, -2.979544529737476, 0};
Point(p15 + 39) = {30.47614922799318, -2.848785269243387, 0};
Spline(15) = {10, p15 + 1, p15 + 2, p15 + 3, p15 + 4, p15 + 5, p15 + 6, p15 + 7, p15 + 8, p15 + 9, p15 + 10, p15 + 11, p15 + 12, p15 + 13, p15 + 14, p15 + 15, p15 + 16, p15 + 17, p15 + 18, p15 + 19, p15 + 20, p15 + 21, p15 + 22, p15 + 23, p15 + 24, p15 + 25, p15 + 26, p15 + 27, p15 + 28, p15 + 29, p15 + 30, p15 + 31, p15 + 32, p15 + 33, p15 + 34, p15 + 35, p15 + 36, p15 + 37, p15 + 38, p15 + 39, 10};
p16 = newp;
Point(p16 + 1) = {6.268444109308517, -0.9425443444746446, 0.1};
Point(p16 + 2) = {6.217544665657404, -0.7305329035369375, 0.1};
Point(p16 + 3) = {6.134105982274923, -0.5290941024883964, 0.1};
Point(p16 + 4) = {6.020182596463062, -0.3431880331478884, 0.1};
Point(p16 + 5) = {5.878579680070552, -0.1773923199294477, 0.1};
Point(p16 + 6) = {5.712783966852111, -0.03578940353693749, 0.1};
Point(p16 + 7) = {5.526877897511604, 0.07813398227492252, 0.1};
Point(p16 + 8) = {5.325439096463063, 0.1615726656574039, 0.1};
Point(p16 + 9) = {5.113427655525355, 0.2124721093085162, 0.1};
Point(p16 + 10) = {4.896064, 0.229579, 0.1};
Point(p16 + 11) = {4.678700344474644, 0.212472109308516, 0.1};
Point(p16 + 12) = {4.466688903536937, 0.1615726656574041, 0.1};
Point(p16 + 13) = {4.265250102488396, 0.07813398227492274, 0.1};
Point(p16 + 14) = {4.079344033147889, -0.03578940353693749, 0.1};
Point(p16 + 15) = {3.913548319929448, -0.1773923199294476, 0.1};
Point(p16 + 16) = {3.771945403536938, -0.3431880331478883, 0.1};
Point(p16 + 17) = {3.658022017725077, -0.5290941024883963, 0.1};
Point(p16 + 18) = {3.574583334342596, -0.7305329035369372, 0.1};
Point(p16 + 19) = {3.523683890691484, -0.9425443444746445, 0.1};
Point(p16 + 20) = {3.506577, -1.159908, 0.1};
Point(p16 + 21) = {3.523683890691484, -1.377271655525355, 0.1};
Point(p16 + 22) = {3.574583334342596, -1.589283096463063, 0.1};
Point(p16 + 23) = {3.658022017725077, -1.790721897511603, 0.1};
Point(p16 + 24) = {3.771945403536938, -1.976627966852111, 0.1};
Point(p16 + 25) = {3.913548319929447, -2.142423680070552, 0.1};
Point(p16 + 26) = {4.079344033147889, -2.284026596463062, 0.1};
Point(p16 + 27) = {4.265250102488396, -2.397949982274922, 0.1};
Point(p16 + 28) = {4.466688903536937, -2.481388665657404, 0.1};
Point(p16 + 29) = {4.678700344474644, -2.532288109308516, 0.1};
Point(p16 + 30) = {4.896064, -2.549395, 0.1};
Point(p16 + 31) = {5.113427655525355, -2.532288109308516, 0.1};
Point(p16 + 32) = {5.325439096463063, -2.481388665657404, 0.1};
Point(p16 + 33) = {5.526877897511604, -2.397949982274923, 0.1};
Point(p16 + 34) = {5.712783966852111, -2.284026596463063, 0.1};
Point(p16 + 35) = {5.878579680070552, -2.142423680070553, 0.1};
Point(p16 + 36) = {6.020182596463062, -1.976627966852112, 0.1};
Point(p16 + 37) = {6.134105982274923, -1.790721897511604, 0.1};
Point(p16 + 38) = {6.217544665657404, -1.589283096463063, 0.1};
Point(p16 + 39) = {6.268444109308516, -1.377271655525355, 0.1};
Spline(16) = {11, p16 + 1, p16 + 2, p16 + 3, p16 + 4, p16 + 5, p16 + 6, p16 + 7, p16 + 8, p16 + 9, p16 + 10, p16 + 11, p16 + 12, p16 + 13, p16 + 14, p16 + 15, p16 + 16, p16 + 17, p16 + 18, p16 + 19, p16 + 20, p16 + 21, p16 + 22, p16 + 23, p16 + 24, p16 + 25, p16 + 26, p16 + 27, p16 + 28, p16 + 29, p16 + 30, p16 + 31, p16 + 32, p16 + 33, p16 + 34, p16 + 35, p16 + 36, p16 + 37, p16 + 38, p16 + 39, 11};
Line(17) = {12, 11};
p18 = newp;
Point(p18 + 1) = {6.268444109308517, -0.9425443444746446, 0};
Point(p18 + 2) = {6.217544665657404, -0.7305329035369375, 0};
Point(p18 + 3) = {6.134105982274923, -0.5290941024883964, 0};
Point(p18 + 4) = {6.020182596463062, -0.3431880331478884, 0};
Point(p18 + 5) = {5.878579680070552, -0.1773923199294477, 0};
Point(p18 + 6) = {5.712783966852111, -0.03578940353693749, 0};
Point(p18 + 7) = {5.526877897511604, 0.07813398227492252, 0};
Point(p18 + 8) = {5.325439096463063, 0.1615726656574039, 0};
Point(p18 + 9) = {5.113427655525355, 0.2124721093085162, 0};
Point(p18 + 10) = {4.896064, 0.229579, 0};
Point(p18 + 11) = {4.678700344474644, 0.212472109308516, 0};
Point(p18 + 12) = {4.466688903536937, 0.1615726656574041, 0};
Point(p18 + 13) = {4.265250102488396, 0.07813398227492274, 0};
Point(p18 + 14) = {4.079344033147889, -0.03578940353693749, 0};
Point(p18 + 15) = {3.913548319929448, -0.1773923199294476, 0};
Point(p18 + 16) = {3.771945403536938, -0.3431880331478883, 0};
Point(p18 + 17) = {3.658022017725077, -0.5290941024883963, 0};
Point(p18 + 18) = {3.574583334342596, -0.7305329035369372, 0};
Point(p18 + 19) = {3.523683890691484, -0.9425443444746445, 0};
Point(p18 + 20) = {3.506577, -1.159908, 0};
Point(p18 + 21) = {3.523683890691484, -1.377271655525355, 0};
Point(p18 + 22) = {3.574583334342596, -1.589283096463063, 0};
Point(p18 + 23) = {3.658022017725077, -1.790721897511603, 0};
Point(p18 + 24) = {3.771945403536938, -1.976627966852111, 0};
Point(p18 + 25) = {3.913548319929447, -2.142423680070552, 0};
Point(p18 + 26) = {4.079344033147889, -2.284026596463062, 0};
Point(p18 + 27) = {4.265250102488396, -2.397949982274922, 0};
Point(p18 + 28) = {4.466688903536937, -2.481388665657404, 0};
Point(p18 + 29) = {4.678700344474644, -2.532288109308516, 0};
Point(p18 + 30) = {4.896064, -2.549395, 0};
Point(p18 + 31) = {5.113427655525355, -2.532288109308516, 0};
Point(p18 + 32) = {5.325439096463063, -2.481388665657404, 0};
Point(p18 + 33) = {5.526877897511604, -2.397949982274923, 0};
Point(p18 + 34) = {5.712783966852111, -2.284026596463063, 0};
Point(p18 + 35) = {5.878579680070552, -2.142423680070553, 0};
Point(p18 + 36) = {6.020182596463062, -1.976627966852112, 0};
Point(p18 + 37) = {6.134105982274923, -1.790721897511604, 0};
Point(p18 + 38) = {6.217544665657404, -1.589283096463063, 0};
Point(p18 + 39) = {6.268444109308516, -1.377271655525355, 0};
Spline(18) = {12, p18 + 1, p18 + 2, p18 + 3, p18 + 4, p18 + 5, p18 + 6, p18 + 7, p18 + 8, p18 + 9, p18 + 10, p18 + 11, p18 + 12, p18 + 13, p18 + 14, p18 + 15, p18 + 16, p18 + 17, p18 + 18, p18 + 19, p18 + 20, p18 + 21, p18 + 22, p18 + 23, p18 + 24, p18 + 25, p18 + 26, p18 + 27, p18 + 28, p18 + 29, p18 + 30, p18 + 31, p18 + 32, p18 + 33, p18 + 34, p18 + 35, p18 + 36, p18 + 37, p18 + 38, p18 + 39, 12};
Line(19) = {14, 13};
Line(20) = {13, 15};
Line(21) = {16, 15};
Line(22) = {14, 16};
Line(23) = {14, 17};
Line(24) = {17, 18};
Line(25) = {13, 18};
Line(26) = {15, 19};
Line(27) = {18, 19};
Line(28) = {16, 20};
Line(29) = {20, 19};
Line(30) = {17, 20};
Curve Loop(7) = {-13, -14, 15, 14};
Surface(7) = {7};
Curve Loop(8) = {13};
Plane Surface(8) = {8};
Curve Loop(9) = {15};
Plane Surface(9) = {9};
Curve Loop(10) = {-16, -17, 18, 17};
Surface(10) = {10};
Curve Loop(11) = {16};
Plane Surface(11) = {11};
Curve Loop(12) = {18};
Plane Surface(12) = {12};
Curve Loop(13) = {-19, 22, 21, -20};
Plane Surface(13) = {13};
Curve Loop(14) = {-23, 19, 25, -24};
Plane Surface(14) = {14};
Curve Loop(15) = {-20, 25, 27, -26, -13, -16};
Plane Surface(15) = {15};
Curve Loop(16) = {-28, 21, 26, -29};
Plane Surface(16) = {16};
Curve Loop(17) = {-22, 23, 30, -28, -15, -18};
Plane Surface(17) = {17};
Curve Loop(18) = {-24, 30, 29, -27};
Plane Surface(18) = {18};
Surface Loop(1) = {13, 14, 15, 16, 17, 18, 7, 10};
Volume(1) = {1};
Surface Loop(2) = {7, 8, 9};
Volume(2) = {2};
Surface Loop(3) = {10, 11, 12};
Volume(3) = {3};
Physical Surface("WALLS") = {13, 18};
Physical Surface("LOAD") = {8, 11};
Physical Surface("BORDER") = {7, 9, 10, 12, 14, 15, 16, 17};
Physical Volume("SOLID") = {1, 2, 3};
