cl__1 = 0.058096;
cl__2 = 0.055481;
cl__3 = 4.660697;
cl__4 = 4.283566;
cl__5 = 0.432312;
cl__6 = 0.273242;
Point(9) = {28.104053, 2.613251, 0.1, cl__1};
Point(10) = {28.104053, 2.613251, 0, cl__1};
Point(11) = {31.069966, 2.141534, 0.1, cl__2};
Point(12) = {31.069966, 2.141534, 0, cl__2};
Point(13) = {0.789859, -4.171332, 1, cl__3};
Point(14) = {0.789859, -4.171332, 0, cl__3};
Point(15) = {0.789859, 4.912174, 1, cl__4};
Point(16) = {0.789859, 4.912174, 0, cl__4};
Point(17) = {34.642958, -4.171332, 0, cl__5};
Point(18) = {34.642958, -4.171332, 1, cl__5};
Point(19) = {34.642958, 4.912174, 1, cl__6};
Point(20) = {34.642958, 4.912174, 0, cl__6};
p13 = newp;
Point(p13 + 1) = {28.09690043066381, 2.704133010375307, 0.1};
Point(p13 + 2) = {28.07561884265032, 2.792777204035075, 0.1};
Point(p13 + 3) = {28.04073225928595, 2.877000866738187, 0.1};
Point(p13 + 4) = {27.99309970403507, 2.954730132386583, 0.1};
Point(p13 + 5) = {27.93389404849136, 3.024051048491355, 0.1};
Point(p13 + 6) = {27.86457313238658, 3.083256704035075, 0.1};
Point(p13 + 7) = {27.78684386673819, 3.13088925928595, 0.1};
Point(p13 + 8) = {27.70262020403507, 3.165775842650316, 0.1};
Point(p13 + 9) = {27.61397601037531, 3.187057430663811, 0.1};
Point(p13 + 10) = {27.523094, 3.19421, 0.1};
Point(p13 + 11) = {27.43221198962469, 3.187057430663811, 0.1};
Point(p13 + 12) = {27.34356779596493, 3.165775842650316, 0.1};
Point(p13 + 13) = {27.25934413326181, 3.13088925928595, 0.1};
Point(p13 + 14) = {27.18161486761342, 3.083256704035075, 0.1};
Point(p13 + 15) = {27.11229395150864, 3.024051048491355, 0.1};
Point(p13 + 16) = {27.05308829596493, 2.954730132386583, 0.1};
Point(p13 + 17) = {27.00545574071405, 2.877000866738187, 0.1};
Point(p13 + 18) = {26.97056915734968, 2.792777204035075, 0.1};
Point(p13 + 19) = {26.94928756933619, 2.704133010375307, 0.1};
Point(p13 + 20) = {26.942135, 2.613251, 0.1};
Point(p13 + 21) = {26.94928756933619, 2.522368989624693, 0.1};
Point(p13 + 22) = {26.97056915734968, 2.433724795964925, 0.1};
Point(p13 + 23) = {27.00545574071405, 2.349501133261813, 0.1};
Point(p13 + 24) = {27.05308829596493, 2.271771867613417, 0.1};
Point(p13 + 25) = {27.11229395150864, 2.202450951508645, 0.1};
Point(p13 + 26) = {27.18161486761342, 2.143245295964925, 0.1};
Point(p13 + 27) = {27.25934413326181, 2.09561274071405, 0.1};
Point(p13 + 28) = {27.34356779596493, 2.060726157349684, 0.1};
Point(p13 + 29) = {27.43221198962469, 2.039444569336189, 0.1};
Point(p13 + 30) = {27.523094, 2.032292, 0.1};
Point(p13 + 31) = {27.61397601037531, 2.039444569336189, 0.1};
Point(p13 + 32) = {27.70262020403507, 2.060726157349684, 0.1};
Point(p13 + 33) = {27.78684386673819, 2.09561274071405, 0.1};
Point(p13 + 34) = {27.86457313238658, 2.143245295964925, 0.1};
Point(p13 + 35) = {27.93389404849136, 2.202450951508645, 0.1};
Point(p13 + 36) = {27.99309970403507, 2.271771867613417, 0.1};
Point(p13 + 37) = {28.04073225928595, 2.349501133261812, 0.1};
Point(p13 + 38) = {28.07561884265032, 2.433724795964925, 0.1};
Point(p13 + 39) = {28.09690043066381, 2.522368989624693, 0.1};
Spline(13) = {9, p13 + 1, p13 + 2, p13 + 3, p13 + 4, p13 + 5, p13 + 6, p13 + 7, p13 + 8, p13 + 9, p13 + 10, p13 + 11, p13 + 12, p13 + 13, p13 + 14, p13 + 15, p13 + 16, p13 + 17, p13 + 18, p13 + 19, p13 + 20, p13 + 21, p13 + 22, p13 + 23, p13 + 24, p13 + 25, p13 + 26, p13 + 27, p13 + 28, p13 + 29, p13 + 30, p13 + 31, p13 + 32, p13 + 33, p13 + 34, p13 + 35, p13 + 36, p13 + 37, p13 + 38, p13 + 39, 9};
Line(14) = {10, 9};
p15 = newp;
Point(p15 + 1) = {28.09690043066381, 2.704133010375307, 0};
Point(p15 + 2) = {28.07561884265032, 2.792777204035075, 0};
Point(p15 + 3) = {28.04073225928595, 2.877000866738187, 0};
Point(p15 + 4) = {27.99309970403507, 2.954730132386583, 0};
Point(p15 + 5) = {27.93389404849136, 3.024051048491355, 0};
Point(p15 + 6) = {27.86457313238658, 3.083256704035075, 0};
Point(p15 + 7) = {27.78684386673819, 3.13088925928595, 0};
Point(p15 + 8) = {27.70262020403507, 3.165775842650316, 0};
Point(p15 + 9) = {27.61397601037531, 3.187057430663811, 0};
Point(p15 + 10) = {27.523094, 3.19421, 0};
Point(p15 + 11) = {27.43221198962469, 3.187057430663811, 0};
Point(p15 + 12) = {27.34356779596493, 3.165775842650316, 0};
Point(p15 + 13) = {27.25934413326181, 3.13088925928595, 0};
Point(p15 + 14) = {27.18161486761342, 3.083256704035075, 0};
Point(p15 + 15) = {27.11229395150864, 3.024051048491355, 0};
Point(p15 + 16) = {27.05308829596493, 2.954730132386583, 0};
Point(p15 + 17) = {27.00545574071405, 2.877000866738187, 0};
Point(p15 + 18) = {26.97056915734968, 2.792777204035075, 0};
Point(p15 + 19) = {26.94928756933619, 2.704133010375307, 0};
Point(p15 + 20) = {26.942135, 2.613251, 0};
Point(p15 + 21) = {26.94928756933619, 2.522368989624693, 0};
Point(p15 + 22) = {26.97056915734968, 2.433724795964925, 0};
Point(p15 + 23) = {27.00545574071405, 2.349501133261813, 0};
Point(p15 + 24) = {27.05308829596493, 2.271771867613417, 0};
Point(p15 + 25) = {27.11229395150864, 2.202450951508645, 0};
Point(p15 + 26) = {27.18161486761342, 2.143245295964925, 0};
Point(p15 + 27) = {27.25934413326181, 2.09561274071405, 0};
Point(p15 + 28) = {27.34356779596493, 2.060726157349684, 0};
Point(p15 + 29) = {27.43221198962469, 2.039444569336189, 0};
Point(p15 + 30) = {27.523094, 2.032292, 0};
Point(p15 + 31) = {27.61397601037531, 2.039444569336189, 0};
Point(p15 + 32) = {27.70262020403507, 2.060726157349684, 0};
Point(p15 + 33) = {27.78684386673819, 2.09561274071405, 0};
Point(p15 + 34) = {27.86457313238658, 2.143245295964925, 0};
Point(p15 + 35) = {27.93389404849136, 2.202450951508645, 0};
Point(p15 + 36) = {27.99309970403507, 2.271771867613417, 0};
Point(p15 + 37) = {28.04073225928595, 2.349501133261812, 0};
Point(p15 + 38) = {28.07561884265032, 2.433724795964925, 0};
Point(p15 + 39) = {28.09690043066381, 2.522368989624693, 0};
Spline(15) = {10, p15 + 1, p15 + 2, p15 + 3, p15 + 4, p15 + 5, p15 + 6, p15 + 7, p15 + 8, p15 + 9, p15 + 10, p15 + 11, p15 + 12, p15 + 13, p15 + 14, p15 + 15, p15 + 16, p15 + 17, p15 + 18, p15 + 19, p15 + 20, p15 + 21, p15 + 22, p15 + 23, p15 + 24, p15 + 25, p15 + 26, p15 + 27, p15 + 28, p15 + 29, p15 + 30, p15 + 31, p15 + 32, p15 + 33, p15 + 34, p15 + 35, p15 + 36, p15 + 37, p15 + 38, p15 + 39, 10};
p16 = newp;
Point(p16 + 1) = {31.06313534362227, 2.228325718417901, 0.1};
Point(p16 + 2) = {31.04281156791875, 2.312980336683153, 0.1};
Point(p16 + 3) = {31.00949511169799, 2.393413377141497, 0.1};
Point(p16 + 4) = {30.96400633668315, 2.467644311394892, 0.1};
Point(p16 + 5) = {30.90746532748367, 2.533845327483671, 0.1};
Point(p16 + 6) = {30.84126431139489, 2.590386336683153, 0.1};
Point(p16 + 7) = {30.7670333771415, 2.635875111697997, 0.1};
Point(p16 + 8) = {30.68660033668315, 2.669191567918747, 0.1};
Point(p16 + 9) = {30.6019457184179, 2.689515343622269, 0.1};
Point(p16 + 10) = {30.515154, 2.696346, 0.1};
Point(p16 + 11) = {30.4283622815821, 2.689515343622269, 0.1};
Point(p16 + 12) = {30.34370766331685, 2.669191567918747, 0.1};
Point(p16 + 13) = {30.2632746228585, 2.635875111697997, 0.1};
Point(p16 + 14) = {30.18904368860511, 2.590386336683153, 0.1};
Point(p16 + 15) = {30.12284267251633, 2.533845327483671, 0.1};
Point(p16 + 16) = {30.06630166331685, 2.467644311394892, 0.1};
Point(p16 + 17) = {30.020812888302, 2.393413377141497, 0.1};
Point(p16 + 18) = {29.98749643208125, 2.312980336683153, 0.1};
Point(p16 + 19) = {29.96717265637773, 2.228325718417901, 0.1};
Point(p16 + 20) = {29.960342, 2.141534, 0.1};
Point(p16 + 21) = {29.96717265637773, 2.054742281582099, 0.1};
Point(p16 + 22) = {29.98749643208125, 1.970087663316846, 0.1};
Point(p16 + 23) = {30.020812888302, 1.889654622858503, 0.1};
Point(p16 + 24) = {30.06630166331685, 1.815423688605108, 0.1};
Point(p16 + 25) = {30.12284267251633, 1.749222672516329, 0.1};
Point(p16 + 26) = {30.18904368860511, 1.692681663316847, 0.1};
Point(p16 + 27) = {30.2632746228585, 1.647192888302003, 0.1};
Point(p16 + 28) = {30.34370766331685, 1.613876432081253, 0.1};
Point(p16 + 29) = {30.4283622815821, 1.593552656377731, 0.1};
Point(p16 + 30) = {30.515154, 1.586722, 0.1};
Point(p16 + 31) = {30.6019457184179, 1.59355265637773, 0.1};
Point(p16 + 32) = {30.68660033668315, 1.613876432081253, 0.1};
Point(p16 + 33) = {30.76703337714149, 1.647192888302003, 0.1};
Point(p16 + 34) = {30.84126431139489, 1.692681663316847, 0.1};
Point(p16 + 35) = {30.90746532748367, 1.749222672516329, 0.1};
Point(p16 + 36) = {30.96400633668315, 1.815423688605108, 0.1};
Point(p16 + 37) = {31.00949511169799, 1.889654622858502, 0.1};
Point(p16 + 38) = {31.04281156791875, 1.970087663316847, 0.1};
Point(p16 + 39) = {31.06313534362227, 2.054742281582099, 0.1};
Spline(16) = {11, p16 + 1, p16 + 2, p16 + 3, p16 + 4, p16 + 5, p16 + 6, p16 + 7, p16 + 8, p16 + 9, p16 + 10, p16 + 11, p16 + 12, p16 + 13, p16 + 14, p16 + 15, p16 + 16, p16 + 17, p16 + 18, p16 + 19, p16 + 20, p16 + 21, p16 + 22, p16 + 23, p16 + 24, p16 + 25, p16 + 26, p16 + 27, p16 + 28, p16 + 29, p16 + 30, p16 + 31, p16 + 32, p16 + 33, p16 + 34, p16 + 35, p16 + 36, p16 + 37, p16 + 38, p16 + 39, 11};
Line(17) = {12, 11};
p18 = newp;
Point(p18 + 1) = {31.06313534362227, 2.228325718417901, 0};
Point(p18 + 2) = {31.04281156791875, 2.312980336683153, 0};
Point(p18 + 3) = {31.00949511169799, 2.393413377141497, 0};
Point(p18 + 4) = {30.96400633668315, 2.467644311394892, 0};
Point(p18 + 5) = {30.90746532748367, 2.533845327483671, 0};
Point(p18 + 6) = {30.84126431139489, 2.590386336683153, 0};
Point(p18 + 7) = {30.7670333771415, 2.635875111697997, 0};
Point(p18 + 8) = {30.68660033668315, 2.669191567918747, 0};
Point(p18 + 9) = {30.6019457184179, 2.689515343622269, 0};
Point(p18 + 10) = {30.515154, 2.696346, 0};
Point(p18 + 11) = {30.4283622815821, 2.689515343622269, 0};
Point(p18 + 12) = {30.34370766331685, 2.669191567918747, 0};
Point(p18 + 13) = {30.2632746228585, 2.635875111697997, 0};
Point(p18 + 14) = {30.18904368860511, 2.590386336683153, 0};
Point(p18 + 15) = {30.12284267251633, 2.533845327483671, 0};
Point(p18 + 16) = {30.06630166331685, 2.467644311394892, 0};
Point(p18 + 17) = {30.020812888302, 2.393413377141497, 0};
Point(p18 + 18) = {29.98749643208125, 2.312980336683153, 0};
Point(p18 + 19) = {29.96717265637773, 2.228325718417901, 0};
Point(p18 + 20) = {29.960342, 2.141534, 0};
Point(p18 + 21) = {29.96717265637773, 2.054742281582099, 0};
Point(p18 + 22) = {29.98749643208125, 1.970087663316846, 0};
Point(p18 + 23) = {30.020812888302, 1.889654622858503, 0};
Point(p18 + 24) = {30.06630166331685, 1.815423688605108, 0};
Point(p18 + 25) = {30.12284267251633, 1.749222672516329, 0};
Point(p18 + 26) = {30.18904368860511, 1.692681663316847, 0};
Point(p18 + 27) = {30.2632746228585, 1.647192888302003, 0};
Point(p18 + 28) = {30.34370766331685, 1.613876432081253, 0};
Point(p18 + 29) = {30.4283622815821, 1.593552656377731, 0};
Point(p18 + 30) = {30.515154, 1.586722, 0};
Point(p18 + 31) = {30.6019457184179, 1.59355265637773, 0};
Point(p18 + 32) = {30.68660033668315, 1.613876432081253, 0};
Point(p18 + 33) = {30.76703337714149, 1.647192888302003, 0};
Point(p18 + 34) = {30.84126431139489, 1.692681663316847, 0};
Point(p18 + 35) = {30.90746532748367, 1.749222672516329, 0};
Point(p18 + 36) = {30.96400633668315, 1.815423688605108, 0};
Point(p18 + 37) = {31.00949511169799, 1.889654622858502, 0};
Point(p18 + 38) = {31.04281156791875, 1.970087663316847, 0};
Point(p18 + 39) = {31.06313534362227, 2.054742281582099, 0};
Spline(18) = {12, p18 + 1, p18 + 2, p18 + 3, p18 + 4, p18 + 5, p18 + 6, p18 + 7, p18 + 8, p18 + 9, p18 + 10, p18 + 11, p18 + 12, p18 + 13, p18 + 14, p18 + 15, p18 + 16, p18 + 17, p18 + 18, p18 + 19, p18 + 20, p18 + 21, p18 + 22, p18 + 23, p18 + 24, p18 + 25, p18 + 26, p18 + 27, p18 + 28, p18 + 29, p18 + 30, p18 + 31, p18 + 32, p18 + 33, p18 + 34, p18 + 35, p18 + 36, p18 + 37, p18 + 38, p18 + 39, 12};
Line(19) = {14, 13};
Line(20) = {13, 15};
Line(21) = {16, 15};
Line(22) = {14, 16};
Line(23) = {14, 17};
Line(24) = {17, 18};
Line(25) = {13, 18};
Line(26) = {15, 19};
Line(27) = {18, 19};
Line(28) = {16, 20};
Line(29) = {20, 19};
Line(30) = {17, 20};
Curve Loop(7) = {-13, -14, 15, 14};
Surface(7) = {7};
Curve Loop(8) = {13};
Plane Surface(8) = {8};
Curve Loop(9) = {15};
Plane Surface(9) = {9};
Curve Loop(10) = {-16, -17, 18, 17};
Surface(10) = {10};
Curve Loop(11) = {16};
Plane Surface(11) = {11};
Curve Loop(12) = {18};
Plane Surface(12) = {12};
Curve Loop(13) = {-19, 22, 21, -20};
Plane Surface(13) = {13};
Curve Loop(14) = {-23, 19, 25, -24};
Plane Surface(14) = {14};
Curve Loop(15) = {-20, 25, 27, -26};
Plane Surface(15) = {15};
Curve Loop(16) = {-28, 21, 26, -29};
Plane Surface(16) = {16};
Curve Loop(17) = {-22, 23, 30, -28, -18, -15};
Plane Surface(17) = {17};
Curve Loop(18) = {-24, 30, 29, -27};
Plane Surface(18) = {18};
Surface Loop(1) = {13, 14, 15, 16, 17, 18, 10, 7, 11, 8};
Volume(1) = {1};
Surface Loop(2) = {7, 8, 9};
Volume(2) = {2};
Surface Loop(3) = {10, 11, 12};
Volume(3) = {3};
Physical Surface("WALLS") = {13, 18};
Physical Surface("LOAD") = {8, 11};
Physical Surface("BORDER") = {7, 9, 10, 12, 14, 15, 16, 17};
Physical Volume("SOLID") = {1, 2, 3};
