cl__1 = 0.060005;
cl__2 = 0.081779;
cl__3 = 0.622924;
cl__4 = 0.5394600000000001;
cl__5 = 3.379643;
cl__6 = 2.389592;
Point(9) = {5.071151, 1.294643, 0.1, cl__1};
Point(10) = {5.071151, 1.294643, 0, cl__1};
Point(11) = {22.421481, 3.331838, 0.1, cl__2};
Point(12) = {22.421481, 3.331838, 0, cl__2};
Point(13) = {0.098202, -3.437974, 0.1, cl__3};
Point(14) = {0.098202, -3.437974, 0, cl__3};
Point(15) = {0.098202, 4.889153, 0.1, cl__4};
Point(16) = {0.098202, 4.889153, 0, cl__4};
Point(17) = {34.871904, -3.437974, 0, cl__5};
Point(18) = {34.871904, -3.437974, 0.1, cl__5};
Point(19) = {34.871904, 4.889153, 0.1, cl__6};
Point(20) = {34.871904, 4.889153, 0, cl__6};
p13 = newp;
Point(p13 + 1) = {5.063763450332409, 1.388510718575065, 0.1};
Point(p13 + 2) = {5.041782707320325, 1.480067102389715, 0.1};
Point(p13 + 3) = {5.005750009806609, 1.567057729416216, 0.1};
Point(p13 + 4) = {4.956552602389715, 1.647340601711837, 0.1};
Point(p13 + 5) = {4.895401888517082, 1.718938888517082, 0.1};
Point(p13 + 6) = {4.823803601711837, 1.780089602389715, 0.1};
Point(p13 + 7) = {4.743520729416216, 1.829287009806609, 0.1};
Point(p13 + 8) = {4.656530102389715, 1.865319707320325, 0.1};
Point(p13 + 9) = {4.564973718575065, 1.887300450332409, 0.1};
Point(p13 + 10) = {4.471106, 1.894688, 0.1};
Point(p13 + 11) = {4.377238281424934, 1.887300450332409, 0.1};
Point(p13 + 12) = {4.285681897610284, 1.865319707320325, 0.1};
Point(p13 + 13) = {4.198691270583783, 1.829287009806609, 0.1};
Point(p13 + 14) = {4.118408398288163, 1.780089602389715, 0.1};
Point(p13 + 15) = {4.046810111482918, 1.718938888517082, 0.1};
Point(p13 + 16) = {3.985659397610284, 1.647340601711837, 0.1};
Point(p13 + 17) = {3.936461990193391, 1.567057729416216, 0.1};
Point(p13 + 18) = {3.900429292679674, 1.480067102389715, 0.1};
Point(p13 + 19) = {3.87844854966759, 1.388510718575065, 0.1};
Point(p13 + 20) = {3.871061, 1.294643, 0.1};
Point(p13 + 21) = {3.87844854966759, 1.200775281424935, 0.1};
Point(p13 + 22) = {3.900429292679674, 1.109218897610285, 0.1};
Point(p13 + 23) = {3.93646199019339, 1.022228270583784, 0.1};
Point(p13 + 24) = {3.985659397610284, 0.9419453982881629, 0.1};
Point(p13 + 25) = {4.046810111482918, 0.8703471114829181, 0.1};
Point(p13 + 26) = {4.118408398288163, 0.8091963976102847, 0.1};
Point(p13 + 27) = {4.198691270583783, 0.7599989901933908, 0.1};
Point(p13 + 28) = {4.285681897610284, 0.7239662926796745, 0.1};
Point(p13 + 29) = {4.377238281424934, 0.7019855496675905, 0.1};
Point(p13 + 30) = {4.471106, 0.6945979999999999, 0.1};
Point(p13 + 31) = {4.564973718575065, 0.7019855496675905, 0.1};
Point(p13 + 32) = {4.656530102389715, 0.7239662926796745, 0.1};
Point(p13 + 33) = {4.743520729416216, 0.7599989901933907, 0.1};
Point(p13 + 34) = {4.823803601711837, 0.8091963976102845, 0.1};
Point(p13 + 35) = {4.895401888517082, 0.870347111482918, 0.1};
Point(p13 + 36) = {4.956552602389715, 0.9419453982881629, 0.1};
Point(p13 + 37) = {5.005750009806609, 1.022228270583784, 0.1};
Point(p13 + 38) = {5.041782707320325, 1.109218897610285, 0.1};
Point(p13 + 39) = {5.063763450332409, 1.200775281424935, 0.1};
Spline(13) = {9, p13 + 1, p13 + 2, p13 + 3, p13 + 4, p13 + 5, p13 + 6, p13 + 7, p13 + 8, p13 + 9, p13 + 10, p13 + 11, p13 + 12, p13 + 13, p13 + 14, p13 + 15, p13 + 16, p13 + 17, p13 + 18, p13 + 19, p13 + 20, p13 + 21, p13 + 22, p13 + 23, p13 + 24, p13 + 25, p13 + 26, p13 + 27, p13 + 28, p13 + 29, p13 + 30, p13 + 31, p13 + 32, p13 + 33, p13 + 34, p13 + 35, p13 + 36, p13 + 37, p13 + 38, p13 + 39, 9};
Line(14) = {10, 9};
p15 = newp;
Point(p15 + 1) = {5.063763450332409, 1.388510718575065, 0};
Point(p15 + 2) = {5.041782707320325, 1.480067102389715, 0};
Point(p15 + 3) = {5.005750009806609, 1.567057729416216, 0};
Point(p15 + 4) = {4.956552602389715, 1.647340601711837, 0};
Point(p15 + 5) = {4.895401888517082, 1.718938888517082, 0};
Point(p15 + 6) = {4.823803601711837, 1.780089602389715, 0};
Point(p15 + 7) = {4.743520729416216, 1.829287009806609, 0};
Point(p15 + 8) = {4.656530102389715, 1.865319707320325, 0};
Point(p15 + 9) = {4.564973718575065, 1.887300450332409, 0};
Point(p15 + 10) = {4.471106, 1.894688, 0};
Point(p15 + 11) = {4.377238281424934, 1.887300450332409, 0};
Point(p15 + 12) = {4.285681897610284, 1.865319707320325, 0};
Point(p15 + 13) = {4.198691270583783, 1.829287009806609, 0};
Point(p15 + 14) = {4.118408398288163, 1.780089602389715, 0};
Point(p15 + 15) = {4.046810111482918, 1.718938888517082, 0};
Point(p15 + 16) = {3.985659397610284, 1.647340601711837, 0};
Point(p15 + 17) = {3.936461990193391, 1.567057729416216, 0};
Point(p15 + 18) = {3.900429292679674, 1.480067102389715, 0};
Point(p15 + 19) = {3.87844854966759, 1.388510718575065, 0};
Point(p15 + 20) = {3.871061, 1.294643, 0};
Point(p15 + 21) = {3.87844854966759, 1.200775281424935, 0};
Point(p15 + 22) = {3.900429292679674, 1.109218897610285, 0};
Point(p15 + 23) = {3.93646199019339, 1.022228270583784, 0};
Point(p15 + 24) = {3.985659397610284, 0.9419453982881629, 0};
Point(p15 + 25) = {4.046810111482918, 0.8703471114829181, 0};
Point(p15 + 26) = {4.118408398288163, 0.8091963976102847, 0};
Point(p15 + 27) = {4.198691270583783, 0.7599989901933908, 0};
Point(p15 + 28) = {4.285681897610284, 0.7239662926796745, 0};
Point(p15 + 29) = {4.377238281424934, 0.7019855496675905, 0};
Point(p15 + 30) = {4.471106, 0.6945979999999999, 0};
Point(p15 + 31) = {4.564973718575065, 0.7019855496675905, 0};
Point(p15 + 32) = {4.656530102389715, 0.7239662926796745, 0};
Point(p15 + 33) = {4.743520729416216, 0.7599989901933907, 0};
Point(p15 + 34) = {4.823803601711837, 0.8091963976102845, 0};
Point(p15 + 35) = {4.895401888517082, 0.870347111482918, 0};
Point(p15 + 36) = {4.956552602389715, 0.9419453982881629, 0};
Point(p15 + 37) = {5.005750009806609, 1.022228270583784, 0};
Point(p15 + 38) = {5.041782707320325, 1.109218897610285, 0};
Point(p15 + 39) = {5.063763450332409, 1.200775281424935, 0};
Spline(15) = {10, p15 + 1, p15 + 2, p15 + 3, p15 + 4, p15 + 5, p15 + 6, p15 + 7, p15 + 8, p15 + 9, p15 + 10, p15 + 11, p15 + 12, p15 + 13, p15 + 14, p15 + 15, p15 + 16, p15 + 17, p15 + 18, p15 + 19, p15 + 20, p15 + 21, p15 + 22, p15 + 23, p15 + 24, p15 + 25, p15 + 26, p15 + 27, p15 + 28, p15 + 29, p15 + 30, p15 + 31, p15 + 32, p15 + 33, p15 + 34, p15 + 35, p15 + 36, p15 + 37, p15 + 38, p15 + 39, 10};
p16 = newp;
Point(p16 + 1) = {22.41141269730193, 3.45976791542739, 0.1};
Point(p16 + 2) = {22.38145570423495, 3.584547771761911, 0.1};
Point(p16 + 3) = {22.33234766138991, 3.703105074820005, 0.1};
Point(p16 + 4) = {22.26529777176191, 3.812520550331252, 0.1};
Point(p16 + 5) = {22.18195702615942, 3.910100026159422, 0.1};
Point(p16 + 6) = {22.08437755033125, 3.99344077176191, 0.1};
Point(p16 + 7) = {21.97496207482, 4.060490661389909, 0.1};
Point(p16 + 8) = {21.85640477176191, 4.109598704234949, 0.1};
Point(p16 + 9) = {21.73162491542739, 4.139555697301935, 0.1};
Point(p16 + 10) = {21.603695, 4.149624, 0.1};
Point(p16 + 11) = {21.47576508457261, 4.139555697301935, 0.1};
Point(p16 + 12) = {21.35098522823809, 4.109598704234949, 0.1};
Point(p16 + 13) = {21.23242792517999, 4.060490661389909, 0.1};
Point(p16 + 14) = {21.12301244966875, 3.99344077176191, 0.1};
Point(p16 + 15) = {21.02543297384058, 3.910100026159422, 0.1};
Point(p16 + 16) = {20.94209222823809, 3.812520550331252, 0.1};
Point(p16 + 17) = {20.87504233861009, 3.703105074820005, 0.1};
Point(p16 + 18) = {20.82593429576505, 3.584547771761911, 0.1};
Point(p16 + 19) = {20.79597730269806, 3.45976791542739, 0.1};
Point(p16 + 20) = {20.785909, 3.331838, 0.1};
Point(p16 + 21) = {20.79597730269806, 3.20390808457261, 0.1};
Point(p16 + 22) = {20.82593429576505, 3.079128228238089, 0.1};
Point(p16 + 23) = {20.87504233861009, 2.960570925179995, 0.1};
Point(p16 + 24) = {20.94209222823809, 2.851155449668747, 0.1};
Point(p16 + 25) = {21.02543297384058, 2.753575973840578, 0.1};
Point(p16 + 26) = {21.12301244966875, 2.670235228238089, 0.1};
Point(p16 + 27) = {21.23242792517999, 2.603185338610091, 0.1};
Point(p16 + 28) = {21.35098522823809, 2.554077295765051, 0.1};
Point(p16 + 29) = {21.47576508457261, 2.524120302698065, 0.1};
Point(p16 + 30) = {21.603695, 2.514052, 0.1};
Point(p16 + 31) = {21.73162491542739, 2.524120302698065, 0.1};
Point(p16 + 32) = {21.85640477176191, 2.554077295765051, 0.1};
Point(p16 + 33) = {21.97496207482, 2.603185338610091, 0.1};
Point(p16 + 34) = {22.08437755033125, 2.670235228238089, 0.1};
Point(p16 + 35) = {22.18195702615942, 2.753575973840578, 0.1};
Point(p16 + 36) = {22.26529777176191, 2.851155449668747, 0.1};
Point(p16 + 37) = {22.33234766138991, 2.960570925179995, 0.1};
Point(p16 + 38) = {22.38145570423495, 3.079128228238089, 0.1};
Point(p16 + 39) = {22.41141269730193, 3.20390808457261, 0.1};
Spline(16) = {11, p16 + 1, p16 + 2, p16 + 3, p16 + 4, p16 + 5, p16 + 6, p16 + 7, p16 + 8, p16 + 9, p16 + 10, p16 + 11, p16 + 12, p16 + 13, p16 + 14, p16 + 15, p16 + 16, p16 + 17, p16 + 18, p16 + 19, p16 + 20, p16 + 21, p16 + 22, p16 + 23, p16 + 24, p16 + 25, p16 + 26, p16 + 27, p16 + 28, p16 + 29, p16 + 30, p16 + 31, p16 + 32, p16 + 33, p16 + 34, p16 + 35, p16 + 36, p16 + 37, p16 + 38, p16 + 39, 11};
Line(17) = {12, 11};
p18 = newp;
Point(p18 + 1) = {22.41141269730193, 3.45976791542739, 0};
Point(p18 + 2) = {22.38145570423495, 3.584547771761911, 0};
Point(p18 + 3) = {22.33234766138991, 3.703105074820005, 0};
Point(p18 + 4) = {22.26529777176191, 3.812520550331252, 0};
Point(p18 + 5) = {22.18195702615942, 3.910100026159422, 0};
Point(p18 + 6) = {22.08437755033125, 3.99344077176191, 0};
Point(p18 + 7) = {21.97496207482, 4.060490661389909, 0};
Point(p18 + 8) = {21.85640477176191, 4.109598704234949, 0};
Point(p18 + 9) = {21.73162491542739, 4.139555697301935, 0};
Point(p18 + 10) = {21.603695, 4.149624, 0};
Point(p18 + 11) = {21.47576508457261, 4.139555697301935, 0};
Point(p18 + 12) = {21.35098522823809, 4.109598704234949, 0};
Point(p18 + 13) = {21.23242792517999, 4.060490661389909, 0};
Point(p18 + 14) = {21.12301244966875, 3.99344077176191, 0};
Point(p18 + 15) = {21.02543297384058, 3.910100026159422, 0};
Point(p18 + 16) = {20.94209222823809, 3.812520550331252, 0};
Point(p18 + 17) = {20.87504233861009, 3.703105074820005, 0};
Point(p18 + 18) = {20.82593429576505, 3.584547771761911, 0};
Point(p18 + 19) = {20.79597730269806, 3.45976791542739, 0};
Point(p18 + 20) = {20.785909, 3.331838, 0};
Point(p18 + 21) = {20.79597730269806, 3.20390808457261, 0};
Point(p18 + 22) = {20.82593429576505, 3.079128228238089, 0};
Point(p18 + 23) = {20.87504233861009, 2.960570925179995, 0};
Point(p18 + 24) = {20.94209222823809, 2.851155449668747, 0};
Point(p18 + 25) = {21.02543297384058, 2.753575973840578, 0};
Point(p18 + 26) = {21.12301244966875, 2.670235228238089, 0};
Point(p18 + 27) = {21.23242792517999, 2.603185338610091, 0};
Point(p18 + 28) = {21.35098522823809, 2.554077295765051, 0};
Point(p18 + 29) = {21.47576508457261, 2.524120302698065, 0};
Point(p18 + 30) = {21.603695, 2.514052, 0};
Point(p18 + 31) = {21.73162491542739, 2.524120302698065, 0};
Point(p18 + 32) = {21.85640477176191, 2.554077295765051, 0};
Point(p18 + 33) = {21.97496207482, 2.603185338610091, 0};
Point(p18 + 34) = {22.08437755033125, 2.670235228238089, 0};
Point(p18 + 35) = {22.18195702615942, 2.753575973840578, 0};
Point(p18 + 36) = {22.26529777176191, 2.851155449668747, 0};
Point(p18 + 37) = {22.33234766138991, 2.960570925179995, 0};
Point(p18 + 38) = {22.38145570423495, 3.079128228238089, 0};
Point(p18 + 39) = {22.41141269730193, 3.20390808457261, 0};
Spline(18) = {12, p18 + 1, p18 + 2, p18 + 3, p18 + 4, p18 + 5, p18 + 6, p18 + 7, p18 + 8, p18 + 9, p18 + 10, p18 + 11, p18 + 12, p18 + 13, p18 + 14, p18 + 15, p18 + 16, p18 + 17, p18 + 18, p18 + 19, p18 + 20, p18 + 21, p18 + 22, p18 + 23, p18 + 24, p18 + 25, p18 + 26, p18 + 27, p18 + 28, p18 + 29, p18 + 30, p18 + 31, p18 + 32, p18 + 33, p18 + 34, p18 + 35, p18 + 36, p18 + 37, p18 + 38, p18 + 39, 12};
Line(19) = {14, 13};
Line(20) = {13, 15};
Line(21) = {16, 15};
Line(22) = {14, 16};
Line(23) = {14, 17};
Line(24) = {17, 18};
Line(25) = {13, 18};
Line(26) = {15, 19};
Line(27) = {18, 19};
Line(28) = {16, 20};
Line(29) = {20, 19};
Line(30) = {17, 20};
Curve Loop(7) = {-13, -14, 15, 14};
Surface(7) = {7};
Curve Loop(8) = {13};
Plane Surface(8) = {8};
Curve Loop(9) = {15};
Plane Surface(9) = {9};
Curve Loop(10) = {-16, -17, 18, 17};
Surface(10) = {10};
Curve Loop(11) = {16};
Plane Surface(11) = {11};
Curve Loop(12) = {18};
Plane Surface(12) = {12};
Curve Loop(13) = {-19, 22, 21, -20};
Plane Surface(13) = {13};
Curve Loop(14) = {-23, 19, 25, -24};
Plane Surface(14) = {14};
Curve Loop(15) = {-20, 25, 27, -26, -13, -16};
Plane Surface(15) = {15};
Curve Loop(16) = {-28, 21, 26, -29};
Plane Surface(16) = {16};
Curve Loop(17) = {-22, 23, 30, -28, -15, -18};
Plane Surface(17) = {17};
Curve Loop(18) = {-24, 30, 29, -27};
Plane Surface(18) = {18};
Surface Loop(1) = {13, 14, 15, 16, 17, 18, 7, 10};
Volume(1) = {1};
Surface Loop(2) = {7, 8, 9};
Volume(2) = {2};
Surface Loop(3) = {10, 11, 12};
Volume(3) = {3};
Physical Surface("WALLS") = {13, 18};
Physical Surface("LOAD") = {8, 11};
Physical Surface("BORDER") = {7, 9, 10, 12, 14, 15, 16, 17};
Physical Volume("SOLID") = {1, 2, 3};
