cl__1 = 0.097654;
cl__2 = 0.083466;
cl__3 = 0.740414;
cl__4 = 0.211168;
cl__5 = 3.250954;
cl__6 = 3.847937;
Point(9) = {3.016816, 2.895398, 0.1, cl__1};
Point(10) = {3.016816, 2.895398, 0, cl__1};
Point(11) = {22.239906, -0.4626570000000002, 0.1, cl__2};
Point(12) = {22.239906, -0.4626570000000002, 0, cl__2};
Point(13) = {0.562138, -4.045344, 1, cl__3};
Point(14) = {0.562138, -4.045344, 0, cl__3};
Point(15) = {0.562138, 5.181013999999999, 1, cl__4};
Point(16) = {0.562138, 5.181013999999999, 0, cl__4};
Point(17) = {33.984019, -4.045344, 0, cl__5};
Point(18) = {33.984019, -4.045344, 1, cl__5};
Point(19) = {33.984019, 5.181013999999999, 1, cl__6};
Point(20) = {33.984019, 5.181013999999999, 0, cl__6};
p13 = newp;
Point(p13 + 1) = {3.004793184436435, 3.048162356055922, 0.1};
Point(p13 + 2) = {2.969020779366353, 3.197165146669917, 0.1};
Point(p13 + 3) = {2.910379620124385, 3.338737428625157, 0.1};
Point(p13 + 4) = {2.830313646669917, 3.469393222488439, 0.1};
Point(p13 + 5) = {2.73079434899313, 3.58591534899313, 0.1};
Point(p13 + 6) = {2.61427222248844, 3.685434646669917, 0.1};
Point(p13 + 7) = {2.483616428625157, 3.765500620124385, 0.1};
Point(p13 + 8) = {2.342044146669917, 3.824141779366353, 0.1};
Point(p13 + 9) = {2.193041356055922, 3.859914184436435, 0.1};
Point(p13 + 10) = {2.040277, 3.871937, 0.1};
Point(p13 + 11) = {1.887512643944078, 3.859914184436435, 0.1};
Point(p13 + 12) = {1.738509853330083, 3.824141779366353, 0.1};
Point(p13 + 13) = {1.596937571374843, 3.765500620124385, 0.1};
Point(p13 + 14) = {1.466281777511561, 3.685434646669917, 0.1};
Point(p13 + 15) = {1.34975965100687, 3.58591534899313, 0.1};
Point(p13 + 16) = {1.250240353330083, 3.46939322248844, 0.1};
Point(p13 + 17) = {1.170174379875616, 3.338737428625158, 0.1};
Point(p13 + 18) = {1.111533220633647, 3.197165146669917, 0.1};
Point(p13 + 19) = {1.075760815563565, 3.048162356055922, 0.1};
Point(p13 + 20) = {1.063738, 2.895398, 0.1};
Point(p13 + 21) = {1.075760815563565, 2.742633643944078, 0.1};
Point(p13 + 22) = {1.111533220633647, 2.593630853330083, 0.1};
Point(p13 + 23) = {1.170174379875615, 2.452058571374844, 0.1};
Point(p13 + 24) = {1.250240353330083, 2.321402777511561, 0.1};
Point(p13 + 25) = {1.34975965100687, 2.20488065100687, 0.1};
Point(p13 + 26) = {1.46628177751156, 2.105361353330084, 0.1};
Point(p13 + 27) = {1.596937571374843, 2.025295379875616, 0.1};
Point(p13 + 28) = {1.738509853330083, 1.966654220633647, 0.1};
Point(p13 + 29) = {1.887512643944078, 1.930881815563565, 0.1};
Point(p13 + 30) = {2.040277, 1.918859, 0.1};
Point(p13 + 31) = {2.193041356055922, 1.930881815563565, 0.1};
Point(p13 + 32) = {2.342044146669917, 1.966654220633647, 0.1};
Point(p13 + 33) = {2.483616428625157, 2.025295379875615, 0.1};
Point(p13 + 34) = {2.614272222488439, 2.105361353330083, 0.1};
Point(p13 + 35) = {2.73079434899313, 2.20488065100687, 0.1};
Point(p13 + 36) = {2.830313646669917, 2.32140277751156, 0.1};
Point(p13 + 37) = {2.910379620124385, 2.452058571374843, 0.1};
Point(p13 + 38) = {2.969020779366353, 2.593630853330083, 0.1};
Point(p13 + 39) = {3.004793184436435, 2.742633643944078, 0.1};
Spline(13) = {9, p13 + 1, p13 + 2, p13 + 3, p13 + 4, p13 + 5, p13 + 6, p13 + 7, p13 + 8, p13 + 9, p13 + 10, p13 + 11, p13 + 12, p13 + 13, p13 + 14, p13 + 15, p13 + 16, p13 + 17, p13 + 18, p13 + 19, p13 + 20, p13 + 21, p13 + 22, p13 + 23, p13 + 24, p13 + 25, p13 + 26, p13 + 27, p13 + 28, p13 + 29, p13 + 30, p13 + 31, p13 + 32, p13 + 33, p13 + 34, p13 + 35, p13 + 36, p13 + 37, p13 + 38, p13 + 39, 9};
Line(14) = {10, 9};
p15 = newp;
Point(p15 + 1) = {3.004793184436435, 3.048162356055922, 0};
Point(p15 + 2) = {2.969020779366353, 3.197165146669917, 0};
Point(p15 + 3) = {2.910379620124385, 3.338737428625157, 0};
Point(p15 + 4) = {2.830313646669917, 3.469393222488439, 0};
Point(p15 + 5) = {2.73079434899313, 3.58591534899313, 0};
Point(p15 + 6) = {2.61427222248844, 3.685434646669917, 0};
Point(p15 + 7) = {2.483616428625157, 3.765500620124385, 0};
Point(p15 + 8) = {2.342044146669917, 3.824141779366353, 0};
Point(p15 + 9) = {2.193041356055922, 3.859914184436435, 0};
Point(p15 + 10) = {2.040277, 3.871937, 0};
Point(p15 + 11) = {1.887512643944078, 3.859914184436435, 0};
Point(p15 + 12) = {1.738509853330083, 3.824141779366353, 0};
Point(p15 + 13) = {1.596937571374843, 3.765500620124385, 0};
Point(p15 + 14) = {1.466281777511561, 3.685434646669917, 0};
Point(p15 + 15) = {1.34975965100687, 3.58591534899313, 0};
Point(p15 + 16) = {1.250240353330083, 3.46939322248844, 0};
Point(p15 + 17) = {1.170174379875616, 3.338737428625158, 0};
Point(p15 + 18) = {1.111533220633647, 3.197165146669917, 0};
Point(p15 + 19) = {1.075760815563565, 3.048162356055922, 0};
Point(p15 + 20) = {1.063738, 2.895398, 0};
Point(p15 + 21) = {1.075760815563565, 2.742633643944078, 0};
Point(p15 + 22) = {1.111533220633647, 2.593630853330083, 0};
Point(p15 + 23) = {1.170174379875615, 2.452058571374844, 0};
Point(p15 + 24) = {1.250240353330083, 2.321402777511561, 0};
Point(p15 + 25) = {1.34975965100687, 2.20488065100687, 0};
Point(p15 + 26) = {1.46628177751156, 2.105361353330084, 0};
Point(p15 + 27) = {1.596937571374843, 2.025295379875616, 0};
Point(p15 + 28) = {1.738509853330083, 1.966654220633647, 0};
Point(p15 + 29) = {1.887512643944078, 1.930881815563565, 0};
Point(p15 + 30) = {2.040277, 1.918859, 0};
Point(p15 + 31) = {2.193041356055922, 1.930881815563565, 0};
Point(p15 + 32) = {2.342044146669917, 1.966654220633647, 0};
Point(p15 + 33) = {2.483616428625157, 2.025295379875615, 0};
Point(p15 + 34) = {2.614272222488439, 2.105361353330083, 0};
Point(p15 + 35) = {2.73079434899313, 2.20488065100687, 0};
Point(p15 + 36) = {2.830313646669917, 2.32140277751156, 0};
Point(p15 + 37) = {2.910379620124385, 2.452058571374843, 0};
Point(p15 + 38) = {2.969020779366353, 2.593630853330083, 0};
Point(p15 + 39) = {3.004793184436435, 2.742633643944078, 0};
Spline(15) = {10, p15 + 1, p15 + 2, p15 + 3, p15 + 4, p15 + 5, p15 + 6, p15 + 7, p15 + 8, p15 + 9, p15 + 10, p15 + 11, p15 + 12, p15 + 13, p15 + 14, p15 + 15, p15 + 16, p15 + 17, p15 + 18, p15 + 19, p15 + 20, p15 + 21, p15 + 22, p15 + 23, p15 + 24, p15 + 25, p15 + 26, p15 + 27, p15 + 28, p15 + 29, p15 + 30, p15 + 31, p15 + 32, p15 + 33, p15 + 34, p15 + 35, p15 + 36, p15 + 37, p15 + 38, p15 + 39, 10};
p16 = newp;
Point(p16 + 1) = {22.22962998729612, -0.332087878712916, 0.1};
Point(p16 + 2) = {22.19905497872136, -0.2047338025259895, 0.1};
Point(p16 + 3) = {22.14893383245949, -0.08373065145888914, 0.1};
Point(p16 + 4) = {22.08050069747401, 0.02794207532267878, 0.1};
Point(p16 + 5) = {21.99544062466482, 0.1275346246648201, 0.1};
Point(p16 + 6) = {21.89584807532268, 0.2125946974740104, 0.1};
Point(p16 + 7) = {21.78417534854111, 0.2810278324594905, 0.1};
Point(p16 + 8) = {21.66317219747401, 0.331148978721364, 0.1};
Point(p16 + 9) = {21.53581812128709, 0.3617239872961159, 0.1};
Point(p16 + 10) = {21.405249, 0.372, 0.1};
Point(p16 + 11) = {21.27467987871292, 0.3617239872961158, 0.1};
Point(p16 + 12) = {21.14732580252599, 0.3311489787213641, 0.1};
Point(p16 + 13) = {21.02632265145889, 0.2810278324594906, 0.1};
Point(p16 + 14) = {20.91464992467732, 0.2125946974740105, 0.1};
Point(p16 + 15) = {20.81505737533518, 0.1275346246648202, 0.1};
Point(p16 + 16) = {20.72999730252599, 0.02794207532267884, 0.1};
Point(p16 + 17) = {20.66156416754051, -0.08373065145888903, 0.1};
Point(p16 + 18) = {20.61144302127864, -0.2047338025259894, 0.1};
Point(p16 + 19) = {20.58086801270388, -0.3320878787129159, 0.1};
Point(p16 + 20) = {20.570592, -0.4626569999999999, 0.1};
Point(p16 + 21) = {20.58086801270388, -0.5932261212870839, 0.1};
Point(p16 + 22) = {20.61144302127864, -0.7205801974740107, 0.1};
Point(p16 + 23) = {20.66156416754051, -0.8415833485411105, 0.1};
Point(p16 + 24) = {20.72999730252599, -0.9532560753226786, 0.1};
Point(p16 + 25) = {20.81505737533518, -1.05284862466482, 0.1};
Point(p16 + 26) = {20.91464992467732, -1.13790869747401, 0.1};
Point(p16 + 27) = {21.02632265145889, -1.20634183245949, 0.1};
Point(p16 + 28) = {21.14732580252599, -1.256462978721364, 0.1};
Point(p16 + 29) = {21.27467987871292, -1.287037987296116, 0.1};
Point(p16 + 30) = {21.405249, -1.297314, 0.1};
Point(p16 + 31) = {21.53581812128709, -1.287037987296116, 0.1};
Point(p16 + 32) = {21.66317219747401, -1.256462978721364, 0.1};
Point(p16 + 33) = {21.78417534854111, -1.206341832459491, 0.1};
Point(p16 + 34) = {21.89584807532268, -1.13790869747401, 0.1};
Point(p16 + 35) = {21.99544062466482, -1.05284862466482, 0.1};
Point(p16 + 36) = {22.08050069747401, -0.9532560753226789, 0.1};
Point(p16 + 37) = {22.14893383245949, -0.8415833485411111, 0.1};
Point(p16 + 38) = {22.19905497872136, -0.7205801974740107, 0.1};
Point(p16 + 39) = {22.22962998729612, -0.5932261212870842, 0.1};
Spline(16) = {11, p16 + 1, p16 + 2, p16 + 3, p16 + 4, p16 + 5, p16 + 6, p16 + 7, p16 + 8, p16 + 9, p16 + 10, p16 + 11, p16 + 12, p16 + 13, p16 + 14, p16 + 15, p16 + 16, p16 + 17, p16 + 18, p16 + 19, p16 + 20, p16 + 21, p16 + 22, p16 + 23, p16 + 24, p16 + 25, p16 + 26, p16 + 27, p16 + 28, p16 + 29, p16 + 30, p16 + 31, p16 + 32, p16 + 33, p16 + 34, p16 + 35, p16 + 36, p16 + 37, p16 + 38, p16 + 39, 11};
Line(17) = {12, 11};
p18 = newp;
Point(p18 + 1) = {22.22962998729612, -0.332087878712916, 0};
Point(p18 + 2) = {22.19905497872136, -0.2047338025259895, 0};
Point(p18 + 3) = {22.14893383245949, -0.08373065145888914, 0};
Point(p18 + 4) = {22.08050069747401, 0.02794207532267878, 0};
Point(p18 + 5) = {21.99544062466482, 0.1275346246648201, 0};
Point(p18 + 6) = {21.89584807532268, 0.2125946974740104, 0};
Point(p18 + 7) = {21.78417534854111, 0.2810278324594905, 0};
Point(p18 + 8) = {21.66317219747401, 0.331148978721364, 0};
Point(p18 + 9) = {21.53581812128709, 0.3617239872961159, 0};
Point(p18 + 10) = {21.405249, 0.372, 0};
Point(p18 + 11) = {21.27467987871292, 0.3617239872961158, 0};
Point(p18 + 12) = {21.14732580252599, 0.3311489787213641, 0};
Point(p18 + 13) = {21.02632265145889, 0.2810278324594906, 0};
Point(p18 + 14) = {20.91464992467732, 0.2125946974740105, 0};
Point(p18 + 15) = {20.81505737533518, 0.1275346246648202, 0};
Point(p18 + 16) = {20.72999730252599, 0.02794207532267884, 0};
Point(p18 + 17) = {20.66156416754051, -0.08373065145888903, 0};
Point(p18 + 18) = {20.61144302127864, -0.2047338025259894, 0};
Point(p18 + 19) = {20.58086801270388, -0.3320878787129159, 0};
Point(p18 + 20) = {20.570592, -0.4626569999999999, 0};
Point(p18 + 21) = {20.58086801270388, -0.5932261212870839, 0};
Point(p18 + 22) = {20.61144302127864, -0.7205801974740107, 0};
Point(p18 + 23) = {20.66156416754051, -0.8415833485411105, 0};
Point(p18 + 24) = {20.72999730252599, -0.9532560753226786, 0};
Point(p18 + 25) = {20.81505737533518, -1.05284862466482, 0};
Point(p18 + 26) = {20.91464992467732, -1.13790869747401, 0};
Point(p18 + 27) = {21.02632265145889, -1.20634183245949, 0};
Point(p18 + 28) = {21.14732580252599, -1.256462978721364, 0};
Point(p18 + 29) = {21.27467987871292, -1.287037987296116, 0};
Point(p18 + 30) = {21.405249, -1.297314, 0};
Point(p18 + 31) = {21.53581812128709, -1.287037987296116, 0};
Point(p18 + 32) = {21.66317219747401, -1.256462978721364, 0};
Point(p18 + 33) = {21.78417534854111, -1.206341832459491, 0};
Point(p18 + 34) = {21.89584807532268, -1.13790869747401, 0};
Point(p18 + 35) = {21.99544062466482, -1.05284862466482, 0};
Point(p18 + 36) = {22.08050069747401, -0.9532560753226789, 0};
Point(p18 + 37) = {22.14893383245949, -0.8415833485411111, 0};
Point(p18 + 38) = {22.19905497872136, -0.7205801974740107, 0};
Point(p18 + 39) = {22.22962998729612, -0.5932261212870842, 0};
Spline(18) = {12, p18 + 1, p18 + 2, p18 + 3, p18 + 4, p18 + 5, p18 + 6, p18 + 7, p18 + 8, p18 + 9, p18 + 10, p18 + 11, p18 + 12, p18 + 13, p18 + 14, p18 + 15, p18 + 16, p18 + 17, p18 + 18, p18 + 19, p18 + 20, p18 + 21, p18 + 22, p18 + 23, p18 + 24, p18 + 25, p18 + 26, p18 + 27, p18 + 28, p18 + 29, p18 + 30, p18 + 31, p18 + 32, p18 + 33, p18 + 34, p18 + 35, p18 + 36, p18 + 37, p18 + 38, p18 + 39, 12};
Line(19) = {14, 13};
Line(20) = {13, 15};
Line(21) = {16, 15};
Line(22) = {14, 16};
Line(23) = {14, 17};
Line(24) = {17, 18};
Line(25) = {13, 18};
Line(26) = {15, 19};
Line(27) = {18, 19};
Line(28) = {16, 20};
Line(29) = {20, 19};
Line(30) = {17, 20};
Curve Loop(7) = {-13, -14, 15, 14};
Surface(7) = {7};
Curve Loop(8) = {13};
Plane Surface(8) = {8};
Curve Loop(9) = {15};
Plane Surface(9) = {9};
Curve Loop(10) = {-16, -17, 18, 17};
Surface(10) = {10};
Curve Loop(11) = {16};
Plane Surface(11) = {11};
Curve Loop(12) = {18};
Plane Surface(12) = {12};
Curve Loop(13) = {-19, 22, 21, -20};
Plane Surface(13) = {13};
Curve Loop(14) = {-23, 19, 25, -24};
Plane Surface(14) = {14};
Curve Loop(15) = {-20, 25, 27, -26};
Plane Surface(15) = {15};
Curve Loop(16) = {-28, 21, 26, -29};
Plane Surface(16) = {16};
Curve Loop(17) = {-22, 23, 30, -28, -18, -15};
Plane Surface(17) = {17};
Curve Loop(18) = {-24, 30, 29, -27};
Plane Surface(18) = {18};
Surface Loop(1) = {13, 14, 15, 16, 17, 18, 10, 7, 11, 8};
Volume(1) = {1};
Surface Loop(2) = {7, 8, 9};
Volume(2) = {2};
Surface Loop(3) = {10, 11, 12};
Volume(3) = {3};
Physical Surface("WALLS") = {13, 18};
Physical Surface("LOAD") = {8, 11};
Physical Surface("BORDER") = {7, 9, 10, 12, 14, 15, 16, 17};
Physical Volume("SOLID") = {1, 2, 3};
