cl__1 = 0.076644;
cl__2 = 0.128094;
cl__3 = 4.233579;
cl__4 = 3.123646;
cl__5 = 0.545233;
cl__6 = 0.375252;
Point(9) = {31.091045, 1.418031, 0.1, cl__1};
Point(10) = {31.091045, 1.418031, 0, cl__1};
Point(11) = {15.455412, 2.963881999999999, 0.1, cl__2};
Point(12) = {15.455412, 2.963881999999999, 0, cl__2};
Point(13) = {0.07292, -3.736008, 0.1, cl__3};
Point(14) = {0.07292, -3.736008, 0, cl__3};
Point(15) = {0.07292, 4.878697000000001, 0.1, cl__4};
Point(16) = {0.07292, 4.878697000000001, 0, cl__4};
Point(17) = {32.50596400000001, -3.736008, 0, cl__5};
Point(18) = {32.50596400000001, -3.736008, 0.1, cl__5};
Point(19) = {32.50596400000001, 4.878697000000001, 0.1, cl__6};
Point(20) = {32.50596400000001, 4.878697000000001, 0, cl__6};
p13 = newp;
Point(p13 + 1) = {31.08160890101237, 1.537928005647574, 0.1};
Point(p13 + 2) = {31.05353295212319, 1.654872749100757, 0.1};
Point(p13 + 3) = {31.00750847637283, 1.765985662658379, 0.1};
Point(p13 + 4) = {30.94466874910076, 1.868530777626034, 0.1};
Point(p13 + 5) = {30.86656109294549, 1.959983092945493, 0.1};
Point(p13 + 6) = {30.77510877762603, 2.038090749100757, 0.1};
Point(p13 + 7) = {30.67256366265838, 2.100930476372836, 0.1};
Point(p13 + 8) = {30.56145074910076, 2.146954952123192, 0.1};
Point(p13 + 9) = {30.44450600564757, 2.175030901012375, 0.1};
Point(p13 + 10) = {30.324609, 2.184467, 0.1};
Point(p13 + 11) = {30.20471199435243, 2.175030901012375, 0.1};
Point(p13 + 12) = {30.08776725089924, 2.146954952123192, 0.1};
Point(p13 + 13) = {29.97665433734162, 2.100930476372836, 0.1};
Point(p13 + 14) = {29.87410922237396, 2.038090749100757, 0.1};
Point(p13 + 15) = {29.78265690705451, 1.959983092945493, 0.1};
Point(p13 + 16) = {29.70454925089924, 1.868530777626034, 0.1};
Point(p13 + 17) = {29.64170952362716, 1.765985662658379, 0.1};
Point(p13 + 18) = {29.59568504787681, 1.654872749100757, 0.1};
Point(p13 + 19) = {29.56760909898762, 1.537928005647575, 0.1};
Point(p13 + 20) = {29.558173, 1.418031, 0.1};
Point(p13 + 21) = {29.56760909898762, 1.298133994352426, 0.1};
Point(p13 + 22) = {29.59568504787681, 1.181189250899243, 0.1};
Point(p13 + 23) = {29.64170952362716, 1.070076337341621, 0.1};
Point(p13 + 24) = {29.70454925089924, 0.9675312223739662, 0.1};
Point(p13 + 25) = {29.78265690705451, 0.8760789070545073, 0.1};
Point(p13 + 26) = {29.87410922237396, 0.7979712508992429, 0.1};
Point(p13 + 27) = {29.97665433734162, 0.7351315236271642, 0.1};
Point(p13 + 28) = {30.08776725089924, 0.6891070478768078, 0.1};
Point(p13 + 29) = {30.20471199435243, 0.6610310989876251, 0.1};
Point(p13 + 30) = {30.324609, 0.651595, 0.1};
Point(p13 + 31) = {30.44450600564757, 0.661031098987625, 0.1};
Point(p13 + 32) = {30.56145074910076, 0.6891070478768077, 0.1};
Point(p13 + 33) = {30.67256366265838, 0.7351315236271641, 0.1};
Point(p13 + 34) = {30.77510877762603, 0.7979712508992427, 0.1};
Point(p13 + 35) = {30.86656109294549, 0.8760789070545072, 0.1};
Point(p13 + 36) = {30.94466874910076, 0.967531222373966, 0.1};
Point(p13 + 37) = {31.00750847637283, 1.070076337341621, 0.1};
Point(p13 + 38) = {31.05353295212319, 1.181189250899243, 0.1};
Point(p13 + 39) = {31.08160890101237, 1.298133994352425, 0.1};
Spline(13) = {9, p13 + 1, p13 + 2, p13 + 3, p13 + 4, p13 + 5, p13 + 6, p13 + 7, p13 + 8, p13 + 9, p13 + 10, p13 + 11, p13 + 12, p13 + 13, p13 + 14, p13 + 15, p13 + 16, p13 + 17, p13 + 18, p13 + 19, p13 + 20, p13 + 21, p13 + 22, p13 + 23, p13 + 24, p13 + 25, p13 + 26, p13 + 27, p13 + 28, p13 + 29, p13 + 30, p13 + 31, p13 + 32, p13 + 33, p13 + 34, p13 + 35, p13 + 36, p13 + 37, p13 + 38, p13 + 39, 9};
Line(14) = {10, 9};
p15 = newp;
Point(p15 + 1) = {31.08160890101237, 1.537928005647574, 0};
Point(p15 + 2) = {31.05353295212319, 1.654872749100757, 0};
Point(p15 + 3) = {31.00750847637283, 1.765985662658379, 0};
Point(p15 + 4) = {30.94466874910076, 1.868530777626034, 0};
Point(p15 + 5) = {30.86656109294549, 1.959983092945493, 0};
Point(p15 + 6) = {30.77510877762603, 2.038090749100757, 0};
Point(p15 + 7) = {30.67256366265838, 2.100930476372836, 0};
Point(p15 + 8) = {30.56145074910076, 2.146954952123192, 0};
Point(p15 + 9) = {30.44450600564757, 2.175030901012375, 0};
Point(p15 + 10) = {30.324609, 2.184467, 0};
Point(p15 + 11) = {30.20471199435243, 2.175030901012375, 0};
Point(p15 + 12) = {30.08776725089924, 2.146954952123192, 0};
Point(p15 + 13) = {29.97665433734162, 2.100930476372836, 0};
Point(p15 + 14) = {29.87410922237396, 2.038090749100757, 0};
Point(p15 + 15) = {29.78265690705451, 1.959983092945493, 0};
Point(p15 + 16) = {29.70454925089924, 1.868530777626034, 0};
Point(p15 + 17) = {29.64170952362716, 1.765985662658379, 0};
Point(p15 + 18) = {29.59568504787681, 1.654872749100757, 0};
Point(p15 + 19) = {29.56760909898762, 1.537928005647575, 0};
Point(p15 + 20) = {29.558173, 1.418031, 0};
Point(p15 + 21) = {29.56760909898762, 1.298133994352426, 0};
Point(p15 + 22) = {29.59568504787681, 1.181189250899243, 0};
Point(p15 + 23) = {29.64170952362716, 1.070076337341621, 0};
Point(p15 + 24) = {29.70454925089924, 0.9675312223739662, 0};
Point(p15 + 25) = {29.78265690705451, 0.8760789070545073, 0};
Point(p15 + 26) = {29.87410922237396, 0.7979712508992429, 0};
Point(p15 + 27) = {29.97665433734162, 0.7351315236271642, 0};
Point(p15 + 28) = {30.08776725089924, 0.6891070478768078, 0};
Point(p15 + 29) = {30.20471199435243, 0.6610310989876251, 0};
Point(p15 + 30) = {30.324609, 0.651595, 0};
Point(p15 + 31) = {30.44450600564757, 0.661031098987625, 0};
Point(p15 + 32) = {30.56145074910076, 0.6891070478768077, 0};
Point(p15 + 33) = {30.67256366265838, 0.7351315236271641, 0};
Point(p15 + 34) = {30.77510877762603, 0.7979712508992427, 0};
Point(p15 + 35) = {30.86656109294549, 0.8760789070545072, 0};
Point(p15 + 36) = {30.94466874910076, 0.967531222373966, 0};
Point(p15 + 37) = {31.00750847637283, 1.070076337341621, 0};
Point(p15 + 38) = {31.05353295212319, 1.181189250899243, 0};
Point(p15 + 39) = {31.08160890101237, 1.298133994352425, 0};
Spline(15) = {10, p15 + 1, p15 + 2, p15 + 3, p15 + 4, p15 + 5, p15 + 6, p15 + 7, p15 + 8, p15 + 9, p15 + 10, p15 + 11, p15 + 12, p15 + 13, p15 + 14, p15 + 15, p15 + 16, p15 + 17, p15 + 18, p15 + 19, p15 + 20, p15 + 21, p15 + 22, p15 + 23, p15 + 24, p15 + 25, p15 + 26, p15 + 27, p15 + 28, p15 + 29, p15 + 30, p15 + 31, p15 + 32, p15 + 33, p15 + 34, p15 + 35, p15 + 36, p15 + 37, p15 + 38, p15 + 39, 10};
p16 = newp;
Point(p16 + 1) = {15.43964153993691, 3.164264694345238, 0.1};
Point(p16 + 2) = {15.39271848081356, 3.359713301723662, 0.1};
Point(p16 + 3) = {15.31579822407427, 3.545415228764876, 0.1};
Point(p16 + 4) = {15.21077480172366, 3.716797877715764, 0.1};
Point(p16 + 5) = {15.08023423897275, 3.869641238972752, 0.1};
Point(p16 + 6) = {14.92739087771576, 4.000181801723662, 0.1};
Point(p16 + 7) = {14.75600822876488, 4.105205224074275, 0.1};
Point(p16 + 8) = {14.57030630172366, 4.182125480813565, 0.1};
Point(p16 + 9) = {14.37485769434524, 4.229048539936914, 0.1};
Point(p16 + 10) = {14.174475, 4.244819, 0.1};
Point(p16 + 11) = {13.97409230565476, 4.229048539936914, 0.1};
Point(p16 + 12) = {13.77864369827634, 4.182125480813565, 0.1};
Point(p16 + 13) = {13.59294177123512, 4.105205224074275, 0.1};
Point(p16 + 14) = {13.42155912228424, 4.000181801723662, 0.1};
Point(p16 + 15) = {13.26871576102725, 3.869641238972752, 0.1};
Point(p16 + 16) = {13.13817519827634, 3.716797877715764, 0.1};
Point(p16 + 17) = {13.03315177592572, 3.545415228764876, 0.1};
Point(p16 + 18) = {12.95623151918644, 3.359713301723662, 0.1};
Point(p16 + 19) = {12.90930846006309, 3.164264694345238, 0.1};
Point(p16 + 20) = {12.893538, 2.963882, 0.1};
Point(p16 + 21) = {12.90930846006309, 2.763499305654762, 0.1};
Point(p16 + 22) = {12.95623151918644, 2.568050698276338, 0.1};
Point(p16 + 23) = {13.03315177592572, 2.382348771235125, 0.1};
Point(p16 + 24) = {13.13817519827634, 2.210966122284237, 0.1};
Point(p16 + 25) = {13.26871576102725, 2.058122761027247, 0.1};
Point(p16 + 26) = {13.42155912228424, 1.927582198276338, 0.1};
Point(p16 + 27) = {13.59294177123512, 1.822558775925725, 0.1};
Point(p16 + 28) = {13.77864369827634, 1.745638519186435, 0.1};
Point(p16 + 29) = {13.97409230565476, 1.698715460063086, 0.1};
Point(p16 + 30) = {14.174475, 1.682945, 0.1};
Point(p16 + 31) = {14.37485769434524, 1.698715460063086, 0.1};
Point(p16 + 32) = {14.57030630172366, 1.745638519186435, 0.1};
Point(p16 + 33) = {14.75600822876488, 1.822558775925724, 0.1};
Point(p16 + 34) = {14.92739087771576, 1.927582198276338, 0.1};
Point(p16 + 35) = {15.08023423897275, 2.058122761027247, 0.1};
Point(p16 + 36) = {15.21077480172366, 2.210966122284236, 0.1};
Point(p16 + 37) = {15.31579822407427, 2.382348771235124, 0.1};
Point(p16 + 38) = {15.39271848081356, 2.568050698276338, 0.1};
Point(p16 + 39) = {15.43964153993691, 2.763499305654761, 0.1};
Spline(16) = {11, p16 + 1, p16 + 2, p16 + 3, p16 + 4, p16 + 5, p16 + 6, p16 + 7, p16 + 8, p16 + 9, p16 + 10, p16 + 11, p16 + 12, p16 + 13, p16 + 14, p16 + 15, p16 + 16, p16 + 17, p16 + 18, p16 + 19, p16 + 20, p16 + 21, p16 + 22, p16 + 23, p16 + 24, p16 + 25, p16 + 26, p16 + 27, p16 + 28, p16 + 29, p16 + 30, p16 + 31, p16 + 32, p16 + 33, p16 + 34, p16 + 35, p16 + 36, p16 + 37, p16 + 38, p16 + 39, 11};
Line(17) = {12, 11};
p18 = newp;
Point(p18 + 1) = {15.43964153993691, 3.164264694345238, 0};
Point(p18 + 2) = {15.39271848081356, 3.359713301723662, 0};
Point(p18 + 3) = {15.31579822407427, 3.545415228764876, 0};
Point(p18 + 4) = {15.21077480172366, 3.716797877715764, 0};
Point(p18 + 5) = {15.08023423897275, 3.869641238972752, 0};
Point(p18 + 6) = {14.92739087771576, 4.000181801723662, 0};
Point(p18 + 7) = {14.75600822876488, 4.105205224074275, 0};
Point(p18 + 8) = {14.57030630172366, 4.182125480813565, 0};
Point(p18 + 9) = {14.37485769434524, 4.229048539936914, 0};
Point(p18 + 10) = {14.174475, 4.244819, 0};
Point(p18 + 11) = {13.97409230565476, 4.229048539936914, 0};
Point(p18 + 12) = {13.77864369827634, 4.182125480813565, 0};
Point(p18 + 13) = {13.59294177123512, 4.105205224074275, 0};
Point(p18 + 14) = {13.42155912228424, 4.000181801723662, 0};
Point(p18 + 15) = {13.26871576102725, 3.869641238972752, 0};
Point(p18 + 16) = {13.13817519827634, 3.716797877715764, 0};
Point(p18 + 17) = {13.03315177592572, 3.545415228764876, 0};
Point(p18 + 18) = {12.95623151918644, 3.359713301723662, 0};
Point(p18 + 19) = {12.90930846006309, 3.164264694345238, 0};
Point(p18 + 20) = {12.893538, 2.963882, 0};
Point(p18 + 21) = {12.90930846006309, 2.763499305654762, 0};
Point(p18 + 22) = {12.95623151918644, 2.568050698276338, 0};
Point(p18 + 23) = {13.03315177592572, 2.382348771235125, 0};
Point(p18 + 24) = {13.13817519827634, 2.210966122284237, 0};
Point(p18 + 25) = {13.26871576102725, 2.058122761027247, 0};
Point(p18 + 26) = {13.42155912228424, 1.927582198276338, 0};
Point(p18 + 27) = {13.59294177123512, 1.822558775925725, 0};
Point(p18 + 28) = {13.77864369827634, 1.745638519186435, 0};
Point(p18 + 29) = {13.97409230565476, 1.698715460063086, 0};
Point(p18 + 30) = {14.174475, 1.682945, 0};
Point(p18 + 31) = {14.37485769434524, 1.698715460063086, 0};
Point(p18 + 32) = {14.57030630172366, 1.745638519186435, 0};
Point(p18 + 33) = {14.75600822876488, 1.822558775925724, 0};
Point(p18 + 34) = {14.92739087771576, 1.927582198276338, 0};
Point(p18 + 35) = {15.08023423897275, 2.058122761027247, 0};
Point(p18 + 36) = {15.21077480172366, 2.210966122284236, 0};
Point(p18 + 37) = {15.31579822407427, 2.382348771235124, 0};
Point(p18 + 38) = {15.39271848081356, 2.568050698276338, 0};
Point(p18 + 39) = {15.43964153993691, 2.763499305654761, 0};
Spline(18) = {12, p18 + 1, p18 + 2, p18 + 3, p18 + 4, p18 + 5, p18 + 6, p18 + 7, p18 + 8, p18 + 9, p18 + 10, p18 + 11, p18 + 12, p18 + 13, p18 + 14, p18 + 15, p18 + 16, p18 + 17, p18 + 18, p18 + 19, p18 + 20, p18 + 21, p18 + 22, p18 + 23, p18 + 24, p18 + 25, p18 + 26, p18 + 27, p18 + 28, p18 + 29, p18 + 30, p18 + 31, p18 + 32, p18 + 33, p18 + 34, p18 + 35, p18 + 36, p18 + 37, p18 + 38, p18 + 39, 12};
Line(19) = {14, 13};
Line(20) = {13, 15};
Line(21) = {16, 15};
Line(22) = {14, 16};
Line(23) = {14, 17};
Line(24) = {17, 18};
Line(25) = {13, 18};
Line(26) = {15, 19};
Line(27) = {18, 19};
Line(28) = {16, 20};
Line(29) = {20, 19};
Line(30) = {17, 20};
Curve Loop(7) = {-13, -14, 15, 14};
Surface(7) = {7};
Curve Loop(8) = {13};
Plane Surface(8) = {8};
Curve Loop(9) = {15};
Plane Surface(9) = {9};
Curve Loop(10) = {-16, -17, 18, 17};
Surface(10) = {10};
Curve Loop(11) = {16};
Plane Surface(11) = {11};
Curve Loop(12) = {18};
Plane Surface(12) = {12};
Curve Loop(13) = {-19, 22, 21, -20};
Plane Surface(13) = {13};
Curve Loop(14) = {-23, 19, 25, -24};
Plane Surface(14) = {14};
Curve Loop(15) = {-20, 25, 27, -26, -13, -16};
Plane Surface(15) = {15};
Curve Loop(16) = {-28, 21, 26, -29};
Plane Surface(16) = {16};
Curve Loop(17) = {-22, 23, 30, -28, -15, -18};
Plane Surface(17) = {17};
Curve Loop(18) = {-24, 30, 29, -27};
Plane Surface(18) = {18};
Surface Loop(1) = {13, 14, 15, 16, 17, 18, 7, 10};
Volume(1) = {1};
Surface Loop(2) = {7, 8, 9};
Volume(2) = {2};
Surface Loop(3) = {10, 11, 12};
Volume(3) = {3};
Physical Surface("WALLS") = {13, 18};
Physical Surface("LOAD") = {8, 11};
Physical Surface("BORDER") = {7, 9, 10, 12, 14, 15, 16, 17};
Physical Volume("SOLID") = {1, 2, 3};
