cl__1 = 0.118921;
cl__2 = 0.07597;
cl__3 = 1.174413;
cl__4 = 1.049345;
cl__5 = 0.914702;
cl__6 = 1.04278;
Point(9) = {23.357082, -0.3969490000000003, 0.1, cl__1};
Point(10) = {23.357082, -0.3969490000000003, 0, cl__1};
Point(11) = {11.091651, 1.121157, 0.1, cl__2};
Point(12) = {11.091651, 1.121157, 0, cl__2};
Point(13) = {0.393717, -4.284295, 0.1, cl__3};
Point(14) = {0.393717, -4.284295, 0, cl__3};
Point(15) = {0.393717, 5.656973000000001, 0.1, cl__4};
Point(16) = {0.393717, 5.656973000000001, 0, cl__4};
Point(17) = {31.748004, -4.284295, 0, cl__5};
Point(18) = {31.748004, -4.284295, 0.1, cl__5};
Point(19) = {31.748004, 5.656973000000001, 0.1, cl__6};
Point(20) = {31.748004, 5.656973000000001, 0, cl__6};
p13 = newp;
Point(p13 + 1) = {23.34244083920749, -0.210915413395042, 0.1};
Point(p13 + 2) = {23.29887787079988, -0.02946259110237442, 0.1};
Point(p13 + 3) = {23.22746575963658, 0.1429414961857661, 0.1};
Point(p13 + 4) = {23.12996290889763, 0.3020516876639843, 0.1};
Point(p13 + 5) = {23.00877016236164, 0.4439501623616353, 0.1};
Point(p13 + 6) = {22.86687168766399, 0.5651429088976255, 0.1};
Point(p13 + 7) = {22.70776149618577, 0.6626457596365731, 0.1};
Point(p13 + 8) = {22.53535740889763, 0.7340578707998759, 0.1};
Point(p13 + 9) = {22.35390458660496, 0.7776208392074844, 0.1};
Point(p13 + 10) = {22.167871, 0.792262, 0.1};
Point(p13 + 11) = {21.98183741339504, 0.7776208392074844, 0.1};
Point(p13 + 12) = {21.80038459110238, 0.7340578707998759, 0.1};
Point(p13 + 13) = {21.62798050381424, 0.6626457596365731, 0.1};
Point(p13 + 14) = {21.46887031233602, 0.5651429088976256, 0.1};
Point(p13 + 15) = {21.32697183763837, 0.4439501623616354, 0.1};
Point(p13 + 16) = {21.20577909110238, 0.3020516876639844, 0.1};
Point(p13 + 17) = {21.10827624036343, 0.1429414961857662, 0.1};
Point(p13 + 18) = {21.03686412920013, -0.02946259110237431, 0.1};
Point(p13 + 19) = {20.99330116079252, -0.2109154133950419, 0.1};
Point(p13 + 20) = {20.97866, -0.3969489999999998, 0.1};
Point(p13 + 21) = {20.99330116079252, -0.5829825866049578, 0.1};
Point(p13 + 22) = {21.03686412920013, -0.764435408897626, 0.1};
Point(p13 + 23) = {21.10827624036343, -0.9368394961857656, 0.1};
Point(p13 + 24) = {21.20577909110238, -1.095949687663984, 0.1};
Point(p13 + 25) = {21.32697183763837, -1.237848162361635, 0.1};
Point(p13 + 26) = {21.46887031233602, -1.359040908897625, 0.1};
Point(p13 + 27) = {21.62798050381424, -1.456543759636573, 0.1};
Point(p13 + 28) = {21.80038459110238, -1.527955870799876, 0.1};
Point(p13 + 29) = {21.98183741339504, -1.571518839207484, 0.1};
Point(p13 + 30) = {22.167871, -1.58616, 0.1};
Point(p13 + 31) = {22.35390458660496, -1.571518839207484, 0.1};
Point(p13 + 32) = {22.53535740889763, -1.527955870799876, 0.1};
Point(p13 + 33) = {22.70776149618577, -1.456543759636573, 0.1};
Point(p13 + 34) = {22.86687168766398, -1.359040908897626, 0.1};
Point(p13 + 35) = {23.00877016236164, -1.237848162361636, 0.1};
Point(p13 + 36) = {23.12996290889763, -1.095949687663984, 0.1};
Point(p13 + 37) = {23.22746575963658, -0.9368394961857665, 0.1};
Point(p13 + 38) = {23.29887787079988, -0.7644354088976258, 0.1};
Point(p13 + 39) = {23.34244083920749, -0.5829825866049583, 0.1};
Spline(13) = {9, p13 + 1, p13 + 2, p13 + 3, p13 + 4, p13 + 5, p13 + 6, p13 + 7, p13 + 8, p13 + 9, p13 + 10, p13 + 11, p13 + 12, p13 + 13, p13 + 14, p13 + 15, p13 + 16, p13 + 17, p13 + 18, p13 + 19, p13 + 20, p13 + 21, p13 + 22, p13 + 23, p13 + 24, p13 + 25, p13 + 26, p13 + 27, p13 + 28, p13 + 29, p13 + 30, p13 + 31, p13 + 32, p13 + 33, p13 + 34, p13 + 35, p13 + 36, p13 + 37, p13 + 38, p13 + 39, 9};
Line(14) = {10, 9};
p15 = newp;
Point(p15 + 1) = {23.34244083920749, -0.210915413395042, 0};
Point(p15 + 2) = {23.29887787079988, -0.02946259110237442, 0};
Point(p15 + 3) = {23.22746575963658, 0.1429414961857661, 0};
Point(p15 + 4) = {23.12996290889763, 0.3020516876639843, 0};
Point(p15 + 5) = {23.00877016236164, 0.4439501623616353, 0};
Point(p15 + 6) = {22.86687168766399, 0.5651429088976255, 0};
Point(p15 + 7) = {22.70776149618577, 0.6626457596365731, 0};
Point(p15 + 8) = {22.53535740889763, 0.7340578707998759, 0};
Point(p15 + 9) = {22.35390458660496, 0.7776208392074844, 0};
Point(p15 + 10) = {22.167871, 0.792262, 0};
Point(p15 + 11) = {21.98183741339504, 0.7776208392074844, 0};
Point(p15 + 12) = {21.80038459110238, 0.7340578707998759, 0};
Point(p15 + 13) = {21.62798050381424, 0.6626457596365731, 0};
Point(p15 + 14) = {21.46887031233602, 0.5651429088976256, 0};
Point(p15 + 15) = {21.32697183763837, 0.4439501623616354, 0};
Point(p15 + 16) = {21.20577909110238, 0.3020516876639844, 0};
Point(p15 + 17) = {21.10827624036343, 0.1429414961857662, 0};
Point(p15 + 18) = {21.03686412920013, -0.02946259110237431, 0};
Point(p15 + 19) = {20.99330116079252, -0.2109154133950419, 0};
Point(p15 + 20) = {20.97866, -0.3969489999999998, 0};
Point(p15 + 21) = {20.99330116079252, -0.5829825866049578, 0};
Point(p15 + 22) = {21.03686412920013, -0.764435408897626, 0};
Point(p15 + 23) = {21.10827624036343, -0.9368394961857656, 0};
Point(p15 + 24) = {21.20577909110238, -1.095949687663984, 0};
Point(p15 + 25) = {21.32697183763837, -1.237848162361635, 0};
Point(p15 + 26) = {21.46887031233602, -1.359040908897625, 0};
Point(p15 + 27) = {21.62798050381424, -1.456543759636573, 0};
Point(p15 + 28) = {21.80038459110238, -1.527955870799876, 0};
Point(p15 + 29) = {21.98183741339504, -1.571518839207484, 0};
Point(p15 + 30) = {22.167871, -1.58616, 0};
Point(p15 + 31) = {22.35390458660496, -1.571518839207484, 0};
Point(p15 + 32) = {22.53535740889763, -1.527955870799876, 0};
Point(p15 + 33) = {22.70776149618577, -1.456543759636573, 0};
Point(p15 + 34) = {22.86687168766398, -1.359040908897626, 0};
Point(p15 + 35) = {23.00877016236164, -1.237848162361636, 0};
Point(p15 + 36) = {23.12996290889763, -1.095949687663984, 0};
Point(p15 + 37) = {23.22746575963658, -0.9368394961857665, 0};
Point(p15 + 38) = {23.29887787079988, -0.7644354088976258, 0};
Point(p15 + 39) = {23.34244083920749, -0.5829825866049583, 0};
Spline(15) = {10, p15 + 1, p15 + 2, p15 + 3, p15 + 4, p15 + 5, p15 + 6, p15 + 7, p15 + 8, p15 + 9, p15 + 10, p15 + 11, p15 + 12, p15 + 13, p15 + 14, p15 + 15, p15 + 16, p15 + 17, p15 + 18, p15 + 19, p15 + 20, p15 + 21, p15 + 22, p15 + 23, p15 + 24, p15 + 25, p15 + 26, p15 + 27, p15 + 28, p15 + 29, p15 + 30, p15 + 31, p15 + 32, p15 + 33, p15 + 34, p15 + 35, p15 + 36, p15 + 37, p15 + 38, p15 + 39, 10};
p16 = newp;
Point(p16 + 1) = {11.08229782003847, 1.240000419525528, 0.1};
Point(p16 + 2) = {11.05446858648595, 1.355917519643642, 0.1};
Point(p16 + 3) = {11.00884854743243, 1.466054036642633, 0.1};
Point(p16 + 4) = {10.94656101964364, 1.567698043951844, 0.1};
Point(p16 + 5) = {10.8691397287742, 1.658346728774201, 0.1};
Point(p16 + 6) = {10.77849104395185, 1.735768019643642, 0.1};
Point(p16 + 7) = {10.67684703664263, 1.798055547432427, 0.1};
Point(p16 + 8) = {10.56671051964364, 1.843675586485944, 0.1};
Point(p16 + 9) = {10.45079341952553, 1.871504820038467, 0.1};
Point(p16 + 10) = {10.33195, 1.880858, 0.1};
Point(p16 + 11) = {10.21310658047447, 1.871504820038467, 0.1};
Point(p16 + 12) = {10.09718948035636, 1.843675586485944, 0.1};
Point(p16 + 13) = {9.987052963357367, 1.798055547432427, 0.1};
Point(p16 + 14) = {9.885408956048156, 1.735768019643642, 0.1};
Point(p16 + 15) = {9.794760271225799, 1.658346728774201, 0.1};
Point(p16 + 16) = {9.717338980356359, 1.567698043951844, 0.1};
Point(p16 + 17) = {9.655051452567573, 1.466054036642634, 0.1};
Point(p16 + 18) = {9.609431413514056, 1.355917519643642, 0.1};
Point(p16 + 19) = {9.581602179961534, 1.240000419525529, 0.1};
Point(p16 + 20) = {9.572249000000001, 1.121157, 0.1};
Point(p16 + 21) = {9.581602179961534, 1.002313580474472, 0.1};
Point(p16 + 22) = {9.609431413514056, 0.8863964803563578, 0.1};
Point(p16 + 23) = {9.655051452567573, 0.7762599633573669, 0.1};
Point(p16 + 24) = {9.717338980356359, 0.6746159560481559, 0.1};
Point(p16 + 25) = {9.794760271225799, 0.5839672712257987, 0.1};
Point(p16 + 26) = {9.885408956048156, 0.5065459803563581, 0.1};
Point(p16 + 27) = {9.987052963357367, 0.4442584525675728, 0.1};
Point(p16 + 28) = {10.09718948035636, 0.3986384135140556, 0.1};
Point(p16 + 29) = {10.21310658047447, 0.3708091799615333, 0.1};
Point(p16 + 30) = {10.33195, 0.361456, 0.1};
Point(p16 + 31) = {10.45079341952553, 0.3708091799615333, 0.1};
Point(p16 + 32) = {10.56671051964364, 0.3986384135140555, 0.1};
Point(p16 + 33) = {10.67684703664263, 0.4442584525675727, 0.1};
Point(p16 + 34) = {10.77849104395185, 0.506545980356358, 0.1};
Point(p16 + 35) = {10.8691397287742, 0.5839672712257985, 0.1};
Point(p16 + 36) = {10.94656101964364, 0.6746159560481557, 0.1};
Point(p16 + 37) = {11.00884854743243, 0.7762599633573664, 0.1};
Point(p16 + 38) = {11.05446858648595, 0.8863964803563579, 0.1};
Point(p16 + 39) = {11.08229782003847, 1.002313580474471, 0.1};
Spline(16) = {11, p16 + 1, p16 + 2, p16 + 3, p16 + 4, p16 + 5, p16 + 6, p16 + 7, p16 + 8, p16 + 9, p16 + 10, p16 + 11, p16 + 12, p16 + 13, p16 + 14, p16 + 15, p16 + 16, p16 + 17, p16 + 18, p16 + 19, p16 + 20, p16 + 21, p16 + 22, p16 + 23, p16 + 24, p16 + 25, p16 + 26, p16 + 27, p16 + 28, p16 + 29, p16 + 30, p16 + 31, p16 + 32, p16 + 33, p16 + 34, p16 + 35, p16 + 36, p16 + 37, p16 + 38, p16 + 39, 11};
Line(17) = {12, 11};
p18 = newp;
Point(p18 + 1) = {11.08229782003847, 1.240000419525528, 0};
Point(p18 + 2) = {11.05446858648595, 1.355917519643642, 0};
Point(p18 + 3) = {11.00884854743243, 1.466054036642633, 0};
Point(p18 + 4) = {10.94656101964364, 1.567698043951844, 0};
Point(p18 + 5) = {10.8691397287742, 1.658346728774201, 0};
Point(p18 + 6) = {10.77849104395185, 1.735768019643642, 0};
Point(p18 + 7) = {10.67684703664263, 1.798055547432427, 0};
Point(p18 + 8) = {10.56671051964364, 1.843675586485944, 0};
Point(p18 + 9) = {10.45079341952553, 1.871504820038467, 0};
Point(p18 + 10) = {10.33195, 1.880858, 0};
Point(p18 + 11) = {10.21310658047447, 1.871504820038467, 0};
Point(p18 + 12) = {10.09718948035636, 1.843675586485944, 0};
Point(p18 + 13) = {9.987052963357367, 1.798055547432427, 0};
Point(p18 + 14) = {9.885408956048156, 1.735768019643642, 0};
Point(p18 + 15) = {9.794760271225799, 1.658346728774201, 0};
Point(p18 + 16) = {9.717338980356359, 1.567698043951844, 0};
Point(p18 + 17) = {9.655051452567573, 1.466054036642634, 0};
Point(p18 + 18) = {9.609431413514056, 1.355917519643642, 0};
Point(p18 + 19) = {9.581602179961534, 1.240000419525529, 0};
Point(p18 + 20) = {9.572249000000001, 1.121157, 0};
Point(p18 + 21) = {9.581602179961534, 1.002313580474472, 0};
Point(p18 + 22) = {9.609431413514056, 0.8863964803563578, 0};
Point(p18 + 23) = {9.655051452567573, 0.7762599633573669, 0};
Point(p18 + 24) = {9.717338980356359, 0.6746159560481559, 0};
Point(p18 + 25) = {9.794760271225799, 0.5839672712257987, 0};
Point(p18 + 26) = {9.885408956048156, 0.5065459803563581, 0};
Point(p18 + 27) = {9.987052963357367, 0.4442584525675728, 0};
Point(p18 + 28) = {10.09718948035636, 0.3986384135140556, 0};
Point(p18 + 29) = {10.21310658047447, 0.3708091799615333, 0};
Point(p18 + 30) = {10.33195, 0.361456, 0};
Point(p18 + 31) = {10.45079341952553, 0.3708091799615333, 0};
Point(p18 + 32) = {10.56671051964364, 0.3986384135140555, 0};
Point(p18 + 33) = {10.67684703664263, 0.4442584525675727, 0};
Point(p18 + 34) = {10.77849104395185, 0.506545980356358, 0};
Point(p18 + 35) = {10.8691397287742, 0.5839672712257985, 0};
Point(p18 + 36) = {10.94656101964364, 0.6746159560481557, 0};
Point(p18 + 37) = {11.00884854743243, 0.7762599633573664, 0};
Point(p18 + 38) = {11.05446858648595, 0.8863964803563579, 0};
Point(p18 + 39) = {11.08229782003847, 1.002313580474471, 0};
Spline(18) = {12, p18 + 1, p18 + 2, p18 + 3, p18 + 4, p18 + 5, p18 + 6, p18 + 7, p18 + 8, p18 + 9, p18 + 10, p18 + 11, p18 + 12, p18 + 13, p18 + 14, p18 + 15, p18 + 16, p18 + 17, p18 + 18, p18 + 19, p18 + 20, p18 + 21, p18 + 22, p18 + 23, p18 + 24, p18 + 25, p18 + 26, p18 + 27, p18 + 28, p18 + 29, p18 + 30, p18 + 31, p18 + 32, p18 + 33, p18 + 34, p18 + 35, p18 + 36, p18 + 37, p18 + 38, p18 + 39, 12};
Line(19) = {14, 13};
Line(20) = {13, 15};
Line(21) = {16, 15};
Line(22) = {14, 16};
Line(23) = {14, 17};
Line(24) = {17, 18};
Line(25) = {13, 18};
Line(26) = {15, 19};
Line(27) = {18, 19};
Line(28) = {16, 20};
Line(29) = {20, 19};
Line(30) = {17, 20};
Curve Loop(7) = {-13, -14, 15, 14};
Surface(7) = {7};
Curve Loop(8) = {13};
Plane Surface(8) = {8};
Curve Loop(9) = {15};
Plane Surface(9) = {9};
Curve Loop(10) = {-16, -17, 18, 17};
Surface(10) = {10};
Curve Loop(11) = {16};
Plane Surface(11) = {11};
Curve Loop(12) = {18};
Plane Surface(12) = {12};
Curve Loop(13) = {-19, 22, 21, -20};
Plane Surface(13) = {13};
Curve Loop(14) = {-23, 19, 25, -24};
Plane Surface(14) = {14};
Curve Loop(15) = {-20, 25, 27, -26, -13, -16};
Plane Surface(15) = {15};
Curve Loop(16) = {-28, 21, 26, -29};
Plane Surface(16) = {16};
Curve Loop(17) = {-22, 23, 30, -28, -15, -18};
Plane Surface(17) = {17};
Curve Loop(18) = {-24, 30, 29, -27};
Plane Surface(18) = {18};
Surface Loop(1) = {13, 14, 15, 16, 17, 18, 7, 10};
Volume(1) = {1};
Surface Loop(2) = {7, 8, 9};
Volume(2) = {2};
Surface Loop(3) = {10, 11, 12};
Volume(3) = {3};
Physical Surface("WALLS") = {13, 18};
Physical Surface("LOAD") = {8, 11};
Physical Surface("BORDER") = {7, 9, 10, 12, 14, 15, 16, 17};
Physical Volume("SOLID") = {1, 2, 3};
