cl__1 = 0.147432;
cl__2 = 0.145486;
cl__3 = 1.743757;
cl__4 = 1.021621;
cl__5 = 0.887053;
cl__6 = 0.902155;
Point(9) = {24.940642, 0.007600999999999639, 0.1, cl__1};
Point(10) = {24.940642, 0.007600999999999639, 0, cl__1};
Point(11) = {12.491671, 2.578857, 0.1, cl__2};
Point(12) = {12.491671, 2.578857, 0, cl__2};
Point(13) = {0.07693700000000001, -4.630863, 0.1, cl__3};
Point(14) = {0.07693700000000001, -4.630863, 0, cl__3};
Point(15) = {0.07693700000000001, 4.955763000000001, 0.1, cl__4};
Point(16) = {0.07693700000000001, 4.955763000000001, 0, cl__4};
Point(17) = {32.404721, -4.630863, 0, cl__5};
Point(18) = {32.404721, -4.630863, 0.1, cl__5};
Point(19) = {32.404721, 4.955763000000001, 0.1, cl__6};
Point(20) = {32.404721, 4.955763000000001, 0, cl__6};
p13 = newp;
Point(p13 + 1) = {24.92249063737124, 0.2382359298015083, 0.1};
Point(p13 + 2) = {24.86848349627382, 0.4631918621978556, 0.1};
Point(p13 + 3) = {24.77995041176096, 0.6769296355475077, 0.1};
Point(p13 + 4) = {24.65907136219785, 0.8741863165155959, 0.1};
Point(p13 + 5) = {24.50882279095929, 1.050104790959294, 0.1};
Point(p13 + 6) = {24.3329043165156, 1.200353362197855, 0.1};
Point(p13 + 7) = {24.13564763554751, 1.321232411760967, 0.1};
Point(p13 + 8) = {23.92190986219785, 1.40976549627382, 0.1};
Point(p13 + 9) = {23.69695392980151, 1.463772637371245, 0.1};
Point(p13 + 10) = {23.466319, 1.481924, 0.1};
Point(p13 + 11) = {23.23568407019849, 1.463772637371245, 0.1};
Point(p13 + 12) = {23.01072813780214, 1.40976549627382, 0.1};
Point(p13 + 13) = {22.79699036445249, 1.321232411760967, 0.1};
Point(p13 + 14) = {22.5997336834844, 1.200353362197856, 0.1};
Point(p13 + 15) = {22.4238152090407, 1.050104790959294, 0.1};
Point(p13 + 16) = {22.27356663780214, 0.8741863165155961, 0.1};
Point(p13 + 17) = {22.15268758823903, 0.676929635547508, 0.1};
Point(p13 + 18) = {22.06415450372618, 0.4631918621978558, 0.1};
Point(p13 + 19) = {22.01014736262875, 0.2382359298015085, 0.1};
Point(p13 + 20) = {21.991996, 0.007601000000000181, 0.1};
Point(p13 + 21) = {22.01014736262875, -0.2230339298015081, 0.1};
Point(p13 + 22) = {22.06415450372618, -0.447989862197856, 0.1};
Point(p13 + 23) = {22.15268758823903, -0.6617276355475071, 0.1};
Point(p13 + 24) = {22.27356663780214, -0.8589843165155958, 0.1};
Point(p13 + 25) = {22.4238152090407, -1.034902790959294, 0.1};
Point(p13 + 26) = {22.5997336834844, -1.185151362197856, 0.1};
Point(p13 + 27) = {22.79699036445249, -1.306030411760967, 0.1};
Point(p13 + 28) = {23.01072813780214, -1.39456349627382, 0.1};
Point(p13 + 29) = {23.23568407019849, -1.448570637371245, 0.1};
Point(p13 + 30) = {23.466319, -1.466722, 0.1};
Point(p13 + 31) = {23.69695392980151, -1.448570637371245, 0.1};
Point(p13 + 32) = {23.92190986219785, -1.39456349627382, 0.1};
Point(p13 + 33) = {24.13564763554751, -1.306030411760967, 0.1};
Point(p13 + 34) = {24.3329043165156, -1.185151362197856, 0.1};
Point(p13 + 35) = {24.50882279095929, -1.034902790959295, 0.1};
Point(p13 + 36) = {24.65907136219785, -0.8589843165155961, 0.1};
Point(p13 + 37) = {24.77995041176096, -0.6617276355475081, 0.1};
Point(p13 + 38) = {24.86848349627382, -0.4479898621978559, 0.1};
Point(p13 + 39) = {24.92249063737124, -0.2230339298015087, 0.1};
Spline(13) = {9, p13 + 1, p13 + 2, p13 + 3, p13 + 4, p13 + 5, p13 + 6, p13 + 7, p13 + 8, p13 + 9, p13 + 10, p13 + 11, p13 + 12, p13 + 13, p13 + 14, p13 + 15, p13 + 16, p13 + 17, p13 + 18, p13 + 19, p13 + 20, p13 + 21, p13 + 22, p13 + 23, p13 + 24, p13 + 25, p13 + 26, p13 + 27, p13 + 28, p13 + 29, p13 + 30, p13 + 31, p13 + 32, p13 + 33, p13 + 34, p13 + 35, p13 + 36, p13 + 37, p13 + 38, p13 + 39, 9};
Line(14) = {10, 9};
p15 = newp;
Point(p15 + 1) = {24.92249063737124, 0.2382359298015083, 0};
Point(p15 + 2) = {24.86848349627382, 0.4631918621978556, 0};
Point(p15 + 3) = {24.77995041176096, 0.6769296355475077, 0};
Point(p15 + 4) = {24.65907136219785, 0.8741863165155959, 0};
Point(p15 + 5) = {24.50882279095929, 1.050104790959294, 0};
Point(p15 + 6) = {24.3329043165156, 1.200353362197855, 0};
Point(p15 + 7) = {24.13564763554751, 1.321232411760967, 0};
Point(p15 + 8) = {23.92190986219785, 1.40976549627382, 0};
Point(p15 + 9) = {23.69695392980151, 1.463772637371245, 0};
Point(p15 + 10) = {23.466319, 1.481924, 0};
Point(p15 + 11) = {23.23568407019849, 1.463772637371245, 0};
Point(p15 + 12) = {23.01072813780214, 1.40976549627382, 0};
Point(p15 + 13) = {22.79699036445249, 1.321232411760967, 0};
Point(p15 + 14) = {22.5997336834844, 1.200353362197856, 0};
Point(p15 + 15) = {22.4238152090407, 1.050104790959294, 0};
Point(p15 + 16) = {22.27356663780214, 0.8741863165155961, 0};
Point(p15 + 17) = {22.15268758823903, 0.676929635547508, 0};
Point(p15 + 18) = {22.06415450372618, 0.4631918621978558, 0};
Point(p15 + 19) = {22.01014736262875, 0.2382359298015085, 0};
Point(p15 + 20) = {21.991996, 0.007601000000000181, 0};
Point(p15 + 21) = {22.01014736262875, -0.2230339298015081, 0};
Point(p15 + 22) = {22.06415450372618, -0.447989862197856, 0};
Point(p15 + 23) = {22.15268758823903, -0.6617276355475071, 0};
Point(p15 + 24) = {22.27356663780214, -0.8589843165155958, 0};
Point(p15 + 25) = {22.4238152090407, -1.034902790959294, 0};
Point(p15 + 26) = {22.5997336834844, -1.185151362197856, 0};
Point(p15 + 27) = {22.79699036445249, -1.306030411760967, 0};
Point(p15 + 28) = {23.01072813780214, -1.39456349627382, 0};
Point(p15 + 29) = {23.23568407019849, -1.448570637371245, 0};
Point(p15 + 30) = {23.466319, -1.466722, 0};
Point(p15 + 31) = {23.69695392980151, -1.448570637371245, 0};
Point(p15 + 32) = {23.92190986219785, -1.39456349627382, 0};
Point(p15 + 33) = {24.13564763554751, -1.306030411760967, 0};
Point(p15 + 34) = {24.3329043165156, -1.185151362197856, 0};
Point(p15 + 35) = {24.50882279095929, -1.034902790959295, 0};
Point(p15 + 36) = {24.65907136219785, -0.8589843165155961, 0};
Point(p15 + 37) = {24.77995041176096, -0.6617276355475081, 0};
Point(p15 + 38) = {24.86848349627382, -0.4479898621978559, 0};
Point(p15 + 39) = {24.92249063737124, -0.2230339298015087, 0};
Spline(15) = {10, p15 + 1, p15 + 2, p15 + 3, p15 + 4, p15 + 5, p15 + 6, p15 + 7, p15 + 8, p15 + 9, p15 + 10, p15 + 11, p15 + 12, p15 + 13, p15 + 14, p15 + 15, p15 + 16, p15 + 17, p15 + 18, p15 + 19, p15 + 20, p15 + 21, p15 + 22, p15 + 23, p15 + 24, p15 + 25, p15 + 26, p15 + 27, p15 + 28, p15 + 29, p15 + 30, p15 + 31, p15 + 32, p15 + 33, p15 + 34, p15 + 35, p15 + 36, p15 + 37, p15 + 38, p15 + 39, 10};
p16 = newp;
Point(p16 + 1) = {12.47375928382156, 2.806446932939501, 0.1};
Point(p16 + 2) = {12.42046518118413, 3.028432846402347, 0.1};
Point(p16 + 3) = {12.33310096976764, 3.239348710470078, 0.1};
Point(p16 + 4) = {12.21381784640235, 3.434001076579723, 0.1};
Point(p16 + 5) = {12.0655529574635, 3.607596957463498, 0.1};
Point(p16 + 6) = {11.89195707657972, 3.755861846402347, 0.1};
Point(p16 + 7) = {11.69730471047008, 3.875144969767641, 0.1};
Point(p16 + 8) = {11.48638884640235, 3.962509181184135, 0.1};
Point(p16 + 9) = {11.2644029329395, 4.015803283821561, 0.1};
Point(p16 + 10) = {11.036813, 4.033715, 0.1};
Point(p16 + 11) = {10.8092230670605, 4.015803283821561, 0.1};
Point(p16 + 12) = {10.58723715359765, 3.962509181184135, 0.1};
Point(p16 + 13) = {10.37632128952992, 3.875144969767641, 0.1};
Point(p16 + 14) = {10.18166892342028, 3.755861846402348, 0.1};
Point(p16 + 15) = {10.0080730425365, 3.607596957463498, 0.1};
Point(p16 + 16) = {9.859808153597653, 3.434001076579723, 0.1};
Point(p16 + 17) = {9.74052503023236, 3.239348710470078, 0.1};
Point(p16 + 18) = {9.653160818815866, 3.028432846402348, 0.1};
Point(p16 + 19) = {9.59986671617844, 2.806446932939501, 0.1};
Point(p16 + 20) = {9.581955000000001, 2.578857, 0.1};
Point(p16 + 21) = {9.59986671617844, 2.3512670670605, 0.1};
Point(p16 + 22) = {9.653160818815866, 2.129281153597653, 0.1};
Point(p16 + 23) = {9.740525030232359, 1.918365289529923, 0.1};
Point(p16 + 24) = {9.859808153597653, 1.723712923420277, 0.1};
Point(p16 + 25) = {10.0080730425365, 1.550117042536502, 0.1};
Point(p16 + 26) = {10.18166892342028, 1.401852153597653, 0.1};
Point(p16 + 27) = {10.37632128952992, 1.28256903023236, 0.1};
Point(p16 + 28) = {10.58723715359765, 1.195204818815866, 0.1};
Point(p16 + 29) = {10.8092230670605, 1.141910716178439, 0.1};
Point(p16 + 30) = {11.036813, 1.123999, 0.1};
Point(p16 + 31) = {11.2644029329395, 1.141910716178439, 0.1};
Point(p16 + 32) = {11.48638884640235, 1.195204818815865, 0.1};
Point(p16 + 33) = {11.69730471047008, 1.28256903023236, 0.1};
Point(p16 + 34) = {11.89195707657972, 1.401852153597653, 0.1};
Point(p16 + 35) = {12.0655529574635, 1.550117042536502, 0.1};
Point(p16 + 36) = {12.21381784640235, 1.723712923420277, 0.1};
Point(p16 + 37) = {12.33310096976764, 1.918365289529922, 0.1};
Point(p16 + 38) = {12.42046518118413, 2.129281153597653, 0.1};
Point(p16 + 39) = {12.47375928382156, 2.3512670670605, 0.1};
Spline(16) = {11, p16 + 1, p16 + 2, p16 + 3, p16 + 4, p16 + 5, p16 + 6, p16 + 7, p16 + 8, p16 + 9, p16 + 10, p16 + 11, p16 + 12, p16 + 13, p16 + 14, p16 + 15, p16 + 16, p16 + 17, p16 + 18, p16 + 19, p16 + 20, p16 + 21, p16 + 22, p16 + 23, p16 + 24, p16 + 25, p16 + 26, p16 + 27, p16 + 28, p16 + 29, p16 + 30, p16 + 31, p16 + 32, p16 + 33, p16 + 34, p16 + 35, p16 + 36, p16 + 37, p16 + 38, p16 + 39, 11};
Line(17) = {12, 11};
p18 = newp;
Point(p18 + 1) = {12.47375928382156, 2.806446932939501, 0};
Point(p18 + 2) = {12.42046518118413, 3.028432846402347, 0};
Point(p18 + 3) = {12.33310096976764, 3.239348710470078, 0};
Point(p18 + 4) = {12.21381784640235, 3.434001076579723, 0};
Point(p18 + 5) = {12.0655529574635, 3.607596957463498, 0};
Point(p18 + 6) = {11.89195707657972, 3.755861846402347, 0};
Point(p18 + 7) = {11.69730471047008, 3.875144969767641, 0};
Point(p18 + 8) = {11.48638884640235, 3.962509181184135, 0};
Point(p18 + 9) = {11.2644029329395, 4.015803283821561, 0};
Point(p18 + 10) = {11.036813, 4.033715, 0};
Point(p18 + 11) = {10.8092230670605, 4.015803283821561, 0};
Point(p18 + 12) = {10.58723715359765, 3.962509181184135, 0};
Point(p18 + 13) = {10.37632128952992, 3.875144969767641, 0};
Point(p18 + 14) = {10.18166892342028, 3.755861846402348, 0};
Point(p18 + 15) = {10.0080730425365, 3.607596957463498, 0};
Point(p18 + 16) = {9.859808153597653, 3.434001076579723, 0};
Point(p18 + 17) = {9.74052503023236, 3.239348710470078, 0};
Point(p18 + 18) = {9.653160818815866, 3.028432846402348, 0};
Point(p18 + 19) = {9.59986671617844, 2.806446932939501, 0};
Point(p18 + 20) = {9.581955000000001, 2.578857, 0};
Point(p18 + 21) = {9.59986671617844, 2.3512670670605, 0};
Point(p18 + 22) = {9.653160818815866, 2.129281153597653, 0};
Point(p18 + 23) = {9.740525030232359, 1.918365289529923, 0};
Point(p18 + 24) = {9.859808153597653, 1.723712923420277, 0};
Point(p18 + 25) = {10.0080730425365, 1.550117042536502, 0};
Point(p18 + 26) = {10.18166892342028, 1.401852153597653, 0};
Point(p18 + 27) = {10.37632128952992, 1.28256903023236, 0};
Point(p18 + 28) = {10.58723715359765, 1.195204818815866, 0};
Point(p18 + 29) = {10.8092230670605, 1.141910716178439, 0};
Point(p18 + 30) = {11.036813, 1.123999, 0};
Point(p18 + 31) = {11.2644029329395, 1.141910716178439, 0};
Point(p18 + 32) = {11.48638884640235, 1.195204818815865, 0};
Point(p18 + 33) = {11.69730471047008, 1.28256903023236, 0};
Point(p18 + 34) = {11.89195707657972, 1.401852153597653, 0};
Point(p18 + 35) = {12.0655529574635, 1.550117042536502, 0};
Point(p18 + 36) = {12.21381784640235, 1.723712923420277, 0};
Point(p18 + 37) = {12.33310096976764, 1.918365289529922, 0};
Point(p18 + 38) = {12.42046518118413, 2.129281153597653, 0};
Point(p18 + 39) = {12.47375928382156, 2.3512670670605, 0};
Spline(18) = {12, p18 + 1, p18 + 2, p18 + 3, p18 + 4, p18 + 5, p18 + 6, p18 + 7, p18 + 8, p18 + 9, p18 + 10, p18 + 11, p18 + 12, p18 + 13, p18 + 14, p18 + 15, p18 + 16, p18 + 17, p18 + 18, p18 + 19, p18 + 20, p18 + 21, p18 + 22, p18 + 23, p18 + 24, p18 + 25, p18 + 26, p18 + 27, p18 + 28, p18 + 29, p18 + 30, p18 + 31, p18 + 32, p18 + 33, p18 + 34, p18 + 35, p18 + 36, p18 + 37, p18 + 38, p18 + 39, 12};
Line(19) = {14, 13};
Line(20) = {13, 15};
Line(21) = {16, 15};
Line(22) = {14, 16};
Line(23) = {14, 17};
Line(24) = {17, 18};
Line(25) = {13, 18};
Line(26) = {15, 19};
Line(27) = {18, 19};
Line(28) = {16, 20};
Line(29) = {20, 19};
Line(30) = {17, 20};
Curve Loop(7) = {-13, -14, 15, 14};
Surface(7) = {7};
Curve Loop(8) = {13};
Plane Surface(8) = {8};
Curve Loop(9) = {15};
Plane Surface(9) = {9};
Curve Loop(10) = {-16, -17, 18, 17};
Surface(10) = {10};
Curve Loop(11) = {16};
Plane Surface(11) = {11};
Curve Loop(12) = {18};
Plane Surface(12) = {12};
Curve Loop(13) = {-19, 22, 21, -20};
Plane Surface(13) = {13};
Curve Loop(14) = {-23, 19, 25, -24};
Plane Surface(14) = {14};
Curve Loop(15) = {-20, 25, 27, -26, -13, -16};
Plane Surface(15) = {15};
Curve Loop(16) = {-28, 21, 26, -29};
Plane Surface(16) = {16};
Curve Loop(17) = {-22, 23, 30, -28, -15, -18};
Plane Surface(17) = {17};
Curve Loop(18) = {-24, 30, 29, -27};
Plane Surface(18) = {18};
Surface Loop(1) = {13, 14, 15, 16, 17, 18, 7, 10};
Volume(1) = {1};
Surface Loop(2) = {7, 8, 9};
Volume(2) = {2};
Surface Loop(3) = {10, 11, 12};
Volume(3) = {3};
Physical Surface("WALLS") = {13, 18};
Physical Surface("LOAD") = {8, 11};
Physical Surface("BORDER") = {7, 9, 10, 12, 14, 15, 16, 17};
Physical Volume("SOLID") = {1, 2, 3};
