cl__1 = 0.116072;
cl__2 = 0.104572;
cl__3 = 0.871432;
cl__4 = 0.782319;
cl__5 = 1.476449;
cl__6 = 1.760854;
Point(9) = {14.755537, -0.9929870000000003, 0.1, cl__1};
Point(10) = {14.755537, -0.9929870000000003, 0, cl__1};
Point(11) = {13.190483, 2.816355, 0.1, cl__2};
Point(12) = {13.190483, 2.816355, 0, cl__2};
Point(13) = {0.072589, -3.805567, 0.1, cl__3};
Point(14) = {0.072589, -3.805567, 0, cl__3};
Point(15) = {0.072589, 5.661663000000001, 0.1, cl__4};
Point(16) = {0.072589, 5.661663000000001, 0, cl__4};
Point(17) = {31.061355, -3.805567, 0, cl__5};
Point(18) = {31.061355, -3.805567, 0.1, cl__5};
Point(19) = {31.061355, 5.661663000000001, 0.1, cl__6};
Point(20) = {31.061355, 5.661663000000001, 0, cl__6};
p13 = newp;
Point(p13 + 1) = {14.74124657376061, -0.811409918435108, 0.1};
Point(p13 + 2) = {14.69872717276366, -0.6343038672381279, 0.1};
Point(p13 + 3) = {14.62902576577549, -0.4660297851708141, 0.1};
Point(p13 + 4) = {14.53385863276187, -0.3107311386033237, 0.1};
Point(p13 + 5) = {14.41556910437919, -0.1722318956208071, 0.1};
Point(p13 + 6) = {14.27706986139668, -0.05394236723812795, 0.1};
Point(p13 + 7) = {14.12177121482919, 0.04122476577549483, 0.1};
Point(p13 + 8) = {13.95349713276187, 0.1109261727636596, 0.1};
Point(p13 + 9) = {13.77639108156489, 0.1534455737606101, 0.1};
Point(p13 + 10) = {13.594814, 0.167736, 0.1};
Point(p13 + 11) = {13.41323691843511, 0.1534455737606101, 0.1};
Point(p13 + 12) = {13.23613086723813, 0.1109261727636596, 0.1};
Point(p13 + 13) = {13.06785678517081, 0.04122476577549505, 0.1};
Point(p13 + 14) = {12.91255813860332, -0.05394236723812784, 0.1};
Point(p13 + 15) = {12.77405889562081, -0.172231895620807, 0.1};
Point(p13 + 16) = {12.65576936723813, -0.3107311386033236, 0.1};
Point(p13 + 17) = {12.5606022342245, -0.4660297851708139, 0.1};
Point(p13 + 18) = {12.49090082723634, -0.6343038672381278, 0.1};
Point(p13 + 19) = {12.44838142623939, -0.8114099184351079, 0.1};
Point(p13 + 20) = {12.434091, -0.9929869999999998, 0.1};
Point(p13 + 21) = {12.44838142623939, -1.174564081564892, 0.1};
Point(p13 + 22) = {12.49090082723634, -1.351670132761872, 0.1};
Point(p13 + 23) = {12.5606022342245, -1.519944214829185, 0.1};
Point(p13 + 24) = {12.65576936723813, -1.675242861396676, 0.1};
Point(p13 + 25) = {12.77405889562081, -1.813742104379193, 0.1};
Point(p13 + 26) = {12.91255813860332, -1.932031632761872, 0.1};
Point(p13 + 27) = {13.06785678517081, -2.027198765775495, 0.1};
Point(p13 + 28) = {13.23613086723813, -2.09690017276366, 0.1};
Point(p13 + 29) = {13.41323691843511, -2.13941957376061, 0.1};
Point(p13 + 30) = {13.594814, -2.15371, 0.1};
Point(p13 + 31) = {13.77639108156489, -2.13941957376061, 0.1};
Point(p13 + 32) = {13.95349713276187, -2.09690017276366, 0.1};
Point(p13 + 33) = {14.12177121482918, -2.027198765775495, 0.1};
Point(p13 + 34) = {14.27706986139668, -1.932031632761872, 0.1};
Point(p13 + 35) = {14.41556910437919, -1.813742104379193, 0.1};
Point(p13 + 36) = {14.53385863276187, -1.675242861396676, 0.1};
Point(p13 + 37) = {14.62902576577549, -1.519944214829186, 0.1};
Point(p13 + 38) = {14.69872717276366, -1.351670132761872, 0.1};
Point(p13 + 39) = {14.74124657376061, -1.174564081564892, 0.1};
Spline(13) = {9, p13 + 1, p13 + 2, p13 + 3, p13 + 4, p13 + 5, p13 + 6, p13 + 7, p13 + 8, p13 + 9, p13 + 10, p13 + 11, p13 + 12, p13 + 13, p13 + 14, p13 + 15, p13 + 16, p13 + 17, p13 + 18, p13 + 19, p13 + 20, p13 + 21, p13 + 22, p13 + 23, p13 + 24, p13 + 25, p13 + 26, p13 + 27, p13 + 28, p13 + 29, p13 + 30, p13 + 31, p13 + 32, p13 + 33, p13 + 34, p13 + 35, p13 + 36, p13 + 37, p13 + 38, p13 + 39, 9};
Line(14) = {10, 9};
p15 = newp;
Point(p15 + 1) = {14.74124657376061, -0.811409918435108, 0};
Point(p15 + 2) = {14.69872717276366, -0.6343038672381279, 0};
Point(p15 + 3) = {14.62902576577549, -0.4660297851708141, 0};
Point(p15 + 4) = {14.53385863276187, -0.3107311386033237, 0};
Point(p15 + 5) = {14.41556910437919, -0.1722318956208071, 0};
Point(p15 + 6) = {14.27706986139668, -0.05394236723812795, 0};
Point(p15 + 7) = {14.12177121482919, 0.04122476577549483, 0};
Point(p15 + 8) = {13.95349713276187, 0.1109261727636596, 0};
Point(p15 + 9) = {13.77639108156489, 0.1534455737606101, 0};
Point(p15 + 10) = {13.594814, 0.167736, 0};
Point(p15 + 11) = {13.41323691843511, 0.1534455737606101, 0};
Point(p15 + 12) = {13.23613086723813, 0.1109261727636596, 0};
Point(p15 + 13) = {13.06785678517081, 0.04122476577549505, 0};
Point(p15 + 14) = {12.91255813860332, -0.05394236723812784, 0};
Point(p15 + 15) = {12.77405889562081, -0.172231895620807, 0};
Point(p15 + 16) = {12.65576936723813, -0.3107311386033236, 0};
Point(p15 + 17) = {12.5606022342245, -0.4660297851708139, 0};
Point(p15 + 18) = {12.49090082723634, -0.6343038672381278, 0};
Point(p15 + 19) = {12.44838142623939, -0.8114099184351079, 0};
Point(p15 + 20) = {12.434091, -0.9929869999999998, 0};
Point(p15 + 21) = {12.44838142623939, -1.174564081564892, 0};
Point(p15 + 22) = {12.49090082723634, -1.351670132761872, 0};
Point(p15 + 23) = {12.5606022342245, -1.519944214829185, 0};
Point(p15 + 24) = {12.65576936723813, -1.675242861396676, 0};
Point(p15 + 25) = {12.77405889562081, -1.813742104379193, 0};
Point(p15 + 26) = {12.91255813860332, -1.932031632761872, 0};
Point(p15 + 27) = {13.06785678517081, -2.027198765775495, 0};
Point(p15 + 28) = {13.23613086723813, -2.09690017276366, 0};
Point(p15 + 29) = {13.41323691843511, -2.13941957376061, 0};
Point(p15 + 30) = {13.594814, -2.15371, 0};
Point(p15 + 31) = {13.77639108156489, -2.13941957376061, 0};
Point(p15 + 32) = {13.95349713276187, -2.09690017276366, 0};
Point(p15 + 33) = {14.12177121482918, -2.027198765775495, 0};
Point(p15 + 34) = {14.27706986139668, -1.932031632761872, 0};
Point(p15 + 35) = {14.41556910437919, -1.813742104379193, 0};
Point(p15 + 36) = {14.53385863276187, -1.675242861396676, 0};
Point(p15 + 37) = {14.62902576577549, -1.519944214829186, 0};
Point(p15 + 38) = {14.69872717276366, -1.351670132761872, 0};
Point(p15 + 39) = {14.74124657376061, -1.174564081564892, 0};
Spline(15) = {10, p15 + 1, p15 + 2, p15 + 3, p15 + 4, p15 + 5, p15 + 6, p15 + 7, p15 + 8, p15 + 9, p15 + 10, p15 + 11, p15 + 12, p15 + 13, p15 + 14, p15 + 15, p15 + 16, p15 + 17, p15 + 18, p15 + 19, p15 + 20, p15 + 21, p15 + 22, p15 + 23, p15 + 24, p15 + 25, p15 + 26, p15 + 27, p15 + 28, p15 + 29, p15 + 30, p15 + 31, p15 + 32, p15 + 33, p15 + 34, p15 + 35, p15 + 36, p15 + 37, p15 + 38, p15 + 39, 10};
p16 = newp;
Point(p16 + 1) = {13.17760840228051, 2.97994227451973, 0.1};
Point(p16 + 2) = {13.13930162444623, 3.139501487425748, 0.1};
Point(p16 + 3) = {13.07650590650036, 3.291103761349638, 0.1};
Point(p16 + 4) = {12.99076748742575, 3.431016145168294, 0.1};
Point(p16 + 5) = {12.88419753164952, 3.555793531649521, 0.1};
Point(p16 + 6) = {12.7594201451683, 3.662363487425748, 0.1};
Point(p16 + 7) = {12.61950776134964, 3.748101906500357, 0.1};
Point(p16 + 8) = {12.46790548742575, 3.810897624446233, 0.1};
Point(p16 + 9) = {12.30834627451973, 3.84920440228051, 0.1};
Point(p16 + 10) = {12.144759, 3.862079, 0.1};
Point(p16 + 11) = {11.98117172548027, 3.84920440228051, 0.1};
Point(p16 + 12) = {11.82161251257425, 3.810897624446234, 0.1};
Point(p16 + 13) = {11.67001023865036, 3.748101906500357, 0.1};
Point(p16 + 14) = {11.53009785483171, 3.662363487425748, 0.1};
Point(p16 + 15) = {11.40532046835048, 3.555793531649521, 0.1};
Point(p16 + 16) = {11.29875051257425, 3.431016145168295, 0.1};
Point(p16 + 17) = {11.21301209349964, 3.291103761349638, 0.1};
Point(p16 + 18) = {11.15021637555377, 3.139501487425748, 0.1};
Point(p16 + 19) = {11.11190959771949, 2.979942274519731, 0.1};
Point(p16 + 20) = {11.099035, 2.816355, 0.1};
Point(p16 + 21) = {11.11190959771949, 2.65276772548027, 0.1};
Point(p16 + 22) = {11.15021637555377, 2.493208512574252, 0.1};
Point(p16 + 23) = {11.21301209349964, 2.341606238650363, 0.1};
Point(p16 + 24) = {11.29875051257425, 2.201693854831706, 0.1};
Point(p16 + 25) = {11.40532046835048, 2.076916468350479, 0.1};
Point(p16 + 26) = {11.53009785483171, 1.970346512574253, 0.1};
Point(p16 + 27) = {11.67001023865036, 1.884608093499643, 0.1};
Point(p16 + 28) = {11.82161251257425, 1.821812375553767, 0.1};
Point(p16 + 29) = {11.98117172548027, 1.78350559771949, 0.1};
Point(p16 + 30) = {12.144759, 1.770631, 0.1};
Point(p16 + 31) = {12.30834627451973, 1.78350559771949, 0.1};
Point(p16 + 32) = {12.46790548742575, 1.821812375553767, 0.1};
Point(p16 + 33) = {12.61950776134964, 1.884608093499643, 0.1};
Point(p16 + 34) = {12.75942014516829, 1.970346512574253, 0.1};
Point(p16 + 35) = {12.88419753164952, 2.076916468350479, 0.1};
Point(p16 + 36) = {12.99076748742575, 2.201693854831706, 0.1};
Point(p16 + 37) = {13.07650590650036, 2.341606238650362, 0.1};
Point(p16 + 38) = {13.13930162444623, 2.493208512574252, 0.1};
Point(p16 + 39) = {13.17760840228051, 2.65276772548027, 0.1};
Spline(16) = {11, p16 + 1, p16 + 2, p16 + 3, p16 + 4, p16 + 5, p16 + 6, p16 + 7, p16 + 8, p16 + 9, p16 + 10, p16 + 11, p16 + 12, p16 + 13, p16 + 14, p16 + 15, p16 + 16, p16 + 17, p16 + 18, p16 + 19, p16 + 20, p16 + 21, p16 + 22, p16 + 23, p16 + 24, p16 + 25, p16 + 26, p16 + 27, p16 + 28, p16 + 29, p16 + 30, p16 + 31, p16 + 32, p16 + 33, p16 + 34, p16 + 35, p16 + 36, p16 + 37, p16 + 38, p16 + 39, 11};
Line(17) = {12, 11};
p18 = newp;
Point(p18 + 1) = {13.17760840228051, 2.97994227451973, 0};
Point(p18 + 2) = {13.13930162444623, 3.139501487425748, 0};
Point(p18 + 3) = {13.07650590650036, 3.291103761349638, 0};
Point(p18 + 4) = {12.99076748742575, 3.431016145168294, 0};
Point(p18 + 5) = {12.88419753164952, 3.555793531649521, 0};
Point(p18 + 6) = {12.7594201451683, 3.662363487425748, 0};
Point(p18 + 7) = {12.61950776134964, 3.748101906500357, 0};
Point(p18 + 8) = {12.46790548742575, 3.810897624446233, 0};
Point(p18 + 9) = {12.30834627451973, 3.84920440228051, 0};
Point(p18 + 10) = {12.144759, 3.862079, 0};
Point(p18 + 11) = {11.98117172548027, 3.84920440228051, 0};
Point(p18 + 12) = {11.82161251257425, 3.810897624446234, 0};
Point(p18 + 13) = {11.67001023865036, 3.748101906500357, 0};
Point(p18 + 14) = {11.53009785483171, 3.662363487425748, 0};
Point(p18 + 15) = {11.40532046835048, 3.555793531649521, 0};
Point(p18 + 16) = {11.29875051257425, 3.431016145168295, 0};
Point(p18 + 17) = {11.21301209349964, 3.291103761349638, 0};
Point(p18 + 18) = {11.15021637555377, 3.139501487425748, 0};
Point(p18 + 19) = {11.11190959771949, 2.979942274519731, 0};
Point(p18 + 20) = {11.099035, 2.816355, 0};
Point(p18 + 21) = {11.11190959771949, 2.65276772548027, 0};
Point(p18 + 22) = {11.15021637555377, 2.493208512574252, 0};
Point(p18 + 23) = {11.21301209349964, 2.341606238650363, 0};
Point(p18 + 24) = {11.29875051257425, 2.201693854831706, 0};
Point(p18 + 25) = {11.40532046835048, 2.076916468350479, 0};
Point(p18 + 26) = {11.53009785483171, 1.970346512574253, 0};
Point(p18 + 27) = {11.67001023865036, 1.884608093499643, 0};
Point(p18 + 28) = {11.82161251257425, 1.821812375553767, 0};
Point(p18 + 29) = {11.98117172548027, 1.78350559771949, 0};
Point(p18 + 30) = {12.144759, 1.770631, 0};
Point(p18 + 31) = {12.30834627451973, 1.78350559771949, 0};
Point(p18 + 32) = {12.46790548742575, 1.821812375553767, 0};
Point(p18 + 33) = {12.61950776134964, 1.884608093499643, 0};
Point(p18 + 34) = {12.75942014516829, 1.970346512574253, 0};
Point(p18 + 35) = {12.88419753164952, 2.076916468350479, 0};
Point(p18 + 36) = {12.99076748742575, 2.201693854831706, 0};
Point(p18 + 37) = {13.07650590650036, 2.341606238650362, 0};
Point(p18 + 38) = {13.13930162444623, 2.493208512574252, 0};
Point(p18 + 39) = {13.17760840228051, 2.65276772548027, 0};
Spline(18) = {12, p18 + 1, p18 + 2, p18 + 3, p18 + 4, p18 + 5, p18 + 6, p18 + 7, p18 + 8, p18 + 9, p18 + 10, p18 + 11, p18 + 12, p18 + 13, p18 + 14, p18 + 15, p18 + 16, p18 + 17, p18 + 18, p18 + 19, p18 + 20, p18 + 21, p18 + 22, p18 + 23, p18 + 24, p18 + 25, p18 + 26, p18 + 27, p18 + 28, p18 + 29, p18 + 30, p18 + 31, p18 + 32, p18 + 33, p18 + 34, p18 + 35, p18 + 36, p18 + 37, p18 + 38, p18 + 39, 12};
Line(19) = {14, 13};
Line(20) = {13, 15};
Line(21) = {16, 15};
Line(22) = {14, 16};
Line(23) = {14, 17};
Line(24) = {17, 18};
Line(25) = {13, 18};
Line(26) = {15, 19};
Line(27) = {18, 19};
Line(28) = {16, 20};
Line(29) = {20, 19};
Line(30) = {17, 20};
Curve Loop(7) = {-13, -14, 15, 14};
Surface(7) = {7};
Curve Loop(8) = {13};
Plane Surface(8) = {8};
Curve Loop(9) = {15};
Plane Surface(9) = {9};
Curve Loop(10) = {-16, -17, 18, 17};
Surface(10) = {10};
Curve Loop(11) = {16};
Plane Surface(11) = {11};
Curve Loop(12) = {18};
Plane Surface(12) = {12};
Curve Loop(13) = {-19, 22, 21, -20};
Plane Surface(13) = {13};
Curve Loop(14) = {-23, 19, 25, -24};
Plane Surface(14) = {14};
Curve Loop(15) = {-20, 25, 27, -26, -13, -16};
Plane Surface(15) = {15};
Curve Loop(16) = {-28, 21, 26, -29};
Plane Surface(16) = {16};
Curve Loop(17) = {-22, 23, 30, -28, -15, -18};
Plane Surface(17) = {17};
Curve Loop(18) = {-24, 30, 29, -27};
Plane Surface(18) = {18};
Surface Loop(1) = {13, 14, 15, 16, 17, 18, 7, 10};
Volume(1) = {1};
Surface Loop(2) = {7, 8, 9};
Volume(2) = {2};
Surface Loop(3) = {10, 11, 12};
Volume(3) = {3};
Physical Surface("WALLS") = {13, 18};
Physical Surface("LOAD") = {8, 11};
Physical Surface("BORDER") = {7, 9, 10, 12, 14, 15, 16, 17};
Physical Volume("SOLID") = {1, 2, 3};
