cl__1 = 0.074202;
cl__2 = 0.128908;
cl__3 = 1.684572;
cl__4 = 1.64457;
cl__5 = 0.835711;
cl__6 = 0.794059;
Point(9) = {19.693858, 1.136404, 0.1, cl__1};
Point(10) = {19.693858, 1.136404, 0, cl__1};
Point(11) = {26.289663, 1.834428, 0.1, cl__2};
Point(12) = {26.289663, 1.834428, 0, cl__2};
Point(13) = {0.692835, -3.442461, 0.1, cl__3};
Point(14) = {0.692835, -3.442461, 0, cl__3};
Point(15) = {0.692835, 5.080393000000001, 0.1, cl__4};
Point(16) = {0.692835, 5.080393000000001, 0, cl__4};
Point(17) = {37.956568, -3.442461, 0, cl__5};
Point(18) = {37.956568, -3.442461, 0.1, cl__5};
Point(19) = {37.956568, 5.080393000000001, 0.1, cl__6};
Point(20) = {37.956568, 5.080393000000001, 0, cl__6};
p13 = newp;
Point(p13 + 1) = {19.68472249017675, 1.252481658183617, 0.1};
Point(p13 + 2) = {19.65754090727785, 1.365701099183093, 0.1};
Point(p13 + 3) = {19.61298255208478, 1.473274484607238, 0.1};
Point(p13 + 4) = {19.55214459918309, 1.572553000691313, 0.1};
Point(p13 + 5) = {19.47652508088282, 1.661092080882823, 0.1};
Point(p13 + 6) = {19.38798600069131, 1.736711599183093, 0.1};
Point(p13 + 7) = {19.28870748460724, 1.797549552084777, 0.1};
Point(p13 + 8) = {19.18113409918309, 1.842107907277846, 0.1};
Point(p13 + 9) = {19.06791465818362, 1.869289490176745, 0.1};
Point(p13 + 10) = {18.951837, 1.878425, 0.1};
Point(p13 + 11) = {18.83575934181638, 1.869289490176745, 0.1};
Point(p13 + 12) = {18.72253990081691, 1.842107907277846, 0.1};
Point(p13 + 13) = {18.61496651539276, 1.797549552084777, 0.1};
Point(p13 + 14) = {18.51568799930869, 1.736711599183093, 0.1};
Point(p13 + 15) = {18.42714891911718, 1.661092080882823, 0.1};
Point(p13 + 16) = {18.35152940081691, 1.572553000691313, 0.1};
Point(p13 + 17) = {18.29069144791523, 1.473274484607238, 0.1};
Point(p13 + 18) = {18.24613309272215, 1.365701099183093, 0.1};
Point(p13 + 19) = {18.21895150982326, 1.252481658183617, 0.1};
Point(p13 + 20) = {18.209816, 1.136404, 0.1};
Point(p13 + 21) = {18.21895150982326, 1.020326341816383, 0.1};
Point(p13 + 22) = {18.24613309272215, 0.9071069008169068, 0.1};
Point(p13 + 23) = {18.29069144791523, 0.7995335153927621, 0.1};
Point(p13 + 24) = {18.35152940081691, 0.7002549993086868, 0.1};
Point(p13 + 25) = {18.42714891911718, 0.6117159191171768, 0.1};
Point(p13 + 26) = {18.51568799930869, 0.5360964008169071, 0.1};
Point(p13 + 27) = {18.61496651539276, 0.4752584479152231, 0.1};
Point(p13 + 28) = {18.72253990081691, 0.4307000927221538, 0.1};
Point(p13 + 29) = {18.83575934181638, 0.4035185098232553, 0.1};
Point(p13 + 30) = {18.951837, 0.3943829999999999, 0.1};
Point(p13 + 31) = {19.06791465818362, 0.4035185098232552, 0.1};
Point(p13 + 32) = {19.18113409918309, 0.4307000927221537, 0.1};
Point(p13 + 33) = {19.28870748460724, 0.4752584479152229, 0.1};
Point(p13 + 34) = {19.38798600069131, 0.536096400816907, 0.1};
Point(p13 + 35) = {19.47652508088282, 0.6117159191171766, 0.1};
Point(p13 + 36) = {19.55214459918309, 0.7002549993086866, 0.1};
Point(p13 + 37) = {19.61298255208478, 0.7995335153927616, 0.1};
Point(p13 + 38) = {19.65754090727785, 0.9071069008169069, 0.1};
Point(p13 + 39) = {19.68472249017675, 1.020326341816383, 0.1};
Spline(13) = {9, p13 + 1, p13 + 2, p13 + 3, p13 + 4, p13 + 5, p13 + 6, p13 + 7, p13 + 8, p13 + 9, p13 + 10, p13 + 11, p13 + 12, p13 + 13, p13 + 14, p13 + 15, p13 + 16, p13 + 17, p13 + 18, p13 + 19, p13 + 20, p13 + 21, p13 + 22, p13 + 23, p13 + 24, p13 + 25, p13 + 26, p13 + 27, p13 + 28, p13 + 29, p13 + 30, p13 + 31, p13 + 32, p13 + 33, p13 + 34, p13 + 35, p13 + 36, p13 + 37, p13 + 38, p13 + 39, 9};
Line(14) = {10, 9};
p15 = newp;
Point(p15 + 1) = {19.68472249017675, 1.252481658183617, 0};
Point(p15 + 2) = {19.65754090727785, 1.365701099183093, 0};
Point(p15 + 3) = {19.61298255208478, 1.473274484607238, 0};
Point(p15 + 4) = {19.55214459918309, 1.572553000691313, 0};
Point(p15 + 5) = {19.47652508088282, 1.661092080882823, 0};
Point(p15 + 6) = {19.38798600069131, 1.736711599183093, 0};
Point(p15 + 7) = {19.28870748460724, 1.797549552084777, 0};
Point(p15 + 8) = {19.18113409918309, 1.842107907277846, 0};
Point(p15 + 9) = {19.06791465818362, 1.869289490176745, 0};
Point(p15 + 10) = {18.951837, 1.878425, 0};
Point(p15 + 11) = {18.83575934181638, 1.869289490176745, 0};
Point(p15 + 12) = {18.72253990081691, 1.842107907277846, 0};
Point(p15 + 13) = {18.61496651539276, 1.797549552084777, 0};
Point(p15 + 14) = {18.51568799930869, 1.736711599183093, 0};
Point(p15 + 15) = {18.42714891911718, 1.661092080882823, 0};
Point(p15 + 16) = {18.35152940081691, 1.572553000691313, 0};
Point(p15 + 17) = {18.29069144791523, 1.473274484607238, 0};
Point(p15 + 18) = {18.24613309272215, 1.365701099183093, 0};
Point(p15 + 19) = {18.21895150982326, 1.252481658183617, 0};
Point(p15 + 20) = {18.209816, 1.136404, 0};
Point(p15 + 21) = {18.21895150982326, 1.020326341816383, 0};
Point(p15 + 22) = {18.24613309272215, 0.9071069008169068, 0};
Point(p15 + 23) = {18.29069144791523, 0.7995335153927621, 0};
Point(p15 + 24) = {18.35152940081691, 0.7002549993086868, 0};
Point(p15 + 25) = {18.42714891911718, 0.6117159191171768, 0};
Point(p15 + 26) = {18.51568799930869, 0.5360964008169071, 0};
Point(p15 + 27) = {18.61496651539276, 0.4752584479152231, 0};
Point(p15 + 28) = {18.72253990081691, 0.4307000927221538, 0};
Point(p15 + 29) = {18.83575934181638, 0.4035185098232553, 0};
Point(p15 + 30) = {18.951837, 0.3943829999999999, 0};
Point(p15 + 31) = {19.06791465818362, 0.4035185098232552, 0};
Point(p15 + 32) = {19.18113409918309, 0.4307000927221537, 0};
Point(p15 + 33) = {19.28870748460724, 0.4752584479152229, 0};
Point(p15 + 34) = {19.38798600069131, 0.536096400816907, 0};
Point(p15 + 35) = {19.47652508088282, 0.6117159191171766, 0};
Point(p15 + 36) = {19.55214459918309, 0.7002549993086866, 0};
Point(p15 + 37) = {19.61298255208478, 0.7995335153927616, 0};
Point(p15 + 38) = {19.65754090727785, 0.9071069008169069, 0};
Point(p15 + 39) = {19.68472249017675, 1.020326341816383, 0};
Spline(15) = {10, p15 + 1, p15 + 2, p15 + 3, p15 + 4, p15 + 5, p15 + 6, p15 + 7, p15 + 8, p15 + 9, p15 + 10, p15 + 11, p15 + 12, p15 + 13, p15 + 14, p15 + 15, p15 + 16, p15 + 17, p15 + 18, p15 + 19, p15 + 20, p15 + 21, p15 + 22, p15 + 23, p15 + 24, p15 + 25, p15 + 26, p15 + 27, p15 + 28, p15 + 29, p15 + 30, p15 + 31, p15 + 32, p15 + 33, p15 + 34, p15 + 35, p15 + 36, p15 + 37, p15 + 38, p15 + 39, 10};
p16 = newp;
Point(p16 + 1) = {26.27379232302936, 2.036084070890666, 0.1};
Point(p16 + 2) = {26.22657108085621, 2.232774700057874, 0.1};
Point(p16 + 3) = {26.14916201718117, 2.419656711432756, 0.1};
Point(p16 + 4) = {26.04347120005787, 2.592128449669424, 0.1};
Point(p16 + 5) = {25.91210108817161, 2.745943088171611, 0.1};
Point(p16 + 6) = {25.75828644966942, 2.877313200057874, 0.1};
Point(p16 + 7) = {25.58581471143275, 2.983004017181169, 0.1};
Point(p16 + 8) = {25.39893270005787, 3.060413080856208, 0.1};
Point(p16 + 9) = {25.20224207089067, 3.107634323029358, 0.1};
Point(p16 + 10) = {25.000586, 3.123505, 0.1};
Point(p16 + 11) = {24.79892992910933, 3.107634323029358, 0.1};
Point(p16 + 12) = {24.60223929994212, 3.060413080856208, 0.1};
Point(p16 + 13) = {24.41535728856724, 2.983004017181169, 0.1};
Point(p16 + 14) = {24.24288555033057, 2.877313200057874, 0.1};
Point(p16 + 15) = {24.08907091182839, 2.745943088171611, 0.1};
Point(p16 + 16) = {23.95770079994212, 2.592128449669425, 0.1};
Point(p16 + 17) = {23.85200998281883, 2.419656711432756, 0.1};
Point(p16 + 18) = {23.77460091914379, 2.232774700057874, 0.1};
Point(p16 + 19) = {23.72737967697064, 2.036084070890666, 0.1};
Point(p16 + 20) = {23.711509, 1.834428, 0.1};
Point(p16 + 21) = {23.72737967697064, 1.632771929109334, 0.1};
Point(p16 + 22) = {23.77460091914379, 1.436081299942126, 0.1};
Point(p16 + 23) = {23.85200998281883, 1.249199288567245, 0.1};
Point(p16 + 24) = {23.95770079994212, 1.076727550330576, 0.1};
Point(p16 + 25) = {24.08907091182839, 0.9229129118283889, 0.1};
Point(p16 + 26) = {24.24288555033057, 0.7915427999421258, 0.1};
Point(p16 + 27) = {24.41535728856724, 0.6858519828188314, 0.1};
Point(p16 + 28) = {24.60223929994212, 0.6084429191437923, 0.1};
Point(p16 + 29) = {24.79892992910933, 0.5612216769706417, 0.1};
Point(p16 + 30) = {25.000586, 0.5453509999999999, 0.1};
Point(p16 + 31) = {25.20224207089066, 0.5612216769706415, 0.1};
Point(p16 + 32) = {25.39893270005787, 0.6084429191437921, 0.1};
Point(p16 + 33) = {25.58581471143275, 0.685851982818831, 0.1};
Point(p16 + 34) = {25.75828644966942, 0.7915427999421256, 0.1};
Point(p16 + 35) = {25.91210108817161, 0.9229129118283886, 0.1};
Point(p16 + 36) = {26.04347120005787, 1.076727550330575, 0.1};
Point(p16 + 37) = {26.14916201718117, 1.249199288567244, 0.1};
Point(p16 + 38) = {26.22657108085621, 1.436081299942126, 0.1};
Point(p16 + 39) = {26.27379232302936, 1.632771929109334, 0.1};
Spline(16) = {11, p16 + 1, p16 + 2, p16 + 3, p16 + 4, p16 + 5, p16 + 6, p16 + 7, p16 + 8, p16 + 9, p16 + 10, p16 + 11, p16 + 12, p16 + 13, p16 + 14, p16 + 15, p16 + 16, p16 + 17, p16 + 18, p16 + 19, p16 + 20, p16 + 21, p16 + 22, p16 + 23, p16 + 24, p16 + 25, p16 + 26, p16 + 27, p16 + 28, p16 + 29, p16 + 30, p16 + 31, p16 + 32, p16 + 33, p16 + 34, p16 + 35, p16 + 36, p16 + 37, p16 + 38, p16 + 39, 11};
Line(17) = {12, 11};
p18 = newp;
Point(p18 + 1) = {26.27379232302936, 2.036084070890666, 0};
Point(p18 + 2) = {26.22657108085621, 2.232774700057874, 0};
Point(p18 + 3) = {26.14916201718117, 2.419656711432756, 0};
Point(p18 + 4) = {26.04347120005787, 2.592128449669424, 0};
Point(p18 + 5) = {25.91210108817161, 2.745943088171611, 0};
Point(p18 + 6) = {25.75828644966942, 2.877313200057874, 0};
Point(p18 + 7) = {25.58581471143275, 2.983004017181169, 0};
Point(p18 + 8) = {25.39893270005787, 3.060413080856208, 0};
Point(p18 + 9) = {25.20224207089067, 3.107634323029358, 0};
Point(p18 + 10) = {25.000586, 3.123505, 0};
Point(p18 + 11) = {24.79892992910933, 3.107634323029358, 0};
Point(p18 + 12) = {24.60223929994212, 3.060413080856208, 0};
Point(p18 + 13) = {24.41535728856724, 2.983004017181169, 0};
Point(p18 + 14) = {24.24288555033057, 2.877313200057874, 0};
Point(p18 + 15) = {24.08907091182839, 2.745943088171611, 0};
Point(p18 + 16) = {23.95770079994212, 2.592128449669425, 0};
Point(p18 + 17) = {23.85200998281883, 2.419656711432756, 0};
Point(p18 + 18) = {23.77460091914379, 2.232774700057874, 0};
Point(p18 + 19) = {23.72737967697064, 2.036084070890666, 0};
Point(p18 + 20) = {23.711509, 1.834428, 0};
Point(p18 + 21) = {23.72737967697064, 1.632771929109334, 0};
Point(p18 + 22) = {23.77460091914379, 1.436081299942126, 0};
Point(p18 + 23) = {23.85200998281883, 1.249199288567245, 0};
Point(p18 + 24) = {23.95770079994212, 1.076727550330576, 0};
Point(p18 + 25) = {24.08907091182839, 0.9229129118283889, 0};
Point(p18 + 26) = {24.24288555033057, 0.7915427999421258, 0};
Point(p18 + 27) = {24.41535728856724, 0.6858519828188314, 0};
Point(p18 + 28) = {24.60223929994212, 0.6084429191437923, 0};
Point(p18 + 29) = {24.79892992910933, 0.5612216769706417, 0};
Point(p18 + 30) = {25.000586, 0.5453509999999999, 0};
Point(p18 + 31) = {25.20224207089066, 0.5612216769706415, 0};
Point(p18 + 32) = {25.39893270005787, 0.6084429191437921, 0};
Point(p18 + 33) = {25.58581471143275, 0.685851982818831, 0};
Point(p18 + 34) = {25.75828644966942, 0.7915427999421256, 0};
Point(p18 + 35) = {25.91210108817161, 0.9229129118283886, 0};
Point(p18 + 36) = {26.04347120005787, 1.076727550330575, 0};
Point(p18 + 37) = {26.14916201718117, 1.249199288567244, 0};
Point(p18 + 38) = {26.22657108085621, 1.436081299942126, 0};
Point(p18 + 39) = {26.27379232302936, 1.632771929109334, 0};
Spline(18) = {12, p18 + 1, p18 + 2, p18 + 3, p18 + 4, p18 + 5, p18 + 6, p18 + 7, p18 + 8, p18 + 9, p18 + 10, p18 + 11, p18 + 12, p18 + 13, p18 + 14, p18 + 15, p18 + 16, p18 + 17, p18 + 18, p18 + 19, p18 + 20, p18 + 21, p18 + 22, p18 + 23, p18 + 24, p18 + 25, p18 + 26, p18 + 27, p18 + 28, p18 + 29, p18 + 30, p18 + 31, p18 + 32, p18 + 33, p18 + 34, p18 + 35, p18 + 36, p18 + 37, p18 + 38, p18 + 39, 12};
Line(19) = {14, 13};
Line(20) = {13, 15};
Line(21) = {16, 15};
Line(22) = {14, 16};
Line(23) = {14, 17};
Line(24) = {17, 18};
Line(25) = {13, 18};
Line(26) = {15, 19};
Line(27) = {18, 19};
Line(28) = {16, 20};
Line(29) = {20, 19};
Line(30) = {17, 20};
Curve Loop(7) = {-13, -14, 15, 14};
Surface(7) = {7};
Curve Loop(8) = {13};
Plane Surface(8) = {8};
Curve Loop(9) = {15};
Plane Surface(9) = {9};
Curve Loop(10) = {-16, -17, 18, 17};
Surface(10) = {10};
Curve Loop(11) = {16};
Plane Surface(11) = {11};
Curve Loop(12) = {18};
Plane Surface(12) = {12};
Curve Loop(13) = {-19, 22, 21, -20};
Plane Surface(13) = {13};
Curve Loop(14) = {-23, 19, 25, -24};
Plane Surface(14) = {14};
Curve Loop(15) = {-20, 25, 27, -26, -13, -16};
Plane Surface(15) = {15};
Curve Loop(16) = {-28, 21, 26, -29};
Plane Surface(16) = {16};
Curve Loop(17) = {-22, 23, 30, -28, -15, -18};
Plane Surface(17) = {17};
Curve Loop(18) = {-24, 30, 29, -27};
Plane Surface(18) = {18};
Surface Loop(1) = {13, 14, 15, 16, 17, 18, 7, 10};
Volume(1) = {1};
Surface Loop(2) = {7, 8, 9};
Volume(2) = {2};
Surface Loop(3) = {10, 11, 12};
Volume(3) = {3};
Physical Surface("WALLS") = {13, 18};
Physical Surface("LOAD") = {8, 11};
Physical Surface("BORDER") = {7, 9, 10, 12, 14, 15, 16, 17};
Physical Volume("SOLID") = {1, 2, 3};
