cl__1 = 0.076998;
cl__2 = 0.061773;
cl__3 = 0.672852;
cl__4 = 0.480733;
cl__5 = 3.03079;
cl__6 = 2.739577;
Point(9) = {24.790461, 1.340938, 0.1, cl__1};
Point(10) = {24.790461, 1.340938, 0, cl__1};
Point(11) = {4.426447999999999, 1.805432, 0.1, cl__2};
Point(12) = {4.426447999999999, 1.805432, 0, cl__2};
Point(13) = {0.153127, -3.431204, 0.1, cl__3};
Point(14) = {0.153127, -3.431204, 0, cl__3};
Point(15) = {0.153127, 4.821587, 0.1, cl__4};
Point(16) = {0.153127, 4.821587, 0, cl__4};
Point(17) = {36.303113, -3.431204, 0, cl__5};
Point(18) = {36.303113, -3.431204, 0.1, cl__5};
Point(19) = {36.303113, 4.821587, 0.1, cl__6};
Point(20) = {36.303113, 4.821587, 0, cl__6};
p13 = newp;
Point(p13 + 1) = {24.78098130542642, 1.461388940088282, 0.1};
Point(p13 + 2) = {24.75277564324739, 1.578873978277839, 0.1};
Point(p13 + 3) = {24.70653853047499, 1.690500243017957, 0.1};
Point(p13 + 4) = {24.64340847827784, 1.793519125204402, 0.1};
Point(p13 + 5) = {24.56493995805767, 1.885393958057674, 0.1};
Point(p13 + 6) = {24.4730651252044, 1.963862478277839, 0.1};
Point(p13 + 7) = {24.37004624301796, 2.026992530474987, 0.1};
Point(p13 + 8) = {24.25841997827784, 2.073229643247394, 0.1};
Point(p13 + 9) = {24.14093494008828, 2.101435305426422, 0.1};
Point(p13 + 10) = {24.020484, 2.110915, 0.1};
Point(p13 + 11) = {23.90003305991172, 2.101435305426422, 0.1};
Point(p13 + 12) = {23.78254802172216, 2.073229643247394, 0.1};
Point(p13 + 13) = {23.67092175698204, 2.026992530474987, 0.1};
Point(p13 + 14) = {23.5679028747956, 1.963862478277839, 0.1};
Point(p13 + 15) = {23.47602804194232, 1.885393958057674, 0.1};
Point(p13 + 16) = {23.39755952172216, 1.793519125204402, 0.1};
Point(p13 + 17) = {23.33442946952501, 1.690500243017957, 0.1};
Point(p13 + 18) = {23.28819235675261, 1.578873978277839, 0.1};
Point(p13 + 19) = {23.25998669457358, 1.461388940088282, 0.1};
Point(p13 + 20) = {23.250507, 1.340938, 0.1};
Point(p13 + 21) = {23.25998669457358, 1.220487059911718, 0.1};
Point(p13 + 22) = {23.28819235675261, 1.103002021722161, 0.1};
Point(p13 + 23) = {23.33442946952501, 0.9913757569820434, 0.1};
Point(p13 + 24) = {23.39755952172216, 0.8883568747955984, 0.1};
Point(p13 + 25) = {23.47602804194232, 0.7964820419423257, 0.1};
Point(p13 + 26) = {23.5679028747956, 0.7180135217221612, 0.1};
Point(p13 + 27) = {23.67092175698204, 0.6548834695250131, 0.1};
Point(p13 + 28) = {23.78254802172216, 0.6086463567526065, 0.1};
Point(p13 + 29) = {23.90003305991172, 0.5804406945735776, 0.1};
Point(p13 + 30) = {24.020484, 0.5709609999999999, 0.1};
Point(p13 + 31) = {24.14093494008828, 0.5804406945735775, 0.1};
Point(p13 + 32) = {24.25841997827784, 0.6086463567526065, 0.1};
Point(p13 + 33) = {24.37004624301796, 0.6548834695250129, 0.1};
Point(p13 + 34) = {24.4730651252044, 0.7180135217221609, 0.1};
Point(p13 + 35) = {24.56493995805767, 0.7964820419423255, 0.1};
Point(p13 + 36) = {24.64340847827784, 0.8883568747955983, 0.1};
Point(p13 + 37) = {24.70653853047499, 0.9913757569820427, 0.1};
Point(p13 + 38) = {24.75277564324739, 1.103002021722161, 0.1};
Point(p13 + 39) = {24.78098130542642, 1.220487059911718, 0.1};
Spline(13) = {9, p13 + 1, p13 + 2, p13 + 3, p13 + 4, p13 + 5, p13 + 6, p13 + 7, p13 + 8, p13 + 9, p13 + 10, p13 + 11, p13 + 12, p13 + 13, p13 + 14, p13 + 15, p13 + 16, p13 + 17, p13 + 18, p13 + 19, p13 + 20, p13 + 21, p13 + 22, p13 + 23, p13 + 24, p13 + 25, p13 + 26, p13 + 27, p13 + 28, p13 + 29, p13 + 30, p13 + 31, p13 + 32, p13 + 33, p13 + 34, p13 + 35, p13 + 36, p13 + 37, p13 + 38, p13 + 39, 9};
Line(14) = {10, 9};
p15 = newp;
Point(p15 + 1) = {24.78098130542642, 1.461388940088282, 0};
Point(p15 + 2) = {24.75277564324739, 1.578873978277839, 0};
Point(p15 + 3) = {24.70653853047499, 1.690500243017957, 0};
Point(p15 + 4) = {24.64340847827784, 1.793519125204402, 0};
Point(p15 + 5) = {24.56493995805767, 1.885393958057674, 0};
Point(p15 + 6) = {24.4730651252044, 1.963862478277839, 0};
Point(p15 + 7) = {24.37004624301796, 2.026992530474987, 0};
Point(p15 + 8) = {24.25841997827784, 2.073229643247394, 0};
Point(p15 + 9) = {24.14093494008828, 2.101435305426422, 0};
Point(p15 + 10) = {24.020484, 2.110915, 0};
Point(p15 + 11) = {23.90003305991172, 2.101435305426422, 0};
Point(p15 + 12) = {23.78254802172216, 2.073229643247394, 0};
Point(p15 + 13) = {23.67092175698204, 2.026992530474987, 0};
Point(p15 + 14) = {23.5679028747956, 1.963862478277839, 0};
Point(p15 + 15) = {23.47602804194232, 1.885393958057674, 0};
Point(p15 + 16) = {23.39755952172216, 1.793519125204402, 0};
Point(p15 + 17) = {23.33442946952501, 1.690500243017957, 0};
Point(p15 + 18) = {23.28819235675261, 1.578873978277839, 0};
Point(p15 + 19) = {23.25998669457358, 1.461388940088282, 0};
Point(p15 + 20) = {23.250507, 1.340938, 0};
Point(p15 + 21) = {23.25998669457358, 1.220487059911718, 0};
Point(p15 + 22) = {23.28819235675261, 1.103002021722161, 0};
Point(p15 + 23) = {23.33442946952501, 0.9913757569820434, 0};
Point(p15 + 24) = {23.39755952172216, 0.8883568747955984, 0};
Point(p15 + 25) = {23.47602804194232, 0.7964820419423257, 0};
Point(p15 + 26) = {23.5679028747956, 0.7180135217221612, 0};
Point(p15 + 27) = {23.67092175698204, 0.6548834695250131, 0};
Point(p15 + 28) = {23.78254802172216, 0.6086463567526065, 0};
Point(p15 + 29) = {23.90003305991172, 0.5804406945735776, 0};
Point(p15 + 30) = {24.020484, 0.5709609999999999, 0};
Point(p15 + 31) = {24.14093494008828, 0.5804406945735775, 0};
Point(p15 + 32) = {24.25841997827784, 0.6086463567526065, 0};
Point(p15 + 33) = {24.37004624301796, 0.6548834695250129, 0};
Point(p15 + 34) = {24.4730651252044, 0.7180135217221609, 0};
Point(p15 + 35) = {24.56493995805767, 0.7964820419423255, 0};
Point(p15 + 36) = {24.64340847827784, 0.8883568747955983, 0};
Point(p15 + 37) = {24.70653853047499, 0.9913757569820427, 0};
Point(p15 + 38) = {24.75277564324739, 1.103002021722161, 0};
Point(p15 + 39) = {24.78098130542642, 1.220487059911718, 0};
Spline(15) = {10, p15 + 1, p15 + 2, p15 + 3, p15 + 4, p15 + 5, p15 + 6, p15 + 7, p15 + 8, p15 + 9, p15 + 10, p15 + 11, p15 + 12, p15 + 13, p15 + 14, p15 + 15, p15 + 16, p15 + 17, p15 + 18, p15 + 19, p15 + 20, p15 + 21, p15 + 22, p15 + 23, p15 + 24, p15 + 25, p15 + 26, p15 + 27, p15 + 28, p15 + 29, p15 + 30, p15 + 31, p15 + 32, p15 + 33, p15 + 34, p15 + 35, p15 + 36, p15 + 37, p15 + 38, p15 + 39, 10};
p16 = newp;
Point(p16 + 1) = {4.418842657077537, 1.902067044261627, 0.1};
Point(p16 + 2) = {4.396213897093586, 1.996322613020208, 0.1};
Point(p16 + 3) = {4.359118915219502, 2.085877821356609, 0.1};
Point(p16 + 4) = {4.308471113020208, 2.168527522824891, 0.1};
Point(p16 + 5) = {4.245517607476272, 2.242236607476272, 0.1};
Point(p16 + 6) = {4.171808522824891, 2.305190113020208, 0.1};
Point(p16 + 7) = {4.089158821356609, 2.355837915219501, 0.1};
Point(p16 + 8) = {3.999603613020208, 2.392932897093587, 0.1};
Point(p16 + 9) = {3.905348044261627, 2.415561657077538, 0.1};
Point(p16 + 10) = {3.808713, 2.423167, 0.1};
Point(p16 + 11) = {3.712077955738373, 2.415561657077538, 0.1};
Point(p16 + 12) = {3.617822386979792, 2.392932897093587, 0.1};
Point(p16 + 13) = {3.528267178643391, 2.355837915219501, 0.1};
Point(p16 + 14) = {3.445617477175109, 2.305190113020208, 0.1};
Point(p16 + 15) = {3.371908392523728, 2.242236607476272, 0.1};
Point(p16 + 16) = {3.308954886979792, 2.168527522824891, 0.1};
Point(p16 + 17) = {3.258307084780498, 2.085877821356609, 0.1};
Point(p16 + 18) = {3.221212102906414, 1.996322613020208, 0.1};
Point(p16 + 19) = {3.198583342922463, 1.902067044261627, 0.1};
Point(p16 + 20) = {3.190978, 1.805432, 0.1};
Point(p16 + 21) = {3.198583342922463, 1.708796955738373, 0.1};
Point(p16 + 22) = {3.221212102906414, 1.614541386979792, 0.1};
Point(p16 + 23) = {3.258307084780498, 1.524986178643391, 0.1};
Point(p16 + 24) = {3.308954886979792, 1.442336477175109, 0.1};
Point(p16 + 25) = {3.371908392523728, 1.368627392523728, 0.1};
Point(p16 + 26) = {3.445617477175109, 1.305673886979792, 0.1};
Point(p16 + 27) = {3.528267178643391, 1.255026084780499, 0.1};
Point(p16 + 28) = {3.617822386979792, 1.217931102906413, 0.1};
Point(p16 + 29) = {3.712077955738373, 1.195302342922463, 0.1};
Point(p16 + 30) = {3.808713, 1.187697, 0.1};
Point(p16 + 31) = {3.905348044261627, 1.195302342922463, 0.1};
Point(p16 + 32) = {3.999603613020208, 1.217931102906413, 0.1};
Point(p16 + 33) = {4.089158821356609, 1.255026084780498, 0.1};
Point(p16 + 34) = {4.17180852282489, 1.305673886979792, 0.1};
Point(p16 + 35) = {4.245517607476271, 1.368627392523728, 0.1};
Point(p16 + 36) = {4.308471113020208, 1.442336477175109, 0.1};
Point(p16 + 37) = {4.359118915219502, 1.524986178643391, 0.1};
Point(p16 + 38) = {4.396213897093586, 1.614541386979792, 0.1};
Point(p16 + 39) = {4.418842657077537, 1.708796955738373, 0.1};
Spline(16) = {11, p16 + 1, p16 + 2, p16 + 3, p16 + 4, p16 + 5, p16 + 6, p16 + 7, p16 + 8, p16 + 9, p16 + 10, p16 + 11, p16 + 12, p16 + 13, p16 + 14, p16 + 15, p16 + 16, p16 + 17, p16 + 18, p16 + 19, p16 + 20, p16 + 21, p16 + 22, p16 + 23, p16 + 24, p16 + 25, p16 + 26, p16 + 27, p16 + 28, p16 + 29, p16 + 30, p16 + 31, p16 + 32, p16 + 33, p16 + 34, p16 + 35, p16 + 36, p16 + 37, p16 + 38, p16 + 39, 11};
Line(17) = {12, 11};
p18 = newp;
Point(p18 + 1) = {4.418842657077537, 1.902067044261627, 0};
Point(p18 + 2) = {4.396213897093586, 1.996322613020208, 0};
Point(p18 + 3) = {4.359118915219502, 2.085877821356609, 0};
Point(p18 + 4) = {4.308471113020208, 2.168527522824891, 0};
Point(p18 + 5) = {4.245517607476272, 2.242236607476272, 0};
Point(p18 + 6) = {4.171808522824891, 2.305190113020208, 0};
Point(p18 + 7) = {4.089158821356609, 2.355837915219501, 0};
Point(p18 + 8) = {3.999603613020208, 2.392932897093587, 0};
Point(p18 + 9) = {3.905348044261627, 2.415561657077538, 0};
Point(p18 + 10) = {3.808713, 2.423167, 0};
Point(p18 + 11) = {3.712077955738373, 2.415561657077538, 0};
Point(p18 + 12) = {3.617822386979792, 2.392932897093587, 0};
Point(p18 + 13) = {3.528267178643391, 2.355837915219501, 0};
Point(p18 + 14) = {3.445617477175109, 2.305190113020208, 0};
Point(p18 + 15) = {3.371908392523728, 2.242236607476272, 0};
Point(p18 + 16) = {3.308954886979792, 2.168527522824891, 0};
Point(p18 + 17) = {3.258307084780498, 2.085877821356609, 0};
Point(p18 + 18) = {3.221212102906414, 1.996322613020208, 0};
Point(p18 + 19) = {3.198583342922463, 1.902067044261627, 0};
Point(p18 + 20) = {3.190978, 1.805432, 0};
Point(p18 + 21) = {3.198583342922463, 1.708796955738373, 0};
Point(p18 + 22) = {3.221212102906414, 1.614541386979792, 0};
Point(p18 + 23) = {3.258307084780498, 1.524986178643391, 0};
Point(p18 + 24) = {3.308954886979792, 1.442336477175109, 0};
Point(p18 + 25) = {3.371908392523728, 1.368627392523728, 0};
Point(p18 + 26) = {3.445617477175109, 1.305673886979792, 0};
Point(p18 + 27) = {3.528267178643391, 1.255026084780499, 0};
Point(p18 + 28) = {3.617822386979792, 1.217931102906413, 0};
Point(p18 + 29) = {3.712077955738373, 1.195302342922463, 0};
Point(p18 + 30) = {3.808713, 1.187697, 0};
Point(p18 + 31) = {3.905348044261627, 1.195302342922463, 0};
Point(p18 + 32) = {3.999603613020208, 1.217931102906413, 0};
Point(p18 + 33) = {4.089158821356609, 1.255026084780498, 0};
Point(p18 + 34) = {4.17180852282489, 1.305673886979792, 0};
Point(p18 + 35) = {4.245517607476271, 1.368627392523728, 0};
Point(p18 + 36) = {4.308471113020208, 1.442336477175109, 0};
Point(p18 + 37) = {4.359118915219502, 1.524986178643391, 0};
Point(p18 + 38) = {4.396213897093586, 1.614541386979792, 0};
Point(p18 + 39) = {4.418842657077537, 1.708796955738373, 0};
Spline(18) = {12, p18 + 1, p18 + 2, p18 + 3, p18 + 4, p18 + 5, p18 + 6, p18 + 7, p18 + 8, p18 + 9, p18 + 10, p18 + 11, p18 + 12, p18 + 13, p18 + 14, p18 + 15, p18 + 16, p18 + 17, p18 + 18, p18 + 19, p18 + 20, p18 + 21, p18 + 22, p18 + 23, p18 + 24, p18 + 25, p18 + 26, p18 + 27, p18 + 28, p18 + 29, p18 + 30, p18 + 31, p18 + 32, p18 + 33, p18 + 34, p18 + 35, p18 + 36, p18 + 37, p18 + 38, p18 + 39, 12};
Line(19) = {14, 13};
Line(20) = {13, 15};
Line(21) = {16, 15};
Line(22) = {14, 16};
Line(23) = {14, 17};
Line(24) = {17, 18};
Line(25) = {13, 18};
Line(26) = {15, 19};
Line(27) = {18, 19};
Line(28) = {16, 20};
Line(29) = {20, 19};
Line(30) = {17, 20};
Curve Loop(7) = {-13, -14, 15, 14};
Surface(7) = {7};
Curve Loop(8) = {13};
Plane Surface(8) = {8};
Curve Loop(9) = {15};
Plane Surface(9) = {9};
Curve Loop(10) = {-16, -17, 18, 17};
Surface(10) = {10};
Curve Loop(11) = {16};
Plane Surface(11) = {11};
Curve Loop(12) = {18};
Plane Surface(12) = {12};
Curve Loop(13) = {-19, 22, 21, -20};
Plane Surface(13) = {13};
Curve Loop(14) = {-23, 19, 25, -24};
Plane Surface(14) = {14};
Curve Loop(15) = {-20, 25, 27, -26, -13, -16};
Plane Surface(15) = {15};
Curve Loop(16) = {-28, 21, 26, -29};
Plane Surface(16) = {16};
Curve Loop(17) = {-22, 23, 30, -28, -15, -18};
Plane Surface(17) = {17};
Curve Loop(18) = {-24, 30, 29, -27};
Plane Surface(18) = {18};
Surface Loop(1) = {13, 14, 15, 16, 17, 18, 7, 10};
Volume(1) = {1};
Surface Loop(2) = {7, 8, 9};
Volume(2) = {2};
Surface Loop(3) = {10, 11, 12};
Volume(3) = {3};
Physical Surface("WALLS") = {13, 18};
Physical Surface("LOAD") = {8, 11};
Physical Surface("BORDER") = {7, 9, 10, 12, 14, 15, 16, 17};
Physical Volume("SOLID") = {1, 2, 3};
