cl__1 = 0.148115;
cl__2 = 0.107659;
cl__3 = 1.58522;
cl__4 = 1.741712;
cl__5 = 0.793179;
cl__6 = 0.837661;
Point(9) = {21.964494, -0.8347420000000003, 0.1, cl__1};
Point(10) = {21.964494, -0.8347420000000003, 0, cl__1};
Point(11) = {17.40699, -0.9552490000000002, 0.1, cl__2};
Point(12) = {17.40699, -0.9552490000000002, 0, cl__2};
Point(13) = {0.227595, -4.136663, 0.1, cl__3};
Point(14) = {0.227595, -4.136663, 0, cl__3};
Point(15) = {0.227595, 4.183992, 0.1, cl__4};
Point(16) = {0.227595, 4.183992, 0, cl__4};
Point(17) = {31.931297, -4.136663, 0, cl__5};
Point(18) = {31.931297, -4.136663, 0.1, cl__5};
Point(19) = {31.931297, 4.183992, 0.1, cl__6};
Point(20) = {31.931297, 4.183992, 0, cl__6};
p13 = newp;
Point(p13 + 1) = {21.94625858567249, -0.6030390921056621, 0.1};
Point(p13 + 2) = {21.89200135911057, -0.3770414787815466, 0.1};
Point(p13 + 3) = {21.8030583133016, -0.1623139713107703, 0.1};
Point(p13 + 4) = {21.68161952121845, 0.03585612643299663, 0.1};
Point(p13 + 5) = {21.53067520895445, 0.2125892089544547, 0.1};
Point(p13 + 6) = {21.353942126433, 0.3635335212184533, 0.1};
Point(p13 + 7) = {21.15577202868923, 0.484972313301601, 0.1};
Point(p13 + 8) = {20.94104452121845, 0.5739153591105667, 0.1};
Point(p13 + 9) = {20.71504690789434, 0.6281725856724883, 0.1};
Point(p13 + 10) = {20.483344, 0.646408, 0.1};
Point(p13 + 11) = {20.25164109210566, 0.6281725856724881, 0.1};
Point(p13 + 12) = {20.02564347878155, 0.5739153591105669, 0.1};
Point(p13 + 13) = {19.81091597131077, 0.4849723133016012, 0.1};
Point(p13 + 14) = {19.612745873567, 0.3635335212184535, 0.1};
Point(p13 + 15) = {19.43601279104555, 0.2125892089544549, 0.1};
Point(p13 + 16) = {19.28506847878155, 0.03585612643299674, 0.1};
Point(p13 + 17) = {19.1636296866984, -0.1623139713107702, 0.1};
Point(p13 + 18) = {19.07468664088943, -0.3770414787815465, 0.1};
Point(p13 + 19) = {19.02042941432751, -0.6030390921056619, 0.1};
Point(p13 + 20) = {19.002194, -0.8347419999999998, 0.1};
Point(p13 + 21) = {19.02042941432751, -1.066444907894338, 0.1};
Point(p13 + 22) = {19.07468664088943, -1.292442521218454, 0.1};
Point(p13 + 23) = {19.1636296866984, -1.507170028689229, 0.1};
Point(p13 + 24) = {19.28506847878155, -1.705340126432996, 0.1};
Point(p13 + 25) = {19.43601279104555, -1.882073208954455, 0.1};
Point(p13 + 26) = {19.612745873567, -2.033017521218453, 0.1};
Point(p13 + 27) = {19.81091597131077, -2.154456313301601, 0.1};
Point(p13 + 28) = {20.02564347878155, -2.243399359110567, 0.1};
Point(p13 + 29) = {20.25164109210566, -2.297656585672488, 0.1};
Point(p13 + 30) = {20.483344, -2.315892, 0.1};
Point(p13 + 31) = {20.71504690789434, -2.297656585672488, 0.1};
Point(p13 + 32) = {20.94104452121845, -2.243399359110567, 0.1};
Point(p13 + 33) = {21.15577202868923, -2.154456313301601, 0.1};
Point(p13 + 34) = {21.35394212643299, -2.033017521218453, 0.1};
Point(p13 + 35) = {21.53067520895445, -1.882073208954455, 0.1};
Point(p13 + 36) = {21.68161952121845, -1.705340126432997, 0.1};
Point(p13 + 37) = {21.8030583133016, -1.50717002868923, 0.1};
Point(p13 + 38) = {21.89200135911057, -1.292442521218454, 0.1};
Point(p13 + 39) = {21.94625858567249, -1.066444907894338, 0.1};
Spline(13) = {9, p13 + 1, p13 + 2, p13 + 3, p13 + 4, p13 + 5, p13 + 6, p13 + 7, p13 + 8, p13 + 9, p13 + 10, p13 + 11, p13 + 12, p13 + 13, p13 + 14, p13 + 15, p13 + 16, p13 + 17, p13 + 18, p13 + 19, p13 + 20, p13 + 21, p13 + 22, p13 + 23, p13 + 24, p13 + 25, p13 + 26, p13 + 27, p13 + 28, p13 + 29, p13 + 30, p13 + 31, p13 + 32, p13 + 33, p13 + 34, p13 + 35, p13 + 36, p13 + 37, p13 + 38, p13 + 39, 9};
Line(14) = {10, 9};
p15 = newp;
Point(p15 + 1) = {21.94625858567249, -0.6030390921056621, 0};
Point(p15 + 2) = {21.89200135911057, -0.3770414787815466, 0};
Point(p15 + 3) = {21.8030583133016, -0.1623139713107703, 0};
Point(p15 + 4) = {21.68161952121845, 0.03585612643299663, 0};
Point(p15 + 5) = {21.53067520895445, 0.2125892089544547, 0};
Point(p15 + 6) = {21.353942126433, 0.3635335212184533, 0};
Point(p15 + 7) = {21.15577202868923, 0.484972313301601, 0};
Point(p15 + 8) = {20.94104452121845, 0.5739153591105667, 0};
Point(p15 + 9) = {20.71504690789434, 0.6281725856724883, 0};
Point(p15 + 10) = {20.483344, 0.646408, 0};
Point(p15 + 11) = {20.25164109210566, 0.6281725856724881, 0};
Point(p15 + 12) = {20.02564347878155, 0.5739153591105669, 0};
Point(p15 + 13) = {19.81091597131077, 0.4849723133016012, 0};
Point(p15 + 14) = {19.612745873567, 0.3635335212184535, 0};
Point(p15 + 15) = {19.43601279104555, 0.2125892089544549, 0};
Point(p15 + 16) = {19.28506847878155, 0.03585612643299674, 0};
Point(p15 + 17) = {19.1636296866984, -0.1623139713107702, 0};
Point(p15 + 18) = {19.07468664088943, -0.3770414787815465, 0};
Point(p15 + 19) = {19.02042941432751, -0.6030390921056619, 0};
Point(p15 + 20) = {19.002194, -0.8347419999999998, 0};
Point(p15 + 21) = {19.02042941432751, -1.066444907894338, 0};
Point(p15 + 22) = {19.07468664088943, -1.292442521218454, 0};
Point(p15 + 23) = {19.1636296866984, -1.507170028689229, 0};
Point(p15 + 24) = {19.28506847878155, -1.705340126432996, 0};
Point(p15 + 25) = {19.43601279104555, -1.882073208954455, 0};
Point(p15 + 26) = {19.612745873567, -2.033017521218453, 0};
Point(p15 + 27) = {19.81091597131077, -2.154456313301601, 0};
Point(p15 + 28) = {20.02564347878155, -2.243399359110567, 0};
Point(p15 + 29) = {20.25164109210566, -2.297656585672488, 0};
Point(p15 + 30) = {20.483344, -2.315892, 0};
Point(p15 + 31) = {20.71504690789434, -2.297656585672488, 0};
Point(p15 + 32) = {20.94104452121845, -2.243399359110567, 0};
Point(p15 + 33) = {21.15577202868923, -2.154456313301601, 0};
Point(p15 + 34) = {21.35394212643299, -2.033017521218453, 0};
Point(p15 + 35) = {21.53067520895445, -1.882073208954455, 0};
Point(p15 + 36) = {21.68161952121845, -1.705340126432997, 0};
Point(p15 + 37) = {21.8030583133016, -1.50717002868923, 0};
Point(p15 + 38) = {21.89200135911057, -1.292442521218454, 0};
Point(p15 + 39) = {21.94625858567249, -1.066444907894338, 0};
Spline(15) = {10, p15 + 1, p15 + 2, p15 + 3, p15 + 4, p15 + 5, p15 + 6, p15 + 7, p15 + 8, p15 + 9, p15 + 10, p15 + 11, p15 + 12, p15 + 13, p15 + 14, p15 + 15, p15 + 16, p15 + 17, p15 + 18, p15 + 19, p15 + 20, p15 + 21, p15 + 22, p15 + 23, p15 + 24, p15 + 25, p15 + 26, p15 + 27, p15 + 28, p15 + 29, p15 + 30, p15 + 31, p15 + 32, p15 + 33, p15 + 34, p15 + 35, p15 + 36, p15 + 37, p15 + 38, p15 + 39, 10};
p16 = newp;
Point(p16 + 1) = {17.39373541522464, -0.7868335321512679, 0.1};
Point(p16 + 2) = {17.35429803276516, -0.6225650120598641, 0.1};
Point(p16 + 3) = {17.28964893186291, -0.4664882758664008, 0.1};
Point(p16 + 4) = {17.20137998794014, -0.3224464508049509, 0.1};
Point(p16 + 5) = {17.09166467534406, -0.1939863246559372, 0.1};
Point(p16 + 6) = {16.96320454919505, -0.08427101205986409, 0.1};
Point(p16 + 7) = {16.8191627241336, 0.003997931862906534, 0.1};
Point(p16 + 8) = {16.66308598794014, 0.06864703276516693, 0.1};
Point(p16 + 9) = {16.49881746784873, 0.1080844152246383, 0.1};
Point(p16 + 10) = {16.330402, 0.1213390000000001, 0.1};
Point(p16 + 11) = {16.16198653215127, 0.1080844152246381, 0.1};
Point(p16 + 12) = {15.99771801205986, 0.06864703276516693, 0.1};
Point(p16 + 13) = {15.8416412758664, 0.003997931862906645, 0.1};
Point(p16 + 14) = {15.69759945080495, -0.08427101205986398, 0.1};
Point(p16 + 15) = {15.56913932465594, -0.193986324655937, 0.1};
Point(p16 + 16) = {15.45942401205986, -0.3224464508049507, 0.1};
Point(p16 + 17) = {15.37115506813709, -0.4664882758664007, 0.1};
Point(p16 + 18) = {15.30650596723483, -0.622565012059864, 0.1};
Point(p16 + 19) = {15.26706858477536, -0.7868335321512678, 0.1};
Point(p16 + 20) = {15.253814, -0.9552489999999999, 0.1};
Point(p16 + 21) = {15.26706858477536, -1.123664467848732, 0.1};
Point(p16 + 22) = {15.30650596723483, -1.287932987940136, 0.1};
Point(p16 + 23) = {15.37115506813709, -1.444009724133599, 0.1};
Point(p16 + 24) = {15.45942401205986, -1.588051549195049, 0.1};
Point(p16 + 25) = {15.56913932465594, -1.716511675344063, 0.1};
Point(p16 + 26) = {15.69759945080495, -1.826226987940136, 0.1};
Point(p16 + 27) = {15.8416412758664, -1.914495931862906, 0.1};
Point(p16 + 28) = {15.99771801205986, -1.979145032765167, 0.1};
Point(p16 + 29) = {16.16198653215127, -2.018582415224638, 0.1};
Point(p16 + 30) = {16.330402, -2.031837, 0.1};
Point(p16 + 31) = {16.49881746784873, -2.018582415224638, 0.1};
Point(p16 + 32) = {16.66308598794014, -1.979145032765167, 0.1};
Point(p16 + 33) = {16.8191627241336, -1.914495931862907, 0.1};
Point(p16 + 34) = {16.96320454919505, -1.826226987940136, 0.1};
Point(p16 + 35) = {17.09166467534406, -1.716511675344063, 0.1};
Point(p16 + 36) = {17.20137998794014, -1.588051549195049, 0.1};
Point(p16 + 37) = {17.28964893186291, -1.444009724133599, 0.1};
Point(p16 + 38) = {17.35429803276516, -1.287932987940136, 0.1};
Point(p16 + 39) = {17.39373541522464, -1.123664467848732, 0.1};
Spline(16) = {11, p16 + 1, p16 + 2, p16 + 3, p16 + 4, p16 + 5, p16 + 6, p16 + 7, p16 + 8, p16 + 9, p16 + 10, p16 + 11, p16 + 12, p16 + 13, p16 + 14, p16 + 15, p16 + 16, p16 + 17, p16 + 18, p16 + 19, p16 + 20, p16 + 21, p16 + 22, p16 + 23, p16 + 24, p16 + 25, p16 + 26, p16 + 27, p16 + 28, p16 + 29, p16 + 30, p16 + 31, p16 + 32, p16 + 33, p16 + 34, p16 + 35, p16 + 36, p16 + 37, p16 + 38, p16 + 39, 11};
Line(17) = {12, 11};
p18 = newp;
Point(p18 + 1) = {17.39373541522464, -0.7868335321512679, 0};
Point(p18 + 2) = {17.35429803276516, -0.6225650120598641, 0};
Point(p18 + 3) = {17.28964893186291, -0.4664882758664008, 0};
Point(p18 + 4) = {17.20137998794014, -0.3224464508049509, 0};
Point(p18 + 5) = {17.09166467534406, -0.1939863246559372, 0};
Point(p18 + 6) = {16.96320454919505, -0.08427101205986409, 0};
Point(p18 + 7) = {16.8191627241336, 0.003997931862906534, 0};
Point(p18 + 8) = {16.66308598794014, 0.06864703276516693, 0};
Point(p18 + 9) = {16.49881746784873, 0.1080844152246383, 0};
Point(p18 + 10) = {16.330402, 0.1213390000000001, 0};
Point(p18 + 11) = {16.16198653215127, 0.1080844152246381, 0};
Point(p18 + 12) = {15.99771801205986, 0.06864703276516693, 0};
Point(p18 + 13) = {15.8416412758664, 0.003997931862906645, 0};
Point(p18 + 14) = {15.69759945080495, -0.08427101205986398, 0};
Point(p18 + 15) = {15.56913932465594, -0.193986324655937, 0};
Point(p18 + 16) = {15.45942401205986, -0.3224464508049507, 0};
Point(p18 + 17) = {15.37115506813709, -0.4664882758664007, 0};
Point(p18 + 18) = {15.30650596723483, -0.622565012059864, 0};
Point(p18 + 19) = {15.26706858477536, -0.7868335321512678, 0};
Point(p18 + 20) = {15.253814, -0.9552489999999999, 0};
Point(p18 + 21) = {15.26706858477536, -1.123664467848732, 0};
Point(p18 + 22) = {15.30650596723483, -1.287932987940136, 0};
Point(p18 + 23) = {15.37115506813709, -1.444009724133599, 0};
Point(p18 + 24) = {15.45942401205986, -1.588051549195049, 0};
Point(p18 + 25) = {15.56913932465594, -1.716511675344063, 0};
Point(p18 + 26) = {15.69759945080495, -1.826226987940136, 0};
Point(p18 + 27) = {15.8416412758664, -1.914495931862906, 0};
Point(p18 + 28) = {15.99771801205986, -1.979145032765167, 0};
Point(p18 + 29) = {16.16198653215127, -2.018582415224638, 0};
Point(p18 + 30) = {16.330402, -2.031837, 0};
Point(p18 + 31) = {16.49881746784873, -2.018582415224638, 0};
Point(p18 + 32) = {16.66308598794014, -1.979145032765167, 0};
Point(p18 + 33) = {16.8191627241336, -1.914495931862907, 0};
Point(p18 + 34) = {16.96320454919505, -1.826226987940136, 0};
Point(p18 + 35) = {17.09166467534406, -1.716511675344063, 0};
Point(p18 + 36) = {17.20137998794014, -1.588051549195049, 0};
Point(p18 + 37) = {17.28964893186291, -1.444009724133599, 0};
Point(p18 + 38) = {17.35429803276516, -1.287932987940136, 0};
Point(p18 + 39) = {17.39373541522464, -1.123664467848732, 0};
Spline(18) = {12, p18 + 1, p18 + 2, p18 + 3, p18 + 4, p18 + 5, p18 + 6, p18 + 7, p18 + 8, p18 + 9, p18 + 10, p18 + 11, p18 + 12, p18 + 13, p18 + 14, p18 + 15, p18 + 16, p18 + 17, p18 + 18, p18 + 19, p18 + 20, p18 + 21, p18 + 22, p18 + 23, p18 + 24, p18 + 25, p18 + 26, p18 + 27, p18 + 28, p18 + 29, p18 + 30, p18 + 31, p18 + 32, p18 + 33, p18 + 34, p18 + 35, p18 + 36, p18 + 37, p18 + 38, p18 + 39, 12};
Line(19) = {14, 13};
Line(20) = {13, 15};
Line(21) = {16, 15};
Line(22) = {14, 16};
Line(23) = {14, 17};
Line(24) = {17, 18};
Line(25) = {13, 18};
Line(26) = {15, 19};
Line(27) = {18, 19};
Line(28) = {16, 20};
Line(29) = {20, 19};
Line(30) = {17, 20};
Curve Loop(7) = {-13, -14, 15, 14};
Surface(7) = {7};
Curve Loop(8) = {13};
Plane Surface(8) = {8};
Curve Loop(9) = {15};
Plane Surface(9) = {9};
Curve Loop(10) = {-16, -17, 18, 17};
Surface(10) = {10};
Curve Loop(11) = {16};
Plane Surface(11) = {11};
Curve Loop(12) = {18};
Plane Surface(12) = {12};
Curve Loop(13) = {-19, 22, 21, -20};
Plane Surface(13) = {13};
Curve Loop(14) = {-23, 19, 25, -24};
Plane Surface(14) = {14};
Curve Loop(15) = {-20, 25, 27, -26, -16, -13};
Plane Surface(15) = {15};
Curve Loop(16) = {-28, 21, 26, -29};
Plane Surface(16) = {16};
Curve Loop(17) = {-22, 23, 30, -28, -18, -15};
Plane Surface(17) = {17};
Curve Loop(18) = {-24, 30, 29, -27};
Plane Surface(18) = {18};
Surface Loop(1) = {13, 14, 15, 16, 17, 18, 10, 7};
Volume(1) = {1};
Surface Loop(2) = {7, 8, 9};
Volume(2) = {2};
Surface Loop(3) = {10, 11, 12};
Volume(3) = {3};
Physical Surface("WALLS") = {13, 18};
Physical Surface("LOAD") = {8, 11};
Physical Surface("BORDER") = {7, 9, 10, 12, 14, 15, 16, 17};
Physical Volume("SOLID") = {1, 2, 3};
