cl__1 = 0.06830700000000001;
cl__2 = 0.05893;
cl__3 = 3.430628;
cl__4 = 3.709602;
cl__5 = 0.507213;
cl__6 = 0.436574;
Point(9) = {32.018476, 2.090946, 0.1, cl__1};
Point(10) = {32.018476, 2.090946, 0, cl__1};
Point(11) = {26.938315, -1.307189, 0.1, cl__2};
Point(12) = {26.938315, -1.307189, 0, cl__2};
Point(13) = {0.845419, -3.135781, 1, cl__3};
Point(14) = {0.845419, -3.135781, 0, cl__3};
Point(15) = {0.845419, 4.817059, 1, cl__4};
Point(16) = {0.845419, 4.817059, 0, cl__4};
Point(17) = {38.764948, -3.135781, 0, cl__5};
Point(18) = {38.764948, -3.135781, 1, cl__5};
Point(19) = {38.764948, 4.817059, 1, cl__6};
Point(20) = {38.764948, 4.817059, 0, cl__6};
p13 = newp;
Point(p13 + 1) = {32.01006629943364, 2.197801377166101, 0.1};
Point(p13 + 2) = {31.9850442724727, 2.302025620313707, 0.1};
Point(p13 + 3) = {31.9440260444643, 2.401052382676093, 0.1};
Point(p13 + 4) = {31.88802162031371, 2.492443296712915, 0.1};
Point(p13 + 5) = {31.81841001481153, 2.573948014811533, 0.1};
Point(p13 + 6) = {31.73690529671292, 2.643559620313707, 0.1};
Point(p13 + 7) = {31.64551438267609, 2.6995640444643, 0.1};
Point(p13 + 8) = {31.54648762031371, 2.740582272472698, 0.1};
Point(p13 + 9) = {31.4422633771661, 2.76560429943364, 0.1};
Point(p13 + 10) = {31.335408, 2.774014, 0.1};
Point(p13 + 11) = {31.2285526228339, 2.76560429943364, 0.1};
Point(p13 + 12) = {31.12432837968629, 2.740582272472698, 0.1};
Point(p13 + 13) = {31.02530161732391, 2.6995640444643, 0.1};
Point(p13 + 14) = {30.93391070328709, 2.643559620313707, 0.1};
Point(p13 + 15) = {30.85240598518847, 2.573948014811533, 0.1};
Point(p13 + 16) = {30.78279437968629, 2.492443296712915, 0.1};
Point(p13 + 17) = {30.7267899555357, 2.401052382676093, 0.1};
Point(p13 + 18) = {30.6857717275273, 2.302025620313707, 0.1};
Point(p13 + 19) = {30.66074970056636, 2.197801377166101, 0.1};
Point(p13 + 20) = {30.65234, 2.090946, 0.1};
Point(p13 + 21) = {30.66074970056636, 1.9840906228339, 0.1};
Point(p13 + 22) = {30.6857717275273, 1.879866379686293, 0.1};
Point(p13 + 23) = {30.7267899555357, 1.780839617323908, 0.1};
Point(p13 + 24) = {30.78279437968629, 1.689448703287085, 0.1};
Point(p13 + 25) = {30.85240598518847, 1.607943985188468, 0.1};
Point(p13 + 26) = {30.93391070328709, 1.538332379686294, 0.1};
Point(p13 + 27) = {31.02530161732391, 1.4823279555357, 0.1};
Point(p13 + 28) = {31.12432837968629, 1.441309727527302, 0.1};
Point(p13 + 29) = {31.2285526228339, 1.416287700566361, 0.1};
Point(p13 + 30) = {31.335408, 1.407878, 0.1};
Point(p13 + 31) = {31.4422633771661, 1.416287700566361, 0.1};
Point(p13 + 32) = {31.54648762031371, 1.441309727527302, 0.1};
Point(p13 + 33) = {31.64551438267609, 1.4823279555357, 0.1};
Point(p13 + 34) = {31.73690529671292, 1.538332379686294, 0.1};
Point(p13 + 35) = {31.81841001481153, 1.607943985188467, 0.1};
Point(p13 + 36) = {31.88802162031371, 1.689448703287085, 0.1};
Point(p13 + 37) = {31.9440260444643, 1.780839617323907, 0.1};
Point(p13 + 38) = {31.9850442724727, 1.879866379686294, 0.1};
Point(p13 + 39) = {32.01006629943364, 1.9840906228339, 0.1};
Spline(13) = {9, p13 + 1, p13 + 2, p13 + 3, p13 + 4, p13 + 5, p13 + 6, p13 + 7, p13 + 8, p13 + 9, p13 + 10, p13 + 11, p13 + 12, p13 + 13, p13 + 14, p13 + 15, p13 + 16, p13 + 17, p13 + 18, p13 + 19, p13 + 20, p13 + 21, p13 + 22, p13 + 23, p13 + 24, p13 + 25, p13 + 26, p13 + 27, p13 + 28, p13 + 29, p13 + 30, p13 + 31, p13 + 32, p13 + 33, p13 + 34, p13 + 35, p13 + 36, p13 + 37, p13 + 38, p13 + 39, 9};
Line(14) = {10, 9};
p15 = newp;
Point(p15 + 1) = {32.01006629943364, 2.197801377166101, 0};
Point(p15 + 2) = {31.9850442724727, 2.302025620313707, 0};
Point(p15 + 3) = {31.9440260444643, 2.401052382676093, 0};
Point(p15 + 4) = {31.88802162031371, 2.492443296712915, 0};
Point(p15 + 5) = {31.81841001481153, 2.573948014811533, 0};
Point(p15 + 6) = {31.73690529671292, 2.643559620313707, 0};
Point(p15 + 7) = {31.64551438267609, 2.6995640444643, 0};
Point(p15 + 8) = {31.54648762031371, 2.740582272472698, 0};
Point(p15 + 9) = {31.4422633771661, 2.76560429943364, 0};
Point(p15 + 10) = {31.335408, 2.774014, 0};
Point(p15 + 11) = {31.2285526228339, 2.76560429943364, 0};
Point(p15 + 12) = {31.12432837968629, 2.740582272472698, 0};
Point(p15 + 13) = {31.02530161732391, 2.6995640444643, 0};
Point(p15 + 14) = {30.93391070328709, 2.643559620313707, 0};
Point(p15 + 15) = {30.85240598518847, 2.573948014811533, 0};
Point(p15 + 16) = {30.78279437968629, 2.492443296712915, 0};
Point(p15 + 17) = {30.7267899555357, 2.401052382676093, 0};
Point(p15 + 18) = {30.6857717275273, 2.302025620313707, 0};
Point(p15 + 19) = {30.66074970056636, 2.197801377166101, 0};
Point(p15 + 20) = {30.65234, 2.090946, 0};
Point(p15 + 21) = {30.66074970056636, 1.9840906228339, 0};
Point(p15 + 22) = {30.6857717275273, 1.879866379686293, 0};
Point(p15 + 23) = {30.7267899555357, 1.780839617323908, 0};
Point(p15 + 24) = {30.78279437968629, 1.689448703287085, 0};
Point(p15 + 25) = {30.85240598518847, 1.607943985188468, 0};
Point(p15 + 26) = {30.93391070328709, 1.538332379686294, 0};
Point(p15 + 27) = {31.02530161732391, 1.4823279555357, 0};
Point(p15 + 28) = {31.12432837968629, 1.441309727527302, 0};
Point(p15 + 29) = {31.2285526228339, 1.416287700566361, 0};
Point(p15 + 30) = {31.335408, 1.407878, 0};
Point(p15 + 31) = {31.4422633771661, 1.416287700566361, 0};
Point(p15 + 32) = {31.54648762031371, 1.441309727527302, 0};
Point(p15 + 33) = {31.64551438267609, 1.4823279555357, 0};
Point(p15 + 34) = {31.73690529671292, 1.538332379686294, 0};
Point(p15 + 35) = {31.81841001481153, 1.607943985188467, 0};
Point(p15 + 36) = {31.88802162031371, 1.689448703287085, 0};
Point(p15 + 37) = {31.9440260444643, 1.780839617323907, 0};
Point(p15 + 38) = {31.9850442724727, 1.879866379686294, 0};
Point(p15 + 39) = {32.01006629943364, 1.9840906228339, 0};
Spline(15) = {10, p15 + 1, p15 + 2, p15 + 3, p15 + 4, p15 + 5, p15 + 6, p15 + 7, p15 + 8, p15 + 9, p15 + 10, p15 + 11, p15 + 12, p15 + 13, p15 + 14, p15 + 15, p15 + 16, p15 + 17, p15 + 18, p15 + 19, p15 + 20, p15 + 21, p15 + 22, p15 + 23, p15 + 24, p15 + 25, p15 + 26, p15 + 27, p15 + 28, p15 + 29, p15 + 30, p15 + 31, p15 + 32, p15 + 33, p15 + 34, p15 + 35, p15 + 36, p15 + 37, p15 + 38, p15 + 39, 10};
p16 = newp;
Point(p16 + 1) = {26.93105973911272, -1.215002169751792, 0.1};
Point(p16 + 2) = {26.90947260505273, -1.125085285214843, 0.1};
Point(p16 + 3) = {26.87408514470421, -1.039652398503485, 0.1};
Point(p16 + 4) = {26.82576871478516, -0.9608071508240454, 0.1};
Point(p16 + 5) = {26.76571302615323, -0.8904909738467675, 0.1};
Point(p16 + 6) = {26.69539684917596, -0.8304352852148434, 0.1};
Point(p16 + 7) = {26.61655160149652, -0.7821188552957947, 0.1};
Point(p16 + 8) = {26.53111871478516, -0.7467313949472659, 0.1};
Point(p16 + 9) = {26.44120183024821, -0.7251442608872852, 0.1};
Point(p16 + 10) = {26.349015, -0.7178889999999999, 0.1};
Point(p16 + 11) = {26.25682816975179, -0.7251442608872852, 0.1};
Point(p16 + 12) = {26.16691128521484, -0.7467313949472658, 0.1};
Point(p16 + 13) = {26.08147839850349, -0.7821188552957947, 0.1};
Point(p16 + 14) = {26.00263315082405, -0.8304352852148433, 0.1};
Point(p16 + 15) = {25.93231697384677, -0.8904909738467675, 0.1};
Point(p16 + 16) = {25.87226128521484, -0.9608071508240454, 0.1};
Point(p16 + 17) = {25.8239448552958, -1.039652398503485, 0.1};
Point(p16 + 18) = {25.78855739494727, -1.125085285214843, 0.1};
Point(p16 + 19) = {25.76697026088729, -1.215002169751792, 0.1};
Point(p16 + 20) = {25.759715, -1.307189, 0.1};
Point(p16 + 21) = {25.76697026088729, -1.399375830248208, 0.1};
Point(p16 + 22) = {25.78855739494727, -1.489292714785157, 0.1};
Point(p16 + 23) = {25.8239448552958, -1.574725601496515, 0.1};
Point(p16 + 24) = {25.87226128521484, -1.653570849175954, 0.1};
Point(p16 + 25) = {25.93231697384677, -1.723887026153232, 0.1};
Point(p16 + 26) = {26.00263315082405, -1.783942714785157, 0.1};
Point(p16 + 27) = {26.08147839850349, -1.832259144704205, 0.1};
Point(p16 + 28) = {26.16691128521484, -1.867646605052734, 0.1};
Point(p16 + 29) = {26.25682816975179, -1.889233739112715, 0.1};
Point(p16 + 30) = {26.349015, -1.896489, 0.1};
Point(p16 + 31) = {26.44120183024821, -1.889233739112715, 0.1};
Point(p16 + 32) = {26.53111871478516, -1.867646605052734, 0.1};
Point(p16 + 33) = {26.61655160149652, -1.832259144704205, 0.1};
Point(p16 + 34) = {26.69539684917596, -1.783942714785157, 0.1};
Point(p16 + 35) = {26.76571302615323, -1.723887026153232, 0.1};
Point(p16 + 36) = {26.82576871478516, -1.653570849175954, 0.1};
Point(p16 + 37) = {26.87408514470421, -1.574725601496515, 0.1};
Point(p16 + 38) = {26.90947260505273, -1.489292714785157, 0.1};
Point(p16 + 39) = {26.93105973911272, -1.399375830248208, 0.1};
Spline(16) = {11, p16 + 1, p16 + 2, p16 + 3, p16 + 4, p16 + 5, p16 + 6, p16 + 7, p16 + 8, p16 + 9, p16 + 10, p16 + 11, p16 + 12, p16 + 13, p16 + 14, p16 + 15, p16 + 16, p16 + 17, p16 + 18, p16 + 19, p16 + 20, p16 + 21, p16 + 22, p16 + 23, p16 + 24, p16 + 25, p16 + 26, p16 + 27, p16 + 28, p16 + 29, p16 + 30, p16 + 31, p16 + 32, p16 + 33, p16 + 34, p16 + 35, p16 + 36, p16 + 37, p16 + 38, p16 + 39, 11};
Line(17) = {12, 11};
p18 = newp;
Point(p18 + 1) = {26.93105973911272, -1.215002169751792, 0};
Point(p18 + 2) = {26.90947260505273, -1.125085285214843, 0};
Point(p18 + 3) = {26.87408514470421, -1.039652398503485, 0};
Point(p18 + 4) = {26.82576871478516, -0.9608071508240454, 0};
Point(p18 + 5) = {26.76571302615323, -0.8904909738467675, 0};
Point(p18 + 6) = {26.69539684917596, -0.8304352852148434, 0};
Point(p18 + 7) = {26.61655160149652, -0.7821188552957947, 0};
Point(p18 + 8) = {26.53111871478516, -0.7467313949472659, 0};
Point(p18 + 9) = {26.44120183024821, -0.7251442608872852, 0};
Point(p18 + 10) = {26.349015, -0.7178889999999999, 0};
Point(p18 + 11) = {26.25682816975179, -0.7251442608872852, 0};
Point(p18 + 12) = {26.16691128521484, -0.7467313949472658, 0};
Point(p18 + 13) = {26.08147839850349, -0.7821188552957947, 0};
Point(p18 + 14) = {26.00263315082405, -0.8304352852148433, 0};
Point(p18 + 15) = {25.93231697384677, -0.8904909738467675, 0};
Point(p18 + 16) = {25.87226128521484, -0.9608071508240454, 0};
Point(p18 + 17) = {25.8239448552958, -1.039652398503485, 0};
Point(p18 + 18) = {25.78855739494727, -1.125085285214843, 0};
Point(p18 + 19) = {25.76697026088729, -1.215002169751792, 0};
Point(p18 + 20) = {25.759715, -1.307189, 0};
Point(p18 + 21) = {25.76697026088729, -1.399375830248208, 0};
Point(p18 + 22) = {25.78855739494727, -1.489292714785157, 0};
Point(p18 + 23) = {25.8239448552958, -1.574725601496515, 0};
Point(p18 + 24) = {25.87226128521484, -1.653570849175954, 0};
Point(p18 + 25) = {25.93231697384677, -1.723887026153232, 0};
Point(p18 + 26) = {26.00263315082405, -1.783942714785157, 0};
Point(p18 + 27) = {26.08147839850349, -1.832259144704205, 0};
Point(p18 + 28) = {26.16691128521484, -1.867646605052734, 0};
Point(p18 + 29) = {26.25682816975179, -1.889233739112715, 0};
Point(p18 + 30) = {26.349015, -1.896489, 0};
Point(p18 + 31) = {26.44120183024821, -1.889233739112715, 0};
Point(p18 + 32) = {26.53111871478516, -1.867646605052734, 0};
Point(p18 + 33) = {26.61655160149652, -1.832259144704205, 0};
Point(p18 + 34) = {26.69539684917596, -1.783942714785157, 0};
Point(p18 + 35) = {26.76571302615323, -1.723887026153232, 0};
Point(p18 + 36) = {26.82576871478516, -1.653570849175954, 0};
Point(p18 + 37) = {26.87408514470421, -1.574725601496515, 0};
Point(p18 + 38) = {26.90947260505273, -1.489292714785157, 0};
Point(p18 + 39) = {26.93105973911272, -1.399375830248208, 0};
Spline(18) = {12, p18 + 1, p18 + 2, p18 + 3, p18 + 4, p18 + 5, p18 + 6, p18 + 7, p18 + 8, p18 + 9, p18 + 10, p18 + 11, p18 + 12, p18 + 13, p18 + 14, p18 + 15, p18 + 16, p18 + 17, p18 + 18, p18 + 19, p18 + 20, p18 + 21, p18 + 22, p18 + 23, p18 + 24, p18 + 25, p18 + 26, p18 + 27, p18 + 28, p18 + 29, p18 + 30, p18 + 31, p18 + 32, p18 + 33, p18 + 34, p18 + 35, p18 + 36, p18 + 37, p18 + 38, p18 + 39, 12};
Line(19) = {14, 13};
Line(20) = {13, 15};
Line(21) = {16, 15};
Line(22) = {14, 16};
Line(23) = {14, 17};
Line(24) = {17, 18};
Line(25) = {13, 18};
Line(26) = {15, 19};
Line(27) = {18, 19};
Line(28) = {16, 20};
Line(29) = {20, 19};
Line(30) = {17, 20};
Curve Loop(7) = {-13, -14, 15, 14};
Surface(7) = {7};
Curve Loop(8) = {13};
Plane Surface(8) = {8};
Curve Loop(9) = {15};
Plane Surface(9) = {9};
Curve Loop(10) = {-16, -17, 18, 17};
Surface(10) = {10};
Curve Loop(11) = {16};
Plane Surface(11) = {11};
Curve Loop(12) = {18};
Plane Surface(12) = {12};
Curve Loop(13) = {-19, 22, 21, -20};
Plane Surface(13) = {13};
Curve Loop(14) = {-23, 19, 25, -24};
Plane Surface(14) = {14};
Curve Loop(15) = {-20, 25, 27, -26};
Plane Surface(15) = {15};
Curve Loop(16) = {-28, 21, 26, -29};
Plane Surface(16) = {16};
Curve Loop(17) = {-22, 23, 30, -28, -18, -15};
Plane Surface(17) = {17};
Curve Loop(18) = {-24, 30, 29, -27};
Plane Surface(18) = {18};
Surface Loop(1) = {13, 14, 15, 16, 17, 18, 10, 7, 11, 8};
Volume(1) = {1};
Surface Loop(2) = {7, 8, 9};
Volume(2) = {2};
Surface Loop(3) = {10, 11, 12};
Volume(3) = {3};
Physical Surface("WALLS") = {13, 18};
Physical Surface("LOAD") = {8, 11};
Physical Surface("BORDER") = {7, 9, 10, 12, 14, 15, 16, 17};
Physical Volume("SOLID") = {1, 2, 3};
