cl__1 = 0.059275;
cl__2 = 0.110373;
cl__3 = 3.113032;
cl__4 = 0.539093;
cl__5 = 0.499068;
cl__6 = 3.386476;
Point(9) = {32.566061, -1.289056, 0.1, cl__1};
Point(10) = {32.566061, -1.289056, 0, cl__1};
Point(11) = {4.334295, 2.741278, 0.1, cl__2};
Point(12) = {4.334295, 2.741278, 0, cl__2};
Point(13) = {0.805819, -3.24621, 0.1, cl__3};
Point(14) = {0.805819, -3.24621, 0, cl__3};
Point(15) = {0.805819, 4.642488999999999, 0.1, cl__4};
Point(16) = {0.805819, 4.642488999999999, 0, cl__4};
Point(17) = {33.402505, -3.24621, 0, cl__5};
Point(18) = {33.402505, -3.24621, 0.1, cl__5};
Point(19) = {33.402505, 4.642488999999999, 0.1, cl__6};
Point(20) = {33.402505, 4.642488999999999, 0, cl__6};
p13 = newp;
Point(p13 + 1) = {32.55876331313441, -1.196330096585263, 0.1};
Point(p13 + 2) = {32.53704994580789, -1.105887412652227, 0.1};
Point(p13 + 3) = {32.50145555318656, -1.019954947241382, 0.1};
Point(p13 + 4) = {32.45285658734777, -0.9406486428446457, 0.1};
Point(p13 + 5) = {32.3924497161212, -0.8699212838787987, 0.1};
Point(p13 + 6) = {32.32172235715535, -0.8095144126522275, 0.1};
Point(p13 + 7) = {32.24241605275861, -0.7609154468134417, 0.1};
Point(p13 + 8) = {32.15648358734777, -0.7253210541921129, 0.1};
Point(p13 + 9) = {32.06604090341474, -0.7036076868655945, 0.1};
Point(p13 + 10) = {31.973315, -0.69631, 0.1};
Point(p13 + 11) = {31.88058909658526, -0.7036076868655945, 0.1};
Point(p13 + 12) = {31.79014641265223, -0.7253210541921128, 0.1};
Point(p13 + 13) = {31.70421394724138, -0.7609154468134417, 0.1};
Point(p13 + 14) = {31.62490764284464, -0.8095144126522273, 0.1};
Point(p13 + 15) = {31.5541802838788, -0.8699212838787986, 0.1};
Point(p13 + 16) = {31.49377341265223, -0.9406486428446457, 0.1};
Point(p13 + 17) = {31.44517444681344, -1.019954947241382, 0.1};
Point(p13 + 18) = {31.40958005419211, -1.105887412652227, 0.1};
Point(p13 + 19) = {31.38786668686559, -1.196330096585263, 0.1};
Point(p13 + 20) = {31.380569, -1.289056, 0.1};
Point(p13 + 21) = {31.38786668686559, -1.381781903414737, 0.1};
Point(p13 + 22) = {31.40958005419211, -1.472224587347773, 0.1};
Point(p13 + 23) = {31.44517444681344, -1.558157052758617, 0.1};
Point(p13 + 24) = {31.49377341265223, -1.637463357155354, 0.1};
Point(p13 + 25) = {31.5541802838788, -1.708190716121201, 0.1};
Point(p13 + 26) = {31.62490764284464, -1.768597587347772, 0.1};
Point(p13 + 27) = {31.70421394724138, -1.817196553186558, 0.1};
Point(p13 + 28) = {31.79014641265223, -1.852790945807887, 0.1};
Point(p13 + 29) = {31.88058909658526, -1.874504313134405, 0.1};
Point(p13 + 30) = {31.973315, -1.881802, 0.1};
Point(p13 + 31) = {32.06604090341474, -1.874504313134405, 0.1};
Point(p13 + 32) = {32.15648358734777, -1.852790945807887, 0.1};
Point(p13 + 33) = {32.24241605275861, -1.817196553186558, 0.1};
Point(p13 + 34) = {32.32172235715535, -1.768597587347773, 0.1};
Point(p13 + 35) = {32.3924497161212, -1.708190716121201, 0.1};
Point(p13 + 36) = {32.45285658734777, -1.637463357155354, 0.1};
Point(p13 + 37) = {32.50145555318656, -1.558157052758617, 0.1};
Point(p13 + 38) = {32.53704994580789, -1.472224587347773, 0.1};
Point(p13 + 39) = {32.55876331313441, -1.381781903414737, 0.1};
Spline(13) = {9, p13 + 1, p13 + 2, p13 + 3, p13 + 4, p13 + 5, p13 + 6, p13 + 7, p13 + 8, p13 + 9, p13 + 10, p13 + 11, p13 + 12, p13 + 13, p13 + 14, p13 + 15, p13 + 16, p13 + 17, p13 + 18, p13 + 19, p13 + 20, p13 + 21, p13 + 22, p13 + 23, p13 + 24, p13 + 25, p13 + 26, p13 + 27, p13 + 28, p13 + 29, p13 + 30, p13 + 31, p13 + 32, p13 + 33, p13 + 34, p13 + 35, p13 + 36, p13 + 37, p13 + 38, p13 + 39, 9};
Line(14) = {10, 9};
p15 = newp;
Point(p15 + 1) = {32.55876331313441, -1.196330096585263, 0};
Point(p15 + 2) = {32.53704994580789, -1.105887412652227, 0};
Point(p15 + 3) = {32.50145555318656, -1.019954947241382, 0};
Point(p15 + 4) = {32.45285658734777, -0.9406486428446457, 0};
Point(p15 + 5) = {32.3924497161212, -0.8699212838787987, 0};
Point(p15 + 6) = {32.32172235715535, -0.8095144126522275, 0};
Point(p15 + 7) = {32.24241605275861, -0.7609154468134417, 0};
Point(p15 + 8) = {32.15648358734777, -0.7253210541921129, 0};
Point(p15 + 9) = {32.06604090341474, -0.7036076868655945, 0};
Point(p15 + 10) = {31.973315, -0.69631, 0};
Point(p15 + 11) = {31.88058909658526, -0.7036076868655945, 0};
Point(p15 + 12) = {31.79014641265223, -0.7253210541921128, 0};
Point(p15 + 13) = {31.70421394724138, -0.7609154468134417, 0};
Point(p15 + 14) = {31.62490764284464, -0.8095144126522273, 0};
Point(p15 + 15) = {31.5541802838788, -0.8699212838787986, 0};
Point(p15 + 16) = {31.49377341265223, -0.9406486428446457, 0};
Point(p15 + 17) = {31.44517444681344, -1.019954947241382, 0};
Point(p15 + 18) = {31.40958005419211, -1.105887412652227, 0};
Point(p15 + 19) = {31.38786668686559, -1.196330096585263, 0};
Point(p15 + 20) = {31.380569, -1.289056, 0};
Point(p15 + 21) = {31.38786668686559, -1.381781903414737, 0};
Point(p15 + 22) = {31.40958005419211, -1.472224587347773, 0};
Point(p15 + 23) = {31.44517444681344, -1.558157052758617, 0};
Point(p15 + 24) = {31.49377341265223, -1.637463357155354, 0};
Point(p15 + 25) = {31.5541802838788, -1.708190716121201, 0};
Point(p15 + 26) = {31.62490764284464, -1.768597587347772, 0};
Point(p15 + 27) = {31.70421394724138, -1.817196553186558, 0};
Point(p15 + 28) = {31.79014641265223, -1.852790945807887, 0};
Point(p15 + 29) = {31.88058909658526, -1.874504313134405, 0};
Point(p15 + 30) = {31.973315, -1.881802, 0};
Point(p15 + 31) = {32.06604090341474, -1.874504313134405, 0};
Point(p15 + 32) = {32.15648358734777, -1.852790945807887, 0};
Point(p15 + 33) = {32.24241605275861, -1.817196553186558, 0};
Point(p15 + 34) = {32.32172235715535, -1.768597587347773, 0};
Point(p15 + 35) = {32.3924497161212, -1.708190716121201, 0};
Point(p15 + 36) = {32.45285658734777, -1.637463357155354, 0};
Point(p15 + 37) = {32.50145555318656, -1.558157052758617, 0};
Point(p15 + 38) = {32.53704994580789, -1.472224587347773, 0};
Point(p15 + 39) = {32.55876331313441, -1.381781903414737, 0};
Spline(15) = {10, p15 + 1, p15 + 2, p15 + 3, p15 + 4, p15 + 5, p15 + 6, p15 + 7, p15 + 8, p15 + 9, p15 + 10, p15 + 11, p15 + 12, p15 + 13, p15 + 14, p15 + 15, p15 + 16, p15 + 17, p15 + 18, p15 + 19, p15 + 20, p15 + 21, p15 + 22, p15 + 23, p15 + 24, p15 + 25, p15 + 26, p15 + 27, p15 + 28, p15 + 29, p15 + 30, p15 + 31, p15 + 32, p15 + 33, p15 + 34, p15 + 35, p15 + 36, p15 + 37, p15 + 38, p15 + 39, 10};
p16 = newp;
Point(p16 + 1) = {4.320706301411709, 2.913938786360994, 0.1};
Point(p16 + 2) = {4.280274804504384, 3.082348091133483, 0.1};
Point(p16 + 3) = {4.21399606691633, 3.242359118315531, 0.1};
Point(p16 + 4) = {4.123502091133483, 3.390031865371762, 0.1};
Point(p16 + 5) = {4.011021139171904, 3.521730139171903, 0.1};
Point(p16 + 6) = {3.879322865371762, 3.634211091133483, 0.1};
Point(p16 + 7) = {3.731650118315531, 3.72470506691633, 0.1};
Point(p16 + 8) = {3.571639091133483, 3.790983804504385, 0.1};
Point(p16 + 9) = {3.403229786360994, 3.831415301411709, 0.1};
Point(p16 + 10) = {3.230569, 3.845004, 0.1};
Point(p16 + 11) = {3.057908213639006, 3.831415301411709, 0.1};
Point(p16 + 12) = {2.889498908866517, 3.790983804504385, 0.1};
Point(p16 + 13) = {2.729487881684469, 3.72470506691633, 0.1};
Point(p16 + 14) = {2.581815134628238, 3.634211091133483, 0.1};
Point(p16 + 15) = {2.450116860828097, 3.521730139171903, 0.1};
Point(p16 + 16) = {2.337635908866517, 3.390031865371762, 0.1};
Point(p16 + 17) = {2.247141933083669, 3.242359118315531, 0.1};
Point(p16 + 18) = {2.180863195495616, 3.082348091133483, 0.1};
Point(p16 + 19) = {2.140431698588291, 2.913938786360994, 0.1};
Point(p16 + 20) = {2.126843, 2.741278, 0.1};
Point(p16 + 21) = {2.140431698588291, 2.568617213639006, 0.1};
Point(p16 + 22) = {2.180863195495616, 2.400207908866516, 0.1};
Point(p16 + 23) = {2.247141933083669, 2.24019688168447, 0.1};
Point(p16 + 24) = {2.337635908866517, 2.092524134628238, 0.1};
Point(p16 + 25) = {2.450116860828096, 1.960825860828097, 0.1};
Point(p16 + 26) = {2.581815134628238, 1.848344908866517, 0.1};
Point(p16 + 27) = {2.729487881684469, 1.757850933083669, 0.1};
Point(p16 + 28) = {2.889498908866517, 1.691572195495615, 0.1};
Point(p16 + 29) = {3.057908213639006, 1.651140698588291, 0.1};
Point(p16 + 30) = {3.230569, 1.637552, 0.1};
Point(p16 + 31) = {3.403229786360994, 1.651140698588291, 0.1};
Point(p16 + 32) = {3.571639091133483, 1.691572195495615, 0.1};
Point(p16 + 33) = {3.731650118315531, 1.757850933083669, 0.1};
Point(p16 + 34) = {3.879322865371762, 1.848344908866516, 0.1};
Point(p16 + 35) = {4.011021139171904, 1.960825860828096, 0.1};
Point(p16 + 36) = {4.123502091133483, 2.092524134628237, 0.1};
Point(p16 + 37) = {4.21399606691633, 2.240196881684469, 0.1};
Point(p16 + 38) = {4.280274804504384, 2.400207908866516, 0.1};
Point(p16 + 39) = {4.320706301411709, 2.568617213639006, 0.1};
Spline(16) = {11, p16 + 1, p16 + 2, p16 + 3, p16 + 4, p16 + 5, p16 + 6, p16 + 7, p16 + 8, p16 + 9, p16 + 10, p16 + 11, p16 + 12, p16 + 13, p16 + 14, p16 + 15, p16 + 16, p16 + 17, p16 + 18, p16 + 19, p16 + 20, p16 + 21, p16 + 22, p16 + 23, p16 + 24, p16 + 25, p16 + 26, p16 + 27, p16 + 28, p16 + 29, p16 + 30, p16 + 31, p16 + 32, p16 + 33, p16 + 34, p16 + 35, p16 + 36, p16 + 37, p16 + 38, p16 + 39, 11};
Line(17) = {12, 11};
p18 = newp;
Point(p18 + 1) = {4.320706301411709, 2.913938786360994, 0};
Point(p18 + 2) = {4.280274804504384, 3.082348091133483, 0};
Point(p18 + 3) = {4.21399606691633, 3.242359118315531, 0};
Point(p18 + 4) = {4.123502091133483, 3.390031865371762, 0};
Point(p18 + 5) = {4.011021139171904, 3.521730139171903, 0};
Point(p18 + 6) = {3.879322865371762, 3.634211091133483, 0};
Point(p18 + 7) = {3.731650118315531, 3.72470506691633, 0};
Point(p18 + 8) = {3.571639091133483, 3.790983804504385, 0};
Point(p18 + 9) = {3.403229786360994, 3.831415301411709, 0};
Point(p18 + 10) = {3.230569, 3.845004, 0};
Point(p18 + 11) = {3.057908213639006, 3.831415301411709, 0};
Point(p18 + 12) = {2.889498908866517, 3.790983804504385, 0};
Point(p18 + 13) = {2.729487881684469, 3.72470506691633, 0};
Point(p18 + 14) = {2.581815134628238, 3.634211091133483, 0};
Point(p18 + 15) = {2.450116860828097, 3.521730139171903, 0};
Point(p18 + 16) = {2.337635908866517, 3.390031865371762, 0};
Point(p18 + 17) = {2.247141933083669, 3.242359118315531, 0};
Point(p18 + 18) = {2.180863195495616, 3.082348091133483, 0};
Point(p18 + 19) = {2.140431698588291, 2.913938786360994, 0};
Point(p18 + 20) = {2.126843, 2.741278, 0};
Point(p18 + 21) = {2.140431698588291, 2.568617213639006, 0};
Point(p18 + 22) = {2.180863195495616, 2.400207908866516, 0};
Point(p18 + 23) = {2.247141933083669, 2.24019688168447, 0};
Point(p18 + 24) = {2.337635908866517, 2.092524134628238, 0};
Point(p18 + 25) = {2.450116860828096, 1.960825860828097, 0};
Point(p18 + 26) = {2.581815134628238, 1.848344908866517, 0};
Point(p18 + 27) = {2.729487881684469, 1.757850933083669, 0};
Point(p18 + 28) = {2.889498908866517, 1.691572195495615, 0};
Point(p18 + 29) = {3.057908213639006, 1.651140698588291, 0};
Point(p18 + 30) = {3.230569, 1.637552, 0};
Point(p18 + 31) = {3.403229786360994, 1.651140698588291, 0};
Point(p18 + 32) = {3.571639091133483, 1.691572195495615, 0};
Point(p18 + 33) = {3.731650118315531, 1.757850933083669, 0};
Point(p18 + 34) = {3.879322865371762, 1.848344908866516, 0};
Point(p18 + 35) = {4.011021139171904, 1.960825860828096, 0};
Point(p18 + 36) = {4.123502091133483, 2.092524134628237, 0};
Point(p18 + 37) = {4.21399606691633, 2.240196881684469, 0};
Point(p18 + 38) = {4.280274804504384, 2.400207908866516, 0};
Point(p18 + 39) = {4.320706301411709, 2.568617213639006, 0};
Spline(18) = {12, p18 + 1, p18 + 2, p18 + 3, p18 + 4, p18 + 5, p18 + 6, p18 + 7, p18 + 8, p18 + 9, p18 + 10, p18 + 11, p18 + 12, p18 + 13, p18 + 14, p18 + 15, p18 + 16, p18 + 17, p18 + 18, p18 + 19, p18 + 20, p18 + 21, p18 + 22, p18 + 23, p18 + 24, p18 + 25, p18 + 26, p18 + 27, p18 + 28, p18 + 29, p18 + 30, p18 + 31, p18 + 32, p18 + 33, p18 + 34, p18 + 35, p18 + 36, p18 + 37, p18 + 38, p18 + 39, 12};
Line(19) = {14, 13};
Line(20) = {13, 15};
Line(21) = {16, 15};
Line(22) = {14, 16};
Line(23) = {14, 17};
Line(24) = {17, 18};
Line(25) = {13, 18};
Line(26) = {15, 19};
Line(27) = {18, 19};
Line(28) = {16, 20};
Line(29) = {20, 19};
Line(30) = {17, 20};
Curve Loop(7) = {-13, -14, 15, 14};
Surface(7) = {7};
Curve Loop(8) = {13};
Plane Surface(8) = {8};
Curve Loop(9) = {15};
Plane Surface(9) = {9};
Curve Loop(10) = {-16, -17, 18, 17};
Surface(10) = {10};
Curve Loop(11) = {16};
Plane Surface(11) = {11};
Curve Loop(12) = {18};
Plane Surface(12) = {12};
Curve Loop(13) = {-19, 22, 21, -20};
Plane Surface(13) = {13};
Curve Loop(14) = {-23, 19, 25, -24};
Plane Surface(14) = {14};
Curve Loop(15) = {-20, 25, 27, -26, -13, -16};
Plane Surface(15) = {15};
Curve Loop(16) = {-28, 21, 26, -29};
Plane Surface(16) = {16};
Curve Loop(17) = {-22, 23, 30, -28, -15, -18};
Plane Surface(17) = {17};
Curve Loop(18) = {-24, 30, 29, -27};
Plane Surface(18) = {18};
Surface Loop(1) = {13, 14, 15, 16, 17, 18, 7, 10};
Volume(1) = {1};
Surface Loop(2) = {7, 8, 9};
Volume(2) = {2};
Surface Loop(3) = {10, 11, 12};
Volume(3) = {3};
Physical Surface("WALLS") = {13, 18};
Physical Surface("LOAD") = {8, 11};
Physical Surface("BORDER") = {7, 9, 10, 12, 14, 15, 16, 17};
Physical Volume("SOLID") = {1, 2, 3};
