cl__1 = 0.076016;
cl__2 = 0.144724;
cl__3 = 0.170375;
cl__4 = 0.340738;
cl__5 = 5.211176;
cl__6 = 5.406998;
Point(9) = {15.603507, -0.5632200000000002, 0.1, cl__1};
Point(10) = {15.603507, -0.5632200000000002, 0, cl__1};
Point(11) = {4.743634, -1.046322, 0.1, cl__2};
Point(12) = {4.743634, -1.046322, 0, cl__2};
Point(13) = {0.974128, -3.762679, 0.1, cl__3};
Point(14) = {0.974128, -3.762679, 0, cl__3};
Point(15) = {0.974128, 4.159211000000001, 0.1, cl__4};
Point(16) = {0.974128, 4.159211000000001, 0, cl__4};
Point(17) = {37.012612, -3.762679, 0, cl__5};
Point(18) = {37.012612, -3.762679, 0.1, cl__5};
Point(19) = {37.012612, 4.159211000000001, 0.1, cl__6};
Point(20) = {37.012612, 4.159211000000001, 0, cl__6};
p13 = newp;
Point(p13 + 1) = {15.59414819361012, -0.4443050899239482, 0.1};
Point(p13 + 2) = {15.56630221931389, -0.3283182595899288, 0.1};
Point(p13 + 3) = {15.52065473741398, -0.2181154896989857, 0.1};
Point(p13 + 4) = {15.45832974041007, -0.1164103381878582, 0.1};
Point(p13 + 5) = {15.3808618765732, -0.02570712342679649, 0.1};
Point(p13 + 6) = {15.29015866181214, 0.05176074041007117, 0.1};
Point(p13 + 7) = {15.18845351030101, 0.1140857374139812, 0.1};
Point(p13 + 8) = {15.07825074041007, 0.1597332193138913, 0.1};
Point(p13 + 9) = {14.96226391007605, 0.1875791936101187, 0.1};
Point(p13 + 10) = {14.843349, 0.1969379999999999, 0.1};
Point(p13 + 11) = {14.72443408992395, 0.1875791936101185, 0.1};
Point(p13 + 12) = {14.60844725958993, 0.1597332193138914, 0.1};
Point(p13 + 13) = {14.49824448969899, 0.1140857374139813, 0.1};
Point(p13 + 14) = {14.39653933818786, 0.05176074041007128, 0.1};
Point(p13 + 15) = {14.3058361234268, -0.02570712342679637, 0.1};
Point(p13 + 16) = {14.22836825958993, -0.1164103381878582, 0.1};
Point(p13 + 17) = {14.16604326258602, -0.2181154896989856, 0.1};
Point(p13 + 18) = {14.12039578068611, -0.3283182595899287, 0.1};
Point(p13 + 19) = {14.09254980638988, -0.4443050899239481, 0.1};
Point(p13 + 20) = {14.083191, -0.5632199999999999, 0.1};
Point(p13 + 21) = {14.09254980638988, -0.6821349100760518, 0.1};
Point(p13 + 22) = {14.12039578068611, -0.7981217404100716, 0.1};
Point(p13 + 23) = {14.16604326258602, -0.908324510301014, 0.1};
Point(p13 + 24) = {14.22836825958993, -1.010029661812142, 0.1};
Point(p13 + 25) = {14.3058361234268, -1.100732876573204, 0.1};
Point(p13 + 26) = {14.39653933818786, -1.178200740410071, 0.1};
Point(p13 + 27) = {14.49824448969899, -1.240525737413981, 0.1};
Point(p13 + 28) = {14.60844725958993, -1.286173219313891, 0.1};
Point(p13 + 29) = {14.72443408992395, -1.314019193610119, 0.1};
Point(p13 + 30) = {14.843349, -1.323378, 0.1};
Point(p13 + 31) = {14.96226391007605, -1.314019193610119, 0.1};
Point(p13 + 32) = {15.07825074041007, -1.286173219313892, 0.1};
Point(p13 + 33) = {15.18845351030101, -1.240525737413982, 0.1};
Point(p13 + 34) = {15.29015866181214, -1.178200740410071, 0.1};
Point(p13 + 35) = {15.3808618765732, -1.100732876573204, 0.1};
Point(p13 + 36) = {15.45832974041007, -1.010029661812142, 0.1};
Point(p13 + 37) = {15.52065473741398, -0.9083245103010146, 0.1};
Point(p13 + 38) = {15.56630221931389, -0.7981217404100714, 0.1};
Point(p13 + 39) = {15.59414819361012, -0.6821349100760521, 0.1};
Spline(13) = {9, p13 + 1, p13 + 2, p13 + 3, p13 + 4, p13 + 5, p13 + 6, p13 + 7, p13 + 8, p13 + 9, p13 + 10, p13 + 11, p13 + 12, p13 + 13, p13 + 14, p13 + 15, p13 + 16, p13 + 17, p13 + 18, p13 + 19, p13 + 20, p13 + 21, p13 + 22, p13 + 23, p13 + 24, p13 + 25, p13 + 26, p13 + 27, p13 + 28, p13 + 29, p13 + 30, p13 + 31, p13 + 32, p13 + 33, p13 + 34, p13 + 35, p13 + 36, p13 + 37, p13 + 38, p13 + 39, 9};
Line(14) = {10, 9};
p15 = newp;
Point(p15 + 1) = {15.59414819361012, -0.4443050899239482, 0};
Point(p15 + 2) = {15.56630221931389, -0.3283182595899288, 0};
Point(p15 + 3) = {15.52065473741398, -0.2181154896989857, 0};
Point(p15 + 4) = {15.45832974041007, -0.1164103381878582, 0};
Point(p15 + 5) = {15.3808618765732, -0.02570712342679649, 0};
Point(p15 + 6) = {15.29015866181214, 0.05176074041007117, 0};
Point(p15 + 7) = {15.18845351030101, 0.1140857374139812, 0};
Point(p15 + 8) = {15.07825074041007, 0.1597332193138913, 0};
Point(p15 + 9) = {14.96226391007605, 0.1875791936101187, 0};
Point(p15 + 10) = {14.843349, 0.1969379999999999, 0};
Point(p15 + 11) = {14.72443408992395, 0.1875791936101185, 0};
Point(p15 + 12) = {14.60844725958993, 0.1597332193138914, 0};
Point(p15 + 13) = {14.49824448969899, 0.1140857374139813, 0};
Point(p15 + 14) = {14.39653933818786, 0.05176074041007128, 0};
Point(p15 + 15) = {14.3058361234268, -0.02570712342679637, 0};
Point(p15 + 16) = {14.22836825958993, -0.1164103381878582, 0};
Point(p15 + 17) = {14.16604326258602, -0.2181154896989856, 0};
Point(p15 + 18) = {14.12039578068611, -0.3283182595899287, 0};
Point(p15 + 19) = {14.09254980638988, -0.4443050899239481, 0};
Point(p15 + 20) = {14.083191, -0.5632199999999999, 0};
Point(p15 + 21) = {14.09254980638988, -0.6821349100760518, 0};
Point(p15 + 22) = {14.12039578068611, -0.7981217404100716, 0};
Point(p15 + 23) = {14.16604326258602, -0.908324510301014, 0};
Point(p15 + 24) = {14.22836825958993, -1.010029661812142, 0};
Point(p15 + 25) = {14.3058361234268, -1.100732876573204, 0};
Point(p15 + 26) = {14.39653933818786, -1.178200740410071, 0};
Point(p15 + 27) = {14.49824448969899, -1.240525737413981, 0};
Point(p15 + 28) = {14.60844725958993, -1.286173219313891, 0};
Point(p15 + 29) = {14.72443408992395, -1.314019193610119, 0};
Point(p15 + 30) = {14.843349, -1.323378, 0};
Point(p15 + 31) = {14.96226391007605, -1.314019193610119, 0};
Point(p15 + 32) = {15.07825074041007, -1.286173219313892, 0};
Point(p15 + 33) = {15.18845351030101, -1.240525737413982, 0};
Point(p15 + 34) = {15.29015866181214, -1.178200740410071, 0};
Point(p15 + 35) = {15.3808618765732, -1.100732876573204, 0};
Point(p15 + 36) = {15.45832974041007, -1.010029661812142, 0};
Point(p15 + 37) = {15.52065473741398, -0.9083245103010146, 0};
Point(p15 + 38) = {15.56630221931389, -0.7981217404100714, 0};
Point(p15 + 39) = {15.59414819361012, -0.6821349100760521, 0};
Spline(15) = {10, p15 + 1, p15 + 2, p15 + 3, p15 + 4, p15 + 5, p15 + 6, p15 + 7, p15 + 8, p15 + 9, p15 + 10, p15 + 11, p15 + 12, p15 + 13, p15 + 14, p15 + 15, p15 + 16, p15 + 17, p15 + 18, p15 + 19, p15 + 20, p15 + 21, p15 + 22, p15 + 23, p15 + 24, p15 + 25, p15 + 26, p15 + 27, p15 + 28, p15 + 29, p15 + 30, p15 + 31, p15 + 32, p15 + 33, p15 + 34, p15 + 35, p15 + 36, p15 + 37, p15 + 38, p15 + 39, 10};
p16 = newp;
Point(p16 + 1) = {4.72581602479627, -0.8199231590773161, 0.1};
Point(p16 + 2) = {4.672800836869063, -0.5990990089928236, 0.1};
Point(p16 + 3) = {4.58589384609247, -0.3892869731949394, 0.1};
Point(p16 + 4) = {4.467234991007176, -0.195653320331232, 0.1};
Point(p16 + 5) = {4.319746046431544, -0.02296595356845632, 0.1};
Point(p16 + 6) = {4.147058679668769, 0.1245229910071763, 0.1};
Point(p16 + 7) = {3.953425026805061, 0.2431818460924702, 0.1};
Point(p16 + 8) = {3.743612991007176, 0.3300888368690631, 0.1};
Point(p16 + 9) = {3.522788840922684, 0.3831040247962696, 0.1};
Point(p16 + 10) = {3.29639, 0.400922, 0.1};
Point(p16 + 11) = {3.069991159077316, 0.3831040247962694, 0.1};
Point(p16 + 12) = {2.849167008992824, 0.3300888368690633, 0.1};
Point(p16 + 13) = {2.63935497319494, 0.2431818460924704, 0.1};
Point(p16 + 14) = {2.445721320331232, 0.1245229910071766, 0.1};
Point(p16 + 15) = {2.273033953568456, -0.0229659535684561, 0.1};
Point(p16 + 16) = {2.125545008992824, -0.1956533203312318, 0.1};
Point(p16 + 17) = {2.00688615390753, -0.3892869731949392, 0.1};
Point(p16 + 18) = {1.919979163130937, -0.5990990089928234, 0.1};
Point(p16 + 19) = {1.866963975203731, -0.8199231590773159, 0.1};
Point(p16 + 20) = {1.849146, -1.046322, 0.1};
Point(p16 + 21) = {1.866963975203731, -1.272720840922684, 0.1};
Point(p16 + 22) = {1.919979163130937, -1.493544991007177, 0.1};
Point(p16 + 23) = {2.00688615390753, -1.70335702680506, 0.1};
Point(p16 + 24) = {2.125545008992824, -1.896990679668768, 0.1};
Point(p16 + 25) = {2.273033953568456, -2.069678046431544, 0.1};
Point(p16 + 26) = {2.445721320331232, -2.217166991007177, 0.1};
Point(p16 + 27) = {2.639354973194939, -2.33582584609247, 0.1};
Point(p16 + 28) = {2.849167008992823, -2.422732836869063, 0.1};
Point(p16 + 29) = {3.069991159077316, -2.475748024796269, 0.1};
Point(p16 + 30) = {3.29639, -2.493566, 0.1};
Point(p16 + 31) = {3.522788840922684, -2.475748024796269, 0.1};
Point(p16 + 32) = {3.743612991007176, -2.422732836869063, 0.1};
Point(p16 + 33) = {3.953425026805061, -2.335825846092471, 0.1};
Point(p16 + 34) = {4.147058679668768, -2.217166991007177, 0.1};
Point(p16 + 35) = {4.319746046431543, -2.069678046431544, 0.1};
Point(p16 + 36) = {4.467234991007176, -1.896990679668768, 0.1};
Point(p16 + 37) = {4.58589384609247, -1.703357026805061, 0.1};
Point(p16 + 38) = {4.672800836869063, -1.493544991007177, 0.1};
Point(p16 + 39) = {4.72581602479627, -1.272720840922684, 0.1};
Spline(16) = {11, p16 + 1, p16 + 2, p16 + 3, p16 + 4, p16 + 5, p16 + 6, p16 + 7, p16 + 8, p16 + 9, p16 + 10, p16 + 11, p16 + 12, p16 + 13, p16 + 14, p16 + 15, p16 + 16, p16 + 17, p16 + 18, p16 + 19, p16 + 20, p16 + 21, p16 + 22, p16 + 23, p16 + 24, p16 + 25, p16 + 26, p16 + 27, p16 + 28, p16 + 29, p16 + 30, p16 + 31, p16 + 32, p16 + 33, p16 + 34, p16 + 35, p16 + 36, p16 + 37, p16 + 38, p16 + 39, 11};
Line(17) = {12, 11};
p18 = newp;
Point(p18 + 1) = {4.72581602479627, -0.8199231590773161, 0};
Point(p18 + 2) = {4.672800836869063, -0.5990990089928236, 0};
Point(p18 + 3) = {4.58589384609247, -0.3892869731949394, 0};
Point(p18 + 4) = {4.467234991007176, -0.195653320331232, 0};
Point(p18 + 5) = {4.319746046431544, -0.02296595356845632, 0};
Point(p18 + 6) = {4.147058679668769, 0.1245229910071763, 0};
Point(p18 + 7) = {3.953425026805061, 0.2431818460924702, 0};
Point(p18 + 8) = {3.743612991007176, 0.3300888368690631, 0};
Point(p18 + 9) = {3.522788840922684, 0.3831040247962696, 0};
Point(p18 + 10) = {3.29639, 0.400922, 0};
Point(p18 + 11) = {3.069991159077316, 0.3831040247962694, 0};
Point(p18 + 12) = {2.849167008992824, 0.3300888368690633, 0};
Point(p18 + 13) = {2.63935497319494, 0.2431818460924704, 0};
Point(p18 + 14) = {2.445721320331232, 0.1245229910071766, 0};
Point(p18 + 15) = {2.273033953568456, -0.0229659535684561, 0};
Point(p18 + 16) = {2.125545008992824, -0.1956533203312318, 0};
Point(p18 + 17) = {2.00688615390753, -0.3892869731949392, 0};
Point(p18 + 18) = {1.919979163130937, -0.5990990089928234, 0};
Point(p18 + 19) = {1.866963975203731, -0.8199231590773159, 0};
Point(p18 + 20) = {1.849146, -1.046322, 0};
Point(p18 + 21) = {1.866963975203731, -1.272720840922684, 0};
Point(p18 + 22) = {1.919979163130937, -1.493544991007177, 0};
Point(p18 + 23) = {2.00688615390753, -1.70335702680506, 0};
Point(p18 + 24) = {2.125545008992824, -1.896990679668768, 0};
Point(p18 + 25) = {2.273033953568456, -2.069678046431544, 0};
Point(p18 + 26) = {2.445721320331232, -2.217166991007177, 0};
Point(p18 + 27) = {2.639354973194939, -2.33582584609247, 0};
Point(p18 + 28) = {2.849167008992823, -2.422732836869063, 0};
Point(p18 + 29) = {3.069991159077316, -2.475748024796269, 0};
Point(p18 + 30) = {3.29639, -2.493566, 0};
Point(p18 + 31) = {3.522788840922684, -2.475748024796269, 0};
Point(p18 + 32) = {3.743612991007176, -2.422732836869063, 0};
Point(p18 + 33) = {3.953425026805061, -2.335825846092471, 0};
Point(p18 + 34) = {4.147058679668768, -2.217166991007177, 0};
Point(p18 + 35) = {4.319746046431543, -2.069678046431544, 0};
Point(p18 + 36) = {4.467234991007176, -1.896990679668768, 0};
Point(p18 + 37) = {4.58589384609247, -1.703357026805061, 0};
Point(p18 + 38) = {4.672800836869063, -1.493544991007177, 0};
Point(p18 + 39) = {4.72581602479627, -1.272720840922684, 0};
Spline(18) = {12, p18 + 1, p18 + 2, p18 + 3, p18 + 4, p18 + 5, p18 + 6, p18 + 7, p18 + 8, p18 + 9, p18 + 10, p18 + 11, p18 + 12, p18 + 13, p18 + 14, p18 + 15, p18 + 16, p18 + 17, p18 + 18, p18 + 19, p18 + 20, p18 + 21, p18 + 22, p18 + 23, p18 + 24, p18 + 25, p18 + 26, p18 + 27, p18 + 28, p18 + 29, p18 + 30, p18 + 31, p18 + 32, p18 + 33, p18 + 34, p18 + 35, p18 + 36, p18 + 37, p18 + 38, p18 + 39, 12};
Line(19) = {14, 13};
Line(20) = {13, 15};
Line(21) = {16, 15};
Line(22) = {14, 16};
Line(23) = {14, 17};
Line(24) = {17, 18};
Line(25) = {13, 18};
Line(26) = {15, 19};
Line(27) = {18, 19};
Line(28) = {16, 20};
Line(29) = {20, 19};
Line(30) = {17, 20};
Curve Loop(7) = {-13, -14, 15, 14};
Surface(7) = {7};
Curve Loop(8) = {13};
Plane Surface(8) = {8};
Curve Loop(9) = {15};
Plane Surface(9) = {9};
Curve Loop(10) = {-16, -17, 18, 17};
Surface(10) = {10};
Curve Loop(11) = {16};
Plane Surface(11) = {11};
Curve Loop(12) = {18};
Plane Surface(12) = {12};
Curve Loop(13) = {-19, 22, 21, -20};
Plane Surface(13) = {13};
Curve Loop(14) = {-23, 19, 25, -24};
Plane Surface(14) = {14};
Curve Loop(15) = {-20, 25, 27, -26, -16, -13};
Plane Surface(15) = {15};
Curve Loop(16) = {-28, 21, 26, -29};
Plane Surface(16) = {16};
Curve Loop(17) = {-22, 23, 30, -28, -18, -15};
Plane Surface(17) = {17};
Curve Loop(18) = {-24, 30, 29, -27};
Plane Surface(18) = {18};
Surface Loop(1) = {13, 14, 15, 16, 17, 18, 10, 7};
Volume(1) = {1};
Surface Loop(2) = {7, 8, 9};
Volume(2) = {2};
Surface Loop(3) = {10, 11, 12};
Volume(3) = {3};
Physical Surface("WALLS") = {13, 18};
Physical Surface("LOAD") = {8, 11};
Physical Surface("BORDER") = {7, 9, 10, 12, 14, 15, 16, 17};
Physical Volume("SOLID") = {1, 2, 3};
