cl__1 = 0.136689;
cl__2 = 0.062028;
cl__3 = 1.25726;
cl__4 = 1.243248;
cl__5 = 0.955558;
cl__6 = 0.889869;
Point(9) = {14.183898, 0.3331459999999997, 0.1, cl__1};
Point(10) = {14.183898, 0.3331459999999997, 0, cl__1};
Point(11) = {21.363957, 1.128233, 0.1, cl__2};
Point(12) = {21.363957, 1.128233, 0, cl__2};
Point(13) = {0.226242, -4.421732, 1, cl__3};
Point(14) = {0.226242, -4.421732, 0, cl__3};
Point(15) = {0.226242, 4.958855999999999, 1, cl__4};
Point(16) = {0.226242, 4.958855999999999, 0, cl__4};
Point(17) = {30.616393, -4.421732, 0, cl__5};
Point(18) = {30.616393, -4.421732, 1, cl__5};
Point(19) = {30.616393, 4.958855999999999, 1, cl__6};
Point(20) = {30.616393, 4.958855999999999, 0, cl__6};
p13 = newp;
Point(p13 + 1) = {14.16706926662945, 0.5469753316567013, 0.1};
Point(p13 + 2) = {14.11699744578475, 0.7555394755091493, 0.1};
Point(p13 + 3) = {14.03491547187394, 0.9537028901509881, 0.1};
Point(p13 + 4) = {13.92284447550915, 1.136586134647068, 0.1};
Point(p13 + 5) = {13.78354401656321, 1.299686016563205, 0.1};
Point(p13 + 6) = {13.62044413464707, 1.438986475509149, 0.1};
Point(p13 + 7) = {13.43756089015099, 1.551057471873935, 0.1};
Point(p13 + 8) = {13.23939747550915, 1.633139445784748, 0.1};
Point(p13 + 9) = {13.0308333316567, 1.68321126662945, 0.1};
Point(p13 + 10) = {12.817004, 1.70004, 0.1};
Point(p13 + 11) = {12.6031746683433, 1.68321126662945, 0.1};
Point(p13 + 12) = {12.39461052449085, 1.633139445784748, 0.1};
Point(p13 + 13) = {12.19644710984901, 1.551057471873935, 0.1};
Point(p13 + 14) = {12.01356386535293, 1.438986475509149, 0.1};
Point(p13 + 15) = {11.8504639834368, 1.299686016563205, 0.1};
Point(p13 + 16) = {11.71116352449085, 1.136586134647068, 0.1};
Point(p13 + 17) = {11.59909252812607, 0.9537028901509881, 0.1};
Point(p13 + 18) = {11.51701055421525, 0.7555394755091496, 0.1};
Point(p13 + 19) = {11.46693873337055, 0.5469753316567014, 0.1};
Point(p13 + 20) = {11.45011, 0.3331460000000002, 0.1};
Point(p13 + 21) = {11.46693873337055, 0.1193166683432988, 0.1};
Point(p13 + 22) = {11.51701055421525, -0.0892474755091498, 0.1};
Point(p13 + 23) = {11.59909252812607, -0.2874108901509875, 0.1};
Point(p13 + 24) = {11.71116352449085, -0.4702941346470677, 0.1};
Point(p13 + 25) = {11.8504639834368, -0.6333940165632046, 0.1};
Point(p13 + 26) = {12.01356386535293, -0.7726944755091494, 0.1};
Point(p13 + 27) = {12.19644710984901, -0.8847654718739348, 0.1};
Point(p13 + 28) = {12.39461052449085, -0.9668474457847478, 0.1};
Point(p13 + 29) = {12.6031746683433, -1.01691926662945, 0.1};
Point(p13 + 30) = {12.817004, -1.033748, 0.1};
Point(p13 + 31) = {13.0308333316567, -1.01691926662945, 0.1};
Point(p13 + 32) = {13.23939747550915, -0.9668474457847478, 0.1};
Point(p13 + 33) = {13.43756089015099, -0.8847654718739353, 0.1};
Point(p13 + 34) = {13.62044413464707, -0.7726944755091496, 0.1};
Point(p13 + 35) = {13.78354401656321, -0.633394016563205, 0.1};
Point(p13 + 36) = {13.92284447550915, -0.470294134647068, 0.1};
Point(p13 + 37) = {14.03491547187394, -0.2874108901509884, 0.1};
Point(p13 + 38) = {14.11699744578475, -0.08924747550914969, 0.1};
Point(p13 + 39) = {14.16706926662945, 0.1193166683432983, 0.1};
Spline(13) = {9, p13 + 1, p13 + 2, p13 + 3, p13 + 4, p13 + 5, p13 + 6, p13 + 7, p13 + 8, p13 + 9, p13 + 10, p13 + 11, p13 + 12, p13 + 13, p13 + 14, p13 + 15, p13 + 16, p13 + 17, p13 + 18, p13 + 19, p13 + 20, p13 + 21, p13 + 22, p13 + 23, p13 + 24, p13 + 25, p13 + 26, p13 + 27, p13 + 28, p13 + 29, p13 + 30, p13 + 31, p13 + 32, p13 + 33, p13 + 34, p13 + 35, p13 + 36, p13 + 37, p13 + 38, p13 + 39, 9};
Line(14) = {10, 9};
p15 = newp;
Point(p15 + 1) = {14.16706926662945, 0.5469753316567013, 0};
Point(p15 + 2) = {14.11699744578475, 0.7555394755091493, 0};
Point(p15 + 3) = {14.03491547187394, 0.9537028901509881, 0};
Point(p15 + 4) = {13.92284447550915, 1.136586134647068, 0};
Point(p15 + 5) = {13.78354401656321, 1.299686016563205, 0};
Point(p15 + 6) = {13.62044413464707, 1.438986475509149, 0};
Point(p15 + 7) = {13.43756089015099, 1.551057471873935, 0};
Point(p15 + 8) = {13.23939747550915, 1.633139445784748, 0};
Point(p15 + 9) = {13.0308333316567, 1.68321126662945, 0};
Point(p15 + 10) = {12.817004, 1.70004, 0};
Point(p15 + 11) = {12.6031746683433, 1.68321126662945, 0};
Point(p15 + 12) = {12.39461052449085, 1.633139445784748, 0};
Point(p15 + 13) = {12.19644710984901, 1.551057471873935, 0};
Point(p15 + 14) = {12.01356386535293, 1.438986475509149, 0};
Point(p15 + 15) = {11.8504639834368, 1.299686016563205, 0};
Point(p15 + 16) = {11.71116352449085, 1.136586134647068, 0};
Point(p15 + 17) = {11.59909252812607, 0.9537028901509881, 0};
Point(p15 + 18) = {11.51701055421525, 0.7555394755091496, 0};
Point(p15 + 19) = {11.46693873337055, 0.5469753316567014, 0};
Point(p15 + 20) = {11.45011, 0.3331460000000002, 0};
Point(p15 + 21) = {11.46693873337055, 0.1193166683432988, 0};
Point(p15 + 22) = {11.51701055421525, -0.0892474755091498, 0};
Point(p15 + 23) = {11.59909252812607, -0.2874108901509875, 0};
Point(p15 + 24) = {11.71116352449085, -0.4702941346470677, 0};
Point(p15 + 25) = {11.8504639834368, -0.6333940165632046, 0};
Point(p15 + 26) = {12.01356386535293, -0.7726944755091494, 0};
Point(p15 + 27) = {12.19644710984901, -0.8847654718739348, 0};
Point(p15 + 28) = {12.39461052449085, -0.9668474457847478, 0};
Point(p15 + 29) = {12.6031746683433, -1.01691926662945, 0};
Point(p15 + 30) = {12.817004, -1.033748, 0};
Point(p15 + 31) = {13.0308333316567, -1.01691926662945, 0};
Point(p15 + 32) = {13.23939747550915, -0.9668474457847478, 0};
Point(p15 + 33) = {13.43756089015099, -0.8847654718739353, 0};
Point(p15 + 34) = {13.62044413464707, -0.7726944755091496, 0};
Point(p15 + 35) = {13.78354401656321, -0.633394016563205, 0};
Point(p15 + 36) = {13.92284447550915, -0.470294134647068, 0};
Point(p15 + 37) = {14.03491547187394, -0.2874108901509884, 0};
Point(p15 + 38) = {14.11699744578475, -0.08924747550914969, 0};
Point(p15 + 39) = {14.16706926662945, 0.1193166683432983, 0};
Spline(15) = {10, p15 + 1, p15 + 2, p15 + 3, p15 + 4, p15 + 5, p15 + 6, p15 + 7, p15 + 8, p15 + 9, p15 + 10, p15 + 11, p15 + 12, p15 + 13, p15 + 14, p15 + 15, p15 + 16, p15 + 17, p15 + 18, p15 + 19, p15 + 20, p15 + 21, p15 + 22, p15 + 23, p15 + 24, p15 + 25, p15 + 26, p15 + 27, p15 + 28, p15 + 29, p15 + 30, p15 + 31, p15 + 32, p15 + 33, p15 + 34, p15 + 35, p15 + 36, p15 + 37, p15 + 38, p15 + 39, 10};
p16 = newp;
Point(p16 + 1) = {21.35632029928103, 1.225266482844084, 0.1};
Point(p16 + 2) = {21.33359823804059, 1.319910679304881, 0.1};
Point(p16 + 3) = {21.29635030883661, 1.409835135159446, 0.1};
Point(p16 + 4) = {21.24549367930488, 1.49282561186248, 0.1};
Point(p16 + 5) = {21.18228060844795, 1.566838608447954, 0.1};
Point(p16 + 6) = {21.10826761186248, 1.630051679304881, 0.1};
Point(p16 + 7) = {21.02527713515945, 1.680908308836609, 0.1};
Point(p16 + 8) = {20.93535267930488, 1.71815623804059, 0.1};
Point(p16 + 9) = {20.84070848284409, 1.740878299281033, 0.1};
Point(p16 + 10) = {20.743675, 1.748515, 0.1};
Point(p16 + 11) = {20.64664151715591, 1.740878299281033, 0.1};
Point(p16 + 12) = {20.55199732069512, 1.71815623804059, 0.1};
Point(p16 + 13) = {20.46207286484055, 1.680908308836609, 0.1};
Point(p16 + 14) = {20.37908238813752, 1.630051679304881, 0.1};
Point(p16 + 15) = {20.30506939155205, 1.566838608447954, 0.1};
Point(p16 + 16) = {20.24185632069512, 1.49282561186248, 0.1};
Point(p16 + 17) = {20.19099969116339, 1.409835135159446, 0.1};
Point(p16 + 18) = {20.15375176195941, 1.319910679304881, 0.1};
Point(p16 + 19) = {20.13102970071897, 1.225266482844085, 0.1};
Point(p16 + 20) = {20.123393, 1.128233, 0.1};
Point(p16 + 21) = {20.13102970071897, 1.031199517155916, 0.1};
Point(p16 + 22) = {20.15375176195941, 0.9365553206951187, 0.1};
Point(p16 + 23) = {20.19099969116339, 0.8466308648405547, 0.1};
Point(p16 + 24) = {20.24185632069512, 0.7636403881375202, 0.1};
Point(p16 + 25) = {20.30506939155205, 0.689627391552046, 0.1};
Point(p16 + 26) = {20.37908238813752, 0.6264143206951189, 0.1};
Point(p16 + 27) = {20.46207286484055, 0.5755576911633908, 0.1};
Point(p16 + 28) = {20.55199732069512, 0.5383097619594096, 0.1};
Point(p16 + 29) = {20.64664151715591, 0.5155877007189669, 0.1};
Point(p16 + 30) = {20.743675, 0.507951, 0.1};
Point(p16 + 31) = {20.84070848284408, 0.5155877007189668, 0.1};
Point(p16 + 32) = {20.93535267930488, 0.5383097619594096, 0.1};
Point(p16 + 33) = {21.02527713515945, 0.5755576911633907, 0.1};
Point(p16 + 34) = {21.10826761186248, 0.6264143206951188, 0.1};
Point(p16 + 35) = {21.18228060844795, 0.6896273915520459, 0.1};
Point(p16 + 36) = {21.24549367930488, 0.7636403881375202, 0.1};
Point(p16 + 37) = {21.29635030883661, 0.8466308648405544, 0.1};
Point(p16 + 38) = {21.33359823804059, 0.9365553206951188, 0.1};
Point(p16 + 39) = {21.35632029928103, 1.031199517155915, 0.1};
Spline(16) = {11, p16 + 1, p16 + 2, p16 + 3, p16 + 4, p16 + 5, p16 + 6, p16 + 7, p16 + 8, p16 + 9, p16 + 10, p16 + 11, p16 + 12, p16 + 13, p16 + 14, p16 + 15, p16 + 16, p16 + 17, p16 + 18, p16 + 19, p16 + 20, p16 + 21, p16 + 22, p16 + 23, p16 + 24, p16 + 25, p16 + 26, p16 + 27, p16 + 28, p16 + 29, p16 + 30, p16 + 31, p16 + 32, p16 + 33, p16 + 34, p16 + 35, p16 + 36, p16 + 37, p16 + 38, p16 + 39, 11};
Line(17) = {12, 11};
p18 = newp;
Point(p18 + 1) = {21.35632029928103, 1.225266482844084, 0};
Point(p18 + 2) = {21.33359823804059, 1.319910679304881, 0};
Point(p18 + 3) = {21.29635030883661, 1.409835135159446, 0};
Point(p18 + 4) = {21.24549367930488, 1.49282561186248, 0};
Point(p18 + 5) = {21.18228060844795, 1.566838608447954, 0};
Point(p18 + 6) = {21.10826761186248, 1.630051679304881, 0};
Point(p18 + 7) = {21.02527713515945, 1.680908308836609, 0};
Point(p18 + 8) = {20.93535267930488, 1.71815623804059, 0};
Point(p18 + 9) = {20.84070848284409, 1.740878299281033, 0};
Point(p18 + 10) = {20.743675, 1.748515, 0};
Point(p18 + 11) = {20.64664151715591, 1.740878299281033, 0};
Point(p18 + 12) = {20.55199732069512, 1.71815623804059, 0};
Point(p18 + 13) = {20.46207286484055, 1.680908308836609, 0};
Point(p18 + 14) = {20.37908238813752, 1.630051679304881, 0};
Point(p18 + 15) = {20.30506939155205, 1.566838608447954, 0};
Point(p18 + 16) = {20.24185632069512, 1.49282561186248, 0};
Point(p18 + 17) = {20.19099969116339, 1.409835135159446, 0};
Point(p18 + 18) = {20.15375176195941, 1.319910679304881, 0};
Point(p18 + 19) = {20.13102970071897, 1.225266482844085, 0};
Point(p18 + 20) = {20.123393, 1.128233, 0};
Point(p18 + 21) = {20.13102970071897, 1.031199517155916, 0};
Point(p18 + 22) = {20.15375176195941, 0.9365553206951187, 0};
Point(p18 + 23) = {20.19099969116339, 0.8466308648405547, 0};
Point(p18 + 24) = {20.24185632069512, 0.7636403881375202, 0};
Point(p18 + 25) = {20.30506939155205, 0.689627391552046, 0};
Point(p18 + 26) = {20.37908238813752, 0.6264143206951189, 0};
Point(p18 + 27) = {20.46207286484055, 0.5755576911633908, 0};
Point(p18 + 28) = {20.55199732069512, 0.5383097619594096, 0};
Point(p18 + 29) = {20.64664151715591, 0.5155877007189669, 0};
Point(p18 + 30) = {20.743675, 0.507951, 0};
Point(p18 + 31) = {20.84070848284408, 0.5155877007189668, 0};
Point(p18 + 32) = {20.93535267930488, 0.5383097619594096, 0};
Point(p18 + 33) = {21.02527713515945, 0.5755576911633907, 0};
Point(p18 + 34) = {21.10826761186248, 0.6264143206951188, 0};
Point(p18 + 35) = {21.18228060844795, 0.6896273915520459, 0};
Point(p18 + 36) = {21.24549367930488, 0.7636403881375202, 0};
Point(p18 + 37) = {21.29635030883661, 0.8466308648405544, 0};
Point(p18 + 38) = {21.33359823804059, 0.9365553206951188, 0};
Point(p18 + 39) = {21.35632029928103, 1.031199517155915, 0};
Spline(18) = {12, p18 + 1, p18 + 2, p18 + 3, p18 + 4, p18 + 5, p18 + 6, p18 + 7, p18 + 8, p18 + 9, p18 + 10, p18 + 11, p18 + 12, p18 + 13, p18 + 14, p18 + 15, p18 + 16, p18 + 17, p18 + 18, p18 + 19, p18 + 20, p18 + 21, p18 + 22, p18 + 23, p18 + 24, p18 + 25, p18 + 26, p18 + 27, p18 + 28, p18 + 29, p18 + 30, p18 + 31, p18 + 32, p18 + 33, p18 + 34, p18 + 35, p18 + 36, p18 + 37, p18 + 38, p18 + 39, 12};
Line(19) = {14, 13};
Line(20) = {13, 15};
Line(21) = {16, 15};
Line(22) = {14, 16};
Line(23) = {14, 17};
Line(24) = {17, 18};
Line(25) = {13, 18};
Line(26) = {15, 19};
Line(27) = {18, 19};
Line(28) = {16, 20};
Line(29) = {20, 19};
Line(30) = {17, 20};
Curve Loop(7) = {-13, -14, 15, 14};
Surface(7) = {7};
Curve Loop(8) = {13};
Plane Surface(8) = {8};
Curve Loop(9) = {15};
Plane Surface(9) = {9};
Curve Loop(10) = {-16, -17, 18, 17};
Surface(10) = {10};
Curve Loop(11) = {16};
Plane Surface(11) = {11};
Curve Loop(12) = {18};
Plane Surface(12) = {12};
Curve Loop(13) = {-19, 22, 21, -20};
Plane Surface(13) = {13};
Curve Loop(14) = {-23, 19, 25, -24};
Plane Surface(14) = {14};
Curve Loop(15) = {-20, 25, 27, -26};
Plane Surface(15) = {15};
Curve Loop(16) = {-28, 21, 26, -29};
Plane Surface(16) = {16};
Curve Loop(17) = {-22, 23, 30, -28, -15, -18};
Plane Surface(17) = {17};
Curve Loop(18) = {-24, 30, 29, -27};
Plane Surface(18) = {18};
Surface Loop(1) = {13, 14, 15, 16, 17, 18, 7, 10, 8, 11};
Volume(1) = {1};
Surface Loop(2) = {7, 8, 9};
Volume(2) = {2};
Surface Loop(3) = {10, 11, 12};
Volume(3) = {3};
Physical Surface("WALLS") = {13, 18};
Physical Surface("LOAD") = {8, 11};
Physical Surface("BORDER") = {7, 9, 10, 12, 14, 15, 16, 17};
Physical Volume("SOLID") = {1, 2, 3};
