cl__1 = 0.127615;
cl__2 = 0.067743;
cl__3 = 4.316165;
cl__4 = 4.227077;
cl__5 = 0.155616;
cl__6 = 0.5993270000000001;
Point(9) = {21.214658, 0.9705729999999997, 0.1, cl__1};
Point(10) = {21.214658, 0.9705729999999997, 0, cl__1};
Point(11) = {35.851174, -1.932212, 0.1, cl__2};
Point(12) = {35.851174, -1.932212, 0, cl__2};
Point(13) = {0.911486, -3.989256, 1, cl__3};
Point(14) = {0.911486, -3.989256, 0, cl__3};
Point(15) = {0.911486, 5.398513, 1, cl__4};
Point(16) = {0.911486, 5.398513, 0, cl__4};
Point(17) = {36.47632299999999, -3.989256, 0, cl__5};
Point(18) = {36.47632299999999, -3.989256, 1, cl__5};
Point(19) = {36.47632299999999, 5.398513, 1, cl__6};
Point(20) = {36.47632299999999, 5.398513, 0, cl__6};
p13 = newp;
Point(p13 + 1) = {21.19894651278546, 1.170206373257695, 0.1};
Point(p13 + 2) = {21.15219892010051, 1.364924110320606, 0.1};
Point(p13 + 3) = {21.07556630282341, 1.549931614271123, 0.1};
Point(p13 + 4) = {20.97093561032061, 1.720673386357283, 0.1};
Point(p13 + 5) = {20.84088319749087, 1.872945197490869, 0.1};
Point(p13 + 6) = {20.68861138635728, 2.002997610320606, 0.1};
Point(p13 + 7) = {20.51786961427112, 2.107628302823413, 0.1};
Point(p13 + 8) = {20.3328621103206, 2.184260920100511, 0.1};
Point(p13 + 9) = {20.1381443732577, 2.231008512785463, 0.1};
Point(p13 + 10) = {19.938511, 2.24672, 0.1};
Point(p13 + 11) = {19.7388776267423, 2.231008512785463, 0.1};
Point(p13 + 12) = {19.54415988967939, 2.184260920100511, 0.1};
Point(p13 + 13) = {19.35915238572888, 2.107628302823413, 0.1};
Point(p13 + 14) = {19.18841061364272, 2.002997610320606, 0.1};
Point(p13 + 15) = {19.03613880250913, 1.872945197490869, 0.1};
Point(p13 + 16) = {18.90608638967939, 1.720673386357283, 0.1};
Point(p13 + 17) = {18.80145569717659, 1.549931614271123, 0.1};
Point(p13 + 18) = {18.72482307989949, 1.364924110320606, 0.1};
Point(p13 + 19) = {18.67807548721454, 1.170206373257696, 0.1};
Point(p13 + 20) = {18.662364, 0.9705730000000001, 0.1};
Point(p13 + 21) = {18.67807548721454, 0.7709396267423047, 0.1};
Point(p13 + 22) = {18.72482307989949, 0.5762218896793936, 0.1};
Point(p13 + 23) = {18.80145569717659, 0.3912143857288772, 0.1};
Point(p13 + 24) = {18.90608638967939, 0.2204726136427175, 0.1};
Point(p13 + 25) = {19.03613880250913, 0.06820080250913108, 0.1};
Point(p13 + 26) = {19.18841061364272, -0.06185161032060582, 0.1};
Point(p13 + 27) = {19.35915238572888, -0.1664823028234129, 0.1};
Point(p13 + 28) = {19.54415988967939, -0.2431149201005113, 0.1};
Point(p13 + 29) = {19.7388776267423, -0.2898625127854629, 0.1};
Point(p13 + 30) = {19.938511, -0.3055739999999999, 0.1};
Point(p13 + 31) = {20.13814437325769, -0.2898625127854632, 0.1};
Point(p13 + 32) = {20.3328621103206, -0.2431149201005113, 0.1};
Point(p13 + 33) = {20.51786961427112, -0.1664823028234131, 0.1};
Point(p13 + 34) = {20.68861138635728, -0.06185161032060604, 0.1};
Point(p13 + 35) = {20.84088319749087, 0.06820080250913085, 0.1};
Point(p13 + 36) = {20.97093561032061, 0.2204726136427172, 0.1};
Point(p13 + 37) = {21.07556630282341, 0.3912143857288765, 0.1};
Point(p13 + 38) = {21.15219892010051, 0.5762218896793938, 0.1};
Point(p13 + 39) = {21.19894651278546, 0.7709396267423042, 0.1};
Spline(13) = {9, p13 + 1, p13 + 2, p13 + 3, p13 + 4, p13 + 5, p13 + 6, p13 + 7, p13 + 8, p13 + 9, p13 + 10, p13 + 11, p13 + 12, p13 + 13, p13 + 14, p13 + 15, p13 + 16, p13 + 17, p13 + 18, p13 + 19, p13 + 20, p13 + 21, p13 + 22, p13 + 23, p13 + 24, p13 + 25, p13 + 26, p13 + 27, p13 + 28, p13 + 29, p13 + 30, p13 + 31, p13 + 32, p13 + 33, p13 + 34, p13 + 35, p13 + 36, p13 + 37, p13 + 38, p13 + 39, 9};
Line(14) = {10, 9};
p15 = newp;
Point(p15 + 1) = {21.19894651278546, 1.170206373257695, 0};
Point(p15 + 2) = {21.15219892010051, 1.364924110320606, 0};
Point(p15 + 3) = {21.07556630282341, 1.549931614271123, 0};
Point(p15 + 4) = {20.97093561032061, 1.720673386357283, 0};
Point(p15 + 5) = {20.84088319749087, 1.872945197490869, 0};
Point(p15 + 6) = {20.68861138635728, 2.002997610320606, 0};
Point(p15 + 7) = {20.51786961427112, 2.107628302823413, 0};
Point(p15 + 8) = {20.3328621103206, 2.184260920100511, 0};
Point(p15 + 9) = {20.1381443732577, 2.231008512785463, 0};
Point(p15 + 10) = {19.938511, 2.24672, 0};
Point(p15 + 11) = {19.7388776267423, 2.231008512785463, 0};
Point(p15 + 12) = {19.54415988967939, 2.184260920100511, 0};
Point(p15 + 13) = {19.35915238572888, 2.107628302823413, 0};
Point(p15 + 14) = {19.18841061364272, 2.002997610320606, 0};
Point(p15 + 15) = {19.03613880250913, 1.872945197490869, 0};
Point(p15 + 16) = {18.90608638967939, 1.720673386357283, 0};
Point(p15 + 17) = {18.80145569717659, 1.549931614271123, 0};
Point(p15 + 18) = {18.72482307989949, 1.364924110320606, 0};
Point(p15 + 19) = {18.67807548721454, 1.170206373257696, 0};
Point(p15 + 20) = {18.662364, 0.9705730000000001, 0};
Point(p15 + 21) = {18.67807548721454, 0.7709396267423047, 0};
Point(p15 + 22) = {18.72482307989949, 0.5762218896793936, 0};
Point(p15 + 23) = {18.80145569717659, 0.3912143857288772, 0};
Point(p15 + 24) = {18.90608638967939, 0.2204726136427175, 0};
Point(p15 + 25) = {19.03613880250913, 0.06820080250913108, 0};
Point(p15 + 26) = {19.18841061364272, -0.06185161032060582, 0};
Point(p15 + 27) = {19.35915238572888, -0.1664823028234129, 0};
Point(p15 + 28) = {19.54415988967939, -0.2431149201005113, 0};
Point(p15 + 29) = {19.7388776267423, -0.2898625127854629, 0};
Point(p15 + 30) = {19.938511, -0.3055739999999999, 0};
Point(p15 + 31) = {20.13814437325769, -0.2898625127854632, 0};
Point(p15 + 32) = {20.3328621103206, -0.2431149201005113, 0};
Point(p15 + 33) = {20.51786961427112, -0.1664823028234131, 0};
Point(p15 + 34) = {20.68861138635728, -0.06185161032060604, 0};
Point(p15 + 35) = {20.84088319749087, 0.06820080250913085, 0};
Point(p15 + 36) = {20.97093561032061, 0.2204726136427172, 0};
Point(p15 + 37) = {21.07556630282341, 0.3912143857288765, 0};
Point(p15 + 38) = {21.15219892010051, 0.5762218896793938, 0};
Point(p15 + 39) = {21.19894651278546, 0.7709396267423042, 0};
Spline(15) = {10, p15 + 1, p15 + 2, p15 + 3, p15 + 4, p15 + 5, p15 + 6, p15 + 7, p15 + 8, p15 + 9, p15 + 10, p15 + 11, p15 + 12, p15 + 13, p15 + 14, p15 + 15, p15 + 16, p15 + 17, p15 + 18, p15 + 19, p15 + 20, p15 + 21, p15 + 22, p15 + 23, p15 + 24, p15 + 25, p15 + 26, p15 + 27, p15 + 28, p15 + 29, p15 + 30, p15 + 31, p15 + 32, p15 + 33, p15 + 34, p15 + 35, p15 + 36, p15 + 37, p15 + 38, p15 + 39, 10};
p16 = newp;
Point(p16 + 1) = {35.842833761816, -1.826239226085657, 0.1};
Point(p16 + 2) = {35.81801841160777, -1.722875853568557, 0.1};
Point(p16 + 3) = {35.77733898565483, -1.624667031723438, 0.1};
Point(p16 + 4) = {35.72179714643145, -1.534030987680519, 0.1};
Point(p16 + 5) = {35.65276051835208, -1.453199481647922, 0.1};
Point(p16 + 6) = {35.57192901231949, -1.384162853568557, 0.1};
Point(p16 + 7) = {35.48129296827656, -1.328621014345171, 0.1};
Point(p16 + 8) = {35.38308414643144, -1.287941588392239, 0.1};
Point(p16 + 9) = {35.27972077391435, -1.263126238183998, 0.1};
Point(p16 + 10) = {35.173748, -1.254786, 0.1};
Point(p16 + 11) = {35.06777522608566, -1.263126238183998, 0.1};
Point(p16 + 12) = {34.96441185356856, -1.287941588392239, 0.1};
Point(p16 + 13) = {34.86620303172344, -1.328621014345171, 0.1};
Point(p16 + 14) = {34.77556698768052, -1.384162853568557, 0.1};
Point(p16 + 15) = {34.69473548164792, -1.453199481647922, 0.1};
Point(p16 + 16) = {34.62569885356856, -1.534030987680519, 0.1};
Point(p16 + 17) = {34.57015701434518, -1.624667031723438, 0.1};
Point(p16 + 18) = {34.52947758839224, -1.722875853568557, 0.1};
Point(p16 + 19) = {34.504662238184, -1.826239226085657, 0.1};
Point(p16 + 20) = {34.49632200000001, -1.932212, 0.1};
Point(p16 + 21) = {34.504662238184, -2.038184773914343, 0.1};
Point(p16 + 22) = {34.52947758839224, -2.141548146431443, 0.1};
Point(p16 + 23) = {34.57015701434517, -2.239756968276562, 0.1};
Point(p16 + 24) = {34.62569885356856, -2.330393012319481, 0.1};
Point(p16 + 25) = {34.69473548164792, -2.411224518352078, 0.1};
Point(p16 + 26) = {34.77556698768052, -2.480261146431443, 0.1};
Point(p16 + 27) = {34.86620303172344, -2.535802985654829, 0.1};
Point(p16 + 28) = {34.96441185356856, -2.576482411607761, 0.1};
Point(p16 + 29) = {35.06777522608566, -2.601297761816002, 0.1};
Point(p16 + 30) = {35.173748, -2.609638, 0.1};
Point(p16 + 31) = {35.27972077391435, -2.601297761816002, 0.1};
Point(p16 + 32) = {35.38308414643144, -2.576482411607761, 0.1};
Point(p16 + 33) = {35.48129296827656, -2.535802985654829, 0.1};
Point(p16 + 34) = {35.57192901231949, -2.480261146431443, 0.1};
Point(p16 + 35) = {35.65276051835208, -2.411224518352078, 0.1};
Point(p16 + 36) = {35.72179714643145, -2.330393012319481, 0.1};
Point(p16 + 37) = {35.77733898565483, -2.239756968276562, 0.1};
Point(p16 + 38) = {35.81801841160777, -2.141548146431443, 0.1};
Point(p16 + 39) = {35.842833761816, -2.038184773914343, 0.1};
Spline(16) = {11, p16 + 1, p16 + 2, p16 + 3, p16 + 4, p16 + 5, p16 + 6, p16 + 7, p16 + 8, p16 + 9, p16 + 10, p16 + 11, p16 + 12, p16 + 13, p16 + 14, p16 + 15, p16 + 16, p16 + 17, p16 + 18, p16 + 19, p16 + 20, p16 + 21, p16 + 22, p16 + 23, p16 + 24, p16 + 25, p16 + 26, p16 + 27, p16 + 28, p16 + 29, p16 + 30, p16 + 31, p16 + 32, p16 + 33, p16 + 34, p16 + 35, p16 + 36, p16 + 37, p16 + 38, p16 + 39, 11};
Line(17) = {12, 11};
p18 = newp;
Point(p18 + 1) = {35.842833761816, -1.826239226085657, 0};
Point(p18 + 2) = {35.81801841160777, -1.722875853568557, 0};
Point(p18 + 3) = {35.77733898565483, -1.624667031723438, 0};
Point(p18 + 4) = {35.72179714643145, -1.534030987680519, 0};
Point(p18 + 5) = {35.65276051835208, -1.453199481647922, 0};
Point(p18 + 6) = {35.57192901231949, -1.384162853568557, 0};
Point(p18 + 7) = {35.48129296827656, -1.328621014345171, 0};
Point(p18 + 8) = {35.38308414643144, -1.287941588392239, 0};
Point(p18 + 9) = {35.27972077391435, -1.263126238183998, 0};
Point(p18 + 10) = {35.173748, -1.254786, 0};
Point(p18 + 11) = {35.06777522608566, -1.263126238183998, 0};
Point(p18 + 12) = {34.96441185356856, -1.287941588392239, 0};
Point(p18 + 13) = {34.86620303172344, -1.328621014345171, 0};
Point(p18 + 14) = {34.77556698768052, -1.384162853568557, 0};
Point(p18 + 15) = {34.69473548164792, -1.453199481647922, 0};
Point(p18 + 16) = {34.62569885356856, -1.534030987680519, 0};
Point(p18 + 17) = {34.57015701434518, -1.624667031723438, 0};
Point(p18 + 18) = {34.52947758839224, -1.722875853568557, 0};
Point(p18 + 19) = {34.504662238184, -1.826239226085657, 0};
Point(p18 + 20) = {34.49632200000001, -1.932212, 0};
Point(p18 + 21) = {34.504662238184, -2.038184773914343, 0};
Point(p18 + 22) = {34.52947758839224, -2.141548146431443, 0};
Point(p18 + 23) = {34.57015701434517, -2.239756968276562, 0};
Point(p18 + 24) = {34.62569885356856, -2.330393012319481, 0};
Point(p18 + 25) = {34.69473548164792, -2.411224518352078, 0};
Point(p18 + 26) = {34.77556698768052, -2.480261146431443, 0};
Point(p18 + 27) = {34.86620303172344, -2.535802985654829, 0};
Point(p18 + 28) = {34.96441185356856, -2.576482411607761, 0};
Point(p18 + 29) = {35.06777522608566, -2.601297761816002, 0};
Point(p18 + 30) = {35.173748, -2.609638, 0};
Point(p18 + 31) = {35.27972077391435, -2.601297761816002, 0};
Point(p18 + 32) = {35.38308414643144, -2.576482411607761, 0};
Point(p18 + 33) = {35.48129296827656, -2.535802985654829, 0};
Point(p18 + 34) = {35.57192901231949, -2.480261146431443, 0};
Point(p18 + 35) = {35.65276051835208, -2.411224518352078, 0};
Point(p18 + 36) = {35.72179714643145, -2.330393012319481, 0};
Point(p18 + 37) = {35.77733898565483, -2.239756968276562, 0};
Point(p18 + 38) = {35.81801841160777, -2.141548146431443, 0};
Point(p18 + 39) = {35.842833761816, -2.038184773914343, 0};
Spline(18) = {12, p18 + 1, p18 + 2, p18 + 3, p18 + 4, p18 + 5, p18 + 6, p18 + 7, p18 + 8, p18 + 9, p18 + 10, p18 + 11, p18 + 12, p18 + 13, p18 + 14, p18 + 15, p18 + 16, p18 + 17, p18 + 18, p18 + 19, p18 + 20, p18 + 21, p18 + 22, p18 + 23, p18 + 24, p18 + 25, p18 + 26, p18 + 27, p18 + 28, p18 + 29, p18 + 30, p18 + 31, p18 + 32, p18 + 33, p18 + 34, p18 + 35, p18 + 36, p18 + 37, p18 + 38, p18 + 39, 12};
Line(19) = {14, 13};
Line(20) = {13, 15};
Line(21) = {16, 15};
Line(22) = {14, 16};
Line(23) = {14, 17};
Line(24) = {17, 18};
Line(25) = {13, 18};
Line(26) = {15, 19};
Line(27) = {18, 19};
Line(28) = {16, 20};
Line(29) = {20, 19};
Line(30) = {17, 20};
Curve Loop(7) = {-13, -14, 15, 14};
Surface(7) = {7};
Curve Loop(8) = {13};
Plane Surface(8) = {8};
Curve Loop(9) = {15};
Plane Surface(9) = {9};
Curve Loop(10) = {-16, -17, 18, 17};
Surface(10) = {10};
Curve Loop(11) = {16};
Plane Surface(11) = {11};
Curve Loop(12) = {18};
Plane Surface(12) = {12};
Curve Loop(13) = {-19, 22, 21, -20};
Plane Surface(13) = {13};
Curve Loop(14) = {-23, 19, 25, -24};
Plane Surface(14) = {14};
Curve Loop(15) = {-20, 25, 27, -26};
Plane Surface(15) = {15};
Curve Loop(16) = {-28, 21, 26, -29};
Plane Surface(16) = {16};
Curve Loop(17) = {-22, 23, 30, -28, -18, -15};
Plane Surface(17) = {17};
Curve Loop(18) = {-24, 30, 29, -27};
Plane Surface(18) = {18};
Surface Loop(1) = {13, 14, 15, 16, 17, 18, 10, 7, 11, 8};
Volume(1) = {1};
Surface Loop(2) = {7, 8, 9};
Volume(2) = {2};
Surface Loop(3) = {10, 11, 12};
Volume(3) = {3};
Physical Surface("WALLS") = {13, 18};
Physical Surface("LOAD") = {8, 11};
Physical Surface("BORDER") = {7, 9, 10, 12, 14, 15, 16, 17};
Physical Volume("SOLID") = {1, 2, 3};
