cl__1 = 0.117808;
cl__2 = 0.067069;
cl__3 = 3.000784;
cl__4 = 3.23198;
cl__5 = 0.491146;
cl__6 = 0.587973;
Point(9) = {24.195872, -0.4158630000000003, 0.1, cl__1};
Point(10) = {24.195872, -0.4158630000000003, 0, cl__1};
Point(11) = {28.047741, -0.4376980000000001, 0.1, cl__2};
Point(12) = {28.047741, -0.4376980000000001, 0, cl__2};
Point(13) = {0.53394, -4.160542, 1, cl__3};
Point(14) = {0.53394, -4.160542, 0, cl__3};
Point(15) = {0.53394, 5.829042, 1, cl__4};
Point(16) = {0.53394, 5.829042, 0, cl__4};
Point(17) = {34.493073, -4.160542, 0, cl__5};
Point(18) = {34.493073, -4.160542, 1, cl__5};
Point(19) = {34.493073, 5.829042, 1, cl__6};
Point(20) = {34.493073, 5.829042, 0, cl__6};
p13 = newp;
Point(p13 + 1) = {24.18136790491164, -0.2315709982943349, 0.1};
Point(p13 + 2) = {24.13821275860396, -0.05181687730075074, 0.1};
Point(p13 + 3) = {24.06746918400278, 0.1189732199521657, 0.1};
Point(p13 + 4) = {23.97087912269925, 0.2765938744502121, 0.1};
Point(p13 + 5) = {23.85082094256668, 0.4171639425666854, 0.1};
Point(p13 + 6) = {23.71025087445021, 0.5372221226992492, 0.1};
Point(p13 + 7) = {23.55263021995216, 0.6338121840027838, 0.1};
Point(p13 + 8) = {23.38184012269925, 0.7045557586039618, 0.1};
Point(p13 + 9) = {23.20208600170566, 0.7477109049116387, 0.1};
Point(p13 + 10) = {23.017794, 0.762215, 0.1};
Point(p13 + 11) = {22.83350199829433, 0.7477109049116385, 0.1};
Point(p13 + 12) = {22.65374787730075, 0.704555758603962, 0.1};
Point(p13 + 13) = {22.48295778004783, 0.6338121840027841, 0.1};
Point(p13 + 14) = {22.32533712554979, 0.5372221226992493, 0.1};
Point(p13 + 15) = {22.18476705743331, 0.4171639425666855, 0.1};
Point(p13 + 16) = {22.06470887730075, 0.2765938744502123, 0.1};
Point(p13 + 17) = {21.96811881599722, 0.1189732199521659, 0.1};
Point(p13 + 18) = {21.89737524139604, -0.05181687730075057, 0.1};
Point(p13 + 19) = {21.85422009508836, -0.2315709982943348, 0.1};
Point(p13 + 20) = {21.839716, -0.4158629999999998, 0.1};
Point(p13 + 21) = {21.85422009508836, -0.6001550017056649, 0.1};
Point(p13 + 22) = {21.89737524139604, -0.7799091226992496, 0.1};
Point(p13 + 23) = {21.96811881599722, -0.9506992199521652, 0.1};
Point(p13 + 24) = {22.06470887730075, -1.108319874450212, 0.1};
Point(p13 + 25) = {22.18476705743331, -1.248889942566685, 0.1};
Point(p13 + 26) = {22.32533712554979, -1.368948122699249, 0.1};
Point(p13 + 27) = {22.48295778004783, -1.465538184002784, 0.1};
Point(p13 + 28) = {22.65374787730075, -1.536281758603962, 0.1};
Point(p13 + 29) = {22.83350199829433, -1.579436904911638, 0.1};
Point(p13 + 30) = {23.017794, -1.593941, 0.1};
Point(p13 + 31) = {23.20208600170566, -1.579436904911639, 0.1};
Point(p13 + 32) = {23.38184012269925, -1.536281758603962, 0.1};
Point(p13 + 33) = {23.55263021995216, -1.465538184002784, 0.1};
Point(p13 + 34) = {23.71025087445021, -1.368948122699249, 0.1};
Point(p13 + 35) = {23.85082094256668, -1.248889942566686, 0.1};
Point(p13 + 36) = {23.97087912269925, -1.108319874450212, 0.1};
Point(p13 + 37) = {24.06746918400278, -0.950699219952166, 0.1};
Point(p13 + 38) = {24.13821275860396, -0.7799091226992495, 0.1};
Point(p13 + 39) = {24.18136790491164, -0.6001550017056654, 0.1};
Spline(13) = {9, p13 + 1, p13 + 2, p13 + 3, p13 + 4, p13 + 5, p13 + 6, p13 + 7, p13 + 8, p13 + 9, p13 + 10, p13 + 11, p13 + 12, p13 + 13, p13 + 14, p13 + 15, p13 + 16, p13 + 17, p13 + 18, p13 + 19, p13 + 20, p13 + 21, p13 + 22, p13 + 23, p13 + 24, p13 + 25, p13 + 26, p13 + 27, p13 + 28, p13 + 29, p13 + 30, p13 + 31, p13 + 32, p13 + 33, p13 + 34, p13 + 35, p13 + 36, p13 + 37, p13 + 38, p13 + 39, 9};
Line(14) = {10, 9};
p15 = newp;
Point(p15 + 1) = {24.18136790491164, -0.2315709982943349, 0};
Point(p15 + 2) = {24.13821275860396, -0.05181687730075074, 0};
Point(p15 + 3) = {24.06746918400278, 0.1189732199521657, 0};
Point(p15 + 4) = {23.97087912269925, 0.2765938744502121, 0};
Point(p15 + 5) = {23.85082094256668, 0.4171639425666854, 0};
Point(p15 + 6) = {23.71025087445021, 0.5372221226992492, 0};
Point(p15 + 7) = {23.55263021995216, 0.6338121840027838, 0};
Point(p15 + 8) = {23.38184012269925, 0.7045557586039618, 0};
Point(p15 + 9) = {23.20208600170566, 0.7477109049116387, 0};
Point(p15 + 10) = {23.017794, 0.762215, 0};
Point(p15 + 11) = {22.83350199829433, 0.7477109049116385, 0};
Point(p15 + 12) = {22.65374787730075, 0.704555758603962, 0};
Point(p15 + 13) = {22.48295778004783, 0.6338121840027841, 0};
Point(p15 + 14) = {22.32533712554979, 0.5372221226992493, 0};
Point(p15 + 15) = {22.18476705743331, 0.4171639425666855, 0};
Point(p15 + 16) = {22.06470887730075, 0.2765938744502123, 0};
Point(p15 + 17) = {21.96811881599722, 0.1189732199521659, 0};
Point(p15 + 18) = {21.89737524139604, -0.05181687730075057, 0};
Point(p15 + 19) = {21.85422009508836, -0.2315709982943348, 0};
Point(p15 + 20) = {21.839716, -0.4158629999999998, 0};
Point(p15 + 21) = {21.85422009508836, -0.6001550017056649, 0};
Point(p15 + 22) = {21.89737524139604, -0.7799091226992496, 0};
Point(p15 + 23) = {21.96811881599722, -0.9506992199521652, 0};
Point(p15 + 24) = {22.06470887730075, -1.108319874450212, 0};
Point(p15 + 25) = {22.18476705743331, -1.248889942566685, 0};
Point(p15 + 26) = {22.32533712554979, -1.368948122699249, 0};
Point(p15 + 27) = {22.48295778004783, -1.465538184002784, 0};
Point(p15 + 28) = {22.65374787730075, -1.536281758603962, 0};
Point(p15 + 29) = {22.83350199829433, -1.579436904911638, 0};
Point(p15 + 30) = {23.017794, -1.593941, 0};
Point(p15 + 31) = {23.20208600170566, -1.579436904911639, 0};
Point(p15 + 32) = {23.38184012269925, -1.536281758603962, 0};
Point(p15 + 33) = {23.55263021995216, -1.465538184002784, 0};
Point(p15 + 34) = {23.71025087445021, -1.368948122699249, 0};
Point(p15 + 35) = {23.85082094256668, -1.248889942566686, 0};
Point(p15 + 36) = {23.97087912269925, -1.108319874450212, 0};
Point(p15 + 37) = {24.06746918400278, -0.950699219952166, 0};
Point(p15 + 38) = {24.13821275860396, -0.7799091226992495, 0};
Point(p15 + 39) = {24.18136790491164, -0.6001550017056654, 0};
Spline(15) = {10, p15 + 1, p15 + 2, p15 + 3, p15 + 4, p15 + 5, p15 + 6, p15 + 7, p15 + 8, p15 + 9, p15 + 10, p15 + 11, p15 + 12, p15 + 13, p15 + 14, p15 + 15, p15 + 16, p15 + 17, p15 + 18, p15 + 19, p15 + 20, p15 + 21, p15 + 22, p15 + 23, p15 + 24, p15 + 25, p15 + 26, p15 + 27, p15 + 28, p15 + 29, p15 + 30, p15 + 31, p15 + 32, p15 + 33, p15 + 34, p15 + 35, p15 + 36, p15 + 37, p15 + 38, p15 + 39, 10};
p16 = newp;
Point(p16 + 1) = {28.03948370546541, -0.3327791250766326, 0.1};
Point(p16 + 2) = {28.01491514385748, -0.2304437010596609, 0.1};
Point(p16 + 3) = {27.97464027470137, -0.1332115657201831, 0.1};
Point(p16 + 4) = {27.91965079894034, -0.04347689692521345, 0.1};
Point(p16 + 5) = {27.85130073996722, 0.03655073996722435, 0.1};
Point(p16 + 6) = {27.77127310307479, 0.104900798940339, 0.1};
Point(p16 + 7) = {27.68153843427982, 0.1598902747013722, 0.1};
Point(p16 + 8) = {27.58430629894034, 0.2001651438574802, 0.1};
Point(p16 + 9) = {27.48197087492337, 0.2247337054654123, 0.1};
Point(p16 + 10) = {27.377052, 0.232991, 0.1};
Point(p16 + 11) = {27.27213312507663, 0.2247337054654123, 0.1};
Point(p16 + 12) = {27.16979770105966, 0.2001651438574804, 0.1};
Point(p16 + 13) = {27.07256556572018, 0.1598902747013722, 0.1};
Point(p16 + 14) = {26.98283089692521, 0.1049007989403392, 0.1};
Point(p16 + 15) = {26.90280326003278, 0.03655073996722441, 0.1};
Point(p16 + 16) = {26.83445320105966, -0.04347689692521339, 0.1};
Point(p16 + 17) = {26.77946372529863, -0.1332115657201831, 0.1};
Point(p16 + 18) = {26.73918885614252, -0.2304437010596608, 0.1};
Point(p16 + 19) = {26.71462029453459, -0.3327791250766325, 0.1};
Point(p16 + 20) = {26.706363, -0.4376979999999999, 0.1};
Point(p16 + 21) = {26.71462029453459, -0.5426168749233673, 0.1};
Point(p16 + 22) = {26.73918885614252, -0.6449522989403393, 0.1};
Point(p16 + 23) = {26.77946372529863, -0.7421844342798165, 0.1};
Point(p16 + 24) = {26.83445320105966, -0.8319191030747863, 0.1};
Point(p16 + 25) = {26.90280326003278, -0.9119467399672243, 0.1};
Point(p16 + 26) = {26.98283089692521, -0.9802967989403391, 0.1};
Point(p16 + 27) = {27.07256556572018, -1.035286274701372, 0.1};
Point(p16 + 28) = {27.16979770105966, -1.07556114385748, 0.1};
Point(p16 + 29) = {27.27213312507663, -1.100129705465412, 0.1};
Point(p16 + 30) = {27.377052, -1.108387, 0.1};
Point(p16 + 31) = {27.48197087492337, -1.100129705465412, 0.1};
Point(p16 + 32) = {27.58430629894034, -1.07556114385748, 0.1};
Point(p16 + 33) = {27.68153843427982, -1.035286274701372, 0.1};
Point(p16 + 34) = {27.77127310307479, -0.9802967989403393, 0.1};
Point(p16 + 35) = {27.85130073996722, -0.9119467399672244, 0.1};
Point(p16 + 36) = {27.91965079894034, -0.8319191030747866, 0.1};
Point(p16 + 37) = {27.97464027470137, -0.742184434279817, 0.1};
Point(p16 + 38) = {28.01491514385748, -0.6449522989403392, 0.1};
Point(p16 + 39) = {28.03948370546541, -0.5426168749233675, 0.1};
Spline(16) = {11, p16 + 1, p16 + 2, p16 + 3, p16 + 4, p16 + 5, p16 + 6, p16 + 7, p16 + 8, p16 + 9, p16 + 10, p16 + 11, p16 + 12, p16 + 13, p16 + 14, p16 + 15, p16 + 16, p16 + 17, p16 + 18, p16 + 19, p16 + 20, p16 + 21, p16 + 22, p16 + 23, p16 + 24, p16 + 25, p16 + 26, p16 + 27, p16 + 28, p16 + 29, p16 + 30, p16 + 31, p16 + 32, p16 + 33, p16 + 34, p16 + 35, p16 + 36, p16 + 37, p16 + 38, p16 + 39, 11};
Line(17) = {12, 11};
p18 = newp;
Point(p18 + 1) = {28.03948370546541, -0.3327791250766326, 0};
Point(p18 + 2) = {28.01491514385748, -0.2304437010596609, 0};
Point(p18 + 3) = {27.97464027470137, -0.1332115657201831, 0};
Point(p18 + 4) = {27.91965079894034, -0.04347689692521345, 0};
Point(p18 + 5) = {27.85130073996722, 0.03655073996722435, 0};
Point(p18 + 6) = {27.77127310307479, 0.104900798940339, 0};
Point(p18 + 7) = {27.68153843427982, 0.1598902747013722, 0};
Point(p18 + 8) = {27.58430629894034, 0.2001651438574802, 0};
Point(p18 + 9) = {27.48197087492337, 0.2247337054654123, 0};
Point(p18 + 10) = {27.377052, 0.232991, 0};
Point(p18 + 11) = {27.27213312507663, 0.2247337054654123, 0};
Point(p18 + 12) = {27.16979770105966, 0.2001651438574804, 0};
Point(p18 + 13) = {27.07256556572018, 0.1598902747013722, 0};
Point(p18 + 14) = {26.98283089692521, 0.1049007989403392, 0};
Point(p18 + 15) = {26.90280326003278, 0.03655073996722441, 0};
Point(p18 + 16) = {26.83445320105966, -0.04347689692521339, 0};
Point(p18 + 17) = {26.77946372529863, -0.1332115657201831, 0};
Point(p18 + 18) = {26.73918885614252, -0.2304437010596608, 0};
Point(p18 + 19) = {26.71462029453459, -0.3327791250766325, 0};
Point(p18 + 20) = {26.706363, -0.4376979999999999, 0};
Point(p18 + 21) = {26.71462029453459, -0.5426168749233673, 0};
Point(p18 + 22) = {26.73918885614252, -0.6449522989403393, 0};
Point(p18 + 23) = {26.77946372529863, -0.7421844342798165, 0};
Point(p18 + 24) = {26.83445320105966, -0.8319191030747863, 0};
Point(p18 + 25) = {26.90280326003278, -0.9119467399672243, 0};
Point(p18 + 26) = {26.98283089692521, -0.9802967989403391, 0};
Point(p18 + 27) = {27.07256556572018, -1.035286274701372, 0};
Point(p18 + 28) = {27.16979770105966, -1.07556114385748, 0};
Point(p18 + 29) = {27.27213312507663, -1.100129705465412, 0};
Point(p18 + 30) = {27.377052, -1.108387, 0};
Point(p18 + 31) = {27.48197087492337, -1.100129705465412, 0};
Point(p18 + 32) = {27.58430629894034, -1.07556114385748, 0};
Point(p18 + 33) = {27.68153843427982, -1.035286274701372, 0};
Point(p18 + 34) = {27.77127310307479, -0.9802967989403393, 0};
Point(p18 + 35) = {27.85130073996722, -0.9119467399672244, 0};
Point(p18 + 36) = {27.91965079894034, -0.8319191030747866, 0};
Point(p18 + 37) = {27.97464027470137, -0.742184434279817, 0};
Point(p18 + 38) = {28.01491514385748, -0.6449522989403392, 0};
Point(p18 + 39) = {28.03948370546541, -0.5426168749233675, 0};
Spline(18) = {12, p18 + 1, p18 + 2, p18 + 3, p18 + 4, p18 + 5, p18 + 6, p18 + 7, p18 + 8, p18 + 9, p18 + 10, p18 + 11, p18 + 12, p18 + 13, p18 + 14, p18 + 15, p18 + 16, p18 + 17, p18 + 18, p18 + 19, p18 + 20, p18 + 21, p18 + 22, p18 + 23, p18 + 24, p18 + 25, p18 + 26, p18 + 27, p18 + 28, p18 + 29, p18 + 30, p18 + 31, p18 + 32, p18 + 33, p18 + 34, p18 + 35, p18 + 36, p18 + 37, p18 + 38, p18 + 39, 12};
Line(19) = {14, 13};
Line(20) = {13, 15};
Line(21) = {16, 15};
Line(22) = {14, 16};
Line(23) = {14, 17};
Line(24) = {17, 18};
Line(25) = {13, 18};
Line(26) = {15, 19};
Line(27) = {18, 19};
Line(28) = {16, 20};
Line(29) = {20, 19};
Line(30) = {17, 20};
Curve Loop(7) = {-13, -14, 15, 14};
Surface(7) = {7};
Curve Loop(8) = {13};
Plane Surface(8) = {8};
Curve Loop(9) = {15};
Plane Surface(9) = {9};
Curve Loop(10) = {-16, -17, 18, 17};
Surface(10) = {10};
Curve Loop(11) = {16};
Plane Surface(11) = {11};
Curve Loop(12) = {18};
Plane Surface(12) = {12};
Curve Loop(13) = {-19, 22, 21, -20};
Plane Surface(13) = {13};
Curve Loop(14) = {-23, 19, 25, -24};
Plane Surface(14) = {14};
Curve Loop(15) = {-20, 25, 27, -26};
Plane Surface(15) = {15};
Curve Loop(16) = {-28, 21, 26, -29};
Plane Surface(16) = {16};
Curve Loop(17) = {-22, 23, 30, -28, -18, -15};
Plane Surface(17) = {17};
Curve Loop(18) = {-24, 30, 29, -27};
Plane Surface(18) = {18};
Surface Loop(1) = {13, 14, 15, 16, 17, 18, 10, 7, 11, 8};
Volume(1) = {1};
Surface Loop(2) = {7, 8, 9};
Volume(2) = {2};
Surface Loop(3) = {10, 11, 12};
Volume(3) = {3};
Physical Surface("WALLS") = {13, 18};
Physical Surface("LOAD") = {8, 11};
Physical Surface("BORDER") = {7, 9, 10, 12, 14, 15, 16, 17};
Physical Volume("SOLID") = {1, 2, 3};
