cl__1 = 0.09673900000000001;
cl__2 = 0.052697;
cl__3 = 0.50349;
cl__4 = 0.370415;
cl__5 = 3.428562;
cl__6 = 4.237387;
Point(9) = {14.455918, -3.08087, 0.1, cl__1};
Point(10) = {14.455918, -3.08087, 0, cl__1};
Point(11) = {4.784795, 1.124502, 0.1, cl__2};
Point(12) = {4.784795, 1.124502, 0, cl__2};
Point(13) = {0.435836, -4.569903, 0.1, cl__3};
Point(14) = {0.435836, -4.569903, 0, cl__3};
Point(15) = {0.435836, 4.627952000000001, 0.1, cl__4};
Point(16) = {0.435836, 4.627952000000001, 0, cl__4};
Point(17) = {33.361295, -4.569903, 0, cl__5};
Point(18) = {33.361295, -4.569903, 0.1, cl__5};
Point(19) = {33.361295, 4.627952000000001, 0.1, cl__6};
Point(20) = {33.361295, 4.627952000000001, 0, cl__6};
p13 = newp;
Point(p13 + 1) = {14.44400782380833, -2.929536862864731, 0.1};
Point(p13 + 2) = {14.40857056329877, -2.78193004981162, 0.1};
Point(p13 + 3) = {14.35047880143459, -2.64168413045696, 0.1};
Point(p13 + 4) = {14.27116295018838, -2.512252424784784, 0.1};
Point(p13 + 5) = {14.17257602905205, -2.396821970947946, 0.1};
Point(p13 + 6) = {14.05714557521522, -2.29823504981162, 0.1};
Point(p13 + 7) = {13.92771386954304, -2.218919198565415, 0.1};
Point(p13 + 8) = {13.78746795018838, -2.160827436701231, 0.1};
Point(p13 + 9) = {13.63986113713527, -2.12539017619167, 0.1};
Point(p13 + 10) = {13.488528, -2.11348, 0.1};
Point(p13 + 11) = {13.33719486286473, -2.12539017619167, 0.1};
Point(p13 + 12) = {13.18958804981162, -2.160827436701231, 0.1};
Point(p13 + 13) = {13.04934213045696, -2.218919198565415, 0.1};
Point(p13 + 14) = {12.91991042478478, -2.29823504981162, 0.1};
Point(p13 + 15) = {12.80447997094795, -2.396821970947946, 0.1};
Point(p13 + 16) = {12.70589304981162, -2.512252424784784, 0.1};
Point(p13 + 17) = {12.62657719856542, -2.64168413045696, 0.1};
Point(p13 + 18) = {12.56848543670123, -2.78193004981162, 0.1};
Point(p13 + 19) = {12.53304817619167, -2.929536862864731, 0.1};
Point(p13 + 20) = {12.521138, -3.08087, 0.1};
Point(p13 + 21) = {12.53304817619167, -3.232203137135269, 0.1};
Point(p13 + 22) = {12.56848543670123, -3.379809950188381, 0.1};
Point(p13 + 23) = {12.62657719856542, -3.52005586954304, 0.1};
Point(p13 + 24) = {12.70589304981162, -3.649487575215216, 0.1};
Point(p13 + 25) = {12.80447997094795, -3.764918029052054, 0.1};
Point(p13 + 26) = {12.91991042478478, -3.86350495018838, 0.1};
Point(p13 + 27) = {13.04934213045696, -3.942820801434585, 0.1};
Point(p13 + 28) = {13.18958804981162, -4.000912563298769, 0.1};
Point(p13 + 29) = {13.33719486286473, -4.03634982380833, 0.1};
Point(p13 + 30) = {13.488528, -4.04826, 0.1};
Point(p13 + 31) = {13.63986113713527, -4.03634982380833, 0.1};
Point(p13 + 32) = {13.78746795018838, -4.000912563298769, 0.1};
Point(p13 + 33) = {13.92771386954304, -3.942820801434586, 0.1};
Point(p13 + 34) = {14.05714557521522, -3.86350495018838, 0.1};
Point(p13 + 35) = {14.17257602905205, -3.764918029052054, 0.1};
Point(p13 + 36) = {14.27116295018838, -3.649487575215216, 0.1};
Point(p13 + 37) = {14.35047880143459, -3.52005586954304, 0.1};
Point(p13 + 38) = {14.40857056329877, -3.379809950188381, 0.1};
Point(p13 + 39) = {14.44400782380833, -3.232203137135269, 0.1};
Spline(13) = {9, p13 + 1, p13 + 2, p13 + 3, p13 + 4, p13 + 5, p13 + 6, p13 + 7, p13 + 8, p13 + 9, p13 + 10, p13 + 11, p13 + 12, p13 + 13, p13 + 14, p13 + 15, p13 + 16, p13 + 17, p13 + 18, p13 + 19, p13 + 20, p13 + 21, p13 + 22, p13 + 23, p13 + 24, p13 + 25, p13 + 26, p13 + 27, p13 + 28, p13 + 29, p13 + 30, p13 + 31, p13 + 32, p13 + 33, p13 + 34, p13 + 35, p13 + 36, p13 + 37, p13 + 38, p13 + 39, 9};
Line(14) = {10, 9};
p15 = newp;
Point(p15 + 1) = {14.44400782380833, -2.929536862864731, 0};
Point(p15 + 2) = {14.40857056329877, -2.78193004981162, 0};
Point(p15 + 3) = {14.35047880143459, -2.64168413045696, 0};
Point(p15 + 4) = {14.27116295018838, -2.512252424784784, 0};
Point(p15 + 5) = {14.17257602905205, -2.396821970947946, 0};
Point(p15 + 6) = {14.05714557521522, -2.29823504981162, 0};
Point(p15 + 7) = {13.92771386954304, -2.218919198565415, 0};
Point(p15 + 8) = {13.78746795018838, -2.160827436701231, 0};
Point(p15 + 9) = {13.63986113713527, -2.12539017619167, 0};
Point(p15 + 10) = {13.488528, -2.11348, 0};
Point(p15 + 11) = {13.33719486286473, -2.12539017619167, 0};
Point(p15 + 12) = {13.18958804981162, -2.160827436701231, 0};
Point(p15 + 13) = {13.04934213045696, -2.218919198565415, 0};
Point(p15 + 14) = {12.91991042478478, -2.29823504981162, 0};
Point(p15 + 15) = {12.80447997094795, -2.396821970947946, 0};
Point(p15 + 16) = {12.70589304981162, -2.512252424784784, 0};
Point(p15 + 17) = {12.62657719856542, -2.64168413045696, 0};
Point(p15 + 18) = {12.56848543670123, -2.78193004981162, 0};
Point(p15 + 19) = {12.53304817619167, -2.929536862864731, 0};
Point(p15 + 20) = {12.521138, -3.08087, 0};
Point(p15 + 21) = {12.53304817619167, -3.232203137135269, 0};
Point(p15 + 22) = {12.56848543670123, -3.379809950188381, 0};
Point(p15 + 23) = {12.62657719856542, -3.52005586954304, 0};
Point(p15 + 24) = {12.70589304981162, -3.649487575215216, 0};
Point(p15 + 25) = {12.80447997094795, -3.764918029052054, 0};
Point(p15 + 26) = {12.91991042478478, -3.86350495018838, 0};
Point(p15 + 27) = {13.04934213045696, -3.942820801434585, 0};
Point(p15 + 28) = {13.18958804981162, -4.000912563298769, 0};
Point(p15 + 29) = {13.33719486286473, -4.03634982380833, 0};
Point(p15 + 30) = {13.488528, -4.04826, 0};
Point(p15 + 31) = {13.63986113713527, -4.03634982380833, 0};
Point(p15 + 32) = {13.78746795018838, -4.000912563298769, 0};
Point(p15 + 33) = {13.92771386954304, -3.942820801434586, 0};
Point(p15 + 34) = {14.05714557521522, -3.86350495018838, 0};
Point(p15 + 35) = {14.17257602905205, -3.764918029052054, 0};
Point(p15 + 36) = {14.27116295018838, -3.649487575215216, 0};
Point(p15 + 37) = {14.35047880143459, -3.52005586954304, 0};
Point(p15 + 38) = {14.40857056329877, -3.379809950188381, 0};
Point(p15 + 39) = {14.44400782380833, -3.232203137135269, 0};
Spline(15) = {10, p15 + 1, p15 + 2, p15 + 3, p15 + 4, p15 + 5, p15 + 6, p15 + 7, p15 + 8, p15 + 9, p15 + 10, p15 + 11, p15 + 12, p15 + 13, p15 + 14, p15 + 15, p15 + 16, p15 + 17, p15 + 18, p15 + 19, p15 + 20, p15 + 21, p15 + 22, p15 + 23, p15 + 24, p15 + 25, p15 + 26, p15 + 27, p15 + 28, p15 + 29, p15 + 30, p15 + 31, p15 + 32, p15 + 33, p15 + 34, p15 + 35, p15 + 36, p15 + 37, p15 + 38, p15 + 39, 10};
p16 = newp;
Point(p16 + 1) = {4.778307174090058, 1.20693764430439, 0.1};
Point(p16 + 2) = {4.759003448165992, 1.287343449457788, 0.1};
Point(p16 + 3) = {4.727359144025447, 1.36373955768575, 0.1};
Point(p16 + 4) = {4.684153449457789, 1.434244843259555, 0.1};
Point(p16 + 5) = {4.63045023205475, 1.49712323205475, 0.1};
Point(p16 + 6) = {4.567571843259556, 1.550826449457788, 0.1};
Point(p16 + 7) = {4.49706655768575, 1.594032144025447, 0.1};
Point(p16 + 8) = {4.420670449457789, 1.625676448165992, 0.1};
Point(p16 + 9) = {4.340264644304391, 1.644980174090057, 0.1};
Point(p16 + 10) = {4.257829, 1.651468, 0.1};
Point(p16 + 11) = {4.17539335569561, 1.644980174090057, 0.1};
Point(p16 + 12) = {4.094987550542212, 1.625676448165992, 0.1};
Point(p16 + 13) = {4.01859144231425, 1.594032144025447, 0.1};
Point(p16 + 14) = {3.948086156740445, 1.550826449457789, 0.1};
Point(p16 + 15) = {3.88520776794525, 1.49712323205475, 0.1};
Point(p16 + 16) = {3.831504550542212, 1.434244843259555, 0.1};
Point(p16 + 17) = {3.788298855974553, 1.36373955768575, 0.1};
Point(p16 + 18) = {3.756654551834008, 1.287343449457788, 0.1};
Point(p16 + 19) = {3.737350825909943, 1.20693764430439, 0.1};
Point(p16 + 20) = {3.730863, 1.124502, 0.1};
Point(p16 + 21) = {3.737350825909943, 1.04206635569561, 0.1};
Point(p16 + 22) = {3.756654551834008, 0.9616605505422111, 0.1};
Point(p16 + 23) = {3.788298855974552, 0.8852644423142502, 0.1};
Point(p16 + 24) = {3.831504550542212, 0.8147591567404445, 0.1};
Point(p16 + 25) = {3.88520776794525, 0.7518807679452497, 0.1};
Point(p16 + 26) = {3.948086156740445, 0.6981775505422114, 0.1};
Point(p16 + 27) = {4.01859144231425, 0.6549718559745524, 0.1};
Point(p16 + 28) = {4.094987550542212, 0.623327551834008, 0.1};
Point(p16 + 29) = {4.17539335569561, 0.6040238259099425, 0.1};
Point(p16 + 30) = {4.257829, 0.5975359999999998, 0.1};
Point(p16 + 31) = {4.340264644304391, 0.6040238259099425, 0.1};
Point(p16 + 32) = {4.420670449457789, 0.6233275518340079, 0.1};
Point(p16 + 33) = {4.49706655768575, 0.6549718559745523, 0.1};
Point(p16 + 34) = {4.567571843259556, 0.6981775505422112, 0.1};
Point(p16 + 35) = {4.63045023205475, 0.7518807679452495, 0.1};
Point(p16 + 36) = {4.684153449457789, 0.8147591567404444, 0.1};
Point(p16 + 37) = {4.727359144025447, 0.8852644423142497, 0.1};
Point(p16 + 38) = {4.759003448165992, 0.9616605505422112, 0.1};
Point(p16 + 39) = {4.778307174090058, 1.042066355695609, 0.1};
Spline(16) = {11, p16 + 1, p16 + 2, p16 + 3, p16 + 4, p16 + 5, p16 + 6, p16 + 7, p16 + 8, p16 + 9, p16 + 10, p16 + 11, p16 + 12, p16 + 13, p16 + 14, p16 + 15, p16 + 16, p16 + 17, p16 + 18, p16 + 19, p16 + 20, p16 + 21, p16 + 22, p16 + 23, p16 + 24, p16 + 25, p16 + 26, p16 + 27, p16 + 28, p16 + 29, p16 + 30, p16 + 31, p16 + 32, p16 + 33, p16 + 34, p16 + 35, p16 + 36, p16 + 37, p16 + 38, p16 + 39, 11};
Line(17) = {12, 11};
p18 = newp;
Point(p18 + 1) = {4.778307174090058, 1.20693764430439, 0};
Point(p18 + 2) = {4.759003448165992, 1.287343449457788, 0};
Point(p18 + 3) = {4.727359144025447, 1.36373955768575, 0};
Point(p18 + 4) = {4.684153449457789, 1.434244843259555, 0};
Point(p18 + 5) = {4.63045023205475, 1.49712323205475, 0};
Point(p18 + 6) = {4.567571843259556, 1.550826449457788, 0};
Point(p18 + 7) = {4.49706655768575, 1.594032144025447, 0};
Point(p18 + 8) = {4.420670449457789, 1.625676448165992, 0};
Point(p18 + 9) = {4.340264644304391, 1.644980174090057, 0};
Point(p18 + 10) = {4.257829, 1.651468, 0};
Point(p18 + 11) = {4.17539335569561, 1.644980174090057, 0};
Point(p18 + 12) = {4.094987550542212, 1.625676448165992, 0};
Point(p18 + 13) = {4.01859144231425, 1.594032144025447, 0};
Point(p18 + 14) = {3.948086156740445, 1.550826449457789, 0};
Point(p18 + 15) = {3.88520776794525, 1.49712323205475, 0};
Point(p18 + 16) = {3.831504550542212, 1.434244843259555, 0};
Point(p18 + 17) = {3.788298855974553, 1.36373955768575, 0};
Point(p18 + 18) = {3.756654551834008, 1.287343449457788, 0};
Point(p18 + 19) = {3.737350825909943, 1.20693764430439, 0};
Point(p18 + 20) = {3.730863, 1.124502, 0};
Point(p18 + 21) = {3.737350825909943, 1.04206635569561, 0};
Point(p18 + 22) = {3.756654551834008, 0.9616605505422111, 0};
Point(p18 + 23) = {3.788298855974552, 0.8852644423142502, 0};
Point(p18 + 24) = {3.831504550542212, 0.8147591567404445, 0};
Point(p18 + 25) = {3.88520776794525, 0.7518807679452497, 0};
Point(p18 + 26) = {3.948086156740445, 0.6981775505422114, 0};
Point(p18 + 27) = {4.01859144231425, 0.6549718559745524, 0};
Point(p18 + 28) = {4.094987550542212, 0.623327551834008, 0};
Point(p18 + 29) = {4.17539335569561, 0.6040238259099425, 0};
Point(p18 + 30) = {4.257829, 0.5975359999999998, 0};
Point(p18 + 31) = {4.340264644304391, 0.6040238259099425, 0};
Point(p18 + 32) = {4.420670449457789, 0.6233275518340079, 0};
Point(p18 + 33) = {4.49706655768575, 0.6549718559745523, 0};
Point(p18 + 34) = {4.567571843259556, 0.6981775505422112, 0};
Point(p18 + 35) = {4.63045023205475, 0.7518807679452495, 0};
Point(p18 + 36) = {4.684153449457789, 0.8147591567404444, 0};
Point(p18 + 37) = {4.727359144025447, 0.8852644423142497, 0};
Point(p18 + 38) = {4.759003448165992, 0.9616605505422112, 0};
Point(p18 + 39) = {4.778307174090058, 1.042066355695609, 0};
Spline(18) = {12, p18 + 1, p18 + 2, p18 + 3, p18 + 4, p18 + 5, p18 + 6, p18 + 7, p18 + 8, p18 + 9, p18 + 10, p18 + 11, p18 + 12, p18 + 13, p18 + 14, p18 + 15, p18 + 16, p18 + 17, p18 + 18, p18 + 19, p18 + 20, p18 + 21, p18 + 22, p18 + 23, p18 + 24, p18 + 25, p18 + 26, p18 + 27, p18 + 28, p18 + 29, p18 + 30, p18 + 31, p18 + 32, p18 + 33, p18 + 34, p18 + 35, p18 + 36, p18 + 37, p18 + 38, p18 + 39, 12};
Line(19) = {14, 13};
Line(20) = {13, 15};
Line(21) = {16, 15};
Line(22) = {14, 16};
Line(23) = {14, 17};
Line(24) = {17, 18};
Line(25) = {13, 18};
Line(26) = {15, 19};
Line(27) = {18, 19};
Line(28) = {16, 20};
Line(29) = {20, 19};
Line(30) = {17, 20};
Curve Loop(7) = {-13, -14, 15, 14};
Surface(7) = {7};
Curve Loop(8) = {13};
Plane Surface(8) = {8};
Curve Loop(9) = {15};
Plane Surface(9) = {9};
Curve Loop(10) = {-16, -17, 18, 17};
Surface(10) = {10};
Curve Loop(11) = {16};
Plane Surface(11) = {11};
Curve Loop(12) = {18};
Plane Surface(12) = {12};
Curve Loop(13) = {-19, 22, 21, -20};
Plane Surface(13) = {13};
Curve Loop(14) = {-23, 19, 25, -24};
Plane Surface(14) = {14};
Curve Loop(15) = {-20, 25, 27, -26, -13, -16};
Plane Surface(15) = {15};
Curve Loop(16) = {-28, 21, 26, -29};
Plane Surface(16) = {16};
Curve Loop(17) = {-22, 23, 30, -28, -15, -18};
Plane Surface(17) = {17};
Curve Loop(18) = {-24, 30, 29, -27};
Plane Surface(18) = {18};
Surface Loop(1) = {13, 14, 15, 16, 17, 18, 7, 10};
Volume(1) = {1};
Surface Loop(2) = {7, 8, 9};
Volume(2) = {2};
Surface Loop(3) = {10, 11, 12};
Volume(3) = {3};
Physical Surface("WALLS") = {13, 18};
Physical Surface("LOAD") = {8, 11};
Physical Surface("BORDER") = {7, 9, 10, 12, 14, 15, 16, 17};
Physical Volume("SOLID") = {1, 2, 3};
