cl__1 = 0.11905;
cl__2 = 0.058845;
cl__3 = 0.227445;
cl__4 = 0.150093;
cl__5 = 5.846141;
cl__6 = 6.038595;
Point(9) = {5.228371, -0.1710460000000003, 0.1, cl__1};
Point(10) = {5.228371, -0.1710460000000003, 0, cl__1};
Point(11) = {3.379974, 3.611478, 0.1, cl__2};
Point(12) = {3.379974, 3.611478, 0, cl__2};
Point(13) = {0.36697, -3.65287, 1, cl__3};
Point(14) = {0.36697, -3.65287, 0, cl__3};
Point(15) = {0.36697, 5.609336000000001, 1, cl__4};
Point(16) = {0.36697, 5.609336000000001, 0, cl__4};
Point(17) = {35.681496, -3.65287, 0, cl__5};
Point(18) = {35.681496, -3.65287, 1, cl__5};
Point(19) = {35.681496, 5.609336000000001, 1, cl__6};
Point(20) = {35.681496, 5.609336000000001, 0, cl__6};
p13 = newp;
Point(p13 + 1) = {5.21371400641349, 0.0151887613269997, 0.1};
Point(p13 + 2) = {5.170103929479832, 0.1968378047523917, 0.1};
Point(p13 + 3) = {5.09861459402668, 0.3694283279684312, 0.1};
Point(p13 + 4) = {5.001006304752392, 0.5287105794984324, 0.1};
Point(p13 + 5) = {4.879682501682241, 0.6707625016822411, 0.1};
Point(p13 + 6) = {4.737630579498433, 0.7920863047523916, 0.1};
Point(p13 + 7) = {4.578348327968431, 0.8896945940266792, 0.1};
Point(p13 + 8) = {4.405757804752392, 0.9611839294798312, 0.1};
Point(p13 + 9) = {4.224108761327, 1.00479400641349, 0.1};
Point(p13 + 10) = {4.037874, 1.019451, 0.1};
Point(p13 + 11) = {3.851639238673001, 1.004794006413489, 0.1};
Point(p13 + 12) = {3.669990195247609, 0.9611839294798314, 0.1};
Point(p13 + 13) = {3.497399672031569, 0.8896945940266794, 0.1};
Point(p13 + 14) = {3.338117420501568, 0.7920863047523917, 0.1};
Point(p13 + 15) = {3.196065498317759, 0.6707625016822413, 0.1};
Point(p13 + 16) = {3.074741695247609, 0.5287105794984325, 0.1};
Point(p13 + 17) = {2.977133405973321, 0.3694283279684313, 0.1};
Point(p13 + 18) = {2.905644070520169, 0.1968378047523918, 0.1};
Point(p13 + 19) = {2.862033993586511, 0.01518876132699984, 0.1};
Point(p13 + 20) = {2.847377000000001, -0.1710459999999999, 0.1};
Point(p13 + 21) = {2.862033993586511, -0.3572807613269996, 0.1};
Point(p13 + 22) = {2.905644070520169, -0.5389298047523922, 0.1};
Point(p13 + 23) = {2.977133405973321, -0.7115203279684307, 0.1};
Point(p13 + 24) = {3.074741695247609, -0.8708025794984322, 0.1};
Point(p13 + 25) = {3.196065498317759, -1.012854501682241, 0.1};
Point(p13 + 26) = {3.338117420501568, -1.134178304752392, 0.1};
Point(p13 + 27) = {3.497399672031569, -1.231786594026679, 0.1};
Point(p13 + 28) = {3.669990195247609, -1.303275929479831, 0.1};
Point(p13 + 29) = {3.851639238673001, -1.34688600641349, 0.1};
Point(p13 + 30) = {4.037874, -1.361543, 0.1};
Point(p13 + 31) = {4.224108761327, -1.34688600641349, 0.1};
Point(p13 + 32) = {4.405757804752392, -1.303275929479832, 0.1};
Point(p13 + 33) = {4.578348327968431, -1.231786594026679, 0.1};
Point(p13 + 34) = {4.737630579498433, -1.134178304752392, 0.1};
Point(p13 + 35) = {4.879682501682241, -1.012854501682241, 0.1};
Point(p13 + 36) = {5.001006304752392, -0.8708025794984325, 0.1};
Point(p13 + 37) = {5.09861459402668, -0.7115203279684315, 0.1};
Point(p13 + 38) = {5.170103929479832, -0.5389298047523919, 0.1};
Point(p13 + 39) = {5.21371400641349, -0.357280761327, 0.1};
Spline(13) = {9, p13 + 1, p13 + 2, p13 + 3, p13 + 4, p13 + 5, p13 + 6, p13 + 7, p13 + 8, p13 + 9, p13 + 10, p13 + 11, p13 + 12, p13 + 13, p13 + 14, p13 + 15, p13 + 16, p13 + 17, p13 + 18, p13 + 19, p13 + 20, p13 + 21, p13 + 22, p13 + 23, p13 + 24, p13 + 25, p13 + 26, p13 + 27, p13 + 28, p13 + 29, p13 + 30, p13 + 31, p13 + 32, p13 + 33, p13 + 34, p13 + 35, p13 + 36, p13 + 37, p13 + 38, p13 + 39, 9};
Line(14) = {10, 9};
p15 = newp;
Point(p15 + 1) = {5.21371400641349, 0.0151887613269997, 0};
Point(p15 + 2) = {5.170103929479832, 0.1968378047523917, 0};
Point(p15 + 3) = {5.09861459402668, 0.3694283279684312, 0};
Point(p15 + 4) = {5.001006304752392, 0.5287105794984324, 0};
Point(p15 + 5) = {4.879682501682241, 0.6707625016822411, 0};
Point(p15 + 6) = {4.737630579498433, 0.7920863047523916, 0};
Point(p15 + 7) = {4.578348327968431, 0.8896945940266792, 0};
Point(p15 + 8) = {4.405757804752392, 0.9611839294798312, 0};
Point(p15 + 9) = {4.224108761327, 1.00479400641349, 0};
Point(p15 + 10) = {4.037874, 1.019451, 0};
Point(p15 + 11) = {3.851639238673001, 1.004794006413489, 0};
Point(p15 + 12) = {3.669990195247609, 0.9611839294798314, 0};
Point(p15 + 13) = {3.497399672031569, 0.8896945940266794, 0};
Point(p15 + 14) = {3.338117420501568, 0.7920863047523917, 0};
Point(p15 + 15) = {3.196065498317759, 0.6707625016822413, 0};
Point(p15 + 16) = {3.074741695247609, 0.5287105794984325, 0};
Point(p15 + 17) = {2.977133405973321, 0.3694283279684313, 0};
Point(p15 + 18) = {2.905644070520169, 0.1968378047523918, 0};
Point(p15 + 19) = {2.862033993586511, 0.01518876132699984, 0};
Point(p15 + 20) = {2.847377000000001, -0.1710459999999999, 0};
Point(p15 + 21) = {2.862033993586511, -0.3572807613269996, 0};
Point(p15 + 22) = {2.905644070520169, -0.5389298047523922, 0};
Point(p15 + 23) = {2.977133405973321, -0.7115203279684307, 0};
Point(p15 + 24) = {3.074741695247609, -0.8708025794984322, 0};
Point(p15 + 25) = {3.196065498317759, -1.012854501682241, 0};
Point(p15 + 26) = {3.338117420501568, -1.134178304752392, 0};
Point(p15 + 27) = {3.497399672031569, -1.231786594026679, 0};
Point(p15 + 28) = {3.669990195247609, -1.303275929479831, 0};
Point(p15 + 29) = {3.851639238673001, -1.34688600641349, 0};
Point(p15 + 30) = {4.037874, -1.361543, 0};
Point(p15 + 31) = {4.224108761327, -1.34688600641349, 0};
Point(p15 + 32) = {4.405757804752392, -1.303275929479832, 0};
Point(p15 + 33) = {4.578348327968431, -1.231786594026679, 0};
Point(p15 + 34) = {4.737630579498433, -1.134178304752392, 0};
Point(p15 + 35) = {4.879682501682241, -1.012854501682241, 0};
Point(p15 + 36) = {5.001006304752392, -0.8708025794984325, 0};
Point(p15 + 37) = {5.09861459402668, -0.7115203279684315, 0};
Point(p15 + 38) = {5.170103929479832, -0.5389298047523919, 0};
Point(p15 + 39) = {5.21371400641349, -0.357280761327, 0};
Spline(15) = {10, p15 + 1, p15 + 2, p15 + 3, p15 + 4, p15 + 5, p15 + 6, p15 + 7, p15 + 8, p15 + 9, p15 + 10, p15 + 11, p15 + 12, p15 + 13, p15 + 14, p15 + 15, p15 + 16, p15 + 17, p15 + 18, p15 + 19, p15 + 20, p15 + 21, p15 + 22, p15 + 23, p15 + 24, p15 + 25, p15 + 26, p15 + 27, p15 + 28, p15 + 29, p15 + 30, p15 + 31, p15 + 32, p15 + 33, p15 + 34, p15 + 35, p15 + 36, p15 + 37, p15 + 38, p15 + 39, 10};
p16 = newp;
Point(p16 + 1) = {3.372729253269847, 3.703531235215064, 0.1};
Point(p16 + 2) = {3.351173402787818, 3.79331781427196, 0.1};
Point(p16 + 3) = {3.315837225132548, 3.878626893609737, 0.1};
Point(p16 + 4) = {3.26759081427196, 3.957357880570497, 0.1};
Point(p16 + 5) = {3.207622156962099, 4.027572156962099, 0.1};
Point(p16 + 6) = {3.137407880570497, 4.087540814271961, 0.1};
Point(p16 + 7) = {3.058676893609737, 4.135787225132548, 0.1};
Point(p16 + 8) = {2.97336781427196, 4.171123402787818, 0.1};
Point(p16 + 9) = {2.883581235215064, 4.192679253269846, 0.1};
Point(p16 + 10) = {2.791528, 4.199924, 0.1};
Point(p16 + 11) = {2.699474764784936, 4.192679253269846, 0.1};
Point(p16 + 12) = {2.60968818572804, 4.171123402787818, 0.1};
Point(p16 + 13) = {2.524379106390263, 4.135787225132549, 0.1};
Point(p16 + 14) = {2.445648119429503, 4.087540814271961, 0.1};
Point(p16 + 15) = {2.375433843037901, 4.027572156962099, 0.1};
Point(p16 + 16) = {2.31546518572804, 3.957357880570497, 0.1};
Point(p16 + 17) = {2.267218774867452, 3.878626893609737, 0.1};
Point(p16 + 18) = {2.231882597212182, 3.79331781427196, 0.1};
Point(p16 + 19) = {2.210326746730154, 3.703531235215064, 0.1};
Point(p16 + 20) = {2.203082, 3.611478, 0.1};
Point(p16 + 21) = {2.210326746730154, 3.519424764784936, 0.1};
Point(p16 + 22) = {2.231882597212182, 3.429638185728039, 0.1};
Point(p16 + 23) = {2.267218774867452, 3.344329106390263, 0.1};
Point(p16 + 24) = {2.31546518572804, 3.265598119429503, 0.1};
Point(p16 + 25) = {2.375433843037901, 3.195383843037901, 0.1};
Point(p16 + 26) = {2.445648119429503, 3.13541518572804, 0.1};
Point(p16 + 27) = {2.524379106390263, 3.087168774867452, 0.1};
Point(p16 + 28) = {2.609688185728039, 3.051832597212182, 0.1};
Point(p16 + 29) = {2.699474764784936, 3.030276746730153, 0.1};
Point(p16 + 30) = {2.791528, 3.023032, 0.1};
Point(p16 + 31) = {2.883581235215064, 3.030276746730153, 0.1};
Point(p16 + 32) = {2.97336781427196, 3.051832597212182, 0.1};
Point(p16 + 33) = {3.058676893609737, 3.087168774867452, 0.1};
Point(p16 + 34) = {3.137407880570497, 3.13541518572804, 0.1};
Point(p16 + 35) = {3.207622156962099, 3.1953838430379, 0.1};
Point(p16 + 36) = {3.26759081427196, 3.265598119429503, 0.1};
Point(p16 + 37) = {3.315837225132548, 3.344329106390262, 0.1};
Point(p16 + 38) = {3.351173402787818, 3.429638185728039, 0.1};
Point(p16 + 39) = {3.372729253269847, 3.519424764784936, 0.1};
Spline(16) = {11, p16 + 1, p16 + 2, p16 + 3, p16 + 4, p16 + 5, p16 + 6, p16 + 7, p16 + 8, p16 + 9, p16 + 10, p16 + 11, p16 + 12, p16 + 13, p16 + 14, p16 + 15, p16 + 16, p16 + 17, p16 + 18, p16 + 19, p16 + 20, p16 + 21, p16 + 22, p16 + 23, p16 + 24, p16 + 25, p16 + 26, p16 + 27, p16 + 28, p16 + 29, p16 + 30, p16 + 31, p16 + 32, p16 + 33, p16 + 34, p16 + 35, p16 + 36, p16 + 37, p16 + 38, p16 + 39, 11};
Line(17) = {12, 11};
p18 = newp;
Point(p18 + 1) = {3.372729253269847, 3.703531235215064, 0};
Point(p18 + 2) = {3.351173402787818, 3.79331781427196, 0};
Point(p18 + 3) = {3.315837225132548, 3.878626893609737, 0};
Point(p18 + 4) = {3.26759081427196, 3.957357880570497, 0};
Point(p18 + 5) = {3.207622156962099, 4.027572156962099, 0};
Point(p18 + 6) = {3.137407880570497, 4.087540814271961, 0};
Point(p18 + 7) = {3.058676893609737, 4.135787225132548, 0};
Point(p18 + 8) = {2.97336781427196, 4.171123402787818, 0};
Point(p18 + 9) = {2.883581235215064, 4.192679253269846, 0};
Point(p18 + 10) = {2.791528, 4.199924, 0};
Point(p18 + 11) = {2.699474764784936, 4.192679253269846, 0};
Point(p18 + 12) = {2.60968818572804, 4.171123402787818, 0};
Point(p18 + 13) = {2.524379106390263, 4.135787225132549, 0};
Point(p18 + 14) = {2.445648119429503, 4.087540814271961, 0};
Point(p18 + 15) = {2.375433843037901, 4.027572156962099, 0};
Point(p18 + 16) = {2.31546518572804, 3.957357880570497, 0};
Point(p18 + 17) = {2.267218774867452, 3.878626893609737, 0};
Point(p18 + 18) = {2.231882597212182, 3.79331781427196, 0};
Point(p18 + 19) = {2.210326746730154, 3.703531235215064, 0};
Point(p18 + 20) = {2.203082, 3.611478, 0};
Point(p18 + 21) = {2.210326746730154, 3.519424764784936, 0};
Point(p18 + 22) = {2.231882597212182, 3.429638185728039, 0};
Point(p18 + 23) = {2.267218774867452, 3.344329106390263, 0};
Point(p18 + 24) = {2.31546518572804, 3.265598119429503, 0};
Point(p18 + 25) = {2.375433843037901, 3.195383843037901, 0};
Point(p18 + 26) = {2.445648119429503, 3.13541518572804, 0};
Point(p18 + 27) = {2.524379106390263, 3.087168774867452, 0};
Point(p18 + 28) = {2.609688185728039, 3.051832597212182, 0};
Point(p18 + 29) = {2.699474764784936, 3.030276746730153, 0};
Point(p18 + 30) = {2.791528, 3.023032, 0};
Point(p18 + 31) = {2.883581235215064, 3.030276746730153, 0};
Point(p18 + 32) = {2.97336781427196, 3.051832597212182, 0};
Point(p18 + 33) = {3.058676893609737, 3.087168774867452, 0};
Point(p18 + 34) = {3.137407880570497, 3.13541518572804, 0};
Point(p18 + 35) = {3.207622156962099, 3.1953838430379, 0};
Point(p18 + 36) = {3.26759081427196, 3.265598119429503, 0};
Point(p18 + 37) = {3.315837225132548, 3.344329106390262, 0};
Point(p18 + 38) = {3.351173402787818, 3.429638185728039, 0};
Point(p18 + 39) = {3.372729253269847, 3.519424764784936, 0};
Spline(18) = {12, p18 + 1, p18 + 2, p18 + 3, p18 + 4, p18 + 5, p18 + 6, p18 + 7, p18 + 8, p18 + 9, p18 + 10, p18 + 11, p18 + 12, p18 + 13, p18 + 14, p18 + 15, p18 + 16, p18 + 17, p18 + 18, p18 + 19, p18 + 20, p18 + 21, p18 + 22, p18 + 23, p18 + 24, p18 + 25, p18 + 26, p18 + 27, p18 + 28, p18 + 29, p18 + 30, p18 + 31, p18 + 32, p18 + 33, p18 + 34, p18 + 35, p18 + 36, p18 + 37, p18 + 38, p18 + 39, 12};
Line(19) = {14, 13};
Line(20) = {13, 15};
Line(21) = {16, 15};
Line(22) = {14, 16};
Line(23) = {14, 17};
Line(24) = {17, 18};
Line(25) = {13, 18};
Line(26) = {15, 19};
Line(27) = {18, 19};
Line(28) = {16, 20};
Line(29) = {20, 19};
Line(30) = {17, 20};
Curve Loop(7) = {-13, -14, 15, 14};
Surface(7) = {7};
Curve Loop(8) = {13};
Plane Surface(8) = {8};
Curve Loop(9) = {15};
Plane Surface(9) = {9};
Curve Loop(10) = {-16, -17, 18, 17};
Surface(10) = {10};
Curve Loop(11) = {16};
Plane Surface(11) = {11};
Curve Loop(12) = {18};
Plane Surface(12) = {12};
Curve Loop(13) = {-19, 22, 21, -20};
Plane Surface(13) = {13};
Curve Loop(14) = {-23, 19, 25, -24};
Plane Surface(14) = {14};
Curve Loop(15) = {-20, 25, 27, -26};
Plane Surface(15) = {15};
Curve Loop(16) = {-28, 21, 26, -29};
Plane Surface(16) = {16};
Curve Loop(17) = {-22, 23, 30, -28, -15, -18};
Plane Surface(17) = {17};
Curve Loop(18) = {-24, 30, 29, -27};
Plane Surface(18) = {18};
Surface Loop(1) = {13, 14, 15, 16, 17, 18, 7, 10, 8, 11};
Volume(1) = {1};
Surface Loop(2) = {7, 8, 9};
Volume(2) = {2};
Surface Loop(3) = {10, 11, 12};
Volume(3) = {3};
Physical Surface("WALLS") = {13, 18};
Physical Surface("LOAD") = {8, 11};
Physical Surface("BORDER") = {7, 9, 10, 12, 14, 15, 16, 17};
Physical Volume("SOLID") = {1, 2, 3};
