cl__1 = 0.063565;
cl__2 = 0.052895;
cl__3 = 1.753351;
cl__4 = 2.06666;
cl__5 = 0.913958;
cl__6 = 0.606436;
Point(9) = {11.572466, 0.05366499999999984, 0.1, cl__1};
Point(10) = {11.572466, 0.05366499999999984, 0, cl__1};
Point(11) = {30.454275, 2.995753, 0.1, cl__2};
Point(12) = {30.454275, 2.995753, 0, cl__2};
Point(13) = {0.867189, -3.127698, 0.1, cl__3};
Point(14) = {0.867189, -3.127698, 0, cl__3};
Point(15) = {0.867189, 4.769733, 0.1, cl__4};
Point(16) = {0.867189, 4.769733, 0, cl__4};
Point(17) = {35.152697, -3.127698, 0, cl__5};
Point(18) = {35.152697, -3.127698, 0.1, cl__5};
Point(19) = {35.152697, 4.769733, 0.1, cl__6};
Point(20) = {35.152697, 4.769733, 0, cl__6};
p13 = newp;
Point(p13 + 1) = {11.5646400936993, 0.1531025677028228, 0.1};
Point(p13 + 2) = {11.54135507458301, 0.2500916524744353, 0.1};
Point(p13 + 3) = {11.50318429710034, 0.3422440611594429, 0.1};
Point(p13 + 4) = {11.45106765247444, 0.4272906956197106, 0.1};
Point(p13 + 5) = {11.38628842546123, 0.503137425461229, 0.1};
Point(p13 + 6) = {11.31044169561971, 0.5679166524744352, 0.1};
Point(p13 + 7) = {11.22539506115944, 0.6200332971003359, 0.1};
Point(p13 + 8) = {11.13324265247444, 0.6582040745830143, 0.1};
Point(p13 + 9) = {11.03625356770282, 0.6814890936992993, 0.1};
Point(p13 + 10) = {10.936816, 0.689315, 0.1};
Point(p13 + 11) = {10.83737843229718, 0.6814890936992992, 0.1};
Point(p13 + 12) = {10.74038934752556, 0.6582040745830144, 0.1};
Point(p13 + 13) = {10.64823693884056, 0.6200332971003361, 0.1};
Point(p13 + 14) = {10.56319030438029, 0.5679166524744353, 0.1};
Point(p13 + 15) = {10.48734357453877, 0.503137425461229, 0.1};
Point(p13 + 16) = {10.42256434752557, 0.4272906956197107, 0.1};
Point(p13 + 17) = {10.37044770289966, 0.342244061159443, 0.1};
Point(p13 + 18) = {10.33227692541699, 0.2500916524744354, 0.1};
Point(p13 + 19) = {10.3089919063007, 0.1531025677028228, 0.1};
Point(p13 + 20) = {10.301166, 0.05366500000000007, 0.1};
Point(p13 + 21) = {10.3089919063007, -0.0457725677028227, 0.1};
Point(p13 + 22) = {10.33227692541699, -0.1427616524744355, 0.1};
Point(p13 + 23) = {10.37044770289966, -0.2349140611594427, 0.1};
Point(p13 + 24) = {10.42256434752557, -0.3199606956197105, 0.1};
Point(p13 + 25) = {10.48734357453877, -0.3958074254612289, 0.1};
Point(p13 + 26) = {10.56319030438029, -0.4605866524744353, 0.1};
Point(p13 + 27) = {10.64823693884056, -0.512703297100336, 0.1};
Point(p13 + 28) = {10.74038934752556, -0.5508740745830144, 0.1};
Point(p13 + 29) = {10.83737843229718, -0.5741590936992993, 0.1};
Point(p13 + 30) = {10.936816, -0.5819850000000001, 0.1};
Point(p13 + 31) = {11.03625356770282, -0.5741590936992994, 0.1};
Point(p13 + 32) = {11.13324265247444, -0.5508740745830145, 0.1};
Point(p13 + 33) = {11.22539506115944, -0.5127032971003362, 0.1};
Point(p13 + 34) = {11.31044169561971, -0.4605866524744355, 0.1};
Point(p13 + 35) = {11.38628842546123, -0.395807425461229, 0.1};
Point(p13 + 36) = {11.45106765247444, -0.3199606956197106, 0.1};
Point(p13 + 37) = {11.50318429710034, -0.234914061159443, 0.1};
Point(p13 + 38) = {11.54135507458301, -0.1427616524744355, 0.1};
Point(p13 + 39) = {11.5646400936993, -0.04577256770282292, 0.1};
Spline(13) = {9, p13 + 1, p13 + 2, p13 + 3, p13 + 4, p13 + 5, p13 + 6, p13 + 7, p13 + 8, p13 + 9, p13 + 10, p13 + 11, p13 + 12, p13 + 13, p13 + 14, p13 + 15, p13 + 16, p13 + 17, p13 + 18, p13 + 19, p13 + 20, p13 + 21, p13 + 22, p13 + 23, p13 + 24, p13 + 25, p13 + 26, p13 + 27, p13 + 28, p13 + 29, p13 + 30, p13 + 31, p13 + 32, p13 + 33, p13 + 34, p13 + 35, p13 + 36, p13 + 37, p13 + 38, p13 + 39, 9};
Line(14) = {10, 9};
p15 = newp;
Point(p15 + 1) = {11.5646400936993, 0.1531025677028228, 0};
Point(p15 + 2) = {11.54135507458301, 0.2500916524744353, 0};
Point(p15 + 3) = {11.50318429710034, 0.3422440611594429, 0};
Point(p15 + 4) = {11.45106765247444, 0.4272906956197106, 0};
Point(p15 + 5) = {11.38628842546123, 0.503137425461229, 0};
Point(p15 + 6) = {11.31044169561971, 0.5679166524744352, 0};
Point(p15 + 7) = {11.22539506115944, 0.6200332971003359, 0};
Point(p15 + 8) = {11.13324265247444, 0.6582040745830143, 0};
Point(p15 + 9) = {11.03625356770282, 0.6814890936992993, 0};
Point(p15 + 10) = {10.936816, 0.689315, 0};
Point(p15 + 11) = {10.83737843229718, 0.6814890936992992, 0};
Point(p15 + 12) = {10.74038934752556, 0.6582040745830144, 0};
Point(p15 + 13) = {10.64823693884056, 0.6200332971003361, 0};
Point(p15 + 14) = {10.56319030438029, 0.5679166524744353, 0};
Point(p15 + 15) = {10.48734357453877, 0.503137425461229, 0};
Point(p15 + 16) = {10.42256434752557, 0.4272906956197107, 0};
Point(p15 + 17) = {10.37044770289966, 0.342244061159443, 0};
Point(p15 + 18) = {10.33227692541699, 0.2500916524744354, 0};
Point(p15 + 19) = {10.3089919063007, 0.1531025677028228, 0};
Point(p15 + 20) = {10.301166, 0.05366500000000007, 0};
Point(p15 + 21) = {10.3089919063007, -0.0457725677028227, 0};
Point(p15 + 22) = {10.33227692541699, -0.1427616524744355, 0};
Point(p15 + 23) = {10.37044770289966, -0.2349140611594427, 0};
Point(p15 + 24) = {10.42256434752557, -0.3199606956197105, 0};
Point(p15 + 25) = {10.48734357453877, -0.3958074254612289, 0};
Point(p15 + 26) = {10.56319030438029, -0.4605866524744353, 0};
Point(p15 + 27) = {10.64823693884056, -0.512703297100336, 0};
Point(p15 + 28) = {10.74038934752556, -0.5508740745830144, 0};
Point(p15 + 29) = {10.83737843229718, -0.5741590936992993, 0};
Point(p15 + 30) = {10.936816, -0.5819850000000001, 0};
Point(p15 + 31) = {11.03625356770282, -0.5741590936992994, 0};
Point(p15 + 32) = {11.13324265247444, -0.5508740745830145, 0};
Point(p15 + 33) = {11.22539506115944, -0.5127032971003362, 0};
Point(p15 + 34) = {11.31044169561971, -0.4605866524744355, 0};
Point(p15 + 35) = {11.38628842546123, -0.395807425461229, 0};
Point(p15 + 36) = {11.45106765247444, -0.3199606956197106, 0};
Point(p15 + 37) = {11.50318429710034, -0.234914061159443, 0};
Point(p15 + 38) = {11.54135507458301, -0.1427616524744355, 0};
Point(p15 + 39) = {11.5646400936993, -0.04577256770282292, 0};
Spline(15) = {10, p15 + 1, p15 + 2, p15 + 3, p15 + 4, p15 + 5, p15 + 6, p15 + 7, p15 + 8, p15 + 9, p15 + 10, p15 + 11, p15 + 12, p15 + 13, p15 + 14, p15 + 15, p15 + 16, p15 + 17, p15 + 18, p15 + 19, p15 + 20, p15 + 21, p15 + 22, p15 + 23, p15 + 24, p15 + 25, p15 + 26, p15 + 27, p15 + 28, p15 + 29, p15 + 30, p15 + 31, p15 + 32, p15 + 33, p15 + 34, p15 + 35, p15 + 36, p15 + 37, p15 + 38, p15 + 39, 10};
p16 = newp;
Point(p16 + 1) = {30.44776277238111, 3.0784986974141, 0.1};
Point(p16 + 2) = {30.42838644218129, 3.15920692114064, 0.1};
Point(p16 + 3) = {30.39662311895639, 3.235890366856234, 0.1};
Point(p16 + 4) = {30.35325492114064, 3.306660833629599, 0.1};
Point(p16 + 5) = {30.29934971769506, 3.369775717695062, 0.1};
Point(p16 + 6) = {30.2362348336296, 3.42368092114064, 0.1};
Point(p16 + 7) = {30.16546436685623, 3.467049118956389, 0.1};
Point(p16 + 8) = {30.08878092114064, 3.498812442181289, 0.1};
Point(p16 + 9) = {30.0080726974141, 3.518188772381117, 0.1};
Point(p16 + 10) = {29.925327, 3.524701, 0.1};
Point(p16 + 11) = {29.8425813025859, 3.518188772381117, 0.1};
Point(p16 + 12) = {29.76187307885936, 3.498812442181289, 0.1};
Point(p16 + 13) = {29.68518963314376, 3.467049118956389, 0.1};
Point(p16 + 14) = {29.6144191663704, 3.42368092114064, 0.1};
Point(p16 + 15) = {29.55130428230494, 3.369775717695062, 0.1};
Point(p16 + 16) = {29.49739907885936, 3.306660833629599, 0.1};
Point(p16 + 17) = {29.45403088104361, 3.235890366856234, 0.1};
Point(p16 + 18) = {29.42226755781871, 3.15920692114064, 0.1};
Point(p16 + 19) = {29.40289122761888, 3.0784986974141, 0.1};
Point(p16 + 20) = {29.396379, 2.995753, 0.1};
Point(p16 + 21) = {29.40289122761888, 2.9130073025859, 0.1};
Point(p16 + 22) = {29.42226755781871, 2.83229907885936, 0.1};
Point(p16 + 23) = {29.45403088104361, 2.755615633143766, 0.1};
Point(p16 + 24) = {29.49739907885936, 2.684845166370401, 0.1};
Point(p16 + 25) = {29.55130428230494, 2.621730282304938, 0.1};
Point(p16 + 26) = {29.6144191663704, 2.56782507885936, 0.1};
Point(p16 + 27) = {29.68518963314376, 2.524456881043611, 0.1};
Point(p16 + 28) = {29.76187307885936, 2.492693557818711, 0.1};
Point(p16 + 29) = {29.8425813025859, 2.473317227618884, 0.1};
Point(p16 + 30) = {29.925327, 2.466805, 0.1};
Point(p16 + 31) = {30.0080726974141, 2.473317227618883, 0.1};
Point(p16 + 32) = {30.08878092114064, 2.492693557818711, 0.1};
Point(p16 + 33) = {30.16546436685623, 2.524456881043611, 0.1};
Point(p16 + 34) = {30.2362348336296, 2.56782507885936, 0.1};
Point(p16 + 35) = {30.29934971769506, 2.621730282304938, 0.1};
Point(p16 + 36) = {30.35325492114064, 2.684845166370401, 0.1};
Point(p16 + 37) = {30.39662311895639, 2.755615633143766, 0.1};
Point(p16 + 38) = {30.42838644218129, 2.83229907885936, 0.1};
Point(p16 + 39) = {30.44776277238111, 2.9130073025859, 0.1};
Spline(16) = {11, p16 + 1, p16 + 2, p16 + 3, p16 + 4, p16 + 5, p16 + 6, p16 + 7, p16 + 8, p16 + 9, p16 + 10, p16 + 11, p16 + 12, p16 + 13, p16 + 14, p16 + 15, p16 + 16, p16 + 17, p16 + 18, p16 + 19, p16 + 20, p16 + 21, p16 + 22, p16 + 23, p16 + 24, p16 + 25, p16 + 26, p16 + 27, p16 + 28, p16 + 29, p16 + 30, p16 + 31, p16 + 32, p16 + 33, p16 + 34, p16 + 35, p16 + 36, p16 + 37, p16 + 38, p16 + 39, 11};
Line(17) = {12, 11};
p18 = newp;
Point(p18 + 1) = {30.44776277238111, 3.0784986974141, 0};
Point(p18 + 2) = {30.42838644218129, 3.15920692114064, 0};
Point(p18 + 3) = {30.39662311895639, 3.235890366856234, 0};
Point(p18 + 4) = {30.35325492114064, 3.306660833629599, 0};
Point(p18 + 5) = {30.29934971769506, 3.369775717695062, 0};
Point(p18 + 6) = {30.2362348336296, 3.42368092114064, 0};
Point(p18 + 7) = {30.16546436685623, 3.467049118956389, 0};
Point(p18 + 8) = {30.08878092114064, 3.498812442181289, 0};
Point(p18 + 9) = {30.0080726974141, 3.518188772381117, 0};
Point(p18 + 10) = {29.925327, 3.524701, 0};
Point(p18 + 11) = {29.8425813025859, 3.518188772381117, 0};
Point(p18 + 12) = {29.76187307885936, 3.498812442181289, 0};
Point(p18 + 13) = {29.68518963314376, 3.467049118956389, 0};
Point(p18 + 14) = {29.6144191663704, 3.42368092114064, 0};
Point(p18 + 15) = {29.55130428230494, 3.369775717695062, 0};
Point(p18 + 16) = {29.49739907885936, 3.306660833629599, 0};
Point(p18 + 17) = {29.45403088104361, 3.235890366856234, 0};
Point(p18 + 18) = {29.42226755781871, 3.15920692114064, 0};
Point(p18 + 19) = {29.40289122761888, 3.0784986974141, 0};
Point(p18 + 20) = {29.396379, 2.995753, 0};
Point(p18 + 21) = {29.40289122761888, 2.9130073025859, 0};
Point(p18 + 22) = {29.42226755781871, 2.83229907885936, 0};
Point(p18 + 23) = {29.45403088104361, 2.755615633143766, 0};
Point(p18 + 24) = {29.49739907885936, 2.684845166370401, 0};
Point(p18 + 25) = {29.55130428230494, 2.621730282304938, 0};
Point(p18 + 26) = {29.6144191663704, 2.56782507885936, 0};
Point(p18 + 27) = {29.68518963314376, 2.524456881043611, 0};
Point(p18 + 28) = {29.76187307885936, 2.492693557818711, 0};
Point(p18 + 29) = {29.8425813025859, 2.473317227618884, 0};
Point(p18 + 30) = {29.925327, 2.466805, 0};
Point(p18 + 31) = {30.0080726974141, 2.473317227618883, 0};
Point(p18 + 32) = {30.08878092114064, 2.492693557818711, 0};
Point(p18 + 33) = {30.16546436685623, 2.524456881043611, 0};
Point(p18 + 34) = {30.2362348336296, 2.56782507885936, 0};
Point(p18 + 35) = {30.29934971769506, 2.621730282304938, 0};
Point(p18 + 36) = {30.35325492114064, 2.684845166370401, 0};
Point(p18 + 37) = {30.39662311895639, 2.755615633143766, 0};
Point(p18 + 38) = {30.42838644218129, 2.83229907885936, 0};
Point(p18 + 39) = {30.44776277238111, 2.9130073025859, 0};
Spline(18) = {12, p18 + 1, p18 + 2, p18 + 3, p18 + 4, p18 + 5, p18 + 6, p18 + 7, p18 + 8, p18 + 9, p18 + 10, p18 + 11, p18 + 12, p18 + 13, p18 + 14, p18 + 15, p18 + 16, p18 + 17, p18 + 18, p18 + 19, p18 + 20, p18 + 21, p18 + 22, p18 + 23, p18 + 24, p18 + 25, p18 + 26, p18 + 27, p18 + 28, p18 + 29, p18 + 30, p18 + 31, p18 + 32, p18 + 33, p18 + 34, p18 + 35, p18 + 36, p18 + 37, p18 + 38, p18 + 39, 12};
Line(19) = {14, 13};
Line(20) = {13, 15};
Line(21) = {16, 15};
Line(22) = {14, 16};
Line(23) = {14, 17};
Line(24) = {17, 18};
Line(25) = {13, 18};
Line(26) = {15, 19};
Line(27) = {18, 19};
Line(28) = {16, 20};
Line(29) = {20, 19};
Line(30) = {17, 20};
Curve Loop(7) = {-13, -14, 15, 14};
Surface(7) = {7};
Curve Loop(8) = {13};
Plane Surface(8) = {8};
Curve Loop(9) = {15};
Plane Surface(9) = {9};
Curve Loop(10) = {-16, -17, 18, 17};
Surface(10) = {10};
Curve Loop(11) = {16};
Plane Surface(11) = {11};
Curve Loop(12) = {18};
Plane Surface(12) = {12};
Curve Loop(13) = {-19, 22, 21, -20};
Plane Surface(13) = {13};
Curve Loop(14) = {-23, 19, 25, -24};
Plane Surface(14) = {14};
Curve Loop(15) = {-20, 25, 27, -26, -13, -16};
Plane Surface(15) = {15};
Curve Loop(16) = {-28, 21, 26, -29};
Plane Surface(16) = {16};
Curve Loop(17) = {-22, 23, 30, -28, -15, -18};
Plane Surface(17) = {17};
Curve Loop(18) = {-24, 30, 29, -27};
Plane Surface(18) = {18};
Surface Loop(1) = {13, 14, 15, 16, 17, 18, 7, 10};
Volume(1) = {1};
Surface Loop(2) = {7, 8, 9};
Volume(2) = {2};
Surface Loop(3) = {10, 11, 12};
Volume(3) = {3};
Physical Surface("WALLS") = {13, 18};
Physical Surface("LOAD") = {8, 11};
Physical Surface("BORDER") = {7, 9, 10, 12, 14, 15, 16, 17};
Physical Volume("SOLID") = {1, 2, 3};
