cl__1 = 0.09505;
cl__2 = 0.054857;
cl__3 = 1.284228;
cl__4 = 1.334329;
cl__5 = 0.926002;
cl__6 = 0.886121;
Point(9) = {22.835365, 2.114409, 0.1, cl__1};
Point(10) = {22.835365, 2.114409, 0, cl__1};
Point(11) = {19.088975, 0.2359129999999999, 0.1, cl__2};
Point(12) = {19.088975, 0.2359129999999999, 0, cl__2};
Point(13) = {0.457046, -3.103287, 1, cl__3};
Point(14) = {0.457046, -3.103287, 0, cl__3};
Point(15) = {0.457046, 4.666127, 1, cl__4};
Point(16) = {0.457046, 4.666127, 0, cl__4};
Point(17) = {37.167879, -3.103287, 0, cl__5};
Point(18) = {37.167879, -3.103287, 1, cl__5};
Point(19) = {37.167879, 4.666127, 1, cl__6};
Point(20) = {37.167879, 4.666127, 0, cl__6};
p13 = newp;
Point(p13 + 1) = {22.82366270617738, 2.263100741193065, 0.1};
Point(p13 + 2) = {22.78884397402112, 2.40813119823836, 0.1};
Point(p13 + 3) = {22.73176615627366, 2.545929239954938, 0.1};
Point(p13 + 4) = {22.65383469823836, 2.673101821230258, 0.1};
Point(p13 + 5) = {22.55696853105172, 2.786517531051719, 0.1};
Point(p13 + 6) = {22.44355282123026, 2.88338369823836, 0.1};
Point(p13 + 7) = {22.31638023995494, 2.961315156273665, 0.1};
Point(p13 + 8) = {22.17858219823836, 3.018392974021125, 0.1};
Point(p13 + 9) = {22.03355174119307, 3.053211706177382, 0.1};
Point(p13 + 10) = {21.88486, 3.064914, 0.1};
Point(p13 + 11) = {21.73616825880693, 3.053211706177382, 0.1};
Point(p13 + 12) = {21.59113780176164, 3.018392974021125, 0.1};
Point(p13 + 13) = {21.45333976004506, 2.961315156273665, 0.1};
Point(p13 + 14) = {21.32616717876974, 2.88338369823836, 0.1};
Point(p13 + 15) = {21.21275146894828, 2.78651753105172, 0.1};
Point(p13 + 16) = {21.11588530176164, 2.673101821230258, 0.1};
Point(p13 + 17) = {21.03795384372633, 2.545929239954938, 0.1};
Point(p13 + 18) = {20.98087602597888, 2.40813119823836, 0.1};
Point(p13 + 19) = {20.94605729382262, 2.263100741193065, 0.1};
Point(p13 + 20) = {20.934355, 2.114409, 0.1};
Point(p13 + 21) = {20.94605729382262, 1.965717258806936, 0.1};
Point(p13 + 22) = {20.98087602597888, 1.82068680176164, 0.1};
Point(p13 + 23) = {21.03795384372633, 1.682888760045063, 0.1};
Point(p13 + 24) = {21.11588530176164, 1.555716178769743, 0.1};
Point(p13 + 25) = {21.21275146894828, 1.442300468948281, 0.1};
Point(p13 + 26) = {21.32616717876974, 1.345434301761641, 0.1};
Point(p13 + 27) = {21.45333976004506, 1.267502843726336, 0.1};
Point(p13 + 28) = {21.59113780176164, 1.210425025978875, 0.1};
Point(p13 + 29) = {21.73616825880693, 1.175606293822619, 0.1};
Point(p13 + 30) = {21.88486, 1.163904, 0.1};
Point(p13 + 31) = {22.03355174119307, 1.175606293822619, 0.1};
Point(p13 + 32) = {22.17858219823836, 1.210425025978875, 0.1};
Point(p13 + 33) = {22.31638023995494, 1.267502843726335, 0.1};
Point(p13 + 34) = {22.44355282123026, 1.345434301761641, 0.1};
Point(p13 + 35) = {22.55696853105172, 1.442300468948281, 0.1};
Point(p13 + 36) = {22.65383469823836, 1.555716178769743, 0.1};
Point(p13 + 37) = {22.73176615627366, 1.682888760045062, 0.1};
Point(p13 + 38) = {22.78884397402112, 1.820686801761641, 0.1};
Point(p13 + 39) = {22.82366270617738, 1.965717258806935, 0.1};
Spline(13) = {9, p13 + 1, p13 + 2, p13 + 3, p13 + 4, p13 + 5, p13 + 6, p13 + 7, p13 + 8, p13 + 9, p13 + 10, p13 + 11, p13 + 12, p13 + 13, p13 + 14, p13 + 15, p13 + 16, p13 + 17, p13 + 18, p13 + 19, p13 + 20, p13 + 21, p13 + 22, p13 + 23, p13 + 24, p13 + 25, p13 + 26, p13 + 27, p13 + 28, p13 + 29, p13 + 30, p13 + 31, p13 + 32, p13 + 33, p13 + 34, p13 + 35, p13 + 36, p13 + 37, p13 + 38, p13 + 39, 9};
Line(14) = {10, 9};
p15 = newp;
Point(p15 + 1) = {22.82366270617738, 2.263100741193065, 0};
Point(p15 + 2) = {22.78884397402112, 2.40813119823836, 0};
Point(p15 + 3) = {22.73176615627366, 2.545929239954938, 0};
Point(p15 + 4) = {22.65383469823836, 2.673101821230258, 0};
Point(p15 + 5) = {22.55696853105172, 2.786517531051719, 0};
Point(p15 + 6) = {22.44355282123026, 2.88338369823836, 0};
Point(p15 + 7) = {22.31638023995494, 2.961315156273665, 0};
Point(p15 + 8) = {22.17858219823836, 3.018392974021125, 0};
Point(p15 + 9) = {22.03355174119307, 3.053211706177382, 0};
Point(p15 + 10) = {21.88486, 3.064914, 0};
Point(p15 + 11) = {21.73616825880693, 3.053211706177382, 0};
Point(p15 + 12) = {21.59113780176164, 3.018392974021125, 0};
Point(p15 + 13) = {21.45333976004506, 2.961315156273665, 0};
Point(p15 + 14) = {21.32616717876974, 2.88338369823836, 0};
Point(p15 + 15) = {21.21275146894828, 2.78651753105172, 0};
Point(p15 + 16) = {21.11588530176164, 2.673101821230258, 0};
Point(p15 + 17) = {21.03795384372633, 2.545929239954938, 0};
Point(p15 + 18) = {20.98087602597888, 2.40813119823836, 0};
Point(p15 + 19) = {20.94605729382262, 2.263100741193065, 0};
Point(p15 + 20) = {20.934355, 2.114409, 0};
Point(p15 + 21) = {20.94605729382262, 1.965717258806936, 0};
Point(p15 + 22) = {20.98087602597888, 1.82068680176164, 0};
Point(p15 + 23) = {21.03795384372633, 1.682888760045063, 0};
Point(p15 + 24) = {21.11588530176164, 1.555716178769743, 0};
Point(p15 + 25) = {21.21275146894828, 1.442300468948281, 0};
Point(p15 + 26) = {21.32616717876974, 1.345434301761641, 0};
Point(p15 + 27) = {21.45333976004506, 1.267502843726336, 0};
Point(p15 + 28) = {21.59113780176164, 1.210425025978875, 0};
Point(p15 + 29) = {21.73616825880693, 1.175606293822619, 0};
Point(p15 + 30) = {21.88486, 1.163904, 0};
Point(p15 + 31) = {22.03355174119307, 1.175606293822619, 0};
Point(p15 + 32) = {22.17858219823836, 1.210425025978875, 0};
Point(p15 + 33) = {22.31638023995494, 1.267502843726335, 0};
Point(p15 + 34) = {22.44355282123026, 1.345434301761641, 0};
Point(p15 + 35) = {22.55696853105172, 1.442300468948281, 0};
Point(p15 + 36) = {22.65383469823836, 1.555716178769743, 0};
Point(p15 + 37) = {22.73176615627366, 1.682888760045062, 0};
Point(p15 + 38) = {22.78884397402112, 1.820686801761641, 0};
Point(p15 + 39) = {22.82366270617738, 1.965717258806935, 0};
Spline(15) = {10, p15 + 1, p15 + 2, p15 + 3, p15 + 4, p15 + 5, p15 + 6, p15 + 7, p15 + 8, p15 + 9, p15 + 10, p15 + 11, p15 + 12, p15 + 13, p15 + 14, p15 + 15, p15 + 16, p15 + 17, p15 + 18, p15 + 19, p15 + 20, p15 + 21, p15 + 22, p15 + 23, p15 + 24, p15 + 25, p15 + 26, p15 + 27, p15 + 28, p15 + 29, p15 + 30, p15 + 31, p15 + 32, p15 + 33, p15 + 34, p15 + 35, p15 + 36, p15 + 37, p15 + 38, p15 + 39, 10};
p16 = newp;
Point(p16 + 1) = {19.08222116837696, 0.3217285673560495, 0.1};
Point(p16 + 2) = {19.06212597525707, 0.4054310706382537, 0.1};
Point(p16 + 3) = {19.02918423098706, 0.4849594764231226, 0.1};
Point(p16 + 4) = {18.98420707063826, 0.5583555314205866, 0.1};
Point(p16 + 5) = {18.92830198116907, 0.6238119811690667, 0.1};
Point(p16 + 6) = {18.86284553142059, 0.6797170706382536, 0.1};
Point(p16 + 7) = {18.78944947642312, 0.7246942309870612, 0.1};
Point(p16 + 8) = {18.70992107063826, 0.7576359752570649, 0.1};
Point(p16 + 9) = {18.62621856735605, 0.7777311683769559, 0.1};
Point(p16 + 10) = {18.540403, 0.784485, 0.1};
Point(p16 + 11) = {18.45458743264395, 0.7777311683769559, 0.1};
Point(p16 + 12) = {18.37088492936175, 0.7576359752570651, 0.1};
Point(p16 + 13) = {18.29135652357688, 0.7246942309870613, 0.1};
Point(p16 + 14) = {18.21796046857941, 0.6797170706382536, 0.1};
Point(p16 + 15) = {18.15250401883094, 0.6238119811690668, 0.1};
Point(p16 + 16) = {18.09659892936175, 0.5583555314205866, 0.1};
Point(p16 + 17) = {18.05162176901294, 0.4849594764231226, 0.1};
Point(p16 + 18) = {18.01868002474293, 0.4054310706382537, 0.1};
Point(p16 + 19) = {17.99858483162305, 0.3217285673560496, 0.1};
Point(p16 + 20) = {17.991831, 0.2359130000000001, 0.1};
Point(p16 + 21) = {17.99858483162305, 0.1500974326439505, 0.1};
Point(p16 + 22) = {18.01868002474293, 0.06639492936174621, 0.1};
Point(p16 + 23) = {18.05162176901294, -0.01313347642312235, 0.1};
Point(p16 + 24) = {18.09659892936175, -0.08652953142058648, 0.1};
Point(p16 + 25) = {18.15250401883094, -0.1519859811690667, 0.1};
Point(p16 + 26) = {18.21796046857941, -0.2078910706382535, 0.1};
Point(p16 + 27) = {18.29135652357688, -0.2528682309870612, 0.1};
Point(p16 + 28) = {18.37088492936175, -0.2858099752570649, 0.1};
Point(p16 + 29) = {18.45458743264395, -0.3059051683769558, 0.1};
Point(p16 + 30) = {18.540403, -0.3126589999999999, 0.1};
Point(p16 + 31) = {18.62621856735605, -0.3059051683769558, 0.1};
Point(p16 + 32) = {18.70992107063826, -0.285809975257065, 0.1};
Point(p16 + 33) = {18.78944947642312, -0.2528682309870613, 0.1};
Point(p16 + 34) = {18.86284553142059, -0.2078910706382537, 0.1};
Point(p16 + 35) = {18.92830198116907, -0.1519859811690668, 0.1};
Point(p16 + 36) = {18.98420707063826, -0.08652953142058659, 0.1};
Point(p16 + 37) = {19.02918423098706, -0.01313347642312274, 0.1};
Point(p16 + 38) = {19.06212597525707, 0.06639492936174626, 0.1};
Point(p16 + 39) = {19.08222116837696, 0.1500974326439504, 0.1};
Spline(16) = {11, p16 + 1, p16 + 2, p16 + 3, p16 + 4, p16 + 5, p16 + 6, p16 + 7, p16 + 8, p16 + 9, p16 + 10, p16 + 11, p16 + 12, p16 + 13, p16 + 14, p16 + 15, p16 + 16, p16 + 17, p16 + 18, p16 + 19, p16 + 20, p16 + 21, p16 + 22, p16 + 23, p16 + 24, p16 + 25, p16 + 26, p16 + 27, p16 + 28, p16 + 29, p16 + 30, p16 + 31, p16 + 32, p16 + 33, p16 + 34, p16 + 35, p16 + 36, p16 + 37, p16 + 38, p16 + 39, 11};
Line(17) = {12, 11};
p18 = newp;
Point(p18 + 1) = {19.08222116837696, 0.3217285673560495, 0};
Point(p18 + 2) = {19.06212597525707, 0.4054310706382537, 0};
Point(p18 + 3) = {19.02918423098706, 0.4849594764231226, 0};
Point(p18 + 4) = {18.98420707063826, 0.5583555314205866, 0};
Point(p18 + 5) = {18.92830198116907, 0.6238119811690667, 0};
Point(p18 + 6) = {18.86284553142059, 0.6797170706382536, 0};
Point(p18 + 7) = {18.78944947642312, 0.7246942309870612, 0};
Point(p18 + 8) = {18.70992107063826, 0.7576359752570649, 0};
Point(p18 + 9) = {18.62621856735605, 0.7777311683769559, 0};
Point(p18 + 10) = {18.540403, 0.784485, 0};
Point(p18 + 11) = {18.45458743264395, 0.7777311683769559, 0};
Point(p18 + 12) = {18.37088492936175, 0.7576359752570651, 0};
Point(p18 + 13) = {18.29135652357688, 0.7246942309870613, 0};
Point(p18 + 14) = {18.21796046857941, 0.6797170706382536, 0};
Point(p18 + 15) = {18.15250401883094, 0.6238119811690668, 0};
Point(p18 + 16) = {18.09659892936175, 0.5583555314205866, 0};
Point(p18 + 17) = {18.05162176901294, 0.4849594764231226, 0};
Point(p18 + 18) = {18.01868002474293, 0.4054310706382537, 0};
Point(p18 + 19) = {17.99858483162305, 0.3217285673560496, 0};
Point(p18 + 20) = {17.991831, 0.2359130000000001, 0};
Point(p18 + 21) = {17.99858483162305, 0.1500974326439505, 0};
Point(p18 + 22) = {18.01868002474293, 0.06639492936174621, 0};
Point(p18 + 23) = {18.05162176901294, -0.01313347642312235, 0};
Point(p18 + 24) = {18.09659892936175, -0.08652953142058648, 0};
Point(p18 + 25) = {18.15250401883094, -0.1519859811690667, 0};
Point(p18 + 26) = {18.21796046857941, -0.2078910706382535, 0};
Point(p18 + 27) = {18.29135652357688, -0.2528682309870612, 0};
Point(p18 + 28) = {18.37088492936175, -0.2858099752570649, 0};
Point(p18 + 29) = {18.45458743264395, -0.3059051683769558, 0};
Point(p18 + 30) = {18.540403, -0.3126589999999999, 0};
Point(p18 + 31) = {18.62621856735605, -0.3059051683769558, 0};
Point(p18 + 32) = {18.70992107063826, -0.285809975257065, 0};
Point(p18 + 33) = {18.78944947642312, -0.2528682309870613, 0};
Point(p18 + 34) = {18.86284553142059, -0.2078910706382537, 0};
Point(p18 + 35) = {18.92830198116907, -0.1519859811690668, 0};
Point(p18 + 36) = {18.98420707063826, -0.08652953142058659, 0};
Point(p18 + 37) = {19.02918423098706, -0.01313347642312274, 0};
Point(p18 + 38) = {19.06212597525707, 0.06639492936174626, 0};
Point(p18 + 39) = {19.08222116837696, 0.1500974326439504, 0};
Spline(18) = {12, p18 + 1, p18 + 2, p18 + 3, p18 + 4, p18 + 5, p18 + 6, p18 + 7, p18 + 8, p18 + 9, p18 + 10, p18 + 11, p18 + 12, p18 + 13, p18 + 14, p18 + 15, p18 + 16, p18 + 17, p18 + 18, p18 + 19, p18 + 20, p18 + 21, p18 + 22, p18 + 23, p18 + 24, p18 + 25, p18 + 26, p18 + 27, p18 + 28, p18 + 29, p18 + 30, p18 + 31, p18 + 32, p18 + 33, p18 + 34, p18 + 35, p18 + 36, p18 + 37, p18 + 38, p18 + 39, 12};
Line(19) = {14, 13};
Line(20) = {13, 15};
Line(21) = {16, 15};
Line(22) = {14, 16};
Line(23) = {14, 17};
Line(24) = {17, 18};
Line(25) = {13, 18};
Line(26) = {15, 19};
Line(27) = {18, 19};
Line(28) = {16, 20};
Line(29) = {20, 19};
Line(30) = {17, 20};
Curve Loop(7) = {-13, -14, 15, 14};
Surface(7) = {7};
Curve Loop(8) = {13};
Plane Surface(8) = {8};
Curve Loop(9) = {15};
Plane Surface(9) = {9};
Curve Loop(10) = {-16, -17, 18, 17};
Surface(10) = {10};
Curve Loop(11) = {16};
Plane Surface(11) = {11};
Curve Loop(12) = {18};
Plane Surface(12) = {12};
Curve Loop(13) = {-19, 22, 21, -20};
Plane Surface(13) = {13};
Curve Loop(14) = {-23, 19, 25, -24};
Plane Surface(14) = {14};
Curve Loop(15) = {-20, 25, 27, -26};
Plane Surface(15) = {15};
Curve Loop(16) = {-28, 21, 26, -29};
Plane Surface(16) = {16};
Curve Loop(17) = {-22, 23, 30, -28, -18, -15};
Plane Surface(17) = {17};
Curve Loop(18) = {-24, 30, 29, -27};
Plane Surface(18) = {18};
Surface Loop(1) = {13, 14, 15, 16, 17, 18, 10, 7, 11, 8};
Volume(1) = {1};
Surface Loop(2) = {7, 8, 9};
Volume(2) = {2};
Surface Loop(3) = {10, 11, 12};
Volume(3) = {3};
Physical Surface("WALLS") = {13, 18};
Physical Surface("LOAD") = {8, 11};
Physical Surface("BORDER") = {7, 9, 10, 12, 14, 15, 16, 17};
Physical Volume("SOLID") = {1, 2, 3};
