cl__1 = 0.104705;
cl__2 = 0.053099;
cl__3 = 0.990671;
cl__4 = 0.935354;
cl__5 = 1.037658;
cl__6 = 1.196339;
Point(9) = {13.41804, 1.924732, 0.1, cl__1};
Point(10) = {13.41804, 1.924732, 0, cl__1};
Point(11) = {20.750026, -0.1432290000000001, 0.1, cl__2};
Point(12) = {20.750026, -0.1432290000000001, 0, cl__2};
Point(13) = {0.073709, -3.302634, 1, cl__3};
Point(14) = {0.073709, -3.302634, 0, cl__3};
Point(15) = {0.073709, 4.994158000000001, 1, cl__4};
Point(16) = {0.073709, 4.994158000000001, 0, cl__4};
Point(17) = {32.949086, -3.302634, 0, cl__5};
Point(18) = {32.949086, -3.302634, 1, cl__5};
Point(19) = {32.949086, 4.994158000000001, 1, cl__6};
Point(20) = {32.949086, 4.994158000000001, 0, cl__6};
p13 = newp;
Point(p13 + 1) = {13.40514912626678, 2.088526080882514, 0.1};
Point(p13 + 2) = {13.36679392116078, 2.248287007892311, 0.1};
Point(p13 + 3) = {13.30391881712533, 2.400080936790293, 0.1};
Point(p13 + 4) = {13.21807200789231, 2.540170197271825, 0.1};
Point(p13 + 5) = {13.11136732681425, 2.66510532681425, 0.1};
Point(p13 + 6) = {12.98643219727182, 2.771810007892311, 0.1};
Point(p13 + 7) = {12.84634293679029, 2.857656817125334, 0.1};
Point(p13 + 8) = {12.69454900789231, 2.920531921160775, 0.1};
Point(p13 + 9) = {12.53478808088251, 2.958887126266776, 0.1};
Point(p13 + 10) = {12.370994, 2.971778, 0.1};
Point(p13 + 11) = {12.20719991911749, 2.958887126266776, 0.1};
Point(p13 + 12) = {12.04743899210769, 2.920531921160776, 0.1};
Point(p13 + 13) = {11.89564506320971, 2.857656817125334, 0.1};
Point(p13 + 14) = {11.75555580272817, 2.771810007892311, 0.1};
Point(p13 + 15) = {11.63062067318575, 2.66510532681425, 0.1};
Point(p13 + 16) = {11.52391599210769, 2.540170197271825, 0.1};
Point(p13 + 17) = {11.43806918287467, 2.400080936790294, 0.1};
Point(p13 + 18) = {11.37519407883922, 2.248287007892311, 0.1};
Point(p13 + 19) = {11.33683887373322, 2.088526080882514, 0.1};
Point(p13 + 20) = {11.323948, 1.924732, 0.1};
Point(p13 + 21) = {11.33683887373322, 1.760937919117487, 0.1};
Point(p13 + 22) = {11.37519407883923, 1.601176992107689, 0.1};
Point(p13 + 23) = {11.43806918287467, 1.449383063209707, 0.1};
Point(p13 + 24) = {11.52391599210769, 1.309293802728175, 0.1};
Point(p13 + 25) = {11.63062067318575, 1.18435867318575, 0.1};
Point(p13 + 26) = {11.75555580272817, 1.077653992107689, 0.1};
Point(p13 + 27) = {11.89564506320971, 0.9918071828746664, 0.1};
Point(p13 + 28) = {12.04743899210769, 0.9289320788392249, 0.1};
Point(p13 + 29) = {12.20719991911749, 0.8905768737332236, 0.1};
Point(p13 + 30) = {12.370994, 0.8776860000000002, 0.1};
Point(p13 + 31) = {12.53478808088251, 0.8905768737332236, 0.1};
Point(p13 + 32) = {12.69454900789231, 0.9289320788392248, 0.1};
Point(p13 + 33) = {12.84634293679029, 0.9918071828746662, 0.1};
Point(p13 + 34) = {12.98643219727182, 1.077653992107689, 0.1};
Point(p13 + 35) = {13.11136732681425, 1.18435867318575, 0.1};
Point(p13 + 36) = {13.21807200789231, 1.309293802728175, 0.1};
Point(p13 + 37) = {13.30391881712533, 1.449383063209706, 0.1};
Point(p13 + 38) = {13.36679392116078, 1.601176992107689, 0.1};
Point(p13 + 39) = {13.40514912626678, 1.760937919117486, 0.1};
Spline(13) = {9, p13 + 1, p13 + 2, p13 + 3, p13 + 4, p13 + 5, p13 + 6, p13 + 7, p13 + 8, p13 + 9, p13 + 10, p13 + 11, p13 + 12, p13 + 13, p13 + 14, p13 + 15, p13 + 16, p13 + 17, p13 + 18, p13 + 19, p13 + 20, p13 + 21, p13 + 22, p13 + 23, p13 + 24, p13 + 25, p13 + 26, p13 + 27, p13 + 28, p13 + 29, p13 + 30, p13 + 31, p13 + 32, p13 + 33, p13 + 34, p13 + 35, p13 + 36, p13 + 37, p13 + 38, p13 + 39, 9};
Line(14) = {10, 9};
p15 = newp;
Point(p15 + 1) = {13.40514912626678, 2.088526080882514, 0};
Point(p15 + 2) = {13.36679392116078, 2.248287007892311, 0};
Point(p15 + 3) = {13.30391881712533, 2.400080936790293, 0};
Point(p15 + 4) = {13.21807200789231, 2.540170197271825, 0};
Point(p15 + 5) = {13.11136732681425, 2.66510532681425, 0};
Point(p15 + 6) = {12.98643219727182, 2.771810007892311, 0};
Point(p15 + 7) = {12.84634293679029, 2.857656817125334, 0};
Point(p15 + 8) = {12.69454900789231, 2.920531921160775, 0};
Point(p15 + 9) = {12.53478808088251, 2.958887126266776, 0};
Point(p15 + 10) = {12.370994, 2.971778, 0};
Point(p15 + 11) = {12.20719991911749, 2.958887126266776, 0};
Point(p15 + 12) = {12.04743899210769, 2.920531921160776, 0};
Point(p15 + 13) = {11.89564506320971, 2.857656817125334, 0};
Point(p15 + 14) = {11.75555580272817, 2.771810007892311, 0};
Point(p15 + 15) = {11.63062067318575, 2.66510532681425, 0};
Point(p15 + 16) = {11.52391599210769, 2.540170197271825, 0};
Point(p15 + 17) = {11.43806918287467, 2.400080936790294, 0};
Point(p15 + 18) = {11.37519407883922, 2.248287007892311, 0};
Point(p15 + 19) = {11.33683887373322, 2.088526080882514, 0};
Point(p15 + 20) = {11.323948, 1.924732, 0};
Point(p15 + 21) = {11.33683887373322, 1.760937919117487, 0};
Point(p15 + 22) = {11.37519407883923, 1.601176992107689, 0};
Point(p15 + 23) = {11.43806918287467, 1.449383063209707, 0};
Point(p15 + 24) = {11.52391599210769, 1.309293802728175, 0};
Point(p15 + 25) = {11.63062067318575, 1.18435867318575, 0};
Point(p15 + 26) = {11.75555580272817, 1.077653992107689, 0};
Point(p15 + 27) = {11.89564506320971, 0.9918071828746664, 0};
Point(p15 + 28) = {12.04743899210769, 0.9289320788392249, 0};
Point(p15 + 29) = {12.20719991911749, 0.8905768737332236, 0};
Point(p15 + 30) = {12.370994, 0.8776860000000002, 0};
Point(p15 + 31) = {12.53478808088251, 0.8905768737332236, 0};
Point(p15 + 32) = {12.69454900789231, 0.9289320788392248, 0};
Point(p15 + 33) = {12.84634293679029, 0.9918071828746662, 0};
Point(p15 + 34) = {12.98643219727182, 1.077653992107689, 0};
Point(p15 + 35) = {13.11136732681425, 1.18435867318575, 0};
Point(p15 + 36) = {13.21807200789231, 1.309293802728175, 0};
Point(p15 + 37) = {13.30391881712533, 1.449383063209706, 0};
Point(p15 + 38) = {13.36679392116078, 1.601176992107689, 0};
Point(p15 + 39) = {13.40514912626678, 1.760937919117486, 0};
Spline(15) = {10, p15 + 1, p15 + 2, p15 + 3, p15 + 4, p15 + 5, p15 + 6, p15 + 7, p15 + 8, p15 + 9, p15 + 10, p15 + 11, p15 + 12, p15 + 13, p15 + 14, p15 + 15, p15 + 16, p15 + 17, p15 + 18, p15 + 19, p15 + 20, p15 + 21, p15 + 22, p15 + 23, p15 + 24, p15 + 25, p15 + 26, p15 + 27, p15 + 28, p15 + 29, p15 + 30, p15 + 31, p15 + 32, p15 + 33, p15 + 34, p15 + 35, p15 + 36, p15 + 37, p15 + 38, p15 + 39, 10};
p16 = newp;
Point(p16 + 1) = {20.74348859503763, -0.06016339410489267, 0.1};
Point(p16 + 2) = {20.72403735275711, 0.02085686089413646, 0.1};
Point(p16 + 3) = {20.69215122729835, 0.09783677742820118, 0.1};
Point(p16 + 4) = {20.64861536089414, 0.1688808544705372, 0.1};
Point(p16 + 5) = {20.59450175106259, 0.2322397510625884, 0.1};
Point(p16 + 6) = {20.53114285447054, 0.2863533608941364, 0.1};
Point(p16 + 7) = {20.4600987774282, 0.329889227298354, 0.1};
Point(p16 + 8) = {20.38311886089414, 0.3617753527571125, 0.1};
Point(p16 + 9) = {20.30209860589511, 0.3812265950376341, 0.1};
Point(p16 + 10) = {20.219033, 0.3877640000000001, 0.1};
Point(p16 + 11) = {20.13596739410489, 0.381226595037634, 0.1};
Point(p16 + 12) = {20.05494713910586, 0.3617753527571125, 0.1};
Point(p16 + 13) = {19.9779672225718, 0.3298892272983541, 0.1};
Point(p16 + 14) = {19.90692314552946, 0.2863533608941365, 0.1};
Point(p16 + 15) = {19.84356424893741, 0.2322397510625885, 0.1};
Point(p16 + 16) = {19.78945063910586, 0.1688808544705373, 0.1};
Point(p16 + 17) = {19.74591477270165, 0.09783677742820124, 0.1};
Point(p16 + 18) = {19.71402864724289, 0.02085686089413652, 0.1};
Point(p16 + 19) = {19.69457740496237, -0.06016339410489262, 0.1};
Point(p16 + 20) = {19.68804, -0.1432289999999999, 0.1};
Point(p16 + 21) = {19.69457740496237, -0.2262946058951072, 0.1};
Point(p16 + 22) = {19.71402864724289, -0.3073148608941366, 0.1};
Point(p16 + 23) = {19.74591477270165, -0.384294777428201, 0.1};
Point(p16 + 24) = {19.78945063910586, -0.4553388544705372, 0.1};
Point(p16 + 25) = {19.84356424893741, -0.5186977510625884, 0.1};
Point(p16 + 26) = {19.90692314552946, -0.5728113608941364, 0.1};
Point(p16 + 27) = {19.9779672225718, -0.616347227298354, 0.1};
Point(p16 + 28) = {20.05494713910586, -0.6482333527571125, 0.1};
Point(p16 + 29) = {20.13596739410489, -0.667684595037634, 0.1};
Point(p16 + 30) = {20.219033, -0.6742220000000001, 0.1};
Point(p16 + 31) = {20.30209860589511, -0.667684595037634, 0.1};
Point(p16 + 32) = {20.38311886089414, -0.6482333527571125, 0.1};
Point(p16 + 33) = {20.4600987774282, -0.6163472272983541, 0.1};
Point(p16 + 34) = {20.53114285447054, -0.5728113608941365, 0.1};
Point(p16 + 35) = {20.59450175106259, -0.5186977510625885, 0.1};
Point(p16 + 36) = {20.64861536089414, -0.4553388544705373, 0.1};
Point(p16 + 37) = {20.69215122729835, -0.3842947774282013, 0.1};
Point(p16 + 38) = {20.72403735275711, -0.3073148608941366, 0.1};
Point(p16 + 39) = {20.74348859503763, -0.2262946058951074, 0.1};
Spline(16) = {11, p16 + 1, p16 + 2, p16 + 3, p16 + 4, p16 + 5, p16 + 6, p16 + 7, p16 + 8, p16 + 9, p16 + 10, p16 + 11, p16 + 12, p16 + 13, p16 + 14, p16 + 15, p16 + 16, p16 + 17, p16 + 18, p16 + 19, p16 + 20, p16 + 21, p16 + 22, p16 + 23, p16 + 24, p16 + 25, p16 + 26, p16 + 27, p16 + 28, p16 + 29, p16 + 30, p16 + 31, p16 + 32, p16 + 33, p16 + 34, p16 + 35, p16 + 36, p16 + 37, p16 + 38, p16 + 39, 11};
Line(17) = {12, 11};
p18 = newp;
Point(p18 + 1) = {20.74348859503763, -0.06016339410489267, 0};
Point(p18 + 2) = {20.72403735275711, 0.02085686089413646, 0};
Point(p18 + 3) = {20.69215122729835, 0.09783677742820118, 0};
Point(p18 + 4) = {20.64861536089414, 0.1688808544705372, 0};
Point(p18 + 5) = {20.59450175106259, 0.2322397510625884, 0};
Point(p18 + 6) = {20.53114285447054, 0.2863533608941364, 0};
Point(p18 + 7) = {20.4600987774282, 0.329889227298354, 0};
Point(p18 + 8) = {20.38311886089414, 0.3617753527571125, 0};
Point(p18 + 9) = {20.30209860589511, 0.3812265950376341, 0};
Point(p18 + 10) = {20.219033, 0.3877640000000001, 0};
Point(p18 + 11) = {20.13596739410489, 0.381226595037634, 0};
Point(p18 + 12) = {20.05494713910586, 0.3617753527571125, 0};
Point(p18 + 13) = {19.9779672225718, 0.3298892272983541, 0};
Point(p18 + 14) = {19.90692314552946, 0.2863533608941365, 0};
Point(p18 + 15) = {19.84356424893741, 0.2322397510625885, 0};
Point(p18 + 16) = {19.78945063910586, 0.1688808544705373, 0};
Point(p18 + 17) = {19.74591477270165, 0.09783677742820124, 0};
Point(p18 + 18) = {19.71402864724289, 0.02085686089413652, 0};
Point(p18 + 19) = {19.69457740496237, -0.06016339410489262, 0};
Point(p18 + 20) = {19.68804, -0.1432289999999999, 0};
Point(p18 + 21) = {19.69457740496237, -0.2262946058951072, 0};
Point(p18 + 22) = {19.71402864724289, -0.3073148608941366, 0};
Point(p18 + 23) = {19.74591477270165, -0.384294777428201, 0};
Point(p18 + 24) = {19.78945063910586, -0.4553388544705372, 0};
Point(p18 + 25) = {19.84356424893741, -0.5186977510625884, 0};
Point(p18 + 26) = {19.90692314552946, -0.5728113608941364, 0};
Point(p18 + 27) = {19.9779672225718, -0.616347227298354, 0};
Point(p18 + 28) = {20.05494713910586, -0.6482333527571125, 0};
Point(p18 + 29) = {20.13596739410489, -0.667684595037634, 0};
Point(p18 + 30) = {20.219033, -0.6742220000000001, 0};
Point(p18 + 31) = {20.30209860589511, -0.667684595037634, 0};
Point(p18 + 32) = {20.38311886089414, -0.6482333527571125, 0};
Point(p18 + 33) = {20.4600987774282, -0.6163472272983541, 0};
Point(p18 + 34) = {20.53114285447054, -0.5728113608941365, 0};
Point(p18 + 35) = {20.59450175106259, -0.5186977510625885, 0};
Point(p18 + 36) = {20.64861536089414, -0.4553388544705373, 0};
Point(p18 + 37) = {20.69215122729835, -0.3842947774282013, 0};
Point(p18 + 38) = {20.72403735275711, -0.3073148608941366, 0};
Point(p18 + 39) = {20.74348859503763, -0.2262946058951074, 0};
Spline(18) = {12, p18 + 1, p18 + 2, p18 + 3, p18 + 4, p18 + 5, p18 + 6, p18 + 7, p18 + 8, p18 + 9, p18 + 10, p18 + 11, p18 + 12, p18 + 13, p18 + 14, p18 + 15, p18 + 16, p18 + 17, p18 + 18, p18 + 19, p18 + 20, p18 + 21, p18 + 22, p18 + 23, p18 + 24, p18 + 25, p18 + 26, p18 + 27, p18 + 28, p18 + 29, p18 + 30, p18 + 31, p18 + 32, p18 + 33, p18 + 34, p18 + 35, p18 + 36, p18 + 37, p18 + 38, p18 + 39, 12};
Line(19) = {14, 13};
Line(20) = {13, 15};
Line(21) = {16, 15};
Line(22) = {14, 16};
Line(23) = {14, 17};
Line(24) = {17, 18};
Line(25) = {13, 18};
Line(26) = {15, 19};
Line(27) = {18, 19};
Line(28) = {16, 20};
Line(29) = {20, 19};
Line(30) = {17, 20};
Curve Loop(7) = {-13, -14, 15, 14};
Surface(7) = {7};
Curve Loop(8) = {13};
Plane Surface(8) = {8};
Curve Loop(9) = {15};
Plane Surface(9) = {9};
Curve Loop(10) = {-16, -17, 18, 17};
Surface(10) = {10};
Curve Loop(11) = {16};
Plane Surface(11) = {11};
Curve Loop(12) = {18};
Plane Surface(12) = {12};
Curve Loop(13) = {-19, 22, 21, -20};
Plane Surface(13) = {13};
Curve Loop(14) = {-23, 19, 25, -24};
Plane Surface(14) = {14};
Curve Loop(15) = {-20, 25, 27, -26};
Plane Surface(15) = {15};
Curve Loop(16) = {-28, 21, 26, -29};
Plane Surface(16) = {16};
Curve Loop(17) = {-22, 23, 30, -28, -18, -15};
Plane Surface(17) = {17};
Curve Loop(18) = {-24, 30, 29, -27};
Plane Surface(18) = {18};
Surface Loop(1) = {13, 14, 15, 16, 17, 18, 10, 7, 11, 8};
Volume(1) = {1};
Surface Loop(2) = {7, 8, 9};
Volume(2) = {2};
Surface Loop(3) = {10, 11, 12};
Volume(3) = {3};
Physical Surface("WALLS") = {13, 18};
Physical Surface("LOAD") = {8, 11};
Physical Surface("BORDER") = {7, 9, 10, 12, 14, 15, 16, 17};
Physical Volume("SOLID") = {1, 2, 3};
