cl__1 = 0.105713;
cl__2 = 0.061572;
cl__3 = 0.337399;
cl__4 = 0.9062170000000001;
cl__5 = 3.220845;
cl__6 = 2.09508;
Point(9) = {26.819048, 1.645153, 0.1, cl__1};
Point(10) = {26.819048, 1.645153, 0, cl__1};
Point(11) = {1.988136, -1.38121, 0.1, cl__2};
Point(12) = {1.988136, -1.38121, 0, cl__2};
Point(13) = {0.180849, -3.66302, 0.1, cl__3};
Point(14) = {0.180849, -3.66302, 0, cl__3};
Point(15) = {0.180849, 4.372665000000001, 0.1, cl__4};
Point(16) = {0.180849, 4.372665000000001, 0, cl__4};
Point(17) = {33.796151, -3.66302, 0, cl__5};
Point(18) = {33.796151, -3.66302, 0.1, cl__5};
Point(19) = {33.796151, 4.372665000000001, 0.1, cl__6};
Point(20) = {33.796151, 4.372665000000001, 0, cl__6};
p13 = newp;
Point(p13 + 1) = {26.80603295087002, 1.810524878896909, 0.1};
Point(p13 + 2) = {26.76730827718413, 1.971824753297577, 0.1};
Point(p13 + 3) = {26.7038275089283, 2.125080884970667, 0.1};
Point(p13 + 4) = {26.61715375329758, 2.266519599326447, 0.1};
Point(p13 + 5) = {26.5094212058093, 2.392658205809298, 0.1};
Point(p13 + 6) = {26.38328259932645, 2.500390753297577, 0.1};
Point(p13 + 7) = {26.24184388497067, 2.587064508928298, 0.1};
Point(p13 + 8) = {26.08858775329758, 2.650545277184128, 0.1};
Point(p13 + 9) = {25.92728787889691, 2.68926995087002, 0.1};
Point(p13 + 10) = {25.761916, 2.702285, 0.1};
Point(p13 + 11) = {25.59654412110309, 2.689269950870019, 0.1};
Point(p13 + 12) = {25.43524424670242, 2.650545277184128, 0.1};
Point(p13 + 13) = {25.28198811502933, 2.587064508928298, 0.1};
Point(p13 + 14) = {25.14054940067355, 2.500390753297577, 0.1};
Point(p13 + 15) = {25.0144107941907, 2.392658205809298, 0.1};
Point(p13 + 16) = {24.90667824670242, 2.266519599326447, 0.1};
Point(p13 + 17) = {24.8200044910717, 2.125080884970667, 0.1};
Point(p13 + 18) = {24.75652372281587, 1.971824753297577, 0.1};
Point(p13 + 19) = {24.71779904912998, 1.810524878896909, 0.1};
Point(p13 + 20) = {24.704784, 1.645153, 0.1};
Point(p13 + 21) = {24.71779904912998, 1.479781121103091, 0.1};
Point(p13 + 22) = {24.75652372281587, 1.318481246702423, 0.1};
Point(p13 + 23) = {24.8200044910717, 1.165225115029334, 0.1};
Point(p13 + 24) = {24.90667824670242, 1.023786400673554, 0.1};
Point(p13 + 25) = {25.0144107941907, 0.8976477941907028, 0.1};
Point(p13 + 26) = {25.14054940067355, 0.7899152467024233, 0.1};
Point(p13 + 27) = {25.28198811502933, 0.7032414910717025, 0.1};
Point(p13 + 28) = {25.43524424670242, 0.6397607228158719, 0.1};
Point(p13 + 29) = {25.59654412110309, 0.6010360491299811, 0.1};
Point(p13 + 30) = {25.761916, 0.5880210000000001, 0.1};
Point(p13 + 31) = {25.92728787889691, 0.6010360491299809, 0.1};
Point(p13 + 32) = {26.08858775329758, 0.6397607228158717, 0.1};
Point(p13 + 33) = {26.24184388497067, 0.7032414910717023, 0.1};
Point(p13 + 34) = {26.38328259932645, 0.7899152467024231, 0.1};
Point(p13 + 35) = {26.5094212058093, 0.8976477941907026, 0.1};
Point(p13 + 36) = {26.61715375329758, 1.023786400673553, 0.1};
Point(p13 + 37) = {26.7038275089283, 1.165225115029333, 0.1};
Point(p13 + 38) = {26.76730827718413, 1.318481246702423, 0.1};
Point(p13 + 39) = {26.80603295087002, 1.47978112110309, 0.1};
Spline(13) = {9, p13 + 1, p13 + 2, p13 + 3, p13 + 4, p13 + 5, p13 + 6, p13 + 7, p13 + 8, p13 + 9, p13 + 10, p13 + 11, p13 + 12, p13 + 13, p13 + 14, p13 + 15, p13 + 16, p13 + 17, p13 + 18, p13 + 19, p13 + 20, p13 + 21, p13 + 22, p13 + 23, p13 + 24, p13 + 25, p13 + 26, p13 + 27, p13 + 28, p13 + 29, p13 + 30, p13 + 31, p13 + 32, p13 + 33, p13 + 34, p13 + 35, p13 + 36, p13 + 37, p13 + 38, p13 + 39, 9};
Line(14) = {10, 9};
p15 = newp;
Point(p15 + 1) = {26.80603295087002, 1.810524878896909, 0};
Point(p15 + 2) = {26.76730827718413, 1.971824753297577, 0};
Point(p15 + 3) = {26.7038275089283, 2.125080884970667, 0};
Point(p15 + 4) = {26.61715375329758, 2.266519599326447, 0};
Point(p15 + 5) = {26.5094212058093, 2.392658205809298, 0};
Point(p15 + 6) = {26.38328259932645, 2.500390753297577, 0};
Point(p15 + 7) = {26.24184388497067, 2.587064508928298, 0};
Point(p15 + 8) = {26.08858775329758, 2.650545277184128, 0};
Point(p15 + 9) = {25.92728787889691, 2.68926995087002, 0};
Point(p15 + 10) = {25.761916, 2.702285, 0};
Point(p15 + 11) = {25.59654412110309, 2.689269950870019, 0};
Point(p15 + 12) = {25.43524424670242, 2.650545277184128, 0};
Point(p15 + 13) = {25.28198811502933, 2.587064508928298, 0};
Point(p15 + 14) = {25.14054940067355, 2.500390753297577, 0};
Point(p15 + 15) = {25.0144107941907, 2.392658205809298, 0};
Point(p15 + 16) = {24.90667824670242, 2.266519599326447, 0};
Point(p15 + 17) = {24.8200044910717, 2.125080884970667, 0};
Point(p15 + 18) = {24.75652372281587, 1.971824753297577, 0};
Point(p15 + 19) = {24.71779904912998, 1.810524878896909, 0};
Point(p15 + 20) = {24.704784, 1.645153, 0};
Point(p15 + 21) = {24.71779904912998, 1.479781121103091, 0};
Point(p15 + 22) = {24.75652372281587, 1.318481246702423, 0};
Point(p15 + 23) = {24.8200044910717, 1.165225115029334, 0};
Point(p15 + 24) = {24.90667824670242, 1.023786400673554, 0};
Point(p15 + 25) = {25.0144107941907, 0.8976477941907028, 0};
Point(p15 + 26) = {25.14054940067355, 0.7899152467024233, 0};
Point(p15 + 27) = {25.28198811502933, 0.7032414910717025, 0};
Point(p15 + 28) = {25.43524424670242, 0.6397607228158719, 0};
Point(p15 + 29) = {25.59654412110309, 0.6010360491299811, 0};
Point(p15 + 30) = {25.761916, 0.5880210000000001, 0};
Point(p15 + 31) = {25.92728787889691, 0.6010360491299809, 0};
Point(p15 + 32) = {26.08858775329758, 0.6397607228158717, 0};
Point(p15 + 33) = {26.24184388497067, 0.7032414910717023, 0};
Point(p15 + 34) = {26.38328259932645, 0.7899152467024231, 0};
Point(p15 + 35) = {26.5094212058093, 0.8976477941907026, 0};
Point(p15 + 36) = {26.61715375329758, 1.023786400673553, 0};
Point(p15 + 37) = {26.7038275089283, 1.165225115029333, 0};
Point(p15 + 38) = {26.76730827718413, 1.318481246702423, 0};
Point(p15 + 39) = {26.80603295087002, 1.47978112110309, 0};
Spline(15) = {10, p15 + 1, p15 + 2, p15 + 3, p15 + 4, p15 + 5, p15 + 6, p15 + 7, p15 + 8, p15 + 9, p15 + 10, p15 + 11, p15 + 12, p15 + 13, p15 + 14, p15 + 15, p15 + 16, p15 + 17, p15 + 18, p15 + 19, p15 + 20, p15 + 21, p15 + 22, p15 + 23, p15 + 24, p15 + 25, p15 + 26, p15 + 27, p15 + 28, p15 + 29, p15 + 30, p15 + 31, p15 + 32, p15 + 33, p15 + 34, p15 + 35, p15 + 36, p15 + 37, p15 + 38, p15 + 39, 10};
p16 = newp;
Point(p16 + 1) = {1.98055542813626, -1.284889701882034, 0.1};
Point(p16 + 2) = {1.958000371382801, -1.190941129172474, 0.1};
Point(p16 + 3) = {1.921026210092835, -1.101677607528867, 0.1};
Point(p16 + 4) = {1.870543370827526, -1.019297101102722, 0.1};
Point(p16 + 5) = {1.807794908632525, -0.9458280913674755, 0.1};
Point(p16 + 6) = {1.734325898897279, -0.8830796291724743, 0.1};
Point(p16 + 7) = {1.651945392471133, -0.8325967899071657, 0.1};
Point(p16 + 8) = {1.562681870827526, -0.7956226286171992, 0.1};
Point(p16 + 9) = {1.468733298117966, -0.77306757186374, 0.1};
Point(p16 + 10) = {1.372413, -0.765487, 0.1};
Point(p16 + 11) = {1.276092701882034, -0.7730675718637401, 0.1};
Point(p16 + 12) = {1.182144129172474, -0.7956226286171991, 0.1};
Point(p16 + 13) = {1.092880607528867, -0.8325967899071656, 0.1};
Point(p16 + 14) = {1.010500101102722, -0.8830796291724743, 0.1};
Point(p16 + 15) = {0.9370310913674755, -0.9458280913674755, 0.1};
Point(p16 + 16) = {0.8742826291724743, -1.019297101102722, 0.1};
Point(p16 + 17) = {0.8237997899071657, -1.101677607528867, 0.1};
Point(p16 + 18) = {0.7868256286171993, -1.190941129172474, 0.1};
Point(p16 + 19) = {0.7642705718637401, -1.284889701882034, 0.1};
Point(p16 + 20) = {0.7566900000000001, -1.38121, 0.1};
Point(p16 + 21) = {0.76427057186374, -1.477530298117966, 0.1};
Point(p16 + 22) = {0.7868256286171993, -1.571478870827526, 0.1};
Point(p16 + 23) = {0.8237997899071655, -1.660742392471133, 0.1};
Point(p16 + 24) = {0.8742826291724743, -1.743122898897278, 0.1};
Point(p16 + 25) = {0.9370310913674753, -1.816591908632525, 0.1};
Point(p16 + 26) = {1.010500101102722, -1.879340370827526, 0.1};
Point(p16 + 27) = {1.092880607528867, -1.929823210092835, 0.1};
Point(p16 + 28) = {1.182144129172474, -1.966797371382801, 0.1};
Point(p16 + 29) = {1.276092701882034, -1.98935242813626, 0.1};
Point(p16 + 30) = {1.372413, -1.996933, 0.1};
Point(p16 + 31) = {1.468733298117966, -1.98935242813626, 0.1};
Point(p16 + 32) = {1.562681870827526, -1.966797371382801, 0.1};
Point(p16 + 33) = {1.651945392471133, -1.929823210092835, 0.1};
Point(p16 + 34) = {1.734325898897279, -1.879340370827526, 0.1};
Point(p16 + 35) = {1.807794908632525, -1.816591908632525, 0.1};
Point(p16 + 36) = {1.870543370827526, -1.743122898897278, 0.1};
Point(p16 + 37) = {1.921026210092835, -1.660742392471133, 0.1};
Point(p16 + 38) = {1.958000371382801, -1.571478870827526, 0.1};
Point(p16 + 39) = {1.98055542813626, -1.477530298117966, 0.1};
Spline(16) = {11, p16 + 1, p16 + 2, p16 + 3, p16 + 4, p16 + 5, p16 + 6, p16 + 7, p16 + 8, p16 + 9, p16 + 10, p16 + 11, p16 + 12, p16 + 13, p16 + 14, p16 + 15, p16 + 16, p16 + 17, p16 + 18, p16 + 19, p16 + 20, p16 + 21, p16 + 22, p16 + 23, p16 + 24, p16 + 25, p16 + 26, p16 + 27, p16 + 28, p16 + 29, p16 + 30, p16 + 31, p16 + 32, p16 + 33, p16 + 34, p16 + 35, p16 + 36, p16 + 37, p16 + 38, p16 + 39, 11};
Line(17) = {12, 11};
p18 = newp;
Point(p18 + 1) = {1.98055542813626, -1.284889701882034, 0};
Point(p18 + 2) = {1.958000371382801, -1.190941129172474, 0};
Point(p18 + 3) = {1.921026210092835, -1.101677607528867, 0};
Point(p18 + 4) = {1.870543370827526, -1.019297101102722, 0};
Point(p18 + 5) = {1.807794908632525, -0.9458280913674755, 0};
Point(p18 + 6) = {1.734325898897279, -0.8830796291724743, 0};
Point(p18 + 7) = {1.651945392471133, -0.8325967899071657, 0};
Point(p18 + 8) = {1.562681870827526, -0.7956226286171992, 0};
Point(p18 + 9) = {1.468733298117966, -0.77306757186374, 0};
Point(p18 + 10) = {1.372413, -0.765487, 0};
Point(p18 + 11) = {1.276092701882034, -0.7730675718637401, 0};
Point(p18 + 12) = {1.182144129172474, -0.7956226286171991, 0};
Point(p18 + 13) = {1.092880607528867, -0.8325967899071656, 0};
Point(p18 + 14) = {1.010500101102722, -0.8830796291724743, 0};
Point(p18 + 15) = {0.9370310913674755, -0.9458280913674755, 0};
Point(p18 + 16) = {0.8742826291724743, -1.019297101102722, 0};
Point(p18 + 17) = {0.8237997899071657, -1.101677607528867, 0};
Point(p18 + 18) = {0.7868256286171993, -1.190941129172474, 0};
Point(p18 + 19) = {0.7642705718637401, -1.284889701882034, 0};
Point(p18 + 20) = {0.7566900000000001, -1.38121, 0};
Point(p18 + 21) = {0.76427057186374, -1.477530298117966, 0};
Point(p18 + 22) = {0.7868256286171993, -1.571478870827526, 0};
Point(p18 + 23) = {0.8237997899071655, -1.660742392471133, 0};
Point(p18 + 24) = {0.8742826291724743, -1.743122898897278, 0};
Point(p18 + 25) = {0.9370310913674753, -1.816591908632525, 0};
Point(p18 + 26) = {1.010500101102722, -1.879340370827526, 0};
Point(p18 + 27) = {1.092880607528867, -1.929823210092835, 0};
Point(p18 + 28) = {1.182144129172474, -1.966797371382801, 0};
Point(p18 + 29) = {1.276092701882034, -1.98935242813626, 0};
Point(p18 + 30) = {1.372413, -1.996933, 0};
Point(p18 + 31) = {1.468733298117966, -1.98935242813626, 0};
Point(p18 + 32) = {1.562681870827526, -1.966797371382801, 0};
Point(p18 + 33) = {1.651945392471133, -1.929823210092835, 0};
Point(p18 + 34) = {1.734325898897279, -1.879340370827526, 0};
Point(p18 + 35) = {1.807794908632525, -1.816591908632525, 0};
Point(p18 + 36) = {1.870543370827526, -1.743122898897278, 0};
Point(p18 + 37) = {1.921026210092835, -1.660742392471133, 0};
Point(p18 + 38) = {1.958000371382801, -1.571478870827526, 0};
Point(p18 + 39) = {1.98055542813626, -1.477530298117966, 0};
Spline(18) = {12, p18 + 1, p18 + 2, p18 + 3, p18 + 4, p18 + 5, p18 + 6, p18 + 7, p18 + 8, p18 + 9, p18 + 10, p18 + 11, p18 + 12, p18 + 13, p18 + 14, p18 + 15, p18 + 16, p18 + 17, p18 + 18, p18 + 19, p18 + 20, p18 + 21, p18 + 22, p18 + 23, p18 + 24, p18 + 25, p18 + 26, p18 + 27, p18 + 28, p18 + 29, p18 + 30, p18 + 31, p18 + 32, p18 + 33, p18 + 34, p18 + 35, p18 + 36, p18 + 37, p18 + 38, p18 + 39, 12};
Line(19) = {14, 13};
Line(20) = {13, 15};
Line(21) = {16, 15};
Line(22) = {14, 16};
Line(23) = {14, 17};
Line(24) = {17, 18};
Line(25) = {13, 18};
Line(26) = {15, 19};
Line(27) = {18, 19};
Line(28) = {16, 20};
Line(29) = {20, 19};
Line(30) = {17, 20};
Curve Loop(7) = {-13, -14, 15, 14};
Surface(7) = {7};
Curve Loop(8) = {13};
Plane Surface(8) = {8};
Curve Loop(9) = {15};
Plane Surface(9) = {9};
Curve Loop(10) = {-16, -17, 18, 17};
Surface(10) = {10};
Curve Loop(11) = {16};
Plane Surface(11) = {11};
Curve Loop(12) = {18};
Plane Surface(12) = {12};
Curve Loop(13) = {-19, 22, 21, -20};
Plane Surface(13) = {13};
Curve Loop(14) = {-23, 19, 25, -24};
Plane Surface(14) = {14};
Curve Loop(15) = {-20, 25, 27, -26, -16, -13};
Plane Surface(15) = {15};
Curve Loop(16) = {-28, 21, 26, -29};
Plane Surface(16) = {16};
Curve Loop(17) = {-22, 23, 30, -28, -18, -15};
Plane Surface(17) = {17};
Curve Loop(18) = {-24, 30, 29, -27};
Plane Surface(18) = {18};
Surface Loop(1) = {13, 14, 15, 16, 17, 18, 10, 7};
Volume(1) = {1};
Surface Loop(2) = {7, 8, 9};
Volume(2) = {2};
Surface Loop(3) = {10, 11, 12};
Volume(3) = {3};
Physical Surface("WALLS") = {13, 18};
Physical Surface("LOAD") = {8, 11};
Physical Surface("BORDER") = {7, 9, 10, 12, 14, 15, 16, 17};
Physical Volume("SOLID") = {1, 2, 3};
