cl__1 = 0.068436;
cl__2 = 0.057408;
cl__3 = 2.619756;
cl__4 = 2.792115;
cl__5 = 0.559339;
cl__6 = 0.653982;
Point(9) = {19.339583, -0.5288390000000002, 0.1, cl__1};
Point(10) = {19.339583, -0.5288390000000002, 0, cl__1};
Point(11) = {33.24738199999999, -0.8820550000000001, 0.1, cl__2};
Point(12) = {33.24738199999999, -0.8820550000000001, 0, cl__2};
Point(13) = {0.534135, -4.167387, 1, cl__3};
Point(14) = {0.534135, -4.167387, 0, cl__3};
Point(15) = {0.534135, 4.716010000000001, 1, cl__4};
Point(16) = {0.534135, 4.716010000000001, 0, cl__4};
Point(17) = {39.742949, -4.167387, 0, cl__5};
Point(18) = {39.742949, -4.167387, 1, cl__5};
Point(19) = {39.742949, 4.716010000000001, 1, cl__6};
Point(20) = {39.742949, 4.716010000000001, 0, cl__6};
p13 = newp;
Point(p13 + 1) = {19.33115734352305, -0.4217808837672074, 0.1};
Point(p13 + 2) = {19.30608784171782, -0.3173588936615834, 0.1};
Point(p13 + 3) = {19.26499178891965, -0.2181442456362448, 0.1};
Point(p13 + 4) = {19.20888110633842, -0.1265799336001139, 0.1};
Point(p13 + 5) = {19.13913742519995, -0.04492057480004957, 0.1};
Point(p13 + 6) = {19.05747806639988, 0.02482310633841645, 0.1};
Point(p13 + 7) = {18.96591375436375, 0.0809337889196482, 0.1};
Point(p13 + 8) = {18.86669910633842, 0.1220298417178165, 0.1};
Point(p13 + 9) = {18.76227711623279, 0.1470993435230509, 0.1};
Point(p13 + 10) = {18.655219, 0.155525, 0.1};
Point(p13 + 11) = {18.54816088376721, 0.1470993435230508, 0.1};
Point(p13 + 12) = {18.44373889366158, 0.1220298417178165, 0.1};
Point(p13 + 13) = {18.34452424563624, 0.0809337889196482, 0.1};
Point(p13 + 14) = {18.25295993360011, 0.02482310633841656, 0.1};
Point(p13 + 15) = {18.17130057480005, -0.04492057480004952, 0.1};
Point(p13 + 16) = {18.10155689366158, -0.1265799336001138, 0.1};
Point(p13 + 17) = {18.04544621108035, -0.2181442456362447, 0.1};
Point(p13 + 18) = {18.00435015828218, -0.3173588936615834, 0.1};
Point(p13 + 19) = {17.97928065647695, -0.4217808837672073, 0.1};
Point(p13 + 20) = {17.970855, -0.5288389999999998, 0.1};
Point(p13 + 21) = {17.97928065647695, -0.6358971162327924, 0.1};
Point(p13 + 22) = {18.00435015828218, -0.7403191063384167, 0.1};
Point(p13 + 23) = {18.04544621108035, -0.8395337543637549, 0.1};
Point(p13 + 24) = {18.10155689366158, -0.931098066399886, 0.1};
Point(p13 + 25) = {18.17130057480005, -1.01275742519995, 0.1};
Point(p13 + 26) = {18.25295993360011, -1.082501106338416, 0.1};
Point(p13 + 27) = {18.34452424563624, -1.138611788919648, 0.1};
Point(p13 + 28) = {18.44373889366158, -1.179707841717816, 0.1};
Point(p13 + 29) = {18.54816088376721, -1.204777343523051, 0.1};
Point(p13 + 30) = {18.655219, -1.213203, 0.1};
Point(p13 + 31) = {18.76227711623279, -1.204777343523051, 0.1};
Point(p13 + 32) = {18.86669910633842, -1.179707841717816, 0.1};
Point(p13 + 33) = {18.96591375436375, -1.138611788919648, 0.1};
Point(p13 + 34) = {19.05747806639988, -1.082501106338416, 0.1};
Point(p13 + 35) = {19.13913742519995, -1.01275742519995, 0.1};
Point(p13 + 36) = {19.20888110633842, -0.931098066399886, 0.1};
Point(p13 + 37) = {19.26499178891965, -0.8395337543637553, 0.1};
Point(p13 + 38) = {19.30608784171782, -0.7403191063384166, 0.1};
Point(p13 + 39) = {19.33115734352305, -0.6358971162327927, 0.1};
Spline(13) = {9, p13 + 1, p13 + 2, p13 + 3, p13 + 4, p13 + 5, p13 + 6, p13 + 7, p13 + 8, p13 + 9, p13 + 10, p13 + 11, p13 + 12, p13 + 13, p13 + 14, p13 + 15, p13 + 16, p13 + 17, p13 + 18, p13 + 19, p13 + 20, p13 + 21, p13 + 22, p13 + 23, p13 + 24, p13 + 25, p13 + 26, p13 + 27, p13 + 28, p13 + 29, p13 + 30, p13 + 31, p13 + 32, p13 + 33, p13 + 34, p13 + 35, p13 + 36, p13 + 37, p13 + 38, p13 + 39, 9};
Line(14) = {10, 9};
p15 = newp;
Point(p15 + 1) = {19.33115734352305, -0.4217808837672074, 0};
Point(p15 + 2) = {19.30608784171782, -0.3173588936615834, 0};
Point(p15 + 3) = {19.26499178891965, -0.2181442456362448, 0};
Point(p15 + 4) = {19.20888110633842, -0.1265799336001139, 0};
Point(p15 + 5) = {19.13913742519995, -0.04492057480004957, 0};
Point(p15 + 6) = {19.05747806639988, 0.02482310633841645, 0};
Point(p15 + 7) = {18.96591375436375, 0.0809337889196482, 0};
Point(p15 + 8) = {18.86669910633842, 0.1220298417178165, 0};
Point(p15 + 9) = {18.76227711623279, 0.1470993435230509, 0};
Point(p15 + 10) = {18.655219, 0.155525, 0};
Point(p15 + 11) = {18.54816088376721, 0.1470993435230508, 0};
Point(p15 + 12) = {18.44373889366158, 0.1220298417178165, 0};
Point(p15 + 13) = {18.34452424563624, 0.0809337889196482, 0};
Point(p15 + 14) = {18.25295993360011, 0.02482310633841656, 0};
Point(p15 + 15) = {18.17130057480005, -0.04492057480004952, 0};
Point(p15 + 16) = {18.10155689366158, -0.1265799336001138, 0};
Point(p15 + 17) = {18.04544621108035, -0.2181442456362447, 0};
Point(p15 + 18) = {18.00435015828218, -0.3173588936615834, 0};
Point(p15 + 19) = {17.97928065647695, -0.4217808837672073, 0};
Point(p15 + 20) = {17.970855, -0.5288389999999998, 0};
Point(p15 + 21) = {17.97928065647695, -0.6358971162327924, 0};
Point(p15 + 22) = {18.00435015828218, -0.7403191063384167, 0};
Point(p15 + 23) = {18.04544621108035, -0.8395337543637549, 0};
Point(p15 + 24) = {18.10155689366158, -0.931098066399886, 0};
Point(p15 + 25) = {18.17130057480005, -1.01275742519995, 0};
Point(p15 + 26) = {18.25295993360011, -1.082501106338416, 0};
Point(p15 + 27) = {18.34452424563624, -1.138611788919648, 0};
Point(p15 + 28) = {18.44373889366158, -1.179707841717816, 0};
Point(p15 + 29) = {18.54816088376721, -1.204777343523051, 0};
Point(p15 + 30) = {18.655219, -1.213203, 0};
Point(p15 + 31) = {18.76227711623279, -1.204777343523051, 0};
Point(p15 + 32) = {18.86669910633842, -1.179707841717816, 0};
Point(p15 + 33) = {18.96591375436375, -1.138611788919648, 0};
Point(p15 + 34) = {19.05747806639988, -1.082501106338416, 0};
Point(p15 + 35) = {19.13913742519995, -1.01275742519995, 0};
Point(p15 + 36) = {19.20888110633842, -0.931098066399886, 0};
Point(p15 + 37) = {19.26499178891965, -0.8395337543637553, 0};
Point(p15 + 38) = {19.30608784171782, -0.7403191063384166, 0};
Point(p15 + 39) = {19.33115734352305, -0.6358971162327927, 0};
Spline(15) = {10, p15 + 1, p15 + 2, p15 + 3, p15 + 4, p15 + 5, p15 + 6, p15 + 7, p15 + 8, p15 + 9, p15 + 10, p15 + 11, p15 + 12, p15 + 13, p15 + 14, p15 + 15, p15 + 16, p15 + 17, p15 + 18, p15 + 19, p15 + 20, p15 + 21, p15 + 22, p15 + 23, p15 + 24, p15 + 25, p15 + 26, p15 + 27, p15 + 28, p15 + 29, p15 + 30, p15 + 31, p15 + 32, p15 + 33, p15 + 34, p15 + 35, p15 + 36, p15 + 37, p15 + 38, p15 + 39, 10};
p16 = newp;
Point(p16 + 1) = {33.24031409794554, -0.7922487894407743, 0.1};
Point(p16 + 2) = {33.21928442698776, -0.7046539058352415, 0.1};
Point(p16 + 3) = {33.1848108074191, -0.6214272259285216, 0.1};
Point(p16 + 4) = {33.13774209416476, -0.5446180667934325, 0.1};
Point(p16 + 5) = {33.07923727515713, -0.4761177248428645, 0.1};
Point(p16 + 6) = {33.01073693320657, -0.4176129058352415, 0.1};
Point(p16 + 7) = {32.93392777407148, -0.3705441925808934, 0.1};
Point(p16 + 8) = {32.85070109416476, -0.3360705730122457, 0.1};
Point(p16 + 9) = {32.76310621055922, -0.3150409020544622, 0.1};
Point(p16 + 10) = {32.6733, -0.3079730000000001, 0.1};
Point(p16 + 11) = {32.58349378944077, -0.3150409020544622, 0.1};
Point(p16 + 12) = {32.49589890583524, -0.3360705730122456, 0.1};
Point(p16 + 13) = {32.41267222592852, -0.3705441925808934, 0.1};
Point(p16 + 14) = {32.33586306679343, -0.4176129058352415, 0.1};
Point(p16 + 15) = {32.26736272484286, -0.4761177248428645, 0.1};
Point(p16 + 16) = {32.20885790583524, -0.5446180667934324, 0.1};
Point(p16 + 17) = {32.16178919258089, -0.6214272259285215, 0.1};
Point(p16 + 18) = {32.12731557301224, -0.7046539058352415, 0.1};
Point(p16 + 19) = {32.10628590205446, -0.7922487894407741, 0.1};
Point(p16 + 20) = {32.099218, -0.8820549999999999, 0.1};
Point(p16 + 21) = {32.10628590205446, -0.9718612105592258, 0.1};
Point(p16 + 22) = {32.12731557301224, -1.059456094164759, 0.1};
Point(p16 + 23) = {32.16178919258089, -1.142682774071478, 0.1};
Point(p16 + 24) = {32.20885790583524, -1.219491933206567, 0.1};
Point(p16 + 25) = {32.26736272484286, -1.287992275157136, 0.1};
Point(p16 + 26) = {32.33586306679343, -1.346497094164758, 0.1};
Point(p16 + 27) = {32.41267222592852, -1.393565807419107, 0.1};
Point(p16 + 28) = {32.49589890583524, -1.428039426987754, 0.1};
Point(p16 + 29) = {32.58349378944077, -1.449069097945538, 0.1};
Point(p16 + 30) = {32.6733, -1.456137, 0.1};
Point(p16 + 31) = {32.76310621055922, -1.449069097945538, 0.1};
Point(p16 + 32) = {32.85070109416476, -1.428039426987755, 0.1};
Point(p16 + 33) = {32.93392777407148, -1.393565807419107, 0.1};
Point(p16 + 34) = {33.01073693320657, -1.346497094164759, 0.1};
Point(p16 + 35) = {33.07923727515713, -1.287992275157136, 0.1};
Point(p16 + 36) = {33.13774209416476, -1.219491933206568, 0.1};
Point(p16 + 37) = {33.1848108074191, -1.142682774071479, 0.1};
Point(p16 + 38) = {33.21928442698776, -1.059456094164759, 0.1};
Point(p16 + 39) = {33.24031409794554, -0.971861210559226, 0.1};
Spline(16) = {11, p16 + 1, p16 + 2, p16 + 3, p16 + 4, p16 + 5, p16 + 6, p16 + 7, p16 + 8, p16 + 9, p16 + 10, p16 + 11, p16 + 12, p16 + 13, p16 + 14, p16 + 15, p16 + 16, p16 + 17, p16 + 18, p16 + 19, p16 + 20, p16 + 21, p16 + 22, p16 + 23, p16 + 24, p16 + 25, p16 + 26, p16 + 27, p16 + 28, p16 + 29, p16 + 30, p16 + 31, p16 + 32, p16 + 33, p16 + 34, p16 + 35, p16 + 36, p16 + 37, p16 + 38, p16 + 39, 11};
Line(17) = {12, 11};
p18 = newp;
Point(p18 + 1) = {33.24031409794554, -0.7922487894407743, 0};
Point(p18 + 2) = {33.21928442698776, -0.7046539058352415, 0};
Point(p18 + 3) = {33.1848108074191, -0.6214272259285216, 0};
Point(p18 + 4) = {33.13774209416476, -0.5446180667934325, 0};
Point(p18 + 5) = {33.07923727515713, -0.4761177248428645, 0};
Point(p18 + 6) = {33.01073693320657, -0.4176129058352415, 0};
Point(p18 + 7) = {32.93392777407148, -0.3705441925808934, 0};
Point(p18 + 8) = {32.85070109416476, -0.3360705730122457, 0};
Point(p18 + 9) = {32.76310621055922, -0.3150409020544622, 0};
Point(p18 + 10) = {32.6733, -0.3079730000000001, 0};
Point(p18 + 11) = {32.58349378944077, -0.3150409020544622, 0};
Point(p18 + 12) = {32.49589890583524, -0.3360705730122456, 0};
Point(p18 + 13) = {32.41267222592852, -0.3705441925808934, 0};
Point(p18 + 14) = {32.33586306679343, -0.4176129058352415, 0};
Point(p18 + 15) = {32.26736272484286, -0.4761177248428645, 0};
Point(p18 + 16) = {32.20885790583524, -0.5446180667934324, 0};
Point(p18 + 17) = {32.16178919258089, -0.6214272259285215, 0};
Point(p18 + 18) = {32.12731557301224, -0.7046539058352415, 0};
Point(p18 + 19) = {32.10628590205446, -0.7922487894407741, 0};
Point(p18 + 20) = {32.099218, -0.8820549999999999, 0};
Point(p18 + 21) = {32.10628590205446, -0.9718612105592258, 0};
Point(p18 + 22) = {32.12731557301224, -1.059456094164759, 0};
Point(p18 + 23) = {32.16178919258089, -1.142682774071478, 0};
Point(p18 + 24) = {32.20885790583524, -1.219491933206567, 0};
Point(p18 + 25) = {32.26736272484286, -1.287992275157136, 0};
Point(p18 + 26) = {32.33586306679343, -1.346497094164758, 0};
Point(p18 + 27) = {32.41267222592852, -1.393565807419107, 0};
Point(p18 + 28) = {32.49589890583524, -1.428039426987754, 0};
Point(p18 + 29) = {32.58349378944077, -1.449069097945538, 0};
Point(p18 + 30) = {32.6733, -1.456137, 0};
Point(p18 + 31) = {32.76310621055922, -1.449069097945538, 0};
Point(p18 + 32) = {32.85070109416476, -1.428039426987755, 0};
Point(p18 + 33) = {32.93392777407148, -1.393565807419107, 0};
Point(p18 + 34) = {33.01073693320657, -1.346497094164759, 0};
Point(p18 + 35) = {33.07923727515713, -1.287992275157136, 0};
Point(p18 + 36) = {33.13774209416476, -1.219491933206568, 0};
Point(p18 + 37) = {33.1848108074191, -1.142682774071479, 0};
Point(p18 + 38) = {33.21928442698776, -1.059456094164759, 0};
Point(p18 + 39) = {33.24031409794554, -0.971861210559226, 0};
Spline(18) = {12, p18 + 1, p18 + 2, p18 + 3, p18 + 4, p18 + 5, p18 + 6, p18 + 7, p18 + 8, p18 + 9, p18 + 10, p18 + 11, p18 + 12, p18 + 13, p18 + 14, p18 + 15, p18 + 16, p18 + 17, p18 + 18, p18 + 19, p18 + 20, p18 + 21, p18 + 22, p18 + 23, p18 + 24, p18 + 25, p18 + 26, p18 + 27, p18 + 28, p18 + 29, p18 + 30, p18 + 31, p18 + 32, p18 + 33, p18 + 34, p18 + 35, p18 + 36, p18 + 37, p18 + 38, p18 + 39, 12};
Line(19) = {14, 13};
Line(20) = {13, 15};
Line(21) = {16, 15};
Line(22) = {14, 16};
Line(23) = {14, 17};
Line(24) = {17, 18};
Line(25) = {13, 18};
Line(26) = {15, 19};
Line(27) = {18, 19};
Line(28) = {16, 20};
Line(29) = {20, 19};
Line(30) = {17, 20};
Curve Loop(7) = {-13, -14, 15, 14};
Surface(7) = {7};
Curve Loop(8) = {13};
Plane Surface(8) = {8};
Curve Loop(9) = {15};
Plane Surface(9) = {9};
Curve Loop(10) = {-16, -17, 18, 17};
Surface(10) = {10};
Curve Loop(11) = {16};
Plane Surface(11) = {11};
Curve Loop(12) = {18};
Plane Surface(12) = {12};
Curve Loop(13) = {-19, 22, 21, -20};
Plane Surface(13) = {13};
Curve Loop(14) = {-23, 19, 25, -24};
Plane Surface(14) = {14};
Curve Loop(15) = {-20, 25, 27, -26};
Plane Surface(15) = {15};
Curve Loop(16) = {-28, 21, 26, -29};
Plane Surface(16) = {16};
Curve Loop(17) = {-22, 23, 30, -28, -18, -15};
Plane Surface(17) = {17};
Curve Loop(18) = {-24, 30, 29, -27};
Plane Surface(18) = {18};
Surface Loop(1) = {13, 14, 15, 16, 17, 18, 10, 7, 11, 8};
Volume(1) = {1};
Surface Loop(2) = {7, 8, 9};
Volume(2) = {2};
Surface Loop(3) = {10, 11, 12};
Volume(3) = {3};
Physical Surface("WALLS") = {13, 18};
Physical Surface("LOAD") = {8, 11};
Physical Surface("BORDER") = {7, 9, 10, 12, 14, 15, 16, 17};
Physical Volume("SOLID") = {1, 2, 3};
