cl__1 = 0.058194;
cl__2 = 0.08974699999999999;
cl__3 = 0.789;
cl__4 = 1.926309;
cl__5 = 0.773028;
cl__6 = 1.701006;
Point(9) = {6.048011, -1.574809, 0.1, cl__1};
Point(10) = {6.048011, -1.574809, 0, cl__1};
Point(11) = {27.895333, -1.44968, 0.1, cl__2};
Point(12) = {27.895333, -1.44968, 0, cl__2};
Point(13) = {0.6620200000000001, -3.181954, 0.1, cl__3};
Point(14) = {0.6620200000000001, -3.181954, 0, cl__3};
Point(15) = {0.6620200000000001, 4.382385, 0.1, cl__4};
Point(16) = {0.6620200000000001, 4.382385, 0, cl__4};
Point(17) = {31.996748, -3.181954, 0, cl__5};
Point(18) = {31.996748, -3.181954, 0.1, cl__5};
Point(19) = {31.996748, 4.382385, 0.1, cl__6};
Point(20) = {31.996748, 4.382385, 0, cl__6};
p13 = newp;
Point(p13 + 1) = {6.040846402172572, -1.483774153152348, 0.1};
Point(p13 + 2) = {6.019529024866737, -1.394980886361421, 0.1};
Point(p13 + 3) = {5.984583772660082, -1.310615584543567, 0.1};
Point(p13 + 4) = {5.936871113638579, -1.232755601421927, 0.1};
Point(p13 + 5) = {5.877565891816575, -1.163318108183425, 0.1};
Point(p13 + 6) = {5.808128398578073, -1.10401288636142, 0.1};
Point(p13 + 7) = {5.730268415456433, -1.056300227339918, 0.1};
Point(p13 + 8) = {5.645903113638579, -1.021354975133264, 0.1};
Point(p13 + 9) = {5.557109846847652, -1.000037597827428, 0.1};
Point(p13 + 10) = {5.466075, -0.9928729999999999, 0.1};
Point(p13 + 11) = {5.375040153152348, -1.000037597827428, 0.1};
Point(p13 + 12) = {5.286246886361421, -1.021354975133263, 0.1};
Point(p13 + 13) = {5.201881584543568, -1.056300227339918, 0.1};
Point(p13 + 14) = {5.124021601421927, -1.10401288636142, 0.1};
Point(p13 + 15) = {5.054584108183425, -1.163318108183425, 0.1};
Point(p13 + 16) = {4.995278886361421, -1.232755601421927, 0.1};
Point(p13 + 17) = {4.947566227339918, -1.310615584543567, 0.1};
Point(p13 + 18) = {4.912620975133263, -1.39498088636142, 0.1};
Point(p13 + 19) = {4.891303597827428, -1.483774153152348, 0.1};
Point(p13 + 20) = {4.884139, -1.574809, 0.1};
Point(p13 + 21) = {4.891303597827428, -1.665843846847652, 0.1};
Point(p13 + 22) = {4.912620975133263, -1.754637113638579, 0.1};
Point(p13 + 23) = {4.947566227339918, -1.839002415456433, 0.1};
Point(p13 + 24) = {4.995278886361421, -1.916862398578072, 0.1};
Point(p13 + 25) = {5.054584108183425, -1.986299891816575, 0.1};
Point(p13 + 26) = {5.124021601421927, -2.045605113638579, 0.1};
Point(p13 + 27) = {5.201881584543567, -2.093317772660082, 0.1};
Point(p13 + 28) = {5.286246886361421, -2.128263024866736, 0.1};
Point(p13 + 29) = {5.375040153152348, -2.149580402172572, 0.1};
Point(p13 + 30) = {5.466075, -2.156745, 0.1};
Point(p13 + 31) = {5.557109846847652, -2.149580402172572, 0.1};
Point(p13 + 32) = {5.645903113638579, -2.128263024866737, 0.1};
Point(p13 + 33) = {5.730268415456433, -2.093317772660082, 0.1};
Point(p13 + 34) = {5.808128398578073, -2.04560511363858, 0.1};
Point(p13 + 35) = {5.877565891816575, -1.986299891816575, 0.1};
Point(p13 + 36) = {5.936871113638579, -1.916862398578073, 0.1};
Point(p13 + 37) = {5.984583772660082, -1.839002415456433, 0.1};
Point(p13 + 38) = {6.019529024866737, -1.754637113638579, 0.1};
Point(p13 + 39) = {6.040846402172572, -1.665843846847652, 0.1};
Spline(13) = {9, p13 + 1, p13 + 2, p13 + 3, p13 + 4, p13 + 5, p13 + 6, p13 + 7, p13 + 8, p13 + 9, p13 + 10, p13 + 11, p13 + 12, p13 + 13, p13 + 14, p13 + 15, p13 + 16, p13 + 17, p13 + 18, p13 + 19, p13 + 20, p13 + 21, p13 + 22, p13 + 23, p13 + 24, p13 + 25, p13 + 26, p13 + 27, p13 + 28, p13 + 29, p13 + 30, p13 + 31, p13 + 32, p13 + 33, p13 + 34, p13 + 35, p13 + 36, p13 + 37, p13 + 38, p13 + 39, 9};
Line(14) = {10, 9};
p15 = newp;
Point(p15 + 1) = {6.040846402172572, -1.483774153152348, 0};
Point(p15 + 2) = {6.019529024866737, -1.394980886361421, 0};
Point(p15 + 3) = {5.984583772660082, -1.310615584543567, 0};
Point(p15 + 4) = {5.936871113638579, -1.232755601421927, 0};
Point(p15 + 5) = {5.877565891816575, -1.163318108183425, 0};
Point(p15 + 6) = {5.808128398578073, -1.10401288636142, 0};
Point(p15 + 7) = {5.730268415456433, -1.056300227339918, 0};
Point(p15 + 8) = {5.645903113638579, -1.021354975133264, 0};
Point(p15 + 9) = {5.557109846847652, -1.000037597827428, 0};
Point(p15 + 10) = {5.466075, -0.9928729999999999, 0};
Point(p15 + 11) = {5.375040153152348, -1.000037597827428, 0};
Point(p15 + 12) = {5.286246886361421, -1.021354975133263, 0};
Point(p15 + 13) = {5.201881584543568, -1.056300227339918, 0};
Point(p15 + 14) = {5.124021601421927, -1.10401288636142, 0};
Point(p15 + 15) = {5.054584108183425, -1.163318108183425, 0};
Point(p15 + 16) = {4.995278886361421, -1.232755601421927, 0};
Point(p15 + 17) = {4.947566227339918, -1.310615584543567, 0};
Point(p15 + 18) = {4.912620975133263, -1.39498088636142, 0};
Point(p15 + 19) = {4.891303597827428, -1.483774153152348, 0};
Point(p15 + 20) = {4.884139, -1.574809, 0};
Point(p15 + 21) = {4.891303597827428, -1.665843846847652, 0};
Point(p15 + 22) = {4.912620975133263, -1.754637113638579, 0};
Point(p15 + 23) = {4.947566227339918, -1.839002415456433, 0};
Point(p15 + 24) = {4.995278886361421, -1.916862398578072, 0};
Point(p15 + 25) = {5.054584108183425, -1.986299891816575, 0};
Point(p15 + 26) = {5.124021601421927, -2.045605113638579, 0};
Point(p15 + 27) = {5.201881584543567, -2.093317772660082, 0};
Point(p15 + 28) = {5.286246886361421, -2.128263024866736, 0};
Point(p15 + 29) = {5.375040153152348, -2.149580402172572, 0};
Point(p15 + 30) = {5.466075, -2.156745, 0};
Point(p15 + 31) = {5.557109846847652, -2.149580402172572, 0};
Point(p15 + 32) = {5.645903113638579, -2.128263024866737, 0};
Point(p15 + 33) = {5.730268415456433, -2.093317772660082, 0};
Point(p15 + 34) = {5.808128398578073, -2.04560511363858, 0};
Point(p15 + 35) = {5.877565891816575, -1.986299891816575, 0};
Point(p15 + 36) = {5.936871113638579, -1.916862398578073, 0};
Point(p15 + 37) = {5.984583772660082, -1.839002415456433, 0};
Point(p15 + 38) = {6.019529024866737, -1.754637113638579, 0};
Point(p15 + 39) = {6.040846402172572, -1.665843846847652, 0};
Spline(15) = {10, p15 + 1, p15 + 2, p15 + 3, p15 + 4, p15 + 5, p15 + 6, p15 + 7, p15 + 8, p15 + 9, p15 + 10, p15 + 11, p15 + 12, p15 + 13, p15 + 14, p15 + 15, p15 + 16, p15 + 17, p15 + 18, p15 + 19, p15 + 20, p15 + 21, p15 + 22, p15 + 23, p15 + 24, p15 + 25, p15 + 26, p15 + 27, p15 + 28, p15 + 29, p15 + 30, p15 + 31, p15 + 32, p15 + 33, p15 + 34, p15 + 35, p15 + 36, p15 + 37, p15 + 38, p15 + 39, 10};
p16 = newp;
Point(p16 + 1) = {27.8842836919689, -1.309285229963739, 0.1};
Point(p16 + 2) = {27.85140783850986, -1.172347445109299, 0.1};
Point(p16 + 3) = {27.79751495224376, -1.042238508170248, 0.1};
Point(p16 + 4) = {27.7239320548907, -0.9221621329808311, 0.1};
Point(p16 + 5) = {27.63247100159115, -0.8150749984088529, 0.1};
Point(p16 + 6) = {27.52538386701917, -0.7236139451092992, 0.1};
Point(p16 + 7) = {27.40530749182975, -0.6500310477562382, 0.1};
Point(p16 + 8) = {27.2751985548907, -0.5961381614901375, 0.1};
Point(p16 + 9) = {27.13826077003626, -0.5632623080311036, 0.1};
Point(p16 + 10) = {26.997866, -0.5522130000000001, 0.1};
Point(p16 + 11) = {26.85747122996374, -0.5632623080311037, 0.1};
Point(p16 + 12) = {26.7205334451093, -0.5961381614901374, 0.1};
Point(p16 + 13) = {26.59042450817025, -0.6500310477562381, 0.1};
Point(p16 + 14) = {26.47034813298083, -0.7236139451092991, 0.1};
Point(p16 + 15) = {26.36326099840885, -0.8150749984088528, 0.1};
Point(p16 + 16) = {26.2717999451093, -0.9221621329808309, 0.1};
Point(p16 + 17) = {26.19821704775624, -1.042238508170248, 0.1};
Point(p16 + 18) = {26.14432416149014, -1.172347445109299, 0.1};
Point(p16 + 19) = {26.1114483080311, -1.309285229963739, 0.1};
Point(p16 + 20) = {26.100399, -1.44968, 0.1};
Point(p16 + 21) = {26.1114483080311, -1.590074770036261, 0.1};
Point(p16 + 22) = {26.14432416149014, -1.727012554890701, 0.1};
Point(p16 + 23) = {26.19821704775624, -1.857121491829751, 0.1};
Point(p16 + 24) = {26.2717999451093, -1.977197867019169, 0.1};
Point(p16 + 25) = {26.36326099840885, -2.084285001591147, 0.1};
Point(p16 + 26) = {26.47034813298083, -2.175746054890701, 0.1};
Point(p16 + 27) = {26.59042450817025, -2.249328952243762, 0.1};
Point(p16 + 28) = {26.7205334451093, -2.303221838509863, 0.1};
Point(p16 + 29) = {26.85747122996374, -2.336097691968896, 0.1};
Point(p16 + 30) = {26.997866, -2.347147, 0.1};
Point(p16 + 31) = {27.13826077003626, -2.336097691968896, 0.1};
Point(p16 + 32) = {27.2751985548907, -2.303221838509863, 0.1};
Point(p16 + 33) = {27.40530749182975, -2.249328952243762, 0.1};
Point(p16 + 34) = {27.52538386701917, -2.175746054890701, 0.1};
Point(p16 + 35) = {27.63247100159115, -2.084285001591148, 0.1};
Point(p16 + 36) = {27.7239320548907, -1.977197867019169, 0.1};
Point(p16 + 37) = {27.79751495224376, -1.857121491829752, 0.1};
Point(p16 + 38) = {27.85140783850986, -1.727012554890701, 0.1};
Point(p16 + 39) = {27.8842836919689, -1.590074770036261, 0.1};
Spline(16) = {11, p16 + 1, p16 + 2, p16 + 3, p16 + 4, p16 + 5, p16 + 6, p16 + 7, p16 + 8, p16 + 9, p16 + 10, p16 + 11, p16 + 12, p16 + 13, p16 + 14, p16 + 15, p16 + 16, p16 + 17, p16 + 18, p16 + 19, p16 + 20, p16 + 21, p16 + 22, p16 + 23, p16 + 24, p16 + 25, p16 + 26, p16 + 27, p16 + 28, p16 + 29, p16 + 30, p16 + 31, p16 + 32, p16 + 33, p16 + 34, p16 + 35, p16 + 36, p16 + 37, p16 + 38, p16 + 39, 11};
Line(17) = {12, 11};
p18 = newp;
Point(p18 + 1) = {27.8842836919689, -1.309285229963739, 0};
Point(p18 + 2) = {27.85140783850986, -1.172347445109299, 0};
Point(p18 + 3) = {27.79751495224376, -1.042238508170248, 0};
Point(p18 + 4) = {27.7239320548907, -0.9221621329808311, 0};
Point(p18 + 5) = {27.63247100159115, -0.8150749984088529, 0};
Point(p18 + 6) = {27.52538386701917, -0.7236139451092992, 0};
Point(p18 + 7) = {27.40530749182975, -0.6500310477562382, 0};
Point(p18 + 8) = {27.2751985548907, -0.5961381614901375, 0};
Point(p18 + 9) = {27.13826077003626, -0.5632623080311036, 0};
Point(p18 + 10) = {26.997866, -0.5522130000000001, 0};
Point(p18 + 11) = {26.85747122996374, -0.5632623080311037, 0};
Point(p18 + 12) = {26.7205334451093, -0.5961381614901374, 0};
Point(p18 + 13) = {26.59042450817025, -0.6500310477562381, 0};
Point(p18 + 14) = {26.47034813298083, -0.7236139451092991, 0};
Point(p18 + 15) = {26.36326099840885, -0.8150749984088528, 0};
Point(p18 + 16) = {26.2717999451093, -0.9221621329808309, 0};
Point(p18 + 17) = {26.19821704775624, -1.042238508170248, 0};
Point(p18 + 18) = {26.14432416149014, -1.172347445109299, 0};
Point(p18 + 19) = {26.1114483080311, -1.309285229963739, 0};
Point(p18 + 20) = {26.100399, -1.44968, 0};
Point(p18 + 21) = {26.1114483080311, -1.590074770036261, 0};
Point(p18 + 22) = {26.14432416149014, -1.727012554890701, 0};
Point(p18 + 23) = {26.19821704775624, -1.857121491829751, 0};
Point(p18 + 24) = {26.2717999451093, -1.977197867019169, 0};
Point(p18 + 25) = {26.36326099840885, -2.084285001591147, 0};
Point(p18 + 26) = {26.47034813298083, -2.175746054890701, 0};
Point(p18 + 27) = {26.59042450817025, -2.249328952243762, 0};
Point(p18 + 28) = {26.7205334451093, -2.303221838509863, 0};
Point(p18 + 29) = {26.85747122996374, -2.336097691968896, 0};
Point(p18 + 30) = {26.997866, -2.347147, 0};
Point(p18 + 31) = {27.13826077003626, -2.336097691968896, 0};
Point(p18 + 32) = {27.2751985548907, -2.303221838509863, 0};
Point(p18 + 33) = {27.40530749182975, -2.249328952243762, 0};
Point(p18 + 34) = {27.52538386701917, -2.175746054890701, 0};
Point(p18 + 35) = {27.63247100159115, -2.084285001591148, 0};
Point(p18 + 36) = {27.7239320548907, -1.977197867019169, 0};
Point(p18 + 37) = {27.79751495224376, -1.857121491829752, 0};
Point(p18 + 38) = {27.85140783850986, -1.727012554890701, 0};
Point(p18 + 39) = {27.8842836919689, -1.590074770036261, 0};
Spline(18) = {12, p18 + 1, p18 + 2, p18 + 3, p18 + 4, p18 + 5, p18 + 6, p18 + 7, p18 + 8, p18 + 9, p18 + 10, p18 + 11, p18 + 12, p18 + 13, p18 + 14, p18 + 15, p18 + 16, p18 + 17, p18 + 18, p18 + 19, p18 + 20, p18 + 21, p18 + 22, p18 + 23, p18 + 24, p18 + 25, p18 + 26, p18 + 27, p18 + 28, p18 + 29, p18 + 30, p18 + 31, p18 + 32, p18 + 33, p18 + 34, p18 + 35, p18 + 36, p18 + 37, p18 + 38, p18 + 39, 12};
Line(19) = {14, 13};
Line(20) = {13, 15};
Line(21) = {16, 15};
Line(22) = {14, 16};
Line(23) = {14, 17};
Line(24) = {17, 18};
Line(25) = {13, 18};
Line(26) = {15, 19};
Line(27) = {18, 19};
Line(28) = {16, 20};
Line(29) = {20, 19};
Line(30) = {17, 20};
Curve Loop(7) = {-13, -14, 15, 14};
Surface(7) = {7};
Curve Loop(8) = {13};
Plane Surface(8) = {8};
Curve Loop(9) = {15};
Plane Surface(9) = {9};
Curve Loop(10) = {-16, -17, 18, 17};
Surface(10) = {10};
Curve Loop(11) = {16};
Plane Surface(11) = {11};
Curve Loop(12) = {18};
Plane Surface(12) = {12};
Curve Loop(13) = {-19, 22, 21, -20};
Plane Surface(13) = {13};
Curve Loop(14) = {-23, 19, 25, -24};
Plane Surface(14) = {14};
Curve Loop(15) = {-20, 25, 27, -26, -13, -16};
Plane Surface(15) = {15};
Curve Loop(16) = {-28, 21, 26, -29};
Plane Surface(16) = {16};
Curve Loop(17) = {-22, 23, 30, -28, -15, -18};
Plane Surface(17) = {17};
Curve Loop(18) = {-24, 30, 29, -27};
Plane Surface(18) = {18};
Surface Loop(1) = {13, 14, 15, 16, 17, 18, 7, 10};
Volume(1) = {1};
Surface Loop(2) = {7, 8, 9};
Volume(2) = {2};
Surface Loop(3) = {10, 11, 12};
Volume(3) = {3};
Physical Surface("WALLS") = {13, 18};
Physical Surface("LOAD") = {8, 11};
Physical Surface("BORDER") = {7, 9, 10, 12, 14, 15, 16, 17};
Physical Volume("SOLID") = {1, 2, 3};
