cl__1 = 0.12483;
cl__2 = 0.066095;
cl__3 = 5.160519;
cl__4 = 5.133624;
cl__5 = 0.154673;
cl__6 = 0.39217;
Point(9) = {35.307877, -1.727093, 0.1, cl__1};
Point(10) = {35.307877, -1.727093, 0, cl__1};
Point(11) = {23.892881, 0.1110019999999998, 0.1, cl__2};
Point(12) = {23.892881, 0.1110019999999998, 0, cl__2};
Point(13) = {0.123235, -4.41641, 1, cl__3};
Point(14) = {0.123235, -4.41641, 0, cl__3};
Point(15) = {0.123235, 4.426469999999999, 1, cl__4};
Point(16) = {0.123235, 4.426469999999999, 0, cl__4};
Point(17) = {35.966549, -4.41641, 0, cl__5};
Point(18) = {35.966549, -4.41641, 1, cl__5};
Point(19) = {35.966549, 4.426469999999999, 1, cl__6};
Point(20) = {35.966549, 4.426469999999999, 0, cl__6};
p13 = newp;
Point(p13 + 1) = {35.29250839249988, -1.531816326593675, 0.1};
Point(p13 + 2) = {35.24678099612169, -1.341348012972736, 0.1};
Point(p13 + 3) = {35.17182077112476, -1.160378021146623, 0.1};
Point(p13 + 4) = {35.06947348702726, -0.9933624329190627, 0.1};
Point(p13 + 5) = {34.94225927363482, -0.8444137263651763, 0.1};
Point(p13 + 6) = {34.79331056708094, -0.7171995129727364, 0.1};
Point(p13 + 7) = {34.62629497885337, -0.6148522288752332, 0.1};
Point(p13 + 8) = {34.44532498702726, -0.5398920038783088, 0.1};
Point(p13 + 9) = {34.25485667340632, -0.4941646075001114, 0.1};
Point(p13 + 10) = {34.05958, -0.478796, 0.1};
Point(p13 + 11) = {33.86430332659367, -0.4941646075001114, 0.1};
Point(p13 + 12) = {33.67383501297273, -0.5398920038783086, 0.1};
Point(p13 + 13) = {33.49286502114662, -0.6148522288752329, 0.1};
Point(p13 + 14) = {33.32584943291906, -0.7171995129727362, 0.1};
Point(p13 + 15) = {33.17690072636518, -0.8444137263651762, 0.1};
Point(p13 + 16) = {33.04968651297273, -0.9933624329190626, 0.1};
Point(p13 + 17) = {32.94733922887523, -1.160378021146623, 0.1};
Point(p13 + 18) = {32.87237900387831, -1.341348012972736, 0.1};
Point(p13 + 19) = {32.82665160750011, -1.531816326593675, 0.1};
Point(p13 + 20) = {32.811283, -1.727093, 0.1};
Point(p13 + 21) = {32.82665160750011, -1.922369673406325, 0.1};
Point(p13 + 22) = {32.87237900387831, -2.112837987027264, 0.1};
Point(p13 + 23) = {32.94733922887523, -2.293807978853376, 0.1};
Point(p13 + 24) = {33.04968651297273, -2.460823567080937, 0.1};
Point(p13 + 25) = {33.17690072636518, -2.609772273634824, 0.1};
Point(p13 + 26) = {33.32584943291906, -2.736986487027264, 0.1};
Point(p13 + 27) = {33.49286502114662, -2.839333771124767, 0.1};
Point(p13 + 28) = {33.67383501297273, -2.914293996121691, 0.1};
Point(p13 + 29) = {33.86430332659367, -2.960021392499889, 0.1};
Point(p13 + 30) = {34.05958, -2.97539, 0.1};
Point(p13 + 31) = {34.25485667340632, -2.960021392499889, 0.1};
Point(p13 + 32) = {34.44532498702726, -2.914293996121692, 0.1};
Point(p13 + 33) = {34.62629497885337, -2.839333771124767, 0.1};
Point(p13 + 34) = {34.79331056708094, -2.736986487027264, 0.1};
Point(p13 + 35) = {34.94225927363482, -2.609772273634824, 0.1};
Point(p13 + 36) = {35.06947348702726, -2.460823567080937, 0.1};
Point(p13 + 37) = {35.17182077112476, -2.293807978853377, 0.1};
Point(p13 + 38) = {35.24678099612169, -2.112837987027264, 0.1};
Point(p13 + 39) = {35.29250839249988, -1.922369673406325, 0.1};
Spline(13) = {9, p13 + 1, p13 + 2, p13 + 3, p13 + 4, p13 + 5, p13 + 6, p13 + 7, p13 + 8, p13 + 9, p13 + 10, p13 + 11, p13 + 12, p13 + 13, p13 + 14, p13 + 15, p13 + 16, p13 + 17, p13 + 18, p13 + 19, p13 + 20, p13 + 21, p13 + 22, p13 + 23, p13 + 24, p13 + 25, p13 + 26, p13 + 27, p13 + 28, p13 + 29, p13 + 30, p13 + 31, p13 + 32, p13 + 33, p13 + 34, p13 + 35, p13 + 36, p13 + 37, p13 + 38, p13 + 39, 9};
Line(14) = {10, 9};
p15 = newp;
Point(p15 + 1) = {35.29250839249988, -1.531816326593675, 0};
Point(p15 + 2) = {35.24678099612169, -1.341348012972736, 0};
Point(p15 + 3) = {35.17182077112476, -1.160378021146623, 0};
Point(p15 + 4) = {35.06947348702726, -0.9933624329190627, 0};
Point(p15 + 5) = {34.94225927363482, -0.8444137263651763, 0};
Point(p15 + 6) = {34.79331056708094, -0.7171995129727364, 0};
Point(p15 + 7) = {34.62629497885337, -0.6148522288752332, 0};
Point(p15 + 8) = {34.44532498702726, -0.5398920038783088, 0};
Point(p15 + 9) = {34.25485667340632, -0.4941646075001114, 0};
Point(p15 + 10) = {34.05958, -0.478796, 0};
Point(p15 + 11) = {33.86430332659367, -0.4941646075001114, 0};
Point(p15 + 12) = {33.67383501297273, -0.5398920038783086, 0};
Point(p15 + 13) = {33.49286502114662, -0.6148522288752329, 0};
Point(p15 + 14) = {33.32584943291906, -0.7171995129727362, 0};
Point(p15 + 15) = {33.17690072636518, -0.8444137263651762, 0};
Point(p15 + 16) = {33.04968651297273, -0.9933624329190626, 0};
Point(p15 + 17) = {32.94733922887523, -1.160378021146623, 0};
Point(p15 + 18) = {32.87237900387831, -1.341348012972736, 0};
Point(p15 + 19) = {32.82665160750011, -1.531816326593675, 0};
Point(p15 + 20) = {32.811283, -1.727093, 0};
Point(p15 + 21) = {32.82665160750011, -1.922369673406325, 0};
Point(p15 + 22) = {32.87237900387831, -2.112837987027264, 0};
Point(p15 + 23) = {32.94733922887523, -2.293807978853376, 0};
Point(p15 + 24) = {33.04968651297273, -2.460823567080937, 0};
Point(p15 + 25) = {33.17690072636518, -2.609772273634824, 0};
Point(p15 + 26) = {33.32584943291906, -2.736986487027264, 0};
Point(p15 + 27) = {33.49286502114662, -2.839333771124767, 0};
Point(p15 + 28) = {33.67383501297273, -2.914293996121691, 0};
Point(p15 + 29) = {33.86430332659367, -2.960021392499889, 0};
Point(p15 + 30) = {34.05958, -2.97539, 0};
Point(p15 + 31) = {34.25485667340632, -2.960021392499889, 0};
Point(p15 + 32) = {34.44532498702726, -2.914293996121692, 0};
Point(p15 + 33) = {34.62629497885337, -2.839333771124767, 0};
Point(p15 + 34) = {34.79331056708094, -2.736986487027264, 0};
Point(p15 + 35) = {34.94225927363482, -2.609772273634824, 0};
Point(p15 + 36) = {35.06947348702726, -2.460823567080937, 0};
Point(p15 + 37) = {35.17182077112476, -2.293807978853377, 0};
Point(p15 + 38) = {35.24678099612169, -2.112837987027264, 0};
Point(p15 + 39) = {35.29250839249988, -1.922369673406325, 0};
Spline(15) = {10, p15 + 1, p15 + 2, p15 + 3, p15 + 4, p15 + 5, p15 + 6, p15 + 7, p15 + 8, p15 + 9, p15 + 10, p15 + 11, p15 + 12, p15 + 13, p15 + 14, p15 + 15, p15 + 16, p15 + 17, p15 + 18, p15 + 19, p15 + 20, p15 + 21, p15 + 22, p15 + 23, p15 + 24, p15 + 25, p15 + 26, p15 + 27, p15 + 28, p15 + 29, p15 + 30, p15 + 31, p15 + 32, p15 + 33, p15 + 34, p15 + 35, p15 + 36, p15 + 37, p15 + 38, p15 + 39, 10};
p16 = newp;
Point(p16 + 1) = {23.88474355946972, 0.2143979854062008, 0.1};
Point(p16 + 2) = {23.86053160867134, 0.315248018500099, 0.1};
Point(p16 + 3) = {23.8208413261884, 0.4110688367648524, 0.1};
Point(p16 + 4) = {23.7666500185001, 0.4995010136437193, 0.1};
Point(p16 + 5) = {23.69929205545237, 0.5783670554523733, 0.1};
Point(p16 + 6) = {23.62042601364372, 0.645725018500099, 0.1};
Point(p16 + 7) = {23.53199383676485, 0.6999163261883985, 0.1};
Point(p16 + 8) = {23.4361730185001, 0.739606608671347, 0.1};
Point(p16 + 9) = {23.3353229854062, 0.7638185594697188, 0.1};
Point(p16 + 10) = {23.231927, 0.7719560000000001, 0.1};
Point(p16 + 11) = {23.1285310145938, 0.7638185594697187, 0.1};
Point(p16 + 12) = {23.0276809814999, 0.7396066086713471, 0.1};
Point(p16 + 13) = {22.93186016323515, 0.6999163261883986, 0.1};
Point(p16 + 14) = {22.84342798635628, 0.6457250185000991, 0.1};
Point(p16 + 15) = {22.76456194454763, 0.5783670554523734, 0.1};
Point(p16 + 16) = {22.6972039814999, 0.4995010136437194, 0.1};
Point(p16 + 17) = {22.6430126738116, 0.4110688367648525, 0.1};
Point(p16 + 18) = {22.60332239132865, 0.3152480185000991, 0.1};
Point(p16 + 19) = {22.57911044053028, 0.2143979854062008, 0.1};
Point(p16 + 20) = {22.570973, 0.1110020000000001, 0.1};
Point(p16 + 21) = {22.57911044053028, 0.007606014593799323, 0.1};
Point(p16 + 22) = {22.60332239132865, -0.09324401850009921, 0.1};
Point(p16 + 23) = {22.6430126738116, -0.1890648367648521, 0.1};
Point(p16 + 24) = {22.6972039814999, -0.2774970136437193, 0.1};
Point(p16 + 25) = {22.76456194454763, -0.3563630554523733, 0.1};
Point(p16 + 26) = {22.84342798635628, -0.423721018500099, 0.1};
Point(p16 + 27) = {22.93186016323515, -0.4779123261883985, 0.1};
Point(p16 + 28) = {23.0276809814999, -0.5176026086713469, 0.1};
Point(p16 + 29) = {23.1285310145938, -0.5418145594697186, 0.1};
Point(p16 + 30) = {23.231927, -0.549952, 0.1};
Point(p16 + 31) = {23.3353229854062, -0.5418145594697187, 0.1};
Point(p16 + 32) = {23.4361730185001, -0.517602608671347, 0.1};
Point(p16 + 33) = {23.53199383676485, -0.4779123261883987, 0.1};
Point(p16 + 34) = {23.62042601364372, -0.4237210185000992, 0.1};
Point(p16 + 35) = {23.69929205545237, -0.3563630554523735, 0.1};
Point(p16 + 36) = {23.7666500185001, -0.2774970136437194, 0.1};
Point(p16 + 37) = {23.8208413261884, -0.1890648367648526, 0.1};
Point(p16 + 38) = {23.86053160867134, -0.09324401850009913, 0.1};
Point(p16 + 39) = {23.88474355946972, 0.007606014593799074, 0.1};
Spline(16) = {11, p16 + 1, p16 + 2, p16 + 3, p16 + 4, p16 + 5, p16 + 6, p16 + 7, p16 + 8, p16 + 9, p16 + 10, p16 + 11, p16 + 12, p16 + 13, p16 + 14, p16 + 15, p16 + 16, p16 + 17, p16 + 18, p16 + 19, p16 + 20, p16 + 21, p16 + 22, p16 + 23, p16 + 24, p16 + 25, p16 + 26, p16 + 27, p16 + 28, p16 + 29, p16 + 30, p16 + 31, p16 + 32, p16 + 33, p16 + 34, p16 + 35, p16 + 36, p16 + 37, p16 + 38, p16 + 39, 11};
Line(17) = {12, 11};
p18 = newp;
Point(p18 + 1) = {23.88474355946972, 0.2143979854062008, 0};
Point(p18 + 2) = {23.86053160867134, 0.315248018500099, 0};
Point(p18 + 3) = {23.8208413261884, 0.4110688367648524, 0};
Point(p18 + 4) = {23.7666500185001, 0.4995010136437193, 0};
Point(p18 + 5) = {23.69929205545237, 0.5783670554523733, 0};
Point(p18 + 6) = {23.62042601364372, 0.645725018500099, 0};
Point(p18 + 7) = {23.53199383676485, 0.6999163261883985, 0};
Point(p18 + 8) = {23.4361730185001, 0.739606608671347, 0};
Point(p18 + 9) = {23.3353229854062, 0.7638185594697188, 0};
Point(p18 + 10) = {23.231927, 0.7719560000000001, 0};
Point(p18 + 11) = {23.1285310145938, 0.7638185594697187, 0};
Point(p18 + 12) = {23.0276809814999, 0.7396066086713471, 0};
Point(p18 + 13) = {22.93186016323515, 0.6999163261883986, 0};
Point(p18 + 14) = {22.84342798635628, 0.6457250185000991, 0};
Point(p18 + 15) = {22.76456194454763, 0.5783670554523734, 0};
Point(p18 + 16) = {22.6972039814999, 0.4995010136437194, 0};
Point(p18 + 17) = {22.6430126738116, 0.4110688367648525, 0};
Point(p18 + 18) = {22.60332239132865, 0.3152480185000991, 0};
Point(p18 + 19) = {22.57911044053028, 0.2143979854062008, 0};
Point(p18 + 20) = {22.570973, 0.1110020000000001, 0};
Point(p18 + 21) = {22.57911044053028, 0.007606014593799323, 0};
Point(p18 + 22) = {22.60332239132865, -0.09324401850009921, 0};
Point(p18 + 23) = {22.6430126738116, -0.1890648367648521, 0};
Point(p18 + 24) = {22.6972039814999, -0.2774970136437193, 0};
Point(p18 + 25) = {22.76456194454763, -0.3563630554523733, 0};
Point(p18 + 26) = {22.84342798635628, -0.423721018500099, 0};
Point(p18 + 27) = {22.93186016323515, -0.4779123261883985, 0};
Point(p18 + 28) = {23.0276809814999, -0.5176026086713469, 0};
Point(p18 + 29) = {23.1285310145938, -0.5418145594697186, 0};
Point(p18 + 30) = {23.231927, -0.549952, 0};
Point(p18 + 31) = {23.3353229854062, -0.5418145594697187, 0};
Point(p18 + 32) = {23.4361730185001, -0.517602608671347, 0};
Point(p18 + 33) = {23.53199383676485, -0.4779123261883987, 0};
Point(p18 + 34) = {23.62042601364372, -0.4237210185000992, 0};
Point(p18 + 35) = {23.69929205545237, -0.3563630554523735, 0};
Point(p18 + 36) = {23.7666500185001, -0.2774970136437194, 0};
Point(p18 + 37) = {23.8208413261884, -0.1890648367648526, 0};
Point(p18 + 38) = {23.86053160867134, -0.09324401850009913, 0};
Point(p18 + 39) = {23.88474355946972, 0.007606014593799074, 0};
Spline(18) = {12, p18 + 1, p18 + 2, p18 + 3, p18 + 4, p18 + 5, p18 + 6, p18 + 7, p18 + 8, p18 + 9, p18 + 10, p18 + 11, p18 + 12, p18 + 13, p18 + 14, p18 + 15, p18 + 16, p18 + 17, p18 + 18, p18 + 19, p18 + 20, p18 + 21, p18 + 22, p18 + 23, p18 + 24, p18 + 25, p18 + 26, p18 + 27, p18 + 28, p18 + 29, p18 + 30, p18 + 31, p18 + 32, p18 + 33, p18 + 34, p18 + 35, p18 + 36, p18 + 37, p18 + 38, p18 + 39, 12};
Line(19) = {14, 13};
Line(20) = {13, 15};
Line(21) = {16, 15};
Line(22) = {14, 16};
Line(23) = {14, 17};
Line(24) = {17, 18};
Line(25) = {13, 18};
Line(26) = {15, 19};
Line(27) = {18, 19};
Line(28) = {16, 20};
Line(29) = {20, 19};
Line(30) = {17, 20};
Curve Loop(7) = {-13, -14, 15, 14};
Surface(7) = {7};
Curve Loop(8) = {13};
Plane Surface(8) = {8};
Curve Loop(9) = {15};
Plane Surface(9) = {9};
Curve Loop(10) = {-16, -17, 18, 17};
Surface(10) = {10};
Curve Loop(11) = {16};
Plane Surface(11) = {11};
Curve Loop(12) = {18};
Plane Surface(12) = {12};
Curve Loop(13) = {-19, 22, 21, -20};
Plane Surface(13) = {13};
Curve Loop(14) = {-23, 19, 25, -24};
Plane Surface(14) = {14};
Curve Loop(15) = {-20, 25, 27, -26};
Plane Surface(15) = {15};
Curve Loop(16) = {-28, 21, 26, -29};
Plane Surface(16) = {16};
Curve Loop(17) = {-22, 23, 30, -28, -15, -18};
Plane Surface(17) = {17};
Curve Loop(18) = {-24, 30, 29, -27};
Plane Surface(18) = {18};
Surface Loop(1) = {13, 14, 15, 16, 17, 18, 7, 10, 8, 11};
Volume(1) = {1};
Surface Loop(2) = {7, 8, 9};
Volume(2) = {2};
Surface Loop(3) = {10, 11, 12};
Volume(3) = {3};
Physical Surface("WALLS") = {13, 18};
Physical Surface("LOAD") = {8, 11};
Physical Surface("BORDER") = {7, 9, 10, 12, 14, 15, 16, 17};
Physical Volume("SOLID") = {1, 2, 3};
