cl__1 = 0.052023;
cl__2 = 0.07803499999999999;
cl__3 = 5.105082;
cl__4 = 5.38583;
cl__5 = 0.36725;
cl__6 = 0.158003;
Point(9) = {33.752819, 3.014923, 0.1, cl__1};
Point(10) = {33.752819, 3.014923, 0, cl__1};
Point(11) = {30.279496, -1.495535, 0.1, cl__2};
Point(12) = {30.279496, -1.495535, 0, cl__2};
Point(13) = {0.383043, -3.311247, 1, cl__3};
Point(14) = {0.383043, -3.311247, 0, cl__3};
Point(15) = {0.383043, 4.282417000000001, 1, cl__4};
Point(16) = {0.383043, 4.282417000000001, 0, cl__4};
Point(17) = {36.089621, -3.311247, 0, cl__5};
Point(18) = {36.089621, -3.311247, 1, cl__5};
Point(19) = {36.089621, 4.282417000000001, 1, cl__6};
Point(20) = {36.089621, 4.282417000000001, 0, cl__6};
p13 = newp;
Point(p13 + 1) = {33.74641406849283, 3.096305371051274, 0.1};
Point(p13 + 2) = {33.72735698464177, 3.175683838034662, 0.1};
Point(p13 + 3) = {33.69611699709809, 3.251103839651003, 0.1};
Point(p13 + 4) = {33.65346333803466, 3.32070828515587, 0.1};
Point(p13 + 5) = {33.60044628209702, 3.382783282097021, 0.1};
Point(p13 + 6) = {33.53837128515587, 3.435800338034662, 0.1};
Point(p13 + 7) = {33.468766839651, 3.478453997098087, 0.1};
Point(p13 + 8) = {33.39334683803466, 3.509693984641777, 0.1};
Point(p13 + 9) = {33.31396837105127, 3.52875106849283, 0.1};
Point(p13 + 10) = {33.232586, 3.535156, 0.1};
Point(p13 + 11) = {33.15120362894872, 3.52875106849283, 0.1};
Point(p13 + 12) = {33.07182516196534, 3.509693984641777, 0.1};
Point(p13 + 13) = {32.99640516034899, 3.478453997098087, 0.1};
Point(p13 + 14) = {32.92680071484413, 3.435800338034662, 0.1};
Point(p13 + 15) = {32.86472571790298, 3.382783282097021, 0.1};
Point(p13 + 16) = {32.81170866196533, 3.32070828515587, 0.1};
Point(p13 + 17) = {32.76905500290191, 3.251103839651003, 0.1};
Point(p13 + 18) = {32.73781501535822, 3.175683838034662, 0.1};
Point(p13 + 19) = {32.71875793150717, 3.096305371051275, 0.1};
Point(p13 + 20) = {32.712353, 3.014923, 0.1};
Point(p13 + 21) = {32.71875793150717, 2.933540628948726, 0.1};
Point(p13 + 22) = {32.73781501535822, 2.854162161965338, 0.1};
Point(p13 + 23) = {32.76905500290191, 2.778742160348997, 0.1};
Point(p13 + 24) = {32.81170866196533, 2.70913771484413, 0.1};
Point(p13 + 25) = {32.86472571790298, 2.647062717902979, 0.1};
Point(p13 + 26) = {32.92680071484413, 2.594045661965338, 0.1};
Point(p13 + 27) = {32.99640516034899, 2.551392002901913, 0.1};
Point(p13 + 28) = {33.07182516196534, 2.520152015358224, 0.1};
Point(p13 + 29) = {33.15120362894872, 2.50109493150717, 0.1};
Point(p13 + 30) = {33.232586, 2.49469, 0.1};
Point(p13 + 31) = {33.31396837105127, 2.50109493150717, 0.1};
Point(p13 + 32) = {33.39334683803466, 2.520152015358224, 0.1};
Point(p13 + 33) = {33.468766839651, 2.551392002901913, 0.1};
Point(p13 + 34) = {33.53837128515587, 2.594045661965338, 0.1};
Point(p13 + 35) = {33.60044628209702, 2.647062717902979, 0.1};
Point(p13 + 36) = {33.65346333803466, 2.70913771484413, 0.1};
Point(p13 + 37) = {33.69611699709809, 2.778742160348996, 0.1};
Point(p13 + 38) = {33.72735698464177, 2.854162161965338, 0.1};
Point(p13 + 39) = {33.74641406849283, 2.933540628948725, 0.1};
Spline(13) = {9, p13 + 1, p13 + 2, p13 + 3, p13 + 4, p13 + 5, p13 + 6, p13 + 7, p13 + 8, p13 + 9, p13 + 10, p13 + 11, p13 + 12, p13 + 13, p13 + 14, p13 + 15, p13 + 16, p13 + 17, p13 + 18, p13 + 19, p13 + 20, p13 + 21, p13 + 22, p13 + 23, p13 + 24, p13 + 25, p13 + 26, p13 + 27, p13 + 28, p13 + 29, p13 + 30, p13 + 31, p13 + 32, p13 + 33, p13 + 34, p13 + 35, p13 + 36, p13 + 37, p13 + 38, p13 + 39, 9};
Line(14) = {10, 9};
p15 = newp;
Point(p15 + 1) = {33.74641406849283, 3.096305371051274, 0};
Point(p15 + 2) = {33.72735698464177, 3.175683838034662, 0};
Point(p15 + 3) = {33.69611699709809, 3.251103839651003, 0};
Point(p15 + 4) = {33.65346333803466, 3.32070828515587, 0};
Point(p15 + 5) = {33.60044628209702, 3.382783282097021, 0};
Point(p15 + 6) = {33.53837128515587, 3.435800338034662, 0};
Point(p15 + 7) = {33.468766839651, 3.478453997098087, 0};
Point(p15 + 8) = {33.39334683803466, 3.509693984641777, 0};
Point(p15 + 9) = {33.31396837105127, 3.52875106849283, 0};
Point(p15 + 10) = {33.232586, 3.535156, 0};
Point(p15 + 11) = {33.15120362894872, 3.52875106849283, 0};
Point(p15 + 12) = {33.07182516196534, 3.509693984641777, 0};
Point(p15 + 13) = {32.99640516034899, 3.478453997098087, 0};
Point(p15 + 14) = {32.92680071484413, 3.435800338034662, 0};
Point(p15 + 15) = {32.86472571790298, 3.382783282097021, 0};
Point(p15 + 16) = {32.81170866196533, 3.32070828515587, 0};
Point(p15 + 17) = {32.76905500290191, 3.251103839651003, 0};
Point(p15 + 18) = {32.73781501535822, 3.175683838034662, 0};
Point(p15 + 19) = {32.71875793150717, 3.096305371051275, 0};
Point(p15 + 20) = {32.712353, 3.014923, 0};
Point(p15 + 21) = {32.71875793150717, 2.933540628948726, 0};
Point(p15 + 22) = {32.73781501535822, 2.854162161965338, 0};
Point(p15 + 23) = {32.76905500290191, 2.778742160348997, 0};
Point(p15 + 24) = {32.81170866196533, 2.70913771484413, 0};
Point(p15 + 25) = {32.86472571790298, 2.647062717902979, 0};
Point(p15 + 26) = {32.92680071484413, 2.594045661965338, 0};
Point(p15 + 27) = {32.99640516034899, 2.551392002901913, 0};
Point(p15 + 28) = {33.07182516196534, 2.520152015358224, 0};
Point(p15 + 29) = {33.15120362894872, 2.50109493150717, 0};
Point(p15 + 30) = {33.232586, 2.49469, 0};
Point(p15 + 31) = {33.31396837105127, 2.50109493150717, 0};
Point(p15 + 32) = {33.39334683803466, 2.520152015358224, 0};
Point(p15 + 33) = {33.468766839651, 2.551392002901913, 0};
Point(p15 + 34) = {33.53837128515587, 2.594045661965338, 0};
Point(p15 + 35) = {33.60044628209702, 2.647062717902979, 0};
Point(p15 + 36) = {33.65346333803466, 2.70913771484413, 0};
Point(p15 + 37) = {33.69611699709809, 2.778742160348996, 0};
Point(p15 + 38) = {33.72735698464177, 2.854162161965338, 0};
Point(p15 + 39) = {33.74641406849283, 2.933540628948725, 0};
Spline(15) = {10, p15 + 1, p15 + 2, p15 + 3, p15 + 4, p15 + 5, p15 + 6, p15 + 7, p15 + 8, p15 + 9, p15 + 10, p15 + 11, p15 + 12, p15 + 13, p15 + 14, p15 + 15, p15 + 16, p15 + 17, p15 + 18, p15 + 19, p15 + 20, p15 + 21, p15 + 22, p15 + 23, p15 + 24, p15 + 25, p15 + 26, p15 + 27, p15 + 28, p15 + 29, p15 + 30, p15 + 31, p15 + 32, p15 + 33, p15 + 34, p15 + 35, p15 + 36, p15 + 37, p15 + 38, p15 + 39, 10};
p16 = newp;
Point(p16 + 1) = {30.26988863351839, -1.373461834509251, 0.1};
Point(p16 + 2) = {30.24130309932137, -1.254394515490493, 0.1};
Point(p16 + 3) = {30.19444326813082, -1.141264875499744, 0.1};
Point(p16 + 4) = {30.13046298450951, -1.036858541729325, 0.1};
Point(p16 + 5) = {30.05093765537858, -0.9437463446214213, 0.1};
Point(p16 + 6) = {29.95782545827067, -0.864221015490493, 0.1};
Point(p16 + 7) = {29.85341912450026, -0.8002407318691798, 0.1};
Point(p16 + 8) = {29.74028948450951, -0.7533809006786258, 0.1};
Point(p16 + 9) = {29.62122216549075, -0.724795366481606, 0.1};
Point(p16 + 10) = {29.499149, -0.715188, 0.1};
Point(p16 + 11) = {29.37707583450925, -0.7247953664816061, 0.1};
Point(p16 + 12) = {29.25800851549049, -0.7533809006786258, 0.1};
Point(p16 + 13) = {29.14487887549974, -0.8002407318691798, 0.1};
Point(p16 + 14) = {29.04047254172933, -0.8642210154904929, 0.1};
Point(p16 + 15) = {28.94736034462142, -0.9437463446214213, 0.1};
Point(p16 + 16) = {28.86783501549049, -1.036858541729325, 0.1};
Point(p16 + 17) = {28.80385473186918, -1.141264875499744, 0.1};
Point(p16 + 18) = {28.75699490067862, -1.254394515490493, 0.1};
Point(p16 + 19) = {28.72840936648161, -1.373461834509251, 0.1};
Point(p16 + 20) = {28.718802, -1.495535, 0.1};
Point(p16 + 21) = {28.72840936648161, -1.617608165490749, 0.1};
Point(p16 + 22) = {28.75699490067862, -1.736675484509507, 0.1};
Point(p16 + 23) = {28.80385473186918, -1.849805124500256, 0.1};
Point(p16 + 24) = {28.86783501549049, -1.954211458270674, 0.1};
Point(p16 + 25) = {28.94736034462142, -2.047323655378579, 0.1};
Point(p16 + 26) = {29.04047254172933, -2.126848984509507, 0.1};
Point(p16 + 27) = {29.14487887549974, -2.190829268130821, 0.1};
Point(p16 + 28) = {29.25800851549049, -2.237689099321374, 0.1};
Point(p16 + 29) = {29.37707583450925, -2.266274633518394, 0.1};
Point(p16 + 30) = {29.499149, -2.275882, 0.1};
Point(p16 + 31) = {29.62122216549075, -2.266274633518394, 0.1};
Point(p16 + 32) = {29.74028948450951, -2.237689099321374, 0.1};
Point(p16 + 33) = {29.85341912450026, -2.190829268130821, 0.1};
Point(p16 + 34) = {29.95782545827067, -2.126848984509508, 0.1};
Point(p16 + 35) = {30.05093765537858, -2.047323655378579, 0.1};
Point(p16 + 36) = {30.13046298450951, -1.954211458270675, 0.1};
Point(p16 + 37) = {30.19444326813082, -1.849805124500256, 0.1};
Point(p16 + 38) = {30.24130309932137, -1.736675484509507, 0.1};
Point(p16 + 39) = {30.26988863351839, -1.617608165490749, 0.1};
Spline(16) = {11, p16 + 1, p16 + 2, p16 + 3, p16 + 4, p16 + 5, p16 + 6, p16 + 7, p16 + 8, p16 + 9, p16 + 10, p16 + 11, p16 + 12, p16 + 13, p16 + 14, p16 + 15, p16 + 16, p16 + 17, p16 + 18, p16 + 19, p16 + 20, p16 + 21, p16 + 22, p16 + 23, p16 + 24, p16 + 25, p16 + 26, p16 + 27, p16 + 28, p16 + 29, p16 + 30, p16 + 31, p16 + 32, p16 + 33, p16 + 34, p16 + 35, p16 + 36, p16 + 37, p16 + 38, p16 + 39, 11};
Line(17) = {12, 11};
p18 = newp;
Point(p18 + 1) = {30.26988863351839, -1.373461834509251, 0};
Point(p18 + 2) = {30.24130309932137, -1.254394515490493, 0};
Point(p18 + 3) = {30.19444326813082, -1.141264875499744, 0};
Point(p18 + 4) = {30.13046298450951, -1.036858541729325, 0};
Point(p18 + 5) = {30.05093765537858, -0.9437463446214213, 0};
Point(p18 + 6) = {29.95782545827067, -0.864221015490493, 0};
Point(p18 + 7) = {29.85341912450026, -0.8002407318691798, 0};
Point(p18 + 8) = {29.74028948450951, -0.7533809006786258, 0};
Point(p18 + 9) = {29.62122216549075, -0.724795366481606, 0};
Point(p18 + 10) = {29.499149, -0.715188, 0};
Point(p18 + 11) = {29.37707583450925, -0.7247953664816061, 0};
Point(p18 + 12) = {29.25800851549049, -0.7533809006786258, 0};
Point(p18 + 13) = {29.14487887549974, -0.8002407318691798, 0};
Point(p18 + 14) = {29.04047254172933, -0.8642210154904929, 0};
Point(p18 + 15) = {28.94736034462142, -0.9437463446214213, 0};
Point(p18 + 16) = {28.86783501549049, -1.036858541729325, 0};
Point(p18 + 17) = {28.80385473186918, -1.141264875499744, 0};
Point(p18 + 18) = {28.75699490067862, -1.254394515490493, 0};
Point(p18 + 19) = {28.72840936648161, -1.373461834509251, 0};
Point(p18 + 20) = {28.718802, -1.495535, 0};
Point(p18 + 21) = {28.72840936648161, -1.617608165490749, 0};
Point(p18 + 22) = {28.75699490067862, -1.736675484509507, 0};
Point(p18 + 23) = {28.80385473186918, -1.849805124500256, 0};
Point(p18 + 24) = {28.86783501549049, -1.954211458270674, 0};
Point(p18 + 25) = {28.94736034462142, -2.047323655378579, 0};
Point(p18 + 26) = {29.04047254172933, -2.126848984509507, 0};
Point(p18 + 27) = {29.14487887549974, -2.190829268130821, 0};
Point(p18 + 28) = {29.25800851549049, -2.237689099321374, 0};
Point(p18 + 29) = {29.37707583450925, -2.266274633518394, 0};
Point(p18 + 30) = {29.499149, -2.275882, 0};
Point(p18 + 31) = {29.62122216549075, -2.266274633518394, 0};
Point(p18 + 32) = {29.74028948450951, -2.237689099321374, 0};
Point(p18 + 33) = {29.85341912450026, -2.190829268130821, 0};
Point(p18 + 34) = {29.95782545827067, -2.126848984509508, 0};
Point(p18 + 35) = {30.05093765537858, -2.047323655378579, 0};
Point(p18 + 36) = {30.13046298450951, -1.954211458270675, 0};
Point(p18 + 37) = {30.19444326813082, -1.849805124500256, 0};
Point(p18 + 38) = {30.24130309932137, -1.736675484509507, 0};
Point(p18 + 39) = {30.26988863351839, -1.617608165490749, 0};
Spline(18) = {12, p18 + 1, p18 + 2, p18 + 3, p18 + 4, p18 + 5, p18 + 6, p18 + 7, p18 + 8, p18 + 9, p18 + 10, p18 + 11, p18 + 12, p18 + 13, p18 + 14, p18 + 15, p18 + 16, p18 + 17, p18 + 18, p18 + 19, p18 + 20, p18 + 21, p18 + 22, p18 + 23, p18 + 24, p18 + 25, p18 + 26, p18 + 27, p18 + 28, p18 + 29, p18 + 30, p18 + 31, p18 + 32, p18 + 33, p18 + 34, p18 + 35, p18 + 36, p18 + 37, p18 + 38, p18 + 39, 12};
Line(19) = {14, 13};
Line(20) = {13, 15};
Line(21) = {16, 15};
Line(22) = {14, 16};
Line(23) = {14, 17};
Line(24) = {17, 18};
Line(25) = {13, 18};
Line(26) = {15, 19};
Line(27) = {18, 19};
Line(28) = {16, 20};
Line(29) = {20, 19};
Line(30) = {17, 20};
Curve Loop(7) = {-13, -14, 15, 14};
Surface(7) = {7};
Curve Loop(8) = {13};
Plane Surface(8) = {8};
Curve Loop(9) = {15};
Plane Surface(9) = {9};
Curve Loop(10) = {-16, -17, 18, 17};
Surface(10) = {10};
Curve Loop(11) = {16};
Plane Surface(11) = {11};
Curve Loop(12) = {18};
Plane Surface(12) = {12};
Curve Loop(13) = {-19, 22, 21, -20};
Plane Surface(13) = {13};
Curve Loop(14) = {-23, 19, 25, -24};
Plane Surface(14) = {14};
Curve Loop(15) = {-20, 25, 27, -26};
Plane Surface(15) = {15};
Curve Loop(16) = {-28, 21, 26, -29};
Plane Surface(16) = {16};
Curve Loop(17) = {-22, 23, 30, -28, -18, -15};
Plane Surface(17) = {17};
Curve Loop(18) = {-24, 30, 29, -27};
Plane Surface(18) = {18};
Surface Loop(1) = {13, 14, 15, 16, 17, 18, 10, 7, 11, 8};
Volume(1) = {1};
Surface Loop(2) = {7, 8, 9};
Volume(2) = {2};
Surface Loop(3) = {10, 11, 12};
Volume(3) = {3};
Physical Surface("WALLS") = {13, 18};
Physical Surface("LOAD") = {8, 11};
Physical Surface("BORDER") = {7, 9, 10, 12, 14, 15, 16, 17};
Physical Volume("SOLID") = {1, 2, 3};
