cl__1 = 0.117849;
cl__2 = 0.059828;
cl__3 = 3.333047;
cl__4 = 4.319238;
cl__5 = 0.386218;
cl__6 = 0.491468;
Point(9) = {37.06458000000001, -0.3853630000000003, 0.1, cl__1};
Point(10) = {37.06458000000001, -0.3853630000000003, 0, cl__1};
Point(11) = {13.562446, -1.753749, 0.1, cl__2};
Point(12) = {13.562446, -1.753749, 0, cl__2};
Point(13) = {0.47459, -3.619679, 1, cl__3};
Point(14) = {0.47459, -3.619679, 0, cl__3};
Point(15) = {0.47459, 3.909979, 1, cl__4};
Point(16) = {0.47459, 3.909979, 0, cl__4};
Point(17) = {38.702778, -3.619679, 0, cl__5};
Point(18) = {38.702778, -3.619679, 1, cl__5};
Point(19) = {38.702778, 3.909979, 1, cl__6};
Point(20) = {38.702778, 3.909979, 0, cl__6};
p13 = newp;
Point(p13 + 1) = {37.05007079557299, -0.2010060779913432, 0.1};
Point(p13 + 2) = {37.00690044705823, -0.02118863524808512, 0.1};
Point(p13 + 3) = {36.93613195171032, 0.1496616260095577, 0.1};
Point(p13 + 4) = {36.83950786475192, 0.3073378053299135, 0.1};
Point(p13 + 5) = {36.71940739188088, 0.4479573918808779, 0.1};
Point(p13 + 6) = {36.57878780532992, 0.5680578647519148, 0.1};
Point(p13 + 7) = {36.42111162600956, 0.6646819517103221, 0.1};
Point(p13 + 8) = {36.25026136475192, 0.7354504470582243, 0.1};
Point(p13 + 9) = {36.07044392200866, 0.7786207955729857, 0.1};
Point(p13 + 10) = {35.886087, 0.79313, 0.1};
Point(p13 + 11) = {35.70173007799135, 0.7786207955729855, 0.1};
Point(p13 + 12) = {35.52191263524809, 0.7354504470582245, 0.1};
Point(p13 + 13) = {35.35106237399044, 0.6646819517103223, 0.1};
Point(p13 + 14) = {35.19338619467009, 0.568057864751915, 0.1};
Point(p13 + 15) = {35.05276660811913, 0.447957391880878, 0.1};
Point(p13 + 16) = {34.93266613524809, 0.3073378053299137, 0.1};
Point(p13 + 17) = {34.83604204828968, 0.1496616260095578, 0.1};
Point(p13 + 18) = {34.76527355294178, -0.02118863524808501, 0.1};
Point(p13 + 19) = {34.72210320442701, -0.2010060779913431, 0.1};
Point(p13 + 20) = {34.707594, -0.3853629999999998, 0.1};
Point(p13 + 21) = {34.72210320442701, -0.5697199220086566, 0.1};
Point(p13 + 22) = {34.76527355294178, -0.7495373647519152, 0.1};
Point(p13 + 23) = {34.83604204828968, -0.9203876260095571, 0.1};
Point(p13 + 24) = {34.93266613524809, -1.078063805329913, 0.1};
Point(p13 + 25) = {35.05276660811913, -1.218683391880878, 0.1};
Point(p13 + 26) = {35.19338619467009, -1.338783864751915, 0.1};
Point(p13 + 27) = {35.35106237399044, -1.435407951710322, 0.1};
Point(p13 + 28) = {35.52191263524809, -1.506176447058224, 0.1};
Point(p13 + 29) = {35.70173007799135, -1.549346795572986, 0.1};
Point(p13 + 30) = {35.886087, -1.563856, 0.1};
Point(p13 + 31) = {36.07044392200866, -1.549346795572986, 0.1};
Point(p13 + 32) = {36.25026136475192, -1.506176447058225, 0.1};
Point(p13 + 33) = {36.42111162600956, -1.435407951710322, 0.1};
Point(p13 + 34) = {36.57878780532992, -1.338783864751915, 0.1};
Point(p13 + 35) = {36.71940739188088, -1.218683391880878, 0.1};
Point(p13 + 36) = {36.83950786475192, -1.078063805329914, 0.1};
Point(p13 + 37) = {36.93613195171032, -0.9203876260095579, 0.1};
Point(p13 + 38) = {37.00690044705823, -0.7495373647519152, 0.1};
Point(p13 + 39) = {37.05007079557299, -0.5697199220086571, 0.1};
Spline(13) = {9, p13 + 1, p13 + 2, p13 + 3, p13 + 4, p13 + 5, p13 + 6, p13 + 7, p13 + 8, p13 + 9, p13 + 10, p13 + 11, p13 + 12, p13 + 13, p13 + 14, p13 + 15, p13 + 16, p13 + 17, p13 + 18, p13 + 19, p13 + 20, p13 + 21, p13 + 22, p13 + 23, p13 + 24, p13 + 25, p13 + 26, p13 + 27, p13 + 28, p13 + 29, p13 + 30, p13 + 31, p13 + 32, p13 + 33, p13 + 34, p13 + 35, p13 + 36, p13 + 37, p13 + 38, p13 + 39, 9};
Line(14) = {10, 9};
p15 = newp;
Point(p15 + 1) = {37.05007079557299, -0.2010060779913432, 0};
Point(p15 + 2) = {37.00690044705823, -0.02118863524808512, 0};
Point(p15 + 3) = {36.93613195171032, 0.1496616260095577, 0};
Point(p15 + 4) = {36.83950786475192, 0.3073378053299135, 0};
Point(p15 + 5) = {36.71940739188088, 0.4479573918808779, 0};
Point(p15 + 6) = {36.57878780532992, 0.5680578647519148, 0};
Point(p15 + 7) = {36.42111162600956, 0.6646819517103221, 0};
Point(p15 + 8) = {36.25026136475192, 0.7354504470582243, 0};
Point(p15 + 9) = {36.07044392200866, 0.7786207955729857, 0};
Point(p15 + 10) = {35.886087, 0.79313, 0};
Point(p15 + 11) = {35.70173007799135, 0.7786207955729855, 0};
Point(p15 + 12) = {35.52191263524809, 0.7354504470582245, 0};
Point(p15 + 13) = {35.35106237399044, 0.6646819517103223, 0};
Point(p15 + 14) = {35.19338619467009, 0.568057864751915, 0};
Point(p15 + 15) = {35.05276660811913, 0.447957391880878, 0};
Point(p15 + 16) = {34.93266613524809, 0.3073378053299137, 0};
Point(p15 + 17) = {34.83604204828968, 0.1496616260095578, 0};
Point(p15 + 18) = {34.76527355294178, -0.02118863524808501, 0};
Point(p15 + 19) = {34.72210320442701, -0.2010060779913431, 0};
Point(p15 + 20) = {34.707594, -0.3853629999999998, 0};
Point(p15 + 21) = {34.72210320442701, -0.5697199220086566, 0};
Point(p15 + 22) = {34.76527355294178, -0.7495373647519152, 0};
Point(p15 + 23) = {34.83604204828968, -0.9203876260095571, 0};
Point(p15 + 24) = {34.93266613524809, -1.078063805329913, 0};
Point(p15 + 25) = {35.05276660811913, -1.218683391880878, 0};
Point(p15 + 26) = {35.19338619467009, -1.338783864751915, 0};
Point(p15 + 27) = {35.35106237399044, -1.435407951710322, 0};
Point(p15 + 28) = {35.52191263524809, -1.506176447058224, 0};
Point(p15 + 29) = {35.70173007799135, -1.549346795572986, 0};
Point(p15 + 30) = {35.886087, -1.563856, 0};
Point(p15 + 31) = {36.07044392200866, -1.549346795572986, 0};
Point(p15 + 32) = {36.25026136475192, -1.506176447058225, 0};
Point(p15 + 33) = {36.42111162600956, -1.435407951710322, 0};
Point(p15 + 34) = {36.57878780532992, -1.338783864751915, 0};
Point(p15 + 35) = {36.71940739188088, -1.218683391880878, 0};
Point(p15 + 36) = {36.83950786475192, -1.078063805329914, 0};
Point(p15 + 37) = {36.93613195171032, -0.9203876260095579, 0};
Point(p15 + 38) = {37.00690044705823, -0.7495373647519152, 0};
Point(p15 + 39) = {37.05007079557299, -0.5697199220086571, 0};
Spline(15) = {10, p15 + 1, p15 + 2, p15 + 3, p15 + 4, p15 + 5, p15 + 6, p15 + 7, p15 + 8, p15 + 9, p15 + 10, p15 + 11, p15 + 12, p15 + 13, p15 + 14, p15 + 15, p15 + 16, p15 + 17, p15 + 18, p15 + 19, p15 + 20, p15 + 21, p15 + 22, p15 + 23, p15 + 24, p15 + 25, p15 + 26, p15 + 27, p15 + 28, p15 + 29, p15 + 30, p15 + 31, p15 + 32, p15 + 33, p15 + 34, p15 + 35, p15 + 36, p15 + 37, p15 + 38, p15 + 39, 10};
p16 = newp;
Point(p16 + 1) = {13.55508021734624, -1.660157857559126, 0.1};
Point(p16 + 2) = {13.53316423939952, -1.56887123965634, 0.1};
Point(p16 + 3) = {13.49723771027184, -1.482136925787323, 0.1};
Point(p16 + 4) = {13.44818526034366, -1.402090602614216, 0.1};
Point(p16 + 5) = {13.38721472372794, -1.330703276272056, 0.1};
Point(p16 + 6) = {13.31582739738578, -1.26973273965634, 0.1};
Point(p16 + 7) = {13.23578107421268, -1.220680289728156, 0.1};
Point(p16 + 8) = {13.14904676034366, -1.184753760600485, 0.1};
Point(p16 + 9) = {13.05776014244088, -1.162837782653763, 0.1};
Point(p16 + 10) = {12.964169, -1.155472, 0.1};
Point(p16 + 11) = {12.87057785755912, -1.162837782653763, 0.1};
Point(p16 + 12) = {12.77929123965634, -1.184753760600485, 0.1};
Point(p16 + 13) = {12.69255692578732, -1.220680289728156, 0.1};
Point(p16 + 14) = {12.61251060261422, -1.26973273965634, 0.1};
Point(p16 + 15) = {12.54112327627206, -1.330703276272056, 0.1};
Point(p16 + 16) = {12.48015273965634, -1.402090602614216, 0.1};
Point(p16 + 17) = {12.43110028972816, -1.482136925787323, 0.1};
Point(p16 + 18) = {12.39517376060048, -1.56887123965634, 0.1};
Point(p16 + 19) = {12.37325778265376, -1.660157857559126, 0.1};
Point(p16 + 20) = {12.365892, -1.753749, 0.1};
Point(p16 + 21) = {12.37325778265376, -1.847340142440874, 0.1};
Point(p16 + 22) = {12.39517376060049, -1.938626760343661, 0.1};
Point(p16 + 23) = {12.43110028972816, -2.025361074212677, 0.1};
Point(p16 + 24) = {12.48015273965634, -2.105407397385784, 0.1};
Point(p16 + 25) = {12.54112327627206, -2.176794723727944, 0.1};
Point(p16 + 26) = {12.61251060261422, -2.23776526034366, 0.1};
Point(p16 + 27) = {12.69255692578732, -2.286817710271844, 0.1};
Point(p16 + 28) = {12.77929123965634, -2.322744239399515, 0.1};
Point(p16 + 29) = {12.87057785755912, -2.344660217346237, 0.1};
Point(p16 + 30) = {12.964169, -2.352026, 0.1};
Point(p16 + 31) = {13.05776014244087, -2.344660217346237, 0.1};
Point(p16 + 32) = {13.14904676034366, -2.322744239399515, 0.1};
Point(p16 + 33) = {13.23578107421268, -2.286817710271844, 0.1};
Point(p16 + 34) = {13.31582739738578, -2.23776526034366, 0.1};
Point(p16 + 35) = {13.38721472372794, -2.176794723727944, 0.1};
Point(p16 + 36) = {13.44818526034366, -2.105407397385784, 0.1};
Point(p16 + 37) = {13.49723771027184, -2.025361074212677, 0.1};
Point(p16 + 38) = {13.53316423939952, -1.93862676034366, 0.1};
Point(p16 + 39) = {13.55508021734624, -1.847340142440874, 0.1};
Spline(16) = {11, p16 + 1, p16 + 2, p16 + 3, p16 + 4, p16 + 5, p16 + 6, p16 + 7, p16 + 8, p16 + 9, p16 + 10, p16 + 11, p16 + 12, p16 + 13, p16 + 14, p16 + 15, p16 + 16, p16 + 17, p16 + 18, p16 + 19, p16 + 20, p16 + 21, p16 + 22, p16 + 23, p16 + 24, p16 + 25, p16 + 26, p16 + 27, p16 + 28, p16 + 29, p16 + 30, p16 + 31, p16 + 32, p16 + 33, p16 + 34, p16 + 35, p16 + 36, p16 + 37, p16 + 38, p16 + 39, 11};
Line(17) = {12, 11};
p18 = newp;
Point(p18 + 1) = {13.55508021734624, -1.660157857559126, 0};
Point(p18 + 2) = {13.53316423939952, -1.56887123965634, 0};
Point(p18 + 3) = {13.49723771027184, -1.482136925787323, 0};
Point(p18 + 4) = {13.44818526034366, -1.402090602614216, 0};
Point(p18 + 5) = {13.38721472372794, -1.330703276272056, 0};
Point(p18 + 6) = {13.31582739738578, -1.26973273965634, 0};
Point(p18 + 7) = {13.23578107421268, -1.220680289728156, 0};
Point(p18 + 8) = {13.14904676034366, -1.184753760600485, 0};
Point(p18 + 9) = {13.05776014244088, -1.162837782653763, 0};
Point(p18 + 10) = {12.964169, -1.155472, 0};
Point(p18 + 11) = {12.87057785755912, -1.162837782653763, 0};
Point(p18 + 12) = {12.77929123965634, -1.184753760600485, 0};
Point(p18 + 13) = {12.69255692578732, -1.220680289728156, 0};
Point(p18 + 14) = {12.61251060261422, -1.26973273965634, 0};
Point(p18 + 15) = {12.54112327627206, -1.330703276272056, 0};
Point(p18 + 16) = {12.48015273965634, -1.402090602614216, 0};
Point(p18 + 17) = {12.43110028972816, -1.482136925787323, 0};
Point(p18 + 18) = {12.39517376060048, -1.56887123965634, 0};
Point(p18 + 19) = {12.37325778265376, -1.660157857559126, 0};
Point(p18 + 20) = {12.365892, -1.753749, 0};
Point(p18 + 21) = {12.37325778265376, -1.847340142440874, 0};
Point(p18 + 22) = {12.39517376060049, -1.938626760343661, 0};
Point(p18 + 23) = {12.43110028972816, -2.025361074212677, 0};
Point(p18 + 24) = {12.48015273965634, -2.105407397385784, 0};
Point(p18 + 25) = {12.54112327627206, -2.176794723727944, 0};
Point(p18 + 26) = {12.61251060261422, -2.23776526034366, 0};
Point(p18 + 27) = {12.69255692578732, -2.286817710271844, 0};
Point(p18 + 28) = {12.77929123965634, -2.322744239399515, 0};
Point(p18 + 29) = {12.87057785755912, -2.344660217346237, 0};
Point(p18 + 30) = {12.964169, -2.352026, 0};
Point(p18 + 31) = {13.05776014244087, -2.344660217346237, 0};
Point(p18 + 32) = {13.14904676034366, -2.322744239399515, 0};
Point(p18 + 33) = {13.23578107421268, -2.286817710271844, 0};
Point(p18 + 34) = {13.31582739738578, -2.23776526034366, 0};
Point(p18 + 35) = {13.38721472372794, -2.176794723727944, 0};
Point(p18 + 36) = {13.44818526034366, -2.105407397385784, 0};
Point(p18 + 37) = {13.49723771027184, -2.025361074212677, 0};
Point(p18 + 38) = {13.53316423939952, -1.93862676034366, 0};
Point(p18 + 39) = {13.55508021734624, -1.847340142440874, 0};
Spline(18) = {12, p18 + 1, p18 + 2, p18 + 3, p18 + 4, p18 + 5, p18 + 6, p18 + 7, p18 + 8, p18 + 9, p18 + 10, p18 + 11, p18 + 12, p18 + 13, p18 + 14, p18 + 15, p18 + 16, p18 + 17, p18 + 18, p18 + 19, p18 + 20, p18 + 21, p18 + 22, p18 + 23, p18 + 24, p18 + 25, p18 + 26, p18 + 27, p18 + 28, p18 + 29, p18 + 30, p18 + 31, p18 + 32, p18 + 33, p18 + 34, p18 + 35, p18 + 36, p18 + 37, p18 + 38, p18 + 39, 12};
Line(19) = {14, 13};
Line(20) = {13, 15};
Line(21) = {16, 15};
Line(22) = {14, 16};
Line(23) = {14, 17};
Line(24) = {17, 18};
Line(25) = {13, 18};
Line(26) = {15, 19};
Line(27) = {18, 19};
Line(28) = {16, 20};
Line(29) = {20, 19};
Line(30) = {17, 20};
Curve Loop(7) = {-13, -14, 15, 14};
Surface(7) = {7};
Curve Loop(8) = {13};
Plane Surface(8) = {8};
Curve Loop(9) = {15};
Plane Surface(9) = {9};
Curve Loop(10) = {-16, -17, 18, 17};
Surface(10) = {10};
Curve Loop(11) = {16};
Plane Surface(11) = {11};
Curve Loop(12) = {18};
Plane Surface(12) = {12};
Curve Loop(13) = {-19, 22, 21, -20};
Plane Surface(13) = {13};
Curve Loop(14) = {-23, 19, 25, -24};
Plane Surface(14) = {14};
Curve Loop(15) = {-20, 25, 27, -26};
Plane Surface(15) = {15};
Curve Loop(16) = {-28, 21, 26, -29};
Plane Surface(16) = {16};
Curve Loop(17) = {-22, 23, 30, -28, -18, -15};
Plane Surface(17) = {17};
Curve Loop(18) = {-24, 30, 29, -27};
Plane Surface(18) = {18};
Surface Loop(1) = {13, 14, 15, 16, 17, 18, 10, 7, 11, 8};
Volume(1) = {1};
Surface Loop(2) = {7, 8, 9};
Volume(2) = {2};
Surface Loop(3) = {10, 11, 12};
Volume(3) = {3};
Physical Surface("WALLS") = {13, 18};
Physical Surface("LOAD") = {8, 11};
Physical Surface("BORDER") = {7, 9, 10, 12, 14, 15, 16, 17};
Physical Volume("SOLID") = {1, 2, 3};
