cl__1 = 0.09933599999999999;
cl__2 = 0.050638;
cl__3 = 1.965065;
cl__4 = 1.905089;
cl__5 = 0.638127;
cl__6 = 0.869664;
Point(9) = {16.321078, 0.8304259999999998, 0.1, cl__1};
Point(10) = {16.321078, 0.8304259999999998, 0, cl__1};
Point(11) = {25.632021, -2.308333, 0.1, cl__2};
Point(12) = {25.632021, -2.308333, 0, cl__2};
Point(13) = {0.200671, -3.96459, 1, cl__3};
Point(14) = {0.200671, -3.96459, 0, cl__3};
Point(15) = {0.200671, 5.092204000000001, 1, cl__4};
Point(16) = {0.200671, 5.092204000000001, 0, cl__4};
Point(17) = {33.039093, -3.96459, 0, cl__5};
Point(18) = {33.039093, -3.96459, 1, cl__5};
Point(19) = {33.039093, 5.092204000000001, 1, cl__6};
Point(20) = {33.039093, 5.092204000000001, 0, cl__6};
p13 = newp;
Point(p13 + 1) = {16.30884807770193, 0.9858218966268288, 0.1};
Point(p13 + 2) = {16.27245945208347, 1.137391430549292, 0.1};
Point(p13 + 3) = {16.21280813187428, 1.281402456811776, 0.1};
Point(p13 + 4) = {16.13136293054929, 1.414308946002504, 0.1};
Point(p13 + 5) = {16.03012929926625, 1.53283829926625, 0.1};
Point(p13 + 6) = {15.9115999460025, 1.634071930549292, 0.1};
Point(p13 + 7) = {15.77869345681178, 1.715517131874281, 0.1};
Point(p13 + 8) = {15.63468243054929, 1.77516845208347, 0.1};
Point(p13 + 9) = {15.48311289662683, 1.811557077701927, 0.1};
Point(p13 + 10) = {15.327717, 1.823787, 0.1};
Point(p13 + 11) = {15.17232110337317, 1.811557077701927, 0.1};
Point(p13 + 12) = {15.02075156945071, 1.77516845208347, 0.1};
Point(p13 + 13) = {14.87674054318822, 1.715517131874281, 0.1};
Point(p13 + 14) = {14.7438340539975, 1.634071930549292, 0.1};
Point(p13 + 15) = {14.62530470073375, 1.53283829926625, 0.1};
Point(p13 + 16) = {14.52407106945071, 1.414308946002504, 0.1};
Point(p13 + 17) = {14.44262586812572, 1.281402456811776, 0.1};
Point(p13 + 18) = {14.38297454791653, 1.137391430549292, 0.1};
Point(p13 + 19) = {14.34658592229807, 0.9858218966268288, 0.1};
Point(p13 + 20) = {14.334356, 0.8304260000000001, 0.1};
Point(p13 + 21) = {14.34658592229807, 0.6750301033731714, 0.1};
Point(p13 + 22) = {14.38297454791653, 0.5234605694507075, 0.1};
Point(p13 + 23) = {14.44262586812572, 0.3794495431882245, 0.1};
Point(p13 + 24) = {14.52407106945071, 0.2465430539974967, 0.1};
Point(p13 + 25) = {14.62530470073375, 0.12801370073375, 0.1};
Point(p13 + 26) = {14.7438340539975, 0.02678006945070788, 0.1};
Point(p13 + 27) = {14.87674054318822, -0.05466513187428124, 0.1};
Point(p13 + 28) = {15.02075156945071, -0.1143164520834701, 0.1};
Point(p13 + 29) = {15.17232110337317, -0.1507050777019265, 0.1};
Point(p13 + 30) = {15.327717, -0.1629350000000001, 0.1};
Point(p13 + 31) = {15.48311289662683, -0.1507050777019266, 0.1};
Point(p13 + 32) = {15.63468243054929, -0.1143164520834702, 0.1};
Point(p13 + 33) = {15.77869345681178, -0.05466513187428146, 0.1};
Point(p13 + 34) = {15.9115999460025, 0.02678006945070766, 0.1};
Point(p13 + 35) = {16.03012929926625, 0.1280137007337497, 0.1};
Point(p13 + 36) = {16.13136293054929, 0.2465430539974964, 0.1};
Point(p13 + 37) = {16.21280813187428, 0.3794495431882239, 0.1};
Point(p13 + 38) = {16.27245945208347, 0.5234605694507076, 0.1};
Point(p13 + 39) = {16.30884807770193, 0.6750301033731709, 0.1};
Spline(13) = {9, p13 + 1, p13 + 2, p13 + 3, p13 + 4, p13 + 5, p13 + 6, p13 + 7, p13 + 8, p13 + 9, p13 + 10, p13 + 11, p13 + 12, p13 + 13, p13 + 14, p13 + 15, p13 + 16, p13 + 17, p13 + 18, p13 + 19, p13 + 20, p13 + 21, p13 + 22, p13 + 23, p13 + 24, p13 + 25, p13 + 26, p13 + 27, p13 + 28, p13 + 29, p13 + 30, p13 + 31, p13 + 32, p13 + 33, p13 + 34, p13 + 35, p13 + 36, p13 + 37, p13 + 38, p13 + 39, 9};
Line(14) = {10, 9};
p15 = newp;
Point(p15 + 1) = {16.30884807770193, 0.9858218966268288, 0};
Point(p15 + 2) = {16.27245945208347, 1.137391430549292, 0};
Point(p15 + 3) = {16.21280813187428, 1.281402456811776, 0};
Point(p15 + 4) = {16.13136293054929, 1.414308946002504, 0};
Point(p15 + 5) = {16.03012929926625, 1.53283829926625, 0};
Point(p15 + 6) = {15.9115999460025, 1.634071930549292, 0};
Point(p15 + 7) = {15.77869345681178, 1.715517131874281, 0};
Point(p15 + 8) = {15.63468243054929, 1.77516845208347, 0};
Point(p15 + 9) = {15.48311289662683, 1.811557077701927, 0};
Point(p15 + 10) = {15.327717, 1.823787, 0};
Point(p15 + 11) = {15.17232110337317, 1.811557077701927, 0};
Point(p15 + 12) = {15.02075156945071, 1.77516845208347, 0};
Point(p15 + 13) = {14.87674054318822, 1.715517131874281, 0};
Point(p15 + 14) = {14.7438340539975, 1.634071930549292, 0};
Point(p15 + 15) = {14.62530470073375, 1.53283829926625, 0};
Point(p15 + 16) = {14.52407106945071, 1.414308946002504, 0};
Point(p15 + 17) = {14.44262586812572, 1.281402456811776, 0};
Point(p15 + 18) = {14.38297454791653, 1.137391430549292, 0};
Point(p15 + 19) = {14.34658592229807, 0.9858218966268288, 0};
Point(p15 + 20) = {14.334356, 0.8304260000000001, 0};
Point(p15 + 21) = {14.34658592229807, 0.6750301033731714, 0};
Point(p15 + 22) = {14.38297454791653, 0.5234605694507075, 0};
Point(p15 + 23) = {14.44262586812572, 0.3794495431882245, 0};
Point(p15 + 24) = {14.52407106945071, 0.2465430539974967, 0};
Point(p15 + 25) = {14.62530470073375, 0.12801370073375, 0};
Point(p15 + 26) = {14.7438340539975, 0.02678006945070788, 0};
Point(p15 + 27) = {14.87674054318822, -0.05466513187428124, 0};
Point(p15 + 28) = {15.02075156945071, -0.1143164520834701, 0};
Point(p15 + 29) = {15.17232110337317, -0.1507050777019265, 0};
Point(p15 + 30) = {15.327717, -0.1629350000000001, 0};
Point(p15 + 31) = {15.48311289662683, -0.1507050777019266, 0};
Point(p15 + 32) = {15.63468243054929, -0.1143164520834702, 0};
Point(p15 + 33) = {15.77869345681178, -0.05466513187428146, 0};
Point(p15 + 34) = {15.9115999460025, 0.02678006945070766, 0};
Point(p15 + 35) = {16.03012929926625, 0.1280137007337497, 0};
Point(p15 + 36) = {16.13136293054929, 0.2465430539974964, 0};
Point(p15 + 37) = {16.21280813187428, 0.3794495431882239, 0};
Point(p15 + 38) = {16.27245945208347, 0.5234605694507076, 0};
Point(p15 + 39) = {16.30884807770193, 0.6750301033731709, 0};
Spline(15) = {10, p15 + 1, p15 + 2, p15 + 3, p15 + 4, p15 + 5, p15 + 6, p15 + 7, p15 + 8, p15 + 9, p15 + 10, p15 + 11, p15 + 12, p15 + 13, p15 + 14, p15 + 15, p15 + 16, p15 + 17, p15 + 18, p15 + 19, p15 + 20, p15 + 21, p15 + 22, p15 + 23, p15 + 24, p15 + 25, p15 + 26, p15 + 27, p15 + 28, p15 + 29, p15 + 30, p15 + 31, p15 + 32, p15 + 33, p15 + 34, p15 + 35, p15 + 36, p15 + 37, p15 + 38, p15 + 39, 10};
p16 = newp;
Point(p16 + 1) = {25.62578664653389, -2.229118028461858, 0.1};
Point(p16 + 2) = {25.60723709660851, -2.151853592422403, 0.1};
Point(p16 + 3) = {25.57682910170546, -2.078442198722888, 0.1};
Point(p16 + 4) = {25.5353114075776, -2.010691479514642, 0.1};
Point(p16 + 5) = {25.48370631764368, -1.950269682356319, 0.1};
Point(p16 + 6) = {25.42328452048536, -1.898664592422403, 0.1};
Point(p16 + 7) = {25.35553380127711, -1.857146898294543, 0.1};
Point(p16 + 8) = {25.2821224075776, -1.826738903391493, 0.1};
Point(p16 + 9) = {25.20485797153814, -1.808189353466116, 0.1};
Point(p16 + 10) = {25.125643, -1.801955, 0.1};
Point(p16 + 11) = {25.04642802846186, -1.808189353466116, 0.1};
Point(p16 + 12) = {24.9691635924224, -1.826738903391493, 0.1};
Point(p16 + 13) = {24.89575219872289, -1.857146898294543, 0.1};
Point(p16 + 14) = {24.82800147951464, -1.898664592422403, 0.1};
Point(p16 + 15) = {24.76757968235632, -1.950269682356319, 0.1};
Point(p16 + 16) = {24.7159745924224, -2.010691479514642, 0.1};
Point(p16 + 17) = {24.67445689829454, -2.078442198722888, 0.1};
Point(p16 + 18) = {24.64404890339149, -2.151853592422403, 0.1};
Point(p16 + 19) = {24.62549935346611, -2.229118028461858, 0.1};
Point(p16 + 20) = {24.619265, -2.308333, 0.1};
Point(p16 + 21) = {24.62549935346611, -2.387547971538142, 0.1};
Point(p16 + 22) = {24.64404890339149, -2.464812407577598, 0.1};
Point(p16 + 23) = {24.67445689829454, -2.538223801277112, 0.1};
Point(p16 + 24) = {24.7159745924224, -2.605974520485358, 0.1};
Point(p16 + 25) = {24.76757968235632, -2.666396317643682, 0.1};
Point(p16 + 26) = {24.82800147951464, -2.718001407577597, 0.1};
Point(p16 + 27) = {24.89575219872289, -2.759519101705457, 0.1};
Point(p16 + 28) = {24.9691635924224, -2.789927096608507, 0.1};
Point(p16 + 29) = {25.04642802846186, -2.808476646533885, 0.1};
Point(p16 + 30) = {25.125643, -2.814711, 0.1};
Point(p16 + 31) = {25.20485797153814, -2.808476646533885, 0.1};
Point(p16 + 32) = {25.2821224075776, -2.789927096608507, 0.1};
Point(p16 + 33) = {25.35553380127711, -2.759519101705457, 0.1};
Point(p16 + 34) = {25.42328452048536, -2.718001407577598, 0.1};
Point(p16 + 35) = {25.48370631764368, -2.666396317643682, 0.1};
Point(p16 + 36) = {25.5353114075776, -2.605974520485358, 0.1};
Point(p16 + 37) = {25.57682910170546, -2.538223801277113, 0.1};
Point(p16 + 38) = {25.60723709660851, -2.464812407577597, 0.1};
Point(p16 + 39) = {25.62578664653389, -2.387547971538142, 0.1};
Spline(16) = {11, p16 + 1, p16 + 2, p16 + 3, p16 + 4, p16 + 5, p16 + 6, p16 + 7, p16 + 8, p16 + 9, p16 + 10, p16 + 11, p16 + 12, p16 + 13, p16 + 14, p16 + 15, p16 + 16, p16 + 17, p16 + 18, p16 + 19, p16 + 20, p16 + 21, p16 + 22, p16 + 23, p16 + 24, p16 + 25, p16 + 26, p16 + 27, p16 + 28, p16 + 29, p16 + 30, p16 + 31, p16 + 32, p16 + 33, p16 + 34, p16 + 35, p16 + 36, p16 + 37, p16 + 38, p16 + 39, 11};
Line(17) = {12, 11};
p18 = newp;
Point(p18 + 1) = {25.62578664653389, -2.229118028461858, 0};
Point(p18 + 2) = {25.60723709660851, -2.151853592422403, 0};
Point(p18 + 3) = {25.57682910170546, -2.078442198722888, 0};
Point(p18 + 4) = {25.5353114075776, -2.010691479514642, 0};
Point(p18 + 5) = {25.48370631764368, -1.950269682356319, 0};
Point(p18 + 6) = {25.42328452048536, -1.898664592422403, 0};
Point(p18 + 7) = {25.35553380127711, -1.857146898294543, 0};
Point(p18 + 8) = {25.2821224075776, -1.826738903391493, 0};
Point(p18 + 9) = {25.20485797153814, -1.808189353466116, 0};
Point(p18 + 10) = {25.125643, -1.801955, 0};
Point(p18 + 11) = {25.04642802846186, -1.808189353466116, 0};
Point(p18 + 12) = {24.9691635924224, -1.826738903391493, 0};
Point(p18 + 13) = {24.89575219872289, -1.857146898294543, 0};
Point(p18 + 14) = {24.82800147951464, -1.898664592422403, 0};
Point(p18 + 15) = {24.76757968235632, -1.950269682356319, 0};
Point(p18 + 16) = {24.7159745924224, -2.010691479514642, 0};
Point(p18 + 17) = {24.67445689829454, -2.078442198722888, 0};
Point(p18 + 18) = {24.64404890339149, -2.151853592422403, 0};
Point(p18 + 19) = {24.62549935346611, -2.229118028461858, 0};
Point(p18 + 20) = {24.619265, -2.308333, 0};
Point(p18 + 21) = {24.62549935346611, -2.387547971538142, 0};
Point(p18 + 22) = {24.64404890339149, -2.464812407577598, 0};
Point(p18 + 23) = {24.67445689829454, -2.538223801277112, 0};
Point(p18 + 24) = {24.7159745924224, -2.605974520485358, 0};
Point(p18 + 25) = {24.76757968235632, -2.666396317643682, 0};
Point(p18 + 26) = {24.82800147951464, -2.718001407577597, 0};
Point(p18 + 27) = {24.89575219872289, -2.759519101705457, 0};
Point(p18 + 28) = {24.9691635924224, -2.789927096608507, 0};
Point(p18 + 29) = {25.04642802846186, -2.808476646533885, 0};
Point(p18 + 30) = {25.125643, -2.814711, 0};
Point(p18 + 31) = {25.20485797153814, -2.808476646533885, 0};
Point(p18 + 32) = {25.2821224075776, -2.789927096608507, 0};
Point(p18 + 33) = {25.35553380127711, -2.759519101705457, 0};
Point(p18 + 34) = {25.42328452048536, -2.718001407577598, 0};
Point(p18 + 35) = {25.48370631764368, -2.666396317643682, 0};
Point(p18 + 36) = {25.5353114075776, -2.605974520485358, 0};
Point(p18 + 37) = {25.57682910170546, -2.538223801277113, 0};
Point(p18 + 38) = {25.60723709660851, -2.464812407577597, 0};
Point(p18 + 39) = {25.62578664653389, -2.387547971538142, 0};
Spline(18) = {12, p18 + 1, p18 + 2, p18 + 3, p18 + 4, p18 + 5, p18 + 6, p18 + 7, p18 + 8, p18 + 9, p18 + 10, p18 + 11, p18 + 12, p18 + 13, p18 + 14, p18 + 15, p18 + 16, p18 + 17, p18 + 18, p18 + 19, p18 + 20, p18 + 21, p18 + 22, p18 + 23, p18 + 24, p18 + 25, p18 + 26, p18 + 27, p18 + 28, p18 + 29, p18 + 30, p18 + 31, p18 + 32, p18 + 33, p18 + 34, p18 + 35, p18 + 36, p18 + 37, p18 + 38, p18 + 39, 12};
Line(19) = {14, 13};
Line(20) = {13, 15};
Line(21) = {16, 15};
Line(22) = {14, 16};
Line(23) = {14, 17};
Line(24) = {17, 18};
Line(25) = {13, 18};
Line(26) = {15, 19};
Line(27) = {18, 19};
Line(28) = {16, 20};
Line(29) = {20, 19};
Line(30) = {17, 20};
Curve Loop(7) = {-13, -14, 15, 14};
Surface(7) = {7};
Curve Loop(8) = {13};
Plane Surface(8) = {8};
Curve Loop(9) = {15};
Plane Surface(9) = {9};
Curve Loop(10) = {-16, -17, 18, 17};
Surface(10) = {10};
Curve Loop(11) = {16};
Plane Surface(11) = {11};
Curve Loop(12) = {18};
Plane Surface(12) = {12};
Curve Loop(13) = {-19, 22, 21, -20};
Plane Surface(13) = {13};
Curve Loop(14) = {-23, 19, 25, -24};
Plane Surface(14) = {14};
Curve Loop(15) = {-20, 25, 27, -26};
Plane Surface(15) = {15};
Curve Loop(16) = {-28, 21, 26, -29};
Plane Surface(16) = {16};
Curve Loop(17) = {-22, 23, 30, -28, -18, -15};
Plane Surface(17) = {17};
Curve Loop(18) = {-24, 30, 29, -27};
Plane Surface(18) = {18};
Surface Loop(1) = {13, 14, 15, 16, 17, 18, 10, 7, 11, 8};
Volume(1) = {1};
Surface Loop(2) = {7, 8, 9};
Volume(2) = {2};
Surface Loop(3) = {10, 11, 12};
Volume(3) = {3};
Physical Surface("WALLS") = {13, 18};
Physical Surface("LOAD") = {8, 11};
Physical Surface("BORDER") = {7, 9, 10, 12, 14, 15, 16, 17};
Physical Volume("SOLID") = {1, 2, 3};
