cl__1 = 0.063254;
cl__2 = 0.05142;
cl__3 = 2.33745;
cl__4 = 1.46985;
cl__5 = 0.572846;
cl__6 = 0.9630300000000001;
Point(9) = {33.063201, -2.012866, 0.1, cl__1};
Point(10) = {33.063201, -2.012866, 0, cl__1};
Point(11) = {11.216131, 3.242481, 0.1, cl__2};
Point(12) = {11.216131, 3.242481, 0, cl__2};
Point(13) = {0.05162, -3.540031, 0.1, cl__3};
Point(14) = {0.05162, -3.540031, 0, cl__3};
Point(15) = {0.05162, 5.520762, 0.1, cl__4};
Point(16) = {0.05162, 5.520762, 0, cl__4};
Point(17) = {38.088958, -3.540031, 0, cl__5};
Point(18) = {38.088958, -3.540031, 0.1, cl__5};
Point(19) = {38.088958, 5.520762, 0.1, cl__6};
Point(20) = {38.088958, 5.520762, 0, cl__6};
p13 = newp;
Point(p13 + 1) = {33.05541339527171, -1.913915099917917, 0.1};
Point(p13 + 2) = {33.03224233776082, -1.817400699395065, 0.1};
Point(p13 + 3) = {32.99425837580358, -1.725699303285247, 0.1};
Point(p13 + 4) = {32.94239680060493, -1.641068904300171, 0.1};
Point(p13 + 5) = {32.87793461626496, -1.565593383735042, 0.1};
Point(p13 + 6) = {32.80245909569982, -1.501131199395065, 0.1};
Point(p13 + 7) = {32.71782869671475, -1.449269624196414, 0.1};
Point(p13 + 8) = {32.62612730060494, -1.41128566223918, 0.1};
Point(p13 + 9) = {32.52961290008208, -1.388114604728292, 0.1};
Point(p13 + 10) = {32.430662, -1.380327, 0.1};
Point(p13 + 11) = {32.33171109991792, -1.388114604728292, 0.1};
Point(p13 + 12) = {32.23519669939506, -1.41128566223918, 0.1};
Point(p13 + 13) = {32.14349530328524, -1.449269624196414, 0.1};
Point(p13 + 14) = {32.05886490430017, -1.501131199395065, 0.1};
Point(p13 + 15) = {31.98338938373504, -1.565593383735042, 0.1};
Point(p13 + 16) = {31.91892719939506, -1.641068904300171, 0.1};
Point(p13 + 17) = {31.86706562419641, -1.725699303285247, 0.1};
Point(p13 + 18) = {31.82908166223918, -1.817400699395065, 0.1};
Point(p13 + 19) = {31.80591060472829, -1.913915099917917, 0.1};
Point(p13 + 20) = {31.798123, -2.012866, 0.1};
Point(p13 + 21) = {31.80591060472829, -2.111816900082082, 0.1};
Point(p13 + 22) = {31.82908166223918, -2.208331300604935, 0.1};
Point(p13 + 23) = {31.86706562419641, -2.300032696714753, 0.1};
Point(p13 + 24) = {31.91892719939506, -2.384663095699828, 0.1};
Point(p13 + 25) = {31.98338938373504, -2.460138616264957, 0.1};
Point(p13 + 26) = {32.05886490430017, -2.524600800604935, 0.1};
Point(p13 + 27) = {32.14349530328524, -2.576462375803586, 0.1};
Point(p13 + 28) = {32.23519669939506, -2.61444633776082, 0.1};
Point(p13 + 29) = {32.33171109991792, -2.637617395271707, 0.1};
Point(p13 + 30) = {32.430662, -2.645405, 0.1};
Point(p13 + 31) = {32.52961290008208, -2.637617395271707, 0.1};
Point(p13 + 32) = {32.62612730060494, -2.61444633776082, 0.1};
Point(p13 + 33) = {32.71782869671475, -2.576462375803586, 0.1};
Point(p13 + 34) = {32.80245909569982, -2.524600800604935, 0.1};
Point(p13 + 35) = {32.87793461626496, -2.460138616264957, 0.1};
Point(p13 + 36) = {32.94239680060493, -2.384663095699829, 0.1};
Point(p13 + 37) = {32.99425837580358, -2.300032696714753, 0.1};
Point(p13 + 38) = {33.03224233776082, -2.208331300604935, 0.1};
Point(p13 + 39) = {33.05541339527171, -2.111816900082083, 0.1};
Spline(13) = {9, p13 + 1, p13 + 2, p13 + 3, p13 + 4, p13 + 5, p13 + 6, p13 + 7, p13 + 8, p13 + 9, p13 + 10, p13 + 11, p13 + 12, p13 + 13, p13 + 14, p13 + 15, p13 + 16, p13 + 17, p13 + 18, p13 + 19, p13 + 20, p13 + 21, p13 + 22, p13 + 23, p13 + 24, p13 + 25, p13 + 26, p13 + 27, p13 + 28, p13 + 29, p13 + 30, p13 + 31, p13 + 32, p13 + 33, p13 + 34, p13 + 35, p13 + 36, p13 + 37, p13 + 38, p13 + 39, 9};
Line(14) = {10, 9};
p15 = newp;
Point(p15 + 1) = {33.05541339527171, -1.913915099917917, 0};
Point(p15 + 2) = {33.03224233776082, -1.817400699395065, 0};
Point(p15 + 3) = {32.99425837580358, -1.725699303285247, 0};
Point(p15 + 4) = {32.94239680060493, -1.641068904300171, 0};
Point(p15 + 5) = {32.87793461626496, -1.565593383735042, 0};
Point(p15 + 6) = {32.80245909569982, -1.501131199395065, 0};
Point(p15 + 7) = {32.71782869671475, -1.449269624196414, 0};
Point(p15 + 8) = {32.62612730060494, -1.41128566223918, 0};
Point(p15 + 9) = {32.52961290008208, -1.388114604728292, 0};
Point(p15 + 10) = {32.430662, -1.380327, 0};
Point(p15 + 11) = {32.33171109991792, -1.388114604728292, 0};
Point(p15 + 12) = {32.23519669939506, -1.41128566223918, 0};
Point(p15 + 13) = {32.14349530328524, -1.449269624196414, 0};
Point(p15 + 14) = {32.05886490430017, -1.501131199395065, 0};
Point(p15 + 15) = {31.98338938373504, -1.565593383735042, 0};
Point(p15 + 16) = {31.91892719939506, -1.641068904300171, 0};
Point(p15 + 17) = {31.86706562419641, -1.725699303285247, 0};
Point(p15 + 18) = {31.82908166223918, -1.817400699395065, 0};
Point(p15 + 19) = {31.80591060472829, -1.913915099917917, 0};
Point(p15 + 20) = {31.798123, -2.012866, 0};
Point(p15 + 21) = {31.80591060472829, -2.111816900082082, 0};
Point(p15 + 22) = {31.82908166223918, -2.208331300604935, 0};
Point(p15 + 23) = {31.86706562419641, -2.300032696714753, 0};
Point(p15 + 24) = {31.91892719939506, -2.384663095699828, 0};
Point(p15 + 25) = {31.98338938373504, -2.460138616264957, 0};
Point(p15 + 26) = {32.05886490430017, -2.524600800604935, 0};
Point(p15 + 27) = {32.14349530328524, -2.576462375803586, 0};
Point(p15 + 28) = {32.23519669939506, -2.61444633776082, 0};
Point(p15 + 29) = {32.33171109991792, -2.637617395271707, 0};
Point(p15 + 30) = {32.430662, -2.645405, 0};
Point(p15 + 31) = {32.52961290008208, -2.637617395271707, 0};
Point(p15 + 32) = {32.62612730060494, -2.61444633776082, 0};
Point(p15 + 33) = {32.71782869671475, -2.576462375803586, 0};
Point(p15 + 34) = {32.80245909569982, -2.524600800604935, 0};
Point(p15 + 35) = {32.87793461626496, -2.460138616264957, 0};
Point(p15 + 36) = {32.94239680060493, -2.384663095699829, 0};
Point(p15 + 37) = {32.99425837580358, -2.300032696714753, 0};
Point(p15 + 38) = {33.03224233776082, -2.208331300604935, 0};
Point(p15 + 39) = {33.05541339527171, -2.111816900082083, 0};
Spline(15) = {10, p15 + 1, p15 + 2, p15 + 3, p15 + 4, p15 + 5, p15 + 6, p15 + 7, p15 + 8, p15 + 9, p15 + 10, p15 + 11, p15 + 12, p15 + 13, p15 + 14, p15 + 15, p15 + 16, p15 + 17, p15 + 18, p15 + 19, p15 + 20, p15 + 21, p15 + 22, p15 + 23, p15 + 24, p15 + 25, p15 + 26, p15 + 27, p15 + 28, p15 + 29, p15 + 30, p15 + 31, p15 + 32, p15 + 33, p15 + 34, p15 + 35, p15 + 36, p15 + 37, p15 + 38, p15 + 39, 10};
p16 = newp;
Point(p16 + 1) = {11.20980030779904, 3.322920071227082, 0.1};
Point(p16 + 2) = {11.19096411384852, 3.401378465558581, 0.1};
Point(p16 + 3) = {11.16008622775723, 3.475924276937574, 0.1};
Point(p16 + 4) = {11.11792696555858, 3.544721940084547, 0.1};
Point(p16 + 5) = {11.06552442820647, 3.606077428206466, 0.1};
Point(p16 + 6) = {11.00416894008455, 3.658479965558581, 0.1};
Point(p16 + 7) = {10.93537127693758, 3.700639227757232, 0.1};
Point(p16 + 8) = {10.86082546555858, 3.731517113848517, 0.1};
Point(p16 + 9) = {10.78236707122708, 3.750353307799042, 0.1};
Point(p16 + 10) = {10.701928, 3.756684, 0.1};
Point(p16 + 11) = {10.62148892877292, 3.750353307799042, 0.1};
Point(p16 + 12) = {10.54303053444142, 3.731517113848517, 0.1};
Point(p16 + 13) = {10.46848472306243, 3.700639227757232, 0.1};
Point(p16 + 14) = {10.39968705991545, 3.658479965558581, 0.1};
Point(p16 + 15) = {10.33833157179353, 3.606077428206467, 0.1};
Point(p16 + 16) = {10.28592903444142, 3.544721940084547, 0.1};
Point(p16 + 17) = {10.24376977224277, 3.475924276937574, 0.1};
Point(p16 + 18) = {10.21289188615148, 3.401378465558581, 0.1};
Point(p16 + 19) = {10.19405569220096, 3.322920071227082, 0.1};
Point(p16 + 20) = {10.187725, 3.242481, 0.1};
Point(p16 + 21) = {10.19405569220096, 3.162041928772918, 0.1};
Point(p16 + 22) = {10.21289188615148, 3.083583534441419, 0.1};
Point(p16 + 23) = {10.24376977224277, 3.009037723062426, 0.1};
Point(p16 + 24) = {10.28592903444142, 2.940240059915454, 0.1};
Point(p16 + 25) = {10.33833157179353, 2.878884571793534, 0.1};
Point(p16 + 26) = {10.39968705991545, 2.826482034441419, 0.1};
Point(p16 + 27) = {10.46848472306243, 2.784322772242769, 0.1};
Point(p16 + 28) = {10.54303053444142, 2.753444886151483, 0.1};
Point(p16 + 29) = {10.62148892877292, 2.734608692200958, 0.1};
Point(p16 + 30) = {10.701928, 2.728278, 0.1};
Point(p16 + 31) = {10.78236707122708, 2.734608692200958, 0.1};
Point(p16 + 32) = {10.86082546555858, 2.753444886151483, 0.1};
Point(p16 + 33) = {10.93537127693758, 2.784322772242769, 0.1};
Point(p16 + 34) = {11.00416894008455, 2.826482034441419, 0.1};
Point(p16 + 35) = {11.06552442820647, 2.878884571793534, 0.1};
Point(p16 + 36) = {11.11792696555858, 2.940240059915454, 0.1};
Point(p16 + 37) = {11.16008622775723, 3.009037723062426, 0.1};
Point(p16 + 38) = {11.19096411384852, 3.083583534441419, 0.1};
Point(p16 + 39) = {11.20980030779904, 3.162041928772918, 0.1};
Spline(16) = {11, p16 + 1, p16 + 2, p16 + 3, p16 + 4, p16 + 5, p16 + 6, p16 + 7, p16 + 8, p16 + 9, p16 + 10, p16 + 11, p16 + 12, p16 + 13, p16 + 14, p16 + 15, p16 + 16, p16 + 17, p16 + 18, p16 + 19, p16 + 20, p16 + 21, p16 + 22, p16 + 23, p16 + 24, p16 + 25, p16 + 26, p16 + 27, p16 + 28, p16 + 29, p16 + 30, p16 + 31, p16 + 32, p16 + 33, p16 + 34, p16 + 35, p16 + 36, p16 + 37, p16 + 38, p16 + 39, 11};
Line(17) = {12, 11};
p18 = newp;
Point(p18 + 1) = {11.20980030779904, 3.322920071227082, 0};
Point(p18 + 2) = {11.19096411384852, 3.401378465558581, 0};
Point(p18 + 3) = {11.16008622775723, 3.475924276937574, 0};
Point(p18 + 4) = {11.11792696555858, 3.544721940084547, 0};
Point(p18 + 5) = {11.06552442820647, 3.606077428206466, 0};
Point(p18 + 6) = {11.00416894008455, 3.658479965558581, 0};
Point(p18 + 7) = {10.93537127693758, 3.700639227757232, 0};
Point(p18 + 8) = {10.86082546555858, 3.731517113848517, 0};
Point(p18 + 9) = {10.78236707122708, 3.750353307799042, 0};
Point(p18 + 10) = {10.701928, 3.756684, 0};
Point(p18 + 11) = {10.62148892877292, 3.750353307799042, 0};
Point(p18 + 12) = {10.54303053444142, 3.731517113848517, 0};
Point(p18 + 13) = {10.46848472306243, 3.700639227757232, 0};
Point(p18 + 14) = {10.39968705991545, 3.658479965558581, 0};
Point(p18 + 15) = {10.33833157179353, 3.606077428206467, 0};
Point(p18 + 16) = {10.28592903444142, 3.544721940084547, 0};
Point(p18 + 17) = {10.24376977224277, 3.475924276937574, 0};
Point(p18 + 18) = {10.21289188615148, 3.401378465558581, 0};
Point(p18 + 19) = {10.19405569220096, 3.322920071227082, 0};
Point(p18 + 20) = {10.187725, 3.242481, 0};
Point(p18 + 21) = {10.19405569220096, 3.162041928772918, 0};
Point(p18 + 22) = {10.21289188615148, 3.083583534441419, 0};
Point(p18 + 23) = {10.24376977224277, 3.009037723062426, 0};
Point(p18 + 24) = {10.28592903444142, 2.940240059915454, 0};
Point(p18 + 25) = {10.33833157179353, 2.878884571793534, 0};
Point(p18 + 26) = {10.39968705991545, 2.826482034441419, 0};
Point(p18 + 27) = {10.46848472306243, 2.784322772242769, 0};
Point(p18 + 28) = {10.54303053444142, 2.753444886151483, 0};
Point(p18 + 29) = {10.62148892877292, 2.734608692200958, 0};
Point(p18 + 30) = {10.701928, 2.728278, 0};
Point(p18 + 31) = {10.78236707122708, 2.734608692200958, 0};
Point(p18 + 32) = {10.86082546555858, 2.753444886151483, 0};
Point(p18 + 33) = {10.93537127693758, 2.784322772242769, 0};
Point(p18 + 34) = {11.00416894008455, 2.826482034441419, 0};
Point(p18 + 35) = {11.06552442820647, 2.878884571793534, 0};
Point(p18 + 36) = {11.11792696555858, 2.940240059915454, 0};
Point(p18 + 37) = {11.16008622775723, 3.009037723062426, 0};
Point(p18 + 38) = {11.19096411384852, 3.083583534441419, 0};
Point(p18 + 39) = {11.20980030779904, 3.162041928772918, 0};
Spline(18) = {12, p18 + 1, p18 + 2, p18 + 3, p18 + 4, p18 + 5, p18 + 6, p18 + 7, p18 + 8, p18 + 9, p18 + 10, p18 + 11, p18 + 12, p18 + 13, p18 + 14, p18 + 15, p18 + 16, p18 + 17, p18 + 18, p18 + 19, p18 + 20, p18 + 21, p18 + 22, p18 + 23, p18 + 24, p18 + 25, p18 + 26, p18 + 27, p18 + 28, p18 + 29, p18 + 30, p18 + 31, p18 + 32, p18 + 33, p18 + 34, p18 + 35, p18 + 36, p18 + 37, p18 + 38, p18 + 39, 12};
Line(19) = {14, 13};
Line(20) = {13, 15};
Line(21) = {16, 15};
Line(22) = {14, 16};
Line(23) = {14, 17};
Line(24) = {17, 18};
Line(25) = {13, 18};
Line(26) = {15, 19};
Line(27) = {18, 19};
Line(28) = {16, 20};
Line(29) = {20, 19};
Line(30) = {17, 20};
Curve Loop(7) = {-13, -14, 15, 14};
Surface(7) = {7};
Curve Loop(8) = {13};
Plane Surface(8) = {8};
Curve Loop(9) = {15};
Plane Surface(9) = {9};
Curve Loop(10) = {-16, -17, 18, 17};
Surface(10) = {10};
Curve Loop(11) = {16};
Plane Surface(11) = {11};
Curve Loop(12) = {18};
Plane Surface(12) = {12};
Curve Loop(13) = {-19, 22, 21, -20};
Plane Surface(13) = {13};
Curve Loop(14) = {-23, 19, 25, -24};
Plane Surface(14) = {14};
Curve Loop(15) = {-20, 25, 27, -26, -13, -16};
Plane Surface(15) = {15};
Curve Loop(16) = {-28, 21, 26, -29};
Plane Surface(16) = {16};
Curve Loop(17) = {-22, 23, 30, -28, -15, -18};
Plane Surface(17) = {17};
Curve Loop(18) = {-24, 30, 29, -27};
Plane Surface(18) = {18};
Surface Loop(1) = {13, 14, 15, 16, 17, 18, 7, 10};
Volume(1) = {1};
Surface Loop(2) = {7, 8, 9};
Volume(2) = {2};
Surface Loop(3) = {10, 11, 12};
Volume(3) = {3};
Physical Surface("WALLS") = {13, 18};
Physical Surface("LOAD") = {8, 11};
Physical Surface("BORDER") = {7, 9, 10, 12, 14, 15, 16, 17};
Physical Volume("SOLID") = {1, 2, 3};
