cl__1 = 0.06560000000000001;
cl__2 = 0.117581;
cl__3 = 0.46915;
cl__4 = 0.175763;
cl__5 = 4.739981;
cl__6 = 4.7018;
Point(9) = {9.852546999999999, 1.159263, 0.1, cl__1};
Point(10) = {9.852546999999999, 1.159263, 0, cl__1};
Point(11) = {5.105293, 4.107263, 0.1, cl__2};
Point(12) = {5.105293, 4.107263, 0, cl__2};
Point(13) = {0.269076, -3.940291, 0.1, cl__3};
Point(14) = {0.269076, -3.940291, 0, cl__3};
Point(15) = {0.269076, 5.834528000000001, 0.1, cl__4};
Point(16) = {0.269076, 5.834528000000001, 0, cl__4};
Point(17) = {36.831073, -3.940291, 0, cl__5};
Point(18) = {36.831073, -3.940291, 0.1, cl__5};
Point(19) = {36.831073, 5.834528000000001, 0.1, cl__6};
Point(20) = {36.831073, 5.834528000000001, 0, cl__6};
p13 = newp;
Point(p13 + 1) = {9.844470600677047, 1.261883383328531, 0.1};
Point(p13 + 2) = {9.820440270463555, 1.361976912241988, 0.1};
Point(p13 + 3) = {9.781047715841472, 1.457078951867144, 0.1};
Point(p13 + 4) = {9.727262912241988, 1.544847774362853, 0.1};
Point(p13 + 5) = {9.660410220031251, 1.62312222003125, 0.1};
Point(p13 + 6) = {9.582135774362852, 1.689974912241988, 0.1};
Point(p13 + 7) = {9.494366951867143, 1.743759715841473, 0.1};
Point(p13 + 8) = {9.399264912241987, 1.783152270463555, 0.1};
Point(p13 + 9) = {9.299171383328531, 1.807182600677048, 0.1};
Point(p13 + 10) = {9.196550999999999, 1.815259, 0.1};
Point(p13 + 11) = {9.093930616671468, 1.807182600677048, 0.1};
Point(p13 + 12) = {8.993837087758012, 1.783152270463555, 0.1};
Point(p13 + 13) = {8.898735048132856, 1.743759715841473, 0.1};
Point(p13 + 14) = {8.810966225637147, 1.689974912241988, 0.1};
Point(p13 + 15) = {8.732691779968748, 1.623122220031251, 0.1};
Point(p13 + 16) = {8.665839087758011, 1.544847774362853, 0.1};
Point(p13 + 17) = {8.612054284158527, 1.457078951867144, 0.1};
Point(p13 + 18) = {8.572661729536444, 1.361976912241988, 0.1};
Point(p13 + 19) = {8.548631399322952, 1.261883383328531, 0.1};
Point(p13 + 20) = {8.540554999999999, 1.159263, 0.1};
Point(p13 + 21) = {8.548631399322952, 1.056642616671469, 0.1};
Point(p13 + 22) = {8.572661729536444, 0.9565490877580117, 0.1};
Point(p13 + 23) = {8.612054284158527, 0.8614470481328564, 0.1};
Point(p13 + 24) = {8.665839087758011, 0.7736782256371468, 0.1};
Point(p13 + 25) = {8.732691779968748, 0.6954037799687496, 0.1};
Point(p13 + 26) = {8.810966225637147, 0.6285510877580119, 0.1};
Point(p13 + 27) = {8.898735048132856, 0.5747662841585274, 0.1};
Point(p13 + 28) = {8.993837087758012, 0.5353737295364444, 0.1};
Point(p13 + 29) = {9.093930616671468, 0.511343399322952, 0.1};
Point(p13 + 30) = {9.196550999999999, 0.5032669999999999, 0.1};
Point(p13 + 31) = {9.299171383328531, 0.5113433993229519, 0.1};
Point(p13 + 32) = {9.399264912241987, 0.5353737295364444, 0.1};
Point(p13 + 33) = {9.494366951867143, 0.5747662841585273, 0.1};
Point(p13 + 34) = {9.582135774362852, 0.6285510877580118, 0.1};
Point(p13 + 35) = {9.660410220031251, 0.6954037799687494, 0.1};
Point(p13 + 36) = {9.727262912241988, 0.7736782256371466, 0.1};
Point(p13 + 37) = {9.781047715841472, 0.861447048132856, 0.1};
Point(p13 + 38) = {9.820440270463555, 0.9565490877580118, 0.1};
Point(p13 + 39) = {9.844470600677047, 1.056642616671468, 0.1};
Spline(13) = {9, p13 + 1, p13 + 2, p13 + 3, p13 + 4, p13 + 5, p13 + 6, p13 + 7, p13 + 8, p13 + 9, p13 + 10, p13 + 11, p13 + 12, p13 + 13, p13 + 14, p13 + 15, p13 + 16, p13 + 17, p13 + 18, p13 + 19, p13 + 20, p13 + 21, p13 + 22, p13 + 23, p13 + 24, p13 + 25, p13 + 26, p13 + 27, p13 + 28, p13 + 29, p13 + 30, p13 + 31, p13 + 32, p13 + 33, p13 + 34, p13 + 35, p13 + 36, p13 + 37, p13 + 38, p13 + 39, 9};
Line(14) = {10, 9};
p15 = newp;
Point(p15 + 1) = {9.844470600677047, 1.261883383328531, 0};
Point(p15 + 2) = {9.820440270463555, 1.361976912241988, 0};
Point(p15 + 3) = {9.781047715841472, 1.457078951867144, 0};
Point(p15 + 4) = {9.727262912241988, 1.544847774362853, 0};
Point(p15 + 5) = {9.660410220031251, 1.62312222003125, 0};
Point(p15 + 6) = {9.582135774362852, 1.689974912241988, 0};
Point(p15 + 7) = {9.494366951867143, 1.743759715841473, 0};
Point(p15 + 8) = {9.399264912241987, 1.783152270463555, 0};
Point(p15 + 9) = {9.299171383328531, 1.807182600677048, 0};
Point(p15 + 10) = {9.196550999999999, 1.815259, 0};
Point(p15 + 11) = {9.093930616671468, 1.807182600677048, 0};
Point(p15 + 12) = {8.993837087758012, 1.783152270463555, 0};
Point(p15 + 13) = {8.898735048132856, 1.743759715841473, 0};
Point(p15 + 14) = {8.810966225637147, 1.689974912241988, 0};
Point(p15 + 15) = {8.732691779968748, 1.623122220031251, 0};
Point(p15 + 16) = {8.665839087758011, 1.544847774362853, 0};
Point(p15 + 17) = {8.612054284158527, 1.457078951867144, 0};
Point(p15 + 18) = {8.572661729536444, 1.361976912241988, 0};
Point(p15 + 19) = {8.548631399322952, 1.261883383328531, 0};
Point(p15 + 20) = {8.540554999999999, 1.159263, 0};
Point(p15 + 21) = {8.548631399322952, 1.056642616671469, 0};
Point(p15 + 22) = {8.572661729536444, 0.9565490877580117, 0};
Point(p15 + 23) = {8.612054284158527, 0.8614470481328564, 0};
Point(p15 + 24) = {8.665839087758011, 0.7736782256371468, 0};
Point(p15 + 25) = {8.732691779968748, 0.6954037799687496, 0};
Point(p15 + 26) = {8.810966225637147, 0.6285510877580119, 0};
Point(p15 + 27) = {8.898735048132856, 0.5747662841585274, 0};
Point(p15 + 28) = {8.993837087758012, 0.5353737295364444, 0};
Point(p15 + 29) = {9.093930616671468, 0.511343399322952, 0};
Point(p15 + 30) = {9.196550999999999, 0.5032669999999999, 0};
Point(p15 + 31) = {9.299171383328531, 0.5113433993229519, 0};
Point(p15 + 32) = {9.399264912241987, 0.5353737295364444, 0};
Point(p15 + 33) = {9.494366951867143, 0.5747662841585273, 0};
Point(p15 + 34) = {9.582135774362852, 0.6285510877580118, 0};
Point(p15 + 35) = {9.660410220031251, 0.6954037799687494, 0};
Point(p15 + 36) = {9.727262912241988, 0.7736782256371466, 0};
Point(p15 + 37) = {9.781047715841472, 0.861447048132856, 0};
Point(p15 + 38) = {9.820440270463555, 0.9565490877580118, 0};
Point(p15 + 39) = {9.844470600677047, 1.056642616671468, 0};
Spline(15) = {10, p15 + 1, p15 + 2, p15 + 3, p15 + 4, p15 + 5, p15 + 6, p15 + 7, p15 + 8, p15 + 9, p15 + 10, p15 + 11, p15 + 12, p15 + 13, p15 + 14, p15 + 15, p15 + 16, p15 + 17, p15 + 18, p15 + 19, p15 + 20, p15 + 21, p15 + 22, p15 + 23, p15 + 24, p15 + 25, p15 + 26, p15 + 27, p15 + 28, p15 + 29, p15 + 30, p15 + 31, p15 + 32, p15 + 33, p15 + 34, p15 + 35, p15 + 36, p15 + 37, p15 + 38, p15 + 39, 10};
p16 = newp;
Point(p16 + 1) = {5.09081680313185, 4.291200521207884, 0.1};
Point(p16 + 2) = {5.047744664538037, 4.470608890189995, 0.1};
Point(p16 + 3) = {4.977137163218973, 4.641070477479755, 0.1};
Point(p16 + 4) = {4.880732890189996, 4.798387953068517, 0.1};
Point(p16 + 5) = {4.760905638600517, 4.938687638600516, 0.1};
Point(p16 + 6) = {4.620605953068518, 5.058514890189995, 0.1};
Point(p16 + 7) = {4.463288477479756, 5.154919163218973, 0.1};
Point(p16 + 8) = {4.292826890189996, 5.225526664538036, 0.1};
Point(p16 + 9) = {4.113418521207884, 5.26859880313185, 0.1};
Point(p16 + 10) = {3.929481, 5.283075, 0.1};
Point(p16 + 11) = {3.745543478792116, 5.26859880313185, 0.1};
Point(p16 + 12) = {3.566135109810004, 5.225526664538037, 0.1};
Point(p16 + 13) = {3.395673522520244, 5.154919163218973, 0.1};
Point(p16 + 14) = {3.238356046931483, 5.058514890189995, 0.1};
Point(p16 + 15) = {3.098056361399483, 4.938687638600516, 0.1};
Point(p16 + 16) = {2.978229109810004, 4.798387953068517, 0.1};
Point(p16 + 17) = {2.881824836781027, 4.641070477479756, 0.1};
Point(p16 + 18) = {2.811217335461963, 4.470608890189996, 0.1};
Point(p16 + 19) = {2.76814519686815, 4.291200521207884, 0.1};
Point(p16 + 20) = {2.753669, 4.107263, 0.1};
Point(p16 + 21) = {2.76814519686815, 3.923325478792116, 0.1};
Point(p16 + 22) = {2.811217335461963, 3.743917109810003, 0.1};
Point(p16 + 23) = {2.881824836781027, 3.573455522520244, 0.1};
Point(p16 + 24) = {2.978229109810004, 3.416138046931482, 0.1};
Point(p16 + 25) = {3.098056361399483, 3.275838361399483, 0.1};
Point(p16 + 26) = {3.238356046931482, 3.156011109810004, 0.1};
Point(p16 + 27) = {3.395673522520244, 3.059606836781026, 0.1};
Point(p16 + 28) = {3.566135109810004, 2.988999335461963, 0.1};
Point(p16 + 29) = {3.745543478792116, 2.94592719686815, 0.1};
Point(p16 + 30) = {3.929481, 2.931451, 0.1};
Point(p16 + 31) = {4.113418521207883, 2.94592719686815, 0.1};
Point(p16 + 32) = {4.292826890189995, 2.988999335461962, 0.1};
Point(p16 + 33) = {4.463288477479756, 3.059606836781026, 0.1};
Point(p16 + 34) = {4.620605953068517, 3.156011109810004, 0.1};
Point(p16 + 35) = {4.760905638600517, 3.275838361399483, 0.1};
Point(p16 + 36) = {4.880732890189996, 3.416138046931482, 0.1};
Point(p16 + 37) = {4.977137163218973, 3.573455522520244, 0.1};
Point(p16 + 38) = {5.047744664538037, 3.743917109810004, 0.1};
Point(p16 + 39) = {5.09081680313185, 3.923325478792115, 0.1};
Spline(16) = {11, p16 + 1, p16 + 2, p16 + 3, p16 + 4, p16 + 5, p16 + 6, p16 + 7, p16 + 8, p16 + 9, p16 + 10, p16 + 11, p16 + 12, p16 + 13, p16 + 14, p16 + 15, p16 + 16, p16 + 17, p16 + 18, p16 + 19, p16 + 20, p16 + 21, p16 + 22, p16 + 23, p16 + 24, p16 + 25, p16 + 26, p16 + 27, p16 + 28, p16 + 29, p16 + 30, p16 + 31, p16 + 32, p16 + 33, p16 + 34, p16 + 35, p16 + 36, p16 + 37, p16 + 38, p16 + 39, 11};
Line(17) = {12, 11};
p18 = newp;
Point(p18 + 1) = {5.09081680313185, 4.291200521207884, 0};
Point(p18 + 2) = {5.047744664538037, 4.470608890189995, 0};
Point(p18 + 3) = {4.977137163218973, 4.641070477479755, 0};
Point(p18 + 4) = {4.880732890189996, 4.798387953068517, 0};
Point(p18 + 5) = {4.760905638600517, 4.938687638600516, 0};
Point(p18 + 6) = {4.620605953068518, 5.058514890189995, 0};
Point(p18 + 7) = {4.463288477479756, 5.154919163218973, 0};
Point(p18 + 8) = {4.292826890189996, 5.225526664538036, 0};
Point(p18 + 9) = {4.113418521207884, 5.26859880313185, 0};
Point(p18 + 10) = {3.929481, 5.283075, 0};
Point(p18 + 11) = {3.745543478792116, 5.26859880313185, 0};
Point(p18 + 12) = {3.566135109810004, 5.225526664538037, 0};
Point(p18 + 13) = {3.395673522520244, 5.154919163218973, 0};
Point(p18 + 14) = {3.238356046931483, 5.058514890189995, 0};
Point(p18 + 15) = {3.098056361399483, 4.938687638600516, 0};
Point(p18 + 16) = {2.978229109810004, 4.798387953068517, 0};
Point(p18 + 17) = {2.881824836781027, 4.641070477479756, 0};
Point(p18 + 18) = {2.811217335461963, 4.470608890189996, 0};
Point(p18 + 19) = {2.76814519686815, 4.291200521207884, 0};
Point(p18 + 20) = {2.753669, 4.107263, 0};
Point(p18 + 21) = {2.76814519686815, 3.923325478792116, 0};
Point(p18 + 22) = {2.811217335461963, 3.743917109810003, 0};
Point(p18 + 23) = {2.881824836781027, 3.573455522520244, 0};
Point(p18 + 24) = {2.978229109810004, 3.416138046931482, 0};
Point(p18 + 25) = {3.098056361399483, 3.275838361399483, 0};
Point(p18 + 26) = {3.238356046931482, 3.156011109810004, 0};
Point(p18 + 27) = {3.395673522520244, 3.059606836781026, 0};
Point(p18 + 28) = {3.566135109810004, 2.988999335461963, 0};
Point(p18 + 29) = {3.745543478792116, 2.94592719686815, 0};
Point(p18 + 30) = {3.929481, 2.931451, 0};
Point(p18 + 31) = {4.113418521207883, 2.94592719686815, 0};
Point(p18 + 32) = {4.292826890189995, 2.988999335461962, 0};
Point(p18 + 33) = {4.463288477479756, 3.059606836781026, 0};
Point(p18 + 34) = {4.620605953068517, 3.156011109810004, 0};
Point(p18 + 35) = {4.760905638600517, 3.275838361399483, 0};
Point(p18 + 36) = {4.880732890189996, 3.416138046931482, 0};
Point(p18 + 37) = {4.977137163218973, 3.573455522520244, 0};
Point(p18 + 38) = {5.047744664538037, 3.743917109810004, 0};
Point(p18 + 39) = {5.09081680313185, 3.923325478792115, 0};
Spline(18) = {12, p18 + 1, p18 + 2, p18 + 3, p18 + 4, p18 + 5, p18 + 6, p18 + 7, p18 + 8, p18 + 9, p18 + 10, p18 + 11, p18 + 12, p18 + 13, p18 + 14, p18 + 15, p18 + 16, p18 + 17, p18 + 18, p18 + 19, p18 + 20, p18 + 21, p18 + 22, p18 + 23, p18 + 24, p18 + 25, p18 + 26, p18 + 27, p18 + 28, p18 + 29, p18 + 30, p18 + 31, p18 + 32, p18 + 33, p18 + 34, p18 + 35, p18 + 36, p18 + 37, p18 + 38, p18 + 39, 12};
Line(19) = {14, 13};
Line(20) = {13, 15};
Line(21) = {16, 15};
Line(22) = {14, 16};
Line(23) = {14, 17};
Line(24) = {17, 18};
Line(25) = {13, 18};
Line(26) = {15, 19};
Line(27) = {18, 19};
Line(28) = {16, 20};
Line(29) = {20, 19};
Line(30) = {17, 20};
Curve Loop(7) = {-13, -14, 15, 14};
Surface(7) = {7};
Curve Loop(8) = {13};
Plane Surface(8) = {8};
Curve Loop(9) = {15};
Plane Surface(9) = {9};
Curve Loop(10) = {-16, -17, 18, 17};
Surface(10) = {10};
Curve Loop(11) = {16};
Plane Surface(11) = {11};
Curve Loop(12) = {18};
Plane Surface(12) = {12};
Curve Loop(13) = {-19, 22, 21, -20};
Plane Surface(13) = {13};
Curve Loop(14) = {-23, 19, 25, -24};
Plane Surface(14) = {14};
Curve Loop(15) = {-20, 25, 27, -26, -13, -16};
Plane Surface(15) = {15};
Curve Loop(16) = {-28, 21, 26, -29};
Plane Surface(16) = {16};
Curve Loop(17) = {-22, 23, 30, -28, -15, -18};
Plane Surface(17) = {17};
Curve Loop(18) = {-24, 30, 29, -27};
Plane Surface(18) = {18};
Surface Loop(1) = {13, 14, 15, 16, 17, 18, 7, 10};
Volume(1) = {1};
Surface Loop(2) = {7, 8, 9};
Volume(2) = {2};
Surface Loop(3) = {10, 11, 12};
Volume(3) = {3};
Physical Surface("WALLS") = {13, 18};
Physical Surface("LOAD") = {8, 11};
Physical Surface("BORDER") = {7, 9, 10, 12, 14, 15, 16, 17};
Physical Volume("SOLID") = {1, 2, 3};
