cl__1 = 0.113899;
cl__2 = 0.078967;
cl__3 = 2.518574;
cl__4 = 2.40987;
cl__5 = 0.597988;
cl__6 = 0.700752;
Point(9) = {28.57136, -0.7613810000000002, 0.1, cl__1};
Point(10) = {28.57136, -0.7613810000000002, 0, cl__1};
Point(11) = {18.603354, 1.160731, 0.1, cl__2};
Point(12) = {18.603354, 1.160731, 0, cl__2};
Point(13) = {0.045462, -3.922459, 1, cl__3};
Point(14) = {0.045462, -3.922459, 0, cl__3};
Point(15) = {0.045462, 5.205366, 1, cl__4};
Point(16) = {0.045462, 5.205366, 0, cl__4};
Point(17) = {35.767713, -3.922459, 0, cl__5};
Point(18) = {35.767713, -3.922459, 1, cl__5};
Point(19) = {35.767713, 5.205366, 1, cl__6};
Point(20) = {35.767713, 5.205366, 0, cl__6};
p13 = newp;
Point(p13 + 1) = {28.5573371307428, -0.5832035522293624, 0.1};
Point(p13 + 2) = {28.51561381255154, -0.4094134245598842, 0.1};
Point(p13 + 3) = {28.44721741199184, -0.2442899067111538, 0.1};
Point(p13 + 4) = {28.35383207544012, -0.09189888770614363, 0.1};
Point(p13 + 5) = {28.23775725981045, 0.04400725981044695, 0.1};
Point(p13 + 6) = {28.10185111229386, 0.1600820754401158, 0.1};
Point(p13 + 7) = {27.94946009328885, 0.2534674119918333, 0.1};
Point(p13 + 8) = {27.78433657544012, 0.3218638125515333, 0.1};
Point(p13 + 9) = {27.61054644777064, 0.3635871307427966, 0.1};
Point(p13 + 10) = {27.432369, 0.3776100000000001, 0.1};
Point(p13 + 11) = {27.25419155222936, 0.3635871307427966, 0.1};
Point(p13 + 12) = {27.08040142455988, 0.3218638125515335, 0.1};
Point(p13 + 13) = {26.91527790671115, 0.2534674119918335, 0.1};
Point(p13 + 14) = {26.76288688770614, 0.1600820754401159, 0.1};
Point(p13 + 15) = {26.62698074018956, 0.04400725981044706, 0.1};
Point(p13 + 16) = {26.51090592455989, -0.09189888770614352, 0.1};
Point(p13 + 17) = {26.41752058800817, -0.2442899067111537, 0.1};
Point(p13 + 18) = {26.34912418744847, -0.4094134245598841, 0.1};
Point(p13 + 19) = {26.3074008692572, -0.5832035522293623, 0.1};
Point(p13 + 20) = {26.293378, -0.7613809999999999, 0.1};
Point(p13 + 21) = {26.3074008692572, -0.9395584477706375, 0.1};
Point(p13 + 22) = {26.34912418744847, -1.113348575440116, 0.1};
Point(p13 + 23) = {26.41752058800817, -1.278472093288846, 0.1};
Point(p13 + 24) = {26.51090592455989, -1.430863112293856, 0.1};
Point(p13 + 25) = {26.62698074018956, -1.566769259810447, 0.1};
Point(p13 + 26) = {26.76288688770614, -1.682844075440116, 0.1};
Point(p13 + 27) = {26.91527790671115, -1.776229411991833, 0.1};
Point(p13 + 28) = {27.08040142455988, -1.844625812551533, 0.1};
Point(p13 + 29) = {27.25419155222936, -1.886349130742797, 0.1};
Point(p13 + 30) = {27.432369, -1.900372, 0.1};
Point(p13 + 31) = {27.61054644777064, -1.886349130742797, 0.1};
Point(p13 + 32) = {27.78433657544012, -1.844625812551533, 0.1};
Point(p13 + 33) = {27.94946009328885, -1.776229411991833, 0.1};
Point(p13 + 34) = {28.10185111229386, -1.682844075440116, 0.1};
Point(p13 + 35) = {28.23775725981045, -1.566769259810447, 0.1};
Point(p13 + 36) = {28.35383207544012, -1.430863112293856, 0.1};
Point(p13 + 37) = {28.44721741199184, -1.278472093288846, 0.1};
Point(p13 + 38) = {28.51561381255154, -1.113348575440116, 0.1};
Point(p13 + 39) = {28.5573371307428, -0.9395584477706379, 0.1};
Spline(13) = {9, p13 + 1, p13 + 2, p13 + 3, p13 + 4, p13 + 5, p13 + 6, p13 + 7, p13 + 8, p13 + 9, p13 + 10, p13 + 11, p13 + 12, p13 + 13, p13 + 14, p13 + 15, p13 + 16, p13 + 17, p13 + 18, p13 + 19, p13 + 20, p13 + 21, p13 + 22, p13 + 23, p13 + 24, p13 + 25, p13 + 26, p13 + 27, p13 + 28, p13 + 29, p13 + 30, p13 + 31, p13 + 32, p13 + 33, p13 + 34, p13 + 35, p13 + 36, p13 + 37, p13 + 38, p13 + 39, 9};
Line(14) = {10, 9};
p15 = newp;
Point(p15 + 1) = {28.5573371307428, -0.5832035522293624, 0};
Point(p15 + 2) = {28.51561381255154, -0.4094134245598842, 0};
Point(p15 + 3) = {28.44721741199184, -0.2442899067111538, 0};
Point(p15 + 4) = {28.35383207544012, -0.09189888770614363, 0};
Point(p15 + 5) = {28.23775725981045, 0.04400725981044695, 0};
Point(p15 + 6) = {28.10185111229386, 0.1600820754401158, 0};
Point(p15 + 7) = {27.94946009328885, 0.2534674119918333, 0};
Point(p15 + 8) = {27.78433657544012, 0.3218638125515333, 0};
Point(p15 + 9) = {27.61054644777064, 0.3635871307427966, 0};
Point(p15 + 10) = {27.432369, 0.3776100000000001, 0};
Point(p15 + 11) = {27.25419155222936, 0.3635871307427966, 0};
Point(p15 + 12) = {27.08040142455988, 0.3218638125515335, 0};
Point(p15 + 13) = {26.91527790671115, 0.2534674119918335, 0};
Point(p15 + 14) = {26.76288688770614, 0.1600820754401159, 0};
Point(p15 + 15) = {26.62698074018956, 0.04400725981044706, 0};
Point(p15 + 16) = {26.51090592455989, -0.09189888770614352, 0};
Point(p15 + 17) = {26.41752058800817, -0.2442899067111537, 0};
Point(p15 + 18) = {26.34912418744847, -0.4094134245598841, 0};
Point(p15 + 19) = {26.3074008692572, -0.5832035522293623, 0};
Point(p15 + 20) = {26.293378, -0.7613809999999999, 0};
Point(p15 + 21) = {26.3074008692572, -0.9395584477706375, 0};
Point(p15 + 22) = {26.34912418744847, -1.113348575440116, 0};
Point(p15 + 23) = {26.41752058800817, -1.278472093288846, 0};
Point(p15 + 24) = {26.51090592455989, -1.430863112293856, 0};
Point(p15 + 25) = {26.62698074018956, -1.566769259810447, 0};
Point(p15 + 26) = {26.76288688770614, -1.682844075440116, 0};
Point(p15 + 27) = {26.91527790671115, -1.776229411991833, 0};
Point(p15 + 28) = {27.08040142455988, -1.844625812551533, 0};
Point(p15 + 29) = {27.25419155222936, -1.886349130742797, 0};
Point(p15 + 30) = {27.432369, -1.900372, 0};
Point(p15 + 31) = {27.61054644777064, -1.886349130742797, 0};
Point(p15 + 32) = {27.78433657544012, -1.844625812551533, 0};
Point(p15 + 33) = {27.94946009328885, -1.776229411991833, 0};
Point(p15 + 34) = {28.10185111229386, -1.682844075440116, 0};
Point(p15 + 35) = {28.23775725981045, -1.566769259810447, 0};
Point(p15 + 36) = {28.35383207544012, -1.430863112293856, 0};
Point(p15 + 37) = {28.44721741199184, -1.278472093288846, 0};
Point(p15 + 38) = {28.51561381255154, -1.113348575440116, 0};
Point(p15 + 39) = {28.5573371307428, -0.9395584477706379, 0};
Spline(15) = {10, p15 + 1, p15 + 2, p15 + 3, p15 + 4, p15 + 5, p15 + 6, p15 + 7, p15 + 8, p15 + 9, p15 + 10, p15 + 11, p15 + 12, p15 + 13, p15 + 14, p15 + 15, p15 + 16, p15 + 17, p15 + 18, p15 + 19, p15 + 20, p15 + 21, p15 + 22, p15 + 23, p15 + 24, p15 + 25, p15 + 26, p15 + 27, p15 + 28, p15 + 29, p15 + 30, p15 + 31, p15 + 32, p15 + 33, p15 + 34, p15 + 35, p15 + 36, p15 + 37, p15 + 38, p15 + 39, 10};
p16 = newp;
Point(p16 + 1) = {18.59363182729444, 1.284262916877249, 0.1};
Point(p16 + 2) = {18.56470470133583, 1.404753067982053, 0.1};
Point(p16 + 3) = {18.51728490396888, 1.519234585910327, 0.1};
Point(p16 + 4) = {18.45254006798205, 1.624888555748302, 0.1};
Point(p16 + 5) = {18.37206442611314, 1.719113426113143, 0.1};
Point(p16 + 6) = {18.2778395557483, 1.799589067982053, 0.1};
Point(p16 + 7) = {18.17218558591033, 1.864333903968877, 0.1};
Point(p16 + 8) = {18.05770406798205, 1.911753701335826, 0.1};
Point(p16 + 9) = {17.93721391687725, 1.940680827294444, 0.1};
Point(p16 + 10) = {17.813682, 1.950403, 0.1};
Point(p16 + 11) = {17.69015008312275, 1.940680827294444, 0.1};
Point(p16 + 12) = {17.56965993201795, 1.911753701335827, 0.1};
Point(p16 + 13) = {17.45517841408967, 1.864333903968877, 0.1};
Point(p16 + 14) = {17.3495244442517, 1.799589067982053, 0.1};
Point(p16 + 15) = {17.25529957388686, 1.719113426113143, 0.1};
Point(p16 + 16) = {17.17482393201795, 1.624888555748302, 0.1};
Point(p16 + 17) = {17.11007909603112, 1.519234585910327, 0.1};
Point(p16 + 18) = {17.06265929866417, 1.404753067982053, 0.1};
Point(p16 + 19) = {17.03373217270556, 1.284262916877249, 0.1};
Point(p16 + 20) = {17.02401, 1.160731, 0.1};
Point(p16 + 21) = {17.03373217270556, 1.037199083122751, 0.1};
Point(p16 + 22) = {17.06265929866417, 0.9167089320179462, 0.1};
Point(p16 + 23) = {17.11007909603112, 0.8022274140896729, 0.1};
Point(p16 + 24) = {17.17482393201795, 0.6965734442516982, 0.1};
Point(p16 + 25) = {17.25529957388686, 0.6023485738868566, 0.1};
Point(p16 + 26) = {17.3495244442517, 0.5218729320179465, 0.1};
Point(p16 + 27) = {17.45517841408967, 0.4571280960311231, 0.1};
Point(p16 + 28) = {17.56965993201795, 0.4097082986641735, 0.1};
Point(p16 + 29) = {17.69015008312275, 0.3807811727055563, 0.1};
Point(p16 + 30) = {17.813682, 0.3710589999999999, 0.1};
Point(p16 + 31) = {17.93721391687725, 0.3807811727055563, 0.1};
Point(p16 + 32) = {18.05770406798205, 0.4097082986641734, 0.1};
Point(p16 + 33) = {18.17218558591033, 0.457128096031123, 0.1};
Point(p16 + 34) = {18.2778395557483, 0.5218729320179464, 0.1};
Point(p16 + 35) = {18.37206442611314, 0.6023485738868565, 0.1};
Point(p16 + 36) = {18.45254006798205, 0.696573444251698, 0.1};
Point(p16 + 37) = {18.51728490396888, 0.8022274140896724, 0.1};
Point(p16 + 38) = {18.56470470133583, 0.9167089320179463, 0.1};
Point(p16 + 39) = {18.59363182729444, 1.037199083122751, 0.1};
Spline(16) = {11, p16 + 1, p16 + 2, p16 + 3, p16 + 4, p16 + 5, p16 + 6, p16 + 7, p16 + 8, p16 + 9, p16 + 10, p16 + 11, p16 + 12, p16 + 13, p16 + 14, p16 + 15, p16 + 16, p16 + 17, p16 + 18, p16 + 19, p16 + 20, p16 + 21, p16 + 22, p16 + 23, p16 + 24, p16 + 25, p16 + 26, p16 + 27, p16 + 28, p16 + 29, p16 + 30, p16 + 31, p16 + 32, p16 + 33, p16 + 34, p16 + 35, p16 + 36, p16 + 37, p16 + 38, p16 + 39, 11};
Line(17) = {12, 11};
p18 = newp;
Point(p18 + 1) = {18.59363182729444, 1.284262916877249, 0};
Point(p18 + 2) = {18.56470470133583, 1.404753067982053, 0};
Point(p18 + 3) = {18.51728490396888, 1.519234585910327, 0};
Point(p18 + 4) = {18.45254006798205, 1.624888555748302, 0};
Point(p18 + 5) = {18.37206442611314, 1.719113426113143, 0};
Point(p18 + 6) = {18.2778395557483, 1.799589067982053, 0};
Point(p18 + 7) = {18.17218558591033, 1.864333903968877, 0};
Point(p18 + 8) = {18.05770406798205, 1.911753701335826, 0};
Point(p18 + 9) = {17.93721391687725, 1.940680827294444, 0};
Point(p18 + 10) = {17.813682, 1.950403, 0};
Point(p18 + 11) = {17.69015008312275, 1.940680827294444, 0};
Point(p18 + 12) = {17.56965993201795, 1.911753701335827, 0};
Point(p18 + 13) = {17.45517841408967, 1.864333903968877, 0};
Point(p18 + 14) = {17.3495244442517, 1.799589067982053, 0};
Point(p18 + 15) = {17.25529957388686, 1.719113426113143, 0};
Point(p18 + 16) = {17.17482393201795, 1.624888555748302, 0};
Point(p18 + 17) = {17.11007909603112, 1.519234585910327, 0};
Point(p18 + 18) = {17.06265929866417, 1.404753067982053, 0};
Point(p18 + 19) = {17.03373217270556, 1.284262916877249, 0};
Point(p18 + 20) = {17.02401, 1.160731, 0};
Point(p18 + 21) = {17.03373217270556, 1.037199083122751, 0};
Point(p18 + 22) = {17.06265929866417, 0.9167089320179462, 0};
Point(p18 + 23) = {17.11007909603112, 0.8022274140896729, 0};
Point(p18 + 24) = {17.17482393201795, 0.6965734442516982, 0};
Point(p18 + 25) = {17.25529957388686, 0.6023485738868566, 0};
Point(p18 + 26) = {17.3495244442517, 0.5218729320179465, 0};
Point(p18 + 27) = {17.45517841408967, 0.4571280960311231, 0};
Point(p18 + 28) = {17.56965993201795, 0.4097082986641735, 0};
Point(p18 + 29) = {17.69015008312275, 0.3807811727055563, 0};
Point(p18 + 30) = {17.813682, 0.3710589999999999, 0};
Point(p18 + 31) = {17.93721391687725, 0.3807811727055563, 0};
Point(p18 + 32) = {18.05770406798205, 0.4097082986641734, 0};
Point(p18 + 33) = {18.17218558591033, 0.457128096031123, 0};
Point(p18 + 34) = {18.2778395557483, 0.5218729320179464, 0};
Point(p18 + 35) = {18.37206442611314, 0.6023485738868565, 0};
Point(p18 + 36) = {18.45254006798205, 0.696573444251698, 0};
Point(p18 + 37) = {18.51728490396888, 0.8022274140896724, 0};
Point(p18 + 38) = {18.56470470133583, 0.9167089320179463, 0};
Point(p18 + 39) = {18.59363182729444, 1.037199083122751, 0};
Spline(18) = {12, p18 + 1, p18 + 2, p18 + 3, p18 + 4, p18 + 5, p18 + 6, p18 + 7, p18 + 8, p18 + 9, p18 + 10, p18 + 11, p18 + 12, p18 + 13, p18 + 14, p18 + 15, p18 + 16, p18 + 17, p18 + 18, p18 + 19, p18 + 20, p18 + 21, p18 + 22, p18 + 23, p18 + 24, p18 + 25, p18 + 26, p18 + 27, p18 + 28, p18 + 29, p18 + 30, p18 + 31, p18 + 32, p18 + 33, p18 + 34, p18 + 35, p18 + 36, p18 + 37, p18 + 38, p18 + 39, 12};
Line(19) = {14, 13};
Line(20) = {13, 15};
Line(21) = {16, 15};
Line(22) = {14, 16};
Line(23) = {14, 17};
Line(24) = {17, 18};
Line(25) = {13, 18};
Line(26) = {15, 19};
Line(27) = {18, 19};
Line(28) = {16, 20};
Line(29) = {20, 19};
Line(30) = {17, 20};
Curve Loop(7) = {-13, -14, 15, 14};
Surface(7) = {7};
Curve Loop(8) = {13};
Plane Surface(8) = {8};
Curve Loop(9) = {15};
Plane Surface(9) = {9};
Curve Loop(10) = {-16, -17, 18, 17};
Surface(10) = {10};
Curve Loop(11) = {16};
Plane Surface(11) = {11};
Curve Loop(12) = {18};
Plane Surface(12) = {12};
Curve Loop(13) = {-19, 22, 21, -20};
Plane Surface(13) = {13};
Curve Loop(14) = {-23, 19, 25, -24};
Plane Surface(14) = {14};
Curve Loop(15) = {-20, 25, 27, -26};
Plane Surface(15) = {15};
Curve Loop(16) = {-28, 21, 26, -29};
Plane Surface(16) = {16};
Curve Loop(17) = {-22, 23, 30, -28, -15, -18};
Plane Surface(17) = {17};
Curve Loop(18) = {-24, 30, 29, -27};
Plane Surface(18) = {18};
Surface Loop(1) = {13, 14, 15, 16, 17, 18, 7, 10, 8, 11};
Volume(1) = {1};
Surface Loop(2) = {7, 8, 9};
Volume(2) = {2};
Surface Loop(3) = {10, 11, 12};
Volume(3) = {3};
Physical Surface("WALLS") = {13, 18};
Physical Surface("LOAD") = {8, 11};
Physical Surface("BORDER") = {7, 9, 10, 12, 14, 15, 16, 17};
Physical Volume("SOLID") = {1, 2, 3};
