cl__1 = 0.14999;
cl__2 = 0.06403;
cl__3 = 2.178639;
cl__4 = 2.270075;
cl__5 = 0.724091;
cl__6 = 0.665284;
Point(9) = {23.590965, 1.320233, 0.1, cl__1};
Point(10) = {23.590965, 1.320233, 0, cl__1};
Point(11) = {18.318445, -0.09414100000000016, 0.1, cl__2};
Point(12) = {18.318445, -0.09414100000000016, 0, cl__2};
Point(13) = {0.137867, -4.160667, 0.1, cl__3};
Point(14) = {0.137867, -4.160667, 0, cl__3};
Point(15) = {0.137867, 4.928087, 0.1, cl__4};
Point(16) = {0.137867, 4.928087, 0, cl__4};
Point(17) = {31.857537, -4.160667, 0, cl__5};
Point(18) = {31.857537, -4.160667, 0.1, cl__5};
Point(19) = {31.857537, 4.928087, 0.1, cl__6};
Point(20) = {31.857537, 4.928087, 0, cl__6};
p13 = newp;
Point(p13 + 1) = {23.57249874205865, 1.554869054113842, 0.1};
Point(p13 + 2) = {23.5175546687911, 1.783727589862984, 0.1};
Point(p13 + 3) = {23.42748568563013, 2.001173350559346, 0.1};
Point(p13 + 4) = {23.30450958986298, 2.20185209991348, 0.1};
Point(p13 + 5) = {23.1516544611017, 2.380822461101703, 0.1};
Point(p13 + 6) = {22.97268409991348, 2.533677589862983, 0.1};
Point(p13 + 7) = {22.77200535055935, 2.656653685630133, 0.1};
Point(p13 + 8) = {22.55455958986298, 2.746722668791101, 0.1};
Point(p13 + 9) = {22.32570105411384, 2.801666742058647, 0.1};
Point(p13 + 10) = {22.091065, 2.820133, 0.1};
Point(p13 + 11) = {21.85642894588616, 2.801666742058647, 0.1};
Point(p13 + 12) = {21.62757041013702, 2.746722668791101, 0.1};
Point(p13 + 13) = {21.41012464944065, 2.656653685630133, 0.1};
Point(p13 + 14) = {21.20944590008652, 2.533677589862984, 0.1};
Point(p13 + 15) = {21.0304755388983, 2.380822461101703, 0.1};
Point(p13 + 16) = {20.87762041013702, 2.201852099913481, 0.1};
Point(p13 + 17) = {20.75464431436987, 2.001173350559347, 0.1};
Point(p13 + 18) = {20.6645753312089, 1.783727589862984, 0.1};
Point(p13 + 19) = {20.60963125794135, 1.554869054113842, 0.1};
Point(p13 + 20) = {20.591165, 1.320233, 0.1};
Point(p13 + 21) = {20.60963125794135, 1.085596945886158, 0.1};
Point(p13 + 22) = {20.6645753312089, 0.8567384101370159, 0.1};
Point(p13 + 23) = {20.75464431436987, 0.6392926494406544, 0.1};
Point(p13 + 24) = {20.87762041013702, 0.4386139000865197, 0.1};
Point(p13 + 25) = {21.0304755388983, 0.2596435388982974, 0.1};
Point(p13 + 26) = {21.20944590008652, 0.1067884101370165, 0.1};
Point(p13 + 27) = {21.41012464944065, -0.01618768563013284, 0.1};
Point(p13 + 28) = {21.62757041013702, -0.1062566687911009, 0.1};
Point(p13 + 29) = {21.85642894588616, -0.161200742058647, 0.1};
Point(p13 + 30) = {22.091065, -0.179667, 0.1};
Point(p13 + 31) = {22.32570105411384, -0.1612007420586472, 0.1};
Point(p13 + 32) = {22.55455958986298, -0.1062566687911011, 0.1};
Point(p13 + 33) = {22.77200535055935, -0.01618768563013329, 0.1};
Point(p13 + 34) = {22.97268409991348, 0.1067884101370162, 0.1};
Point(p13 + 35) = {23.1516544611017, 0.2596435388982972, 0.1};
Point(p13 + 36) = {23.30450958986298, 0.4386139000865193, 0.1};
Point(p13 + 37) = {23.42748568563013, 0.6392926494406534, 0.1};
Point(p13 + 38) = {23.5175546687911, 0.8567384101370161, 0.1};
Point(p13 + 39) = {23.57249874205865, 1.085596945886157, 0.1};
Spline(13) = {9, p13 + 1, p13 + 2, p13 + 3, p13 + 4, p13 + 5, p13 + 6, p13 + 7, p13 + 8, p13 + 9, p13 + 10, p13 + 11, p13 + 12, p13 + 13, p13 + 14, p13 + 15, p13 + 16, p13 + 17, p13 + 18, p13 + 19, p13 + 20, p13 + 21, p13 + 22, p13 + 23, p13 + 24, p13 + 25, p13 + 26, p13 + 27, p13 + 28, p13 + 29, p13 + 30, p13 + 31, p13 + 32, p13 + 33, p13 + 34, p13 + 35, p13 + 36, p13 + 37, p13 + 38, p13 + 39, 9};
Line(14) = {10, 9};
p15 = newp;
Point(p15 + 1) = {23.57249874205865, 1.554869054113842, 0};
Point(p15 + 2) = {23.5175546687911, 1.783727589862984, 0};
Point(p15 + 3) = {23.42748568563013, 2.001173350559346, 0};
Point(p15 + 4) = {23.30450958986298, 2.20185209991348, 0};
Point(p15 + 5) = {23.1516544611017, 2.380822461101703, 0};
Point(p15 + 6) = {22.97268409991348, 2.533677589862983, 0};
Point(p15 + 7) = {22.77200535055935, 2.656653685630133, 0};
Point(p15 + 8) = {22.55455958986298, 2.746722668791101, 0};
Point(p15 + 9) = {22.32570105411384, 2.801666742058647, 0};
Point(p15 + 10) = {22.091065, 2.820133, 0};
Point(p15 + 11) = {21.85642894588616, 2.801666742058647, 0};
Point(p15 + 12) = {21.62757041013702, 2.746722668791101, 0};
Point(p15 + 13) = {21.41012464944065, 2.656653685630133, 0};
Point(p15 + 14) = {21.20944590008652, 2.533677589862984, 0};
Point(p15 + 15) = {21.0304755388983, 2.380822461101703, 0};
Point(p15 + 16) = {20.87762041013702, 2.201852099913481, 0};
Point(p15 + 17) = {20.75464431436987, 2.001173350559347, 0};
Point(p15 + 18) = {20.6645753312089, 1.783727589862984, 0};
Point(p15 + 19) = {20.60963125794135, 1.554869054113842, 0};
Point(p15 + 20) = {20.591165, 1.320233, 0};
Point(p15 + 21) = {20.60963125794135, 1.085596945886158, 0};
Point(p15 + 22) = {20.6645753312089, 0.8567384101370159, 0};
Point(p15 + 23) = {20.75464431436987, 0.6392926494406544, 0};
Point(p15 + 24) = {20.87762041013702, 0.4386139000865197, 0};
Point(p15 + 25) = {21.0304755388983, 0.2596435388982974, 0};
Point(p15 + 26) = {21.20944590008652, 0.1067884101370165, 0};
Point(p15 + 27) = {21.41012464944065, -0.01618768563013284, 0};
Point(p15 + 28) = {21.62757041013702, -0.1062566687911009, 0};
Point(p15 + 29) = {21.85642894588616, -0.161200742058647, 0};
Point(p15 + 30) = {22.091065, -0.179667, 0};
Point(p15 + 31) = {22.32570105411384, -0.1612007420586472, 0};
Point(p15 + 32) = {22.55455958986298, -0.1062566687911011, 0};
Point(p15 + 33) = {22.77200535055935, -0.01618768563013329, 0};
Point(p15 + 34) = {22.97268409991348, 0.1067884101370162, 0};
Point(p15 + 35) = {23.1516544611017, 0.2596435388982972, 0};
Point(p15 + 36) = {23.30450958986298, 0.4386139000865193, 0};
Point(p15 + 37) = {23.42748568563013, 0.6392926494406534, 0};
Point(p15 + 38) = {23.5175546687911, 0.8567384101370161, 0};
Point(p15 + 39) = {23.57249874205865, 1.085596945886157, 0};
Spline(15) = {10, p15 + 1, p15 + 2, p15 + 3, p15 + 4, p15 + 5, p15 + 6, p15 + 7, p15 + 8, p15 + 9, p15 + 10, p15 + 11, p15 + 12, p15 + 13, p15 + 14, p15 + 15, p15 + 16, p15 + 17, p15 + 18, p15 + 19, p15 + 20, p15 + 21, p15 + 22, p15 + 23, p15 + 24, p15 + 25, p15 + 26, p15 + 27, p15 + 28, p15 + 29, p15 + 30, p15 + 31, p15 + 32, p15 + 33, p15 + 34, p15 + 35, p15 + 36, p15 + 37, p15 + 38, p15 + 39, 10};
p16 = newp;
Point(p16 + 1) = {18.31056188141805, 0.006023518661864707, 0.1};
Point(p16 + 2) = {18.28710663421424, 0.1037216544472957, 0.1};
Point(p16 + 3) = {18.24865680441824, 0.1965477550117326, 0.1};
Point(p16 + 4) = {18.1961591544473, 0.2822161336871136, 0.1};
Point(p16 + 5) = {18.1309063506734, 0.3586173506734028, 0.1};
Point(p16 + 6) = {18.05450513368712, 0.4238701544472956, 0.1};
Point(p16 + 7) = {17.96883675501173, 0.4763678044182393, 0.1};
Point(p16 + 8) = {17.8760106544473, 0.5148176342142379, 0.1};
Point(p16 + 9) = {17.77831251866186, 0.5382728814180449, 0.1};
Point(p16 + 10) = {17.678148, 0.546156, 0.1};
Point(p16 + 11) = {17.57798348133814, 0.5382728814180449, 0.1};
Point(p16 + 12) = {17.4802853455527, 0.514817634214238, 0.1};
Point(p16 + 13) = {17.38745924498827, 0.4763678044182393, 0.1};
Point(p16 + 14) = {17.30179086631288, 0.4238701544472957, 0.1};
Point(p16 + 15) = {17.2253896493266, 0.3586173506734028, 0.1};
Point(p16 + 16) = {17.1601368455527, 0.2822161336871137, 0.1};
Point(p16 + 17) = {17.10763919558176, 0.1965477550117326, 0.1};
Point(p16 + 18) = {17.06918936578576, 0.1037216544472958, 0.1};
Point(p16 + 19) = {17.04573411858195, 0.006023518661864777, 0.1};
Point(p16 + 20) = {17.037851, -0.09414099999999992, 0.1};
Point(p16 + 21) = {17.04573411858195, -0.1943055186618646, 0.1};
Point(p16 + 22) = {17.06918936578576, -0.2920036544472959, 0.1};
Point(p16 + 23) = {17.10763919558176, -0.3848297550117323, 0.1};
Point(p16 + 24) = {17.1601368455527, -0.4704981336871136, 0.1};
Point(p16 + 25) = {17.2253896493266, -0.5468993506734028, 0.1};
Point(p16 + 26) = {17.30179086631288, -0.6121521544472956, 0.1};
Point(p16 + 27) = {17.38745924498827, -0.6646498044182394, 0.1};
Point(p16 + 28) = {17.4802853455527, -0.7030996342142379, 0.1};
Point(p16 + 29) = {17.57798348133814, -0.7265548814180449, 0.1};
Point(p16 + 30) = {17.678148, -0.734438, 0.1};
Point(p16 + 31) = {17.77831251866186, -0.7265548814180449, 0.1};
Point(p16 + 32) = {17.8760106544473, -0.703099634214238, 0.1};
Point(p16 + 33) = {17.96883675501173, -0.6646498044182395, 0.1};
Point(p16 + 34) = {18.05450513368712, -0.6121521544472959, 0.1};
Point(p16 + 35) = {18.1309063506734, -0.5468993506734029, 0.1};
Point(p16 + 36) = {18.1961591544473, -0.4704981336871138, 0.1};
Point(p16 + 37) = {18.24865680441824, -0.3848297550117327, 0.1};
Point(p16 + 38) = {18.28710663421424, -0.2920036544472958, 0.1};
Point(p16 + 39) = {18.31056188141805, -0.1943055186618649, 0.1};
Spline(16) = {11, p16 + 1, p16 + 2, p16 + 3, p16 + 4, p16 + 5, p16 + 6, p16 + 7, p16 + 8, p16 + 9, p16 + 10, p16 + 11, p16 + 12, p16 + 13, p16 + 14, p16 + 15, p16 + 16, p16 + 17, p16 + 18, p16 + 19, p16 + 20, p16 + 21, p16 + 22, p16 + 23, p16 + 24, p16 + 25, p16 + 26, p16 + 27, p16 + 28, p16 + 29, p16 + 30, p16 + 31, p16 + 32, p16 + 33, p16 + 34, p16 + 35, p16 + 36, p16 + 37, p16 + 38, p16 + 39, 11};
Line(17) = {12, 11};
p18 = newp;
Point(p18 + 1) = {18.31056188141805, 0.006023518661864707, 0};
Point(p18 + 2) = {18.28710663421424, 0.1037216544472957, 0};
Point(p18 + 3) = {18.24865680441824, 0.1965477550117326, 0};
Point(p18 + 4) = {18.1961591544473, 0.2822161336871136, 0};
Point(p18 + 5) = {18.1309063506734, 0.3586173506734028, 0};
Point(p18 + 6) = {18.05450513368712, 0.4238701544472956, 0};
Point(p18 + 7) = {17.96883675501173, 0.4763678044182393, 0};
Point(p18 + 8) = {17.8760106544473, 0.5148176342142379, 0};
Point(p18 + 9) = {17.77831251866186, 0.5382728814180449, 0};
Point(p18 + 10) = {17.678148, 0.546156, 0};
Point(p18 + 11) = {17.57798348133814, 0.5382728814180449, 0};
Point(p18 + 12) = {17.4802853455527, 0.514817634214238, 0};
Point(p18 + 13) = {17.38745924498827, 0.4763678044182393, 0};
Point(p18 + 14) = {17.30179086631288, 0.4238701544472957, 0};
Point(p18 + 15) = {17.2253896493266, 0.3586173506734028, 0};
Point(p18 + 16) = {17.1601368455527, 0.2822161336871137, 0};
Point(p18 + 17) = {17.10763919558176, 0.1965477550117326, 0};
Point(p18 + 18) = {17.06918936578576, 0.1037216544472958, 0};
Point(p18 + 19) = {17.04573411858195, 0.006023518661864777, 0};
Point(p18 + 20) = {17.037851, -0.09414099999999992, 0};
Point(p18 + 21) = {17.04573411858195, -0.1943055186618646, 0};
Point(p18 + 22) = {17.06918936578576, -0.2920036544472959, 0};
Point(p18 + 23) = {17.10763919558176, -0.3848297550117323, 0};
Point(p18 + 24) = {17.1601368455527, -0.4704981336871136, 0};
Point(p18 + 25) = {17.2253896493266, -0.5468993506734028, 0};
Point(p18 + 26) = {17.30179086631288, -0.6121521544472956, 0};
Point(p18 + 27) = {17.38745924498827, -0.6646498044182394, 0};
Point(p18 + 28) = {17.4802853455527, -0.7030996342142379, 0};
Point(p18 + 29) = {17.57798348133814, -0.7265548814180449, 0};
Point(p18 + 30) = {17.678148, -0.734438, 0};
Point(p18 + 31) = {17.77831251866186, -0.7265548814180449, 0};
Point(p18 + 32) = {17.8760106544473, -0.703099634214238, 0};
Point(p18 + 33) = {17.96883675501173, -0.6646498044182395, 0};
Point(p18 + 34) = {18.05450513368712, -0.6121521544472959, 0};
Point(p18 + 35) = {18.1309063506734, -0.5468993506734029, 0};
Point(p18 + 36) = {18.1961591544473, -0.4704981336871138, 0};
Point(p18 + 37) = {18.24865680441824, -0.3848297550117327, 0};
Point(p18 + 38) = {18.28710663421424, -0.2920036544472958, 0};
Point(p18 + 39) = {18.31056188141805, -0.1943055186618649, 0};
Spline(18) = {12, p18 + 1, p18 + 2, p18 + 3, p18 + 4, p18 + 5, p18 + 6, p18 + 7, p18 + 8, p18 + 9, p18 + 10, p18 + 11, p18 + 12, p18 + 13, p18 + 14, p18 + 15, p18 + 16, p18 + 17, p18 + 18, p18 + 19, p18 + 20, p18 + 21, p18 + 22, p18 + 23, p18 + 24, p18 + 25, p18 + 26, p18 + 27, p18 + 28, p18 + 29, p18 + 30, p18 + 31, p18 + 32, p18 + 33, p18 + 34, p18 + 35, p18 + 36, p18 + 37, p18 + 38, p18 + 39, 12};
Line(19) = {14, 13};
Line(20) = {13, 15};
Line(21) = {16, 15};
Line(22) = {14, 16};
Line(23) = {14, 17};
Line(24) = {17, 18};
Line(25) = {13, 18};
Line(26) = {15, 19};
Line(27) = {18, 19};
Line(28) = {16, 20};
Line(29) = {20, 19};
Line(30) = {17, 20};
Curve Loop(7) = {-13, -14, 15, 14};
Surface(7) = {7};
Curve Loop(8) = {13};
Plane Surface(8) = {8};
Curve Loop(9) = {15};
Plane Surface(9) = {9};
Curve Loop(10) = {-16, -17, 18, 17};
Surface(10) = {10};
Curve Loop(11) = {16};
Plane Surface(11) = {11};
Curve Loop(12) = {18};
Plane Surface(12) = {12};
Curve Loop(13) = {-19, 22, 21, -20};
Plane Surface(13) = {13};
Curve Loop(14) = {-23, 19, 25, -24};
Plane Surface(14) = {14};
Curve Loop(15) = {-20, 25, 27, -26, -16, -13};
Plane Surface(15) = {15};
Curve Loop(16) = {-28, 21, 26, -29};
Plane Surface(16) = {16};
Curve Loop(17) = {-22, 23, 30, -28, -18, -15};
Plane Surface(17) = {17};
Curve Loop(18) = {-24, 30, 29, -27};
Plane Surface(18) = {18};
Surface Loop(1) = {13, 14, 15, 16, 17, 18, 10, 7};
Volume(1) = {1};
Surface Loop(2) = {7, 8, 9};
Volume(2) = {2};
Surface Loop(3) = {10, 11, 12};
Volume(3) = {3};
Physical Surface("WALLS") = {13, 18};
Physical Surface("LOAD") = {8, 11};
Physical Surface("BORDER") = {7, 9, 10, 12, 14, 15, 16, 17};
Physical Volume("SOLID") = {1, 2, 3};
