cl__1 = 0.08694;
cl__2 = 0.09650599999999999;
cl__3 = 0.689516;
cl__4 = 0.39733;
cl__5 = 2.731281;
cl__6 = 3.479468;
Point(9) = {6.584334, 3.415586999999999, 0.1, cl__1};
Point(10) = {6.584334, 3.415586999999999, 0, cl__1};
Point(11) = {14.744582, -2.097272, 0.1, cl__2};
Point(12) = {14.744582, -2.097272, 0, cl__2};
Point(13) = {0.489097, -3.769117, 0.1, cl__3};
Point(14) = {0.489097, -3.769117, 0, cl__3};
Point(15) = {0.489097, 5.091198, 0.1, cl__4};
Point(16) = {0.489097, 5.091198, 0, cl__4};
Point(17) = {30.911369, -3.769117, 0, cl__5};
Point(18) = {30.911369, -3.769117, 0.1, cl__5};
Point(19) = {30.911369, 5.091198, 0.1, cl__6};
Point(20) = {30.911369, 5.091198, 0, cl__6};
p13 = newp;
Point(p13 + 1) = {6.573630218690094, 3.551591436774907, 0.1};
Point(p13 + 2) = {6.541782437380039, 3.684246992943568, 0.1};
Point(p13 + 3) = {6.489574854142416, 3.810287248454562, 0.1};
Point(p13 + 4) = {6.418292992943568, 3.926608673913581, 0.1};
Point(p13 + 5) = {6.329692049777147, 4.030347049777147, 0.1};
Point(p13 + 6) = {6.225953673913581, 4.118947992943568, 0.1};
Point(p13 + 7) = {6.109632248454561, 4.190229854142415, 0.1};
Point(p13 + 8) = {5.983591992943568, 4.242437437380039, 0.1};
Point(p13 + 9) = {5.850936436774907, 4.274285218690094, 0.1};
Point(p13 + 10) = {5.714932, 4.284988999999999, 0.1};
Point(p13 + 11) = {5.578927563225093, 4.274285218690093, 0.1};
Point(p13 + 12) = {5.446272007056432, 4.242437437380039, 0.1};
Point(p13 + 13) = {5.320231751545439, 4.190229854142415, 0.1};
Point(p13 + 14) = {5.20391032608642, 4.118947992943568, 0.1};
Point(p13 + 15) = {5.100171950222854, 4.030347049777147, 0.1};
Point(p13 + 16) = {5.011571007056432, 3.926608673913581, 0.1};
Point(p13 + 17) = {4.940289145857585, 3.810287248454562, 0.1};
Point(p13 + 18) = {4.888081562619961, 3.684246992943568, 0.1};
Point(p13 + 19) = {4.856233781309906, 3.551591436774907, 0.1};
Point(p13 + 20) = {4.84553, 3.415587, 0.1};
Point(p13 + 21) = {4.856233781309906, 3.279582563225093, 0.1};
Point(p13 + 22) = {4.888081562619961, 3.146927007056432, 0.1};
Point(p13 + 23) = {4.940289145857585, 3.020886751545439, 0.1};
Point(p13 + 24) = {5.011571007056432, 2.904565326086419, 0.1};
Point(p13 + 25) = {5.100171950222853, 2.800826950222853, 0.1};
Point(p13 + 26) = {5.20391032608642, 2.712226007056432, 0.1};
Point(p13 + 27) = {5.320231751545439, 2.640944145857585, 0.1};
Point(p13 + 28) = {5.446272007056432, 2.588736562619961, 0.1};
Point(p13 + 29) = {5.578927563225093, 2.556888781309906, 0.1};
Point(p13 + 30) = {5.714932, 2.546185, 0.1};
Point(p13 + 31) = {5.850936436774907, 2.556888781309906, 0.1};
Point(p13 + 32) = {5.983591992943568, 2.588736562619961, 0.1};
Point(p13 + 33) = {6.109632248454561, 2.640944145857584, 0.1};
Point(p13 + 34) = {6.225953673913581, 2.712226007056432, 0.1};
Point(p13 + 35) = {6.329692049777147, 2.800826950222853, 0.1};
Point(p13 + 36) = {6.418292992943568, 2.904565326086419, 0.1};
Point(p13 + 37) = {6.489574854142416, 3.020886751545438, 0.1};
Point(p13 + 38) = {6.541782437380039, 3.146927007056432, 0.1};
Point(p13 + 39) = {6.573630218690094, 3.279582563225093, 0.1};
Spline(13) = {9, p13 + 1, p13 + 2, p13 + 3, p13 + 4, p13 + 5, p13 + 6, p13 + 7, p13 + 8, p13 + 9, p13 + 10, p13 + 11, p13 + 12, p13 + 13, p13 + 14, p13 + 15, p13 + 16, p13 + 17, p13 + 18, p13 + 19, p13 + 20, p13 + 21, p13 + 22, p13 + 23, p13 + 24, p13 + 25, p13 + 26, p13 + 27, p13 + 28, p13 + 29, p13 + 30, p13 + 31, p13 + 32, p13 + 33, p13 + 34, p13 + 35, p13 + 36, p13 + 37, p13 + 38, p13 + 39, 9};
Line(14) = {10, 9};
p15 = newp;
Point(p15 + 1) = {6.573630218690094, 3.551591436774907, 0};
Point(p15 + 2) = {6.541782437380039, 3.684246992943568, 0};
Point(p15 + 3) = {6.489574854142416, 3.810287248454562, 0};
Point(p15 + 4) = {6.418292992943568, 3.926608673913581, 0};
Point(p15 + 5) = {6.329692049777147, 4.030347049777147, 0};
Point(p15 + 6) = {6.225953673913581, 4.118947992943568, 0};
Point(p15 + 7) = {6.109632248454561, 4.190229854142415, 0};
Point(p15 + 8) = {5.983591992943568, 4.242437437380039, 0};
Point(p15 + 9) = {5.850936436774907, 4.274285218690094, 0};
Point(p15 + 10) = {5.714932, 4.284988999999999, 0};
Point(p15 + 11) = {5.578927563225093, 4.274285218690093, 0};
Point(p15 + 12) = {5.446272007056432, 4.242437437380039, 0};
Point(p15 + 13) = {5.320231751545439, 4.190229854142415, 0};
Point(p15 + 14) = {5.20391032608642, 4.118947992943568, 0};
Point(p15 + 15) = {5.100171950222854, 4.030347049777147, 0};
Point(p15 + 16) = {5.011571007056432, 3.926608673913581, 0};
Point(p15 + 17) = {4.940289145857585, 3.810287248454562, 0};
Point(p15 + 18) = {4.888081562619961, 3.684246992943568, 0};
Point(p15 + 19) = {4.856233781309906, 3.551591436774907, 0};
Point(p15 + 20) = {4.84553, 3.415587, 0};
Point(p15 + 21) = {4.856233781309906, 3.279582563225093, 0};
Point(p15 + 22) = {4.888081562619961, 3.146927007056432, 0};
Point(p15 + 23) = {4.940289145857585, 3.020886751545439, 0};
Point(p15 + 24) = {5.011571007056432, 2.904565326086419, 0};
Point(p15 + 25) = {5.100171950222853, 2.800826950222853, 0};
Point(p15 + 26) = {5.20391032608642, 2.712226007056432, 0};
Point(p15 + 27) = {5.320231751545439, 2.640944145857585, 0};
Point(p15 + 28) = {5.446272007056432, 2.588736562619961, 0};
Point(p15 + 29) = {5.578927563225093, 2.556888781309906, 0};
Point(p15 + 30) = {5.714932, 2.546185, 0};
Point(p15 + 31) = {5.850936436774907, 2.556888781309906, 0};
Point(p15 + 32) = {5.983591992943568, 2.588736562619961, 0};
Point(p15 + 33) = {6.109632248454561, 2.640944145857584, 0};
Point(p15 + 34) = {6.225953673913581, 2.712226007056432, 0};
Point(p15 + 35) = {6.329692049777147, 2.800826950222853, 0};
Point(p15 + 36) = {6.418292992943568, 2.904565326086419, 0};
Point(p15 + 37) = {6.489574854142416, 3.020886751545438, 0};
Point(p15 + 38) = {6.541782437380039, 3.146927007056432, 0};
Point(p15 + 39) = {6.573630218690094, 3.279582563225093, 0};
Spline(15) = {10, p15 + 1, p15 + 2, p15 + 3, p15 + 4, p15 + 5, p15 + 6, p15 + 7, p15 + 8, p15 + 9, p15 + 10, p15 + 11, p15 + 12, p15 + 13, p15 + 14, p15 + 15, p15 + 16, p15 + 17, p15 + 18, p15 + 19, p15 + 20, p15 + 21, p15 + 22, p15 + 23, p15 + 24, p15 + 25, p15 + 26, p15 + 27, p15 + 28, p15 + 29, p15 + 30, p15 + 31, p15 + 32, p15 + 33, p15 + 34, p15 + 35, p15 + 36, p15 + 37, p15 + 38, p15 + 39, 10};
p16 = newp;
Point(p16 + 1) = {14.73270053459806, -1.946303668037205, 0.1};
Point(p16 + 2) = {14.69734869950277, -1.799052677442502, 0.1};
Point(p16 + 3) = {14.63939697422018, -1.659144836302352, 0.1};
Point(p16 + 4) = {14.5602723225575, -1.53002513999313, 0.1};
Point(p16 + 5) = {14.46192305603833, -1.414872943961673, 0.1};
Point(p16 + 6) = {14.34677086000687, -1.316523677442502, 0.1};
Point(p16 + 7) = {14.21765116369765, -1.237399025779822, 0.1};
Point(p16 + 8) = {14.0777433225575, -1.179447300497232, 0.1};
Point(p16 + 9) = {13.9304923319628, -1.144095465401938, 0.1};
Point(p16 + 10) = {13.779524, -1.132214, 0.1};
Point(p16 + 11) = {13.6285556680372, -1.144095465401938, 0.1};
Point(p16 + 12) = {13.4813046774425, -1.179447300497231, 0.1};
Point(p16 + 13) = {13.34139683630235, -1.237399025779822, 0.1};
Point(p16 + 14) = {13.21227713999313, -1.316523677442502, 0.1};
Point(p16 + 15) = {13.09712494396167, -1.414872943961673, 0.1};
Point(p16 + 16) = {12.9987756774425, -1.53002513999313, 0.1};
Point(p16 + 17) = {12.91965102577982, -1.659144836302352, 0.1};
Point(p16 + 18) = {12.86169930049723, -1.799052677442502, 0.1};
Point(p16 + 19) = {12.82634746540194, -1.946303668037205, 0.1};
Point(p16 + 20) = {12.814466, -2.097272, 0.1};
Point(p16 + 21) = {12.82634746540194, -2.248240331962795, 0.1};
Point(p16 + 22) = {12.86169930049723, -2.395491322557498, 0.1};
Point(p16 + 23) = {12.91965102577982, -2.535399163697647, 0.1};
Point(p16 + 24) = {12.9987756774425, -2.664518860006869, 0.1};
Point(p16 + 25) = {13.09712494396167, -2.779671056038327, 0.1};
Point(p16 + 26) = {13.21227713999313, -2.878020322557498, 0.1};
Point(p16 + 27) = {13.34139683630235, -2.957144974220178, 0.1};
Point(p16 + 28) = {13.4813046774425, -3.015096699502768, 0.1};
Point(p16 + 29) = {13.6285556680372, -3.050448534598062, 0.1};
Point(p16 + 30) = {13.779524, -3.06233, 0.1};
Point(p16 + 31) = {13.9304923319628, -3.050448534598062, 0.1};
Point(p16 + 32) = {14.0777433225575, -3.015096699502768, 0.1};
Point(p16 + 33) = {14.21765116369765, -2.957144974220178, 0.1};
Point(p16 + 34) = {14.34677086000687, -2.878020322557498, 0.1};
Point(p16 + 35) = {14.46192305603833, -2.779671056038327, 0.1};
Point(p16 + 36) = {14.5602723225575, -2.664518860006869, 0.1};
Point(p16 + 37) = {14.63939697422018, -2.535399163697647, 0.1};
Point(p16 + 38) = {14.69734869950277, -2.395491322557498, 0.1};
Point(p16 + 39) = {14.73270053459806, -2.248240331962795, 0.1};
Spline(16) = {11, p16 + 1, p16 + 2, p16 + 3, p16 + 4, p16 + 5, p16 + 6, p16 + 7, p16 + 8, p16 + 9, p16 + 10, p16 + 11, p16 + 12, p16 + 13, p16 + 14, p16 + 15, p16 + 16, p16 + 17, p16 + 18, p16 + 19, p16 + 20, p16 + 21, p16 + 22, p16 + 23, p16 + 24, p16 + 25, p16 + 26, p16 + 27, p16 + 28, p16 + 29, p16 + 30, p16 + 31, p16 + 32, p16 + 33, p16 + 34, p16 + 35, p16 + 36, p16 + 37, p16 + 38, p16 + 39, 11};
Line(17) = {12, 11};
p18 = newp;
Point(p18 + 1) = {14.73270053459806, -1.946303668037205, 0};
Point(p18 + 2) = {14.69734869950277, -1.799052677442502, 0};
Point(p18 + 3) = {14.63939697422018, -1.659144836302352, 0};
Point(p18 + 4) = {14.5602723225575, -1.53002513999313, 0};
Point(p18 + 5) = {14.46192305603833, -1.414872943961673, 0};
Point(p18 + 6) = {14.34677086000687, -1.316523677442502, 0};
Point(p18 + 7) = {14.21765116369765, -1.237399025779822, 0};
Point(p18 + 8) = {14.0777433225575, -1.179447300497232, 0};
Point(p18 + 9) = {13.9304923319628, -1.144095465401938, 0};
Point(p18 + 10) = {13.779524, -1.132214, 0};
Point(p18 + 11) = {13.6285556680372, -1.144095465401938, 0};
Point(p18 + 12) = {13.4813046774425, -1.179447300497231, 0};
Point(p18 + 13) = {13.34139683630235, -1.237399025779822, 0};
Point(p18 + 14) = {13.21227713999313, -1.316523677442502, 0};
Point(p18 + 15) = {13.09712494396167, -1.414872943961673, 0};
Point(p18 + 16) = {12.9987756774425, -1.53002513999313, 0};
Point(p18 + 17) = {12.91965102577982, -1.659144836302352, 0};
Point(p18 + 18) = {12.86169930049723, -1.799052677442502, 0};
Point(p18 + 19) = {12.82634746540194, -1.946303668037205, 0};
Point(p18 + 20) = {12.814466, -2.097272, 0};
Point(p18 + 21) = {12.82634746540194, -2.248240331962795, 0};
Point(p18 + 22) = {12.86169930049723, -2.395491322557498, 0};
Point(p18 + 23) = {12.91965102577982, -2.535399163697647, 0};
Point(p18 + 24) = {12.9987756774425, -2.664518860006869, 0};
Point(p18 + 25) = {13.09712494396167, -2.779671056038327, 0};
Point(p18 + 26) = {13.21227713999313, -2.878020322557498, 0};
Point(p18 + 27) = {13.34139683630235, -2.957144974220178, 0};
Point(p18 + 28) = {13.4813046774425, -3.015096699502768, 0};
Point(p18 + 29) = {13.6285556680372, -3.050448534598062, 0};
Point(p18 + 30) = {13.779524, -3.06233, 0};
Point(p18 + 31) = {13.9304923319628, -3.050448534598062, 0};
Point(p18 + 32) = {14.0777433225575, -3.015096699502768, 0};
Point(p18 + 33) = {14.21765116369765, -2.957144974220178, 0};
Point(p18 + 34) = {14.34677086000687, -2.878020322557498, 0};
Point(p18 + 35) = {14.46192305603833, -2.779671056038327, 0};
Point(p18 + 36) = {14.5602723225575, -2.664518860006869, 0};
Point(p18 + 37) = {14.63939697422018, -2.535399163697647, 0};
Point(p18 + 38) = {14.69734869950277, -2.395491322557498, 0};
Point(p18 + 39) = {14.73270053459806, -2.248240331962795, 0};
Spline(18) = {12, p18 + 1, p18 + 2, p18 + 3, p18 + 4, p18 + 5, p18 + 6, p18 + 7, p18 + 8, p18 + 9, p18 + 10, p18 + 11, p18 + 12, p18 + 13, p18 + 14, p18 + 15, p18 + 16, p18 + 17, p18 + 18, p18 + 19, p18 + 20, p18 + 21, p18 + 22, p18 + 23, p18 + 24, p18 + 25, p18 + 26, p18 + 27, p18 + 28, p18 + 29, p18 + 30, p18 + 31, p18 + 32, p18 + 33, p18 + 34, p18 + 35, p18 + 36, p18 + 37, p18 + 38, p18 + 39, 12};
Line(19) = {14, 13};
Line(20) = {13, 15};
Line(21) = {16, 15};
Line(22) = {14, 16};
Line(23) = {14, 17};
Line(24) = {17, 18};
Line(25) = {13, 18};
Line(26) = {15, 19};
Line(27) = {18, 19};
Line(28) = {16, 20};
Line(29) = {20, 19};
Line(30) = {17, 20};
Curve Loop(7) = {-13, -14, 15, 14};
Surface(7) = {7};
Curve Loop(8) = {13};
Plane Surface(8) = {8};
Curve Loop(9) = {15};
Plane Surface(9) = {9};
Curve Loop(10) = {-16, -17, 18, 17};
Surface(10) = {10};
Curve Loop(11) = {16};
Plane Surface(11) = {11};
Curve Loop(12) = {18};
Plane Surface(12) = {12};
Curve Loop(13) = {-19, 22, 21, -20};
Plane Surface(13) = {13};
Curve Loop(14) = {-23, 19, 25, -24};
Plane Surface(14) = {14};
Curve Loop(15) = {-20, 25, 27, -26, -16, -13};
Plane Surface(15) = {15};
Curve Loop(16) = {-28, 21, 26, -29};
Plane Surface(16) = {16};
Curve Loop(17) = {-22, 23, 30, -28, -18, -15};
Plane Surface(17) = {17};
Curve Loop(18) = {-24, 30, 29, -27};
Plane Surface(18) = {18};
Surface Loop(1) = {13, 14, 15, 16, 17, 18, 10, 7};
Volume(1) = {1};
Surface Loop(2) = {7, 8, 9};
Volume(2) = {2};
Surface Loop(3) = {10, 11, 12};
Volume(3) = {3};
Physical Surface("WALLS") = {13, 18};
Physical Surface("LOAD") = {8, 11};
Physical Surface("BORDER") = {7, 9, 10, 12, 14, 15, 16, 17};
Physical Volume("SOLID") = {1, 2, 3};
