cl__1 = 0.108459;
cl__2 = 0.071932;
cl__3 = 3.534727;
cl__4 = 4.274793;
cl__5 = 0.336519;
cl__6 = 0.517232;
Point(9) = {19.412583, -1.925724, 0.1, cl__1};
Point(10) = {19.412583, -1.925724, 0, cl__1};
Point(11) = {30.032162, -0.8165230000000001, 0.1, cl__2};
Point(12) = {30.032162, -0.8165230000000001, 0, cl__2};
Point(13) = {0.914548, -3.599433, 1, cl__3};
Point(14) = {0.914548, -3.599433, 0, cl__3};
Point(15) = {0.914548, 4.517136000000001, 1, cl__4};
Point(16) = {0.914548, 4.517136000000001, 0, cl__4};
Point(17) = {32.648802, -3.599433, 0, cl__5};
Point(18) = {32.648802, -3.599433, 1, cl__5};
Point(19) = {32.648802, 4.517136000000001, 1, cl__6};
Point(20) = {32.648802, 4.517136000000001, 0, cl__6};
p13 = newp;
Point(p13 + 1) = {19.39922994657272, -1.756057369299876, 0.1};
Point(p13 + 2) = {19.35949958278249, -1.590568494138853, 0.1};
Point(p13 + 3) = {19.29437020204336, -1.433332259849484, 0.1};
Point(p13 + 4) = {19.20544550586115, -1.288220344357116, 0.1};
Point(p13 + 5) = {19.09491511537999, -1.158805884620007, 0.1};
Point(p13 + 6) = {18.96550065564288, -1.048275494138853, 0.1};
Point(p13 + 7) = {18.82038874015052, -0.9593507979566349, 0.1};
Point(p13 + 8) = {18.66315250586115, -0.8942214172175045, 0.1};
Point(p13 + 9) = {18.49766363070012, -0.8544910534272818, 0.1};
Point(p13 + 10) = {18.327997, -0.8411379999999999, 0.1};
Point(p13 + 11) = {18.15833036929988, -0.854491053427282, 0.1};
Point(p13 + 12) = {17.99284149413885, -0.8942214172175045, 0.1};
Point(p13 + 13) = {17.83560525984948, -0.9593507979566348, 0.1};
Point(p13 + 14) = {17.69049334435712, -1.048275494138853, 0.1};
Point(p13 + 15) = {17.56107888462001, -1.158805884620007, 0.1};
Point(p13 + 16) = {17.45054849413885, -1.288220344357116, 0.1};
Point(p13 + 17) = {17.36162379795664, -1.433332259849484, 0.1};
Point(p13 + 18) = {17.29649441721751, -1.590568494138853, 0.1};
Point(p13 + 19) = {17.25676405342728, -1.756057369299876, 0.1};
Point(p13 + 20) = {17.243411, -1.925724, 0.1};
Point(p13 + 21) = {17.25676405342728, -2.095390630700124, 0.1};
Point(p13 + 22) = {17.29649441721751, -2.260879505861147, 0.1};
Point(p13 + 23) = {17.36162379795664, -2.418115740150515, 0.1};
Point(p13 + 24) = {17.45054849413885, -2.563227655642884, 0.1};
Point(p13 + 25) = {17.56107888462001, -2.692642115379993, 0.1};
Point(p13 + 26) = {17.69049334435712, -2.803172505861147, 0.1};
Point(p13 + 27) = {17.83560525984948, -2.892097202043365, 0.1};
Point(p13 + 28) = {17.99284149413885, -2.957226582782496, 0.1};
Point(p13 + 29) = {18.15833036929988, -2.996956946572718, 0.1};
Point(p13 + 30) = {18.327997, -3.01031, 0.1};
Point(p13 + 31) = {18.49766363070012, -2.996956946572718, 0.1};
Point(p13 + 32) = {18.66315250586115, -2.957226582782496, 0.1};
Point(p13 + 33) = {18.82038874015052, -2.892097202043365, 0.1};
Point(p13 + 34) = {18.96550065564288, -2.803172505861147, 0.1};
Point(p13 + 35) = {19.09491511537999, -2.692642115379993, 0.1};
Point(p13 + 36) = {19.20544550586115, -2.563227655642884, 0.1};
Point(p13 + 37) = {19.29437020204336, -2.418115740150516, 0.1};
Point(p13 + 38) = {19.35949958278249, -2.260879505861147, 0.1};
Point(p13 + 39) = {19.39922994657272, -2.095390630700124, 0.1};
Spline(13) = {9, p13 + 1, p13 + 2, p13 + 3, p13 + 4, p13 + 5, p13 + 6, p13 + 7, p13 + 8, p13 + 9, p13 + 10, p13 + 11, p13 + 12, p13 + 13, p13 + 14, p13 + 15, p13 + 16, p13 + 17, p13 + 18, p13 + 19, p13 + 20, p13 + 21, p13 + 22, p13 + 23, p13 + 24, p13 + 25, p13 + 26, p13 + 27, p13 + 28, p13 + 29, p13 + 30, p13 + 31, p13 + 32, p13 + 33, p13 + 34, p13 + 35, p13 + 36, p13 + 37, p13 + 38, p13 + 39, 9};
Line(14) = {10, 9};
p15 = newp;
Point(p15 + 1) = {19.39922994657272, -1.756057369299876, 0};
Point(p15 + 2) = {19.35949958278249, -1.590568494138853, 0};
Point(p15 + 3) = {19.29437020204336, -1.433332259849484, 0};
Point(p15 + 4) = {19.20544550586115, -1.288220344357116, 0};
Point(p15 + 5) = {19.09491511537999, -1.158805884620007, 0};
Point(p15 + 6) = {18.96550065564288, -1.048275494138853, 0};
Point(p15 + 7) = {18.82038874015052, -0.9593507979566349, 0};
Point(p15 + 8) = {18.66315250586115, -0.8942214172175045, 0};
Point(p15 + 9) = {18.49766363070012, -0.8544910534272818, 0};
Point(p15 + 10) = {18.327997, -0.8411379999999999, 0};
Point(p15 + 11) = {18.15833036929988, -0.854491053427282, 0};
Point(p15 + 12) = {17.99284149413885, -0.8942214172175045, 0};
Point(p15 + 13) = {17.83560525984948, -0.9593507979566348, 0};
Point(p15 + 14) = {17.69049334435712, -1.048275494138853, 0};
Point(p15 + 15) = {17.56107888462001, -1.158805884620007, 0};
Point(p15 + 16) = {17.45054849413885, -1.288220344357116, 0};
Point(p15 + 17) = {17.36162379795664, -1.433332259849484, 0};
Point(p15 + 18) = {17.29649441721751, -1.590568494138853, 0};
Point(p15 + 19) = {17.25676405342728, -1.756057369299876, 0};
Point(p15 + 20) = {17.243411, -1.925724, 0};
Point(p15 + 21) = {17.25676405342728, -2.095390630700124, 0};
Point(p15 + 22) = {17.29649441721751, -2.260879505861147, 0};
Point(p15 + 23) = {17.36162379795664, -2.418115740150515, 0};
Point(p15 + 24) = {17.45054849413885, -2.563227655642884, 0};
Point(p15 + 25) = {17.56107888462001, -2.692642115379993, 0};
Point(p15 + 26) = {17.69049334435712, -2.803172505861147, 0};
Point(p15 + 27) = {17.83560525984948, -2.892097202043365, 0};
Point(p15 + 28) = {17.99284149413885, -2.957226582782496, 0};
Point(p15 + 29) = {18.15833036929988, -2.996956946572718, 0};
Point(p15 + 30) = {18.327997, -3.01031, 0};
Point(p15 + 31) = {18.49766363070012, -2.996956946572718, 0};
Point(p15 + 32) = {18.66315250586115, -2.957226582782496, 0};
Point(p15 + 33) = {18.82038874015052, -2.892097202043365, 0};
Point(p15 + 34) = {18.96550065564288, -2.803172505861147, 0};
Point(p15 + 35) = {19.09491511537999, -2.692642115379993, 0};
Point(p15 + 36) = {19.20544550586115, -2.563227655642884, 0};
Point(p15 + 37) = {19.29437020204336, -2.418115740150516, 0};
Point(p15 + 38) = {19.35949958278249, -2.260879505861147, 0};
Point(p15 + 39) = {19.39922994657272, -2.095390630700124, 0};
Spline(15) = {10, p15 + 1, p15 + 2, p15 + 3, p15 + 4, p15 + 5, p15 + 6, p15 + 7, p15 + 8, p15 + 9, p15 + 10, p15 + 11, p15 + 12, p15 + 13, p15 + 14, p15 + 15, p15 + 16, p15 + 17, p15 + 18, p15 + 19, p15 + 20, p15 + 21, p15 + 22, p15 + 23, p15 + 24, p15 + 25, p15 + 26, p15 + 27, p15 + 28, p15 + 29, p15 + 30, p15 + 31, p15 + 32, p15 + 33, p15 + 34, p15 + 35, p15 + 36, p15 + 37, p15 + 38, p15 + 39, 10};
p16 = newp;
Point(p16 + 1) = {30.02330596484524, -0.7039964041727961, 0.1};
Point(p16 + 2) = {29.99695592435794, -0.5942405865892184, 0.1};
Point(p16 + 3) = {29.9537607039857, -0.4899580997368495, 0.1};
Point(p16 + 4) = {29.89478391341078, -0.3937167245357259, 0.1};
Point(p16 + 5) = {29.82147775694989, -0.3078862430501115, 0.1};
Point(p16 + 6) = {29.73564727546427, -0.2345800865892185, 0.1};
Point(p16 + 7) = {29.63940590026315, -0.1756032960142991, 0.1};
Point(p16 + 8) = {29.53512341341078, -0.1324080756420539, 0.1};
Point(p16 + 9) = {29.4253675958272, -0.1060580351547649, 0.1};
Point(p16 + 10) = {29.312841, -0.09720200000000001, 0.1};
Point(p16 + 11) = {29.20031440417279, -0.106058035154765, 0.1};
Point(p16 + 12) = {29.09055858658922, -0.1324080756420538, 0.1};
Point(p16 + 13) = {28.98627609973685, -0.175603296014299, 0.1};
Point(p16 + 14) = {28.89003472453572, -0.2345800865892185, 0.1};
Point(p16 + 15) = {28.80420424305011, -0.3078862430501115, 0.1};
Point(p16 + 16) = {28.73089808658922, -0.3937167245357259, 0.1};
Point(p16 + 17) = {28.6719212960143, -0.4899580997368494, 0.1};
Point(p16 + 18) = {28.62872607564205, -0.5942405865892184, 0.1};
Point(p16 + 19) = {28.60237603515476, -0.703996404172796, 0.1};
Point(p16 + 20) = {28.59352, -0.8165229999999999, 0.1};
Point(p16 + 21) = {28.60237603515476, -0.9290495958272038, 0.1};
Point(p16 + 22) = {28.62872607564205, -1.038805413410782, 0.1};
Point(p16 + 23) = {28.6719212960143, -1.14308790026315, 0.1};
Point(p16 + 24) = {28.73089808658922, -1.239329275464274, 0.1};
Point(p16 + 25) = {28.80420424305011, -1.325159756949889, 0.1};
Point(p16 + 26) = {28.89003472453572, -1.398465913410782, 0.1};
Point(p16 + 27) = {28.98627609973685, -1.457442703985701, 0.1};
Point(p16 + 28) = {29.09055858658922, -1.500637924357946, 0.1};
Point(p16 + 29) = {29.20031440417279, -1.526987964845235, 0.1};
Point(p16 + 30) = {29.312841, -1.535844, 0.1};
Point(p16 + 31) = {29.4253675958272, -1.526987964845235, 0.1};
Point(p16 + 32) = {29.53512341341078, -1.500637924357946, 0.1};
Point(p16 + 33) = {29.63940590026315, -1.457442703985701, 0.1};
Point(p16 + 34) = {29.73564727546427, -1.398465913410782, 0.1};
Point(p16 + 35) = {29.82147775694989, -1.325159756949889, 0.1};
Point(p16 + 36) = {29.89478391341078, -1.239329275464274, 0.1};
Point(p16 + 37) = {29.9537607039857, -1.143087900263151, 0.1};
Point(p16 + 38) = {29.99695592435794, -1.038805413410782, 0.1};
Point(p16 + 39) = {30.02330596484524, -0.929049595827204, 0.1};
Spline(16) = {11, p16 + 1, p16 + 2, p16 + 3, p16 + 4, p16 + 5, p16 + 6, p16 + 7, p16 + 8, p16 + 9, p16 + 10, p16 + 11, p16 + 12, p16 + 13, p16 + 14, p16 + 15, p16 + 16, p16 + 17, p16 + 18, p16 + 19, p16 + 20, p16 + 21, p16 + 22, p16 + 23, p16 + 24, p16 + 25, p16 + 26, p16 + 27, p16 + 28, p16 + 29, p16 + 30, p16 + 31, p16 + 32, p16 + 33, p16 + 34, p16 + 35, p16 + 36, p16 + 37, p16 + 38, p16 + 39, 11};
Line(17) = {12, 11};
p18 = newp;
Point(p18 + 1) = {30.02330596484524, -0.7039964041727961, 0};
Point(p18 + 2) = {29.99695592435794, -0.5942405865892184, 0};
Point(p18 + 3) = {29.9537607039857, -0.4899580997368495, 0};
Point(p18 + 4) = {29.89478391341078, -0.3937167245357259, 0};
Point(p18 + 5) = {29.82147775694989, -0.3078862430501115, 0};
Point(p18 + 6) = {29.73564727546427, -0.2345800865892185, 0};
Point(p18 + 7) = {29.63940590026315, -0.1756032960142991, 0};
Point(p18 + 8) = {29.53512341341078, -0.1324080756420539, 0};
Point(p18 + 9) = {29.4253675958272, -0.1060580351547649, 0};
Point(p18 + 10) = {29.312841, -0.09720200000000001, 0};
Point(p18 + 11) = {29.20031440417279, -0.106058035154765, 0};
Point(p18 + 12) = {29.09055858658922, -0.1324080756420538, 0};
Point(p18 + 13) = {28.98627609973685, -0.175603296014299, 0};
Point(p18 + 14) = {28.89003472453572, -0.2345800865892185, 0};
Point(p18 + 15) = {28.80420424305011, -0.3078862430501115, 0};
Point(p18 + 16) = {28.73089808658922, -0.3937167245357259, 0};
Point(p18 + 17) = {28.6719212960143, -0.4899580997368494, 0};
Point(p18 + 18) = {28.62872607564205, -0.5942405865892184, 0};
Point(p18 + 19) = {28.60237603515476, -0.703996404172796, 0};
Point(p18 + 20) = {28.59352, -0.8165229999999999, 0};
Point(p18 + 21) = {28.60237603515476, -0.9290495958272038, 0};
Point(p18 + 22) = {28.62872607564205, -1.038805413410782, 0};
Point(p18 + 23) = {28.6719212960143, -1.14308790026315, 0};
Point(p18 + 24) = {28.73089808658922, -1.239329275464274, 0};
Point(p18 + 25) = {28.80420424305011, -1.325159756949889, 0};
Point(p18 + 26) = {28.89003472453572, -1.398465913410782, 0};
Point(p18 + 27) = {28.98627609973685, -1.457442703985701, 0};
Point(p18 + 28) = {29.09055858658922, -1.500637924357946, 0};
Point(p18 + 29) = {29.20031440417279, -1.526987964845235, 0};
Point(p18 + 30) = {29.312841, -1.535844, 0};
Point(p18 + 31) = {29.4253675958272, -1.526987964845235, 0};
Point(p18 + 32) = {29.53512341341078, -1.500637924357946, 0};
Point(p18 + 33) = {29.63940590026315, -1.457442703985701, 0};
Point(p18 + 34) = {29.73564727546427, -1.398465913410782, 0};
Point(p18 + 35) = {29.82147775694989, -1.325159756949889, 0};
Point(p18 + 36) = {29.89478391341078, -1.239329275464274, 0};
Point(p18 + 37) = {29.9537607039857, -1.143087900263151, 0};
Point(p18 + 38) = {29.99695592435794, -1.038805413410782, 0};
Point(p18 + 39) = {30.02330596484524, -0.929049595827204, 0};
Spline(18) = {12, p18 + 1, p18 + 2, p18 + 3, p18 + 4, p18 + 5, p18 + 6, p18 + 7, p18 + 8, p18 + 9, p18 + 10, p18 + 11, p18 + 12, p18 + 13, p18 + 14, p18 + 15, p18 + 16, p18 + 17, p18 + 18, p18 + 19, p18 + 20, p18 + 21, p18 + 22, p18 + 23, p18 + 24, p18 + 25, p18 + 26, p18 + 27, p18 + 28, p18 + 29, p18 + 30, p18 + 31, p18 + 32, p18 + 33, p18 + 34, p18 + 35, p18 + 36, p18 + 37, p18 + 38, p18 + 39, 12};
Line(19) = {14, 13};
Line(20) = {13, 15};
Line(21) = {16, 15};
Line(22) = {14, 16};
Line(23) = {14, 17};
Line(24) = {17, 18};
Line(25) = {13, 18};
Line(26) = {15, 19};
Line(27) = {18, 19};
Line(28) = {16, 20};
Line(29) = {20, 19};
Line(30) = {17, 20};
Curve Loop(7) = {-13, -14, 15, 14};
Surface(7) = {7};
Curve Loop(8) = {13};
Plane Surface(8) = {8};
Curve Loop(9) = {15};
Plane Surface(9) = {9};
Curve Loop(10) = {-16, -17, 18, 17};
Surface(10) = {10};
Curve Loop(11) = {16};
Plane Surface(11) = {11};
Curve Loop(12) = {18};
Plane Surface(12) = {12};
Curve Loop(13) = {-19, 22, 21, -20};
Plane Surface(13) = {13};
Curve Loop(14) = {-23, 19, 25, -24};
Plane Surface(14) = {14};
Curve Loop(15) = {-20, 25, 27, -26};
Plane Surface(15) = {15};
Curve Loop(16) = {-28, 21, 26, -29};
Plane Surface(16) = {16};
Curve Loop(17) = {-22, 23, 30, -28, -15, -18};
Plane Surface(17) = {17};
Curve Loop(18) = {-24, 30, 29, -27};
Plane Surface(18) = {18};
Surface Loop(1) = {13, 14, 15, 16, 17, 18, 7, 10, 8, 11};
Volume(1) = {1};
Surface Loop(2) = {7, 8, 9};
Volume(2) = {2};
Surface Loop(3) = {10, 11, 12};
Volume(3) = {3};
Physical Surface("WALLS") = {13, 18};
Physical Surface("LOAD") = {8, 11};
Physical Surface("BORDER") = {7, 9, 10, 12, 14, 15, 16, 17};
Physical Volume("SOLID") = {1, 2, 3};
