cl__1 = 0.130654;
cl__2 = 0.071882;
cl__3 = 1.483583;
cl__4 = 1.764406;
cl__5 = 0.891135;
cl__6 = 0.759973;
Point(9) = {23.816305, 3.046727, 0.1, cl__1};
Point(10) = {23.816305, 3.046727, 0, cl__1};
Point(11) = {17.142391, -1.236304, 0.1, cl__2};
Point(12) = {17.142391, -1.236304, 0, cl__2};
Point(13) = {0.464701, -3.867297, 0.1, cl__3};
Point(14) = {0.464701, -3.867297, 0, cl__3};
Point(15) = {0.464701, 4.888121, 0.1, cl__4};
Point(16) = {0.464701, 4.888121, 0, cl__4};
Point(17) = {33.967851, -3.867297, 0, cl__5};
Point(18) = {33.967851, -3.867297, 0.1, cl__5};
Point(19) = {33.967851, 4.888121, 0.1, cl__6};
Point(20) = {33.967851, 4.888121, 0, cl__6};
p13 = newp;
Point(p13 + 1) = {23.80021932452117, 3.251114885953664, 0.1};
Point(p13 + 2) = {23.75235838080027, 3.450470063830644, 0.1};
Point(p13 + 3) = {23.67390066411307, 3.639883747529708, 0.1};
Point(p13 + 4) = {23.56677806383065, 3.814691943530208, 0.1};
Point(p13 + 5) = {23.43362829389147, 3.970590293891472, 0.1};
Point(p13 + 6) = {23.27772994353021, 4.103740063830644, 0.1};
Point(p13 + 7) = {23.10292174752971, 4.21086266411307, 0.1};
Point(p13 + 8) = {22.91350806383064, 4.28932038080027, 0.1};
Point(p13 + 9) = {22.71415288595367, 4.337181324521172, 0.1};
Point(p13 + 10) = {22.509765, 4.353267000000001, 0.1};
Point(p13 + 11) = {22.30537711404634, 4.337181324521172, 0.1};
Point(p13 + 12) = {22.10602193616936, 4.28932038080027, 0.1};
Point(p13 + 13) = {21.91660825247029, 4.210862664113071, 0.1};
Point(p13 + 14) = {21.7418000564698, 4.103740063830644, 0.1};
Point(p13 + 15) = {21.58590170610853, 3.970590293891472, 0.1};
Point(p13 + 16) = {21.45275193616936, 3.814691943530208, 0.1};
Point(p13 + 17) = {21.34562933588693, 3.639883747529708, 0.1};
Point(p13 + 18) = {21.26717161919973, 3.450470063830644, 0.1};
Point(p13 + 19) = {21.21931067547883, 3.251114885953664, 0.1};
Point(p13 + 20) = {21.203225, 3.046727, 0.1};
Point(p13 + 21) = {21.21931067547883, 2.842339114046337, 0.1};
Point(p13 + 22) = {21.26717161919973, 2.642983936169356, 0.1};
Point(p13 + 23) = {21.34562933588693, 2.453570252470294, 0.1};
Point(p13 + 24) = {21.45275193616936, 2.278762056469792, 0.1};
Point(p13 + 25) = {21.58590170610853, 2.122863706108529, 0.1};
Point(p13 + 26) = {21.74180005646979, 1.989713936169357, 0.1};
Point(p13 + 27) = {21.91660825247029, 1.88259133588693, 0.1};
Point(p13 + 28) = {22.10602193616936, 1.80413361919973, 0.1};
Point(p13 + 29) = {22.30537711404634, 1.756272675478829, 0.1};
Point(p13 + 30) = {22.509765, 1.740187, 0.1};
Point(p13 + 31) = {22.71415288595367, 1.756272675478829, 0.1};
Point(p13 + 32) = {22.91350806383064, 1.80413361919973, 0.1};
Point(p13 + 33) = {23.10292174752971, 1.88259133588693, 0.1};
Point(p13 + 34) = {23.27772994353021, 1.989713936169356, 0.1};
Point(p13 + 35) = {23.43362829389147, 2.122863706108528, 0.1};
Point(p13 + 36) = {23.56677806383065, 2.278762056469792, 0.1};
Point(p13 + 37) = {23.67390066411307, 2.453570252470293, 0.1};
Point(p13 + 38) = {23.75235838080027, 2.642983936169356, 0.1};
Point(p13 + 39) = {23.80021932452117, 2.842339114046337, 0.1};
Spline(13) = {9, p13 + 1, p13 + 2, p13 + 3, p13 + 4, p13 + 5, p13 + 6, p13 + 7, p13 + 8, p13 + 9, p13 + 10, p13 + 11, p13 + 12, p13 + 13, p13 + 14, p13 + 15, p13 + 16, p13 + 17, p13 + 18, p13 + 19, p13 + 20, p13 + 21, p13 + 22, p13 + 23, p13 + 24, p13 + 25, p13 + 26, p13 + 27, p13 + 28, p13 + 29, p13 + 30, p13 + 31, p13 + 32, p13 + 33, p13 + 34, p13 + 35, p13 + 36, p13 + 37, p13 + 38, p13 + 39, 9};
Line(14) = {10, 9};
p15 = newp;
Point(p15 + 1) = {23.80021932452117, 3.251114885953664, 0};
Point(p15 + 2) = {23.75235838080027, 3.450470063830644, 0};
Point(p15 + 3) = {23.67390066411307, 3.639883747529708, 0};
Point(p15 + 4) = {23.56677806383065, 3.814691943530208, 0};
Point(p15 + 5) = {23.43362829389147, 3.970590293891472, 0};
Point(p15 + 6) = {23.27772994353021, 4.103740063830644, 0};
Point(p15 + 7) = {23.10292174752971, 4.21086266411307, 0};
Point(p15 + 8) = {22.91350806383064, 4.28932038080027, 0};
Point(p15 + 9) = {22.71415288595367, 4.337181324521172, 0};
Point(p15 + 10) = {22.509765, 4.353267000000001, 0};
Point(p15 + 11) = {22.30537711404634, 4.337181324521172, 0};
Point(p15 + 12) = {22.10602193616936, 4.28932038080027, 0};
Point(p15 + 13) = {21.91660825247029, 4.210862664113071, 0};
Point(p15 + 14) = {21.7418000564698, 4.103740063830644, 0};
Point(p15 + 15) = {21.58590170610853, 3.970590293891472, 0};
Point(p15 + 16) = {21.45275193616936, 3.814691943530208, 0};
Point(p15 + 17) = {21.34562933588693, 3.639883747529708, 0};
Point(p15 + 18) = {21.26717161919973, 3.450470063830644, 0};
Point(p15 + 19) = {21.21931067547883, 3.251114885953664, 0};
Point(p15 + 20) = {21.203225, 3.046727, 0};
Point(p15 + 21) = {21.21931067547883, 2.842339114046337, 0};
Point(p15 + 22) = {21.26717161919973, 2.642983936169356, 0};
Point(p15 + 23) = {21.34562933588693, 2.453570252470294, 0};
Point(p15 + 24) = {21.45275193616936, 2.278762056469792, 0};
Point(p15 + 25) = {21.58590170610853, 2.122863706108529, 0};
Point(p15 + 26) = {21.74180005646979, 1.989713936169357, 0};
Point(p15 + 27) = {21.91660825247029, 1.88259133588693, 0};
Point(p15 + 28) = {22.10602193616936, 1.80413361919973, 0};
Point(p15 + 29) = {22.30537711404634, 1.756272675478829, 0};
Point(p15 + 30) = {22.509765, 1.740187, 0};
Point(p15 + 31) = {22.71415288595367, 1.756272675478829, 0};
Point(p15 + 32) = {22.91350806383064, 1.80413361919973, 0};
Point(p15 + 33) = {23.10292174752971, 1.88259133588693, 0};
Point(p15 + 34) = {23.27772994353021, 1.989713936169356, 0};
Point(p15 + 35) = {23.43362829389147, 2.122863706108528, 0};
Point(p15 + 36) = {23.56677806383065, 2.278762056469792, 0};
Point(p15 + 37) = {23.67390066411307, 2.453570252470293, 0};
Point(p15 + 38) = {23.75235838080027, 2.642983936169356, 0};
Point(p15 + 39) = {23.80021932452117, 2.842339114046337, 0};
Spline(15) = {10, p15 + 1, p15 + 2, p15 + 3, p15 + 4, p15 + 5, p15 + 6, p15 + 7, p15 + 8, p15 + 9, p15 + 10, p15 + 11, p15 + 12, p15 + 13, p15 + 14, p15 + 15, p15 + 16, p15 + 17, p15 + 18, p15 + 19, p15 + 20, p15 + 21, p15 + 22, p15 + 23, p15 + 24, p15 + 25, p15 + 26, p15 + 27, p15 + 28, p15 + 29, p15 + 30, p15 + 31, p15 + 32, p15 + 33, p15 + 34, p15 + 35, p15 + 36, p15 + 37, p15 + 38, p15 + 39, 10};
p16 = newp;
Point(p16 + 1) = {17.13354114529826, -1.123855934274246, 0.1};
Point(p16 + 2) = {17.10720949398677, -1.014176713120395, 0.1};
Point(p16 + 3) = {17.06404441871056, -0.9099670029677188, 0.1};
Point(p16 + 4) = {17.00510878687961, -0.8137927927323768, 0.1};
Point(p16 + 5) = {16.93185378934573, -0.7280222106542672, 0.1};
Point(p16 + 6) = {16.84608320726762, -0.6547672131203948, 0.1};
Point(p16 + 7) = {16.74990899703228, -0.5958315812894417, 0.1};
Point(p16 + 8) = {16.6456992868796, -0.5526665060132341, 0.1};
Point(p16 + 9) = {16.53602006572575, -0.5263348547017438, 0.1};
Point(p16 + 10) = {16.423572, -0.5174850000000001, 0.1};
Point(p16 + 11) = {16.31112393427425, -0.5263348547017438, 0.1};
Point(p16 + 12) = {16.2014447131204, -0.5526665060132341, 0.1};
Point(p16 + 13) = {16.09723500296772, -0.5958315812894417, 0.1};
Point(p16 + 14) = {16.00106079273238, -0.6547672131203948, 0.1};
Point(p16 + 15) = {15.91529021065427, -0.7280222106542671, 0.1};
Point(p16 + 16) = {15.8420352131204, -0.8137927927323767, 0.1};
Point(p16 + 17) = {15.78309958128944, -0.9099670029677187, 0.1};
Point(p16 + 18) = {15.73993450601323, -1.014176713120395, 0.1};
Point(p16 + 19) = {15.71360285470174, -1.123855934274246, 0.1};
Point(p16 + 20) = {15.704753, -1.236304, 0.1};
Point(p16 + 21) = {15.71360285470174, -1.348752065725754, 0.1};
Point(p16 + 22) = {15.73993450601323, -1.458431286879606, 0.1};
Point(p16 + 23) = {15.78309958128944, -1.562640997032281, 0.1};
Point(p16 + 24) = {15.8420352131204, -1.658815207267623, 0.1};
Point(p16 + 25) = {15.91529021065427, -1.744585789345733, 0.1};
Point(p16 + 26) = {16.00106079273238, -1.817840786879605, 0.1};
Point(p16 + 27) = {16.09723500296772, -1.876776418710558, 0.1};
Point(p16 + 28) = {16.2014447131204, -1.919941493986766, 0.1};
Point(p16 + 29) = {16.31112393427425, -1.946273145298256, 0.1};
Point(p16 + 30) = {16.423572, -1.955123, 0.1};
Point(p16 + 31) = {16.53602006572575, -1.946273145298256, 0.1};
Point(p16 + 32) = {16.6456992868796, -1.919941493986766, 0.1};
Point(p16 + 33) = {16.74990899703228, -1.876776418710559, 0.1};
Point(p16 + 34) = {16.84608320726762, -1.817840786879605, 0.1};
Point(p16 + 35) = {16.93185378934573, -1.744585789345733, 0.1};
Point(p16 + 36) = {17.00510878687961, -1.658815207267623, 0.1};
Point(p16 + 37) = {17.06404441871056, -1.562640997032281, 0.1};
Point(p16 + 38) = {17.10720949398677, -1.458431286879605, 0.1};
Point(p16 + 39) = {17.13354114529826, -1.348752065725754, 0.1};
Spline(16) = {11, p16 + 1, p16 + 2, p16 + 3, p16 + 4, p16 + 5, p16 + 6, p16 + 7, p16 + 8, p16 + 9, p16 + 10, p16 + 11, p16 + 12, p16 + 13, p16 + 14, p16 + 15, p16 + 16, p16 + 17, p16 + 18, p16 + 19, p16 + 20, p16 + 21, p16 + 22, p16 + 23, p16 + 24, p16 + 25, p16 + 26, p16 + 27, p16 + 28, p16 + 29, p16 + 30, p16 + 31, p16 + 32, p16 + 33, p16 + 34, p16 + 35, p16 + 36, p16 + 37, p16 + 38, p16 + 39, 11};
Line(17) = {12, 11};
p18 = newp;
Point(p18 + 1) = {17.13354114529826, -1.123855934274246, 0};
Point(p18 + 2) = {17.10720949398677, -1.014176713120395, 0};
Point(p18 + 3) = {17.06404441871056, -0.9099670029677188, 0};
Point(p18 + 4) = {17.00510878687961, -0.8137927927323768, 0};
Point(p18 + 5) = {16.93185378934573, -0.7280222106542672, 0};
Point(p18 + 6) = {16.84608320726762, -0.6547672131203948, 0};
Point(p18 + 7) = {16.74990899703228, -0.5958315812894417, 0};
Point(p18 + 8) = {16.6456992868796, -0.5526665060132341, 0};
Point(p18 + 9) = {16.53602006572575, -0.5263348547017438, 0};
Point(p18 + 10) = {16.423572, -0.5174850000000001, 0};
Point(p18 + 11) = {16.31112393427425, -0.5263348547017438, 0};
Point(p18 + 12) = {16.2014447131204, -0.5526665060132341, 0};
Point(p18 + 13) = {16.09723500296772, -0.5958315812894417, 0};
Point(p18 + 14) = {16.00106079273238, -0.6547672131203948, 0};
Point(p18 + 15) = {15.91529021065427, -0.7280222106542671, 0};
Point(p18 + 16) = {15.8420352131204, -0.8137927927323767, 0};
Point(p18 + 17) = {15.78309958128944, -0.9099670029677187, 0};
Point(p18 + 18) = {15.73993450601323, -1.014176713120395, 0};
Point(p18 + 19) = {15.71360285470174, -1.123855934274246, 0};
Point(p18 + 20) = {15.704753, -1.236304, 0};
Point(p18 + 21) = {15.71360285470174, -1.348752065725754, 0};
Point(p18 + 22) = {15.73993450601323, -1.458431286879606, 0};
Point(p18 + 23) = {15.78309958128944, -1.562640997032281, 0};
Point(p18 + 24) = {15.8420352131204, -1.658815207267623, 0};
Point(p18 + 25) = {15.91529021065427, -1.744585789345733, 0};
Point(p18 + 26) = {16.00106079273238, -1.817840786879605, 0};
Point(p18 + 27) = {16.09723500296772, -1.876776418710558, 0};
Point(p18 + 28) = {16.2014447131204, -1.919941493986766, 0};
Point(p18 + 29) = {16.31112393427425, -1.946273145298256, 0};
Point(p18 + 30) = {16.423572, -1.955123, 0};
Point(p18 + 31) = {16.53602006572575, -1.946273145298256, 0};
Point(p18 + 32) = {16.6456992868796, -1.919941493986766, 0};
Point(p18 + 33) = {16.74990899703228, -1.876776418710559, 0};
Point(p18 + 34) = {16.84608320726762, -1.817840786879605, 0};
Point(p18 + 35) = {16.93185378934573, -1.744585789345733, 0};
Point(p18 + 36) = {17.00510878687961, -1.658815207267623, 0};
Point(p18 + 37) = {17.06404441871056, -1.562640997032281, 0};
Point(p18 + 38) = {17.10720949398677, -1.458431286879605, 0};
Point(p18 + 39) = {17.13354114529826, -1.348752065725754, 0};
Spline(18) = {12, p18 + 1, p18 + 2, p18 + 3, p18 + 4, p18 + 5, p18 + 6, p18 + 7, p18 + 8, p18 + 9, p18 + 10, p18 + 11, p18 + 12, p18 + 13, p18 + 14, p18 + 15, p18 + 16, p18 + 17, p18 + 18, p18 + 19, p18 + 20, p18 + 21, p18 + 22, p18 + 23, p18 + 24, p18 + 25, p18 + 26, p18 + 27, p18 + 28, p18 + 29, p18 + 30, p18 + 31, p18 + 32, p18 + 33, p18 + 34, p18 + 35, p18 + 36, p18 + 37, p18 + 38, p18 + 39, 12};
Line(19) = {14, 13};
Line(20) = {13, 15};
Line(21) = {16, 15};
Line(22) = {14, 16};
Line(23) = {14, 17};
Line(24) = {17, 18};
Line(25) = {13, 18};
Line(26) = {15, 19};
Line(27) = {18, 19};
Line(28) = {16, 20};
Line(29) = {20, 19};
Line(30) = {17, 20};
Curve Loop(7) = {-13, -14, 15, 14};
Surface(7) = {7};
Curve Loop(8) = {13};
Plane Surface(8) = {8};
Curve Loop(9) = {15};
Plane Surface(9) = {9};
Curve Loop(10) = {-16, -17, 18, 17};
Surface(10) = {10};
Curve Loop(11) = {16};
Plane Surface(11) = {11};
Curve Loop(12) = {18};
Plane Surface(12) = {12};
Curve Loop(13) = {-19, 22, 21, -20};
Plane Surface(13) = {13};
Curve Loop(14) = {-23, 19, 25, -24};
Plane Surface(14) = {14};
Curve Loop(15) = {-20, 25, 27, -26, -16, -13};
Plane Surface(15) = {15};
Curve Loop(16) = {-28, 21, 26, -29};
Plane Surface(16) = {16};
Curve Loop(17) = {-22, 23, 30, -28, -18, -15};
Plane Surface(17) = {17};
Curve Loop(18) = {-24, 30, 29, -27};
Plane Surface(18) = {18};
Surface Loop(1) = {13, 14, 15, 16, 17, 18, 10, 7};
Volume(1) = {1};
Surface Loop(2) = {7, 8, 9};
Volume(2) = {2};
Surface Loop(3) = {10, 11, 12};
Volume(3) = {3};
Physical Surface("WALLS") = {13, 18};
Physical Surface("LOAD") = {8, 11};
Physical Surface("BORDER") = {7, 9, 10, 12, 14, 15, 16, 17};
Physical Volume("SOLID") = {1, 2, 3};
