cl__1 = 0.080751;
cl__2 = 0.056921;
cl__3 = 0.864615;
cl__4 = 1.057675;
cl__5 = 3.260788;
cl__6 = 0.633633;
Point(9) = {27.340317, 3.257866, 0.1, cl__1};
Point(10) = {27.340317, 3.257866, 0, cl__1};
Point(11) = {3.155499, -0.1376120000000002, 0.1, cl__2};
Point(12) = {3.155499, -0.1376120000000002, 0, cl__2};
Point(13) = {0.000572, -4.587217, 0.1, cl__3};
Point(14) = {0.000572, -4.587217, 0, cl__3};
Point(15) = {0.000572, 5.23553, 0.1, cl__4};
Point(16) = {0.000572, 5.23553, 0, cl__4};
Point(17) = {30.194768, -4.587217, 0, cl__5};
Point(18) = {30.194768, -4.587217, 0.1, cl__5};
Point(19) = {30.194768, 5.23553, 0.1, cl__6};
Point(20) = {30.194768, 5.23553, 0, cl__6};
p13 = newp;
Point(p13 + 1) = {27.33037516266734, 3.384189020602497, 0.1};
Point(p13 + 2) = {27.30079445169957, 3.507401549195691, 0.1};
Point(p13 + 3) = {27.25230324237345, 3.62446968440668, 0.1};
Point(p13 + 4) = {27.18609554919569, 3.732510820219704, 0.1};
Point(p13 + 5) = {27.10380162530307, 3.828864625303074, 0.1};
Point(p13 + 6) = {27.00744782021971, 3.911158549195691, 0.1};
Point(p13 + 7) = {26.89940668440668, 3.977366242373446, 0.1};
Point(p13 + 8) = {26.78233854919569, 4.025857451699564, 0.1};
Point(p13 + 9) = {26.6591260206025, 4.055438162667341, 0.1};
Point(p13 + 10) = {26.532803, 4.06538, 0.1};
Point(p13 + 11) = {26.4064799793975, 4.055438162667341, 0.1};
Point(p13 + 12) = {26.28326745080431, 4.025857451699564, 0.1};
Point(p13 + 13) = {26.16619931559332, 3.977366242373446, 0.1};
Point(p13 + 14) = {26.0581581797803, 3.911158549195691, 0.1};
Point(p13 + 15) = {25.96180437469693, 3.828864625303074, 0.1};
Point(p13 + 16) = {25.87951045080431, 3.732510820219704, 0.1};
Point(p13 + 17) = {25.81330275762656, 3.62446968440668, 0.1};
Point(p13 + 18) = {25.76481154830044, 3.507401549195691, 0.1};
Point(p13 + 19) = {25.73523083733266, 3.384189020602497, 0.1};
Point(p13 + 20) = {25.725289, 3.257866, 0.1};
Point(p13 + 21) = {25.73523083733266, 3.131542979397503, 0.1};
Point(p13 + 22) = {25.76481154830044, 3.008330450804308, 0.1};
Point(p13 + 23) = {25.81330275762656, 2.89126231559332, 0.1};
Point(p13 + 24) = {25.87951045080431, 2.783221179780296, 0.1};
Point(p13 + 25) = {25.96180437469693, 2.686867374696926, 0.1};
Point(p13 + 26) = {26.0581581797803, 2.604573450804309, 0.1};
Point(p13 + 27) = {26.16619931559332, 2.538365757626554, 0.1};
Point(p13 + 28) = {26.28326745080431, 2.489874548300435, 0.1};
Point(p13 + 29) = {26.4064799793975, 2.460293837332658, 0.1};
Point(p13 + 30) = {26.532803, 2.450352, 0.1};
Point(p13 + 31) = {26.6591260206025, 2.460293837332658, 0.1};
Point(p13 + 32) = {26.78233854919569, 2.489874548300435, 0.1};
Point(p13 + 33) = {26.89940668440668, 2.538365757626554, 0.1};
Point(p13 + 34) = {27.00744782021971, 2.604573450804309, 0.1};
Point(p13 + 35) = {27.10380162530307, 2.686867374696926, 0.1};
Point(p13 + 36) = {27.18609554919569, 2.783221179780296, 0.1};
Point(p13 + 37) = {27.25230324237345, 2.891262315593319, 0.1};
Point(p13 + 38) = {27.30079445169957, 3.008330450804308, 0.1};
Point(p13 + 39) = {27.33037516266734, 3.131542979397503, 0.1};
Spline(13) = {9, p13 + 1, p13 + 2, p13 + 3, p13 + 4, p13 + 5, p13 + 6, p13 + 7, p13 + 8, p13 + 9, p13 + 10, p13 + 11, p13 + 12, p13 + 13, p13 + 14, p13 + 15, p13 + 16, p13 + 17, p13 + 18, p13 + 19, p13 + 20, p13 + 21, p13 + 22, p13 + 23, p13 + 24, p13 + 25, p13 + 26, p13 + 27, p13 + 28, p13 + 29, p13 + 30, p13 + 31, p13 + 32, p13 + 33, p13 + 34, p13 + 35, p13 + 36, p13 + 37, p13 + 38, p13 + 39, 9};
Line(14) = {10, 9};
p15 = newp;
Point(p15 + 1) = {27.33037516266734, 3.384189020602497, 0};
Point(p15 + 2) = {27.30079445169957, 3.507401549195691, 0};
Point(p15 + 3) = {27.25230324237345, 3.62446968440668, 0};
Point(p15 + 4) = {27.18609554919569, 3.732510820219704, 0};
Point(p15 + 5) = {27.10380162530307, 3.828864625303074, 0};
Point(p15 + 6) = {27.00744782021971, 3.911158549195691, 0};
Point(p15 + 7) = {26.89940668440668, 3.977366242373446, 0};
Point(p15 + 8) = {26.78233854919569, 4.025857451699564, 0};
Point(p15 + 9) = {26.6591260206025, 4.055438162667341, 0};
Point(p15 + 10) = {26.532803, 4.06538, 0};
Point(p15 + 11) = {26.4064799793975, 4.055438162667341, 0};
Point(p15 + 12) = {26.28326745080431, 4.025857451699564, 0};
Point(p15 + 13) = {26.16619931559332, 3.977366242373446, 0};
Point(p15 + 14) = {26.0581581797803, 3.911158549195691, 0};
Point(p15 + 15) = {25.96180437469693, 3.828864625303074, 0};
Point(p15 + 16) = {25.87951045080431, 3.732510820219704, 0};
Point(p15 + 17) = {25.81330275762656, 3.62446968440668, 0};
Point(p15 + 18) = {25.76481154830044, 3.507401549195691, 0};
Point(p15 + 19) = {25.73523083733266, 3.384189020602497, 0};
Point(p15 + 20) = {25.725289, 3.257866, 0};
Point(p15 + 21) = {25.73523083733266, 3.131542979397503, 0};
Point(p15 + 22) = {25.76481154830044, 3.008330450804308, 0};
Point(p15 + 23) = {25.81330275762656, 2.89126231559332, 0};
Point(p15 + 24) = {25.87951045080431, 2.783221179780296, 0};
Point(p15 + 25) = {25.96180437469693, 2.686867374696926, 0};
Point(p15 + 26) = {26.0581581797803, 2.604573450804309, 0};
Point(p15 + 27) = {26.16619931559332, 2.538365757626554, 0};
Point(p15 + 28) = {26.28326745080431, 2.489874548300435, 0};
Point(p15 + 29) = {26.4064799793975, 2.460293837332658, 0};
Point(p15 + 30) = {26.532803, 2.450352, 0};
Point(p15 + 31) = {26.6591260206025, 2.460293837332658, 0};
Point(p15 + 32) = {26.78233854919569, 2.489874548300435, 0};
Point(p15 + 33) = {26.89940668440668, 2.538365757626554, 0};
Point(p15 + 34) = {27.00744782021971, 2.604573450804309, 0};
Point(p15 + 35) = {27.10380162530307, 2.686867374696926, 0};
Point(p15 + 36) = {27.18609554919569, 2.783221179780296, 0};
Point(p15 + 37) = {27.25230324237345, 2.891262315593319, 0};
Point(p15 + 38) = {27.30079445169957, 3.008330450804308, 0};
Point(p15 + 39) = {27.33037516266734, 3.131542979397503, 0};
Spline(15) = {10, p15 + 1, p15 + 2, p15 + 3, p15 + 4, p15 + 5, p15 + 6, p15 + 7, p15 + 8, p15 + 9, p15 + 10, p15 + 11, p15 + 12, p15 + 13, p15 + 14, p15 + 15, p15 + 16, p15 + 17, p15 + 18, p15 + 19, p15 + 20, p15 + 21, p15 + 22, p15 + 23, p15 + 24, p15 + 25, p15 + 26, p15 + 27, p15 + 28, p15 + 29, p15 + 30, p15 + 31, p15 + 32, p15 + 33, p15 + 34, p15 + 35, p15 + 36, p15 + 37, p15 + 38, p15 + 39, 10};
p16 = newp;
Point(p16 + 1) = {3.14849104341518, -0.04856746885105509, 0.1};
Point(p16 + 2) = {3.127639732809913, 0.03828449041914692, 0.1};
Point(p16 + 3) = {3.093458496652834, 0.1208052943282466, 0.1};
Point(p16 + 4) = {3.046788990419147, 0.1969630068131555, 0.1};
Point(p16 + 5) = {2.988780372239538, 0.2648823722395382, 0.1};
Point(p16 + 6) = {2.920861006813155, 0.3228909904191469, 0.1};
Point(p16 + 7) = {2.844703294328247, 0.3695604966528334, 0.1};
Point(p16 + 8) = {2.762182490419147, 0.4037417328099132, 0.1};
Point(p16 + 9) = {2.675330531148945, 0.4245930434151801, 0.1};
Point(p16 + 10) = {2.586286, 0.431601, 0.1};
Point(p16 + 11) = {2.497241468851055, 0.4245930434151801, 0.1};
Point(p16 + 12) = {2.410389509580853, 0.4037417328099133, 0.1};
Point(p16 + 13) = {2.327868705671753, 0.3695604966528335, 0.1};
Point(p16 + 14) = {2.251710993186844, 0.3228909904191469, 0.1};
Point(p16 + 15) = {2.183791627760462, 0.2648823722395383, 0.1};
Point(p16 + 16) = {2.125783009580853, 0.1969630068131555, 0.1};
Point(p16 + 17) = {2.079113503347167, 0.1208052943282467, 0.1};
Point(p16 + 18) = {2.044932267190087, 0.03828449041914697, 0.1};
Point(p16 + 19) = {2.02408095658482, -0.04856746885105502, 0.1};
Point(p16 + 20) = {2.017073, -0.1376119999999999, 0.1};
Point(p16 + 21) = {2.02408095658482, -0.2266565311489449, 0.1};
Point(p16 + 22) = {2.044932267190087, -0.3135084904191471, 0.1};
Point(p16 + 23) = {2.079113503347166, -0.3960292943282464, 0.1};
Point(p16 + 24) = {2.125783009580853, -0.4721870068131555, 0.1};
Point(p16 + 25) = {2.183791627760462, -0.5401063722395383, 0.1};
Point(p16 + 26) = {2.251710993186844, -0.598114990419147, 0.1};
Point(p16 + 27) = {2.327868705671753, -0.6447844966528333, 0.1};
Point(p16 + 28) = {2.410389509580853, -0.6789657328099132, 0.1};
Point(p16 + 29) = {2.497241468851055, -0.69981704341518, 0.1};
Point(p16 + 30) = {2.586286, -0.706825, 0.1};
Point(p16 + 31) = {2.675330531148945, -0.69981704341518, 0.1};
Point(p16 + 32) = {2.762182490419147, -0.6789657328099132, 0.1};
Point(p16 + 33) = {2.844703294328246, -0.6447844966528335, 0.1};
Point(p16 + 34) = {2.920861006813155, -0.598114990419147, 0.1};
Point(p16 + 35) = {2.988780372239538, -0.5401063722395383, 0.1};
Point(p16 + 36) = {3.046788990419147, -0.4721870068131556, 0.1};
Point(p16 + 37) = {3.093458496652833, -0.3960292943282467, 0.1};
Point(p16 + 38) = {3.127639732809913, -0.3135084904191471, 0.1};
Point(p16 + 39) = {3.14849104341518, -0.2266565311489451, 0.1};
Spline(16) = {11, p16 + 1, p16 + 2, p16 + 3, p16 + 4, p16 + 5, p16 + 6, p16 + 7, p16 + 8, p16 + 9, p16 + 10, p16 + 11, p16 + 12, p16 + 13, p16 + 14, p16 + 15, p16 + 16, p16 + 17, p16 + 18, p16 + 19, p16 + 20, p16 + 21, p16 + 22, p16 + 23, p16 + 24, p16 + 25, p16 + 26, p16 + 27, p16 + 28, p16 + 29, p16 + 30, p16 + 31, p16 + 32, p16 + 33, p16 + 34, p16 + 35, p16 + 36, p16 + 37, p16 + 38, p16 + 39, 11};
Line(17) = {12, 11};
p18 = newp;
Point(p18 + 1) = {3.14849104341518, -0.04856746885105509, 0};
Point(p18 + 2) = {3.127639732809913, 0.03828449041914692, 0};
Point(p18 + 3) = {3.093458496652834, 0.1208052943282466, 0};
Point(p18 + 4) = {3.046788990419147, 0.1969630068131555, 0};
Point(p18 + 5) = {2.988780372239538, 0.2648823722395382, 0};
Point(p18 + 6) = {2.920861006813155, 0.3228909904191469, 0};
Point(p18 + 7) = {2.844703294328247, 0.3695604966528334, 0};
Point(p18 + 8) = {2.762182490419147, 0.4037417328099132, 0};
Point(p18 + 9) = {2.675330531148945, 0.4245930434151801, 0};
Point(p18 + 10) = {2.586286, 0.431601, 0};
Point(p18 + 11) = {2.497241468851055, 0.4245930434151801, 0};
Point(p18 + 12) = {2.410389509580853, 0.4037417328099133, 0};
Point(p18 + 13) = {2.327868705671753, 0.3695604966528335, 0};
Point(p18 + 14) = {2.251710993186844, 0.3228909904191469, 0};
Point(p18 + 15) = {2.183791627760462, 0.2648823722395383, 0};
Point(p18 + 16) = {2.125783009580853, 0.1969630068131555, 0};
Point(p18 + 17) = {2.079113503347167, 0.1208052943282467, 0};
Point(p18 + 18) = {2.044932267190087, 0.03828449041914697, 0};
Point(p18 + 19) = {2.02408095658482, -0.04856746885105502, 0};
Point(p18 + 20) = {2.017073, -0.1376119999999999, 0};
Point(p18 + 21) = {2.02408095658482, -0.2266565311489449, 0};
Point(p18 + 22) = {2.044932267190087, -0.3135084904191471, 0};
Point(p18 + 23) = {2.079113503347166, -0.3960292943282464, 0};
Point(p18 + 24) = {2.125783009580853, -0.4721870068131555, 0};
Point(p18 + 25) = {2.183791627760462, -0.5401063722395383, 0};
Point(p18 + 26) = {2.251710993186844, -0.598114990419147, 0};
Point(p18 + 27) = {2.327868705671753, -0.6447844966528333, 0};
Point(p18 + 28) = {2.410389509580853, -0.6789657328099132, 0};
Point(p18 + 29) = {2.497241468851055, -0.69981704341518, 0};
Point(p18 + 30) = {2.586286, -0.706825, 0};
Point(p18 + 31) = {2.675330531148945, -0.69981704341518, 0};
Point(p18 + 32) = {2.762182490419147, -0.6789657328099132, 0};
Point(p18 + 33) = {2.844703294328246, -0.6447844966528335, 0};
Point(p18 + 34) = {2.920861006813155, -0.598114990419147, 0};
Point(p18 + 35) = {2.988780372239538, -0.5401063722395383, 0};
Point(p18 + 36) = {3.046788990419147, -0.4721870068131556, 0};
Point(p18 + 37) = {3.093458496652833, -0.3960292943282467, 0};
Point(p18 + 38) = {3.127639732809913, -0.3135084904191471, 0};
Point(p18 + 39) = {3.14849104341518, -0.2266565311489451, 0};
Spline(18) = {12, p18 + 1, p18 + 2, p18 + 3, p18 + 4, p18 + 5, p18 + 6, p18 + 7, p18 + 8, p18 + 9, p18 + 10, p18 + 11, p18 + 12, p18 + 13, p18 + 14, p18 + 15, p18 + 16, p18 + 17, p18 + 18, p18 + 19, p18 + 20, p18 + 21, p18 + 22, p18 + 23, p18 + 24, p18 + 25, p18 + 26, p18 + 27, p18 + 28, p18 + 29, p18 + 30, p18 + 31, p18 + 32, p18 + 33, p18 + 34, p18 + 35, p18 + 36, p18 + 37, p18 + 38, p18 + 39, 12};
Line(19) = {14, 13};
Line(20) = {13, 15};
Line(21) = {16, 15};
Line(22) = {14, 16};
Line(23) = {14, 17};
Line(24) = {17, 18};
Line(25) = {13, 18};
Line(26) = {15, 19};
Line(27) = {18, 19};
Line(28) = {16, 20};
Line(29) = {20, 19};
Line(30) = {17, 20};
Curve Loop(7) = {-13, -14, 15, 14};
Surface(7) = {7};
Curve Loop(8) = {13};
Plane Surface(8) = {8};
Curve Loop(9) = {15};
Plane Surface(9) = {9};
Curve Loop(10) = {-16, -17, 18, 17};
Surface(10) = {10};
Curve Loop(11) = {16};
Plane Surface(11) = {11};
Curve Loop(12) = {18};
Plane Surface(12) = {12};
Curve Loop(13) = {-19, 22, 21, -20};
Plane Surface(13) = {13};
Curve Loop(14) = {-23, 19, 25, -24};
Plane Surface(14) = {14};
Curve Loop(15) = {-20, 25, 27, -26, -16, -13};
Plane Surface(15) = {15};
Curve Loop(16) = {-28, 21, 26, -29};
Plane Surface(16) = {16};
Curve Loop(17) = {-22, 23, 30, -28, -18, -15};
Plane Surface(17) = {17};
Curve Loop(18) = {-24, 30, 29, -27};
Plane Surface(18) = {18};
Surface Loop(1) = {13, 14, 15, 16, 17, 18, 10, 7};
Volume(1) = {1};
Surface Loop(2) = {7, 8, 9};
Volume(2) = {2};
Surface Loop(3) = {10, 11, 12};
Volume(3) = {3};
Physical Surface("WALLS") = {13, 18};
Physical Surface("LOAD") = {8, 11};
Physical Surface("BORDER") = {7, 9, 10, 12, 14, 15, 16, 17};
Physical Volume("SOLID") = {1, 2, 3};
