cl__1 = 0.115742;
cl__2 = 0.14952;
cl__3 = 0.934042;
cl__4 = 0.490923;
cl__5 = 1.946109;
cl__6 = 2.334292;
Point(9) = {7.199788, 3.321759999999999, 0.1, cl__1};
Point(10) = {7.199788, 3.321759999999999, 0, cl__1};
Point(11) = {29.695348, -0.5981430000000004, 0.1, cl__2};
Point(12) = {29.695348, -0.5981430000000004, 0, cl__2};
Point(13) = {0.892672, -4.389051, 0.1, cl__3};
Point(14) = {0.892672, -4.389051, 0, cl__3};
Point(15) = {0.892672, 5.020137999999999, 0.1, cl__4};
Point(16) = {0.892672, 5.020137999999999, 0, cl__4};
Point(17) = {39.945651, -4.389051, 0, cl__5};
Point(18) = {39.945651, -4.389051, 0.1, cl__5};
Point(19) = {39.945651, 5.020137999999999, 0.1, cl__6};
Point(20) = {39.945651, 5.020137999999999, 0, cl__6};
p13 = newp;
Point(p13 + 1) = {7.185538251483283, 3.502820222092399, 0.1};
Point(p13 + 2) = {7.14313988203382, 3.679422140612457, 0.1};
Point(p13 + 3) = {7.073636880219576, 3.847217230218046, 0.1};
Point(p13 + 4) = {6.978740640612457, 4.002073818923102, 0.1};
Point(p13 + 5) = {6.860787823574153, 4.140178823574153, 0.1};
Point(p13 + 6) = {6.722682818923102, 4.258131640612457, 0.1};
Point(p13 + 7) = {6.567826230218047, 4.353027880219576, 0.1};
Point(p13 + 8) = {6.400031140612457, 4.42253088203382, 0.1};
Point(p13 + 9) = {6.223429222092399, 4.464929251483284, 0.1};
Point(p13 + 10) = {6.042369, 4.479179, 0.1};
Point(p13 + 11) = {5.861308777907601, 4.464929251483284, 0.1};
Point(p13 + 12) = {5.684706859387543, 4.42253088203382, 0.1};
Point(p13 + 13) = {5.516911769781953, 4.353027880219576, 0.1};
Point(p13 + 14) = {5.362055181076898, 4.258131640612457, 0.1};
Point(p13 + 15) = {5.223950176425848, 4.140178823574153, 0.1};
Point(p13 + 16) = {5.105997359387542, 4.002073818923102, 0.1};
Point(p13 + 17) = {5.011101119780424, 3.847217230218047, 0.1};
Point(p13 + 18) = {4.94159811796618, 3.679422140612457, 0.1};
Point(p13 + 19) = {4.899199748516716, 3.502820222092399, 0.1};
Point(p13 + 20) = {4.88495, 3.32176, 0.1};
Point(p13 + 21) = {4.899199748516716, 3.140699777907601, 0.1};
Point(p13 + 22) = {4.94159811796618, 2.964097859387542, 0.1};
Point(p13 + 23) = {5.011101119780423, 2.796302769781954, 0.1};
Point(p13 + 24) = {5.105997359387542, 2.641446181076898, 0.1};
Point(p13 + 25) = {5.223950176425847, 2.503341176425847, 0.1};
Point(p13 + 26) = {5.362055181076898, 2.385388359387543, 0.1};
Point(p13 + 27) = {5.516911769781953, 2.290492119780423, 0.1};
Point(p13 + 28) = {5.684706859387543, 2.220989117966179, 0.1};
Point(p13 + 29) = {5.861308777907601, 2.178590748516716, 0.1};
Point(p13 + 30) = {6.042369, 2.164341, 0.1};
Point(p13 + 31) = {6.223429222092399, 2.178590748516716, 0.1};
Point(p13 + 32) = {6.400031140612457, 2.220989117966179, 0.1};
Point(p13 + 33) = {6.567826230218047, 2.290492119780423, 0.1};
Point(p13 + 34) = {6.722682818923102, 2.385388359387543, 0.1};
Point(p13 + 35) = {6.860787823574152, 2.503341176425847, 0.1};
Point(p13 + 36) = {6.978740640612457, 2.641446181076898, 0.1};
Point(p13 + 37) = {7.073636880219576, 2.796302769781953, 0.1};
Point(p13 + 38) = {7.14313988203382, 2.964097859387542, 0.1};
Point(p13 + 39) = {7.185538251483283, 3.140699777907601, 0.1};
Spline(13) = {9, p13 + 1, p13 + 2, p13 + 3, p13 + 4, p13 + 5, p13 + 6, p13 + 7, p13 + 8, p13 + 9, p13 + 10, p13 + 11, p13 + 12, p13 + 13, p13 + 14, p13 + 15, p13 + 16, p13 + 17, p13 + 18, p13 + 19, p13 + 20, p13 + 21, p13 + 22, p13 + 23, p13 + 24, p13 + 25, p13 + 26, p13 + 27, p13 + 28, p13 + 29, p13 + 30, p13 + 31, p13 + 32, p13 + 33, p13 + 34, p13 + 35, p13 + 36, p13 + 37, p13 + 38, p13 + 39, 9};
Line(14) = {10, 9};
p15 = newp;
Point(p15 + 1) = {7.185538251483283, 3.502820222092399, 0};
Point(p15 + 2) = {7.14313988203382, 3.679422140612457, 0};
Point(p15 + 3) = {7.073636880219576, 3.847217230218046, 0};
Point(p15 + 4) = {6.978740640612457, 4.002073818923102, 0};
Point(p15 + 5) = {6.860787823574153, 4.140178823574153, 0};
Point(p15 + 6) = {6.722682818923102, 4.258131640612457, 0};
Point(p15 + 7) = {6.567826230218047, 4.353027880219576, 0};
Point(p15 + 8) = {6.400031140612457, 4.42253088203382, 0};
Point(p15 + 9) = {6.223429222092399, 4.464929251483284, 0};
Point(p15 + 10) = {6.042369, 4.479179, 0};
Point(p15 + 11) = {5.861308777907601, 4.464929251483284, 0};
Point(p15 + 12) = {5.684706859387543, 4.42253088203382, 0};
Point(p15 + 13) = {5.516911769781953, 4.353027880219576, 0};
Point(p15 + 14) = {5.362055181076898, 4.258131640612457, 0};
Point(p15 + 15) = {5.223950176425848, 4.140178823574153, 0};
Point(p15 + 16) = {5.105997359387542, 4.002073818923102, 0};
Point(p15 + 17) = {5.011101119780424, 3.847217230218047, 0};
Point(p15 + 18) = {4.94159811796618, 3.679422140612457, 0};
Point(p15 + 19) = {4.899199748516716, 3.502820222092399, 0};
Point(p15 + 20) = {4.88495, 3.32176, 0};
Point(p15 + 21) = {4.899199748516716, 3.140699777907601, 0};
Point(p15 + 22) = {4.94159811796618, 2.964097859387542, 0};
Point(p15 + 23) = {5.011101119780423, 2.796302769781954, 0};
Point(p15 + 24) = {5.105997359387542, 2.641446181076898, 0};
Point(p15 + 25) = {5.223950176425847, 2.503341176425847, 0};
Point(p15 + 26) = {5.362055181076898, 2.385388359387543, 0};
Point(p15 + 27) = {5.516911769781953, 2.290492119780423, 0};
Point(p15 + 28) = {5.684706859387543, 2.220989117966179, 0};
Point(p15 + 29) = {5.861308777907601, 2.178590748516716, 0};
Point(p15 + 30) = {6.042369, 2.164341, 0};
Point(p15 + 31) = {6.223429222092399, 2.178590748516716, 0};
Point(p15 + 32) = {6.400031140612457, 2.220989117966179, 0};
Point(p15 + 33) = {6.567826230218047, 2.290492119780423, 0};
Point(p15 + 34) = {6.722682818923102, 2.385388359387543, 0};
Point(p15 + 35) = {6.860787823574152, 2.503341176425847, 0};
Point(p15 + 36) = {6.978740640612457, 2.641446181076898, 0};
Point(p15 + 37) = {7.073636880219576, 2.796302769781953, 0};
Point(p15 + 38) = {7.14313988203382, 2.964097859387542, 0};
Point(p15 + 39) = {7.185538251483283, 3.140699777907601, 0};
Spline(15) = {10, p15 + 1, p15 + 2, p15 + 3, p15 + 4, p15 + 5, p15 + 6, p15 + 7, p15 + 8, p15 + 9, p15 + 10, p15 + 11, p15 + 12, p15 + 13, p15 + 14, p15 + 15, p15 + 16, p15 + 17, p15 + 18, p15 + 19, p15 + 20, p15 + 21, p15 + 22, p15 + 23, p15 + 24, p15 + 25, p15 + 26, p15 + 27, p15 + 28, p15 + 29, p15 + 30, p15 + 31, p15 + 32, p15 + 33, p15 + 34, p15 + 35, p15 + 36, p15 + 37, p15 + 38, p15 + 39, 10};
p16 = newp;
Point(p16 + 1) = {29.67693958223453, -0.3642418750029167, 0.1};
Point(p16 + 2) = {29.62216760527755, -0.1361001719765899, 0.1};
Point(p16 + 3) = {29.5323807369795, 0.08066450319156981, 0.1};
Point(p16 + 4) = {29.40978982802341, 0.2807146847982104, 0.1};
Point(p16 + 5) = {29.25741347344369, 0.459124473443688, 0.1};
Point(p16 + 6) = {29.07900368479821, 0.6115008280234099, 0.1};
Point(p16 + 7) = {28.87895350319157, 0.7340917369794958, 0.1};
Point(p16 + 8) = {28.66218882802341, 0.8238786052775461, 0.1};
Point(p16 + 9) = {28.43404712499708, 0.8786505822345311, 0.1};
Point(p16 + 10) = {28.200146, 0.8970589999999999, 0.1};
Point(p16 + 11) = {27.96624487500292, 0.8786505822345309, 0.1};
Point(p16 + 12) = {27.73810317197659, 0.8238786052775463, 0.1};
Point(p16 + 13) = {27.52133849680843, 0.734091736979496, 0.1};
Point(p16 + 14) = {27.32128831520179, 0.6115008280234101, 0.1};
Point(p16 + 15) = {27.14287852655631, 0.4591244734436882, 0.1};
Point(p16 + 16) = {26.99050217197659, 0.2807146847982106, 0.1};
Point(p16 + 17) = {26.8679112630205, 0.08066450319156993, 0.1};
Point(p16 + 18) = {26.77812439472245, -0.1361001719765897, 0.1};
Point(p16 + 19) = {26.72335241776547, -0.3642418750029165, 0.1};
Point(p16 + 20) = {26.704944, -0.5981429999999998, 0.1};
Point(p16 + 21) = {26.72335241776547, -0.8320441249970831, 0.1};
Point(p16 + 22) = {26.77812439472245, -1.06018582802341, 0.1};
Point(p16 + 23) = {26.8679112630205, -1.276950503191569, 0.1};
Point(p16 + 24) = {26.99050217197659, -1.47700068479821, 0.1};
Point(p16 + 25) = {27.14287852655631, -1.655410473443688, 0.1};
Point(p16 + 26) = {27.32128831520179, -1.80778682802341, 0.1};
Point(p16 + 27) = {27.52133849680843, -1.930377736979496, 0.1};
Point(p16 + 28) = {27.73810317197659, -2.020164605277546, 0.1};
Point(p16 + 29) = {27.96624487500292, -2.074936582234531, 0.1};
Point(p16 + 30) = {28.200146, -2.093345, 0.1};
Point(p16 + 31) = {28.43404712499708, -2.074936582234531, 0.1};
Point(p16 + 32) = {28.66218882802341, -2.020164605277546, 0.1};
Point(p16 + 33) = {28.87895350319157, -1.930377736979496, 0.1};
Point(p16 + 34) = {29.07900368479821, -1.80778682802341, 0.1};
Point(p16 + 35) = {29.25741347344369, -1.655410473443689, 0.1};
Point(p16 + 36) = {29.40978982802341, -1.47700068479821, 0.1};
Point(p16 + 37) = {29.5323807369795, -1.27695050319157, 0.1};
Point(p16 + 38) = {29.62216760527755, -1.06018582802341, 0.1};
Point(p16 + 39) = {29.67693958223453, -0.8320441249970836, 0.1};
Spline(16) = {11, p16 + 1, p16 + 2, p16 + 3, p16 + 4, p16 + 5, p16 + 6, p16 + 7, p16 + 8, p16 + 9, p16 + 10, p16 + 11, p16 + 12, p16 + 13, p16 + 14, p16 + 15, p16 + 16, p16 + 17, p16 + 18, p16 + 19, p16 + 20, p16 + 21, p16 + 22, p16 + 23, p16 + 24, p16 + 25, p16 + 26, p16 + 27, p16 + 28, p16 + 29, p16 + 30, p16 + 31, p16 + 32, p16 + 33, p16 + 34, p16 + 35, p16 + 36, p16 + 37, p16 + 38, p16 + 39, 11};
Line(17) = {12, 11};
p18 = newp;
Point(p18 + 1) = {29.67693958223453, -0.3642418750029167, 0};
Point(p18 + 2) = {29.62216760527755, -0.1361001719765899, 0};
Point(p18 + 3) = {29.5323807369795, 0.08066450319156981, 0};
Point(p18 + 4) = {29.40978982802341, 0.2807146847982104, 0};
Point(p18 + 5) = {29.25741347344369, 0.459124473443688, 0};
Point(p18 + 6) = {29.07900368479821, 0.6115008280234099, 0};
Point(p18 + 7) = {28.87895350319157, 0.7340917369794958, 0};
Point(p18 + 8) = {28.66218882802341, 0.8238786052775461, 0};
Point(p18 + 9) = {28.43404712499708, 0.8786505822345311, 0};
Point(p18 + 10) = {28.200146, 0.8970589999999999, 0};
Point(p18 + 11) = {27.96624487500292, 0.8786505822345309, 0};
Point(p18 + 12) = {27.73810317197659, 0.8238786052775463, 0};
Point(p18 + 13) = {27.52133849680843, 0.734091736979496, 0};
Point(p18 + 14) = {27.32128831520179, 0.6115008280234101, 0};
Point(p18 + 15) = {27.14287852655631, 0.4591244734436882, 0};
Point(p18 + 16) = {26.99050217197659, 0.2807146847982106, 0};
Point(p18 + 17) = {26.8679112630205, 0.08066450319156993, 0};
Point(p18 + 18) = {26.77812439472245, -0.1361001719765897, 0};
Point(p18 + 19) = {26.72335241776547, -0.3642418750029165, 0};
Point(p18 + 20) = {26.704944, -0.5981429999999998, 0};
Point(p18 + 21) = {26.72335241776547, -0.8320441249970831, 0};
Point(p18 + 22) = {26.77812439472245, -1.06018582802341, 0};
Point(p18 + 23) = {26.8679112630205, -1.276950503191569, 0};
Point(p18 + 24) = {26.99050217197659, -1.47700068479821, 0};
Point(p18 + 25) = {27.14287852655631, -1.655410473443688, 0};
Point(p18 + 26) = {27.32128831520179, -1.80778682802341, 0};
Point(p18 + 27) = {27.52133849680843, -1.930377736979496, 0};
Point(p18 + 28) = {27.73810317197659, -2.020164605277546, 0};
Point(p18 + 29) = {27.96624487500292, -2.074936582234531, 0};
Point(p18 + 30) = {28.200146, -2.093345, 0};
Point(p18 + 31) = {28.43404712499708, -2.074936582234531, 0};
Point(p18 + 32) = {28.66218882802341, -2.020164605277546, 0};
Point(p18 + 33) = {28.87895350319157, -1.930377736979496, 0};
Point(p18 + 34) = {29.07900368479821, -1.80778682802341, 0};
Point(p18 + 35) = {29.25741347344369, -1.655410473443689, 0};
Point(p18 + 36) = {29.40978982802341, -1.47700068479821, 0};
Point(p18 + 37) = {29.5323807369795, -1.27695050319157, 0};
Point(p18 + 38) = {29.62216760527755, -1.06018582802341, 0};
Point(p18 + 39) = {29.67693958223453, -0.8320441249970836, 0};
Spline(18) = {12, p18 + 1, p18 + 2, p18 + 3, p18 + 4, p18 + 5, p18 + 6, p18 + 7, p18 + 8, p18 + 9, p18 + 10, p18 + 11, p18 + 12, p18 + 13, p18 + 14, p18 + 15, p18 + 16, p18 + 17, p18 + 18, p18 + 19, p18 + 20, p18 + 21, p18 + 22, p18 + 23, p18 + 24, p18 + 25, p18 + 26, p18 + 27, p18 + 28, p18 + 29, p18 + 30, p18 + 31, p18 + 32, p18 + 33, p18 + 34, p18 + 35, p18 + 36, p18 + 37, p18 + 38, p18 + 39, 12};
Line(19) = {14, 13};
Line(20) = {13, 15};
Line(21) = {16, 15};
Line(22) = {14, 16};
Line(23) = {14, 17};
Line(24) = {17, 18};
Line(25) = {13, 18};
Line(26) = {15, 19};
Line(27) = {18, 19};
Line(28) = {16, 20};
Line(29) = {20, 19};
Line(30) = {17, 20};
Curve Loop(7) = {-13, -14, 15, 14};
Surface(7) = {7};
Curve Loop(8) = {13};
Plane Surface(8) = {8};
Curve Loop(9) = {15};
Plane Surface(9) = {9};
Curve Loop(10) = {-16, -17, 18, 17};
Surface(10) = {10};
Curve Loop(11) = {16};
Plane Surface(11) = {11};
Curve Loop(12) = {18};
Plane Surface(12) = {12};
Curve Loop(13) = {-19, 22, 21, -20};
Plane Surface(13) = {13};
Curve Loop(14) = {-23, 19, 25, -24};
Plane Surface(14) = {14};
Curve Loop(15) = {-20, 25, 27, -26, -16, -13};
Plane Surface(15) = {15};
Curve Loop(16) = {-28, 21, 26, -29};
Plane Surface(16) = {16};
Curve Loop(17) = {-22, 23, 30, -28, -18, -15};
Plane Surface(17) = {17};
Curve Loop(18) = {-24, 30, 29, -27};
Plane Surface(18) = {18};
Surface Loop(1) = {13, 14, 15, 16, 17, 18, 10, 7};
Volume(1) = {1};
Surface Loop(2) = {7, 8, 9};
Volume(2) = {2};
Surface Loop(3) = {10, 11, 12};
Volume(3) = {3};
Physical Surface("WALLS") = {13, 18};
Physical Surface("LOAD") = {8, 11};
Physical Surface("BORDER") = {7, 9, 10, 12, 14, 15, 16, 17};
Physical Volume("SOLID") = {1, 2, 3};
