cl__1 = 0.148296;
cl__2 = 0.149341;
cl__3 = 1.067612;
cl__4 = 0.931298;
cl__5 = 1.068834;
cl__6 = 1.074425;
Point(9) = {16.436228, 2.221347999999999, 0.1, cl__1};
Point(10) = {16.436228, 2.221347999999999, 0, cl__1};
Point(11) = {23.928102, 0.1728419999999996, 0.1, cl__2};
Point(12) = {23.928102, 0.1728419999999996, 0, cl__2};
Point(13) = {0.563145, -4.693756, 0.1, cl__3};
Point(14) = {0.563145, -4.693756, 0, cl__3};
Point(15) = {0.563145, 5.121611000000001, 0.1, cl__4};
Point(16) = {0.563145, 5.121611000000001, 0, cl__4};
Point(17) = {37.657082, -4.693756, 0, cl__5};
Point(18) = {37.657082, -4.693756, 0.1, cl__5};
Point(19) = {37.657082, 5.121611000000001, 0.1, cl__6};
Point(20) = {37.657082, 5.121611000000001, 0, cl__6};
p13 = newp;
Point(p13 + 1) = {16.4179703508156, 2.4533334285382, 0.1};
Point(p13 + 2) = {16.36364696717899, 2.679606605910295, 0.1};
Point(p13 + 3) = {16.27459547108429, 2.894595935531759, 0.1};
Point(p13 + 4) = {16.15300860591029, 3.093007666598637, 0.1};
Point(p13 + 5) = {16.00188024380128, 3.269956243801277, 0.1};
Point(p13 + 6) = {15.82493166659864, 3.421084605910294, 0.1};
Point(p13 + 7) = {15.62651993553176, 3.542671471084285, 0.1};
Point(p13 + 8) = {15.4115306059103, 3.631722967178995, 0.1};
Point(p13 + 9) = {15.1852574285382, 3.686046350815603, 0.1};
Point(p13 + 10) = {14.953272, 3.704304, 0.1};
Point(p13 + 11) = {14.7212865714618, 3.686046350815603, 0.1};
Point(p13 + 12) = {14.49501339408971, 3.631722967178995, 0.1};
Point(p13 + 13) = {14.28002406446824, 3.542671471084285, 0.1};
Point(p13 + 14) = {14.08161233340136, 3.421084605910294, 0.1};
Point(p13 + 15) = {13.90466375619872, 3.269956243801277, 0.1};
Point(p13 + 16) = {13.75353539408971, 3.093007666598637, 0.1};
Point(p13 + 17) = {13.63194852891571, 2.894595935531759, 0.1};
Point(p13 + 18) = {13.542897032821, 2.679606605910295, 0.1};
Point(p13 + 19) = {13.4885736491844, 2.453333428538201, 0.1};
Point(p13 + 20) = {13.470316, 2.221348, 0.1};
Point(p13 + 21) = {13.4885736491844, 1.9893625714618, 0.1};
Point(p13 + 22) = {13.542897032821, 1.763089394089705, 0.1};
Point(p13 + 23) = {13.63194852891571, 1.548100064468241, 0.1};
Point(p13 + 24) = {13.75353539408971, 1.349688333401363, 0.1};
Point(p13 + 25) = {13.90466375619872, 1.172739756198722, 0.1};
Point(p13 + 26) = {14.08161233340136, 1.021611394089706, 0.1};
Point(p13 + 27) = {14.28002406446824, 0.9000245289157147, 0.1};
Point(p13 + 28) = {14.49501339408971, 0.8109730328210043, 0.1};
Point(p13 + 29) = {14.7212865714618, 0.756649649184397, 0.1};
Point(p13 + 30) = {14.953272, 0.7383919999999999, 0.1};
Point(p13 + 31) = {15.1852574285382, 0.7566496491843968, 0.1};
Point(p13 + 32) = {15.41153060591029, 0.8109730328210041, 0.1};
Point(p13 + 33) = {15.62651993553176, 0.9000245289157145, 0.1};
Point(p13 + 34) = {15.82493166659864, 1.021611394089705, 0.1};
Point(p13 + 35) = {16.00188024380128, 1.172739756198722, 0.1};
Point(p13 + 36) = {16.15300860591029, 1.349688333401363, 0.1};
Point(p13 + 37) = {16.27459547108429, 1.54810006446824, 0.1};
Point(p13 + 38) = {16.36364696717899, 1.763089394089705, 0.1};
Point(p13 + 39) = {16.4179703508156, 1.989362571461799, 0.1};
Spline(13) = {9, p13 + 1, p13 + 2, p13 + 3, p13 + 4, p13 + 5, p13 + 6, p13 + 7, p13 + 8, p13 + 9, p13 + 10, p13 + 11, p13 + 12, p13 + 13, p13 + 14, p13 + 15, p13 + 16, p13 + 17, p13 + 18, p13 + 19, p13 + 20, p13 + 21, p13 + 22, p13 + 23, p13 + 24, p13 + 25, p13 + 26, p13 + 27, p13 + 28, p13 + 29, p13 + 30, p13 + 31, p13 + 32, p13 + 33, p13 + 34, p13 + 35, p13 + 36, p13 + 37, p13 + 38, p13 + 39, 9};
Line(14) = {10, 9};
p15 = newp;
Point(p15 + 1) = {16.4179703508156, 2.4533334285382, 0};
Point(p15 + 2) = {16.36364696717899, 2.679606605910295, 0};
Point(p15 + 3) = {16.27459547108429, 2.894595935531759, 0};
Point(p15 + 4) = {16.15300860591029, 3.093007666598637, 0};
Point(p15 + 5) = {16.00188024380128, 3.269956243801277, 0};
Point(p15 + 6) = {15.82493166659864, 3.421084605910294, 0};
Point(p15 + 7) = {15.62651993553176, 3.542671471084285, 0};
Point(p15 + 8) = {15.4115306059103, 3.631722967178995, 0};
Point(p15 + 9) = {15.1852574285382, 3.686046350815603, 0};
Point(p15 + 10) = {14.953272, 3.704304, 0};
Point(p15 + 11) = {14.7212865714618, 3.686046350815603, 0};
Point(p15 + 12) = {14.49501339408971, 3.631722967178995, 0};
Point(p15 + 13) = {14.28002406446824, 3.542671471084285, 0};
Point(p15 + 14) = {14.08161233340136, 3.421084605910294, 0};
Point(p15 + 15) = {13.90466375619872, 3.269956243801277, 0};
Point(p15 + 16) = {13.75353539408971, 3.093007666598637, 0};
Point(p15 + 17) = {13.63194852891571, 2.894595935531759, 0};
Point(p15 + 18) = {13.542897032821, 2.679606605910295, 0};
Point(p15 + 19) = {13.4885736491844, 2.453333428538201, 0};
Point(p15 + 20) = {13.470316, 2.221348, 0};
Point(p15 + 21) = {13.4885736491844, 1.9893625714618, 0};
Point(p15 + 22) = {13.542897032821, 1.763089394089705, 0};
Point(p15 + 23) = {13.63194852891571, 1.548100064468241, 0};
Point(p15 + 24) = {13.75353539408971, 1.349688333401363, 0};
Point(p15 + 25) = {13.90466375619872, 1.172739756198722, 0};
Point(p15 + 26) = {14.08161233340136, 1.021611394089706, 0};
Point(p15 + 27) = {14.28002406446824, 0.9000245289157147, 0};
Point(p15 + 28) = {14.49501339408971, 0.8109730328210043, 0};
Point(p15 + 29) = {14.7212865714618, 0.756649649184397, 0};
Point(p15 + 30) = {14.953272, 0.7383919999999999, 0};
Point(p15 + 31) = {15.1852574285382, 0.7566496491843968, 0};
Point(p15 + 32) = {15.41153060591029, 0.8109730328210041, 0};
Point(p15 + 33) = {15.62651993553176, 0.9000245289157145, 0};
Point(p15 + 34) = {15.82493166659864, 1.021611394089705, 0};
Point(p15 + 35) = {16.00188024380128, 1.172739756198722, 0};
Point(p15 + 36) = {16.15300860591029, 1.349688333401363, 0};
Point(p15 + 37) = {16.27459547108429, 1.54810006446824, 0};
Point(p15 + 38) = {16.36364696717899, 1.763089394089705, 0};
Point(p15 + 39) = {16.4179703508156, 1.989362571461799, 0};
Spline(15) = {10, p15 + 1, p15 + 2, p15 + 3, p15 + 4, p15 + 5, p15 + 6, p15 + 7, p15 + 8, p15 + 9, p15 + 10, p15 + 11, p15 + 12, p15 + 13, p15 + 14, p15 + 15, p15 + 16, p15 + 17, p15 + 18, p15 + 19, p15 + 20, p15 + 21, p15 + 22, p15 + 23, p15 + 24, p15 + 25, p15 + 26, p15 + 27, p15 + 28, p15 + 29, p15 + 30, p15 + 31, p15 + 32, p15 + 33, p15 + 34, p15 + 35, p15 + 36, p15 + 37, p15 + 38, p15 + 39, 10};
p16 = newp;
Point(p16 + 1) = {23.90971562010487, 0.4064631073046613, 0.1};
Point(p16 + 2) = {23.85500921411338, 0.6343316876034789, 0.1};
Point(p16 + 3) = {23.7653298353012, 0.850836860197036, 0.1};
Point(p16 + 4) = {23.64288568760348, 1.050647549196607, 0.1};
Point(p16 + 5) = {23.49069175230536, 1.228843752305364, 0.1};
Point(p16 + 6) = {23.31249554919661, 1.381037687603479, 0.1};
Point(p16 + 7) = {23.11268486019704, 1.503481835301199, 0.1};
Point(p16 + 8) = {22.89617968760348, 1.593161214113378, 0.1};
Point(p16 + 9) = {22.66831110730466, 1.647867620104866, 0.1};
Point(p16 + 10) = {22.43469, 1.666254, 0.1};
Point(p16 + 11) = {22.20106889269534, 1.647867620104866, 0.1};
Point(p16 + 12) = {21.97320031239652, 1.593161214113378, 0.1};
Point(p16 + 13) = {21.75669513980296, 1.503481835301199, 0.1};
Point(p16 + 14) = {21.55688445080339, 1.381037687603479, 0.1};
Point(p16 + 15) = {21.37868824769464, 1.228843752305364, 0.1};
Point(p16 + 16) = {21.22649431239652, 1.050647549196607, 0.1};
Point(p16 + 17) = {21.1040501646988, 0.8508368601970362, 0.1};
Point(p16 + 18) = {21.01437078588662, 0.634331687603479, 0.1};
Point(p16 + 19) = {20.95966437989513, 0.4064631073046614, 0.1};
Point(p16 + 20) = {20.941278, 0.1728420000000002, 0.1};
Point(p16 + 21) = {20.95966437989513, -0.0607791073046611, 0.1};
Point(p16 + 22) = {21.01437078588662, -0.2886476876034794, 0.1};
Point(p16 + 23) = {21.1040501646988, -0.5051528601970352, 0.1};
Point(p16 + 24) = {21.22649431239652, -0.7049635491966066, 0.1};
Point(p16 + 25) = {21.37868824769464, -0.8831597523053643, 0.1};
Point(p16 + 26) = {21.55688445080339, -1.035353687603479, 0.1};
Point(p16 + 27) = {21.75669513980296, -1.157797835301199, 0.1};
Point(p16 + 28) = {21.97320031239652, -1.247477214113378, 0.1};
Point(p16 + 29) = {22.20106889269534, -1.302183620104866, 0.1};
Point(p16 + 30) = {22.43469, -1.32057, 0.1};
Point(p16 + 31) = {22.66831110730466, -1.302183620104866, 0.1};
Point(p16 + 32) = {22.89617968760348, -1.247477214113378, 0.1};
Point(p16 + 33) = {23.11268486019704, -1.157797835301199, 0.1};
Point(p16 + 34) = {23.3124955491966, -1.035353687603479, 0.1};
Point(p16 + 35) = {23.49069175230536, -0.8831597523053645, 0.1};
Point(p16 + 36) = {23.64288568760348, -0.7049635491966071, 0.1};
Point(p16 + 37) = {23.7653298353012, -0.5051528601970363, 0.1};
Point(p16 + 38) = {23.85500921411338, -0.2886476876034793, 0.1};
Point(p16 + 39) = {23.90971562010487, -0.06077910730466163, 0.1};
Spline(16) = {11, p16 + 1, p16 + 2, p16 + 3, p16 + 4, p16 + 5, p16 + 6, p16 + 7, p16 + 8, p16 + 9, p16 + 10, p16 + 11, p16 + 12, p16 + 13, p16 + 14, p16 + 15, p16 + 16, p16 + 17, p16 + 18, p16 + 19, p16 + 20, p16 + 21, p16 + 22, p16 + 23, p16 + 24, p16 + 25, p16 + 26, p16 + 27, p16 + 28, p16 + 29, p16 + 30, p16 + 31, p16 + 32, p16 + 33, p16 + 34, p16 + 35, p16 + 36, p16 + 37, p16 + 38, p16 + 39, 11};
Line(17) = {12, 11};
p18 = newp;
Point(p18 + 1) = {23.90971562010487, 0.4064631073046613, 0};
Point(p18 + 2) = {23.85500921411338, 0.6343316876034789, 0};
Point(p18 + 3) = {23.7653298353012, 0.850836860197036, 0};
Point(p18 + 4) = {23.64288568760348, 1.050647549196607, 0};
Point(p18 + 5) = {23.49069175230536, 1.228843752305364, 0};
Point(p18 + 6) = {23.31249554919661, 1.381037687603479, 0};
Point(p18 + 7) = {23.11268486019704, 1.503481835301199, 0};
Point(p18 + 8) = {22.89617968760348, 1.593161214113378, 0};
Point(p18 + 9) = {22.66831110730466, 1.647867620104866, 0};
Point(p18 + 10) = {22.43469, 1.666254, 0};
Point(p18 + 11) = {22.20106889269534, 1.647867620104866, 0};
Point(p18 + 12) = {21.97320031239652, 1.593161214113378, 0};
Point(p18 + 13) = {21.75669513980296, 1.503481835301199, 0};
Point(p18 + 14) = {21.55688445080339, 1.381037687603479, 0};
Point(p18 + 15) = {21.37868824769464, 1.228843752305364, 0};
Point(p18 + 16) = {21.22649431239652, 1.050647549196607, 0};
Point(p18 + 17) = {21.1040501646988, 0.8508368601970362, 0};
Point(p18 + 18) = {21.01437078588662, 0.634331687603479, 0};
Point(p18 + 19) = {20.95966437989513, 0.4064631073046614, 0};
Point(p18 + 20) = {20.941278, 0.1728420000000002, 0};
Point(p18 + 21) = {20.95966437989513, -0.0607791073046611, 0};
Point(p18 + 22) = {21.01437078588662, -0.2886476876034794, 0};
Point(p18 + 23) = {21.1040501646988, -0.5051528601970352, 0};
Point(p18 + 24) = {21.22649431239652, -0.7049635491966066, 0};
Point(p18 + 25) = {21.37868824769464, -0.8831597523053643, 0};
Point(p18 + 26) = {21.55688445080339, -1.035353687603479, 0};
Point(p18 + 27) = {21.75669513980296, -1.157797835301199, 0};
Point(p18 + 28) = {21.97320031239652, -1.247477214113378, 0};
Point(p18 + 29) = {22.20106889269534, -1.302183620104866, 0};
Point(p18 + 30) = {22.43469, -1.32057, 0};
Point(p18 + 31) = {22.66831110730466, -1.302183620104866, 0};
Point(p18 + 32) = {22.89617968760348, -1.247477214113378, 0};
Point(p18 + 33) = {23.11268486019704, -1.157797835301199, 0};
Point(p18 + 34) = {23.3124955491966, -1.035353687603479, 0};
Point(p18 + 35) = {23.49069175230536, -0.8831597523053645, 0};
Point(p18 + 36) = {23.64288568760348, -0.7049635491966071, 0};
Point(p18 + 37) = {23.7653298353012, -0.5051528601970363, 0};
Point(p18 + 38) = {23.85500921411338, -0.2886476876034793, 0};
Point(p18 + 39) = {23.90971562010487, -0.06077910730466163, 0};
Spline(18) = {12, p18 + 1, p18 + 2, p18 + 3, p18 + 4, p18 + 5, p18 + 6, p18 + 7, p18 + 8, p18 + 9, p18 + 10, p18 + 11, p18 + 12, p18 + 13, p18 + 14, p18 + 15, p18 + 16, p18 + 17, p18 + 18, p18 + 19, p18 + 20, p18 + 21, p18 + 22, p18 + 23, p18 + 24, p18 + 25, p18 + 26, p18 + 27, p18 + 28, p18 + 29, p18 + 30, p18 + 31, p18 + 32, p18 + 33, p18 + 34, p18 + 35, p18 + 36, p18 + 37, p18 + 38, p18 + 39, 12};
Line(19) = {14, 13};
Line(20) = {13, 15};
Line(21) = {16, 15};
Line(22) = {14, 16};
Line(23) = {14, 17};
Line(24) = {17, 18};
Line(25) = {13, 18};
Line(26) = {15, 19};
Line(27) = {18, 19};
Line(28) = {16, 20};
Line(29) = {20, 19};
Line(30) = {17, 20};
Curve Loop(7) = {-13, -14, 15, 14};
Surface(7) = {7};
Curve Loop(8) = {13};
Plane Surface(8) = {8};
Curve Loop(9) = {15};
Plane Surface(9) = {9};
Curve Loop(10) = {-16, -17, 18, 17};
Surface(10) = {10};
Curve Loop(11) = {16};
Plane Surface(11) = {11};
Curve Loop(12) = {18};
Plane Surface(12) = {12};
Curve Loop(13) = {-19, 22, 21, -20};
Plane Surface(13) = {13};
Curve Loop(14) = {-23, 19, 25, -24};
Plane Surface(14) = {14};
Curve Loop(15) = {-20, 25, 27, -26, -16, -13};
Plane Surface(15) = {15};
Curve Loop(16) = {-28, 21, 26, -29};
Plane Surface(16) = {16};
Curve Loop(17) = {-22, 23, 30, -28, -18, -15};
Plane Surface(17) = {17};
Curve Loop(18) = {-24, 30, 29, -27};
Plane Surface(18) = {18};
Surface Loop(1) = {13, 14, 15, 16, 17, 18, 10, 7};
Volume(1) = {1};
Surface Loop(2) = {7, 8, 9};
Volume(2) = {2};
Surface Loop(3) = {10, 11, 12};
Volume(3) = {3};
Physical Surface("WALLS") = {13, 18};
Physical Surface("LOAD") = {8, 11};
Physical Surface("BORDER") = {7, 9, 10, 12, 14, 15, 16, 17};
Physical Volume("SOLID") = {1, 2, 3};
