cl__1 = 0.119181;
cl__2 = 0.147392;
cl__3 = 0.486555;
cl__4 = 0.574715;
cl__5 = 3.23555;
cl__6 = 3.110091;
Point(9) = {6.353908, -0.1782750000000003, 0.1, cl__1};
Point(10) = {6.353908, -0.1782750000000003, 0, cl__1};
Point(11) = {16.104056, 0.9233109999999995, 0.1, cl__2};
Point(12) = {16.104056, 0.9233109999999995, 0, cl__2};
Point(13) = {0.106331, -3.361472, 0.1, cl__3};
Point(14) = {0.106331, -3.361472, 0, cl__3};
Point(15) = {0.106331, 4.430224, 0.1, cl__4};
Point(16) = {0.106331, 4.430224, 0, cl__4};
Point(17) = {30.058471, -3.361472, 0, cl__5};
Point(18) = {30.058471, -3.361472, 0.1, cl__5};
Point(19) = {30.058471, 4.430224, 0.1, cl__6};
Point(20) = {30.058471, 4.430224, 0, cl__6};
p13 = newp;
Point(p13 + 1) = {6.339234890451329, 0.008164534041737392, 0.1};
Point(p13 + 2) = {6.295576862459662, 0.1900133079980285, 0.1};
Point(p13 + 3) = {6.224008921566842, 0.3627936015325902, 0.1};
Point(p13 + 4) = {6.126293307998028, 0.5222509903936833, 0.1};
Point(p13 + 5) = {6.004836104458814, 0.6644591044588144, 0.1};
Point(p13 + 6) = {5.862627990393683, 0.7859163079980285, 0.1};
Point(p13 + 7) = {5.70317060153259, 0.8836319215668418, 0.1};
Point(p13 + 8) = {5.530390307998029, 0.9551998624596618, 0.1};
Point(p13 + 9) = {5.348541534041737, 0.9988578904513288, 0.1};
Point(p13 + 10) = {5.162102, 1.013531, 0.1};
Point(p13 + 11) = {4.975662465958262, 0.9988578904513286, 0.1};
Point(p13 + 12) = {4.793813692001971, 0.9551998624596618, 0.1};
Point(p13 + 13) = {4.62103339846741, 0.883631921566842, 0.1};
Point(p13 + 14) = {4.461576009606317, 0.7859163079980286, 0.1};
Point(p13 + 15) = {4.319367895541186, 0.6644591044588145, 0.1};
Point(p13 + 16) = {4.197910692001972, 0.5222509903936834, 0.1};
Point(p13 + 17) = {4.100195078433158, 0.3627936015325904, 0.1};
Point(p13 + 18) = {4.028627137540338, 0.1900133079980287, 0.1};
Point(p13 + 19) = {3.984969109548671, 0.008164534041737531, 0.1};
Point(p13 + 20) = {3.970296, -0.1782749999999999, 0.1};
Point(p13 + 21) = {3.984969109548671, -0.3647145340417373, 0.1};
Point(p13 + 22) = {4.028627137540338, -0.5465633079980289, 0.1};
Point(p13 + 23) = {4.100195078433158, -0.7193436015325897, 0.1};
Point(p13 + 24) = {4.197910692001972, -0.878800990393683, 0.1};
Point(p13 + 25) = {4.319367895541186, -1.021009104458814, 0.1};
Point(p13 + 26) = {4.461576009606317, -1.142466307998028, 0.1};
Point(p13 + 27) = {4.62103339846741, -1.240181921566842, 0.1};
Point(p13 + 28) = {4.793813692001971, -1.311749862459662, 0.1};
Point(p13 + 29) = {4.975662465958262, -1.355407890451328, 0.1};
Point(p13 + 30) = {5.162102, -1.370081, 0.1};
Point(p13 + 31) = {5.348541534041737, -1.355407890451329, 0.1};
Point(p13 + 32) = {5.530390307998029, -1.311749862459662, 0.1};
Point(p13 + 33) = {5.70317060153259, -1.240181921566842, 0.1};
Point(p13 + 34) = {5.862627990393683, -1.142466307998029, 0.1};
Point(p13 + 35) = {6.004836104458814, -1.021009104458815, 0.1};
Point(p13 + 36) = {6.126293307998028, -0.8788009903936833, 0.1};
Point(p13 + 37) = {6.224008921566842, -0.7193436015325905, 0.1};
Point(p13 + 38) = {6.295576862459662, -0.5465633079980288, 0.1};
Point(p13 + 39) = {6.339234890451328, -0.3647145340417377, 0.1};
Spline(13) = {9, p13 + 1, p13 + 2, p13 + 3, p13 + 4, p13 + 5, p13 + 6, p13 + 7, p13 + 8, p13 + 9, p13 + 10, p13 + 11, p13 + 12, p13 + 13, p13 + 14, p13 + 15, p13 + 16, p13 + 17, p13 + 18, p13 + 19, p13 + 20, p13 + 21, p13 + 22, p13 + 23, p13 + 24, p13 + 25, p13 + 26, p13 + 27, p13 + 28, p13 + 29, p13 + 30, p13 + 31, p13 + 32, p13 + 33, p13 + 34, p13 + 35, p13 + 36, p13 + 37, p13 + 38, p13 + 39, 9};
Line(14) = {10, 9};
p15 = newp;
Point(p15 + 1) = {6.339234890451329, 0.008164534041737392, 0};
Point(p15 + 2) = {6.295576862459662, 0.1900133079980285, 0};
Point(p15 + 3) = {6.224008921566842, 0.3627936015325902, 0};
Point(p15 + 4) = {6.126293307998028, 0.5222509903936833, 0};
Point(p15 + 5) = {6.004836104458814, 0.6644591044588144, 0};
Point(p15 + 6) = {5.862627990393683, 0.7859163079980285, 0};
Point(p15 + 7) = {5.70317060153259, 0.8836319215668418, 0};
Point(p15 + 8) = {5.530390307998029, 0.9551998624596618, 0};
Point(p15 + 9) = {5.348541534041737, 0.9988578904513288, 0};
Point(p15 + 10) = {5.162102, 1.013531, 0};
Point(p15 + 11) = {4.975662465958262, 0.9988578904513286, 0};
Point(p15 + 12) = {4.793813692001971, 0.9551998624596618, 0};
Point(p15 + 13) = {4.62103339846741, 0.883631921566842, 0};
Point(p15 + 14) = {4.461576009606317, 0.7859163079980286, 0};
Point(p15 + 15) = {4.319367895541186, 0.6644591044588145, 0};
Point(p15 + 16) = {4.197910692001972, 0.5222509903936834, 0};
Point(p15 + 17) = {4.100195078433158, 0.3627936015325904, 0};
Point(p15 + 18) = {4.028627137540338, 0.1900133079980287, 0};
Point(p15 + 19) = {3.984969109548671, 0.008164534041737531, 0};
Point(p15 + 20) = {3.970296, -0.1782749999999999, 0};
Point(p15 + 21) = {3.984969109548671, -0.3647145340417373, 0};
Point(p15 + 22) = {4.028627137540338, -0.5465633079980289, 0};
Point(p15 + 23) = {4.100195078433158, -0.7193436015325897, 0};
Point(p15 + 24) = {4.197910692001972, -0.878800990393683, 0};
Point(p15 + 25) = {4.319367895541186, -1.021009104458814, 0};
Point(p15 + 26) = {4.461576009606317, -1.142466307998028, 0};
Point(p15 + 27) = {4.62103339846741, -1.240181921566842, 0};
Point(p15 + 28) = {4.793813692001971, -1.311749862459662, 0};
Point(p15 + 29) = {4.975662465958262, -1.355407890451328, 0};
Point(p15 + 30) = {5.162102, -1.370081, 0};
Point(p15 + 31) = {5.348541534041737, -1.355407890451329, 0};
Point(p15 + 32) = {5.530390307998029, -1.311749862459662, 0};
Point(p15 + 33) = {5.70317060153259, -1.240181921566842, 0};
Point(p15 + 34) = {5.862627990393683, -1.142466307998029, 0};
Point(p15 + 35) = {6.004836104458814, -1.021009104458815, 0};
Point(p15 + 36) = {6.126293307998028, -0.8788009903936833, 0};
Point(p15 + 37) = {6.224008921566842, -0.7193436015325905, 0};
Point(p15 + 38) = {6.295576862459662, -0.5465633079980288, 0};
Point(p15 + 39) = {6.339234890451328, -0.3647145340417377, 0};
Spline(15) = {10, p15 + 1, p15 + 2, p15 + 3, p15 + 4, p15 + 5, p15 + 6, p15 + 7, p15 + 8, p15 + 9, p15 + 10, p15 + 11, p15 + 12, p15 + 13, p15 + 14, p15 + 15, p15 + 16, p15 + 17, p15 + 18, p15 + 19, p15 + 20, p15 + 21, p15 + 22, p15 + 23, p15 + 24, p15 + 25, p15 + 26, p15 + 27, p15 + 28, p15 + 29, p15 + 30, p15 + 31, p15 + 32, p15 + 33, p15 + 34, p15 + 35, p15 + 36, p15 + 37, p15 + 38, p15 + 39, 10};
p16 = newp;
Point(p16 + 1) = {16.08590957434667, 1.153883199581027, 0.1};
Point(p16 + 2) = {16.03191712261079, 1.378777946383111, 0.1};
Point(p16 + 3) = {15.94340811814477, 1.592457585357112, 0.1};
Point(p16 + 4) = {15.82256194638311, 1.789660614629426, 0.1};
Point(p16 + 5) = {15.67235424114004, 1.965531241140038, 0.1};
Point(p16 + 6) = {15.49648361462943, 2.115738946383111, 0.1};
Point(p16 + 7) = {15.29928058535711, 2.236585118144768, 0.1};
Point(p16 + 8) = {15.08560094638311, 2.325094122610786, 0.1};
Point(p16 + 9) = {14.86070619958103, 2.379086574346667, 0.1};
Point(p16 + 10) = {14.630134, 2.397233, 0.1};
Point(p16 + 11) = {14.39956180041897, 2.379086574346666, 0.1};
Point(p16 + 12) = {14.17466705361689, 2.325094122610786, 0.1};
Point(p16 + 13) = {13.96098741464289, 2.236585118144768, 0.1};
Point(p16 + 14) = {13.76378438537057, 2.115738946383111, 0.1};
Point(p16 + 15) = {13.58791375885996, 1.965531241140039, 0.1};
Point(p16 + 16) = {13.43770605361689, 1.789660614629427, 0.1};
Point(p16 + 17) = {13.31685988185523, 1.592457585357112, 0.1};
Point(p16 + 18) = {13.22835087738921, 1.378777946383111, 0.1};
Point(p16 + 19) = {13.17435842565333, 1.153883199581027, 0.1};
Point(p16 + 20) = {13.156212, 0.9233110000000002, 0.1};
Point(p16 + 21) = {13.17435842565333, 0.692738800418973, 0.1};
Point(p16 + 22) = {13.22835087738921, 0.4678440536168883, 0.1};
Point(p16 + 23) = {13.31685988185523, 0.2541644146428884, 0.1};
Point(p16 + 24) = {13.43770605361689, 0.0569613853705736, 0.1};
Point(p16 + 25) = {13.58791375885996, -0.1189092411400383, 0.1};
Point(p16 + 26) = {13.76378438537057, -0.2691169463831111, 0.1};
Point(p16 + 27) = {13.96098741464289, -0.3899631181447674, 0.1};
Point(p16 + 28) = {14.17466705361689, -0.4784721226107853, 0.1};
Point(p16 + 29) = {14.39956180041897, -0.5324645743466665, 0.1};
Point(p16 + 30) = {14.630134, -0.550611, 0.1};
Point(p16 + 31) = {14.86070619958103, -0.5324645743466667, 0.1};
Point(p16 + 32) = {15.08560094638311, -0.4784721226107853, 0.1};
Point(p16 + 33) = {15.29928058535711, -0.3899631181447678, 0.1};
Point(p16 + 34) = {15.49648361462943, -0.2691169463831113, 0.1};
Point(p16 + 35) = {15.67235424114004, -0.1189092411400388, 0.1};
Point(p16 + 36) = {15.82256194638311, 0.05696138537057327, 0.1};
Point(p16 + 37) = {15.94340811814477, 0.2541644146428874, 0.1};
Point(p16 + 38) = {16.03191712261079, 0.4678440536168885, 0.1};
Point(p16 + 39) = {16.08590957434667, 0.6927388004189725, 0.1};
Spline(16) = {11, p16 + 1, p16 + 2, p16 + 3, p16 + 4, p16 + 5, p16 + 6, p16 + 7, p16 + 8, p16 + 9, p16 + 10, p16 + 11, p16 + 12, p16 + 13, p16 + 14, p16 + 15, p16 + 16, p16 + 17, p16 + 18, p16 + 19, p16 + 20, p16 + 21, p16 + 22, p16 + 23, p16 + 24, p16 + 25, p16 + 26, p16 + 27, p16 + 28, p16 + 29, p16 + 30, p16 + 31, p16 + 32, p16 + 33, p16 + 34, p16 + 35, p16 + 36, p16 + 37, p16 + 38, p16 + 39, 11};
Line(17) = {12, 11};
p18 = newp;
Point(p18 + 1) = {16.08590957434667, 1.153883199581027, 0};
Point(p18 + 2) = {16.03191712261079, 1.378777946383111, 0};
Point(p18 + 3) = {15.94340811814477, 1.592457585357112, 0};
Point(p18 + 4) = {15.82256194638311, 1.789660614629426, 0};
Point(p18 + 5) = {15.67235424114004, 1.965531241140038, 0};
Point(p18 + 6) = {15.49648361462943, 2.115738946383111, 0};
Point(p18 + 7) = {15.29928058535711, 2.236585118144768, 0};
Point(p18 + 8) = {15.08560094638311, 2.325094122610786, 0};
Point(p18 + 9) = {14.86070619958103, 2.379086574346667, 0};
Point(p18 + 10) = {14.630134, 2.397233, 0};
Point(p18 + 11) = {14.39956180041897, 2.379086574346666, 0};
Point(p18 + 12) = {14.17466705361689, 2.325094122610786, 0};
Point(p18 + 13) = {13.96098741464289, 2.236585118144768, 0};
Point(p18 + 14) = {13.76378438537057, 2.115738946383111, 0};
Point(p18 + 15) = {13.58791375885996, 1.965531241140039, 0};
Point(p18 + 16) = {13.43770605361689, 1.789660614629427, 0};
Point(p18 + 17) = {13.31685988185523, 1.592457585357112, 0};
Point(p18 + 18) = {13.22835087738921, 1.378777946383111, 0};
Point(p18 + 19) = {13.17435842565333, 1.153883199581027, 0};
Point(p18 + 20) = {13.156212, 0.9233110000000002, 0};
Point(p18 + 21) = {13.17435842565333, 0.692738800418973, 0};
Point(p18 + 22) = {13.22835087738921, 0.4678440536168883, 0};
Point(p18 + 23) = {13.31685988185523, 0.2541644146428884, 0};
Point(p18 + 24) = {13.43770605361689, 0.0569613853705736, 0};
Point(p18 + 25) = {13.58791375885996, -0.1189092411400383, 0};
Point(p18 + 26) = {13.76378438537057, -0.2691169463831111, 0};
Point(p18 + 27) = {13.96098741464289, -0.3899631181447674, 0};
Point(p18 + 28) = {14.17466705361689, -0.4784721226107853, 0};
Point(p18 + 29) = {14.39956180041897, -0.5324645743466665, 0};
Point(p18 + 30) = {14.630134, -0.550611, 0};
Point(p18 + 31) = {14.86070619958103, -0.5324645743466667, 0};
Point(p18 + 32) = {15.08560094638311, -0.4784721226107853, 0};
Point(p18 + 33) = {15.29928058535711, -0.3899631181447678, 0};
Point(p18 + 34) = {15.49648361462943, -0.2691169463831113, 0};
Point(p18 + 35) = {15.67235424114004, -0.1189092411400388, 0};
Point(p18 + 36) = {15.82256194638311, 0.05696138537057327, 0};
Point(p18 + 37) = {15.94340811814477, 0.2541644146428874, 0};
Point(p18 + 38) = {16.03191712261079, 0.4678440536168885, 0};
Point(p18 + 39) = {16.08590957434667, 0.6927388004189725, 0};
Spline(18) = {12, p18 + 1, p18 + 2, p18 + 3, p18 + 4, p18 + 5, p18 + 6, p18 + 7, p18 + 8, p18 + 9, p18 + 10, p18 + 11, p18 + 12, p18 + 13, p18 + 14, p18 + 15, p18 + 16, p18 + 17, p18 + 18, p18 + 19, p18 + 20, p18 + 21, p18 + 22, p18 + 23, p18 + 24, p18 + 25, p18 + 26, p18 + 27, p18 + 28, p18 + 29, p18 + 30, p18 + 31, p18 + 32, p18 + 33, p18 + 34, p18 + 35, p18 + 36, p18 + 37, p18 + 38, p18 + 39, 12};
Line(19) = {14, 13};
Line(20) = {13, 15};
Line(21) = {16, 15};
Line(22) = {14, 16};
Line(23) = {14, 17};
Line(24) = {17, 18};
Line(25) = {13, 18};
Line(26) = {15, 19};
Line(27) = {18, 19};
Line(28) = {16, 20};
Line(29) = {20, 19};
Line(30) = {17, 20};
Curve Loop(7) = {-13, -14, 15, 14};
Surface(7) = {7};
Curve Loop(8) = {13};
Plane Surface(8) = {8};
Curve Loop(9) = {15};
Plane Surface(9) = {9};
Curve Loop(10) = {-16, -17, 18, 17};
Surface(10) = {10};
Curve Loop(11) = {16};
Plane Surface(11) = {11};
Curve Loop(12) = {18};
Plane Surface(12) = {12};
Curve Loop(13) = {-19, 22, 21, -20};
Plane Surface(13) = {13};
Curve Loop(14) = {-23, 19, 25, -24};
Plane Surface(14) = {14};
Curve Loop(15) = {-20, 25, 27, -26, -13, -16};
Plane Surface(15) = {15};
Curve Loop(16) = {-28, 21, 26, -29};
Plane Surface(16) = {16};
Curve Loop(17) = {-22, 23, 30, -28, -15, -18};
Plane Surface(17) = {17};
Curve Loop(18) = {-24, 30, 29, -27};
Plane Surface(18) = {18};
Surface Loop(1) = {13, 14, 15, 16, 17, 18, 7, 10};
Volume(1) = {1};
Surface Loop(2) = {7, 8, 9};
Volume(2) = {2};
Surface Loop(3) = {10, 11, 12};
Volume(3) = {3};
Physical Surface("WALLS") = {13, 18};
Physical Surface("LOAD") = {8, 11};
Physical Surface("BORDER") = {7, 9, 10, 12, 14, 15, 16, 17};
Physical Volume("SOLID") = {1, 2, 3};
