cl__1 = 0.066994;
cl__2 = 0.149566;
cl__3 = 4.147961;
cl__4 = 4.109546;
cl__5 = 0.348244;
cl__6 = 0.443256;
Point(9) = {23.661104, 1.056602, 0.1, cl__1};
Point(10) = {23.661104, 1.056602, 0, cl__1};
Point(11) = {32.377879, -0.1021910000000004, 0.1, cl__2};
Point(12) = {32.377879, -0.1021910000000004, 0, cl__2};
Point(13) = {0.343576, -3.850525, 1, cl__3};
Point(14) = {0.343576, -3.850525, 0, cl__3};
Point(15) = {0.343576, 5.623342, 1, cl__4};
Point(16) = {0.343576, 5.623342, 0, cl__4};
Point(17) = {36.03636, -3.850525, 0, cl__5};
Point(18) = {36.03636, -3.850525, 1, cl__5};
Point(19) = {36.03636, 5.623342, 1, cl__6};
Point(20) = {36.03636, 5.623342, 0, cl__6};
p13 = newp;
Point(p13 + 1) = {23.6528559884566, 1.161402923336727, 0.1};
Point(p13 + 2) = {23.62831504724419, 1.26362330012658, 0.1};
Point(p13 + 3) = {23.58808545578214, 1.360746125443013, 0.1};
Point(p13 + 4) = {23.53315780012658, 1.450379912994558, 0.1};
Point(p13 + 5) = {23.46488458145421, 1.53031758145421, 0.1};
Point(p13 + 6) = {23.38494691299456, 1.59859080012658, 0.1};
Point(p13 + 7) = {23.29531312544301, 1.653518455782134, 0.1};
Point(p13 + 8) = {23.19819030012658, 1.693748047244194, 0.1};
Point(p13 + 9) = {23.09596992333673, 1.718288988456603, 0.1};
Point(p13 + 10) = {22.991169, 1.726537, 0.1};
Point(p13 + 11) = {22.88636807666327, 1.718288988456603, 0.1};
Point(p13 + 12) = {22.78414769987342, 1.693748047244194, 0.1};
Point(p13 + 13) = {22.68702487455699, 1.653518455782134, 0.1};
Point(p13 + 14) = {22.59739108700544, 1.59859080012658, 0.1};
Point(p13 + 15) = {22.51745341854579, 1.53031758145421, 0.1};
Point(p13 + 16) = {22.44918019987342, 1.450379912994558, 0.1};
Point(p13 + 17) = {22.39425254421786, 1.360746125443013, 0.1};
Point(p13 + 18) = {22.35402295275581, 1.26362330012658, 0.1};
Point(p13 + 19) = {22.32948201154339, 1.161402923336727, 0.1};
Point(p13 + 20) = {22.321234, 1.056602, 0.1};
Point(p13 + 21) = {22.32948201154339, 0.9518010766632731, 0.1};
Point(p13 + 22) = {22.35402295275581, 0.8495806998734194, 0.1};
Point(p13 + 23) = {22.39425254421786, 0.7524578745569871, 0.1};
Point(p13 + 24) = {22.44918019987342, 0.6628240870054422, 0.1};
Point(p13 + 25) = {22.51745341854579, 0.5828864185457905, 0.1};
Point(p13 + 26) = {22.59739108700544, 0.5146131998734197, 0.1};
Point(p13 + 27) = {22.68702487455699, 0.4596855442178659, 0.1};
Point(p13 + 28) = {22.78414769987342, 0.4194559527558064, 0.1};
Point(p13 + 29) = {22.88636807666327, 0.3949150115433966, 0.1};
Point(p13 + 30) = {22.991169, 0.3866670000000001, 0.1};
Point(p13 + 31) = {23.09596992333672, 0.3949150115433965, 0.1};
Point(p13 + 32) = {23.19819030012658, 0.4194559527558064, 0.1};
Point(p13 + 33) = {23.29531312544301, 0.4596855442178658, 0.1};
Point(p13 + 34) = {23.38494691299456, 0.5146131998734196, 0.1};
Point(p13 + 35) = {23.46488458145421, 0.5828864185457903, 0.1};
Point(p13 + 36) = {23.53315780012658, 0.662824087005442, 0.1};
Point(p13 + 37) = {23.58808545578214, 0.7524578745569867, 0.1};
Point(p13 + 38) = {23.62831504724419, 0.8495806998734196, 0.1};
Point(p13 + 39) = {23.6528559884566, 0.9518010766632728, 0.1};
Spline(13) = {9, p13 + 1, p13 + 2, p13 + 3, p13 + 4, p13 + 5, p13 + 6, p13 + 7, p13 + 8, p13 + 9, p13 + 10, p13 + 11, p13 + 12, p13 + 13, p13 + 14, p13 + 15, p13 + 16, p13 + 17, p13 + 18, p13 + 19, p13 + 20, p13 + 21, p13 + 22, p13 + 23, p13 + 24, p13 + 25, p13 + 26, p13 + 27, p13 + 28, p13 + 29, p13 + 30, p13 + 31, p13 + 32, p13 + 33, p13 + 34, p13 + 35, p13 + 36, p13 + 37, p13 + 38, p13 + 39, 9};
Line(14) = {10, 9};
p15 = newp;
Point(p15 + 1) = {23.6528559884566, 1.161402923336727, 0};
Point(p15 + 2) = {23.62831504724419, 1.26362330012658, 0};
Point(p15 + 3) = {23.58808545578214, 1.360746125443013, 0};
Point(p15 + 4) = {23.53315780012658, 1.450379912994558, 0};
Point(p15 + 5) = {23.46488458145421, 1.53031758145421, 0};
Point(p15 + 6) = {23.38494691299456, 1.59859080012658, 0};
Point(p15 + 7) = {23.29531312544301, 1.653518455782134, 0};
Point(p15 + 8) = {23.19819030012658, 1.693748047244194, 0};
Point(p15 + 9) = {23.09596992333673, 1.718288988456603, 0};
Point(p15 + 10) = {22.991169, 1.726537, 0};
Point(p15 + 11) = {22.88636807666327, 1.718288988456603, 0};
Point(p15 + 12) = {22.78414769987342, 1.693748047244194, 0};
Point(p15 + 13) = {22.68702487455699, 1.653518455782134, 0};
Point(p15 + 14) = {22.59739108700544, 1.59859080012658, 0};
Point(p15 + 15) = {22.51745341854579, 1.53031758145421, 0};
Point(p15 + 16) = {22.44918019987342, 1.450379912994558, 0};
Point(p15 + 17) = {22.39425254421786, 1.360746125443013, 0};
Point(p15 + 18) = {22.35402295275581, 1.26362330012658, 0};
Point(p15 + 19) = {22.32948201154339, 1.161402923336727, 0};
Point(p15 + 20) = {22.321234, 1.056602, 0};
Point(p15 + 21) = {22.32948201154339, 0.9518010766632731, 0};
Point(p15 + 22) = {22.35402295275581, 0.8495806998734194, 0};
Point(p15 + 23) = {22.39425254421786, 0.7524578745569871, 0};
Point(p15 + 24) = {22.44918019987342, 0.6628240870054422, 0};
Point(p15 + 25) = {22.51745341854579, 0.5828864185457905, 0};
Point(p15 + 26) = {22.59739108700544, 0.5146131998734197, 0};
Point(p15 + 27) = {22.68702487455699, 0.4596855442178659, 0};
Point(p15 + 28) = {22.78414769987342, 0.4194559527558064, 0};
Point(p15 + 29) = {22.88636807666327, 0.3949150115433966, 0};
Point(p15 + 30) = {22.991169, 0.3866670000000001, 0};
Point(p15 + 31) = {23.09596992333672, 0.3949150115433965, 0};
Point(p15 + 32) = {23.19819030012658, 0.4194559527558064, 0};
Point(p15 + 33) = {23.29531312544301, 0.4596855442178658, 0};
Point(p15 + 34) = {23.38494691299456, 0.5146131998734196, 0};
Point(p15 + 35) = {23.46488458145421, 0.5828864185457903, 0};
Point(p15 + 36) = {23.53315780012658, 0.662824087005442, 0};
Point(p15 + 37) = {23.58808545578214, 0.7524578745569867, 0};
Point(p15 + 38) = {23.62831504724419, 0.8495806998734196, 0};
Point(p15 + 39) = {23.6528559884566, 0.9518010766632728, 0};
Spline(15) = {10, p15 + 1, p15 + 2, p15 + 3, p15 + 4, p15 + 5, p15 + 6, p15 + 7, p15 + 8, p15 + 9, p15 + 10, p15 + 11, p15 + 12, p15 + 13, p15 + 14, p15 + 15, p15 + 16, p15 + 17, p15 + 18, p15 + 19, p15 + 20, p15 + 21, p15 + 22, p15 + 23, p15 + 24, p15 + 25, p15 + 26, p15 + 27, p15 + 28, p15 + 29, p15 + 30, p15 + 31, p15 + 32, p15 + 33, p15 + 34, p15 + 35, p15 + 36, p15 + 37, p15 + 38, p15 + 39, 10};
p16 = newp;
Point(p16 + 1) = {32.35946489424789, 0.1317823977199319, 0.1};
Point(p16 + 2) = {32.30467599338807, 0.3599945938748114, 0.1};
Point(p16 + 3) = {32.21486138199367, 0.5768262468024494, 0.1};
Point(p16 + 4) = {32.09223259387481, 0.7769382415847695, 0.1};
Point(p16 + 5) = {31.93980915677659, 0.9554031567765963, 0.1};
Point(p16 + 6) = {31.76134424158477, 1.107826593874811, 0.1};
Point(p16 + 7) = {31.56123224680245, 1.230455381993671, 0.1};
Point(p16 + 8) = {31.34440059387481, 1.320269993388075, 0.1};
Point(p16 + 9) = {31.11618839771993, 1.375058894247886, 0.1};
Point(p16 + 10) = {30.882215, 1.393473, 0.1};
Point(p16 + 11) = {30.64824160228007, 1.375058894247886, 0.1};
Point(p16 + 12) = {30.42002940612519, 1.320269993388075, 0.1};
Point(p16 + 13) = {30.20319775319755, 1.230455381993671, 0.1};
Point(p16 + 14) = {30.00308575841523, 1.107826593874812, 0.1};
Point(p16 + 15) = {29.8246208432234, 0.9554031567765965, 0.1};
Point(p16 + 16) = {29.67219740612519, 0.7769382415847698, 0.1};
Point(p16 + 17) = {29.54956861800633, 0.5768262468024496, 0.1};
Point(p16 + 18) = {29.45975400661192, 0.3599945938748115, 0.1};
Point(p16 + 19) = {29.40496510575211, 0.1317823977199321, 0.1};
Point(p16 + 20) = {29.386551, -0.1021909999999998, 0.1};
Point(p16 + 21) = {29.40496510575211, -0.3361643977199317, 0.1};
Point(p16 + 22) = {29.45975400661192, -0.5643765938748119, 0.1};
Point(p16 + 23) = {29.54956861800633, -0.7812082468024488, 0.1};
Point(p16 + 24) = {29.67219740612519, -0.9813202415847695, 0.1};
Point(p16 + 25) = {29.8246208432234, -1.159785156776596, 0.1};
Point(p16 + 26) = {30.00308575841523, -1.312208593874811, 0.1};
Point(p16 + 27) = {30.20319775319755, -1.434837381993671, 0.1};
Point(p16 + 28) = {30.42002940612519, -1.524651993388074, 0.1};
Point(p16 + 29) = {30.64824160228007, -1.579440894247886, 0.1};
Point(p16 + 30) = {30.882215, -1.597855, 0.1};
Point(p16 + 31) = {31.11618839771993, -1.579440894247886, 0.1};
Point(p16 + 32) = {31.34440059387481, -1.524651993388075, 0.1};
Point(p16 + 33) = {31.56123224680245, -1.434837381993671, 0.1};
Point(p16 + 34) = {31.76134424158477, -1.312208593874812, 0.1};
Point(p16 + 35) = {31.93980915677659, -1.159785156776597, 0.1};
Point(p16 + 36) = {32.09223259387481, -0.9813202415847698, 0.1};
Point(p16 + 37) = {32.21486138199367, -0.7812082468024498, 0.1};
Point(p16 + 38) = {32.30467599338807, -0.5643765938748116, 0.1};
Point(p16 + 39) = {32.35946489424789, -0.3361643977199322, 0.1};
Spline(16) = {11, p16 + 1, p16 + 2, p16 + 3, p16 + 4, p16 + 5, p16 + 6, p16 + 7, p16 + 8, p16 + 9, p16 + 10, p16 + 11, p16 + 12, p16 + 13, p16 + 14, p16 + 15, p16 + 16, p16 + 17, p16 + 18, p16 + 19, p16 + 20, p16 + 21, p16 + 22, p16 + 23, p16 + 24, p16 + 25, p16 + 26, p16 + 27, p16 + 28, p16 + 29, p16 + 30, p16 + 31, p16 + 32, p16 + 33, p16 + 34, p16 + 35, p16 + 36, p16 + 37, p16 + 38, p16 + 39, 11};
Line(17) = {12, 11};
p18 = newp;
Point(p18 + 1) = {32.35946489424789, 0.1317823977199319, 0};
Point(p18 + 2) = {32.30467599338807, 0.3599945938748114, 0};
Point(p18 + 3) = {32.21486138199367, 0.5768262468024494, 0};
Point(p18 + 4) = {32.09223259387481, 0.7769382415847695, 0};
Point(p18 + 5) = {31.93980915677659, 0.9554031567765963, 0};
Point(p18 + 6) = {31.76134424158477, 1.107826593874811, 0};
Point(p18 + 7) = {31.56123224680245, 1.230455381993671, 0};
Point(p18 + 8) = {31.34440059387481, 1.320269993388075, 0};
Point(p18 + 9) = {31.11618839771993, 1.375058894247886, 0};
Point(p18 + 10) = {30.882215, 1.393473, 0};
Point(p18 + 11) = {30.64824160228007, 1.375058894247886, 0};
Point(p18 + 12) = {30.42002940612519, 1.320269993388075, 0};
Point(p18 + 13) = {30.20319775319755, 1.230455381993671, 0};
Point(p18 + 14) = {30.00308575841523, 1.107826593874812, 0};
Point(p18 + 15) = {29.8246208432234, 0.9554031567765965, 0};
Point(p18 + 16) = {29.67219740612519, 0.7769382415847698, 0};
Point(p18 + 17) = {29.54956861800633, 0.5768262468024496, 0};
Point(p18 + 18) = {29.45975400661192, 0.3599945938748115, 0};
Point(p18 + 19) = {29.40496510575211, 0.1317823977199321, 0};
Point(p18 + 20) = {29.386551, -0.1021909999999998, 0};
Point(p18 + 21) = {29.40496510575211, -0.3361643977199317, 0};
Point(p18 + 22) = {29.45975400661192, -0.5643765938748119, 0};
Point(p18 + 23) = {29.54956861800633, -0.7812082468024488, 0};
Point(p18 + 24) = {29.67219740612519, -0.9813202415847695, 0};
Point(p18 + 25) = {29.8246208432234, -1.159785156776596, 0};
Point(p18 + 26) = {30.00308575841523, -1.312208593874811, 0};
Point(p18 + 27) = {30.20319775319755, -1.434837381993671, 0};
Point(p18 + 28) = {30.42002940612519, -1.524651993388074, 0};
Point(p18 + 29) = {30.64824160228007, -1.579440894247886, 0};
Point(p18 + 30) = {30.882215, -1.597855, 0};
Point(p18 + 31) = {31.11618839771993, -1.579440894247886, 0};
Point(p18 + 32) = {31.34440059387481, -1.524651993388075, 0};
Point(p18 + 33) = {31.56123224680245, -1.434837381993671, 0};
Point(p18 + 34) = {31.76134424158477, -1.312208593874812, 0};
Point(p18 + 35) = {31.93980915677659, -1.159785156776597, 0};
Point(p18 + 36) = {32.09223259387481, -0.9813202415847698, 0};
Point(p18 + 37) = {32.21486138199367, -0.7812082468024498, 0};
Point(p18 + 38) = {32.30467599338807, -0.5643765938748116, 0};
Point(p18 + 39) = {32.35946489424789, -0.3361643977199322, 0};
Spline(18) = {12, p18 + 1, p18 + 2, p18 + 3, p18 + 4, p18 + 5, p18 + 6, p18 + 7, p18 + 8, p18 + 9, p18 + 10, p18 + 11, p18 + 12, p18 + 13, p18 + 14, p18 + 15, p18 + 16, p18 + 17, p18 + 18, p18 + 19, p18 + 20, p18 + 21, p18 + 22, p18 + 23, p18 + 24, p18 + 25, p18 + 26, p18 + 27, p18 + 28, p18 + 29, p18 + 30, p18 + 31, p18 + 32, p18 + 33, p18 + 34, p18 + 35, p18 + 36, p18 + 37, p18 + 38, p18 + 39, 12};
Line(19) = {14, 13};
Line(20) = {13, 15};
Line(21) = {16, 15};
Line(22) = {14, 16};
Line(23) = {14, 17};
Line(24) = {17, 18};
Line(25) = {13, 18};
Line(26) = {15, 19};
Line(27) = {18, 19};
Line(28) = {16, 20};
Line(29) = {20, 19};
Line(30) = {17, 20};
Curve Loop(7) = {-13, -14, 15, 14};
Surface(7) = {7};
Curve Loop(8) = {13};
Plane Surface(8) = {8};
Curve Loop(9) = {15};
Plane Surface(9) = {9};
Curve Loop(10) = {-16, -17, 18, 17};
Surface(10) = {10};
Curve Loop(11) = {16};
Plane Surface(11) = {11};
Curve Loop(12) = {18};
Plane Surface(12) = {12};
Curve Loop(13) = {-19, 22, 21, -20};
Plane Surface(13) = {13};
Curve Loop(14) = {-23, 19, 25, -24};
Plane Surface(14) = {14};
Curve Loop(15) = {-20, 25, 27, -26};
Plane Surface(15) = {15};
Curve Loop(16) = {-28, 21, 26, -29};
Plane Surface(16) = {16};
Curve Loop(17) = {-22, 23, 30, -28, -18, -15};
Plane Surface(17) = {17};
Curve Loop(18) = {-24, 30, 29, -27};
Plane Surface(18) = {18};
Surface Loop(1) = {13, 14, 15, 16, 17, 18, 10, 7, 11, 8};
Volume(1) = {1};
Surface Loop(2) = {7, 8, 9};
Volume(2) = {2};
Surface Loop(3) = {10, 11, 12};
Volume(3) = {3};
Physical Surface("WALLS") = {13, 18};
Physical Surface("LOAD") = {8, 11};
Physical Surface("BORDER") = {7, 9, 10, 12, 14, 15, 16, 17};
Physical Volume("SOLID") = {1, 2, 3};
