cl__1 = 0.073675;
cl__2 = 0.104617;
cl__3 = 1.147085;
cl__4 = 1.275258;
cl__5 = 0.976507;
cl__6 = 0.892265;
Point(9) = {21.265415, 2.991223, 0.1, cl__1};
Point(10) = {21.265415, 2.991223, 0, cl__1};
Point(11) = {18.867824, -0.7690340000000003, 0.1, cl__2};
Point(12) = {18.867824, -0.7690340000000003, 0, cl__2};
Point(13) = {0.179797, -3.803142, 0.1, cl__3};
Point(14) = {0.179797, -3.803142, 0, cl__3};
Point(15) = {0.179797, 4.821972000000001, 0.1, cl__4};
Point(16) = {0.179797, 4.821972000000001, 0, cl__4};
Point(17) = {35.5205, -3.803142, 0, cl__5};
Point(18) = {35.5205, -3.803142, 0.1, cl__5};
Point(19) = {35.5205, 4.821972000000001, 0.1, cl__6};
Point(20) = {35.5205, 4.821972000000001, 0, cl__6};
p13 = newp;
Point(p13 + 1) = {21.25634438493347, 3.10647609211839, 0.1};
Point(p13 + 2) = {21.22935588838045, 3.218891270605743, 0.1};
Point(p13 + 3) = {21.18511405669578, 3.325700500683111, 0.1};
Point(p13 + 4) = {21.12470827060574, 3.42427378462648, 0.1};
Point(p13 + 5) = {21.04962592103919, 3.512183921039189, 0.1};
Point(p13 + 6) = {20.96171578462648, 3.587266270605743, 0.1};
Point(p13 + 7) = {20.86314250068311, 3.64767205669578, 0.1};
Point(p13 + 8) = {20.75633327060574, 3.691913888380455, 0.1};
Point(p13 + 9) = {20.64391809211839, 3.718902384933468, 0.1};
Point(p13 + 10) = {20.528665, 3.727973, 0.1};
Point(p13 + 11) = {20.41341190788161, 3.718902384933468, 0.1};
Point(p13 + 12) = {20.30099672939426, 3.691913888380455, 0.1};
Point(p13 + 13) = {20.19418749931689, 3.64767205669578, 0.1};
Point(p13 + 14) = {20.09561421537352, 3.587266270605743, 0.1};
Point(p13 + 15) = {20.00770407896081, 3.512183921039189, 0.1};
Point(p13 + 16) = {19.93262172939426, 3.42427378462648, 0.1};
Point(p13 + 17) = {19.87221594330422, 3.325700500683111, 0.1};
Point(p13 + 18) = {19.82797411161955, 3.218891270605743, 0.1};
Point(p13 + 19) = {19.80098561506653, 3.10647609211839, 0.1};
Point(p13 + 20) = {19.791915, 2.991223, 0.1};
Point(p13 + 21) = {19.80098561506653, 2.87596990788161, 0.1};
Point(p13 + 22) = {19.82797411161955, 2.763554729394258, 0.1};
Point(p13 + 23) = {19.87221594330422, 2.65674549931689, 0.1};
Point(p13 + 24) = {19.93262172939426, 2.558172215373521, 0.1};
Point(p13 + 25) = {20.00770407896081, 2.470262078960811, 0.1};
Point(p13 + 26) = {20.09561421537352, 2.395179729394258, 0.1};
Point(p13 + 27) = {20.19418749931689, 2.33477394330422, 0.1};
Point(p13 + 28) = {20.30099672939426, 2.290532111619546, 0.1};
Point(p13 + 29) = {20.41341190788161, 2.263543615066532, 0.1};
Point(p13 + 30) = {20.528665, 2.254473, 0.1};
Point(p13 + 31) = {20.64391809211839, 2.263543615066532, 0.1};
Point(p13 + 32) = {20.75633327060574, 2.290532111619546, 0.1};
Point(p13 + 33) = {20.86314250068311, 2.33477394330422, 0.1};
Point(p13 + 34) = {20.96171578462648, 2.395179729394258, 0.1};
Point(p13 + 35) = {21.04962592103919, 2.470262078960811, 0.1};
Point(p13 + 36) = {21.12470827060574, 2.558172215373521, 0.1};
Point(p13 + 37) = {21.18511405669578, 2.656745499316889, 0.1};
Point(p13 + 38) = {21.22935588838045, 2.763554729394258, 0.1};
Point(p13 + 39) = {21.25634438493347, 2.87596990788161, 0.1};
Spline(13) = {9, p13 + 1, p13 + 2, p13 + 3, p13 + 4, p13 + 5, p13 + 6, p13 + 7, p13 + 8, p13 + 9, p13 + 10, p13 + 11, p13 + 12, p13 + 13, p13 + 14, p13 + 15, p13 + 16, p13 + 17, p13 + 18, p13 + 19, p13 + 20, p13 + 21, p13 + 22, p13 + 23, p13 + 24, p13 + 25, p13 + 26, p13 + 27, p13 + 28, p13 + 29, p13 + 30, p13 + 31, p13 + 32, p13 + 33, p13 + 34, p13 + 35, p13 + 36, p13 + 37, p13 + 38, p13 + 39, 9};
Line(14) = {10, 9};
p15 = newp;
Point(p15 + 1) = {21.25634438493347, 3.10647609211839, 0};
Point(p15 + 2) = {21.22935588838045, 3.218891270605743, 0};
Point(p15 + 3) = {21.18511405669578, 3.325700500683111, 0};
Point(p15 + 4) = {21.12470827060574, 3.42427378462648, 0};
Point(p15 + 5) = {21.04962592103919, 3.512183921039189, 0};
Point(p15 + 6) = {20.96171578462648, 3.587266270605743, 0};
Point(p15 + 7) = {20.86314250068311, 3.64767205669578, 0};
Point(p15 + 8) = {20.75633327060574, 3.691913888380455, 0};
Point(p15 + 9) = {20.64391809211839, 3.718902384933468, 0};
Point(p15 + 10) = {20.528665, 3.727973, 0};
Point(p15 + 11) = {20.41341190788161, 3.718902384933468, 0};
Point(p15 + 12) = {20.30099672939426, 3.691913888380455, 0};
Point(p15 + 13) = {20.19418749931689, 3.64767205669578, 0};
Point(p15 + 14) = {20.09561421537352, 3.587266270605743, 0};
Point(p15 + 15) = {20.00770407896081, 3.512183921039189, 0};
Point(p15 + 16) = {19.93262172939426, 3.42427378462648, 0};
Point(p15 + 17) = {19.87221594330422, 3.325700500683111, 0};
Point(p15 + 18) = {19.82797411161955, 3.218891270605743, 0};
Point(p15 + 19) = {19.80098561506653, 3.10647609211839, 0};
Point(p15 + 20) = {19.791915, 2.991223, 0};
Point(p15 + 21) = {19.80098561506653, 2.87596990788161, 0};
Point(p15 + 22) = {19.82797411161955, 2.763554729394258, 0};
Point(p15 + 23) = {19.87221594330422, 2.65674549931689, 0};
Point(p15 + 24) = {19.93262172939426, 2.558172215373521, 0};
Point(p15 + 25) = {20.00770407896081, 2.470262078960811, 0};
Point(p15 + 26) = {20.09561421537352, 2.395179729394258, 0};
Point(p15 + 27) = {20.19418749931689, 2.33477394330422, 0};
Point(p15 + 28) = {20.30099672939426, 2.290532111619546, 0};
Point(p15 + 29) = {20.41341190788161, 2.263543615066532, 0};
Point(p15 + 30) = {20.528665, 2.254473, 0};
Point(p15 + 31) = {20.64391809211839, 2.263543615066532, 0};
Point(p15 + 32) = {20.75633327060574, 2.290532111619546, 0};
Point(p15 + 33) = {20.86314250068311, 2.33477394330422, 0};
Point(p15 + 34) = {20.96171578462648, 2.395179729394258, 0};
Point(p15 + 35) = {21.04962592103919, 2.470262078960811, 0};
Point(p15 + 36) = {21.12470827060574, 2.558172215373521, 0};
Point(p15 + 37) = {21.18511405669578, 2.656745499316889, 0};
Point(p15 + 38) = {21.22935588838045, 2.763554729394258, 0};
Point(p15 + 39) = {21.25634438493347, 2.87596990788161, 0};
Spline(15) = {10, p15 + 1, p15 + 2, p15 + 3, p15 + 4, p15 + 5, p15 + 6, p15 + 7, p15 + 8, p15 + 9, p15 + 10, p15 + 11, p15 + 12, p15 + 13, p15 + 14, p15 + 15, p15 + 16, p15 + 17, p15 + 18, p15 + 19, p15 + 20, p15 + 21, p15 + 22, p15 + 23, p15 + 24, p15 + 25, p15 + 26, p15 + 27, p15 + 28, p15 + 29, p15 + 30, p15 + 31, p15 + 32, p15 + 33, p15 + 34, p15 + 35, p15 + 36, p15 + 37, p15 + 38, p15 + 39, 10};
p16 = newp;
Point(p16 + 1) = {18.85494396052705, -0.6053775814467218, 0.1};
Point(p16 + 2) = {18.81662099142644, -0.4457509270627388, 0.1};
Point(p16 + 3) = {18.75379873138405, -0.2940845748494774, 0.1};
Point(p16 + 4) = {18.66802407293726, -0.1541130537501926, 0.1};
Point(p16 + 5) = {18.5614090728468, -0.02928292715319447, 0.1};
Point(p16 + 6) = {18.43657894624981, 0.07733207293726108, 0.1};
Point(p16 + 7) = {18.29660742515052, 0.163106731384048, 0.1};
Point(p16 + 8) = {18.14494107293726, 0.2259289914264355, 0.1};
Point(p16 + 9) = {17.98531441855328, 0.2642519605270528, 0.1};
Point(p16 + 10) = {17.821658, 0.2771319999999999, 0.1};
Point(p16 + 11) = {17.65800158144672, 0.2642519605270528, 0.1};
Point(p16 + 12) = {17.49837492706274, 0.2259289914264356, 0.1};
Point(p16 + 13) = {17.34670857484948, 0.1631067313840481, 0.1};
Point(p16 + 14) = {17.20673705375019, 0.07733207293726119, 0.1};
Point(p16 + 15) = {17.0819069271532, -0.02928292715319436, 0.1};
Point(p16 + 16) = {16.97529192706274, -0.1541130537501925, 0.1};
Point(p16 + 17) = {16.88951726861595, -0.2940845748494773, 0.1};
Point(p16 + 18) = {16.82669500857356, -0.4457509270627387, 0.1};
Point(p16 + 19) = {16.78837203947295, -0.6053775814467217, 0.1};
Point(p16 + 20) = {16.775492, -0.7690339999999999, 0.1};
Point(p16 + 21) = {16.78837203947295, -0.9326904185532781, 0.1};
Point(p16 + 22) = {16.82669500857356, -1.092317072937262, 0.1};
Point(p16 + 23) = {16.88951726861595, -1.243983425150522, 0.1};
Point(p16 + 24) = {16.97529192706274, -1.383954946249807, 0.1};
Point(p16 + 25) = {17.0819069271532, -1.508785072846806, 0.1};
Point(p16 + 26) = {17.20673705375019, -1.615400072937261, 0.1};
Point(p16 + 27) = {17.34670857484948, -1.701174731384048, 0.1};
Point(p16 + 28) = {17.49837492706274, -1.763996991426436, 0.1};
Point(p16 + 29) = {17.65800158144672, -1.802319960527053, 0.1};
Point(p16 + 30) = {17.821658, -1.8152, 0.1};
Point(p16 + 31) = {17.98531441855328, -1.802319960527053, 0.1};
Point(p16 + 32) = {18.14494107293726, -1.763996991426436, 0.1};
Point(p16 + 33) = {18.29660742515052, -1.701174731384048, 0.1};
Point(p16 + 34) = {18.43657894624981, -1.615400072937261, 0.1};
Point(p16 + 35) = {18.5614090728468, -1.508785072846806, 0.1};
Point(p16 + 36) = {18.66802407293726, -1.383954946249808, 0.1};
Point(p16 + 37) = {18.75379873138405, -1.243983425150523, 0.1};
Point(p16 + 38) = {18.81662099142644, -1.092317072937262, 0.1};
Point(p16 + 39) = {18.85494396052705, -0.9326904185532784, 0.1};
Spline(16) = {11, p16 + 1, p16 + 2, p16 + 3, p16 + 4, p16 + 5, p16 + 6, p16 + 7, p16 + 8, p16 + 9, p16 + 10, p16 + 11, p16 + 12, p16 + 13, p16 + 14, p16 + 15, p16 + 16, p16 + 17, p16 + 18, p16 + 19, p16 + 20, p16 + 21, p16 + 22, p16 + 23, p16 + 24, p16 + 25, p16 + 26, p16 + 27, p16 + 28, p16 + 29, p16 + 30, p16 + 31, p16 + 32, p16 + 33, p16 + 34, p16 + 35, p16 + 36, p16 + 37, p16 + 38, p16 + 39, 11};
Line(17) = {12, 11};
p18 = newp;
Point(p18 + 1) = {18.85494396052705, -0.6053775814467218, 0};
Point(p18 + 2) = {18.81662099142644, -0.4457509270627388, 0};
Point(p18 + 3) = {18.75379873138405, -0.2940845748494774, 0};
Point(p18 + 4) = {18.66802407293726, -0.1541130537501926, 0};
Point(p18 + 5) = {18.5614090728468, -0.02928292715319447, 0};
Point(p18 + 6) = {18.43657894624981, 0.07733207293726108, 0};
Point(p18 + 7) = {18.29660742515052, 0.163106731384048, 0};
Point(p18 + 8) = {18.14494107293726, 0.2259289914264355, 0};
Point(p18 + 9) = {17.98531441855328, 0.2642519605270528, 0};
Point(p18 + 10) = {17.821658, 0.2771319999999999, 0};
Point(p18 + 11) = {17.65800158144672, 0.2642519605270528, 0};
Point(p18 + 12) = {17.49837492706274, 0.2259289914264356, 0};
Point(p18 + 13) = {17.34670857484948, 0.1631067313840481, 0};
Point(p18 + 14) = {17.20673705375019, 0.07733207293726119, 0};
Point(p18 + 15) = {17.0819069271532, -0.02928292715319436, 0};
Point(p18 + 16) = {16.97529192706274, -0.1541130537501925, 0};
Point(p18 + 17) = {16.88951726861595, -0.2940845748494773, 0};
Point(p18 + 18) = {16.82669500857356, -0.4457509270627387, 0};
Point(p18 + 19) = {16.78837203947295, -0.6053775814467217, 0};
Point(p18 + 20) = {16.775492, -0.7690339999999999, 0};
Point(p18 + 21) = {16.78837203947295, -0.9326904185532781, 0};
Point(p18 + 22) = {16.82669500857356, -1.092317072937262, 0};
Point(p18 + 23) = {16.88951726861595, -1.243983425150522, 0};
Point(p18 + 24) = {16.97529192706274, -1.383954946249807, 0};
Point(p18 + 25) = {17.0819069271532, -1.508785072846806, 0};
Point(p18 + 26) = {17.20673705375019, -1.615400072937261, 0};
Point(p18 + 27) = {17.34670857484948, -1.701174731384048, 0};
Point(p18 + 28) = {17.49837492706274, -1.763996991426436, 0};
Point(p18 + 29) = {17.65800158144672, -1.802319960527053, 0};
Point(p18 + 30) = {17.821658, -1.8152, 0};
Point(p18 + 31) = {17.98531441855328, -1.802319960527053, 0};
Point(p18 + 32) = {18.14494107293726, -1.763996991426436, 0};
Point(p18 + 33) = {18.29660742515052, -1.701174731384048, 0};
Point(p18 + 34) = {18.43657894624981, -1.615400072937261, 0};
Point(p18 + 35) = {18.5614090728468, -1.508785072846806, 0};
Point(p18 + 36) = {18.66802407293726, -1.383954946249808, 0};
Point(p18 + 37) = {18.75379873138405, -1.243983425150523, 0};
Point(p18 + 38) = {18.81662099142644, -1.092317072937262, 0};
Point(p18 + 39) = {18.85494396052705, -0.9326904185532784, 0};
Spline(18) = {12, p18 + 1, p18 + 2, p18 + 3, p18 + 4, p18 + 5, p18 + 6, p18 + 7, p18 + 8, p18 + 9, p18 + 10, p18 + 11, p18 + 12, p18 + 13, p18 + 14, p18 + 15, p18 + 16, p18 + 17, p18 + 18, p18 + 19, p18 + 20, p18 + 21, p18 + 22, p18 + 23, p18 + 24, p18 + 25, p18 + 26, p18 + 27, p18 + 28, p18 + 29, p18 + 30, p18 + 31, p18 + 32, p18 + 33, p18 + 34, p18 + 35, p18 + 36, p18 + 37, p18 + 38, p18 + 39, 12};
Line(19) = {14, 13};
Line(20) = {13, 15};
Line(21) = {16, 15};
Line(22) = {14, 16};
Line(23) = {14, 17};
Line(24) = {17, 18};
Line(25) = {13, 18};
Line(26) = {15, 19};
Line(27) = {18, 19};
Line(28) = {16, 20};
Line(29) = {20, 19};
Line(30) = {17, 20};
Curve Loop(7) = {-13, -14, 15, 14};
Surface(7) = {7};
Curve Loop(8) = {13};
Plane Surface(8) = {8};
Curve Loop(9) = {15};
Plane Surface(9) = {9};
Curve Loop(10) = {-16, -17, 18, 17};
Surface(10) = {10};
Curve Loop(11) = {16};
Plane Surface(11) = {11};
Curve Loop(12) = {18};
Plane Surface(12) = {12};
Curve Loop(13) = {-19, 22, 21, -20};
Plane Surface(13) = {13};
Curve Loop(14) = {-23, 19, 25, -24};
Plane Surface(14) = {14};
Curve Loop(15) = {-20, 25, 27, -26, -16, -13};
Plane Surface(15) = {15};
Curve Loop(16) = {-28, 21, 26, -29};
Plane Surface(16) = {16};
Curve Loop(17) = {-22, 23, 30, -28, -18, -15};
Plane Surface(17) = {17};
Curve Loop(18) = {-24, 30, 29, -27};
Plane Surface(18) = {18};
Surface Loop(1) = {13, 14, 15, 16, 17, 18, 10, 7};
Volume(1) = {1};
Surface Loop(2) = {7, 8, 9};
Volume(2) = {2};
Surface Loop(3) = {10, 11, 12};
Volume(3) = {3};
Physical Surface("WALLS") = {13, 18};
Physical Surface("LOAD") = {8, 11};
Physical Surface("BORDER") = {7, 9, 10, 12, 14, 15, 16, 17};
Physical Volume("SOLID") = {1, 2, 3};
