cl__1 = 0.090728;
cl__2 = 0.08252900000000001;
cl__3 = 0.161743;
cl__4 = 0.350538;
cl__5 = 5.361891;
cl__6 = 5.24486;
Point(9) = {3.698887, -1.497023, 0.1, cl__1};
Point(10) = {3.698887, -1.497023, 0, cl__1};
Point(11) = {6.094991, 0.8869939999999998, 0.1, cl__2};
Point(12) = {6.094991, 0.8869939999999998, 0, cl__2};
Point(13) = {0.317382, -3.616989, 0.1, cl__3};
Point(14) = {0.317382, -3.616989, 0, cl__3};
Point(15) = {0.317382, 4.131345, 0.1, cl__4};
Point(16) = {0.317382, 4.131345, 0, cl__4};
Point(17) = {31.146446, -3.616989, 0, cl__5};
Point(18) = {31.146446, -3.616989, 0.1, cl__5};
Point(19) = {31.146446, 4.131345, 0.1, cl__6};
Point(20) = {31.146446, 4.131345, 0, cl__6};
p13 = newp;
Point(p13 + 1) = {3.687716926901794, -1.35509376429616, 0.1};
Point(p13 + 2) = {3.654481751878202, -1.216659297411475, 0.1};
Point(p13 + 3) = {3.599999835239526, -1.085128315358303, 0.1};
Point(p13 + 4) = {3.525612702588525, -0.9637395474410941, 0.1};
Point(p13 + 5) = {3.433152012007806, -0.855481987992194, 0.1};
Point(p13 + 6) = {3.324894452558906, -0.7630212974114753, 0.1};
Point(p13 + 7) = {3.203505684641697, -0.6886341647604745, 0.1};
Point(p13 + 8) = {3.071974702588525, -0.6341522481217983, 0.1};
Point(p13 + 9) = {2.933540235703841, -0.6009170730982059, 0.1};
Point(p13 + 10) = {2.791611, -0.589747, 0.1};
Point(p13 + 11) = {2.649681764296159, -0.6009170730982059, 0.1};
Point(p13 + 12) = {2.511247297411475, -0.6341522481217982, 0.1};
Point(p13 + 13) = {2.379716315358303, -0.6886341647604743, 0.1};
Point(p13 + 14) = {2.258327547441094, -0.7630212974114752, 0.1};
Point(p13 + 15) = {2.150069987992194, -0.8554819879921939, 0.1};
Point(p13 + 16) = {2.057609297411475, -0.963739547441094, 0.1};
Point(p13 + 17) = {1.983222164760475, -1.085128315358303, 0.1};
Point(p13 + 18) = {1.928740248121798, -1.216659297411475, 0.1};
Point(p13 + 19) = {1.895505073098206, -1.355093764296159, 0.1};
Point(p13 + 20) = {1.884335, -1.497023, 0.1};
Point(p13 + 21) = {1.895505073098206, -1.63895223570384, 0.1};
Point(p13 + 22) = {1.928740248121799, -1.777386702588525, 0.1};
Point(p13 + 23) = {1.983222164760474, -1.908917684641697, 0.1};
Point(p13 + 24) = {2.057609297411475, -2.030306452558906, 0.1};
Point(p13 + 25) = {2.150069987992194, -2.138564012007806, 0.1};
Point(p13 + 26) = {2.258327547441094, -2.231024702588525, 0.1};
Point(p13 + 27) = {2.379716315358303, -2.305411835239525, 0.1};
Point(p13 + 28) = {2.511247297411475, -2.359893751878202, 0.1};
Point(p13 + 29) = {2.649681764296159, -2.393128926901794, 0.1};
Point(p13 + 30) = {2.791611, -2.404299, 0.1};
Point(p13 + 31) = {2.93354023570384, -2.393128926901794, 0.1};
Point(p13 + 32) = {3.071974702588525, -2.359893751878202, 0.1};
Point(p13 + 33) = {3.203505684641697, -2.305411835239526, 0.1};
Point(p13 + 34) = {3.324894452558905, -2.231024702588525, 0.1};
Point(p13 + 35) = {3.433152012007806, -2.138564012007806, 0.1};
Point(p13 + 36) = {3.525612702588525, -2.030306452558906, 0.1};
Point(p13 + 37) = {3.599999835239525, -1.908917684641697, 0.1};
Point(p13 + 38) = {3.654481751878202, -1.777386702588525, 0.1};
Point(p13 + 39) = {3.687716926901794, -1.638952235703841, 0.1};
Spline(13) = {9, p13 + 1, p13 + 2, p13 + 3, p13 + 4, p13 + 5, p13 + 6, p13 + 7, p13 + 8, p13 + 9, p13 + 10, p13 + 11, p13 + 12, p13 + 13, p13 + 14, p13 + 15, p13 + 16, p13 + 17, p13 + 18, p13 + 19, p13 + 20, p13 + 21, p13 + 22, p13 + 23, p13 + 24, p13 + 25, p13 + 26, p13 + 27, p13 + 28, p13 + 29, p13 + 30, p13 + 31, p13 + 32, p13 + 33, p13 + 34, p13 + 35, p13 + 36, p13 + 37, p13 + 38, p13 + 39, 9};
Line(14) = {10, 9};
p15 = newp;
Point(p15 + 1) = {3.687716926901794, -1.35509376429616, 0};
Point(p15 + 2) = {3.654481751878202, -1.216659297411475, 0};
Point(p15 + 3) = {3.599999835239526, -1.085128315358303, 0};
Point(p15 + 4) = {3.525612702588525, -0.9637395474410941, 0};
Point(p15 + 5) = {3.433152012007806, -0.855481987992194, 0};
Point(p15 + 6) = {3.324894452558906, -0.7630212974114753, 0};
Point(p15 + 7) = {3.203505684641697, -0.6886341647604745, 0};
Point(p15 + 8) = {3.071974702588525, -0.6341522481217983, 0};
Point(p15 + 9) = {2.933540235703841, -0.6009170730982059, 0};
Point(p15 + 10) = {2.791611, -0.589747, 0};
Point(p15 + 11) = {2.649681764296159, -0.6009170730982059, 0};
Point(p15 + 12) = {2.511247297411475, -0.6341522481217982, 0};
Point(p15 + 13) = {2.379716315358303, -0.6886341647604743, 0};
Point(p15 + 14) = {2.258327547441094, -0.7630212974114752, 0};
Point(p15 + 15) = {2.150069987992194, -0.8554819879921939, 0};
Point(p15 + 16) = {2.057609297411475, -0.963739547441094, 0};
Point(p15 + 17) = {1.983222164760475, -1.085128315358303, 0};
Point(p15 + 18) = {1.928740248121798, -1.216659297411475, 0};
Point(p15 + 19) = {1.895505073098206, -1.355093764296159, 0};
Point(p15 + 20) = {1.884335, -1.497023, 0};
Point(p15 + 21) = {1.895505073098206, -1.63895223570384, 0};
Point(p15 + 22) = {1.928740248121799, -1.777386702588525, 0};
Point(p15 + 23) = {1.983222164760474, -1.908917684641697, 0};
Point(p15 + 24) = {2.057609297411475, -2.030306452558906, 0};
Point(p15 + 25) = {2.150069987992194, -2.138564012007806, 0};
Point(p15 + 26) = {2.258327547441094, -2.231024702588525, 0};
Point(p15 + 27) = {2.379716315358303, -2.305411835239525, 0};
Point(p15 + 28) = {2.511247297411475, -2.359893751878202, 0};
Point(p15 + 29) = {2.649681764296159, -2.393128926901794, 0};
Point(p15 + 30) = {2.791611, -2.404299, 0};
Point(p15 + 31) = {2.93354023570384, -2.393128926901794, 0};
Point(p15 + 32) = {3.071974702588525, -2.359893751878202, 0};
Point(p15 + 33) = {3.203505684641697, -2.305411835239526, 0};
Point(p15 + 34) = {3.324894452558905, -2.231024702588525, 0};
Point(p15 + 35) = {3.433152012007806, -2.138564012007806, 0};
Point(p15 + 36) = {3.525612702588525, -2.030306452558906, 0};
Point(p15 + 37) = {3.599999835239525, -1.908917684641697, 0};
Point(p15 + 38) = {3.654481751878202, -1.777386702588525, 0};
Point(p15 + 39) = {3.687716926901794, -1.638952235703841, 0};
Spline(15) = {10, p15 + 1, p15 + 2, p15 + 3, p15 + 4, p15 + 5, p15 + 6, p15 + 7, p15 + 8, p15 + 9, p15 + 10, p15 + 11, p15 + 12, p15 + 13, p15 + 14, p15 + 15, p15 + 16, p15 + 17, p15 + 18, p15 + 19, p15 + 20, p15 + 21, p15 + 22, p15 + 23, p15 + 24, p15 + 25, p15 + 26, p15 + 27, p15 + 28, p15 + 29, p15 + 30, p15 + 31, p15 + 32, p15 + 33, p15 + 34, p15 + 35, p15 + 36, p15 + 37, p15 + 38, p15 + 39, 10};
p16 = newp;
Point(p16 + 1) = {6.084830298298102, 1.016097956087517, 0.1};
Point(p16 + 2) = {6.054598383389743, 1.142022944304695, 0.1};
Point(p16 + 3) = {6.005039665353943, 1.26166827352055, 0.1};
Point(p16 + 4) = {5.937374444304695, 1.372087878649707, 0.1};
Point(p16 + 5) = {5.853268862552227, 1.470562862552227, 0.1};
Point(p16 + 6) = {5.754793878649708, 1.554668444304695, 0.1};
Point(p16 + 7) = {5.64437427352055, 1.622333665353942, 0.1};
Point(p16 + 8) = {5.524728944304695, 1.671892383389744, 0.1};
Point(p16 + 9) = {5.398803956087518, 1.702124298298102, 0.1};
Point(p16 + 10) = {5.2697, 1.712285, 0.1};
Point(p16 + 11) = {5.140596043912483, 1.702124298298102, 0.1};
Point(p16 + 12) = {5.014671055695306, 1.671892383389744, 0.1};
Point(p16 + 13) = {4.89502572647945, 1.622333665353942, 0.1};
Point(p16 + 14) = {4.784606121350293, 1.554668444304695, 0.1};
Point(p16 + 15) = {4.686131137447774, 1.470562862552227, 0.1};
Point(p16 + 16) = {4.602025555695306, 1.372087878649707, 0.1};
Point(p16 + 17) = {4.534360334646058, 1.26166827352055, 0.1};
Point(p16 + 18) = {4.484801616610257, 1.142022944304695, 0.1};
Point(p16 + 19) = {4.454569701701899, 1.016097956087517, 0.1};
Point(p16 + 20) = {4.444409, 0.8869940000000001, 0.1};
Point(p16 + 21) = {4.454569701701899, 0.7578900439124829, 0.1};
Point(p16 + 22) = {4.484801616610257, 0.6319650556953049, 0.1};
Point(p16 + 23) = {4.534360334646058, 0.5123197264794501, 0.1};
Point(p16 + 24) = {4.602025555695305, 0.4019001213502926, 0.1};
Point(p16 + 25) = {4.686131137447773, 0.303425137447773, 0.1};
Point(p16 + 26) = {4.784606121350293, 0.2193195556953053, 0.1};
Point(p16 + 27) = {4.895025726479449, 0.1516543346460577, 0.1};
Point(p16 + 28) = {5.014671055695305, 0.1020956166102563, 0.1};
Point(p16 + 29) = {5.140596043912483, 0.07186370170189815, 0.1};
Point(p16 + 30) = {5.2697, 0.06170299999999995, 0.1};
Point(p16 + 31) = {5.398803956087518, 0.07186370170189815, 0.1};
Point(p16 + 32) = {5.524728944304695, 0.1020956166102563, 0.1};
Point(p16 + 33) = {5.64437427352055, 0.1516543346460575, 0.1};
Point(p16 + 34) = {5.754793878649708, 0.2193195556953051, 0.1};
Point(p16 + 35) = {5.853268862552227, 0.3034251374477728, 0.1};
Point(p16 + 36) = {5.937374444304695, 0.4019001213502924, 0.1};
Point(p16 + 37) = {6.005039665353943, 0.5123197264794495, 0.1};
Point(p16 + 38) = {6.054598383389743, 0.631965055695305, 0.1};
Point(p16 + 39) = {6.084830298298102, 0.7578900439124826, 0.1};
Spline(16) = {11, p16 + 1, p16 + 2, p16 + 3, p16 + 4, p16 + 5, p16 + 6, p16 + 7, p16 + 8, p16 + 9, p16 + 10, p16 + 11, p16 + 12, p16 + 13, p16 + 14, p16 + 15, p16 + 16, p16 + 17, p16 + 18, p16 + 19, p16 + 20, p16 + 21, p16 + 22, p16 + 23, p16 + 24, p16 + 25, p16 + 26, p16 + 27, p16 + 28, p16 + 29, p16 + 30, p16 + 31, p16 + 32, p16 + 33, p16 + 34, p16 + 35, p16 + 36, p16 + 37, p16 + 38, p16 + 39, 11};
Line(17) = {12, 11};
p18 = newp;
Point(p18 + 1) = {6.084830298298102, 1.016097956087517, 0};
Point(p18 + 2) = {6.054598383389743, 1.142022944304695, 0};
Point(p18 + 3) = {6.005039665353943, 1.26166827352055, 0};
Point(p18 + 4) = {5.937374444304695, 1.372087878649707, 0};
Point(p18 + 5) = {5.853268862552227, 1.470562862552227, 0};
Point(p18 + 6) = {5.754793878649708, 1.554668444304695, 0};
Point(p18 + 7) = {5.64437427352055, 1.622333665353942, 0};
Point(p18 + 8) = {5.524728944304695, 1.671892383389744, 0};
Point(p18 + 9) = {5.398803956087518, 1.702124298298102, 0};
Point(p18 + 10) = {5.2697, 1.712285, 0};
Point(p18 + 11) = {5.140596043912483, 1.702124298298102, 0};
Point(p18 + 12) = {5.014671055695306, 1.671892383389744, 0};
Point(p18 + 13) = {4.89502572647945, 1.622333665353942, 0};
Point(p18 + 14) = {4.784606121350293, 1.554668444304695, 0};
Point(p18 + 15) = {4.686131137447774, 1.470562862552227, 0};
Point(p18 + 16) = {4.602025555695306, 1.372087878649707, 0};
Point(p18 + 17) = {4.534360334646058, 1.26166827352055, 0};
Point(p18 + 18) = {4.484801616610257, 1.142022944304695, 0};
Point(p18 + 19) = {4.454569701701899, 1.016097956087517, 0};
Point(p18 + 20) = {4.444409, 0.8869940000000001, 0};
Point(p18 + 21) = {4.454569701701899, 0.7578900439124829, 0};
Point(p18 + 22) = {4.484801616610257, 0.6319650556953049, 0};
Point(p18 + 23) = {4.534360334646058, 0.5123197264794501, 0};
Point(p18 + 24) = {4.602025555695305, 0.4019001213502926, 0};
Point(p18 + 25) = {4.686131137447773, 0.303425137447773, 0};
Point(p18 + 26) = {4.784606121350293, 0.2193195556953053, 0};
Point(p18 + 27) = {4.895025726479449, 0.1516543346460577, 0};
Point(p18 + 28) = {5.014671055695305, 0.1020956166102563, 0};
Point(p18 + 29) = {5.140596043912483, 0.07186370170189815, 0};
Point(p18 + 30) = {5.2697, 0.06170299999999995, 0};
Point(p18 + 31) = {5.398803956087518, 0.07186370170189815, 0};
Point(p18 + 32) = {5.524728944304695, 0.1020956166102563, 0};
Point(p18 + 33) = {5.64437427352055, 0.1516543346460575, 0};
Point(p18 + 34) = {5.754793878649708, 0.2193195556953051, 0};
Point(p18 + 35) = {5.853268862552227, 0.3034251374477728, 0};
Point(p18 + 36) = {5.937374444304695, 0.4019001213502924, 0};
Point(p18 + 37) = {6.005039665353943, 0.5123197264794495, 0};
Point(p18 + 38) = {6.054598383389743, 0.631965055695305, 0};
Point(p18 + 39) = {6.084830298298102, 0.7578900439124826, 0};
Spline(18) = {12, p18 + 1, p18 + 2, p18 + 3, p18 + 4, p18 + 5, p18 + 6, p18 + 7, p18 + 8, p18 + 9, p18 + 10, p18 + 11, p18 + 12, p18 + 13, p18 + 14, p18 + 15, p18 + 16, p18 + 17, p18 + 18, p18 + 19, p18 + 20, p18 + 21, p18 + 22, p18 + 23, p18 + 24, p18 + 25, p18 + 26, p18 + 27, p18 + 28, p18 + 29, p18 + 30, p18 + 31, p18 + 32, p18 + 33, p18 + 34, p18 + 35, p18 + 36, p18 + 37, p18 + 38, p18 + 39, 12};
Line(19) = {14, 13};
Line(20) = {13, 15};
Line(21) = {16, 15};
Line(22) = {14, 16};
Line(23) = {14, 17};
Line(24) = {17, 18};
Line(25) = {13, 18};
Line(26) = {15, 19};
Line(27) = {18, 19};
Line(28) = {16, 20};
Line(29) = {20, 19};
Line(30) = {17, 20};
Curve Loop(7) = {-13, -14, 15, 14};
Surface(7) = {7};
Curve Loop(8) = {13};
Plane Surface(8) = {8};
Curve Loop(9) = {15};
Plane Surface(9) = {9};
Curve Loop(10) = {-16, -17, 18, 17};
Surface(10) = {10};
Curve Loop(11) = {16};
Plane Surface(11) = {11};
Curve Loop(12) = {18};
Plane Surface(12) = {12};
Curve Loop(13) = {-19, 22, 21, -20};
Plane Surface(13) = {13};
Curve Loop(14) = {-23, 19, 25, -24};
Plane Surface(14) = {14};
Curve Loop(15) = {-20, 25, 27, -26, -13, -16};
Plane Surface(15) = {15};
Curve Loop(16) = {-28, 21, 26, -29};
Plane Surface(16) = {16};
Curve Loop(17) = {-22, 23, 30, -28, -15, -18};
Plane Surface(17) = {17};
Curve Loop(18) = {-24, 30, 29, -27};
Plane Surface(18) = {18};
Surface Loop(1) = {13, 14, 15, 16, 17, 18, 7, 10};
Volume(1) = {1};
Surface Loop(2) = {7, 8, 9};
Volume(2) = {2};
Surface Loop(3) = {10, 11, 12};
Volume(3) = {3};
Physical Surface("WALLS") = {13, 18};
Physical Surface("LOAD") = {8, 11};
Physical Surface("BORDER") = {7, 9, 10, 12, 14, 15, 16, 17};
Physical Volume("SOLID") = {1, 2, 3};
