cl__1 = 0.103166;
cl__2 = 0.074876;
cl__3 = 0.339011;
cl__4 = 0.156333;
cl__5 = 5.374146;
cl__6 = 5.387444;
Point(9) = {3.984721, 1.728413, 0.1, cl__1};
Point(10) = {3.984721, 1.728413, 0, cl__1};
Point(11) = {6.509597, 0.2010489999999998, 0.1, cl__2};
Point(12) = {6.509597, 0.2010489999999998, 0, cl__2};
Point(13) = {0.823643, -3.57217, 0.1, cl__3};
Point(14) = {0.823643, -3.57217, 0, cl__3};
Point(15) = {0.823643, 4.103800000000001, 0.1, cl__4};
Point(16) = {0.823643, 4.103800000000001, 0, cl__4};
Point(17) = {30.406532, -3.57217, 0, cl__5};
Point(18) = {30.406532, -3.57217, 0.1, cl__5};
Point(19) = {30.406532, 4.103800000000001, 0.1, cl__6};
Point(20) = {30.406532, 4.103800000000001, 0, cl__6};
p13 = newp;
Point(p13 + 1) = {3.97201954114672, 1.88980033663787, 0.1};
Point(p13 + 2) = {3.934227916657574, 2.047213781433852, 0.1};
Point(p13 + 3) = {3.872276681750695, 2.196777292951801, 0.1};
Point(p13 + 4) = {3.787691281433852, 2.334808121165305, 0.1};
Point(p13 + 5) = {3.682554488985695, 2.457907488985695, 0.1};
Point(p13 + 6) = {3.559455121165305, 2.563044281433852, 0.1};
Point(p13 + 7) = {3.4214242929518, 2.647629681750696, 0.1};
Point(p13 + 8) = {3.271860781433853, 2.709580916657574, 0.1};
Point(p13 + 9) = {3.114447336637869, 2.74737254114672, 0.1};
Point(p13 + 10) = {2.95306, 2.760074, 0.1};
Point(p13 + 11) = {2.79167266336213, 2.74737254114672, 0.1};
Point(p13 + 12) = {2.634259218566147, 2.709580916657575, 0.1};
Point(p13 + 13) = {2.484695707048199, 2.647629681750696, 0.1};
Point(p13 + 14) = {2.346664878834695, 2.563044281433853, 0.1};
Point(p13 + 15) = {2.223565511014305, 2.457907488985695, 0.1};
Point(p13 + 16) = {2.118428718566147, 2.334808121165305, 0.1};
Point(p13 + 17) = {2.033843318249304, 2.196777292951801, 0.1};
Point(p13 + 18) = {1.971892083342425, 2.047213781433853, 0.1};
Point(p13 + 19) = {1.93410045885328, 1.88980033663787, 0.1};
Point(p13 + 20) = {1.921399, 1.728413, 0.1};
Point(p13 + 21) = {1.93410045885328, 1.56702566336213, 0.1};
Point(p13 + 22) = {1.971892083342426, 1.409612218566147, 0.1};
Point(p13 + 23) = {2.033843318249304, 1.2600487070482, 0.1};
Point(p13 + 24) = {2.118428718566147, 1.122017878834695, 0.1};
Point(p13 + 25) = {2.223565511014305, 0.9989185110143053, 0.1};
Point(p13 + 26) = {2.346664878834694, 0.8937817185661475, 0.1};
Point(p13 + 27) = {2.484695707048199, 0.8091963182493044, 0.1};
Point(p13 + 28) = {2.634259218566147, 0.7472450833424257, 0.1};
Point(p13 + 29) = {2.79167266336213, 0.7094534588532797, 0.1};
Point(p13 + 30) = {2.95306, 0.696752, 0.1};
Point(p13 + 31) = {3.114447336637869, 0.7094534588532797, 0.1};
Point(p13 + 32) = {3.271860781433852, 0.7472450833424256, 0.1};
Point(p13 + 33) = {3.4214242929518, 0.809196318249304, 0.1};
Point(p13 + 34) = {3.559455121165305, 0.8937817185661473, 0.1};
Point(p13 + 35) = {3.682554488985694, 0.9989185110143051, 0.1};
Point(p13 + 36) = {3.787691281433852, 1.122017878834695, 0.1};
Point(p13 + 37) = {3.872276681750695, 1.260048707048199, 0.1};
Point(p13 + 38) = {3.934227916657574, 1.409612218566147, 0.1};
Point(p13 + 39) = {3.97201954114672, 1.56702566336213, 0.1};
Spline(13) = {9, p13 + 1, p13 + 2, p13 + 3, p13 + 4, p13 + 5, p13 + 6, p13 + 7, p13 + 8, p13 + 9, p13 + 10, p13 + 11, p13 + 12, p13 + 13, p13 + 14, p13 + 15, p13 + 16, p13 + 17, p13 + 18, p13 + 19, p13 + 20, p13 + 21, p13 + 22, p13 + 23, p13 + 24, p13 + 25, p13 + 26, p13 + 27, p13 + 28, p13 + 29, p13 + 30, p13 + 31, p13 + 32, p13 + 33, p13 + 34, p13 + 35, p13 + 36, p13 + 37, p13 + 38, p13 + 39, 9};
Line(14) = {10, 9};
p15 = newp;
Point(p15 + 1) = {3.97201954114672, 1.88980033663787, 0};
Point(p15 + 2) = {3.934227916657574, 2.047213781433852, 0};
Point(p15 + 3) = {3.872276681750695, 2.196777292951801, 0};
Point(p15 + 4) = {3.787691281433852, 2.334808121165305, 0};
Point(p15 + 5) = {3.682554488985695, 2.457907488985695, 0};
Point(p15 + 6) = {3.559455121165305, 2.563044281433852, 0};
Point(p15 + 7) = {3.4214242929518, 2.647629681750696, 0};
Point(p15 + 8) = {3.271860781433853, 2.709580916657574, 0};
Point(p15 + 9) = {3.114447336637869, 2.74737254114672, 0};
Point(p15 + 10) = {2.95306, 2.760074, 0};
Point(p15 + 11) = {2.79167266336213, 2.74737254114672, 0};
Point(p15 + 12) = {2.634259218566147, 2.709580916657575, 0};
Point(p15 + 13) = {2.484695707048199, 2.647629681750696, 0};
Point(p15 + 14) = {2.346664878834695, 2.563044281433853, 0};
Point(p15 + 15) = {2.223565511014305, 2.457907488985695, 0};
Point(p15 + 16) = {2.118428718566147, 2.334808121165305, 0};
Point(p15 + 17) = {2.033843318249304, 2.196777292951801, 0};
Point(p15 + 18) = {1.971892083342425, 2.047213781433853, 0};
Point(p15 + 19) = {1.93410045885328, 1.88980033663787, 0};
Point(p15 + 20) = {1.921399, 1.728413, 0};
Point(p15 + 21) = {1.93410045885328, 1.56702566336213, 0};
Point(p15 + 22) = {1.971892083342426, 1.409612218566147, 0};
Point(p15 + 23) = {2.033843318249304, 1.2600487070482, 0};
Point(p15 + 24) = {2.118428718566147, 1.122017878834695, 0};
Point(p15 + 25) = {2.223565511014305, 0.9989185110143053, 0};
Point(p15 + 26) = {2.346664878834694, 0.8937817185661475, 0};
Point(p15 + 27) = {2.484695707048199, 0.8091963182493044, 0};
Point(p15 + 28) = {2.634259218566147, 0.7472450833424257, 0};
Point(p15 + 29) = {2.79167266336213, 0.7094534588532797, 0};
Point(p15 + 30) = {2.95306, 0.696752, 0};
Point(p15 + 31) = {3.114447336637869, 0.7094534588532797, 0};
Point(p15 + 32) = {3.271860781433852, 0.7472450833424256, 0};
Point(p15 + 33) = {3.4214242929518, 0.809196318249304, 0};
Point(p15 + 34) = {3.559455121165305, 0.8937817185661473, 0};
Point(p15 + 35) = {3.682554488985694, 0.9989185110143051, 0};
Point(p15 + 36) = {3.787691281433852, 1.122017878834695, 0};
Point(p15 + 37) = {3.872276681750695, 1.260048707048199, 0};
Point(p15 + 38) = {3.934227916657574, 1.409612218566147, 0};
Point(p15 + 39) = {3.97201954114672, 1.56702566336213, 0};
Spline(15) = {10, p15 + 1, p15 + 2, p15 + 3, p15 + 4, p15 + 5, p15 + 6, p15 + 7, p15 + 8, p15 + 9, p15 + 10, p15 + 11, p15 + 12, p15 + 13, p15 + 14, p15 + 15, p15 + 16, p15 + 17, p15 + 18, p15 + 19, p15 + 20, p15 + 21, p15 + 22, p15 + 23, p15 + 24, p15 + 25, p15 + 26, p15 + 27, p15 + 28, p15 + 29, p15 + 30, p15 + 31, p15 + 32, p15 + 33, p15 + 34, p15 + 35, p15 + 36, p15 + 37, p15 + 38, p15 + 39, 10};
p16 = newp;
Point(p16 + 1) = {6.500378484969037, 0.3181813393469184, 0.1};
Point(p16 + 2) = {6.472949930310708, 0.4324294917591687, 0.1};
Point(p16 + 3) = {6.427986718070855, 0.5409802885564823, 0.1};
Point(p16 + 4) = {6.366595991759169, 0.6411608488622691, 0.1};
Point(p16 + 5) = {6.290289394801583, 0.7305043948015828, 0.1};
Point(p16 + 6) = {6.200945848862269, 0.8068109917591687, 0.1};
Point(p16 + 7) = {6.100765288556483, 0.8682017180708548, 0.1};
Point(p16 + 8) = {5.992214491759169, 0.913164930310708, 0.1};
Point(p16 + 9) = {5.877966339346918, 0.9405934849690372, 0.1};
Point(p16 + 10) = {5.760834, 0.949812, 0.1};
Point(p16 + 11) = {5.643701660653082, 0.9405934849690371, 0.1};
Point(p16 + 12) = {5.529453508240831, 0.9131649303107081, 0.1};
Point(p16 + 13) = {5.420902711443517, 0.8682017180708549, 0.1};
Point(p16 + 14) = {5.320722151137731, 0.8068109917591688, 0.1};
Point(p16 + 15) = {5.231378605198417, 0.7305043948015829, 0.1};
Point(p16 + 16) = {5.155072008240832, 0.6411608488622691, 0.1};
Point(p16 + 17) = {5.093681281929145, 0.5409802885564823, 0.1};
Point(p16 + 18) = {5.048718069689292, 0.4324294917591688, 0.1};
Point(p16 + 19) = {5.021289515030963, 0.3181813393469185, 0.1};
Point(p16 + 20) = {5.012071, 0.2010490000000001, 0.1};
Point(p16 + 21) = {5.021289515030963, 0.0839166606530817, 0.1};
Point(p16 + 22) = {5.048718069689292, -0.03033149175916897, 0.1};
Point(p16 + 23) = {5.093681281929145, -0.1388822885564819, 0.1};
Point(p16 + 24) = {5.155072008240831, -0.2390628488622689, 0.1};
Point(p16 + 25) = {5.231378605198417, -0.3284063948015827, 0.1};
Point(p16 + 26) = {5.320722151137731, -0.4047129917591686, 0.1};
Point(p16 + 27) = {5.420902711443517, -0.4661037180708547, 0.1};
Point(p16 + 28) = {5.529453508240831, -0.5110669303107079, 0.1};
Point(p16 + 29) = {5.643701660653082, -0.538495484969037, 0.1};
Point(p16 + 30) = {5.760834, -0.5477139999999999, 0.1};
Point(p16 + 31) = {5.877966339346918, -0.5384954849690371, 0.1};
Point(p16 + 32) = {5.992214491759168, -0.511066930310708, 0.1};
Point(p16 + 33) = {6.100765288556482, -0.4661037180708549, 0.1};
Point(p16 + 34) = {6.200945848862269, -0.4047129917591687, 0.1};
Point(p16 + 35) = {6.290289394801583, -0.328406394801583, 0.1};
Point(p16 + 36) = {6.366595991759168, -0.2390628488622691, 0.1};
Point(p16 + 37) = {6.427986718070855, -0.1388822885564824, 0.1};
Point(p16 + 38) = {6.472949930310708, -0.03033149175916888, 0.1};
Point(p16 + 39) = {6.500378484969037, 0.08391666065308144, 0.1};
Spline(16) = {11, p16 + 1, p16 + 2, p16 + 3, p16 + 4, p16 + 5, p16 + 6, p16 + 7, p16 + 8, p16 + 9, p16 + 10, p16 + 11, p16 + 12, p16 + 13, p16 + 14, p16 + 15, p16 + 16, p16 + 17, p16 + 18, p16 + 19, p16 + 20, p16 + 21, p16 + 22, p16 + 23, p16 + 24, p16 + 25, p16 + 26, p16 + 27, p16 + 28, p16 + 29, p16 + 30, p16 + 31, p16 + 32, p16 + 33, p16 + 34, p16 + 35, p16 + 36, p16 + 37, p16 + 38, p16 + 39, 11};
Line(17) = {12, 11};
p18 = newp;
Point(p18 + 1) = {6.500378484969037, 0.3181813393469184, 0};
Point(p18 + 2) = {6.472949930310708, 0.4324294917591687, 0};
Point(p18 + 3) = {6.427986718070855, 0.5409802885564823, 0};
Point(p18 + 4) = {6.366595991759169, 0.6411608488622691, 0};
Point(p18 + 5) = {6.290289394801583, 0.7305043948015828, 0};
Point(p18 + 6) = {6.200945848862269, 0.8068109917591687, 0};
Point(p18 + 7) = {6.100765288556483, 0.8682017180708548, 0};
Point(p18 + 8) = {5.992214491759169, 0.913164930310708, 0};
Point(p18 + 9) = {5.877966339346918, 0.9405934849690372, 0};
Point(p18 + 10) = {5.760834, 0.949812, 0};
Point(p18 + 11) = {5.643701660653082, 0.9405934849690371, 0};
Point(p18 + 12) = {5.529453508240831, 0.9131649303107081, 0};
Point(p18 + 13) = {5.420902711443517, 0.8682017180708549, 0};
Point(p18 + 14) = {5.320722151137731, 0.8068109917591688, 0};
Point(p18 + 15) = {5.231378605198417, 0.7305043948015829, 0};
Point(p18 + 16) = {5.155072008240832, 0.6411608488622691, 0};
Point(p18 + 17) = {5.093681281929145, 0.5409802885564823, 0};
Point(p18 + 18) = {5.048718069689292, 0.4324294917591688, 0};
Point(p18 + 19) = {5.021289515030963, 0.3181813393469185, 0};
Point(p18 + 20) = {5.012071, 0.2010490000000001, 0};
Point(p18 + 21) = {5.021289515030963, 0.0839166606530817, 0};
Point(p18 + 22) = {5.048718069689292, -0.03033149175916897, 0};
Point(p18 + 23) = {5.093681281929145, -0.1388822885564819, 0};
Point(p18 + 24) = {5.155072008240831, -0.2390628488622689, 0};
Point(p18 + 25) = {5.231378605198417, -0.3284063948015827, 0};
Point(p18 + 26) = {5.320722151137731, -0.4047129917591686, 0};
Point(p18 + 27) = {5.420902711443517, -0.4661037180708547, 0};
Point(p18 + 28) = {5.529453508240831, -0.5110669303107079, 0};
Point(p18 + 29) = {5.643701660653082, -0.538495484969037, 0};
Point(p18 + 30) = {5.760834, -0.5477139999999999, 0};
Point(p18 + 31) = {5.877966339346918, -0.5384954849690371, 0};
Point(p18 + 32) = {5.992214491759168, -0.511066930310708, 0};
Point(p18 + 33) = {6.100765288556482, -0.4661037180708549, 0};
Point(p18 + 34) = {6.200945848862269, -0.4047129917591687, 0};
Point(p18 + 35) = {6.290289394801583, -0.328406394801583, 0};
Point(p18 + 36) = {6.366595991759168, -0.2390628488622691, 0};
Point(p18 + 37) = {6.427986718070855, -0.1388822885564824, 0};
Point(p18 + 38) = {6.472949930310708, -0.03033149175916888, 0};
Point(p18 + 39) = {6.500378484969037, 0.08391666065308144, 0};
Spline(18) = {12, p18 + 1, p18 + 2, p18 + 3, p18 + 4, p18 + 5, p18 + 6, p18 + 7, p18 + 8, p18 + 9, p18 + 10, p18 + 11, p18 + 12, p18 + 13, p18 + 14, p18 + 15, p18 + 16, p18 + 17, p18 + 18, p18 + 19, p18 + 20, p18 + 21, p18 + 22, p18 + 23, p18 + 24, p18 + 25, p18 + 26, p18 + 27, p18 + 28, p18 + 29, p18 + 30, p18 + 31, p18 + 32, p18 + 33, p18 + 34, p18 + 35, p18 + 36, p18 + 37, p18 + 38, p18 + 39, 12};
Line(19) = {14, 13};
Line(20) = {13, 15};
Line(21) = {16, 15};
Line(22) = {14, 16};
Line(23) = {14, 17};
Line(24) = {17, 18};
Line(25) = {13, 18};
Line(26) = {15, 19};
Line(27) = {18, 19};
Line(28) = {16, 20};
Line(29) = {20, 19};
Line(30) = {17, 20};
Curve Loop(7) = {-13, -14, 15, 14};
Surface(7) = {7};
Curve Loop(8) = {13};
Plane Surface(8) = {8};
Curve Loop(9) = {15};
Plane Surface(9) = {9};
Curve Loop(10) = {-16, -17, 18, 17};
Surface(10) = {10};
Curve Loop(11) = {16};
Plane Surface(11) = {11};
Curve Loop(12) = {18};
Plane Surface(12) = {12};
Curve Loop(13) = {-19, 22, 21, -20};
Plane Surface(13) = {13};
Curve Loop(14) = {-23, 19, 25, -24};
Plane Surface(14) = {14};
Curve Loop(15) = {-20, 25, 27, -26, -16, -13};
Plane Surface(15) = {15};
Curve Loop(16) = {-28, 21, 26, -29};
Plane Surface(16) = {16};
Curve Loop(17) = {-22, 23, 30, -28, -18, -15};
Plane Surface(17) = {17};
Curve Loop(18) = {-24, 30, 29, -27};
Plane Surface(18) = {18};
Surface Loop(1) = {13, 14, 15, 16, 17, 18, 10, 7};
Volume(1) = {1};
Surface Loop(2) = {7, 8, 9};
Volume(2) = {2};
Surface Loop(3) = {10, 11, 12};
Volume(3) = {3};
Physical Surface("WALLS") = {13, 18};
Physical Surface("LOAD") = {8, 11};
Physical Surface("BORDER") = {7, 9, 10, 12, 14, 15, 16, 17};
Physical Volume("SOLID") = {1, 2, 3};
