cl__1 = 0.099479;
cl__2 = 0.119751;
cl__3 = 3.227308;
cl__4 = 3.576677;
cl__5 = 0.291943;
cl__6 = 0.700962;
Point(9) = {13.773839, -0.2594800000000003, 0.1, cl__1};
Point(10) = {13.773839, -0.2594800000000003, 0, cl__1};
Point(11) = {29.96279, -1.491321, 0.1, cl__2};
Point(12) = {29.96279, -1.491321, 0, cl__2};
Point(13) = {0.422005, -4.550246, 0.1, cl__3};
Point(14) = {0.422005, -4.550246, 0, cl__3};
Point(15) = {0.422005, 5.181947000000001, 0.1, cl__4};
Point(16) = {0.422005, 5.181947000000001, 0, cl__4};
Point(17) = {30.635106, -4.550246, 0, cl__5};
Point(18) = {30.635106, -4.550246, 0.1, cl__5};
Point(19) = {30.635106, 5.181947000000001, 0.1, cl__6};
Point(20) = {30.635106, 5.181947000000001, 0, cl__6};
p13 = newp;
Point(p13 + 1) = {13.7615914966523, -0.1038607149570938, 0.1};
Point(p13 + 2) = {13.72515056078874, 0.04792670681725958, 0.1};
Point(p13 + 3) = {13.66541348919082, 0.192144755245404, 0.1};
Point(p13 + 4) = {13.58385120681726, 0.3252423033427771, 0.1};
Point(p13 + 5) = {13.48247204774978, 0.4439420477497844, 0.1};
Point(p13 + 6) = {13.36377230334278, 0.5453212068172595, 0.1};
Point(p13 + 7) = {13.2306747552454, 0.6268834891908222, 0.1};
Point(p13 + 8) = {13.08645670681726, 0.6866205607887395, 0.1};
Point(p13 + 9) = {12.93466928504291, 0.7230614966522966, 0.1};
Point(p13 + 10) = {12.77905, 0.735309, 0.1};
Point(p13 + 11) = {12.62343071495709, 0.7230614966522964, 0.1};
Point(p13 + 12) = {12.47164329318274, 0.6866205607887397, 0.1};
Point(p13 + 13) = {12.3274252447546, 0.6268834891908224, 0.1};
Point(p13 + 14) = {12.19432769665722, 0.5453212068172597, 0.1};
Point(p13 + 15) = {12.07562795225022, 0.4439420477497845, 0.1};
Point(p13 + 16) = {11.97424879318274, 0.3252423033427772, 0.1};
Point(p13 + 17) = {11.89268651080918, 0.1921447552454041, 0.1};
Point(p13 + 18) = {11.83294943921126, 0.04792670681725969, 0.1};
Point(p13 + 19) = {11.7965085033477, -0.1038607149570936, 0.1};
Point(p13 + 20) = {11.784261, -0.2594799999999999, 0.1};
Point(p13 + 21) = {11.7965085033477, -0.4150992850429061, 0.1};
Point(p13 + 22) = {11.83294943921126, -0.5668867068172598, 0.1};
Point(p13 + 23) = {11.89268651080918, -0.7111047552454035, 0.1};
Point(p13 + 24) = {11.97424879318274, -0.844202303342777, 0.1};
Point(p13 + 25) = {12.07562795225022, -0.9629020477497843, 0.1};
Point(p13 + 26) = {12.19432769665722, -1.06428120681726, 0.1};
Point(p13 + 27) = {12.3274252447546, -1.145843489190822, 0.1};
Point(p13 + 28) = {12.47164329318274, -1.20558056078874, 0.1};
Point(p13 + 29) = {12.62343071495709, -1.242021496652296, 0.1};
Point(p13 + 30) = {12.77905, -1.254269, 0.1};
Point(p13 + 31) = {12.93466928504291, -1.242021496652296, 0.1};
Point(p13 + 32) = {13.08645670681726, -1.20558056078874, 0.1};
Point(p13 + 33) = {13.2306747552454, -1.145843489190822, 0.1};
Point(p13 + 34) = {13.36377230334278, -1.06428120681726, 0.1};
Point(p13 + 35) = {13.48247204774978, -0.9629020477497845, 0.1};
Point(p13 + 36) = {13.58385120681726, -0.8442023033427772, 0.1};
Point(p13 + 37) = {13.66541348919082, -0.7111047552454042, 0.1};
Point(p13 + 38) = {13.72515056078874, -0.5668867068172598, 0.1};
Point(p13 + 39) = {13.7615914966523, -0.4150992850429065, 0.1};
Spline(13) = {9, p13 + 1, p13 + 2, p13 + 3, p13 + 4, p13 + 5, p13 + 6, p13 + 7, p13 + 8, p13 + 9, p13 + 10, p13 + 11, p13 + 12, p13 + 13, p13 + 14, p13 + 15, p13 + 16, p13 + 17, p13 + 18, p13 + 19, p13 + 20, p13 + 21, p13 + 22, p13 + 23, p13 + 24, p13 + 25, p13 + 26, p13 + 27, p13 + 28, p13 + 29, p13 + 30, p13 + 31, p13 + 32, p13 + 33, p13 + 34, p13 + 35, p13 + 36, p13 + 37, p13 + 38, p13 + 39, 9};
Line(14) = {10, 9};
p15 = newp;
Point(p15 + 1) = {13.7615914966523, -0.1038607149570938, 0};
Point(p15 + 2) = {13.72515056078874, 0.04792670681725958, 0};
Point(p15 + 3) = {13.66541348919082, 0.192144755245404, 0};
Point(p15 + 4) = {13.58385120681726, 0.3252423033427771, 0};
Point(p15 + 5) = {13.48247204774978, 0.4439420477497844, 0};
Point(p15 + 6) = {13.36377230334278, 0.5453212068172595, 0};
Point(p15 + 7) = {13.2306747552454, 0.6268834891908222, 0};
Point(p15 + 8) = {13.08645670681726, 0.6866205607887395, 0};
Point(p15 + 9) = {12.93466928504291, 0.7230614966522966, 0};
Point(p15 + 10) = {12.77905, 0.735309, 0};
Point(p15 + 11) = {12.62343071495709, 0.7230614966522964, 0};
Point(p15 + 12) = {12.47164329318274, 0.6866205607887397, 0};
Point(p15 + 13) = {12.3274252447546, 0.6268834891908224, 0};
Point(p15 + 14) = {12.19432769665722, 0.5453212068172597, 0};
Point(p15 + 15) = {12.07562795225022, 0.4439420477497845, 0};
Point(p15 + 16) = {11.97424879318274, 0.3252423033427772, 0};
Point(p15 + 17) = {11.89268651080918, 0.1921447552454041, 0};
Point(p15 + 18) = {11.83294943921126, 0.04792670681725969, 0};
Point(p15 + 19) = {11.7965085033477, -0.1038607149570936, 0};
Point(p15 + 20) = {11.784261, -0.2594799999999999, 0};
Point(p15 + 21) = {11.7965085033477, -0.4150992850429061, 0};
Point(p15 + 22) = {11.83294943921126, -0.5668867068172598, 0};
Point(p15 + 23) = {11.89268651080918, -0.7111047552454035, 0};
Point(p15 + 24) = {11.97424879318274, -0.844202303342777, 0};
Point(p15 + 25) = {12.07562795225022, -0.9629020477497843, 0};
Point(p15 + 26) = {12.19432769665722, -1.06428120681726, 0};
Point(p15 + 27) = {12.3274252447546, -1.145843489190822, 0};
Point(p15 + 28) = {12.47164329318274, -1.20558056078874, 0};
Point(p15 + 29) = {12.62343071495709, -1.242021496652296, 0};
Point(p15 + 30) = {12.77905, -1.254269, 0};
Point(p15 + 31) = {12.93466928504291, -1.242021496652296, 0};
Point(p15 + 32) = {13.08645670681726, -1.20558056078874, 0};
Point(p15 + 33) = {13.2306747552454, -1.145843489190822, 0};
Point(p15 + 34) = {13.36377230334278, -1.06428120681726, 0};
Point(p15 + 35) = {13.48247204774978, -0.9629020477497845, 0};
Point(p15 + 36) = {13.58385120681726, -0.8442023033427772, 0};
Point(p15 + 37) = {13.66541348919082, -0.7111047552454042, 0};
Point(p15 + 38) = {13.72515056078874, -0.5668867068172598, 0};
Point(p15 + 39) = {13.7615914966523, -0.4150992850429065, 0};
Spline(15) = {10, p15 + 1, p15 + 2, p15 + 3, p15 + 4, p15 + 5, p15 + 6, p15 + 7, p15 + 8, p15 + 9, p15 + 10, p15 + 11, p15 + 12, p15 + 13, p15 + 14, p15 + 15, p15 + 16, p15 + 17, p15 + 18, p15 + 19, p15 + 20, p15 + 21, p15 + 22, p15 + 23, p15 + 24, p15 + 25, p15 + 26, p15 + 27, p15 + 28, p15 + 29, p15 + 30, p15 + 31, p15 + 32, p15 + 33, p15 + 34, p15 + 35, p15 + 36, p15 + 37, p15 + 38, p15 + 39, 10};
p16 = newp;
Point(p16 + 1) = {29.94804661549945, -1.303988538031813, 0.1};
Point(p16 + 2) = {29.90417949305467, -1.121268822998079, 0.1};
Point(p16 + 3) = {29.83226878680691, -0.9476610206948963, 0.1};
Point(p16 + 4) = {29.73408517700192, -0.7874399313862313, 0.1};
Point(p16 + 5) = {29.61204626996583, -0.6445507300341727, 0.1};
Point(p16 + 6) = {29.46915706861377, -0.5225118229980792, 0.1};
Point(p16 + 7) = {29.3089359793051, -0.4243282131930908, 0.1};
Point(p16 + 8) = {29.13532817700192, -0.3524175069453255, 0.1};
Point(p16 + 9) = {28.95260846196819, -0.3085503845005542, 0.1};
Point(p16 + 10) = {28.765276, -0.2938069999999999, 0.1};
Point(p16 + 11) = {28.57794353803181, -0.3085503845005542, 0.1};
Point(p16 + 12) = {28.39522382299808, -0.3524175069453253, 0.1};
Point(p16 + 13) = {28.2216160206949, -0.4243282131930908, 0.1};
Point(p16 + 14) = {28.06139493138623, -0.5225118229980791, 0.1};
Point(p16 + 15) = {27.91850573003417, -0.6445507300341726, 0.1};
Point(p16 + 16) = {27.79646682299808, -0.7874399313862311, 0.1};
Point(p16 + 17) = {27.69828321319309, -0.9476610206948962, 0.1};
Point(p16 + 18) = {27.62637250694533, -1.121268822998079, 0.1};
Point(p16 + 19) = {27.58250538450055, -1.303988538031813, 0.1};
Point(p16 + 20) = {27.567762, -1.491321, 0.1};
Point(p16 + 21) = {27.58250538450055, -1.678653461968187, 0.1};
Point(p16 + 22) = {27.62637250694533, -1.861373177001921, 0.1};
Point(p16 + 23) = {27.69828321319309, -2.034980979305103, 0.1};
Point(p16 + 24) = {27.79646682299808, -2.195202068613769, 0.1};
Point(p16 + 25) = {27.91850573003417, -2.338091269965827, 0.1};
Point(p16 + 26) = {28.06139493138623, -2.460130177001921, 0.1};
Point(p16 + 27) = {28.2216160206949, -2.558313786806909, 0.1};
Point(p16 + 28) = {28.39522382299808, -2.630224493054675, 0.1};
Point(p16 + 29) = {28.57794353803181, -2.674091615499446, 0.1};
Point(p16 + 30) = {28.765276, -2.688835, 0.1};
Point(p16 + 31) = {28.95260846196819, -2.674091615499446, 0.1};
Point(p16 + 32) = {29.13532817700192, -2.630224493054675, 0.1};
Point(p16 + 33) = {29.3089359793051, -2.558313786806909, 0.1};
Point(p16 + 34) = {29.46915706861377, -2.460130177001921, 0.1};
Point(p16 + 35) = {29.61204626996583, -2.338091269965827, 0.1};
Point(p16 + 36) = {29.73408517700192, -2.195202068613769, 0.1};
Point(p16 + 37) = {29.83226878680691, -2.034980979305104, 0.1};
Point(p16 + 38) = {29.90417949305467, -1.861373177001921, 0.1};
Point(p16 + 39) = {29.94804661549945, -1.678653461968187, 0.1};
Spline(16) = {11, p16 + 1, p16 + 2, p16 + 3, p16 + 4, p16 + 5, p16 + 6, p16 + 7, p16 + 8, p16 + 9, p16 + 10, p16 + 11, p16 + 12, p16 + 13, p16 + 14, p16 + 15, p16 + 16, p16 + 17, p16 + 18, p16 + 19, p16 + 20, p16 + 21, p16 + 22, p16 + 23, p16 + 24, p16 + 25, p16 + 26, p16 + 27, p16 + 28, p16 + 29, p16 + 30, p16 + 31, p16 + 32, p16 + 33, p16 + 34, p16 + 35, p16 + 36, p16 + 37, p16 + 38, p16 + 39, 11};
Line(17) = {12, 11};
p18 = newp;
Point(p18 + 1) = {29.94804661549945, -1.303988538031813, 0};
Point(p18 + 2) = {29.90417949305467, -1.121268822998079, 0};
Point(p18 + 3) = {29.83226878680691, -0.9476610206948963, 0};
Point(p18 + 4) = {29.73408517700192, -0.7874399313862313, 0};
Point(p18 + 5) = {29.61204626996583, -0.6445507300341727, 0};
Point(p18 + 6) = {29.46915706861377, -0.5225118229980792, 0};
Point(p18 + 7) = {29.3089359793051, -0.4243282131930908, 0};
Point(p18 + 8) = {29.13532817700192, -0.3524175069453255, 0};
Point(p18 + 9) = {28.95260846196819, -0.3085503845005542, 0};
Point(p18 + 10) = {28.765276, -0.2938069999999999, 0};
Point(p18 + 11) = {28.57794353803181, -0.3085503845005542, 0};
Point(p18 + 12) = {28.39522382299808, -0.3524175069453253, 0};
Point(p18 + 13) = {28.2216160206949, -0.4243282131930908, 0};
Point(p18 + 14) = {28.06139493138623, -0.5225118229980791, 0};
Point(p18 + 15) = {27.91850573003417, -0.6445507300341726, 0};
Point(p18 + 16) = {27.79646682299808, -0.7874399313862311, 0};
Point(p18 + 17) = {27.69828321319309, -0.9476610206948962, 0};
Point(p18 + 18) = {27.62637250694533, -1.121268822998079, 0};
Point(p18 + 19) = {27.58250538450055, -1.303988538031813, 0};
Point(p18 + 20) = {27.567762, -1.491321, 0};
Point(p18 + 21) = {27.58250538450055, -1.678653461968187, 0};
Point(p18 + 22) = {27.62637250694533, -1.861373177001921, 0};
Point(p18 + 23) = {27.69828321319309, -2.034980979305103, 0};
Point(p18 + 24) = {27.79646682299808, -2.195202068613769, 0};
Point(p18 + 25) = {27.91850573003417, -2.338091269965827, 0};
Point(p18 + 26) = {28.06139493138623, -2.460130177001921, 0};
Point(p18 + 27) = {28.2216160206949, -2.558313786806909, 0};
Point(p18 + 28) = {28.39522382299808, -2.630224493054675, 0};
Point(p18 + 29) = {28.57794353803181, -2.674091615499446, 0};
Point(p18 + 30) = {28.765276, -2.688835, 0};
Point(p18 + 31) = {28.95260846196819, -2.674091615499446, 0};
Point(p18 + 32) = {29.13532817700192, -2.630224493054675, 0};
Point(p18 + 33) = {29.3089359793051, -2.558313786806909, 0};
Point(p18 + 34) = {29.46915706861377, -2.460130177001921, 0};
Point(p18 + 35) = {29.61204626996583, -2.338091269965827, 0};
Point(p18 + 36) = {29.73408517700192, -2.195202068613769, 0};
Point(p18 + 37) = {29.83226878680691, -2.034980979305104, 0};
Point(p18 + 38) = {29.90417949305467, -1.861373177001921, 0};
Point(p18 + 39) = {29.94804661549945, -1.678653461968187, 0};
Spline(18) = {12, p18 + 1, p18 + 2, p18 + 3, p18 + 4, p18 + 5, p18 + 6, p18 + 7, p18 + 8, p18 + 9, p18 + 10, p18 + 11, p18 + 12, p18 + 13, p18 + 14, p18 + 15, p18 + 16, p18 + 17, p18 + 18, p18 + 19, p18 + 20, p18 + 21, p18 + 22, p18 + 23, p18 + 24, p18 + 25, p18 + 26, p18 + 27, p18 + 28, p18 + 29, p18 + 30, p18 + 31, p18 + 32, p18 + 33, p18 + 34, p18 + 35, p18 + 36, p18 + 37, p18 + 38, p18 + 39, 12};
Line(19) = {14, 13};
Line(20) = {13, 15};
Line(21) = {16, 15};
Line(22) = {14, 16};
Line(23) = {14, 17};
Line(24) = {17, 18};
Line(25) = {13, 18};
Line(26) = {15, 19};
Line(27) = {18, 19};
Line(28) = {16, 20};
Line(29) = {20, 19};
Line(30) = {17, 20};
Curve Loop(7) = {-13, -14, 15, 14};
Surface(7) = {7};
Curve Loop(8) = {13};
Plane Surface(8) = {8};
Curve Loop(9) = {15};
Plane Surface(9) = {9};
Curve Loop(10) = {-16, -17, 18, 17};
Surface(10) = {10};
Curve Loop(11) = {16};
Plane Surface(11) = {11};
Curve Loop(12) = {18};
Plane Surface(12) = {12};
Curve Loop(13) = {-19, 22, 21, -20};
Plane Surface(13) = {13};
Curve Loop(14) = {-23, 19, 25, -24};
Plane Surface(14) = {14};
Curve Loop(15) = {-20, 25, 27, -26, -16, -13};
Plane Surface(15) = {15};
Curve Loop(16) = {-28, 21, 26, -29};
Plane Surface(16) = {16};
Curve Loop(17) = {-22, 23, 30, -28, -18, -15};
Plane Surface(17) = {17};
Curve Loop(18) = {-24, 30, 29, -27};
Plane Surface(18) = {18};
Surface Loop(1) = {13, 14, 15, 16, 17, 18, 10, 7};
Volume(1) = {1};
Surface Loop(2) = {7, 8, 9};
Volume(2) = {2};
Surface Loop(3) = {10, 11, 12};
Volume(3) = {3};
Physical Surface("WALLS") = {13, 18};
Physical Surface("LOAD") = {8, 11};
Physical Surface("BORDER") = {7, 9, 10, 12, 14, 15, 16, 17};
Physical Volume("SOLID") = {1, 2, 3};
