cl__1 = 0.07019300000000001;
cl__2 = 0.076167;
cl__3 = 3.044061;
cl__4 = 3.117937;
cl__5 = 0.591397;
cl__6 = 0.49842;
Point(9) = {28.552296, 2.293995999999999, 0.1, cl__1};
Point(10) = {28.552296, 2.293995999999999, 0, cl__1};
Point(11) = {24.784864, -0.07640300000000018, 0.1, cl__2};
Point(12) = {24.784864, -0.07640300000000018, 0, cl__2};
Point(13) = {0.25069, -3.420987, 0.1, cl__3};
Point(14) = {0.25069, -3.420987, 0, cl__3};
Point(15) = {0.25069, 4.415534000000001, 0.1, cl__4};
Point(16) = {0.25069, 4.415534000000001, 0, cl__4};
Point(17) = {36.28371, -3.420987, 0, cl__5};
Point(18) = {36.28371, -3.420987, 0.1, cl__5};
Point(19) = {36.28371, 4.415534000000001, 0.1, cl__6};
Point(20) = {36.28371, 4.415534000000001, 0, cl__6};
p13 = newp;
Point(p13 + 1) = {28.54365405229063, 2.403802356914619, 0.1};
Point(p13 + 2) = {28.51794100259609, 2.510904916895595, 0.1};
Point(p13 + 3) = {28.47578999153659, 2.612666459463179, 0.1};
Point(p13 + 4) = {28.4182389168956, 2.70658127771216, 0.1};
Point(p13 + 5) = {28.34670487713183, 2.790336877131836, 0.1};
Point(p13 + 6) = {28.26294927771216, 2.861870916895596, 0.1};
Point(p13 + 7) = {28.16903445946318, 2.91942199153659, 0.1};
Point(p13 + 8) = {28.06727291689559, 2.96157300259609, 0.1};
Point(p13 + 9) = {27.96017035691462, 2.987286052290626, 0.1};
Point(p13 + 10) = {27.850364, 2.995928, 0.1};
Point(p13 + 11) = {27.74055764308538, 2.987286052290626, 0.1};
Point(p13 + 12) = {27.6334550831044, 2.96157300259609, 0.1};
Point(p13 + 13) = {27.53169354053682, 2.91942199153659, 0.1};
Point(p13 + 14) = {27.43777872228784, 2.861870916895596, 0.1};
Point(p13 + 15) = {27.35402312286816, 2.790336877131836, 0.1};
Point(p13 + 16) = {27.28248908310441, 2.70658127771216, 0.1};
Point(p13 + 17) = {27.22493800846341, 2.612666459463179, 0.1};
Point(p13 + 18) = {27.18278699740391, 2.510904916895595, 0.1};
Point(p13 + 19) = {27.15707394770937, 2.403802356914619, 0.1};
Point(p13 + 20) = {27.148432, 2.293996, 0.1};
Point(p13 + 21) = {27.15707394770937, 2.18418964308538, 0.1};
Point(p13 + 22) = {27.18278699740391, 2.077087083104404, 0.1};
Point(p13 + 23) = {27.22493800846341, 1.975325540536821, 0.1};
Point(p13 + 24) = {27.2824890831044, 1.88141072228784, 0.1};
Point(p13 + 25) = {27.35402312286816, 1.797655122868164, 0.1};
Point(p13 + 26) = {27.43777872228784, 1.726121083104404, 0.1};
Point(p13 + 27) = {27.53169354053682, 1.668570008463411, 0.1};
Point(p13 + 28) = {27.6334550831044, 1.62641899740391, 0.1};
Point(p13 + 29) = {27.74055764308538, 1.600705947709374, 0.1};
Point(p13 + 30) = {27.850364, 1.592064, 0.1};
Point(p13 + 31) = {27.96017035691462, 1.600705947709374, 0.1};
Point(p13 + 32) = {28.06727291689559, 1.62641899740391, 0.1};
Point(p13 + 33) = {28.16903445946318, 1.66857000846341, 0.1};
Point(p13 + 34) = {28.26294927771216, 1.726121083104404, 0.1};
Point(p13 + 35) = {28.34670487713183, 1.797655122868164, 0.1};
Point(p13 + 36) = {28.41823891689559, 1.88141072228784, 0.1};
Point(p13 + 37) = {28.47578999153659, 1.97532554053682, 0.1};
Point(p13 + 38) = {28.51794100259609, 2.077087083104404, 0.1};
Point(p13 + 39) = {28.54365405229062, 2.18418964308538, 0.1};
Spline(13) = {9, p13 + 1, p13 + 2, p13 + 3, p13 + 4, p13 + 5, p13 + 6, p13 + 7, p13 + 8, p13 + 9, p13 + 10, p13 + 11, p13 + 12, p13 + 13, p13 + 14, p13 + 15, p13 + 16, p13 + 17, p13 + 18, p13 + 19, p13 + 20, p13 + 21, p13 + 22, p13 + 23, p13 + 24, p13 + 25, p13 + 26, p13 + 27, p13 + 28, p13 + 29, p13 + 30, p13 + 31, p13 + 32, p13 + 33, p13 + 34, p13 + 35, p13 + 36, p13 + 37, p13 + 38, p13 + 39, 9};
Line(14) = {10, 9};
p15 = newp;
Point(p15 + 1) = {28.54365405229063, 2.403802356914619, 0};
Point(p15 + 2) = {28.51794100259609, 2.510904916895595, 0};
Point(p15 + 3) = {28.47578999153659, 2.612666459463179, 0};
Point(p15 + 4) = {28.4182389168956, 2.70658127771216, 0};
Point(p15 + 5) = {28.34670487713183, 2.790336877131836, 0};
Point(p15 + 6) = {28.26294927771216, 2.861870916895596, 0};
Point(p15 + 7) = {28.16903445946318, 2.91942199153659, 0};
Point(p15 + 8) = {28.06727291689559, 2.96157300259609, 0};
Point(p15 + 9) = {27.96017035691462, 2.987286052290626, 0};
Point(p15 + 10) = {27.850364, 2.995928, 0};
Point(p15 + 11) = {27.74055764308538, 2.987286052290626, 0};
Point(p15 + 12) = {27.6334550831044, 2.96157300259609, 0};
Point(p15 + 13) = {27.53169354053682, 2.91942199153659, 0};
Point(p15 + 14) = {27.43777872228784, 2.861870916895596, 0};
Point(p15 + 15) = {27.35402312286816, 2.790336877131836, 0};
Point(p15 + 16) = {27.28248908310441, 2.70658127771216, 0};
Point(p15 + 17) = {27.22493800846341, 2.612666459463179, 0};
Point(p15 + 18) = {27.18278699740391, 2.510904916895595, 0};
Point(p15 + 19) = {27.15707394770937, 2.403802356914619, 0};
Point(p15 + 20) = {27.148432, 2.293996, 0};
Point(p15 + 21) = {27.15707394770937, 2.18418964308538, 0};
Point(p15 + 22) = {27.18278699740391, 2.077087083104404, 0};
Point(p15 + 23) = {27.22493800846341, 1.975325540536821, 0};
Point(p15 + 24) = {27.2824890831044, 1.88141072228784, 0};
Point(p15 + 25) = {27.35402312286816, 1.797655122868164, 0};
Point(p15 + 26) = {27.43777872228784, 1.726121083104404, 0};
Point(p15 + 27) = {27.53169354053682, 1.668570008463411, 0};
Point(p15 + 28) = {27.6334550831044, 1.62641899740391, 0};
Point(p15 + 29) = {27.74055764308538, 1.600705947709374, 0};
Point(p15 + 30) = {27.850364, 1.592064, 0};
Point(p15 + 31) = {27.96017035691462, 1.600705947709374, 0};
Point(p15 + 32) = {28.06727291689559, 1.62641899740391, 0};
Point(p15 + 33) = {28.16903445946318, 1.66857000846341, 0};
Point(p15 + 34) = {28.26294927771216, 1.726121083104404, 0};
Point(p15 + 35) = {28.34670487713183, 1.797655122868164, 0};
Point(p15 + 36) = {28.41823891689559, 1.88141072228784, 0};
Point(p15 + 37) = {28.47578999153659, 1.97532554053682, 0};
Point(p15 + 38) = {28.51794100259609, 2.077087083104404, 0};
Point(p15 + 39) = {28.54365405229062, 2.18418964308538, 0};
Spline(15) = {10, p15 + 1, p15 + 2, p15 + 3, p15 + 4, p15 + 5, p15 + 6, p15 + 7, p15 + 8, p15 + 9, p15 + 10, p15 + 11, p15 + 12, p15 + 13, p15 + 14, p15 + 15, p15 + 16, p15 + 17, p15 + 18, p15 + 19, p15 + 20, p15 + 21, p15 + 22, p15 + 23, p15 + 24, p15 + 25, p15 + 26, p15 + 27, p15 + 28, p15 + 29, p15 + 30, p15 + 31, p15 + 32, p15 + 33, p15 + 34, p15 + 35, p15 + 36, p15 + 37, p15 + 38, p15 + 39, 10};
p16 = newp;
Point(p16 + 1) = {24.7754866399394, 0.04274765681486745, 0.1};
Point(p16 + 2) = {24.74758546148395, 0.1589644290205943, 0.1};
Point(p16 + 3) = {24.70184748424593, 0.2693856739841219, 0.1};
Point(p16 + 4) = {24.6393989290206, 0.3712924541873466, 0.1};
Point(p16 + 5) = {24.56177748649245, 0.4621754864924517, 0.1};
Point(p16 + 6) = {24.47089445418735, 0.5397969290205943, 0.1};
Point(p16 + 7) = {24.36898767398412, 0.6022454842459332, 0.1};
Point(p16 + 8) = {24.2585664290206, 0.6479834614839481, 0.1};
Point(p16 + 9) = {24.14234965681487, 0.6758846399393956, 0.1};
Point(p16 + 10) = {24.023199, 0.685262, 0.1};
Point(p16 + 11) = {23.90404834318513, 0.6758846399393955, 0.1};
Point(p16 + 12) = {23.78783157097941, 0.6479834614839483, 0.1};
Point(p16 + 13) = {23.67741032601588, 0.6022454842459333, 0.1};
Point(p16 + 14) = {23.57550354581265, 0.5397969290205944, 0.1};
Point(p16 + 15) = {23.48462051350755, 0.4621754864924518, 0.1};
Point(p16 + 16) = {23.40699907097941, 0.3712924541873466, 0.1};
Point(p16 + 17) = {23.34455051575407, 0.269385673984122, 0.1};
Point(p16 + 18) = {23.29881253851605, 0.1589644290205944, 0.1};
Point(p16 + 19) = {23.27091136006061, 0.04274765681486753, 0.1};
Point(p16 + 20) = {23.261534, -0.0764029999999999, 0.1};
Point(p16 + 21) = {23.27091136006061, -0.1955536568148674, 0.1};
Point(p16 + 22) = {23.29881253851605, -0.3117704290205946, 0.1};
Point(p16 + 23) = {23.34455051575407, -0.4221916739841216, 0.1};
Point(p16 + 24) = {23.40699907097941, -0.5240984541873465, 0.1};
Point(p16 + 25) = {23.48462051350755, -0.6149814864924517, 0.1};
Point(p16 + 26) = {23.57550354581265, -0.6926029290205943, 0.1};
Point(p16 + 27) = {23.67741032601588, -0.7550514842459332, 0.1};
Point(p16 + 28) = {23.78783157097941, -0.8007894614839481, 0.1};
Point(p16 + 29) = {23.90404834318513, -0.8286906399393955, 0.1};
Point(p16 + 30) = {24.023199, -0.838068, 0.1};
Point(p16 + 31) = {24.14234965681487, -0.8286906399393956, 0.1};
Point(p16 + 32) = {24.2585664290206, -0.8007894614839483, 0.1};
Point(p16 + 33) = {24.36898767398412, -0.7550514842459334, 0.1};
Point(p16 + 34) = {24.47089445418735, -0.6926029290205945, 0.1};
Point(p16 + 35) = {24.56177748649245, -0.6149814864924519, 0.1};
Point(p16 + 36) = {24.6393989290206, -0.5240984541873466, 0.1};
Point(p16 + 37) = {24.70184748424593, -0.4221916739841221, 0.1};
Point(p16 + 38) = {24.74758546148395, -0.3117704290205945, 0.1};
Point(p16 + 39) = {24.7754866399394, -0.1955536568148676, 0.1};
Spline(16) = {11, p16 + 1, p16 + 2, p16 + 3, p16 + 4, p16 + 5, p16 + 6, p16 + 7, p16 + 8, p16 + 9, p16 + 10, p16 + 11, p16 + 12, p16 + 13, p16 + 14, p16 + 15, p16 + 16, p16 + 17, p16 + 18, p16 + 19, p16 + 20, p16 + 21, p16 + 22, p16 + 23, p16 + 24, p16 + 25, p16 + 26, p16 + 27, p16 + 28, p16 + 29, p16 + 30, p16 + 31, p16 + 32, p16 + 33, p16 + 34, p16 + 35, p16 + 36, p16 + 37, p16 + 38, p16 + 39, 11};
Line(17) = {12, 11};
p18 = newp;
Point(p18 + 1) = {24.7754866399394, 0.04274765681486745, 0};
Point(p18 + 2) = {24.74758546148395, 0.1589644290205943, 0};
Point(p18 + 3) = {24.70184748424593, 0.2693856739841219, 0};
Point(p18 + 4) = {24.6393989290206, 0.3712924541873466, 0};
Point(p18 + 5) = {24.56177748649245, 0.4621754864924517, 0};
Point(p18 + 6) = {24.47089445418735, 0.5397969290205943, 0};
Point(p18 + 7) = {24.36898767398412, 0.6022454842459332, 0};
Point(p18 + 8) = {24.2585664290206, 0.6479834614839481, 0};
Point(p18 + 9) = {24.14234965681487, 0.6758846399393956, 0};
Point(p18 + 10) = {24.023199, 0.685262, 0};
Point(p18 + 11) = {23.90404834318513, 0.6758846399393955, 0};
Point(p18 + 12) = {23.78783157097941, 0.6479834614839483, 0};
Point(p18 + 13) = {23.67741032601588, 0.6022454842459333, 0};
Point(p18 + 14) = {23.57550354581265, 0.5397969290205944, 0};
Point(p18 + 15) = {23.48462051350755, 0.4621754864924518, 0};
Point(p18 + 16) = {23.40699907097941, 0.3712924541873466, 0};
Point(p18 + 17) = {23.34455051575407, 0.269385673984122, 0};
Point(p18 + 18) = {23.29881253851605, 0.1589644290205944, 0};
Point(p18 + 19) = {23.27091136006061, 0.04274765681486753, 0};
Point(p18 + 20) = {23.261534, -0.0764029999999999, 0};
Point(p18 + 21) = {23.27091136006061, -0.1955536568148674, 0};
Point(p18 + 22) = {23.29881253851605, -0.3117704290205946, 0};
Point(p18 + 23) = {23.34455051575407, -0.4221916739841216, 0};
Point(p18 + 24) = {23.40699907097941, -0.5240984541873465, 0};
Point(p18 + 25) = {23.48462051350755, -0.6149814864924517, 0};
Point(p18 + 26) = {23.57550354581265, -0.6926029290205943, 0};
Point(p18 + 27) = {23.67741032601588, -0.7550514842459332, 0};
Point(p18 + 28) = {23.78783157097941, -0.8007894614839481, 0};
Point(p18 + 29) = {23.90404834318513, -0.8286906399393955, 0};
Point(p18 + 30) = {24.023199, -0.838068, 0};
Point(p18 + 31) = {24.14234965681487, -0.8286906399393956, 0};
Point(p18 + 32) = {24.2585664290206, -0.8007894614839483, 0};
Point(p18 + 33) = {24.36898767398412, -0.7550514842459334, 0};
Point(p18 + 34) = {24.47089445418735, -0.6926029290205945, 0};
Point(p18 + 35) = {24.56177748649245, -0.6149814864924519, 0};
Point(p18 + 36) = {24.6393989290206, -0.5240984541873466, 0};
Point(p18 + 37) = {24.70184748424593, -0.4221916739841221, 0};
Point(p18 + 38) = {24.74758546148395, -0.3117704290205945, 0};
Point(p18 + 39) = {24.7754866399394, -0.1955536568148676, 0};
Spline(18) = {12, p18 + 1, p18 + 2, p18 + 3, p18 + 4, p18 + 5, p18 + 6, p18 + 7, p18 + 8, p18 + 9, p18 + 10, p18 + 11, p18 + 12, p18 + 13, p18 + 14, p18 + 15, p18 + 16, p18 + 17, p18 + 18, p18 + 19, p18 + 20, p18 + 21, p18 + 22, p18 + 23, p18 + 24, p18 + 25, p18 + 26, p18 + 27, p18 + 28, p18 + 29, p18 + 30, p18 + 31, p18 + 32, p18 + 33, p18 + 34, p18 + 35, p18 + 36, p18 + 37, p18 + 38, p18 + 39, 12};
Line(19) = {14, 13};
Line(20) = {13, 15};
Line(21) = {16, 15};
Line(22) = {14, 16};
Line(23) = {14, 17};
Line(24) = {17, 18};
Line(25) = {13, 18};
Line(26) = {15, 19};
Line(27) = {18, 19};
Line(28) = {16, 20};
Line(29) = {20, 19};
Line(30) = {17, 20};
Curve Loop(7) = {-13, -14, 15, 14};
Surface(7) = {7};
Curve Loop(8) = {13};
Plane Surface(8) = {8};
Curve Loop(9) = {15};
Plane Surface(9) = {9};
Curve Loop(10) = {-16, -17, 18, 17};
Surface(10) = {10};
Curve Loop(11) = {16};
Plane Surface(11) = {11};
Curve Loop(12) = {18};
Plane Surface(12) = {12};
Curve Loop(13) = {-19, 22, 21, -20};
Plane Surface(13) = {13};
Curve Loop(14) = {-23, 19, 25, -24};
Plane Surface(14) = {14};
Curve Loop(15) = {-20, 25, 27, -26, -16, -13};
Plane Surface(15) = {15};
Curve Loop(16) = {-28, 21, 26, -29};
Plane Surface(16) = {16};
Curve Loop(17) = {-22, 23, 30, -28, -18, -15};
Plane Surface(17) = {17};
Curve Loop(18) = {-24, 30, 29, -27};
Plane Surface(18) = {18};
Surface Loop(1) = {13, 14, 15, 16, 17, 18, 10, 7};
Volume(1) = {1};
Surface Loop(2) = {7, 8, 9};
Volume(2) = {2};
Surface Loop(3) = {10, 11, 12};
Volume(3) = {3};
Physical Surface("WALLS") = {13, 18};
Physical Surface("LOAD") = {8, 11};
Physical Surface("BORDER") = {7, 9, 10, 12, 14, 15, 16, 17};
Physical Volume("SOLID") = {1, 2, 3};
