cl__1 = 0.122908;
cl__2 = 0.136135;
cl__3 = 3.493473;
cl__4 = 3.780761;
cl__5 = 0.385369;
cl__6 = 0.539428;
Point(9) = {14.347013, -0.2828500000000003, 0.1, cl__1};
Point(10) = {14.347013, -0.2828500000000003, 0, cl__1};
Point(11) = {29.954246, -0.4878030000000003, 0.1, cl__2};
Point(12) = {29.954246, -0.4878030000000003, 0, cl__2};
Point(13) = {0.807497, -4.098404, 0.1, cl__3};
Point(14) = {0.807497, -4.098404, 0, cl__3};
Point(15) = {0.807497, 4.479224, 0.1, cl__4};
Point(16) = {0.807497, 4.479224, 0, cl__4};
Point(17) = {30.969308, -4.098404, 0, cl__5};
Point(18) = {30.969308, -4.098404, 0.1, cl__5};
Point(19) = {30.969308, 4.479224, 0.1, cl__6};
Point(20) = {30.969308, 4.479224, 0, cl__6};
p13 = newp;
Point(p13 + 1) = {14.33188103490531, -0.09058015344621317, 0.1};
Point(p13 + 2) = {14.28685773882198, 0.09695537137838289, 0.1};
Point(p13 + 3) = {14.21305173472334, 0.2751388274578832, 0.1};
Point(p13 + 4) = {14.11228037137838, 0.4395827467466237, 0.1};
Point(p13 + 5) = {13.98702497419364, 0.586237974193637, 0.1};
Point(p13 + 6) = {13.84036974674662, 0.7114933713783829, 0.1};
Point(p13 + 7) = {13.67592582745788, 0.8122647347233423, 0.1};
Point(p13 + 8) = {13.49774237137838, 0.8860707388219822, 0.1};
Point(p13 + 9) = {13.31020684655379, 0.9310940349053096, 0.1};
Point(p13 + 10) = {13.117937, 0.946226, 0.1};
Point(p13 + 11) = {12.92566715344621, 0.9310940349053094, 0.1};
Point(p13 + 12) = {12.73813162862162, 0.8860707388219822, 0.1};
Point(p13 + 13) = {12.55994817254212, 0.8122647347233425, 0.1};
Point(p13 + 14) = {12.39550425325338, 0.7114933713783829, 0.1};
Point(p13 + 15) = {12.24884902580636, 0.5862379741936372, 0.1};
Point(p13 + 16) = {12.12359362862162, 0.4395827467466238, 0.1};
Point(p13 + 17) = {12.02282226527666, 0.2751388274578834, 0.1};
Point(p13 + 18) = {11.94901626117802, 0.096955371378383, 0.1};
Point(p13 + 19) = {11.90399296509469, -0.09058015344621306, 0.1};
Point(p13 + 20) = {11.888861, -0.2828499999999998, 0.1};
Point(p13 + 21) = {11.90399296509469, -0.4751198465537867, 0.1};
Point(p13 + 22) = {11.94901626117802, -0.6626553713783833, 0.1};
Point(p13 + 23) = {12.02282226527666, -0.8408388274578826, 0.1};
Point(p13 + 24) = {12.12359362862162, -1.005282746746624, 0.1};
Point(p13 + 25) = {12.24884902580636, -1.151937974193637, 0.1};
Point(p13 + 26) = {12.39550425325338, -1.277193371378383, 0.1};
Point(p13 + 27) = {12.55994817254212, -1.377964734723342, 0.1};
Point(p13 + 28) = {12.73813162862162, -1.451770738821982, 0.1};
Point(p13 + 29) = {12.92566715344621, -1.496794034905309, 0.1};
Point(p13 + 30) = {13.117937, -1.511926, 0.1};
Point(p13 + 31) = {13.31020684655379, -1.49679403490531, 0.1};
Point(p13 + 32) = {13.49774237137838, -1.451770738821982, 0.1};
Point(p13 + 33) = {13.67592582745788, -1.377964734723343, 0.1};
Point(p13 + 34) = {13.84036974674662, -1.277193371378383, 0.1};
Point(p13 + 35) = {13.98702497419364, -1.151937974193637, 0.1};
Point(p13 + 36) = {14.11228037137838, -1.005282746746624, 0.1};
Point(p13 + 37) = {14.21305173472334, -0.8408388274578835, 0.1};
Point(p13 + 38) = {14.28685773882198, -0.6626553713783832, 0.1};
Point(p13 + 39) = {14.33188103490531, -0.4751198465537871, 0.1};
Spline(13) = {9, p13 + 1, p13 + 2, p13 + 3, p13 + 4, p13 + 5, p13 + 6, p13 + 7, p13 + 8, p13 + 9, p13 + 10, p13 + 11, p13 + 12, p13 + 13, p13 + 14, p13 + 15, p13 + 16, p13 + 17, p13 + 18, p13 + 19, p13 + 20, p13 + 21, p13 + 22, p13 + 23, p13 + 24, p13 + 25, p13 + 26, p13 + 27, p13 + 28, p13 + 29, p13 + 30, p13 + 31, p13 + 32, p13 + 33, p13 + 34, p13 + 35, p13 + 36, p13 + 37, p13 + 38, p13 + 39, 9};
Line(14) = {10, 9};
p15 = newp;
Point(p15 + 1) = {14.33188103490531, -0.09058015344621317, 0};
Point(p15 + 2) = {14.28685773882198, 0.09695537137838289, 0};
Point(p15 + 3) = {14.21305173472334, 0.2751388274578832, 0};
Point(p15 + 4) = {14.11228037137838, 0.4395827467466237, 0};
Point(p15 + 5) = {13.98702497419364, 0.586237974193637, 0};
Point(p15 + 6) = {13.84036974674662, 0.7114933713783829, 0};
Point(p15 + 7) = {13.67592582745788, 0.8122647347233423, 0};
Point(p15 + 8) = {13.49774237137838, 0.8860707388219822, 0};
Point(p15 + 9) = {13.31020684655379, 0.9310940349053096, 0};
Point(p15 + 10) = {13.117937, 0.946226, 0};
Point(p15 + 11) = {12.92566715344621, 0.9310940349053094, 0};
Point(p15 + 12) = {12.73813162862162, 0.8860707388219822, 0};
Point(p15 + 13) = {12.55994817254212, 0.8122647347233425, 0};
Point(p15 + 14) = {12.39550425325338, 0.7114933713783829, 0};
Point(p15 + 15) = {12.24884902580636, 0.5862379741936372, 0};
Point(p15 + 16) = {12.12359362862162, 0.4395827467466238, 0};
Point(p15 + 17) = {12.02282226527666, 0.2751388274578834, 0};
Point(p15 + 18) = {11.94901626117802, 0.096955371378383, 0};
Point(p15 + 19) = {11.90399296509469, -0.09058015344621306, 0};
Point(p15 + 20) = {11.888861, -0.2828499999999998, 0};
Point(p15 + 21) = {11.90399296509469, -0.4751198465537867, 0};
Point(p15 + 22) = {11.94901626117802, -0.6626553713783833, 0};
Point(p15 + 23) = {12.02282226527666, -0.8408388274578826, 0};
Point(p15 + 24) = {12.12359362862162, -1.005282746746624, 0};
Point(p15 + 25) = {12.24884902580636, -1.151937974193637, 0};
Point(p15 + 26) = {12.39550425325338, -1.277193371378383, 0};
Point(p15 + 27) = {12.55994817254212, -1.377964734723342, 0};
Point(p15 + 28) = {12.73813162862162, -1.451770738821982, 0};
Point(p15 + 29) = {12.92566715344621, -1.496794034905309, 0};
Point(p15 + 30) = {13.117937, -1.511926, 0};
Point(p15 + 31) = {13.31020684655379, -1.49679403490531, 0};
Point(p15 + 32) = {13.49774237137838, -1.451770738821982, 0};
Point(p15 + 33) = {13.67592582745788, -1.377964734723343, 0};
Point(p15 + 34) = {13.84036974674662, -1.277193371378383, 0};
Point(p15 + 35) = {13.98702497419364, -1.151937974193637, 0};
Point(p15 + 36) = {14.11228037137838, -1.005282746746624, 0};
Point(p15 + 37) = {14.21305173472334, -0.8408388274578835, 0};
Point(p15 + 38) = {14.28685773882198, -0.6626553713783832, 0};
Point(p15 + 39) = {14.33188103490531, -0.4751198465537871, 0};
Spline(15) = {10, p15 + 1, p15 + 2, p15 + 3, p15 + 4, p15 + 5, p15 + 6, p15 + 7, p15 + 8, p15 + 9, p15 + 10, p15 + 11, p15 + 12, p15 + 13, p15 + 14, p15 + 15, p15 + 16, p15 + 17, p15 + 18, p15 + 19, p15 + 20, p15 + 21, p15 + 22, p15 + 23, p15 + 24, p15 + 25, p15 + 26, p15 + 27, p15 + 28, p15 + 29, p15 + 30, p15 + 31, p15 + 32, p15 + 33, p15 + 34, p15 + 35, p15 + 36, p15 + 37, p15 + 38, p15 + 39, 10};
p16 = newp;
Point(p16 + 1) = {29.93748553478085, -0.2748410974519467, 0.1};
Point(p16 + 2) = {29.88761683740189, -0.06712302372465972, 0.1};
Point(p16 + 3) = {29.80586784069731, 0.1302365128299322, 0.1};
Point(p16 + 4) = {29.69425147627534, 0.312377865423106, 0.1};
Point(p16 + 5) = {29.55551610946153, 0.4748161094615252, 0.1};
Point(p16 + 6) = {29.39307786542311, 0.6135514762753402, 0.1};
Point(p16 + 7) = {29.21093651282993, 0.7251678406973103, 0.1};
Point(p16 + 8) = {29.01357697627534, 0.8069168374018909, 0.1};
Point(p16 + 9) = {28.80585890254805, 0.8567855347808502, 0.1};
Point(p16 + 10) = {28.592897, 0.8735459999999999, 0.1};
Point(p16 + 11) = {28.37993509745195, 0.85678553478085, 0.1};
Point(p16 + 12) = {28.17221702372466, 0.8069168374018911, 0.1};
Point(p16 + 13) = {27.97485748717007, 0.7251678406973103, 0.1};
Point(p16 + 14) = {27.7927161345769, 0.6135514762753402, 0.1};
Point(p16 + 15) = {27.63027789053848, 0.4748161094615253, 0.1};
Point(p16 + 16) = {27.49154252372466, 0.3123778654231061, 0.1};
Point(p16 + 17) = {27.37992615930269, 0.1302365128299323, 0.1};
Point(p16 + 18) = {27.29817716259811, -0.06712302372465961, 0.1};
Point(p16 + 19) = {27.24830846521915, -0.2748410974519466, 0.1};
Point(p16 + 20) = {27.231548, -0.4878029999999998, 0.1};
Point(p16 + 21) = {27.24830846521915, -0.7007649025480531, 0.1};
Point(p16 + 22) = {27.29817716259811, -0.9084829762753407, 0.1};
Point(p16 + 23) = {27.37992615930269, -1.105842512829932, 0.1};
Point(p16 + 24) = {27.49154252372466, -1.287983865423106, 0.1};
Point(p16 + 25) = {27.63027789053848, -1.450422109461525, 0.1};
Point(p16 + 26) = {27.7927161345769, -1.58915747627534, 0.1};
Point(p16 + 27) = {27.97485748717007, -1.70077384069731, 0.1};
Point(p16 + 28) = {28.17221702372466, -1.782522837401891, 0.1};
Point(p16 + 29) = {28.37993509745195, -1.83239153478085, 0.1};
Point(p16 + 30) = {28.592897, -1.849152, 0.1};
Point(p16 + 31) = {28.80585890254805, -1.83239153478085, 0.1};
Point(p16 + 32) = {29.01357697627534, -1.782522837401891, 0.1};
Point(p16 + 33) = {29.21093651282993, -1.700773840697311, 0.1};
Point(p16 + 34) = {29.39307786542311, -1.58915747627534, 0.1};
Point(p16 + 35) = {29.55551610946153, -1.450422109461525, 0.1};
Point(p16 + 36) = {29.69425147627534, -1.287983865423106, 0.1};
Point(p16 + 37) = {29.80586784069731, -1.105842512829933, 0.1};
Point(p16 + 38) = {29.88761683740189, -0.9084829762753406, 0.1};
Point(p16 + 39) = {29.93748553478085, -0.7007649025480536, 0.1};
Spline(16) = {11, p16 + 1, p16 + 2, p16 + 3, p16 + 4, p16 + 5, p16 + 6, p16 + 7, p16 + 8, p16 + 9, p16 + 10, p16 + 11, p16 + 12, p16 + 13, p16 + 14, p16 + 15, p16 + 16, p16 + 17, p16 + 18, p16 + 19, p16 + 20, p16 + 21, p16 + 22, p16 + 23, p16 + 24, p16 + 25, p16 + 26, p16 + 27, p16 + 28, p16 + 29, p16 + 30, p16 + 31, p16 + 32, p16 + 33, p16 + 34, p16 + 35, p16 + 36, p16 + 37, p16 + 38, p16 + 39, 11};
Line(17) = {12, 11};
p18 = newp;
Point(p18 + 1) = {29.93748553478085, -0.2748410974519467, 0};
Point(p18 + 2) = {29.88761683740189, -0.06712302372465972, 0};
Point(p18 + 3) = {29.80586784069731, 0.1302365128299322, 0};
Point(p18 + 4) = {29.69425147627534, 0.312377865423106, 0};
Point(p18 + 5) = {29.55551610946153, 0.4748161094615252, 0};
Point(p18 + 6) = {29.39307786542311, 0.6135514762753402, 0};
Point(p18 + 7) = {29.21093651282993, 0.7251678406973103, 0};
Point(p18 + 8) = {29.01357697627534, 0.8069168374018909, 0};
Point(p18 + 9) = {28.80585890254805, 0.8567855347808502, 0};
Point(p18 + 10) = {28.592897, 0.8735459999999999, 0};
Point(p18 + 11) = {28.37993509745195, 0.85678553478085, 0};
Point(p18 + 12) = {28.17221702372466, 0.8069168374018911, 0};
Point(p18 + 13) = {27.97485748717007, 0.7251678406973103, 0};
Point(p18 + 14) = {27.7927161345769, 0.6135514762753402, 0};
Point(p18 + 15) = {27.63027789053848, 0.4748161094615253, 0};
Point(p18 + 16) = {27.49154252372466, 0.3123778654231061, 0};
Point(p18 + 17) = {27.37992615930269, 0.1302365128299323, 0};
Point(p18 + 18) = {27.29817716259811, -0.06712302372465961, 0};
Point(p18 + 19) = {27.24830846521915, -0.2748410974519466, 0};
Point(p18 + 20) = {27.231548, -0.4878029999999998, 0};
Point(p18 + 21) = {27.24830846521915, -0.7007649025480531, 0};
Point(p18 + 22) = {27.29817716259811, -0.9084829762753407, 0};
Point(p18 + 23) = {27.37992615930269, -1.105842512829932, 0};
Point(p18 + 24) = {27.49154252372466, -1.287983865423106, 0};
Point(p18 + 25) = {27.63027789053848, -1.450422109461525, 0};
Point(p18 + 26) = {27.7927161345769, -1.58915747627534, 0};
Point(p18 + 27) = {27.97485748717007, -1.70077384069731, 0};
Point(p18 + 28) = {28.17221702372466, -1.782522837401891, 0};
Point(p18 + 29) = {28.37993509745195, -1.83239153478085, 0};
Point(p18 + 30) = {28.592897, -1.849152, 0};
Point(p18 + 31) = {28.80585890254805, -1.83239153478085, 0};
Point(p18 + 32) = {29.01357697627534, -1.782522837401891, 0};
Point(p18 + 33) = {29.21093651282993, -1.700773840697311, 0};
Point(p18 + 34) = {29.39307786542311, -1.58915747627534, 0};
Point(p18 + 35) = {29.55551610946153, -1.450422109461525, 0};
Point(p18 + 36) = {29.69425147627534, -1.287983865423106, 0};
Point(p18 + 37) = {29.80586784069731, -1.105842512829933, 0};
Point(p18 + 38) = {29.88761683740189, -0.9084829762753406, 0};
Point(p18 + 39) = {29.93748553478085, -0.7007649025480536, 0};
Spline(18) = {12, p18 + 1, p18 + 2, p18 + 3, p18 + 4, p18 + 5, p18 + 6, p18 + 7, p18 + 8, p18 + 9, p18 + 10, p18 + 11, p18 + 12, p18 + 13, p18 + 14, p18 + 15, p18 + 16, p18 + 17, p18 + 18, p18 + 19, p18 + 20, p18 + 21, p18 + 22, p18 + 23, p18 + 24, p18 + 25, p18 + 26, p18 + 27, p18 + 28, p18 + 29, p18 + 30, p18 + 31, p18 + 32, p18 + 33, p18 + 34, p18 + 35, p18 + 36, p18 + 37, p18 + 38, p18 + 39, 12};
Line(19) = {14, 13};
Line(20) = {13, 15};
Line(21) = {16, 15};
Line(22) = {14, 16};
Line(23) = {14, 17};
Line(24) = {17, 18};
Line(25) = {13, 18};
Line(26) = {15, 19};
Line(27) = {18, 19};
Line(28) = {16, 20};
Line(29) = {20, 19};
Line(30) = {17, 20};
Curve Loop(7) = {-13, -14, 15, 14};
Surface(7) = {7};
Curve Loop(8) = {13};
Plane Surface(8) = {8};
Curve Loop(9) = {15};
Plane Surface(9) = {9};
Curve Loop(10) = {-16, -17, 18, 17};
Surface(10) = {10};
Curve Loop(11) = {16};
Plane Surface(11) = {11};
Curve Loop(12) = {18};
Plane Surface(12) = {12};
Curve Loop(13) = {-19, 22, 21, -20};
Plane Surface(13) = {13};
Curve Loop(14) = {-23, 19, 25, -24};
Plane Surface(14) = {14};
Curve Loop(15) = {-20, 25, 27, -26, -16, -13};
Plane Surface(15) = {15};
Curve Loop(16) = {-28, 21, 26, -29};
Plane Surface(16) = {16};
Curve Loop(17) = {-22, 23, 30, -28, -18, -15};
Plane Surface(17) = {17};
Curve Loop(18) = {-24, 30, 29, -27};
Plane Surface(18) = {18};
Surface Loop(1) = {13, 14, 15, 16, 17, 18, 10, 7};
Volume(1) = {1};
Surface Loop(2) = {7, 8, 9};
Volume(2) = {2};
Surface Loop(3) = {10, 11, 12};
Volume(3) = {3};
Physical Surface("WALLS") = {13, 18};
Physical Surface("LOAD") = {8, 11};
Physical Surface("BORDER") = {7, 9, 10, 12, 14, 15, 16, 17};
Physical Volume("SOLID") = {1, 2, 3};
