cl__1 = 0.129074;
cl__2 = 0.095051;
cl__3 = 0.977847;
cl__4 = 0.954496;
cl__5 = 1.323242;
cl__6 = 0.969798;
Point(9) = {25.364576, 0.9469819999999997, 0.1, cl__1};
Point(10) = {25.364576, 0.9469819999999997, 0, cl__1};
Point(11) = {8.057848, 0.2010559999999998, 0.1, cl__2};
Point(12) = {8.057848, 0.2010559999999998, 0, cl__2};
Point(13) = {0.6294459999999999, -4.39994, 1, cl__3};
Point(14) = {0.6294459999999999, -4.39994, 0, cl__3};
Point(15) = {0.6294459999999999, 4.507159000000001, 1, cl__4};
Point(16) = {0.6294459999999999, 4.507159000000001, 0, cl__4};
Point(17) = {31.491976, -4.39994, 0, cl__5};
Point(18) = {31.491976, -4.39994, 1, cl__5};
Point(19) = {31.491976, 4.507159000000001, 1, cl__6};
Point(20) = {31.491976, 4.507159000000001, 0, cl__6};
p13 = newp;
Point(p13 + 1) = {25.34868483642811, 1.148898377840493, 0.1};
Point(p13 + 2) = {25.30140263889932, 1.345842904336514, 0.1};
Point(p13 + 3) = {25.22389365203742, 1.532966151624322, 0.1};
Point(p13 + 4) = {25.11806640433651, 1.705660524329239, 0.1};
Point(p13 + 5) = {24.9865267138555, 1.859673713855505, 0.1};
Point(p13 + 6) = {24.83251352432924, 1.991213404336514, 0.1};
Point(p13 + 7) = {24.65981915162432, 2.097040652037418, 0.1};
Point(p13 + 8) = {24.47269590433651, 2.174549638899323, 0.1};
Point(p13 + 9) = {24.27575137784049, 2.221831836428109, 0.1};
Point(p13 + 10) = {24.073835, 2.237723, 0.1};
Point(p13 + 11) = {23.87191862215951, 2.221831836428108, 0.1};
Point(p13 + 12) = {23.67497409566349, 2.174549638899323, 0.1};
Point(p13 + 13) = {23.48785084837568, 2.097040652037418, 0.1};
Point(p13 + 14) = {23.31515647567076, 1.991213404336514, 0.1};
Point(p13 + 15) = {23.16114328614449, 1.859673713855506, 0.1};
Point(p13 + 16) = {23.02960359566348, 1.705660524329239, 0.1};
Point(p13 + 17) = {22.92377634796258, 1.532966151624322, 0.1};
Point(p13 + 18) = {22.84626736110068, 1.345842904336514, 0.1};
Point(p13 + 19) = {22.79898516357189, 1.148898377840493, 0.1};
Point(p13 + 20) = {22.783094, 0.9469820000000001, 0.1};
Point(p13 + 21) = {22.79898516357189, 0.7450656221595076, 0.1};
Point(p13 + 22) = {22.84626736110068, 0.5481210956634857, 0.1};
Point(p13 + 23) = {22.92377634796258, 0.3609978483756783, 0.1};
Point(p13 + 24) = {23.02960359566348, 0.1883034756707611, 0.1};
Point(p13 + 25) = {23.16114328614449, 0.03429028614449459, 0.1};
Point(p13 + 26) = {23.31515647567076, -0.09724940433651375, 0.1};
Point(p13 + 27) = {23.48785084837568, -0.2030766520374179, 0.1};
Point(p13 + 28) = {23.67497409566348, -0.2805856388993226, 0.1};
Point(p13 + 29) = {23.87191862215951, -0.3278678364281085, 0.1};
Point(p13 + 30) = {24.073835, -0.3437589999999999, 0.1};
Point(p13 + 31) = {24.27575137784049, -0.3278678364281087, 0.1};
Point(p13 + 32) = {24.47269590433651, -0.2805856388993229, 0.1};
Point(p13 + 33) = {24.65981915162432, -0.2030766520374183, 0.1};
Point(p13 + 34) = {24.83251352432924, -0.09724940433651419, 0.1};
Point(p13 + 35) = {24.9865267138555, 0.03429028614449425, 0.1};
Point(p13 + 36) = {25.11806640433651, 0.1883034756707608, 0.1};
Point(p13 + 37) = {25.22389365203742, 0.3609978483756774, 0.1};
Point(p13 + 38) = {25.30140263889932, 0.5481210956634858, 0.1};
Point(p13 + 39) = {25.34868483642811, 0.7450656221595071, 0.1};
Spline(13) = {9, p13 + 1, p13 + 2, p13 + 3, p13 + 4, p13 + 5, p13 + 6, p13 + 7, p13 + 8, p13 + 9, p13 + 10, p13 + 11, p13 + 12, p13 + 13, p13 + 14, p13 + 15, p13 + 16, p13 + 17, p13 + 18, p13 + 19, p13 + 20, p13 + 21, p13 + 22, p13 + 23, p13 + 24, p13 + 25, p13 + 26, p13 + 27, p13 + 28, p13 + 29, p13 + 30, p13 + 31, p13 + 32, p13 + 33, p13 + 34, p13 + 35, p13 + 36, p13 + 37, p13 + 38, p13 + 39, 9};
Line(14) = {10, 9};
p15 = newp;
Point(p15 + 1) = {25.34868483642811, 1.148898377840493, 0};
Point(p15 + 2) = {25.30140263889932, 1.345842904336514, 0};
Point(p15 + 3) = {25.22389365203742, 1.532966151624322, 0};
Point(p15 + 4) = {25.11806640433651, 1.705660524329239, 0};
Point(p15 + 5) = {24.9865267138555, 1.859673713855505, 0};
Point(p15 + 6) = {24.83251352432924, 1.991213404336514, 0};
Point(p15 + 7) = {24.65981915162432, 2.097040652037418, 0};
Point(p15 + 8) = {24.47269590433651, 2.174549638899323, 0};
Point(p15 + 9) = {24.27575137784049, 2.221831836428109, 0};
Point(p15 + 10) = {24.073835, 2.237723, 0};
Point(p15 + 11) = {23.87191862215951, 2.221831836428108, 0};
Point(p15 + 12) = {23.67497409566349, 2.174549638899323, 0};
Point(p15 + 13) = {23.48785084837568, 2.097040652037418, 0};
Point(p15 + 14) = {23.31515647567076, 1.991213404336514, 0};
Point(p15 + 15) = {23.16114328614449, 1.859673713855506, 0};
Point(p15 + 16) = {23.02960359566348, 1.705660524329239, 0};
Point(p15 + 17) = {22.92377634796258, 1.532966151624322, 0};
Point(p15 + 18) = {22.84626736110068, 1.345842904336514, 0};
Point(p15 + 19) = {22.79898516357189, 1.148898377840493, 0};
Point(p15 + 20) = {22.783094, 0.9469820000000001, 0};
Point(p15 + 21) = {22.79898516357189, 0.7450656221595076, 0};
Point(p15 + 22) = {22.84626736110068, 0.5481210956634857, 0};
Point(p15 + 23) = {22.92377634796258, 0.3609978483756783, 0};
Point(p15 + 24) = {23.02960359566348, 0.1883034756707611, 0};
Point(p15 + 25) = {23.16114328614449, 0.03429028614449459, 0};
Point(p15 + 26) = {23.31515647567076, -0.09724940433651375, 0};
Point(p15 + 27) = {23.48785084837568, -0.2030766520374179, 0};
Point(p15 + 28) = {23.67497409566348, -0.2805856388993226, 0};
Point(p15 + 29) = {23.87191862215951, -0.3278678364281085, 0};
Point(p15 + 30) = {24.073835, -0.3437589999999999, 0};
Point(p15 + 31) = {24.27575137784049, -0.3278678364281087, 0};
Point(p15 + 32) = {24.47269590433651, -0.2805856388993229, 0};
Point(p15 + 33) = {24.65981915162432, -0.2030766520374183, 0};
Point(p15 + 34) = {24.83251352432924, -0.09724940433651419, 0};
Point(p15 + 35) = {24.9865267138555, 0.03429028614449425, 0};
Point(p15 + 36) = {25.11806640433651, 0.1883034756707608, 0};
Point(p15 + 37) = {25.22389365203742, 0.3609978483756774, 0};
Point(p15 + 38) = {25.30140263889932, 0.5481210956634858, 0};
Point(p15 + 39) = {25.34868483642811, 0.7450656221595071, 0};
Spline(15) = {10, p15 + 1, p15 + 2, p15 + 3, p15 + 4, p15 + 5, p15 + 6, p15 + 7, p15 + 8, p15 + 9, p15 + 10, p15 + 11, p15 + 12, p15 + 13, p15 + 14, p15 + 15, p15 + 16, p15 + 17, p15 + 18, p15 + 19, p15 + 20, p15 + 21, p15 + 22, p15 + 23, p15 + 24, p15 + 25, p15 + 26, p15 + 27, p15 + 28, p15 + 29, p15 + 30, p15 + 31, p15 + 32, p15 + 33, p15 + 34, p15 + 35, p15 + 36, p15 + 37, p15 + 38, p15 + 39, 10};
p16 = newp;
Point(p16 + 1) = {8.046145595372447, 0.34974914910325, 0.1};
Point(p16 + 2) = {8.011326533529772, 0.4947809793913088, 0.1};
Point(p16 + 3) = {7.954248175332382, 0.6325803258694356, 0.1};
Point(p16 + 4) = {7.876315979391308, 0.7597541112975278, 0.1};
Point(p16 + 5) = {7.77944889501275, 0.8731708950127499, 0.1};
Point(p16 + 6) = {7.666032111297528, 0.9700379793913086, 0.1};
Point(p16 + 7) = {7.538858325869436, 1.047970175332382, 0.1};
Point(p16 + 8) = {7.401058979391308, 1.105048533529772, 0.1};
Point(p16 + 9) = {7.25602714910325, 1.139867595372447, 0.1};
Point(p16 + 10) = {7.107334, 1.15157, 0.1};
Point(p16 + 11) = {6.958640850896749, 1.139867595372447, 0.1};
Point(p16 + 12) = {6.813609020608691, 1.105048533529772, 0.1};
Point(p16 + 13) = {6.675809674130564, 1.047970175332382, 0.1};
Point(p16 + 14) = {6.548635888702472, 0.9700379793913088, 0.1};
Point(p16 + 15) = {6.43521910498725, 0.87317089501275, 0.1};
Point(p16 + 16) = {6.338352020608691, 0.7597541112975279, 0.1};
Point(p16 + 17) = {6.260419824667617, 0.6325803258694356, 0.1};
Point(p16 + 18) = {6.203341466470229, 0.4947809793913089, 0.1};
Point(p16 + 19) = {6.168522404627553, 0.3497491491032501, 0.1};
Point(p16 + 20) = {6.15682, 0.2010560000000001, 0.1};
Point(p16 + 21) = {6.168522404627553, 0.05236285089675011, 0.1};
Point(p16 + 22) = {6.203341466470229, -0.09266897939130903, 0.1};
Point(p16 + 23) = {6.260419824667617, -0.2304683258694351, 0.1};
Point(p16 + 24) = {6.338352020608691, -0.3576421112975277, 0.1};
Point(p16 + 25) = {6.43521910498725, -0.4710588950127499, 0.1};
Point(p16 + 26) = {6.548635888702472, -0.5679259793913086, 0.1};
Point(p16 + 27) = {6.675809674130564, -0.6458581753323822, 0.1};
Point(p16 + 28) = {6.813609020608691, -0.7029365335297715, 0.1};
Point(p16 + 29) = {6.958640850896749, -0.7377555953724466, 0.1};
Point(p16 + 30) = {7.107334, -0.749458, 0.1};
Point(p16 + 31) = {7.256027149103249, -0.7377555953724467, 0.1};
Point(p16 + 32) = {7.401058979391308, -0.7029365335297716, 0.1};
Point(p16 + 33) = {7.538858325869435, -0.6458581753323824, 0.1};
Point(p16 + 34) = {7.666032111297527, -0.5679259793913088, 0.1};
Point(p16 + 35) = {7.77944889501275, -0.4710588950127501, 0.1};
Point(p16 + 36) = {7.876315979391308, -0.3576421112975279, 0.1};
Point(p16 + 37) = {7.954248175332382, -0.2304683258694357, 0.1};
Point(p16 + 38) = {8.011326533529772, -0.09266897939130891, 0.1};
Point(p16 + 39) = {8.046145595372446, 0.05236285089674977, 0.1};
Spline(16) = {11, p16 + 1, p16 + 2, p16 + 3, p16 + 4, p16 + 5, p16 + 6, p16 + 7, p16 + 8, p16 + 9, p16 + 10, p16 + 11, p16 + 12, p16 + 13, p16 + 14, p16 + 15, p16 + 16, p16 + 17, p16 + 18, p16 + 19, p16 + 20, p16 + 21, p16 + 22, p16 + 23, p16 + 24, p16 + 25, p16 + 26, p16 + 27, p16 + 28, p16 + 29, p16 + 30, p16 + 31, p16 + 32, p16 + 33, p16 + 34, p16 + 35, p16 + 36, p16 + 37, p16 + 38, p16 + 39, 11};
Line(17) = {12, 11};
p18 = newp;
Point(p18 + 1) = {8.046145595372447, 0.34974914910325, 0};
Point(p18 + 2) = {8.011326533529772, 0.4947809793913088, 0};
Point(p18 + 3) = {7.954248175332382, 0.6325803258694356, 0};
Point(p18 + 4) = {7.876315979391308, 0.7597541112975278, 0};
Point(p18 + 5) = {7.77944889501275, 0.8731708950127499, 0};
Point(p18 + 6) = {7.666032111297528, 0.9700379793913086, 0};
Point(p18 + 7) = {7.538858325869436, 1.047970175332382, 0};
Point(p18 + 8) = {7.401058979391308, 1.105048533529772, 0};
Point(p18 + 9) = {7.25602714910325, 1.139867595372447, 0};
Point(p18 + 10) = {7.107334, 1.15157, 0};
Point(p18 + 11) = {6.958640850896749, 1.139867595372447, 0};
Point(p18 + 12) = {6.813609020608691, 1.105048533529772, 0};
Point(p18 + 13) = {6.675809674130564, 1.047970175332382, 0};
Point(p18 + 14) = {6.548635888702472, 0.9700379793913088, 0};
Point(p18 + 15) = {6.43521910498725, 0.87317089501275, 0};
Point(p18 + 16) = {6.338352020608691, 0.7597541112975279, 0};
Point(p18 + 17) = {6.260419824667617, 0.6325803258694356, 0};
Point(p18 + 18) = {6.203341466470229, 0.4947809793913089, 0};
Point(p18 + 19) = {6.168522404627553, 0.3497491491032501, 0};
Point(p18 + 20) = {6.15682, 0.2010560000000001, 0};
Point(p18 + 21) = {6.168522404627553, 0.05236285089675011, 0};
Point(p18 + 22) = {6.203341466470229, -0.09266897939130903, 0};
Point(p18 + 23) = {6.260419824667617, -0.2304683258694351, 0};
Point(p18 + 24) = {6.338352020608691, -0.3576421112975277, 0};
Point(p18 + 25) = {6.43521910498725, -0.4710588950127499, 0};
Point(p18 + 26) = {6.548635888702472, -0.5679259793913086, 0};
Point(p18 + 27) = {6.675809674130564, -0.6458581753323822, 0};
Point(p18 + 28) = {6.813609020608691, -0.7029365335297715, 0};
Point(p18 + 29) = {6.958640850896749, -0.7377555953724466, 0};
Point(p18 + 30) = {7.107334, -0.749458, 0};
Point(p18 + 31) = {7.256027149103249, -0.7377555953724467, 0};
Point(p18 + 32) = {7.401058979391308, -0.7029365335297716, 0};
Point(p18 + 33) = {7.538858325869435, -0.6458581753323824, 0};
Point(p18 + 34) = {7.666032111297527, -0.5679259793913088, 0};
Point(p18 + 35) = {7.77944889501275, -0.4710588950127501, 0};
Point(p18 + 36) = {7.876315979391308, -0.3576421112975279, 0};
Point(p18 + 37) = {7.954248175332382, -0.2304683258694357, 0};
Point(p18 + 38) = {8.011326533529772, -0.09266897939130891, 0};
Point(p18 + 39) = {8.046145595372446, 0.05236285089674977, 0};
Spline(18) = {12, p18 + 1, p18 + 2, p18 + 3, p18 + 4, p18 + 5, p18 + 6, p18 + 7, p18 + 8, p18 + 9, p18 + 10, p18 + 11, p18 + 12, p18 + 13, p18 + 14, p18 + 15, p18 + 16, p18 + 17, p18 + 18, p18 + 19, p18 + 20, p18 + 21, p18 + 22, p18 + 23, p18 + 24, p18 + 25, p18 + 26, p18 + 27, p18 + 28, p18 + 29, p18 + 30, p18 + 31, p18 + 32, p18 + 33, p18 + 34, p18 + 35, p18 + 36, p18 + 37, p18 + 38, p18 + 39, 12};
Line(19) = {14, 13};
Line(20) = {13, 15};
Line(21) = {16, 15};
Line(22) = {14, 16};
Line(23) = {14, 17};
Line(24) = {17, 18};
Line(25) = {13, 18};
Line(26) = {15, 19};
Line(27) = {18, 19};
Line(28) = {16, 20};
Line(29) = {20, 19};
Line(30) = {17, 20};
Curve Loop(7) = {-13, -14, 15, 14};
Surface(7) = {7};
Curve Loop(8) = {13};
Plane Surface(8) = {8};
Curve Loop(9) = {15};
Plane Surface(9) = {9};
Curve Loop(10) = {-16, -17, 18, 17};
Surface(10) = {10};
Curve Loop(11) = {16};
Plane Surface(11) = {11};
Curve Loop(12) = {18};
Plane Surface(12) = {12};
Curve Loop(13) = {-19, 22, 21, -20};
Plane Surface(13) = {13};
Curve Loop(14) = {-23, 19, 25, -24};
Plane Surface(14) = {14};
Curve Loop(15) = {-20, 25, 27, -26};
Plane Surface(15) = {15};
Curve Loop(16) = {-28, 21, 26, -29};
Plane Surface(16) = {16};
Curve Loop(17) = {-22, 23, 30, -28, -18, -15};
Plane Surface(17) = {17};
Curve Loop(18) = {-24, 30, 29, -27};
Plane Surface(18) = {18};
Surface Loop(1) = {13, 14, 15, 16, 17, 18, 10, 7, 11, 8};
Volume(1) = {1};
Surface Loop(2) = {7, 8, 9};
Volume(2) = {2};
Surface Loop(3) = {10, 11, 12};
Volume(3) = {3};
Physical Surface("WALLS") = {13, 18};
Physical Surface("LOAD") = {8, 11};
Physical Surface("BORDER") = {7, 9, 10, 12, 14, 15, 16, 17};
Physical Volume("SOLID") = {1, 2, 3};
