cl__1 = 0.134584;
cl__2 = 0.059358;
cl__3 = 2.702297;
cl__4 = 2.736239;
cl__5 = 0.380761;
cl__6 = 0.827688;
Point(9) = {17.631657, -0.06501400000000034, 0.1, cl__1};
Point(10) = {17.631657, -0.06501400000000034, 0, cl__1};
Point(11) = {29.690556, -3.489694, 0.1, cl__2};
Point(12) = {29.690556, -3.489694, 0, cl__2};
Point(13) = {0.927206, -4.595495, 0.1, cl__3};
Point(14) = {0.927206, -4.595495, 0, cl__3};
Point(15) = {0.927206, 4.677078, 0.1, cl__4};
Point(16) = {0.927206, 4.677078, 0, cl__4};
Point(17) = {33.56520099999999, -4.595495, 0, cl__5};
Point(18) = {33.56520099999999, -4.595495, 0.1, cl__5};
Point(19) = {33.56520099999999, 4.677078, 0.1, cl__6};
Point(20) = {33.56520099999999, 4.677078, 0, cl__6};
p13 = newp;
Point(p13 + 1) = {17.61508750092988, 0.1455214475608143, 0.1};
Point(p13 + 2) = {17.56578699977764, 0.3508728136755905, 0.1};
Point(p13 + 3) = {17.48496943850062, 0.5459836661884722, 0.1};
Point(p13 + 4) = {17.37462481367559, 0.7260497283747975, 0.1};
Point(p13 + 5) = {17.23747017617854, 0.8866371761785408, 0.1};
Point(p13 + 6) = {17.0768827283748, 1.023791813675591, 0.1};
Point(p13 + 7) = {16.89681666618847, 1.134136438500625, 0.1};
Point(p13 + 8) = {16.70170581367559, 1.214953999777637, 0.1};
Point(p13 + 9) = {16.49635444756082, 1.264254500929879, 0.1};
Point(p13 + 10) = {16.285819, 1.280824, 0.1};
Point(p13 + 11) = {16.07528355243918, 1.264254500929879, 0.1};
Point(p13 + 12) = {15.86993218632441, 1.214953999777637, 0.1};
Point(p13 + 13) = {15.67482133381153, 1.134136438500625, 0.1};
Point(p13 + 14) = {15.4947552716252, 1.023791813675591, 0.1};
Point(p13 + 15) = {15.33416782382146, 0.8866371761785409, 0.1};
Point(p13 + 16) = {15.19701318632441, 0.7260497283747976, 0.1};
Point(p13 + 17) = {15.08666856149938, 0.5459836661884723, 0.1};
Point(p13 + 18) = {15.00585100022236, 0.3508728136755906, 0.1};
Point(p13 + 19) = {14.95655049907012, 0.1455214475608144, 0.1};
Point(p13 + 20) = {14.939981, -0.06501399999999984, 0.1};
Point(p13 + 21) = {14.95655049907012, -0.2755494475608141, 0.1};
Point(p13 + 22) = {15.00585100022236, -0.480900813675591, 0.1};
Point(p13 + 23) = {15.08666856149937, -0.6760116661884715, 0.1};
Point(p13 + 24) = {15.19701318632441, -0.8560777283747973, 0.1};
Point(p13 + 25) = {15.33416782382146, -1.016665176178541, 0.1};
Point(p13 + 26) = {15.4947552716252, -1.15381981367559, 0.1};
Point(p13 + 27) = {15.67482133381153, -1.264164438500625, 0.1};
Point(p13 + 28) = {15.86993218632441, -1.344981999777637, 0.1};
Point(p13 + 29) = {16.07528355243918, -1.394282500929879, 0.1};
Point(p13 + 30) = {16.285819, -1.410852, 0.1};
Point(p13 + 31) = {16.49635444756082, -1.394282500929879, 0.1};
Point(p13 + 32) = {16.70170581367559, -1.344981999777637, 0.1};
Point(p13 + 33) = {16.89681666618847, -1.264164438500625, 0.1};
Point(p13 + 34) = {17.0768827283748, -1.153819813675591, 0.1};
Point(p13 + 35) = {17.23747017617854, -1.016665176178541, 0.1};
Point(p13 + 36) = {17.37462481367559, -0.8560777283747977, 0.1};
Point(p13 + 37) = {17.48496943850062, -0.6760116661884725, 0.1};
Point(p13 + 38) = {17.56578699977764, -0.4809008136755908, 0.1};
Point(p13 + 39) = {17.61508750092988, -0.2755494475608146, 0.1};
Spline(13) = {9, p13 + 1, p13 + 2, p13 + 3, p13 + 4, p13 + 5, p13 + 6, p13 + 7, p13 + 8, p13 + 9, p13 + 10, p13 + 11, p13 + 12, p13 + 13, p13 + 14, p13 + 15, p13 + 16, p13 + 17, p13 + 18, p13 + 19, p13 + 20, p13 + 21, p13 + 22, p13 + 23, p13 + 24, p13 + 25, p13 + 26, p13 + 27, p13 + 28, p13 + 29, p13 + 30, p13 + 31, p13 + 32, p13 + 33, p13 + 34, p13 + 35, p13 + 36, p13 + 37, p13 + 38, p13 + 39, 9};
Line(14) = {10, 9};
p15 = newp;
Point(p15 + 1) = {17.61508750092988, 0.1455214475608143, 0};
Point(p15 + 2) = {17.56578699977764, 0.3508728136755905, 0};
Point(p15 + 3) = {17.48496943850062, 0.5459836661884722, 0};
Point(p15 + 4) = {17.37462481367559, 0.7260497283747975, 0};
Point(p15 + 5) = {17.23747017617854, 0.8866371761785408, 0};
Point(p15 + 6) = {17.0768827283748, 1.023791813675591, 0};
Point(p15 + 7) = {16.89681666618847, 1.134136438500625, 0};
Point(p15 + 8) = {16.70170581367559, 1.214953999777637, 0};
Point(p15 + 9) = {16.49635444756082, 1.264254500929879, 0};
Point(p15 + 10) = {16.285819, 1.280824, 0};
Point(p15 + 11) = {16.07528355243918, 1.264254500929879, 0};
Point(p15 + 12) = {15.86993218632441, 1.214953999777637, 0};
Point(p15 + 13) = {15.67482133381153, 1.134136438500625, 0};
Point(p15 + 14) = {15.4947552716252, 1.023791813675591, 0};
Point(p15 + 15) = {15.33416782382146, 0.8866371761785409, 0};
Point(p15 + 16) = {15.19701318632441, 0.7260497283747976, 0};
Point(p15 + 17) = {15.08666856149938, 0.5459836661884723, 0};
Point(p15 + 18) = {15.00585100022236, 0.3508728136755906, 0};
Point(p15 + 19) = {14.95655049907012, 0.1455214475608144, 0};
Point(p15 + 20) = {14.939981, -0.06501399999999984, 0};
Point(p15 + 21) = {14.95655049907012, -0.2755494475608141, 0};
Point(p15 + 22) = {15.00585100022236, -0.480900813675591, 0};
Point(p15 + 23) = {15.08666856149937, -0.6760116661884715, 0};
Point(p15 + 24) = {15.19701318632441, -0.8560777283747973, 0};
Point(p15 + 25) = {15.33416782382146, -1.016665176178541, 0};
Point(p15 + 26) = {15.4947552716252, -1.15381981367559, 0};
Point(p15 + 27) = {15.67482133381153, -1.264164438500625, 0};
Point(p15 + 28) = {15.86993218632441, -1.344981999777637, 0};
Point(p15 + 29) = {16.07528355243918, -1.394282500929879, 0};
Point(p15 + 30) = {16.285819, -1.410852, 0};
Point(p15 + 31) = {16.49635444756082, -1.394282500929879, 0};
Point(p15 + 32) = {16.70170581367559, -1.344981999777637, 0};
Point(p15 + 33) = {16.89681666618847, -1.264164438500625, 0};
Point(p15 + 34) = {17.0768827283748, -1.153819813675591, 0};
Point(p15 + 35) = {17.23747017617854, -1.016665176178541, 0};
Point(p15 + 36) = {17.37462481367559, -0.8560777283747977, 0};
Point(p15 + 37) = {17.48496943850062, -0.6760116661884725, 0};
Point(p15 + 38) = {17.56578699977764, -0.4809008136755908, 0};
Point(p15 + 39) = {17.61508750092988, -0.2755494475608146, 0};
Spline(15) = {10, p15 + 1, p15 + 2, p15 + 3, p15 + 4, p15 + 5, p15 + 6, p15 + 7, p15 + 8, p15 + 9, p15 + 10, p15 + 11, p15 + 12, p15 + 13, p15 + 14, p15 + 15, p15 + 16, p15 + 17, p15 + 18, p15 + 19, p15 + 20, p15 + 21, p15 + 22, p15 + 23, p15 + 24, p15 + 25, p15 + 26, p15 + 27, p15 + 28, p15 + 29, p15 + 30, p15 + 31, p15 + 32, p15 + 33, p15 + 34, p15 + 35, p15 + 36, p15 + 37, p15 + 38, p15 + 39, 10};
p16 = newp;
Point(p16 + 1) = {29.68324806983378, -3.39683794311035, 0.1};
Point(p16 + 2) = {29.66150422482944, -3.306268310512908, 0.1};
Point(p16 + 3) = {29.62585987061468, -3.220215227145599, 0.1};
Point(p16 + 4) = {29.57719268948709, -3.140797605514738, 0.1};
Point(p16 + 5) = {29.51670102896315, -3.069970971036851, 0.1};
Point(p16 + 6) = {29.44587439448526, -3.009479310512908, 0.1};
Point(p16 + 7) = {29.3664567728544, -2.960812129385317, 0.1};
Point(p16 + 8) = {29.28040368948709, -2.925167775170555, 0.1};
Point(p16 + 9) = {29.18983405688965, -2.903423930166219, 0.1};
Point(p16 + 10) = {29.096978, -2.896116, 0.1};
Point(p16 + 11) = {29.00412194311035, -2.903423930166219, 0.1};
Point(p16 + 12) = {28.91355231051291, -2.925167775170555, 0.1};
Point(p16 + 13) = {28.8274992271456, -2.960812129385317, 0.1};
Point(p16 + 14) = {28.74808160551474, -3.009479310512908, 0.1};
Point(p16 + 15) = {28.67725497103685, -3.069970971036851, 0.1};
Point(p16 + 16) = {28.61676331051291, -3.140797605514738, 0.1};
Point(p16 + 17) = {28.56809612938532, -3.220215227145599, 0.1};
Point(p16 + 18) = {28.53245177517056, -3.306268310512908, 0.1};
Point(p16 + 19) = {28.51070793016622, -3.39683794311035, 0.1};
Point(p16 + 20) = {28.5034, -3.489694, 0.1};
Point(p16 + 21) = {28.51070793016622, -3.58255005688965, 0.1};
Point(p16 + 22) = {28.53245177517056, -3.673119689487093, 0.1};
Point(p16 + 23) = {28.56809612938532, -3.7591727728544, 0.1};
Point(p16 + 24) = {28.61676331051291, -3.838590394485262, 0.1};
Point(p16 + 25) = {28.67725497103685, -3.909417028963149, 0.1};
Point(p16 + 26) = {28.74808160551474, -3.969908689487093, 0.1};
Point(p16 + 27) = {28.8274992271456, -4.018575870614683, 0.1};
Point(p16 + 28) = {28.91355231051291, -4.054220224829445, 0.1};
Point(p16 + 29) = {29.00412194311035, -4.07596406983378, 0.1};
Point(p16 + 30) = {29.096978, -4.083272, 0.1};
Point(p16 + 31) = {29.18983405688965, -4.07596406983378, 0.1};
Point(p16 + 32) = {29.28040368948709, -4.054220224829445, 0.1};
Point(p16 + 33) = {29.3664567728544, -4.018575870614683, 0.1};
Point(p16 + 34) = {29.44587439448526, -3.969908689487093, 0.1};
Point(p16 + 35) = {29.51670102896315, -3.909417028963149, 0.1};
Point(p16 + 36) = {29.57719268948709, -3.838590394485262, 0.1};
Point(p16 + 37) = {29.62585987061468, -3.759172772854401, 0.1};
Point(p16 + 38) = {29.66150422482944, -3.673119689487093, 0.1};
Point(p16 + 39) = {29.68324806983378, -3.58255005688965, 0.1};
Spline(16) = {11, p16 + 1, p16 + 2, p16 + 3, p16 + 4, p16 + 5, p16 + 6, p16 + 7, p16 + 8, p16 + 9, p16 + 10, p16 + 11, p16 + 12, p16 + 13, p16 + 14, p16 + 15, p16 + 16, p16 + 17, p16 + 18, p16 + 19, p16 + 20, p16 + 21, p16 + 22, p16 + 23, p16 + 24, p16 + 25, p16 + 26, p16 + 27, p16 + 28, p16 + 29, p16 + 30, p16 + 31, p16 + 32, p16 + 33, p16 + 34, p16 + 35, p16 + 36, p16 + 37, p16 + 38, p16 + 39, 11};
Line(17) = {12, 11};
p18 = newp;
Point(p18 + 1) = {29.68324806983378, -3.39683794311035, 0};
Point(p18 + 2) = {29.66150422482944, -3.306268310512908, 0};
Point(p18 + 3) = {29.62585987061468, -3.220215227145599, 0};
Point(p18 + 4) = {29.57719268948709, -3.140797605514738, 0};
Point(p18 + 5) = {29.51670102896315, -3.069970971036851, 0};
Point(p18 + 6) = {29.44587439448526, -3.009479310512908, 0};
Point(p18 + 7) = {29.3664567728544, -2.960812129385317, 0};
Point(p18 + 8) = {29.28040368948709, -2.925167775170555, 0};
Point(p18 + 9) = {29.18983405688965, -2.903423930166219, 0};
Point(p18 + 10) = {29.096978, -2.896116, 0};
Point(p18 + 11) = {29.00412194311035, -2.903423930166219, 0};
Point(p18 + 12) = {28.91355231051291, -2.925167775170555, 0};
Point(p18 + 13) = {28.8274992271456, -2.960812129385317, 0};
Point(p18 + 14) = {28.74808160551474, -3.009479310512908, 0};
Point(p18 + 15) = {28.67725497103685, -3.069970971036851, 0};
Point(p18 + 16) = {28.61676331051291, -3.140797605514738, 0};
Point(p18 + 17) = {28.56809612938532, -3.220215227145599, 0};
Point(p18 + 18) = {28.53245177517056, -3.306268310512908, 0};
Point(p18 + 19) = {28.51070793016622, -3.39683794311035, 0};
Point(p18 + 20) = {28.5034, -3.489694, 0};
Point(p18 + 21) = {28.51070793016622, -3.58255005688965, 0};
Point(p18 + 22) = {28.53245177517056, -3.673119689487093, 0};
Point(p18 + 23) = {28.56809612938532, -3.7591727728544, 0};
Point(p18 + 24) = {28.61676331051291, -3.838590394485262, 0};
Point(p18 + 25) = {28.67725497103685, -3.909417028963149, 0};
Point(p18 + 26) = {28.74808160551474, -3.969908689487093, 0};
Point(p18 + 27) = {28.8274992271456, -4.018575870614683, 0};
Point(p18 + 28) = {28.91355231051291, -4.054220224829445, 0};
Point(p18 + 29) = {29.00412194311035, -4.07596406983378, 0};
Point(p18 + 30) = {29.096978, -4.083272, 0};
Point(p18 + 31) = {29.18983405688965, -4.07596406983378, 0};
Point(p18 + 32) = {29.28040368948709, -4.054220224829445, 0};
Point(p18 + 33) = {29.3664567728544, -4.018575870614683, 0};
Point(p18 + 34) = {29.44587439448526, -3.969908689487093, 0};
Point(p18 + 35) = {29.51670102896315, -3.909417028963149, 0};
Point(p18 + 36) = {29.57719268948709, -3.838590394485262, 0};
Point(p18 + 37) = {29.62585987061468, -3.759172772854401, 0};
Point(p18 + 38) = {29.66150422482944, -3.673119689487093, 0};
Point(p18 + 39) = {29.68324806983378, -3.58255005688965, 0};
Spline(18) = {12, p18 + 1, p18 + 2, p18 + 3, p18 + 4, p18 + 5, p18 + 6, p18 + 7, p18 + 8, p18 + 9, p18 + 10, p18 + 11, p18 + 12, p18 + 13, p18 + 14, p18 + 15, p18 + 16, p18 + 17, p18 + 18, p18 + 19, p18 + 20, p18 + 21, p18 + 22, p18 + 23, p18 + 24, p18 + 25, p18 + 26, p18 + 27, p18 + 28, p18 + 29, p18 + 30, p18 + 31, p18 + 32, p18 + 33, p18 + 34, p18 + 35, p18 + 36, p18 + 37, p18 + 38, p18 + 39, 12};
Line(19) = {14, 13};
Line(20) = {13, 15};
Line(21) = {16, 15};
Line(22) = {14, 16};
Line(23) = {14, 17};
Line(24) = {17, 18};
Line(25) = {13, 18};
Line(26) = {15, 19};
Line(27) = {18, 19};
Line(28) = {16, 20};
Line(29) = {20, 19};
Line(30) = {17, 20};
Curve Loop(7) = {-13, -14, 15, 14};
Surface(7) = {7};
Curve Loop(8) = {13};
Plane Surface(8) = {8};
Curve Loop(9) = {15};
Plane Surface(9) = {9};
Curve Loop(10) = {-16, -17, 18, 17};
Surface(10) = {10};
Curve Loop(11) = {16};
Plane Surface(11) = {11};
Curve Loop(12) = {18};
Plane Surface(12) = {12};
Curve Loop(13) = {-19, 22, 21, -20};
Plane Surface(13) = {13};
Curve Loop(14) = {-23, 19, 25, -24};
Plane Surface(14) = {14};
Curve Loop(15) = {-20, 25, 27, -26, -16, -13};
Plane Surface(15) = {15};
Curve Loop(16) = {-28, 21, 26, -29};
Plane Surface(16) = {16};
Curve Loop(17) = {-22, 23, 30, -28, -18, -15};
Plane Surface(17) = {17};
Curve Loop(18) = {-24, 30, 29, -27};
Plane Surface(18) = {18};
Surface Loop(1) = {13, 14, 15, 16, 17, 18, 10, 7};
Volume(1) = {1};
Surface Loop(2) = {7, 8, 9};
Volume(2) = {2};
Surface Loop(3) = {10, 11, 12};
Volume(3) = {3};
Physical Surface("WALLS") = {13, 18};
Physical Surface("LOAD") = {8, 11};
Physical Surface("BORDER") = {7, 9, 10, 12, 14, 15, 16, 17};
Physical Volume("SOLID") = {1, 2, 3};
