cl__1 = 0.057684;
cl__2 = 0.138737;
cl__3 = 2.679857;
cl__4 = 2.898853;
cl__5 = 0.649529;
cl__6 = 0.5356109999999999;
Point(9) = {18.661077, -0.7331600000000001, 0.1, cl__1};
Point(10) = {18.661077, -0.7331600000000001, 0, cl__1};
Point(11) = {25.727903, 1.551814, 0.1, cl__2};
Point(12) = {25.727903, 1.551814, 0, cl__2};
Point(13) = {0.868173, -4.205267, 1, cl__3};
Point(14) = {0.868173, -4.205267, 0, cl__3};
Point(15) = {0.868173, 4.566577, 1, cl__4};
Point(16) = {0.868173, 4.566577, 0, cl__4};
Point(17) = {31.68295, -4.205267, 0, cl__5};
Point(18) = {31.68295, -4.205267, 1, cl__5};
Point(19) = {31.68295, 4.566577, 1, cl__6};
Point(20) = {31.68295, 4.566577, 0, cl__6};
p13 = newp;
Point(p13 + 1) = {18.6539752039472, -0.6429231253585185, 0.1};
Point(p13 + 2) = {18.63284468557712, -0.5549081820497272, 0.1};
Point(p13 + 3) = {18.5982057483802, -0.4712823900827386, 0.1};
Point(p13 + 4) = {18.55091131795027, -0.3941048939938713, 0.1};
Point(p13 + 5) = {18.49212594012574, -0.325276059874258, 0.1};
Point(p13 + 6) = {18.42329710600613, -0.2664906820497273, 0.1};
Point(p13 + 7) = {18.34611960991726, -0.2191962516198029, 0.1};
Point(p13 + 8) = {18.26249381795027, -0.1845573144228851, 0.1};
Point(p13 + 9) = {18.17447887464148, -0.1634267960528037, 0.1};
Point(p13 + 10) = {18.084242, -0.156325, 0.1};
Point(p13 + 11) = {17.99400512535852, -0.1634267960528039, 0.1};
Point(p13 + 12) = {17.90599018204973, -0.1845573144228851, 0.1};
Point(p13 + 13) = {17.82236439008274, -0.2191962516198028, 0.1};
Point(p13 + 14) = {17.74518689399387, -0.2664906820497273, 0.1};
Point(p13 + 15) = {17.67635805987426, -0.3252760598742579, 0.1};
Point(p13 + 16) = {17.61757268204973, -0.3941048939938712, 0.1};
Point(p13 + 17) = {17.5702782516198, -0.4712823900827385, 0.1};
Point(p13 + 18) = {17.53563931442288, -0.5549081820497272, 0.1};
Point(p13 + 19) = {17.51450879605281, -0.6429231253585184, 0.1};
Point(p13 + 20) = {17.507407, -0.7331599999999999, 0.1};
Point(p13 + 21) = {17.5145087960528, -0.8233968746414815, 0.1};
Point(p13 + 22) = {17.53563931442288, -0.911411817950273, 0.1};
Point(p13 + 23) = {17.5702782516198, -0.9950376099172612, 0.1};
Point(p13 + 24) = {17.61757268204973, -1.072215106006129, 0.1};
Point(p13 + 25) = {17.67635805987426, -1.141043940125742, 0.1};
Point(p13 + 26) = {17.74518689399387, -1.199829317950273, 0.1};
Point(p13 + 27) = {17.82236439008274, -1.247123748380197, 0.1};
Point(p13 + 28) = {17.90599018204973, -1.281762685577115, 0.1};
Point(p13 + 29) = {17.99400512535852, -1.302893203947196, 0.1};
Point(p13 + 30) = {18.084242, -1.309995, 0.1};
Point(p13 + 31) = {18.17447887464148, -1.302893203947196, 0.1};
Point(p13 + 32) = {18.26249381795027, -1.281762685577115, 0.1};
Point(p13 + 33) = {18.34611960991726, -1.247123748380197, 0.1};
Point(p13 + 34) = {18.42329710600613, -1.199829317950273, 0.1};
Point(p13 + 35) = {18.49212594012574, -1.141043940125742, 0.1};
Point(p13 + 36) = {18.55091131795027, -1.072215106006129, 0.1};
Point(p13 + 37) = {18.5982057483802, -0.9950376099172615, 0.1};
Point(p13 + 38) = {18.63284468557712, -0.9114118179502729, 0.1};
Point(p13 + 39) = {18.65397520394719, -0.8233968746414817, 0.1};
Spline(13) = {9, p13 + 1, p13 + 2, p13 + 3, p13 + 4, p13 + 5, p13 + 6, p13 + 7, p13 + 8, p13 + 9, p13 + 10, p13 + 11, p13 + 12, p13 + 13, p13 + 14, p13 + 15, p13 + 16, p13 + 17, p13 + 18, p13 + 19, p13 + 20, p13 + 21, p13 + 22, p13 + 23, p13 + 24, p13 + 25, p13 + 26, p13 + 27, p13 + 28, p13 + 29, p13 + 30, p13 + 31, p13 + 32, p13 + 33, p13 + 34, p13 + 35, p13 + 36, p13 + 37, p13 + 38, p13 + 39, 9};
Line(14) = {10, 9};
p15 = newp;
Point(p15 + 1) = {18.6539752039472, -0.6429231253585185, 0};
Point(p15 + 2) = {18.63284468557712, -0.5549081820497272, 0};
Point(p15 + 3) = {18.5982057483802, -0.4712823900827386, 0};
Point(p15 + 4) = {18.55091131795027, -0.3941048939938713, 0};
Point(p15 + 5) = {18.49212594012574, -0.325276059874258, 0};
Point(p15 + 6) = {18.42329710600613, -0.2664906820497273, 0};
Point(p15 + 7) = {18.34611960991726, -0.2191962516198029, 0};
Point(p15 + 8) = {18.26249381795027, -0.1845573144228851, 0};
Point(p15 + 9) = {18.17447887464148, -0.1634267960528037, 0};
Point(p15 + 10) = {18.084242, -0.156325, 0};
Point(p15 + 11) = {17.99400512535852, -0.1634267960528039, 0};
Point(p15 + 12) = {17.90599018204973, -0.1845573144228851, 0};
Point(p15 + 13) = {17.82236439008274, -0.2191962516198028, 0};
Point(p15 + 14) = {17.74518689399387, -0.2664906820497273, 0};
Point(p15 + 15) = {17.67635805987426, -0.3252760598742579, 0};
Point(p15 + 16) = {17.61757268204973, -0.3941048939938712, 0};
Point(p15 + 17) = {17.5702782516198, -0.4712823900827385, 0};
Point(p15 + 18) = {17.53563931442288, -0.5549081820497272, 0};
Point(p15 + 19) = {17.51450879605281, -0.6429231253585184, 0};
Point(p15 + 20) = {17.507407, -0.7331599999999999, 0};
Point(p15 + 21) = {17.5145087960528, -0.8233968746414815, 0};
Point(p15 + 22) = {17.53563931442288, -0.911411817950273, 0};
Point(p15 + 23) = {17.5702782516198, -0.9950376099172612, 0};
Point(p15 + 24) = {17.61757268204973, -1.072215106006129, 0};
Point(p15 + 25) = {17.67635805987426, -1.141043940125742, 0};
Point(p15 + 26) = {17.74518689399387, -1.199829317950273, 0};
Point(p15 + 27) = {17.82236439008274, -1.247123748380197, 0};
Point(p15 + 28) = {17.90599018204973, -1.281762685577115, 0};
Point(p15 + 29) = {17.99400512535852, -1.302893203947196, 0};
Point(p15 + 30) = {18.084242, -1.309995, 0};
Point(p15 + 31) = {18.17447887464148, -1.302893203947196, 0};
Point(p15 + 32) = {18.26249381795027, -1.281762685577115, 0};
Point(p15 + 33) = {18.34611960991726, -1.247123748380197, 0};
Point(p15 + 34) = {18.42329710600613, -1.199829317950273, 0};
Point(p15 + 35) = {18.49212594012574, -1.141043940125742, 0};
Point(p15 + 36) = {18.55091131795027, -1.072215106006129, 0};
Point(p15 + 37) = {18.5982057483802, -0.9950376099172615, 0};
Point(p15 + 38) = {18.63284468557712, -0.9114118179502729, 0};
Point(p15 + 39) = {18.65397520394719, -0.8233968746414817, 0};
Spline(15) = {10, p15 + 1, p15 + 2, p15 + 3, p15 + 4, p15 + 5, p15 + 6, p15 + 7, p15 + 8, p15 + 9, p15 + 10, p15 + 11, p15 + 12, p15 + 13, p15 + 14, p15 + 15, p15 + 16, p15 + 17, p15 + 18, p15 + 19, p15 + 20, p15 + 21, p15 + 22, p15 + 23, p15 + 24, p15 + 25, p15 + 26, p15 + 27, p15 + 28, p15 + 29, p15 + 30, p15 + 31, p15 + 32, p15 + 33, p15 + 34, p15 + 35, p15 + 36, p15 + 37, p15 + 38, p15 + 39, 10};
p16 = newp;
Point(p16 + 1) = {25.71082219771479, 1.768846170893935, 0.1};
Point(p16 + 2) = {25.66000037689937, 1.980534289451982, 0.1};
Point(p16 + 3) = {25.57668893945017, 2.181665891642655, 0.1};
Point(p16 + 4) = {25.46293928945198, 2.367288449902504, 0.1};
Point(p16 + 5) = {25.32155232080122, 2.532831320801218, 0.1};
Point(p16 + 6) = {25.1560094499025, 2.674218289451982, 0.1};
Point(p16 + 7) = {24.97038689164265, 2.787967939450168, 0.1};
Point(p16 + 8) = {24.76925528945198, 2.871279376899374, 0.1};
Point(p16 + 9) = {24.55756717089393, 2.922101197714795, 0.1};
Point(p16 + 10) = {24.340535, 2.939182, 0.1};
Point(p16 + 11) = {24.12350282910606, 2.922101197714795, 0.1};
Point(p16 + 12) = {23.91181471054802, 2.871279376899375, 0.1};
Point(p16 + 13) = {23.71068310835734, 2.787967939450168, 0.1};
Point(p16 + 14) = {23.5250605500975, 2.674218289451982, 0.1};
Point(p16 + 15) = {23.35951767919878, 2.532831320801218, 0.1};
Point(p16 + 16) = {23.21813071054802, 2.367288449902504, 0.1};
Point(p16 + 17) = {23.10438106054983, 2.181665891642655, 0.1};
Point(p16 + 18) = {23.02106962310063, 1.980534289451982, 0.1};
Point(p16 + 19) = {22.9702478022852, 1.768846170893935, 0.1};
Point(p16 + 20) = {22.953167, 1.551814, 0.1};
Point(p16 + 21) = {22.9702478022852, 1.334781829106065, 0.1};
Point(p16 + 22) = {23.02106962310063, 1.123093710548018, 0.1};
Point(p16 + 23) = {23.10438106054983, 0.9219621083573452, 0.1};
Point(p16 + 24) = {23.21813071054802, 0.7363395500974963, 0.1};
Point(p16 + 25) = {23.35951767919878, 0.5707966791987821, 0.1};
Point(p16 + 26) = {23.5250605500975, 0.4294097105480181, 0.1};
Point(p16 + 27) = {23.71068310835734, 0.3156600605498328, 0.1};
Point(p16 + 28) = {23.91181471054802, 0.2323486231006255, 0.1};
Point(p16 + 29) = {24.12350282910606, 0.1815268022852052, 0.1};
Point(p16 + 30) = {24.340535, 0.1644460000000001, 0.1};
Point(p16 + 31) = {24.55756717089393, 0.181526802285205, 0.1};
Point(p16 + 32) = {24.76925528945198, 0.2323486231006253, 0.1};
Point(p16 + 33) = {24.97038689164265, 0.3156600605498323, 0.1};
Point(p16 + 34) = {25.1560094499025, 0.4294097105480179, 0.1};
Point(p16 + 35) = {25.32155232080122, 0.5707966791987817, 0.1};
Point(p16 + 36) = {25.46293928945198, 0.7363395500974961, 0.1};
Point(p16 + 37) = {25.57668893945016, 0.9219621083573443, 0.1};
Point(p16 + 38) = {25.66000037689937, 1.123093710548018, 0.1};
Point(p16 + 39) = {25.71082219771479, 1.334781829106065, 0.1};
Spline(16) = {11, p16 + 1, p16 + 2, p16 + 3, p16 + 4, p16 + 5, p16 + 6, p16 + 7, p16 + 8, p16 + 9, p16 + 10, p16 + 11, p16 + 12, p16 + 13, p16 + 14, p16 + 15, p16 + 16, p16 + 17, p16 + 18, p16 + 19, p16 + 20, p16 + 21, p16 + 22, p16 + 23, p16 + 24, p16 + 25, p16 + 26, p16 + 27, p16 + 28, p16 + 29, p16 + 30, p16 + 31, p16 + 32, p16 + 33, p16 + 34, p16 + 35, p16 + 36, p16 + 37, p16 + 38, p16 + 39, 11};
Line(17) = {12, 11};
p18 = newp;
Point(p18 + 1) = {25.71082219771479, 1.768846170893935, 0};
Point(p18 + 2) = {25.66000037689937, 1.980534289451982, 0};
Point(p18 + 3) = {25.57668893945017, 2.181665891642655, 0};
Point(p18 + 4) = {25.46293928945198, 2.367288449902504, 0};
Point(p18 + 5) = {25.32155232080122, 2.532831320801218, 0};
Point(p18 + 6) = {25.1560094499025, 2.674218289451982, 0};
Point(p18 + 7) = {24.97038689164265, 2.787967939450168, 0};
Point(p18 + 8) = {24.76925528945198, 2.871279376899374, 0};
Point(p18 + 9) = {24.55756717089393, 2.922101197714795, 0};
Point(p18 + 10) = {24.340535, 2.939182, 0};
Point(p18 + 11) = {24.12350282910606, 2.922101197714795, 0};
Point(p18 + 12) = {23.91181471054802, 2.871279376899375, 0};
Point(p18 + 13) = {23.71068310835734, 2.787967939450168, 0};
Point(p18 + 14) = {23.5250605500975, 2.674218289451982, 0};
Point(p18 + 15) = {23.35951767919878, 2.532831320801218, 0};
Point(p18 + 16) = {23.21813071054802, 2.367288449902504, 0};
Point(p18 + 17) = {23.10438106054983, 2.181665891642655, 0};
Point(p18 + 18) = {23.02106962310063, 1.980534289451982, 0};
Point(p18 + 19) = {22.9702478022852, 1.768846170893935, 0};
Point(p18 + 20) = {22.953167, 1.551814, 0};
Point(p18 + 21) = {22.9702478022852, 1.334781829106065, 0};
Point(p18 + 22) = {23.02106962310063, 1.123093710548018, 0};
Point(p18 + 23) = {23.10438106054983, 0.9219621083573452, 0};
Point(p18 + 24) = {23.21813071054802, 0.7363395500974963, 0};
Point(p18 + 25) = {23.35951767919878, 0.5707966791987821, 0};
Point(p18 + 26) = {23.5250605500975, 0.4294097105480181, 0};
Point(p18 + 27) = {23.71068310835734, 0.3156600605498328, 0};
Point(p18 + 28) = {23.91181471054802, 0.2323486231006255, 0};
Point(p18 + 29) = {24.12350282910606, 0.1815268022852052, 0};
Point(p18 + 30) = {24.340535, 0.1644460000000001, 0};
Point(p18 + 31) = {24.55756717089393, 0.181526802285205, 0};
Point(p18 + 32) = {24.76925528945198, 0.2323486231006253, 0};
Point(p18 + 33) = {24.97038689164265, 0.3156600605498323, 0};
Point(p18 + 34) = {25.1560094499025, 0.4294097105480179, 0};
Point(p18 + 35) = {25.32155232080122, 0.5707966791987817, 0};
Point(p18 + 36) = {25.46293928945198, 0.7363395500974961, 0};
Point(p18 + 37) = {25.57668893945016, 0.9219621083573443, 0};
Point(p18 + 38) = {25.66000037689937, 1.123093710548018, 0};
Point(p18 + 39) = {25.71082219771479, 1.334781829106065, 0};
Spline(18) = {12, p18 + 1, p18 + 2, p18 + 3, p18 + 4, p18 + 5, p18 + 6, p18 + 7, p18 + 8, p18 + 9, p18 + 10, p18 + 11, p18 + 12, p18 + 13, p18 + 14, p18 + 15, p18 + 16, p18 + 17, p18 + 18, p18 + 19, p18 + 20, p18 + 21, p18 + 22, p18 + 23, p18 + 24, p18 + 25, p18 + 26, p18 + 27, p18 + 28, p18 + 29, p18 + 30, p18 + 31, p18 + 32, p18 + 33, p18 + 34, p18 + 35, p18 + 36, p18 + 37, p18 + 38, p18 + 39, 12};
Line(19) = {14, 13};
Line(20) = {13, 15};
Line(21) = {16, 15};
Line(22) = {14, 16};
Line(23) = {14, 17};
Line(24) = {17, 18};
Line(25) = {13, 18};
Line(26) = {15, 19};
Line(27) = {18, 19};
Line(28) = {16, 20};
Line(29) = {20, 19};
Line(30) = {17, 20};
Curve Loop(7) = {-13, -14, 15, 14};
Surface(7) = {7};
Curve Loop(8) = {13};
Plane Surface(8) = {8};
Curve Loop(9) = {15};
Plane Surface(9) = {9};
Curve Loop(10) = {-16, -17, 18, 17};
Surface(10) = {10};
Curve Loop(11) = {16};
Plane Surface(11) = {11};
Curve Loop(12) = {18};
Plane Surface(12) = {12};
Curve Loop(13) = {-19, 22, 21, -20};
Plane Surface(13) = {13};
Curve Loop(14) = {-23, 19, 25, -24};
Plane Surface(14) = {14};
Curve Loop(15) = {-20, 25, 27, -26};
Plane Surface(15) = {15};
Curve Loop(16) = {-28, 21, 26, -29};
Plane Surface(16) = {16};
Curve Loop(17) = {-22, 23, 30, -28, -15, -18};
Plane Surface(17) = {17};
Curve Loop(18) = {-24, 30, 29, -27};
Plane Surface(18) = {18};
Surface Loop(1) = {13, 14, 15, 16, 17, 18, 7, 10, 8, 11};
Volume(1) = {1};
Surface Loop(2) = {7, 8, 9};
Volume(2) = {2};
Surface Loop(3) = {10, 11, 12};
Volume(3) = {3};
Physical Surface("WALLS") = {13, 18};
Physical Surface("LOAD") = {8, 11};
Physical Surface("BORDER") = {7, 9, 10, 12, 14, 15, 16, 17};
Physical Volume("SOLID") = {1, 2, 3};
