cl__1 = 0.066927;
cl__2 = 0.14169;
cl__3 = 0.913561;
cl__4 = 0.662743;
cl__5 = 1.558994;
cl__6 = 2.02029;
Point(9) = {6.795821, 2.574101, 0.1, cl__1};
Point(10) = {6.795821, 2.574101, 0, cl__1};
Point(11) = {27.648517, -0.1019570000000004, 0.1, cl__2};
Point(12) = {27.648517, -0.1019570000000004, 0, cl__2};
Point(13) = {0.821592, -3.396736, 0.1, cl__3};
Point(14) = {0.821592, -3.396736, 0, cl__3};
Point(15) = {0.821592, 5.329753, 0.1, cl__4};
Point(16) = {0.821592, 5.329753, 0, cl__4};
Point(17) = {36.41694500000001, -3.396736, 0, cl__5};
Point(18) = {36.41694500000001, -3.396736, 0.1, cl__5};
Point(19) = {36.41694500000001, 5.329753, 0.1, cl__6};
Point(20) = {36.41694500000001, 5.329753, 0, cl__6};
p13 = newp;
Point(p13 + 1) = {6.787581224956745, 2.678797268679615, 0.1};
Point(p13 + 2) = {6.763064790434792, 2.780915567757344, 0.1};
Point(p13 + 3) = {6.722875372417452, 2.877941405798688, 0.1};
Point(p13 + 4) = {6.668002567757343, 2.967485684660775, 0.1};
Point(p13 + 5) = {6.599797527017595, 3.047343527017596, 0.1};
Point(p13 + 6) = {6.519939684660774, 3.115548567757344, 0.1};
Point(p13 + 7) = {6.430395405798687, 3.170421372417453, 0.1};
Point(p13 + 8) = {6.333369567757344, 3.210610790434792, 0.1};
Point(p13 + 9) = {6.231251268679615, 3.235127224956746, 0.1};
Point(p13 + 10) = {6.126555, 3.243367, 0.1};
Point(p13 + 11) = {6.021858731320385, 3.235127224956746, 0.1};
Point(p13 + 12) = {5.919740432242656, 3.210610790434792, 0.1};
Point(p13 + 13) = {5.822714594201313, 3.170421372417453, 0.1};
Point(p13 + 14) = {5.733170315339225, 3.115548567757344, 0.1};
Point(p13 + 15) = {5.653312472982404, 3.047343527017596, 0.1};
Point(p13 + 16) = {5.585107432242657, 2.967485684660775, 0.1};
Point(p13 + 17) = {5.530234627582548, 2.877941405798688, 0.1};
Point(p13 + 18) = {5.490045209565207, 2.780915567757344, 0.1};
Point(p13 + 19) = {5.465528775043254, 2.678797268679615, 0.1};
Point(p13 + 20) = {5.457288999999999, 2.574101, 0.1};
Point(p13 + 21) = {5.465528775043254, 2.469404731320385, 0.1};
Point(p13 + 22) = {5.490045209565207, 2.367286432242656, 0.1};
Point(p13 + 23) = {5.530234627582548, 2.270260594201313, 0.1};
Point(p13 + 24) = {5.585107432242657, 2.180716315339226, 0.1};
Point(p13 + 25) = {5.653312472982404, 2.100858472982404, 0.1};
Point(p13 + 26) = {5.733170315339225, 2.032653432242657, 0.1};
Point(p13 + 27) = {5.822714594201313, 1.977780627582548, 0.1};
Point(p13 + 28) = {5.919740432242656, 1.937591209565208, 0.1};
Point(p13 + 29) = {6.021858731320385, 1.913074775043255, 0.1};
Point(p13 + 30) = {6.126555, 1.904835, 0.1};
Point(p13 + 31) = {6.231251268679615, 1.913074775043255, 0.1};
Point(p13 + 32) = {6.333369567757344, 1.937591209565208, 0.1};
Point(p13 + 33) = {6.430395405798687, 1.977780627582548, 0.1};
Point(p13 + 34) = {6.519939684660774, 2.032653432242657, 0.1};
Point(p13 + 35) = {6.599797527017595, 2.100858472982404, 0.1};
Point(p13 + 36) = {6.668002567757343, 2.180716315339226, 0.1};
Point(p13 + 37) = {6.722875372417452, 2.270260594201313, 0.1};
Point(p13 + 38) = {6.763064790434792, 2.367286432242656, 0.1};
Point(p13 + 39) = {6.787581224956745, 2.469404731320385, 0.1};
Spline(13) = {9, p13 + 1, p13 + 2, p13 + 3, p13 + 4, p13 + 5, p13 + 6, p13 + 7, p13 + 8, p13 + 9, p13 + 10, p13 + 11, p13 + 12, p13 + 13, p13 + 14, p13 + 15, p13 + 16, p13 + 17, p13 + 18, p13 + 19, p13 + 20, p13 + 21, p13 + 22, p13 + 23, p13 + 24, p13 + 25, p13 + 26, p13 + 27, p13 + 28, p13 + 29, p13 + 30, p13 + 31, p13 + 32, p13 + 33, p13 + 34, p13 + 35, p13 + 36, p13 + 37, p13 + 38, p13 + 39, 9};
Line(14) = {10, 9};
p15 = newp;
Point(p15 + 1) = {6.787581224956745, 2.678797268679615, 0};
Point(p15 + 2) = {6.763064790434792, 2.780915567757344, 0};
Point(p15 + 3) = {6.722875372417452, 2.877941405798688, 0};
Point(p15 + 4) = {6.668002567757343, 2.967485684660775, 0};
Point(p15 + 5) = {6.599797527017595, 3.047343527017596, 0};
Point(p15 + 6) = {6.519939684660774, 3.115548567757344, 0};
Point(p15 + 7) = {6.430395405798687, 3.170421372417453, 0};
Point(p15 + 8) = {6.333369567757344, 3.210610790434792, 0};
Point(p15 + 9) = {6.231251268679615, 3.235127224956746, 0};
Point(p15 + 10) = {6.126555, 3.243367, 0};
Point(p15 + 11) = {6.021858731320385, 3.235127224956746, 0};
Point(p15 + 12) = {5.919740432242656, 3.210610790434792, 0};
Point(p15 + 13) = {5.822714594201313, 3.170421372417453, 0};
Point(p15 + 14) = {5.733170315339225, 3.115548567757344, 0};
Point(p15 + 15) = {5.653312472982404, 3.047343527017596, 0};
Point(p15 + 16) = {5.585107432242657, 2.967485684660775, 0};
Point(p15 + 17) = {5.530234627582548, 2.877941405798688, 0};
Point(p15 + 18) = {5.490045209565207, 2.780915567757344, 0};
Point(p15 + 19) = {5.465528775043254, 2.678797268679615, 0};
Point(p15 + 20) = {5.457288999999999, 2.574101, 0};
Point(p15 + 21) = {5.465528775043254, 2.469404731320385, 0};
Point(p15 + 22) = {5.490045209565207, 2.367286432242656, 0};
Point(p15 + 23) = {5.530234627582548, 2.270260594201313, 0};
Point(p15 + 24) = {5.585107432242657, 2.180716315339226, 0};
Point(p15 + 25) = {5.653312472982404, 2.100858472982404, 0};
Point(p15 + 26) = {5.733170315339225, 2.032653432242657, 0};
Point(p15 + 27) = {5.822714594201313, 1.977780627582548, 0};
Point(p15 + 28) = {5.919740432242656, 1.937591209565208, 0};
Point(p15 + 29) = {6.021858731320385, 1.913074775043255, 0};
Point(p15 + 30) = {6.126555, 1.904835, 0};
Point(p15 + 31) = {6.231251268679615, 1.913074775043255, 0};
Point(p15 + 32) = {6.333369567757344, 1.937591209565208, 0};
Point(p15 + 33) = {6.430395405798687, 1.977780627582548, 0};
Point(p15 + 34) = {6.519939684660774, 2.032653432242657, 0};
Point(p15 + 35) = {6.599797527017595, 2.100858472982404, 0};
Point(p15 + 36) = {6.668002567757343, 2.180716315339226, 0};
Point(p15 + 37) = {6.722875372417452, 2.270260594201313, 0};
Point(p15 + 38) = {6.763064790434792, 2.367286432242656, 0};
Point(p15 + 39) = {6.787581224956745, 2.469404731320385, 0};
Spline(15) = {10, p15 + 1, p15 + 2, p15 + 3, p15 + 4, p15 + 5, p15 + 6, p15 + 7, p15 + 8, p15 + 9, p15 + 10, p15 + 11, p15 + 12, p15 + 13, p15 + 14, p15 + 15, p15 + 16, p15 + 17, p15 + 18, p15 + 19, p15 + 20, p15 + 21, p15 + 22, p15 + 23, p15 + 24, p15 + 25, p15 + 26, p15 + 27, p15 + 28, p15 + 29, p15 + 30, p15 + 31, p15 + 32, p15 + 33, p15 + 34, p15 + 35, p15 + 36, p15 + 37, p15 + 38, p15 + 39, 10};
p16 = newp;
Point(p16 + 1) = {27.63107262210091, 0.119694837081038, 0.1};
Point(p16 + 2) = {27.57916902688209, 0.3358888703128685, 0.1};
Point(p16 + 3) = {27.49408425311598, 0.5413016850904641, 0.1};
Point(p16 + 4) = {27.37791337031287, 0.7308753361879529, 0.1};
Point(p16 + 5) = {27.23351689115644, 0.899941891156438, 0.1};
Point(p16 + 6) = {27.06445033618795, 1.044338370312868, 0.1};
Point(p16 + 7) = {26.87487668509047, 1.160509253115974, 0.1};
Point(p16 + 8) = {26.66946387031287, 1.245594026882087, 0.1};
Point(p16 + 9) = {26.45326983708104, 1.29749762210091, 0.1};
Point(p16 + 10) = {26.231618, 1.314942, 0.1};
Point(p16 + 11) = {26.00996616291896, 1.29749762210091, 0.1};
Point(p16 + 12) = {25.79377212968713, 1.245594026882087, 0.1};
Point(p16 + 13) = {25.58835931490954, 1.160509253115974, 0.1};
Point(p16 + 14) = {25.39878566381205, 1.044338370312869, 0.1};
Point(p16 + 15) = {25.22971910884356, 0.899941891156438, 0.1};
Point(p16 + 16) = {25.08532262968713, 0.7308753361879531, 0.1};
Point(p16 + 17) = {24.96915174688403, 0.5413016850904642, 0.1};
Point(p16 + 18) = {24.88406697311791, 0.3358888703128687, 0.1};
Point(p16 + 19) = {24.83216337789909, 0.1196948370810382, 0.1};
Point(p16 + 20) = {24.814719, -0.1019569999999998, 0.1};
Point(p16 + 21) = {24.83216337789909, -0.3236088370810379, 0.1};
Point(p16 + 22) = {24.88406697311791, -0.539802870312869, 0.1};
Point(p16 + 23) = {24.96915174688403, -0.7452156850904633, 0.1};
Point(p16 + 24) = {25.08532262968713, -0.9347893361879527, 0.1};
Point(p16 + 25) = {25.22971910884356, -1.103855891156438, 0.1};
Point(p16 + 26) = {25.39878566381205, -1.248252370312869, 0.1};
Point(p16 + 27) = {25.58835931490954, -1.364423253115974, 0.1};
Point(p16 + 28) = {25.79377212968713, -1.449508026882087, 0.1};
Point(p16 + 29) = {26.00996616291896, -1.50141162210091, 0.1};
Point(p16 + 30) = {26.231618, -1.518856, 0.1};
Point(p16 + 31) = {26.45326983708104, -1.50141162210091, 0.1};
Point(p16 + 32) = {26.66946387031287, -1.449508026882087, 0.1};
Point(p16 + 33) = {26.87487668509046, -1.364423253115974, 0.1};
Point(p16 + 34) = {27.06445033618795, -1.248252370312869, 0.1};
Point(p16 + 35) = {27.23351689115644, -1.103855891156438, 0.1};
Point(p16 + 36) = {27.37791337031287, -0.934789336187953, 0.1};
Point(p16 + 37) = {27.49408425311598, -0.7452156850904643, 0.1};
Point(p16 + 38) = {27.57916902688209, -0.5398028703128689, 0.1};
Point(p16 + 39) = {27.63107262210091, -0.3236088370810384, 0.1};
Spline(16) = {11, p16 + 1, p16 + 2, p16 + 3, p16 + 4, p16 + 5, p16 + 6, p16 + 7, p16 + 8, p16 + 9, p16 + 10, p16 + 11, p16 + 12, p16 + 13, p16 + 14, p16 + 15, p16 + 16, p16 + 17, p16 + 18, p16 + 19, p16 + 20, p16 + 21, p16 + 22, p16 + 23, p16 + 24, p16 + 25, p16 + 26, p16 + 27, p16 + 28, p16 + 29, p16 + 30, p16 + 31, p16 + 32, p16 + 33, p16 + 34, p16 + 35, p16 + 36, p16 + 37, p16 + 38, p16 + 39, 11};
Line(17) = {12, 11};
p18 = newp;
Point(p18 + 1) = {27.63107262210091, 0.119694837081038, 0};
Point(p18 + 2) = {27.57916902688209, 0.3358888703128685, 0};
Point(p18 + 3) = {27.49408425311598, 0.5413016850904641, 0};
Point(p18 + 4) = {27.37791337031287, 0.7308753361879529, 0};
Point(p18 + 5) = {27.23351689115644, 0.899941891156438, 0};
Point(p18 + 6) = {27.06445033618795, 1.044338370312868, 0};
Point(p18 + 7) = {26.87487668509047, 1.160509253115974, 0};
Point(p18 + 8) = {26.66946387031287, 1.245594026882087, 0};
Point(p18 + 9) = {26.45326983708104, 1.29749762210091, 0};
Point(p18 + 10) = {26.231618, 1.314942, 0};
Point(p18 + 11) = {26.00996616291896, 1.29749762210091, 0};
Point(p18 + 12) = {25.79377212968713, 1.245594026882087, 0};
Point(p18 + 13) = {25.58835931490954, 1.160509253115974, 0};
Point(p18 + 14) = {25.39878566381205, 1.044338370312869, 0};
Point(p18 + 15) = {25.22971910884356, 0.899941891156438, 0};
Point(p18 + 16) = {25.08532262968713, 0.7308753361879531, 0};
Point(p18 + 17) = {24.96915174688403, 0.5413016850904642, 0};
Point(p18 + 18) = {24.88406697311791, 0.3358888703128687, 0};
Point(p18 + 19) = {24.83216337789909, 0.1196948370810382, 0};
Point(p18 + 20) = {24.814719, -0.1019569999999998, 0};
Point(p18 + 21) = {24.83216337789909, -0.3236088370810379, 0};
Point(p18 + 22) = {24.88406697311791, -0.539802870312869, 0};
Point(p18 + 23) = {24.96915174688403, -0.7452156850904633, 0};
Point(p18 + 24) = {25.08532262968713, -0.9347893361879527, 0};
Point(p18 + 25) = {25.22971910884356, -1.103855891156438, 0};
Point(p18 + 26) = {25.39878566381205, -1.248252370312869, 0};
Point(p18 + 27) = {25.58835931490954, -1.364423253115974, 0};
Point(p18 + 28) = {25.79377212968713, -1.449508026882087, 0};
Point(p18 + 29) = {26.00996616291896, -1.50141162210091, 0};
Point(p18 + 30) = {26.231618, -1.518856, 0};
Point(p18 + 31) = {26.45326983708104, -1.50141162210091, 0};
Point(p18 + 32) = {26.66946387031287, -1.449508026882087, 0};
Point(p18 + 33) = {26.87487668509046, -1.364423253115974, 0};
Point(p18 + 34) = {27.06445033618795, -1.248252370312869, 0};
Point(p18 + 35) = {27.23351689115644, -1.103855891156438, 0};
Point(p18 + 36) = {27.37791337031287, -0.934789336187953, 0};
Point(p18 + 37) = {27.49408425311598, -0.7452156850904643, 0};
Point(p18 + 38) = {27.57916902688209, -0.5398028703128689, 0};
Point(p18 + 39) = {27.63107262210091, -0.3236088370810384, 0};
Spline(18) = {12, p18 + 1, p18 + 2, p18 + 3, p18 + 4, p18 + 5, p18 + 6, p18 + 7, p18 + 8, p18 + 9, p18 + 10, p18 + 11, p18 + 12, p18 + 13, p18 + 14, p18 + 15, p18 + 16, p18 + 17, p18 + 18, p18 + 19, p18 + 20, p18 + 21, p18 + 22, p18 + 23, p18 + 24, p18 + 25, p18 + 26, p18 + 27, p18 + 28, p18 + 29, p18 + 30, p18 + 31, p18 + 32, p18 + 33, p18 + 34, p18 + 35, p18 + 36, p18 + 37, p18 + 38, p18 + 39, 12};
Line(19) = {14, 13};
Line(20) = {13, 15};
Line(21) = {16, 15};
Line(22) = {14, 16};
Line(23) = {14, 17};
Line(24) = {17, 18};
Line(25) = {13, 18};
Line(26) = {15, 19};
Line(27) = {18, 19};
Line(28) = {16, 20};
Line(29) = {20, 19};
Line(30) = {17, 20};
Curve Loop(7) = {-13, -14, 15, 14};
Surface(7) = {7};
Curve Loop(8) = {13};
Plane Surface(8) = {8};
Curve Loop(9) = {15};
Plane Surface(9) = {9};
Curve Loop(10) = {-16, -17, 18, 17};
Surface(10) = {10};
Curve Loop(11) = {16};
Plane Surface(11) = {11};
Curve Loop(12) = {18};
Plane Surface(12) = {12};
Curve Loop(13) = {-19, 22, 21, -20};
Plane Surface(13) = {13};
Curve Loop(14) = {-23, 19, 25, -24};
Plane Surface(14) = {14};
Curve Loop(15) = {-20, 25, 27, -26, -16, -13};
Plane Surface(15) = {15};
Curve Loop(16) = {-28, 21, 26, -29};
Plane Surface(16) = {16};
Curve Loop(17) = {-22, 23, 30, -28, -18, -15};
Plane Surface(17) = {17};
Curve Loop(18) = {-24, 30, 29, -27};
Plane Surface(18) = {18};
Surface Loop(1) = {13, 14, 15, 16, 17, 18, 10, 7};
Volume(1) = {1};
Surface Loop(2) = {7, 8, 9};
Volume(2) = {2};
Surface Loop(3) = {10, 11, 12};
Volume(3) = {3};
Physical Surface("WALLS") = {13, 18};
Physical Surface("LOAD") = {8, 11};
Physical Surface("BORDER") = {7, 9, 10, 12, 14, 15, 16, 17};
Physical Volume("SOLID") = {1, 2, 3};
