cl__1 = 0.06643499999999999;
cl__2 = 0.145846;
cl__3 = 0.575588;
cl__4 = 0.6070179999999999;
cl__5 = 2.980879;
cl__6 = 2.617886;
Point(9) = {22.169889, 1.461516, 0.1, cl__1};
Point(10) = {22.169889, 1.461516, 0, cl__1};
Point(11) = {6.773222, 0.4937929999999996, 0.1, cl__2};
Point(12) = {6.773222, 0.4937929999999996, 0, cl__2};
Point(13) = {0.438166, -3.428567, 1, cl__3};
Point(14) = {0.438166, -3.428567, 0, cl__3};
Point(15) = {0.438166, 4.822093, 1, cl__4};
Point(16) = {0.438166, 4.822093, 0, cl__4};
Point(17) = {33.189095, -3.428567, 0, cl__5};
Point(18) = {33.189095, -3.428567, 1, cl__5};
Point(19) = {33.189095, 4.822093, 1, cl__6};
Point(20) = {33.189095, 4.822093, 0, cl__6};
p13 = newp;
Point(p13 + 1) = {22.16170969982774, 1.565443862587337, 0.1};
Point(p13 + 2) = {22.13737320082675, 1.666812676280974, 0.1};
Point(p13 + 3) = {22.09747874837064, 1.763126404463967, 0.1};
Point(p13 + 4) = {22.04300867628097, 1.852013483501514, 0.1};
Point(p13 + 5) = {21.97530421850841, 1.931285218508408, 0.1};
Point(p13 + 6) = {21.89603248350151, 1.998989676280974, 0.1};
Point(p13 + 7) = {21.80714540446397, 2.053459748370639, 0.1};
Point(p13 + 8) = {21.71083167628097, 2.09335420082675, 0.1};
Point(p13 + 9) = {21.60946286258734, 2.117690699827742, 0.1};
Point(p13 + 10) = {21.505535, 2.12587, 0.1};
Point(p13 + 11) = {21.40160713741266, 2.117690699827742, 0.1};
Point(p13 + 12) = {21.30023832371903, 2.09335420082675, 0.1};
Point(p13 + 13) = {21.20392459553603, 2.053459748370639, 0.1};
Point(p13 + 14) = {21.11503751649849, 1.998989676280974, 0.1};
Point(p13 + 15) = {21.03576578149159, 1.931285218508408, 0.1};
Point(p13 + 16) = {20.96806132371902, 1.852013483501514, 0.1};
Point(p13 + 17) = {20.91359125162936, 1.763126404463967, 0.1};
Point(p13 + 18) = {20.87369679917325, 1.666812676280974, 0.1};
Point(p13 + 19) = {20.84936030017226, 1.565443862587338, 0.1};
Point(p13 + 20) = {20.841181, 1.461516, 0.1};
Point(p13 + 21) = {20.84936030017226, 1.357588137412663, 0.1};
Point(p13 + 22) = {20.87369679917325, 1.256219323719026, 0.1};
Point(p13 + 23) = {20.91359125162936, 1.159905595536034, 0.1};
Point(p13 + 24) = {20.96806132371902, 1.071018516498486, 0.1};
Point(p13 + 25) = {21.03576578149159, 0.9917467814915926, 0.1};
Point(p13 + 26) = {21.11503751649849, 0.9240423237190263, 0.1};
Point(p13 + 27) = {21.20392459553603, 0.8695722516293611, 0.1};
Point(p13 + 28) = {21.30023832371903, 0.8296777991732496, 0.1};
Point(p13 + 29) = {21.40160713741266, 0.8053413001722579, 0.1};
Point(p13 + 30) = {21.505535, 0.797162, 0.1};
Point(p13 + 31) = {21.60946286258734, 0.8053413001722579, 0.1};
Point(p13 + 32) = {21.71083167628097, 0.8296777991732496, 0.1};
Point(p13 + 33) = {21.80714540446397, 0.869572251629361, 0.1};
Point(p13 + 34) = {21.89603248350151, 0.9240423237190262, 0.1};
Point(p13 + 35) = {21.97530421850841, 0.9917467814915923, 0.1};
Point(p13 + 36) = {22.04300867628097, 1.071018516498486, 0.1};
Point(p13 + 37) = {22.09747874837064, 1.159905595536033, 0.1};
Point(p13 + 38) = {22.13737320082675, 1.256219323719026, 0.1};
Point(p13 + 39) = {22.16170969982774, 1.357588137412662, 0.1};
Spline(13) = {9, p13 + 1, p13 + 2, p13 + 3, p13 + 4, p13 + 5, p13 + 6, p13 + 7, p13 + 8, p13 + 9, p13 + 10, p13 + 11, p13 + 12, p13 + 13, p13 + 14, p13 + 15, p13 + 16, p13 + 17, p13 + 18, p13 + 19, p13 + 20, p13 + 21, p13 + 22, p13 + 23, p13 + 24, p13 + 25, p13 + 26, p13 + 27, p13 + 28, p13 + 29, p13 + 30, p13 + 31, p13 + 32, p13 + 33, p13 + 34, p13 + 35, p13 + 36, p13 + 37, p13 + 38, p13 + 39, 9};
Line(14) = {10, 9};
p15 = newp;
Point(p15 + 1) = {22.16170969982774, 1.565443862587337, 0};
Point(p15 + 2) = {22.13737320082675, 1.666812676280974, 0};
Point(p15 + 3) = {22.09747874837064, 1.763126404463967, 0};
Point(p15 + 4) = {22.04300867628097, 1.852013483501514, 0};
Point(p15 + 5) = {21.97530421850841, 1.931285218508408, 0};
Point(p15 + 6) = {21.89603248350151, 1.998989676280974, 0};
Point(p15 + 7) = {21.80714540446397, 2.053459748370639, 0};
Point(p15 + 8) = {21.71083167628097, 2.09335420082675, 0};
Point(p15 + 9) = {21.60946286258734, 2.117690699827742, 0};
Point(p15 + 10) = {21.505535, 2.12587, 0};
Point(p15 + 11) = {21.40160713741266, 2.117690699827742, 0};
Point(p15 + 12) = {21.30023832371903, 2.09335420082675, 0};
Point(p15 + 13) = {21.20392459553603, 2.053459748370639, 0};
Point(p15 + 14) = {21.11503751649849, 1.998989676280974, 0};
Point(p15 + 15) = {21.03576578149159, 1.931285218508408, 0};
Point(p15 + 16) = {20.96806132371902, 1.852013483501514, 0};
Point(p15 + 17) = {20.91359125162936, 1.763126404463967, 0};
Point(p15 + 18) = {20.87369679917325, 1.666812676280974, 0};
Point(p15 + 19) = {20.84936030017226, 1.565443862587338, 0};
Point(p15 + 20) = {20.841181, 1.461516, 0};
Point(p15 + 21) = {20.84936030017226, 1.357588137412663, 0};
Point(p15 + 22) = {20.87369679917325, 1.256219323719026, 0};
Point(p15 + 23) = {20.91359125162936, 1.159905595536034, 0};
Point(p15 + 24) = {20.96806132371902, 1.071018516498486, 0};
Point(p15 + 25) = {21.03576578149159, 0.9917467814915926, 0};
Point(p15 + 26) = {21.11503751649849, 0.9240423237190263, 0};
Point(p15 + 27) = {21.20392459553603, 0.8695722516293611, 0};
Point(p15 + 28) = {21.30023832371903, 0.8296777991732496, 0};
Point(p15 + 29) = {21.40160713741266, 0.8053413001722579, 0};
Point(p15 + 30) = {21.505535, 0.797162, 0};
Point(p15 + 31) = {21.60946286258734, 0.8053413001722579, 0};
Point(p15 + 32) = {21.71083167628097, 0.8296777991732496, 0};
Point(p15 + 33) = {21.80714540446397, 0.869572251629361, 0};
Point(p15 + 34) = {21.89603248350151, 0.9240423237190262, 0};
Point(p15 + 35) = {21.97530421850841, 0.9917467814915923, 0};
Point(p15 + 36) = {22.04300867628097, 1.071018516498486, 0};
Point(p15 + 37) = {22.09747874837064, 1.159905595536033, 0};
Point(p15 + 38) = {22.13737320082675, 1.256219323719026, 0};
Point(p15 + 39) = {22.16170969982774, 1.357588137412662, 0};
Spline(15) = {10, p15 + 1, p15 + 2, p15 + 3, p15 + 4, p15 + 5, p15 + 6, p15 + 7, p15 + 8, p15 + 9, p15 + 10, p15 + 11, p15 + 12, p15 + 13, p15 + 14, p15 + 15, p15 + 16, p15 + 17, p15 + 18, p15 + 19, p15 + 20, p15 + 21, p15 + 22, p15 + 23, p15 + 24, p15 + 25, p15 + 26, p15 + 27, p15 + 28, p15 + 29, p15 + 30, p15 + 31, p15 + 32, p15 + 33, p15 + 34, p15 + 35, p15 + 36, p15 + 37, p15 + 38, p15 + 39, 10};
p16 = newp;
Point(p16 + 1) = {6.755265900289406, 0.7219468791859702, 0.1};
Point(p16 + 2) = {6.701839739925378, 0.9444828526670689, 0.1};
Point(p16 + 3) = {6.614259048287339, 1.155921346221639, 0.1};
Point(p16 + 4) = {6.494680352667069, 1.351056042414237, 0.1};
Point(p16 + 5) = {6.346048077409675, 1.525082077409676, 0.1};
Point(p16 + 6) = {6.172022042414237, 1.673714352667069, 0.1};
Point(p16 + 7) = {5.976887346221639, 1.793293048287339, 0.1};
Point(p16 + 8) = {5.765448852667069, 1.880873739925379, 0.1};
Point(p16 + 9) = {5.54291287918597, 1.934299900289406, 0.1};
Point(p16 + 10) = {5.314759, 1.952256, 0.1};
Point(p16 + 11) = {5.086605120814029, 1.934299900289406, 0.1};
Point(p16 + 12) = {4.86406914733293, 1.880873739925379, 0.1};
Point(p16 + 13) = {4.652630653778361, 1.793293048287339, 0.1};
Point(p16 + 14) = {4.457495957585762, 1.673714352667069, 0.1};
Point(p16 + 15) = {4.283469922590324, 1.525082077409676, 0.1};
Point(p16 + 16) = {4.13483764733293, 1.351056042414237, 0.1};
Point(p16 + 17) = {4.01525895171266, 1.155921346221639, 0.1};
Point(p16 + 18) = {3.927678260074621, 0.944482852667069, 0.1};
Point(p16 + 19) = {3.874252099710593, 0.7219468791859704, 0.1};
Point(p16 + 20) = {3.856296, 0.4937930000000001, 0.1};
Point(p16 + 21) = {3.874252099710593, 0.2656391208140299, 0.1};
Point(p16 + 22) = {3.927678260074621, 0.04310314733293058, 0.1};
Point(p16 + 23) = {4.01525895171266, -0.168335346221638, 0.1};
Point(p16 + 24) = {4.13483764733293, -0.3634700424142371, 0.1};
Point(p16 + 25) = {4.283469922590323, -0.5374960774096758, 0.1};
Point(p16 + 26) = {4.457495957585762, -0.686128352667069, 0.1};
Point(p16 + 27) = {4.652630653778361, -0.8057070482873396, 0.1};
Point(p16 + 28) = {4.86406914733293, -0.8932877399253787, 0.1};
Point(p16 + 29) = {5.086605120814029, -0.9467139002894065, 0.1};
Point(p16 + 30) = {5.314759, -0.9646700000000001, 0.1};
Point(p16 + 31) = {5.54291287918597, -0.9467139002894065, 0.1};
Point(p16 + 32) = {5.765448852667069, -0.8932877399253789, 0.1};
Point(p16 + 33) = {5.976887346221638, -0.8057070482873399, 0.1};
Point(p16 + 34) = {6.172022042414237, -0.6861283526670692, 0.1};
Point(p16 + 35) = {6.346048077409675, -0.537496077409676, 0.1};
Point(p16 + 36) = {6.494680352667069, -0.3634700424142375, 0.1};
Point(p16 + 37) = {6.614259048287339, -0.168335346221639, 0.1};
Point(p16 + 38) = {6.701839739925378, 0.04310314733293075, 0.1};
Point(p16 + 39) = {6.755265900289406, 0.2656391208140294, 0.1};
Spline(16) = {11, p16 + 1, p16 + 2, p16 + 3, p16 + 4, p16 + 5, p16 + 6, p16 + 7, p16 + 8, p16 + 9, p16 + 10, p16 + 11, p16 + 12, p16 + 13, p16 + 14, p16 + 15, p16 + 16, p16 + 17, p16 + 18, p16 + 19, p16 + 20, p16 + 21, p16 + 22, p16 + 23, p16 + 24, p16 + 25, p16 + 26, p16 + 27, p16 + 28, p16 + 29, p16 + 30, p16 + 31, p16 + 32, p16 + 33, p16 + 34, p16 + 35, p16 + 36, p16 + 37, p16 + 38, p16 + 39, 11};
Line(17) = {12, 11};
p18 = newp;
Point(p18 + 1) = {6.755265900289406, 0.7219468791859702, 0};
Point(p18 + 2) = {6.701839739925378, 0.9444828526670689, 0};
Point(p18 + 3) = {6.614259048287339, 1.155921346221639, 0};
Point(p18 + 4) = {6.494680352667069, 1.351056042414237, 0};
Point(p18 + 5) = {6.346048077409675, 1.525082077409676, 0};
Point(p18 + 6) = {6.172022042414237, 1.673714352667069, 0};
Point(p18 + 7) = {5.976887346221639, 1.793293048287339, 0};
Point(p18 + 8) = {5.765448852667069, 1.880873739925379, 0};
Point(p18 + 9) = {5.54291287918597, 1.934299900289406, 0};
Point(p18 + 10) = {5.314759, 1.952256, 0};
Point(p18 + 11) = {5.086605120814029, 1.934299900289406, 0};
Point(p18 + 12) = {4.86406914733293, 1.880873739925379, 0};
Point(p18 + 13) = {4.652630653778361, 1.793293048287339, 0};
Point(p18 + 14) = {4.457495957585762, 1.673714352667069, 0};
Point(p18 + 15) = {4.283469922590324, 1.525082077409676, 0};
Point(p18 + 16) = {4.13483764733293, 1.351056042414237, 0};
Point(p18 + 17) = {4.01525895171266, 1.155921346221639, 0};
Point(p18 + 18) = {3.927678260074621, 0.944482852667069, 0};
Point(p18 + 19) = {3.874252099710593, 0.7219468791859704, 0};
Point(p18 + 20) = {3.856296, 0.4937930000000001, 0};
Point(p18 + 21) = {3.874252099710593, 0.2656391208140299, 0};
Point(p18 + 22) = {3.927678260074621, 0.04310314733293058, 0};
Point(p18 + 23) = {4.01525895171266, -0.168335346221638, 0};
Point(p18 + 24) = {4.13483764733293, -0.3634700424142371, 0};
Point(p18 + 25) = {4.283469922590323, -0.5374960774096758, 0};
Point(p18 + 26) = {4.457495957585762, -0.686128352667069, 0};
Point(p18 + 27) = {4.652630653778361, -0.8057070482873396, 0};
Point(p18 + 28) = {4.86406914733293, -0.8932877399253787, 0};
Point(p18 + 29) = {5.086605120814029, -0.9467139002894065, 0};
Point(p18 + 30) = {5.314759, -0.9646700000000001, 0};
Point(p18 + 31) = {5.54291287918597, -0.9467139002894065, 0};
Point(p18 + 32) = {5.765448852667069, -0.8932877399253789, 0};
Point(p18 + 33) = {5.976887346221638, -0.8057070482873399, 0};
Point(p18 + 34) = {6.172022042414237, -0.6861283526670692, 0};
Point(p18 + 35) = {6.346048077409675, -0.537496077409676, 0};
Point(p18 + 36) = {6.494680352667069, -0.3634700424142375, 0};
Point(p18 + 37) = {6.614259048287339, -0.168335346221639, 0};
Point(p18 + 38) = {6.701839739925378, 0.04310314733293075, 0};
Point(p18 + 39) = {6.755265900289406, 0.2656391208140294, 0};
Spline(18) = {12, p18 + 1, p18 + 2, p18 + 3, p18 + 4, p18 + 5, p18 + 6, p18 + 7, p18 + 8, p18 + 9, p18 + 10, p18 + 11, p18 + 12, p18 + 13, p18 + 14, p18 + 15, p18 + 16, p18 + 17, p18 + 18, p18 + 19, p18 + 20, p18 + 21, p18 + 22, p18 + 23, p18 + 24, p18 + 25, p18 + 26, p18 + 27, p18 + 28, p18 + 29, p18 + 30, p18 + 31, p18 + 32, p18 + 33, p18 + 34, p18 + 35, p18 + 36, p18 + 37, p18 + 38, p18 + 39, 12};
Line(19) = {14, 13};
Line(20) = {13, 15};
Line(21) = {16, 15};
Line(22) = {14, 16};
Line(23) = {14, 17};
Line(24) = {17, 18};
Line(25) = {13, 18};
Line(26) = {15, 19};
Line(27) = {18, 19};
Line(28) = {16, 20};
Line(29) = {20, 19};
Line(30) = {17, 20};
Curve Loop(7) = {-13, -14, 15, 14};
Surface(7) = {7};
Curve Loop(8) = {13};
Plane Surface(8) = {8};
Curve Loop(9) = {15};
Plane Surface(9) = {9};
Curve Loop(10) = {-16, -17, 18, 17};
Surface(10) = {10};
Curve Loop(11) = {16};
Plane Surface(11) = {11};
Curve Loop(12) = {18};
Plane Surface(12) = {12};
Curve Loop(13) = {-19, 22, 21, -20};
Plane Surface(13) = {13};
Curve Loop(14) = {-23, 19, 25, -24};
Plane Surface(14) = {14};
Curve Loop(15) = {-20, 25, 27, -26};
Plane Surface(15) = {15};
Curve Loop(16) = {-28, 21, 26, -29};
Plane Surface(16) = {16};
Curve Loop(17) = {-22, 23, 30, -28, -18, -15};
Plane Surface(17) = {17};
Curve Loop(18) = {-24, 30, 29, -27};
Plane Surface(18) = {18};
Surface Loop(1) = {13, 14, 15, 16, 17, 18, 10, 7, 11, 8};
Volume(1) = {1};
Surface Loop(2) = {7, 8, 9};
Volume(2) = {2};
Surface Loop(3) = {10, 11, 12};
Volume(3) = {3};
Physical Surface("WALLS") = {13, 18};
Physical Surface("LOAD") = {8, 11};
Physical Surface("BORDER") = {7, 9, 10, 12, 14, 15, 16, 17};
Physical Volume("SOLID") = {1, 2, 3};
