cl__1 = 0.134647;
cl__2 = 0.080929;
cl__3 = 1.736443;
cl__4 = 1.736489;
cl__5 = 0.821191;
cl__6 = 0.774896;
Point(9) = {27.065116, 1.762697, 0.1, cl__1};
Point(10) = {27.065116, 1.762697, 0, cl__1};
Point(11) = {17.49816, 0.8342319999999998, 0.1, cl__2};
Point(12) = {17.49816, 0.8342319999999998, 0, cl__2};
Point(13) = {0.634294, -2.998117, 1, cl__3};
Point(14) = {0.634294, -2.998117, 0, cl__3};
Point(15) = {0.634294, 4.667171, 1, cl__4};
Point(16) = {0.634294, 4.667171, 0, cl__4};
Point(17) = {36.810557, -2.998117, 0, cl__5};
Point(18) = {36.810557, -2.998117, 1, cl__5};
Point(19) = {36.810557, 4.667171, 1, cl__6};
Point(20) = {36.810557, 4.667171, 0, cl__6};
p13 = newp;
Point(p13 + 1) = {27.04853874458446, 1.973331001273789, 0.1};
Point(p13 + 2) = {26.9992151653829, 2.178778494382047, 0.1};
Point(p13 + 3) = {26.91835977261087, 2.373980680203308, 0.1};
Point(p13 + 4) = {26.80796349438205, 2.554131033083742, 0.1};
Point(p13 + 5) = {26.67074465345069, 2.714793653450688, 0.1};
Point(p13 + 6) = {26.51008203308374, 2.852012494382047, 0.1};
Point(p13 + 7) = {26.32993168020331, 2.962408772610863, 0.1};
Point(p13 + 8) = {26.13472949438205, 3.043264165382903, 0.1};
Point(p13 + 9) = {25.92928200127379, 3.092587744584454, 0.1};
Point(p13 + 10) = {25.718648, 3.109165, 0.1};
Point(p13 + 11) = {25.50801399872621, 3.092587744584454, 0.1};
Point(p13 + 12) = {25.30256650561795, 3.043264165382903, 0.1};
Point(p13 + 13) = {25.10736431979669, 2.962408772610863, 0.1};
Point(p13 + 14) = {24.92721396691626, 2.852012494382047, 0.1};
Point(p13 + 15) = {24.76655134654931, 2.714793653450688, 0.1};
Point(p13 + 16) = {24.62933250561796, 2.554131033083742, 0.1};
Point(p13 + 17) = {24.51893622738914, 2.373980680203308, 0.1};
Point(p13 + 18) = {24.4380808346171, 2.178778494382047, 0.1};
Point(p13 + 19) = {24.38875725541555, 1.97333100127379, 0.1};
Point(p13 + 20) = {24.37218, 1.762697, 0.1};
Point(p13 + 21) = {24.38875725541555, 1.55206299872621, 0.1};
Point(p13 + 22) = {24.4380808346171, 1.346615505617953, 0.1};
Point(p13 + 23) = {24.51893622738914, 1.151413319796692, 0.1};
Point(p13 + 24) = {24.62933250561796, 0.9712629669162584, 0.1};
Point(p13 + 25) = {24.76655134654931, 0.8106003465493118, 0.1};
Point(p13 + 26) = {24.92721396691626, 0.6733815056179533, 0.1};
Point(p13 + 27) = {25.10736431979669, 0.5629852273891367, 0.1};
Point(p13 + 28) = {25.30256650561795, 0.4821298346170972, 0.1};
Point(p13 + 29) = {25.50801399872621, 0.4328062554155461, 0.1};
Point(p13 + 30) = {25.718648, 0.416229, 0.1};
Point(p13 + 31) = {25.92928200127379, 0.4328062554155461, 0.1};
Point(p13 + 32) = {26.13472949438205, 0.482129834617097, 0.1};
Point(p13 + 33) = {26.32993168020331, 0.5629852273891365, 0.1};
Point(p13 + 34) = {26.51008203308374, 0.6733815056179531, 0.1};
Point(p13 + 35) = {26.67074465345069, 0.8106003465493115, 0.1};
Point(p13 + 36) = {26.80796349438205, 0.9712629669162581, 0.1};
Point(p13 + 37) = {26.91835977261087, 1.151413319796692, 0.1};
Point(p13 + 38) = {26.9992151653829, 1.346615505617953, 0.1};
Point(p13 + 39) = {27.04853874458446, 1.55206299872621, 0.1};
Spline(13) = {9, p13 + 1, p13 + 2, p13 + 3, p13 + 4, p13 + 5, p13 + 6, p13 + 7, p13 + 8, p13 + 9, p13 + 10, p13 + 11, p13 + 12, p13 + 13, p13 + 14, p13 + 15, p13 + 16, p13 + 17, p13 + 18, p13 + 19, p13 + 20, p13 + 21, p13 + 22, p13 + 23, p13 + 24, p13 + 25, p13 + 26, p13 + 27, p13 + 28, p13 + 29, p13 + 30, p13 + 31, p13 + 32, p13 + 33, p13 + 34, p13 + 35, p13 + 36, p13 + 37, p13 + 38, p13 + 39, 9};
Line(14) = {10, 9};
p15 = newp;
Point(p15 + 1) = {27.04853874458446, 1.973331001273789, 0};
Point(p15 + 2) = {26.9992151653829, 2.178778494382047, 0};
Point(p15 + 3) = {26.91835977261087, 2.373980680203308, 0};
Point(p15 + 4) = {26.80796349438205, 2.554131033083742, 0};
Point(p15 + 5) = {26.67074465345069, 2.714793653450688, 0};
Point(p15 + 6) = {26.51008203308374, 2.852012494382047, 0};
Point(p15 + 7) = {26.32993168020331, 2.962408772610863, 0};
Point(p15 + 8) = {26.13472949438205, 3.043264165382903, 0};
Point(p15 + 9) = {25.92928200127379, 3.092587744584454, 0};
Point(p15 + 10) = {25.718648, 3.109165, 0};
Point(p15 + 11) = {25.50801399872621, 3.092587744584454, 0};
Point(p15 + 12) = {25.30256650561795, 3.043264165382903, 0};
Point(p15 + 13) = {25.10736431979669, 2.962408772610863, 0};
Point(p15 + 14) = {24.92721396691626, 2.852012494382047, 0};
Point(p15 + 15) = {24.76655134654931, 2.714793653450688, 0};
Point(p15 + 16) = {24.62933250561796, 2.554131033083742, 0};
Point(p15 + 17) = {24.51893622738914, 2.373980680203308, 0};
Point(p15 + 18) = {24.4380808346171, 2.178778494382047, 0};
Point(p15 + 19) = {24.38875725541555, 1.97333100127379, 0};
Point(p15 + 20) = {24.37218, 1.762697, 0};
Point(p15 + 21) = {24.38875725541555, 1.55206299872621, 0};
Point(p15 + 22) = {24.4380808346171, 1.346615505617953, 0};
Point(p15 + 23) = {24.51893622738914, 1.151413319796692, 0};
Point(p15 + 24) = {24.62933250561796, 0.9712629669162584, 0};
Point(p15 + 25) = {24.76655134654931, 0.8106003465493118, 0};
Point(p15 + 26) = {24.92721396691626, 0.6733815056179533, 0};
Point(p15 + 27) = {25.10736431979669, 0.5629852273891367, 0};
Point(p15 + 28) = {25.30256650561795, 0.4821298346170972, 0};
Point(p15 + 29) = {25.50801399872621, 0.4328062554155461, 0};
Point(p15 + 30) = {25.718648, 0.416229, 0};
Point(p15 + 31) = {25.92928200127379, 0.4328062554155461, 0};
Point(p15 + 32) = {26.13472949438205, 0.482129834617097, 0};
Point(p15 + 33) = {26.32993168020331, 0.5629852273891365, 0};
Point(p15 + 34) = {26.51008203308374, 0.6733815056179531, 0};
Point(p15 + 35) = {26.67074465345069, 0.8106003465493115, 0};
Point(p15 + 36) = {26.80796349438205, 0.9712629669162581, 0};
Point(p15 + 37) = {26.91835977261087, 1.151413319796692, 0};
Point(p15 + 38) = {26.9992151653829, 1.346615505617953, 0};
Point(p15 + 39) = {27.04853874458446, 1.55206299872621, 0};
Spline(15) = {10, p15 + 1, p15 + 2, p15 + 3, p15 + 4, p15 + 5, p15 + 6, p15 + 7, p15 + 8, p15 + 9, p15 + 10, p15 + 11, p15 + 12, p15 + 13, p15 + 14, p15 + 15, p15 + 16, p15 + 17, p15 + 18, p15 + 19, p15 + 20, p15 + 21, p15 + 22, p15 + 23, p15 + 24, p15 + 25, p15 + 26, p15 + 27, p15 + 28, p15 + 29, p15 + 30, p15 + 31, p15 + 32, p15 + 33, p15 + 34, p15 + 35, p15 + 36, p15 + 37, p15 + 38, p15 + 39, 10};
p16 = newp;
Point(p16 + 1) = {17.48819629716024, 0.9608328482124084, 0.1};
Point(p16 + 2) = {17.45855052807251, 1.084316363377701, 0.1};
Point(p16 + 3) = {17.4099526699604, 1.201641971534218, 0.1};
Point(p16 + 4) = {17.3435993633777, 1.309920726827775, 0.1};
Point(p16 + 5) = {17.26112444694646, 1.406486446946461, 0.1};
Point(p16 + 6) = {17.16455872682778, 1.488961363377701, 0.1};
Point(p16 + 7) = {17.05627997153422, 1.555314669960404, 0.1};
Point(p16 + 8) = {16.9389543633777, 1.603912528072505, 0.1};
Point(p16 + 9) = {16.81547084821241, 1.633558297160239, 0.1};
Point(p16 + 10) = {16.68887, 1.643522, 0.1};
Point(p16 + 11) = {16.56226915178759, 1.633558297160239, 0.1};
Point(p16 + 12) = {16.4387856366223, 1.603912528072505, 0.1};
Point(p16 + 13) = {16.32146002846578, 1.555314669960404, 0.1};
Point(p16 + 14) = {16.21318127317222, 1.488961363377701, 0.1};
Point(p16 + 15) = {16.11661555305354, 1.406486446946461, 0.1};
Point(p16 + 16) = {16.0341406366223, 1.309920726827776, 0.1};
Point(p16 + 17) = {15.9677873300396, 1.201641971534218, 0.1};
Point(p16 + 18) = {15.9191894719275, 1.084316363377701, 0.1};
Point(p16 + 19) = {15.88954370283976, 0.9608328482124084, 0.1};
Point(p16 + 20) = {15.87958, 0.8342320000000001, 0.1};
Point(p16 + 21) = {15.88954370283976, 0.7076311517875916, 0.1};
Point(p16 + 22) = {15.9191894719275, 0.5841476366222985, 0.1};
Point(p16 + 23) = {15.9677873300396, 0.4668220284657826, 0.1};
Point(p16 + 24) = {16.0341406366223, 0.3585432731722245, 0.1};
Point(p16 + 25) = {16.11661555305354, 0.261977553053539, 0.1};
Point(p16 + 26) = {16.21318127317222, 0.1795026366222989, 0.1};
Point(p16 + 27) = {16.32146002846578, 0.1131493300395958, 0.1};
Point(p16 + 28) = {16.4387856366223, 0.06455147192749522, 0.1};
Point(p16 + 29) = {16.56226915178759, 0.03490570283976102, 0.1};
Point(p16 + 30) = {16.68887, 0.02494200000000002, 0.1};
Point(p16 + 31) = {16.81547084821241, 0.03490570283976102, 0.1};
Point(p16 + 32) = {16.9389543633777, 0.06455147192749511, 0.1};
Point(p16 + 33) = {17.05627997153422, 0.1131493300395957, 0.1};
Point(p16 + 34) = {17.16455872682778, 0.1795026366222987, 0.1};
Point(p16 + 35) = {17.26112444694646, 0.2619775530535389, 0.1};
Point(p16 + 36) = {17.3435993633777, 0.3585432731722243, 0.1};
Point(p16 + 37) = {17.4099526699604, 0.466822028465782, 0.1};
Point(p16 + 38) = {17.45855052807251, 0.5841476366222986, 0.1};
Point(p16 + 39) = {17.48819629716024, 0.7076311517875913, 0.1};
Spline(16) = {11, p16 + 1, p16 + 2, p16 + 3, p16 + 4, p16 + 5, p16 + 6, p16 + 7, p16 + 8, p16 + 9, p16 + 10, p16 + 11, p16 + 12, p16 + 13, p16 + 14, p16 + 15, p16 + 16, p16 + 17, p16 + 18, p16 + 19, p16 + 20, p16 + 21, p16 + 22, p16 + 23, p16 + 24, p16 + 25, p16 + 26, p16 + 27, p16 + 28, p16 + 29, p16 + 30, p16 + 31, p16 + 32, p16 + 33, p16 + 34, p16 + 35, p16 + 36, p16 + 37, p16 + 38, p16 + 39, 11};
Line(17) = {12, 11};
p18 = newp;
Point(p18 + 1) = {17.48819629716024, 0.9608328482124084, 0};
Point(p18 + 2) = {17.45855052807251, 1.084316363377701, 0};
Point(p18 + 3) = {17.4099526699604, 1.201641971534218, 0};
Point(p18 + 4) = {17.3435993633777, 1.309920726827775, 0};
Point(p18 + 5) = {17.26112444694646, 1.406486446946461, 0};
Point(p18 + 6) = {17.16455872682778, 1.488961363377701, 0};
Point(p18 + 7) = {17.05627997153422, 1.555314669960404, 0};
Point(p18 + 8) = {16.9389543633777, 1.603912528072505, 0};
Point(p18 + 9) = {16.81547084821241, 1.633558297160239, 0};
Point(p18 + 10) = {16.68887, 1.643522, 0};
Point(p18 + 11) = {16.56226915178759, 1.633558297160239, 0};
Point(p18 + 12) = {16.4387856366223, 1.603912528072505, 0};
Point(p18 + 13) = {16.32146002846578, 1.555314669960404, 0};
Point(p18 + 14) = {16.21318127317222, 1.488961363377701, 0};
Point(p18 + 15) = {16.11661555305354, 1.406486446946461, 0};
Point(p18 + 16) = {16.0341406366223, 1.309920726827776, 0};
Point(p18 + 17) = {15.9677873300396, 1.201641971534218, 0};
Point(p18 + 18) = {15.9191894719275, 1.084316363377701, 0};
Point(p18 + 19) = {15.88954370283976, 0.9608328482124084, 0};
Point(p18 + 20) = {15.87958, 0.8342320000000001, 0};
Point(p18 + 21) = {15.88954370283976, 0.7076311517875916, 0};
Point(p18 + 22) = {15.9191894719275, 0.5841476366222985, 0};
Point(p18 + 23) = {15.9677873300396, 0.4668220284657826, 0};
Point(p18 + 24) = {16.0341406366223, 0.3585432731722245, 0};
Point(p18 + 25) = {16.11661555305354, 0.261977553053539, 0};
Point(p18 + 26) = {16.21318127317222, 0.1795026366222989, 0};
Point(p18 + 27) = {16.32146002846578, 0.1131493300395958, 0};
Point(p18 + 28) = {16.4387856366223, 0.06455147192749522, 0};
Point(p18 + 29) = {16.56226915178759, 0.03490570283976102, 0};
Point(p18 + 30) = {16.68887, 0.02494200000000002, 0};
Point(p18 + 31) = {16.81547084821241, 0.03490570283976102, 0};
Point(p18 + 32) = {16.9389543633777, 0.06455147192749511, 0};
Point(p18 + 33) = {17.05627997153422, 0.1131493300395957, 0};
Point(p18 + 34) = {17.16455872682778, 0.1795026366222987, 0};
Point(p18 + 35) = {17.26112444694646, 0.2619775530535389, 0};
Point(p18 + 36) = {17.3435993633777, 0.3585432731722243, 0};
Point(p18 + 37) = {17.4099526699604, 0.466822028465782, 0};
Point(p18 + 38) = {17.45855052807251, 0.5841476366222986, 0};
Point(p18 + 39) = {17.48819629716024, 0.7076311517875913, 0};
Spline(18) = {12, p18 + 1, p18 + 2, p18 + 3, p18 + 4, p18 + 5, p18 + 6, p18 + 7, p18 + 8, p18 + 9, p18 + 10, p18 + 11, p18 + 12, p18 + 13, p18 + 14, p18 + 15, p18 + 16, p18 + 17, p18 + 18, p18 + 19, p18 + 20, p18 + 21, p18 + 22, p18 + 23, p18 + 24, p18 + 25, p18 + 26, p18 + 27, p18 + 28, p18 + 29, p18 + 30, p18 + 31, p18 + 32, p18 + 33, p18 + 34, p18 + 35, p18 + 36, p18 + 37, p18 + 38, p18 + 39, 12};
Line(19) = {14, 13};
Line(20) = {13, 15};
Line(21) = {16, 15};
Line(22) = {14, 16};
Line(23) = {14, 17};
Line(24) = {17, 18};
Line(25) = {13, 18};
Line(26) = {15, 19};
Line(27) = {18, 19};
Line(28) = {16, 20};
Line(29) = {20, 19};
Line(30) = {17, 20};
Curve Loop(7) = {-13, -14, 15, 14};
Surface(7) = {7};
Curve Loop(8) = {13};
Plane Surface(8) = {8};
Curve Loop(9) = {15};
Plane Surface(9) = {9};
Curve Loop(10) = {-16, -17, 18, 17};
Surface(10) = {10};
Curve Loop(11) = {16};
Plane Surface(11) = {11};
Curve Loop(12) = {18};
Plane Surface(12) = {12};
Curve Loop(13) = {-19, 22, 21, -20};
Plane Surface(13) = {13};
Curve Loop(14) = {-23, 19, 25, -24};
Plane Surface(14) = {14};
Curve Loop(15) = {-20, 25, 27, -26};
Plane Surface(15) = {15};
Curve Loop(16) = {-28, 21, 26, -29};
Plane Surface(16) = {16};
Curve Loop(17) = {-22, 23, 30, -28, -18, -15};
Plane Surface(17) = {17};
Curve Loop(18) = {-24, 30, 29, -27};
Plane Surface(18) = {18};
Surface Loop(1) = {13, 14, 15, 16, 17, 18, 10, 7, 11, 8};
Volume(1) = {1};
Surface Loop(2) = {7, 8, 9};
Volume(2) = {2};
Surface Loop(3) = {10, 11, 12};
Volume(3) = {3};
Physical Surface("WALLS") = {13, 18};
Physical Surface("LOAD") = {8, 11};
Physical Surface("BORDER") = {7, 9, 10, 12, 14, 15, 16, 17};
Physical Volume("SOLID") = {1, 2, 3};
