cl__1 = 0.077823;
cl__2 = 0.145025;
cl__3 = 1.148249;
cl__4 = 1.570852;
cl__5 = 0.549053;
cl__6 = 1.912757;
Point(9) = {4.160944, 0.1514559999999998, 0.1, cl__1};
Point(10) = {4.160944, 0.1514559999999998, 0, cl__1};
Point(11) = {35.473223, -1.270051, 0.1, cl__2};
Point(12) = {35.473223, -1.270051, 0, cl__2};
Point(13) = {0.414225, -4.398165, 1, cl__3};
Point(14) = {0.414225, -4.398165, 0, cl__3};
Point(15) = {0.414225, 5.302148, 1, cl__4};
Point(16) = {0.414225, 5.302148, 0, cl__4};
Point(17) = {36.336278, -4.398165, 0, cl__5};
Point(18) = {36.336278, -4.398165, 1, cl__5};
Point(19) = {36.336278, 5.302148, 1, cl__6};
Point(20) = {36.336278, 5.302148, 0, cl__6};
p13 = newp;
Point(p13 + 1) = {4.151362746547992, 0.2731973679903987, 0.1};
Point(p13 + 2) = {4.122854908450313, 0.3919410594644378, 0.1};
Point(p13 + 3) = {4.076122443293017, 0.5047632106503085, 0.1};
Point(p13 + 4) = {4.012316059464438, 0.6088857657505622, 0.1};
Point(p13 + 5) = {3.933006881895682, 0.7017448818956821, 0.1};
Point(p13 + 6) = {3.840147765750562, 0.7810540594644377, 0.1};
Point(p13 + 7) = {3.736025210650308, 0.8448604432930167, 0.1};
Point(p13 + 8) = {3.623203059464438, 0.8915929084503121, 0.1};
Point(p13 + 9) = {3.504459367990399, 0.9201007465479917, 0.1};
Point(p13 + 10) = {3.382718, 0.929682, 0.1};
Point(p13 + 11) = {3.260976632009601, 0.9201007465479916, 0.1};
Point(p13 + 12) = {3.142232940535562, 0.8915929084503122, 0.1};
Point(p13 + 13) = {3.029410789349692, 0.8448604432930168, 0.1};
Point(p13 + 14) = {2.925288234249438, 0.7810540594644378, 0.1};
Point(p13 + 15) = {2.832429118104318, 0.7017448818956822, 0.1};
Point(p13 + 16) = {2.753119940535562, 0.6088857657505623, 0.1};
Point(p13 + 17) = {2.689313556706983, 0.5047632106503086, 0.1};
Point(p13 + 18) = {2.642581091549688, 0.3919410594644379, 0.1};
Point(p13 + 19) = {2.614073253452009, 0.2731973679903988, 0.1};
Point(p13 + 20) = {2.604492, 0.1514560000000001, 0.1};
Point(p13 + 21) = {2.614073253452009, 0.02971463200960139, 0.1};
Point(p13 + 22) = {2.642581091549688, -0.08902905946443807, 0.1};
Point(p13 + 23) = {2.689313556706983, -0.2018512106503081, 0.1};
Point(p13 + 24) = {2.753119940535562, -0.3059737657505621, 0.1};
Point(p13 + 25) = {2.832429118104318, -0.398832881895682, 0.1};
Point(p13 + 26) = {2.925288234249438, -0.4781420594644377, 0.1};
Point(p13 + 27) = {3.029410789349691, -0.5419484432930166, 0.1};
Point(p13 + 28) = {3.142232940535562, -0.5886809084503121, 0.1};
Point(p13 + 29) = {3.260976632009601, -0.6171887465479915, 0.1};
Point(p13 + 30) = {3.382718, -0.6267699999999999, 0.1};
Point(p13 + 31) = {3.504459367990399, -0.6171887465479916, 0.1};
Point(p13 + 32) = {3.623203059464438, -0.5886809084503122, 0.1};
Point(p13 + 33) = {3.736025210650308, -0.5419484432930168, 0.1};
Point(p13 + 34) = {3.840147765750562, -0.4781420594644379, 0.1};
Point(p13 + 35) = {3.933006881895682, -0.3988328818956822, 0.1};
Point(p13 + 36) = {4.012316059464438, -0.3059737657505622, 0.1};
Point(p13 + 37) = {4.076122443293016, -0.2018512106503087, 0.1};
Point(p13 + 38) = {4.122854908450313, -0.08902905946443798, 0.1};
Point(p13 + 39) = {4.151362746547992, 0.0297146320096011, 0.1};
Spline(13) = {9, p13 + 1, p13 + 2, p13 + 3, p13 + 4, p13 + 5, p13 + 6, p13 + 7, p13 + 8, p13 + 9, p13 + 10, p13 + 11, p13 + 12, p13 + 13, p13 + 14, p13 + 15, p13 + 16, p13 + 17, p13 + 18, p13 + 19, p13 + 20, p13 + 21, p13 + 22, p13 + 23, p13 + 24, p13 + 25, p13 + 26, p13 + 27, p13 + 28, p13 + 29, p13 + 30, p13 + 31, p13 + 32, p13 + 33, p13 + 34, p13 + 35, p13 + 36, p13 + 37, p13 + 38, p13 + 39, 9};
Line(14) = {10, 9};
p15 = newp;
Point(p15 + 1) = {4.151362746547992, 0.2731973679903987, 0};
Point(p15 + 2) = {4.122854908450313, 0.3919410594644378, 0};
Point(p15 + 3) = {4.076122443293017, 0.5047632106503085, 0};
Point(p15 + 4) = {4.012316059464438, 0.6088857657505622, 0};
Point(p15 + 5) = {3.933006881895682, 0.7017448818956821, 0};
Point(p15 + 6) = {3.840147765750562, 0.7810540594644377, 0};
Point(p15 + 7) = {3.736025210650308, 0.8448604432930167, 0};
Point(p15 + 8) = {3.623203059464438, 0.8915929084503121, 0};
Point(p15 + 9) = {3.504459367990399, 0.9201007465479917, 0};
Point(p15 + 10) = {3.382718, 0.929682, 0};
Point(p15 + 11) = {3.260976632009601, 0.9201007465479916, 0};
Point(p15 + 12) = {3.142232940535562, 0.8915929084503122, 0};
Point(p15 + 13) = {3.029410789349692, 0.8448604432930168, 0};
Point(p15 + 14) = {2.925288234249438, 0.7810540594644378, 0};
Point(p15 + 15) = {2.832429118104318, 0.7017448818956822, 0};
Point(p15 + 16) = {2.753119940535562, 0.6088857657505623, 0};
Point(p15 + 17) = {2.689313556706983, 0.5047632106503086, 0};
Point(p15 + 18) = {2.642581091549688, 0.3919410594644379, 0};
Point(p15 + 19) = {2.614073253452009, 0.2731973679903988, 0};
Point(p15 + 20) = {2.604492, 0.1514560000000001, 0};
Point(p15 + 21) = {2.614073253452009, 0.02971463200960139, 0};
Point(p15 + 22) = {2.642581091549688, -0.08902905946443807, 0};
Point(p15 + 23) = {2.689313556706983, -0.2018512106503081, 0};
Point(p15 + 24) = {2.753119940535562, -0.3059737657505621, 0};
Point(p15 + 25) = {2.832429118104318, -0.398832881895682, 0};
Point(p15 + 26) = {2.925288234249438, -0.4781420594644377, 0};
Point(p15 + 27) = {3.029410789349691, -0.5419484432930166, 0};
Point(p15 + 28) = {3.142232940535562, -0.5886809084503121, 0};
Point(p15 + 29) = {3.260976632009601, -0.6171887465479915, 0};
Point(p15 + 30) = {3.382718, -0.6267699999999999, 0};
Point(p15 + 31) = {3.504459367990399, -0.6171887465479916, 0};
Point(p15 + 32) = {3.623203059464438, -0.5886809084503122, 0};
Point(p15 + 33) = {3.736025210650308, -0.5419484432930168, 0};
Point(p15 + 34) = {3.840147765750562, -0.4781420594644379, 0};
Point(p15 + 35) = {3.933006881895682, -0.3988328818956822, 0};
Point(p15 + 36) = {4.012316059464438, -0.3059737657505622, 0};
Point(p15 + 37) = {4.076122443293016, -0.2018512106503087, 0};
Point(p15 + 38) = {4.122854908450313, -0.08902905946443798, 0};
Point(p15 + 39) = {4.151362746547992, 0.0297146320096011, 0};
Spline(15) = {10, p15 + 1, p15 + 2, p15 + 3, p15 + 4, p15 + 5, p15 + 6, p15 + 7, p15 + 8, p15 + 9, p15 + 10, p15 + 11, p15 + 12, p15 + 13, p15 + 14, p15 + 15, p15 + 16, p15 + 17, p15 + 18, p15 + 19, p15 + 20, p15 + 21, p15 + 22, p15 + 23, p15 + 24, p15 + 25, p15 + 26, p15 + 27, p15 + 28, p15 + 29, p15 + 30, p15 + 31, p15 + 32, p15 + 33, p15 + 34, p15 + 35, p15 + 36, p15 + 37, p15 + 38, p15 + 39, 10};
p16 = newp;
Point(p16 + 1) = {35.45536796670147, -1.043181291337545, 0.1};
Point(p16 + 2) = {35.40224251698312, -0.821897867839755, 0.1};
Point(p16 + 3) = {35.31515477573028, -0.6116494617907234, 0.1};
Point(p16 + 4) = {35.19624913216025, -0.4176130867218317, 0.1};
Point(p16 + 5) = {35.04845343784292, -0.2445665621570849, 0.1};
Point(p16 + 6) = {34.87540691327817, -0.09677086783975519, 0.1};
Point(p16 + 7) = {34.68137053820928, 0.022134775730277, 0.1};
Point(p16 + 8) = {34.47112213216025, 0.1092225169831116, 0.1};
Point(p16 + 9) = {34.24983870866246, 0.1623479667014609, 0.1};
Point(p16 + 10) = {34.022969, 0.1802029999999999, 0.1};
Point(p16 + 11) = {33.79609929133755, 0.1623479667014607, 0.1};
Point(p16 + 12) = {33.57481586783976, 0.1092225169831116, 0.1};
Point(p16 + 13) = {33.36456746179073, 0.02213477573027722, 0.1};
Point(p16 + 14) = {33.17053108672184, -0.09677086783975497, 0.1};
Point(p16 + 15) = {32.99748456215709, -0.2445665621570847, 0.1};
Point(p16 + 16) = {32.84968886783976, -0.4176130867218316, 0.1};
Point(p16 + 17) = {32.73078322426973, -0.6116494617907233, 0.1};
Point(p16 + 18) = {32.64369548301689, -0.8218978678397549, 0.1};
Point(p16 + 19) = {32.59057003329854, -1.043181291337545, 0.1};
Point(p16 + 20) = {32.572715, -1.270051, 0.1};
Point(p16 + 21) = {32.59057003329854, -1.496920708662455, 0.1};
Point(p16 + 22) = {32.64369548301689, -1.718204132160245, 0.1};
Point(p16 + 23) = {32.73078322426973, -1.928452538209276, 0.1};
Point(p16 + 24) = {32.84968886783976, -2.122488913278168, 0.1};
Point(p16 + 25) = {32.99748456215709, -2.295535437842915, 0.1};
Point(p16 + 26) = {33.17053108672184, -2.443331132160245, 0.1};
Point(p16 + 27) = {33.36456746179073, -2.562236775730277, 0.1};
Point(p16 + 28) = {33.57481586783976, -2.649324516983111, 0.1};
Point(p16 + 29) = {33.79609929133755, -2.702449966701461, 0.1};
Point(p16 + 30) = {34.022969, -2.720305, 0.1};
Point(p16 + 31) = {34.24983870866246, -2.702449966701461, 0.1};
Point(p16 + 32) = {34.47112213216025, -2.649324516983111, 0.1};
Point(p16 + 33) = {34.68137053820928, -2.562236775730278, 0.1};
Point(p16 + 34) = {34.87540691327817, -2.443331132160245, 0.1};
Point(p16 + 35) = {35.04845343784292, -2.295535437842916, 0.1};
Point(p16 + 36) = {35.19624913216025, -2.122488913278168, 0.1};
Point(p16 + 37) = {35.31515477573028, -1.928452538209277, 0.1};
Point(p16 + 38) = {35.40224251698312, -1.718204132160245, 0.1};
Point(p16 + 39) = {35.45536796670147, -1.496920708662455, 0.1};
Spline(16) = {11, p16 + 1, p16 + 2, p16 + 3, p16 + 4, p16 + 5, p16 + 6, p16 + 7, p16 + 8, p16 + 9, p16 + 10, p16 + 11, p16 + 12, p16 + 13, p16 + 14, p16 + 15, p16 + 16, p16 + 17, p16 + 18, p16 + 19, p16 + 20, p16 + 21, p16 + 22, p16 + 23, p16 + 24, p16 + 25, p16 + 26, p16 + 27, p16 + 28, p16 + 29, p16 + 30, p16 + 31, p16 + 32, p16 + 33, p16 + 34, p16 + 35, p16 + 36, p16 + 37, p16 + 38, p16 + 39, 11};
Line(17) = {12, 11};
p18 = newp;
Point(p18 + 1) = {35.45536796670147, -1.043181291337545, 0};
Point(p18 + 2) = {35.40224251698312, -0.821897867839755, 0};
Point(p18 + 3) = {35.31515477573028, -0.6116494617907234, 0};
Point(p18 + 4) = {35.19624913216025, -0.4176130867218317, 0};
Point(p18 + 5) = {35.04845343784292, -0.2445665621570849, 0};
Point(p18 + 6) = {34.87540691327817, -0.09677086783975519, 0};
Point(p18 + 7) = {34.68137053820928, 0.022134775730277, 0};
Point(p18 + 8) = {34.47112213216025, 0.1092225169831116, 0};
Point(p18 + 9) = {34.24983870866246, 0.1623479667014609, 0};
Point(p18 + 10) = {34.022969, 0.1802029999999999, 0};
Point(p18 + 11) = {33.79609929133755, 0.1623479667014607, 0};
Point(p18 + 12) = {33.57481586783976, 0.1092225169831116, 0};
Point(p18 + 13) = {33.36456746179073, 0.02213477573027722, 0};
Point(p18 + 14) = {33.17053108672184, -0.09677086783975497, 0};
Point(p18 + 15) = {32.99748456215709, -0.2445665621570847, 0};
Point(p18 + 16) = {32.84968886783976, -0.4176130867218316, 0};
Point(p18 + 17) = {32.73078322426973, -0.6116494617907233, 0};
Point(p18 + 18) = {32.64369548301689, -0.8218978678397549, 0};
Point(p18 + 19) = {32.59057003329854, -1.043181291337545, 0};
Point(p18 + 20) = {32.572715, -1.270051, 0};
Point(p18 + 21) = {32.59057003329854, -1.496920708662455, 0};
Point(p18 + 22) = {32.64369548301689, -1.718204132160245, 0};
Point(p18 + 23) = {32.73078322426973, -1.928452538209276, 0};
Point(p18 + 24) = {32.84968886783976, -2.122488913278168, 0};
Point(p18 + 25) = {32.99748456215709, -2.295535437842915, 0};
Point(p18 + 26) = {33.17053108672184, -2.443331132160245, 0};
Point(p18 + 27) = {33.36456746179073, -2.562236775730277, 0};
Point(p18 + 28) = {33.57481586783976, -2.649324516983111, 0};
Point(p18 + 29) = {33.79609929133755, -2.702449966701461, 0};
Point(p18 + 30) = {34.022969, -2.720305, 0};
Point(p18 + 31) = {34.24983870866246, -2.702449966701461, 0};
Point(p18 + 32) = {34.47112213216025, -2.649324516983111, 0};
Point(p18 + 33) = {34.68137053820928, -2.562236775730278, 0};
Point(p18 + 34) = {34.87540691327817, -2.443331132160245, 0};
Point(p18 + 35) = {35.04845343784292, -2.295535437842916, 0};
Point(p18 + 36) = {35.19624913216025, -2.122488913278168, 0};
Point(p18 + 37) = {35.31515477573028, -1.928452538209277, 0};
Point(p18 + 38) = {35.40224251698312, -1.718204132160245, 0};
Point(p18 + 39) = {35.45536796670147, -1.496920708662455, 0};
Spline(18) = {12, p18 + 1, p18 + 2, p18 + 3, p18 + 4, p18 + 5, p18 + 6, p18 + 7, p18 + 8, p18 + 9, p18 + 10, p18 + 11, p18 + 12, p18 + 13, p18 + 14, p18 + 15, p18 + 16, p18 + 17, p18 + 18, p18 + 19, p18 + 20, p18 + 21, p18 + 22, p18 + 23, p18 + 24, p18 + 25, p18 + 26, p18 + 27, p18 + 28, p18 + 29, p18 + 30, p18 + 31, p18 + 32, p18 + 33, p18 + 34, p18 + 35, p18 + 36, p18 + 37, p18 + 38, p18 + 39, 12};
Line(19) = {14, 13};
Line(20) = {13, 15};
Line(21) = {16, 15};
Line(22) = {14, 16};
Line(23) = {14, 17};
Line(24) = {17, 18};
Line(25) = {13, 18};
Line(26) = {15, 19};
Line(27) = {18, 19};
Line(28) = {16, 20};
Line(29) = {20, 19};
Line(30) = {17, 20};
Curve Loop(7) = {-13, -14, 15, 14};
Surface(7) = {7};
Curve Loop(8) = {13};
Plane Surface(8) = {8};
Curve Loop(9) = {15};
Plane Surface(9) = {9};
Curve Loop(10) = {-16, -17, 18, 17};
Surface(10) = {10};
Curve Loop(11) = {16};
Plane Surface(11) = {11};
Curve Loop(12) = {18};
Plane Surface(12) = {12};
Curve Loop(13) = {-19, 22, 21, -20};
Plane Surface(13) = {13};
Curve Loop(14) = {-23, 19, 25, -24};
Plane Surface(14) = {14};
Curve Loop(15) = {-20, 25, 27, -26};
Plane Surface(15) = {15};
Curve Loop(16) = {-28, 21, 26, -29};
Plane Surface(16) = {16};
Curve Loop(17) = {-22, 23, 30, -28, -18, -15};
Plane Surface(17) = {17};
Curve Loop(18) = {-24, 30, 29, -27};
Plane Surface(18) = {18};
Surface Loop(1) = {13, 14, 15, 16, 17, 18, 10, 7, 11, 8};
Volume(1) = {1};
Surface Loop(2) = {7, 8, 9};
Volume(2) = {2};
Surface Loop(3) = {10, 11, 12};
Volume(3) = {3};
Physical Surface("WALLS") = {13, 18};
Physical Surface("LOAD") = {8, 11};
Physical Surface("BORDER") = {7, 9, 10, 12, 14, 15, 16, 17};
Physical Volume("SOLID") = {1, 2, 3};
