cl__1 = 0.06583799999999999;
cl__2 = 0.059321;
cl__3 = 1.448291;
cl__4 = 1.474745;
cl__5 = 0.784058;
cl__6 = 0.946283;
Point(9) = {19.663857, -2.589524, 0.1, cl__1};
Point(10) = {19.663857, -2.589524, 0, cl__1};
Point(11) = {17.787241, 0.5190059999999999, 0.1, cl__2};
Point(12) = {17.787241, 0.5190059999999999, 0, cl__2};
Point(13) = {0.438116, -4.268183, 1, cl__3};
Point(14) = {0.438116, -4.268183, 0, cl__3};
Point(15) = {0.438116, 5.664684, 1, cl__4};
Point(16) = {0.438116, 5.664684, 0, cl__4};
Point(17) = {31.214261, -4.268183, 0, cl__5};
Point(18) = {31.214261, -4.268183, 1, cl__5};
Point(19) = {31.214261, 5.664684, 1, cl__6};
Point(20) = {31.214261, 5.664684, 0, cl__6};
p13 = newp;
Point(p13 + 1) = {19.65575127430435, -2.486530989775743, 0.1};
Point(p13 + 2) = {19.63163368708537, -2.386074009277411, 0.1};
Point(p13 + 3) = {19.59209809338209, -2.290626642762477, 0.1};
Point(p13 + 4) = {19.53811799072259, -2.202539121166186, 0.1};
Point(p13 + 5) = {19.47102254838404, -2.123980451615963, 0.1};
Point(p13 + 6) = {19.39246387883382, -2.056885009277411, 0.1};
Point(p13 + 7) = {19.30437635723753, -2.002904906617911, 0.1};
Point(p13 + 8) = {19.20892899072259, -1.963369312914629, 0.1};
Point(p13 + 9) = {19.10847201022426, -1.939251725695654, 0.1};
Point(p13 + 10) = {19.005479, -1.931146, 0.1};
Point(p13 + 11) = {18.90248598977574, -1.939251725695654, 0.1};
Point(p13 + 12) = {18.80202900927741, -1.963369312914629, 0.1};
Point(p13 + 13) = {18.70658164276248, -2.002904906617911, 0.1};
Point(p13 + 14) = {18.61849412116619, -2.056885009277411, 0.1};
Point(p13 + 15) = {18.53993545161596, -2.123980451615963, 0.1};
Point(p13 + 16) = {18.47284000927741, -2.202539121166186, 0.1};
Point(p13 + 17) = {18.41885990661791, -2.290626642762477, 0.1};
Point(p13 + 18) = {18.37932431291463, -2.386074009277411, 0.1};
Point(p13 + 19) = {18.35520672569566, -2.486530989775743, 0.1};
Point(p13 + 20) = {18.347101, -2.589524, 0.1};
Point(p13 + 21) = {18.35520672569566, -2.692517010224257, 0.1};
Point(p13 + 22) = {18.37932431291463, -2.792973990722589, 0.1};
Point(p13 + 23) = {18.41885990661791, -2.888421357237523, 0.1};
Point(p13 + 24) = {18.47284000927741, -2.976508878833814, 0.1};
Point(p13 + 25) = {18.53993545161596, -3.055067548384037, 0.1};
Point(p13 + 26) = {18.61849412116619, -3.122162990722589, 0.1};
Point(p13 + 27) = {18.70658164276248, -3.176143093382089, 0.1};
Point(p13 + 28) = {18.80202900927741, -3.21567868708537, 0.1};
Point(p13 + 29) = {18.90248598977574, -3.239796274304346, 0.1};
Point(p13 + 30) = {19.005479, -3.247902, 0.1};
Point(p13 + 31) = {19.10847201022426, -3.239796274304346, 0.1};
Point(p13 + 32) = {19.20892899072259, -3.21567868708537, 0.1};
Point(p13 + 33) = {19.30437635723752, -3.176143093382089, 0.1};
Point(p13 + 34) = {19.39246387883382, -3.122162990722589, 0.1};
Point(p13 + 35) = {19.47102254838404, -3.055067548384037, 0.1};
Point(p13 + 36) = {19.53811799072259, -2.976508878833814, 0.1};
Point(p13 + 37) = {19.59209809338209, -2.888421357237523, 0.1};
Point(p13 + 38) = {19.63163368708537, -2.792973990722589, 0.1};
Point(p13 + 39) = {19.65575127430435, -2.692517010224257, 0.1};
Spline(13) = {9, p13 + 1, p13 + 2, p13 + 3, p13 + 4, p13 + 5, p13 + 6, p13 + 7, p13 + 8, p13 + 9, p13 + 10, p13 + 11, p13 + 12, p13 + 13, p13 + 14, p13 + 15, p13 + 16, p13 + 17, p13 + 18, p13 + 19, p13 + 20, p13 + 21, p13 + 22, p13 + 23, p13 + 24, p13 + 25, p13 + 26, p13 + 27, p13 + 28, p13 + 29, p13 + 30, p13 + 31, p13 + 32, p13 + 33, p13 + 34, p13 + 35, p13 + 36, p13 + 37, p13 + 38, p13 + 39, 9};
Line(14) = {10, 9};
p15 = newp;
Point(p15 + 1) = {19.65575127430435, -2.486530989775743, 0};
Point(p15 + 2) = {19.63163368708537, -2.386074009277411, 0};
Point(p15 + 3) = {19.59209809338209, -2.290626642762477, 0};
Point(p15 + 4) = {19.53811799072259, -2.202539121166186, 0};
Point(p15 + 5) = {19.47102254838404, -2.123980451615963, 0};
Point(p15 + 6) = {19.39246387883382, -2.056885009277411, 0};
Point(p15 + 7) = {19.30437635723753, -2.002904906617911, 0};
Point(p15 + 8) = {19.20892899072259, -1.963369312914629, 0};
Point(p15 + 9) = {19.10847201022426, -1.939251725695654, 0};
Point(p15 + 10) = {19.005479, -1.931146, 0};
Point(p15 + 11) = {18.90248598977574, -1.939251725695654, 0};
Point(p15 + 12) = {18.80202900927741, -1.963369312914629, 0};
Point(p15 + 13) = {18.70658164276248, -2.002904906617911, 0};
Point(p15 + 14) = {18.61849412116619, -2.056885009277411, 0};
Point(p15 + 15) = {18.53993545161596, -2.123980451615963, 0};
Point(p15 + 16) = {18.47284000927741, -2.202539121166186, 0};
Point(p15 + 17) = {18.41885990661791, -2.290626642762477, 0};
Point(p15 + 18) = {18.37932431291463, -2.386074009277411, 0};
Point(p15 + 19) = {18.35520672569566, -2.486530989775743, 0};
Point(p15 + 20) = {18.347101, -2.589524, 0};
Point(p15 + 21) = {18.35520672569566, -2.692517010224257, 0};
Point(p15 + 22) = {18.37932431291463, -2.792973990722589, 0};
Point(p15 + 23) = {18.41885990661791, -2.888421357237523, 0};
Point(p15 + 24) = {18.47284000927741, -2.976508878833814, 0};
Point(p15 + 25) = {18.53993545161596, -3.055067548384037, 0};
Point(p15 + 26) = {18.61849412116619, -3.122162990722589, 0};
Point(p15 + 27) = {18.70658164276248, -3.176143093382089, 0};
Point(p15 + 28) = {18.80202900927741, -3.21567868708537, 0};
Point(p15 + 29) = {18.90248598977574, -3.239796274304346, 0};
Point(p15 + 30) = {19.005479, -3.247902, 0};
Point(p15 + 31) = {19.10847201022426, -3.239796274304346, 0};
Point(p15 + 32) = {19.20892899072259, -3.21567868708537, 0};
Point(p15 + 33) = {19.30437635723752, -3.176143093382089, 0};
Point(p15 + 34) = {19.39246387883382, -3.122162990722589, 0};
Point(p15 + 35) = {19.47102254838404, -3.055067548384037, 0};
Point(p15 + 36) = {19.53811799072259, -2.976508878833814, 0};
Point(p15 + 37) = {19.59209809338209, -2.888421357237523, 0};
Point(p15 + 38) = {19.63163368708537, -2.792973990722589, 0};
Point(p15 + 39) = {19.65575127430435, -2.692517010224257, 0};
Spline(15) = {10, p15 + 1, p15 + 2, p15 + 3, p15 + 4, p15 + 5, p15 + 6, p15 + 7, p15 + 8, p15 + 9, p15 + 10, p15 + 11, p15 + 12, p15 + 13, p15 + 14, p15 + 15, p15 + 16, p15 + 17, p15 + 18, p15 + 19, p15 + 20, p15 + 21, p15 + 22, p15 + 23, p15 + 24, p15 + 25, p15 + 26, p15 + 27, p15 + 28, p15 + 29, p15 + 30, p15 + 31, p15 + 32, p15 + 33, p15 + 34, p15 + 35, p15 + 36, p15 + 37, p15 + 38, p15 + 39, 10};
p16 = newp;
Point(p16 + 1) = {17.7799376128361, 0.6118043325720502, 0.1};
Point(p16 + 2) = {17.75820728497493, 0.7023176622161681, 0.1};
Point(p16 + 3) = {17.72258508920726, 0.7883172503599967, 0.1};
Point(p16 + 4) = {17.67394816221617, 0.8676855017271656, 0.1};
Point(p16 + 5) = {17.61349410656089, 0.9384681065608906, 0.1};
Point(p16 + 6) = {17.54271150172717, 0.9989221622161681, 0.1};
Point(p16 + 7) = {17.46334325036, 1.047559089207257, 0.1};
Point(p16 + 8) = {17.37734366221617, 1.083181284974932, 0.1};
Point(p16 + 9) = {17.28683033257205, 1.104911612836101, 0.1};
Point(p16 + 10) = {17.194032, 1.112215, 0.1};
Point(p16 + 11) = {17.10123366742795, 1.104911612836101, 0.1};
Point(p16 + 12) = {17.01072033778383, 1.083181284974932, 0.1};
Point(p16 + 13) = {16.92472074964, 1.047559089207257, 0.1};
Point(p16 + 14) = {16.84535249827283, 0.9989221622161681, 0.1};
Point(p16 + 15) = {16.77456989343911, 0.9384681065608906, 0.1};
Point(p16 + 16) = {16.71411583778383, 0.8676855017271657, 0.1};
Point(p16 + 17) = {16.66547891079274, 0.7883172503599969, 0.1};
Point(p16 + 18) = {16.62985671502507, 0.7023176622161682, 0.1};
Point(p16 + 19) = {16.6081263871639, 0.6118043325720504, 0.1};
Point(p16 + 20) = {16.600823, 0.5190060000000001, 0.1};
Point(p16 + 21) = {16.6081263871639, 0.4262076674279497, 0.1};
Point(p16 + 22) = {16.62985671502507, 0.3356943377838316, 0.1};
Point(p16 + 23) = {16.66547891079274, 0.2496947496400034, 0.1};
Point(p16 + 24) = {16.71411583778383, 0.1703264982728344, 0.1};
Point(p16 + 25) = {16.77456989343911, 0.09954389343910935, 0.1};
Point(p16 + 26) = {16.84535249827283, 0.03908983778383185, 0.1};
Point(p16 + 27) = {16.92472074964, -0.009547089207257442, 0.1};
Point(p16 + 28) = {17.01072033778383, -0.04516928497493178, 0.1};
Point(p16 + 29) = {17.10123366742795, -0.06689961283610102, 0.1};
Point(p16 + 30) = {17.194032, -0.07420300000000002, 0.1};
Point(p16 + 31) = {17.28683033257205, -0.06689961283610113, 0.1};
Point(p16 + 32) = {17.37734366221617, -0.04516928497493178, 0.1};
Point(p16 + 33) = {17.46334325036, -0.009547089207257664, 0.1};
Point(p16 + 34) = {17.54271150172717, 0.03908983778383168, 0.1};
Point(p16 + 35) = {17.61349410656089, 0.09954389343910919, 0.1};
Point(p16 + 36) = {17.67394816221617, 0.1703264982728342, 0.1};
Point(p16 + 37) = {17.72258508920726, 0.249694749640003, 0.1};
Point(p16 + 38) = {17.75820728497493, 0.3356943377838317, 0.1};
Point(p16 + 39) = {17.7799376128361, 0.4262076674279495, 0.1};
Spline(16) = {11, p16 + 1, p16 + 2, p16 + 3, p16 + 4, p16 + 5, p16 + 6, p16 + 7, p16 + 8, p16 + 9, p16 + 10, p16 + 11, p16 + 12, p16 + 13, p16 + 14, p16 + 15, p16 + 16, p16 + 17, p16 + 18, p16 + 19, p16 + 20, p16 + 21, p16 + 22, p16 + 23, p16 + 24, p16 + 25, p16 + 26, p16 + 27, p16 + 28, p16 + 29, p16 + 30, p16 + 31, p16 + 32, p16 + 33, p16 + 34, p16 + 35, p16 + 36, p16 + 37, p16 + 38, p16 + 39, 11};
Line(17) = {12, 11};
p18 = newp;
Point(p18 + 1) = {17.7799376128361, 0.6118043325720502, 0};
Point(p18 + 2) = {17.75820728497493, 0.7023176622161681, 0};
Point(p18 + 3) = {17.72258508920726, 0.7883172503599967, 0};
Point(p18 + 4) = {17.67394816221617, 0.8676855017271656, 0};
Point(p18 + 5) = {17.61349410656089, 0.9384681065608906, 0};
Point(p18 + 6) = {17.54271150172717, 0.9989221622161681, 0};
Point(p18 + 7) = {17.46334325036, 1.047559089207257, 0};
Point(p18 + 8) = {17.37734366221617, 1.083181284974932, 0};
Point(p18 + 9) = {17.28683033257205, 1.104911612836101, 0};
Point(p18 + 10) = {17.194032, 1.112215, 0};
Point(p18 + 11) = {17.10123366742795, 1.104911612836101, 0};
Point(p18 + 12) = {17.01072033778383, 1.083181284974932, 0};
Point(p18 + 13) = {16.92472074964, 1.047559089207257, 0};
Point(p18 + 14) = {16.84535249827283, 0.9989221622161681, 0};
Point(p18 + 15) = {16.77456989343911, 0.9384681065608906, 0};
Point(p18 + 16) = {16.71411583778383, 0.8676855017271657, 0};
Point(p18 + 17) = {16.66547891079274, 0.7883172503599969, 0};
Point(p18 + 18) = {16.62985671502507, 0.7023176622161682, 0};
Point(p18 + 19) = {16.6081263871639, 0.6118043325720504, 0};
Point(p18 + 20) = {16.600823, 0.5190060000000001, 0};
Point(p18 + 21) = {16.6081263871639, 0.4262076674279497, 0};
Point(p18 + 22) = {16.62985671502507, 0.3356943377838316, 0};
Point(p18 + 23) = {16.66547891079274, 0.2496947496400034, 0};
Point(p18 + 24) = {16.71411583778383, 0.1703264982728344, 0};
Point(p18 + 25) = {16.77456989343911, 0.09954389343910935, 0};
Point(p18 + 26) = {16.84535249827283, 0.03908983778383185, 0};
Point(p18 + 27) = {16.92472074964, -0.009547089207257442, 0};
Point(p18 + 28) = {17.01072033778383, -0.04516928497493178, 0};
Point(p18 + 29) = {17.10123366742795, -0.06689961283610102, 0};
Point(p18 + 30) = {17.194032, -0.07420300000000002, 0};
Point(p18 + 31) = {17.28683033257205, -0.06689961283610113, 0};
Point(p18 + 32) = {17.37734366221617, -0.04516928497493178, 0};
Point(p18 + 33) = {17.46334325036, -0.009547089207257664, 0};
Point(p18 + 34) = {17.54271150172717, 0.03908983778383168, 0};
Point(p18 + 35) = {17.61349410656089, 0.09954389343910919, 0};
Point(p18 + 36) = {17.67394816221617, 0.1703264982728342, 0};
Point(p18 + 37) = {17.72258508920726, 0.249694749640003, 0};
Point(p18 + 38) = {17.75820728497493, 0.3356943377838317, 0};
Point(p18 + 39) = {17.7799376128361, 0.4262076674279495, 0};
Spline(18) = {12, p18 + 1, p18 + 2, p18 + 3, p18 + 4, p18 + 5, p18 + 6, p18 + 7, p18 + 8, p18 + 9, p18 + 10, p18 + 11, p18 + 12, p18 + 13, p18 + 14, p18 + 15, p18 + 16, p18 + 17, p18 + 18, p18 + 19, p18 + 20, p18 + 21, p18 + 22, p18 + 23, p18 + 24, p18 + 25, p18 + 26, p18 + 27, p18 + 28, p18 + 29, p18 + 30, p18 + 31, p18 + 32, p18 + 33, p18 + 34, p18 + 35, p18 + 36, p18 + 37, p18 + 38, p18 + 39, 12};
Line(19) = {14, 13};
Line(20) = {13, 15};
Line(21) = {16, 15};
Line(22) = {14, 16};
Line(23) = {14, 17};
Line(24) = {17, 18};
Line(25) = {13, 18};
Line(26) = {15, 19};
Line(27) = {18, 19};
Line(28) = {16, 20};
Line(29) = {20, 19};
Line(30) = {17, 20};
Curve Loop(7) = {-13, -14, 15, 14};
Surface(7) = {7};
Curve Loop(8) = {13};
Plane Surface(8) = {8};
Curve Loop(9) = {15};
Plane Surface(9) = {9};
Curve Loop(10) = {-16, -17, 18, 17};
Surface(10) = {10};
Curve Loop(11) = {16};
Plane Surface(11) = {11};
Curve Loop(12) = {18};
Plane Surface(12) = {12};
Curve Loop(13) = {-19, 22, 21, -20};
Plane Surface(13) = {13};
Curve Loop(14) = {-23, 19, 25, -24};
Plane Surface(14) = {14};
Curve Loop(15) = {-20, 25, 27, -26};
Plane Surface(15) = {15};
Curve Loop(16) = {-28, 21, 26, -29};
Plane Surface(16) = {16};
Curve Loop(17) = {-22, 23, 30, -28, -15, -18};
Plane Surface(17) = {17};
Curve Loop(18) = {-24, 30, 29, -27};
Plane Surface(18) = {18};
Surface Loop(1) = {13, 14, 15, 16, 17, 18, 7, 10, 8, 11};
Volume(1) = {1};
Surface Loop(2) = {7, 8, 9};
Volume(2) = {2};
Surface Loop(3) = {10, 11, 12};
Volume(3) = {3};
Physical Surface("WALLS") = {13, 18};
Physical Surface("LOAD") = {8, 11};
Physical Surface("BORDER") = {7, 9, 10, 12, 14, 15, 16, 17};
Physical Volume("SOLID") = {1, 2, 3};
