cl__1 = 0.07846499999999999;
cl__2 = 0.09442200000000001;
cl__3 = 0.425063;
cl__4 = 0.242532;
cl__5 = 4.428259;
cl__6 = 4.829049;
Point(9) = {15.360646, -1.242582, 0.1, cl__1};
Point(10) = {15.360646, -1.242582, 0, cl__1};
Point(11) = {4.398586, 2.226382, 0.1, cl__2};
Point(12) = {4.398586, 2.226382, 0, cl__2};
Point(13) = {0.317758, -4.280481, 0.1, cl__3};
Point(14) = {0.317758, -4.280481, 0, cl__3};
Point(15) = {0.317758, 5.490636, 0.1, cl__4};
Point(16) = {0.317758, 5.490636, 0, cl__4};
Point(17) = {39.434022, -4.280481, 0, cl__5};
Point(18) = {39.434022, -4.280481, 0.1, cl__5};
Point(19) = {39.434022, 5.490636, 0.1, cl__6};
Point(20) = {39.434022, 5.490636, 0, cl__6};
p13 = newp;
Point(p13 + 1) = {15.35098565644797, -1.119835697006183, 0.1};
Point(p13 + 2) = {15.32224249551099, -1.000111815363698, 0.1};
Point(p13 + 3) = {15.2751242692044, -0.8863583543793647, 0.1};
Point(p13 + 4) = {15.2107911846363, -0.781376301788711, 0.1};
Point(p13 + 5) = {15.13082733585802, -0.6877506641419756, 0.1};
Point(p13 + 6) = {15.03720169821129, -0.6077868153636977, 0.1};
Point(p13 + 7) = {14.93221964562064, -0.5434537307955973, 0.1};
Point(p13 + 8) = {14.8184661846363, -0.4963355044890079, 0.1};
Point(p13 + 9) = {14.69874230299382, -0.4675923435520253, 0.1};
Point(p13 + 10) = {14.575996, -0.4579320000000001, 0.1};
Point(p13 + 11) = {14.45324969700618, -0.4675923435520254, 0.1};
Point(p13 + 12) = {14.3335258153637, -0.4963355044890078, 0.1};
Point(p13 + 13) = {14.21977235437936, -0.5434537307955972, 0.1};
Point(p13 + 14) = {14.11479030178871, -0.6077868153636976, 0.1};
Point(p13 + 15) = {14.02116466414198, -0.6877506641419755, 0.1};
Point(p13 + 16) = {13.9412008153637, -0.781376301788711, 0.1};
Point(p13 + 17) = {13.8768677307956, -0.8863583543793647, 0.1};
Point(p13 + 18) = {13.82974950448901, -1.000111815363697, 0.1};
Point(p13 + 19) = {13.80100634355203, -1.119835697006183, 0.1};
Point(p13 + 20) = {13.791346, -1.242582, 0.1};
Point(p13 + 21) = {13.80100634355203, -1.365328302993817, 0.1};
Point(p13 + 22) = {13.82974950448901, -1.485052184636303, 0.1};
Point(p13 + 23) = {13.8768677307956, -1.598805645620635, 0.1};
Point(p13 + 24) = {13.9412008153637, -1.703787698211289, 0.1};
Point(p13 + 25) = {14.02116466414198, -1.797413335858025, 0.1};
Point(p13 + 26) = {14.11479030178871, -1.877377184636302, 0.1};
Point(p13 + 27) = {14.21977235437936, -1.941710269204403, 0.1};
Point(p13 + 28) = {14.3335258153637, -1.988828495510992, 0.1};
Point(p13 + 29) = {14.45324969700618, -2.017571656447975, 0.1};
Point(p13 + 30) = {14.575996, -2.027232, 0.1};
Point(p13 + 31) = {14.69874230299382, -2.017571656447975, 0.1};
Point(p13 + 32) = {14.8184661846363, -1.988828495510993, 0.1};
Point(p13 + 33) = {14.93221964562064, -1.941710269204403, 0.1};
Point(p13 + 34) = {15.03720169821129, -1.877377184636303, 0.1};
Point(p13 + 35) = {15.13082733585802, -1.797413335858025, 0.1};
Point(p13 + 36) = {15.2107911846363, -1.703787698211289, 0.1};
Point(p13 + 37) = {15.2751242692044, -1.598805645620636, 0.1};
Point(p13 + 38) = {15.32224249551099, -1.485052184636303, 0.1};
Point(p13 + 39) = {15.35098565644797, -1.365328302993817, 0.1};
Spline(13) = {9, p13 + 1, p13 + 2, p13 + 3, p13 + 4, p13 + 5, p13 + 6, p13 + 7, p13 + 8, p13 + 9, p13 + 10, p13 + 11, p13 + 12, p13 + 13, p13 + 14, p13 + 15, p13 + 16, p13 + 17, p13 + 18, p13 + 19, p13 + 20, p13 + 21, p13 + 22, p13 + 23, p13 + 24, p13 + 25, p13 + 26, p13 + 27, p13 + 28, p13 + 29, p13 + 30, p13 + 31, p13 + 32, p13 + 33, p13 + 34, p13 + 35, p13 + 36, p13 + 37, p13 + 38, p13 + 39, 9};
Line(14) = {10, 9};
p15 = newp;
Point(p15 + 1) = {15.35098565644797, -1.119835697006183, 0};
Point(p15 + 2) = {15.32224249551099, -1.000111815363698, 0};
Point(p15 + 3) = {15.2751242692044, -0.8863583543793647, 0};
Point(p15 + 4) = {15.2107911846363, -0.781376301788711, 0};
Point(p15 + 5) = {15.13082733585802, -0.6877506641419756, 0};
Point(p15 + 6) = {15.03720169821129, -0.6077868153636977, 0};
Point(p15 + 7) = {14.93221964562064, -0.5434537307955973, 0};
Point(p15 + 8) = {14.8184661846363, -0.4963355044890079, 0};
Point(p15 + 9) = {14.69874230299382, -0.4675923435520253, 0};
Point(p15 + 10) = {14.575996, -0.4579320000000001, 0};
Point(p15 + 11) = {14.45324969700618, -0.4675923435520254, 0};
Point(p15 + 12) = {14.3335258153637, -0.4963355044890078, 0};
Point(p15 + 13) = {14.21977235437936, -0.5434537307955972, 0};
Point(p15 + 14) = {14.11479030178871, -0.6077868153636976, 0};
Point(p15 + 15) = {14.02116466414198, -0.6877506641419755, 0};
Point(p15 + 16) = {13.9412008153637, -0.781376301788711, 0};
Point(p15 + 17) = {13.8768677307956, -0.8863583543793647, 0};
Point(p15 + 18) = {13.82974950448901, -1.000111815363697, 0};
Point(p15 + 19) = {13.80100634355203, -1.119835697006183, 0};
Point(p15 + 20) = {13.791346, -1.242582, 0};
Point(p15 + 21) = {13.80100634355203, -1.365328302993817, 0};
Point(p15 + 22) = {13.82974950448901, -1.485052184636303, 0};
Point(p15 + 23) = {13.8768677307956, -1.598805645620635, 0};
Point(p15 + 24) = {13.9412008153637, -1.703787698211289, 0};
Point(p15 + 25) = {14.02116466414198, -1.797413335858025, 0};
Point(p15 + 26) = {14.11479030178871, -1.877377184636302, 0};
Point(p15 + 27) = {14.21977235437936, -1.941710269204403, 0};
Point(p15 + 28) = {14.3335258153637, -1.988828495510992, 0};
Point(p15 + 29) = {14.45324969700618, -2.017571656447975, 0};
Point(p15 + 30) = {14.575996, -2.027232, 0};
Point(p15 + 31) = {14.69874230299382, -2.017571656447975, 0};
Point(p15 + 32) = {14.8184661846363, -1.988828495510993, 0};
Point(p15 + 33) = {14.93221964562064, -1.941710269204403, 0};
Point(p15 + 34) = {15.03720169821129, -1.877377184636303, 0};
Point(p15 + 35) = {15.13082733585802, -1.797413335858025, 0};
Point(p15 + 36) = {15.2107911846363, -1.703787698211289, 0};
Point(p15 + 37) = {15.2751242692044, -1.598805645620636, 0};
Point(p15 + 38) = {15.32224249551099, -1.485052184636303, 0};
Point(p15 + 39) = {15.35098565644797, -1.365328302993817, 0};
Spline(15) = {10, p15 + 1, p15 + 2, p15 + 3, p15 + 4, p15 + 5, p15 + 6, p15 + 7, p15 + 8, p15 + 9, p15 + 10, p15 + 11, p15 + 12, p15 + 13, p15 + 14, p15 + 15, p15 + 16, p15 + 17, p15 + 18, p15 + 19, p15 + 20, p15 + 21, p15 + 22, p15 + 23, p15 + 24, p15 + 25, p15 + 26, p15 + 27, p15 + 28, p15 + 29, p15 + 30, p15 + 31, p15 + 32, p15 + 33, p15 + 34, p15 + 35, p15 + 36, p15 + 37, p15 + 38, p15 + 39, 10};
p16 = newp;
Point(p16 + 1) = {4.386961084956741, 2.374090550580287, 0.1};
Point(p16 + 2) = {4.35237258381621, 2.518162026428713, 0.1};
Point(p16 + 3) = {4.295672180269141, 2.655048909664075, 0.1};
Point(p16 + 4) = {4.218256026428713, 2.781380590919599, 0.1};
Point(p16 + 5) = {4.122030364931962, 2.894046364931962, 0.1};
Point(p16 + 6) = {4.009364590919599, 2.990272026428713, 0.1};
Point(p16 + 7) = {3.883032909664075, 3.06768818026914, 0.1};
Point(p16 + 8) = {3.746146026428713, 3.12438858381621, 0.1};
Point(p16 + 9) = {3.602074550580287, 3.158977084956741, 0.1};
Point(p16 + 10) = {3.454366, 3.170602, 0.1};
Point(p16 + 11) = {3.306657449419713, 3.158977084956741, 0.1};
Point(p16 + 12) = {3.162585973571287, 3.12438858381621, 0.1};
Point(p16 + 13) = {3.025699090335925, 3.067688180269141, 0.1};
Point(p16 + 14) = {2.899367409080401, 2.990272026428713, 0.1};
Point(p16 + 15) = {2.786701635068038, 2.894046364931962, 0.1};
Point(p16 + 16) = {2.690475973571287, 2.781380590919599, 0.1};
Point(p16 + 17) = {2.613059819730859, 2.655048909664075, 0.1};
Point(p16 + 18) = {2.55635941618379, 2.518162026428713, 0.1};
Point(p16 + 19) = {2.521770915043259, 2.374090550580287, 0.1};
Point(p16 + 20) = {2.510146, 2.226382, 0.1};
Point(p16 + 21) = {2.521770915043259, 2.078673449419713, 0.1};
Point(p16 + 22) = {2.55635941618379, 1.934601973571287, 0.1};
Point(p16 + 23) = {2.613059819730859, 1.797715090335926, 0.1};
Point(p16 + 24) = {2.690475973571287, 1.671383409080401, 0.1};
Point(p16 + 25) = {2.786701635068038, 1.558717635068038, 0.1};
Point(p16 + 26) = {2.899367409080401, 1.462491973571287, 0.1};
Point(p16 + 27) = {3.025699090335925, 1.385075819730859, 0.1};
Point(p16 + 28) = {3.162585973571287, 1.32837541618379, 0.1};
Point(p16 + 29) = {3.306657449419713, 1.293786915043259, 0.1};
Point(p16 + 30) = {3.454366, 1.282162, 0.1};
Point(p16 + 31) = {3.602074550580286, 1.293786915043259, 0.1};
Point(p16 + 32) = {3.746146026428713, 1.32837541618379, 0.1};
Point(p16 + 33) = {3.883032909664075, 1.385075819730859, 0.1};
Point(p16 + 34) = {4.009364590919598, 1.462491973571287, 0.1};
Point(p16 + 35) = {4.122030364931962, 1.558717635068038, 0.1};
Point(p16 + 36) = {4.218256026428713, 1.671383409080401, 0.1};
Point(p16 + 37) = {4.295672180269141, 1.797715090335925, 0.1};
Point(p16 + 38) = {4.35237258381621, 1.934601973571287, 0.1};
Point(p16 + 39) = {4.386961084956741, 2.078673449419713, 0.1};
Spline(16) = {11, p16 + 1, p16 + 2, p16 + 3, p16 + 4, p16 + 5, p16 + 6, p16 + 7, p16 + 8, p16 + 9, p16 + 10, p16 + 11, p16 + 12, p16 + 13, p16 + 14, p16 + 15, p16 + 16, p16 + 17, p16 + 18, p16 + 19, p16 + 20, p16 + 21, p16 + 22, p16 + 23, p16 + 24, p16 + 25, p16 + 26, p16 + 27, p16 + 28, p16 + 29, p16 + 30, p16 + 31, p16 + 32, p16 + 33, p16 + 34, p16 + 35, p16 + 36, p16 + 37, p16 + 38, p16 + 39, 11};
Line(17) = {12, 11};
p18 = newp;
Point(p18 + 1) = {4.386961084956741, 2.374090550580287, 0};
Point(p18 + 2) = {4.35237258381621, 2.518162026428713, 0};
Point(p18 + 3) = {4.295672180269141, 2.655048909664075, 0};
Point(p18 + 4) = {4.218256026428713, 2.781380590919599, 0};
Point(p18 + 5) = {4.122030364931962, 2.894046364931962, 0};
Point(p18 + 6) = {4.009364590919599, 2.990272026428713, 0};
Point(p18 + 7) = {3.883032909664075, 3.06768818026914, 0};
Point(p18 + 8) = {3.746146026428713, 3.12438858381621, 0};
Point(p18 + 9) = {3.602074550580287, 3.158977084956741, 0};
Point(p18 + 10) = {3.454366, 3.170602, 0};
Point(p18 + 11) = {3.306657449419713, 3.158977084956741, 0};
Point(p18 + 12) = {3.162585973571287, 3.12438858381621, 0};
Point(p18 + 13) = {3.025699090335925, 3.067688180269141, 0};
Point(p18 + 14) = {2.899367409080401, 2.990272026428713, 0};
Point(p18 + 15) = {2.786701635068038, 2.894046364931962, 0};
Point(p18 + 16) = {2.690475973571287, 2.781380590919599, 0};
Point(p18 + 17) = {2.613059819730859, 2.655048909664075, 0};
Point(p18 + 18) = {2.55635941618379, 2.518162026428713, 0};
Point(p18 + 19) = {2.521770915043259, 2.374090550580287, 0};
Point(p18 + 20) = {2.510146, 2.226382, 0};
Point(p18 + 21) = {2.521770915043259, 2.078673449419713, 0};
Point(p18 + 22) = {2.55635941618379, 1.934601973571287, 0};
Point(p18 + 23) = {2.613059819730859, 1.797715090335926, 0};
Point(p18 + 24) = {2.690475973571287, 1.671383409080401, 0};
Point(p18 + 25) = {2.786701635068038, 1.558717635068038, 0};
Point(p18 + 26) = {2.899367409080401, 1.462491973571287, 0};
Point(p18 + 27) = {3.025699090335925, 1.385075819730859, 0};
Point(p18 + 28) = {3.162585973571287, 1.32837541618379, 0};
Point(p18 + 29) = {3.306657449419713, 1.293786915043259, 0};
Point(p18 + 30) = {3.454366, 1.282162, 0};
Point(p18 + 31) = {3.602074550580286, 1.293786915043259, 0};
Point(p18 + 32) = {3.746146026428713, 1.32837541618379, 0};
Point(p18 + 33) = {3.883032909664075, 1.385075819730859, 0};
Point(p18 + 34) = {4.009364590919598, 1.462491973571287, 0};
Point(p18 + 35) = {4.122030364931962, 1.558717635068038, 0};
Point(p18 + 36) = {4.218256026428713, 1.671383409080401, 0};
Point(p18 + 37) = {4.295672180269141, 1.797715090335925, 0};
Point(p18 + 38) = {4.35237258381621, 1.934601973571287, 0};
Point(p18 + 39) = {4.386961084956741, 2.078673449419713, 0};
Spline(18) = {12, p18 + 1, p18 + 2, p18 + 3, p18 + 4, p18 + 5, p18 + 6, p18 + 7, p18 + 8, p18 + 9, p18 + 10, p18 + 11, p18 + 12, p18 + 13, p18 + 14, p18 + 15, p18 + 16, p18 + 17, p18 + 18, p18 + 19, p18 + 20, p18 + 21, p18 + 22, p18 + 23, p18 + 24, p18 + 25, p18 + 26, p18 + 27, p18 + 28, p18 + 29, p18 + 30, p18 + 31, p18 + 32, p18 + 33, p18 + 34, p18 + 35, p18 + 36, p18 + 37, p18 + 38, p18 + 39, 12};
Line(19) = {14, 13};
Line(20) = {13, 15};
Line(21) = {16, 15};
Line(22) = {14, 16};
Line(23) = {14, 17};
Line(24) = {17, 18};
Line(25) = {13, 18};
Line(26) = {15, 19};
Line(27) = {18, 19};
Line(28) = {16, 20};
Line(29) = {20, 19};
Line(30) = {17, 20};
Curve Loop(7) = {-13, -14, 15, 14};
Surface(7) = {7};
Curve Loop(8) = {13};
Plane Surface(8) = {8};
Curve Loop(9) = {15};
Plane Surface(9) = {9};
Curve Loop(10) = {-16, -17, 18, 17};
Surface(10) = {10};
Curve Loop(11) = {16};
Plane Surface(11) = {11};
Curve Loop(12) = {18};
Plane Surface(12) = {12};
Curve Loop(13) = {-19, 22, 21, -20};
Plane Surface(13) = {13};
Curve Loop(14) = {-23, 19, 25, -24};
Plane Surface(14) = {14};
Curve Loop(15) = {-20, 25, 27, -26, -13, -16};
Plane Surface(15) = {15};
Curve Loop(16) = {-28, 21, 26, -29};
Plane Surface(16) = {16};
Curve Loop(17) = {-22, 23, 30, -28, -15, -18};
Plane Surface(17) = {17};
Curve Loop(18) = {-24, 30, 29, -27};
Plane Surface(18) = {18};
Surface Loop(1) = {13, 14, 15, 16, 17, 18, 7, 10};
Volume(1) = {1};
Surface Loop(2) = {7, 8, 9};
Volume(2) = {2};
Surface Loop(3) = {10, 11, 12};
Volume(3) = {3};
Physical Surface("WALLS") = {13, 18};
Physical Surface("LOAD") = {8, 11};
Physical Surface("BORDER") = {7, 9, 10, 12, 14, 15, 16, 17};
Physical Volume("SOLID") = {1, 2, 3};
