cl__1 = 0.08969000000000001;
cl__2 = 0.1065;
cl__3 = 1.805051;
cl__4 = 2.311763;
cl__5 = 0.573976;
cl__6 = 0.886195;
Point(9) = {30.848141, -2.214003, 0.1, cl__1};
Point(10) = {30.848141, -2.214003, 0, cl__1};
Point(11) = {14.77104, -0.8941890000000003, 0.1, cl__2};
Point(12) = {14.77104, -0.8941890000000003, 0, cl__2};
Point(13) = {0.017143, -3.944552, 0.1, cl__3};
Point(14) = {0.017143, -3.944552, 0, cl__3};
Point(15) = {0.017143, 5.570867, 0.1, cl__4};
Point(16) = {0.017143, 5.570867, 0, cl__4};
Point(17) = {36.74033, -3.944552, 0, cl__5};
Point(18) = {36.74033, -3.944552, 0.1, cl__5};
Point(19) = {36.74033, 5.570867, 0.1, cl__6};
Point(20) = {36.74033, 5.570867, 0, cl__6};
p13 = newp;
Point(p13 + 1) = {30.83709872192642, -2.073697554043277, 0.1};
Point(p13 + 2) = {30.80424378523906, -1.936846893813087, 0.1};
Point(p13 + 3) = {30.75038518751845, -1.806820736745599, 0.1};
Point(p13 + 4) = {30.67684910618691, -1.68682075835989, 0.1};
Point(p13 + 5) = {30.58544624361909, -1.57980175638091, 0.1};
Point(p13 + 6) = {30.47842724164011, -1.488398893813087, 0.1};
Point(p13 + 7) = {30.3584272632544, -1.41486281248155, 0.1};
Point(p13 + 8) = {30.22840110618691, -1.361004214760942, 0.1};
Point(p13 + 9) = {30.09155044595672, -1.328149278073583, 0.1};
Point(p13 + 10) = {29.951245, -1.317107, 0.1};
Point(p13 + 11) = {29.81093955404328, -1.328149278073583, 0.1};
Point(p13 + 12) = {29.67408889381309, -1.361004214760942, 0.1};
Point(p13 + 13) = {29.5440627367456, -1.414862812481549, 0.1};
Point(p13 + 14) = {29.42406275835989, -1.488398893813087, 0.1};
Point(p13 + 15) = {29.31704375638091, -1.57980175638091, 0.1};
Point(p13 + 16) = {29.22564089381309, -1.68682075835989, 0.1};
Point(p13 + 17) = {29.15210481248155, -1.806820736745599, 0.1};
Point(p13 + 18) = {29.09824621476094, -1.936846893813087, 0.1};
Point(p13 + 19) = {29.06539127807358, -2.073697554043277, 0.1};
Point(p13 + 20) = {29.054349, -2.214003, 0.1};
Point(p13 + 21) = {29.06539127807358, -2.354308445956723, 0.1};
Point(p13 + 22) = {29.09824621476094, -2.491159106186913, 0.1};
Point(p13 + 23) = {29.15210481248155, -2.6211852632544, 0.1};
Point(p13 + 24) = {29.22564089381309, -2.74118524164011, 0.1};
Point(p13 + 25) = {29.31704375638091, -2.84820424361909, 0.1};
Point(p13 + 26) = {29.42406275835989, -2.939607106186913, 0.1};
Point(p13 + 27) = {29.5440627367456, -3.01314318751845, 0.1};
Point(p13 + 28) = {29.67408889381309, -3.067001785239058, 0.1};
Point(p13 + 29) = {29.81093955404328, -3.099856721926416, 0.1};
Point(p13 + 30) = {29.951245, -3.110899, 0.1};
Point(p13 + 31) = {30.09155044595672, -3.099856721926417, 0.1};
Point(p13 + 32) = {30.22840110618691, -3.067001785239058, 0.1};
Point(p13 + 33) = {30.3584272632544, -3.01314318751845, 0.1};
Point(p13 + 34) = {30.47842724164011, -2.939607106186913, 0.1};
Point(p13 + 35) = {30.58544624361909, -2.84820424361909, 0.1};
Point(p13 + 36) = {30.67684910618691, -2.74118524164011, 0.1};
Point(p13 + 37) = {30.75038518751845, -2.621185263254401, 0.1};
Point(p13 + 38) = {30.80424378523906, -2.491159106186913, 0.1};
Point(p13 + 39) = {30.83709872192642, -2.354308445956723, 0.1};
Spline(13) = {9, p13 + 1, p13 + 2, p13 + 3, p13 + 4, p13 + 5, p13 + 6, p13 + 7, p13 + 8, p13 + 9, p13 + 10, p13 + 11, p13 + 12, p13 + 13, p13 + 14, p13 + 15, p13 + 16, p13 + 17, p13 + 18, p13 + 19, p13 + 20, p13 + 21, p13 + 22, p13 + 23, p13 + 24, p13 + 25, p13 + 26, p13 + 27, p13 + 28, p13 + 29, p13 + 30, p13 + 31, p13 + 32, p13 + 33, p13 + 34, p13 + 35, p13 + 36, p13 + 37, p13 + 38, p13 + 39, 9};
Line(14) = {10, 9};
p15 = newp;
Point(p15 + 1) = {30.83709872192642, -2.073697554043277, 0};
Point(p15 + 2) = {30.80424378523906, -1.936846893813087, 0};
Point(p15 + 3) = {30.75038518751845, -1.806820736745599, 0};
Point(p15 + 4) = {30.67684910618691, -1.68682075835989, 0};
Point(p15 + 5) = {30.58544624361909, -1.57980175638091, 0};
Point(p15 + 6) = {30.47842724164011, -1.488398893813087, 0};
Point(p15 + 7) = {30.3584272632544, -1.41486281248155, 0};
Point(p15 + 8) = {30.22840110618691, -1.361004214760942, 0};
Point(p15 + 9) = {30.09155044595672, -1.328149278073583, 0};
Point(p15 + 10) = {29.951245, -1.317107, 0};
Point(p15 + 11) = {29.81093955404328, -1.328149278073583, 0};
Point(p15 + 12) = {29.67408889381309, -1.361004214760942, 0};
Point(p15 + 13) = {29.5440627367456, -1.414862812481549, 0};
Point(p15 + 14) = {29.42406275835989, -1.488398893813087, 0};
Point(p15 + 15) = {29.31704375638091, -1.57980175638091, 0};
Point(p15 + 16) = {29.22564089381309, -1.68682075835989, 0};
Point(p15 + 17) = {29.15210481248155, -1.806820736745599, 0};
Point(p15 + 18) = {29.09824621476094, -1.936846893813087, 0};
Point(p15 + 19) = {29.06539127807358, -2.073697554043277, 0};
Point(p15 + 20) = {29.054349, -2.214003, 0};
Point(p15 + 21) = {29.06539127807358, -2.354308445956723, 0};
Point(p15 + 22) = {29.09824621476094, -2.491159106186913, 0};
Point(p15 + 23) = {29.15210481248155, -2.6211852632544, 0};
Point(p15 + 24) = {29.22564089381309, -2.74118524164011, 0};
Point(p15 + 25) = {29.31704375638091, -2.84820424361909, 0};
Point(p15 + 26) = {29.42406275835989, -2.939607106186913, 0};
Point(p15 + 27) = {29.5440627367456, -3.01314318751845, 0};
Point(p15 + 28) = {29.67408889381309, -3.067001785239058, 0};
Point(p15 + 29) = {29.81093955404328, -3.099856721926416, 0};
Point(p15 + 30) = {29.951245, -3.110899, 0};
Point(p15 + 31) = {30.09155044595672, -3.099856721926417, 0};
Point(p15 + 32) = {30.22840110618691, -3.067001785239058, 0};
Point(p15 + 33) = {30.3584272632544, -3.01314318751845, 0};
Point(p15 + 34) = {30.47842724164011, -2.939607106186913, 0};
Point(p15 + 35) = {30.58544624361909, -2.84820424361909, 0};
Point(p15 + 36) = {30.67684910618691, -2.74118524164011, 0};
Point(p15 + 37) = {30.75038518751845, -2.621185263254401, 0};
Point(p15 + 38) = {30.80424378523906, -2.491159106186913, 0};
Point(p15 + 39) = {30.83709872192642, -2.354308445956723, 0};
Spline(15) = {10, p15 + 1, p15 + 2, p15 + 3, p15 + 4, p15 + 5, p15 + 6, p15 + 7, p15 + 8, p15 + 9, p15 + 10, p15 + 11, p15 + 12, p15 + 13, p15 + 14, p15 + 15, p15 + 16, p15 + 17, p15 + 18, p15 + 19, p15 + 20, p15 + 21, p15 + 22, p15 + 23, p15 + 24, p15 + 25, p15 + 26, p15 + 27, p15 + 28, p15 + 29, p15 + 30, p15 + 31, p15 + 32, p15 + 33, p15 + 34, p15 + 35, p15 + 36, p15 + 37, p15 + 38, p15 + 39, 10};
p16 = newp;
Point(p16 + 1) = {14.7579280581105, -0.7275859818632241, 0.1};
Point(p16 + 2) = {14.71891509196737, -0.5650852829566924, 0.1};
Point(p16 + 3) = {14.65496173027366, -0.4106882097963833, 0.1};
Point(p16 + 4) = {14.56764271704331, -0.2681965307380115, 0.1};
Point(p16 + 5) = {14.45910813617724, -0.1411188638227646, 0.1};
Point(p16 + 6) = {14.33203046926199, -0.03258428295669236, 0.1};
Point(p16 + 7) = {14.18953879020362, 0.05473473027366005, 0.1};
Point(p16 + 8) = {14.03514171704331, 0.1186880919673711, 0.1};
Point(p16 + 9) = {13.87264101813678, 0.1577010581105028, 0.1};
Point(p16 + 10) = {13.706038, 0.170813, 0.1};
Point(p16 + 11) = {13.53943498186322, 0.1577010581105028, 0.1};
Point(p16 + 12) = {13.37693428295669, 0.1186880919673713, 0.1};
Point(p16 + 13) = {13.22253720979638, 0.05473473027366016, 0.1};
Point(p16 + 14) = {13.08004553073801, -0.03258428295669225, 0.1};
Point(p16 + 15) = {12.95296786382276, -0.1411188638227645, 0.1};
Point(p16 + 16) = {12.84443328295669, -0.2681965307380114, 0.1};
Point(p16 + 17) = {12.75711426972634, -0.4106882097963832, 0.1};
Point(p16 + 18) = {12.69316090803263, -0.5650852829566921, 0.1};
Point(p16 + 19) = {12.6541479418895, -0.727585981863224, 0.1};
Point(p16 + 20) = {12.641036, -0.8941889999999999, 0.1};
Point(p16 + 21) = {12.6541479418895, -1.060792018136776, 0.1};
Point(p16 + 22) = {12.69316090803263, -1.223292717043308, 0.1};
Point(p16 + 23) = {12.75711426972634, -1.377689790203616, 0.1};
Point(p16 + 24) = {12.84443328295669, -1.520181469261988, 0.1};
Point(p16 + 25) = {12.95296786382276, -1.647259136177235, 0.1};
Point(p16 + 26) = {13.08004553073801, -1.755793717043308, 0.1};
Point(p16 + 27) = {13.22253720979638, -1.84311273027366, 0.1};
Point(p16 + 28) = {13.37693428295669, -1.907066091967371, 0.1};
Point(p16 + 29) = {13.53943498186322, -1.946079058110503, 0.1};
Point(p16 + 30) = {13.706038, -1.959191, 0.1};
Point(p16 + 31) = {13.87264101813678, -1.946079058110503, 0.1};
Point(p16 + 32) = {14.03514171704331, -1.907066091967371, 0.1};
Point(p16 + 33) = {14.18953879020362, -1.84311273027366, 0.1};
Point(p16 + 34) = {14.33203046926199, -1.755793717043308, 0.1};
Point(p16 + 35) = {14.45910813617724, -1.647259136177236, 0.1};
Point(p16 + 36) = {14.56764271704331, -1.520181469261989, 0.1};
Point(p16 + 37) = {14.65496173027366, -1.377689790203617, 0.1};
Point(p16 + 38) = {14.71891509196737, -1.223292717043308, 0.1};
Point(p16 + 39) = {14.7579280581105, -1.060792018136776, 0.1};
Spline(16) = {11, p16 + 1, p16 + 2, p16 + 3, p16 + 4, p16 + 5, p16 + 6, p16 + 7, p16 + 8, p16 + 9, p16 + 10, p16 + 11, p16 + 12, p16 + 13, p16 + 14, p16 + 15, p16 + 16, p16 + 17, p16 + 18, p16 + 19, p16 + 20, p16 + 21, p16 + 22, p16 + 23, p16 + 24, p16 + 25, p16 + 26, p16 + 27, p16 + 28, p16 + 29, p16 + 30, p16 + 31, p16 + 32, p16 + 33, p16 + 34, p16 + 35, p16 + 36, p16 + 37, p16 + 38, p16 + 39, 11};
Line(17) = {12, 11};
p18 = newp;
Point(p18 + 1) = {14.7579280581105, -0.7275859818632241, 0};
Point(p18 + 2) = {14.71891509196737, -0.5650852829566924, 0};
Point(p18 + 3) = {14.65496173027366, -0.4106882097963833, 0};
Point(p18 + 4) = {14.56764271704331, -0.2681965307380115, 0};
Point(p18 + 5) = {14.45910813617724, -0.1411188638227646, 0};
Point(p18 + 6) = {14.33203046926199, -0.03258428295669236, 0};
Point(p18 + 7) = {14.18953879020362, 0.05473473027366005, 0};
Point(p18 + 8) = {14.03514171704331, 0.1186880919673711, 0};
Point(p18 + 9) = {13.87264101813678, 0.1577010581105028, 0};
Point(p18 + 10) = {13.706038, 0.170813, 0};
Point(p18 + 11) = {13.53943498186322, 0.1577010581105028, 0};
Point(p18 + 12) = {13.37693428295669, 0.1186880919673713, 0};
Point(p18 + 13) = {13.22253720979638, 0.05473473027366016, 0};
Point(p18 + 14) = {13.08004553073801, -0.03258428295669225, 0};
Point(p18 + 15) = {12.95296786382276, -0.1411188638227645, 0};
Point(p18 + 16) = {12.84443328295669, -0.2681965307380114, 0};
Point(p18 + 17) = {12.75711426972634, -0.4106882097963832, 0};
Point(p18 + 18) = {12.69316090803263, -0.5650852829566921, 0};
Point(p18 + 19) = {12.6541479418895, -0.727585981863224, 0};
Point(p18 + 20) = {12.641036, -0.8941889999999999, 0};
Point(p18 + 21) = {12.6541479418895, -1.060792018136776, 0};
Point(p18 + 22) = {12.69316090803263, -1.223292717043308, 0};
Point(p18 + 23) = {12.75711426972634, -1.377689790203616, 0};
Point(p18 + 24) = {12.84443328295669, -1.520181469261988, 0};
Point(p18 + 25) = {12.95296786382276, -1.647259136177235, 0};
Point(p18 + 26) = {13.08004553073801, -1.755793717043308, 0};
Point(p18 + 27) = {13.22253720979638, -1.84311273027366, 0};
Point(p18 + 28) = {13.37693428295669, -1.907066091967371, 0};
Point(p18 + 29) = {13.53943498186322, -1.946079058110503, 0};
Point(p18 + 30) = {13.706038, -1.959191, 0};
Point(p18 + 31) = {13.87264101813678, -1.946079058110503, 0};
Point(p18 + 32) = {14.03514171704331, -1.907066091967371, 0};
Point(p18 + 33) = {14.18953879020362, -1.84311273027366, 0};
Point(p18 + 34) = {14.33203046926199, -1.755793717043308, 0};
Point(p18 + 35) = {14.45910813617724, -1.647259136177236, 0};
Point(p18 + 36) = {14.56764271704331, -1.520181469261989, 0};
Point(p18 + 37) = {14.65496173027366, -1.377689790203617, 0};
Point(p18 + 38) = {14.71891509196737, -1.223292717043308, 0};
Point(p18 + 39) = {14.7579280581105, -1.060792018136776, 0};
Spline(18) = {12, p18 + 1, p18 + 2, p18 + 3, p18 + 4, p18 + 5, p18 + 6, p18 + 7, p18 + 8, p18 + 9, p18 + 10, p18 + 11, p18 + 12, p18 + 13, p18 + 14, p18 + 15, p18 + 16, p18 + 17, p18 + 18, p18 + 19, p18 + 20, p18 + 21, p18 + 22, p18 + 23, p18 + 24, p18 + 25, p18 + 26, p18 + 27, p18 + 28, p18 + 29, p18 + 30, p18 + 31, p18 + 32, p18 + 33, p18 + 34, p18 + 35, p18 + 36, p18 + 37, p18 + 38, p18 + 39, 12};
Line(19) = {14, 13};
Line(20) = {13, 15};
Line(21) = {16, 15};
Line(22) = {14, 16};
Line(23) = {14, 17};
Line(24) = {17, 18};
Line(25) = {13, 18};
Line(26) = {15, 19};
Line(27) = {18, 19};
Line(28) = {16, 20};
Line(29) = {20, 19};
Line(30) = {17, 20};
Curve Loop(7) = {-13, -14, 15, 14};
Surface(7) = {7};
Curve Loop(8) = {13};
Plane Surface(8) = {8};
Curve Loop(9) = {15};
Plane Surface(9) = {9};
Curve Loop(10) = {-16, -17, 18, 17};
Surface(10) = {10};
Curve Loop(11) = {16};
Plane Surface(11) = {11};
Curve Loop(12) = {18};
Plane Surface(12) = {12};
Curve Loop(13) = {-19, 22, 21, -20};
Plane Surface(13) = {13};
Curve Loop(14) = {-23, 19, 25, -24};
Plane Surface(14) = {14};
Curve Loop(15) = {-20, 25, 27, -26, -13, -16};
Plane Surface(15) = {15};
Curve Loop(16) = {-28, 21, 26, -29};
Plane Surface(16) = {16};
Curve Loop(17) = {-22, 23, 30, -28, -15, -18};
Plane Surface(17) = {17};
Curve Loop(18) = {-24, 30, 29, -27};
Plane Surface(18) = {18};
Surface Loop(1) = {13, 14, 15, 16, 17, 18, 7, 10};
Volume(1) = {1};
Surface Loop(2) = {7, 8, 9};
Volume(2) = {2};
Surface Loop(3) = {10, 11, 12};
Volume(3) = {3};
Physical Surface("WALLS") = {13, 18};
Physical Surface("LOAD") = {8, 11};
Physical Surface("BORDER") = {7, 9, 10, 12, 14, 15, 16, 17};
Physical Volume("SOLID") = {1, 2, 3};
