cl__1 = 0.054551;
cl__2 = 0.080251;
cl__3 = 0.824539;
cl__4 = 0.74727;
cl__5 = 2.096042;
cl__6 = 1.514601;
Point(9) = {19.897371, 2.425463, 0.1, cl__1};
Point(10) = {19.897371, 2.425463, 0, cl__1};
Point(11) = {9.007905000000001, 1.169125, 0.1, cl__2};
Point(12) = {9.007905000000001, 1.169125, 0, cl__2};
Point(13) = {0.058752, -4.552421, 0.1, cl__3};
Point(14) = {0.058752, -4.552421, 0, cl__3};
Point(15) = {0.058752, 5.218145000000001, 0.1, cl__4};
Point(16) = {0.058752, 5.218145000000001, 0, cl__4};
Point(17) = {32.348414, -4.552421, 0, cl__5};
Point(18) = {32.348414, -4.552421, 0.1, cl__5};
Point(19) = {32.348414, 5.218145000000001, 0.1, cl__6};
Point(20) = {32.348414, 5.218145000000001, 0, cl__6};
p13 = newp;
Point(p13 + 1) = {19.89065484205474, 2.510799877893027, 0.1};
Point(p13 + 2) = {19.8706717423172, 2.594035478635466, 0.1};
Point(p13 + 3) = {19.83791375102304, 2.67312026549392, 0.1};
Point(p13 + 4) = {19.79318747863547, 2.746106908548572, 0.1};
Point(p13 + 5) = {19.73759423441864, 2.811198234418636, 0.1};
Point(p13 + 6) = {19.67250290854857, 2.866791478635466, 0.1};
Point(p13 + 7) = {19.59951626549392, 2.911517751023045, 0.1};
Point(p13 + 8) = {19.52043147863547, 2.944275742317202, 0.1};
Point(p13 + 9) = {19.43719587789303, 2.964258842054735, 0.1};
Point(p13 + 10) = {19.351859, 2.970975, 0.1};
Point(p13 + 11) = {19.26652212210697, 2.964258842054735, 0.1};
Point(p13 + 12) = {19.18328652136454, 2.944275742317202, 0.1};
Point(p13 + 13) = {19.10420173450608, 2.911517751023045, 0.1};
Point(p13 + 14) = {19.03121509145143, 2.866791478635466, 0.1};
Point(p13 + 15) = {18.96612376558137, 2.811198234418636, 0.1};
Point(p13 + 16) = {18.91053052136454, 2.746106908548572, 0.1};
Point(p13 + 17) = {18.86580424897696, 2.67312026549392, 0.1};
Point(p13 + 18) = {18.8330462576828, 2.594035478635467, 0.1};
Point(p13 + 19) = {18.81306315794527, 2.510799877893027, 0.1};
Point(p13 + 20) = {18.806347, 2.425463, 0.1};
Point(p13 + 21) = {18.81306315794527, 2.340126122106974, 0.1};
Point(p13 + 22) = {18.8330462576828, 2.256890521364534, 0.1};
Point(p13 + 23) = {18.86580424897696, 2.177805734506081, 0.1};
Point(p13 + 24) = {18.91053052136454, 2.104819091451429, 0.1};
Point(p13 + 25) = {18.96612376558137, 2.039727765581364, 0.1};
Point(p13 + 26) = {19.03121509145143, 1.984134521364534, 0.1};
Point(p13 + 27) = {19.10420173450608, 1.939408248976955, 0.1};
Point(p13 + 28) = {19.18328652136454, 1.906650257682798, 0.1};
Point(p13 + 29) = {19.26652212210697, 1.886667157945265, 0.1};
Point(p13 + 30) = {19.351859, 1.879951, 0.1};
Point(p13 + 31) = {19.43719587789303, 1.886667157945265, 0.1};
Point(p13 + 32) = {19.52043147863547, 1.906650257682798, 0.1};
Point(p13 + 33) = {19.59951626549392, 1.939408248976955, 0.1};
Point(p13 + 34) = {19.67250290854857, 1.984134521364534, 0.1};
Point(p13 + 35) = {19.73759423441864, 2.039727765581364, 0.1};
Point(p13 + 36) = {19.79318747863547, 2.104819091451429, 0.1};
Point(p13 + 37) = {19.83791375102304, 2.17780573450608, 0.1};
Point(p13 + 38) = {19.8706717423172, 2.256890521364534, 0.1};
Point(p13 + 39) = {19.89065484205474, 2.340126122106974, 0.1};
Spline(13) = {9, p13 + 1, p13 + 2, p13 + 3, p13 + 4, p13 + 5, p13 + 6, p13 + 7, p13 + 8, p13 + 9, p13 + 10, p13 + 11, p13 + 12, p13 + 13, p13 + 14, p13 + 15, p13 + 16, p13 + 17, p13 + 18, p13 + 19, p13 + 20, p13 + 21, p13 + 22, p13 + 23, p13 + 24, p13 + 25, p13 + 26, p13 + 27, p13 + 28, p13 + 29, p13 + 30, p13 + 31, p13 + 32, p13 + 33, p13 + 34, p13 + 35, p13 + 36, p13 + 37, p13 + 38, p13 + 39, 9};
Line(14) = {10, 9};
p15 = newp;
Point(p15 + 1) = {19.89065484205474, 2.510799877893027, 0};
Point(p15 + 2) = {19.8706717423172, 2.594035478635466, 0};
Point(p15 + 3) = {19.83791375102304, 2.67312026549392, 0};
Point(p15 + 4) = {19.79318747863547, 2.746106908548572, 0};
Point(p15 + 5) = {19.73759423441864, 2.811198234418636, 0};
Point(p15 + 6) = {19.67250290854857, 2.866791478635466, 0};
Point(p15 + 7) = {19.59951626549392, 2.911517751023045, 0};
Point(p15 + 8) = {19.52043147863547, 2.944275742317202, 0};
Point(p15 + 9) = {19.43719587789303, 2.964258842054735, 0};
Point(p15 + 10) = {19.351859, 2.970975, 0};
Point(p15 + 11) = {19.26652212210697, 2.964258842054735, 0};
Point(p15 + 12) = {19.18328652136454, 2.944275742317202, 0};
Point(p15 + 13) = {19.10420173450608, 2.911517751023045, 0};
Point(p15 + 14) = {19.03121509145143, 2.866791478635466, 0};
Point(p15 + 15) = {18.96612376558137, 2.811198234418636, 0};
Point(p15 + 16) = {18.91053052136454, 2.746106908548572, 0};
Point(p15 + 17) = {18.86580424897696, 2.67312026549392, 0};
Point(p15 + 18) = {18.8330462576828, 2.594035478635467, 0};
Point(p15 + 19) = {18.81306315794527, 2.510799877893027, 0};
Point(p15 + 20) = {18.806347, 2.425463, 0};
Point(p15 + 21) = {18.81306315794527, 2.340126122106974, 0};
Point(p15 + 22) = {18.8330462576828, 2.256890521364534, 0};
Point(p15 + 23) = {18.86580424897696, 2.177805734506081, 0};
Point(p15 + 24) = {18.91053052136454, 2.104819091451429, 0};
Point(p15 + 25) = {18.96612376558137, 2.039727765581364, 0};
Point(p15 + 26) = {19.03121509145143, 1.984134521364534, 0};
Point(p15 + 27) = {19.10420173450608, 1.939408248976955, 0};
Point(p15 + 28) = {19.18328652136454, 1.906650257682798, 0};
Point(p15 + 29) = {19.26652212210697, 1.886667157945265, 0};
Point(p15 + 30) = {19.351859, 1.879951, 0};
Point(p15 + 31) = {19.43719587789303, 1.886667157945265, 0};
Point(p15 + 32) = {19.52043147863547, 1.906650257682798, 0};
Point(p15 + 33) = {19.59951626549392, 1.939408248976955, 0};
Point(p15 + 34) = {19.67250290854857, 1.984134521364534, 0};
Point(p15 + 35) = {19.73759423441864, 2.039727765581364, 0};
Point(p15 + 36) = {19.79318747863547, 2.104819091451429, 0};
Point(p15 + 37) = {19.83791375102304, 2.17780573450608, 0};
Point(p15 + 38) = {19.8706717423172, 2.256890521364534, 0};
Point(p15 + 39) = {19.89065484205474, 2.340126122106974, 0};
Spline(15) = {10, p15 + 1, p15 + 2, p15 + 3, p15 + 4, p15 + 5, p15 + 6, p15 + 7, p15 + 8, p15 + 9, p15 + 10, p15 + 11, p15 + 12, p15 + 13, p15 + 14, p15 + 15, p15 + 16, p15 + 17, p15 + 18, p15 + 19, p15 + 20, p15 + 21, p15 + 22, p15 + 23, p15 + 24, p15 + 25, p15 + 26, p15 + 27, p15 + 28, p15 + 29, p15 + 30, p15 + 31, p15 + 32, p15 + 33, p15 + 34, p15 + 35, p15 + 36, p15 + 37, p15 + 38, p15 + 39, 10};
p16 = newp;
Point(p16 + 1) = {8.998024807145983, 1.29466475323604, 0.1};
Point(p16 + 2) = {8.968627511722476, 1.417113301104856, 0.1};
Point(p16 + 3) = {8.920436972706835, 1.533455553974485, 0.1};
Point(p16 + 4) = {8.854639801104856, 1.640826779461476, 0.1};
Point(p16 + 5) = {8.772856141649672, 1.736583141649673, 0.1};
Point(p16 + 6) = {8.677099779461477, 1.818366801104856, 0.1};
Point(p16 + 7) = {8.569728553974485, 1.884163972706834, 0.1};
Point(p16 + 8) = {8.453386301104857, 1.932354511722475, 0.1};
Point(p16 + 9) = {8.330937753236041, 1.961751807145982, 0.1};
Point(p16 + 10) = {8.205398000000001, 1.971632, 0.1};
Point(p16 + 11) = {8.07985824676396, 1.961751807145982, 0.1};
Point(p16 + 12) = {7.957409698895145, 1.932354511722475, 0.1};
Point(p16 + 13) = {7.841067446025516, 1.884163972706835, 0.1};
Point(p16 + 14) = {7.733696220538525, 1.818366801104856, 0.1};
Point(p16 + 15) = {7.637939858350328, 1.736583141649673, 0.1};
Point(p16 + 16) = {7.556156198895144, 1.640826779461476, 0.1};
Point(p16 + 17) = {7.490359027293167, 1.533455553974485, 0.1};
Point(p16 + 18) = {7.442168488277526, 1.417113301104856, 0.1};
Point(p16 + 19) = {7.412771192854018, 1.294664753236041, 0.1};
Point(p16 + 20) = {7.402891, 1.169125, 0.1};
Point(p16 + 21) = {7.412771192854018, 1.043585246763959, 0.1};
Point(p16 + 22) = {7.442168488277526, 0.9211366988951438, 0.1};
Point(p16 + 23) = {7.490359027293166, 0.8047944460255159, 0.1};
Point(p16 + 24) = {7.556156198895144, 0.6974232205385243, 0.1};
Point(p16 + 25) = {7.637939858350328, 0.6016668583503273, 0.1};
Point(p16 + 26) = {7.733696220538524, 0.5198831988951441, 0.1};
Point(p16 + 27) = {7.841067446025516, 0.4540860272931655, 0.1};
Point(p16 + 28) = {7.957409698895145, 0.4058954882775252, 0.1};
Point(p16 + 29) = {8.07985824676396, 0.3764981928540179, 0.1};
Point(p16 + 30) = {8.205398000000001, 0.366618, 0.1};
Point(p16 + 31) = {8.330937753236041, 0.3764981928540178, 0.1};
Point(p16 + 32) = {8.453386301104857, 0.4058954882775251, 0.1};
Point(p16 + 33) = {8.569728553974485, 0.4540860272931654, 0.1};
Point(p16 + 34) = {8.677099779461477, 0.519883198895144, 0.1};
Point(p16 + 35) = {8.772856141649672, 0.6016668583503272, 0.1};
Point(p16 + 36) = {8.854639801104856, 0.6974232205385242, 0.1};
Point(p16 + 37) = {8.920436972706835, 0.8047944460255154, 0.1};
Point(p16 + 38) = {8.968627511722476, 0.9211366988951439, 0.1};
Point(p16 + 39) = {8.998024807145983, 1.043585246763959, 0.1};
Spline(16) = {11, p16 + 1, p16 + 2, p16 + 3, p16 + 4, p16 + 5, p16 + 6, p16 + 7, p16 + 8, p16 + 9, p16 + 10, p16 + 11, p16 + 12, p16 + 13, p16 + 14, p16 + 15, p16 + 16, p16 + 17, p16 + 18, p16 + 19, p16 + 20, p16 + 21, p16 + 22, p16 + 23, p16 + 24, p16 + 25, p16 + 26, p16 + 27, p16 + 28, p16 + 29, p16 + 30, p16 + 31, p16 + 32, p16 + 33, p16 + 34, p16 + 35, p16 + 36, p16 + 37, p16 + 38, p16 + 39, 11};
Line(17) = {12, 11};
p18 = newp;
Point(p18 + 1) = {8.998024807145983, 1.29466475323604, 0};
Point(p18 + 2) = {8.968627511722476, 1.417113301104856, 0};
Point(p18 + 3) = {8.920436972706835, 1.533455553974485, 0};
Point(p18 + 4) = {8.854639801104856, 1.640826779461476, 0};
Point(p18 + 5) = {8.772856141649672, 1.736583141649673, 0};
Point(p18 + 6) = {8.677099779461477, 1.818366801104856, 0};
Point(p18 + 7) = {8.569728553974485, 1.884163972706834, 0};
Point(p18 + 8) = {8.453386301104857, 1.932354511722475, 0};
Point(p18 + 9) = {8.330937753236041, 1.961751807145982, 0};
Point(p18 + 10) = {8.205398000000001, 1.971632, 0};
Point(p18 + 11) = {8.07985824676396, 1.961751807145982, 0};
Point(p18 + 12) = {7.957409698895145, 1.932354511722475, 0};
Point(p18 + 13) = {7.841067446025516, 1.884163972706835, 0};
Point(p18 + 14) = {7.733696220538525, 1.818366801104856, 0};
Point(p18 + 15) = {7.637939858350328, 1.736583141649673, 0};
Point(p18 + 16) = {7.556156198895144, 1.640826779461476, 0};
Point(p18 + 17) = {7.490359027293167, 1.533455553974485, 0};
Point(p18 + 18) = {7.442168488277526, 1.417113301104856, 0};
Point(p18 + 19) = {7.412771192854018, 1.294664753236041, 0};
Point(p18 + 20) = {7.402891, 1.169125, 0};
Point(p18 + 21) = {7.412771192854018, 1.043585246763959, 0};
Point(p18 + 22) = {7.442168488277526, 0.9211366988951438, 0};
Point(p18 + 23) = {7.490359027293166, 0.8047944460255159, 0};
Point(p18 + 24) = {7.556156198895144, 0.6974232205385243, 0};
Point(p18 + 25) = {7.637939858350328, 0.6016668583503273, 0};
Point(p18 + 26) = {7.733696220538524, 0.5198831988951441, 0};
Point(p18 + 27) = {7.841067446025516, 0.4540860272931655, 0};
Point(p18 + 28) = {7.957409698895145, 0.4058954882775252, 0};
Point(p18 + 29) = {8.07985824676396, 0.3764981928540179, 0};
Point(p18 + 30) = {8.205398000000001, 0.366618, 0};
Point(p18 + 31) = {8.330937753236041, 0.3764981928540178, 0};
Point(p18 + 32) = {8.453386301104857, 0.4058954882775251, 0};
Point(p18 + 33) = {8.569728553974485, 0.4540860272931654, 0};
Point(p18 + 34) = {8.677099779461477, 0.519883198895144, 0};
Point(p18 + 35) = {8.772856141649672, 0.6016668583503272, 0};
Point(p18 + 36) = {8.854639801104856, 0.6974232205385242, 0};
Point(p18 + 37) = {8.920436972706835, 0.8047944460255154, 0};
Point(p18 + 38) = {8.968627511722476, 0.9211366988951439, 0};
Point(p18 + 39) = {8.998024807145983, 1.043585246763959, 0};
Spline(18) = {12, p18 + 1, p18 + 2, p18 + 3, p18 + 4, p18 + 5, p18 + 6, p18 + 7, p18 + 8, p18 + 9, p18 + 10, p18 + 11, p18 + 12, p18 + 13, p18 + 14, p18 + 15, p18 + 16, p18 + 17, p18 + 18, p18 + 19, p18 + 20, p18 + 21, p18 + 22, p18 + 23, p18 + 24, p18 + 25, p18 + 26, p18 + 27, p18 + 28, p18 + 29, p18 + 30, p18 + 31, p18 + 32, p18 + 33, p18 + 34, p18 + 35, p18 + 36, p18 + 37, p18 + 38, p18 + 39, 12};
Line(19) = {14, 13};
Line(20) = {13, 15};
Line(21) = {16, 15};
Line(22) = {14, 16};
Line(23) = {14, 17};
Line(24) = {17, 18};
Line(25) = {13, 18};
Line(26) = {15, 19};
Line(27) = {18, 19};
Line(28) = {16, 20};
Line(29) = {20, 19};
Line(30) = {17, 20};
Curve Loop(7) = {-13, -14, 15, 14};
Surface(7) = {7};
Curve Loop(8) = {13};
Plane Surface(8) = {8};
Curve Loop(9) = {15};
Plane Surface(9) = {9};
Curve Loop(10) = {-16, -17, 18, 17};
Surface(10) = {10};
Curve Loop(11) = {16};
Plane Surface(11) = {11};
Curve Loop(12) = {18};
Plane Surface(12) = {12};
Curve Loop(13) = {-19, 22, 21, -20};
Plane Surface(13) = {13};
Curve Loop(14) = {-23, 19, 25, -24};
Plane Surface(14) = {14};
Curve Loop(15) = {-20, 25, 27, -26, -16, -13};
Plane Surface(15) = {15};
Curve Loop(16) = {-28, 21, 26, -29};
Plane Surface(16) = {16};
Curve Loop(17) = {-22, 23, 30, -28, -18, -15};
Plane Surface(17) = {17};
Curve Loop(18) = {-24, 30, 29, -27};
Plane Surface(18) = {18};
Surface Loop(1) = {13, 14, 15, 16, 17, 18, 10, 7};
Volume(1) = {1};
Surface Loop(2) = {7, 8, 9};
Volume(2) = {2};
Surface Loop(3) = {10, 11, 12};
Volume(3) = {3};
Physical Surface("WALLS") = {13, 18};
Physical Surface("LOAD") = {8, 11};
Physical Surface("BORDER") = {7, 9, 10, 12, 14, 15, 16, 17};
Physical Volume("SOLID") = {1, 2, 3};
