cl__1 = 0.115829;
cl__2 = 0.102407;
cl__3 = 0.72883;
cl__4 = 0.643077;
cl__5 = 2.102964;
cl__6 = 2.443531;
Point(9) = {9.226991, 1.760036, 0.1, cl__1};
Point(10) = {9.226991, 1.760036, 0, cl__1};
Point(11) = {19.235646, -0.8960040000000002, 0.1, cl__2};
Point(12) = {19.235646, -0.8960040000000002, 0, cl__2};
Point(13) = {0.00072, -3.343892, 0.1, cl__3};
Point(14) = {0.00072, -3.343892, 0, cl__3};
Point(15) = {0.00072, 4.619944, 0.1, cl__4};
Point(16) = {0.00072, 4.619944, 0, cl__4};
Point(17) = {33.790436, -3.343892, 0, cl__5};
Point(18) = {33.790436, -3.343892, 0.1, cl__5};
Point(19) = {33.790436, 4.619944, 0.1, cl__6};
Point(20) = {33.790436, 4.619944, 0, cl__6};
p13 = newp;
Point(p13 + 1) = {9.212730540339601, 1.941232320076984, 0.1};
Point(p13 + 2) = {9.170300301202998, 2.117966985397564, 0.1};
Point(p13 + 3) = {9.10074505589562, 2.28588820195282, 0.1};
Point(p13 + 4) = {9.005777485397564, 2.440861192092596, 0.1};
Point(p13 + 5) = {8.887736006473785, 2.579070006473785, 0.1};
Point(p13 + 6) = {8.749527192092597, 2.697111485397563, 0.1};
Point(p13 + 7) = {8.594554201952819, 2.79207905589562, 0.1};
Point(p13 + 8) = {8.426632985397564, 2.861634301202997, 0.1};
Point(p13 + 9) = {8.249898320076984, 2.904064540339601, 0.1};
Point(p13 + 10) = {8.068702, 2.918325, 0.1};
Point(p13 + 11) = {7.887505679923016, 2.904064540339601, 0.1};
Point(p13 + 12) = {7.710771014602437, 2.861634301202997, 0.1};
Point(p13 + 13) = {7.542849798047181, 2.79207905589562, 0.1};
Point(p13 + 14) = {7.387876807907404, 2.697111485397564, 0.1};
Point(p13 + 15) = {7.249667993526216, 2.579070006473785, 0.1};
Point(p13 + 16) = {7.131626514602437, 2.440861192092596, 0.1};
Point(p13 + 17) = {7.03665894410438, 2.28588820195282, 0.1};
Point(p13 + 18) = {6.967103698797003, 2.117966985397564, 0.1};
Point(p13 + 19) = {6.924673459660399, 1.941232320076984, 0.1};
Point(p13 + 20) = {6.910413, 1.760036, 0.1};
Point(p13 + 21) = {6.924673459660399, 1.578839679923016, 0.1};
Point(p13 + 22) = {6.967103698797003, 1.402105014602436, 0.1};
Point(p13 + 23) = {7.03665894410438, 1.234183798047181, 0.1};
Point(p13 + 24) = {7.131626514602437, 1.079210807907404, 0.1};
Point(p13 + 25) = {7.249667993526215, 0.9410019935262152, 0.1};
Point(p13 + 26) = {7.387876807907404, 0.8229605146024367, 0.1};
Point(p13 + 27) = {7.54284979804718, 0.7279929441043798, 0.1};
Point(p13 + 28) = {7.710771014602436, 0.6584376987970029, 0.1};
Point(p13 + 29) = {7.887505679923016, 0.6160074596603986, 0.1};
Point(p13 + 30) = {8.068702, 0.601747, 0.1};
Point(p13 + 31) = {8.249898320076984, 0.6160074596603986, 0.1};
Point(p13 + 32) = {8.426632985397564, 0.6584376987970029, 0.1};
Point(p13 + 33) = {8.594554201952819, 0.7279929441043795, 0.1};
Point(p13 + 34) = {8.749527192092597, 0.8229605146024364, 0.1};
Point(p13 + 35) = {8.887736006473785, 0.9410019935262148, 0.1};
Point(p13 + 36) = {9.005777485397564, 1.079210807907403, 0.1};
Point(p13 + 37) = {9.10074505589562, 1.23418379804718, 0.1};
Point(p13 + 38) = {9.170300301202998, 1.402105014602436, 0.1};
Point(p13 + 39) = {9.212730540339601, 1.578839679923016, 0.1};
Spline(13) = {9, p13 + 1, p13 + 2, p13 + 3, p13 + 4, p13 + 5, p13 + 6, p13 + 7, p13 + 8, p13 + 9, p13 + 10, p13 + 11, p13 + 12, p13 + 13, p13 + 14, p13 + 15, p13 + 16, p13 + 17, p13 + 18, p13 + 19, p13 + 20, p13 + 21, p13 + 22, p13 + 23, p13 + 24, p13 + 25, p13 + 26, p13 + 27, p13 + 28, p13 + 29, p13 + 30, p13 + 31, p13 + 32, p13 + 33, p13 + 34, p13 + 35, p13 + 36, p13 + 37, p13 + 38, p13 + 39, 9};
Line(14) = {10, 9};
p15 = newp;
Point(p15 + 1) = {9.212730540339601, 1.941232320076984, 0};
Point(p15 + 2) = {9.170300301202998, 2.117966985397564, 0};
Point(p15 + 3) = {9.10074505589562, 2.28588820195282, 0};
Point(p15 + 4) = {9.005777485397564, 2.440861192092596, 0};
Point(p15 + 5) = {8.887736006473785, 2.579070006473785, 0};
Point(p15 + 6) = {8.749527192092597, 2.697111485397563, 0};
Point(p15 + 7) = {8.594554201952819, 2.79207905589562, 0};
Point(p15 + 8) = {8.426632985397564, 2.861634301202997, 0};
Point(p15 + 9) = {8.249898320076984, 2.904064540339601, 0};
Point(p15 + 10) = {8.068702, 2.918325, 0};
Point(p15 + 11) = {7.887505679923016, 2.904064540339601, 0};
Point(p15 + 12) = {7.710771014602437, 2.861634301202997, 0};
Point(p15 + 13) = {7.542849798047181, 2.79207905589562, 0};
Point(p15 + 14) = {7.387876807907404, 2.697111485397564, 0};
Point(p15 + 15) = {7.249667993526216, 2.579070006473785, 0};
Point(p15 + 16) = {7.131626514602437, 2.440861192092596, 0};
Point(p15 + 17) = {7.03665894410438, 2.28588820195282, 0};
Point(p15 + 18) = {6.967103698797003, 2.117966985397564, 0};
Point(p15 + 19) = {6.924673459660399, 1.941232320076984, 0};
Point(p15 + 20) = {6.910413, 1.760036, 0};
Point(p15 + 21) = {6.924673459660399, 1.578839679923016, 0};
Point(p15 + 22) = {6.967103698797003, 1.402105014602436, 0};
Point(p15 + 23) = {7.03665894410438, 1.234183798047181, 0};
Point(p15 + 24) = {7.131626514602437, 1.079210807907404, 0};
Point(p15 + 25) = {7.249667993526215, 0.9410019935262152, 0};
Point(p15 + 26) = {7.387876807907404, 0.8229605146024367, 0};
Point(p15 + 27) = {7.54284979804718, 0.7279929441043798, 0};
Point(p15 + 28) = {7.710771014602436, 0.6584376987970029, 0};
Point(p15 + 29) = {7.887505679923016, 0.6160074596603986, 0};
Point(p15 + 30) = {8.068702, 0.601747, 0};
Point(p15 + 31) = {8.249898320076984, 0.6160074596603986, 0};
Point(p15 + 32) = {8.426632985397564, 0.6584376987970029, 0};
Point(p15 + 33) = {8.594554201952819, 0.7279929441043795, 0};
Point(p15 + 34) = {8.749527192092597, 0.8229605146024364, 0};
Point(p15 + 35) = {8.887736006473785, 0.9410019935262148, 0};
Point(p15 + 36) = {9.005777485397564, 1.079210807907403, 0};
Point(p15 + 37) = {9.10074505589562, 1.23418379804718, 0};
Point(p15 + 38) = {9.170300301202998, 1.402105014602436, 0};
Point(p15 + 39) = {9.212730540339601, 1.578839679923016, 0};
Spline(15) = {10, p15 + 1, p15 + 2, p15 + 3, p15 + 4, p15 + 5, p15 + 6, p15 + 7, p15 + 8, p15 + 9, p15 + 10, p15 + 11, p15 + 12, p15 + 13, p15 + 14, p15 + 15, p15 + 16, p15 + 17, p15 + 18, p15 + 19, p15 + 20, p15 + 21, p15 + 22, p15 + 23, p15 + 24, p15 + 25, p15 + 26, p15 + 27, p15 + 28, p15 + 29, p15 + 30, p15 + 31, p15 + 32, p15 + 33, p15 + 34, p15 + 35, p15 + 36, p15 + 37, p15 + 38, p15 + 39, 10};
p16 = newp;
Point(p16 + 1) = {19.22303799895326, -0.7358041573862508, 0.1};
Point(p16 + 2) = {19.18552444664238, -0.5795489665704476, 0.1};
Point(p16 + 3) = {19.12402905122558, -0.4310859489317224, 0.1};
Point(p16 + 4) = {19.04006603342955, -0.2940707566848471, 0.1};
Point(p16 + 5) = {18.93570284140971, -0.1718771585902923, 0.1};
Point(p16 + 6) = {18.81350924331515, -0.06751396657044773, 0.1};
Point(p16 + 7) = {18.67649405106828, 0.01644905122558182, 0.1};
Point(p16 + 8) = {18.52803103342955, 0.07794444664237787, 0.1};
Point(p16 + 9) = {18.37177584261375, 0.1154579989532627, 0.1};
Point(p16 + 10) = {18.211576, 0.128066, 0.1};
Point(p16 + 11) = {18.05137615738625, 0.1154579989532627, 0.1};
Point(p16 + 12) = {17.89512096657045, 0.07794444664237798, 0.1};
Point(p16 + 13) = {17.74665794893172, 0.01644905122558193, 0.1};
Point(p16 + 14) = {17.60964275668485, -0.0675139665704475, 0.1};
Point(p16 + 15) = {17.48744915859029, -0.1718771585902922, 0.1};
Point(p16 + 16) = {17.38308596657045, -0.2940707566848469, 0.1};
Point(p16 + 17) = {17.29912294877442, -0.4310859489317223, 0.1};
Point(p16 + 18) = {17.23762755335762, -0.5795489665704475, 0.1};
Point(p16 + 19) = {17.20011400104674, -0.7358041573862507, 0.1};
Point(p16 + 20) = {17.187506, -0.8960039999999999, 0.1};
Point(p16 + 21) = {17.20011400104674, -1.056203842613749, 0.1};
Point(p16 + 22) = {17.23762755335762, -1.212459033429553, 0.1};
Point(p16 + 23) = {17.29912294877442, -1.360922051068277, 0.1};
Point(p16 + 24) = {17.38308596657045, -1.497937243315153, 0.1};
Point(p16 + 25) = {17.48744915859029, -1.620130841409708, 0.1};
Point(p16 + 26) = {17.60964275668485, -1.724494033429552, 0.1};
Point(p16 + 27) = {17.74665794893172, -1.808457051225582, 0.1};
Point(p16 + 28) = {17.89512096657045, -1.869952446642378, 0.1};
Point(p16 + 29) = {18.05137615738625, -1.907465998953263, 0.1};
Point(p16 + 30) = {18.211576, -1.920074, 0.1};
Point(p16 + 31) = {18.37177584261375, -1.907465998953263, 0.1};
Point(p16 + 32) = {18.52803103342955, -1.869952446642378, 0.1};
Point(p16 + 33) = {18.67649405106828, -1.808457051225582, 0.1};
Point(p16 + 34) = {18.81350924331515, -1.724494033429553, 0.1};
Point(p16 + 35) = {18.93570284140971, -1.620130841409708, 0.1};
Point(p16 + 36) = {19.04006603342955, -1.497937243315153, 0.1};
Point(p16 + 37) = {19.12402905122558, -1.360922051068278, 0.1};
Point(p16 + 38) = {19.18552444664238, -1.212459033429553, 0.1};
Point(p16 + 39) = {19.22303799895326, -1.056203842613749, 0.1};
Spline(16) = {11, p16 + 1, p16 + 2, p16 + 3, p16 + 4, p16 + 5, p16 + 6, p16 + 7, p16 + 8, p16 + 9, p16 + 10, p16 + 11, p16 + 12, p16 + 13, p16 + 14, p16 + 15, p16 + 16, p16 + 17, p16 + 18, p16 + 19, p16 + 20, p16 + 21, p16 + 22, p16 + 23, p16 + 24, p16 + 25, p16 + 26, p16 + 27, p16 + 28, p16 + 29, p16 + 30, p16 + 31, p16 + 32, p16 + 33, p16 + 34, p16 + 35, p16 + 36, p16 + 37, p16 + 38, p16 + 39, 11};
Line(17) = {12, 11};
p18 = newp;
Point(p18 + 1) = {19.22303799895326, -0.7358041573862508, 0};
Point(p18 + 2) = {19.18552444664238, -0.5795489665704476, 0};
Point(p18 + 3) = {19.12402905122558, -0.4310859489317224, 0};
Point(p18 + 4) = {19.04006603342955, -0.2940707566848471, 0};
Point(p18 + 5) = {18.93570284140971, -0.1718771585902923, 0};
Point(p18 + 6) = {18.81350924331515, -0.06751396657044773, 0};
Point(p18 + 7) = {18.67649405106828, 0.01644905122558182, 0};
Point(p18 + 8) = {18.52803103342955, 0.07794444664237787, 0};
Point(p18 + 9) = {18.37177584261375, 0.1154579989532627, 0};
Point(p18 + 10) = {18.211576, 0.128066, 0};
Point(p18 + 11) = {18.05137615738625, 0.1154579989532627, 0};
Point(p18 + 12) = {17.89512096657045, 0.07794444664237798, 0};
Point(p18 + 13) = {17.74665794893172, 0.01644905122558193, 0};
Point(p18 + 14) = {17.60964275668485, -0.0675139665704475, 0};
Point(p18 + 15) = {17.48744915859029, -0.1718771585902922, 0};
Point(p18 + 16) = {17.38308596657045, -0.2940707566848469, 0};
Point(p18 + 17) = {17.29912294877442, -0.4310859489317223, 0};
Point(p18 + 18) = {17.23762755335762, -0.5795489665704475, 0};
Point(p18 + 19) = {17.20011400104674, -0.7358041573862507, 0};
Point(p18 + 20) = {17.187506, -0.8960039999999999, 0};
Point(p18 + 21) = {17.20011400104674, -1.056203842613749, 0};
Point(p18 + 22) = {17.23762755335762, -1.212459033429553, 0};
Point(p18 + 23) = {17.29912294877442, -1.360922051068277, 0};
Point(p18 + 24) = {17.38308596657045, -1.497937243315153, 0};
Point(p18 + 25) = {17.48744915859029, -1.620130841409708, 0};
Point(p18 + 26) = {17.60964275668485, -1.724494033429552, 0};
Point(p18 + 27) = {17.74665794893172, -1.808457051225582, 0};
Point(p18 + 28) = {17.89512096657045, -1.869952446642378, 0};
Point(p18 + 29) = {18.05137615738625, -1.907465998953263, 0};
Point(p18 + 30) = {18.211576, -1.920074, 0};
Point(p18 + 31) = {18.37177584261375, -1.907465998953263, 0};
Point(p18 + 32) = {18.52803103342955, -1.869952446642378, 0};
Point(p18 + 33) = {18.67649405106828, -1.808457051225582, 0};
Point(p18 + 34) = {18.81350924331515, -1.724494033429553, 0};
Point(p18 + 35) = {18.93570284140971, -1.620130841409708, 0};
Point(p18 + 36) = {19.04006603342955, -1.497937243315153, 0};
Point(p18 + 37) = {19.12402905122558, -1.360922051068278, 0};
Point(p18 + 38) = {19.18552444664238, -1.212459033429553, 0};
Point(p18 + 39) = {19.22303799895326, -1.056203842613749, 0};
Spline(18) = {12, p18 + 1, p18 + 2, p18 + 3, p18 + 4, p18 + 5, p18 + 6, p18 + 7, p18 + 8, p18 + 9, p18 + 10, p18 + 11, p18 + 12, p18 + 13, p18 + 14, p18 + 15, p18 + 16, p18 + 17, p18 + 18, p18 + 19, p18 + 20, p18 + 21, p18 + 22, p18 + 23, p18 + 24, p18 + 25, p18 + 26, p18 + 27, p18 + 28, p18 + 29, p18 + 30, p18 + 31, p18 + 32, p18 + 33, p18 + 34, p18 + 35, p18 + 36, p18 + 37, p18 + 38, p18 + 39, 12};
Line(19) = {14, 13};
Line(20) = {13, 15};
Line(21) = {16, 15};
Line(22) = {14, 16};
Line(23) = {14, 17};
Line(24) = {17, 18};
Line(25) = {13, 18};
Line(26) = {15, 19};
Line(27) = {18, 19};
Line(28) = {16, 20};
Line(29) = {20, 19};
Line(30) = {17, 20};
Curve Loop(7) = {-13, -14, 15, 14};
Surface(7) = {7};
Curve Loop(8) = {13};
Plane Surface(8) = {8};
Curve Loop(9) = {15};
Plane Surface(9) = {9};
Curve Loop(10) = {-16, -17, 18, 17};
Surface(10) = {10};
Curve Loop(11) = {16};
Plane Surface(11) = {11};
Curve Loop(12) = {18};
Plane Surface(12) = {12};
Curve Loop(13) = {-19, 22, 21, -20};
Plane Surface(13) = {13};
Curve Loop(14) = {-23, 19, 25, -24};
Plane Surface(14) = {14};
Curve Loop(15) = {-20, 25, 27, -26, -16, -13};
Plane Surface(15) = {15};
Curve Loop(16) = {-28, 21, 26, -29};
Plane Surface(16) = {16};
Curve Loop(17) = {-22, 23, 30, -28, -18, -15};
Plane Surface(17) = {17};
Curve Loop(18) = {-24, 30, 29, -27};
Plane Surface(18) = {18};
Surface Loop(1) = {13, 14, 15, 16, 17, 18, 10, 7};
Volume(1) = {1};
Surface Loop(2) = {7, 8, 9};
Volume(2) = {2};
Surface Loop(3) = {10, 11, 12};
Volume(3) = {3};
Physical Surface("WALLS") = {13, 18};
Physical Surface("LOAD") = {8, 11};
Physical Surface("BORDER") = {7, 9, 10, 12, 14, 15, 16, 17};
Physical Volume("SOLID") = {1, 2, 3};
