cl__1 = 0.075789;
cl__2 = 0.08261300000000001;
cl__3 = 0.95958;
cl__4 = 1.031609;
cl__5 = 1.261329;
cl__6 = 0.94953;
Point(9) = {25.748886, 3.317831, 0.1, cl__1};
Point(10) = {25.748886, 3.317831, 0, cl__1};
Point(11) = {16.289425, -1.019307, 0.1, cl__2};
Point(12) = {16.289425, -1.019307, 0, cl__2};
Point(13) = {0.757189, -4.792327, 1, cl__3};
Point(14) = {0.757189, -4.792327, 0, cl__3};
Point(15) = {0.757189, 5.138085, 1, cl__4};
Point(16) = {0.757189, 5.138085, 0, cl__4};
Point(17) = {39.84368, -4.792327, 0, cl__5};
Point(18) = {39.84368, -4.792327, 1, cl__5};
Point(19) = {39.84368, 5.138085, 1, cl__6};
Point(20) = {39.84368, 5.138085, 0, cl__6};
p13 = newp;
Point(p13 + 1) = {25.73955516570028, 3.43639049097148, 0.1};
Point(p13 + 2) = {25.71179241890887, 3.552030653798851, 0.1};
Point(p13 + 3) = {25.66628137059103, 3.661904043885606, 0.1};
Point(p13 + 4) = {25.60414265379885, 3.763305213718933, 0.1};
Point(p13 + 5) = {25.52690632996635, 3.853737329966348, 0.1};
Point(p13 + 6) = {25.43647421371893, 3.930973653798851, 0.1};
Point(p13 + 7) = {25.33507304388561, 3.993112370591025, 0.1};
Point(p13 + 8) = {25.22519965379885, 4.038623418908869, 0.1};
Point(p13 + 9) = {25.10955949097148, 4.066386165700287, 0.1};
Point(p13 + 10) = {24.991, 4.075717, 0.1};
Point(p13 + 11) = {24.87244050902852, 4.066386165700287, 0.1};
Point(p13 + 12) = {24.75680034620115, 4.038623418908869, 0.1};
Point(p13 + 13) = {24.64692695611439, 3.993112370591025, 0.1};
Point(p13 + 14) = {24.54552578628106, 3.930973653798851, 0.1};
Point(p13 + 15) = {24.45509367003365, 3.853737329966348, 0.1};
Point(p13 + 16) = {24.37785734620115, 3.763305213718933, 0.1};
Point(p13 + 17) = {24.31571862940897, 3.661904043885606, 0.1};
Point(p13 + 18) = {24.27020758109113, 3.552030653798851, 0.1};
Point(p13 + 19) = {24.24244483429971, 3.436390490971481, 0.1};
Point(p13 + 20) = {24.233114, 3.317831, 0.1};
Point(p13 + 21) = {24.24244483429971, 3.19927150902852, 0.1};
Point(p13 + 22) = {24.27020758109113, 3.083631346201148, 0.1};
Point(p13 + 23) = {24.31571862940897, 2.973757956114394, 0.1};
Point(p13 + 24) = {24.37785734620115, 2.872356786281067, 0.1};
Point(p13 + 25) = {24.45509367003365, 2.781924670033652, 0.1};
Point(p13 + 26) = {24.54552578628106, 2.704688346201149, 0.1};
Point(p13 + 27) = {24.64692695611439, 2.642549629408975, 0.1};
Point(p13 + 28) = {24.75680034620115, 2.597038581091131, 0.1};
Point(p13 + 29) = {24.87244050902852, 2.569275834299714, 0.1};
Point(p13 + 30) = {24.991, 2.559945, 0.1};
Point(p13 + 31) = {25.10955949097148, 2.569275834299714, 0.1};
Point(p13 + 32) = {25.22519965379885, 2.597038581091131, 0.1};
Point(p13 + 33) = {25.3350730438856, 2.642549629408975, 0.1};
Point(p13 + 34) = {25.43647421371893, 2.704688346201149, 0.1};
Point(p13 + 35) = {25.52690632996635, 2.781924670033652, 0.1};
Point(p13 + 36) = {25.60414265379885, 2.872356786281067, 0.1};
Point(p13 + 37) = {25.66628137059103, 2.973757956114394, 0.1};
Point(p13 + 38) = {25.71179241890887, 3.083631346201148, 0.1};
Point(p13 + 39) = {25.73955516570028, 3.199271509028519, 0.1};
Spline(13) = {9, p13 + 1, p13 + 2, p13 + 3, p13 + 4, p13 + 5, p13 + 6, p13 + 7, p13 + 8, p13 + 9, p13 + 10, p13 + 11, p13 + 12, p13 + 13, p13 + 14, p13 + 15, p13 + 16, p13 + 17, p13 + 18, p13 + 19, p13 + 20, p13 + 21, p13 + 22, p13 + 23, p13 + 24, p13 + 25, p13 + 26, p13 + 27, p13 + 28, p13 + 29, p13 + 30, p13 + 31, p13 + 32, p13 + 33, p13 + 34, p13 + 35, p13 + 36, p13 + 37, p13 + 38, p13 + 39, 9};
Line(14) = {10, 9};
p15 = newp;
Point(p15 + 1) = {25.73955516570028, 3.43639049097148, 0};
Point(p15 + 2) = {25.71179241890887, 3.552030653798851, 0};
Point(p15 + 3) = {25.66628137059103, 3.661904043885606, 0};
Point(p15 + 4) = {25.60414265379885, 3.763305213718933, 0};
Point(p15 + 5) = {25.52690632996635, 3.853737329966348, 0};
Point(p15 + 6) = {25.43647421371893, 3.930973653798851, 0};
Point(p15 + 7) = {25.33507304388561, 3.993112370591025, 0};
Point(p15 + 8) = {25.22519965379885, 4.038623418908869, 0};
Point(p15 + 9) = {25.10955949097148, 4.066386165700287, 0};
Point(p15 + 10) = {24.991, 4.075717, 0};
Point(p15 + 11) = {24.87244050902852, 4.066386165700287, 0};
Point(p15 + 12) = {24.75680034620115, 4.038623418908869, 0};
Point(p15 + 13) = {24.64692695611439, 3.993112370591025, 0};
Point(p15 + 14) = {24.54552578628106, 3.930973653798851, 0};
Point(p15 + 15) = {24.45509367003365, 3.853737329966348, 0};
Point(p15 + 16) = {24.37785734620115, 3.763305213718933, 0};
Point(p15 + 17) = {24.31571862940897, 3.661904043885606, 0};
Point(p15 + 18) = {24.27020758109113, 3.552030653798851, 0};
Point(p15 + 19) = {24.24244483429971, 3.436390490971481, 0};
Point(p15 + 20) = {24.233114, 3.317831, 0};
Point(p15 + 21) = {24.24244483429971, 3.19927150902852, 0};
Point(p15 + 22) = {24.27020758109113, 3.083631346201148, 0};
Point(p15 + 23) = {24.31571862940897, 2.973757956114394, 0};
Point(p15 + 24) = {24.37785734620115, 2.872356786281067, 0};
Point(p15 + 25) = {24.45509367003365, 2.781924670033652, 0};
Point(p15 + 26) = {24.54552578628106, 2.704688346201149, 0};
Point(p15 + 27) = {24.64692695611439, 2.642549629408975, 0};
Point(p15 + 28) = {24.75680034620115, 2.597038581091131, 0};
Point(p15 + 29) = {24.87244050902852, 2.569275834299714, 0};
Point(p15 + 30) = {24.991, 2.559945, 0};
Point(p15 + 31) = {25.10955949097148, 2.569275834299714, 0};
Point(p15 + 32) = {25.22519965379885, 2.597038581091131, 0};
Point(p15 + 33) = {25.3350730438856, 2.642549629408975, 0};
Point(p15 + 34) = {25.43647421371893, 2.704688346201149, 0};
Point(p15 + 35) = {25.52690632996635, 2.781924670033652, 0};
Point(p15 + 36) = {25.60414265379885, 2.872356786281067, 0};
Point(p15 + 37) = {25.66628137059103, 2.973757956114394, 0};
Point(p15 + 38) = {25.71179241890887, 3.083631346201148, 0};
Point(p15 + 39) = {25.73955516570028, 3.199271509028519, 0};
Spline(15) = {10, p15 + 1, p15 + 2, p15 + 3, p15 + 4, p15 + 5, p15 + 6, p15 + 7, p15 + 8, p15 + 9, p15 + 10, p15 + 11, p15 + 12, p15 + 13, p15 + 14, p15 + 15, p15 + 16, p15 + 17, p15 + 18, p15 + 19, p15 + 20, p15 + 21, p15 + 22, p15 + 23, p15 + 24, p15 + 25, p15 + 26, p15 + 27, p15 + 28, p15 + 29, p15 + 30, p15 + 31, p15 + 32, p15 + 33, p15 + 34, p15 + 35, p15 + 36, p15 + 37, p15 + 38, p15 + 39, 10};
p16 = newp;
Point(p16 + 1) = {16.27925400575084, -0.8900722646997091, 0.1};
Point(p16 + 2) = {16.24899146663737, -0.7640197174880078, 0.1};
Point(p16 + 3) = {16.19938254680816, -0.6442531904216675, 0.1};
Point(p16 + 4) = {16.13164878251199, -0.533721732879376, 0.1};
Point(p16 + 5) = {16.0474580038213, -0.4351469961787011, 0.1};
Point(p16 + 6) = {15.94888326712062, -0.3509562174880079, 0.1};
Point(p16 + 7) = {15.83835180957833, -0.2832224531918363, 0.1};
Point(p16 + 8) = {15.71858528251199, -0.2336135333626337, 0.1};
Point(p16 + 9) = {15.59253273530029, -0.2033509942491606, 0.1};
Point(p16 + 10) = {15.463298, -0.19318, 0.1};
Point(p16 + 11) = {15.33406326469971, -0.2033509942491607, 0.1};
Point(p16 + 12) = {15.20801071748801, -0.2336135333626336, 0.1};
Point(p16 + 13) = {15.08824419042167, -0.2832224531918363, 0.1};
Point(p16 + 14) = {14.97771273287938, -0.3509562174880078, 0.1};
Point(p16 + 15) = {14.8791379961787, -0.435146996178701, 0.1};
Point(p16 + 16) = {14.79494721748801, -0.533721732879376, 0.1};
Point(p16 + 17) = {14.72721345319184, -0.6442531904216673, 0.1};
Point(p16 + 18) = {14.67760453336263, -0.7640197174880077, 0.1};
Point(p16 + 19) = {14.64734199424916, -0.890072264699709, 0.1};
Point(p16 + 20) = {14.637171, -1.019307, 0.1};
Point(p16 + 21) = {14.64734199424916, -1.148541735300291, 0.1};
Point(p16 + 22) = {14.67760453336263, -1.274594282511992, 0.1};
Point(p16 + 23) = {14.72721345319184, -1.394360809578332, 0.1};
Point(p16 + 24) = {14.79494721748801, -1.504892267120624, 0.1};
Point(p16 + 25) = {14.8791379961787, -1.603467003821299, 0.1};
Point(p16 + 26) = {14.97771273287938, -1.687657782511992, 0.1};
Point(p16 + 27) = {15.08824419042167, -1.755391546808164, 0.1};
Point(p16 + 28) = {15.20801071748801, -1.805000466637366, 0.1};
Point(p16 + 29) = {15.33406326469971, -1.835263005750839, 0.1};
Point(p16 + 30) = {15.463298, -1.845434, 0.1};
Point(p16 + 31) = {15.59253273530029, -1.835263005750839, 0.1};
Point(p16 + 32) = {15.71858528251199, -1.805000466637366, 0.1};
Point(p16 + 33) = {15.83835180957833, -1.755391546808164, 0.1};
Point(p16 + 34) = {15.94888326712062, -1.687657782511992, 0.1};
Point(p16 + 35) = {16.0474580038213, -1.603467003821299, 0.1};
Point(p16 + 36) = {16.13164878251199, -1.504892267120624, 0.1};
Point(p16 + 37) = {16.19938254680816, -1.394360809578333, 0.1};
Point(p16 + 38) = {16.24899146663737, -1.274594282511992, 0.1};
Point(p16 + 39) = {16.27925400575084, -1.148541735300291, 0.1};
Spline(16) = {11, p16 + 1, p16 + 2, p16 + 3, p16 + 4, p16 + 5, p16 + 6, p16 + 7, p16 + 8, p16 + 9, p16 + 10, p16 + 11, p16 + 12, p16 + 13, p16 + 14, p16 + 15, p16 + 16, p16 + 17, p16 + 18, p16 + 19, p16 + 20, p16 + 21, p16 + 22, p16 + 23, p16 + 24, p16 + 25, p16 + 26, p16 + 27, p16 + 28, p16 + 29, p16 + 30, p16 + 31, p16 + 32, p16 + 33, p16 + 34, p16 + 35, p16 + 36, p16 + 37, p16 + 38, p16 + 39, 11};
Line(17) = {12, 11};
p18 = newp;
Point(p18 + 1) = {16.27925400575084, -0.8900722646997091, 0};
Point(p18 + 2) = {16.24899146663737, -0.7640197174880078, 0};
Point(p18 + 3) = {16.19938254680816, -0.6442531904216675, 0};
Point(p18 + 4) = {16.13164878251199, -0.533721732879376, 0};
Point(p18 + 5) = {16.0474580038213, -0.4351469961787011, 0};
Point(p18 + 6) = {15.94888326712062, -0.3509562174880079, 0};
Point(p18 + 7) = {15.83835180957833, -0.2832224531918363, 0};
Point(p18 + 8) = {15.71858528251199, -0.2336135333626337, 0};
Point(p18 + 9) = {15.59253273530029, -0.2033509942491606, 0};
Point(p18 + 10) = {15.463298, -0.19318, 0};
Point(p18 + 11) = {15.33406326469971, -0.2033509942491607, 0};
Point(p18 + 12) = {15.20801071748801, -0.2336135333626336, 0};
Point(p18 + 13) = {15.08824419042167, -0.2832224531918363, 0};
Point(p18 + 14) = {14.97771273287938, -0.3509562174880078, 0};
Point(p18 + 15) = {14.8791379961787, -0.435146996178701, 0};
Point(p18 + 16) = {14.79494721748801, -0.533721732879376, 0};
Point(p18 + 17) = {14.72721345319184, -0.6442531904216673, 0};
Point(p18 + 18) = {14.67760453336263, -0.7640197174880077, 0};
Point(p18 + 19) = {14.64734199424916, -0.890072264699709, 0};
Point(p18 + 20) = {14.637171, -1.019307, 0};
Point(p18 + 21) = {14.64734199424916, -1.148541735300291, 0};
Point(p18 + 22) = {14.67760453336263, -1.274594282511992, 0};
Point(p18 + 23) = {14.72721345319184, -1.394360809578332, 0};
Point(p18 + 24) = {14.79494721748801, -1.504892267120624, 0};
Point(p18 + 25) = {14.8791379961787, -1.603467003821299, 0};
Point(p18 + 26) = {14.97771273287938, -1.687657782511992, 0};
Point(p18 + 27) = {15.08824419042167, -1.755391546808164, 0};
Point(p18 + 28) = {15.20801071748801, -1.805000466637366, 0};
Point(p18 + 29) = {15.33406326469971, -1.835263005750839, 0};
Point(p18 + 30) = {15.463298, -1.845434, 0};
Point(p18 + 31) = {15.59253273530029, -1.835263005750839, 0};
Point(p18 + 32) = {15.71858528251199, -1.805000466637366, 0};
Point(p18 + 33) = {15.83835180957833, -1.755391546808164, 0};
Point(p18 + 34) = {15.94888326712062, -1.687657782511992, 0};
Point(p18 + 35) = {16.0474580038213, -1.603467003821299, 0};
Point(p18 + 36) = {16.13164878251199, -1.504892267120624, 0};
Point(p18 + 37) = {16.19938254680816, -1.394360809578333, 0};
Point(p18 + 38) = {16.24899146663737, -1.274594282511992, 0};
Point(p18 + 39) = {16.27925400575084, -1.148541735300291, 0};
Spline(18) = {12, p18 + 1, p18 + 2, p18 + 3, p18 + 4, p18 + 5, p18 + 6, p18 + 7, p18 + 8, p18 + 9, p18 + 10, p18 + 11, p18 + 12, p18 + 13, p18 + 14, p18 + 15, p18 + 16, p18 + 17, p18 + 18, p18 + 19, p18 + 20, p18 + 21, p18 + 22, p18 + 23, p18 + 24, p18 + 25, p18 + 26, p18 + 27, p18 + 28, p18 + 29, p18 + 30, p18 + 31, p18 + 32, p18 + 33, p18 + 34, p18 + 35, p18 + 36, p18 + 37, p18 + 38, p18 + 39, 12};
Line(19) = {14, 13};
Line(20) = {13, 15};
Line(21) = {16, 15};
Line(22) = {14, 16};
Line(23) = {14, 17};
Line(24) = {17, 18};
Line(25) = {13, 18};
Line(26) = {15, 19};
Line(27) = {18, 19};
Line(28) = {16, 20};
Line(29) = {20, 19};
Line(30) = {17, 20};
Curve Loop(7) = {-13, -14, 15, 14};
Surface(7) = {7};
Curve Loop(8) = {13};
Plane Surface(8) = {8};
Curve Loop(9) = {15};
Plane Surface(9) = {9};
Curve Loop(10) = {-16, -17, 18, 17};
Surface(10) = {10};
Curve Loop(11) = {16};
Plane Surface(11) = {11};
Curve Loop(12) = {18};
Plane Surface(12) = {12};
Curve Loop(13) = {-19, 22, 21, -20};
Plane Surface(13) = {13};
Curve Loop(14) = {-23, 19, 25, -24};
Plane Surface(14) = {14};
Curve Loop(15) = {-20, 25, 27, -26};
Plane Surface(15) = {15};
Curve Loop(16) = {-28, 21, 26, -29};
Plane Surface(16) = {16};
Curve Loop(17) = {-22, 23, 30, -28, -18, -15};
Plane Surface(17) = {17};
Curve Loop(18) = {-24, 30, 29, -27};
Plane Surface(18) = {18};
Surface Loop(1) = {13, 14, 15, 16, 17, 18, 10, 7, 11, 8};
Volume(1) = {1};
Surface Loop(2) = {7, 8, 9};
Volume(2) = {2};
Surface Loop(3) = {10, 11, 12};
Volume(3) = {3};
Physical Surface("WALLS") = {13, 18};
Physical Surface("LOAD") = {8, 11};
Physical Surface("BORDER") = {7, 9, 10, 12, 14, 15, 16, 17};
Physical Volume("SOLID") = {1, 2, 3};
