cl__1 = 0.059191;
cl__2 = 0.06729;
cl__3 = 1.202344;
cl__4 = 0.776666;
cl__5 = 1.705772;
cl__6 = 0.965151;
Point(9) = {8.437010999999998, 2.785791, 0.1, cl__1};
Point(10) = {8.437010999999998, 2.785791, 0, cl__1};
Point(11) = {25.036458, 2.623070999999999, 0.1, cl__2};
Point(12) = {25.036458, 2.623070999999999, 0, cl__2};
Point(13) = {0.355656, -4.339286, 0.1, cl__3};
Point(14) = {0.355656, -4.339286, 0, cl__3};
Point(15) = {0.355656, 4.616103, 0.1, cl__4};
Point(16) = {0.355656, 4.616103, 0, cl__4};
Point(17) = {33.670829, -4.339286, 0, cl__5};
Point(18) = {33.670829, -4.339286, 0.1, cl__5};
Point(19) = {33.670829, 4.616103, 0.1, cl__6};
Point(20) = {33.670829, 4.616103, 0, cl__6};
p13 = newp;
Point(p13 + 1) = {8.429723667239966, 2.878385342029638, 0.1};
Point(p13 + 2) = {8.408041107277683, 2.968699704055503, 0.1};
Point(p13 + 3) = {8.372497216699717, 3.054510246748336, 0.1};
Point(p13 + 4) = {8.323967204055503, 3.133704029758177, 0.1};
Point(p13 + 5) = {8.263646039318225, 3.204331039318224, 0.1};
Point(p13 + 6) = {8.193019029758176, 3.264652204055503, 0.1};
Point(p13 + 7) = {8.113825246748338, 3.313182216699716, 0.1};
Point(p13 + 8) = {8.028014704055504, 3.348726107277683, 0.1};
Point(p13 + 9) = {7.937700342029638, 3.370408667239965, 0.1};
Point(p13 + 10) = {7.845106, 3.377696, 0.1};
Point(p13 + 11) = {7.752511657970363, 3.370408667239965, 0.1};
Point(p13 + 12) = {7.662197295944497, 3.348726107277683, 0.1};
Point(p13 + 13) = {7.576386753251664, 3.313182216699716, 0.1};
Point(p13 + 14) = {7.497192970241824, 3.264652204055503, 0.1};
Point(p13 + 15) = {7.426565960681777, 3.204331039318224, 0.1};
Point(p13 + 16) = {7.366244795944497, 3.133704029758177, 0.1};
Point(p13 + 17) = {7.317714783300285, 3.054510246748336, 0.1};
Point(p13 + 18) = {7.282170892722317, 2.968699704055504, 0.1};
Point(p13 + 19) = {7.260488332760035, 2.878385342029638, 0.1};
Point(p13 + 20) = {7.253201000000001, 2.785791, 0.1};
Point(p13 + 21) = {7.260488332760035, 2.693196657970362, 0.1};
Point(p13 + 22) = {7.282170892722317, 2.602882295944497, 0.1};
Point(p13 + 23) = {7.317714783300285, 2.517071753251664, 0.1};
Point(p13 + 24) = {7.366244795944497, 2.437877970241824, 0.1};
Point(p13 + 25) = {7.426565960681777, 2.367250960681777, 0.1};
Point(p13 + 26) = {7.497192970241824, 2.306929795944497, 0.1};
Point(p13 + 27) = {7.576386753251664, 2.258399783300284, 0.1};
Point(p13 + 28) = {7.662197295944497, 2.222855892722317, 0.1};
Point(p13 + 29) = {7.752511657970363, 2.201173332760035, 0.1};
Point(p13 + 30) = {7.845106, 2.193886, 0.1};
Point(p13 + 31) = {7.937700342029638, 2.201173332760035, 0.1};
Point(p13 + 32) = {8.028014704055504, 2.222855892722317, 0.1};
Point(p13 + 33) = {8.113825246748338, 2.258399783300284, 0.1};
Point(p13 + 34) = {8.193019029758176, 2.306929795944497, 0.1};
Point(p13 + 35) = {8.263646039318223, 2.367250960681777, 0.1};
Point(p13 + 36) = {8.323967204055503, 2.437877970241824, 0.1};
Point(p13 + 37) = {8.372497216699717, 2.517071753251663, 0.1};
Point(p13 + 38) = {8.408041107277683, 2.602882295944497, 0.1};
Point(p13 + 39) = {8.429723667239966, 2.693196657970362, 0.1};
Spline(13) = {9, p13 + 1, p13 + 2, p13 + 3, p13 + 4, p13 + 5, p13 + 6, p13 + 7, p13 + 8, p13 + 9, p13 + 10, p13 + 11, p13 + 12, p13 + 13, p13 + 14, p13 + 15, p13 + 16, p13 + 17, p13 + 18, p13 + 19, p13 + 20, p13 + 21, p13 + 22, p13 + 23, p13 + 24, p13 + 25, p13 + 26, p13 + 27, p13 + 28, p13 + 29, p13 + 30, p13 + 31, p13 + 32, p13 + 33, p13 + 34, p13 + 35, p13 + 36, p13 + 37, p13 + 38, p13 + 39, 9};
Line(14) = {10, 9};
p15 = newp;
Point(p15 + 1) = {8.429723667239966, 2.878385342029638, 0};
Point(p15 + 2) = {8.408041107277683, 2.968699704055503, 0};
Point(p15 + 3) = {8.372497216699717, 3.054510246748336, 0};
Point(p15 + 4) = {8.323967204055503, 3.133704029758177, 0};
Point(p15 + 5) = {8.263646039318225, 3.204331039318224, 0};
Point(p15 + 6) = {8.193019029758176, 3.264652204055503, 0};
Point(p15 + 7) = {8.113825246748338, 3.313182216699716, 0};
Point(p15 + 8) = {8.028014704055504, 3.348726107277683, 0};
Point(p15 + 9) = {7.937700342029638, 3.370408667239965, 0};
Point(p15 + 10) = {7.845106, 3.377696, 0};
Point(p15 + 11) = {7.752511657970363, 3.370408667239965, 0};
Point(p15 + 12) = {7.662197295944497, 3.348726107277683, 0};
Point(p15 + 13) = {7.576386753251664, 3.313182216699716, 0};
Point(p15 + 14) = {7.497192970241824, 3.264652204055503, 0};
Point(p15 + 15) = {7.426565960681777, 3.204331039318224, 0};
Point(p15 + 16) = {7.366244795944497, 3.133704029758177, 0};
Point(p15 + 17) = {7.317714783300285, 3.054510246748336, 0};
Point(p15 + 18) = {7.282170892722317, 2.968699704055504, 0};
Point(p15 + 19) = {7.260488332760035, 2.878385342029638, 0};
Point(p15 + 20) = {7.253201000000001, 2.785791, 0};
Point(p15 + 21) = {7.260488332760035, 2.693196657970362, 0};
Point(p15 + 22) = {7.282170892722317, 2.602882295944497, 0};
Point(p15 + 23) = {7.317714783300285, 2.517071753251664, 0};
Point(p15 + 24) = {7.366244795944497, 2.437877970241824, 0};
Point(p15 + 25) = {7.426565960681777, 2.367250960681777, 0};
Point(p15 + 26) = {7.497192970241824, 2.306929795944497, 0};
Point(p15 + 27) = {7.576386753251664, 2.258399783300284, 0};
Point(p15 + 28) = {7.662197295944497, 2.222855892722317, 0};
Point(p15 + 29) = {7.752511657970363, 2.201173332760035, 0};
Point(p15 + 30) = {7.845106, 2.193886, 0};
Point(p15 + 31) = {7.937700342029638, 2.201173332760035, 0};
Point(p15 + 32) = {8.028014704055504, 2.222855892722317, 0};
Point(p15 + 33) = {8.113825246748338, 2.258399783300284, 0};
Point(p15 + 34) = {8.193019029758176, 2.306929795944497, 0};
Point(p15 + 35) = {8.263646039318223, 2.367250960681777, 0};
Point(p15 + 36) = {8.323967204055503, 2.437877970241824, 0};
Point(p15 + 37) = {8.372497216699717, 2.517071753251663, 0};
Point(p15 + 38) = {8.408041107277683, 2.602882295944497, 0};
Point(p15 + 39) = {8.429723667239966, 2.693196657970362, 0};
Spline(15) = {10, p15 + 1, p15 + 2, p15 + 3, p15 + 4, p15 + 5, p15 + 6, p15 + 7, p15 + 8, p15 + 9, p15 + 10, p15 + 11, p15 + 12, p15 + 13, p15 + 14, p15 + 15, p15 + 16, p15 + 17, p15 + 18, p15 + 19, p15 + 20, p15 + 21, p15 + 22, p15 + 23, p15 + 24, p15 + 25, p15 + 26, p15 + 27, p15 + 28, p15 + 29, p15 + 30, p15 + 31, p15 + 32, p15 + 33, p15 + 34, p15 + 35, p15 + 36, p15 + 37, p15 + 38, p15 + 39, 10};
p16 = newp;
Point(p16 + 1) = {25.02817345976315, 2.728336064394501, 0.1};
Point(p16 + 2) = {25.00352383192804, 2.831009153548891, 0.1};
Point(p16 + 3) = {24.9631160721394, 2.92856211525574, 0.1};
Point(p16 + 4) = {24.90794515354889, 3.01859287183811, 0.1};
Point(p16 + 5) = {24.83936956727399, 3.09888456727399, 0.1};
Point(p16 + 6) = {24.75907787183811, 3.167460153548891, 0.1};
Point(p16 + 7) = {24.66904711525574, 3.222631072139401, 0.1};
Point(p16 + 8) = {24.57149415354889, 3.263038831928041, 0.1};
Point(p16 + 9) = {24.4688210643945, 3.287688459763149, 0.1};
Point(p16 + 10) = {24.363556, 3.295973, 0.1};
Point(p16 + 11) = {24.2582909356055, 3.287688459763149, 0.1};
Point(p16 + 12) = {24.15561784645111, 3.263038831928041, 0.1};
Point(p16 + 13) = {24.05806488474426, 3.222631072139401, 0.1};
Point(p16 + 14) = {23.96803412816189, 3.167460153548891, 0.1};
Point(p16 + 15) = {23.88774243272601, 3.09888456727399, 0.1};
Point(p16 + 16) = {23.81916684645111, 3.01859287183811, 0.1};
Point(p16 + 17) = {23.7639959278606, 2.92856211525574, 0.1};
Point(p16 + 18) = {23.72358816807196, 2.831009153548891, 0.1};
Point(p16 + 19) = {23.69893854023685, 2.728336064394501, 0.1};
Point(p16 + 20) = {23.690654, 2.623071, 0.1};
Point(p16 + 21) = {23.69893854023685, 2.517805935605498, 0.1};
Point(p16 + 22) = {23.72358816807196, 2.415132846451109, 0.1};
Point(p16 + 23) = {23.7639959278606, 2.31757988474426, 0.1};
Point(p16 + 24) = {23.81916684645111, 2.22754912816189, 0.1};
Point(p16 + 25) = {23.88774243272601, 2.14725743272601, 0.1};
Point(p16 + 26) = {23.96803412816189, 2.078681846451109, 0.1};
Point(p16 + 27) = {24.05806488474426, 2.023510927860599, 0.1};
Point(p16 + 28) = {24.15561784645111, 1.983103168071958, 0.1};
Point(p16 + 29) = {24.2582909356055, 1.958453540236851, 0.1};
Point(p16 + 30) = {24.363556, 1.950169, 0.1};
Point(p16 + 31) = {24.4688210643945, 1.958453540236851, 0.1};
Point(p16 + 32) = {24.57149415354889, 1.983103168071958, 0.1};
Point(p16 + 33) = {24.66904711525574, 2.023510927860599, 0.1};
Point(p16 + 34) = {24.75907787183811, 2.078681846451109, 0.1};
Point(p16 + 35) = {24.83936956727399, 2.147257432726009, 0.1};
Point(p16 + 36) = {24.90794515354889, 2.22754912816189, 0.1};
Point(p16 + 37) = {24.9631160721394, 2.317579884744259, 0.1};
Point(p16 + 38) = {25.00352383192804, 2.415132846451109, 0.1};
Point(p16 + 39) = {25.02817345976315, 2.517805935605498, 0.1};
Spline(16) = {11, p16 + 1, p16 + 2, p16 + 3, p16 + 4, p16 + 5, p16 + 6, p16 + 7, p16 + 8, p16 + 9, p16 + 10, p16 + 11, p16 + 12, p16 + 13, p16 + 14, p16 + 15, p16 + 16, p16 + 17, p16 + 18, p16 + 19, p16 + 20, p16 + 21, p16 + 22, p16 + 23, p16 + 24, p16 + 25, p16 + 26, p16 + 27, p16 + 28, p16 + 29, p16 + 30, p16 + 31, p16 + 32, p16 + 33, p16 + 34, p16 + 35, p16 + 36, p16 + 37, p16 + 38, p16 + 39, 11};
Line(17) = {12, 11};
p18 = newp;
Point(p18 + 1) = {25.02817345976315, 2.728336064394501, 0};
Point(p18 + 2) = {25.00352383192804, 2.831009153548891, 0};
Point(p18 + 3) = {24.9631160721394, 2.92856211525574, 0};
Point(p18 + 4) = {24.90794515354889, 3.01859287183811, 0};
Point(p18 + 5) = {24.83936956727399, 3.09888456727399, 0};
Point(p18 + 6) = {24.75907787183811, 3.167460153548891, 0};
Point(p18 + 7) = {24.66904711525574, 3.222631072139401, 0};
Point(p18 + 8) = {24.57149415354889, 3.263038831928041, 0};
Point(p18 + 9) = {24.4688210643945, 3.287688459763149, 0};
Point(p18 + 10) = {24.363556, 3.295973, 0};
Point(p18 + 11) = {24.2582909356055, 3.287688459763149, 0};
Point(p18 + 12) = {24.15561784645111, 3.263038831928041, 0};
Point(p18 + 13) = {24.05806488474426, 3.222631072139401, 0};
Point(p18 + 14) = {23.96803412816189, 3.167460153548891, 0};
Point(p18 + 15) = {23.88774243272601, 3.09888456727399, 0};
Point(p18 + 16) = {23.81916684645111, 3.01859287183811, 0};
Point(p18 + 17) = {23.7639959278606, 2.92856211525574, 0};
Point(p18 + 18) = {23.72358816807196, 2.831009153548891, 0};
Point(p18 + 19) = {23.69893854023685, 2.728336064394501, 0};
Point(p18 + 20) = {23.690654, 2.623071, 0};
Point(p18 + 21) = {23.69893854023685, 2.517805935605498, 0};
Point(p18 + 22) = {23.72358816807196, 2.415132846451109, 0};
Point(p18 + 23) = {23.7639959278606, 2.31757988474426, 0};
Point(p18 + 24) = {23.81916684645111, 2.22754912816189, 0};
Point(p18 + 25) = {23.88774243272601, 2.14725743272601, 0};
Point(p18 + 26) = {23.96803412816189, 2.078681846451109, 0};
Point(p18 + 27) = {24.05806488474426, 2.023510927860599, 0};
Point(p18 + 28) = {24.15561784645111, 1.983103168071958, 0};
Point(p18 + 29) = {24.2582909356055, 1.958453540236851, 0};
Point(p18 + 30) = {24.363556, 1.950169, 0};
Point(p18 + 31) = {24.4688210643945, 1.958453540236851, 0};
Point(p18 + 32) = {24.57149415354889, 1.983103168071958, 0};
Point(p18 + 33) = {24.66904711525574, 2.023510927860599, 0};
Point(p18 + 34) = {24.75907787183811, 2.078681846451109, 0};
Point(p18 + 35) = {24.83936956727399, 2.147257432726009, 0};
Point(p18 + 36) = {24.90794515354889, 2.22754912816189, 0};
Point(p18 + 37) = {24.9631160721394, 2.317579884744259, 0};
Point(p18 + 38) = {25.00352383192804, 2.415132846451109, 0};
Point(p18 + 39) = {25.02817345976315, 2.517805935605498, 0};
Spline(18) = {12, p18 + 1, p18 + 2, p18 + 3, p18 + 4, p18 + 5, p18 + 6, p18 + 7, p18 + 8, p18 + 9, p18 + 10, p18 + 11, p18 + 12, p18 + 13, p18 + 14, p18 + 15, p18 + 16, p18 + 17, p18 + 18, p18 + 19, p18 + 20, p18 + 21, p18 + 22, p18 + 23, p18 + 24, p18 + 25, p18 + 26, p18 + 27, p18 + 28, p18 + 29, p18 + 30, p18 + 31, p18 + 32, p18 + 33, p18 + 34, p18 + 35, p18 + 36, p18 + 37, p18 + 38, p18 + 39, 12};
Line(19) = {14, 13};
Line(20) = {13, 15};
Line(21) = {16, 15};
Line(22) = {14, 16};
Line(23) = {14, 17};
Line(24) = {17, 18};
Line(25) = {13, 18};
Line(26) = {15, 19};
Line(27) = {18, 19};
Line(28) = {16, 20};
Line(29) = {20, 19};
Line(30) = {17, 20};
Curve Loop(7) = {-13, -14, 15, 14};
Surface(7) = {7};
Curve Loop(8) = {13};
Plane Surface(8) = {8};
Curve Loop(9) = {15};
Plane Surface(9) = {9};
Curve Loop(10) = {-16, -17, 18, 17};
Surface(10) = {10};
Curve Loop(11) = {16};
Plane Surface(11) = {11};
Curve Loop(12) = {18};
Plane Surface(12) = {12};
Curve Loop(13) = {-19, 22, 21, -20};
Plane Surface(13) = {13};
Curve Loop(14) = {-23, 19, 25, -24};
Plane Surface(14) = {14};
Curve Loop(15) = {-20, 25, 27, -26, -16, -13};
Plane Surface(15) = {15};
Curve Loop(16) = {-28, 21, 26, -29};
Plane Surface(16) = {16};
Curve Loop(17) = {-22, 23, 30, -28, -18, -15};
Plane Surface(17) = {17};
Curve Loop(18) = {-24, 30, 29, -27};
Plane Surface(18) = {18};
Surface Loop(1) = {13, 14, 15, 16, 17, 18, 10, 7};
Volume(1) = {1};
Surface Loop(2) = {7, 8, 9};
Volume(2) = {2};
Surface Loop(3) = {10, 11, 12};
Volume(3) = {3};
Physical Surface("WALLS") = {13, 18};
Physical Surface("LOAD") = {8, 11};
Physical Surface("BORDER") = {7, 9, 10, 12, 14, 15, 16, 17};
Physical Volume("SOLID") = {1, 2, 3};
