cl__1 = 0.108107;
cl__2 = 0.061958;
cl__3 = 0.426938;
cl__4 = 0.193339;
cl__5 = 4.995627;
cl__6 = 4.65952;
Point(9) = {3.541773, 1.991997, 0.1, cl__1};
Point(10) = {3.541773, 1.991997, 0, cl__1};
Point(11) = {18.175219, 1.575692, 0.1, cl__2};
Point(12) = {18.175219, 1.575692, 0, cl__2};
Point(13) = {0.417157, -3.564051, 0.1, cl__3};
Point(14) = {0.417157, -3.564051, 0, cl__3};
Point(15) = {0.417157, 4.547825, 0.1, cl__4};
Point(16) = {0.417157, 4.547825, 0, cl__4};
Point(17) = {36.878432, -3.564051, 0, cl__5};
Point(18) = {36.878432, -3.564051, 0.1, cl__5};
Point(19) = {36.878432, 4.547825, 0.1, cl__6};
Point(20) = {36.878432, 4.547825, 0, cl__6};
p13 = newp;
Point(p13 + 1) = {3.528463283613823, 2.161112981383182, 0.1};
Point(p13 + 2) = {3.488861863845137, 2.326064766040947, 0.1};
Point(p13 + 3) = {3.423943859078222, 2.482790693591433, 0.1};
Point(p13 + 4) = {3.335307766040947, 2.627431651554815, 0.1};
Point(p13 + 5) = {3.225136099510217, 2.756426099510216, 0.1};
Point(p13 + 6) = {3.096141651554815, 2.866597766040947, 0.1};
Point(p13 + 7) = {2.951500693591433, 2.955233859078222, 0.1};
Point(p13 + 8) = {2.794774766040947, 3.020151863845137, 0.1};
Point(p13 + 9) = {2.629822981383183, 3.059753283613823, 0.1};
Point(p13 + 10) = {2.460707, 3.073063, 0.1};
Point(p13 + 11) = {2.291591018616818, 3.059753283613823, 0.1};
Point(p13 + 12) = {2.126639233959053, 3.020151863845137, 0.1};
Point(p13 + 13) = {1.969913306408567, 2.955233859078222, 0.1};
Point(p13 + 14) = {1.825272348445186, 2.866597766040947, 0.1};
Point(p13 + 15) = {1.696277900489784, 2.756426099510216, 0.1};
Point(p13 + 16) = {1.586106233959053, 2.627431651554815, 0.1};
Point(p13 + 17) = {1.497470140921778, 2.482790693591433, 0.1};
Point(p13 + 18) = {1.432552136154864, 2.326064766040947, 0.1};
Point(p13 + 19) = {1.392950716386177, 2.161112981383182, 0.1};
Point(p13 + 20) = {1.379641, 1.991997, 0.1};
Point(p13 + 21) = {1.392950716386177, 1.822881018616818, 0.1};
Point(p13 + 22) = {1.432552136154864, 1.657929233959053, 0.1};
Point(p13 + 23) = {1.497470140921778, 1.501203306408568, 0.1};
Point(p13 + 24) = {1.586106233959053, 1.356562348445185, 0.1};
Point(p13 + 25) = {1.696277900489784, 1.227567900489784, 0.1};
Point(p13 + 26) = {1.825272348445185, 1.117396233959053, 0.1};
Point(p13 + 27) = {1.969913306408567, 1.028760140921778, 0.1};
Point(p13 + 28) = {2.126639233959053, 0.9638421361548635, 0.1};
Point(p13 + 29) = {2.291591018616818, 0.9242407163861768, 0.1};
Point(p13 + 30) = {2.460707, 0.9109309999999999, 0.1};
Point(p13 + 31) = {2.629822981383182, 0.9242407163861768, 0.1};
Point(p13 + 32) = {2.794774766040947, 0.9638421361548635, 0.1};
Point(p13 + 33) = {2.951500693591433, 1.028760140921778, 0.1};
Point(p13 + 34) = {3.096141651554815, 1.117396233959053, 0.1};
Point(p13 + 35) = {3.225136099510217, 1.227567900489784, 0.1};
Point(p13 + 36) = {3.335307766040947, 1.356562348445185, 0.1};
Point(p13 + 37) = {3.423943859078222, 1.501203306408567, 0.1};
Point(p13 + 38) = {3.488861863845137, 1.657929233959053, 0.1};
Point(p13 + 39) = {3.528463283613823, 1.822881018616818, 0.1};
Spline(13) = {9, p13 + 1, p13 + 2, p13 + 3, p13 + 4, p13 + 5, p13 + 6, p13 + 7, p13 + 8, p13 + 9, p13 + 10, p13 + 11, p13 + 12, p13 + 13, p13 + 14, p13 + 15, p13 + 16, p13 + 17, p13 + 18, p13 + 19, p13 + 20, p13 + 21, p13 + 22, p13 + 23, p13 + 24, p13 + 25, p13 + 26, p13 + 27, p13 + 28, p13 + 29, p13 + 30, p13 + 31, p13 + 32, p13 + 33, p13 + 34, p13 + 35, p13 + 36, p13 + 37, p13 + 38, p13 + 39, 9};
Line(14) = {10, 9};
p15 = newp;
Point(p15 + 1) = {3.528463283613823, 2.161112981383182, 0};
Point(p15 + 2) = {3.488861863845137, 2.326064766040947, 0};
Point(p15 + 3) = {3.423943859078222, 2.482790693591433, 0};
Point(p15 + 4) = {3.335307766040947, 2.627431651554815, 0};
Point(p15 + 5) = {3.225136099510217, 2.756426099510216, 0};
Point(p15 + 6) = {3.096141651554815, 2.866597766040947, 0};
Point(p15 + 7) = {2.951500693591433, 2.955233859078222, 0};
Point(p15 + 8) = {2.794774766040947, 3.020151863845137, 0};
Point(p15 + 9) = {2.629822981383183, 3.059753283613823, 0};
Point(p15 + 10) = {2.460707, 3.073063, 0};
Point(p15 + 11) = {2.291591018616818, 3.059753283613823, 0};
Point(p15 + 12) = {2.126639233959053, 3.020151863845137, 0};
Point(p15 + 13) = {1.969913306408567, 2.955233859078222, 0};
Point(p15 + 14) = {1.825272348445186, 2.866597766040947, 0};
Point(p15 + 15) = {1.696277900489784, 2.756426099510216, 0};
Point(p15 + 16) = {1.586106233959053, 2.627431651554815, 0};
Point(p15 + 17) = {1.497470140921778, 2.482790693591433, 0};
Point(p15 + 18) = {1.432552136154864, 2.326064766040947, 0};
Point(p15 + 19) = {1.392950716386177, 2.161112981383182, 0};
Point(p15 + 20) = {1.379641, 1.991997, 0};
Point(p15 + 21) = {1.392950716386177, 1.822881018616818, 0};
Point(p15 + 22) = {1.432552136154864, 1.657929233959053, 0};
Point(p15 + 23) = {1.497470140921778, 1.501203306408568, 0};
Point(p15 + 24) = {1.586106233959053, 1.356562348445185, 0};
Point(p15 + 25) = {1.696277900489784, 1.227567900489784, 0};
Point(p15 + 26) = {1.825272348445185, 1.117396233959053, 0};
Point(p15 + 27) = {1.969913306408567, 1.028760140921778, 0};
Point(p15 + 28) = {2.126639233959053, 0.9638421361548635, 0};
Point(p15 + 29) = {2.291591018616818, 0.9242407163861768, 0};
Point(p15 + 30) = {2.460707, 0.9109309999999999, 0};
Point(p15 + 31) = {2.629822981383182, 0.9242407163861768, 0};
Point(p15 + 32) = {2.794774766040947, 0.9638421361548635, 0};
Point(p15 + 33) = {2.951500693591433, 1.028760140921778, 0};
Point(p15 + 34) = {3.096141651554815, 1.117396233959053, 0};
Point(p15 + 35) = {3.225136099510217, 1.227567900489784, 0};
Point(p15 + 36) = {3.335307766040947, 1.356562348445185, 0};
Point(p15 + 37) = {3.423943859078222, 1.501203306408567, 0};
Point(p15 + 38) = {3.488861863845137, 1.657929233959053, 0};
Point(p15 + 39) = {3.528463283613823, 1.822881018616818, 0};
Spline(15) = {10, p15 + 1, p15 + 2, p15 + 3, p15 + 4, p15 + 5, p15 + 6, p15 + 7, p15 + 8, p15 + 9, p15 + 10, p15 + 11, p15 + 12, p15 + 13, p15 + 14, p15 + 15, p15 + 16, p15 + 17, p15 + 18, p15 + 19, p15 + 20, p15 + 21, p15 + 22, p15 + 23, p15 + 24, p15 + 25, p15 + 26, p15 + 27, p15 + 28, p15 + 29, p15 + 30, p15 + 31, p15 + 32, p15 + 33, p15 + 34, p15 + 35, p15 + 36, p15 + 37, p15 + 38, p15 + 39, 10};
p16 = newp;
Point(p16 + 1) = {18.1675908928193, 1.672616291587486, 0.1};
Point(p16 + 2) = {18.14489440059221, 1.767153985442808, 0.1};
Point(p16 + 3) = {18.10768838628272, 1.856977249790627, 0.1};
Point(p16 + 4) = {18.05688898544281, 1.93987433775638, 0.1};
Point(p16 + 5) = {17.99374704791468, 2.013804047914686, 0.1};
Point(p16 + 6) = {17.91981733775638, 2.076945985442808, 0.1};
Point(p16 + 7) = {17.83692024979063, 2.127745386282726, 0.1};
Point(p16 + 8) = {17.74709698544281, 2.164951400592217, 0.1};
Point(p16 + 9) = {17.65255929158749, 2.187647892819298, 0.1};
Point(p16 + 10) = {17.555635, 2.195276, 0.1};
Point(p16 + 11) = {17.45871070841251, 2.187647892819298, 0.1};
Point(p16 + 12) = {17.36417301455719, 2.164951400592217, 0.1};
Point(p16 + 13) = {17.27434975020937, 2.127745386282726, 0.1};
Point(p16 + 14) = {17.19145266224362, 2.076945985442808, 0.1};
Point(p16 + 15) = {17.11752295208531, 2.013804047914686, 0.1};
Point(p16 + 16) = {17.05438101455719, 1.93987433775638, 0.1};
Point(p16 + 17) = {17.00358161371727, 1.856977249790627, 0.1};
Point(p16 + 18) = {16.96637559940778, 1.767153985442808, 0.1};
Point(p16 + 19) = {16.9436791071807, 1.672616291587486, 0.1};
Point(p16 + 20) = {16.936051, 1.575692, 0.1};
Point(p16 + 21) = {16.9436791071807, 1.478767708412514, 0.1};
Point(p16 + 22) = {16.96637559940778, 1.384230014557192, 0.1};
Point(p16 + 23) = {17.00358161371727, 1.294406750209373, 0.1};
Point(p16 + 24) = {17.05438101455719, 1.21150966224362, 0.1};
Point(p16 + 25) = {17.11752295208531, 1.137579952085314, 0.1};
Point(p16 + 26) = {17.19145266224362, 1.074438014557193, 0.1};
Point(p16 + 27) = {17.27434975020937, 1.023638613717274, 0.1};
Point(p16 + 28) = {17.36417301455719, 0.9864325994077837, 0.1};
Point(p16 + 29) = {17.45871070841251, 0.9637361071807024, 0.1};
Point(p16 + 30) = {17.555635, 0.9561080000000001, 0.1};
Point(p16 + 31) = {17.65255929158749, 0.9637361071807022, 0.1};
Point(p16 + 32) = {17.74709698544281, 0.9864325994077836, 0.1};
Point(p16 + 33) = {17.83692024979063, 1.023638613717274, 0.1};
Point(p16 + 34) = {17.91981733775638, 1.074438014557193, 0.1};
Point(p16 + 35) = {17.99374704791468, 1.137579952085314, 0.1};
Point(p16 + 36) = {18.05688898544281, 1.21150966224362, 0.1};
Point(p16 + 37) = {18.10768838628272, 1.294406750209373, 0.1};
Point(p16 + 38) = {18.14489440059221, 1.384230014557193, 0.1};
Point(p16 + 39) = {18.1675908928193, 1.478767708412513, 0.1};
Spline(16) = {11, p16 + 1, p16 + 2, p16 + 3, p16 + 4, p16 + 5, p16 + 6, p16 + 7, p16 + 8, p16 + 9, p16 + 10, p16 + 11, p16 + 12, p16 + 13, p16 + 14, p16 + 15, p16 + 16, p16 + 17, p16 + 18, p16 + 19, p16 + 20, p16 + 21, p16 + 22, p16 + 23, p16 + 24, p16 + 25, p16 + 26, p16 + 27, p16 + 28, p16 + 29, p16 + 30, p16 + 31, p16 + 32, p16 + 33, p16 + 34, p16 + 35, p16 + 36, p16 + 37, p16 + 38, p16 + 39, 11};
Line(17) = {12, 11};
p18 = newp;
Point(p18 + 1) = {18.1675908928193, 1.672616291587486, 0};
Point(p18 + 2) = {18.14489440059221, 1.767153985442808, 0};
Point(p18 + 3) = {18.10768838628272, 1.856977249790627, 0};
Point(p18 + 4) = {18.05688898544281, 1.93987433775638, 0};
Point(p18 + 5) = {17.99374704791468, 2.013804047914686, 0};
Point(p18 + 6) = {17.91981733775638, 2.076945985442808, 0};
Point(p18 + 7) = {17.83692024979063, 2.127745386282726, 0};
Point(p18 + 8) = {17.74709698544281, 2.164951400592217, 0};
Point(p18 + 9) = {17.65255929158749, 2.187647892819298, 0};
Point(p18 + 10) = {17.555635, 2.195276, 0};
Point(p18 + 11) = {17.45871070841251, 2.187647892819298, 0};
Point(p18 + 12) = {17.36417301455719, 2.164951400592217, 0};
Point(p18 + 13) = {17.27434975020937, 2.127745386282726, 0};
Point(p18 + 14) = {17.19145266224362, 2.076945985442808, 0};
Point(p18 + 15) = {17.11752295208531, 2.013804047914686, 0};
Point(p18 + 16) = {17.05438101455719, 1.93987433775638, 0};
Point(p18 + 17) = {17.00358161371727, 1.856977249790627, 0};
Point(p18 + 18) = {16.96637559940778, 1.767153985442808, 0};
Point(p18 + 19) = {16.9436791071807, 1.672616291587486, 0};
Point(p18 + 20) = {16.936051, 1.575692, 0};
Point(p18 + 21) = {16.9436791071807, 1.478767708412514, 0};
Point(p18 + 22) = {16.96637559940778, 1.384230014557192, 0};
Point(p18 + 23) = {17.00358161371727, 1.294406750209373, 0};
Point(p18 + 24) = {17.05438101455719, 1.21150966224362, 0};
Point(p18 + 25) = {17.11752295208531, 1.137579952085314, 0};
Point(p18 + 26) = {17.19145266224362, 1.074438014557193, 0};
Point(p18 + 27) = {17.27434975020937, 1.023638613717274, 0};
Point(p18 + 28) = {17.36417301455719, 0.9864325994077837, 0};
Point(p18 + 29) = {17.45871070841251, 0.9637361071807024, 0};
Point(p18 + 30) = {17.555635, 0.9561080000000001, 0};
Point(p18 + 31) = {17.65255929158749, 0.9637361071807022, 0};
Point(p18 + 32) = {17.74709698544281, 0.9864325994077836, 0};
Point(p18 + 33) = {17.83692024979063, 1.023638613717274, 0};
Point(p18 + 34) = {17.91981733775638, 1.074438014557193, 0};
Point(p18 + 35) = {17.99374704791468, 1.137579952085314, 0};
Point(p18 + 36) = {18.05688898544281, 1.21150966224362, 0};
Point(p18 + 37) = {18.10768838628272, 1.294406750209373, 0};
Point(p18 + 38) = {18.14489440059221, 1.384230014557193, 0};
Point(p18 + 39) = {18.1675908928193, 1.478767708412513, 0};
Spline(18) = {12, p18 + 1, p18 + 2, p18 + 3, p18 + 4, p18 + 5, p18 + 6, p18 + 7, p18 + 8, p18 + 9, p18 + 10, p18 + 11, p18 + 12, p18 + 13, p18 + 14, p18 + 15, p18 + 16, p18 + 17, p18 + 18, p18 + 19, p18 + 20, p18 + 21, p18 + 22, p18 + 23, p18 + 24, p18 + 25, p18 + 26, p18 + 27, p18 + 28, p18 + 29, p18 + 30, p18 + 31, p18 + 32, p18 + 33, p18 + 34, p18 + 35, p18 + 36, p18 + 37, p18 + 38, p18 + 39, 12};
Line(19) = {14, 13};
Line(20) = {13, 15};
Line(21) = {16, 15};
Line(22) = {14, 16};
Line(23) = {14, 17};
Line(24) = {17, 18};
Line(25) = {13, 18};
Line(26) = {15, 19};
Line(27) = {18, 19};
Line(28) = {16, 20};
Line(29) = {20, 19};
Line(30) = {17, 20};
Curve Loop(7) = {-13, -14, 15, 14};
Surface(7) = {7};
Curve Loop(8) = {13};
Plane Surface(8) = {8};
Curve Loop(9) = {15};
Plane Surface(9) = {9};
Curve Loop(10) = {-16, -17, 18, 17};
Surface(10) = {10};
Curve Loop(11) = {16};
Plane Surface(11) = {11};
Curve Loop(12) = {18};
Plane Surface(12) = {12};
Curve Loop(13) = {-19, 22, 21, -20};
Plane Surface(13) = {13};
Curve Loop(14) = {-23, 19, 25, -24};
Plane Surface(14) = {14};
Curve Loop(15) = {-20, 25, 27, -26, -16, -13};
Plane Surface(15) = {15};
Curve Loop(16) = {-28, 21, 26, -29};
Plane Surface(16) = {16};
Curve Loop(17) = {-22, 23, 30, -28, -18, -15};
Plane Surface(17) = {17};
Curve Loop(18) = {-24, 30, 29, -27};
Plane Surface(18) = {18};
Surface Loop(1) = {13, 14, 15, 16, 17, 18, 10, 7};
Volume(1) = {1};
Surface Loop(2) = {7, 8, 9};
Volume(2) = {2};
Surface Loop(3) = {10, 11, 12};
Volume(3) = {3};
Physical Surface("WALLS") = {13, 18};
Physical Surface("LOAD") = {8, 11};
Physical Surface("BORDER") = {7, 9, 10, 12, 14, 15, 16, 17};
Physical Volume("SOLID") = {1, 2, 3};
