cl__1 = 0.09553300000000001;
cl__2 = 0.09761599999999999;
cl__3 = 0.267154;
cl__4 = 0.426992;
cl__5 = 4.499673;
cl__6 = 4.532518;
Point(9) = {5.353709, -1.606445, 0.1, cl__1};
Point(10) = {5.353709, -1.606445, 0, cl__1};
Point(11) = {7.398460999999999, -0.1458110000000002, 0.1, cl__2};
Point(12) = {7.398460999999999, -0.1458110000000002, 0, cl__2};
Point(13) = {0.344967, -4.245407, 1, cl__3};
Point(14) = {0.344967, -4.245407, 0, cl__3};
Point(15) = {0.344967, 4.294532, 1, cl__4};
Point(16) = {0.344967, 4.294532, 0, cl__4};
Point(17) = {31.045493, -4.245407, 0, cl__5};
Point(18) = {31.045493, -4.245407, 1, cl__5};
Point(19) = {31.045493, 4.294532, 1, cl__6};
Point(20) = {31.045493, 4.294532, 0, cl__6};
p13 = newp;
Point(p13 + 1) = {5.341947265485775, -1.456997993209721, 0.1};
Point(p13 + 2) = {5.306951674881798, -1.311230867712798, 0.1};
Point(p13 + 3) = {5.249583935772446, -1.17273289391232, 0.1};
Point(p13 + 4) = {5.171256632287202, -1.044914351571675, 0.1};
Point(p13 + 5) = {5.073898442591288, -0.930922557408712, 0.1};
Point(p13 + 6) = {4.959906648428325, -0.8335643677127983, 0.1};
Point(p13 + 7) = {4.832088106087681, -0.755237064227554, 0.1};
Point(p13 + 8) = {4.693590132287201, -0.697869325118202, 0.1};
Point(p13 + 9) = {4.547823006790279, -0.6628737345142252, 0.1};
Point(p13 + 10) = {4.398376, -0.6511119999999999, 0.1};
Point(p13 + 11) = {4.248928993209721, -0.6628737345142253, 0.1};
Point(p13 + 12) = {4.103161867712799, -0.6978693251182019, 0.1};
Point(p13 + 13) = {3.96466389391232, -0.7552370642275539, 0.1};
Point(p13 + 14) = {3.836845351571675, -0.8335643677127982, 0.1};
Point(p13 + 15) = {3.722853557408712, -0.9309225574087119, 0.1};
Point(p13 + 16) = {3.625495367712798, -1.044914351571675, 0.1};
Point(p13 + 17) = {3.547168064227554, -1.172732893912319, 0.1};
Point(p13 + 18) = {3.489800325118202, -1.311230867712798, 0.1};
Point(p13 + 19) = {3.454804734514225, -1.456997993209721, 0.1};
Point(p13 + 20) = {3.443043, -1.606445, 0.1};
Point(p13 + 21) = {3.454804734514225, -1.755892006790279, 0.1};
Point(p13 + 22) = {3.489800325118202, -1.901659132287202, 0.1};
Point(p13 + 23) = {3.547168064227554, -2.04015710608768, 0.1};
Point(p13 + 24) = {3.625495367712798, -2.167975648428325, 0.1};
Point(p13 + 25) = {3.722853557408712, -2.281967442591288, 0.1};
Point(p13 + 26) = {3.836845351571674, -2.379325632287201, 0.1};
Point(p13 + 27) = {3.964663893912319, -2.457652935772446, 0.1};
Point(p13 + 28) = {4.103161867712798, -2.515020674881798, 0.1};
Point(p13 + 29) = {4.248928993209721, -2.550016265485775, 0.1};
Point(p13 + 30) = {4.398376, -2.561778, 0.1};
Point(p13 + 31) = {4.547823006790279, -2.550016265485775, 0.1};
Point(p13 + 32) = {4.693590132287201, -2.515020674881798, 0.1};
Point(p13 + 33) = {4.83208810608768, -2.457652935772446, 0.1};
Point(p13 + 34) = {4.959906648428325, -2.379325632287202, 0.1};
Point(p13 + 35) = {5.073898442591288, -2.281967442591288, 0.1};
Point(p13 + 36) = {5.171256632287202, -2.167975648428325, 0.1};
Point(p13 + 37) = {5.249583935772446, -2.040157106087681, 0.1};
Point(p13 + 38) = {5.306951674881798, -1.901659132287202, 0.1};
Point(p13 + 39) = {5.341947265485775, -1.755892006790279, 0.1};
Spline(13) = {9, p13 + 1, p13 + 2, p13 + 3, p13 + 4, p13 + 5, p13 + 6, p13 + 7, p13 + 8, p13 + 9, p13 + 10, p13 + 11, p13 + 12, p13 + 13, p13 + 14, p13 + 15, p13 + 16, p13 + 17, p13 + 18, p13 + 19, p13 + 20, p13 + 21, p13 + 22, p13 + 23, p13 + 24, p13 + 25, p13 + 26, p13 + 27, p13 + 28, p13 + 29, p13 + 30, p13 + 31, p13 + 32, p13 + 33, p13 + 34, p13 + 35, p13 + 36, p13 + 37, p13 + 38, p13 + 39, 9};
Line(14) = {10, 9};
p15 = newp;
Point(p15 + 1) = {5.341947265485775, -1.456997993209721, 0};
Point(p15 + 2) = {5.306951674881798, -1.311230867712798, 0};
Point(p15 + 3) = {5.249583935772446, -1.17273289391232, 0};
Point(p15 + 4) = {5.171256632287202, -1.044914351571675, 0};
Point(p15 + 5) = {5.073898442591288, -0.930922557408712, 0};
Point(p15 + 6) = {4.959906648428325, -0.8335643677127983, 0};
Point(p15 + 7) = {4.832088106087681, -0.755237064227554, 0};
Point(p15 + 8) = {4.693590132287201, -0.697869325118202, 0};
Point(p15 + 9) = {4.547823006790279, -0.6628737345142252, 0};
Point(p15 + 10) = {4.398376, -0.6511119999999999, 0};
Point(p15 + 11) = {4.248928993209721, -0.6628737345142253, 0};
Point(p15 + 12) = {4.103161867712799, -0.6978693251182019, 0};
Point(p15 + 13) = {3.96466389391232, -0.7552370642275539, 0};
Point(p15 + 14) = {3.836845351571675, -0.8335643677127982, 0};
Point(p15 + 15) = {3.722853557408712, -0.9309225574087119, 0};
Point(p15 + 16) = {3.625495367712798, -1.044914351571675, 0};
Point(p15 + 17) = {3.547168064227554, -1.172732893912319, 0};
Point(p15 + 18) = {3.489800325118202, -1.311230867712798, 0};
Point(p15 + 19) = {3.454804734514225, -1.456997993209721, 0};
Point(p15 + 20) = {3.443043, -1.606445, 0};
Point(p15 + 21) = {3.454804734514225, -1.755892006790279, 0};
Point(p15 + 22) = {3.489800325118202, -1.901659132287202, 0};
Point(p15 + 23) = {3.547168064227554, -2.04015710608768, 0};
Point(p15 + 24) = {3.625495367712798, -2.167975648428325, 0};
Point(p15 + 25) = {3.722853557408712, -2.281967442591288, 0};
Point(p15 + 26) = {3.836845351571674, -2.379325632287201, 0};
Point(p15 + 27) = {3.964663893912319, -2.457652935772446, 0};
Point(p15 + 28) = {4.103161867712798, -2.515020674881798, 0};
Point(p15 + 29) = {4.248928993209721, -2.550016265485775, 0};
Point(p15 + 30) = {4.398376, -2.561778, 0};
Point(p15 + 31) = {4.547823006790279, -2.550016265485775, 0};
Point(p15 + 32) = {4.693590132287201, -2.515020674881798, 0};
Point(p15 + 33) = {4.83208810608768, -2.457652935772446, 0};
Point(p15 + 34) = {4.959906648428325, -2.379325632287202, 0};
Point(p15 + 35) = {5.073898442591288, -2.281967442591288, 0};
Point(p15 + 36) = {5.171256632287202, -2.167975648428325, 0};
Point(p15 + 37) = {5.249583935772446, -2.040157106087681, 0};
Point(p15 + 38) = {5.306951674881798, -1.901659132287202, 0};
Point(p15 + 39) = {5.341947265485775, -1.755892006790279, 0};
Spline(15) = {10, p15 + 1, p15 + 2, p15 + 3, p15 + 4, p15 + 5, p15 + 6, p15 + 7, p15 + 8, p15 + 9, p15 + 10, p15 + 11, p15 + 12, p15 + 13, p15 + 14, p15 + 15, p15 + 16, p15 + 17, p15 + 18, p15 + 19, p15 + 20, p15 + 21, p15 + 22, p15 + 23, p15 + 24, p15 + 25, p15 + 26, p15 + 27, p15 + 28, p15 + 29, p15 + 30, p15 + 31, p15 + 32, p15 + 33, p15 + 34, p15 + 35, p15 + 36, p15 + 37, p15 + 38, p15 + 39, 10};
p16 = newp;
Point(p16 + 1) = {7.386442813620371, 0.006894536697066883, 0.1};
Point(p16 + 2) = {7.350684182116225, 0.1558399562800318, 0.1};
Point(p16 + 3) = {7.29206560167129, 0.2973577281972551, 0.1};
Point(p16 + 4) = {7.212030456280031, 0.4279632152335774, 0.1};
Point(p16 + 5) = {7.112549476843403, 0.5444404768434037, 0.1};
Point(p16 + 6) = {6.996072215233577, 0.6439214562800317, 0.1};
Point(p16 + 7) = {6.865466728197255, 0.7239566016712896, 0.1};
Point(p16 + 8) = {6.723948956280031, 0.7825751821162259, 0.1};
Point(p16 + 9) = {6.575003536697067, 0.8183338136203715, 0.1};
Point(p16 + 10) = {6.422298, 0.830352, 0.1};
Point(p16 + 11) = {6.269592463302932, 0.8183338136203714, 0.1};
Point(p16 + 12) = {6.120647043719968, 0.782575182116226, 0.1};
Point(p16 + 13) = {5.979129271802744, 0.7239566016712897, 0.1};
Point(p16 + 14) = {5.848523784766423, 0.6439214562800318, 0.1};
Point(p16 + 15) = {5.732046523156596, 0.5444404768434038, 0.1};
Point(p16 + 16) = {5.632565543719968, 0.4279632152335775, 0.1};
Point(p16 + 17) = {5.55253039832871, 0.2973577281972553, 0.1};
Point(p16 + 18) = {5.493911817883774, 0.1558399562800319, 0.1};
Point(p16 + 19) = {5.458153186379628, 0.006894536697066994, 0.1};
Point(p16 + 20) = {5.446135, -0.1458109999999999, 0.1};
Point(p16 + 21) = {5.458153186379628, -0.2985165366970668, 0.1};
Point(p16 + 22) = {5.493911817883774, -0.447461956280032, 0.1};
Point(p16 + 23) = {5.55253039832871, -0.5889797281972547, 0.1};
Point(p16 + 24) = {5.632565543719968, -0.7195852152335773, 0.1};
Point(p16 + 25) = {5.732046523156596, -0.8360624768434037, 0.1};
Point(p16 + 26) = {5.848523784766422, -0.9355434562800318, 0.1};
Point(p16 + 27) = {5.979129271802744, -1.01557860167129, 0.1};
Point(p16 + 28) = {6.120647043719968, -1.074197182116226, 0.1};
Point(p16 + 29) = {6.269592463302932, -1.109955813620371, 0.1};
Point(p16 + 30) = {6.422298, -1.121974, 0.1};
Point(p16 + 31) = {6.575003536697066, -1.109955813620372, 0.1};
Point(p16 + 32) = {6.723948956280031, -1.074197182116226, 0.1};
Point(p16 + 33) = {6.865466728197255, -1.01557860167129, 0.1};
Point(p16 + 34) = {6.996072215233577, -0.935543456280032, 0.1};
Point(p16 + 35) = {7.112549476843403, -0.836062476843404, 0.1};
Point(p16 + 36) = {7.212030456280031, -0.7195852152335775, 0.1};
Point(p16 + 37) = {7.29206560167129, -0.5889797281972554, 0.1};
Point(p16 + 38) = {7.350684182116225, -0.4474619562800319, 0.1};
Point(p16 + 39) = {7.386442813620371, -0.2985165366970671, 0.1};
Spline(16) = {11, p16 + 1, p16 + 2, p16 + 3, p16 + 4, p16 + 5, p16 + 6, p16 + 7, p16 + 8, p16 + 9, p16 + 10, p16 + 11, p16 + 12, p16 + 13, p16 + 14, p16 + 15, p16 + 16, p16 + 17, p16 + 18, p16 + 19, p16 + 20, p16 + 21, p16 + 22, p16 + 23, p16 + 24, p16 + 25, p16 + 26, p16 + 27, p16 + 28, p16 + 29, p16 + 30, p16 + 31, p16 + 32, p16 + 33, p16 + 34, p16 + 35, p16 + 36, p16 + 37, p16 + 38, p16 + 39, 11};
Line(17) = {12, 11};
p18 = newp;
Point(p18 + 1) = {7.386442813620371, 0.006894536697066883, 0};
Point(p18 + 2) = {7.350684182116225, 0.1558399562800318, 0};
Point(p18 + 3) = {7.29206560167129, 0.2973577281972551, 0};
Point(p18 + 4) = {7.212030456280031, 0.4279632152335774, 0};
Point(p18 + 5) = {7.112549476843403, 0.5444404768434037, 0};
Point(p18 + 6) = {6.996072215233577, 0.6439214562800317, 0};
Point(p18 + 7) = {6.865466728197255, 0.7239566016712896, 0};
Point(p18 + 8) = {6.723948956280031, 0.7825751821162259, 0};
Point(p18 + 9) = {6.575003536697067, 0.8183338136203715, 0};
Point(p18 + 10) = {6.422298, 0.830352, 0};
Point(p18 + 11) = {6.269592463302932, 0.8183338136203714, 0};
Point(p18 + 12) = {6.120647043719968, 0.782575182116226, 0};
Point(p18 + 13) = {5.979129271802744, 0.7239566016712897, 0};
Point(p18 + 14) = {5.848523784766423, 0.6439214562800318, 0};
Point(p18 + 15) = {5.732046523156596, 0.5444404768434038, 0};
Point(p18 + 16) = {5.632565543719968, 0.4279632152335775, 0};
Point(p18 + 17) = {5.55253039832871, 0.2973577281972553, 0};
Point(p18 + 18) = {5.493911817883774, 0.1558399562800319, 0};
Point(p18 + 19) = {5.458153186379628, 0.006894536697066994, 0};
Point(p18 + 20) = {5.446135, -0.1458109999999999, 0};
Point(p18 + 21) = {5.458153186379628, -0.2985165366970668, 0};
Point(p18 + 22) = {5.493911817883774, -0.447461956280032, 0};
Point(p18 + 23) = {5.55253039832871, -0.5889797281972547, 0};
Point(p18 + 24) = {5.632565543719968, -0.7195852152335773, 0};
Point(p18 + 25) = {5.732046523156596, -0.8360624768434037, 0};
Point(p18 + 26) = {5.848523784766422, -0.9355434562800318, 0};
Point(p18 + 27) = {5.979129271802744, -1.01557860167129, 0};
Point(p18 + 28) = {6.120647043719968, -1.074197182116226, 0};
Point(p18 + 29) = {6.269592463302932, -1.109955813620371, 0};
Point(p18 + 30) = {6.422298, -1.121974, 0};
Point(p18 + 31) = {6.575003536697066, -1.109955813620372, 0};
Point(p18 + 32) = {6.723948956280031, -1.074197182116226, 0};
Point(p18 + 33) = {6.865466728197255, -1.01557860167129, 0};
Point(p18 + 34) = {6.996072215233577, -0.935543456280032, 0};
Point(p18 + 35) = {7.112549476843403, -0.836062476843404, 0};
Point(p18 + 36) = {7.212030456280031, -0.7195852152335775, 0};
Point(p18 + 37) = {7.29206560167129, -0.5889797281972554, 0};
Point(p18 + 38) = {7.350684182116225, -0.4474619562800319, 0};
Point(p18 + 39) = {7.386442813620371, -0.2985165366970671, 0};
Spline(18) = {12, p18 + 1, p18 + 2, p18 + 3, p18 + 4, p18 + 5, p18 + 6, p18 + 7, p18 + 8, p18 + 9, p18 + 10, p18 + 11, p18 + 12, p18 + 13, p18 + 14, p18 + 15, p18 + 16, p18 + 17, p18 + 18, p18 + 19, p18 + 20, p18 + 21, p18 + 22, p18 + 23, p18 + 24, p18 + 25, p18 + 26, p18 + 27, p18 + 28, p18 + 29, p18 + 30, p18 + 31, p18 + 32, p18 + 33, p18 + 34, p18 + 35, p18 + 36, p18 + 37, p18 + 38, p18 + 39, 12};
Line(19) = {14, 13};
Line(20) = {13, 15};
Line(21) = {16, 15};
Line(22) = {14, 16};
Line(23) = {14, 17};
Line(24) = {17, 18};
Line(25) = {13, 18};
Line(26) = {15, 19};
Line(27) = {18, 19};
Line(28) = {16, 20};
Line(29) = {20, 19};
Line(30) = {17, 20};
Curve Loop(7) = {-13, -14, 15, 14};
Surface(7) = {7};
Curve Loop(8) = {13};
Plane Surface(8) = {8};
Curve Loop(9) = {15};
Plane Surface(9) = {9};
Curve Loop(10) = {-16, -17, 18, 17};
Surface(10) = {10};
Curve Loop(11) = {16};
Plane Surface(11) = {11};
Curve Loop(12) = {18};
Plane Surface(12) = {12};
Curve Loop(13) = {-19, 22, 21, -20};
Plane Surface(13) = {13};
Curve Loop(14) = {-23, 19, 25, -24};
Plane Surface(14) = {14};
Curve Loop(15) = {-20, 25, 27, -26};
Plane Surface(15) = {15};
Curve Loop(16) = {-28, 21, 26, -29};
Plane Surface(16) = {16};
Curve Loop(17) = {-22, 23, 30, -28, -15, -18};
Plane Surface(17) = {17};
Curve Loop(18) = {-24, 30, 29, -27};
Plane Surface(18) = {18};
Surface Loop(1) = {13, 14, 15, 16, 17, 18, 7, 10, 8, 11};
Volume(1) = {1};
Surface Loop(2) = {7, 8, 9};
Volume(2) = {2};
Surface Loop(3) = {10, 11, 12};
Volume(3) = {3};
Physical Surface("WALLS") = {13, 18};
Physical Surface("LOAD") = {8, 11};
Physical Surface("BORDER") = {7, 9, 10, 12, 14, 15, 16, 17};
Physical Volume("SOLID") = {1, 2, 3};
