cl__1 = 0.07137499999999999;
cl__2 = 0.145732;
cl__3 = 0.496489;
cl__4 = 0.513155;
cl__5 = 3.261824;
cl__6 = 3.424605;
Point(9) = {7.364998, -0.1377030000000002, 0.1, cl__1};
Point(10) = {7.364998, -0.1377030000000002, 0, cl__1};
Point(11) = {19.654388, -0.7383640000000004, 0.1, cl__2};
Point(12) = {19.654388, -0.7383640000000004, 0, cl__2};
Point(13) = {0.550325, -4.744446, 0.1, cl__3};
Point(14) = {0.550325, -4.744446, 0, cl__3};
Point(15) = {0.550325, 4.845623, 0.1, cl__4};
Point(16) = {0.550325, 4.845623, 0, cl__4};
Point(17) = {39.992824, -4.744446, 0, cl__5};
Point(18) = {39.992824, -4.744446, 0.1, cl__5};
Point(19) = {39.992824, 4.845623, 0.1, cl__6};
Point(20) = {39.992824, 4.845623, 0, cl__6};
p13 = newp;
Point(p13 + 1) = {7.356210590034758, -0.02604836988093033, 0.1};
Point(p13 + 2) = {7.330064735336117, 0.08285695268413559, 0.1};
Point(p13 + 3) = {7.287204233619875, 0.1863313572176023, 0.1};
Point(p13 + 4) = {7.228684452684136, 0.2818269604679958, 0.1};
Point(p13 + 5) = {7.155946343751555, 0.3669923437515547, 0.1};
Point(p13 + 6) = {7.070780960467996, 0.4397304526841356, 0.1};
Point(p13 + 7) = {6.975285357217603, 0.498250233619875, 0.1};
Point(p13 + 8) = {6.871810952684136, 0.541110735336117, 0.1};
Point(p13 + 9) = {6.76290563011907, 0.5672565900347578, 0.1};
Point(p13 + 10) = {6.651251, 0.576044, 0.1};
Point(p13 + 11) = {6.539596369880931, 0.5672565900347577, 0.1};
Point(p13 + 12) = {6.430691047315864, 0.541110735336117, 0.1};
Point(p13 + 13) = {6.327216642782398, 0.498250233619875, 0.1};
Point(p13 + 14) = {6.231721039532005, 0.4397304526841356, 0.1};
Point(p13 + 15) = {6.146555656248445, 0.3669923437515548, 0.1};
Point(p13 + 16) = {6.073817547315865, 0.2818269604679959, 0.1};
Point(p13 + 17) = {6.015297766380125, 0.1863313572176024, 0.1};
Point(p13 + 18) = {5.972437264663883, 0.08285695268413568, 0.1};
Point(p13 + 19) = {5.946291409965243, -0.02604836988093025, 0.1};
Point(p13 + 20) = {5.937504000000001, -0.1377029999999999, 0.1};
Point(p13 + 21) = {5.946291409965243, -0.2493576301190696, 0.1};
Point(p13 + 22) = {5.972437264663883, -0.3582629526841358, 0.1};
Point(p13 + 23) = {6.015297766380125, -0.461737357217602, 0.1};
Point(p13 + 24) = {6.073817547315865, -0.5572329604679958, 0.1};
Point(p13 + 25) = {6.146555656248445, -0.6423983437515547, 0.1};
Point(p13 + 26) = {6.231721039532005, -0.7151364526841356, 0.1};
Point(p13 + 27) = {6.327216642782398, -0.773656233619875, 0.1};
Point(p13 + 28) = {6.430691047315864, -0.816516735336117, 0.1};
Point(p13 + 29) = {6.539596369880931, -0.8426625900347577, 0.1};
Point(p13 + 30) = {6.651251, -0.85145, 0.1};
Point(p13 + 31) = {6.76290563011907, -0.8426625900347579, 0.1};
Point(p13 + 32) = {6.871810952684136, -0.816516735336117, 0.1};
Point(p13 + 33) = {6.975285357217603, -0.7736562336198751, 0.1};
Point(p13 + 34) = {7.070780960467996, -0.7151364526841357, 0.1};
Point(p13 + 35) = {7.155946343751555, -0.6423983437515549, 0.1};
Point(p13 + 36) = {7.228684452684136, -0.5572329604679959, 0.1};
Point(p13 + 37) = {7.287204233619875, -0.4617373572176025, 0.1};
Point(p13 + 38) = {7.330064735336117, -0.3582629526841358, 0.1};
Point(p13 + 39) = {7.356210590034758, -0.2493576301190698, 0.1};
Spline(13) = {9, p13 + 1, p13 + 2, p13 + 3, p13 + 4, p13 + 5, p13 + 6, p13 + 7, p13 + 8, p13 + 9, p13 + 10, p13 + 11, p13 + 12, p13 + 13, p13 + 14, p13 + 15, p13 + 16, p13 + 17, p13 + 18, p13 + 19, p13 + 20, p13 + 21, p13 + 22, p13 + 23, p13 + 24, p13 + 25, p13 + 26, p13 + 27, p13 + 28, p13 + 29, p13 + 30, p13 + 31, p13 + 32, p13 + 33, p13 + 34, p13 + 35, p13 + 36, p13 + 37, p13 + 38, p13 + 39, 9};
Line(14) = {10, 9};
p15 = newp;
Point(p15 + 1) = {7.356210590034758, -0.02604836988093033, 0};
Point(p15 + 2) = {7.330064735336117, 0.08285695268413559, 0};
Point(p15 + 3) = {7.287204233619875, 0.1863313572176023, 0};
Point(p15 + 4) = {7.228684452684136, 0.2818269604679958, 0};
Point(p15 + 5) = {7.155946343751555, 0.3669923437515547, 0};
Point(p15 + 6) = {7.070780960467996, 0.4397304526841356, 0};
Point(p15 + 7) = {6.975285357217603, 0.498250233619875, 0};
Point(p15 + 8) = {6.871810952684136, 0.541110735336117, 0};
Point(p15 + 9) = {6.76290563011907, 0.5672565900347578, 0};
Point(p15 + 10) = {6.651251, 0.576044, 0};
Point(p15 + 11) = {6.539596369880931, 0.5672565900347577, 0};
Point(p15 + 12) = {6.430691047315864, 0.541110735336117, 0};
Point(p15 + 13) = {6.327216642782398, 0.498250233619875, 0};
Point(p15 + 14) = {6.231721039532005, 0.4397304526841356, 0};
Point(p15 + 15) = {6.146555656248445, 0.3669923437515548, 0};
Point(p15 + 16) = {6.073817547315865, 0.2818269604679959, 0};
Point(p15 + 17) = {6.015297766380125, 0.1863313572176024, 0};
Point(p15 + 18) = {5.972437264663883, 0.08285695268413568, 0};
Point(p15 + 19) = {5.946291409965243, -0.02604836988093025, 0};
Point(p15 + 20) = {5.937504000000001, -0.1377029999999999, 0};
Point(p15 + 21) = {5.946291409965243, -0.2493576301190696, 0};
Point(p15 + 22) = {5.972437264663883, -0.3582629526841358, 0};
Point(p15 + 23) = {6.015297766380125, -0.461737357217602, 0};
Point(p15 + 24) = {6.073817547315865, -0.5572329604679958, 0};
Point(p15 + 25) = {6.146555656248445, -0.6423983437515547, 0};
Point(p15 + 26) = {6.231721039532005, -0.7151364526841356, 0};
Point(p15 + 27) = {6.327216642782398, -0.773656233619875, 0};
Point(p15 + 28) = {6.430691047315864, -0.816516735336117, 0};
Point(p15 + 29) = {6.539596369880931, -0.8426625900347577, 0};
Point(p15 + 30) = {6.651251, -0.85145, 0};
Point(p15 + 31) = {6.76290563011907, -0.8426625900347579, 0};
Point(p15 + 32) = {6.871810952684136, -0.816516735336117, 0};
Point(p15 + 33) = {6.975285357217603, -0.7736562336198751, 0};
Point(p15 + 34) = {7.070780960467996, -0.7151364526841357, 0};
Point(p15 + 35) = {7.155946343751555, -0.6423983437515549, 0};
Point(p15 + 36) = {7.228684452684136, -0.5572329604679959, 0};
Point(p15 + 37) = {7.287204233619875, -0.4617373572176025, 0};
Point(p15 + 38) = {7.330064735336117, -0.3582629526841358, 0};
Point(p15 + 39) = {7.356210590034758, -0.2493576301190698, 0};
Spline(15) = {10, p15 + 1, p15 + 2, p15 + 3, p15 + 4, p15 + 5, p15 + 6, p15 + 7, p15 + 8, p15 + 9, p15 + 10, p15 + 11, p15 + 12, p15 + 13, p15 + 14, p15 + 15, p15 + 16, p15 + 17, p15 + 18, p15 + 19, p15 + 20, p15 + 21, p15 + 22, p15 + 23, p15 + 24, p15 + 25, p15 + 26, p15 + 27, p15 + 28, p15 + 29, p15 + 30, p15 + 31, p15 + 32, p15 + 33, p15 + 34, p15 + 35, p15 + 36, p15 + 37, p15 + 38, p15 + 39, 10};
p16 = newp;
Point(p16 + 1) = {19.63644599713943, -0.5103892382765008, 0.1};
Point(p16 + 2) = {19.58306178021422, -0.2880279717914905, 0.1};
Point(p16 + 3) = {19.49554984581714, -0.07675547290056328, 0.1};
Point(p16 + 4) = {19.37606502820851, 0.1182260283003623, 0.1};
Point(p16 + 5) = {19.22754944014522, 0.2921154401452168, 0.1};
Point(p16 + 6) = {19.05366002830036, 0.4406310282085093, 0.1};
Point(p16 + 7) = {18.85867852709944, 0.5601158458171436, 0.1};
Point(p16 + 8) = {18.64740602820851, 0.6476277802142205, 0.1};
Point(p16 + 9) = {18.4250447617235, 0.7010119971394249, 0.1};
Point(p16 + 10) = {18.19707, 0.7189539999999999, 0.1};
Point(p16 + 11) = {17.9690952382765, 0.7010119971394246, 0.1};
Point(p16 + 12) = {17.74673397179149, 0.6476277802142205, 0.1};
Point(p16 + 13) = {17.53546147290056, 0.5601158458171438, 0.1};
Point(p16 + 14) = {17.34047997169964, 0.4406310282085095, 0.1};
Point(p16 + 15) = {17.16659055985478, 0.2921154401452171, 0.1};
Point(p16 + 16) = {17.01807497179149, 0.1182260283003624, 0.1};
Point(p16 + 17) = {16.89859015418286, -0.07675547290056317, 0.1};
Point(p16 + 18) = {16.81107821978578, -0.2880279717914903, 0.1};
Point(p16 + 19) = {16.75769400286057, -0.5103892382765007, 0.1};
Point(p16 + 20) = {16.739752, -0.7383639999999998, 0.1};
Point(p16 + 21) = {16.75769400286057, -0.966338761723499, 0.1};
Point(p16 + 22) = {16.81107821978578, -1.18870002820851, 0.1};
Point(p16 + 23) = {16.89859015418286, -1.399972527099436, 0.1};
Point(p16 + 24) = {17.01807497179149, -1.594954028300362, 0.1};
Point(p16 + 25) = {17.16659055985478, -1.768843440145217, 0.1};
Point(p16 + 26) = {17.34047997169964, -1.917359028208509, 0.1};
Point(p16 + 27) = {17.53546147290056, -2.036843845817144, 0.1};
Point(p16 + 28) = {17.74673397179149, -2.124355780214221, 0.1};
Point(p16 + 29) = {17.9690952382765, -2.177739997139425, 0.1};
Point(p16 + 30) = {18.19707, -2.195682, 0.1};
Point(p16 + 31) = {18.4250447617235, -2.177739997139425, 0.1};
Point(p16 + 32) = {18.64740602820851, -2.124355780214221, 0.1};
Point(p16 + 33) = {18.85867852709944, -2.036843845817144, 0.1};
Point(p16 + 34) = {19.05366002830036, -1.91735902820851, 0.1};
Point(p16 + 35) = {19.22754944014522, -1.768843440145217, 0.1};
Point(p16 + 36) = {19.37606502820851, -1.594954028300362, 0.1};
Point(p16 + 37) = {19.49554984581714, -1.399972527099437, 0.1};
Point(p16 + 38) = {19.58306178021422, -1.18870002820851, 0.1};
Point(p16 + 39) = {19.63644599713943, -0.9663387617234995, 0.1};
Spline(16) = {11, p16 + 1, p16 + 2, p16 + 3, p16 + 4, p16 + 5, p16 + 6, p16 + 7, p16 + 8, p16 + 9, p16 + 10, p16 + 11, p16 + 12, p16 + 13, p16 + 14, p16 + 15, p16 + 16, p16 + 17, p16 + 18, p16 + 19, p16 + 20, p16 + 21, p16 + 22, p16 + 23, p16 + 24, p16 + 25, p16 + 26, p16 + 27, p16 + 28, p16 + 29, p16 + 30, p16 + 31, p16 + 32, p16 + 33, p16 + 34, p16 + 35, p16 + 36, p16 + 37, p16 + 38, p16 + 39, 11};
Line(17) = {12, 11};
p18 = newp;
Point(p18 + 1) = {19.63644599713943, -0.5103892382765008, 0};
Point(p18 + 2) = {19.58306178021422, -0.2880279717914905, 0};
Point(p18 + 3) = {19.49554984581714, -0.07675547290056328, 0};
Point(p18 + 4) = {19.37606502820851, 0.1182260283003623, 0};
Point(p18 + 5) = {19.22754944014522, 0.2921154401452168, 0};
Point(p18 + 6) = {19.05366002830036, 0.4406310282085093, 0};
Point(p18 + 7) = {18.85867852709944, 0.5601158458171436, 0};
Point(p18 + 8) = {18.64740602820851, 0.6476277802142205, 0};
Point(p18 + 9) = {18.4250447617235, 0.7010119971394249, 0};
Point(p18 + 10) = {18.19707, 0.7189539999999999, 0};
Point(p18 + 11) = {17.9690952382765, 0.7010119971394246, 0};
Point(p18 + 12) = {17.74673397179149, 0.6476277802142205, 0};
Point(p18 + 13) = {17.53546147290056, 0.5601158458171438, 0};
Point(p18 + 14) = {17.34047997169964, 0.4406310282085095, 0};
Point(p18 + 15) = {17.16659055985478, 0.2921154401452171, 0};
Point(p18 + 16) = {17.01807497179149, 0.1182260283003624, 0};
Point(p18 + 17) = {16.89859015418286, -0.07675547290056317, 0};
Point(p18 + 18) = {16.81107821978578, -0.2880279717914903, 0};
Point(p18 + 19) = {16.75769400286057, -0.5103892382765007, 0};
Point(p18 + 20) = {16.739752, -0.7383639999999998, 0};
Point(p18 + 21) = {16.75769400286057, -0.966338761723499, 0};
Point(p18 + 22) = {16.81107821978578, -1.18870002820851, 0};
Point(p18 + 23) = {16.89859015418286, -1.399972527099436, 0};
Point(p18 + 24) = {17.01807497179149, -1.594954028300362, 0};
Point(p18 + 25) = {17.16659055985478, -1.768843440145217, 0};
Point(p18 + 26) = {17.34047997169964, -1.917359028208509, 0};
Point(p18 + 27) = {17.53546147290056, -2.036843845817144, 0};
Point(p18 + 28) = {17.74673397179149, -2.124355780214221, 0};
Point(p18 + 29) = {17.9690952382765, -2.177739997139425, 0};
Point(p18 + 30) = {18.19707, -2.195682, 0};
Point(p18 + 31) = {18.4250447617235, -2.177739997139425, 0};
Point(p18 + 32) = {18.64740602820851, -2.124355780214221, 0};
Point(p18 + 33) = {18.85867852709944, -2.036843845817144, 0};
Point(p18 + 34) = {19.05366002830036, -1.91735902820851, 0};
Point(p18 + 35) = {19.22754944014522, -1.768843440145217, 0};
Point(p18 + 36) = {19.37606502820851, -1.594954028300362, 0};
Point(p18 + 37) = {19.49554984581714, -1.399972527099437, 0};
Point(p18 + 38) = {19.58306178021422, -1.18870002820851, 0};
Point(p18 + 39) = {19.63644599713943, -0.9663387617234995, 0};
Spline(18) = {12, p18 + 1, p18 + 2, p18 + 3, p18 + 4, p18 + 5, p18 + 6, p18 + 7, p18 + 8, p18 + 9, p18 + 10, p18 + 11, p18 + 12, p18 + 13, p18 + 14, p18 + 15, p18 + 16, p18 + 17, p18 + 18, p18 + 19, p18 + 20, p18 + 21, p18 + 22, p18 + 23, p18 + 24, p18 + 25, p18 + 26, p18 + 27, p18 + 28, p18 + 29, p18 + 30, p18 + 31, p18 + 32, p18 + 33, p18 + 34, p18 + 35, p18 + 36, p18 + 37, p18 + 38, p18 + 39, 12};
Line(19) = {14, 13};
Line(20) = {13, 15};
Line(21) = {16, 15};
Line(22) = {14, 16};
Line(23) = {14, 17};
Line(24) = {17, 18};
Line(25) = {13, 18};
Line(26) = {15, 19};
Line(27) = {18, 19};
Line(28) = {16, 20};
Line(29) = {20, 19};
Line(30) = {17, 20};
Curve Loop(7) = {-13, -14, 15, 14};
Surface(7) = {7};
Curve Loop(8) = {13};
Plane Surface(8) = {8};
Curve Loop(9) = {15};
Plane Surface(9) = {9};
Curve Loop(10) = {-16, -17, 18, 17};
Surface(10) = {10};
Curve Loop(11) = {16};
Plane Surface(11) = {11};
Curve Loop(12) = {18};
Plane Surface(12) = {12};
Curve Loop(13) = {-19, 22, 21, -20};
Plane Surface(13) = {13};
Curve Loop(14) = {-23, 19, 25, -24};
Plane Surface(14) = {14};
Curve Loop(15) = {-20, 25, 27, -26, -13, -16};
Plane Surface(15) = {15};
Curve Loop(16) = {-28, 21, 26, -29};
Plane Surface(16) = {16};
Curve Loop(17) = {-22, 23, 30, -28, -15, -18};
Plane Surface(17) = {17};
Curve Loop(18) = {-24, 30, 29, -27};
Plane Surface(18) = {18};
Surface Loop(1) = {13, 14, 15, 16, 17, 18, 7, 10};
Volume(1) = {1};
Surface Loop(2) = {7, 8, 9};
Volume(2) = {2};
Surface Loop(3) = {10, 11, 12};
Volume(3) = {3};
Physical Surface("WALLS") = {13, 18};
Physical Surface("LOAD") = {8, 11};
Physical Surface("BORDER") = {7, 9, 10, 12, 14, 15, 16, 17};
Physical Volume("SOLID") = {1, 2, 3};
