cl__1 = 0.070089;
cl__2 = 0.08452900000000001;
cl__3 = 4.402877;
cl__4 = 5.005557;
cl__5 = 0.358312;
cl__6 = 0.292079;
Point(9) = {36.818274, 1.230331, 0.1, cl__1};
Point(10) = {36.818274, 1.230331, 0, cl__1};
Point(11) = {24.942579, -1.943357, 0.1, cl__2};
Point(12) = {24.942579, -1.943357, 0, cl__2};
Point(13) = {0.298913, -3.938349, 0.1, cl__3};
Point(14) = {0.298913, -3.938349, 0, cl__3};
Point(15) = {0.298913, 5.341336999999999, 0.1, cl__4};
Point(16) = {0.298913, 5.341336999999999, 0, cl__4};
Point(17) = {38.607075, -3.938349, 0, cl__5};
Point(18) = {38.607075, -3.938349, 0.1, cl__5};
Point(19) = {38.607075, 5.341336999999999, 0.1, cl__6};
Point(20) = {38.607075, 5.341336999999999, 0, cl__6};
p13 = newp;
Point(p13 + 1) = {36.80964489335138, 1.339974195767582, 0.1};
Point(p13 + 2) = {36.78397005064959, 1.446917612170463, 0.1};
Point(p13 + 3) = {36.74188167173186, 1.548527947371951, 0.1};
Point(p13 + 4) = {36.68441611217046, 1.642303217694019, 0.1};
Point(p13 + 5) = {36.61298836475905, 1.725934364759058, 0.1};
Point(p13 + 6) = {36.52935721769402, 1.797362112170462, 0.1};
Point(p13 + 7) = {36.43558194737195, 1.854827671731861, 0.1};
Point(p13 + 8) = {36.33397161217046, 1.896916050649594, 0.1};
Point(p13 + 9) = {36.22702819576758, 1.922590893351386, 0.1};
Point(p13 + 10) = {36.117385, 1.93122, 0.1};
Point(p13 + 11) = {36.00774180423242, 1.922590893351385, 0.1};
Point(p13 + 12) = {35.90079838782954, 1.896916050649594, 0.1};
Point(p13 + 13) = {35.79918805262805, 1.854827671731861, 0.1};
Point(p13 + 14) = {35.70541278230598, 1.797362112170463, 0.1};
Point(p13 + 15) = {35.62178163524094, 1.725934364759058, 0.1};
Point(p13 + 16) = {35.55035388782954, 1.642303217694019, 0.1};
Point(p13 + 17) = {35.49288832826814, 1.548527947371951, 0.1};
Point(p13 + 18) = {35.4507999493504, 1.446917612170463, 0.1};
Point(p13 + 19) = {35.42512510664861, 1.339974195767583, 0.1};
Point(p13 + 20) = {35.416496, 1.230331, 0.1};
Point(p13 + 21) = {35.42512510664861, 1.120687804232418, 0.1};
Point(p13 + 22) = {35.4507999493504, 1.013744387829537, 0.1};
Point(p13 + 23) = {35.49288832826814, 0.9121340526280493, 0.1};
Point(p13 + 24) = {35.55035388782954, 0.818358782305981, 0.1};
Point(p13 + 25) = {35.62178163524094, 0.734727635240942, 0.1};
Point(p13 + 26) = {35.70541278230598, 0.6632998878295376, 0.1};
Point(p13 + 27) = {35.79918805262805, 0.6058343282681392, 0.1};
Point(p13 + 28) = {35.90079838782954, 0.5637459493504062, 0.1};
Point(p13 + 29) = {36.00774180423242, 0.5380711066486147, 0.1};
Point(p13 + 30) = {36.117385, 0.5294420000000001, 0.1};
Point(p13 + 31) = {36.22702819576758, 0.5380711066486146, 0.1};
Point(p13 + 32) = {36.33397161217046, 0.5637459493504061, 0.1};
Point(p13 + 33) = {36.43558194737195, 0.605834328268139, 0.1};
Point(p13 + 34) = {36.52935721769402, 0.6632998878295374, 0.1};
Point(p13 + 35) = {36.61298836475905, 0.7347276352409419, 0.1};
Point(p13 + 36) = {36.68441611217046, 0.8183587823059808, 0.1};
Point(p13 + 37) = {36.74188167173186, 0.9121340526280488, 0.1};
Point(p13 + 38) = {36.78397005064959, 1.013744387829537, 0.1};
Point(p13 + 39) = {36.80964489335138, 1.120687804232418, 0.1};
Spline(13) = {9, p13 + 1, p13 + 2, p13 + 3, p13 + 4, p13 + 5, p13 + 6, p13 + 7, p13 + 8, p13 + 9, p13 + 10, p13 + 11, p13 + 12, p13 + 13, p13 + 14, p13 + 15, p13 + 16, p13 + 17, p13 + 18, p13 + 19, p13 + 20, p13 + 21, p13 + 22, p13 + 23, p13 + 24, p13 + 25, p13 + 26, p13 + 27, p13 + 28, p13 + 29, p13 + 30, p13 + 31, p13 + 32, p13 + 33, p13 + 34, p13 + 35, p13 + 36, p13 + 37, p13 + 38, p13 + 39, 9};
Line(14) = {10, 9};
p15 = newp;
Point(p15 + 1) = {36.80964489335138, 1.339974195767582, 0};
Point(p15 + 2) = {36.78397005064959, 1.446917612170463, 0};
Point(p15 + 3) = {36.74188167173186, 1.548527947371951, 0};
Point(p15 + 4) = {36.68441611217046, 1.642303217694019, 0};
Point(p15 + 5) = {36.61298836475905, 1.725934364759058, 0};
Point(p15 + 6) = {36.52935721769402, 1.797362112170462, 0};
Point(p15 + 7) = {36.43558194737195, 1.854827671731861, 0};
Point(p15 + 8) = {36.33397161217046, 1.896916050649594, 0};
Point(p15 + 9) = {36.22702819576758, 1.922590893351386, 0};
Point(p15 + 10) = {36.117385, 1.93122, 0};
Point(p15 + 11) = {36.00774180423242, 1.922590893351385, 0};
Point(p15 + 12) = {35.90079838782954, 1.896916050649594, 0};
Point(p15 + 13) = {35.79918805262805, 1.854827671731861, 0};
Point(p15 + 14) = {35.70541278230598, 1.797362112170463, 0};
Point(p15 + 15) = {35.62178163524094, 1.725934364759058, 0};
Point(p15 + 16) = {35.55035388782954, 1.642303217694019, 0};
Point(p15 + 17) = {35.49288832826814, 1.548527947371951, 0};
Point(p15 + 18) = {35.4507999493504, 1.446917612170463, 0};
Point(p15 + 19) = {35.42512510664861, 1.339974195767583, 0};
Point(p15 + 20) = {35.416496, 1.230331, 0};
Point(p15 + 21) = {35.42512510664861, 1.120687804232418, 0};
Point(p15 + 22) = {35.4507999493504, 1.013744387829537, 0};
Point(p15 + 23) = {35.49288832826814, 0.9121340526280493, 0};
Point(p15 + 24) = {35.55035388782954, 0.818358782305981, 0};
Point(p15 + 25) = {35.62178163524094, 0.734727635240942, 0};
Point(p15 + 26) = {35.70541278230598, 0.6632998878295376, 0};
Point(p15 + 27) = {35.79918805262805, 0.6058343282681392, 0};
Point(p15 + 28) = {35.90079838782954, 0.5637459493504062, 0};
Point(p15 + 29) = {36.00774180423242, 0.5380711066486147, 0};
Point(p15 + 30) = {36.117385, 0.5294420000000001, 0};
Point(p15 + 31) = {36.22702819576758, 0.5380711066486146, 0};
Point(p15 + 32) = {36.33397161217046, 0.5637459493504061, 0};
Point(p15 + 33) = {36.43558194737195, 0.605834328268139, 0};
Point(p15 + 34) = {36.52935721769402, 0.6632998878295374, 0};
Point(p15 + 35) = {36.61298836475905, 0.7347276352409419, 0};
Point(p15 + 36) = {36.68441611217046, 0.8183587823059808, 0};
Point(p15 + 37) = {36.74188167173186, 0.9121340526280488, 0};
Point(p15 + 38) = {36.78397005064959, 1.013744387829537, 0};
Point(p15 + 39) = {36.80964489335138, 1.120687804232418, 0};
Spline(15) = {10, p15 + 1, p15 + 2, p15 + 3, p15 + 4, p15 + 5, p15 + 6, p15 + 7, p15 + 8, p15 + 9, p15 + 10, p15 + 11, p15 + 12, p15 + 13, p15 + 14, p15 + 15, p15 + 16, p15 + 17, p15 + 18, p15 + 19, p15 + 20, p15 + 21, p15 + 22, p15 + 23, p15 + 24, p15 + 25, p15 + 26, p15 + 27, p15 + 28, p15 + 29, p15 + 30, p15 + 31, p15 + 32, p15 + 33, p15 + 34, p15 + 35, p15 + 36, p15 + 37, p15 + 38, p15 + 39, 10};
p16 = newp;
Point(p16 + 1) = {24.93217202817502, -1.811123885308283, 0.1};
Point(p16 + 2) = {24.9012073668852, -1.682146788756823, 0.1};
Point(p16 + 3) = {24.85044746885728, -1.55960155451316, 0.1};
Point(p16 + 4) = {24.78114221124317, -1.446505652948686, 0.1};
Point(p16 + 5) = {24.6949981194963, -1.345643880503699, 0.1};
Point(p16 + 6) = {24.59413634705131, -1.259499788756823, 0.1};
Point(p16 + 7) = {24.48104044548684, -1.190194531142718, 0.1};
Point(p16 + 8) = {24.35849521124318, -1.139434633114805, 0.1};
Point(p16 + 9) = {24.22951811469172, -1.108469971824974, 0.1};
Point(p16 + 10) = {24.097285, -1.098063, 0.1};
Point(p16 + 11) = {23.96505188530828, -1.108469971824974, 0.1};
Point(p16 + 12) = {23.83607478875682, -1.139434633114804, 0.1};
Point(p16 + 13) = {23.71352955451316, -1.190194531142718, 0.1};
Point(p16 + 14) = {23.60043365294868, -1.259499788756823, 0.1};
Point(p16 + 15) = {23.4995718805037, -1.345643880503698, 0.1};
Point(p16 + 16) = {23.41342778875682, -1.446505652948686, 0.1};
Point(p16 + 17) = {23.34412253114272, -1.559601554513159, 0.1};
Point(p16 + 18) = {23.2933626331148, -1.682146788756823, 0.1};
Point(p16 + 19) = {23.26239797182497, -1.811123885308283, 0.1};
Point(p16 + 20) = {23.251991, -1.943357, 0.1};
Point(p16 + 21) = {23.26239797182497, -2.075590114691717, 0.1};
Point(p16 + 22) = {23.2933626331148, -2.204567211243177, 0.1};
Point(p16 + 23) = {23.34412253114272, -2.32711244548684, 0.1};
Point(p16 + 24) = {23.41342778875682, -2.440208347051314, 0.1};
Point(p16 + 25) = {23.4995718805037, -2.541070119496301, 0.1};
Point(p16 + 26) = {23.60043365294868, -2.627214211243177, 0.1};
Point(p16 + 27) = {23.71352955451316, -2.696519468857282, 0.1};
Point(p16 + 28) = {23.83607478875682, -2.747279366885195, 0.1};
Point(p16 + 29) = {23.96505188530828, -2.778244028175026, 0.1};
Point(p16 + 30) = {24.097285, -2.788651, 0.1};
Point(p16 + 31) = {24.22951811469171, -2.778244028175026, 0.1};
Point(p16 + 32) = {24.35849521124318, -2.747279366885196, 0.1};
Point(p16 + 33) = {24.48104044548684, -2.696519468857282, 0.1};
Point(p16 + 34) = {24.59413634705131, -2.627214211243177, 0.1};
Point(p16 + 35) = {24.6949981194963, -2.541070119496302, 0.1};
Point(p16 + 36) = {24.78114221124317, -2.440208347051314, 0.1};
Point(p16 + 37) = {24.85044746885728, -2.327112445486841, 0.1};
Point(p16 + 38) = {24.9012073668852, -2.204567211243177, 0.1};
Point(p16 + 39) = {24.93217202817502, -2.075590114691717, 0.1};
Spline(16) = {11, p16 + 1, p16 + 2, p16 + 3, p16 + 4, p16 + 5, p16 + 6, p16 + 7, p16 + 8, p16 + 9, p16 + 10, p16 + 11, p16 + 12, p16 + 13, p16 + 14, p16 + 15, p16 + 16, p16 + 17, p16 + 18, p16 + 19, p16 + 20, p16 + 21, p16 + 22, p16 + 23, p16 + 24, p16 + 25, p16 + 26, p16 + 27, p16 + 28, p16 + 29, p16 + 30, p16 + 31, p16 + 32, p16 + 33, p16 + 34, p16 + 35, p16 + 36, p16 + 37, p16 + 38, p16 + 39, 11};
Line(17) = {12, 11};
p18 = newp;
Point(p18 + 1) = {24.93217202817502, -1.811123885308283, 0};
Point(p18 + 2) = {24.9012073668852, -1.682146788756823, 0};
Point(p18 + 3) = {24.85044746885728, -1.55960155451316, 0};
Point(p18 + 4) = {24.78114221124317, -1.446505652948686, 0};
Point(p18 + 5) = {24.6949981194963, -1.345643880503699, 0};
Point(p18 + 6) = {24.59413634705131, -1.259499788756823, 0};
Point(p18 + 7) = {24.48104044548684, -1.190194531142718, 0};
Point(p18 + 8) = {24.35849521124318, -1.139434633114805, 0};
Point(p18 + 9) = {24.22951811469172, -1.108469971824974, 0};
Point(p18 + 10) = {24.097285, -1.098063, 0};
Point(p18 + 11) = {23.96505188530828, -1.108469971824974, 0};
Point(p18 + 12) = {23.83607478875682, -1.139434633114804, 0};
Point(p18 + 13) = {23.71352955451316, -1.190194531142718, 0};
Point(p18 + 14) = {23.60043365294868, -1.259499788756823, 0};
Point(p18 + 15) = {23.4995718805037, -1.345643880503698, 0};
Point(p18 + 16) = {23.41342778875682, -1.446505652948686, 0};
Point(p18 + 17) = {23.34412253114272, -1.559601554513159, 0};
Point(p18 + 18) = {23.2933626331148, -1.682146788756823, 0};
Point(p18 + 19) = {23.26239797182497, -1.811123885308283, 0};
Point(p18 + 20) = {23.251991, -1.943357, 0};
Point(p18 + 21) = {23.26239797182497, -2.075590114691717, 0};
Point(p18 + 22) = {23.2933626331148, -2.204567211243177, 0};
Point(p18 + 23) = {23.34412253114272, -2.32711244548684, 0};
Point(p18 + 24) = {23.41342778875682, -2.440208347051314, 0};
Point(p18 + 25) = {23.4995718805037, -2.541070119496301, 0};
Point(p18 + 26) = {23.60043365294868, -2.627214211243177, 0};
Point(p18 + 27) = {23.71352955451316, -2.696519468857282, 0};
Point(p18 + 28) = {23.83607478875682, -2.747279366885195, 0};
Point(p18 + 29) = {23.96505188530828, -2.778244028175026, 0};
Point(p18 + 30) = {24.097285, -2.788651, 0};
Point(p18 + 31) = {24.22951811469171, -2.778244028175026, 0};
Point(p18 + 32) = {24.35849521124318, -2.747279366885196, 0};
Point(p18 + 33) = {24.48104044548684, -2.696519468857282, 0};
Point(p18 + 34) = {24.59413634705131, -2.627214211243177, 0};
Point(p18 + 35) = {24.6949981194963, -2.541070119496302, 0};
Point(p18 + 36) = {24.78114221124317, -2.440208347051314, 0};
Point(p18 + 37) = {24.85044746885728, -2.327112445486841, 0};
Point(p18 + 38) = {24.9012073668852, -2.204567211243177, 0};
Point(p18 + 39) = {24.93217202817502, -2.075590114691717, 0};
Spline(18) = {12, p18 + 1, p18 + 2, p18 + 3, p18 + 4, p18 + 5, p18 + 6, p18 + 7, p18 + 8, p18 + 9, p18 + 10, p18 + 11, p18 + 12, p18 + 13, p18 + 14, p18 + 15, p18 + 16, p18 + 17, p18 + 18, p18 + 19, p18 + 20, p18 + 21, p18 + 22, p18 + 23, p18 + 24, p18 + 25, p18 + 26, p18 + 27, p18 + 28, p18 + 29, p18 + 30, p18 + 31, p18 + 32, p18 + 33, p18 + 34, p18 + 35, p18 + 36, p18 + 37, p18 + 38, p18 + 39, 12};
Line(19) = {14, 13};
Line(20) = {13, 15};
Line(21) = {16, 15};
Line(22) = {14, 16};
Line(23) = {14, 17};
Line(24) = {17, 18};
Line(25) = {13, 18};
Line(26) = {15, 19};
Line(27) = {18, 19};
Line(28) = {16, 20};
Line(29) = {20, 19};
Line(30) = {17, 20};
Curve Loop(7) = {-13, -14, 15, 14};
Surface(7) = {7};
Curve Loop(8) = {13};
Plane Surface(8) = {8};
Curve Loop(9) = {15};
Plane Surface(9) = {9};
Curve Loop(10) = {-16, -17, 18, 17};
Surface(10) = {10};
Curve Loop(11) = {16};
Plane Surface(11) = {11};
Curve Loop(12) = {18};
Plane Surface(12) = {12};
Curve Loop(13) = {-19, 22, 21, -20};
Plane Surface(13) = {13};
Curve Loop(14) = {-23, 19, 25, -24};
Plane Surface(14) = {14};
Curve Loop(15) = {-20, 25, 27, -26, -16, -13};
Plane Surface(15) = {15};
Curve Loop(16) = {-28, 21, 26, -29};
Plane Surface(16) = {16};
Curve Loop(17) = {-22, 23, 30, -28, -18, -15};
Plane Surface(17) = {17};
Curve Loop(18) = {-24, 30, 29, -27};
Plane Surface(18) = {18};
Surface Loop(1) = {13, 14, 15, 16, 17, 18, 10, 7};
Volume(1) = {1};
Surface Loop(2) = {7, 8, 9};
Volume(2) = {2};
Surface Loop(3) = {10, 11, 12};
Volume(3) = {3};
Physical Surface("WALLS") = {13, 18};
Physical Surface("LOAD") = {8, 11};
Physical Surface("BORDER") = {7, 9, 10, 12, 14, 15, 16, 17};
Physical Volume("SOLID") = {1, 2, 3};
