cl__1 = 0.064387;
cl__2 = 0.060329;
cl__3 = 1.22967;
cl__4 = 2.141723;
cl__5 = 0.952962;
cl__6 = 0.686688;
Point(9) = {6.469412, -0.06831900000000016, 0.1, cl__1};
Point(10) = {6.469412, -0.06831900000000016, 0, cl__1};
Point(11) = {30.39692, 1.852752, 0.1, cl__2};
Point(12) = {30.39692, 1.852752, 0, cl__2};
Point(13) = {0.060059, -3.345113, 0.1, cl__3};
Point(14) = {0.060059, -3.345113, 0, cl__3};
Point(15) = {0.060059, 5.256324000000001, 0.1, cl__4};
Point(16) = {0.060059, 5.256324000000001, 0, cl__4};
Point(17) = {32.646649, -3.345113, 0, cl__5};
Point(18) = {32.646649, -3.345113, 0.1, cl__5};
Point(19) = {32.646649, 5.256324000000001, 0.1, cl__6};
Point(20) = {32.646649, 5.256324000000001, 0, cl__6};
p13 = newp;
Point(p13 + 1) = {6.461484854924013, 0.03240492830884857, 0.1};
Point(p13 + 2) = {6.437898612316509, 0.1306486992191805, 0.1};
Point(p13 + 3) = {6.399234043748737, 0.2239932250388012, 0.1};
Point(p13 + 4) = {6.346443199219181, 0.3101400537493115, 0.1};
Point(p13 + 5) = {6.280825964522926, 0.3869679645229259, 0.1};
Point(p13 + 6) = {6.203998053749312, 0.4525851992191805, 0.1};
Point(p13 + 7) = {6.117851225038801, 0.5053760437487369, 0.1};
Point(p13 + 8) = {6.024506699219181, 0.5440406123165094, 0.1};
Point(p13 + 9) = {5.926262928308849, 0.5676268549240131, 0.1};
Point(p13 + 10) = {5.825539, 0.575554, 0.1};
Point(p13 + 11) = {5.724815071691151, 0.5676268549240131, 0.1};
Point(p13 + 12) = {5.626571300780819, 0.5440406123165095, 0.1};
Point(p13 + 13) = {5.533226774961199, 0.505376043748737, 0.1};
Point(p13 + 14) = {5.447079946250689, 0.4525851992191805, 0.1};
Point(p13 + 15) = {5.370252035477074, 0.3869679645229259, 0.1};
Point(p13 + 16) = {5.30463480078082, 0.3101400537493116, 0.1};
Point(p13 + 17) = {5.251843956251263, 0.2239932250388013, 0.1};
Point(p13 + 18) = {5.213179387683491, 0.1306486992191806, 0.1};
Point(p13 + 19) = {5.189593145075987, 0.03240492830884864, 0.1};
Point(p13 + 20) = {5.181666, -0.06831899999999992, 0.1};
Point(p13 + 21) = {5.189593145075987, -0.1690429283088485, 0.1};
Point(p13 + 22) = {5.213179387683491, -0.2672866992191807, 0.1};
Point(p13 + 23) = {5.251843956251263, -0.3606312250388009, 0.1};
Point(p13 + 24) = {5.30463480078082, -0.4467780537493115, 0.1};
Point(p13 + 25) = {5.370252035477074, -0.5236059645229258, 0.1};
Point(p13 + 26) = {5.447079946250688, -0.5892231992191805, 0.1};
Point(p13 + 27) = {5.533226774961198, -0.6420140437487369, 0.1};
Point(p13 + 28) = {5.626571300780819, -0.6806786123165094, 0.1};
Point(p13 + 29) = {5.724815071691151, -0.7042648549240131, 0.1};
Point(p13 + 30) = {5.825539, -0.712192, 0.1};
Point(p13 + 31) = {5.926262928308849, -0.7042648549240131, 0.1};
Point(p13 + 32) = {6.02450669921918, -0.6806786123165095, 0.1};
Point(p13 + 33) = {6.117851225038801, -0.6420140437487372, 0.1};
Point(p13 + 34) = {6.203998053749311, -0.5892231992191806, 0.1};
Point(p13 + 35) = {6.280825964522926, -0.5236059645229261, 0.1};
Point(p13 + 36) = {6.346443199219181, -0.4467780537493117, 0.1};
Point(p13 + 37) = {6.399234043748737, -0.3606312250388014, 0.1};
Point(p13 + 38) = {6.437898612316509, -0.2672866992191806, 0.1};
Point(p13 + 39) = {6.461484854924013, -0.1690429283088488, 0.1};
Spline(13) = {9, p13 + 1, p13 + 2, p13 + 3, p13 + 4, p13 + 5, p13 + 6, p13 + 7, p13 + 8, p13 + 9, p13 + 10, p13 + 11, p13 + 12, p13 + 13, p13 + 14, p13 + 15, p13 + 16, p13 + 17, p13 + 18, p13 + 19, p13 + 20, p13 + 21, p13 + 22, p13 + 23, p13 + 24, p13 + 25, p13 + 26, p13 + 27, p13 + 28, p13 + 29, p13 + 30, p13 + 31, p13 + 32, p13 + 33, p13 + 34, p13 + 35, p13 + 36, p13 + 37, p13 + 38, p13 + 39, 9};
Line(14) = {10, 9};
p15 = newp;
Point(p15 + 1) = {6.461484854924013, 0.03240492830884857, 0};
Point(p15 + 2) = {6.437898612316509, 0.1306486992191805, 0};
Point(p15 + 3) = {6.399234043748737, 0.2239932250388012, 0};
Point(p15 + 4) = {6.346443199219181, 0.3101400537493115, 0};
Point(p15 + 5) = {6.280825964522926, 0.3869679645229259, 0};
Point(p15 + 6) = {6.203998053749312, 0.4525851992191805, 0};
Point(p15 + 7) = {6.117851225038801, 0.5053760437487369, 0};
Point(p15 + 8) = {6.024506699219181, 0.5440406123165094, 0};
Point(p15 + 9) = {5.926262928308849, 0.5676268549240131, 0};
Point(p15 + 10) = {5.825539, 0.575554, 0};
Point(p15 + 11) = {5.724815071691151, 0.5676268549240131, 0};
Point(p15 + 12) = {5.626571300780819, 0.5440406123165095, 0};
Point(p15 + 13) = {5.533226774961199, 0.505376043748737, 0};
Point(p15 + 14) = {5.447079946250689, 0.4525851992191805, 0};
Point(p15 + 15) = {5.370252035477074, 0.3869679645229259, 0};
Point(p15 + 16) = {5.30463480078082, 0.3101400537493116, 0};
Point(p15 + 17) = {5.251843956251263, 0.2239932250388013, 0};
Point(p15 + 18) = {5.213179387683491, 0.1306486992191806, 0};
Point(p15 + 19) = {5.189593145075987, 0.03240492830884864, 0};
Point(p15 + 20) = {5.181666, -0.06831899999999992, 0};
Point(p15 + 21) = {5.189593145075987, -0.1690429283088485, 0};
Point(p15 + 22) = {5.213179387683491, -0.2672866992191807, 0};
Point(p15 + 23) = {5.251843956251263, -0.3606312250388009, 0};
Point(p15 + 24) = {5.30463480078082, -0.4467780537493115, 0};
Point(p15 + 25) = {5.370252035477074, -0.5236059645229258, 0};
Point(p15 + 26) = {5.447079946250688, -0.5892231992191805, 0};
Point(p15 + 27) = {5.533226774961198, -0.6420140437487369, 0};
Point(p15 + 28) = {5.626571300780819, -0.6806786123165094, 0};
Point(p15 + 29) = {5.724815071691151, -0.7042648549240131, 0};
Point(p15 + 30) = {5.825539, -0.712192, 0};
Point(p15 + 31) = {5.926262928308849, -0.7042648549240131, 0};
Point(p15 + 32) = {6.02450669921918, -0.6806786123165095, 0};
Point(p15 + 33) = {6.117851225038801, -0.6420140437487372, 0};
Point(p15 + 34) = {6.203998053749311, -0.5892231992191806, 0};
Point(p15 + 35) = {6.280825964522926, -0.5236059645229261, 0};
Point(p15 + 36) = {6.346443199219181, -0.4467780537493117, 0};
Point(p15 + 37) = {6.399234043748737, -0.3606312250388014, 0};
Point(p15 + 38) = {6.437898612316509, -0.2672866992191806, 0};
Point(p15 + 39) = {6.461484854924013, -0.1690429283088488, 0};
Spline(15) = {10, p15 + 1, p15 + 2, p15 + 3, p15 + 4, p15 + 5, p15 + 6, p15 + 7, p15 + 8, p15 + 9, p15 + 10, p15 + 11, p15 + 12, p15 + 13, p15 + 14, p15 + 15, p15 + 16, p15 + 17, p15 + 18, p15 + 19, p15 + 20, p15 + 21, p15 + 22, p15 + 23, p15 + 24, p15 + 25, p15 + 26, p15 + 27, p15 + 28, p15 + 29, p15 + 30, p15 + 31, p15 + 32, p15 + 33, p15 + 34, p15 + 35, p15 + 36, p15 + 37, p15 + 38, p15 + 39, 10};
p16 = newp;
Point(p16 + 1) = {30.38949253593262, 1.947126879110726, 0.1};
Point(p16 + 2) = {30.36739303254615, 2.039177935485479, 0.1};
Point(p16 + 3) = {30.33116565295803, 2.126638566616372, 0.1};
Point(p16 + 4) = {30.28170243548548, 2.207355201499769, 0.1};
Point(p16 + 5) = {30.22022132870169, 2.279340328701688, 0.1};
Point(p16 + 6) = {30.14823620149977, 2.340821435485479, 0.1};
Point(p16 + 7) = {30.06751956661637, 2.390284652958028, 0.1};
Point(p16 + 8) = {29.98005893548548, 2.426512032546154, 0.1};
Point(p16 + 9) = {29.88800787911073, 2.448611535932619, 0.1};
Point(p16 + 10) = {29.793633, 2.456039, 0.1};
Point(p16 + 11) = {29.69925812088927, 2.448611535932619, 0.1};
Point(p16 + 12) = {29.60720706451452, 2.426512032546154, 0.1};
Point(p16 + 13) = {29.51974643338363, 2.390284652958028, 0.1};
Point(p16 + 14) = {29.43902979850023, 2.340821435485479, 0.1};
Point(p16 + 15) = {29.36704467129831, 2.279340328701688, 0.1};
Point(p16 + 16) = {29.30556356451452, 2.207355201499769, 0.1};
Point(p16 + 17) = {29.25610034704197, 2.126638566616372, 0.1};
Point(p16 + 18) = {29.21987296745385, 2.039177935485479, 0.1};
Point(p16 + 19) = {29.19777346406738, 1.947126879110726, 0.1};
Point(p16 + 20) = {29.190346, 1.852752, 0.1};
Point(p16 + 21) = {29.19777346406738, 1.758377120889274, 0.1};
Point(p16 + 22) = {29.21987296745385, 1.666326064514521, 0.1};
Point(p16 + 23) = {29.25610034704197, 1.578865433383628, 0.1};
Point(p16 + 24) = {29.30556356451452, 1.498148798500231, 0.1};
Point(p16 + 25) = {29.36704467129831, 1.426163671298311, 0.1};
Point(p16 + 26) = {29.43902979850023, 1.364682564514521, 0.1};
Point(p16 + 27) = {29.51974643338363, 1.315219347041972, 0.1};
Point(p16 + 28) = {29.60720706451452, 1.278991967453846, 0.1};
Point(p16 + 29) = {29.69925812088927, 1.256892464067381, 0.1};
Point(p16 + 30) = {29.793633, 1.249465, 0.1};
Point(p16 + 31) = {29.88800787911072, 1.256892464067381, 0.1};
Point(p16 + 32) = {29.98005893548548, 1.278991967453845, 0.1};
Point(p16 + 33) = {30.06751956661637, 1.315219347041972, 0.1};
Point(p16 + 34) = {30.14823620149977, 1.364682564514521, 0.1};
Point(p16 + 35) = {30.22022132870169, 1.426163671298311, 0.1};
Point(p16 + 36) = {30.28170243548548, 1.498148798500231, 0.1};
Point(p16 + 37) = {30.33116565295803, 1.578865433383628, 0.1};
Point(p16 + 38) = {30.36739303254615, 1.666326064514521, 0.1};
Point(p16 + 39) = {30.38949253593262, 1.758377120889274, 0.1};
Spline(16) = {11, p16 + 1, p16 + 2, p16 + 3, p16 + 4, p16 + 5, p16 + 6, p16 + 7, p16 + 8, p16 + 9, p16 + 10, p16 + 11, p16 + 12, p16 + 13, p16 + 14, p16 + 15, p16 + 16, p16 + 17, p16 + 18, p16 + 19, p16 + 20, p16 + 21, p16 + 22, p16 + 23, p16 + 24, p16 + 25, p16 + 26, p16 + 27, p16 + 28, p16 + 29, p16 + 30, p16 + 31, p16 + 32, p16 + 33, p16 + 34, p16 + 35, p16 + 36, p16 + 37, p16 + 38, p16 + 39, 11};
Line(17) = {12, 11};
p18 = newp;
Point(p18 + 1) = {30.38949253593262, 1.947126879110726, 0};
Point(p18 + 2) = {30.36739303254615, 2.039177935485479, 0};
Point(p18 + 3) = {30.33116565295803, 2.126638566616372, 0};
Point(p18 + 4) = {30.28170243548548, 2.207355201499769, 0};
Point(p18 + 5) = {30.22022132870169, 2.279340328701688, 0};
Point(p18 + 6) = {30.14823620149977, 2.340821435485479, 0};
Point(p18 + 7) = {30.06751956661637, 2.390284652958028, 0};
Point(p18 + 8) = {29.98005893548548, 2.426512032546154, 0};
Point(p18 + 9) = {29.88800787911073, 2.448611535932619, 0};
Point(p18 + 10) = {29.793633, 2.456039, 0};
Point(p18 + 11) = {29.69925812088927, 2.448611535932619, 0};
Point(p18 + 12) = {29.60720706451452, 2.426512032546154, 0};
Point(p18 + 13) = {29.51974643338363, 2.390284652958028, 0};
Point(p18 + 14) = {29.43902979850023, 2.340821435485479, 0};
Point(p18 + 15) = {29.36704467129831, 2.279340328701688, 0};
Point(p18 + 16) = {29.30556356451452, 2.207355201499769, 0};
Point(p18 + 17) = {29.25610034704197, 2.126638566616372, 0};
Point(p18 + 18) = {29.21987296745385, 2.039177935485479, 0};
Point(p18 + 19) = {29.19777346406738, 1.947126879110726, 0};
Point(p18 + 20) = {29.190346, 1.852752, 0};
Point(p18 + 21) = {29.19777346406738, 1.758377120889274, 0};
Point(p18 + 22) = {29.21987296745385, 1.666326064514521, 0};
Point(p18 + 23) = {29.25610034704197, 1.578865433383628, 0};
Point(p18 + 24) = {29.30556356451452, 1.498148798500231, 0};
Point(p18 + 25) = {29.36704467129831, 1.426163671298311, 0};
Point(p18 + 26) = {29.43902979850023, 1.364682564514521, 0};
Point(p18 + 27) = {29.51974643338363, 1.315219347041972, 0};
Point(p18 + 28) = {29.60720706451452, 1.278991967453846, 0};
Point(p18 + 29) = {29.69925812088927, 1.256892464067381, 0};
Point(p18 + 30) = {29.793633, 1.249465, 0};
Point(p18 + 31) = {29.88800787911072, 1.256892464067381, 0};
Point(p18 + 32) = {29.98005893548548, 1.278991967453845, 0};
Point(p18 + 33) = {30.06751956661637, 1.315219347041972, 0};
Point(p18 + 34) = {30.14823620149977, 1.364682564514521, 0};
Point(p18 + 35) = {30.22022132870169, 1.426163671298311, 0};
Point(p18 + 36) = {30.28170243548548, 1.498148798500231, 0};
Point(p18 + 37) = {30.33116565295803, 1.578865433383628, 0};
Point(p18 + 38) = {30.36739303254615, 1.666326064514521, 0};
Point(p18 + 39) = {30.38949253593262, 1.758377120889274, 0};
Spline(18) = {12, p18 + 1, p18 + 2, p18 + 3, p18 + 4, p18 + 5, p18 + 6, p18 + 7, p18 + 8, p18 + 9, p18 + 10, p18 + 11, p18 + 12, p18 + 13, p18 + 14, p18 + 15, p18 + 16, p18 + 17, p18 + 18, p18 + 19, p18 + 20, p18 + 21, p18 + 22, p18 + 23, p18 + 24, p18 + 25, p18 + 26, p18 + 27, p18 + 28, p18 + 29, p18 + 30, p18 + 31, p18 + 32, p18 + 33, p18 + 34, p18 + 35, p18 + 36, p18 + 37, p18 + 38, p18 + 39, 12};
Line(19) = {14, 13};
Line(20) = {13, 15};
Line(21) = {16, 15};
Line(22) = {14, 16};
Line(23) = {14, 17};
Line(24) = {17, 18};
Line(25) = {13, 18};
Line(26) = {15, 19};
Line(27) = {18, 19};
Line(28) = {16, 20};
Line(29) = {20, 19};
Line(30) = {17, 20};
Curve Loop(7) = {-13, -14, 15, 14};
Surface(7) = {7};
Curve Loop(8) = {13};
Plane Surface(8) = {8};
Curve Loop(9) = {15};
Plane Surface(9) = {9};
Curve Loop(10) = {-16, -17, 18, 17};
Surface(10) = {10};
Curve Loop(11) = {16};
Plane Surface(11) = {11};
Curve Loop(12) = {18};
Plane Surface(12) = {12};
Curve Loop(13) = {-19, 22, 21, -20};
Plane Surface(13) = {13};
Curve Loop(14) = {-23, 19, 25, -24};
Plane Surface(14) = {14};
Curve Loop(15) = {-20, 25, 27, -26, -13, -16};
Plane Surface(15) = {15};
Curve Loop(16) = {-28, 21, 26, -29};
Plane Surface(16) = {16};
Curve Loop(17) = {-22, 23, 30, -28, -15, -18};
Plane Surface(17) = {17};
Curve Loop(18) = {-24, 30, 29, -27};
Plane Surface(18) = {18};
Surface Loop(1) = {13, 14, 15, 16, 17, 18, 7, 10};
Volume(1) = {1};
Surface Loop(2) = {7, 8, 9};
Volume(2) = {2};
Surface Loop(3) = {10, 11, 12};
Volume(3) = {3};
Physical Surface("WALLS") = {13, 18};
Physical Surface("LOAD") = {8, 11};
Physical Surface("BORDER") = {7, 9, 10, 12, 14, 15, 16, 17};
Physical Volume("SOLID") = {1, 2, 3};
