cl__1 = 0.055541;
cl__2 = 0.084602;
cl__3 = 0.746285;
cl__4 = 0.653245;
cl__5 = 2.533747;
cl__6 = 1.893652;
Point(9) = {14.321167, 4.072484, 0.1, cl__1};
Point(10) = {14.321167, 4.072484, 0, cl__1};
Point(11) = {11.112969, 2.075667, 0.1, cl__2};
Point(12) = {11.112969, 2.075667, 0, cl__2};
Point(13) = {0.780263, -4.318037, 0.1, cl__3};
Point(14) = {0.780263, -4.318037, 0, cl__3};
Point(15) = {0.780263, 5.597624999999999, 0.1, cl__4};
Point(16) = {0.780263, 5.597624999999999, 0, cl__4};
Point(17) = {31.819631, -4.318037, 0, cl__5};
Point(18) = {31.819631, -4.318037, 0.1, cl__5};
Point(19) = {31.819631, 5.597624999999999, 0.1, cl__6};
Point(20) = {31.819631, 5.597624999999999, 0, cl__6};
p13 = newp;
Point(p13 + 1) = {14.31432894431497, 4.15936973553139, 0.1};
Point(p13 + 2) = {14.29398315288504, 4.244116055896773, 0.1};
Point(p13 + 3) = {14.26063060661903, 4.324636225431841, 0.1};
Point(p13 + 4) = {14.21509255589677, 4.39894757033152, 0.1};
Point(p13 + 5) = {14.15849029865916, 4.465220298659164, 0.1};
Point(p13 + 6) = {14.09221757033152, 4.521822555896773, 0.1};
Point(p13 + 7) = {14.01790622543184, 4.567360606619034, 0.1};
Point(p13 + 8) = {13.93738605589677, 4.60071315288504, 0.1};
Point(p13 + 9) = {13.85263973553139, 4.621058944314967, 0.1};
Point(p13 + 10) = {13.765754, 4.627897, 0.1};
Point(p13 + 11) = {13.67886826446861, 4.621058944314967, 0.1};
Point(p13 + 12) = {13.59412194410323, 4.60071315288504, 0.1};
Point(p13 + 13) = {13.51360177456816, 4.567360606619034, 0.1};
Point(p13 + 14) = {13.43929042966848, 4.521822555896773, 0.1};
Point(p13 + 15) = {13.37301770134084, 4.465220298659164, 0.1};
Point(p13 + 16) = {13.31641544410323, 4.39894757033152, 0.1};
Point(p13 + 17) = {13.27087739338097, 4.324636225431841, 0.1};
Point(p13 + 18) = {13.23752484711496, 4.244116055896773, 0.1};
Point(p13 + 19) = {13.21717905568503, 4.15936973553139, 0.1};
Point(p13 + 20) = {13.210341, 4.072484, 0.1};
Point(p13 + 21) = {13.21717905568503, 3.985598264468611, 0.1};
Point(p13 + 22) = {13.23752484711496, 3.900851944103227, 0.1};
Point(p13 + 23) = {13.27087739338097, 3.82033177456816, 0.1};
Point(p13 + 24) = {13.31641544410323, 3.746020429668481, 0.1};
Point(p13 + 25) = {13.37301770134084, 3.679747701340836, 0.1};
Point(p13 + 26) = {13.43929042966848, 3.623145444103228, 0.1};
Point(p13 + 27) = {13.51360177456816, 3.577607393380966, 0.1};
Point(p13 + 28) = {13.59412194410323, 3.54425484711496, 0.1};
Point(p13 + 29) = {13.67886826446861, 3.523909055685033, 0.1};
Point(p13 + 30) = {13.765754, 3.517071, 0.1};
Point(p13 + 31) = {13.85263973553139, 3.523909055685033, 0.1};
Point(p13 + 32) = {13.93738605589677, 3.54425484711496, 0.1};
Point(p13 + 33) = {14.01790622543184, 3.577607393380966, 0.1};
Point(p13 + 34) = {14.09221757033152, 3.623145444103228, 0.1};
Point(p13 + 35) = {14.15849029865916, 3.679747701340836, 0.1};
Point(p13 + 36) = {14.21509255589677, 3.746020429668481, 0.1};
Point(p13 + 37) = {14.26063060661903, 3.820331774568159, 0.1};
Point(p13 + 38) = {14.29398315288504, 3.900851944103227, 0.1};
Point(p13 + 39) = {14.31432894431497, 3.98559826446861, 0.1};
Spline(13) = {9, p13 + 1, p13 + 2, p13 + 3, p13 + 4, p13 + 5, p13 + 6, p13 + 7, p13 + 8, p13 + 9, p13 + 10, p13 + 11, p13 + 12, p13 + 13, p13 + 14, p13 + 15, p13 + 16, p13 + 17, p13 + 18, p13 + 19, p13 + 20, p13 + 21, p13 + 22, p13 + 23, p13 + 24, p13 + 25, p13 + 26, p13 + 27, p13 + 28, p13 + 29, p13 + 30, p13 + 31, p13 + 32, p13 + 33, p13 + 34, p13 + 35, p13 + 36, p13 + 37, p13 + 38, p13 + 39, 9};
Line(14) = {10, 9};
p15 = newp;
Point(p15 + 1) = {14.31432894431497, 4.15936973553139, 0};
Point(p15 + 2) = {14.29398315288504, 4.244116055896773, 0};
Point(p15 + 3) = {14.26063060661903, 4.324636225431841, 0};
Point(p15 + 4) = {14.21509255589677, 4.39894757033152, 0};
Point(p15 + 5) = {14.15849029865916, 4.465220298659164, 0};
Point(p15 + 6) = {14.09221757033152, 4.521822555896773, 0};
Point(p15 + 7) = {14.01790622543184, 4.567360606619034, 0};
Point(p15 + 8) = {13.93738605589677, 4.60071315288504, 0};
Point(p15 + 9) = {13.85263973553139, 4.621058944314967, 0};
Point(p15 + 10) = {13.765754, 4.627897, 0};
Point(p15 + 11) = {13.67886826446861, 4.621058944314967, 0};
Point(p15 + 12) = {13.59412194410323, 4.60071315288504, 0};
Point(p15 + 13) = {13.51360177456816, 4.567360606619034, 0};
Point(p15 + 14) = {13.43929042966848, 4.521822555896773, 0};
Point(p15 + 15) = {13.37301770134084, 4.465220298659164, 0};
Point(p15 + 16) = {13.31641544410323, 4.39894757033152, 0};
Point(p15 + 17) = {13.27087739338097, 4.324636225431841, 0};
Point(p15 + 18) = {13.23752484711496, 4.244116055896773, 0};
Point(p15 + 19) = {13.21717905568503, 4.15936973553139, 0};
Point(p15 + 20) = {13.210341, 4.072484, 0};
Point(p15 + 21) = {13.21717905568503, 3.985598264468611, 0};
Point(p15 + 22) = {13.23752484711496, 3.900851944103227, 0};
Point(p15 + 23) = {13.27087739338097, 3.82033177456816, 0};
Point(p15 + 24) = {13.31641544410323, 3.746020429668481, 0};
Point(p15 + 25) = {13.37301770134084, 3.679747701340836, 0};
Point(p15 + 26) = {13.43929042966848, 3.623145444103228, 0};
Point(p15 + 27) = {13.51360177456816, 3.577607393380966, 0};
Point(p15 + 28) = {13.59412194410323, 3.54425484711496, 0};
Point(p15 + 29) = {13.67886826446861, 3.523909055685033, 0};
Point(p15 + 30) = {13.765754, 3.517071, 0};
Point(p15 + 31) = {13.85263973553139, 3.523909055685033, 0};
Point(p15 + 32) = {13.93738605589677, 3.54425484711496, 0};
Point(p15 + 33) = {14.01790622543184, 3.577607393380966, 0};
Point(p15 + 34) = {14.09221757033152, 3.623145444103228, 0};
Point(p15 + 35) = {14.15849029865916, 3.679747701340836, 0};
Point(p15 + 36) = {14.21509255589677, 3.746020429668481, 0};
Point(p15 + 37) = {14.26063060661903, 3.820331774568159, 0};
Point(p15 + 38) = {14.29398315288504, 3.900851944103227, 0};
Point(p15 + 39) = {14.31432894431497, 3.98559826446861, 0};
Spline(15) = {10, p15 + 1, p15 + 2, p15 + 3, p15 + 4, p15 + 5, p15 + 6, p15 + 7, p15 + 8, p15 + 9, p15 + 10, p15 + 11, p15 + 12, p15 + 13, p15 + 14, p15 + 15, p15 + 16, p15 + 17, p15 + 18, p15 + 19, p15 + 20, p15 + 21, p15 + 22, p15 + 23, p15 + 24, p15 + 25, p15 + 26, p15 + 27, p15 + 28, p15 + 29, p15 + 30, p15 + 31, p15 + 32, p15 + 33, p15 + 34, p15 + 35, p15 + 36, p15 + 37, p15 + 38, p15 + 39, 10};
p16 = newp;
Point(p16 + 1) = {11.10255305297532, 2.208014155416731, 0.1};
Point(p16 + 2) = {11.07156168708558, 2.337102484632076, 0.1};
Point(p16 + 3) = {11.02075801261342, 2.459753404561151, 0.1};
Point(p16 + 4) = {10.95139298463208, 2.572946842500235, 0.1};
Point(p16 + 5) = {10.86517460033979, 2.673895600339787, 0.1};
Point(p16 + 6) = {10.76422584250024, 2.760113984632076, 0.1};
Point(p16 + 7) = {10.65103240456115, 2.829479012613416, 0.1};
Point(p16 + 8) = {10.52838148463208, 2.880282687085575, 0.1};
Point(p16 + 9) = {10.39929315541673, 2.91127405297532, 0.1};
Point(p16 + 10) = {10.266946, 2.92169, 0.1};
Point(p16 + 11) = {10.13459884458327, 2.91127405297532, 0.1};
Point(p16 + 12) = {10.00551051536793, 2.880282687085575, 0.1};
Point(p16 + 13) = {9.88285959543885, 2.829479012613416, 0.1};
Point(p16 + 14) = {9.769666157499765, 2.760113984632076, 0.1};
Point(p16 + 15) = {9.668717399660215, 2.673895600339787, 0.1};
Point(p16 + 16) = {9.582499015367924, 2.572946842500235, 0.1};
Point(p16 + 17) = {9.513133987386585, 2.459753404561151, 0.1};
Point(p16 + 18) = {9.462330312914427, 2.337102484632076, 0.1};
Point(p16 + 19) = {9.431338947024681, 2.208014155416731, 0.1};
Point(p16 + 20) = {9.420923, 2.075667, 0.1};
Point(p16 + 21) = {9.431338947024681, 1.943319844583269, 0.1};
Point(p16 + 22) = {9.462330312914427, 1.814231515367924, 0.1};
Point(p16 + 23) = {9.513133987386585, 1.69158059543885, 0.1};
Point(p16 + 24) = {9.582499015367924, 1.578387157499765, 0.1};
Point(p16 + 25) = {9.668717399660213, 1.477438399660214, 0.1};
Point(p16 + 26) = {9.769666157499765, 1.391220015367924, 0.1};
Point(p16 + 27) = {9.88285959543885, 1.321854987386585, 0.1};
Point(p16 + 28) = {10.00551051536793, 1.271051312914425, 0.1};
Point(p16 + 29) = {10.13459884458327, 1.24005994702468, 0.1};
Point(p16 + 30) = {10.266946, 1.229644, 0.1};
Point(p16 + 31) = {10.39929315541673, 1.24005994702468, 0.1};
Point(p16 + 32) = {10.52838148463208, 1.271051312914425, 0.1};
Point(p16 + 33) = {10.65103240456115, 1.321854987386585, 0.1};
Point(p16 + 34) = {10.76422584250024, 1.391220015367924, 0.1};
Point(p16 + 35) = {10.86517460033979, 1.477438399660214, 0.1};
Point(p16 + 36) = {10.95139298463208, 1.578387157499765, 0.1};
Point(p16 + 37) = {11.02075801261342, 1.691580595438849, 0.1};
Point(p16 + 38) = {11.07156168708558, 1.814231515367924, 0.1};
Point(p16 + 39) = {11.10255305297532, 1.943319844583269, 0.1};
Spline(16) = {11, p16 + 1, p16 + 2, p16 + 3, p16 + 4, p16 + 5, p16 + 6, p16 + 7, p16 + 8, p16 + 9, p16 + 10, p16 + 11, p16 + 12, p16 + 13, p16 + 14, p16 + 15, p16 + 16, p16 + 17, p16 + 18, p16 + 19, p16 + 20, p16 + 21, p16 + 22, p16 + 23, p16 + 24, p16 + 25, p16 + 26, p16 + 27, p16 + 28, p16 + 29, p16 + 30, p16 + 31, p16 + 32, p16 + 33, p16 + 34, p16 + 35, p16 + 36, p16 + 37, p16 + 38, p16 + 39, 11};
Line(17) = {12, 11};
p18 = newp;
Point(p18 + 1) = {11.10255305297532, 2.208014155416731, 0};
Point(p18 + 2) = {11.07156168708558, 2.337102484632076, 0};
Point(p18 + 3) = {11.02075801261342, 2.459753404561151, 0};
Point(p18 + 4) = {10.95139298463208, 2.572946842500235, 0};
Point(p18 + 5) = {10.86517460033979, 2.673895600339787, 0};
Point(p18 + 6) = {10.76422584250024, 2.760113984632076, 0};
Point(p18 + 7) = {10.65103240456115, 2.829479012613416, 0};
Point(p18 + 8) = {10.52838148463208, 2.880282687085575, 0};
Point(p18 + 9) = {10.39929315541673, 2.91127405297532, 0};
Point(p18 + 10) = {10.266946, 2.92169, 0};
Point(p18 + 11) = {10.13459884458327, 2.91127405297532, 0};
Point(p18 + 12) = {10.00551051536793, 2.880282687085575, 0};
Point(p18 + 13) = {9.88285959543885, 2.829479012613416, 0};
Point(p18 + 14) = {9.769666157499765, 2.760113984632076, 0};
Point(p18 + 15) = {9.668717399660215, 2.673895600339787, 0};
Point(p18 + 16) = {9.582499015367924, 2.572946842500235, 0};
Point(p18 + 17) = {9.513133987386585, 2.459753404561151, 0};
Point(p18 + 18) = {9.462330312914427, 2.337102484632076, 0};
Point(p18 + 19) = {9.431338947024681, 2.208014155416731, 0};
Point(p18 + 20) = {9.420923, 2.075667, 0};
Point(p18 + 21) = {9.431338947024681, 1.943319844583269, 0};
Point(p18 + 22) = {9.462330312914427, 1.814231515367924, 0};
Point(p18 + 23) = {9.513133987386585, 1.69158059543885, 0};
Point(p18 + 24) = {9.582499015367924, 1.578387157499765, 0};
Point(p18 + 25) = {9.668717399660213, 1.477438399660214, 0};
Point(p18 + 26) = {9.769666157499765, 1.391220015367924, 0};
Point(p18 + 27) = {9.88285959543885, 1.321854987386585, 0};
Point(p18 + 28) = {10.00551051536793, 1.271051312914425, 0};
Point(p18 + 29) = {10.13459884458327, 1.24005994702468, 0};
Point(p18 + 30) = {10.266946, 1.229644, 0};
Point(p18 + 31) = {10.39929315541673, 1.24005994702468, 0};
Point(p18 + 32) = {10.52838148463208, 1.271051312914425, 0};
Point(p18 + 33) = {10.65103240456115, 1.321854987386585, 0};
Point(p18 + 34) = {10.76422584250024, 1.391220015367924, 0};
Point(p18 + 35) = {10.86517460033979, 1.477438399660214, 0};
Point(p18 + 36) = {10.95139298463208, 1.578387157499765, 0};
Point(p18 + 37) = {11.02075801261342, 1.691580595438849, 0};
Point(p18 + 38) = {11.07156168708558, 1.814231515367924, 0};
Point(p18 + 39) = {11.10255305297532, 1.943319844583269, 0};
Spline(18) = {12, p18 + 1, p18 + 2, p18 + 3, p18 + 4, p18 + 5, p18 + 6, p18 + 7, p18 + 8, p18 + 9, p18 + 10, p18 + 11, p18 + 12, p18 + 13, p18 + 14, p18 + 15, p18 + 16, p18 + 17, p18 + 18, p18 + 19, p18 + 20, p18 + 21, p18 + 22, p18 + 23, p18 + 24, p18 + 25, p18 + 26, p18 + 27, p18 + 28, p18 + 29, p18 + 30, p18 + 31, p18 + 32, p18 + 33, p18 + 34, p18 + 35, p18 + 36, p18 + 37, p18 + 38, p18 + 39, 12};
Line(19) = {14, 13};
Line(20) = {13, 15};
Line(21) = {16, 15};
Line(22) = {14, 16};
Line(23) = {14, 17};
Line(24) = {17, 18};
Line(25) = {13, 18};
Line(26) = {15, 19};
Line(27) = {18, 19};
Line(28) = {16, 20};
Line(29) = {20, 19};
Line(30) = {17, 20};
Curve Loop(7) = {-13, -14, 15, 14};
Surface(7) = {7};
Curve Loop(8) = {13};
Plane Surface(8) = {8};
Curve Loop(9) = {15};
Plane Surface(9) = {9};
Curve Loop(10) = {-16, -17, 18, 17};
Surface(10) = {10};
Curve Loop(11) = {16};
Plane Surface(11) = {11};
Curve Loop(12) = {18};
Plane Surface(12) = {12};
Curve Loop(13) = {-19, 22, 21, -20};
Plane Surface(13) = {13};
Curve Loop(14) = {-23, 19, 25, -24};
Plane Surface(14) = {14};
Curve Loop(15) = {-20, 25, 27, -26, -16, -13};
Plane Surface(15) = {15};
Curve Loop(16) = {-28, 21, 26, -29};
Plane Surface(16) = {16};
Curve Loop(17) = {-22, 23, 30, -28, -18, -15};
Plane Surface(17) = {17};
Curve Loop(18) = {-24, 30, 29, -27};
Plane Surface(18) = {18};
Surface Loop(1) = {13, 14, 15, 16, 17, 18, 10, 7};
Volume(1) = {1};
Surface Loop(2) = {7, 8, 9};
Volume(2) = {2};
Surface Loop(3) = {10, 11, 12};
Volume(3) = {3};
Physical Surface("WALLS") = {13, 18};
Physical Surface("LOAD") = {8, 11};
Physical Surface("BORDER") = {7, 9, 10, 12, 14, 15, 16, 17};
Physical Volume("SOLID") = {1, 2, 3};
