cl__1 = 0.059196;
cl__2 = 0.097527;
cl__3 = 0.325982;
cl__4 = 0.128598;
cl__5 = 5.677102;
cl__6 = 5.465721;
Point(9) = {8.578910999999998, 1.996148, 0.1, cl__1};
Point(10) = {8.578910999999998, 1.996148, 0, cl__1};
Point(11) = {3.353816, 2.475261, 0.1, cl__2};
Point(12) = {3.353816, 2.475261, 0, cl__2};
Point(13) = {0.78715, -3.268814, 0.1, cl__3};
Point(14) = {0.78715, -3.268814, 0, cl__3};
Point(15) = {0.78715, 4.949575, 0.1, cl__4};
Point(16) = {0.78715, 4.949575, 0, cl__4};
Point(17) = {35.358341, -3.268814, 0, cl__5};
Point(18) = {35.358341, -3.268814, 0.1, cl__5};
Point(19) = {35.358341, 4.949575, 0.1, cl__6};
Point(20) = {35.358341, 4.949575, 0, cl__6};
p13 = newp;
Point(p13 + 1) = {8.571623014722016, 2.088750633056285, 0.1};
Point(p13 + 2) = {8.549938513273046, 2.179073081956205, 0.1};
Point(p13 + 3) = {8.514391440045497, 2.264891308244823, 0.1};
Point(p13 + 4) = {8.465857081956205, 2.344092182376548, 0.1};
Point(p13 + 5) = {8.405530515977626, 2.414725515977626, 0.1};
Point(p13 + 6) = {8.334897182376547, 2.475052081956205, 0.1};
Point(p13 + 7) = {8.255696308244822, 2.523586440045498, 0.1};
Point(p13 + 8) = {8.169878081956204, 2.559133513273046, 0.1};
Point(p13 + 9) = {8.079555633056284, 2.580818014722016, 0.1};
Point(p13 + 10) = {7.986953, 2.588106, 0.1};
Point(p13 + 11) = {7.894350366943715, 2.580818014722016, 0.1};
Point(p13 + 12) = {7.804027918043794, 2.559133513273046, 0.1};
Point(p13 + 13) = {7.718209691755177, 2.523586440045498, 0.1};
Point(p13 + 14) = {7.639008817623452, 2.475052081956205, 0.1};
Point(p13 + 15) = {7.568375484022374, 2.414725515977626, 0.1};
Point(p13 + 16) = {7.508048918043794, 2.344092182376548, 0.1};
Point(p13 + 17) = {7.459514559954502, 2.264891308244823, 0.1};
Point(p13 + 18) = {7.423967486726953, 2.179073081956205, 0.1};
Point(p13 + 19) = {7.402282985277983, 2.088750633056285, 0.1};
Point(p13 + 20) = {7.394995, 1.996148, 0.1};
Point(p13 + 21) = {7.402282985277983, 1.903545366943715, 0.1};
Point(p13 + 22) = {7.423967486726953, 1.813222918043795, 0.1};
Point(p13 + 23) = {7.459514559954502, 1.727404691755178, 0.1};
Point(p13 + 24) = {7.508048918043794, 1.648203817623452, 0.1};
Point(p13 + 25) = {7.568375484022374, 1.577570484022374, 0.1};
Point(p13 + 26) = {7.639008817623452, 1.517243918043795, 0.1};
Point(p13 + 27) = {7.718209691755177, 1.468709559954502, 0.1};
Point(p13 + 28) = {7.804027918043794, 1.433162486726954, 0.1};
Point(p13 + 29) = {7.894350366943715, 1.411477985277984, 0.1};
Point(p13 + 30) = {7.986953, 1.40419, 0.1};
Point(p13 + 31) = {8.079555633056284, 1.411477985277984, 0.1};
Point(p13 + 32) = {8.169878081956204, 1.433162486726953, 0.1};
Point(p13 + 33) = {8.255696308244822, 1.468709559954502, 0.1};
Point(p13 + 34) = {8.334897182376547, 1.517243918043795, 0.1};
Point(p13 + 35) = {8.405530515977626, 1.577570484022374, 0.1};
Point(p13 + 36) = {8.465857081956205, 1.648203817623452, 0.1};
Point(p13 + 37) = {8.514391440045497, 1.727404691755177, 0.1};
Point(p13 + 38) = {8.549938513273046, 1.813222918043795, 0.1};
Point(p13 + 39) = {8.571623014722016, 1.903545366943715, 0.1};
Spline(13) = {9, p13 + 1, p13 + 2, p13 + 3, p13 + 4, p13 + 5, p13 + 6, p13 + 7, p13 + 8, p13 + 9, p13 + 10, p13 + 11, p13 + 12, p13 + 13, p13 + 14, p13 + 15, p13 + 16, p13 + 17, p13 + 18, p13 + 19, p13 + 20, p13 + 21, p13 + 22, p13 + 23, p13 + 24, p13 + 25, p13 + 26, p13 + 27, p13 + 28, p13 + 29, p13 + 30, p13 + 31, p13 + 32, p13 + 33, p13 + 34, p13 + 35, p13 + 36, p13 + 37, p13 + 38, p13 + 39, 9};
Line(14) = {10, 9};
p15 = newp;
Point(p15 + 1) = {8.571623014722016, 2.088750633056285, 0};
Point(p15 + 2) = {8.549938513273046, 2.179073081956205, 0};
Point(p15 + 3) = {8.514391440045497, 2.264891308244823, 0};
Point(p15 + 4) = {8.465857081956205, 2.344092182376548, 0};
Point(p15 + 5) = {8.405530515977626, 2.414725515977626, 0};
Point(p15 + 6) = {8.334897182376547, 2.475052081956205, 0};
Point(p15 + 7) = {8.255696308244822, 2.523586440045498, 0};
Point(p15 + 8) = {8.169878081956204, 2.559133513273046, 0};
Point(p15 + 9) = {8.079555633056284, 2.580818014722016, 0};
Point(p15 + 10) = {7.986953, 2.588106, 0};
Point(p15 + 11) = {7.894350366943715, 2.580818014722016, 0};
Point(p15 + 12) = {7.804027918043794, 2.559133513273046, 0};
Point(p15 + 13) = {7.718209691755177, 2.523586440045498, 0};
Point(p15 + 14) = {7.639008817623452, 2.475052081956205, 0};
Point(p15 + 15) = {7.568375484022374, 2.414725515977626, 0};
Point(p15 + 16) = {7.508048918043794, 2.344092182376548, 0};
Point(p15 + 17) = {7.459514559954502, 2.264891308244823, 0};
Point(p15 + 18) = {7.423967486726953, 2.179073081956205, 0};
Point(p15 + 19) = {7.402282985277983, 2.088750633056285, 0};
Point(p15 + 20) = {7.394995, 1.996148, 0};
Point(p15 + 21) = {7.402282985277983, 1.903545366943715, 0};
Point(p15 + 22) = {7.423967486726953, 1.813222918043795, 0};
Point(p15 + 23) = {7.459514559954502, 1.727404691755178, 0};
Point(p15 + 24) = {7.508048918043794, 1.648203817623452, 0};
Point(p15 + 25) = {7.568375484022374, 1.577570484022374, 0};
Point(p15 + 26) = {7.639008817623452, 1.517243918043795, 0};
Point(p15 + 27) = {7.718209691755177, 1.468709559954502, 0};
Point(p15 + 28) = {7.804027918043794, 1.433162486726954, 0};
Point(p15 + 29) = {7.894350366943715, 1.411477985277984, 0};
Point(p15 + 30) = {7.986953, 1.40419, 0};
Point(p15 + 31) = {8.079555633056284, 1.411477985277984, 0};
Point(p15 + 32) = {8.169878081956204, 1.433162486726953, 0};
Point(p15 + 33) = {8.255696308244822, 1.468709559954502, 0};
Point(p15 + 34) = {8.334897182376547, 1.517243918043795, 0};
Point(p15 + 35) = {8.405530515977626, 1.577570484022374, 0};
Point(p15 + 36) = {8.465857081956205, 1.648203817623452, 0};
Point(p15 + 37) = {8.514391440045497, 1.727404691755177, 0};
Point(p15 + 38) = {8.549938513273046, 1.813222918043795, 0};
Point(p15 + 39) = {8.571623014722016, 1.903545366943715, 0};
Spline(15) = {10, p15 + 1, p15 + 2, p15 + 3, p15 + 4, p15 + 5, p15 + 6, p15 + 7, p15 + 8, p15 + 9, p15 + 10, p15 + 11, p15 + 12, p15 + 13, p15 + 14, p15 + 15, p15 + 16, p15 + 17, p15 + 18, p15 + 19, p15 + 20, p15 + 21, p15 + 22, p15 + 23, p15 + 24, p15 + 25, p15 + 26, p15 + 27, p15 + 28, p15 + 29, p15 + 30, p15 + 31, p15 + 32, p15 + 33, p15 + 34, p15 + 35, p15 + 36, p15 + 37, p15 + 38, p15 + 39, 10};
p16 = newp;
Point(p16 + 1) = {3.341808832555539, 2.627826527850856, 0.1};
Point(p16 + 2) = {3.306082986534141, 2.776635386070066, 0.1};
Point(p16 + 3) = {3.247518150832141, 2.918023406699989, 0.1};
Point(p16 + 4) = {3.167556386070066, 3.048509147432776, 0.1};
Point(p16 + 5) = {3.068166616274242, 3.164879616274242, 0.1};
Point(p16 + 6) = {2.951796147432776, 3.264269386070066, 0.1};
Point(p16 + 7) = {2.821310406699988, 3.344231150832141, 0.1};
Point(p16 + 8) = {2.679922386070066, 3.402795986534142, 0.1};
Point(p16 + 9) = {2.531113527850856, 3.438521832555539, 0.1};
Point(p16 + 10) = {2.378548, 3.450529, 0.1};
Point(p16 + 11) = {2.225982472149144, 3.438521832555539, 0.1};
Point(p16 + 12) = {2.077173613929934, 3.402795986534142, 0.1};
Point(p16 + 13) = {1.935785593300012, 3.344231150832141, 0.1};
Point(p16 + 14) = {1.805299852567224, 3.264269386070066, 0.1};
Point(p16 + 15) = {1.688929383725758, 3.164879616274242, 0.1};
Point(p16 + 16) = {1.589539613929934, 3.048509147432776, 0.1};
Point(p16 + 17) = {1.509577849167859, 2.918023406699989, 0.1};
Point(p16 + 18) = {1.451013013465858, 2.776635386070066, 0.1};
Point(p16 + 19) = {1.415287167444461, 2.627826527850856, 0.1};
Point(p16 + 20) = {1.40328, 2.475261, 0.1};
Point(p16 + 21) = {1.415287167444461, 2.322695472149144, 0.1};
Point(p16 + 22) = {1.451013013465858, 2.173886613929934, 0.1};
Point(p16 + 23) = {1.509577849167858, 2.032498593300012, 0.1};
Point(p16 + 24) = {1.589539613929934, 1.902012852567224, 0.1};
Point(p16 + 25) = {1.688929383725758, 1.785642383725758, 0.1};
Point(p16 + 26) = {1.805299852567224, 1.686252613929934, 0.1};
Point(p16 + 27) = {1.935785593300011, 1.606290849167859, 0.1};
Point(p16 + 28) = {2.077173613929934, 1.547726013465858, 0.1};
Point(p16 + 29) = {2.225982472149144, 1.512000167444461, 0.1};
Point(p16 + 30) = {2.378548, 1.499993, 0.1};
Point(p16 + 31) = {2.531113527850855, 1.512000167444461, 0.1};
Point(p16 + 32) = {2.679922386070066, 1.547726013465858, 0.1};
Point(p16 + 33) = {2.821310406699988, 1.606290849167859, 0.1};
Point(p16 + 34) = {2.951796147432775, 1.686252613929934, 0.1};
Point(p16 + 35) = {3.068166616274242, 1.785642383725758, 0.1};
Point(p16 + 36) = {3.167556386070066, 1.902012852567224, 0.1};
Point(p16 + 37) = {3.247518150832141, 2.032498593300012, 0.1};
Point(p16 + 38) = {3.306082986534141, 2.173886613929934, 0.1};
Point(p16 + 39) = {3.341808832555539, 2.322695472149144, 0.1};
Spline(16) = {11, p16 + 1, p16 + 2, p16 + 3, p16 + 4, p16 + 5, p16 + 6, p16 + 7, p16 + 8, p16 + 9, p16 + 10, p16 + 11, p16 + 12, p16 + 13, p16 + 14, p16 + 15, p16 + 16, p16 + 17, p16 + 18, p16 + 19, p16 + 20, p16 + 21, p16 + 22, p16 + 23, p16 + 24, p16 + 25, p16 + 26, p16 + 27, p16 + 28, p16 + 29, p16 + 30, p16 + 31, p16 + 32, p16 + 33, p16 + 34, p16 + 35, p16 + 36, p16 + 37, p16 + 38, p16 + 39, 11};
Line(17) = {12, 11};
p18 = newp;
Point(p18 + 1) = {3.341808832555539, 2.627826527850856, 0};
Point(p18 + 2) = {3.306082986534141, 2.776635386070066, 0};
Point(p18 + 3) = {3.247518150832141, 2.918023406699989, 0};
Point(p18 + 4) = {3.167556386070066, 3.048509147432776, 0};
Point(p18 + 5) = {3.068166616274242, 3.164879616274242, 0};
Point(p18 + 6) = {2.951796147432776, 3.264269386070066, 0};
Point(p18 + 7) = {2.821310406699988, 3.344231150832141, 0};
Point(p18 + 8) = {2.679922386070066, 3.402795986534142, 0};
Point(p18 + 9) = {2.531113527850856, 3.438521832555539, 0};
Point(p18 + 10) = {2.378548, 3.450529, 0};
Point(p18 + 11) = {2.225982472149144, 3.438521832555539, 0};
Point(p18 + 12) = {2.077173613929934, 3.402795986534142, 0};
Point(p18 + 13) = {1.935785593300012, 3.344231150832141, 0};
Point(p18 + 14) = {1.805299852567224, 3.264269386070066, 0};
Point(p18 + 15) = {1.688929383725758, 3.164879616274242, 0};
Point(p18 + 16) = {1.589539613929934, 3.048509147432776, 0};
Point(p18 + 17) = {1.509577849167859, 2.918023406699989, 0};
Point(p18 + 18) = {1.451013013465858, 2.776635386070066, 0};
Point(p18 + 19) = {1.415287167444461, 2.627826527850856, 0};
Point(p18 + 20) = {1.40328, 2.475261, 0};
Point(p18 + 21) = {1.415287167444461, 2.322695472149144, 0};
Point(p18 + 22) = {1.451013013465858, 2.173886613929934, 0};
Point(p18 + 23) = {1.509577849167858, 2.032498593300012, 0};
Point(p18 + 24) = {1.589539613929934, 1.902012852567224, 0};
Point(p18 + 25) = {1.688929383725758, 1.785642383725758, 0};
Point(p18 + 26) = {1.805299852567224, 1.686252613929934, 0};
Point(p18 + 27) = {1.935785593300011, 1.606290849167859, 0};
Point(p18 + 28) = {2.077173613929934, 1.547726013465858, 0};
Point(p18 + 29) = {2.225982472149144, 1.512000167444461, 0};
Point(p18 + 30) = {2.378548, 1.499993, 0};
Point(p18 + 31) = {2.531113527850855, 1.512000167444461, 0};
Point(p18 + 32) = {2.679922386070066, 1.547726013465858, 0};
Point(p18 + 33) = {2.821310406699988, 1.606290849167859, 0};
Point(p18 + 34) = {2.951796147432775, 1.686252613929934, 0};
Point(p18 + 35) = {3.068166616274242, 1.785642383725758, 0};
Point(p18 + 36) = {3.167556386070066, 1.902012852567224, 0};
Point(p18 + 37) = {3.247518150832141, 2.032498593300012, 0};
Point(p18 + 38) = {3.306082986534141, 2.173886613929934, 0};
Point(p18 + 39) = {3.341808832555539, 2.322695472149144, 0};
Spline(18) = {12, p18 + 1, p18 + 2, p18 + 3, p18 + 4, p18 + 5, p18 + 6, p18 + 7, p18 + 8, p18 + 9, p18 + 10, p18 + 11, p18 + 12, p18 + 13, p18 + 14, p18 + 15, p18 + 16, p18 + 17, p18 + 18, p18 + 19, p18 + 20, p18 + 21, p18 + 22, p18 + 23, p18 + 24, p18 + 25, p18 + 26, p18 + 27, p18 + 28, p18 + 29, p18 + 30, p18 + 31, p18 + 32, p18 + 33, p18 + 34, p18 + 35, p18 + 36, p18 + 37, p18 + 38, p18 + 39, 12};
Line(19) = {14, 13};
Line(20) = {13, 15};
Line(21) = {16, 15};
Line(22) = {14, 16};
Line(23) = {14, 17};
Line(24) = {17, 18};
Line(25) = {13, 18};
Line(26) = {15, 19};
Line(27) = {18, 19};
Line(28) = {16, 20};
Line(29) = {20, 19};
Line(30) = {17, 20};
Curve Loop(7) = {-13, -14, 15, 14};
Surface(7) = {7};
Curve Loop(8) = {13};
Plane Surface(8) = {8};
Curve Loop(9) = {15};
Plane Surface(9) = {9};
Curve Loop(10) = {-16, -17, 18, 17};
Surface(10) = {10};
Curve Loop(11) = {16};
Plane Surface(11) = {11};
Curve Loop(12) = {18};
Plane Surface(12) = {12};
Curve Loop(13) = {-19, 22, 21, -20};
Plane Surface(13) = {13};
Curve Loop(14) = {-23, 19, 25, -24};
Plane Surface(14) = {14};
Curve Loop(15) = {-20, 25, 27, -26, -13, -16};
Plane Surface(15) = {15};
Curve Loop(16) = {-28, 21, 26, -29};
Plane Surface(16) = {16};
Curve Loop(17) = {-22, 23, 30, -28, -15, -18};
Plane Surface(17) = {17};
Curve Loop(18) = {-24, 30, 29, -27};
Plane Surface(18) = {18};
Surface Loop(1) = {13, 14, 15, 16, 17, 18, 7, 10};
Volume(1) = {1};
Surface Loop(2) = {7, 8, 9};
Volume(2) = {2};
Surface Loop(3) = {10, 11, 12};
Volume(3) = {3};
Physical Surface("WALLS") = {13, 18};
Physical Surface("LOAD") = {8, 11};
Physical Surface("BORDER") = {7, 9, 10, 12, 14, 15, 16, 17};
Physical Volume("SOLID") = {1, 2, 3};
