cl__1 = 0.07341399999999999;
cl__2 = 0.050109;
cl__3 = 0.948923;
cl__4 = 0.885834;
cl__5 = 1.372982;
cl__6 = 1.17023;
Point(9) = {10.405116, 1.693428, 0.1, cl__1};
Point(10) = {10.405116, 1.693428, 0, cl__1};
Point(11) = {21.250635, 1.72957, 0.1, cl__2};
Point(12) = {21.250635, 1.72957, 0, cl__2};
Point(13) = {0.371844, -3.341627, 0.1, cl__3};
Point(14) = {0.371844, -3.341627, 0, cl__3};
Point(15) = {0.371844, 5.149227000000001, 0.1, cl__4};
Point(16) = {0.371844, 5.149227000000001, 0, cl__4};
Point(17) = {31.655251, -3.341627, 0, cl__5};
Point(18) = {31.655251, -3.341627, 0.1, cl__5};
Point(19) = {31.655251, 5.149227000000001, 0.1, cl__6};
Point(20) = {31.655251, 5.149227000000001, 0, cl__6};
p13 = newp;
Point(p13 + 1) = {10.39607746911788, 1.808273423902495, 0.1};
Point(p13 + 2) = {10.36918443509899, 1.920290972318401, 0.1};
Point(p13 + 3) = {10.32509909369375, 2.02672240144079, 0.1};
Point(p13 + 4) = {10.2649069723184, 2.124947016259005, 0.1};
Point(p13 + 5) = {10.19009020076742, 2.212546200767417, 0.1};
Point(p13 + 6) = {10.10249101625901, 2.287362972318401, 0.1};
Point(p13 + 7) = {10.00426640144079, 2.347555093693745, 0.1};
Point(p13 + 8) = {9.897834972318401, 2.391640435098989, 0.1};
Point(p13 + 9) = {9.785817423902497, 2.418533469117877, 0.1};
Point(p13 + 10) = {9.670972000000001, 2.427572, 0.1};
Point(p13 + 11) = {9.556126576097505, 2.418533469117877, 0.1};
Point(p13 + 12) = {9.4441090276816, 2.391640435098989, 0.1};
Point(p13 + 13) = {9.33767759855921, 2.347555093693745, 0.1};
Point(p13 + 14) = {9.239452983740996, 2.287362972318401, 0.1};
Point(p13 + 15) = {9.151853799232583, 2.212546200767417, 0.1};
Point(p13 + 16) = {9.0770370276816, 2.124947016259005, 0.1};
Point(p13 + 17) = {9.016844906306256, 2.02672240144079, 0.1};
Point(p13 + 18) = {8.972759564901011, 1.920290972318401, 0.1};
Point(p13 + 19) = {8.945866530882125, 1.808273423902495, 0.1};
Point(p13 + 20) = {8.936828, 1.693428, 0.1};
Point(p13 + 21) = {8.945866530882125, 1.578582576097505, 0.1};
Point(p13 + 22) = {8.972759564901011, 1.466565027681598, 0.1};
Point(p13 + 23) = {9.016844906306256, 1.36013359855921, 0.1};
Point(p13 + 24) = {9.0770370276816, 1.261908983740994, 0.1};
Point(p13 + 25) = {9.151853799232583, 1.174309799232583, 0.1};
Point(p13 + 26) = {9.239452983740994, 1.099493027681599, 0.1};
Point(p13 + 27) = {9.33767759855921, 1.039300906306255, 0.1};
Point(p13 + 28) = {9.444109027681598, 0.9952155649010107, 0.1};
Point(p13 + 29) = {9.556126576097505, 0.9683225308821232, 0.1};
Point(p13 + 30) = {9.670972000000001, 0.9592839999999999, 0.1};
Point(p13 + 31) = {9.785817423902495, 0.9683225308821231, 0.1};
Point(p13 + 32) = {9.897834972318401, 0.9952155649010106, 0.1};
Point(p13 + 33) = {10.00426640144079, 1.039300906306255, 0.1};
Point(p13 + 34) = {10.10249101625901, 1.099493027681598, 0.1};
Point(p13 + 35) = {10.19009020076742, 1.174309799232583, 0.1};
Point(p13 + 36) = {10.2649069723184, 1.261908983740994, 0.1};
Point(p13 + 37) = {10.32509909369375, 1.36013359855921, 0.1};
Point(p13 + 38) = {10.36918443509899, 1.466565027681598, 0.1};
Point(p13 + 39) = {10.39607746911788, 1.578582576097505, 0.1};
Spline(13) = {9, p13 + 1, p13 + 2, p13 + 3, p13 + 4, p13 + 5, p13 + 6, p13 + 7, p13 + 8, p13 + 9, p13 + 10, p13 + 11, p13 + 12, p13 + 13, p13 + 14, p13 + 15, p13 + 16, p13 + 17, p13 + 18, p13 + 19, p13 + 20, p13 + 21, p13 + 22, p13 + 23, p13 + 24, p13 + 25, p13 + 26, p13 + 27, p13 + 28, p13 + 29, p13 + 30, p13 + 31, p13 + 32, p13 + 33, p13 + 34, p13 + 35, p13 + 36, p13 + 37, p13 + 38, p13 + 39, 9};
Line(14) = {10, 9};
p15 = newp;
Point(p15 + 1) = {10.39607746911788, 1.808273423902495, 0};
Point(p15 + 2) = {10.36918443509899, 1.920290972318401, 0};
Point(p15 + 3) = {10.32509909369375, 2.02672240144079, 0};
Point(p15 + 4) = {10.2649069723184, 2.124947016259005, 0};
Point(p15 + 5) = {10.19009020076742, 2.212546200767417, 0};
Point(p15 + 6) = {10.10249101625901, 2.287362972318401, 0};
Point(p15 + 7) = {10.00426640144079, 2.347555093693745, 0};
Point(p15 + 8) = {9.897834972318401, 2.391640435098989, 0};
Point(p15 + 9) = {9.785817423902497, 2.418533469117877, 0};
Point(p15 + 10) = {9.670972000000001, 2.427572, 0};
Point(p15 + 11) = {9.556126576097505, 2.418533469117877, 0};
Point(p15 + 12) = {9.4441090276816, 2.391640435098989, 0};
Point(p15 + 13) = {9.33767759855921, 2.347555093693745, 0};
Point(p15 + 14) = {9.239452983740996, 2.287362972318401, 0};
Point(p15 + 15) = {9.151853799232583, 2.212546200767417, 0};
Point(p15 + 16) = {9.0770370276816, 2.124947016259005, 0};
Point(p15 + 17) = {9.016844906306256, 2.02672240144079, 0};
Point(p15 + 18) = {8.972759564901011, 1.920290972318401, 0};
Point(p15 + 19) = {8.945866530882125, 1.808273423902495, 0};
Point(p15 + 20) = {8.936828, 1.693428, 0};
Point(p15 + 21) = {8.945866530882125, 1.578582576097505, 0};
Point(p15 + 22) = {8.972759564901011, 1.466565027681598, 0};
Point(p15 + 23) = {9.016844906306256, 1.36013359855921, 0};
Point(p15 + 24) = {9.0770370276816, 1.261908983740994, 0};
Point(p15 + 25) = {9.151853799232583, 1.174309799232583, 0};
Point(p15 + 26) = {9.239452983740994, 1.099493027681599, 0};
Point(p15 + 27) = {9.33767759855921, 1.039300906306255, 0};
Point(p15 + 28) = {9.444109027681598, 0.9952155649010107, 0};
Point(p15 + 29) = {9.556126576097505, 0.9683225308821232, 0};
Point(p15 + 30) = {9.670972000000001, 0.9592839999999999, 0};
Point(p15 + 31) = {9.785817423902495, 0.9683225308821231, 0};
Point(p15 + 32) = {9.897834972318401, 0.9952155649010106, 0};
Point(p15 + 33) = {10.00426640144079, 1.039300906306255, 0};
Point(p15 + 34) = {10.10249101625901, 1.099493027681598, 0};
Point(p15 + 35) = {10.19009020076742, 1.174309799232583, 0};
Point(p15 + 36) = {10.2649069723184, 1.261908983740994, 0};
Point(p15 + 37) = {10.32509909369375, 1.36013359855921, 0};
Point(p15 + 38) = {10.36918443509899, 1.466565027681598, 0};
Point(p15 + 39) = {10.39607746911788, 1.578582576097505, 0};
Spline(15) = {10, p15 + 1, p15 + 2, p15 + 3, p15 + 4, p15 + 5, p15 + 6, p15 + 7, p15 + 8, p15 + 9, p15 + 10, p15 + 11, p15 + 12, p15 + 13, p15 + 14, p15 + 15, p15 + 16, p15 + 17, p15 + 18, p15 + 19, p15 + 20, p15 + 21, p15 + 22, p15 + 23, p15 + 24, p15 + 25, p15 + 26, p15 + 27, p15 + 28, p15 + 29, p15 + 30, p15 + 31, p15 + 32, p15 + 33, p15 + 34, p15 + 35, p15 + 36, p15 + 37, p15 + 38, p15 + 39, 10};
p16 = newp;
Point(p16 + 1) = {21.24446579983545, 1.807957120349149, 0.1};
Point(p16 + 2) = {21.22611010552427, 1.884414089643365, 0.1};
Point(p16 + 3) = {21.19601989517945, 1.957058283552491, 0.1};
Point(p16 + 4) = {21.15493608964336, 2.024100960930226, 0.1};
Point(p16 + 5) = {21.10387030855764, 2.083891308557642, 0.1};
Point(p16 + 6) = {21.04407996093023, 2.134957089643365, 0.1};
Point(p16 + 7) = {20.97703728355249, 2.176040895179453, 0.1};
Point(p16 + 8) = {20.90439308964336, 2.206131105524273, 0.1};
Point(p16 + 9) = {20.82793612034915, 2.224486799835455, 0.1};
Point(p16 + 10) = {20.749549, 2.230656, 0.1};
Point(p16 + 11) = {20.67116187965085, 2.224486799835455, 0.1};
Point(p16 + 12) = {20.59470491035663, 2.206131105524273, 0.1};
Point(p16 + 13) = {20.52206071644751, 2.176040895179453, 0.1};
Point(p16 + 14) = {20.45501803906977, 2.134957089643365, 0.1};
Point(p16 + 15) = {20.39522769144235, 2.083891308557642, 0.1};
Point(p16 + 16) = {20.34416191035663, 2.024100960930226, 0.1};
Point(p16 + 17) = {20.30307810482055, 1.957058283552491, 0.1};
Point(p16 + 18) = {20.27298789447573, 1.884414089643365, 0.1};
Point(p16 + 19) = {20.25463220016454, 1.807957120349149, 0.1};
Point(p16 + 20) = {20.248463, 1.72957, 0.1};
Point(p16 + 21) = {20.25463220016454, 1.651182879650851, 0.1};
Point(p16 + 22) = {20.27298789447573, 1.574725910356635, 0.1};
Point(p16 + 23) = {20.30307810482055, 1.50208171644751, 0.1};
Point(p16 + 24) = {20.34416191035663, 1.435039039069774, 0.1};
Point(p16 + 25) = {20.39522769144235, 1.375248691442358, 0.1};
Point(p16 + 26) = {20.45501803906977, 1.324182910356635, 0.1};
Point(p16 + 27) = {20.52206071644751, 1.283099104820548, 0.1};
Point(p16 + 28) = {20.59470491035663, 1.253008894475727, 0.1};
Point(p16 + 29) = {20.67116187965085, 1.234653200164545, 0.1};
Point(p16 + 30) = {20.749549, 1.228484, 0.1};
Point(p16 + 31) = {20.82793612034915, 1.234653200164545, 0.1};
Point(p16 + 32) = {20.90439308964336, 1.253008894475727, 0.1};
Point(p16 + 33) = {20.97703728355249, 1.283099104820547, 0.1};
Point(p16 + 34) = {21.04407996093023, 1.324182910356635, 0.1};
Point(p16 + 35) = {21.10387030855764, 1.375248691442358, 0.1};
Point(p16 + 36) = {21.15493608964336, 1.435039039069774, 0.1};
Point(p16 + 37) = {21.19601989517945, 1.502081716447509, 0.1};
Point(p16 + 38) = {21.22611010552427, 1.574725910356635, 0.1};
Point(p16 + 39) = {21.24446579983545, 1.651182879650851, 0.1};
Spline(16) = {11, p16 + 1, p16 + 2, p16 + 3, p16 + 4, p16 + 5, p16 + 6, p16 + 7, p16 + 8, p16 + 9, p16 + 10, p16 + 11, p16 + 12, p16 + 13, p16 + 14, p16 + 15, p16 + 16, p16 + 17, p16 + 18, p16 + 19, p16 + 20, p16 + 21, p16 + 22, p16 + 23, p16 + 24, p16 + 25, p16 + 26, p16 + 27, p16 + 28, p16 + 29, p16 + 30, p16 + 31, p16 + 32, p16 + 33, p16 + 34, p16 + 35, p16 + 36, p16 + 37, p16 + 38, p16 + 39, 11};
Line(17) = {12, 11};
p18 = newp;
Point(p18 + 1) = {21.24446579983545, 1.807957120349149, 0};
Point(p18 + 2) = {21.22611010552427, 1.884414089643365, 0};
Point(p18 + 3) = {21.19601989517945, 1.957058283552491, 0};
Point(p18 + 4) = {21.15493608964336, 2.024100960930226, 0};
Point(p18 + 5) = {21.10387030855764, 2.083891308557642, 0};
Point(p18 + 6) = {21.04407996093023, 2.134957089643365, 0};
Point(p18 + 7) = {20.97703728355249, 2.176040895179453, 0};
Point(p18 + 8) = {20.90439308964336, 2.206131105524273, 0};
Point(p18 + 9) = {20.82793612034915, 2.224486799835455, 0};
Point(p18 + 10) = {20.749549, 2.230656, 0};
Point(p18 + 11) = {20.67116187965085, 2.224486799835455, 0};
Point(p18 + 12) = {20.59470491035663, 2.206131105524273, 0};
Point(p18 + 13) = {20.52206071644751, 2.176040895179453, 0};
Point(p18 + 14) = {20.45501803906977, 2.134957089643365, 0};
Point(p18 + 15) = {20.39522769144235, 2.083891308557642, 0};
Point(p18 + 16) = {20.34416191035663, 2.024100960930226, 0};
Point(p18 + 17) = {20.30307810482055, 1.957058283552491, 0};
Point(p18 + 18) = {20.27298789447573, 1.884414089643365, 0};
Point(p18 + 19) = {20.25463220016454, 1.807957120349149, 0};
Point(p18 + 20) = {20.248463, 1.72957, 0};
Point(p18 + 21) = {20.25463220016454, 1.651182879650851, 0};
Point(p18 + 22) = {20.27298789447573, 1.574725910356635, 0};
Point(p18 + 23) = {20.30307810482055, 1.50208171644751, 0};
Point(p18 + 24) = {20.34416191035663, 1.435039039069774, 0};
Point(p18 + 25) = {20.39522769144235, 1.375248691442358, 0};
Point(p18 + 26) = {20.45501803906977, 1.324182910356635, 0};
Point(p18 + 27) = {20.52206071644751, 1.283099104820548, 0};
Point(p18 + 28) = {20.59470491035663, 1.253008894475727, 0};
Point(p18 + 29) = {20.67116187965085, 1.234653200164545, 0};
Point(p18 + 30) = {20.749549, 1.228484, 0};
Point(p18 + 31) = {20.82793612034915, 1.234653200164545, 0};
Point(p18 + 32) = {20.90439308964336, 1.253008894475727, 0};
Point(p18 + 33) = {20.97703728355249, 1.283099104820547, 0};
Point(p18 + 34) = {21.04407996093023, 1.324182910356635, 0};
Point(p18 + 35) = {21.10387030855764, 1.375248691442358, 0};
Point(p18 + 36) = {21.15493608964336, 1.435039039069774, 0};
Point(p18 + 37) = {21.19601989517945, 1.502081716447509, 0};
Point(p18 + 38) = {21.22611010552427, 1.574725910356635, 0};
Point(p18 + 39) = {21.24446579983545, 1.651182879650851, 0};
Spline(18) = {12, p18 + 1, p18 + 2, p18 + 3, p18 + 4, p18 + 5, p18 + 6, p18 + 7, p18 + 8, p18 + 9, p18 + 10, p18 + 11, p18 + 12, p18 + 13, p18 + 14, p18 + 15, p18 + 16, p18 + 17, p18 + 18, p18 + 19, p18 + 20, p18 + 21, p18 + 22, p18 + 23, p18 + 24, p18 + 25, p18 + 26, p18 + 27, p18 + 28, p18 + 29, p18 + 30, p18 + 31, p18 + 32, p18 + 33, p18 + 34, p18 + 35, p18 + 36, p18 + 37, p18 + 38, p18 + 39, 12};
Line(19) = {14, 13};
Line(20) = {13, 15};
Line(21) = {16, 15};
Line(22) = {14, 16};
Line(23) = {14, 17};
Line(24) = {17, 18};
Line(25) = {13, 18};
Line(26) = {15, 19};
Line(27) = {18, 19};
Line(28) = {16, 20};
Line(29) = {20, 19};
Line(30) = {17, 20};
Curve Loop(7) = {-13, -14, 15, 14};
Surface(7) = {7};
Curve Loop(8) = {13};
Plane Surface(8) = {8};
Curve Loop(9) = {15};
Plane Surface(9) = {9};
Curve Loop(10) = {-16, -17, 18, 17};
Surface(10) = {10};
Curve Loop(11) = {16};
Plane Surface(11) = {11};
Curve Loop(12) = {18};
Plane Surface(12) = {12};
Curve Loop(13) = {-19, 22, 21, -20};
Plane Surface(13) = {13};
Curve Loop(14) = {-23, 19, 25, -24};
Plane Surface(14) = {14};
Curve Loop(15) = {-20, 25, 27, -26, -13, -16};
Plane Surface(15) = {15};
Curve Loop(16) = {-28, 21, 26, -29};
Plane Surface(16) = {16};
Curve Loop(17) = {-22, 23, 30, -28, -15, -18};
Plane Surface(17) = {17};
Curve Loop(18) = {-24, 30, 29, -27};
Plane Surface(18) = {18};
Surface Loop(1) = {13, 14, 15, 16, 17, 18, 7, 10};
Volume(1) = {1};
Surface Loop(2) = {7, 8, 9};
Volume(2) = {2};
Surface Loop(3) = {10, 11, 12};
Volume(3) = {3};
Physical Surface("WALLS") = {13, 18};
Physical Surface("LOAD") = {8, 11};
Physical Surface("BORDER") = {7, 9, 10, 12, 14, 15, 16, 17};
Physical Volume("SOLID") = {1, 2, 3};
