cl__1 = 0.117225;
cl__2 = 0.132747;
cl__3 = 2.585299;
cl__4 = 1.696077;
cl__5 = 0.77699;
cl__6 = 0.657973;
Point(9) = {30.612467, 1.624878, 0.1, cl__1};
Point(10) = {30.612467, 1.624878, 0, cl__1};
Point(11) = {13.816885, 2.961495, 0.1, cl__2};
Point(12) = {13.816885, 2.961495, 0, cl__2};
Point(13) = {0.7033, -3.971666, 0.1, cl__3};
Point(14) = {0.7033, -3.971666, 0, cl__3};
Point(15) = {0.7033, 5.496597, 0.1, cl__4};
Point(16) = {0.7033, 5.496597, 0, cl__4};
Point(17) = {35.381315, -3.971666, 0, cl__5};
Point(18) = {35.381315, -3.971666, 0.1, cl__5};
Point(19) = {35.381315, 5.496597, 0.1, cl__6};
Point(20) = {35.381315, 5.496597, 0, cl__6};
p13 = newp;
Point(p13 + 1) = {30.59803470650929, 1.80825767590555, 0.1};
Point(p13 + 2) = {30.55509319700093, 1.987121935588055, 0.1};
Point(p13 + 3) = {30.48469983395372, 2.157066547357685, 0.1};
Point(p13 + 4) = {30.38858793558806, 2.313906910858842, 0.1};
Point(p13 + 5) = {30.26912409581881, 2.453781095818806, 0.1};
Point(p13 + 6) = {30.12924991085884, 2.573244935588054, 0.1};
Point(p13 + 7) = {29.97240954735769, 2.669356833953717, 0.1};
Point(p13 + 8) = {29.80246493558806, 2.739750197000928, 0.1};
Point(p13 + 9) = {29.62360067590555, 2.782691706509288, 0.1};
Point(p13 + 10) = {29.440221, 2.797124, 0.1};
Point(p13 + 11) = {29.25684132409445, 2.782691706509288, 0.1};
Point(p13 + 12) = {29.07797706441195, 2.739750197000928, 0.1};
Point(p13 + 13) = {28.90803245264232, 2.669356833953717, 0.1};
Point(p13 + 14) = {28.75119208914116, 2.573244935588054, 0.1};
Point(p13 + 15) = {28.6113179041812, 2.453781095818806, 0.1};
Point(p13 + 16) = {28.49185406441195, 2.313906910858843, 0.1};
Point(p13 + 17) = {28.39574216604628, 2.157066547357685, 0.1};
Point(p13 + 18) = {28.32534880299907, 1.987121935588055, 0.1};
Point(p13 + 19) = {28.28240729349071, 1.808257675905551, 0.1};
Point(p13 + 20) = {28.267975, 1.624878, 0.1};
Point(p13 + 21) = {28.28240729349071, 1.44149832409445, 0.1};
Point(p13 + 22) = {28.32534880299907, 1.262634064411945, 0.1};
Point(p13 + 23) = {28.39574216604628, 1.092689452642316, 0.1};
Point(p13 + 24) = {28.49185406441195, 0.9358490891411577, 0.1};
Point(p13 + 25) = {28.6113179041812, 0.7959749041811947, 0.1};
Point(p13 + 26) = {28.75119208914116, 0.6765110644119456, 0.1};
Point(p13 + 27) = {28.90803245264232, 0.5803991660462828, 0.1};
Point(p13 + 28) = {29.07797706441195, 0.5100058029990715, 0.1};
Point(p13 + 29) = {29.25684132409445, 0.4670642934907123, 0.1};
Point(p13 + 30) = {29.440221, 0.4526320000000001, 0.1};
Point(p13 + 31) = {29.62360067590555, 0.4670642934907123, 0.1};
Point(p13 + 32) = {29.80246493558806, 0.5100058029990715, 0.1};
Point(p13 + 33) = {29.97240954735769, 0.5803991660462824, 0.1};
Point(p13 + 34) = {30.12924991085884, 0.6765110644119453, 0.1};
Point(p13 + 35) = {30.26912409581881, 0.7959749041811943, 0.1};
Point(p13 + 36) = {30.38858793558806, 0.9358490891411575, 0.1};
Point(p13 + 37) = {30.48469983395372, 1.092689452642315, 0.1};
Point(p13 + 38) = {30.55509319700093, 1.262634064411945, 0.1};
Point(p13 + 39) = {30.59803470650929, 1.441498324094449, 0.1};
Spline(13) = {9, p13 + 1, p13 + 2, p13 + 3, p13 + 4, p13 + 5, p13 + 6, p13 + 7, p13 + 8, p13 + 9, p13 + 10, p13 + 11, p13 + 12, p13 + 13, p13 + 14, p13 + 15, p13 + 16, p13 + 17, p13 + 18, p13 + 19, p13 + 20, p13 + 21, p13 + 22, p13 + 23, p13 + 24, p13 + 25, p13 + 26, p13 + 27, p13 + 28, p13 + 29, p13 + 30, p13 + 31, p13 + 32, p13 + 33, p13 + 34, p13 + 35, p13 + 36, p13 + 37, p13 + 38, p13 + 39, 9};
Line(14) = {10, 9};
p15 = newp;
Point(p15 + 1) = {30.59803470650929, 1.80825767590555, 0};
Point(p15 + 2) = {30.55509319700093, 1.987121935588055, 0};
Point(p15 + 3) = {30.48469983395372, 2.157066547357685, 0};
Point(p15 + 4) = {30.38858793558806, 2.313906910858842, 0};
Point(p15 + 5) = {30.26912409581881, 2.453781095818806, 0};
Point(p15 + 6) = {30.12924991085884, 2.573244935588054, 0};
Point(p15 + 7) = {29.97240954735769, 2.669356833953717, 0};
Point(p15 + 8) = {29.80246493558806, 2.739750197000928, 0};
Point(p15 + 9) = {29.62360067590555, 2.782691706509288, 0};
Point(p15 + 10) = {29.440221, 2.797124, 0};
Point(p15 + 11) = {29.25684132409445, 2.782691706509288, 0};
Point(p15 + 12) = {29.07797706441195, 2.739750197000928, 0};
Point(p15 + 13) = {28.90803245264232, 2.669356833953717, 0};
Point(p15 + 14) = {28.75119208914116, 2.573244935588054, 0};
Point(p15 + 15) = {28.6113179041812, 2.453781095818806, 0};
Point(p15 + 16) = {28.49185406441195, 2.313906910858843, 0};
Point(p15 + 17) = {28.39574216604628, 2.157066547357685, 0};
Point(p15 + 18) = {28.32534880299907, 1.987121935588055, 0};
Point(p15 + 19) = {28.28240729349071, 1.808257675905551, 0};
Point(p15 + 20) = {28.267975, 1.624878, 0};
Point(p15 + 21) = {28.28240729349071, 1.44149832409445, 0};
Point(p15 + 22) = {28.32534880299907, 1.262634064411945, 0};
Point(p15 + 23) = {28.39574216604628, 1.092689452642316, 0};
Point(p15 + 24) = {28.49185406441195, 0.9358490891411577, 0};
Point(p15 + 25) = {28.6113179041812, 0.7959749041811947, 0};
Point(p15 + 26) = {28.75119208914116, 0.6765110644119456, 0};
Point(p15 + 27) = {28.90803245264232, 0.5803991660462828, 0};
Point(p15 + 28) = {29.07797706441195, 0.5100058029990715, 0};
Point(p15 + 29) = {29.25684132409445, 0.4670642934907123, 0};
Point(p15 + 30) = {29.440221, 0.4526320000000001, 0};
Point(p15 + 31) = {29.62360067590555, 0.4670642934907123, 0};
Point(p15 + 32) = {29.80246493558806, 0.5100058029990715, 0};
Point(p15 + 33) = {29.97240954735769, 0.5803991660462824, 0};
Point(p15 + 34) = {30.12924991085884, 0.6765110644119453, 0};
Point(p15 + 35) = {30.26912409581881, 0.7959749041811943, 0};
Point(p15 + 36) = {30.38858793558806, 0.9358490891411575, 0};
Point(p15 + 37) = {30.48469983395372, 1.092689452642315, 0};
Point(p15 + 38) = {30.55509319700093, 1.262634064411945, 0};
Point(p15 + 39) = {30.59803470650929, 1.441498324094449, 0};
Spline(15) = {10, p15 + 1, p15 + 2, p15 + 3, p15 + 4, p15 + 5, p15 + 6, p15 + 7, p15 + 8, p15 + 9, p15 + 10, p15 + 11, p15 + 12, p15 + 13, p15 + 14, p15 + 15, p15 + 16, p15 + 17, p15 + 18, p15 + 19, p15 + 20, p15 + 21, p15 + 22, p15 + 23, p15 + 24, p15 + 25, p15 + 26, p15 + 27, p15 + 28, p15 + 29, p15 + 30, p15 + 31, p15 + 32, p15 + 33, p15 + 34, p15 + 35, p15 + 36, p15 + 37, p15 + 38, p15 + 39, 10};
p16 = newp;
Point(p16 + 1) = {13.80054167842481, 3.16915659000356, 0.1};
Point(p16 + 2) = {13.75191414051678, 3.371704862471928, 0.1};
Point(p16 + 3) = {13.67219975764476, 3.564152406717757, 0.1};
Point(p16 + 4) = {13.56336136247193, 3.741760525504933, 0.1};
Point(p16 + 5) = {13.42807891750136, 3.900155917501363, 0.1};
Point(p16 + 6) = {13.26968352550493, 4.035438362471928, 0.1};
Point(p16 + 7) = {13.09207540671776, 4.14427675764476, 0.1};
Point(p16 + 8) = {12.89962786247193, 4.223991140516778, 0.1};
Point(p16 + 9) = {12.69707959000356, 4.272618678424806, 0.1};
Point(p16 + 10) = {12.489418, 4.288962, 0.1};
Point(p16 + 11) = {12.28175640999644, 4.272618678424806, 0.1};
Point(p16 + 12) = {12.07920813752807, 4.223991140516778, 0.1};
Point(p16 + 13) = {11.88676059328224, 4.144276757644761, 0.1};
Point(p16 + 14) = {11.70915247449507, 4.035438362471929, 0.1};
Point(p16 + 15) = {11.55075708249864, 3.900155917501363, 0.1};
Point(p16 + 16) = {11.41547463752807, 3.741760525504933, 0.1};
Point(p16 + 17) = {11.30663624235524, 3.564152406717757, 0.1};
Point(p16 + 18) = {11.22692185948322, 3.371704862471929, 0.1};
Point(p16 + 19) = {11.17829432157519, 3.16915659000356, 0.1};
Point(p16 + 20) = {11.161951, 2.961495, 0.1};
Point(p16 + 21) = {11.17829432157519, 2.75383340999644, 0.1};
Point(p16 + 22) = {11.22692185948322, 2.551285137528072, 0.1};
Point(p16 + 23) = {11.30663624235524, 2.358837593282244, 0.1};
Point(p16 + 24) = {11.41547463752807, 2.181229474495068, 0.1};
Point(p16 + 25) = {11.55075708249864, 2.022834082498638, 0.1};
Point(p16 + 26) = {11.70915247449507, 1.887551637528072, 0.1};
Point(p16 + 27) = {11.88676059328224, 1.77871324235524, 0.1};
Point(p16 + 28) = {12.07920813752807, 1.698998859483222, 0.1};
Point(p16 + 29) = {12.28175640999644, 1.650371321575195, 0.1};
Point(p16 + 30) = {12.489418, 1.634028, 0.1};
Point(p16 + 31) = {12.69707959000356, 1.650371321575195, 0.1};
Point(p16 + 32) = {12.89962786247193, 1.698998859483221, 0.1};
Point(p16 + 33) = {13.09207540671776, 1.77871324235524, 0.1};
Point(p16 + 34) = {13.26968352550493, 1.887551637528072, 0.1};
Point(p16 + 35) = {13.42807891750136, 2.022834082498637, 0.1};
Point(p16 + 36) = {13.56336136247193, 2.181229474495068, 0.1};
Point(p16 + 37) = {13.67219975764476, 2.358837593282243, 0.1};
Point(p16 + 38) = {13.75191414051678, 2.551285137528072, 0.1};
Point(p16 + 39) = {13.80054167842481, 2.75383340999644, 0.1};
Spline(16) = {11, p16 + 1, p16 + 2, p16 + 3, p16 + 4, p16 + 5, p16 + 6, p16 + 7, p16 + 8, p16 + 9, p16 + 10, p16 + 11, p16 + 12, p16 + 13, p16 + 14, p16 + 15, p16 + 16, p16 + 17, p16 + 18, p16 + 19, p16 + 20, p16 + 21, p16 + 22, p16 + 23, p16 + 24, p16 + 25, p16 + 26, p16 + 27, p16 + 28, p16 + 29, p16 + 30, p16 + 31, p16 + 32, p16 + 33, p16 + 34, p16 + 35, p16 + 36, p16 + 37, p16 + 38, p16 + 39, 11};
Line(17) = {12, 11};
p18 = newp;
Point(p18 + 1) = {13.80054167842481, 3.16915659000356, 0};
Point(p18 + 2) = {13.75191414051678, 3.371704862471928, 0};
Point(p18 + 3) = {13.67219975764476, 3.564152406717757, 0};
Point(p18 + 4) = {13.56336136247193, 3.741760525504933, 0};
Point(p18 + 5) = {13.42807891750136, 3.900155917501363, 0};
Point(p18 + 6) = {13.26968352550493, 4.035438362471928, 0};
Point(p18 + 7) = {13.09207540671776, 4.14427675764476, 0};
Point(p18 + 8) = {12.89962786247193, 4.223991140516778, 0};
Point(p18 + 9) = {12.69707959000356, 4.272618678424806, 0};
Point(p18 + 10) = {12.489418, 4.288962, 0};
Point(p18 + 11) = {12.28175640999644, 4.272618678424806, 0};
Point(p18 + 12) = {12.07920813752807, 4.223991140516778, 0};
Point(p18 + 13) = {11.88676059328224, 4.144276757644761, 0};
Point(p18 + 14) = {11.70915247449507, 4.035438362471929, 0};
Point(p18 + 15) = {11.55075708249864, 3.900155917501363, 0};
Point(p18 + 16) = {11.41547463752807, 3.741760525504933, 0};
Point(p18 + 17) = {11.30663624235524, 3.564152406717757, 0};
Point(p18 + 18) = {11.22692185948322, 3.371704862471929, 0};
Point(p18 + 19) = {11.17829432157519, 3.16915659000356, 0};
Point(p18 + 20) = {11.161951, 2.961495, 0};
Point(p18 + 21) = {11.17829432157519, 2.75383340999644, 0};
Point(p18 + 22) = {11.22692185948322, 2.551285137528072, 0};
Point(p18 + 23) = {11.30663624235524, 2.358837593282244, 0};
Point(p18 + 24) = {11.41547463752807, 2.181229474495068, 0};
Point(p18 + 25) = {11.55075708249864, 2.022834082498638, 0};
Point(p18 + 26) = {11.70915247449507, 1.887551637528072, 0};
Point(p18 + 27) = {11.88676059328224, 1.77871324235524, 0};
Point(p18 + 28) = {12.07920813752807, 1.698998859483222, 0};
Point(p18 + 29) = {12.28175640999644, 1.650371321575195, 0};
Point(p18 + 30) = {12.489418, 1.634028, 0};
Point(p18 + 31) = {12.69707959000356, 1.650371321575195, 0};
Point(p18 + 32) = {12.89962786247193, 1.698998859483221, 0};
Point(p18 + 33) = {13.09207540671776, 1.77871324235524, 0};
Point(p18 + 34) = {13.26968352550493, 1.887551637528072, 0};
Point(p18 + 35) = {13.42807891750136, 2.022834082498637, 0};
Point(p18 + 36) = {13.56336136247193, 2.181229474495068, 0};
Point(p18 + 37) = {13.67219975764476, 2.358837593282243, 0};
Point(p18 + 38) = {13.75191414051678, 2.551285137528072, 0};
Point(p18 + 39) = {13.80054167842481, 2.75383340999644, 0};
Spline(18) = {12, p18 + 1, p18 + 2, p18 + 3, p18 + 4, p18 + 5, p18 + 6, p18 + 7, p18 + 8, p18 + 9, p18 + 10, p18 + 11, p18 + 12, p18 + 13, p18 + 14, p18 + 15, p18 + 16, p18 + 17, p18 + 18, p18 + 19, p18 + 20, p18 + 21, p18 + 22, p18 + 23, p18 + 24, p18 + 25, p18 + 26, p18 + 27, p18 + 28, p18 + 29, p18 + 30, p18 + 31, p18 + 32, p18 + 33, p18 + 34, p18 + 35, p18 + 36, p18 + 37, p18 + 38, p18 + 39, 12};
Line(19) = {14, 13};
Line(20) = {13, 15};
Line(21) = {16, 15};
Line(22) = {14, 16};
Line(23) = {14, 17};
Line(24) = {17, 18};
Line(25) = {13, 18};
Line(26) = {15, 19};
Line(27) = {18, 19};
Line(28) = {16, 20};
Line(29) = {20, 19};
Line(30) = {17, 20};
Curve Loop(7) = {-13, -14, 15, 14};
Surface(7) = {7};
Curve Loop(8) = {13};
Plane Surface(8) = {8};
Curve Loop(9) = {15};
Plane Surface(9) = {9};
Curve Loop(10) = {-16, -17, 18, 17};
Surface(10) = {10};
Curve Loop(11) = {16};
Plane Surface(11) = {11};
Curve Loop(12) = {18};
Plane Surface(12) = {12};
Curve Loop(13) = {-19, 22, 21, -20};
Plane Surface(13) = {13};
Curve Loop(14) = {-23, 19, 25, -24};
Plane Surface(14) = {14};
Curve Loop(15) = {-20, 25, 27, -26, -13, -16};
Plane Surface(15) = {15};
Curve Loop(16) = {-28, 21, 26, -29};
Plane Surface(16) = {16};
Curve Loop(17) = {-22, 23, 30, -28, -15, -18};
Plane Surface(17) = {17};
Curve Loop(18) = {-24, 30, 29, -27};
Plane Surface(18) = {18};
Surface Loop(1) = {13, 14, 15, 16, 17, 18, 7, 10};
Volume(1) = {1};
Surface Loop(2) = {7, 8, 9};
Volume(2) = {2};
Surface Loop(3) = {10, 11, 12};
Volume(3) = {3};
Physical Surface("WALLS") = {13, 18};
Physical Surface("LOAD") = {8, 11};
Physical Surface("BORDER") = {7, 9, 10, 12, 14, 15, 16, 17};
Physical Volume("SOLID") = {1, 2, 3};
