cl__1 = 0.083784;
cl__2 = 0.068843;
cl__3 = 4.606801;
cl__4 = 4.613045;
cl__5 = 0.228089;
cl__6 = 0.443314;
Point(9) = {24.843204, 0.7928419999999998, 0.1, cl__1};
Point(10) = {24.843204, 0.7928419999999998, 0, cl__1};
Point(11) = {30.417886, -1.157953, 0.1, cl__2};
Point(12) = {30.417886, -1.157953, 0, cl__2};
Point(13) = {0.16702, -3.289691, 0.1, cl__3};
Point(14) = {0.16702, -3.289691, 0, cl__3};
Point(15) = {0.16702, 4.937378000000001, 0.1, cl__4};
Point(16) = {0.16702, 4.937378000000001, 0, cl__4};
Point(17) = {32.982022, -3.289691, 0, cl__5};
Point(18) = {32.982022, -3.289691, 0.1, cl__5};
Point(19) = {32.982022, 4.937378000000001, 0.1, cl__6};
Point(20) = {32.982022, 4.937378000000001, 0, cl__6};
p13 = newp;
Point(p13 + 1) = {24.83288886084253, 0.9239082700169818, 0.1};
Point(p13 + 2) = {24.80219743633015, 1.051747253482134, 0.1};
Point(p13 + 3) = {24.75188545119336, 1.173211130349283, 0.1};
Point(p13 + 4) = {24.68319175348213, 1.285309056854464, 0.1};
Point(p13 + 5) = {24.59780781001543, 1.385280810015431, 0.1};
Point(p13 + 6) = {24.49783605685447, 1.470664753482134, 0.1};
Point(p13 + 7) = {24.38573813034929, 1.539358451193361, 0.1};
Point(p13 + 8) = {24.26427425348214, 1.58967043633015, 0.1};
Point(p13 + 9) = {24.13643527001699, 1.620361860842527, 0.1};
Point(p13 + 10) = {24.005369, 1.630677, 0.1};
Point(p13 + 11) = {23.87430272998302, 1.620361860842527, 0.1};
Point(p13 + 12) = {23.74646374651787, 1.58967043633015, 0.1};
Point(p13 + 13) = {23.62499986965072, 1.539358451193361, 0.1};
Point(p13 + 14) = {23.51290194314554, 1.470664753482134, 0.1};
Point(p13 + 15) = {23.41293018998457, 1.385280810015431, 0.1};
Point(p13 + 16) = {23.32754624651787, 1.285309056854465, 0.1};
Point(p13 + 17) = {23.25885254880664, 1.173211130349283, 0.1};
Point(p13 + 18) = {23.20854056366985, 1.051747253482134, 0.1};
Point(p13 + 19) = {23.17784913915747, 0.9239082700169819, 0.1};
Point(p13 + 20) = {23.167534, 0.7928420000000002, 0.1};
Point(p13 + 21) = {23.17784913915747, 0.6617757299830183, 0.1};
Point(p13 + 22) = {23.20854056366985, 0.5339367465178657, 0.1};
Point(p13 + 23) = {23.25885254880664, 0.4124728696507173, 0.1};
Point(p13 + 24) = {23.32754624651787, 0.3003749431455359, 0.1};
Point(p13 + 25) = {23.41293018998457, 0.2004031899845691, 0.1};
Point(p13 + 26) = {23.51290194314554, 0.115019246517866, 0.1};
Point(p13 + 27) = {23.62499986965072, 0.04632554880663897, 0.1};
Point(p13 + 28) = {23.74646374651787, -0.003986436330149945, 0.1};
Point(p13 + 29) = {23.87430272998302, -0.03467786084252711, 0.1};
Point(p13 + 30) = {24.005369, -0.04499299999999995, 0.1};
Point(p13 + 31) = {24.13643527001698, -0.03467786084252722, 0.1};
Point(p13 + 32) = {24.26427425348214, -0.003986436330150056, 0.1};
Point(p13 + 33) = {24.38573813034929, 0.04632554880663875, 0.1};
Point(p13 + 34) = {24.49783605685447, 0.1150192465178659, 0.1};
Point(p13 + 35) = {24.59780781001543, 0.2004031899845689, 0.1};
Point(p13 + 36) = {24.68319175348213, 0.3003749431455357, 0.1};
Point(p13 + 37) = {24.75188545119336, 0.4124728696507167, 0.1};
Point(p13 + 38) = {24.80219743633015, 0.5339367465178658, 0.1};
Point(p13 + 39) = {24.83288886084253, 0.661775729983018, 0.1};
Spline(13) = {9, p13 + 1, p13 + 2, p13 + 3, p13 + 4, p13 + 5, p13 + 6, p13 + 7, p13 + 8, p13 + 9, p13 + 10, p13 + 11, p13 + 12, p13 + 13, p13 + 14, p13 + 15, p13 + 16, p13 + 17, p13 + 18, p13 + 19, p13 + 20, p13 + 21, p13 + 22, p13 + 23, p13 + 24, p13 + 25, p13 + 26, p13 + 27, p13 + 28, p13 + 29, p13 + 30, p13 + 31, p13 + 32, p13 + 33, p13 + 34, p13 + 35, p13 + 36, p13 + 37, p13 + 38, p13 + 39, 9};
Line(14) = {10, 9};
p15 = newp;
Point(p15 + 1) = {24.83288886084253, 0.9239082700169818, 0};
Point(p15 + 2) = {24.80219743633015, 1.051747253482134, 0};
Point(p15 + 3) = {24.75188545119336, 1.173211130349283, 0};
Point(p15 + 4) = {24.68319175348213, 1.285309056854464, 0};
Point(p15 + 5) = {24.59780781001543, 1.385280810015431, 0};
Point(p15 + 6) = {24.49783605685447, 1.470664753482134, 0};
Point(p15 + 7) = {24.38573813034929, 1.539358451193361, 0};
Point(p15 + 8) = {24.26427425348214, 1.58967043633015, 0};
Point(p15 + 9) = {24.13643527001699, 1.620361860842527, 0};
Point(p15 + 10) = {24.005369, 1.630677, 0};
Point(p15 + 11) = {23.87430272998302, 1.620361860842527, 0};
Point(p15 + 12) = {23.74646374651787, 1.58967043633015, 0};
Point(p15 + 13) = {23.62499986965072, 1.539358451193361, 0};
Point(p15 + 14) = {23.51290194314554, 1.470664753482134, 0};
Point(p15 + 15) = {23.41293018998457, 1.385280810015431, 0};
Point(p15 + 16) = {23.32754624651787, 1.285309056854465, 0};
Point(p15 + 17) = {23.25885254880664, 1.173211130349283, 0};
Point(p15 + 18) = {23.20854056366985, 1.051747253482134, 0};
Point(p15 + 19) = {23.17784913915747, 0.9239082700169819, 0};
Point(p15 + 20) = {23.167534, 0.7928420000000002, 0};
Point(p15 + 21) = {23.17784913915747, 0.6617757299830183, 0};
Point(p15 + 22) = {23.20854056366985, 0.5339367465178657, 0};
Point(p15 + 23) = {23.25885254880664, 0.4124728696507173, 0};
Point(p15 + 24) = {23.32754624651787, 0.3003749431455359, 0};
Point(p15 + 25) = {23.41293018998457, 0.2004031899845691, 0};
Point(p15 + 26) = {23.51290194314554, 0.115019246517866, 0};
Point(p15 + 27) = {23.62499986965072, 0.04632554880663897, 0};
Point(p15 + 28) = {23.74646374651787, -0.003986436330149945, 0};
Point(p15 + 29) = {23.87430272998302, -0.03467786084252711, 0};
Point(p15 + 30) = {24.005369, -0.04499299999999995, 0};
Point(p15 + 31) = {24.13643527001698, -0.03467786084252722, 0};
Point(p15 + 32) = {24.26427425348214, -0.003986436330150056, 0};
Point(p15 + 33) = {24.38573813034929, 0.04632554880663875, 0};
Point(p15 + 34) = {24.49783605685447, 0.1150192465178659, 0};
Point(p15 + 35) = {24.59780781001543, 0.2004031899845689, 0};
Point(p15 + 36) = {24.68319175348213, 0.3003749431455357, 0};
Point(p15 + 37) = {24.75188545119336, 0.4124728696507167, 0};
Point(p15 + 38) = {24.80219743633015, 0.5339367465178658, 0};
Point(p15 + 39) = {24.83288886084253, 0.661775729983018, 0};
Spline(15) = {10, p15 + 1, p15 + 2, p15 + 3, p15 + 4, p15 + 5, p15 + 6, p15 + 7, p15 + 8, p15 + 9, p15 + 10, p15 + 11, p15 + 12, p15 + 13, p15 + 14, p15 + 15, p15 + 16, p15 + 17, p15 + 18, p15 + 19, p15 + 20, p15 + 21, p15 + 22, p15 + 23, p15 + 24, p15 + 25, p15 + 26, p15 + 27, p15 + 28, p15 + 29, p15 + 30, p15 + 31, p15 + 32, p15 + 33, p15 + 34, p15 + 35, p15 + 36, p15 + 37, p15 + 38, p15 + 39, 10};
p16 = newp;
Point(p16 + 1) = {30.40941033356255, -1.050259446970214, 0.1};
Point(p16 + 2) = {30.38419203328701, -0.9452176666304325, 0.1};
Point(p16 + 3) = {30.3428520574209, -0.8454141362263028, 0.1};
Point(p16 + 4) = {30.28640833336957, -0.7533063499053019, 0.1};
Point(p16 + 5) = {30.21625069294513, -0.6711623070548699, 0.1};
Point(p16 + 6) = {30.1341066500947, -0.6010046666304325, 0.1};
Point(p16 + 7) = {30.0419988637737, -0.5445609425790987, 0.1};
Point(p16 + 8) = {29.94219533336957, -0.5032209667129927, 0.1};
Point(p16 + 9) = {29.83715355302979, -0.4780026664374517, 0.1};
Point(p16 + 10) = {29.72946, -0.469527, 0.1};
Point(p16 + 11) = {29.62176644697021, -0.4780026664374518, 0.1};
Point(p16 + 12) = {29.51672466663043, -0.5032209667129925, 0.1};
Point(p16 + 13) = {29.4169211362263, -0.5445609425790987, 0.1};
Point(p16 + 14) = {29.3248133499053, -0.6010046666304325, 0.1};
Point(p16 + 15) = {29.24266930705487, -0.6711623070548698, 0.1};
Point(p16 + 16) = {29.17251166663043, -0.7533063499053019, 0.1};
Point(p16 + 17) = {29.1160679425791, -0.8454141362263028, 0.1};
Point(p16 + 18) = {29.07472796671299, -0.9452176666304324, 0.1};
Point(p16 + 19) = {29.04950966643745, -1.050259446970214, 0.1};
Point(p16 + 20) = {29.041034, -1.157953, 0.1};
Point(p16 + 21) = {29.04950966643745, -1.265646553029786, 0.1};
Point(p16 + 22) = {29.07472796671299, -1.370688333369568, 0.1};
Point(p16 + 23) = {29.1160679425791, -1.470491863773697, 0.1};
Point(p16 + 24) = {29.17251166663043, -1.562599650094698, 0.1};
Point(p16 + 25) = {29.24266930705487, -1.64474369294513, 0.1};
Point(p16 + 26) = {29.3248133499053, -1.714901333369568, 0.1};
Point(p16 + 27) = {29.4169211362263, -1.771345057420901, 0.1};
Point(p16 + 28) = {29.51672466663043, -1.812685033287007, 0.1};
Point(p16 + 29) = {29.62176644697021, -1.837903333562548, 0.1};
Point(p16 + 30) = {29.72946, -1.846379, 0.1};
Point(p16 + 31) = {29.83715355302979, -1.837903333562548, 0.1};
Point(p16 + 32) = {29.94219533336957, -1.812685033287007, 0.1};
Point(p16 + 33) = {30.0419988637737, -1.771345057420902, 0.1};
Point(p16 + 34) = {30.1341066500947, -1.714901333369568, 0.1};
Point(p16 + 35) = {30.21625069294513, -1.64474369294513, 0.1};
Point(p16 + 36) = {30.28640833336957, -1.562599650094698, 0.1};
Point(p16 + 37) = {30.3428520574209, -1.470491863773697, 0.1};
Point(p16 + 38) = {30.38419203328701, -1.370688333369568, 0.1};
Point(p16 + 39) = {30.40941033356255, -1.265646553029786, 0.1};
Spline(16) = {11, p16 + 1, p16 + 2, p16 + 3, p16 + 4, p16 + 5, p16 + 6, p16 + 7, p16 + 8, p16 + 9, p16 + 10, p16 + 11, p16 + 12, p16 + 13, p16 + 14, p16 + 15, p16 + 16, p16 + 17, p16 + 18, p16 + 19, p16 + 20, p16 + 21, p16 + 22, p16 + 23, p16 + 24, p16 + 25, p16 + 26, p16 + 27, p16 + 28, p16 + 29, p16 + 30, p16 + 31, p16 + 32, p16 + 33, p16 + 34, p16 + 35, p16 + 36, p16 + 37, p16 + 38, p16 + 39, 11};
Line(17) = {12, 11};
p18 = newp;
Point(p18 + 1) = {30.40941033356255, -1.050259446970214, 0};
Point(p18 + 2) = {30.38419203328701, -0.9452176666304325, 0};
Point(p18 + 3) = {30.3428520574209, -0.8454141362263028, 0};
Point(p18 + 4) = {30.28640833336957, -0.7533063499053019, 0};
Point(p18 + 5) = {30.21625069294513, -0.6711623070548699, 0};
Point(p18 + 6) = {30.1341066500947, -0.6010046666304325, 0};
Point(p18 + 7) = {30.0419988637737, -0.5445609425790987, 0};
Point(p18 + 8) = {29.94219533336957, -0.5032209667129927, 0};
Point(p18 + 9) = {29.83715355302979, -0.4780026664374517, 0};
Point(p18 + 10) = {29.72946, -0.469527, 0};
Point(p18 + 11) = {29.62176644697021, -0.4780026664374518, 0};
Point(p18 + 12) = {29.51672466663043, -0.5032209667129925, 0};
Point(p18 + 13) = {29.4169211362263, -0.5445609425790987, 0};
Point(p18 + 14) = {29.3248133499053, -0.6010046666304325, 0};
Point(p18 + 15) = {29.24266930705487, -0.6711623070548698, 0};
Point(p18 + 16) = {29.17251166663043, -0.7533063499053019, 0};
Point(p18 + 17) = {29.1160679425791, -0.8454141362263028, 0};
Point(p18 + 18) = {29.07472796671299, -0.9452176666304324, 0};
Point(p18 + 19) = {29.04950966643745, -1.050259446970214, 0};
Point(p18 + 20) = {29.041034, -1.157953, 0};
Point(p18 + 21) = {29.04950966643745, -1.265646553029786, 0};
Point(p18 + 22) = {29.07472796671299, -1.370688333369568, 0};
Point(p18 + 23) = {29.1160679425791, -1.470491863773697, 0};
Point(p18 + 24) = {29.17251166663043, -1.562599650094698, 0};
Point(p18 + 25) = {29.24266930705487, -1.64474369294513, 0};
Point(p18 + 26) = {29.3248133499053, -1.714901333369568, 0};
Point(p18 + 27) = {29.4169211362263, -1.771345057420901, 0};
Point(p18 + 28) = {29.51672466663043, -1.812685033287007, 0};
Point(p18 + 29) = {29.62176644697021, -1.837903333562548, 0};
Point(p18 + 30) = {29.72946, -1.846379, 0};
Point(p18 + 31) = {29.83715355302979, -1.837903333562548, 0};
Point(p18 + 32) = {29.94219533336957, -1.812685033287007, 0};
Point(p18 + 33) = {30.0419988637737, -1.771345057420902, 0};
Point(p18 + 34) = {30.1341066500947, -1.714901333369568, 0};
Point(p18 + 35) = {30.21625069294513, -1.64474369294513, 0};
Point(p18 + 36) = {30.28640833336957, -1.562599650094698, 0};
Point(p18 + 37) = {30.3428520574209, -1.470491863773697, 0};
Point(p18 + 38) = {30.38419203328701, -1.370688333369568, 0};
Point(p18 + 39) = {30.40941033356255, -1.265646553029786, 0};
Spline(18) = {12, p18 + 1, p18 + 2, p18 + 3, p18 + 4, p18 + 5, p18 + 6, p18 + 7, p18 + 8, p18 + 9, p18 + 10, p18 + 11, p18 + 12, p18 + 13, p18 + 14, p18 + 15, p18 + 16, p18 + 17, p18 + 18, p18 + 19, p18 + 20, p18 + 21, p18 + 22, p18 + 23, p18 + 24, p18 + 25, p18 + 26, p18 + 27, p18 + 28, p18 + 29, p18 + 30, p18 + 31, p18 + 32, p18 + 33, p18 + 34, p18 + 35, p18 + 36, p18 + 37, p18 + 38, p18 + 39, 12};
Line(19) = {14, 13};
Line(20) = {13, 15};
Line(21) = {16, 15};
Line(22) = {14, 16};
Line(23) = {14, 17};
Line(24) = {17, 18};
Line(25) = {13, 18};
Line(26) = {15, 19};
Line(27) = {18, 19};
Line(28) = {16, 20};
Line(29) = {20, 19};
Line(30) = {17, 20};
Curve Loop(7) = {-13, -14, 15, 14};
Surface(7) = {7};
Curve Loop(8) = {13};
Plane Surface(8) = {8};
Curve Loop(9) = {15};
Plane Surface(9) = {9};
Curve Loop(10) = {-16, -17, 18, 17};
Surface(10) = {10};
Curve Loop(11) = {16};
Plane Surface(11) = {11};
Curve Loop(12) = {18};
Plane Surface(12) = {12};
Curve Loop(13) = {-19, 22, 21, -20};
Plane Surface(13) = {13};
Curve Loop(14) = {-23, 19, 25, -24};
Plane Surface(14) = {14};
Curve Loop(15) = {-20, 25, 27, -26, -16, -13};
Plane Surface(15) = {15};
Curve Loop(16) = {-28, 21, 26, -29};
Plane Surface(16) = {16};
Curve Loop(17) = {-22, 23, 30, -28, -18, -15};
Plane Surface(17) = {17};
Curve Loop(18) = {-24, 30, 29, -27};
Plane Surface(18) = {18};
Surface Loop(1) = {13, 14, 15, 16, 17, 18, 10, 7};
Volume(1) = {1};
Surface Loop(2) = {7, 8, 9};
Volume(2) = {2};
Surface Loop(3) = {10, 11, 12};
Volume(3) = {3};
Physical Surface("WALLS") = {13, 18};
Physical Surface("LOAD") = {8, 11};
Physical Surface("BORDER") = {7, 9, 10, 12, 14, 15, 16, 17};
Physical Volume("SOLID") = {1, 2, 3};
