cl__1 = 0.112606;
cl__2 = 0.052182;
cl__3 = 1.442246;
cl__4 = 1.560102;
cl__5 = 0.829324;
cl__6 = 0.881043;
Point(9) = {25.103365, -0.5449950000000002, 0.1, cl__1};
Point(10) = {25.103365, -0.5449950000000002, 0, cl__1};
Point(11) = {17.623579, -0.2207670000000001, 0.1, cl__2};
Point(12) = {17.623579, -0.2207670000000001, 0, cl__2};
Point(13) = {0.360729, -3.569943, 1, cl__3};
Point(14) = {0.360729, -3.569943, 0, cl__3};
Point(15) = {0.360729, 4.91755, 1, cl__4};
Point(16) = {0.360729, 4.91755, 0, cl__4};
Point(17) = {36.902934, -3.569943, 0, cl__5};
Point(18) = {36.902934, -3.569943, 1, cl__5};
Point(19) = {36.902934, 4.91755, 1, cl__6};
Point(20) = {36.902934, 4.91755, 0, cl__6};
p13 = newp;
Point(p13 + 1) = {25.08950134512222, -0.3688405627312627, 0.1};
Point(p13 + 2) = {25.0482517496828, -0.1970236323311411, 0.1};
Point(p13 + 3) = {24.98063191562103, -0.03377491185378578, 0.1};
Point(p13 + 4) = {24.88830686766886, 0.1168858734112099, 0.1};
Point(p13 + 5) = {24.77354995491614, 0.2512489549161424, 0.1};
Point(p13 + 6) = {24.63918687341121, 0.3660058676688588, 0.1};
Point(p13 + 7) = {24.48852608814621, 0.4583309156210292, 0.1};
Point(p13 + 8) = {24.32527736766886, 0.5259507496828043, 0.1};
Point(p13 + 9) = {24.15346043726874, 0.5672003451222202, 0.1};
Point(p13 + 10) = {23.977306, 0.5810639999999999, 0.1};
Point(p13 + 11) = {23.80115156273126, 0.56720034512222, 0.1};
Point(p13 + 12) = {23.62933463233114, 0.5259507496828043, 0.1};
Point(p13 + 13) = {23.46608591185379, 0.4583309156210292, 0.1};
Point(p13 + 14) = {23.31542512658879, 0.3660058676688589, 0.1};
Point(p13 + 15) = {23.18106204508386, 0.2512489549161425, 0.1};
Point(p13 + 16) = {23.06630513233114, 0.11688587341121, 0.1};
Point(p13 + 17) = {22.97398008437897, -0.03377491185378567, 0.1};
Point(p13 + 18) = {22.9063602503172, -0.197023632331141, 0.1};
Point(p13 + 19) = {22.86511065487778, -0.3688405627312625, 0.1};
Point(p13 + 20) = {22.851247, -0.5449949999999999, 0.1};
Point(p13 + 21) = {22.86511065487778, -0.7211494372687373, 0.1};
Point(p13 + 22) = {22.9063602503172, -0.8929663676688593, 0.1};
Point(p13 + 23) = {22.97398008437897, -1.056215088146214, 0.1};
Point(p13 + 24) = {23.06630513233114, -1.20687587341121, 0.1};
Point(p13 + 25) = {23.18106204508386, -1.341238954916142, 0.1};
Point(p13 + 26) = {23.31542512658879, -1.455995867668859, 0.1};
Point(p13 + 27) = {23.46608591185379, -1.548320915621029, 0.1};
Point(p13 + 28) = {23.62933463233114, -1.615940749682804, 0.1};
Point(p13 + 29) = {23.80115156273126, -1.65719034512222, 0.1};
Point(p13 + 30) = {23.977306, -1.671054, 0.1};
Point(p13 + 31) = {24.15346043726873, -1.65719034512222, 0.1};
Point(p13 + 32) = {24.32527736766886, -1.615940749682804, 0.1};
Point(p13 + 33) = {24.48852608814621, -1.54832091562103, 0.1};
Point(p13 + 34) = {24.63918687341121, -1.455995867668859, 0.1};
Point(p13 + 35) = {24.77354995491614, -1.341238954916143, 0.1};
Point(p13 + 36) = {24.88830686766886, -1.20687587341121, 0.1};
Point(p13 + 37) = {24.98063191562103, -1.056215088146214, 0.1};
Point(p13 + 38) = {25.0482517496828, -0.8929663676688591, 0.1};
Point(p13 + 39) = {25.08950134512222, -0.7211494372687376, 0.1};
Spline(13) = {9, p13 + 1, p13 + 2, p13 + 3, p13 + 4, p13 + 5, p13 + 6, p13 + 7, p13 + 8, p13 + 9, p13 + 10, p13 + 11, p13 + 12, p13 + 13, p13 + 14, p13 + 15, p13 + 16, p13 + 17, p13 + 18, p13 + 19, p13 + 20, p13 + 21, p13 + 22, p13 + 23, p13 + 24, p13 + 25, p13 + 26, p13 + 27, p13 + 28, p13 + 29, p13 + 30, p13 + 31, p13 + 32, p13 + 33, p13 + 34, p13 + 35, p13 + 36, p13 + 37, p13 + 38, p13 + 39, 9};
Line(14) = {10, 9};
p15 = newp;
Point(p15 + 1) = {25.08950134512222, -0.3688405627312627, 0};
Point(p15 + 2) = {25.0482517496828, -0.1970236323311411, 0};
Point(p15 + 3) = {24.98063191562103, -0.03377491185378578, 0};
Point(p15 + 4) = {24.88830686766886, 0.1168858734112099, 0};
Point(p15 + 5) = {24.77354995491614, 0.2512489549161424, 0};
Point(p15 + 6) = {24.63918687341121, 0.3660058676688588, 0};
Point(p15 + 7) = {24.48852608814621, 0.4583309156210292, 0};
Point(p15 + 8) = {24.32527736766886, 0.5259507496828043, 0};
Point(p15 + 9) = {24.15346043726874, 0.5672003451222202, 0};
Point(p15 + 10) = {23.977306, 0.5810639999999999, 0};
Point(p15 + 11) = {23.80115156273126, 0.56720034512222, 0};
Point(p15 + 12) = {23.62933463233114, 0.5259507496828043, 0};
Point(p15 + 13) = {23.46608591185379, 0.4583309156210292, 0};
Point(p15 + 14) = {23.31542512658879, 0.3660058676688589, 0};
Point(p15 + 15) = {23.18106204508386, 0.2512489549161425, 0};
Point(p15 + 16) = {23.06630513233114, 0.11688587341121, 0};
Point(p15 + 17) = {22.97398008437897, -0.03377491185378567, 0};
Point(p15 + 18) = {22.9063602503172, -0.197023632331141, 0};
Point(p15 + 19) = {22.86511065487778, -0.3688405627312625, 0};
Point(p15 + 20) = {22.851247, -0.5449949999999999, 0};
Point(p15 + 21) = {22.86511065487778, -0.7211494372687373, 0};
Point(p15 + 22) = {22.9063602503172, -0.8929663676688593, 0};
Point(p15 + 23) = {22.97398008437897, -1.056215088146214, 0};
Point(p15 + 24) = {23.06630513233114, -1.20687587341121, 0};
Point(p15 + 25) = {23.18106204508386, -1.341238954916142, 0};
Point(p15 + 26) = {23.31542512658879, -1.455995867668859, 0};
Point(p15 + 27) = {23.46608591185379, -1.548320915621029, 0};
Point(p15 + 28) = {23.62933463233114, -1.615940749682804, 0};
Point(p15 + 29) = {23.80115156273126, -1.65719034512222, 0};
Point(p15 + 30) = {23.977306, -1.671054, 0};
Point(p15 + 31) = {24.15346043726873, -1.65719034512222, 0};
Point(p15 + 32) = {24.32527736766886, -1.615940749682804, 0};
Point(p15 + 33) = {24.48852608814621, -1.54832091562103, 0};
Point(p15 + 34) = {24.63918687341121, -1.455995867668859, 0};
Point(p15 + 35) = {24.77354995491614, -1.341238954916143, 0};
Point(p15 + 36) = {24.88830686766886, -1.20687587341121, 0};
Point(p15 + 37) = {24.98063191562103, -1.056215088146214, 0};
Point(p15 + 38) = {25.0482517496828, -0.8929663676688591, 0};
Point(p15 + 39) = {25.08950134512222, -0.7211494372687376, 0};
Spline(15) = {10, p15 + 1, p15 + 2, p15 + 3, p15 + 4, p15 + 5, p15 + 6, p15 + 7, p15 + 8, p15 + 9, p15 + 10, p15 + 11, p15 + 12, p15 + 13, p15 + 14, p15 + 15, p15 + 16, p15 + 17, p15 + 18, p15 + 19, p15 + 20, p15 + 21, p15 + 22, p15 + 23, p15 + 24, p15 + 25, p15 + 26, p15 + 27, p15 + 28, p15 + 29, p15 + 30, p15 + 31, p15 + 32, p15 + 33, p15 + 34, p15 + 35, p15 + 36, p15 + 37, p15 + 38, p15 + 39, 10};
p16 = newp;
Point(p16 + 1) = {17.61715456682433, -0.1391368367561018, 0.1};
Point(p16 + 2) = {17.59803945816359, -0.05951667904624808, 0.1};
Point(p16 + 3) = {17.5667043514324, 0.01613296060259106, 0.1};
Point(p16 + 4) = {17.52392082095375, 0.08594933699550145, 0.1};
Point(p16 + 5) = {17.47074233923842, 0.1482133392384206, 0.1};
Point(p16 + 6) = {17.4084783369955, 0.2013918209537519, 0.1};
Point(p16 + 7) = {17.33866196060259, 0.2441753514324015, 0.1};
Point(p16 + 8) = {17.26301232095375, 0.2755104581635881, 0.1};
Point(p16 + 9) = {17.1833921632439, 0.294625566824333, 0.1};
Point(p16 + 10) = {17.101762, 0.30105, 0.1};
Point(p16 + 11) = {17.0201318367561, 0.2946255668243329, 0.1};
Point(p16 + 12) = {16.94051167904625, 0.2755104581635882, 0.1};
Point(p16 + 13) = {16.86486203939741, 0.2441753514324015, 0.1};
Point(p16 + 14) = {16.7950456630045, 0.201391820953752, 0.1};
Point(p16 + 15) = {16.73278166076158, 0.1482133392384207, 0.1};
Point(p16 + 16) = {16.67960317904625, 0.0859493369955015, 0.1};
Point(p16 + 17) = {16.6368196485676, 0.01613296060259112, 0.1};
Point(p16 + 18) = {16.60548454183641, -0.05951667904624802, 0.1};
Point(p16 + 19) = {16.58636943317567, -0.1391368367561018, 0.1};
Point(p16 + 20) = {16.579945, -0.2207669999999999, 0.1};
Point(p16 + 21) = {16.58636943317567, -0.3023971632438981, 0.1};
Point(p16 + 22) = {16.60548454183641, -0.3820173209537521, 0.1};
Point(p16 + 23) = {16.6368196485676, -0.4576669606025908, 0.1};
Point(p16 + 24) = {16.67960317904625, -0.5274833369955014, 0.1};
Point(p16 + 25) = {16.73278166076158, -0.5897473392384206, 0.1};
Point(p16 + 26) = {16.7950456630045, -0.6429258209537518, 0.1};
Point(p16 + 27) = {16.86486203939741, -0.6857093514324015, 0.1};
Point(p16 + 28) = {16.94051167904625, -0.7170444581635881, 0.1};
Point(p16 + 29) = {17.0201318367561, -0.7361595668243328, 0.1};
Point(p16 + 30) = {17.101762, -0.7425839999999999, 0.1};
Point(p16 + 31) = {17.1833921632439, -0.736159566824333, 0.1};
Point(p16 + 32) = {17.26301232095375, -0.7170444581635882, 0.1};
Point(p16 + 33) = {17.33866196060259, -0.6857093514324015, 0.1};
Point(p16 + 34) = {17.4084783369955, -0.6429258209537521, 0.1};
Point(p16 + 35) = {17.47074233923842, -0.5897473392384207, 0.1};
Point(p16 + 36) = {17.52392082095375, -0.5274833369955014, 0.1};
Point(p16 + 37) = {17.5667043514324, -0.4576669606025912, 0.1};
Point(p16 + 38) = {17.59803945816359, -0.382017320953752, 0.1};
Point(p16 + 39) = {17.61715456682433, -0.3023971632438983, 0.1};
Spline(16) = {11, p16 + 1, p16 + 2, p16 + 3, p16 + 4, p16 + 5, p16 + 6, p16 + 7, p16 + 8, p16 + 9, p16 + 10, p16 + 11, p16 + 12, p16 + 13, p16 + 14, p16 + 15, p16 + 16, p16 + 17, p16 + 18, p16 + 19, p16 + 20, p16 + 21, p16 + 22, p16 + 23, p16 + 24, p16 + 25, p16 + 26, p16 + 27, p16 + 28, p16 + 29, p16 + 30, p16 + 31, p16 + 32, p16 + 33, p16 + 34, p16 + 35, p16 + 36, p16 + 37, p16 + 38, p16 + 39, 11};
Line(17) = {12, 11};
p18 = newp;
Point(p18 + 1) = {17.61715456682433, -0.1391368367561018, 0};
Point(p18 + 2) = {17.59803945816359, -0.05951667904624808, 0};
Point(p18 + 3) = {17.5667043514324, 0.01613296060259106, 0};
Point(p18 + 4) = {17.52392082095375, 0.08594933699550145, 0};
Point(p18 + 5) = {17.47074233923842, 0.1482133392384206, 0};
Point(p18 + 6) = {17.4084783369955, 0.2013918209537519, 0};
Point(p18 + 7) = {17.33866196060259, 0.2441753514324015, 0};
Point(p18 + 8) = {17.26301232095375, 0.2755104581635881, 0};
Point(p18 + 9) = {17.1833921632439, 0.294625566824333, 0};
Point(p18 + 10) = {17.101762, 0.30105, 0};
Point(p18 + 11) = {17.0201318367561, 0.2946255668243329, 0};
Point(p18 + 12) = {16.94051167904625, 0.2755104581635882, 0};
Point(p18 + 13) = {16.86486203939741, 0.2441753514324015, 0};
Point(p18 + 14) = {16.7950456630045, 0.201391820953752, 0};
Point(p18 + 15) = {16.73278166076158, 0.1482133392384207, 0};
Point(p18 + 16) = {16.67960317904625, 0.0859493369955015, 0};
Point(p18 + 17) = {16.6368196485676, 0.01613296060259112, 0};
Point(p18 + 18) = {16.60548454183641, -0.05951667904624802, 0};
Point(p18 + 19) = {16.58636943317567, -0.1391368367561018, 0};
Point(p18 + 20) = {16.579945, -0.2207669999999999, 0};
Point(p18 + 21) = {16.58636943317567, -0.3023971632438981, 0};
Point(p18 + 22) = {16.60548454183641, -0.3820173209537521, 0};
Point(p18 + 23) = {16.6368196485676, -0.4576669606025908, 0};
Point(p18 + 24) = {16.67960317904625, -0.5274833369955014, 0};
Point(p18 + 25) = {16.73278166076158, -0.5897473392384206, 0};
Point(p18 + 26) = {16.7950456630045, -0.6429258209537518, 0};
Point(p18 + 27) = {16.86486203939741, -0.6857093514324015, 0};
Point(p18 + 28) = {16.94051167904625, -0.7170444581635881, 0};
Point(p18 + 29) = {17.0201318367561, -0.7361595668243328, 0};
Point(p18 + 30) = {17.101762, -0.7425839999999999, 0};
Point(p18 + 31) = {17.1833921632439, -0.736159566824333, 0};
Point(p18 + 32) = {17.26301232095375, -0.7170444581635882, 0};
Point(p18 + 33) = {17.33866196060259, -0.6857093514324015, 0};
Point(p18 + 34) = {17.4084783369955, -0.6429258209537521, 0};
Point(p18 + 35) = {17.47074233923842, -0.5897473392384207, 0};
Point(p18 + 36) = {17.52392082095375, -0.5274833369955014, 0};
Point(p18 + 37) = {17.5667043514324, -0.4576669606025912, 0};
Point(p18 + 38) = {17.59803945816359, -0.382017320953752, 0};
Point(p18 + 39) = {17.61715456682433, -0.3023971632438983, 0};
Spline(18) = {12, p18 + 1, p18 + 2, p18 + 3, p18 + 4, p18 + 5, p18 + 6, p18 + 7, p18 + 8, p18 + 9, p18 + 10, p18 + 11, p18 + 12, p18 + 13, p18 + 14, p18 + 15, p18 + 16, p18 + 17, p18 + 18, p18 + 19, p18 + 20, p18 + 21, p18 + 22, p18 + 23, p18 + 24, p18 + 25, p18 + 26, p18 + 27, p18 + 28, p18 + 29, p18 + 30, p18 + 31, p18 + 32, p18 + 33, p18 + 34, p18 + 35, p18 + 36, p18 + 37, p18 + 38, p18 + 39, 12};
Line(19) = {14, 13};
Line(20) = {13, 15};
Line(21) = {16, 15};
Line(22) = {14, 16};
Line(23) = {14, 17};
Line(24) = {17, 18};
Line(25) = {13, 18};
Line(26) = {15, 19};
Line(27) = {18, 19};
Line(28) = {16, 20};
Line(29) = {20, 19};
Line(30) = {17, 20};
Curve Loop(7) = {-13, -14, 15, 14};
Surface(7) = {7};
Curve Loop(8) = {13};
Plane Surface(8) = {8};
Curve Loop(9) = {15};
Plane Surface(9) = {9};
Curve Loop(10) = {-16, -17, 18, 17};
Surface(10) = {10};
Curve Loop(11) = {16};
Plane Surface(11) = {11};
Curve Loop(12) = {18};
Plane Surface(12) = {12};
Curve Loop(13) = {-19, 22, 21, -20};
Plane Surface(13) = {13};
Curve Loop(14) = {-23, 19, 25, -24};
Plane Surface(14) = {14};
Curve Loop(15) = {-20, 25, 27, -26};
Plane Surface(15) = {15};
Curve Loop(16) = {-28, 21, 26, -29};
Plane Surface(16) = {16};
Curve Loop(17) = {-22, 23, 30, -28, -18, -15};
Plane Surface(17) = {17};
Curve Loop(18) = {-24, 30, 29, -27};
Plane Surface(18) = {18};
Surface Loop(1) = {13, 14, 15, 16, 17, 18, 10, 7, 11, 8};
Volume(1) = {1};
Surface Loop(2) = {7, 8, 9};
Volume(2) = {2};
Surface Loop(3) = {10, 11, 12};
Volume(3) = {3};
Physical Surface("WALLS") = {13, 18};
Physical Surface("LOAD") = {8, 11};
Physical Surface("BORDER") = {7, 9, 10, 12, 14, 15, 16, 17};
Physical Volume("SOLID") = {1, 2, 3};
