cl__1 = 0.122532;
cl__2 = 0.111974;
cl__3 = 0.647239;
cl__4 = 0.531996;
cl__5 = 3.271198;
cl__6 = 2.386249;
Point(9) = {22.669411, 2.952634999999999, 0.1, cl__1};
Point(10) = {22.669411, 2.952634999999999, 0, cl__1};
Point(11) = {7.384019, 1.283768, 0.1, cl__2};
Point(12) = {7.384019, 1.283768, 0, cl__2};
Point(13) = {0.8157489999999999, -4.606515, 0.1, cl__3};
Point(14) = {0.8157489999999999, -4.606515, 0, cl__3};
Point(15) = {0.8157489999999999, 5.34323, 0.1, cl__4};
Point(16) = {0.8157489999999999, 5.34323, 0, cl__4};
Point(17) = {36.73806399999999, -4.606515, 0, cl__5};
Point(18) = {36.73806399999999, -4.606515, 0.1, cl__5};
Point(19) = {36.73806399999999, 5.34323, 0.1, cl__6};
Point(20) = {36.73806399999999, 5.34323, 0, cl__6};
p13 = newp;
Point(p13 + 1) = {22.65432522825139, 3.144317904440956, 0.1};
Point(p13 + 2) = {22.60943937477284, 3.331280939615488, 0.1};
Point(p13 + 3) = {22.53585867824459, 3.50892045510286, 0.1};
Point(p13 + 4) = {22.43539493961549, 3.672862376480023, 0.1};
Point(p13 + 5) = {22.31052190955063, 3.819069909550625, 0.1};
Point(p13 + 6) = {22.16431437648002, 3.943942939615488, 0.1};
Point(p13 + 7) = {22.00037245510286, 4.044406678244588, 0.1};
Point(p13 + 8) = {21.82273293961549, 4.117987374772842, 0.1};
Point(p13 + 9) = {21.63576990444096, 4.162873228251397, 0.1};
Point(p13 + 10) = {21.444087, 4.177959, 0.1};
Point(p13 + 11) = {21.25240409555904, 4.162873228251397, 0.1};
Point(p13 + 12) = {21.06544106038451, 4.117987374772843, 0.1};
Point(p13 + 13) = {20.88780154489714, 4.044406678244588, 0.1};
Point(p13 + 14) = {20.72385962351998, 3.943942939615488, 0.1};
Point(p13 + 15) = {20.57765209044937, 3.819069909550625, 0.1};
Point(p13 + 16) = {20.45277906038451, 3.672862376480023, 0.1};
Point(p13 + 17) = {20.35231532175541, 3.508920455102861, 0.1};
Point(p13 + 18) = {20.27873462522716, 3.331280939615488, 0.1};
Point(p13 + 19) = {20.2338487717486, 3.144317904440956, 0.1};
Point(p13 + 20) = {20.218763, 2.952635, 0.1};
Point(p13 + 21) = {20.2338487717486, 2.760952095559044, 0.1};
Point(p13 + 22) = {20.27873462522716, 2.573989060384511, 0.1};
Point(p13 + 23) = {20.35231532175541, 2.39634954489714, 0.1};
Point(p13 + 24) = {20.45277906038451, 2.232407623519978, 0.1};
Point(p13 + 25) = {20.57765209044937, 2.086200090449375, 0.1};
Point(p13 + 26) = {20.72385962351998, 1.961327060384512, 0.1};
Point(p13 + 27) = {20.88780154489714, 1.860863321755412, 0.1};
Point(p13 + 28) = {21.06544106038451, 1.787282625227157, 0.1};
Point(p13 + 29) = {21.25240409555904, 1.742396771748603, 0.1};
Point(p13 + 30) = {21.444087, 1.727311, 0.1};
Point(p13 + 31) = {21.63576990444096, 1.742396771748603, 0.1};
Point(p13 + 32) = {21.82273293961549, 1.787282625227157, 0.1};
Point(p13 + 33) = {22.00037245510286, 1.860863321755412, 0.1};
Point(p13 + 34) = {22.16431437648002, 1.961327060384511, 0.1};
Point(p13 + 35) = {22.31052190955063, 2.086200090449374, 0.1};
Point(p13 + 36) = {22.43539493961549, 2.232407623519977, 0.1};
Point(p13 + 37) = {22.53585867824459, 2.396349544897139, 0.1};
Point(p13 + 38) = {22.60943937477284, 2.573989060384512, 0.1};
Point(p13 + 39) = {22.65432522825139, 2.760952095559044, 0.1};
Spline(13) = {9, p13 + 1, p13 + 2, p13 + 3, p13 + 4, p13 + 5, p13 + 6, p13 + 7, p13 + 8, p13 + 9, p13 + 10, p13 + 11, p13 + 12, p13 + 13, p13 + 14, p13 + 15, p13 + 16, p13 + 17, p13 + 18, p13 + 19, p13 + 20, p13 + 21, p13 + 22, p13 + 23, p13 + 24, p13 + 25, p13 + 26, p13 + 27, p13 + 28, p13 + 29, p13 + 30, p13 + 31, p13 + 32, p13 + 33, p13 + 34, p13 + 35, p13 + 36, p13 + 37, p13 + 38, p13 + 39, 9};
Line(14) = {10, 9};
p15 = newp;
Point(p15 + 1) = {22.65432522825139, 3.144317904440956, 0};
Point(p15 + 2) = {22.60943937477284, 3.331280939615488, 0};
Point(p15 + 3) = {22.53585867824459, 3.50892045510286, 0};
Point(p15 + 4) = {22.43539493961549, 3.672862376480023, 0};
Point(p15 + 5) = {22.31052190955063, 3.819069909550625, 0};
Point(p15 + 6) = {22.16431437648002, 3.943942939615488, 0};
Point(p15 + 7) = {22.00037245510286, 4.044406678244588, 0};
Point(p15 + 8) = {21.82273293961549, 4.117987374772842, 0};
Point(p15 + 9) = {21.63576990444096, 4.162873228251397, 0};
Point(p15 + 10) = {21.444087, 4.177959, 0};
Point(p15 + 11) = {21.25240409555904, 4.162873228251397, 0};
Point(p15 + 12) = {21.06544106038451, 4.117987374772843, 0};
Point(p15 + 13) = {20.88780154489714, 4.044406678244588, 0};
Point(p15 + 14) = {20.72385962351998, 3.943942939615488, 0};
Point(p15 + 15) = {20.57765209044937, 3.819069909550625, 0};
Point(p15 + 16) = {20.45277906038451, 3.672862376480023, 0};
Point(p15 + 17) = {20.35231532175541, 3.508920455102861, 0};
Point(p15 + 18) = {20.27873462522716, 3.331280939615488, 0};
Point(p15 + 19) = {20.2338487717486, 3.144317904440956, 0};
Point(p15 + 20) = {20.218763, 2.952635, 0};
Point(p15 + 21) = {20.2338487717486, 2.760952095559044, 0};
Point(p15 + 22) = {20.27873462522716, 2.573989060384511, 0};
Point(p15 + 23) = {20.35231532175541, 2.39634954489714, 0};
Point(p15 + 24) = {20.45277906038451, 2.232407623519978, 0};
Point(p15 + 25) = {20.57765209044937, 2.086200090449375, 0};
Point(p15 + 26) = {20.72385962351998, 1.961327060384512, 0};
Point(p15 + 27) = {20.88780154489714, 1.860863321755412, 0};
Point(p15 + 28) = {21.06544106038451, 1.787282625227157, 0};
Point(p15 + 29) = {21.25240409555904, 1.742396771748603, 0};
Point(p15 + 30) = {21.444087, 1.727311, 0};
Point(p15 + 31) = {21.63576990444096, 1.742396771748603, 0};
Point(p15 + 32) = {21.82273293961549, 1.787282625227157, 0};
Point(p15 + 33) = {22.00037245510286, 1.860863321755412, 0};
Point(p15 + 34) = {22.16431437648002, 1.961327060384511, 0};
Point(p15 + 35) = {22.31052190955063, 2.086200090449374, 0};
Point(p15 + 36) = {22.43539493961549, 2.232407623519977, 0};
Point(p15 + 37) = {22.53585867824459, 2.396349544897139, 0};
Point(p15 + 38) = {22.60943937477284, 2.573989060384512, 0};
Point(p15 + 39) = {22.65432522825139, 2.760952095559044, 0};
Spline(15) = {10, p15 + 1, p15 + 2, p15 + 3, p15 + 4, p15 + 5, p15 + 6, p15 + 7, p15 + 8, p15 + 9, p15 + 10, p15 + 11, p15 + 12, p15 + 13, p15 + 14, p15 + 15, p15 + 16, p15 + 17, p15 + 18, p15 + 19, p15 + 20, p15 + 21, p15 + 22, p15 + 23, p15 + 24, p15 + 25, p15 + 26, p15 + 27, p15 + 28, p15 + 29, p15 + 30, p15 + 31, p15 + 32, p15 + 33, p15 + 34, p15 + 35, p15 + 36, p15 + 37, p15 + 38, p15 + 39, 10};
p16 = newp;
Point(p16 + 1) = {7.370233191744637, 1.458933302146288, 0.1};
Point(p16 + 2) = {7.32921521933027, 1.629785453213426, 0.1};
Point(p16 + 3) = {7.261975081368586, 1.792117506216361, 0.1};
Point(p16 + 4) = {7.170168453213426, 1.941932307260965, 0.1};
Point(p16 + 5) = {7.0560559187387, 2.0755409187387, 0.1};
Point(p16 + 6) = {6.922447307260965, 2.189653453213426, 0.1};
Point(p16 + 7) = {6.772632506216361, 2.281460081368586, 0.1};
Point(p16 + 8) = {6.610300453213426, 2.34870021933027, 0.1};
Point(p16 + 9) = {6.439448302146288, 2.389718191744637, 0.1};
Point(p16 + 10) = {6.264283, 2.403504, 0.1};
Point(p16 + 11) = {6.089117697853712, 2.389718191744637, 0.1};
Point(p16 + 12) = {5.918265546786574, 2.34870021933027, 0.1};
Point(p16 + 13) = {5.755933493783639, 2.281460081368587, 0.1};
Point(p16 + 14) = {5.606118692739035, 2.189653453213426, 0.1};
Point(p16 + 15) = {5.4725100812613, 2.0755409187387, 0.1};
Point(p16 + 16) = {5.358397546786573, 1.941932307260965, 0.1};
Point(p16 + 17) = {5.266590918631413, 1.792117506216361, 0.1};
Point(p16 + 18) = {5.19935078066973, 1.629785453213426, 0.1};
Point(p16 + 19) = {5.158332808255363, 1.458933302146288, 0.1};
Point(p16 + 20) = {5.144546999999999, 1.283768, 0.1};
Point(p16 + 21) = {5.158332808255363, 1.108602697853712, 0.1};
Point(p16 + 22) = {5.19935078066973, 0.9377505467865735, 0.1};
Point(p16 + 23) = {5.266590918631413, 0.7754184937836394, 0.1};
Point(p16 + 24) = {5.358397546786573, 0.6256036927390354, 0.1};
Point(p16 + 25) = {5.4725100812613, 0.4919950812613001, 0.1};
Point(p16 + 26) = {5.606118692739035, 0.377882546786574, 0.1};
Point(p16 + 27) = {5.755933493783639, 0.2860759186314138, 0.1};
Point(p16 + 28) = {5.918265546786573, 0.2188357806697299, 0.1};
Point(p16 + 29) = {6.089117697853712, 0.177817808255363, 0.1};
Point(p16 + 30) = {6.264283, 0.164032, 0.1};
Point(p16 + 31) = {6.439448302146287, 0.1778178082553628, 0.1};
Point(p16 + 32) = {6.610300453213426, 0.2188357806697299, 0.1};
Point(p16 + 33) = {6.772632506216361, 0.2860759186314136, 0.1};
Point(p16 + 34) = {6.922447307260964, 0.3778825467865737, 0.1};
Point(p16 + 35) = {7.0560559187387, 0.4919950812612999, 0.1};
Point(p16 + 36) = {7.170168453213426, 0.6256036927390352, 0.1};
Point(p16 + 37) = {7.261975081368586, 0.7754184937836386, 0.1};
Point(p16 + 38) = {7.32921521933027, 0.9377505467865737, 0.1};
Point(p16 + 39) = {7.370233191744637, 1.108602697853712, 0.1};
Spline(16) = {11, p16 + 1, p16 + 2, p16 + 3, p16 + 4, p16 + 5, p16 + 6, p16 + 7, p16 + 8, p16 + 9, p16 + 10, p16 + 11, p16 + 12, p16 + 13, p16 + 14, p16 + 15, p16 + 16, p16 + 17, p16 + 18, p16 + 19, p16 + 20, p16 + 21, p16 + 22, p16 + 23, p16 + 24, p16 + 25, p16 + 26, p16 + 27, p16 + 28, p16 + 29, p16 + 30, p16 + 31, p16 + 32, p16 + 33, p16 + 34, p16 + 35, p16 + 36, p16 + 37, p16 + 38, p16 + 39, 11};
Line(17) = {12, 11};
p18 = newp;
Point(p18 + 1) = {7.370233191744637, 1.458933302146288, 0};
Point(p18 + 2) = {7.32921521933027, 1.629785453213426, 0};
Point(p18 + 3) = {7.261975081368586, 1.792117506216361, 0};
Point(p18 + 4) = {7.170168453213426, 1.941932307260965, 0};
Point(p18 + 5) = {7.0560559187387, 2.0755409187387, 0};
Point(p18 + 6) = {6.922447307260965, 2.189653453213426, 0};
Point(p18 + 7) = {6.772632506216361, 2.281460081368586, 0};
Point(p18 + 8) = {6.610300453213426, 2.34870021933027, 0};
Point(p18 + 9) = {6.439448302146288, 2.389718191744637, 0};
Point(p18 + 10) = {6.264283, 2.403504, 0};
Point(p18 + 11) = {6.089117697853712, 2.389718191744637, 0};
Point(p18 + 12) = {5.918265546786574, 2.34870021933027, 0};
Point(p18 + 13) = {5.755933493783639, 2.281460081368587, 0};
Point(p18 + 14) = {5.606118692739035, 2.189653453213426, 0};
Point(p18 + 15) = {5.4725100812613, 2.0755409187387, 0};
Point(p18 + 16) = {5.358397546786573, 1.941932307260965, 0};
Point(p18 + 17) = {5.266590918631413, 1.792117506216361, 0};
Point(p18 + 18) = {5.19935078066973, 1.629785453213426, 0};
Point(p18 + 19) = {5.158332808255363, 1.458933302146288, 0};
Point(p18 + 20) = {5.144546999999999, 1.283768, 0};
Point(p18 + 21) = {5.158332808255363, 1.108602697853712, 0};
Point(p18 + 22) = {5.19935078066973, 0.9377505467865735, 0};
Point(p18 + 23) = {5.266590918631413, 0.7754184937836394, 0};
Point(p18 + 24) = {5.358397546786573, 0.6256036927390354, 0};
Point(p18 + 25) = {5.4725100812613, 0.4919950812613001, 0};
Point(p18 + 26) = {5.606118692739035, 0.377882546786574, 0};
Point(p18 + 27) = {5.755933493783639, 0.2860759186314138, 0};
Point(p18 + 28) = {5.918265546786573, 0.2188357806697299, 0};
Point(p18 + 29) = {6.089117697853712, 0.177817808255363, 0};
Point(p18 + 30) = {6.264283, 0.164032, 0};
Point(p18 + 31) = {6.439448302146287, 0.1778178082553628, 0};
Point(p18 + 32) = {6.610300453213426, 0.2188357806697299, 0};
Point(p18 + 33) = {6.772632506216361, 0.2860759186314136, 0};
Point(p18 + 34) = {6.922447307260964, 0.3778825467865737, 0};
Point(p18 + 35) = {7.0560559187387, 0.4919950812612999, 0};
Point(p18 + 36) = {7.170168453213426, 0.6256036927390352, 0};
Point(p18 + 37) = {7.261975081368586, 0.7754184937836386, 0};
Point(p18 + 38) = {7.32921521933027, 0.9377505467865737, 0};
Point(p18 + 39) = {7.370233191744637, 1.108602697853712, 0};
Spline(18) = {12, p18 + 1, p18 + 2, p18 + 3, p18 + 4, p18 + 5, p18 + 6, p18 + 7, p18 + 8, p18 + 9, p18 + 10, p18 + 11, p18 + 12, p18 + 13, p18 + 14, p18 + 15, p18 + 16, p18 + 17, p18 + 18, p18 + 19, p18 + 20, p18 + 21, p18 + 22, p18 + 23, p18 + 24, p18 + 25, p18 + 26, p18 + 27, p18 + 28, p18 + 29, p18 + 30, p18 + 31, p18 + 32, p18 + 33, p18 + 34, p18 + 35, p18 + 36, p18 + 37, p18 + 38, p18 + 39, 12};
Line(19) = {14, 13};
Line(20) = {13, 15};
Line(21) = {16, 15};
Line(22) = {14, 16};
Line(23) = {14, 17};
Line(24) = {17, 18};
Line(25) = {13, 18};
Line(26) = {15, 19};
Line(27) = {18, 19};
Line(28) = {16, 20};
Line(29) = {20, 19};
Line(30) = {17, 20};
Curve Loop(7) = {-13, -14, 15, 14};
Surface(7) = {7};
Curve Loop(8) = {13};
Plane Surface(8) = {8};
Curve Loop(9) = {15};
Plane Surface(9) = {9};
Curve Loop(10) = {-16, -17, 18, 17};
Surface(10) = {10};
Curve Loop(11) = {16};
Plane Surface(11) = {11};
Curve Loop(12) = {18};
Plane Surface(12) = {12};
Curve Loop(13) = {-19, 22, 21, -20};
Plane Surface(13) = {13};
Curve Loop(14) = {-23, 19, 25, -24};
Plane Surface(14) = {14};
Curve Loop(15) = {-20, 25, 27, -26, -16, -13};
Plane Surface(15) = {15};
Curve Loop(16) = {-28, 21, 26, -29};
Plane Surface(16) = {16};
Curve Loop(17) = {-22, 23, 30, -28, -18, -15};
Plane Surface(17) = {17};
Curve Loop(18) = {-24, 30, 29, -27};
Plane Surface(18) = {18};
Surface Loop(1) = {13, 14, 15, 16, 17, 18, 10, 7};
Volume(1) = {1};
Surface Loop(2) = {7, 8, 9};
Volume(2) = {2};
Surface Loop(3) = {10, 11, 12};
Volume(3) = {3};
Physical Surface("WALLS") = {13, 18};
Physical Surface("LOAD") = {8, 11};
Physical Surface("BORDER") = {7, 9, 10, 12, 14, 15, 16, 17};
Physical Volume("SOLID") = {1, 2, 3};
