cl__1 = 0.061284;
cl__2 = 0.126605;
cl__3 = 5.042666;
cl__4 = 5.212609;
cl__5 = 0.371031;
cl__6 = 0.180266;
Point(9) = {31.980093, 1.842749, 0.1, cl__1};
Point(10) = {31.980093, 1.842749, 0, cl__1};
Point(11) = {28.352486, -0.6613490000000003, 0.1, cl__2};
Point(12) = {28.352486, -0.6613490000000003, 0, cl__2};
Point(13) = {0.82336, -3.84705, 0.1, cl__3};
Point(14) = {0.82336, -3.84705, 0, cl__3};
Point(15) = {0.82336, 4.342074, 0.1, cl__4};
Point(16) = {0.82336, 4.342074, 0, cl__4};
Point(17) = {33.461597, -3.84705, 0, cl__5};
Point(18) = {33.461597, -3.84705, 0.1, cl__5};
Point(19) = {33.461597, 4.342074, 0.1, cl__6};
Point(20) = {33.461597, 4.342074, 0, cl__6};
p13 = newp;
Point(p13 + 1) = {31.97254786109203, 1.93861907972758, 0.1};
Point(p13 + 2) = {31.9500982307289, 2.032128519917714, 0.1};
Point(p13 + 3) = {31.91329689331622, 2.120974807812883, 0.1};
Point(p13 + 4) = {31.86305001991771, 2.202970252941181, 0.1};
Point(p13 + 5) = {31.80059485531627, 2.27609585531627, 0.1};
Point(p13 + 6) = {31.72746925294118, 2.338551019917714, 0.1};
Point(p13 + 7) = {31.64547380781288, 2.38879789331622, 0.1};
Point(p13 + 8) = {31.55662751991771, 2.425599230728903, 0.1};
Point(p13 + 9) = {31.46311807972758, 2.448048861092027, 0.1};
Point(p13 + 10) = {31.367248, 2.455594, 0.1};
Point(p13 + 11) = {31.27137792027242, 2.448048861092027, 0.1};
Point(p13 + 12) = {31.17786848008229, 2.425599230728904, 0.1};
Point(p13 + 13) = {31.08902219218712, 2.38879789331622, 0.1};
Point(p13 + 14) = {31.00702674705882, 2.338551019917714, 0.1};
Point(p13 + 15) = {30.93390114468373, 2.27609585531627, 0.1};
Point(p13 + 16) = {30.87144598008229, 2.202970252941181, 0.1};
Point(p13 + 17) = {30.82119910668378, 2.120974807812883, 0.1};
Point(p13 + 18) = {30.7843977692711, 2.032128519917715, 0.1};
Point(p13 + 19) = {30.76194813890797, 1.93861907972758, 0.1};
Point(p13 + 20) = {30.754403, 1.842749, 0.1};
Point(p13 + 21) = {30.76194813890797, 1.74687892027242, 0.1};
Point(p13 + 22) = {30.7843977692711, 1.653369480082285, 0.1};
Point(p13 + 23) = {30.82119910668378, 1.564523192187118, 0.1};
Point(p13 + 24) = {30.87144598008229, 1.482527747058819, 0.1};
Point(p13 + 25) = {30.93390114468373, 1.40940214468373, 0.1};
Point(p13 + 26) = {31.00702674705882, 1.346946980082286, 0.1};
Point(p13 + 27) = {31.08902219218712, 1.29670010668378, 0.1};
Point(p13 + 28) = {31.17786848008229, 1.259898769271097, 0.1};
Point(p13 + 29) = {31.27137792027242, 1.237449138907973, 0.1};
Point(p13 + 30) = {31.367248, 1.229904, 0.1};
Point(p13 + 31) = {31.46311807972758, 1.237449138907973, 0.1};
Point(p13 + 32) = {31.55662751991771, 1.259898769271097, 0.1};
Point(p13 + 33) = {31.64547380781288, 1.29670010668378, 0.1};
Point(p13 + 34) = {31.72746925294118, 1.346946980082285, 0.1};
Point(p13 + 35) = {31.80059485531627, 1.40940214468373, 0.1};
Point(p13 + 36) = {31.86305001991771, 1.482527747058819, 0.1};
Point(p13 + 37) = {31.91329689331622, 1.564523192187117, 0.1};
Point(p13 + 38) = {31.9500982307289, 1.653369480082285, 0.1};
Point(p13 + 39) = {31.97254786109203, 1.74687892027242, 0.1};
Spline(13) = {9, p13 + 1, p13 + 2, p13 + 3, p13 + 4, p13 + 5, p13 + 6, p13 + 7, p13 + 8, p13 + 9, p13 + 10, p13 + 11, p13 + 12, p13 + 13, p13 + 14, p13 + 15, p13 + 16, p13 + 17, p13 + 18, p13 + 19, p13 + 20, p13 + 21, p13 + 22, p13 + 23, p13 + 24, p13 + 25, p13 + 26, p13 + 27, p13 + 28, p13 + 29, p13 + 30, p13 + 31, p13 + 32, p13 + 33, p13 + 34, p13 + 35, p13 + 36, p13 + 37, p13 + 38, p13 + 39, 9};
Line(14) = {10, 9};
p15 = newp;
Point(p15 + 1) = {31.97254786109203, 1.93861907972758, 0};
Point(p15 + 2) = {31.9500982307289, 2.032128519917714, 0};
Point(p15 + 3) = {31.91329689331622, 2.120974807812883, 0};
Point(p15 + 4) = {31.86305001991771, 2.202970252941181, 0};
Point(p15 + 5) = {31.80059485531627, 2.27609585531627, 0};
Point(p15 + 6) = {31.72746925294118, 2.338551019917714, 0};
Point(p15 + 7) = {31.64547380781288, 2.38879789331622, 0};
Point(p15 + 8) = {31.55662751991771, 2.425599230728903, 0};
Point(p15 + 9) = {31.46311807972758, 2.448048861092027, 0};
Point(p15 + 10) = {31.367248, 2.455594, 0};
Point(p15 + 11) = {31.27137792027242, 2.448048861092027, 0};
Point(p15 + 12) = {31.17786848008229, 2.425599230728904, 0};
Point(p15 + 13) = {31.08902219218712, 2.38879789331622, 0};
Point(p15 + 14) = {31.00702674705882, 2.338551019917714, 0};
Point(p15 + 15) = {30.93390114468373, 2.27609585531627, 0};
Point(p15 + 16) = {30.87144598008229, 2.202970252941181, 0};
Point(p15 + 17) = {30.82119910668378, 2.120974807812883, 0};
Point(p15 + 18) = {30.7843977692711, 2.032128519917715, 0};
Point(p15 + 19) = {30.76194813890797, 1.93861907972758, 0};
Point(p15 + 20) = {30.754403, 1.842749, 0};
Point(p15 + 21) = {30.76194813890797, 1.74687892027242, 0};
Point(p15 + 22) = {30.7843977692711, 1.653369480082285, 0};
Point(p15 + 23) = {30.82119910668378, 1.564523192187118, 0};
Point(p15 + 24) = {30.87144598008229, 1.482527747058819, 0};
Point(p15 + 25) = {30.93390114468373, 1.40940214468373, 0};
Point(p15 + 26) = {31.00702674705882, 1.346946980082286, 0};
Point(p15 + 27) = {31.08902219218712, 1.29670010668378, 0};
Point(p15 + 28) = {31.17786848008229, 1.259898769271097, 0};
Point(p15 + 29) = {31.27137792027242, 1.237449138907973, 0};
Point(p15 + 30) = {31.367248, 1.229904, 0};
Point(p15 + 31) = {31.46311807972758, 1.237449138907973, 0};
Point(p15 + 32) = {31.55662751991771, 1.259898769271097, 0};
Point(p15 + 33) = {31.64547380781288, 1.29670010668378, 0};
Point(p15 + 34) = {31.72746925294118, 1.346946980082285, 0};
Point(p15 + 35) = {31.80059485531627, 1.40940214468373, 0};
Point(p15 + 36) = {31.86305001991771, 1.482527747058819, 0};
Point(p15 + 37) = {31.91329689331622, 1.564523192187117, 0};
Point(p15 + 38) = {31.9500982307289, 1.653369480082285, 0};
Point(p15 + 39) = {31.97254786109203, 1.74687892027242, 0};
Spline(15) = {10, p15 + 1, p15 + 2, p15 + 3, p15 + 4, p15 + 5, p15 + 6, p15 + 7, p15 + 8, p15 + 9, p15 + 10, p15 + 11, p15 + 12, p15 + 13, p15 + 14, p15 + 15, p15 + 16, p15 + 17, p15 + 18, p15 + 19, p15 + 20, p15 + 21, p15 + 22, p15 + 23, p15 + 24, p15 + 25, p15 + 26, p15 + 27, p15 + 28, p15 + 29, p15 + 30, p15 + 31, p15 + 32, p15 + 33, p15 + 34, p15 + 35, p15 + 36, p15 + 37, p15 + 38, p15 + 39, 10};
p16 = newp;
Point(p16 + 1) = {28.33689878667549, -0.4632946762324205, 0.1};
Point(p16 + 2) = {28.29052095562503, -0.2701171072206147, 0.1};
Point(p16 + 3) = {28.21449448296826, -0.08657296583324758, 0.1};
Point(p16 + 4) = {28.11069139277938, 0.08281828202064256, 0.1};
Point(p16 + 5) = {27.98166766164157, 0.2338856616415721, 0.1};
Point(p16 + 6) = {27.83060028202064, 0.3629093927793854, 0.1};
Point(p16 + 7) = {27.66120903416675, 0.4667124829682556, 0.1};
Point(p16 + 8) = {27.47766489277938, 0.5427389556250282, 0.1};
Point(p16 + 9) = {27.28448732376758, 0.5891167866754961, 0.1};
Point(p16 + 10) = {27.086433, 0.6047040000000001, 0.1};
Point(p16 + 11) = {26.88837867623242, 0.5891167866754961, 0.1};
Point(p16 + 12) = {26.69520110722062, 0.5427389556250284, 0.1};
Point(p16 + 13) = {26.51165696583325, 0.4667124829682558, 0.1};
Point(p16 + 14) = {26.34226571797936, 0.3629093927793854, 0.1};
Point(p16 + 15) = {26.19119833835843, 0.2338856616415722, 0.1};
Point(p16 + 16) = {26.06217460722062, 0.08281828202064268, 0.1};
Point(p16 + 17) = {25.95837151703174, -0.08657296583324736, 0.1};
Point(p16 + 18) = {25.88234504437497, -0.2701171072206145, 0.1};
Point(p16 + 19) = {25.8359672133245, -0.4632946762324204, 0.1};
Point(p16 + 20) = {25.82038, -0.6613489999999999, 0.1};
Point(p16 + 21) = {25.8359672133245, -0.8594033237675792, 0.1};
Point(p16 + 22) = {25.88234504437497, -1.052580892779386, 0.1};
Point(p16 + 23) = {25.95837151703174, -1.236125034166752, 0.1};
Point(p16 + 24) = {26.06217460722062, -1.405516282020642, 0.1};
Point(p16 + 25) = {26.19119833835843, -1.556583661641572, 0.1};
Point(p16 + 26) = {26.34226571797936, -1.685607392779385, 0.1};
Point(p16 + 27) = {26.51165696583325, -1.789410482968256, 0.1};
Point(p16 + 28) = {26.69520110722062, -1.865436955625028, 0.1};
Point(p16 + 29) = {26.88837867623242, -1.911814786675496, 0.1};
Point(p16 + 30) = {27.086433, -1.927402, 0.1};
Point(p16 + 31) = {27.28448732376758, -1.911814786675496, 0.1};
Point(p16 + 32) = {27.47766489277938, -1.865436955625028, 0.1};
Point(p16 + 33) = {27.66120903416675, -1.789410482968256, 0.1};
Point(p16 + 34) = {27.83060028202064, -1.685607392779386, 0.1};
Point(p16 + 35) = {27.98166766164157, -1.556583661641572, 0.1};
Point(p16 + 36) = {28.11069139277938, -1.405516282020643, 0.1};
Point(p16 + 37) = {28.21449448296826, -1.236125034166753, 0.1};
Point(p16 + 38) = {28.29052095562503, -1.052580892779386, 0.1};
Point(p16 + 39) = {28.33689878667549, -0.8594033237675798, 0.1};
Spline(16) = {11, p16 + 1, p16 + 2, p16 + 3, p16 + 4, p16 + 5, p16 + 6, p16 + 7, p16 + 8, p16 + 9, p16 + 10, p16 + 11, p16 + 12, p16 + 13, p16 + 14, p16 + 15, p16 + 16, p16 + 17, p16 + 18, p16 + 19, p16 + 20, p16 + 21, p16 + 22, p16 + 23, p16 + 24, p16 + 25, p16 + 26, p16 + 27, p16 + 28, p16 + 29, p16 + 30, p16 + 31, p16 + 32, p16 + 33, p16 + 34, p16 + 35, p16 + 36, p16 + 37, p16 + 38, p16 + 39, 11};
Line(17) = {12, 11};
p18 = newp;
Point(p18 + 1) = {28.33689878667549, -0.4632946762324205, 0};
Point(p18 + 2) = {28.29052095562503, -0.2701171072206147, 0};
Point(p18 + 3) = {28.21449448296826, -0.08657296583324758, 0};
Point(p18 + 4) = {28.11069139277938, 0.08281828202064256, 0};
Point(p18 + 5) = {27.98166766164157, 0.2338856616415721, 0};
Point(p18 + 6) = {27.83060028202064, 0.3629093927793854, 0};
Point(p18 + 7) = {27.66120903416675, 0.4667124829682556, 0};
Point(p18 + 8) = {27.47766489277938, 0.5427389556250282, 0};
Point(p18 + 9) = {27.28448732376758, 0.5891167866754961, 0};
Point(p18 + 10) = {27.086433, 0.6047040000000001, 0};
Point(p18 + 11) = {26.88837867623242, 0.5891167866754961, 0};
Point(p18 + 12) = {26.69520110722062, 0.5427389556250284, 0};
Point(p18 + 13) = {26.51165696583325, 0.4667124829682558, 0};
Point(p18 + 14) = {26.34226571797936, 0.3629093927793854, 0};
Point(p18 + 15) = {26.19119833835843, 0.2338856616415722, 0};
Point(p18 + 16) = {26.06217460722062, 0.08281828202064268, 0};
Point(p18 + 17) = {25.95837151703174, -0.08657296583324736, 0};
Point(p18 + 18) = {25.88234504437497, -0.2701171072206145, 0};
Point(p18 + 19) = {25.8359672133245, -0.4632946762324204, 0};
Point(p18 + 20) = {25.82038, -0.6613489999999999, 0};
Point(p18 + 21) = {25.8359672133245, -0.8594033237675792, 0};
Point(p18 + 22) = {25.88234504437497, -1.052580892779386, 0};
Point(p18 + 23) = {25.95837151703174, -1.236125034166752, 0};
Point(p18 + 24) = {26.06217460722062, -1.405516282020642, 0};
Point(p18 + 25) = {26.19119833835843, -1.556583661641572, 0};
Point(p18 + 26) = {26.34226571797936, -1.685607392779385, 0};
Point(p18 + 27) = {26.51165696583325, -1.789410482968256, 0};
Point(p18 + 28) = {26.69520110722062, -1.865436955625028, 0};
Point(p18 + 29) = {26.88837867623242, -1.911814786675496, 0};
Point(p18 + 30) = {27.086433, -1.927402, 0};
Point(p18 + 31) = {27.28448732376758, -1.911814786675496, 0};
Point(p18 + 32) = {27.47766489277938, -1.865436955625028, 0};
Point(p18 + 33) = {27.66120903416675, -1.789410482968256, 0};
Point(p18 + 34) = {27.83060028202064, -1.685607392779386, 0};
Point(p18 + 35) = {27.98166766164157, -1.556583661641572, 0};
Point(p18 + 36) = {28.11069139277938, -1.405516282020643, 0};
Point(p18 + 37) = {28.21449448296826, -1.236125034166753, 0};
Point(p18 + 38) = {28.29052095562503, -1.052580892779386, 0};
Point(p18 + 39) = {28.33689878667549, -0.8594033237675798, 0};
Spline(18) = {12, p18 + 1, p18 + 2, p18 + 3, p18 + 4, p18 + 5, p18 + 6, p18 + 7, p18 + 8, p18 + 9, p18 + 10, p18 + 11, p18 + 12, p18 + 13, p18 + 14, p18 + 15, p18 + 16, p18 + 17, p18 + 18, p18 + 19, p18 + 20, p18 + 21, p18 + 22, p18 + 23, p18 + 24, p18 + 25, p18 + 26, p18 + 27, p18 + 28, p18 + 29, p18 + 30, p18 + 31, p18 + 32, p18 + 33, p18 + 34, p18 + 35, p18 + 36, p18 + 37, p18 + 38, p18 + 39, 12};
Line(19) = {14, 13};
Line(20) = {13, 15};
Line(21) = {16, 15};
Line(22) = {14, 16};
Line(23) = {14, 17};
Line(24) = {17, 18};
Line(25) = {13, 18};
Line(26) = {15, 19};
Line(27) = {18, 19};
Line(28) = {16, 20};
Line(29) = {20, 19};
Line(30) = {17, 20};
Curve Loop(7) = {-13, -14, 15, 14};
Surface(7) = {7};
Curve Loop(8) = {13};
Plane Surface(8) = {8};
Curve Loop(9) = {15};
Plane Surface(9) = {9};
Curve Loop(10) = {-16, -17, 18, 17};
Surface(10) = {10};
Curve Loop(11) = {16};
Plane Surface(11) = {11};
Curve Loop(12) = {18};
Plane Surface(12) = {12};
Curve Loop(13) = {-19, 22, 21, -20};
Plane Surface(13) = {13};
Curve Loop(14) = {-23, 19, 25, -24};
Plane Surface(14) = {14};
Curve Loop(15) = {-20, 25, 27, -26, -16, -13};
Plane Surface(15) = {15};
Curve Loop(16) = {-28, 21, 26, -29};
Plane Surface(16) = {16};
Curve Loop(17) = {-22, 23, 30, -28, -18, -15};
Plane Surface(17) = {17};
Curve Loop(18) = {-24, 30, 29, -27};
Plane Surface(18) = {18};
Surface Loop(1) = {13, 14, 15, 16, 17, 18, 10, 7};
Volume(1) = {1};
Surface Loop(2) = {7, 8, 9};
Volume(2) = {2};
Surface Loop(3) = {10, 11, 12};
Volume(3) = {3};
Physical Surface("WALLS") = {13, 18};
Physical Surface("LOAD") = {8, 11};
Physical Surface("BORDER") = {7, 9, 10, 12, 14, 15, 16, 17};
Physical Volume("SOLID") = {1, 2, 3};
