cl__1 = 0.085429;
cl__2 = 0.114331;
cl__3 = 5.068732;
cl__4 = 4.831515;
cl__5 = 0.19709;
cl__6 = 0.394585;
Point(9) = {31.079825, -1.250813, 0.1, cl__1};
Point(10) = {31.079825, -1.250813, 0, cl__1};
Point(11) = {26.725141, 1.752585, 0.1, cl__2};
Point(12) = {26.725141, 1.752585, 0, cl__2};
Point(13) = {0.662227, -3.441001, 0.1, cl__3};
Point(14) = {0.662227, -3.441001, 0, cl__3};
Point(15) = {0.662227, 4.491955, 0.1, cl__4};
Point(16) = {0.662227, 4.491955, 0, cl__4};
Point(17) = {33.137526, -3.441001, 0, cl__5};
Point(18) = {33.137526, -3.441001, 0.1, cl__5};
Point(19) = {33.137526, 4.491955, 0.1, cl__6};
Point(20) = {33.137526, 4.491955, 0, cl__6};
p13 = newp;
Point(p13 + 1) = {31.069307309422, -1.117173070164176, 0.1};
Point(p13 + 2) = {31.03801321813624, -0.9868237989264093, 0.1};
Point(p13 + 3) = {30.98671329052931, -0.8629748179490018, 0.1};
Point(p13 + 4) = {30.91667070107359, -0.74867570017482, 0.1};
Point(p13 + 5) = {30.82961013077951, -0.6467408692204879, 0.1};
Point(p13 + 6) = {30.72767529982518, -0.5596802989264092, 0.1};
Point(p13 + 7) = {30.613376182051, -0.4896377094706917, 0.1};
Point(p13 + 8) = {30.48952720107359, -0.4383377818637622, 0.1};
Point(p13 + 9) = {30.35917792983582, -0.4070436905780015, 0.1};
Point(p13 + 10) = {30.225538, -0.3965259999999999, 0.1};
Point(p13 + 11) = {30.09189807016418, -0.4070436905780016, 0.1};
Point(p13 + 12) = {29.96154879892641, -0.438337781863762, 0.1};
Point(p13 + 13) = {29.837699817949, -0.4896377094706917, 0.1};
Point(p13 + 14) = {29.72340070017482, -0.5596802989264092, 0.1};
Point(p13 + 15) = {29.62146586922049, -0.6467408692204878, 0.1};
Point(p13 + 16) = {29.53440529892641, -0.7486757001748199, 0.1};
Point(p13 + 17) = {29.46436270947069, -0.8629748179490017, 0.1};
Point(p13 + 18) = {29.41306278186376, -0.9868237989264091, 0.1};
Point(p13 + 19) = {29.381768690578, -1.117173070164176, 0.1};
Point(p13 + 20) = {29.371251, -1.250813, 0.1};
Point(p13 + 21) = {29.381768690578, -1.384452929835823, 0.1};
Point(p13 + 22) = {29.41306278186376, -1.514802201073591, 0.1};
Point(p13 + 23) = {29.46436270947069, -1.638651182050998, 0.1};
Point(p13 + 24) = {29.53440529892641, -1.75295029982518, 0.1};
Point(p13 + 25) = {29.62146586922049, -1.854885130779512, 0.1};
Point(p13 + 26) = {29.72340070017482, -1.941945701073591, 0.1};
Point(p13 + 27) = {29.837699817949, -2.011988290529308, 0.1};
Point(p13 + 28) = {29.96154879892641, -2.063288218136238, 0.1};
Point(p13 + 29) = {30.09189807016418, -2.094582309421998, 0.1};
Point(p13 + 30) = {30.225538, -2.1051, 0.1};
Point(p13 + 31) = {30.35917792983582, -2.094582309421998, 0.1};
Point(p13 + 32) = {30.48952720107359, -2.063288218136238, 0.1};
Point(p13 + 33) = {30.613376182051, -2.011988290529308, 0.1};
Point(p13 + 34) = {30.72767529982518, -1.941945701073591, 0.1};
Point(p13 + 35) = {30.82961013077951, -1.854885130779512, 0.1};
Point(p13 + 36) = {30.91667070107359, -1.75295029982518, 0.1};
Point(p13 + 37) = {30.98671329052931, -1.638651182050998, 0.1};
Point(p13 + 38) = {31.03801321813624, -1.514802201073591, 0.1};
Point(p13 + 39) = {31.069307309422, -1.384452929835824, 0.1};
Spline(13) = {9, p13 + 1, p13 + 2, p13 + 3, p13 + 4, p13 + 5, p13 + 6, p13 + 7, p13 + 8, p13 + 9, p13 + 10, p13 + 11, p13 + 12, p13 + 13, p13 + 14, p13 + 15, p13 + 16, p13 + 17, p13 + 18, p13 + 19, p13 + 20, p13 + 21, p13 + 22, p13 + 23, p13 + 24, p13 + 25, p13 + 26, p13 + 27, p13 + 28, p13 + 29, p13 + 30, p13 + 31, p13 + 32, p13 + 33, p13 + 34, p13 + 35, p13 + 36, p13 + 37, p13 + 38, p13 + 39, 9};
Line(14) = {10, 9};
p15 = newp;
Point(p15 + 1) = {31.069307309422, -1.117173070164176, 0};
Point(p15 + 2) = {31.03801321813624, -0.9868237989264093, 0};
Point(p15 + 3) = {30.98671329052931, -0.8629748179490018, 0};
Point(p15 + 4) = {30.91667070107359, -0.74867570017482, 0};
Point(p15 + 5) = {30.82961013077951, -0.6467408692204879, 0};
Point(p15 + 6) = {30.72767529982518, -0.5596802989264092, 0};
Point(p15 + 7) = {30.613376182051, -0.4896377094706917, 0};
Point(p15 + 8) = {30.48952720107359, -0.4383377818637622, 0};
Point(p15 + 9) = {30.35917792983582, -0.4070436905780015, 0};
Point(p15 + 10) = {30.225538, -0.3965259999999999, 0};
Point(p15 + 11) = {30.09189807016418, -0.4070436905780016, 0};
Point(p15 + 12) = {29.96154879892641, -0.438337781863762, 0};
Point(p15 + 13) = {29.837699817949, -0.4896377094706917, 0};
Point(p15 + 14) = {29.72340070017482, -0.5596802989264092, 0};
Point(p15 + 15) = {29.62146586922049, -0.6467408692204878, 0};
Point(p15 + 16) = {29.53440529892641, -0.7486757001748199, 0};
Point(p15 + 17) = {29.46436270947069, -0.8629748179490017, 0};
Point(p15 + 18) = {29.41306278186376, -0.9868237989264091, 0};
Point(p15 + 19) = {29.381768690578, -1.117173070164176, 0};
Point(p15 + 20) = {29.371251, -1.250813, 0};
Point(p15 + 21) = {29.381768690578, -1.384452929835823, 0};
Point(p15 + 22) = {29.41306278186376, -1.514802201073591, 0};
Point(p15 + 23) = {29.46436270947069, -1.638651182050998, 0};
Point(p15 + 24) = {29.53440529892641, -1.75295029982518, 0};
Point(p15 + 25) = {29.62146586922049, -1.854885130779512, 0};
Point(p15 + 26) = {29.72340070017482, -1.941945701073591, 0};
Point(p15 + 27) = {29.837699817949, -2.011988290529308, 0};
Point(p15 + 28) = {29.96154879892641, -2.063288218136238, 0};
Point(p15 + 29) = {30.09189807016418, -2.094582309421998, 0};
Point(p15 + 30) = {30.225538, -2.1051, 0};
Point(p15 + 31) = {30.35917792983582, -2.094582309421998, 0};
Point(p15 + 32) = {30.48952720107359, -2.063288218136238, 0};
Point(p15 + 33) = {30.613376182051, -2.011988290529308, 0};
Point(p15 + 34) = {30.72767529982518, -1.941945701073591, 0};
Point(p15 + 35) = {30.82961013077951, -1.854885130779512, 0};
Point(p15 + 36) = {30.91667070107359, -1.75295029982518, 0};
Point(p15 + 37) = {30.98671329052931, -1.638651182050998, 0};
Point(p15 + 38) = {31.03801321813624, -1.514802201073591, 0};
Point(p15 + 39) = {31.069307309422, -1.384452929835824, 0};
Spline(15) = {10, p15 + 1, p15 + 2, p15 + 3, p15 + 4, p15 + 5, p15 + 6, p15 + 7, p15 + 8, p15 + 9, p15 + 10, p15 + 11, p15 + 12, p15 + 13, p15 + 14, p15 + 15, p15 + 16, p15 + 17, p15 + 18, p15 + 19, p15 + 20, p15 + 21, p15 + 22, p15 + 23, p15 + 24, p15 + 25, p15 + 26, p15 + 27, p15 + 28, p15 + 29, p15 + 30, p15 + 31, p15 + 32, p15 + 33, p15 + 34, p15 + 35, p15 + 36, p15 + 37, p15 + 38, p15 + 39, 10};
p16 = newp;
Point(p16 + 1) = {26.71106496899748, 1.931437931790681, 0.1};
Point(p16 + 2) = {26.66918347458889, 2.105886910821827, 0.1};
Point(p16 + 3) = {26.60052777816328, 2.271636424266721, 0.1};
Point(p16 + 4) = {26.50678841082183, 2.424605169013255, 0.1};
Point(p16 + 5) = {26.39027354689161, 2.56102654689161, 0.1};
Point(p16 + 6) = {26.25385216901325, 2.677541410821827, 0.1};
Point(p16 + 7) = {26.10088342426672, 2.771280778163279, 0.1};
Point(p16 + 8) = {25.93513391082183, 2.839936474588896, 0.1};
Point(p16 + 9) = {25.76068493179068, 2.881817968997487, 0.1};
Point(p16 + 10) = {25.581832, 2.895894, 0.1};
Point(p16 + 11) = {25.40297906820932, 2.881817968997486, 0.1};
Point(p16 + 12) = {25.22853008917817, 2.839936474588896, 0.1};
Point(p16 + 13) = {25.06278057573328, 2.771280778163279, 0.1};
Point(p16 + 14) = {24.90981183098674, 2.677541410821827, 0.1};
Point(p16 + 15) = {24.77339045310839, 2.56102654689161, 0.1};
Point(p16 + 16) = {24.65687558917817, 2.424605169013256, 0.1};
Point(p16 + 17) = {24.56313622183672, 2.271636424266722, 0.1};
Point(p16 + 18) = {24.4944805254111, 2.105886910821827, 0.1};
Point(p16 + 19) = {24.45259903100251, 1.931437931790682, 0.1};
Point(p16 + 20) = {24.438523, 1.752585, 0.1};
Point(p16 + 21) = {24.45259903100251, 1.573732068209319, 0.1};
Point(p16 + 22) = {24.4944805254111, 1.399283089178173, 0.1};
Point(p16 + 23) = {24.56313622183672, 1.233533575733279, 0.1};
Point(p16 + 24) = {24.65687558917817, 1.080564830986745, 0.1};
Point(p16 + 25) = {24.77339045310839, 0.9441434531083898, 0.1};
Point(p16 + 26) = {24.90981183098674, 0.8276285891781735, 0.1};
Point(p16 + 27) = {25.06278057573328, 0.7338892218367215, 0.1};
Point(p16 + 28) = {25.22853008917817, 0.6652335254111044, 0.1};
Point(p16 + 29) = {25.40297906820932, 0.623352031002514, 0.1};
Point(p16 + 30) = {25.581832, 0.6092760000000002, 0.1};
Point(p16 + 31) = {25.76068493179068, 0.6233520310025138, 0.1};
Point(p16 + 32) = {25.93513391082183, 0.6652335254111044, 0.1};
Point(p16 + 33) = {26.10088342426672, 0.7338892218367212, 0.1};
Point(p16 + 34) = {26.25385216901325, 0.8276285891781732, 0.1};
Point(p16 + 35) = {26.39027354689161, 0.9441434531083894, 0.1};
Point(p16 + 36) = {26.50678841082183, 1.080564830986745, 0.1};
Point(p16 + 37) = {26.60052777816328, 1.233533575733278, 0.1};
Point(p16 + 38) = {26.66918347458889, 1.399283089178173, 0.1};
Point(p16 + 39) = {26.71106496899748, 1.573732068209319, 0.1};
Spline(16) = {11, p16 + 1, p16 + 2, p16 + 3, p16 + 4, p16 + 5, p16 + 6, p16 + 7, p16 + 8, p16 + 9, p16 + 10, p16 + 11, p16 + 12, p16 + 13, p16 + 14, p16 + 15, p16 + 16, p16 + 17, p16 + 18, p16 + 19, p16 + 20, p16 + 21, p16 + 22, p16 + 23, p16 + 24, p16 + 25, p16 + 26, p16 + 27, p16 + 28, p16 + 29, p16 + 30, p16 + 31, p16 + 32, p16 + 33, p16 + 34, p16 + 35, p16 + 36, p16 + 37, p16 + 38, p16 + 39, 11};
Line(17) = {12, 11};
p18 = newp;
Point(p18 + 1) = {26.71106496899748, 1.931437931790681, 0};
Point(p18 + 2) = {26.66918347458889, 2.105886910821827, 0};
Point(p18 + 3) = {26.60052777816328, 2.271636424266721, 0};
Point(p18 + 4) = {26.50678841082183, 2.424605169013255, 0};
Point(p18 + 5) = {26.39027354689161, 2.56102654689161, 0};
Point(p18 + 6) = {26.25385216901325, 2.677541410821827, 0};
Point(p18 + 7) = {26.10088342426672, 2.771280778163279, 0};
Point(p18 + 8) = {25.93513391082183, 2.839936474588896, 0};
Point(p18 + 9) = {25.76068493179068, 2.881817968997487, 0};
Point(p18 + 10) = {25.581832, 2.895894, 0};
Point(p18 + 11) = {25.40297906820932, 2.881817968997486, 0};
Point(p18 + 12) = {25.22853008917817, 2.839936474588896, 0};
Point(p18 + 13) = {25.06278057573328, 2.771280778163279, 0};
Point(p18 + 14) = {24.90981183098674, 2.677541410821827, 0};
Point(p18 + 15) = {24.77339045310839, 2.56102654689161, 0};
Point(p18 + 16) = {24.65687558917817, 2.424605169013256, 0};
Point(p18 + 17) = {24.56313622183672, 2.271636424266722, 0};
Point(p18 + 18) = {24.4944805254111, 2.105886910821827, 0};
Point(p18 + 19) = {24.45259903100251, 1.931437931790682, 0};
Point(p18 + 20) = {24.438523, 1.752585, 0};
Point(p18 + 21) = {24.45259903100251, 1.573732068209319, 0};
Point(p18 + 22) = {24.4944805254111, 1.399283089178173, 0};
Point(p18 + 23) = {24.56313622183672, 1.233533575733279, 0};
Point(p18 + 24) = {24.65687558917817, 1.080564830986745, 0};
Point(p18 + 25) = {24.77339045310839, 0.9441434531083898, 0};
Point(p18 + 26) = {24.90981183098674, 0.8276285891781735, 0};
Point(p18 + 27) = {25.06278057573328, 0.7338892218367215, 0};
Point(p18 + 28) = {25.22853008917817, 0.6652335254111044, 0};
Point(p18 + 29) = {25.40297906820932, 0.623352031002514, 0};
Point(p18 + 30) = {25.581832, 0.6092760000000002, 0};
Point(p18 + 31) = {25.76068493179068, 0.6233520310025138, 0};
Point(p18 + 32) = {25.93513391082183, 0.6652335254111044, 0};
Point(p18 + 33) = {26.10088342426672, 0.7338892218367212, 0};
Point(p18 + 34) = {26.25385216901325, 0.8276285891781732, 0};
Point(p18 + 35) = {26.39027354689161, 0.9441434531083894, 0};
Point(p18 + 36) = {26.50678841082183, 1.080564830986745, 0};
Point(p18 + 37) = {26.60052777816328, 1.233533575733278, 0};
Point(p18 + 38) = {26.66918347458889, 1.399283089178173, 0};
Point(p18 + 39) = {26.71106496899748, 1.573732068209319, 0};
Spline(18) = {12, p18 + 1, p18 + 2, p18 + 3, p18 + 4, p18 + 5, p18 + 6, p18 + 7, p18 + 8, p18 + 9, p18 + 10, p18 + 11, p18 + 12, p18 + 13, p18 + 14, p18 + 15, p18 + 16, p18 + 17, p18 + 18, p18 + 19, p18 + 20, p18 + 21, p18 + 22, p18 + 23, p18 + 24, p18 + 25, p18 + 26, p18 + 27, p18 + 28, p18 + 29, p18 + 30, p18 + 31, p18 + 32, p18 + 33, p18 + 34, p18 + 35, p18 + 36, p18 + 37, p18 + 38, p18 + 39, 12};
Line(19) = {14, 13};
Line(20) = {13, 15};
Line(21) = {16, 15};
Line(22) = {14, 16};
Line(23) = {14, 17};
Line(24) = {17, 18};
Line(25) = {13, 18};
Line(26) = {15, 19};
Line(27) = {18, 19};
Line(28) = {16, 20};
Line(29) = {20, 19};
Line(30) = {17, 20};
Curve Loop(7) = {-13, -14, 15, 14};
Surface(7) = {7};
Curve Loop(8) = {13};
Plane Surface(8) = {8};
Curve Loop(9) = {15};
Plane Surface(9) = {9};
Curve Loop(10) = {-16, -17, 18, 17};
Surface(10) = {10};
Curve Loop(11) = {16};
Plane Surface(11) = {11};
Curve Loop(12) = {18};
Plane Surface(12) = {12};
Curve Loop(13) = {-19, 22, 21, -20};
Plane Surface(13) = {13};
Curve Loop(14) = {-23, 19, 25, -24};
Plane Surface(14) = {14};
Curve Loop(15) = {-20, 25, 27, -26, -13, -16};
Plane Surface(15) = {15};
Curve Loop(16) = {-28, 21, 26, -29};
Plane Surface(16) = {16};
Curve Loop(17) = {-22, 23, 30, -28, -15, -18};
Plane Surface(17) = {17};
Curve Loop(18) = {-24, 30, 29, -27};
Plane Surface(18) = {18};
Surface Loop(1) = {13, 14, 15, 16, 17, 18, 7, 10};
Volume(1) = {1};
Surface Loop(2) = {7, 8, 9};
Volume(2) = {2};
Surface Loop(3) = {10, 11, 12};
Volume(3) = {3};
Physical Surface("WALLS") = {13, 18};
Physical Surface("LOAD") = {8, 11};
Physical Surface("BORDER") = {7, 9, 10, 12, 14, 15, 16, 17};
Physical Volume("SOLID") = {1, 2, 3};
