cl__1 = 0.125816;
cl__2 = 0.09254999999999999;
cl__3 = 2.028047;
cl__4 = 1.996432;
cl__5 = 0.735237;
cl__6 = 0.739808;
Point(9) = {29.687163, -0.0881110000000003, 0.1, cl__1};
Point(10) = {29.687163, -0.0881110000000003, 0, cl__1};
Point(11) = {19.610124, 0.2385329999999998, 0.1, cl__2};
Point(12) = {19.610124, 0.2385329999999998, 0, cl__2};
Point(13) = {0.276269, -3.846865, 0.1, cl__3};
Point(14) = {0.276269, -3.846865, 0, cl__3};
Point(15) = {0.276269, 3.867166999999999, 0.1, cl__4};
Point(16) = {0.276269, 3.867166999999999, 0, cl__4};
Point(17) = {39.480626, -3.846865, 0, cl__5};
Point(18) = {39.480626, -3.846865, 0.1, cl__5};
Point(19) = {39.480626, 3.867166999999999, 0.1, cl__6};
Point(20) = {39.480626, 3.867166999999999, 0, cl__6};
p13 = newp;
Point(p13 + 1) = {29.67167290104488, 0.1087093687073421, 0.1};
Point(p13 + 2) = {29.62558402182449, 0.3006833667277557, 0.1};
Point(p13 + 3) = {29.55003122350546, 0.4830839571048068, 0.1};
Point(p13 + 4) = {29.44687486672776, 0.6514198319505595, 0.1};
Point(p13 + 5) = {29.31865500335157, 0.8015460033515724, 0.1};
Point(p13 + 6) = {29.16852883195056, 0.9297658667277555, 0.1};
Point(p13 + 7) = {29.00019295710481, 1.032922223505458, 0.1};
Point(p13 + 8) = {28.81779236672775, 1.108475021824492, 0.1};
Point(p13 + 9) = {28.62581836870734, 1.154563901044881, 0.1};
Point(p13 + 10) = {28.428998, 1.170054, 0.1};
Point(p13 + 11) = {28.23217763129266, 1.154563901044881, 0.1};
Point(p13 + 12) = {28.04020363327225, 1.108475021824492, 0.1};
Point(p13 + 13) = {27.85780304289519, 1.032922223505458, 0.1};
Point(p13 + 14) = {27.68946716804944, 0.9297658667277557, 0.1};
Point(p13 + 15) = {27.53934099664843, 0.8015460033515727, 0.1};
Point(p13 + 16) = {27.41112113327225, 0.6514198319505595, 0.1};
Point(p13 + 17) = {27.30796477649454, 0.4830839571048069, 0.1};
Point(p13 + 18) = {27.23241197817551, 0.3006833667277558, 0.1};
Point(p13 + 19) = {27.18632309895512, 0.1087093687073422, 0.1};
Point(p13 + 20) = {27.170833, -0.08811099999999984, 0.1};
Point(p13 + 21) = {27.18632309895512, -0.2849313687073419, 0.1};
Point(p13 + 22) = {27.23241197817551, -0.4769053667277561, 0.1};
Point(p13 + 23) = {27.30796477649454, -0.6593059571048063, 0.1};
Point(p13 + 24) = {27.41112113327224, -0.8276418319505594, 0.1};
Point(p13 + 25) = {27.53934099664843, -0.9777680033515725, 0.1};
Point(p13 + 26) = {27.68946716804944, -1.105987866727756, 0.1};
Point(p13 + 27) = {27.85780304289519, -1.209144223505458, 0.1};
Point(p13 + 28) = {28.04020363327225, -1.284697021824492, 0.1};
Point(p13 + 29) = {28.23217763129266, -1.330785901044881, 0.1};
Point(p13 + 30) = {28.428998, -1.346276, 0.1};
Point(p13 + 31) = {28.62581836870734, -1.330785901044881, 0.1};
Point(p13 + 32) = {28.81779236672775, -1.284697021824492, 0.1};
Point(p13 + 33) = {29.00019295710481, -1.209144223505458, 0.1};
Point(p13 + 34) = {29.16852883195056, -1.105987866727756, 0.1};
Point(p13 + 35) = {29.31865500335157, -0.9777680033515728, 0.1};
Point(p13 + 36) = {29.44687486672775, -0.8276418319505596, 0.1};
Point(p13 + 37) = {29.55003122350546, -0.659305957104807, 0.1};
Point(p13 + 38) = {29.62558402182449, -0.476905366727756, 0.1};
Point(p13 + 39) = {29.67167290104488, -0.2849313687073424, 0.1};
Spline(13) = {9, p13 + 1, p13 + 2, p13 + 3, p13 + 4, p13 + 5, p13 + 6, p13 + 7, p13 + 8, p13 + 9, p13 + 10, p13 + 11, p13 + 12, p13 + 13, p13 + 14, p13 + 15, p13 + 16, p13 + 17, p13 + 18, p13 + 19, p13 + 20, p13 + 21, p13 + 22, p13 + 23, p13 + 24, p13 + 25, p13 + 26, p13 + 27, p13 + 28, p13 + 29, p13 + 30, p13 + 31, p13 + 32, p13 + 33, p13 + 34, p13 + 35, p13 + 36, p13 + 37, p13 + 38, p13 + 39, 9};
Line(14) = {10, 9};
p15 = newp;
Point(p15 + 1) = {29.67167290104488, 0.1087093687073421, 0};
Point(p15 + 2) = {29.62558402182449, 0.3006833667277557, 0};
Point(p15 + 3) = {29.55003122350546, 0.4830839571048068, 0};
Point(p15 + 4) = {29.44687486672776, 0.6514198319505595, 0};
Point(p15 + 5) = {29.31865500335157, 0.8015460033515724, 0};
Point(p15 + 6) = {29.16852883195056, 0.9297658667277555, 0};
Point(p15 + 7) = {29.00019295710481, 1.032922223505458, 0};
Point(p15 + 8) = {28.81779236672775, 1.108475021824492, 0};
Point(p15 + 9) = {28.62581836870734, 1.154563901044881, 0};
Point(p15 + 10) = {28.428998, 1.170054, 0};
Point(p15 + 11) = {28.23217763129266, 1.154563901044881, 0};
Point(p15 + 12) = {28.04020363327225, 1.108475021824492, 0};
Point(p15 + 13) = {27.85780304289519, 1.032922223505458, 0};
Point(p15 + 14) = {27.68946716804944, 0.9297658667277557, 0};
Point(p15 + 15) = {27.53934099664843, 0.8015460033515727, 0};
Point(p15 + 16) = {27.41112113327225, 0.6514198319505595, 0};
Point(p15 + 17) = {27.30796477649454, 0.4830839571048069, 0};
Point(p15 + 18) = {27.23241197817551, 0.3006833667277558, 0};
Point(p15 + 19) = {27.18632309895512, 0.1087093687073422, 0};
Point(p15 + 20) = {27.170833, -0.08811099999999984, 0};
Point(p15 + 21) = {27.18632309895512, -0.2849313687073419, 0};
Point(p15 + 22) = {27.23241197817551, -0.4769053667277561, 0};
Point(p15 + 23) = {27.30796477649454, -0.6593059571048063, 0};
Point(p15 + 24) = {27.41112113327224, -0.8276418319505594, 0};
Point(p15 + 25) = {27.53934099664843, -0.9777680033515725, 0};
Point(p15 + 26) = {27.68946716804944, -1.105987866727756, 0};
Point(p15 + 27) = {27.85780304289519, -1.209144223505458, 0};
Point(p15 + 28) = {28.04020363327225, -1.284697021824492, 0};
Point(p15 + 29) = {28.23217763129266, -1.330785901044881, 0};
Point(p15 + 30) = {28.428998, -1.346276, 0};
Point(p15 + 31) = {28.62581836870734, -1.330785901044881, 0};
Point(p15 + 32) = {28.81779236672775, -1.284697021824492, 0};
Point(p15 + 33) = {29.00019295710481, -1.209144223505458, 0};
Point(p15 + 34) = {29.16852883195056, -1.105987866727756, 0};
Point(p15 + 35) = {29.31865500335157, -0.9777680033515728, 0};
Point(p15 + 36) = {29.44687486672775, -0.8276418319505596, 0};
Point(p15 + 37) = {29.55003122350546, -0.659305957104807, 0};
Point(p15 + 38) = {29.62558402182449, -0.476905366727756, 0};
Point(p15 + 39) = {29.67167290104488, -0.2849313687073424, 0};
Spline(15) = {10, p15 + 1, p15 + 2, p15 + 3, p15 + 4, p15 + 5, p15 + 6, p15 + 7, p15 + 8, p15 + 9, p15 + 10, p15 + 11, p15 + 12, p15 + 13, p15 + 14, p15 + 15, p15 + 16, p15 + 17, p15 + 18, p15 + 19, p15 + 20, p15 + 21, p15 + 22, p15 + 23, p15 + 24, p15 + 25, p15 + 26, p15 + 27, p15 + 28, p15 + 29, p15 + 30, p15 + 31, p15 + 32, p15 + 33, p15 + 34, p15 + 35, p15 + 36, p15 + 37, p15 + 38, p15 + 39, 10};
p16 = newp;
Point(p16 + 1) = {19.59872950997416, 0.3833137231325938, 0.1};
Point(p16 + 2) = {19.56482661005723, 0.5245294643619913, 0.1};
Point(p16 + 3) = {19.50925010216243, 0.6587030234709494, 0.1};
Point(p16 + 4) = {19.43336846436199, 0.7825306021376931, 0.1};
Point(p16 + 5) = {19.33905015441527, 0.8929631544152744, 0.1};
Point(p16 + 6) = {19.22861760213769, 0.9872814643619913, 0.1};
Point(p16 + 7) = {19.10479002347095, 1.063163102162431, 0.1};
Point(p16 + 8) = {18.97061646436199, 1.11873961005723, 0.1};
Point(p16 + 9) = {18.82940072313259, 1.152642509974162, 0.1};
Point(p16 + 10) = {18.68462, 1.164037, 0.1};
Point(p16 + 11) = {18.5398392768674, 1.152642509974162, 0.1};
Point(p16 + 12) = {18.39862353563801, 1.11873961005723, 0.1};
Point(p16 + 13) = {18.26444997652905, 1.063163102162431, 0.1};
Point(p16 + 14) = {18.14062239786231, 0.9872814643619914, 0.1};
Point(p16 + 15) = {18.03018984558473, 0.8929631544152745, 0.1};
Point(p16 + 16) = {17.93587153563801, 0.7825306021376931, 0.1};
Point(p16 + 17) = {17.85998989783757, 0.6587030234709496, 0.1};
Point(p16 + 18) = {17.80441338994277, 0.5245294643619914, 0.1};
Point(p16 + 19) = {17.77051049002583, 0.3833137231325939, 0.1};
Point(p16 + 20) = {17.759116, 0.2385330000000001, 0.1};
Point(p16 + 21) = {17.77051049002583, 0.09375227686740628, 0.1};
Point(p16 + 22) = {17.80441338994277, -0.04746346436199161, 0.1};
Point(p16 + 23) = {17.85998989783757, -0.1816370234709491, 0.1};
Point(p16 + 24) = {17.93587153563801, -0.305464602137693, 0.1};
Point(p16 + 25) = {18.03018984558473, -0.4158971544152744, 0.1};
Point(p16 + 26) = {18.14062239786231, -0.5102154643619913, 0.1};
Point(p16 + 27) = {18.26444997652905, -0.5860971021624312, 0.1};
Point(p16 + 28) = {18.39862353563801, -0.6416736100572298, 0.1};
Point(p16 + 29) = {18.5398392768674, -0.6755765099741623, 0.1};
Point(p16 + 30) = {18.68462, -0.686971, 0.1};
Point(p16 + 31) = {18.82940072313259, -0.6755765099741624, 0.1};
Point(p16 + 32) = {18.97061646436199, -0.6416736100572299, 0.1};
Point(p16 + 33) = {19.10479002347095, -0.5860971021624314, 0.1};
Point(p16 + 34) = {19.22861760213769, -0.5102154643619915, 0.1};
Point(p16 + 35) = {19.33905015441527, -0.4158971544152746, 0.1};
Point(p16 + 36) = {19.43336846436199, -0.3054646021376931, 0.1};
Point(p16 + 37) = {19.50925010216243, -0.1816370234709497, 0.1};
Point(p16 + 38) = {19.56482661005723, -0.0474634643619915, 0.1};
Point(p16 + 39) = {19.59872950997416, 0.09375227686740595, 0.1};
Spline(16) = {11, p16 + 1, p16 + 2, p16 + 3, p16 + 4, p16 + 5, p16 + 6, p16 + 7, p16 + 8, p16 + 9, p16 + 10, p16 + 11, p16 + 12, p16 + 13, p16 + 14, p16 + 15, p16 + 16, p16 + 17, p16 + 18, p16 + 19, p16 + 20, p16 + 21, p16 + 22, p16 + 23, p16 + 24, p16 + 25, p16 + 26, p16 + 27, p16 + 28, p16 + 29, p16 + 30, p16 + 31, p16 + 32, p16 + 33, p16 + 34, p16 + 35, p16 + 36, p16 + 37, p16 + 38, p16 + 39, 11};
Line(17) = {12, 11};
p18 = newp;
Point(p18 + 1) = {19.59872950997416, 0.3833137231325938, 0};
Point(p18 + 2) = {19.56482661005723, 0.5245294643619913, 0};
Point(p18 + 3) = {19.50925010216243, 0.6587030234709494, 0};
Point(p18 + 4) = {19.43336846436199, 0.7825306021376931, 0};
Point(p18 + 5) = {19.33905015441527, 0.8929631544152744, 0};
Point(p18 + 6) = {19.22861760213769, 0.9872814643619913, 0};
Point(p18 + 7) = {19.10479002347095, 1.063163102162431, 0};
Point(p18 + 8) = {18.97061646436199, 1.11873961005723, 0};
Point(p18 + 9) = {18.82940072313259, 1.152642509974162, 0};
Point(p18 + 10) = {18.68462, 1.164037, 0};
Point(p18 + 11) = {18.5398392768674, 1.152642509974162, 0};
Point(p18 + 12) = {18.39862353563801, 1.11873961005723, 0};
Point(p18 + 13) = {18.26444997652905, 1.063163102162431, 0};
Point(p18 + 14) = {18.14062239786231, 0.9872814643619914, 0};
Point(p18 + 15) = {18.03018984558473, 0.8929631544152745, 0};
Point(p18 + 16) = {17.93587153563801, 0.7825306021376931, 0};
Point(p18 + 17) = {17.85998989783757, 0.6587030234709496, 0};
Point(p18 + 18) = {17.80441338994277, 0.5245294643619914, 0};
Point(p18 + 19) = {17.77051049002583, 0.3833137231325939, 0};
Point(p18 + 20) = {17.759116, 0.2385330000000001, 0};
Point(p18 + 21) = {17.77051049002583, 0.09375227686740628, 0};
Point(p18 + 22) = {17.80441338994277, -0.04746346436199161, 0};
Point(p18 + 23) = {17.85998989783757, -0.1816370234709491, 0};
Point(p18 + 24) = {17.93587153563801, -0.305464602137693, 0};
Point(p18 + 25) = {18.03018984558473, -0.4158971544152744, 0};
Point(p18 + 26) = {18.14062239786231, -0.5102154643619913, 0};
Point(p18 + 27) = {18.26444997652905, -0.5860971021624312, 0};
Point(p18 + 28) = {18.39862353563801, -0.6416736100572298, 0};
Point(p18 + 29) = {18.5398392768674, -0.6755765099741623, 0};
Point(p18 + 30) = {18.68462, -0.686971, 0};
Point(p18 + 31) = {18.82940072313259, -0.6755765099741624, 0};
Point(p18 + 32) = {18.97061646436199, -0.6416736100572299, 0};
Point(p18 + 33) = {19.10479002347095, -0.5860971021624314, 0};
Point(p18 + 34) = {19.22861760213769, -0.5102154643619915, 0};
Point(p18 + 35) = {19.33905015441527, -0.4158971544152746, 0};
Point(p18 + 36) = {19.43336846436199, -0.3054646021376931, 0};
Point(p18 + 37) = {19.50925010216243, -0.1816370234709497, 0};
Point(p18 + 38) = {19.56482661005723, -0.0474634643619915, 0};
Point(p18 + 39) = {19.59872950997416, 0.09375227686740595, 0};
Spline(18) = {12, p18 + 1, p18 + 2, p18 + 3, p18 + 4, p18 + 5, p18 + 6, p18 + 7, p18 + 8, p18 + 9, p18 + 10, p18 + 11, p18 + 12, p18 + 13, p18 + 14, p18 + 15, p18 + 16, p18 + 17, p18 + 18, p18 + 19, p18 + 20, p18 + 21, p18 + 22, p18 + 23, p18 + 24, p18 + 25, p18 + 26, p18 + 27, p18 + 28, p18 + 29, p18 + 30, p18 + 31, p18 + 32, p18 + 33, p18 + 34, p18 + 35, p18 + 36, p18 + 37, p18 + 38, p18 + 39, 12};
Line(19) = {14, 13};
Line(20) = {13, 15};
Line(21) = {16, 15};
Line(22) = {14, 16};
Line(23) = {14, 17};
Line(24) = {17, 18};
Line(25) = {13, 18};
Line(26) = {15, 19};
Line(27) = {18, 19};
Line(28) = {16, 20};
Line(29) = {20, 19};
Line(30) = {17, 20};
Curve Loop(7) = {-13, -14, 15, 14};
Surface(7) = {7};
Curve Loop(8) = {13};
Plane Surface(8) = {8};
Curve Loop(9) = {15};
Plane Surface(9) = {9};
Curve Loop(10) = {-16, -17, 18, 17};
Surface(10) = {10};
Curve Loop(11) = {16};
Plane Surface(11) = {11};
Curve Loop(12) = {18};
Plane Surface(12) = {12};
Curve Loop(13) = {-19, 22, 21, -20};
Plane Surface(13) = {13};
Curve Loop(14) = {-23, 19, 25, -24};
Plane Surface(14) = {14};
Curve Loop(15) = {-20, 25, 27, -26, -13, -16};
Plane Surface(15) = {15};
Curve Loop(16) = {-28, 21, 26, -29};
Plane Surface(16) = {16};
Curve Loop(17) = {-22, 23, 30, -28, -15, -18};
Plane Surface(17) = {17};
Curve Loop(18) = {-24, 30, 29, -27};
Plane Surface(18) = {18};
Surface Loop(1) = {13, 14, 15, 16, 17, 18, 7, 10};
Volume(1) = {1};
Surface Loop(2) = {7, 8, 9};
Volume(2) = {2};
Surface Loop(3) = {10, 11, 12};
Volume(3) = {3};
Physical Surface("WALLS") = {13, 18};
Physical Surface("LOAD") = {8, 11};
Physical Surface("BORDER") = {7, 9, 10, 12, 14, 15, 16, 17};
Physical Volume("SOLID") = {1, 2, 3};
