cl__1 = 0.118814;
cl__2 = 0.110471;
cl__3 = 1.658708;
cl__4 = 1.758157;
cl__5 = 0.75326;
cl__6 = 0.856059;
Point(9) = {23.396711, -1.137233, 0.1, cl__1};
Point(10) = {23.396711, -1.137233, 0, cl__1};
Point(11) = {16.503307, 0.01878399999999973, 0.1, cl__2};
Point(12) = {16.503307, 0.01878399999999973, 0, cl__2};
Point(13) = {0.266863, -3.473185, 0.1, cl__3};
Point(14) = {0.266863, -3.473185, 0, cl__3};
Point(15) = {0.266863, 4.607271, 0.1, cl__4};
Point(16) = {0.266863, 4.607271, 0, cl__4};
Point(17) = {32.309114, -3.473185, 0, cl__5};
Point(18) = {32.309114, -3.473185, 0.1, cl__5};
Point(19) = {32.309114, 4.607271, 0.1, cl__6};
Point(20) = {32.309114, 4.607271, 0, cl__6};
p13 = newp;
Point(p13 + 1) = {23.38208301268305, -0.951366798272635, 0.1};
Point(p13 + 2) = {23.33855924032744, -0.7700772392863555, 0.1};
Point(p13 + 3) = {23.26721138265569, -0.5978282736489552, 0.1};
Point(p13 + 4) = {23.16979626071365, -0.4388612425559687, 0.1};
Point(p13 + 5) = {23.04871255810577, -0.2970904418942343, 0.1};
Point(p13 + 6) = {22.90694175744403, -0.1760067392863557, 0.1};
Point(p13 + 7) = {22.74797472635105, -0.07859161734430864, 0.1};
Point(p13 + 8) = {22.57572576071365, -0.007243759672560079, 0.1};
Point(p13 + 9) = {22.39443620172737, 0.03628001268304759, 0.1};
Point(p13 + 10) = {22.20857, 0.05090799999999995, 0.1};
Point(p13 + 11) = {22.02270379827264, 0.03628001268304737, 0.1};
Point(p13 + 12) = {21.84141423928636, -0.007243759672559857, 0.1};
Point(p13 + 13) = {21.66916527364896, -0.07859161734430842, 0.1};
Point(p13 + 14) = {21.51019824255597, -0.1760067392863556, 0.1};
Point(p13 + 15) = {21.36842744189424, -0.2970904418942342, 0.1};
Point(p13 + 16) = {21.24734373928636, -0.4388612425559686, 0.1};
Point(p13 + 17) = {21.14992861734431, -0.5978282736489551, 0.1};
Point(p13 + 18) = {21.07858075967256, -0.7700772392863555, 0.1};
Point(p13 + 19) = {21.03505698731696, -0.9513667982726348, 0.1};
Point(p13 + 20) = {21.020429, -1.137233, 0.1};
Point(p13 + 21) = {21.03505698731695, -1.323099201727365, 0.1};
Point(p13 + 22) = {21.07858075967256, -1.504388760713645, 0.1};
Point(p13 + 23) = {21.14992861734431, -1.676637726351044, 0.1};
Point(p13 + 24) = {21.24734373928636, -1.835604757444031, 0.1};
Point(p13 + 25) = {21.36842744189424, -1.977375558105765, 0.1};
Point(p13 + 26) = {21.51019824255597, -2.098459260713644, 0.1};
Point(p13 + 27) = {21.66916527364896, -2.195874382655691, 0.1};
Point(p13 + 28) = {21.84141423928636, -2.26722224032744, 0.1};
Point(p13 + 29) = {22.02270379827264, -2.310746012683047, 0.1};
Point(p13 + 30) = {22.20857, -2.325374, 0.1};
Point(p13 + 31) = {22.39443620172737, -2.310746012683047, 0.1};
Point(p13 + 32) = {22.57572576071365, -2.26722224032744, 0.1};
Point(p13 + 33) = {22.74797472635105, -2.195874382655692, 0.1};
Point(p13 + 34) = {22.90694175744403, -2.098459260713645, 0.1};
Point(p13 + 35) = {23.04871255810577, -1.977375558105766, 0.1};
Point(p13 + 36) = {23.16979626071365, -1.835604757444031, 0.1};
Point(p13 + 37) = {23.26721138265569, -1.676637726351045, 0.1};
Point(p13 + 38) = {23.33855924032744, -1.504388760713645, 0.1};
Point(p13 + 39) = {23.38208301268305, -1.323099201727365, 0.1};
Spline(13) = {9, p13 + 1, p13 + 2, p13 + 3, p13 + 4, p13 + 5, p13 + 6, p13 + 7, p13 + 8, p13 + 9, p13 + 10, p13 + 11, p13 + 12, p13 + 13, p13 + 14, p13 + 15, p13 + 16, p13 + 17, p13 + 18, p13 + 19, p13 + 20, p13 + 21, p13 + 22, p13 + 23, p13 + 24, p13 + 25, p13 + 26, p13 + 27, p13 + 28, p13 + 29, p13 + 30, p13 + 31, p13 + 32, p13 + 33, p13 + 34, p13 + 35, p13 + 36, p13 + 37, p13 + 38, p13 + 39, 9};
Line(14) = {10, 9};
p15 = newp;
Point(p15 + 1) = {23.38208301268305, -0.951366798272635, 0};
Point(p15 + 2) = {23.33855924032744, -0.7700772392863555, 0};
Point(p15 + 3) = {23.26721138265569, -0.5978282736489552, 0};
Point(p15 + 4) = {23.16979626071365, -0.4388612425559687, 0};
Point(p15 + 5) = {23.04871255810577, -0.2970904418942343, 0};
Point(p15 + 6) = {22.90694175744403, -0.1760067392863557, 0};
Point(p15 + 7) = {22.74797472635105, -0.07859161734430864, 0};
Point(p15 + 8) = {22.57572576071365, -0.007243759672560079, 0};
Point(p15 + 9) = {22.39443620172737, 0.03628001268304759, 0};
Point(p15 + 10) = {22.20857, 0.05090799999999995, 0};
Point(p15 + 11) = {22.02270379827264, 0.03628001268304737, 0};
Point(p15 + 12) = {21.84141423928636, -0.007243759672559857, 0};
Point(p15 + 13) = {21.66916527364896, -0.07859161734430842, 0};
Point(p15 + 14) = {21.51019824255597, -0.1760067392863556, 0};
Point(p15 + 15) = {21.36842744189424, -0.2970904418942342, 0};
Point(p15 + 16) = {21.24734373928636, -0.4388612425559686, 0};
Point(p15 + 17) = {21.14992861734431, -0.5978282736489551, 0};
Point(p15 + 18) = {21.07858075967256, -0.7700772392863555, 0};
Point(p15 + 19) = {21.03505698731696, -0.9513667982726348, 0};
Point(p15 + 20) = {21.020429, -1.137233, 0};
Point(p15 + 21) = {21.03505698731695, -1.323099201727365, 0};
Point(p15 + 22) = {21.07858075967256, -1.504388760713645, 0};
Point(p15 + 23) = {21.14992861734431, -1.676637726351044, 0};
Point(p15 + 24) = {21.24734373928636, -1.835604757444031, 0};
Point(p15 + 25) = {21.36842744189424, -1.977375558105765, 0};
Point(p15 + 26) = {21.51019824255597, -2.098459260713644, 0};
Point(p15 + 27) = {21.66916527364896, -2.195874382655691, 0};
Point(p15 + 28) = {21.84141423928636, -2.26722224032744, 0};
Point(p15 + 29) = {22.02270379827264, -2.310746012683047, 0};
Point(p15 + 30) = {22.20857, -2.325374, 0};
Point(p15 + 31) = {22.39443620172737, -2.310746012683047, 0};
Point(p15 + 32) = {22.57572576071365, -2.26722224032744, 0};
Point(p15 + 33) = {22.74797472635105, -2.195874382655692, 0};
Point(p15 + 34) = {22.90694175744403, -2.098459260713645, 0};
Point(p15 + 35) = {23.04871255810577, -1.977375558105766, 0};
Point(p15 + 36) = {23.16979626071365, -1.835604757444031, 0};
Point(p15 + 37) = {23.26721138265569, -1.676637726351045, 0};
Point(p15 + 38) = {23.33855924032744, -1.504388760713645, 0};
Point(p15 + 39) = {23.38208301268305, -1.323099201727365, 0};
Spline(15) = {10, p15 + 1, p15 + 2, p15 + 3, p15 + 4, p15 + 5, p15 + 6, p15 + 7, p15 + 8, p15 + 9, p15 + 10, p15 + 11, p15 + 12, p15 + 13, p15 + 14, p15 + 15, p15 + 16, p15 + 17, p15 + 18, p15 + 19, p15 + 20, p15 + 21, p15 + 22, p15 + 23, p15 + 24, p15 + 25, p15 + 26, p15 + 27, p15 + 28, p15 + 29, p15 + 30, p15 + 31, p15 + 32, p15 + 33, p15 + 34, p15 + 35, p15 + 36, p15 + 37, p15 + 38, p15 + 39, 10};
p16 = newp;
Point(p16 + 1) = {16.48970616211554, 0.1915990307435235, 0.1};
Point(p16 + 2) = {16.44923854622945, 0.3601587818899369, 0.1};
Point(p16 + 3) = {16.38290059934918, 0.5203127529482742, 0.1};
Point(p16 + 4) = {16.29232578188994, 0.6681174216305226, 0.1};
Point(p16 + 5) = {16.17974434645815, 0.7999333464581532, 0.1};
Point(p16 + 6) = {16.04792842163052, 0.9125147818899367, 0.1};
Point(p16 + 7) = {15.90012375294828, 1.00308959934918, 0.1};
Point(p16 + 8) = {15.73996978188994, 1.069427546229452, 0.1};
Point(p16 + 9) = {15.57141003074352, 1.109895162115536, 0.1};
Point(p16 + 10) = {15.398595, 1.123496, 0.1};
Point(p16 + 11) = {15.22577996925648, 1.109895162115536, 0.1};
Point(p16 + 12) = {15.05722021811006, 1.069427546229452, 0.1};
Point(p16 + 13) = {14.89706624705173, 1.00308959934918, 0.1};
Point(p16 + 14) = {14.74926157836948, 0.912514781889937, 0.1};
Point(p16 + 15) = {14.61744565354185, 0.7999333464581533, 0.1};
Point(p16 + 16) = {14.50486421811006, 0.6681174216305227, 0.1};
Point(p16 + 17) = {14.41428940065082, 0.5203127529482743, 0.1};
Point(p16 + 18) = {14.34795145377055, 0.360158781889937, 0.1};
Point(p16 + 19) = {14.30748383788447, 0.1915990307435236, 0.1};
Point(p16 + 20) = {14.293883, 0.01878400000000013, 0.1};
Point(p16 + 21) = {14.30748383788447, -0.1540310307435234, 0.1};
Point(p16 + 22) = {14.34795145377055, -0.3225907818899372, 0.1};
Point(p16 + 23) = {14.41428940065082, -0.4827447529482736, 0.1};
Point(p16 + 24) = {14.50486421811006, -0.6305494216305224, 0.1};
Point(p16 + 25) = {14.61744565354185, -0.7623653464581531, 0.1};
Point(p16 + 26) = {14.74926157836948, -0.8749467818899367, 0.1};
Point(p16 + 27) = {14.89706624705173, -0.96552159934918, 0.1};
Point(p16 + 28) = {15.05722021811006, -1.031859546229452, 0.1};
Point(p16 + 29) = {15.22577996925648, -1.072327162115536, 0.1};
Point(p16 + 30) = {15.398595, -1.085928, 0.1};
Point(p16 + 31) = {15.57141003074352, -1.072327162115536, 0.1};
Point(p16 + 32) = {15.73996978188994, -1.031859546229452, 0.1};
Point(p16 + 33) = {15.90012375294828, -0.9655215993491802, 0.1};
Point(p16 + 34) = {16.04792842163052, -0.874946781889937, 0.1};
Point(p16 + 35) = {16.17974434645815, -0.7623653464581533, 0.1};
Point(p16 + 36) = {16.29232578188994, -0.6305494216305226, 0.1};
Point(p16 + 37) = {16.38290059934918, -0.4827447529482743, 0.1};
Point(p16 + 38) = {16.44923854622945, -0.3225907818899371, 0.1};
Point(p16 + 39) = {16.48970616211554, -0.1540310307435238, 0.1};
Spline(16) = {11, p16 + 1, p16 + 2, p16 + 3, p16 + 4, p16 + 5, p16 + 6, p16 + 7, p16 + 8, p16 + 9, p16 + 10, p16 + 11, p16 + 12, p16 + 13, p16 + 14, p16 + 15, p16 + 16, p16 + 17, p16 + 18, p16 + 19, p16 + 20, p16 + 21, p16 + 22, p16 + 23, p16 + 24, p16 + 25, p16 + 26, p16 + 27, p16 + 28, p16 + 29, p16 + 30, p16 + 31, p16 + 32, p16 + 33, p16 + 34, p16 + 35, p16 + 36, p16 + 37, p16 + 38, p16 + 39, 11};
Line(17) = {12, 11};
p18 = newp;
Point(p18 + 1) = {16.48970616211554, 0.1915990307435235, 0};
Point(p18 + 2) = {16.44923854622945, 0.3601587818899369, 0};
Point(p18 + 3) = {16.38290059934918, 0.5203127529482742, 0};
Point(p18 + 4) = {16.29232578188994, 0.6681174216305226, 0};
Point(p18 + 5) = {16.17974434645815, 0.7999333464581532, 0};
Point(p18 + 6) = {16.04792842163052, 0.9125147818899367, 0};
Point(p18 + 7) = {15.90012375294828, 1.00308959934918, 0};
Point(p18 + 8) = {15.73996978188994, 1.069427546229452, 0};
Point(p18 + 9) = {15.57141003074352, 1.109895162115536, 0};
Point(p18 + 10) = {15.398595, 1.123496, 0};
Point(p18 + 11) = {15.22577996925648, 1.109895162115536, 0};
Point(p18 + 12) = {15.05722021811006, 1.069427546229452, 0};
Point(p18 + 13) = {14.89706624705173, 1.00308959934918, 0};
Point(p18 + 14) = {14.74926157836948, 0.912514781889937, 0};
Point(p18 + 15) = {14.61744565354185, 0.7999333464581533, 0};
Point(p18 + 16) = {14.50486421811006, 0.6681174216305227, 0};
Point(p18 + 17) = {14.41428940065082, 0.5203127529482743, 0};
Point(p18 + 18) = {14.34795145377055, 0.360158781889937, 0};
Point(p18 + 19) = {14.30748383788447, 0.1915990307435236, 0};
Point(p18 + 20) = {14.293883, 0.01878400000000013, 0};
Point(p18 + 21) = {14.30748383788447, -0.1540310307435234, 0};
Point(p18 + 22) = {14.34795145377055, -0.3225907818899372, 0};
Point(p18 + 23) = {14.41428940065082, -0.4827447529482736, 0};
Point(p18 + 24) = {14.50486421811006, -0.6305494216305224, 0};
Point(p18 + 25) = {14.61744565354185, -0.7623653464581531, 0};
Point(p18 + 26) = {14.74926157836948, -0.8749467818899367, 0};
Point(p18 + 27) = {14.89706624705173, -0.96552159934918, 0};
Point(p18 + 28) = {15.05722021811006, -1.031859546229452, 0};
Point(p18 + 29) = {15.22577996925648, -1.072327162115536, 0};
Point(p18 + 30) = {15.398595, -1.085928, 0};
Point(p18 + 31) = {15.57141003074352, -1.072327162115536, 0};
Point(p18 + 32) = {15.73996978188994, -1.031859546229452, 0};
Point(p18 + 33) = {15.90012375294828, -0.9655215993491802, 0};
Point(p18 + 34) = {16.04792842163052, -0.874946781889937, 0};
Point(p18 + 35) = {16.17974434645815, -0.7623653464581533, 0};
Point(p18 + 36) = {16.29232578188994, -0.6305494216305226, 0};
Point(p18 + 37) = {16.38290059934918, -0.4827447529482743, 0};
Point(p18 + 38) = {16.44923854622945, -0.3225907818899371, 0};
Point(p18 + 39) = {16.48970616211554, -0.1540310307435238, 0};
Spline(18) = {12, p18 + 1, p18 + 2, p18 + 3, p18 + 4, p18 + 5, p18 + 6, p18 + 7, p18 + 8, p18 + 9, p18 + 10, p18 + 11, p18 + 12, p18 + 13, p18 + 14, p18 + 15, p18 + 16, p18 + 17, p18 + 18, p18 + 19, p18 + 20, p18 + 21, p18 + 22, p18 + 23, p18 + 24, p18 + 25, p18 + 26, p18 + 27, p18 + 28, p18 + 29, p18 + 30, p18 + 31, p18 + 32, p18 + 33, p18 + 34, p18 + 35, p18 + 36, p18 + 37, p18 + 38, p18 + 39, 12};
Line(19) = {14, 13};
Line(20) = {13, 15};
Line(21) = {16, 15};
Line(22) = {14, 16};
Line(23) = {14, 17};
Line(24) = {17, 18};
Line(25) = {13, 18};
Line(26) = {15, 19};
Line(27) = {18, 19};
Line(28) = {16, 20};
Line(29) = {20, 19};
Line(30) = {17, 20};
Curve Loop(7) = {-13, -14, 15, 14};
Surface(7) = {7};
Curve Loop(8) = {13};
Plane Surface(8) = {8};
Curve Loop(9) = {15};
Plane Surface(9) = {9};
Curve Loop(10) = {-16, -17, 18, 17};
Surface(10) = {10};
Curve Loop(11) = {16};
Plane Surface(11) = {11};
Curve Loop(12) = {18};
Plane Surface(12) = {12};
Curve Loop(13) = {-19, 22, 21, -20};
Plane Surface(13) = {13};
Curve Loop(14) = {-23, 19, 25, -24};
Plane Surface(14) = {14};
Curve Loop(15) = {-20, 25, 27, -26, -13, -16};
Plane Surface(15) = {15};
Curve Loop(16) = {-28, 21, 26, -29};
Plane Surface(16) = {16};
Curve Loop(17) = {-22, 23, 30, -28, -15, -18};
Plane Surface(17) = {17};
Curve Loop(18) = {-24, 30, 29, -27};
Plane Surface(18) = {18};
Surface Loop(1) = {13, 14, 15, 16, 17, 18, 7, 10};
Volume(1) = {1};
Surface Loop(2) = {7, 8, 9};
Volume(2) = {2};
Surface Loop(3) = {10, 11, 12};
Volume(3) = {3};
Physical Surface("WALLS") = {13, 18};
Physical Surface("LOAD") = {8, 11};
Physical Surface("BORDER") = {7, 9, 10, 12, 14, 15, 16, 17};
Physical Volume("SOLID") = {1, 2, 3};
