cl__1 = 0.108647;
cl__2 = 0.062223;
cl__3 = 3.056699;
cl__4 = 3.499954;
cl__5 = 0.505834;
cl__6 = 0.524599;
Point(9) = {28.478004, 0.4442909999999997, 0.1, cl__1};
Point(10) = {28.478004, 0.4442909999999997, 0, cl__1};
Point(11) = {19.571847, -1.342662, 0.1, cl__2};
Point(12) = {19.571847, -1.342662, 0, cl__2};
Point(13) = {0.426764, -3.275691, 0.1, cl__3};
Point(14) = {0.426764, -3.275691, 0, cl__3};
Point(15) = {0.426764, 4.605906, 0.1, cl__4};
Point(16) = {0.426764, 4.605906, 0, cl__4};
Point(17) = {33.74301, -3.275691, 0, cl__5};
Point(18) = {33.74301, -3.275691, 0.1, cl__5};
Point(19) = {33.74301, 4.605906, 0.1, cl__6};
Point(20) = {33.74301, 4.605906, 0, cl__6};
p13 = newp;
Point(p13 + 1) = {28.4646278129647, 0.6142515710599344, 0.1};
Point(p13 + 2) = {28.42482861797662, 0.7800271487935773, 0.1};
Point(p13 + 3) = {28.35958640330232, 0.9375357882995267, 0.1};
Point(p13 + 4) = {28.27050764879358, 1.082899104131942, 0.1};
Point(p13 + 5) = {28.15978576902184, 1.212537769021842, 0.1};
Point(p13 + 6) = {28.03014710413195, 1.323259648793577, 0.1};
Point(p13 + 7) = {27.88478378829953, 1.412338403302315, 0.1};
Point(p13 + 8) = {27.72727514879358, 1.477580617976614, 0.1};
Point(p13 + 9) = {27.56149957105994, 1.517379812964696, 0.1};
Point(p13 + 10) = {27.391539, 1.530756, 0.1};
Point(p13 + 11) = {27.22157842894007, 1.517379812964696, 0.1};
Point(p13 + 12) = {27.05580285120643, 1.477580617976614, 0.1};
Point(p13 + 13) = {26.89829421170047, 1.412338403302315, 0.1};
Point(p13 + 14) = {26.75293089586806, 1.323259648793577, 0.1};
Point(p13 + 15) = {26.62329223097816, 1.212537769021842, 0.1};
Point(p13 + 16) = {26.51257035120642, 1.082899104131942, 0.1};
Point(p13 + 17) = {26.42349159669769, 0.9375357882995268, 0.1};
Point(p13 + 18) = {26.35824938202339, 0.7800271487935773, 0.1};
Point(p13 + 19) = {26.31845018703531, 0.6142515710599346, 0.1};
Point(p13 + 20) = {26.305074, 0.4442910000000001, 0.1};
Point(p13 + 21) = {26.31845018703531, 0.2743304289400657, 0.1};
Point(p13 + 22) = {26.35824938202339, 0.1085548512064224, 0.1};
Point(p13 + 23) = {26.42349159669769, -0.04895378829952618, 0.1};
Point(p13 + 24) = {26.51257035120642, -0.1943171041319417, 0.1};
Point(p13 + 25) = {26.62329223097816, -0.3239557690218423, 0.1};
Point(p13 + 26) = {26.75293089586806, -0.4346776487935772, 0.1};
Point(p13 + 27) = {26.89829421170047, -0.523756403302315, 0.1};
Point(p13 + 28) = {27.05580285120642, -0.588998617976614, 0.1};
Point(p13 + 29) = {27.22157842894007, -0.6287978129646963, 0.1};
Point(p13 + 30) = {27.391539, -0.642174, 0.1};
Point(p13 + 31) = {27.56149957105994, -0.6287978129646963, 0.1};
Point(p13 + 32) = {27.72727514879358, -0.588998617976614, 0.1};
Point(p13 + 33) = {27.88478378829953, -0.5237564033023153, 0.1};
Point(p13 + 34) = {28.03014710413194, -0.4346776487935774, 0.1};
Point(p13 + 35) = {28.15978576902184, -0.3239557690218425, 0.1};
Point(p13 + 36) = {28.27050764879358, -0.1943171041319419, 0.1};
Point(p13 + 37) = {28.35958640330232, -0.0489537882995269, 0.1};
Point(p13 + 38) = {28.42482861797662, 0.1085548512064225, 0.1};
Point(p13 + 39) = {28.4646278129647, 0.2743304289400653, 0.1};
Spline(13) = {9, p13 + 1, p13 + 2, p13 + 3, p13 + 4, p13 + 5, p13 + 6, p13 + 7, p13 + 8, p13 + 9, p13 + 10, p13 + 11, p13 + 12, p13 + 13, p13 + 14, p13 + 15, p13 + 16, p13 + 17, p13 + 18, p13 + 19, p13 + 20, p13 + 21, p13 + 22, p13 + 23, p13 + 24, p13 + 25, p13 + 26, p13 + 27, p13 + 28, p13 + 29, p13 + 30, p13 + 31, p13 + 32, p13 + 33, p13 + 34, p13 + 35, p13 + 36, p13 + 37, p13 + 38, p13 + 39, 9};
Line(14) = {10, 9};
p15 = newp;
Point(p15 + 1) = {28.4646278129647, 0.6142515710599344, 0};
Point(p15 + 2) = {28.42482861797662, 0.7800271487935773, 0};
Point(p15 + 3) = {28.35958640330232, 0.9375357882995267, 0};
Point(p15 + 4) = {28.27050764879358, 1.082899104131942, 0};
Point(p15 + 5) = {28.15978576902184, 1.212537769021842, 0};
Point(p15 + 6) = {28.03014710413195, 1.323259648793577, 0};
Point(p15 + 7) = {27.88478378829953, 1.412338403302315, 0};
Point(p15 + 8) = {27.72727514879358, 1.477580617976614, 0};
Point(p15 + 9) = {27.56149957105994, 1.517379812964696, 0};
Point(p15 + 10) = {27.391539, 1.530756, 0};
Point(p15 + 11) = {27.22157842894007, 1.517379812964696, 0};
Point(p15 + 12) = {27.05580285120643, 1.477580617976614, 0};
Point(p15 + 13) = {26.89829421170047, 1.412338403302315, 0};
Point(p15 + 14) = {26.75293089586806, 1.323259648793577, 0};
Point(p15 + 15) = {26.62329223097816, 1.212537769021842, 0};
Point(p15 + 16) = {26.51257035120642, 1.082899104131942, 0};
Point(p15 + 17) = {26.42349159669769, 0.9375357882995268, 0};
Point(p15 + 18) = {26.35824938202339, 0.7800271487935773, 0};
Point(p15 + 19) = {26.31845018703531, 0.6142515710599346, 0};
Point(p15 + 20) = {26.305074, 0.4442910000000001, 0};
Point(p15 + 21) = {26.31845018703531, 0.2743304289400657, 0};
Point(p15 + 22) = {26.35824938202339, 0.1085548512064224, 0};
Point(p15 + 23) = {26.42349159669769, -0.04895378829952618, 0};
Point(p15 + 24) = {26.51257035120642, -0.1943171041319417, 0};
Point(p15 + 25) = {26.62329223097816, -0.3239557690218423, 0};
Point(p15 + 26) = {26.75293089586806, -0.4346776487935772, 0};
Point(p15 + 27) = {26.89829421170047, -0.523756403302315, 0};
Point(p15 + 28) = {27.05580285120642, -0.588998617976614, 0};
Point(p15 + 29) = {27.22157842894007, -0.6287978129646963, 0};
Point(p15 + 30) = {27.391539, -0.642174, 0};
Point(p15 + 31) = {27.56149957105994, -0.6287978129646963, 0};
Point(p15 + 32) = {27.72727514879358, -0.588998617976614, 0};
Point(p15 + 33) = {27.88478378829953, -0.5237564033023153, 0};
Point(p15 + 34) = {28.03014710413194, -0.4346776487935774, 0};
Point(p15 + 35) = {28.15978576902184, -0.3239557690218425, 0};
Point(p15 + 36) = {28.27050764879358, -0.1943171041319419, 0};
Point(p15 + 37) = {28.35958640330232, -0.0489537882995269, 0};
Point(p15 + 38) = {28.42482861797662, 0.1085548512064225, 0};
Point(p15 + 39) = {28.4646278129647, 0.2743304289400653, 0};
Spline(15) = {10, p15 + 1, p15 + 2, p15 + 3, p15 + 4, p15 + 5, p15 + 6, p15 + 7, p15 + 8, p15 + 9, p15 + 10, p15 + 11, p15 + 12, p15 + 13, p15 + 14, p15 + 15, p15 + 16, p15 + 17, p15 + 18, p15 + 19, p15 + 20, p15 + 21, p15 + 22, p15 + 23, p15 + 24, p15 + 25, p15 + 26, p15 + 27, p15 + 28, p15 + 29, p15 + 30, p15 + 31, p15 + 32, p15 + 33, p15 + 34, p15 + 35, p15 + 36, p15 + 37, p15 + 38, p15 + 39, 10};
p16 = newp;
Point(p16 + 1) = {19.56418630385685, -1.245323626383552, 0.1};
Point(p16 + 2) = {19.54139284719085, -1.150382046573082, 0.1};
Point(p16 + 3) = {19.50402788055225, -1.060175037356562, 0.1};
Point(p16 + 4) = {19.45301145342692, -0.9769237946808023, 0.1};
Point(p16 + 5) = {19.38959975956449, -0.9026782404355134, 0.1};
Point(p16 + 6) = {19.3153542053192, -0.8392665465730822, 0.1};
Point(p16 + 7) = {19.23210296264344, -0.7882501194477478, 0.1};
Point(p16 + 8) = {19.14189595342692, -0.7508851528091504, 0.1};
Point(p16 + 9) = {19.04695437361645, -0.7280916961431468, 0.1};
Point(p16 + 10) = {18.949616, -0.720431, 0.1};
Point(p16 + 11) = {18.85227762638355, -0.7280916961431469, 0.1};
Point(p16 + 12) = {18.75733604657308, -0.7508851528091502, 0.1};
Point(p16 + 13) = {18.66712903735656, -0.7882501194477477, 0.1};
Point(p16 + 14) = {18.5838777946808, -0.8392665465730821, 0.1};
Point(p16 + 15) = {18.50963224043551, -0.9026782404355134, 0.1};
Point(p16 + 16) = {18.44622054657308, -0.976923794680802, 0.1};
Point(p16 + 17) = {18.39520411944775, -1.060175037356562, 0.1};
Point(p16 + 18) = {18.35783915280915, -1.150382046573082, 0.1};
Point(p16 + 19) = {18.33504569614315, -1.245323626383552, 0.1};
Point(p16 + 20) = {18.327385, -1.342662, 0.1};
Point(p16 + 21) = {18.33504569614314, -1.440000373616448, 0.1};
Point(p16 + 22) = {18.35783915280915, -1.534941953426918, 0.1};
Point(p16 + 23) = {18.39520411944775, -1.625148962643438, 0.1};
Point(p16 + 24) = {18.44622054657308, -1.708400205319198, 0.1};
Point(p16 + 25) = {18.50963224043551, -1.782645759564487, 0.1};
Point(p16 + 26) = {18.5838777946808, -1.846057453426918, 0.1};
Point(p16 + 27) = {18.66712903735656, -1.897073880552252, 0.1};
Point(p16 + 28) = {18.75733604657308, -1.93443884719085, 0.1};
Point(p16 + 29) = {18.85227762638355, -1.957232303856853, 0.1};
Point(p16 + 30) = {18.949616, -1.964893, 0.1};
Point(p16 + 31) = {19.04695437361645, -1.957232303856853, 0.1};
Point(p16 + 32) = {19.14189595342692, -1.93443884719085, 0.1};
Point(p16 + 33) = {19.23210296264344, -1.897073880552252, 0.1};
Point(p16 + 34) = {19.3153542053192, -1.846057453426918, 0.1};
Point(p16 + 35) = {19.38959975956449, -1.782645759564487, 0.1};
Point(p16 + 36) = {19.45301145342692, -1.708400205319198, 0.1};
Point(p16 + 37) = {19.50402788055225, -1.625148962643438, 0.1};
Point(p16 + 38) = {19.54139284719085, -1.534941953426918, 0.1};
Point(p16 + 39) = {19.56418630385685, -1.440000373616448, 0.1};
Spline(16) = {11, p16 + 1, p16 + 2, p16 + 3, p16 + 4, p16 + 5, p16 + 6, p16 + 7, p16 + 8, p16 + 9, p16 + 10, p16 + 11, p16 + 12, p16 + 13, p16 + 14, p16 + 15, p16 + 16, p16 + 17, p16 + 18, p16 + 19, p16 + 20, p16 + 21, p16 + 22, p16 + 23, p16 + 24, p16 + 25, p16 + 26, p16 + 27, p16 + 28, p16 + 29, p16 + 30, p16 + 31, p16 + 32, p16 + 33, p16 + 34, p16 + 35, p16 + 36, p16 + 37, p16 + 38, p16 + 39, 11};
Line(17) = {12, 11};
p18 = newp;
Point(p18 + 1) = {19.56418630385685, -1.245323626383552, 0};
Point(p18 + 2) = {19.54139284719085, -1.150382046573082, 0};
Point(p18 + 3) = {19.50402788055225, -1.060175037356562, 0};
Point(p18 + 4) = {19.45301145342692, -0.9769237946808023, 0};
Point(p18 + 5) = {19.38959975956449, -0.9026782404355134, 0};
Point(p18 + 6) = {19.3153542053192, -0.8392665465730822, 0};
Point(p18 + 7) = {19.23210296264344, -0.7882501194477478, 0};
Point(p18 + 8) = {19.14189595342692, -0.7508851528091504, 0};
Point(p18 + 9) = {19.04695437361645, -0.7280916961431468, 0};
Point(p18 + 10) = {18.949616, -0.720431, 0};
Point(p18 + 11) = {18.85227762638355, -0.7280916961431469, 0};
Point(p18 + 12) = {18.75733604657308, -0.7508851528091502, 0};
Point(p18 + 13) = {18.66712903735656, -0.7882501194477477, 0};
Point(p18 + 14) = {18.5838777946808, -0.8392665465730821, 0};
Point(p18 + 15) = {18.50963224043551, -0.9026782404355134, 0};
Point(p18 + 16) = {18.44622054657308, -0.976923794680802, 0};
Point(p18 + 17) = {18.39520411944775, -1.060175037356562, 0};
Point(p18 + 18) = {18.35783915280915, -1.150382046573082, 0};
Point(p18 + 19) = {18.33504569614315, -1.245323626383552, 0};
Point(p18 + 20) = {18.327385, -1.342662, 0};
Point(p18 + 21) = {18.33504569614314, -1.440000373616448, 0};
Point(p18 + 22) = {18.35783915280915, -1.534941953426918, 0};
Point(p18 + 23) = {18.39520411944775, -1.625148962643438, 0};
Point(p18 + 24) = {18.44622054657308, -1.708400205319198, 0};
Point(p18 + 25) = {18.50963224043551, -1.782645759564487, 0};
Point(p18 + 26) = {18.5838777946808, -1.846057453426918, 0};
Point(p18 + 27) = {18.66712903735656, -1.897073880552252, 0};
Point(p18 + 28) = {18.75733604657308, -1.93443884719085, 0};
Point(p18 + 29) = {18.85227762638355, -1.957232303856853, 0};
Point(p18 + 30) = {18.949616, -1.964893, 0};
Point(p18 + 31) = {19.04695437361645, -1.957232303856853, 0};
Point(p18 + 32) = {19.14189595342692, -1.93443884719085, 0};
Point(p18 + 33) = {19.23210296264344, -1.897073880552252, 0};
Point(p18 + 34) = {19.3153542053192, -1.846057453426918, 0};
Point(p18 + 35) = {19.38959975956449, -1.782645759564487, 0};
Point(p18 + 36) = {19.45301145342692, -1.708400205319198, 0};
Point(p18 + 37) = {19.50402788055225, -1.625148962643438, 0};
Point(p18 + 38) = {19.54139284719085, -1.534941953426918, 0};
Point(p18 + 39) = {19.56418630385685, -1.440000373616448, 0};
Spline(18) = {12, p18 + 1, p18 + 2, p18 + 3, p18 + 4, p18 + 5, p18 + 6, p18 + 7, p18 + 8, p18 + 9, p18 + 10, p18 + 11, p18 + 12, p18 + 13, p18 + 14, p18 + 15, p18 + 16, p18 + 17, p18 + 18, p18 + 19, p18 + 20, p18 + 21, p18 + 22, p18 + 23, p18 + 24, p18 + 25, p18 + 26, p18 + 27, p18 + 28, p18 + 29, p18 + 30, p18 + 31, p18 + 32, p18 + 33, p18 + 34, p18 + 35, p18 + 36, p18 + 37, p18 + 38, p18 + 39, 12};
Line(19) = {14, 13};
Line(20) = {13, 15};
Line(21) = {16, 15};
Line(22) = {14, 16};
Line(23) = {14, 17};
Line(24) = {17, 18};
Line(25) = {13, 18};
Line(26) = {15, 19};
Line(27) = {18, 19};
Line(28) = {16, 20};
Line(29) = {20, 19};
Line(30) = {17, 20};
Curve Loop(7) = {-13, -14, 15, 14};
Surface(7) = {7};
Curve Loop(8) = {13};
Plane Surface(8) = {8};
Curve Loop(9) = {15};
Plane Surface(9) = {9};
Curve Loop(10) = {-16, -17, 18, 17};
Surface(10) = {10};
Curve Loop(11) = {16};
Plane Surface(11) = {11};
Curve Loop(12) = {18};
Plane Surface(12) = {12};
Curve Loop(13) = {-19, 22, 21, -20};
Plane Surface(13) = {13};
Curve Loop(14) = {-23, 19, 25, -24};
Plane Surface(14) = {14};
Curve Loop(15) = {-20, 25, 27, -26, -16, -13};
Plane Surface(15) = {15};
Curve Loop(16) = {-28, 21, 26, -29};
Plane Surface(16) = {16};
Curve Loop(17) = {-22, 23, 30, -28, -18, -15};
Plane Surface(17) = {17};
Curve Loop(18) = {-24, 30, 29, -27};
Plane Surface(18) = {18};
Surface Loop(1) = {13, 14, 15, 16, 17, 18, 10, 7};
Volume(1) = {1};
Surface Loop(2) = {7, 8, 9};
Volume(2) = {2};
Surface Loop(3) = {10, 11, 12};
Volume(3) = {3};
Physical Surface("WALLS") = {13, 18};
Physical Surface("LOAD") = {8, 11};
Physical Surface("BORDER") = {7, 9, 10, 12, 14, 15, 16, 17};
Physical Volume("SOLID") = {1, 2, 3};
