cl__1 = 0.094626;
cl__2 = 0.075311;
cl__3 = 0.474204;
cl__4 = 0.41637;
cl__5 = 3.915931;
cl__6 = 3.604272;
Point(9) = {12.435724, 2.296508999999999, 0.1, cl__1};
Point(10) = {12.435724, 2.296508999999999, 0, cl__1};
Point(11) = {8.283063, 1.047763, 0.1, cl__2};
Point(12) = {8.283063, 1.047763, 0, cl__2};
Point(13) = {0.868819, -4.09561, 0.1, cl__3};
Point(14) = {0.868819, -4.09561, 0, cl__3};
Point(15) = {0.868819, 4.453344, 0.1, cl__4};
Point(16) = {0.868819, 4.453344, 0, cl__4};
Point(17) = {37.120475, -4.09561, 0, cl__5};
Point(18) = {37.120475, -4.09561, 0.1, cl__5};
Point(19) = {37.120475, 4.453344, 0.1, cl__6};
Point(20) = {37.120475, 4.453344, 0, cl__6};
p13 = newp;
Point(p13 + 1) = {12.42407399379487, 2.444536364020039, 0.1};
Point(p13 + 2) = {12.38941083699642, 2.588918803063249, 0.1};
Point(p13 + 3) = {12.33258805156544, 2.726101142302544, 0.1};
Point(p13 + 4) = {12.25500480306325, 2.852705497263771, 0.1};
Point(p13 + 5) = {12.15857144855202, 2.96561444855202, 0.1};
Point(p13 + 6) = {12.04566249726377, 3.062047803063249, 0.1};
Point(p13 + 7) = {11.91905814230254, 3.139631051565436, 0.1};
Point(p13 + 8) = {11.78187580306325, 3.196453836996419, 0.1};
Point(p13 + 9) = {11.63749336402004, 3.231116993794874, 0.1};
Point(p13 + 10) = {11.489466, 3.242767, 0.1};
Point(p13 + 11) = {11.34143863597996, 3.231116993794874, 0.1};
Point(p13 + 12) = {11.19705619693675, 3.19645383699642, 0.1};
Point(p13 + 13) = {11.05987385769746, 3.139631051565436, 0.1};
Point(p13 + 14) = {10.93326950273623, 3.062047803063249, 0.1};
Point(p13 + 15) = {10.82036055144798, 2.96561444855202, 0.1};
Point(p13 + 16) = {10.72392719693675, 2.852705497263771, 0.1};
Point(p13 + 17) = {10.64634394843456, 2.726101142302544, 0.1};
Point(p13 + 18) = {10.58952116300358, 2.588918803063249, 0.1};
Point(p13 + 19) = {10.55485800620513, 2.444536364020039, 0.1};
Point(p13 + 20) = {10.543208, 2.296509, 0.1};
Point(p13 + 21) = {10.55485800620513, 2.148481635979961, 0.1};
Point(p13 + 22) = {10.58952116300358, 2.004099196936751, 0.1};
Point(p13 + 23) = {10.64634394843456, 1.866916857697456, 0.1};
Point(p13 + 24) = {10.72392719693675, 1.740312502736229, 0.1};
Point(p13 + 25) = {10.82036055144798, 1.62740355144798, 0.1};
Point(p13 + 26) = {10.93326950273623, 1.530970196936751, 0.1};
Point(p13 + 27) = {11.05987385769746, 1.453386948434563, 0.1};
Point(p13 + 28) = {11.19705619693675, 1.396564163003581, 0.1};
Point(p13 + 29) = {11.34143863597996, 1.361901006205126, 0.1};
Point(p13 + 30) = {11.489466, 1.350251, 0.1};
Point(p13 + 31) = {11.63749336402004, 1.361901006205126, 0.1};
Point(p13 + 32) = {11.78187580306325, 1.39656416300358, 0.1};
Point(p13 + 33) = {11.91905814230254, 1.453386948434563, 0.1};
Point(p13 + 34) = {12.04566249726377, 1.530970196936751, 0.1};
Point(p13 + 35) = {12.15857144855202, 1.62740355144798, 0.1};
Point(p13 + 36) = {12.25500480306325, 1.740312502736229, 0.1};
Point(p13 + 37) = {12.33258805156544, 1.866916857697456, 0.1};
Point(p13 + 38) = {12.38941083699642, 2.004099196936751, 0.1};
Point(p13 + 39) = {12.42407399379487, 2.148481635979961, 0.1};
Spline(13) = {9, p13 + 1, p13 + 2, p13 + 3, p13 + 4, p13 + 5, p13 + 6, p13 + 7, p13 + 8, p13 + 9, p13 + 10, p13 + 11, p13 + 12, p13 + 13, p13 + 14, p13 + 15, p13 + 16, p13 + 17, p13 + 18, p13 + 19, p13 + 20, p13 + 21, p13 + 22, p13 + 23, p13 + 24, p13 + 25, p13 + 26, p13 + 27, p13 + 28, p13 + 29, p13 + 30, p13 + 31, p13 + 32, p13 + 33, p13 + 34, p13 + 35, p13 + 36, p13 + 37, p13 + 38, p13 + 39, 9};
Line(14) = {10, 9};
p15 = newp;
Point(p15 + 1) = {12.42407399379487, 2.444536364020039, 0};
Point(p15 + 2) = {12.38941083699642, 2.588918803063249, 0};
Point(p15 + 3) = {12.33258805156544, 2.726101142302544, 0};
Point(p15 + 4) = {12.25500480306325, 2.852705497263771, 0};
Point(p15 + 5) = {12.15857144855202, 2.96561444855202, 0};
Point(p15 + 6) = {12.04566249726377, 3.062047803063249, 0};
Point(p15 + 7) = {11.91905814230254, 3.139631051565436, 0};
Point(p15 + 8) = {11.78187580306325, 3.196453836996419, 0};
Point(p15 + 9) = {11.63749336402004, 3.231116993794874, 0};
Point(p15 + 10) = {11.489466, 3.242767, 0};
Point(p15 + 11) = {11.34143863597996, 3.231116993794874, 0};
Point(p15 + 12) = {11.19705619693675, 3.19645383699642, 0};
Point(p15 + 13) = {11.05987385769746, 3.139631051565436, 0};
Point(p15 + 14) = {10.93326950273623, 3.062047803063249, 0};
Point(p15 + 15) = {10.82036055144798, 2.96561444855202, 0};
Point(p15 + 16) = {10.72392719693675, 2.852705497263771, 0};
Point(p15 + 17) = {10.64634394843456, 2.726101142302544, 0};
Point(p15 + 18) = {10.58952116300358, 2.588918803063249, 0};
Point(p15 + 19) = {10.55485800620513, 2.444536364020039, 0};
Point(p15 + 20) = {10.543208, 2.296509, 0};
Point(p15 + 21) = {10.55485800620513, 2.148481635979961, 0};
Point(p15 + 22) = {10.58952116300358, 2.004099196936751, 0};
Point(p15 + 23) = {10.64634394843456, 1.866916857697456, 0};
Point(p15 + 24) = {10.72392719693675, 1.740312502736229, 0};
Point(p15 + 25) = {10.82036055144798, 1.62740355144798, 0};
Point(p15 + 26) = {10.93326950273623, 1.530970196936751, 0};
Point(p15 + 27) = {11.05987385769746, 1.453386948434563, 0};
Point(p15 + 28) = {11.19705619693675, 1.396564163003581, 0};
Point(p15 + 29) = {11.34143863597996, 1.361901006205126, 0};
Point(p15 + 30) = {11.489466, 1.350251, 0};
Point(p15 + 31) = {11.63749336402004, 1.361901006205126, 0};
Point(p15 + 32) = {11.78187580306325, 1.39656416300358, 0};
Point(p15 + 33) = {11.91905814230254, 1.453386948434563, 0};
Point(p15 + 34) = {12.04566249726377, 1.530970196936751, 0};
Point(p15 + 35) = {12.15857144855202, 1.62740355144798, 0};
Point(p15 + 36) = {12.25500480306325, 1.740312502736229, 0};
Point(p15 + 37) = {12.33258805156544, 1.866916857697456, 0};
Point(p15 + 38) = {12.38941083699642, 2.004099196936751, 0};
Point(p15 + 39) = {12.42407399379487, 2.148481635979961, 0};
Spline(15) = {10, p15 + 1, p15 + 2, p15 + 3, p15 + 4, p15 + 5, p15 + 6, p15 + 7, p15 + 8, p15 + 9, p15 + 10, p15 + 11, p15 + 12, p15 + 13, p15 + 14, p15 + 15, p15 + 16, p15 + 17, p15 + 18, p15 + 19, p15 + 20, p15 + 21, p15 + 22, p15 + 23, p15 + 24, p15 + 25, p15 + 26, p15 + 27, p15 + 28, p15 + 29, p15 + 30, p15 + 31, p15 + 32, p15 + 33, p15 + 34, p15 + 35, p15 + 36, p15 + 37, p15 + 38, p15 + 39, 10};
p16 = newp;
Point(p16 + 1) = {8.273790953873945, 1.165575516400913, 0.1};
Point(p16 + 2) = {8.246203124043559, 1.280487097650711, 0.1};
Point(p16 + 3) = {8.200978814438026, 1.38966823924935, 0.1};
Point(p16 + 4) = {8.13923159765071, 1.490430539139237, 0.1};
Point(p16 + 5) = {8.062481895086181, 1.580292895086182, 0.1};
Point(p16 + 6) = {7.972619539139236, 1.657042597650711, 0.1};
Point(p16 + 7) = {7.87185723924935, 1.718789814438026, 0.1};
Point(p16 + 8) = {7.762676097650711, 1.764014124043559, 0.1};
Point(p16 + 9) = {7.647764516400913, 1.791601953873945, 0.1};
Point(p16 + 10) = {7.529952, 1.800874, 0.1};
Point(p16 + 11) = {7.412139483599086, 1.791601953873945, 0.1};
Point(p16 + 12) = {7.297227902349289, 1.764014124043559, 0.1};
Point(p16 + 13) = {7.18804676075065, 1.718789814438026, 0.1};
Point(p16 + 14) = {7.087284460860763, 1.657042597650711, 0.1};
Point(p16 + 15) = {6.997422104913817, 1.580292895086182, 0.1};
Point(p16 + 16) = {6.920672402349289, 1.490430539139237, 0.1};
Point(p16 + 17) = {6.858925185561974, 1.38966823924935, 0.1};
Point(p16 + 18) = {6.813700875956441, 1.280487097650711, 0.1};
Point(p16 + 19) = {6.786113046126055, 1.165575516400913, 0.1};
Point(p16 + 20) = {6.776841, 1.047763, 0.1};
Point(p16 + 21) = {6.786113046126055, 0.9299504835990868, 0.1};
Point(p16 + 22) = {6.813700875956441, 0.8150389023492888, 0.1};
Point(p16 + 23) = {6.858925185561974, 0.7058577607506505, 0.1};
Point(p16 + 24) = {6.920672402349289, 0.6050954608607634, 0.1};
Point(p16 + 25) = {6.997422104913817, 0.515233104913818, 0.1};
Point(p16 + 26) = {7.087284460860763, 0.4384834023492891, 0.1};
Point(p16 + 27) = {7.18804676075065, 0.3767361855619742, 0.1};
Point(p16 + 28) = {7.297227902349289, 0.3315118759564406, 0.1};
Point(p16 + 29) = {7.412139483599086, 0.3039240461260553, 0.1};
Point(p16 + 30) = {7.529952, 0.294652, 0.1};
Point(p16 + 31) = {7.647764516400913, 0.3039240461260552, 0.1};
Point(p16 + 32) = {7.762676097650711, 0.3315118759564406, 0.1};
Point(p16 + 33) = {7.87185723924935, 0.376736185561974, 0.1};
Point(p16 + 34) = {7.972619539139236, 0.4384834023492888, 0.1};
Point(p16 + 35) = {8.062481895086181, 0.5152331049138179, 0.1};
Point(p16 + 36) = {8.13923159765071, 0.6050954608607633, 0.1};
Point(p16 + 37) = {8.200978814438026, 0.70585776075065, 0.1};
Point(p16 + 38) = {8.246203124043559, 0.8150389023492888, 0.1};
Point(p16 + 39) = {8.273790953873945, 0.9299504835990865, 0.1};
Spline(16) = {11, p16 + 1, p16 + 2, p16 + 3, p16 + 4, p16 + 5, p16 + 6, p16 + 7, p16 + 8, p16 + 9, p16 + 10, p16 + 11, p16 + 12, p16 + 13, p16 + 14, p16 + 15, p16 + 16, p16 + 17, p16 + 18, p16 + 19, p16 + 20, p16 + 21, p16 + 22, p16 + 23, p16 + 24, p16 + 25, p16 + 26, p16 + 27, p16 + 28, p16 + 29, p16 + 30, p16 + 31, p16 + 32, p16 + 33, p16 + 34, p16 + 35, p16 + 36, p16 + 37, p16 + 38, p16 + 39, 11};
Line(17) = {12, 11};
p18 = newp;
Point(p18 + 1) = {8.273790953873945, 1.165575516400913, 0};
Point(p18 + 2) = {8.246203124043559, 1.280487097650711, 0};
Point(p18 + 3) = {8.200978814438026, 1.38966823924935, 0};
Point(p18 + 4) = {8.13923159765071, 1.490430539139237, 0};
Point(p18 + 5) = {8.062481895086181, 1.580292895086182, 0};
Point(p18 + 6) = {7.972619539139236, 1.657042597650711, 0};
Point(p18 + 7) = {7.87185723924935, 1.718789814438026, 0};
Point(p18 + 8) = {7.762676097650711, 1.764014124043559, 0};
Point(p18 + 9) = {7.647764516400913, 1.791601953873945, 0};
Point(p18 + 10) = {7.529952, 1.800874, 0};
Point(p18 + 11) = {7.412139483599086, 1.791601953873945, 0};
Point(p18 + 12) = {7.297227902349289, 1.764014124043559, 0};
Point(p18 + 13) = {7.18804676075065, 1.718789814438026, 0};
Point(p18 + 14) = {7.087284460860763, 1.657042597650711, 0};
Point(p18 + 15) = {6.997422104913817, 1.580292895086182, 0};
Point(p18 + 16) = {6.920672402349289, 1.490430539139237, 0};
Point(p18 + 17) = {6.858925185561974, 1.38966823924935, 0};
Point(p18 + 18) = {6.813700875956441, 1.280487097650711, 0};
Point(p18 + 19) = {6.786113046126055, 1.165575516400913, 0};
Point(p18 + 20) = {6.776841, 1.047763, 0};
Point(p18 + 21) = {6.786113046126055, 0.9299504835990868, 0};
Point(p18 + 22) = {6.813700875956441, 0.8150389023492888, 0};
Point(p18 + 23) = {6.858925185561974, 0.7058577607506505, 0};
Point(p18 + 24) = {6.920672402349289, 0.6050954608607634, 0};
Point(p18 + 25) = {6.997422104913817, 0.515233104913818, 0};
Point(p18 + 26) = {7.087284460860763, 0.4384834023492891, 0};
Point(p18 + 27) = {7.18804676075065, 0.3767361855619742, 0};
Point(p18 + 28) = {7.297227902349289, 0.3315118759564406, 0};
Point(p18 + 29) = {7.412139483599086, 0.3039240461260553, 0};
Point(p18 + 30) = {7.529952, 0.294652, 0};
Point(p18 + 31) = {7.647764516400913, 0.3039240461260552, 0};
Point(p18 + 32) = {7.762676097650711, 0.3315118759564406, 0};
Point(p18 + 33) = {7.87185723924935, 0.376736185561974, 0};
Point(p18 + 34) = {7.972619539139236, 0.4384834023492888, 0};
Point(p18 + 35) = {8.062481895086181, 0.5152331049138179, 0};
Point(p18 + 36) = {8.13923159765071, 0.6050954608607633, 0};
Point(p18 + 37) = {8.200978814438026, 0.70585776075065, 0};
Point(p18 + 38) = {8.246203124043559, 0.8150389023492888, 0};
Point(p18 + 39) = {8.273790953873945, 0.9299504835990865, 0};
Spline(18) = {12, p18 + 1, p18 + 2, p18 + 3, p18 + 4, p18 + 5, p18 + 6, p18 + 7, p18 + 8, p18 + 9, p18 + 10, p18 + 11, p18 + 12, p18 + 13, p18 + 14, p18 + 15, p18 + 16, p18 + 17, p18 + 18, p18 + 19, p18 + 20, p18 + 21, p18 + 22, p18 + 23, p18 + 24, p18 + 25, p18 + 26, p18 + 27, p18 + 28, p18 + 29, p18 + 30, p18 + 31, p18 + 32, p18 + 33, p18 + 34, p18 + 35, p18 + 36, p18 + 37, p18 + 38, p18 + 39, 12};
Line(19) = {14, 13};
Line(20) = {13, 15};
Line(21) = {16, 15};
Line(22) = {14, 16};
Line(23) = {14, 17};
Line(24) = {17, 18};
Line(25) = {13, 18};
Line(26) = {15, 19};
Line(27) = {18, 19};
Line(28) = {16, 20};
Line(29) = {20, 19};
Line(30) = {17, 20};
Curve Loop(7) = {-13, -14, 15, 14};
Surface(7) = {7};
Curve Loop(8) = {13};
Plane Surface(8) = {8};
Curve Loop(9) = {15};
Plane Surface(9) = {9};
Curve Loop(10) = {-16, -17, 18, 17};
Surface(10) = {10};
Curve Loop(11) = {16};
Plane Surface(11) = {11};
Curve Loop(12) = {18};
Plane Surface(12) = {12};
Curve Loop(13) = {-19, 22, 21, -20};
Plane Surface(13) = {13};
Curve Loop(14) = {-23, 19, 25, -24};
Plane Surface(14) = {14};
Curve Loop(15) = {-20, 25, 27, -26, -16, -13};
Plane Surface(15) = {15};
Curve Loop(16) = {-28, 21, 26, -29};
Plane Surface(16) = {16};
Curve Loop(17) = {-22, 23, 30, -28, -18, -15};
Plane Surface(17) = {17};
Curve Loop(18) = {-24, 30, 29, -27};
Plane Surface(18) = {18};
Surface Loop(1) = {13, 14, 15, 16, 17, 18, 10, 7};
Volume(1) = {1};
Surface Loop(2) = {7, 8, 9};
Volume(2) = {2};
Surface Loop(3) = {10, 11, 12};
Volume(3) = {3};
Physical Surface("WALLS") = {13, 18};
Physical Surface("LOAD") = {8, 11};
Physical Surface("BORDER") = {7, 9, 10, 12, 14, 15, 16, 17};
Physical Volume("SOLID") = {1, 2, 3};
