cl__1 = 0.112535;
cl__2 = 0.112619;
cl__3 = 1.052301;
cl__4 = 1.346322;
cl__5 = 0.988773;
cl__6 = 0.889883;
Point(9) = {20.38049, 2.138115, 0.1, cl__1};
Point(10) = {20.38049, 2.138115, 0, cl__1};
Point(11) = {14.860305, -1.60727, 0.1, cl__2};
Point(12) = {14.860305, -1.60727, 0, cl__2};
Point(13) = {0.334303, -3.79754, 1, cl__3};
Point(14) = {0.334303, -3.79754, 0, cl__3};
Point(15) = {0.334303, 4.298358, 1, cl__4};
Point(16) = {0.334303, 4.298358, 0, cl__4};
Point(17) = {31.078407, -3.79754, 0, cl__5};
Point(18) = {31.078407, -3.79754, 1, cl__5};
Point(19) = {31.078407, 4.298358, 1, cl__6};
Point(20) = {31.078407, 4.298358, 0, cl__6};
p13 = newp;
Point(p13 + 1) = {20.3666350864004, 2.314158368798559, 0.1};
Point(p13 + 2) = {20.32541149955623, 2.485866965602852, 0.1};
Point(p13 + 3) = {20.25783430098885, 2.649012754891399, 0.1};
Point(p13 + 4) = {20.16556746560285, 2.799578545882082, 0.1};
Point(p13 + 5) = {20.0508829091015, 2.9338569091015, 0.1};
Point(p13 + 6) = {19.91660454588208, 3.048541465602852, 0.1};
Point(p13 + 7) = {19.7660387548914, 3.140808300988855, 0.1};
Point(p13 + 8) = {19.60289296560285, 3.208385499556234, 0.1};
Point(p13 + 9) = {19.43118436879856, 3.249609086400397, 0.1};
Point(p13 + 10) = {19.255141, 3.263464, 0.1};
Point(p13 + 11) = {19.07909763120144, 3.249609086400397, 0.1};
Point(p13 + 12) = {18.90738903439714, 3.208385499556235, 0.1};
Point(p13 + 13) = {18.7442432451086, 3.140808300988856, 0.1};
Point(p13 + 14) = {18.59367745411792, 3.048541465602852, 0.1};
Point(p13 + 15) = {18.4593990908985, 2.9338569091015, 0.1};
Point(p13 + 16) = {18.34471453439714, 2.799578545882083, 0.1};
Point(p13 + 17) = {18.25244769901114, 2.649012754891399, 0.1};
Point(p13 + 18) = {18.18487050044376, 2.485866965602853, 0.1};
Point(p13 + 19) = {18.1436469135996, 2.314158368798559, 0.1};
Point(p13 + 20) = {18.129792, 2.138115, 0.1};
Point(p13 + 21) = {18.1436469135996, 1.962071631201441, 0.1};
Point(p13 + 22) = {18.18487050044376, 1.790363034397147, 0.1};
Point(p13 + 23) = {18.25244769901114, 1.627217245108601, 0.1};
Point(p13 + 24) = {18.34471453439714, 1.476651454117918, 0.1};
Point(p13 + 25) = {18.4593990908985, 1.3423730908985, 0.1};
Point(p13 + 26) = {18.59367745411792, 1.227688534397148, 0.1};
Point(p13 + 27) = {18.7442432451086, 1.135421699011145, 0.1};
Point(p13 + 28) = {18.90738903439714, 1.067844500443765, 0.1};
Point(p13 + 29) = {19.07909763120144, 1.026620913599603, 0.1};
Point(p13 + 30) = {19.255141, 1.012766, 0.1};
Point(p13 + 31) = {19.43118436879856, 1.026620913599602, 0.1};
Point(p13 + 32) = {19.60289296560285, 1.067844500443765, 0.1};
Point(p13 + 33) = {19.7660387548914, 1.135421699011144, 0.1};
Point(p13 + 34) = {19.91660454588208, 1.227688534397147, 0.1};
Point(p13 + 35) = {20.0508829091015, 1.3423730908985, 0.1};
Point(p13 + 36) = {20.16556746560285, 1.476651454117917, 0.1};
Point(p13 + 37) = {20.25783430098885, 1.6272172451086, 0.1};
Point(p13 + 38) = {20.32541149955623, 1.790363034397147, 0.1};
Point(p13 + 39) = {20.3666350864004, 1.962071631201441, 0.1};
Spline(13) = {9, p13 + 1, p13 + 2, p13 + 3, p13 + 4, p13 + 5, p13 + 6, p13 + 7, p13 + 8, p13 + 9, p13 + 10, p13 + 11, p13 + 12, p13 + 13, p13 + 14, p13 + 15, p13 + 16, p13 + 17, p13 + 18, p13 + 19, p13 + 20, p13 + 21, p13 + 22, p13 + 23, p13 + 24, p13 + 25, p13 + 26, p13 + 27, p13 + 28, p13 + 29, p13 + 30, p13 + 31, p13 + 32, p13 + 33, p13 + 34, p13 + 35, p13 + 36, p13 + 37, p13 + 38, p13 + 39, 9};
Line(14) = {10, 9};
p15 = newp;
Point(p15 + 1) = {20.3666350864004, 2.314158368798559, 0};
Point(p15 + 2) = {20.32541149955623, 2.485866965602852, 0};
Point(p15 + 3) = {20.25783430098885, 2.649012754891399, 0};
Point(p15 + 4) = {20.16556746560285, 2.799578545882082, 0};
Point(p15 + 5) = {20.0508829091015, 2.9338569091015, 0};
Point(p15 + 6) = {19.91660454588208, 3.048541465602852, 0};
Point(p15 + 7) = {19.7660387548914, 3.140808300988855, 0};
Point(p15 + 8) = {19.60289296560285, 3.208385499556234, 0};
Point(p15 + 9) = {19.43118436879856, 3.249609086400397, 0};
Point(p15 + 10) = {19.255141, 3.263464, 0};
Point(p15 + 11) = {19.07909763120144, 3.249609086400397, 0};
Point(p15 + 12) = {18.90738903439714, 3.208385499556235, 0};
Point(p15 + 13) = {18.7442432451086, 3.140808300988856, 0};
Point(p15 + 14) = {18.59367745411792, 3.048541465602852, 0};
Point(p15 + 15) = {18.4593990908985, 2.9338569091015, 0};
Point(p15 + 16) = {18.34471453439714, 2.799578545882083, 0};
Point(p15 + 17) = {18.25244769901114, 2.649012754891399, 0};
Point(p15 + 18) = {18.18487050044376, 2.485866965602853, 0};
Point(p15 + 19) = {18.1436469135996, 2.314158368798559, 0};
Point(p15 + 20) = {18.129792, 2.138115, 0};
Point(p15 + 21) = {18.1436469135996, 1.962071631201441, 0};
Point(p15 + 22) = {18.18487050044376, 1.790363034397147, 0};
Point(p15 + 23) = {18.25244769901114, 1.627217245108601, 0};
Point(p15 + 24) = {18.34471453439714, 1.476651454117918, 0};
Point(p15 + 25) = {18.4593990908985, 1.3423730908985, 0};
Point(p15 + 26) = {18.59367745411792, 1.227688534397148, 0};
Point(p15 + 27) = {18.7442432451086, 1.135421699011145, 0};
Point(p15 + 28) = {18.90738903439714, 1.067844500443765, 0};
Point(p15 + 29) = {19.07909763120144, 1.026620913599603, 0};
Point(p15 + 30) = {19.255141, 1.012766, 0};
Point(p15 + 31) = {19.43118436879856, 1.026620913599602, 0};
Point(p15 + 32) = {19.60289296560285, 1.067844500443765, 0};
Point(p15 + 33) = {19.7660387548914, 1.135421699011144, 0};
Point(p15 + 34) = {19.91660454588208, 1.227688534397147, 0};
Point(p15 + 35) = {20.0508829091015, 1.3423730908985, 0};
Point(p15 + 36) = {20.16556746560285, 1.476651454117917, 0};
Point(p15 + 37) = {20.25783430098885, 1.6272172451086, 0};
Point(p15 + 38) = {20.32541149955623, 1.790363034397147, 0};
Point(p15 + 39) = {20.3666350864004, 1.962071631201441, 0};
Spline(15) = {10, p15 + 1, p15 + 2, p15 + 3, p15 + 4, p15 + 5, p15 + 6, p15 + 7, p15 + 8, p15 + 9, p15 + 10, p15 + 11, p15 + 12, p15 + 13, p15 + 14, p15 + 15, p15 + 16, p15 + 17, p15 + 18, p15 + 19, p15 + 20, p15 + 21, p15 + 22, p15 + 23, p15 + 24, p15 + 25, p15 + 26, p15 + 27, p15 + 28, p15 + 29, p15 + 30, p15 + 31, p15 + 32, p15 + 33, p15 + 34, p15 + 35, p15 + 36, p15 + 37, p15 + 38, p15 + 39, 10};
p16 = newp;
Point(p16 + 1) = {14.84643979385314, -1.431095851988668, 0.1};
Point(p16 + 2) = {14.80518558280386, -1.25925969618985, 0.1};
Point(p16 + 3) = {14.73755818244308, -1.095992709050818, 0.1};
Point(p16 + 4) = {14.64522280381015, -0.9453150656470011, 0.1};
Point(p16 + 5) = {14.53045305037057, -0.8109369496294281, 0.1};
Point(p16 + 6) = {14.396074934353, -0.6961671961898499, 0.1};
Point(p16 + 7) = {14.24539729094918, -0.6038318175569231, 0.1};
Point(p16 + 8) = {14.08213030381015, -0.5362044171961424, 0.1};
Point(p16 + 9) = {13.91029414801133, -0.4949502061468647, 0.1};
Point(p16 + 10) = {13.73412, -0.481085, 0.1};
Point(p16 + 11) = {13.55794585198867, -0.4949502061468649, 0.1};
Point(p16 + 12) = {13.38610969618985, -0.5362044171961424, 0.1};
Point(p16 + 13) = {13.22284270905082, -0.6038318175569228, 0.1};
Point(p16 + 14) = {13.072165065647, -0.6961671961898498, 0.1};
Point(p16 + 15) = {12.93778694962943, -0.8109369496294279, 0.1};
Point(p16 + 16) = {12.82301719618985, -0.945315065647001, 0.1};
Point(p16 + 17) = {12.73068181755692, -1.095992709050818, 0.1};
Point(p16 + 18) = {12.66305441719614, -1.25925969618985, 0.1};
Point(p16 + 19) = {12.62180020614687, -1.431095851988667, 0.1};
Point(p16 + 20) = {12.607935, -1.60727, 0.1};
Point(p16 + 21) = {12.62180020614687, -1.783444148011332, 0.1};
Point(p16 + 22) = {12.66305441719614, -1.95528030381015, 0.1};
Point(p16 + 23) = {12.73068181755692, -2.118547290949181, 0.1};
Point(p16 + 24) = {12.82301719618985, -2.269224934352999, 0.1};
Point(p16 + 25) = {12.93778694962943, -2.403603050370572, 0.1};
Point(p16 + 26) = {13.072165065647, -2.51837280381015, 0.1};
Point(p16 + 27) = {13.22284270905082, -2.610708182443077, 0.1};
Point(p16 + 28) = {13.38610969618985, -2.678335582803857, 0.1};
Point(p16 + 29) = {13.55794585198867, -2.719589793853135, 0.1};
Point(p16 + 30) = {13.73412, -2.733455, 0.1};
Point(p16 + 31) = {13.91029414801133, -2.719589793853135, 0.1};
Point(p16 + 32) = {14.08213030381015, -2.678335582803857, 0.1};
Point(p16 + 33) = {14.24539729094918, -2.610708182443077, 0.1};
Point(p16 + 34) = {14.396074934353, -2.51837280381015, 0.1};
Point(p16 + 35) = {14.53045305037057, -2.403603050370572, 0.1};
Point(p16 + 36) = {14.64522280381015, -2.269224934352999, 0.1};
Point(p16 + 37) = {14.73755818244308, -2.118547290949182, 0.1};
Point(p16 + 38) = {14.80518558280386, -1.95528030381015, 0.1};
Point(p16 + 39) = {14.84643979385314, -1.783444148011333, 0.1};
Spline(16) = {11, p16 + 1, p16 + 2, p16 + 3, p16 + 4, p16 + 5, p16 + 6, p16 + 7, p16 + 8, p16 + 9, p16 + 10, p16 + 11, p16 + 12, p16 + 13, p16 + 14, p16 + 15, p16 + 16, p16 + 17, p16 + 18, p16 + 19, p16 + 20, p16 + 21, p16 + 22, p16 + 23, p16 + 24, p16 + 25, p16 + 26, p16 + 27, p16 + 28, p16 + 29, p16 + 30, p16 + 31, p16 + 32, p16 + 33, p16 + 34, p16 + 35, p16 + 36, p16 + 37, p16 + 38, p16 + 39, 11};
Line(17) = {12, 11};
p18 = newp;
Point(p18 + 1) = {14.84643979385314, -1.431095851988668, 0};
Point(p18 + 2) = {14.80518558280386, -1.25925969618985, 0};
Point(p18 + 3) = {14.73755818244308, -1.095992709050818, 0};
Point(p18 + 4) = {14.64522280381015, -0.9453150656470011, 0};
Point(p18 + 5) = {14.53045305037057, -0.8109369496294281, 0};
Point(p18 + 6) = {14.396074934353, -0.6961671961898499, 0};
Point(p18 + 7) = {14.24539729094918, -0.6038318175569231, 0};
Point(p18 + 8) = {14.08213030381015, -0.5362044171961424, 0};
Point(p18 + 9) = {13.91029414801133, -0.4949502061468647, 0};
Point(p18 + 10) = {13.73412, -0.481085, 0};
Point(p18 + 11) = {13.55794585198867, -0.4949502061468649, 0};
Point(p18 + 12) = {13.38610969618985, -0.5362044171961424, 0};
Point(p18 + 13) = {13.22284270905082, -0.6038318175569228, 0};
Point(p18 + 14) = {13.072165065647, -0.6961671961898498, 0};
Point(p18 + 15) = {12.93778694962943, -0.8109369496294279, 0};
Point(p18 + 16) = {12.82301719618985, -0.945315065647001, 0};
Point(p18 + 17) = {12.73068181755692, -1.095992709050818, 0};
Point(p18 + 18) = {12.66305441719614, -1.25925969618985, 0};
Point(p18 + 19) = {12.62180020614687, -1.431095851988667, 0};
Point(p18 + 20) = {12.607935, -1.60727, 0};
Point(p18 + 21) = {12.62180020614687, -1.783444148011332, 0};
Point(p18 + 22) = {12.66305441719614, -1.95528030381015, 0};
Point(p18 + 23) = {12.73068181755692, -2.118547290949181, 0};
Point(p18 + 24) = {12.82301719618985, -2.269224934352999, 0};
Point(p18 + 25) = {12.93778694962943, -2.403603050370572, 0};
Point(p18 + 26) = {13.072165065647, -2.51837280381015, 0};
Point(p18 + 27) = {13.22284270905082, -2.610708182443077, 0};
Point(p18 + 28) = {13.38610969618985, -2.678335582803857, 0};
Point(p18 + 29) = {13.55794585198867, -2.719589793853135, 0};
Point(p18 + 30) = {13.73412, -2.733455, 0};
Point(p18 + 31) = {13.91029414801133, -2.719589793853135, 0};
Point(p18 + 32) = {14.08213030381015, -2.678335582803857, 0};
Point(p18 + 33) = {14.24539729094918, -2.610708182443077, 0};
Point(p18 + 34) = {14.396074934353, -2.51837280381015, 0};
Point(p18 + 35) = {14.53045305037057, -2.403603050370572, 0};
Point(p18 + 36) = {14.64522280381015, -2.269224934352999, 0};
Point(p18 + 37) = {14.73755818244308, -2.118547290949182, 0};
Point(p18 + 38) = {14.80518558280386, -1.95528030381015, 0};
Point(p18 + 39) = {14.84643979385314, -1.783444148011333, 0};
Spline(18) = {12, p18 + 1, p18 + 2, p18 + 3, p18 + 4, p18 + 5, p18 + 6, p18 + 7, p18 + 8, p18 + 9, p18 + 10, p18 + 11, p18 + 12, p18 + 13, p18 + 14, p18 + 15, p18 + 16, p18 + 17, p18 + 18, p18 + 19, p18 + 20, p18 + 21, p18 + 22, p18 + 23, p18 + 24, p18 + 25, p18 + 26, p18 + 27, p18 + 28, p18 + 29, p18 + 30, p18 + 31, p18 + 32, p18 + 33, p18 + 34, p18 + 35, p18 + 36, p18 + 37, p18 + 38, p18 + 39, 12};
Line(19) = {14, 13};
Line(20) = {13, 15};
Line(21) = {16, 15};
Line(22) = {14, 16};
Line(23) = {14, 17};
Line(24) = {17, 18};
Line(25) = {13, 18};
Line(26) = {15, 19};
Line(27) = {18, 19};
Line(28) = {16, 20};
Line(29) = {20, 19};
Line(30) = {17, 20};
Curve Loop(7) = {-13, -14, 15, 14};
Surface(7) = {7};
Curve Loop(8) = {13};
Plane Surface(8) = {8};
Curve Loop(9) = {15};
Plane Surface(9) = {9};
Curve Loop(10) = {-16, -17, 18, 17};
Surface(10) = {10};
Curve Loop(11) = {16};
Plane Surface(11) = {11};
Curve Loop(12) = {18};
Plane Surface(12) = {12};
Curve Loop(13) = {-19, 22, 21, -20};
Plane Surface(13) = {13};
Curve Loop(14) = {-23, 19, 25, -24};
Plane Surface(14) = {14};
Curve Loop(15) = {-20, 25, 27, -26};
Plane Surface(15) = {15};
Curve Loop(16) = {-28, 21, 26, -29};
Plane Surface(16) = {16};
Curve Loop(17) = {-22, 23, 30, -28, -18, -15};
Plane Surface(17) = {17};
Curve Loop(18) = {-24, 30, 29, -27};
Plane Surface(18) = {18};
Surface Loop(1) = {13, 14, 15, 16, 17, 18, 10, 7, 11, 8};
Volume(1) = {1};
Surface Loop(2) = {7, 8, 9};
Volume(2) = {2};
Surface Loop(3) = {10, 11, 12};
Volume(3) = {3};
Physical Surface("WALLS") = {13, 18};
Physical Surface("LOAD") = {8, 11};
Physical Surface("BORDER") = {7, 9, 10, 12, 14, 15, 16, 17};
Physical Volume("SOLID") = {1, 2, 3};
