cl__1 = 0.144572;
cl__2 = 0.09389699999999999;
cl__3 = 3.922495;
cl__4 = 3.853953;
cl__5 = 0.452304;
cl__6 = 0.402773;
Point(9) = {29.657829, 0.7323329999999997, 0.1, cl__1};
Point(10) = {29.657829, 0.7323329999999997, 0, cl__1};
Point(11) = {33.457516, 1.05404, 0.1, cl__2};
Point(12) = {33.457516, 1.05404, 0, cl__2};
Point(13) = {0.70679, -3.595875, 0.1, cl__3};
Point(14) = {0.70679, -3.595875, 0, cl__3};
Point(15) = {0.70679, 3.917352, 0.1, cl__4};
Point(16) = {0.70679, 3.917352, 0, cl__4};
Point(17) = {39.645703, -3.595875, 0, cl__5};
Point(18) = {39.645703, -3.595875, 0.1, cl__5};
Point(19) = {39.645703, 3.917352, 0.1, cl__6};
Point(20) = {39.645703, 3.917352, 0, cl__6};
p13 = newp;
Point(p13 + 1) = {29.64002983701184, 0.9584928090601024, 0.1};
Point(p13 + 2) = {29.58707062251216, 1.179083813039771, 0.1};
Point(p13 + 3) = {29.50025538812351, 1.388674329321459, 0.1};
Point(p13 + 4) = {29.38172181303977, 1.582103543803265, 0.1};
Point(p13 + 5) = {29.23438858726989, 1.754608587269891, 0.1};
Point(p13 + 6) = {29.06188354380327, 1.901941813039771, 0.1};
Point(p13 + 7) = {28.86845432932146, 2.02047538812351, 0.1};
Point(p13 + 8) = {28.65886381303977, 2.107290622512164, 0.1};
Point(p13 + 9) = {28.4382728090601, 2.16024983701184, 0.1};
Point(p13 + 10) = {28.212113, 2.178049, 0.1};
Point(p13 + 11) = {27.9859531909399, 2.16024983701184, 0.1};
Point(p13 + 12) = {27.76536218696023, 2.107290622512164, 0.1};
Point(p13 + 13) = {27.55577167067854, 2.02047538812351, 0.1};
Point(p13 + 14) = {27.36234245619674, 1.901941813039771, 0.1};
Point(p13 + 15) = {27.18983741273011, 1.754608587269891, 0.1};
Point(p13 + 16) = {27.04250418696023, 1.582103543803265, 0.1};
Point(p13 + 17) = {26.92397061187649, 1.388674329321459, 0.1};
Point(p13 + 18) = {26.83715537748784, 1.179083813039772, 0.1};
Point(p13 + 19) = {26.78419616298816, 0.9584928090601026, 0.1};
Point(p13 + 20) = {26.766397, 0.7323330000000002, 0.1};
Point(p13 + 21) = {26.78419616298816, 0.5061731909398978, 0.1};
Point(p13 + 22) = {26.83715537748784, 0.2855821869602281, 0.1};
Point(p13 + 23) = {26.92397061187649, 0.07599167067854207, 0.1};
Point(p13 + 24) = {27.04250418696023, -0.1174375438032649, 0.1};
Point(p13 + 25) = {27.18983741273011, -0.2899425872698905, 0.1};
Point(p13 + 26) = {27.36234245619673, -0.4372758130397713, 0.1};
Point(p13 + 27) = {27.55577167067854, -0.5558093881235103, 0.1};
Point(p13 + 28) = {27.76536218696023, -0.6426246225121642, 0.1};
Point(p13 + 29) = {27.9859531909399, -0.69558383701184, 0.1};
Point(p13 + 30) = {28.212113, -0.713383, 0.1};
Point(p13 + 31) = {28.4382728090601, -0.6955838370118402, 0.1};
Point(p13 + 32) = {28.65886381303977, -0.6426246225121642, 0.1};
Point(p13 + 33) = {28.86845432932146, -0.5558093881235106, 0.1};
Point(p13 + 34) = {29.06188354380326, -0.4372758130397717, 0.1};
Point(p13 + 35) = {29.23438858726989, -0.289942587269891, 0.1};
Point(p13 + 36) = {29.38172181303977, -0.1174375438032652, 0.1};
Point(p13 + 37) = {29.50025538812351, 0.07599167067854107, 0.1};
Point(p13 + 38) = {29.58707062251216, 0.2855821869602282, 0.1};
Point(p13 + 39) = {29.64002983701184, 0.5061731909398972, 0.1};
Spline(13) = {9, p13 + 1, p13 + 2, p13 + 3, p13 + 4, p13 + 5, p13 + 6, p13 + 7, p13 + 8, p13 + 9, p13 + 10, p13 + 11, p13 + 12, p13 + 13, p13 + 14, p13 + 15, p13 + 16, p13 + 17, p13 + 18, p13 + 19, p13 + 20, p13 + 21, p13 + 22, p13 + 23, p13 + 24, p13 + 25, p13 + 26, p13 + 27, p13 + 28, p13 + 29, p13 + 30, p13 + 31, p13 + 32, p13 + 33, p13 + 34, p13 + 35, p13 + 36, p13 + 37, p13 + 38, p13 + 39, 9};
Line(14) = {10, 9};
p15 = newp;
Point(p15 + 1) = {29.64002983701184, 0.9584928090601024, 0};
Point(p15 + 2) = {29.58707062251216, 1.179083813039771, 0};
Point(p15 + 3) = {29.50025538812351, 1.388674329321459, 0};
Point(p15 + 4) = {29.38172181303977, 1.582103543803265, 0};
Point(p15 + 5) = {29.23438858726989, 1.754608587269891, 0};
Point(p15 + 6) = {29.06188354380327, 1.901941813039771, 0};
Point(p15 + 7) = {28.86845432932146, 2.02047538812351, 0};
Point(p15 + 8) = {28.65886381303977, 2.107290622512164, 0};
Point(p15 + 9) = {28.4382728090601, 2.16024983701184, 0};
Point(p15 + 10) = {28.212113, 2.178049, 0};
Point(p15 + 11) = {27.9859531909399, 2.16024983701184, 0};
Point(p15 + 12) = {27.76536218696023, 2.107290622512164, 0};
Point(p15 + 13) = {27.55577167067854, 2.02047538812351, 0};
Point(p15 + 14) = {27.36234245619674, 1.901941813039771, 0};
Point(p15 + 15) = {27.18983741273011, 1.754608587269891, 0};
Point(p15 + 16) = {27.04250418696023, 1.582103543803265, 0};
Point(p15 + 17) = {26.92397061187649, 1.388674329321459, 0};
Point(p15 + 18) = {26.83715537748784, 1.179083813039772, 0};
Point(p15 + 19) = {26.78419616298816, 0.9584928090601026, 0};
Point(p15 + 20) = {26.766397, 0.7323330000000002, 0};
Point(p15 + 21) = {26.78419616298816, 0.5061731909398978, 0};
Point(p15 + 22) = {26.83715537748784, 0.2855821869602281, 0};
Point(p15 + 23) = {26.92397061187649, 0.07599167067854207, 0};
Point(p15 + 24) = {27.04250418696023, -0.1174375438032649, 0};
Point(p15 + 25) = {27.18983741273011, -0.2899425872698905, 0};
Point(p15 + 26) = {27.36234245619673, -0.4372758130397713, 0};
Point(p15 + 27) = {27.55577167067854, -0.5558093881235103, 0};
Point(p15 + 28) = {27.76536218696023, -0.6426246225121642, 0};
Point(p15 + 29) = {27.9859531909399, -0.69558383701184, 0};
Point(p15 + 30) = {28.212113, -0.713383, 0};
Point(p15 + 31) = {28.4382728090601, -0.6955838370118402, 0};
Point(p15 + 32) = {28.65886381303977, -0.6426246225121642, 0};
Point(p15 + 33) = {28.86845432932146, -0.5558093881235106, 0};
Point(p15 + 34) = {29.06188354380326, -0.4372758130397717, 0};
Point(p15 + 35) = {29.23438858726989, -0.289942587269891, 0};
Point(p15 + 36) = {29.38172181303977, -0.1174375438032652, 0};
Point(p15 + 37) = {29.50025538812351, 0.07599167067854107, 0};
Point(p15 + 38) = {29.58707062251216, 0.2855821869602282, 0};
Point(p15 + 39) = {29.64002983701184, 0.5061731909398972, 0};
Spline(15) = {10, p15 + 1, p15 + 2, p15 + 3, p15 + 4, p15 + 5, p15 + 6, p15 + 7, p15 + 8, p15 + 9, p15 + 10, p15 + 11, p15 + 12, p15 + 13, p15 + 14, p15 + 15, p15 + 16, p15 + 17, p15 + 18, p15 + 19, p15 + 20, p15 + 21, p15 + 22, p15 + 23, p15 + 24, p15 + 25, p15 + 26, p15 + 27, p15 + 28, p15 + 29, p15 + 30, p15 + 31, p15 + 32, p15 + 33, p15 + 34, p15 + 35, p15 + 36, p15 + 37, p15 + 38, p15 + 39, 10};
p16 = newp;
Point(p16 + 1) = {33.4459556965453, 1.200927582507756, 0.1};
Point(p16 + 2) = {33.41155943921869, 1.344198305242233, 0.1};
Point(p16 + 3) = {33.3551741780302, 1.480324367521442, 0.1};
Point(p16 + 4) = {33.27818830524223, 1.605953893915568, 0.1};
Point(p16 + 5) = {33.18249746854429, 1.717993468544295, 0.1};
Point(p16 + 6) = {33.07045789391557, 1.813684305242233, 0.1};
Point(p16 + 7) = {32.94482836752144, 1.8906701780302, 0.1};
Point(p16 + 8) = {32.80870230524224, 1.947055439218693, 0.1};
Point(p16 + 9) = {32.66543158250776, 1.981451696545298, 0.1};
Point(p16 + 10) = {32.518544, 1.993012, 0.1};
Point(p16 + 11) = {32.37165641749224, 1.981451696545298, 0.1};
Point(p16 + 12) = {32.22838569475777, 1.947055439218693, 0.1};
Point(p16 + 13) = {32.09225963247856, 1.8906701780302, 0.1};
Point(p16 + 14) = {31.96663010608443, 1.813684305242233, 0.1};
Point(p16 + 15) = {31.8545905314557, 1.717993468544295, 0.1};
Point(p16 + 16) = {31.75889969475777, 1.605953893915568, 0.1};
Point(p16 + 17) = {31.6819138219698, 1.480324367521442, 0.1};
Point(p16 + 18) = {31.62552856078131, 1.344198305242233, 0.1};
Point(p16 + 19) = {31.5911323034547, 1.200927582507756, 0.1};
Point(p16 + 20) = {31.579572, 1.05404, 0.1};
Point(p16 + 21) = {31.5911323034547, 0.9071524174922445, 0.1};
Point(p16 + 22) = {31.62552856078131, 0.7638816947577667, 0.1};
Point(p16 + 23) = {31.6819138219698, 0.6277556324785588, 0.1};
Point(p16 + 24) = {31.75889969475777, 0.5021261060844321, 0.1};
Point(p16 + 25) = {31.8545905314557, 0.3900865314557053, 0.1};
Point(p16 + 26) = {31.96663010608443, 0.2943956947577671, 0.1};
Point(p16 + 27) = {32.09225963247856, 0.2174098219698, 0.1};
Point(p16 + 28) = {32.22838569475776, 0.1610245607813071, 0.1};
Point(p16 + 29) = {32.37165641749224, 0.1266283034547024, 0.1};
Point(p16 + 30) = {32.518544, 0.1150680000000001, 0.1};
Point(p16 + 31) = {32.66543158250776, 0.1266283034547023, 0.1};
Point(p16 + 32) = {32.80870230524223, 0.161024560781307, 0.1};
Point(p16 + 33) = {32.94482836752144, 0.2174098219697997, 0.1};
Point(p16 + 34) = {33.07045789391557, 0.2943956947577668, 0.1};
Point(p16 + 35) = {33.18249746854429, 0.390086531455705, 0.1};
Point(p16 + 36) = {33.27818830524223, 0.5021261060844319, 0.1};
Point(p16 + 37) = {33.3551741780302, 0.6277556324785583, 0.1};
Point(p16 + 38) = {33.41155943921869, 0.7638816947577667, 0.1};
Point(p16 + 39) = {33.4459556965453, 0.9071524174922442, 0.1};
Spline(16) = {11, p16 + 1, p16 + 2, p16 + 3, p16 + 4, p16 + 5, p16 + 6, p16 + 7, p16 + 8, p16 + 9, p16 + 10, p16 + 11, p16 + 12, p16 + 13, p16 + 14, p16 + 15, p16 + 16, p16 + 17, p16 + 18, p16 + 19, p16 + 20, p16 + 21, p16 + 22, p16 + 23, p16 + 24, p16 + 25, p16 + 26, p16 + 27, p16 + 28, p16 + 29, p16 + 30, p16 + 31, p16 + 32, p16 + 33, p16 + 34, p16 + 35, p16 + 36, p16 + 37, p16 + 38, p16 + 39, 11};
Line(17) = {12, 11};
p18 = newp;
Point(p18 + 1) = {33.4459556965453, 1.200927582507756, 0};
Point(p18 + 2) = {33.41155943921869, 1.344198305242233, 0};
Point(p18 + 3) = {33.3551741780302, 1.480324367521442, 0};
Point(p18 + 4) = {33.27818830524223, 1.605953893915568, 0};
Point(p18 + 5) = {33.18249746854429, 1.717993468544295, 0};
Point(p18 + 6) = {33.07045789391557, 1.813684305242233, 0};
Point(p18 + 7) = {32.94482836752144, 1.8906701780302, 0};
Point(p18 + 8) = {32.80870230524224, 1.947055439218693, 0};
Point(p18 + 9) = {32.66543158250776, 1.981451696545298, 0};
Point(p18 + 10) = {32.518544, 1.993012, 0};
Point(p18 + 11) = {32.37165641749224, 1.981451696545298, 0};
Point(p18 + 12) = {32.22838569475777, 1.947055439218693, 0};
Point(p18 + 13) = {32.09225963247856, 1.8906701780302, 0};
Point(p18 + 14) = {31.96663010608443, 1.813684305242233, 0};
Point(p18 + 15) = {31.8545905314557, 1.717993468544295, 0};
Point(p18 + 16) = {31.75889969475777, 1.605953893915568, 0};
Point(p18 + 17) = {31.6819138219698, 1.480324367521442, 0};
Point(p18 + 18) = {31.62552856078131, 1.344198305242233, 0};
Point(p18 + 19) = {31.5911323034547, 1.200927582507756, 0};
Point(p18 + 20) = {31.579572, 1.05404, 0};
Point(p18 + 21) = {31.5911323034547, 0.9071524174922445, 0};
Point(p18 + 22) = {31.62552856078131, 0.7638816947577667, 0};
Point(p18 + 23) = {31.6819138219698, 0.6277556324785588, 0};
Point(p18 + 24) = {31.75889969475777, 0.5021261060844321, 0};
Point(p18 + 25) = {31.8545905314557, 0.3900865314557053, 0};
Point(p18 + 26) = {31.96663010608443, 0.2943956947577671, 0};
Point(p18 + 27) = {32.09225963247856, 0.2174098219698, 0};
Point(p18 + 28) = {32.22838569475776, 0.1610245607813071, 0};
Point(p18 + 29) = {32.37165641749224, 0.1266283034547024, 0};
Point(p18 + 30) = {32.518544, 0.1150680000000001, 0};
Point(p18 + 31) = {32.66543158250776, 0.1266283034547023, 0};
Point(p18 + 32) = {32.80870230524223, 0.161024560781307, 0};
Point(p18 + 33) = {32.94482836752144, 0.2174098219697997, 0};
Point(p18 + 34) = {33.07045789391557, 0.2943956947577668, 0};
Point(p18 + 35) = {33.18249746854429, 0.390086531455705, 0};
Point(p18 + 36) = {33.27818830524223, 0.5021261060844319, 0};
Point(p18 + 37) = {33.3551741780302, 0.6277556324785583, 0};
Point(p18 + 38) = {33.41155943921869, 0.7638816947577667, 0};
Point(p18 + 39) = {33.4459556965453, 0.9071524174922442, 0};
Spline(18) = {12, p18 + 1, p18 + 2, p18 + 3, p18 + 4, p18 + 5, p18 + 6, p18 + 7, p18 + 8, p18 + 9, p18 + 10, p18 + 11, p18 + 12, p18 + 13, p18 + 14, p18 + 15, p18 + 16, p18 + 17, p18 + 18, p18 + 19, p18 + 20, p18 + 21, p18 + 22, p18 + 23, p18 + 24, p18 + 25, p18 + 26, p18 + 27, p18 + 28, p18 + 29, p18 + 30, p18 + 31, p18 + 32, p18 + 33, p18 + 34, p18 + 35, p18 + 36, p18 + 37, p18 + 38, p18 + 39, 12};
Line(19) = {14, 13};
Line(20) = {13, 15};
Line(21) = {16, 15};
Line(22) = {14, 16};
Line(23) = {14, 17};
Line(24) = {17, 18};
Line(25) = {13, 18};
Line(26) = {15, 19};
Line(27) = {18, 19};
Line(28) = {16, 20};
Line(29) = {20, 19};
Line(30) = {17, 20};
Curve Loop(7) = {-13, -14, 15, 14};
Surface(7) = {7};
Curve Loop(8) = {13};
Plane Surface(8) = {8};
Curve Loop(9) = {15};
Plane Surface(9) = {9};
Curve Loop(10) = {-16, -17, 18, 17};
Surface(10) = {10};
Curve Loop(11) = {16};
Plane Surface(11) = {11};
Curve Loop(12) = {18};
Plane Surface(12) = {12};
Curve Loop(13) = {-19, 22, 21, -20};
Plane Surface(13) = {13};
Curve Loop(14) = {-23, 19, 25, -24};
Plane Surface(14) = {14};
Curve Loop(15) = {-20, 25, 27, -26, -13, -16};
Plane Surface(15) = {15};
Curve Loop(16) = {-28, 21, 26, -29};
Plane Surface(16) = {16};
Curve Loop(17) = {-22, 23, 30, -28, -15, -18};
Plane Surface(17) = {17};
Curve Loop(18) = {-24, 30, 29, -27};
Plane Surface(18) = {18};
Surface Loop(1) = {13, 14, 15, 16, 17, 18, 7, 10};
Volume(1) = {1};
Surface Loop(2) = {7, 8, 9};
Volume(2) = {2};
Surface Loop(3) = {10, 11, 12};
Volume(3) = {3};
Physical Surface("WALLS") = {13, 18};
Physical Surface("LOAD") = {8, 11};
Physical Surface("BORDER") = {7, 9, 10, 12, 14, 15, 16, 17};
Physical Volume("SOLID") = {1, 2, 3};
