cl__1 = 0.119367;
cl__2 = 0.081452;
cl__3 = 3.464011;
cl__4 = 3.685153;
cl__5 = 0.360924;
cl__6 = 0.581395;
Point(9) = {29.784563, -1.561608, 0.1, cl__1};
Point(10) = {29.784563, -1.561608, 0, cl__1};
Point(11) = {19.150933, -0.4144870000000002, 0.1, cl__2};
Point(12) = {19.150933, -0.4144870000000002, 0, cl__2};
Point(13) = {0.091242, -4.239706, 0.1, cl__3};
Point(14) = {0.091242, -4.239706, 0, cl__3};
Point(15) = {0.091242, 4.935627999999999, 0.1, cl__4};
Point(16) = {0.091242, 4.935627999999999, 0, cl__4};
Point(17) = {33.333084, -4.239706, 0, cl__5};
Point(18) = {33.333084, -4.239706, 0.1, cl__5};
Point(19) = {33.333084, 4.935627999999999, 0.1, cl__6};
Point(20) = {33.333084, 4.935627999999999, 0, cl__6};
p13 = newp;
Point(p13 + 1) = {29.76986689227156, -1.374876246377568, 0.1};
Point(p13 + 2) = {29.7261404360321, -1.192742448256479, 0.1};
Point(p13 + 3) = {29.65446032175403, -1.019691344213896, 0.1};
Point(p13 + 4) = {29.55659155174352, -0.8599840267550346, 0.1};
Point(p13 + 5) = {29.43494397992607, -0.7175530200739293, 0.1};
Point(p13 + 6) = {29.29251297324497, -0.5959054482564793, 0.1};
Point(p13 + 7) = {29.1328056557861, -0.4980366782459744, 0.1};
Point(p13 + 8) = {28.95975455174352, -0.426356563967899, 0.1};
Point(p13 + 9) = {28.77762075362243, -0.3826301077284398, 0.1};
Point(p13 + 10) = {28.590889, -0.3679340000000002, 0.1};
Point(p13 + 11) = {28.40415724637757, -0.3826301077284398, 0.1};
Point(p13 + 12) = {28.22202344825648, -0.426356563967899, 0.1};
Point(p13 + 13) = {28.0489723442139, -0.4980366782459744, 0.1};
Point(p13 + 14) = {27.88926502675503, -0.5959054482564792, 0.1};
Point(p13 + 15) = {27.74683402007393, -0.7175530200739292, 0.1};
Point(p13 + 16) = {27.62518644825648, -0.8599840267550345, 0.1};
Point(p13 + 17) = {27.52731767824597, -1.019691344213896, 0.1};
Point(p13 + 18) = {27.4556375639679, -1.192742448256479, 0.1};
Point(p13 + 19) = {27.41191110772844, -1.374876246377567, 0.1};
Point(p13 + 20) = {27.397215, -1.561608, 0.1};
Point(p13 + 21) = {27.41191110772844, -1.748339753622433, 0.1};
Point(p13 + 22) = {27.4556375639679, -1.930473551743521, 0.1};
Point(p13 + 23) = {27.52731767824597, -2.103524655786103, 0.1};
Point(p13 + 24) = {27.62518644825648, -2.263231973244966, 0.1};
Point(p13 + 25) = {27.74683402007393, -2.405662979926071, 0.1};
Point(p13 + 26) = {27.88926502675503, -2.527310551743521, 0.1};
Point(p13 + 27) = {28.0489723442139, -2.625179321754026, 0.1};
Point(p13 + 28) = {28.22202344825648, -2.696859436032101, 0.1};
Point(p13 + 29) = {28.40415724637757, -2.74058589227156, 0.1};
Point(p13 + 30) = {28.590889, -2.755282, 0.1};
Point(p13 + 31) = {28.77762075362243, -2.74058589227156, 0.1};
Point(p13 + 32) = {28.95975455174352, -2.696859436032101, 0.1};
Point(p13 + 33) = {29.1328056557861, -2.625179321754026, 0.1};
Point(p13 + 34) = {29.29251297324497, -2.527310551743521, 0.1};
Point(p13 + 35) = {29.43494397992607, -2.405662979926071, 0.1};
Point(p13 + 36) = {29.55659155174352, -2.263231973244966, 0.1};
Point(p13 + 37) = {29.65446032175403, -2.103524655786104, 0.1};
Point(p13 + 38) = {29.7261404360321, -1.930473551743521, 0.1};
Point(p13 + 39) = {29.76986689227156, -1.748339753622433, 0.1};
Spline(13) = {9, p13 + 1, p13 + 2, p13 + 3, p13 + 4, p13 + 5, p13 + 6, p13 + 7, p13 + 8, p13 + 9, p13 + 10, p13 + 11, p13 + 12, p13 + 13, p13 + 14, p13 + 15, p13 + 16, p13 + 17, p13 + 18, p13 + 19, p13 + 20, p13 + 21, p13 + 22, p13 + 23, p13 + 24, p13 + 25, p13 + 26, p13 + 27, p13 + 28, p13 + 29, p13 + 30, p13 + 31, p13 + 32, p13 + 33, p13 + 34, p13 + 35, p13 + 36, p13 + 37, p13 + 38, p13 + 39, 9};
Line(14) = {10, 9};
p15 = newp;
Point(p15 + 1) = {29.76986689227156, -1.374876246377568, 0};
Point(p15 + 2) = {29.7261404360321, -1.192742448256479, 0};
Point(p15 + 3) = {29.65446032175403, -1.019691344213896, 0};
Point(p15 + 4) = {29.55659155174352, -0.8599840267550346, 0};
Point(p15 + 5) = {29.43494397992607, -0.7175530200739293, 0};
Point(p15 + 6) = {29.29251297324497, -0.5959054482564793, 0};
Point(p15 + 7) = {29.1328056557861, -0.4980366782459744, 0};
Point(p15 + 8) = {28.95975455174352, -0.426356563967899, 0};
Point(p15 + 9) = {28.77762075362243, -0.3826301077284398, 0};
Point(p15 + 10) = {28.590889, -0.3679340000000002, 0};
Point(p15 + 11) = {28.40415724637757, -0.3826301077284398, 0};
Point(p15 + 12) = {28.22202344825648, -0.426356563967899, 0};
Point(p15 + 13) = {28.0489723442139, -0.4980366782459744, 0};
Point(p15 + 14) = {27.88926502675503, -0.5959054482564792, 0};
Point(p15 + 15) = {27.74683402007393, -0.7175530200739292, 0};
Point(p15 + 16) = {27.62518644825648, -0.8599840267550345, 0};
Point(p15 + 17) = {27.52731767824597, -1.019691344213896, 0};
Point(p15 + 18) = {27.4556375639679, -1.192742448256479, 0};
Point(p15 + 19) = {27.41191110772844, -1.374876246377567, 0};
Point(p15 + 20) = {27.397215, -1.561608, 0};
Point(p15 + 21) = {27.41191110772844, -1.748339753622433, 0};
Point(p15 + 22) = {27.4556375639679, -1.930473551743521, 0};
Point(p15 + 23) = {27.52731767824597, -2.103524655786103, 0};
Point(p15 + 24) = {27.62518644825648, -2.263231973244966, 0};
Point(p15 + 25) = {27.74683402007393, -2.405662979926071, 0};
Point(p15 + 26) = {27.88926502675503, -2.527310551743521, 0};
Point(p15 + 27) = {28.0489723442139, -2.625179321754026, 0};
Point(p15 + 28) = {28.22202344825648, -2.696859436032101, 0};
Point(p15 + 29) = {28.40415724637757, -2.74058589227156, 0};
Point(p15 + 30) = {28.590889, -2.755282, 0};
Point(p15 + 31) = {28.77762075362243, -2.74058589227156, 0};
Point(p15 + 32) = {28.95975455174352, -2.696859436032101, 0};
Point(p15 + 33) = {29.1328056557861, -2.625179321754026, 0};
Point(p15 + 34) = {29.29251297324497, -2.527310551743521, 0};
Point(p15 + 35) = {29.43494397992607, -2.405662979926071, 0};
Point(p15 + 36) = {29.55659155174352, -2.263231973244966, 0};
Point(p15 + 37) = {29.65446032175403, -2.103524655786104, 0};
Point(p15 + 38) = {29.7261404360321, -1.930473551743521, 0};
Point(p15 + 39) = {29.76986689227156, -1.748339753622433, 0};
Spline(15) = {10, p15 + 1, p15 + 2, p15 + 3, p15 + 4, p15 + 5, p15 + 6, p15 + 7, p15 + 8, p15 + 9, p15 + 10, p15 + 11, p15 + 12, p15 + 13, p15 + 14, p15 + 15, p15 + 16, p15 + 17, p15 + 18, p15 + 19, p15 + 20, p15 + 21, p15 + 22, p15 + 23, p15 + 24, p15 + 25, p15 + 26, p15 + 27, p15 + 28, p15 + 29, p15 + 30, p15 + 31, p15 + 32, p15 + 33, p15 + 34, p15 + 35, p15 + 36, p15 + 37, p15 + 38, p15 + 39, 10};
p16 = newp;
Point(p16 + 1) = {19.14090494411653, -0.2870684688388263, 0.1};
Point(p16 + 2) = {19.11106770048318, -0.1627874047927009, 0.1};
Point(p16 + 3) = {19.06215596106234, -0.04470402012364355, 0.1};
Point(p16 + 4) = {18.9953740952073, 0.06427408034150839, 0.1};
Point(p16 + 5) = {18.91236649409172, 0.1614634940917232, 0.1};
Point(p16 + 6) = {18.81517708034151, 0.244471095207299, 0.1};
Point(p16 + 7) = {18.70619897987635, 0.3112529610623369, 0.1};
Point(p16 + 8) = {18.5881155952073, 0.3601647004831797, 0.1};
Point(p16 + 9) = {18.46383453116117, 0.3900019441165298, 0.1};
Point(p16 + 10) = {18.336416, 0.4000300000000001, 0.1};
Point(p16 + 11) = {18.20899746883883, 0.3900019441165298, 0.1};
Point(p16 + 12) = {18.0847164047927, 0.3601647004831797, 0.1};
Point(p16 + 13) = {17.96663302012364, 0.3112529610623369, 0.1};
Point(p16 + 14) = {17.85765491965849, 0.2444710952072991, 0.1};
Point(p16 + 15) = {17.76046550590828, 0.1614634940917232, 0.1};
Point(p16 + 16) = {17.6774579047927, 0.06427408034150844, 0.1};
Point(p16 + 17) = {17.61067603893766, -0.0447040201236435, 0.1};
Point(p16 + 18) = {17.56176429951682, -0.1627874047927009, 0.1};
Point(p16 + 19) = {17.53192705588347, -0.2870684688388262, 0.1};
Point(p16 + 20) = {17.521899, -0.4144869999999999, 0.1};
Point(p16 + 21) = {17.53192705588347, -0.5419055311611736, 0.1};
Point(p16 + 22) = {17.56176429951682, -0.6661865952072993, 0.1};
Point(p16 + 23) = {17.61067603893766, -0.784269979876356, 0.1};
Point(p16 + 24) = {17.6774579047927, -0.8932480803415083, 0.1};
Point(p16 + 25) = {17.76046550590828, -0.9904374940917231, 0.1};
Point(p16 + 26) = {17.85765491965849, -1.073445095207299, 0.1};
Point(p16 + 27) = {17.96663302012364, -1.140226961062337, 0.1};
Point(p16 + 28) = {18.0847164047927, -1.18913870048318, 0.1};
Point(p16 + 29) = {18.20899746883883, -1.21897594411653, 0.1};
Point(p16 + 30) = {18.336416, -1.229004, 0.1};
Point(p16 + 31) = {18.46383453116117, -1.21897594411653, 0.1};
Point(p16 + 32) = {18.5881155952073, -1.18913870048318, 0.1};
Point(p16 + 33) = {18.70619897987635, -1.140226961062337, 0.1};
Point(p16 + 34) = {18.81517708034151, -1.073445095207299, 0.1};
Point(p16 + 35) = {18.91236649409172, -0.9904374940917233, 0.1};
Point(p16 + 36) = {18.9953740952073, -0.8932480803415084, 0.1};
Point(p16 + 37) = {19.06215596106234, -0.7842699798763566, 0.1};
Point(p16 + 38) = {19.11106770048318, -0.6661865952072992, 0.1};
Point(p16 + 39) = {19.14090494411653, -0.5419055311611739, 0.1};
Spline(16) = {11, p16 + 1, p16 + 2, p16 + 3, p16 + 4, p16 + 5, p16 + 6, p16 + 7, p16 + 8, p16 + 9, p16 + 10, p16 + 11, p16 + 12, p16 + 13, p16 + 14, p16 + 15, p16 + 16, p16 + 17, p16 + 18, p16 + 19, p16 + 20, p16 + 21, p16 + 22, p16 + 23, p16 + 24, p16 + 25, p16 + 26, p16 + 27, p16 + 28, p16 + 29, p16 + 30, p16 + 31, p16 + 32, p16 + 33, p16 + 34, p16 + 35, p16 + 36, p16 + 37, p16 + 38, p16 + 39, 11};
Line(17) = {12, 11};
p18 = newp;
Point(p18 + 1) = {19.14090494411653, -0.2870684688388263, 0};
Point(p18 + 2) = {19.11106770048318, -0.1627874047927009, 0};
Point(p18 + 3) = {19.06215596106234, -0.04470402012364355, 0};
Point(p18 + 4) = {18.9953740952073, 0.06427408034150839, 0};
Point(p18 + 5) = {18.91236649409172, 0.1614634940917232, 0};
Point(p18 + 6) = {18.81517708034151, 0.244471095207299, 0};
Point(p18 + 7) = {18.70619897987635, 0.3112529610623369, 0};
Point(p18 + 8) = {18.5881155952073, 0.3601647004831797, 0};
Point(p18 + 9) = {18.46383453116117, 0.3900019441165298, 0};
Point(p18 + 10) = {18.336416, 0.4000300000000001, 0};
Point(p18 + 11) = {18.20899746883883, 0.3900019441165298, 0};
Point(p18 + 12) = {18.0847164047927, 0.3601647004831797, 0};
Point(p18 + 13) = {17.96663302012364, 0.3112529610623369, 0};
Point(p18 + 14) = {17.85765491965849, 0.2444710952072991, 0};
Point(p18 + 15) = {17.76046550590828, 0.1614634940917232, 0};
Point(p18 + 16) = {17.6774579047927, 0.06427408034150844, 0};
Point(p18 + 17) = {17.61067603893766, -0.0447040201236435, 0};
Point(p18 + 18) = {17.56176429951682, -0.1627874047927009, 0};
Point(p18 + 19) = {17.53192705588347, -0.2870684688388262, 0};
Point(p18 + 20) = {17.521899, -0.4144869999999999, 0};
Point(p18 + 21) = {17.53192705588347, -0.5419055311611736, 0};
Point(p18 + 22) = {17.56176429951682, -0.6661865952072993, 0};
Point(p18 + 23) = {17.61067603893766, -0.784269979876356, 0};
Point(p18 + 24) = {17.6774579047927, -0.8932480803415083, 0};
Point(p18 + 25) = {17.76046550590828, -0.9904374940917231, 0};
Point(p18 + 26) = {17.85765491965849, -1.073445095207299, 0};
Point(p18 + 27) = {17.96663302012364, -1.140226961062337, 0};
Point(p18 + 28) = {18.0847164047927, -1.18913870048318, 0};
Point(p18 + 29) = {18.20899746883883, -1.21897594411653, 0};
Point(p18 + 30) = {18.336416, -1.229004, 0};
Point(p18 + 31) = {18.46383453116117, -1.21897594411653, 0};
Point(p18 + 32) = {18.5881155952073, -1.18913870048318, 0};
Point(p18 + 33) = {18.70619897987635, -1.140226961062337, 0};
Point(p18 + 34) = {18.81517708034151, -1.073445095207299, 0};
Point(p18 + 35) = {18.91236649409172, -0.9904374940917233, 0};
Point(p18 + 36) = {18.9953740952073, -0.8932480803415084, 0};
Point(p18 + 37) = {19.06215596106234, -0.7842699798763566, 0};
Point(p18 + 38) = {19.11106770048318, -0.6661865952072992, 0};
Point(p18 + 39) = {19.14090494411653, -0.5419055311611739, 0};
Spline(18) = {12, p18 + 1, p18 + 2, p18 + 3, p18 + 4, p18 + 5, p18 + 6, p18 + 7, p18 + 8, p18 + 9, p18 + 10, p18 + 11, p18 + 12, p18 + 13, p18 + 14, p18 + 15, p18 + 16, p18 + 17, p18 + 18, p18 + 19, p18 + 20, p18 + 21, p18 + 22, p18 + 23, p18 + 24, p18 + 25, p18 + 26, p18 + 27, p18 + 28, p18 + 29, p18 + 30, p18 + 31, p18 + 32, p18 + 33, p18 + 34, p18 + 35, p18 + 36, p18 + 37, p18 + 38, p18 + 39, 12};
Line(19) = {14, 13};
Line(20) = {13, 15};
Line(21) = {16, 15};
Line(22) = {14, 16};
Line(23) = {14, 17};
Line(24) = {17, 18};
Line(25) = {13, 18};
Line(26) = {15, 19};
Line(27) = {18, 19};
Line(28) = {16, 20};
Line(29) = {20, 19};
Line(30) = {17, 20};
Curve Loop(7) = {-13, -14, 15, 14};
Surface(7) = {7};
Curve Loop(8) = {13};
Plane Surface(8) = {8};
Curve Loop(9) = {15};
Plane Surface(9) = {9};
Curve Loop(10) = {-16, -17, 18, 17};
Surface(10) = {10};
Curve Loop(11) = {16};
Plane Surface(11) = {11};
Curve Loop(12) = {18};
Plane Surface(12) = {12};
Curve Loop(13) = {-19, 22, 21, -20};
Plane Surface(13) = {13};
Curve Loop(14) = {-23, 19, 25, -24};
Plane Surface(14) = {14};
Curve Loop(15) = {-20, 25, 27, -26, -13, -16};
Plane Surface(15) = {15};
Curve Loop(16) = {-28, 21, 26, -29};
Plane Surface(16) = {16};
Curve Loop(17) = {-22, 23, 30, -28, -15, -18};
Plane Surface(17) = {17};
Curve Loop(18) = {-24, 30, 29, -27};
Plane Surface(18) = {18};
Surface Loop(1) = {13, 14, 15, 16, 17, 18, 7, 10};
Volume(1) = {1};
Surface Loop(2) = {7, 8, 9};
Volume(2) = {2};
Surface Loop(3) = {10, 11, 12};
Volume(3) = {3};
Physical Surface("WALLS") = {13, 18};
Physical Surface("LOAD") = {8, 11};
Physical Surface("BORDER") = {7, 9, 10, 12, 14, 15, 16, 17};
Physical Volume("SOLID") = {1, 2, 3};
