cl__1 = 0.141616;
cl__2 = 0.09815;
cl__3 = 1.90353;
cl__4 = 1.364861;
cl__5 = 0.9036689999999999;
cl__6 = 0.747752;
Point(9) = {12.147784, 1.436059, 0.1, cl__1};
Point(10) = {12.147784, 1.436059, 0, cl__1};
Point(11) = {26.299338, 1.212742, 0.1, cl__2};
Point(12) = {26.299338, 1.212742, 0, cl__2};
Point(13) = {0.615993, -4.134026, 0.1, cl__3};
Point(14) = {0.615993, -4.134026, 0, cl__3};
Point(15) = {0.615993, 4.192261, 0.1, cl__4};
Point(16) = {0.615993, 4.192261, 0, cl__4};
Point(17) = {31.756291, -4.134026, 0, cl__5};
Point(18) = {31.756291, -4.134026, 0.1, cl__5};
Point(19) = {31.756291, 4.192261, 0.1, cl__6};
Point(20) = {31.756291, 4.192261, 0, cl__6};
p13 = newp;
Point(p13 + 1) = {12.13034868348223, 1.657595701314768, 0.1};
Point(p13 + 2) = {12.07847204928609, 1.873677433805009, 0.1};
Point(p13 + 3) = {11.99343147231417, 2.078983548082656, 0.1};
Point(p13 + 4) = {11.87732093380501, 2.268458726242266, 0.1};
Point(p13 + 5) = {11.73299946056549, 2.437437460565484, 0.1};
Point(p13 + 6) = {11.56402072624227, 2.581758933805009, 0.1};
Point(p13 + 7) = {11.37454554808266, 2.697869472314172, 0.1};
Point(p13 + 8) = {11.16923943380501, 2.782910049286094, 0.1};
Point(p13 + 9) = {10.95315770131477, 2.834786683482232, 0.1};
Point(p13 + 10) = {10.731621, 2.852222, 0.1};
Point(p13 + 11) = {10.51008429868523, 2.834786683482232, 0.1};
Point(p13 + 12) = {10.29400256619499, 2.782910049286094, 0.1};
Point(p13 + 13) = {10.08869645191734, 2.697869472314172, 0.1};
Point(p13 + 14) = {9.899221273757735, 2.581758933805009, 0.1};
Point(p13 + 15) = {9.730242539434515, 2.437437460565484, 0.1};
Point(p13 + 16) = {9.585921066194992, 2.268458726242266, 0.1};
Point(p13 + 17) = {9.469810527685828, 2.078983548082656, 0.1};
Point(p13 + 18) = {9.384769950713906, 1.873677433805009, 0.1};
Point(p13 + 19) = {9.332893316517769, 1.657595701314769, 0.1};
Point(p13 + 20) = {9.315458, 1.436059, 0.1};
Point(p13 + 21) = {9.332893316517769, 1.214522298685232, 0.1};
Point(p13 + 22) = {9.384769950713906, 0.9984405661949909, 0.1};
Point(p13 + 23) = {9.469810527685828, 0.7931344519173449, 0.1};
Point(p13 + 24) = {9.585921066194992, 0.6036592737577344, 0.1};
Point(p13 + 25) = {9.730242539434515, 0.4346805394345152, 0.1};
Point(p13 + 26) = {9.899221273757735, 0.2903590661949913, 0.1};
Point(p13 + 27) = {10.08869645191734, 0.1742485276858283, 0.1};
Point(p13 + 28) = {10.29400256619499, 0.0892079507139063, 0.1};
Point(p13 + 29) = {10.51008429868523, 0.037331316517768, 0.1};
Point(p13 + 30) = {10.731621, 0.01989599999999991, 0.1};
Point(p13 + 31) = {10.95315770131477, 0.03733131651776778, 0.1};
Point(p13 + 32) = {11.16923943380501, 0.0892079507139063, 0.1};
Point(p13 + 33) = {11.37454554808266, 0.1742485276858281, 0.1};
Point(p13 + 34) = {11.56402072624227, 0.2903590661949911, 0.1};
Point(p13 + 35) = {11.73299946056549, 0.434680539434515, 0.1};
Point(p13 + 36) = {11.87732093380501, 0.6036592737577341, 0.1};
Point(p13 + 37) = {11.99343147231417, 0.7931344519173439, 0.1};
Point(p13 + 38) = {12.07847204928609, 0.998440566194991, 0.1};
Point(p13 + 39) = {12.13034868348223, 1.214522298685231, 0.1};
Spline(13) = {9, p13 + 1, p13 + 2, p13 + 3, p13 + 4, p13 + 5, p13 + 6, p13 + 7, p13 + 8, p13 + 9, p13 + 10, p13 + 11, p13 + 12, p13 + 13, p13 + 14, p13 + 15, p13 + 16, p13 + 17, p13 + 18, p13 + 19, p13 + 20, p13 + 21, p13 + 22, p13 + 23, p13 + 24, p13 + 25, p13 + 26, p13 + 27, p13 + 28, p13 + 29, p13 + 30, p13 + 31, p13 + 32, p13 + 33, p13 + 34, p13 + 35, p13 + 36, p13 + 37, p13 + 38, p13 + 39, 9};
Line(14) = {10, 9};
p15 = newp;
Point(p15 + 1) = {12.13034868348223, 1.657595701314768, 0};
Point(p15 + 2) = {12.07847204928609, 1.873677433805009, 0};
Point(p15 + 3) = {11.99343147231417, 2.078983548082656, 0};
Point(p15 + 4) = {11.87732093380501, 2.268458726242266, 0};
Point(p15 + 5) = {11.73299946056549, 2.437437460565484, 0};
Point(p15 + 6) = {11.56402072624227, 2.581758933805009, 0};
Point(p15 + 7) = {11.37454554808266, 2.697869472314172, 0};
Point(p15 + 8) = {11.16923943380501, 2.782910049286094, 0};
Point(p15 + 9) = {10.95315770131477, 2.834786683482232, 0};
Point(p15 + 10) = {10.731621, 2.852222, 0};
Point(p15 + 11) = {10.51008429868523, 2.834786683482232, 0};
Point(p15 + 12) = {10.29400256619499, 2.782910049286094, 0};
Point(p15 + 13) = {10.08869645191734, 2.697869472314172, 0};
Point(p15 + 14) = {9.899221273757735, 2.581758933805009, 0};
Point(p15 + 15) = {9.730242539434515, 2.437437460565484, 0};
Point(p15 + 16) = {9.585921066194992, 2.268458726242266, 0};
Point(p15 + 17) = {9.469810527685828, 2.078983548082656, 0};
Point(p15 + 18) = {9.384769950713906, 1.873677433805009, 0};
Point(p15 + 19) = {9.332893316517769, 1.657595701314769, 0};
Point(p15 + 20) = {9.315458, 1.436059, 0};
Point(p15 + 21) = {9.332893316517769, 1.214522298685232, 0};
Point(p15 + 22) = {9.384769950713906, 0.9984405661949909, 0};
Point(p15 + 23) = {9.469810527685828, 0.7931344519173449, 0};
Point(p15 + 24) = {9.585921066194992, 0.6036592737577344, 0};
Point(p15 + 25) = {9.730242539434515, 0.4346805394345152, 0};
Point(p15 + 26) = {9.899221273757735, 0.2903590661949913, 0};
Point(p15 + 27) = {10.08869645191734, 0.1742485276858283, 0};
Point(p15 + 28) = {10.29400256619499, 0.0892079507139063, 0};
Point(p15 + 29) = {10.51008429868523, 0.037331316517768, 0};
Point(p15 + 30) = {10.731621, 0.01989599999999991, 0};
Point(p15 + 31) = {10.95315770131477, 0.03733131651776778, 0};
Point(p15 + 32) = {11.16923943380501, 0.0892079507139063, 0};
Point(p15 + 33) = {11.37454554808266, 0.1742485276858281, 0};
Point(p15 + 34) = {11.56402072624227, 0.2903590661949911, 0};
Point(p15 + 35) = {11.73299946056549, 0.434680539434515, 0};
Point(p15 + 36) = {11.87732093380501, 0.6036592737577341, 0};
Point(p15 + 37) = {11.99343147231417, 0.7931344519173439, 0};
Point(p15 + 38) = {12.07847204928609, 0.998440566194991, 0};
Point(p15 + 39) = {12.13034868348223, 1.214522298685231, 0};
Spline(15) = {10, p15 + 1, p15 + 2, p15 + 3, p15 + 4, p15 + 5, p15 + 6, p15 + 7, p15 + 8, p15 + 9, p15 + 10, p15 + 11, p15 + 12, p15 + 13, p15 + 14, p15 + 15, p15 + 16, p15 + 17, p15 + 18, p15 + 19, p15 + 20, p15 + 21, p15 + 22, p15 + 23, p15 + 24, p15 + 25, p15 + 26, p15 + 27, p15 + 28, p15 + 29, p15 + 30, p15 + 31, p15 + 32, p15 + 33, p15 + 34, p15 + 35, p15 + 36, p15 + 37, p15 + 38, p15 + 39, 10};
p16 = newp;
Point(p16 + 1) = {26.28725415554077, 1.366281801699126, 0.1};
Point(p16 + 2) = {26.25130016651763, 1.516040943911033, 0.1};
Point(p16 + 3) = {26.19236133946479, 1.658331859532366, 0.1};
Point(p16 + 4) = {26.11188894391103, 1.789650873984053, 0.1};
Point(p16 + 5) = {26.01186447730747, 1.906764477307472, 0.1};
Point(p16 + 6) = {25.89475087398405, 2.006788943911033, 0.1};
Point(p16 + 7) = {25.76343185953236, 2.087261339464786, 0.1};
Point(p16 + 8) = {25.62114094391103, 2.146200166517628, 0.1};
Point(p16 + 9) = {25.47138180169912, 2.182154155540765, 0.1};
Point(p16 + 10) = {25.317842, 2.194238, 0.1};
Point(p16 + 11) = {25.16430219830087, 2.182154155540765, 0.1};
Point(p16 + 12) = {25.01454305608896, 2.146200166517628, 0.1};
Point(p16 + 13) = {24.87225214046763, 2.087261339464786, 0.1};
Point(p16 + 14) = {24.74093312601595, 2.006788943911034, 0.1};
Point(p16 + 15) = {24.62381952269253, 1.906764477307472, 0.1};
Point(p16 + 16) = {24.52379505608896, 1.789650873984053, 0.1};
Point(p16 + 17) = {24.44332266053521, 1.658331859532366, 0.1};
Point(p16 + 18) = {24.38438383348237, 1.516040943911034, 0.1};
Point(p16 + 19) = {24.34842984445923, 1.366281801699126, 0.1};
Point(p16 + 20) = {24.336346, 1.212742, 0.1};
Point(p16 + 21) = {24.34842984445923, 1.059202198300874, 0.1};
Point(p16 + 22) = {24.38438383348237, 0.9094430560889664, 0.1};
Point(p16 + 23) = {24.44332266053521, 0.7671521404676342, 0.1};
Point(p16 + 24) = {24.52379505608896, 0.6358331260159469, 0.1};
Point(p16 + 25) = {24.62381952269253, 0.5187195226925284, 0.1};
Point(p16 + 26) = {24.74093312601595, 0.4186950560889666, 0.1};
Point(p16 + 27) = {24.87225214046763, 0.3382226605352138, 0.1};
Point(p16 + 28) = {25.01454305608896, 0.279283833482372, 0.1};
Point(p16 + 29) = {25.16430219830087, 0.2433298444592347, 0.1};
Point(p16 + 30) = {25.317842, 0.231246, 0.1};
Point(p16 + 31) = {25.47138180169912, 0.2433298444592346, 0.1};
Point(p16 + 32) = {25.62114094391103, 0.2792838334823718, 0.1};
Point(p16 + 33) = {25.76343185953236, 0.3382226605352135, 0.1};
Point(p16 + 34) = {25.89475087398405, 0.4186950560889664, 0.1};
Point(p16 + 35) = {26.01186447730747, 0.5187195226925282, 0.1};
Point(p16 + 36) = {26.11188894391103, 0.6358331260159467, 0.1};
Point(p16 + 37) = {26.19236133946479, 0.7671521404676336, 0.1};
Point(p16 + 38) = {26.25130016651763, 0.9094430560889664, 0.1};
Point(p16 + 39) = {26.28725415554077, 1.059202198300873, 0.1};
Spline(16) = {11, p16 + 1, p16 + 2, p16 + 3, p16 + 4, p16 + 5, p16 + 6, p16 + 7, p16 + 8, p16 + 9, p16 + 10, p16 + 11, p16 + 12, p16 + 13, p16 + 14, p16 + 15, p16 + 16, p16 + 17, p16 + 18, p16 + 19, p16 + 20, p16 + 21, p16 + 22, p16 + 23, p16 + 24, p16 + 25, p16 + 26, p16 + 27, p16 + 28, p16 + 29, p16 + 30, p16 + 31, p16 + 32, p16 + 33, p16 + 34, p16 + 35, p16 + 36, p16 + 37, p16 + 38, p16 + 39, 11};
Line(17) = {12, 11};
p18 = newp;
Point(p18 + 1) = {26.28725415554077, 1.366281801699126, 0};
Point(p18 + 2) = {26.25130016651763, 1.516040943911033, 0};
Point(p18 + 3) = {26.19236133946479, 1.658331859532366, 0};
Point(p18 + 4) = {26.11188894391103, 1.789650873984053, 0};
Point(p18 + 5) = {26.01186447730747, 1.906764477307472, 0};
Point(p18 + 6) = {25.89475087398405, 2.006788943911033, 0};
Point(p18 + 7) = {25.76343185953236, 2.087261339464786, 0};
Point(p18 + 8) = {25.62114094391103, 2.146200166517628, 0};
Point(p18 + 9) = {25.47138180169912, 2.182154155540765, 0};
Point(p18 + 10) = {25.317842, 2.194238, 0};
Point(p18 + 11) = {25.16430219830087, 2.182154155540765, 0};
Point(p18 + 12) = {25.01454305608896, 2.146200166517628, 0};
Point(p18 + 13) = {24.87225214046763, 2.087261339464786, 0};
Point(p18 + 14) = {24.74093312601595, 2.006788943911034, 0};
Point(p18 + 15) = {24.62381952269253, 1.906764477307472, 0};
Point(p18 + 16) = {24.52379505608896, 1.789650873984053, 0};
Point(p18 + 17) = {24.44332266053521, 1.658331859532366, 0};
Point(p18 + 18) = {24.38438383348237, 1.516040943911034, 0};
Point(p18 + 19) = {24.34842984445923, 1.366281801699126, 0};
Point(p18 + 20) = {24.336346, 1.212742, 0};
Point(p18 + 21) = {24.34842984445923, 1.059202198300874, 0};
Point(p18 + 22) = {24.38438383348237, 0.9094430560889664, 0};
Point(p18 + 23) = {24.44332266053521, 0.7671521404676342, 0};
Point(p18 + 24) = {24.52379505608896, 0.6358331260159469, 0};
Point(p18 + 25) = {24.62381952269253, 0.5187195226925284, 0};
Point(p18 + 26) = {24.74093312601595, 0.4186950560889666, 0};
Point(p18 + 27) = {24.87225214046763, 0.3382226605352138, 0};
Point(p18 + 28) = {25.01454305608896, 0.279283833482372, 0};
Point(p18 + 29) = {25.16430219830087, 0.2433298444592347, 0};
Point(p18 + 30) = {25.317842, 0.231246, 0};
Point(p18 + 31) = {25.47138180169912, 0.2433298444592346, 0};
Point(p18 + 32) = {25.62114094391103, 0.2792838334823718, 0};
Point(p18 + 33) = {25.76343185953236, 0.3382226605352135, 0};
Point(p18 + 34) = {25.89475087398405, 0.4186950560889664, 0};
Point(p18 + 35) = {26.01186447730747, 0.5187195226925282, 0};
Point(p18 + 36) = {26.11188894391103, 0.6358331260159467, 0};
Point(p18 + 37) = {26.19236133946479, 0.7671521404676336, 0};
Point(p18 + 38) = {26.25130016651763, 0.9094430560889664, 0};
Point(p18 + 39) = {26.28725415554077, 1.059202198300873, 0};
Spline(18) = {12, p18 + 1, p18 + 2, p18 + 3, p18 + 4, p18 + 5, p18 + 6, p18 + 7, p18 + 8, p18 + 9, p18 + 10, p18 + 11, p18 + 12, p18 + 13, p18 + 14, p18 + 15, p18 + 16, p18 + 17, p18 + 18, p18 + 19, p18 + 20, p18 + 21, p18 + 22, p18 + 23, p18 + 24, p18 + 25, p18 + 26, p18 + 27, p18 + 28, p18 + 29, p18 + 30, p18 + 31, p18 + 32, p18 + 33, p18 + 34, p18 + 35, p18 + 36, p18 + 37, p18 + 38, p18 + 39, 12};
Line(19) = {14, 13};
Line(20) = {13, 15};
Line(21) = {16, 15};
Line(22) = {14, 16};
Line(23) = {14, 17};
Line(24) = {17, 18};
Line(25) = {13, 18};
Line(26) = {15, 19};
Line(27) = {18, 19};
Line(28) = {16, 20};
Line(29) = {20, 19};
Line(30) = {17, 20};
Curve Loop(7) = {-13, -14, 15, 14};
Surface(7) = {7};
Curve Loop(8) = {13};
Plane Surface(8) = {8};
Curve Loop(9) = {15};
Plane Surface(9) = {9};
Curve Loop(10) = {-16, -17, 18, 17};
Surface(10) = {10};
Curve Loop(11) = {16};
Plane Surface(11) = {11};
Curve Loop(12) = {18};
Plane Surface(12) = {12};
Curve Loop(13) = {-19, 22, 21, -20};
Plane Surface(13) = {13};
Curve Loop(14) = {-23, 19, 25, -24};
Plane Surface(14) = {14};
Curve Loop(15) = {-20, 25, 27, -26, -16, -13};
Plane Surface(15) = {15};
Curve Loop(16) = {-28, 21, 26, -29};
Plane Surface(16) = {16};
Curve Loop(17) = {-22, 23, 30, -28, -18, -15};
Plane Surface(17) = {17};
Curve Loop(18) = {-24, 30, 29, -27};
Plane Surface(18) = {18};
Surface Loop(1) = {13, 14, 15, 16, 17, 18, 10, 7};
Volume(1) = {1};
Surface Loop(2) = {7, 8, 9};
Volume(2) = {2};
Surface Loop(3) = {10, 11, 12};
Volume(3) = {3};
Physical Surface("WALLS") = {13, 18};
Physical Surface("LOAD") = {8, 11};
Physical Surface("BORDER") = {7, 9, 10, 12, 14, 15, 16, 17};
Physical Volume("SOLID") = {1, 2, 3};
