cl__1 = 0.144401;
cl__2 = 0.140017;
cl__3 = 1.611208;
cl__4 = 1.8905;
cl__5 = 0.833055;
cl__6 = 0.758119;
Point(9) = {20.023365, -1.788866000000001, 0.1, cl__1};
Point(10) = {20.023365, -1.788866000000001, 0, cl__1};
Point(11) = {28.417726, 1.971586, 0.1, cl__2};
Point(12) = {28.417726, 1.971586, 0, cl__2};
Point(13) = {0.162598, -3.954143, 1, cl__3};
Point(14) = {0.162598, -3.954143, 0, cl__3};
Point(15) = {0.162598, 4.557262999999999, 1, cl__4};
Point(16) = {0.162598, 4.557262999999999, 0, cl__4};
Point(17) = {39.20434, -3.954143, 0, cl__5};
Point(18) = {39.20434, -3.954143, 1, cl__5};
Point(19) = {39.20434, 4.557262999999999, 1, cl__6};
Point(20) = {39.20434, 4.557262999999999, 0, cl__6};
p13 = newp;
Point(p13 + 1) = {20.00558684070278, -1.562973068137256, 0.1};
Point(p13 + 2) = {19.95269012009537, -1.342642369952632, 0.1};
Point(p13 + 3) = {19.86597733099325, -1.133299178471097, 0.1};
Point(p13 + 4) = {19.74758363004737, -0.940098217837146, 0.1};
Point(p13 + 5) = {19.60042426310119, -0.7677967368988137, 0.1};
Point(p13 + 6) = {19.42812278216286, -0.6206373699526324, 0.1};
Point(p13 + 7) = {19.2349218215289, -0.5022436690067551, 0.1};
Point(p13 + 8) = {19.02557863004737, -0.4155308799046353, 0.1};
Point(p13 + 9) = {18.80524793186274, -0.3626341592972151, 0.1};
Point(p13 + 10) = {18.579355, -0.3448560000000001, 0.1};
Point(p13 + 11) = {18.35346206813725, -0.3626341592972153, 0.1};
Point(p13 + 12) = {18.13313136995263, -0.4155308799046353, 0.1};
Point(p13 + 13) = {17.9237881784711, -0.5022436690067549, 0.1};
Point(p13 + 14) = {17.73058721783715, -0.6206373699526322, 0.1};
Point(p13 + 15) = {17.55828573689881, -0.7677967368988134, 0.1};
Point(p13 + 16) = {17.41112636995263, -0.9400982178371458, 0.1};
Point(p13 + 17) = {17.29273266900675, -1.133299178471097, 0.1};
Point(p13 + 18) = {17.20601987990463, -1.342642369952632, 0.1};
Point(p13 + 19) = {17.15312315929722, -1.562973068137256, 0.1};
Point(p13 + 20) = {17.135345, -1.788866, 0.1};
Point(p13 + 21) = {17.15312315929722, -2.014758931862744, 0.1};
Point(p13 + 22) = {17.20601987990463, -2.235089630047368, 0.1};
Point(p13 + 23) = {17.29273266900675, -2.444432821528902, 0.1};
Point(p13 + 24) = {17.41112636995263, -2.637633782162854, 0.1};
Point(p13 + 25) = {17.55828573689881, -2.809935263101186, 0.1};
Point(p13 + 26) = {17.73058721783714, -2.957094630047368, 0.1};
Point(p13 + 27) = {17.9237881784711, -3.075488330993245, 0.1};
Point(p13 + 28) = {18.13313136995263, -3.162201120095365, 0.1};
Point(p13 + 29) = {18.35346206813725, -3.215097840702785, 0.1};
Point(p13 + 30) = {18.579355, -3.232876, 0.1};
Point(p13 + 31) = {18.80524793186274, -3.215097840702785, 0.1};
Point(p13 + 32) = {19.02557863004737, -3.162201120095365, 0.1};
Point(p13 + 33) = {19.2349218215289, -3.075488330993245, 0.1};
Point(p13 + 34) = {19.42812278216285, -2.957094630047368, 0.1};
Point(p13 + 35) = {19.60042426310119, -2.809935263101187, 0.1};
Point(p13 + 36) = {19.74758363004737, -2.637633782162855, 0.1};
Point(p13 + 37) = {19.86597733099325, -2.444432821528904, 0.1};
Point(p13 + 38) = {19.95269012009537, -2.235089630047368, 0.1};
Point(p13 + 39) = {20.00558684070278, -2.014758931862744, 0.1};
Spline(13) = {9, p13 + 1, p13 + 2, p13 + 3, p13 + 4, p13 + 5, p13 + 6, p13 + 7, p13 + 8, p13 + 9, p13 + 10, p13 + 11, p13 + 12, p13 + 13, p13 + 14, p13 + 15, p13 + 16, p13 + 17, p13 + 18, p13 + 19, p13 + 20, p13 + 21, p13 + 22, p13 + 23, p13 + 24, p13 + 25, p13 + 26, p13 + 27, p13 + 28, p13 + 29, p13 + 30, p13 + 31, p13 + 32, p13 + 33, p13 + 34, p13 + 35, p13 + 36, p13 + 37, p13 + 38, p13 + 39, 9};
Line(14) = {10, 9};
p15 = newp;
Point(p15 + 1) = {20.00558684070278, -1.562973068137256, 0};
Point(p15 + 2) = {19.95269012009537, -1.342642369952632, 0};
Point(p15 + 3) = {19.86597733099325, -1.133299178471097, 0};
Point(p15 + 4) = {19.74758363004737, -0.940098217837146, 0};
Point(p15 + 5) = {19.60042426310119, -0.7677967368988137, 0};
Point(p15 + 6) = {19.42812278216286, -0.6206373699526324, 0};
Point(p15 + 7) = {19.2349218215289, -0.5022436690067551, 0};
Point(p15 + 8) = {19.02557863004737, -0.4155308799046353, 0};
Point(p15 + 9) = {18.80524793186274, -0.3626341592972151, 0};
Point(p15 + 10) = {18.579355, -0.3448560000000001, 0};
Point(p15 + 11) = {18.35346206813725, -0.3626341592972153, 0};
Point(p15 + 12) = {18.13313136995263, -0.4155308799046353, 0};
Point(p15 + 13) = {17.9237881784711, -0.5022436690067549, 0};
Point(p15 + 14) = {17.73058721783715, -0.6206373699526322, 0};
Point(p15 + 15) = {17.55828573689881, -0.7677967368988134, 0};
Point(p15 + 16) = {17.41112636995263, -0.9400982178371458, 0};
Point(p15 + 17) = {17.29273266900675, -1.133299178471097, 0};
Point(p15 + 18) = {17.20601987990463, -1.342642369952632, 0};
Point(p15 + 19) = {17.15312315929722, -1.562973068137256, 0};
Point(p15 + 20) = {17.135345, -1.788866, 0};
Point(p15 + 21) = {17.15312315929722, -2.014758931862744, 0};
Point(p15 + 22) = {17.20601987990463, -2.235089630047368, 0};
Point(p15 + 23) = {17.29273266900675, -2.444432821528902, 0};
Point(p15 + 24) = {17.41112636995263, -2.637633782162854, 0};
Point(p15 + 25) = {17.55828573689881, -2.809935263101186, 0};
Point(p15 + 26) = {17.73058721783714, -2.957094630047368, 0};
Point(p15 + 27) = {17.9237881784711, -3.075488330993245, 0};
Point(p15 + 28) = {18.13313136995263, -3.162201120095365, 0};
Point(p15 + 29) = {18.35346206813725, -3.215097840702785, 0};
Point(p15 + 30) = {18.579355, -3.232876, 0};
Point(p15 + 31) = {18.80524793186274, -3.215097840702785, 0};
Point(p15 + 32) = {19.02557863004737, -3.162201120095365, 0};
Point(p15 + 33) = {19.2349218215289, -3.075488330993245, 0};
Point(p15 + 34) = {19.42812278216285, -2.957094630047368, 0};
Point(p15 + 35) = {19.60042426310119, -2.809935263101187, 0};
Point(p15 + 36) = {19.74758363004737, -2.637633782162855, 0};
Point(p15 + 37) = {19.86597733099325, -2.444432821528904, 0};
Point(p15 + 38) = {19.95269012009537, -2.235089630047368, 0};
Point(p15 + 39) = {20.00558684070278, -2.014758931862744, 0};
Spline(15) = {10, p15 + 1, p15 + 2, p15 + 3, p15 + 4, p15 + 5, p15 + 6, p15 + 7, p15 + 8, p15 + 9, p15 + 10, p15 + 11, p15 + 12, p15 + 13, p15 + 14, p15 + 15, p15 + 16, p15 + 17, p15 + 18, p15 + 19, p15 + 20, p15 + 21, p15 + 22, p15 + 23, p15 + 24, p15 + 25, p15 + 26, p15 + 27, p15 + 28, p15 + 29, p15 + 30, p15 + 31, p15 + 32, p15 + 33, p15 + 34, p15 + 35, p15 + 36, p15 + 37, p15 + 38, p15 + 39, 10};
p16 = newp;
Point(p16 + 1) = {28.40048753460445, 2.19062147065324, 0.1};
Point(p16 + 2) = {28.34919660664705, 2.404263561081948, 0.1};
Point(p16 + 3) = {28.26511616899892, 2.60725169398232, 0.1};
Point(p16 + 4) = {28.15031656108195, 2.794587627843361, 0.1};
Point(p16 + 5) = {28.00762453024109, 2.961658530241093, 0.1};
Point(p16 + 6) = {27.84055362784336, 3.104350561081947, 0.1};
Point(p16 + 7) = {27.65321769398232, 3.219150168998924, 0.1};
Point(p16 + 8) = {27.45022956108195, 3.30323060664705, 0.1};
Point(p16 + 9) = {27.23658747065324, 3.354521534604457, 0.1};
Point(p16 + 10) = {27.017552, 3.37176, 0.1};
Point(p16 + 11) = {26.79851652934676, 3.354521534604456, 0.1};
Point(p16 + 12) = {26.58487443891805, 3.30323060664705, 0.1};
Point(p16 + 13) = {26.38188630601768, 3.219150168998924, 0.1};
Point(p16 + 14) = {26.19455037215664, 3.104350561081948, 0.1};
Point(p16 + 15) = {26.02747946975891, 2.961658530241093, 0.1};
Point(p16 + 16) = {25.88478743891805, 2.794587627843362, 0.1};
Point(p16 + 17) = {25.76998783100107, 2.60725169398232, 0.1};
Point(p16 + 18) = {25.68590739335295, 2.404263561081948, 0.1};
Point(p16 + 19) = {25.63461646539554, 2.190621470653241, 0.1};
Point(p16 + 20) = {25.617378, 1.971586, 0.1};
Point(p16 + 21) = {25.63461646539554, 1.75255052934676, 0.1};
Point(p16 + 22) = {25.68590739335295, 1.538908438918052, 0.1};
Point(p16 + 23) = {25.76998783100107, 1.335920306017681, 0.1};
Point(p16 + 24) = {25.88478743891805, 1.148584372156639, 0.1};
Point(p16 + 25) = {26.02747946975891, 0.9815134697589072, 0.1};
Point(p16 + 26) = {26.19455037215664, 0.8388214389180526, 0.1};
Point(p16 + 27) = {26.38188630601768, 0.7240218310010764, 0.1};
Point(p16 + 28) = {26.58487443891805, 0.6399413933529496, 0.1};
Point(p16 + 29) = {26.79851652934676, 0.5886504653955438, 0.1};
Point(p16 + 30) = {27.017552, 0.571412, 0.1};
Point(p16 + 31) = {27.23658747065324, 0.5886504653955436, 0.1};
Point(p16 + 32) = {27.45022956108195, 0.6399413933529496, 0.1};
Point(p16 + 33) = {27.65321769398232, 0.724021831001076, 0.1};
Point(p16 + 34) = {27.84055362784336, 0.8388214389180522, 0.1};
Point(p16 + 35) = {28.00762453024109, 0.9815134697589069, 0.1};
Point(p16 + 36) = {28.15031656108195, 1.148584372156638, 0.1};
Point(p16 + 37) = {28.26511616899892, 1.33592030601768, 0.1};
Point(p16 + 38) = {28.34919660664705, 1.538908438918052, 0.1};
Point(p16 + 39) = {28.40048753460445, 1.75255052934676, 0.1};
Spline(16) = {11, p16 + 1, p16 + 2, p16 + 3, p16 + 4, p16 + 5, p16 + 6, p16 + 7, p16 + 8, p16 + 9, p16 + 10, p16 + 11, p16 + 12, p16 + 13, p16 + 14, p16 + 15, p16 + 16, p16 + 17, p16 + 18, p16 + 19, p16 + 20, p16 + 21, p16 + 22, p16 + 23, p16 + 24, p16 + 25, p16 + 26, p16 + 27, p16 + 28, p16 + 29, p16 + 30, p16 + 31, p16 + 32, p16 + 33, p16 + 34, p16 + 35, p16 + 36, p16 + 37, p16 + 38, p16 + 39, 11};
Line(17) = {12, 11};
p18 = newp;
Point(p18 + 1) = {28.40048753460445, 2.19062147065324, 0};
Point(p18 + 2) = {28.34919660664705, 2.404263561081948, 0};
Point(p18 + 3) = {28.26511616899892, 2.60725169398232, 0};
Point(p18 + 4) = {28.15031656108195, 2.794587627843361, 0};
Point(p18 + 5) = {28.00762453024109, 2.961658530241093, 0};
Point(p18 + 6) = {27.84055362784336, 3.104350561081947, 0};
Point(p18 + 7) = {27.65321769398232, 3.219150168998924, 0};
Point(p18 + 8) = {27.45022956108195, 3.30323060664705, 0};
Point(p18 + 9) = {27.23658747065324, 3.354521534604457, 0};
Point(p18 + 10) = {27.017552, 3.37176, 0};
Point(p18 + 11) = {26.79851652934676, 3.354521534604456, 0};
Point(p18 + 12) = {26.58487443891805, 3.30323060664705, 0};
Point(p18 + 13) = {26.38188630601768, 3.219150168998924, 0};
Point(p18 + 14) = {26.19455037215664, 3.104350561081948, 0};
Point(p18 + 15) = {26.02747946975891, 2.961658530241093, 0};
Point(p18 + 16) = {25.88478743891805, 2.794587627843362, 0};
Point(p18 + 17) = {25.76998783100107, 2.60725169398232, 0};
Point(p18 + 18) = {25.68590739335295, 2.404263561081948, 0};
Point(p18 + 19) = {25.63461646539554, 2.190621470653241, 0};
Point(p18 + 20) = {25.617378, 1.971586, 0};
Point(p18 + 21) = {25.63461646539554, 1.75255052934676, 0};
Point(p18 + 22) = {25.68590739335295, 1.538908438918052, 0};
Point(p18 + 23) = {25.76998783100107, 1.335920306017681, 0};
Point(p18 + 24) = {25.88478743891805, 1.148584372156639, 0};
Point(p18 + 25) = {26.02747946975891, 0.9815134697589072, 0};
Point(p18 + 26) = {26.19455037215664, 0.8388214389180526, 0};
Point(p18 + 27) = {26.38188630601768, 0.7240218310010764, 0};
Point(p18 + 28) = {26.58487443891805, 0.6399413933529496, 0};
Point(p18 + 29) = {26.79851652934676, 0.5886504653955438, 0};
Point(p18 + 30) = {27.017552, 0.571412, 0};
Point(p18 + 31) = {27.23658747065324, 0.5886504653955436, 0};
Point(p18 + 32) = {27.45022956108195, 0.6399413933529496, 0};
Point(p18 + 33) = {27.65321769398232, 0.724021831001076, 0};
Point(p18 + 34) = {27.84055362784336, 0.8388214389180522, 0};
Point(p18 + 35) = {28.00762453024109, 0.9815134697589069, 0};
Point(p18 + 36) = {28.15031656108195, 1.148584372156638, 0};
Point(p18 + 37) = {28.26511616899892, 1.33592030601768, 0};
Point(p18 + 38) = {28.34919660664705, 1.538908438918052, 0};
Point(p18 + 39) = {28.40048753460445, 1.75255052934676, 0};
Spline(18) = {12, p18 + 1, p18 + 2, p18 + 3, p18 + 4, p18 + 5, p18 + 6, p18 + 7, p18 + 8, p18 + 9, p18 + 10, p18 + 11, p18 + 12, p18 + 13, p18 + 14, p18 + 15, p18 + 16, p18 + 17, p18 + 18, p18 + 19, p18 + 20, p18 + 21, p18 + 22, p18 + 23, p18 + 24, p18 + 25, p18 + 26, p18 + 27, p18 + 28, p18 + 29, p18 + 30, p18 + 31, p18 + 32, p18 + 33, p18 + 34, p18 + 35, p18 + 36, p18 + 37, p18 + 38, p18 + 39, 12};
Line(19) = {14, 13};
Line(20) = {13, 15};
Line(21) = {16, 15};
Line(22) = {14, 16};
Line(23) = {14, 17};
Line(24) = {17, 18};
Line(25) = {13, 18};
Line(26) = {15, 19};
Line(27) = {18, 19};
Line(28) = {16, 20};
Line(29) = {20, 19};
Line(30) = {17, 20};
Curve Loop(7) = {-13, -14, 15, 14};
Surface(7) = {7};
Curve Loop(8) = {13};
Plane Surface(8) = {8};
Curve Loop(9) = {15};
Plane Surface(9) = {9};
Curve Loop(10) = {-16, -17, 18, 17};
Surface(10) = {10};
Curve Loop(11) = {16};
Plane Surface(11) = {11};
Curve Loop(12) = {18};
Plane Surface(12) = {12};
Curve Loop(13) = {-19, 22, 21, -20};
Plane Surface(13) = {13};
Curve Loop(14) = {-23, 19, 25, -24};
Plane Surface(14) = {14};
Curve Loop(15) = {-20, 25, 27, -26};
Plane Surface(15) = {15};
Curve Loop(16) = {-28, 21, 26, -29};
Plane Surface(16) = {16};
Curve Loop(17) = {-22, 23, 30, -28, -15, -18};
Plane Surface(17) = {17};
Curve Loop(18) = {-24, 30, 29, -27};
Plane Surface(18) = {18};
Surface Loop(1) = {13, 14, 15, 16, 17, 18, 7, 10, 8, 11};
Volume(1) = {1};
Surface Loop(2) = {7, 8, 9};
Volume(2) = {2};
Surface Loop(3) = {10, 11, 12};
Volume(3) = {3};
Physical Surface("WALLS") = {13, 18};
Physical Surface("LOAD") = {8, 11};
Physical Surface("BORDER") = {7, 9, 10, 12, 14, 15, 16, 17};
Physical Volume("SOLID") = {1, 2, 3};
