cl__1 = 0.140724;
cl__2 = 0.07115200000000001;
cl__3 = 0.50967;
cl__4 = 0.338981;
cl__5 = 3.638196;
cl__6 = 4.199218;
Point(9) = {20.282676, -1.185843, 0.1, cl__1};
Point(10) = {20.282676, -1.185843, 0, cl__1};
Point(11) = {3.527809, 1.375754, 0.1, cl__2};
Point(12) = {3.527809, 1.375754, 0, cl__2};
Point(13) = {0.653675, -4.42904, 0.1, cl__3};
Point(14) = {0.653675, -4.42904, 0, cl__3};
Point(15) = {0.653675, 5.159633, 0.1, cl__4};
Point(16) = {0.653675, 5.159633, 0, cl__4};
Point(17) = {36.533365, -4.42904, 0, cl__5};
Point(18) = {36.533365, -4.42904, 0.1, cl__5};
Point(19) = {36.533365, 5.159633, 0.1, cl__6};
Point(20) = {36.533365, 5.159633, 0, cl__6};
p13 = newp;
Point(p13 + 1) = {20.26535051579578, -0.9657018505478554, 0.1};
Point(p13 + 2) = {20.21380067410422, -0.7509813068018103, 0.1};
Point(p13 + 3) = {20.12929580311189, -0.5469685011655206, 0.1};
Point(p13 + 4) = {20.01391669319819, -0.3586869059934354, 0.1};
Point(p13 + 5) = {19.87050436097052, -0.1907726390294805, 0.1};
Point(p13 + 6) = {19.70259009400656, -0.04736030680181025, 0.1};
Point(p13 + 7) = {19.51430849883448, 0.06801880311188713, 0.1};
Point(p13 + 8) = {19.31029569319819, 0.1525236741042246, 0.1};
Point(p13 + 9) = {19.09557514945214, 0.2040735157957829, 0.1};
Point(p13 + 10) = {18.875434, 0.2213990000000001, 0.1};
Point(p13 + 11) = {18.65529285054785, 0.2040735157957829, 0.1};
Point(p13 + 12) = {18.44057230680181, 0.1525236741042246, 0.1};
Point(p13 + 13) = {18.23655950116552, 0.06801880311188735, 0.1};
Point(p13 + 14) = {18.04827790599343, -0.04736030680181003, 0.1};
Point(p13 + 15) = {17.88036363902948, -0.1907726390294803, 0.1};
Point(p13 + 16) = {17.73695130680181, -0.3586869059934353, 0.1};
Point(p13 + 17) = {17.62157219688811, -0.5469685011655205, 0.1};
Point(p13 + 18) = {17.53706732589577, -0.7509813068018101, 0.1};
Point(p13 + 19) = {17.48551748420422, -0.9657018505478552, 0.1};
Point(p13 + 20) = {17.468192, -1.185843, 0.1};
Point(p13 + 21) = {17.48551748420422, -1.405984149452144, 0.1};
Point(p13 + 22) = {17.53706732589577, -1.62070469319819, 0.1};
Point(p13 + 23) = {17.62157219688811, -1.824717498834479, 0.1};
Point(p13 + 24) = {17.73695130680181, -2.012999094006565, 0.1};
Point(p13 + 25) = {17.88036363902948, -2.18091336097052, 0.1};
Point(p13 + 26) = {18.04827790599343, -2.324325693198189, 0.1};
Point(p13 + 27) = {18.23655950116552, -2.439704803111887, 0.1};
Point(p13 + 28) = {18.44057230680181, -2.524209674104225, 0.1};
Point(p13 + 29) = {18.65529285054785, -2.575759515795783, 0.1};
Point(p13 + 30) = {18.875434, -2.593085, 0.1};
Point(p13 + 31) = {19.09557514945214, -2.575759515795783, 0.1};
Point(p13 + 32) = {19.31029569319819, -2.524209674104225, 0.1};
Point(p13 + 33) = {19.51430849883448, -2.439704803111888, 0.1};
Point(p13 + 34) = {19.70259009400656, -2.32432569319819, 0.1};
Point(p13 + 35) = {19.87050436097052, -2.18091336097052, 0.1};
Point(p13 + 36) = {20.01391669319819, -2.012999094006565, 0.1};
Point(p13 + 37) = {20.12929580311189, -1.82471749883448, 0.1};
Point(p13 + 38) = {20.21380067410422, -1.62070469319819, 0.1};
Point(p13 + 39) = {20.26535051579578, -1.405984149452145, 0.1};
Spline(13) = {9, p13 + 1, p13 + 2, p13 + 3, p13 + 4, p13 + 5, p13 + 6, p13 + 7, p13 + 8, p13 + 9, p13 + 10, p13 + 11, p13 + 12, p13 + 13, p13 + 14, p13 + 15, p13 + 16, p13 + 17, p13 + 18, p13 + 19, p13 + 20, p13 + 21, p13 + 22, p13 + 23, p13 + 24, p13 + 25, p13 + 26, p13 + 27, p13 + 28, p13 + 29, p13 + 30, p13 + 31, p13 + 32, p13 + 33, p13 + 34, p13 + 35, p13 + 36, p13 + 37, p13 + 38, p13 + 39, 9};
Line(14) = {10, 9};
p15 = newp;
Point(p15 + 1) = {20.26535051579578, -0.9657018505478554, 0};
Point(p15 + 2) = {20.21380067410422, -0.7509813068018103, 0};
Point(p15 + 3) = {20.12929580311189, -0.5469685011655206, 0};
Point(p15 + 4) = {20.01391669319819, -0.3586869059934354, 0};
Point(p15 + 5) = {19.87050436097052, -0.1907726390294805, 0};
Point(p15 + 6) = {19.70259009400656, -0.04736030680181025, 0};
Point(p15 + 7) = {19.51430849883448, 0.06801880311188713, 0};
Point(p15 + 8) = {19.31029569319819, 0.1525236741042246, 0};
Point(p15 + 9) = {19.09557514945214, 0.2040735157957829, 0};
Point(p15 + 10) = {18.875434, 0.2213990000000001, 0};
Point(p15 + 11) = {18.65529285054785, 0.2040735157957829, 0};
Point(p15 + 12) = {18.44057230680181, 0.1525236741042246, 0};
Point(p15 + 13) = {18.23655950116552, 0.06801880311188735, 0};
Point(p15 + 14) = {18.04827790599343, -0.04736030680181003, 0};
Point(p15 + 15) = {17.88036363902948, -0.1907726390294803, 0};
Point(p15 + 16) = {17.73695130680181, -0.3586869059934353, 0};
Point(p15 + 17) = {17.62157219688811, -0.5469685011655205, 0};
Point(p15 + 18) = {17.53706732589577, -0.7509813068018101, 0};
Point(p15 + 19) = {17.48551748420422, -0.9657018505478552, 0};
Point(p15 + 20) = {17.468192, -1.185843, 0};
Point(p15 + 21) = {17.48551748420422, -1.405984149452144, 0};
Point(p15 + 22) = {17.53706732589577, -1.62070469319819, 0};
Point(p15 + 23) = {17.62157219688811, -1.824717498834479, 0};
Point(p15 + 24) = {17.73695130680181, -2.012999094006565, 0};
Point(p15 + 25) = {17.88036363902948, -2.18091336097052, 0};
Point(p15 + 26) = {18.04827790599343, -2.324325693198189, 0};
Point(p15 + 27) = {18.23655950116552, -2.439704803111887, 0};
Point(p15 + 28) = {18.44057230680181, -2.524209674104225, 0};
Point(p15 + 29) = {18.65529285054785, -2.575759515795783, 0};
Point(p15 + 30) = {18.875434, -2.593085, 0};
Point(p15 + 31) = {19.09557514945214, -2.575759515795783, 0};
Point(p15 + 32) = {19.31029569319819, -2.524209674104225, 0};
Point(p15 + 33) = {19.51430849883448, -2.439704803111888, 0};
Point(p15 + 34) = {19.70259009400656, -2.32432569319819, 0};
Point(p15 + 35) = {19.87050436097052, -2.18091336097052, 0};
Point(p15 + 36) = {20.01391669319819, -2.012999094006565, 0};
Point(p15 + 37) = {20.12929580311189, -1.82471749883448, 0};
Point(p15 + 38) = {20.21380067410422, -1.62070469319819, 0};
Point(p15 + 39) = {20.26535051579578, -1.405984149452145, 0};
Spline(15) = {10, p15 + 1, p15 + 2, p15 + 3, p15 + 4, p15 + 5, p15 + 6, p15 + 7, p15 + 8, p15 + 9, p15 + 10, p15 + 11, p15 + 12, p15 + 13, p15 + 14, p15 + 15, p15 + 16, p15 + 17, p15 + 18, p15 + 19, p15 + 20, p15 + 21, p15 + 22, p15 + 23, p15 + 24, p15 + 25, p15 + 26, p15 + 27, p15 + 28, p15 + 29, p15 + 30, p15 + 31, p15 + 32, p15 + 33, p15 + 34, p15 + 35, p15 + 36, p15 + 37, p15 + 38, p15 + 39, 10};
p16 = newp;
Point(p16 + 1) = {3.519049045035231, 1.48705978126203, 0.1};
Point(p16 + 2) = {3.492984879304779, 1.595624844786679, 0.1};
Point(p16 + 3) = {3.450258289070935, 1.698775958403183, 0.1};
Point(p16 + 4) = {3.391921344786679, 1.793973199355384, 0.1};
Point(p16 + 5) = {3.319410495629509, 1.878872495629508, 0.1};
Point(p16 + 6) = {3.234511199355383, 1.951383344786679, 0.1};
Point(p16 + 7) = {3.139313958403183, 2.009720289070935, 0.1};
Point(p16 + 8) = {3.036162844786679, 2.052446879304779, 0.1};
Point(p16 + 9) = {2.92759778126203, 2.07851104503523, 0.1};
Point(p16 + 10) = {2.816292, 2.087271, 0.1};
Point(p16 + 11) = {2.70498621873797, 2.07851104503523, 0.1};
Point(p16 + 12) = {2.59642115521332, 2.052446879304779, 0.1};
Point(p16 + 13) = {2.493270041596817, 2.009720289070935, 0.1};
Point(p16 + 14) = {2.398072800644616, 1.95138334478668, 0.1};
Point(p16 + 15) = {2.313173504370491, 1.878872495629509, 0.1};
Point(p16 + 16) = {2.24066265521332, 1.793973199355384, 0.1};
Point(p16 + 17) = {2.182325710929065, 1.698775958403183, 0.1};
Point(p16 + 18) = {2.139599120695221, 1.595624844786679, 0.1};
Point(p16 + 19) = {2.113534954964769, 1.48705978126203, 0.1};
Point(p16 + 20) = {2.104775, 1.375754, 0.1};
Point(p16 + 21) = {2.113534954964769, 1.26444821873797, 0.1};
Point(p16 + 22) = {2.139599120695221, 1.15588315521332, 0.1};
Point(p16 + 23) = {2.182325710929065, 1.052732041596817, 0.1};
Point(p16 + 24) = {2.24066265521332, 0.9575348006446165, 0.1};
Point(p16 + 25) = {2.313173504370491, 0.8726355043704913, 0.1};
Point(p16 + 26) = {2.398072800644616, 0.8001246552133205, 0.1};
Point(p16 + 27) = {2.493270041596817, 0.741787710929065, 0.1};
Point(p16 + 28) = {2.59642115521332, 0.6990611206952212, 0.1};
Point(p16 + 29) = {2.70498621873797, 0.6729969549647694, 0.1};
Point(p16 + 30) = {2.816292, 0.664237, 0.1};
Point(p16 + 31) = {2.92759778126203, 0.6729969549647693, 0.1};
Point(p16 + 32) = {3.036162844786679, 0.6990611206952211, 0.1};
Point(p16 + 33) = {3.139313958403183, 0.7417877109290649, 0.1};
Point(p16 + 34) = {3.234511199355383, 0.8001246552133204, 0.1};
Point(p16 + 35) = {3.319410495629509, 0.8726355043704911, 0.1};
Point(p16 + 36) = {3.391921344786679, 0.9575348006446163, 0.1};
Point(p16 + 37) = {3.450258289070935, 1.052732041596817, 0.1};
Point(p16 + 38) = {3.492984879304779, 1.15588315521332, 0.1};
Point(p16 + 39) = {3.519049045035231, 1.26444821873797, 0.1};
Spline(16) = {11, p16 + 1, p16 + 2, p16 + 3, p16 + 4, p16 + 5, p16 + 6, p16 + 7, p16 + 8, p16 + 9, p16 + 10, p16 + 11, p16 + 12, p16 + 13, p16 + 14, p16 + 15, p16 + 16, p16 + 17, p16 + 18, p16 + 19, p16 + 20, p16 + 21, p16 + 22, p16 + 23, p16 + 24, p16 + 25, p16 + 26, p16 + 27, p16 + 28, p16 + 29, p16 + 30, p16 + 31, p16 + 32, p16 + 33, p16 + 34, p16 + 35, p16 + 36, p16 + 37, p16 + 38, p16 + 39, 11};
Line(17) = {12, 11};
p18 = newp;
Point(p18 + 1) = {3.519049045035231, 1.48705978126203, 0};
Point(p18 + 2) = {3.492984879304779, 1.595624844786679, 0};
Point(p18 + 3) = {3.450258289070935, 1.698775958403183, 0};
Point(p18 + 4) = {3.391921344786679, 1.793973199355384, 0};
Point(p18 + 5) = {3.319410495629509, 1.878872495629508, 0};
Point(p18 + 6) = {3.234511199355383, 1.951383344786679, 0};
Point(p18 + 7) = {3.139313958403183, 2.009720289070935, 0};
Point(p18 + 8) = {3.036162844786679, 2.052446879304779, 0};
Point(p18 + 9) = {2.92759778126203, 2.07851104503523, 0};
Point(p18 + 10) = {2.816292, 2.087271, 0};
Point(p18 + 11) = {2.70498621873797, 2.07851104503523, 0};
Point(p18 + 12) = {2.59642115521332, 2.052446879304779, 0};
Point(p18 + 13) = {2.493270041596817, 2.009720289070935, 0};
Point(p18 + 14) = {2.398072800644616, 1.95138334478668, 0};
Point(p18 + 15) = {2.313173504370491, 1.878872495629509, 0};
Point(p18 + 16) = {2.24066265521332, 1.793973199355384, 0};
Point(p18 + 17) = {2.182325710929065, 1.698775958403183, 0};
Point(p18 + 18) = {2.139599120695221, 1.595624844786679, 0};
Point(p18 + 19) = {2.113534954964769, 1.48705978126203, 0};
Point(p18 + 20) = {2.104775, 1.375754, 0};
Point(p18 + 21) = {2.113534954964769, 1.26444821873797, 0};
Point(p18 + 22) = {2.139599120695221, 1.15588315521332, 0};
Point(p18 + 23) = {2.182325710929065, 1.052732041596817, 0};
Point(p18 + 24) = {2.24066265521332, 0.9575348006446165, 0};
Point(p18 + 25) = {2.313173504370491, 0.8726355043704913, 0};
Point(p18 + 26) = {2.398072800644616, 0.8001246552133205, 0};
Point(p18 + 27) = {2.493270041596817, 0.741787710929065, 0};
Point(p18 + 28) = {2.59642115521332, 0.6990611206952212, 0};
Point(p18 + 29) = {2.70498621873797, 0.6729969549647694, 0};
Point(p18 + 30) = {2.816292, 0.664237, 0};
Point(p18 + 31) = {2.92759778126203, 0.6729969549647693, 0};
Point(p18 + 32) = {3.036162844786679, 0.6990611206952211, 0};
Point(p18 + 33) = {3.139313958403183, 0.7417877109290649, 0};
Point(p18 + 34) = {3.234511199355383, 0.8001246552133204, 0};
Point(p18 + 35) = {3.319410495629509, 0.8726355043704911, 0};
Point(p18 + 36) = {3.391921344786679, 0.9575348006446163, 0};
Point(p18 + 37) = {3.450258289070935, 1.052732041596817, 0};
Point(p18 + 38) = {3.492984879304779, 1.15588315521332, 0};
Point(p18 + 39) = {3.519049045035231, 1.26444821873797, 0};
Spline(18) = {12, p18 + 1, p18 + 2, p18 + 3, p18 + 4, p18 + 5, p18 + 6, p18 + 7, p18 + 8, p18 + 9, p18 + 10, p18 + 11, p18 + 12, p18 + 13, p18 + 14, p18 + 15, p18 + 16, p18 + 17, p18 + 18, p18 + 19, p18 + 20, p18 + 21, p18 + 22, p18 + 23, p18 + 24, p18 + 25, p18 + 26, p18 + 27, p18 + 28, p18 + 29, p18 + 30, p18 + 31, p18 + 32, p18 + 33, p18 + 34, p18 + 35, p18 + 36, p18 + 37, p18 + 38, p18 + 39, 12};
Line(19) = {14, 13};
Line(20) = {13, 15};
Line(21) = {16, 15};
Line(22) = {14, 16};
Line(23) = {14, 17};
Line(24) = {17, 18};
Line(25) = {13, 18};
Line(26) = {15, 19};
Line(27) = {18, 19};
Line(28) = {16, 20};
Line(29) = {20, 19};
Line(30) = {17, 20};
Curve Loop(7) = {-13, -14, 15, 14};
Surface(7) = {7};
Curve Loop(8) = {13};
Plane Surface(8) = {8};
Curve Loop(9) = {15};
Plane Surface(9) = {9};
Curve Loop(10) = {-16, -17, 18, 17};
Surface(10) = {10};
Curve Loop(11) = {16};
Plane Surface(11) = {11};
Curve Loop(12) = {18};
Plane Surface(12) = {12};
Curve Loop(13) = {-19, 22, 21, -20};
Plane Surface(13) = {13};
Curve Loop(14) = {-23, 19, 25, -24};
Plane Surface(14) = {14};
Curve Loop(15) = {-20, 25, 27, -26, -13, -16};
Plane Surface(15) = {15};
Curve Loop(16) = {-28, 21, 26, -29};
Plane Surface(16) = {16};
Curve Loop(17) = {-22, 23, 30, -28, -15, -18};
Plane Surface(17) = {17};
Curve Loop(18) = {-24, 30, 29, -27};
Plane Surface(18) = {18};
Surface Loop(1) = {13, 14, 15, 16, 17, 18, 7, 10};
Volume(1) = {1};
Surface Loop(2) = {7, 8, 9};
Volume(2) = {2};
Surface Loop(3) = {10, 11, 12};
Volume(3) = {3};
Physical Surface("WALLS") = {13, 18};
Physical Surface("LOAD") = {8, 11};
Physical Surface("BORDER") = {7, 9, 10, 12, 14, 15, 16, 17};
Physical Volume("SOLID") = {1, 2, 3};
