cl__1 = 0.085817;
cl__2 = 0.09853000000000001;
cl__3 = 0.405819;
cl__4 = 0.204977;
cl__5 = 4.924934;
cl__6 = 4.808222;
Point(9) = {8.201510000000001, 1.626944, 0.1, cl__1};
Point(10) = {8.201510000000001, 1.626944, 0, cl__1};
Point(11) = {6.112569, 3.427225, 0.1, cl__2};
Point(12) = {6.112569, 3.427225, 0, cl__2};
Point(13) = {0.788562, -3.541701, 0.1, cl__3};
Point(14) = {0.788562, -3.541701, 0, cl__3};
Point(15) = {0.788562, 5.055096000000001, 0.1, cl__4};
Point(16) = {0.788562, 5.055096000000001, 0, cl__4};
Point(17) = {38.055254, -3.541701, 0, cl__5};
Point(18) = {38.055254, -3.541701, 0.1, cl__5};
Point(19) = {38.055254, 5.055096000000001, 0.1, cl__6};
Point(20) = {38.055254, 5.055096000000001, 0, cl__6};
p13 = newp;
Point(p13 + 1) = {8.190944540183507, 1.76119089556018, 0.1};
Point(p13 + 2) = {8.159508317419464, 1.892132187011765, 0.1};
Point(p13 + 3) = {8.107975395843159, 2.016543665189988, 0.1};
Point(p13 + 4) = {8.037614687011766, 2.131361906604075, 0.1};
Point(p13 + 5) = {7.950158705090516, 2.233759705090516, 0.1};
Point(p13 + 6) = {7.847760906604075, 2.321215687011765, 0.1};
Point(p13 + 7) = {7.732942665189988, 2.391576395843159, 0.1};
Point(p13 + 8) = {7.608531187011765, 2.443109317419463, 0.1};
Point(p13 + 9) = {7.47758989556018, 2.474545540183508, 0.1};
Point(p13 + 10) = {7.343343, 2.485111, 0.1};
Point(p13 + 11) = {7.20909610443982, 2.474545540183508, 0.1};
Point(p13 + 12) = {7.078154812988235, 2.443109317419463, 0.1};
Point(p13 + 13) = {6.953743334810012, 2.391576395843159, 0.1};
Point(p13 + 14) = {6.838925093395925, 2.321215687011765, 0.1};
Point(p13 + 15) = {6.736527294909484, 2.233759705090516, 0.1};
Point(p13 + 16) = {6.649071312988235, 2.131361906604075, 0.1};
Point(p13 + 17) = {6.578710604156841, 2.016543665189988, 0.1};
Point(p13 + 18) = {6.527177682580537, 1.892132187011766, 0.1};
Point(p13 + 19) = {6.495741459816492, 1.76119089556018, 0.1};
Point(p13 + 20) = {6.485176, 1.626944, 0.1};
Point(p13 + 21) = {6.495741459816492, 1.49269710443982, 0.1};
Point(p13 + 22) = {6.527177682580537, 1.361755812988234, 0.1};
Point(p13 + 23) = {6.578710604156841, 1.237344334810013, 0.1};
Point(p13 + 24) = {6.649071312988235, 1.122526093395925, 0.1};
Point(p13 + 25) = {6.736527294909484, 1.020128294909484, 0.1};
Point(p13 + 26) = {6.838925093395925, 0.9326723129882345, 0.1};
Point(p13 + 27) = {6.953743334810012, 0.8623116041568409, 0.1};
Point(p13 + 28) = {7.078154812988235, 0.8107786825805369, 0.1};
Point(p13 + 29) = {7.20909610443982, 0.7793424598164924, 0.1};
Point(p13 + 30) = {7.343343, 0.7687769999999999, 0.1};
Point(p13 + 31) = {7.47758989556018, 0.7793424598164923, 0.1};
Point(p13 + 32) = {7.608531187011765, 0.8107786825805369, 0.1};
Point(p13 + 33) = {7.732942665189987, 0.8623116041568407, 0.1};
Point(p13 + 34) = {7.847760906604075, 0.9326723129882343, 0.1};
Point(p13 + 35) = {7.950158705090516, 1.020128294909484, 0.1};
Point(p13 + 36) = {8.037614687011766, 1.122526093395925, 0.1};
Point(p13 + 37) = {8.107975395843159, 1.237344334810012, 0.1};
Point(p13 + 38) = {8.159508317419464, 1.361755812988234, 0.1};
Point(p13 + 39) = {8.190944540183507, 1.49269710443982, 0.1};
Spline(13) = {9, p13 + 1, p13 + 2, p13 + 3, p13 + 4, p13 + 5, p13 + 6, p13 + 7, p13 + 8, p13 + 9, p13 + 10, p13 + 11, p13 + 12, p13 + 13, p13 + 14, p13 + 15, p13 + 16, p13 + 17, p13 + 18, p13 + 19, p13 + 20, p13 + 21, p13 + 22, p13 + 23, p13 + 24, p13 + 25, p13 + 26, p13 + 27, p13 + 28, p13 + 29, p13 + 30, p13 + 31, p13 + 32, p13 + 33, p13 + 34, p13 + 35, p13 + 36, p13 + 37, p13 + 38, p13 + 39, 9};
Line(14) = {10, 9};
p15 = newp;
Point(p15 + 1) = {8.190944540183507, 1.76119089556018, 0};
Point(p15 + 2) = {8.159508317419464, 1.892132187011765, 0};
Point(p15 + 3) = {8.107975395843159, 2.016543665189988, 0};
Point(p15 + 4) = {8.037614687011766, 2.131361906604075, 0};
Point(p15 + 5) = {7.950158705090516, 2.233759705090516, 0};
Point(p15 + 6) = {7.847760906604075, 2.321215687011765, 0};
Point(p15 + 7) = {7.732942665189988, 2.391576395843159, 0};
Point(p15 + 8) = {7.608531187011765, 2.443109317419463, 0};
Point(p15 + 9) = {7.47758989556018, 2.474545540183508, 0};
Point(p15 + 10) = {7.343343, 2.485111, 0};
Point(p15 + 11) = {7.20909610443982, 2.474545540183508, 0};
Point(p15 + 12) = {7.078154812988235, 2.443109317419463, 0};
Point(p15 + 13) = {6.953743334810012, 2.391576395843159, 0};
Point(p15 + 14) = {6.838925093395925, 2.321215687011765, 0};
Point(p15 + 15) = {6.736527294909484, 2.233759705090516, 0};
Point(p15 + 16) = {6.649071312988235, 2.131361906604075, 0};
Point(p15 + 17) = {6.578710604156841, 2.016543665189988, 0};
Point(p15 + 18) = {6.527177682580537, 1.892132187011766, 0};
Point(p15 + 19) = {6.495741459816492, 1.76119089556018, 0};
Point(p15 + 20) = {6.485176, 1.626944, 0};
Point(p15 + 21) = {6.495741459816492, 1.49269710443982, 0};
Point(p15 + 22) = {6.527177682580537, 1.361755812988234, 0};
Point(p15 + 23) = {6.578710604156841, 1.237344334810013, 0};
Point(p15 + 24) = {6.649071312988235, 1.122526093395925, 0};
Point(p15 + 25) = {6.736527294909484, 1.020128294909484, 0};
Point(p15 + 26) = {6.838925093395925, 0.9326723129882345, 0};
Point(p15 + 27) = {6.953743334810012, 0.8623116041568409, 0};
Point(p15 + 28) = {7.078154812988235, 0.8107786825805369, 0};
Point(p15 + 29) = {7.20909610443982, 0.7793424598164924, 0};
Point(p15 + 30) = {7.343343, 0.7687769999999999, 0};
Point(p15 + 31) = {7.47758989556018, 0.7793424598164923, 0};
Point(p15 + 32) = {7.608531187011765, 0.8107786825805369, 0};
Point(p15 + 33) = {7.732942665189987, 0.8623116041568407, 0};
Point(p15 + 34) = {7.847760906604075, 0.9326723129882343, 0};
Point(p15 + 35) = {7.950158705090516, 1.020128294909484, 0};
Point(p15 + 36) = {8.037614687011766, 1.122526093395925, 0};
Point(p15 + 37) = {8.107975395843159, 1.237344334810012, 0};
Point(p15 + 38) = {8.159508317419464, 1.361755812988234, 0};
Point(p15 + 39) = {8.190944540183507, 1.49269710443982, 0};
Spline(15) = {10, p15 + 1, p15 + 2, p15 + 3, p15 + 4, p15 + 5, p15 + 6, p15 + 7, p15 + 8, p15 + 9, p15 + 10, p15 + 11, p15 + 12, p15 + 13, p15 + 14, p15 + 15, p15 + 16, p15 + 17, p15 + 18, p15 + 19, p15 + 20, p15 + 21, p15 + 22, p15 + 23, p15 + 24, p15 + 25, p15 + 26, p15 + 27, p15 + 28, p15 + 29, p15 + 30, p15 + 31, p15 + 32, p15 + 33, p15 + 34, p15 + 35, p15 + 36, p15 + 37, p15 + 38, p15 + 39, 10};
p16 = newp;
Point(p16 + 1) = {6.10043829736507, 3.581360191273069, 0.1};
Point(p16 + 2) = {6.064344887618647, 3.731700062591624, 0.1};
Point(p16 + 3) = {6.005177510295847, 3.874542747374375, 0.1};
Point(p16 + 4) = {5.924393062591625, 4.006370984654279, 0.1};
Point(p16 + 5) = {5.823980725716668, 4.123938725716668, 0.1};
Point(p16 + 6) = {5.706412984654278, 4.224351062591625, 0.1};
Point(p16 + 7) = {5.574584747374375, 4.305135510295847, 0.1};
Point(p16 + 8) = {5.431742062591624, 4.364302887618647, 0.1};
Point(p16 + 9) = {5.281402191273069, 4.40039629736507, 0.1};
Point(p16 + 10) = {5.127267, 4.412527, 0.1};
Point(p16 + 11) = {4.97313180872693, 4.40039629736507, 0.1};
Point(p16 + 12) = {4.822791937408375, 4.364302887618647, 0.1};
Point(p16 + 13) = {4.679949252625625, 4.305135510295847, 0.1};
Point(p16 + 14) = {4.548121015345721, 4.224351062591625, 0.1};
Point(p16 + 15) = {4.430553274283332, 4.123938725716668, 0.1};
Point(p16 + 16) = {4.330140937408375, 4.006370984654279, 0.1};
Point(p16 + 17) = {4.249356489704152, 3.874542747374375, 0.1};
Point(p16 + 18) = {4.190189112381352, 3.731700062591624, 0.1};
Point(p16 + 19) = {4.15409570263493, 3.581360191273069, 0.1};
Point(p16 + 20) = {4.141965, 3.427225, 0.1};
Point(p16 + 21) = {4.15409570263493, 3.27308980872693, 0.1};
Point(p16 + 22) = {4.190189112381352, 3.122749937408375, 0.1};
Point(p16 + 23) = {4.249356489704152, 2.979907252625626, 0.1};
Point(p16 + 24) = {4.330140937408375, 2.848079015345722, 0.1};
Point(p16 + 25) = {4.430553274283332, 2.730511274283332, 0.1};
Point(p16 + 26) = {4.548121015345721, 2.630098937408376, 0.1};
Point(p16 + 27) = {4.679949252625625, 2.549314489704153, 0.1};
Point(p16 + 28) = {4.822791937408375, 2.490147112381353, 0.1};
Point(p16 + 29) = {4.97313180872693, 2.45405370263493, 0.1};
Point(p16 + 30) = {5.127267, 2.441923, 0.1};
Point(p16 + 31) = {5.281402191273069, 2.454053702634929, 0.1};
Point(p16 + 32) = {5.431742062591624, 2.490147112381353, 0.1};
Point(p16 + 33) = {5.574584747374375, 2.549314489704153, 0.1};
Point(p16 + 34) = {5.706412984654278, 2.630098937408375, 0.1};
Point(p16 + 35) = {5.823980725716668, 2.730511274283332, 0.1};
Point(p16 + 36) = {5.924393062591625, 2.848079015345721, 0.1};
Point(p16 + 37) = {6.005177510295847, 2.979907252625625, 0.1};
Point(p16 + 38) = {6.064344887618647, 3.122749937408375, 0.1};
Point(p16 + 39) = {6.10043829736507, 3.27308980872693, 0.1};
Spline(16) = {11, p16 + 1, p16 + 2, p16 + 3, p16 + 4, p16 + 5, p16 + 6, p16 + 7, p16 + 8, p16 + 9, p16 + 10, p16 + 11, p16 + 12, p16 + 13, p16 + 14, p16 + 15, p16 + 16, p16 + 17, p16 + 18, p16 + 19, p16 + 20, p16 + 21, p16 + 22, p16 + 23, p16 + 24, p16 + 25, p16 + 26, p16 + 27, p16 + 28, p16 + 29, p16 + 30, p16 + 31, p16 + 32, p16 + 33, p16 + 34, p16 + 35, p16 + 36, p16 + 37, p16 + 38, p16 + 39, 11};
Line(17) = {12, 11};
p18 = newp;
Point(p18 + 1) = {6.10043829736507, 3.581360191273069, 0};
Point(p18 + 2) = {6.064344887618647, 3.731700062591624, 0};
Point(p18 + 3) = {6.005177510295847, 3.874542747374375, 0};
Point(p18 + 4) = {5.924393062591625, 4.006370984654279, 0};
Point(p18 + 5) = {5.823980725716668, 4.123938725716668, 0};
Point(p18 + 6) = {5.706412984654278, 4.224351062591625, 0};
Point(p18 + 7) = {5.574584747374375, 4.305135510295847, 0};
Point(p18 + 8) = {5.431742062591624, 4.364302887618647, 0};
Point(p18 + 9) = {5.281402191273069, 4.40039629736507, 0};
Point(p18 + 10) = {5.127267, 4.412527, 0};
Point(p18 + 11) = {4.97313180872693, 4.40039629736507, 0};
Point(p18 + 12) = {4.822791937408375, 4.364302887618647, 0};
Point(p18 + 13) = {4.679949252625625, 4.305135510295847, 0};
Point(p18 + 14) = {4.548121015345721, 4.224351062591625, 0};
Point(p18 + 15) = {4.430553274283332, 4.123938725716668, 0};
Point(p18 + 16) = {4.330140937408375, 4.006370984654279, 0};
Point(p18 + 17) = {4.249356489704152, 3.874542747374375, 0};
Point(p18 + 18) = {4.190189112381352, 3.731700062591624, 0};
Point(p18 + 19) = {4.15409570263493, 3.581360191273069, 0};
Point(p18 + 20) = {4.141965, 3.427225, 0};
Point(p18 + 21) = {4.15409570263493, 3.27308980872693, 0};
Point(p18 + 22) = {4.190189112381352, 3.122749937408375, 0};
Point(p18 + 23) = {4.249356489704152, 2.979907252625626, 0};
Point(p18 + 24) = {4.330140937408375, 2.848079015345722, 0};
Point(p18 + 25) = {4.430553274283332, 2.730511274283332, 0};
Point(p18 + 26) = {4.548121015345721, 2.630098937408376, 0};
Point(p18 + 27) = {4.679949252625625, 2.549314489704153, 0};
Point(p18 + 28) = {4.822791937408375, 2.490147112381353, 0};
Point(p18 + 29) = {4.97313180872693, 2.45405370263493, 0};
Point(p18 + 30) = {5.127267, 2.441923, 0};
Point(p18 + 31) = {5.281402191273069, 2.454053702634929, 0};
Point(p18 + 32) = {5.431742062591624, 2.490147112381353, 0};
Point(p18 + 33) = {5.574584747374375, 2.549314489704153, 0};
Point(p18 + 34) = {5.706412984654278, 2.630098937408375, 0};
Point(p18 + 35) = {5.823980725716668, 2.730511274283332, 0};
Point(p18 + 36) = {5.924393062591625, 2.848079015345721, 0};
Point(p18 + 37) = {6.005177510295847, 2.979907252625625, 0};
Point(p18 + 38) = {6.064344887618647, 3.122749937408375, 0};
Point(p18 + 39) = {6.10043829736507, 3.27308980872693, 0};
Spline(18) = {12, p18 + 1, p18 + 2, p18 + 3, p18 + 4, p18 + 5, p18 + 6, p18 + 7, p18 + 8, p18 + 9, p18 + 10, p18 + 11, p18 + 12, p18 + 13, p18 + 14, p18 + 15, p18 + 16, p18 + 17, p18 + 18, p18 + 19, p18 + 20, p18 + 21, p18 + 22, p18 + 23, p18 + 24, p18 + 25, p18 + 26, p18 + 27, p18 + 28, p18 + 29, p18 + 30, p18 + 31, p18 + 32, p18 + 33, p18 + 34, p18 + 35, p18 + 36, p18 + 37, p18 + 38, p18 + 39, 12};
Line(19) = {14, 13};
Line(20) = {13, 15};
Line(21) = {16, 15};
Line(22) = {14, 16};
Line(23) = {14, 17};
Line(24) = {17, 18};
Line(25) = {13, 18};
Line(26) = {15, 19};
Line(27) = {18, 19};
Line(28) = {16, 20};
Line(29) = {20, 19};
Line(30) = {17, 20};
Curve Loop(7) = {-13, -14, 15, 14};
Surface(7) = {7};
Curve Loop(8) = {13};
Plane Surface(8) = {8};
Curve Loop(9) = {15};
Plane Surface(9) = {9};
Curve Loop(10) = {-16, -17, 18, 17};
Surface(10) = {10};
Curve Loop(11) = {16};
Plane Surface(11) = {11};
Curve Loop(12) = {18};
Plane Surface(12) = {12};
Curve Loop(13) = {-19, 22, 21, -20};
Plane Surface(13) = {13};
Curve Loop(14) = {-23, 19, 25, -24};
Plane Surface(14) = {14};
Curve Loop(15) = {-20, 25, 27, -26, -13, -16};
Plane Surface(15) = {15};
Curve Loop(16) = {-28, 21, 26, -29};
Plane Surface(16) = {16};
Curve Loop(17) = {-22, 23, 30, -28, -15, -18};
Plane Surface(17) = {17};
Curve Loop(18) = {-24, 30, 29, -27};
Plane Surface(18) = {18};
Surface Loop(1) = {13, 14, 15, 16, 17, 18, 7, 10};
Volume(1) = {1};
Surface Loop(2) = {7, 8, 9};
Volume(2) = {2};
Surface Loop(3) = {10, 11, 12};
Volume(3) = {3};
Physical Surface("WALLS") = {13, 18};
Physical Surface("LOAD") = {8, 11};
Physical Surface("BORDER") = {7, 9, 10, 12, 14, 15, 16, 17};
Physical Volume("SOLID") = {1, 2, 3};
