cl__1 = 0.08046;
cl__2 = 0.055428;
cl__3 = 4.580698;
cl__4 = 4.459699;
cl__5 = 0.204595;
cl__6 = 0.488611;
Point(9) = {18.931722, 0.9200529999999998, 0.1, cl__1};
Point(10) = {18.931722, 0.9200529999999998, 0, cl__1};
Point(11) = {29.066542, -1.055985, 0.1, cl__2};
Point(12) = {29.066542, -1.055985, 0, cl__2};
Point(13) = {0.412339, -3.306488, 1, cl__3};
Point(14) = {0.412339, -3.306488, 0, cl__3};
Point(15) = {0.412339, 4.420751, 1, cl__4};
Point(16) = {0.412339, 4.420751, 0, cl__4};
Point(17) = {30.001698, -3.306488, 0, cl__5};
Point(18) = {30.001698, -3.306488, 1, cl__5};
Point(19) = {30.001698, 4.420751, 1, cl__6};
Point(20) = {30.001698, 4.420751, 0, cl__6};
p13 = newp;
Point(p13 + 1) = {18.92181606346616, 1.04591985770244, 0.1};
Point(p13 + 2) = {18.89234217089805, 1.168687455640094, 0.1};
Point(p13 + 3) = {18.84402606734891, 1.28533284810944, 0.1};
Point(p13 + 4) = {18.77805745564009, 1.392983838424019, 0.1};
Point(p13 + 5) = {18.69606070192913, 1.488989701929134, 0.1};
Point(p13 + 6) = {18.60005483842402, 1.570986455640094, 0.1};
Point(p13 + 7) = {18.49240384810944, 1.636955067348912, 0.1};
Point(p13 + 8) = {18.37575845564009, 1.685271170898048, 0.1};
Point(p13 + 9) = {18.25299085770244, 1.714745063466167, 0.1};
Point(p13 + 10) = {18.127124, 1.724651, 0.1};
Point(p13 + 11) = {18.00125714229756, 1.714745063466167, 0.1};
Point(p13 + 12) = {17.8784895443599, 1.685271170898048, 0.1};
Point(p13 + 13) = {17.76184415189056, 1.636955067348913, 0.1};
Point(p13 + 14) = {17.65419316157598, 1.570986455640094, 0.1};
Point(p13 + 15) = {17.55818729807087, 1.488989701929134, 0.1};
Point(p13 + 16) = {17.47619054435991, 1.392983838424019, 0.1};
Point(p13 + 17) = {17.41022193265109, 1.28533284810944, 0.1};
Point(p13 + 18) = {17.36190582910195, 1.168687455640094, 0.1};
Point(p13 + 19) = {17.33243193653383, 1.04591985770244, 0.1};
Point(p13 + 20) = {17.322526, 0.9200530000000001, 0.1};
Point(p13 + 21) = {17.33243193653383, 0.7941861422975605, 0.1};
Point(p13 + 22) = {17.36190582910195, 0.6714185443599058, 0.1};
Point(p13 + 23) = {17.41022193265109, 0.5547731518905605, 0.1};
Point(p13 + 24) = {17.47619054435991, 0.4471221615759808, 0.1};
Point(p13 + 25) = {17.55818729807087, 0.3511162980708663, 0.1};
Point(p13 + 26) = {17.65419316157598, 0.2691195443599061, 0.1};
Point(p13 + 27) = {17.76184415189056, 0.2031509326510876, 0.1};
Point(p13 + 28) = {17.8784895443599, 0.154834829101952, 0.1};
Point(p13 + 29) = {18.00125714229756, 0.1253609365338334, 0.1};
Point(p13 + 30) = {18.127124, 0.115455, 0.1};
Point(p13 + 31) = {18.25299085770244, 0.1253609365338333, 0.1};
Point(p13 + 32) = {18.37575845564009, 0.1548348291019519, 0.1};
Point(p13 + 33) = {18.49240384810944, 0.2031509326510874, 0.1};
Point(p13 + 34) = {18.60005483842402, 0.2691195443599059, 0.1};
Point(p13 + 35) = {18.69606070192913, 0.3511162980708661, 0.1};
Point(p13 + 36) = {18.77805745564009, 0.4471221615759806, 0.1};
Point(p13 + 37) = {18.84402606734891, 0.55477315189056, 0.1};
Point(p13 + 38) = {18.89234217089805, 0.6714185443599059, 0.1};
Point(p13 + 39) = {18.92181606346616, 0.7941861422975601, 0.1};
Spline(13) = {9, p13 + 1, p13 + 2, p13 + 3, p13 + 4, p13 + 5, p13 + 6, p13 + 7, p13 + 8, p13 + 9, p13 + 10, p13 + 11, p13 + 12, p13 + 13, p13 + 14, p13 + 15, p13 + 16, p13 + 17, p13 + 18, p13 + 19, p13 + 20, p13 + 21, p13 + 22, p13 + 23, p13 + 24, p13 + 25, p13 + 26, p13 + 27, p13 + 28, p13 + 29, p13 + 30, p13 + 31, p13 + 32, p13 + 33, p13 + 34, p13 + 35, p13 + 36, p13 + 37, p13 + 38, p13 + 39, 9};
Line(14) = {10, 9};
p15 = newp;
Point(p15 + 1) = {18.92181606346616, 1.04591985770244, 0};
Point(p15 + 2) = {18.89234217089805, 1.168687455640094, 0};
Point(p15 + 3) = {18.84402606734891, 1.28533284810944, 0};
Point(p15 + 4) = {18.77805745564009, 1.392983838424019, 0};
Point(p15 + 5) = {18.69606070192913, 1.488989701929134, 0};
Point(p15 + 6) = {18.60005483842402, 1.570986455640094, 0};
Point(p15 + 7) = {18.49240384810944, 1.636955067348912, 0};
Point(p15 + 8) = {18.37575845564009, 1.685271170898048, 0};
Point(p15 + 9) = {18.25299085770244, 1.714745063466167, 0};
Point(p15 + 10) = {18.127124, 1.724651, 0};
Point(p15 + 11) = {18.00125714229756, 1.714745063466167, 0};
Point(p15 + 12) = {17.8784895443599, 1.685271170898048, 0};
Point(p15 + 13) = {17.76184415189056, 1.636955067348913, 0};
Point(p15 + 14) = {17.65419316157598, 1.570986455640094, 0};
Point(p15 + 15) = {17.55818729807087, 1.488989701929134, 0};
Point(p15 + 16) = {17.47619054435991, 1.392983838424019, 0};
Point(p15 + 17) = {17.41022193265109, 1.28533284810944, 0};
Point(p15 + 18) = {17.36190582910195, 1.168687455640094, 0};
Point(p15 + 19) = {17.33243193653383, 1.04591985770244, 0};
Point(p15 + 20) = {17.322526, 0.9200530000000001, 0};
Point(p15 + 21) = {17.33243193653383, 0.7941861422975605, 0};
Point(p15 + 22) = {17.36190582910195, 0.6714185443599058, 0};
Point(p15 + 23) = {17.41022193265109, 0.5547731518905605, 0};
Point(p15 + 24) = {17.47619054435991, 0.4471221615759808, 0};
Point(p15 + 25) = {17.55818729807087, 0.3511162980708663, 0};
Point(p15 + 26) = {17.65419316157598, 0.2691195443599061, 0};
Point(p15 + 27) = {17.76184415189056, 0.2031509326510876, 0};
Point(p15 + 28) = {17.8784895443599, 0.154834829101952, 0};
Point(p15 + 29) = {18.00125714229756, 0.1253609365338334, 0};
Point(p15 + 30) = {18.127124, 0.115455, 0};
Point(p15 + 31) = {18.25299085770244, 0.1253609365338333, 0};
Point(p15 + 32) = {18.37575845564009, 0.1548348291019519, 0};
Point(p15 + 33) = {18.49240384810944, 0.2031509326510874, 0};
Point(p15 + 34) = {18.60005483842402, 0.2691195443599059, 0};
Point(p15 + 35) = {18.69606070192913, 0.3511162980708661, 0};
Point(p15 + 36) = {18.77805745564009, 0.4471221615759806, 0};
Point(p15 + 37) = {18.84402606734891, 0.55477315189056, 0};
Point(p15 + 38) = {18.89234217089805, 0.6714185443599059, 0};
Point(p15 + 39) = {18.92181606346616, 0.7941861422975601, 0};
Spline(15) = {10, p15 + 1, p15 + 2, p15 + 3, p15 + 4, p15 + 5, p15 + 6, p15 + 7, p15 + 8, p15 + 9, p15 + 10, p15 + 11, p15 + 12, p15 + 13, p15 + 14, p15 + 15, p15 + 16, p15 + 17, p15 + 18, p15 + 19, p15 + 20, p15 + 21, p15 + 22, p15 + 23, p15 + 24, p15 + 25, p15 + 26, p15 + 27, p15 + 28, p15 + 29, p15 + 30, p15 + 31, p15 + 32, p15 + 33, p15 + 34, p15 + 35, p15 + 36, p15 + 37, p15 + 38, p15 + 39, 10};
p16 = newp;
Point(p16 + 1) = {29.05971795498337, -0.969277286889826, 0.1};
Point(p16 + 2) = {29.0394138505695, -0.884704605442826, 0.1};
Point(p16 + 3) = {29.00612964119451, -0.8043494157568627, 0.1};
Point(p16 + 4) = {28.96068489455718, -0.7301903292855894, 0.1};
Point(p16 + 5) = {28.90419861114217, -0.6640533888578264, 0.1};
Point(p16 + 6) = {28.83806167071441, -0.607567105442826, 0.1};
Point(p16 + 7) = {28.76390258424314, -0.5621223588054924, 0.1};
Point(p16 + 8) = {28.68354739455718, -0.5288381494305038, 0.1};
Point(p16 + 9) = {28.59897471311017, -0.50853404501663, 0.1};
Point(p16 + 10) = {28.512267, -0.50171, 0.1};
Point(p16 + 11) = {28.42555928688983, -0.50853404501663, 0.1};
Point(p16 + 12) = {28.34098660544283, -0.5288381494305037, 0.1};
Point(p16 + 13) = {28.26063141575687, -0.5621223588054924, 0.1};
Point(p16 + 14) = {28.18647232928559, -0.607567105442826, 0.1};
Point(p16 + 15) = {28.12033538885783, -0.6640533888578264, 0.1};
Point(p16 + 16) = {28.06384910544283, -0.7301903292855894, 0.1};
Point(p16 + 17) = {28.01840435880549, -0.8043494157568627, 0.1};
Point(p16 + 18) = {27.9851201494305, -0.8847046054428259, 0.1};
Point(p16 + 19) = {27.96481604501663, -0.969277286889826, 0.1};
Point(p16 + 20) = {27.957992, -1.055985, 0.1};
Point(p16 + 21) = {27.96481604501663, -1.142692713110174, 0.1};
Point(p16 + 22) = {27.9851201494305, -1.227265394557174, 0.1};
Point(p16 + 23) = {28.01840435880549, -1.307620584243137, 0.1};
Point(p16 + 24) = {28.06384910544283, -1.381779670714411, 0.1};
Point(p16 + 25) = {28.12033538885783, -1.447916611142174, 0.1};
Point(p16 + 26) = {28.18647232928559, -1.504402894557174, 0.1};
Point(p16 + 27) = {28.26063141575687, -1.549847641194507, 0.1};
Point(p16 + 28) = {28.34098660544283, -1.583131850569496, 0.1};
Point(p16 + 29) = {28.42555928688983, -1.60343595498337, 0.1};
Point(p16 + 30) = {28.512267, -1.61026, 0.1};
Point(p16 + 31) = {28.59897471311017, -1.60343595498337, 0.1};
Point(p16 + 32) = {28.68354739455717, -1.583131850569496, 0.1};
Point(p16 + 33) = {28.76390258424314, -1.549847641194507, 0.1};
Point(p16 + 34) = {28.83806167071441, -1.504402894557174, 0.1};
Point(p16 + 35) = {28.90419861114217, -1.447916611142174, 0.1};
Point(p16 + 36) = {28.96068489455718, -1.381779670714411, 0.1};
Point(p16 + 37) = {29.00612964119451, -1.307620584243137, 0.1};
Point(p16 + 38) = {29.0394138505695, -1.227265394557174, 0.1};
Point(p16 + 39) = {29.05971795498337, -1.142692713110174, 0.1};
Spline(16) = {11, p16 + 1, p16 + 2, p16 + 3, p16 + 4, p16 + 5, p16 + 6, p16 + 7, p16 + 8, p16 + 9, p16 + 10, p16 + 11, p16 + 12, p16 + 13, p16 + 14, p16 + 15, p16 + 16, p16 + 17, p16 + 18, p16 + 19, p16 + 20, p16 + 21, p16 + 22, p16 + 23, p16 + 24, p16 + 25, p16 + 26, p16 + 27, p16 + 28, p16 + 29, p16 + 30, p16 + 31, p16 + 32, p16 + 33, p16 + 34, p16 + 35, p16 + 36, p16 + 37, p16 + 38, p16 + 39, 11};
Line(17) = {12, 11};
p18 = newp;
Point(p18 + 1) = {29.05971795498337, -0.969277286889826, 0};
Point(p18 + 2) = {29.0394138505695, -0.884704605442826, 0};
Point(p18 + 3) = {29.00612964119451, -0.8043494157568627, 0};
Point(p18 + 4) = {28.96068489455718, -0.7301903292855894, 0};
Point(p18 + 5) = {28.90419861114217, -0.6640533888578264, 0};
Point(p18 + 6) = {28.83806167071441, -0.607567105442826, 0};
Point(p18 + 7) = {28.76390258424314, -0.5621223588054924, 0};
Point(p18 + 8) = {28.68354739455718, -0.5288381494305038, 0};
Point(p18 + 9) = {28.59897471311017, -0.50853404501663, 0};
Point(p18 + 10) = {28.512267, -0.50171, 0};
Point(p18 + 11) = {28.42555928688983, -0.50853404501663, 0};
Point(p18 + 12) = {28.34098660544283, -0.5288381494305037, 0};
Point(p18 + 13) = {28.26063141575687, -0.5621223588054924, 0};
Point(p18 + 14) = {28.18647232928559, -0.607567105442826, 0};
Point(p18 + 15) = {28.12033538885783, -0.6640533888578264, 0};
Point(p18 + 16) = {28.06384910544283, -0.7301903292855894, 0};
Point(p18 + 17) = {28.01840435880549, -0.8043494157568627, 0};
Point(p18 + 18) = {27.9851201494305, -0.8847046054428259, 0};
Point(p18 + 19) = {27.96481604501663, -0.969277286889826, 0};
Point(p18 + 20) = {27.957992, -1.055985, 0};
Point(p18 + 21) = {27.96481604501663, -1.142692713110174, 0};
Point(p18 + 22) = {27.9851201494305, -1.227265394557174, 0};
Point(p18 + 23) = {28.01840435880549, -1.307620584243137, 0};
Point(p18 + 24) = {28.06384910544283, -1.381779670714411, 0};
Point(p18 + 25) = {28.12033538885783, -1.447916611142174, 0};
Point(p18 + 26) = {28.18647232928559, -1.504402894557174, 0};
Point(p18 + 27) = {28.26063141575687, -1.549847641194507, 0};
Point(p18 + 28) = {28.34098660544283, -1.583131850569496, 0};
Point(p18 + 29) = {28.42555928688983, -1.60343595498337, 0};
Point(p18 + 30) = {28.512267, -1.61026, 0};
Point(p18 + 31) = {28.59897471311017, -1.60343595498337, 0};
Point(p18 + 32) = {28.68354739455717, -1.583131850569496, 0};
Point(p18 + 33) = {28.76390258424314, -1.549847641194507, 0};
Point(p18 + 34) = {28.83806167071441, -1.504402894557174, 0};
Point(p18 + 35) = {28.90419861114217, -1.447916611142174, 0};
Point(p18 + 36) = {28.96068489455718, -1.381779670714411, 0};
Point(p18 + 37) = {29.00612964119451, -1.307620584243137, 0};
Point(p18 + 38) = {29.0394138505695, -1.227265394557174, 0};
Point(p18 + 39) = {29.05971795498337, -1.142692713110174, 0};
Spline(18) = {12, p18 + 1, p18 + 2, p18 + 3, p18 + 4, p18 + 5, p18 + 6, p18 + 7, p18 + 8, p18 + 9, p18 + 10, p18 + 11, p18 + 12, p18 + 13, p18 + 14, p18 + 15, p18 + 16, p18 + 17, p18 + 18, p18 + 19, p18 + 20, p18 + 21, p18 + 22, p18 + 23, p18 + 24, p18 + 25, p18 + 26, p18 + 27, p18 + 28, p18 + 29, p18 + 30, p18 + 31, p18 + 32, p18 + 33, p18 + 34, p18 + 35, p18 + 36, p18 + 37, p18 + 38, p18 + 39, 12};
Line(19) = {14, 13};
Line(20) = {13, 15};
Line(21) = {16, 15};
Line(22) = {14, 16};
Line(23) = {14, 17};
Line(24) = {17, 18};
Line(25) = {13, 18};
Line(26) = {15, 19};
Line(27) = {18, 19};
Line(28) = {16, 20};
Line(29) = {20, 19};
Line(30) = {17, 20};
Curve Loop(7) = {-13, -14, 15, 14};
Surface(7) = {7};
Curve Loop(8) = {13};
Plane Surface(8) = {8};
Curve Loop(9) = {15};
Plane Surface(9) = {9};
Curve Loop(10) = {-16, -17, 18, 17};
Surface(10) = {10};
Curve Loop(11) = {16};
Plane Surface(11) = {11};
Curve Loop(12) = {18};
Plane Surface(12) = {12};
Curve Loop(13) = {-19, 22, 21, -20};
Plane Surface(13) = {13};
Curve Loop(14) = {-23, 19, 25, -24};
Plane Surface(14) = {14};
Curve Loop(15) = {-20, 25, 27, -26};
Plane Surface(15) = {15};
Curve Loop(16) = {-28, 21, 26, -29};
Plane Surface(16) = {16};
Curve Loop(17) = {-22, 23, 30, -28, -18, -15};
Plane Surface(17) = {17};
Curve Loop(18) = {-24, 30, 29, -27};
Plane Surface(18) = {18};
Surface Loop(1) = {13, 14, 15, 16, 17, 18, 10, 7, 11, 8};
Volume(1) = {1};
Surface Loop(2) = {7, 8, 9};
Volume(2) = {2};
Surface Loop(3) = {10, 11, 12};
Volume(3) = {3};
Physical Surface("WALLS") = {13, 18};
Physical Surface("LOAD") = {8, 11};
Physical Surface("BORDER") = {7, 9, 10, 12, 14, 15, 16, 17};
Physical Volume("SOLID") = {1, 2, 3};
