cl__1 = 0.134247;
cl__2 = 0.129597;
cl__3 = 1.092979;
cl__4 = 0.989935;
cl__5 = 1.159879;
cl__6 = 0.929304;
Point(9) = {12.168913, 0.8535179999999997, 0.1, cl__1};
Point(10) = {12.168913, 0.8535179999999997, 0, cl__1};
Point(11) = {22.782913, 1.961038, 0.1, cl__2};
Point(12) = {22.782913, 1.961038, 0, cl__2};
Point(13) = {0.020807, -3.891798, 0.1, cl__3};
Point(14) = {0.020807, -3.891798, 0, cl__3};
Point(15) = {0.020807, 4.46782, 0.1, cl__4};
Point(16) = {0.020807, 4.46782, 0, cl__4};
Point(17) = {31.922013, -3.891798, 0, cl__5};
Point(18) = {31.922013, -3.891798, 0.1, cl__5};
Point(19) = {31.922013, 4.46782, 0.1, cl__6};
Point(20) = {31.922013, 4.46782, 0, cl__6};
p13 = newp;
Point(p13 + 1) = {12.15238500353373, 1.063526106979164, 0.1};
Point(p13 + 2) = {12.10320798826121, 1.268363117387552, 0.1};
Point(p13 + 3) = {12.02259285550759, 1.46298526421385, 0.1};
Point(p13 + 4) = {11.91252461738755, 1.64260030428932, 0.1};
Point(p13 + 5) = {11.77571351921916, 1.802785519219161, 0.1};
Point(p13 + 6) = {11.61552830428932, 1.939596617387553, 0.1};
Point(p13 + 7) = {11.43591326421385, 2.049664855507586, 0.1};
Point(p13 + 8) = {11.24129111738755, 2.130279988261206, 0.1};
Point(p13 + 9) = {11.03645410697916, 2.179457003533733, 0.1};
Point(p13 + 10) = {10.826446, 2.195985, 0.1};
Point(p13 + 11) = {10.61643789302084, 2.179457003533733, 0.1};
Point(p13 + 12) = {10.41160088261245, 2.130279988261206, 0.1};
Point(p13 + 13) = {10.21697873578615, 2.049664855507586, 0.1};
Point(p13 + 14) = {10.03736369571068, 1.939596617387553, 0.1};
Point(p13 + 15) = {9.87717848078084, 1.802785519219161, 0.1};
Point(p13 + 16) = {9.740367382612447, 1.64260030428932, 0.1};
Point(p13 + 17) = {9.630299144492415, 1.46298526421385, 0.1};
Point(p13 + 18) = {9.549684011738794, 1.268363117387553, 0.1};
Point(p13 + 19) = {9.500506996466267, 1.063526106979164, 0.1};
Point(p13 + 20) = {9.483979000000001, 0.8535180000000001, 0.1};
Point(p13 + 21) = {9.500506996466267, 0.6435098930208365, 0.1};
Point(p13 + 22) = {9.549684011738794, 0.438672882612447, 0.1};
Point(p13 + 23) = {9.630299144492415, 0.2440507357861504, 0.1};
Point(p13 + 24) = {9.740367382612447, 0.06443569571068053, 0.1};
Point(p13 + 25) = {9.87717848078084, -0.09574951921916086, 0.1};
Point(p13 + 26) = {10.03736369571068, -0.2325606173875525, 0.1};
Point(p13 + 27) = {10.21697873578615, -0.3426288555075856, 0.1};
Point(p13 + 28) = {10.41160088261245, -0.423243988261206, 0.1};
Point(p13 + 29) = {10.61643789302084, -0.4724210035337328, 0.1};
Point(p13 + 30) = {10.826446, -0.4889490000000001, 0.1};
Point(p13 + 31) = {11.03645410697916, -0.4724210035337328, 0.1};
Point(p13 + 32) = {11.24129111738755, -0.423243988261206, 0.1};
Point(p13 + 33) = {11.43591326421385, -0.3426288555075858, 0.1};
Point(p13 + 34) = {11.61552830428932, -0.2325606173875527, 0.1};
Point(p13 + 35) = {11.77571351921916, -0.09574951921916119, 0.1};
Point(p13 + 36) = {11.91252461738755, 0.06443569571068031, 0.1};
Point(p13 + 37) = {12.02259285550759, 0.2440507357861496, 0.1};
Point(p13 + 38) = {12.10320798826121, 0.4386728826124472, 0.1};
Point(p13 + 39) = {12.15238500353373, 0.6435098930208361, 0.1};
Spline(13) = {9, p13 + 1, p13 + 2, p13 + 3, p13 + 4, p13 + 5, p13 + 6, p13 + 7, p13 + 8, p13 + 9, p13 + 10, p13 + 11, p13 + 12, p13 + 13, p13 + 14, p13 + 15, p13 + 16, p13 + 17, p13 + 18, p13 + 19, p13 + 20, p13 + 21, p13 + 22, p13 + 23, p13 + 24, p13 + 25, p13 + 26, p13 + 27, p13 + 28, p13 + 29, p13 + 30, p13 + 31, p13 + 32, p13 + 33, p13 + 34, p13 + 35, p13 + 36, p13 + 37, p13 + 38, p13 + 39, 9};
Line(14) = {10, 9};
p15 = newp;
Point(p15 + 1) = {12.15238500353373, 1.063526106979164, 0};
Point(p15 + 2) = {12.10320798826121, 1.268363117387552, 0};
Point(p15 + 3) = {12.02259285550759, 1.46298526421385, 0};
Point(p15 + 4) = {11.91252461738755, 1.64260030428932, 0};
Point(p15 + 5) = {11.77571351921916, 1.802785519219161, 0};
Point(p15 + 6) = {11.61552830428932, 1.939596617387553, 0};
Point(p15 + 7) = {11.43591326421385, 2.049664855507586, 0};
Point(p15 + 8) = {11.24129111738755, 2.130279988261206, 0};
Point(p15 + 9) = {11.03645410697916, 2.179457003533733, 0};
Point(p15 + 10) = {10.826446, 2.195985, 0};
Point(p15 + 11) = {10.61643789302084, 2.179457003533733, 0};
Point(p15 + 12) = {10.41160088261245, 2.130279988261206, 0};
Point(p15 + 13) = {10.21697873578615, 2.049664855507586, 0};
Point(p15 + 14) = {10.03736369571068, 1.939596617387553, 0};
Point(p15 + 15) = {9.87717848078084, 1.802785519219161, 0};
Point(p15 + 16) = {9.740367382612447, 1.64260030428932, 0};
Point(p15 + 17) = {9.630299144492415, 1.46298526421385, 0};
Point(p15 + 18) = {9.549684011738794, 1.268363117387553, 0};
Point(p15 + 19) = {9.500506996466267, 1.063526106979164, 0};
Point(p15 + 20) = {9.483979000000001, 0.8535180000000001, 0};
Point(p15 + 21) = {9.500506996466267, 0.6435098930208365, 0};
Point(p15 + 22) = {9.549684011738794, 0.438672882612447, 0};
Point(p15 + 23) = {9.630299144492415, 0.2440507357861504, 0};
Point(p15 + 24) = {9.740367382612447, 0.06443569571068053, 0};
Point(p15 + 25) = {9.87717848078084, -0.09574951921916086, 0};
Point(p15 + 26) = {10.03736369571068, -0.2325606173875525, 0};
Point(p15 + 27) = {10.21697873578615, -0.3426288555075856, 0};
Point(p15 + 28) = {10.41160088261245, -0.423243988261206, 0};
Point(p15 + 29) = {10.61643789302084, -0.4724210035337328, 0};
Point(p15 + 30) = {10.826446, -0.4889490000000001, 0};
Point(p15 + 31) = {11.03645410697916, -0.4724210035337328, 0};
Point(p15 + 32) = {11.24129111738755, -0.423243988261206, 0};
Point(p15 + 33) = {11.43591326421385, -0.3426288555075858, 0};
Point(p15 + 34) = {11.61552830428932, -0.2325606173875527, 0};
Point(p15 + 35) = {11.77571351921916, -0.09574951921916119, 0};
Point(p15 + 36) = {11.91252461738755, 0.06443569571068031, 0};
Point(p15 + 37) = {12.02259285550759, 0.2440507357861496, 0};
Point(p15 + 38) = {12.10320798826121, 0.4386728826124472, 0};
Point(p15 + 39) = {12.15238500353373, 0.6435098930208361, 0};
Spline(15) = {10, p15 + 1, p15 + 2, p15 + 3, p15 + 4, p15 + 5, p15 + 6, p15 + 7, p15 + 8, p15 + 9, p15 + 10, p15 + 11, p15 + 12, p15 + 13, p15 + 14, p15 + 15, p15 + 16, p15 + 17, p15 + 18, p15 + 19, p15 + 20, p15 + 21, p15 + 22, p15 + 23, p15 + 24, p15 + 25, p15 + 26, p15 + 27, p15 + 28, p15 + 29, p15 + 30, p15 + 31, p15 + 32, p15 + 33, p15 + 34, p15 + 35, p15 + 36, p15 + 37, p15 + 38, p15 + 39, 10};
p16 = newp;
Point(p16 + 1) = {22.7669574218261, 2.163772842961583, 0.1};
Point(p16 + 2) = {22.71948356659258, 2.361515681251084, 0.1};
Point(p16 + 3) = {22.64166039817197, 2.54939742991896, 0.1};
Point(p16 + 4) = {22.53540418125109, 2.722791816769234, 0.1};
Point(p16 + 5) = {22.40333129653467, 2.877429296534673, 0.1};
Point(p16 + 6) = {22.24869381676923, 3.009502181251084, 0.1};
Point(p16 + 7) = {22.07529942991896, 3.115758398171971, 0.1};
Point(p16 + 8) = {21.88741768125108, 3.193581566592579, 0.1};
Point(p16 + 9) = {21.68967484296158, 3.241055421826102, 0.1};
Point(p16 + 10) = {21.48694, 3.257011, 0.1};
Point(p16 + 11) = {21.28420515703842, 3.241055421826102, 0.1};
Point(p16 + 12) = {21.08646231874892, 3.193581566592579, 0.1};
Point(p16 + 13) = {20.89858057008104, 3.115758398171972, 0.1};
Point(p16 + 14) = {20.72518618323077, 3.009502181251084, 0.1};
Point(p16 + 15) = {20.57054870346533, 2.877429296534673, 0.1};
Point(p16 + 16) = {20.43847581874892, 2.722791816769234, 0.1};
Point(p16 + 17) = {20.33221960182803, 2.54939742991896, 0.1};
Point(p16 + 18) = {20.25439643340742, 2.361515681251084, 0.1};
Point(p16 + 19) = {20.2069225781739, 2.163772842961583, 0.1};
Point(p16 + 20) = {20.190967, 1.961038, 0.1};
Point(p16 + 21) = {20.2069225781739, 1.758303157038417, 0.1};
Point(p16 + 22) = {20.25439643340742, 1.560560318748916, 0.1};
Point(p16 + 23) = {20.33221960182803, 1.372678570081041, 0.1};
Point(p16 + 24) = {20.43847581874892, 1.199284183230767, 0.1};
Point(p16 + 25) = {20.57054870346533, 1.044646703465327, 0.1};
Point(p16 + 26) = {20.72518618323077, 0.9125738187489163, 0.1};
Point(p16 + 27) = {20.89858057008104, 0.8063176018280285, 0.1};
Point(p16 + 28) = {21.08646231874892, 0.728494433407421, 0.1};
Point(p16 + 29) = {21.28420515703842, 0.6810205781738976, 0.1};
Point(p16 + 30) = {21.48694, 0.665065, 0.1};
Point(p16 + 31) = {21.68967484296158, 0.6810205781738976, 0.1};
Point(p16 + 32) = {21.88741768125108, 0.7284944334074208, 0.1};
Point(p16 + 33) = {22.07529942991896, 0.8063176018280283, 0.1};
Point(p16 + 34) = {22.24869381676923, 0.9125738187489161, 0.1};
Point(p16 + 35) = {22.40333129653467, 1.044646703465326, 0.1};
Point(p16 + 36) = {22.53540418125109, 1.199284183230767, 0.1};
Point(p16 + 37) = {22.64166039817197, 1.37267857008104, 0.1};
Point(p16 + 38) = {22.71948356659258, 1.560560318748916, 0.1};
Point(p16 + 39) = {22.7669574218261, 1.758303157038417, 0.1};
Spline(16) = {11, p16 + 1, p16 + 2, p16 + 3, p16 + 4, p16 + 5, p16 + 6, p16 + 7, p16 + 8, p16 + 9, p16 + 10, p16 + 11, p16 + 12, p16 + 13, p16 + 14, p16 + 15, p16 + 16, p16 + 17, p16 + 18, p16 + 19, p16 + 20, p16 + 21, p16 + 22, p16 + 23, p16 + 24, p16 + 25, p16 + 26, p16 + 27, p16 + 28, p16 + 29, p16 + 30, p16 + 31, p16 + 32, p16 + 33, p16 + 34, p16 + 35, p16 + 36, p16 + 37, p16 + 38, p16 + 39, 11};
Line(17) = {12, 11};
p18 = newp;
Point(p18 + 1) = {22.7669574218261, 2.163772842961583, 0};
Point(p18 + 2) = {22.71948356659258, 2.361515681251084, 0};
Point(p18 + 3) = {22.64166039817197, 2.54939742991896, 0};
Point(p18 + 4) = {22.53540418125109, 2.722791816769234, 0};
Point(p18 + 5) = {22.40333129653467, 2.877429296534673, 0};
Point(p18 + 6) = {22.24869381676923, 3.009502181251084, 0};
Point(p18 + 7) = {22.07529942991896, 3.115758398171971, 0};
Point(p18 + 8) = {21.88741768125108, 3.193581566592579, 0};
Point(p18 + 9) = {21.68967484296158, 3.241055421826102, 0};
Point(p18 + 10) = {21.48694, 3.257011, 0};
Point(p18 + 11) = {21.28420515703842, 3.241055421826102, 0};
Point(p18 + 12) = {21.08646231874892, 3.193581566592579, 0};
Point(p18 + 13) = {20.89858057008104, 3.115758398171972, 0};
Point(p18 + 14) = {20.72518618323077, 3.009502181251084, 0};
Point(p18 + 15) = {20.57054870346533, 2.877429296534673, 0};
Point(p18 + 16) = {20.43847581874892, 2.722791816769234, 0};
Point(p18 + 17) = {20.33221960182803, 2.54939742991896, 0};
Point(p18 + 18) = {20.25439643340742, 2.361515681251084, 0};
Point(p18 + 19) = {20.2069225781739, 2.163772842961583, 0};
Point(p18 + 20) = {20.190967, 1.961038, 0};
Point(p18 + 21) = {20.2069225781739, 1.758303157038417, 0};
Point(p18 + 22) = {20.25439643340742, 1.560560318748916, 0};
Point(p18 + 23) = {20.33221960182803, 1.372678570081041, 0};
Point(p18 + 24) = {20.43847581874892, 1.199284183230767, 0};
Point(p18 + 25) = {20.57054870346533, 1.044646703465327, 0};
Point(p18 + 26) = {20.72518618323077, 0.9125738187489163, 0};
Point(p18 + 27) = {20.89858057008104, 0.8063176018280285, 0};
Point(p18 + 28) = {21.08646231874892, 0.728494433407421, 0};
Point(p18 + 29) = {21.28420515703842, 0.6810205781738976, 0};
Point(p18 + 30) = {21.48694, 0.665065, 0};
Point(p18 + 31) = {21.68967484296158, 0.6810205781738976, 0};
Point(p18 + 32) = {21.88741768125108, 0.7284944334074208, 0};
Point(p18 + 33) = {22.07529942991896, 0.8063176018280283, 0};
Point(p18 + 34) = {22.24869381676923, 0.9125738187489161, 0};
Point(p18 + 35) = {22.40333129653467, 1.044646703465326, 0};
Point(p18 + 36) = {22.53540418125109, 1.199284183230767, 0};
Point(p18 + 37) = {22.64166039817197, 1.37267857008104, 0};
Point(p18 + 38) = {22.71948356659258, 1.560560318748916, 0};
Point(p18 + 39) = {22.7669574218261, 1.758303157038417, 0};
Spline(18) = {12, p18 + 1, p18 + 2, p18 + 3, p18 + 4, p18 + 5, p18 + 6, p18 + 7, p18 + 8, p18 + 9, p18 + 10, p18 + 11, p18 + 12, p18 + 13, p18 + 14, p18 + 15, p18 + 16, p18 + 17, p18 + 18, p18 + 19, p18 + 20, p18 + 21, p18 + 22, p18 + 23, p18 + 24, p18 + 25, p18 + 26, p18 + 27, p18 + 28, p18 + 29, p18 + 30, p18 + 31, p18 + 32, p18 + 33, p18 + 34, p18 + 35, p18 + 36, p18 + 37, p18 + 38, p18 + 39, 12};
Line(19) = {14, 13};
Line(20) = {13, 15};
Line(21) = {16, 15};
Line(22) = {14, 16};
Line(23) = {14, 17};
Line(24) = {17, 18};
Line(25) = {13, 18};
Line(26) = {15, 19};
Line(27) = {18, 19};
Line(28) = {16, 20};
Line(29) = {20, 19};
Line(30) = {17, 20};
Curve Loop(7) = {-13, -14, 15, 14};
Surface(7) = {7};
Curve Loop(8) = {13};
Plane Surface(8) = {8};
Curve Loop(9) = {15};
Plane Surface(9) = {9};
Curve Loop(10) = {-16, -17, 18, 17};
Surface(10) = {10};
Curve Loop(11) = {16};
Plane Surface(11) = {11};
Curve Loop(12) = {18};
Plane Surface(12) = {12};
Curve Loop(13) = {-19, 22, 21, -20};
Plane Surface(13) = {13};
Curve Loop(14) = {-23, 19, 25, -24};
Plane Surface(14) = {14};
Curve Loop(15) = {-20, 25, 27, -26, -13, -16};
Plane Surface(15) = {15};
Curve Loop(16) = {-28, 21, 26, -29};
Plane Surface(16) = {16};
Curve Loop(17) = {-22, 23, 30, -28, -15, -18};
Plane Surface(17) = {17};
Curve Loop(18) = {-24, 30, 29, -27};
Plane Surface(18) = {18};
Surface Loop(1) = {13, 14, 15, 16, 17, 18, 7, 10};
Volume(1) = {1};
Surface Loop(2) = {7, 8, 9};
Volume(2) = {2};
Surface Loop(3) = {10, 11, 12};
Volume(3) = {3};
Physical Surface("WALLS") = {13, 18};
Physical Surface("LOAD") = {8, 11};
Physical Surface("BORDER") = {7, 9, 10, 12, 14, 15, 16, 17};
Physical Volume("SOLID") = {1, 2, 3};
