cl__1 = 0.103275;
cl__2 = 0.112087;
cl__3 = 1.091491;
cl__4 = 1.289288;
cl__5 = 0.9756320000000001;
cl__6 = 0.90637;
Point(9) = {25.690843, 2.431468, 0.1, cl__1};
Point(10) = {25.690843, 2.431468, 0, cl__1};
Point(11) = {16.338906, -0.7197020000000002, 0.1, cl__2};
Point(12) = {16.338906, -0.7197020000000002, 0, cl__2};
Point(13) = {0.102932, -3.339784, 1, cl__3};
Point(14) = {0.102932, -3.339784, 0, cl__3};
Point(15) = {0.102932, 4.97489, 1, cl__4};
Point(16) = {0.102932, 4.97489, 0, cl__4};
Point(17) = {37.967578, -3.339784, 0, cl__5};
Point(18) = {37.967578, -3.339784, 1, cl__5};
Point(19) = {37.967578, 4.97489, 1, cl__6};
Point(20) = {37.967578, 4.97489, 0, cl__6};
p13 = newp;
Point(p13 + 1) = {25.67812818299627, 2.593025068032438, 0.1};
Point(p13 + 2) = {25.64029681297776, 2.750604064872749, 0.1};
Point(p13 + 3) = {25.57828042382944, 2.900324872644018, 0.1};
Point(p13 + 4) = {25.49360606487275, 3.038500868164043, 0.1};
Point(p13 + 5) = {25.38835869984328, 3.161729699843282, 0.1};
Point(p13 + 6) = {25.26512986816405, 3.26697706487275, 0.1};
Point(p13 + 7) = {25.12695387264402, 3.35165142382944, 0.1};
Point(p13 + 8) = {24.97723306487275, 3.413667812977755, 0.1};
Point(p13 + 9) = {24.81965406803244, 3.451499182996266, 0.1};
Point(p13 + 10) = {24.658097, 3.464214, 0.1};
Point(p13 + 11) = {24.49653993196756, 3.451499182996266, 0.1};
Point(p13 + 12) = {24.33896093512725, 3.413667812977755, 0.1};
Point(p13 + 13) = {24.18924012735598, 3.35165142382944, 0.1};
Point(p13 + 14) = {24.05106413183596, 3.26697706487275, 0.1};
Point(p13 + 15) = {23.92783530015672, 3.161729699843282, 0.1};
Point(p13 + 16) = {23.82258793512725, 3.038500868164043, 0.1};
Point(p13 + 17) = {23.73791357617056, 2.900324872644018, 0.1};
Point(p13 + 18) = {23.67589718702225, 2.75060406487275, 0.1};
Point(p13 + 19) = {23.63806581700373, 2.593025068032439, 0.1};
Point(p13 + 20) = {23.625351, 2.431468, 0.1};
Point(p13 + 21) = {23.63806581700373, 2.269910931967562, 0.1};
Point(p13 + 22) = {23.67589718702225, 2.11233193512725, 0.1};
Point(p13 + 23) = {23.73791357617056, 1.962611127355983, 0.1};
Point(p13 + 24) = {23.82258793512725, 1.824435131835958, 0.1};
Point(p13 + 25) = {23.92783530015672, 1.701206300156718, 0.1};
Point(p13 + 26) = {24.05106413183596, 1.595958935127251, 0.1};
Point(p13 + 27) = {24.18924012735598, 1.51128457617056, 0.1};
Point(p13 + 28) = {24.33896093512725, 1.449268187022246, 0.1};
Point(p13 + 29) = {24.49653993196756, 1.411436817003734, 0.1};
Point(p13 + 30) = {24.658097, 1.398722, 0.1};
Point(p13 + 31) = {24.81965406803244, 1.411436817003734, 0.1};
Point(p13 + 32) = {24.97723306487275, 1.449268187022245, 0.1};
Point(p13 + 33) = {25.12695387264402, 1.51128457617056, 0.1};
Point(p13 + 34) = {25.26512986816405, 1.595958935127251, 0.1};
Point(p13 + 35) = {25.38835869984328, 1.701206300156718, 0.1};
Point(p13 + 36) = {25.49360606487275, 1.824435131835958, 0.1};
Point(p13 + 37) = {25.57828042382944, 1.962611127355982, 0.1};
Point(p13 + 38) = {25.64029681297776, 2.11233193512725, 0.1};
Point(p13 + 39) = {25.67812818299627, 2.269910931967562, 0.1};
Spline(13) = {9, p13 + 1, p13 + 2, p13 + 3, p13 + 4, p13 + 5, p13 + 6, p13 + 7, p13 + 8, p13 + 9, p13 + 10, p13 + 11, p13 + 12, p13 + 13, p13 + 14, p13 + 15, p13 + 16, p13 + 17, p13 + 18, p13 + 19, p13 + 20, p13 + 21, p13 + 22, p13 + 23, p13 + 24, p13 + 25, p13 + 26, p13 + 27, p13 + 28, p13 + 29, p13 + 30, p13 + 31, p13 + 32, p13 + 33, p13 + 34, p13 + 35, p13 + 36, p13 + 37, p13 + 38, p13 + 39, 9};
Line(14) = {10, 9};
p15 = newp;
Point(p15 + 1) = {25.67812818299627, 2.593025068032438, 0};
Point(p15 + 2) = {25.64029681297776, 2.750604064872749, 0};
Point(p15 + 3) = {25.57828042382944, 2.900324872644018, 0};
Point(p15 + 4) = {25.49360606487275, 3.038500868164043, 0};
Point(p15 + 5) = {25.38835869984328, 3.161729699843282, 0};
Point(p15 + 6) = {25.26512986816405, 3.26697706487275, 0};
Point(p15 + 7) = {25.12695387264402, 3.35165142382944, 0};
Point(p15 + 8) = {24.97723306487275, 3.413667812977755, 0};
Point(p15 + 9) = {24.81965406803244, 3.451499182996266, 0};
Point(p15 + 10) = {24.658097, 3.464214, 0};
Point(p15 + 11) = {24.49653993196756, 3.451499182996266, 0};
Point(p15 + 12) = {24.33896093512725, 3.413667812977755, 0};
Point(p15 + 13) = {24.18924012735598, 3.35165142382944, 0};
Point(p15 + 14) = {24.05106413183596, 3.26697706487275, 0};
Point(p15 + 15) = {23.92783530015672, 3.161729699843282, 0};
Point(p15 + 16) = {23.82258793512725, 3.038500868164043, 0};
Point(p15 + 17) = {23.73791357617056, 2.900324872644018, 0};
Point(p15 + 18) = {23.67589718702225, 2.75060406487275, 0};
Point(p15 + 19) = {23.63806581700373, 2.593025068032439, 0};
Point(p15 + 20) = {23.625351, 2.431468, 0};
Point(p15 + 21) = {23.63806581700373, 2.269910931967562, 0};
Point(p15 + 22) = {23.67589718702225, 2.11233193512725, 0};
Point(p15 + 23) = {23.73791357617056, 1.962611127355983, 0};
Point(p15 + 24) = {23.82258793512725, 1.824435131835958, 0};
Point(p15 + 25) = {23.92783530015672, 1.701206300156718, 0};
Point(p15 + 26) = {24.05106413183596, 1.595958935127251, 0};
Point(p15 + 27) = {24.18924012735598, 1.51128457617056, 0};
Point(p15 + 28) = {24.33896093512725, 1.449268187022246, 0};
Point(p15 + 29) = {24.49653993196756, 1.411436817003734, 0};
Point(p15 + 30) = {24.658097, 1.398722, 0};
Point(p15 + 31) = {24.81965406803244, 1.411436817003734, 0};
Point(p15 + 32) = {24.97723306487275, 1.449268187022245, 0};
Point(p15 + 33) = {25.12695387264402, 1.51128457617056, 0};
Point(p15 + 34) = {25.26512986816405, 1.595958935127251, 0};
Point(p15 + 35) = {25.38835869984328, 1.701206300156718, 0};
Point(p15 + 36) = {25.49360606487275, 1.824435131835958, 0};
Point(p15 + 37) = {25.57828042382944, 1.962611127355982, 0};
Point(p15 + 38) = {25.64029681297776, 2.11233193512725, 0};
Point(p15 + 39) = {25.67812818299627, 2.269910931967562, 0};
Spline(15) = {10, p15 + 1, p15 + 2, p15 + 3, p15 + 4, p15 + 5, p15 + 6, p15 + 7, p15 + 8, p15 + 9, p15 + 10, p15 + 11, p15 + 12, p15 + 13, p15 + 14, p15 + 15, p15 + 16, p15 + 17, p15 + 18, p15 + 19, p15 + 20, p15 + 21, p15 + 22, p15 + 23, p15 + 24, p15 + 25, p15 + 26, p15 + 27, p15 + 28, p15 + 29, p15 + 30, p15 + 31, p15 + 32, p15 + 33, p15 + 34, p15 + 35, p15 + 36, p15 + 37, p15 + 38, p15 + 39, 10};
p16 = newp;
Point(p16 + 1) = {16.32510616876457, -0.5443585189980311, 0.1};
Point(p16 + 2) = {16.28404647270233, -0.3733325764299807, 0.1};
Point(p16 + 3) = {16.21673793779964, -0.2108353986044355, 0.1};
Point(p16 + 4) = {16.12483792357002, -0.06086820533667414, 0.1};
Point(p16 + 5) = {16.01060931336247, 0.07287631336247147, 0.1};
Point(p16 + 6) = {15.87686479466333, 0.1871049235700192, 0.1};
Point(p16 + 7) = {15.72689760139556, 0.2790049377996369, 0.1};
Point(p16 + 8) = {15.56440042357002, 0.3463134727023304, 0.1};
Point(p16 + 9) = {15.39337448100197, 0.3873731687645751, 0.1};
Point(p16 + 10) = {15.218031, 0.4011730000000001, 0.1};
Point(p16 + 11) = {15.04268751899803, 0.3873731687645751, 0.1};
Point(p16 + 12) = {14.87166157642998, 0.3463134727023304, 0.1};
Point(p16 + 13) = {14.70916439860444, 0.279004937799637, 0.1};
Point(p16 + 14) = {14.55919720533667, 0.1871049235700193, 0.1};
Point(p16 + 15) = {14.42545268663753, 0.07287631336247158, 0.1};
Point(p16 + 16) = {14.31122407642998, -0.06086820533667392, 0.1};
Point(p16 + 17) = {14.21932406220036, -0.2108353986044353, 0.1};
Point(p16 + 18) = {14.15201552729767, -0.3733325764299806, 0.1};
Point(p16 + 19) = {14.11095583123542, -0.544358518998031, 0.1};
Point(p16 + 20) = {14.097156, -0.7197019999999998, 0.1};
Point(p16 + 21) = {14.11095583123542, -0.8950454810019686, 0.1};
Point(p16 + 22) = {14.15201552729767, -1.066071423570019, 0.1};
Point(p16 + 23) = {14.21932406220036, -1.228568601395564, 0.1};
Point(p16 + 24) = {14.31122407642998, -1.378535794663326, 0.1};
Point(p16 + 25) = {14.42545268663753, -1.512280313362471, 0.1};
Point(p16 + 26) = {14.55919720533667, -1.626508923570019, 0.1};
Point(p16 + 27) = {14.70916439860444, -1.718408937799637, 0.1};
Point(p16 + 28) = {14.87166157642998, -1.78571747270233, 0.1};
Point(p16 + 29) = {15.04268751899803, -1.826777168764575, 0.1};
Point(p16 + 30) = {15.218031, -1.840577, 0.1};
Point(p16 + 31) = {15.39337448100197, -1.826777168764575, 0.1};
Point(p16 + 32) = {15.56440042357002, -1.78571747270233, 0.1};
Point(p16 + 33) = {15.72689760139556, -1.718408937799637, 0.1};
Point(p16 + 34) = {15.87686479466332, -1.626508923570019, 0.1};
Point(p16 + 35) = {16.01060931336247, -1.512280313362472, 0.1};
Point(p16 + 36) = {16.12483792357002, -1.378535794663326, 0.1};
Point(p16 + 37) = {16.21673793779964, -1.228568601395565, 0.1};
Point(p16 + 38) = {16.28404647270233, -1.066071423570019, 0.1};
Point(p16 + 39) = {16.32510616876457, -0.895045481001969, 0.1};
Spline(16) = {11, p16 + 1, p16 + 2, p16 + 3, p16 + 4, p16 + 5, p16 + 6, p16 + 7, p16 + 8, p16 + 9, p16 + 10, p16 + 11, p16 + 12, p16 + 13, p16 + 14, p16 + 15, p16 + 16, p16 + 17, p16 + 18, p16 + 19, p16 + 20, p16 + 21, p16 + 22, p16 + 23, p16 + 24, p16 + 25, p16 + 26, p16 + 27, p16 + 28, p16 + 29, p16 + 30, p16 + 31, p16 + 32, p16 + 33, p16 + 34, p16 + 35, p16 + 36, p16 + 37, p16 + 38, p16 + 39, 11};
Line(17) = {12, 11};
p18 = newp;
Point(p18 + 1) = {16.32510616876457, -0.5443585189980311, 0};
Point(p18 + 2) = {16.28404647270233, -0.3733325764299807, 0};
Point(p18 + 3) = {16.21673793779964, -0.2108353986044355, 0};
Point(p18 + 4) = {16.12483792357002, -0.06086820533667414, 0};
Point(p18 + 5) = {16.01060931336247, 0.07287631336247147, 0};
Point(p18 + 6) = {15.87686479466333, 0.1871049235700192, 0};
Point(p18 + 7) = {15.72689760139556, 0.2790049377996369, 0};
Point(p18 + 8) = {15.56440042357002, 0.3463134727023304, 0};
Point(p18 + 9) = {15.39337448100197, 0.3873731687645751, 0};
Point(p18 + 10) = {15.218031, 0.4011730000000001, 0};
Point(p18 + 11) = {15.04268751899803, 0.3873731687645751, 0};
Point(p18 + 12) = {14.87166157642998, 0.3463134727023304, 0};
Point(p18 + 13) = {14.70916439860444, 0.279004937799637, 0};
Point(p18 + 14) = {14.55919720533667, 0.1871049235700193, 0};
Point(p18 + 15) = {14.42545268663753, 0.07287631336247158, 0};
Point(p18 + 16) = {14.31122407642998, -0.06086820533667392, 0};
Point(p18 + 17) = {14.21932406220036, -0.2108353986044353, 0};
Point(p18 + 18) = {14.15201552729767, -0.3733325764299806, 0};
Point(p18 + 19) = {14.11095583123542, -0.544358518998031, 0};
Point(p18 + 20) = {14.097156, -0.7197019999999998, 0};
Point(p18 + 21) = {14.11095583123542, -0.8950454810019686, 0};
Point(p18 + 22) = {14.15201552729767, -1.066071423570019, 0};
Point(p18 + 23) = {14.21932406220036, -1.228568601395564, 0};
Point(p18 + 24) = {14.31122407642998, -1.378535794663326, 0};
Point(p18 + 25) = {14.42545268663753, -1.512280313362471, 0};
Point(p18 + 26) = {14.55919720533667, -1.626508923570019, 0};
Point(p18 + 27) = {14.70916439860444, -1.718408937799637, 0};
Point(p18 + 28) = {14.87166157642998, -1.78571747270233, 0};
Point(p18 + 29) = {15.04268751899803, -1.826777168764575, 0};
Point(p18 + 30) = {15.218031, -1.840577, 0};
Point(p18 + 31) = {15.39337448100197, -1.826777168764575, 0};
Point(p18 + 32) = {15.56440042357002, -1.78571747270233, 0};
Point(p18 + 33) = {15.72689760139556, -1.718408937799637, 0};
Point(p18 + 34) = {15.87686479466332, -1.626508923570019, 0};
Point(p18 + 35) = {16.01060931336247, -1.512280313362472, 0};
Point(p18 + 36) = {16.12483792357002, -1.378535794663326, 0};
Point(p18 + 37) = {16.21673793779964, -1.228568601395565, 0};
Point(p18 + 38) = {16.28404647270233, -1.066071423570019, 0};
Point(p18 + 39) = {16.32510616876457, -0.895045481001969, 0};
Spline(18) = {12, p18 + 1, p18 + 2, p18 + 3, p18 + 4, p18 + 5, p18 + 6, p18 + 7, p18 + 8, p18 + 9, p18 + 10, p18 + 11, p18 + 12, p18 + 13, p18 + 14, p18 + 15, p18 + 16, p18 + 17, p18 + 18, p18 + 19, p18 + 20, p18 + 21, p18 + 22, p18 + 23, p18 + 24, p18 + 25, p18 + 26, p18 + 27, p18 + 28, p18 + 29, p18 + 30, p18 + 31, p18 + 32, p18 + 33, p18 + 34, p18 + 35, p18 + 36, p18 + 37, p18 + 38, p18 + 39, 12};
Line(19) = {14, 13};
Line(20) = {13, 15};
Line(21) = {16, 15};
Line(22) = {14, 16};
Line(23) = {14, 17};
Line(24) = {17, 18};
Line(25) = {13, 18};
Line(26) = {15, 19};
Line(27) = {18, 19};
Line(28) = {16, 20};
Line(29) = {20, 19};
Line(30) = {17, 20};
Curve Loop(7) = {-13, -14, 15, 14};
Surface(7) = {7};
Curve Loop(8) = {13};
Plane Surface(8) = {8};
Curve Loop(9) = {15};
Plane Surface(9) = {9};
Curve Loop(10) = {-16, -17, 18, 17};
Surface(10) = {10};
Curve Loop(11) = {16};
Plane Surface(11) = {11};
Curve Loop(12) = {18};
Plane Surface(12) = {12};
Curve Loop(13) = {-19, 22, 21, -20};
Plane Surface(13) = {13};
Curve Loop(14) = {-23, 19, 25, -24};
Plane Surface(14) = {14};
Curve Loop(15) = {-20, 25, 27, -26};
Plane Surface(15) = {15};
Curve Loop(16) = {-28, 21, 26, -29};
Plane Surface(16) = {16};
Curve Loop(17) = {-22, 23, 30, -28, -18, -15};
Plane Surface(17) = {17};
Curve Loop(18) = {-24, 30, 29, -27};
Plane Surface(18) = {18};
Surface Loop(1) = {13, 14, 15, 16, 17, 18, 10, 7, 11, 8};
Volume(1) = {1};
Surface Loop(2) = {7, 8, 9};
Volume(2) = {2};
Surface Loop(3) = {10, 11, 12};
Volume(3) = {3};
Physical Surface("WALLS") = {13, 18};
Physical Surface("LOAD") = {8, 11};
Physical Surface("BORDER") = {7, 9, 10, 12, 14, 15, 16, 17};
Physical Volume("SOLID") = {1, 2, 3};
