cl__1 = 0.07832699999999999;
cl__2 = 0.068902;
cl__3 = 2.962642;
cl__4 = 0.936879;
cl__5 = 0.708807;
cl__6 = 0.918076;
Point(9) = {8.069948999999998, 3.121197, 0.1, cl__1};
Point(10) = {8.069948999999998, 3.121197, 0, cl__1};
Point(11) = {28.165852, -0.7941210000000001, 0.1, cl__2};
Point(12) = {28.165852, -0.7941210000000001, 0, cl__2};
Point(13) = {0.696708, -4.24871, 0.1, cl__3};
Point(14) = {0.696708, -4.24871, 0, cl__3};
Point(15) = {0.696708, 4.444143, 0.1, cl__4};
Point(16) = {0.696708, 4.444143, 0, cl__4};
Point(17) = {31.338831, -4.24871, 0, cl__5};
Point(18) = {31.338831, -4.24871, 0.1, cl__5};
Point(19) = {31.338831, 4.444143, 0.1, cl__6};
Point(20) = {31.338831, 4.444143, 0, cl__6};
p13 = newp;
Point(p13 + 1) = {8.060305683472931, 3.243726954128666, 0.1};
Point(p13 + 2) = {8.031613184348956, 3.363239814133082, 0.1};
Point(p13 + 3) = {7.98457800718145, 3.476792776759495, 0.1};
Point(p13 + 4) = {7.920358314133082, 3.581589791207369, 0.1};
Point(p13 + 5) = {7.840535407179644, 3.675050407179643, 0.1};
Point(p13 + 6) = {7.747074791207369, 3.754873314133082, 0.1};
Point(p13 + 7) = {7.642277776759496, 3.81909300718145, 0.1};
Point(p13 + 8) = {7.528724814133082, 3.866128184348956, 0.1};
Point(p13 + 9) = {7.409211954128667, 3.894820683472932, 0.1};
Point(p13 + 10) = {7.286682, 3.904464, 0.1};
Point(p13 + 11) = {7.164152045871333, 3.894820683472932, 0.1};
Point(p13 + 12) = {7.044639185866918, 3.866128184348956, 0.1};
Point(p13 + 13) = {6.931086223240504, 3.819093007181451, 0.1};
Point(p13 + 14) = {6.826289208792631, 3.754873314133082, 0.1};
Point(p13 + 15) = {6.732828592820356, 3.675050407179643, 0.1};
Point(p13 + 16) = {6.653005685866918, 3.581589791207369, 0.1};
Point(p13 + 17) = {6.58878599281855, 3.476792776759495, 0.1};
Point(p13 + 18) = {6.541750815651044, 3.363239814133082, 0.1};
Point(p13 + 19) = {6.513058316527069, 3.243726954128666, 0.1};
Point(p13 + 20) = {6.503415, 3.121197, 0.1};
Point(p13 + 21) = {6.513058316527068, 2.998667045871334, 0.1};
Point(p13 + 22) = {6.541750815651044, 2.879154185866918, 0.1};
Point(p13 + 23) = {6.588785992818549, 2.765601223240505, 0.1};
Point(p13 + 24) = {6.653005685866918, 2.660804208792631, 0.1};
Point(p13 + 25) = {6.732828592820356, 2.567343592820357, 0.1};
Point(p13 + 26) = {6.826289208792631, 2.487520685866918, 0.1};
Point(p13 + 27) = {6.931086223240504, 2.42330099281855, 0.1};
Point(p13 + 28) = {7.044639185866918, 2.376265815651044, 0.1};
Point(p13 + 29) = {7.164152045871333, 2.347573316527068, 0.1};
Point(p13 + 30) = {7.286682, 2.33793, 0.1};
Point(p13 + 31) = {7.409211954128666, 2.347573316527068, 0.1};
Point(p13 + 32) = {7.528724814133081, 2.376265815651044, 0.1};
Point(p13 + 33) = {7.642277776759496, 2.423300992818549, 0.1};
Point(p13 + 34) = {7.747074791207369, 2.487520685866918, 0.1};
Point(p13 + 35) = {7.840535407179644, 2.567343592820357, 0.1};
Point(p13 + 36) = {7.920358314133082, 2.660804208792631, 0.1};
Point(p13 + 37) = {7.98457800718145, 2.765601223240504, 0.1};
Point(p13 + 38) = {8.031613184348956, 2.879154185866918, 0.1};
Point(p13 + 39) = {8.060305683472931, 2.998667045871333, 0.1};
Spline(13) = {9, p13 + 1, p13 + 2, p13 + 3, p13 + 4, p13 + 5, p13 + 6, p13 + 7, p13 + 8, p13 + 9, p13 + 10, p13 + 11, p13 + 12, p13 + 13, p13 + 14, p13 + 15, p13 + 16, p13 + 17, p13 + 18, p13 + 19, p13 + 20, p13 + 21, p13 + 22, p13 + 23, p13 + 24, p13 + 25, p13 + 26, p13 + 27, p13 + 28, p13 + 29, p13 + 30, p13 + 31, p13 + 32, p13 + 33, p13 + 34, p13 + 35, p13 + 36, p13 + 37, p13 + 38, p13 + 39, 9};
Line(14) = {10, 9};
p15 = newp;
Point(p15 + 1) = {8.060305683472931, 3.243726954128666, 0};
Point(p15 + 2) = {8.031613184348956, 3.363239814133082, 0};
Point(p15 + 3) = {7.98457800718145, 3.476792776759495, 0};
Point(p15 + 4) = {7.920358314133082, 3.581589791207369, 0};
Point(p15 + 5) = {7.840535407179644, 3.675050407179643, 0};
Point(p15 + 6) = {7.747074791207369, 3.754873314133082, 0};
Point(p15 + 7) = {7.642277776759496, 3.81909300718145, 0};
Point(p15 + 8) = {7.528724814133082, 3.866128184348956, 0};
Point(p15 + 9) = {7.409211954128667, 3.894820683472932, 0};
Point(p15 + 10) = {7.286682, 3.904464, 0};
Point(p15 + 11) = {7.164152045871333, 3.894820683472932, 0};
Point(p15 + 12) = {7.044639185866918, 3.866128184348956, 0};
Point(p15 + 13) = {6.931086223240504, 3.819093007181451, 0};
Point(p15 + 14) = {6.826289208792631, 3.754873314133082, 0};
Point(p15 + 15) = {6.732828592820356, 3.675050407179643, 0};
Point(p15 + 16) = {6.653005685866918, 3.581589791207369, 0};
Point(p15 + 17) = {6.58878599281855, 3.476792776759495, 0};
Point(p15 + 18) = {6.541750815651044, 3.363239814133082, 0};
Point(p15 + 19) = {6.513058316527069, 3.243726954128666, 0};
Point(p15 + 20) = {6.503415, 3.121197, 0};
Point(p15 + 21) = {6.513058316527068, 2.998667045871334, 0};
Point(p15 + 22) = {6.541750815651044, 2.879154185866918, 0};
Point(p15 + 23) = {6.588785992818549, 2.765601223240505, 0};
Point(p15 + 24) = {6.653005685866918, 2.660804208792631, 0};
Point(p15 + 25) = {6.732828592820356, 2.567343592820357, 0};
Point(p15 + 26) = {6.826289208792631, 2.487520685866918, 0};
Point(p15 + 27) = {6.931086223240504, 2.42330099281855, 0};
Point(p15 + 28) = {7.044639185866918, 2.376265815651044, 0};
Point(p15 + 29) = {7.164152045871333, 2.347573316527068, 0};
Point(p15 + 30) = {7.286682, 2.33793, 0};
Point(p15 + 31) = {7.409211954128666, 2.347573316527068, 0};
Point(p15 + 32) = {7.528724814133081, 2.376265815651044, 0};
Point(p15 + 33) = {7.642277776759496, 2.423300992818549, 0};
Point(p15 + 34) = {7.747074791207369, 2.487520685866918, 0};
Point(p15 + 35) = {7.840535407179644, 2.567343592820357, 0};
Point(p15 + 36) = {7.920358314133082, 2.660804208792631, 0};
Point(p15 + 37) = {7.98457800718145, 2.765601223240504, 0};
Point(p15 + 38) = {8.031613184348956, 2.879154185866918, 0};
Point(p15 + 39) = {8.060305683472931, 2.998667045871333, 0};
Spline(15) = {10, p15 + 1, p15 + 2, p15 + 3, p15 + 4, p15 + 5, p15 + 6, p15 + 7, p15 + 8, p15 + 9, p15 + 10, p15 + 11, p15 + 12, p15 + 13, p15 + 14, p15 + 15, p15 + 16, p15 + 17, p15 + 18, p15 + 19, p15 + 20, p15 + 21, p15 + 22, p15 + 23, p15 + 24, p15 + 25, p15 + 26, p15 + 27, p15 + 28, p15 + 29, p15 + 30, p15 + 31, p15 + 32, p15 + 33, p15 + 34, p15 + 35, p15 + 36, p15 + 37, p15 + 38, p15 + 39, 10};
p16 = newp;
Point(p16 + 1) = {28.1573690081252, -0.686334368463515, 0.1};
Point(p16 + 2) = {28.1321289119142, -0.5812018015187793, 0.1};
Point(p16 + 3) = {28.09075320630279, -0.4813120118789577, 0.1};
Point(p16 + 4) = {28.03426069848122, -0.3891246176801879, 0.1};
Point(p16 + 5) = {27.96404242147994, -0.3069095785200638, 0.1};
Point(p16 + 6) = {27.88182738231981, -0.2366913015187794, 0.1};
Point(p16 + 7) = {27.78963998812104, -0.1801987936972066, 0.1};
Point(p16 + 8) = {27.68975019848122, -0.138823088085797, 0.1};
Point(p16 + 9) = {27.58461763153649, -0.1135829918747976, 0.1};
Point(p16 + 10) = {27.476831, -0.1051, 0.1};
Point(p16 + 11) = {27.36904436846352, -0.1135829918747976, 0.1};
Point(p16 + 12) = {27.26391180151878, -0.1388230880857969, 0.1};
Point(p16 + 13) = {27.16402201187896, -0.1801987936972065, 0.1};
Point(p16 + 14) = {27.07183461768019, -0.2366913015187793, 0.1};
Point(p16 + 15) = {26.98961957852006, -0.3069095785200638, 0.1};
Point(p16 + 16) = {26.91940130151878, -0.3891246176801877, 0.1};
Point(p16 + 17) = {26.86290879369721, -0.4813120118789577, 0.1};
Point(p16 + 18) = {26.8215330880858, -0.5812018015187792, 0.1};
Point(p16 + 19) = {26.7962929918748, -0.686334368463515, 0.1};
Point(p16 + 20) = {26.78781, -0.7941209999999999, 0.1};
Point(p16 + 21) = {26.7962929918748, -0.9019076315364848, 0.1};
Point(p16 + 22) = {26.8215330880858, -1.007040198481221, 0.1};
Point(p16 + 23) = {26.86290879369721, -1.106929988121042, 0.1};
Point(p16 + 24) = {26.91940130151878, -1.199117382319812, 0.1};
Point(p16 + 25) = {26.98961957852006, -1.281332421479936, 0.1};
Point(p16 + 26) = {27.07183461768019, -1.35155069848122, 0.1};
Point(p16 + 27) = {27.16402201187896, -1.408043206302793, 0.1};
Point(p16 + 28) = {27.26391180151878, -1.449418911914203, 0.1};
Point(p16 + 29) = {27.36904436846352, -1.474659008125202, 0.1};
Point(p16 + 30) = {27.476831, -1.483142, 0.1};
Point(p16 + 31) = {27.58461763153649, -1.474659008125202, 0.1};
Point(p16 + 32) = {27.68975019848122, -1.449418911914203, 0.1};
Point(p16 + 33) = {27.78963998812104, -1.408043206302793, 0.1};
Point(p16 + 34) = {27.88182738231981, -1.351550698481221, 0.1};
Point(p16 + 35) = {27.96404242147994, -1.281332421479936, 0.1};
Point(p16 + 36) = {28.03426069848122, -1.199117382319812, 0.1};
Point(p16 + 37) = {28.09075320630279, -1.106929988121042, 0.1};
Point(p16 + 38) = {28.1321289119142, -1.007040198481221, 0.1};
Point(p16 + 39) = {28.1573690081252, -0.901907631536485, 0.1};
Spline(16) = {11, p16 + 1, p16 + 2, p16 + 3, p16 + 4, p16 + 5, p16 + 6, p16 + 7, p16 + 8, p16 + 9, p16 + 10, p16 + 11, p16 + 12, p16 + 13, p16 + 14, p16 + 15, p16 + 16, p16 + 17, p16 + 18, p16 + 19, p16 + 20, p16 + 21, p16 + 22, p16 + 23, p16 + 24, p16 + 25, p16 + 26, p16 + 27, p16 + 28, p16 + 29, p16 + 30, p16 + 31, p16 + 32, p16 + 33, p16 + 34, p16 + 35, p16 + 36, p16 + 37, p16 + 38, p16 + 39, 11};
Line(17) = {12, 11};
p18 = newp;
Point(p18 + 1) = {28.1573690081252, -0.686334368463515, 0};
Point(p18 + 2) = {28.1321289119142, -0.5812018015187793, 0};
Point(p18 + 3) = {28.09075320630279, -0.4813120118789577, 0};
Point(p18 + 4) = {28.03426069848122, -0.3891246176801879, 0};
Point(p18 + 5) = {27.96404242147994, -0.3069095785200638, 0};
Point(p18 + 6) = {27.88182738231981, -0.2366913015187794, 0};
Point(p18 + 7) = {27.78963998812104, -0.1801987936972066, 0};
Point(p18 + 8) = {27.68975019848122, -0.138823088085797, 0};
Point(p18 + 9) = {27.58461763153649, -0.1135829918747976, 0};
Point(p18 + 10) = {27.476831, -0.1051, 0};
Point(p18 + 11) = {27.36904436846352, -0.1135829918747976, 0};
Point(p18 + 12) = {27.26391180151878, -0.1388230880857969, 0};
Point(p18 + 13) = {27.16402201187896, -0.1801987936972065, 0};
Point(p18 + 14) = {27.07183461768019, -0.2366913015187793, 0};
Point(p18 + 15) = {26.98961957852006, -0.3069095785200638, 0};
Point(p18 + 16) = {26.91940130151878, -0.3891246176801877, 0};
Point(p18 + 17) = {26.86290879369721, -0.4813120118789577, 0};
Point(p18 + 18) = {26.8215330880858, -0.5812018015187792, 0};
Point(p18 + 19) = {26.7962929918748, -0.686334368463515, 0};
Point(p18 + 20) = {26.78781, -0.7941209999999999, 0};
Point(p18 + 21) = {26.7962929918748, -0.9019076315364848, 0};
Point(p18 + 22) = {26.8215330880858, -1.007040198481221, 0};
Point(p18 + 23) = {26.86290879369721, -1.106929988121042, 0};
Point(p18 + 24) = {26.91940130151878, -1.199117382319812, 0};
Point(p18 + 25) = {26.98961957852006, -1.281332421479936, 0};
Point(p18 + 26) = {27.07183461768019, -1.35155069848122, 0};
Point(p18 + 27) = {27.16402201187896, -1.408043206302793, 0};
Point(p18 + 28) = {27.26391180151878, -1.449418911914203, 0};
Point(p18 + 29) = {27.36904436846352, -1.474659008125202, 0};
Point(p18 + 30) = {27.476831, -1.483142, 0};
Point(p18 + 31) = {27.58461763153649, -1.474659008125202, 0};
Point(p18 + 32) = {27.68975019848122, -1.449418911914203, 0};
Point(p18 + 33) = {27.78963998812104, -1.408043206302793, 0};
Point(p18 + 34) = {27.88182738231981, -1.351550698481221, 0};
Point(p18 + 35) = {27.96404242147994, -1.281332421479936, 0};
Point(p18 + 36) = {28.03426069848122, -1.199117382319812, 0};
Point(p18 + 37) = {28.09075320630279, -1.106929988121042, 0};
Point(p18 + 38) = {28.1321289119142, -1.007040198481221, 0};
Point(p18 + 39) = {28.1573690081252, -0.901907631536485, 0};
Spline(18) = {12, p18 + 1, p18 + 2, p18 + 3, p18 + 4, p18 + 5, p18 + 6, p18 + 7, p18 + 8, p18 + 9, p18 + 10, p18 + 11, p18 + 12, p18 + 13, p18 + 14, p18 + 15, p18 + 16, p18 + 17, p18 + 18, p18 + 19, p18 + 20, p18 + 21, p18 + 22, p18 + 23, p18 + 24, p18 + 25, p18 + 26, p18 + 27, p18 + 28, p18 + 29, p18 + 30, p18 + 31, p18 + 32, p18 + 33, p18 + 34, p18 + 35, p18 + 36, p18 + 37, p18 + 38, p18 + 39, 12};
Line(19) = {14, 13};
Line(20) = {13, 15};
Line(21) = {16, 15};
Line(22) = {14, 16};
Line(23) = {14, 17};
Line(24) = {17, 18};
Line(25) = {13, 18};
Line(26) = {15, 19};
Line(27) = {18, 19};
Line(28) = {16, 20};
Line(29) = {20, 19};
Line(30) = {17, 20};
Curve Loop(7) = {-13, -14, 15, 14};
Surface(7) = {7};
Curve Loop(8) = {13};
Plane Surface(8) = {8};
Curve Loop(9) = {15};
Plane Surface(9) = {9};
Curve Loop(10) = {-16, -17, 18, 17};
Surface(10) = {10};
Curve Loop(11) = {16};
Plane Surface(11) = {11};
Curve Loop(12) = {18};
Plane Surface(12) = {12};
Curve Loop(13) = {-19, 22, 21, -20};
Plane Surface(13) = {13};
Curve Loop(14) = {-23, 19, 25, -24};
Plane Surface(14) = {14};
Curve Loop(15) = {-20, 25, 27, -26, -16, -13};
Plane Surface(15) = {15};
Curve Loop(16) = {-28, 21, 26, -29};
Plane Surface(16) = {16};
Curve Loop(17) = {-22, 23, 30, -28, -18, -15};
Plane Surface(17) = {17};
Curve Loop(18) = {-24, 30, 29, -27};
Plane Surface(18) = {18};
Surface Loop(1) = {13, 14, 15, 16, 17, 18, 10, 7};
Volume(1) = {1};
Surface Loop(2) = {7, 8, 9};
Volume(2) = {2};
Surface Loop(3) = {10, 11, 12};
Volume(3) = {3};
Physical Surface("WALLS") = {13, 18};
Physical Surface("LOAD") = {8, 11};
Physical Surface("BORDER") = {7, 9, 10, 12, 14, 15, 16, 17};
Physical Volume("SOLID") = {1, 2, 3};
