cl__1 = 0.12849;
cl__2 = 0.100731;
cl__3 = 1.505642;
cl__4 = 2.129404;
cl__5 = 0.854373;
cl__6 = 0.712951;
Point(9) = {8.532661000000001, 0.2960059999999997, 0.1, cl__1};
Point(10) = {8.532661000000001, 0.2960059999999997, 0, cl__1};
Point(11) = {30.554878, 1.468859, 0.1, cl__2};
Point(12) = {30.554878, 1.468859, 0, cl__2};
Point(13) = {0.655401, -3.275738, 0.1, cl__3};
Point(14) = {0.655401, -3.275738, 0, cl__3};
Point(15) = {0.655401, 5.270676, 0.1, cl__4};
Point(16) = {0.655401, 5.270676, 0, cl__4};
Point(17) = {32.594263, -3.275738, 0, cl__5};
Point(18) = {32.594263, -3.275738, 0.1, cl__5};
Point(19) = {32.594263, 5.270676, 0.1, cl__6};
Point(20) = {32.594263, 5.270676, 0, cl__6};
p13 = newp;
Point(p13 + 1) = {8.516841785765671, 0.4970081748267975, 0.1};
Point(p13 + 2) = {8.469773664618094, 0.6930610090213868, 0.1};
Point(p13 + 3) = {8.392615609910061, 0.8793370311438443, 0.1};
Point(p13 + 4) = {8.287267509021387, 1.051249507314842, 0.1};
Point(p13 + 5) = {8.156323381826251, 1.204565381826251, 0.1};
Point(p13 + 6) = {8.003007507314843, 1.335509509021387, 0.1};
Point(p13 + 7) = {7.831095031143844, 1.440857609910061, 0.1};
Point(p13 + 8) = {7.644819009021387, 1.518015664618094, 0.1};
Point(p13 + 9) = {7.448766174826797, 1.565083785765671, 0.1};
Point(p13 + 10) = {7.247764, 1.580903, 0.1};
Point(p13 + 11) = {7.046761825173203, 1.565083785765671, 0.1};
Point(p13 + 12) = {6.850708990978614, 1.518015664618094, 0.1};
Point(p13 + 13) = {6.664432968856156, 1.440857609910061, 0.1};
Point(p13 + 14) = {6.492520492685158, 1.335509509021387, 0.1};
Point(p13 + 15) = {6.339204618173749, 1.204565381826251, 0.1};
Point(p13 + 16) = {6.208260490978613, 1.051249507314842, 0.1};
Point(p13 + 17) = {6.102912390089939, 0.8793370311438445, 0.1};
Point(p13 + 18) = {6.025754335381906, 0.6930610090213869, 0.1};
Point(p13 + 19) = {5.97868621423433, 0.4970081748267977, 0.1};
Point(p13 + 20) = {5.962867, 0.2960060000000002, 0.1};
Point(p13 + 21) = {5.97868621423433, 0.09500382517320261, 0.1};
Point(p13 + 22) = {6.025754335381906, -0.1010490090213872, 0.1};
Point(p13 + 23) = {6.102912390089939, -0.2873250311438438, 0.1};
Point(p13 + 24) = {6.208260490978613, -0.4592375073148417, 0.1};
Point(p13 + 25) = {6.339204618173748, -0.6125533818262513, 0.1};
Point(p13 + 26) = {6.492520492685158, -0.7434975090213867, 0.1};
Point(p13 + 27) = {6.664432968856156, -0.8488456099100612, 0.1};
Point(p13 + 28) = {6.850708990978613, -0.9260036646180938, 0.1};
Point(p13 + 29) = {7.046761825173203, -0.9730717857656705, 0.1};
Point(p13 + 30) = {7.247764, -0.988891, 0.1};
Point(p13 + 31) = {7.448766174826797, -0.9730717857656708, 0.1};
Point(p13 + 32) = {7.644819009021386, -0.926003664618094, 0.1};
Point(p13 + 33) = {7.831095031143844, -0.8488456099100614, 0.1};
Point(p13 + 34) = {8.003007507314841, -0.7434975090213869, 0.1};
Point(p13 + 35) = {8.156323381826251, -0.6125533818262515, 0.1};
Point(p13 + 36) = {8.287267509021387, -0.459237507314842, 0.1};
Point(p13 + 37) = {8.392615609910061, -0.2873250311438447, 0.1};
Point(p13 + 38) = {8.469773664618094, -0.1010490090213871, 0.1};
Point(p13 + 39) = {8.516841785765671, 0.09500382517320216, 0.1};
Spline(13) = {9, p13 + 1, p13 + 2, p13 + 3, p13 + 4, p13 + 5, p13 + 6, p13 + 7, p13 + 8, p13 + 9, p13 + 10, p13 + 11, p13 + 12, p13 + 13, p13 + 14, p13 + 15, p13 + 16, p13 + 17, p13 + 18, p13 + 19, p13 + 20, p13 + 21, p13 + 22, p13 + 23, p13 + 24, p13 + 25, p13 + 26, p13 + 27, p13 + 28, p13 + 29, p13 + 30, p13 + 31, p13 + 32, p13 + 33, p13 + 34, p13 + 35, p13 + 36, p13 + 37, p13 + 38, p13 + 39, 9};
Line(14) = {10, 9};
p15 = newp;
Point(p15 + 1) = {8.516841785765671, 0.4970081748267975, 0};
Point(p15 + 2) = {8.469773664618094, 0.6930610090213868, 0};
Point(p15 + 3) = {8.392615609910061, 0.8793370311438443, 0};
Point(p15 + 4) = {8.287267509021387, 1.051249507314842, 0};
Point(p15 + 5) = {8.156323381826251, 1.204565381826251, 0};
Point(p15 + 6) = {8.003007507314843, 1.335509509021387, 0};
Point(p15 + 7) = {7.831095031143844, 1.440857609910061, 0};
Point(p15 + 8) = {7.644819009021387, 1.518015664618094, 0};
Point(p15 + 9) = {7.448766174826797, 1.565083785765671, 0};
Point(p15 + 10) = {7.247764, 1.580903, 0};
Point(p15 + 11) = {7.046761825173203, 1.565083785765671, 0};
Point(p15 + 12) = {6.850708990978614, 1.518015664618094, 0};
Point(p15 + 13) = {6.664432968856156, 1.440857609910061, 0};
Point(p15 + 14) = {6.492520492685158, 1.335509509021387, 0};
Point(p15 + 15) = {6.339204618173749, 1.204565381826251, 0};
Point(p15 + 16) = {6.208260490978613, 1.051249507314842, 0};
Point(p15 + 17) = {6.102912390089939, 0.8793370311438445, 0};
Point(p15 + 18) = {6.025754335381906, 0.6930610090213869, 0};
Point(p15 + 19) = {5.97868621423433, 0.4970081748267977, 0};
Point(p15 + 20) = {5.962867, 0.2960060000000002, 0};
Point(p15 + 21) = {5.97868621423433, 0.09500382517320261, 0};
Point(p15 + 22) = {6.025754335381906, -0.1010490090213872, 0};
Point(p15 + 23) = {6.102912390089939, -0.2873250311438438, 0};
Point(p15 + 24) = {6.208260490978613, -0.4592375073148417, 0};
Point(p15 + 25) = {6.339204618173748, -0.6125533818262513, 0};
Point(p15 + 26) = {6.492520492685158, -0.7434975090213867, 0};
Point(p15 + 27) = {6.664432968856156, -0.8488456099100612, 0};
Point(p15 + 28) = {6.850708990978613, -0.9260036646180938, 0};
Point(p15 + 29) = {7.046761825173203, -0.9730717857656705, 0};
Point(p15 + 30) = {7.247764, -0.988891, 0};
Point(p15 + 31) = {7.448766174826797, -0.9730717857656708, 0};
Point(p15 + 32) = {7.644819009021386, -0.926003664618094, 0};
Point(p15 + 33) = {7.831095031143844, -0.8488456099100614, 0};
Point(p15 + 34) = {8.003007507314841, -0.7434975090213869, 0};
Point(p15 + 35) = {8.156323381826251, -0.6125533818262515, 0};
Point(p15 + 36) = {8.287267509021387, -0.459237507314842, 0};
Point(p15 + 37) = {8.392615609910061, -0.2873250311438447, 0};
Point(p15 + 38) = {8.469773664618094, -0.1010490090213871, 0};
Point(p15 + 39) = {8.516841785765671, 0.09500382517320216, 0};
Spline(15) = {10, p15 + 1, p15 + 2, p15 + 3, p15 + 4, p15 + 5, p15 + 6, p15 + 7, p15 + 8, p15 + 9, p15 + 10, p15 + 11, p15 + 12, p15 + 13, p15 + 14, p15 + 15, p15 + 16, p15 + 17, p15 + 18, p15 + 19, p15 + 20, p15 + 21, p15 + 22, p15 + 23, p15 + 24, p15 + 25, p15 + 26, p15 + 27, p15 + 28, p15 + 29, p15 + 30, p15 + 31, p15 + 32, p15 + 33, p15 + 34, p15 + 35, p15 + 36, p15 + 37, p15 + 38, p15 + 39, 10};
p16 = newp;
Point(p16 + 1) = {30.54247628080659, 1.626437783152, 0.1};
Point(p16 + 2) = {30.50557649471185, 1.7801364536888, 0.1};
Point(p16 + 3) = {30.4450872369128, 1.926170440245141, 0.1};
Point(p16 + 4) = {30.3624979536888, 2.060943901412992, 0.1};
Point(p16 + 5) = {30.25984226729093, 2.181138267290927, 0.1};
Point(p16 + 6) = {30.13964790141299, 2.2837939536888, 0.1};
Point(p16 + 7) = {30.00487444024514, 2.366383236912806, 0.1};
Point(p16 + 8) = {29.8588404536888, 2.426872494711852, 0.1};
Point(p16 + 9) = {29.705141783152, 2.463772280806591, 0.1};
Point(p16 + 10) = {29.547563, 2.476174, 0.1};
Point(p16 + 11) = {29.389984216848, 2.463772280806591, 0.1};
Point(p16 + 12) = {29.2362855463112, 2.426872494711853, 0.1};
Point(p16 + 13) = {29.09025155975486, 2.366383236912806, 0.1};
Point(p16 + 14) = {28.95547809858701, 2.2837939536888, 0.1};
Point(p16 + 15) = {28.83528373270907, 2.181138267290927, 0.1};
Point(p16 + 16) = {28.7326280463112, 2.060943901412993, 0.1};
Point(p16 + 17) = {28.6500387630872, 1.926170440245142, 0.1};
Point(p16 + 18) = {28.58954950528815, 1.7801364536888, 0.1};
Point(p16 + 19) = {28.55264971919341, 1.626437783152, 0.1};
Point(p16 + 20) = {28.540248, 1.468859, 0.1};
Point(p16 + 21) = {28.55264971919341, 1.311280216848, 0.1};
Point(p16 + 22) = {28.58954950528815, 1.157581546311199, 0.1};
Point(p16 + 23) = {28.6500387630872, 1.011547559754859, 0.1};
Point(p16 + 24) = {28.7326280463112, 0.8767740985870075, 0.1};
Point(p16 + 25) = {28.83528373270907, 0.7565797327090729, 0.1};
Point(p16 + 26) = {28.95547809858701, 0.6539240463111998, 0.1};
Point(p16 + 27) = {29.09025155975486, 0.5713347630871942, 0.1};
Point(p16 + 28) = {29.2362855463112, 0.5108455052881474, 0.1};
Point(p16 + 29) = {29.389984216848, 0.4739457191934089, 0.1};
Point(p16 + 30) = {29.547563, 0.461544, 0.1};
Point(p16 + 31) = {29.705141783152, 0.4739457191934088, 0.1};
Point(p16 + 32) = {29.8588404536888, 0.5108455052881472, 0.1};
Point(p16 + 33) = {30.00487444024514, 0.571334763087194, 0.1};
Point(p16 + 34) = {30.13964790141299, 0.6539240463111996, 0.1};
Point(p16 + 35) = {30.25984226729093, 0.7565797327090726, 0.1};
Point(p16 + 36) = {30.3624979536888, 0.8767740985870073, 0.1};
Point(p16 + 37) = {30.4450872369128, 1.011547559754858, 0.1};
Point(p16 + 38) = {30.50557649471185, 1.1575815463112, 0.1};
Point(p16 + 39) = {30.54247628080659, 1.311280216848, 0.1};
Spline(16) = {11, p16 + 1, p16 + 2, p16 + 3, p16 + 4, p16 + 5, p16 + 6, p16 + 7, p16 + 8, p16 + 9, p16 + 10, p16 + 11, p16 + 12, p16 + 13, p16 + 14, p16 + 15, p16 + 16, p16 + 17, p16 + 18, p16 + 19, p16 + 20, p16 + 21, p16 + 22, p16 + 23, p16 + 24, p16 + 25, p16 + 26, p16 + 27, p16 + 28, p16 + 29, p16 + 30, p16 + 31, p16 + 32, p16 + 33, p16 + 34, p16 + 35, p16 + 36, p16 + 37, p16 + 38, p16 + 39, 11};
Line(17) = {12, 11};
p18 = newp;
Point(p18 + 1) = {30.54247628080659, 1.626437783152, 0};
Point(p18 + 2) = {30.50557649471185, 1.7801364536888, 0};
Point(p18 + 3) = {30.4450872369128, 1.926170440245141, 0};
Point(p18 + 4) = {30.3624979536888, 2.060943901412992, 0};
Point(p18 + 5) = {30.25984226729093, 2.181138267290927, 0};
Point(p18 + 6) = {30.13964790141299, 2.2837939536888, 0};
Point(p18 + 7) = {30.00487444024514, 2.366383236912806, 0};
Point(p18 + 8) = {29.8588404536888, 2.426872494711852, 0};
Point(p18 + 9) = {29.705141783152, 2.463772280806591, 0};
Point(p18 + 10) = {29.547563, 2.476174, 0};
Point(p18 + 11) = {29.389984216848, 2.463772280806591, 0};
Point(p18 + 12) = {29.2362855463112, 2.426872494711853, 0};
Point(p18 + 13) = {29.09025155975486, 2.366383236912806, 0};
Point(p18 + 14) = {28.95547809858701, 2.2837939536888, 0};
Point(p18 + 15) = {28.83528373270907, 2.181138267290927, 0};
Point(p18 + 16) = {28.7326280463112, 2.060943901412993, 0};
Point(p18 + 17) = {28.6500387630872, 1.926170440245142, 0};
Point(p18 + 18) = {28.58954950528815, 1.7801364536888, 0};
Point(p18 + 19) = {28.55264971919341, 1.626437783152, 0};
Point(p18 + 20) = {28.540248, 1.468859, 0};
Point(p18 + 21) = {28.55264971919341, 1.311280216848, 0};
Point(p18 + 22) = {28.58954950528815, 1.157581546311199, 0};
Point(p18 + 23) = {28.6500387630872, 1.011547559754859, 0};
Point(p18 + 24) = {28.7326280463112, 0.8767740985870075, 0};
Point(p18 + 25) = {28.83528373270907, 0.7565797327090729, 0};
Point(p18 + 26) = {28.95547809858701, 0.6539240463111998, 0};
Point(p18 + 27) = {29.09025155975486, 0.5713347630871942, 0};
Point(p18 + 28) = {29.2362855463112, 0.5108455052881474, 0};
Point(p18 + 29) = {29.389984216848, 0.4739457191934089, 0};
Point(p18 + 30) = {29.547563, 0.461544, 0};
Point(p18 + 31) = {29.705141783152, 0.4739457191934088, 0};
Point(p18 + 32) = {29.8588404536888, 0.5108455052881472, 0};
Point(p18 + 33) = {30.00487444024514, 0.571334763087194, 0};
Point(p18 + 34) = {30.13964790141299, 0.6539240463111996, 0};
Point(p18 + 35) = {30.25984226729093, 0.7565797327090726, 0};
Point(p18 + 36) = {30.3624979536888, 0.8767740985870073, 0};
Point(p18 + 37) = {30.4450872369128, 1.011547559754858, 0};
Point(p18 + 38) = {30.50557649471185, 1.1575815463112, 0};
Point(p18 + 39) = {30.54247628080659, 1.311280216848, 0};
Spline(18) = {12, p18 + 1, p18 + 2, p18 + 3, p18 + 4, p18 + 5, p18 + 6, p18 + 7, p18 + 8, p18 + 9, p18 + 10, p18 + 11, p18 + 12, p18 + 13, p18 + 14, p18 + 15, p18 + 16, p18 + 17, p18 + 18, p18 + 19, p18 + 20, p18 + 21, p18 + 22, p18 + 23, p18 + 24, p18 + 25, p18 + 26, p18 + 27, p18 + 28, p18 + 29, p18 + 30, p18 + 31, p18 + 32, p18 + 33, p18 + 34, p18 + 35, p18 + 36, p18 + 37, p18 + 38, p18 + 39, 12};
Line(19) = {14, 13};
Line(20) = {13, 15};
Line(21) = {16, 15};
Line(22) = {14, 16};
Line(23) = {14, 17};
Line(24) = {17, 18};
Line(25) = {13, 18};
Line(26) = {15, 19};
Line(27) = {18, 19};
Line(28) = {16, 20};
Line(29) = {20, 19};
Line(30) = {17, 20};
Curve Loop(7) = {-13, -14, 15, 14};
Surface(7) = {7};
Curve Loop(8) = {13};
Plane Surface(8) = {8};
Curve Loop(9) = {15};
Plane Surface(9) = {9};
Curve Loop(10) = {-16, -17, 18, 17};
Surface(10) = {10};
Curve Loop(11) = {16};
Plane Surface(11) = {11};
Curve Loop(12) = {18};
Plane Surface(12) = {12};
Curve Loop(13) = {-19, 22, 21, -20};
Plane Surface(13) = {13};
Curve Loop(14) = {-23, 19, 25, -24};
Plane Surface(14) = {14};
Curve Loop(15) = {-20, 25, 27, -26, -13, -16};
Plane Surface(15) = {15};
Curve Loop(16) = {-28, 21, 26, -29};
Plane Surface(16) = {16};
Curve Loop(17) = {-22, 23, 30, -28, -15, -18};
Plane Surface(17) = {17};
Curve Loop(18) = {-24, 30, 29, -27};
Plane Surface(18) = {18};
Surface Loop(1) = {13, 14, 15, 16, 17, 18, 7, 10};
Volume(1) = {1};
Surface Loop(2) = {7, 8, 9};
Volume(2) = {2};
Surface Loop(3) = {10, 11, 12};
Volume(3) = {3};
Physical Surface("WALLS") = {13, 18};
Physical Surface("LOAD") = {8, 11};
Physical Surface("BORDER") = {7, 9, 10, 12, 14, 15, 16, 17};
Physical Volume("SOLID") = {1, 2, 3};
