cl__1 = 0.148219;
cl__2 = 0.147585;
cl__3 = 1.588568;
cl__4 = 1.167231;
cl__5 = 0.804671;
cl__6 = 0.975618;
Point(9) = {14.721733, 2.723583999999999, 0.1, cl__1};
Point(10) = {14.721733, 2.723583999999999, 0, cl__1};
Point(11) = {22.549137, -1.536689, 0.1, cl__2};
Point(12) = {22.549137, -1.536689, 0, cl__2};
Point(13) = {0.591042, -3.553629, 1, cl__3};
Point(14) = {0.591042, -3.553629, 0, cl__3};
Point(15) = {0.591042, 5.189229999999999, 1, cl__4};
Point(16) = {0.591042, 5.189229999999999, 0, cl__4};
Point(17) = {31.063312, -3.553629, 0, cl__5};
Point(18) = {31.063312, -3.553629, 1, cl__5};
Point(19) = {31.063312, 5.189229999999999, 1, cl__6};
Point(20) = {31.063312, 5.189229999999999, 0, cl__6};
p13 = newp;
Point(p13 + 1) = {14.70348474461173, 2.955450069041375, 0.1};
Point(p13 + 2) = {14.64918931105706, 3.181606825943586, 0.1};
Point(p13 + 3) = {14.56018363310633, 3.396485540780458, 0.1};
Point(p13 + 4) = {14.43865932594359, 3.594795186451138, 0.1};
Point(p13 + 5) = {14.28760872132723, 3.771652721327232, 0.1};
Point(p13 + 6) = {14.11075118645114, 3.922703325943586, 0.1};
Point(p13 + 7) = {13.91244154078046, 4.044227633106329, 0.1};
Point(p13 + 8) = {13.69756282594359, 4.133233311057062, 0.1};
Point(p13 + 9) = {13.47140606904138, 4.187528744611729, 0.1};
Point(p13 + 10) = {13.23954, 4.205776999999999, 0.1};
Point(p13 + 11) = {13.00767393095862, 4.187528744611729, 0.1};
Point(p13 + 12) = {12.78151717405641, 4.133233311057062, 0.1};
Point(p13 + 13) = {12.56663845921954, 4.044227633106329, 0.1};
Point(p13 + 14) = {12.36832881354886, 3.922703325943586, 0.1};
Point(p13 + 15) = {12.19147127867277, 3.771652721327232, 0.1};
Point(p13 + 16) = {12.04042067405641, 3.594795186451138, 0.1};
Point(p13 + 17) = {11.91889636689367, 3.396485540780458, 0.1};
Point(p13 + 18) = {11.82989068894294, 3.181606825943586, 0.1};
Point(p13 + 19) = {11.77559525538827, 2.955450069041375, 0.1};
Point(p13 + 20) = {11.757347, 2.723584, 0.1};
Point(p13 + 21) = {11.77559525538827, 2.491717930958625, 0.1};
Point(p13 + 22) = {11.82989068894294, 2.265561174056413, 0.1};
Point(p13 + 23) = {11.91889636689367, 2.050682459219543, 0.1};
Point(p13 + 24) = {12.04042067405641, 1.852372813548862, 0.1};
Point(p13 + 25) = {12.19147127867277, 1.675515278672767, 0.1};
Point(p13 + 26) = {12.36832881354886, 1.524464674056413, 0.1};
Point(p13 + 27) = {12.56663845921954, 1.40294036689367, 0.1};
Point(p13 + 28) = {12.78151717405641, 1.313934688942937, 0.1};
Point(p13 + 29) = {13.00767393095862, 1.259639255388271, 0.1};
Point(p13 + 30) = {13.23954, 1.241391, 0.1};
Point(p13 + 31) = {13.47140606904138, 1.259639255388271, 0.1};
Point(p13 + 32) = {13.69756282594359, 1.313934688942937, 0.1};
Point(p13 + 33) = {13.91244154078046, 1.40294036689367, 0.1};
Point(p13 + 34) = {14.11075118645114, 1.524464674056413, 0.1};
Point(p13 + 35) = {14.28760872132723, 1.675515278672767, 0.1};
Point(p13 + 36) = {14.43865932594359, 1.852372813548862, 0.1};
Point(p13 + 37) = {14.56018363310633, 2.050682459219542, 0.1};
Point(p13 + 38) = {14.64918931105706, 2.265561174056413, 0.1};
Point(p13 + 39) = {14.70348474461173, 2.491717930958624, 0.1};
Spline(13) = {9, p13 + 1, p13 + 2, p13 + 3, p13 + 4, p13 + 5, p13 + 6, p13 + 7, p13 + 8, p13 + 9, p13 + 10, p13 + 11, p13 + 12, p13 + 13, p13 + 14, p13 + 15, p13 + 16, p13 + 17, p13 + 18, p13 + 19, p13 + 20, p13 + 21, p13 + 22, p13 + 23, p13 + 24, p13 + 25, p13 + 26, p13 + 27, p13 + 28, p13 + 29, p13 + 30, p13 + 31, p13 + 32, p13 + 33, p13 + 34, p13 + 35, p13 + 36, p13 + 37, p13 + 38, p13 + 39, 9};
Line(14) = {10, 9};
p15 = newp;
Point(p15 + 1) = {14.70348474461173, 2.955450069041375, 0};
Point(p15 + 2) = {14.64918931105706, 3.181606825943586, 0};
Point(p15 + 3) = {14.56018363310633, 3.396485540780458, 0};
Point(p15 + 4) = {14.43865932594359, 3.594795186451138, 0};
Point(p15 + 5) = {14.28760872132723, 3.771652721327232, 0};
Point(p15 + 6) = {14.11075118645114, 3.922703325943586, 0};
Point(p15 + 7) = {13.91244154078046, 4.044227633106329, 0};
Point(p15 + 8) = {13.69756282594359, 4.133233311057062, 0};
Point(p15 + 9) = {13.47140606904138, 4.187528744611729, 0};
Point(p15 + 10) = {13.23954, 4.205776999999999, 0};
Point(p15 + 11) = {13.00767393095862, 4.187528744611729, 0};
Point(p15 + 12) = {12.78151717405641, 4.133233311057062, 0};
Point(p15 + 13) = {12.56663845921954, 4.044227633106329, 0};
Point(p15 + 14) = {12.36832881354886, 3.922703325943586, 0};
Point(p15 + 15) = {12.19147127867277, 3.771652721327232, 0};
Point(p15 + 16) = {12.04042067405641, 3.594795186451138, 0};
Point(p15 + 17) = {11.91889636689367, 3.396485540780458, 0};
Point(p15 + 18) = {11.82989068894294, 3.181606825943586, 0};
Point(p15 + 19) = {11.77559525538827, 2.955450069041375, 0};
Point(p15 + 20) = {11.757347, 2.723584, 0};
Point(p15 + 21) = {11.77559525538827, 2.491717930958625, 0};
Point(p15 + 22) = {11.82989068894294, 2.265561174056413, 0};
Point(p15 + 23) = {11.91889636689367, 2.050682459219543, 0};
Point(p15 + 24) = {12.04042067405641, 1.852372813548862, 0};
Point(p15 + 25) = {12.19147127867277, 1.675515278672767, 0};
Point(p15 + 26) = {12.36832881354886, 1.524464674056413, 0};
Point(p15 + 27) = {12.56663845921954, 1.40294036689367, 0};
Point(p15 + 28) = {12.78151717405641, 1.313934688942937, 0};
Point(p15 + 29) = {13.00767393095862, 1.259639255388271, 0};
Point(p15 + 30) = {13.23954, 1.241391, 0};
Point(p15 + 31) = {13.47140606904138, 1.259639255388271, 0};
Point(p15 + 32) = {13.69756282594359, 1.313934688942937, 0};
Point(p15 + 33) = {13.91244154078046, 1.40294036689367, 0};
Point(p15 + 34) = {14.11075118645114, 1.524464674056413, 0};
Point(p15 + 35) = {14.28760872132723, 1.675515278672767, 0};
Point(p15 + 36) = {14.43865932594359, 1.852372813548862, 0};
Point(p15 + 37) = {14.56018363310633, 2.050682459219542, 0};
Point(p15 + 38) = {14.64918931105706, 2.265561174056413, 0};
Point(p15 + 39) = {14.70348474461173, 2.491717930958624, 0};
Spline(15) = {10, p15 + 1, p15 + 2, p15 + 3, p15 + 4, p15 + 5, p15 + 6, p15 + 7, p15 + 8, p15 + 9, p15 + 10, p15 + 11, p15 + 12, p15 + 13, p15 + 14, p15 + 15, p15 + 16, p15 + 17, p15 + 18, p15 + 19, p15 + 20, p15 + 21, p15 + 22, p15 + 23, p15 + 24, p15 + 25, p15 + 26, p15 + 27, p15 + 28, p15 + 29, p15 + 30, p15 + 31, p15 + 32, p15 + 33, p15 + 34, p15 + 35, p15 + 36, p15 + 37, p15 + 38, p15 + 39, 10};
p16 = newp;
Point(p16 + 1) = {22.53096680053236, -1.30581472546698, 0.1};
Point(p16 + 2) = {22.47690361274375, -1.080625341800751, 0.1};
Point(p16 + 3) = {22.38827865174298, -0.8666657589878907, 0.1};
Point(p16 + 4) = {22.26727415819925, -0.6692043720483966, 0.1};
Point(p16 + 5) = {22.11686966433451, -0.4931033356654904, 0.1};
Point(p16 + 6) = {21.94076862795161, -0.3426988418007508, 0.1};
Point(p16 + 7) = {21.74330724101211, -0.2216943482570248, 0.1};
Point(p16 + 8) = {21.52934765819925, -0.1330693872562487, 0.1};
Point(p16 + 9) = {21.30415827453302, -0.07900619946764409, 0.1};
Point(p16 + 10) = {21.073284, -0.06083599999999989, 0.1};
Point(p16 + 11) = {20.84240972546698, -0.07900619946764409, 0.1};
Point(p16 + 12) = {20.61722034180075, -0.1330693872562485, 0.1};
Point(p16 + 13) = {20.40326075898789, -0.2216943482570246, 0.1};
Point(p16 + 14) = {20.2057993720484, -0.3426988418007506, 0.1};
Point(p16 + 15) = {20.02969833566549, -0.4931033356654901, 0.1};
Point(p16 + 16) = {19.87929384180075, -0.6692043720483964, 0.1};
Point(p16 + 17) = {19.75828934825703, -0.8666657589878904, 0.1};
Point(p16 + 18) = {19.66966438725625, -1.080625341800751, 0.1};
Point(p16 + 19) = {19.61560119946764, -1.30581472546698, 0.1};
Point(p16 + 20) = {19.597431, -1.536689, 0.1};
Point(p16 + 21) = {19.61560119946764, -1.76756327453302, 0.1};
Point(p16 + 22) = {19.66966438725625, -1.99275265819925, 0.1};
Point(p16 + 23) = {19.75828934825703, -2.206712241012108, 0.1};
Point(p16 + 24) = {19.87929384180075, -2.404173627951603, 0.1};
Point(p16 + 25) = {20.02969833566549, -2.580274664334509, 0.1};
Point(p16 + 26) = {20.2057993720484, -2.730679158199249, 0.1};
Point(p16 + 27) = {20.40326075898789, -2.851683651742975, 0.1};
Point(p16 + 28) = {20.61722034180075, -2.940308612743751, 0.1};
Point(p16 + 29) = {20.84240972546698, -2.994371800532356, 0.1};
Point(p16 + 30) = {21.073284, -3.012542, 0.1};
Point(p16 + 31) = {21.30415827453302, -2.994371800532356, 0.1};
Point(p16 + 32) = {21.52934765819925, -2.940308612743752, 0.1};
Point(p16 + 33) = {21.74330724101211, -2.851683651742976, 0.1};
Point(p16 + 34) = {21.94076862795161, -2.73067915819925, 0.1};
Point(p16 + 35) = {22.11686966433451, -2.58027466433451, 0.1};
Point(p16 + 36) = {22.26727415819925, -2.404173627951604, 0.1};
Point(p16 + 37) = {22.38827865174298, -2.206712241012109, 0.1};
Point(p16 + 38) = {22.47690361274375, -1.99275265819925, 0.1};
Point(p16 + 39) = {22.53096680053236, -1.76756327453302, 0.1};
Spline(16) = {11, p16 + 1, p16 + 2, p16 + 3, p16 + 4, p16 + 5, p16 + 6, p16 + 7, p16 + 8, p16 + 9, p16 + 10, p16 + 11, p16 + 12, p16 + 13, p16 + 14, p16 + 15, p16 + 16, p16 + 17, p16 + 18, p16 + 19, p16 + 20, p16 + 21, p16 + 22, p16 + 23, p16 + 24, p16 + 25, p16 + 26, p16 + 27, p16 + 28, p16 + 29, p16 + 30, p16 + 31, p16 + 32, p16 + 33, p16 + 34, p16 + 35, p16 + 36, p16 + 37, p16 + 38, p16 + 39, 11};
Line(17) = {12, 11};
p18 = newp;
Point(p18 + 1) = {22.53096680053236, -1.30581472546698, 0};
Point(p18 + 2) = {22.47690361274375, -1.080625341800751, 0};
Point(p18 + 3) = {22.38827865174298, -0.8666657589878907, 0};
Point(p18 + 4) = {22.26727415819925, -0.6692043720483966, 0};
Point(p18 + 5) = {22.11686966433451, -0.4931033356654904, 0};
Point(p18 + 6) = {21.94076862795161, -0.3426988418007508, 0};
Point(p18 + 7) = {21.74330724101211, -0.2216943482570248, 0};
Point(p18 + 8) = {21.52934765819925, -0.1330693872562487, 0};
Point(p18 + 9) = {21.30415827453302, -0.07900619946764409, 0};
Point(p18 + 10) = {21.073284, -0.06083599999999989, 0};
Point(p18 + 11) = {20.84240972546698, -0.07900619946764409, 0};
Point(p18 + 12) = {20.61722034180075, -0.1330693872562485, 0};
Point(p18 + 13) = {20.40326075898789, -0.2216943482570246, 0};
Point(p18 + 14) = {20.2057993720484, -0.3426988418007506, 0};
Point(p18 + 15) = {20.02969833566549, -0.4931033356654901, 0};
Point(p18 + 16) = {19.87929384180075, -0.6692043720483964, 0};
Point(p18 + 17) = {19.75828934825703, -0.8666657589878904, 0};
Point(p18 + 18) = {19.66966438725625, -1.080625341800751, 0};
Point(p18 + 19) = {19.61560119946764, -1.30581472546698, 0};
Point(p18 + 20) = {19.597431, -1.536689, 0};
Point(p18 + 21) = {19.61560119946764, -1.76756327453302, 0};
Point(p18 + 22) = {19.66966438725625, -1.99275265819925, 0};
Point(p18 + 23) = {19.75828934825703, -2.206712241012108, 0};
Point(p18 + 24) = {19.87929384180075, -2.404173627951603, 0};
Point(p18 + 25) = {20.02969833566549, -2.580274664334509, 0};
Point(p18 + 26) = {20.2057993720484, -2.730679158199249, 0};
Point(p18 + 27) = {20.40326075898789, -2.851683651742975, 0};
Point(p18 + 28) = {20.61722034180075, -2.940308612743751, 0};
Point(p18 + 29) = {20.84240972546698, -2.994371800532356, 0};
Point(p18 + 30) = {21.073284, -3.012542, 0};
Point(p18 + 31) = {21.30415827453302, -2.994371800532356, 0};
Point(p18 + 32) = {21.52934765819925, -2.940308612743752, 0};
Point(p18 + 33) = {21.74330724101211, -2.851683651742976, 0};
Point(p18 + 34) = {21.94076862795161, -2.73067915819925, 0};
Point(p18 + 35) = {22.11686966433451, -2.58027466433451, 0};
Point(p18 + 36) = {22.26727415819925, -2.404173627951604, 0};
Point(p18 + 37) = {22.38827865174298, -2.206712241012109, 0};
Point(p18 + 38) = {22.47690361274375, -1.99275265819925, 0};
Point(p18 + 39) = {22.53096680053236, -1.76756327453302, 0};
Spline(18) = {12, p18 + 1, p18 + 2, p18 + 3, p18 + 4, p18 + 5, p18 + 6, p18 + 7, p18 + 8, p18 + 9, p18 + 10, p18 + 11, p18 + 12, p18 + 13, p18 + 14, p18 + 15, p18 + 16, p18 + 17, p18 + 18, p18 + 19, p18 + 20, p18 + 21, p18 + 22, p18 + 23, p18 + 24, p18 + 25, p18 + 26, p18 + 27, p18 + 28, p18 + 29, p18 + 30, p18 + 31, p18 + 32, p18 + 33, p18 + 34, p18 + 35, p18 + 36, p18 + 37, p18 + 38, p18 + 39, 12};
Line(19) = {14, 13};
Line(20) = {13, 15};
Line(21) = {16, 15};
Line(22) = {14, 16};
Line(23) = {14, 17};
Line(24) = {17, 18};
Line(25) = {13, 18};
Line(26) = {15, 19};
Line(27) = {18, 19};
Line(28) = {16, 20};
Line(29) = {20, 19};
Line(30) = {17, 20};
Curve Loop(7) = {-13, -14, 15, 14};
Surface(7) = {7};
Curve Loop(8) = {13};
Plane Surface(8) = {8};
Curve Loop(9) = {15};
Plane Surface(9) = {9};
Curve Loop(10) = {-16, -17, 18, 17};
Surface(10) = {10};
Curve Loop(11) = {16};
Plane Surface(11) = {11};
Curve Loop(12) = {18};
Plane Surface(12) = {12};
Curve Loop(13) = {-19, 22, 21, -20};
Plane Surface(13) = {13};
Curve Loop(14) = {-23, 19, 25, -24};
Plane Surface(14) = {14};
Curve Loop(15) = {-20, 25, 27, -26};
Plane Surface(15) = {15};
Curve Loop(16) = {-28, 21, 26, -29};
Plane Surface(16) = {16};
Curve Loop(17) = {-22, 23, 30, -28, -18, -15};
Plane Surface(17) = {17};
Curve Loop(18) = {-24, 30, 29, -27};
Plane Surface(18) = {18};
Surface Loop(1) = {13, 14, 15, 16, 17, 18, 10, 7, 11, 8};
Volume(1) = {1};
Surface Loop(2) = {7, 8, 9};
Volume(2) = {2};
Surface Loop(3) = {10, 11, 12};
Volume(3) = {3};
Physical Surface("WALLS") = {13, 18};
Physical Surface("LOAD") = {8, 11};
Physical Surface("BORDER") = {7, 9, 10, 12, 14, 15, 16, 17};
Physical Volume("SOLID") = {1, 2, 3};
