cl__1 = 0.062069;
cl__2 = 0.12064;
cl__3 = 0.94598;
cl__4 = 0.947919;
cl__5 = 1.188232;
cl__6 = 1.147494;
Point(9) = {14.846889, 0.9432759999999998, 0.1, cl__1};
Point(10) = {14.846889, 0.9432759999999998, 0, cl__1};
Point(11) = {18.233012, 1.359884, 0.1, cl__2};
Point(12) = {18.233012, 1.359884, 0, cl__2};
Point(13) = {0.415984, -3.018024, 1, cl__3};
Point(14) = {0.415984, -3.018024, 0, cl__3};
Point(15) = {0.415984, 5.005557999999999, 1, cl__4};
Point(16) = {0.415984, 5.005557999999999, 0, cl__4};
Point(17) = {33.036519, -3.018024, 0, cl__5};
Point(18) = {33.036519, -3.018024, 1, cl__5};
Point(19) = {33.036519, 5.005557999999999, 1, cl__6};
Point(20) = {33.036519, 5.005557999999999, 0, cl__6};
p13 = newp;
Point(p13 + 1) = {14.83924730074732, 1.040372995236891, 0.1};
Point(p13 + 2) = {14.81651036698621, 1.135079140204597, 0.1};
Point(p13 + 3) = {14.77923805748543, 1.22506245530234, 0.1};
Point(p13 + 4) = {14.7283481402046, 1.30810725267491, 0.1};
Point(p13 + 5) = {14.66509369380111, 1.382168693801116, 0.1};
Point(p13 + 6) = {14.59103225267491, 1.445423140204597, 0.1};
Point(p13 + 7) = {14.50798745530234, 1.49631305748543, 0.1};
Point(p13 + 8) = {14.4180041402046, 1.533585366986206, 0.1};
Point(p13 + 9) = {14.32329799523689, 1.556322300747315, 0.1};
Point(p13 + 10) = {14.226201, 1.563964, 0.1};
Point(p13 + 11) = {14.12910400476311, 1.556322300747315, 0.1};
Point(p13 + 12) = {14.0343978597954, 1.533585366986206, 0.1};
Point(p13 + 13) = {13.94441454469766, 1.49631305748543, 0.1};
Point(p13 + 14) = {13.86136974732509, 1.445423140204597, 0.1};
Point(p13 + 15) = {13.78730830619888, 1.382168693801116, 0.1};
Point(p13 + 16) = {13.7240538597954, 1.308107252674911, 0.1};
Point(p13 + 17) = {13.67316394251457, 1.22506245530234, 0.1};
Point(p13 + 18) = {13.63589163301379, 1.135079140204597, 0.1};
Point(p13 + 19) = {13.61315469925269, 1.040372995236891, 0.1};
Point(p13 + 20) = {13.605513, 0.9432760000000001, 0.1};
Point(p13 + 21) = {13.61315469925268, 0.8461790047631093, 0.1};
Point(p13 + 22) = {13.63589163301379, 0.7514728597954025, 0.1};
Point(p13 + 23) = {13.67316394251457, 0.6614895446976605, 0.1};
Point(p13 + 24) = {13.7240538597954, 0.5784447473250895, 0.1};
Point(p13 + 25) = {13.78730830619888, 0.5043833061988843, 0.1};
Point(p13 + 26) = {13.86136974732509, 0.4411288597954027, 0.1};
Point(p13 + 27) = {13.94441454469766, 0.3902389425145704, 0.1};
Point(p13 + 28) = {14.0343978597954, 0.3529666330137937, 0.1};
Point(p13 + 29) = {14.12910400476311, 0.3302296992526852, 0.1};
Point(p13 + 30) = {14.226201, 0.322588, 0.1};
Point(p13 + 31) = {14.32329799523689, 0.3302296992526851, 0.1};
Point(p13 + 32) = {14.4180041402046, 0.3529666330137937, 0.1};
Point(p13 + 33) = {14.50798745530234, 0.3902389425145703, 0.1};
Point(p13 + 34) = {14.59103225267491, 0.4411288597954025, 0.1};
Point(p13 + 35) = {14.66509369380111, 0.5043833061988841, 0.1};
Point(p13 + 36) = {14.7283481402046, 0.5784447473250893, 0.1};
Point(p13 + 37) = {14.77923805748543, 0.6614895446976601, 0.1};
Point(p13 + 38) = {14.81651036698621, 0.7514728597954026, 0.1};
Point(p13 + 39) = {14.83924730074731, 0.846179004763109, 0.1};
Spline(13) = {9, p13 + 1, p13 + 2, p13 + 3, p13 + 4, p13 + 5, p13 + 6, p13 + 7, p13 + 8, p13 + 9, p13 + 10, p13 + 11, p13 + 12, p13 + 13, p13 + 14, p13 + 15, p13 + 16, p13 + 17, p13 + 18, p13 + 19, p13 + 20, p13 + 21, p13 + 22, p13 + 23, p13 + 24, p13 + 25, p13 + 26, p13 + 27, p13 + 28, p13 + 29, p13 + 30, p13 + 31, p13 + 32, p13 + 33, p13 + 34, p13 + 35, p13 + 36, p13 + 37, p13 + 38, p13 + 39, 9};
Line(14) = {10, 9};
p15 = newp;
Point(p15 + 1) = {14.83924730074732, 1.040372995236891, 0};
Point(p15 + 2) = {14.81651036698621, 1.135079140204597, 0};
Point(p15 + 3) = {14.77923805748543, 1.22506245530234, 0};
Point(p15 + 4) = {14.7283481402046, 1.30810725267491, 0};
Point(p15 + 5) = {14.66509369380111, 1.382168693801116, 0};
Point(p15 + 6) = {14.59103225267491, 1.445423140204597, 0};
Point(p15 + 7) = {14.50798745530234, 1.49631305748543, 0};
Point(p15 + 8) = {14.4180041402046, 1.533585366986206, 0};
Point(p15 + 9) = {14.32329799523689, 1.556322300747315, 0};
Point(p15 + 10) = {14.226201, 1.563964, 0};
Point(p15 + 11) = {14.12910400476311, 1.556322300747315, 0};
Point(p15 + 12) = {14.0343978597954, 1.533585366986206, 0};
Point(p15 + 13) = {13.94441454469766, 1.49631305748543, 0};
Point(p15 + 14) = {13.86136974732509, 1.445423140204597, 0};
Point(p15 + 15) = {13.78730830619888, 1.382168693801116, 0};
Point(p15 + 16) = {13.7240538597954, 1.308107252674911, 0};
Point(p15 + 17) = {13.67316394251457, 1.22506245530234, 0};
Point(p15 + 18) = {13.63589163301379, 1.135079140204597, 0};
Point(p15 + 19) = {13.61315469925269, 1.040372995236891, 0};
Point(p15 + 20) = {13.605513, 0.9432760000000001, 0};
Point(p15 + 21) = {13.61315469925268, 0.8461790047631093, 0};
Point(p15 + 22) = {13.63589163301379, 0.7514728597954025, 0};
Point(p15 + 23) = {13.67316394251457, 0.6614895446976605, 0};
Point(p15 + 24) = {13.7240538597954, 0.5784447473250895, 0};
Point(p15 + 25) = {13.78730830619888, 0.5043833061988843, 0};
Point(p15 + 26) = {13.86136974732509, 0.4411288597954027, 0};
Point(p15 + 27) = {13.94441454469766, 0.3902389425145704, 0};
Point(p15 + 28) = {14.0343978597954, 0.3529666330137937, 0};
Point(p15 + 29) = {14.12910400476311, 0.3302296992526852, 0};
Point(p15 + 30) = {14.226201, 0.322588, 0};
Point(p15 + 31) = {14.32329799523689, 0.3302296992526851, 0};
Point(p15 + 32) = {14.4180041402046, 0.3529666330137937, 0};
Point(p15 + 33) = {14.50798745530234, 0.3902389425145703, 0};
Point(p15 + 34) = {14.59103225267491, 0.4411288597954025, 0};
Point(p15 + 35) = {14.66509369380111, 0.5043833061988841, 0};
Point(p15 + 36) = {14.7283481402046, 0.5784447473250893, 0};
Point(p15 + 37) = {14.77923805748543, 0.6614895446976601, 0};
Point(p15 + 38) = {14.81651036698621, 0.7514728597954026, 0};
Point(p15 + 39) = {14.83924730074731, 0.846179004763109, 0};
Spline(15) = {10, p15 + 1, p15 + 2, p15 + 3, p15 + 4, p15 + 5, p15 + 6, p15 + 7, p15 + 8, p15 + 9, p15 + 10, p15 + 11, p15 + 12, p15 + 13, p15 + 14, p15 + 15, p15 + 16, p15 + 17, p15 + 18, p15 + 19, p15 + 20, p15 + 21, p15 + 22, p15 + 23, p15 + 24, p15 + 25, p15 + 26, p15 + 27, p15 + 28, p15 + 29, p15 + 30, p15 + 31, p15 + 32, p15 + 33, p15 + 34, p15 + 35, p15 + 36, p15 + 37, p15 + 38, p15 + 39, 10};
p16 = newp;
Point(p16 + 1) = {18.21815915253568, 1.54860732079686, 0.1};
Point(p16 + 2) = {18.17396633654105, 1.732683647098908, 0.1};
Point(p16 + 3) = {18.10152172581347, 1.907580408838288, 0.1};
Point(p16 + 4) = {18.00260914709891, 2.068991067291901, 0.1};
Point(p16 + 5) = {17.87966415635735, 2.212941156357357, 0.1};
Point(p16 + 6) = {17.7357140672919, 2.335886147098909, 0.1};
Point(p16 + 7) = {17.57430340883829, 2.434798725813468, 0.1};
Point(p16 + 8) = {17.39940664709891, 2.507243336541054, 0.1};
Point(p16 + 9) = {17.21533032079686, 2.551436152535677, 0.1};
Point(p16 + 10) = {17.026607, 2.566289, 0.1};
Point(p16 + 11) = {16.83788367920314, 2.551436152535677, 0.1};
Point(p16 + 12) = {16.65380735290109, 2.507243336541055, 0.1};
Point(p16 + 13) = {16.47891059116171, 2.434798725813468, 0.1};
Point(p16 + 14) = {16.3174999327081, 2.335886147098909, 0.1};
Point(p16 + 15) = {16.17354984364264, 2.212941156357357, 0.1};
Point(p16 + 16) = {16.05060485290109, 2.068991067291901, 0.1};
Point(p16 + 17) = {15.95169227418653, 1.907580408838288, 0.1};
Point(p16 + 18) = {15.87924766345894, 1.732683647098909, 0.1};
Point(p16 + 19) = {15.83505484746432, 1.54860732079686, 0.1};
Point(p16 + 20) = {15.820202, 1.359884, 0.1};
Point(p16 + 21) = {15.83505484746432, 1.171160679203141, 0.1};
Point(p16 + 22) = {15.87924766345894, 0.9870843529010913, 0.1};
Point(p16 + 23) = {15.95169227418653, 0.8121875911617128, 0.1};
Point(p16 + 24) = {16.05060485290109, 0.6507769327080992, 0.1};
Point(p16 + 25) = {16.17354984364264, 0.5068268436426433, 0.1};
Point(p16 + 26) = {16.3174999327081, 0.3838818529010918, 0.1};
Point(p16 + 27) = {16.47891059116171, 0.2849692741865324, 0.1};
Point(p16 + 28) = {16.65380735290109, 0.2125246634589455, 0.1};
Point(p16 + 29) = {16.83788367920314, 0.1683318474643232, 0.1};
Point(p16 + 30) = {17.026607, 0.1534790000000001, 0.1};
Point(p16 + 31) = {17.21533032079686, 0.1683318474643229, 0.1};
Point(p16 + 32) = {17.39940664709891, 0.2125246634589453, 0.1};
Point(p16 + 33) = {17.57430340883829, 0.284969274186532, 0.1};
Point(p16 + 34) = {17.7357140672919, 0.3838818529010916, 0.1};
Point(p16 + 35) = {17.87966415635735, 0.5068268436426431, 0.1};
Point(p16 + 36) = {18.00260914709891, 0.6507769327080989, 0.1};
Point(p16 + 37) = {18.10152172581347, 0.8121875911617119, 0.1};
Point(p16 + 38) = {18.17396633654105, 0.9870843529010914, 0.1};
Point(p16 + 39) = {18.21815915253568, 1.17116067920314, 0.1};
Spline(16) = {11, p16 + 1, p16 + 2, p16 + 3, p16 + 4, p16 + 5, p16 + 6, p16 + 7, p16 + 8, p16 + 9, p16 + 10, p16 + 11, p16 + 12, p16 + 13, p16 + 14, p16 + 15, p16 + 16, p16 + 17, p16 + 18, p16 + 19, p16 + 20, p16 + 21, p16 + 22, p16 + 23, p16 + 24, p16 + 25, p16 + 26, p16 + 27, p16 + 28, p16 + 29, p16 + 30, p16 + 31, p16 + 32, p16 + 33, p16 + 34, p16 + 35, p16 + 36, p16 + 37, p16 + 38, p16 + 39, 11};
Line(17) = {12, 11};
p18 = newp;
Point(p18 + 1) = {18.21815915253568, 1.54860732079686, 0};
Point(p18 + 2) = {18.17396633654105, 1.732683647098908, 0};
Point(p18 + 3) = {18.10152172581347, 1.907580408838288, 0};
Point(p18 + 4) = {18.00260914709891, 2.068991067291901, 0};
Point(p18 + 5) = {17.87966415635735, 2.212941156357357, 0};
Point(p18 + 6) = {17.7357140672919, 2.335886147098909, 0};
Point(p18 + 7) = {17.57430340883829, 2.434798725813468, 0};
Point(p18 + 8) = {17.39940664709891, 2.507243336541054, 0};
Point(p18 + 9) = {17.21533032079686, 2.551436152535677, 0};
Point(p18 + 10) = {17.026607, 2.566289, 0};
Point(p18 + 11) = {16.83788367920314, 2.551436152535677, 0};
Point(p18 + 12) = {16.65380735290109, 2.507243336541055, 0};
Point(p18 + 13) = {16.47891059116171, 2.434798725813468, 0};
Point(p18 + 14) = {16.3174999327081, 2.335886147098909, 0};
Point(p18 + 15) = {16.17354984364264, 2.212941156357357, 0};
Point(p18 + 16) = {16.05060485290109, 2.068991067291901, 0};
Point(p18 + 17) = {15.95169227418653, 1.907580408838288, 0};
Point(p18 + 18) = {15.87924766345894, 1.732683647098909, 0};
Point(p18 + 19) = {15.83505484746432, 1.54860732079686, 0};
Point(p18 + 20) = {15.820202, 1.359884, 0};
Point(p18 + 21) = {15.83505484746432, 1.171160679203141, 0};
Point(p18 + 22) = {15.87924766345894, 0.9870843529010913, 0};
Point(p18 + 23) = {15.95169227418653, 0.8121875911617128, 0};
Point(p18 + 24) = {16.05060485290109, 0.6507769327080992, 0};
Point(p18 + 25) = {16.17354984364264, 0.5068268436426433, 0};
Point(p18 + 26) = {16.3174999327081, 0.3838818529010918, 0};
Point(p18 + 27) = {16.47891059116171, 0.2849692741865324, 0};
Point(p18 + 28) = {16.65380735290109, 0.2125246634589455, 0};
Point(p18 + 29) = {16.83788367920314, 0.1683318474643232, 0};
Point(p18 + 30) = {17.026607, 0.1534790000000001, 0};
Point(p18 + 31) = {17.21533032079686, 0.1683318474643229, 0};
Point(p18 + 32) = {17.39940664709891, 0.2125246634589453, 0};
Point(p18 + 33) = {17.57430340883829, 0.284969274186532, 0};
Point(p18 + 34) = {17.7357140672919, 0.3838818529010916, 0};
Point(p18 + 35) = {17.87966415635735, 0.5068268436426431, 0};
Point(p18 + 36) = {18.00260914709891, 0.6507769327080989, 0};
Point(p18 + 37) = {18.10152172581347, 0.8121875911617119, 0};
Point(p18 + 38) = {18.17396633654105, 0.9870843529010914, 0};
Point(p18 + 39) = {18.21815915253568, 1.17116067920314, 0};
Spline(18) = {12, p18 + 1, p18 + 2, p18 + 3, p18 + 4, p18 + 5, p18 + 6, p18 + 7, p18 + 8, p18 + 9, p18 + 10, p18 + 11, p18 + 12, p18 + 13, p18 + 14, p18 + 15, p18 + 16, p18 + 17, p18 + 18, p18 + 19, p18 + 20, p18 + 21, p18 + 22, p18 + 23, p18 + 24, p18 + 25, p18 + 26, p18 + 27, p18 + 28, p18 + 29, p18 + 30, p18 + 31, p18 + 32, p18 + 33, p18 + 34, p18 + 35, p18 + 36, p18 + 37, p18 + 38, p18 + 39, 12};
Line(19) = {14, 13};
Line(20) = {13, 15};
Line(21) = {16, 15};
Line(22) = {14, 16};
Line(23) = {14, 17};
Line(24) = {17, 18};
Line(25) = {13, 18};
Line(26) = {15, 19};
Line(27) = {18, 19};
Line(28) = {16, 20};
Line(29) = {20, 19};
Line(30) = {17, 20};
Curve Loop(7) = {-13, -14, 15, 14};
Surface(7) = {7};
Curve Loop(8) = {13};
Plane Surface(8) = {8};
Curve Loop(9) = {15};
Plane Surface(9) = {9};
Curve Loop(10) = {-16, -17, 18, 17};
Surface(10) = {10};
Curve Loop(11) = {16};
Plane Surface(11) = {11};
Curve Loop(12) = {18};
Plane Surface(12) = {12};
Curve Loop(13) = {-19, 22, 21, -20};
Plane Surface(13) = {13};
Curve Loop(14) = {-23, 19, 25, -24};
Plane Surface(14) = {14};
Curve Loop(15) = {-20, 25, 27, -26};
Plane Surface(15) = {15};
Curve Loop(16) = {-28, 21, 26, -29};
Plane Surface(16) = {16};
Curve Loop(17) = {-22, 23, 30, -28, -15, -18};
Plane Surface(17) = {17};
Curve Loop(18) = {-24, 30, 29, -27};
Plane Surface(18) = {18};
Surface Loop(1) = {13, 14, 15, 16, 17, 18, 7, 10, 8, 11};
Volume(1) = {1};
Surface Loop(2) = {7, 8, 9};
Volume(2) = {2};
Surface Loop(3) = {10, 11, 12};
Volume(3) = {3};
Physical Surface("WALLS") = {13, 18};
Physical Surface("LOAD") = {8, 11};
Physical Surface("BORDER") = {7, 9, 10, 12, 14, 15, 16, 17};
Physical Volume("SOLID") = {1, 2, 3};
