cl__1 = 0.11137;
cl__2 = 0.07828300000000001;
cl__3 = 0.78379;
cl__4 = 0.818794;
cl__5 = 1.958022;
cl__6 = 1.506525;
Point(9) = {14.522954, 3.710182, 0.1, cl__1};
Point(10) = {14.522954, 3.710182, 0, cl__1};
Point(11) = {12.393078, 0.3690709999999998, 0.1, cl__2};
Point(12) = {12.393078, 0.3690709999999998, 0, cl__2};
Point(13) = {0.823688, -3.60504, 0.1, cl__3};
Point(14) = {0.823688, -3.60504, 0, cl__3};
Point(15) = {0.823688, 5.567305999999999, 0.1, cl__4};
Point(16) = {0.823688, 5.567305999999999, 0, cl__4};
Point(17) = {30.088037, -3.60504, 0, cl__5};
Point(18) = {30.088037, -3.60504, 0.1, cl__5};
Point(19) = {30.088037, 5.567305999999999, 0.1, cl__6};
Point(20) = {30.088037, 5.567305999999999, 0, cl__6};
p13 = newp;
Point(p13 + 1) = {14.50924249260915, 3.88440322014977, 0.1};
Point(p13 + 2) = {14.46844559325443, 4.054334535652373, 0.1};
Point(p13 + 3) = {14.40156785699511, 4.215791673550433, 0.1};
Point(p13 + 4) = {14.31025603565237, 4.36479902326338, 0.1};
Point(p13 + 5) = {14.19675852931424, 4.49768752931424, 0.1};
Point(p13 + 6) = {14.06387002326338, 4.611185035652373, 0.1};
Point(p13 + 7) = {13.91486267355043, 4.70249685699511, 0.1};
Point(p13 + 8) = {13.75340553565237, 4.769374593254429, 0.1};
Point(p13 + 9) = {13.58347422014977, 4.810171492609146, 0.1};
Point(p13 + 10) = {13.409253, 4.823883, 0.1};
Point(p13 + 11) = {13.23503177985023, 4.810171492609145, 0.1};
Point(p13 + 12) = {13.06510046434763, 4.76937459325443, 0.1};
Point(p13 + 13) = {12.90364332644957, 4.70249685699511, 0.1};
Point(p13 + 14) = {12.75463597673662, 4.611185035652373, 0.1};
Point(p13 + 15) = {12.62174747068576, 4.49768752931424, 0.1};
Point(p13 + 16) = {12.50824996434763, 4.36479902326338, 0.1};
Point(p13 + 17) = {12.41693814300489, 4.215791673550433, 0.1};
Point(p13 + 18) = {12.35006040674557, 4.054334535652374, 0.1};
Point(p13 + 19) = {12.30926350739085, 3.88440322014977, 0.1};
Point(p13 + 20) = {12.295552, 3.710182, 0.1};
Point(p13 + 21) = {12.30926350739085, 3.53596077985023, 0.1};
Point(p13 + 22) = {12.35006040674557, 3.366029464347626, 0.1};
Point(p13 + 23) = {12.41693814300489, 3.204572326449568, 0.1};
Point(p13 + 24) = {12.50824996434763, 3.05556497673662, 0.1};
Point(p13 + 25) = {12.62174747068576, 2.922676470685761, 0.1};
Point(p13 + 26) = {12.75463597673662, 2.809178964347627, 0.1};
Point(p13 + 27) = {12.90364332644957, 2.717867143004891, 0.1};
Point(p13 + 28) = {13.06510046434763, 2.650989406745571, 0.1};
Point(p13 + 29) = {13.23503177985023, 2.610192507390855, 0.1};
Point(p13 + 30) = {13.409253, 2.596481, 0.1};
Point(p13 + 31) = {13.58347422014977, 2.610192507390854, 0.1};
Point(p13 + 32) = {13.75340553565237, 2.650989406745571, 0.1};
Point(p13 + 33) = {13.91486267355043, 2.717867143004891, 0.1};
Point(p13 + 34) = {14.06387002326338, 2.809178964347627, 0.1};
Point(p13 + 35) = {14.19675852931424, 2.922676470685761, 0.1};
Point(p13 + 36) = {14.31025603565237, 3.05556497673662, 0.1};
Point(p13 + 37) = {14.40156785699511, 3.204572326449567, 0.1};
Point(p13 + 38) = {14.46844559325443, 3.366029464347627, 0.1};
Point(p13 + 39) = {14.50924249260915, 3.535960779850229, 0.1};
Spline(13) = {9, p13 + 1, p13 + 2, p13 + 3, p13 + 4, p13 + 5, p13 + 6, p13 + 7, p13 + 8, p13 + 9, p13 + 10, p13 + 11, p13 + 12, p13 + 13, p13 + 14, p13 + 15, p13 + 16, p13 + 17, p13 + 18, p13 + 19, p13 + 20, p13 + 21, p13 + 22, p13 + 23, p13 + 24, p13 + 25, p13 + 26, p13 + 27, p13 + 28, p13 + 29, p13 + 30, p13 + 31, p13 + 32, p13 + 33, p13 + 34, p13 + 35, p13 + 36, p13 + 37, p13 + 38, p13 + 39, 9};
Line(14) = {10, 9};
p15 = newp;
Point(p15 + 1) = {14.50924249260915, 3.88440322014977, 0};
Point(p15 + 2) = {14.46844559325443, 4.054334535652373, 0};
Point(p15 + 3) = {14.40156785699511, 4.215791673550433, 0};
Point(p15 + 4) = {14.31025603565237, 4.36479902326338, 0};
Point(p15 + 5) = {14.19675852931424, 4.49768752931424, 0};
Point(p15 + 6) = {14.06387002326338, 4.611185035652373, 0};
Point(p15 + 7) = {13.91486267355043, 4.70249685699511, 0};
Point(p15 + 8) = {13.75340553565237, 4.769374593254429, 0};
Point(p15 + 9) = {13.58347422014977, 4.810171492609146, 0};
Point(p15 + 10) = {13.409253, 4.823883, 0};
Point(p15 + 11) = {13.23503177985023, 4.810171492609145, 0};
Point(p15 + 12) = {13.06510046434763, 4.76937459325443, 0};
Point(p15 + 13) = {12.90364332644957, 4.70249685699511, 0};
Point(p15 + 14) = {12.75463597673662, 4.611185035652373, 0};
Point(p15 + 15) = {12.62174747068576, 4.49768752931424, 0};
Point(p15 + 16) = {12.50824996434763, 4.36479902326338, 0};
Point(p15 + 17) = {12.41693814300489, 4.215791673550433, 0};
Point(p15 + 18) = {12.35006040674557, 4.054334535652374, 0};
Point(p15 + 19) = {12.30926350739085, 3.88440322014977, 0};
Point(p15 + 20) = {12.295552, 3.710182, 0};
Point(p15 + 21) = {12.30926350739085, 3.53596077985023, 0};
Point(p15 + 22) = {12.35006040674557, 3.366029464347626, 0};
Point(p15 + 23) = {12.41693814300489, 3.204572326449568, 0};
Point(p15 + 24) = {12.50824996434763, 3.05556497673662, 0};
Point(p15 + 25) = {12.62174747068576, 2.922676470685761, 0};
Point(p15 + 26) = {12.75463597673662, 2.809178964347627, 0};
Point(p15 + 27) = {12.90364332644957, 2.717867143004891, 0};
Point(p15 + 28) = {13.06510046434763, 2.650989406745571, 0};
Point(p15 + 29) = {13.23503177985023, 2.610192507390855, 0};
Point(p15 + 30) = {13.409253, 2.596481, 0};
Point(p15 + 31) = {13.58347422014977, 2.610192507390854, 0};
Point(p15 + 32) = {13.75340553565237, 2.650989406745571, 0};
Point(p15 + 33) = {13.91486267355043, 2.717867143004891, 0};
Point(p15 + 34) = {14.06387002326338, 2.809178964347627, 0};
Point(p15 + 35) = {14.19675852931424, 2.922676470685761, 0};
Point(p15 + 36) = {14.31025603565237, 3.05556497673662, 0};
Point(p15 + 37) = {14.40156785699511, 3.204572326449567, 0};
Point(p15 + 38) = {14.46844559325443, 3.366029464347627, 0};
Point(p15 + 39) = {14.50924249260915, 3.535960779850229, 0};
Spline(15) = {10, p15 + 1, p15 + 2, p15 + 3, p15 + 4, p15 + 5, p15 + 6, p15 + 7, p15 + 8, p15 + 9, p15 + 10, p15 + 11, p15 + 12, p15 + 13, p15 + 14, p15 + 15, p15 + 16, p15 + 17, p15 + 18, p15 + 19, p15 + 20, p15 + 21, p15 + 22, p15 + 23, p15 + 24, p15 + 25, p15 + 26, p15 + 27, p15 + 28, p15 + 29, p15 + 30, p15 + 31, p15 + 32, p15 + 33, p15 + 34, p15 + 35, p15 + 36, p15 + 37, p15 + 38, p15 + 39, 10};
p16 = newp;
Point(p16 + 1) = {12.38344007597975, 0.4915324358329789, 0.1};
Point(p16 + 2) = {12.35476362159482, 0.6109784646895456, 0.1};
Point(p16 + 3) = {12.30775474632386, 0.7244679289206096, 0.1};
Point(p16 + 4) = {12.24357096468955, 0.8292063412668644, 0.1};
Point(p16 + 5) = {12.16379269440948, 0.9226146944094837, 0.1};
Point(p16 + 6) = {12.07038434126686, 1.002392964689546, 0.1};
Point(p16 + 7) = {11.96564592892061, 1.066576746323856, 0.1};
Point(p16 + 8) = {11.85215646468954, 1.113585621594819, 0.1};
Point(p16 + 9) = {11.73271043583298, 1.142262075979751, 0.1};
Point(p16 + 10) = {11.610249, 1.1519, 0.1};
Point(p16 + 11) = {11.48778756416702, 1.142262075979751, 0.1};
Point(p16 + 12) = {11.36834153531045, 1.113585621594819, 0.1};
Point(p16 + 13) = {11.25485207107939, 1.066576746323856, 0.1};
Point(p16 + 14) = {11.15011365873313, 1.002392964689546, 0.1};
Point(p16 + 15) = {11.05670530559052, 0.9226146944094837, 0.1};
Point(p16 + 16) = {10.97692703531045, 0.8292063412668645, 0.1};
Point(p16 + 17) = {10.91274325367614, 0.7244679289206097, 0.1};
Point(p16 + 18) = {10.86573437840518, 0.6109784646895458, 0.1};
Point(p16 + 19) = {10.83705792402025, 0.491532435832979, 0.1};
Point(p16 + 20) = {10.82742, 0.3690710000000001, 0.1};
Point(p16 + 21) = {10.83705792402025, 0.2466095641670212, 0.1};
Point(p16 + 22) = {10.86573437840518, 0.127163535310454, 0.1};
Point(p16 + 23) = {10.91274325367614, 0.01367407107939067, 0.1};
Point(p16 + 24) = {10.97692703531045, -0.09106434126686436, 0.1};
Point(p16 + 25) = {11.05670530559052, -0.1844726944094838, 0.1};
Point(p16 + 26) = {11.15011365873313, -0.2642509646895456, 0.1};
Point(p16 + 27) = {11.25485207107939, -0.3284347463238558, 0.1};
Point(p16 + 28) = {11.36834153531045, -0.3754436215948188, 0.1};
Point(p16 + 29) = {11.48778756416702, -0.404120075979751, 0.1};
Point(p16 + 30) = {11.610249, -0.413758, 0.1};
Point(p16 + 31) = {11.73271043583298, -0.4041200759797511, 0.1};
Point(p16 + 32) = {11.85215646468954, -0.3754436215948189, 0.1};
Point(p16 + 33) = {11.96564592892061, -0.328434746323856, 0.1};
Point(p16 + 34) = {12.07038434126686, -0.2642509646895458, 0.1};
Point(p16 + 35) = {12.16379269440948, -0.1844726944094839, 0.1};
Point(p16 + 36) = {12.24357096468955, -0.09106434126686458, 0.1};
Point(p16 + 37) = {12.30775474632386, 0.01367407107939017, 0.1};
Point(p16 + 38) = {12.35476362159482, 0.1271635353104541, 0.1};
Point(p16 + 39) = {12.38344007597975, 0.2466095641670209, 0.1};
Spline(16) = {11, p16 + 1, p16 + 2, p16 + 3, p16 + 4, p16 + 5, p16 + 6, p16 + 7, p16 + 8, p16 + 9, p16 + 10, p16 + 11, p16 + 12, p16 + 13, p16 + 14, p16 + 15, p16 + 16, p16 + 17, p16 + 18, p16 + 19, p16 + 20, p16 + 21, p16 + 22, p16 + 23, p16 + 24, p16 + 25, p16 + 26, p16 + 27, p16 + 28, p16 + 29, p16 + 30, p16 + 31, p16 + 32, p16 + 33, p16 + 34, p16 + 35, p16 + 36, p16 + 37, p16 + 38, p16 + 39, 11};
Line(17) = {12, 11};
p18 = newp;
Point(p18 + 1) = {12.38344007597975, 0.4915324358329789, 0};
Point(p18 + 2) = {12.35476362159482, 0.6109784646895456, 0};
Point(p18 + 3) = {12.30775474632386, 0.7244679289206096, 0};
Point(p18 + 4) = {12.24357096468955, 0.8292063412668644, 0};
Point(p18 + 5) = {12.16379269440948, 0.9226146944094837, 0};
Point(p18 + 6) = {12.07038434126686, 1.002392964689546, 0};
Point(p18 + 7) = {11.96564592892061, 1.066576746323856, 0};
Point(p18 + 8) = {11.85215646468954, 1.113585621594819, 0};
Point(p18 + 9) = {11.73271043583298, 1.142262075979751, 0};
Point(p18 + 10) = {11.610249, 1.1519, 0};
Point(p18 + 11) = {11.48778756416702, 1.142262075979751, 0};
Point(p18 + 12) = {11.36834153531045, 1.113585621594819, 0};
Point(p18 + 13) = {11.25485207107939, 1.066576746323856, 0};
Point(p18 + 14) = {11.15011365873313, 1.002392964689546, 0};
Point(p18 + 15) = {11.05670530559052, 0.9226146944094837, 0};
Point(p18 + 16) = {10.97692703531045, 0.8292063412668645, 0};
Point(p18 + 17) = {10.91274325367614, 0.7244679289206097, 0};
Point(p18 + 18) = {10.86573437840518, 0.6109784646895458, 0};
Point(p18 + 19) = {10.83705792402025, 0.491532435832979, 0};
Point(p18 + 20) = {10.82742, 0.3690710000000001, 0};
Point(p18 + 21) = {10.83705792402025, 0.2466095641670212, 0};
Point(p18 + 22) = {10.86573437840518, 0.127163535310454, 0};
Point(p18 + 23) = {10.91274325367614, 0.01367407107939067, 0};
Point(p18 + 24) = {10.97692703531045, -0.09106434126686436, 0};
Point(p18 + 25) = {11.05670530559052, -0.1844726944094838, 0};
Point(p18 + 26) = {11.15011365873313, -0.2642509646895456, 0};
Point(p18 + 27) = {11.25485207107939, -0.3284347463238558, 0};
Point(p18 + 28) = {11.36834153531045, -0.3754436215948188, 0};
Point(p18 + 29) = {11.48778756416702, -0.404120075979751, 0};
Point(p18 + 30) = {11.610249, -0.413758, 0};
Point(p18 + 31) = {11.73271043583298, -0.4041200759797511, 0};
Point(p18 + 32) = {11.85215646468954, -0.3754436215948189, 0};
Point(p18 + 33) = {11.96564592892061, -0.328434746323856, 0};
Point(p18 + 34) = {12.07038434126686, -0.2642509646895458, 0};
Point(p18 + 35) = {12.16379269440948, -0.1844726944094839, 0};
Point(p18 + 36) = {12.24357096468955, -0.09106434126686458, 0};
Point(p18 + 37) = {12.30775474632386, 0.01367407107939017, 0};
Point(p18 + 38) = {12.35476362159482, 0.1271635353104541, 0};
Point(p18 + 39) = {12.38344007597975, 0.2466095641670209, 0};
Spline(18) = {12, p18 + 1, p18 + 2, p18 + 3, p18 + 4, p18 + 5, p18 + 6, p18 + 7, p18 + 8, p18 + 9, p18 + 10, p18 + 11, p18 + 12, p18 + 13, p18 + 14, p18 + 15, p18 + 16, p18 + 17, p18 + 18, p18 + 19, p18 + 20, p18 + 21, p18 + 22, p18 + 23, p18 + 24, p18 + 25, p18 + 26, p18 + 27, p18 + 28, p18 + 29, p18 + 30, p18 + 31, p18 + 32, p18 + 33, p18 + 34, p18 + 35, p18 + 36, p18 + 37, p18 + 38, p18 + 39, 12};
Line(19) = {14, 13};
Line(20) = {13, 15};
Line(21) = {16, 15};
Line(22) = {14, 16};
Line(23) = {14, 17};
Line(24) = {17, 18};
Line(25) = {13, 18};
Line(26) = {15, 19};
Line(27) = {18, 19};
Line(28) = {16, 20};
Line(29) = {20, 19};
Line(30) = {17, 20};
Curve Loop(7) = {-13, -14, 15, 14};
Surface(7) = {7};
Curve Loop(8) = {13};
Plane Surface(8) = {8};
Curve Loop(9) = {15};
Plane Surface(9) = {9};
Curve Loop(10) = {-16, -17, 18, 17};
Surface(10) = {10};
Curve Loop(11) = {16};
Plane Surface(11) = {11};
Curve Loop(12) = {18};
Plane Surface(12) = {12};
Curve Loop(13) = {-19, 22, 21, -20};
Plane Surface(13) = {13};
Curve Loop(14) = {-23, 19, 25, -24};
Plane Surface(14) = {14};
Curve Loop(15) = {-20, 25, 27, -26, -16, -13};
Plane Surface(15) = {15};
Curve Loop(16) = {-28, 21, 26, -29};
Plane Surface(16) = {16};
Curve Loop(17) = {-22, 23, 30, -28, -18, -15};
Plane Surface(17) = {17};
Curve Loop(18) = {-24, 30, 29, -27};
Plane Surface(18) = {18};
Surface Loop(1) = {13, 14, 15, 16, 17, 18, 10, 7};
Volume(1) = {1};
Surface Loop(2) = {7, 8, 9};
Volume(2) = {2};
Surface Loop(3) = {10, 11, 12};
Volume(3) = {3};
Physical Surface("WALLS") = {13, 18};
Physical Surface("LOAD") = {8, 11};
Physical Surface("BORDER") = {7, 9, 10, 12, 14, 15, 16, 17};
Physical Volume("SOLID") = {1, 2, 3};
