cl__1 = 0.105928;
cl__2 = 0.139269;
cl__3 = 2.933804;
cl__4 = 2.536399;
cl__5 = 0.489068;
cl__6 = 0.715605;
Point(9) = {27.649219, -1.657791, 0.1, cl__1};
Point(10) = {27.649219, -1.657791, 0, cl__1};
Point(11) = {16.447879, 1.3004, 0.1, cl__2};
Point(12) = {16.447879, 1.3004, 0, cl__2};
Point(13) = {0.755244, -4.090285, 1, cl__3};
Point(14) = {0.755244, -4.090285, 0, cl__3};
Point(15) = {0.755244, 4.364139, 1, cl__4};
Point(16) = {0.755244, 4.364139, 0, cl__4};
Point(17) = {31.860064, -4.090285, 0, cl__5};
Point(18) = {31.860064, -4.090285, 1, cl__5};
Point(19) = {31.860064, 4.364139, 1, cl__6};
Point(20) = {31.860064, 4.364139, 0, cl__6};
p13 = newp;
Point(p13 + 1) = {27.63617749311396, -1.492082943437719, 0.1};
Point(p13 + 2) = {27.59737409763765, -1.330455169181511, 0.1};
Point(p13 + 3) = {27.53376428194878, -1.176887489445393, 0.1};
Point(p13 + 4) = {27.44691433081849, -1.035161250166377, 0.1};
Point(p13 + 5) = {27.33896277828207, -0.9087662217179329, 0.1};
Point(p13 + 6) = {27.21256774983362, -0.8008146691815115, 0.1};
Point(p13 + 7) = {27.07084151055461, -0.7139647180512216, 0.1};
Point(p13 + 8) = {26.91727383081849, -0.6503549023623536, 0.1};
Point(p13 + 9) = {26.75564605656228, -0.611551506886042, 0.1};
Point(p13 + 10) = {26.589938, -0.5985100000000001, 0.1};
Point(p13 + 11) = {26.42422994343772, -0.611551506886042, 0.1};
Point(p13 + 12) = {26.26260216918151, -0.6503549023623534, 0.1};
Point(p13 + 13) = {26.10903448944539, -0.7139647180512215, 0.1};
Point(p13 + 14) = {25.96730825016638, -0.8008146691815113, 0.1};
Point(p13 + 15) = {25.84091322171793, -0.9087662217179328, 0.1};
Point(p13 + 16) = {25.73296166918151, -1.035161250166377, 0.1};
Point(p13 + 17) = {25.64611171805122, -1.176887489445393, 0.1};
Point(p13 + 18) = {25.58250190236235, -1.330455169181511, 0.1};
Point(p13 + 19) = {25.54369850688604, -1.492082943437719, 0.1};
Point(p13 + 20) = {25.530657, -1.657791, 0.1};
Point(p13 + 21) = {25.54369850688604, -1.823499056562281, 0.1};
Point(p13 + 22) = {25.58250190236235, -1.985126830818489, 0.1};
Point(p13 + 23) = {25.64611171805122, -2.138694510554606, 0.1};
Point(p13 + 24) = {25.73296166918151, -2.280420749833623, 0.1};
Point(p13 + 25) = {25.84091322171793, -2.406815778282067, 0.1};
Point(p13 + 26) = {25.96730825016638, -2.514767330818489, 0.1};
Point(p13 + 27) = {26.10903448944539, -2.601617281948778, 0.1};
Point(p13 + 28) = {26.26260216918151, -2.665227097637646, 0.1};
Point(p13 + 29) = {26.42422994343772, -2.704030493113958, 0.1};
Point(p13 + 30) = {26.589938, -2.717072, 0.1};
Point(p13 + 31) = {26.75564605656228, -2.704030493113958, 0.1};
Point(p13 + 32) = {26.91727383081849, -2.665227097637647, 0.1};
Point(p13 + 33) = {27.07084151055461, -2.601617281948779, 0.1};
Point(p13 + 34) = {27.21256774983362, -2.514767330818489, 0.1};
Point(p13 + 35) = {27.33896277828207, -2.406815778282067, 0.1};
Point(p13 + 36) = {27.44691433081849, -2.280420749833623, 0.1};
Point(p13 + 37) = {27.53376428194878, -2.138694510554607, 0.1};
Point(p13 + 38) = {27.59737409763765, -1.985126830818489, 0.1};
Point(p13 + 39) = {27.63617749311396, -1.823499056562281, 0.1};
Spline(13) = {9, p13 + 1, p13 + 2, p13 + 3, p13 + 4, p13 + 5, p13 + 6, p13 + 7, p13 + 8, p13 + 9, p13 + 10, p13 + 11, p13 + 12, p13 + 13, p13 + 14, p13 + 15, p13 + 16, p13 + 17, p13 + 18, p13 + 19, p13 + 20, p13 + 21, p13 + 22, p13 + 23, p13 + 24, p13 + 25, p13 + 26, p13 + 27, p13 + 28, p13 + 29, p13 + 30, p13 + 31, p13 + 32, p13 + 33, p13 + 34, p13 + 35, p13 + 36, p13 + 37, p13 + 38, p13 + 39, 9};
Line(14) = {10, 9};
p15 = newp;
Point(p15 + 1) = {27.63617749311396, -1.492082943437719, 0};
Point(p15 + 2) = {27.59737409763765, -1.330455169181511, 0};
Point(p15 + 3) = {27.53376428194878, -1.176887489445393, 0};
Point(p15 + 4) = {27.44691433081849, -1.035161250166377, 0};
Point(p15 + 5) = {27.33896277828207, -0.9087662217179329, 0};
Point(p15 + 6) = {27.21256774983362, -0.8008146691815115, 0};
Point(p15 + 7) = {27.07084151055461, -0.7139647180512216, 0};
Point(p15 + 8) = {26.91727383081849, -0.6503549023623536, 0};
Point(p15 + 9) = {26.75564605656228, -0.611551506886042, 0};
Point(p15 + 10) = {26.589938, -0.5985100000000001, 0};
Point(p15 + 11) = {26.42422994343772, -0.611551506886042, 0};
Point(p15 + 12) = {26.26260216918151, -0.6503549023623534, 0};
Point(p15 + 13) = {26.10903448944539, -0.7139647180512215, 0};
Point(p15 + 14) = {25.96730825016638, -0.8008146691815113, 0};
Point(p15 + 15) = {25.84091322171793, -0.9087662217179328, 0};
Point(p15 + 16) = {25.73296166918151, -1.035161250166377, 0};
Point(p15 + 17) = {25.64611171805122, -1.176887489445393, 0};
Point(p15 + 18) = {25.58250190236235, -1.330455169181511, 0};
Point(p15 + 19) = {25.54369850688604, -1.492082943437719, 0};
Point(p15 + 20) = {25.530657, -1.657791, 0};
Point(p15 + 21) = {25.54369850688604, -1.823499056562281, 0};
Point(p15 + 22) = {25.58250190236235, -1.985126830818489, 0};
Point(p15 + 23) = {25.64611171805122, -2.138694510554606, 0};
Point(p15 + 24) = {25.73296166918151, -2.280420749833623, 0};
Point(p15 + 25) = {25.84091322171793, -2.406815778282067, 0};
Point(p15 + 26) = {25.96730825016638, -2.514767330818489, 0};
Point(p15 + 27) = {26.10903448944539, -2.601617281948778, 0};
Point(p15 + 28) = {26.26260216918151, -2.665227097637646, 0};
Point(p15 + 29) = {26.42422994343772, -2.704030493113958, 0};
Point(p15 + 30) = {26.589938, -2.717072, 0};
Point(p15 + 31) = {26.75564605656228, -2.704030493113958, 0};
Point(p15 + 32) = {26.91727383081849, -2.665227097637647, 0};
Point(p15 + 33) = {27.07084151055461, -2.601617281948779, 0};
Point(p15 + 34) = {27.21256774983362, -2.514767330818489, 0};
Point(p15 + 35) = {27.33896277828207, -2.406815778282067, 0};
Point(p15 + 36) = {27.44691433081849, -2.280420749833623, 0};
Point(p15 + 37) = {27.53376428194878, -2.138694510554607, 0};
Point(p15 + 38) = {27.59737409763765, -1.985126830818489, 0};
Point(p15 + 39) = {27.63617749311396, -1.823499056562281, 0};
Spline(15) = {10, p15 + 1, p15 + 2, p15 + 3, p15 + 4, p15 + 5, p15 + 6, p15 + 7, p15 + 8, p15 + 9, p15 + 10, p15 + 11, p15 + 12, p15 + 13, p15 + 14, p15 + 15, p15 + 16, p15 + 17, p15 + 18, p15 + 19, p15 + 20, p15 + 21, p15 + 22, p15 + 23, p15 + 24, p15 + 25, p15 + 26, p15 + 27, p15 + 28, p15 + 29, p15 + 30, p15 + 31, p15 + 32, p15 + 33, p15 + 34, p15 + 35, p15 + 36, p15 + 37, p15 + 38, p15 + 39, 10};
p16 = newp;
Point(p16 + 1) = {16.43073271199842, 1.518264245813484, 0.1};
Point(p16 + 2) = {16.37971604650955, 1.730763950845062, 0.1};
Point(p16 + 3) = {16.29608520315233, 1.93266666711077, 0.1};
Point(p16 + 4) = {16.18189945084506, 2.119000879659447, 0.1};
Point(p16 + 5) = {16.03997042177035, 2.285178421770349, 0.1};
Point(p16 + 6) = {15.87379287965945, 2.427107450845062, 0.1};
Point(p16 + 7) = {15.68745866711077, 2.541293203152326, 0.1};
Point(p16 + 8) = {15.48555595084506, 2.624924046509548, 0.1};
Point(p16 + 9) = {15.27305624581348, 2.675940711998421, 0.1};
Point(p16 + 10) = {15.055192, 2.693087, 0.1};
Point(p16 + 11) = {14.83732775418652, 2.67594071199842, 0.1};
Point(p16 + 12) = {14.62482804915494, 2.624924046509549, 0.1};
Point(p16 + 13) = {14.42292533288923, 2.541293203152326, 0.1};
Point(p16 + 14) = {14.23659112034055, 2.427107450845063, 0.1};
Point(p16 + 15) = {14.07041357822965, 2.285178421770349, 0.1};
Point(p16 + 16) = {13.92848454915494, 2.119000879659448, 0.1};
Point(p16 + 17) = {13.81429879684767, 1.93266666711077, 0.1};
Point(p16 + 18) = {13.73066795349045, 1.730763950845063, 0.1};
Point(p16 + 19) = {13.67965128800158, 1.518264245813484, 0.1};
Point(p16 + 20) = {13.662505, 1.3004, 0.1};
Point(p16 + 21) = {13.67965128800158, 1.082535754186516, 0.1};
Point(p16 + 22) = {13.73066795349045, 0.8700360491549372, 0.1};
Point(p16 + 23) = {13.81429879684767, 0.6681333328892305, 0.1};
Point(p16 + 24) = {13.92848454915494, 0.4817991203405526, 0.1};
Point(p16 + 25) = {14.07041357822965, 0.3156215782296508, 0.1};
Point(p16 + 26) = {14.23659112034055, 0.1736925491549377, 0.1};
Point(p16 + 27) = {14.42292533288923, 0.05950679684767457, 0.1};
Point(p16 + 28) = {14.62482804915494, -0.02412404650954847, 0.1};
Point(p16 + 29) = {14.83732775418652, -0.07514071199842043, 0.1};
Point(p16 + 30) = {15.055192, -0.09228700000000001, 0.1};
Point(p16 + 31) = {15.27305624581348, -0.07514071199842065, 0.1};
Point(p16 + 32) = {15.48555595084506, -0.02412404650954869, 0.1};
Point(p16 + 33) = {15.68745866711077, 0.05950679684767435, 0.1};
Point(p16 + 34) = {15.87379287965945, 0.1736925491549375, 0.1};
Point(p16 + 35) = {16.03997042177035, 0.3156215782296504, 0.1};
Point(p16 + 36) = {16.18189945084506, 0.4817991203405523, 0.1};
Point(p16 + 37) = {16.29608520315233, 0.6681333328892295, 0.1};
Point(p16 + 38) = {16.37971604650955, 0.8700360491549373, 0.1};
Point(p16 + 39) = {16.43073271199842, 1.082535754186516, 0.1};
Spline(16) = {11, p16 + 1, p16 + 2, p16 + 3, p16 + 4, p16 + 5, p16 + 6, p16 + 7, p16 + 8, p16 + 9, p16 + 10, p16 + 11, p16 + 12, p16 + 13, p16 + 14, p16 + 15, p16 + 16, p16 + 17, p16 + 18, p16 + 19, p16 + 20, p16 + 21, p16 + 22, p16 + 23, p16 + 24, p16 + 25, p16 + 26, p16 + 27, p16 + 28, p16 + 29, p16 + 30, p16 + 31, p16 + 32, p16 + 33, p16 + 34, p16 + 35, p16 + 36, p16 + 37, p16 + 38, p16 + 39, 11};
Line(17) = {12, 11};
p18 = newp;
Point(p18 + 1) = {16.43073271199842, 1.518264245813484, 0};
Point(p18 + 2) = {16.37971604650955, 1.730763950845062, 0};
Point(p18 + 3) = {16.29608520315233, 1.93266666711077, 0};
Point(p18 + 4) = {16.18189945084506, 2.119000879659447, 0};
Point(p18 + 5) = {16.03997042177035, 2.285178421770349, 0};
Point(p18 + 6) = {15.87379287965945, 2.427107450845062, 0};
Point(p18 + 7) = {15.68745866711077, 2.541293203152326, 0};
Point(p18 + 8) = {15.48555595084506, 2.624924046509548, 0};
Point(p18 + 9) = {15.27305624581348, 2.675940711998421, 0};
Point(p18 + 10) = {15.055192, 2.693087, 0};
Point(p18 + 11) = {14.83732775418652, 2.67594071199842, 0};
Point(p18 + 12) = {14.62482804915494, 2.624924046509549, 0};
Point(p18 + 13) = {14.42292533288923, 2.541293203152326, 0};
Point(p18 + 14) = {14.23659112034055, 2.427107450845063, 0};
Point(p18 + 15) = {14.07041357822965, 2.285178421770349, 0};
Point(p18 + 16) = {13.92848454915494, 2.119000879659448, 0};
Point(p18 + 17) = {13.81429879684767, 1.93266666711077, 0};
Point(p18 + 18) = {13.73066795349045, 1.730763950845063, 0};
Point(p18 + 19) = {13.67965128800158, 1.518264245813484, 0};
Point(p18 + 20) = {13.662505, 1.3004, 0};
Point(p18 + 21) = {13.67965128800158, 1.082535754186516, 0};
Point(p18 + 22) = {13.73066795349045, 0.8700360491549372, 0};
Point(p18 + 23) = {13.81429879684767, 0.6681333328892305, 0};
Point(p18 + 24) = {13.92848454915494, 0.4817991203405526, 0};
Point(p18 + 25) = {14.07041357822965, 0.3156215782296508, 0};
Point(p18 + 26) = {14.23659112034055, 0.1736925491549377, 0};
Point(p18 + 27) = {14.42292533288923, 0.05950679684767457, 0};
Point(p18 + 28) = {14.62482804915494, -0.02412404650954847, 0};
Point(p18 + 29) = {14.83732775418652, -0.07514071199842043, 0};
Point(p18 + 30) = {15.055192, -0.09228700000000001, 0};
Point(p18 + 31) = {15.27305624581348, -0.07514071199842065, 0};
Point(p18 + 32) = {15.48555595084506, -0.02412404650954869, 0};
Point(p18 + 33) = {15.68745866711077, 0.05950679684767435, 0};
Point(p18 + 34) = {15.87379287965945, 0.1736925491549375, 0};
Point(p18 + 35) = {16.03997042177035, 0.3156215782296504, 0};
Point(p18 + 36) = {16.18189945084506, 0.4817991203405523, 0};
Point(p18 + 37) = {16.29608520315233, 0.6681333328892295, 0};
Point(p18 + 38) = {16.37971604650955, 0.8700360491549373, 0};
Point(p18 + 39) = {16.43073271199842, 1.082535754186516, 0};
Spline(18) = {12, p18 + 1, p18 + 2, p18 + 3, p18 + 4, p18 + 5, p18 + 6, p18 + 7, p18 + 8, p18 + 9, p18 + 10, p18 + 11, p18 + 12, p18 + 13, p18 + 14, p18 + 15, p18 + 16, p18 + 17, p18 + 18, p18 + 19, p18 + 20, p18 + 21, p18 + 22, p18 + 23, p18 + 24, p18 + 25, p18 + 26, p18 + 27, p18 + 28, p18 + 29, p18 + 30, p18 + 31, p18 + 32, p18 + 33, p18 + 34, p18 + 35, p18 + 36, p18 + 37, p18 + 38, p18 + 39, 12};
Line(19) = {14, 13};
Line(20) = {13, 15};
Line(21) = {16, 15};
Line(22) = {14, 16};
Line(23) = {14, 17};
Line(24) = {17, 18};
Line(25) = {13, 18};
Line(26) = {15, 19};
Line(27) = {18, 19};
Line(28) = {16, 20};
Line(29) = {20, 19};
Line(30) = {17, 20};
Curve Loop(7) = {-13, -14, 15, 14};
Surface(7) = {7};
Curve Loop(8) = {13};
Plane Surface(8) = {8};
Curve Loop(9) = {15};
Plane Surface(9) = {9};
Curve Loop(10) = {-16, -17, 18, 17};
Surface(10) = {10};
Curve Loop(11) = {16};
Plane Surface(11) = {11};
Curve Loop(12) = {18};
Plane Surface(12) = {12};
Curve Loop(13) = {-19, 22, 21, -20};
Plane Surface(13) = {13};
Curve Loop(14) = {-23, 19, 25, -24};
Plane Surface(14) = {14};
Curve Loop(15) = {-20, 25, 27, -26};
Plane Surface(15) = {15};
Curve Loop(16) = {-28, 21, 26, -29};
Plane Surface(16) = {16};
Curve Loop(17) = {-22, 23, 30, -28, -15, -18};
Plane Surface(17) = {17};
Curve Loop(18) = {-24, 30, 29, -27};
Plane Surface(18) = {18};
Surface Loop(1) = {13, 14, 15, 16, 17, 18, 7, 10, 8, 11};
Volume(1) = {1};
Surface Loop(2) = {7, 8, 9};
Volume(2) = {2};
Surface Loop(3) = {10, 11, 12};
Volume(3) = {3};
Physical Surface("WALLS") = {13, 18};
Physical Surface("LOAD") = {8, 11};
Physical Surface("BORDER") = {7, 9, 10, 12, 14, 15, 16, 17};
Physical Volume("SOLID") = {1, 2, 3};
