cl__1 = 0.088088;
cl__2 = 0.080003;
cl__3 = 0.8482499999999999;
cl__4 = 0.947638;
cl__5 = 1.850148;
cl__6 = 0.976478;
Point(9) = {8.264271000000001, -0.6059460000000002, 0.1, cl__1};
Point(10) = {8.264271000000001, -0.6059460000000002, 0, cl__1};
Point(11) = {23.361781, 2.5508, 0.1, cl__2};
Point(12) = {23.361781, 2.5508, 0, cl__2};
Point(13) = {0.27963, -4.289977, 1, cl__3};
Point(14) = {0.27963, -4.289977, 0, cl__3};
Point(15) = {0.27963, 4.649754999999999, 1, cl__4};
Point(16) = {0.27963, 4.649754999999999, 0, cl__4};
Point(17) = {31.311392, -4.289977, 0, cl__5};
Point(18) = {31.311392, -4.289977, 1, cl__5};
Point(19) = {31.311392, 4.649754999999999, 1, cl__6};
Point(20) = {31.311392, 4.649754999999999, 0, cl__6};
p13 = newp;
Point(p13 + 1) = {8.253425868528467, -0.4681455391319663, 0.1};
Point(p13 + 2) = {8.221157517243624, -0.3337381829440132, 0.1};
Point(p13 + 3) = {8.168260500046623, -0.2060334866179289, 0.1};
Point(p13 + 4) = {8.096037317055988, -0.08817596360484936, 0.1};
Point(p13 + 5) = {8.00626634273195, 0.01693234273194943, 0.1};
Point(p13 + 6) = {7.901158036395151, 0.1067033170559867, 0.1};
Point(p13 + 7) = {7.783300513382072, 0.1789265000466219, 0.1};
Point(p13 + 8) = {7.655595817055987, 0.2318235172436237, 0.1};
Point(p13 + 9) = {7.521188460868034, 0.2640918685284668, 0.1};
Point(p13 + 10) = {7.383388, 0.274937, 0.1};
Point(p13 + 11) = {7.245587539131966, 0.2640918685284667, 0.1};
Point(p13 + 12) = {7.111180182944013, 0.2318235172436238, 0.1};
Point(p13 + 13) = {6.983475486617928, 0.178926500046622, 0.1};
Point(p13 + 14) = {6.86561796360485, 0.1067033170559868, 0.1};
Point(p13 + 15) = {6.760509657268051, 0.01693234273194955, 0.1};
Point(p13 + 16) = {6.670738682944013, -0.08817596360484925, 0.1};
Point(p13 + 17) = {6.598515499953378, -0.2060334866179288, 0.1};
Point(p13 + 18) = {6.545618482756376, -0.3337381829440131, 0.1};
Point(p13 + 19) = {6.513350131471533, -0.4681455391319662, 0.1};
Point(p13 + 20) = {6.502505, -0.6059459999999999, 0.1};
Point(p13 + 21) = {6.513350131471533, -0.7437464608680335, 0.1};
Point(p13 + 22) = {6.545618482756376, -0.8781538170559871, 0.1};
Point(p13 + 23) = {6.598515499953378, -1.005858513382071, 0.1};
Point(p13 + 24) = {6.670738682944013, -1.12371603639515, 0.1};
Point(p13 + 25) = {6.760509657268051, -1.228824342731949, 0.1};
Point(p13 + 26) = {6.86561796360485, -1.318595317055987, 0.1};
Point(p13 + 27) = {6.983475486617928, -1.390818500046622, 0.1};
Point(p13 + 28) = {7.111180182944013, -1.443715517243624, 0.1};
Point(p13 + 29) = {7.245587539131966, -1.475983868528467, 0.1};
Point(p13 + 30) = {7.383388, -1.486829, 0.1};
Point(p13 + 31) = {7.521188460868034, -1.475983868528467, 0.1};
Point(p13 + 32) = {7.655595817055986, -1.443715517243624, 0.1};
Point(p13 + 33) = {7.783300513382071, -1.390818500046622, 0.1};
Point(p13 + 34) = {7.901158036395151, -1.318595317055987, 0.1};
Point(p13 + 35) = {8.00626634273195, -1.22882434273195, 0.1};
Point(p13 + 36) = {8.096037317055988, -1.123716036395151, 0.1};
Point(p13 + 37) = {8.168260500046621, -1.005858513382071, 0.1};
Point(p13 + 38) = {8.221157517243624, -0.8781538170559869, 0.1};
Point(p13 + 39) = {8.253425868528467, -0.7437464608680339, 0.1};
Spline(13) = {9, p13 + 1, p13 + 2, p13 + 3, p13 + 4, p13 + 5, p13 + 6, p13 + 7, p13 + 8, p13 + 9, p13 + 10, p13 + 11, p13 + 12, p13 + 13, p13 + 14, p13 + 15, p13 + 16, p13 + 17, p13 + 18, p13 + 19, p13 + 20, p13 + 21, p13 + 22, p13 + 23, p13 + 24, p13 + 25, p13 + 26, p13 + 27, p13 + 28, p13 + 29, p13 + 30, p13 + 31, p13 + 32, p13 + 33, p13 + 34, p13 + 35, p13 + 36, p13 + 37, p13 + 38, p13 + 39, 9};
Line(14) = {10, 9};
p15 = newp;
Point(p15 + 1) = {8.253425868528467, -0.4681455391319663, 0};
Point(p15 + 2) = {8.221157517243624, -0.3337381829440132, 0};
Point(p15 + 3) = {8.168260500046623, -0.2060334866179289, 0};
Point(p15 + 4) = {8.096037317055988, -0.08817596360484936, 0};
Point(p15 + 5) = {8.00626634273195, 0.01693234273194943, 0};
Point(p15 + 6) = {7.901158036395151, 0.1067033170559867, 0};
Point(p15 + 7) = {7.783300513382072, 0.1789265000466219, 0};
Point(p15 + 8) = {7.655595817055987, 0.2318235172436237, 0};
Point(p15 + 9) = {7.521188460868034, 0.2640918685284668, 0};
Point(p15 + 10) = {7.383388, 0.274937, 0};
Point(p15 + 11) = {7.245587539131966, 0.2640918685284667, 0};
Point(p15 + 12) = {7.111180182944013, 0.2318235172436238, 0};
Point(p15 + 13) = {6.983475486617928, 0.178926500046622, 0};
Point(p15 + 14) = {6.86561796360485, 0.1067033170559868, 0};
Point(p15 + 15) = {6.760509657268051, 0.01693234273194955, 0};
Point(p15 + 16) = {6.670738682944013, -0.08817596360484925, 0};
Point(p15 + 17) = {6.598515499953378, -0.2060334866179288, 0};
Point(p15 + 18) = {6.545618482756376, -0.3337381829440131, 0};
Point(p15 + 19) = {6.513350131471533, -0.4681455391319662, 0};
Point(p15 + 20) = {6.502505, -0.6059459999999999, 0};
Point(p15 + 21) = {6.513350131471533, -0.7437464608680335, 0};
Point(p15 + 22) = {6.545618482756376, -0.8781538170559871, 0};
Point(p15 + 23) = {6.598515499953378, -1.005858513382071, 0};
Point(p15 + 24) = {6.670738682944013, -1.12371603639515, 0};
Point(p15 + 25) = {6.760509657268051, -1.228824342731949, 0};
Point(p15 + 26) = {6.86561796360485, -1.318595317055987, 0};
Point(p15 + 27) = {6.983475486617928, -1.390818500046622, 0};
Point(p15 + 28) = {7.111180182944013, -1.443715517243624, 0};
Point(p15 + 29) = {7.245587539131966, -1.475983868528467, 0};
Point(p15 + 30) = {7.383388, -1.486829, 0};
Point(p15 + 31) = {7.521188460868034, -1.475983868528467, 0};
Point(p15 + 32) = {7.655595817055986, -1.443715517243624, 0};
Point(p15 + 33) = {7.783300513382071, -1.390818500046622, 0};
Point(p15 + 34) = {7.901158036395151, -1.318595317055987, 0};
Point(p15 + 35) = {8.00626634273195, -1.22882434273195, 0};
Point(p15 + 36) = {8.096037317055988, -1.123716036395151, 0};
Point(p15 + 37) = {8.168260500046621, -1.005858513382071, 0};
Point(p15 + 38) = {8.221157517243624, -0.8781538170559869, 0};
Point(p15 + 39) = {8.253425868528467, -0.7437464608680339, 0};
Spline(15) = {10, p15 + 1, p15 + 2, p15 + 3, p15 + 4, p15 + 5, p15 + 6, p15 + 7, p15 + 8, p15 + 9, p15 + 10, p15 + 11, p15 + 12, p15 + 13, p15 + 14, p15 + 15, p15 + 16, p15 + 17, p15 + 18, p15 + 19, p15 + 20, p15 + 21, p15 + 22, p15 + 23, p15 + 24, p15 + 25, p15 + 26, p15 + 27, p15 + 28, p15 + 29, p15 + 30, p15 + 31, p15 + 32, p15 + 33, p15 + 34, p15 + 35, p15 + 36, p15 + 37, p15 + 38, p15 + 39, 10};
p16 = newp;
Point(p16 + 1) = {23.35193125387969, 2.675952890803996, 0.1};
Point(p16 + 2) = {23.32262454895768, 2.798024102077767, 0.1};
Point(p16 + 3) = {23.27458251357252, 2.914007835468629, 0.1};
Point(p16 + 4) = {23.20898810207777, 3.021048186532556, 0.1};
Point(p16 + 5) = {23.1274564665798, 3.116509466579799, 0.1};
Point(p16 + 6) = {23.03199518653256, 3.198041102077767, 0.1};
Point(p16 + 7) = {22.92495483546863, 3.263635513572517, 0.1};
Point(p16 + 8) = {22.80897110207777, 3.311677548957677, 0.1};
Point(p16 + 9) = {22.686899890804, 3.340984253879691, 0.1};
Point(p16 + 10) = {22.561747, 3.350834, 0.1};
Point(p16 + 11) = {22.436594109196, 3.34098425387969, 0.1};
Point(p16 + 12) = {22.31452289792223, 3.311677548957677, 0.1};
Point(p16 + 13) = {22.19853916453137, 3.263635513572517, 0.1};
Point(p16 + 14) = {22.09149881346744, 3.198041102077767, 0.1};
Point(p16 + 15) = {21.9960375334202, 3.116509466579799, 0.1};
Point(p16 + 16) = {21.91450589792223, 3.021048186532557, 0.1};
Point(p16 + 17) = {21.84891148642748, 2.914007835468629, 0.1};
Point(p16 + 18) = {21.80086945104232, 2.798024102077767, 0.1};
Point(p16 + 19) = {21.77156274612031, 2.675952890803996, 0.1};
Point(p16 + 20) = {21.761713, 2.5508, 0.1};
Point(p16 + 21) = {21.77156274612031, 2.425647109196004, 0.1};
Point(p16 + 22) = {21.80086945104232, 2.303575897922233, 0.1};
Point(p16 + 23) = {21.84891148642748, 2.187592164531372, 0.1};
Point(p16 + 24) = {21.91450589792223, 2.080551813467444, 0.1};
Point(p16 + 25) = {21.9960375334202, 1.985090533420202, 0.1};
Point(p16 + 26) = {22.09149881346744, 1.903558897922234, 0.1};
Point(p16 + 27) = {22.19853916453137, 1.837964486427484, 0.1};
Point(p16 + 28) = {22.31452289792223, 1.789922451042323, 0.1};
Point(p16 + 29) = {22.436594109196, 1.76061574612031, 0.1};
Point(p16 + 30) = {22.561747, 1.750766, 0.1};
Point(p16 + 31) = {22.686899890804, 1.76061574612031, 0.1};
Point(p16 + 32) = {22.80897110207777, 1.789922451042323, 0.1};
Point(p16 + 33) = {22.92495483546863, 1.837964486427483, 0.1};
Point(p16 + 34) = {23.03199518653255, 1.903558897922233, 0.1};
Point(p16 + 35) = {23.1274564665798, 1.985090533420202, 0.1};
Point(p16 + 36) = {23.20898810207777, 2.080551813467443, 0.1};
Point(p16 + 37) = {23.27458251357252, 2.187592164531372, 0.1};
Point(p16 + 38) = {23.32262454895768, 2.303575897922233, 0.1};
Point(p16 + 39) = {23.35193125387969, 2.425647109196004, 0.1};
Spline(16) = {11, p16 + 1, p16 + 2, p16 + 3, p16 + 4, p16 + 5, p16 + 6, p16 + 7, p16 + 8, p16 + 9, p16 + 10, p16 + 11, p16 + 12, p16 + 13, p16 + 14, p16 + 15, p16 + 16, p16 + 17, p16 + 18, p16 + 19, p16 + 20, p16 + 21, p16 + 22, p16 + 23, p16 + 24, p16 + 25, p16 + 26, p16 + 27, p16 + 28, p16 + 29, p16 + 30, p16 + 31, p16 + 32, p16 + 33, p16 + 34, p16 + 35, p16 + 36, p16 + 37, p16 + 38, p16 + 39, 11};
Line(17) = {12, 11};
p18 = newp;
Point(p18 + 1) = {23.35193125387969, 2.675952890803996, 0};
Point(p18 + 2) = {23.32262454895768, 2.798024102077767, 0};
Point(p18 + 3) = {23.27458251357252, 2.914007835468629, 0};
Point(p18 + 4) = {23.20898810207777, 3.021048186532556, 0};
Point(p18 + 5) = {23.1274564665798, 3.116509466579799, 0};
Point(p18 + 6) = {23.03199518653256, 3.198041102077767, 0};
Point(p18 + 7) = {22.92495483546863, 3.263635513572517, 0};
Point(p18 + 8) = {22.80897110207777, 3.311677548957677, 0};
Point(p18 + 9) = {22.686899890804, 3.340984253879691, 0};
Point(p18 + 10) = {22.561747, 3.350834, 0};
Point(p18 + 11) = {22.436594109196, 3.34098425387969, 0};
Point(p18 + 12) = {22.31452289792223, 3.311677548957677, 0};
Point(p18 + 13) = {22.19853916453137, 3.263635513572517, 0};
Point(p18 + 14) = {22.09149881346744, 3.198041102077767, 0};
Point(p18 + 15) = {21.9960375334202, 3.116509466579799, 0};
Point(p18 + 16) = {21.91450589792223, 3.021048186532557, 0};
Point(p18 + 17) = {21.84891148642748, 2.914007835468629, 0};
Point(p18 + 18) = {21.80086945104232, 2.798024102077767, 0};
Point(p18 + 19) = {21.77156274612031, 2.675952890803996, 0};
Point(p18 + 20) = {21.761713, 2.5508, 0};
Point(p18 + 21) = {21.77156274612031, 2.425647109196004, 0};
Point(p18 + 22) = {21.80086945104232, 2.303575897922233, 0};
Point(p18 + 23) = {21.84891148642748, 2.187592164531372, 0};
Point(p18 + 24) = {21.91450589792223, 2.080551813467444, 0};
Point(p18 + 25) = {21.9960375334202, 1.985090533420202, 0};
Point(p18 + 26) = {22.09149881346744, 1.903558897922234, 0};
Point(p18 + 27) = {22.19853916453137, 1.837964486427484, 0};
Point(p18 + 28) = {22.31452289792223, 1.789922451042323, 0};
Point(p18 + 29) = {22.436594109196, 1.76061574612031, 0};
Point(p18 + 30) = {22.561747, 1.750766, 0};
Point(p18 + 31) = {22.686899890804, 1.76061574612031, 0};
Point(p18 + 32) = {22.80897110207777, 1.789922451042323, 0};
Point(p18 + 33) = {22.92495483546863, 1.837964486427483, 0};
Point(p18 + 34) = {23.03199518653255, 1.903558897922233, 0};
Point(p18 + 35) = {23.1274564665798, 1.985090533420202, 0};
Point(p18 + 36) = {23.20898810207777, 2.080551813467443, 0};
Point(p18 + 37) = {23.27458251357252, 2.187592164531372, 0};
Point(p18 + 38) = {23.32262454895768, 2.303575897922233, 0};
Point(p18 + 39) = {23.35193125387969, 2.425647109196004, 0};
Spline(18) = {12, p18 + 1, p18 + 2, p18 + 3, p18 + 4, p18 + 5, p18 + 6, p18 + 7, p18 + 8, p18 + 9, p18 + 10, p18 + 11, p18 + 12, p18 + 13, p18 + 14, p18 + 15, p18 + 16, p18 + 17, p18 + 18, p18 + 19, p18 + 20, p18 + 21, p18 + 22, p18 + 23, p18 + 24, p18 + 25, p18 + 26, p18 + 27, p18 + 28, p18 + 29, p18 + 30, p18 + 31, p18 + 32, p18 + 33, p18 + 34, p18 + 35, p18 + 36, p18 + 37, p18 + 38, p18 + 39, 12};
Line(19) = {14, 13};
Line(20) = {13, 15};
Line(21) = {16, 15};
Line(22) = {14, 16};
Line(23) = {14, 17};
Line(24) = {17, 18};
Line(25) = {13, 18};
Line(26) = {15, 19};
Line(27) = {18, 19};
Line(28) = {16, 20};
Line(29) = {20, 19};
Line(30) = {17, 20};
Curve Loop(7) = {-13, -14, 15, 14};
Surface(7) = {7};
Curve Loop(8) = {13};
Plane Surface(8) = {8};
Curve Loop(9) = {15};
Plane Surface(9) = {9};
Curve Loop(10) = {-16, -17, 18, 17};
Surface(10) = {10};
Curve Loop(11) = {16};
Plane Surface(11) = {11};
Curve Loop(12) = {18};
Plane Surface(12) = {12};
Curve Loop(13) = {-19, 22, 21, -20};
Plane Surface(13) = {13};
Curve Loop(14) = {-23, 19, 25, -24};
Plane Surface(14) = {14};
Curve Loop(15) = {-20, 25, 27, -26};
Plane Surface(15) = {15};
Curve Loop(16) = {-28, 21, 26, -29};
Plane Surface(16) = {16};
Curve Loop(17) = {-22, 23, 30, -28, -15, -18};
Plane Surface(17) = {17};
Curve Loop(18) = {-24, 30, 29, -27};
Plane Surface(18) = {18};
Surface Loop(1) = {13, 14, 15, 16, 17, 18, 7, 10, 8, 11};
Volume(1) = {1};
Surface Loop(2) = {7, 8, 9};
Volume(2) = {2};
Surface Loop(3) = {10, 11, 12};
Volume(3) = {3};
Physical Surface("WALLS") = {13, 18};
Physical Surface("LOAD") = {8, 11};
Physical Surface("BORDER") = {7, 9, 10, 12, 14, 15, 16, 17};
Physical Volume("SOLID") = {1, 2, 3};
