cl__1 = 0.091769;
cl__2 = 0.133203;
cl__3 = 3.349859;
cl__4 = 3.179746;
cl__5 = 0.521262;
cl__6 = 0.511975;
Point(9) = {23.06302, 1.872795, 0.1, cl__1};
Point(10) = {23.06302, 1.872795, 0, cl__1};
Point(11) = {32.279969, 1.055968999999999, 0.1, cl__2};
Point(12) = {32.279969, 1.055968999999999, 0, cl__2};
Point(13) = {0.018742, -3.548537, 0.1, cl__3};
Point(14) = {0.018742, -3.548537, 0, cl__3};
Point(15) = {0.018742, 5.390861000000001, 0.1, cl__4};
Point(16) = {0.018742, 5.390861000000001, 0, cl__4};
Point(17) = {38.621101, -3.548537, 0, cl__5};
Point(18) = {38.621101, -3.548537, 0.1, cl__5};
Point(19) = {38.621101, 5.390861000000001, 0.1, cl__6};
Point(20) = {38.621101, 5.390861000000001, 0, cl__6};
p13 = newp;
Point(p13 + 1) = {23.05172166403412, 2.01635396996063, 0.1};
Point(p13 + 2) = {23.01810485866497, 2.156378041635923, 0.1};
Point(p13 + 3) = {22.96299734120852, 2.289419357667984, 0.1};
Point(p13 + 4) = {22.88775604163592, 2.412201999317289, 0.1};
Point(p13 + 5) = {22.79423365045421, 2.521702650454207, 0.1};
Point(p13 + 6) = {22.68473299931729, 2.615225041635923, 0.1};
Point(p13 + 7) = {22.56195035766799, 2.69046634120852, 0.1};
Point(p13 + 8) = {22.42890904163592, 2.745573858664965, 0.1};
Point(p13 + 9) = {22.28888496996063, 2.779190664034115, 0.1};
Point(p13 + 10) = {22.145326, 2.790489, 0.1};
Point(p13 + 11) = {22.00176703003937, 2.779190664034114, 0.1};
Point(p13 + 12) = {21.86174295836408, 2.745573858664965, 0.1};
Point(p13 + 13) = {21.72870164233202, 2.69046634120852, 0.1};
Point(p13 + 14) = {21.60591900068271, 2.615225041635923, 0.1};
Point(p13 + 15) = {21.49641834954579, 2.521702650454208, 0.1};
Point(p13 + 16) = {21.40289595836408, 2.412201999317289, 0.1};
Point(p13 + 17) = {21.32765465879148, 2.289419357667984, 0.1};
Point(p13 + 18) = {21.27254714133504, 2.156378041635923, 0.1};
Point(p13 + 19) = {21.23893033596589, 2.01635396996063, 0.1};
Point(p13 + 20) = {21.227632, 1.872795, 0.1};
Point(p13 + 21) = {21.23893033596589, 1.729236030039371, 0.1};
Point(p13 + 22) = {21.27254714133504, 1.589211958364077, 0.1};
Point(p13 + 23) = {21.32765465879148, 1.456170642332017, 0.1};
Point(p13 + 24) = {21.40289595836408, 1.333388000682711, 0.1};
Point(p13 + 25) = {21.49641834954579, 1.223887349545792, 0.1};
Point(p13 + 26) = {21.60591900068271, 1.130364958364077, 0.1};
Point(p13 + 27) = {21.72870164233202, 1.05512365879148, 0.1};
Point(p13 + 28) = {21.86174295836408, 1.000016141335035, 0.1};
Point(p13 + 29) = {22.00176703003937, 0.9663993359658857, 0.1};
Point(p13 + 30) = {22.145326, 0.955101, 0.1};
Point(p13 + 31) = {22.28888496996063, 0.9663993359658856, 0.1};
Point(p13 + 32) = {22.42890904163592, 1.000016141335035, 0.1};
Point(p13 + 33) = {22.56195035766799, 1.05512365879148, 0.1};
Point(p13 + 34) = {22.68473299931729, 1.130364958364077, 0.1};
Point(p13 + 35) = {22.79423365045421, 1.223887349545792, 0.1};
Point(p13 + 36) = {22.88775604163592, 1.333388000682711, 0.1};
Point(p13 + 37) = {22.96299734120852, 1.456170642332016, 0.1};
Point(p13 + 38) = {23.01810485866497, 1.589211958364077, 0.1};
Point(p13 + 39) = {23.05172166403412, 1.72923603003937, 0.1};
Spline(13) = {9, p13 + 1, p13 + 2, p13 + 3, p13 + 4, p13 + 5, p13 + 6, p13 + 7, p13 + 8, p13 + 9, p13 + 10, p13 + 11, p13 + 12, p13 + 13, p13 + 14, p13 + 15, p13 + 16, p13 + 17, p13 + 18, p13 + 19, p13 + 20, p13 + 21, p13 + 22, p13 + 23, p13 + 24, p13 + 25, p13 + 26, p13 + 27, p13 + 28, p13 + 29, p13 + 30, p13 + 31, p13 + 32, p13 + 33, p13 + 34, p13 + 35, p13 + 36, p13 + 37, p13 + 38, p13 + 39, 9};
Line(14) = {10, 9};
p15 = newp;
Point(p15 + 1) = {23.05172166403412, 2.01635396996063, 0};
Point(p15 + 2) = {23.01810485866497, 2.156378041635923, 0};
Point(p15 + 3) = {22.96299734120852, 2.289419357667984, 0};
Point(p15 + 4) = {22.88775604163592, 2.412201999317289, 0};
Point(p15 + 5) = {22.79423365045421, 2.521702650454207, 0};
Point(p15 + 6) = {22.68473299931729, 2.615225041635923, 0};
Point(p15 + 7) = {22.56195035766799, 2.69046634120852, 0};
Point(p15 + 8) = {22.42890904163592, 2.745573858664965, 0};
Point(p15 + 9) = {22.28888496996063, 2.779190664034115, 0};
Point(p15 + 10) = {22.145326, 2.790489, 0};
Point(p15 + 11) = {22.00176703003937, 2.779190664034114, 0};
Point(p15 + 12) = {21.86174295836408, 2.745573858664965, 0};
Point(p15 + 13) = {21.72870164233202, 2.69046634120852, 0};
Point(p15 + 14) = {21.60591900068271, 2.615225041635923, 0};
Point(p15 + 15) = {21.49641834954579, 2.521702650454208, 0};
Point(p15 + 16) = {21.40289595836408, 2.412201999317289, 0};
Point(p15 + 17) = {21.32765465879148, 2.289419357667984, 0};
Point(p15 + 18) = {21.27254714133504, 2.156378041635923, 0};
Point(p15 + 19) = {21.23893033596589, 2.01635396996063, 0};
Point(p15 + 20) = {21.227632, 1.872795, 0};
Point(p15 + 21) = {21.23893033596589, 1.729236030039371, 0};
Point(p15 + 22) = {21.27254714133504, 1.589211958364077, 0};
Point(p15 + 23) = {21.32765465879148, 1.456170642332017, 0};
Point(p15 + 24) = {21.40289595836408, 1.333388000682711, 0};
Point(p15 + 25) = {21.49641834954579, 1.223887349545792, 0};
Point(p15 + 26) = {21.60591900068271, 1.130364958364077, 0};
Point(p15 + 27) = {21.72870164233202, 1.05512365879148, 0};
Point(p15 + 28) = {21.86174295836408, 1.000016141335035, 0};
Point(p15 + 29) = {22.00176703003937, 0.9663993359658857, 0};
Point(p15 + 30) = {22.145326, 0.955101, 0};
Point(p15 + 31) = {22.28888496996063, 0.9663993359658856, 0};
Point(p15 + 32) = {22.42890904163592, 1.000016141335035, 0};
Point(p15 + 33) = {22.56195035766799, 1.05512365879148, 0};
Point(p15 + 34) = {22.68473299931729, 1.130364958364077, 0};
Point(p15 + 35) = {22.79423365045421, 1.223887349545792, 0};
Point(p15 + 36) = {22.88775604163592, 1.333388000682711, 0};
Point(p15 + 37) = {22.96299734120852, 1.456170642332016, 0};
Point(p15 + 38) = {23.01810485866497, 1.589211958364077, 0};
Point(p15 + 39) = {23.05172166403412, 1.72923603003937, 0};
Spline(15) = {10, p15 + 1, p15 + 2, p15 + 3, p15 + 4, p15 + 5, p15 + 6, p15 + 7, p15 + 8, p15 + 9, p15 + 10, p15 + 11, p15 + 12, p15 + 13, p15 + 14, p15 + 15, p15 + 16, p15 + 17, p15 + 18, p15 + 19, p15 + 20, p15 + 21, p15 + 22, p15 + 23, p15 + 24, p15 + 25, p15 + 26, p15 + 27, p15 + 28, p15 + 29, p15 + 30, p15 + 31, p15 + 32, p15 + 33, p15 + 34, p15 + 35, p15 + 36, p15 + 37, p15 + 38, p15 + 39, 10};
p16 = newp;
Point(p16 + 1) = {32.26356954956957, 1.264343774729678, 0.1};
Point(p16 + 2) = {32.21477500717457, 1.467587670949284, 0.1};
Point(p16 + 3) = {32.13478685638853, 1.660696149406069, 0.1};
Point(p16 + 4) = {32.02557467094928, 1.838914238470134, 0.1};
Point(p16 + 5) = {31.88982761731679, 1.997853617316792, 0.1};
Point(p16 + 6) = {31.73088823847013, 2.133600670949283, 0.1};
Point(p16 + 7) = {31.55267014940607, 2.242812856388535, 0.1};
Point(p16 + 8) = {31.35956167094928, 2.322801007174568, 0.1};
Point(p16 + 9) = {31.15631777472968, 2.371595549569579, 0.1};
Point(p16 + 10) = {30.947943, 2.387995, 0.1};
Point(p16 + 11) = {30.73956822527032, 2.371595549569578, 0.1};
Point(p16 + 12) = {30.53632432905071, 2.322801007174568, 0.1};
Point(p16 + 13) = {30.34321585059393, 2.242812856388535, 0.1};
Point(p16 + 14) = {30.16499776152986, 2.133600670949284, 0.1};
Point(p16 + 15) = {30.00605838268321, 1.997853617316792, 0.1};
Point(p16 + 16) = {29.87031132905071, 1.838914238470134, 0.1};
Point(p16 + 17) = {29.76109914361146, 1.660696149406069, 0.1};
Point(p16 + 18) = {29.68111099282543, 1.467587670949284, 0.1};
Point(p16 + 19) = {29.63231645043042, 1.264343774729679, 0.1};
Point(p16 + 20) = {29.615917, 1.055969, 0.1};
Point(p16 + 21) = {29.63231645043042, 0.8475942252703215, 0.1};
Point(p16 + 22) = {29.68111099282543, 0.6443503290507158, 0.1};
Point(p16 + 23) = {29.76109914361146, 0.4512418505939311, 0.1};
Point(p16 + 24) = {29.87031132905071, 0.2730237615298663, 0.1};
Point(p16 + 25) = {30.00605838268321, 0.1140843826832079, 0.1};
Point(p16 + 26) = {30.16499776152986, -0.02166267094928354, 0.1};
Point(p16 + 27) = {30.34321585059393, -0.1308748563885347, 0.1};
Point(p16 + 28) = {30.53632432905071, -0.2108630071745681, 0.1};
Point(p16 + 29) = {30.73956822527032, -0.2596575495695788, 0.1};
Point(p16 + 30) = {30.947943, -0.276057, 0.1};
Point(p16 + 31) = {31.15631777472968, -0.259657549569579, 0.1};
Point(p16 + 32) = {31.35956167094928, -0.2108630071745683, 0.1};
Point(p16 + 33) = {31.55267014940607, -0.1308748563885351, 0.1};
Point(p16 + 34) = {31.73088823847013, -0.02166267094928398, 0.1};
Point(p16 + 35) = {31.88982761731679, 0.1140843826832076, 0.1};
Point(p16 + 36) = {32.02557467094928, 0.273023761529866, 0.1};
Point(p16 + 37) = {32.13478685638853, 0.4512418505939302, 0.1};
Point(p16 + 38) = {32.21477500717457, 0.644350329050716, 0.1};
Point(p16 + 39) = {32.26356954956957, 0.847594225270321, 0.1};
Spline(16) = {11, p16 + 1, p16 + 2, p16 + 3, p16 + 4, p16 + 5, p16 + 6, p16 + 7, p16 + 8, p16 + 9, p16 + 10, p16 + 11, p16 + 12, p16 + 13, p16 + 14, p16 + 15, p16 + 16, p16 + 17, p16 + 18, p16 + 19, p16 + 20, p16 + 21, p16 + 22, p16 + 23, p16 + 24, p16 + 25, p16 + 26, p16 + 27, p16 + 28, p16 + 29, p16 + 30, p16 + 31, p16 + 32, p16 + 33, p16 + 34, p16 + 35, p16 + 36, p16 + 37, p16 + 38, p16 + 39, 11};
Line(17) = {12, 11};
p18 = newp;
Point(p18 + 1) = {32.26356954956957, 1.264343774729678, 0};
Point(p18 + 2) = {32.21477500717457, 1.467587670949284, 0};
Point(p18 + 3) = {32.13478685638853, 1.660696149406069, 0};
Point(p18 + 4) = {32.02557467094928, 1.838914238470134, 0};
Point(p18 + 5) = {31.88982761731679, 1.997853617316792, 0};
Point(p18 + 6) = {31.73088823847013, 2.133600670949283, 0};
Point(p18 + 7) = {31.55267014940607, 2.242812856388535, 0};
Point(p18 + 8) = {31.35956167094928, 2.322801007174568, 0};
Point(p18 + 9) = {31.15631777472968, 2.371595549569579, 0};
Point(p18 + 10) = {30.947943, 2.387995, 0};
Point(p18 + 11) = {30.73956822527032, 2.371595549569578, 0};
Point(p18 + 12) = {30.53632432905071, 2.322801007174568, 0};
Point(p18 + 13) = {30.34321585059393, 2.242812856388535, 0};
Point(p18 + 14) = {30.16499776152986, 2.133600670949284, 0};
Point(p18 + 15) = {30.00605838268321, 1.997853617316792, 0};
Point(p18 + 16) = {29.87031132905071, 1.838914238470134, 0};
Point(p18 + 17) = {29.76109914361146, 1.660696149406069, 0};
Point(p18 + 18) = {29.68111099282543, 1.467587670949284, 0};
Point(p18 + 19) = {29.63231645043042, 1.264343774729679, 0};
Point(p18 + 20) = {29.615917, 1.055969, 0};
Point(p18 + 21) = {29.63231645043042, 0.8475942252703215, 0};
Point(p18 + 22) = {29.68111099282543, 0.6443503290507158, 0};
Point(p18 + 23) = {29.76109914361146, 0.4512418505939311, 0};
Point(p18 + 24) = {29.87031132905071, 0.2730237615298663, 0};
Point(p18 + 25) = {30.00605838268321, 0.1140843826832079, 0};
Point(p18 + 26) = {30.16499776152986, -0.02166267094928354, 0};
Point(p18 + 27) = {30.34321585059393, -0.1308748563885347, 0};
Point(p18 + 28) = {30.53632432905071, -0.2108630071745681, 0};
Point(p18 + 29) = {30.73956822527032, -0.2596575495695788, 0};
Point(p18 + 30) = {30.947943, -0.276057, 0};
Point(p18 + 31) = {31.15631777472968, -0.259657549569579, 0};
Point(p18 + 32) = {31.35956167094928, -0.2108630071745683, 0};
Point(p18 + 33) = {31.55267014940607, -0.1308748563885351, 0};
Point(p18 + 34) = {31.73088823847013, -0.02166267094928398, 0};
Point(p18 + 35) = {31.88982761731679, 0.1140843826832076, 0};
Point(p18 + 36) = {32.02557467094928, 0.273023761529866, 0};
Point(p18 + 37) = {32.13478685638853, 0.4512418505939302, 0};
Point(p18 + 38) = {32.21477500717457, 0.644350329050716, 0};
Point(p18 + 39) = {32.26356954956957, 0.847594225270321, 0};
Spline(18) = {12, p18 + 1, p18 + 2, p18 + 3, p18 + 4, p18 + 5, p18 + 6, p18 + 7, p18 + 8, p18 + 9, p18 + 10, p18 + 11, p18 + 12, p18 + 13, p18 + 14, p18 + 15, p18 + 16, p18 + 17, p18 + 18, p18 + 19, p18 + 20, p18 + 21, p18 + 22, p18 + 23, p18 + 24, p18 + 25, p18 + 26, p18 + 27, p18 + 28, p18 + 29, p18 + 30, p18 + 31, p18 + 32, p18 + 33, p18 + 34, p18 + 35, p18 + 36, p18 + 37, p18 + 38, p18 + 39, 12};
Line(19) = {14, 13};
Line(20) = {13, 15};
Line(21) = {16, 15};
Line(22) = {14, 16};
Line(23) = {14, 17};
Line(24) = {17, 18};
Line(25) = {13, 18};
Line(26) = {15, 19};
Line(27) = {18, 19};
Line(28) = {16, 20};
Line(29) = {20, 19};
Line(30) = {17, 20};
Curve Loop(7) = {-13, -14, 15, 14};
Surface(7) = {7};
Curve Loop(8) = {13};
Plane Surface(8) = {8};
Curve Loop(9) = {15};
Plane Surface(9) = {9};
Curve Loop(10) = {-16, -17, 18, 17};
Surface(10) = {10};
Curve Loop(11) = {16};
Plane Surface(11) = {11};
Curve Loop(12) = {18};
Plane Surface(12) = {12};
Curve Loop(13) = {-19, 22, 21, -20};
Plane Surface(13) = {13};
Curve Loop(14) = {-23, 19, 25, -24};
Plane Surface(14) = {14};
Curve Loop(15) = {-20, 25, 27, -26, -16, -13};
Plane Surface(15) = {15};
Curve Loop(16) = {-28, 21, 26, -29};
Plane Surface(16) = {16};
Curve Loop(17) = {-22, 23, 30, -28, -18, -15};
Plane Surface(17) = {17};
Curve Loop(18) = {-24, 30, 29, -27};
Plane Surface(18) = {18};
Surface Loop(1) = {13, 14, 15, 16, 17, 18, 10, 7};
Volume(1) = {1};
Surface Loop(2) = {7, 8, 9};
Volume(2) = {2};
Surface Loop(3) = {10, 11, 12};
Volume(3) = {3};
Physical Surface("WALLS") = {13, 18};
Physical Surface("LOAD") = {8, 11};
Physical Surface("BORDER") = {7, 9, 10, 12, 14, 15, 16, 17};
Physical Volume("SOLID") = {1, 2, 3};
