cl__1 = 0.118885;
cl__2 = 0.066291;
cl__3 = 2.048056;
cl__4 = 3.080323;
cl__5 = 0.791665;
cl__6 = 0.483394;
Point(9) = {31.152183, 1.96898, 0.1, cl__1};
Point(10) = {31.152183, 1.96898, 0, cl__1};
Point(11) = {10.212047, -0.8971280000000003, 0.1, cl__2};
Point(12) = {10.212047, -0.8971280000000003, 0, cl__2};
Point(13) = {0.8704809999999999, -3.367512, 1, cl__3};
Point(14) = {0.8704809999999999, -3.367512, 0, cl__3};
Point(15) = {0.8704809999999999, 4.541271999999999, 1, cl__4};
Point(16) = {0.8704809999999999, 4.541271999999999, 0, cl__4};
Point(17) = {33.497599, -3.367512, 0, cl__5};
Point(18) = {33.497599, -3.367512, 1, cl__5};
Point(19) = {33.497599, 4.541271999999999, 1, cl__6};
Point(20) = {33.497599, 4.541271999999999, 0, cl__6};
p13 = newp;
Point(p13 + 1) = {31.13754627140487, 2.154957270197543, 0.1};
Point(p13 + 2) = {31.09399649045401, 2.33635516277965, 0.1};
Point(p13 + 3) = {31.02260599728787, 2.50870705960586, 0.1};
Point(p13 + 4) = {30.92513266277965, 2.667769084973159, 0.1};
Point(p13 + 5) = {30.80397660392041, 2.809624603920408, 0.1};
Point(p13 + 6) = {30.66212108497316, 2.930780662779651, 0.1};
Point(p13 + 7) = {30.50305905960586, 3.028253997287865, 0.1};
Point(p13 + 8) = {30.33070716277965, 3.099644490454009, 0.1};
Point(p13 + 9) = {30.14930927019754, 3.14319427140487, 0.1};
Point(p13 + 10) = {29.963332, 3.157831, 0.1};
Point(p13 + 11) = {29.77735472980246, 3.14319427140487, 0.1};
Point(p13 + 12) = {29.59595683722035, 3.099644490454009, 0.1};
Point(p13 + 13) = {29.42360494039414, 3.028253997287865, 0.1};
Point(p13 + 14) = {29.26454291502684, 2.930780662779651, 0.1};
Point(p13 + 15) = {29.12268739607959, 2.809624603920408, 0.1};
Point(p13 + 16) = {29.00153133722035, 2.667769084973159, 0.1};
Point(p13 + 17) = {28.90405800271214, 2.50870705960586, 0.1};
Point(p13 + 18) = {28.83266750954599, 2.336355162779651, 0.1};
Point(p13 + 19) = {28.78911772859513, 2.154957270197543, 0.1};
Point(p13 + 20) = {28.774481, 1.96898, 0.1};
Point(p13 + 21) = {28.78911772859513, 1.783002729802456, 0.1};
Point(p13 + 22) = {28.83266750954599, 1.601604837220349, 0.1};
Point(p13 + 23) = {28.90405800271213, 1.429252940394141, 0.1};
Point(p13 + 24) = {29.00153133722035, 1.270190915026841, 0.1};
Point(p13 + 25) = {29.12268739607959, 1.128335396079592, 0.1};
Point(p13 + 26) = {29.26454291502684, 1.007179337220349, 0.1};
Point(p13 + 27) = {29.42360494039414, 0.9097060027121346, 0.1};
Point(p13 + 28) = {29.59595683722035, 0.8383155095459902, 0.1};
Point(p13 + 29) = {29.77735472980246, 0.7947657285951299, 0.1};
Point(p13 + 30) = {29.963332, 0.7801289999999999, 0.1};
Point(p13 + 31) = {30.14930927019754, 0.7947657285951297, 0.1};
Point(p13 + 32) = {30.33070716277965, 0.8383155095459902, 0.1};
Point(p13 + 33) = {30.50305905960586, 0.9097060027121344, 0.1};
Point(p13 + 34) = {30.66212108497316, 1.007179337220349, 0.1};
Point(p13 + 35) = {30.80397660392041, 1.128335396079591, 0.1};
Point(p13 + 36) = {30.92513266277965, 1.270190915026841, 0.1};
Point(p13 + 37) = {31.02260599728787, 1.42925294039414, 0.1};
Point(p13 + 38) = {31.09399649045401, 1.601604837220349, 0.1};
Point(p13 + 39) = {31.13754627140487, 1.783002729802456, 0.1};
Spline(13) = {9, p13 + 1, p13 + 2, p13 + 3, p13 + 4, p13 + 5, p13 + 6, p13 + 7, p13 + 8, p13 + 9, p13 + 10, p13 + 11, p13 + 12, p13 + 13, p13 + 14, p13 + 15, p13 + 16, p13 + 17, p13 + 18, p13 + 19, p13 + 20, p13 + 21, p13 + 22, p13 + 23, p13 + 24, p13 + 25, p13 + 26, p13 + 27, p13 + 28, p13 + 29, p13 + 30, p13 + 31, p13 + 32, p13 + 33, p13 + 34, p13 + 35, p13 + 36, p13 + 37, p13 + 38, p13 + 39, 9};
Line(14) = {10, 9};
p15 = newp;
Point(p15 + 1) = {31.13754627140487, 2.154957270197543, 0};
Point(p15 + 2) = {31.09399649045401, 2.33635516277965, 0};
Point(p15 + 3) = {31.02260599728787, 2.50870705960586, 0};
Point(p15 + 4) = {30.92513266277965, 2.667769084973159, 0};
Point(p15 + 5) = {30.80397660392041, 2.809624603920408, 0};
Point(p15 + 6) = {30.66212108497316, 2.930780662779651, 0};
Point(p15 + 7) = {30.50305905960586, 3.028253997287865, 0};
Point(p15 + 8) = {30.33070716277965, 3.099644490454009, 0};
Point(p15 + 9) = {30.14930927019754, 3.14319427140487, 0};
Point(p15 + 10) = {29.963332, 3.157831, 0};
Point(p15 + 11) = {29.77735472980246, 3.14319427140487, 0};
Point(p15 + 12) = {29.59595683722035, 3.099644490454009, 0};
Point(p15 + 13) = {29.42360494039414, 3.028253997287865, 0};
Point(p15 + 14) = {29.26454291502684, 2.930780662779651, 0};
Point(p15 + 15) = {29.12268739607959, 2.809624603920408, 0};
Point(p15 + 16) = {29.00153133722035, 2.667769084973159, 0};
Point(p15 + 17) = {28.90405800271214, 2.50870705960586, 0};
Point(p15 + 18) = {28.83266750954599, 2.336355162779651, 0};
Point(p15 + 19) = {28.78911772859513, 2.154957270197543, 0};
Point(p15 + 20) = {28.774481, 1.96898, 0};
Point(p15 + 21) = {28.78911772859513, 1.783002729802456, 0};
Point(p15 + 22) = {28.83266750954599, 1.601604837220349, 0};
Point(p15 + 23) = {28.90405800271213, 1.429252940394141, 0};
Point(p15 + 24) = {29.00153133722035, 1.270190915026841, 0};
Point(p15 + 25) = {29.12268739607959, 1.128335396079592, 0};
Point(p15 + 26) = {29.26454291502684, 1.007179337220349, 0};
Point(p15 + 27) = {29.42360494039414, 0.9097060027121346, 0};
Point(p15 + 28) = {29.59595683722035, 0.8383155095459902, 0};
Point(p15 + 29) = {29.77735472980246, 0.7947657285951299, 0};
Point(p15 + 30) = {29.963332, 0.7801289999999999, 0};
Point(p15 + 31) = {30.14930927019754, 0.7947657285951297, 0};
Point(p15 + 32) = {30.33070716277965, 0.8383155095459902, 0};
Point(p15 + 33) = {30.50305905960586, 0.9097060027121344, 0};
Point(p15 + 34) = {30.66212108497316, 1.007179337220349, 0};
Point(p15 + 35) = {30.80397660392041, 1.128335396079591, 0};
Point(p15 + 36) = {30.92513266277965, 1.270190915026841, 0};
Point(p15 + 37) = {31.02260599728787, 1.42925294039414, 0};
Point(p15 + 38) = {31.09399649045401, 1.601604837220349, 0};
Point(p15 + 39) = {31.13754627140487, 1.783002729802456, 0};
Spline(15) = {10, p15 + 1, p15 + 2, p15 + 3, p15 + 4, p15 + 5, p15 + 6, p15 + 7, p15 + 8, p15 + 9, p15 + 10, p15 + 11, p15 + 12, p15 + 13, p15 + 14, p15 + 15, p15 + 16, p15 + 17, p15 + 18, p15 + 19, p15 + 20, p15 + 21, p15 + 22, p15 + 23, p15 + 24, p15 + 25, p15 + 26, p15 + 27, p15 + 28, p15 + 29, p15 + 30, p15 + 31, p15 + 32, p15 + 33, p15 + 34, p15 + 35, p15 + 36, p15 + 37, p15 + 38, p15 + 39, 10};
p16 = newp;
Point(p16 + 1) = {10.2038855147989, -0.7934264980835757, 0.1};
Point(p16 + 2) = {10.17960202204767, -0.6922784713098868, 0.1};
Point(p16 + 3) = {10.13979446193014, -0.5961745197891564, 0.1};
Point(p16 + 4) = {10.08544302869011, -0.5074810417585536, 0.1};
Point(p16 + 5) = {10.01788603499603, -0.4283819650039694, 0.1};
Point(p16 + 6) = {9.938786958241446, -0.3608249713098868, 0.1};
Point(p16 + 7) = {9.850093480210843, -0.3064735380698617, 0.1};
Point(p16 + 8) = {9.753989528690113, -0.2666659779523287, 0.1};
Point(p16 + 9) = {9.652841501916424, -0.2423824852010991, 0.1};
Point(p16 + 10) = {9.54914, -0.234221, 0.1};
Point(p16 + 11) = {9.445438498083575, -0.2423824852010991, 0.1};
Point(p16 + 12) = {9.344290471309886, -0.2666659779523286, 0.1};
Point(p16 + 13) = {9.248186519789156, -0.3064735380698617, 0.1};
Point(p16 + 14) = {9.159493041758553, -0.3608249713098868, 0.1};
Point(p16 + 15) = {9.080393965003969, -0.4283819650039693, 0.1};
Point(p16 + 16) = {9.012836971309886, -0.5074810417585535, 0.1};
Point(p16 + 17) = {8.958485538069862, -0.5961745197891563, 0.1};
Point(p16 + 18) = {8.918677977952328, -0.6922784713098867, 0.1};
Point(p16 + 19) = {8.894394485201099, -0.7934264980835757, 0.1};
Point(p16 + 20) = {8.886232999999999, -0.8971279999999999, 0.1};
Point(p16 + 21) = {8.894394485201099, -1.000829501916424, 0.1};
Point(p16 + 22) = {8.918677977952328, -1.101977528690113, 0.1};
Point(p16 + 23) = {8.95848553806986, -1.198081480210843, 0.1};
Point(p16 + 24) = {9.012836971309886, -1.286774958241446, 0.1};
Point(p16 + 25) = {9.080393965003969, -1.365874034996031, 0.1};
Point(p16 + 26) = {9.159493041758553, -1.433431028690113, 0.1};
Point(p16 + 27) = {9.248186519789156, -1.487782461930138, 0.1};
Point(p16 + 28) = {9.344290471309886, -1.527590022047671, 0.1};
Point(p16 + 29) = {9.445438498083575, -1.551873514798901, 0.1};
Point(p16 + 30) = {9.54914, -1.560035, 0.1};
Point(p16 + 31) = {9.652841501916424, -1.551873514798901, 0.1};
Point(p16 + 32) = {9.753989528690113, -1.527590022047671, 0.1};
Point(p16 + 33) = {9.850093480210843, -1.487782461930139, 0.1};
Point(p16 + 34) = {9.938786958241446, -1.433431028690114, 0.1};
Point(p16 + 35) = {10.01788603499603, -1.365874034996031, 0.1};
Point(p16 + 36) = {10.08544302869011, -1.286774958241446, 0.1};
Point(p16 + 37) = {10.13979446193014, -1.198081480210844, 0.1};
Point(p16 + 38) = {10.17960202204767, -1.101977528690113, 0.1};
Point(p16 + 39) = {10.2038855147989, -1.000829501916425, 0.1};
Spline(16) = {11, p16 + 1, p16 + 2, p16 + 3, p16 + 4, p16 + 5, p16 + 6, p16 + 7, p16 + 8, p16 + 9, p16 + 10, p16 + 11, p16 + 12, p16 + 13, p16 + 14, p16 + 15, p16 + 16, p16 + 17, p16 + 18, p16 + 19, p16 + 20, p16 + 21, p16 + 22, p16 + 23, p16 + 24, p16 + 25, p16 + 26, p16 + 27, p16 + 28, p16 + 29, p16 + 30, p16 + 31, p16 + 32, p16 + 33, p16 + 34, p16 + 35, p16 + 36, p16 + 37, p16 + 38, p16 + 39, 11};
Line(17) = {12, 11};
p18 = newp;
Point(p18 + 1) = {10.2038855147989, -0.7934264980835757, 0};
Point(p18 + 2) = {10.17960202204767, -0.6922784713098868, 0};
Point(p18 + 3) = {10.13979446193014, -0.5961745197891564, 0};
Point(p18 + 4) = {10.08544302869011, -0.5074810417585536, 0};
Point(p18 + 5) = {10.01788603499603, -0.4283819650039694, 0};
Point(p18 + 6) = {9.938786958241446, -0.3608249713098868, 0};
Point(p18 + 7) = {9.850093480210843, -0.3064735380698617, 0};
Point(p18 + 8) = {9.753989528690113, -0.2666659779523287, 0};
Point(p18 + 9) = {9.652841501916424, -0.2423824852010991, 0};
Point(p18 + 10) = {9.54914, -0.234221, 0};
Point(p18 + 11) = {9.445438498083575, -0.2423824852010991, 0};
Point(p18 + 12) = {9.344290471309886, -0.2666659779523286, 0};
Point(p18 + 13) = {9.248186519789156, -0.3064735380698617, 0};
Point(p18 + 14) = {9.159493041758553, -0.3608249713098868, 0};
Point(p18 + 15) = {9.080393965003969, -0.4283819650039693, 0};
Point(p18 + 16) = {9.012836971309886, -0.5074810417585535, 0};
Point(p18 + 17) = {8.958485538069862, -0.5961745197891563, 0};
Point(p18 + 18) = {8.918677977952328, -0.6922784713098867, 0};
Point(p18 + 19) = {8.894394485201099, -0.7934264980835757, 0};
Point(p18 + 20) = {8.886232999999999, -0.8971279999999999, 0};
Point(p18 + 21) = {8.894394485201099, -1.000829501916424, 0};
Point(p18 + 22) = {8.918677977952328, -1.101977528690113, 0};
Point(p18 + 23) = {8.95848553806986, -1.198081480210843, 0};
Point(p18 + 24) = {9.012836971309886, -1.286774958241446, 0};
Point(p18 + 25) = {9.080393965003969, -1.365874034996031, 0};
Point(p18 + 26) = {9.159493041758553, -1.433431028690113, 0};
Point(p18 + 27) = {9.248186519789156, -1.487782461930138, 0};
Point(p18 + 28) = {9.344290471309886, -1.527590022047671, 0};
Point(p18 + 29) = {9.445438498083575, -1.551873514798901, 0};
Point(p18 + 30) = {9.54914, -1.560035, 0};
Point(p18 + 31) = {9.652841501916424, -1.551873514798901, 0};
Point(p18 + 32) = {9.753989528690113, -1.527590022047671, 0};
Point(p18 + 33) = {9.850093480210843, -1.487782461930139, 0};
Point(p18 + 34) = {9.938786958241446, -1.433431028690114, 0};
Point(p18 + 35) = {10.01788603499603, -1.365874034996031, 0};
Point(p18 + 36) = {10.08544302869011, -1.286774958241446, 0};
Point(p18 + 37) = {10.13979446193014, -1.198081480210844, 0};
Point(p18 + 38) = {10.17960202204767, -1.101977528690113, 0};
Point(p18 + 39) = {10.2038855147989, -1.000829501916425, 0};
Spline(18) = {12, p18 + 1, p18 + 2, p18 + 3, p18 + 4, p18 + 5, p18 + 6, p18 + 7, p18 + 8, p18 + 9, p18 + 10, p18 + 11, p18 + 12, p18 + 13, p18 + 14, p18 + 15, p18 + 16, p18 + 17, p18 + 18, p18 + 19, p18 + 20, p18 + 21, p18 + 22, p18 + 23, p18 + 24, p18 + 25, p18 + 26, p18 + 27, p18 + 28, p18 + 29, p18 + 30, p18 + 31, p18 + 32, p18 + 33, p18 + 34, p18 + 35, p18 + 36, p18 + 37, p18 + 38, p18 + 39, 12};
Line(19) = {14, 13};
Line(20) = {13, 15};
Line(21) = {16, 15};
Line(22) = {14, 16};
Line(23) = {14, 17};
Line(24) = {17, 18};
Line(25) = {13, 18};
Line(26) = {15, 19};
Line(27) = {18, 19};
Line(28) = {16, 20};
Line(29) = {20, 19};
Line(30) = {17, 20};
Curve Loop(7) = {-13, -14, 15, 14};
Surface(7) = {7};
Curve Loop(8) = {13};
Plane Surface(8) = {8};
Curve Loop(9) = {15};
Plane Surface(9) = {9};
Curve Loop(10) = {-16, -17, 18, 17};
Surface(10) = {10};
Curve Loop(11) = {16};
Plane Surface(11) = {11};
Curve Loop(12) = {18};
Plane Surface(12) = {12};
Curve Loop(13) = {-19, 22, 21, -20};
Plane Surface(13) = {13};
Curve Loop(14) = {-23, 19, 25, -24};
Plane Surface(14) = {14};
Curve Loop(15) = {-20, 25, 27, -26};
Plane Surface(15) = {15};
Curve Loop(16) = {-28, 21, 26, -29};
Plane Surface(16) = {16};
Curve Loop(17) = {-22, 23, 30, -28, -18, -15};
Plane Surface(17) = {17};
Curve Loop(18) = {-24, 30, 29, -27};
Plane Surface(18) = {18};
Surface Loop(1) = {13, 14, 15, 16, 17, 18, 10, 7, 11, 8};
Volume(1) = {1};
Surface Loop(2) = {7, 8, 9};
Volume(2) = {2};
Surface Loop(3) = {10, 11, 12};
Volume(3) = {3};
Physical Surface("WALLS") = {13, 18};
Physical Surface("LOAD") = {8, 11};
Physical Surface("BORDER") = {7, 9, 10, 12, 14, 15, 16, 17};
Physical Volume("SOLID") = {1, 2, 3};
