cl__1 = 0.05427;
cl__2 = 0.138342;
cl__3 = 0.678958;
cl__4 = 1.709474;
cl__5 = 0.851287;
cl__6 = 2.068083;
Point(9) = {27.569926, -1.605644, 0.1, cl__1};
Point(10) = {27.569926, -1.605644, 0, cl__1};
Point(11) = {7.482343, -2.098397, 0.1, cl__2};
Point(12) = {7.482343, -2.098397, 0, cl__2};
Point(13) = {0.644685, -4.18361, 0.1, cl__3};
Point(14) = {0.644685, -4.18361, 0, cl__3};
Point(15) = {0.644685, 5.348258, 0.1, cl__4};
Point(16) = {0.644685, 5.348258, 0, cl__4};
Point(17) = {32.588207, -4.18361, 0, cl__5};
Point(18) = {32.588207, -4.18361, 0.1, cl__5};
Point(19) = {32.588207, 5.348258, 0.1, cl__6};
Point(20) = {32.588207, 5.348258, 0, cl__6};
p13 = newp;
Point(p13 + 1) = {27.56324451168762, -1.520747641560527, 0.1};
Point(p13 + 2) = {27.54336456716731, -1.437941713220694, 0.1};
Point(p13 + 3) = {27.51077567665093, -1.359265171753347, 0.1};
Point(p13 + 4) = {27.46628028677931, -1.286655294721884, 0.1};
Point(p13 + 5) = {27.41097402172282, -1.221899978277186, 0.1};
Point(p13 + 6) = {27.34621870527812, -1.166593713220694, 0.1};
Point(p13 + 7) = {27.27360882824665, -1.12209832334907, 0.1};
Point(p13 + 8) = {27.19493228677931, -1.089509432832685, 0.1};
Point(p13 + 9) = {27.11212635843947, -1.069629488312381, 0.1};
Point(p13 + 10) = {27.02723, -1.062948, 0.1};
Point(p13 + 11) = {26.94233364156053, -1.069629488312381, 0.1};
Point(p13 + 12) = {26.85952771322069, -1.089509432832685, 0.1};
Point(p13 + 13) = {26.78085117175335, -1.12209832334907, 0.1};
Point(p13 + 14) = {26.70824129472188, -1.166593713220694, 0.1};
Point(p13 + 15) = {26.64348597827718, -1.221899978277186, 0.1};
Point(p13 + 16) = {26.58817971322069, -1.286655294721884, 0.1};
Point(p13 + 17) = {26.54368432334907, -1.359265171753347, 0.1};
Point(p13 + 18) = {26.51109543283269, -1.437941713220694, 0.1};
Point(p13 + 19) = {26.49121548831238, -1.520747641560527, 0.1};
Point(p13 + 20) = {26.484534, -1.605644, 0.1};
Point(p13 + 21) = {26.49121548831238, -1.690540358439473, 0.1};
Point(p13 + 22) = {26.51109543283269, -1.773346286779307, 0.1};
Point(p13 + 23) = {26.54368432334907, -1.852022828246653, 0.1};
Point(p13 + 24) = {26.58817971322069, -1.924632705278116, 0.1};
Point(p13 + 25) = {26.64348597827718, -1.989388021722815, 0.1};
Point(p13 + 26) = {26.70824129472188, -2.044694286779306, 0.1};
Point(p13 + 27) = {26.78085117175335, -2.089189676650931, 0.1};
Point(p13 + 28) = {26.85952771322069, -2.121778567167315, 0.1};
Point(p13 + 29) = {26.94233364156053, -2.141658511687619, 0.1};
Point(p13 + 30) = {27.02723, -2.14834, 0.1};
Point(p13 + 31) = {27.11212635843947, -2.141658511687619, 0.1};
Point(p13 + 32) = {27.19493228677931, -2.121778567167315, 0.1};
Point(p13 + 33) = {27.27360882824665, -2.089189676650931, 0.1};
Point(p13 + 34) = {27.34621870527812, -2.044694286779307, 0.1};
Point(p13 + 35) = {27.41097402172282, -1.989388021722815, 0.1};
Point(p13 + 36) = {27.46628028677931, -1.924632705278116, 0.1};
Point(p13 + 37) = {27.51077567665093, -1.852022828246653, 0.1};
Point(p13 + 38) = {27.54336456716731, -1.773346286779307, 0.1};
Point(p13 + 39) = {27.56324451168762, -1.690540358439473, 0.1};
Spline(13) = {9, p13 + 1, p13 + 2, p13 + 3, p13 + 4, p13 + 5, p13 + 6, p13 + 7, p13 + 8, p13 + 9, p13 + 10, p13 + 11, p13 + 12, p13 + 13, p13 + 14, p13 + 15, p13 + 16, p13 + 17, p13 + 18, p13 + 19, p13 + 20, p13 + 21, p13 + 22, p13 + 23, p13 + 24, p13 + 25, p13 + 26, p13 + 27, p13 + 28, p13 + 29, p13 + 30, p13 + 31, p13 + 32, p13 + 33, p13 + 34, p13 + 35, p13 + 36, p13 + 37, p13 + 38, p13 + 39, 9};
Line(14) = {10, 9};
p15 = newp;
Point(p15 + 1) = {27.56324451168762, -1.520747641560527, 0};
Point(p15 + 2) = {27.54336456716731, -1.437941713220694, 0};
Point(p15 + 3) = {27.51077567665093, -1.359265171753347, 0};
Point(p15 + 4) = {27.46628028677931, -1.286655294721884, 0};
Point(p15 + 5) = {27.41097402172282, -1.221899978277186, 0};
Point(p15 + 6) = {27.34621870527812, -1.166593713220694, 0};
Point(p15 + 7) = {27.27360882824665, -1.12209832334907, 0};
Point(p15 + 8) = {27.19493228677931, -1.089509432832685, 0};
Point(p15 + 9) = {27.11212635843947, -1.069629488312381, 0};
Point(p15 + 10) = {27.02723, -1.062948, 0};
Point(p15 + 11) = {26.94233364156053, -1.069629488312381, 0};
Point(p15 + 12) = {26.85952771322069, -1.089509432832685, 0};
Point(p15 + 13) = {26.78085117175335, -1.12209832334907, 0};
Point(p15 + 14) = {26.70824129472188, -1.166593713220694, 0};
Point(p15 + 15) = {26.64348597827718, -1.221899978277186, 0};
Point(p15 + 16) = {26.58817971322069, -1.286655294721884, 0};
Point(p15 + 17) = {26.54368432334907, -1.359265171753347, 0};
Point(p15 + 18) = {26.51109543283269, -1.437941713220694, 0};
Point(p15 + 19) = {26.49121548831238, -1.520747641560527, 0};
Point(p15 + 20) = {26.484534, -1.605644, 0};
Point(p15 + 21) = {26.49121548831238, -1.690540358439473, 0};
Point(p15 + 22) = {26.51109543283269, -1.773346286779307, 0};
Point(p15 + 23) = {26.54368432334907, -1.852022828246653, 0};
Point(p15 + 24) = {26.58817971322069, -1.924632705278116, 0};
Point(p15 + 25) = {26.64348597827718, -1.989388021722815, 0};
Point(p15 + 26) = {26.70824129472188, -2.044694286779306, 0};
Point(p15 + 27) = {26.78085117175335, -2.089189676650931, 0};
Point(p15 + 28) = {26.85952771322069, -2.121778567167315, 0};
Point(p15 + 29) = {26.94233364156053, -2.141658511687619, 0};
Point(p15 + 30) = {27.02723, -2.14834, 0};
Point(p15 + 31) = {27.11212635843947, -2.141658511687619, 0};
Point(p15 + 32) = {27.19493228677931, -2.121778567167315, 0};
Point(p15 + 33) = {27.27360882824665, -2.089189676650931, 0};
Point(p15 + 34) = {27.34621870527812, -2.044694286779307, 0};
Point(p15 + 35) = {27.41097402172282, -1.989388021722815, 0};
Point(p15 + 36) = {27.46628028677931, -1.924632705278116, 0};
Point(p15 + 37) = {27.51077567665093, -1.852022828246653, 0};
Point(p15 + 38) = {27.54336456716731, -1.773346286779307, 0};
Point(p15 + 39) = {27.56324451168762, -1.690540358439473, 0};
Spline(15) = {10, p15 + 1, p15 + 2, p15 + 3, p15 + 4, p15 + 5, p15 + 6, p15 + 7, p15 + 8, p15 + 9, p15 + 10, p15 + 11, p15 + 12, p15 + 13, p15 + 14, p15 + 15, p15 + 16, p15 + 17, p15 + 18, p15 + 19, p15 + 20, p15 + 21, p15 + 22, p15 + 23, p15 + 24, p15 + 25, p15 + 26, p15 + 27, p15 + 28, p15 + 29, p15 + 30, p15 + 31, p15 + 32, p15 + 33, p15 + 34, p15 + 35, p15 + 36, p15 + 37, p15 + 38, p15 + 39, 10};
p16 = newp;
Point(p16 + 1) = {7.465310754899488, -1.881981806636184, 0.1};
Point(p16 + 2) = {7.414633409999107, -1.670895473573833, 0.1};
Point(p16 + 3) = {7.33155880971877, -1.470335646888317, 0.1};
Point(p16 + 4) = {7.218132526426167, -1.285240775132538, 0.1};
Point(p16 + 5) = {7.077147491656219, -1.120168508343782, 0.1};
Point(p16 + 6) = {6.912075224867463, -0.9791834735738327, 0.1};
Point(p16 + 7) = {6.726980353111683, -0.8657571902812313, 0.1};
Point(p16 + 8) = {6.526420526426167, -0.7826825900008934, 0.1};
Point(p16 + 9) = {6.315334193363817, -0.7320052451005119, 0.1};
Point(p16 + 10) = {6.098919, -0.7149729999999999, 0.1};
Point(p16 + 11) = {5.882503806636183, -0.7320052451005121, 0.1};
Point(p16 + 12) = {5.671417473573833, -0.7826825900008931, 0.1};
Point(p16 + 13) = {5.470857646888318, -0.8657571902812311, 0.1};
Point(p16 + 14) = {5.285762775132538, -0.9791834735738325, 0.1};
Point(p16 + 15) = {5.120690508343782, -1.120168508343781, 0.1};
Point(p16 + 16) = {4.979705473573834, -1.285240775132537, 0.1};
Point(p16 + 17) = {4.866279190281232, -1.470335646888317, 0.1};
Point(p16 + 18) = {4.783204590000894, -1.670895473573832, 0.1};
Point(p16 + 19) = {4.732527245100512, -1.881981806636183, 0.1};
Point(p16 + 20) = {4.715495000000001, -2.098397, 0.1};
Point(p16 + 21) = {4.732527245100512, -2.314812193363816, 0.1};
Point(p16 + 22) = {4.783204590000894, -2.525898526426167, 0.1};
Point(p16 + 23) = {4.866279190281231, -2.726458353111682, 0.1};
Point(p16 + 24) = {4.979705473573834, -2.911553224867462, 0.1};
Point(p16 + 25) = {5.120690508343782, -3.076625491656218, 0.1};
Point(p16 + 26) = {5.285762775132538, -3.217610526426167, 0.1};
Point(p16 + 27) = {5.470857646888318, -3.331036809718769, 0.1};
Point(p16 + 28) = {5.671417473573833, -3.414111409999106, 0.1};
Point(p16 + 29) = {5.882503806636183, -3.464788754899487, 0.1};
Point(p16 + 30) = {6.098919, -3.481821, 0.1};
Point(p16 + 31) = {6.315334193363817, -3.464788754899488, 0.1};
Point(p16 + 32) = {6.526420526426167, -3.414111409999107, 0.1};
Point(p16 + 33) = {6.726980353111683, -3.331036809718769, 0.1};
Point(p16 + 34) = {6.912075224867462, -3.217610526426167, 0.1};
Point(p16 + 35) = {7.077147491656219, -3.076625491656218, 0.1};
Point(p16 + 36) = {7.218132526426167, -2.911553224867462, 0.1};
Point(p16 + 37) = {7.331558809718769, -2.726458353111683, 0.1};
Point(p16 + 38) = {7.414633409999107, -2.525898526426167, 0.1};
Point(p16 + 39) = {7.465310754899488, -2.314812193363816, 0.1};
Spline(16) = {11, p16 + 1, p16 + 2, p16 + 3, p16 + 4, p16 + 5, p16 + 6, p16 + 7, p16 + 8, p16 + 9, p16 + 10, p16 + 11, p16 + 12, p16 + 13, p16 + 14, p16 + 15, p16 + 16, p16 + 17, p16 + 18, p16 + 19, p16 + 20, p16 + 21, p16 + 22, p16 + 23, p16 + 24, p16 + 25, p16 + 26, p16 + 27, p16 + 28, p16 + 29, p16 + 30, p16 + 31, p16 + 32, p16 + 33, p16 + 34, p16 + 35, p16 + 36, p16 + 37, p16 + 38, p16 + 39, 11};
Line(17) = {12, 11};
p18 = newp;
Point(p18 + 1) = {7.465310754899488, -1.881981806636184, 0};
Point(p18 + 2) = {7.414633409999107, -1.670895473573833, 0};
Point(p18 + 3) = {7.33155880971877, -1.470335646888317, 0};
Point(p18 + 4) = {7.218132526426167, -1.285240775132538, 0};
Point(p18 + 5) = {7.077147491656219, -1.120168508343782, 0};
Point(p18 + 6) = {6.912075224867463, -0.9791834735738327, 0};
Point(p18 + 7) = {6.726980353111683, -0.8657571902812313, 0};
Point(p18 + 8) = {6.526420526426167, -0.7826825900008934, 0};
Point(p18 + 9) = {6.315334193363817, -0.7320052451005119, 0};
Point(p18 + 10) = {6.098919, -0.7149729999999999, 0};
Point(p18 + 11) = {5.882503806636183, -0.7320052451005121, 0};
Point(p18 + 12) = {5.671417473573833, -0.7826825900008931, 0};
Point(p18 + 13) = {5.470857646888318, -0.8657571902812311, 0};
Point(p18 + 14) = {5.285762775132538, -0.9791834735738325, 0};
Point(p18 + 15) = {5.120690508343782, -1.120168508343781, 0};
Point(p18 + 16) = {4.979705473573834, -1.285240775132537, 0};
Point(p18 + 17) = {4.866279190281232, -1.470335646888317, 0};
Point(p18 + 18) = {4.783204590000894, -1.670895473573832, 0};
Point(p18 + 19) = {4.732527245100512, -1.881981806636183, 0};
Point(p18 + 20) = {4.715495000000001, -2.098397, 0};
Point(p18 + 21) = {4.732527245100512, -2.314812193363816, 0};
Point(p18 + 22) = {4.783204590000894, -2.525898526426167, 0};
Point(p18 + 23) = {4.866279190281231, -2.726458353111682, 0};
Point(p18 + 24) = {4.979705473573834, -2.911553224867462, 0};
Point(p18 + 25) = {5.120690508343782, -3.076625491656218, 0};
Point(p18 + 26) = {5.285762775132538, -3.217610526426167, 0};
Point(p18 + 27) = {5.470857646888318, -3.331036809718769, 0};
Point(p18 + 28) = {5.671417473573833, -3.414111409999106, 0};
Point(p18 + 29) = {5.882503806636183, -3.464788754899487, 0};
Point(p18 + 30) = {6.098919, -3.481821, 0};
Point(p18 + 31) = {6.315334193363817, -3.464788754899488, 0};
Point(p18 + 32) = {6.526420526426167, -3.414111409999107, 0};
Point(p18 + 33) = {6.726980353111683, -3.331036809718769, 0};
Point(p18 + 34) = {6.912075224867462, -3.217610526426167, 0};
Point(p18 + 35) = {7.077147491656219, -3.076625491656218, 0};
Point(p18 + 36) = {7.218132526426167, -2.911553224867462, 0};
Point(p18 + 37) = {7.331558809718769, -2.726458353111683, 0};
Point(p18 + 38) = {7.414633409999107, -2.525898526426167, 0};
Point(p18 + 39) = {7.465310754899488, -2.314812193363816, 0};
Spline(18) = {12, p18 + 1, p18 + 2, p18 + 3, p18 + 4, p18 + 5, p18 + 6, p18 + 7, p18 + 8, p18 + 9, p18 + 10, p18 + 11, p18 + 12, p18 + 13, p18 + 14, p18 + 15, p18 + 16, p18 + 17, p18 + 18, p18 + 19, p18 + 20, p18 + 21, p18 + 22, p18 + 23, p18 + 24, p18 + 25, p18 + 26, p18 + 27, p18 + 28, p18 + 29, p18 + 30, p18 + 31, p18 + 32, p18 + 33, p18 + 34, p18 + 35, p18 + 36, p18 + 37, p18 + 38, p18 + 39, 12};
Line(19) = {14, 13};
Line(20) = {13, 15};
Line(21) = {16, 15};
Line(22) = {14, 16};
Line(23) = {14, 17};
Line(24) = {17, 18};
Line(25) = {13, 18};
Line(26) = {15, 19};
Line(27) = {18, 19};
Line(28) = {16, 20};
Line(29) = {20, 19};
Line(30) = {17, 20};
Curve Loop(7) = {-13, -14, 15, 14};
Surface(7) = {7};
Curve Loop(8) = {13};
Plane Surface(8) = {8};
Curve Loop(9) = {15};
Plane Surface(9) = {9};
Curve Loop(10) = {-16, -17, 18, 17};
Surface(10) = {10};
Curve Loop(11) = {16};
Plane Surface(11) = {11};
Curve Loop(12) = {18};
Plane Surface(12) = {12};
Curve Loop(13) = {-19, 22, 21, -20};
Plane Surface(13) = {13};
Curve Loop(14) = {-23, 19, 25, -24};
Plane Surface(14) = {14};
Curve Loop(15) = {-20, 25, 27, -26, -16, -13};
Plane Surface(15) = {15};
Curve Loop(16) = {-28, 21, 26, -29};
Plane Surface(16) = {16};
Curve Loop(17) = {-22, 23, 30, -28, -18, -15};
Plane Surface(17) = {17};
Curve Loop(18) = {-24, 30, 29, -27};
Plane Surface(18) = {18};
Surface Loop(1) = {13, 14, 15, 16, 17, 18, 10, 7};
Volume(1) = {1};
Surface Loop(2) = {7, 8, 9};
Volume(2) = {2};
Surface Loop(3) = {10, 11, 12};
Volume(3) = {3};
Physical Surface("WALLS") = {13, 18};
Physical Surface("LOAD") = {8, 11};
Physical Surface("BORDER") = {7, 9, 10, 12, 14, 15, 16, 17};
Physical Volume("SOLID") = {1, 2, 3};
