cl__1 = 0.091937;
cl__2 = 0.122029;
cl__3 = 2.562162;
cl__4 = 3.408034;
cl__5 = 0.678866;
cl__6 = 0.44789;
Point(9) = {36.174765, 2.137633, 0.1, cl__1};
Point(10) = {36.174765, 2.137633, 0, cl__1};
Point(11) = {13.633753, -0.7438220000000003, 0.1, cl__2};
Point(12) = {13.633753, -0.7438220000000003, 0, cl__2};
Point(13) = {0.150085, -3.509921, 0.1, cl__3};
Point(14) = {0.150085, -3.509921, 0, cl__3};
Point(15) = {0.150085, 5.372240999999999, 0.1, cl__4};
Point(16) = {0.150085, 5.372240999999999, 0, cl__4};
Point(17) = {38.574852, -3.509921, 0, cl__5};
Point(18) = {38.574852, -3.509921, 0.1, cl__5};
Point(19) = {38.574852, 5.372240999999999, 0.1, cl__6};
Point(20) = {38.574852, 5.372240999999999, 0, cl__6};
p13 = newp;
Point(p13 + 1) = {36.16344604200461, 2.281453997689572, 0.1};
Point(p13 + 2) = {36.12976787832976, 2.421733645101501, 0.1};
Point(p13 + 3) = {36.07455977713654, 2.555017791755048, 0.1};
Point(p13 + 4) = {35.9991811451015, 2.678024539614879, 0.1};
Point(p13 + 5) = {35.90548805431269, 2.787725054312695, 0.1};
Point(p13 + 6) = {35.79578753961488, 2.881418145101501, 0.1};
Point(p13 + 7) = {35.67278079175505, 2.956796777136536, 0.1};
Point(p13 + 8) = {35.5394966451015, 3.012004878329759, 0.1};
Point(p13 + 9) = {35.39921699768957, 3.045683042004611, 0.1};
Point(p13 + 10) = {35.255396, 3.057002, 0.1};
Point(p13 + 11) = {35.11157500231042, 3.045683042004611, 0.1};
Point(p13 + 12) = {34.97129535489849, 3.012004878329759, 0.1};
Point(p13 + 13) = {34.83801120824495, 2.956796777136536, 0.1};
Point(p13 + 14) = {34.71500446038512, 2.881418145101501, 0.1};
Point(p13 + 15) = {34.6053039456873, 2.787725054312695, 0.1};
Point(p13 + 16) = {34.5116108548985, 2.678024539614879, 0.1};
Point(p13 + 17) = {34.43623222286346, 2.555017791755048, 0.1};
Point(p13 + 18) = {34.38102412167024, 2.421733645101501, 0.1};
Point(p13 + 19) = {34.34734595799539, 2.281453997689572, 0.1};
Point(p13 + 20) = {34.33602699999999, 2.137633, 0.1};
Point(p13 + 21) = {34.34734595799539, 1.993812002310428, 0.1};
Point(p13 + 22) = {34.38102412167024, 1.853532354898499, 0.1};
Point(p13 + 23) = {34.43623222286346, 1.720248208244953, 0.1};
Point(p13 + 24) = {34.5116108548985, 1.597241460385121, 0.1};
Point(p13 + 25) = {34.6053039456873, 1.487540945687305, 0.1};
Point(p13 + 26) = {34.71500446038512, 1.393847854898499, 0.1};
Point(p13 + 27) = {34.83801120824495, 1.318469222863464, 0.1};
Point(p13 + 28) = {34.97129535489849, 1.263261121670241, 0.1};
Point(p13 + 29) = {35.11157500231042, 1.229582957995389, 0.1};
Point(p13 + 30) = {35.255396, 1.218264, 0.1};
Point(p13 + 31) = {35.39921699768957, 1.229582957995389, 0.1};
Point(p13 + 32) = {35.5394966451015, 1.263261121670241, 0.1};
Point(p13 + 33) = {35.67278079175505, 1.318469222863464, 0.1};
Point(p13 + 34) = {35.79578753961488, 1.393847854898499, 0.1};
Point(p13 + 35) = {35.90548805431269, 1.487540945687305, 0.1};
Point(p13 + 36) = {35.9991811451015, 1.597241460385121, 0.1};
Point(p13 + 37) = {36.07455977713654, 1.720248208244953, 0.1};
Point(p13 + 38) = {36.12976787832976, 1.853532354898499, 0.1};
Point(p13 + 39) = {36.16344604200461, 1.993812002310428, 0.1};
Spline(13) = {9, p13 + 1, p13 + 2, p13 + 3, p13 + 4, p13 + 5, p13 + 6, p13 + 7, p13 + 8, p13 + 9, p13 + 10, p13 + 11, p13 + 12, p13 + 13, p13 + 14, p13 + 15, p13 + 16, p13 + 17, p13 + 18, p13 + 19, p13 + 20, p13 + 21, p13 + 22, p13 + 23, p13 + 24, p13 + 25, p13 + 26, p13 + 27, p13 + 28, p13 + 29, p13 + 30, p13 + 31, p13 + 32, p13 + 33, p13 + 34, p13 + 35, p13 + 36, p13 + 37, p13 + 38, p13 + 39, 9};
Line(14) = {10, 9};
p15 = newp;
Point(p15 + 1) = {36.16344604200461, 2.281453997689572, 0};
Point(p15 + 2) = {36.12976787832976, 2.421733645101501, 0};
Point(p15 + 3) = {36.07455977713654, 2.555017791755048, 0};
Point(p15 + 4) = {35.9991811451015, 2.678024539614879, 0};
Point(p15 + 5) = {35.90548805431269, 2.787725054312695, 0};
Point(p15 + 6) = {35.79578753961488, 2.881418145101501, 0};
Point(p15 + 7) = {35.67278079175505, 2.956796777136536, 0};
Point(p15 + 8) = {35.5394966451015, 3.012004878329759, 0};
Point(p15 + 9) = {35.39921699768957, 3.045683042004611, 0};
Point(p15 + 10) = {35.255396, 3.057002, 0};
Point(p15 + 11) = {35.11157500231042, 3.045683042004611, 0};
Point(p15 + 12) = {34.97129535489849, 3.012004878329759, 0};
Point(p15 + 13) = {34.83801120824495, 2.956796777136536, 0};
Point(p15 + 14) = {34.71500446038512, 2.881418145101501, 0};
Point(p15 + 15) = {34.6053039456873, 2.787725054312695, 0};
Point(p15 + 16) = {34.5116108548985, 2.678024539614879, 0};
Point(p15 + 17) = {34.43623222286346, 2.555017791755048, 0};
Point(p15 + 18) = {34.38102412167024, 2.421733645101501, 0};
Point(p15 + 19) = {34.34734595799539, 2.281453997689572, 0};
Point(p15 + 20) = {34.33602699999999, 2.137633, 0};
Point(p15 + 21) = {34.34734595799539, 1.993812002310428, 0};
Point(p15 + 22) = {34.38102412167024, 1.853532354898499, 0};
Point(p15 + 23) = {34.43623222286346, 1.720248208244953, 0};
Point(p15 + 24) = {34.5116108548985, 1.597241460385121, 0};
Point(p15 + 25) = {34.6053039456873, 1.487540945687305, 0};
Point(p15 + 26) = {34.71500446038512, 1.393847854898499, 0};
Point(p15 + 27) = {34.83801120824495, 1.318469222863464, 0};
Point(p15 + 28) = {34.97129535489849, 1.263261121670241, 0};
Point(p15 + 29) = {35.11157500231042, 1.229582957995389, 0};
Point(p15 + 30) = {35.255396, 1.218264, 0};
Point(p15 + 31) = {35.39921699768957, 1.229582957995389, 0};
Point(p15 + 32) = {35.5394966451015, 1.263261121670241, 0};
Point(p15 + 33) = {35.67278079175505, 1.318469222863464, 0};
Point(p15 + 34) = {35.79578753961488, 1.393847854898499, 0};
Point(p15 + 35) = {35.90548805431269, 1.487540945687305, 0};
Point(p15 + 36) = {35.9991811451015, 1.597241460385121, 0};
Point(p15 + 37) = {36.07455977713654, 1.720248208244953, 0};
Point(p15 + 38) = {36.12976787832976, 1.853532354898499, 0};
Point(p15 + 39) = {36.16344604200461, 1.993812002310428, 0};
Spline(15) = {10, p15 + 1, p15 + 2, p15 + 3, p15 + 4, p15 + 5, p15 + 6, p15 + 7, p15 + 8, p15 + 9, p15 + 10, p15 + 11, p15 + 12, p15 + 13, p15 + 14, p15 + 15, p15 + 16, p15 + 17, p15 + 18, p15 + 19, p15 + 20, p15 + 21, p15 + 22, p15 + 23, p15 + 24, p15 + 25, p15 + 26, p15 + 27, p15 + 28, p15 + 29, p15 + 30, p15 + 31, p15 + 32, p15 + 33, p15 + 34, p15 + 35, p15 + 36, p15 + 37, p15 + 38, p15 + 39, 10};
p16 = newp;
Point(p16 + 1) = {13.61872922976816, -0.5529268995249867, 0.1};
Point(p16 + 2) = {13.57402785415678, -0.3667322699681841, 0.1};
Point(p16 + 3) = {13.50074956938878, -0.189822841053828, 0.1};
Point(p16 + 4) = {13.40069873003182, -0.02655471005052246, 0.1};
Point(p16 + 5) = {13.27633891980057, 0.1190519198005697, 0.1};
Point(p16 + 6) = {13.13073228994948, 0.2434117300318158, 0.1};
Point(p16 + 7) = {12.96746415894617, 0.343462569388775, 0.1};
Point(p16 + 8) = {12.79055473003182, 0.4167408541567803, 0.1};
Point(p16 + 9) = {12.60436010047501, 0.4614422297681595, 0.1};
Point(p16 + 10) = {12.413465, 0.4764660000000001, 0.1};
Point(p16 + 11) = {12.22256989952499, 0.4614422297681593, 0.1};
Point(p16 + 12) = {12.03637526996818, 0.4167408541567805, 0.1};
Point(p16 + 13) = {11.85946584105383, 0.3434625693887752, 0.1};
Point(p16 + 14) = {11.69619771005052, 0.2434117300318159, 0.1};
Point(p16 + 15) = {11.55059108019943, 0.1190519198005698, 0.1};
Point(p16 + 16) = {11.42623126996818, -0.02655471005052235, 0.1};
Point(p16 + 17) = {11.32618043061123, -0.1898228410538279, 0.1};
Point(p16 + 18) = {11.25290214584322, -0.366732269968184, 0.1};
Point(p16 + 19) = {11.20820077023184, -0.5529268995249865, 0.1};
Point(p16 + 20) = {11.193177, -0.7438219999999999, 0.1};
Point(p16 + 21) = {11.20820077023184, -0.9347171004750131, 0.1};
Point(p16 + 22) = {11.25290214584322, -1.120911730031816, 0.1};
Point(p16 + 23) = {11.32618043061123, -1.297821158946171, 0.1};
Point(p16 + 24) = {11.42623126996818, -1.461089289949477, 0.1};
Point(p16 + 25) = {11.55059108019943, -1.60669591980057, 0.1};
Point(p16 + 26) = {11.69619771005052, -1.731055730031816, 0.1};
Point(p16 + 27) = {11.85946584105383, -1.831106569388775, 0.1};
Point(p16 + 28) = {12.03637526996818, -1.90438485415678, 0.1};
Point(p16 + 29) = {12.22256989952499, -1.949086229768159, 0.1};
Point(p16 + 30) = {12.413465, -1.96411, 0.1};
Point(p16 + 31) = {12.60436010047501, -1.949086229768159, 0.1};
Point(p16 + 32) = {12.79055473003182, -1.90438485415678, 0.1};
Point(p16 + 33) = {12.96746415894617, -1.831106569388775, 0.1};
Point(p16 + 34) = {13.13073228994948, -1.731055730031816, 0.1};
Point(p16 + 35) = {13.27633891980057, -1.60669591980057, 0.1};
Point(p16 + 36) = {13.40069873003182, -1.461089289949478, 0.1};
Point(p16 + 37) = {13.50074956938878, -1.297821158946172, 0.1};
Point(p16 + 38) = {13.57402785415678, -1.120911730031816, 0.1};
Point(p16 + 39) = {13.61872922976816, -0.9347171004750136, 0.1};
Spline(16) = {11, p16 + 1, p16 + 2, p16 + 3, p16 + 4, p16 + 5, p16 + 6, p16 + 7, p16 + 8, p16 + 9, p16 + 10, p16 + 11, p16 + 12, p16 + 13, p16 + 14, p16 + 15, p16 + 16, p16 + 17, p16 + 18, p16 + 19, p16 + 20, p16 + 21, p16 + 22, p16 + 23, p16 + 24, p16 + 25, p16 + 26, p16 + 27, p16 + 28, p16 + 29, p16 + 30, p16 + 31, p16 + 32, p16 + 33, p16 + 34, p16 + 35, p16 + 36, p16 + 37, p16 + 38, p16 + 39, 11};
Line(17) = {12, 11};
p18 = newp;
Point(p18 + 1) = {13.61872922976816, -0.5529268995249867, 0};
Point(p18 + 2) = {13.57402785415678, -0.3667322699681841, 0};
Point(p18 + 3) = {13.50074956938878, -0.189822841053828, 0};
Point(p18 + 4) = {13.40069873003182, -0.02655471005052246, 0};
Point(p18 + 5) = {13.27633891980057, 0.1190519198005697, 0};
Point(p18 + 6) = {13.13073228994948, 0.2434117300318158, 0};
Point(p18 + 7) = {12.96746415894617, 0.343462569388775, 0};
Point(p18 + 8) = {12.79055473003182, 0.4167408541567803, 0};
Point(p18 + 9) = {12.60436010047501, 0.4614422297681595, 0};
Point(p18 + 10) = {12.413465, 0.4764660000000001, 0};
Point(p18 + 11) = {12.22256989952499, 0.4614422297681593, 0};
Point(p18 + 12) = {12.03637526996818, 0.4167408541567805, 0};
Point(p18 + 13) = {11.85946584105383, 0.3434625693887752, 0};
Point(p18 + 14) = {11.69619771005052, 0.2434117300318159, 0};
Point(p18 + 15) = {11.55059108019943, 0.1190519198005698, 0};
Point(p18 + 16) = {11.42623126996818, -0.02655471005052235, 0};
Point(p18 + 17) = {11.32618043061123, -0.1898228410538279, 0};
Point(p18 + 18) = {11.25290214584322, -0.366732269968184, 0};
Point(p18 + 19) = {11.20820077023184, -0.5529268995249865, 0};
Point(p18 + 20) = {11.193177, -0.7438219999999999, 0};
Point(p18 + 21) = {11.20820077023184, -0.9347171004750131, 0};
Point(p18 + 22) = {11.25290214584322, -1.120911730031816, 0};
Point(p18 + 23) = {11.32618043061123, -1.297821158946171, 0};
Point(p18 + 24) = {11.42623126996818, -1.461089289949477, 0};
Point(p18 + 25) = {11.55059108019943, -1.60669591980057, 0};
Point(p18 + 26) = {11.69619771005052, -1.731055730031816, 0};
Point(p18 + 27) = {11.85946584105383, -1.831106569388775, 0};
Point(p18 + 28) = {12.03637526996818, -1.90438485415678, 0};
Point(p18 + 29) = {12.22256989952499, -1.949086229768159, 0};
Point(p18 + 30) = {12.413465, -1.96411, 0};
Point(p18 + 31) = {12.60436010047501, -1.949086229768159, 0};
Point(p18 + 32) = {12.79055473003182, -1.90438485415678, 0};
Point(p18 + 33) = {12.96746415894617, -1.831106569388775, 0};
Point(p18 + 34) = {13.13073228994948, -1.731055730031816, 0};
Point(p18 + 35) = {13.27633891980057, -1.60669591980057, 0};
Point(p18 + 36) = {13.40069873003182, -1.461089289949478, 0};
Point(p18 + 37) = {13.50074956938878, -1.297821158946172, 0};
Point(p18 + 38) = {13.57402785415678, -1.120911730031816, 0};
Point(p18 + 39) = {13.61872922976816, -0.9347171004750136, 0};
Spline(18) = {12, p18 + 1, p18 + 2, p18 + 3, p18 + 4, p18 + 5, p18 + 6, p18 + 7, p18 + 8, p18 + 9, p18 + 10, p18 + 11, p18 + 12, p18 + 13, p18 + 14, p18 + 15, p18 + 16, p18 + 17, p18 + 18, p18 + 19, p18 + 20, p18 + 21, p18 + 22, p18 + 23, p18 + 24, p18 + 25, p18 + 26, p18 + 27, p18 + 28, p18 + 29, p18 + 30, p18 + 31, p18 + 32, p18 + 33, p18 + 34, p18 + 35, p18 + 36, p18 + 37, p18 + 38, p18 + 39, 12};
Line(19) = {14, 13};
Line(20) = {13, 15};
Line(21) = {16, 15};
Line(22) = {14, 16};
Line(23) = {14, 17};
Line(24) = {17, 18};
Line(25) = {13, 18};
Line(26) = {15, 19};
Line(27) = {18, 19};
Line(28) = {16, 20};
Line(29) = {20, 19};
Line(30) = {17, 20};
Curve Loop(7) = {-13, -14, 15, 14};
Surface(7) = {7};
Curve Loop(8) = {13};
Plane Surface(8) = {8};
Curve Loop(9) = {15};
Plane Surface(9) = {9};
Curve Loop(10) = {-16, -17, 18, 17};
Surface(10) = {10};
Curve Loop(11) = {16};
Plane Surface(11) = {11};
Curve Loop(12) = {18};
Plane Surface(12) = {12};
Curve Loop(13) = {-19, 22, 21, -20};
Plane Surface(13) = {13};
Curve Loop(14) = {-23, 19, 25, -24};
Plane Surface(14) = {14};
Curve Loop(15) = {-20, 25, 27, -26, -16, -13};
Plane Surface(15) = {15};
Curve Loop(16) = {-28, 21, 26, -29};
Plane Surface(16) = {16};
Curve Loop(17) = {-22, 23, 30, -28, -18, -15};
Plane Surface(17) = {17};
Curve Loop(18) = {-24, 30, 29, -27};
Plane Surface(18) = {18};
Surface Loop(1) = {13, 14, 15, 16, 17, 18, 10, 7};
Volume(1) = {1};
Surface Loop(2) = {7, 8, 9};
Volume(2) = {2};
Surface Loop(3) = {10, 11, 12};
Volume(3) = {3};
Physical Surface("WALLS") = {13, 18};
Physical Surface("LOAD") = {8, 11};
Physical Surface("BORDER") = {7, 9, 10, 12, 14, 15, 16, 17};
Physical Volume("SOLID") = {1, 2, 3};
