cl__1 = 0.088884;
cl__2 = 0.136264;
cl__3 = 0.595075;
cl__4 = 0.550455;
cl__5 = 2.581335;
cl__6 = 3.259558;
Point(9) = {7.172537, 0.8391589999999998, 0.1, cl__1};
Point(10) = {7.172537, 0.8391589999999998, 0, cl__1};
Point(11) = {15.93311, -2.162869000000001, 0.1, cl__2};
Point(12) = {15.93311, -2.162869000000001, 0, cl__2};
Point(13) = {0.231856, -4.145551, 0.1, cl__3};
Point(14) = {0.231856, -4.145551, 0, cl__3};
Point(15) = {0.231856, 4.955646000000001, 0.1, cl__4};
Point(16) = {0.231856, 4.955646000000001, 0, cl__4};
Point(17) = {31.844518, -4.145551, 0, cl__5};
Point(18) = {31.844518, -4.145551, 0.1, cl__5};
Point(19) = {31.844518, 4.955646000000001, 0.1, cl__6};
Point(20) = {31.844518, 4.955646000000001, 0, cl__6};
p13 = newp;
Point(p13 + 1) = {7.161593953901219, 0.9782035841684986, 0.1};
Point(p13 + 2) = {7.129034269717719, 1.113824429212251, 0.1};
Point(p13 + 3) = {7.075659674933492, 1.2426820998265, 0.1};
Point(p13 + 4) = {7.002784429212251, 1.361603692506633, 0.1};
Point(p13 + 5) = {6.912202962962726, 1.467660962962726, 0.1};
Point(p13 + 6) = {6.806145692506632, 1.558242429212251, 0.1};
Point(p13 + 7) = {6.6872240998265, 1.631117674933492, 0.1};
Point(p13 + 8) = {6.558366429212251, 1.684492269717719, 0.1};
Point(p13 + 9) = {6.422745584168498, 1.71705195390122, 0.1};
Point(p13 + 10) = {6.283701, 1.727995, 0.1};
Point(p13 + 11) = {6.144656415831501, 1.71705195390122, 0.1};
Point(p13 + 12) = {6.009035570787749, 1.684492269717719, 0.1};
Point(p13 + 13) = {5.8801779001735, 1.631117674933492, 0.1};
Point(p13 + 14) = {5.761256307493367, 1.558242429212251, 0.1};
Point(p13 + 15) = {5.655199037037273, 1.467660962962726, 0.1};
Point(p13 + 16) = {5.564617570787749, 1.361603692506633, 0.1};
Point(p13 + 17) = {5.491742325066507, 1.2426820998265, 0.1};
Point(p13 + 18) = {5.43836773028228, 1.113824429212251, 0.1};
Point(p13 + 19) = {5.40580804609878, 0.9782035841684987, 0.1};
Point(p13 + 20) = {5.394864999999999, 0.8391590000000001, 0.1};
Point(p13 + 21) = {5.40580804609878, 0.7001144158315015, 0.1};
Point(p13 + 22) = {5.43836773028228, 0.564493570787749, 0.1};
Point(p13 + 23) = {5.491742325066507, 0.4356359001735006, 0.1};
Point(p13 + 24) = {5.564617570787749, 0.3167143074933675, 0.1};
Point(p13 + 25) = {5.655199037037273, 0.2106570370372739, 0.1};
Point(p13 + 26) = {5.761256307493367, 0.1200755707877493, 0.1};
Point(p13 + 27) = {5.8801779001735, 0.04720032506650795, 0.1};
Point(p13 + 28) = {6.009035570787749, -0.006174269717719061, 0.1};
Point(p13 + 29) = {6.144656415831501, -0.0387339539012197, 0.1};
Point(p13 + 30) = {6.283701, -0.04967699999999997, 0.1};
Point(p13 + 31) = {6.422745584168498, -0.03873395390121981, 0.1};
Point(p13 + 32) = {6.55836642921225, -0.006174269717719172, 0.1};
Point(p13 + 33) = {6.6872240998265, 0.04720032506650773, 0.1};
Point(p13 + 34) = {6.806145692506632, 0.1200755707877491, 0.1};
Point(p13 + 35) = {6.912202962962726, 0.2106570370372737, 0.1};
Point(p13 + 36) = {7.002784429212251, 0.3167143074933673, 0.1};
Point(p13 + 37) = {7.075659674933492, 0.4356359001735, 0.1};
Point(p13 + 38) = {7.129034269717719, 0.564493570787749, 0.1};
Point(p13 + 39) = {7.161593953901219, 0.7001144158315011, 0.1};
Spline(13) = {9, p13 + 1, p13 + 2, p13 + 3, p13 + 4, p13 + 5, p13 + 6, p13 + 7, p13 + 8, p13 + 9, p13 + 10, p13 + 11, p13 + 12, p13 + 13, p13 + 14, p13 + 15, p13 + 16, p13 + 17, p13 + 18, p13 + 19, p13 + 20, p13 + 21, p13 + 22, p13 + 23, p13 + 24, p13 + 25, p13 + 26, p13 + 27, p13 + 28, p13 + 29, p13 + 30, p13 + 31, p13 + 32, p13 + 33, p13 + 34, p13 + 35, p13 + 36, p13 + 37, p13 + 38, p13 + 39, 9};
Line(14) = {10, 9};
p15 = newp;
Point(p15 + 1) = {7.161593953901219, 0.9782035841684986, 0};
Point(p15 + 2) = {7.129034269717719, 1.113824429212251, 0};
Point(p15 + 3) = {7.075659674933492, 1.2426820998265, 0};
Point(p15 + 4) = {7.002784429212251, 1.361603692506633, 0};
Point(p15 + 5) = {6.912202962962726, 1.467660962962726, 0};
Point(p15 + 6) = {6.806145692506632, 1.558242429212251, 0};
Point(p15 + 7) = {6.6872240998265, 1.631117674933492, 0};
Point(p15 + 8) = {6.558366429212251, 1.684492269717719, 0};
Point(p15 + 9) = {6.422745584168498, 1.71705195390122, 0};
Point(p15 + 10) = {6.283701, 1.727995, 0};
Point(p15 + 11) = {6.144656415831501, 1.71705195390122, 0};
Point(p15 + 12) = {6.009035570787749, 1.684492269717719, 0};
Point(p15 + 13) = {5.8801779001735, 1.631117674933492, 0};
Point(p15 + 14) = {5.761256307493367, 1.558242429212251, 0};
Point(p15 + 15) = {5.655199037037273, 1.467660962962726, 0};
Point(p15 + 16) = {5.564617570787749, 1.361603692506633, 0};
Point(p15 + 17) = {5.491742325066507, 1.2426820998265, 0};
Point(p15 + 18) = {5.43836773028228, 1.113824429212251, 0};
Point(p15 + 19) = {5.40580804609878, 0.9782035841684987, 0};
Point(p15 + 20) = {5.394864999999999, 0.8391590000000001, 0};
Point(p15 + 21) = {5.40580804609878, 0.7001144158315015, 0};
Point(p15 + 22) = {5.43836773028228, 0.564493570787749, 0};
Point(p15 + 23) = {5.491742325066507, 0.4356359001735006, 0};
Point(p15 + 24) = {5.564617570787749, 0.3167143074933675, 0};
Point(p15 + 25) = {5.655199037037273, 0.2106570370372739, 0};
Point(p15 + 26) = {5.761256307493367, 0.1200755707877493, 0};
Point(p15 + 27) = {5.8801779001735, 0.04720032506650795, 0};
Point(p15 + 28) = {6.009035570787749, -0.006174269717719061, 0};
Point(p15 + 29) = {6.144656415831501, -0.0387339539012197, 0};
Point(p15 + 30) = {6.283701, -0.04967699999999997, 0};
Point(p15 + 31) = {6.422745584168498, -0.03873395390121981, 0};
Point(p15 + 32) = {6.55836642921225, -0.006174269717719172, 0};
Point(p15 + 33) = {6.6872240998265, 0.04720032506650773, 0};
Point(p15 + 34) = {6.806145692506632, 0.1200755707877491, 0};
Point(p15 + 35) = {6.912202962962726, 0.2106570370372737, 0};
Point(p15 + 36) = {7.002784429212251, 0.3167143074933673, 0};
Point(p15 + 37) = {7.075659674933492, 0.4356359001735, 0};
Point(p15 + 38) = {7.129034269717719, 0.564493570787749, 0};
Point(p15 + 39) = {7.161593953901219, 0.7001144158315011, 0};
Spline(15) = {10, p15 + 1, p15 + 2, p15 + 3, p15 + 4, p15 + 5, p15 + 6, p15 + 7, p15 + 8, p15 + 9, p15 + 10, p15 + 11, p15 + 12, p15 + 13, p15 + 14, p15 + 15, p15 + 16, p15 + 17, p15 + 18, p15 + 19, p15 + 20, p15 + 21, p15 + 22, p15 + 23, p15 + 24, p15 + 25, p15 + 26, p15 + 27, p15 + 28, p15 + 29, p15 + 30, p15 + 31, p15 + 32, p15 + 33, p15 + 34, p15 + 35, p15 + 36, p15 + 37, p15 + 38, p15 + 39, 10};
p16 = newp;
Point(p16 + 1) = {15.91633367736354, -1.949705609860975, 0.1};
Point(p16 + 2) = {15.86641779819488, -1.741791009835905, 0.1};
Point(p16 + 3) = {15.78459145710046, -1.544244747406403, 0.1};
Point(p16 + 4) = {15.67286949016409, -1.361931067171941, 0.1};
Point(p16 + 5) = {15.53400286299569, -1.199339137004307, 0.1};
Point(p16 + 6) = {15.37141093282806, -1.060472509835905, 0.1};
Point(p16 + 7) = {15.1890972525936, -0.9487505428995351, 0.1};
Point(p16 + 8) = {14.99155099016409, -0.8669242018051209, 0.1};
Point(p16 + 9) = {14.78363639013902, -0.8170083226364633, 0.1};
Point(p16 + 10) = {14.570473, -0.8002320000000001, 0.1};
Point(p16 + 11) = {14.35730960986097, -0.8170083226364635, 0.1};
Point(p16 + 12) = {14.1493950098359, -0.8669242018051209, 0.1};
Point(p16 + 13) = {13.9518487474064, -0.9487505428995351, 0.1};
Point(p16 + 14) = {13.76953506717194, -1.060472509835905, 0.1};
Point(p16 + 15) = {13.60694313700431, -1.199339137004306, 0.1};
Point(p16 + 16) = {13.4680765098359, -1.361931067171941, 0.1};
Point(p16 + 17) = {13.35635454289953, -1.544244747406403, 0.1};
Point(p16 + 18) = {13.27452820180512, -1.741791009835905, 0.1};
Point(p16 + 19) = {13.22461232263646, -1.949705609860975, 0.1};
Point(p16 + 20) = {13.207836, -2.162869, 0.1};
Point(p16 + 21) = {13.22461232263646, -2.376032390139025, 0.1};
Point(p16 + 22) = {13.27452820180512, -2.583946990164096, 0.1};
Point(p16 + 23) = {13.35635454289953, -2.781493252593596, 0.1};
Point(p16 + 24) = {13.4680765098359, -2.963806932828059, 0.1};
Point(p16 + 25) = {13.60694313700431, -3.126398862995694, 0.1};
Point(p16 + 26) = {13.76953506717194, -3.265265490164095, 0.1};
Point(p16 + 27) = {13.9518487474064, -3.376987457100465, 0.1};
Point(p16 + 28) = {14.1493950098359, -3.458813798194879, 0.1};
Point(p16 + 29) = {14.35730960986097, -3.508729677363537, 0.1};
Point(p16 + 30) = {14.570473, -3.525506, 0.1};
Point(p16 + 31) = {14.78363639013902, -3.508729677363537, 0.1};
Point(p16 + 32) = {14.99155099016409, -3.458813798194879, 0.1};
Point(p16 + 33) = {15.1890972525936, -3.376987457100466, 0.1};
Point(p16 + 34) = {15.37141093282806, -3.265265490164095, 0.1};
Point(p16 + 35) = {15.53400286299569, -3.126398862995694, 0.1};
Point(p16 + 36) = {15.67286949016409, -2.963806932828059, 0.1};
Point(p16 + 37) = {15.78459145710046, -2.781493252593597, 0.1};
Point(p16 + 38) = {15.86641779819488, -2.583946990164096, 0.1};
Point(p16 + 39) = {15.91633367736354, -2.376032390139025, 0.1};
Spline(16) = {11, p16 + 1, p16 + 2, p16 + 3, p16 + 4, p16 + 5, p16 + 6, p16 + 7, p16 + 8, p16 + 9, p16 + 10, p16 + 11, p16 + 12, p16 + 13, p16 + 14, p16 + 15, p16 + 16, p16 + 17, p16 + 18, p16 + 19, p16 + 20, p16 + 21, p16 + 22, p16 + 23, p16 + 24, p16 + 25, p16 + 26, p16 + 27, p16 + 28, p16 + 29, p16 + 30, p16 + 31, p16 + 32, p16 + 33, p16 + 34, p16 + 35, p16 + 36, p16 + 37, p16 + 38, p16 + 39, 11};
Line(17) = {12, 11};
p18 = newp;
Point(p18 + 1) = {15.91633367736354, -1.949705609860975, 0};
Point(p18 + 2) = {15.86641779819488, -1.741791009835905, 0};
Point(p18 + 3) = {15.78459145710046, -1.544244747406403, 0};
Point(p18 + 4) = {15.67286949016409, -1.361931067171941, 0};
Point(p18 + 5) = {15.53400286299569, -1.199339137004307, 0};
Point(p18 + 6) = {15.37141093282806, -1.060472509835905, 0};
Point(p18 + 7) = {15.1890972525936, -0.9487505428995351, 0};
Point(p18 + 8) = {14.99155099016409, -0.8669242018051209, 0};
Point(p18 + 9) = {14.78363639013902, -0.8170083226364633, 0};
Point(p18 + 10) = {14.570473, -0.8002320000000001, 0};
Point(p18 + 11) = {14.35730960986097, -0.8170083226364635, 0};
Point(p18 + 12) = {14.1493950098359, -0.8669242018051209, 0};
Point(p18 + 13) = {13.9518487474064, -0.9487505428995351, 0};
Point(p18 + 14) = {13.76953506717194, -1.060472509835905, 0};
Point(p18 + 15) = {13.60694313700431, -1.199339137004306, 0};
Point(p18 + 16) = {13.4680765098359, -1.361931067171941, 0};
Point(p18 + 17) = {13.35635454289953, -1.544244747406403, 0};
Point(p18 + 18) = {13.27452820180512, -1.741791009835905, 0};
Point(p18 + 19) = {13.22461232263646, -1.949705609860975, 0};
Point(p18 + 20) = {13.207836, -2.162869, 0};
Point(p18 + 21) = {13.22461232263646, -2.376032390139025, 0};
Point(p18 + 22) = {13.27452820180512, -2.583946990164096, 0};
Point(p18 + 23) = {13.35635454289953, -2.781493252593596, 0};
Point(p18 + 24) = {13.4680765098359, -2.963806932828059, 0};
Point(p18 + 25) = {13.60694313700431, -3.126398862995694, 0};
Point(p18 + 26) = {13.76953506717194, -3.265265490164095, 0};
Point(p18 + 27) = {13.9518487474064, -3.376987457100465, 0};
Point(p18 + 28) = {14.1493950098359, -3.458813798194879, 0};
Point(p18 + 29) = {14.35730960986097, -3.508729677363537, 0};
Point(p18 + 30) = {14.570473, -3.525506, 0};
Point(p18 + 31) = {14.78363639013902, -3.508729677363537, 0};
Point(p18 + 32) = {14.99155099016409, -3.458813798194879, 0};
Point(p18 + 33) = {15.1890972525936, -3.376987457100466, 0};
Point(p18 + 34) = {15.37141093282806, -3.265265490164095, 0};
Point(p18 + 35) = {15.53400286299569, -3.126398862995694, 0};
Point(p18 + 36) = {15.67286949016409, -2.963806932828059, 0};
Point(p18 + 37) = {15.78459145710046, -2.781493252593597, 0};
Point(p18 + 38) = {15.86641779819488, -2.583946990164096, 0};
Point(p18 + 39) = {15.91633367736354, -2.376032390139025, 0};
Spline(18) = {12, p18 + 1, p18 + 2, p18 + 3, p18 + 4, p18 + 5, p18 + 6, p18 + 7, p18 + 8, p18 + 9, p18 + 10, p18 + 11, p18 + 12, p18 + 13, p18 + 14, p18 + 15, p18 + 16, p18 + 17, p18 + 18, p18 + 19, p18 + 20, p18 + 21, p18 + 22, p18 + 23, p18 + 24, p18 + 25, p18 + 26, p18 + 27, p18 + 28, p18 + 29, p18 + 30, p18 + 31, p18 + 32, p18 + 33, p18 + 34, p18 + 35, p18 + 36, p18 + 37, p18 + 38, p18 + 39, 12};
Line(19) = {14, 13};
Line(20) = {13, 15};
Line(21) = {16, 15};
Line(22) = {14, 16};
Line(23) = {14, 17};
Line(24) = {17, 18};
Line(25) = {13, 18};
Line(26) = {15, 19};
Line(27) = {18, 19};
Line(28) = {16, 20};
Line(29) = {20, 19};
Line(30) = {17, 20};
Curve Loop(7) = {-13, -14, 15, 14};
Surface(7) = {7};
Curve Loop(8) = {13};
Plane Surface(8) = {8};
Curve Loop(9) = {15};
Plane Surface(9) = {9};
Curve Loop(10) = {-16, -17, 18, 17};
Surface(10) = {10};
Curve Loop(11) = {16};
Plane Surface(11) = {11};
Curve Loop(12) = {18};
Plane Surface(12) = {12};
Curve Loop(13) = {-19, 22, 21, -20};
Plane Surface(13) = {13};
Curve Loop(14) = {-23, 19, 25, -24};
Plane Surface(14) = {14};
Curve Loop(15) = {-20, 25, 27, -26, -16, -13};
Plane Surface(15) = {15};
Curve Loop(16) = {-28, 21, 26, -29};
Plane Surface(16) = {16};
Curve Loop(17) = {-22, 23, 30, -28, -18, -15};
Plane Surface(17) = {17};
Curve Loop(18) = {-24, 30, 29, -27};
Plane Surface(18) = {18};
Surface Loop(1) = {13, 14, 15, 16, 17, 18, 10, 7};
Volume(1) = {1};
Surface Loop(2) = {7, 8, 9};
Volume(2) = {2};
Surface Loop(3) = {10, 11, 12};
Volume(3) = {3};
Physical Surface("WALLS") = {13, 18};
Physical Surface("LOAD") = {8, 11};
Physical Surface("BORDER") = {7, 9, 10, 12, 14, 15, 16, 17};
Physical Volume("SOLID") = {1, 2, 3};
