cl__1 = 0.06300699999999999;
cl__2 = 0.060593;
cl__3 = 0.761662;
cl__4 = 0.7858540000000001;
cl__5 = 1.920376;
cl__6 = 1.769409;
Point(9) = {13.178161, -0.4625500000000002, 0.1, cl__1};
Point(10) = {13.178161, -0.4625500000000002, 0, cl__1};
Point(11) = {18.043638, 1.4405, 0.1, cl__2};
Point(12) = {18.043638, 1.4405, 0, cl__2};
Point(13) = {0.318485, -3.962528, 0.1, cl__3};
Point(14) = {0.318485, -3.962528, 0, cl__3};
Point(15) = {0.318485, 4.245641, 0.1, cl__4};
Point(16) = {0.318485, 4.245641, 0, cl__4};
Point(17) = {37.043537, -3.962528, 0, cl__5};
Point(18) = {37.043537, -3.962528, 0.1, cl__5};
Point(19) = {37.043537, 4.245641, 0.1, cl__6};
Point(20) = {37.043537, 4.245641, 0, cl__6};
p13 = newp;
Point(p13 + 1) = {13.17040374351214, -0.3639847108742416, 0.1};
Point(p13 + 2) = {13.14732298344815, -0.2678464262861994, 0.1};
Point(p13 + 3) = {13.10948704472146, -0.1765023898671048, 0.1};
Point(p13 + 4) = {13.0578275737138, -0.09220179494707226, 0.1};
Point(p13 + 5) = {12.99361659804933, -0.01702040195066729, 0.1};
Point(p13 + 6) = {12.91843520505293, 0.04719057371380053, 0.1};
Point(p13 + 7) = {12.8341346101329, 0.09885004472146164, 0.1};
Point(p13 + 8) = {12.7427905737138, 0.1366859834481525, 0.1};
Point(p13 + 9) = {12.64665228912576, 0.1597667435121408, 0.1};
Point(p13 + 10) = {12.548087, 0.167524, 0.1};
Point(p13 + 11) = {12.44952171087424, 0.1597667435121408, 0.1};
Point(p13 + 12) = {12.3533834262862, 0.1366859834481526, 0.1};
Point(p13 + 13) = {12.26203938986711, 0.09885004472146175, 0.1};
Point(p13 + 14) = {12.17773879494707, 0.04719057371380064, 0.1};
Point(p13 + 15) = {12.10255740195067, -0.01702040195066723, 0.1};
Point(p13 + 16) = {12.0383464262862, -0.0922017949470722, 0.1};
Point(p13 + 17) = {11.98668695527854, -0.1765023898671048, 0.1};
Point(p13 + 18) = {11.94885101655185, -0.2678464262861994, 0.1};
Point(p13 + 19) = {11.92577025648786, -0.3639847108742415, 0.1};
Point(p13 + 20) = {11.918013, -0.46255, 0.1};
Point(p13 + 21) = {11.92577025648786, -0.5611152891257584, 0.1};
Point(p13 + 22) = {11.94885101655185, -0.6572535737138008, 0.1};
Point(p13 + 23) = {11.98668695527854, -0.7485976101328949, 0.1};
Point(p13 + 24) = {12.0383464262862, -0.8328982050529277, 0.1};
Point(p13 + 25) = {12.10255740195067, -0.9080795980493328, 0.1};
Point(p13 + 26) = {12.17773879494707, -0.9722905737138006, 0.1};
Point(p13 + 27) = {12.26203938986711, -1.023950044721462, 0.1};
Point(p13 + 28) = {12.3533834262862, -1.061785983448153, 0.1};
Point(p13 + 29) = {12.44952171087424, -1.084866743512141, 0.1};
Point(p13 + 30) = {12.548087, -1.092624, 0.1};
Point(p13 + 31) = {12.64665228912576, -1.084866743512141, 0.1};
Point(p13 + 32) = {12.7427905737138, -1.061785983448153, 0.1};
Point(p13 + 33) = {12.8341346101329, -1.023950044721462, 0.1};
Point(p13 + 34) = {12.91843520505293, -0.9722905737138008, 0.1};
Point(p13 + 35) = {12.99361659804933, -0.9080795980493328, 0.1};
Point(p13 + 36) = {13.0578275737138, -0.8328982050529279, 0.1};
Point(p13 + 37) = {13.10948704472146, -0.7485976101328953, 0.1};
Point(p13 + 38) = {13.14732298344815, -0.6572535737138008, 0.1};
Point(p13 + 39) = {13.17040374351214, -0.5611152891257586, 0.1};
Spline(13) = {9, p13 + 1, p13 + 2, p13 + 3, p13 + 4, p13 + 5, p13 + 6, p13 + 7, p13 + 8, p13 + 9, p13 + 10, p13 + 11, p13 + 12, p13 + 13, p13 + 14, p13 + 15, p13 + 16, p13 + 17, p13 + 18, p13 + 19, p13 + 20, p13 + 21, p13 + 22, p13 + 23, p13 + 24, p13 + 25, p13 + 26, p13 + 27, p13 + 28, p13 + 29, p13 + 30, p13 + 31, p13 + 32, p13 + 33, p13 + 34, p13 + 35, p13 + 36, p13 + 37, p13 + 38, p13 + 39, 9};
Line(14) = {10, 9};
p15 = newp;
Point(p15 + 1) = {13.17040374351214, -0.3639847108742416, 0};
Point(p15 + 2) = {13.14732298344815, -0.2678464262861994, 0};
Point(p15 + 3) = {13.10948704472146, -0.1765023898671048, 0};
Point(p15 + 4) = {13.0578275737138, -0.09220179494707226, 0};
Point(p15 + 5) = {12.99361659804933, -0.01702040195066729, 0};
Point(p15 + 6) = {12.91843520505293, 0.04719057371380053, 0};
Point(p15 + 7) = {12.8341346101329, 0.09885004472146164, 0};
Point(p15 + 8) = {12.7427905737138, 0.1366859834481525, 0};
Point(p15 + 9) = {12.64665228912576, 0.1597667435121408, 0};
Point(p15 + 10) = {12.548087, 0.167524, 0};
Point(p15 + 11) = {12.44952171087424, 0.1597667435121408, 0};
Point(p15 + 12) = {12.3533834262862, 0.1366859834481526, 0};
Point(p15 + 13) = {12.26203938986711, 0.09885004472146175, 0};
Point(p15 + 14) = {12.17773879494707, 0.04719057371380064, 0};
Point(p15 + 15) = {12.10255740195067, -0.01702040195066723, 0};
Point(p15 + 16) = {12.0383464262862, -0.0922017949470722, 0};
Point(p15 + 17) = {11.98668695527854, -0.1765023898671048, 0};
Point(p15 + 18) = {11.94885101655185, -0.2678464262861994, 0};
Point(p15 + 19) = {11.92577025648786, -0.3639847108742415, 0};
Point(p15 + 20) = {11.918013, -0.46255, 0};
Point(p15 + 21) = {11.92577025648786, -0.5611152891257584, 0};
Point(p15 + 22) = {11.94885101655185, -0.6572535737138008, 0};
Point(p15 + 23) = {11.98668695527854, -0.7485976101328949, 0};
Point(p15 + 24) = {12.0383464262862, -0.8328982050529277, 0};
Point(p15 + 25) = {12.10255740195067, -0.9080795980493328, 0};
Point(p15 + 26) = {12.17773879494707, -0.9722905737138006, 0};
Point(p15 + 27) = {12.26203938986711, -1.023950044721462, 0};
Point(p15 + 28) = {12.3533834262862, -1.061785983448153, 0};
Point(p15 + 29) = {12.44952171087424, -1.084866743512141, 0};
Point(p15 + 30) = {12.548087, -1.092624, 0};
Point(p15 + 31) = {12.64665228912576, -1.084866743512141, 0};
Point(p15 + 32) = {12.7427905737138, -1.061785983448153, 0};
Point(p15 + 33) = {12.8341346101329, -1.023950044721462, 0};
Point(p15 + 34) = {12.91843520505293, -0.9722905737138008, 0};
Point(p15 + 35) = {12.99361659804933, -0.9080795980493328, 0};
Point(p15 + 36) = {13.0578275737138, -0.8328982050529279, 0};
Point(p15 + 37) = {13.10948704472146, -0.7485976101328953, 0};
Point(p15 + 38) = {13.14732298344815, -0.6572535737138008, 0};
Point(p15 + 39) = {13.17040374351214, -0.5611152891257586, 0};
Spline(15) = {10, p15 + 1, p15 + 2, p15 + 3, p15 + 4, p15 + 5, p15 + 6, p15 + 7, p15 + 8, p15 + 9, p15 + 10, p15 + 11, p15 + 12, p15 + 13, p15 + 14, p15 + 15, p15 + 16, p15 + 17, p15 + 18, p15 + 19, p15 + 20, p15 + 21, p15 + 22, p15 + 23, p15 + 24, p15 + 25, p15 + 26, p15 + 27, p15 + 28, p15 + 29, p15 + 30, p15 + 31, p15 + 32, p15 + 33, p15 + 34, p15 + 35, p15 + 36, p15 + 37, p15 + 38, p15 + 39, 10};
p16 = newp;
Point(p16 + 1) = {18.03617803315179, 1.535287866098432, 0.1};
Point(p16 + 2) = {18.01398182174917, 1.627741740350629, 0.1};
Point(p16 + 3) = {17.97759591018189, 1.715585101535684, 0.1};
Point(p16 + 4) = {17.92791624035063, 1.796654954565821, 0.1};
Point(p16 + 5) = {17.86616609060402, 1.868955090604021, 0.1};
Point(p16 + 6) = {17.79386595456582, 1.930705240350629, 0.1};
Point(p16 + 7) = {17.71279610153568, 1.980384910181885, 0.1};
Point(p16 + 8) = {17.62495274035063, 2.016770821749173, 0.1};
Point(p16 + 9) = {17.53249886609843, 2.03896703315179, 0.1};
Point(p16 + 10) = {17.437711, 2.046427, 0.1};
Point(p16 + 11) = {17.34292313390157, 2.03896703315179, 0.1};
Point(p16 + 12) = {17.25046925964937, 2.016770821749173, 0.1};
Point(p16 + 13) = {17.16262589846432, 1.980384910181885, 0.1};
Point(p16 + 14) = {17.08155604543418, 1.930705240350629, 0.1};
Point(p16 + 15) = {17.00925590939598, 1.868955090604021, 0.1};
Point(p16 + 16) = {16.94750575964937, 1.796654954565821, 0.1};
Point(p16 + 17) = {16.89782608981811, 1.715585101535684, 0.1};
Point(p16 + 18) = {16.86144017825083, 1.627741740350629, 0.1};
Point(p16 + 19) = {16.83924396684821, 1.535287866098432, 0.1};
Point(p16 + 20) = {16.831784, 1.4405, 0.1};
Point(p16 + 21) = {16.83924396684821, 1.345712133901568, 0.1};
Point(p16 + 22) = {16.86144017825083, 1.253258259649371, 0.1};
Point(p16 + 23) = {16.89782608981811, 1.165414898464316, 0.1};
Point(p16 + 24) = {16.94750575964937, 1.084345045434179, 0.1};
Point(p16 + 25) = {17.00925590939598, 1.012044909395979, 0.1};
Point(p16 + 26) = {17.08155604543418, 0.9502947596493712, 0.1};
Point(p16 + 27) = {17.16262589846432, 0.9006150898181148, 0.1};
Point(p16 + 28) = {17.25046925964937, 0.8642291782508265, 0.1};
Point(p16 + 29) = {17.34292313390157, 0.8420329668482099, 0.1};
Point(p16 + 30) = {17.437711, 0.8345729999999999, 0.1};
Point(p16 + 31) = {17.53249886609843, 0.8420329668482098, 0.1};
Point(p16 + 32) = {17.62495274035063, 0.8642291782508263, 0.1};
Point(p16 + 33) = {17.71279610153568, 0.9006150898181147, 0.1};
Point(p16 + 34) = {17.79386595456582, 0.950294759649371, 0.1};
Point(p16 + 35) = {17.86616609060402, 1.012044909395979, 0.1};
Point(p16 + 36) = {17.92791624035063, 1.084345045434179, 0.1};
Point(p16 + 37) = {17.97759591018189, 1.165414898464315, 0.1};
Point(p16 + 38) = {18.01398182174917, 1.253258259649371, 0.1};
Point(p16 + 39) = {18.03617803315179, 1.345712133901568, 0.1};
Spline(16) = {11, p16 + 1, p16 + 2, p16 + 3, p16 + 4, p16 + 5, p16 + 6, p16 + 7, p16 + 8, p16 + 9, p16 + 10, p16 + 11, p16 + 12, p16 + 13, p16 + 14, p16 + 15, p16 + 16, p16 + 17, p16 + 18, p16 + 19, p16 + 20, p16 + 21, p16 + 22, p16 + 23, p16 + 24, p16 + 25, p16 + 26, p16 + 27, p16 + 28, p16 + 29, p16 + 30, p16 + 31, p16 + 32, p16 + 33, p16 + 34, p16 + 35, p16 + 36, p16 + 37, p16 + 38, p16 + 39, 11};
Line(17) = {12, 11};
p18 = newp;
Point(p18 + 1) = {18.03617803315179, 1.535287866098432, 0};
Point(p18 + 2) = {18.01398182174917, 1.627741740350629, 0};
Point(p18 + 3) = {17.97759591018189, 1.715585101535684, 0};
Point(p18 + 4) = {17.92791624035063, 1.796654954565821, 0};
Point(p18 + 5) = {17.86616609060402, 1.868955090604021, 0};
Point(p18 + 6) = {17.79386595456582, 1.930705240350629, 0};
Point(p18 + 7) = {17.71279610153568, 1.980384910181885, 0};
Point(p18 + 8) = {17.62495274035063, 2.016770821749173, 0};
Point(p18 + 9) = {17.53249886609843, 2.03896703315179, 0};
Point(p18 + 10) = {17.437711, 2.046427, 0};
Point(p18 + 11) = {17.34292313390157, 2.03896703315179, 0};
Point(p18 + 12) = {17.25046925964937, 2.016770821749173, 0};
Point(p18 + 13) = {17.16262589846432, 1.980384910181885, 0};
Point(p18 + 14) = {17.08155604543418, 1.930705240350629, 0};
Point(p18 + 15) = {17.00925590939598, 1.868955090604021, 0};
Point(p18 + 16) = {16.94750575964937, 1.796654954565821, 0};
Point(p18 + 17) = {16.89782608981811, 1.715585101535684, 0};
Point(p18 + 18) = {16.86144017825083, 1.627741740350629, 0};
Point(p18 + 19) = {16.83924396684821, 1.535287866098432, 0};
Point(p18 + 20) = {16.831784, 1.4405, 0};
Point(p18 + 21) = {16.83924396684821, 1.345712133901568, 0};
Point(p18 + 22) = {16.86144017825083, 1.253258259649371, 0};
Point(p18 + 23) = {16.89782608981811, 1.165414898464316, 0};
Point(p18 + 24) = {16.94750575964937, 1.084345045434179, 0};
Point(p18 + 25) = {17.00925590939598, 1.012044909395979, 0};
Point(p18 + 26) = {17.08155604543418, 0.9502947596493712, 0};
Point(p18 + 27) = {17.16262589846432, 0.9006150898181148, 0};
Point(p18 + 28) = {17.25046925964937, 0.8642291782508265, 0};
Point(p18 + 29) = {17.34292313390157, 0.8420329668482099, 0};
Point(p18 + 30) = {17.437711, 0.8345729999999999, 0};
Point(p18 + 31) = {17.53249886609843, 0.8420329668482098, 0};
Point(p18 + 32) = {17.62495274035063, 0.8642291782508263, 0};
Point(p18 + 33) = {17.71279610153568, 0.9006150898181147, 0};
Point(p18 + 34) = {17.79386595456582, 0.950294759649371, 0};
Point(p18 + 35) = {17.86616609060402, 1.012044909395979, 0};
Point(p18 + 36) = {17.92791624035063, 1.084345045434179, 0};
Point(p18 + 37) = {17.97759591018189, 1.165414898464315, 0};
Point(p18 + 38) = {18.01398182174917, 1.253258259649371, 0};
Point(p18 + 39) = {18.03617803315179, 1.345712133901568, 0};
Spline(18) = {12, p18 + 1, p18 + 2, p18 + 3, p18 + 4, p18 + 5, p18 + 6, p18 + 7, p18 + 8, p18 + 9, p18 + 10, p18 + 11, p18 + 12, p18 + 13, p18 + 14, p18 + 15, p18 + 16, p18 + 17, p18 + 18, p18 + 19, p18 + 20, p18 + 21, p18 + 22, p18 + 23, p18 + 24, p18 + 25, p18 + 26, p18 + 27, p18 + 28, p18 + 29, p18 + 30, p18 + 31, p18 + 32, p18 + 33, p18 + 34, p18 + 35, p18 + 36, p18 + 37, p18 + 38, p18 + 39, 12};
Line(19) = {14, 13};
Line(20) = {13, 15};
Line(21) = {16, 15};
Line(22) = {14, 16};
Line(23) = {14, 17};
Line(24) = {17, 18};
Line(25) = {13, 18};
Line(26) = {15, 19};
Line(27) = {18, 19};
Line(28) = {16, 20};
Line(29) = {20, 19};
Line(30) = {17, 20};
Curve Loop(7) = {-13, -14, 15, 14};
Surface(7) = {7};
Curve Loop(8) = {13};
Plane Surface(8) = {8};
Curve Loop(9) = {15};
Plane Surface(9) = {9};
Curve Loop(10) = {-16, -17, 18, 17};
Surface(10) = {10};
Curve Loop(11) = {16};
Plane Surface(11) = {11};
Curve Loop(12) = {18};
Plane Surface(12) = {12};
Curve Loop(13) = {-19, 22, 21, -20};
Plane Surface(13) = {13};
Curve Loop(14) = {-23, 19, 25, -24};
Plane Surface(14) = {14};
Curve Loop(15) = {-20, 25, 27, -26, -13, -16};
Plane Surface(15) = {15};
Curve Loop(16) = {-28, 21, 26, -29};
Plane Surface(16) = {16};
Curve Loop(17) = {-22, 23, 30, -28, -15, -18};
Plane Surface(17) = {17};
Curve Loop(18) = {-24, 30, 29, -27};
Plane Surface(18) = {18};
Surface Loop(1) = {13, 14, 15, 16, 17, 18, 7, 10};
Volume(1) = {1};
Surface Loop(2) = {7, 8, 9};
Volume(2) = {2};
Surface Loop(3) = {10, 11, 12};
Volume(3) = {3};
Physical Surface("WALLS") = {13, 18};
Physical Surface("LOAD") = {8, 11};
Physical Surface("BORDER") = {7, 9, 10, 12, 14, 15, 16, 17};
Physical Volume("SOLID") = {1, 2, 3};
