cl__1 = 0.134253;
cl__2 = 0.052837;
cl__3 = 2.668704;
cl__4 = 2.247857;
cl__5 = 0.652187;
cl__6 = 0.650783;
Point(9) = {24.072687, 0.9616879999999997, 0.1, cl__1};
Point(10) = {24.072687, 0.9616879999999997, 0, cl__1};
Point(11) = {18.305981, 2.974882, 0.1, cl__2};
Point(12) = {18.305981, 2.974882, 0, cl__2};
Point(13) = {0.168636, -3.631809, 0.1, cl__3};
Point(14) = {0.168636, -3.631809, 0, cl__3};
Point(15) = {0.168636, 5.515022999999999, 0.1, cl__4};
Point(16) = {0.168636, 5.515022999999999, 0, cl__4};
Point(17) = {31.541943, -3.631809, 0, cl__5};
Point(18) = {31.541943, -3.631809, 0.1, cl__5};
Point(19) = {31.541943, 5.515022999999999, 0.1, cl__6};
Point(20) = {31.541943, 5.515022999999999, 0, cl__6};
p13 = newp;
Point(p13 + 1) = {24.05615822789919, 1.171705962350461, 0.1};
Point(p13 + 2) = {24.00697890482173, 1.376552585458198, 0.1};
Point(p13 + 3) = {23.92635998891861, 1.571183865615334, 0.1};
Point(p13 + 4) = {23.8162865854582, 1.750807334760214, 0.1};
Point(p13 + 5) = {23.67946906694637, 1.911000066946376, 0.1};
Point(p13 + 6) = {23.51927633476021, 2.047817585458198, 0.1};
Point(p13 + 7) = {23.33965286561533, 2.157890988918609, 0.1};
Point(p13 + 8) = {23.1450215854582, 2.238509904821732, 0.1};
Point(p13 + 9) = {22.94017496235046, 2.28768922789919, 0.1};
Point(p13 + 10) = {22.730157, 2.304218, 0.1};
Point(p13 + 11) = {22.52013903764954, 2.28768922789919, 0.1};
Point(p13 + 12) = {22.3152924145418, 2.238509904821733, 0.1};
Point(p13 + 13) = {22.12066113438467, 2.15789098891861, 0.1};
Point(p13 + 14) = {21.94103766523978, 2.047817585458198, 0.1};
Point(p13 + 15) = {21.78084493305362, 1.911000066946376, 0.1};
Point(p13 + 16) = {21.6440274145418, 1.750807334760214, 0.1};
Point(p13 + 17) = {21.53395401108139, 1.571183865615334, 0.1};
Point(p13 + 18) = {21.45333509517826, 1.376552585458198, 0.1};
Point(p13 + 19) = {21.40415577210081, 1.171705962350461, 0.1};
Point(p13 + 20) = {21.387627, 0.9616880000000001, 0.1};
Point(p13 + 21) = {21.40415577210081, 0.751670037649539, 0.1};
Point(p13 + 22) = {21.45333509517826, 0.5468234145418014, 0.1};
Point(p13 + 23) = {21.53395401108139, 0.3521921343846669, 0.1};
Point(p13 + 24) = {21.6440274145418, 0.1725686652397862, 0.1};
Point(p13 + 25) = {21.78084493305362, 0.01237593305362439, 0.1};
Point(p13 + 26) = {21.94103766523978, -0.1244415854581981, 0.1};
Point(p13 + 27) = {22.12066113438467, -0.2345149889186094, 0.1};
Point(p13 + 28) = {22.3152924145418, -0.3151339048217324, 0.1};
Point(p13 + 29) = {22.52013903764954, -0.3643132278991902, 0.1};
Point(p13 + 30) = {22.730157, -0.380842, 0.1};
Point(p13 + 31) = {22.94017496235046, -0.3643132278991904, 0.1};
Point(p13 + 32) = {23.1450215854582, -0.3151339048217326, 0.1};
Point(p13 + 33) = {23.33965286561533, -0.2345149889186097, 0.1};
Point(p13 + 34) = {23.51927633476021, -0.1244415854581983, 0.1};
Point(p13 + 35) = {23.67946906694637, 0.01237593305362417, 0.1};
Point(p13 + 36) = {23.8162865854582, 0.1725686652397859, 0.1};
Point(p13 + 37) = {23.92635998891861, 0.352192134384666, 0.1};
Point(p13 + 38) = {24.00697890482173, 0.5468234145418016, 0.1};
Point(p13 + 39) = {24.05615822789919, 0.7516700376495384, 0.1};
Spline(13) = {9, p13 + 1, p13 + 2, p13 + 3, p13 + 4, p13 + 5, p13 + 6, p13 + 7, p13 + 8, p13 + 9, p13 + 10, p13 + 11, p13 + 12, p13 + 13, p13 + 14, p13 + 15, p13 + 16, p13 + 17, p13 + 18, p13 + 19, p13 + 20, p13 + 21, p13 + 22, p13 + 23, p13 + 24, p13 + 25, p13 + 26, p13 + 27, p13 + 28, p13 + 29, p13 + 30, p13 + 31, p13 + 32, p13 + 33, p13 + 34, p13 + 35, p13 + 36, p13 + 37, p13 + 38, p13 + 39, 9};
Line(14) = {10, 9};
p15 = newp;
Point(p15 + 1) = {24.05615822789919, 1.171705962350461, 0};
Point(p15 + 2) = {24.00697890482173, 1.376552585458198, 0};
Point(p15 + 3) = {23.92635998891861, 1.571183865615334, 0};
Point(p15 + 4) = {23.8162865854582, 1.750807334760214, 0};
Point(p15 + 5) = {23.67946906694637, 1.911000066946376, 0};
Point(p15 + 6) = {23.51927633476021, 2.047817585458198, 0};
Point(p15 + 7) = {23.33965286561533, 2.157890988918609, 0};
Point(p15 + 8) = {23.1450215854582, 2.238509904821732, 0};
Point(p15 + 9) = {22.94017496235046, 2.28768922789919, 0};
Point(p15 + 10) = {22.730157, 2.304218, 0};
Point(p15 + 11) = {22.52013903764954, 2.28768922789919, 0};
Point(p15 + 12) = {22.3152924145418, 2.238509904821733, 0};
Point(p15 + 13) = {22.12066113438467, 2.15789098891861, 0};
Point(p15 + 14) = {21.94103766523978, 2.047817585458198, 0};
Point(p15 + 15) = {21.78084493305362, 1.911000066946376, 0};
Point(p15 + 16) = {21.6440274145418, 1.750807334760214, 0};
Point(p15 + 17) = {21.53395401108139, 1.571183865615334, 0};
Point(p15 + 18) = {21.45333509517826, 1.376552585458198, 0};
Point(p15 + 19) = {21.40415577210081, 1.171705962350461, 0};
Point(p15 + 20) = {21.387627, 0.9616880000000001, 0};
Point(p15 + 21) = {21.40415577210081, 0.751670037649539, 0};
Point(p15 + 22) = {21.45333509517826, 0.5468234145418014, 0};
Point(p15 + 23) = {21.53395401108139, 0.3521921343846669, 0};
Point(p15 + 24) = {21.6440274145418, 0.1725686652397862, 0};
Point(p15 + 25) = {21.78084493305362, 0.01237593305362439, 0};
Point(p15 + 26) = {21.94103766523978, -0.1244415854581981, 0};
Point(p15 + 27) = {22.12066113438467, -0.2345149889186094, 0};
Point(p15 + 28) = {22.3152924145418, -0.3151339048217324, 0};
Point(p15 + 29) = {22.52013903764954, -0.3643132278991902, 0};
Point(p15 + 30) = {22.730157, -0.380842, 0};
Point(p15 + 31) = {22.94017496235046, -0.3643132278991904, 0};
Point(p15 + 32) = {23.1450215854582, -0.3151339048217326, 0};
Point(p15 + 33) = {23.33965286561533, -0.2345149889186097, 0};
Point(p15 + 34) = {23.51927633476021, -0.1244415854581983, 0};
Point(p15 + 35) = {23.67946906694637, 0.01237593305362417, 0};
Point(p15 + 36) = {23.8162865854582, 0.1725686652397859, 0};
Point(p15 + 37) = {23.92635998891861, 0.352192134384666, 0};
Point(p15 + 38) = {24.00697890482173, 0.5468234145418016, 0};
Point(p15 + 39) = {24.05615822789919, 0.7516700376495384, 0};
Spline(15) = {10, p15 + 1, p15 + 2, p15 + 3, p15 + 4, p15 + 5, p15 + 6, p15 + 7, p15 + 8, p15 + 9, p15 + 10, p15 + 11, p15 + 12, p15 + 13, p15 + 14, p15 + 15, p15 + 16, p15 + 17, p15 + 18, p15 + 19, p15 + 20, p15 + 21, p15 + 22, p15 + 23, p15 + 24, p15 + 25, p15 + 26, p15 + 27, p15 + 28, p15 + 29, p15 + 30, p15 + 31, p15 + 32, p15 + 33, p15 + 34, p15 + 35, p15 + 36, p15 + 37, p15 + 38, p15 + 39, 10};
p16 = newp;
Point(p16 + 1) = {18.29947585158527, 3.057537747596702, 0.1};
Point(p16 + 2) = {18.28012058468442, 3.138158236368874, 0.1};
Point(p16 + 3) = {18.24839179020498, 3.214758322318883, 0.1};
Point(p16 + 4) = {18.20507073636887, 3.285451857109531, 0.1};
Point(p16 + 5) = {18.15122413129588, 3.34849813129588, 0.1};
Point(p16 + 6) = {18.08817785710953, 3.402344736368874, 0.1};
Point(p16 + 7) = {18.01748432231889, 3.445665790204981, 0.1};
Point(p16 + 8) = {17.94088423636887, 3.477394584684419, 0.1};
Point(p16 + 9) = {17.8602637475967, 3.496749851585275, 0.1};
Point(p16 + 10) = {17.777608, 3.503255, 0.1};
Point(p16 + 11) = {17.6949522524033, 3.496749851585275, 0.1};
Point(p16 + 12) = {17.61433176363113, 3.477394584684419, 0.1};
Point(p16 + 13) = {17.53773167768112, 3.445665790204981, 0.1};
Point(p16 + 14) = {17.46703814289047, 3.402344736368874, 0.1};
Point(p16 + 15) = {17.40399186870412, 3.34849813129588, 0.1};
Point(p16 + 16) = {17.35014526363113, 3.285451857109531, 0.1};
Point(p16 + 17) = {17.30682420979502, 3.214758322318884, 0.1};
Point(p16 + 18) = {17.27509541531558, 3.138158236368874, 0.1};
Point(p16 + 19) = {17.25574014841473, 3.057537747596702, 0.1};
Point(p16 + 20) = {17.249235, 2.974882, 0.1};
Point(p16 + 21) = {17.25574014841473, 2.892226252403298, 0.1};
Point(p16 + 22) = {17.27509541531558, 2.811605763631126, 0.1};
Point(p16 + 23) = {17.30682420979502, 2.735005677681117, 0.1};
Point(p16 + 24) = {17.35014526363113, 2.664312142890469, 0.1};
Point(p16 + 25) = {17.40399186870412, 2.60126586870412, 0.1};
Point(p16 + 26) = {17.46703814289047, 2.547419263631126, 0.1};
Point(p16 + 27) = {17.53773167768112, 2.50409820979502, 0.1};
Point(p16 + 28) = {17.61433176363113, 2.472369415315581, 0.1};
Point(p16 + 29) = {17.6949522524033, 2.453014148414725, 0.1};
Point(p16 + 30) = {17.777608, 2.446509, 0.1};
Point(p16 + 31) = {17.8602637475967, 2.453014148414725, 0.1};
Point(p16 + 32) = {17.94088423636887, 2.472369415315581, 0.1};
Point(p16 + 33) = {18.01748432231889, 2.50409820979502, 0.1};
Point(p16 + 34) = {18.08817785710953, 2.547419263631126, 0.1};
Point(p16 + 35) = {18.15122413129588, 2.60126586870412, 0.1};
Point(p16 + 36) = {18.20507073636887, 2.664312142890469, 0.1};
Point(p16 + 37) = {18.24839179020498, 2.735005677681116, 0.1};
Point(p16 + 38) = {18.28012058468442, 2.811605763631126, 0.1};
Point(p16 + 39) = {18.29947585158527, 2.892226252403298, 0.1};
Spline(16) = {11, p16 + 1, p16 + 2, p16 + 3, p16 + 4, p16 + 5, p16 + 6, p16 + 7, p16 + 8, p16 + 9, p16 + 10, p16 + 11, p16 + 12, p16 + 13, p16 + 14, p16 + 15, p16 + 16, p16 + 17, p16 + 18, p16 + 19, p16 + 20, p16 + 21, p16 + 22, p16 + 23, p16 + 24, p16 + 25, p16 + 26, p16 + 27, p16 + 28, p16 + 29, p16 + 30, p16 + 31, p16 + 32, p16 + 33, p16 + 34, p16 + 35, p16 + 36, p16 + 37, p16 + 38, p16 + 39, 11};
Line(17) = {12, 11};
p18 = newp;
Point(p18 + 1) = {18.29947585158527, 3.057537747596702, 0};
Point(p18 + 2) = {18.28012058468442, 3.138158236368874, 0};
Point(p18 + 3) = {18.24839179020498, 3.214758322318883, 0};
Point(p18 + 4) = {18.20507073636887, 3.285451857109531, 0};
Point(p18 + 5) = {18.15122413129588, 3.34849813129588, 0};
Point(p18 + 6) = {18.08817785710953, 3.402344736368874, 0};
Point(p18 + 7) = {18.01748432231889, 3.445665790204981, 0};
Point(p18 + 8) = {17.94088423636887, 3.477394584684419, 0};
Point(p18 + 9) = {17.8602637475967, 3.496749851585275, 0};
Point(p18 + 10) = {17.777608, 3.503255, 0};
Point(p18 + 11) = {17.6949522524033, 3.496749851585275, 0};
Point(p18 + 12) = {17.61433176363113, 3.477394584684419, 0};
Point(p18 + 13) = {17.53773167768112, 3.445665790204981, 0};
Point(p18 + 14) = {17.46703814289047, 3.402344736368874, 0};
Point(p18 + 15) = {17.40399186870412, 3.34849813129588, 0};
Point(p18 + 16) = {17.35014526363113, 3.285451857109531, 0};
Point(p18 + 17) = {17.30682420979502, 3.214758322318884, 0};
Point(p18 + 18) = {17.27509541531558, 3.138158236368874, 0};
Point(p18 + 19) = {17.25574014841473, 3.057537747596702, 0};
Point(p18 + 20) = {17.249235, 2.974882, 0};
Point(p18 + 21) = {17.25574014841473, 2.892226252403298, 0};
Point(p18 + 22) = {17.27509541531558, 2.811605763631126, 0};
Point(p18 + 23) = {17.30682420979502, 2.735005677681117, 0};
Point(p18 + 24) = {17.35014526363113, 2.664312142890469, 0};
Point(p18 + 25) = {17.40399186870412, 2.60126586870412, 0};
Point(p18 + 26) = {17.46703814289047, 2.547419263631126, 0};
Point(p18 + 27) = {17.53773167768112, 2.50409820979502, 0};
Point(p18 + 28) = {17.61433176363113, 2.472369415315581, 0};
Point(p18 + 29) = {17.6949522524033, 2.453014148414725, 0};
Point(p18 + 30) = {17.777608, 2.446509, 0};
Point(p18 + 31) = {17.8602637475967, 2.453014148414725, 0};
Point(p18 + 32) = {17.94088423636887, 2.472369415315581, 0};
Point(p18 + 33) = {18.01748432231889, 2.50409820979502, 0};
Point(p18 + 34) = {18.08817785710953, 2.547419263631126, 0};
Point(p18 + 35) = {18.15122413129588, 2.60126586870412, 0};
Point(p18 + 36) = {18.20507073636887, 2.664312142890469, 0};
Point(p18 + 37) = {18.24839179020498, 2.735005677681116, 0};
Point(p18 + 38) = {18.28012058468442, 2.811605763631126, 0};
Point(p18 + 39) = {18.29947585158527, 2.892226252403298, 0};
Spline(18) = {12, p18 + 1, p18 + 2, p18 + 3, p18 + 4, p18 + 5, p18 + 6, p18 + 7, p18 + 8, p18 + 9, p18 + 10, p18 + 11, p18 + 12, p18 + 13, p18 + 14, p18 + 15, p18 + 16, p18 + 17, p18 + 18, p18 + 19, p18 + 20, p18 + 21, p18 + 22, p18 + 23, p18 + 24, p18 + 25, p18 + 26, p18 + 27, p18 + 28, p18 + 29, p18 + 30, p18 + 31, p18 + 32, p18 + 33, p18 + 34, p18 + 35, p18 + 36, p18 + 37, p18 + 38, p18 + 39, 12};
Line(19) = {14, 13};
Line(20) = {13, 15};
Line(21) = {16, 15};
Line(22) = {14, 16};
Line(23) = {14, 17};
Line(24) = {17, 18};
Line(25) = {13, 18};
Line(26) = {15, 19};
Line(27) = {18, 19};
Line(28) = {16, 20};
Line(29) = {20, 19};
Line(30) = {17, 20};
Curve Loop(7) = {-13, -14, 15, 14};
Surface(7) = {7};
Curve Loop(8) = {13};
Plane Surface(8) = {8};
Curve Loop(9) = {15};
Plane Surface(9) = {9};
Curve Loop(10) = {-16, -17, 18, 17};
Surface(10) = {10};
Curve Loop(11) = {16};
Plane Surface(11) = {11};
Curve Loop(12) = {18};
Plane Surface(12) = {12};
Curve Loop(13) = {-19, 22, 21, -20};
Plane Surface(13) = {13};
Curve Loop(14) = {-23, 19, 25, -24};
Plane Surface(14) = {14};
Curve Loop(15) = {-20, 25, 27, -26, -13, -16};
Plane Surface(15) = {15};
Curve Loop(16) = {-28, 21, 26, -29};
Plane Surface(16) = {16};
Curve Loop(17) = {-22, 23, 30, -28, -15, -18};
Plane Surface(17) = {17};
Curve Loop(18) = {-24, 30, 29, -27};
Plane Surface(18) = {18};
Surface Loop(1) = {13, 14, 15, 16, 17, 18, 7, 10};
Volume(1) = {1};
Surface Loop(2) = {7, 8, 9};
Volume(2) = {2};
Surface Loop(3) = {10, 11, 12};
Volume(3) = {3};
Physical Surface("WALLS") = {13, 18};
Physical Surface("LOAD") = {8, 11};
Physical Surface("BORDER") = {7, 9, 10, 12, 14, 15, 16, 17};
Physical Volume("SOLID") = {1, 2, 3};
