cl__1 = 0.147498;
cl__2 = 0.094484;
cl__3 = 0.764838;
cl__4 = 0.82685;
cl__5 = 1.44747;
cl__6 = 2.083026;
Point(9) = {11.657936, -0.2288260000000004, 0.1, cl__1};
Point(10) = {11.657936, -0.2288260000000004, 0, cl__1};
Point(11) = {17.872033, -2.183978000000001, 0.1, cl__2};
Point(12) = {17.872033, -2.183978000000001, 0, cl__2};
Point(13) = {0.284175, -4.171667, 0.1, cl__3};
Point(14) = {0.284175, -4.171667, 0, cl__3};
Point(15) = {0.284175, 5.424627, 0.1, cl__4};
Point(16) = {0.284175, 5.424627, 0, cl__4};
Point(17) = {31.312771, -4.171667, 0, cl__5};
Point(18) = {31.312771, -4.171667, 0.1, cl__5};
Point(19) = {31.312771, 5.424627, 0.1, cl__6};
Point(20) = {31.312771, 5.424627, 0, cl__6};
p13 = newp;
Point(p13 + 1) = {11.6397765239877, 0.00191202011396982, 0.1};
Point(p13 + 2) = {11.58574524251806, 0.2269685043971487, 0.1};
Point(p13 + 3) = {11.49717258506041, 0.4408018152868362, 0.1};
Point(p13 + 4) = {11.37623950439715, 0.6381466669968566, 0.1};
Point(p13 + 5) = {11.2259237743281, 0.8141437743280961, 0.1};
Point(p13 + 6) = {11.04992666699686, 0.9644595043971487, 0.1};
Point(p13 + 7) = {10.85258181528684, 1.085392585060407, 0.1};
Point(p13 + 8) = {10.63874850439715, 1.173965242518058, 0.1};
Point(p13 + 9) = {10.41369202011397, 1.227996523987698, 0.1};
Point(p13 + 10) = {10.182954, 1.246156, 0.1};
Point(p13 + 11) = {9.952215979886031, 1.227996523987697, 0.1};
Point(p13 + 12) = {9.727159495602852, 1.173965242518058, 0.1};
Point(p13 + 13) = {9.513326184713165, 1.085392585060407, 0.1};
Point(p13 + 14) = {9.315981333003144, 0.9644595043971487, 0.1};
Point(p13 + 15) = {9.139984225671904, 0.8141437743280964, 0.1};
Point(p13 + 16) = {8.989668495602851, 0.6381466669968568, 0.1};
Point(p13 + 17) = {8.868735414939593, 0.4408018152868364, 0.1};
Point(p13 + 18) = {8.780162757481943, 0.2269685043971488, 0.1};
Point(p13 + 19) = {8.726131476012304, 0.001912020113969959, 0.1};
Point(p13 + 20) = {8.707972, -0.2288259999999998, 0.1};
Point(p13 + 21) = {8.726131476012302, -0.4595640201139697, 0.1};
Point(p13 + 22) = {8.780162757481943, -0.6846205043971492, 0.1};
Point(p13 + 23) = {8.868735414939593, -0.8984538152868354, 0.1};
Point(p13 + 24) = {8.989668495602851, -1.095798666996856, 0.1};
Point(p13 + 25) = {9.139984225671904, -1.271795774328096, 0.1};
Point(p13 + 26) = {9.315981333003144, -1.422111504397149, 0.1};
Point(p13 + 27) = {9.513326184713165, -1.543044585060407, 0.1};
Point(p13 + 28) = {9.727159495602852, -1.631617242518058, 0.1};
Point(p13 + 29) = {9.952215979886031, -1.685648523987697, 0.1};
Point(p13 + 30) = {10.182954, -1.703808, 0.1};
Point(p13 + 31) = {10.41369202011397, -1.685648523987697, 0.1};
Point(p13 + 32) = {10.63874850439715, -1.631617242518058, 0.1};
Point(p13 + 33) = {10.85258181528684, -1.543044585060407, 0.1};
Point(p13 + 34) = {11.04992666699686, -1.422111504397149, 0.1};
Point(p13 + 35) = {11.2259237743281, -1.271795774328097, 0.1};
Point(p13 + 36) = {11.37623950439715, -1.095798666996857, 0.1};
Point(p13 + 37) = {11.49717258506041, -0.8984538152868364, 0.1};
Point(p13 + 38) = {11.58574524251806, -0.6846205043971489, 0.1};
Point(p13 + 39) = {11.6397765239877, -0.4595640201139702, 0.1};
Spline(13) = {9, p13 + 1, p13 + 2, p13 + 3, p13 + 4, p13 + 5, p13 + 6, p13 + 7, p13 + 8, p13 + 9, p13 + 10, p13 + 11, p13 + 12, p13 + 13, p13 + 14, p13 + 15, p13 + 16, p13 + 17, p13 + 18, p13 + 19, p13 + 20, p13 + 21, p13 + 22, p13 + 23, p13 + 24, p13 + 25, p13 + 26, p13 + 27, p13 + 28, p13 + 29, p13 + 30, p13 + 31, p13 + 32, p13 + 33, p13 + 34, p13 + 35, p13 + 36, p13 + 37, p13 + 38, p13 + 39, 9};
Line(14) = {10, 9};
p15 = newp;
Point(p15 + 1) = {11.6397765239877, 0.00191202011396982, 0};
Point(p15 + 2) = {11.58574524251806, 0.2269685043971487, 0};
Point(p15 + 3) = {11.49717258506041, 0.4408018152868362, 0};
Point(p15 + 4) = {11.37623950439715, 0.6381466669968566, 0};
Point(p15 + 5) = {11.2259237743281, 0.8141437743280961, 0};
Point(p15 + 6) = {11.04992666699686, 0.9644595043971487, 0};
Point(p15 + 7) = {10.85258181528684, 1.085392585060407, 0};
Point(p15 + 8) = {10.63874850439715, 1.173965242518058, 0};
Point(p15 + 9) = {10.41369202011397, 1.227996523987698, 0};
Point(p15 + 10) = {10.182954, 1.246156, 0};
Point(p15 + 11) = {9.952215979886031, 1.227996523987697, 0};
Point(p15 + 12) = {9.727159495602852, 1.173965242518058, 0};
Point(p15 + 13) = {9.513326184713165, 1.085392585060407, 0};
Point(p15 + 14) = {9.315981333003144, 0.9644595043971487, 0};
Point(p15 + 15) = {9.139984225671904, 0.8141437743280964, 0};
Point(p15 + 16) = {8.989668495602851, 0.6381466669968568, 0};
Point(p15 + 17) = {8.868735414939593, 0.4408018152868364, 0};
Point(p15 + 18) = {8.780162757481943, 0.2269685043971488, 0};
Point(p15 + 19) = {8.726131476012304, 0.001912020113969959, 0};
Point(p15 + 20) = {8.707972, -0.2288259999999998, 0};
Point(p15 + 21) = {8.726131476012302, -0.4595640201139697, 0};
Point(p15 + 22) = {8.780162757481943, -0.6846205043971492, 0};
Point(p15 + 23) = {8.868735414939593, -0.8984538152868354, 0};
Point(p15 + 24) = {8.989668495602851, -1.095798666996856, 0};
Point(p15 + 25) = {9.139984225671904, -1.271795774328096, 0};
Point(p15 + 26) = {9.315981333003144, -1.422111504397149, 0};
Point(p15 + 27) = {9.513326184713165, -1.543044585060407, 0};
Point(p15 + 28) = {9.727159495602852, -1.631617242518058, 0};
Point(p15 + 29) = {9.952215979886031, -1.685648523987697, 0};
Point(p15 + 30) = {10.182954, -1.703808, 0};
Point(p15 + 31) = {10.41369202011397, -1.685648523987697, 0};
Point(p15 + 32) = {10.63874850439715, -1.631617242518058, 0};
Point(p15 + 33) = {10.85258181528684, -1.543044585060407, 0};
Point(p15 + 34) = {11.04992666699686, -1.422111504397149, 0};
Point(p15 + 35) = {11.2259237743281, -1.271795774328097, 0};
Point(p15 + 36) = {11.37623950439715, -1.095798666996857, 0};
Point(p15 + 37) = {11.49717258506041, -0.8984538152868364, 0};
Point(p15 + 38) = {11.58574524251806, -0.6846205043971489, 0};
Point(p15 + 39) = {11.6397765239877, -0.4595640201139702, 0};
Spline(15) = {10, p15 + 1, p15 + 2, p15 + 3, p15 + 4, p15 + 5, p15 + 6, p15 + 7, p15 + 8, p15 + 9, p15 + 10, p15 + 11, p15 + 12, p15 + 13, p15 + 14, p15 + 15, p15 + 16, p15 + 17, p15 + 18, p15 + 19, p15 + 20, p15 + 21, p15 + 22, p15 + 23, p15 + 24, p15 + 25, p15 + 26, p15 + 27, p15 + 28, p15 + 29, p15 + 30, p15 + 31, p15 + 32, p15 + 33, p15 + 34, p15 + 35, p15 + 36, p15 + 37, p15 + 38, p15 + 39, 10};
p16 = newp;
Point(p16 + 1) = {17.86040039016961, -2.036171677879063, 0.1};
Point(p16 + 2) = {17.8257889941389, -1.892004837949803, 0.1};
Point(p16 + 3) = {17.76905105934676, -1.755027346273588, 0.1};
Point(p16 + 4) = {17.6915836620502, -1.628612043297718, 0.1};
Point(p16 + 5) = {17.5952943066702, -1.515871693329797, 0.1};
Point(p16 + 6) = {17.48255395670228, -1.419582337949803, 0.1};
Point(p16 + 7) = {17.35613865372641, -1.342114940653242, 0.1};
Point(p16 + 8) = {17.2191611620502, -1.285377005861106, 0.1};
Point(p16 + 9) = {17.07499432212094, -1.250765609830387, 0.1};
Point(p16 + 10) = {16.927188, -1.239133, 0.1};
Point(p16 + 11) = {16.77938167787907, -1.250765609830387, 0.1};
Point(p16 + 12) = {16.6352148379498, -1.285377005861106, 0.1};
Point(p16 + 13) = {16.49823734627359, -1.342114940653242, 0.1};
Point(p16 + 14) = {16.37182204329772, -1.419582337949803, 0.1};
Point(p16 + 15) = {16.2590816933298, -1.515871693329797, 0.1};
Point(p16 + 16) = {16.1627923379498, -1.628612043297718, 0.1};
Point(p16 + 17) = {16.08532494065324, -1.755027346273588, 0.1};
Point(p16 + 18) = {16.02858700586111, -1.892004837949803, 0.1};
Point(p16 + 19) = {15.99397560983039, -2.036171677879063, 0.1};
Point(p16 + 20) = {15.982343, -2.183978, 0.1};
Point(p16 + 21) = {15.99397560983039, -2.331784322120937, 0.1};
Point(p16 + 22) = {16.02858700586111, -2.475951162050197, 0.1};
Point(p16 + 23) = {16.08532494065324, -2.612928653726412, 0.1};
Point(p16 + 24) = {16.1627923379498, -2.739343956702282, 0.1};
Point(p16 + 25) = {16.2590816933298, -2.852084306670204, 0.1};
Point(p16 + 26) = {16.37182204329772, -2.948373662050197, 0.1};
Point(p16 + 27) = {16.49823734627359, -3.025841059346758, 0.1};
Point(p16 + 28) = {16.6352148379498, -3.082578994138895, 0.1};
Point(p16 + 29) = {16.77938167787907, -3.117190390169613, 0.1};
Point(p16 + 30) = {16.927188, -3.128823, 0.1};
Point(p16 + 31) = {17.07499432212094, -3.117190390169613, 0.1};
Point(p16 + 32) = {17.2191611620502, -3.082578994138895, 0.1};
Point(p16 + 33) = {17.35613865372641, -3.025841059346759, 0.1};
Point(p16 + 34) = {17.48255395670228, -2.948373662050197, 0.1};
Point(p16 + 35) = {17.5952943066702, -2.852084306670204, 0.1};
Point(p16 + 36) = {17.6915836620502, -2.739343956702282, 0.1};
Point(p16 + 37) = {17.76905105934676, -2.612928653726413, 0.1};
Point(p16 + 38) = {17.8257889941389, -2.475951162050197, 0.1};
Point(p16 + 39) = {17.86040039016961, -2.331784322120937, 0.1};
Spline(16) = {11, p16 + 1, p16 + 2, p16 + 3, p16 + 4, p16 + 5, p16 + 6, p16 + 7, p16 + 8, p16 + 9, p16 + 10, p16 + 11, p16 + 12, p16 + 13, p16 + 14, p16 + 15, p16 + 16, p16 + 17, p16 + 18, p16 + 19, p16 + 20, p16 + 21, p16 + 22, p16 + 23, p16 + 24, p16 + 25, p16 + 26, p16 + 27, p16 + 28, p16 + 29, p16 + 30, p16 + 31, p16 + 32, p16 + 33, p16 + 34, p16 + 35, p16 + 36, p16 + 37, p16 + 38, p16 + 39, 11};
Line(17) = {12, 11};
p18 = newp;
Point(p18 + 1) = {17.86040039016961, -2.036171677879063, 0};
Point(p18 + 2) = {17.8257889941389, -1.892004837949803, 0};
Point(p18 + 3) = {17.76905105934676, -1.755027346273588, 0};
Point(p18 + 4) = {17.6915836620502, -1.628612043297718, 0};
Point(p18 + 5) = {17.5952943066702, -1.515871693329797, 0};
Point(p18 + 6) = {17.48255395670228, -1.419582337949803, 0};
Point(p18 + 7) = {17.35613865372641, -1.342114940653242, 0};
Point(p18 + 8) = {17.2191611620502, -1.285377005861106, 0};
Point(p18 + 9) = {17.07499432212094, -1.250765609830387, 0};
Point(p18 + 10) = {16.927188, -1.239133, 0};
Point(p18 + 11) = {16.77938167787907, -1.250765609830387, 0};
Point(p18 + 12) = {16.6352148379498, -1.285377005861106, 0};
Point(p18 + 13) = {16.49823734627359, -1.342114940653242, 0};
Point(p18 + 14) = {16.37182204329772, -1.419582337949803, 0};
Point(p18 + 15) = {16.2590816933298, -1.515871693329797, 0};
Point(p18 + 16) = {16.1627923379498, -1.628612043297718, 0};
Point(p18 + 17) = {16.08532494065324, -1.755027346273588, 0};
Point(p18 + 18) = {16.02858700586111, -1.892004837949803, 0};
Point(p18 + 19) = {15.99397560983039, -2.036171677879063, 0};
Point(p18 + 20) = {15.982343, -2.183978, 0};
Point(p18 + 21) = {15.99397560983039, -2.331784322120937, 0};
Point(p18 + 22) = {16.02858700586111, -2.475951162050197, 0};
Point(p18 + 23) = {16.08532494065324, -2.612928653726412, 0};
Point(p18 + 24) = {16.1627923379498, -2.739343956702282, 0};
Point(p18 + 25) = {16.2590816933298, -2.852084306670204, 0};
Point(p18 + 26) = {16.37182204329772, -2.948373662050197, 0};
Point(p18 + 27) = {16.49823734627359, -3.025841059346758, 0};
Point(p18 + 28) = {16.6352148379498, -3.082578994138895, 0};
Point(p18 + 29) = {16.77938167787907, -3.117190390169613, 0};
Point(p18 + 30) = {16.927188, -3.128823, 0};
Point(p18 + 31) = {17.07499432212094, -3.117190390169613, 0};
Point(p18 + 32) = {17.2191611620502, -3.082578994138895, 0};
Point(p18 + 33) = {17.35613865372641, -3.025841059346759, 0};
Point(p18 + 34) = {17.48255395670228, -2.948373662050197, 0};
Point(p18 + 35) = {17.5952943066702, -2.852084306670204, 0};
Point(p18 + 36) = {17.6915836620502, -2.739343956702282, 0};
Point(p18 + 37) = {17.76905105934676, -2.612928653726413, 0};
Point(p18 + 38) = {17.8257889941389, -2.475951162050197, 0};
Point(p18 + 39) = {17.86040039016961, -2.331784322120937, 0};
Spline(18) = {12, p18 + 1, p18 + 2, p18 + 3, p18 + 4, p18 + 5, p18 + 6, p18 + 7, p18 + 8, p18 + 9, p18 + 10, p18 + 11, p18 + 12, p18 + 13, p18 + 14, p18 + 15, p18 + 16, p18 + 17, p18 + 18, p18 + 19, p18 + 20, p18 + 21, p18 + 22, p18 + 23, p18 + 24, p18 + 25, p18 + 26, p18 + 27, p18 + 28, p18 + 29, p18 + 30, p18 + 31, p18 + 32, p18 + 33, p18 + 34, p18 + 35, p18 + 36, p18 + 37, p18 + 38, p18 + 39, 12};
Line(19) = {14, 13};
Line(20) = {13, 15};
Line(21) = {16, 15};
Line(22) = {14, 16};
Line(23) = {14, 17};
Line(24) = {17, 18};
Line(25) = {13, 18};
Line(26) = {15, 19};
Line(27) = {18, 19};
Line(28) = {16, 20};
Line(29) = {20, 19};
Line(30) = {17, 20};
Curve Loop(7) = {-13, -14, 15, 14};
Surface(7) = {7};
Curve Loop(8) = {13};
Plane Surface(8) = {8};
Curve Loop(9) = {15};
Plane Surface(9) = {9};
Curve Loop(10) = {-16, -17, 18, 17};
Surface(10) = {10};
Curve Loop(11) = {16};
Plane Surface(11) = {11};
Curve Loop(12) = {18};
Plane Surface(12) = {12};
Curve Loop(13) = {-19, 22, 21, -20};
Plane Surface(13) = {13};
Curve Loop(14) = {-23, 19, 25, -24};
Plane Surface(14) = {14};
Curve Loop(15) = {-20, 25, 27, -26, -16, -13};
Plane Surface(15) = {15};
Curve Loop(16) = {-28, 21, 26, -29};
Plane Surface(16) = {16};
Curve Loop(17) = {-22, 23, 30, -28, -18, -15};
Plane Surface(17) = {17};
Curve Loop(18) = {-24, 30, 29, -27};
Plane Surface(18) = {18};
Surface Loop(1) = {13, 14, 15, 16, 17, 18, 10, 7};
Volume(1) = {1};
Surface Loop(2) = {7, 8, 9};
Volume(2) = {2};
Surface Loop(3) = {10, 11, 12};
Volume(3) = {3};
Physical Surface("WALLS") = {13, 18};
Physical Surface("LOAD") = {8, 11};
Physical Surface("BORDER") = {7, 9, 10, 12, 14, 15, 16, 17};
Physical Volume("SOLID") = {1, 2, 3};
