cl__1 = 0.091657;
cl__2 = 0.100733;
cl__3 = 0.45257;
cl__4 = 0.456986;
cl__5 = 2.999292;
cl__6 = 4.478318;
Point(9) = {20.24358, -2.224168, 0.1, cl__1};
Point(10) = {20.24358, -2.224168, 0, cl__1};
Point(11) = {3.13488, 0.2234099999999997, 0.1, cl__2};
Point(12) = {3.13488, 0.2234099999999997, 0, cl__2};
Point(13) = {0.5153759999999999, -4.04461, 1, cl__3};
Point(14) = {0.5153759999999999, -4.04461, 0, cl__3};
Point(15) = {0.5153759999999999, 4.528487000000001, 1, cl__4};
Point(16) = {0.5153759999999999, 4.528487000000001, 0, cl__4};
Point(17) = {31.435769, -4.04461, 0, cl__5};
Point(18) = {31.435769, -4.04461, 1, cl__5};
Point(19) = {31.435769, 4.528487000000001, 1, cl__6};
Point(20) = {31.435769, 4.528487000000001, 0, cl__6};
p13 = newp;
Point(p13 + 1) = {20.23229552696261, -2.080785175247006, 0.1};
Point(p13 + 2) = {20.19871996902762, -1.940932911499743, 0.1};
Point(p13 + 3) = {20.14368006786228, -1.808054835634723, 0.1};
Point(p13 + 4) = {20.06853108850026, -1.685422846876793, 0.1};
Point(p13 + 5) = {19.97512344821859, -1.576056551781409, 0.1};
Point(p13 + 6) = {19.86575715312321, -1.482648911499743, 0.1};
Point(p13 + 7) = {19.74312516436528, -1.407499932137716, 0.1};
Point(p13 + 8) = {19.61024708850026, -1.352460030972384, 0.1};
Point(p13 + 9) = {19.47039482475299, -1.318884473037396, 0.1};
Point(p13 + 10) = {19.327012, -1.3076, 0.1};
Point(p13 + 11) = {19.18362917524701, -1.318884473037396, 0.1};
Point(p13 + 12) = {19.04377691149974, -1.352460030972384, 0.1};
Point(p13 + 13) = {18.91089883563472, -1.407499932137716, 0.1};
Point(p13 + 14) = {18.78826684687679, -1.482648911499743, 0.1};
Point(p13 + 15) = {18.67890055178141, -1.576056551781408, 0.1};
Point(p13 + 16) = {18.58549291149974, -1.685422846876792, 0.1};
Point(p13 + 17) = {18.51034393213772, -1.808054835634723, 0.1};
Point(p13 + 18) = {18.45530403097238, -1.940932911499743, 0.1};
Point(p13 + 19) = {18.42172847303739, -2.080785175247006, 0.1};
Point(p13 + 20) = {18.410444, -2.224168, 0.1};
Point(p13 + 21) = {18.42172847303739, -2.367550824752994, 0.1};
Point(p13 + 22) = {18.45530403097238, -2.507403088500257, 0.1};
Point(p13 + 23) = {18.51034393213772, -2.640281164365277, 0.1};
Point(p13 + 24) = {18.58549291149974, -2.762913153123208, 0.1};
Point(p13 + 25) = {18.67890055178141, -2.872279448218592, 0.1};
Point(p13 + 26) = {18.78826684687679, -2.965687088500257, 0.1};
Point(p13 + 27) = {18.91089883563472, -3.040836067862284, 0.1};
Point(p13 + 28) = {19.04377691149974, -3.095875969027617, 0.1};
Point(p13 + 29) = {19.18362917524701, -3.129451526962604, 0.1};
Point(p13 + 30) = {19.327012, -3.140736, 0.1};
Point(p13 + 31) = {19.47039482475299, -3.129451526962605, 0.1};
Point(p13 + 32) = {19.61024708850026, -3.095875969027617, 0.1};
Point(p13 + 33) = {19.74312516436528, -3.040836067862284, 0.1};
Point(p13 + 34) = {19.86575715312321, -2.965687088500257, 0.1};
Point(p13 + 35) = {19.97512344821859, -2.872279448218592, 0.1};
Point(p13 + 36) = {20.06853108850026, -2.762913153123208, 0.1};
Point(p13 + 37) = {20.14368006786228, -2.640281164365277, 0.1};
Point(p13 + 38) = {20.19871996902762, -2.507403088500257, 0.1};
Point(p13 + 39) = {20.23229552696261, -2.367550824752995, 0.1};
Spline(13) = {9, p13 + 1, p13 + 2, p13 + 3, p13 + 4, p13 + 5, p13 + 6, p13 + 7, p13 + 8, p13 + 9, p13 + 10, p13 + 11, p13 + 12, p13 + 13, p13 + 14, p13 + 15, p13 + 16, p13 + 17, p13 + 18, p13 + 19, p13 + 20, p13 + 21, p13 + 22, p13 + 23, p13 + 24, p13 + 25, p13 + 26, p13 + 27, p13 + 28, p13 + 29, p13 + 30, p13 + 31, p13 + 32, p13 + 33, p13 + 34, p13 + 35, p13 + 36, p13 + 37, p13 + 38, p13 + 39, 9};
Line(14) = {10, 9};
p15 = newp;
Point(p15 + 1) = {20.23229552696261, -2.080785175247006, 0};
Point(p15 + 2) = {20.19871996902762, -1.940932911499743, 0};
Point(p15 + 3) = {20.14368006786228, -1.808054835634723, 0};
Point(p15 + 4) = {20.06853108850026, -1.685422846876793, 0};
Point(p15 + 5) = {19.97512344821859, -1.576056551781409, 0};
Point(p15 + 6) = {19.86575715312321, -1.482648911499743, 0};
Point(p15 + 7) = {19.74312516436528, -1.407499932137716, 0};
Point(p15 + 8) = {19.61024708850026, -1.352460030972384, 0};
Point(p15 + 9) = {19.47039482475299, -1.318884473037396, 0};
Point(p15 + 10) = {19.327012, -1.3076, 0};
Point(p15 + 11) = {19.18362917524701, -1.318884473037396, 0};
Point(p15 + 12) = {19.04377691149974, -1.352460030972384, 0};
Point(p15 + 13) = {18.91089883563472, -1.407499932137716, 0};
Point(p15 + 14) = {18.78826684687679, -1.482648911499743, 0};
Point(p15 + 15) = {18.67890055178141, -1.576056551781408, 0};
Point(p15 + 16) = {18.58549291149974, -1.685422846876792, 0};
Point(p15 + 17) = {18.51034393213772, -1.808054835634723, 0};
Point(p15 + 18) = {18.45530403097238, -1.940932911499743, 0};
Point(p15 + 19) = {18.42172847303739, -2.080785175247006, 0};
Point(p15 + 20) = {18.410444, -2.224168, 0};
Point(p15 + 21) = {18.42172847303739, -2.367550824752994, 0};
Point(p15 + 22) = {18.45530403097238, -2.507403088500257, 0};
Point(p15 + 23) = {18.51034393213772, -2.640281164365277, 0};
Point(p15 + 24) = {18.58549291149974, -2.762913153123208, 0};
Point(p15 + 25) = {18.67890055178141, -2.872279448218592, 0};
Point(p15 + 26) = {18.78826684687679, -2.965687088500257, 0};
Point(p15 + 27) = {18.91089883563472, -3.040836067862284, 0};
Point(p15 + 28) = {19.04377691149974, -3.095875969027617, 0};
Point(p15 + 29) = {19.18362917524701, -3.129451526962604, 0};
Point(p15 + 30) = {19.327012, -3.140736, 0};
Point(p15 + 31) = {19.47039482475299, -3.129451526962605, 0};
Point(p15 + 32) = {19.61024708850026, -3.095875969027617, 0};
Point(p15 + 33) = {19.74312516436528, -3.040836067862284, 0};
Point(p15 + 34) = {19.86575715312321, -2.965687088500257, 0};
Point(p15 + 35) = {19.97512344821859, -2.872279448218592, 0};
Point(p15 + 36) = {20.06853108850026, -2.762913153123208, 0};
Point(p15 + 37) = {20.14368006786228, -2.640281164365277, 0};
Point(p15 + 38) = {20.19871996902762, -2.507403088500257, 0};
Point(p15 + 39) = {20.23229552696261, -2.367550824752995, 0};
Spline(15) = {10, p15 + 1, p15 + 2, p15 + 3, p15 + 4, p15 + 5, p15 + 6, p15 + 7, p15 + 8, p15 + 9, p15 + 10, p15 + 11, p15 + 12, p15 + 13, p15 + 14, p15 + 15, p15 + 16, p15 + 17, p15 + 18, p15 + 19, p15 + 20, p15 + 21, p15 + 22, p15 + 23, p15 + 24, p15 + 25, p15 + 26, p15 + 27, p15 + 28, p15 + 29, p15 + 30, p15 + 31, p15 + 32, p15 + 33, p15 + 34, p15 + 35, p15 + 36, p15 + 37, p15 + 38, p15 + 39, 10};
p16 = newp;
Point(p16 + 1) = {3.122478120755019, 0.3809908168000457, 0.1};
Point(p16 + 2) = {3.085577858446564, 0.534691470909727, 0.1};
Point(p16 + 3) = {3.02508781999762, 0.6807273421216382, 0.1};
Point(p16 + 4) = {2.942497470909727, 0.8155025426212724, 0.1};
Point(p16 + 5) = {2.839840459679083, 0.9356984596790825, 0.1};
Point(p16 + 6) = {2.719644542621273, 1.038355470909727, 0.1};
Point(p16 + 7) = {2.584869342121638, 1.12094581999762, 0.1};
Point(p16 + 8) = {2.438833470909727, 1.181435858446565, 0.1};
Point(p16 + 9) = {2.285132816800046, 1.218336120755019, 0.1};
Point(p16 + 10) = {2.127552, 1.230738, 0.1};
Point(p16 + 11) = {1.969971183199954, 1.218336120755019, 0.1};
Point(p16 + 12) = {1.816270529090273, 1.181435858446565, 0.1};
Point(p16 + 13) = {1.670234657878362, 1.12094581999762, 0.1};
Point(p16 + 14) = {1.535459457378728, 1.038355470909727, 0.1};
Point(p16 + 15) = {1.415263540320918, 0.9356984596790826, 0.1};
Point(p16 + 16) = {1.312606529090273, 0.8155025426212725, 0.1};
Point(p16 + 17) = {1.23001618000238, 0.6807273421216382, 0.1};
Point(p16 + 18) = {1.169526141553436, 0.5346914709097271, 0.1};
Point(p16 + 19) = {1.132625879244981, 0.3809908168000458, 0.1};
Point(p16 + 20) = {1.120224, 0.2234100000000001, 0.1};
Point(p16 + 21) = {1.132625879244981, 0.06582918319995443, 0.1};
Point(p16 + 22) = {1.169526141553436, -0.08787147090972736, 0.1};
Point(p16 + 23) = {1.23001618000238, -0.2339073421216377, 0.1};
Point(p16 + 24) = {1.312606529090273, -0.3686825426212723, 0.1};
Point(p16 + 25) = {1.415263540320917, -0.4888784596790825, 0.1};
Point(p16 + 26) = {1.535459457378728, -0.5915354709097269, 0.1};
Point(p16 + 27) = {1.670234657878362, -0.6741258199976201, 0.1};
Point(p16 + 28) = {1.816270529090273, -0.7346158584465644, 0.1};
Point(p16 + 29) = {1.969971183199954, -0.7715161207550189, 0.1};
Point(p16 + 30) = {2.127552, -0.783918, 0.1};
Point(p16 + 31) = {2.285132816800046, -0.771516120755019, 0.1};
Point(p16 + 32) = {2.438833470909727, -0.7346158584465645, 0.1};
Point(p16 + 33) = {2.584869342121638, -0.6741258199976203, 0.1};
Point(p16 + 34) = {2.719644542621272, -0.5915354709097271, 0.1};
Point(p16 + 35) = {2.839840459679082, -0.4888784596790827, 0.1};
Point(p16 + 36) = {2.942497470909727, -0.3686825426212725, 0.1};
Point(p16 + 37) = {3.02508781999762, -0.2339073421216384, 0.1};
Point(p16 + 38) = {3.085577858446564, -0.08787147090972725, 0.1};
Point(p16 + 39) = {3.122478120755019, 0.06582918319995407, 0.1};
Spline(16) = {11, p16 + 1, p16 + 2, p16 + 3, p16 + 4, p16 + 5, p16 + 6, p16 + 7, p16 + 8, p16 + 9, p16 + 10, p16 + 11, p16 + 12, p16 + 13, p16 + 14, p16 + 15, p16 + 16, p16 + 17, p16 + 18, p16 + 19, p16 + 20, p16 + 21, p16 + 22, p16 + 23, p16 + 24, p16 + 25, p16 + 26, p16 + 27, p16 + 28, p16 + 29, p16 + 30, p16 + 31, p16 + 32, p16 + 33, p16 + 34, p16 + 35, p16 + 36, p16 + 37, p16 + 38, p16 + 39, 11};
Line(17) = {12, 11};
p18 = newp;
Point(p18 + 1) = {3.122478120755019, 0.3809908168000457, 0};
Point(p18 + 2) = {3.085577858446564, 0.534691470909727, 0};
Point(p18 + 3) = {3.02508781999762, 0.6807273421216382, 0};
Point(p18 + 4) = {2.942497470909727, 0.8155025426212724, 0};
Point(p18 + 5) = {2.839840459679083, 0.9356984596790825, 0};
Point(p18 + 6) = {2.719644542621273, 1.038355470909727, 0};
Point(p18 + 7) = {2.584869342121638, 1.12094581999762, 0};
Point(p18 + 8) = {2.438833470909727, 1.181435858446565, 0};
Point(p18 + 9) = {2.285132816800046, 1.218336120755019, 0};
Point(p18 + 10) = {2.127552, 1.230738, 0};
Point(p18 + 11) = {1.969971183199954, 1.218336120755019, 0};
Point(p18 + 12) = {1.816270529090273, 1.181435858446565, 0};
Point(p18 + 13) = {1.670234657878362, 1.12094581999762, 0};
Point(p18 + 14) = {1.535459457378728, 1.038355470909727, 0};
Point(p18 + 15) = {1.415263540320918, 0.9356984596790826, 0};
Point(p18 + 16) = {1.312606529090273, 0.8155025426212725, 0};
Point(p18 + 17) = {1.23001618000238, 0.6807273421216382, 0};
Point(p18 + 18) = {1.169526141553436, 0.5346914709097271, 0};
Point(p18 + 19) = {1.132625879244981, 0.3809908168000458, 0};
Point(p18 + 20) = {1.120224, 0.2234100000000001, 0};
Point(p18 + 21) = {1.132625879244981, 0.06582918319995443, 0};
Point(p18 + 22) = {1.169526141553436, -0.08787147090972736, 0};
Point(p18 + 23) = {1.23001618000238, -0.2339073421216377, 0};
Point(p18 + 24) = {1.312606529090273, -0.3686825426212723, 0};
Point(p18 + 25) = {1.415263540320917, -0.4888784596790825, 0};
Point(p18 + 26) = {1.535459457378728, -0.5915354709097269, 0};
Point(p18 + 27) = {1.670234657878362, -0.6741258199976201, 0};
Point(p18 + 28) = {1.816270529090273, -0.7346158584465644, 0};
Point(p18 + 29) = {1.969971183199954, -0.7715161207550189, 0};
Point(p18 + 30) = {2.127552, -0.783918, 0};
Point(p18 + 31) = {2.285132816800046, -0.771516120755019, 0};
Point(p18 + 32) = {2.438833470909727, -0.7346158584465645, 0};
Point(p18 + 33) = {2.584869342121638, -0.6741258199976203, 0};
Point(p18 + 34) = {2.719644542621272, -0.5915354709097271, 0};
Point(p18 + 35) = {2.839840459679082, -0.4888784596790827, 0};
Point(p18 + 36) = {2.942497470909727, -0.3686825426212725, 0};
Point(p18 + 37) = {3.02508781999762, -0.2339073421216384, 0};
Point(p18 + 38) = {3.085577858446564, -0.08787147090972725, 0};
Point(p18 + 39) = {3.122478120755019, 0.06582918319995407, 0};
Spline(18) = {12, p18 + 1, p18 + 2, p18 + 3, p18 + 4, p18 + 5, p18 + 6, p18 + 7, p18 + 8, p18 + 9, p18 + 10, p18 + 11, p18 + 12, p18 + 13, p18 + 14, p18 + 15, p18 + 16, p18 + 17, p18 + 18, p18 + 19, p18 + 20, p18 + 21, p18 + 22, p18 + 23, p18 + 24, p18 + 25, p18 + 26, p18 + 27, p18 + 28, p18 + 29, p18 + 30, p18 + 31, p18 + 32, p18 + 33, p18 + 34, p18 + 35, p18 + 36, p18 + 37, p18 + 38, p18 + 39, 12};
Line(19) = {14, 13};
Line(20) = {13, 15};
Line(21) = {16, 15};
Line(22) = {14, 16};
Line(23) = {14, 17};
Line(24) = {17, 18};
Line(25) = {13, 18};
Line(26) = {15, 19};
Line(27) = {18, 19};
Line(28) = {16, 20};
Line(29) = {20, 19};
Line(30) = {17, 20};
Curve Loop(7) = {-13, -14, 15, 14};
Surface(7) = {7};
Curve Loop(8) = {13};
Plane Surface(8) = {8};
Curve Loop(9) = {15};
Plane Surface(9) = {9};
Curve Loop(10) = {-16, -17, 18, 17};
Surface(10) = {10};
Curve Loop(11) = {16};
Plane Surface(11) = {11};
Curve Loop(12) = {18};
Plane Surface(12) = {12};
Curve Loop(13) = {-19, 22, 21, -20};
Plane Surface(13) = {13};
Curve Loop(14) = {-23, 19, 25, -24};
Plane Surface(14) = {14};
Curve Loop(15) = {-20, 25, 27, -26};
Plane Surface(15) = {15};
Curve Loop(16) = {-28, 21, 26, -29};
Plane Surface(16) = {16};
Curve Loop(17) = {-22, 23, 30, -28, -15, -18};
Plane Surface(17) = {17};
Curve Loop(18) = {-24, 30, 29, -27};
Plane Surface(18) = {18};
Surface Loop(1) = {13, 14, 15, 16, 17, 18, 7, 10, 8, 11};
Volume(1) = {1};
Surface Loop(2) = {7, 8, 9};
Volume(2) = {2};
Surface Loop(3) = {10, 11, 12};
Volume(3) = {3};
Physical Surface("WALLS") = {13, 18};
Physical Surface("LOAD") = {8, 11};
Physical Surface("BORDER") = {7, 9, 10, 12, 14, 15, 16, 17};
Physical Volume("SOLID") = {1, 2, 3};
