cl__1 = 0.140141;
cl__2 = 0.108799;
cl__3 = 2.545764;
cl__4 = 1.472154;
cl__5 = 0.802018;
cl__6 = 0.694955;
Point(9) = {29.934984, 0.5678029999999996, 0.1, cl__1};
Point(10) = {29.934984, 0.5678029999999996, 0, cl__1};
Point(11) = {9.899510000000001, 1.635075, 0.1, cl__2};
Point(12) = {9.899510000000001, 1.635075, 0, cl__2};
Point(13) = {0.910389, -4.106493, 1, cl__3};
Point(14) = {0.910389, -4.106493, 0, cl__3};
Point(15) = {0.910389, 4.237492999999999, 1, cl__4};
Point(16) = {0.910389, 4.237492999999999, 0, cl__4};
Point(17) = {33.049125, -4.106493, 0, cl__5};
Point(18) = {33.049125, -4.106493, 1, cl__5};
Point(19) = {33.049125, 4.237492999999999, 1, cl__6};
Point(20) = {33.049125, 4.237492999999999, 0, cl__6};
p13 = newp;
Point(p13 + 1) = {29.91773031739343, 0.7870318236520299, 0.1};
Point(p13 + 2) = {29.86639411250119, 1.000862506086995, 0.1};
Point(p13 + 3) = {29.78223945306282, 1.204029826239998, 0.1};
Point(p13 + 4) = {29.667338506087, 1.391531130415195, 0.1};
Point(p13 + 5) = {29.52452051422264, 1.558749514222639, 0.1};
Point(p13 + 6) = {29.3573021304152, 1.701567506086995, 0.1};
Point(p13 + 7) = {29.16980082624, 1.816468453062821, 0.1};
Point(p13 + 8) = {28.966633506087, 1.900623112501191, 0.1};
Point(p13 + 9) = {28.75280282365203, 1.951959317393432, 0.1};
Point(p13 + 10) = {28.533574, 1.969213, 0.1};
Point(p13 + 11) = {28.31434517634797, 1.951959317393432, 0.1};
Point(p13 + 12) = {28.10051449391301, 1.900623112501191, 0.1};
Point(p13 + 13) = {27.89734717376, 1.816468453062821, 0.1};
Point(p13 + 14) = {27.70984586958481, 1.701567506086995, 0.1};
Point(p13 + 15) = {27.54262748577736, 1.55874951422264, 0.1};
Point(p13 + 16) = {27.39980949391301, 1.391531130415195, 0.1};
Point(p13 + 17) = {27.28490854693718, 1.204029826239998, 0.1};
Point(p13 + 18) = {27.20075388749881, 1.000862506086995, 0.1};
Point(p13 + 19) = {27.14941768260657, 0.7870318236520301, 0.1};
Point(p13 + 20) = {27.132164, 0.5678030000000002, 0.1};
Point(p13 + 21) = {27.14941768260657, 0.3485741763479702, 0.1};
Point(p13 + 22) = {27.20075388749881, 0.1347434939130044, 0.1};
Point(p13 + 23) = {27.28490854693718, -0.06842382623999765, 0.1};
Point(p13 + 24) = {27.39980949391301, -0.2559251304151947, 0.1};
Point(p13 + 25) = {27.54262748577736, -0.4231435142226395, 0.1};
Point(p13 + 26) = {27.70984586958481, -0.565961506086995, 0.1};
Point(p13 + 27) = {27.89734717376, -0.6808624530628206, 0.1};
Point(p13 + 28) = {28.10051449391301, -0.7650171125011912, 0.1};
Point(p13 + 29) = {28.31434517634797, -0.816353317393432, 0.1};
Point(p13 + 30) = {28.533574, -0.8336070000000001, 0.1};
Point(p13 + 31) = {28.75280282365203, -0.8163533173934322, 0.1};
Point(p13 + 32) = {28.966633506087, -0.7650171125011914, 0.1};
Point(p13 + 33) = {29.16980082624, -0.680862453062821, 0.1};
Point(p13 + 34) = {29.3573021304152, -0.5659615060869952, 0.1};
Point(p13 + 35) = {29.52452051422264, -0.4231435142226398, 0.1};
Point(p13 + 36) = {29.667338506087, -0.255925130415195, 0.1};
Point(p13 + 37) = {29.78223945306282, -0.06842382623999854, 0.1};
Point(p13 + 38) = {29.86639411250119, 0.1347434939130046, 0.1};
Point(p13 + 39) = {29.91773031739343, 0.3485741763479696, 0.1};
Spline(13) = {9, p13 + 1, p13 + 2, p13 + 3, p13 + 4, p13 + 5, p13 + 6, p13 + 7, p13 + 8, p13 + 9, p13 + 10, p13 + 11, p13 + 12, p13 + 13, p13 + 14, p13 + 15, p13 + 16, p13 + 17, p13 + 18, p13 + 19, p13 + 20, p13 + 21, p13 + 22, p13 + 23, p13 + 24, p13 + 25, p13 + 26, p13 + 27, p13 + 28, p13 + 29, p13 + 30, p13 + 31, p13 + 32, p13 + 33, p13 + 34, p13 + 35, p13 + 36, p13 + 37, p13 + 38, p13 + 39, 9};
Line(14) = {10, 9};
p15 = newp;
Point(p15 + 1) = {29.91773031739343, 0.7870318236520299, 0};
Point(p15 + 2) = {29.86639411250119, 1.000862506086995, 0};
Point(p15 + 3) = {29.78223945306282, 1.204029826239998, 0};
Point(p15 + 4) = {29.667338506087, 1.391531130415195, 0};
Point(p15 + 5) = {29.52452051422264, 1.558749514222639, 0};
Point(p15 + 6) = {29.3573021304152, 1.701567506086995, 0};
Point(p15 + 7) = {29.16980082624, 1.816468453062821, 0};
Point(p15 + 8) = {28.966633506087, 1.900623112501191, 0};
Point(p15 + 9) = {28.75280282365203, 1.951959317393432, 0};
Point(p15 + 10) = {28.533574, 1.969213, 0};
Point(p15 + 11) = {28.31434517634797, 1.951959317393432, 0};
Point(p15 + 12) = {28.10051449391301, 1.900623112501191, 0};
Point(p15 + 13) = {27.89734717376, 1.816468453062821, 0};
Point(p15 + 14) = {27.70984586958481, 1.701567506086995, 0};
Point(p15 + 15) = {27.54262748577736, 1.55874951422264, 0};
Point(p15 + 16) = {27.39980949391301, 1.391531130415195, 0};
Point(p15 + 17) = {27.28490854693718, 1.204029826239998, 0};
Point(p15 + 18) = {27.20075388749881, 1.000862506086995, 0};
Point(p15 + 19) = {27.14941768260657, 0.7870318236520301, 0};
Point(p15 + 20) = {27.132164, 0.5678030000000002, 0};
Point(p15 + 21) = {27.14941768260657, 0.3485741763479702, 0};
Point(p15 + 22) = {27.20075388749881, 0.1347434939130044, 0};
Point(p15 + 23) = {27.28490854693718, -0.06842382623999765, 0};
Point(p15 + 24) = {27.39980949391301, -0.2559251304151947, 0};
Point(p15 + 25) = {27.54262748577736, -0.4231435142226395, 0};
Point(p15 + 26) = {27.70984586958481, -0.565961506086995, 0};
Point(p15 + 27) = {27.89734717376, -0.6808624530628206, 0};
Point(p15 + 28) = {28.10051449391301, -0.7650171125011912, 0};
Point(p15 + 29) = {28.31434517634797, -0.816353317393432, 0};
Point(p15 + 30) = {28.533574, -0.8336070000000001, 0};
Point(p15 + 31) = {28.75280282365203, -0.8163533173934322, 0};
Point(p15 + 32) = {28.966633506087, -0.7650171125011914, 0};
Point(p15 + 33) = {29.16980082624, -0.680862453062821, 0};
Point(p15 + 34) = {29.3573021304152, -0.5659615060869952, 0};
Point(p15 + 35) = {29.52452051422264, -0.4231435142226398, 0};
Point(p15 + 36) = {29.667338506087, -0.255925130415195, 0};
Point(p15 + 37) = {29.78223945306282, -0.06842382623999854, 0};
Point(p15 + 38) = {29.86639411250119, 0.1347434939130046, 0};
Point(p15 + 39) = {29.91773031739343, 0.3485741763479696, 0};
Spline(15) = {10, p15 + 1, p15 + 2, p15 + 3, p15 + 4, p15 + 5, p15 + 6, p15 + 7, p15 + 8, p15 + 9, p15 + 10, p15 + 11, p15 + 12, p15 + 13, p15 + 14, p15 + 15, p15 + 16, p15 + 17, p15 + 18, p15 + 19, p15 + 20, p15 + 21, p15 + 22, p15 + 23, p15 + 24, p15 + 25, p15 + 26, p15 + 27, p15 + 28, p15 + 29, p15 + 30, p15 + 31, p15 + 32, p15 + 33, p15 + 34, p15 + 35, p15 + 36, p15 + 37, p15 + 38, p15 + 39, 10};
p16 = newp;
Point(p16 + 1) = {9.886115049995764, 1.805273977184656, 0.1};
Point(p16 + 2) = {9.846260028107448, 1.971282090693005, 0.1};
Point(p16 + 3) = {9.780926297245179, 2.12901166982113, 0.1};
Point(p16 + 4) = {9.691722590693006, 2.274578888856436, 0.1};
Point(p16 + 5) = {9.580845399756372, 2.404399399756371, 0.1};
Point(p16 + 6) = {9.451024888856436, 2.515276590693005, 0.1};
Point(p16 + 7) = {9.305457669821131, 2.604480297245178, 0.1};
Point(p16 + 8) = {9.147728090693006, 2.669814028107448, 0.1};
Point(p16 + 9) = {8.981719977184657, 2.709669049995763, 0.1};
Point(p16 + 10) = {8.811521000000001, 2.723064, 0.1};
Point(p16 + 11) = {8.641322022815345, 2.709669049995763, 0.1};
Point(p16 + 12) = {8.475313909306996, 2.669814028107448, 0.1};
Point(p16 + 13) = {8.317584330178871, 2.604480297245178, 0.1};
Point(p16 + 14) = {8.172017111143566, 2.515276590693005, 0.1};
Point(p16 + 15) = {8.04219660024363, 2.404399399756371, 0.1};
Point(p16 + 16) = {7.931319409306997, 2.274578888856436, 0.1};
Point(p16 + 17) = {7.842115702754823, 2.12901166982113, 0.1};
Point(p16 + 18) = {7.776781971892553, 1.971282090693005, 0.1};
Point(p16 + 19) = {7.736926950004237, 1.805273977184656, 0.1};
Point(p16 + 20) = {7.723532000000001, 1.635075, 0.1};
Point(p16 + 21) = {7.736926950004237, 1.464876022815344, 0.1};
Point(p16 + 22) = {7.776781971892553, 1.298867909306995, 0.1};
Point(p16 + 23) = {7.842115702754822, 1.141138330178871, 0.1};
Point(p16 + 24) = {7.931319409306996, 0.9955711111435646, 0.1};
Point(p16 + 25) = {8.04219660024363, 0.8657506002436294, 0.1};
Point(p16 + 26) = {8.172017111143566, 0.7548734093069954, 0.1};
Point(p16 + 27) = {8.317584330178871, 0.6656697027548218, 0.1};
Point(p16 + 28) = {8.475313909306996, 0.6003359718925523, 0.1};
Point(p16 + 29) = {8.641322022815345, 0.5604809500042367, 0.1};
Point(p16 + 30) = {8.811521000000001, 0.547086, 0.1};
Point(p16 + 31) = {8.981719977184657, 0.5604809500042367, 0.1};
Point(p16 + 32) = {9.147728090693006, 0.6003359718925521, 0.1};
Point(p16 + 33) = {9.305457669821131, 0.6656697027548216, 0.1};
Point(p16 + 34) = {9.451024888856436, 0.7548734093069952, 0.1};
Point(p16 + 35) = {9.580845399756372, 0.8657506002436292, 0.1};
Point(p16 + 36) = {9.691722590693006, 0.9955711111435643, 0.1};
Point(p16 + 37) = {9.780926297245179, 1.14113833017887, 0.1};
Point(p16 + 38) = {9.846260028107448, 1.298867909306995, 0.1};
Point(p16 + 39) = {9.886115049995764, 1.464876022815344, 0.1};
Spline(16) = {11, p16 + 1, p16 + 2, p16 + 3, p16 + 4, p16 + 5, p16 + 6, p16 + 7, p16 + 8, p16 + 9, p16 + 10, p16 + 11, p16 + 12, p16 + 13, p16 + 14, p16 + 15, p16 + 16, p16 + 17, p16 + 18, p16 + 19, p16 + 20, p16 + 21, p16 + 22, p16 + 23, p16 + 24, p16 + 25, p16 + 26, p16 + 27, p16 + 28, p16 + 29, p16 + 30, p16 + 31, p16 + 32, p16 + 33, p16 + 34, p16 + 35, p16 + 36, p16 + 37, p16 + 38, p16 + 39, 11};
Line(17) = {12, 11};
p18 = newp;
Point(p18 + 1) = {9.886115049995764, 1.805273977184656, 0};
Point(p18 + 2) = {9.846260028107448, 1.971282090693005, 0};
Point(p18 + 3) = {9.780926297245179, 2.12901166982113, 0};
Point(p18 + 4) = {9.691722590693006, 2.274578888856436, 0};
Point(p18 + 5) = {9.580845399756372, 2.404399399756371, 0};
Point(p18 + 6) = {9.451024888856436, 2.515276590693005, 0};
Point(p18 + 7) = {9.305457669821131, 2.604480297245178, 0};
Point(p18 + 8) = {9.147728090693006, 2.669814028107448, 0};
Point(p18 + 9) = {8.981719977184657, 2.709669049995763, 0};
Point(p18 + 10) = {8.811521000000001, 2.723064, 0};
Point(p18 + 11) = {8.641322022815345, 2.709669049995763, 0};
Point(p18 + 12) = {8.475313909306996, 2.669814028107448, 0};
Point(p18 + 13) = {8.317584330178871, 2.604480297245178, 0};
Point(p18 + 14) = {8.172017111143566, 2.515276590693005, 0};
Point(p18 + 15) = {8.04219660024363, 2.404399399756371, 0};
Point(p18 + 16) = {7.931319409306997, 2.274578888856436, 0};
Point(p18 + 17) = {7.842115702754823, 2.12901166982113, 0};
Point(p18 + 18) = {7.776781971892553, 1.971282090693005, 0};
Point(p18 + 19) = {7.736926950004237, 1.805273977184656, 0};
Point(p18 + 20) = {7.723532000000001, 1.635075, 0};
Point(p18 + 21) = {7.736926950004237, 1.464876022815344, 0};
Point(p18 + 22) = {7.776781971892553, 1.298867909306995, 0};
Point(p18 + 23) = {7.842115702754822, 1.141138330178871, 0};
Point(p18 + 24) = {7.931319409306996, 0.9955711111435646, 0};
Point(p18 + 25) = {8.04219660024363, 0.8657506002436294, 0};
Point(p18 + 26) = {8.172017111143566, 0.7548734093069954, 0};
Point(p18 + 27) = {8.317584330178871, 0.6656697027548218, 0};
Point(p18 + 28) = {8.475313909306996, 0.6003359718925523, 0};
Point(p18 + 29) = {8.641322022815345, 0.5604809500042367, 0};
Point(p18 + 30) = {8.811521000000001, 0.547086, 0};
Point(p18 + 31) = {8.981719977184657, 0.5604809500042367, 0};
Point(p18 + 32) = {9.147728090693006, 0.6003359718925521, 0};
Point(p18 + 33) = {9.305457669821131, 0.6656697027548216, 0};
Point(p18 + 34) = {9.451024888856436, 0.7548734093069952, 0};
Point(p18 + 35) = {9.580845399756372, 0.8657506002436292, 0};
Point(p18 + 36) = {9.691722590693006, 0.9955711111435643, 0};
Point(p18 + 37) = {9.780926297245179, 1.14113833017887, 0};
Point(p18 + 38) = {9.846260028107448, 1.298867909306995, 0};
Point(p18 + 39) = {9.886115049995764, 1.464876022815344, 0};
Spline(18) = {12, p18 + 1, p18 + 2, p18 + 3, p18 + 4, p18 + 5, p18 + 6, p18 + 7, p18 + 8, p18 + 9, p18 + 10, p18 + 11, p18 + 12, p18 + 13, p18 + 14, p18 + 15, p18 + 16, p18 + 17, p18 + 18, p18 + 19, p18 + 20, p18 + 21, p18 + 22, p18 + 23, p18 + 24, p18 + 25, p18 + 26, p18 + 27, p18 + 28, p18 + 29, p18 + 30, p18 + 31, p18 + 32, p18 + 33, p18 + 34, p18 + 35, p18 + 36, p18 + 37, p18 + 38, p18 + 39, 12};
Line(19) = {14, 13};
Line(20) = {13, 15};
Line(21) = {16, 15};
Line(22) = {14, 16};
Line(23) = {14, 17};
Line(24) = {17, 18};
Line(25) = {13, 18};
Line(26) = {15, 19};
Line(27) = {18, 19};
Line(28) = {16, 20};
Line(29) = {20, 19};
Line(30) = {17, 20};
Curve Loop(7) = {-13, -14, 15, 14};
Surface(7) = {7};
Curve Loop(8) = {13};
Plane Surface(8) = {8};
Curve Loop(9) = {15};
Plane Surface(9) = {9};
Curve Loop(10) = {-16, -17, 18, 17};
Surface(10) = {10};
Curve Loop(11) = {16};
Plane Surface(11) = {11};
Curve Loop(12) = {18};
Plane Surface(12) = {12};
Curve Loop(13) = {-19, 22, 21, -20};
Plane Surface(13) = {13};
Curve Loop(14) = {-23, 19, 25, -24};
Plane Surface(14) = {14};
Curve Loop(15) = {-20, 25, 27, -26};
Plane Surface(15) = {15};
Curve Loop(16) = {-28, 21, 26, -29};
Plane Surface(16) = {16};
Curve Loop(17) = {-22, 23, 30, -28, -15, -18};
Plane Surface(17) = {17};
Curve Loop(18) = {-24, 30, 29, -27};
Plane Surface(18) = {18};
Surface Loop(1) = {13, 14, 15, 16, 17, 18, 7, 10, 8, 11};
Volume(1) = {1};
Surface Loop(2) = {7, 8, 9};
Volume(2) = {2};
Surface Loop(3) = {10, 11, 12};
Volume(3) = {3};
Physical Surface("WALLS") = {13, 18};
Physical Surface("LOAD") = {8, 11};
Physical Surface("BORDER") = {7, 9, 10, 12, 14, 15, 16, 17};
Physical Volume("SOLID") = {1, 2, 3};
