cl__1 = 0.103995;
cl__2 = 0.112496;
cl__3 = 0.883617;
cl__4 = 1.340712;
cl__5 = 0.914764;
cl__6 = 1.327192;
Point(9) = {30.402931, -0.5537980000000002, 0.1, cl__1};
Point(10) = {30.402931, -0.5537980000000002, 0, cl__1};
Point(11) = {8.430849, -0.8064680000000003, 0.1, cl__2};
Point(12) = {8.430849, -0.8064680000000003, 0, cl__2};
Point(13) = {0.209739, -3.331657, 0.1, cl__3};
Point(14) = {0.209739, -3.331657, 0, cl__3};
Point(15) = {0.209739, 4.922961000000001, 0.1, cl__4};
Point(16) = {0.209739, 4.922961000000001, 0, cl__4};
Point(17) = {36.515368, -3.331657, 0, cl__5};
Point(18) = {36.515368, -3.331657, 0.1, cl__5};
Point(19) = {36.515368, 4.922961000000001, 0.1, cl__6};
Point(20) = {36.515368, 4.922961000000001, 0, cl__6};
p13 = newp;
Point(p13 + 1) = {30.39012751442523, -0.391114290950342, 0.1};
Point(p13 + 2) = {30.35203232200811, -0.2324363947337622, 0.1};
Point(p13 + 3) = {30.28958345281664, -0.08167148777685779, 0.1};
Point(p13 + 4) = {30.20431860526624, 0.05746809755105287, 0.1};
Point(p13 + 5) = {30.09833728288139, 0.1815562828813877, 0.1};
Point(p13 + 6) = {29.97424909755105, 0.2875376052662378, 0.1};
Point(p13 + 7) = {29.83510951222314, 0.3728024528166448, 0.1};
Point(p13 + 8) = {29.68434460526624, 0.4352513220081125, 0.1};
Point(p13 + 9) = {29.52566670904966, 0.4733465144252325, 0.1};
Point(p13 + 10) = {29.362983, 0.4861500000000001, 0.1};
Point(p13 + 11) = {29.20029929095034, 0.4733465144252322, 0.1};
Point(p13 + 12) = {29.04162139473376, 0.4352513220081126, 0.1};
Point(p13 + 13) = {28.89085648777686, 0.3728024528166449, 0.1};
Point(p13 + 14) = {28.75171690244895, 0.287537605266238, 0.1};
Point(p13 + 15) = {28.62762871711861, 0.1815562828813878, 0.1};
Point(p13 + 16) = {28.52164739473376, 0.05746809755105298, 0.1};
Point(p13 + 17) = {28.43638254718336, -0.08167148777685768, 0.1};
Point(p13 + 18) = {28.37393367799189, -0.2324363947337621, 0.1};
Point(p13 + 19) = {28.33583848557477, -0.3911142909503419, 0.1};
Point(p13 + 20) = {28.323035, -0.5537979999999999, 0.1};
Point(p13 + 21) = {28.33583848557477, -0.7164817090496579, 0.1};
Point(p13 + 22) = {28.37393367799189, -0.8751596052662383, 0.1};
Point(p13 + 23) = {28.43638254718336, -1.025924512223142, 0.1};
Point(p13 + 24) = {28.52164739473376, -1.165064097551053, 0.1};
Point(p13 + 25) = {28.62762871711861, -1.289152282881388, 0.1};
Point(p13 + 26) = {28.75171690244895, -1.395133605266238, 0.1};
Point(p13 + 27) = {28.89085648777686, -1.480398452816645, 0.1};
Point(p13 + 28) = {29.04162139473376, -1.542847322008112, 0.1};
Point(p13 + 29) = {29.20029929095034, -1.580942514425232, 0.1};
Point(p13 + 30) = {29.362983, -1.593746, 0.1};
Point(p13 + 31) = {29.52566670904966, -1.580942514425232, 0.1};
Point(p13 + 32) = {29.68434460526624, -1.542847322008113, 0.1};
Point(p13 + 33) = {29.83510951222314, -1.480398452816645, 0.1};
Point(p13 + 34) = {29.97424909755105, -1.395133605266238, 0.1};
Point(p13 + 35) = {30.09833728288139, -1.289152282881388, 0.1};
Point(p13 + 36) = {30.20431860526624, -1.165064097551053, 0.1};
Point(p13 + 37) = {30.28958345281664, -1.025924512223142, 0.1};
Point(p13 + 38) = {30.35203232200811, -0.875159605266238, 0.1};
Point(p13 + 39) = {30.39012751442523, -0.7164817090496582, 0.1};
Spline(13) = {9, p13 + 1, p13 + 2, p13 + 3, p13 + 4, p13 + 5, p13 + 6, p13 + 7, p13 + 8, p13 + 9, p13 + 10, p13 + 11, p13 + 12, p13 + 13, p13 + 14, p13 + 15, p13 + 16, p13 + 17, p13 + 18, p13 + 19, p13 + 20, p13 + 21, p13 + 22, p13 + 23, p13 + 24, p13 + 25, p13 + 26, p13 + 27, p13 + 28, p13 + 29, p13 + 30, p13 + 31, p13 + 32, p13 + 33, p13 + 34, p13 + 35, p13 + 36, p13 + 37, p13 + 38, p13 + 39, 9};
Line(14) = {10, 9};
p15 = newp;
Point(p15 + 1) = {30.39012751442523, -0.391114290950342, 0};
Point(p15 + 2) = {30.35203232200811, -0.2324363947337622, 0};
Point(p15 + 3) = {30.28958345281664, -0.08167148777685779, 0};
Point(p15 + 4) = {30.20431860526624, 0.05746809755105287, 0};
Point(p15 + 5) = {30.09833728288139, 0.1815562828813877, 0};
Point(p15 + 6) = {29.97424909755105, 0.2875376052662378, 0};
Point(p15 + 7) = {29.83510951222314, 0.3728024528166448, 0};
Point(p15 + 8) = {29.68434460526624, 0.4352513220081125, 0};
Point(p15 + 9) = {29.52566670904966, 0.4733465144252325, 0};
Point(p15 + 10) = {29.362983, 0.4861500000000001, 0};
Point(p15 + 11) = {29.20029929095034, 0.4733465144252322, 0};
Point(p15 + 12) = {29.04162139473376, 0.4352513220081126, 0};
Point(p15 + 13) = {28.89085648777686, 0.3728024528166449, 0};
Point(p15 + 14) = {28.75171690244895, 0.287537605266238, 0};
Point(p15 + 15) = {28.62762871711861, 0.1815562828813878, 0};
Point(p15 + 16) = {28.52164739473376, 0.05746809755105298, 0};
Point(p15 + 17) = {28.43638254718336, -0.08167148777685768, 0};
Point(p15 + 18) = {28.37393367799189, -0.2324363947337621, 0};
Point(p15 + 19) = {28.33583848557477, -0.3911142909503419, 0};
Point(p15 + 20) = {28.323035, -0.5537979999999999, 0};
Point(p15 + 21) = {28.33583848557477, -0.7164817090496579, 0};
Point(p15 + 22) = {28.37393367799189, -0.8751596052662383, 0};
Point(p15 + 23) = {28.43638254718336, -1.025924512223142, 0};
Point(p15 + 24) = {28.52164739473376, -1.165064097551053, 0};
Point(p15 + 25) = {28.62762871711861, -1.289152282881388, 0};
Point(p15 + 26) = {28.75171690244895, -1.395133605266238, 0};
Point(p15 + 27) = {28.89085648777686, -1.480398452816645, 0};
Point(p15 + 28) = {29.04162139473376, -1.542847322008112, 0};
Point(p15 + 29) = {29.20029929095034, -1.580942514425232, 0};
Point(p15 + 30) = {29.362983, -1.593746, 0};
Point(p15 + 31) = {29.52566670904966, -1.580942514425232, 0};
Point(p15 + 32) = {29.68434460526624, -1.542847322008113, 0};
Point(p15 + 33) = {29.83510951222314, -1.480398452816645, 0};
Point(p15 + 34) = {29.97424909755105, -1.395133605266238, 0};
Point(p15 + 35) = {30.09833728288139, -1.289152282881388, 0};
Point(p15 + 36) = {30.20431860526624, -1.165064097551053, 0};
Point(p15 + 37) = {30.28958345281664, -1.025924512223142, 0};
Point(p15 + 38) = {30.35203232200811, -0.875159605266238, 0};
Point(p15 + 39) = {30.39012751442523, -0.7164817090496582, 0};
Spline(15) = {10, p15 + 1, p15 + 2, p15 + 3, p15 + 4, p15 + 5, p15 + 6, p15 + 7, p15 + 8, p15 + 9, p15 + 10, p15 + 11, p15 + 12, p15 + 13, p15 + 14, p15 + 15, p15 + 16, p15 + 17, p15 + 18, p15 + 19, p15 + 20, p15 + 21, p15 + 22, p15 + 23, p15 + 24, p15 + 25, p15 + 26, p15 + 27, p15 + 28, p15 + 29, p15 + 30, p15 + 31, p15 + 32, p15 + 33, p15 + 34, p15 + 35, p15 + 36, p15 + 37, p15 + 38, p15 + 39, 10};
p16 = newp;
Point(p16 + 1) = {8.416998826389268, -0.6304848584704816, 0.1};
Point(p16 + 2) = {8.375789342797461, -0.4588350059399816, 0.1};
Point(p16 + 3) = {8.308235263477043, -0.2957450314510005, 0.1};
Point(p16 + 4) = {8.215999994060018, -0.1452307514400502, 0.1};
Point(p16 + 5) = {8.101354672990743, -0.01099832700925674, 0.1};
Point(p16 + 6) = {7.96712224855995, 0.1036469940600183, 0.1};
Point(p16 + 7) = {7.816607968549, 0.1958822634770432, 0.1};
Point(p16 + 8) = {7.653517994060018, 0.2634363427974613, 0.1};
Point(p16 + 9) = {7.481868141529518, 0.3046458263892686, 0.1};
Point(p16 + 10) = {7.305885, 0.3184960000000001, 0.1};
Point(p16 + 11) = {7.129901858470482, 0.3046458263892686, 0.1};
Point(p16 + 12) = {6.958252005939982, 0.2634363427974613, 0.1};
Point(p16 + 13) = {6.795162031451, 0.1958822634770432, 0.1};
Point(p16 + 14) = {6.644647751440051, 0.1036469940600185, 0.1};
Point(p16 + 15) = {6.510415327009257, -0.01099832700925663, 0.1};
Point(p16 + 16) = {6.395770005939982, -0.14523075144005, 0.1};
Point(p16 + 17) = {6.303534736522957, -0.2957450314510003, 0.1};
Point(p16 + 18) = {6.235980657202539, -0.4588350059399815, 0.1};
Point(p16 + 19) = {6.194771173610731, -0.6304848584704815, 0.1};
Point(p16 + 20) = {6.180921, -0.8064679999999999, 0.1};
Point(p16 + 21) = {6.194771173610731, -0.9824511415295181, 0.1};
Point(p16 + 22) = {6.235980657202539, -1.154100994060019, 0.1};
Point(p16 + 23) = {6.303534736522956, -1.317190968548999, 0.1};
Point(p16 + 24) = {6.395770005939982, -1.46770524855995, 0.1};
Point(p16 + 25) = {6.510415327009256, -1.601937672990743, 0.1};
Point(p16 + 26) = {6.64464775144005, -1.716582994060018, 0.1};
Point(p16 + 27) = {6.795162031451, -1.808818263477043, 0.1};
Point(p16 + 28) = {6.958252005939982, -1.876372342797461, 0.1};
Point(p16 + 29) = {7.129901858470482, -1.917581826389269, 0.1};
Point(p16 + 30) = {7.305885, -1.931432, 0.1};
Point(p16 + 31) = {7.481868141529518, -1.917581826389269, 0.1};
Point(p16 + 32) = {7.653517994060018, -1.876372342797461, 0.1};
Point(p16 + 33) = {7.816607968549, -1.808818263477043, 0.1};
Point(p16 + 34) = {7.967122248559949, -1.716582994060019, 0.1};
Point(p16 + 35) = {8.101354672990743, -1.601937672990744, 0.1};
Point(p16 + 36) = {8.215999994060018, -1.46770524855995, 0.1};
Point(p16 + 37) = {8.308235263477043, -1.317190968549, 0.1};
Point(p16 + 38) = {8.375789342797461, -1.154100994060018, 0.1};
Point(p16 + 39) = {8.416998826389268, -0.9824511415295185, 0.1};
Spline(16) = {11, p16 + 1, p16 + 2, p16 + 3, p16 + 4, p16 + 5, p16 + 6, p16 + 7, p16 + 8, p16 + 9, p16 + 10, p16 + 11, p16 + 12, p16 + 13, p16 + 14, p16 + 15, p16 + 16, p16 + 17, p16 + 18, p16 + 19, p16 + 20, p16 + 21, p16 + 22, p16 + 23, p16 + 24, p16 + 25, p16 + 26, p16 + 27, p16 + 28, p16 + 29, p16 + 30, p16 + 31, p16 + 32, p16 + 33, p16 + 34, p16 + 35, p16 + 36, p16 + 37, p16 + 38, p16 + 39, 11};
Line(17) = {12, 11};
p18 = newp;
Point(p18 + 1) = {8.416998826389268, -0.6304848584704816, 0};
Point(p18 + 2) = {8.375789342797461, -0.4588350059399816, 0};
Point(p18 + 3) = {8.308235263477043, -0.2957450314510005, 0};
Point(p18 + 4) = {8.215999994060018, -0.1452307514400502, 0};
Point(p18 + 5) = {8.101354672990743, -0.01099832700925674, 0};
Point(p18 + 6) = {7.96712224855995, 0.1036469940600183, 0};
Point(p18 + 7) = {7.816607968549, 0.1958822634770432, 0};
Point(p18 + 8) = {7.653517994060018, 0.2634363427974613, 0};
Point(p18 + 9) = {7.481868141529518, 0.3046458263892686, 0};
Point(p18 + 10) = {7.305885, 0.3184960000000001, 0};
Point(p18 + 11) = {7.129901858470482, 0.3046458263892686, 0};
Point(p18 + 12) = {6.958252005939982, 0.2634363427974613, 0};
Point(p18 + 13) = {6.795162031451, 0.1958822634770432, 0};
Point(p18 + 14) = {6.644647751440051, 0.1036469940600185, 0};
Point(p18 + 15) = {6.510415327009257, -0.01099832700925663, 0};
Point(p18 + 16) = {6.395770005939982, -0.14523075144005, 0};
Point(p18 + 17) = {6.303534736522957, -0.2957450314510003, 0};
Point(p18 + 18) = {6.235980657202539, -0.4588350059399815, 0};
Point(p18 + 19) = {6.194771173610731, -0.6304848584704815, 0};
Point(p18 + 20) = {6.180921, -0.8064679999999999, 0};
Point(p18 + 21) = {6.194771173610731, -0.9824511415295181, 0};
Point(p18 + 22) = {6.235980657202539, -1.154100994060019, 0};
Point(p18 + 23) = {6.303534736522956, -1.317190968548999, 0};
Point(p18 + 24) = {6.395770005939982, -1.46770524855995, 0};
Point(p18 + 25) = {6.510415327009256, -1.601937672990743, 0};
Point(p18 + 26) = {6.64464775144005, -1.716582994060018, 0};
Point(p18 + 27) = {6.795162031451, -1.808818263477043, 0};
Point(p18 + 28) = {6.958252005939982, -1.876372342797461, 0};
Point(p18 + 29) = {7.129901858470482, -1.917581826389269, 0};
Point(p18 + 30) = {7.305885, -1.931432, 0};
Point(p18 + 31) = {7.481868141529518, -1.917581826389269, 0};
Point(p18 + 32) = {7.653517994060018, -1.876372342797461, 0};
Point(p18 + 33) = {7.816607968549, -1.808818263477043, 0};
Point(p18 + 34) = {7.967122248559949, -1.716582994060019, 0};
Point(p18 + 35) = {8.101354672990743, -1.601937672990744, 0};
Point(p18 + 36) = {8.215999994060018, -1.46770524855995, 0};
Point(p18 + 37) = {8.308235263477043, -1.317190968549, 0};
Point(p18 + 38) = {8.375789342797461, -1.154100994060018, 0};
Point(p18 + 39) = {8.416998826389268, -0.9824511415295185, 0};
Spline(18) = {12, p18 + 1, p18 + 2, p18 + 3, p18 + 4, p18 + 5, p18 + 6, p18 + 7, p18 + 8, p18 + 9, p18 + 10, p18 + 11, p18 + 12, p18 + 13, p18 + 14, p18 + 15, p18 + 16, p18 + 17, p18 + 18, p18 + 19, p18 + 20, p18 + 21, p18 + 22, p18 + 23, p18 + 24, p18 + 25, p18 + 26, p18 + 27, p18 + 28, p18 + 29, p18 + 30, p18 + 31, p18 + 32, p18 + 33, p18 + 34, p18 + 35, p18 + 36, p18 + 37, p18 + 38, p18 + 39, 12};
Line(19) = {14, 13};
Line(20) = {13, 15};
Line(21) = {16, 15};
Line(22) = {14, 16};
Line(23) = {14, 17};
Line(24) = {17, 18};
Line(25) = {13, 18};
Line(26) = {15, 19};
Line(27) = {18, 19};
Line(28) = {16, 20};
Line(29) = {20, 19};
Line(30) = {17, 20};
Curve Loop(7) = {-13, -14, 15, 14};
Surface(7) = {7};
Curve Loop(8) = {13};
Plane Surface(8) = {8};
Curve Loop(9) = {15};
Plane Surface(9) = {9};
Curve Loop(10) = {-16, -17, 18, 17};
Surface(10) = {10};
Curve Loop(11) = {16};
Plane Surface(11) = {11};
Curve Loop(12) = {18};
Plane Surface(12) = {12};
Curve Loop(13) = {-19, 22, 21, -20};
Plane Surface(13) = {13};
Curve Loop(14) = {-23, 19, 25, -24};
Plane Surface(14) = {14};
Curve Loop(15) = {-20, 25, 27, -26, -16, -13};
Plane Surface(15) = {15};
Curve Loop(16) = {-28, 21, 26, -29};
Plane Surface(16) = {16};
Curve Loop(17) = {-22, 23, 30, -28, -18, -15};
Plane Surface(17) = {17};
Curve Loop(18) = {-24, 30, 29, -27};
Plane Surface(18) = {18};
Surface Loop(1) = {13, 14, 15, 16, 17, 18, 10, 7};
Volume(1) = {1};
Surface Loop(2) = {7, 8, 9};
Volume(2) = {2};
Surface Loop(3) = {10, 11, 12};
Volume(3) = {3};
Physical Surface("WALLS") = {13, 18};
Physical Surface("LOAD") = {8, 11};
Physical Surface("BORDER") = {7, 9, 10, 12, 14, 15, 16, 17};
Physical Volume("SOLID") = {1, 2, 3};
