cl__1 = 0.0574;
cl__2 = 0.08326500000000001;
cl__3 = 1.204305;
cl__4 = 2.139296;
cl__5 = 0.758737;
cl__6 = 0.888817;
Point(9) = {13.197726, -3.185869, 0.1, cl__1};
Point(10) = {13.197726, -3.185869, 0, cl__1};
Point(11) = {31.166143, -1.104584, 0.1, cl__2};
Point(12) = {31.166143, -1.104584, 0, cl__2};
Point(13) = {0.276384, -4.285367, 1, cl__3};
Point(14) = {0.276384, -4.285367, 0, cl__3};
Point(15) = {0.276384, 5.139334000000001, 1, cl__4};
Point(16) = {0.276384, 5.139334000000001, 0, cl__4};
Point(17) = {39.033915, -4.285367, 0, cl__5};
Point(18) = {39.033915, -4.285367, 1, cl__5};
Point(19) = {39.033915, 5.139334000000001, 1, cl__6};
Point(20) = {39.033915, 5.139334000000001, 0, cl__6};
p13 = newp;
Point(p13 + 1) = {13.19065914443659, -3.096076086370303, 0.1};
Point(p13 + 2) = {13.16963258718387, -3.008494172279763, 0.1};
Point(p13 + 3) = {13.13516407186455, -2.925279815120999, 0.1};
Point(p13 + 4) = {13.08810232772024, -2.848482028539877, 0.1};
Point(p13 + 5) = {13.02960617108074, -2.779991828919265, 0.1};
Point(p13 + 6) = {12.96111597146012, -2.721495672279763, 0.1};
Point(p13 + 7) = {12.884318184879, -2.674433928135449, 0.1};
Point(p13 + 8) = {12.80110382772024, -2.639965412816131, 0.1};
Point(p13 + 9) = {12.7135219136297, -2.618938855563413, 0.1};
Point(p13 + 10) = {12.623729, -2.611872, 0.1};
Point(p13 + 11) = {12.5339360863703, -2.618938855563413, 0.1};
Point(p13 + 12) = {12.44635417227977, -2.639965412816131, 0.1};
Point(p13 + 13) = {12.363139815121, -2.674433928135449, 0.1};
Point(p13 + 14) = {12.28634202853988, -2.721495672279763, 0.1};
Point(p13 + 15) = {12.21785182891927, -2.779991828919265, 0.1};
Point(p13 + 16) = {12.15935567227976, -2.848482028539877, 0.1};
Point(p13 + 17) = {12.11229392813545, -2.925279815120999, 0.1};
Point(p13 + 18) = {12.07782541281613, -3.008494172279763, 0.1};
Point(p13 + 19) = {12.05679885556341, -3.096076086370303, 0.1};
Point(p13 + 20) = {12.049732, -3.185869, 0.1};
Point(p13 + 21) = {12.05679885556341, -3.275661913629697, 0.1};
Point(p13 + 22) = {12.07782541281613, -3.363243827720237, 0.1};
Point(p13 + 23) = {12.11229392813545, -3.446458184879, 0.1};
Point(p13 + 24) = {12.15935567227976, -3.523255971460122, 0.1};
Point(p13 + 25) = {12.21785182891927, -3.591746171080735, 0.1};
Point(p13 + 26) = {12.28634202853988, -3.650242327720236, 0.1};
Point(p13 + 27) = {12.363139815121, -3.69730407186455, 0.1};
Point(p13 + 28) = {12.44635417227976, -3.731772587183869, 0.1};
Point(p13 + 29) = {12.5339360863703, -3.752799144436587, 0.1};
Point(p13 + 30) = {12.623729, -3.759866, 0.1};
Point(p13 + 31) = {12.7135219136297, -3.752799144436587, 0.1};
Point(p13 + 32) = {12.80110382772024, -3.731772587183869, 0.1};
Point(p13 + 33) = {12.884318184879, -3.697304071864551, 0.1};
Point(p13 + 34) = {12.96111597146012, -3.650242327720237, 0.1};
Point(p13 + 35) = {13.02960617108073, -3.591746171080735, 0.1};
Point(p13 + 36) = {13.08810232772024, -3.523255971460123, 0.1};
Point(p13 + 37) = {13.13516407186455, -3.446458184879001, 0.1};
Point(p13 + 38) = {13.16963258718387, -3.363243827720237, 0.1};
Point(p13 + 39) = {13.19065914443659, -3.275661913629697, 0.1};
Spline(13) = {9, p13 + 1, p13 + 2, p13 + 3, p13 + 4, p13 + 5, p13 + 6, p13 + 7, p13 + 8, p13 + 9, p13 + 10, p13 + 11, p13 + 12, p13 + 13, p13 + 14, p13 + 15, p13 + 16, p13 + 17, p13 + 18, p13 + 19, p13 + 20, p13 + 21, p13 + 22, p13 + 23, p13 + 24, p13 + 25, p13 + 26, p13 + 27, p13 + 28, p13 + 29, p13 + 30, p13 + 31, p13 + 32, p13 + 33, p13 + 34, p13 + 35, p13 + 36, p13 + 37, p13 + 38, p13 + 39, 9};
Line(14) = {10, 9};
p15 = newp;
Point(p15 + 1) = {13.19065914443659, -3.096076086370303, 0};
Point(p15 + 2) = {13.16963258718387, -3.008494172279763, 0};
Point(p15 + 3) = {13.13516407186455, -2.925279815120999, 0};
Point(p15 + 4) = {13.08810232772024, -2.848482028539877, 0};
Point(p15 + 5) = {13.02960617108074, -2.779991828919265, 0};
Point(p15 + 6) = {12.96111597146012, -2.721495672279763, 0};
Point(p15 + 7) = {12.884318184879, -2.674433928135449, 0};
Point(p15 + 8) = {12.80110382772024, -2.639965412816131, 0};
Point(p15 + 9) = {12.7135219136297, -2.618938855563413, 0};
Point(p15 + 10) = {12.623729, -2.611872, 0};
Point(p15 + 11) = {12.5339360863703, -2.618938855563413, 0};
Point(p15 + 12) = {12.44635417227977, -2.639965412816131, 0};
Point(p15 + 13) = {12.363139815121, -2.674433928135449, 0};
Point(p15 + 14) = {12.28634202853988, -2.721495672279763, 0};
Point(p15 + 15) = {12.21785182891927, -2.779991828919265, 0};
Point(p15 + 16) = {12.15935567227976, -2.848482028539877, 0};
Point(p15 + 17) = {12.11229392813545, -2.925279815120999, 0};
Point(p15 + 18) = {12.07782541281613, -3.008494172279763, 0};
Point(p15 + 19) = {12.05679885556341, -3.096076086370303, 0};
Point(p15 + 20) = {12.049732, -3.185869, 0};
Point(p15 + 21) = {12.05679885556341, -3.275661913629697, 0};
Point(p15 + 22) = {12.07782541281613, -3.363243827720237, 0};
Point(p15 + 23) = {12.11229392813545, -3.446458184879, 0};
Point(p15 + 24) = {12.15935567227976, -3.523255971460122, 0};
Point(p15 + 25) = {12.21785182891927, -3.591746171080735, 0};
Point(p15 + 26) = {12.28634202853988, -3.650242327720236, 0};
Point(p15 + 27) = {12.363139815121, -3.69730407186455, 0};
Point(p15 + 28) = {12.44635417227976, -3.731772587183869, 0};
Point(p15 + 29) = {12.5339360863703, -3.752799144436587, 0};
Point(p15 + 30) = {12.623729, -3.759866, 0};
Point(p15 + 31) = {12.7135219136297, -3.752799144436587, 0};
Point(p15 + 32) = {12.80110382772024, -3.731772587183869, 0};
Point(p15 + 33) = {12.884318184879, -3.697304071864551, 0};
Point(p15 + 34) = {12.96111597146012, -3.650242327720237, 0};
Point(p15 + 35) = {13.02960617108073, -3.591746171080735, 0};
Point(p15 + 36) = {13.08810232772024, -3.523255971460123, 0};
Point(p15 + 37) = {13.13516407186455, -3.446458184879001, 0};
Point(p15 + 38) = {13.16963258718387, -3.363243827720237, 0};
Point(p15 + 39) = {13.19065914443659, -3.275661913629697, 0};
Spline(15) = {10, p15 + 1, p15 + 2, p15 + 3, p15 + 4, p15 + 5, p15 + 6, p15 + 7, p15 + 8, p15 + 9, p15 + 10, p15 + 11, p15 + 12, p15 + 13, p15 + 14, p15 + 15, p15 + 16, p15 + 17, p15 + 18, p15 + 19, p15 + 20, p15 + 21, p15 + 22, p15 + 23, p15 + 24, p15 + 25, p15 + 26, p15 + 27, p15 + 28, p15 + 29, p15 + 30, p15 + 31, p15 + 32, p15 + 33, p15 + 34, p15 + 35, p15 + 36, p15 + 37, p15 + 38, p15 + 39, 10};
p16 = newp;
Point(p16 + 1) = {31.15589163523824, -0.9743280605119266, 0.1};
Point(p16 + 2) = {31.12538996357574, -0.8472794545487281, 0.1};
Point(p16 + 3) = {31.07538903739806, -0.7265665404393677, 0.1};
Point(p16 + 4) = {31.00712004545127, -0.6151616707524108, 0.1};
Point(p16 + 5) = {30.92226399688888, -0.5158080031111153, 0.1};
Point(p16 + 6) = {30.82291032924759, -0.4309519545487283, 0.1};
Point(p16 + 7) = {30.71150545956063, -0.3626829626019346, 0.1};
Point(p16 + 8) = {30.59079254545127, -0.312682036424259, 0.1};
Point(p16 + 9) = {30.46374393948807, -0.2821803647617556, 0.1};
Point(p16 + 10) = {30.333488, -0.271929, 0.1};
Point(p16 + 11) = {30.20323206051193, -0.2821803647617557, 0.1};
Point(p16 + 12) = {30.07618345454873, -0.3126820364242588, 0.1};
Point(p16 + 13) = {29.95547054043937, -0.3626829626019346, 0.1};
Point(p16 + 14) = {29.84406567075241, -0.4309519545487281, 0.1};
Point(p16 + 15) = {29.74471200311111, -0.5158080031111152, 0.1};
Point(p16 + 16) = {29.65985595454873, -0.6151616707524107, 0.1};
Point(p16 + 17) = {29.59158696260193, -0.7265665404393675, 0.1};
Point(p16 + 18) = {29.54158603642426, -0.8472794545487281, 0.1};
Point(p16 + 19) = {29.51108436476175, -0.9743280605119264, 0.1};
Point(p16 + 20) = {29.500833, -1.104584, 0.1};
Point(p16 + 21) = {29.51108436476175, -1.234839939488073, 0.1};
Point(p16 + 22) = {29.54158603642426, -1.361888545451272, 0.1};
Point(p16 + 23) = {29.59158696260193, -1.482601459560632, 0.1};
Point(p16 + 24) = {29.65985595454873, -1.594006329247589, 0.1};
Point(p16 + 25) = {29.74471200311111, -1.693359996888885, 0.1};
Point(p16 + 26) = {29.84406567075241, -1.778216045451272, 0.1};
Point(p16 + 27) = {29.95547054043937, -1.846485037398065, 0.1};
Point(p16 + 28) = {30.07618345454873, -1.896485963575741, 0.1};
Point(p16 + 29) = {30.20323206051193, -1.926987635238244, 0.1};
Point(p16 + 30) = {30.333488, -1.937239, 0.1};
Point(p16 + 31) = {30.46374393948807, -1.926987635238244, 0.1};
Point(p16 + 32) = {30.59079254545127, -1.896485963575741, 0.1};
Point(p16 + 33) = {30.71150545956063, -1.846485037398065, 0.1};
Point(p16 + 34) = {30.82291032924759, -1.778216045451272, 0.1};
Point(p16 + 35) = {30.92226399688888, -1.693359996888885, 0.1};
Point(p16 + 36) = {31.00712004545127, -1.594006329247589, 0.1};
Point(p16 + 37) = {31.07538903739806, -1.482601459560632, 0.1};
Point(p16 + 38) = {31.12538996357574, -1.361888545451272, 0.1};
Point(p16 + 39) = {31.15589163523824, -1.234839939488074, 0.1};
Spline(16) = {11, p16 + 1, p16 + 2, p16 + 3, p16 + 4, p16 + 5, p16 + 6, p16 + 7, p16 + 8, p16 + 9, p16 + 10, p16 + 11, p16 + 12, p16 + 13, p16 + 14, p16 + 15, p16 + 16, p16 + 17, p16 + 18, p16 + 19, p16 + 20, p16 + 21, p16 + 22, p16 + 23, p16 + 24, p16 + 25, p16 + 26, p16 + 27, p16 + 28, p16 + 29, p16 + 30, p16 + 31, p16 + 32, p16 + 33, p16 + 34, p16 + 35, p16 + 36, p16 + 37, p16 + 38, p16 + 39, 11};
Line(17) = {12, 11};
p18 = newp;
Point(p18 + 1) = {31.15589163523824, -0.9743280605119266, 0};
Point(p18 + 2) = {31.12538996357574, -0.8472794545487281, 0};
Point(p18 + 3) = {31.07538903739806, -0.7265665404393677, 0};
Point(p18 + 4) = {31.00712004545127, -0.6151616707524108, 0};
Point(p18 + 5) = {30.92226399688888, -0.5158080031111153, 0};
Point(p18 + 6) = {30.82291032924759, -0.4309519545487283, 0};
Point(p18 + 7) = {30.71150545956063, -0.3626829626019346, 0};
Point(p18 + 8) = {30.59079254545127, -0.312682036424259, 0};
Point(p18 + 9) = {30.46374393948807, -0.2821803647617556, 0};
Point(p18 + 10) = {30.333488, -0.271929, 0};
Point(p18 + 11) = {30.20323206051193, -0.2821803647617557, 0};
Point(p18 + 12) = {30.07618345454873, -0.3126820364242588, 0};
Point(p18 + 13) = {29.95547054043937, -0.3626829626019346, 0};
Point(p18 + 14) = {29.84406567075241, -0.4309519545487281, 0};
Point(p18 + 15) = {29.74471200311111, -0.5158080031111152, 0};
Point(p18 + 16) = {29.65985595454873, -0.6151616707524107, 0};
Point(p18 + 17) = {29.59158696260193, -0.7265665404393675, 0};
Point(p18 + 18) = {29.54158603642426, -0.8472794545487281, 0};
Point(p18 + 19) = {29.51108436476175, -0.9743280605119264, 0};
Point(p18 + 20) = {29.500833, -1.104584, 0};
Point(p18 + 21) = {29.51108436476175, -1.234839939488073, 0};
Point(p18 + 22) = {29.54158603642426, -1.361888545451272, 0};
Point(p18 + 23) = {29.59158696260193, -1.482601459560632, 0};
Point(p18 + 24) = {29.65985595454873, -1.594006329247589, 0};
Point(p18 + 25) = {29.74471200311111, -1.693359996888885, 0};
Point(p18 + 26) = {29.84406567075241, -1.778216045451272, 0};
Point(p18 + 27) = {29.95547054043937, -1.846485037398065, 0};
Point(p18 + 28) = {30.07618345454873, -1.896485963575741, 0};
Point(p18 + 29) = {30.20323206051193, -1.926987635238244, 0};
Point(p18 + 30) = {30.333488, -1.937239, 0};
Point(p18 + 31) = {30.46374393948807, -1.926987635238244, 0};
Point(p18 + 32) = {30.59079254545127, -1.896485963575741, 0};
Point(p18 + 33) = {30.71150545956063, -1.846485037398065, 0};
Point(p18 + 34) = {30.82291032924759, -1.778216045451272, 0};
Point(p18 + 35) = {30.92226399688888, -1.693359996888885, 0};
Point(p18 + 36) = {31.00712004545127, -1.594006329247589, 0};
Point(p18 + 37) = {31.07538903739806, -1.482601459560632, 0};
Point(p18 + 38) = {31.12538996357574, -1.361888545451272, 0};
Point(p18 + 39) = {31.15589163523824, -1.234839939488074, 0};
Spline(18) = {12, p18 + 1, p18 + 2, p18 + 3, p18 + 4, p18 + 5, p18 + 6, p18 + 7, p18 + 8, p18 + 9, p18 + 10, p18 + 11, p18 + 12, p18 + 13, p18 + 14, p18 + 15, p18 + 16, p18 + 17, p18 + 18, p18 + 19, p18 + 20, p18 + 21, p18 + 22, p18 + 23, p18 + 24, p18 + 25, p18 + 26, p18 + 27, p18 + 28, p18 + 29, p18 + 30, p18 + 31, p18 + 32, p18 + 33, p18 + 34, p18 + 35, p18 + 36, p18 + 37, p18 + 38, p18 + 39, 12};
Line(19) = {14, 13};
Line(20) = {13, 15};
Line(21) = {16, 15};
Line(22) = {14, 16};
Line(23) = {14, 17};
Line(24) = {17, 18};
Line(25) = {13, 18};
Line(26) = {15, 19};
Line(27) = {18, 19};
Line(28) = {16, 20};
Line(29) = {20, 19};
Line(30) = {17, 20};
Curve Loop(7) = {-13, -14, 15, 14};
Surface(7) = {7};
Curve Loop(8) = {13};
Plane Surface(8) = {8};
Curve Loop(9) = {15};
Plane Surface(9) = {9};
Curve Loop(10) = {-16, -17, 18, 17};
Surface(10) = {10};
Curve Loop(11) = {16};
Plane Surface(11) = {11};
Curve Loop(12) = {18};
Plane Surface(12) = {12};
Curve Loop(13) = {-19, 22, 21, -20};
Plane Surface(13) = {13};
Curve Loop(14) = {-23, 19, 25, -24};
Plane Surface(14) = {14};
Curve Loop(15) = {-20, 25, 27, -26};
Plane Surface(15) = {15};
Curve Loop(16) = {-28, 21, 26, -29};
Plane Surface(16) = {16};
Curve Loop(17) = {-22, 23, 30, -28, -15, -18};
Plane Surface(17) = {17};
Curve Loop(18) = {-24, 30, 29, -27};
Plane Surface(18) = {18};
Surface Loop(1) = {13, 14, 15, 16, 17, 18, 7, 10, 8, 11};
Volume(1) = {1};
Surface Loop(2) = {7, 8, 9};
Volume(2) = {2};
Surface Loop(3) = {10, 11, 12};
Volume(3) = {3};
Physical Surface("WALLS") = {13, 18};
Physical Surface("LOAD") = {8, 11};
Physical Surface("BORDER") = {7, 9, 10, 12, 14, 15, 16, 17};
Physical Volume("SOLID") = {1, 2, 3};
