cl__1 = 0.110905;
cl__2 = 0.139237;
cl__3 = 0.631476;
cl__4 = 0.545337;
cl__5 = 2.883389;
cl__6 = 2.743247;
Point(9) = {14.814674, 1.415694, 0.1, cl__1};
Point(10) = {14.814674, 1.415694, 0, cl__1};
Point(11) = {10.956502, 2.028233, 0.1, cl__2};
Point(12) = {10.956502, 2.028233, 0, cl__2};
Point(13) = {0.102312, -4.292591, 1, cl__3};
Point(14) = {0.102312, -4.292591, 0, cl__3};
Point(15) = {0.102312, 5.315619, 1, cl__4};
Point(16) = {0.102312, 5.315619, 0, cl__4};
Point(17) = {36.623554, -4.292591, 0, cl__5};
Point(18) = {36.623554, -4.292591, 1, cl__5};
Point(19) = {36.623554, 5.315619, 1, cl__6};
Point(20) = {36.623554, 5.315619, 0, cl__6};
p13 = newp;
Point(p13 + 1) = {14.80101975413704, 1.589187643452868, 0.1};
Point(p13 + 2) = {14.76039322939714, 1.758409297611536, 0.1};
Point(p13 + 3) = {14.69379478565111, 1.919192163736144, 0.1};
Point(p13 + 4) = {14.60286429761154, 2.067577234054967, 0.1};
Point(p13 + 5) = {14.48984077567494, 2.19991077567494, 0.1};
Point(p13 + 6) = {14.35750723405497, 2.312934297611536, 0.1};
Point(p13 + 7) = {14.20912216373615, 2.40386478565111, 0.1};
Point(p13 + 8) = {14.04833929761154, 2.47046322939714, 0.1};
Point(p13 + 9) = {13.87911764345287, 2.511089754137037, 0.1};
Point(p13 + 10) = {13.705624, 2.524744, 0.1};
Point(p13 + 11) = {13.53213035654713, 2.511089754137037, 0.1};
Point(p13 + 12) = {13.36290870238846, 2.47046322939714, 0.1};
Point(p13 + 13) = {13.20212583626386, 2.40386478565111, 0.1};
Point(p13 + 14) = {13.05374076594503, 2.312934297611536, 0.1};
Point(p13 + 15) = {12.92140722432506, 2.199910775674941, 0.1};
Point(p13 + 16) = {12.80838370238846, 2.067577234054967, 0.1};
Point(p13 + 17) = {12.71745321434889, 1.919192163736144, 0.1};
Point(p13 + 18) = {12.65085477060286, 1.758409297611536, 0.1};
Point(p13 + 19) = {12.61022824586296, 1.589187643452868, 0.1};
Point(p13 + 20) = {12.596574, 1.415694, 0.1};
Point(p13 + 21) = {12.61022824586296, 1.242200356547132, 0.1};
Point(p13 + 22) = {12.65085477060286, 1.072978702388464, 0.1};
Point(p13 + 23) = {12.71745321434889, 0.9121958362638561, 0.1};
Point(p13 + 24) = {12.80838370238846, 0.7638107659450327, 0.1};
Point(p13 + 25) = {12.92140722432506, 0.6314772243250595, 0.1};
Point(p13 + 26) = {13.05374076594503, 0.5184537023884646, 0.1};
Point(p13 + 27) = {13.20212583626386, 0.4275232143488906, 0.1};
Point(p13 + 28) = {13.36290870238846, 0.36092477060286, 0.1};
Point(p13 + 29) = {13.53213035654713, 0.3202982458629624, 0.1};
Point(p13 + 30) = {13.705624, 0.3066439999999999, 0.1};
Point(p13 + 31) = {13.87911764345287, 0.3202982458629624, 0.1};
Point(p13 + 32) = {14.04833929761154, 0.3609247706028598, 0.1};
Point(p13 + 33) = {14.20912216373614, 0.4275232143488904, 0.1};
Point(p13 + 34) = {14.35750723405497, 0.5184537023884643, 0.1};
Point(p13 + 35) = {14.48984077567494, 0.6314772243250593, 0.1};
Point(p13 + 36) = {14.60286429761154, 0.7638107659450325, 0.1};
Point(p13 + 37) = {14.69379478565111, 0.9121958362638554, 0.1};
Point(p13 + 38) = {14.76039322939714, 1.072978702388464, 0.1};
Point(p13 + 39) = {14.80101975413704, 1.242200356547132, 0.1};
Spline(13) = {9, p13 + 1, p13 + 2, p13 + 3, p13 + 4, p13 + 5, p13 + 6, p13 + 7, p13 + 8, p13 + 9, p13 + 10, p13 + 11, p13 + 12, p13 + 13, p13 + 14, p13 + 15, p13 + 16, p13 + 17, p13 + 18, p13 + 19, p13 + 20, p13 + 21, p13 + 22, p13 + 23, p13 + 24, p13 + 25, p13 + 26, p13 + 27, p13 + 28, p13 + 29, p13 + 30, p13 + 31, p13 + 32, p13 + 33, p13 + 34, p13 + 35, p13 + 36, p13 + 37, p13 + 38, p13 + 39, 9};
Line(14) = {10, 9};
p15 = newp;
Point(p15 + 1) = {14.80101975413704, 1.589187643452868, 0};
Point(p15 + 2) = {14.76039322939714, 1.758409297611536, 0};
Point(p15 + 3) = {14.69379478565111, 1.919192163736144, 0};
Point(p15 + 4) = {14.60286429761154, 2.067577234054967, 0};
Point(p15 + 5) = {14.48984077567494, 2.19991077567494, 0};
Point(p15 + 6) = {14.35750723405497, 2.312934297611536, 0};
Point(p15 + 7) = {14.20912216373615, 2.40386478565111, 0};
Point(p15 + 8) = {14.04833929761154, 2.47046322939714, 0};
Point(p15 + 9) = {13.87911764345287, 2.511089754137037, 0};
Point(p15 + 10) = {13.705624, 2.524744, 0};
Point(p15 + 11) = {13.53213035654713, 2.511089754137037, 0};
Point(p15 + 12) = {13.36290870238846, 2.47046322939714, 0};
Point(p15 + 13) = {13.20212583626386, 2.40386478565111, 0};
Point(p15 + 14) = {13.05374076594503, 2.312934297611536, 0};
Point(p15 + 15) = {12.92140722432506, 2.199910775674941, 0};
Point(p15 + 16) = {12.80838370238846, 2.067577234054967, 0};
Point(p15 + 17) = {12.71745321434889, 1.919192163736144, 0};
Point(p15 + 18) = {12.65085477060286, 1.758409297611536, 0};
Point(p15 + 19) = {12.61022824586296, 1.589187643452868, 0};
Point(p15 + 20) = {12.596574, 1.415694, 0};
Point(p15 + 21) = {12.61022824586296, 1.242200356547132, 0};
Point(p15 + 22) = {12.65085477060286, 1.072978702388464, 0};
Point(p15 + 23) = {12.71745321434889, 0.9121958362638561, 0};
Point(p15 + 24) = {12.80838370238846, 0.7638107659450327, 0};
Point(p15 + 25) = {12.92140722432506, 0.6314772243250595, 0};
Point(p15 + 26) = {13.05374076594503, 0.5184537023884646, 0};
Point(p15 + 27) = {13.20212583626386, 0.4275232143488906, 0};
Point(p15 + 28) = {13.36290870238846, 0.36092477060286, 0};
Point(p15 + 29) = {13.53213035654713, 0.3202982458629624, 0};
Point(p15 + 30) = {13.705624, 0.3066439999999999, 0};
Point(p15 + 31) = {13.87911764345287, 0.3202982458629624, 0};
Point(p15 + 32) = {14.04833929761154, 0.3609247706028598, 0};
Point(p15 + 33) = {14.20912216373614, 0.4275232143488904, 0};
Point(p15 + 34) = {14.35750723405497, 0.5184537023884643, 0};
Point(p15 + 35) = {14.48984077567494, 0.6314772243250593, 0};
Point(p15 + 36) = {14.60286429761154, 0.7638107659450325, 0};
Point(p15 + 37) = {14.69379478565111, 0.9121958362638554, 0};
Point(p15 + 38) = {14.76039322939714, 1.072978702388464, 0};
Point(p15 + 39) = {14.80101975413704, 1.242200356547132, 0};
Spline(15) = {10, p15 + 1, p15 + 2, p15 + 3, p15 + 4, p15 + 5, p15 + 6, p15 + 7, p15 + 8, p15 + 9, p15 + 10, p15 + 11, p15 + 12, p15 + 13, p15 + 14, p15 + 15, p15 + 16, p15 + 17, p15 + 18, p15 + 19, p15 + 20, p15 + 21, p15 + 22, p15 + 23, p15 + 24, p15 + 25, p15 + 26, p15 + 27, p15 + 28, p15 + 29, p15 + 30, p15 + 31, p15 + 32, p15 + 33, p15 + 34, p15 + 35, p15 + 36, p15 + 37, p15 + 38, p15 + 39, 10};
p16 = newp;
Point(p16 + 1) = {10.93935956554781, 2.246048281825927, 0.1};
Point(p16 + 2) = {10.88835436581995, 2.458500228525823, 0.1};
Point(p16 + 3) = {10.80474231811025, 2.660357568084352, 0.1};
Point(p16 + 4) = {10.69058222852582, 2.84664990287548, 0.1};
Point(p16 + 5) = {10.54868509734784, 3.012790097347838, 0.1};
Point(p16 + 6) = {10.38254490287548, 3.154687228525823, 0.1};
Point(p16 + 7) = {10.19625256808435, 3.268847318110255, 0.1};
Point(p16 + 8) = {9.994395228525823, 3.352459365819948, 0.1};
Point(p16 + 9) = {9.781943281825926, 3.403464565547814, 0.1};
Point(p16 + 10) = {9.564128, 3.420607, 0.1};
Point(p16 + 11) = {9.346312718174074, 3.403464565547814, 0.1};
Point(p16 + 12) = {9.133860771474177, 3.352459365819948, 0.1};
Point(p16 + 13) = {8.932003431915648, 3.268847318110255, 0.1};
Point(p16 + 14) = {8.74571109712452, 3.154687228525823, 0.1};
Point(p16 + 15) = {8.579570902652163, 3.012790097347838, 0.1};
Point(p16 + 16) = {8.437673771474177, 2.84664990287548, 0.1};
Point(p16 + 17) = {8.323513681889747, 2.660357568084352, 0.1};
Point(p16 + 18) = {8.239901634180052, 2.458500228525824, 0.1};
Point(p16 + 19) = {8.188896434452186, 2.246048281825927, 0.1};
Point(p16 + 20) = {8.171754, 2.028233, 0.1};
Point(p16 + 21) = {8.188896434452186, 1.810417718174074, 0.1};
Point(p16 + 22) = {8.239901634180052, 1.597965771474177, 0.1};
Point(p16 + 23) = {8.323513681889745, 1.396108431915649, 0.1};
Point(p16 + 24) = {8.437673771474177, 1.20981609712452, 0.1};
Point(p16 + 25) = {8.579570902652161, 1.043675902652162, 0.1};
Point(p16 + 26) = {8.74571109712452, 0.9017787714741772, 0.1};
Point(p16 + 27) = {8.932003431915648, 0.7876186818897457, 0.1};
Point(p16 + 28) = {9.133860771474177, 0.7040066341800522, 0.1};
Point(p16 + 29) = {9.346312718174074, 0.6530014344521859, 0.1};
Point(p16 + 30) = {9.564128, 0.6358590000000002, 0.1};
Point(p16 + 31) = {9.781943281825926, 0.6530014344521857, 0.1};
Point(p16 + 32) = {9.994395228525823, 0.7040066341800519, 0.1};
Point(p16 + 33) = {10.19625256808435, 0.7876186818897455, 0.1};
Point(p16 + 34) = {10.38254490287548, 0.901778771474177, 0.1};
Point(p16 + 35) = {10.54868509734784, 1.043675902652162, 0.1};
Point(p16 + 36) = {10.69058222852582, 1.20981609712452, 0.1};
Point(p16 + 37) = {10.80474231811025, 1.396108431915648, 0.1};
Point(p16 + 38) = {10.88835436581995, 1.597965771474177, 0.1};
Point(p16 + 39) = {10.93935956554781, 1.810417718174073, 0.1};
Spline(16) = {11, p16 + 1, p16 + 2, p16 + 3, p16 + 4, p16 + 5, p16 + 6, p16 + 7, p16 + 8, p16 + 9, p16 + 10, p16 + 11, p16 + 12, p16 + 13, p16 + 14, p16 + 15, p16 + 16, p16 + 17, p16 + 18, p16 + 19, p16 + 20, p16 + 21, p16 + 22, p16 + 23, p16 + 24, p16 + 25, p16 + 26, p16 + 27, p16 + 28, p16 + 29, p16 + 30, p16 + 31, p16 + 32, p16 + 33, p16 + 34, p16 + 35, p16 + 36, p16 + 37, p16 + 38, p16 + 39, 11};
Line(17) = {12, 11};
p18 = newp;
Point(p18 + 1) = {10.93935956554781, 2.246048281825927, 0};
Point(p18 + 2) = {10.88835436581995, 2.458500228525823, 0};
Point(p18 + 3) = {10.80474231811025, 2.660357568084352, 0};
Point(p18 + 4) = {10.69058222852582, 2.84664990287548, 0};
Point(p18 + 5) = {10.54868509734784, 3.012790097347838, 0};
Point(p18 + 6) = {10.38254490287548, 3.154687228525823, 0};
Point(p18 + 7) = {10.19625256808435, 3.268847318110255, 0};
Point(p18 + 8) = {9.994395228525823, 3.352459365819948, 0};
Point(p18 + 9) = {9.781943281825926, 3.403464565547814, 0};
Point(p18 + 10) = {9.564128, 3.420607, 0};
Point(p18 + 11) = {9.346312718174074, 3.403464565547814, 0};
Point(p18 + 12) = {9.133860771474177, 3.352459365819948, 0};
Point(p18 + 13) = {8.932003431915648, 3.268847318110255, 0};
Point(p18 + 14) = {8.74571109712452, 3.154687228525823, 0};
Point(p18 + 15) = {8.579570902652163, 3.012790097347838, 0};
Point(p18 + 16) = {8.437673771474177, 2.84664990287548, 0};
Point(p18 + 17) = {8.323513681889747, 2.660357568084352, 0};
Point(p18 + 18) = {8.239901634180052, 2.458500228525824, 0};
Point(p18 + 19) = {8.188896434452186, 2.246048281825927, 0};
Point(p18 + 20) = {8.171754, 2.028233, 0};
Point(p18 + 21) = {8.188896434452186, 1.810417718174074, 0};
Point(p18 + 22) = {8.239901634180052, 1.597965771474177, 0};
Point(p18 + 23) = {8.323513681889745, 1.396108431915649, 0};
Point(p18 + 24) = {8.437673771474177, 1.20981609712452, 0};
Point(p18 + 25) = {8.579570902652161, 1.043675902652162, 0};
Point(p18 + 26) = {8.74571109712452, 0.9017787714741772, 0};
Point(p18 + 27) = {8.932003431915648, 0.7876186818897457, 0};
Point(p18 + 28) = {9.133860771474177, 0.7040066341800522, 0};
Point(p18 + 29) = {9.346312718174074, 0.6530014344521859, 0};
Point(p18 + 30) = {9.564128, 0.6358590000000002, 0};
Point(p18 + 31) = {9.781943281825926, 0.6530014344521857, 0};
Point(p18 + 32) = {9.994395228525823, 0.7040066341800519, 0};
Point(p18 + 33) = {10.19625256808435, 0.7876186818897455, 0};
Point(p18 + 34) = {10.38254490287548, 0.901778771474177, 0};
Point(p18 + 35) = {10.54868509734784, 1.043675902652162, 0};
Point(p18 + 36) = {10.69058222852582, 1.20981609712452, 0};
Point(p18 + 37) = {10.80474231811025, 1.396108431915648, 0};
Point(p18 + 38) = {10.88835436581995, 1.597965771474177, 0};
Point(p18 + 39) = {10.93935956554781, 1.810417718174073, 0};
Spline(18) = {12, p18 + 1, p18 + 2, p18 + 3, p18 + 4, p18 + 5, p18 + 6, p18 + 7, p18 + 8, p18 + 9, p18 + 10, p18 + 11, p18 + 12, p18 + 13, p18 + 14, p18 + 15, p18 + 16, p18 + 17, p18 + 18, p18 + 19, p18 + 20, p18 + 21, p18 + 22, p18 + 23, p18 + 24, p18 + 25, p18 + 26, p18 + 27, p18 + 28, p18 + 29, p18 + 30, p18 + 31, p18 + 32, p18 + 33, p18 + 34, p18 + 35, p18 + 36, p18 + 37, p18 + 38, p18 + 39, 12};
Line(19) = {14, 13};
Line(20) = {13, 15};
Line(21) = {16, 15};
Line(22) = {14, 16};
Line(23) = {14, 17};
Line(24) = {17, 18};
Line(25) = {13, 18};
Line(26) = {15, 19};
Line(27) = {18, 19};
Line(28) = {16, 20};
Line(29) = {20, 19};
Line(30) = {17, 20};
Curve Loop(7) = {-13, -14, 15, 14};
Surface(7) = {7};
Curve Loop(8) = {13};
Plane Surface(8) = {8};
Curve Loop(9) = {15};
Plane Surface(9) = {9};
Curve Loop(10) = {-16, -17, 18, 17};
Surface(10) = {10};
Curve Loop(11) = {16};
Plane Surface(11) = {11};
Curve Loop(12) = {18};
Plane Surface(12) = {12};
Curve Loop(13) = {-19, 22, 21, -20};
Plane Surface(13) = {13};
Curve Loop(14) = {-23, 19, 25, -24};
Plane Surface(14) = {14};
Curve Loop(15) = {-20, 25, 27, -26};
Plane Surface(15) = {15};
Curve Loop(16) = {-28, 21, 26, -29};
Plane Surface(16) = {16};
Curve Loop(17) = {-22, 23, 30, -28, -15, -18};
Plane Surface(17) = {17};
Curve Loop(18) = {-24, 30, 29, -27};
Plane Surface(18) = {18};
Surface Loop(1) = {13, 14, 15, 16, 17, 18, 7, 10, 8, 11};
Volume(1) = {1};
Surface Loop(2) = {7, 8, 9};
Volume(2) = {2};
Surface Loop(3) = {10, 11, 12};
Volume(3) = {3};
Physical Surface("WALLS") = {13, 18};
Physical Surface("LOAD") = {8, 11};
Physical Surface("BORDER") = {7, 9, 10, 12, 14, 15, 16, 17};
Physical Volume("SOLID") = {1, 2, 3};
