cl__1 = 0.121591;
cl__2 = 0.072175;
cl__3 = 0.576205;
cl__4 = 0.335341;
cl__5 = 3.822496;
cl__6 = 3.54581;
Point(9) = {18.060187, 1.422268, 0.1, cl__1};
Point(10) = {18.060187, 1.422268, 0, cl__1};
Point(11) = {4.781150999999999, 2.346689, 0.1, cl__2};
Point(12) = {4.781150999999999, 2.346689, 0, cl__2};
Point(13) = {0.222918, -4.070237, 1, cl__3};
Point(14) = {0.222918, -4.070237, 0, cl__3};
Point(15) = {0.222918, 4.979158000000001, 1, cl__4};
Point(16) = {0.222918, 4.979158000000001, 0, cl__4};
Point(17) = {35.601508, -4.070237, 0, cl__5};
Point(18) = {35.601508, -4.070237, 1, cl__5};
Point(19) = {35.601508, 4.979158000000001, 1, cl__6};
Point(20) = {35.601508, 4.979158000000001, 0, cl__6};
p13 = newp;
Point(p13 + 1) = {18.0452170809664, 1.612478856124927, 0.1};
Point(p13 + 2) = {18.00067593295451, 1.79800608969842, 0.1};
Point(p13 + 3) = {17.92766030685198, 1.974281404500311, 0.1};
Point(p13 + 4) = {17.82796808969842, 2.13696431725595, 0.1};
Point(p13 + 5) = {17.70405403473966, 2.28204903473966, 0.1};
Point(p13 + 6) = {17.55896931725595, 2.40596308969842, 0.1};
Point(p13 + 7) = {17.39628640450031, 2.505655306851975, 0.1};
Point(p13 + 8) = {17.22001108969842, 2.578670932954505, 0.1};
Point(p13 + 9) = {17.03448385612493, 2.623212080966396, 0.1};
Point(p13 + 10) = {16.844273, 2.638182, 0.1};
Point(p13 + 11) = {16.65406214387507, 2.623212080966396, 0.1};
Point(p13 + 12) = {16.46853491030158, 2.578670932954505, 0.1};
Point(p13 + 13) = {16.29225959549969, 2.505655306851975, 0.1};
Point(p13 + 14) = {16.12957668274405, 2.40596308969842, 0.1};
Point(p13 + 15) = {15.98449196526034, 2.28204903473966, 0.1};
Point(p13 + 16) = {15.86057791030158, 2.13696431725595, 0.1};
Point(p13 + 17) = {15.76088569314803, 1.974281404500311, 0.1};
Point(p13 + 18) = {15.6878700670455, 1.79800608969842, 0.1};
Point(p13 + 19) = {15.64332891903361, 1.612478856124927, 0.1};
Point(p13 + 20) = {15.628359, 1.422268, 0.1};
Point(p13 + 21) = {15.64332891903361, 1.232057143875073, 0.1};
Point(p13 + 22) = {15.6878700670455, 1.04652991030158, 0.1};
Point(p13 + 23) = {15.76088569314803, 0.8702545954996894, 0.1};
Point(p13 + 24) = {15.86057791030158, 0.70757168274405, 0.1};
Point(p13 + 25) = {15.98449196526034, 0.5624869652603405, 0.1};
Point(p13 + 26) = {16.12957668274405, 0.4385729103015804, 0.1};
Point(p13 + 27) = {16.29225959549969, 0.338880693148025, 0.1};
Point(p13 + 28) = {16.46853491030158, 0.2658650670454947, 0.1};
Point(p13 + 29) = {16.65406214387507, 0.221323919033604, 0.1};
Point(p13 + 30) = {16.844273, 0.2063540000000001, 0.1};
Point(p13 + 31) = {17.03448385612493, 0.2213239190336038, 0.1};
Point(p13 + 32) = {17.22001108969842, 0.2658650670454947, 0.1};
Point(p13 + 33) = {17.39628640450031, 0.3388806931480248, 0.1};
Point(p13 + 34) = {17.55896931725595, 0.4385729103015802, 0.1};
Point(p13 + 35) = {17.70405403473966, 0.5624869652603401, 0.1};
Point(p13 + 36) = {17.82796808969842, 0.7075716827440498, 0.1};
Point(p13 + 37) = {17.92766030685198, 0.8702545954996886, 0.1};
Point(p13 + 38) = {18.00067593295451, 1.04652991030158, 0.1};
Point(p13 + 39) = {18.0452170809664, 1.232057143875072, 0.1};
Spline(13) = {9, p13 + 1, p13 + 2, p13 + 3, p13 + 4, p13 + 5, p13 + 6, p13 + 7, p13 + 8, p13 + 9, p13 + 10, p13 + 11, p13 + 12, p13 + 13, p13 + 14, p13 + 15, p13 + 16, p13 + 17, p13 + 18, p13 + 19, p13 + 20, p13 + 21, p13 + 22, p13 + 23, p13 + 24, p13 + 25, p13 + 26, p13 + 27, p13 + 28, p13 + 29, p13 + 30, p13 + 31, p13 + 32, p13 + 33, p13 + 34, p13 + 35, p13 + 36, p13 + 37, p13 + 38, p13 + 39, 9};
Line(14) = {10, 9};
p15 = newp;
Point(p15 + 1) = {18.0452170809664, 1.612478856124927, 0};
Point(p15 + 2) = {18.00067593295451, 1.79800608969842, 0};
Point(p15 + 3) = {17.92766030685198, 1.974281404500311, 0};
Point(p15 + 4) = {17.82796808969842, 2.13696431725595, 0};
Point(p15 + 5) = {17.70405403473966, 2.28204903473966, 0};
Point(p15 + 6) = {17.55896931725595, 2.40596308969842, 0};
Point(p15 + 7) = {17.39628640450031, 2.505655306851975, 0};
Point(p15 + 8) = {17.22001108969842, 2.578670932954505, 0};
Point(p15 + 9) = {17.03448385612493, 2.623212080966396, 0};
Point(p15 + 10) = {16.844273, 2.638182, 0};
Point(p15 + 11) = {16.65406214387507, 2.623212080966396, 0};
Point(p15 + 12) = {16.46853491030158, 2.578670932954505, 0};
Point(p15 + 13) = {16.29225959549969, 2.505655306851975, 0};
Point(p15 + 14) = {16.12957668274405, 2.40596308969842, 0};
Point(p15 + 15) = {15.98449196526034, 2.28204903473966, 0};
Point(p15 + 16) = {15.86057791030158, 2.13696431725595, 0};
Point(p15 + 17) = {15.76088569314803, 1.974281404500311, 0};
Point(p15 + 18) = {15.6878700670455, 1.79800608969842, 0};
Point(p15 + 19) = {15.64332891903361, 1.612478856124927, 0};
Point(p15 + 20) = {15.628359, 1.422268, 0};
Point(p15 + 21) = {15.64332891903361, 1.232057143875073, 0};
Point(p15 + 22) = {15.6878700670455, 1.04652991030158, 0};
Point(p15 + 23) = {15.76088569314803, 0.8702545954996894, 0};
Point(p15 + 24) = {15.86057791030158, 0.70757168274405, 0};
Point(p15 + 25) = {15.98449196526034, 0.5624869652603405, 0};
Point(p15 + 26) = {16.12957668274405, 0.4385729103015804, 0};
Point(p15 + 27) = {16.29225959549969, 0.338880693148025, 0};
Point(p15 + 28) = {16.46853491030158, 0.2658650670454947, 0};
Point(p15 + 29) = {16.65406214387507, 0.221323919033604, 0};
Point(p15 + 30) = {16.844273, 0.2063540000000001, 0};
Point(p15 + 31) = {17.03448385612493, 0.2213239190336038, 0};
Point(p15 + 32) = {17.22001108969842, 0.2658650670454947, 0};
Point(p15 + 33) = {17.39628640450031, 0.3388806931480248, 0};
Point(p15 + 34) = {17.55896931725595, 0.4385729103015802, 0};
Point(p15 + 35) = {17.70405403473966, 0.5624869652603401, 0};
Point(p15 + 36) = {17.82796808969842, 0.7075716827440498, 0};
Point(p15 + 37) = {17.92766030685198, 0.8702545954996886, 0};
Point(p15 + 38) = {18.00067593295451, 1.04652991030158, 0};
Point(p15 + 39) = {18.0452170809664, 1.232057143875072, 0};
Spline(15) = {10, p15 + 1, p15 + 2, p15 + 3, p15 + 4, p15 + 5, p15 + 6, p15 + 7, p15 + 8, p15 + 9, p15 + 10, p15 + 11, p15 + 12, p15 + 13, p15 + 14, p15 + 15, p15 + 16, p15 + 17, p15 + 18, p15 + 19, p15 + 20, p15 + 21, p15 + 22, p15 + 23, p15 + 24, p15 + 25, p15 + 26, p15 + 27, p15 + 28, p15 + 29, p15 + 30, p15 + 31, p15 + 32, p15 + 33, p15 + 34, p15 + 35, p15 + 36, p15 + 37, p15 + 38, p15 + 39, 10};
p16 = newp;
Point(p16 + 1) = {4.772265096759519, 2.459595105839392, 0.1};
Point(p16 + 2) = {4.745826187466478, 2.569721088639135, 0.1};
Point(p16 + 3) = {4.702485285813382, 2.674355281215519, 0.1};
Point(p16 + 4) = {4.643309588639135, 2.770921242486335, 0.1};
Point(p16 + 5) = {4.569756198001047, 2.857041198001047, 0.1};
Point(p16 + 6) = {4.483636242486336, 2.930594588639135, 0.1};
Point(p16 + 7) = {4.387070281215519, 2.989770285813382, 0.1};
Point(p16 + 8) = {4.282436088639135, 3.033111187466478, 0.1};
Point(p16 + 9) = {4.172310105839391, 3.059550096759519, 0.1};
Point(p16 + 10) = {4.059404, 3.068436, 0.1};
Point(p16 + 11) = {3.946497894160608, 3.059550096759519, 0.1};
Point(p16 + 12) = {3.836371911360865, 3.033111187466478, 0.1};
Point(p16 + 13) = {3.731737718784481, 2.989770285813382, 0.1};
Point(p16 + 14) = {3.635171757513664, 2.930594588639135, 0.1};
Point(p16 + 15) = {3.549051801998953, 2.857041198001047, 0.1};
Point(p16 + 16) = {3.475498411360864, 2.770921242486336, 0.1};
Point(p16 + 17) = {3.416322714186618, 2.674355281215519, 0.1};
Point(p16 + 18) = {3.372981812533522, 2.569721088639135, 0.1};
Point(p16 + 19) = {3.346542903240481, 2.459595105839392, 0.1};
Point(p16 + 20) = {3.337657, 2.346689, 0.1};
Point(p16 + 21) = {3.346542903240481, 2.233782894160608, 0.1};
Point(p16 + 22) = {3.372981812533522, 2.123656911360865, 0.1};
Point(p16 + 23) = {3.416322714186617, 2.019022718784482, 0.1};
Point(p16 + 24) = {3.475498411360864, 1.922456757513664, 0.1};
Point(p16 + 25) = {3.549051801998953, 1.836336801998953, 0.1};
Point(p16 + 26) = {3.635171757513664, 1.762783411360865, 0.1};
Point(p16 + 27) = {3.731737718784481, 1.703607714186618, 0.1};
Point(p16 + 28) = {3.836371911360864, 1.660266812533522, 0.1};
Point(p16 + 29) = {3.946497894160608, 1.633827903240481, 0.1};
Point(p16 + 30) = {4.059404, 1.624942, 0.1};
Point(p16 + 31) = {4.172310105839391, 1.633827903240481, 0.1};
Point(p16 + 32) = {4.282436088639135, 1.660266812533522, 0.1};
Point(p16 + 33) = {4.387070281215518, 1.703607714186618, 0.1};
Point(p16 + 34) = {4.483636242486336, 1.762783411360865, 0.1};
Point(p16 + 35) = {4.569756198001047, 1.836336801998953, 0.1};
Point(p16 + 36) = {4.643309588639135, 1.922456757513664, 0.1};
Point(p16 + 37) = {4.702485285813381, 2.019022718784481, 0.1};
Point(p16 + 38) = {4.745826187466478, 2.123656911360865, 0.1};
Point(p16 + 39) = {4.772265096759519, 2.233782894160608, 0.1};
Spline(16) = {11, p16 + 1, p16 + 2, p16 + 3, p16 + 4, p16 + 5, p16 + 6, p16 + 7, p16 + 8, p16 + 9, p16 + 10, p16 + 11, p16 + 12, p16 + 13, p16 + 14, p16 + 15, p16 + 16, p16 + 17, p16 + 18, p16 + 19, p16 + 20, p16 + 21, p16 + 22, p16 + 23, p16 + 24, p16 + 25, p16 + 26, p16 + 27, p16 + 28, p16 + 29, p16 + 30, p16 + 31, p16 + 32, p16 + 33, p16 + 34, p16 + 35, p16 + 36, p16 + 37, p16 + 38, p16 + 39, 11};
Line(17) = {12, 11};
p18 = newp;
Point(p18 + 1) = {4.772265096759519, 2.459595105839392, 0};
Point(p18 + 2) = {4.745826187466478, 2.569721088639135, 0};
Point(p18 + 3) = {4.702485285813382, 2.674355281215519, 0};
Point(p18 + 4) = {4.643309588639135, 2.770921242486335, 0};
Point(p18 + 5) = {4.569756198001047, 2.857041198001047, 0};
Point(p18 + 6) = {4.483636242486336, 2.930594588639135, 0};
Point(p18 + 7) = {4.387070281215519, 2.989770285813382, 0};
Point(p18 + 8) = {4.282436088639135, 3.033111187466478, 0};
Point(p18 + 9) = {4.172310105839391, 3.059550096759519, 0};
Point(p18 + 10) = {4.059404, 3.068436, 0};
Point(p18 + 11) = {3.946497894160608, 3.059550096759519, 0};
Point(p18 + 12) = {3.836371911360865, 3.033111187466478, 0};
Point(p18 + 13) = {3.731737718784481, 2.989770285813382, 0};
Point(p18 + 14) = {3.635171757513664, 2.930594588639135, 0};
Point(p18 + 15) = {3.549051801998953, 2.857041198001047, 0};
Point(p18 + 16) = {3.475498411360864, 2.770921242486336, 0};
Point(p18 + 17) = {3.416322714186618, 2.674355281215519, 0};
Point(p18 + 18) = {3.372981812533522, 2.569721088639135, 0};
Point(p18 + 19) = {3.346542903240481, 2.459595105839392, 0};
Point(p18 + 20) = {3.337657, 2.346689, 0};
Point(p18 + 21) = {3.346542903240481, 2.233782894160608, 0};
Point(p18 + 22) = {3.372981812533522, 2.123656911360865, 0};
Point(p18 + 23) = {3.416322714186617, 2.019022718784482, 0};
Point(p18 + 24) = {3.475498411360864, 1.922456757513664, 0};
Point(p18 + 25) = {3.549051801998953, 1.836336801998953, 0};
Point(p18 + 26) = {3.635171757513664, 1.762783411360865, 0};
Point(p18 + 27) = {3.731737718784481, 1.703607714186618, 0};
Point(p18 + 28) = {3.836371911360864, 1.660266812533522, 0};
Point(p18 + 29) = {3.946497894160608, 1.633827903240481, 0};
Point(p18 + 30) = {4.059404, 1.624942, 0};
Point(p18 + 31) = {4.172310105839391, 1.633827903240481, 0};
Point(p18 + 32) = {4.282436088639135, 1.660266812533522, 0};
Point(p18 + 33) = {4.387070281215518, 1.703607714186618, 0};
Point(p18 + 34) = {4.483636242486336, 1.762783411360865, 0};
Point(p18 + 35) = {4.569756198001047, 1.836336801998953, 0};
Point(p18 + 36) = {4.643309588639135, 1.922456757513664, 0};
Point(p18 + 37) = {4.702485285813381, 2.019022718784481, 0};
Point(p18 + 38) = {4.745826187466478, 2.123656911360865, 0};
Point(p18 + 39) = {4.772265096759519, 2.233782894160608, 0};
Spline(18) = {12, p18 + 1, p18 + 2, p18 + 3, p18 + 4, p18 + 5, p18 + 6, p18 + 7, p18 + 8, p18 + 9, p18 + 10, p18 + 11, p18 + 12, p18 + 13, p18 + 14, p18 + 15, p18 + 16, p18 + 17, p18 + 18, p18 + 19, p18 + 20, p18 + 21, p18 + 22, p18 + 23, p18 + 24, p18 + 25, p18 + 26, p18 + 27, p18 + 28, p18 + 29, p18 + 30, p18 + 31, p18 + 32, p18 + 33, p18 + 34, p18 + 35, p18 + 36, p18 + 37, p18 + 38, p18 + 39, 12};
Line(19) = {14, 13};
Line(20) = {13, 15};
Line(21) = {16, 15};
Line(22) = {14, 16};
Line(23) = {14, 17};
Line(24) = {17, 18};
Line(25) = {13, 18};
Line(26) = {15, 19};
Line(27) = {18, 19};
Line(28) = {16, 20};
Line(29) = {20, 19};
Line(30) = {17, 20};
Curve Loop(7) = {-13, -14, 15, 14};
Surface(7) = {7};
Curve Loop(8) = {13};
Plane Surface(8) = {8};
Curve Loop(9) = {15};
Plane Surface(9) = {9};
Curve Loop(10) = {-16, -17, 18, 17};
Surface(10) = {10};
Curve Loop(11) = {16};
Plane Surface(11) = {11};
Curve Loop(12) = {18};
Plane Surface(12) = {12};
Curve Loop(13) = {-19, 22, 21, -20};
Plane Surface(13) = {13};
Curve Loop(14) = {-23, 19, 25, -24};
Plane Surface(14) = {14};
Curve Loop(15) = {-20, 25, 27, -26};
Plane Surface(15) = {15};
Curve Loop(16) = {-28, 21, 26, -29};
Plane Surface(16) = {16};
Curve Loop(17) = {-22, 23, 30, -28, -15, -18};
Plane Surface(17) = {17};
Curve Loop(18) = {-24, 30, 29, -27};
Plane Surface(18) = {18};
Surface Loop(1) = {13, 14, 15, 16, 17, 18, 7, 10, 8, 11};
Volume(1) = {1};
Surface Loop(2) = {7, 8, 9};
Volume(2) = {2};
Surface Loop(3) = {10, 11, 12};
Volume(3) = {3};
Physical Surface("WALLS") = {13, 18};
Physical Surface("LOAD") = {8, 11};
Physical Surface("BORDER") = {7, 9, 10, 12, 14, 15, 16, 17};
Physical Volume("SOLID") = {1, 2, 3};
