cl__1 = 0.129264;
cl__2 = 0.123517;
cl__3 = 2.020529;
cl__4 = 2.168524;
cl__5 = 0.859294;
cl__6 = 0.58213;
Point(9) = {28.038149, 1.632942, 0.1, cl__1};
Point(10) = {28.038149, 1.632942, 0, cl__1};
Point(11) = {11.321229, -0.1901870000000003, 0.1, cl__2};
Point(12) = {11.321229, -0.1901870000000003, 0, cl__2};
Point(13) = {0.313722, -4.313225, 1, cl__3};
Point(14) = {0.313722, -4.313225, 0, cl__3};
Point(15) = {0.313722, 4.47769, 1, cl__4};
Point(16) = {0.313722, 4.47769, 0, cl__4};
Point(17) = {31.578225, -4.313225, 0, cl__5};
Point(18) = {31.578225, -4.313225, 1, cl__5};
Point(19) = {31.578225, 4.47769, 1, cl__6};
Point(20) = {31.578225, 4.47769, 0, cl__6};
p13 = newp;
Point(p13 + 1) = {28.02223443196358, 1.835155759758534, 0.1};
Point(p13 + 2) = {27.9748825973368, 2.032390345642821, 0.1};
Point(p13 + 3) = {27.8972594554399, 2.219789187564327, 0.1};
Point(p13 + 4) = {27.79127634564282, 2.392737904093847, 0.1};
Point(p13 + 5) = {27.65954292384654, 2.546977923846541, 0.1};
Point(p13 + 6) = {27.50530290409385, 2.678711345642821, 0.1};
Point(p13 + 7) = {27.33235418756433, 2.7846944554399, 0.1};
Point(p13 + 8) = {27.14495534564282, 2.8623175973368, 0.1};
Point(p13 + 9) = {26.94772075975854, 2.90966943196358, 0.1};
Point(p13 + 10) = {26.745507, 2.925584, 0.1};
Point(p13 + 11) = {26.54329324024146, 2.90966943196358, 0.1};
Point(p13 + 12) = {26.34605865435718, 2.8623175973368, 0.1};
Point(p13 + 13) = {26.15865981243567, 2.7846944554399, 0.1};
Point(p13 + 14) = {25.98571109590615, 2.678711345642821, 0.1};
Point(p13 + 15) = {25.83147107615346, 2.546977923846541, 0.1};
Point(p13 + 16) = {25.69973765435718, 2.392737904093847, 0.1};
Point(p13 + 17) = {25.5937545445601, 2.219789187564327, 0.1};
Point(p13 + 18) = {25.5161314026632, 2.032390345642821, 0.1};
Point(p13 + 19) = {25.46877956803642, 1.835155759758534, 0.1};
Point(p13 + 20) = {25.452865, 1.632942, 0.1};
Point(p13 + 21) = {25.46877956803642, 1.430728240241466, 0.1};
Point(p13 + 22) = {25.5161314026632, 1.233493654357179, 0.1};
Point(p13 + 23) = {25.5937545445601, 1.046094812435673, 0.1};
Point(p13 + 24) = {25.69973765435718, 0.8731460959061529, 0.1};
Point(p13 + 25) = {25.83147107615346, 0.7189060761534588, 0.1};
Point(p13 + 26) = {25.98571109590615, 0.5871726543571791, 0.1};
Point(p13 + 27) = {26.15865981243567, 0.4811895445600998, 0.1};
Point(p13 + 28) = {26.34605865435718, 0.4035664026632, 0.1};
Point(p13 + 29) = {26.54329324024146, 0.3562145680364199, 0.1};
Point(p13 + 30) = {26.745507, 0.3402999999999998, 0.1};
Point(p13 + 31) = {26.94772075975854, 0.3562145680364197, 0.1};
Point(p13 + 32) = {27.14495534564282, 0.4035664026631998, 0.1};
Point(p13 + 33) = {27.33235418756433, 0.4811895445600993, 0.1};
Point(p13 + 34) = {27.50530290409385, 0.5871726543571789, 0.1};
Point(p13 + 35) = {27.65954292384654, 0.7189060761534585, 0.1};
Point(p13 + 36) = {27.79127634564282, 0.8731460959061527, 0.1};
Point(p13 + 37) = {27.8972594554399, 1.046094812435672, 0.1};
Point(p13 + 38) = {27.9748825973368, 1.233493654357179, 0.1};
Point(p13 + 39) = {28.02223443196358, 1.430728240241465, 0.1};
Spline(13) = {9, p13 + 1, p13 + 2, p13 + 3, p13 + 4, p13 + 5, p13 + 6, p13 + 7, p13 + 8, p13 + 9, p13 + 10, p13 + 11, p13 + 12, p13 + 13, p13 + 14, p13 + 15, p13 + 16, p13 + 17, p13 + 18, p13 + 19, p13 + 20, p13 + 21, p13 + 22, p13 + 23, p13 + 24, p13 + 25, p13 + 26, p13 + 27, p13 + 28, p13 + 29, p13 + 30, p13 + 31, p13 + 32, p13 + 33, p13 + 34, p13 + 35, p13 + 36, p13 + 37, p13 + 38, p13 + 39, 9};
Line(14) = {10, 9};
p15 = newp;
Point(p15 + 1) = {28.02223443196358, 1.835155759758534, 0};
Point(p15 + 2) = {27.9748825973368, 2.032390345642821, 0};
Point(p15 + 3) = {27.8972594554399, 2.219789187564327, 0};
Point(p15 + 4) = {27.79127634564282, 2.392737904093847, 0};
Point(p15 + 5) = {27.65954292384654, 2.546977923846541, 0};
Point(p15 + 6) = {27.50530290409385, 2.678711345642821, 0};
Point(p15 + 7) = {27.33235418756433, 2.7846944554399, 0};
Point(p15 + 8) = {27.14495534564282, 2.8623175973368, 0};
Point(p15 + 9) = {26.94772075975854, 2.90966943196358, 0};
Point(p15 + 10) = {26.745507, 2.925584, 0};
Point(p15 + 11) = {26.54329324024146, 2.90966943196358, 0};
Point(p15 + 12) = {26.34605865435718, 2.8623175973368, 0};
Point(p15 + 13) = {26.15865981243567, 2.7846944554399, 0};
Point(p15 + 14) = {25.98571109590615, 2.678711345642821, 0};
Point(p15 + 15) = {25.83147107615346, 2.546977923846541, 0};
Point(p15 + 16) = {25.69973765435718, 2.392737904093847, 0};
Point(p15 + 17) = {25.5937545445601, 2.219789187564327, 0};
Point(p15 + 18) = {25.5161314026632, 2.032390345642821, 0};
Point(p15 + 19) = {25.46877956803642, 1.835155759758534, 0};
Point(p15 + 20) = {25.452865, 1.632942, 0};
Point(p15 + 21) = {25.46877956803642, 1.430728240241466, 0};
Point(p15 + 22) = {25.5161314026632, 1.233493654357179, 0};
Point(p15 + 23) = {25.5937545445601, 1.046094812435673, 0};
Point(p15 + 24) = {25.69973765435718, 0.8731460959061529, 0};
Point(p15 + 25) = {25.83147107615346, 0.7189060761534588, 0};
Point(p15 + 26) = {25.98571109590615, 0.5871726543571791, 0};
Point(p15 + 27) = {26.15865981243567, 0.4811895445600998, 0};
Point(p15 + 28) = {26.34605865435718, 0.4035664026632, 0};
Point(p15 + 29) = {26.54329324024146, 0.3562145680364199, 0};
Point(p15 + 30) = {26.745507, 0.3402999999999998, 0};
Point(p15 + 31) = {26.94772075975854, 0.3562145680364197, 0};
Point(p15 + 32) = {27.14495534564282, 0.4035664026631998, 0};
Point(p15 + 33) = {27.33235418756433, 0.4811895445600993, 0};
Point(p15 + 34) = {27.50530290409385, 0.5871726543571789, 0};
Point(p15 + 35) = {27.65954292384654, 0.7189060761534585, 0};
Point(p15 + 36) = {27.79127634564282, 0.8731460959061527, 0};
Point(p15 + 37) = {27.8972594554399, 1.046094812435672, 0};
Point(p15 + 38) = {27.9748825973368, 1.233493654357179, 0};
Point(p15 + 39) = {28.02223443196358, 1.430728240241465, 0};
Spline(15) = {10, p15 + 1, p15 + 2, p15 + 3, p15 + 4, p15 + 5, p15 + 6, p15 + 7, p15 + 8, p15 + 9, p15 + 10, p15 + 11, p15 + 12, p15 + 13, p15 + 14, p15 + 15, p15 + 16, p15 + 17, p15 + 18, p15 + 19, p15 + 20, p15 + 21, p15 + 22, p15 + 23, p15 + 24, p15 + 25, p15 + 26, p15 + 27, p15 + 28, p15 + 29, p15 + 30, p15 + 31, p15 + 32, p15 + 33, p15 + 34, p15 + 35, p15 + 36, p15 + 37, p15 + 38, p15 + 39, 10};
p16 = newp;
Point(p16 + 1) = {11.30602198302958, 0.003036471052672046, 0.1};
Point(p16 + 2) = {11.26077537934532, 0.1915021389760925, 0.1};
Point(p16 + 3) = {11.1866033104948, 0.3705693535442954, 0.1};
Point(p16 + 4) = {11.08533213897609, 0.5358288856445986, 0.1};
Point(p16 + 5) = {10.95945549713175, 0.6832114971317501, 0.1};
Point(p16 + 6) = {10.8120728856446, 0.8090881389760924, 0.1};
Point(p16 + 7) = {10.6468133535443, 0.9103593104947946, 0.1};
Point(p16 + 8) = {10.46774613897609, 0.9845313793453173, 0.1};
Point(p16 + 9) = {10.27928047105267, 1.029777983029577, 0.1};
Point(p16 + 10) = {10.086057, 1.044985, 0.1};
Point(p16 + 11) = {9.892833528947328, 1.029777983029577, 0.1};
Point(p16 + 12) = {9.704367861023908, 0.9845313793453175, 0.1};
Point(p16 + 13) = {9.525300646455705, 0.9103593104947948, 0.1};
Point(p16 + 14) = {9.360041114355402, 0.8090881389760926, 0.1};
Point(p16 + 15) = {9.212658502868249, 0.6832114971317503, 0.1};
Point(p16 + 16) = {9.086781861023908, 0.5358288856445987, 0.1};
Point(p16 + 17) = {8.985510689505206, 0.3705693535442955, 0.1};
Point(p16 + 18) = {8.911338620654682, 0.1915021389760926, 0.1};
Point(p16 + 19) = {8.866092016970423, 0.003036471052672185, 0.1};
Point(p16 + 20) = {8.850885, -0.1901869999999999, 0.1};
Point(p16 + 21) = {8.866092016970423, -0.3834104710526719, 0.1};
Point(p16 + 22) = {8.911338620654684, -0.5718761389760929, 0.1};
Point(p16 + 23) = {8.985510689505205, -0.7509433535442949, 0.1};
Point(p16 + 24) = {9.086781861023908, -0.9162028856445984, 0.1};
Point(p16 + 25) = {9.212658502868249, -1.06358549713175, 0.1};
Point(p16 + 26) = {9.360041114355402, -1.189462138976092, 0.1};
Point(p16 + 27) = {9.525300646455705, -1.290733310494795, 0.1};
Point(p16 + 28) = {9.704367861023908, -1.364905379345317, 0.1};
Point(p16 + 29) = {9.892833528947328, -1.410151983029577, 0.1};
Point(p16 + 30) = {10.086057, -1.425359, 0.1};
Point(p16 + 31) = {10.27928047105267, -1.410151983029577, 0.1};
Point(p16 + 32) = {10.46774613897609, -1.364905379345318, 0.1};
Point(p16 + 33) = {10.6468133535443, -1.290733310494795, 0.1};
Point(p16 + 34) = {10.8120728856446, -1.189462138976093, 0.1};
Point(p16 + 35) = {10.95945549713175, -1.06358549713175, 0.1};
Point(p16 + 36) = {11.08533213897609, -0.9162028856445987, 0.1};
Point(p16 + 37) = {11.18660331049479, -0.7509433535442956, 0.1};
Point(p16 + 38) = {11.26077537934532, -0.5718761389760928, 0.1};
Point(p16 + 39) = {11.30602198302958, -0.3834104710526723, 0.1};
Spline(16) = {11, p16 + 1, p16 + 2, p16 + 3, p16 + 4, p16 + 5, p16 + 6, p16 + 7, p16 + 8, p16 + 9, p16 + 10, p16 + 11, p16 + 12, p16 + 13, p16 + 14, p16 + 15, p16 + 16, p16 + 17, p16 + 18, p16 + 19, p16 + 20, p16 + 21, p16 + 22, p16 + 23, p16 + 24, p16 + 25, p16 + 26, p16 + 27, p16 + 28, p16 + 29, p16 + 30, p16 + 31, p16 + 32, p16 + 33, p16 + 34, p16 + 35, p16 + 36, p16 + 37, p16 + 38, p16 + 39, 11};
Line(17) = {12, 11};
p18 = newp;
Point(p18 + 1) = {11.30602198302958, 0.003036471052672046, 0};
Point(p18 + 2) = {11.26077537934532, 0.1915021389760925, 0};
Point(p18 + 3) = {11.1866033104948, 0.3705693535442954, 0};
Point(p18 + 4) = {11.08533213897609, 0.5358288856445986, 0};
Point(p18 + 5) = {10.95945549713175, 0.6832114971317501, 0};
Point(p18 + 6) = {10.8120728856446, 0.8090881389760924, 0};
Point(p18 + 7) = {10.6468133535443, 0.9103593104947946, 0};
Point(p18 + 8) = {10.46774613897609, 0.9845313793453173, 0};
Point(p18 + 9) = {10.27928047105267, 1.029777983029577, 0};
Point(p18 + 10) = {10.086057, 1.044985, 0};
Point(p18 + 11) = {9.892833528947328, 1.029777983029577, 0};
Point(p18 + 12) = {9.704367861023908, 0.9845313793453175, 0};
Point(p18 + 13) = {9.525300646455705, 0.9103593104947948, 0};
Point(p18 + 14) = {9.360041114355402, 0.8090881389760926, 0};
Point(p18 + 15) = {9.212658502868249, 0.6832114971317503, 0};
Point(p18 + 16) = {9.086781861023908, 0.5358288856445987, 0};
Point(p18 + 17) = {8.985510689505206, 0.3705693535442955, 0};
Point(p18 + 18) = {8.911338620654682, 0.1915021389760926, 0};
Point(p18 + 19) = {8.866092016970423, 0.003036471052672185, 0};
Point(p18 + 20) = {8.850885, -0.1901869999999999, 0};
Point(p18 + 21) = {8.866092016970423, -0.3834104710526719, 0};
Point(p18 + 22) = {8.911338620654684, -0.5718761389760929, 0};
Point(p18 + 23) = {8.985510689505205, -0.7509433535442949, 0};
Point(p18 + 24) = {9.086781861023908, -0.9162028856445984, 0};
Point(p18 + 25) = {9.212658502868249, -1.06358549713175, 0};
Point(p18 + 26) = {9.360041114355402, -1.189462138976092, 0};
Point(p18 + 27) = {9.525300646455705, -1.290733310494795, 0};
Point(p18 + 28) = {9.704367861023908, -1.364905379345317, 0};
Point(p18 + 29) = {9.892833528947328, -1.410151983029577, 0};
Point(p18 + 30) = {10.086057, -1.425359, 0};
Point(p18 + 31) = {10.27928047105267, -1.410151983029577, 0};
Point(p18 + 32) = {10.46774613897609, -1.364905379345318, 0};
Point(p18 + 33) = {10.6468133535443, -1.290733310494795, 0};
Point(p18 + 34) = {10.8120728856446, -1.189462138976093, 0};
Point(p18 + 35) = {10.95945549713175, -1.06358549713175, 0};
Point(p18 + 36) = {11.08533213897609, -0.9162028856445987, 0};
Point(p18 + 37) = {11.18660331049479, -0.7509433535442956, 0};
Point(p18 + 38) = {11.26077537934532, -0.5718761389760928, 0};
Point(p18 + 39) = {11.30602198302958, -0.3834104710526723, 0};
Spline(18) = {12, p18 + 1, p18 + 2, p18 + 3, p18 + 4, p18 + 5, p18 + 6, p18 + 7, p18 + 8, p18 + 9, p18 + 10, p18 + 11, p18 + 12, p18 + 13, p18 + 14, p18 + 15, p18 + 16, p18 + 17, p18 + 18, p18 + 19, p18 + 20, p18 + 21, p18 + 22, p18 + 23, p18 + 24, p18 + 25, p18 + 26, p18 + 27, p18 + 28, p18 + 29, p18 + 30, p18 + 31, p18 + 32, p18 + 33, p18 + 34, p18 + 35, p18 + 36, p18 + 37, p18 + 38, p18 + 39, 12};
Line(19) = {14, 13};
Line(20) = {13, 15};
Line(21) = {16, 15};
Line(22) = {14, 16};
Line(23) = {14, 17};
Line(24) = {17, 18};
Line(25) = {13, 18};
Line(26) = {15, 19};
Line(27) = {18, 19};
Line(28) = {16, 20};
Line(29) = {20, 19};
Line(30) = {17, 20};
Curve Loop(7) = {-13, -14, 15, 14};
Surface(7) = {7};
Curve Loop(8) = {13};
Plane Surface(8) = {8};
Curve Loop(9) = {15};
Plane Surface(9) = {9};
Curve Loop(10) = {-16, -17, 18, 17};
Surface(10) = {10};
Curve Loop(11) = {16};
Plane Surface(11) = {11};
Curve Loop(12) = {18};
Plane Surface(12) = {12};
Curve Loop(13) = {-19, 22, 21, -20};
Plane Surface(13) = {13};
Curve Loop(14) = {-23, 19, 25, -24};
Plane Surface(14) = {14};
Curve Loop(15) = {-20, 25, 27, -26};
Plane Surface(15) = {15};
Curve Loop(16) = {-28, 21, 26, -29};
Plane Surface(16) = {16};
Curve Loop(17) = {-22, 23, 30, -28, -18, -15};
Plane Surface(17) = {17};
Curve Loop(18) = {-24, 30, 29, -27};
Plane Surface(18) = {18};
Surface Loop(1) = {13, 14, 15, 16, 17, 18, 10, 7, 11, 8};
Volume(1) = {1};
Surface Loop(2) = {7, 8, 9};
Volume(2) = {2};
Surface Loop(3) = {10, 11, 12};
Volume(3) = {3};
Physical Surface("WALLS") = {13, 18};
Physical Surface("LOAD") = {8, 11};
Physical Surface("BORDER") = {7, 9, 10, 12, 14, 15, 16, 17};
Physical Volume("SOLID") = {1, 2, 3};
