cl__1 = 0.146606;
cl__2 = 0.096072;
cl__3 = 5.008677;
cl__4 = 4.586344;
cl__5 = 0.263122;
cl__6 = 0.364457;
Point(9) = {24.157205, 1.846251, 0.1, cl__1};
Point(10) = {24.157205, 1.846251, 0, cl__1};
Point(11) = {38.900961, -0.3912430000000003, 0.1, cl__2};
Point(12) = {38.900961, -0.3912430000000003, 0, cl__2};
Point(13) = {0.07238600000000001, -4.459426, 0.1, cl__3};
Point(14) = {0.07238600000000001, -4.459426, 0, cl__3};
Point(15) = {0.07238600000000001, 5.04793, 0.1, cl__4};
Point(16) = {0.07238600000000001, 5.04793, 0, cl__4};
Point(17) = {39.470155, -4.459426, 0, cl__5};
Point(18) = {39.470155, -4.459426, 0.1, cl__5};
Point(19) = {39.470155, 5.04793, 0.1, cl__6};
Point(20) = {39.470155, 5.04793, 0, cl__6};
p13 = newp;
Point(p13 + 1) = {24.1391554301712, 2.075592529644556, 0.1};
Point(p13 + 2) = {24.08545116099709, 2.299286909688364, 0.1};
Point(p13 + 3) = {23.99741456981898, 2.511826042095661, 0.1};
Point(p13 + 4) = {23.87721340968836, 2.707976508049642, 0.1};
Point(p13 + 5) = {23.72780743209244, 2.882908432092444, 0.1};
Point(p13 + 6) = {23.55287550804964, 3.032314409688364, 0.1};
Point(p13 + 7) = {23.35672504209566, 3.152515569818978, 0.1};
Point(p13 + 8) = {23.14418590968836, 3.240552160997091, 0.1};
Point(p13 + 9) = {22.92049152964456, 3.294256430171205, 0.1};
Point(p13 + 10) = {22.69115, 3.312306, 0.1};
Point(p13 + 11) = {22.46180847035544, 3.294256430171205, 0.1};
Point(p13 + 12) = {22.23811409031164, 3.240552160997092, 0.1};
Point(p13 + 13) = {22.02557495790434, 3.152515569818978, 0.1};
Point(p13 + 14) = {21.82942449195036, 3.032314409688364, 0.1};
Point(p13 + 15) = {21.65449256790756, 2.882908432092444, 0.1};
Point(p13 + 16) = {21.50508659031164, 2.707976508049642, 0.1};
Point(p13 + 17) = {21.38488543018102, 2.511826042095661, 0.1};
Point(p13 + 18) = {21.29684883900291, 2.299286909688364, 0.1};
Point(p13 + 19) = {21.2431445698288, 2.075592529644556, 0.1};
Point(p13 + 20) = {21.225095, 1.846251, 0.1};
Point(p13 + 21) = {21.2431445698288, 1.616909470355445, 0.1};
Point(p13 + 22) = {21.29684883900291, 1.393215090311636, 0.1};
Point(p13 + 23) = {21.38488543018102, 1.180675957904339, 0.1};
Point(p13 + 24) = {21.50508659031164, 0.9845254919503584, 0.1};
Point(p13 + 25) = {21.65449256790756, 0.8095935679075561, 0.1};
Point(p13 + 26) = {21.82942449195036, 0.6601875903116365, 0.1};
Point(p13 + 27) = {22.02557495790434, 0.5399864301810224, 0.1};
Point(p13 + 28) = {22.23811409031164, 0.4519498390029086, 0.1};
Point(p13 + 29) = {22.46180847035544, 0.3982455698287954, 0.1};
Point(p13 + 30) = {22.69115, 0.380196, 0.1};
Point(p13 + 31) = {22.92049152964455, 0.3982455698287952, 0.1};
Point(p13 + 32) = {23.14418590968836, 0.4519498390029084, 0.1};
Point(p13 + 33) = {23.35672504209566, 0.5399864301810222, 0.1};
Point(p13 + 34) = {23.55287550804964, 0.6601875903116363, 0.1};
Point(p13 + 35) = {23.72780743209244, 0.8095935679075559, 0.1};
Point(p13 + 36) = {23.87721340968836, 0.9845254919503581, 0.1};
Point(p13 + 37) = {23.99741456981898, 1.180675957904338, 0.1};
Point(p13 + 38) = {24.08545116099709, 1.393215090311636, 0.1};
Point(p13 + 39) = {24.1391554301712, 1.616909470355444, 0.1};
Spline(13) = {9, p13 + 1, p13 + 2, p13 + 3, p13 + 4, p13 + 5, p13 + 6, p13 + 7, p13 + 8, p13 + 9, p13 + 10, p13 + 11, p13 + 12, p13 + 13, p13 + 14, p13 + 15, p13 + 16, p13 + 17, p13 + 18, p13 + 19, p13 + 20, p13 + 21, p13 + 22, p13 + 23, p13 + 24, p13 + 25, p13 + 26, p13 + 27, p13 + 28, p13 + 29, p13 + 30, p13 + 31, p13 + 32, p13 + 33, p13 + 34, p13 + 35, p13 + 36, p13 + 37, p13 + 38, p13 + 39, 9};
Line(14) = {10, 9};
p15 = newp;
Point(p15 + 1) = {24.1391554301712, 2.075592529644556, 0};
Point(p15 + 2) = {24.08545116099709, 2.299286909688364, 0};
Point(p15 + 3) = {23.99741456981898, 2.511826042095661, 0};
Point(p15 + 4) = {23.87721340968836, 2.707976508049642, 0};
Point(p15 + 5) = {23.72780743209244, 2.882908432092444, 0};
Point(p15 + 6) = {23.55287550804964, 3.032314409688364, 0};
Point(p15 + 7) = {23.35672504209566, 3.152515569818978, 0};
Point(p15 + 8) = {23.14418590968836, 3.240552160997091, 0};
Point(p15 + 9) = {22.92049152964456, 3.294256430171205, 0};
Point(p15 + 10) = {22.69115, 3.312306, 0};
Point(p15 + 11) = {22.46180847035544, 3.294256430171205, 0};
Point(p15 + 12) = {22.23811409031164, 3.240552160997092, 0};
Point(p15 + 13) = {22.02557495790434, 3.152515569818978, 0};
Point(p15 + 14) = {21.82942449195036, 3.032314409688364, 0};
Point(p15 + 15) = {21.65449256790756, 2.882908432092444, 0};
Point(p15 + 16) = {21.50508659031164, 2.707976508049642, 0};
Point(p15 + 17) = {21.38488543018102, 2.511826042095661, 0};
Point(p15 + 18) = {21.29684883900291, 2.299286909688364, 0};
Point(p15 + 19) = {21.2431445698288, 2.075592529644556, 0};
Point(p15 + 20) = {21.225095, 1.846251, 0};
Point(p15 + 21) = {21.2431445698288, 1.616909470355445, 0};
Point(p15 + 22) = {21.29684883900291, 1.393215090311636, 0};
Point(p15 + 23) = {21.38488543018102, 1.180675957904339, 0};
Point(p15 + 24) = {21.50508659031164, 0.9845254919503584, 0};
Point(p15 + 25) = {21.65449256790756, 0.8095935679075561, 0};
Point(p15 + 26) = {21.82942449195036, 0.6601875903116365, 0};
Point(p15 + 27) = {22.02557495790434, 0.5399864301810224, 0};
Point(p15 + 28) = {22.23811409031164, 0.4519498390029086, 0};
Point(p15 + 29) = {22.46180847035544, 0.3982455698287954, 0};
Point(p15 + 30) = {22.69115, 0.380196, 0};
Point(p15 + 31) = {22.92049152964455, 0.3982455698287952, 0};
Point(p15 + 32) = {23.14418590968836, 0.4519498390029084, 0};
Point(p15 + 33) = {23.35672504209566, 0.5399864301810222, 0};
Point(p15 + 34) = {23.55287550804964, 0.6601875903116363, 0};
Point(p15 + 35) = {23.72780743209244, 0.8095935679075559, 0};
Point(p15 + 36) = {23.87721340968836, 0.9845254919503581, 0};
Point(p15 + 37) = {23.99741456981898, 1.180675957904338, 0};
Point(p15 + 38) = {24.08545116099709, 1.393215090311636, 0};
Point(p15 + 39) = {24.1391554301712, 1.616909470355444, 0};
Spline(15) = {10, p15 + 1, p15 + 2, p15 + 3, p15 + 4, p15 + 5, p15 + 6, p15 + 7, p15 + 8, p15 + 9, p15 + 10, p15 + 11, p15 + 12, p15 + 13, p15 + 14, p15 + 15, p15 + 16, p15 + 17, p15 + 18, p15 + 19, p15 + 20, p15 + 21, p15 + 22, p15 + 23, p15 + 24, p15 + 25, p15 + 26, p15 + 27, p15 + 28, p15 + 29, p15 + 30, p15 + 31, p15 + 32, p15 + 33, p15 + 34, p15 + 35, p15 + 36, p15 + 37, p15 + 38, p15 + 39, 10};
p16 = newp;
Point(p16 + 1) = {38.88913294257656, -0.2409532807465494, 0.1};
Point(p16 + 2) = {38.85394001633508, -0.09436419316410055, 0.1};
Point(p16 + 3) = {38.79624878791825, 0.04491475290977737, 0.1};
Point(p16 + 4) = {38.7174798068359, 0.1734540475824248, 0.1};
Point(p16 + 5) = {38.61957262682154, 0.2880886268215399, 0.1};
Point(p16 + 6) = {38.50493804758243, 0.3859958068358994, 0.1};
Point(p16 + 7) = {38.37639875290978, 0.4647647879182487, 0.1};
Point(p16 + 8) = {38.2371198068359, 0.5224560163350799, 0.1};
Point(p16 + 9) = {38.09053071925345, 0.5576489425765607, 0.1};
Point(p16 + 10) = {37.940241, 0.569477, 0.1};
Point(p16 + 11) = {37.78995128074655, 0.5576489425765606, 0.1};
Point(p16 + 12) = {37.6433621931641, 0.52245601633508, 0.1};
Point(p16 + 13) = {37.50408324709022, 0.4647647879182488, 0.1};
Point(p16 + 14) = {37.37554395241757, 0.3859958068358995, 0.1};
Point(p16 + 15) = {37.26090937317846, 0.28808862682154, 0.1};
Point(p16 + 16) = {37.1630021931641, 0.1734540475824249, 0.1};
Point(p16 + 17) = {37.08423321208175, 0.04491475290977748, 0.1};
Point(p16 + 18) = {37.02654198366492, -0.09436419316410044, 0.1};
Point(p16 + 19) = {36.99134905742344, -0.2409532807465493, 0.1};
Point(p16 + 20) = {36.979521, -0.3912429999999999, 0.1};
Point(p16 + 21) = {36.99134905742344, -0.5415327192534505, 0.1};
Point(p16 + 22) = {37.02654198366492, -0.6881218068358999, 0.1};
Point(p16 + 23) = {37.08423321208175, -0.8274007529097769, 0.1};
Point(p16 + 24) = {37.1630021931641, -0.9559400475824247, 0.1};
Point(p16 + 25) = {37.26090937317846, -1.07057462682154, 0.1};
Point(p16 + 26) = {37.37554395241757, -1.168481806835899, 0.1};
Point(p16 + 27) = {37.50408324709022, -1.247250787918249, 0.1};
Point(p16 + 28) = {37.6433621931641, -1.30494201633508, 0.1};
Point(p16 + 29) = {37.78995128074655, -1.340134942576561, 0.1};
Point(p16 + 30) = {37.940241, -1.351963, 0.1};
Point(p16 + 31) = {38.09053071925345, -1.340134942576561, 0.1};
Point(p16 + 32) = {38.2371198068359, -1.30494201633508, 0.1};
Point(p16 + 33) = {38.37639875290978, -1.247250787918249, 0.1};
Point(p16 + 34) = {38.50493804758243, -1.1684818068359, 0.1};
Point(p16 + 35) = {38.61957262682154, -1.07057462682154, 0.1};
Point(p16 + 36) = {38.7174798068359, -0.9559400475824249, 0.1};
Point(p16 + 37) = {38.79624878791825, -0.8274007529097775, 0.1};
Point(p16 + 38) = {38.85394001633508, -0.6881218068358996, 0.1};
Point(p16 + 39) = {38.88913294257656, -0.5415327192534508, 0.1};
Spline(16) = {11, p16 + 1, p16 + 2, p16 + 3, p16 + 4, p16 + 5, p16 + 6, p16 + 7, p16 + 8, p16 + 9, p16 + 10, p16 + 11, p16 + 12, p16 + 13, p16 + 14, p16 + 15, p16 + 16, p16 + 17, p16 + 18, p16 + 19, p16 + 20, p16 + 21, p16 + 22, p16 + 23, p16 + 24, p16 + 25, p16 + 26, p16 + 27, p16 + 28, p16 + 29, p16 + 30, p16 + 31, p16 + 32, p16 + 33, p16 + 34, p16 + 35, p16 + 36, p16 + 37, p16 + 38, p16 + 39, 11};
Line(17) = {12, 11};
p18 = newp;
Point(p18 + 1) = {38.88913294257656, -0.2409532807465494, 0};
Point(p18 + 2) = {38.85394001633508, -0.09436419316410055, 0};
Point(p18 + 3) = {38.79624878791825, 0.04491475290977737, 0};
Point(p18 + 4) = {38.7174798068359, 0.1734540475824248, 0};
Point(p18 + 5) = {38.61957262682154, 0.2880886268215399, 0};
Point(p18 + 6) = {38.50493804758243, 0.3859958068358994, 0};
Point(p18 + 7) = {38.37639875290978, 0.4647647879182487, 0};
Point(p18 + 8) = {38.2371198068359, 0.5224560163350799, 0};
Point(p18 + 9) = {38.09053071925345, 0.5576489425765607, 0};
Point(p18 + 10) = {37.940241, 0.569477, 0};
Point(p18 + 11) = {37.78995128074655, 0.5576489425765606, 0};
Point(p18 + 12) = {37.6433621931641, 0.52245601633508, 0};
Point(p18 + 13) = {37.50408324709022, 0.4647647879182488, 0};
Point(p18 + 14) = {37.37554395241757, 0.3859958068358995, 0};
Point(p18 + 15) = {37.26090937317846, 0.28808862682154, 0};
Point(p18 + 16) = {37.1630021931641, 0.1734540475824249, 0};
Point(p18 + 17) = {37.08423321208175, 0.04491475290977748, 0};
Point(p18 + 18) = {37.02654198366492, -0.09436419316410044, 0};
Point(p18 + 19) = {36.99134905742344, -0.2409532807465493, 0};
Point(p18 + 20) = {36.979521, -0.3912429999999999, 0};
Point(p18 + 21) = {36.99134905742344, -0.5415327192534505, 0};
Point(p18 + 22) = {37.02654198366492, -0.6881218068358999, 0};
Point(p18 + 23) = {37.08423321208175, -0.8274007529097769, 0};
Point(p18 + 24) = {37.1630021931641, -0.9559400475824247, 0};
Point(p18 + 25) = {37.26090937317846, -1.07057462682154, 0};
Point(p18 + 26) = {37.37554395241757, -1.168481806835899, 0};
Point(p18 + 27) = {37.50408324709022, -1.247250787918249, 0};
Point(p18 + 28) = {37.6433621931641, -1.30494201633508, 0};
Point(p18 + 29) = {37.78995128074655, -1.340134942576561, 0};
Point(p18 + 30) = {37.940241, -1.351963, 0};
Point(p18 + 31) = {38.09053071925345, -1.340134942576561, 0};
Point(p18 + 32) = {38.2371198068359, -1.30494201633508, 0};
Point(p18 + 33) = {38.37639875290978, -1.247250787918249, 0};
Point(p18 + 34) = {38.50493804758243, -1.1684818068359, 0};
Point(p18 + 35) = {38.61957262682154, -1.07057462682154, 0};
Point(p18 + 36) = {38.7174798068359, -0.9559400475824249, 0};
Point(p18 + 37) = {38.79624878791825, -0.8274007529097775, 0};
Point(p18 + 38) = {38.85394001633508, -0.6881218068358996, 0};
Point(p18 + 39) = {38.88913294257656, -0.5415327192534508, 0};
Spline(18) = {12, p18 + 1, p18 + 2, p18 + 3, p18 + 4, p18 + 5, p18 + 6, p18 + 7, p18 + 8, p18 + 9, p18 + 10, p18 + 11, p18 + 12, p18 + 13, p18 + 14, p18 + 15, p18 + 16, p18 + 17, p18 + 18, p18 + 19, p18 + 20, p18 + 21, p18 + 22, p18 + 23, p18 + 24, p18 + 25, p18 + 26, p18 + 27, p18 + 28, p18 + 29, p18 + 30, p18 + 31, p18 + 32, p18 + 33, p18 + 34, p18 + 35, p18 + 36, p18 + 37, p18 + 38, p18 + 39, 12};
Line(19) = {14, 13};
Line(20) = {13, 15};
Line(21) = {16, 15};
Line(22) = {14, 16};
Line(23) = {14, 17};
Line(24) = {17, 18};
Line(25) = {13, 18};
Line(26) = {15, 19};
Line(27) = {18, 19};
Line(28) = {16, 20};
Line(29) = {20, 19};
Line(30) = {17, 20};
Curve Loop(7) = {-13, -14, 15, 14};
Surface(7) = {7};
Curve Loop(8) = {13};
Plane Surface(8) = {8};
Curve Loop(9) = {15};
Plane Surface(9) = {9};
Curve Loop(10) = {-16, -17, 18, 17};
Surface(10) = {10};
Curve Loop(11) = {16};
Plane Surface(11) = {11};
Curve Loop(12) = {18};
Plane Surface(12) = {12};
Curve Loop(13) = {-19, 22, 21, -20};
Plane Surface(13) = {13};
Curve Loop(14) = {-23, 19, 25, -24};
Plane Surface(14) = {14};
Curve Loop(15) = {-20, 25, 27, -26, -16, -13};
Plane Surface(15) = {15};
Curve Loop(16) = {-28, 21, 26, -29};
Plane Surface(16) = {16};
Curve Loop(17) = {-22, 23, 30, -28, -18, -15};
Plane Surface(17) = {17};
Curve Loop(18) = {-24, 30, 29, -27};
Plane Surface(18) = {18};
Surface Loop(1) = {13, 14, 15, 16, 17, 18, 10, 7};
Volume(1) = {1};
Surface Loop(2) = {7, 8, 9};
Volume(2) = {2};
Surface Loop(3) = {10, 11, 12};
Volume(3) = {3};
Physical Surface("WALLS") = {13, 18};
Physical Surface("LOAD") = {8, 11};
Physical Surface("BORDER") = {7, 9, 10, 12, 14, 15, 16, 17};
Physical Volume("SOLID") = {1, 2, 3};
