cl__1 = 0.090812;
cl__2 = 0.11417;
cl__3 = 0.365119;
cl__4 = 0.401247;
cl__5 = 4.452806;
cl__6 = 4.008025;
Point(9) = {4.327971, -0.09775400000000022, 0.1, cl__1};
Point(10) = {4.327971, -0.09775400000000022, 0, cl__1};
Point(11) = {16.846022, 1.493601, 0.1, cl__2};
Point(12) = {16.846022, 1.493601, 0, cl__2};
Point(13) = {0.887259, -4.452444, 0.1, cl__3};
Point(14) = {0.887259, -4.452444, 0, cl__3};
Point(15) = {0.887259, 4.723772, 0.1, cl__4};
Point(16) = {0.887259, 4.723772, 0, cl__4};
Point(17) = {34.536437, -4.452444, 0, cl__5};
Point(18) = {34.536437, -4.452444, 0.1, cl__5};
Point(19) = {34.536437, 4.723772, 0.1, cl__6};
Point(20) = {34.536437, 4.723772, 0, cl__6};
p13 = newp;
Point(p13 + 1) = {4.316790585107894, 0.0443066406544743, 0.1};
Point(p13 + 2) = {4.28352463935189, 0.1828692768637997, 0.1};
Point(p13 + 3) = {4.228992280719844, 0.3145220366614783, 0.1};
Point(p13 + 4) = {4.1545362768638, 0.4360231921708315, 0.1};
Point(p13 + 5) = {4.061989981704003, 0.5443809817040027, 0.1};
Point(p13 + 6) = {3.953632192170832, 0.6369272768637997, 0.1};
Point(p13 + 7) = {3.832131036661478, 0.7113832807198438, 0.1};
Point(p13 + 8) = {3.7004782768638, 0.7659156393518897, 0.1};
Point(p13 + 9) = {3.561915640654474, 0.7991815851078942, 0.1};
Point(p13 + 10) = {3.419855, 0.810362, 0.1};
Point(p13 + 11) = {3.277794359345525, 0.7991815851078941, 0.1};
Point(p13 + 12) = {3.1392317231362, 0.7659156393518898, 0.1};
Point(p13 + 13) = {3.007578963338522, 0.7113832807198439, 0.1};
Point(p13 + 14) = {2.886077807829169, 0.6369272768637998, 0.1};
Point(p13 + 15) = {2.777720018295997, 0.5443809817040028, 0.1};
Point(p13 + 16) = {2.685173723136201, 0.4360231921708316, 0.1};
Point(p13 + 17) = {2.610717719280157, 0.3145220366614783, 0.1};
Point(p13 + 18) = {2.556185360648111, 0.1828692768637998, 0.1};
Point(p13 + 19) = {2.522919414892106, 0.04430664065447441, 0.1};
Point(p13 + 20) = {2.511739, -0.09775399999999988, 0.1};
Point(p13 + 21) = {2.522919414892106, -0.2398146406544742, 0.1};
Point(p13 + 22) = {2.556185360648111, -0.3783772768638001, 0.1};
Point(p13 + 23) = {2.610717719280156, -0.5100300366614778, 0.1};
Point(p13 + 24) = {2.685173723136201, -0.6315311921708314, 0.1};
Point(p13 + 25) = {2.777720018295997, -0.7398889817040027, 0.1};
Point(p13 + 26) = {2.886077807829168, -0.8324352768637997, 0.1};
Point(p13 + 27) = {3.007578963338521, -0.9068912807198438, 0.1};
Point(p13 + 28) = {3.1392317231362, -0.9614236393518897, 0.1};
Point(p13 + 29) = {3.277794359345525, -0.9946895851078941, 0.1};
Point(p13 + 30) = {3.419855, -1.00587, 0.1};
Point(p13 + 31) = {3.561915640654474, -0.9946895851078942, 0.1};
Point(p13 + 32) = {3.7004782768638, -0.9614236393518898, 0.1};
Point(p13 + 33) = {3.832131036661478, -0.906891280719844, 0.1};
Point(p13 + 34) = {3.953632192170832, -0.8324352768637999, 0.1};
Point(p13 + 35) = {4.061989981704003, -0.739888981704003, 0.1};
Point(p13 + 36) = {4.1545362768638, -0.6315311921708316, 0.1};
Point(p13 + 37) = {4.228992280719844, -0.5100300366614784, 0.1};
Point(p13 + 38) = {4.28352463935189, -0.3783772768638, 0.1};
Point(p13 + 39) = {4.316790585107894, -0.2398146406544745, 0.1};
Spline(13) = {9, p13 + 1, p13 + 2, p13 + 3, p13 + 4, p13 + 5, p13 + 6, p13 + 7, p13 + 8, p13 + 9, p13 + 10, p13 + 11, p13 + 12, p13 + 13, p13 + 14, p13 + 15, p13 + 16, p13 + 17, p13 + 18, p13 + 19, p13 + 20, p13 + 21, p13 + 22, p13 + 23, p13 + 24, p13 + 25, p13 + 26, p13 + 27, p13 + 28, p13 + 29, p13 + 30, p13 + 31, p13 + 32, p13 + 33, p13 + 34, p13 + 35, p13 + 36, p13 + 37, p13 + 38, p13 + 39, 9};
Line(14) = {10, 9};
p15 = newp;
Point(p15 + 1) = {4.316790585107894, 0.0443066406544743, 0};
Point(p15 + 2) = {4.28352463935189, 0.1828692768637997, 0};
Point(p15 + 3) = {4.228992280719844, 0.3145220366614783, 0};
Point(p15 + 4) = {4.1545362768638, 0.4360231921708315, 0};
Point(p15 + 5) = {4.061989981704003, 0.5443809817040027, 0};
Point(p15 + 6) = {3.953632192170832, 0.6369272768637997, 0};
Point(p15 + 7) = {3.832131036661478, 0.7113832807198438, 0};
Point(p15 + 8) = {3.7004782768638, 0.7659156393518897, 0};
Point(p15 + 9) = {3.561915640654474, 0.7991815851078942, 0};
Point(p15 + 10) = {3.419855, 0.810362, 0};
Point(p15 + 11) = {3.277794359345525, 0.7991815851078941, 0};
Point(p15 + 12) = {3.1392317231362, 0.7659156393518898, 0};
Point(p15 + 13) = {3.007578963338522, 0.7113832807198439, 0};
Point(p15 + 14) = {2.886077807829169, 0.6369272768637998, 0};
Point(p15 + 15) = {2.777720018295997, 0.5443809817040028, 0};
Point(p15 + 16) = {2.685173723136201, 0.4360231921708316, 0};
Point(p15 + 17) = {2.610717719280157, 0.3145220366614783, 0};
Point(p15 + 18) = {2.556185360648111, 0.1828692768637998, 0};
Point(p15 + 19) = {2.522919414892106, 0.04430664065447441, 0};
Point(p15 + 20) = {2.511739, -0.09775399999999988, 0};
Point(p15 + 21) = {2.522919414892106, -0.2398146406544742, 0};
Point(p15 + 22) = {2.556185360648111, -0.3783772768638001, 0};
Point(p15 + 23) = {2.610717719280156, -0.5100300366614778, 0};
Point(p15 + 24) = {2.685173723136201, -0.6315311921708314, 0};
Point(p15 + 25) = {2.777720018295997, -0.7398889817040027, 0};
Point(p15 + 26) = {2.886077807829168, -0.8324352768637997, 0};
Point(p15 + 27) = {3.007578963338521, -0.9068912807198438, 0};
Point(p15 + 28) = {3.1392317231362, -0.9614236393518897, 0};
Point(p15 + 29) = {3.277794359345525, -0.9946895851078941, 0};
Point(p15 + 30) = {3.419855, -1.00587, 0};
Point(p15 + 31) = {3.561915640654474, -0.9946895851078942, 0};
Point(p15 + 32) = {3.7004782768638, -0.9614236393518898, 0};
Point(p15 + 33) = {3.832131036661478, -0.906891280719844, 0};
Point(p15 + 34) = {3.953632192170832, -0.8324352768637999, 0};
Point(p15 + 35) = {4.061989981704003, -0.739888981704003, 0};
Point(p15 + 36) = {4.1545362768638, -0.6315311921708316, 0};
Point(p15 + 37) = {4.228992280719844, -0.5100300366614784, 0};
Point(p15 + 38) = {4.28352463935189, -0.3783772768638, 0};
Point(p15 + 39) = {4.316790585107894, -0.2398146406544745, 0};
Spline(15) = {10, p15 + 1, p15 + 2, p15 + 3, p15 + 4, p15 + 5, p15 + 6, p15 + 7, p15 + 8, p15 + 9, p15 + 10, p15 + 11, p15 + 12, p15 + 13, p15 + 14, p15 + 15, p15 + 16, p15 + 17, p15 + 18, p15 + 19, p15 + 20, p15 + 21, p15 + 22, p15 + 23, p15 + 24, p15 + 25, p15 + 26, p15 + 27, p15 + 28, p15 + 29, p15 + 30, p15 + 31, p15 + 32, p15 + 33, p15 + 34, p15 + 35, p15 + 36, p15 + 37, p15 + 38, p15 + 39, 10};
p16 = newp;
Point(p16 + 1) = {16.83196572921083, 1.672202854474292, 0.1};
Point(p16 + 2) = {16.79014302888024, 1.846406938545855, 0.1};
Point(p16 + 3) = {16.72158371269196, 2.011923769514639, 0.1};
Point(p16 + 4) = {16.62797593854586, 2.164677773683326, 0.1};
Point(p16 + 5) = {16.51162464050781, 2.300907640507806, 0.1};
Point(p16 + 6) = {16.37539477368333, 2.417258938545855, 0.1};
Point(p16 + 7) = {16.22264076951464, 2.510866712691956, 0.1};
Point(p16 + 8) = {16.05712393854586, 2.579426028880242, 0.1};
Point(p16 + 9) = {15.88291985447429, 2.621248729210831, 0.1};
Point(p16 + 10) = {15.704318, 2.635305, 0.1};
Point(p16 + 11) = {15.52571614552571, 2.621248729210831, 0.1};
Point(p16 + 12) = {15.35151206145415, 2.579426028880242, 0.1};
Point(p16 + 13) = {15.18599523048536, 2.510866712691956, 0.1};
Point(p16 + 14) = {15.03324122631668, 2.417258938545855, 0.1};
Point(p16 + 15) = {14.8970113594922, 2.300907640507806, 0.1};
Point(p16 + 16) = {14.78066006145415, 2.164677773683326, 0.1};
Point(p16 + 17) = {14.68705228730805, 2.011923769514639, 0.1};
Point(p16 + 18) = {14.61849297111976, 1.846406938545855, 0.1};
Point(p16 + 19) = {14.57667027078917, 1.672202854474292, 0.1};
Point(p16 + 20) = {14.562614, 1.493601, 0.1};
Point(p16 + 21) = {14.57667027078917, 1.314999145525708, 0.1};
Point(p16 + 22) = {14.61849297111976, 1.140795061454145, 0.1};
Point(p16 + 23) = {14.68705228730804, 0.975278230485361, 0.1};
Point(p16 + 24) = {14.78066006145415, 0.8225242263166743, 0.1};
Point(p16 + 25) = {14.8970113594922, 0.686294359492194, 0.1};
Point(p16 + 26) = {15.03324122631667, 0.5699430614541451, 0.1};
Point(p16 + 27) = {15.18599523048536, 0.4763352873080438, 0.1};
Point(p16 + 28) = {15.35151206145415, 0.4077759711197579, 0.1};
Point(p16 + 29) = {15.52571614552571, 0.3659532707891688, 0.1};
Point(p16 + 30) = {15.704318, 0.3518969999999999, 0.1};
Point(p16 + 31) = {15.88291985447429, 0.3659532707891688, 0.1};
Point(p16 + 32) = {16.05712393854586, 0.4077759711197577, 0.1};
Point(p16 + 33) = {16.22264076951464, 0.4763352873080433, 0.1};
Point(p16 + 34) = {16.37539477368333, 0.5699430614541448, 0.1};
Point(p16 + 35) = {16.51162464050781, 0.6862943594921936, 0.1};
Point(p16 + 36) = {16.62797593854586, 0.8225242263166741, 0.1};
Point(p16 + 37) = {16.72158371269196, 0.9752782304853602, 0.1};
Point(p16 + 38) = {16.79014302888024, 1.140795061454145, 0.1};
Point(p16 + 39) = {16.83196572921083, 1.314999145525708, 0.1};
Spline(16) = {11, p16 + 1, p16 + 2, p16 + 3, p16 + 4, p16 + 5, p16 + 6, p16 + 7, p16 + 8, p16 + 9, p16 + 10, p16 + 11, p16 + 12, p16 + 13, p16 + 14, p16 + 15, p16 + 16, p16 + 17, p16 + 18, p16 + 19, p16 + 20, p16 + 21, p16 + 22, p16 + 23, p16 + 24, p16 + 25, p16 + 26, p16 + 27, p16 + 28, p16 + 29, p16 + 30, p16 + 31, p16 + 32, p16 + 33, p16 + 34, p16 + 35, p16 + 36, p16 + 37, p16 + 38, p16 + 39, 11};
Line(17) = {12, 11};
p18 = newp;
Point(p18 + 1) = {16.83196572921083, 1.672202854474292, 0};
Point(p18 + 2) = {16.79014302888024, 1.846406938545855, 0};
Point(p18 + 3) = {16.72158371269196, 2.011923769514639, 0};
Point(p18 + 4) = {16.62797593854586, 2.164677773683326, 0};
Point(p18 + 5) = {16.51162464050781, 2.300907640507806, 0};
Point(p18 + 6) = {16.37539477368333, 2.417258938545855, 0};
Point(p18 + 7) = {16.22264076951464, 2.510866712691956, 0};
Point(p18 + 8) = {16.05712393854586, 2.579426028880242, 0};
Point(p18 + 9) = {15.88291985447429, 2.621248729210831, 0};
Point(p18 + 10) = {15.704318, 2.635305, 0};
Point(p18 + 11) = {15.52571614552571, 2.621248729210831, 0};
Point(p18 + 12) = {15.35151206145415, 2.579426028880242, 0};
Point(p18 + 13) = {15.18599523048536, 2.510866712691956, 0};
Point(p18 + 14) = {15.03324122631668, 2.417258938545855, 0};
Point(p18 + 15) = {14.8970113594922, 2.300907640507806, 0};
Point(p18 + 16) = {14.78066006145415, 2.164677773683326, 0};
Point(p18 + 17) = {14.68705228730805, 2.011923769514639, 0};
Point(p18 + 18) = {14.61849297111976, 1.846406938545855, 0};
Point(p18 + 19) = {14.57667027078917, 1.672202854474292, 0};
Point(p18 + 20) = {14.562614, 1.493601, 0};
Point(p18 + 21) = {14.57667027078917, 1.314999145525708, 0};
Point(p18 + 22) = {14.61849297111976, 1.140795061454145, 0};
Point(p18 + 23) = {14.68705228730804, 0.975278230485361, 0};
Point(p18 + 24) = {14.78066006145415, 0.8225242263166743, 0};
Point(p18 + 25) = {14.8970113594922, 0.686294359492194, 0};
Point(p18 + 26) = {15.03324122631667, 0.5699430614541451, 0};
Point(p18 + 27) = {15.18599523048536, 0.4763352873080438, 0};
Point(p18 + 28) = {15.35151206145415, 0.4077759711197579, 0};
Point(p18 + 29) = {15.52571614552571, 0.3659532707891688, 0};
Point(p18 + 30) = {15.704318, 0.3518969999999999, 0};
Point(p18 + 31) = {15.88291985447429, 0.3659532707891688, 0};
Point(p18 + 32) = {16.05712393854586, 0.4077759711197577, 0};
Point(p18 + 33) = {16.22264076951464, 0.4763352873080433, 0};
Point(p18 + 34) = {16.37539477368333, 0.5699430614541448, 0};
Point(p18 + 35) = {16.51162464050781, 0.6862943594921936, 0};
Point(p18 + 36) = {16.62797593854586, 0.8225242263166741, 0};
Point(p18 + 37) = {16.72158371269196, 0.9752782304853602, 0};
Point(p18 + 38) = {16.79014302888024, 1.140795061454145, 0};
Point(p18 + 39) = {16.83196572921083, 1.314999145525708, 0};
Spline(18) = {12, p18 + 1, p18 + 2, p18 + 3, p18 + 4, p18 + 5, p18 + 6, p18 + 7, p18 + 8, p18 + 9, p18 + 10, p18 + 11, p18 + 12, p18 + 13, p18 + 14, p18 + 15, p18 + 16, p18 + 17, p18 + 18, p18 + 19, p18 + 20, p18 + 21, p18 + 22, p18 + 23, p18 + 24, p18 + 25, p18 + 26, p18 + 27, p18 + 28, p18 + 29, p18 + 30, p18 + 31, p18 + 32, p18 + 33, p18 + 34, p18 + 35, p18 + 36, p18 + 37, p18 + 38, p18 + 39, 12};
Line(19) = {14, 13};
Line(20) = {13, 15};
Line(21) = {16, 15};
Line(22) = {14, 16};
Line(23) = {14, 17};
Line(24) = {17, 18};
Line(25) = {13, 18};
Line(26) = {15, 19};
Line(27) = {18, 19};
Line(28) = {16, 20};
Line(29) = {20, 19};
Line(30) = {17, 20};
Curve Loop(7) = {-13, -14, 15, 14};
Surface(7) = {7};
Curve Loop(8) = {13};
Plane Surface(8) = {8};
Curve Loop(9) = {15};
Plane Surface(9) = {9};
Curve Loop(10) = {-16, -17, 18, 17};
Surface(10) = {10};
Curve Loop(11) = {16};
Plane Surface(11) = {11};
Curve Loop(12) = {18};
Plane Surface(12) = {12};
Curve Loop(13) = {-19, 22, 21, -20};
Plane Surface(13) = {13};
Curve Loop(14) = {-23, 19, 25, -24};
Plane Surface(14) = {14};
Curve Loop(15) = {-20, 25, 27, -26, -13, -16};
Plane Surface(15) = {15};
Curve Loop(16) = {-28, 21, 26, -29};
Plane Surface(16) = {16};
Curve Loop(17) = {-22, 23, 30, -28, -15, -18};
Plane Surface(17) = {17};
Curve Loop(18) = {-24, 30, 29, -27};
Plane Surface(18) = {18};
Surface Loop(1) = {13, 14, 15, 16, 17, 18, 7, 10};
Volume(1) = {1};
Surface Loop(2) = {7, 8, 9};
Volume(2) = {2};
Surface Loop(3) = {10, 11, 12};
Volume(3) = {3};
Physical Surface("WALLS") = {13, 18};
Physical Surface("LOAD") = {8, 11};
Physical Surface("BORDER") = {7, 9, 10, 12, 14, 15, 16, 17};
Physical Volume("SOLID") = {1, 2, 3};
