cl__1 = 0.149502;
cl__2 = 0.09925;
cl__3 = 0.73502;
cl__4 = 0.749148;
cl__5 = 2.06592;
cl__6 = 1.916873;
Point(9) = {13.169193, 0.2497159999999996, 0.1, cl__1};
Point(10) = {13.169193, 0.2497159999999996, 0, cl__1};
Point(11) = {20.162654, 1.296784, 0.1, cl__2};
Point(12) = {20.162654, 1.296784, 0, cl__2};
Point(13) = {0.987189, -4.433702, 0.1, cl__3};
Point(14) = {0.987189, -4.433702, 0, cl__3};
Point(15) = {0.987189, 5.401026999999999, 0.1, cl__4};
Point(16) = {0.987189, 5.401026999999999, 0, cl__4};
Point(17) = {36.886543, -4.433702, 0, cl__5};
Point(18) = {36.886543, -4.433702, 0.1, cl__5};
Point(19) = {36.886543, 5.401026999999999, 0.1, cl__6};
Point(20) = {36.886543, 5.401026999999999, 0, cl__6};
p13 = newp;
Point(p13 + 1) = {13.1507867737099, 0.4835892796623061, 0.1};
Point(p13 + 2) = {13.09602131721764, 0.7117038229984114, 0.1};
Point(p13 + 3) = {13.00624513781819, 0.9284426928826162, 0.1};
Point(p13 + 4) = {12.88366882299841, 1.128469059023302, 0.1};
Point(p13 + 5) = {12.73131060843664, 1.306857608436637, 0.1};
Point(p13 + 6) = {12.5529220590233, 1.459215822998411, 0.1};
Point(p13 + 7) = {12.35289569288262, 1.58179213781819, 0.1};
Point(p13 + 8) = {12.13615682299841, 1.671568317217646, 0.1};
Point(p13 + 9) = {11.90804227966231, 1.726333773709905, 0.1};
Point(p13 + 10) = {11.674169, 1.74474, 0.1};
Point(p13 + 11) = {11.44029572033769, 1.726333773709905, 0.1};
Point(p13 + 12) = {11.21218117700159, 1.671568317217646, 0.1};
Point(p13 + 13) = {10.99544230711738, 1.581792137818191, 0.1};
Point(p13 + 14) = {10.7954159409767, 1.459215822998411, 0.1};
Point(p13 + 15) = {10.61702739156336, 1.306857608436637, 0.1};
Point(p13 + 16) = {10.46466917700159, 1.128469059023302, 0.1};
Point(p13 + 17) = {10.34209286218181, 0.9284426928826162, 0.1};
Point(p13 + 18) = {10.25231668278235, 0.7117038229984115, 0.1};
Point(p13 + 19) = {10.19755122629009, 0.4835892796623062, 0.1};
Point(p13 + 20) = {10.179145, 0.2497160000000002, 0.1};
Point(p13 + 21) = {10.19755122629009, 0.01584272033769407, 0.1};
Point(p13 + 22) = {10.25231668278235, -0.2122718229984119, 0.1};
Point(p13 + 23) = {10.34209286218181, -0.4290106928826155, 0.1};
Point(p13 + 24) = {10.46466917700159, -0.6290370590233021, 0.1};
Point(p13 + 25) = {10.61702739156336, -0.8074256084366369, 0.1};
Point(p13 + 26) = {10.7954159409767, -0.9597838229984113, 0.1};
Point(p13 + 27) = {10.99544230711738, -1.08236013781819, 0.1};
Point(p13 + 28) = {11.21218117700159, -1.172136317217646, 0.1};
Point(p13 + 29) = {11.44029572033769, -1.226901773709905, 0.1};
Point(p13 + 30) = {11.674169, -1.245308, 0.1};
Point(p13 + 31) = {11.90804227966231, -1.226901773709905, 0.1};
Point(p13 + 32) = {12.13615682299841, -1.172136317217646, 0.1};
Point(p13 + 33) = {12.35289569288262, -1.082360137818191, 0.1};
Point(p13 + 34) = {12.5529220590233, -0.9597838229984115, 0.1};
Point(p13 + 35) = {12.73131060843664, -0.8074256084366371, 0.1};
Point(p13 + 36) = {12.88366882299841, -0.6290370590233025, 0.1};
Point(p13 + 37) = {13.00624513781819, -0.4290106928826165, 0.1};
Point(p13 + 38) = {13.09602131721764, -0.2122718229984117, 0.1};
Point(p13 + 39) = {13.1507867737099, 0.01584272033769352, 0.1};
Spline(13) = {9, p13 + 1, p13 + 2, p13 + 3, p13 + 4, p13 + 5, p13 + 6, p13 + 7, p13 + 8, p13 + 9, p13 + 10, p13 + 11, p13 + 12, p13 + 13, p13 + 14, p13 + 15, p13 + 16, p13 + 17, p13 + 18, p13 + 19, p13 + 20, p13 + 21, p13 + 22, p13 + 23, p13 + 24, p13 + 25, p13 + 26, p13 + 27, p13 + 28, p13 + 29, p13 + 30, p13 + 31, p13 + 32, p13 + 33, p13 + 34, p13 + 35, p13 + 36, p13 + 37, p13 + 38, p13 + 39, 9};
Line(14) = {10, 9};
p15 = newp;
Point(p15 + 1) = {13.1507867737099, 0.4835892796623061, 0};
Point(p15 + 2) = {13.09602131721764, 0.7117038229984114, 0};
Point(p15 + 3) = {13.00624513781819, 0.9284426928826162, 0};
Point(p15 + 4) = {12.88366882299841, 1.128469059023302, 0};
Point(p15 + 5) = {12.73131060843664, 1.306857608436637, 0};
Point(p15 + 6) = {12.5529220590233, 1.459215822998411, 0};
Point(p15 + 7) = {12.35289569288262, 1.58179213781819, 0};
Point(p15 + 8) = {12.13615682299841, 1.671568317217646, 0};
Point(p15 + 9) = {11.90804227966231, 1.726333773709905, 0};
Point(p15 + 10) = {11.674169, 1.74474, 0};
Point(p15 + 11) = {11.44029572033769, 1.726333773709905, 0};
Point(p15 + 12) = {11.21218117700159, 1.671568317217646, 0};
Point(p15 + 13) = {10.99544230711738, 1.581792137818191, 0};
Point(p15 + 14) = {10.7954159409767, 1.459215822998411, 0};
Point(p15 + 15) = {10.61702739156336, 1.306857608436637, 0};
Point(p15 + 16) = {10.46466917700159, 1.128469059023302, 0};
Point(p15 + 17) = {10.34209286218181, 0.9284426928826162, 0};
Point(p15 + 18) = {10.25231668278235, 0.7117038229984115, 0};
Point(p15 + 19) = {10.19755122629009, 0.4835892796623062, 0};
Point(p15 + 20) = {10.179145, 0.2497160000000002, 0};
Point(p15 + 21) = {10.19755122629009, 0.01584272033769407, 0};
Point(p15 + 22) = {10.25231668278235, -0.2122718229984119, 0};
Point(p15 + 23) = {10.34209286218181, -0.4290106928826155, 0};
Point(p15 + 24) = {10.46466917700159, -0.6290370590233021, 0};
Point(p15 + 25) = {10.61702739156336, -0.8074256084366369, 0};
Point(p15 + 26) = {10.7954159409767, -0.9597838229984113, 0};
Point(p15 + 27) = {10.99544230711738, -1.08236013781819, 0};
Point(p15 + 28) = {11.21218117700159, -1.172136317217646, 0};
Point(p15 + 29) = {11.44029572033769, -1.226901773709905, 0};
Point(p15 + 30) = {11.674169, -1.245308, 0};
Point(p15 + 31) = {11.90804227966231, -1.226901773709905, 0};
Point(p15 + 32) = {12.13615682299841, -1.172136317217646, 0};
Point(p15 + 33) = {12.35289569288262, -1.082360137818191, 0};
Point(p15 + 34) = {12.5529220590233, -0.9597838229984115, 0};
Point(p15 + 35) = {12.73131060843664, -0.8074256084366371, 0};
Point(p15 + 36) = {12.88366882299841, -0.6290370590233025, 0};
Point(p15 + 37) = {13.00624513781819, -0.4290106928826165, 0};
Point(p15 + 38) = {13.09602131721764, -0.2122718229984117, 0};
Point(p15 + 39) = {13.1507867737099, 0.01584272033769352, 0};
Spline(15) = {10, p15 + 1, p15 + 2, p15 + 3, p15 + 4, p15 + 5, p15 + 6, p15 + 7, p15 + 8, p15 + 9, p15 + 10, p15 + 11, p15 + 12, p15 + 13, p15 + 14, p15 + 15, p15 + 16, p15 + 17, p15 + 18, p15 + 19, p15 + 20, p15 + 21, p15 + 22, p15 + 23, p15 + 24, p15 + 25, p15 + 26, p15 + 27, p15 + 28, p15 + 29, p15 + 30, p15 + 31, p15 + 32, p15 + 33, p15 + 34, p15 + 35, p15 + 36, p15 + 37, p15 + 38, p15 + 39, 10};
p16 = newp;
Point(p16 + 1) = {20.15043462879404, 1.452045832290289, 0.1};
Point(p16 + 2) = {20.11407739664901, 1.603484602985113, 0.1};
Point(p16 + 3) = {20.05447753928305, 1.747371386953499, 0.1};
Point(p16 + 4) = {19.97310260298511, 1.880163214041289, 0.1};
Point(p16 + 5) = {19.87195630875477, 1.998590308754773, 0.1};
Point(p16 + 6) = {19.75352921404129, 2.099736602985113, 0.1};
Point(p16 + 7) = {19.6207373869535, 2.181111539283052, 0.1};
Point(p16 + 8) = {19.47685060298511, 2.240711396649005, 0.1};
Point(p16 + 9) = {19.32541183229029, 2.277068628794037, 0.1};
Point(p16 + 10) = {19.17015, 2.289288, 0.1};
Point(p16 + 11) = {19.01488816770971, 2.277068628794036, 0.1};
Point(p16 + 12) = {18.86344939701489, 2.240711396649005, 0.1};
Point(p16 + 13) = {18.7195626130465, 2.181111539283052, 0.1};
Point(p16 + 14) = {18.58677078595871, 2.099736602985113, 0.1};
Point(p16 + 15) = {18.46834369124523, 1.998590308754773, 0.1};
Point(p16 + 16) = {18.36719739701489, 1.880163214041289, 0.1};
Point(p16 + 17) = {18.28582246071695, 1.747371386953499, 0.1};
Point(p16 + 18) = {18.22622260335099, 1.603484602985113, 0.1};
Point(p16 + 19) = {18.18986537120596, 1.452045832290289, 0.1};
Point(p16 + 20) = {18.177646, 1.296784, 0.1};
Point(p16 + 21) = {18.18986537120596, 1.141522167709711, 0.1};
Point(p16 + 22) = {18.22622260335099, 0.9900833970148868, 0.1};
Point(p16 + 23) = {18.28582246071695, 0.8461966130465013, 0.1};
Point(p16 + 24) = {18.36719739701489, 0.7134047859587113, 0.1};
Point(p16 + 25) = {18.46834369124523, 0.5949776912452268, 0.1};
Point(p16 + 26) = {18.58677078595871, 0.4938313970148872, 0.1};
Point(p16 + 27) = {18.7195626130465, 0.4124564607169481, 0.1};
Point(p16 + 28) = {18.86344939701489, 0.3528566033509948, 0.1};
Point(p16 + 29) = {19.01488816770971, 0.3164993712059634, 0.1};
Point(p16 + 30) = {19.17015, 0.3042799999999999, 0.1};
Point(p16 + 31) = {19.32541183229029, 0.3164993712059633, 0.1};
Point(p16 + 32) = {19.47685060298511, 0.3528566033509947, 0.1};
Point(p16 + 33) = {19.6207373869535, 0.4124564607169479, 0.1};
Point(p16 + 34) = {19.75352921404129, 0.493831397014887, 0.1};
Point(p16 + 35) = {19.87195630875477, 0.5949776912452266, 0.1};
Point(p16 + 36) = {19.97310260298511, 0.713404785958711, 0.1};
Point(p16 + 37) = {20.05447753928305, 0.8461966130465006, 0.1};
Point(p16 + 38) = {20.11407739664901, 0.9900833970148869, 0.1};
Point(p16 + 39) = {20.15043462879404, 1.14152216770971, 0.1};
Spline(16) = {11, p16 + 1, p16 + 2, p16 + 3, p16 + 4, p16 + 5, p16 + 6, p16 + 7, p16 + 8, p16 + 9, p16 + 10, p16 + 11, p16 + 12, p16 + 13, p16 + 14, p16 + 15, p16 + 16, p16 + 17, p16 + 18, p16 + 19, p16 + 20, p16 + 21, p16 + 22, p16 + 23, p16 + 24, p16 + 25, p16 + 26, p16 + 27, p16 + 28, p16 + 29, p16 + 30, p16 + 31, p16 + 32, p16 + 33, p16 + 34, p16 + 35, p16 + 36, p16 + 37, p16 + 38, p16 + 39, 11};
Line(17) = {12, 11};
p18 = newp;
Point(p18 + 1) = {20.15043462879404, 1.452045832290289, 0};
Point(p18 + 2) = {20.11407739664901, 1.603484602985113, 0};
Point(p18 + 3) = {20.05447753928305, 1.747371386953499, 0};
Point(p18 + 4) = {19.97310260298511, 1.880163214041289, 0};
Point(p18 + 5) = {19.87195630875477, 1.998590308754773, 0};
Point(p18 + 6) = {19.75352921404129, 2.099736602985113, 0};
Point(p18 + 7) = {19.6207373869535, 2.181111539283052, 0};
Point(p18 + 8) = {19.47685060298511, 2.240711396649005, 0};
Point(p18 + 9) = {19.32541183229029, 2.277068628794037, 0};
Point(p18 + 10) = {19.17015, 2.289288, 0};
Point(p18 + 11) = {19.01488816770971, 2.277068628794036, 0};
Point(p18 + 12) = {18.86344939701489, 2.240711396649005, 0};
Point(p18 + 13) = {18.7195626130465, 2.181111539283052, 0};
Point(p18 + 14) = {18.58677078595871, 2.099736602985113, 0};
Point(p18 + 15) = {18.46834369124523, 1.998590308754773, 0};
Point(p18 + 16) = {18.36719739701489, 1.880163214041289, 0};
Point(p18 + 17) = {18.28582246071695, 1.747371386953499, 0};
Point(p18 + 18) = {18.22622260335099, 1.603484602985113, 0};
Point(p18 + 19) = {18.18986537120596, 1.452045832290289, 0};
Point(p18 + 20) = {18.177646, 1.296784, 0};
Point(p18 + 21) = {18.18986537120596, 1.141522167709711, 0};
Point(p18 + 22) = {18.22622260335099, 0.9900833970148868, 0};
Point(p18 + 23) = {18.28582246071695, 0.8461966130465013, 0};
Point(p18 + 24) = {18.36719739701489, 0.7134047859587113, 0};
Point(p18 + 25) = {18.46834369124523, 0.5949776912452268, 0};
Point(p18 + 26) = {18.58677078595871, 0.4938313970148872, 0};
Point(p18 + 27) = {18.7195626130465, 0.4124564607169481, 0};
Point(p18 + 28) = {18.86344939701489, 0.3528566033509948, 0};
Point(p18 + 29) = {19.01488816770971, 0.3164993712059634, 0};
Point(p18 + 30) = {19.17015, 0.3042799999999999, 0};
Point(p18 + 31) = {19.32541183229029, 0.3164993712059633, 0};
Point(p18 + 32) = {19.47685060298511, 0.3528566033509947, 0};
Point(p18 + 33) = {19.6207373869535, 0.4124564607169479, 0};
Point(p18 + 34) = {19.75352921404129, 0.493831397014887, 0};
Point(p18 + 35) = {19.87195630875477, 0.5949776912452266, 0};
Point(p18 + 36) = {19.97310260298511, 0.713404785958711, 0};
Point(p18 + 37) = {20.05447753928305, 0.8461966130465006, 0};
Point(p18 + 38) = {20.11407739664901, 0.9900833970148869, 0};
Point(p18 + 39) = {20.15043462879404, 1.14152216770971, 0};
Spline(18) = {12, p18 + 1, p18 + 2, p18 + 3, p18 + 4, p18 + 5, p18 + 6, p18 + 7, p18 + 8, p18 + 9, p18 + 10, p18 + 11, p18 + 12, p18 + 13, p18 + 14, p18 + 15, p18 + 16, p18 + 17, p18 + 18, p18 + 19, p18 + 20, p18 + 21, p18 + 22, p18 + 23, p18 + 24, p18 + 25, p18 + 26, p18 + 27, p18 + 28, p18 + 29, p18 + 30, p18 + 31, p18 + 32, p18 + 33, p18 + 34, p18 + 35, p18 + 36, p18 + 37, p18 + 38, p18 + 39, 12};
Line(19) = {14, 13};
Line(20) = {13, 15};
Line(21) = {16, 15};
Line(22) = {14, 16};
Line(23) = {14, 17};
Line(24) = {17, 18};
Line(25) = {13, 18};
Line(26) = {15, 19};
Line(27) = {18, 19};
Line(28) = {16, 20};
Line(29) = {20, 19};
Line(30) = {17, 20};
Curve Loop(7) = {-13, -14, 15, 14};
Surface(7) = {7};
Curve Loop(8) = {13};
Plane Surface(8) = {8};
Curve Loop(9) = {15};
Plane Surface(9) = {9};
Curve Loop(10) = {-16, -17, 18, 17};
Surface(10) = {10};
Curve Loop(11) = {16};
Plane Surface(11) = {11};
Curve Loop(12) = {18};
Plane Surface(12) = {12};
Curve Loop(13) = {-19, 22, 21, -20};
Plane Surface(13) = {13};
Curve Loop(14) = {-23, 19, 25, -24};
Plane Surface(14) = {14};
Curve Loop(15) = {-20, 25, 27, -26, -13, -16};
Plane Surface(15) = {15};
Curve Loop(16) = {-28, 21, 26, -29};
Plane Surface(16) = {16};
Curve Loop(17) = {-22, 23, 30, -28, -15, -18};
Plane Surface(17) = {17};
Curve Loop(18) = {-24, 30, 29, -27};
Plane Surface(18) = {18};
Surface Loop(1) = {13, 14, 15, 16, 17, 18, 7, 10};
Volume(1) = {1};
Surface Loop(2) = {7, 8, 9};
Volume(2) = {2};
Surface Loop(3) = {10, 11, 12};
Volume(3) = {3};
Physical Surface("WALLS") = {13, 18};
Physical Surface("LOAD") = {8, 11};
Physical Surface("BORDER") = {7, 9, 10, 12, 14, 15, 16, 17};
Physical Volume("SOLID") = {1, 2, 3};
