cl__1 = 0.06845;
cl__2 = 0.103987;
cl__3 = 0.235028;
cl__4 = 0.481651;
cl__5 = 4.271051;
cl__6 = 4.581287;
Point(9) = {5.321466, -1.888881, 0.1, cl__1};
Point(10) = {5.321466, -1.888881, 0, cl__1};
Point(11) = {13.646523, -1.001902, 0.1, cl__2};
Point(12) = {13.646523, -1.001902, 0, cl__2};
Point(13) = {0.839332, -3.248997, 0.1, cl__3};
Point(14) = {0.839332, -3.248997, 0, cl__3};
Point(15) = {0.839332, 4.634715, 0.1, cl__4};
Point(16) = {0.839332, 4.634715, 0, cl__4};
Point(17) = {36.66356, -3.248997, 0, cl__5};
Point(18) = {36.66356, -3.248997, 0.1, cl__5};
Point(19) = {36.66356, 4.634715, 0.1, cl__6};
Point(20) = {36.66356, 4.634715, 0, cl__6};
p13 = newp;
Point(p13 + 1) = {5.31303870607235, -1.781802077983357, 0.1};
Point(p13 + 2) = {5.287964332234483, -1.677359794401332, 0.1};
Point(p13 + 3) = {5.246860292787365, -1.57812586489978, 0.1};
Point(p13 + 4) = {5.190738705598668, -1.486543758161559, 0.1};
Point(p13 + 5) = {5.120981470401848, -1.404868529598152, 0.1};
Point(p13 + 6) = {5.039306241838441, -1.335111294401332, 0.1};
Point(p13 + 7) = {4.94772413510022, -1.278989707212635, 0.1};
Point(p13 + 8) = {4.848490205598668, -1.237885667765516, 0.1};
Point(p13 + 9) = {4.744047922016643, -1.21281129392765, 0.1};
Point(p13 + 10) = {4.636969, -1.204384, 0.1};
Point(p13 + 11) = {4.529890077983357, -1.21281129392765, 0.1};
Point(p13 + 12) = {4.425447794401332, -1.237885667765516, 0.1};
Point(p13 + 13) = {4.326213864899779, -1.278989707212635, 0.1};
Point(p13 + 14) = {4.234631758161559, -1.335111294401332, 0.1};
Point(p13 + 15) = {4.152956529598152, -1.404868529598152, 0.1};
Point(p13 + 16) = {4.083199294401331, -1.486543758161559, 0.1};
Point(p13 + 17) = {4.027077707212634, -1.578125864899779, 0.1};
Point(p13 + 18) = {3.985973667765516, -1.677359794401332, 0.1};
Point(p13 + 19) = {3.96089929392765, -1.781802077983357, 0.1};
Point(p13 + 20) = {3.952472, -1.888881, 0.1};
Point(p13 + 21) = {3.96089929392765, -1.995959922016643, 0.1};
Point(p13 + 22) = {3.985973667765516, -2.100402205598669, 0.1};
Point(p13 + 23) = {4.027077707212634, -2.19963613510022, 0.1};
Point(p13 + 24) = {4.083199294401331, -2.291218241838441, 0.1};
Point(p13 + 25) = {4.152956529598152, -2.372893470401848, 0.1};
Point(p13 + 26) = {4.234631758161559, -2.442650705598668, 0.1};
Point(p13 + 27) = {4.326213864899779, -2.498772292787365, 0.1};
Point(p13 + 28) = {4.425447794401332, -2.539876332234484, 0.1};
Point(p13 + 29) = {4.529890077983357, -2.56495070607235, 0.1};
Point(p13 + 30) = {4.636969, -2.573378, 0.1};
Point(p13 + 31) = {4.744047922016643, -2.56495070607235, 0.1};
Point(p13 + 32) = {4.848490205598668, -2.539876332234484, 0.1};
Point(p13 + 33) = {4.94772413510022, -2.498772292787365, 0.1};
Point(p13 + 34) = {5.039306241838441, -2.442650705598668, 0.1};
Point(p13 + 35) = {5.120981470401848, -2.372893470401849, 0.1};
Point(p13 + 36) = {5.190738705598668, -2.291218241838441, 0.1};
Point(p13 + 37) = {5.246860292787365, -2.199636135100221, 0.1};
Point(p13 + 38) = {5.287964332234483, -2.100402205598669, 0.1};
Point(p13 + 39) = {5.31303870607235, -1.995959922016643, 0.1};
Spline(13) = {9, p13 + 1, p13 + 2, p13 + 3, p13 + 4, p13 + 5, p13 + 6, p13 + 7, p13 + 8, p13 + 9, p13 + 10, p13 + 11, p13 + 12, p13 + 13, p13 + 14, p13 + 15, p13 + 16, p13 + 17, p13 + 18, p13 + 19, p13 + 20, p13 + 21, p13 + 22, p13 + 23, p13 + 24, p13 + 25, p13 + 26, p13 + 27, p13 + 28, p13 + 29, p13 + 30, p13 + 31, p13 + 32, p13 + 33, p13 + 34, p13 + 35, p13 + 36, p13 + 37, p13 + 38, p13 + 39, 9};
Line(14) = {10, 9};
p15 = newp;
Point(p15 + 1) = {5.31303870607235, -1.781802077983357, 0};
Point(p15 + 2) = {5.287964332234483, -1.677359794401332, 0};
Point(p15 + 3) = {5.246860292787365, -1.57812586489978, 0};
Point(p15 + 4) = {5.190738705598668, -1.486543758161559, 0};
Point(p15 + 5) = {5.120981470401848, -1.404868529598152, 0};
Point(p15 + 6) = {5.039306241838441, -1.335111294401332, 0};
Point(p15 + 7) = {4.94772413510022, -1.278989707212635, 0};
Point(p15 + 8) = {4.848490205598668, -1.237885667765516, 0};
Point(p15 + 9) = {4.744047922016643, -1.21281129392765, 0};
Point(p15 + 10) = {4.636969, -1.204384, 0};
Point(p15 + 11) = {4.529890077983357, -1.21281129392765, 0};
Point(p15 + 12) = {4.425447794401332, -1.237885667765516, 0};
Point(p15 + 13) = {4.326213864899779, -1.278989707212635, 0};
Point(p15 + 14) = {4.234631758161559, -1.335111294401332, 0};
Point(p15 + 15) = {4.152956529598152, -1.404868529598152, 0};
Point(p15 + 16) = {4.083199294401331, -1.486543758161559, 0};
Point(p15 + 17) = {4.027077707212634, -1.578125864899779, 0};
Point(p15 + 18) = {3.985973667765516, -1.677359794401332, 0};
Point(p15 + 19) = {3.96089929392765, -1.781802077983357, 0};
Point(p15 + 20) = {3.952472, -1.888881, 0};
Point(p15 + 21) = {3.96089929392765, -1.995959922016643, 0};
Point(p15 + 22) = {3.985973667765516, -2.100402205598669, 0};
Point(p15 + 23) = {4.027077707212634, -2.19963613510022, 0};
Point(p15 + 24) = {4.083199294401331, -2.291218241838441, 0};
Point(p15 + 25) = {4.152956529598152, -2.372893470401848, 0};
Point(p15 + 26) = {4.234631758161559, -2.442650705598668, 0};
Point(p15 + 27) = {4.326213864899779, -2.498772292787365, 0};
Point(p15 + 28) = {4.425447794401332, -2.539876332234484, 0};
Point(p15 + 29) = {4.529890077983357, -2.56495070607235, 0};
Point(p15 + 30) = {4.636969, -2.573378, 0};
Point(p15 + 31) = {4.744047922016643, -2.56495070607235, 0};
Point(p15 + 32) = {4.848490205598668, -2.539876332234484, 0};
Point(p15 + 33) = {4.94772413510022, -2.498772292787365, 0};
Point(p15 + 34) = {5.039306241838441, -2.442650705598668, 0};
Point(p15 + 35) = {5.120981470401848, -2.372893470401849, 0};
Point(p15 + 36) = {5.190738705598668, -2.291218241838441, 0};
Point(p15 + 37) = {5.246860292787365, -2.199636135100221, 0};
Point(p15 + 38) = {5.287964332234483, -2.100402205598669, 0};
Point(p15 + 39) = {5.31303870607235, -1.995959922016643, 0};
Spline(15) = {10, p15 + 1, p15 + 2, p15 + 3, p15 + 4, p15 + 5, p15 + 6, p15 + 7, p15 + 8, p15 + 9, p15 + 10, p15 + 11, p15 + 12, p15 + 13, p15 + 14, p15 + 15, p15 + 16, p15 + 17, p15 + 18, p15 + 19, p15 + 20, p15 + 21, p15 + 22, p15 + 23, p15 + 24, p15 + 25, p15 + 26, p15 + 27, p15 + 28, p15 + 29, p15 + 30, p15 + 31, p15 + 32, p15 + 33, p15 + 34, p15 + 35, p15 + 36, p15 + 37, p15 + 38, p15 + 39, 10};
p16 = newp;
Point(p16 + 1) = {13.63372051166964, -0.8392309621420103, 0.1};
Point(p16 + 2) = {13.59562828643029, -0.6805654251103066, 0.1};
Point(p16 + 3) = {13.53318428128818, -0.5298122610073368, 0.1};
Point(p16 + 4) = {13.44792607488969, -0.3906835130543829, 0.1};
Point(p16 + 5) = {13.34195300723211, -0.2666049927678884, 0.1};
Point(p16 + 6) = {13.21787448694562, -0.1606319251103067, 0.1};
Point(p16 + 7) = {13.07874573899266, -0.07537371871181453, 0.1};
Point(p16 + 8) = {12.92799257488969, -0.01292971356970751, 0.1};
Point(p16 + 9) = {12.76932703785799, 0.02516251166964412, 0.1};
Point(p16 + 10) = {12.606656, 0.03796500000000003, 0.1};
Point(p16 + 11) = {12.44398496214201, 0.02516251166964412, 0.1};
Point(p16 + 12) = {12.28531942511031, -0.0129297135697074, 0.1};
Point(p16 + 13) = {12.13456626100734, -0.07537371871181442, 0.1};
Point(p16 + 14) = {11.99543751305438, -0.1606319251103066, 0.1};
Point(p16 + 15) = {11.87135899276789, -0.2666049927678883, 0.1};
Point(p16 + 16) = {11.76538592511031, -0.3906835130543828, 0.1};
Point(p16 + 17) = {11.68012771871181, -0.5298122610073366, 0.1};
Point(p16 + 18) = {11.61768371356971, -0.6805654251103065, 0.1};
Point(p16 + 19) = {11.57959148833035, -0.8392309621420102, 0.1};
Point(p16 + 20) = {11.566789, -1.001902, 0.1};
Point(p16 + 21) = {11.57959148833035, -1.16457303785799, 0.1};
Point(p16 + 22) = {11.61768371356971, -1.323238574889694, 0.1};
Point(p16 + 23) = {11.68012771871181, -1.473991738992663, 0.1};
Point(p16 + 24) = {11.76538592511031, -1.613120486945617, 0.1};
Point(p16 + 25) = {11.87135899276789, -1.737199007232112, 0.1};
Point(p16 + 26) = {11.99543751305438, -1.843172074889694, 0.1};
Point(p16 + 27) = {12.13456626100734, -1.928430281288186, 0.1};
Point(p16 + 28) = {12.28531942511031, -1.990874286430293, 0.1};
Point(p16 + 29) = {12.44398496214201, -2.028966511669644, 0.1};
Point(p16 + 30) = {12.606656, -2.041769, 0.1};
Point(p16 + 31) = {12.76932703785799, -2.028966511669644, 0.1};
Point(p16 + 32) = {12.92799257488969, -1.990874286430293, 0.1};
Point(p16 + 33) = {13.07874573899266, -1.928430281288186, 0.1};
Point(p16 + 34) = {13.21787448694562, -1.843172074889694, 0.1};
Point(p16 + 35) = {13.34195300723211, -1.737199007232112, 0.1};
Point(p16 + 36) = {13.44792607488969, -1.613120486945617, 0.1};
Point(p16 + 37) = {13.53318428128818, -1.473991738992664, 0.1};
Point(p16 + 38) = {13.59562828643029, -1.323238574889694, 0.1};
Point(p16 + 39) = {13.63372051166964, -1.16457303785799, 0.1};
Spline(16) = {11, p16 + 1, p16 + 2, p16 + 3, p16 + 4, p16 + 5, p16 + 6, p16 + 7, p16 + 8, p16 + 9, p16 + 10, p16 + 11, p16 + 12, p16 + 13, p16 + 14, p16 + 15, p16 + 16, p16 + 17, p16 + 18, p16 + 19, p16 + 20, p16 + 21, p16 + 22, p16 + 23, p16 + 24, p16 + 25, p16 + 26, p16 + 27, p16 + 28, p16 + 29, p16 + 30, p16 + 31, p16 + 32, p16 + 33, p16 + 34, p16 + 35, p16 + 36, p16 + 37, p16 + 38, p16 + 39, 11};
Line(17) = {12, 11};
p18 = newp;
Point(p18 + 1) = {13.63372051166964, -0.8392309621420103, 0};
Point(p18 + 2) = {13.59562828643029, -0.6805654251103066, 0};
Point(p18 + 3) = {13.53318428128818, -0.5298122610073368, 0};
Point(p18 + 4) = {13.44792607488969, -0.3906835130543829, 0};
Point(p18 + 5) = {13.34195300723211, -0.2666049927678884, 0};
Point(p18 + 6) = {13.21787448694562, -0.1606319251103067, 0};
Point(p18 + 7) = {13.07874573899266, -0.07537371871181453, 0};
Point(p18 + 8) = {12.92799257488969, -0.01292971356970751, 0};
Point(p18 + 9) = {12.76932703785799, 0.02516251166964412, 0};
Point(p18 + 10) = {12.606656, 0.03796500000000003, 0};
Point(p18 + 11) = {12.44398496214201, 0.02516251166964412, 0};
Point(p18 + 12) = {12.28531942511031, -0.0129297135697074, 0};
Point(p18 + 13) = {12.13456626100734, -0.07537371871181442, 0};
Point(p18 + 14) = {11.99543751305438, -0.1606319251103066, 0};
Point(p18 + 15) = {11.87135899276789, -0.2666049927678883, 0};
Point(p18 + 16) = {11.76538592511031, -0.3906835130543828, 0};
Point(p18 + 17) = {11.68012771871181, -0.5298122610073366, 0};
Point(p18 + 18) = {11.61768371356971, -0.6805654251103065, 0};
Point(p18 + 19) = {11.57959148833035, -0.8392309621420102, 0};
Point(p18 + 20) = {11.566789, -1.001902, 0};
Point(p18 + 21) = {11.57959148833035, -1.16457303785799, 0};
Point(p18 + 22) = {11.61768371356971, -1.323238574889694, 0};
Point(p18 + 23) = {11.68012771871181, -1.473991738992663, 0};
Point(p18 + 24) = {11.76538592511031, -1.613120486945617, 0};
Point(p18 + 25) = {11.87135899276789, -1.737199007232112, 0};
Point(p18 + 26) = {11.99543751305438, -1.843172074889694, 0};
Point(p18 + 27) = {12.13456626100734, -1.928430281288186, 0};
Point(p18 + 28) = {12.28531942511031, -1.990874286430293, 0};
Point(p18 + 29) = {12.44398496214201, -2.028966511669644, 0};
Point(p18 + 30) = {12.606656, -2.041769, 0};
Point(p18 + 31) = {12.76932703785799, -2.028966511669644, 0};
Point(p18 + 32) = {12.92799257488969, -1.990874286430293, 0};
Point(p18 + 33) = {13.07874573899266, -1.928430281288186, 0};
Point(p18 + 34) = {13.21787448694562, -1.843172074889694, 0};
Point(p18 + 35) = {13.34195300723211, -1.737199007232112, 0};
Point(p18 + 36) = {13.44792607488969, -1.613120486945617, 0};
Point(p18 + 37) = {13.53318428128818, -1.473991738992664, 0};
Point(p18 + 38) = {13.59562828643029, -1.323238574889694, 0};
Point(p18 + 39) = {13.63372051166964, -1.16457303785799, 0};
Spline(18) = {12, p18 + 1, p18 + 2, p18 + 3, p18 + 4, p18 + 5, p18 + 6, p18 + 7, p18 + 8, p18 + 9, p18 + 10, p18 + 11, p18 + 12, p18 + 13, p18 + 14, p18 + 15, p18 + 16, p18 + 17, p18 + 18, p18 + 19, p18 + 20, p18 + 21, p18 + 22, p18 + 23, p18 + 24, p18 + 25, p18 + 26, p18 + 27, p18 + 28, p18 + 29, p18 + 30, p18 + 31, p18 + 32, p18 + 33, p18 + 34, p18 + 35, p18 + 36, p18 + 37, p18 + 38, p18 + 39, 12};
Line(19) = {14, 13};
Line(20) = {13, 15};
Line(21) = {16, 15};
Line(22) = {14, 16};
Line(23) = {14, 17};
Line(24) = {17, 18};
Line(25) = {13, 18};
Line(26) = {15, 19};
Line(27) = {18, 19};
Line(28) = {16, 20};
Line(29) = {20, 19};
Line(30) = {17, 20};
Curve Loop(7) = {-13, -14, 15, 14};
Surface(7) = {7};
Curve Loop(8) = {13};
Plane Surface(8) = {8};
Curve Loop(9) = {15};
Plane Surface(9) = {9};
Curve Loop(10) = {-16, -17, 18, 17};
Surface(10) = {10};
Curve Loop(11) = {16};
Plane Surface(11) = {11};
Curve Loop(12) = {18};
Plane Surface(12) = {12};
Curve Loop(13) = {-19, 22, 21, -20};
Plane Surface(13) = {13};
Curve Loop(14) = {-23, 19, 25, -24};
Plane Surface(14) = {14};
Curve Loop(15) = {-20, 25, 27, -26, -13, -16};
Plane Surface(15) = {15};
Curve Loop(16) = {-28, 21, 26, -29};
Plane Surface(16) = {16};
Curve Loop(17) = {-22, 23, 30, -28, -15, -18};
Plane Surface(17) = {17};
Curve Loop(18) = {-24, 30, 29, -27};
Plane Surface(18) = {18};
Surface Loop(1) = {13, 14, 15, 16, 17, 18, 7, 10};
Volume(1) = {1};
Surface Loop(2) = {7, 8, 9};
Volume(2) = {2};
Surface Loop(3) = {10, 11, 12};
Volume(3) = {3};
Physical Surface("WALLS") = {13, 18};
Physical Surface("LOAD") = {8, 11};
Physical Surface("BORDER") = {7, 9, 10, 12, 14, 15, 16, 17};
Physical Volume("SOLID") = {1, 2, 3};
