cl__1 = 0.05794;
cl__2 = 0.132525;
cl__3 = 1.338865;
cl__4 = 1.517554;
cl__5 = 0.8665;
cl__6 = 0.882176;
Point(9) = {17.436265, -0.6751560000000001, 0.1, cl__1};
Point(10) = {17.436265, -0.6751560000000001, 0, cl__1};
Point(11) = {23.28667, 0.4324419999999997, 0.1, cl__2};
Point(12) = {23.28667, 0.4324419999999997, 0, cl__2};
Point(13) = {0.458643, -2.901777, 0.1, cl__3};
Point(14) = {0.458643, -2.901777, 0, cl__3};
Point(15) = {0.458643, 4.612599, 0.1, cl__4};
Point(16) = {0.458643, 4.612599, 0, cl__4};
Point(17) = {35.435012, -2.901777, 0, cl__5};
Point(18) = {35.435012, -2.901777, 0.1, cl__5};
Point(19) = {35.435012, 4.612599, 0.1, cl__6};
Point(20) = {35.435012, 4.612599, 0, cl__6};
p13 = newp;
Point(p13 + 1) = {17.42913156298253, -0.5845170887833651, 0.1};
Point(p13 + 2) = {17.407906900824, -0.4961100083741836, 0.1};
Point(p13 + 3) = {17.37311363514736, -0.4121116344984079, 0.1};
Point(p13 + 4) = {17.32560849162582, -0.3345902858954796, 0.1};
Point(p13 + 5) = {17.26656120455339, -0.2654547954466085, 0.1};
Point(p13 + 6) = {17.19742571410452, -0.2064075083741836, 0.1};
Point(p13 + 7) = {17.11990436550159, -0.1589023648526388, 0.1};
Point(p13 + 8) = {17.03590599162582, -0.1241090991760065, 0.1};
Point(p13 + 9) = {16.94749891121664, -0.1028844370174742, 0.1};
Point(p13 + 10) = {16.85686, -0.09575100000000003, 0.1};
Point(p13 + 11) = {16.76622108878336, -0.1028844370174743, 0.1};
Point(p13 + 12) = {16.67781400837418, -0.1241090991760065, 0.1};
Point(p13 + 13) = {16.59381563449841, -0.1589023648526388, 0.1};
Point(p13 + 14) = {16.51629428589548, -0.2064075083741836, 0.1};
Point(p13 + 15) = {16.44715879544661, -0.2654547954466084, 0.1};
Point(p13 + 16) = {16.38811150837418, -0.3345902858954796, 0.1};
Point(p13 + 17) = {16.34060636485264, -0.4121116344984079, 0.1};
Point(p13 + 18) = {16.30581309917601, -0.4961100083741835, 0.1};
Point(p13 + 19) = {16.28458843701748, -0.5845170887833649, 0.1};
Point(p13 + 20) = {16.277455, -0.6751559999999999, 0.1};
Point(p13 + 21) = {16.28458843701748, -0.7657949112166349, 0.1};
Point(p13 + 22) = {16.30581309917601, -0.8542019916258166, 0.1};
Point(p13 + 23) = {16.34060636485264, -0.9382003655015918, 0.1};
Point(p13 + 24) = {16.38811150837418, -1.01572171410452, 0.1};
Point(p13 + 25) = {16.44715879544661, -1.084857204553392, 0.1};
Point(p13 + 26) = {16.51629428589548, -1.143904491625816, 0.1};
Point(p13 + 27) = {16.59381563449841, -1.191409635147361, 0.1};
Point(p13 + 28) = {16.67781400837418, -1.226202900823993, 0.1};
Point(p13 + 29) = {16.76622108878336, -1.247427562982526, 0.1};
Point(p13 + 30) = {16.85686, -1.254561, 0.1};
Point(p13 + 31) = {16.94749891121664, -1.247427562982526, 0.1};
Point(p13 + 32) = {17.03590599162582, -1.226202900823993, 0.1};
Point(p13 + 33) = {17.11990436550159, -1.191409635147361, 0.1};
Point(p13 + 34) = {17.19742571410452, -1.143904491625817, 0.1};
Point(p13 + 35) = {17.26656120455339, -1.084857204553392, 0.1};
Point(p13 + 36) = {17.32560849162582, -1.015721714104521, 0.1};
Point(p13 + 37) = {17.37311363514736, -0.9382003655015922, 0.1};
Point(p13 + 38) = {17.407906900824, -0.8542019916258164, 0.1};
Point(p13 + 39) = {17.42913156298253, -0.7657949112166351, 0.1};
Spline(13) = {9, p13 + 1, p13 + 2, p13 + 3, p13 + 4, p13 + 5, p13 + 6, p13 + 7, p13 + 8, p13 + 9, p13 + 10, p13 + 11, p13 + 12, p13 + 13, p13 + 14, p13 + 15, p13 + 16, p13 + 17, p13 + 18, p13 + 19, p13 + 20, p13 + 21, p13 + 22, p13 + 23, p13 + 24, p13 + 25, p13 + 26, p13 + 27, p13 + 28, p13 + 29, p13 + 30, p13 + 31, p13 + 32, p13 + 33, p13 + 34, p13 + 35, p13 + 36, p13 + 37, p13 + 38, p13 + 39, 9};
Line(14) = {10, 9};
p15 = newp;
Point(p15 + 1) = {17.42913156298253, -0.5845170887833651, 0};
Point(p15 + 2) = {17.407906900824, -0.4961100083741836, 0};
Point(p15 + 3) = {17.37311363514736, -0.4121116344984079, 0};
Point(p15 + 4) = {17.32560849162582, -0.3345902858954796, 0};
Point(p15 + 5) = {17.26656120455339, -0.2654547954466085, 0};
Point(p15 + 6) = {17.19742571410452, -0.2064075083741836, 0};
Point(p15 + 7) = {17.11990436550159, -0.1589023648526388, 0};
Point(p15 + 8) = {17.03590599162582, -0.1241090991760065, 0};
Point(p15 + 9) = {16.94749891121664, -0.1028844370174742, 0};
Point(p15 + 10) = {16.85686, -0.09575100000000003, 0};
Point(p15 + 11) = {16.76622108878336, -0.1028844370174743, 0};
Point(p15 + 12) = {16.67781400837418, -0.1241090991760065, 0};
Point(p15 + 13) = {16.59381563449841, -0.1589023648526388, 0};
Point(p15 + 14) = {16.51629428589548, -0.2064075083741836, 0};
Point(p15 + 15) = {16.44715879544661, -0.2654547954466084, 0};
Point(p15 + 16) = {16.38811150837418, -0.3345902858954796, 0};
Point(p15 + 17) = {16.34060636485264, -0.4121116344984079, 0};
Point(p15 + 18) = {16.30581309917601, -0.4961100083741835, 0};
Point(p15 + 19) = {16.28458843701748, -0.5845170887833649, 0};
Point(p15 + 20) = {16.277455, -0.6751559999999999, 0};
Point(p15 + 21) = {16.28458843701748, -0.7657949112166349, 0};
Point(p15 + 22) = {16.30581309917601, -0.8542019916258166, 0};
Point(p15 + 23) = {16.34060636485264, -0.9382003655015918, 0};
Point(p15 + 24) = {16.38811150837418, -1.01572171410452, 0};
Point(p15 + 25) = {16.44715879544661, -1.084857204553392, 0};
Point(p15 + 26) = {16.51629428589548, -1.143904491625816, 0};
Point(p15 + 27) = {16.59381563449841, -1.191409635147361, 0};
Point(p15 + 28) = {16.67781400837418, -1.226202900823993, 0};
Point(p15 + 29) = {16.76622108878336, -1.247427562982526, 0};
Point(p15 + 30) = {16.85686, -1.254561, 0};
Point(p15 + 31) = {16.94749891121664, -1.247427562982526, 0};
Point(p15 + 32) = {17.03590599162582, -1.226202900823993, 0};
Point(p15 + 33) = {17.11990436550159, -1.191409635147361, 0};
Point(p15 + 34) = {17.19742571410452, -1.143904491625817, 0};
Point(p15 + 35) = {17.26656120455339, -1.084857204553392, 0};
Point(p15 + 36) = {17.32560849162582, -1.015721714104521, 0};
Point(p15 + 37) = {17.37311363514736, -0.9382003655015922, 0};
Point(p15 + 38) = {17.407906900824, -0.8542019916258164, 0};
Point(p15 + 39) = {17.42913156298253, -0.7657949112166351, 0};
Spline(15) = {10, p15 + 1, p15 + 2, p15 + 3, p15 + 4, p15 + 5, p15 + 6, p15 + 7, p15 + 8, p15 + 9, p15 + 10, p15 + 11, p15 + 12, p15 + 13, p15 + 14, p15 + 15, p15 + 16, p15 + 17, p15 + 18, p15 + 19, p15 + 20, p15 + 21, p15 + 22, p15 + 23, p15 + 24, p15 + 25, p15 + 26, p15 + 27, p15 + 28, p15 + 29, p15 + 30, p15 + 31, p15 + 32, p15 + 33, p15 + 34, p15 + 35, p15 + 36, p15 + 37, p15 + 38, p15 + 39, 10};
p16 = newp;
Point(p16 + 1) = {23.27035393643873, 0.6397572440979611, 0.1};
Point(p16 + 2) = {23.2218075013897, 0.8419676988463822, 0.1};
Point(p16 + 3) = {23.14222606920021, 1.034094271751334, 0.1};
Point(p16 + 4) = {23.03356919884638, 1.211406168956357, 0.1};
Point(p16 + 5) = {22.89851238308782, 1.369537383087815, 0.1};
Point(p16 + 6) = {22.74038116895636, 1.504594198846382, 0.1};
Point(p16 + 7) = {22.56306927175133, 1.613251069200207, 0.1};
Point(p16 + 8) = {22.37094269884638, 1.692832501389701, 0.1};
Point(p16 + 9) = {22.16873224409796, 1.741378936438728, 0.1};
Point(p16 + 10) = {21.961417, 1.757695, 0.1};
Point(p16 + 11) = {21.75410175590204, 1.741378936438728, 0.1};
Point(p16 + 12) = {21.55189130115362, 1.692832501389701, 0.1};
Point(p16 + 13) = {21.35976472824867, 1.613251069200207, 0.1};
Point(p16 + 14) = {21.18245283104364, 1.504594198846382, 0.1};
Point(p16 + 15) = {21.02432161691219, 1.369537383087816, 0.1};
Point(p16 + 16) = {20.88926480115362, 1.211406168956357, 0.1};
Point(p16 + 17) = {20.78060793079979, 1.034094271751334, 0.1};
Point(p16 + 18) = {20.7010264986103, 0.8419676988463822, 0.1};
Point(p16 + 19) = {20.65248006356127, 0.6397572440979612, 0.1};
Point(p16 + 20) = {20.636164, 0.4324420000000002, 0.1};
Point(p16 + 21) = {20.65248006356127, 0.2251267559020391, 0.1};
Point(p16 + 22) = {20.7010264986103, 0.02291630115361737, 0.1};
Point(p16 + 23) = {20.78060793079979, -0.169210271751333, 0.1};
Point(p16 + 24) = {20.88926480115362, -0.3465221689563568, 0.1};
Point(p16 + 25) = {21.02432161691219, -0.5046533830878156, 0.1};
Point(p16 + 26) = {21.18245283104364, -0.639710198846382, 0.1};
Point(p16 + 27) = {21.35976472824867, -0.7483670692002069, 0.1};
Point(p16 + 28) = {21.55189130115362, -0.8279485013897012, 0.1};
Point(p16 + 29) = {21.75410175590204, -0.876494936438728, 0.1};
Point(p16 + 30) = {21.961417, -0.892811, 0.1};
Point(p16 + 31) = {22.16873224409796, -0.8764949364387282, 0.1};
Point(p16 + 32) = {22.37094269884638, -0.8279485013897012, 0.1};
Point(p16 + 33) = {22.56306927175133, -0.7483670692002073, 0.1};
Point(p16 + 34) = {22.74038116895636, -0.6397101988463825, 0.1};
Point(p16 + 35) = {22.89851238308782, -0.5046533830878159, 0.1};
Point(p16 + 36) = {23.03356919884638, -0.346522168956357, 0.1};
Point(p16 + 37) = {23.14222606920021, -0.1692102717513339, 0.1};
Point(p16 + 38) = {23.2218075013897, 0.02291630115361754, 0.1};
Point(p16 + 39) = {23.27035393643873, 0.2251267559020386, 0.1};
Spline(16) = {11, p16 + 1, p16 + 2, p16 + 3, p16 + 4, p16 + 5, p16 + 6, p16 + 7, p16 + 8, p16 + 9, p16 + 10, p16 + 11, p16 + 12, p16 + 13, p16 + 14, p16 + 15, p16 + 16, p16 + 17, p16 + 18, p16 + 19, p16 + 20, p16 + 21, p16 + 22, p16 + 23, p16 + 24, p16 + 25, p16 + 26, p16 + 27, p16 + 28, p16 + 29, p16 + 30, p16 + 31, p16 + 32, p16 + 33, p16 + 34, p16 + 35, p16 + 36, p16 + 37, p16 + 38, p16 + 39, 11};
Line(17) = {12, 11};
p18 = newp;
Point(p18 + 1) = {23.27035393643873, 0.6397572440979611, 0};
Point(p18 + 2) = {23.2218075013897, 0.8419676988463822, 0};
Point(p18 + 3) = {23.14222606920021, 1.034094271751334, 0};
Point(p18 + 4) = {23.03356919884638, 1.211406168956357, 0};
Point(p18 + 5) = {22.89851238308782, 1.369537383087815, 0};
Point(p18 + 6) = {22.74038116895636, 1.504594198846382, 0};
Point(p18 + 7) = {22.56306927175133, 1.613251069200207, 0};
Point(p18 + 8) = {22.37094269884638, 1.692832501389701, 0};
Point(p18 + 9) = {22.16873224409796, 1.741378936438728, 0};
Point(p18 + 10) = {21.961417, 1.757695, 0};
Point(p18 + 11) = {21.75410175590204, 1.741378936438728, 0};
Point(p18 + 12) = {21.55189130115362, 1.692832501389701, 0};
Point(p18 + 13) = {21.35976472824867, 1.613251069200207, 0};
Point(p18 + 14) = {21.18245283104364, 1.504594198846382, 0};
Point(p18 + 15) = {21.02432161691219, 1.369537383087816, 0};
Point(p18 + 16) = {20.88926480115362, 1.211406168956357, 0};
Point(p18 + 17) = {20.78060793079979, 1.034094271751334, 0};
Point(p18 + 18) = {20.7010264986103, 0.8419676988463822, 0};
Point(p18 + 19) = {20.65248006356127, 0.6397572440979612, 0};
Point(p18 + 20) = {20.636164, 0.4324420000000002, 0};
Point(p18 + 21) = {20.65248006356127, 0.2251267559020391, 0};
Point(p18 + 22) = {20.7010264986103, 0.02291630115361737, 0};
Point(p18 + 23) = {20.78060793079979, -0.169210271751333, 0};
Point(p18 + 24) = {20.88926480115362, -0.3465221689563568, 0};
Point(p18 + 25) = {21.02432161691219, -0.5046533830878156, 0};
Point(p18 + 26) = {21.18245283104364, -0.639710198846382, 0};
Point(p18 + 27) = {21.35976472824867, -0.7483670692002069, 0};
Point(p18 + 28) = {21.55189130115362, -0.8279485013897012, 0};
Point(p18 + 29) = {21.75410175590204, -0.876494936438728, 0};
Point(p18 + 30) = {21.961417, -0.892811, 0};
Point(p18 + 31) = {22.16873224409796, -0.8764949364387282, 0};
Point(p18 + 32) = {22.37094269884638, -0.8279485013897012, 0};
Point(p18 + 33) = {22.56306927175133, -0.7483670692002073, 0};
Point(p18 + 34) = {22.74038116895636, -0.6397101988463825, 0};
Point(p18 + 35) = {22.89851238308782, -0.5046533830878159, 0};
Point(p18 + 36) = {23.03356919884638, -0.346522168956357, 0};
Point(p18 + 37) = {23.14222606920021, -0.1692102717513339, 0};
Point(p18 + 38) = {23.2218075013897, 0.02291630115361754, 0};
Point(p18 + 39) = {23.27035393643873, 0.2251267559020386, 0};
Spline(18) = {12, p18 + 1, p18 + 2, p18 + 3, p18 + 4, p18 + 5, p18 + 6, p18 + 7, p18 + 8, p18 + 9, p18 + 10, p18 + 11, p18 + 12, p18 + 13, p18 + 14, p18 + 15, p18 + 16, p18 + 17, p18 + 18, p18 + 19, p18 + 20, p18 + 21, p18 + 22, p18 + 23, p18 + 24, p18 + 25, p18 + 26, p18 + 27, p18 + 28, p18 + 29, p18 + 30, p18 + 31, p18 + 32, p18 + 33, p18 + 34, p18 + 35, p18 + 36, p18 + 37, p18 + 38, p18 + 39, 12};
Line(19) = {14, 13};
Line(20) = {13, 15};
Line(21) = {16, 15};
Line(22) = {14, 16};
Line(23) = {14, 17};
Line(24) = {17, 18};
Line(25) = {13, 18};
Line(26) = {15, 19};
Line(27) = {18, 19};
Line(28) = {16, 20};
Line(29) = {20, 19};
Line(30) = {17, 20};
Curve Loop(7) = {-13, -14, 15, 14};
Surface(7) = {7};
Curve Loop(8) = {13};
Plane Surface(8) = {8};
Curve Loop(9) = {15};
Plane Surface(9) = {9};
Curve Loop(10) = {-16, -17, 18, 17};
Surface(10) = {10};
Curve Loop(11) = {16};
Plane Surface(11) = {11};
Curve Loop(12) = {18};
Plane Surface(12) = {12};
Curve Loop(13) = {-19, 22, 21, -20};
Plane Surface(13) = {13};
Curve Loop(14) = {-23, 19, 25, -24};
Plane Surface(14) = {14};
Curve Loop(15) = {-20, 25, 27, -26, -13, -16};
Plane Surface(15) = {15};
Curve Loop(16) = {-28, 21, 26, -29};
Plane Surface(16) = {16};
Curve Loop(17) = {-22, 23, 30, -28, -15, -18};
Plane Surface(17) = {17};
Curve Loop(18) = {-24, 30, 29, -27};
Plane Surface(18) = {18};
Surface Loop(1) = {13, 14, 15, 16, 17, 18, 7, 10};
Volume(1) = {1};
Surface Loop(2) = {7, 8, 9};
Volume(2) = {2};
Surface Loop(3) = {10, 11, 12};
Volume(3) = {3};
Physical Surface("WALLS") = {13, 18};
Physical Surface("LOAD") = {8, 11};
Physical Surface("BORDER") = {7, 9, 10, 12, 14, 15, 16, 17};
Physical Volume("SOLID") = {1, 2, 3};
