cl__1 = 0.06290999999999999;
cl__2 = 0.06009;
cl__3 = 0.859493;
cl__4 = 0.856434;
cl__5 = 1.595387;
cl__6 = 1.388401;
Point(9) = {27.765907, 1.370889, 0.1, cl__1};
Point(10) = {27.765907, 1.370889, 0, cl__1};
Point(11) = {7.825908, 0.8677909999999999, 0.1, cl__2};
Point(12) = {7.825908, 0.8677909999999999, 0, cl__2};
Point(13) = {0.799755, -3.25854, 1, cl__3};
Point(14) = {0.799755, -3.25854, 0, cl__3};
Point(15) = {0.799755, 4.947603000000001, 1, cl__4};
Point(16) = {0.799755, 4.947603000000001, 0, cl__4};
Point(17) = {36.218424, -3.25854, 0, cl__5};
Point(18) = {36.218424, -3.25854, 1, cl__5};
Point(19) = {36.218424, 4.947603000000001, 1, cl__6};
Point(20) = {36.218424, 4.947603000000001, 0, cl__6};
p13 = newp;
Point(p13 + 1) = {27.75816177200338, 1.469301452653414, 0.1};
Point(p13 + 2) = {27.73511680123173, 1.565290664110296, 0.1};
Point(p13 + 3) = {27.69733953134733, 1.65649306141465, 0.1};
Point(p13 + 4) = {27.6457601641103, 1.740662938861438, 0.1};
Point(p13 + 5) = {27.58164875472411, 1.815727754724114, 0.1};
Point(p13 + 6) = {27.50658393886144, 1.879839164110296, 0.1};
Point(p13 + 7) = {27.42241406141465, 1.93141853134733, 0.1};
Point(p13 + 8) = {27.3312116641103, 1.969195801231732, 0.1};
Point(p13 + 9) = {27.23522245265341, 1.992240772003379, 0.1};
Point(p13 + 10) = {27.13681, 1.999986, 0.1};
Point(p13 + 11) = {27.03839754734659, 1.992240772003379, 0.1};
Point(p13 + 12) = {26.94240833588971, 1.969195801231732, 0.1};
Point(p13 + 13) = {26.85120593858535, 1.93141853134733, 0.1};
Point(p13 + 14) = {26.76703606113856, 1.879839164110297, 0.1};
Point(p13 + 15) = {26.69197124527589, 1.815727754724114, 0.1};
Point(p13 + 16) = {26.6278598358897, 1.740662938861438, 0.1};
Point(p13 + 17) = {26.57628046865267, 1.65649306141465, 0.1};
Point(p13 + 18) = {26.53850319876827, 1.565290664110296, 0.1};
Point(p13 + 19) = {26.51545822799662, 1.469301452653414, 0.1};
Point(p13 + 20) = {26.507713, 1.370889, 0.1};
Point(p13 + 21) = {26.51545822799662, 1.272476547346586, 0.1};
Point(p13 + 22) = {26.53850319876827, 1.176487335889703, 0.1};
Point(p13 + 23) = {26.57628046865267, 1.085284938585351, 0.1};
Point(p13 + 24) = {26.6278598358897, 1.001115061138562, 0.1};
Point(p13 + 25) = {26.69197124527589, 0.9260502452758865, 0.1};
Point(p13 + 26) = {26.76703606113856, 0.8619388358897038, 0.1};
Point(p13 + 27) = {26.85120593858535, 0.8103594686526704, 0.1};
Point(p13 + 28) = {26.94240833588971, 0.7725821987682678, 0.1};
Point(p13 + 29) = {27.03839754734659, 0.7495372279966207, 0.1};
Point(p13 + 30) = {27.13681, 0.741792, 0.1};
Point(p13 + 31) = {27.23522245265341, 0.7495372279966206, 0.1};
Point(p13 + 32) = {27.3312116641103, 0.7725821987682677, 0.1};
Point(p13 + 33) = {27.42241406141465, 0.8103594686526703, 0.1};
Point(p13 + 34) = {27.50658393886144, 0.8619388358897037, 0.1};
Point(p13 + 35) = {27.58164875472411, 0.9260502452758864, 0.1};
Point(p13 + 36) = {27.6457601641103, 1.001115061138562, 0.1};
Point(p13 + 37) = {27.69733953134733, 1.08528493858535, 0.1};
Point(p13 + 38) = {27.73511680123173, 1.176487335889704, 0.1};
Point(p13 + 39) = {27.75816177200338, 1.272476547346586, 0.1};
Spline(13) = {9, p13 + 1, p13 + 2, p13 + 3, p13 + 4, p13 + 5, p13 + 6, p13 + 7, p13 + 8, p13 + 9, p13 + 10, p13 + 11, p13 + 12, p13 + 13, p13 + 14, p13 + 15, p13 + 16, p13 + 17, p13 + 18, p13 + 19, p13 + 20, p13 + 21, p13 + 22, p13 + 23, p13 + 24, p13 + 25, p13 + 26, p13 + 27, p13 + 28, p13 + 29, p13 + 30, p13 + 31, p13 + 32, p13 + 33, p13 + 34, p13 + 35, p13 + 36, p13 + 37, p13 + 38, p13 + 39, 9};
Line(14) = {10, 9};
p15 = newp;
Point(p15 + 1) = {27.75816177200338, 1.469301452653414, 0};
Point(p15 + 2) = {27.73511680123173, 1.565290664110296, 0};
Point(p15 + 3) = {27.69733953134733, 1.65649306141465, 0};
Point(p15 + 4) = {27.6457601641103, 1.740662938861438, 0};
Point(p15 + 5) = {27.58164875472411, 1.815727754724114, 0};
Point(p15 + 6) = {27.50658393886144, 1.879839164110296, 0};
Point(p15 + 7) = {27.42241406141465, 1.93141853134733, 0};
Point(p15 + 8) = {27.3312116641103, 1.969195801231732, 0};
Point(p15 + 9) = {27.23522245265341, 1.992240772003379, 0};
Point(p15 + 10) = {27.13681, 1.999986, 0};
Point(p15 + 11) = {27.03839754734659, 1.992240772003379, 0};
Point(p15 + 12) = {26.94240833588971, 1.969195801231732, 0};
Point(p15 + 13) = {26.85120593858535, 1.93141853134733, 0};
Point(p15 + 14) = {26.76703606113856, 1.879839164110297, 0};
Point(p15 + 15) = {26.69197124527589, 1.815727754724114, 0};
Point(p15 + 16) = {26.6278598358897, 1.740662938861438, 0};
Point(p15 + 17) = {26.57628046865267, 1.65649306141465, 0};
Point(p15 + 18) = {26.53850319876827, 1.565290664110296, 0};
Point(p15 + 19) = {26.51545822799662, 1.469301452653414, 0};
Point(p15 + 20) = {26.507713, 1.370889, 0};
Point(p15 + 21) = {26.51545822799662, 1.272476547346586, 0};
Point(p15 + 22) = {26.53850319876827, 1.176487335889703, 0};
Point(p15 + 23) = {26.57628046865267, 1.085284938585351, 0};
Point(p15 + 24) = {26.6278598358897, 1.001115061138562, 0};
Point(p15 + 25) = {26.69197124527589, 0.9260502452758865, 0};
Point(p15 + 26) = {26.76703606113856, 0.8619388358897038, 0};
Point(p15 + 27) = {26.85120593858535, 0.8103594686526704, 0};
Point(p15 + 28) = {26.94240833588971, 0.7725821987682678, 0};
Point(p15 + 29) = {27.03839754734659, 0.7495372279966207, 0};
Point(p15 + 30) = {27.13681, 0.741792, 0};
Point(p15 + 31) = {27.23522245265341, 0.7495372279966206, 0};
Point(p15 + 32) = {27.3312116641103, 0.7725821987682677, 0};
Point(p15 + 33) = {27.42241406141465, 0.8103594686526703, 0};
Point(p15 + 34) = {27.50658393886144, 0.8619388358897037, 0};
Point(p15 + 35) = {27.58164875472411, 0.9260502452758864, 0};
Point(p15 + 36) = {27.6457601641103, 1.001115061138562, 0};
Point(p15 + 37) = {27.69733953134733, 1.08528493858535, 0};
Point(p15 + 38) = {27.73511680123173, 1.176487335889704, 0};
Point(p15 + 39) = {27.75816177200338, 1.272476547346586, 0};
Spline(15) = {10, p15 + 1, p15 + 2, p15 + 3, p15 + 4, p15 + 5, p15 + 6, p15 + 7, p15 + 8, p15 + 9, p15 + 10, p15 + 11, p15 + 12, p15 + 13, p15 + 14, p15 + 15, p15 + 16, p15 + 17, p15 + 18, p15 + 19, p15 + 20, p15 + 21, p15 + 22, p15 + 23, p15 + 24, p15 + 25, p15 + 26, p15 + 27, p15 + 28, p15 + 29, p15 + 30, p15 + 31, p15 + 32, p15 + 33, p15 + 34, p15 + 35, p15 + 36, p15 + 37, p15 + 38, p15 + 39, 10};
p16 = newp;
Point(p16 + 1) = {7.818509874616981, 0.9617930957805348, 0.1};
Point(p16 + 2) = {7.796497664867823, 1.053480547987883, 0.1};
Point(p16 + 3) = {7.760413384410887, 1.140595707255493, 0.1};
Point(p16 + 4) = {7.711145547987884, 1.220993509243556, 0.1};
Point(p16 + 5) = {7.649907293242121, 1.292694293242121, 0.1};
Point(p16 + 6) = {7.578206509243556, 1.353932547987883, 0.1};
Point(p16 + 7) = {7.497808707255492, 1.403200384410887, 0.1};
Point(p16 + 8) = {7.410693547987884, 1.439284664867823, 0.1};
Point(p16 + 9) = {7.319006095780535, 1.461296874616981, 0.1};
Point(p16 + 10) = {7.225004, 1.468695, 0.1};
Point(p16 + 11) = {7.131001904219465, 1.461296874616981, 0.1};
Point(p16 + 12) = {7.039314452012117, 1.439284664867823, 0.1};
Point(p16 + 13) = {6.952199292744508, 1.403200384410887, 0.1};
Point(p16 + 14) = {6.871801490756444, 1.353932547987883, 0.1};
Point(p16 + 15) = {6.800100706757879, 1.292694293242121, 0.1};
Point(p16 + 16) = {6.738862452012117, 1.220993509243556, 0.1};
Point(p16 + 17) = {6.689594615589114, 1.140595707255493, 0.1};
Point(p16 + 18) = {6.653510335132177, 1.053480547987883, 0.1};
Point(p16 + 19) = {6.63149812538302, 0.961793095780535, 0.1};
Point(p16 + 20) = {6.6241, 0.8677910000000001, 0.1};
Point(p16 + 21) = {6.631498125383019, 0.7737889042194651, 0.1};
Point(p16 + 22) = {6.653510335132177, 0.6821014520121164, 0.1};
Point(p16 + 23) = {6.689594615589114, 0.5949862927445076, 0.1};
Point(p16 + 24) = {6.738862452012117, 0.5145884907564438, 0.1};
Point(p16 + 25) = {6.800100706757879, 0.4428877067578789, 0.1};
Point(p16 + 26) = {6.871801490756444, 0.3816494520121166, 0.1};
Point(p16 + 27) = {6.952199292744507, 0.3323816155891131, 0.1};
Point(p16 + 28) = {7.039314452012117, 0.296297335132177, 0.1};
Point(p16 + 29) = {7.131001904219465, 0.2742851253830194, 0.1};
Point(p16 + 30) = {7.225004, 0.266887, 0.1};
Point(p16 + 31) = {7.319006095780535, 0.2742851253830193, 0.1};
Point(p16 + 32) = {7.410693547987884, 0.2962973351321769, 0.1};
Point(p16 + 33) = {7.497808707255492, 0.3323816155891129, 0.1};
Point(p16 + 34) = {7.578206509243556, 0.3816494520121165, 0.1};
Point(p16 + 35) = {7.649907293242121, 0.4428877067578788, 0.1};
Point(p16 + 36) = {7.711145547987884, 0.5145884907564436, 0.1};
Point(p16 + 37) = {7.760413384410887, 0.5949862927445073, 0.1};
Point(p16 + 38) = {7.796497664867823, 0.6821014520121165, 0.1};
Point(p16 + 39) = {7.81850987461698, 0.773788904219465, 0.1};
Spline(16) = {11, p16 + 1, p16 + 2, p16 + 3, p16 + 4, p16 + 5, p16 + 6, p16 + 7, p16 + 8, p16 + 9, p16 + 10, p16 + 11, p16 + 12, p16 + 13, p16 + 14, p16 + 15, p16 + 16, p16 + 17, p16 + 18, p16 + 19, p16 + 20, p16 + 21, p16 + 22, p16 + 23, p16 + 24, p16 + 25, p16 + 26, p16 + 27, p16 + 28, p16 + 29, p16 + 30, p16 + 31, p16 + 32, p16 + 33, p16 + 34, p16 + 35, p16 + 36, p16 + 37, p16 + 38, p16 + 39, 11};
Line(17) = {12, 11};
p18 = newp;
Point(p18 + 1) = {7.818509874616981, 0.9617930957805348, 0};
Point(p18 + 2) = {7.796497664867823, 1.053480547987883, 0};
Point(p18 + 3) = {7.760413384410887, 1.140595707255493, 0};
Point(p18 + 4) = {7.711145547987884, 1.220993509243556, 0};
Point(p18 + 5) = {7.649907293242121, 1.292694293242121, 0};
Point(p18 + 6) = {7.578206509243556, 1.353932547987883, 0};
Point(p18 + 7) = {7.497808707255492, 1.403200384410887, 0};
Point(p18 + 8) = {7.410693547987884, 1.439284664867823, 0};
Point(p18 + 9) = {7.319006095780535, 1.461296874616981, 0};
Point(p18 + 10) = {7.225004, 1.468695, 0};
Point(p18 + 11) = {7.131001904219465, 1.461296874616981, 0};
Point(p18 + 12) = {7.039314452012117, 1.439284664867823, 0};
Point(p18 + 13) = {6.952199292744508, 1.403200384410887, 0};
Point(p18 + 14) = {6.871801490756444, 1.353932547987883, 0};
Point(p18 + 15) = {6.800100706757879, 1.292694293242121, 0};
Point(p18 + 16) = {6.738862452012117, 1.220993509243556, 0};
Point(p18 + 17) = {6.689594615589114, 1.140595707255493, 0};
Point(p18 + 18) = {6.653510335132177, 1.053480547987883, 0};
Point(p18 + 19) = {6.63149812538302, 0.961793095780535, 0};
Point(p18 + 20) = {6.6241, 0.8677910000000001, 0};
Point(p18 + 21) = {6.631498125383019, 0.7737889042194651, 0};
Point(p18 + 22) = {6.653510335132177, 0.6821014520121164, 0};
Point(p18 + 23) = {6.689594615589114, 0.5949862927445076, 0};
Point(p18 + 24) = {6.738862452012117, 0.5145884907564438, 0};
Point(p18 + 25) = {6.800100706757879, 0.4428877067578789, 0};
Point(p18 + 26) = {6.871801490756444, 0.3816494520121166, 0};
Point(p18 + 27) = {6.952199292744507, 0.3323816155891131, 0};
Point(p18 + 28) = {7.039314452012117, 0.296297335132177, 0};
Point(p18 + 29) = {7.131001904219465, 0.2742851253830194, 0};
Point(p18 + 30) = {7.225004, 0.266887, 0};
Point(p18 + 31) = {7.319006095780535, 0.2742851253830193, 0};
Point(p18 + 32) = {7.410693547987884, 0.2962973351321769, 0};
Point(p18 + 33) = {7.497808707255492, 0.3323816155891129, 0};
Point(p18 + 34) = {7.578206509243556, 0.3816494520121165, 0};
Point(p18 + 35) = {7.649907293242121, 0.4428877067578788, 0};
Point(p18 + 36) = {7.711145547987884, 0.5145884907564436, 0};
Point(p18 + 37) = {7.760413384410887, 0.5949862927445073, 0};
Point(p18 + 38) = {7.796497664867823, 0.6821014520121165, 0};
Point(p18 + 39) = {7.81850987461698, 0.773788904219465, 0};
Spline(18) = {12, p18 + 1, p18 + 2, p18 + 3, p18 + 4, p18 + 5, p18 + 6, p18 + 7, p18 + 8, p18 + 9, p18 + 10, p18 + 11, p18 + 12, p18 + 13, p18 + 14, p18 + 15, p18 + 16, p18 + 17, p18 + 18, p18 + 19, p18 + 20, p18 + 21, p18 + 22, p18 + 23, p18 + 24, p18 + 25, p18 + 26, p18 + 27, p18 + 28, p18 + 29, p18 + 30, p18 + 31, p18 + 32, p18 + 33, p18 + 34, p18 + 35, p18 + 36, p18 + 37, p18 + 38, p18 + 39, 12};
Line(19) = {14, 13};
Line(20) = {13, 15};
Line(21) = {16, 15};
Line(22) = {14, 16};
Line(23) = {14, 17};
Line(24) = {17, 18};
Line(25) = {13, 18};
Line(26) = {15, 19};
Line(27) = {18, 19};
Line(28) = {16, 20};
Line(29) = {20, 19};
Line(30) = {17, 20};
Curve Loop(7) = {-13, -14, 15, 14};
Surface(7) = {7};
Curve Loop(8) = {13};
Plane Surface(8) = {8};
Curve Loop(9) = {15};
Plane Surface(9) = {9};
Curve Loop(10) = {-16, -17, 18, 17};
Surface(10) = {10};
Curve Loop(11) = {16};
Plane Surface(11) = {11};
Curve Loop(12) = {18};
Plane Surface(12) = {12};
Curve Loop(13) = {-19, 22, 21, -20};
Plane Surface(13) = {13};
Curve Loop(14) = {-23, 19, 25, -24};
Plane Surface(14) = {14};
Curve Loop(15) = {-20, 25, 27, -26};
Plane Surface(15) = {15};
Curve Loop(16) = {-28, 21, 26, -29};
Plane Surface(16) = {16};
Curve Loop(17) = {-22, 23, 30, -28, -18, -15};
Plane Surface(17) = {17};
Curve Loop(18) = {-24, 30, 29, -27};
Plane Surface(18) = {18};
Surface Loop(1) = {13, 14, 15, 16, 17, 18, 10, 7, 11, 8};
Volume(1) = {1};
Surface Loop(2) = {7, 8, 9};
Volume(2) = {2};
Surface Loop(3) = {10, 11, 12};
Volume(3) = {3};
Physical Surface("WALLS") = {13, 18};
Physical Surface("LOAD") = {8, 11};
Physical Surface("BORDER") = {7, 9, 10, 12, 14, 15, 16, 17};
Physical Volume("SOLID") = {1, 2, 3};
