cl__1 = 0.087313;
cl__2 = 0.105507;
cl__3 = 5.466829;
cl__4 = 5.062613;
cl__5 = 0.282772;
cl__6 = 0.238525;
Point(9) = {30.108209, 2.244038, 0.1, cl__1};
Point(10) = {30.108209, 2.244038, 0, cl__1};
Point(11) = {35.969646, 0.5237569999999998, 0.1, cl__2};
Point(12) = {35.969646, 0.5237569999999998, 0, cl__2};
Point(13) = {0.960134, -4.748636, 0.1, cl__3};
Point(14) = {0.960134, -4.748636, 0, cl__3};
Point(15) = {0.960134, 5.036786, 0.1, cl__4};
Point(16) = {0.960134, 5.036786, 0, cl__4};
Point(17) = {36.77289, -4.748636, 0, cl__5};
Point(18) = {36.77289, -4.748636, 0.1, cl__5};
Point(19) = {36.77289, 5.036786, 0.1, cl__6};
Point(20) = {36.77289, 5.036786, 0, cl__6};
p13 = newp;
Point(p13 + 1) = {30.09745930851217, 2.380625780895042, 0.1};
Point(p13 + 2) = {30.0654749271293, 2.513850317315592, 0.1};
Point(p13 + 3) = {30.01304341747112, 2.640431179028091, 0.1};
Point(p13 + 4) = {29.94145581731559, 2.75725152511938, 0.1};
Point(p13 + 5) = {29.85247485096419, 2.861434850964192, 0.1};
Point(p13 + 6) = {29.74829152511938, 2.950415817315593, 0.1};
Point(p13 + 7) = {29.63147117902809, 3.022003417471114, 0.1};
Point(p13 + 8) = {29.50489031731559, 3.074434927129304, 0.1};
Point(p13 + 9) = {29.37166578089504, 3.106419308512173, 0.1};
Point(p13 + 10) = {29.235078, 3.117169, 0.1};
Point(p13 + 11) = {29.09849021910496, 3.106419308512173, 0.1};
Point(p13 + 12) = {28.96526568268441, 3.074434927129304, 0.1};
Point(p13 + 13) = {28.83868482097191, 3.022003417471114, 0.1};
Point(p13 + 14) = {28.72186447488062, 2.950415817315593, 0.1};
Point(p13 + 15) = {28.61768114903581, 2.861434850964192, 0.1};
Point(p13 + 16) = {28.52870018268441, 2.75725152511938, 0.1};
Point(p13 + 17) = {28.45711258252889, 2.640431179028091, 0.1};
Point(p13 + 18) = {28.4046810728707, 2.513850317315593, 0.1};
Point(p13 + 19) = {28.37269669148783, 2.380625780895042, 0.1};
Point(p13 + 20) = {28.361947, 2.244038, 0.1};
Point(p13 + 21) = {28.37269669148783, 2.107450219104959, 0.1};
Point(p13 + 22) = {28.4046810728707, 1.974225682684408, 0.1};
Point(p13 + 23) = {28.45711258252889, 1.84764482097191, 0.1};
Point(p13 + 24) = {28.52870018268441, 1.730824474880621, 0.1};
Point(p13 + 25) = {28.61768114903581, 1.626641149035809, 0.1};
Point(p13 + 26) = {28.72186447488062, 1.537660182684408, 0.1};
Point(p13 + 27) = {28.83868482097191, 1.466072582528887, 0.1};
Point(p13 + 28) = {28.96526568268441, 1.413641072870697, 0.1};
Point(p13 + 29) = {29.09849021910496, 1.381656691487827, 0.1};
Point(p13 + 30) = {29.235078, 1.370907, 0.1};
Point(p13 + 31) = {29.37166578089504, 1.381656691487827, 0.1};
Point(p13 + 32) = {29.50489031731559, 1.413641072870696, 0.1};
Point(p13 + 33) = {29.63147117902809, 1.466072582528886, 0.1};
Point(p13 + 34) = {29.74829152511938, 1.537660182684408, 0.1};
Point(p13 + 35) = {29.85247485096419, 1.626641149035809, 0.1};
Point(p13 + 36) = {29.94145581731559, 1.730824474880621, 0.1};
Point(p13 + 37) = {30.01304341747112, 1.84764482097191, 0.1};
Point(p13 + 38) = {30.0654749271293, 1.974225682684408, 0.1};
Point(p13 + 39) = {30.09745930851217, 2.107450219104958, 0.1};
Spline(13) = {9, p13 + 1, p13 + 2, p13 + 3, p13 + 4, p13 + 5, p13 + 6, p13 + 7, p13 + 8, p13 + 9, p13 + 10, p13 + 11, p13 + 12, p13 + 13, p13 + 14, p13 + 15, p13 + 16, p13 + 17, p13 + 18, p13 + 19, p13 + 20, p13 + 21, p13 + 22, p13 + 23, p13 + 24, p13 + 25, p13 + 26, p13 + 27, p13 + 28, p13 + 29, p13 + 30, p13 + 31, p13 + 32, p13 + 33, p13 + 34, p13 + 35, p13 + 36, p13 + 37, p13 + 38, p13 + 39, 9};
Line(14) = {10, 9};
p15 = newp;
Point(p15 + 1) = {30.09745930851217, 2.380625780895042, 0};
Point(p15 + 2) = {30.0654749271293, 2.513850317315592, 0};
Point(p15 + 3) = {30.01304341747112, 2.640431179028091, 0};
Point(p15 + 4) = {29.94145581731559, 2.75725152511938, 0};
Point(p15 + 5) = {29.85247485096419, 2.861434850964192, 0};
Point(p15 + 6) = {29.74829152511938, 2.950415817315593, 0};
Point(p15 + 7) = {29.63147117902809, 3.022003417471114, 0};
Point(p15 + 8) = {29.50489031731559, 3.074434927129304, 0};
Point(p15 + 9) = {29.37166578089504, 3.106419308512173, 0};
Point(p15 + 10) = {29.235078, 3.117169, 0};
Point(p15 + 11) = {29.09849021910496, 3.106419308512173, 0};
Point(p15 + 12) = {28.96526568268441, 3.074434927129304, 0};
Point(p15 + 13) = {28.83868482097191, 3.022003417471114, 0};
Point(p15 + 14) = {28.72186447488062, 2.950415817315593, 0};
Point(p15 + 15) = {28.61768114903581, 2.861434850964192, 0};
Point(p15 + 16) = {28.52870018268441, 2.75725152511938, 0};
Point(p15 + 17) = {28.45711258252889, 2.640431179028091, 0};
Point(p15 + 18) = {28.4046810728707, 2.513850317315593, 0};
Point(p15 + 19) = {28.37269669148783, 2.380625780895042, 0};
Point(p15 + 20) = {28.361947, 2.244038, 0};
Point(p15 + 21) = {28.37269669148783, 2.107450219104959, 0};
Point(p15 + 22) = {28.4046810728707, 1.974225682684408, 0};
Point(p15 + 23) = {28.45711258252889, 1.84764482097191, 0};
Point(p15 + 24) = {28.52870018268441, 1.730824474880621, 0};
Point(p15 + 25) = {28.61768114903581, 1.626641149035809, 0};
Point(p15 + 26) = {28.72186447488062, 1.537660182684408, 0};
Point(p15 + 27) = {28.83868482097191, 1.466072582528887, 0};
Point(p15 + 28) = {28.96526568268441, 1.413641072870697, 0};
Point(p15 + 29) = {29.09849021910496, 1.381656691487827, 0};
Point(p15 + 30) = {29.235078, 1.370907, 0};
Point(p15 + 31) = {29.37166578089504, 1.381656691487827, 0};
Point(p15 + 32) = {29.50489031731559, 1.413641072870696, 0};
Point(p15 + 33) = {29.63147117902809, 1.466072582528886, 0};
Point(p15 + 34) = {29.74829152511938, 1.537660182684408, 0};
Point(p15 + 35) = {29.85247485096419, 1.626641149035809, 0};
Point(p15 + 36) = {29.94145581731559, 1.730824474880621, 0};
Point(p15 + 37) = {30.01304341747112, 1.84764482097191, 0};
Point(p15 + 38) = {30.0654749271293, 1.974225682684408, 0};
Point(p15 + 39) = {30.09745930851217, 2.107450219104958, 0};
Spline(15) = {10, p15 + 1, p15 + 2, p15 + 3, p15 + 4, p15 + 5, p15 + 6, p15 + 7, p15 + 8, p15 + 9, p15 + 10, p15 + 11, p15 + 12, p15 + 13, p15 + 14, p15 + 15, p15 + 16, p15 + 17, p15 + 18, p15 + 19, p15 + 20, p15 + 21, p15 + 22, p15 + 23, p15 + 24, p15 + 25, p15 + 26, p15 + 27, p15 + 28, p15 + 29, p15 + 30, p15 + 31, p15 + 32, p15 + 33, p15 + 34, p15 + 35, p15 + 36, p15 + 37, p15 + 38, p15 + 39, 10};
p16 = newp;
Point(p16 + 1) = {35.95665633751171, 0.6888063110299965, 0.1};
Point(p16 + 2) = {35.91800719864752, 0.8497915602551758, 0.1};
Point(p16 + 3) = {35.85465025347542, 1.002748756560204, 0.1};
Point(p16 + 4) = {35.76814556025517, 1.14391158613622, 0.1};
Point(p16 + 5) = {35.66062315162649, 1.269804151626491, 0.1};
Point(p16 + 6) = {35.53473058613621, 1.377326560255176, 0.1};
Point(p16 + 7) = {35.3935677565602, 1.463831253475421, 0.1};
Point(p16 + 8) = {35.24061056025517, 1.527188198647528, 0.1};
Point(p16 + 9) = {35.07962531102999, 1.565837337511712, 0.1};
Point(p16 + 10) = {34.914576, 1.578827, 0.1};
Point(p16 + 11) = {34.74952668897, 1.565837337511712, 0.1};
Point(p16 + 12) = {34.58854143974482, 1.527188198647528, 0.1};
Point(p16 + 13) = {34.43558424343979, 1.463831253475421, 0.1};
Point(p16 + 14) = {34.29442141386378, 1.377326560255176, 0.1};
Point(p16 + 15) = {34.16852884837351, 1.269804151626491, 0.1};
Point(p16 + 16) = {34.06100643974482, 1.14391158613622, 0.1};
Point(p16 + 17) = {33.97450174652457, 1.002748756560204, 0.1};
Point(p16 + 18) = {33.91114480135247, 0.8497915602551759, 0.1};
Point(p16 + 19) = {33.87249566248828, 0.6888063110299965, 0.1};
Point(p16 + 20) = {33.859506, 0.5237570000000001, 0.1};
Point(p16 + 21) = {33.87249566248828, 0.3587076889700038, 0.1};
Point(p16 + 22) = {33.91114480135247, 0.197722439744824, 0.1};
Point(p16 + 23) = {33.97450174652457, 0.04476524343979693, 0.1};
Point(p16 + 24) = {34.06100643974482, -0.0963975861362194, 0.1};
Point(p16 + 25) = {34.16852884837351, -0.2222901516264906, 0.1};
Point(p16 + 26) = {34.29442141386378, -0.3298125602551756, 0.1};
Point(p16 + 27) = {34.43558424343979, -0.4163172534754211, 0.1};
Point(p16 + 28) = {34.58854143974482, -0.4796741986475275, 0.1};
Point(p16 + 29) = {34.74952668897, -0.5183233375117118, 0.1};
Point(p16 + 30) = {34.914576, -0.5313129999999999, 0.1};
Point(p16 + 31) = {35.07962531102999, -0.518323337511712, 0.1};
Point(p16 + 32) = {35.24061056025517, -0.4796741986475277, 0.1};
Point(p16 + 33) = {35.3935677565602, -0.4163172534754214, 0.1};
Point(p16 + 34) = {35.53473058613621, -0.3298125602551759, 0.1};
Point(p16 + 35) = {35.66062315162649, -0.2222901516264908, 0.1};
Point(p16 + 36) = {35.76814556025517, -0.09639758613621974, 0.1};
Point(p16 + 37) = {35.85465025347542, 0.04476524343979621, 0.1};
Point(p16 + 38) = {35.91800719864752, 0.1977224397448241, 0.1};
Point(p16 + 39) = {35.95665633751171, 0.3587076889700034, 0.1};
Spline(16) = {11, p16 + 1, p16 + 2, p16 + 3, p16 + 4, p16 + 5, p16 + 6, p16 + 7, p16 + 8, p16 + 9, p16 + 10, p16 + 11, p16 + 12, p16 + 13, p16 + 14, p16 + 15, p16 + 16, p16 + 17, p16 + 18, p16 + 19, p16 + 20, p16 + 21, p16 + 22, p16 + 23, p16 + 24, p16 + 25, p16 + 26, p16 + 27, p16 + 28, p16 + 29, p16 + 30, p16 + 31, p16 + 32, p16 + 33, p16 + 34, p16 + 35, p16 + 36, p16 + 37, p16 + 38, p16 + 39, 11};
Line(17) = {12, 11};
p18 = newp;
Point(p18 + 1) = {35.95665633751171, 0.6888063110299965, 0};
Point(p18 + 2) = {35.91800719864752, 0.8497915602551758, 0};
Point(p18 + 3) = {35.85465025347542, 1.002748756560204, 0};
Point(p18 + 4) = {35.76814556025517, 1.14391158613622, 0};
Point(p18 + 5) = {35.66062315162649, 1.269804151626491, 0};
Point(p18 + 6) = {35.53473058613621, 1.377326560255176, 0};
Point(p18 + 7) = {35.3935677565602, 1.463831253475421, 0};
Point(p18 + 8) = {35.24061056025517, 1.527188198647528, 0};
Point(p18 + 9) = {35.07962531102999, 1.565837337511712, 0};
Point(p18 + 10) = {34.914576, 1.578827, 0};
Point(p18 + 11) = {34.74952668897, 1.565837337511712, 0};
Point(p18 + 12) = {34.58854143974482, 1.527188198647528, 0};
Point(p18 + 13) = {34.43558424343979, 1.463831253475421, 0};
Point(p18 + 14) = {34.29442141386378, 1.377326560255176, 0};
Point(p18 + 15) = {34.16852884837351, 1.269804151626491, 0};
Point(p18 + 16) = {34.06100643974482, 1.14391158613622, 0};
Point(p18 + 17) = {33.97450174652457, 1.002748756560204, 0};
Point(p18 + 18) = {33.91114480135247, 0.8497915602551759, 0};
Point(p18 + 19) = {33.87249566248828, 0.6888063110299965, 0};
Point(p18 + 20) = {33.859506, 0.5237570000000001, 0};
Point(p18 + 21) = {33.87249566248828, 0.3587076889700038, 0};
Point(p18 + 22) = {33.91114480135247, 0.197722439744824, 0};
Point(p18 + 23) = {33.97450174652457, 0.04476524343979693, 0};
Point(p18 + 24) = {34.06100643974482, -0.0963975861362194, 0};
Point(p18 + 25) = {34.16852884837351, -0.2222901516264906, 0};
Point(p18 + 26) = {34.29442141386378, -0.3298125602551756, 0};
Point(p18 + 27) = {34.43558424343979, -0.4163172534754211, 0};
Point(p18 + 28) = {34.58854143974482, -0.4796741986475275, 0};
Point(p18 + 29) = {34.74952668897, -0.5183233375117118, 0};
Point(p18 + 30) = {34.914576, -0.5313129999999999, 0};
Point(p18 + 31) = {35.07962531102999, -0.518323337511712, 0};
Point(p18 + 32) = {35.24061056025517, -0.4796741986475277, 0};
Point(p18 + 33) = {35.3935677565602, -0.4163172534754214, 0};
Point(p18 + 34) = {35.53473058613621, -0.3298125602551759, 0};
Point(p18 + 35) = {35.66062315162649, -0.2222901516264908, 0};
Point(p18 + 36) = {35.76814556025517, -0.09639758613621974, 0};
Point(p18 + 37) = {35.85465025347542, 0.04476524343979621, 0};
Point(p18 + 38) = {35.91800719864752, 0.1977224397448241, 0};
Point(p18 + 39) = {35.95665633751171, 0.3587076889700034, 0};
Spline(18) = {12, p18 + 1, p18 + 2, p18 + 3, p18 + 4, p18 + 5, p18 + 6, p18 + 7, p18 + 8, p18 + 9, p18 + 10, p18 + 11, p18 + 12, p18 + 13, p18 + 14, p18 + 15, p18 + 16, p18 + 17, p18 + 18, p18 + 19, p18 + 20, p18 + 21, p18 + 22, p18 + 23, p18 + 24, p18 + 25, p18 + 26, p18 + 27, p18 + 28, p18 + 29, p18 + 30, p18 + 31, p18 + 32, p18 + 33, p18 + 34, p18 + 35, p18 + 36, p18 + 37, p18 + 38, p18 + 39, 12};
Line(19) = {14, 13};
Line(20) = {13, 15};
Line(21) = {16, 15};
Line(22) = {14, 16};
Line(23) = {14, 17};
Line(24) = {17, 18};
Line(25) = {13, 18};
Line(26) = {15, 19};
Line(27) = {18, 19};
Line(28) = {16, 20};
Line(29) = {20, 19};
Line(30) = {17, 20};
Curve Loop(7) = {-13, -14, 15, 14};
Surface(7) = {7};
Curve Loop(8) = {13};
Plane Surface(8) = {8};
Curve Loop(9) = {15};
Plane Surface(9) = {9};
Curve Loop(10) = {-16, -17, 18, 17};
Surface(10) = {10};
Curve Loop(11) = {16};
Plane Surface(11) = {11};
Curve Loop(12) = {18};
Plane Surface(12) = {12};
Curve Loop(13) = {-19, 22, 21, -20};
Plane Surface(13) = {13};
Curve Loop(14) = {-23, 19, 25, -24};
Plane Surface(14) = {14};
Curve Loop(15) = {-20, 25, 27, -26, -16, -13};
Plane Surface(15) = {15};
Curve Loop(16) = {-28, 21, 26, -29};
Plane Surface(16) = {16};
Curve Loop(17) = {-22, 23, 30, -28, -18, -15};
Plane Surface(17) = {17};
Curve Loop(18) = {-24, 30, 29, -27};
Plane Surface(18) = {18};
Surface Loop(1) = {13, 14, 15, 16, 17, 18, 10, 7};
Volume(1) = {1};
Surface Loop(2) = {7, 8, 9};
Volume(2) = {2};
Surface Loop(3) = {10, 11, 12};
Volume(3) = {3};
Physical Surface("WALLS") = {13, 18};
Physical Surface("LOAD") = {8, 11};
Physical Surface("BORDER") = {7, 9, 10, 12, 14, 15, 16, 17};
Physical Volume("SOLID") = {1, 2, 3};
