cl__1 = 0.09993;
cl__2 = 0.07573299999999999;
cl__3 = 1.290755;
cl__4 = 0.945946;
cl__5 = 1.056291;
cl__6 = 0.946832;
Point(9) = {12.973413, 2.775132, 0.1, cl__1};
Point(10) = {12.973413, 2.775132, 0, cl__1};
Point(11) = {21.393263, 1.538786, 0.1, cl__2};
Point(12) = {21.393263, 1.538786, 0, cl__2};
Point(13) = {0.579143, -3.744754, 1, cl__3};
Point(14) = {0.579143, -3.744754, 0, cl__3};
Point(15) = {0.579143, 4.579908999999999, 1, cl__4};
Point(16) = {0.579143, 4.579908999999999, 0, cl__4};
Point(17) = {31.524114, -3.744754, 0, cl__5};
Point(18) = {31.524114, -3.744754, 1, cl__5};
Point(19) = {31.524114, 4.579908999999999, 1, cl__6};
Point(20) = {31.524114, 4.579908999999999, 0, cl__6};
p13 = newp;
Point(p13 + 1) = {12.96110994644506, 2.931457117349168, 0.1};
Point(p13 + 2) = {12.92450372779026, 3.08393299149588, 0.1};
Point(p13 + 3) = {12.86449571062796, 3.228805160380229, 0.1};
Point(p13 + 4) = {12.78256349149588, 3.362506390401121, 0.1};
Point(p13 + 5) = {12.6807245135465, 3.481744513546498, 0.1};
Point(p13 + 6) = {12.56148639040112, 3.58358349149588, 0.1};
Point(p13 + 7) = {12.42778516038023, 3.66551571062796, 0.1};
Point(p13 + 8) = {12.28291299149588, 3.725523727790264, 0.1};
Point(p13 + 9) = {12.13043711734917, 3.762129946445062, 0.1};
Point(p13 + 10) = {11.974112, 3.774433, 0.1};
Point(p13 + 11) = {11.81778688265083, 3.762129946445062, 0.1};
Point(p13 + 12) = {11.66531100850412, 3.725523727790264, 0.1};
Point(p13 + 13) = {11.52043883961977, 3.66551571062796, 0.1};
Point(p13 + 14) = {11.38673760959888, 3.58358349149588, 0.1};
Point(p13 + 15) = {11.2674994864535, 3.481744513546498, 0.1};
Point(p13 + 16) = {11.16566050850412, 3.362506390401121, 0.1};
Point(p13 + 17) = {11.08372828937204, 3.228805160380229, 0.1};
Point(p13 + 18) = {11.02372027220974, 3.08393299149588, 0.1};
Point(p13 + 19) = {10.98711405355494, 2.931457117349168, 0.1};
Point(p13 + 20) = {10.974811, 2.775132, 0.1};
Point(p13 + 21) = {10.98711405355494, 2.618806882650833, 0.1};
Point(p13 + 22) = {11.02372027220974, 2.46633100850412, 0.1};
Point(p13 + 23) = {11.08372828937204, 2.321458839619772, 0.1};
Point(p13 + 24) = {11.16566050850412, 2.187757609598879, 0.1};
Point(p13 + 25) = {11.2674994864535, 2.068519486453502, 0.1};
Point(p13 + 26) = {11.38673760959888, 1.966680508504121, 0.1};
Point(p13 + 27) = {11.52043883961977, 1.88474828937204, 0.1};
Point(p13 + 28) = {11.66531100850412, 1.824740272209737, 0.1};
Point(p13 + 29) = {11.81778688265083, 1.788134053554939, 0.1};
Point(p13 + 30) = {11.974112, 1.775831, 0.1};
Point(p13 + 31) = {12.13043711734917, 1.788134053554938, 0.1};
Point(p13 + 32) = {12.28291299149588, 1.824740272209737, 0.1};
Point(p13 + 33) = {12.42778516038023, 1.88474828937204, 0.1};
Point(p13 + 34) = {12.56148639040112, 1.966680508504121, 0.1};
Point(p13 + 35) = {12.6807245135465, 2.068519486453502, 0.1};
Point(p13 + 36) = {12.78256349149588, 2.187757609598879, 0.1};
Point(p13 + 37) = {12.86449571062796, 2.321458839619771, 0.1};
Point(p13 + 38) = {12.92450372779026, 2.466331008504121, 0.1};
Point(p13 + 39) = {12.96110994644506, 2.618806882650832, 0.1};
Spline(13) = {9, p13 + 1, p13 + 2, p13 + 3, p13 + 4, p13 + 5, p13 + 6, p13 + 7, p13 + 8, p13 + 9, p13 + 10, p13 + 11, p13 + 12, p13 + 13, p13 + 14, p13 + 15, p13 + 16, p13 + 17, p13 + 18, p13 + 19, p13 + 20, p13 + 21, p13 + 22, p13 + 23, p13 + 24, p13 + 25, p13 + 26, p13 + 27, p13 + 28, p13 + 29, p13 + 30, p13 + 31, p13 + 32, p13 + 33, p13 + 34, p13 + 35, p13 + 36, p13 + 37, p13 + 38, p13 + 39, 9};
Line(14) = {10, 9};
p15 = newp;
Point(p15 + 1) = {12.96110994644506, 2.931457117349168, 0};
Point(p15 + 2) = {12.92450372779026, 3.08393299149588, 0};
Point(p15 + 3) = {12.86449571062796, 3.228805160380229, 0};
Point(p15 + 4) = {12.78256349149588, 3.362506390401121, 0};
Point(p15 + 5) = {12.6807245135465, 3.481744513546498, 0};
Point(p15 + 6) = {12.56148639040112, 3.58358349149588, 0};
Point(p15 + 7) = {12.42778516038023, 3.66551571062796, 0};
Point(p15 + 8) = {12.28291299149588, 3.725523727790264, 0};
Point(p15 + 9) = {12.13043711734917, 3.762129946445062, 0};
Point(p15 + 10) = {11.974112, 3.774433, 0};
Point(p15 + 11) = {11.81778688265083, 3.762129946445062, 0};
Point(p15 + 12) = {11.66531100850412, 3.725523727790264, 0};
Point(p15 + 13) = {11.52043883961977, 3.66551571062796, 0};
Point(p15 + 14) = {11.38673760959888, 3.58358349149588, 0};
Point(p15 + 15) = {11.2674994864535, 3.481744513546498, 0};
Point(p15 + 16) = {11.16566050850412, 3.362506390401121, 0};
Point(p15 + 17) = {11.08372828937204, 3.228805160380229, 0};
Point(p15 + 18) = {11.02372027220974, 3.08393299149588, 0};
Point(p15 + 19) = {10.98711405355494, 2.931457117349168, 0};
Point(p15 + 20) = {10.974811, 2.775132, 0};
Point(p15 + 21) = {10.98711405355494, 2.618806882650833, 0};
Point(p15 + 22) = {11.02372027220974, 2.46633100850412, 0};
Point(p15 + 23) = {11.08372828937204, 2.321458839619772, 0};
Point(p15 + 24) = {11.16566050850412, 2.187757609598879, 0};
Point(p15 + 25) = {11.2674994864535, 2.068519486453502, 0};
Point(p15 + 26) = {11.38673760959888, 1.966680508504121, 0};
Point(p15 + 27) = {11.52043883961977, 1.88474828937204, 0};
Point(p15 + 28) = {11.66531100850412, 1.824740272209737, 0};
Point(p15 + 29) = {11.81778688265083, 1.788134053554939, 0};
Point(p15 + 30) = {11.974112, 1.775831, 0};
Point(p15 + 31) = {12.13043711734917, 1.788134053554938, 0};
Point(p15 + 32) = {12.28291299149588, 1.824740272209737, 0};
Point(p15 + 33) = {12.42778516038023, 1.88474828937204, 0};
Point(p15 + 34) = {12.56148639040112, 1.966680508504121, 0};
Point(p15 + 35) = {12.6807245135465, 2.068519486453502, 0};
Point(p15 + 36) = {12.78256349149588, 2.187757609598879, 0};
Point(p15 + 37) = {12.86449571062796, 2.321458839619771, 0};
Point(p15 + 38) = {12.92450372779026, 2.466331008504121, 0};
Point(p15 + 39) = {12.96110994644506, 2.618806882650832, 0};
Spline(15) = {10, p15 + 1, p15 + 2, p15 + 3, p15 + 4, p15 + 5, p15 + 6, p15 + 7, p15 + 8, p15 + 9, p15 + 10, p15 + 11, p15 + 12, p15 + 13, p15 + 14, p15 + 15, p15 + 16, p15 + 17, p15 + 18, p15 + 19, p15 + 20, p15 + 21, p15 + 22, p15 + 23, p15 + 24, p15 + 25, p15 + 26, p15 + 27, p15 + 28, p15 + 29, p15 + 30, p15 + 31, p15 + 32, p15 + 33, p15 + 34, p15 + 35, p15 + 36, p15 + 37, p15 + 38, p15 + 39, 10};
p16 = newp;
Point(p16 + 1) = {21.3839390479179, 1.657258044105523, 0.1};
Point(p16 + 2) = {21.35619677831626, 1.772812913298996, 0.1};
Point(p16 + 3) = {21.310719297944, 1.882605263196252, 0.1};
Point(p16 + 4) = {21.248626413299, 1.983931641762902, 0.1};
Point(p16 + 5) = {21.17144705727566, 2.074297057275664, 0.1};
Point(p16 + 6) = {21.0810816417629, 2.151476413298996, 0.1};
Point(p16 + 7) = {20.97975526319625, 2.213569297944004, 0.1};
Point(p16 + 8) = {20.869962913299, 2.25904677831626, 0.1};
Point(p16 + 9) = {20.75440804410552, 2.286789047917894, 0.1};
Point(p16 + 10) = {20.635936, 2.296113, 0.1};
Point(p16 + 11) = {20.51746395589448, 2.286789047917894, 0.1};
Point(p16 + 12) = {20.401909086701, 2.25904677831626, 0.1};
Point(p16 + 13) = {20.29211673680375, 2.213569297944004, 0.1};
Point(p16 + 14) = {20.1907903582371, 2.151476413298996, 0.1};
Point(p16 + 15) = {20.10042494272434, 2.074297057275665, 0.1};
Point(p16 + 16) = {20.02324558670101, 1.983931641762902, 0.1};
Point(p16 + 17) = {19.961152702056, 1.882605263196252, 0.1};
Point(p16 + 18) = {19.91567522168374, 1.772812913298996, 0.1};
Point(p16 + 19) = {19.88793295208211, 1.657258044105523, 0.1};
Point(p16 + 20) = {19.878609, 1.538786, 0.1};
Point(p16 + 21) = {19.88793295208211, 1.420313955894477, 0.1};
Point(p16 + 22) = {19.91567522168374, 1.304759086701004, 0.1};
Point(p16 + 23) = {19.961152702056, 1.194966736803749, 0.1};
Point(p16 + 24) = {20.02324558670101, 1.093640358237098, 0.1};
Point(p16 + 25) = {20.10042494272434, 1.003274942724336, 0.1};
Point(p16 + 26) = {20.1907903582371, 0.9260955867010042, 0.1};
Point(p16 + 27) = {20.29211673680375, 0.8640027020559961, 0.1};
Point(p16 + 28) = {20.401909086701, 0.8185252216837403, 0.1};
Point(p16 + 29) = {20.51746395589448, 0.7907829520821062, 0.1};
Point(p16 + 30) = {20.635936, 0.781459, 0.1};
Point(p16 + 31) = {20.75440804410552, 0.7907829520821061, 0.1};
Point(p16 + 32) = {20.869962913299, 0.8185252216837402, 0.1};
Point(p16 + 33) = {20.97975526319625, 0.8640027020559958, 0.1};
Point(p16 + 34) = {21.0810816417629, 0.9260955867010041, 0.1};
Point(p16 + 35) = {21.17144705727566, 1.003274942724335, 0.1};
Point(p16 + 36) = {21.248626413299, 1.093640358237098, 0.1};
Point(p16 + 37) = {21.310719297944, 1.194966736803748, 0.1};
Point(p16 + 38) = {21.35619677831626, 1.304759086701004, 0.1};
Point(p16 + 39) = {21.3839390479179, 1.420313955894477, 0.1};
Spline(16) = {11, p16 + 1, p16 + 2, p16 + 3, p16 + 4, p16 + 5, p16 + 6, p16 + 7, p16 + 8, p16 + 9, p16 + 10, p16 + 11, p16 + 12, p16 + 13, p16 + 14, p16 + 15, p16 + 16, p16 + 17, p16 + 18, p16 + 19, p16 + 20, p16 + 21, p16 + 22, p16 + 23, p16 + 24, p16 + 25, p16 + 26, p16 + 27, p16 + 28, p16 + 29, p16 + 30, p16 + 31, p16 + 32, p16 + 33, p16 + 34, p16 + 35, p16 + 36, p16 + 37, p16 + 38, p16 + 39, 11};
Line(17) = {12, 11};
p18 = newp;
Point(p18 + 1) = {21.3839390479179, 1.657258044105523, 0};
Point(p18 + 2) = {21.35619677831626, 1.772812913298996, 0};
Point(p18 + 3) = {21.310719297944, 1.882605263196252, 0};
Point(p18 + 4) = {21.248626413299, 1.983931641762902, 0};
Point(p18 + 5) = {21.17144705727566, 2.074297057275664, 0};
Point(p18 + 6) = {21.0810816417629, 2.151476413298996, 0};
Point(p18 + 7) = {20.97975526319625, 2.213569297944004, 0};
Point(p18 + 8) = {20.869962913299, 2.25904677831626, 0};
Point(p18 + 9) = {20.75440804410552, 2.286789047917894, 0};
Point(p18 + 10) = {20.635936, 2.296113, 0};
Point(p18 + 11) = {20.51746395589448, 2.286789047917894, 0};
Point(p18 + 12) = {20.401909086701, 2.25904677831626, 0};
Point(p18 + 13) = {20.29211673680375, 2.213569297944004, 0};
Point(p18 + 14) = {20.1907903582371, 2.151476413298996, 0};
Point(p18 + 15) = {20.10042494272434, 2.074297057275665, 0};
Point(p18 + 16) = {20.02324558670101, 1.983931641762902, 0};
Point(p18 + 17) = {19.961152702056, 1.882605263196252, 0};
Point(p18 + 18) = {19.91567522168374, 1.772812913298996, 0};
Point(p18 + 19) = {19.88793295208211, 1.657258044105523, 0};
Point(p18 + 20) = {19.878609, 1.538786, 0};
Point(p18 + 21) = {19.88793295208211, 1.420313955894477, 0};
Point(p18 + 22) = {19.91567522168374, 1.304759086701004, 0};
Point(p18 + 23) = {19.961152702056, 1.194966736803749, 0};
Point(p18 + 24) = {20.02324558670101, 1.093640358237098, 0};
Point(p18 + 25) = {20.10042494272434, 1.003274942724336, 0};
Point(p18 + 26) = {20.1907903582371, 0.9260955867010042, 0};
Point(p18 + 27) = {20.29211673680375, 0.8640027020559961, 0};
Point(p18 + 28) = {20.401909086701, 0.8185252216837403, 0};
Point(p18 + 29) = {20.51746395589448, 0.7907829520821062, 0};
Point(p18 + 30) = {20.635936, 0.781459, 0};
Point(p18 + 31) = {20.75440804410552, 0.7907829520821061, 0};
Point(p18 + 32) = {20.869962913299, 0.8185252216837402, 0};
Point(p18 + 33) = {20.97975526319625, 0.8640027020559958, 0};
Point(p18 + 34) = {21.0810816417629, 0.9260955867010041, 0};
Point(p18 + 35) = {21.17144705727566, 1.003274942724335, 0};
Point(p18 + 36) = {21.248626413299, 1.093640358237098, 0};
Point(p18 + 37) = {21.310719297944, 1.194966736803748, 0};
Point(p18 + 38) = {21.35619677831626, 1.304759086701004, 0};
Point(p18 + 39) = {21.3839390479179, 1.420313955894477, 0};
Spline(18) = {12, p18 + 1, p18 + 2, p18 + 3, p18 + 4, p18 + 5, p18 + 6, p18 + 7, p18 + 8, p18 + 9, p18 + 10, p18 + 11, p18 + 12, p18 + 13, p18 + 14, p18 + 15, p18 + 16, p18 + 17, p18 + 18, p18 + 19, p18 + 20, p18 + 21, p18 + 22, p18 + 23, p18 + 24, p18 + 25, p18 + 26, p18 + 27, p18 + 28, p18 + 29, p18 + 30, p18 + 31, p18 + 32, p18 + 33, p18 + 34, p18 + 35, p18 + 36, p18 + 37, p18 + 38, p18 + 39, 12};
Line(19) = {14, 13};
Line(20) = {13, 15};
Line(21) = {16, 15};
Line(22) = {14, 16};
Line(23) = {14, 17};
Line(24) = {17, 18};
Line(25) = {13, 18};
Line(26) = {15, 19};
Line(27) = {18, 19};
Line(28) = {16, 20};
Line(29) = {20, 19};
Line(30) = {17, 20};
Curve Loop(7) = {-13, -14, 15, 14};
Surface(7) = {7};
Curve Loop(8) = {13};
Plane Surface(8) = {8};
Curve Loop(9) = {15};
Plane Surface(9) = {9};
Curve Loop(10) = {-16, -17, 18, 17};
Surface(10) = {10};
Curve Loop(11) = {16};
Plane Surface(11) = {11};
Curve Loop(12) = {18};
Plane Surface(12) = {12};
Curve Loop(13) = {-19, 22, 21, -20};
Plane Surface(13) = {13};
Curve Loop(14) = {-23, 19, 25, -24};
Plane Surface(14) = {14};
Curve Loop(15) = {-20, 25, 27, -26};
Plane Surface(15) = {15};
Curve Loop(16) = {-28, 21, 26, -29};
Plane Surface(16) = {16};
Curve Loop(17) = {-22, 23, 30, -28, -18, -15};
Plane Surface(17) = {17};
Curve Loop(18) = {-24, 30, 29, -27};
Plane Surface(18) = {18};
Surface Loop(1) = {13, 14, 15, 16, 17, 18, 10, 7, 11, 8};
Volume(1) = {1};
Surface Loop(2) = {7, 8, 9};
Volume(2) = {2};
Surface Loop(3) = {10, 11, 12};
Volume(3) = {3};
Physical Surface("WALLS") = {13, 18};
Physical Surface("LOAD") = {8, 11};
Physical Surface("BORDER") = {7, 9, 10, 12, 14, 15, 16, 17};
Physical Volume("SOLID") = {1, 2, 3};
