cl__1 = 0.055287;
cl__2 = 0.138766;
cl__3 = 0.7908500000000001;
cl__4 = 0.667805;
cl__5 = 2.114742;
cl__6 = 1.989804;
Point(9) = {22.574734, 0.6133899999999999, 0.1, cl__1};
Point(10) = {22.574734, 0.6133899999999999, 0, cl__1};
Point(11) = {10.118275, 1.641049, 0.1, cl__2};
Point(12) = {10.118275, 1.641049, 0, cl__2};
Point(13) = {0.561044, -3.866752, 0.1, cl__3};
Point(14) = {0.561044, -3.866752, 0, cl__3};
Point(15) = {0.561044, 4.114315, 0.1, cl__4};
Point(16) = {0.561044, 4.114315, 0, cl__4};
Point(17) = {35.593528, -3.866752, 0, cl__5};
Point(18) = {35.593528, -3.866752, 0.1, cl__5};
Point(19) = {35.593528, 4.114315, 0.1, cl__6};
Point(20) = {35.593528, 4.114315, 0, cl__6};
p13 = newp;
Point(p13 + 1) = {22.5679272036182, 0.6998785484246526, 0.1};
Point(p13 + 2) = {22.54767442039017, 0.7842374617480546, 0.1};
Point(p13 + 3) = {22.51447434105412, 0.8643895435530021, 0.1};
Point(p13 + 4) = {22.46914446174805, 0.9383611835759488, 0.1};
Point(p13 + 5) = {22.41280095454173, 1.004330954541731, 0.1};
Point(p13 + 6) = {22.34683118357595, 1.060674461748055, 0.1};
Point(p13 + 7) = {22.272859543553, 1.10600434105412, 0.1};
Point(p13 + 8) = {22.19270746174805, 1.139204420390167, 0.1};
Point(p13 + 9) = {22.10834854842465, 1.159457203618196, 0.1};
Point(p13 + 10) = {22.02186, 1.166264, 0.1};
Point(p13 + 11) = {21.93537145157535, 1.159457203618196, 0.1};
Point(p13 + 12) = {21.85101253825195, 1.139204420390167, 0.1};
Point(p13 + 13) = {21.770860456447, 1.10600434105412, 0.1};
Point(p13 + 14) = {21.69688881642405, 1.060674461748055, 0.1};
Point(p13 + 15) = {21.63091904545827, 1.004330954541731, 0.1};
Point(p13 + 16) = {21.57457553825195, 0.9383611835759489, 0.1};
Point(p13 + 17) = {21.52924565894588, 0.8643895435530022, 0.1};
Point(p13 + 18) = {21.49604557960983, 0.7842374617480548, 0.1};
Point(p13 + 19) = {21.4757927963818, 0.6998785484246527, 0.1};
Point(p13 + 20) = {21.468986, 0.6133900000000001, 0.1};
Point(p13 + 21) = {21.4757927963818, 0.5269014515753474, 0.1};
Point(p13 + 22) = {21.49604557960983, 0.4425425382519451, 0.1};
Point(p13 + 23) = {21.52924565894588, 0.3623904564469981, 0.1};
Point(p13 + 24) = {21.57457553825195, 0.2884188164240513, 0.1};
Point(p13 + 25) = {21.63091904545827, 0.2224490454582688, 0.1};
Point(p13 + 26) = {21.69688881642405, 0.1661055382519454, 0.1};
Point(p13 + 27) = {21.770860456447, 0.1207756589458804, 0.1};
Point(p13 + 28) = {21.85101253825195, 0.08757557960983331, 0.1};
Point(p13 + 29) = {21.93537145157535, 0.06732279638180383, 0.1};
Point(p13 + 30) = {22.02186, 0.06051600000000001, 0.1};
Point(p13 + 31) = {22.10834854842465, 0.06732279638180383, 0.1};
Point(p13 + 32) = {22.19270746174805, 0.0875755796098332, 0.1};
Point(p13 + 33) = {22.272859543553, 0.1207756589458802, 0.1};
Point(p13 + 34) = {22.34683118357595, 0.1661055382519452, 0.1};
Point(p13 + 35) = {22.41280095454173, 0.2224490454582687, 0.1};
Point(p13 + 36) = {22.46914446174805, 0.2884188164240511, 0.1};
Point(p13 + 37) = {22.51447434105412, 0.3623904564469977, 0.1};
Point(p13 + 38) = {22.54767442039017, 0.4425425382519452, 0.1};
Point(p13 + 39) = {22.5679272036182, 0.5269014515753473, 0.1};
Spline(13) = {9, p13 + 1, p13 + 2, p13 + 3, p13 + 4, p13 + 5, p13 + 6, p13 + 7, p13 + 8, p13 + 9, p13 + 10, p13 + 11, p13 + 12, p13 + 13, p13 + 14, p13 + 15, p13 + 16, p13 + 17, p13 + 18, p13 + 19, p13 + 20, p13 + 21, p13 + 22, p13 + 23, p13 + 24, p13 + 25, p13 + 26, p13 + 27, p13 + 28, p13 + 29, p13 + 30, p13 + 31, p13 + 32, p13 + 33, p13 + 34, p13 + 35, p13 + 36, p13 + 37, p13 + 38, p13 + 39, 9};
Line(14) = {10, 9};
p15 = newp;
Point(p15 + 1) = {22.5679272036182, 0.6998785484246526, 0};
Point(p15 + 2) = {22.54767442039017, 0.7842374617480546, 0};
Point(p15 + 3) = {22.51447434105412, 0.8643895435530021, 0};
Point(p15 + 4) = {22.46914446174805, 0.9383611835759488, 0};
Point(p15 + 5) = {22.41280095454173, 1.004330954541731, 0};
Point(p15 + 6) = {22.34683118357595, 1.060674461748055, 0};
Point(p15 + 7) = {22.272859543553, 1.10600434105412, 0};
Point(p15 + 8) = {22.19270746174805, 1.139204420390167, 0};
Point(p15 + 9) = {22.10834854842465, 1.159457203618196, 0};
Point(p15 + 10) = {22.02186, 1.166264, 0};
Point(p15 + 11) = {21.93537145157535, 1.159457203618196, 0};
Point(p15 + 12) = {21.85101253825195, 1.139204420390167, 0};
Point(p15 + 13) = {21.770860456447, 1.10600434105412, 0};
Point(p15 + 14) = {21.69688881642405, 1.060674461748055, 0};
Point(p15 + 15) = {21.63091904545827, 1.004330954541731, 0};
Point(p15 + 16) = {21.57457553825195, 0.9383611835759489, 0};
Point(p15 + 17) = {21.52924565894588, 0.8643895435530022, 0};
Point(p15 + 18) = {21.49604557960983, 0.7842374617480548, 0};
Point(p15 + 19) = {21.4757927963818, 0.6998785484246527, 0};
Point(p15 + 20) = {21.468986, 0.6133900000000001, 0};
Point(p15 + 21) = {21.4757927963818, 0.5269014515753474, 0};
Point(p15 + 22) = {21.49604557960983, 0.4425425382519451, 0};
Point(p15 + 23) = {21.52924565894588, 0.3623904564469981, 0};
Point(p15 + 24) = {21.57457553825195, 0.2884188164240513, 0};
Point(p15 + 25) = {21.63091904545827, 0.2224490454582688, 0};
Point(p15 + 26) = {21.69688881642405, 0.1661055382519454, 0};
Point(p15 + 27) = {21.770860456447, 0.1207756589458804, 0};
Point(p15 + 28) = {21.85101253825195, 0.08757557960983331, 0};
Point(p15 + 29) = {21.93537145157535, 0.06732279638180383, 0};
Point(p15 + 30) = {22.02186, 0.06051600000000001, 0};
Point(p15 + 31) = {22.10834854842465, 0.06732279638180383, 0};
Point(p15 + 32) = {22.19270746174805, 0.0875755796098332, 0};
Point(p15 + 33) = {22.272859543553, 0.1207756589458802, 0};
Point(p15 + 34) = {22.34683118357595, 0.1661055382519452, 0};
Point(p15 + 35) = {22.41280095454173, 0.2224490454582687, 0};
Point(p15 + 36) = {22.46914446174805, 0.2884188164240511, 0};
Point(p15 + 37) = {22.51447434105412, 0.3623904564469977, 0};
Point(p15 + 38) = {22.54767442039017, 0.4425425382519452, 0};
Point(p15 + 39) = {22.5679272036182, 0.5269014515753473, 0};
Spline(15) = {10, p15 + 1, p15 + 2, p15 + 3, p15 + 4, p15 + 5, p15 + 6, p15 + 7, p15 + 8, p15 + 9, p15 + 10, p15 + 11, p15 + 12, p15 + 13, p15 + 14, p15 + 15, p15 + 16, p15 + 17, p15 + 18, p15 + 19, p15 + 20, p15 + 21, p15 + 22, p15 + 23, p15 + 24, p15 + 25, p15 + 26, p15 + 27, p15 + 28, p15 + 29, p15 + 30, p15 + 31, p15 + 32, p15 + 33, p15 + 34, p15 + 35, p15 + 36, p15 + 37, p15 + 38, p15 + 39, 10};
p16 = newp;
Point(p16 + 1) = {10.10119065195689, 1.858126224019867, 0.1};
Point(p16 + 2) = {10.05035828117607, 2.069858286346362, 0.1};
Point(p16 + 3) = {9.967029549329135, 2.27103164090658, 0.1};
Point(p16 + 4) = {9.853256286346364, 2.456692732055164, 0.1};
Point(p16 + 5) = {9.711839967554202, 2.6222699675542, 0.1};
Point(p16 + 6) = {9.546262732055165, 2.763686286346362, 0.1};
Point(p16 + 7) = {9.360601640906582, 2.877459549329134, 0.1};
Point(p16 + 8) = {9.159428286346364, 2.960788281176067, 0.1};
Point(p16 + 9) = {8.947696224019868, 3.011620651956886, 0.1};
Point(p16 + 10) = {8.730619000000001, 3.028705, 0.1};
Point(p16 + 11) = {8.513541775980134, 3.011620651956886, 0.1};
Point(p16 + 12) = {8.30180971365364, 2.960788281176068, 0.1};
Point(p16 + 13) = {8.10063635909342, 2.877459549329134, 0.1};
Point(p16 + 14) = {7.914975267944837, 2.763686286346362, 0.1};
Point(p16 + 15) = {7.749398032445801, 2.6222699675542, 0.1};
Point(p16 + 16) = {7.607981713653639, 2.456692732055164, 0.1};
Point(p16 + 17) = {7.494208450670867, 2.27103164090658, 0.1};
Point(p16 + 18) = {7.410879718823933, 2.069858286346362, 0.1};
Point(p16 + 19) = {7.360047348043114, 1.858126224019867, 0.1};
Point(p16 + 20) = {7.342963000000001, 1.641049, 0.1};
Point(p16 + 21) = {7.360047348043114, 1.423971775980134, 0.1};
Point(p16 + 22) = {7.410879718823933, 1.212239713653638, 0.1};
Point(p16 + 23) = {7.494208450670866, 1.01106635909342, 0.1};
Point(p16 + 24) = {7.607981713653639, 0.825405267944836, 0.1};
Point(p16 + 25) = {7.749398032445801, 0.6598280324458002, 0.1};
Point(p16 + 26) = {7.914975267944836, 0.5184117136536381, 0.1};
Point(p16 + 27) = {8.10063635909342, 0.4046384506708662, 0.1};
Point(p16 + 28) = {8.301809713653638, 0.3213097188239324, 0.1};
Point(p16 + 29) = {8.513541775980134, 0.2704773480431137, 0.1};
Point(p16 + 30) = {8.730619000000001, 0.253393, 0.1};
Point(p16 + 31) = {8.947696224019866, 0.2704773480431135, 0.1};
Point(p16 + 32) = {9.159428286346362, 0.3213097188239322, 0.1};
Point(p16 + 33) = {9.36060164090658, 0.404638450670866, 0.1};
Point(p16 + 34) = {9.546262732055165, 0.5184117136536377, 0.1};
Point(p16 + 35) = {9.7118399675542, 0.6598280324458, 0.1};
Point(p16 + 36) = {9.853256286346362, 0.8254052679448357, 0.1};
Point(p16 + 37) = {9.967029549329135, 1.011066359093419, 0.1};
Point(p16 + 38) = {10.05035828117607, 1.212239713653638, 0.1};
Point(p16 + 39) = {10.10119065195689, 1.423971775980133, 0.1};
Spline(16) = {11, p16 + 1, p16 + 2, p16 + 3, p16 + 4, p16 + 5, p16 + 6, p16 + 7, p16 + 8, p16 + 9, p16 + 10, p16 + 11, p16 + 12, p16 + 13, p16 + 14, p16 + 15, p16 + 16, p16 + 17, p16 + 18, p16 + 19, p16 + 20, p16 + 21, p16 + 22, p16 + 23, p16 + 24, p16 + 25, p16 + 26, p16 + 27, p16 + 28, p16 + 29, p16 + 30, p16 + 31, p16 + 32, p16 + 33, p16 + 34, p16 + 35, p16 + 36, p16 + 37, p16 + 38, p16 + 39, 11};
Line(17) = {12, 11};
p18 = newp;
Point(p18 + 1) = {10.10119065195689, 1.858126224019867, 0};
Point(p18 + 2) = {10.05035828117607, 2.069858286346362, 0};
Point(p18 + 3) = {9.967029549329135, 2.27103164090658, 0};
Point(p18 + 4) = {9.853256286346364, 2.456692732055164, 0};
Point(p18 + 5) = {9.711839967554202, 2.6222699675542, 0};
Point(p18 + 6) = {9.546262732055165, 2.763686286346362, 0};
Point(p18 + 7) = {9.360601640906582, 2.877459549329134, 0};
Point(p18 + 8) = {9.159428286346364, 2.960788281176067, 0};
Point(p18 + 9) = {8.947696224019868, 3.011620651956886, 0};
Point(p18 + 10) = {8.730619000000001, 3.028705, 0};
Point(p18 + 11) = {8.513541775980134, 3.011620651956886, 0};
Point(p18 + 12) = {8.30180971365364, 2.960788281176068, 0};
Point(p18 + 13) = {8.10063635909342, 2.877459549329134, 0};
Point(p18 + 14) = {7.914975267944837, 2.763686286346362, 0};
Point(p18 + 15) = {7.749398032445801, 2.6222699675542, 0};
Point(p18 + 16) = {7.607981713653639, 2.456692732055164, 0};
Point(p18 + 17) = {7.494208450670867, 2.27103164090658, 0};
Point(p18 + 18) = {7.410879718823933, 2.069858286346362, 0};
Point(p18 + 19) = {7.360047348043114, 1.858126224019867, 0};
Point(p18 + 20) = {7.342963000000001, 1.641049, 0};
Point(p18 + 21) = {7.360047348043114, 1.423971775980134, 0};
Point(p18 + 22) = {7.410879718823933, 1.212239713653638, 0};
Point(p18 + 23) = {7.494208450670866, 1.01106635909342, 0};
Point(p18 + 24) = {7.607981713653639, 0.825405267944836, 0};
Point(p18 + 25) = {7.749398032445801, 0.6598280324458002, 0};
Point(p18 + 26) = {7.914975267944836, 0.5184117136536381, 0};
Point(p18 + 27) = {8.10063635909342, 0.4046384506708662, 0};
Point(p18 + 28) = {8.301809713653638, 0.3213097188239324, 0};
Point(p18 + 29) = {8.513541775980134, 0.2704773480431137, 0};
Point(p18 + 30) = {8.730619000000001, 0.253393, 0};
Point(p18 + 31) = {8.947696224019866, 0.2704773480431135, 0};
Point(p18 + 32) = {9.159428286346362, 0.3213097188239322, 0};
Point(p18 + 33) = {9.36060164090658, 0.404638450670866, 0};
Point(p18 + 34) = {9.546262732055165, 0.5184117136536377, 0};
Point(p18 + 35) = {9.7118399675542, 0.6598280324458, 0};
Point(p18 + 36) = {9.853256286346362, 0.8254052679448357, 0};
Point(p18 + 37) = {9.967029549329135, 1.011066359093419, 0};
Point(p18 + 38) = {10.05035828117607, 1.212239713653638, 0};
Point(p18 + 39) = {10.10119065195689, 1.423971775980133, 0};
Spline(18) = {12, p18 + 1, p18 + 2, p18 + 3, p18 + 4, p18 + 5, p18 + 6, p18 + 7, p18 + 8, p18 + 9, p18 + 10, p18 + 11, p18 + 12, p18 + 13, p18 + 14, p18 + 15, p18 + 16, p18 + 17, p18 + 18, p18 + 19, p18 + 20, p18 + 21, p18 + 22, p18 + 23, p18 + 24, p18 + 25, p18 + 26, p18 + 27, p18 + 28, p18 + 29, p18 + 30, p18 + 31, p18 + 32, p18 + 33, p18 + 34, p18 + 35, p18 + 36, p18 + 37, p18 + 38, p18 + 39, 12};
Line(19) = {14, 13};
Line(20) = {13, 15};
Line(21) = {16, 15};
Line(22) = {14, 16};
Line(23) = {14, 17};
Line(24) = {17, 18};
Line(25) = {13, 18};
Line(26) = {15, 19};
Line(27) = {18, 19};
Line(28) = {16, 20};
Line(29) = {20, 19};
Line(30) = {17, 20};
Curve Loop(7) = {-13, -14, 15, 14};
Surface(7) = {7};
Curve Loop(8) = {13};
Plane Surface(8) = {8};
Curve Loop(9) = {15};
Plane Surface(9) = {9};
Curve Loop(10) = {-16, -17, 18, 17};
Surface(10) = {10};
Curve Loop(11) = {16};
Plane Surface(11) = {11};
Curve Loop(12) = {18};
Plane Surface(12) = {12};
Curve Loop(13) = {-19, 22, 21, -20};
Plane Surface(13) = {13};
Curve Loop(14) = {-23, 19, 25, -24};
Plane Surface(14) = {14};
Curve Loop(15) = {-20, 25, 27, -26, -13, -16};
Plane Surface(15) = {15};
Curve Loop(16) = {-28, 21, 26, -29};
Plane Surface(16) = {16};
Curve Loop(17) = {-22, 23, 30, -28, -15, -18};
Plane Surface(17) = {17};
Curve Loop(18) = {-24, 30, 29, -27};
Plane Surface(18) = {18};
Surface Loop(1) = {13, 14, 15, 16, 17, 18, 7, 10};
Volume(1) = {1};
Surface Loop(2) = {7, 8, 9};
Volume(2) = {2};
Surface Loop(3) = {10, 11, 12};
Volume(3) = {3};
Physical Surface("WALLS") = {13, 18};
Physical Surface("LOAD") = {8, 11};
Physical Surface("BORDER") = {7, 9, 10, 12, 14, 15, 16, 17};
Physical Volume("SOLID") = {1, 2, 3};
