cl__1 = 0.107793;
cl__2 = 0.08166;
cl__3 = 0.619441;
cl__4 = 0.5526759999999999;
cl__5 = 2.617194;
cl__6 = 3.047297;
Point(9) = {21.814206, -1.000094, 0.1, cl__1};
Point(10) = {21.814206, -1.000094, 0, cl__1};
Point(11) = {8.453967, 1.650048, 0.1, cl__2};
Point(12) = {8.453967, 1.650048, 0, cl__2};
Point(13) = {0.817034, -3.657904, 0.1, cl__3};
Point(14) = {0.817034, -3.657904, 0, cl__3};
Point(15) = {0.817034, 5.432428, 0.1, cl__4};
Point(16) = {0.817034, 5.432428, 0, cl__4};
Point(17) = {39.03256, -3.657904, 0, cl__5};
Point(18) = {39.03256, -3.657904, 0.1, cl__5};
Point(19) = {39.03256, 5.432428, 0.1, cl__6};
Point(20) = {39.03256, 5.432428, 0, cl__6};
p13 = newp;
Point(p13 + 1) = {21.80093488066606, -0.8314684406647189, 0.1};
Point(p13 + 2) = {21.76144830166655, -0.6669950022364186, 0.1};
Point(p13 + 3) = {21.69671855362489, -0.5107235666252508, 0.1};
Point(p13 + 4) = {21.60833949776358, -0.3665020552111222, 0.1};
Point(p13 + 5) = {21.4984873197512, -0.2378816802488037, 0.1};
Point(p13 + 6) = {21.36986694478888, -0.1280295022364187, 0.1};
Point(p13 + 7) = {21.22564543337475, -0.03965044637510862, 0.1};
Point(p13 + 8) = {21.06937399776358, 0.02507930166655115, 0.1};
Point(p13 + 9) = {20.90490055933528, 0.0645658806660574, 0.1};
Point(p13 + 10) = {20.736275, 0.07783699999999993, 0.1};
Point(p13 + 11) = {20.56764944066472, 0.06456588066605717, 0.1};
Point(p13 + 12) = {20.40317600223642, 0.02507930166655115, 0.1};
Point(p13 + 13) = {20.24690456662525, -0.03965044637510851, 0.1};
Point(p13 + 14) = {20.10268305521112, -0.1280295022364186, 0.1};
Point(p13 + 15) = {19.9740626802488, -0.2378816802488036, 0.1};
Point(p13 + 16) = {19.86421050223642, -0.3665020552111221, 0.1};
Point(p13 + 17) = {19.77583144637511, -0.5107235666252505, 0.1};
Point(p13 + 18) = {19.71110169833345, -0.6669950022364185, 0.1};
Point(p13 + 19) = {19.67161511933394, -0.8314684406647188, 0.1};
Point(p13 + 20) = {19.658344, -1.000094, 0.1};
Point(p13 + 21) = {19.67161511933394, -1.168719559335281, 0.1};
Point(p13 + 22) = {19.71110169833345, -1.333192997763582, 0.1};
Point(p13 + 23) = {19.77583144637511, -1.489464433374749, 0.1};
Point(p13 + 24) = {19.86421050223642, -1.633685944788878, 0.1};
Point(p13 + 25) = {19.9740626802488, -1.762306319751196, 0.1};
Point(p13 + 26) = {20.10268305521112, -1.872158497763581, 0.1};
Point(p13 + 27) = {20.24690456662525, -1.960537553624891, 0.1};
Point(p13 + 28) = {20.40317600223642, -2.025267301666551, 0.1};
Point(p13 + 29) = {20.56764944066472, -2.064753880666057, 0.1};
Point(p13 + 30) = {20.736275, -2.078025, 0.1};
Point(p13 + 31) = {20.90490055933528, -2.064753880666057, 0.1};
Point(p13 + 32) = {21.06937399776358, -2.025267301666551, 0.1};
Point(p13 + 33) = {21.22564543337475, -1.960537553624892, 0.1};
Point(p13 + 34) = {21.36986694478888, -1.872158497763582, 0.1};
Point(p13 + 35) = {21.4984873197512, -1.762306319751197, 0.1};
Point(p13 + 36) = {21.60833949776358, -1.633685944788878, 0.1};
Point(p13 + 37) = {21.69671855362489, -1.48946443337475, 0.1};
Point(p13 + 38) = {21.76144830166655, -1.333192997763582, 0.1};
Point(p13 + 39) = {21.80093488066606, -1.168719559335281, 0.1};
Spline(13) = {9, p13 + 1, p13 + 2, p13 + 3, p13 + 4, p13 + 5, p13 + 6, p13 + 7, p13 + 8, p13 + 9, p13 + 10, p13 + 11, p13 + 12, p13 + 13, p13 + 14, p13 + 15, p13 + 16, p13 + 17, p13 + 18, p13 + 19, p13 + 20, p13 + 21, p13 + 22, p13 + 23, p13 + 24, p13 + 25, p13 + 26, p13 + 27, p13 + 28, p13 + 29, p13 + 30, p13 + 31, p13 + 32, p13 + 33, p13 + 34, p13 + 35, p13 + 36, p13 + 37, p13 + 38, p13 + 39, 9};
Line(14) = {10, 9};
p15 = newp;
Point(p15 + 1) = {21.80093488066606, -0.8314684406647189, 0};
Point(p15 + 2) = {21.76144830166655, -0.6669950022364186, 0};
Point(p15 + 3) = {21.69671855362489, -0.5107235666252508, 0};
Point(p15 + 4) = {21.60833949776358, -0.3665020552111222, 0};
Point(p15 + 5) = {21.4984873197512, -0.2378816802488037, 0};
Point(p15 + 6) = {21.36986694478888, -0.1280295022364187, 0};
Point(p15 + 7) = {21.22564543337475, -0.03965044637510862, 0};
Point(p15 + 8) = {21.06937399776358, 0.02507930166655115, 0};
Point(p15 + 9) = {20.90490055933528, 0.0645658806660574, 0};
Point(p15 + 10) = {20.736275, 0.07783699999999993, 0};
Point(p15 + 11) = {20.56764944066472, 0.06456588066605717, 0};
Point(p15 + 12) = {20.40317600223642, 0.02507930166655115, 0};
Point(p15 + 13) = {20.24690456662525, -0.03965044637510851, 0};
Point(p15 + 14) = {20.10268305521112, -0.1280295022364186, 0};
Point(p15 + 15) = {19.9740626802488, -0.2378816802488036, 0};
Point(p15 + 16) = {19.86421050223642, -0.3665020552111221, 0};
Point(p15 + 17) = {19.77583144637511, -0.5107235666252505, 0};
Point(p15 + 18) = {19.71110169833345, -0.6669950022364185, 0};
Point(p15 + 19) = {19.67161511933394, -0.8314684406647188, 0};
Point(p15 + 20) = {19.658344, -1.000094, 0};
Point(p15 + 21) = {19.67161511933394, -1.168719559335281, 0};
Point(p15 + 22) = {19.71110169833345, -1.333192997763582, 0};
Point(p15 + 23) = {19.77583144637511, -1.489464433374749, 0};
Point(p15 + 24) = {19.86421050223642, -1.633685944788878, 0};
Point(p15 + 25) = {19.9740626802488, -1.762306319751196, 0};
Point(p15 + 26) = {20.10268305521112, -1.872158497763581, 0};
Point(p15 + 27) = {20.24690456662525, -1.960537553624891, 0};
Point(p15 + 28) = {20.40317600223642, -2.025267301666551, 0};
Point(p15 + 29) = {20.56764944066472, -2.064753880666057, 0};
Point(p15 + 30) = {20.736275, -2.078025, 0};
Point(p15 + 31) = {20.90490055933528, -2.064753880666057, 0};
Point(p15 + 32) = {21.06937399776358, -2.025267301666551, 0};
Point(p15 + 33) = {21.22564543337475, -1.960537553624892, 0};
Point(p15 + 34) = {21.36986694478888, -1.872158497763582, 0};
Point(p15 + 35) = {21.4984873197512, -1.762306319751197, 0};
Point(p15 + 36) = {21.60833949776358, -1.633685944788878, 0};
Point(p15 + 37) = {21.69671855362489, -1.48946443337475, 0};
Point(p15 + 38) = {21.76144830166655, -1.333192997763582, 0};
Point(p15 + 39) = {21.80093488066606, -1.168719559335281, 0};
Spline(15) = {10, p15 + 1, p15 + 2, p15 + 3, p15 + 4, p15 + 5, p15 + 6, p15 + 7, p15 + 8, p15 + 9, p15 + 10, p15 + 11, p15 + 12, p15 + 13, p15 + 14, p15 + 15, p15 + 16, p15 + 17, p15 + 18, p15 + 19, p15 + 20, p15 + 21, p15 + 22, p15 + 23, p15 + 24, p15 + 25, p15 + 26, p15 + 27, p15 + 28, p15 + 29, p15 + 30, p15 + 31, p15 + 32, p15 + 33, p15 + 34, p15 + 35, p15 + 36, p15 + 37, p15 + 38, p15 + 39, 10};
p16 = newp;
Point(p16 + 1) = {8.443913323553309, 1.777792071282922, 0.1};
Point(p16 + 2) = {8.413999849093589, 1.902390659572593, 0.1};
Point(p16 + 3) = {8.364963145639173, 2.020775734106314, 0.1};
Point(p16 + 4) = {8.298010659572594, 2.130032261451529, 0.1};
Point(p16 + 5) = {8.214790983303372, 2.227469983303372, 0.1};
Point(p16 + 6) = {8.117353261451528, 2.310689659572593, 0.1};
Point(p16 + 7) = {8.008096734106314, 2.377642145639173, 0.1};
Point(p16 + 8) = {7.889711659572593, 2.42667884909359, 0.1};
Point(p16 + 9) = {7.765113071282922, 2.456592323553308, 0.1};
Point(p16 + 10) = {7.637369, 2.466646, 0.1};
Point(p16 + 11) = {7.509624928717077, 2.456592323553308, 0.1};
Point(p16 + 12) = {7.385026340427406, 2.42667884909359, 0.1};
Point(p16 + 13) = {7.266641265893686, 2.377642145639173, 0.1};
Point(p16 + 14) = {7.157384738548471, 2.310689659572593, 0.1};
Point(p16 + 15) = {7.059947016696627, 2.227469983303372, 0.1};
Point(p16 + 16) = {6.976727340427407, 2.130032261451529, 0.1};
Point(p16 + 17) = {6.909774854360827, 2.020775734106314, 0.1};
Point(p16 + 18) = {6.86073815090641, 1.902390659572593, 0.1};
Point(p16 + 19) = {6.830824676446691, 1.777792071282922, 0.1};
Point(p16 + 20) = {6.820771, 1.650048, 0.1};
Point(p16 + 21) = {6.830824676446691, 1.522303928717078, 0.1};
Point(p16 + 22) = {6.86073815090641, 1.397705340427406, 0.1};
Point(p16 + 23) = {6.909774854360826, 1.279320265893686, 0.1};
Point(p16 + 24) = {6.976727340427407, 1.170063738548471, 0.1};
Point(p16 + 25) = {7.059947016696627, 1.072626016696628, 0.1};
Point(p16 + 26) = {7.157384738548471, 0.9894063404274067, 0.1};
Point(p16 + 27) = {7.266641265893685, 0.9224538543608272, 0.1};
Point(p16 + 28) = {7.385026340427406, 0.8734171509064101, 0.1};
Point(p16 + 29) = {7.509624928717077, 0.8435036764466917, 0.1};
Point(p16 + 30) = {7.637369, 0.8334499999999999, 0.1};
Point(p16 + 31) = {7.765113071282922, 0.8435036764466916, 0.1};
Point(p16 + 32) = {7.889711659572593, 0.87341715090641, 0.1};
Point(p16 + 33) = {8.008096734106314, 0.9224538543608269, 0.1};
Point(p16 + 34) = {8.117353261451528, 0.9894063404274065, 0.1};
Point(p16 + 35) = {8.214790983303372, 1.072626016696627, 0.1};
Point(p16 + 36) = {8.298010659572594, 1.170063738548471, 0.1};
Point(p16 + 37) = {8.364963145639173, 1.279320265893685, 0.1};
Point(p16 + 38) = {8.413999849093589, 1.397705340427406, 0.1};
Point(p16 + 39) = {8.443913323553307, 1.522303928717077, 0.1};
Spline(16) = {11, p16 + 1, p16 + 2, p16 + 3, p16 + 4, p16 + 5, p16 + 6, p16 + 7, p16 + 8, p16 + 9, p16 + 10, p16 + 11, p16 + 12, p16 + 13, p16 + 14, p16 + 15, p16 + 16, p16 + 17, p16 + 18, p16 + 19, p16 + 20, p16 + 21, p16 + 22, p16 + 23, p16 + 24, p16 + 25, p16 + 26, p16 + 27, p16 + 28, p16 + 29, p16 + 30, p16 + 31, p16 + 32, p16 + 33, p16 + 34, p16 + 35, p16 + 36, p16 + 37, p16 + 38, p16 + 39, 11};
Line(17) = {12, 11};
p18 = newp;
Point(p18 + 1) = {8.443913323553309, 1.777792071282922, 0};
Point(p18 + 2) = {8.413999849093589, 1.902390659572593, 0};
Point(p18 + 3) = {8.364963145639173, 2.020775734106314, 0};
Point(p18 + 4) = {8.298010659572594, 2.130032261451529, 0};
Point(p18 + 5) = {8.214790983303372, 2.227469983303372, 0};
Point(p18 + 6) = {8.117353261451528, 2.310689659572593, 0};
Point(p18 + 7) = {8.008096734106314, 2.377642145639173, 0};
Point(p18 + 8) = {7.889711659572593, 2.42667884909359, 0};
Point(p18 + 9) = {7.765113071282922, 2.456592323553308, 0};
Point(p18 + 10) = {7.637369, 2.466646, 0};
Point(p18 + 11) = {7.509624928717077, 2.456592323553308, 0};
Point(p18 + 12) = {7.385026340427406, 2.42667884909359, 0};
Point(p18 + 13) = {7.266641265893686, 2.377642145639173, 0};
Point(p18 + 14) = {7.157384738548471, 2.310689659572593, 0};
Point(p18 + 15) = {7.059947016696627, 2.227469983303372, 0};
Point(p18 + 16) = {6.976727340427407, 2.130032261451529, 0};
Point(p18 + 17) = {6.909774854360827, 2.020775734106314, 0};
Point(p18 + 18) = {6.86073815090641, 1.902390659572593, 0};
Point(p18 + 19) = {6.830824676446691, 1.777792071282922, 0};
Point(p18 + 20) = {6.820771, 1.650048, 0};
Point(p18 + 21) = {6.830824676446691, 1.522303928717078, 0};
Point(p18 + 22) = {6.86073815090641, 1.397705340427406, 0};
Point(p18 + 23) = {6.909774854360826, 1.279320265893686, 0};
Point(p18 + 24) = {6.976727340427407, 1.170063738548471, 0};
Point(p18 + 25) = {7.059947016696627, 1.072626016696628, 0};
Point(p18 + 26) = {7.157384738548471, 0.9894063404274067, 0};
Point(p18 + 27) = {7.266641265893685, 0.9224538543608272, 0};
Point(p18 + 28) = {7.385026340427406, 0.8734171509064101, 0};
Point(p18 + 29) = {7.509624928717077, 0.8435036764466917, 0};
Point(p18 + 30) = {7.637369, 0.8334499999999999, 0};
Point(p18 + 31) = {7.765113071282922, 0.8435036764466916, 0};
Point(p18 + 32) = {7.889711659572593, 0.87341715090641, 0};
Point(p18 + 33) = {8.008096734106314, 0.9224538543608269, 0};
Point(p18 + 34) = {8.117353261451528, 0.9894063404274065, 0};
Point(p18 + 35) = {8.214790983303372, 1.072626016696627, 0};
Point(p18 + 36) = {8.298010659572594, 1.170063738548471, 0};
Point(p18 + 37) = {8.364963145639173, 1.279320265893685, 0};
Point(p18 + 38) = {8.413999849093589, 1.397705340427406, 0};
Point(p18 + 39) = {8.443913323553307, 1.522303928717077, 0};
Spline(18) = {12, p18 + 1, p18 + 2, p18 + 3, p18 + 4, p18 + 5, p18 + 6, p18 + 7, p18 + 8, p18 + 9, p18 + 10, p18 + 11, p18 + 12, p18 + 13, p18 + 14, p18 + 15, p18 + 16, p18 + 17, p18 + 18, p18 + 19, p18 + 20, p18 + 21, p18 + 22, p18 + 23, p18 + 24, p18 + 25, p18 + 26, p18 + 27, p18 + 28, p18 + 29, p18 + 30, p18 + 31, p18 + 32, p18 + 33, p18 + 34, p18 + 35, p18 + 36, p18 + 37, p18 + 38, p18 + 39, 12};
Line(19) = {14, 13};
Line(20) = {13, 15};
Line(21) = {16, 15};
Line(22) = {14, 16};
Line(23) = {14, 17};
Line(24) = {17, 18};
Line(25) = {13, 18};
Line(26) = {15, 19};
Line(27) = {18, 19};
Line(28) = {16, 20};
Line(29) = {20, 19};
Line(30) = {17, 20};
Curve Loop(7) = {-13, -14, 15, 14};
Surface(7) = {7};
Curve Loop(8) = {13};
Plane Surface(8) = {8};
Curve Loop(9) = {15};
Plane Surface(9) = {9};
Curve Loop(10) = {-16, -17, 18, 17};
Surface(10) = {10};
Curve Loop(11) = {16};
Plane Surface(11) = {11};
Curve Loop(12) = {18};
Plane Surface(12) = {12};
Curve Loop(13) = {-19, 22, 21, -20};
Plane Surface(13) = {13};
Curve Loop(14) = {-23, 19, 25, -24};
Plane Surface(14) = {14};
Curve Loop(15) = {-20, 25, 27, -26, -13, -16};
Plane Surface(15) = {15};
Curve Loop(16) = {-28, 21, 26, -29};
Plane Surface(16) = {16};
Curve Loop(17) = {-22, 23, 30, -28, -15, -18};
Plane Surface(17) = {17};
Curve Loop(18) = {-24, 30, 29, -27};
Plane Surface(18) = {18};
Surface Loop(1) = {13, 14, 15, 16, 17, 18, 7, 10};
Volume(1) = {1};
Surface Loop(2) = {7, 8, 9};
Volume(2) = {2};
Surface Loop(3) = {10, 11, 12};
Volume(3) = {3};
Physical Surface("WALLS") = {13, 18};
Physical Surface("LOAD") = {8, 11};
Physical Surface("BORDER") = {7, 9, 10, 12, 14, 15, 16, 17};
Physical Volume("SOLID") = {1, 2, 3};
