cl__1 = 0.095244;
cl__2 = 0.051242;
cl__3 = 1.205624;
cl__4 = 1.201405;
cl__5 = 1.506714;
cl__6 = 0.726191;
Point(9) = {24.933486, 3.196996, 0.1, cl__1};
Point(10) = {24.933486, 3.196996, 0, cl__1};
Point(11) = {7.73998, 0.5819719999999999, 0.1, cl__2};
Point(12) = {7.73998, 0.5819719999999999, 0, cl__2};
Point(13) = {0.14897, -4.401529, 0.1, cl__3};
Point(14) = {0.14897, -4.401529, 0, cl__3};
Point(15) = {0.14897, 5.548931, 0.1, cl__4};
Point(16) = {0.14897, 5.548931, 0, cl__4};
Point(17) = {30.050776, -4.401529, 0, cl__5};
Point(18) = {30.050776, -4.401529, 0.1, cl__5};
Point(19) = {30.050776, 5.548931, 0.1, cl__6};
Point(20) = {30.050776, 5.548931, 0, cl__6};
p13 = newp;
Point(p13 + 1) = {24.92175987080477, 3.345990598317382, 0.1};
Point(p13 + 2) = {24.88687021943667, 3.491316455139469, 0.1};
Point(p13 + 3) = {24.8296761449045, 3.629395165562434, 0.1};
Point(p13 + 4) = {24.75158595513947, 3.756826773478696, 0.1};
Point(p13 + 5) = {24.6545224897801, 3.870473489780097, 0.1};
Point(p13 + 6) = {24.5408757734787, 3.967536955139469, 0.1};
Point(p13 + 7) = {24.41344416556244, 4.045627144904493, 0.1};
Point(p13 + 8) = {24.27536545513947, 4.102821219436672, 0.1};
Point(p13 + 9) = {24.13003959831738, 4.137710870804773, 0.1};
Point(p13 + 10) = {23.981045, 4.149437, 0.1};
Point(p13 + 11) = {23.83205040168262, 4.137710870804773, 0.1};
Point(p13 + 12) = {23.68672454486053, 4.102821219436672, 0.1};
Point(p13 + 13) = {23.54864583443757, 4.045627144904493, 0.1};
Point(p13 + 14) = {23.42121422652131, 3.967536955139469, 0.1};
Point(p13 + 15) = {23.3075675102199, 3.870473489780097, 0.1};
Point(p13 + 16) = {23.21050404486053, 3.756826773478696, 0.1};
Point(p13 + 17) = {23.13241385509551, 3.629395165562434, 0.1};
Point(p13 + 18) = {23.07521978056333, 3.49131645513947, 0.1};
Point(p13 + 19) = {23.04033012919523, 3.345990598317383, 0.1};
Point(p13 + 20) = {23.028604, 3.196996, 0.1};
Point(p13 + 21) = {23.04033012919523, 3.048001401682618, 0.1};
Point(p13 + 22) = {23.07521978056333, 2.90267554486053, 0.1};
Point(p13 + 23) = {23.13241385509551, 2.764596834437567, 0.1};
Point(p13 + 24) = {23.21050404486053, 2.637165226521305, 0.1};
Point(p13 + 25) = {23.3075675102199, 2.523518510219903, 0.1};
Point(p13 + 26) = {23.42121422652131, 2.426455044860531, 0.1};
Point(p13 + 27) = {23.54864583443757, 2.348364855095507, 0.1};
Point(p13 + 28) = {23.68672454486053, 2.291170780563328, 0.1};
Point(p13 + 29) = {23.83205040168262, 2.256281129195226, 0.1};
Point(p13 + 30) = {23.981045, 2.244555, 0.1};
Point(p13 + 31) = {24.13003959831738, 2.256281129195226, 0.1};
Point(p13 + 32) = {24.27536545513947, 2.291170780563327, 0.1};
Point(p13 + 33) = {24.41344416556244, 2.348364855095507, 0.1};
Point(p13 + 34) = {24.5408757734787, 2.426455044860531, 0.1};
Point(p13 + 35) = {24.6545224897801, 2.523518510219903, 0.1};
Point(p13 + 36) = {24.75158595513947, 2.637165226521304, 0.1};
Point(p13 + 37) = {24.8296761449045, 2.764596834437566, 0.1};
Point(p13 + 38) = {24.88687021943667, 2.90267554486053, 0.1};
Point(p13 + 39) = {24.92175987080477, 3.048001401682617, 0.1};
Spline(13) = {9, p13 + 1, p13 + 2, p13 + 3, p13 + 4, p13 + 5, p13 + 6, p13 + 7, p13 + 8, p13 + 9, p13 + 10, p13 + 11, p13 + 12, p13 + 13, p13 + 14, p13 + 15, p13 + 16, p13 + 17, p13 + 18, p13 + 19, p13 + 20, p13 + 21, p13 + 22, p13 + 23, p13 + 24, p13 + 25, p13 + 26, p13 + 27, p13 + 28, p13 + 29, p13 + 30, p13 + 31, p13 + 32, p13 + 33, p13 + 34, p13 + 35, p13 + 36, p13 + 37, p13 + 38, p13 + 39, 9};
Line(14) = {10, 9};
p15 = newp;
Point(p15 + 1) = {24.92175987080477, 3.345990598317382, 0};
Point(p15 + 2) = {24.88687021943667, 3.491316455139469, 0};
Point(p15 + 3) = {24.8296761449045, 3.629395165562434, 0};
Point(p15 + 4) = {24.75158595513947, 3.756826773478696, 0};
Point(p15 + 5) = {24.6545224897801, 3.870473489780097, 0};
Point(p15 + 6) = {24.5408757734787, 3.967536955139469, 0};
Point(p15 + 7) = {24.41344416556244, 4.045627144904493, 0};
Point(p15 + 8) = {24.27536545513947, 4.102821219436672, 0};
Point(p15 + 9) = {24.13003959831738, 4.137710870804773, 0};
Point(p15 + 10) = {23.981045, 4.149437, 0};
Point(p15 + 11) = {23.83205040168262, 4.137710870804773, 0};
Point(p15 + 12) = {23.68672454486053, 4.102821219436672, 0};
Point(p15 + 13) = {23.54864583443757, 4.045627144904493, 0};
Point(p15 + 14) = {23.42121422652131, 3.967536955139469, 0};
Point(p15 + 15) = {23.3075675102199, 3.870473489780097, 0};
Point(p15 + 16) = {23.21050404486053, 3.756826773478696, 0};
Point(p15 + 17) = {23.13241385509551, 3.629395165562434, 0};
Point(p15 + 18) = {23.07521978056333, 3.49131645513947, 0};
Point(p15 + 19) = {23.04033012919523, 3.345990598317383, 0};
Point(p15 + 20) = {23.028604, 3.196996, 0};
Point(p15 + 21) = {23.04033012919523, 3.048001401682618, 0};
Point(p15 + 22) = {23.07521978056333, 2.90267554486053, 0};
Point(p15 + 23) = {23.13241385509551, 2.764596834437567, 0};
Point(p15 + 24) = {23.21050404486053, 2.637165226521305, 0};
Point(p15 + 25) = {23.3075675102199, 2.523518510219903, 0};
Point(p15 + 26) = {23.42121422652131, 2.426455044860531, 0};
Point(p15 + 27) = {23.54864583443757, 2.348364855095507, 0};
Point(p15 + 28) = {23.68672454486053, 2.291170780563328, 0};
Point(p15 + 29) = {23.83205040168262, 2.256281129195226, 0};
Point(p15 + 30) = {23.981045, 2.244555, 0};
Point(p15 + 31) = {24.13003959831738, 2.256281129195226, 0};
Point(p15 + 32) = {24.27536545513947, 2.291170780563327, 0};
Point(p15 + 33) = {24.41344416556244, 2.348364855095507, 0};
Point(p15 + 34) = {24.5408757734787, 2.426455044860531, 0};
Point(p15 + 35) = {24.6545224897801, 2.523518510219903, 0};
Point(p15 + 36) = {24.75158595513947, 2.637165226521304, 0};
Point(p15 + 37) = {24.8296761449045, 2.764596834437566, 0};
Point(p15 + 38) = {24.88687021943667, 2.90267554486053, 0};
Point(p15 + 39) = {24.92175987080477, 3.048001401682617, 0};
Spline(15) = {10, p15 + 1, p15 + 2, p15 + 3, p15 + 4, p15 + 5, p15 + 6, p15 + 7, p15 + 8, p15 + 9, p15 + 10, p15 + 11, p15 + 12, p15 + 13, p15 + 14, p15 + 15, p15 + 16, p15 + 17, p15 + 18, p15 + 19, p15 + 20, p15 + 21, p15 + 22, p15 + 23, p15 + 24, p15 + 25, p15 + 26, p15 + 27, p15 + 28, p15 + 29, p15 + 30, p15 + 31, p15 + 32, p15 + 33, p15 + 34, p15 + 35, p15 + 36, p15 + 37, p15 + 38, p15 + 39, 10};
p16 = newp;
Point(p16 + 1) = {7.733671222552783, 0.6621326178793102, 0.1};
Point(p16 + 2) = {7.714900233249511, 0.7403194153085937, 0.1};
Point(p16 + 3) = {7.684129236144176, 0.8146071738480378, 0.1};
Point(p16 + 4) = {7.642115915308594, 0.883166682335466, 0.1};
Point(p16 + 5) = {7.589894778135954, 0.9443097781359542, 0.1};
Point(p16 + 6) = {7.528751682335466, 0.9965309153085937, 0.1};
Point(p16 + 7) = {7.460192173848037, 1.038544236144176, 0.1};
Point(p16 + 8) = {7.385904415308594, 1.069315233249511, 0.1};
Point(p16 + 9) = {7.307717617879311, 1.088086222552782, 0.1};
Point(p16 + 10) = {7.227557, 1.094395, 0.1};
Point(p16 + 11) = {7.147396382120689, 1.088086222552782, 0.1};
Point(p16 + 12) = {7.069209584691406, 1.069315233249511, 0.1};
Point(p16 + 13) = {6.994921826151963, 1.038544236144176, 0.1};
Point(p16 + 14) = {6.926362317664534, 0.9965309153085937, 0.1};
Point(p16 + 15) = {6.865219221864046, 0.9443097781359543, 0.1};
Point(p16 + 16) = {6.812998084691406, 0.883166682335466, 0.1};
Point(p16 + 17) = {6.770984763855824, 0.8146071738480378, 0.1};
Point(p16 + 18) = {6.740213766750489, 0.7403194153085938, 0.1};
Point(p16 + 19) = {6.721442777447217, 0.6621326178793103, 0.1};
Point(p16 + 20) = {6.715134, 0.5819720000000002, 0.1};
Point(p16 + 21) = {6.721442777447217, 0.5018113821206899, 0.1};
Point(p16 + 22) = {6.740213766750489, 0.4236245846914062, 0.1};
Point(p16 + 23) = {6.770984763855824, 0.3493368261519625, 0.1};
Point(p16 + 24) = {6.812998084691406, 0.2807773176645342, 0.1};
Point(p16 + 25) = {6.865219221864046, 0.2196342218640459, 0.1};
Point(p16 + 26) = {6.926362317664534, 0.1674130846914064, 0.1};
Point(p16 + 27) = {6.994921826151963, 0.1253997638558241, 0.1};
Point(p16 + 28) = {7.069209584691406, 0.09462876675048865, 0.1};
Point(p16 + 29) = {7.147396382120689, 0.07585777744721789, 0.1};
Point(p16 + 30) = {7.227557, 0.06954900000000008, 0.1};
Point(p16 + 31) = {7.30771761787931, 0.07585777744721778, 0.1};
Point(p16 + 32) = {7.385904415308594, 0.09462876675048859, 0.1};
Point(p16 + 33) = {7.460192173848037, 0.125399763855824, 0.1};
Point(p16 + 34) = {7.528751682335466, 0.1674130846914063, 0.1};
Point(p16 + 35) = {7.589894778135954, 0.2196342218640457, 0.1};
Point(p16 + 36) = {7.642115915308594, 0.2807773176645341, 0.1};
Point(p16 + 37) = {7.684129236144176, 0.3493368261519622, 0.1};
Point(p16 + 38) = {7.714900233249511, 0.4236245846914063, 0.1};
Point(p16 + 39) = {7.733671222552783, 0.5018113821206897, 0.1};
Spline(16) = {11, p16 + 1, p16 + 2, p16 + 3, p16 + 4, p16 + 5, p16 + 6, p16 + 7, p16 + 8, p16 + 9, p16 + 10, p16 + 11, p16 + 12, p16 + 13, p16 + 14, p16 + 15, p16 + 16, p16 + 17, p16 + 18, p16 + 19, p16 + 20, p16 + 21, p16 + 22, p16 + 23, p16 + 24, p16 + 25, p16 + 26, p16 + 27, p16 + 28, p16 + 29, p16 + 30, p16 + 31, p16 + 32, p16 + 33, p16 + 34, p16 + 35, p16 + 36, p16 + 37, p16 + 38, p16 + 39, 11};
Line(17) = {12, 11};
p18 = newp;
Point(p18 + 1) = {7.733671222552783, 0.6621326178793102, 0};
Point(p18 + 2) = {7.714900233249511, 0.7403194153085937, 0};
Point(p18 + 3) = {7.684129236144176, 0.8146071738480378, 0};
Point(p18 + 4) = {7.642115915308594, 0.883166682335466, 0};
Point(p18 + 5) = {7.589894778135954, 0.9443097781359542, 0};
Point(p18 + 6) = {7.528751682335466, 0.9965309153085937, 0};
Point(p18 + 7) = {7.460192173848037, 1.038544236144176, 0};
Point(p18 + 8) = {7.385904415308594, 1.069315233249511, 0};
Point(p18 + 9) = {7.307717617879311, 1.088086222552782, 0};
Point(p18 + 10) = {7.227557, 1.094395, 0};
Point(p18 + 11) = {7.147396382120689, 1.088086222552782, 0};
Point(p18 + 12) = {7.069209584691406, 1.069315233249511, 0};
Point(p18 + 13) = {6.994921826151963, 1.038544236144176, 0};
Point(p18 + 14) = {6.926362317664534, 0.9965309153085937, 0};
Point(p18 + 15) = {6.865219221864046, 0.9443097781359543, 0};
Point(p18 + 16) = {6.812998084691406, 0.883166682335466, 0};
Point(p18 + 17) = {6.770984763855824, 0.8146071738480378, 0};
Point(p18 + 18) = {6.740213766750489, 0.7403194153085938, 0};
Point(p18 + 19) = {6.721442777447217, 0.6621326178793103, 0};
Point(p18 + 20) = {6.715134, 0.5819720000000002, 0};
Point(p18 + 21) = {6.721442777447217, 0.5018113821206899, 0};
Point(p18 + 22) = {6.740213766750489, 0.4236245846914062, 0};
Point(p18 + 23) = {6.770984763855824, 0.3493368261519625, 0};
Point(p18 + 24) = {6.812998084691406, 0.2807773176645342, 0};
Point(p18 + 25) = {6.865219221864046, 0.2196342218640459, 0};
Point(p18 + 26) = {6.926362317664534, 0.1674130846914064, 0};
Point(p18 + 27) = {6.994921826151963, 0.1253997638558241, 0};
Point(p18 + 28) = {7.069209584691406, 0.09462876675048865, 0};
Point(p18 + 29) = {7.147396382120689, 0.07585777744721789, 0};
Point(p18 + 30) = {7.227557, 0.06954900000000008, 0};
Point(p18 + 31) = {7.30771761787931, 0.07585777744721778, 0};
Point(p18 + 32) = {7.385904415308594, 0.09462876675048859, 0};
Point(p18 + 33) = {7.460192173848037, 0.125399763855824, 0};
Point(p18 + 34) = {7.528751682335466, 0.1674130846914063, 0};
Point(p18 + 35) = {7.589894778135954, 0.2196342218640457, 0};
Point(p18 + 36) = {7.642115915308594, 0.2807773176645341, 0};
Point(p18 + 37) = {7.684129236144176, 0.3493368261519622, 0};
Point(p18 + 38) = {7.714900233249511, 0.4236245846914063, 0};
Point(p18 + 39) = {7.733671222552783, 0.5018113821206897, 0};
Spline(18) = {12, p18 + 1, p18 + 2, p18 + 3, p18 + 4, p18 + 5, p18 + 6, p18 + 7, p18 + 8, p18 + 9, p18 + 10, p18 + 11, p18 + 12, p18 + 13, p18 + 14, p18 + 15, p18 + 16, p18 + 17, p18 + 18, p18 + 19, p18 + 20, p18 + 21, p18 + 22, p18 + 23, p18 + 24, p18 + 25, p18 + 26, p18 + 27, p18 + 28, p18 + 29, p18 + 30, p18 + 31, p18 + 32, p18 + 33, p18 + 34, p18 + 35, p18 + 36, p18 + 37, p18 + 38, p18 + 39, 12};
Line(19) = {14, 13};
Line(20) = {13, 15};
Line(21) = {16, 15};
Line(22) = {14, 16};
Line(23) = {14, 17};
Line(24) = {17, 18};
Line(25) = {13, 18};
Line(26) = {15, 19};
Line(27) = {18, 19};
Line(28) = {16, 20};
Line(29) = {20, 19};
Line(30) = {17, 20};
Curve Loop(7) = {-13, -14, 15, 14};
Surface(7) = {7};
Curve Loop(8) = {13};
Plane Surface(8) = {8};
Curve Loop(9) = {15};
Plane Surface(9) = {9};
Curve Loop(10) = {-16, -17, 18, 17};
Surface(10) = {10};
Curve Loop(11) = {16};
Plane Surface(11) = {11};
Curve Loop(12) = {18};
Plane Surface(12) = {12};
Curve Loop(13) = {-19, 22, 21, -20};
Plane Surface(13) = {13};
Curve Loop(14) = {-23, 19, 25, -24};
Plane Surface(14) = {14};
Curve Loop(15) = {-20, 25, 27, -26, -16, -13};
Plane Surface(15) = {15};
Curve Loop(16) = {-28, 21, 26, -29};
Plane Surface(16) = {16};
Curve Loop(17) = {-22, 23, 30, -28, -18, -15};
Plane Surface(17) = {17};
Curve Loop(18) = {-24, 30, 29, -27};
Plane Surface(18) = {18};
Surface Loop(1) = {13, 14, 15, 16, 17, 18, 10, 7};
Volume(1) = {1};
Surface Loop(2) = {7, 8, 9};
Volume(2) = {2};
Surface Loop(3) = {10, 11, 12};
Volume(3) = {3};
Physical Surface("WALLS") = {13, 18};
Physical Surface("LOAD") = {8, 11};
Physical Surface("BORDER") = {7, 9, 10, 12, 14, 15, 16, 17};
Physical Volume("SOLID") = {1, 2, 3};
