cl__1 = 0.088847;
cl__2 = 0.147799;
cl__3 = 5.923454;
cl__4 = 5.602888;
cl__5 = 0.164721;
cl__6 = 0.249805;
Point(9) = {33.938887, 2.791484, 0.1, cl__1};
Point(10) = {33.938887, 2.791484, 0, cl__1};
Point(11) = {36.161431, -0.8353400000000003, 0.1, cl__2};
Point(12) = {36.161431, -0.8353400000000003, 0, cl__2};
Point(13) = {0.958484, -3.539712, 0.1, cl__3};
Point(14) = {0.958484, -3.539712, 0, cl__3};
Point(15) = {0.958484, 4.265421999999999, 0.1, cl__4};
Point(16) = {0.958484, 4.265421999999999, 0, cl__4};
Point(17) = {38.122503, -3.539712, 0, cl__5};
Point(18) = {38.122503, -3.539712, 0.1, cl__5};
Point(19) = {38.122503, 4.265421999999999, 0.1, cl__6};
Point(20) = {38.122503, 4.265421999999999, 0, cl__6};
p13 = newp;
Point(p13 + 1) = {33.9279484476569, 2.930471485588759, 0.1};
Point(p13 + 2) = {33.89540213408927, 3.066036638009304, 0.1};
Point(p13 + 3) = {33.84204945755216, 3.194841393294095, 0.1};
Point(p13 + 4) = {33.7692041380093, 3.313714150889546, 0.1};
Point(p13 + 5) = {33.67865986898759, 3.419727868987593, 0.1};
Point(p13 + 6) = {33.57264615088955, 3.510272138009304, 0.1};
Point(p13 + 7) = {33.45377339329409, 3.583117457552163, 0.1};
Point(p13 + 8) = {33.3249686380093, 3.636470134089271, 0.1};
Point(p13 + 9) = {33.18940348558876, 3.669016447656903, 0.1};
Point(p13 + 10) = {33.050416, 3.679955, 0.1};
Point(p13 + 11) = {32.91142851441124, 3.669016447656903, 0.1};
Point(p13 + 12) = {32.77586336199069, 3.636470134089271, 0.1};
Point(p13 + 13) = {32.6470586067059, 3.583117457552163, 0.1};
Point(p13 + 14) = {32.52818584911045, 3.510272138009304, 0.1};
Point(p13 + 15) = {32.4221721310124, 3.419727868987593, 0.1};
Point(p13 + 16) = {32.3316278619907, 3.313714150889546, 0.1};
Point(p13 + 17) = {32.25878254244783, 3.194841393294095, 0.1};
Point(p13 + 18) = {32.20542986591073, 3.066036638009304, 0.1};
Point(p13 + 19) = {32.17288355234309, 2.930471485588759, 0.1};
Point(p13 + 20) = {32.161945, 2.791484, 0.1};
Point(p13 + 21) = {32.17288355234309, 2.652496514411241, 0.1};
Point(p13 + 22) = {32.20542986591073, 2.516931361990696, 0.1};
Point(p13 + 23) = {32.25878254244783, 2.388126606705906, 0.1};
Point(p13 + 24) = {32.3316278619907, 2.269253849110454, 0.1};
Point(p13 + 25) = {32.4221721310124, 2.163240131012407, 0.1};
Point(p13 + 26) = {32.52818584911045, 2.072695861990696, 0.1};
Point(p13 + 27) = {32.6470586067059, 1.999850542447837, 0.1};
Point(p13 + 28) = {32.77586336199069, 1.946497865910729, 0.1};
Point(p13 + 29) = {32.91142851441124, 1.913951552343097, 0.1};
Point(p13 + 30) = {33.050416, 1.903013, 0.1};
Point(p13 + 31) = {33.18940348558876, 1.913951552343097, 0.1};
Point(p13 + 32) = {33.3249686380093, 1.946497865910729, 0.1};
Point(p13 + 33) = {33.45377339329409, 1.999850542447837, 0.1};
Point(p13 + 34) = {33.57264615088955, 2.072695861990696, 0.1};
Point(p13 + 35) = {33.67865986898759, 2.163240131012407, 0.1};
Point(p13 + 36) = {33.7692041380093, 2.269253849110454, 0.1};
Point(p13 + 37) = {33.84204945755216, 2.388126606705905, 0.1};
Point(p13 + 38) = {33.89540213408927, 2.516931361990696, 0.1};
Point(p13 + 39) = {33.9279484476569, 2.652496514411241, 0.1};
Spline(13) = {9, p13 + 1, p13 + 2, p13 + 3, p13 + 4, p13 + 5, p13 + 6, p13 + 7, p13 + 8, p13 + 9, p13 + 10, p13 + 11, p13 + 12, p13 + 13, p13 + 14, p13 + 15, p13 + 16, p13 + 17, p13 + 18, p13 + 19, p13 + 20, p13 + 21, p13 + 22, p13 + 23, p13 + 24, p13 + 25, p13 + 26, p13 + 27, p13 + 28, p13 + 29, p13 + 30, p13 + 31, p13 + 32, p13 + 33, p13 + 34, p13 + 35, p13 + 36, p13 + 37, p13 + 38, p13 + 39, 9};
Line(14) = {10, 9};
p15 = newp;
Point(p15 + 1) = {33.9279484476569, 2.930471485588759, 0};
Point(p15 + 2) = {33.89540213408927, 3.066036638009304, 0};
Point(p15 + 3) = {33.84204945755216, 3.194841393294095, 0};
Point(p15 + 4) = {33.7692041380093, 3.313714150889546, 0};
Point(p15 + 5) = {33.67865986898759, 3.419727868987593, 0};
Point(p15 + 6) = {33.57264615088955, 3.510272138009304, 0};
Point(p15 + 7) = {33.45377339329409, 3.583117457552163, 0};
Point(p15 + 8) = {33.3249686380093, 3.636470134089271, 0};
Point(p15 + 9) = {33.18940348558876, 3.669016447656903, 0};
Point(p15 + 10) = {33.050416, 3.679955, 0};
Point(p15 + 11) = {32.91142851441124, 3.669016447656903, 0};
Point(p15 + 12) = {32.77586336199069, 3.636470134089271, 0};
Point(p15 + 13) = {32.6470586067059, 3.583117457552163, 0};
Point(p15 + 14) = {32.52818584911045, 3.510272138009304, 0};
Point(p15 + 15) = {32.4221721310124, 3.419727868987593, 0};
Point(p15 + 16) = {32.3316278619907, 3.313714150889546, 0};
Point(p15 + 17) = {32.25878254244783, 3.194841393294095, 0};
Point(p15 + 18) = {32.20542986591073, 3.066036638009304, 0};
Point(p15 + 19) = {32.17288355234309, 2.930471485588759, 0};
Point(p15 + 20) = {32.161945, 2.791484, 0};
Point(p15 + 21) = {32.17288355234309, 2.652496514411241, 0};
Point(p15 + 22) = {32.20542986591073, 2.516931361990696, 0};
Point(p15 + 23) = {32.25878254244783, 2.388126606705906, 0};
Point(p15 + 24) = {32.3316278619907, 2.269253849110454, 0};
Point(p15 + 25) = {32.4221721310124, 2.163240131012407, 0};
Point(p15 + 26) = {32.52818584911045, 2.072695861990696, 0};
Point(p15 + 27) = {32.6470586067059, 1.999850542447837, 0};
Point(p15 + 28) = {32.77586336199069, 1.946497865910729, 0};
Point(p15 + 29) = {32.91142851441124, 1.913951552343097, 0};
Point(p15 + 30) = {33.050416, 1.903013, 0};
Point(p15 + 31) = {33.18940348558876, 1.913951552343097, 0};
Point(p15 + 32) = {33.3249686380093, 1.946497865910729, 0};
Point(p15 + 33) = {33.45377339329409, 1.999850542447837, 0};
Point(p15 + 34) = {33.57264615088955, 2.072695861990696, 0};
Point(p15 + 35) = {33.67865986898759, 2.163240131012407, 0};
Point(p15 + 36) = {33.7692041380093, 2.269253849110454, 0};
Point(p15 + 37) = {33.84204945755216, 2.388126606705905, 0};
Point(p15 + 38) = {33.89540213408927, 2.516931361990696, 0};
Point(p15 + 39) = {33.9279484476569, 2.652496514411241, 0};
Spline(15) = {10, p15 + 1, p15 + 2, p15 + 3, p15 + 4, p15 + 5, p15 + 6, p15 + 7, p15 + 8, p15 + 9, p15 + 10, p15 + 11, p15 + 12, p15 + 13, p15 + 14, p15 + 15, p15 + 16, p15 + 17, p15 + 18, p15 + 19, p15 + 20, p15 + 21, p15 + 22, p15 + 23, p15 + 24, p15 + 25, p15 + 26, p15 + 27, p15 + 28, p15 + 29, p15 + 30, p15 + 31, p15 + 32, p15 + 33, p15 + 34, p15 + 35, p15 + 36, p15 + 37, p15 + 38, p15 + 39, 10};
p16 = newp;
Point(p16 + 1) = {36.14323445358123, -0.604130955711794, 0.1};
Point(p16 + 2) = {36.08909287368863, -0.3786150454327884, 0.1};
Point(p16 + 3) = {36.00033940570474, -0.1643452193184481, 0.1};
Point(p16 + 4) = {35.87915945456722, 0.03340248839150917, 0.1};
Point(p16 + 5) = {35.72853687284625, 0.2097588728462487, 0.1};
Point(p16 + 6) = {35.55218048839151, 0.3603814545672115, 0.1};
Point(p16 + 7) = {35.35443278068156, 0.4815614057047382, 0.1};
Point(p16 + 8) = {35.14016295456722, 0.5703148736886228, 0.1};
Point(p16 + 9) = {34.91464704428821, 0.6244564535812294, 0.1};
Point(p16 + 10) = {34.683438, 0.6426529999999999, 0.1};
Point(p16 + 11) = {34.4522289557118, 0.6244564535812291, 0.1};
Point(p16 + 12) = {34.22671304543279, 0.570314873688623, 0.1};
Point(p16 + 13) = {34.01244321931845, 0.4815614057047384, 0.1};
Point(p16 + 14) = {33.81469551160849, 0.3603814545672117, 0.1};
Point(p16 + 15) = {33.63833912715376, 0.2097588728462489, 0.1};
Point(p16 + 16) = {33.48771654543279, 0.03340248839150939, 0.1};
Point(p16 + 17) = {33.36653659429526, -0.1643452193184479, 0.1};
Point(p16 + 18) = {33.27778312631138, -0.3786150454327882, 0.1};
Point(p16 + 19) = {33.22364154641878, -0.6041309557117939, 0.1};
Point(p16 + 20) = {33.205445, -0.8353399999999997, 0.1};
Point(p16 + 21) = {33.22364154641878, -1.066549044288206, 0.1};
Point(p16 + 22) = {33.27778312631138, -1.292064954567212, 0.1};
Point(p16 + 23) = {33.36653659429526, -1.506334780681551, 0.1};
Point(p16 + 24) = {33.48771654543279, -1.704082488391509, 0.1};
Point(p16 + 25) = {33.63833912715376, -1.880438872846249, 0.1};
Point(p16 + 26) = {33.81469551160849, -2.031061454567212, 0.1};
Point(p16 + 27) = {34.01244321931845, -2.152241405704738, 0.1};
Point(p16 + 28) = {34.22671304543279, -2.240994873688622, 0.1};
Point(p16 + 29) = {34.4522289557118, -2.295136453581229, 0.1};
Point(p16 + 30) = {34.683438, -2.313333, 0.1};
Point(p16 + 31) = {34.91464704428821, -2.295136453581229, 0.1};
Point(p16 + 32) = {35.14016295456722, -2.240994873688623, 0.1};
Point(p16 + 33) = {35.35443278068156, -2.152241405704738, 0.1};
Point(p16 + 34) = {35.55218048839151, -2.031061454567212, 0.1};
Point(p16 + 35) = {35.72853687284625, -1.880438872846249, 0.1};
Point(p16 + 36) = {35.87915945456722, -1.704082488391509, 0.1};
Point(p16 + 37) = {36.00033940570474, -1.506334780681552, 0.1};
Point(p16 + 38) = {36.08909287368863, -1.292064954567212, 0.1};
Point(p16 + 39) = {36.14323445358123, -1.066549044288206, 0.1};
Spline(16) = {11, p16 + 1, p16 + 2, p16 + 3, p16 + 4, p16 + 5, p16 + 6, p16 + 7, p16 + 8, p16 + 9, p16 + 10, p16 + 11, p16 + 12, p16 + 13, p16 + 14, p16 + 15, p16 + 16, p16 + 17, p16 + 18, p16 + 19, p16 + 20, p16 + 21, p16 + 22, p16 + 23, p16 + 24, p16 + 25, p16 + 26, p16 + 27, p16 + 28, p16 + 29, p16 + 30, p16 + 31, p16 + 32, p16 + 33, p16 + 34, p16 + 35, p16 + 36, p16 + 37, p16 + 38, p16 + 39, 11};
Line(17) = {12, 11};
p18 = newp;
Point(p18 + 1) = {36.14323445358123, -0.604130955711794, 0};
Point(p18 + 2) = {36.08909287368863, -0.3786150454327884, 0};
Point(p18 + 3) = {36.00033940570474, -0.1643452193184481, 0};
Point(p18 + 4) = {35.87915945456722, 0.03340248839150917, 0};
Point(p18 + 5) = {35.72853687284625, 0.2097588728462487, 0};
Point(p18 + 6) = {35.55218048839151, 0.3603814545672115, 0};
Point(p18 + 7) = {35.35443278068156, 0.4815614057047382, 0};
Point(p18 + 8) = {35.14016295456722, 0.5703148736886228, 0};
Point(p18 + 9) = {34.91464704428821, 0.6244564535812294, 0};
Point(p18 + 10) = {34.683438, 0.6426529999999999, 0};
Point(p18 + 11) = {34.4522289557118, 0.6244564535812291, 0};
Point(p18 + 12) = {34.22671304543279, 0.570314873688623, 0};
Point(p18 + 13) = {34.01244321931845, 0.4815614057047384, 0};
Point(p18 + 14) = {33.81469551160849, 0.3603814545672117, 0};
Point(p18 + 15) = {33.63833912715376, 0.2097588728462489, 0};
Point(p18 + 16) = {33.48771654543279, 0.03340248839150939, 0};
Point(p18 + 17) = {33.36653659429526, -0.1643452193184479, 0};
Point(p18 + 18) = {33.27778312631138, -0.3786150454327882, 0};
Point(p18 + 19) = {33.22364154641878, -0.6041309557117939, 0};
Point(p18 + 20) = {33.205445, -0.8353399999999997, 0};
Point(p18 + 21) = {33.22364154641878, -1.066549044288206, 0};
Point(p18 + 22) = {33.27778312631138, -1.292064954567212, 0};
Point(p18 + 23) = {33.36653659429526, -1.506334780681551, 0};
Point(p18 + 24) = {33.48771654543279, -1.704082488391509, 0};
Point(p18 + 25) = {33.63833912715376, -1.880438872846249, 0};
Point(p18 + 26) = {33.81469551160849, -2.031061454567212, 0};
Point(p18 + 27) = {34.01244321931845, -2.152241405704738, 0};
Point(p18 + 28) = {34.22671304543279, -2.240994873688622, 0};
Point(p18 + 29) = {34.4522289557118, -2.295136453581229, 0};
Point(p18 + 30) = {34.683438, -2.313333, 0};
Point(p18 + 31) = {34.91464704428821, -2.295136453581229, 0};
Point(p18 + 32) = {35.14016295456722, -2.240994873688623, 0};
Point(p18 + 33) = {35.35443278068156, -2.152241405704738, 0};
Point(p18 + 34) = {35.55218048839151, -2.031061454567212, 0};
Point(p18 + 35) = {35.72853687284625, -1.880438872846249, 0};
Point(p18 + 36) = {35.87915945456722, -1.704082488391509, 0};
Point(p18 + 37) = {36.00033940570474, -1.506334780681552, 0};
Point(p18 + 38) = {36.08909287368863, -1.292064954567212, 0};
Point(p18 + 39) = {36.14323445358123, -1.066549044288206, 0};
Spline(18) = {12, p18 + 1, p18 + 2, p18 + 3, p18 + 4, p18 + 5, p18 + 6, p18 + 7, p18 + 8, p18 + 9, p18 + 10, p18 + 11, p18 + 12, p18 + 13, p18 + 14, p18 + 15, p18 + 16, p18 + 17, p18 + 18, p18 + 19, p18 + 20, p18 + 21, p18 + 22, p18 + 23, p18 + 24, p18 + 25, p18 + 26, p18 + 27, p18 + 28, p18 + 29, p18 + 30, p18 + 31, p18 + 32, p18 + 33, p18 + 34, p18 + 35, p18 + 36, p18 + 37, p18 + 38, p18 + 39, 12};
Line(19) = {14, 13};
Line(20) = {13, 15};
Line(21) = {16, 15};
Line(22) = {14, 16};
Line(23) = {14, 17};
Line(24) = {17, 18};
Line(25) = {13, 18};
Line(26) = {15, 19};
Line(27) = {18, 19};
Line(28) = {16, 20};
Line(29) = {20, 19};
Line(30) = {17, 20};
Curve Loop(7) = {-13, -14, 15, 14};
Surface(7) = {7};
Curve Loop(8) = {13};
Plane Surface(8) = {8};
Curve Loop(9) = {15};
Plane Surface(9) = {9};
Curve Loop(10) = {-16, -17, 18, 17};
Surface(10) = {10};
Curve Loop(11) = {16};
Plane Surface(11) = {11};
Curve Loop(12) = {18};
Plane Surface(12) = {12};
Curve Loop(13) = {-19, 22, 21, -20};
Plane Surface(13) = {13};
Curve Loop(14) = {-23, 19, 25, -24};
Plane Surface(14) = {14};
Curve Loop(15) = {-20, 25, 27, -26, -16, -13};
Plane Surface(15) = {15};
Curve Loop(16) = {-28, 21, 26, -29};
Plane Surface(16) = {16};
Curve Loop(17) = {-22, 23, 30, -28, -18, -15};
Plane Surface(17) = {17};
Curve Loop(18) = {-24, 30, 29, -27};
Plane Surface(18) = {18};
Surface Loop(1) = {13, 14, 15, 16, 17, 18, 10, 7};
Volume(1) = {1};
Surface Loop(2) = {7, 8, 9};
Volume(2) = {2};
Surface Loop(3) = {10, 11, 12};
Volume(3) = {3};
Physical Surface("WALLS") = {13, 18};
Physical Surface("LOAD") = {8, 11};
Physical Surface("BORDER") = {7, 9, 10, 12, 14, 15, 16, 17};
Physical Volume("SOLID") = {1, 2, 3};
