cl__1 = 0.054656;
cl__2 = 0.08982999999999999;
cl__3 = 4.416923;
cl__4 = 4.192113;
cl__5 = 0.312268;
cl__6 = 0.434573;
Point(9) = {28.019579, -0.2160970000000002, 0.1, cl__1};
Point(10) = {28.019579, -0.2160970000000002, 0, cl__1};
Point(11) = {24.183294, 1.876199, 0.1, cl__2};
Point(12) = {24.183294, 1.876199, 0, cl__2};
Point(13) = {0.5658570000000001, -3.552239, 0.1, cl__3};
Point(14) = {0.5658570000000001, -3.552239, 0, cl__3};
Point(15) = {0.5658570000000001, 5.268159000000001, 0.1, cl__4};
Point(16) = {0.5658570000000001, 5.268159000000001, 0, cl__4};
Point(17) = {30.953619, -3.552239, 0, cl__5};
Point(18) = {30.953619, -3.552239, 0.1, cl__5};
Point(19) = {30.953619, 5.268159000000001, 0.1, cl__6};
Point(20) = {30.953619, 5.268159000000001, 0, cl__6};
p13 = newp;
Point(p13 + 1) = {28.01284991481236, -0.1305958659186813, 0.1};
Point(p13 + 2) = {27.99282835165931, -0.04720005352044002, 0.1};
Point(p13 + 3) = {27.96000730787344, 0.03203695551864613, 0.1};
Point(p13 + 4) = {27.91519494647956, 0.1051640830634787, 0.1};
Point(p13 + 5) = {27.85949469653888, 0.1703806965388817, 0.1};
Point(p13 + 6) = {27.79427808306348, 0.2260809464795599, 0.1};
Point(p13 + 7) = {27.72115095551865, 0.2708933078734427, 0.1};
Point(p13 + 8) = {27.64191394647956, 0.3037143516593117, 0.1};
Point(p13 + 9) = {27.55851813408132, 0.3237359148123597, 0.1};
Point(p13 + 10) = {27.473017, 0.330465, 0.1};
Point(p13 + 11) = {27.38751586591868, 0.3237359148123596, 0.1};
Point(p13 + 12) = {27.30412005352044, 0.3037143516593118, 0.1};
Point(p13 + 13) = {27.22488304448135, 0.2708933078734427, 0.1};
Point(p13 + 14) = {27.15175591693652, 0.22608094647956, 0.1};
Point(p13 + 15) = {27.08653930346112, 0.1703806965388818, 0.1};
Point(p13 + 16) = {27.03083905352044, 0.1051640830634788, 0.1};
Point(p13 + 17) = {26.98602669212656, 0.03203695551864619, 0.1};
Point(p13 + 18) = {26.95320564834069, -0.04720005352043996, 0.1};
Point(p13 + 19) = {26.93318408518764, -0.1305958659186813, 0.1};
Point(p13 + 20) = {26.926455, -0.216097, 0.1};
Point(p13 + 21) = {26.93318408518764, -0.3015981340813186, 0.1};
Point(p13 + 22) = {26.95320564834069, -0.3849939464795602, 0.1};
Point(p13 + 23) = {26.98602669212655, -0.4642309555186459, 0.1};
Point(p13 + 24) = {27.03083905352044, -0.5373580830634787, 0.1};
Point(p13 + 25) = {27.08653930346112, -0.6025746965388817, 0.1};
Point(p13 + 26) = {27.15175591693652, -0.65827494647956, 0.1};
Point(p13 + 27) = {27.22488304448135, -0.7030873078734426, 0.1};
Point(p13 + 28) = {27.30412005352044, -0.7359083516593117, 0.1};
Point(p13 + 29) = {27.38751586591868, -0.7559299148123596, 0.1};
Point(p13 + 30) = {27.473017, -0.762659, 0.1};
Point(p13 + 31) = {27.55851813408132, -0.7559299148123597, 0.1};
Point(p13 + 32) = {27.64191394647956, -0.7359083516593118, 0.1};
Point(p13 + 33) = {27.72115095551865, -0.7030873078734428, 0.1};
Point(p13 + 34) = {27.79427808306348, -0.6582749464795601, 0.1};
Point(p13 + 35) = {27.85949469653888, -0.6025746965388818, 0.1};
Point(p13 + 36) = {27.91519494647956, -0.5373580830634788, 0.1};
Point(p13 + 37) = {27.96000730787344, -0.4642309555186462, 0.1};
Point(p13 + 38) = {27.99282835165931, -0.3849939464795601, 0.1};
Point(p13 + 39) = {28.01284991481236, -0.3015981340813188, 0.1};
Spline(13) = {9, p13 + 1, p13 + 2, p13 + 3, p13 + 4, p13 + 5, p13 + 6, p13 + 7, p13 + 8, p13 + 9, p13 + 10, p13 + 11, p13 + 12, p13 + 13, p13 + 14, p13 + 15, p13 + 16, p13 + 17, p13 + 18, p13 + 19, p13 + 20, p13 + 21, p13 + 22, p13 + 23, p13 + 24, p13 + 25, p13 + 26, p13 + 27, p13 + 28, p13 + 29, p13 + 30, p13 + 31, p13 + 32, p13 + 33, p13 + 34, p13 + 35, p13 + 36, p13 + 37, p13 + 38, p13 + 39, 9};
Line(14) = {10, 9};
p15 = newp;
Point(p15 + 1) = {28.01284991481236, -0.1305958659186813, 0};
Point(p15 + 2) = {27.99282835165931, -0.04720005352044002, 0};
Point(p15 + 3) = {27.96000730787344, 0.03203695551864613, 0};
Point(p15 + 4) = {27.91519494647956, 0.1051640830634787, 0};
Point(p15 + 5) = {27.85949469653888, 0.1703806965388817, 0};
Point(p15 + 6) = {27.79427808306348, 0.2260809464795599, 0};
Point(p15 + 7) = {27.72115095551865, 0.2708933078734427, 0};
Point(p15 + 8) = {27.64191394647956, 0.3037143516593117, 0};
Point(p15 + 9) = {27.55851813408132, 0.3237359148123597, 0};
Point(p15 + 10) = {27.473017, 0.330465, 0};
Point(p15 + 11) = {27.38751586591868, 0.3237359148123596, 0};
Point(p15 + 12) = {27.30412005352044, 0.3037143516593118, 0};
Point(p15 + 13) = {27.22488304448135, 0.2708933078734427, 0};
Point(p15 + 14) = {27.15175591693652, 0.22608094647956, 0};
Point(p15 + 15) = {27.08653930346112, 0.1703806965388818, 0};
Point(p15 + 16) = {27.03083905352044, 0.1051640830634788, 0};
Point(p15 + 17) = {26.98602669212656, 0.03203695551864619, 0};
Point(p15 + 18) = {26.95320564834069, -0.04720005352043996, 0};
Point(p15 + 19) = {26.93318408518764, -0.1305958659186813, 0};
Point(p15 + 20) = {26.926455, -0.216097, 0};
Point(p15 + 21) = {26.93318408518764, -0.3015981340813186, 0};
Point(p15 + 22) = {26.95320564834069, -0.3849939464795602, 0};
Point(p15 + 23) = {26.98602669212655, -0.4642309555186459, 0};
Point(p15 + 24) = {27.03083905352044, -0.5373580830634787, 0};
Point(p15 + 25) = {27.08653930346112, -0.6025746965388817, 0};
Point(p15 + 26) = {27.15175591693652, -0.65827494647956, 0};
Point(p15 + 27) = {27.22488304448135, -0.7030873078734426, 0};
Point(p15 + 28) = {27.30412005352044, -0.7359083516593117, 0};
Point(p15 + 29) = {27.38751586591868, -0.7559299148123596, 0};
Point(p15 + 30) = {27.473017, -0.762659, 0};
Point(p15 + 31) = {27.55851813408132, -0.7559299148123597, 0};
Point(p15 + 32) = {27.64191394647956, -0.7359083516593118, 0};
Point(p15 + 33) = {27.72115095551865, -0.7030873078734428, 0};
Point(p15 + 34) = {27.79427808306348, -0.6582749464795601, 0};
Point(p15 + 35) = {27.85949469653888, -0.6025746965388818, 0};
Point(p15 + 36) = {27.91519494647956, -0.5373580830634788, 0};
Point(p15 + 37) = {27.96000730787344, -0.4642309555186462, 0};
Point(p15 + 38) = {27.99282835165931, -0.3849939464795601, 0};
Point(p15 + 39) = {28.01284991481236, -0.3015981340813188, 0};
Spline(15) = {10, p15 + 1, p15 + 2, p15 + 3, p15 + 4, p15 + 5, p15 + 6, p15 + 7, p15 + 8, p15 + 9, p15 + 10, p15 + 11, p15 + 12, p15 + 13, p15 + 14, p15 + 15, p15 + 16, p15 + 17, p15 + 18, p15 + 19, p15 + 20, p15 + 21, p15 + 22, p15 + 23, p15 + 24, p15 + 25, p15 + 26, p15 + 27, p15 + 28, p15 + 29, p15 + 30, p15 + 31, p15 + 32, p15 + 33, p15 + 34, p15 + 35, p15 + 36, p15 + 37, p15 + 38, p15 + 39, 10};
p16 = newp;
Point(p16 + 1) = {24.17223448560325, 2.016723454207779, 0.1};
Point(p16 + 2) = {24.13932826436187, 2.153787729979038, 0.1};
Point(p16 + 3) = {24.08538559665232, 2.284016849954036, 0.1};
Point(p16 + 4) = {24.01173472997904, 2.404204140993319, 0.1};
Point(p16 + 5) = {23.92018919311275, 2.511390193112751, 0.1};
Point(p16 + 6) = {23.81300314099332, 2.602935729979038, 0.1};
Point(p16 + 7) = {23.69281584995404, 2.676586596652314, 0.1};
Point(p16 + 8) = {23.56258672997904, 2.730529264361871, 0.1};
Point(p16 + 9) = {23.42552245420778, 2.76343548560325, 0.1};
Point(p16 + 10) = {23.284998, 2.774495, 0.1};
Point(p16 + 11) = {23.14447354579222, 2.763435485603249, 0.1};
Point(p16 + 12) = {23.00740927002096, 2.730529264361871, 0.1};
Point(p16 + 13) = {22.87718015004597, 2.676586596652314, 0.1};
Point(p16 + 14) = {22.75699285900668, 2.602935729979038, 0.1};
Point(p16 + 15) = {22.64980680688725, 2.511390193112751, 0.1};
Point(p16 + 16) = {22.55826127002096, 2.404204140993319, 0.1};
Point(p16 + 17) = {22.48461040334769, 2.284016849954036, 0.1};
Point(p16 + 18) = {22.43066773563813, 2.153787729979038, 0.1};
Point(p16 + 19) = {22.39776151439675, 2.016723454207779, 0.1};
Point(p16 + 20) = {22.386702, 1.876199, 0.1};
Point(p16 + 21) = {22.39776151439675, 1.735674545792221, 0.1};
Point(p16 + 22) = {22.43066773563813, 1.598610270020962, 0.1};
Point(p16 + 23) = {22.48461040334769, 1.468381150045964, 0.1};
Point(p16 + 24) = {22.55826127002096, 1.348193859006681, 0.1};
Point(p16 + 25) = {22.64980680688725, 1.241007806887249, 0.1};
Point(p16 + 26) = {22.75699285900668, 1.149462270020962, 0.1};
Point(p16 + 27) = {22.87718015004597, 1.075811403347686, 0.1};
Point(p16 + 28) = {23.00740927002096, 1.021868735638129, 0.1};
Point(p16 + 29) = {23.14447354579222, 0.9889625143967502, 0.1};
Point(p16 + 30) = {23.284998, 0.977903, 0.1};
Point(p16 + 31) = {23.42552245420778, 0.9889625143967501, 0.1};
Point(p16 + 32) = {23.56258672997904, 1.021868735638129, 0.1};
Point(p16 + 33) = {23.69281584995404, 1.075811403347686, 0.1};
Point(p16 + 34) = {23.81300314099332, 1.149462270020962, 0.1};
Point(p16 + 35) = {23.92018919311275, 1.241007806887249, 0.1};
Point(p16 + 36) = {24.01173472997904, 1.34819385900668, 0.1};
Point(p16 + 37) = {24.08538559665232, 1.468381150045964, 0.1};
Point(p16 + 38) = {24.13932826436187, 1.598610270020962, 0.1};
Point(p16 + 39) = {24.17223448560325, 1.73567454579222, 0.1};
Spline(16) = {11, p16 + 1, p16 + 2, p16 + 3, p16 + 4, p16 + 5, p16 + 6, p16 + 7, p16 + 8, p16 + 9, p16 + 10, p16 + 11, p16 + 12, p16 + 13, p16 + 14, p16 + 15, p16 + 16, p16 + 17, p16 + 18, p16 + 19, p16 + 20, p16 + 21, p16 + 22, p16 + 23, p16 + 24, p16 + 25, p16 + 26, p16 + 27, p16 + 28, p16 + 29, p16 + 30, p16 + 31, p16 + 32, p16 + 33, p16 + 34, p16 + 35, p16 + 36, p16 + 37, p16 + 38, p16 + 39, 11};
Line(17) = {12, 11};
p18 = newp;
Point(p18 + 1) = {24.17223448560325, 2.016723454207779, 0};
Point(p18 + 2) = {24.13932826436187, 2.153787729979038, 0};
Point(p18 + 3) = {24.08538559665232, 2.284016849954036, 0};
Point(p18 + 4) = {24.01173472997904, 2.404204140993319, 0};
Point(p18 + 5) = {23.92018919311275, 2.511390193112751, 0};
Point(p18 + 6) = {23.81300314099332, 2.602935729979038, 0};
Point(p18 + 7) = {23.69281584995404, 2.676586596652314, 0};
Point(p18 + 8) = {23.56258672997904, 2.730529264361871, 0};
Point(p18 + 9) = {23.42552245420778, 2.76343548560325, 0};
Point(p18 + 10) = {23.284998, 2.774495, 0};
Point(p18 + 11) = {23.14447354579222, 2.763435485603249, 0};
Point(p18 + 12) = {23.00740927002096, 2.730529264361871, 0};
Point(p18 + 13) = {22.87718015004597, 2.676586596652314, 0};
Point(p18 + 14) = {22.75699285900668, 2.602935729979038, 0};
Point(p18 + 15) = {22.64980680688725, 2.511390193112751, 0};
Point(p18 + 16) = {22.55826127002096, 2.404204140993319, 0};
Point(p18 + 17) = {22.48461040334769, 2.284016849954036, 0};
Point(p18 + 18) = {22.43066773563813, 2.153787729979038, 0};
Point(p18 + 19) = {22.39776151439675, 2.016723454207779, 0};
Point(p18 + 20) = {22.386702, 1.876199, 0};
Point(p18 + 21) = {22.39776151439675, 1.735674545792221, 0};
Point(p18 + 22) = {22.43066773563813, 1.598610270020962, 0};
Point(p18 + 23) = {22.48461040334769, 1.468381150045964, 0};
Point(p18 + 24) = {22.55826127002096, 1.348193859006681, 0};
Point(p18 + 25) = {22.64980680688725, 1.241007806887249, 0};
Point(p18 + 26) = {22.75699285900668, 1.149462270020962, 0};
Point(p18 + 27) = {22.87718015004597, 1.075811403347686, 0};
Point(p18 + 28) = {23.00740927002096, 1.021868735638129, 0};
Point(p18 + 29) = {23.14447354579222, 0.9889625143967502, 0};
Point(p18 + 30) = {23.284998, 0.977903, 0};
Point(p18 + 31) = {23.42552245420778, 0.9889625143967501, 0};
Point(p18 + 32) = {23.56258672997904, 1.021868735638129, 0};
Point(p18 + 33) = {23.69281584995404, 1.075811403347686, 0};
Point(p18 + 34) = {23.81300314099332, 1.149462270020962, 0};
Point(p18 + 35) = {23.92018919311275, 1.241007806887249, 0};
Point(p18 + 36) = {24.01173472997904, 1.34819385900668, 0};
Point(p18 + 37) = {24.08538559665232, 1.468381150045964, 0};
Point(p18 + 38) = {24.13932826436187, 1.598610270020962, 0};
Point(p18 + 39) = {24.17223448560325, 1.73567454579222, 0};
Spline(18) = {12, p18 + 1, p18 + 2, p18 + 3, p18 + 4, p18 + 5, p18 + 6, p18 + 7, p18 + 8, p18 + 9, p18 + 10, p18 + 11, p18 + 12, p18 + 13, p18 + 14, p18 + 15, p18 + 16, p18 + 17, p18 + 18, p18 + 19, p18 + 20, p18 + 21, p18 + 22, p18 + 23, p18 + 24, p18 + 25, p18 + 26, p18 + 27, p18 + 28, p18 + 29, p18 + 30, p18 + 31, p18 + 32, p18 + 33, p18 + 34, p18 + 35, p18 + 36, p18 + 37, p18 + 38, p18 + 39, 12};
Line(19) = {14, 13};
Line(20) = {13, 15};
Line(21) = {16, 15};
Line(22) = {14, 16};
Line(23) = {14, 17};
Line(24) = {17, 18};
Line(25) = {13, 18};
Line(26) = {15, 19};
Line(27) = {18, 19};
Line(28) = {16, 20};
Line(29) = {20, 19};
Line(30) = {17, 20};
Curve Loop(7) = {-13, -14, 15, 14};
Surface(7) = {7};
Curve Loop(8) = {13};
Plane Surface(8) = {8};
Curve Loop(9) = {15};
Plane Surface(9) = {9};
Curve Loop(10) = {-16, -17, 18, 17};
Surface(10) = {10};
Curve Loop(11) = {16};
Plane Surface(11) = {11};
Curve Loop(12) = {18};
Plane Surface(12) = {12};
Curve Loop(13) = {-19, 22, 21, -20};
Plane Surface(13) = {13};
Curve Loop(14) = {-23, 19, 25, -24};
Plane Surface(14) = {14};
Curve Loop(15) = {-20, 25, 27, -26, -13, -16};
Plane Surface(15) = {15};
Curve Loop(16) = {-28, 21, 26, -29};
Plane Surface(16) = {16};
Curve Loop(17) = {-22, 23, 30, -28, -15, -18};
Plane Surface(17) = {17};
Curve Loop(18) = {-24, 30, 29, -27};
Plane Surface(18) = {18};
Surface Loop(1) = {13, 14, 15, 16, 17, 18, 7, 10};
Volume(1) = {1};
Surface Loop(2) = {7, 8, 9};
Volume(2) = {2};
Surface Loop(3) = {10, 11, 12};
Volume(3) = {3};
Physical Surface("WALLS") = {13, 18};
Physical Surface("LOAD") = {8, 11};
Physical Surface("BORDER") = {7, 9, 10, 12, 14, 15, 16, 17};
Physical Volume("SOLID") = {1, 2, 3};
