cl__1 = 0.129068;
cl__2 = 0.108456;
cl__3 = 3.513905;
cl__4 = 3.183697;
cl__5 = 0.425699;
cl__6 = 0.582893;
Point(9) = {26.354953, -1.329798, 0.1, cl__1};
Point(10) = {26.354953, -1.329798, 0, cl__1};
Point(11) = {22.044306, 1.70742, 0.1, cl__2};
Point(12) = {22.044306, 1.70742, 0, cl__2};
Point(13) = {0.746559, -4.614901, 1, cl__3};
Point(14) = {0.746559, -4.614901, 0, cl__3};
Point(15) = {0.746559, 5.292332, 1, cl__4};
Point(16) = {0.746559, 5.292332, 0, cl__4};
Point(17) = {31.151697, -4.614901, 0, cl__5};
Point(18) = {31.151697, -4.614901, 1, cl__5};
Point(19) = {31.151697, 5.292332, 1, cl__6};
Point(20) = {31.151697, 5.292332, 0, cl__6};
p13 = newp;
Point(p13 + 1) = {26.33906256281601, -1.127890851792945, 0.1};
Point(p13 + 2) = {26.29178252656486, -0.9309553276661542, 0.1};
Point(p13 + 3) = {26.21427708265249, -0.7438406338151623, 0.1};
Point(p13 + 4) = {26.10845467233385, -0.5711541550006461, 0.1};
Point(p13 + 5) = {25.97692099455542, -0.4171480054445845, 0.1};
Point(p13 + 6) = {25.82291484499936, -0.2856143276661542, 0.1};
Point(p13 + 7) = {25.65022836618484, -0.1797919173475091, 0.1};
Point(p13 + 8) = {25.46311367233385, -0.1022864734351385, 0.1};
Point(p13 + 9) = {25.26617814820706, -0.05500643718398623, 0.1};
Point(p13 + 10) = {25.064271, -0.03911599999999993, 0.1};
Point(p13 + 11) = {24.86236385179295, -0.05500643718398646, 0.1};
Point(p13 + 12) = {24.66542832766616, -0.1022864734351385, 0.1};
Point(p13 + 13) = {24.47831363381516, -0.1797919173475089, 0.1};
Point(p13 + 14) = {24.30562715500065, -0.285614327666154, 0.1};
Point(p13 + 15) = {24.15162100544459, -0.4171480054445844, 0.1};
Point(p13 + 16) = {24.02008732766615, -0.571154155000646, 0.1};
Point(p13 + 17) = {23.91426491734751, -0.7438406338151622, 0.1};
Point(p13 + 18) = {23.83675947343514, -0.930955327666154, 0.1};
Point(p13 + 19) = {23.78947943718399, -1.127890851792945, 0.1};
Point(p13 + 20) = {23.773589, -1.329798, 0.1};
Point(p13 + 21) = {23.78947943718399, -1.531705148207055, 0.1};
Point(p13 + 22) = {23.83675947343514, -1.728640672333846, 0.1};
Point(p13 + 23) = {23.91426491734751, -1.915755366184837, 0.1};
Point(p13 + 24) = {24.02008732766615, -2.088441844999354, 0.1};
Point(p13 + 25) = {24.15162100544459, -2.242447994555416, 0.1};
Point(p13 + 26) = {24.30562715500065, -2.373981672333846, 0.1};
Point(p13 + 27) = {24.47831363381516, -2.479804082652491, 0.1};
Point(p13 + 28) = {24.66542832766616, -2.557309526564862, 0.1};
Point(p13 + 29) = {24.86236385179295, -2.604589562816014, 0.1};
Point(p13 + 30) = {25.064271, -2.62048, 0.1};
Point(p13 + 31) = {25.26617814820706, -2.604589562816014, 0.1};
Point(p13 + 32) = {25.46311367233385, -2.557309526564862, 0.1};
Point(p13 + 33) = {25.65022836618484, -2.479804082652492, 0.1};
Point(p13 + 34) = {25.82291484499936, -2.373981672333846, 0.1};
Point(p13 + 35) = {25.97692099455542, -2.242447994555416, 0.1};
Point(p13 + 36) = {26.10845467233385, -2.088441844999354, 0.1};
Point(p13 + 37) = {26.21427708265249, -1.915755366184838, 0.1};
Point(p13 + 38) = {26.29178252656486, -1.728640672333846, 0.1};
Point(p13 + 39) = {26.33906256281601, -1.531705148207056, 0.1};
Spline(13) = {9, p13 + 1, p13 + 2, p13 + 3, p13 + 4, p13 + 5, p13 + 6, p13 + 7, p13 + 8, p13 + 9, p13 + 10, p13 + 11, p13 + 12, p13 + 13, p13 + 14, p13 + 15, p13 + 16, p13 + 17, p13 + 18, p13 + 19, p13 + 20, p13 + 21, p13 + 22, p13 + 23, p13 + 24, p13 + 25, p13 + 26, p13 + 27, p13 + 28, p13 + 29, p13 + 30, p13 + 31, p13 + 32, p13 + 33, p13 + 34, p13 + 35, p13 + 36, p13 + 37, p13 + 38, p13 + 39, 9};
Line(14) = {10, 9};
p15 = newp;
Point(p15 + 1) = {26.33906256281601, -1.127890851792945, 0};
Point(p15 + 2) = {26.29178252656486, -0.9309553276661542, 0};
Point(p15 + 3) = {26.21427708265249, -0.7438406338151623, 0};
Point(p15 + 4) = {26.10845467233385, -0.5711541550006461, 0};
Point(p15 + 5) = {25.97692099455542, -0.4171480054445845, 0};
Point(p15 + 6) = {25.82291484499936, -0.2856143276661542, 0};
Point(p15 + 7) = {25.65022836618484, -0.1797919173475091, 0};
Point(p15 + 8) = {25.46311367233385, -0.1022864734351385, 0};
Point(p15 + 9) = {25.26617814820706, -0.05500643718398623, 0};
Point(p15 + 10) = {25.064271, -0.03911599999999993, 0};
Point(p15 + 11) = {24.86236385179295, -0.05500643718398646, 0};
Point(p15 + 12) = {24.66542832766616, -0.1022864734351385, 0};
Point(p15 + 13) = {24.47831363381516, -0.1797919173475089, 0};
Point(p15 + 14) = {24.30562715500065, -0.285614327666154, 0};
Point(p15 + 15) = {24.15162100544459, -0.4171480054445844, 0};
Point(p15 + 16) = {24.02008732766615, -0.571154155000646, 0};
Point(p15 + 17) = {23.91426491734751, -0.7438406338151622, 0};
Point(p15 + 18) = {23.83675947343514, -0.930955327666154, 0};
Point(p15 + 19) = {23.78947943718399, -1.127890851792945, 0};
Point(p15 + 20) = {23.773589, -1.329798, 0};
Point(p15 + 21) = {23.78947943718399, -1.531705148207055, 0};
Point(p15 + 22) = {23.83675947343514, -1.728640672333846, 0};
Point(p15 + 23) = {23.91426491734751, -1.915755366184837, 0};
Point(p15 + 24) = {24.02008732766615, -2.088441844999354, 0};
Point(p15 + 25) = {24.15162100544459, -2.242447994555416, 0};
Point(p15 + 26) = {24.30562715500065, -2.373981672333846, 0};
Point(p15 + 27) = {24.47831363381516, -2.479804082652491, 0};
Point(p15 + 28) = {24.66542832766616, -2.557309526564862, 0};
Point(p15 + 29) = {24.86236385179295, -2.604589562816014, 0};
Point(p15 + 30) = {25.064271, -2.62048, 0};
Point(p15 + 31) = {25.26617814820706, -2.604589562816014, 0};
Point(p15 + 32) = {25.46311367233385, -2.557309526564862, 0};
Point(p15 + 33) = {25.65022836618484, -2.479804082652492, 0};
Point(p15 + 34) = {25.82291484499936, -2.373981672333846, 0};
Point(p15 + 35) = {25.97692099455542, -2.242447994555416, 0};
Point(p15 + 36) = {26.10845467233385, -2.088441844999354, 0};
Point(p15 + 37) = {26.21427708265249, -1.915755366184838, 0};
Point(p15 + 38) = {26.29178252656486, -1.728640672333846, 0};
Point(p15 + 39) = {26.33906256281601, -1.531705148207056, 0};
Spline(15) = {10, p15 + 1, p15 + 2, p15 + 3, p15 + 4, p15 + 5, p15 + 6, p15 + 7, p15 + 8, p15 + 9, p15 + 10, p15 + 11, p15 + 12, p15 + 13, p15 + 14, p15 + 15, p15 + 16, p15 + 17, p15 + 18, p15 + 19, p15 + 20, p15 + 21, p15 + 22, p15 + 23, p15 + 24, p15 + 25, p15 + 26, p15 + 27, p15 + 28, p15 + 29, p15 + 30, p15 + 31, p15 + 32, p15 + 33, p15 + 34, p15 + 35, p15 + 36, p15 + 37, p15 + 38, p15 + 39, 10};
p16 = newp;
Point(p16 + 1) = {22.03095326667586, 1.877082563404033, 0.1};
Point(p16 + 2) = {21.99122385531307, 2.042567471419293, 0.1};
Point(p16 + 3) = {21.92609603587373, 2.199799936397523, 0.1};
Point(p16 + 4) = {21.83717347141929, 2.344908373226325, 0.1};
Point(p16 + 5) = {21.72664573060368, 2.474319730603682, 0.1};
Point(p16 + 6) = {21.59723437322632, 2.584847471419293, 0.1};
Point(p16 + 7) = {21.45212593639752, 2.673770035873736, 0.1};
Point(p16 + 8) = {21.29489347141929, 2.738897855313072, 0.1};
Point(p16 + 9) = {21.12940856340403, 2.778627266675862, 0.1};
Point(p16 + 10) = {20.959746, 2.79198, 0.1};
Point(p16 + 11) = {20.79008343659597, 2.778627266675862, 0.1};
Point(p16 + 12) = {20.62459852858071, 2.738897855313072, 0.1};
Point(p16 + 13) = {20.46736606360248, 2.673770035873736, 0.1};
Point(p16 + 14) = {20.32225762677367, 2.584847471419293, 0.1};
Point(p16 + 15) = {20.19284626939632, 2.474319730603682, 0.1};
Point(p16 + 16) = {20.08231852858071, 2.344908373226325, 0.1};
Point(p16 + 17) = {19.99339596412626, 2.199799936397523, 0.1};
Point(p16 + 18) = {19.92826814468693, 2.042567471419293, 0.1};
Point(p16 + 19) = {19.88853873332414, 1.877082563404033, 0.1};
Point(p16 + 20) = {19.875186, 1.70742, 0.1};
Point(p16 + 21) = {19.88853873332414, 1.537757436595967, 0.1};
Point(p16 + 22) = {19.92826814468693, 1.372272528580707, 0.1};
Point(p16 + 23) = {19.99339596412626, 1.215040063602478, 0.1};
Point(p16 + 24) = {20.08231852858071, 1.069931626773675, 0.1};
Point(p16 + 25) = {20.19284626939632, 0.9405202693963181, 0.1};
Point(p16 + 26) = {20.32225762677367, 0.829992528580707, 0.1};
Point(p16 + 27) = {20.46736606360248, 0.7410699641262638, 0.1};
Point(p16 + 28) = {20.62459852858071, 0.6759421446869283, 0.1};
Point(p16 + 29) = {20.79008343659597, 0.6362127333241374, 0.1};
Point(p16 + 30) = {20.959746, 0.62286, 0.1};
Point(p16 + 31) = {21.12940856340403, 0.6362127333241374, 0.1};
Point(p16 + 32) = {21.29489347141929, 0.675942144686928, 0.1};
Point(p16 + 33) = {21.45212593639752, 0.7410699641262636, 0.1};
Point(p16 + 34) = {21.59723437322632, 0.8299925285807068, 0.1};
Point(p16 + 35) = {21.72664573060368, 0.9405202693963178, 0.1};
Point(p16 + 36) = {21.83717347141929, 1.069931626773675, 0.1};
Point(p16 + 37) = {21.92609603587373, 1.215040063602477, 0.1};
Point(p16 + 38) = {21.99122385531307, 1.372272528580707, 0.1};
Point(p16 + 39) = {22.03095326667586, 1.537757436595967, 0.1};
Spline(16) = {11, p16 + 1, p16 + 2, p16 + 3, p16 + 4, p16 + 5, p16 + 6, p16 + 7, p16 + 8, p16 + 9, p16 + 10, p16 + 11, p16 + 12, p16 + 13, p16 + 14, p16 + 15, p16 + 16, p16 + 17, p16 + 18, p16 + 19, p16 + 20, p16 + 21, p16 + 22, p16 + 23, p16 + 24, p16 + 25, p16 + 26, p16 + 27, p16 + 28, p16 + 29, p16 + 30, p16 + 31, p16 + 32, p16 + 33, p16 + 34, p16 + 35, p16 + 36, p16 + 37, p16 + 38, p16 + 39, 11};
Line(17) = {12, 11};
p18 = newp;
Point(p18 + 1) = {22.03095326667586, 1.877082563404033, 0};
Point(p18 + 2) = {21.99122385531307, 2.042567471419293, 0};
Point(p18 + 3) = {21.92609603587373, 2.199799936397523, 0};
Point(p18 + 4) = {21.83717347141929, 2.344908373226325, 0};
Point(p18 + 5) = {21.72664573060368, 2.474319730603682, 0};
Point(p18 + 6) = {21.59723437322632, 2.584847471419293, 0};
Point(p18 + 7) = {21.45212593639752, 2.673770035873736, 0};
Point(p18 + 8) = {21.29489347141929, 2.738897855313072, 0};
Point(p18 + 9) = {21.12940856340403, 2.778627266675862, 0};
Point(p18 + 10) = {20.959746, 2.79198, 0};
Point(p18 + 11) = {20.79008343659597, 2.778627266675862, 0};
Point(p18 + 12) = {20.62459852858071, 2.738897855313072, 0};
Point(p18 + 13) = {20.46736606360248, 2.673770035873736, 0};
Point(p18 + 14) = {20.32225762677367, 2.584847471419293, 0};
Point(p18 + 15) = {20.19284626939632, 2.474319730603682, 0};
Point(p18 + 16) = {20.08231852858071, 2.344908373226325, 0};
Point(p18 + 17) = {19.99339596412626, 2.199799936397523, 0};
Point(p18 + 18) = {19.92826814468693, 2.042567471419293, 0};
Point(p18 + 19) = {19.88853873332414, 1.877082563404033, 0};
Point(p18 + 20) = {19.875186, 1.70742, 0};
Point(p18 + 21) = {19.88853873332414, 1.537757436595967, 0};
Point(p18 + 22) = {19.92826814468693, 1.372272528580707, 0};
Point(p18 + 23) = {19.99339596412626, 1.215040063602478, 0};
Point(p18 + 24) = {20.08231852858071, 1.069931626773675, 0};
Point(p18 + 25) = {20.19284626939632, 0.9405202693963181, 0};
Point(p18 + 26) = {20.32225762677367, 0.829992528580707, 0};
Point(p18 + 27) = {20.46736606360248, 0.7410699641262638, 0};
Point(p18 + 28) = {20.62459852858071, 0.6759421446869283, 0};
Point(p18 + 29) = {20.79008343659597, 0.6362127333241374, 0};
Point(p18 + 30) = {20.959746, 0.62286, 0};
Point(p18 + 31) = {21.12940856340403, 0.6362127333241374, 0};
Point(p18 + 32) = {21.29489347141929, 0.675942144686928, 0};
Point(p18 + 33) = {21.45212593639752, 0.7410699641262636, 0};
Point(p18 + 34) = {21.59723437322632, 0.8299925285807068, 0};
Point(p18 + 35) = {21.72664573060368, 0.9405202693963178, 0};
Point(p18 + 36) = {21.83717347141929, 1.069931626773675, 0};
Point(p18 + 37) = {21.92609603587373, 1.215040063602477, 0};
Point(p18 + 38) = {21.99122385531307, 1.372272528580707, 0};
Point(p18 + 39) = {22.03095326667586, 1.537757436595967, 0};
Spline(18) = {12, p18 + 1, p18 + 2, p18 + 3, p18 + 4, p18 + 5, p18 + 6, p18 + 7, p18 + 8, p18 + 9, p18 + 10, p18 + 11, p18 + 12, p18 + 13, p18 + 14, p18 + 15, p18 + 16, p18 + 17, p18 + 18, p18 + 19, p18 + 20, p18 + 21, p18 + 22, p18 + 23, p18 + 24, p18 + 25, p18 + 26, p18 + 27, p18 + 28, p18 + 29, p18 + 30, p18 + 31, p18 + 32, p18 + 33, p18 + 34, p18 + 35, p18 + 36, p18 + 37, p18 + 38, p18 + 39, 12};
Line(19) = {14, 13};
Line(20) = {13, 15};
Line(21) = {16, 15};
Line(22) = {14, 16};
Line(23) = {14, 17};
Line(24) = {17, 18};
Line(25) = {13, 18};
Line(26) = {15, 19};
Line(27) = {18, 19};
Line(28) = {16, 20};
Line(29) = {20, 19};
Line(30) = {17, 20};
Curve Loop(7) = {-13, -14, 15, 14};
Surface(7) = {7};
Curve Loop(8) = {13};
Plane Surface(8) = {8};
Curve Loop(9) = {15};
Plane Surface(9) = {9};
Curve Loop(10) = {-16, -17, 18, 17};
Surface(10) = {10};
Curve Loop(11) = {16};
Plane Surface(11) = {11};
Curve Loop(12) = {18};
Plane Surface(12) = {12};
Curve Loop(13) = {-19, 22, 21, -20};
Plane Surface(13) = {13};
Curve Loop(14) = {-23, 19, 25, -24};
Plane Surface(14) = {14};
Curve Loop(15) = {-20, 25, 27, -26};
Plane Surface(15) = {15};
Curve Loop(16) = {-28, 21, 26, -29};
Plane Surface(16) = {16};
Curve Loop(17) = {-22, 23, 30, -28, -15, -18};
Plane Surface(17) = {17};
Curve Loop(18) = {-24, 30, 29, -27};
Plane Surface(18) = {18};
Surface Loop(1) = {13, 14, 15, 16, 17, 18, 7, 10, 8, 11};
Volume(1) = {1};
Surface Loop(2) = {7, 8, 9};
Volume(2) = {2};
Surface Loop(3) = {10, 11, 12};
Volume(3) = {3};
Physical Surface("WALLS") = {13, 18};
Physical Surface("LOAD") = {8, 11};
Physical Surface("BORDER") = {7, 9, 10, 12, 14, 15, 16, 17};
Physical Volume("SOLID") = {1, 2, 3};
