cl__1 = 0.057087;
cl__2 = 0.120843;
cl__3 = 0.772815;
cl__4 = 0.760836;
cl__5 = 1.797144;
cl__6 = 1.955713;
Point(9) = {14.130787, 0.8624459999999999, 0.1, cl__1};
Point(10) = {14.130787, 0.8624459999999999, 0, cl__1};
Point(11) = {16.604168, -1.065761, 0.1, cl__2};
Point(12) = {16.604168, -1.065761, 0, cl__2};
Point(13) = {0.657921, -3.544102, 1, cl__3};
Point(14) = {0.657921, -3.544102, 0, cl__3};
Point(15) = {0.657921, 4.595744, 1, cl__4};
Point(16) = {0.657921, 4.595744, 0, cl__4};
Point(17) = {37.01314, -3.544102, 0, cl__5};
Point(18) = {37.01314, -3.544102, 1, cl__5};
Point(19) = {37.01314, 4.595744, 1, cl__6};
Point(20) = {37.01314, 4.595744, 0, cl__6};
p13 = newp;
Point(p13 + 1) = {14.12375859374891, 0.9517503687953768, 0.1};
Point(p13 + 2) = {14.10284643768348, 1.038855767646804, 0.1};
Point(p13 + 3) = {14.06856545848951, 1.121617372548314, 0.1};
Point(p13 + 4) = {14.0217597676468, 1.197997318117213, 0.1};
Point(p13 + 5) = {13.96358187660309, 1.266114876603089, 0.1};
Point(p13 + 6) = {13.89546431811721, 1.324292767646804, 0.1};
Point(p13 + 7) = {13.81908437254831, 1.37109845848951, 0.1};
Point(p13 + 8) = {13.7363227676468, 1.40537943768348, 0.1};
Point(p13 + 9) = {13.64921736879538, 1.426291593748909, 0.1};
Point(p13 + 10) = {13.559913, 1.43332, 0.1};
Point(p13 + 11) = {13.47060863120462, 1.426291593748909, 0.1};
Point(p13 + 12) = {13.3835032323532, 1.40537943768348, 0.1};
Point(p13 + 13) = {13.30074162745169, 1.37109845848951, 0.1};
Point(p13 + 14) = {13.22436168188279, 1.324292767646804, 0.1};
Point(p13 + 15) = {13.15624412339691, 1.266114876603089, 0.1};
Point(p13 + 16) = {13.0980662323532, 1.197997318117213, 0.1};
Point(p13 + 17) = {13.05126054151049, 1.121617372548314, 0.1};
Point(p13 + 18) = {13.01697956231652, 1.038855767646804, 0.1};
Point(p13 + 19) = {12.99606740625109, 0.9517503687953769, 0.1};
Point(p13 + 20) = {12.989039, 0.8624460000000002, 0.1};
Point(p13 + 21) = {12.99606740625109, 0.7731416312046233, 0.1};
Point(p13 + 22) = {13.01697956231652, 0.6860362323531961, 0.1};
Point(p13 + 23) = {13.05126054151049, 0.6032746274516863, 0.1};
Point(p13 + 24) = {13.0980662323532, 0.5268946818827869, 0.1};
Point(p13 + 25) = {13.15624412339691, 0.458777123396911, 0.1};
Point(p13 + 26) = {13.22436168188279, 0.4005992323531964, 0.1};
Point(p13 + 27) = {13.30074162745169, 0.3537935415104898, 0.1};
Point(p13 + 28) = {13.3835032323532, 0.3195125623165206, 0.1};
Point(p13 + 29) = {13.47060863120462, 0.2986004062510914, 0.1};
Point(p13 + 30) = {13.559913, 0.2915720000000001, 0.1};
Point(p13 + 31) = {13.64921736879538, 0.2986004062510914, 0.1};
Point(p13 + 32) = {13.7363227676468, 0.3195125623165205, 0.1};
Point(p13 + 33) = {13.81908437254831, 0.3537935415104897, 0.1};
Point(p13 + 34) = {13.89546431811721, 0.4005992323531962, 0.1};
Point(p13 + 35) = {13.96358187660309, 0.4587771233969108, 0.1};
Point(p13 + 36) = {14.0217597676468, 0.5268946818827867, 0.1};
Point(p13 + 37) = {14.06856545848951, 0.6032746274516859, 0.1};
Point(p13 + 38) = {14.10284643768348, 0.6860362323531962, 0.1};
Point(p13 + 39) = {14.12375859374891, 0.7731416312046231, 0.1};
Spline(13) = {9, p13 + 1, p13 + 2, p13 + 3, p13 + 4, p13 + 5, p13 + 6, p13 + 7, p13 + 8, p13 + 9, p13 + 10, p13 + 11, p13 + 12, p13 + 13, p13 + 14, p13 + 15, p13 + 16, p13 + 17, p13 + 18, p13 + 19, p13 + 20, p13 + 21, p13 + 22, p13 + 23, p13 + 24, p13 + 25, p13 + 26, p13 + 27, p13 + 28, p13 + 29, p13 + 30, p13 + 31, p13 + 32, p13 + 33, p13 + 34, p13 + 35, p13 + 36, p13 + 37, p13 + 38, p13 + 39, 9};
Line(14) = {10, 9};
p15 = newp;
Point(p15 + 1) = {14.12375859374891, 0.9517503687953768, 0};
Point(p15 + 2) = {14.10284643768348, 1.038855767646804, 0};
Point(p15 + 3) = {14.06856545848951, 1.121617372548314, 0};
Point(p15 + 4) = {14.0217597676468, 1.197997318117213, 0};
Point(p15 + 5) = {13.96358187660309, 1.266114876603089, 0};
Point(p15 + 6) = {13.89546431811721, 1.324292767646804, 0};
Point(p15 + 7) = {13.81908437254831, 1.37109845848951, 0};
Point(p15 + 8) = {13.7363227676468, 1.40537943768348, 0};
Point(p15 + 9) = {13.64921736879538, 1.426291593748909, 0};
Point(p15 + 10) = {13.559913, 1.43332, 0};
Point(p15 + 11) = {13.47060863120462, 1.426291593748909, 0};
Point(p15 + 12) = {13.3835032323532, 1.40537943768348, 0};
Point(p15 + 13) = {13.30074162745169, 1.37109845848951, 0};
Point(p15 + 14) = {13.22436168188279, 1.324292767646804, 0};
Point(p15 + 15) = {13.15624412339691, 1.266114876603089, 0};
Point(p15 + 16) = {13.0980662323532, 1.197997318117213, 0};
Point(p15 + 17) = {13.05126054151049, 1.121617372548314, 0};
Point(p15 + 18) = {13.01697956231652, 1.038855767646804, 0};
Point(p15 + 19) = {12.99606740625109, 0.9517503687953769, 0};
Point(p15 + 20) = {12.989039, 0.8624460000000002, 0};
Point(p15 + 21) = {12.99606740625109, 0.7731416312046233, 0};
Point(p15 + 22) = {13.01697956231652, 0.6860362323531961, 0};
Point(p15 + 23) = {13.05126054151049, 0.6032746274516863, 0};
Point(p15 + 24) = {13.0980662323532, 0.5268946818827869, 0};
Point(p15 + 25) = {13.15624412339691, 0.458777123396911, 0};
Point(p15 + 26) = {13.22436168188279, 0.4005992323531964, 0};
Point(p15 + 27) = {13.30074162745169, 0.3537935415104898, 0};
Point(p15 + 28) = {13.3835032323532, 0.3195125623165206, 0};
Point(p15 + 29) = {13.47060863120462, 0.2986004062510914, 0};
Point(p15 + 30) = {13.559913, 0.2915720000000001, 0};
Point(p15 + 31) = {13.64921736879538, 0.2986004062510914, 0};
Point(p15 + 32) = {13.7363227676468, 0.3195125623165205, 0};
Point(p15 + 33) = {13.81908437254831, 0.3537935415104897, 0};
Point(p15 + 34) = {13.89546431811721, 0.4005992323531962, 0};
Point(p15 + 35) = {13.96358187660309, 0.4587771233969108, 0};
Point(p15 + 36) = {14.0217597676468, 0.5268946818827867, 0};
Point(p15 + 37) = {14.06856545848951, 0.6032746274516859, 0};
Point(p15 + 38) = {14.10284643768348, 0.6860362323531962, 0};
Point(p15 + 39) = {14.12375859374891, 0.7731416312046231, 0};
Spline(15) = {10, p15 + 1, p15 + 2, p15 + 3, p15 + 4, p15 + 5, p15 + 6, p15 + 7, p15 + 8, p15 + 9, p15 + 10, p15 + 11, p15 + 12, p15 + 13, p15 + 14, p15 + 15, p15 + 16, p15 + 17, p15 + 18, p15 + 19, p15 + 20, p15 + 21, p15 + 22, p15 + 23, p15 + 24, p15 + 25, p15 + 26, p15 + 27, p15 + 28, p15 + 29, p15 + 30, p15 + 31, p15 + 32, p15 + 33, p15 + 34, p15 + 35, p15 + 36, p15 + 37, p15 + 38, p15 + 39, 10};
p16 = newp;
Point(p16 + 1) = {16.58929017217874, -0.8767202736735736, 0.1};
Point(p16 + 2) = {16.54502303021262, -0.6923343574195048, 0.1};
Point(p16 + 3) = {16.47245657805104, -0.5171434444377405, 0.1};
Point(p16 + 4) = {16.37337764258049, -0.3554613164311975, 0.1};
Point(p16 + 5) = {16.25022587601638, -0.2112691239836156, 0.1};
Point(p16 + 6) = {16.1060336835688, -0.08811735741950488, 0.1};
Point(p16 + 7) = {15.94435155556226, 0.01096157805104614, 0.1};
Point(p16 + 8) = {15.76916064258049, 0.08352803021261757, 0.1};
Point(p16 + 9) = {15.58477472632643, 0.1277951721787447, 0.1};
Point(p16 + 10) = {15.395734, 0.142673, 0.1};
Point(p16 + 11) = {15.20669327367357, 0.1277951721787447, 0.1};
Point(p16 + 12) = {15.0223073574195, 0.08352803021261779, 0.1};
Point(p16 + 13) = {14.84711644443774, 0.01096157805104614, 0.1};
Point(p16 + 14) = {14.6854343164312, -0.08811735741950466, 0.1};
Point(p16 + 15) = {14.54124212398361, -0.2112691239836155, 0.1};
Point(p16 + 16) = {14.4180903574195, -0.3554613164311974, 0.1};
Point(p16 + 17) = {14.31901142194895, -0.5171434444377404, 0.1};
Point(p16 + 18) = {14.24644496978738, -0.6923343574195047, 0.1};
Point(p16 + 19) = {14.20217782782125, -0.8767202736735735, 0.1};
Point(p16 + 20) = {14.1873, -1.065761, 0.1};
Point(p16 + 21) = {14.20217782782125, -1.254801726326426, 0.1};
Point(p16 + 22) = {14.24644496978738, -1.439187642580495, 0.1};
Point(p16 + 23) = {14.31901142194895, -1.614378555562259, 0.1};
Point(p16 + 24) = {14.4180903574195, -1.776060683568802, 0.1};
Point(p16 + 25) = {14.54124212398361, -1.920252876016384, 0.1};
Point(p16 + 26) = {14.6854343164312, -2.043404642580495, 0.1};
Point(p16 + 27) = {14.84711644443774, -2.142483578051046, 0.1};
Point(p16 + 28) = {15.0223073574195, -2.215050030212617, 0.1};
Point(p16 + 29) = {15.20669327367357, -2.259317172178744, 0.1};
Point(p16 + 30) = {15.395734, -2.274195, 0.1};
Point(p16 + 31) = {15.58477472632643, -2.259317172178744, 0.1};
Point(p16 + 32) = {15.76916064258049, -2.215050030212618, 0.1};
Point(p16 + 33) = {15.94435155556226, -2.142483578051046, 0.1};
Point(p16 + 34) = {16.1060336835688, -2.043404642580495, 0.1};
Point(p16 + 35) = {16.25022587601638, -1.920252876016384, 0.1};
Point(p16 + 36) = {16.37337764258049, -1.776060683568803, 0.1};
Point(p16 + 37) = {16.47245657805104, -1.61437855556226, 0.1};
Point(p16 + 38) = {16.54502303021262, -1.439187642580495, 0.1};
Point(p16 + 39) = {16.58929017217874, -1.254801726326427, 0.1};
Spline(16) = {11, p16 + 1, p16 + 2, p16 + 3, p16 + 4, p16 + 5, p16 + 6, p16 + 7, p16 + 8, p16 + 9, p16 + 10, p16 + 11, p16 + 12, p16 + 13, p16 + 14, p16 + 15, p16 + 16, p16 + 17, p16 + 18, p16 + 19, p16 + 20, p16 + 21, p16 + 22, p16 + 23, p16 + 24, p16 + 25, p16 + 26, p16 + 27, p16 + 28, p16 + 29, p16 + 30, p16 + 31, p16 + 32, p16 + 33, p16 + 34, p16 + 35, p16 + 36, p16 + 37, p16 + 38, p16 + 39, 11};
Line(17) = {12, 11};
p18 = newp;
Point(p18 + 1) = {16.58929017217874, -0.8767202736735736, 0};
Point(p18 + 2) = {16.54502303021262, -0.6923343574195048, 0};
Point(p18 + 3) = {16.47245657805104, -0.5171434444377405, 0};
Point(p18 + 4) = {16.37337764258049, -0.3554613164311975, 0};
Point(p18 + 5) = {16.25022587601638, -0.2112691239836156, 0};
Point(p18 + 6) = {16.1060336835688, -0.08811735741950488, 0};
Point(p18 + 7) = {15.94435155556226, 0.01096157805104614, 0};
Point(p18 + 8) = {15.76916064258049, 0.08352803021261757, 0};
Point(p18 + 9) = {15.58477472632643, 0.1277951721787447, 0};
Point(p18 + 10) = {15.395734, 0.142673, 0};
Point(p18 + 11) = {15.20669327367357, 0.1277951721787447, 0};
Point(p18 + 12) = {15.0223073574195, 0.08352803021261779, 0};
Point(p18 + 13) = {14.84711644443774, 0.01096157805104614, 0};
Point(p18 + 14) = {14.6854343164312, -0.08811735741950466, 0};
Point(p18 + 15) = {14.54124212398361, -0.2112691239836155, 0};
Point(p18 + 16) = {14.4180903574195, -0.3554613164311974, 0};
Point(p18 + 17) = {14.31901142194895, -0.5171434444377404, 0};
Point(p18 + 18) = {14.24644496978738, -0.6923343574195047, 0};
Point(p18 + 19) = {14.20217782782125, -0.8767202736735735, 0};
Point(p18 + 20) = {14.1873, -1.065761, 0};
Point(p18 + 21) = {14.20217782782125, -1.254801726326426, 0};
Point(p18 + 22) = {14.24644496978738, -1.439187642580495, 0};
Point(p18 + 23) = {14.31901142194895, -1.614378555562259, 0};
Point(p18 + 24) = {14.4180903574195, -1.776060683568802, 0};
Point(p18 + 25) = {14.54124212398361, -1.920252876016384, 0};
Point(p18 + 26) = {14.6854343164312, -2.043404642580495, 0};
Point(p18 + 27) = {14.84711644443774, -2.142483578051046, 0};
Point(p18 + 28) = {15.0223073574195, -2.215050030212617, 0};
Point(p18 + 29) = {15.20669327367357, -2.259317172178744, 0};
Point(p18 + 30) = {15.395734, -2.274195, 0};
Point(p18 + 31) = {15.58477472632643, -2.259317172178744, 0};
Point(p18 + 32) = {15.76916064258049, -2.215050030212618, 0};
Point(p18 + 33) = {15.94435155556226, -2.142483578051046, 0};
Point(p18 + 34) = {16.1060336835688, -2.043404642580495, 0};
Point(p18 + 35) = {16.25022587601638, -1.920252876016384, 0};
Point(p18 + 36) = {16.37337764258049, -1.776060683568803, 0};
Point(p18 + 37) = {16.47245657805104, -1.61437855556226, 0};
Point(p18 + 38) = {16.54502303021262, -1.439187642580495, 0};
Point(p18 + 39) = {16.58929017217874, -1.254801726326427, 0};
Spline(18) = {12, p18 + 1, p18 + 2, p18 + 3, p18 + 4, p18 + 5, p18 + 6, p18 + 7, p18 + 8, p18 + 9, p18 + 10, p18 + 11, p18 + 12, p18 + 13, p18 + 14, p18 + 15, p18 + 16, p18 + 17, p18 + 18, p18 + 19, p18 + 20, p18 + 21, p18 + 22, p18 + 23, p18 + 24, p18 + 25, p18 + 26, p18 + 27, p18 + 28, p18 + 29, p18 + 30, p18 + 31, p18 + 32, p18 + 33, p18 + 34, p18 + 35, p18 + 36, p18 + 37, p18 + 38, p18 + 39, 12};
Line(19) = {14, 13};
Line(20) = {13, 15};
Line(21) = {16, 15};
Line(22) = {14, 16};
Line(23) = {14, 17};
Line(24) = {17, 18};
Line(25) = {13, 18};
Line(26) = {15, 19};
Line(27) = {18, 19};
Line(28) = {16, 20};
Line(29) = {20, 19};
Line(30) = {17, 20};
Curve Loop(7) = {-13, -14, 15, 14};
Surface(7) = {7};
Curve Loop(8) = {13};
Plane Surface(8) = {8};
Curve Loop(9) = {15};
Plane Surface(9) = {9};
Curve Loop(10) = {-16, -17, 18, 17};
Surface(10) = {10};
Curve Loop(11) = {16};
Plane Surface(11) = {11};
Curve Loop(12) = {18};
Plane Surface(12) = {12};
Curve Loop(13) = {-19, 22, 21, -20};
Plane Surface(13) = {13};
Curve Loop(14) = {-23, 19, 25, -24};
Plane Surface(14) = {14};
Curve Loop(15) = {-20, 25, 27, -26};
Plane Surface(15) = {15};
Curve Loop(16) = {-28, 21, 26, -29};
Plane Surface(16) = {16};
Curve Loop(17) = {-22, 23, 30, -28, -18, -15};
Plane Surface(17) = {17};
Curve Loop(18) = {-24, 30, 29, -27};
Plane Surface(18) = {18};
Surface Loop(1) = {13, 14, 15, 16, 17, 18, 10, 7, 11, 8};
Volume(1) = {1};
Surface Loop(2) = {7, 8, 9};
Volume(2) = {2};
Surface Loop(3) = {10, 11, 12};
Volume(3) = {3};
Physical Surface("WALLS") = {13, 18};
Physical Surface("LOAD") = {8, 11};
Physical Surface("BORDER") = {7, 9, 10, 12, 14, 15, 16, 17};
Physical Volume("SOLID") = {1, 2, 3};
