cl__1 = 0.08409;
cl__2 = 0.127684;
cl__3 = 0.45112;
cl__4 = 0.54143;
cl__5 = 3.506327;
cl__6 = 3.296246;
Point(9) = {8.157101000000001, -0.6296910000000002, 0.1, cl__1};
Point(10) = {8.157101000000001, -0.6296910000000002, 0, cl__1};
Point(11) = {13.861544, 1.740567, 0.1, cl__2};
Point(12) = {13.861544, 1.740567, 0, cl__2};
Point(13) = {0.8698630000000001, -3.361022, 1, cl__3};
Point(14) = {0.8698630000000001, -3.361022, 0, cl__3};
Point(15) = {0.8698630000000001, 4.493665, 1, cl__4};
Point(16) = {0.8698630000000001, 4.493665, 0, cl__4};
Point(17) = {34.00784400000001, -3.361022, 0, cl__5};
Point(18) = {34.00784400000001, -3.361022, 1, cl__5};
Point(19) = {34.00784400000001, 4.493665, 1, cl__6};
Point(20) = {34.00784400000001, 4.493665, 0, cl__6};
p13 = newp;
Point(p13 + 1) = {8.146748174853089, -0.4981458840855301, 0.1};
Point(p13 + 2) = {8.11594462032653, -0.3698398454980842, 0.1};
Point(p13 + 3) = {8.065448822163901, -0.2479322047310141, 0.1};
Point(p13 + 4) = {7.996504154501916, -0.1354247324882685, 0.1};
Point(p13 + 5) = {7.910808263872643, -0.03508773612735705, 0.1};
Point(p13 + 6) = {7.810471267511732, 0.05060815450191569, 0.1};
Point(p13 + 7) = {7.697963795268986, 0.1195528221639017, 0.1};
Point(p13 + 8) = {7.576056154501916, 0.1700486203265295, 0.1};
Point(p13 + 9) = {7.44775011591447, 0.2008521748530889, 0.1};
Point(p13 + 10) = {7.316205, 0.211205, 0.1};
Point(p13 + 11) = {7.18465988408553, 0.2008521748530888, 0.1};
Point(p13 + 12) = {7.056353845498085, 0.1700486203265295, 0.1};
Point(p13 + 13) = {6.934446204731014, 0.1195528221639018, 0.1};
Point(p13 + 14) = {6.821938732488269, 0.0506081545019158, 0.1};
Point(p13 + 15) = {6.721601736127357, -0.03508773612735694, 0.1};
Point(p13 + 16) = {6.635905845498084, -0.1354247324882684, 0.1};
Point(p13 + 17) = {6.566961177836099, -0.247932204731014, 0.1};
Point(p13 + 18) = {6.516465379673471, -0.3698398454980841, 0.1};
Point(p13 + 19) = {6.485661825146911, -0.49814588408553, 0.1};
Point(p13 + 20) = {6.475309, -0.6296909999999999, 0.1};
Point(p13 + 21) = {6.485661825146911, -0.7612361159144698, 0.1};
Point(p13 + 22) = {6.516465379673471, -0.889542154501916, 0.1};
Point(p13 + 23) = {6.566961177836098, -1.011449795268986, 0.1};
Point(p13 + 24) = {6.635905845498084, -1.123957267511731, 0.1};
Point(p13 + 25) = {6.721601736127357, -1.224294263872643, 0.1};
Point(p13 + 26) = {6.821938732488269, -1.309990154501916, 0.1};
Point(p13 + 27) = {6.934446204731014, -1.378934822163902, 0.1};
Point(p13 + 28) = {7.056353845498085, -1.429430620326529, 0.1};
Point(p13 + 29) = {7.18465988408553, -1.460234174853089, 0.1};
Point(p13 + 30) = {7.316205, -1.470587, 0.1};
Point(p13 + 31) = {7.44775011591447, -1.460234174853089, 0.1};
Point(p13 + 32) = {7.576056154501916, -1.429430620326529, 0.1};
Point(p13 + 33) = {7.697963795268986, -1.378934822163902, 0.1};
Point(p13 + 34) = {7.810471267511732, -1.309990154501916, 0.1};
Point(p13 + 35) = {7.910808263872643, -1.224294263872643, 0.1};
Point(p13 + 36) = {7.996504154501916, -1.123957267511732, 0.1};
Point(p13 + 37) = {8.065448822163901, -1.011449795268986, 0.1};
Point(p13 + 38) = {8.11594462032653, -0.889542154501916, 0.1};
Point(p13 + 39) = {8.146748174853089, -0.7612361159144702, 0.1};
Spline(13) = {9, p13 + 1, p13 + 2, p13 + 3, p13 + 4, p13 + 5, p13 + 6, p13 + 7, p13 + 8, p13 + 9, p13 + 10, p13 + 11, p13 + 12, p13 + 13, p13 + 14, p13 + 15, p13 + 16, p13 + 17, p13 + 18, p13 + 19, p13 + 20, p13 + 21, p13 + 22, p13 + 23, p13 + 24, p13 + 25, p13 + 26, p13 + 27, p13 + 28, p13 + 29, p13 + 30, p13 + 31, p13 + 32, p13 + 33, p13 + 34, p13 + 35, p13 + 36, p13 + 37, p13 + 38, p13 + 39, 9};
Line(14) = {10, 9};
p15 = newp;
Point(p15 + 1) = {8.146748174853089, -0.4981458840855301, 0};
Point(p15 + 2) = {8.11594462032653, -0.3698398454980842, 0};
Point(p15 + 3) = {8.065448822163901, -0.2479322047310141, 0};
Point(p15 + 4) = {7.996504154501916, -0.1354247324882685, 0};
Point(p15 + 5) = {7.910808263872643, -0.03508773612735705, 0};
Point(p15 + 6) = {7.810471267511732, 0.05060815450191569, 0};
Point(p15 + 7) = {7.697963795268986, 0.1195528221639017, 0};
Point(p15 + 8) = {7.576056154501916, 0.1700486203265295, 0};
Point(p15 + 9) = {7.44775011591447, 0.2008521748530889, 0};
Point(p15 + 10) = {7.316205, 0.211205, 0};
Point(p15 + 11) = {7.18465988408553, 0.2008521748530888, 0};
Point(p15 + 12) = {7.056353845498085, 0.1700486203265295, 0};
Point(p15 + 13) = {6.934446204731014, 0.1195528221639018, 0};
Point(p15 + 14) = {6.821938732488269, 0.0506081545019158, 0};
Point(p15 + 15) = {6.721601736127357, -0.03508773612735694, 0};
Point(p15 + 16) = {6.635905845498084, -0.1354247324882684, 0};
Point(p15 + 17) = {6.566961177836099, -0.247932204731014, 0};
Point(p15 + 18) = {6.516465379673471, -0.3698398454980841, 0};
Point(p15 + 19) = {6.485661825146911, -0.49814588408553, 0};
Point(p15 + 20) = {6.475309, -0.6296909999999999, 0};
Point(p15 + 21) = {6.485661825146911, -0.7612361159144698, 0};
Point(p15 + 22) = {6.516465379673471, -0.889542154501916, 0};
Point(p15 + 23) = {6.566961177836098, -1.011449795268986, 0};
Point(p15 + 24) = {6.635905845498084, -1.123957267511731, 0};
Point(p15 + 25) = {6.721601736127357, -1.224294263872643, 0};
Point(p15 + 26) = {6.821938732488269, -1.309990154501916, 0};
Point(p15 + 27) = {6.934446204731014, -1.378934822163902, 0};
Point(p15 + 28) = {7.056353845498085, -1.429430620326529, 0};
Point(p15 + 29) = {7.18465988408553, -1.460234174853089, 0};
Point(p15 + 30) = {7.316205, -1.470587, 0};
Point(p15 + 31) = {7.44775011591447, -1.460234174853089, 0};
Point(p15 + 32) = {7.576056154501916, -1.429430620326529, 0};
Point(p15 + 33) = {7.697963795268986, -1.378934822163902, 0};
Point(p15 + 34) = {7.810471267511732, -1.309990154501916, 0};
Point(p15 + 35) = {7.910808263872643, -1.224294263872643, 0};
Point(p15 + 36) = {7.996504154501916, -1.123957267511732, 0};
Point(p15 + 37) = {8.065448822163901, -1.011449795268986, 0};
Point(p15 + 38) = {8.11594462032653, -0.889542154501916, 0};
Point(p15 + 39) = {8.146748174853089, -0.7612361159144702, 0};
Spline(15) = {10, p15 + 1, p15 + 2, p15 + 3, p15 + 4, p15 + 5, p15 + 6, p15 + 7, p15 + 8, p15 + 9, p15 + 10, p15 + 11, p15 + 12, p15 + 13, p15 + 14, p15 + 15, p15 + 16, p15 + 17, p15 + 18, p15 + 19, p15 + 20, p15 + 21, p15 + 22, p15 + 23, p15 + 24, p15 + 25, p15 + 26, p15 + 27, p15 + 28, p15 + 29, p15 + 30, p15 + 31, p15 + 32, p15 + 33, p15 + 34, p15 + 35, p15 + 36, p15 + 37, p15 + 38, p15 + 39, 10};
p16 = newp;
Point(p16 + 1) = {13.84582403005213, 1.940308156604108, 0.1};
Point(p16 + 2) = {13.79905119804024, 2.13513102302973, 0.1};
Point(p16 + 3) = {13.72237720631858, 2.320238413725444, 0.1};
Point(p16 + 4) = {13.61769002302973, 2.491072370396112, 0.1};
Point(p16 + 5) = {13.48756739406311, 2.643426394063106, 0.1};
Point(p16 + 6) = {13.33521337039611, 2.77354902302973, 0.1};
Point(p16 + 7) = {13.16437941372544, 2.878236206318579, 0.1};
Point(p16 + 8) = {12.97927202302973, 2.954910198040239, 0.1};
Point(p16 + 9) = {12.78444915660411, 3.001683030052133, 0.1};
Point(p16 + 10) = {12.584708, 3.017403, 0.1};
Point(p16 + 11) = {12.38496684339589, 3.001683030052133, 0.1};
Point(p16 + 12) = {12.19014397697027, 2.954910198040239, 0.1};
Point(p16 + 13) = {12.00503658627455, 2.878236206318579, 0.1};
Point(p16 + 14) = {11.83420262960389, 2.77354902302973, 0.1};
Point(p16 + 15) = {11.68184860593689, 2.643426394063106, 0.1};
Point(p16 + 16) = {11.55172597697027, 2.491072370396112, 0.1};
Point(p16 + 17) = {11.44703879368142, 2.320238413725444, 0.1};
Point(p16 + 18) = {11.37036480195976, 2.13513102302973, 0.1};
Point(p16 + 19) = {11.32359196994787, 1.940308156604108, 0.1};
Point(p16 + 20) = {11.307872, 1.740567, 0.1};
Point(p16 + 21) = {11.32359196994787, 1.540825843395892, 0.1};
Point(p16 + 22) = {11.37036480195976, 1.346002976970269, 0.1};
Point(p16 + 23) = {11.44703879368142, 1.160895586274556, 0.1};
Point(p16 + 24) = {11.55172597697027, 0.9900616296038879, 0.1};
Point(p16 + 25) = {11.68184860593689, 0.8377076059368934, 0.1};
Point(p16 + 26) = {11.83420262960389, 0.7075849769702696, 0.1};
Point(p16 + 27) = {12.00503658627455, 0.602897793681421, 0.1};
Point(p16 + 28) = {12.19014397697027, 0.5262238019597612, 0.1};
Point(p16 + 29) = {12.38496684339589, 0.4794509699478666, 0.1};
Point(p16 + 30) = {12.584708, 0.4637309999999999, 0.1};
Point(p16 + 31) = {12.78444915660411, 0.4794509699478666, 0.1};
Point(p16 + 32) = {12.97927202302973, 0.5262238019597612, 0.1};
Point(p16 + 33) = {13.16437941372544, 0.6028977936814208, 0.1};
Point(p16 + 34) = {13.33521337039611, 0.7075849769702693, 0.1};
Point(p16 + 35) = {13.48756739406311, 0.8377076059368931, 0.1};
Point(p16 + 36) = {13.61769002302973, 0.9900616296038875, 0.1};
Point(p16 + 37) = {13.72237720631858, 1.160895586274556, 0.1};
Point(p16 + 38) = {13.79905119804024, 1.346002976970269, 0.1};
Point(p16 + 39) = {13.84582403005213, 1.540825843395891, 0.1};
Spline(16) = {11, p16 + 1, p16 + 2, p16 + 3, p16 + 4, p16 + 5, p16 + 6, p16 + 7, p16 + 8, p16 + 9, p16 + 10, p16 + 11, p16 + 12, p16 + 13, p16 + 14, p16 + 15, p16 + 16, p16 + 17, p16 + 18, p16 + 19, p16 + 20, p16 + 21, p16 + 22, p16 + 23, p16 + 24, p16 + 25, p16 + 26, p16 + 27, p16 + 28, p16 + 29, p16 + 30, p16 + 31, p16 + 32, p16 + 33, p16 + 34, p16 + 35, p16 + 36, p16 + 37, p16 + 38, p16 + 39, 11};
Line(17) = {12, 11};
p18 = newp;
Point(p18 + 1) = {13.84582403005213, 1.940308156604108, 0};
Point(p18 + 2) = {13.79905119804024, 2.13513102302973, 0};
Point(p18 + 3) = {13.72237720631858, 2.320238413725444, 0};
Point(p18 + 4) = {13.61769002302973, 2.491072370396112, 0};
Point(p18 + 5) = {13.48756739406311, 2.643426394063106, 0};
Point(p18 + 6) = {13.33521337039611, 2.77354902302973, 0};
Point(p18 + 7) = {13.16437941372544, 2.878236206318579, 0};
Point(p18 + 8) = {12.97927202302973, 2.954910198040239, 0};
Point(p18 + 9) = {12.78444915660411, 3.001683030052133, 0};
Point(p18 + 10) = {12.584708, 3.017403, 0};
Point(p18 + 11) = {12.38496684339589, 3.001683030052133, 0};
Point(p18 + 12) = {12.19014397697027, 2.954910198040239, 0};
Point(p18 + 13) = {12.00503658627455, 2.878236206318579, 0};
Point(p18 + 14) = {11.83420262960389, 2.77354902302973, 0};
Point(p18 + 15) = {11.68184860593689, 2.643426394063106, 0};
Point(p18 + 16) = {11.55172597697027, 2.491072370396112, 0};
Point(p18 + 17) = {11.44703879368142, 2.320238413725444, 0};
Point(p18 + 18) = {11.37036480195976, 2.13513102302973, 0};
Point(p18 + 19) = {11.32359196994787, 1.940308156604108, 0};
Point(p18 + 20) = {11.307872, 1.740567, 0};
Point(p18 + 21) = {11.32359196994787, 1.540825843395892, 0};
Point(p18 + 22) = {11.37036480195976, 1.346002976970269, 0};
Point(p18 + 23) = {11.44703879368142, 1.160895586274556, 0};
Point(p18 + 24) = {11.55172597697027, 0.9900616296038879, 0};
Point(p18 + 25) = {11.68184860593689, 0.8377076059368934, 0};
Point(p18 + 26) = {11.83420262960389, 0.7075849769702696, 0};
Point(p18 + 27) = {12.00503658627455, 0.602897793681421, 0};
Point(p18 + 28) = {12.19014397697027, 0.5262238019597612, 0};
Point(p18 + 29) = {12.38496684339589, 0.4794509699478666, 0};
Point(p18 + 30) = {12.584708, 0.4637309999999999, 0};
Point(p18 + 31) = {12.78444915660411, 0.4794509699478666, 0};
Point(p18 + 32) = {12.97927202302973, 0.5262238019597612, 0};
Point(p18 + 33) = {13.16437941372544, 0.6028977936814208, 0};
Point(p18 + 34) = {13.33521337039611, 0.7075849769702693, 0};
Point(p18 + 35) = {13.48756739406311, 0.8377076059368931, 0};
Point(p18 + 36) = {13.61769002302973, 0.9900616296038875, 0};
Point(p18 + 37) = {13.72237720631858, 1.160895586274556, 0};
Point(p18 + 38) = {13.79905119804024, 1.346002976970269, 0};
Point(p18 + 39) = {13.84582403005213, 1.540825843395891, 0};
Spline(18) = {12, p18 + 1, p18 + 2, p18 + 3, p18 + 4, p18 + 5, p18 + 6, p18 + 7, p18 + 8, p18 + 9, p18 + 10, p18 + 11, p18 + 12, p18 + 13, p18 + 14, p18 + 15, p18 + 16, p18 + 17, p18 + 18, p18 + 19, p18 + 20, p18 + 21, p18 + 22, p18 + 23, p18 + 24, p18 + 25, p18 + 26, p18 + 27, p18 + 28, p18 + 29, p18 + 30, p18 + 31, p18 + 32, p18 + 33, p18 + 34, p18 + 35, p18 + 36, p18 + 37, p18 + 38, p18 + 39, 12};
Line(19) = {14, 13};
Line(20) = {13, 15};
Line(21) = {16, 15};
Line(22) = {14, 16};
Line(23) = {14, 17};
Line(24) = {17, 18};
Line(25) = {13, 18};
Line(26) = {15, 19};
Line(27) = {18, 19};
Line(28) = {16, 20};
Line(29) = {20, 19};
Line(30) = {17, 20};
Curve Loop(7) = {-13, -14, 15, 14};
Surface(7) = {7};
Curve Loop(8) = {13};
Plane Surface(8) = {8};
Curve Loop(9) = {15};
Plane Surface(9) = {9};
Curve Loop(10) = {-16, -17, 18, 17};
Surface(10) = {10};
Curve Loop(11) = {16};
Plane Surface(11) = {11};
Curve Loop(12) = {18};
Plane Surface(12) = {12};
Curve Loop(13) = {-19, 22, 21, -20};
Plane Surface(13) = {13};
Curve Loop(14) = {-23, 19, 25, -24};
Plane Surface(14) = {14};
Curve Loop(15) = {-20, 25, 27, -26};
Plane Surface(15) = {15};
Curve Loop(16) = {-28, 21, 26, -29};
Plane Surface(16) = {16};
Curve Loop(17) = {-22, 23, 30, -28, -15, -18};
Plane Surface(17) = {17};
Curve Loop(18) = {-24, 30, 29, -27};
Plane Surface(18) = {18};
Surface Loop(1) = {13, 14, 15, 16, 17, 18, 7, 10, 8, 11};
Volume(1) = {1};
Surface Loop(2) = {7, 8, 9};
Volume(2) = {2};
Surface Loop(3) = {10, 11, 12};
Volume(3) = {3};
Physical Surface("WALLS") = {13, 18};
Physical Surface("LOAD") = {8, 11};
Physical Surface("BORDER") = {7, 9, 10, 12, 14, 15, 16, 17};
Physical Volume("SOLID") = {1, 2, 3};
