cl__1 = 0.08812399999999999;
cl__2 = 0.126154;
cl__3 = 3.231495;
cl__4 = 2.887796;
cl__5 = 0.631148;
cl__6 = 0.466381;
Point(9) = {29.200961, 2.337789, 0.1, cl__1};
Point(10) = {29.200961, 2.337789, 0, cl__1};
Point(11) = {22.053856, 1.948947, 0.1, cl__2};
Point(12) = {22.053856, 1.948947, 0, cl__2};
Point(13) = {0.370377, -3.99342, 0.1, cl__3};
Point(14) = {0.370377, -3.99342, 0, cl__3};
Point(15) = {0.370377, 4.080295999999999, 0.1, cl__4};
Point(16) = {0.370377, 4.080295999999999, 0, cl__4};
Point(17) = {35.298165, -3.99342, 0, cl__5};
Point(18) = {35.298165, -3.99342, 0.1, cl__5};
Point(19) = {35.298165, 4.080295999999999, 0.1, cl__6};
Point(20) = {35.298165, 4.080295999999999, 0, cl__6};
p13 = newp;
Point(p13 + 1) = {29.19011152251269, 2.475644682234193, 0.1};
Point(p13 + 2) = {29.15783024019387, 2.610105900055001, 0.1};
Point(p13 + 3) = {29.10491202534966, 2.737861772028479, 0.1};
Point(p13 + 4) = {29.032659900055, 2.85576652458921, 0.1};
Point(p13 + 5) = {28.94285295142571, 2.960916951425708, 0.1};
Point(p13 + 6) = {28.83770252458921, 3.050723900055001, 0.1};
Point(p13 + 7) = {28.71979777202848, 3.122976025349661, 0.1};
Point(p13 + 8) = {28.592041900055, 3.175894240193876, 0.1};
Point(p13 + 9) = {28.45758068223419, 3.208175522512697, 0.1};
Point(p13 + 10) = {28.319725, 3.219025, 0.1};
Point(p13 + 11) = {28.18186931776581, 3.208175522512697, 0.1};
Point(p13 + 12) = {28.047408099945, 3.175894240193876, 0.1};
Point(p13 + 13) = {27.91965222797152, 3.122976025349661, 0.1};
Point(p13 + 14) = {27.80174747541079, 3.050723900055001, 0.1};
Point(p13 + 15) = {27.69659704857429, 2.960916951425708, 0.1};
Point(p13 + 16) = {27.606790099945, 2.85576652458921, 0.1};
Point(p13 + 17) = {27.53453797465034, 2.737861772028479, 0.1};
Point(p13 + 18) = {27.48161975980612, 2.610105900055001, 0.1};
Point(p13 + 19) = {27.4493384774873, 2.475644682234193, 0.1};
Point(p13 + 20) = {27.438489, 2.337789, 0.1};
Point(p13 + 21) = {27.4493384774873, 2.199933317765807, 0.1};
Point(p13 + 22) = {27.48161975980612, 2.065472099944999, 0.1};
Point(p13 + 23) = {27.53453797465034, 1.937716227971521, 0.1};
Point(p13 + 24) = {27.606790099945, 1.81981147541079, 0.1};
Point(p13 + 25) = {27.69659704857429, 1.714661048574292, 0.1};
Point(p13 + 26) = {27.80174747541079, 1.624854099944999, 0.1};
Point(p13 + 27) = {27.91965222797152, 1.552601974650339, 0.1};
Point(p13 + 28) = {28.047408099945, 1.499683759806124, 0.1};
Point(p13 + 29) = {28.18186931776581, 1.467402477487303, 0.1};
Point(p13 + 30) = {28.319725, 1.456553, 0.1};
Point(p13 + 31) = {28.45758068223419, 1.467402477487303, 0.1};
Point(p13 + 32) = {28.592041900055, 1.499683759806124, 0.1};
Point(p13 + 33) = {28.71979777202848, 1.552601974650339, 0.1};
Point(p13 + 34) = {28.83770252458921, 1.624854099944999, 0.1};
Point(p13 + 35) = {28.94285295142571, 1.714661048574291, 0.1};
Point(p13 + 36) = {29.032659900055, 1.81981147541079, 0.1};
Point(p13 + 37) = {29.10491202534966, 1.937716227971521, 0.1};
Point(p13 + 38) = {29.15783024019387, 2.065472099944999, 0.1};
Point(p13 + 39) = {29.19011152251269, 2.199933317765807, 0.1};
Spline(13) = {9, p13 + 1, p13 + 2, p13 + 3, p13 + 4, p13 + 5, p13 + 6, p13 + 7, p13 + 8, p13 + 9, p13 + 10, p13 + 11, p13 + 12, p13 + 13, p13 + 14, p13 + 15, p13 + 16, p13 + 17, p13 + 18, p13 + 19, p13 + 20, p13 + 21, p13 + 22, p13 + 23, p13 + 24, p13 + 25, p13 + 26, p13 + 27, p13 + 28, p13 + 29, p13 + 30, p13 + 31, p13 + 32, p13 + 33, p13 + 34, p13 + 35, p13 + 36, p13 + 37, p13 + 38, p13 + 39, 9};
Line(14) = {10, 9};
p15 = newp;
Point(p15 + 1) = {29.19011152251269, 2.475644682234193, 0};
Point(p15 + 2) = {29.15783024019387, 2.610105900055001, 0};
Point(p15 + 3) = {29.10491202534966, 2.737861772028479, 0};
Point(p15 + 4) = {29.032659900055, 2.85576652458921, 0};
Point(p15 + 5) = {28.94285295142571, 2.960916951425708, 0};
Point(p15 + 6) = {28.83770252458921, 3.050723900055001, 0};
Point(p15 + 7) = {28.71979777202848, 3.122976025349661, 0};
Point(p15 + 8) = {28.592041900055, 3.175894240193876, 0};
Point(p15 + 9) = {28.45758068223419, 3.208175522512697, 0};
Point(p15 + 10) = {28.319725, 3.219025, 0};
Point(p15 + 11) = {28.18186931776581, 3.208175522512697, 0};
Point(p15 + 12) = {28.047408099945, 3.175894240193876, 0};
Point(p15 + 13) = {27.91965222797152, 3.122976025349661, 0};
Point(p15 + 14) = {27.80174747541079, 3.050723900055001, 0};
Point(p15 + 15) = {27.69659704857429, 2.960916951425708, 0};
Point(p15 + 16) = {27.606790099945, 2.85576652458921, 0};
Point(p15 + 17) = {27.53453797465034, 2.737861772028479, 0};
Point(p15 + 18) = {27.48161975980612, 2.610105900055001, 0};
Point(p15 + 19) = {27.4493384774873, 2.475644682234193, 0};
Point(p15 + 20) = {27.438489, 2.337789, 0};
Point(p15 + 21) = {27.4493384774873, 2.199933317765807, 0};
Point(p15 + 22) = {27.48161975980612, 2.065472099944999, 0};
Point(p15 + 23) = {27.53453797465034, 1.937716227971521, 0};
Point(p15 + 24) = {27.606790099945, 1.81981147541079, 0};
Point(p15 + 25) = {27.69659704857429, 1.714661048574292, 0};
Point(p15 + 26) = {27.80174747541079, 1.624854099944999, 0};
Point(p15 + 27) = {27.91965222797152, 1.552601974650339, 0};
Point(p15 + 28) = {28.047408099945, 1.499683759806124, 0};
Point(p15 + 29) = {28.18186931776581, 1.467402477487303, 0};
Point(p15 + 30) = {28.319725, 1.456553, 0};
Point(p15 + 31) = {28.45758068223419, 1.467402477487303, 0};
Point(p15 + 32) = {28.592041900055, 1.499683759806124, 0};
Point(p15 + 33) = {28.71979777202848, 1.552601974650339, 0};
Point(p15 + 34) = {28.83770252458921, 1.624854099944999, 0};
Point(p15 + 35) = {28.94285295142571, 1.714661048574291, 0};
Point(p15 + 36) = {29.032659900055, 1.81981147541079, 0};
Point(p15 + 37) = {29.10491202534966, 1.937716227971521, 0};
Point(p15 + 38) = {29.15783024019387, 2.065472099944999, 0};
Point(p15 + 39) = {29.19011152251269, 2.199933317765807, 0};
Spline(15) = {10, p15 + 1, p15 + 2, p15 + 3, p15 + 4, p15 + 5, p15 + 6, p15 + 7, p15 + 8, p15 + 9, p15 + 10, p15 + 11, p15 + 12, p15 + 13, p15 + 14, p15 + 15, p15 + 16, p15 + 17, p15 + 18, p15 + 19, p15 + 20, p15 + 21, p15 + 22, p15 + 23, p15 + 24, p15 + 25, p15 + 26, p15 + 27, p15 + 28, p15 + 29, p15 + 30, p15 + 31, p15 + 32, p15 + 33, p15 + 34, p15 + 35, p15 + 36, p15 + 37, p15 + 38, p15 + 39, 10};
p16 = newp;
Point(p16 + 1) = {22.03832436150605, 2.146295178592388, 0.1};
Point(p16 + 2) = {21.99211188651047, 2.338783990066777, 0.1};
Point(p16 + 3) = {21.91635647951807, 2.521673721050928, 0.1};
Point(p16 + 4) = {21.81292349006678, 2.690461019391794, 0.1};
Point(p16 + 5) = {21.6843597816313, 2.840989781631296, 0.1};
Point(p16 + 6) = {21.53383101939179, 2.969553490066777, 0.1};
Point(p16 + 7) = {21.36504372105093, 3.072986479518069, 0.1};
Point(p16 + 8) = {21.18215399006678, 3.148741886510471, 0.1};
Point(p16 + 9) = {20.98966517859239, 3.194954361506049, 0.1};
Point(p16 + 10) = {20.792317, 3.210486, 0.1};
Point(p16 + 11) = {20.59496882140761, 3.194954361506049, 0.1};
Point(p16 + 12) = {20.40248000993322, 3.148741886510471, 0.1};
Point(p16 + 13) = {20.21959027894907, 3.072986479518069, 0.1};
Point(p16 + 14) = {20.05080298060821, 2.969553490066777, 0.1};
Point(p16 + 15) = {19.9002742183687, 2.840989781631296, 0.1};
Point(p16 + 16) = {19.77171050993323, 2.690461019391794, 0.1};
Point(p16 + 17) = {19.66827752048193, 2.521673721050928, 0.1};
Point(p16 + 18) = {19.59252211348953, 2.338783990066777, 0.1};
Point(p16 + 19) = {19.54630963849395, 2.146295178592388, 0.1};
Point(p16 + 20) = {19.530778, 1.948947, 0.1};
Point(p16 + 21) = {19.54630963849395, 1.751598821407612, 0.1};
Point(p16 + 22) = {19.59252211348953, 1.559110009933223, 0.1};
Point(p16 + 23) = {19.66827752048193, 1.376220278949073, 0.1};
Point(p16 + 24) = {19.77171050993323, 1.207432980608206, 0.1};
Point(p16 + 25) = {19.9002742183687, 1.056904218368704, 0.1};
Point(p16 + 26) = {20.05080298060821, 0.9283405099332234, 0.1};
Point(p16 + 27) = {20.21959027894907, 0.8249075204819307, 0.1};
Point(p16 + 28) = {20.40248000993322, 0.7491521134895283, 0.1};
Point(p16 + 29) = {20.59496882140761, 0.7029396384939506, 0.1};
Point(p16 + 30) = {20.792317, 0.687408, 0.1};
Point(p16 + 31) = {20.98966517859239, 0.7029396384939506, 0.1};
Point(p16 + 32) = {21.18215399006678, 0.7491521134895283, 0.1};
Point(p16 + 33) = {21.36504372105093, 0.8249075204819305, 0.1};
Point(p16 + 34) = {21.53383101939179, 0.9283405099332231, 0.1};
Point(p16 + 35) = {21.6843597816313, 1.056904218368704, 0.1};
Point(p16 + 36) = {21.81292349006678, 1.207432980608206, 0.1};
Point(p16 + 37) = {21.91635647951807, 1.376220278949072, 0.1};
Point(p16 + 38) = {21.99211188651047, 1.559110009933223, 0.1};
Point(p16 + 39) = {22.03832436150605, 1.751598821407612, 0.1};
Spline(16) = {11, p16 + 1, p16 + 2, p16 + 3, p16 + 4, p16 + 5, p16 + 6, p16 + 7, p16 + 8, p16 + 9, p16 + 10, p16 + 11, p16 + 12, p16 + 13, p16 + 14, p16 + 15, p16 + 16, p16 + 17, p16 + 18, p16 + 19, p16 + 20, p16 + 21, p16 + 22, p16 + 23, p16 + 24, p16 + 25, p16 + 26, p16 + 27, p16 + 28, p16 + 29, p16 + 30, p16 + 31, p16 + 32, p16 + 33, p16 + 34, p16 + 35, p16 + 36, p16 + 37, p16 + 38, p16 + 39, 11};
Line(17) = {12, 11};
p18 = newp;
Point(p18 + 1) = {22.03832436150605, 2.146295178592388, 0};
Point(p18 + 2) = {21.99211188651047, 2.338783990066777, 0};
Point(p18 + 3) = {21.91635647951807, 2.521673721050928, 0};
Point(p18 + 4) = {21.81292349006678, 2.690461019391794, 0};
Point(p18 + 5) = {21.6843597816313, 2.840989781631296, 0};
Point(p18 + 6) = {21.53383101939179, 2.969553490066777, 0};
Point(p18 + 7) = {21.36504372105093, 3.072986479518069, 0};
Point(p18 + 8) = {21.18215399006678, 3.148741886510471, 0};
Point(p18 + 9) = {20.98966517859239, 3.194954361506049, 0};
Point(p18 + 10) = {20.792317, 3.210486, 0};
Point(p18 + 11) = {20.59496882140761, 3.194954361506049, 0};
Point(p18 + 12) = {20.40248000993322, 3.148741886510471, 0};
Point(p18 + 13) = {20.21959027894907, 3.072986479518069, 0};
Point(p18 + 14) = {20.05080298060821, 2.969553490066777, 0};
Point(p18 + 15) = {19.9002742183687, 2.840989781631296, 0};
Point(p18 + 16) = {19.77171050993323, 2.690461019391794, 0};
Point(p18 + 17) = {19.66827752048193, 2.521673721050928, 0};
Point(p18 + 18) = {19.59252211348953, 2.338783990066777, 0};
Point(p18 + 19) = {19.54630963849395, 2.146295178592388, 0};
Point(p18 + 20) = {19.530778, 1.948947, 0};
Point(p18 + 21) = {19.54630963849395, 1.751598821407612, 0};
Point(p18 + 22) = {19.59252211348953, 1.559110009933223, 0};
Point(p18 + 23) = {19.66827752048193, 1.376220278949073, 0};
Point(p18 + 24) = {19.77171050993323, 1.207432980608206, 0};
Point(p18 + 25) = {19.9002742183687, 1.056904218368704, 0};
Point(p18 + 26) = {20.05080298060821, 0.9283405099332234, 0};
Point(p18 + 27) = {20.21959027894907, 0.8249075204819307, 0};
Point(p18 + 28) = {20.40248000993322, 0.7491521134895283, 0};
Point(p18 + 29) = {20.59496882140761, 0.7029396384939506, 0};
Point(p18 + 30) = {20.792317, 0.687408, 0};
Point(p18 + 31) = {20.98966517859239, 0.7029396384939506, 0};
Point(p18 + 32) = {21.18215399006678, 0.7491521134895283, 0};
Point(p18 + 33) = {21.36504372105093, 0.8249075204819305, 0};
Point(p18 + 34) = {21.53383101939179, 0.9283405099332231, 0};
Point(p18 + 35) = {21.6843597816313, 1.056904218368704, 0};
Point(p18 + 36) = {21.81292349006678, 1.207432980608206, 0};
Point(p18 + 37) = {21.91635647951807, 1.376220278949072, 0};
Point(p18 + 38) = {21.99211188651047, 1.559110009933223, 0};
Point(p18 + 39) = {22.03832436150605, 1.751598821407612, 0};
Spline(18) = {12, p18 + 1, p18 + 2, p18 + 3, p18 + 4, p18 + 5, p18 + 6, p18 + 7, p18 + 8, p18 + 9, p18 + 10, p18 + 11, p18 + 12, p18 + 13, p18 + 14, p18 + 15, p18 + 16, p18 + 17, p18 + 18, p18 + 19, p18 + 20, p18 + 21, p18 + 22, p18 + 23, p18 + 24, p18 + 25, p18 + 26, p18 + 27, p18 + 28, p18 + 29, p18 + 30, p18 + 31, p18 + 32, p18 + 33, p18 + 34, p18 + 35, p18 + 36, p18 + 37, p18 + 38, p18 + 39, 12};
Line(19) = {14, 13};
Line(20) = {13, 15};
Line(21) = {16, 15};
Line(22) = {14, 16};
Line(23) = {14, 17};
Line(24) = {17, 18};
Line(25) = {13, 18};
Line(26) = {15, 19};
Line(27) = {18, 19};
Line(28) = {16, 20};
Line(29) = {20, 19};
Line(30) = {17, 20};
Curve Loop(7) = {-13, -14, 15, 14};
Surface(7) = {7};
Curve Loop(8) = {13};
Plane Surface(8) = {8};
Curve Loop(9) = {15};
Plane Surface(9) = {9};
Curve Loop(10) = {-16, -17, 18, 17};
Surface(10) = {10};
Curve Loop(11) = {16};
Plane Surface(11) = {11};
Curve Loop(12) = {18};
Plane Surface(12) = {12};
Curve Loop(13) = {-19, 22, 21, -20};
Plane Surface(13) = {13};
Curve Loop(14) = {-23, 19, 25, -24};
Plane Surface(14) = {14};
Curve Loop(15) = {-20, 25, 27, -26, -16, -13};
Plane Surface(15) = {15};
Curve Loop(16) = {-28, 21, 26, -29};
Plane Surface(16) = {16};
Curve Loop(17) = {-22, 23, 30, -28, -18, -15};
Plane Surface(17) = {17};
Curve Loop(18) = {-24, 30, 29, -27};
Plane Surface(18) = {18};
Surface Loop(1) = {13, 14, 15, 16, 17, 18, 10, 7};
Volume(1) = {1};
Surface Loop(2) = {7, 8, 9};
Volume(2) = {2};
Surface Loop(3) = {10, 11, 12};
Volume(3) = {3};
Physical Surface("WALLS") = {13, 18};
Physical Surface("LOAD") = {8, 11};
Physical Surface("BORDER") = {7, 9, 10, 12, 14, 15, 16, 17};
Physical Volume("SOLID") = {1, 2, 3};
