cl__1 = 0.117969;
cl__2 = 0.058204;
cl__3 = 5.502361;
cl__4 = 5.276802;
cl__5 = 0.156706;
cl__6 = 0.336902;
Point(9) = {29.6928, -0.5577100000000004, 0.1, cl__1};
Point(10) = {29.6928, -0.5577100000000004, 0, cl__1};
Point(11) = {24.760122, 1.743935, 0.1, cl__2};
Point(12) = {24.760122, 1.743935, 0, cl__2};
Point(13) = {0.396703, -3.318104, 0.1, cl__3};
Point(14) = {0.396703, -3.318104, 0, cl__3};
Point(15) = {0.396703, 4.865214, 0.1, cl__4};
Point(16) = {0.396703, 4.865214, 0, cl__4};
Point(17) = {30.296257, -3.318104, 0, cl__5};
Point(18) = {30.296257, -3.318104, 0.1, cl__5};
Point(19) = {30.296257, 4.865214, 0.1, cl__6};
Point(20) = {30.296257, 4.865214, 0, cl__6};
p13 = newp;
Point(p13 + 1) = {29.67827599695838, -0.3731650437643649, 0.1};
Point(p13 + 2) = {29.63506161699081, -0.1931641968208465, 0.1};
Point(p13 + 3) = {29.5642209415524, -0.02213967740975542, 0.1};
Point(p13 + 4) = {29.46749830317915, 0.1356973232031691, 0.1};
Point(p13 + 5) = {29.34727533423186, 0.276460334231864, 0.1};
Point(p13 + 6) = {29.20651232320317, 0.3966833031791535, 0.1};
Point(p13 + 7) = {29.04867532259025, 0.4934059415523965, 0.1};
Point(p13 + 8) = {28.87765080317915, 0.564246616990811, 0.1};
Point(p13 + 9) = {28.69764995623563, 0.607460996958381, 0.1};
Point(p13 + 10) = {28.513105, 0.6219849999999999, 0.1};
Point(p13 + 11) = {28.32856004376437, 0.6074609969583807, 0.1};
Point(p13 + 12) = {28.14855919682084, 0.5642466169908112, 0.1};
Point(p13 + 13) = {27.97753467740975, 0.4934059415523965, 0.1};
Point(p13 + 14) = {27.81969767679683, 0.3966833031791536, 0.1};
Point(p13 + 15) = {27.67893466576814, 0.2764603342318641, 0.1};
Point(p13 + 16) = {27.55871169682085, 0.1356973232031692, 0.1};
Point(p13 + 17) = {27.4619890584476, -0.02213967740975531, 0.1};
Point(p13 + 18) = {27.39114838300919, -0.1931641968208463, 0.1};
Point(p13 + 19) = {27.34793400304162, -0.3731650437643648, 0.1};
Point(p13 + 20) = {27.33341, -0.5577099999999999, 0.1};
Point(p13 + 21) = {27.34793400304162, -0.7422549562356351, 0.1};
Point(p13 + 22) = {27.39114838300919, -0.9222558031791539, 0.1};
Point(p13 + 23) = {27.4619890584476, -1.093280322590244, 0.1};
Point(p13 + 24) = {27.55871169682085, -1.251117323203169, 0.1};
Point(p13 + 25) = {27.67893466576814, -1.391880334231864, 0.1};
Point(p13 + 26) = {27.81969767679683, -1.512103303179154, 0.1};
Point(p13 + 27) = {27.97753467740975, -1.608825941552396, 0.1};
Point(p13 + 28) = {28.14855919682084, -1.679666616990811, 0.1};
Point(p13 + 29) = {28.32856004376436, -1.722880996958381, 0.1};
Point(p13 + 30) = {28.513105, -1.737405, 0.1};
Point(p13 + 31) = {28.69764995623563, -1.722880996958381, 0.1};
Point(p13 + 32) = {28.87765080317915, -1.679666616990811, 0.1};
Point(p13 + 33) = {29.04867532259025, -1.608825941552397, 0.1};
Point(p13 + 34) = {29.20651232320317, -1.512103303179154, 0.1};
Point(p13 + 35) = {29.34727533423186, -1.391880334231864, 0.1};
Point(p13 + 36) = {29.46749830317915, -1.251117323203169, 0.1};
Point(p13 + 37) = {29.5642209415524, -1.093280322590245, 0.1};
Point(p13 + 38) = {29.63506161699081, -0.9222558031791539, 0.1};
Point(p13 + 39) = {29.67827599695838, -0.7422549562356355, 0.1};
Spline(13) = {9, p13 + 1, p13 + 2, p13 + 3, p13 + 4, p13 + 5, p13 + 6, p13 + 7, p13 + 8, p13 + 9, p13 + 10, p13 + 11, p13 + 12, p13 + 13, p13 + 14, p13 + 15, p13 + 16, p13 + 17, p13 + 18, p13 + 19, p13 + 20, p13 + 21, p13 + 22, p13 + 23, p13 + 24, p13 + 25, p13 + 26, p13 + 27, p13 + 28, p13 + 29, p13 + 30, p13 + 31, p13 + 32, p13 + 33, p13 + 34, p13 + 35, p13 + 36, p13 + 37, p13 + 38, p13 + 39, 9};
Line(14) = {10, 9};
p15 = newp;
Point(p15 + 1) = {29.67827599695838, -0.3731650437643649, 0};
Point(p15 + 2) = {29.63506161699081, -0.1931641968208465, 0};
Point(p15 + 3) = {29.5642209415524, -0.02213967740975542, 0};
Point(p15 + 4) = {29.46749830317915, 0.1356973232031691, 0};
Point(p15 + 5) = {29.34727533423186, 0.276460334231864, 0};
Point(p15 + 6) = {29.20651232320317, 0.3966833031791535, 0};
Point(p15 + 7) = {29.04867532259025, 0.4934059415523965, 0};
Point(p15 + 8) = {28.87765080317915, 0.564246616990811, 0};
Point(p15 + 9) = {28.69764995623563, 0.607460996958381, 0};
Point(p15 + 10) = {28.513105, 0.6219849999999999, 0};
Point(p15 + 11) = {28.32856004376437, 0.6074609969583807, 0};
Point(p15 + 12) = {28.14855919682084, 0.5642466169908112, 0};
Point(p15 + 13) = {27.97753467740975, 0.4934059415523965, 0};
Point(p15 + 14) = {27.81969767679683, 0.3966833031791536, 0};
Point(p15 + 15) = {27.67893466576814, 0.2764603342318641, 0};
Point(p15 + 16) = {27.55871169682085, 0.1356973232031692, 0};
Point(p15 + 17) = {27.4619890584476, -0.02213967740975531, 0};
Point(p15 + 18) = {27.39114838300919, -0.1931641968208463, 0};
Point(p15 + 19) = {27.34793400304162, -0.3731650437643648, 0};
Point(p15 + 20) = {27.33341, -0.5577099999999999, 0};
Point(p15 + 21) = {27.34793400304162, -0.7422549562356351, 0};
Point(p15 + 22) = {27.39114838300919, -0.9222558031791539, 0};
Point(p15 + 23) = {27.4619890584476, -1.093280322590244, 0};
Point(p15 + 24) = {27.55871169682085, -1.251117323203169, 0};
Point(p15 + 25) = {27.67893466576814, -1.391880334231864, 0};
Point(p15 + 26) = {27.81969767679683, -1.512103303179154, 0};
Point(p15 + 27) = {27.97753467740975, -1.608825941552396, 0};
Point(p15 + 28) = {28.14855919682084, -1.679666616990811, 0};
Point(p15 + 29) = {28.32856004376436, -1.722880996958381, 0};
Point(p15 + 30) = {28.513105, -1.737405, 0};
Point(p15 + 31) = {28.69764995623563, -1.722880996958381, 0};
Point(p15 + 32) = {28.87765080317915, -1.679666616990811, 0};
Point(p15 + 33) = {29.04867532259025, -1.608825941552397, 0};
Point(p15 + 34) = {29.20651232320317, -1.512103303179154, 0};
Point(p15 + 35) = {29.34727533423186, -1.391880334231864, 0};
Point(p15 + 36) = {29.46749830317915, -1.251117323203169, 0};
Point(p15 + 37) = {29.5642209415524, -1.093280322590245, 0};
Point(p15 + 38) = {29.63506161699081, -0.9222558031791539, 0};
Point(p15 + 39) = {29.67827599695838, -0.7422549562356355, 0};
Spline(15) = {10, p15 + 1, p15 + 2, p15 + 3, p15 + 4, p15 + 5, p15 + 6, p15 + 7, p15 + 8, p15 + 9, p15 + 10, p15 + 11, p15 + 12, p15 + 13, p15 + 14, p15 + 15, p15 + 16, p15 + 17, p15 + 18, p15 + 19, p15 + 20, p15 + 21, p15 + 22, p15 + 23, p15 + 24, p15 + 25, p15 + 26, p15 + 27, p15 + 28, p15 + 29, p15 + 30, p15 + 31, p15 + 32, p15 + 33, p15 + 34, p15 + 35, p15 + 36, p15 + 37, p15 + 38, p15 + 39, 10};
p16 = newp;
Point(p16 + 1) = {24.75295614638331, 1.834985803163086, 0.1};
Point(p16 + 2) = {24.7316350326314, 1.923794633372006, 0.1};
Point(p16 + 3) = {24.69668365532555, 2.008174722487406, 0.1};
Point(p16 + 4) = {24.648962633372, 2.086048352673807, 0.1};
Point(p16 + 5) = {24.58964701670826, 2.155498016708256, 0.1};
Point(p16 + 6) = {24.5201973526738, 2.214813633372006, 0.1};
Point(p16 + 7) = {24.44232372248741, 2.262534655325549, 0.1};
Point(p16 + 8) = {24.357943633372, 2.297486032631399, 0.1};
Point(p16 + 9) = {24.26913480316308, 2.318807146383313, 0.1};
Point(p16 + 10) = {24.178084, 2.325973, 0.1};
Point(p16 + 11) = {24.08703319683691, 2.318807146383313, 0.1};
Point(p16 + 12) = {23.99822436662799, 2.297486032631399, 0.1};
Point(p16 + 13) = {23.91384427751259, 2.262534655325549, 0.1};
Point(p16 + 14) = {23.83597064732619, 2.214813633372006, 0.1};
Point(p16 + 15) = {23.76652098329174, 2.155498016708256, 0.1};
Point(p16 + 16) = {23.70720536662799, 2.086048352673807, 0.1};
Point(p16 + 17) = {23.65948434467445, 2.008174722487406, 0.1};
Point(p16 + 18) = {23.6245329673686, 1.923794633372006, 0.1};
Point(p16 + 19) = {23.60321185361668, 1.834985803163086, 0.1};
Point(p16 + 20) = {23.596046, 1.743935, 0.1};
Point(p16 + 21) = {23.60321185361668, 1.652884196836914, 0.1};
Point(p16 + 22) = {23.6245329673686, 1.564075366627994, 0.1};
Point(p16 + 23) = {23.65948434467445, 1.479695277512594, 0.1};
Point(p16 + 24) = {23.70720536662799, 1.401821647326194, 0.1};
Point(p16 + 25) = {23.76652098329174, 1.332371983291744, 0.1};
Point(p16 + 26) = {23.83597064732619, 1.273056366627994, 0.1};
Point(p16 + 27) = {23.91384427751259, 1.225335344674451, 0.1};
Point(p16 + 28) = {23.99822436662799, 1.190383967368601, 0.1};
Point(p16 + 29) = {24.08703319683691, 1.169062853616687, 0.1};
Point(p16 + 30) = {24.178084, 1.161897, 0.1};
Point(p16 + 31) = {24.26913480316308, 1.169062853616687, 0.1};
Point(p16 + 32) = {24.357943633372, 1.190383967368601, 0.1};
Point(p16 + 33) = {24.44232372248741, 1.225335344674451, 0.1};
Point(p16 + 34) = {24.5201973526738, 1.273056366627994, 0.1};
Point(p16 + 35) = {24.58964701670826, 1.332371983291744, 0.1};
Point(p16 + 36) = {24.648962633372, 1.401821647326194, 0.1};
Point(p16 + 37) = {24.69668365532555, 1.479695277512594, 0.1};
Point(p16 + 38) = {24.7316350326314, 1.564075366627994, 0.1};
Point(p16 + 39) = {24.75295614638331, 1.652884196836914, 0.1};
Spline(16) = {11, p16 + 1, p16 + 2, p16 + 3, p16 + 4, p16 + 5, p16 + 6, p16 + 7, p16 + 8, p16 + 9, p16 + 10, p16 + 11, p16 + 12, p16 + 13, p16 + 14, p16 + 15, p16 + 16, p16 + 17, p16 + 18, p16 + 19, p16 + 20, p16 + 21, p16 + 22, p16 + 23, p16 + 24, p16 + 25, p16 + 26, p16 + 27, p16 + 28, p16 + 29, p16 + 30, p16 + 31, p16 + 32, p16 + 33, p16 + 34, p16 + 35, p16 + 36, p16 + 37, p16 + 38, p16 + 39, 11};
Line(17) = {12, 11};
p18 = newp;
Point(p18 + 1) = {24.75295614638331, 1.834985803163086, 0};
Point(p18 + 2) = {24.7316350326314, 1.923794633372006, 0};
Point(p18 + 3) = {24.69668365532555, 2.008174722487406, 0};
Point(p18 + 4) = {24.648962633372, 2.086048352673807, 0};
Point(p18 + 5) = {24.58964701670826, 2.155498016708256, 0};
Point(p18 + 6) = {24.5201973526738, 2.214813633372006, 0};
Point(p18 + 7) = {24.44232372248741, 2.262534655325549, 0};
Point(p18 + 8) = {24.357943633372, 2.297486032631399, 0};
Point(p18 + 9) = {24.26913480316308, 2.318807146383313, 0};
Point(p18 + 10) = {24.178084, 2.325973, 0};
Point(p18 + 11) = {24.08703319683691, 2.318807146383313, 0};
Point(p18 + 12) = {23.99822436662799, 2.297486032631399, 0};
Point(p18 + 13) = {23.91384427751259, 2.262534655325549, 0};
Point(p18 + 14) = {23.83597064732619, 2.214813633372006, 0};
Point(p18 + 15) = {23.76652098329174, 2.155498016708256, 0};
Point(p18 + 16) = {23.70720536662799, 2.086048352673807, 0};
Point(p18 + 17) = {23.65948434467445, 2.008174722487406, 0};
Point(p18 + 18) = {23.6245329673686, 1.923794633372006, 0};
Point(p18 + 19) = {23.60321185361668, 1.834985803163086, 0};
Point(p18 + 20) = {23.596046, 1.743935, 0};
Point(p18 + 21) = {23.60321185361668, 1.652884196836914, 0};
Point(p18 + 22) = {23.6245329673686, 1.564075366627994, 0};
Point(p18 + 23) = {23.65948434467445, 1.479695277512594, 0};
Point(p18 + 24) = {23.70720536662799, 1.401821647326194, 0};
Point(p18 + 25) = {23.76652098329174, 1.332371983291744, 0};
Point(p18 + 26) = {23.83597064732619, 1.273056366627994, 0};
Point(p18 + 27) = {23.91384427751259, 1.225335344674451, 0};
Point(p18 + 28) = {23.99822436662799, 1.190383967368601, 0};
Point(p18 + 29) = {24.08703319683691, 1.169062853616687, 0};
Point(p18 + 30) = {24.178084, 1.161897, 0};
Point(p18 + 31) = {24.26913480316308, 1.169062853616687, 0};
Point(p18 + 32) = {24.357943633372, 1.190383967368601, 0};
Point(p18 + 33) = {24.44232372248741, 1.225335344674451, 0};
Point(p18 + 34) = {24.5201973526738, 1.273056366627994, 0};
Point(p18 + 35) = {24.58964701670826, 1.332371983291744, 0};
Point(p18 + 36) = {24.648962633372, 1.401821647326194, 0};
Point(p18 + 37) = {24.69668365532555, 1.479695277512594, 0};
Point(p18 + 38) = {24.7316350326314, 1.564075366627994, 0};
Point(p18 + 39) = {24.75295614638331, 1.652884196836914, 0};
Spline(18) = {12, p18 + 1, p18 + 2, p18 + 3, p18 + 4, p18 + 5, p18 + 6, p18 + 7, p18 + 8, p18 + 9, p18 + 10, p18 + 11, p18 + 12, p18 + 13, p18 + 14, p18 + 15, p18 + 16, p18 + 17, p18 + 18, p18 + 19, p18 + 20, p18 + 21, p18 + 22, p18 + 23, p18 + 24, p18 + 25, p18 + 26, p18 + 27, p18 + 28, p18 + 29, p18 + 30, p18 + 31, p18 + 32, p18 + 33, p18 + 34, p18 + 35, p18 + 36, p18 + 37, p18 + 38, p18 + 39, 12};
Line(19) = {14, 13};
Line(20) = {13, 15};
Line(21) = {16, 15};
Line(22) = {14, 16};
Line(23) = {14, 17};
Line(24) = {17, 18};
Line(25) = {13, 18};
Line(26) = {15, 19};
Line(27) = {18, 19};
Line(28) = {16, 20};
Line(29) = {20, 19};
Line(30) = {17, 20};
Curve Loop(7) = {-13, -14, 15, 14};
Surface(7) = {7};
Curve Loop(8) = {13};
Plane Surface(8) = {8};
Curve Loop(9) = {15};
Plane Surface(9) = {9};
Curve Loop(10) = {-16, -17, 18, 17};
Surface(10) = {10};
Curve Loop(11) = {16};
Plane Surface(11) = {11};
Curve Loop(12) = {18};
Plane Surface(12) = {12};
Curve Loop(13) = {-19, 22, 21, -20};
Plane Surface(13) = {13};
Curve Loop(14) = {-23, 19, 25, -24};
Plane Surface(14) = {14};
Curve Loop(15) = {-20, 25, 27, -26, -13, -16};
Plane Surface(15) = {15};
Curve Loop(16) = {-28, 21, 26, -29};
Plane Surface(16) = {16};
Curve Loop(17) = {-22, 23, 30, -28, -15, -18};
Plane Surface(17) = {17};
Curve Loop(18) = {-24, 30, 29, -27};
Plane Surface(18) = {18};
Surface Loop(1) = {13, 14, 15, 16, 17, 18, 7, 10};
Volume(1) = {1};
Surface Loop(2) = {7, 8, 9};
Volume(2) = {2};
Surface Loop(3) = {10, 11, 12};
Volume(3) = {3};
Physical Surface("WALLS") = {13, 18};
Physical Surface("LOAD") = {8, 11};
Physical Surface("BORDER") = {7, 9, 10, 12, 14, 15, 16, 17};
Physical Volume("SOLID") = {1, 2, 3};
