cl__1 = 0.075697;
cl__2 = 0.130649;
cl__3 = 5.033397;
cl__4 = 5.218042;
cl__5 = 0.36023;
cl__6 = 0.191515;
Point(9) = {28.984936, 2.722359, 0.1, cl__1};
Point(10) = {28.984936, 2.722359, 0, cl__1};
Point(11) = {26.790503, -0.1495340000000003, 0.1, cl__2};
Point(12) = {26.790503, -0.1495340000000003, 0, cl__2};
Point(13) = {0.579574, -3.386528, 1, cl__3};
Point(14) = {0.579574, -3.386528, 0, cl__3};
Point(15) = {0.579574, 4.851248, 1, cl__4};
Point(16) = {0.579574, 4.851248, 0, cl__4};
Point(17) = {30.901334, -3.386528, 0, cl__5};
Point(18) = {30.901334, -3.386528, 1, cl__5};
Point(19) = {30.901334, 4.851248, 1, cl__6};
Point(20) = {30.901334, 4.851248, 0, cl__6};
p13 = newp;
Point(p13 + 1) = {28.9756164431803, 2.840775197001503, 0.1};
Point(p13 + 2) = {28.94788725113994, 2.956275594232004, 0.1};
Point(p13 + 3) = {28.90243120861487, 3.066016188587845, 0.1};
Point(p13 + 4) = {28.840367594232, 3.167294802427834, 0.1};
Point(p13 + 5) = {28.76322462015478, 3.257617620154781, 0.1};
Point(p13 + 6) = {28.67290180242783, 3.334760594232004, 0.1};
Point(p13 + 7) = {28.57162318858784, 3.396824208614869, 0.1};
Point(p13 + 8) = {28.461882594232, 3.442280251139942, 0.1};
Point(p13 + 9) = {28.3463821970015, 3.470009443180301, 0.1};
Point(p13 + 10) = {28.227966, 3.479329, 0.1};
Point(p13 + 11) = {28.10954980299849, 3.470009443180301, 0.1};
Point(p13 + 12) = {27.994049405768, 3.442280251139942, 0.1};
Point(p13 + 13) = {27.88430881141215, 3.396824208614869, 0.1};
Point(p13 + 14) = {27.78303019757217, 3.334760594232004, 0.1};
Point(p13 + 15) = {27.69270737984522, 3.257617620154781, 0.1};
Point(p13 + 16) = {27.61556440576799, 3.167294802427834, 0.1};
Point(p13 + 17) = {27.55350079138513, 3.066016188587845, 0.1};
Point(p13 + 18) = {27.50804474886005, 2.956275594232004, 0.1};
Point(p13 + 19) = {27.4803155568197, 2.840775197001504, 0.1};
Point(p13 + 20) = {27.470996, 2.722359, 0.1};
Point(p13 + 21) = {27.4803155568197, 2.603942802998497, 0.1};
Point(p13 + 22) = {27.50804474886005, 2.488442405767996, 0.1};
Point(p13 + 23) = {27.55350079138513, 2.378701811412156, 0.1};
Point(p13 + 24) = {27.61556440576799, 2.277423197572167, 0.1};
Point(p13 + 25) = {27.69270737984522, 2.187100379845219, 0.1};
Point(p13 + 26) = {27.78303019757217, 2.109957405767996, 0.1};
Point(p13 + 27) = {27.88430881141215, 2.047893791385131, 0.1};
Point(p13 + 28) = {27.994049405768, 2.002437748860058, 0.1};
Point(p13 + 29) = {28.10954980299849, 1.974708556819698, 0.1};
Point(p13 + 30) = {28.227966, 1.965389, 0.1};
Point(p13 + 31) = {28.3463821970015, 1.974708556819698, 0.1};
Point(p13 + 32) = {28.461882594232, 2.002437748860058, 0.1};
Point(p13 + 33) = {28.57162318858784, 2.047893791385131, 0.1};
Point(p13 + 34) = {28.67290180242783, 2.109957405767996, 0.1};
Point(p13 + 35) = {28.76322462015478, 2.187100379845219, 0.1};
Point(p13 + 36) = {28.840367594232, 2.277423197572166, 0.1};
Point(p13 + 37) = {28.90243120861487, 2.378701811412155, 0.1};
Point(p13 + 38) = {28.94788725113994, 2.488442405767996, 0.1};
Point(p13 + 39) = {28.9756164431803, 2.603942802998496, 0.1};
Spline(13) = {9, p13 + 1, p13 + 2, p13 + 3, p13 + 4, p13 + 5, p13 + 6, p13 + 7, p13 + 8, p13 + 9, p13 + 10, p13 + 11, p13 + 12, p13 + 13, p13 + 14, p13 + 15, p13 + 16, p13 + 17, p13 + 18, p13 + 19, p13 + 20, p13 + 21, p13 + 22, p13 + 23, p13 + 24, p13 + 25, p13 + 26, p13 + 27, p13 + 28, p13 + 29, p13 + 30, p13 + 31, p13 + 32, p13 + 33, p13 + 34, p13 + 35, p13 + 36, p13 + 37, p13 + 38, p13 + 39, 9};
Line(14) = {10, 9};
p15 = newp;
Point(p15 + 1) = {28.9756164431803, 2.840775197001503, 0};
Point(p15 + 2) = {28.94788725113994, 2.956275594232004, 0};
Point(p15 + 3) = {28.90243120861487, 3.066016188587845, 0};
Point(p15 + 4) = {28.840367594232, 3.167294802427834, 0};
Point(p15 + 5) = {28.76322462015478, 3.257617620154781, 0};
Point(p15 + 6) = {28.67290180242783, 3.334760594232004, 0};
Point(p15 + 7) = {28.57162318858784, 3.396824208614869, 0};
Point(p15 + 8) = {28.461882594232, 3.442280251139942, 0};
Point(p15 + 9) = {28.3463821970015, 3.470009443180301, 0};
Point(p15 + 10) = {28.227966, 3.479329, 0};
Point(p15 + 11) = {28.10954980299849, 3.470009443180301, 0};
Point(p15 + 12) = {27.994049405768, 3.442280251139942, 0};
Point(p15 + 13) = {27.88430881141215, 3.396824208614869, 0};
Point(p15 + 14) = {27.78303019757217, 3.334760594232004, 0};
Point(p15 + 15) = {27.69270737984522, 3.257617620154781, 0};
Point(p15 + 16) = {27.61556440576799, 3.167294802427834, 0};
Point(p15 + 17) = {27.55350079138513, 3.066016188587845, 0};
Point(p15 + 18) = {27.50804474886005, 2.956275594232004, 0};
Point(p15 + 19) = {27.4803155568197, 2.840775197001504, 0};
Point(p15 + 20) = {27.470996, 2.722359, 0};
Point(p15 + 21) = {27.4803155568197, 2.603942802998497, 0};
Point(p15 + 22) = {27.50804474886005, 2.488442405767996, 0};
Point(p15 + 23) = {27.55350079138513, 2.378701811412156, 0};
Point(p15 + 24) = {27.61556440576799, 2.277423197572167, 0};
Point(p15 + 25) = {27.69270737984522, 2.187100379845219, 0};
Point(p15 + 26) = {27.78303019757217, 2.109957405767996, 0};
Point(p15 + 27) = {27.88430881141215, 2.047893791385131, 0};
Point(p15 + 28) = {27.994049405768, 2.002437748860058, 0};
Point(p15 + 29) = {28.10954980299849, 1.974708556819698, 0};
Point(p15 + 30) = {28.227966, 1.965389, 0};
Point(p15 + 31) = {28.3463821970015, 1.974708556819698, 0};
Point(p15 + 32) = {28.461882594232, 2.002437748860058, 0};
Point(p15 + 33) = {28.57162318858784, 2.047893791385131, 0};
Point(p15 + 34) = {28.67290180242783, 2.109957405767996, 0};
Point(p15 + 35) = {28.76322462015478, 2.187100379845219, 0};
Point(p15 + 36) = {28.840367594232, 2.277423197572166, 0};
Point(p15 + 37) = {28.90243120861487, 2.378701811412155, 0};
Point(p15 + 38) = {28.94788725113994, 2.488442405767996, 0};
Point(p15 + 39) = {28.9756164431803, 2.603942802998496, 0};
Spline(15) = {10, p15 + 1, p15 + 2, p15 + 3, p15 + 4, p15 + 5, p15 + 6, p15 + 7, p15 + 8, p15 + 9, p15 + 10, p15 + 11, p15 + 12, p15 + 13, p15 + 14, p15 + 15, p15 + 16, p15 + 17, p15 + 18, p15 + 19, p15 + 20, p15 + 21, p15 + 22, p15 + 23, p15 + 24, p15 + 25, p15 + 26, p15 + 27, p15 + 28, p15 + 29, p15 + 30, p15 + 31, p15 + 32, p15 + 33, p15 + 34, p15 + 35, p15 + 36, p15 + 37, p15 + 38, p15 + 39, 10};
p16 = newp;
Point(p16 + 1) = {26.77441796472746, 0.05484575136148115, 0.1};
Point(p16 + 2) = {26.72655892586142, 0.2541929949469363, 0.1};
Point(p16 + 3) = {26.64810433177381, 0.443599140023721, 0.1};
Point(p16 + 4) = {26.54098599494694, 0.6184003786970886, 0.1};
Point(p16 + 5) = {26.40784152433885, 0.7742925243388501, 0.1};
Point(p16 + 6) = {26.25194937869709, 0.9074369949469363, 0.1};
Point(p16 + 7) = {26.07714814002372, 1.014555331773812, 0.1};
Point(p16 + 8) = {25.88774199494694, 1.093009925861423, 0.1};
Point(p16 + 9) = {25.68839475136148, 1.14086896472746, 0.1};
Point(p16 + 10) = {25.484015, 1.156954, 0.1};
Point(p16 + 11) = {25.27963524863852, 1.14086896472746, 0.1};
Point(p16 + 12) = {25.08028800505306, 1.093009925861423, 0.1};
Point(p16 + 13) = {24.89088185997628, 1.014555331773813, 0.1};
Point(p16 + 14) = {24.71608062130291, 0.9074369949469363, 0.1};
Point(p16 + 15) = {24.56018847566115, 0.7742925243388503, 0.1};
Point(p16 + 16) = {24.42704400505306, 0.6184003786970889, 0.1};
Point(p16 + 17) = {24.31992566822619, 0.4435991400237212, 0.1};
Point(p16 + 18) = {24.24147107413858, 0.2541929949469364, 0.1};
Point(p16 + 19) = {24.19361203527254, 0.05484575136148132, 0.1};
Point(p16 + 20) = {24.177527, -0.1495339999999998, 0.1};
Point(p16 + 21) = {24.19361203527254, -0.353913751361481, 0.1};
Point(p16 + 22) = {24.24147107413858, -0.5532609949469367, 0.1};
Point(p16 + 23) = {24.31992566822619, -0.7426671400237204, 0.1};
Point(p16 + 24) = {24.42704400505306, -0.9174683786970885, 0.1};
Point(p16 + 25) = {24.56018847566115, -1.07336052433885, 0.1};
Point(p16 + 26) = {24.71608062130291, -1.206504994946936, 0.1};
Point(p16 + 27) = {24.89088185997628, -1.313623331773812, 0.1};
Point(p16 + 28) = {25.08028800505306, -1.392077925861423, 0.1};
Point(p16 + 29) = {25.27963524863852, -1.43993696472746, 0.1};
Point(p16 + 30) = {25.484015, -1.456022, 0.1};
Point(p16 + 31) = {25.68839475136148, -1.43993696472746, 0.1};
Point(p16 + 32) = {25.88774199494694, -1.392077925861423, 0.1};
Point(p16 + 33) = {26.07714814002372, -1.313623331773813, 0.1};
Point(p16 + 34) = {26.25194937869709, -1.206504994946937, 0.1};
Point(p16 + 35) = {26.40784152433885, -1.07336052433885, 0.1};
Point(p16 + 36) = {26.54098599494694, -0.9174683786970887, 0.1};
Point(p16 + 37) = {26.64810433177381, -0.7426671400237213, 0.1};
Point(p16 + 38) = {26.72655892586142, -0.5532609949469366, 0.1};
Point(p16 + 39) = {26.77441796472746, -0.3539137513614815, 0.1};
Spline(16) = {11, p16 + 1, p16 + 2, p16 + 3, p16 + 4, p16 + 5, p16 + 6, p16 + 7, p16 + 8, p16 + 9, p16 + 10, p16 + 11, p16 + 12, p16 + 13, p16 + 14, p16 + 15, p16 + 16, p16 + 17, p16 + 18, p16 + 19, p16 + 20, p16 + 21, p16 + 22, p16 + 23, p16 + 24, p16 + 25, p16 + 26, p16 + 27, p16 + 28, p16 + 29, p16 + 30, p16 + 31, p16 + 32, p16 + 33, p16 + 34, p16 + 35, p16 + 36, p16 + 37, p16 + 38, p16 + 39, 11};
Line(17) = {12, 11};
p18 = newp;
Point(p18 + 1) = {26.77441796472746, 0.05484575136148115, 0};
Point(p18 + 2) = {26.72655892586142, 0.2541929949469363, 0};
Point(p18 + 3) = {26.64810433177381, 0.443599140023721, 0};
Point(p18 + 4) = {26.54098599494694, 0.6184003786970886, 0};
Point(p18 + 5) = {26.40784152433885, 0.7742925243388501, 0};
Point(p18 + 6) = {26.25194937869709, 0.9074369949469363, 0};
Point(p18 + 7) = {26.07714814002372, 1.014555331773812, 0};
Point(p18 + 8) = {25.88774199494694, 1.093009925861423, 0};
Point(p18 + 9) = {25.68839475136148, 1.14086896472746, 0};
Point(p18 + 10) = {25.484015, 1.156954, 0};
Point(p18 + 11) = {25.27963524863852, 1.14086896472746, 0};
Point(p18 + 12) = {25.08028800505306, 1.093009925861423, 0};
Point(p18 + 13) = {24.89088185997628, 1.014555331773813, 0};
Point(p18 + 14) = {24.71608062130291, 0.9074369949469363, 0};
Point(p18 + 15) = {24.56018847566115, 0.7742925243388503, 0};
Point(p18 + 16) = {24.42704400505306, 0.6184003786970889, 0};
Point(p18 + 17) = {24.31992566822619, 0.4435991400237212, 0};
Point(p18 + 18) = {24.24147107413858, 0.2541929949469364, 0};
Point(p18 + 19) = {24.19361203527254, 0.05484575136148132, 0};
Point(p18 + 20) = {24.177527, -0.1495339999999998, 0};
Point(p18 + 21) = {24.19361203527254, -0.353913751361481, 0};
Point(p18 + 22) = {24.24147107413858, -0.5532609949469367, 0};
Point(p18 + 23) = {24.31992566822619, -0.7426671400237204, 0};
Point(p18 + 24) = {24.42704400505306, -0.9174683786970885, 0};
Point(p18 + 25) = {24.56018847566115, -1.07336052433885, 0};
Point(p18 + 26) = {24.71608062130291, -1.206504994946936, 0};
Point(p18 + 27) = {24.89088185997628, -1.313623331773812, 0};
Point(p18 + 28) = {25.08028800505306, -1.392077925861423, 0};
Point(p18 + 29) = {25.27963524863852, -1.43993696472746, 0};
Point(p18 + 30) = {25.484015, -1.456022, 0};
Point(p18 + 31) = {25.68839475136148, -1.43993696472746, 0};
Point(p18 + 32) = {25.88774199494694, -1.392077925861423, 0};
Point(p18 + 33) = {26.07714814002372, -1.313623331773813, 0};
Point(p18 + 34) = {26.25194937869709, -1.206504994946937, 0};
Point(p18 + 35) = {26.40784152433885, -1.07336052433885, 0};
Point(p18 + 36) = {26.54098599494694, -0.9174683786970887, 0};
Point(p18 + 37) = {26.64810433177381, -0.7426671400237213, 0};
Point(p18 + 38) = {26.72655892586142, -0.5532609949469366, 0};
Point(p18 + 39) = {26.77441796472746, -0.3539137513614815, 0};
Spline(18) = {12, p18 + 1, p18 + 2, p18 + 3, p18 + 4, p18 + 5, p18 + 6, p18 + 7, p18 + 8, p18 + 9, p18 + 10, p18 + 11, p18 + 12, p18 + 13, p18 + 14, p18 + 15, p18 + 16, p18 + 17, p18 + 18, p18 + 19, p18 + 20, p18 + 21, p18 + 22, p18 + 23, p18 + 24, p18 + 25, p18 + 26, p18 + 27, p18 + 28, p18 + 29, p18 + 30, p18 + 31, p18 + 32, p18 + 33, p18 + 34, p18 + 35, p18 + 36, p18 + 37, p18 + 38, p18 + 39, 12};
Line(19) = {14, 13};
Line(20) = {13, 15};
Line(21) = {16, 15};
Line(22) = {14, 16};
Line(23) = {14, 17};
Line(24) = {17, 18};
Line(25) = {13, 18};
Line(26) = {15, 19};
Line(27) = {18, 19};
Line(28) = {16, 20};
Line(29) = {20, 19};
Line(30) = {17, 20};
Curve Loop(7) = {-13, -14, 15, 14};
Surface(7) = {7};
Curve Loop(8) = {13};
Plane Surface(8) = {8};
Curve Loop(9) = {15};
Plane Surface(9) = {9};
Curve Loop(10) = {-16, -17, 18, 17};
Surface(10) = {10};
Curve Loop(11) = {16};
Plane Surface(11) = {11};
Curve Loop(12) = {18};
Plane Surface(12) = {12};
Curve Loop(13) = {-19, 22, 21, -20};
Plane Surface(13) = {13};
Curve Loop(14) = {-23, 19, 25, -24};
Plane Surface(14) = {14};
Curve Loop(15) = {-20, 25, 27, -26};
Plane Surface(15) = {15};
Curve Loop(16) = {-28, 21, 26, -29};
Plane Surface(16) = {16};
Curve Loop(17) = {-22, 23, 30, -28, -18, -15};
Plane Surface(17) = {17};
Curve Loop(18) = {-24, 30, 29, -27};
Plane Surface(18) = {18};
Surface Loop(1) = {13, 14, 15, 16, 17, 18, 10, 7, 11, 8};
Volume(1) = {1};
Surface Loop(2) = {7, 8, 9};
Volume(2) = {2};
Surface Loop(3) = {10, 11, 12};
Volume(3) = {3};
Physical Surface("WALLS") = {13, 18};
Physical Surface("LOAD") = {8, 11};
Physical Surface("BORDER") = {7, 9, 10, 12, 14, 15, 16, 17};
Physical Volume("SOLID") = {1, 2, 3};
