cl__1 = 0.125243;
cl__2 = 0.120561;
cl__3 = 0.8308990000000001;
cl__4 = 0.683269;
cl__5 = 1.796299;
cl__6 = 2.04948;
Point(9) = {10.798534, 2.091507, 0.1, cl__1};
Point(10) = {10.798534, 2.091507, 0, cl__1};
Point(11) = {18.07374, -1.021316, 0.1, cl__2};
Point(12) = {18.07374, -1.021316, 0, cl__2};
Point(13) = {0.755484, -4.132437, 0.1, cl__3};
Point(14) = {0.755484, -4.132437, 0, cl__3};
Point(15) = {0.755484, 4.364425, 0.1, cl__4};
Point(16) = {0.755484, 4.364425, 0, cl__4};
Point(17) = {31.676004, -4.132437, 0, cl__5};
Point(18) = {31.676004, -4.132437, 0.1, cl__5};
Point(19) = {31.676004, 4.364425, 0.1, cl__6};
Point(20) = {31.676004, 4.364425, 0, cl__6};
p13 = newp;
Point(p13 + 1) = {10.78311453303489, 2.287429904181406, 0.1};
Point(p13 + 2) = {10.73723581059051, 2.478528536231027, 0.1};
Point(p13 + 3) = {10.66202751907619, 2.660097413607801, 0.1};
Point(p13 + 4) = {10.55934153623103, 2.827665707958158, 0.1};
Point(p13 + 5) = {10.43170633174791, 2.977107331747905, 0.1};
Point(p13 + 6) = {10.28226470795816, 3.104742536231027, 0.1};
Point(p13 + 7) = {10.1146964136078, 3.207428519076189, 0.1};
Point(p13 + 8) = {9.933127536231027, 3.282636810590507, 0.1};
Point(p13 + 9) = {9.742028904181407, 3.328515533034887, 0.1};
Point(p13 + 10) = {9.546106, 3.343935, 0.1};
Point(p13 + 11) = {9.350183095818593, 3.328515533034887, 0.1};
Point(p13 + 12) = {9.159084463768973, 3.282636810590507, 0.1};
Point(p13 + 13) = {8.977515586392199, 3.207428519076189, 0.1};
Point(p13 + 14) = {8.809947292041842, 3.104742536231027, 0.1};
Point(p13 + 15) = {8.660505668252094, 2.977107331747905, 0.1};
Point(p13 + 16) = {8.532870463768973, 2.827665707958158, 0.1};
Point(p13 + 17) = {8.430184480923812, 2.660097413607801, 0.1};
Point(p13 + 18) = {8.354976189409493, 2.478528536231027, 0.1};
Point(p13 + 19) = {8.309097466965113, 2.287429904181407, 0.1};
Point(p13 + 20) = {8.293678, 2.091507, 0.1};
Point(p13 + 21) = {8.309097466965113, 1.895584095818594, 0.1};
Point(p13 + 22) = {8.354976189409493, 1.704485463768973, 0.1};
Point(p13 + 23) = {8.43018448092381, 1.5229165863922, 0.1};
Point(p13 + 24) = {8.532870463768973, 1.355348292041842, 0.1};
Point(p13 + 25) = {8.660505668252094, 1.205906668252095, 0.1};
Point(p13 + 26) = {8.809947292041842, 1.078271463768973, 0.1};
Point(p13 + 27) = {8.977515586392199, 0.9755854809238109, 0.1};
Point(p13 + 28) = {9.159084463768973, 0.9003771894094934, 0.1};
Point(p13 + 29) = {9.350183095818593, 0.8544984669651128, 0.1};
Point(p13 + 30) = {9.546106, 0.8390789999999999, 0.1};
Point(p13 + 31) = {9.742028904181407, 0.8544984669651128, 0.1};
Point(p13 + 32) = {9.933127536231027, 0.9003771894094932, 0.1};
Point(p13 + 33) = {10.1146964136078, 0.9755854809238105, 0.1};
Point(p13 + 34) = {10.28226470795816, 1.078271463768973, 0.1};
Point(p13 + 35) = {10.43170633174791, 1.205906668252094, 0.1};
Point(p13 + 36) = {10.55934153623103, 1.355348292041842, 0.1};
Point(p13 + 37) = {10.66202751907619, 1.522916586392199, 0.1};
Point(p13 + 38) = {10.73723581059051, 1.704485463768973, 0.1};
Point(p13 + 39) = {10.78311453303489, 1.895584095818593, 0.1};
Spline(13) = {9, p13 + 1, p13 + 2, p13 + 3, p13 + 4, p13 + 5, p13 + 6, p13 + 7, p13 + 8, p13 + 9, p13 + 10, p13 + 11, p13 + 12, p13 + 13, p13 + 14, p13 + 15, p13 + 16, p13 + 17, p13 + 18, p13 + 19, p13 + 20, p13 + 21, p13 + 22, p13 + 23, p13 + 24, p13 + 25, p13 + 26, p13 + 27, p13 + 28, p13 + 29, p13 + 30, p13 + 31, p13 + 32, p13 + 33, p13 + 34, p13 + 35, p13 + 36, p13 + 37, p13 + 38, p13 + 39, 9};
Line(14) = {10, 9};
p15 = newp;
Point(p15 + 1) = {10.78311453303489, 2.287429904181406, 0};
Point(p15 + 2) = {10.73723581059051, 2.478528536231027, 0};
Point(p15 + 3) = {10.66202751907619, 2.660097413607801, 0};
Point(p15 + 4) = {10.55934153623103, 2.827665707958158, 0};
Point(p15 + 5) = {10.43170633174791, 2.977107331747905, 0};
Point(p15 + 6) = {10.28226470795816, 3.104742536231027, 0};
Point(p15 + 7) = {10.1146964136078, 3.207428519076189, 0};
Point(p15 + 8) = {9.933127536231027, 3.282636810590507, 0};
Point(p15 + 9) = {9.742028904181407, 3.328515533034887, 0};
Point(p15 + 10) = {9.546106, 3.343935, 0};
Point(p15 + 11) = {9.350183095818593, 3.328515533034887, 0};
Point(p15 + 12) = {9.159084463768973, 3.282636810590507, 0};
Point(p15 + 13) = {8.977515586392199, 3.207428519076189, 0};
Point(p15 + 14) = {8.809947292041842, 3.104742536231027, 0};
Point(p15 + 15) = {8.660505668252094, 2.977107331747905, 0};
Point(p15 + 16) = {8.532870463768973, 2.827665707958158, 0};
Point(p15 + 17) = {8.430184480923812, 2.660097413607801, 0};
Point(p15 + 18) = {8.354976189409493, 2.478528536231027, 0};
Point(p15 + 19) = {8.309097466965113, 2.287429904181407, 0};
Point(p15 + 20) = {8.293678, 2.091507, 0};
Point(p15 + 21) = {8.309097466965113, 1.895584095818594, 0};
Point(p15 + 22) = {8.354976189409493, 1.704485463768973, 0};
Point(p15 + 23) = {8.43018448092381, 1.5229165863922, 0};
Point(p15 + 24) = {8.532870463768973, 1.355348292041842, 0};
Point(p15 + 25) = {8.660505668252094, 1.205906668252095, 0};
Point(p15 + 26) = {8.809947292041842, 1.078271463768973, 0};
Point(p15 + 27) = {8.977515586392199, 0.9755854809238109, 0};
Point(p15 + 28) = {9.159084463768973, 0.9003771894094934, 0};
Point(p15 + 29) = {9.350183095818593, 0.8544984669651128, 0};
Point(p15 + 30) = {9.546106, 0.8390789999999999, 0};
Point(p15 + 31) = {9.742028904181407, 0.8544984669651128, 0};
Point(p15 + 32) = {9.933127536231027, 0.9003771894094932, 0};
Point(p15 + 33) = {10.1146964136078, 0.9755854809238105, 0};
Point(p15 + 34) = {10.28226470795816, 1.078271463768973, 0};
Point(p15 + 35) = {10.43170633174791, 1.205906668252094, 0};
Point(p15 + 36) = {10.55934153623103, 1.355348292041842, 0};
Point(p15 + 37) = {10.66202751907619, 1.522916586392199, 0};
Point(p15 + 38) = {10.73723581059051, 1.704485463768973, 0};
Point(p15 + 39) = {10.78311453303489, 1.895584095818593, 0};
Spline(15) = {10, p15 + 1, p15 + 2, p15 + 3, p15 + 4, p15 + 5, p15 + 6, p15 + 7, p15 + 8, p15 + 9, p15 + 10, p15 + 11, p15 + 12, p15 + 13, p15 + 14, p15 + 15, p15 + 16, p15 + 17, p15 + 18, p15 + 19, p15 + 20, p15 + 21, p15 + 22, p15 + 23, p15 + 24, p15 + 25, p15 + 26, p15 + 27, p15 + 28, p15 + 29, p15 + 30, p15 + 31, p15 + 32, p15 + 33, p15 + 34, p15 + 35, p15 + 36, p15 + 37, p15 + 38, p15 + 39, 10};
p16 = newp;
Point(p16 + 1) = {18.05889696492822, -0.8327173574717772, 0.1};
Point(p16 + 2) = {18.01473334449757, -0.6487626394456083, 0.1};
Point(p16 + 3) = {17.94233659361369, -0.4739814215900044, 0.1};
Point(p16 + 4) = {17.84348936055439, -0.3126773975541759, 0.1};
Point(p16 + 5) = {17.72062559225275, -0.1688224077472488, 0.1};
Point(p16 + 6) = {17.57677060244582, -0.04595863944560841, 0.1};
Point(p16 + 7) = {17.41546657840999, 0.0528885936136898, 0.1};
Point(p16 + 8) = {17.24068536055439, 0.1252853444975677, 0.1};
Point(p16 + 9) = {17.05673064252822, 0.1694489649282229, 0.1};
Point(p16 + 10) = {16.868132, 0.1842920000000001, 0.1};
Point(p16 + 11) = {16.67953335747178, 0.1694489649282229, 0.1};
Point(p16 + 12) = {16.49557863944561, 0.1252853444975677, 0.1};
Point(p16 + 13) = {16.32079742159, 0.05288859361369003, 0.1};
Point(p16 + 14) = {16.15949339755418, -0.04595863944560818, 0.1};
Point(p16 + 15) = {16.01563840774725, -0.1688224077472487, 0.1};
Point(p16 + 16) = {15.89277463944561, -0.3126773975541758, 0.1};
Point(p16 + 17) = {15.79392740638631, -0.4739814215900042, 0.1};
Point(p16 + 18) = {15.72153065550243, -0.6487626394456082, 0.1};
Point(p16 + 19) = {15.67736703507178, -0.8327173574717771, 0.1};
Point(p16 + 20) = {15.662524, -1.021316, 0.1};
Point(p16 + 21) = {15.67736703507178, -1.209914642528222, 0.1};
Point(p16 + 22) = {15.72153065550243, -1.393869360554392, 0.1};
Point(p16 + 23) = {15.79392740638631, -1.568650578409995, 0.1};
Point(p16 + 24) = {15.89277463944561, -1.729954602445824, 0.1};
Point(p16 + 25) = {16.01563840774725, -1.873809592252751, 0.1};
Point(p16 + 26) = {16.15949339755418, -1.996673360554391, 0.1};
Point(p16 + 27) = {16.32079742159, -2.095520593613689, 0.1};
Point(p16 + 28) = {16.49557863944561, -2.167917344497567, 0.1};
Point(p16 + 29) = {16.67953335747178, -2.212080964928223, 0.1};
Point(p16 + 30) = {16.868132, -2.226924, 0.1};
Point(p16 + 31) = {17.05673064252822, -2.212080964928223, 0.1};
Point(p16 + 32) = {17.24068536055439, -2.167917344497567, 0.1};
Point(p16 + 33) = {17.41546657840999, -2.09552059361369, 0.1};
Point(p16 + 34) = {17.57677060244582, -1.996673360554392, 0.1};
Point(p16 + 35) = {17.72062559225275, -1.873809592252751, 0.1};
Point(p16 + 36) = {17.84348936055439, -1.729954602445824, 0.1};
Point(p16 + 37) = {17.94233659361369, -1.568650578409996, 0.1};
Point(p16 + 38) = {18.01473334449757, -1.393869360554392, 0.1};
Point(p16 + 39) = {18.05889696492822, -1.209914642528223, 0.1};
Spline(16) = {11, p16 + 1, p16 + 2, p16 + 3, p16 + 4, p16 + 5, p16 + 6, p16 + 7, p16 + 8, p16 + 9, p16 + 10, p16 + 11, p16 + 12, p16 + 13, p16 + 14, p16 + 15, p16 + 16, p16 + 17, p16 + 18, p16 + 19, p16 + 20, p16 + 21, p16 + 22, p16 + 23, p16 + 24, p16 + 25, p16 + 26, p16 + 27, p16 + 28, p16 + 29, p16 + 30, p16 + 31, p16 + 32, p16 + 33, p16 + 34, p16 + 35, p16 + 36, p16 + 37, p16 + 38, p16 + 39, 11};
Line(17) = {12, 11};
p18 = newp;
Point(p18 + 1) = {18.05889696492822, -0.8327173574717772, 0};
Point(p18 + 2) = {18.01473334449757, -0.6487626394456083, 0};
Point(p18 + 3) = {17.94233659361369, -0.4739814215900044, 0};
Point(p18 + 4) = {17.84348936055439, -0.3126773975541759, 0};
Point(p18 + 5) = {17.72062559225275, -0.1688224077472488, 0};
Point(p18 + 6) = {17.57677060244582, -0.04595863944560841, 0};
Point(p18 + 7) = {17.41546657840999, 0.0528885936136898, 0};
Point(p18 + 8) = {17.24068536055439, 0.1252853444975677, 0};
Point(p18 + 9) = {17.05673064252822, 0.1694489649282229, 0};
Point(p18 + 10) = {16.868132, 0.1842920000000001, 0};
Point(p18 + 11) = {16.67953335747178, 0.1694489649282229, 0};
Point(p18 + 12) = {16.49557863944561, 0.1252853444975677, 0};
Point(p18 + 13) = {16.32079742159, 0.05288859361369003, 0};
Point(p18 + 14) = {16.15949339755418, -0.04595863944560818, 0};
Point(p18 + 15) = {16.01563840774725, -0.1688224077472487, 0};
Point(p18 + 16) = {15.89277463944561, -0.3126773975541758, 0};
Point(p18 + 17) = {15.79392740638631, -0.4739814215900042, 0};
Point(p18 + 18) = {15.72153065550243, -0.6487626394456082, 0};
Point(p18 + 19) = {15.67736703507178, -0.8327173574717771, 0};
Point(p18 + 20) = {15.662524, -1.021316, 0};
Point(p18 + 21) = {15.67736703507178, -1.209914642528222, 0};
Point(p18 + 22) = {15.72153065550243, -1.393869360554392, 0};
Point(p18 + 23) = {15.79392740638631, -1.568650578409995, 0};
Point(p18 + 24) = {15.89277463944561, -1.729954602445824, 0};
Point(p18 + 25) = {16.01563840774725, -1.873809592252751, 0};
Point(p18 + 26) = {16.15949339755418, -1.996673360554391, 0};
Point(p18 + 27) = {16.32079742159, -2.095520593613689, 0};
Point(p18 + 28) = {16.49557863944561, -2.167917344497567, 0};
Point(p18 + 29) = {16.67953335747178, -2.212080964928223, 0};
Point(p18 + 30) = {16.868132, -2.226924, 0};
Point(p18 + 31) = {17.05673064252822, -2.212080964928223, 0};
Point(p18 + 32) = {17.24068536055439, -2.167917344497567, 0};
Point(p18 + 33) = {17.41546657840999, -2.09552059361369, 0};
Point(p18 + 34) = {17.57677060244582, -1.996673360554392, 0};
Point(p18 + 35) = {17.72062559225275, -1.873809592252751, 0};
Point(p18 + 36) = {17.84348936055439, -1.729954602445824, 0};
Point(p18 + 37) = {17.94233659361369, -1.568650578409996, 0};
Point(p18 + 38) = {18.01473334449757, -1.393869360554392, 0};
Point(p18 + 39) = {18.05889696492822, -1.209914642528223, 0};
Spline(18) = {12, p18 + 1, p18 + 2, p18 + 3, p18 + 4, p18 + 5, p18 + 6, p18 + 7, p18 + 8, p18 + 9, p18 + 10, p18 + 11, p18 + 12, p18 + 13, p18 + 14, p18 + 15, p18 + 16, p18 + 17, p18 + 18, p18 + 19, p18 + 20, p18 + 21, p18 + 22, p18 + 23, p18 + 24, p18 + 25, p18 + 26, p18 + 27, p18 + 28, p18 + 29, p18 + 30, p18 + 31, p18 + 32, p18 + 33, p18 + 34, p18 + 35, p18 + 36, p18 + 37, p18 + 38, p18 + 39, 12};
Line(19) = {14, 13};
Line(20) = {13, 15};
Line(21) = {16, 15};
Line(22) = {14, 16};
Line(23) = {14, 17};
Line(24) = {17, 18};
Line(25) = {13, 18};
Line(26) = {15, 19};
Line(27) = {18, 19};
Line(28) = {16, 20};
Line(29) = {20, 19};
Line(30) = {17, 20};
Curve Loop(7) = {-13, -14, 15, 14};
Surface(7) = {7};
Curve Loop(8) = {13};
Plane Surface(8) = {8};
Curve Loop(9) = {15};
Plane Surface(9) = {9};
Curve Loop(10) = {-16, -17, 18, 17};
Surface(10) = {10};
Curve Loop(11) = {16};
Plane Surface(11) = {11};
Curve Loop(12) = {18};
Plane Surface(12) = {12};
Curve Loop(13) = {-19, 22, 21, -20};
Plane Surface(13) = {13};
Curve Loop(14) = {-23, 19, 25, -24};
Plane Surface(14) = {14};
Curve Loop(15) = {-20, 25, 27, -26, -16, -13};
Plane Surface(15) = {15};
Curve Loop(16) = {-28, 21, 26, -29};
Plane Surface(16) = {16};
Curve Loop(17) = {-22, 23, 30, -28, -18, -15};
Plane Surface(17) = {17};
Curve Loop(18) = {-24, 30, 29, -27};
Plane Surface(18) = {18};
Surface Loop(1) = {13, 14, 15, 16, 17, 18, 10, 7};
Volume(1) = {1};
Surface Loop(2) = {7, 8, 9};
Volume(2) = {2};
Surface Loop(3) = {10, 11, 12};
Volume(3) = {3};
Physical Surface("WALLS") = {13, 18};
Physical Surface("LOAD") = {8, 11};
Physical Surface("BORDER") = {7, 9, 10, 12, 14, 15, 16, 17};
Physical Volume("SOLID") = {1, 2, 3};
