cl__1 = 0.120845;
cl__2 = 0.059528;
cl__3 = 3.016331;
cl__4 = 2.733616;
cl__5 = 0.542855;
cl__6 = 0.614051;
Point(9) = {24.034249, 1.969637, 0.1, cl__1};
Point(10) = {24.034249, 1.969637, 0, cl__1};
Point(11) = {25.057829, -2.250662000000001, 0.1, cl__2};
Point(12) = {25.057829, -2.250662000000001, 0, cl__2};
Point(13) = {0.01032, -4.483075, 0.1, cl__3};
Point(14) = {0.01032, -4.483075, 0, cl__3};
Point(15) = {0.01032, 4.749484, 0.1, cl__4};
Point(16) = {0.01032, 4.749484, 0, cl__4};
Point(17) = {33.23246, -4.483075, 0, cl__5};
Point(18) = {33.23246, -4.483075, 0.1, cl__5};
Point(19) = {33.23246, 4.749484, 0.1, cl__6};
Point(20) = {33.23246, 4.749484, 0, cl__6};
p13 = newp;
Point(p13 + 1) = {24.01937093825722, 2.158680698581262, 0.1};
Point(p13 + 2) = {23.97510310028643, 2.343069513903389, 0.1};
Point(p13 + 3) = {23.90253550717501, 2.518263181381755, 0.1};
Point(p13 + 4) = {23.80345501390339, 2.679947851488596, 0.1};
Point(p13 + 5) = {23.68030131104523, 2.824142311045227, 0.1};
Point(p13 + 6) = {23.5361068514886, 2.947296013903388, 0.1};
Point(p13 + 7) = {23.37442218138175, 3.046376507175006, 0.1};
Point(p13 + 8) = {23.19922851390339, 3.118944100286427, 0.1};
Point(p13 + 9) = {23.01483969858126, 3.163211938257216, 0.1};
Point(p13 + 10) = {22.825796, 3.17809, 0.1};
Point(p13 + 11) = {22.63675230141874, 3.163211938257216, 0.1};
Point(p13 + 12) = {22.45236348609661, 3.118944100286427, 0.1};
Point(p13 + 13) = {22.27716981861825, 3.046376507175006, 0.1};
Point(p13 + 14) = {22.1154851485114, 2.947296013903388, 0.1};
Point(p13 + 15) = {21.97129068895477, 2.824142311045227, 0.1};
Point(p13 + 16) = {21.84813698609661, 2.679947851488596, 0.1};
Point(p13 + 17) = {21.74905649282499, 2.518263181381755, 0.1};
Point(p13 + 18) = {21.67648889971357, 2.343069513903389, 0.1};
Point(p13 + 19) = {21.63222106174278, 2.158680698581263, 0.1};
Point(p13 + 20) = {21.617343, 1.969637, 0.1};
Point(p13 + 21) = {21.63222106174278, 1.780593301418738, 0.1};
Point(p13 + 22) = {21.67648889971357, 1.596204486096611, 0.1};
Point(p13 + 23) = {21.74905649282499, 1.421010818618246, 0.1};
Point(p13 + 24) = {21.84813698609661, 1.259326148511404, 0.1};
Point(p13 + 25) = {21.97129068895477, 1.115131688954773, 0.1};
Point(p13 + 26) = {22.1154851485114, 0.9919779860966118, 0.1};
Point(p13 + 27) = {22.27716981861824, 0.8928974928249944, 0.1};
Point(p13 + 28) = {22.45236348609661, 0.8203298997135728, 0.1};
Point(p13 + 29) = {22.63675230141874, 0.7760620617427842, 0.1};
Point(p13 + 30) = {22.825796, 0.7611840000000001, 0.1};
Point(p13 + 31) = {23.01483969858126, 0.776062061742784, 0.1};
Point(p13 + 32) = {23.19922851390339, 0.8203298997135728, 0.1};
Point(p13 + 33) = {23.37442218138175, 0.8928974928249942, 0.1};
Point(p13 + 34) = {23.5361068514886, 0.9919779860966116, 0.1};
Point(p13 + 35) = {23.68030131104523, 1.115131688954773, 0.1};
Point(p13 + 36) = {23.80345501390339, 1.259326148511404, 0.1};
Point(p13 + 37) = {23.90253550717501, 1.421010818618245, 0.1};
Point(p13 + 38) = {23.97510310028643, 1.596204486096612, 0.1};
Point(p13 + 39) = {24.01937093825722, 1.780593301418738, 0.1};
Spline(13) = {9, p13 + 1, p13 + 2, p13 + 3, p13 + 4, p13 + 5, p13 + 6, p13 + 7, p13 + 8, p13 + 9, p13 + 10, p13 + 11, p13 + 12, p13 + 13, p13 + 14, p13 + 15, p13 + 16, p13 + 17, p13 + 18, p13 + 19, p13 + 20, p13 + 21, p13 + 22, p13 + 23, p13 + 24, p13 + 25, p13 + 26, p13 + 27, p13 + 28, p13 + 29, p13 + 30, p13 + 31, p13 + 32, p13 + 33, p13 + 34, p13 + 35, p13 + 36, p13 + 37, p13 + 38, p13 + 39, 9};
Line(14) = {10, 9};
p15 = newp;
Point(p15 + 1) = {24.01937093825722, 2.158680698581262, 0};
Point(p15 + 2) = {23.97510310028643, 2.343069513903389, 0};
Point(p15 + 3) = {23.90253550717501, 2.518263181381755, 0};
Point(p15 + 4) = {23.80345501390339, 2.679947851488596, 0};
Point(p15 + 5) = {23.68030131104523, 2.824142311045227, 0};
Point(p15 + 6) = {23.5361068514886, 2.947296013903388, 0};
Point(p15 + 7) = {23.37442218138175, 3.046376507175006, 0};
Point(p15 + 8) = {23.19922851390339, 3.118944100286427, 0};
Point(p15 + 9) = {23.01483969858126, 3.163211938257216, 0};
Point(p15 + 10) = {22.825796, 3.17809, 0};
Point(p15 + 11) = {22.63675230141874, 3.163211938257216, 0};
Point(p15 + 12) = {22.45236348609661, 3.118944100286427, 0};
Point(p15 + 13) = {22.27716981861825, 3.046376507175006, 0};
Point(p15 + 14) = {22.1154851485114, 2.947296013903388, 0};
Point(p15 + 15) = {21.97129068895477, 2.824142311045227, 0};
Point(p15 + 16) = {21.84813698609661, 2.679947851488596, 0};
Point(p15 + 17) = {21.74905649282499, 2.518263181381755, 0};
Point(p15 + 18) = {21.67648889971357, 2.343069513903389, 0};
Point(p15 + 19) = {21.63222106174278, 2.158680698581263, 0};
Point(p15 + 20) = {21.617343, 1.969637, 0};
Point(p15 + 21) = {21.63222106174278, 1.780593301418738, 0};
Point(p15 + 22) = {21.67648889971357, 1.596204486096611, 0};
Point(p15 + 23) = {21.74905649282499, 1.421010818618246, 0};
Point(p15 + 24) = {21.84813698609661, 1.259326148511404, 0};
Point(p15 + 25) = {21.97129068895477, 1.115131688954773, 0};
Point(p15 + 26) = {22.1154851485114, 0.9919779860966118, 0};
Point(p15 + 27) = {22.27716981861824, 0.8928974928249944, 0};
Point(p15 + 28) = {22.45236348609661, 0.8203298997135728, 0};
Point(p15 + 29) = {22.63675230141874, 0.7760620617427842, 0};
Point(p15 + 30) = {22.825796, 0.7611840000000001, 0};
Point(p15 + 31) = {23.01483969858126, 0.776062061742784, 0};
Point(p15 + 32) = {23.19922851390339, 0.8203298997135728, 0};
Point(p15 + 33) = {23.37442218138175, 0.8928974928249942, 0};
Point(p15 + 34) = {23.5361068514886, 0.9919779860966116, 0};
Point(p15 + 35) = {23.68030131104523, 1.115131688954773, 0};
Point(p15 + 36) = {23.80345501390339, 1.259326148511404, 0};
Point(p15 + 37) = {23.90253550717501, 1.421010818618245, 0};
Point(p15 + 38) = {23.97510310028643, 1.596204486096612, 0};
Point(p15 + 39) = {24.01937093825722, 1.780593301418738, 0};
Spline(15) = {10, p15 + 1, p15 + 2, p15 + 3, p15 + 4, p15 + 5, p15 + 6, p15 + 7, p15 + 8, p15 + 9, p15 + 10, p15 + 11, p15 + 12, p15 + 13, p15 + 14, p15 + 15, p15 + 16, p15 + 17, p15 + 18, p15 + 19, p15 + 20, p15 + 21, p15 + 22, p15 + 23, p15 + 24, p15 + 25, p15 + 26, p15 + 27, p15 + 28, p15 + 29, p15 + 30, p15 + 31, p15 + 32, p15 + 33, p15 + 34, p15 + 35, p15 + 36, p15 + 37, p15 + 38, p15 + 39, 10};
p16 = newp;
Point(p16 + 1) = {25.05050012770113, -2.157539848085317, 0.1};
Point(p16 + 2) = {25.02869397196366, -2.066710672605476, 0.1};
Point(p16 + 3) = {24.99294747271233, -1.980410989305542, 0.1};
Point(p16 + 4) = {24.94414082739452, -1.900765782800589, 0.1};
Point(p16 + 5) = {24.88347581759795, -1.829736182402053, 0.1};
Point(p16 + 6) = {24.81244621719941, -1.769071172605476, 0.1};
Point(p16 + 7) = {24.73280101069446, -1.720264527287673, 0.1};
Point(p16 + 8) = {24.64650132739452, -1.684518028036337, 0.1};
Point(p16 + 9) = {24.55567215191468, -1.662711872298867, 0.1};
Point(p16 + 10) = {24.46255, -1.655383, 0.1};
Point(p16 + 11) = {24.36942784808532, -1.662711872298867, 0.1};
Point(p16 + 12) = {24.27859867260548, -1.684518028036337, 0.1};
Point(p16 + 13) = {24.19229898930554, -1.720264527287673, 0.1};
Point(p16 + 14) = {24.11265378280059, -1.769071172605476, 0.1};
Point(p16 + 15) = {24.04162418240205, -1.829736182402053, 0.1};
Point(p16 + 16) = {23.98095917260548, -1.900765782800589, 0.1};
Point(p16 + 17) = {23.93215252728767, -1.980410989305542, 0.1};
Point(p16 + 18) = {23.89640602803634, -2.066710672605476, 0.1};
Point(p16 + 19) = {23.87459987229887, -2.157539848085317, 0.1};
Point(p16 + 20) = {23.867271, -2.250662, 0.1};
Point(p16 + 21) = {23.87459987229887, -2.343784151914684, 0.1};
Point(p16 + 22) = {23.89640602803634, -2.434613327394525, 0.1};
Point(p16 + 23) = {23.93215252728767, -2.520913010694458, 0.1};
Point(p16 + 24) = {23.98095917260548, -2.600558217199411, 0.1};
Point(p16 + 25) = {24.04162418240205, -2.671587817597947, 0.1};
Point(p16 + 26) = {24.11265378280059, -2.732252827394524, 0.1};
Point(p16 + 27) = {24.19229898930554, -2.781059472712327, 0.1};
Point(p16 + 28) = {24.27859867260548, -2.816805971963663, 0.1};
Point(p16 + 29) = {24.36942784808532, -2.838612127701133, 0.1};
Point(p16 + 30) = {24.46255, -2.845941, 0.1};
Point(p16 + 31) = {24.55567215191468, -2.838612127701133, 0.1};
Point(p16 + 32) = {24.64650132739452, -2.816805971963663, 0.1};
Point(p16 + 33) = {24.73280101069446, -2.781059472712328, 0.1};
Point(p16 + 34) = {24.81244621719941, -2.732252827394524, 0.1};
Point(p16 + 35) = {24.88347581759795, -2.671587817597947, 0.1};
Point(p16 + 36) = {24.94414082739452, -2.600558217199411, 0.1};
Point(p16 + 37) = {24.99294747271233, -2.520913010694458, 0.1};
Point(p16 + 38) = {25.02869397196366, -2.434613327394525, 0.1};
Point(p16 + 39) = {25.05050012770113, -2.343784151914684, 0.1};
Spline(16) = {11, p16 + 1, p16 + 2, p16 + 3, p16 + 4, p16 + 5, p16 + 6, p16 + 7, p16 + 8, p16 + 9, p16 + 10, p16 + 11, p16 + 12, p16 + 13, p16 + 14, p16 + 15, p16 + 16, p16 + 17, p16 + 18, p16 + 19, p16 + 20, p16 + 21, p16 + 22, p16 + 23, p16 + 24, p16 + 25, p16 + 26, p16 + 27, p16 + 28, p16 + 29, p16 + 30, p16 + 31, p16 + 32, p16 + 33, p16 + 34, p16 + 35, p16 + 36, p16 + 37, p16 + 38, p16 + 39, 11};
Line(17) = {12, 11};
p18 = newp;
Point(p18 + 1) = {25.05050012770113, -2.157539848085317, 0};
Point(p18 + 2) = {25.02869397196366, -2.066710672605476, 0};
Point(p18 + 3) = {24.99294747271233, -1.980410989305542, 0};
Point(p18 + 4) = {24.94414082739452, -1.900765782800589, 0};
Point(p18 + 5) = {24.88347581759795, -1.829736182402053, 0};
Point(p18 + 6) = {24.81244621719941, -1.769071172605476, 0};
Point(p18 + 7) = {24.73280101069446, -1.720264527287673, 0};
Point(p18 + 8) = {24.64650132739452, -1.684518028036337, 0};
Point(p18 + 9) = {24.55567215191468, -1.662711872298867, 0};
Point(p18 + 10) = {24.46255, -1.655383, 0};
Point(p18 + 11) = {24.36942784808532, -1.662711872298867, 0};
Point(p18 + 12) = {24.27859867260548, -1.684518028036337, 0};
Point(p18 + 13) = {24.19229898930554, -1.720264527287673, 0};
Point(p18 + 14) = {24.11265378280059, -1.769071172605476, 0};
Point(p18 + 15) = {24.04162418240205, -1.829736182402053, 0};
Point(p18 + 16) = {23.98095917260548, -1.900765782800589, 0};
Point(p18 + 17) = {23.93215252728767, -1.980410989305542, 0};
Point(p18 + 18) = {23.89640602803634, -2.066710672605476, 0};
Point(p18 + 19) = {23.87459987229887, -2.157539848085317, 0};
Point(p18 + 20) = {23.867271, -2.250662, 0};
Point(p18 + 21) = {23.87459987229887, -2.343784151914684, 0};
Point(p18 + 22) = {23.89640602803634, -2.434613327394525, 0};
Point(p18 + 23) = {23.93215252728767, -2.520913010694458, 0};
Point(p18 + 24) = {23.98095917260548, -2.600558217199411, 0};
Point(p18 + 25) = {24.04162418240205, -2.671587817597947, 0};
Point(p18 + 26) = {24.11265378280059, -2.732252827394524, 0};
Point(p18 + 27) = {24.19229898930554, -2.781059472712327, 0};
Point(p18 + 28) = {24.27859867260548, -2.816805971963663, 0};
Point(p18 + 29) = {24.36942784808532, -2.838612127701133, 0};
Point(p18 + 30) = {24.46255, -2.845941, 0};
Point(p18 + 31) = {24.55567215191468, -2.838612127701133, 0};
Point(p18 + 32) = {24.64650132739452, -2.816805971963663, 0};
Point(p18 + 33) = {24.73280101069446, -2.781059472712328, 0};
Point(p18 + 34) = {24.81244621719941, -2.732252827394524, 0};
Point(p18 + 35) = {24.88347581759795, -2.671587817597947, 0};
Point(p18 + 36) = {24.94414082739452, -2.600558217199411, 0};
Point(p18 + 37) = {24.99294747271233, -2.520913010694458, 0};
Point(p18 + 38) = {25.02869397196366, -2.434613327394525, 0};
Point(p18 + 39) = {25.05050012770113, -2.343784151914684, 0};
Spline(18) = {12, p18 + 1, p18 + 2, p18 + 3, p18 + 4, p18 + 5, p18 + 6, p18 + 7, p18 + 8, p18 + 9, p18 + 10, p18 + 11, p18 + 12, p18 + 13, p18 + 14, p18 + 15, p18 + 16, p18 + 17, p18 + 18, p18 + 19, p18 + 20, p18 + 21, p18 + 22, p18 + 23, p18 + 24, p18 + 25, p18 + 26, p18 + 27, p18 + 28, p18 + 29, p18 + 30, p18 + 31, p18 + 32, p18 + 33, p18 + 34, p18 + 35, p18 + 36, p18 + 37, p18 + 38, p18 + 39, 12};
Line(19) = {14, 13};
Line(20) = {13, 15};
Line(21) = {16, 15};
Line(22) = {14, 16};
Line(23) = {14, 17};
Line(24) = {17, 18};
Line(25) = {13, 18};
Line(26) = {15, 19};
Line(27) = {18, 19};
Line(28) = {16, 20};
Line(29) = {20, 19};
Line(30) = {17, 20};
Curve Loop(7) = {-13, -14, 15, 14};
Surface(7) = {7};
Curve Loop(8) = {13};
Plane Surface(8) = {8};
Curve Loop(9) = {15};
Plane Surface(9) = {9};
Curve Loop(10) = {-16, -17, 18, 17};
Surface(10) = {10};
Curve Loop(11) = {16};
Plane Surface(11) = {11};
Curve Loop(12) = {18};
Plane Surface(12) = {12};
Curve Loop(13) = {-19, 22, 21, -20};
Plane Surface(13) = {13};
Curve Loop(14) = {-23, 19, 25, -24};
Plane Surface(14) = {14};
Curve Loop(15) = {-20, 25, 27, -26, -16, -13};
Plane Surface(15) = {15};
Curve Loop(16) = {-28, 21, 26, -29};
Plane Surface(16) = {16};
Curve Loop(17) = {-22, 23, 30, -28, -18, -15};
Plane Surface(17) = {17};
Curve Loop(18) = {-24, 30, 29, -27};
Plane Surface(18) = {18};
Surface Loop(1) = {13, 14, 15, 16, 17, 18, 10, 7};
Volume(1) = {1};
Surface Loop(2) = {7, 8, 9};
Volume(2) = {2};
Surface Loop(3) = {10, 11, 12};
Volume(3) = {3};
Physical Surface("WALLS") = {13, 18};
Physical Surface("LOAD") = {8, 11};
Physical Surface("BORDER") = {7, 9, 10, 12, 14, 15, 16, 17};
Physical Volume("SOLID") = {1, 2, 3};
