cl__1 = 0.101613;
cl__2 = 0.111313;
cl__3 = 1.84222;
cl__4 = 2.160984;
cl__5 = 0.723826;
cl__6 = 0.757439;
Point(9) = {26.884576, 0.4898249999999997, 0.1, cl__1};
Point(10) = {26.884576, 0.4898249999999997, 0, cl__1};
Point(11) = {17.346569, -0.6582210000000002, 0.1, cl__2};
Point(12) = {17.346569, -0.6582210000000002, 0, cl__2};
Point(13) = {0.042416, -3.248678, 0.1, cl__3};
Point(14) = {0.042416, -3.248678, 0, cl__3};
Point(15) = {0.042416, 5.240349999999999, 0.1, cl__4};
Point(16) = {0.042416, 5.240349999999999, 0, cl__4};
Point(17) = {35.187027, -3.248678, 0, cl__5};
Point(18) = {35.187027, -3.248678, 0.1, cl__5};
Point(19) = {35.187027, 5.240349999999999, 0.1, cl__6};
Point(20) = {35.187027, 5.240349999999999, 0, cl__6};
p13 = newp;
Point(p13 + 1) = {26.87206579046391, 0.6487822836579347, 0.1};
Point(p13 + 2) = {26.83484320473345, 0.8038255114432322, 0.1};
Point(p13 + 3) = {26.77382478640395, 0.9511370045288464, 0.1};
Point(p13 + 4) = {26.69051301144323, 1.087089465056194, 0.1};
Point(p13 + 5) = {26.58695929224674, 1.208335292246743, 0.1};
Point(p13 + 6) = {26.46571346505619, 1.311889011443232, 0.1};
Point(p13 + 7) = {26.32976100452884, 1.395200786403954, 0.1};
Point(p13 + 8) = {26.18244951144323, 1.456219204733445, 0.1};
Point(p13 + 9) = {26.02740628365793, 1.493441790463915, 0.1};
Point(p13 + 10) = {25.868449, 1.505952, 0.1};
Point(p13 + 11) = {25.70949171634206, 1.493441790463915, 0.1};
Point(p13 + 12) = {25.55444848855677, 1.456219204733446, 0.1};
Point(p13 + 13) = {25.40713699547115, 1.395200786403954, 0.1};
Point(p13 + 14) = {25.2711845349438, 1.311889011443232, 0.1};
Point(p13 + 15) = {25.14993870775325, 1.208335292246743, 0.1};
Point(p13 + 16) = {25.04638498855677, 1.087089465056194, 0.1};
Point(p13 + 17) = {24.96307321359604, 0.9511370045288465, 0.1};
Point(p13 + 18) = {24.90205479526655, 0.8038255114432322, 0.1};
Point(p13 + 19) = {24.86483220953608, 0.6487822836579348, 0.1};
Point(p13 + 20) = {24.852322, 0.4898250000000001, 0.1};
Point(p13 + 21) = {24.86483220953608, 0.3308677163420655, 0.1};
Point(p13 + 22) = {24.90205479526655, 0.1758244885567675, 0.1};
Point(p13 + 23) = {24.96307321359604, 0.02851299547115405, 0.1};
Point(p13 + 24) = {25.04638498855677, -0.1074394650561938, 0.1};
Point(p13 + 25) = {25.14993870775325, -0.2286852922467429, 0.1};
Point(p13 + 26) = {25.2711845349438, -0.3322390114432321, 0.1};
Point(p13 + 27) = {25.40713699547115, -0.4155507864039535, 0.1};
Point(p13 + 28) = {25.55444848855677, -0.4765692047334455, 0.1};
Point(p13 + 29) = {25.70949171634206, -0.5137917904639155, 0.1};
Point(p13 + 30) = {25.868449, -0.526302, 0.1};
Point(p13 + 31) = {26.02740628365793, -0.5137917904639155, 0.1};
Point(p13 + 32) = {26.18244951144323, -0.4765692047334456, 0.1};
Point(p13 + 33) = {26.32976100452884, -0.4155507864039538, 0.1};
Point(p13 + 34) = {26.46571346505619, -0.3322390114432324, 0.1};
Point(p13 + 35) = {26.58695929224674, -0.2286852922467431, 0.1};
Point(p13 + 36) = {26.69051301144323, -0.107439465056194, 0.1};
Point(p13 + 37) = {26.77382478640395, 0.02851299547115338, 0.1};
Point(p13 + 38) = {26.83484320473345, 0.1758244885567676, 0.1};
Point(p13 + 39) = {26.87206579046391, 0.3308677163420651, 0.1};
Spline(13) = {9, p13 + 1, p13 + 2, p13 + 3, p13 + 4, p13 + 5, p13 + 6, p13 + 7, p13 + 8, p13 + 9, p13 + 10, p13 + 11, p13 + 12, p13 + 13, p13 + 14, p13 + 15, p13 + 16, p13 + 17, p13 + 18, p13 + 19, p13 + 20, p13 + 21, p13 + 22, p13 + 23, p13 + 24, p13 + 25, p13 + 26, p13 + 27, p13 + 28, p13 + 29, p13 + 30, p13 + 31, p13 + 32, p13 + 33, p13 + 34, p13 + 35, p13 + 36, p13 + 37, p13 + 38, p13 + 39, 9};
Line(14) = {10, 9};
p15 = newp;
Point(p15 + 1) = {26.87206579046391, 0.6487822836579347, 0};
Point(p15 + 2) = {26.83484320473345, 0.8038255114432322, 0};
Point(p15 + 3) = {26.77382478640395, 0.9511370045288464, 0};
Point(p15 + 4) = {26.69051301144323, 1.087089465056194, 0};
Point(p15 + 5) = {26.58695929224674, 1.208335292246743, 0};
Point(p15 + 6) = {26.46571346505619, 1.311889011443232, 0};
Point(p15 + 7) = {26.32976100452884, 1.395200786403954, 0};
Point(p15 + 8) = {26.18244951144323, 1.456219204733445, 0};
Point(p15 + 9) = {26.02740628365793, 1.493441790463915, 0};
Point(p15 + 10) = {25.868449, 1.505952, 0};
Point(p15 + 11) = {25.70949171634206, 1.493441790463915, 0};
Point(p15 + 12) = {25.55444848855677, 1.456219204733446, 0};
Point(p15 + 13) = {25.40713699547115, 1.395200786403954, 0};
Point(p15 + 14) = {25.2711845349438, 1.311889011443232, 0};
Point(p15 + 15) = {25.14993870775325, 1.208335292246743, 0};
Point(p15 + 16) = {25.04638498855677, 1.087089465056194, 0};
Point(p15 + 17) = {24.96307321359604, 0.9511370045288465, 0};
Point(p15 + 18) = {24.90205479526655, 0.8038255114432322, 0};
Point(p15 + 19) = {24.86483220953608, 0.6487822836579348, 0};
Point(p15 + 20) = {24.852322, 0.4898250000000001, 0};
Point(p15 + 21) = {24.86483220953608, 0.3308677163420655, 0};
Point(p15 + 22) = {24.90205479526655, 0.1758244885567675, 0};
Point(p15 + 23) = {24.96307321359604, 0.02851299547115405, 0};
Point(p15 + 24) = {25.04638498855677, -0.1074394650561938, 0};
Point(p15 + 25) = {25.14993870775325, -0.2286852922467429, 0};
Point(p15 + 26) = {25.2711845349438, -0.3322390114432321, 0};
Point(p15 + 27) = {25.40713699547115, -0.4155507864039535, 0};
Point(p15 + 28) = {25.55444848855677, -0.4765692047334455, 0};
Point(p15 + 29) = {25.70949171634206, -0.5137917904639155, 0};
Point(p15 + 30) = {25.868449, -0.526302, 0};
Point(p15 + 31) = {26.02740628365793, -0.5137917904639155, 0};
Point(p15 + 32) = {26.18244951144323, -0.4765692047334456, 0};
Point(p15 + 33) = {26.32976100452884, -0.4155507864039538, 0};
Point(p15 + 34) = {26.46571346505619, -0.3322390114432324, 0};
Point(p15 + 35) = {26.58695929224674, -0.2286852922467431, 0};
Point(p15 + 36) = {26.69051301144323, -0.107439465056194, 0};
Point(p15 + 37) = {26.77382478640395, 0.02851299547115338, 0};
Point(p15 + 38) = {26.83484320473345, 0.1758244885567676, 0};
Point(p15 + 39) = {26.87206579046391, 0.3308677163420651, 0};
Spline(15) = {10, p15 + 1, p15 + 2, p15 + 3, p15 + 4, p15 + 5, p15 + 6, p15 + 7, p15 + 8, p15 + 9, p15 + 10, p15 + 11, p15 + 12, p15 + 13, p15 + 14, p15 + 15, p15 + 16, p15 + 17, p15 + 18, p15 + 19, p15 + 20, p15 + 21, p15 + 22, p15 + 23, p15 + 24, p15 + 25, p15 + 26, p15 + 27, p15 + 28, p15 + 29, p15 + 30, p15 + 31, p15 + 32, p15 + 33, p15 + 34, p15 + 35, p15 + 36, p15 + 37, p15 + 38, p15 + 39, 10};
p16 = newp;
Point(p16 + 1) = {17.33286447332003, -0.4840884781919076, 0.1};
Point(p16 + 2) = {17.29208834420969, -0.3142436769834372, 0.1};
Point(p16 + 3) = {17.2252446562959, -0.1528687390629193, 0.1};
Point(p16 + 4) = {17.13397932301656, -0.003937250974670126, 0.1};
Point(p16 + 5) = {17.02053959976931, 0.1288835997693064, 0.1};
Point(p16 + 6) = {16.88771874902533, 0.2423233230165628, 0.1};
Point(p16 + 7) = {16.73878726093708, 0.3335886562958947, 0.1};
Point(p16 + 8) = {16.57741232301656, 0.4004323442096895, 0.1};
Point(p16 + 9) = {16.40756752180809, 0.4412084733200281, 0.1};
Point(p16 + 10) = {16.233435, 0.4549130000000001, 0.1};
Point(p16 + 11) = {16.05930247819191, 0.4412084733200281, 0.1};
Point(p16 + 12) = {15.88945767698344, 0.4004323442096898, 0.1};
Point(p16 + 13) = {15.72808273906292, 0.3335886562958948, 0.1};
Point(p16 + 14) = {15.57915125097467, 0.2423233230165629, 0.1};
Point(p16 + 15) = {15.44633040023069, 0.1288835997693065, 0.1};
Point(p16 + 16) = {15.33289067698344, -0.003937250974670015, 0.1};
Point(p16 + 17) = {15.24162534370411, -0.1528687390629192, 0.1};
Point(p16 + 18) = {15.17478165579031, -0.3142436769834371, 0.1};
Point(p16 + 19) = {15.13400552667997, -0.4840884781919075, 0.1};
Point(p16 + 20) = {15.120301, -0.6582209999999998, 0.1};
Point(p16 + 21) = {15.13400552667997, -0.8323535218080922, 0.1};
Point(p16 + 22) = {15.17478165579031, -1.002198323016563, 0.1};
Point(p16 + 23) = {15.2416253437041, -1.16357326093708, 0.1};
Point(p16 + 24) = {15.33289067698344, -1.31250474902533, 0.1};
Point(p16 + 25) = {15.44633040023069, -1.445325599769306, 0.1};
Point(p16 + 26) = {15.57915125097467, -1.558765323016563, 0.1};
Point(p16 + 27) = {15.72808273906292, -1.650030656295895, 0.1};
Point(p16 + 28) = {15.88945767698344, -1.716874344209689, 0.1};
Point(p16 + 29) = {16.05930247819191, -1.757650473320028, 0.1};
Point(p16 + 30) = {16.233435, -1.771355, 0.1};
Point(p16 + 31) = {16.40756752180809, -1.757650473320028, 0.1};
Point(p16 + 32) = {16.57741232301656, -1.71687434420969, 0.1};
Point(p16 + 33) = {16.73878726093708, -1.650030656295895, 0.1};
Point(p16 + 34) = {16.88771874902533, -1.558765323016563, 0.1};
Point(p16 + 35) = {17.02053959976931, -1.445325599769307, 0.1};
Point(p16 + 36) = {17.13397932301656, -1.31250474902533, 0.1};
Point(p16 + 37) = {17.2252446562959, -1.163573260937081, 0.1};
Point(p16 + 38) = {17.29208834420969, -1.002198323016563, 0.1};
Point(p16 + 39) = {17.33286447332003, -0.8323535218080926, 0.1};
Spline(16) = {11, p16 + 1, p16 + 2, p16 + 3, p16 + 4, p16 + 5, p16 + 6, p16 + 7, p16 + 8, p16 + 9, p16 + 10, p16 + 11, p16 + 12, p16 + 13, p16 + 14, p16 + 15, p16 + 16, p16 + 17, p16 + 18, p16 + 19, p16 + 20, p16 + 21, p16 + 22, p16 + 23, p16 + 24, p16 + 25, p16 + 26, p16 + 27, p16 + 28, p16 + 29, p16 + 30, p16 + 31, p16 + 32, p16 + 33, p16 + 34, p16 + 35, p16 + 36, p16 + 37, p16 + 38, p16 + 39, 11};
Line(17) = {12, 11};
p18 = newp;
Point(p18 + 1) = {17.33286447332003, -0.4840884781919076, 0};
Point(p18 + 2) = {17.29208834420969, -0.3142436769834372, 0};
Point(p18 + 3) = {17.2252446562959, -0.1528687390629193, 0};
Point(p18 + 4) = {17.13397932301656, -0.003937250974670126, 0};
Point(p18 + 5) = {17.02053959976931, 0.1288835997693064, 0};
Point(p18 + 6) = {16.88771874902533, 0.2423233230165628, 0};
Point(p18 + 7) = {16.73878726093708, 0.3335886562958947, 0};
Point(p18 + 8) = {16.57741232301656, 0.4004323442096895, 0};
Point(p18 + 9) = {16.40756752180809, 0.4412084733200281, 0};
Point(p18 + 10) = {16.233435, 0.4549130000000001, 0};
Point(p18 + 11) = {16.05930247819191, 0.4412084733200281, 0};
Point(p18 + 12) = {15.88945767698344, 0.4004323442096898, 0};
Point(p18 + 13) = {15.72808273906292, 0.3335886562958948, 0};
Point(p18 + 14) = {15.57915125097467, 0.2423233230165629, 0};
Point(p18 + 15) = {15.44633040023069, 0.1288835997693065, 0};
Point(p18 + 16) = {15.33289067698344, -0.003937250974670015, 0};
Point(p18 + 17) = {15.24162534370411, -0.1528687390629192, 0};
Point(p18 + 18) = {15.17478165579031, -0.3142436769834371, 0};
Point(p18 + 19) = {15.13400552667997, -0.4840884781919075, 0};
Point(p18 + 20) = {15.120301, -0.6582209999999998, 0};
Point(p18 + 21) = {15.13400552667997, -0.8323535218080922, 0};
Point(p18 + 22) = {15.17478165579031, -1.002198323016563, 0};
Point(p18 + 23) = {15.2416253437041, -1.16357326093708, 0};
Point(p18 + 24) = {15.33289067698344, -1.31250474902533, 0};
Point(p18 + 25) = {15.44633040023069, -1.445325599769306, 0};
Point(p18 + 26) = {15.57915125097467, -1.558765323016563, 0};
Point(p18 + 27) = {15.72808273906292, -1.650030656295895, 0};
Point(p18 + 28) = {15.88945767698344, -1.716874344209689, 0};
Point(p18 + 29) = {16.05930247819191, -1.757650473320028, 0};
Point(p18 + 30) = {16.233435, -1.771355, 0};
Point(p18 + 31) = {16.40756752180809, -1.757650473320028, 0};
Point(p18 + 32) = {16.57741232301656, -1.71687434420969, 0};
Point(p18 + 33) = {16.73878726093708, -1.650030656295895, 0};
Point(p18 + 34) = {16.88771874902533, -1.558765323016563, 0};
Point(p18 + 35) = {17.02053959976931, -1.445325599769307, 0};
Point(p18 + 36) = {17.13397932301656, -1.31250474902533, 0};
Point(p18 + 37) = {17.2252446562959, -1.163573260937081, 0};
Point(p18 + 38) = {17.29208834420969, -1.002198323016563, 0};
Point(p18 + 39) = {17.33286447332003, -0.8323535218080926, 0};
Spline(18) = {12, p18 + 1, p18 + 2, p18 + 3, p18 + 4, p18 + 5, p18 + 6, p18 + 7, p18 + 8, p18 + 9, p18 + 10, p18 + 11, p18 + 12, p18 + 13, p18 + 14, p18 + 15, p18 + 16, p18 + 17, p18 + 18, p18 + 19, p18 + 20, p18 + 21, p18 + 22, p18 + 23, p18 + 24, p18 + 25, p18 + 26, p18 + 27, p18 + 28, p18 + 29, p18 + 30, p18 + 31, p18 + 32, p18 + 33, p18 + 34, p18 + 35, p18 + 36, p18 + 37, p18 + 38, p18 + 39, 12};
Line(19) = {14, 13};
Line(20) = {13, 15};
Line(21) = {16, 15};
Line(22) = {14, 16};
Line(23) = {14, 17};
Line(24) = {17, 18};
Line(25) = {13, 18};
Line(26) = {15, 19};
Line(27) = {18, 19};
Line(28) = {16, 20};
Line(29) = {20, 19};
Line(30) = {17, 20};
Curve Loop(7) = {-13, -14, 15, 14};
Surface(7) = {7};
Curve Loop(8) = {13};
Plane Surface(8) = {8};
Curve Loop(9) = {15};
Plane Surface(9) = {9};
Curve Loop(10) = {-16, -17, 18, 17};
Surface(10) = {10};
Curve Loop(11) = {16};
Plane Surface(11) = {11};
Curve Loop(12) = {18};
Plane Surface(12) = {12};
Curve Loop(13) = {-19, 22, 21, -20};
Plane Surface(13) = {13};
Curve Loop(14) = {-23, 19, 25, -24};
Plane Surface(14) = {14};
Curve Loop(15) = {-20, 25, 27, -26, -16, -13};
Plane Surface(15) = {15};
Curve Loop(16) = {-28, 21, 26, -29};
Plane Surface(16) = {16};
Curve Loop(17) = {-22, 23, 30, -28, -18, -15};
Plane Surface(17) = {17};
Curve Loop(18) = {-24, 30, 29, -27};
Plane Surface(18) = {18};
Surface Loop(1) = {13, 14, 15, 16, 17, 18, 10, 7};
Volume(1) = {1};
Surface Loop(2) = {7, 8, 9};
Volume(2) = {2};
Surface Loop(3) = {10, 11, 12};
Volume(3) = {3};
Physical Surface("WALLS") = {13, 18};
Physical Surface("LOAD") = {8, 11};
Physical Surface("BORDER") = {7, 9, 10, 12, 14, 15, 16, 17};
Physical Volume("SOLID") = {1, 2, 3};
