cl__1 = 0.104613;
cl__2 = 0.07194200000000001;
cl__3 = 1.070431;
cl__4 = 0.964388;
cl__5 = 0.949206;
cl__6 = 1.202717;
Point(9) = {15.358953, 1.984354, 0.1, cl__1};
Point(10) = {15.358953, 1.984354, 0, cl__1};
Point(11) = {21.325168, -2.240465, 0.1, cl__2};
Point(12) = {21.325168, -2.240465, 0, cl__2};
Point(13) = {0.407599, -3.465932, 0.1, cl__3};
Point(14) = {0.407599, -3.465932, 0, cl__3};
Point(15) = {0.407599, 4.551154, 0.1, cl__4};
Point(16) = {0.407599, 4.551154, 0, cl__4};
Point(17) = {34.157742, -3.465932, 0, cl__5};
Point(18) = {34.157742, -3.465932, 0.1, cl__5};
Point(19) = {34.157742, 4.551154, 0.1, cl__6};
Point(20) = {34.157742, 4.551154, 0, cl__6};
p13 = newp;
Point(p13 + 1) = {15.34607337912347, 2.148005099781467, 0.1};
Point(p13 + 2) = {15.30775165550488, 2.307626566359453, 0.1};
Point(p13 + 3) = {15.24493143716223, 2.459287989473531, 0.1};
Point(p13 + 4) = {15.15915956635945, 2.599254961551229, 0.1};
Point(p13 + 5) = {15.05254803121625, 2.724081031216245, 0.1};
Point(p13 + 6) = {14.92772196155123, 2.830692566359453, 0.1};
Point(p13 + 7) = {14.78775498947353, 2.916464437162225, 0.1};
Point(p13 + 8) = {14.63609356635945, 2.979284655504881, 0.1};
Point(p13 + 9) = {14.47647209978147, 3.017606379123473, 0.1};
Point(p13 + 10) = {14.312821, 3.030486, 0.1};
Point(p13 + 11) = {14.14916990021853, 3.017606379123473, 0.1};
Point(p13 + 12) = {13.98954843364055, 2.979284655504882, 0.1};
Point(p13 + 13) = {13.83788701052647, 2.916464437162226, 0.1};
Point(p13 + 14) = {13.69792003844877, 2.830692566359453, 0.1};
Point(p13 + 15) = {13.57309396878375, 2.724081031216246, 0.1};
Point(p13 + 16) = {13.46648243364055, 2.599254961551229, 0.1};
Point(p13 + 17) = {13.38071056283777, 2.459287989473532, 0.1};
Point(p13 + 18) = {13.31789034449512, 2.307626566359453, 0.1};
Point(p13 + 19) = {13.27956862087653, 2.148005099781467, 0.1};
Point(p13 + 20) = {13.266689, 1.984354, 0.1};
Point(p13 + 21) = {13.27956862087653, 1.820702900218533, 0.1};
Point(p13 + 22) = {13.31789034449512, 1.661081433640547, 0.1};
Point(p13 + 23) = {13.38071056283777, 1.509420010526469, 0.1};
Point(p13 + 24) = {13.46648243364055, 1.36945303844877, 0.1};
Point(p13 + 25) = {13.57309396878375, 1.244626968783755, 0.1};
Point(p13 + 26) = {13.69792003844877, 1.138015433640547, 0.1};
Point(p13 + 27) = {13.83788701052647, 1.052243562837774, 0.1};
Point(p13 + 28) = {13.98954843364055, 0.9894233444951184, 0.1};
Point(p13 + 29) = {14.14916990021853, 0.9511016208765273, 0.1};
Point(p13 + 30) = {14.312821, 0.9382219999999999, 0.1};
Point(p13 + 31) = {14.47647209978147, 0.9511016208765273, 0.1};
Point(p13 + 32) = {14.63609356635945, 0.9894233444951183, 0.1};
Point(p13 + 33) = {14.78775498947353, 1.052243562837774, 0.1};
Point(p13 + 34) = {14.92772196155123, 1.138015433640547, 0.1};
Point(p13 + 35) = {15.05254803121625, 1.244626968783754, 0.1};
Point(p13 + 36) = {15.15915956635945, 1.36945303844877, 0.1};
Point(p13 + 37) = {15.24493143716223, 1.509420010526468, 0.1};
Point(p13 + 38) = {15.30775165550488, 1.661081433640547, 0.1};
Point(p13 + 39) = {15.34607337912347, 1.820702900218533, 0.1};
Spline(13) = {9, p13 + 1, p13 + 2, p13 + 3, p13 + 4, p13 + 5, p13 + 6, p13 + 7, p13 + 8, p13 + 9, p13 + 10, p13 + 11, p13 + 12, p13 + 13, p13 + 14, p13 + 15, p13 + 16, p13 + 17, p13 + 18, p13 + 19, p13 + 20, p13 + 21, p13 + 22, p13 + 23, p13 + 24, p13 + 25, p13 + 26, p13 + 27, p13 + 28, p13 + 29, p13 + 30, p13 + 31, p13 + 32, p13 + 33, p13 + 34, p13 + 35, p13 + 36, p13 + 37, p13 + 38, p13 + 39, 9};
Line(14) = {10, 9};
p15 = newp;
Point(p15 + 1) = {15.34607337912347, 2.148005099781467, 0};
Point(p15 + 2) = {15.30775165550488, 2.307626566359453, 0};
Point(p15 + 3) = {15.24493143716223, 2.459287989473531, 0};
Point(p15 + 4) = {15.15915956635945, 2.599254961551229, 0};
Point(p15 + 5) = {15.05254803121625, 2.724081031216245, 0};
Point(p15 + 6) = {14.92772196155123, 2.830692566359453, 0};
Point(p15 + 7) = {14.78775498947353, 2.916464437162225, 0};
Point(p15 + 8) = {14.63609356635945, 2.979284655504881, 0};
Point(p15 + 9) = {14.47647209978147, 3.017606379123473, 0};
Point(p15 + 10) = {14.312821, 3.030486, 0};
Point(p15 + 11) = {14.14916990021853, 3.017606379123473, 0};
Point(p15 + 12) = {13.98954843364055, 2.979284655504882, 0};
Point(p15 + 13) = {13.83788701052647, 2.916464437162226, 0};
Point(p15 + 14) = {13.69792003844877, 2.830692566359453, 0};
Point(p15 + 15) = {13.57309396878375, 2.724081031216246, 0};
Point(p15 + 16) = {13.46648243364055, 2.599254961551229, 0};
Point(p15 + 17) = {13.38071056283777, 2.459287989473532, 0};
Point(p15 + 18) = {13.31789034449512, 2.307626566359453, 0};
Point(p15 + 19) = {13.27956862087653, 2.148005099781467, 0};
Point(p15 + 20) = {13.266689, 1.984354, 0};
Point(p15 + 21) = {13.27956862087653, 1.820702900218533, 0};
Point(p15 + 22) = {13.31789034449512, 1.661081433640547, 0};
Point(p15 + 23) = {13.38071056283777, 1.509420010526469, 0};
Point(p15 + 24) = {13.46648243364055, 1.36945303844877, 0};
Point(p15 + 25) = {13.57309396878375, 1.244626968783755, 0};
Point(p15 + 26) = {13.69792003844877, 1.138015433640547, 0};
Point(p15 + 27) = {13.83788701052647, 1.052243562837774, 0};
Point(p15 + 28) = {13.98954843364055, 0.9894233444951184, 0};
Point(p15 + 29) = {14.14916990021853, 0.9511016208765273, 0};
Point(p15 + 30) = {14.312821, 0.9382219999999999, 0};
Point(p15 + 31) = {14.47647209978147, 0.9511016208765273, 0};
Point(p15 + 32) = {14.63609356635945, 0.9894233444951183, 0};
Point(p15 + 33) = {14.78775498947353, 1.052243562837774, 0};
Point(p15 + 34) = {14.92772196155123, 1.138015433640547, 0};
Point(p15 + 35) = {15.05254803121625, 1.244626968783754, 0};
Point(p15 + 36) = {15.15915956635945, 1.36945303844877, 0};
Point(p15 + 37) = {15.24493143716223, 1.509420010526468, 0};
Point(p15 + 38) = {15.30775165550488, 1.661081433640547, 0};
Point(p15 + 39) = {15.34607337912347, 1.820702900218533, 0};
Spline(15) = {10, p15 + 1, p15 + 2, p15 + 3, p15 + 4, p15 + 5, p15 + 6, p15 + 7, p15 + 8, p15 + 9, p15 + 10, p15 + 11, p15 + 12, p15 + 13, p15 + 14, p15 + 15, p15 + 16, p15 + 17, p15 + 18, p15 + 19, p15 + 20, p15 + 21, p15 + 22, p15 + 23, p15 + 24, p15 + 25, p15 + 26, p15 + 27, p15 + 28, p15 + 29, p15 + 30, p15 + 31, p15 + 32, p15 + 33, p15 + 34, p15 + 35, p15 + 36, p15 + 37, p15 + 38, p15 + 39, 10};
p16 = newp;
Point(p16 + 1) = {21.31631072136764, -2.127922604291827, 0.1};
Point(p16 + 2) = {21.28995698106609, -2.018151375872787, 0.1};
Point(p16 + 3) = {21.24675569564464, -1.913854246696376, 0.1};
Point(p16 + 4) = {21.18777062412721, -1.817599358225244, 0.1};
Point(p16 + 5) = {21.11445417473479, -1.731756825265212, 0.1};
Point(p16 + 6) = {21.02861164177476, -1.658440375872787, 0.1};
Point(p16 + 7) = {20.93235675330362, -1.599455304355356, 0.1};
Point(p16 + 8) = {20.82805962412721, -1.556254018933908, 0.1};
Point(p16 + 9) = {20.71828839570817, -1.529900278632365, 0.1};
Point(p16 + 10) = {20.605746, -1.521043, 0.1};
Point(p16 + 11) = {20.49320360429183, -1.529900278632365, 0.1};
Point(p16 + 12) = {20.38343237587279, -1.556254018933908, 0.1};
Point(p16 + 13) = {20.27913524669638, -1.599455304355356, 0.1};
Point(p16 + 14) = {20.18288035822524, -1.658440375872786, 0.1};
Point(p16 + 15) = {20.09703782526521, -1.731756825265212, 0.1};
Point(p16 + 16) = {20.02372137587279, -1.817599358225244, 0.1};
Point(p16 + 17) = {19.96473630435536, -1.913854246696376, 0.1};
Point(p16 + 18) = {19.92153501893391, -2.018151375872786, 0.1};
Point(p16 + 19) = {19.89518127863236, -2.127922604291827, 0.1};
Point(p16 + 20) = {19.886324, -2.240465, 0.1};
Point(p16 + 21) = {19.89518127863236, -2.353007395708173, 0.1};
Point(p16 + 22) = {19.92153501893391, -2.462778624127214, 0.1};
Point(p16 + 23) = {19.96473630435536, -2.567075753303624, 0.1};
Point(p16 + 24) = {20.02372137587279, -2.663330641774755, 0.1};
Point(p16 + 25) = {20.09703782526521, -2.749173174734788, 0.1};
Point(p16 + 26) = {20.18288035822524, -2.822489624127213, 0.1};
Point(p16 + 27) = {20.27913524669638, -2.881474695644644, 0.1};
Point(p16 + 28) = {20.38343237587279, -2.924675981066092, 0.1};
Point(p16 + 29) = {20.49320360429183, -2.951029721367635, 0.1};
Point(p16 + 30) = {20.605746, -2.959887, 0.1};
Point(p16 + 31) = {20.71828839570817, -2.951029721367635, 0.1};
Point(p16 + 32) = {20.82805962412721, -2.924675981066092, 0.1};
Point(p16 + 33) = {20.93235675330362, -2.881474695644644, 0.1};
Point(p16 + 34) = {21.02861164177476, -2.822489624127213, 0.1};
Point(p16 + 35) = {21.11445417473479, -2.749173174734788, 0.1};
Point(p16 + 36) = {21.18777062412721, -2.663330641774756, 0.1};
Point(p16 + 37) = {21.24675569564464, -2.567075753303624, 0.1};
Point(p16 + 38) = {21.28995698106609, -2.462778624127214, 0.1};
Point(p16 + 39) = {21.31631072136764, -2.353007395708173, 0.1};
Spline(16) = {11, p16 + 1, p16 + 2, p16 + 3, p16 + 4, p16 + 5, p16 + 6, p16 + 7, p16 + 8, p16 + 9, p16 + 10, p16 + 11, p16 + 12, p16 + 13, p16 + 14, p16 + 15, p16 + 16, p16 + 17, p16 + 18, p16 + 19, p16 + 20, p16 + 21, p16 + 22, p16 + 23, p16 + 24, p16 + 25, p16 + 26, p16 + 27, p16 + 28, p16 + 29, p16 + 30, p16 + 31, p16 + 32, p16 + 33, p16 + 34, p16 + 35, p16 + 36, p16 + 37, p16 + 38, p16 + 39, 11};
Line(17) = {12, 11};
p18 = newp;
Point(p18 + 1) = {21.31631072136764, -2.127922604291827, 0};
Point(p18 + 2) = {21.28995698106609, -2.018151375872787, 0};
Point(p18 + 3) = {21.24675569564464, -1.913854246696376, 0};
Point(p18 + 4) = {21.18777062412721, -1.817599358225244, 0};
Point(p18 + 5) = {21.11445417473479, -1.731756825265212, 0};
Point(p18 + 6) = {21.02861164177476, -1.658440375872787, 0};
Point(p18 + 7) = {20.93235675330362, -1.599455304355356, 0};
Point(p18 + 8) = {20.82805962412721, -1.556254018933908, 0};
Point(p18 + 9) = {20.71828839570817, -1.529900278632365, 0};
Point(p18 + 10) = {20.605746, -1.521043, 0};
Point(p18 + 11) = {20.49320360429183, -1.529900278632365, 0};
Point(p18 + 12) = {20.38343237587279, -1.556254018933908, 0};
Point(p18 + 13) = {20.27913524669638, -1.599455304355356, 0};
Point(p18 + 14) = {20.18288035822524, -1.658440375872786, 0};
Point(p18 + 15) = {20.09703782526521, -1.731756825265212, 0};
Point(p18 + 16) = {20.02372137587279, -1.817599358225244, 0};
Point(p18 + 17) = {19.96473630435536, -1.913854246696376, 0};
Point(p18 + 18) = {19.92153501893391, -2.018151375872786, 0};
Point(p18 + 19) = {19.89518127863236, -2.127922604291827, 0};
Point(p18 + 20) = {19.886324, -2.240465, 0};
Point(p18 + 21) = {19.89518127863236, -2.353007395708173, 0};
Point(p18 + 22) = {19.92153501893391, -2.462778624127214, 0};
Point(p18 + 23) = {19.96473630435536, -2.567075753303624, 0};
Point(p18 + 24) = {20.02372137587279, -2.663330641774755, 0};
Point(p18 + 25) = {20.09703782526521, -2.749173174734788, 0};
Point(p18 + 26) = {20.18288035822524, -2.822489624127213, 0};
Point(p18 + 27) = {20.27913524669638, -2.881474695644644, 0};
Point(p18 + 28) = {20.38343237587279, -2.924675981066092, 0};
Point(p18 + 29) = {20.49320360429183, -2.951029721367635, 0};
Point(p18 + 30) = {20.605746, -2.959887, 0};
Point(p18 + 31) = {20.71828839570817, -2.951029721367635, 0};
Point(p18 + 32) = {20.82805962412721, -2.924675981066092, 0};
Point(p18 + 33) = {20.93235675330362, -2.881474695644644, 0};
Point(p18 + 34) = {21.02861164177476, -2.822489624127213, 0};
Point(p18 + 35) = {21.11445417473479, -2.749173174734788, 0};
Point(p18 + 36) = {21.18777062412721, -2.663330641774756, 0};
Point(p18 + 37) = {21.24675569564464, -2.567075753303624, 0};
Point(p18 + 38) = {21.28995698106609, -2.462778624127214, 0};
Point(p18 + 39) = {21.31631072136764, -2.353007395708173, 0};
Spline(18) = {12, p18 + 1, p18 + 2, p18 + 3, p18 + 4, p18 + 5, p18 + 6, p18 + 7, p18 + 8, p18 + 9, p18 + 10, p18 + 11, p18 + 12, p18 + 13, p18 + 14, p18 + 15, p18 + 16, p18 + 17, p18 + 18, p18 + 19, p18 + 20, p18 + 21, p18 + 22, p18 + 23, p18 + 24, p18 + 25, p18 + 26, p18 + 27, p18 + 28, p18 + 29, p18 + 30, p18 + 31, p18 + 32, p18 + 33, p18 + 34, p18 + 35, p18 + 36, p18 + 37, p18 + 38, p18 + 39, 12};
Line(19) = {14, 13};
Line(20) = {13, 15};
Line(21) = {16, 15};
Line(22) = {14, 16};
Line(23) = {14, 17};
Line(24) = {17, 18};
Line(25) = {13, 18};
Line(26) = {15, 19};
Line(27) = {18, 19};
Line(28) = {16, 20};
Line(29) = {20, 19};
Line(30) = {17, 20};
Curve Loop(7) = {-13, -14, 15, 14};
Surface(7) = {7};
Curve Loop(8) = {13};
Plane Surface(8) = {8};
Curve Loop(9) = {15};
Plane Surface(9) = {9};
Curve Loop(10) = {-16, -17, 18, 17};
Surface(10) = {10};
Curve Loop(11) = {16};
Plane Surface(11) = {11};
Curve Loop(12) = {18};
Plane Surface(12) = {12};
Curve Loop(13) = {-19, 22, 21, -20};
Plane Surface(13) = {13};
Curve Loop(14) = {-23, 19, 25, -24};
Plane Surface(14) = {14};
Curve Loop(15) = {-20, 25, 27, -26, -16, -13};
Plane Surface(15) = {15};
Curve Loop(16) = {-28, 21, 26, -29};
Plane Surface(16) = {16};
Curve Loop(17) = {-22, 23, 30, -28, -18, -15};
Plane Surface(17) = {17};
Curve Loop(18) = {-24, 30, 29, -27};
Plane Surface(18) = {18};
Surface Loop(1) = {13, 14, 15, 16, 17, 18, 10, 7};
Volume(1) = {1};
Surface Loop(2) = {7, 8, 9};
Volume(2) = {2};
Surface Loop(3) = {10, 11, 12};
Volume(3) = {3};
Physical Surface("WALLS") = {13, 18};
Physical Surface("LOAD") = {8, 11};
Physical Surface("BORDER") = {7, 9, 10, 12, 14, 15, 16, 17};
Physical Volume("SOLID") = {1, 2, 3};
