cl__1 = 0.056767;
cl__2 = 0.07928300000000001;
cl__3 = 0.743818;
cl__4 = 0.799285;
cl__5 = 1.871133;
cl__6 = 1.836643;
Point(9) = {13.302986, -1.08318, 0.1, cl__1};
Point(10) = {13.302986, -1.08318, 0, cl__1};
Point(11) = {15.558315, 0.4515859999999998, 0.1, cl__2};
Point(12) = {15.558315, 0.4515859999999998, 0, cl__2};
Point(13) = {0.787308, -4.296289, 0.1, cl__3};
Point(14) = {0.787308, -4.296289, 0, cl__3};
Point(15) = {0.787308, 4.651127000000001, 0.1, cl__4};
Point(16) = {0.787308, 4.651127000000001, 0, cl__4};
Point(17) = {34.553379, -4.296289, 0, cl__5};
Point(18) = {34.553379, -4.296289, 0.1, cl__5};
Point(19) = {34.553379, 4.651127000000001, 0.1, cl__6};
Point(20) = {34.553379, 4.651127000000001, 0, cl__6};
p13 = newp;
Point(p13 + 1) = {13.29599707724062, -0.9943773165340073, 0.1};
Point(p13 + 2) = {13.27520239943572, -0.9077612498541567, 0.1};
Point(p13 + 3) = {13.24111400056644, -0.8254645749843508, 0.1};
Point(p13 + 4) = {13.19457125014584, -0.7495137091868886, 0.1};
Point(p13 + 5) = {13.13672018515582, -0.6817788148441761, 0.1};
Point(p13 + 6) = {13.06898529081311, -0.6239277498541568, 0.1};
Point(p13 + 7) = {12.99303442501565, -0.5773849994335618, 0.1};
Point(p13 + 8) = {12.91073775014584, -0.5432966005642791, 0.1};
Point(p13 + 9) = {12.82412168346599, -0.5225019227593799, 0.1};
Point(p13 + 10) = {12.735319, -0.515513, 0.1};
Point(p13 + 11) = {12.64651631653401, -0.52250192275938, 0.1};
Point(p13 + 12) = {12.55990024985416, -0.543296600564279, 0.1};
Point(p13 + 13) = {12.47760357498435, -0.5773849994335618, 0.1};
Point(p13 + 14) = {12.40165270918689, -0.6239277498541567, 0.1};
Point(p13 + 15) = {12.33391781484418, -0.6817788148441761, 0.1};
Point(p13 + 16) = {12.27606674985416, -0.7495137091868886, 0.1};
Point(p13 + 17) = {12.22952399943356, -0.8254645749843507, 0.1};
Point(p13 + 18) = {12.19543560056428, -0.9077612498541567, 0.1};
Point(p13 + 19) = {12.17464092275938, -0.9943773165340072, 0.1};
Point(p13 + 20) = {12.167652, -1.08318, 0.1};
Point(p13 + 21) = {12.17464092275938, -1.171982683465993, 0.1};
Point(p13 + 22) = {12.19543560056428, -1.258598750145844, 0.1};
Point(p13 + 23) = {12.22952399943356, -1.340895425015649, 0.1};
Point(p13 + 24) = {12.27606674985416, -1.416846290813111, 0.1};
Point(p13 + 25) = {12.33391781484418, -1.484581185155824, 0.1};
Point(p13 + 26) = {12.40165270918689, -1.542432250145843, 0.1};
Point(p13 + 27) = {12.47760357498435, -1.588975000566438, 0.1};
Point(p13 + 28) = {12.55990024985416, -1.623063399435721, 0.1};
Point(p13 + 29) = {12.64651631653401, -1.64385807724062, 0.1};
Point(p13 + 30) = {12.735319, -1.650847, 0.1};
Point(p13 + 31) = {12.82412168346599, -1.64385807724062, 0.1};
Point(p13 + 32) = {12.91073775014584, -1.623063399435721, 0.1};
Point(p13 + 33) = {12.99303442501565, -1.588975000566438, 0.1};
Point(p13 + 34) = {13.06898529081311, -1.542432250145843, 0.1};
Point(p13 + 35) = {13.13672018515582, -1.484581185155824, 0.1};
Point(p13 + 36) = {13.19457125014584, -1.416846290813111, 0.1};
Point(p13 + 37) = {13.24111400056644, -1.34089542501565, 0.1};
Point(p13 + 38) = {13.27520239943572, -1.258598750145843, 0.1};
Point(p13 + 39) = {13.29599707724062, -1.171982683465993, 0.1};
Spline(13) = {9, p13 + 1, p13 + 2, p13 + 3, p13 + 4, p13 + 5, p13 + 6, p13 + 7, p13 + 8, p13 + 9, p13 + 10, p13 + 11, p13 + 12, p13 + 13, p13 + 14, p13 + 15, p13 + 16, p13 + 17, p13 + 18, p13 + 19, p13 + 20, p13 + 21, p13 + 22, p13 + 23, p13 + 24, p13 + 25, p13 + 26, p13 + 27, p13 + 28, p13 + 29, p13 + 30, p13 + 31, p13 + 32, p13 + 33, p13 + 34, p13 + 35, p13 + 36, p13 + 37, p13 + 38, p13 + 39, 9};
Line(14) = {10, 9};
p15 = newp;
Point(p15 + 1) = {13.29599707724062, -0.9943773165340073, 0};
Point(p15 + 2) = {13.27520239943572, -0.9077612498541567, 0};
Point(p15 + 3) = {13.24111400056644, -0.8254645749843508, 0};
Point(p15 + 4) = {13.19457125014584, -0.7495137091868886, 0};
Point(p15 + 5) = {13.13672018515582, -0.6817788148441761, 0};
Point(p15 + 6) = {13.06898529081311, -0.6239277498541568, 0};
Point(p15 + 7) = {12.99303442501565, -0.5773849994335618, 0};
Point(p15 + 8) = {12.91073775014584, -0.5432966005642791, 0};
Point(p15 + 9) = {12.82412168346599, -0.5225019227593799, 0};
Point(p15 + 10) = {12.735319, -0.515513, 0};
Point(p15 + 11) = {12.64651631653401, -0.52250192275938, 0};
Point(p15 + 12) = {12.55990024985416, -0.543296600564279, 0};
Point(p15 + 13) = {12.47760357498435, -0.5773849994335618, 0};
Point(p15 + 14) = {12.40165270918689, -0.6239277498541567, 0};
Point(p15 + 15) = {12.33391781484418, -0.6817788148441761, 0};
Point(p15 + 16) = {12.27606674985416, -0.7495137091868886, 0};
Point(p15 + 17) = {12.22952399943356, -0.8254645749843507, 0};
Point(p15 + 18) = {12.19543560056428, -0.9077612498541567, 0};
Point(p15 + 19) = {12.17464092275938, -0.9943773165340072, 0};
Point(p15 + 20) = {12.167652, -1.08318, 0};
Point(p15 + 21) = {12.17464092275938, -1.171982683465993, 0};
Point(p15 + 22) = {12.19543560056428, -1.258598750145844, 0};
Point(p15 + 23) = {12.22952399943356, -1.340895425015649, 0};
Point(p15 + 24) = {12.27606674985416, -1.416846290813111, 0};
Point(p15 + 25) = {12.33391781484418, -1.484581185155824, 0};
Point(p15 + 26) = {12.40165270918689, -1.542432250145843, 0};
Point(p15 + 27) = {12.47760357498435, -1.588975000566438, 0};
Point(p15 + 28) = {12.55990024985416, -1.623063399435721, 0};
Point(p15 + 29) = {12.64651631653401, -1.64385807724062, 0};
Point(p15 + 30) = {12.735319, -1.650847, 0};
Point(p15 + 31) = {12.82412168346599, -1.64385807724062, 0};
Point(p15 + 32) = {12.91073775014584, -1.623063399435721, 0};
Point(p15 + 33) = {12.99303442501565, -1.588975000566438, 0};
Point(p15 + 34) = {13.06898529081311, -1.542432250145843, 0};
Point(p15 + 35) = {13.13672018515582, -1.484581185155824, 0};
Point(p15 + 36) = {13.19457125014584, -1.416846290813111, 0};
Point(p15 + 37) = {13.24111400056644, -1.34089542501565, 0};
Point(p15 + 38) = {13.27520239943572, -1.258598750145843, 0};
Point(p15 + 39) = {13.29599707724062, -1.171982683465993, 0};
Spline(15) = {10, p15 + 1, p15 + 2, p15 + 3, p15 + 4, p15 + 5, p15 + 6, p15 + 7, p15 + 8, p15 + 9, p15 + 10, p15 + 11, p15 + 12, p15 + 13, p15 + 14, p15 + 15, p15 + 16, p15 + 17, p15 + 18, p15 + 19, p15 + 20, p15 + 21, p15 + 22, p15 + 23, p15 + 24, p15 + 25, p15 + 26, p15 + 27, p15 + 28, p15 + 29, p15 + 30, p15 + 31, p15 + 32, p15 + 33, p15 + 34, p15 + 35, p15 + 36, p15 + 37, p15 + 38, p15 + 39, 10};
p16 = newp;
Point(p16 + 1) = {15.54855391013906, 0.5756124062212413, 0.1};
Point(p16 + 2) = {15.51951099098384, 0.6965848707012726, 0.1};
Point(p16 + 3) = {15.47190137559184, 0.8115246498800041, 0.1};
Point(p16 + 4) = {15.40689737070127, 0.9176015449307984, 0.1};
Point(p16 + 5) = {15.32609959064848, 1.012203590648474, 0.1};
Point(p16 + 6) = {15.2314975449308, 1.093001370701273, 0.1};
Point(p16 + 7) = {15.12542064988, 1.158005375591836, 0.1};
Point(p16 + 8) = {15.01048087070127, 1.205614990983835, 0.1};
Point(p16 + 9) = {14.88950840622124, 1.234657910139065, 0.1};
Point(p16 + 10) = {14.765482, 1.244419, 0.1};
Point(p16 + 11) = {14.64145559377876, 1.234657910139065, 0.1};
Point(p16 + 12) = {14.52048312929873, 1.205614990983836, 0.1};
Point(p16 + 13) = {14.40554335012, 1.158005375591836, 0.1};
Point(p16 + 14) = {14.2994664550692, 1.093001370701273, 0.1};
Point(p16 + 15) = {14.20486440935153, 1.012203590648474, 0.1};
Point(p16 + 16) = {14.12406662929873, 0.9176015449307984, 0.1};
Point(p16 + 17) = {14.05906262440816, 0.8115246498800042, 0.1};
Point(p16 + 18) = {14.01145300901617, 0.6965848707012727, 0.1};
Point(p16 + 19) = {13.98241008986094, 0.5756124062212414, 0.1};
Point(p16 + 20) = {13.972649, 0.4515860000000001, 0.1};
Point(p16 + 21) = {13.98241008986094, 0.3275595937787587, 0.1};
Point(p16 + 22) = {14.01145300901617, 0.2065871292987271, 0.1};
Point(p16 + 23) = {14.05906262440816, 0.09164735011999625, 0.1};
Point(p16 + 24) = {14.12406662929873, -0.01442954493079829, 0.1};
Point(p16 + 25) = {14.20486440935153, -0.109031590648474, 0.1};
Point(p16 + 26) = {14.2994664550692, -0.1898293707012726, 0.1};
Point(p16 + 27) = {14.40554335012, -0.2548333755918362, 0.1};
Point(p16 + 28) = {14.52048312929873, -0.3024429909838355, 0.1};
Point(p16 + 29) = {14.64145559377876, -0.3314859101390648, 0.1};
Point(p16 + 30) = {14.765482, -0.341247, 0.1};
Point(p16 + 31) = {14.88950840622124, -0.3314859101390649, 0.1};
Point(p16 + 32) = {15.01048087070127, -0.3024429909838356, 0.1};
Point(p16 + 33) = {15.12542064988, -0.2548333755918364, 0.1};
Point(p16 + 34) = {15.2314975449308, -0.1898293707012729, 0.1};
Point(p16 + 35) = {15.32609959064848, -0.1090315906484742, 0.1};
Point(p16 + 36) = {15.40689737070127, -0.01442954493079845, 0.1};
Point(p16 + 37) = {15.47190137559184, 0.09164735011999575, 0.1};
Point(p16 + 38) = {15.51951099098384, 0.2065871292987271, 0.1};
Point(p16 + 39) = {15.54855391013906, 0.3275595937787584, 0.1};
Spline(16) = {11, p16 + 1, p16 + 2, p16 + 3, p16 + 4, p16 + 5, p16 + 6, p16 + 7, p16 + 8, p16 + 9, p16 + 10, p16 + 11, p16 + 12, p16 + 13, p16 + 14, p16 + 15, p16 + 16, p16 + 17, p16 + 18, p16 + 19, p16 + 20, p16 + 21, p16 + 22, p16 + 23, p16 + 24, p16 + 25, p16 + 26, p16 + 27, p16 + 28, p16 + 29, p16 + 30, p16 + 31, p16 + 32, p16 + 33, p16 + 34, p16 + 35, p16 + 36, p16 + 37, p16 + 38, p16 + 39, 11};
Line(17) = {12, 11};
p18 = newp;
Point(p18 + 1) = {15.54855391013906, 0.5756124062212413, 0};
Point(p18 + 2) = {15.51951099098384, 0.6965848707012726, 0};
Point(p18 + 3) = {15.47190137559184, 0.8115246498800041, 0};
Point(p18 + 4) = {15.40689737070127, 0.9176015449307984, 0};
Point(p18 + 5) = {15.32609959064848, 1.012203590648474, 0};
Point(p18 + 6) = {15.2314975449308, 1.093001370701273, 0};
Point(p18 + 7) = {15.12542064988, 1.158005375591836, 0};
Point(p18 + 8) = {15.01048087070127, 1.205614990983835, 0};
Point(p18 + 9) = {14.88950840622124, 1.234657910139065, 0};
Point(p18 + 10) = {14.765482, 1.244419, 0};
Point(p18 + 11) = {14.64145559377876, 1.234657910139065, 0};
Point(p18 + 12) = {14.52048312929873, 1.205614990983836, 0};
Point(p18 + 13) = {14.40554335012, 1.158005375591836, 0};
Point(p18 + 14) = {14.2994664550692, 1.093001370701273, 0};
Point(p18 + 15) = {14.20486440935153, 1.012203590648474, 0};
Point(p18 + 16) = {14.12406662929873, 0.9176015449307984, 0};
Point(p18 + 17) = {14.05906262440816, 0.8115246498800042, 0};
Point(p18 + 18) = {14.01145300901617, 0.6965848707012727, 0};
Point(p18 + 19) = {13.98241008986094, 0.5756124062212414, 0};
Point(p18 + 20) = {13.972649, 0.4515860000000001, 0};
Point(p18 + 21) = {13.98241008986094, 0.3275595937787587, 0};
Point(p18 + 22) = {14.01145300901617, 0.2065871292987271, 0};
Point(p18 + 23) = {14.05906262440816, 0.09164735011999625, 0};
Point(p18 + 24) = {14.12406662929873, -0.01442954493079829, 0};
Point(p18 + 25) = {14.20486440935153, -0.109031590648474, 0};
Point(p18 + 26) = {14.2994664550692, -0.1898293707012726, 0};
Point(p18 + 27) = {14.40554335012, -0.2548333755918362, 0};
Point(p18 + 28) = {14.52048312929873, -0.3024429909838355, 0};
Point(p18 + 29) = {14.64145559377876, -0.3314859101390648, 0};
Point(p18 + 30) = {14.765482, -0.341247, 0};
Point(p18 + 31) = {14.88950840622124, -0.3314859101390649, 0};
Point(p18 + 32) = {15.01048087070127, -0.3024429909838356, 0};
Point(p18 + 33) = {15.12542064988, -0.2548333755918364, 0};
Point(p18 + 34) = {15.2314975449308, -0.1898293707012729, 0};
Point(p18 + 35) = {15.32609959064848, -0.1090315906484742, 0};
Point(p18 + 36) = {15.40689737070127, -0.01442954493079845, 0};
Point(p18 + 37) = {15.47190137559184, 0.09164735011999575, 0};
Point(p18 + 38) = {15.51951099098384, 0.2065871292987271, 0};
Point(p18 + 39) = {15.54855391013906, 0.3275595937787584, 0};
Spline(18) = {12, p18 + 1, p18 + 2, p18 + 3, p18 + 4, p18 + 5, p18 + 6, p18 + 7, p18 + 8, p18 + 9, p18 + 10, p18 + 11, p18 + 12, p18 + 13, p18 + 14, p18 + 15, p18 + 16, p18 + 17, p18 + 18, p18 + 19, p18 + 20, p18 + 21, p18 + 22, p18 + 23, p18 + 24, p18 + 25, p18 + 26, p18 + 27, p18 + 28, p18 + 29, p18 + 30, p18 + 31, p18 + 32, p18 + 33, p18 + 34, p18 + 35, p18 + 36, p18 + 37, p18 + 38, p18 + 39, 12};
Line(19) = {14, 13};
Line(20) = {13, 15};
Line(21) = {16, 15};
Line(22) = {14, 16};
Line(23) = {14, 17};
Line(24) = {17, 18};
Line(25) = {13, 18};
Line(26) = {15, 19};
Line(27) = {18, 19};
Line(28) = {16, 20};
Line(29) = {20, 19};
Line(30) = {17, 20};
Curve Loop(7) = {-13, -14, 15, 14};
Surface(7) = {7};
Curve Loop(8) = {13};
Plane Surface(8) = {8};
Curve Loop(9) = {15};
Plane Surface(9) = {9};
Curve Loop(10) = {-16, -17, 18, 17};
Surface(10) = {10};
Curve Loop(11) = {16};
Plane Surface(11) = {11};
Curve Loop(12) = {18};
Plane Surface(12) = {12};
Curve Loop(13) = {-19, 22, 21, -20};
Plane Surface(13) = {13};
Curve Loop(14) = {-23, 19, 25, -24};
Plane Surface(14) = {14};
Curve Loop(15) = {-20, 25, 27, -26, -13, -16};
Plane Surface(15) = {15};
Curve Loop(16) = {-28, 21, 26, -29};
Plane Surface(16) = {16};
Curve Loop(17) = {-22, 23, 30, -28, -15, -18};
Plane Surface(17) = {17};
Curve Loop(18) = {-24, 30, 29, -27};
Plane Surface(18) = {18};
Surface Loop(1) = {13, 14, 15, 16, 17, 18, 7, 10};
Volume(1) = {1};
Surface Loop(2) = {7, 8, 9};
Volume(2) = {2};
Surface Loop(3) = {10, 11, 12};
Volume(3) = {3};
Physical Surface("WALLS") = {13, 18};
Physical Surface("LOAD") = {8, 11};
Physical Surface("BORDER") = {7, 9, 10, 12, 14, 15, 16, 17};
Physical Volume("SOLID") = {1, 2, 3};
