cl__1 = 0.051862;
cl__2 = 0.078345;
cl__3 = 2.450977;
cl__4 = 2.511419;
cl__5 = 0.6585569999999999;
cl__6 = 0.633892;
Point(9) = {18.633878, 0.4838959999999999, 0.1, cl__1};
Point(10) = {18.633878, 0.4838959999999999, 0, cl__1};
Point(11) = {22.531384, 1.230534, 0.1, cl__2};
Point(12) = {22.531384, 1.230534, 0, cl__2};
Point(13) = {0.161246, -2.970565, 0.1, cl__3};
Point(14) = {0.161246, -2.970565, 0, cl__3};
Point(15) = {0.161246, 4.637295999999999, 0.1, cl__4};
Point(16) = {0.161246, 4.637295999999999, 0, cl__4};
Point(17) = {30.22446, -2.970565, 0, cl__5};
Point(18) = {30.22446, -2.970565, 0.1, cl__5};
Point(19) = {30.22446, 4.637295999999999, 0.1, cl__6};
Point(20) = {30.22446, 4.637295999999999, 0, cl__6};
p13 = newp;
Point(p13 + 1) = {18.62749292719945, 0.5650260422591645, 0.1};
Point(p13 + 2) = {18.60849493048099, 0.6441583936227352, 0.1};
Point(p13 + 3) = {18.57735180357457, 0.7193445529749237, 0.1};
Point(p13 + 4) = {18.53483039362274, 0.7887331875439224, 0.1};
Point(p13 + 5) = {18.48197771885897, 0.8506157188589671, 0.1};
Point(p13 + 6) = {18.42009518754392, 0.9034683936227352, 0.1};
Point(p13 + 7) = {18.35070655297492, 0.9459898035745713, 0.1};
Point(p13 + 8) = {18.27552039362273, 0.9771329304809925, 0.1};
Point(p13 + 9) = {18.19638804225917, 0.9961309271994503, 0.1};
Point(p13 + 10) = {18.115258, 1.002516, 0.1};
Point(p13 + 11) = {18.03412795774084, 0.9961309271994503, 0.1};
Point(p13 + 12) = {17.95499560637727, 0.9771329304809926, 0.1};
Point(p13 + 13) = {17.87980944702508, 0.9459898035745713, 0.1};
Point(p13 + 14) = {17.81042081245608, 0.9034683936227352, 0.1};
Point(p13 + 15) = {17.74853828114103, 0.8506157188589673, 0.1};
Point(p13 + 16) = {17.69568560637726, 0.7887331875439225, 0.1};
Point(p13 + 17) = {17.65316419642543, 0.7193445529749238, 0.1};
Point(p13 + 18) = {17.62202106951901, 0.6441583936227353, 0.1};
Point(p13 + 19) = {17.60302307280055, 0.5650260422591646, 0.1};
Point(p13 + 20) = {17.596638, 0.483896, 0.1};
Point(p13 + 21) = {17.60302307280055, 0.4027659577408355, 0.1};
Point(p13 + 22) = {17.62202106951901, 0.3236336063772646, 0.1};
Point(p13 + 23) = {17.65316419642543, 0.2484474470250765, 0.1};
Point(p13 + 24) = {17.69568560637726, 0.1790588124560776, 0.1};
Point(p13 + 25) = {17.74853828114103, 0.1171762811410328, 0.1};
Point(p13 + 26) = {17.81042081245608, 0.06432360637726481, 0.1};
Point(p13 + 27) = {17.87980944702508, 0.02180219642542874, 0.1};
Point(p13 + 28) = {17.95499560637727, -0.009340930480992493, 0.1};
Point(p13 + 29) = {18.03412795774084, -0.0283389271994503, 0.1};
Point(p13 + 30) = {18.115258, -0.03472399999999998, 0.1};
Point(p13 + 31) = {18.19638804225917, -0.0283389271994503, 0.1};
Point(p13 + 32) = {18.27552039362273, -0.009340930480992549, 0.1};
Point(p13 + 33) = {18.35070655297492, 0.02180219642542858, 0.1};
Point(p13 + 34) = {18.42009518754392, 0.0643236063772647, 0.1};
Point(p13 + 35) = {18.48197771885897, 0.1171762811410327, 0.1};
Point(p13 + 36) = {18.53483039362274, 0.1790588124560775, 0.1};
Point(p13 + 37) = {18.57735180357457, 0.2484474470250762, 0.1};
Point(p13 + 38) = {18.60849493048099, 0.3236336063772647, 0.1};
Point(p13 + 39) = {18.62749292719945, 0.4027659577408353, 0.1};
Spline(13) = {9, p13 + 1, p13 + 2, p13 + 3, p13 + 4, p13 + 5, p13 + 6, p13 + 7, p13 + 8, p13 + 9, p13 + 10, p13 + 11, p13 + 12, p13 + 13, p13 + 14, p13 + 15, p13 + 16, p13 + 17, p13 + 18, p13 + 19, p13 + 20, p13 + 21, p13 + 22, p13 + 23, p13 + 24, p13 + 25, p13 + 26, p13 + 27, p13 + 28, p13 + 29, p13 + 30, p13 + 31, p13 + 32, p13 + 33, p13 + 34, p13 + 35, p13 + 36, p13 + 37, p13 + 38, p13 + 39, 9};
Line(14) = {10, 9};
p15 = newp;
Point(p15 + 1) = {18.62749292719945, 0.5650260422591645, 0};
Point(p15 + 2) = {18.60849493048099, 0.6441583936227352, 0};
Point(p15 + 3) = {18.57735180357457, 0.7193445529749237, 0};
Point(p15 + 4) = {18.53483039362274, 0.7887331875439224, 0};
Point(p15 + 5) = {18.48197771885897, 0.8506157188589671, 0};
Point(p15 + 6) = {18.42009518754392, 0.9034683936227352, 0};
Point(p15 + 7) = {18.35070655297492, 0.9459898035745713, 0};
Point(p15 + 8) = {18.27552039362273, 0.9771329304809925, 0};
Point(p15 + 9) = {18.19638804225917, 0.9961309271994503, 0};
Point(p15 + 10) = {18.115258, 1.002516, 0};
Point(p15 + 11) = {18.03412795774084, 0.9961309271994503, 0};
Point(p15 + 12) = {17.95499560637727, 0.9771329304809926, 0};
Point(p15 + 13) = {17.87980944702508, 0.9459898035745713, 0};
Point(p15 + 14) = {17.81042081245608, 0.9034683936227352, 0};
Point(p15 + 15) = {17.74853828114103, 0.8506157188589673, 0};
Point(p15 + 16) = {17.69568560637726, 0.7887331875439225, 0};
Point(p15 + 17) = {17.65316419642543, 0.7193445529749238, 0};
Point(p15 + 18) = {17.62202106951901, 0.6441583936227353, 0};
Point(p15 + 19) = {17.60302307280055, 0.5650260422591646, 0};
Point(p15 + 20) = {17.596638, 0.483896, 0};
Point(p15 + 21) = {17.60302307280055, 0.4027659577408355, 0};
Point(p15 + 22) = {17.62202106951901, 0.3236336063772646, 0};
Point(p15 + 23) = {17.65316419642543, 0.2484474470250765, 0};
Point(p15 + 24) = {17.69568560637726, 0.1790588124560776, 0};
Point(p15 + 25) = {17.74853828114103, 0.1171762811410328, 0};
Point(p15 + 26) = {17.81042081245608, 0.06432360637726481, 0};
Point(p15 + 27) = {17.87980944702508, 0.02180219642542874, 0};
Point(p15 + 28) = {17.95499560637727, -0.009340930480992493, 0};
Point(p15 + 29) = {18.03412795774084, -0.0283389271994503, 0};
Point(p15 + 30) = {18.115258, -0.03472399999999998, 0};
Point(p15 + 31) = {18.19638804225917, -0.0283389271994503, 0};
Point(p15 + 32) = {18.27552039362273, -0.009340930480992549, 0};
Point(p15 + 33) = {18.35070655297492, 0.02180219642542858, 0};
Point(p15 + 34) = {18.42009518754392, 0.0643236063772647, 0};
Point(p15 + 35) = {18.48197771885897, 0.1171762811410327, 0};
Point(p15 + 36) = {18.53483039362274, 0.1790588124560775, 0};
Point(p15 + 37) = {18.57735180357457, 0.2484474470250762, 0};
Point(p15 + 38) = {18.60849493048099, 0.3236336063772647, 0};
Point(p15 + 39) = {18.62749292719945, 0.4027659577408353, 0};
Spline(15) = {10, p15 + 1, p15 + 2, p15 + 3, p15 + 4, p15 + 5, p15 + 6, p15 + 7, p15 + 8, p15 + 9, p15 + 10, p15 + 11, p15 + 12, p15 + 13, p15 + 14, p15 + 15, p15 + 16, p15 + 17, p15 + 18, p15 + 19, p15 + 20, p15 + 21, p15 + 22, p15 + 23, p15 + 24, p15 + 25, p15 + 26, p15 + 27, p15 + 28, p15 + 29, p15 + 30, p15 + 31, p15 + 32, p15 + 33, p15 + 34, p15 + 35, p15 + 36, p15 + 37, p15 + 38, p15 + 39, 10};
p16 = newp;
Point(p16 + 1) = {22.52173836888096, 1.353093363808094, 0.1};
Point(p16 + 2) = {22.49303898297402, 1.472634909328024, 0.1};
Point(p16 + 3) = {22.445992516408, 1.586215126973447, 0.1};
Point(p16 + 4) = {22.38175740932802, 1.6910372948348, 0.1};
Point(p16 + 5) = {22.30191534325451, 1.784520343254507, 0.1};
Point(p16 + 6) = {22.2084322948348, 1.864362409328024, 0.1};
Point(p16 + 7) = {22.10361012697345, 1.928597516407998, 0.1};
Point(p16 + 8) = {21.99002990932802, 1.97564398297402, 0.1};
Point(p16 + 9) = {21.87048836380809, 2.004343368880964, 0.1};
Point(p16 + 10) = {21.747929, 2.013989, 0.1};
Point(p16 + 11) = {21.62536963619191, 2.004343368880964, 0.1};
Point(p16 + 12) = {21.50582809067198, 1.97564398297402, 0.1};
Point(p16 + 13) = {21.39224787302655, 1.928597516407998, 0.1};
Point(p16 + 14) = {21.2874257051652, 1.864362409328024, 0.1};
Point(p16 + 15) = {21.19394265674549, 1.784520343254507, 0.1};
Point(p16 + 16) = {21.11410059067197, 1.6910372948348, 0.1};
Point(p16 + 17) = {21.049865483592, 1.586215126973447, 0.1};
Point(p16 + 18) = {21.00281901702598, 1.472634909328024, 0.1};
Point(p16 + 19) = {20.97411963111903, 1.353093363808094, 0.1};
Point(p16 + 20) = {20.964474, 1.230534, 0.1};
Point(p16 + 21) = {20.97411963111903, 1.107974636191906, 0.1};
Point(p16 + 22) = {21.00281901702598, 0.9884330906719754, 0.1};
Point(p16 + 23) = {21.049865483592, 0.8748528730265537, 0.1};
Point(p16 + 24) = {21.11410059067197, 0.7700307051652006, 0.1};
Point(p16 + 25) = {21.19394265674549, 0.6765476567454934, 0.1};
Point(p16 + 26) = {21.2874257051652, 0.5967055906719756, 0.1};
Point(p16 + 27) = {21.39224787302655, 0.5324704835920023, 0.1};
Point(p16 + 28) = {21.50582809067198, 0.4854240170259805, 0.1};
Point(p16 + 29) = {21.62536963619191, 0.4567246311190364, 0.1};
Point(p16 + 30) = {21.747929, 0.447079, 0.1};
Point(p16 + 31) = {21.87048836380809, 0.4567246311190364, 0.1};
Point(p16 + 32) = {21.99002990932802, 0.4854240170259804, 0.1};
Point(p16 + 33) = {22.10361012697345, 0.5324704835920021, 0.1};
Point(p16 + 34) = {22.2084322948348, 0.5967055906719755, 0.1};
Point(p16 + 35) = {22.30191534325451, 0.6765476567454933, 0.1};
Point(p16 + 36) = {22.38175740932802, 0.7700307051652004, 0.1};
Point(p16 + 37) = {22.445992516408, 0.8748528730265532, 0.1};
Point(p16 + 38) = {22.49303898297402, 0.9884330906719754, 0.1};
Point(p16 + 39) = {22.52173836888096, 1.107974636191906, 0.1};
Spline(16) = {11, p16 + 1, p16 + 2, p16 + 3, p16 + 4, p16 + 5, p16 + 6, p16 + 7, p16 + 8, p16 + 9, p16 + 10, p16 + 11, p16 + 12, p16 + 13, p16 + 14, p16 + 15, p16 + 16, p16 + 17, p16 + 18, p16 + 19, p16 + 20, p16 + 21, p16 + 22, p16 + 23, p16 + 24, p16 + 25, p16 + 26, p16 + 27, p16 + 28, p16 + 29, p16 + 30, p16 + 31, p16 + 32, p16 + 33, p16 + 34, p16 + 35, p16 + 36, p16 + 37, p16 + 38, p16 + 39, 11};
Line(17) = {12, 11};
p18 = newp;
Point(p18 + 1) = {22.52173836888096, 1.353093363808094, 0};
Point(p18 + 2) = {22.49303898297402, 1.472634909328024, 0};
Point(p18 + 3) = {22.445992516408, 1.586215126973447, 0};
Point(p18 + 4) = {22.38175740932802, 1.6910372948348, 0};
Point(p18 + 5) = {22.30191534325451, 1.784520343254507, 0};
Point(p18 + 6) = {22.2084322948348, 1.864362409328024, 0};
Point(p18 + 7) = {22.10361012697345, 1.928597516407998, 0};
Point(p18 + 8) = {21.99002990932802, 1.97564398297402, 0};
Point(p18 + 9) = {21.87048836380809, 2.004343368880964, 0};
Point(p18 + 10) = {21.747929, 2.013989, 0};
Point(p18 + 11) = {21.62536963619191, 2.004343368880964, 0};
Point(p18 + 12) = {21.50582809067198, 1.97564398297402, 0};
Point(p18 + 13) = {21.39224787302655, 1.928597516407998, 0};
Point(p18 + 14) = {21.2874257051652, 1.864362409328024, 0};
Point(p18 + 15) = {21.19394265674549, 1.784520343254507, 0};
Point(p18 + 16) = {21.11410059067197, 1.6910372948348, 0};
Point(p18 + 17) = {21.049865483592, 1.586215126973447, 0};
Point(p18 + 18) = {21.00281901702598, 1.472634909328024, 0};
Point(p18 + 19) = {20.97411963111903, 1.353093363808094, 0};
Point(p18 + 20) = {20.964474, 1.230534, 0};
Point(p18 + 21) = {20.97411963111903, 1.107974636191906, 0};
Point(p18 + 22) = {21.00281901702598, 0.9884330906719754, 0};
Point(p18 + 23) = {21.049865483592, 0.8748528730265537, 0};
Point(p18 + 24) = {21.11410059067197, 0.7700307051652006, 0};
Point(p18 + 25) = {21.19394265674549, 0.6765476567454934, 0};
Point(p18 + 26) = {21.2874257051652, 0.5967055906719756, 0};
Point(p18 + 27) = {21.39224787302655, 0.5324704835920023, 0};
Point(p18 + 28) = {21.50582809067198, 0.4854240170259805, 0};
Point(p18 + 29) = {21.62536963619191, 0.4567246311190364, 0};
Point(p18 + 30) = {21.747929, 0.447079, 0};
Point(p18 + 31) = {21.87048836380809, 0.4567246311190364, 0};
Point(p18 + 32) = {21.99002990932802, 0.4854240170259804, 0};
Point(p18 + 33) = {22.10361012697345, 0.5324704835920021, 0};
Point(p18 + 34) = {22.2084322948348, 0.5967055906719755, 0};
Point(p18 + 35) = {22.30191534325451, 0.6765476567454933, 0};
Point(p18 + 36) = {22.38175740932802, 0.7700307051652004, 0};
Point(p18 + 37) = {22.445992516408, 0.8748528730265532, 0};
Point(p18 + 38) = {22.49303898297402, 0.9884330906719754, 0};
Point(p18 + 39) = {22.52173836888096, 1.107974636191906, 0};
Spline(18) = {12, p18 + 1, p18 + 2, p18 + 3, p18 + 4, p18 + 5, p18 + 6, p18 + 7, p18 + 8, p18 + 9, p18 + 10, p18 + 11, p18 + 12, p18 + 13, p18 + 14, p18 + 15, p18 + 16, p18 + 17, p18 + 18, p18 + 19, p18 + 20, p18 + 21, p18 + 22, p18 + 23, p18 + 24, p18 + 25, p18 + 26, p18 + 27, p18 + 28, p18 + 29, p18 + 30, p18 + 31, p18 + 32, p18 + 33, p18 + 34, p18 + 35, p18 + 36, p18 + 37, p18 + 38, p18 + 39, 12};
Line(19) = {14, 13};
Line(20) = {13, 15};
Line(21) = {16, 15};
Line(22) = {14, 16};
Line(23) = {14, 17};
Line(24) = {17, 18};
Line(25) = {13, 18};
Line(26) = {15, 19};
Line(27) = {18, 19};
Line(28) = {16, 20};
Line(29) = {20, 19};
Line(30) = {17, 20};
Curve Loop(7) = {-13, -14, 15, 14};
Surface(7) = {7};
Curve Loop(8) = {13};
Plane Surface(8) = {8};
Curve Loop(9) = {15};
Plane Surface(9) = {9};
Curve Loop(10) = {-16, -17, 18, 17};
Surface(10) = {10};
Curve Loop(11) = {16};
Plane Surface(11) = {11};
Curve Loop(12) = {18};
Plane Surface(12) = {12};
Curve Loop(13) = {-19, 22, 21, -20};
Plane Surface(13) = {13};
Curve Loop(14) = {-23, 19, 25, -24};
Plane Surface(14) = {14};
Curve Loop(15) = {-20, 25, 27, -26, -13, -16};
Plane Surface(15) = {15};
Curve Loop(16) = {-28, 21, 26, -29};
Plane Surface(16) = {16};
Curve Loop(17) = {-22, 23, 30, -28, -15, -18};
Plane Surface(17) = {17};
Curve Loop(18) = {-24, 30, 29, -27};
Plane Surface(18) = {18};
Surface Loop(1) = {13, 14, 15, 16, 17, 18, 7, 10};
Volume(1) = {1};
Surface Loop(2) = {7, 8, 9};
Volume(2) = {2};
Surface Loop(3) = {10, 11, 12};
Volume(3) = {3};
Physical Surface("WALLS") = {13, 18};
Physical Surface("LOAD") = {8, 11};
Physical Surface("BORDER") = {7, 9, 10, 12, 14, 15, 16, 17};
Physical Volume("SOLID") = {1, 2, 3};
