cl__1 = 0.07016699999999999;
cl__2 = 0.053941;
cl__3 = 0.9292319999999999;
cl__4 = 0.921782;
cl__5 = 1.005169;
cl__6 = 1.510054;
Point(9) = {9.113918999999999, 0.1851539999999998, 0.1, cl__1};
Point(10) = {9.113918999999999, 0.1851539999999998, 0, cl__1};
Point(11) = {23.039862, -1.637062, 0.1, cl__2};
Point(12) = {23.039862, -1.637062, 0, cl__2};
Point(13) = {0.114013, -3.893423, 0.1, cl__3};
Point(14) = {0.114013, -3.893423, 0, cl__3};
Point(15) = {0.114013, 4.10595, 0.1, cl__4};
Point(16) = {0.114013, 4.10595, 0, cl__4};
Point(17) = {31.986467, -3.893423, 0, cl__5};
Point(18) = {31.986467, -3.893423, 0.1, cl__5};
Point(19) = {31.986467, 4.10595, 0.1, cl__6};
Point(20) = {31.986467, 4.10595, 0, cl__6};
p13 = newp;
Point(p13 + 1) = {9.105280241010412, 0.2949198403881739, 0.1};
Point(p13 + 2) = {9.079576678958368, 0.4019828814940525, 0.1};
Point(p13 + 3) = {9.037441220846825, 0.503706875923747, 0.1};
Point(p13 + 4) = {8.979911381494052, 0.5975870413318165, 0.1};
Point(p13 + 5) = {8.908403736475508, 0.6813117364755084, 0.1};
Point(p13 + 6) = {8.824679041331816, 0.7528193814940525, 0.1};
Point(p13 + 7) = {8.730798875923746, 0.8103492208468246, 0.1};
Point(p13 + 8) = {8.629074881494052, 0.8524846789583693, 0.1};
Point(p13 + 9) = {8.522011840388174, 0.8781882410104122, 0.1};
Point(p13 + 10) = {8.412246, 0.886827, 0.1};
Point(p13 + 11) = {8.302480159611825, 0.878188241010412, 0.1};
Point(p13 + 12) = {8.195417118505947, 0.8524846789583693, 0.1};
Point(p13 + 13) = {8.093693124076253, 0.8103492208468247, 0.1};
Point(p13 + 14) = {7.999812958668183, 0.7528193814940526, 0.1};
Point(p13 + 15) = {7.916088263524491, 0.6813117364755084, 0.1};
Point(p13 + 16) = {7.844580618505947, 0.5975870413318166, 0.1};
Point(p13 + 17) = {7.787050779153175, 0.5037068759237471, 0.1};
Point(p13 + 18) = {7.74491532104163, 0.4019828814940526, 0.1};
Point(p13 + 19) = {7.719211758989587, 0.294919840388174, 0.1};
Point(p13 + 20) = {7.710573, 0.1851540000000001, 0.1};
Point(p13 + 21) = {7.719211758989587, 0.07538815961182618, 0.1};
Point(p13 + 22) = {7.74491532104163, -0.03167488149405268, 0.1};
Point(p13 + 23) = {7.787050779153175, -0.1333988759237466, 0.1};
Point(p13 + 24) = {7.844580618505947, -0.2272790413318164, 0.1};
Point(p13 + 25) = {7.916088263524491, -0.3110037364755083, 0.1};
Point(p13 + 26) = {7.999812958668183, -0.3825113814940524, 0.1};
Point(p13 + 27) = {8.093693124076253, -0.4400412208468245, 0.1};
Point(p13 + 28) = {8.195417118505947, -0.4821766789583692, 0.1};
Point(p13 + 29) = {8.302480159611825, -0.507880241010412, 0.1};
Point(p13 + 30) = {8.412246, -0.516519, 0.1};
Point(p13 + 31) = {8.522011840388174, -0.5078802410104121, 0.1};
Point(p13 + 32) = {8.629074881494052, -0.4821766789583692, 0.1};
Point(p13 + 33) = {8.730798875923746, -0.4400412208468247, 0.1};
Point(p13 + 34) = {8.824679041331816, -0.3825113814940525, 0.1};
Point(p13 + 35) = {8.908403736475508, -0.3110037364755085, 0.1};
Point(p13 + 36) = {8.979911381494052, -0.2272790413318166, 0.1};
Point(p13 + 37) = {9.037441220846825, -0.1333988759237471, 0.1};
Point(p13 + 38) = {9.079576678958368, -0.03167488149405259, 0.1};
Point(p13 + 39) = {9.105280241010412, 0.07538815961182592, 0.1};
Spline(13) = {9, p13 + 1, p13 + 2, p13 + 3, p13 + 4, p13 + 5, p13 + 6, p13 + 7, p13 + 8, p13 + 9, p13 + 10, p13 + 11, p13 + 12, p13 + 13, p13 + 14, p13 + 15, p13 + 16, p13 + 17, p13 + 18, p13 + 19, p13 + 20, p13 + 21, p13 + 22, p13 + 23, p13 + 24, p13 + 25, p13 + 26, p13 + 27, p13 + 28, p13 + 29, p13 + 30, p13 + 31, p13 + 32, p13 + 33, p13 + 34, p13 + 35, p13 + 36, p13 + 37, p13 + 38, p13 + 39, 9};
Line(14) = {10, 9};
p15 = newp;
Point(p15 + 1) = {9.105280241010412, 0.2949198403881739, 0};
Point(p15 + 2) = {9.079576678958368, 0.4019828814940525, 0};
Point(p15 + 3) = {9.037441220846825, 0.503706875923747, 0};
Point(p15 + 4) = {8.979911381494052, 0.5975870413318165, 0};
Point(p15 + 5) = {8.908403736475508, 0.6813117364755084, 0};
Point(p15 + 6) = {8.824679041331816, 0.7528193814940525, 0};
Point(p15 + 7) = {8.730798875923746, 0.8103492208468246, 0};
Point(p15 + 8) = {8.629074881494052, 0.8524846789583693, 0};
Point(p15 + 9) = {8.522011840388174, 0.8781882410104122, 0};
Point(p15 + 10) = {8.412246, 0.886827, 0};
Point(p15 + 11) = {8.302480159611825, 0.878188241010412, 0};
Point(p15 + 12) = {8.195417118505947, 0.8524846789583693, 0};
Point(p15 + 13) = {8.093693124076253, 0.8103492208468247, 0};
Point(p15 + 14) = {7.999812958668183, 0.7528193814940526, 0};
Point(p15 + 15) = {7.916088263524491, 0.6813117364755084, 0};
Point(p15 + 16) = {7.844580618505947, 0.5975870413318166, 0};
Point(p15 + 17) = {7.787050779153175, 0.5037068759237471, 0};
Point(p15 + 18) = {7.74491532104163, 0.4019828814940526, 0};
Point(p15 + 19) = {7.719211758989587, 0.294919840388174, 0};
Point(p15 + 20) = {7.710573, 0.1851540000000001, 0};
Point(p15 + 21) = {7.719211758989587, 0.07538815961182618, 0};
Point(p15 + 22) = {7.74491532104163, -0.03167488149405268, 0};
Point(p15 + 23) = {7.787050779153175, -0.1333988759237466, 0};
Point(p15 + 24) = {7.844580618505947, -0.2272790413318164, 0};
Point(p15 + 25) = {7.916088263524491, -0.3110037364755083, 0};
Point(p15 + 26) = {7.999812958668183, -0.3825113814940524, 0};
Point(p15 + 27) = {8.093693124076253, -0.4400412208468245, 0};
Point(p15 + 28) = {8.195417118505947, -0.4821766789583692, 0};
Point(p15 + 29) = {8.302480159611825, -0.507880241010412, 0};
Point(p15 + 30) = {8.412246, -0.516519, 0};
Point(p15 + 31) = {8.522011840388174, -0.5078802410104121, 0};
Point(p15 + 32) = {8.629074881494052, -0.4821766789583692, 0};
Point(p15 + 33) = {8.730798875923746, -0.4400412208468247, 0};
Point(p15 + 34) = {8.824679041331816, -0.3825113814940525, 0};
Point(p15 + 35) = {8.908403736475508, -0.3110037364755085, 0};
Point(p15 + 36) = {8.979911381494052, -0.2272790413318166, 0};
Point(p15 + 37) = {9.037441220846825, -0.1333988759237471, 0};
Point(p15 + 38) = {9.079576678958368, -0.03167488149405259, 0};
Point(p15 + 39) = {9.105280241010412, 0.07538815961182592, 0};
Spline(15) = {10, p15 + 1, p15 + 2, p15 + 3, p15 + 4, p15 + 5, p15 + 6, p15 + 7, p15 + 8, p15 + 9, p15 + 10, p15 + 11, p15 + 12, p15 + 13, p15 + 14, p15 + 15, p15 + 16, p15 + 17, p15 + 18, p15 + 19, p15 + 20, p15 + 21, p15 + 22, p15 + 23, p15 + 24, p15 + 25, p15 + 26, p15 + 27, p15 + 28, p15 + 29, p15 + 30, p15 + 31, p15 + 32, p15 + 33, p15 + 34, p15 + 35, p15 + 36, p15 + 37, p15 + 38, p15 + 39, 10};
p16 = newp;
Point(p16 + 1) = {23.03322101704706, -1.552680310950509, 0.1};
Point(p16 + 2) = {23.0134615912287, -1.470376379132187, 0.1};
Point(p16 + 3) = {22.98107026518635, -1.39217680049749, 0.1};
Point(p16 + 4) = {22.93684462086781, -1.320007108201926, 0.1};
Point(p16 + 5) = {22.88187364041271, -1.255644359587289, 0.1};
Point(p16 + 6) = {22.81751089179807, -1.200673379132187, 0.1};
Point(p16 + 7) = {22.74534119950251, -1.156447734813649, 0.1};
Point(p16 + 8) = {22.66714162086781, -1.124056408771296, 0.1};
Point(p16 + 9) = {22.58483768904949, -1.104296982952939, 0.1};
Point(p16 + 10) = {22.500456, -1.097656, 0.1};
Point(p16 + 11) = {22.41607431095051, -1.104296982952939, 0.1};
Point(p16 + 12) = {22.33377037913219, -1.124056408771296, 0.1};
Point(p16 + 13) = {22.25557080049749, -1.156447734813649, 0.1};
Point(p16 + 14) = {22.18340110820193, -1.200673379132187, 0.1};
Point(p16 + 15) = {22.11903835958729, -1.255644359587289, 0.1};
Point(p16 + 16) = {22.06406737913219, -1.320007108201926, 0.1};
Point(p16 + 17) = {22.01984173481365, -1.39217680049749, 0.1};
Point(p16 + 18) = {21.98745040877129, -1.470376379132187, 0.1};
Point(p16 + 19) = {21.96769098295294, -1.552680310950509, 0.1};
Point(p16 + 20) = {21.96105, -1.637062, 0.1};
Point(p16 + 21) = {21.96769098295294, -1.721443689049491, 0.1};
Point(p16 + 22) = {21.98745040877129, -1.803747620867813, 0.1};
Point(p16 + 23) = {22.01984173481365, -1.88194719950251, 0.1};
Point(p16 + 24) = {22.06406737913219, -1.954116891798074, 0.1};
Point(p16 + 25) = {22.11903835958729, -2.018479640412711, 0.1};
Point(p16 + 26) = {22.18340110820193, -2.073450620867813, 0.1};
Point(p16 + 27) = {22.25557080049749, -2.117676265186351, 0.1};
Point(p16 + 28) = {22.33377037913219, -2.150067591228704, 0.1};
Point(p16 + 29) = {22.41607431095051, -2.169827017047061, 0.1};
Point(p16 + 30) = {22.500456, -2.176468, 0.1};
Point(p16 + 31) = {22.58483768904949, -2.169827017047061, 0.1};
Point(p16 + 32) = {22.66714162086781, -2.150067591228704, 0.1};
Point(p16 + 33) = {22.74534119950251, -2.117676265186351, 0.1};
Point(p16 + 34) = {22.81751089179807, -2.073450620867813, 0.1};
Point(p16 + 35) = {22.88187364041271, -2.018479640412711, 0.1};
Point(p16 + 36) = {22.93684462086781, -1.954116891798074, 0.1};
Point(p16 + 37) = {22.98107026518635, -1.88194719950251, 0.1};
Point(p16 + 38) = {23.0134615912287, -1.803747620867813, 0.1};
Point(p16 + 39) = {23.03322101704706, -1.721443689049491, 0.1};
Spline(16) = {11, p16 + 1, p16 + 2, p16 + 3, p16 + 4, p16 + 5, p16 + 6, p16 + 7, p16 + 8, p16 + 9, p16 + 10, p16 + 11, p16 + 12, p16 + 13, p16 + 14, p16 + 15, p16 + 16, p16 + 17, p16 + 18, p16 + 19, p16 + 20, p16 + 21, p16 + 22, p16 + 23, p16 + 24, p16 + 25, p16 + 26, p16 + 27, p16 + 28, p16 + 29, p16 + 30, p16 + 31, p16 + 32, p16 + 33, p16 + 34, p16 + 35, p16 + 36, p16 + 37, p16 + 38, p16 + 39, 11};
Line(17) = {12, 11};
p18 = newp;
Point(p18 + 1) = {23.03322101704706, -1.552680310950509, 0};
Point(p18 + 2) = {23.0134615912287, -1.470376379132187, 0};
Point(p18 + 3) = {22.98107026518635, -1.39217680049749, 0};
Point(p18 + 4) = {22.93684462086781, -1.320007108201926, 0};
Point(p18 + 5) = {22.88187364041271, -1.255644359587289, 0};
Point(p18 + 6) = {22.81751089179807, -1.200673379132187, 0};
Point(p18 + 7) = {22.74534119950251, -1.156447734813649, 0};
Point(p18 + 8) = {22.66714162086781, -1.124056408771296, 0};
Point(p18 + 9) = {22.58483768904949, -1.104296982952939, 0};
Point(p18 + 10) = {22.500456, -1.097656, 0};
Point(p18 + 11) = {22.41607431095051, -1.104296982952939, 0};
Point(p18 + 12) = {22.33377037913219, -1.124056408771296, 0};
Point(p18 + 13) = {22.25557080049749, -1.156447734813649, 0};
Point(p18 + 14) = {22.18340110820193, -1.200673379132187, 0};
Point(p18 + 15) = {22.11903835958729, -1.255644359587289, 0};
Point(p18 + 16) = {22.06406737913219, -1.320007108201926, 0};
Point(p18 + 17) = {22.01984173481365, -1.39217680049749, 0};
Point(p18 + 18) = {21.98745040877129, -1.470376379132187, 0};
Point(p18 + 19) = {21.96769098295294, -1.552680310950509, 0};
Point(p18 + 20) = {21.96105, -1.637062, 0};
Point(p18 + 21) = {21.96769098295294, -1.721443689049491, 0};
Point(p18 + 22) = {21.98745040877129, -1.803747620867813, 0};
Point(p18 + 23) = {22.01984173481365, -1.88194719950251, 0};
Point(p18 + 24) = {22.06406737913219, -1.954116891798074, 0};
Point(p18 + 25) = {22.11903835958729, -2.018479640412711, 0};
Point(p18 + 26) = {22.18340110820193, -2.073450620867813, 0};
Point(p18 + 27) = {22.25557080049749, -2.117676265186351, 0};
Point(p18 + 28) = {22.33377037913219, -2.150067591228704, 0};
Point(p18 + 29) = {22.41607431095051, -2.169827017047061, 0};
Point(p18 + 30) = {22.500456, -2.176468, 0};
Point(p18 + 31) = {22.58483768904949, -2.169827017047061, 0};
Point(p18 + 32) = {22.66714162086781, -2.150067591228704, 0};
Point(p18 + 33) = {22.74534119950251, -2.117676265186351, 0};
Point(p18 + 34) = {22.81751089179807, -2.073450620867813, 0};
Point(p18 + 35) = {22.88187364041271, -2.018479640412711, 0};
Point(p18 + 36) = {22.93684462086781, -1.954116891798074, 0};
Point(p18 + 37) = {22.98107026518635, -1.88194719950251, 0};
Point(p18 + 38) = {23.0134615912287, -1.803747620867813, 0};
Point(p18 + 39) = {23.03322101704706, -1.721443689049491, 0};
Spline(18) = {12, p18 + 1, p18 + 2, p18 + 3, p18 + 4, p18 + 5, p18 + 6, p18 + 7, p18 + 8, p18 + 9, p18 + 10, p18 + 11, p18 + 12, p18 + 13, p18 + 14, p18 + 15, p18 + 16, p18 + 17, p18 + 18, p18 + 19, p18 + 20, p18 + 21, p18 + 22, p18 + 23, p18 + 24, p18 + 25, p18 + 26, p18 + 27, p18 + 28, p18 + 29, p18 + 30, p18 + 31, p18 + 32, p18 + 33, p18 + 34, p18 + 35, p18 + 36, p18 + 37, p18 + 38, p18 + 39, 12};
Line(19) = {14, 13};
Line(20) = {13, 15};
Line(21) = {16, 15};
Line(22) = {14, 16};
Line(23) = {14, 17};
Line(24) = {17, 18};
Line(25) = {13, 18};
Line(26) = {15, 19};
Line(27) = {18, 19};
Line(28) = {16, 20};
Line(29) = {20, 19};
Line(30) = {17, 20};
Curve Loop(7) = {-13, -14, 15, 14};
Surface(7) = {7};
Curve Loop(8) = {13};
Plane Surface(8) = {8};
Curve Loop(9) = {15};
Plane Surface(9) = {9};
Curve Loop(10) = {-16, -17, 18, 17};
Surface(10) = {10};
Curve Loop(11) = {16};
Plane Surface(11) = {11};
Curve Loop(12) = {18};
Plane Surface(12) = {12};
Curve Loop(13) = {-19, 22, 21, -20};
Plane Surface(13) = {13};
Curve Loop(14) = {-23, 19, 25, -24};
Plane Surface(14) = {14};
Curve Loop(15) = {-20, 25, 27, -26, -16, -13};
Plane Surface(15) = {15};
Curve Loop(16) = {-28, 21, 26, -29};
Plane Surface(16) = {16};
Curve Loop(17) = {-22, 23, 30, -28, -18, -15};
Plane Surface(17) = {17};
Curve Loop(18) = {-24, 30, 29, -27};
Plane Surface(18) = {18};
Surface Loop(1) = {13, 14, 15, 16, 17, 18, 10, 7};
Volume(1) = {1};
Surface Loop(2) = {7, 8, 9};
Volume(2) = {2};
Surface Loop(3) = {10, 11, 12};
Volume(3) = {3};
Physical Surface("WALLS") = {13, 18};
Physical Surface("LOAD") = {8, 11};
Physical Surface("BORDER") = {7, 9, 10, 12, 14, 15, 16, 17};
Physical Volume("SOLID") = {1, 2, 3};
