cl__1 = 0.091959;
cl__2 = 0.091089;
cl__3 = 1.485955;
cl__4 = 1.690803;
cl__5 = 0.829414;
cl__6 = 0.838129;
Point(9) = {25.053533, 0.2135799999999998, 0.1, cl__1};
Point(10) = {25.053533, 0.2135799999999998, 0, cl__1};
Point(11) = {21.658472, -1.477993, 0.1, cl__2};
Point(12) = {21.658472, -1.477993, 0, cl__2};
Point(13) = {0.276201, -4.275031, 1, cl__3};
Point(14) = {0.276201, -4.275031, 0, cl__3};
Point(15) = {0.276201, 5.191345999999999, 1, cl__4};
Point(16) = {0.276201, 5.191345999999999, 0, cl__4};
Point(17) = {38.734663, -4.275031, 0, cl__5};
Point(18) = {38.734663, -4.275031, 1, cl__5};
Point(19) = {38.734663, 5.191345999999999, 1, cl__6};
Point(20) = {38.734663, 5.191345999999999, 0, cl__6};
p13 = newp;
Point(p13 + 1) = {25.04221127188125, 0.3574361954442061, 0.1};
Point(p13 + 2) = {25.00852486604593, 0.4977501739252354, 0.1};
Point(p13 + 3) = {24.95330325360448, 0.6310669396174888, 0.1};
Point(p13 + 4) = {24.87790617392524, 0.7541037912966445, 0.1};
Point(p13 + 5) = {24.78419015333846, 0.8638311533384619, 0.1};
Point(p13 + 6) = {24.67446279129665, 0.9575471739252354, 0.1};
Point(p13 + 7) = {24.55142593961749, 1.032944253604478, 0.1};
Point(p13 + 8) = {24.41810917392524, 1.088165866045925, 0.1};
Point(p13 + 9) = {24.27779519544421, 1.121852271881245, 0.1};
Point(p13 + 10) = {24.133939, 1.133174, 0.1};
Point(p13 + 11) = {23.99008280455579, 1.121852271881245, 0.1};
Point(p13 + 12) = {23.84976882607477, 1.088165866045926, 0.1};
Point(p13 + 13) = {23.71645206038251, 1.032944253604478, 0.1};
Point(p13 + 14) = {23.59341520870336, 0.9575471739252355, 0.1};
Point(p13 + 15) = {23.48368784666154, 0.8638311533384621, 0.1};
Point(p13 + 16) = {23.38997182607477, 0.7541037912966446, 0.1};
Point(p13 + 17) = {23.31457474639553, 0.6310669396174888, 0.1};
Point(p13 + 18) = {23.25935313395408, 0.4977501739252355, 0.1};
Point(p13 + 19) = {23.22566672811876, 0.3574361954442061, 0.1};
Point(p13 + 20) = {23.214345, 0.2135800000000001, 0.1};
Point(p13 + 21) = {23.22566672811876, 0.06972380455579402, 0.1};
Point(p13 + 22) = {23.25935313395408, -0.0705901739252357, 0.1};
Point(p13 + 23) = {23.31457474639552, -0.2039069396174883, 0.1};
Point(p13 + 24) = {23.38997182607477, -0.3269437912966444, 0.1};
Point(p13 + 25) = {23.48368784666154, -0.436671153338462, 0.1};
Point(p13 + 26) = {23.59341520870336, -0.5303871739252354, 0.1};
Point(p13 + 27) = {23.71645206038251, -0.605784253604478, 0.1};
Point(p13 + 28) = {23.84976882607477, -0.6610058660459255, 0.1};
Point(p13 + 29) = {23.99008280455579, -0.694692271881245, 0.1};
Point(p13 + 30) = {24.133939, -0.706014, 0.1};
Point(p13 + 31) = {24.27779519544421, -0.6946922718812452, 0.1};
Point(p13 + 32) = {24.41810917392524, -0.6610058660459256, 0.1};
Point(p13 + 33) = {24.55142593961749, -0.6057842536044781, 0.1};
Point(p13 + 34) = {24.67446279129664, -0.5303871739252356, 0.1};
Point(p13 + 35) = {24.78419015333846, -0.4366711533384622, 0.1};
Point(p13 + 36) = {24.87790617392524, -0.3269437912966446, 0.1};
Point(p13 + 37) = {24.95330325360448, -0.203906939617489, 0.1};
Point(p13 + 38) = {25.00852486604593, -0.07059017392523559, 0.1};
Point(p13 + 39) = {25.04221127188125, 0.06972380455579369, 0.1};
Spline(13) = {9, p13 + 1, p13 + 2, p13 + 3, p13 + 4, p13 + 5, p13 + 6, p13 + 7, p13 + 8, p13 + 9, p13 + 10, p13 + 11, p13 + 12, p13 + 13, p13 + 14, p13 + 15, p13 + 16, p13 + 17, p13 + 18, p13 + 19, p13 + 20, p13 + 21, p13 + 22, p13 + 23, p13 + 24, p13 + 25, p13 + 26, p13 + 27, p13 + 28, p13 + 29, p13 + 30, p13 + 31, p13 + 32, p13 + 33, p13 + 34, p13 + 35, p13 + 36, p13 + 37, p13 + 38, p13 + 39, 9};
Line(14) = {10, 9};
p15 = newp;
Point(p15 + 1) = {25.04221127188125, 0.3574361954442061, 0};
Point(p15 + 2) = {25.00852486604593, 0.4977501739252354, 0};
Point(p15 + 3) = {24.95330325360448, 0.6310669396174888, 0};
Point(p15 + 4) = {24.87790617392524, 0.7541037912966445, 0};
Point(p15 + 5) = {24.78419015333846, 0.8638311533384619, 0};
Point(p15 + 6) = {24.67446279129665, 0.9575471739252354, 0};
Point(p15 + 7) = {24.55142593961749, 1.032944253604478, 0};
Point(p15 + 8) = {24.41810917392524, 1.088165866045925, 0};
Point(p15 + 9) = {24.27779519544421, 1.121852271881245, 0};
Point(p15 + 10) = {24.133939, 1.133174, 0};
Point(p15 + 11) = {23.99008280455579, 1.121852271881245, 0};
Point(p15 + 12) = {23.84976882607477, 1.088165866045926, 0};
Point(p15 + 13) = {23.71645206038251, 1.032944253604478, 0};
Point(p15 + 14) = {23.59341520870336, 0.9575471739252355, 0};
Point(p15 + 15) = {23.48368784666154, 0.8638311533384621, 0};
Point(p15 + 16) = {23.38997182607477, 0.7541037912966446, 0};
Point(p15 + 17) = {23.31457474639553, 0.6310669396174888, 0};
Point(p15 + 18) = {23.25935313395408, 0.4977501739252355, 0};
Point(p15 + 19) = {23.22566672811876, 0.3574361954442061, 0};
Point(p15 + 20) = {23.214345, 0.2135800000000001, 0};
Point(p15 + 21) = {23.22566672811876, 0.06972380455579402, 0};
Point(p15 + 22) = {23.25935313395408, -0.0705901739252357, 0};
Point(p15 + 23) = {23.31457474639552, -0.2039069396174883, 0};
Point(p15 + 24) = {23.38997182607477, -0.3269437912966444, 0};
Point(p15 + 25) = {23.48368784666154, -0.436671153338462, 0};
Point(p15 + 26) = {23.59341520870336, -0.5303871739252354, 0};
Point(p15 + 27) = {23.71645206038251, -0.605784253604478, 0};
Point(p15 + 28) = {23.84976882607477, -0.6610058660459255, 0};
Point(p15 + 29) = {23.99008280455579, -0.694692271881245, 0};
Point(p15 + 30) = {24.133939, -0.706014, 0};
Point(p15 + 31) = {24.27779519544421, -0.6946922718812452, 0};
Point(p15 + 32) = {24.41810917392524, -0.6610058660459256, 0};
Point(p15 + 33) = {24.55142593961749, -0.6057842536044781, 0};
Point(p15 + 34) = {24.67446279129664, -0.5303871739252356, 0};
Point(p15 + 35) = {24.78419015333846, -0.4366711533384622, 0};
Point(p15 + 36) = {24.87790617392524, -0.3269437912966446, 0};
Point(p15 + 37) = {24.95330325360448, -0.203906939617489, 0};
Point(p15 + 38) = {25.00852486604593, -0.07059017392523559, 0};
Point(p15 + 39) = {25.04221127188125, 0.06972380455579369, 0};
Spline(15) = {10, p15 + 1, p15 + 2, p15 + 3, p15 + 4, p15 + 5, p15 + 6, p15 + 7, p15 + 8, p15 + 9, p15 + 10, p15 + 11, p15 + 12, p15 + 13, p15 + 14, p15 + 15, p15 + 16, p15 + 17, p15 + 18, p15 + 19, p15 + 20, p15 + 21, p15 + 22, p15 + 23, p15 + 24, p15 + 25, p15 + 26, p15 + 27, p15 + 28, p15 + 29, p15 + 30, p15 + 31, p15 + 32, p15 + 33, p15 + 34, p15 + 35, p15 + 36, p15 + 37, p15 + 38, p15 + 39, 10};
p16 = newp;
Point(p16 + 1) = {21.64725743256471, -1.335498410139504, 0.1};
Point(p16 + 2) = {21.61388987012809, -1.196512509993804, 0.1};
Point(p16 + 3) = {21.55919093281794, -1.064457593692244, 0.1};
Point(p16 + 4) = {21.4845074900062, -0.942585291539309, 0.1};
Point(p16 + 5) = {21.39167849591502, -0.8338965040849857, 0.1};
Point(p16 + 6) = {21.28298970846069, -0.7410675099938041, 0.1};
Point(p16 + 7) = {21.16111740630776, -0.6663840671820576, 0.1};
Point(p16 + 8) = {21.0290624900062, -0.6116851298719075, 0.1};
Point(p16 + 9) = {20.8900765898605, -0.5783175674352948, 0.1};
Point(p16 + 10) = {20.747582, -0.5671029999999999, 0.1};
Point(p16 + 11) = {20.6050874101395, -0.5783175674352949, 0.1};
Point(p16 + 12) = {20.46610150999381, -0.6116851298719074, 0.1};
Point(p16 + 13) = {20.33404659369225, -0.6663840671820574, 0.1};
Point(p16 + 14) = {20.21217429153931, -0.741067509993804, 0.1};
Point(p16 + 15) = {20.10348550408499, -0.8338965040849856, 0.1};
Point(p16 + 16) = {20.0106565099938, -0.9425852915393089, 0.1};
Point(p16 + 17) = {19.93597306718206, -1.064457593692244, 0.1};
Point(p16 + 18) = {19.88127412987191, -1.196512509993804, 0.1};
Point(p16 + 19) = {19.8479065674353, -1.335498410139504, 0.1};
Point(p16 + 20) = {19.836692, -1.477993, 0.1};
Point(p16 + 21) = {19.8479065674353, -1.620487589860496, 0.1};
Point(p16 + 22) = {19.88127412987191, -1.759473490006196, 0.1};
Point(p16 + 23) = {19.93597306718206, -1.891528406307755, 0.1};
Point(p16 + 24) = {20.0106565099938, -2.013400708460691, 0.1};
Point(p16 + 25) = {20.10348550408499, -2.122089495915014, 0.1};
Point(p16 + 26) = {20.21217429153931, -2.214918490006196, 0.1};
Point(p16 + 27) = {20.33404659369225, -2.289601932817942, 0.1};
Point(p16 + 28) = {20.46610150999381, -2.344300870128092, 0.1};
Point(p16 + 29) = {20.6050874101395, -2.377668432564705, 0.1};
Point(p16 + 30) = {20.747582, -2.388883, 0.1};
Point(p16 + 31) = {20.8900765898605, -2.377668432564705, 0.1};
Point(p16 + 32) = {21.0290624900062, -2.344300870128092, 0.1};
Point(p16 + 33) = {21.16111740630776, -2.289601932817942, 0.1};
Point(p16 + 34) = {21.28298970846069, -2.214918490006196, 0.1};
Point(p16 + 35) = {21.39167849591502, -2.122089495915014, 0.1};
Point(p16 + 36) = {21.4845074900062, -2.013400708460691, 0.1};
Point(p16 + 37) = {21.55919093281794, -1.891528406307756, 0.1};
Point(p16 + 38) = {21.61388987012809, -1.759473490006196, 0.1};
Point(p16 + 39) = {21.64725743256471, -1.620487589860496, 0.1};
Spline(16) = {11, p16 + 1, p16 + 2, p16 + 3, p16 + 4, p16 + 5, p16 + 6, p16 + 7, p16 + 8, p16 + 9, p16 + 10, p16 + 11, p16 + 12, p16 + 13, p16 + 14, p16 + 15, p16 + 16, p16 + 17, p16 + 18, p16 + 19, p16 + 20, p16 + 21, p16 + 22, p16 + 23, p16 + 24, p16 + 25, p16 + 26, p16 + 27, p16 + 28, p16 + 29, p16 + 30, p16 + 31, p16 + 32, p16 + 33, p16 + 34, p16 + 35, p16 + 36, p16 + 37, p16 + 38, p16 + 39, 11};
Line(17) = {12, 11};
p18 = newp;
Point(p18 + 1) = {21.64725743256471, -1.335498410139504, 0};
Point(p18 + 2) = {21.61388987012809, -1.196512509993804, 0};
Point(p18 + 3) = {21.55919093281794, -1.064457593692244, 0};
Point(p18 + 4) = {21.4845074900062, -0.942585291539309, 0};
Point(p18 + 5) = {21.39167849591502, -0.8338965040849857, 0};
Point(p18 + 6) = {21.28298970846069, -0.7410675099938041, 0};
Point(p18 + 7) = {21.16111740630776, -0.6663840671820576, 0};
Point(p18 + 8) = {21.0290624900062, -0.6116851298719075, 0};
Point(p18 + 9) = {20.8900765898605, -0.5783175674352948, 0};
Point(p18 + 10) = {20.747582, -0.5671029999999999, 0};
Point(p18 + 11) = {20.6050874101395, -0.5783175674352949, 0};
Point(p18 + 12) = {20.46610150999381, -0.6116851298719074, 0};
Point(p18 + 13) = {20.33404659369225, -0.6663840671820574, 0};
Point(p18 + 14) = {20.21217429153931, -0.741067509993804, 0};
Point(p18 + 15) = {20.10348550408499, -0.8338965040849856, 0};
Point(p18 + 16) = {20.0106565099938, -0.9425852915393089, 0};
Point(p18 + 17) = {19.93597306718206, -1.064457593692244, 0};
Point(p18 + 18) = {19.88127412987191, -1.196512509993804, 0};
Point(p18 + 19) = {19.8479065674353, -1.335498410139504, 0};
Point(p18 + 20) = {19.836692, -1.477993, 0};
Point(p18 + 21) = {19.8479065674353, -1.620487589860496, 0};
Point(p18 + 22) = {19.88127412987191, -1.759473490006196, 0};
Point(p18 + 23) = {19.93597306718206, -1.891528406307755, 0};
Point(p18 + 24) = {20.0106565099938, -2.013400708460691, 0};
Point(p18 + 25) = {20.10348550408499, -2.122089495915014, 0};
Point(p18 + 26) = {20.21217429153931, -2.214918490006196, 0};
Point(p18 + 27) = {20.33404659369225, -2.289601932817942, 0};
Point(p18 + 28) = {20.46610150999381, -2.344300870128092, 0};
Point(p18 + 29) = {20.6050874101395, -2.377668432564705, 0};
Point(p18 + 30) = {20.747582, -2.388883, 0};
Point(p18 + 31) = {20.8900765898605, -2.377668432564705, 0};
Point(p18 + 32) = {21.0290624900062, -2.344300870128092, 0};
Point(p18 + 33) = {21.16111740630776, -2.289601932817942, 0};
Point(p18 + 34) = {21.28298970846069, -2.214918490006196, 0};
Point(p18 + 35) = {21.39167849591502, -2.122089495915014, 0};
Point(p18 + 36) = {21.4845074900062, -2.013400708460691, 0};
Point(p18 + 37) = {21.55919093281794, -1.891528406307756, 0};
Point(p18 + 38) = {21.61388987012809, -1.759473490006196, 0};
Point(p18 + 39) = {21.64725743256471, -1.620487589860496, 0};
Spline(18) = {12, p18 + 1, p18 + 2, p18 + 3, p18 + 4, p18 + 5, p18 + 6, p18 + 7, p18 + 8, p18 + 9, p18 + 10, p18 + 11, p18 + 12, p18 + 13, p18 + 14, p18 + 15, p18 + 16, p18 + 17, p18 + 18, p18 + 19, p18 + 20, p18 + 21, p18 + 22, p18 + 23, p18 + 24, p18 + 25, p18 + 26, p18 + 27, p18 + 28, p18 + 29, p18 + 30, p18 + 31, p18 + 32, p18 + 33, p18 + 34, p18 + 35, p18 + 36, p18 + 37, p18 + 38, p18 + 39, 12};
Line(19) = {14, 13};
Line(20) = {13, 15};
Line(21) = {16, 15};
Line(22) = {14, 16};
Line(23) = {14, 17};
Line(24) = {17, 18};
Line(25) = {13, 18};
Line(26) = {15, 19};
Line(27) = {18, 19};
Line(28) = {16, 20};
Line(29) = {20, 19};
Line(30) = {17, 20};
Curve Loop(7) = {-13, -14, 15, 14};
Surface(7) = {7};
Curve Loop(8) = {13};
Plane Surface(8) = {8};
Curve Loop(9) = {15};
Plane Surface(9) = {9};
Curve Loop(10) = {-16, -17, 18, 17};
Surface(10) = {10};
Curve Loop(11) = {16};
Plane Surface(11) = {11};
Curve Loop(12) = {18};
Plane Surface(12) = {12};
Curve Loop(13) = {-19, 22, 21, -20};
Plane Surface(13) = {13};
Curve Loop(14) = {-23, 19, 25, -24};
Plane Surface(14) = {14};
Curve Loop(15) = {-20, 25, 27, -26};
Plane Surface(15) = {15};
Curve Loop(16) = {-28, 21, 26, -29};
Plane Surface(16) = {16};
Curve Loop(17) = {-22, 23, 30, -28, -18, -15};
Plane Surface(17) = {17};
Curve Loop(18) = {-24, 30, 29, -27};
Plane Surface(18) = {18};
Surface Loop(1) = {13, 14, 15, 16, 17, 18, 10, 7, 11, 8};
Volume(1) = {1};
Surface Loop(2) = {7, 8, 9};
Volume(2) = {2};
Surface Loop(3) = {10, 11, 12};
Volume(3) = {3};
Physical Surface("WALLS") = {13, 18};
Physical Surface("LOAD") = {8, 11};
Physical Surface("BORDER") = {7, 9, 10, 12, 14, 15, 16, 17};
Physical Volume("SOLID") = {1, 2, 3};
