cl__1 = 0.060677;
cl__2 = 0.111198;
cl__3 = 0.463482;
cl__4 = 0.316678;
cl__5 = 4.347622;
cl__6 = 4.002456;
Point(9) = {9.946647, 2.402424, 0.1, cl__1};
Point(10) = {9.946647, 2.402424, 0, cl__1};
Point(11) = {7.41415, 2.25902, 0.1, cl__2};
Point(12) = {7.41415, 2.25902, 0, cl__2};
Point(13) = {0.880132, -3.889715, 1, cl__3};
Point(14) = {0.880132, -3.889715, 0, cl__3};
Point(15) = {0.880132, 4.717796000000001, 1, cl__4};
Point(16) = {0.880132, 4.717796000000001, 0, cl__4};
Point(17) = {34.112518, -3.889715, 0, cl__5};
Point(18) = {34.112518, -3.889715, 1, cl__5};
Point(19) = {34.112518, 4.717796000000001, 1, cl__6};
Point(20) = {34.112518, 4.717796000000001, 0, cl__6};
p13 = newp;
Point(p13 + 1) = {9.939176642111253, 2.497343896786926, 0.1};
Point(p13 + 2) = {9.916949513448927, 2.589926550693881, 0.1};
Point(p13 + 3) = {9.8805129196883, 2.677892269517464, 0.1};
Point(p13 + 4) = {9.830764050693881, 2.759075045318756, 0.1};
Point(p13 + 5) = {9.768927888727342, 2.831475888727343, 0.1};
Point(p13 + 6) = {9.696527045318756, 2.893312050693881, 0.1};
Point(p13 + 7) = {9.615344269517465, 2.9430609196883, 0.1};
Point(p13 + 8) = {9.527378550693882, 2.979497513448926, 0.1};
Point(p13 + 9) = {9.434795896786927, 3.001724642111252, 0.1};
Point(p13 + 10) = {9.339876, 3.009195, 0.1};
Point(p13 + 11) = {9.244956103213074, 3.001724642111252, 0.1};
Point(p13 + 12) = {9.152373449306118, 2.979497513448926, 0.1};
Point(p13 + 13) = {9.064407730482536, 2.9430609196883, 0.1};
Point(p13 + 14) = {8.983224954681244, 2.893312050693881, 0.1};
Point(p13 + 15) = {8.910824111272658, 2.831475888727343, 0.1};
Point(p13 + 16) = {8.848987949306119, 2.759075045318756, 0.1};
Point(p13 + 17) = {8.7992390803117, 2.677892269517464, 0.1};
Point(p13 + 18) = {8.762802486551074, 2.589926550693881, 0.1};
Point(p13 + 19) = {8.740575357888748, 2.497343896786926, 0.1};
Point(p13 + 20) = {8.733105, 2.402424, 0.1};
Point(p13 + 21) = {8.740575357888748, 2.307504103213074, 0.1};
Point(p13 + 22) = {8.762802486551074, 2.214921449306118, 0.1};
Point(p13 + 23) = {8.7992390803117, 2.126955730482536, 0.1};
Point(p13 + 24) = {8.848987949306119, 2.045772954681244, 0.1};
Point(p13 + 25) = {8.910824111272657, 1.973372111272657, 0.1};
Point(p13 + 26) = {8.983224954681244, 1.911535949306119, 0.1};
Point(p13 + 27) = {9.064407730482536, 1.8617870803117, 0.1};
Point(p13 + 28) = {9.152373449306118, 1.825350486551073, 0.1};
Point(p13 + 29) = {9.244956103213074, 1.803123357888748, 0.1};
Point(p13 + 30) = {9.339876, 1.795653, 0.1};
Point(p13 + 31) = {9.434795896786927, 1.803123357888748, 0.1};
Point(p13 + 32) = {9.527378550693882, 1.825350486551073, 0.1};
Point(p13 + 33) = {9.615344269517465, 1.8617870803117, 0.1};
Point(p13 + 34) = {9.696527045318756, 1.911535949306119, 0.1};
Point(p13 + 35) = {9.768927888727342, 1.973372111272657, 0.1};
Point(p13 + 36) = {9.830764050693881, 2.045772954681244, 0.1};
Point(p13 + 37) = {9.8805129196883, 2.126955730482536, 0.1};
Point(p13 + 38) = {9.916949513448927, 2.214921449306118, 0.1};
Point(p13 + 39) = {9.939176642111253, 2.307504103213074, 0.1};
Spline(13) = {9, p13 + 1, p13 + 2, p13 + 3, p13 + 4, p13 + 5, p13 + 6, p13 + 7, p13 + 8, p13 + 9, p13 + 10, p13 + 11, p13 + 12, p13 + 13, p13 + 14, p13 + 15, p13 + 16, p13 + 17, p13 + 18, p13 + 19, p13 + 20, p13 + 21, p13 + 22, p13 + 23, p13 + 24, p13 + 25, p13 + 26, p13 + 27, p13 + 28, p13 + 29, p13 + 30, p13 + 31, p13 + 32, p13 + 33, p13 + 34, p13 + 35, p13 + 36, p13 + 37, p13 + 38, p13 + 39, 9};
Line(14) = {10, 9};
p15 = newp;
Point(p15 + 1) = {9.939176642111253, 2.497343896786926, 0};
Point(p15 + 2) = {9.916949513448927, 2.589926550693881, 0};
Point(p15 + 3) = {9.8805129196883, 2.677892269517464, 0};
Point(p15 + 4) = {9.830764050693881, 2.759075045318756, 0};
Point(p15 + 5) = {9.768927888727342, 2.831475888727343, 0};
Point(p15 + 6) = {9.696527045318756, 2.893312050693881, 0};
Point(p15 + 7) = {9.615344269517465, 2.9430609196883, 0};
Point(p15 + 8) = {9.527378550693882, 2.979497513448926, 0};
Point(p15 + 9) = {9.434795896786927, 3.001724642111252, 0};
Point(p15 + 10) = {9.339876, 3.009195, 0};
Point(p15 + 11) = {9.244956103213074, 3.001724642111252, 0};
Point(p15 + 12) = {9.152373449306118, 2.979497513448926, 0};
Point(p15 + 13) = {9.064407730482536, 2.9430609196883, 0};
Point(p15 + 14) = {8.983224954681244, 2.893312050693881, 0};
Point(p15 + 15) = {8.910824111272658, 2.831475888727343, 0};
Point(p15 + 16) = {8.848987949306119, 2.759075045318756, 0};
Point(p15 + 17) = {8.7992390803117, 2.677892269517464, 0};
Point(p15 + 18) = {8.762802486551074, 2.589926550693881, 0};
Point(p15 + 19) = {8.740575357888748, 2.497343896786926, 0};
Point(p15 + 20) = {8.733105, 2.402424, 0};
Point(p15 + 21) = {8.740575357888748, 2.307504103213074, 0};
Point(p15 + 22) = {8.762802486551074, 2.214921449306118, 0};
Point(p15 + 23) = {8.7992390803117, 2.126955730482536, 0};
Point(p15 + 24) = {8.848987949306119, 2.045772954681244, 0};
Point(p15 + 25) = {8.910824111272657, 1.973372111272657, 0};
Point(p15 + 26) = {8.983224954681244, 1.911535949306119, 0};
Point(p15 + 27) = {9.064407730482536, 1.8617870803117, 0};
Point(p15 + 28) = {9.152373449306118, 1.825350486551073, 0};
Point(p15 + 29) = {9.244956103213074, 1.803123357888748, 0};
Point(p15 + 30) = {9.339876, 1.795653, 0};
Point(p15 + 31) = {9.434795896786927, 1.803123357888748, 0};
Point(p15 + 32) = {9.527378550693882, 1.825350486551073, 0};
Point(p15 + 33) = {9.615344269517465, 1.8617870803117, 0};
Point(p15 + 34) = {9.696527045318756, 1.911535949306119, 0};
Point(p15 + 35) = {9.768927888727342, 1.973372111272657, 0};
Point(p15 + 36) = {9.830764050693881, 2.045772954681244, 0};
Point(p15 + 37) = {9.8805129196883, 2.126955730482536, 0};
Point(p15 + 38) = {9.916949513448927, 2.214921449306118, 0};
Point(p15 + 39) = {9.939176642111253, 2.307504103213074, 0};
Spline(15) = {10, p15 + 1, p15 + 2, p15 + 3, p15 + 4, p15 + 5, p15 + 6, p15 + 7, p15 + 8, p15 + 9, p15 + 10, p15 + 11, p15 + 12, p15 + 13, p15 + 14, p15 + 15, p15 + 16, p15 + 17, p15 + 18, p15 + 19, p15 + 20, p15 + 21, p15 + 22, p15 + 23, p15 + 24, p15 + 25, p15 + 26, p15 + 27, p15 + 28, p15 + 29, p15 + 30, p15 + 31, p15 + 32, p15 + 33, p15 + 34, p15 + 35, p15 + 36, p15 + 37, p15 + 38, p15 + 39, 10};
p16 = newp;
Point(p16 + 1) = {7.400459656351662, 2.432972309304366, 0.1};
Point(p16 + 2) = {7.359725727102918, 2.602641335439043, 0.1};
Point(p16 + 3) = {7.29295121678003, 2.763849263881381, 0.1};
Point(p16 + 4) = {7.201780335439043, 2.912626620414689, 0.1};
Point(p16 + 5) = {7.088458012757379, 3.045310012757379, 0.1};
Point(p16 + 6) = {6.955774620414689, 3.158632335439043, 0.1};
Point(p16 + 7) = {6.806997263881381, 3.249803216780029, 0.1};
Point(p16 + 8) = {6.645789335439042, 3.316577727102918, 0.1};
Point(p16 + 9) = {6.476120309304366, 3.357311656351663, 0.1};
Point(p16 + 10) = {6.302168, 3.371002, 0.1};
Point(p16 + 11) = {6.128215690695634, 3.357311656351663, 0.1};
Point(p16 + 12) = {5.958546664560957, 3.316577727102918, 0.1};
Point(p16 + 13) = {5.797338736118619, 3.24980321678003, 0.1};
Point(p16 + 14) = {5.648561379585312, 3.158632335439043, 0.1};
Point(p16 + 15) = {5.515877987242621, 3.04531001275738, 0.1};
Point(p16 + 16) = {5.402555664560957, 2.912626620414689, 0.1};
Point(p16 + 17) = {5.31138478321997, 2.763849263881381, 0.1};
Point(p16 + 18) = {5.244610272897082, 2.602641335439043, 0.1};
Point(p16 + 19) = {5.203876343648338, 2.432972309304366, 0.1};
Point(p16 + 20) = {5.190186, 2.25902, 0.1};
Point(p16 + 21) = {5.203876343648338, 2.085067690695634, 0.1};
Point(p16 + 22) = {5.244610272897082, 1.915398664560957, 0.1};
Point(p16 + 23) = {5.31138478321997, 1.75419073611862, 0.1};
Point(p16 + 24) = {5.402555664560957, 1.605413379585311, 0.1};
Point(p16 + 25) = {5.515877987242621, 1.472729987242621, 0.1};
Point(p16 + 26) = {5.648561379585311, 1.359407664560957, 0.1};
Point(p16 + 27) = {5.797338736118619, 1.268236783219971, 0.1};
Point(p16 + 28) = {5.958546664560957, 1.201462272897083, 0.1};
Point(p16 + 29) = {6.128215690695634, 1.160728343648338, 0.1};
Point(p16 + 30) = {6.302168, 1.147038, 0.1};
Point(p16 + 31) = {6.476120309304366, 1.160728343648338, 0.1};
Point(p16 + 32) = {6.645789335439042, 1.201462272897083, 0.1};
Point(p16 + 33) = {6.806997263881381, 1.26823678321997, 0.1};
Point(p16 + 34) = {6.955774620414688, 1.359407664560957, 0.1};
Point(p16 + 35) = {7.088458012757379, 1.47272998724262, 0.1};
Point(p16 + 36) = {7.201780335439043, 1.605413379585311, 0.1};
Point(p16 + 37) = {7.29295121678003, 1.754190736118619, 0.1};
Point(p16 + 38) = {7.359725727102918, 1.915398664560957, 0.1};
Point(p16 + 39) = {7.400459656351662, 2.085067690695634, 0.1};
Spline(16) = {11, p16 + 1, p16 + 2, p16 + 3, p16 + 4, p16 + 5, p16 + 6, p16 + 7, p16 + 8, p16 + 9, p16 + 10, p16 + 11, p16 + 12, p16 + 13, p16 + 14, p16 + 15, p16 + 16, p16 + 17, p16 + 18, p16 + 19, p16 + 20, p16 + 21, p16 + 22, p16 + 23, p16 + 24, p16 + 25, p16 + 26, p16 + 27, p16 + 28, p16 + 29, p16 + 30, p16 + 31, p16 + 32, p16 + 33, p16 + 34, p16 + 35, p16 + 36, p16 + 37, p16 + 38, p16 + 39, 11};
Line(17) = {12, 11};
p18 = newp;
Point(p18 + 1) = {7.400459656351662, 2.432972309304366, 0};
Point(p18 + 2) = {7.359725727102918, 2.602641335439043, 0};
Point(p18 + 3) = {7.29295121678003, 2.763849263881381, 0};
Point(p18 + 4) = {7.201780335439043, 2.912626620414689, 0};
Point(p18 + 5) = {7.088458012757379, 3.045310012757379, 0};
Point(p18 + 6) = {6.955774620414689, 3.158632335439043, 0};
Point(p18 + 7) = {6.806997263881381, 3.249803216780029, 0};
Point(p18 + 8) = {6.645789335439042, 3.316577727102918, 0};
Point(p18 + 9) = {6.476120309304366, 3.357311656351663, 0};
Point(p18 + 10) = {6.302168, 3.371002, 0};
Point(p18 + 11) = {6.128215690695634, 3.357311656351663, 0};
Point(p18 + 12) = {5.958546664560957, 3.316577727102918, 0};
Point(p18 + 13) = {5.797338736118619, 3.24980321678003, 0};
Point(p18 + 14) = {5.648561379585312, 3.158632335439043, 0};
Point(p18 + 15) = {5.515877987242621, 3.04531001275738, 0};
Point(p18 + 16) = {5.402555664560957, 2.912626620414689, 0};
Point(p18 + 17) = {5.31138478321997, 2.763849263881381, 0};
Point(p18 + 18) = {5.244610272897082, 2.602641335439043, 0};
Point(p18 + 19) = {5.203876343648338, 2.432972309304366, 0};
Point(p18 + 20) = {5.190186, 2.25902, 0};
Point(p18 + 21) = {5.203876343648338, 2.085067690695634, 0};
Point(p18 + 22) = {5.244610272897082, 1.915398664560957, 0};
Point(p18 + 23) = {5.31138478321997, 1.75419073611862, 0};
Point(p18 + 24) = {5.402555664560957, 1.605413379585311, 0};
Point(p18 + 25) = {5.515877987242621, 1.472729987242621, 0};
Point(p18 + 26) = {5.648561379585311, 1.359407664560957, 0};
Point(p18 + 27) = {5.797338736118619, 1.268236783219971, 0};
Point(p18 + 28) = {5.958546664560957, 1.201462272897083, 0};
Point(p18 + 29) = {6.128215690695634, 1.160728343648338, 0};
Point(p18 + 30) = {6.302168, 1.147038, 0};
Point(p18 + 31) = {6.476120309304366, 1.160728343648338, 0};
Point(p18 + 32) = {6.645789335439042, 1.201462272897083, 0};
Point(p18 + 33) = {6.806997263881381, 1.26823678321997, 0};
Point(p18 + 34) = {6.955774620414688, 1.359407664560957, 0};
Point(p18 + 35) = {7.088458012757379, 1.47272998724262, 0};
Point(p18 + 36) = {7.201780335439043, 1.605413379585311, 0};
Point(p18 + 37) = {7.29295121678003, 1.754190736118619, 0};
Point(p18 + 38) = {7.359725727102918, 1.915398664560957, 0};
Point(p18 + 39) = {7.400459656351662, 2.085067690695634, 0};
Spline(18) = {12, p18 + 1, p18 + 2, p18 + 3, p18 + 4, p18 + 5, p18 + 6, p18 + 7, p18 + 8, p18 + 9, p18 + 10, p18 + 11, p18 + 12, p18 + 13, p18 + 14, p18 + 15, p18 + 16, p18 + 17, p18 + 18, p18 + 19, p18 + 20, p18 + 21, p18 + 22, p18 + 23, p18 + 24, p18 + 25, p18 + 26, p18 + 27, p18 + 28, p18 + 29, p18 + 30, p18 + 31, p18 + 32, p18 + 33, p18 + 34, p18 + 35, p18 + 36, p18 + 37, p18 + 38, p18 + 39, 12};
Line(19) = {14, 13};
Line(20) = {13, 15};
Line(21) = {16, 15};
Line(22) = {14, 16};
Line(23) = {14, 17};
Line(24) = {17, 18};
Line(25) = {13, 18};
Line(26) = {15, 19};
Line(27) = {18, 19};
Line(28) = {16, 20};
Line(29) = {20, 19};
Line(30) = {17, 20};
Curve Loop(7) = {-13, -14, 15, 14};
Surface(7) = {7};
Curve Loop(8) = {13};
Plane Surface(8) = {8};
Curve Loop(9) = {15};
Plane Surface(9) = {9};
Curve Loop(10) = {-16, -17, 18, 17};
Surface(10) = {10};
Curve Loop(11) = {16};
Plane Surface(11) = {11};
Curve Loop(12) = {18};
Plane Surface(12) = {12};
Curve Loop(13) = {-19, 22, 21, -20};
Plane Surface(13) = {13};
Curve Loop(14) = {-23, 19, 25, -24};
Plane Surface(14) = {14};
Curve Loop(15) = {-20, 25, 27, -26};
Plane Surface(15) = {15};
Curve Loop(16) = {-28, 21, 26, -29};
Plane Surface(16) = {16};
Curve Loop(17) = {-22, 23, 30, -28, -18, -15};
Plane Surface(17) = {17};
Curve Loop(18) = {-24, 30, 29, -27};
Plane Surface(18) = {18};
Surface Loop(1) = {13, 14, 15, 16, 17, 18, 10, 7, 11, 8};
Volume(1) = {1};
Surface Loop(2) = {7, 8, 9};
Volume(2) = {2};
Surface Loop(3) = {10, 11, 12};
Volume(3) = {3};
Physical Surface("WALLS") = {13, 18};
Physical Surface("LOAD") = {8, 11};
Physical Surface("BORDER") = {7, 9, 10, 12, 14, 15, 16, 17};
Physical Volume("SOLID") = {1, 2, 3};
