cl__1 = 0.058508;
cl__2 = 0.063038;
cl__3 = 0.309782;
cl__4 = 0.514341;
cl__5 = 4.519807;
cl__6 = 3.529123;
Point(9) = {2.105116000000001, -0.9000810000000002, 0.1, cl__1};
Point(10) = {2.105116000000001, -0.9000810000000002, 0, cl__1};
Point(11) = {16.099299, 2.444876, 0.1, cl__2};
Point(12) = {16.099299, 2.444876, 0, cl__2};
Point(13) = {0.394322, -4.332112, 0.1, cl__3};
Point(14) = {0.394322, -4.332112, 0, cl__3};
Point(15) = {0.394322, 4.596489, 0.1, cl__4};
Point(16) = {0.394322, 4.596489, 0, cl__4};
Point(17) = {30.825451, -4.332112, 0, cl__5};
Point(18) = {30.825451, -4.332112, 0.1, cl__5};
Point(19) = {30.825451, 4.596489, 0.1, cl__6};
Point(20) = {30.825451, 4.596489, 0, cl__6};
p13 = newp;
Point(p13 + 1) = {2.097912706627063, -0.8085544796287267, 0.1};
Point(p13 + 2) = {2.076480195497452, -0.7192816459481002, 0.1};
Point(p13 + 3) = {2.041346206165606, -0.6344606924028857, 0.1};
Point(p13 + 4) = {1.9933758540519, -0.5561801923739721, 0.1};
Point(p13 + 5) = {1.933750328429844, -0.486367671570156, 0.1};
Point(p13 + 6) = {1.863937807626028, -0.4267421459481002, 0.1};
Point(p13 + 7) = {1.785657307597114, -0.378771793834394, 0.1};
Point(p13 + 8) = {1.7008363540519, -0.3436378045025479, 0.1};
Point(p13 + 9) = {1.611563520371273, -0.3222052933729374, 0.1};
Point(p13 + 10) = {1.520037, -0.315002, 0.1};
Point(p13 + 11) = {1.428510479628727, -0.3222052933729375, 0.1};
Point(p13 + 12) = {1.3392376459481, -0.3436378045025478, 0.1};
Point(p13 + 13) = {1.254416692402886, -0.3787717938343939, 0.1};
Point(p13 + 14) = {1.176136192373972, -0.4267421459481001, 0.1};
Point(p13 + 15) = {1.106323671570156, -0.4863676715701559, 0.1};
Point(p13 + 16) = {1.0466981459481, -0.556180192373972, 0.1};
Point(p13 + 17) = {0.998727793834394, -0.6344606924028857, 0.1};
Point(p13 + 18) = {0.9635938045025479, -0.7192816459481001, 0.1};
Point(p13 + 19) = {0.9421612933729375, -0.8085544796287267, 0.1};
Point(p13 + 20) = {0.9349580000000001, -0.9000809999999999, 0.1};
Point(p13 + 21) = {0.9421612933729374, -0.9916075203712732, 0.1};
Point(p13 + 22) = {0.9635938045025479, -1.0808803540519, 0.1};
Point(p13 + 23) = {0.9987277938343938, -1.165701307597114, 0.1};
Point(p13 + 24) = {1.0466981459481, -1.243981807626028, 0.1};
Point(p13 + 25) = {1.106323671570156, -1.313794328429844, 0.1};
Point(p13 + 26) = {1.176136192373972, -1.3734198540519, 0.1};
Point(p13 + 27) = {1.254416692402886, -1.421390206165606, 0.1};
Point(p13 + 28) = {1.3392376459481, -1.456524195497452, 0.1};
Point(p13 + 29) = {1.428510479628727, -1.477956706627062, 0.1};
Point(p13 + 30) = {1.520037, -1.48516, 0.1};
Point(p13 + 31) = {1.611563520371273, -1.477956706627063, 0.1};
Point(p13 + 32) = {1.7008363540519, -1.456524195497452, 0.1};
Point(p13 + 33) = {1.785657307597114, -1.421390206165606, 0.1};
Point(p13 + 34) = {1.863937807626028, -1.3734198540519, 0.1};
Point(p13 + 35) = {1.933750328429844, -1.313794328429844, 0.1};
Point(p13 + 36) = {1.9933758540519, -1.243981807626028, 0.1};
Point(p13 + 37) = {2.041346206165606, -1.165701307597114, 0.1};
Point(p13 + 38) = {2.076480195497452, -1.0808803540519, 0.1};
Point(p13 + 39) = {2.097912706627063, -0.9916075203712734, 0.1};
Spline(13) = {9, p13 + 1, p13 + 2, p13 + 3, p13 + 4, p13 + 5, p13 + 6, p13 + 7, p13 + 8, p13 + 9, p13 + 10, p13 + 11, p13 + 12, p13 + 13, p13 + 14, p13 + 15, p13 + 16, p13 + 17, p13 + 18, p13 + 19, p13 + 20, p13 + 21, p13 + 22, p13 + 23, p13 + 24, p13 + 25, p13 + 26, p13 + 27, p13 + 28, p13 + 29, p13 + 30, p13 + 31, p13 + 32, p13 + 33, p13 + 34, p13 + 35, p13 + 36, p13 + 37, p13 + 38, p13 + 39, 9};
Line(14) = {10, 9};
p15 = newp;
Point(p15 + 1) = {2.097912706627063, -0.8085544796287267, 0};
Point(p15 + 2) = {2.076480195497452, -0.7192816459481002, 0};
Point(p15 + 3) = {2.041346206165606, -0.6344606924028857, 0};
Point(p15 + 4) = {1.9933758540519, -0.5561801923739721, 0};
Point(p15 + 5) = {1.933750328429844, -0.486367671570156, 0};
Point(p15 + 6) = {1.863937807626028, -0.4267421459481002, 0};
Point(p15 + 7) = {1.785657307597114, -0.378771793834394, 0};
Point(p15 + 8) = {1.7008363540519, -0.3436378045025479, 0};
Point(p15 + 9) = {1.611563520371273, -0.3222052933729374, 0};
Point(p15 + 10) = {1.520037, -0.315002, 0};
Point(p15 + 11) = {1.428510479628727, -0.3222052933729375, 0};
Point(p15 + 12) = {1.3392376459481, -0.3436378045025478, 0};
Point(p15 + 13) = {1.254416692402886, -0.3787717938343939, 0};
Point(p15 + 14) = {1.176136192373972, -0.4267421459481001, 0};
Point(p15 + 15) = {1.106323671570156, -0.4863676715701559, 0};
Point(p15 + 16) = {1.0466981459481, -0.556180192373972, 0};
Point(p15 + 17) = {0.998727793834394, -0.6344606924028857, 0};
Point(p15 + 18) = {0.9635938045025479, -0.7192816459481001, 0};
Point(p15 + 19) = {0.9421612933729375, -0.8085544796287267, 0};
Point(p15 + 20) = {0.9349580000000001, -0.9000809999999999, 0};
Point(p15 + 21) = {0.9421612933729374, -0.9916075203712732, 0};
Point(p15 + 22) = {0.9635938045025479, -1.0808803540519, 0};
Point(p15 + 23) = {0.9987277938343938, -1.165701307597114, 0};
Point(p15 + 24) = {1.0466981459481, -1.243981807626028, 0};
Point(p15 + 25) = {1.106323671570156, -1.313794328429844, 0};
Point(p15 + 26) = {1.176136192373972, -1.3734198540519, 0};
Point(p15 + 27) = {1.254416692402886, -1.421390206165606, 0};
Point(p15 + 28) = {1.3392376459481, -1.456524195497452, 0};
Point(p15 + 29) = {1.428510479628727, -1.477956706627062, 0};
Point(p15 + 30) = {1.520037, -1.48516, 0};
Point(p15 + 31) = {1.611563520371273, -1.477956706627063, 0};
Point(p15 + 32) = {1.7008363540519, -1.456524195497452, 0};
Point(p15 + 33) = {1.785657307597114, -1.421390206165606, 0};
Point(p15 + 34) = {1.863937807626028, -1.3734198540519, 0};
Point(p15 + 35) = {1.933750328429844, -1.313794328429844, 0};
Point(p15 + 36) = {1.9933758540519, -1.243981807626028, 0};
Point(p15 + 37) = {2.041346206165606, -1.165701307597114, 0};
Point(p15 + 38) = {2.076480195497452, -1.0808803540519, 0};
Point(p15 + 39) = {2.097912706627063, -0.9916075203712734, 0};
Spline(15) = {10, p15 + 1, p15 + 2, p15 + 3, p15 + 4, p15 + 5, p15 + 6, p15 + 7, p15 + 8, p15 + 9, p15 + 10, p15 + 11, p15 + 12, p15 + 13, p15 + 14, p15 + 15, p15 + 16, p15 + 17, p15 + 18, p15 + 19, p15 + 20, p15 + 21, p15 + 22, p15 + 23, p15 + 24, p15 + 25, p15 + 26, p15 + 27, p15 + 28, p15 + 29, p15 + 30, p15 + 31, p15 + 32, p15 + 33, p15 + 34, p15 + 35, p15 + 36, p15 + 37, p15 + 38, p15 + 39, 10};
p16 = newp;
Point(p16 + 1) = {16.09153803770266, 2.543488375899735, 0.1};
Point(p16 + 2) = {16.06844625145956, 2.639672587829107, 0.1};
Point(p16 + 3) = {16.03059223768524, 2.731060261273317, 0.1};
Point(p16 + 4) = {15.97890808782911, 2.815401128413868, 0.1};
Point(p16 + 5) = {15.91466643719047, 2.89061843719047, 0.1};
Point(p16 + 6) = {15.83944912841387, 2.954860087829107, 0.1};
Point(p16 + 7) = {15.75510826127332, 3.006544237685242, 0.1};
Point(p16 + 8) = {15.66372058782911, 3.044398251459557, 0.1};
Point(p16 + 9) = {15.56753637589973, 3.06749003770266, 0.1};
Point(p16 + 10) = {15.468924, 3.075251, 0.1};
Point(p16 + 11) = {15.37031162410026, 3.06749003770266, 0.1};
Point(p16 + 12) = {15.27412741217089, 3.044398251459557, 0.1};
Point(p16 + 13) = {15.18273973872668, 3.006544237685242, 0.1};
Point(p16 + 14) = {15.09839887158613, 2.954860087829108, 0.1};
Point(p16 + 15) = {15.02318156280953, 2.89061843719047, 0.1};
Point(p16 + 16) = {14.95893991217089, 2.815401128413868, 0.1};
Point(p16 + 17) = {14.90725576231476, 2.731060261273317, 0.1};
Point(p16 + 18) = {14.86940174854044, 2.639672587829107, 0.1};
Point(p16 + 19) = {14.84630996229734, 2.543488375899735, 0.1};
Point(p16 + 20) = {14.838549, 2.444876, 0.1};
Point(p16 + 21) = {14.84630996229734, 2.346263624100264, 0.1};
Point(p16 + 22) = {14.86940174854044, 2.250079412170892, 0.1};
Point(p16 + 23) = {14.90725576231476, 2.158691738726684, 0.1};
Point(p16 + 24) = {14.95893991217089, 2.074350871586132, 0.1};
Point(p16 + 25) = {15.02318156280953, 1.99913356280953, 0.1};
Point(p16 + 26) = {15.09839887158613, 1.934891912170893, 0.1};
Point(p16 + 27) = {15.18273973872668, 1.883207762314758, 0.1};
Point(p16 + 28) = {15.27412741217089, 1.845353748540442, 0.1};
Point(p16 + 29) = {15.37031162410026, 1.82226196229734, 0.1};
Point(p16 + 30) = {15.468924, 1.814501, 0.1};
Point(p16 + 31) = {15.56753637589973, 1.82226196229734, 0.1};
Point(p16 + 32) = {15.66372058782911, 1.845353748540442, 0.1};
Point(p16 + 33) = {15.75510826127332, 1.883207762314757, 0.1};
Point(p16 + 34) = {15.83944912841387, 1.934891912170892, 0.1};
Point(p16 + 35) = {15.91466643719047, 1.99913356280953, 0.1};
Point(p16 + 36) = {15.97890808782911, 2.074350871586132, 0.1};
Point(p16 + 37) = {16.03059223768524, 2.158691738726683, 0.1};
Point(p16 + 38) = {16.06844625145956, 2.250079412170892, 0.1};
Point(p16 + 39) = {16.09153803770266, 2.346263624100264, 0.1};
Spline(16) = {11, p16 + 1, p16 + 2, p16 + 3, p16 + 4, p16 + 5, p16 + 6, p16 + 7, p16 + 8, p16 + 9, p16 + 10, p16 + 11, p16 + 12, p16 + 13, p16 + 14, p16 + 15, p16 + 16, p16 + 17, p16 + 18, p16 + 19, p16 + 20, p16 + 21, p16 + 22, p16 + 23, p16 + 24, p16 + 25, p16 + 26, p16 + 27, p16 + 28, p16 + 29, p16 + 30, p16 + 31, p16 + 32, p16 + 33, p16 + 34, p16 + 35, p16 + 36, p16 + 37, p16 + 38, p16 + 39, 11};
Line(17) = {12, 11};
p18 = newp;
Point(p18 + 1) = {16.09153803770266, 2.543488375899735, 0};
Point(p18 + 2) = {16.06844625145956, 2.639672587829107, 0};
Point(p18 + 3) = {16.03059223768524, 2.731060261273317, 0};
Point(p18 + 4) = {15.97890808782911, 2.815401128413868, 0};
Point(p18 + 5) = {15.91466643719047, 2.89061843719047, 0};
Point(p18 + 6) = {15.83944912841387, 2.954860087829107, 0};
Point(p18 + 7) = {15.75510826127332, 3.006544237685242, 0};
Point(p18 + 8) = {15.66372058782911, 3.044398251459557, 0};
Point(p18 + 9) = {15.56753637589973, 3.06749003770266, 0};
Point(p18 + 10) = {15.468924, 3.075251, 0};
Point(p18 + 11) = {15.37031162410026, 3.06749003770266, 0};
Point(p18 + 12) = {15.27412741217089, 3.044398251459557, 0};
Point(p18 + 13) = {15.18273973872668, 3.006544237685242, 0};
Point(p18 + 14) = {15.09839887158613, 2.954860087829108, 0};
Point(p18 + 15) = {15.02318156280953, 2.89061843719047, 0};
Point(p18 + 16) = {14.95893991217089, 2.815401128413868, 0};
Point(p18 + 17) = {14.90725576231476, 2.731060261273317, 0};
Point(p18 + 18) = {14.86940174854044, 2.639672587829107, 0};
Point(p18 + 19) = {14.84630996229734, 2.543488375899735, 0};
Point(p18 + 20) = {14.838549, 2.444876, 0};
Point(p18 + 21) = {14.84630996229734, 2.346263624100264, 0};
Point(p18 + 22) = {14.86940174854044, 2.250079412170892, 0};
Point(p18 + 23) = {14.90725576231476, 2.158691738726684, 0};
Point(p18 + 24) = {14.95893991217089, 2.074350871586132, 0};
Point(p18 + 25) = {15.02318156280953, 1.99913356280953, 0};
Point(p18 + 26) = {15.09839887158613, 1.934891912170893, 0};
Point(p18 + 27) = {15.18273973872668, 1.883207762314758, 0};
Point(p18 + 28) = {15.27412741217089, 1.845353748540442, 0};
Point(p18 + 29) = {15.37031162410026, 1.82226196229734, 0};
Point(p18 + 30) = {15.468924, 1.814501, 0};
Point(p18 + 31) = {15.56753637589973, 1.82226196229734, 0};
Point(p18 + 32) = {15.66372058782911, 1.845353748540442, 0};
Point(p18 + 33) = {15.75510826127332, 1.883207762314757, 0};
Point(p18 + 34) = {15.83944912841387, 1.934891912170892, 0};
Point(p18 + 35) = {15.91466643719047, 1.99913356280953, 0};
Point(p18 + 36) = {15.97890808782911, 2.074350871586132, 0};
Point(p18 + 37) = {16.03059223768524, 2.158691738726683, 0};
Point(p18 + 38) = {16.06844625145956, 2.250079412170892, 0};
Point(p18 + 39) = {16.09153803770266, 2.346263624100264, 0};
Spline(18) = {12, p18 + 1, p18 + 2, p18 + 3, p18 + 4, p18 + 5, p18 + 6, p18 + 7, p18 + 8, p18 + 9, p18 + 10, p18 + 11, p18 + 12, p18 + 13, p18 + 14, p18 + 15, p18 + 16, p18 + 17, p18 + 18, p18 + 19, p18 + 20, p18 + 21, p18 + 22, p18 + 23, p18 + 24, p18 + 25, p18 + 26, p18 + 27, p18 + 28, p18 + 29, p18 + 30, p18 + 31, p18 + 32, p18 + 33, p18 + 34, p18 + 35, p18 + 36, p18 + 37, p18 + 38, p18 + 39, 12};
Line(19) = {14, 13};
Line(20) = {13, 15};
Line(21) = {16, 15};
Line(22) = {14, 16};
Line(23) = {14, 17};
Line(24) = {17, 18};
Line(25) = {13, 18};
Line(26) = {15, 19};
Line(27) = {18, 19};
Line(28) = {16, 20};
Line(29) = {20, 19};
Line(30) = {17, 20};
Curve Loop(7) = {-13, -14, 15, 14};
Surface(7) = {7};
Curve Loop(8) = {13};
Plane Surface(8) = {8};
Curve Loop(9) = {15};
Plane Surface(9) = {9};
Curve Loop(10) = {-16, -17, 18, 17};
Surface(10) = {10};
Curve Loop(11) = {16};
Plane Surface(11) = {11};
Curve Loop(12) = {18};
Plane Surface(12) = {12};
Curve Loop(13) = {-19, 22, 21, -20};
Plane Surface(13) = {13};
Curve Loop(14) = {-23, 19, 25, -24};
Plane Surface(14) = {14};
Curve Loop(15) = {-20, 25, 27, -26, -13, -16};
Plane Surface(15) = {15};
Curve Loop(16) = {-28, 21, 26, -29};
Plane Surface(16) = {16};
Curve Loop(17) = {-22, 23, 30, -28, -15, -18};
Plane Surface(17) = {17};
Curve Loop(18) = {-24, 30, 29, -27};
Plane Surface(18) = {18};
Surface Loop(1) = {13, 14, 15, 16, 17, 18, 7, 10};
Volume(1) = {1};
Surface Loop(2) = {7, 8, 9};
Volume(2) = {2};
Surface Loop(3) = {10, 11, 12};
Volume(3) = {3};
Physical Surface("WALLS") = {13, 18};
Physical Surface("LOAD") = {8, 11};
Physical Surface("BORDER") = {7, 9, 10, 12, 14, 15, 16, 17};
Physical Volume("SOLID") = {1, 2, 3};
