cl__1 = 0.070728;
cl__2 = 0.08488;
cl__3 = 0.8794960000000001;
cl__4 = 1.264874;
cl__5 = 0.93286;
cl__6 = 1.353525;
Point(9) = {10.207921, -1.712505, 0.1, cl__1};
Point(10) = {10.207921, -1.712505, 0, cl__1};
Point(11) = {23.353891, -1.484952, 0.1, cl__2};
Point(12) = {23.353891, -1.484952, 0, cl__2};
Point(13) = {0.693313, -3.448072, 1, cl__3};
Point(14) = {0.693313, -3.448072, 0, cl__3};
Point(15) = {0.693313, 4.668226000000001, 1, cl__4};
Point(16) = {0.693313, 4.668226000000001, 0, cl__4};
Point(17) = {31.922641, -3.448072, 0, cl__5};
Point(18) = {31.922641, -3.448072, 1, cl__5};
Point(19) = {31.922641, 4.668226000000001, 1, cl__6};
Point(20) = {31.922641, 4.668226000000001, 0, cl__6};
p13 = newp;
Point(p13 + 1) = {10.19921323415945, -1.601862344435276, 0.1};
Point(p13 + 2) = {10.1733043507322, -1.493944078252476, 0.1};
Point(p13 + 3) = {10.1308323124149, -1.391407507325213, 0.1};
Point(p13 + 4) = {10.07284292174752, -1.296777422329084, 0.1};
Point(p13 + 5) = {10.00076406998406, -1.212383930015941, 0.1};
Point(p13 + 6) = {9.916370577670916, -1.140305078252476, 0.1};
Point(p13 + 7) = {9.821740492674788, -1.082315687585099, 0.1};
Point(p13 + 8) = {9.719203921747525, -1.039843649267796, 0.1};
Point(p13 + 9) = {9.611285655564725, -1.013934765840552, 0.1};
Point(p13 + 10) = {9.500643, -1.005227, 0.1};
Point(p13 + 11) = {9.390000344435276, -1.013934765840552, 0.1};
Point(p13 + 12) = {9.282082078252476, -1.039843649267796, 0.1};
Point(p13 + 13) = {9.179545507325212, -1.082315687585099, 0.1};
Point(p13 + 14) = {9.084915422329084, -1.140305078252476, 0.1};
Point(p13 + 15) = {9.000521930015941, -1.212383930015941, 0.1};
Point(p13 + 16) = {8.928443078252476, -1.296777422329084, 0.1};
Point(p13 + 17) = {8.870453687585099, -1.391407507325213, 0.1};
Point(p13 + 18) = {8.827981649267796, -1.493944078252476, 0.1};
Point(p13 + 19) = {8.802072765840553, -1.601862344435276, 0.1};
Point(p13 + 20) = {8.793365, -1.712505, 0.1};
Point(p13 + 21) = {8.802072765840553, -1.823147655564724, 0.1};
Point(p13 + 22) = {8.827981649267796, -1.931065921747524, 0.1};
Point(p13 + 23) = {8.870453687585099, -2.033602492674787, 0.1};
Point(p13 + 24) = {8.928443078252476, -2.128232577670916, 0.1};
Point(p13 + 25) = {9.000521930015941, -2.212626069984059, 0.1};
Point(p13 + 26) = {9.084915422329084, -2.284704921747524, 0.1};
Point(p13 + 27) = {9.179545507325212, -2.3426943124149, 0.1};
Point(p13 + 28) = {9.282082078252476, -2.385166350732204, 0.1};
Point(p13 + 29) = {9.390000344435276, -2.411075234159448, 0.1};
Point(p13 + 30) = {9.500643, -2.419783, 0.1};
Point(p13 + 31) = {9.611285655564725, -2.411075234159448, 0.1};
Point(p13 + 32) = {9.719203921747525, -2.385166350732204, 0.1};
Point(p13 + 33) = {9.821740492674786, -2.3426943124149, 0.1};
Point(p13 + 34) = {9.916370577670916, -2.284704921747524, 0.1};
Point(p13 + 35) = {10.00076406998406, -2.212626069984059, 0.1};
Point(p13 + 36) = {10.07284292174752, -2.128232577670916, 0.1};
Point(p13 + 37) = {10.1308323124149, -2.033602492674787, 0.1};
Point(p13 + 38) = {10.1733043507322, -1.931065921747524, 0.1};
Point(p13 + 39) = {10.19921323415945, -1.823147655564725, 0.1};
Spline(13) = {9, p13 + 1, p13 + 2, p13 + 3, p13 + 4, p13 + 5, p13 + 6, p13 + 7, p13 + 8, p13 + 9, p13 + 10, p13 + 11, p13 + 12, p13 + 13, p13 + 14, p13 + 15, p13 + 16, p13 + 17, p13 + 18, p13 + 19, p13 + 20, p13 + 21, p13 + 22, p13 + 23, p13 + 24, p13 + 25, p13 + 26, p13 + 27, p13 + 28, p13 + 29, p13 + 30, p13 + 31, p13 + 32, p13 + 33, p13 + 34, p13 + 35, p13 + 36, p13 + 37, p13 + 38, p13 + 39, 9};
Line(14) = {10, 9};
p15 = newp;
Point(p15 + 1) = {10.19921323415945, -1.601862344435276, 0};
Point(p15 + 2) = {10.1733043507322, -1.493944078252476, 0};
Point(p15 + 3) = {10.1308323124149, -1.391407507325213, 0};
Point(p15 + 4) = {10.07284292174752, -1.296777422329084, 0};
Point(p15 + 5) = {10.00076406998406, -1.212383930015941, 0};
Point(p15 + 6) = {9.916370577670916, -1.140305078252476, 0};
Point(p15 + 7) = {9.821740492674788, -1.082315687585099, 0};
Point(p15 + 8) = {9.719203921747525, -1.039843649267796, 0};
Point(p15 + 9) = {9.611285655564725, -1.013934765840552, 0};
Point(p15 + 10) = {9.500643, -1.005227, 0};
Point(p15 + 11) = {9.390000344435276, -1.013934765840552, 0};
Point(p15 + 12) = {9.282082078252476, -1.039843649267796, 0};
Point(p15 + 13) = {9.179545507325212, -1.082315687585099, 0};
Point(p15 + 14) = {9.084915422329084, -1.140305078252476, 0};
Point(p15 + 15) = {9.000521930015941, -1.212383930015941, 0};
Point(p15 + 16) = {8.928443078252476, -1.296777422329084, 0};
Point(p15 + 17) = {8.870453687585099, -1.391407507325213, 0};
Point(p15 + 18) = {8.827981649267796, -1.493944078252476, 0};
Point(p15 + 19) = {8.802072765840553, -1.601862344435276, 0};
Point(p15 + 20) = {8.793365, -1.712505, 0};
Point(p15 + 21) = {8.802072765840553, -1.823147655564724, 0};
Point(p15 + 22) = {8.827981649267796, -1.931065921747524, 0};
Point(p15 + 23) = {8.870453687585099, -2.033602492674787, 0};
Point(p15 + 24) = {8.928443078252476, -2.128232577670916, 0};
Point(p15 + 25) = {9.000521930015941, -2.212626069984059, 0};
Point(p15 + 26) = {9.084915422329084, -2.284704921747524, 0};
Point(p15 + 27) = {9.179545507325212, -2.3426943124149, 0};
Point(p15 + 28) = {9.282082078252476, -2.385166350732204, 0};
Point(p15 + 29) = {9.390000344435276, -2.411075234159448, 0};
Point(p15 + 30) = {9.500643, -2.419783, 0};
Point(p15 + 31) = {9.611285655564725, -2.411075234159448, 0};
Point(p15 + 32) = {9.719203921747525, -2.385166350732204, 0};
Point(p15 + 33) = {9.821740492674786, -2.3426943124149, 0};
Point(p15 + 34) = {9.916370577670916, -2.284704921747524, 0};
Point(p15 + 35) = {10.00076406998406, -2.212626069984059, 0};
Point(p15 + 36) = {10.07284292174752, -2.128232577670916, 0};
Point(p15 + 37) = {10.1308323124149, -2.033602492674787, 0};
Point(p15 + 38) = {10.1733043507322, -1.931065921747524, 0};
Point(p15 + 39) = {10.19921323415945, -1.823147655564725, 0};
Spline(15) = {10, p15 + 1, p15 + 2, p15 + 3, p15 + 4, p15 + 5, p15 + 6, p15 + 7, p15 + 8, p15 + 9, p15 + 10, p15 + 11, p15 + 12, p15 + 13, p15 + 14, p15 + 15, p15 + 16, p15 + 17, p15 + 18, p15 + 19, p15 + 20, p15 + 21, p15 + 22, p15 + 23, p15 + 24, p15 + 25, p15 + 26, p15 + 27, p15 + 28, p15 + 29, p15 + 30, p15 + 31, p15 + 32, p15 + 33, p15 + 34, p15 + 35, p15 + 36, p15 + 37, p15 + 38, p15 + 39, 10};
p16 = newp;
Point(p16 + 1) = {23.34344082656218, -1.352169956770457, 0.1};
Point(p16 + 2) = {23.31234762420087, -1.222657448123562, 0.1};
Point(p16 + 3) = {23.26137701075066, -1.099603501849574, 0.1};
Point(p16 + 4) = {23.19178405187644, -0.9860381144983921, 0.1};
Point(p16 + 5) = {23.10528235719148, -0.884757642808515, 0.1};
Point(p16 + 6) = {23.00400188550161, -0.7982559481235616, 0.1};
Point(p16 + 7) = {22.89043649815043, -0.7286629892493409, 0.1};
Point(p16 + 8) = {22.76738255187644, -0.6776923757991249, 0.1};
Point(p16 + 9) = {22.63787004322954, -0.6465991734378254, 0.1};
Point(p16 + 10) = {22.505088, -0.6361490000000001, 0.1};
Point(p16 + 11) = {22.37230595677046, -0.6465991734378255, 0.1};
Point(p16 + 12) = {22.24279344812356, -0.6776923757991248, 0.1};
Point(p16 + 13) = {22.11973950184957, -0.7286629892493408, 0.1};
Point(p16 + 14) = {22.00617411449839, -0.7982559481235616, 0.1};
Point(p16 + 15) = {21.90489364280852, -0.8847576428085149, 0.1};
Point(p16 + 16) = {21.81839194812356, -0.9860381144983918, 0.1};
Point(p16 + 17) = {21.74879898924934, -1.099603501849574, 0.1};
Point(p16 + 18) = {21.69782837579913, -1.222657448123561, 0.1};
Point(p16 + 19) = {21.66673517343783, -1.352169956770457, 0.1};
Point(p16 + 20) = {21.656285, -1.484952, 0.1};
Point(p16 + 21) = {21.66673517343783, -1.617734043229543, 0.1};
Point(p16 + 22) = {21.69782837579913, -1.747246551876439, 0.1};
Point(p16 + 23) = {21.74879898924934, -1.870300498150426, 0.1};
Point(p16 + 24) = {21.81839194812356, -1.983865885501608, 0.1};
Point(p16 + 25) = {21.90489364280852, -2.085146357191485, 0.1};
Point(p16 + 26) = {22.00617411449839, -2.171648051876439, 0.1};
Point(p16 + 27) = {22.11973950184957, -2.241241010750659, 0.1};
Point(p16 + 28) = {22.24279344812356, -2.292211624200875, 0.1};
Point(p16 + 29) = {22.37230595677046, -2.323304826562175, 0.1};
Point(p16 + 30) = {22.505088, -2.333755, 0.1};
Point(p16 + 31) = {22.63787004322954, -2.323304826562175, 0.1};
Point(p16 + 32) = {22.76738255187644, -2.292211624200875, 0.1};
Point(p16 + 33) = {22.89043649815043, -2.24124101075066, 0.1};
Point(p16 + 34) = {23.00400188550161, -2.171648051876439, 0.1};
Point(p16 + 35) = {23.10528235719148, -2.085146357191485, 0.1};
Point(p16 + 36) = {23.19178405187644, -1.983865885501608, 0.1};
Point(p16 + 37) = {23.26137701075066, -1.870300498150427, 0.1};
Point(p16 + 38) = {23.31234762420087, -1.747246551876439, 0.1};
Point(p16 + 39) = {23.34344082656218, -1.617734043229543, 0.1};
Spline(16) = {11, p16 + 1, p16 + 2, p16 + 3, p16 + 4, p16 + 5, p16 + 6, p16 + 7, p16 + 8, p16 + 9, p16 + 10, p16 + 11, p16 + 12, p16 + 13, p16 + 14, p16 + 15, p16 + 16, p16 + 17, p16 + 18, p16 + 19, p16 + 20, p16 + 21, p16 + 22, p16 + 23, p16 + 24, p16 + 25, p16 + 26, p16 + 27, p16 + 28, p16 + 29, p16 + 30, p16 + 31, p16 + 32, p16 + 33, p16 + 34, p16 + 35, p16 + 36, p16 + 37, p16 + 38, p16 + 39, 11};
Line(17) = {12, 11};
p18 = newp;
Point(p18 + 1) = {23.34344082656218, -1.352169956770457, 0};
Point(p18 + 2) = {23.31234762420087, -1.222657448123562, 0};
Point(p18 + 3) = {23.26137701075066, -1.099603501849574, 0};
Point(p18 + 4) = {23.19178405187644, -0.9860381144983921, 0};
Point(p18 + 5) = {23.10528235719148, -0.884757642808515, 0};
Point(p18 + 6) = {23.00400188550161, -0.7982559481235616, 0};
Point(p18 + 7) = {22.89043649815043, -0.7286629892493409, 0};
Point(p18 + 8) = {22.76738255187644, -0.6776923757991249, 0};
Point(p18 + 9) = {22.63787004322954, -0.6465991734378254, 0};
Point(p18 + 10) = {22.505088, -0.6361490000000001, 0};
Point(p18 + 11) = {22.37230595677046, -0.6465991734378255, 0};
Point(p18 + 12) = {22.24279344812356, -0.6776923757991248, 0};
Point(p18 + 13) = {22.11973950184957, -0.7286629892493408, 0};
Point(p18 + 14) = {22.00617411449839, -0.7982559481235616, 0};
Point(p18 + 15) = {21.90489364280852, -0.8847576428085149, 0};
Point(p18 + 16) = {21.81839194812356, -0.9860381144983918, 0};
Point(p18 + 17) = {21.74879898924934, -1.099603501849574, 0};
Point(p18 + 18) = {21.69782837579913, -1.222657448123561, 0};
Point(p18 + 19) = {21.66673517343783, -1.352169956770457, 0};
Point(p18 + 20) = {21.656285, -1.484952, 0};
Point(p18 + 21) = {21.66673517343783, -1.617734043229543, 0};
Point(p18 + 22) = {21.69782837579913, -1.747246551876439, 0};
Point(p18 + 23) = {21.74879898924934, -1.870300498150426, 0};
Point(p18 + 24) = {21.81839194812356, -1.983865885501608, 0};
Point(p18 + 25) = {21.90489364280852, -2.085146357191485, 0};
Point(p18 + 26) = {22.00617411449839, -2.171648051876439, 0};
Point(p18 + 27) = {22.11973950184957, -2.241241010750659, 0};
Point(p18 + 28) = {22.24279344812356, -2.292211624200875, 0};
Point(p18 + 29) = {22.37230595677046, -2.323304826562175, 0};
Point(p18 + 30) = {22.505088, -2.333755, 0};
Point(p18 + 31) = {22.63787004322954, -2.323304826562175, 0};
Point(p18 + 32) = {22.76738255187644, -2.292211624200875, 0};
Point(p18 + 33) = {22.89043649815043, -2.24124101075066, 0};
Point(p18 + 34) = {23.00400188550161, -2.171648051876439, 0};
Point(p18 + 35) = {23.10528235719148, -2.085146357191485, 0};
Point(p18 + 36) = {23.19178405187644, -1.983865885501608, 0};
Point(p18 + 37) = {23.26137701075066, -1.870300498150427, 0};
Point(p18 + 38) = {23.31234762420087, -1.747246551876439, 0};
Point(p18 + 39) = {23.34344082656218, -1.617734043229543, 0};
Spline(18) = {12, p18 + 1, p18 + 2, p18 + 3, p18 + 4, p18 + 5, p18 + 6, p18 + 7, p18 + 8, p18 + 9, p18 + 10, p18 + 11, p18 + 12, p18 + 13, p18 + 14, p18 + 15, p18 + 16, p18 + 17, p18 + 18, p18 + 19, p18 + 20, p18 + 21, p18 + 22, p18 + 23, p18 + 24, p18 + 25, p18 + 26, p18 + 27, p18 + 28, p18 + 29, p18 + 30, p18 + 31, p18 + 32, p18 + 33, p18 + 34, p18 + 35, p18 + 36, p18 + 37, p18 + 38, p18 + 39, 12};
Line(19) = {14, 13};
Line(20) = {13, 15};
Line(21) = {16, 15};
Line(22) = {14, 16};
Line(23) = {14, 17};
Line(24) = {17, 18};
Line(25) = {13, 18};
Line(26) = {15, 19};
Line(27) = {18, 19};
Line(28) = {16, 20};
Line(29) = {20, 19};
Line(30) = {17, 20};
Curve Loop(7) = {-13, -14, 15, 14};
Surface(7) = {7};
Curve Loop(8) = {13};
Plane Surface(8) = {8};
Curve Loop(9) = {15};
Plane Surface(9) = {9};
Curve Loop(10) = {-16, -17, 18, 17};
Surface(10) = {10};
Curve Loop(11) = {16};
Plane Surface(11) = {11};
Curve Loop(12) = {18};
Plane Surface(12) = {12};
Curve Loop(13) = {-19, 22, 21, -20};
Plane Surface(13) = {13};
Curve Loop(14) = {-23, 19, 25, -24};
Plane Surface(14) = {14};
Curve Loop(15) = {-20, 25, 27, -26};
Plane Surface(15) = {15};
Curve Loop(16) = {-28, 21, 26, -29};
Plane Surface(16) = {16};
Curve Loop(17) = {-22, 23, 30, -28, -15, -18};
Plane Surface(17) = {17};
Curve Loop(18) = {-24, 30, 29, -27};
Plane Surface(18) = {18};
Surface Loop(1) = {13, 14, 15, 16, 17, 18, 7, 10, 8, 11};
Volume(1) = {1};
Surface Loop(2) = {7, 8, 9};
Volume(2) = {2};
Surface Loop(3) = {10, 11, 12};
Volume(3) = {3};
Physical Surface("WALLS") = {13, 18};
Physical Surface("LOAD") = {8, 11};
Physical Surface("BORDER") = {7, 9, 10, 12, 14, 15, 16, 17};
Physical Volume("SOLID") = {1, 2, 3};
