cl__1 = 0.137412;
cl__2 = 0.072204;
cl__3 = 0.557906;
cl__4 = 0.541281;
cl__5 = 3.263887;
cl__6 = 2.84794;
Point(9) = {10.877387, 1.10769, 0.1, cl__1};
Point(10) = {10.877387, 1.10769, 0, cl__1};
Point(11) = {17.351504, 3.502556999999999, 0.1, cl__2};
Point(12) = {17.351504, 3.502556999999999, 0, cl__2};
Point(13) = {0.966268, -3.106107, 0.1, cl__3};
Point(14) = {0.966268, -3.106107, 0, cl__3};
Point(15) = {0.966268, 4.739889, 0.1, cl__4};
Point(16) = {0.966268, 4.739889, 0, cl__4};
Point(17) = {38.012592, -3.106107, 0, cl__5};
Point(18) = {38.012592, -3.106107, 0.1, cl__5};
Point(19) = {38.012592, 4.739889, 0.1, cl__6};
Point(20) = {38.012592, 4.739889, 0, cl__6};
p13 = newp;
Point(p13 + 1) = {10.86046933951357, 1.322649257797687, 0.1};
Point(p13 + 2) = {10.81013292700195, 1.53231550525952, 0.1};
Point(p13 + 3) = {10.72761721199815, 1.731526063530607, 0.1};
Point(p13 + 4) = {10.61495400525952, 1.915375707524376, 0.1};
Point(p13 + 5) = {10.47491744884372, 2.079337448843715, 0.1};
Point(p13 + 6) = {10.31095570752438, 2.21937400525952, 0.1};
Point(p13 + 7) = {10.12710606353061, 2.332037211998148, 0.1};
Point(p13 + 8) = {9.927895505259521, 2.414552927001948, 0.1};
Point(p13 + 9) = {9.718229257797688, 2.464889339513569, 0.1};
Point(p13 + 10) = {9.503270000000001, 2.481807, 0.1};
Point(p13 + 11) = {9.288310742202313, 2.464889339513569, 0.1};
Point(p13 + 12) = {9.07864449474048, 2.414552927001948, 0.1};
Point(p13 + 13) = {8.879433936469393, 2.332037211998148, 0.1};
Point(p13 + 14) = {8.695584292475624, 2.21937400525952, 0.1};
Point(p13 + 15) = {8.531622551156286, 2.079337448843715, 0.1};
Point(p13 + 16) = {8.391585994740481, 1.915375707524376, 0.1};
Point(p13 + 17) = {8.278922788001854, 1.731526063530607, 0.1};
Point(p13 + 18) = {8.196407072998053, 1.53231550525952, 0.1};
Point(p13 + 19) = {8.146070660486432, 1.322649257797687, 0.1};
Point(p13 + 20) = {8.129153000000001, 1.10769, 0.1};
Point(p13 + 21) = {8.146070660486432, 0.8927307422023133, 0.1};
Point(p13 + 22) = {8.196407072998053, 0.68306449474048, 0.1};
Point(p13 + 23) = {8.278922788001854, 0.4838539364693939, 0.1};
Point(p13 + 24) = {8.391585994740481, 0.3000042924756239, 0.1};
Point(p13 + 25) = {8.531622551156286, 0.1360425511562851, 0.1};
Point(p13 + 26) = {8.695584292475624, -0.00399400525951954, 0.1};
Point(p13 + 27) = {8.879433936469393, -0.1166572119981473, 0.1};
Point(p13 + 28) = {9.07864449474048, -0.1991729270019476, 0.1};
Point(p13 + 29) = {9.288310742202313, -0.2495093395135688, 0.1};
Point(p13 + 30) = {9.503270000000001, -0.266427, 0.1};
Point(p13 + 31) = {9.718229257797688, -0.2495093395135688, 0.1};
Point(p13 + 32) = {9.927895505259521, -0.1991729270019476, 0.1};
Point(p13 + 33) = {10.12710606353061, -0.1166572119981477, 0.1};
Point(p13 + 34) = {10.31095570752438, -0.003994005259519762, 0.1};
Point(p13 + 35) = {10.47491744884372, 0.1360425511562847, 0.1};
Point(p13 + 36) = {10.61495400525952, 0.3000042924756235, 0.1};
Point(p13 + 37) = {10.72761721199815, 0.483853936469393, 0.1};
Point(p13 + 38) = {10.81013292700195, 0.6830644947404801, 0.1};
Point(p13 + 39) = {10.86046933951357, 0.8927307422023127, 0.1};
Spline(13) = {9, p13 + 1, p13 + 2, p13 + 3, p13 + 4, p13 + 5, p13 + 6, p13 + 7, p13 + 8, p13 + 9, p13 + 10, p13 + 11, p13 + 12, p13 + 13, p13 + 14, p13 + 15, p13 + 16, p13 + 17, p13 + 18, p13 + 19, p13 + 20, p13 + 21, p13 + 22, p13 + 23, p13 + 24, p13 + 25, p13 + 26, p13 + 27, p13 + 28, p13 + 29, p13 + 30, p13 + 31, p13 + 32, p13 + 33, p13 + 34, p13 + 35, p13 + 36, p13 + 37, p13 + 38, p13 + 39, 9};
Line(14) = {10, 9};
p15 = newp;
Point(p15 + 1) = {10.86046933951357, 1.322649257797687, 0};
Point(p15 + 2) = {10.81013292700195, 1.53231550525952, 0};
Point(p15 + 3) = {10.72761721199815, 1.731526063530607, 0};
Point(p15 + 4) = {10.61495400525952, 1.915375707524376, 0};
Point(p15 + 5) = {10.47491744884372, 2.079337448843715, 0};
Point(p15 + 6) = {10.31095570752438, 2.21937400525952, 0};
Point(p15 + 7) = {10.12710606353061, 2.332037211998148, 0};
Point(p15 + 8) = {9.927895505259521, 2.414552927001948, 0};
Point(p15 + 9) = {9.718229257797688, 2.464889339513569, 0};
Point(p15 + 10) = {9.503270000000001, 2.481807, 0};
Point(p15 + 11) = {9.288310742202313, 2.464889339513569, 0};
Point(p15 + 12) = {9.07864449474048, 2.414552927001948, 0};
Point(p15 + 13) = {8.879433936469393, 2.332037211998148, 0};
Point(p15 + 14) = {8.695584292475624, 2.21937400525952, 0};
Point(p15 + 15) = {8.531622551156286, 2.079337448843715, 0};
Point(p15 + 16) = {8.391585994740481, 1.915375707524376, 0};
Point(p15 + 17) = {8.278922788001854, 1.731526063530607, 0};
Point(p15 + 18) = {8.196407072998053, 1.53231550525952, 0};
Point(p15 + 19) = {8.146070660486432, 1.322649257797687, 0};
Point(p15 + 20) = {8.129153000000001, 1.10769, 0};
Point(p15 + 21) = {8.146070660486432, 0.8927307422023133, 0};
Point(p15 + 22) = {8.196407072998053, 0.68306449474048, 0};
Point(p15 + 23) = {8.278922788001854, 0.4838539364693939, 0};
Point(p15 + 24) = {8.391585994740481, 0.3000042924756239, 0};
Point(p15 + 25) = {8.531622551156286, 0.1360425511562851, 0};
Point(p15 + 26) = {8.695584292475624, -0.00399400525951954, 0};
Point(p15 + 27) = {8.879433936469393, -0.1166572119981473, 0};
Point(p15 + 28) = {9.07864449474048, -0.1991729270019476, 0};
Point(p15 + 29) = {9.288310742202313, -0.2495093395135688, 0};
Point(p15 + 30) = {9.503270000000001, -0.266427, 0};
Point(p15 + 31) = {9.718229257797688, -0.2495093395135688, 0};
Point(p15 + 32) = {9.927895505259521, -0.1991729270019476, 0};
Point(p15 + 33) = {10.12710606353061, -0.1166572119981477, 0};
Point(p15 + 34) = {10.31095570752438, -0.003994005259519762, 0};
Point(p15 + 35) = {10.47491744884372, 0.1360425511562847, 0};
Point(p15 + 36) = {10.61495400525952, 0.3000042924756235, 0};
Point(p15 + 37) = {10.72761721199815, 0.483853936469393, 0};
Point(p15 + 38) = {10.81013292700195, 0.6830644947404801, 0};
Point(p15 + 39) = {10.86046933951357, 0.8927307422023127, 0};
Spline(15) = {10, p15 + 1, p15 + 2, p15 + 3, p15 + 4, p15 + 5, p15 + 6, p15 + 7, p15 + 8, p15 + 9, p15 + 10, p15 + 11, p15 + 12, p15 + 13, p15 + 14, p15 + 15, p15 + 16, p15 + 17, p15 + 18, p15 + 19, p15 + 20, p15 + 21, p15 + 22, p15 + 23, p15 + 24, p15 + 25, p15 + 26, p15 + 27, p15 + 28, p15 + 29, p15 + 30, p15 + 31, p15 + 32, p15 + 33, p15 + 34, p15 + 35, p15 + 36, p15 + 37, p15 + 38, p15 + 39, 10};
p16 = newp;
Point(p16 + 1) = {17.34261451406663, 3.615508628268718, 0.1};
Point(p16 + 2) = {17.31616494491272, 3.725679012584498, 0.1};
Point(p16 + 3) = {17.27280656871192, 3.830355392450943, 0.1};
Point(p16 + 4) = {17.2136070125845, 3.926960287994753, 0.1};
Point(p16 + 5) = {17.14002396607437, 4.013114966074372, 0.1};
Point(p16 + 6) = {17.05386928799475, 4.086698012584498, 0.1};
Point(p16 + 7) = {16.95726439245094, 4.145897568711921, 0.1};
Point(p16 + 8) = {16.8525880125845, 4.18925594491272, 0.1};
Point(p16 + 9) = {16.74241762826872, 4.215705514066632, 0.1};
Point(p16 + 10) = {16.629466, 4.224595, 0.1};
Point(p16 + 11) = {16.51651437173128, 4.215705514066632, 0.1};
Point(p16 + 12) = {16.4063439874155, 4.18925594491272, 0.1};
Point(p16 + 13) = {16.30166760754906, 4.145897568711921, 0.1};
Point(p16 + 14) = {16.20506271200525, 4.086698012584498, 0.1};
Point(p16 + 15) = {16.11890803392563, 4.013114966074372, 0.1};
Point(p16 + 16) = {16.0453249874155, 3.926960287994753, 0.1};
Point(p16 + 17) = {15.98612543128808, 3.830355392450943, 0.1};
Point(p16 + 18) = {15.94276705508728, 3.725679012584498, 0.1};
Point(p16 + 19) = {15.91631748593337, 3.615508628268718, 0.1};
Point(p16 + 20) = {15.907428, 3.502557, 0.1};
Point(p16 + 21) = {15.91631748593337, 3.389605371731282, 0.1};
Point(p16 + 22) = {15.94276705508728, 3.279434987415502, 0.1};
Point(p16 + 23) = {15.98612543128808, 3.174758607549057, 0.1};
Point(p16 + 24) = {16.0453249874155, 3.078153712005247, 0.1};
Point(p16 + 25) = {16.11890803392563, 2.991999033925627, 0.1};
Point(p16 + 26) = {16.20506271200525, 2.918415987415502, 0.1};
Point(p16 + 27) = {16.30166760754906, 2.859216431288079, 0.1};
Point(p16 + 28) = {16.4063439874155, 2.81585805508728, 0.1};
Point(p16 + 29) = {16.51651437173128, 2.789408485933368, 0.1};
Point(p16 + 30) = {16.629466, 2.780519, 0.1};
Point(p16 + 31) = {16.74241762826872, 2.789408485933368, 0.1};
Point(p16 + 32) = {16.8525880125845, 2.81585805508728, 0.1};
Point(p16 + 33) = {16.95726439245094, 2.859216431288079, 0.1};
Point(p16 + 34) = {17.05386928799475, 2.918415987415502, 0.1};
Point(p16 + 35) = {17.14002396607437, 2.991999033925627, 0.1};
Point(p16 + 36) = {17.2136070125845, 3.078153712005247, 0.1};
Point(p16 + 37) = {17.27280656871192, 3.174758607549057, 0.1};
Point(p16 + 38) = {17.31616494491272, 3.279434987415502, 0.1};
Point(p16 + 39) = {17.34261451406663, 3.389605371731282, 0.1};
Spline(16) = {11, p16 + 1, p16 + 2, p16 + 3, p16 + 4, p16 + 5, p16 + 6, p16 + 7, p16 + 8, p16 + 9, p16 + 10, p16 + 11, p16 + 12, p16 + 13, p16 + 14, p16 + 15, p16 + 16, p16 + 17, p16 + 18, p16 + 19, p16 + 20, p16 + 21, p16 + 22, p16 + 23, p16 + 24, p16 + 25, p16 + 26, p16 + 27, p16 + 28, p16 + 29, p16 + 30, p16 + 31, p16 + 32, p16 + 33, p16 + 34, p16 + 35, p16 + 36, p16 + 37, p16 + 38, p16 + 39, 11};
Line(17) = {12, 11};
p18 = newp;
Point(p18 + 1) = {17.34261451406663, 3.615508628268718, 0};
Point(p18 + 2) = {17.31616494491272, 3.725679012584498, 0};
Point(p18 + 3) = {17.27280656871192, 3.830355392450943, 0};
Point(p18 + 4) = {17.2136070125845, 3.926960287994753, 0};
Point(p18 + 5) = {17.14002396607437, 4.013114966074372, 0};
Point(p18 + 6) = {17.05386928799475, 4.086698012584498, 0};
Point(p18 + 7) = {16.95726439245094, 4.145897568711921, 0};
Point(p18 + 8) = {16.8525880125845, 4.18925594491272, 0};
Point(p18 + 9) = {16.74241762826872, 4.215705514066632, 0};
Point(p18 + 10) = {16.629466, 4.224595, 0};
Point(p18 + 11) = {16.51651437173128, 4.215705514066632, 0};
Point(p18 + 12) = {16.4063439874155, 4.18925594491272, 0};
Point(p18 + 13) = {16.30166760754906, 4.145897568711921, 0};
Point(p18 + 14) = {16.20506271200525, 4.086698012584498, 0};
Point(p18 + 15) = {16.11890803392563, 4.013114966074372, 0};
Point(p18 + 16) = {16.0453249874155, 3.926960287994753, 0};
Point(p18 + 17) = {15.98612543128808, 3.830355392450943, 0};
Point(p18 + 18) = {15.94276705508728, 3.725679012584498, 0};
Point(p18 + 19) = {15.91631748593337, 3.615508628268718, 0};
Point(p18 + 20) = {15.907428, 3.502557, 0};
Point(p18 + 21) = {15.91631748593337, 3.389605371731282, 0};
Point(p18 + 22) = {15.94276705508728, 3.279434987415502, 0};
Point(p18 + 23) = {15.98612543128808, 3.174758607549057, 0};
Point(p18 + 24) = {16.0453249874155, 3.078153712005247, 0};
Point(p18 + 25) = {16.11890803392563, 2.991999033925627, 0};
Point(p18 + 26) = {16.20506271200525, 2.918415987415502, 0};
Point(p18 + 27) = {16.30166760754906, 2.859216431288079, 0};
Point(p18 + 28) = {16.4063439874155, 2.81585805508728, 0};
Point(p18 + 29) = {16.51651437173128, 2.789408485933368, 0};
Point(p18 + 30) = {16.629466, 2.780519, 0};
Point(p18 + 31) = {16.74241762826872, 2.789408485933368, 0};
Point(p18 + 32) = {16.8525880125845, 2.81585805508728, 0};
Point(p18 + 33) = {16.95726439245094, 2.859216431288079, 0};
Point(p18 + 34) = {17.05386928799475, 2.918415987415502, 0};
Point(p18 + 35) = {17.14002396607437, 2.991999033925627, 0};
Point(p18 + 36) = {17.2136070125845, 3.078153712005247, 0};
Point(p18 + 37) = {17.27280656871192, 3.174758607549057, 0};
Point(p18 + 38) = {17.31616494491272, 3.279434987415502, 0};
Point(p18 + 39) = {17.34261451406663, 3.389605371731282, 0};
Spline(18) = {12, p18 + 1, p18 + 2, p18 + 3, p18 + 4, p18 + 5, p18 + 6, p18 + 7, p18 + 8, p18 + 9, p18 + 10, p18 + 11, p18 + 12, p18 + 13, p18 + 14, p18 + 15, p18 + 16, p18 + 17, p18 + 18, p18 + 19, p18 + 20, p18 + 21, p18 + 22, p18 + 23, p18 + 24, p18 + 25, p18 + 26, p18 + 27, p18 + 28, p18 + 29, p18 + 30, p18 + 31, p18 + 32, p18 + 33, p18 + 34, p18 + 35, p18 + 36, p18 + 37, p18 + 38, p18 + 39, 12};
Line(19) = {14, 13};
Line(20) = {13, 15};
Line(21) = {16, 15};
Line(22) = {14, 16};
Line(23) = {14, 17};
Line(24) = {17, 18};
Line(25) = {13, 18};
Line(26) = {15, 19};
Line(27) = {18, 19};
Line(28) = {16, 20};
Line(29) = {20, 19};
Line(30) = {17, 20};
Curve Loop(7) = {-13, -14, 15, 14};
Surface(7) = {7};
Curve Loop(8) = {13};
Plane Surface(8) = {8};
Curve Loop(9) = {15};
Plane Surface(9) = {9};
Curve Loop(10) = {-16, -17, 18, 17};
Surface(10) = {10};
Curve Loop(11) = {16};
Plane Surface(11) = {11};
Curve Loop(12) = {18};
Plane Surface(12) = {12};
Curve Loop(13) = {-19, 22, 21, -20};
Plane Surface(13) = {13};
Curve Loop(14) = {-23, 19, 25, -24};
Plane Surface(14) = {14};
Curve Loop(15) = {-20, 25, 27, -26, -13, -16};
Plane Surface(15) = {15};
Curve Loop(16) = {-28, 21, 26, -29};
Plane Surface(16) = {16};
Curve Loop(17) = {-22, 23, 30, -28, -15, -18};
Plane Surface(17) = {17};
Curve Loop(18) = {-24, 30, 29, -27};
Plane Surface(18) = {18};
Surface Loop(1) = {13, 14, 15, 16, 17, 18, 7, 10};
Volume(1) = {1};
Surface Loop(2) = {7, 8, 9};
Volume(2) = {2};
Surface Loop(3) = {10, 11, 12};
Volume(3) = {3};
Physical Surface("WALLS") = {13, 18};
Physical Surface("LOAD") = {8, 11};
Physical Surface("BORDER") = {7, 9, 10, 12, 14, 15, 16, 17};
Physical Volume("SOLID") = {1, 2, 3};
