cl__1 = 0.07721;
cl__2 = 0.061382;
cl__3 = 0.918496;
cl__4 = 0.746192;
cl__5 = 1.767162;
cl__6 = 1.428822;
Point(9) = {19.632286, 1.373226, 0.1, cl__1};
Point(10) = {19.632286, 1.373226, 0, cl__1};
Point(11) = {8.952533000000001, 2.0124, 0.1, cl__2};
Point(12) = {8.952533000000001, 2.0124, 0, cl__2};
Point(13) = {0.567594, -3.861805, 0.1, cl__3};
Point(14) = {0.567594, -3.861805, 0, cl__3};
Point(15) = {0.567594, 4.03172, 0.1, cl__4};
Point(16) = {0.567594, 4.03172, 0, cl__4};
Point(17) = {30.526089, -3.861805, 0, cl__5};
Point(18) = {30.526089, -3.861805, 0.1, cl__5};
Point(19) = {30.526089, 4.03172, 0.1, cl__6};
Point(20) = {30.526089, 4.03172, 0, cl__6};
p13 = newp;
Point(p13 + 1) = {19.62278013083853, 1.494009519760958, 0.1};
Point(p13 + 2) = {19.59449658940104, 1.61181894840788, 0.1};
Point(p13 + 3) = {19.54813181034541, 1.723753426820403, 0.1};
Point(p13 + 4) = {19.48482744840788, 1.827056756650775, 0.1};
Point(p13 + 5) = {19.40614226707448, 1.919185267074477, 0.1};
Point(p13 + 6) = {19.31401375665077, 1.99787044840788, 0.1};
Point(p13 + 7) = {19.2107104268204, 2.061174810345412, 0.1};
Point(p13 + 8) = {19.09877594840788, 2.107539589401037, 0.1};
Point(p13 + 9) = {18.98096651976096, 2.135823130838528, 0.1};
Point(p13 + 10) = {18.860183, 2.145329, 0.1};
Point(p13 + 11) = {18.73939948023904, 2.135823130838528, 0.1};
Point(p13 + 12) = {18.62159005159212, 2.107539589401037, 0.1};
Point(p13 + 13) = {18.5096555731796, 2.061174810345412, 0.1};
Point(p13 + 14) = {18.40635224334923, 1.99787044840788, 0.1};
Point(p13 + 15) = {18.31422373292552, 1.919185267074477, 0.1};
Point(p13 + 16) = {18.23553855159212, 1.827056756650776, 0.1};
Point(p13 + 17) = {18.17223418965459, 1.723753426820403, 0.1};
Point(p13 + 18) = {18.12586941059896, 1.61181894840788, 0.1};
Point(p13 + 19) = {18.09758586916147, 1.494009519760958, 0.1};
Point(p13 + 20) = {18.08808, 1.373226, 0.1};
Point(p13 + 21) = {18.09758586916147, 1.252442480239043, 0.1};
Point(p13 + 22) = {18.12586941059896, 1.13463305159212, 0.1};
Point(p13 + 23) = {18.17223418965459, 1.022698573179597, 0.1};
Point(p13 + 24) = {18.23553855159212, 0.9193952433492247, 0.1};
Point(p13 + 25) = {18.31422373292552, 0.8272667329255232, 0.1};
Point(p13 + 26) = {18.40635224334923, 0.7485815515921201, 0.1};
Point(p13 + 27) = {18.5096555731796, 0.6852771896545887, 0.1};
Point(p13 + 28) = {18.62159005159212, 0.6389124105989632, 0.1};
Point(p13 + 29) = {18.73939948023904, 0.6106288691614725, 0.1};
Point(p13 + 30) = {18.860183, 0.6011230000000001, 0.1};
Point(p13 + 31) = {18.98096651976095, 0.6106288691614724, 0.1};
Point(p13 + 32) = {19.09877594840788, 0.6389124105989631, 0.1};
Point(p13 + 33) = {19.2107104268204, 0.6852771896545886, 0.1};
Point(p13 + 34) = {19.31401375665077, 0.7485815515921199, 0.1};
Point(p13 + 35) = {19.40614226707448, 0.827266732925523, 0.1};
Point(p13 + 36) = {19.48482744840788, 0.9193952433492246, 0.1};
Point(p13 + 37) = {19.54813181034541, 1.022698573179597, 0.1};
Point(p13 + 38) = {19.59449658940104, 1.13463305159212, 0.1};
Point(p13 + 39) = {19.62278013083853, 1.252442480239043, 0.1};
Spline(13) = {9, p13 + 1, p13 + 2, p13 + 3, p13 + 4, p13 + 5, p13 + 6, p13 + 7, p13 + 8, p13 + 9, p13 + 10, p13 + 11, p13 + 12, p13 + 13, p13 + 14, p13 + 15, p13 + 16, p13 + 17, p13 + 18, p13 + 19, p13 + 20, p13 + 21, p13 + 22, p13 + 23, p13 + 24, p13 + 25, p13 + 26, p13 + 27, p13 + 28, p13 + 29, p13 + 30, p13 + 31, p13 + 32, p13 + 33, p13 + 34, p13 + 35, p13 + 36, p13 + 37, p13 + 38, p13 + 39, 9};
Line(14) = {10, 9};
p15 = newp;
Point(p15 + 1) = {19.62278013083853, 1.494009519760958, 0};
Point(p15 + 2) = {19.59449658940104, 1.61181894840788, 0};
Point(p15 + 3) = {19.54813181034541, 1.723753426820403, 0};
Point(p15 + 4) = {19.48482744840788, 1.827056756650775, 0};
Point(p15 + 5) = {19.40614226707448, 1.919185267074477, 0};
Point(p15 + 6) = {19.31401375665077, 1.99787044840788, 0};
Point(p15 + 7) = {19.2107104268204, 2.061174810345412, 0};
Point(p15 + 8) = {19.09877594840788, 2.107539589401037, 0};
Point(p15 + 9) = {18.98096651976096, 2.135823130838528, 0};
Point(p15 + 10) = {18.860183, 2.145329, 0};
Point(p15 + 11) = {18.73939948023904, 2.135823130838528, 0};
Point(p15 + 12) = {18.62159005159212, 2.107539589401037, 0};
Point(p15 + 13) = {18.5096555731796, 2.061174810345412, 0};
Point(p15 + 14) = {18.40635224334923, 1.99787044840788, 0};
Point(p15 + 15) = {18.31422373292552, 1.919185267074477, 0};
Point(p15 + 16) = {18.23553855159212, 1.827056756650776, 0};
Point(p15 + 17) = {18.17223418965459, 1.723753426820403, 0};
Point(p15 + 18) = {18.12586941059896, 1.61181894840788, 0};
Point(p15 + 19) = {18.09758586916147, 1.494009519760958, 0};
Point(p15 + 20) = {18.08808, 1.373226, 0};
Point(p15 + 21) = {18.09758586916147, 1.252442480239043, 0};
Point(p15 + 22) = {18.12586941059896, 1.13463305159212, 0};
Point(p15 + 23) = {18.17223418965459, 1.022698573179597, 0};
Point(p15 + 24) = {18.23553855159212, 0.9193952433492247, 0};
Point(p15 + 25) = {18.31422373292552, 0.8272667329255232, 0};
Point(p15 + 26) = {18.40635224334923, 0.7485815515921201, 0};
Point(p15 + 27) = {18.5096555731796, 0.6852771896545887, 0};
Point(p15 + 28) = {18.62159005159212, 0.6389124105989632, 0};
Point(p15 + 29) = {18.73939948023904, 0.6106288691614725, 0};
Point(p15 + 30) = {18.860183, 0.6011230000000001, 0};
Point(p15 + 31) = {18.98096651976095, 0.6106288691614724, 0};
Point(p15 + 32) = {19.09877594840788, 0.6389124105989631, 0};
Point(p15 + 33) = {19.2107104268204, 0.6852771896545886, 0};
Point(p15 + 34) = {19.31401375665077, 0.7485815515921199, 0};
Point(p15 + 35) = {19.40614226707448, 0.827266732925523, 0};
Point(p15 + 36) = {19.48482744840788, 0.9193952433492246, 0};
Point(p15 + 37) = {19.54813181034541, 1.022698573179597, 0};
Point(p15 + 38) = {19.59449658940104, 1.13463305159212, 0};
Point(p15 + 39) = {19.62278013083853, 1.252442480239043, 0};
Spline(15) = {10, p15 + 1, p15 + 2, p15 + 3, p15 + 4, p15 + 5, p15 + 6, p15 + 7, p15 + 8, p15 + 9, p15 + 10, p15 + 11, p15 + 12, p15 + 13, p15 + 14, p15 + 15, p15 + 16, p15 + 17, p15 + 18, p15 + 19, p15 + 20, p15 + 21, p15 + 22, p15 + 23, p15 + 24, p15 + 25, p15 + 26, p15 + 27, p15 + 28, p15 + 29, p15 + 30, p15 + 31, p15 + 32, p15 + 33, p15 + 34, p15 + 35, p15 + 36, p15 + 37, p15 + 38, p15 + 39, 10};
p16 = newp;
Point(p16 + 1) = {8.944975881847427, 2.108422290462064, 0.1};
Point(p16 + 2) = {8.92249060871926, 2.202080193453241, 0.1};
Point(p16 + 3) = {8.885630842664256, 2.291067540569129, 0.1};
Point(p16 + 4) = {8.835304193453242, 2.373193167991661, 0.1};
Point(p16 + 5) = {8.772749870214366, 2.446434870214364, 0.1};
Point(p16 + 6) = {8.699508167991661, 2.508989193453242, 0.1};
Point(p16 + 7) = {8.61738254056913, 2.559315842664255, 0.1};
Point(p16 + 8) = {8.528395193453242, 2.596175608719259, 0.1};
Point(p16 + 9) = {8.434737290462065, 2.618660881847426, 0.1};
Point(p16 + 10) = {8.338715000000001, 2.626218, 0.1};
Point(p16 + 11) = {8.242692709537936, 2.618660881847426, 0.1};
Point(p16 + 12) = {8.149034806546759, 2.596175608719259, 0.1};
Point(p16 + 13) = {8.060047459430871, 2.559315842664255, 0.1};
Point(p16 + 14) = {7.97792183200834, 2.508989193453242, 0.1};
Point(p16 + 15) = {7.904680129785636, 2.446434870214364, 0.1};
Point(p16 + 16) = {7.842125806546759, 2.373193167991661, 0.1};
Point(p16 + 17) = {7.791799157335745, 2.291067540569129, 0.1};
Point(p16 + 18) = {7.754939391280742, 2.202080193453241, 0.1};
Point(p16 + 19) = {7.732454118152575, 2.108422290462065, 0.1};
Point(p16 + 20) = {7.724897, 2.0124, 0.1};
Point(p16 + 21) = {7.732454118152575, 1.916377709537936, 0.1};
Point(p16 + 22) = {7.754939391280742, 1.822719806546758, 0.1};
Point(p16 + 23) = {7.791799157335745, 1.733732459430871, 0.1};
Point(p16 + 24) = {7.842125806546759, 1.651606832008339, 0.1};
Point(p16 + 25) = {7.904680129785636, 1.578365129785636, 0.1};
Point(p16 + 26) = {7.977921832008339, 1.515810806546759, 0.1};
Point(p16 + 27) = {8.060047459430871, 1.465484157335744, 0.1};
Point(p16 + 28) = {8.149034806546759, 1.428624391280741, 0.1};
Point(p16 + 29) = {8.242692709537936, 1.406139118152574, 0.1};
Point(p16 + 30) = {8.338715000000001, 1.398582, 0.1};
Point(p16 + 31) = {8.434737290462065, 1.406139118152574, 0.1};
Point(p16 + 32) = {8.528395193453242, 1.428624391280741, 0.1};
Point(p16 + 33) = {8.61738254056913, 1.465484157335744, 0.1};
Point(p16 + 34) = {8.699508167991661, 1.515810806546758, 0.1};
Point(p16 + 35) = {8.772749870214366, 1.578365129785636, 0.1};
Point(p16 + 36) = {8.835304193453242, 1.651606832008339, 0.1};
Point(p16 + 37) = {8.885630842664256, 1.733732459430871, 0.1};
Point(p16 + 38) = {8.92249060871926, 1.822719806546758, 0.1};
Point(p16 + 39) = {8.944975881847427, 1.916377709537935, 0.1};
Spline(16) = {11, p16 + 1, p16 + 2, p16 + 3, p16 + 4, p16 + 5, p16 + 6, p16 + 7, p16 + 8, p16 + 9, p16 + 10, p16 + 11, p16 + 12, p16 + 13, p16 + 14, p16 + 15, p16 + 16, p16 + 17, p16 + 18, p16 + 19, p16 + 20, p16 + 21, p16 + 22, p16 + 23, p16 + 24, p16 + 25, p16 + 26, p16 + 27, p16 + 28, p16 + 29, p16 + 30, p16 + 31, p16 + 32, p16 + 33, p16 + 34, p16 + 35, p16 + 36, p16 + 37, p16 + 38, p16 + 39, 11};
Line(17) = {12, 11};
p18 = newp;
Point(p18 + 1) = {8.944975881847427, 2.108422290462064, 0};
Point(p18 + 2) = {8.92249060871926, 2.202080193453241, 0};
Point(p18 + 3) = {8.885630842664256, 2.291067540569129, 0};
Point(p18 + 4) = {8.835304193453242, 2.373193167991661, 0};
Point(p18 + 5) = {8.772749870214366, 2.446434870214364, 0};
Point(p18 + 6) = {8.699508167991661, 2.508989193453242, 0};
Point(p18 + 7) = {8.61738254056913, 2.559315842664255, 0};
Point(p18 + 8) = {8.528395193453242, 2.596175608719259, 0};
Point(p18 + 9) = {8.434737290462065, 2.618660881847426, 0};
Point(p18 + 10) = {8.338715000000001, 2.626218, 0};
Point(p18 + 11) = {8.242692709537936, 2.618660881847426, 0};
Point(p18 + 12) = {8.149034806546759, 2.596175608719259, 0};
Point(p18 + 13) = {8.060047459430871, 2.559315842664255, 0};
Point(p18 + 14) = {7.97792183200834, 2.508989193453242, 0};
Point(p18 + 15) = {7.904680129785636, 2.446434870214364, 0};
Point(p18 + 16) = {7.842125806546759, 2.373193167991661, 0};
Point(p18 + 17) = {7.791799157335745, 2.291067540569129, 0};
Point(p18 + 18) = {7.754939391280742, 2.202080193453241, 0};
Point(p18 + 19) = {7.732454118152575, 2.108422290462065, 0};
Point(p18 + 20) = {7.724897, 2.0124, 0};
Point(p18 + 21) = {7.732454118152575, 1.916377709537936, 0};
Point(p18 + 22) = {7.754939391280742, 1.822719806546758, 0};
Point(p18 + 23) = {7.791799157335745, 1.733732459430871, 0};
Point(p18 + 24) = {7.842125806546759, 1.651606832008339, 0};
Point(p18 + 25) = {7.904680129785636, 1.578365129785636, 0};
Point(p18 + 26) = {7.977921832008339, 1.515810806546759, 0};
Point(p18 + 27) = {8.060047459430871, 1.465484157335744, 0};
Point(p18 + 28) = {8.149034806546759, 1.428624391280741, 0};
Point(p18 + 29) = {8.242692709537936, 1.406139118152574, 0};
Point(p18 + 30) = {8.338715000000001, 1.398582, 0};
Point(p18 + 31) = {8.434737290462065, 1.406139118152574, 0};
Point(p18 + 32) = {8.528395193453242, 1.428624391280741, 0};
Point(p18 + 33) = {8.61738254056913, 1.465484157335744, 0};
Point(p18 + 34) = {8.699508167991661, 1.515810806546758, 0};
Point(p18 + 35) = {8.772749870214366, 1.578365129785636, 0};
Point(p18 + 36) = {8.835304193453242, 1.651606832008339, 0};
Point(p18 + 37) = {8.885630842664256, 1.733732459430871, 0};
Point(p18 + 38) = {8.92249060871926, 1.822719806546758, 0};
Point(p18 + 39) = {8.944975881847427, 1.916377709537935, 0};
Spline(18) = {12, p18 + 1, p18 + 2, p18 + 3, p18 + 4, p18 + 5, p18 + 6, p18 + 7, p18 + 8, p18 + 9, p18 + 10, p18 + 11, p18 + 12, p18 + 13, p18 + 14, p18 + 15, p18 + 16, p18 + 17, p18 + 18, p18 + 19, p18 + 20, p18 + 21, p18 + 22, p18 + 23, p18 + 24, p18 + 25, p18 + 26, p18 + 27, p18 + 28, p18 + 29, p18 + 30, p18 + 31, p18 + 32, p18 + 33, p18 + 34, p18 + 35, p18 + 36, p18 + 37, p18 + 38, p18 + 39, 12};
Line(19) = {14, 13};
Line(20) = {13, 15};
Line(21) = {16, 15};
Line(22) = {14, 16};
Line(23) = {14, 17};
Line(24) = {17, 18};
Line(25) = {13, 18};
Line(26) = {15, 19};
Line(27) = {18, 19};
Line(28) = {16, 20};
Line(29) = {20, 19};
Line(30) = {17, 20};
Curve Loop(7) = {-13, -14, 15, 14};
Surface(7) = {7};
Curve Loop(8) = {13};
Plane Surface(8) = {8};
Curve Loop(9) = {15};
Plane Surface(9) = {9};
Curve Loop(10) = {-16, -17, 18, 17};
Surface(10) = {10};
Curve Loop(11) = {16};
Plane Surface(11) = {11};
Curve Loop(12) = {18};
Plane Surface(12) = {12};
Curve Loop(13) = {-19, 22, 21, -20};
Plane Surface(13) = {13};
Curve Loop(14) = {-23, 19, 25, -24};
Plane Surface(14) = {14};
Curve Loop(15) = {-20, 25, 27, -26, -13, -16};
Plane Surface(15) = {15};
Curve Loop(16) = {-28, 21, 26, -29};
Plane Surface(16) = {16};
Curve Loop(17) = {-22, 23, 30, -28, -15, -18};
Plane Surface(17) = {17};
Curve Loop(18) = {-24, 30, 29, -27};
Plane Surface(18) = {18};
Surface Loop(1) = {13, 14, 15, 16, 17, 18, 7, 10};
Volume(1) = {1};
Surface Loop(2) = {7, 8, 9};
Volume(2) = {2};
Surface Loop(3) = {10, 11, 12};
Volume(3) = {3};
Physical Surface("WALLS") = {13, 18};
Physical Surface("LOAD") = {8, 11};
Physical Surface("BORDER") = {7, 9, 10, 12, 14, 15, 16, 17};
Physical Volume("SOLID") = {1, 2, 3};
