cl__1 = 0.08223800000000001;
cl__2 = 0.098037;
cl__3 = 0.288592;
cl__4 = 0.62046;
cl__5 = 3.846205;
cl__6 = 3.540704;
Point(9) = {19.214927, 1.922876, 0.1, cl__1};
Point(10) = {19.214927, 1.922876, 0, cl__1};
Point(11) = {5.192761, -1.462228, 0.1, cl__2};
Point(12) = {5.192761, -1.462228, 0, cl__2};
Point(13) = {0.672374, -3.966573, 0.1, cl__3};
Point(14) = {0.672374, -3.966573, 0, cl__3};
Point(15) = {0.672374, 5.929243, 0.1, cl__4};
Point(16) = {0.672374, 5.929243, 0, cl__4};
Point(17) = {36.500864, -3.966573, 0, cl__5};
Point(18) = {36.500864, -3.966573, 0.1, cl__5};
Point(19) = {36.500864, 5.929243, 0.1, cl__6};
Point(20) = {36.500864, 5.929243, 0, cl__6};
p13 = newp;
Point(p13 + 1) = {19.20480212522697, 2.05152473179425, 0.1};
Point(p13 + 2) = {19.17467680892732, 2.177005704851064, 0.1};
Point(p13 + 3) = {19.12529283636855, 2.296229161166308, 0.1};
Point(p13 + 4) = {19.05786620485106, 2.406259423565536, 0.1};
Point(p13 + 5) = {18.97405718181897, 2.504387181818974, 0.1};
Point(p13 + 6) = {18.87592942356554, 2.588196204851064, 0.1};
Point(p13 + 7) = {18.76589916116631, 2.655622836368554, 0.1};
Point(p13 + 8) = {18.64667570485106, 2.705006808927325, 0.1};
Point(p13 + 9) = {18.52119473179425, 2.73513212522697, 0.1};
Point(p13 + 10) = {18.392546, 2.745257, 0.1};
Point(p13 + 11) = {18.26389726820575, 2.73513212522697, 0.1};
Point(p13 + 12) = {18.13841629514894, 2.705006808927325, 0.1};
Point(p13 + 13) = {18.01919283883369, 2.655622836368554, 0.1};
Point(p13 + 14) = {17.90916257643446, 2.588196204851064, 0.1};
Point(p13 + 15) = {17.81103481818102, 2.504387181818974, 0.1};
Point(p13 + 16) = {17.72722579514894, 2.406259423565536, 0.1};
Point(p13 + 17) = {17.65979916363144, 2.296229161166308, 0.1};
Point(p13 + 18) = {17.61041519107268, 2.177005704851064, 0.1};
Point(p13 + 19) = {17.58028987477303, 2.05152473179425, 0.1};
Point(p13 + 20) = {17.570165, 1.922876, 0.1};
Point(p13 + 21) = {17.58028987477303, 1.79422726820575, 0.1};
Point(p13 + 22) = {17.61041519107268, 1.668746295148936, 0.1};
Point(p13 + 23) = {17.65979916363144, 1.549522838833692, 0.1};
Point(p13 + 24) = {17.72722579514894, 1.439492576434464, 0.1};
Point(p13 + 25) = {17.81103481818102, 1.341364818181026, 0.1};
Point(p13 + 26) = {17.90916257643446, 1.257555795148936, 0.1};
Point(p13 + 27) = {18.01919283883369, 1.190129163631446, 0.1};
Point(p13 + 28) = {18.13841629514894, 1.140745191072675, 0.1};
Point(p13 + 29) = {18.26389726820575, 1.11061987477303, 0.1};
Point(p13 + 30) = {18.392546, 1.100495, 0.1};
Point(p13 + 31) = {18.52119473179425, 1.11061987477303, 0.1};
Point(p13 + 32) = {18.64667570485106, 1.140745191072675, 0.1};
Point(p13 + 33) = {18.76589916116631, 1.190129163631446, 0.1};
Point(p13 + 34) = {18.87592942356553, 1.257555795148936, 0.1};
Point(p13 + 35) = {18.97405718181897, 1.341364818181026, 0.1};
Point(p13 + 36) = {19.05786620485106, 1.439492576434463, 0.1};
Point(p13 + 37) = {19.12529283636855, 1.549522838833692, 0.1};
Point(p13 + 38) = {19.17467680892732, 1.668746295148936, 0.1};
Point(p13 + 39) = {19.20480212522697, 1.79422726820575, 0.1};
Spline(13) = {9, p13 + 1, p13 + 2, p13 + 3, p13 + 4, p13 + 5, p13 + 6, p13 + 7, p13 + 8, p13 + 9, p13 + 10, p13 + 11, p13 + 12, p13 + 13, p13 + 14, p13 + 15, p13 + 16, p13 + 17, p13 + 18, p13 + 19, p13 + 20, p13 + 21, p13 + 22, p13 + 23, p13 + 24, p13 + 25, p13 + 26, p13 + 27, p13 + 28, p13 + 29, p13 + 30, p13 + 31, p13 + 32, p13 + 33, p13 + 34, p13 + 35, p13 + 36, p13 + 37, p13 + 38, p13 + 39, 9};
Line(14) = {10, 9};
p15 = newp;
Point(p15 + 1) = {19.20480212522697, 2.05152473179425, 0};
Point(p15 + 2) = {19.17467680892732, 2.177005704851064, 0};
Point(p15 + 3) = {19.12529283636855, 2.296229161166308, 0};
Point(p15 + 4) = {19.05786620485106, 2.406259423565536, 0};
Point(p15 + 5) = {18.97405718181897, 2.504387181818974, 0};
Point(p15 + 6) = {18.87592942356554, 2.588196204851064, 0};
Point(p15 + 7) = {18.76589916116631, 2.655622836368554, 0};
Point(p15 + 8) = {18.64667570485106, 2.705006808927325, 0};
Point(p15 + 9) = {18.52119473179425, 2.73513212522697, 0};
Point(p15 + 10) = {18.392546, 2.745257, 0};
Point(p15 + 11) = {18.26389726820575, 2.73513212522697, 0};
Point(p15 + 12) = {18.13841629514894, 2.705006808927325, 0};
Point(p15 + 13) = {18.01919283883369, 2.655622836368554, 0};
Point(p15 + 14) = {17.90916257643446, 2.588196204851064, 0};
Point(p15 + 15) = {17.81103481818102, 2.504387181818974, 0};
Point(p15 + 16) = {17.72722579514894, 2.406259423565536, 0};
Point(p15 + 17) = {17.65979916363144, 2.296229161166308, 0};
Point(p15 + 18) = {17.61041519107268, 2.177005704851064, 0};
Point(p15 + 19) = {17.58028987477303, 2.05152473179425, 0};
Point(p15 + 20) = {17.570165, 1.922876, 0};
Point(p15 + 21) = {17.58028987477303, 1.79422726820575, 0};
Point(p15 + 22) = {17.61041519107268, 1.668746295148936, 0};
Point(p15 + 23) = {17.65979916363144, 1.549522838833692, 0};
Point(p15 + 24) = {17.72722579514894, 1.439492576434464, 0};
Point(p15 + 25) = {17.81103481818102, 1.341364818181026, 0};
Point(p15 + 26) = {17.90916257643446, 1.257555795148936, 0};
Point(p15 + 27) = {18.01919283883369, 1.190129163631446, 0};
Point(p15 + 28) = {18.13841629514894, 1.140745191072675, 0};
Point(p15 + 29) = {18.26389726820575, 1.11061987477303, 0};
Point(p15 + 30) = {18.392546, 1.100495, 0};
Point(p15 + 31) = {18.52119473179425, 1.11061987477303, 0};
Point(p15 + 32) = {18.64667570485106, 1.140745191072675, 0};
Point(p15 + 33) = {18.76589916116631, 1.190129163631446, 0};
Point(p15 + 34) = {18.87592942356553, 1.257555795148936, 0};
Point(p15 + 35) = {18.97405718181897, 1.341364818181026, 0};
Point(p15 + 36) = {19.05786620485106, 1.439492576434463, 0};
Point(p15 + 37) = {19.12529283636855, 1.549522838833692, 0};
Point(p15 + 38) = {19.17467680892732, 1.668746295148936, 0};
Point(p15 + 39) = {19.20480212522697, 1.79422726820575, 0};
Spline(15) = {10, p15 + 1, p15 + 2, p15 + 3, p15 + 4, p15 + 5, p15 + 6, p15 + 7, p15 + 8, p15 + 9, p15 + 10, p15 + 11, p15 + 12, p15 + 13, p15 + 14, p15 + 15, p15 + 16, p15 + 17, p15 + 18, p15 + 19, p15 + 20, p15 + 21, p15 + 22, p15 + 23, p15 + 24, p15 + 25, p15 + 26, p15 + 27, p15 + 28, p15 + 29, p15 + 30, p15 + 31, p15 + 32, p15 + 33, p15 + 34, p15 + 35, p15 + 36, p15 + 37, p15 + 38, p15 + 39, 10};
p16 = newp;
Point(p16 + 1) = {5.180691018469256, -1.308864343508509, 0.1};
Point(p16 + 2) = {5.14477827688028, -1.159277009224633, 0.1};
Point(p16 + 3) = {5.08590706611855, -1.017149333770341, 0.1};
Point(p16 + 4) = {5.005526990775367, -0.8859809722100283, 0.1};
Point(p16 + 5) = {4.905617275071856, -0.7690017249281446, 0.1};
Point(p16 + 6) = {4.788638027789972, -0.669092009224633, 0.1};
Point(p16 + 7) = {4.65746966622966, -0.5887119338814499, 0.1};
Point(p16 + 8) = {4.515341990775368, -0.5298407231197204, 0.1};
Point(p16 + 9) = {4.365754656491491, -0.4939279815307449, 0.1};
Point(p16 + 10) = {4.212391, -0.4818580000000001, 0.1};
Point(p16 + 11) = {4.059027343508509, -0.493927981530745, 0.1};
Point(p16 + 12) = {3.909440009224633, -0.5298407231197203, 0.1};
Point(p16 + 13) = {3.767312333770341, -0.5887119338814499, 0.1};
Point(p16 + 14) = {3.636143972210029, -0.6690920092246329, 0.1};
Point(p16 + 15) = {3.519164724928145, -0.7690017249281444, 0.1};
Point(p16 + 16) = {3.419255009224633, -0.8859809722100281, 0.1};
Point(p16 + 17) = {3.33887493388145, -1.017149333770341, 0.1};
Point(p16 + 18) = {3.28000372311972, -1.159277009224633, 0.1};
Point(p16 + 19) = {3.244090981530745, -1.308864343508509, 0.1};
Point(p16 + 20) = {3.232021, -1.462228, 0.1};
Point(p16 + 21) = {3.244090981530745, -1.615591656491491, 0.1};
Point(p16 + 22) = {3.280003723119721, -1.765178990775368, 0.1};
Point(p16 + 23) = {3.33887493388145, -1.907306666229659, 0.1};
Point(p16 + 24) = {3.419255009224633, -2.038475027789972, 0.1};
Point(p16 + 25) = {3.519164724928145, -2.155454275071856, 0.1};
Point(p16 + 26) = {3.636143972210028, -2.255363990775367, 0.1};
Point(p16 + 27) = {3.767312333770341, -2.33574406611855, 0.1};
Point(p16 + 28) = {3.909440009224633, -2.39461527688028, 0.1};
Point(p16 + 29) = {4.059027343508509, -2.430528018469255, 0.1};
Point(p16 + 30) = {4.212391, -2.442598, 0.1};
Point(p16 + 31) = {4.365754656491491, -2.430528018469255, 0.1};
Point(p16 + 32) = {4.515341990775367, -2.39461527688028, 0.1};
Point(p16 + 33) = {4.65746966622966, -2.33574406611855, 0.1};
Point(p16 + 34) = {4.788638027789972, -2.255363990775368, 0.1};
Point(p16 + 35) = {4.905617275071855, -2.155454275071856, 0.1};
Point(p16 + 36) = {5.005526990775367, -2.038475027789972, 0.1};
Point(p16 + 37) = {5.08590706611855, -1.90730666622966, 0.1};
Point(p16 + 38) = {5.14477827688028, -1.765178990775367, 0.1};
Point(p16 + 39) = {5.180691018469255, -1.615591656491491, 0.1};
Spline(16) = {11, p16 + 1, p16 + 2, p16 + 3, p16 + 4, p16 + 5, p16 + 6, p16 + 7, p16 + 8, p16 + 9, p16 + 10, p16 + 11, p16 + 12, p16 + 13, p16 + 14, p16 + 15, p16 + 16, p16 + 17, p16 + 18, p16 + 19, p16 + 20, p16 + 21, p16 + 22, p16 + 23, p16 + 24, p16 + 25, p16 + 26, p16 + 27, p16 + 28, p16 + 29, p16 + 30, p16 + 31, p16 + 32, p16 + 33, p16 + 34, p16 + 35, p16 + 36, p16 + 37, p16 + 38, p16 + 39, 11};
Line(17) = {12, 11};
p18 = newp;
Point(p18 + 1) = {5.180691018469256, -1.308864343508509, 0};
Point(p18 + 2) = {5.14477827688028, -1.159277009224633, 0};
Point(p18 + 3) = {5.08590706611855, -1.017149333770341, 0};
Point(p18 + 4) = {5.005526990775367, -0.8859809722100283, 0};
Point(p18 + 5) = {4.905617275071856, -0.7690017249281446, 0};
Point(p18 + 6) = {4.788638027789972, -0.669092009224633, 0};
Point(p18 + 7) = {4.65746966622966, -0.5887119338814499, 0};
Point(p18 + 8) = {4.515341990775368, -0.5298407231197204, 0};
Point(p18 + 9) = {4.365754656491491, -0.4939279815307449, 0};
Point(p18 + 10) = {4.212391, -0.4818580000000001, 0};
Point(p18 + 11) = {4.059027343508509, -0.493927981530745, 0};
Point(p18 + 12) = {3.909440009224633, -0.5298407231197203, 0};
Point(p18 + 13) = {3.767312333770341, -0.5887119338814499, 0};
Point(p18 + 14) = {3.636143972210029, -0.6690920092246329, 0};
Point(p18 + 15) = {3.519164724928145, -0.7690017249281444, 0};
Point(p18 + 16) = {3.419255009224633, -0.8859809722100281, 0};
Point(p18 + 17) = {3.33887493388145, -1.017149333770341, 0};
Point(p18 + 18) = {3.28000372311972, -1.159277009224633, 0};
Point(p18 + 19) = {3.244090981530745, -1.308864343508509, 0};
Point(p18 + 20) = {3.232021, -1.462228, 0};
Point(p18 + 21) = {3.244090981530745, -1.615591656491491, 0};
Point(p18 + 22) = {3.280003723119721, -1.765178990775368, 0};
Point(p18 + 23) = {3.33887493388145, -1.907306666229659, 0};
Point(p18 + 24) = {3.419255009224633, -2.038475027789972, 0};
Point(p18 + 25) = {3.519164724928145, -2.155454275071856, 0};
Point(p18 + 26) = {3.636143972210028, -2.255363990775367, 0};
Point(p18 + 27) = {3.767312333770341, -2.33574406611855, 0};
Point(p18 + 28) = {3.909440009224633, -2.39461527688028, 0};
Point(p18 + 29) = {4.059027343508509, -2.430528018469255, 0};
Point(p18 + 30) = {4.212391, -2.442598, 0};
Point(p18 + 31) = {4.365754656491491, -2.430528018469255, 0};
Point(p18 + 32) = {4.515341990775367, -2.39461527688028, 0};
Point(p18 + 33) = {4.65746966622966, -2.33574406611855, 0};
Point(p18 + 34) = {4.788638027789972, -2.255363990775368, 0};
Point(p18 + 35) = {4.905617275071855, -2.155454275071856, 0};
Point(p18 + 36) = {5.005526990775367, -2.038475027789972, 0};
Point(p18 + 37) = {5.08590706611855, -1.90730666622966, 0};
Point(p18 + 38) = {5.14477827688028, -1.765178990775367, 0};
Point(p18 + 39) = {5.180691018469255, -1.615591656491491, 0};
Spline(18) = {12, p18 + 1, p18 + 2, p18 + 3, p18 + 4, p18 + 5, p18 + 6, p18 + 7, p18 + 8, p18 + 9, p18 + 10, p18 + 11, p18 + 12, p18 + 13, p18 + 14, p18 + 15, p18 + 16, p18 + 17, p18 + 18, p18 + 19, p18 + 20, p18 + 21, p18 + 22, p18 + 23, p18 + 24, p18 + 25, p18 + 26, p18 + 27, p18 + 28, p18 + 29, p18 + 30, p18 + 31, p18 + 32, p18 + 33, p18 + 34, p18 + 35, p18 + 36, p18 + 37, p18 + 38, p18 + 39, 12};
Line(19) = {14, 13};
Line(20) = {13, 15};
Line(21) = {16, 15};
Line(22) = {14, 16};
Line(23) = {14, 17};
Line(24) = {17, 18};
Line(25) = {13, 18};
Line(26) = {15, 19};
Line(27) = {18, 19};
Line(28) = {16, 20};
Line(29) = {20, 19};
Line(30) = {17, 20};
Curve Loop(7) = {-13, -14, 15, 14};
Surface(7) = {7};
Curve Loop(8) = {13};
Plane Surface(8) = {8};
Curve Loop(9) = {15};
Plane Surface(9) = {9};
Curve Loop(10) = {-16, -17, 18, 17};
Surface(10) = {10};
Curve Loop(11) = {16};
Plane Surface(11) = {11};
Curve Loop(12) = {18};
Plane Surface(12) = {12};
Curve Loop(13) = {-19, 22, 21, -20};
Plane Surface(13) = {13};
Curve Loop(14) = {-23, 19, 25, -24};
Plane Surface(14) = {14};
Curve Loop(15) = {-20, 25, 27, -26, -16, -13};
Plane Surface(15) = {15};
Curve Loop(16) = {-28, 21, 26, -29};
Plane Surface(16) = {16};
Curve Loop(17) = {-22, 23, 30, -28, -18, -15};
Plane Surface(17) = {17};
Curve Loop(18) = {-24, 30, 29, -27};
Plane Surface(18) = {18};
Surface Loop(1) = {13, 14, 15, 16, 17, 18, 10, 7};
Volume(1) = {1};
Surface Loop(2) = {7, 8, 9};
Volume(2) = {2};
Surface Loop(3) = {10, 11, 12};
Volume(3) = {3};
Physical Surface("WALLS") = {13, 18};
Physical Surface("LOAD") = {8, 11};
Physical Surface("BORDER") = {7, 9, 10, 12, 14, 15, 16, 17};
Physical Volume("SOLID") = {1, 2, 3};
