cl__1 = 0.076977;
cl__2 = 0.052626;
cl__3 = 0.7633;
cl__4 = 0.875471;
cl__5 = 1.518142;
cl__6 = 1.779999;
Point(9) = {11.9719, -1.309651, 0.1, cl__1};
Point(10) = {11.9719, -1.309651, 0, cl__1};
Point(11) = {20.684964, -0.8597080000000002, 0.1, cl__2};
Point(12) = {20.684964, -0.8597080000000002, 0, cl__2};
Point(13) = {0.154221, -3.962892, 0.1, cl__3};
Point(14) = {0.154221, -3.962892, 0, cl__3};
Point(15) = {0.154221, 5.386246, 0.1, cl__4};
Point(16) = {0.154221, 5.386246, 0, cl__4};
Point(17) = {36.339009, -3.962892, 0, cl__5};
Point(18) = {36.339009, -3.962892, 0.1, cl__5};
Point(19) = {36.339009, 5.386246, 0.1, cl__6};
Point(20) = {36.339009, 5.386246, 0, cl__6};
p13 = newp;
Point(p13 + 1) = {11.96242290318656, -1.189233067583842, 0.1};
Point(p13 + 2) = {11.93422497032245, -1.071780224307974, 0.1};
Point(p13 + 3) = {11.88800052809838, -0.9601845489774881, 0.1};
Point(p13 + 4) = {11.82488777569202, -0.857193897483832, 0.1};
Point(p13 + 5) = {11.74644075852684, -0.7653442414731561, 0.1};
Point(p13 + 6) = {11.65459110251617, -0.6868972243079742, 0.1};
Point(p13 + 7) = {11.55160045102251, -0.6237844719016168, 0.1};
Point(p13 + 8) = {11.44000477569202, -0.5775600296775448, 0.1};
Point(p13 + 9) = {11.32255193241616, -0.5493620968134432, 0.1};
Point(p13 + 10) = {11.202134, -0.5398849999999999, 0.1};
Point(p13 + 11) = {11.08171606758384, -0.5493620968134432, 0.1};
Point(p13 + 12) = {10.96426322430797, -0.5775600296775447, 0.1};
Point(p13 + 13) = {10.85266754897749, -0.6237844719016168, 0.1};
Point(p13 + 14) = {10.74967689748383, -0.6868972243079742, 0.1};
Point(p13 + 15) = {10.65782724147316, -0.7653442414731559, 0.1};
Point(p13 + 16) = {10.57938022430797, -0.857193897483832, 0.1};
Point(p13 + 17) = {10.51626747190162, -0.9601845489774878, 0.1};
Point(p13 + 18) = {10.47004302967754, -1.071780224307974, 0.1};
Point(p13 + 19) = {10.44184509681344, -1.189233067583841, 0.1};
Point(p13 + 20) = {10.432368, -1.309651, 0.1};
Point(p13 + 21) = {10.44184509681344, -1.430068932416158, 0.1};
Point(p13 + 22) = {10.47004302967754, -1.547521775692026, 0.1};
Point(p13 + 23) = {10.51626747190162, -1.659117451022512, 0.1};
Point(p13 + 24) = {10.57938022430797, -1.762108102516168, 0.1};
Point(p13 + 25) = {10.65782724147316, -1.853957758526844, 0.1};
Point(p13 + 26) = {10.74967689748383, -1.932404775692026, 0.1};
Point(p13 + 27) = {10.85266754897749, -1.995517528098383, 0.1};
Point(p13 + 28) = {10.96426322430797, -2.041741970322455, 0.1};
Point(p13 + 29) = {11.08171606758384, -2.069939903186556, 0.1};
Point(p13 + 30) = {11.202134, -2.079417, 0.1};
Point(p13 + 31) = {11.32255193241616, -2.069939903186556, 0.1};
Point(p13 + 32) = {11.44000477569202, -2.041741970322455, 0.1};
Point(p13 + 33) = {11.55160045102251, -1.995517528098383, 0.1};
Point(p13 + 34) = {11.65459110251617, -1.932404775692026, 0.1};
Point(p13 + 35) = {11.74644075852684, -1.853957758526844, 0.1};
Point(p13 + 36) = {11.82488777569202, -1.762108102516168, 0.1};
Point(p13 + 37) = {11.88800052809838, -1.659117451022512, 0.1};
Point(p13 + 38) = {11.93422497032245, -1.547521775692026, 0.1};
Point(p13 + 39) = {11.96242290318656, -1.430068932416158, 0.1};
Spline(13) = {9, p13 + 1, p13 + 2, p13 + 3, p13 + 4, p13 + 5, p13 + 6, p13 + 7, p13 + 8, p13 + 9, p13 + 10, p13 + 11, p13 + 12, p13 + 13, p13 + 14, p13 + 15, p13 + 16, p13 + 17, p13 + 18, p13 + 19, p13 + 20, p13 + 21, p13 + 22, p13 + 23, p13 + 24, p13 + 25, p13 + 26, p13 + 27, p13 + 28, p13 + 29, p13 + 30, p13 + 31, p13 + 32, p13 + 33, p13 + 34, p13 + 35, p13 + 36, p13 + 37, p13 + 38, p13 + 39, 9};
Line(14) = {10, 9};
p15 = newp;
Point(p15 + 1) = {11.96242290318656, -1.189233067583842, 0};
Point(p15 + 2) = {11.93422497032245, -1.071780224307974, 0};
Point(p15 + 3) = {11.88800052809838, -0.9601845489774881, 0};
Point(p15 + 4) = {11.82488777569202, -0.857193897483832, 0};
Point(p15 + 5) = {11.74644075852684, -0.7653442414731561, 0};
Point(p15 + 6) = {11.65459110251617, -0.6868972243079742, 0};
Point(p15 + 7) = {11.55160045102251, -0.6237844719016168, 0};
Point(p15 + 8) = {11.44000477569202, -0.5775600296775448, 0};
Point(p15 + 9) = {11.32255193241616, -0.5493620968134432, 0};
Point(p15 + 10) = {11.202134, -0.5398849999999999, 0};
Point(p15 + 11) = {11.08171606758384, -0.5493620968134432, 0};
Point(p15 + 12) = {10.96426322430797, -0.5775600296775447, 0};
Point(p15 + 13) = {10.85266754897749, -0.6237844719016168, 0};
Point(p15 + 14) = {10.74967689748383, -0.6868972243079742, 0};
Point(p15 + 15) = {10.65782724147316, -0.7653442414731559, 0};
Point(p15 + 16) = {10.57938022430797, -0.857193897483832, 0};
Point(p15 + 17) = {10.51626747190162, -0.9601845489774878, 0};
Point(p15 + 18) = {10.47004302967754, -1.071780224307974, 0};
Point(p15 + 19) = {10.44184509681344, -1.189233067583841, 0};
Point(p15 + 20) = {10.432368, -1.309651, 0};
Point(p15 + 21) = {10.44184509681344, -1.430068932416158, 0};
Point(p15 + 22) = {10.47004302967754, -1.547521775692026, 0};
Point(p15 + 23) = {10.51626747190162, -1.659117451022512, 0};
Point(p15 + 24) = {10.57938022430797, -1.762108102516168, 0};
Point(p15 + 25) = {10.65782724147316, -1.853957758526844, 0};
Point(p15 + 26) = {10.74967689748383, -1.932404775692026, 0};
Point(p15 + 27) = {10.85266754897749, -1.995517528098383, 0};
Point(p15 + 28) = {10.96426322430797, -2.041741970322455, 0};
Point(p15 + 29) = {11.08171606758384, -2.069939903186556, 0};
Point(p15 + 30) = {11.202134, -2.079417, 0};
Point(p15 + 31) = {11.32255193241616, -2.069939903186556, 0};
Point(p15 + 32) = {11.44000477569202, -2.041741970322455, 0};
Point(p15 + 33) = {11.55160045102251, -1.995517528098383, 0};
Point(p15 + 34) = {11.65459110251617, -1.932404775692026, 0};
Point(p15 + 35) = {11.74644075852684, -1.853957758526844, 0};
Point(p15 + 36) = {11.82488777569202, -1.762108102516168, 0};
Point(p15 + 37) = {11.88800052809838, -1.659117451022512, 0};
Point(p15 + 38) = {11.93422497032245, -1.547521775692026, 0};
Point(p15 + 39) = {11.96242290318656, -1.430068932416158, 0};
Spline(15) = {10, p15 + 1, p15 + 2, p15 + 3, p15 + 4, p15 + 5, p15 + 6, p15 + 7, p15 + 8, p15 + 9, p15 + 10, p15 + 11, p15 + 12, p15 + 13, p15 + 14, p15 + 15, p15 + 16, p15 + 17, p15 + 18, p15 + 19, p15 + 20, p15 + 21, p15 + 22, p15 + 23, p15 + 24, p15 + 25, p15 + 26, p15 + 27, p15 + 28, p15 + 29, p15 + 30, p15 + 31, p15 + 32, p15 + 33, p15 + 34, p15 + 35, p15 + 36, p15 + 37, p15 + 38, p15 + 39, 10};
p16 = newp;
Point(p16 + 1) = {20.67848484149828, -0.777382485558998, 0.1};
Point(p16 + 2) = {20.65920690437852, -0.6970840985062514, 0.1};
Point(p16 + 3) = {20.62760487543242, -0.6207900516260667, 0.1};
Point(p16 + 4) = {20.58445690149375, -0.5503789575580585, 0.1};
Point(p16 + 5) = {20.5308254288808, -0.4875845711192052, 0.1};
Point(p16 + 6) = {20.46803104244194, -0.4339530985062515, 0.1};
Point(p16 + 7) = {20.39761994837394, -0.3908051245675812, 0.1};
Point(p16 + 8) = {20.32132590149375, -0.3592030956214799, 0.1};
Point(p16 + 9) = {20.241027514441, -0.3399251585017217, 0.1};
Point(p16 + 10) = {20.158702, -0.333446, 0.1};
Point(p16 + 11) = {20.076376485559, -0.3399251585017217, 0.1};
Point(p16 + 12) = {19.99607809850625, -0.3592030956214799, 0.1};
Point(p16 + 13) = {19.91978405162607, -0.3908051245675812, 0.1};
Point(p16 + 14) = {19.84937295755806, -0.4339530985062514, 0.1};
Point(p16 + 15) = {19.78657857111921, -0.4875845711192051, 0.1};
Point(p16 + 16) = {19.73294709850625, -0.5503789575580584, 0.1};
Point(p16 + 17) = {19.68979912456758, -0.6207900516260666, 0.1};
Point(p16 + 18) = {19.65819709562148, -0.6970840985062514, 0.1};
Point(p16 + 19) = {19.63891915850172, -0.777382485558998, 0.1};
Point(p16 + 20) = {19.63244, -0.8597079999999999, 0.1};
Point(p16 + 21) = {19.63891915850172, -0.9420335144410019, 0.1};
Point(p16 + 22) = {19.65819709562148, -1.022331901493749, 0.1};
Point(p16 + 23) = {19.68979912456758, -1.098625948373933, 0.1};
Point(p16 + 24) = {19.73294709850625, -1.169037042441941, 0.1};
Point(p16 + 25) = {19.78657857111921, -1.231831428880795, 0.1};
Point(p16 + 26) = {19.84937295755806, -1.285462901493749, 0.1};
Point(p16 + 27) = {19.91978405162607, -1.328610875432419, 0.1};
Point(p16 + 28) = {19.99607809850625, -1.36021290437852, 0.1};
Point(p16 + 29) = {20.076376485559, -1.379490841498278, 0.1};
Point(p16 + 30) = {20.158702, -1.38597, 0.1};
Point(p16 + 31) = {20.241027514441, -1.379490841498278, 0.1};
Point(p16 + 32) = {20.32132590149375, -1.36021290437852, 0.1};
Point(p16 + 33) = {20.39761994837394, -1.328610875432419, 0.1};
Point(p16 + 34) = {20.46803104244194, -1.285462901493749, 0.1};
Point(p16 + 35) = {20.5308254288808, -1.231831428880795, 0.1};
Point(p16 + 36) = {20.58445690149375, -1.169037042441942, 0.1};
Point(p16 + 37) = {20.62760487543242, -1.098625948373934, 0.1};
Point(p16 + 38) = {20.65920690437852, -1.022331901493749, 0.1};
Point(p16 + 39) = {20.67848484149828, -0.9420335144410021, 0.1};
Spline(16) = {11, p16 + 1, p16 + 2, p16 + 3, p16 + 4, p16 + 5, p16 + 6, p16 + 7, p16 + 8, p16 + 9, p16 + 10, p16 + 11, p16 + 12, p16 + 13, p16 + 14, p16 + 15, p16 + 16, p16 + 17, p16 + 18, p16 + 19, p16 + 20, p16 + 21, p16 + 22, p16 + 23, p16 + 24, p16 + 25, p16 + 26, p16 + 27, p16 + 28, p16 + 29, p16 + 30, p16 + 31, p16 + 32, p16 + 33, p16 + 34, p16 + 35, p16 + 36, p16 + 37, p16 + 38, p16 + 39, 11};
Line(17) = {12, 11};
p18 = newp;
Point(p18 + 1) = {20.67848484149828, -0.777382485558998, 0};
Point(p18 + 2) = {20.65920690437852, -0.6970840985062514, 0};
Point(p18 + 3) = {20.62760487543242, -0.6207900516260667, 0};
Point(p18 + 4) = {20.58445690149375, -0.5503789575580585, 0};
Point(p18 + 5) = {20.5308254288808, -0.4875845711192052, 0};
Point(p18 + 6) = {20.46803104244194, -0.4339530985062515, 0};
Point(p18 + 7) = {20.39761994837394, -0.3908051245675812, 0};
Point(p18 + 8) = {20.32132590149375, -0.3592030956214799, 0};
Point(p18 + 9) = {20.241027514441, -0.3399251585017217, 0};
Point(p18 + 10) = {20.158702, -0.333446, 0};
Point(p18 + 11) = {20.076376485559, -0.3399251585017217, 0};
Point(p18 + 12) = {19.99607809850625, -0.3592030956214799, 0};
Point(p18 + 13) = {19.91978405162607, -0.3908051245675812, 0};
Point(p18 + 14) = {19.84937295755806, -0.4339530985062514, 0};
Point(p18 + 15) = {19.78657857111921, -0.4875845711192051, 0};
Point(p18 + 16) = {19.73294709850625, -0.5503789575580584, 0};
Point(p18 + 17) = {19.68979912456758, -0.6207900516260666, 0};
Point(p18 + 18) = {19.65819709562148, -0.6970840985062514, 0};
Point(p18 + 19) = {19.63891915850172, -0.777382485558998, 0};
Point(p18 + 20) = {19.63244, -0.8597079999999999, 0};
Point(p18 + 21) = {19.63891915850172, -0.9420335144410019, 0};
Point(p18 + 22) = {19.65819709562148, -1.022331901493749, 0};
Point(p18 + 23) = {19.68979912456758, -1.098625948373933, 0};
Point(p18 + 24) = {19.73294709850625, -1.169037042441941, 0};
Point(p18 + 25) = {19.78657857111921, -1.231831428880795, 0};
Point(p18 + 26) = {19.84937295755806, -1.285462901493749, 0};
Point(p18 + 27) = {19.91978405162607, -1.328610875432419, 0};
Point(p18 + 28) = {19.99607809850625, -1.36021290437852, 0};
Point(p18 + 29) = {20.076376485559, -1.379490841498278, 0};
Point(p18 + 30) = {20.158702, -1.38597, 0};
Point(p18 + 31) = {20.241027514441, -1.379490841498278, 0};
Point(p18 + 32) = {20.32132590149375, -1.36021290437852, 0};
Point(p18 + 33) = {20.39761994837394, -1.328610875432419, 0};
Point(p18 + 34) = {20.46803104244194, -1.285462901493749, 0};
Point(p18 + 35) = {20.5308254288808, -1.231831428880795, 0};
Point(p18 + 36) = {20.58445690149375, -1.169037042441942, 0};
Point(p18 + 37) = {20.62760487543242, -1.098625948373934, 0};
Point(p18 + 38) = {20.65920690437852, -1.022331901493749, 0};
Point(p18 + 39) = {20.67848484149828, -0.9420335144410021, 0};
Spline(18) = {12, p18 + 1, p18 + 2, p18 + 3, p18 + 4, p18 + 5, p18 + 6, p18 + 7, p18 + 8, p18 + 9, p18 + 10, p18 + 11, p18 + 12, p18 + 13, p18 + 14, p18 + 15, p18 + 16, p18 + 17, p18 + 18, p18 + 19, p18 + 20, p18 + 21, p18 + 22, p18 + 23, p18 + 24, p18 + 25, p18 + 26, p18 + 27, p18 + 28, p18 + 29, p18 + 30, p18 + 31, p18 + 32, p18 + 33, p18 + 34, p18 + 35, p18 + 36, p18 + 37, p18 + 38, p18 + 39, 12};
Line(19) = {14, 13};
Line(20) = {13, 15};
Line(21) = {16, 15};
Line(22) = {14, 16};
Line(23) = {14, 17};
Line(24) = {17, 18};
Line(25) = {13, 18};
Line(26) = {15, 19};
Line(27) = {18, 19};
Line(28) = {16, 20};
Line(29) = {20, 19};
Line(30) = {17, 20};
Curve Loop(7) = {-13, -14, 15, 14};
Surface(7) = {7};
Curve Loop(8) = {13};
Plane Surface(8) = {8};
Curve Loop(9) = {15};
Plane Surface(9) = {9};
Curve Loop(10) = {-16, -17, 18, 17};
Surface(10) = {10};
Curve Loop(11) = {16};
Plane Surface(11) = {11};
Curve Loop(12) = {18};
Plane Surface(12) = {12};
Curve Loop(13) = {-19, 22, 21, -20};
Plane Surface(13) = {13};
Curve Loop(14) = {-23, 19, 25, -24};
Plane Surface(14) = {14};
Curve Loop(15) = {-20, 25, 27, -26, -13, -16};
Plane Surface(15) = {15};
Curve Loop(16) = {-28, 21, 26, -29};
Plane Surface(16) = {16};
Curve Loop(17) = {-22, 23, 30, -28, -15, -18};
Plane Surface(17) = {17};
Curve Loop(18) = {-24, 30, 29, -27};
Plane Surface(18) = {18};
Surface Loop(1) = {13, 14, 15, 16, 17, 18, 7, 10};
Volume(1) = {1};
Surface Loop(2) = {7, 8, 9};
Volume(2) = {2};
Surface Loop(3) = {10, 11, 12};
Volume(3) = {3};
Physical Surface("WALLS") = {13, 18};
Physical Surface("LOAD") = {8, 11};
Physical Surface("BORDER") = {7, 9, 10, 12, 14, 15, 16, 17};
Physical Volume("SOLID") = {1, 2, 3};
