cl__1 = 0.136484;
cl__2 = 0.07376000000000001;
cl__3 = 4.776534;
cl__4 = 4.711722;
cl__5 = 0.387017;
cl__6 = 0.252411;
Point(9) = {34.471938, 1.857552, 0.1, cl__1};
Point(10) = {34.471938, 1.857552, 0, cl__1};
Point(11) = {29.053411, 0.4752269999999998, 0.1, cl__2};
Point(12) = {29.053411, 0.4752269999999998, 0, cl__2};
Point(13) = {0.753594, -3.845794, 0.1, cl__3};
Point(14) = {0.753594, -3.845794, 0, cl__3};
Point(15) = {0.753594, 3.910406, 0.1, cl__4};
Point(16) = {0.753594, 3.910406, 0, cl__4};
Point(17) = {38.140262, -3.845794, 0, cl__5};
Point(18) = {38.140262, -3.845794, 0.1, cl__5};
Point(19) = {38.140262, 3.910406, 0.1, cl__6};
Point(20) = {38.140262, 3.910406, 0, cl__6};
p13 = newp;
Point(p13 + 1) = {34.45513454246621, 2.071060171699974, 0.1};
Point(p13 + 2) = {34.40513792675679, 2.279311063619698, 0.1};
Point(p13 + 3) = {34.32317923547978, 2.477176847655023, 0.1};
Point(p13 + 4) = {34.2112765636197, 2.659785411524112, 0.1};
Point(p13 + 5) = {34.07218532634143, 2.822640326341429, 0.1};
Point(p13 + 6) = {33.90933041152412, 2.961731563619697, 0.1};
Point(p13 + 7) = {33.72672184765503, 3.073634235479776, 0.1};
Point(p13 + 8) = {33.5288560636197, 3.155592926756793, 0.1};
Point(p13 + 9) = {33.32060517169997, 3.205589542466209, 0.1};
Point(p13 + 10) = {33.107097, 3.222393, 0.1};
Point(p13 + 11) = {32.89358882830003, 3.205589542466209, 0.1};
Point(p13 + 12) = {32.68533793638031, 3.155592926756794, 0.1};
Point(p13 + 13) = {32.48747215234498, 3.073634235479776, 0.1};
Point(p13 + 14) = {32.30486358847589, 2.961731563619698, 0.1};
Point(p13 + 15) = {32.14200867365857, 2.822640326341429, 0.1};
Point(p13 + 16) = {32.00291743638031, 2.659785411524112, 0.1};
Point(p13 + 17) = {31.89101476452023, 2.477176847655023, 0.1};
Point(p13 + 18) = {31.80905607324321, 2.279311063619698, 0.1};
Point(p13 + 19) = {31.75905945753379, 2.071060171699974, 0.1};
Point(p13 + 20) = {31.742256, 1.857552, 0.1};
Point(p13 + 21) = {31.75905945753379, 1.644043828300026, 0.1};
Point(p13 + 22) = {31.80905607324321, 1.435792936380302, 0.1};
Point(p13 + 23) = {31.89101476452023, 1.237927152344978, 0.1};
Point(p13 + 24) = {32.00291743638031, 1.055318588475889, 0.1};
Point(p13 + 25) = {32.14200867365857, 0.8924636736585715, 0.1};
Point(p13 + 26) = {32.30486358847589, 0.7533724363803027, 0.1};
Point(p13 + 27) = {32.48747215234498, 0.6414697645202241, 0.1};
Point(p13 + 28) = {32.68533793638031, 0.5595110732432065, 0.1};
Point(p13 + 29) = {32.89358882830003, 0.5095144575337918, 0.1};
Point(p13 + 30) = {33.107097, 0.4927110000000001, 0.1};
Point(p13 + 31) = {33.32060517169997, 0.5095144575337918, 0.1};
Point(p13 + 32) = {33.5288560636197, 0.5595110732432063, 0.1};
Point(p13 + 33) = {33.72672184765503, 0.6414697645202236, 0.1};
Point(p13 + 34) = {33.90933041152412, 0.7533724363803023, 0.1};
Point(p13 + 35) = {34.07218532634143, 0.8924636736585712, 0.1};
Point(p13 + 36) = {34.2112765636197, 1.055318588475889, 0.1};
Point(p13 + 37) = {34.32317923547978, 1.237927152344977, 0.1};
Point(p13 + 38) = {34.40513792675679, 1.435792936380302, 0.1};
Point(p13 + 39) = {34.45513454246621, 1.644043828300026, 0.1};
Spline(13) = {9, p13 + 1, p13 + 2, p13 + 3, p13 + 4, p13 + 5, p13 + 6, p13 + 7, p13 + 8, p13 + 9, p13 + 10, p13 + 11, p13 + 12, p13 + 13, p13 + 14, p13 + 15, p13 + 16, p13 + 17, p13 + 18, p13 + 19, p13 + 20, p13 + 21, p13 + 22, p13 + 23, p13 + 24, p13 + 25, p13 + 26, p13 + 27, p13 + 28, p13 + 29, p13 + 30, p13 + 31, p13 + 32, p13 + 33, p13 + 34, p13 + 35, p13 + 36, p13 + 37, p13 + 38, p13 + 39, 9};
Line(14) = {10, 9};
p15 = newp;
Point(p15 + 1) = {34.45513454246621, 2.071060171699974, 0};
Point(p15 + 2) = {34.40513792675679, 2.279311063619698, 0};
Point(p15 + 3) = {34.32317923547978, 2.477176847655023, 0};
Point(p15 + 4) = {34.2112765636197, 2.659785411524112, 0};
Point(p15 + 5) = {34.07218532634143, 2.822640326341429, 0};
Point(p15 + 6) = {33.90933041152412, 2.961731563619697, 0};
Point(p15 + 7) = {33.72672184765503, 3.073634235479776, 0};
Point(p15 + 8) = {33.5288560636197, 3.155592926756793, 0};
Point(p15 + 9) = {33.32060517169997, 3.205589542466209, 0};
Point(p15 + 10) = {33.107097, 3.222393, 0};
Point(p15 + 11) = {32.89358882830003, 3.205589542466209, 0};
Point(p15 + 12) = {32.68533793638031, 3.155592926756794, 0};
Point(p15 + 13) = {32.48747215234498, 3.073634235479776, 0};
Point(p15 + 14) = {32.30486358847589, 2.961731563619698, 0};
Point(p15 + 15) = {32.14200867365857, 2.822640326341429, 0};
Point(p15 + 16) = {32.00291743638031, 2.659785411524112, 0};
Point(p15 + 17) = {31.89101476452023, 2.477176847655023, 0};
Point(p15 + 18) = {31.80905607324321, 2.279311063619698, 0};
Point(p15 + 19) = {31.75905945753379, 2.071060171699974, 0};
Point(p15 + 20) = {31.742256, 1.857552, 0};
Point(p15 + 21) = {31.75905945753379, 1.644043828300026, 0};
Point(p15 + 22) = {31.80905607324321, 1.435792936380302, 0};
Point(p15 + 23) = {31.89101476452023, 1.237927152344978, 0};
Point(p15 + 24) = {32.00291743638031, 1.055318588475889, 0};
Point(p15 + 25) = {32.14200867365857, 0.8924636736585715, 0};
Point(p15 + 26) = {32.30486358847589, 0.7533724363803027, 0};
Point(p15 + 27) = {32.48747215234498, 0.6414697645202241, 0};
Point(p15 + 28) = {32.68533793638031, 0.5595110732432065, 0};
Point(p15 + 29) = {32.89358882830003, 0.5095144575337918, 0};
Point(p15 + 30) = {33.107097, 0.4927110000000001, 0};
Point(p15 + 31) = {33.32060517169997, 0.5095144575337918, 0};
Point(p15 + 32) = {33.5288560636197, 0.5595110732432063, 0};
Point(p15 + 33) = {33.72672184765503, 0.6414697645202236, 0};
Point(p15 + 34) = {33.90933041152412, 0.7533724363803023, 0};
Point(p15 + 35) = {34.07218532634143, 0.8924636736585712, 0};
Point(p15 + 36) = {34.2112765636197, 1.055318588475889, 0};
Point(p15 + 37) = {34.32317923547978, 1.237927152344977, 0};
Point(p15 + 38) = {34.40513792675679, 1.435792936380302, 0};
Point(p15 + 39) = {34.45513454246621, 1.644043828300026, 0};
Spline(15) = {10, p15 + 1, p15 + 2, p15 + 3, p15 + 4, p15 + 5, p15 + 6, p15 + 7, p15 + 8, p15 + 9, p15 + 10, p15 + 11, p15 + 12, p15 + 13, p15 + 14, p15 + 15, p15 + 16, p15 + 17, p15 + 18, p15 + 19, p15 + 20, p15 + 21, p15 + 22, p15 + 23, p15 + 24, p15 + 25, p15 + 26, p15 + 27, p15 + 28, p15 + 29, p15 + 30, p15 + 31, p15 + 32, p15 + 33, p15 + 34, p15 + 35, p15 + 36, p15 + 37, p15 + 38, p15 + 39, 10};
p16 = newp;
Point(p16 + 1) = {29.04432998158127, 0.5906122792413491, 0.1};
Point(p16 + 2) = {29.01731053113673, 0.7031563899659894, 0.1};
Point(p16 + 3) = {28.97301795720872, 0.810088122655391, 0.1};
Point(p16 + 4) = {28.91254288996599, 0.9087744631646668, 0.1};
Point(p16 + 5) = {28.83737442626929, 0.9967854262692915, 0.1};
Point(p16 + 6) = {28.74936346316467, 1.071953889965989, 0.1};
Point(p16 + 7) = {28.65067712265539, 1.132428957208719, 0.1};
Point(p16 + 8) = {28.54374538996599, 1.176721531136724, 0.1};
Point(p16 + 9) = {28.43120127924135, 1.203740981581271, 0.1};
Point(p16 + 10) = {28.315816, 1.212822, 0.1};
Point(p16 + 11) = {28.20043072075865, 1.203740981581271, 0.1};
Point(p16 + 12) = {28.08788661003401, 1.176721531136724, 0.1};
Point(p16 + 13) = {27.98095487734461, 1.132428957208719, 0.1};
Point(p16 + 14) = {27.88226853683533, 1.071953889965989, 0.1};
Point(p16 + 15) = {27.79425757373071, 0.9967854262692917, 0.1};
Point(p16 + 16) = {27.71908911003401, 0.9087744631646668, 0.1};
Point(p16 + 17) = {27.65861404279128, 0.8100881226553911, 0.1};
Point(p16 + 18) = {27.61432146886328, 0.7031563899659894, 0.1};
Point(p16 + 19) = {27.58730201841873, 0.5906122792413492, 0.1};
Point(p16 + 20) = {27.578221, 0.4752270000000001, 0.1};
Point(p16 + 21) = {27.58730201841873, 0.359841720758651, 0.1};
Point(p16 + 22) = {27.61432146886328, 0.2472976100340104, 0.1};
Point(p16 + 23) = {27.65861404279128, 0.1403658773446094, 0.1};
Point(p16 + 24) = {27.71908911003401, 0.04167953683533338, 0.1};
Point(p16 + 25) = {27.79425757373071, -0.04633142626929149, 0.1};
Point(p16 + 26) = {27.88226853683533, -0.1214998899659893, 0.1};
Point(p16 + 27) = {27.98095487734461, -0.1819749572087191, 0.1};
Point(p16 + 28) = {28.08788661003401, -0.2262675311367238, 0.1};
Point(p16 + 29) = {28.20043072075865, -0.2532869815812706, 0.1};
Point(p16 + 30) = {28.315816, -0.262368, 0.1};
Point(p16 + 31) = {28.43120127924135, -0.2532869815812707, 0.1};
Point(p16 + 32) = {28.54374538996599, -0.2262675311367239, 0.1};
Point(p16 + 33) = {28.65067712265539, -0.1819749572087193, 0.1};
Point(p16 + 34) = {28.74936346316467, -0.1214998899659894, 0.1};
Point(p16 + 35) = {28.83737442626929, -0.0463314262692916, 0.1};
Point(p16 + 36) = {28.91254288996599, 0.04167953683533321, 0.1};
Point(p16 + 37) = {28.97301795720872, 0.1403658773446089, 0.1};
Point(p16 + 38) = {29.01731053113673, 0.2472976100340105, 0.1};
Point(p16 + 39) = {29.04432998158127, 0.3598417207586507, 0.1};
Spline(16) = {11, p16 + 1, p16 + 2, p16 + 3, p16 + 4, p16 + 5, p16 + 6, p16 + 7, p16 + 8, p16 + 9, p16 + 10, p16 + 11, p16 + 12, p16 + 13, p16 + 14, p16 + 15, p16 + 16, p16 + 17, p16 + 18, p16 + 19, p16 + 20, p16 + 21, p16 + 22, p16 + 23, p16 + 24, p16 + 25, p16 + 26, p16 + 27, p16 + 28, p16 + 29, p16 + 30, p16 + 31, p16 + 32, p16 + 33, p16 + 34, p16 + 35, p16 + 36, p16 + 37, p16 + 38, p16 + 39, 11};
Line(17) = {12, 11};
p18 = newp;
Point(p18 + 1) = {29.04432998158127, 0.5906122792413491, 0};
Point(p18 + 2) = {29.01731053113673, 0.7031563899659894, 0};
Point(p18 + 3) = {28.97301795720872, 0.810088122655391, 0};
Point(p18 + 4) = {28.91254288996599, 0.9087744631646668, 0};
Point(p18 + 5) = {28.83737442626929, 0.9967854262692915, 0};
Point(p18 + 6) = {28.74936346316467, 1.071953889965989, 0};
Point(p18 + 7) = {28.65067712265539, 1.132428957208719, 0};
Point(p18 + 8) = {28.54374538996599, 1.176721531136724, 0};
Point(p18 + 9) = {28.43120127924135, 1.203740981581271, 0};
Point(p18 + 10) = {28.315816, 1.212822, 0};
Point(p18 + 11) = {28.20043072075865, 1.203740981581271, 0};
Point(p18 + 12) = {28.08788661003401, 1.176721531136724, 0};
Point(p18 + 13) = {27.98095487734461, 1.132428957208719, 0};
Point(p18 + 14) = {27.88226853683533, 1.071953889965989, 0};
Point(p18 + 15) = {27.79425757373071, 0.9967854262692917, 0};
Point(p18 + 16) = {27.71908911003401, 0.9087744631646668, 0};
Point(p18 + 17) = {27.65861404279128, 0.8100881226553911, 0};
Point(p18 + 18) = {27.61432146886328, 0.7031563899659894, 0};
Point(p18 + 19) = {27.58730201841873, 0.5906122792413492, 0};
Point(p18 + 20) = {27.578221, 0.4752270000000001, 0};
Point(p18 + 21) = {27.58730201841873, 0.359841720758651, 0};
Point(p18 + 22) = {27.61432146886328, 0.2472976100340104, 0};
Point(p18 + 23) = {27.65861404279128, 0.1403658773446094, 0};
Point(p18 + 24) = {27.71908911003401, 0.04167953683533338, 0};
Point(p18 + 25) = {27.79425757373071, -0.04633142626929149, 0};
Point(p18 + 26) = {27.88226853683533, -0.1214998899659893, 0};
Point(p18 + 27) = {27.98095487734461, -0.1819749572087191, 0};
Point(p18 + 28) = {28.08788661003401, -0.2262675311367238, 0};
Point(p18 + 29) = {28.20043072075865, -0.2532869815812706, 0};
Point(p18 + 30) = {28.315816, -0.262368, 0};
Point(p18 + 31) = {28.43120127924135, -0.2532869815812707, 0};
Point(p18 + 32) = {28.54374538996599, -0.2262675311367239, 0};
Point(p18 + 33) = {28.65067712265539, -0.1819749572087193, 0};
Point(p18 + 34) = {28.74936346316467, -0.1214998899659894, 0};
Point(p18 + 35) = {28.83737442626929, -0.0463314262692916, 0};
Point(p18 + 36) = {28.91254288996599, 0.04167953683533321, 0};
Point(p18 + 37) = {28.97301795720872, 0.1403658773446089, 0};
Point(p18 + 38) = {29.01731053113673, 0.2472976100340105, 0};
Point(p18 + 39) = {29.04432998158127, 0.3598417207586507, 0};
Spline(18) = {12, p18 + 1, p18 + 2, p18 + 3, p18 + 4, p18 + 5, p18 + 6, p18 + 7, p18 + 8, p18 + 9, p18 + 10, p18 + 11, p18 + 12, p18 + 13, p18 + 14, p18 + 15, p18 + 16, p18 + 17, p18 + 18, p18 + 19, p18 + 20, p18 + 21, p18 + 22, p18 + 23, p18 + 24, p18 + 25, p18 + 26, p18 + 27, p18 + 28, p18 + 29, p18 + 30, p18 + 31, p18 + 32, p18 + 33, p18 + 34, p18 + 35, p18 + 36, p18 + 37, p18 + 38, p18 + 39, 12};
Line(19) = {14, 13};
Line(20) = {13, 15};
Line(21) = {16, 15};
Line(22) = {14, 16};
Line(23) = {14, 17};
Line(24) = {17, 18};
Line(25) = {13, 18};
Line(26) = {15, 19};
Line(27) = {18, 19};
Line(28) = {16, 20};
Line(29) = {20, 19};
Line(30) = {17, 20};
Curve Loop(7) = {-13, -14, 15, 14};
Surface(7) = {7};
Curve Loop(8) = {13};
Plane Surface(8) = {8};
Curve Loop(9) = {15};
Plane Surface(9) = {9};
Curve Loop(10) = {-16, -17, 18, 17};
Surface(10) = {10};
Curve Loop(11) = {16};
Plane Surface(11) = {11};
Curve Loop(12) = {18};
Plane Surface(12) = {12};
Curve Loop(13) = {-19, 22, 21, -20};
Plane Surface(13) = {13};
Curve Loop(14) = {-23, 19, 25, -24};
Plane Surface(14) = {14};
Curve Loop(15) = {-20, 25, 27, -26, -16, -13};
Plane Surface(15) = {15};
Curve Loop(16) = {-28, 21, 26, -29};
Plane Surface(16) = {16};
Curve Loop(17) = {-22, 23, 30, -28, -18, -15};
Plane Surface(17) = {17};
Curve Loop(18) = {-24, 30, 29, -27};
Plane Surface(18) = {18};
Surface Loop(1) = {13, 14, 15, 16, 17, 18, 10, 7};
Volume(1) = {1};
Surface Loop(2) = {7, 8, 9};
Volume(2) = {2};
Surface Loop(3) = {10, 11, 12};
Volume(3) = {3};
Physical Surface("WALLS") = {13, 18};
Physical Surface("LOAD") = {8, 11};
Physical Surface("BORDER") = {7, 9, 10, 12, 14, 15, 16, 17};
Physical Volume("SOLID") = {1, 2, 3};
