cl__1 = 0.106371;
cl__2 = 0.066908;
cl__3 = 0.518861;
cl__4 = 0.695109;
cl__5 = 3.346226;
cl__6 = 2.148211;
Point(9) = {30.745303, 2.155222999999999, 0.1, cl__1};
Point(10) = {30.745303, 2.155222999999999, 0, cl__1};
Point(11) = {3.101579, -0.2548560000000002, 0.1, cl__2};
Point(12) = {3.101579, -0.2548560000000002, 0, cl__2};
Point(13) = {0.733815, -4.326763, 0.1, cl__3};
Point(14) = {0.733815, -4.326763, 0, cl__3};
Point(15) = {0.733815, 5.168795000000001, 0.1, cl__4};
Point(16) = {0.733815, 5.168795000000001, 0, cl__4};
Point(17) = {39.605813, -4.326763, 0, cl__5};
Point(18) = {39.605813, -4.326763, 0.1, cl__5};
Point(19) = {39.605813, 5.168795000000001, 0.1, cl__6};
Point(20) = {39.605813, 5.168795000000001, 0, cl__6};
p13 = newp;
Point(p13 + 1) = {30.73220701402109, 2.321623279070084, 0.1};
Point(p13 + 2) = {30.69324152272225, 2.483926231018598, 0.1};
Point(p13 + 3) = {30.62936598581831, 2.638135418515954, 0.1};
Point(p13 + 4) = {30.5421532310186, 2.780453699575017, 0.1};
Point(p13 + 5) = {30.43375072578882, 2.907376725788818, 0.1};
Point(p13 + 6) = {30.30682769957502, 3.015779231018598, 0.1};
Point(p13 + 7) = {30.16450941851596, 3.102991985818312, 0.1};
Point(p13 + 8) = {30.0103002310186, 3.166867522722252, 0.1};
Point(p13 + 9) = {29.84799727907009, 3.205833014021092, 0.1};
Point(p13 + 10) = {29.681597, 3.218929, 0.1};
Point(p13 + 11) = {29.51519672092991, 3.205833014021091, 0.1};
Point(p13 + 12) = {29.3528937689814, 3.166867522722253, 0.1};
Point(p13 + 13) = {29.19868458148404, 3.102991985818312, 0.1};
Point(p13 + 14) = {29.05636630042498, 3.015779231018598, 0.1};
Point(p13 + 15) = {28.92944327421118, 2.907376725788818, 0.1};
Point(p13 + 16) = {28.8210407689814, 2.780453699575018, 0.1};
Point(p13 + 17) = {28.73382801418169, 2.638135418515954, 0.1};
Point(p13 + 18) = {28.66995247727775, 2.483926231018598, 0.1};
Point(p13 + 19) = {28.63098698597891, 2.321623279070084, 0.1};
Point(p13 + 20) = {28.617891, 2.155223, 0.1};
Point(p13 + 21) = {28.63098698597891, 1.988822720929916, 0.1};
Point(p13 + 22) = {28.66995247727775, 1.826519768981402, 0.1};
Point(p13 + 23) = {28.73382801418169, 1.672310581484046, 0.1};
Point(p13 + 24) = {28.8210407689814, 1.529992300424983, 0.1};
Point(p13 + 25) = {28.92944327421118, 1.403069274211182, 0.1};
Point(p13 + 26) = {29.05636630042498, 1.294666768981402, 0.1};
Point(p13 + 27) = {29.19868458148404, 1.207454014181688, 0.1};
Point(p13 + 28) = {29.3528937689814, 1.143578477277747, 0.1};
Point(p13 + 29) = {29.51519672092991, 1.104612985978908, 0.1};
Point(p13 + 30) = {29.681597, 1.091517, 0.1};
Point(p13 + 31) = {29.84799727907008, 1.104612985978908, 0.1};
Point(p13 + 32) = {30.0103002310186, 1.143578477277747, 0.1};
Point(p13 + 33) = {30.16450941851596, 1.207454014181688, 0.1};
Point(p13 + 34) = {30.30682769957502, 1.294666768981402, 0.1};
Point(p13 + 35) = {30.43375072578882, 1.403069274211182, 0.1};
Point(p13 + 36) = {30.5421532310186, 1.529992300424982, 0.1};
Point(p13 + 37) = {30.62936598581831, 1.672310581484045, 0.1};
Point(p13 + 38) = {30.69324152272225, 1.826519768981402, 0.1};
Point(p13 + 39) = {30.73220701402109, 1.988822720929916, 0.1};
Spline(13) = {9, p13 + 1, p13 + 2, p13 + 3, p13 + 4, p13 + 5, p13 + 6, p13 + 7, p13 + 8, p13 + 9, p13 + 10, p13 + 11, p13 + 12, p13 + 13, p13 + 14, p13 + 15, p13 + 16, p13 + 17, p13 + 18, p13 + 19, p13 + 20, p13 + 21, p13 + 22, p13 + 23, p13 + 24, p13 + 25, p13 + 26, p13 + 27, p13 + 28, p13 + 29, p13 + 30, p13 + 31, p13 + 32, p13 + 33, p13 + 34, p13 + 35, p13 + 36, p13 + 37, p13 + 38, p13 + 39, 9};
Line(14) = {10, 9};
p15 = newp;
Point(p15 + 1) = {30.73220701402109, 2.321623279070084, 0};
Point(p15 + 2) = {30.69324152272225, 2.483926231018598, 0};
Point(p15 + 3) = {30.62936598581831, 2.638135418515954, 0};
Point(p15 + 4) = {30.5421532310186, 2.780453699575017, 0};
Point(p15 + 5) = {30.43375072578882, 2.907376725788818, 0};
Point(p15 + 6) = {30.30682769957502, 3.015779231018598, 0};
Point(p15 + 7) = {30.16450941851596, 3.102991985818312, 0};
Point(p15 + 8) = {30.0103002310186, 3.166867522722252, 0};
Point(p15 + 9) = {29.84799727907009, 3.205833014021092, 0};
Point(p15 + 10) = {29.681597, 3.218929, 0};
Point(p15 + 11) = {29.51519672092991, 3.205833014021091, 0};
Point(p15 + 12) = {29.3528937689814, 3.166867522722253, 0};
Point(p15 + 13) = {29.19868458148404, 3.102991985818312, 0};
Point(p15 + 14) = {29.05636630042498, 3.015779231018598, 0};
Point(p15 + 15) = {28.92944327421118, 2.907376725788818, 0};
Point(p15 + 16) = {28.8210407689814, 2.780453699575018, 0};
Point(p15 + 17) = {28.73382801418169, 2.638135418515954, 0};
Point(p15 + 18) = {28.66995247727775, 2.483926231018598, 0};
Point(p15 + 19) = {28.63098698597891, 2.321623279070084, 0};
Point(p15 + 20) = {28.617891, 2.155223, 0};
Point(p15 + 21) = {28.63098698597891, 1.988822720929916, 0};
Point(p15 + 22) = {28.66995247727775, 1.826519768981402, 0};
Point(p15 + 23) = {28.73382801418169, 1.672310581484046, 0};
Point(p15 + 24) = {28.8210407689814, 1.529992300424983, 0};
Point(p15 + 25) = {28.92944327421118, 1.403069274211182, 0};
Point(p15 + 26) = {29.05636630042498, 1.294666768981402, 0};
Point(p15 + 27) = {29.19868458148404, 1.207454014181688, 0};
Point(p15 + 28) = {29.3528937689814, 1.143578477277747, 0};
Point(p15 + 29) = {29.51519672092991, 1.104612985978908, 0};
Point(p15 + 30) = {29.681597, 1.091517, 0};
Point(p15 + 31) = {29.84799727907008, 1.104612985978908, 0};
Point(p15 + 32) = {30.0103002310186, 1.143578477277747, 0};
Point(p15 + 33) = {30.16450941851596, 1.207454014181688, 0};
Point(p15 + 34) = {30.30682769957502, 1.294666768981402, 0};
Point(p15 + 35) = {30.43375072578882, 1.403069274211182, 0};
Point(p15 + 36) = {30.5421532310186, 1.529992300424982, 0};
Point(p15 + 37) = {30.62936598581831, 1.672310581484045, 0};
Point(p15 + 38) = {30.69324152272225, 1.826519768981402, 0};
Point(p15 + 39) = {30.73220701402109, 1.988822720929916, 0};
Spline(15) = {10, p15 + 1, p15 + 2, p15 + 3, p15 + 4, p15 + 5, p15 + 6, p15 + 7, p15 + 8, p15 + 9, p15 + 10, p15 + 11, p15 + 12, p15 + 13, p15 + 14, p15 + 15, p15 + 16, p15 + 17, p15 + 18, p15 + 19, p15 + 20, p15 + 21, p15 + 22, p15 + 23, p15 + 24, p15 + 25, p15 + 26, p15 + 27, p15 + 28, p15 + 29, p15 + 30, p15 + 31, p15 + 32, p15 + 33, p15 + 34, p15 + 35, p15 + 36, p15 + 37, p15 + 38, p15 + 39, 10};
p16 = newp;
Point(p16 + 1) = {3.093341527237054, -0.1501889845653474, 0.1};
Point(p16 + 2) = {3.068831942866245, -0.04809921842060461, 0.1};
Point(p16 + 3) = {3.028653754197429, 0.04889950957523614, 0.1};
Point(p16 + 4) = {2.973796281579395, 0.1384187688185956, 0.1};
Point(p16 + 5) = {2.905610298049514, 0.218254298049514, 0.1};
Point(p16 + 6) = {2.825774768818596, 0.2864402815793953, 0.1};
Point(p16 + 7) = {2.736255509575236, 0.3412977541974289, 0.1};
Point(p16 + 8) = {2.639256781579395, 0.381475942866245, 0.1};
Point(p16 + 9) = {2.537167015434653, 0.4059855272370541, 0.1};
Point(p16 + 10) = {2.4325, 0.414223, 0.1};
Point(p16 + 11) = {2.327832984565347, 0.4059855272370541, 0.1};
Point(p16 + 12) = {2.225743218420605, 0.381475942866245, 0.1};
Point(p16 + 13) = {2.128744490424764, 0.341297754197429, 0.1};
Point(p16 + 14) = {2.039225231181405, 0.2864402815793954, 0.1};
Point(p16 + 15) = {1.959389701950486, 0.218254298049514, 0.1};
Point(p16 + 16) = {1.891203718420605, 0.1384187688185957, 0.1};
Point(p16 + 17) = {1.836346245802571, 0.04889950957523626, 0.1};
Point(p16 + 18) = {1.796168057133755, -0.04809921842060452, 0.1};
Point(p16 + 19) = {1.771658472762946, -0.1501889845653473, 0.1};
Point(p16 + 20) = {1.763421, -0.254856, 0.1};
Point(p16 + 21) = {1.771658472762946, -0.3595230154346526, 0.1};
Point(p16 + 22) = {1.796168057133755, -0.4616127815793957, 0.1};
Point(p16 + 23) = {1.836346245802571, -0.558611509575236, 0.1};
Point(p16 + 24) = {1.891203718420605, -0.6481307688185955, 0.1};
Point(p16 + 25) = {1.959389701950486, -0.7279662980495141, 0.1};
Point(p16 + 26) = {2.039225231181404, -0.7961522815793953, 0.1};
Point(p16 + 27) = {2.128744490424764, -0.8510097541974289, 0.1};
Point(p16 + 28) = {2.225743218420605, -0.891187942866245, 0.1};
Point(p16 + 29) = {2.327832984565347, -0.9156975272370542, 0.1};
Point(p16 + 30) = {2.4325, -0.923935, 0.1};
Point(p16 + 31) = {2.537167015434652, -0.9156975272370542, 0.1};
Point(p16 + 32) = {2.639256781579395, -0.891187942866245, 0.1};
Point(p16 + 33) = {2.736255509575236, -0.8510097541974291, 0.1};
Point(p16 + 34) = {2.825774768818595, -0.7961522815793955, 0.1};
Point(p16 + 35) = {2.905610298049514, -0.7279662980495141, 0.1};
Point(p16 + 36) = {2.973796281579395, -0.6481307688185958, 0.1};
Point(p16 + 37) = {3.028653754197429, -0.5586115095752364, 0.1};
Point(p16 + 38) = {3.068831942866245, -0.4616127815793956, 0.1};
Point(p16 + 39) = {3.093341527237054, -0.3595230154346528, 0.1};
Spline(16) = {11, p16 + 1, p16 + 2, p16 + 3, p16 + 4, p16 + 5, p16 + 6, p16 + 7, p16 + 8, p16 + 9, p16 + 10, p16 + 11, p16 + 12, p16 + 13, p16 + 14, p16 + 15, p16 + 16, p16 + 17, p16 + 18, p16 + 19, p16 + 20, p16 + 21, p16 + 22, p16 + 23, p16 + 24, p16 + 25, p16 + 26, p16 + 27, p16 + 28, p16 + 29, p16 + 30, p16 + 31, p16 + 32, p16 + 33, p16 + 34, p16 + 35, p16 + 36, p16 + 37, p16 + 38, p16 + 39, 11};
Line(17) = {12, 11};
p18 = newp;
Point(p18 + 1) = {3.093341527237054, -0.1501889845653474, 0};
Point(p18 + 2) = {3.068831942866245, -0.04809921842060461, 0};
Point(p18 + 3) = {3.028653754197429, 0.04889950957523614, 0};
Point(p18 + 4) = {2.973796281579395, 0.1384187688185956, 0};
Point(p18 + 5) = {2.905610298049514, 0.218254298049514, 0};
Point(p18 + 6) = {2.825774768818596, 0.2864402815793953, 0};
Point(p18 + 7) = {2.736255509575236, 0.3412977541974289, 0};
Point(p18 + 8) = {2.639256781579395, 0.381475942866245, 0};
Point(p18 + 9) = {2.537167015434653, 0.4059855272370541, 0};
Point(p18 + 10) = {2.4325, 0.414223, 0};
Point(p18 + 11) = {2.327832984565347, 0.4059855272370541, 0};
Point(p18 + 12) = {2.225743218420605, 0.381475942866245, 0};
Point(p18 + 13) = {2.128744490424764, 0.341297754197429, 0};
Point(p18 + 14) = {2.039225231181405, 0.2864402815793954, 0};
Point(p18 + 15) = {1.959389701950486, 0.218254298049514, 0};
Point(p18 + 16) = {1.891203718420605, 0.1384187688185957, 0};
Point(p18 + 17) = {1.836346245802571, 0.04889950957523626, 0};
Point(p18 + 18) = {1.796168057133755, -0.04809921842060452, 0};
Point(p18 + 19) = {1.771658472762946, -0.1501889845653473, 0};
Point(p18 + 20) = {1.763421, -0.254856, 0};
Point(p18 + 21) = {1.771658472762946, -0.3595230154346526, 0};
Point(p18 + 22) = {1.796168057133755, -0.4616127815793957, 0};
Point(p18 + 23) = {1.836346245802571, -0.558611509575236, 0};
Point(p18 + 24) = {1.891203718420605, -0.6481307688185955, 0};
Point(p18 + 25) = {1.959389701950486, -0.7279662980495141, 0};
Point(p18 + 26) = {2.039225231181404, -0.7961522815793953, 0};
Point(p18 + 27) = {2.128744490424764, -0.8510097541974289, 0};
Point(p18 + 28) = {2.225743218420605, -0.891187942866245, 0};
Point(p18 + 29) = {2.327832984565347, -0.9156975272370542, 0};
Point(p18 + 30) = {2.4325, -0.923935, 0};
Point(p18 + 31) = {2.537167015434652, -0.9156975272370542, 0};
Point(p18 + 32) = {2.639256781579395, -0.891187942866245, 0};
Point(p18 + 33) = {2.736255509575236, -0.8510097541974291, 0};
Point(p18 + 34) = {2.825774768818595, -0.7961522815793955, 0};
Point(p18 + 35) = {2.905610298049514, -0.7279662980495141, 0};
Point(p18 + 36) = {2.973796281579395, -0.6481307688185958, 0};
Point(p18 + 37) = {3.028653754197429, -0.5586115095752364, 0};
Point(p18 + 38) = {3.068831942866245, -0.4616127815793956, 0};
Point(p18 + 39) = {3.093341527237054, -0.3595230154346528, 0};
Spline(18) = {12, p18 + 1, p18 + 2, p18 + 3, p18 + 4, p18 + 5, p18 + 6, p18 + 7, p18 + 8, p18 + 9, p18 + 10, p18 + 11, p18 + 12, p18 + 13, p18 + 14, p18 + 15, p18 + 16, p18 + 17, p18 + 18, p18 + 19, p18 + 20, p18 + 21, p18 + 22, p18 + 23, p18 + 24, p18 + 25, p18 + 26, p18 + 27, p18 + 28, p18 + 29, p18 + 30, p18 + 31, p18 + 32, p18 + 33, p18 + 34, p18 + 35, p18 + 36, p18 + 37, p18 + 38, p18 + 39, 12};
Line(19) = {14, 13};
Line(20) = {13, 15};
Line(21) = {16, 15};
Line(22) = {14, 16};
Line(23) = {14, 17};
Line(24) = {17, 18};
Line(25) = {13, 18};
Line(26) = {15, 19};
Line(27) = {18, 19};
Line(28) = {16, 20};
Line(29) = {20, 19};
Line(30) = {17, 20};
Curve Loop(7) = {-13, -14, 15, 14};
Surface(7) = {7};
Curve Loop(8) = {13};
Plane Surface(8) = {8};
Curve Loop(9) = {15};
Plane Surface(9) = {9};
Curve Loop(10) = {-16, -17, 18, 17};
Surface(10) = {10};
Curve Loop(11) = {16};
Plane Surface(11) = {11};
Curve Loop(12) = {18};
Plane Surface(12) = {12};
Curve Loop(13) = {-19, 22, 21, -20};
Plane Surface(13) = {13};
Curve Loop(14) = {-23, 19, 25, -24};
Plane Surface(14) = {14};
Curve Loop(15) = {-20, 25, 27, -26, -16, -13};
Plane Surface(15) = {15};
Curve Loop(16) = {-28, 21, 26, -29};
Plane Surface(16) = {16};
Curve Loop(17) = {-22, 23, 30, -28, -18, -15};
Plane Surface(17) = {17};
Curve Loop(18) = {-24, 30, 29, -27};
Plane Surface(18) = {18};
Surface Loop(1) = {13, 14, 15, 16, 17, 18, 10, 7};
Volume(1) = {1};
Surface Loop(2) = {7, 8, 9};
Volume(2) = {2};
Surface Loop(3) = {10, 11, 12};
Volume(3) = {3};
Physical Surface("WALLS") = {13, 18};
Physical Surface("LOAD") = {8, 11};
Physical Surface("BORDER") = {7, 9, 10, 12, 14, 15, 16, 17};
Physical Volume("SOLID") = {1, 2, 3};
