cl__1 = 0.088167;
cl__2 = 0.127894;
cl__3 = 0.787544;
cl__4 = 0.699619;
cl__5 = 2.302154;
cl__6 = 1.695453;
Point(9) = {16.252409, 3.573388, 0.1, cl__1};
Point(10) = {16.252409, 3.573388, 0, cl__1};
Point(11) = {10.99576, 2.097065999999999, 0.1, cl__2};
Point(12) = {10.99576, 2.097065999999999, 0, cl__2};
Point(13) = {0.583575, -3.917482, 0.1, cl__3};
Point(14) = {0.583575, -3.917482, 0, cl__3};
Point(15) = {0.583575, 5.806083000000001, 0.1, cl__4};
Point(16) = {0.583575, 5.806083000000001, 0, cl__4};
Point(17) = {30.712158, -3.917482, 0, cl__5};
Point(18) = {30.712158, -3.917482, 0.1, cl__5};
Point(19) = {30.712158, 5.806083000000001, 0.1, cl__6};
Point(20) = {30.712158, 5.806083000000001, 0, cl__6};
p13 = newp;
Point(p13 + 1) = {16.24155419156417, 3.711311418357556, 0.1};
Point(p13 + 2) = {16.20925704766543, 3.845838704413565, 0.1};
Point(p13 + 3) = {16.15631283117463, 3.973657349914867, 0.1};
Point(p13 + 4) = {16.08402520441356, 4.091620035603452, 0.1};
Point(p13 + 5) = {15.99417412866196, 4.196822128661962, 0.1};
Point(p13 + 6) = {15.88897203560345, 4.286673204413566, 0.1};
Point(p13 + 7) = {15.77100934991487, 4.358960831174634, 0.1};
Point(p13 + 8) = {15.64319070441356, 4.411905047665432, 0.1};
Point(p13 + 9) = {15.50866341835756, 4.444202191564175, 0.1};
Point(p13 + 10) = {15.37074, 4.455057, 0.1};
Point(p13 + 11) = {15.23281658164244, 4.444202191564175, 0.1};
Point(p13 + 12) = {15.09828929558643, 4.411905047665432, 0.1};
Point(p13 + 13) = {14.97047065008513, 4.358960831174635, 0.1};
Point(p13 + 14) = {14.85250796439655, 4.286673204413566, 0.1};
Point(p13 + 15) = {14.74730587133804, 4.196822128661962, 0.1};
Point(p13 + 16) = {14.65745479558643, 4.091620035603452, 0.1};
Point(p13 + 17) = {14.58516716882537, 3.973657349914867, 0.1};
Point(p13 + 18) = {14.53222295233457, 3.845838704413566, 0.1};
Point(p13 + 19) = {14.49992580843583, 3.711311418357556, 0.1};
Point(p13 + 20) = {14.489071, 3.573388, 0.1};
Point(p13 + 21) = {14.49992580843582, 3.435464581642445, 0.1};
Point(p13 + 22) = {14.53222295233457, 3.300937295586434, 0.1};
Point(p13 + 23) = {14.58516716882536, 3.173118650085134, 0.1};
Point(p13 + 24) = {14.65745479558643, 3.055155964396548, 0.1};
Point(p13 + 25) = {14.74730587133804, 2.949953871338038, 0.1};
Point(p13 + 26) = {14.85250796439655, 2.860102795586434, 0.1};
Point(p13 + 27) = {14.97047065008513, 2.787815168825366, 0.1};
Point(p13 + 28) = {15.09828929558643, 2.734870952334568, 0.1};
Point(p13 + 29) = {15.23281658164244, 2.702573808435826, 0.1};
Point(p13 + 30) = {15.37074, 2.691719, 0.1};
Point(p13 + 31) = {15.50866341835756, 2.702573808435826, 0.1};
Point(p13 + 32) = {15.64319070441356, 2.734870952334568, 0.1};
Point(p13 + 33) = {15.77100934991487, 2.787815168825366, 0.1};
Point(p13 + 34) = {15.88897203560345, 2.860102795586434, 0.1};
Point(p13 + 35) = {15.99417412866196, 2.949953871338038, 0.1};
Point(p13 + 36) = {16.08402520441356, 3.055155964396548, 0.1};
Point(p13 + 37) = {16.15631283117463, 3.173118650085133, 0.1};
Point(p13 + 38) = {16.20925704766543, 3.300937295586434, 0.1};
Point(p13 + 39) = {16.24155419156417, 3.435464581642445, 0.1};
Spline(13) = {9, p13 + 1, p13 + 2, p13 + 3, p13 + 4, p13 + 5, p13 + 6, p13 + 7, p13 + 8, p13 + 9, p13 + 10, p13 + 11, p13 + 12, p13 + 13, p13 + 14, p13 + 15, p13 + 16, p13 + 17, p13 + 18, p13 + 19, p13 + 20, p13 + 21, p13 + 22, p13 + 23, p13 + 24, p13 + 25, p13 + 26, p13 + 27, p13 + 28, p13 + 29, p13 + 30, p13 + 31, p13 + 32, p13 + 33, p13 + 34, p13 + 35, p13 + 36, p13 + 37, p13 + 38, p13 + 39, 9};
Line(14) = {10, 9};
p15 = newp;
Point(p15 + 1) = {16.24155419156417, 3.711311418357556, 0};
Point(p15 + 2) = {16.20925704766543, 3.845838704413565, 0};
Point(p15 + 3) = {16.15631283117463, 3.973657349914867, 0};
Point(p15 + 4) = {16.08402520441356, 4.091620035603452, 0};
Point(p15 + 5) = {15.99417412866196, 4.196822128661962, 0};
Point(p15 + 6) = {15.88897203560345, 4.286673204413566, 0};
Point(p15 + 7) = {15.77100934991487, 4.358960831174634, 0};
Point(p15 + 8) = {15.64319070441356, 4.411905047665432, 0};
Point(p15 + 9) = {15.50866341835756, 4.444202191564175, 0};
Point(p15 + 10) = {15.37074, 4.455057, 0};
Point(p15 + 11) = {15.23281658164244, 4.444202191564175, 0};
Point(p15 + 12) = {15.09828929558643, 4.411905047665432, 0};
Point(p15 + 13) = {14.97047065008513, 4.358960831174635, 0};
Point(p15 + 14) = {14.85250796439655, 4.286673204413566, 0};
Point(p15 + 15) = {14.74730587133804, 4.196822128661962, 0};
Point(p15 + 16) = {14.65745479558643, 4.091620035603452, 0};
Point(p15 + 17) = {14.58516716882537, 3.973657349914867, 0};
Point(p15 + 18) = {14.53222295233457, 3.845838704413566, 0};
Point(p15 + 19) = {14.49992580843583, 3.711311418357556, 0};
Point(p15 + 20) = {14.489071, 3.573388, 0};
Point(p15 + 21) = {14.49992580843582, 3.435464581642445, 0};
Point(p15 + 22) = {14.53222295233457, 3.300937295586434, 0};
Point(p15 + 23) = {14.58516716882536, 3.173118650085134, 0};
Point(p15 + 24) = {14.65745479558643, 3.055155964396548, 0};
Point(p15 + 25) = {14.74730587133804, 2.949953871338038, 0};
Point(p15 + 26) = {14.85250796439655, 2.860102795586434, 0};
Point(p15 + 27) = {14.97047065008513, 2.787815168825366, 0};
Point(p15 + 28) = {15.09828929558643, 2.734870952334568, 0};
Point(p15 + 29) = {15.23281658164244, 2.702573808435826, 0};
Point(p15 + 30) = {15.37074, 2.691719, 0};
Point(p15 + 31) = {15.50866341835756, 2.702573808435826, 0};
Point(p15 + 32) = {15.64319070441356, 2.734870952334568, 0};
Point(p15 + 33) = {15.77100934991487, 2.787815168825366, 0};
Point(p15 + 34) = {15.88897203560345, 2.860102795586434, 0};
Point(p15 + 35) = {15.99417412866196, 2.949953871338038, 0};
Point(p15 + 36) = {16.08402520441356, 3.055155964396548, 0};
Point(p15 + 37) = {16.15631283117463, 3.173118650085133, 0};
Point(p15 + 38) = {16.20925704766543, 3.300937295586434, 0};
Point(p15 + 39) = {16.24155419156417, 3.435464581642445, 0};
Spline(15) = {10, p15 + 1, p15 + 2, p15 + 3, p15 + 4, p15 + 5, p15 + 6, p15 + 7, p15 + 8, p15 + 9, p15 + 10, p15 + 11, p15 + 12, p15 + 13, p15 + 14, p15 + 15, p15 + 16, p15 + 17, p15 + 18, p15 + 19, p15 + 20, p15 + 21, p15 + 22, p15 + 23, p15 + 24, p15 + 25, p15 + 26, p15 + 27, p15 + 28, p15 + 29, p15 + 30, p15 + 31, p15 + 32, p15 + 33, p15 + 34, p15 + 35, p15 + 36, p15 + 37, p15 + 38, p15 + 39, 10};
p16 = newp;
Point(p16 + 1) = {10.98001411400909, 2.297136451153018, 0.1};
Point(p16 + 2) = {10.93316417200704, 2.49228050380289, 0.1};
Point(p16 + 3) = {10.85636377505199, 2.677693063727395, 0.1};
Point(p16 + 4) = {10.75150400380289, 2.848808658352188, 0.1};
Point(p16 + 5) = {10.6211668538375, 3.001413853837504, 0.1};
Point(p16 + 6) = {10.46856165835219, 3.13175100380289, 0.1};
Point(p16 + 7) = {10.2974460637274, 3.236610775051995, 0.1};
Point(p16 + 8) = {10.11203350380289, 3.31341117200704, 0.1};
Point(p16 + 9) = {9.916889451153017, 3.360261114009086, 0.1};
Point(p16 + 10) = {9.716818999999999, 3.376007, 0.1};
Point(p16 + 11) = {9.516748548846982, 3.360261114009086, 0.1};
Point(p16 + 12) = {9.321604496197109, 3.31341117200704, 0.1};
Point(p16 + 13) = {9.136191936272603, 3.236610775051996, 0.1};
Point(p16 + 14) = {8.965076341647812, 3.13175100380289, 0.1};
Point(p16 + 15) = {8.812471146162494, 3.001413853837504, 0.1};
Point(p16 + 16) = {8.682133996197109, 2.848808658352188, 0.1};
Point(p16 + 17) = {8.577274224948004, 2.677693063727395, 0.1};
Point(p16 + 18) = {8.500473827992959, 2.49228050380289, 0.1};
Point(p16 + 19) = {8.453623885990913, 2.297136451153018, 0.1};
Point(p16 + 20) = {8.437878, 2.097066, 0.1};
Point(p16 + 21) = {8.453623885990913, 1.896995548846982, 0.1};
Point(p16 + 22) = {8.500473827992959, 1.70185149619711, 0.1};
Point(p16 + 23) = {8.577274224948003, 1.516438936272605, 0.1};
Point(p16 + 24) = {8.682133996197109, 1.345323341647812, 0.1};
Point(p16 + 25) = {8.812471146162494, 1.192718146162496, 0.1};
Point(p16 + 26) = {8.96507634164781, 1.06238099619711, 0.1};
Point(p16 + 27) = {9.136191936272603, 0.9575212249480045, 0.1};
Point(p16 + 28) = {9.321604496197109, 0.8807208279929599, 0.1};
Point(p16 + 29) = {9.516748548846982, 0.8338708859909139, 0.1};
Point(p16 + 30) = {9.716818999999999, 0.8181249999999998, 0.1};
Point(p16 + 31) = {9.916889451153017, 0.8338708859909136, 0.1};
Point(p16 + 32) = {10.11203350380289, 0.8807208279929597, 0.1};
Point(p16 + 33) = {10.2974460637274, 0.9575212249480043, 0.1};
Point(p16 + 34) = {10.46856165835219, 1.06238099619711, 0.1};
Point(p16 + 35) = {10.6211668538375, 1.192718146162495, 0.1};
Point(p16 + 36) = {10.75150400380289, 1.345323341647812, 0.1};
Point(p16 + 37) = {10.85636377505199, 1.516438936272604, 0.1};
Point(p16 + 38) = {10.93316417200704, 1.70185149619711, 0.1};
Point(p16 + 39) = {10.98001411400909, 1.896995548846982, 0.1};
Spline(16) = {11, p16 + 1, p16 + 2, p16 + 3, p16 + 4, p16 + 5, p16 + 6, p16 + 7, p16 + 8, p16 + 9, p16 + 10, p16 + 11, p16 + 12, p16 + 13, p16 + 14, p16 + 15, p16 + 16, p16 + 17, p16 + 18, p16 + 19, p16 + 20, p16 + 21, p16 + 22, p16 + 23, p16 + 24, p16 + 25, p16 + 26, p16 + 27, p16 + 28, p16 + 29, p16 + 30, p16 + 31, p16 + 32, p16 + 33, p16 + 34, p16 + 35, p16 + 36, p16 + 37, p16 + 38, p16 + 39, 11};
Line(17) = {12, 11};
p18 = newp;
Point(p18 + 1) = {10.98001411400909, 2.297136451153018, 0};
Point(p18 + 2) = {10.93316417200704, 2.49228050380289, 0};
Point(p18 + 3) = {10.85636377505199, 2.677693063727395, 0};
Point(p18 + 4) = {10.75150400380289, 2.848808658352188, 0};
Point(p18 + 5) = {10.6211668538375, 3.001413853837504, 0};
Point(p18 + 6) = {10.46856165835219, 3.13175100380289, 0};
Point(p18 + 7) = {10.2974460637274, 3.236610775051995, 0};
Point(p18 + 8) = {10.11203350380289, 3.31341117200704, 0};
Point(p18 + 9) = {9.916889451153017, 3.360261114009086, 0};
Point(p18 + 10) = {9.716818999999999, 3.376007, 0};
Point(p18 + 11) = {9.516748548846982, 3.360261114009086, 0};
Point(p18 + 12) = {9.321604496197109, 3.31341117200704, 0};
Point(p18 + 13) = {9.136191936272603, 3.236610775051996, 0};
Point(p18 + 14) = {8.965076341647812, 3.13175100380289, 0};
Point(p18 + 15) = {8.812471146162494, 3.001413853837504, 0};
Point(p18 + 16) = {8.682133996197109, 2.848808658352188, 0};
Point(p18 + 17) = {8.577274224948004, 2.677693063727395, 0};
Point(p18 + 18) = {8.500473827992959, 2.49228050380289, 0};
Point(p18 + 19) = {8.453623885990913, 2.297136451153018, 0};
Point(p18 + 20) = {8.437878, 2.097066, 0};
Point(p18 + 21) = {8.453623885990913, 1.896995548846982, 0};
Point(p18 + 22) = {8.500473827992959, 1.70185149619711, 0};
Point(p18 + 23) = {8.577274224948003, 1.516438936272605, 0};
Point(p18 + 24) = {8.682133996197109, 1.345323341647812, 0};
Point(p18 + 25) = {8.812471146162494, 1.192718146162496, 0};
Point(p18 + 26) = {8.96507634164781, 1.06238099619711, 0};
Point(p18 + 27) = {9.136191936272603, 0.9575212249480045, 0};
Point(p18 + 28) = {9.321604496197109, 0.8807208279929599, 0};
Point(p18 + 29) = {9.516748548846982, 0.8338708859909139, 0};
Point(p18 + 30) = {9.716818999999999, 0.8181249999999998, 0};
Point(p18 + 31) = {9.916889451153017, 0.8338708859909136, 0};
Point(p18 + 32) = {10.11203350380289, 0.8807208279929597, 0};
Point(p18 + 33) = {10.2974460637274, 0.9575212249480043, 0};
Point(p18 + 34) = {10.46856165835219, 1.06238099619711, 0};
Point(p18 + 35) = {10.6211668538375, 1.192718146162495, 0};
Point(p18 + 36) = {10.75150400380289, 1.345323341647812, 0};
Point(p18 + 37) = {10.85636377505199, 1.516438936272604, 0};
Point(p18 + 38) = {10.93316417200704, 1.70185149619711, 0};
Point(p18 + 39) = {10.98001411400909, 1.896995548846982, 0};
Spline(18) = {12, p18 + 1, p18 + 2, p18 + 3, p18 + 4, p18 + 5, p18 + 6, p18 + 7, p18 + 8, p18 + 9, p18 + 10, p18 + 11, p18 + 12, p18 + 13, p18 + 14, p18 + 15, p18 + 16, p18 + 17, p18 + 18, p18 + 19, p18 + 20, p18 + 21, p18 + 22, p18 + 23, p18 + 24, p18 + 25, p18 + 26, p18 + 27, p18 + 28, p18 + 29, p18 + 30, p18 + 31, p18 + 32, p18 + 33, p18 + 34, p18 + 35, p18 + 36, p18 + 37, p18 + 38, p18 + 39, 12};
Line(19) = {14, 13};
Line(20) = {13, 15};
Line(21) = {16, 15};
Line(22) = {14, 16};
Line(23) = {14, 17};
Line(24) = {17, 18};
Line(25) = {13, 18};
Line(26) = {15, 19};
Line(27) = {18, 19};
Line(28) = {16, 20};
Line(29) = {20, 19};
Line(30) = {17, 20};
Curve Loop(7) = {-13, -14, 15, 14};
Surface(7) = {7};
Curve Loop(8) = {13};
Plane Surface(8) = {8};
Curve Loop(9) = {15};
Plane Surface(9) = {9};
Curve Loop(10) = {-16, -17, 18, 17};
Surface(10) = {10};
Curve Loop(11) = {16};
Plane Surface(11) = {11};
Curve Loop(12) = {18};
Plane Surface(12) = {12};
Curve Loop(13) = {-19, 22, 21, -20};
Plane Surface(13) = {13};
Curve Loop(14) = {-23, 19, 25, -24};
Plane Surface(14) = {14};
Curve Loop(15) = {-20, 25, 27, -26, -16, -13};
Plane Surface(15) = {15};
Curve Loop(16) = {-28, 21, 26, -29};
Plane Surface(16) = {16};
Curve Loop(17) = {-22, 23, 30, -28, -18, -15};
Plane Surface(17) = {17};
Curve Loop(18) = {-24, 30, 29, -27};
Plane Surface(18) = {18};
Surface Loop(1) = {13, 14, 15, 16, 17, 18, 10, 7};
Volume(1) = {1};
Surface Loop(2) = {7, 8, 9};
Volume(2) = {2};
Surface Loop(3) = {10, 11, 12};
Volume(3) = {3};
Physical Surface("WALLS") = {13, 18};
Physical Surface("LOAD") = {8, 11};
Physical Surface("BORDER") = {7, 9, 10, 12, 14, 15, 16, 17};
Physical Volume("SOLID") = {1, 2, 3};
