cl__1 = 0.125268;
cl__2 = 0.051055;
cl__3 = 4.91616;
cl__4 = 5.260681;
cl__5 = 0.18718;
cl__6 = 0.373264;
Point(9) = {26.031906, -0.8419580000000002, 0.1, cl__1};
Point(10) = {26.031906, -0.8419580000000002, 0, cl__1};
Point(11) = {35.832621, -0.5833060000000001, 0.1, cl__2};
Point(12) = {35.832621, -0.5833060000000001, 0, cl__2};
Point(13) = {0.084982, -3.424807, 0.1, cl__3};
Point(14) = {0.084982, -3.424807, 0, cl__3};
Point(15) = {0.084982, 4.962715000000001, 0.1, cl__4};
Point(16) = {0.084982, 4.962715000000001, 0, cl__4};
Point(17) = {36.57601699999999, -3.424807, 0, cl__5};
Point(18) = {36.57601699999999, -3.424807, 0.1, cl__5};
Point(19) = {36.57601699999999, 4.962715000000001, 0.1, cl__6};
Point(20) = {36.57601699999999, 4.962715000000001, 0, cl__6};
p13 = newp;
Point(p13 + 1) = {26.01648339356174, -0.6459952050300084, 0.1};
Point(p13 + 2) = {25.97059533000216, -0.4548576644354078, 0.1};
Point(p13 + 3) = {25.89537172573986, -0.2732518188147653, 0.1};
Point(p13 + 4) = {25.79266483556459, -0.1056494068025079, 0.1};
Point(p13 + 5) = {25.66500364397711, 0.04382264397710789, 0.1};
Point(p13 + 6) = {25.51553159319749, 0.1714838355645922, 0.1};
Point(p13 + 7) = {25.34792918118524, 0.274190725739857, 0.1};
Point(p13 + 8) = {25.16632333556459, 0.3494143300021617, 0.1};
Point(p13 + 9) = {24.97518579496999, 0.395302393561739, 0.1};
Point(p13 + 10) = {24.779223, 0.410725, 0.1};
Point(p13 + 11) = {24.58326020503001, 0.3953023935617388, 0.1};
Point(p13 + 12) = {24.39212266443541, 0.3494143300021619, 0.1};
Point(p13 + 13) = {24.21051681881477, 0.2741907257398573, 0.1};
Point(p13 + 14) = {24.04291440680251, 0.1714838355645922, 0.1};
Point(p13 + 15) = {23.8934423560229, 0.043822643977108, 0.1};
Point(p13 + 16) = {23.76578116443541, -0.1056494068025077, 0.1};
Point(p13 + 17) = {23.66307427426014, -0.2732518188147652, 0.1};
Point(p13 + 18) = {23.58785066999784, -0.4548576644354076, 0.1};
Point(p13 + 19) = {23.54196260643826, -0.6459952050300083, 0.1};
Point(p13 + 20) = {23.52654, -0.8419579999999999, 0.1};
Point(p13 + 21) = {23.54196260643826, -1.037920794969991, 0.1};
Point(p13 + 22) = {23.58785066999784, -1.229058335564593, 0.1};
Point(p13 + 23) = {23.66307427426014, -1.410664181185234, 0.1};
Point(p13 + 24) = {23.76578116443541, -1.578266593197492, 0.1};
Point(p13 + 25) = {23.8934423560229, -1.727738643977108, 0.1};
Point(p13 + 26) = {24.04291440680251, -1.855399835564592, 0.1};
Point(p13 + 27) = {24.21051681881477, -1.958106725739857, 0.1};
Point(p13 + 28) = {24.39212266443541, -2.033330330002162, 0.1};
Point(p13 + 29) = {24.58326020503001, -2.079218393561739, 0.1};
Point(p13 + 30) = {24.779223, -2.094641, 0.1};
Point(p13 + 31) = {24.97518579496999, -2.079218393561739, 0.1};
Point(p13 + 32) = {25.16632333556459, -2.033330330002162, 0.1};
Point(p13 + 33) = {25.34792918118524, -1.958106725739857, 0.1};
Point(p13 + 34) = {25.51553159319749, -1.855399835564592, 0.1};
Point(p13 + 35) = {25.66500364397711, -1.727738643977108, 0.1};
Point(p13 + 36) = {25.79266483556459, -1.578266593197492, 0.1};
Point(p13 + 37) = {25.89537172573986, -1.410664181185235, 0.1};
Point(p13 + 38) = {25.97059533000216, -1.229058335564593, 0.1};
Point(p13 + 39) = {26.01648339356174, -1.037920794969992, 0.1};
Spline(13) = {9, p13 + 1, p13 + 2, p13 + 3, p13 + 4, p13 + 5, p13 + 6, p13 + 7, p13 + 8, p13 + 9, p13 + 10, p13 + 11, p13 + 12, p13 + 13, p13 + 14, p13 + 15, p13 + 16, p13 + 17, p13 + 18, p13 + 19, p13 + 20, p13 + 21, p13 + 22, p13 + 23, p13 + 24, p13 + 25, p13 + 26, p13 + 27, p13 + 28, p13 + 29, p13 + 30, p13 + 31, p13 + 32, p13 + 33, p13 + 34, p13 + 35, p13 + 36, p13 + 37, p13 + 38, p13 + 39, 9};
Line(14) = {10, 9};
p15 = newp;
Point(p15 + 1) = {26.01648339356174, -0.6459952050300084, 0};
Point(p15 + 2) = {25.97059533000216, -0.4548576644354078, 0};
Point(p15 + 3) = {25.89537172573986, -0.2732518188147653, 0};
Point(p15 + 4) = {25.79266483556459, -0.1056494068025079, 0};
Point(p15 + 5) = {25.66500364397711, 0.04382264397710789, 0};
Point(p15 + 6) = {25.51553159319749, 0.1714838355645922, 0};
Point(p15 + 7) = {25.34792918118524, 0.274190725739857, 0};
Point(p15 + 8) = {25.16632333556459, 0.3494143300021617, 0};
Point(p15 + 9) = {24.97518579496999, 0.395302393561739, 0};
Point(p15 + 10) = {24.779223, 0.410725, 0};
Point(p15 + 11) = {24.58326020503001, 0.3953023935617388, 0};
Point(p15 + 12) = {24.39212266443541, 0.3494143300021619, 0};
Point(p15 + 13) = {24.21051681881477, 0.2741907257398573, 0};
Point(p15 + 14) = {24.04291440680251, 0.1714838355645922, 0};
Point(p15 + 15) = {23.8934423560229, 0.043822643977108, 0};
Point(p15 + 16) = {23.76578116443541, -0.1056494068025077, 0};
Point(p15 + 17) = {23.66307427426014, -0.2732518188147652, 0};
Point(p15 + 18) = {23.58785066999784, -0.4548576644354076, 0};
Point(p15 + 19) = {23.54196260643826, -0.6459952050300083, 0};
Point(p15 + 20) = {23.52654, -0.8419579999999999, 0};
Point(p15 + 21) = {23.54196260643826, -1.037920794969991, 0};
Point(p15 + 22) = {23.58785066999784, -1.229058335564593, 0};
Point(p15 + 23) = {23.66307427426014, -1.410664181185234, 0};
Point(p15 + 24) = {23.76578116443541, -1.578266593197492, 0};
Point(p15 + 25) = {23.8934423560229, -1.727738643977108, 0};
Point(p15 + 26) = {24.04291440680251, -1.855399835564592, 0};
Point(p15 + 27) = {24.21051681881477, -1.958106725739857, 0};
Point(p15 + 28) = {24.39212266443541, -2.033330330002162, 0};
Point(p15 + 29) = {24.58326020503001, -2.079218393561739, 0};
Point(p15 + 30) = {24.779223, -2.094641, 0};
Point(p15 + 31) = {24.97518579496999, -2.079218393561739, 0};
Point(p15 + 32) = {25.16632333556459, -2.033330330002162, 0};
Point(p15 + 33) = {25.34792918118524, -1.958106725739857, 0};
Point(p15 + 34) = {25.51553159319749, -1.855399835564592, 0};
Point(p15 + 35) = {25.66500364397711, -1.727738643977108, 0};
Point(p15 + 36) = {25.79266483556459, -1.578266593197492, 0};
Point(p15 + 37) = {25.89537172573986, -1.410664181185235, 0};
Point(p15 + 38) = {25.97059533000216, -1.229058335564593, 0};
Point(p15 + 39) = {26.01648339356174, -1.037920794969992, 0};
Spline(15) = {10, p15 + 1, p15 + 2, p15 + 3, p15 + 4, p15 + 5, p15 + 6, p15 + 7, p15 + 8, p15 + 9, p15 + 10, p15 + 11, p15 + 12, p15 + 13, p15 + 14, p15 + 15, p15 + 16, p15 + 17, p15 + 18, p15 + 19, p15 + 20, p15 + 21, p15 + 22, p15 + 23, p15 + 24, p15 + 25, p15 + 26, p15 + 27, p15 + 28, p15 + 29, p15 + 30, p15 + 31, p15 + 32, p15 + 33, p15 + 34, p15 + 35, p15 + 36, p15 + 37, p15 + 38, p15 + 39, 10};
p16 = newp;
Point(p16 + 1) = {35.82633530691417, -0.5034386967426402, 0.1};
Point(p16 + 2) = {35.80763300228146, -0.4255379915558594, 0.1};
Point(p16 + 3) = {35.77697459891132, -0.3515220583389739, 0.1};
Point(p16 + 4) = {35.73511500844415, -0.2832134150125824, 0.1};
Point(p16 + 5) = {35.68308495292123, -0.2222940470787705, 0.1};
Point(p16 + 6) = {35.62216558498742, -0.1702639915558594, 0.1};
Point(p16 + 7) = {35.55385694166103, -0.1284044010886772, 0.1};
Point(p16 + 8) = {35.47984100844415, -0.09774599771854192, 0.1};
Point(p16 + 9) = {35.40194030325736, -0.07904369308583359, 0.1};
Point(p16 + 10) = {35.322073, -0.07275799999999999, 0.1};
Point(p16 + 11) = {35.24220569674264, -0.0790436930858337, 0.1};
Point(p16 + 12) = {35.16430499155586, -0.09774599771854187, 0.1};
Point(p16 + 13) = {35.09028905833897, -0.1284044010886771, 0.1};
Point(p16 + 14) = {35.02198041501259, -0.1702639915558593, 0.1};
Point(p16 + 15) = {34.96106104707877, -0.2222940470787705, 0.1};
Point(p16 + 16) = {34.90903099155586, -0.2832134150125823, 0.1};
Point(p16 + 17) = {34.86717140108868, -0.3515220583389738, 0.1};
Point(p16 + 18) = {34.83651299771854, -0.4255379915558593, 0.1};
Point(p16 + 19) = {34.81781069308584, -0.5034386967426402, 0.1};
Point(p16 + 20) = {34.811525, -0.5833059999999999, 0.1};
Point(p16 + 21) = {34.81781069308584, -0.6631733032573597, 0.1};
Point(p16 + 22) = {34.83651299771854, -0.7410740084441408, 0.1};
Point(p16 + 23) = {34.86717140108868, -0.8150899416610259, 0.1};
Point(p16 + 24) = {34.90903099155586, -0.8833985849874175, 0.1};
Point(p16 + 25) = {34.96106104707877, -0.9443179529212294, 0.1};
Point(p16 + 26) = {35.02198041501259, -0.9963480084441406, 0.1};
Point(p16 + 27) = {35.09028905833897, -1.038207598911323, 0.1};
Point(p16 + 28) = {35.16430499155586, -1.068866002281458, 0.1};
Point(p16 + 29) = {35.24220569674264, -1.087568306914166, 0.1};
Point(p16 + 30) = {35.322073, -1.093854, 0.1};
Point(p16 + 31) = {35.40194030325736, -1.087568306914166, 0.1};
Point(p16 + 32) = {35.47984100844415, -1.068866002281458, 0.1};
Point(p16 + 33) = {35.55385694166103, -1.038207598911323, 0.1};
Point(p16 + 34) = {35.62216558498742, -0.9963480084441407, 0.1};
Point(p16 + 35) = {35.68308495292123, -0.9443179529212296, 0.1};
Point(p16 + 36) = {35.73511500844415, -0.8833985849874176, 0.1};
Point(p16 + 37) = {35.77697459891132, -0.8150899416610262, 0.1};
Point(p16 + 38) = {35.80763300228146, -0.7410740084441407, 0.1};
Point(p16 + 39) = {35.82633530691417, -0.6631733032573599, 0.1};
Spline(16) = {11, p16 + 1, p16 + 2, p16 + 3, p16 + 4, p16 + 5, p16 + 6, p16 + 7, p16 + 8, p16 + 9, p16 + 10, p16 + 11, p16 + 12, p16 + 13, p16 + 14, p16 + 15, p16 + 16, p16 + 17, p16 + 18, p16 + 19, p16 + 20, p16 + 21, p16 + 22, p16 + 23, p16 + 24, p16 + 25, p16 + 26, p16 + 27, p16 + 28, p16 + 29, p16 + 30, p16 + 31, p16 + 32, p16 + 33, p16 + 34, p16 + 35, p16 + 36, p16 + 37, p16 + 38, p16 + 39, 11};
Line(17) = {12, 11};
p18 = newp;
Point(p18 + 1) = {35.82633530691417, -0.5034386967426402, 0};
Point(p18 + 2) = {35.80763300228146, -0.4255379915558594, 0};
Point(p18 + 3) = {35.77697459891132, -0.3515220583389739, 0};
Point(p18 + 4) = {35.73511500844415, -0.2832134150125824, 0};
Point(p18 + 5) = {35.68308495292123, -0.2222940470787705, 0};
Point(p18 + 6) = {35.62216558498742, -0.1702639915558594, 0};
Point(p18 + 7) = {35.55385694166103, -0.1284044010886772, 0};
Point(p18 + 8) = {35.47984100844415, -0.09774599771854192, 0};
Point(p18 + 9) = {35.40194030325736, -0.07904369308583359, 0};
Point(p18 + 10) = {35.322073, -0.07275799999999999, 0};
Point(p18 + 11) = {35.24220569674264, -0.0790436930858337, 0};
Point(p18 + 12) = {35.16430499155586, -0.09774599771854187, 0};
Point(p18 + 13) = {35.09028905833897, -0.1284044010886771, 0};
Point(p18 + 14) = {35.02198041501259, -0.1702639915558593, 0};
Point(p18 + 15) = {34.96106104707877, -0.2222940470787705, 0};
Point(p18 + 16) = {34.90903099155586, -0.2832134150125823, 0};
Point(p18 + 17) = {34.86717140108868, -0.3515220583389738, 0};
Point(p18 + 18) = {34.83651299771854, -0.4255379915558593, 0};
Point(p18 + 19) = {34.81781069308584, -0.5034386967426402, 0};
Point(p18 + 20) = {34.811525, -0.5833059999999999, 0};
Point(p18 + 21) = {34.81781069308584, -0.6631733032573597, 0};
Point(p18 + 22) = {34.83651299771854, -0.7410740084441408, 0};
Point(p18 + 23) = {34.86717140108868, -0.8150899416610259, 0};
Point(p18 + 24) = {34.90903099155586, -0.8833985849874175, 0};
Point(p18 + 25) = {34.96106104707877, -0.9443179529212294, 0};
Point(p18 + 26) = {35.02198041501259, -0.9963480084441406, 0};
Point(p18 + 27) = {35.09028905833897, -1.038207598911323, 0};
Point(p18 + 28) = {35.16430499155586, -1.068866002281458, 0};
Point(p18 + 29) = {35.24220569674264, -1.087568306914166, 0};
Point(p18 + 30) = {35.322073, -1.093854, 0};
Point(p18 + 31) = {35.40194030325736, -1.087568306914166, 0};
Point(p18 + 32) = {35.47984100844415, -1.068866002281458, 0};
Point(p18 + 33) = {35.55385694166103, -1.038207598911323, 0};
Point(p18 + 34) = {35.62216558498742, -0.9963480084441407, 0};
Point(p18 + 35) = {35.68308495292123, -0.9443179529212296, 0};
Point(p18 + 36) = {35.73511500844415, -0.8833985849874176, 0};
Point(p18 + 37) = {35.77697459891132, -0.8150899416610262, 0};
Point(p18 + 38) = {35.80763300228146, -0.7410740084441407, 0};
Point(p18 + 39) = {35.82633530691417, -0.6631733032573599, 0};
Spline(18) = {12, p18 + 1, p18 + 2, p18 + 3, p18 + 4, p18 + 5, p18 + 6, p18 + 7, p18 + 8, p18 + 9, p18 + 10, p18 + 11, p18 + 12, p18 + 13, p18 + 14, p18 + 15, p18 + 16, p18 + 17, p18 + 18, p18 + 19, p18 + 20, p18 + 21, p18 + 22, p18 + 23, p18 + 24, p18 + 25, p18 + 26, p18 + 27, p18 + 28, p18 + 29, p18 + 30, p18 + 31, p18 + 32, p18 + 33, p18 + 34, p18 + 35, p18 + 36, p18 + 37, p18 + 38, p18 + 39, 12};
Line(19) = {14, 13};
Line(20) = {13, 15};
Line(21) = {16, 15};
Line(22) = {14, 16};
Line(23) = {14, 17};
Line(24) = {17, 18};
Line(25) = {13, 18};
Line(26) = {15, 19};
Line(27) = {18, 19};
Line(28) = {16, 20};
Line(29) = {20, 19};
Line(30) = {17, 20};
Curve Loop(7) = {-13, -14, 15, 14};
Surface(7) = {7};
Curve Loop(8) = {13};
Plane Surface(8) = {8};
Curve Loop(9) = {15};
Plane Surface(9) = {9};
Curve Loop(10) = {-16, -17, 18, 17};
Surface(10) = {10};
Curve Loop(11) = {16};
Plane Surface(11) = {11};
Curve Loop(12) = {18};
Plane Surface(12) = {12};
Curve Loop(13) = {-19, 22, 21, -20};
Plane Surface(13) = {13};
Curve Loop(14) = {-23, 19, 25, -24};
Plane Surface(14) = {14};
Curve Loop(15) = {-20, 25, 27, -26, -13, -16};
Plane Surface(15) = {15};
Curve Loop(16) = {-28, 21, 26, -29};
Plane Surface(16) = {16};
Curve Loop(17) = {-22, 23, 30, -28, -15, -18};
Plane Surface(17) = {17};
Curve Loop(18) = {-24, 30, 29, -27};
Plane Surface(18) = {18};
Surface Loop(1) = {13, 14, 15, 16, 17, 18, 7, 10};
Volume(1) = {1};
Surface Loop(2) = {7, 8, 9};
Volume(2) = {2};
Surface Loop(3) = {10, 11, 12};
Volume(3) = {3};
Physical Surface("WALLS") = {13, 18};
Physical Surface("LOAD") = {8, 11};
Physical Surface("BORDER") = {7, 9, 10, 12, 14, 15, 16, 17};
Physical Volume("SOLID") = {1, 2, 3};
