cl__1 = 0.094296;
cl__2 = 0.148212;
cl__3 = 1.630876;
cl__4 = 0.935817;
cl__5 = 0.9440539999999999;
cl__6 = 0.943047;
Point(9) = {10.506948, 2.588337999999999, 0.1, cl__1};
Point(10) = {10.506948, 2.588337999999999, 0, cl__1};
Point(11) = {31.100229, 0.2017329999999996, 0.1, cl__2};
Point(12) = {31.100229, 0.2017329999999996, 0, cl__2};
Point(13) = {0.470147, -4.579371, 1, cl__3};
Point(14) = {0.470147, -4.579371, 0, cl__3};
Point(15) = {0.470147, 4.963756, 1, cl__4};
Point(16) = {0.470147, 4.963756, 0, cl__4};
Point(17) = {38.41539299999999, -4.579371, 0, cl__5};
Point(18) = {38.41539299999999, -4.579371, 1, cl__5};
Point(19) = {38.41539299999999, 4.963756, 1, cl__6};
Point(20) = {38.41539299999999, 4.963756, 0, cl__6};
p13 = newp;
Point(p13 + 1) = {10.49533858533593, 2.735849599588801, 0.1};
Point(p13 + 2) = {10.46079620366219, 2.879728974032794, 0.1};
Point(p13 + 3) = {10.40417140305519, 3.016433335624903, 0.1};
Point(p13 + 4) = {10.32685847403279, 3.142596569286963, 0.1};
Point(p13 + 5) = {10.23076111749445, 3.255112117494448, 0.1};
Point(p13 + 6) = {10.11824556928696, 3.351209474032795, 0.1};
Point(p13 + 7) = {9.992082335624902, 3.428522403055188, 0.1};
Point(p13 + 8) = {9.855377974032795, 3.485147203662194, 0.1};
Point(p13 + 9) = {9.711498599588801, 3.519689585335931, 0.1};
Point(p13 + 10) = {9.563986999999999, 3.531299, 0.1};
Point(p13 + 11) = {9.416475400411198, 3.519689585335931, 0.1};
Point(p13 + 12) = {9.272596025967204, 3.485147203662194, 0.1};
Point(p13 + 13) = {9.135891664375096, 3.428522403055188, 0.1};
Point(p13 + 14) = {9.009728430713036, 3.351209474032795, 0.1};
Point(p13 + 15) = {8.897212882505551, 3.255112117494448, 0.1};
Point(p13 + 16) = {8.801115525967205, 3.142596569286963, 0.1};
Point(p13 + 17) = {8.723802596944811, 3.016433335624903, 0.1};
Point(p13 + 18) = {8.667177796337805, 2.879728974032795, 0.1};
Point(p13 + 19) = {8.632635414664067, 2.735849599588801, 0.1};
Point(p13 + 20) = {8.621025999999999, 2.588338, 0.1};
Point(p13 + 21) = {8.632635414664067, 2.440826400411199, 0.1};
Point(p13 + 22) = {8.667177796337805, 2.296947025967205, 0.1};
Point(p13 + 23) = {8.723802596944811, 2.160242664375097, 0.1};
Point(p13 + 24) = {8.801115525967205, 2.034079430713037, 0.1};
Point(p13 + 25) = {8.897212882505551, 1.921563882505552, 0.1};
Point(p13 + 26) = {9.009728430713036, 1.825466525967205, 0.1};
Point(p13 + 27) = {9.135891664375096, 1.748153596944812, 0.1};
Point(p13 + 28) = {9.272596025967204, 1.691528796337805, 0.1};
Point(p13 + 29) = {9.416475400411198, 1.656986414664068, 0.1};
Point(p13 + 30) = {9.563986999999999, 1.645377, 0.1};
Point(p13 + 31) = {9.711498599588801, 1.656986414664068, 0.1};
Point(p13 + 32) = {9.855377974032793, 1.691528796337805, 0.1};
Point(p13 + 33) = {9.992082335624902, 1.748153596944812, 0.1};
Point(p13 + 34) = {10.11824556928696, 1.825466525967205, 0.1};
Point(p13 + 35) = {10.23076111749445, 1.921563882505552, 0.1};
Point(p13 + 36) = {10.32685847403279, 2.034079430713037, 0.1};
Point(p13 + 37) = {10.40417140305519, 2.160242664375097, 0.1};
Point(p13 + 38) = {10.46079620366219, 2.296947025967205, 0.1};
Point(p13 + 39) = {10.49533858533593, 2.440826400411198, 0.1};
Spline(13) = {9, p13 + 1, p13 + 2, p13 + 3, p13 + 4, p13 + 5, p13 + 6, p13 + 7, p13 + 8, p13 + 9, p13 + 10, p13 + 11, p13 + 12, p13 + 13, p13 + 14, p13 + 15, p13 + 16, p13 + 17, p13 + 18, p13 + 19, p13 + 20, p13 + 21, p13 + 22, p13 + 23, p13 + 24, p13 + 25, p13 + 26, p13 + 27, p13 + 28, p13 + 29, p13 + 30, p13 + 31, p13 + 32, p13 + 33, p13 + 34, p13 + 35, p13 + 36, p13 + 37, p13 + 38, p13 + 39, 9};
Line(14) = {10, 9};
p15 = newp;
Point(p15 + 1) = {10.49533858533593, 2.735849599588801, 0};
Point(p15 + 2) = {10.46079620366219, 2.879728974032794, 0};
Point(p15 + 3) = {10.40417140305519, 3.016433335624903, 0};
Point(p15 + 4) = {10.32685847403279, 3.142596569286963, 0};
Point(p15 + 5) = {10.23076111749445, 3.255112117494448, 0};
Point(p15 + 6) = {10.11824556928696, 3.351209474032795, 0};
Point(p15 + 7) = {9.992082335624902, 3.428522403055188, 0};
Point(p15 + 8) = {9.855377974032795, 3.485147203662194, 0};
Point(p15 + 9) = {9.711498599588801, 3.519689585335931, 0};
Point(p15 + 10) = {9.563986999999999, 3.531299, 0};
Point(p15 + 11) = {9.416475400411198, 3.519689585335931, 0};
Point(p15 + 12) = {9.272596025967204, 3.485147203662194, 0};
Point(p15 + 13) = {9.135891664375096, 3.428522403055188, 0};
Point(p15 + 14) = {9.009728430713036, 3.351209474032795, 0};
Point(p15 + 15) = {8.897212882505551, 3.255112117494448, 0};
Point(p15 + 16) = {8.801115525967205, 3.142596569286963, 0};
Point(p15 + 17) = {8.723802596944811, 3.016433335624903, 0};
Point(p15 + 18) = {8.667177796337805, 2.879728974032795, 0};
Point(p15 + 19) = {8.632635414664067, 2.735849599588801, 0};
Point(p15 + 20) = {8.621025999999999, 2.588338, 0};
Point(p15 + 21) = {8.632635414664067, 2.440826400411199, 0};
Point(p15 + 22) = {8.667177796337805, 2.296947025967205, 0};
Point(p15 + 23) = {8.723802596944811, 2.160242664375097, 0};
Point(p15 + 24) = {8.801115525967205, 2.034079430713037, 0};
Point(p15 + 25) = {8.897212882505551, 1.921563882505552, 0};
Point(p15 + 26) = {9.009728430713036, 1.825466525967205, 0};
Point(p15 + 27) = {9.135891664375096, 1.748153596944812, 0};
Point(p15 + 28) = {9.272596025967204, 1.691528796337805, 0};
Point(p15 + 29) = {9.416475400411198, 1.656986414664068, 0};
Point(p15 + 30) = {9.563986999999999, 1.645377, 0};
Point(p15 + 31) = {9.711498599588801, 1.656986414664068, 0};
Point(p15 + 32) = {9.855377974032793, 1.691528796337805, 0};
Point(p15 + 33) = {9.992082335624902, 1.748153596944812, 0};
Point(p15 + 34) = {10.11824556928696, 1.825466525967205, 0};
Point(p15 + 35) = {10.23076111749445, 1.921563882505552, 0};
Point(p15 + 36) = {10.32685847403279, 2.034079430713037, 0};
Point(p15 + 37) = {10.40417140305519, 2.160242664375097, 0};
Point(p15 + 38) = {10.46079620366219, 2.296947025967205, 0};
Point(p15 + 39) = {10.49533858533593, 2.440826400411198, 0};
Spline(15) = {10, p15 + 1, p15 + 2, p15 + 3, p15 + 4, p15 + 5, p15 + 6, p15 + 7, p15 + 8, p15 + 9, p15 + 10, p15 + 11, p15 + 12, p15 + 13, p15 + 14, p15 + 15, p15 + 16, p15 + 17, p15 + 18, p15 + 19, p15 + 20, p15 + 21, p15 + 22, p15 + 23, p15 + 24, p15 + 25, p15 + 26, p15 + 27, p15 + 28, p15 + 29, p15 + 30, p15 + 31, p15 + 32, p15 + 33, p15 + 34, p15 + 35, p15 + 36, p15 + 37, p15 + 38, p15 + 39, 10};
p16 = newp;
Point(p16 + 1) = {31.0819816926095, 0.4335870235875668, 0.1};
Point(p16 + 2) = {31.02768907970531, 0.6597320316350195, 0.1};
Point(p16 + 3) = {30.93868802560397, 0.874599583511978, 0.1};
Point(p16 + 4) = {30.81717003163502, 1.072898926986711, 0.1};
Point(p16 + 5) = {30.66612727410508, 1.249747274105081, 0.1};
Point(p16 + 6) = {30.48927892698671, 1.400790031635019, 0.1};
Point(p16 + 7) = {30.29097958351198, 1.522308025603967, 0.1};
Point(p16 + 8) = {30.07611203163502, 1.611309079705308, 0.1};
Point(p16 + 9) = {29.84996702358757, 1.665601692609503, 0.1};
Point(p16 + 10) = {29.618113, 1.683849, 0.1};
Point(p16 + 11) = {29.38625897641244, 1.665601692609503, 0.1};
Point(p16 + 12) = {29.16011396836498, 1.611309079705308, 0.1};
Point(p16 + 13) = {28.94524641648802, 1.522308025603967, 0.1};
Point(p16 + 14) = {28.74694707301329, 1.400790031635019, 0.1};
Point(p16 + 15) = {28.57009872589492, 1.249747274105081, 0.1};
Point(p16 + 16) = {28.41905596836498, 1.072898926986711, 0.1};
Point(p16 + 17) = {28.29753797439603, 0.8745995835119782, 0.1};
Point(p16 + 18) = {28.20853692029469, 0.6597320316350197, 0.1};
Point(p16 + 19) = {28.1542443073905, 0.433587023587567, 0.1};
Point(p16 + 20) = {28.135997, 0.2017330000000002, 0.1};
Point(p16 + 21) = {28.1542443073905, -0.03012102358756666, 0.1};
Point(p16 + 22) = {28.20853692029469, -0.25626603163502, 0.1};
Point(p16 + 23) = {28.29753797439603, -0.4711335835119774, 0.1};
Point(p16 + 24) = {28.41905596836498, -0.669432926986711, 0.1};
Point(p16 + 25) = {28.57009872589492, -0.8462812741050811, 0.1};
Point(p16 + 26) = {28.74694707301329, -0.9973240316350196, 0.1};
Point(p16 + 27) = {28.94524641648802, -1.118842025603967, 0.1};
Point(p16 + 28) = {29.16011396836498, -1.207843079705308, 0.1};
Point(p16 + 29) = {29.38625897641244, -1.262135692609503, 0.1};
Point(p16 + 30) = {29.618113, -1.280383, 0.1};
Point(p16 + 31) = {29.84996702358757, -1.262135692609503, 0.1};
Point(p16 + 32) = {30.07611203163502, -1.207843079705308, 0.1};
Point(p16 + 33) = {30.29097958351198, -1.118842025603967, 0.1};
Point(p16 + 34) = {30.48927892698671, -0.9973240316350198, 0.1};
Point(p16 + 35) = {30.66612727410508, -0.8462812741050814, 0.1};
Point(p16 + 36) = {30.81717003163502, -0.6694329269867112, 0.1};
Point(p16 + 37) = {30.93868802560397, -0.4711335835119784, 0.1};
Point(p16 + 38) = {31.02768907970531, -0.2562660316350199, 0.1};
Point(p16 + 39) = {31.0819816926095, -0.03012102358756719, 0.1};
Spline(16) = {11, p16 + 1, p16 + 2, p16 + 3, p16 + 4, p16 + 5, p16 + 6, p16 + 7, p16 + 8, p16 + 9, p16 + 10, p16 + 11, p16 + 12, p16 + 13, p16 + 14, p16 + 15, p16 + 16, p16 + 17, p16 + 18, p16 + 19, p16 + 20, p16 + 21, p16 + 22, p16 + 23, p16 + 24, p16 + 25, p16 + 26, p16 + 27, p16 + 28, p16 + 29, p16 + 30, p16 + 31, p16 + 32, p16 + 33, p16 + 34, p16 + 35, p16 + 36, p16 + 37, p16 + 38, p16 + 39, 11};
Line(17) = {12, 11};
p18 = newp;
Point(p18 + 1) = {31.0819816926095, 0.4335870235875668, 0};
Point(p18 + 2) = {31.02768907970531, 0.6597320316350195, 0};
Point(p18 + 3) = {30.93868802560397, 0.874599583511978, 0};
Point(p18 + 4) = {30.81717003163502, 1.072898926986711, 0};
Point(p18 + 5) = {30.66612727410508, 1.249747274105081, 0};
Point(p18 + 6) = {30.48927892698671, 1.400790031635019, 0};
Point(p18 + 7) = {30.29097958351198, 1.522308025603967, 0};
Point(p18 + 8) = {30.07611203163502, 1.611309079705308, 0};
Point(p18 + 9) = {29.84996702358757, 1.665601692609503, 0};
Point(p18 + 10) = {29.618113, 1.683849, 0};
Point(p18 + 11) = {29.38625897641244, 1.665601692609503, 0};
Point(p18 + 12) = {29.16011396836498, 1.611309079705308, 0};
Point(p18 + 13) = {28.94524641648802, 1.522308025603967, 0};
Point(p18 + 14) = {28.74694707301329, 1.400790031635019, 0};
Point(p18 + 15) = {28.57009872589492, 1.249747274105081, 0};
Point(p18 + 16) = {28.41905596836498, 1.072898926986711, 0};
Point(p18 + 17) = {28.29753797439603, 0.8745995835119782, 0};
Point(p18 + 18) = {28.20853692029469, 0.6597320316350197, 0};
Point(p18 + 19) = {28.1542443073905, 0.433587023587567, 0};
Point(p18 + 20) = {28.135997, 0.2017330000000002, 0};
Point(p18 + 21) = {28.1542443073905, -0.03012102358756666, 0};
Point(p18 + 22) = {28.20853692029469, -0.25626603163502, 0};
Point(p18 + 23) = {28.29753797439603, -0.4711335835119774, 0};
Point(p18 + 24) = {28.41905596836498, -0.669432926986711, 0};
Point(p18 + 25) = {28.57009872589492, -0.8462812741050811, 0};
Point(p18 + 26) = {28.74694707301329, -0.9973240316350196, 0};
Point(p18 + 27) = {28.94524641648802, -1.118842025603967, 0};
Point(p18 + 28) = {29.16011396836498, -1.207843079705308, 0};
Point(p18 + 29) = {29.38625897641244, -1.262135692609503, 0};
Point(p18 + 30) = {29.618113, -1.280383, 0};
Point(p18 + 31) = {29.84996702358757, -1.262135692609503, 0};
Point(p18 + 32) = {30.07611203163502, -1.207843079705308, 0};
Point(p18 + 33) = {30.29097958351198, -1.118842025603967, 0};
Point(p18 + 34) = {30.48927892698671, -0.9973240316350198, 0};
Point(p18 + 35) = {30.66612727410508, -0.8462812741050814, 0};
Point(p18 + 36) = {30.81717003163502, -0.6694329269867112, 0};
Point(p18 + 37) = {30.93868802560397, -0.4711335835119784, 0};
Point(p18 + 38) = {31.02768907970531, -0.2562660316350199, 0};
Point(p18 + 39) = {31.0819816926095, -0.03012102358756719, 0};
Spline(18) = {12, p18 + 1, p18 + 2, p18 + 3, p18 + 4, p18 + 5, p18 + 6, p18 + 7, p18 + 8, p18 + 9, p18 + 10, p18 + 11, p18 + 12, p18 + 13, p18 + 14, p18 + 15, p18 + 16, p18 + 17, p18 + 18, p18 + 19, p18 + 20, p18 + 21, p18 + 22, p18 + 23, p18 + 24, p18 + 25, p18 + 26, p18 + 27, p18 + 28, p18 + 29, p18 + 30, p18 + 31, p18 + 32, p18 + 33, p18 + 34, p18 + 35, p18 + 36, p18 + 37, p18 + 38, p18 + 39, 12};
Line(19) = {14, 13};
Line(20) = {13, 15};
Line(21) = {16, 15};
Line(22) = {14, 16};
Line(23) = {14, 17};
Line(24) = {17, 18};
Line(25) = {13, 18};
Line(26) = {15, 19};
Line(27) = {18, 19};
Line(28) = {16, 20};
Line(29) = {20, 19};
Line(30) = {17, 20};
Curve Loop(7) = {-13, -14, 15, 14};
Surface(7) = {7};
Curve Loop(8) = {13};
Plane Surface(8) = {8};
Curve Loop(9) = {15};
Plane Surface(9) = {9};
Curve Loop(10) = {-16, -17, 18, 17};
Surface(10) = {10};
Curve Loop(11) = {16};
Plane Surface(11) = {11};
Curve Loop(12) = {18};
Plane Surface(12) = {12};
Curve Loop(13) = {-19, 22, 21, -20};
Plane Surface(13) = {13};
Curve Loop(14) = {-23, 19, 25, -24};
Plane Surface(14) = {14};
Curve Loop(15) = {-20, 25, 27, -26};
Plane Surface(15) = {15};
Curve Loop(16) = {-28, 21, 26, -29};
Plane Surface(16) = {16};
Curve Loop(17) = {-22, 23, 30, -28, -18, -15};
Plane Surface(17) = {17};
Curve Loop(18) = {-24, 30, 29, -27};
Plane Surface(18) = {18};
Surface Loop(1) = {13, 14, 15, 16, 17, 18, 10, 7, 11, 8};
Volume(1) = {1};
Surface Loop(2) = {7, 8, 9};
Volume(2) = {2};
Surface Loop(3) = {10, 11, 12};
Volume(3) = {3};
Physical Surface("WALLS") = {13, 18};
Physical Surface("LOAD") = {8, 11};
Physical Surface("BORDER") = {7, 9, 10, 12, 14, 15, 16, 17};
Physical Volume("SOLID") = {1, 2, 3};
