cl__1 = 0.108824;
cl__2 = 0.07636900000000001;
cl__3 = 0.841158;
cl__4 = 0.870314;
cl__5 = 1.380756;
cl__6 = 1.622186;
Point(9) = {13.925841, 0.2262029999999997, 0.1, cl__1};
Point(10) = {13.925841, 0.2262029999999997, 0, cl__1};
Point(11) = {18.803535, -0.9064920000000001, 0.1, cl__2};
Point(12) = {18.803535, -0.9064920000000001, 0, cl__2};
Point(13) = {0.062194, -3.419196, 1, cl__3};
Point(14) = {0.062194, -3.419196, 0, cl__3};
Point(15) = {0.062194, 5.196214000000001, 1, cl__4};
Point(16) = {0.062194, 5.196214000000001, 0, cl__4};
Point(17) = {34.762531, -3.419196, 0, cl__5};
Point(18) = {34.762531, -3.419196, 1, cl__5};
Point(19) = {34.762531, 5.196214000000001, 1, cl__6};
Point(20) = {34.762531, 5.196214000000001, 0, cl__6};
p13 = newp;
Point(p13 + 1) = {13.91244297208091, 0.3964410858009157, 0.1};
Point(p13 + 2) = {13.87257879223652, 0.5624873449415984, 0.1};
Point(p13 + 3) = {13.80723004887623, 0.7202531674460646, 0.1};
Point(p13 + 4) = {13.7180058449416, 0.8658538351695086, 0.1};
Point(p13 + 5) = {13.60710317645167, 0.9957041764516672, 0.1};
Point(p13 + 6) = {13.47725283516951, 1.106606844941598, 0.1};
Point(p13 + 7) = {13.33165216744607, 1.195831048876225, 0.1};
Point(p13 + 8) = {13.1738863449416, 1.261179792236522, 0.1};
Point(p13 + 9) = {13.00784008580092, 1.301043972080912, 0.1};
Point(p13 + 10) = {12.837602, 1.314442, 0.1};
Point(p13 + 11) = {12.66736391419908, 1.301043972080912, 0.1};
Point(p13 + 12) = {12.5013176550584, 1.261179792236522, 0.1};
Point(p13 + 13) = {12.34355183255394, 1.195831048876225, 0.1};
Point(p13 + 14) = {12.19795116483049, 1.106606844941598, 0.1};
Point(p13 + 15) = {12.06810082354833, 0.9957041764516672, 0.1};
Point(p13 + 16) = {11.9571981550584, 0.8658538351695089, 0.1};
Point(p13 + 17) = {11.86797395112377, 0.7202531674460647, 0.1};
Point(p13 + 18) = {11.80262520776348, 0.5624873449415985, 0.1};
Point(p13 + 19) = {11.76276102791909, 0.3964410858009159, 0.1};
Point(p13 + 20) = {11.749363, 0.2262030000000001, 0.1};
Point(p13 + 21) = {11.76276102791909, 0.05596491419908431, 0.1};
Point(p13 + 22) = {11.80262520776348, -0.1100813449415987, 0.1};
Point(p13 + 23) = {11.86797395112377, -0.2678471674460641, 0.1};
Point(p13 + 24) = {11.9571981550584, -0.4134478351695085, 0.1};
Point(p13 + 25) = {12.06810082354833, -0.5432981764516671, 0.1};
Point(p13 + 26) = {12.19795116483049, -0.6542008449415984, 0.1};
Point(p13 + 27) = {12.34355183255393, -0.7434250488762251, 0.1};
Point(p13 + 28) = {12.5013176550584, -0.8087737922365217, 0.1};
Point(p13 + 29) = {12.66736391419908, -0.8486379720809121, 0.1};
Point(p13 + 30) = {12.837602, -0.862036, 0.1};
Point(p13 + 31) = {13.00784008580092, -0.8486379720809121, 0.1};
Point(p13 + 32) = {13.1738863449416, -0.8087737922365217, 0.1};
Point(p13 + 33) = {13.33165216744606, -0.7434250488762253, 0.1};
Point(p13 + 34) = {13.47725283516951, -0.6542008449415986, 0.1};
Point(p13 + 35) = {13.60710317645167, -0.5432981764516673, 0.1};
Point(p13 + 36) = {13.7180058449416, -0.4134478351695088, 0.1};
Point(p13 + 37) = {13.80723004887623, -0.2678471674460648, 0.1};
Point(p13 + 38) = {13.87257879223652, -0.1100813449415986, 0.1};
Point(p13 + 39) = {13.91244297208091, 0.05596491419908392, 0.1};
Spline(13) = {9, p13 + 1, p13 + 2, p13 + 3, p13 + 4, p13 + 5, p13 + 6, p13 + 7, p13 + 8, p13 + 9, p13 + 10, p13 + 11, p13 + 12, p13 + 13, p13 + 14, p13 + 15, p13 + 16, p13 + 17, p13 + 18, p13 + 19, p13 + 20, p13 + 21, p13 + 22, p13 + 23, p13 + 24, p13 + 25, p13 + 26, p13 + 27, p13 + 28, p13 + 29, p13 + 30, p13 + 31, p13 + 32, p13 + 33, p13 + 34, p13 + 35, p13 + 36, p13 + 37, p13 + 38, p13 + 39, 9};
Line(14) = {10, 9};
p15 = newp;
Point(p15 + 1) = {13.91244297208091, 0.3964410858009157, 0};
Point(p15 + 2) = {13.87257879223652, 0.5624873449415984, 0};
Point(p15 + 3) = {13.80723004887623, 0.7202531674460646, 0};
Point(p15 + 4) = {13.7180058449416, 0.8658538351695086, 0};
Point(p15 + 5) = {13.60710317645167, 0.9957041764516672, 0};
Point(p15 + 6) = {13.47725283516951, 1.106606844941598, 0};
Point(p15 + 7) = {13.33165216744607, 1.195831048876225, 0};
Point(p15 + 8) = {13.1738863449416, 1.261179792236522, 0};
Point(p15 + 9) = {13.00784008580092, 1.301043972080912, 0};
Point(p15 + 10) = {12.837602, 1.314442, 0};
Point(p15 + 11) = {12.66736391419908, 1.301043972080912, 0};
Point(p15 + 12) = {12.5013176550584, 1.261179792236522, 0};
Point(p15 + 13) = {12.34355183255394, 1.195831048876225, 0};
Point(p15 + 14) = {12.19795116483049, 1.106606844941598, 0};
Point(p15 + 15) = {12.06810082354833, 0.9957041764516672, 0};
Point(p15 + 16) = {11.9571981550584, 0.8658538351695089, 0};
Point(p15 + 17) = {11.86797395112377, 0.7202531674460647, 0};
Point(p15 + 18) = {11.80262520776348, 0.5624873449415985, 0};
Point(p15 + 19) = {11.76276102791909, 0.3964410858009159, 0};
Point(p15 + 20) = {11.749363, 0.2262030000000001, 0};
Point(p15 + 21) = {11.76276102791909, 0.05596491419908431, 0};
Point(p15 + 22) = {11.80262520776348, -0.1100813449415987, 0};
Point(p15 + 23) = {11.86797395112377, -0.2678471674460641, 0};
Point(p15 + 24) = {11.9571981550584, -0.4134478351695085, 0};
Point(p15 + 25) = {12.06810082354833, -0.5432981764516671, 0};
Point(p15 + 26) = {12.19795116483049, -0.6542008449415984, 0};
Point(p15 + 27) = {12.34355183255393, -0.7434250488762251, 0};
Point(p15 + 28) = {12.5013176550584, -0.8087737922365217, 0};
Point(p15 + 29) = {12.66736391419908, -0.8486379720809121, 0};
Point(p15 + 30) = {12.837602, -0.862036, 0};
Point(p15 + 31) = {13.00784008580092, -0.8486379720809121, 0};
Point(p15 + 32) = {13.1738863449416, -0.8087737922365217, 0};
Point(p15 + 33) = {13.33165216744606, -0.7434250488762253, 0};
Point(p15 + 34) = {13.47725283516951, -0.6542008449415986, 0};
Point(p15 + 35) = {13.60710317645167, -0.5432981764516673, 0};
Point(p15 + 36) = {13.7180058449416, -0.4134478351695088, 0};
Point(p15 + 37) = {13.80723004887623, -0.2678471674460648, 0};
Point(p15 + 38) = {13.87257879223652, -0.1100813449415986, 0};
Point(p15 + 39) = {13.91244297208091, 0.05596491419908392, 0};
Spline(15) = {10, p15 + 1, p15 + 2, p15 + 3, p15 + 4, p15 + 5, p15 + 6, p15 + 7, p15 + 8, p15 + 9, p15 + 10, p15 + 11, p15 + 12, p15 + 13, p15 + 14, p15 + 15, p15 + 16, p15 + 17, p15 + 18, p15 + 19, p15 + 20, p15 + 21, p15 + 22, p15 + 23, p15 + 24, p15 + 25, p15 + 26, p15 + 27, p15 + 28, p15 + 29, p15 + 30, p15 + 31, p15 + 32, p15 + 33, p15 + 34, p15 + 35, p15 + 36, p15 + 37, p15 + 38, p15 + 39, 10};
p16 = newp;
Point(p16 + 1) = {18.79413265958246, -0.7870239376555659, 0.1};
Point(p16 + 2) = {18.76615715515551, -0.6704975754978189, 0.1};
Point(p16 + 3) = {18.72029733648351, -0.5597821792919065, 0.1};
Point(p16 + 4) = {18.65768242450218, -0.457603929535752, 0.1};
Point(p16 + 5) = {18.57985420615148, -0.3664787938485208, 0.1};
Point(p16 + 6) = {18.48872907046425, -0.2886505754978189, 0.1};
Point(p16 + 7) = {18.38655082070809, -0.2260356635164886, 0.1};
Point(p16 + 8) = {18.27583542450218, -0.180175844844489, 0.1};
Point(p16 + 9) = {18.15930906234443, -0.1522003404175368, 0.1};
Point(p16 + 10) = {18.039841, -0.142798, 0.1};
Point(p16 + 11) = {17.92037293765556, -0.1522003404175369, 0.1};
Point(p16 + 12) = {17.80384657549782, -0.1801758448444889, 0.1};
Point(p16 + 13) = {17.69313117929191, -0.2260356635164885, 0.1};
Point(p16 + 14) = {17.59095292953575, -0.2886505754978188, 0.1};
Point(p16 + 15) = {17.49982779384852, -0.3664787938485207, 0.1};
Point(p16 + 16) = {17.42199957549782, -0.4576039295357519, 0.1};
Point(p16 + 17) = {17.35938466351649, -0.5597821792919064, 0.1};
Point(p16 + 18) = {17.31352484484449, -0.6704975754978189, 0.1};
Point(p16 + 19) = {17.28554934041754, -0.7870239376555658, 0.1};
Point(p16 + 20) = {17.276147, -0.9064919999999999, 0.1};
Point(p16 + 21) = {17.28554934041754, -1.025960062344434, 0.1};
Point(p16 + 22) = {17.31352484484449, -1.142486424502181, 0.1};
Point(p16 + 23) = {17.35938466351649, -1.253201820708093, 0.1};
Point(p16 + 24) = {17.42199957549782, -1.355380070464248, 0.1};
Point(p16 + 25) = {17.49982779384852, -1.446505206151479, 0.1};
Point(p16 + 26) = {17.59095292953575, -1.524333424502181, 0.1};
Point(p16 + 27) = {17.69313117929191, -1.586948336483511, 0.1};
Point(p16 + 28) = {17.80384657549782, -1.632808155155511, 0.1};
Point(p16 + 29) = {17.92037293765556, -1.660783659582463, 0.1};
Point(p16 + 30) = {18.039841, -1.670186, 0.1};
Point(p16 + 31) = {18.15930906234443, -1.660783659582463, 0.1};
Point(p16 + 32) = {18.27583542450218, -1.632808155155511, 0.1};
Point(p16 + 33) = {18.38655082070809, -1.586948336483512, 0.1};
Point(p16 + 34) = {18.48872907046425, -1.524333424502181, 0.1};
Point(p16 + 35) = {18.57985420615148, -1.446505206151479, 0.1};
Point(p16 + 36) = {18.65768242450218, -1.355380070464248, 0.1};
Point(p16 + 37) = {18.72029733648351, -1.253201820708093, 0.1};
Point(p16 + 38) = {18.76615715515551, -1.142486424502181, 0.1};
Point(p16 + 39) = {18.79413265958246, -1.025960062344434, 0.1};
Spline(16) = {11, p16 + 1, p16 + 2, p16 + 3, p16 + 4, p16 + 5, p16 + 6, p16 + 7, p16 + 8, p16 + 9, p16 + 10, p16 + 11, p16 + 12, p16 + 13, p16 + 14, p16 + 15, p16 + 16, p16 + 17, p16 + 18, p16 + 19, p16 + 20, p16 + 21, p16 + 22, p16 + 23, p16 + 24, p16 + 25, p16 + 26, p16 + 27, p16 + 28, p16 + 29, p16 + 30, p16 + 31, p16 + 32, p16 + 33, p16 + 34, p16 + 35, p16 + 36, p16 + 37, p16 + 38, p16 + 39, 11};
Line(17) = {12, 11};
p18 = newp;
Point(p18 + 1) = {18.79413265958246, -0.7870239376555659, 0};
Point(p18 + 2) = {18.76615715515551, -0.6704975754978189, 0};
Point(p18 + 3) = {18.72029733648351, -0.5597821792919065, 0};
Point(p18 + 4) = {18.65768242450218, -0.457603929535752, 0};
Point(p18 + 5) = {18.57985420615148, -0.3664787938485208, 0};
Point(p18 + 6) = {18.48872907046425, -0.2886505754978189, 0};
Point(p18 + 7) = {18.38655082070809, -0.2260356635164886, 0};
Point(p18 + 8) = {18.27583542450218, -0.180175844844489, 0};
Point(p18 + 9) = {18.15930906234443, -0.1522003404175368, 0};
Point(p18 + 10) = {18.039841, -0.142798, 0};
Point(p18 + 11) = {17.92037293765556, -0.1522003404175369, 0};
Point(p18 + 12) = {17.80384657549782, -0.1801758448444889, 0};
Point(p18 + 13) = {17.69313117929191, -0.2260356635164885, 0};
Point(p18 + 14) = {17.59095292953575, -0.2886505754978188, 0};
Point(p18 + 15) = {17.49982779384852, -0.3664787938485207, 0};
Point(p18 + 16) = {17.42199957549782, -0.4576039295357519, 0};
Point(p18 + 17) = {17.35938466351649, -0.5597821792919064, 0};
Point(p18 + 18) = {17.31352484484449, -0.6704975754978189, 0};
Point(p18 + 19) = {17.28554934041754, -0.7870239376555658, 0};
Point(p18 + 20) = {17.276147, -0.9064919999999999, 0};
Point(p18 + 21) = {17.28554934041754, -1.025960062344434, 0};
Point(p18 + 22) = {17.31352484484449, -1.142486424502181, 0};
Point(p18 + 23) = {17.35938466351649, -1.253201820708093, 0};
Point(p18 + 24) = {17.42199957549782, -1.355380070464248, 0};
Point(p18 + 25) = {17.49982779384852, -1.446505206151479, 0};
Point(p18 + 26) = {17.59095292953575, -1.524333424502181, 0};
Point(p18 + 27) = {17.69313117929191, -1.586948336483511, 0};
Point(p18 + 28) = {17.80384657549782, -1.632808155155511, 0};
Point(p18 + 29) = {17.92037293765556, -1.660783659582463, 0};
Point(p18 + 30) = {18.039841, -1.670186, 0};
Point(p18 + 31) = {18.15930906234443, -1.660783659582463, 0};
Point(p18 + 32) = {18.27583542450218, -1.632808155155511, 0};
Point(p18 + 33) = {18.38655082070809, -1.586948336483512, 0};
Point(p18 + 34) = {18.48872907046425, -1.524333424502181, 0};
Point(p18 + 35) = {18.57985420615148, -1.446505206151479, 0};
Point(p18 + 36) = {18.65768242450218, -1.355380070464248, 0};
Point(p18 + 37) = {18.72029733648351, -1.253201820708093, 0};
Point(p18 + 38) = {18.76615715515551, -1.142486424502181, 0};
Point(p18 + 39) = {18.79413265958246, -1.025960062344434, 0};
Spline(18) = {12, p18 + 1, p18 + 2, p18 + 3, p18 + 4, p18 + 5, p18 + 6, p18 + 7, p18 + 8, p18 + 9, p18 + 10, p18 + 11, p18 + 12, p18 + 13, p18 + 14, p18 + 15, p18 + 16, p18 + 17, p18 + 18, p18 + 19, p18 + 20, p18 + 21, p18 + 22, p18 + 23, p18 + 24, p18 + 25, p18 + 26, p18 + 27, p18 + 28, p18 + 29, p18 + 30, p18 + 31, p18 + 32, p18 + 33, p18 + 34, p18 + 35, p18 + 36, p18 + 37, p18 + 38, p18 + 39, 12};
Line(19) = {14, 13};
Line(20) = {13, 15};
Line(21) = {16, 15};
Line(22) = {14, 16};
Line(23) = {14, 17};
Line(24) = {17, 18};
Line(25) = {13, 18};
Line(26) = {15, 19};
Line(27) = {18, 19};
Line(28) = {16, 20};
Line(29) = {20, 19};
Line(30) = {17, 20};
Curve Loop(7) = {-13, -14, 15, 14};
Surface(7) = {7};
Curve Loop(8) = {13};
Plane Surface(8) = {8};
Curve Loop(9) = {15};
Plane Surface(9) = {9};
Curve Loop(10) = {-16, -17, 18, 17};
Surface(10) = {10};
Curve Loop(11) = {16};
Plane Surface(11) = {11};
Curve Loop(12) = {18};
Plane Surface(12) = {12};
Curve Loop(13) = {-19, 22, 21, -20};
Plane Surface(13) = {13};
Curve Loop(14) = {-23, 19, 25, -24};
Plane Surface(14) = {14};
Curve Loop(15) = {-20, 25, 27, -26};
Plane Surface(15) = {15};
Curve Loop(16) = {-28, 21, 26, -29};
Plane Surface(16) = {16};
Curve Loop(17) = {-22, 23, 30, -28, -18, -15};
Plane Surface(17) = {17};
Curve Loop(18) = {-24, 30, 29, -27};
Plane Surface(18) = {18};
Surface Loop(1) = {13, 14, 15, 16, 17, 18, 10, 7, 11, 8};
Volume(1) = {1};
Surface Loop(2) = {7, 8, 9};
Volume(2) = {2};
Surface Loop(3) = {10, 11, 12};
Volume(3) = {3};
Physical Surface("WALLS") = {13, 18};
Physical Surface("LOAD") = {8, 11};
Physical Surface("BORDER") = {7, 9, 10, 12, 14, 15, 16, 17};
Physical Volume("SOLID") = {1, 2, 3};
