cl__1 = 0.140794;
cl__2 = 0.103515;
cl__3 = 0.345788;
cl__4 = 0.3485;
cl__5 = 4.612711;
cl__6 = 4.419647;
Point(9) = {11.365886, 1.375367, 0.1, cl__1};
Point(10) = {11.365886, 1.375367, 0, cl__1};
Point(11) = {3.808922, 0.6988489999999998, 0.1, cl__2};
Point(12) = {3.808922, 0.6988489999999998, 0, cl__2};
Point(13) = {0.413301, -3.9961, 0.1, cl__3};
Point(14) = {0.413301, -3.9961, 0, cl__3};
Point(15) = {0.413301, 5.430814999999999, 0.1, cl__4};
Point(16) = {0.413301, 5.430814999999999, 0, cl__4};
Point(17) = {31.005449, -3.9961, 0, cl__5};
Point(18) = {31.005449, -3.9961, 0.1, cl__5};
Point(19) = {31.005449, 5.430814999999999, 0.1, cl__6};
Point(20) = {31.005449, 5.430814999999999, 0, cl__6};
p13 = newp;
Point(p13 + 1) = {11.34855195919249, 1.595616871405348, 0.1};
Point(p13 + 2) = {11.29697665838305, 1.81044346000928, 0.1};
Point(p13 + 3) = {11.2124300526462, 2.014557022231798, 0.1};
Point(p13 + 4) = {11.09699396000928, 2.202931604756908, 0.1};
Point(p13 + 5) = {10.95351080018344, 2.370928800183444, 0.1};
Point(p13 + 6) = {10.78551360475691, 2.51441196000928, 0.1};
Point(p13 + 7) = {10.5971390222318, 2.629848052646198, 0.1};
Point(p13 + 8) = {10.39302546000928, 2.71439465838305, 0.1};
Point(p13 + 9) = {10.17819887140535, 2.765969959192496, 0.1};
Point(p13 + 10) = {9.957948999999999, 2.783304, 0.1};
Point(p13 + 11) = {9.737699128594652, 2.765969959192496, 0.1};
Point(p13 + 12) = {9.522872539990718, 2.71439465838305, 0.1};
Point(p13 + 13) = {9.318758977768201, 2.629848052646198, 0.1};
Point(p13 + 14) = {9.130384395243091, 2.51441196000928, 0.1};
Point(p13 + 15) = {8.962387199816556, 2.370928800183444, 0.1};
Point(p13 + 16) = {8.81890403999072, 2.202931604756908, 0.1};
Point(p13 + 17) = {8.703467947353801, 2.014557022231799, 0.1};
Point(p13 + 18) = {8.61892134161695, 1.81044346000928, 0.1};
Point(p13 + 19) = {8.567346040807504, 1.595616871405348, 0.1};
Point(p13 + 20) = {8.550011999999999, 1.375367, 0.1};
Point(p13 + 21) = {8.567346040807504, 1.155117128594653, 0.1};
Point(p13 + 22) = {8.61892134161695, 0.9402905399907192, 0.1};
Point(p13 + 23) = {8.703467947353801, 0.7361769777682025, 0.1};
Point(p13 + 24) = {8.818904039990718, 0.5478023952430924, 0.1};
Point(p13 + 25) = {8.962387199816554, 0.3798051998165559, 0.1};
Point(p13 + 26) = {9.130384395243091, 0.2363220399907198, 0.1};
Point(p13 + 27) = {9.318758977768201, 0.120885947353802, 0.1};
Point(p13 + 28) = {9.522872539990718, 0.0363393416169504, 0.1};
Point(p13 + 29) = {9.737699128594652, -0.01523595919249643, 0.1};
Point(p13 + 30) = {9.957948999999999, -0.03256999999999999, 0.1};
Point(p13 + 31) = {10.17819887140535, -0.01523595919249643, 0.1};
Point(p13 + 32) = {10.39302546000928, 0.03633934161695018, 0.1};
Point(p13 + 33) = {10.5971390222318, 0.1208859473538018, 0.1};
Point(p13 + 34) = {10.78551360475691, 0.2363220399907195, 0.1};
Point(p13 + 35) = {10.95351080018344, 0.3798051998165556, 0.1};
Point(p13 + 36) = {11.09699396000928, 0.5478023952430922, 0.1};
Point(p13 + 37) = {11.2124300526462, 0.7361769777682015, 0.1};
Point(p13 + 38) = {11.29697665838305, 0.9402905399907193, 0.1};
Point(p13 + 39) = {11.34855195919249, 1.155117128594652, 0.1};
Spline(13) = {9, p13 + 1, p13 + 2, p13 + 3, p13 + 4, p13 + 5, p13 + 6, p13 + 7, p13 + 8, p13 + 9, p13 + 10, p13 + 11, p13 + 12, p13 + 13, p13 + 14, p13 + 15, p13 + 16, p13 + 17, p13 + 18, p13 + 19, p13 + 20, p13 + 21, p13 + 22, p13 + 23, p13 + 24, p13 + 25, p13 + 26, p13 + 27, p13 + 28, p13 + 29, p13 + 30, p13 + 31, p13 + 32, p13 + 33, p13 + 34, p13 + 35, p13 + 36, p13 + 37, p13 + 38, p13 + 39, 9};
Line(14) = {10, 9};
p15 = newp;
Point(p15 + 1) = {11.34855195919249, 1.595616871405348, 0};
Point(p15 + 2) = {11.29697665838305, 1.81044346000928, 0};
Point(p15 + 3) = {11.2124300526462, 2.014557022231798, 0};
Point(p15 + 4) = {11.09699396000928, 2.202931604756908, 0};
Point(p15 + 5) = {10.95351080018344, 2.370928800183444, 0};
Point(p15 + 6) = {10.78551360475691, 2.51441196000928, 0};
Point(p15 + 7) = {10.5971390222318, 2.629848052646198, 0};
Point(p15 + 8) = {10.39302546000928, 2.71439465838305, 0};
Point(p15 + 9) = {10.17819887140535, 2.765969959192496, 0};
Point(p15 + 10) = {9.957948999999999, 2.783304, 0};
Point(p15 + 11) = {9.737699128594652, 2.765969959192496, 0};
Point(p15 + 12) = {9.522872539990718, 2.71439465838305, 0};
Point(p15 + 13) = {9.318758977768201, 2.629848052646198, 0};
Point(p15 + 14) = {9.130384395243091, 2.51441196000928, 0};
Point(p15 + 15) = {8.962387199816556, 2.370928800183444, 0};
Point(p15 + 16) = {8.81890403999072, 2.202931604756908, 0};
Point(p15 + 17) = {8.703467947353801, 2.014557022231799, 0};
Point(p15 + 18) = {8.61892134161695, 1.81044346000928, 0};
Point(p15 + 19) = {8.567346040807504, 1.595616871405348, 0};
Point(p15 + 20) = {8.550011999999999, 1.375367, 0};
Point(p15 + 21) = {8.567346040807504, 1.155117128594653, 0};
Point(p15 + 22) = {8.61892134161695, 0.9402905399907192, 0};
Point(p15 + 23) = {8.703467947353801, 0.7361769777682025, 0};
Point(p15 + 24) = {8.818904039990718, 0.5478023952430924, 0};
Point(p15 + 25) = {8.962387199816554, 0.3798051998165559, 0};
Point(p15 + 26) = {9.130384395243091, 0.2363220399907198, 0};
Point(p15 + 27) = {9.318758977768201, 0.120885947353802, 0};
Point(p15 + 28) = {9.522872539990718, 0.0363393416169504, 0};
Point(p15 + 29) = {9.737699128594652, -0.01523595919249643, 0};
Point(p15 + 30) = {9.957948999999999, -0.03256999999999999, 0};
Point(p15 + 31) = {10.17819887140535, -0.01523595919249643, 0};
Point(p15 + 32) = {10.39302546000928, 0.03633934161695018, 0};
Point(p15 + 33) = {10.5971390222318, 0.1208859473538018, 0};
Point(p15 + 34) = {10.78551360475691, 0.2363220399907195, 0};
Point(p15 + 35) = {10.95351080018344, 0.3798051998165556, 0};
Point(p15 + 36) = {11.09699396000928, 0.5478023952430922, 0};
Point(p15 + 37) = {11.2124300526462, 0.7361769777682015, 0};
Point(p15 + 38) = {11.29697665838305, 0.9402905399907193, 0};
Point(p15 + 39) = {11.34855195919249, 1.155117128594652, 0};
Spline(15) = {10, p15 + 1, p15 + 2, p15 + 3, p15 + 4, p15 + 5, p15 + 6, p15 + 7, p15 + 8, p15 + 9, p15 + 10, p15 + 11, p15 + 12, p15 + 13, p15 + 14, p15 + 15, p15 + 16, p15 + 17, p15 + 18, p15 + 19, p15 + 20, p15 + 21, p15 + 22, p15 + 23, p15 + 24, p15 + 25, p15 + 26, p15 + 27, p15 + 28, p15 + 29, p15 + 30, p15 + 31, p15 + 32, p15 + 33, p15 + 34, p15 + 35, p15 + 36, p15 + 37, p15 + 38, p15 + 39, 10};
p16 = newp;
Point(p16 + 1) = {3.796177561143738, 0.8607824493553251, 0.1};
Point(p16 + 2) = {3.758258054955961, 1.018728559761216, 0.1};
Point(p16 + 3) = {3.696097185526638, 1.168798173786391, 0.1};
Point(p16 + 4) = {3.611225559761215, 1.307296079481058, 0.1};
Point(p16 + 5) = {3.505732998758817, 1.430811998758817, 0.1};
Point(p16 + 6) = {3.382217079481058, 1.536304559761215, 0.1};
Point(p16 + 7) = {3.243719173786391, 1.621176185526637, 0.1};
Point(p16 + 8) = {3.093649559761215, 1.683337054955961, 0.1};
Point(p16 + 9) = {2.935703449355325, 1.721256561143738, 0.1};
Point(p16 + 10) = {2.77377, 1.734001, 0.1};
Point(p16 + 11) = {2.611836550644675, 1.721256561143738, 0.1};
Point(p16 + 12) = {2.453890440238784, 1.683337054955961, 0.1};
Point(p16 + 13) = {2.303820826213609, 1.621176185526638, 0.1};
Point(p16 + 14) = {2.165322920518942, 1.536304559761216, 0.1};
Point(p16 + 15) = {2.041807001241183, 1.430811998758817, 0.1};
Point(p16 + 16) = {1.936314440238784, 1.307296079481058, 0.1};
Point(p16 + 17) = {1.851442814473363, 1.168798173786392, 0.1};
Point(p16 + 18) = {1.789281945044039, 1.018728559761216, 0.1};
Point(p16 + 19) = {1.751362438856262, 0.8607824493553252, 0.1};
Point(p16 + 20) = {1.738618, 0.6988490000000002, 0.1};
Point(p16 + 21) = {1.751362438856262, 0.5369155506446751, 0.1};
Point(p16 + 22) = {1.789281945044039, 0.3789694402387841, 0.1};
Point(p16 + 23) = {1.851442814473362, 0.2288998262136092, 0.1};
Point(p16 + 24) = {1.936314440238784, 0.09040192051894202, 0.1};
Point(p16 + 25) = {2.041807001241183, -0.03311399875881693, 0.1};
Point(p16 + 26) = {2.165322920518942, -0.1386065597612155, 0.1};
Point(p16 + 27) = {2.303820826213608, -0.2234781855266373, 0.1};
Point(p16 + 28) = {2.453890440238784, -0.2856390549559608, 0.1};
Point(p16 + 29) = {2.611836550644675, -0.3235585611437379, 0.1};
Point(p16 + 30) = {2.77377, -0.336303, 0.1};
Point(p16 + 31) = {2.935703449355325, -0.3235585611437382, 0.1};
Point(p16 + 32) = {3.093649559761215, -0.2856390549559609, 0.1};
Point(p16 + 33) = {3.243719173786391, -0.2234781855266376, 0.1};
Point(p16 + 34) = {3.382217079481058, -0.1386065597612157, 0.1};
Point(p16 + 35) = {3.505732998758817, -0.03311399875881715, 0.1};
Point(p16 + 36) = {3.611225559761215, 0.09040192051894169, 0.1};
Point(p16 + 37) = {3.696097185526637, 0.2288998262136085, 0.1};
Point(p16 + 38) = {3.758258054955961, 0.3789694402387843, 0.1};
Point(p16 + 39) = {3.796177561143738, 0.5369155506446748, 0.1};
Spline(16) = {11, p16 + 1, p16 + 2, p16 + 3, p16 + 4, p16 + 5, p16 + 6, p16 + 7, p16 + 8, p16 + 9, p16 + 10, p16 + 11, p16 + 12, p16 + 13, p16 + 14, p16 + 15, p16 + 16, p16 + 17, p16 + 18, p16 + 19, p16 + 20, p16 + 21, p16 + 22, p16 + 23, p16 + 24, p16 + 25, p16 + 26, p16 + 27, p16 + 28, p16 + 29, p16 + 30, p16 + 31, p16 + 32, p16 + 33, p16 + 34, p16 + 35, p16 + 36, p16 + 37, p16 + 38, p16 + 39, 11};
Line(17) = {12, 11};
p18 = newp;
Point(p18 + 1) = {3.796177561143738, 0.8607824493553251, 0};
Point(p18 + 2) = {3.758258054955961, 1.018728559761216, 0};
Point(p18 + 3) = {3.696097185526638, 1.168798173786391, 0};
Point(p18 + 4) = {3.611225559761215, 1.307296079481058, 0};
Point(p18 + 5) = {3.505732998758817, 1.430811998758817, 0};
Point(p18 + 6) = {3.382217079481058, 1.536304559761215, 0};
Point(p18 + 7) = {3.243719173786391, 1.621176185526637, 0};
Point(p18 + 8) = {3.093649559761215, 1.683337054955961, 0};
Point(p18 + 9) = {2.935703449355325, 1.721256561143738, 0};
Point(p18 + 10) = {2.77377, 1.734001, 0};
Point(p18 + 11) = {2.611836550644675, 1.721256561143738, 0};
Point(p18 + 12) = {2.453890440238784, 1.683337054955961, 0};
Point(p18 + 13) = {2.303820826213609, 1.621176185526638, 0};
Point(p18 + 14) = {2.165322920518942, 1.536304559761216, 0};
Point(p18 + 15) = {2.041807001241183, 1.430811998758817, 0};
Point(p18 + 16) = {1.936314440238784, 1.307296079481058, 0};
Point(p18 + 17) = {1.851442814473363, 1.168798173786392, 0};
Point(p18 + 18) = {1.789281945044039, 1.018728559761216, 0};
Point(p18 + 19) = {1.751362438856262, 0.8607824493553252, 0};
Point(p18 + 20) = {1.738618, 0.6988490000000002, 0};
Point(p18 + 21) = {1.751362438856262, 0.5369155506446751, 0};
Point(p18 + 22) = {1.789281945044039, 0.3789694402387841, 0};
Point(p18 + 23) = {1.851442814473362, 0.2288998262136092, 0};
Point(p18 + 24) = {1.936314440238784, 0.09040192051894202, 0};
Point(p18 + 25) = {2.041807001241183, -0.03311399875881693, 0};
Point(p18 + 26) = {2.165322920518942, -0.1386065597612155, 0};
Point(p18 + 27) = {2.303820826213608, -0.2234781855266373, 0};
Point(p18 + 28) = {2.453890440238784, -0.2856390549559608, 0};
Point(p18 + 29) = {2.611836550644675, -0.3235585611437379, 0};
Point(p18 + 30) = {2.77377, -0.336303, 0};
Point(p18 + 31) = {2.935703449355325, -0.3235585611437382, 0};
Point(p18 + 32) = {3.093649559761215, -0.2856390549559609, 0};
Point(p18 + 33) = {3.243719173786391, -0.2234781855266376, 0};
Point(p18 + 34) = {3.382217079481058, -0.1386065597612157, 0};
Point(p18 + 35) = {3.505732998758817, -0.03311399875881715, 0};
Point(p18 + 36) = {3.611225559761215, 0.09040192051894169, 0};
Point(p18 + 37) = {3.696097185526637, 0.2288998262136085, 0};
Point(p18 + 38) = {3.758258054955961, 0.3789694402387843, 0};
Point(p18 + 39) = {3.796177561143738, 0.5369155506446748, 0};
Spline(18) = {12, p18 + 1, p18 + 2, p18 + 3, p18 + 4, p18 + 5, p18 + 6, p18 + 7, p18 + 8, p18 + 9, p18 + 10, p18 + 11, p18 + 12, p18 + 13, p18 + 14, p18 + 15, p18 + 16, p18 + 17, p18 + 18, p18 + 19, p18 + 20, p18 + 21, p18 + 22, p18 + 23, p18 + 24, p18 + 25, p18 + 26, p18 + 27, p18 + 28, p18 + 29, p18 + 30, p18 + 31, p18 + 32, p18 + 33, p18 + 34, p18 + 35, p18 + 36, p18 + 37, p18 + 38, p18 + 39, 12};
Line(19) = {14, 13};
Line(20) = {13, 15};
Line(21) = {16, 15};
Line(22) = {14, 16};
Line(23) = {14, 17};
Line(24) = {17, 18};
Line(25) = {13, 18};
Line(26) = {15, 19};
Line(27) = {18, 19};
Line(28) = {16, 20};
Line(29) = {20, 19};
Line(30) = {17, 20};
Curve Loop(7) = {-13, -14, 15, 14};
Surface(7) = {7};
Curve Loop(8) = {13};
Plane Surface(8) = {8};
Curve Loop(9) = {15};
Plane Surface(9) = {9};
Curve Loop(10) = {-16, -17, 18, 17};
Surface(10) = {10};
Curve Loop(11) = {16};
Plane Surface(11) = {11};
Curve Loop(12) = {18};
Plane Surface(12) = {12};
Curve Loop(13) = {-19, 22, 21, -20};
Plane Surface(13) = {13};
Curve Loop(14) = {-23, 19, 25, -24};
Plane Surface(14) = {14};
Curve Loop(15) = {-20, 25, 27, -26, -16, -13};
Plane Surface(15) = {15};
Curve Loop(16) = {-28, 21, 26, -29};
Plane Surface(16) = {16};
Curve Loop(17) = {-22, 23, 30, -28, -18, -15};
Plane Surface(17) = {17};
Curve Loop(18) = {-24, 30, 29, -27};
Plane Surface(18) = {18};
Surface Loop(1) = {13, 14, 15, 16, 17, 18, 10, 7};
Volume(1) = {1};
Surface Loop(2) = {7, 8, 9};
Volume(2) = {2};
Surface Loop(3) = {10, 11, 12};
Volume(3) = {3};
Physical Surface("WALLS") = {13, 18};
Physical Surface("LOAD") = {8, 11};
Physical Surface("BORDER") = {7, 9, 10, 12, 14, 15, 16, 17};
Physical Volume("SOLID") = {1, 2, 3};
