cl__1 = 0.079405;
cl__2 = 0.136639;
cl__3 = 1.707472;
cl__4 = 3.257437;
cl__5 = 0.576438;
cl__6 = 0.745956;
Point(9) = {11.750991, -2.267558, 0.1, cl__1};
Point(10) = {11.750991, -2.267558, 0, cl__1};
Point(11) = {29.516762, -0.2790250000000004, 0.1, cl__2};
Point(12) = {29.516762, -0.2790250000000004, 0, cl__2};
Point(13) = {0.355283, -3.990903, 0.1, cl__3};
Point(14) = {0.355283, -3.990903, 0, cl__3};
Point(15) = {0.355283, 5.479323000000001, 0.1, cl__4};
Point(16) = {0.355283, 5.479323000000001, 0, cl__4};
Point(17) = {33.070852, -3.990903, 0, cl__5};
Point(18) = {33.070852, -3.990903, 0.1, cl__5};
Point(19) = {33.070852, 5.479323000000001, 0.1, cl__6};
Point(20) = {33.070852, 5.479323000000001, 0, cl__6};
p13 = newp;
Point(p13 + 1) = {11.74121491453791, -2.14334105660034, 0.1};
Point(p13 + 2) = {11.71212737782068, -2.022182746599579, 0.1};
Point(p13 + 3) = {11.6644446215383, -1.907066389691313, 0.1};
Point(p13 + 4) = {11.59934075340042, -1.80082653263191, 0.1};
Point(p13 + 5) = {11.51841884670796, -1.706079153292041, 0.1};
Point(p13 + 6) = {11.42367146736809, -1.625157246599579, 0.1};
Point(p13 + 7) = {11.31743161030869, -1.560053378461703, 0.1};
Point(p13 + 8) = {11.20231525340042, -1.512370622179317, 0.1};
Point(p13 + 9) = {11.08115694339966, -1.48328308546209, 0.1};
Point(p13 + 10) = {10.95694, -1.473507, 0.1};
Point(p13 + 11) = {10.83272305660034, -1.48328308546209, 0.1};
Point(p13 + 12) = {10.71156474659958, -1.512370622179317, 0.1};
Point(p13 + 13) = {10.59644838969131, -1.560053378461703, 0.1};
Point(p13 + 14) = {10.49020853263191, -1.625157246599579, 0.1};
Point(p13 + 15) = {10.39546115329204, -1.706079153292041, 0.1};
Point(p13 + 16) = {10.31453924659958, -1.80082653263191, 0.1};
Point(p13 + 17) = {10.2494353784617, -1.907066389691313, 0.1};
Point(p13 + 18) = {10.20175262217932, -2.022182746599579, 0.1};
Point(p13 + 19) = {10.17266508546209, -2.14334105660034, 0.1};
Point(p13 + 20) = {10.162889, -2.267558, 0.1};
Point(p13 + 21) = {10.17266508546209, -2.39177494339966, 0.1};
Point(p13 + 22) = {10.20175262217932, -2.512933253400422, 0.1};
Point(p13 + 23) = {10.2494353784617, -2.628049610308687, 0.1};
Point(p13 + 24) = {10.31453924659958, -2.73428946736809, 0.1};
Point(p13 + 25) = {10.39546115329204, -2.829036846707959, 0.1};
Point(p13 + 26) = {10.49020853263191, -2.909958753400422, 0.1};
Point(p13 + 27) = {10.59644838969131, -2.975062621538298, 0.1};
Point(p13 + 28) = {10.71156474659958, -3.022745377820683, 0.1};
Point(p13 + 29) = {10.83272305660034, -3.05183291453791, 0.1};
Point(p13 + 30) = {10.95694, -3.061609, 0.1};
Point(p13 + 31) = {11.08115694339966, -3.05183291453791, 0.1};
Point(p13 + 32) = {11.20231525340042, -3.022745377820683, 0.1};
Point(p13 + 33) = {11.31743161030869, -2.975062621538298, 0.1};
Point(p13 + 34) = {11.42367146736809, -2.909958753400422, 0.1};
Point(p13 + 35) = {11.51841884670796, -2.82903684670796, 0.1};
Point(p13 + 36) = {11.59934075340042, -2.734289467368091, 0.1};
Point(p13 + 37) = {11.6644446215383, -2.628049610308687, 0.1};
Point(p13 + 38) = {11.71212737782068, -2.512933253400422, 0.1};
Point(p13 + 39) = {11.74121491453791, -2.391774943399661, 0.1};
Spline(13) = {9, p13 + 1, p13 + 2, p13 + 3, p13 + 4, p13 + 5, p13 + 6, p13 + 7, p13 + 8, p13 + 9, p13 + 10, p13 + 11, p13 + 12, p13 + 13, p13 + 14, p13 + 15, p13 + 16, p13 + 17, p13 + 18, p13 + 19, p13 + 20, p13 + 21, p13 + 22, p13 + 23, p13 + 24, p13 + 25, p13 + 26, p13 + 27, p13 + 28, p13 + 29, p13 + 30, p13 + 31, p13 + 32, p13 + 33, p13 + 34, p13 + 35, p13 + 36, p13 + 37, p13 + 38, p13 + 39, 9};
Line(14) = {10, 9};
p15 = newp;
Point(p15 + 1) = {11.74121491453791, -2.14334105660034, 0};
Point(p15 + 2) = {11.71212737782068, -2.022182746599579, 0};
Point(p15 + 3) = {11.6644446215383, -1.907066389691313, 0};
Point(p15 + 4) = {11.59934075340042, -1.80082653263191, 0};
Point(p15 + 5) = {11.51841884670796, -1.706079153292041, 0};
Point(p15 + 6) = {11.42367146736809, -1.625157246599579, 0};
Point(p15 + 7) = {11.31743161030869, -1.560053378461703, 0};
Point(p15 + 8) = {11.20231525340042, -1.512370622179317, 0};
Point(p15 + 9) = {11.08115694339966, -1.48328308546209, 0};
Point(p15 + 10) = {10.95694, -1.473507, 0};
Point(p15 + 11) = {10.83272305660034, -1.48328308546209, 0};
Point(p15 + 12) = {10.71156474659958, -1.512370622179317, 0};
Point(p15 + 13) = {10.59644838969131, -1.560053378461703, 0};
Point(p15 + 14) = {10.49020853263191, -1.625157246599579, 0};
Point(p15 + 15) = {10.39546115329204, -1.706079153292041, 0};
Point(p15 + 16) = {10.31453924659958, -1.80082653263191, 0};
Point(p15 + 17) = {10.2494353784617, -1.907066389691313, 0};
Point(p15 + 18) = {10.20175262217932, -2.022182746599579, 0};
Point(p15 + 19) = {10.17266508546209, -2.14334105660034, 0};
Point(p15 + 20) = {10.162889, -2.267558, 0};
Point(p15 + 21) = {10.17266508546209, -2.39177494339966, 0};
Point(p15 + 22) = {10.20175262217932, -2.512933253400422, 0};
Point(p15 + 23) = {10.2494353784617, -2.628049610308687, 0};
Point(p15 + 24) = {10.31453924659958, -2.73428946736809, 0};
Point(p15 + 25) = {10.39546115329204, -2.829036846707959, 0};
Point(p15 + 26) = {10.49020853263191, -2.909958753400422, 0};
Point(p15 + 27) = {10.59644838969131, -2.975062621538298, 0};
Point(p15 + 28) = {10.71156474659958, -3.022745377820683, 0};
Point(p15 + 29) = {10.83272305660034, -3.05183291453791, 0};
Point(p15 + 30) = {10.95694, -3.061609, 0};
Point(p15 + 31) = {11.08115694339966, -3.05183291453791, 0};
Point(p15 + 32) = {11.20231525340042, -3.022745377820683, 0};
Point(p15 + 33) = {11.31743161030869, -2.975062621538298, 0};
Point(p15 + 34) = {11.42367146736809, -2.909958753400422, 0};
Point(p15 + 35) = {11.51841884670796, -2.82903684670796, 0};
Point(p15 + 36) = {11.59934075340042, -2.734289467368091, 0};
Point(p15 + 37) = {11.6644446215383, -2.628049610308687, 0};
Point(p15 + 38) = {11.71212737782068, -2.512933253400422, 0};
Point(p15 + 39) = {11.74121491453791, -2.391774943399661, 0};
Spline(15) = {10, p15 + 1, p15 + 2, p15 + 3, p15 + 4, p15 + 5, p15 + 6, p15 + 7, p15 + 8, p15 + 9, p15 + 10, p15 + 11, p15 + 12, p15 + 13, p15 + 14, p15 + 15, p15 + 16, p15 + 17, p15 + 18, p15 + 19, p15 + 20, p15 + 21, p15 + 22, p15 + 23, p15 + 24, p15 + 25, p15 + 26, p15 + 27, p15 + 28, p15 + 29, p15 + 30, p15 + 31, p15 + 32, p15 + 33, p15 + 34, p15 + 35, p15 + 36, p15 + 37, p15 + 38, p15 + 39, 10};
p16 = newp;
Point(p16 + 1) = {29.49993943477081, -0.06527404201028386, 0.1};
Point(p16 + 2) = {29.44988596647008, 0.1432136579949675, 0.1};
Point(p16 + 3) = {29.36783407760532, 0.3413044409106185, 0.1};
Point(p16 + 4) = {29.25580415799497, 0.5241206542356691, 0.1};
Point(p16 + 5) = {29.11655475606583, 0.6871607560658302, 0.1};
Point(p16 + 6) = {28.95351465423567, 0.8264101579949674, 0.1};
Point(p16 + 7) = {28.77069844091062, 0.9384400776053163, 0.1};
Point(p16 + 8) = {28.57260765799497, 1.020491966470084, 0.1};
Point(p16 + 9) = {28.36411995798972, 1.070545434770812, 0.1};
Point(p16 + 10) = {28.150369, 1.087368, 0.1};
Point(p16 + 11) = {27.93661804201028, 1.070545434770812, 0.1};
Point(p16 + 12) = {27.72813034200503, 1.020491966470084, 0.1};
Point(p16 + 13) = {27.53003955908938, 0.9384400776053166, 0.1};
Point(p16 + 14) = {27.34722334576433, 0.8264101579949674, 0.1};
Point(p16 + 15) = {27.18418324393417, 0.6871607560658302, 0.1};
Point(p16 + 16) = {27.04493384200503, 0.5241206542356693, 0.1};
Point(p16 + 17) = {26.93290392239469, 0.3413044409106186, 0.1};
Point(p16 + 18) = {26.85085203352992, 0.1432136579949676, 0.1};
Point(p16 + 19) = {26.80079856522919, -0.06527404201028369, 0.1};
Point(p16 + 20) = {26.783976, -0.2790249999999999, 0.1};
Point(p16 + 21) = {26.80079856522919, -0.4927759579897161, 0.1};
Point(p16 + 22) = {26.85085203352992, -0.701263657994968, 0.1};
Point(p16 + 23) = {26.93290392239468, -0.899354440910618, 0.1};
Point(p16 + 24) = {27.04493384200503, -1.082170654235669, 0.1};
Point(p16 + 25) = {27.18418324393417, -1.24521075606583, 0.1};
Point(p16 + 26) = {27.34722334576433, -1.384460157994968, 0.1};
Point(p16 + 27) = {27.53003955908938, -1.496490077605316, 0.1};
Point(p16 + 28) = {27.72813034200503, -1.578541966470084, 0.1};
Point(p16 + 29) = {27.93661804201028, -1.628595434770812, 0.1};
Point(p16 + 30) = {28.150369, -1.645418, 0.1};
Point(p16 + 31) = {28.36411995798972, -1.628595434770812, 0.1};
Point(p16 + 32) = {28.57260765799497, -1.578541966470084, 0.1};
Point(p16 + 33) = {28.77069844091062, -1.496490077605317, 0.1};
Point(p16 + 34) = {28.95351465423567, -1.384460157994968, 0.1};
Point(p16 + 35) = {29.11655475606583, -1.245210756065831, 0.1};
Point(p16 + 36) = {29.25580415799497, -1.082170654235669, 0.1};
Point(p16 + 37) = {29.36783407760532, -0.8993544409106189, 0.1};
Point(p16 + 38) = {29.44988596647008, -0.7012636579949678, 0.1};
Point(p16 + 39) = {29.49993943477081, -0.4927759579897165, 0.1};
Spline(16) = {11, p16 + 1, p16 + 2, p16 + 3, p16 + 4, p16 + 5, p16 + 6, p16 + 7, p16 + 8, p16 + 9, p16 + 10, p16 + 11, p16 + 12, p16 + 13, p16 + 14, p16 + 15, p16 + 16, p16 + 17, p16 + 18, p16 + 19, p16 + 20, p16 + 21, p16 + 22, p16 + 23, p16 + 24, p16 + 25, p16 + 26, p16 + 27, p16 + 28, p16 + 29, p16 + 30, p16 + 31, p16 + 32, p16 + 33, p16 + 34, p16 + 35, p16 + 36, p16 + 37, p16 + 38, p16 + 39, 11};
Line(17) = {12, 11};
p18 = newp;
Point(p18 + 1) = {29.49993943477081, -0.06527404201028386, 0};
Point(p18 + 2) = {29.44988596647008, 0.1432136579949675, 0};
Point(p18 + 3) = {29.36783407760532, 0.3413044409106185, 0};
Point(p18 + 4) = {29.25580415799497, 0.5241206542356691, 0};
Point(p18 + 5) = {29.11655475606583, 0.6871607560658302, 0};
Point(p18 + 6) = {28.95351465423567, 0.8264101579949674, 0};
Point(p18 + 7) = {28.77069844091062, 0.9384400776053163, 0};
Point(p18 + 8) = {28.57260765799497, 1.020491966470084, 0};
Point(p18 + 9) = {28.36411995798972, 1.070545434770812, 0};
Point(p18 + 10) = {28.150369, 1.087368, 0};
Point(p18 + 11) = {27.93661804201028, 1.070545434770812, 0};
Point(p18 + 12) = {27.72813034200503, 1.020491966470084, 0};
Point(p18 + 13) = {27.53003955908938, 0.9384400776053166, 0};
Point(p18 + 14) = {27.34722334576433, 0.8264101579949674, 0};
Point(p18 + 15) = {27.18418324393417, 0.6871607560658302, 0};
Point(p18 + 16) = {27.04493384200503, 0.5241206542356693, 0};
Point(p18 + 17) = {26.93290392239469, 0.3413044409106186, 0};
Point(p18 + 18) = {26.85085203352992, 0.1432136579949676, 0};
Point(p18 + 19) = {26.80079856522919, -0.06527404201028369, 0};
Point(p18 + 20) = {26.783976, -0.2790249999999999, 0};
Point(p18 + 21) = {26.80079856522919, -0.4927759579897161, 0};
Point(p18 + 22) = {26.85085203352992, -0.701263657994968, 0};
Point(p18 + 23) = {26.93290392239468, -0.899354440910618, 0};
Point(p18 + 24) = {27.04493384200503, -1.082170654235669, 0};
Point(p18 + 25) = {27.18418324393417, -1.24521075606583, 0};
Point(p18 + 26) = {27.34722334576433, -1.384460157994968, 0};
Point(p18 + 27) = {27.53003955908938, -1.496490077605316, 0};
Point(p18 + 28) = {27.72813034200503, -1.578541966470084, 0};
Point(p18 + 29) = {27.93661804201028, -1.628595434770812, 0};
Point(p18 + 30) = {28.150369, -1.645418, 0};
Point(p18 + 31) = {28.36411995798972, -1.628595434770812, 0};
Point(p18 + 32) = {28.57260765799497, -1.578541966470084, 0};
Point(p18 + 33) = {28.77069844091062, -1.496490077605317, 0};
Point(p18 + 34) = {28.95351465423567, -1.384460157994968, 0};
Point(p18 + 35) = {29.11655475606583, -1.245210756065831, 0};
Point(p18 + 36) = {29.25580415799497, -1.082170654235669, 0};
Point(p18 + 37) = {29.36783407760532, -0.8993544409106189, 0};
Point(p18 + 38) = {29.44988596647008, -0.7012636579949678, 0};
Point(p18 + 39) = {29.49993943477081, -0.4927759579897165, 0};
Spline(18) = {12, p18 + 1, p18 + 2, p18 + 3, p18 + 4, p18 + 5, p18 + 6, p18 + 7, p18 + 8, p18 + 9, p18 + 10, p18 + 11, p18 + 12, p18 + 13, p18 + 14, p18 + 15, p18 + 16, p18 + 17, p18 + 18, p18 + 19, p18 + 20, p18 + 21, p18 + 22, p18 + 23, p18 + 24, p18 + 25, p18 + 26, p18 + 27, p18 + 28, p18 + 29, p18 + 30, p18 + 31, p18 + 32, p18 + 33, p18 + 34, p18 + 35, p18 + 36, p18 + 37, p18 + 38, p18 + 39, 12};
Line(19) = {14, 13};
Line(20) = {13, 15};
Line(21) = {16, 15};
Line(22) = {14, 16};
Line(23) = {14, 17};
Line(24) = {17, 18};
Line(25) = {13, 18};
Line(26) = {15, 19};
Line(27) = {18, 19};
Line(28) = {16, 20};
Line(29) = {20, 19};
Line(30) = {17, 20};
Curve Loop(7) = {-13, -14, 15, 14};
Surface(7) = {7};
Curve Loop(8) = {13};
Plane Surface(8) = {8};
Curve Loop(9) = {15};
Plane Surface(9) = {9};
Curve Loop(10) = {-16, -17, 18, 17};
Surface(10) = {10};
Curve Loop(11) = {16};
Plane Surface(11) = {11};
Curve Loop(12) = {18};
Plane Surface(12) = {12};
Curve Loop(13) = {-19, 22, 21, -20};
Plane Surface(13) = {13};
Curve Loop(14) = {-23, 19, 25, -24};
Plane Surface(14) = {14};
Curve Loop(15) = {-20, 25, 27, -26, -13, -16};
Plane Surface(15) = {15};
Curve Loop(16) = {-28, 21, 26, -29};
Plane Surface(16) = {16};
Curve Loop(17) = {-22, 23, 30, -28, -15, -18};
Plane Surface(17) = {17};
Curve Loop(18) = {-24, 30, 29, -27};
Plane Surface(18) = {18};
Surface Loop(1) = {13, 14, 15, 16, 17, 18, 7, 10};
Volume(1) = {1};
Surface Loop(2) = {7, 8, 9};
Volume(2) = {2};
Surface Loop(3) = {10, 11, 12};
Volume(3) = {3};
Physical Surface("WALLS") = {13, 18};
Physical Surface("LOAD") = {8, 11};
Physical Surface("BORDER") = {7, 9, 10, 12, 14, 15, 16, 17};
Physical Volume("SOLID") = {1, 2, 3};
