cl__1 = 0.112019;
cl__2 = 0.08347400000000001;
cl__3 = 5.340844;
cl__4 = 5.656827;
cl__5 = 0.135634;
cl__6 = 0.334591;
Point(9) = {35.515362, -1.507447, 0.1, cl__1};
Point(10) = {35.515362, -1.507447, 0, cl__1};
Point(11) = {29.982779, -1.531485, 0.1, cl__2};
Point(12) = {29.982779, -1.531485, 0, cl__2};
Point(13) = {0.2517, -4.245668, 0.1, cl__3};
Point(14) = {0.2517, -4.245668, 0, cl__3};
Point(15) = {0.2517, 4.738847999999999, 0.1, cl__4};
Point(16) = {0.2517, 4.738847999999999, 0, cl__4};
Point(17) = {36.250337, -4.245668, 0, cl__5};
Point(18) = {36.250337, -4.245668, 0.1, cl__5};
Point(19) = {36.250337, 4.738847999999999, 0.1, cl__6};
Point(20) = {36.250337, 4.738847999999999, 0, cl__6};
p13 = newp;
Point(p13 + 1) = {35.50157057762795, -1.332210363737654, 0.1};
Point(p13 + 2) = {35.4605359011017, -1.161288635037139, 0.1};
Point(p13 + 3) = {35.39326838034361, -0.9988904741157576, 0.1};
Point(p13 + 4) = {35.30142436496286, -0.8490146626639898, 0.1};
Point(p13 + 5) = {35.18726535943092, -0.715351640569079, 0.1};
Point(p13 + 6) = {35.05360233733601, -0.6011926350371389, 0.1};
Point(p13 + 7) = {34.90372652588425, -0.5093486196563838, 0.1};
Point(p13 + 8) = {34.74132836496286, -0.4420810988982993, 0.1};
Point(p13 + 9) = {34.57040663626235, -0.4010464223720513, 0.1};
Point(p13 + 10) = {34.39517, -0.3872549999999999, 0.1};
Point(p13 + 11) = {34.21993336373765, -0.4010464223720516, 0.1};
Point(p13 + 12) = {34.04901163503714, -0.4420810988982991, 0.1};
Point(p13 + 13) = {33.88661347411576, -0.5093486196563837, 0.1};
Point(p13 + 14) = {33.73673766266399, -0.6011926350371388, 0.1};
Point(p13 + 15) = {33.60307464056908, -0.7153516405690789, 0.1};
Point(p13 + 16) = {33.48891563503714, -0.8490146626639897, 0.1};
Point(p13 + 17) = {33.39707161965639, -0.9988904741157575, 0.1};
Point(p13 + 18) = {33.3298040988983, -1.161288635037139, 0.1};
Point(p13 + 19) = {33.28876942237205, -1.332210363737654, 0.1};
Point(p13 + 20) = {33.274978, -1.507447, 0.1};
Point(p13 + 21) = {33.28876942237205, -1.682683636262346, 0.1};
Point(p13 + 22) = {33.3298040988983, -1.853605364962861, 0.1};
Point(p13 + 23) = {33.39707161965639, -2.016003525884242, 0.1};
Point(p13 + 24) = {33.48891563503714, -2.16587933733601, 0.1};
Point(p13 + 25) = {33.60307464056908, -2.299542359430921, 0.1};
Point(p13 + 26) = {33.73673766266399, -2.413701364962861, 0.1};
Point(p13 + 27) = {33.88661347411576, -2.505545380343616, 0.1};
Point(p13 + 28) = {34.04901163503714, -2.572812901101701, 0.1};
Point(p13 + 29) = {34.21993336373765, -2.613847577627948, 0.1};
Point(p13 + 30) = {34.39517, -2.627639, 0.1};
Point(p13 + 31) = {34.57040663626235, -2.613847577627949, 0.1};
Point(p13 + 32) = {34.74132836496286, -2.572812901101701, 0.1};
Point(p13 + 33) = {34.90372652588425, -2.505545380343616, 0.1};
Point(p13 + 34) = {35.05360233733601, -2.413701364962861, 0.1};
Point(p13 + 35) = {35.18726535943092, -2.299542359430921, 0.1};
Point(p13 + 36) = {35.30142436496286, -2.16587933733601, 0.1};
Point(p13 + 37) = {35.39326838034361, -2.016003525884242, 0.1};
Point(p13 + 38) = {35.4605359011017, -1.853605364962861, 0.1};
Point(p13 + 39) = {35.50157057762795, -1.682683636262347, 0.1};
Spline(13) = {9, p13 + 1, p13 + 2, p13 + 3, p13 + 4, p13 + 5, p13 + 6, p13 + 7, p13 + 8, p13 + 9, p13 + 10, p13 + 11, p13 + 12, p13 + 13, p13 + 14, p13 + 15, p13 + 16, p13 + 17, p13 + 18, p13 + 19, p13 + 20, p13 + 21, p13 + 22, p13 + 23, p13 + 24, p13 + 25, p13 + 26, p13 + 27, p13 + 28, p13 + 29, p13 + 30, p13 + 31, p13 + 32, p13 + 33, p13 + 34, p13 + 35, p13 + 36, p13 + 37, p13 + 38, p13 + 39, 9};
Line(14) = {10, 9};
p15 = newp;
Point(p15 + 1) = {35.50157057762795, -1.332210363737654, 0};
Point(p15 + 2) = {35.4605359011017, -1.161288635037139, 0};
Point(p15 + 3) = {35.39326838034361, -0.9988904741157576, 0};
Point(p15 + 4) = {35.30142436496286, -0.8490146626639898, 0};
Point(p15 + 5) = {35.18726535943092, -0.715351640569079, 0};
Point(p15 + 6) = {35.05360233733601, -0.6011926350371389, 0};
Point(p15 + 7) = {34.90372652588425, -0.5093486196563838, 0};
Point(p15 + 8) = {34.74132836496286, -0.4420810988982993, 0};
Point(p15 + 9) = {34.57040663626235, -0.4010464223720513, 0};
Point(p15 + 10) = {34.39517, -0.3872549999999999, 0};
Point(p15 + 11) = {34.21993336373765, -0.4010464223720516, 0};
Point(p15 + 12) = {34.04901163503714, -0.4420810988982991, 0};
Point(p15 + 13) = {33.88661347411576, -0.5093486196563837, 0};
Point(p15 + 14) = {33.73673766266399, -0.6011926350371388, 0};
Point(p15 + 15) = {33.60307464056908, -0.7153516405690789, 0};
Point(p15 + 16) = {33.48891563503714, -0.8490146626639897, 0};
Point(p15 + 17) = {33.39707161965639, -0.9988904741157575, 0};
Point(p15 + 18) = {33.3298040988983, -1.161288635037139, 0};
Point(p15 + 19) = {33.28876942237205, -1.332210363737654, 0};
Point(p15 + 20) = {33.274978, -1.507447, 0};
Point(p15 + 21) = {33.28876942237205, -1.682683636262346, 0};
Point(p15 + 22) = {33.3298040988983, -1.853605364962861, 0};
Point(p15 + 23) = {33.39707161965639, -2.016003525884242, 0};
Point(p15 + 24) = {33.48891563503714, -2.16587933733601, 0};
Point(p15 + 25) = {33.60307464056908, -2.299542359430921, 0};
Point(p15 + 26) = {33.73673766266399, -2.413701364962861, 0};
Point(p15 + 27) = {33.88661347411576, -2.505545380343616, 0};
Point(p15 + 28) = {34.04901163503714, -2.572812901101701, 0};
Point(p15 + 29) = {34.21993336373765, -2.613847577627948, 0};
Point(p15 + 30) = {34.39517, -2.627639, 0};
Point(p15 + 31) = {34.57040663626235, -2.613847577627949, 0};
Point(p15 + 32) = {34.74132836496286, -2.572812901101701, 0};
Point(p15 + 33) = {34.90372652588425, -2.505545380343616, 0};
Point(p15 + 34) = {35.05360233733601, -2.413701364962861, 0};
Point(p15 + 35) = {35.18726535943092, -2.299542359430921, 0};
Point(p15 + 36) = {35.30142436496286, -2.16587933733601, 0};
Point(p15 + 37) = {35.39326838034361, -2.016003525884242, 0};
Point(p15 + 38) = {35.4605359011017, -1.853605364962861, 0};
Point(p15 + 39) = {35.50157057762795, -1.682683636262347, 0};
Spline(15) = {10, p15 + 1, p15 + 2, p15 + 3, p15 + 4, p15 + 5, p15 + 6, p15 + 7, p15 + 8, p15 + 9, p15 + 10, p15 + 11, p15 + 12, p15 + 13, p15 + 14, p15 + 15, p15 + 16, p15 + 17, p15 + 18, p15 + 19, p15 + 20, p15 + 21, p15 + 22, p15 + 23, p15 + 24, p15 + 25, p15 + 26, p15 + 27, p15 + 28, p15 + 29, p15 + 30, p15 + 31, p15 + 32, p15 + 33, p15 + 34, p15 + 35, p15 + 36, p15 + 37, p15 + 38, p15 + 39, 10};
p16 = newp;
Point(p16 + 1) = {29.97250201467502, -1.400903520390178, 0.1};
Point(p16 + 2) = {29.94192411218615, -1.273537390183434, 0.1};
Point(p16 + 3) = {29.8917982219749, -1.15252278620941, 0.1};
Point(p16 + 4) = {29.82335860981657, -1.04083948964239, 0.1};
Point(p16 + 5) = {29.73829048610054, -0.9412375138994661, 0.1};
Point(p16 + 6) = {29.63868851035761, -0.856169390183434, 0.1};
Point(p16 + 7) = {29.52700521379059, -0.7877297780250986, 0.1};
Point(p16 + 8) = {29.40599060981657, -0.7376038878138487, 0.1};
Point(p16 + 9) = {29.27862447960982, -0.7070259853249771, 0.1};
Point(p16 + 10) = {29.148043, -0.696749, 0.1};
Point(p16 + 11) = {29.01746152039018, -0.7070259853249771, 0.1};
Point(p16 + 12) = {28.89009539018344, -0.7376038878138486, 0.1};
Point(p16 + 13) = {28.76908078620941, -0.7877297780250985, 0.1};
Point(p16 + 14) = {28.65739748964239, -0.8561693901834339, 0.1};
Point(p16 + 15) = {28.55779551389947, -0.941237513899466, 0.1};
Point(p16 + 16) = {28.47272739018344, -1.04083948964239, 0.1};
Point(p16 + 17) = {28.4042877780251, -1.15252278620941, 0.1};
Point(p16 + 18) = {28.35416188781385, -1.273537390183434, 0.1};
Point(p16 + 19) = {28.32358398532498, -1.400903520390178, 0.1};
Point(p16 + 20) = {28.313307, -1.531485, 0.1};
Point(p16 + 21) = {28.32358398532498, -1.662066479609822, 0.1};
Point(p16 + 22) = {28.35416188781385, -1.789432609816566, 0.1};
Point(p16 + 23) = {28.4042877780251, -1.91044721379059, 0.1};
Point(p16 + 24) = {28.47272739018344, -2.02213051035761, 0.1};
Point(p16 + 25) = {28.55779551389947, -2.121732486100534, 0.1};
Point(p16 + 26) = {28.65739748964239, -2.206800609816566, 0.1};
Point(p16 + 27) = {28.76908078620941, -2.275240221974901, 0.1};
Point(p16 + 28) = {28.89009539018344, -2.325366112186151, 0.1};
Point(p16 + 29) = {29.01746152039018, -2.355944014675023, 0.1};
Point(p16 + 30) = {29.148043, -2.366221, 0.1};
Point(p16 + 31) = {29.27862447960982, -2.355944014675023, 0.1};
Point(p16 + 32) = {29.40599060981657, -2.325366112186151, 0.1};
Point(p16 + 33) = {29.52700521379059, -2.275240221974902, 0.1};
Point(p16 + 34) = {29.63868851035761, -2.206800609816566, 0.1};
Point(p16 + 35) = {29.73829048610054, -2.121732486100534, 0.1};
Point(p16 + 36) = {29.82335860981657, -2.02213051035761, 0.1};
Point(p16 + 37) = {29.8917982219749, -1.910447213790591, 0.1};
Point(p16 + 38) = {29.94192411218615, -1.789432609816566, 0.1};
Point(p16 + 39) = {29.97250201467502, -1.662066479609822, 0.1};
Spline(16) = {11, p16 + 1, p16 + 2, p16 + 3, p16 + 4, p16 + 5, p16 + 6, p16 + 7, p16 + 8, p16 + 9, p16 + 10, p16 + 11, p16 + 12, p16 + 13, p16 + 14, p16 + 15, p16 + 16, p16 + 17, p16 + 18, p16 + 19, p16 + 20, p16 + 21, p16 + 22, p16 + 23, p16 + 24, p16 + 25, p16 + 26, p16 + 27, p16 + 28, p16 + 29, p16 + 30, p16 + 31, p16 + 32, p16 + 33, p16 + 34, p16 + 35, p16 + 36, p16 + 37, p16 + 38, p16 + 39, 11};
Line(17) = {12, 11};
p18 = newp;
Point(p18 + 1) = {29.97250201467502, -1.400903520390178, 0};
Point(p18 + 2) = {29.94192411218615, -1.273537390183434, 0};
Point(p18 + 3) = {29.8917982219749, -1.15252278620941, 0};
Point(p18 + 4) = {29.82335860981657, -1.04083948964239, 0};
Point(p18 + 5) = {29.73829048610054, -0.9412375138994661, 0};
Point(p18 + 6) = {29.63868851035761, -0.856169390183434, 0};
Point(p18 + 7) = {29.52700521379059, -0.7877297780250986, 0};
Point(p18 + 8) = {29.40599060981657, -0.7376038878138487, 0};
Point(p18 + 9) = {29.27862447960982, -0.7070259853249771, 0};
Point(p18 + 10) = {29.148043, -0.696749, 0};
Point(p18 + 11) = {29.01746152039018, -0.7070259853249771, 0};
Point(p18 + 12) = {28.89009539018344, -0.7376038878138486, 0};
Point(p18 + 13) = {28.76908078620941, -0.7877297780250985, 0};
Point(p18 + 14) = {28.65739748964239, -0.8561693901834339, 0};
Point(p18 + 15) = {28.55779551389947, -0.941237513899466, 0};
Point(p18 + 16) = {28.47272739018344, -1.04083948964239, 0};
Point(p18 + 17) = {28.4042877780251, -1.15252278620941, 0};
Point(p18 + 18) = {28.35416188781385, -1.273537390183434, 0};
Point(p18 + 19) = {28.32358398532498, -1.400903520390178, 0};
Point(p18 + 20) = {28.313307, -1.531485, 0};
Point(p18 + 21) = {28.32358398532498, -1.662066479609822, 0};
Point(p18 + 22) = {28.35416188781385, -1.789432609816566, 0};
Point(p18 + 23) = {28.4042877780251, -1.91044721379059, 0};
Point(p18 + 24) = {28.47272739018344, -2.02213051035761, 0};
Point(p18 + 25) = {28.55779551389947, -2.121732486100534, 0};
Point(p18 + 26) = {28.65739748964239, -2.206800609816566, 0};
Point(p18 + 27) = {28.76908078620941, -2.275240221974901, 0};
Point(p18 + 28) = {28.89009539018344, -2.325366112186151, 0};
Point(p18 + 29) = {29.01746152039018, -2.355944014675023, 0};
Point(p18 + 30) = {29.148043, -2.366221, 0};
Point(p18 + 31) = {29.27862447960982, -2.355944014675023, 0};
Point(p18 + 32) = {29.40599060981657, -2.325366112186151, 0};
Point(p18 + 33) = {29.52700521379059, -2.275240221974902, 0};
Point(p18 + 34) = {29.63868851035761, -2.206800609816566, 0};
Point(p18 + 35) = {29.73829048610054, -2.121732486100534, 0};
Point(p18 + 36) = {29.82335860981657, -2.02213051035761, 0};
Point(p18 + 37) = {29.8917982219749, -1.910447213790591, 0};
Point(p18 + 38) = {29.94192411218615, -1.789432609816566, 0};
Point(p18 + 39) = {29.97250201467502, -1.662066479609822, 0};
Spline(18) = {12, p18 + 1, p18 + 2, p18 + 3, p18 + 4, p18 + 5, p18 + 6, p18 + 7, p18 + 8, p18 + 9, p18 + 10, p18 + 11, p18 + 12, p18 + 13, p18 + 14, p18 + 15, p18 + 16, p18 + 17, p18 + 18, p18 + 19, p18 + 20, p18 + 21, p18 + 22, p18 + 23, p18 + 24, p18 + 25, p18 + 26, p18 + 27, p18 + 28, p18 + 29, p18 + 30, p18 + 31, p18 + 32, p18 + 33, p18 + 34, p18 + 35, p18 + 36, p18 + 37, p18 + 38, p18 + 39, 12};
Line(19) = {14, 13};
Line(20) = {13, 15};
Line(21) = {16, 15};
Line(22) = {14, 16};
Line(23) = {14, 17};
Line(24) = {17, 18};
Line(25) = {13, 18};
Line(26) = {15, 19};
Line(27) = {18, 19};
Line(28) = {16, 20};
Line(29) = {20, 19};
Line(30) = {17, 20};
Curve Loop(7) = {-13, -14, 15, 14};
Surface(7) = {7};
Curve Loop(8) = {13};
Plane Surface(8) = {8};
Curve Loop(9) = {15};
Plane Surface(9) = {9};
Curve Loop(10) = {-16, -17, 18, 17};
Surface(10) = {10};
Curve Loop(11) = {16};
Plane Surface(11) = {11};
Curve Loop(12) = {18};
Plane Surface(12) = {12};
Curve Loop(13) = {-19, 22, 21, -20};
Plane Surface(13) = {13};
Curve Loop(14) = {-23, 19, 25, -24};
Plane Surface(14) = {14};
Curve Loop(15) = {-20, 25, 27, -26, -16, -13};
Plane Surface(15) = {15};
Curve Loop(16) = {-28, 21, 26, -29};
Plane Surface(16) = {16};
Curve Loop(17) = {-22, 23, 30, -28, -18, -15};
Plane Surface(17) = {17};
Curve Loop(18) = {-24, 30, 29, -27};
Plane Surface(18) = {18};
Surface Loop(1) = {13, 14, 15, 16, 17, 18, 10, 7};
Volume(1) = {1};
Surface Loop(2) = {7, 8, 9};
Volume(2) = {2};
Surface Loop(3) = {10, 11, 12};
Volume(3) = {3};
Physical Surface("WALLS") = {13, 18};
Physical Surface("LOAD") = {8, 11};
Physical Surface("BORDER") = {7, 9, 10, 12, 14, 15, 16, 17};
Physical Volume("SOLID") = {1, 2, 3};
