cl__1 = 0.07031999999999999;
cl__2 = 0.089073;
cl__3 = 1.731399;
cl__4 = 1.880205;
cl__5 = 0.769266;
cl__6 = 0.795702;
Point(9) = {11.909576, 0.09262699999999983, 0.1, cl__1};
Point(10) = {11.909576, 0.09262699999999983, 0, cl__1};
Point(11) = {30.110565, 0.2981689999999998, 0.1, cl__2};
Point(12) = {30.110565, 0.2981689999999998, 0, cl__2};
Point(13) = {0.082428, -3.56027, 0.1, cl__3};
Point(14) = {0.082428, -3.56027, 0, cl__3};
Point(15) = {0.082428, 4.633399, 0.1, cl__4};
Point(16) = {0.082428, 4.633399, 0, cl__4};
Point(17) = {36.160471, -3.56027, 0, cl__5};
Point(18) = {36.160471, -3.56027, 0.1, cl__5};
Point(19) = {36.160471, 4.633399, 0.1, cl__6};
Point(20) = {36.160471, 4.633399, 0, cl__6};
p13 = newp;
Point(p13 + 1) = {11.90091847804148, 0.2026312465128952, 0.1};
Point(p13 + 2) = {11.8751590890892, 0.3099268233934799, 0.1};
Point(p13 + 3) = {11.83293211478969, 0.41187175744535, 0.1};
Point(p13 + 4) = {11.77527732339348, 0.5059558260563102, 0.1};
Point(p13 + 5) = {11.70361436721004, 0.5898623672100366, 0.1};
Point(p13 + 6) = {11.61970782605631, 0.6615253233934798, 0.1};
Point(p13 + 7) = {11.52562375744535, 0.7191801147896877, 0.1};
Point(p13 + 8) = {11.42367882339348, 0.7614070890892031, 0.1};
Point(p13 + 9) = {11.3163832465129, 0.7871664780414791, 0.1};
Point(p13 + 10) = {11.206379, 0.795824, 0.1};
Point(p13 + 11) = {11.0963747534871, 0.787166478041479, 0.1};
Point(p13 + 12) = {10.98907917660652, 0.7614070890892032, 0.1};
Point(p13 + 13) = {10.88713424255465, 0.7191801147896877, 0.1};
Point(p13 + 14) = {10.79305017394369, 0.6615253233934799, 0.1};
Point(p13 + 15) = {10.70914363278996, 0.5898623672100366, 0.1};
Point(p13 + 16) = {10.63748067660652, 0.5059558260563103, 0.1};
Point(p13 + 17) = {10.57982588521031, 0.4118717574453502, 0.1};
Point(p13 + 18) = {10.5375989109108, 0.3099268233934799, 0.1};
Point(p13 + 19) = {10.51183952195852, 0.2026312465128953, 0.1};
Point(p13 + 20) = {10.503182, 0.09262700000000008, 0.1};
Point(p13 + 21) = {10.51183952195852, -0.01737724651289514, 0.1};
Point(p13 + 22) = {10.5375989109108, -0.1246728233934801, 0.1};
Point(p13 + 23) = {10.57982588521031, -0.2266177574453497, 0.1};
Point(p13 + 24) = {10.63748067660652, -0.3207018260563101, 0.1};
Point(p13 + 25) = {10.70914363278996, -0.4046083672100366, 0.1};
Point(p13 + 26) = {10.79305017394369, -0.4762713233934798, 0.1};
Point(p13 + 27) = {10.88713424255465, -0.5339261147896877, 0.1};
Point(p13 + 28) = {10.98907917660652, -0.576153089089203, 0.1};
Point(p13 + 29) = {11.0963747534871, -0.601912478041479, 0.1};
Point(p13 + 30) = {11.206379, -0.6105699999999999, 0.1};
Point(p13 + 31) = {11.3163832465129, -0.6019124780414791, 0.1};
Point(p13 + 32) = {11.42367882339348, -0.5761530890892032, 0.1};
Point(p13 + 33) = {11.52562375744535, -0.5339261147896878, 0.1};
Point(p13 + 34) = {11.61970782605631, -0.47627132339348, 0.1};
Point(p13 + 35) = {11.70361436721004, -0.4046083672100367, 0.1};
Point(p13 + 36) = {11.77527732339348, -0.3207018260563103, 0.1};
Point(p13 + 37) = {11.83293211478969, -0.2266177574453502, 0.1};
Point(p13 + 38) = {11.8751590890892, -0.12467282339348, 0.1};
Point(p13 + 39) = {11.90091847804148, -0.01737724651289539, 0.1};
Spline(13) = {9, p13 + 1, p13 + 2, p13 + 3, p13 + 4, p13 + 5, p13 + 6, p13 + 7, p13 + 8, p13 + 9, p13 + 10, p13 + 11, p13 + 12, p13 + 13, p13 + 14, p13 + 15, p13 + 16, p13 + 17, p13 + 18, p13 + 19, p13 + 20, p13 + 21, p13 + 22, p13 + 23, p13 + 24, p13 + 25, p13 + 26, p13 + 27, p13 + 28, p13 + 29, p13 + 30, p13 + 31, p13 + 32, p13 + 33, p13 + 34, p13 + 35, p13 + 36, p13 + 37, p13 + 38, p13 + 39, 9};
Line(14) = {10, 9};
p15 = newp;
Point(p15 + 1) = {11.90091847804148, 0.2026312465128952, 0};
Point(p15 + 2) = {11.8751590890892, 0.3099268233934799, 0};
Point(p15 + 3) = {11.83293211478969, 0.41187175744535, 0};
Point(p15 + 4) = {11.77527732339348, 0.5059558260563102, 0};
Point(p15 + 5) = {11.70361436721004, 0.5898623672100366, 0};
Point(p15 + 6) = {11.61970782605631, 0.6615253233934798, 0};
Point(p15 + 7) = {11.52562375744535, 0.7191801147896877, 0};
Point(p15 + 8) = {11.42367882339348, 0.7614070890892031, 0};
Point(p15 + 9) = {11.3163832465129, 0.7871664780414791, 0};
Point(p15 + 10) = {11.206379, 0.795824, 0};
Point(p15 + 11) = {11.0963747534871, 0.787166478041479, 0};
Point(p15 + 12) = {10.98907917660652, 0.7614070890892032, 0};
Point(p15 + 13) = {10.88713424255465, 0.7191801147896877, 0};
Point(p15 + 14) = {10.79305017394369, 0.6615253233934799, 0};
Point(p15 + 15) = {10.70914363278996, 0.5898623672100366, 0};
Point(p15 + 16) = {10.63748067660652, 0.5059558260563103, 0};
Point(p15 + 17) = {10.57982588521031, 0.4118717574453502, 0};
Point(p15 + 18) = {10.5375989109108, 0.3099268233934799, 0};
Point(p15 + 19) = {10.51183952195852, 0.2026312465128953, 0};
Point(p15 + 20) = {10.503182, 0.09262700000000008, 0};
Point(p15 + 21) = {10.51183952195852, -0.01737724651289514, 0};
Point(p15 + 22) = {10.5375989109108, -0.1246728233934801, 0};
Point(p15 + 23) = {10.57982588521031, -0.2266177574453497, 0};
Point(p15 + 24) = {10.63748067660652, -0.3207018260563101, 0};
Point(p15 + 25) = {10.70914363278996, -0.4046083672100366, 0};
Point(p15 + 26) = {10.79305017394369, -0.4762713233934798, 0};
Point(p15 + 27) = {10.88713424255465, -0.5339261147896877, 0};
Point(p15 + 28) = {10.98907917660652, -0.576153089089203, 0};
Point(p15 + 29) = {11.0963747534871, -0.601912478041479, 0};
Point(p15 + 30) = {11.206379, -0.6105699999999999, 0};
Point(p15 + 31) = {11.3163832465129, -0.6019124780414791, 0};
Point(p15 + 32) = {11.42367882339348, -0.5761530890892032, 0};
Point(p15 + 33) = {11.52562375744535, -0.5339261147896878, 0};
Point(p15 + 34) = {11.61970782605631, -0.47627132339348, 0};
Point(p15 + 35) = {11.70361436721004, -0.4046083672100367, 0};
Point(p15 + 36) = {11.77527732339348, -0.3207018260563103, 0};
Point(p15 + 37) = {11.83293211478969, -0.2266177574453502, 0};
Point(p15 + 38) = {11.8751590890892, -0.12467282339348, 0};
Point(p15 + 39) = {11.90091847804148, -0.01737724651289539, 0};
Spline(15) = {10, p15 + 1, p15 + 2, p15 + 3, p15 + 4, p15 + 5, p15 + 6, p15 + 7, p15 + 8, p15 + 9, p15 + 10, p15 + 11, p15 + 12, p15 + 13, p15 + 14, p15 + 15, p15 + 16, p15 + 17, p15 + 18, p15 + 19, p15 + 20, p15 + 21, p15 + 22, p15 + 23, p15 + 24, p15 + 25, p15 + 26, p15 + 27, p15 + 28, p15 + 29, p15 + 30, p15 + 31, p15 + 32, p15 + 33, p15 + 34, p15 + 35, p15 + 36, p15 + 37, p15 + 38, p15 + 39, 10};
p16 = newp;
Point(p16 + 1) = {30.09959861099499, 0.4375101839142149, 0.1};
Point(p16 + 2) = {30.06696947287261, 0.5734203254335857, 0.1};
Point(p16 + 3) = {30.01348102330336, 0.7025528658140059, 0.1};
Point(p16 + 4) = {29.94045032543359, 0.8217281333449792, 0.1};
Point(p16 + 5) = {29.84967563741986, 0.9280116374198558, 0.1};
Point(p16 + 6) = {29.74339213334498, 1.018786325433586, 0.1};
Point(p16 + 7) = {29.62421686581401, 1.091817023303353, 0.1};
Point(p16 + 8) = {29.49508432543359, 1.145305472872615, 0.1};
Point(p16 + 9) = {29.35917418391422, 1.177934610994988, 0.1};
Point(p16 + 10) = {29.219833, 1.188901, 0.1};
Point(p16 + 11) = {29.08049181608579, 1.177934610994988, 0.1};
Point(p16 + 12) = {28.94458167456641, 1.145305472872615, 0.1};
Point(p16 + 13) = {28.815449134186, 1.091817023303353, 0.1};
Point(p16 + 14) = {28.69627386665502, 1.018786325433586, 0.1};
Point(p16 + 15) = {28.58999036258015, 0.9280116374198559, 0.1};
Point(p16 + 16) = {28.49921567456641, 0.8217281333449793, 0.1};
Point(p16 + 17) = {28.42618497669665, 0.7025528658140061, 0.1};
Point(p16 + 18) = {28.37269652712739, 0.5734203254335857, 0.1};
Point(p16 + 19) = {28.34006738900501, 0.437510183914215, 0.1};
Point(p16 + 20) = {28.329101, 0.2981690000000001, 0.1};
Point(p16 + 21) = {28.34006738900501, 0.1588278160857852, 0.1};
Point(p16 + 22) = {28.37269652712739, 0.02291767456641408, 0.1};
Point(p16 + 23) = {28.42618497669665, -0.1062148658140055, 0.1};
Point(p16 + 24) = {28.49921567456641, -0.225390133344979, 0.1};
Point(p16 + 25) = {28.58999036258015, -0.3316736374198558, 0.1};
Point(p16 + 26) = {28.69627386665502, -0.4224483254335856, 0.1};
Point(p16 + 27) = {28.815449134186, -0.4954790233033531, 0.1};
Point(p16 + 28) = {28.94458167456641, -0.5489674728726146, 0.1};
Point(p16 + 29) = {29.08049181608579, -0.5815966109949882, 0.1};
Point(p16 + 30) = {29.219833, -0.592563, 0.1};
Point(p16 + 31) = {29.35917418391422, -0.5815966109949882, 0.1};
Point(p16 + 32) = {29.49508432543359, -0.5489674728726147, 0.1};
Point(p16 + 33) = {29.62421686581401, -0.4954790233033534, 0.1};
Point(p16 + 34) = {29.74339213334498, -0.4224483254335858, 0.1};
Point(p16 + 35) = {29.84967563741986, -0.331673637419856, 0.1};
Point(p16 + 36) = {29.94045032543359, -0.2253901333449793, 0.1};
Point(p16 + 37) = {30.01348102330336, -0.1062148658140061, 0.1};
Point(p16 + 38) = {30.06696947287261, 0.02291767456641419, 0.1};
Point(p16 + 39) = {30.09959861099499, 0.1588278160857849, 0.1};
Spline(16) = {11, p16 + 1, p16 + 2, p16 + 3, p16 + 4, p16 + 5, p16 + 6, p16 + 7, p16 + 8, p16 + 9, p16 + 10, p16 + 11, p16 + 12, p16 + 13, p16 + 14, p16 + 15, p16 + 16, p16 + 17, p16 + 18, p16 + 19, p16 + 20, p16 + 21, p16 + 22, p16 + 23, p16 + 24, p16 + 25, p16 + 26, p16 + 27, p16 + 28, p16 + 29, p16 + 30, p16 + 31, p16 + 32, p16 + 33, p16 + 34, p16 + 35, p16 + 36, p16 + 37, p16 + 38, p16 + 39, 11};
Line(17) = {12, 11};
p18 = newp;
Point(p18 + 1) = {30.09959861099499, 0.4375101839142149, 0};
Point(p18 + 2) = {30.06696947287261, 0.5734203254335857, 0};
Point(p18 + 3) = {30.01348102330336, 0.7025528658140059, 0};
Point(p18 + 4) = {29.94045032543359, 0.8217281333449792, 0};
Point(p18 + 5) = {29.84967563741986, 0.9280116374198558, 0};
Point(p18 + 6) = {29.74339213334498, 1.018786325433586, 0};
Point(p18 + 7) = {29.62421686581401, 1.091817023303353, 0};
Point(p18 + 8) = {29.49508432543359, 1.145305472872615, 0};
Point(p18 + 9) = {29.35917418391422, 1.177934610994988, 0};
Point(p18 + 10) = {29.219833, 1.188901, 0};
Point(p18 + 11) = {29.08049181608579, 1.177934610994988, 0};
Point(p18 + 12) = {28.94458167456641, 1.145305472872615, 0};
Point(p18 + 13) = {28.815449134186, 1.091817023303353, 0};
Point(p18 + 14) = {28.69627386665502, 1.018786325433586, 0};
Point(p18 + 15) = {28.58999036258015, 0.9280116374198559, 0};
Point(p18 + 16) = {28.49921567456641, 0.8217281333449793, 0};
Point(p18 + 17) = {28.42618497669665, 0.7025528658140061, 0};
Point(p18 + 18) = {28.37269652712739, 0.5734203254335857, 0};
Point(p18 + 19) = {28.34006738900501, 0.437510183914215, 0};
Point(p18 + 20) = {28.329101, 0.2981690000000001, 0};
Point(p18 + 21) = {28.34006738900501, 0.1588278160857852, 0};
Point(p18 + 22) = {28.37269652712739, 0.02291767456641408, 0};
Point(p18 + 23) = {28.42618497669665, -0.1062148658140055, 0};
Point(p18 + 24) = {28.49921567456641, -0.225390133344979, 0};
Point(p18 + 25) = {28.58999036258015, -0.3316736374198558, 0};
Point(p18 + 26) = {28.69627386665502, -0.4224483254335856, 0};
Point(p18 + 27) = {28.815449134186, -0.4954790233033531, 0};
Point(p18 + 28) = {28.94458167456641, -0.5489674728726146, 0};
Point(p18 + 29) = {29.08049181608579, -0.5815966109949882, 0};
Point(p18 + 30) = {29.219833, -0.592563, 0};
Point(p18 + 31) = {29.35917418391422, -0.5815966109949882, 0};
Point(p18 + 32) = {29.49508432543359, -0.5489674728726147, 0};
Point(p18 + 33) = {29.62421686581401, -0.4954790233033534, 0};
Point(p18 + 34) = {29.74339213334498, -0.4224483254335858, 0};
Point(p18 + 35) = {29.84967563741986, -0.331673637419856, 0};
Point(p18 + 36) = {29.94045032543359, -0.2253901333449793, 0};
Point(p18 + 37) = {30.01348102330336, -0.1062148658140061, 0};
Point(p18 + 38) = {30.06696947287261, 0.02291767456641419, 0};
Point(p18 + 39) = {30.09959861099499, 0.1588278160857849, 0};
Spline(18) = {12, p18 + 1, p18 + 2, p18 + 3, p18 + 4, p18 + 5, p18 + 6, p18 + 7, p18 + 8, p18 + 9, p18 + 10, p18 + 11, p18 + 12, p18 + 13, p18 + 14, p18 + 15, p18 + 16, p18 + 17, p18 + 18, p18 + 19, p18 + 20, p18 + 21, p18 + 22, p18 + 23, p18 + 24, p18 + 25, p18 + 26, p18 + 27, p18 + 28, p18 + 29, p18 + 30, p18 + 31, p18 + 32, p18 + 33, p18 + 34, p18 + 35, p18 + 36, p18 + 37, p18 + 38, p18 + 39, 12};
Line(19) = {14, 13};
Line(20) = {13, 15};
Line(21) = {16, 15};
Line(22) = {14, 16};
Line(23) = {14, 17};
Line(24) = {17, 18};
Line(25) = {13, 18};
Line(26) = {15, 19};
Line(27) = {18, 19};
Line(28) = {16, 20};
Line(29) = {20, 19};
Line(30) = {17, 20};
Curve Loop(7) = {-13, -14, 15, 14};
Surface(7) = {7};
Curve Loop(8) = {13};
Plane Surface(8) = {8};
Curve Loop(9) = {15};
Plane Surface(9) = {9};
Curve Loop(10) = {-16, -17, 18, 17};
Surface(10) = {10};
Curve Loop(11) = {16};
Plane Surface(11) = {11};
Curve Loop(12) = {18};
Plane Surface(12) = {12};
Curve Loop(13) = {-19, 22, 21, -20};
Plane Surface(13) = {13};
Curve Loop(14) = {-23, 19, 25, -24};
Plane Surface(14) = {14};
Curve Loop(15) = {-20, 25, 27, -26, -13, -16};
Plane Surface(15) = {15};
Curve Loop(16) = {-28, 21, 26, -29};
Plane Surface(16) = {16};
Curve Loop(17) = {-22, 23, 30, -28, -15, -18};
Plane Surface(17) = {17};
Curve Loop(18) = {-24, 30, 29, -27};
Plane Surface(18) = {18};
Surface Loop(1) = {13, 14, 15, 16, 17, 18, 7, 10};
Volume(1) = {1};
Surface Loop(2) = {7, 8, 9};
Volume(2) = {2};
Surface Loop(3) = {10, 11, 12};
Volume(3) = {3};
Physical Surface("WALLS") = {13, 18};
Physical Surface("LOAD") = {8, 11};
Physical Surface("BORDER") = {7, 9, 10, 12, 14, 15, 16, 17};
Physical Volume("SOLID") = {1, 2, 3};
