cl__1 = 0.058674;
cl__2 = 0.06406100000000001;
cl__3 = 3.333487;
cl__4 = 3.86198;
cl__5 = 0.467665;
cl__6 = 0.469582;
Point(9) = {32.476677, 0.1488729999999998, 0.1, cl__1};
Point(10) = {32.476677, 0.1488729999999998, 0, cl__1};
Point(11) = {26.448098, -3.071053, 0.1, cl__2};
Point(12) = {26.448098, -3.071053, 0, cl__2};
Point(13) = {0.757283, -4.695809, 0.1, cl__3};
Point(14) = {0.757283, -4.695809, 0, cl__3};
Point(15) = {0.757283, 5.046798, 0.1, cl__4};
Point(16) = {0.757283, 5.046798, 0, cl__4};
Point(17) = {38.561465, -4.695809, 0, cl__5};
Point(18) = {38.561465, -4.695809, 0.1, cl__5};
Point(19) = {38.561465, 5.046798, 0.1, cl__6};
Point(20) = {38.561465, 5.046798, 0, cl__6};
p13 = newp;
Point(p13 + 1) = {32.46945328158411, 0.240659045148775, 0.1};
Point(p13 + 2) = {32.44795999825799, 0.3301850132455679, 0.1};
Point(p13 + 3) = {32.41272638598923, 0.4152464778361822, 0.1};
Point(p13 + 4) = {32.36462001324556, 0.4937489433595811, 0.1};
Point(p13 + 5) = {32.30482541857983, 0.5637594185798325, 0.1};
Point(p13 + 6) = {32.23481494335958, 0.6235540132455678, 0.1};
Point(p13 + 7) = {32.15631247783618, 0.6716603859892346, 0.1};
Point(p13 + 8) = {32.07125101324556, 0.7068939982579858, 0.1};
Point(p13 + 9) = {31.98172504514877, 0.7283872815841099, 0.1};
Point(p13 + 10) = {31.889939, 0.735611, 0.1};
Point(p13 + 11) = {31.79815295485122, 0.7283872815841099, 0.1};
Point(p13 + 12) = {31.70862698675443, 0.7068939982579858, 0.1};
Point(p13 + 13) = {31.62356552216382, 0.6716603859892346, 0.1};
Point(p13 + 14) = {31.54506305664042, 0.6235540132455679, 0.1};
Point(p13 + 15) = {31.47505258142017, 0.5637594185798326, 0.1};
Point(p13 + 16) = {31.41525798675443, 0.4937489433595812, 0.1};
Point(p13 + 17) = {31.36715161401076, 0.4152464778361823, 0.1};
Point(p13 + 18) = {31.33191800174201, 0.3301850132455679, 0.1};
Point(p13 + 19) = {31.31042471841589, 0.2406590451487751, 0.1};
Point(p13 + 20) = {31.303201, 0.1488730000000001, 0.1};
Point(p13 + 21) = {31.31042471841589, 0.0570869548512251, 0.1};
Point(p13 + 22) = {31.33191800174201, -0.03243901324556808, 0.1};
Point(p13 + 23) = {31.36715161401076, -0.1175004778361819, 0.1};
Point(p13 + 24) = {31.41525798675443, -0.196002943359581, 0.1};
Point(p13 + 25) = {31.47505258142017, -0.2660134185798325, 0.1};
Point(p13 + 26) = {31.54506305664042, -0.3258080132455679, 0.1};
Point(p13 + 27) = {31.62356552216382, -0.3739143859892345, 0.1};
Point(p13 + 28) = {31.70862698675443, -0.4091479982579858, 0.1};
Point(p13 + 29) = {31.79815295485122, -0.4306412815841099, 0.1};
Point(p13 + 30) = {31.889939, -0.4378649999999999, 0.1};
Point(p13 + 31) = {31.98172504514877, -0.4306412815841099, 0.1};
Point(p13 + 32) = {32.07125101324556, -0.4091479982579858, 0.1};
Point(p13 + 33) = {32.15631247783618, -0.3739143859892347, 0.1};
Point(p13 + 34) = {32.23481494335958, -0.325808013245568, 0.1};
Point(p13 + 35) = {32.30482541857983, -0.2660134185798326, 0.1};
Point(p13 + 36) = {32.36462001324556, -0.1960029433595812, 0.1};
Point(p13 + 37) = {32.41272638598923, -0.1175004778361823, 0.1};
Point(p13 + 38) = {32.44795999825799, -0.032439013245568, 0.1};
Point(p13 + 39) = {32.46945328158411, 0.05708695485122488, 0.1};
Spline(13) = {9, p13 + 1, p13 + 2, p13 + 3, p13 + 4, p13 + 5, p13 + 6, p13 + 7, p13 + 8, p13 + 9, p13 + 10, p13 + 11, p13 + 12, p13 + 13, p13 + 14, p13 + 15, p13 + 16, p13 + 17, p13 + 18, p13 + 19, p13 + 20, p13 + 21, p13 + 22, p13 + 23, p13 + 24, p13 + 25, p13 + 26, p13 + 27, p13 + 28, p13 + 29, p13 + 30, p13 + 31, p13 + 32, p13 + 33, p13 + 34, p13 + 35, p13 + 36, p13 + 37, p13 + 38, p13 + 39, 9};
Line(14) = {10, 9};
p15 = newp;
Point(p15 + 1) = {32.46945328158411, 0.240659045148775, 0};
Point(p15 + 2) = {32.44795999825799, 0.3301850132455679, 0};
Point(p15 + 3) = {32.41272638598923, 0.4152464778361822, 0};
Point(p15 + 4) = {32.36462001324556, 0.4937489433595811, 0};
Point(p15 + 5) = {32.30482541857983, 0.5637594185798325, 0};
Point(p15 + 6) = {32.23481494335958, 0.6235540132455678, 0};
Point(p15 + 7) = {32.15631247783618, 0.6716603859892346, 0};
Point(p15 + 8) = {32.07125101324556, 0.7068939982579858, 0};
Point(p15 + 9) = {31.98172504514877, 0.7283872815841099, 0};
Point(p15 + 10) = {31.889939, 0.735611, 0};
Point(p15 + 11) = {31.79815295485122, 0.7283872815841099, 0};
Point(p15 + 12) = {31.70862698675443, 0.7068939982579858, 0};
Point(p15 + 13) = {31.62356552216382, 0.6716603859892346, 0};
Point(p15 + 14) = {31.54506305664042, 0.6235540132455679, 0};
Point(p15 + 15) = {31.47505258142017, 0.5637594185798326, 0};
Point(p15 + 16) = {31.41525798675443, 0.4937489433595812, 0};
Point(p15 + 17) = {31.36715161401076, 0.4152464778361823, 0};
Point(p15 + 18) = {31.33191800174201, 0.3301850132455679, 0};
Point(p15 + 19) = {31.31042471841589, 0.2406590451487751, 0};
Point(p15 + 20) = {31.303201, 0.1488730000000001, 0};
Point(p15 + 21) = {31.31042471841589, 0.0570869548512251, 0};
Point(p15 + 22) = {31.33191800174201, -0.03243901324556808, 0};
Point(p15 + 23) = {31.36715161401076, -0.1175004778361819, 0};
Point(p15 + 24) = {31.41525798675443, -0.196002943359581, 0};
Point(p15 + 25) = {31.47505258142017, -0.2660134185798325, 0};
Point(p15 + 26) = {31.54506305664042, -0.3258080132455679, 0};
Point(p15 + 27) = {31.62356552216382, -0.3739143859892345, 0};
Point(p15 + 28) = {31.70862698675443, -0.4091479982579858, 0};
Point(p15 + 29) = {31.79815295485122, -0.4306412815841099, 0};
Point(p15 + 30) = {31.889939, -0.4378649999999999, 0};
Point(p15 + 31) = {31.98172504514877, -0.4306412815841099, 0};
Point(p15 + 32) = {32.07125101324556, -0.4091479982579858, 0};
Point(p15 + 33) = {32.15631247783618, -0.3739143859892347, 0};
Point(p15 + 34) = {32.23481494335958, -0.325808013245568, 0};
Point(p15 + 35) = {32.30482541857983, -0.2660134185798326, 0};
Point(p15 + 36) = {32.36462001324556, -0.1960029433595812, 0};
Point(p15 + 37) = {32.41272638598923, -0.1175004778361823, 0};
Point(p15 + 38) = {32.44795999825799, -0.032439013245568, 0};
Point(p15 + 39) = {32.46945328158411, 0.05708695485122488, 0};
Spline(15) = {10, p15 + 1, p15 + 2, p15 + 3, p15 + 4, p15 + 5, p15 + 6, p15 + 7, p15 + 8, p15 + 9, p15 + 10, p15 + 11, p15 + 12, p15 + 13, p15 + 14, p15 + 15, p15 + 16, p15 + 17, p15 + 18, p15 + 19, p15 + 20, p15 + 21, p15 + 22, p15 + 23, p15 + 24, p15 + 25, p15 + 26, p15 + 27, p15 + 28, p15 + 29, p15 + 30, p15 + 31, p15 + 32, p15 + 33, p15 + 34, p15 + 35, p15 + 36, p15 + 37, p15 + 38, p15 + 39, 10};
p16 = newp;
Point(p16 + 1) = {26.44021100324533, -2.970839204481648, 0.1};
Point(p16 + 2) = {26.41674421701687, -2.873093005199476, 0.1};
Point(p16 + 3) = {26.37827547147336, -2.780221237980849, 0.1};
Point(p16 + 4) = {26.32575199480052, -2.694510713958414, 0.1};
Point(p16 + 5) = {26.26046708930948, -2.618071910690523, 0.1};
Point(p16 + 6) = {26.18402828604159, -2.552787005199476, 0.1};
Point(p16 + 7) = {26.09831776201915, -2.500263528526641, 0.1};
Point(p16 + 8) = {26.00544599480052, -2.461794782983129, 0.1};
Point(p16 + 9) = {25.90769979551835, -2.438327996754668, 0.1};
Point(p16 + 10) = {25.807486, -2.430441, 0.1};
Point(p16 + 11) = {25.70727220448165, -2.438327996754668, 0.1};
Point(p16 + 12) = {25.60952600519948, -2.461794782983129, 0.1};
Point(p16 + 13) = {25.51665423798085, -2.500263528526641, 0.1};
Point(p16 + 14) = {25.43094371395841, -2.552787005199476, 0.1};
Point(p16 + 15) = {25.35450491069053, -2.618071910690523, 0.1};
Point(p16 + 16) = {25.28922000519948, -2.694510713958414, 0.1};
Point(p16 + 17) = {25.23669652852664, -2.780221237980849, 0.1};
Point(p16 + 18) = {25.19822778298313, -2.873093005199476, 0.1};
Point(p16 + 19) = {25.17476099675467, -2.970839204481647, 0.1};
Point(p16 + 20) = {25.166874, -3.071053, 0.1};
Point(p16 + 21) = {25.17476099675467, -3.171266795518352, 0.1};
Point(p16 + 22) = {25.19822778298313, -3.269012994800524, 0.1};
Point(p16 + 23) = {25.23669652852664, -3.36188476201915, 0.1};
Point(p16 + 24) = {25.28922000519948, -3.447595286041586, 0.1};
Point(p16 + 25) = {25.35450491069052, -3.524034089309477, 0.1};
Point(p16 + 26) = {25.43094371395841, -3.589318994800524, 0.1};
Point(p16 + 27) = {25.51665423798085, -3.641842471473359, 0.1};
Point(p16 + 28) = {25.60952600519948, -3.680311217016871, 0.1};
Point(p16 + 29) = {25.70727220448165, -3.703778003245332, 0.1};
Point(p16 + 30) = {25.807486, -3.711665, 0.1};
Point(p16 + 31) = {25.90769979551835, -3.703778003245332, 0.1};
Point(p16 + 32) = {26.00544599480052, -3.680311217016871, 0.1};
Point(p16 + 33) = {26.09831776201915, -3.641842471473359, 0.1};
Point(p16 + 34) = {26.18402828604158, -3.589318994800524, 0.1};
Point(p16 + 35) = {26.26046708930948, -3.524034089309477, 0.1};
Point(p16 + 36) = {26.32575199480052, -3.447595286041586, 0.1};
Point(p16 + 37) = {26.37827547147336, -3.361884762019151, 0.1};
Point(p16 + 38) = {26.41674421701687, -3.269012994800524, 0.1};
Point(p16 + 39) = {26.44021100324533, -3.171266795518353, 0.1};
Spline(16) = {11, p16 + 1, p16 + 2, p16 + 3, p16 + 4, p16 + 5, p16 + 6, p16 + 7, p16 + 8, p16 + 9, p16 + 10, p16 + 11, p16 + 12, p16 + 13, p16 + 14, p16 + 15, p16 + 16, p16 + 17, p16 + 18, p16 + 19, p16 + 20, p16 + 21, p16 + 22, p16 + 23, p16 + 24, p16 + 25, p16 + 26, p16 + 27, p16 + 28, p16 + 29, p16 + 30, p16 + 31, p16 + 32, p16 + 33, p16 + 34, p16 + 35, p16 + 36, p16 + 37, p16 + 38, p16 + 39, 11};
Line(17) = {12, 11};
p18 = newp;
Point(p18 + 1) = {26.44021100324533, -2.970839204481648, 0};
Point(p18 + 2) = {26.41674421701687, -2.873093005199476, 0};
Point(p18 + 3) = {26.37827547147336, -2.780221237980849, 0};
Point(p18 + 4) = {26.32575199480052, -2.694510713958414, 0};
Point(p18 + 5) = {26.26046708930948, -2.618071910690523, 0};
Point(p18 + 6) = {26.18402828604159, -2.552787005199476, 0};
Point(p18 + 7) = {26.09831776201915, -2.500263528526641, 0};
Point(p18 + 8) = {26.00544599480052, -2.461794782983129, 0};
Point(p18 + 9) = {25.90769979551835, -2.438327996754668, 0};
Point(p18 + 10) = {25.807486, -2.430441, 0};
Point(p18 + 11) = {25.70727220448165, -2.438327996754668, 0};
Point(p18 + 12) = {25.60952600519948, -2.461794782983129, 0};
Point(p18 + 13) = {25.51665423798085, -2.500263528526641, 0};
Point(p18 + 14) = {25.43094371395841, -2.552787005199476, 0};
Point(p18 + 15) = {25.35450491069053, -2.618071910690523, 0};
Point(p18 + 16) = {25.28922000519948, -2.694510713958414, 0};
Point(p18 + 17) = {25.23669652852664, -2.780221237980849, 0};
Point(p18 + 18) = {25.19822778298313, -2.873093005199476, 0};
Point(p18 + 19) = {25.17476099675467, -2.970839204481647, 0};
Point(p18 + 20) = {25.166874, -3.071053, 0};
Point(p18 + 21) = {25.17476099675467, -3.171266795518352, 0};
Point(p18 + 22) = {25.19822778298313, -3.269012994800524, 0};
Point(p18 + 23) = {25.23669652852664, -3.36188476201915, 0};
Point(p18 + 24) = {25.28922000519948, -3.447595286041586, 0};
Point(p18 + 25) = {25.35450491069052, -3.524034089309477, 0};
Point(p18 + 26) = {25.43094371395841, -3.589318994800524, 0};
Point(p18 + 27) = {25.51665423798085, -3.641842471473359, 0};
Point(p18 + 28) = {25.60952600519948, -3.680311217016871, 0};
Point(p18 + 29) = {25.70727220448165, -3.703778003245332, 0};
Point(p18 + 30) = {25.807486, -3.711665, 0};
Point(p18 + 31) = {25.90769979551835, -3.703778003245332, 0};
Point(p18 + 32) = {26.00544599480052, -3.680311217016871, 0};
Point(p18 + 33) = {26.09831776201915, -3.641842471473359, 0};
Point(p18 + 34) = {26.18402828604158, -3.589318994800524, 0};
Point(p18 + 35) = {26.26046708930948, -3.524034089309477, 0};
Point(p18 + 36) = {26.32575199480052, -3.447595286041586, 0};
Point(p18 + 37) = {26.37827547147336, -3.361884762019151, 0};
Point(p18 + 38) = {26.41674421701687, -3.269012994800524, 0};
Point(p18 + 39) = {26.44021100324533, -3.171266795518353, 0};
Spline(18) = {12, p18 + 1, p18 + 2, p18 + 3, p18 + 4, p18 + 5, p18 + 6, p18 + 7, p18 + 8, p18 + 9, p18 + 10, p18 + 11, p18 + 12, p18 + 13, p18 + 14, p18 + 15, p18 + 16, p18 + 17, p18 + 18, p18 + 19, p18 + 20, p18 + 21, p18 + 22, p18 + 23, p18 + 24, p18 + 25, p18 + 26, p18 + 27, p18 + 28, p18 + 29, p18 + 30, p18 + 31, p18 + 32, p18 + 33, p18 + 34, p18 + 35, p18 + 36, p18 + 37, p18 + 38, p18 + 39, 12};
Line(19) = {14, 13};
Line(20) = {13, 15};
Line(21) = {16, 15};
Line(22) = {14, 16};
Line(23) = {14, 17};
Line(24) = {17, 18};
Line(25) = {13, 18};
Line(26) = {15, 19};
Line(27) = {18, 19};
Line(28) = {16, 20};
Line(29) = {20, 19};
Line(30) = {17, 20};
Curve Loop(7) = {-13, -14, 15, 14};
Surface(7) = {7};
Curve Loop(8) = {13};
Plane Surface(8) = {8};
Curve Loop(9) = {15};
Plane Surface(9) = {9};
Curve Loop(10) = {-16, -17, 18, 17};
Surface(10) = {10};
Curve Loop(11) = {16};
Plane Surface(11) = {11};
Curve Loop(12) = {18};
Plane Surface(12) = {12};
Curve Loop(13) = {-19, 22, 21, -20};
Plane Surface(13) = {13};
Curve Loop(14) = {-23, 19, 25, -24};
Plane Surface(14) = {14};
Curve Loop(15) = {-20, 25, 27, -26, -16, -13};
Plane Surface(15) = {15};
Curve Loop(16) = {-28, 21, 26, -29};
Plane Surface(16) = {16};
Curve Loop(17) = {-22, 23, 30, -28, -18, -15};
Plane Surface(17) = {17};
Curve Loop(18) = {-24, 30, 29, -27};
Plane Surface(18) = {18};
Surface Loop(1) = {13, 14, 15, 16, 17, 18, 10, 7};
Volume(1) = {1};
Surface Loop(2) = {7, 8, 9};
Volume(2) = {2};
Surface Loop(3) = {10, 11, 12};
Volume(3) = {3};
Physical Surface("WALLS") = {13, 18};
Physical Surface("LOAD") = {8, 11};
Physical Surface("BORDER") = {7, 9, 10, 12, 14, 15, 16, 17};
Physical Volume("SOLID") = {1, 2, 3};
