cl__1 = 0.131669;
cl__2 = 0.102831;
cl__3 = 1.479301;
cl__4 = 1.290713;
cl__5 = 0.909782;
cl__6 = 0.862006;
Point(9) = {22.634032, 1.604009, 0.1, cl__1};
Point(10) = {22.634032, 1.604009, 0, cl__1};
Point(11) = {18.037048, 1.923812, 0.1, cl__2};
Point(12) = {18.037048, 1.923812, 0, cl__2};
Point(13) = {0.290775, -4.001303, 0.1, cl__3};
Point(14) = {0.290775, -4.001303, 0, cl__3};
Point(15) = {0.290775, 4.976295, 0.1, cl__4};
Point(16) = {0.290775, 4.976295, 0, cl__4};
Point(17) = {34.86100999999999, -4.001303, 0, cl__5};
Point(18) = {34.86100999999999, -4.001303, 0.1, cl__5};
Point(19) = {34.86100999999999, 4.976295, 0.1, cl__6};
Point(20) = {34.86100999999999, 4.976295, 0, cl__6};
p13 = newp;
Point(p13 + 1) = {22.61782137348987, 1.809984539339357, 0.1};
Point(p13 + 2) = {22.56958865338415, 2.010888277306555, 0.1};
Point(p13 + 3) = {22.49052148932706, 2.201773297111564, 0.1};
Point(p13 + 4) = {22.38256677730656, 2.377939376055724, 0.1};
Point(p13 + 5) = {22.24838272061373, 2.535048720613734, 0.1};
Point(p13 + 6) = {22.09127337605572, 2.669232777306555, 0.1};
Point(p13 + 7) = {21.91510729711156, 2.777187489327058, 0.1};
Point(p13 + 8) = {21.72422227730656, 2.856254653384149, 0.1};
Point(p13 + 9) = {21.52331853933936, 2.904487373489872, 0.1};
Point(p13 + 10) = {21.317343, 2.920698, 0.1};
Point(p13 + 11) = {21.11136746066065, 2.904487373489872, 0.1};
Point(p13 + 12) = {20.91046372269345, 2.856254653384149, 0.1};
Point(p13 + 13) = {20.71957870288844, 2.777187489327058, 0.1};
Point(p13 + 14) = {20.54341262394428, 2.669232777306555, 0.1};
Point(p13 + 15) = {20.38630327938627, 2.535048720613734, 0.1};
Point(p13 + 16) = {20.25211922269344, 2.377939376055724, 0.1};
Point(p13 + 17) = {20.14416451067294, 2.201773297111564, 0.1};
Point(p13 + 18) = {20.06509734661585, 2.010888277306555, 0.1};
Point(p13 + 19) = {20.01686462651013, 1.809984539339357, 0.1};
Point(p13 + 20) = {20.000654, 1.604009, 0.1};
Point(p13 + 21) = {20.01686462651013, 1.398033460660644, 0.1};
Point(p13 + 22) = {20.06509734661585, 1.197129722693445, 0.1};
Point(p13 + 23) = {20.14416451067294, 1.006244702888436, 0.1};
Point(p13 + 24) = {20.25211922269344, 0.830078623944276, 0.1};
Point(p13 + 25) = {20.38630327938627, 0.6729692793862661, 0.1};
Point(p13 + 26) = {20.54341262394428, 0.5387852226934451, 0.1};
Point(p13 + 27) = {20.71957870288844, 0.4308305106729422, 0.1};
Point(p13 + 28) = {20.91046372269345, 0.3517633466158505, 0.1};
Point(p13 + 29) = {21.11136746066065, 0.3035306265101287, 0.1};
Point(p13 + 30) = {21.317343, 0.28732, 0.1};
Point(p13 + 31) = {21.52331853933936, 0.3035306265101287, 0.1};
Point(p13 + 32) = {21.72422227730656, 0.3517633466158505, 0.1};
Point(p13 + 33) = {21.91510729711156, 0.430830510672942, 0.1};
Point(p13 + 34) = {22.09127337605572, 0.5387852226934446, 0.1};
Point(p13 + 35) = {22.24838272061373, 0.6729692793862657, 0.1};
Point(p13 + 36) = {22.38256677730656, 0.8300786239442757, 0.1};
Point(p13 + 37) = {22.49052148932706, 1.006244702888436, 0.1};
Point(p13 + 38) = {22.56958865338415, 1.197129722693445, 0.1};
Point(p13 + 39) = {22.61782137348987, 1.398033460660643, 0.1};
Spline(13) = {9, p13 + 1, p13 + 2, p13 + 3, p13 + 4, p13 + 5, p13 + 6, p13 + 7, p13 + 8, p13 + 9, p13 + 10, p13 + 11, p13 + 12, p13 + 13, p13 + 14, p13 + 15, p13 + 16, p13 + 17, p13 + 18, p13 + 19, p13 + 20, p13 + 21, p13 + 22, p13 + 23, p13 + 24, p13 + 25, p13 + 26, p13 + 27, p13 + 28, p13 + 29, p13 + 30, p13 + 31, p13 + 32, p13 + 33, p13 + 34, p13 + 35, p13 + 36, p13 + 37, p13 + 38, p13 + 39, 9};
Line(14) = {10, 9};
p15 = newp;
Point(p15 + 1) = {22.61782137348987, 1.809984539339357, 0};
Point(p15 + 2) = {22.56958865338415, 2.010888277306555, 0};
Point(p15 + 3) = {22.49052148932706, 2.201773297111564, 0};
Point(p15 + 4) = {22.38256677730656, 2.377939376055724, 0};
Point(p15 + 5) = {22.24838272061373, 2.535048720613734, 0};
Point(p15 + 6) = {22.09127337605572, 2.669232777306555, 0};
Point(p15 + 7) = {21.91510729711156, 2.777187489327058, 0};
Point(p15 + 8) = {21.72422227730656, 2.856254653384149, 0};
Point(p15 + 9) = {21.52331853933936, 2.904487373489872, 0};
Point(p15 + 10) = {21.317343, 2.920698, 0};
Point(p15 + 11) = {21.11136746066065, 2.904487373489872, 0};
Point(p15 + 12) = {20.91046372269345, 2.856254653384149, 0};
Point(p15 + 13) = {20.71957870288844, 2.777187489327058, 0};
Point(p15 + 14) = {20.54341262394428, 2.669232777306555, 0};
Point(p15 + 15) = {20.38630327938627, 2.535048720613734, 0};
Point(p15 + 16) = {20.25211922269344, 2.377939376055724, 0};
Point(p15 + 17) = {20.14416451067294, 2.201773297111564, 0};
Point(p15 + 18) = {20.06509734661585, 2.010888277306555, 0};
Point(p15 + 19) = {20.01686462651013, 1.809984539339357, 0};
Point(p15 + 20) = {20.000654, 1.604009, 0};
Point(p15 + 21) = {20.01686462651013, 1.398033460660644, 0};
Point(p15 + 22) = {20.06509734661585, 1.197129722693445, 0};
Point(p15 + 23) = {20.14416451067294, 1.006244702888436, 0};
Point(p15 + 24) = {20.25211922269344, 0.830078623944276, 0};
Point(p15 + 25) = {20.38630327938627, 0.6729692793862661, 0};
Point(p15 + 26) = {20.54341262394428, 0.5387852226934451, 0};
Point(p15 + 27) = {20.71957870288844, 0.4308305106729422, 0};
Point(p15 + 28) = {20.91046372269345, 0.3517633466158505, 0};
Point(p15 + 29) = {21.11136746066065, 0.3035306265101287, 0};
Point(p15 + 30) = {21.317343, 0.28732, 0};
Point(p15 + 31) = {21.52331853933936, 0.3035306265101287, 0};
Point(p15 + 32) = {21.72422227730656, 0.3517633466158505, 0};
Point(p15 + 33) = {21.91510729711156, 0.430830510672942, 0};
Point(p15 + 34) = {22.09127337605572, 0.5387852226934446, 0};
Point(p15 + 35) = {22.24838272061373, 0.6729692793862657, 0};
Point(p15 + 36) = {22.38256677730656, 0.8300786239442757, 0};
Point(p15 + 37) = {22.49052148932706, 1.006244702888436, 0};
Point(p15 + 38) = {22.56958865338415, 1.197129722693445, 0};
Point(p15 + 39) = {22.61782137348987, 1.398033460660643, 0};
Spline(15) = {10, p15 + 1, p15 + 2, p15 + 3, p15 + 4, p15 + 5, p15 + 6, p15 + 7, p15 + 8, p15 + 9, p15 + 10, p15 + 11, p15 + 12, p15 + 13, p15 + 14, p15 + 15, p15 + 16, p15 + 17, p15 + 18, p15 + 19, p15 + 20, p15 + 21, p15 + 22, p15 + 23, p15 + 24, p15 + 25, p15 + 26, p15 + 27, p15 + 28, p15 + 29, p15 + 30, p15 + 31, p15 + 32, p15 + 33, p15 + 34, p15 + 35, p15 + 36, p15 + 37, p15 + 38, p15 + 39, 10};
p16 = newp;
Point(p16 + 1) = {18.02438780982904, 2.084674968311055, 0.1};
Point(p16 + 2) = {17.98671897521495, 2.241576956468708, 0.1};
Point(p16 + 3) = {17.92496902788162, 2.390654516796674, 0.1};
Point(p16 + 4) = {17.84065845646871, 2.528236864999621, 0.1};
Point(p16 + 5) = {17.73586326705516, 2.650936267055157, 0.1};
Point(p16 + 6) = {17.61316386499962, 2.755731456468708, 0.1};
Point(p16 + 7) = {17.47558151679667, 2.840042027881617, 0.1};
Point(p16 + 8) = {17.32650395646871, 2.901791975214953, 0.1};
Point(p16 + 9) = {17.16960196831105, 2.939460809829046, 0.1};
Point(p16 + 10) = {17.008739, 2.952121, 0.1};
Point(p16 + 11) = {16.84787603168894, 2.939460809829045, 0.1};
Point(p16 + 12) = {16.69097404353129, 2.901791975214953, 0.1};
Point(p16 + 13) = {16.54189648320332, 2.840042027881617, 0.1};
Point(p16 + 14) = {16.40431413500038, 2.755731456468708, 0.1};
Point(p16 + 15) = {16.28161473294484, 2.650936267055158, 0.1};
Point(p16 + 16) = {16.17681954353129, 2.528236864999621, 0.1};
Point(p16 + 17) = {16.09250897211838, 2.390654516796674, 0.1};
Point(p16 + 18) = {16.03075902478504, 2.241576956468708, 0.1};
Point(p16 + 19) = {15.99309019017095, 2.084674968311055, 0.1};
Point(p16 + 20) = {15.98043, 1.923812, 0.1};
Point(p16 + 21) = {15.99309019017095, 1.762949031688945, 0.1};
Point(p16 + 22) = {16.03075902478504, 1.606047043531292, 0.1};
Point(p16 + 23) = {16.09250897211838, 1.456969483203327, 0.1};
Point(p16 + 24) = {16.17681954353129, 1.31938713500038, 0.1};
Point(p16 + 25) = {16.28161473294484, 1.196687732944843, 0.1};
Point(p16 + 26) = {16.40431413500038, 1.091892543531293, 0.1};
Point(p16 + 27) = {16.54189648320332, 1.007581972118384, 0.1};
Point(p16 + 28) = {16.69097404353129, 0.9458320247850471, 0.1};
Point(p16 + 29) = {16.84787603168894, 0.9081631901709548, 0.1};
Point(p16 + 30) = {17.008739, 0.8955030000000002, 0.1};
Point(p16 + 31) = {17.16960196831105, 0.9081631901709546, 0.1};
Point(p16 + 32) = {17.32650395646871, 0.945832024785047, 0.1};
Point(p16 + 33) = {17.47558151679667, 1.007581972118384, 0.1};
Point(p16 + 34) = {17.61316386499962, 1.091892543531292, 0.1};
Point(p16 + 35) = {17.73586326705516, 1.196687732944842, 0.1};
Point(p16 + 36) = {17.84065845646871, 1.319387135000379, 0.1};
Point(p16 + 37) = {17.92496902788162, 1.456969483203326, 0.1};
Point(p16 + 38) = {17.98671897521495, 1.606047043531292, 0.1};
Point(p16 + 39) = {18.02438780982904, 1.762949031688945, 0.1};
Spline(16) = {11, p16 + 1, p16 + 2, p16 + 3, p16 + 4, p16 + 5, p16 + 6, p16 + 7, p16 + 8, p16 + 9, p16 + 10, p16 + 11, p16 + 12, p16 + 13, p16 + 14, p16 + 15, p16 + 16, p16 + 17, p16 + 18, p16 + 19, p16 + 20, p16 + 21, p16 + 22, p16 + 23, p16 + 24, p16 + 25, p16 + 26, p16 + 27, p16 + 28, p16 + 29, p16 + 30, p16 + 31, p16 + 32, p16 + 33, p16 + 34, p16 + 35, p16 + 36, p16 + 37, p16 + 38, p16 + 39, 11};
Line(17) = {12, 11};
p18 = newp;
Point(p18 + 1) = {18.02438780982904, 2.084674968311055, 0};
Point(p18 + 2) = {17.98671897521495, 2.241576956468708, 0};
Point(p18 + 3) = {17.92496902788162, 2.390654516796674, 0};
Point(p18 + 4) = {17.84065845646871, 2.528236864999621, 0};
Point(p18 + 5) = {17.73586326705516, 2.650936267055157, 0};
Point(p18 + 6) = {17.61316386499962, 2.755731456468708, 0};
Point(p18 + 7) = {17.47558151679667, 2.840042027881617, 0};
Point(p18 + 8) = {17.32650395646871, 2.901791975214953, 0};
Point(p18 + 9) = {17.16960196831105, 2.939460809829046, 0};
Point(p18 + 10) = {17.008739, 2.952121, 0};
Point(p18 + 11) = {16.84787603168894, 2.939460809829045, 0};
Point(p18 + 12) = {16.69097404353129, 2.901791975214953, 0};
Point(p18 + 13) = {16.54189648320332, 2.840042027881617, 0};
Point(p18 + 14) = {16.40431413500038, 2.755731456468708, 0};
Point(p18 + 15) = {16.28161473294484, 2.650936267055158, 0};
Point(p18 + 16) = {16.17681954353129, 2.528236864999621, 0};
Point(p18 + 17) = {16.09250897211838, 2.390654516796674, 0};
Point(p18 + 18) = {16.03075902478504, 2.241576956468708, 0};
Point(p18 + 19) = {15.99309019017095, 2.084674968311055, 0};
Point(p18 + 20) = {15.98043, 1.923812, 0};
Point(p18 + 21) = {15.99309019017095, 1.762949031688945, 0};
Point(p18 + 22) = {16.03075902478504, 1.606047043531292, 0};
Point(p18 + 23) = {16.09250897211838, 1.456969483203327, 0};
Point(p18 + 24) = {16.17681954353129, 1.31938713500038, 0};
Point(p18 + 25) = {16.28161473294484, 1.196687732944843, 0};
Point(p18 + 26) = {16.40431413500038, 1.091892543531293, 0};
Point(p18 + 27) = {16.54189648320332, 1.007581972118384, 0};
Point(p18 + 28) = {16.69097404353129, 0.9458320247850471, 0};
Point(p18 + 29) = {16.84787603168894, 0.9081631901709548, 0};
Point(p18 + 30) = {17.008739, 0.8955030000000002, 0};
Point(p18 + 31) = {17.16960196831105, 0.9081631901709546, 0};
Point(p18 + 32) = {17.32650395646871, 0.945832024785047, 0};
Point(p18 + 33) = {17.47558151679667, 1.007581972118384, 0};
Point(p18 + 34) = {17.61316386499962, 1.091892543531292, 0};
Point(p18 + 35) = {17.73586326705516, 1.196687732944842, 0};
Point(p18 + 36) = {17.84065845646871, 1.319387135000379, 0};
Point(p18 + 37) = {17.92496902788162, 1.456969483203326, 0};
Point(p18 + 38) = {17.98671897521495, 1.606047043531292, 0};
Point(p18 + 39) = {18.02438780982904, 1.762949031688945, 0};
Spline(18) = {12, p18 + 1, p18 + 2, p18 + 3, p18 + 4, p18 + 5, p18 + 6, p18 + 7, p18 + 8, p18 + 9, p18 + 10, p18 + 11, p18 + 12, p18 + 13, p18 + 14, p18 + 15, p18 + 16, p18 + 17, p18 + 18, p18 + 19, p18 + 20, p18 + 21, p18 + 22, p18 + 23, p18 + 24, p18 + 25, p18 + 26, p18 + 27, p18 + 28, p18 + 29, p18 + 30, p18 + 31, p18 + 32, p18 + 33, p18 + 34, p18 + 35, p18 + 36, p18 + 37, p18 + 38, p18 + 39, 12};
Line(19) = {14, 13};
Line(20) = {13, 15};
Line(21) = {16, 15};
Line(22) = {14, 16};
Line(23) = {14, 17};
Line(24) = {17, 18};
Line(25) = {13, 18};
Line(26) = {15, 19};
Line(27) = {18, 19};
Line(28) = {16, 20};
Line(29) = {20, 19};
Line(30) = {17, 20};
Curve Loop(7) = {-13, -14, 15, 14};
Surface(7) = {7};
Curve Loop(8) = {13};
Plane Surface(8) = {8};
Curve Loop(9) = {15};
Plane Surface(9) = {9};
Curve Loop(10) = {-16, -17, 18, 17};
Surface(10) = {10};
Curve Loop(11) = {16};
Plane Surface(11) = {11};
Curve Loop(12) = {18};
Plane Surface(12) = {12};
Curve Loop(13) = {-19, 22, 21, -20};
Plane Surface(13) = {13};
Curve Loop(14) = {-23, 19, 25, -24};
Plane Surface(14) = {14};
Curve Loop(15) = {-20, 25, 27, -26, -13, -16};
Plane Surface(15) = {15};
Curve Loop(16) = {-28, 21, 26, -29};
Plane Surface(16) = {16};
Curve Loop(17) = {-22, 23, 30, -28, -15, -18};
Plane Surface(17) = {17};
Curve Loop(18) = {-24, 30, 29, -27};
Plane Surface(18) = {18};
Surface Loop(1) = {13, 14, 15, 16, 17, 18, 7, 10};
Volume(1) = {1};
Surface Loop(2) = {7, 8, 9};
Volume(2) = {2};
Surface Loop(3) = {10, 11, 12};
Volume(3) = {3};
Physical Surface("WALLS") = {13, 18};
Physical Surface("LOAD") = {8, 11};
Physical Surface("BORDER") = {7, 9, 10, 12, 14, 15, 16, 17};
Physical Volume("SOLID") = {1, 2, 3};
