cl__1 = 0.091585;
cl__2 = 0.103752;
cl__3 = 2.314345;
cl__4 = 2.553132;
cl__5 = 0.6566920000000001;
cl__6 = 0.653807;
Point(9) = {25.55399, 0.9555169999999997, 0.1, cl__1};
Point(10) = {25.55399, 0.9555169999999997, 0, cl__1};
Point(11) = {19.135002, -0.2636140000000002, 0.1, cl__2};
Point(12) = {19.135002, -0.2636140000000002, 0, cl__2};
Point(13) = {0.117416, -3.602151, 0.1, cl__3};
Point(14) = {0.117416, -3.602151, 0, cl__3};
Point(15) = {0.117416, 5.434413, 0.1, cl__4};
Point(16) = {0.117416, 5.434413, 0, cl__4};
Point(17) = {32.950376, -3.602151, 0, cl__5};
Point(18) = {32.950376, -3.602151, 0.1, cl__5};
Point(19) = {32.950376, 5.434413, 0.1, cl__6};
Point(20) = {32.950376, 5.434413, 0, cl__6};
p13 = newp;
Point(p13 + 1) = {25.54271441598069, 1.098786879069235, 0.1};
Point(p13 + 2) = {25.50916530622285, 1.238528978230318, 0.1};
Point(p13 + 3) = {25.45416876115182, 1.371302383224465, 0.1};
Point(p13 + 4) = {25.37907897823032, 1.493837772171052, 0.1};
Point(p13 + 5) = {25.28574491712257, 1.603117917122575, 0.1};
Point(p13 + 6) = {25.17646477217105, 1.696451978230318, 0.1};
Point(p13 + 7) = {25.05392938322446, 1.77154176115182, 0.1};
Point(p13 + 8) = {24.92115597823032, 1.826538306222851, 0.1};
Point(p13 + 9) = {24.78141387906924, 1.860087415980694, 0.1};
Point(p13 + 10) = {24.638144, 1.871363, 0.1};
Point(p13 + 11) = {24.49487412093076, 1.860087415980694, 0.1};
Point(p13 + 12) = {24.35513202176968, 1.826538306222851, 0.1};
Point(p13 + 13) = {24.22235861677554, 1.77154176115182, 0.1};
Point(p13 + 14) = {24.09982322782895, 1.696451978230318, 0.1};
Point(p13 + 15) = {23.99054308287743, 1.603117917122575, 0.1};
Point(p13 + 16) = {23.89720902176968, 1.493837772171053, 0.1};
Point(p13 + 17) = {23.82211923884818, 1.371302383224465, 0.1};
Point(p13 + 18) = {23.76712269377715, 1.238528978230318, 0.1};
Point(p13 + 19) = {23.73357358401931, 1.098786879069235, 0.1};
Point(p13 + 20) = {23.722298, 0.9555170000000001, 0.1};
Point(p13 + 21) = {23.73357358401931, 0.8122471209307648, 0.1};
Point(p13 + 22) = {23.76712269377715, 0.6725050217696815, 0.1};
Point(p13 + 23) = {23.82211923884818, 0.5397316167755354, 0.1};
Point(p13 + 24) = {23.89720902176968, 0.4171962278289477, 0.1};
Point(p13 + 25) = {23.99054308287743, 0.3079160828774252, 0.1};
Point(p13 + 26) = {24.09982322782895, 0.2145820217696819, 0.1};
Point(p13 + 27) = {24.22235861677554, 0.1394922388481801, 0.1};
Point(p13 + 28) = {24.35513202176968, 0.08449569377714872, 0.1};
Point(p13 + 29) = {24.49487412093076, 0.05094658401930541, 0.1};
Point(p13 + 30) = {24.638144, 0.0396709999999999, 0.1};
Point(p13 + 31) = {24.78141387906923, 0.05094658401930541, 0.1};
Point(p13 + 32) = {24.92115597823032, 0.08449569377714861, 0.1};
Point(p13 + 33) = {25.05392938322446, 0.1394922388481799, 0.1};
Point(p13 + 34) = {25.17646477217105, 0.2145820217696817, 0.1};
Point(p13 + 35) = {25.28574491712257, 0.307916082877425, 0.1};
Point(p13 + 36) = {25.37907897823032, 0.4171962278289475, 0.1};
Point(p13 + 37) = {25.45416876115182, 0.5397316167755348, 0.1};
Point(p13 + 38) = {25.50916530622285, 0.6725050217696816, 0.1};
Point(p13 + 39) = {25.54271441598069, 0.8122471209307645, 0.1};
Spline(13) = {9, p13 + 1, p13 + 2, p13 + 3, p13 + 4, p13 + 5, p13 + 6, p13 + 7, p13 + 8, p13 + 9, p13 + 10, p13 + 11, p13 + 12, p13 + 13, p13 + 14, p13 + 15, p13 + 16, p13 + 17, p13 + 18, p13 + 19, p13 + 20, p13 + 21, p13 + 22, p13 + 23, p13 + 24, p13 + 25, p13 + 26, p13 + 27, p13 + 28, p13 + 29, p13 + 30, p13 + 31, p13 + 32, p13 + 33, p13 + 34, p13 + 35, p13 + 36, p13 + 37, p13 + 38, p13 + 39, 9};
Line(14) = {10, 9};
p15 = newp;
Point(p15 + 1) = {25.54271441598069, 1.098786879069235, 0};
Point(p15 + 2) = {25.50916530622285, 1.238528978230318, 0};
Point(p15 + 3) = {25.45416876115182, 1.371302383224465, 0};
Point(p15 + 4) = {25.37907897823032, 1.493837772171052, 0};
Point(p15 + 5) = {25.28574491712257, 1.603117917122575, 0};
Point(p15 + 6) = {25.17646477217105, 1.696451978230318, 0};
Point(p15 + 7) = {25.05392938322446, 1.77154176115182, 0};
Point(p15 + 8) = {24.92115597823032, 1.826538306222851, 0};
Point(p15 + 9) = {24.78141387906924, 1.860087415980694, 0};
Point(p15 + 10) = {24.638144, 1.871363, 0};
Point(p15 + 11) = {24.49487412093076, 1.860087415980694, 0};
Point(p15 + 12) = {24.35513202176968, 1.826538306222851, 0};
Point(p15 + 13) = {24.22235861677554, 1.77154176115182, 0};
Point(p15 + 14) = {24.09982322782895, 1.696451978230318, 0};
Point(p15 + 15) = {23.99054308287743, 1.603117917122575, 0};
Point(p15 + 16) = {23.89720902176968, 1.493837772171053, 0};
Point(p15 + 17) = {23.82211923884818, 1.371302383224465, 0};
Point(p15 + 18) = {23.76712269377715, 1.238528978230318, 0};
Point(p15 + 19) = {23.73357358401931, 1.098786879069235, 0};
Point(p15 + 20) = {23.722298, 0.9555170000000001, 0};
Point(p15 + 21) = {23.73357358401931, 0.8122471209307648, 0};
Point(p15 + 22) = {23.76712269377715, 0.6725050217696815, 0};
Point(p15 + 23) = {23.82211923884818, 0.5397316167755354, 0};
Point(p15 + 24) = {23.89720902176968, 0.4171962278289477, 0};
Point(p15 + 25) = {23.99054308287743, 0.3079160828774252, 0};
Point(p15 + 26) = {24.09982322782895, 0.2145820217696819, 0};
Point(p15 + 27) = {24.22235861677554, 0.1394922388481801, 0};
Point(p15 + 28) = {24.35513202176968, 0.08449569377714872, 0};
Point(p15 + 29) = {24.49487412093076, 0.05094658401930541, 0};
Point(p15 + 30) = {24.638144, 0.0396709999999999, 0};
Point(p15 + 31) = {24.78141387906923, 0.05094658401930541, 0};
Point(p15 + 32) = {24.92115597823032, 0.08449569377714861, 0};
Point(p15 + 33) = {25.05392938322446, 0.1394922388481799, 0};
Point(p15 + 34) = {25.17646477217105, 0.2145820217696817, 0};
Point(p15 + 35) = {25.28574491712257, 0.307916082877425, 0};
Point(p15 + 36) = {25.37907897823032, 0.4171962278289475, 0};
Point(p15 + 37) = {25.45416876115182, 0.5397316167755348, 0};
Point(p15 + 38) = {25.50916530622285, 0.6725050217696816, 0};
Point(p15 + 39) = {25.54271441598069, 0.8122471209307645, 0};
Spline(15) = {10, p15 + 1, p15 + 2, p15 + 3, p15 + 4, p15 + 5, p15 + 6, p15 + 7, p15 + 8, p15 + 9, p15 + 10, p15 + 11, p15 + 12, p15 + 13, p15 + 14, p15 + 15, p15 + 16, p15 + 17, p15 + 18, p15 + 19, p15 + 20, p15 + 21, p15 + 22, p15 + 23, p15 + 24, p15 + 25, p15 + 26, p15 + 27, p15 + 28, p15 + 29, p15 + 30, p15 + 31, p15 + 32, p15 + 33, p15 + 34, p15 + 35, p15 + 36, p15 + 37, p15 + 38, p15 + 39, 10};
p16 = newp;
Point(p16 + 1) = {19.12222843175759, -0.1013104267003898, 0.1};
Point(p16 + 2) = {19.08422225467352, 0.05699669396990664, 0.1};
Point(p16 + 3) = {19.02191930696287, 0.207409315308775, 0.1};
Point(p16 + 4) = {18.93685369396991, 0.3462237793879821, 0.1};
Point(p16 + 5) = {18.8311200134031, 0.4700220134031043, 0.1};
Point(p16 + 6) = {18.70732177938798, 0.5757556939699066, 0.1};
Point(p16 + 7) = {18.56850731530877, 0.6608213069628669, 0.1};
Point(p16 + 8) = {18.41809469396991, 0.723124254673515, 0.1};
Point(p16 + 9) = {18.25978757329961, 0.761130431757586, 0.1};
Point(p16 + 10) = {18.097484, 0.7739039999999999, 0.1};
Point(p16 + 11) = {17.93518042670039, 0.761130431757586, 0.1};
Point(p16 + 12) = {17.77687330603009, 0.7231242546735152, 0.1};
Point(p16 + 13) = {17.62646068469123, 0.660821306962867, 0.1};
Point(p16 + 14) = {17.48764622061202, 0.5757556939699067, 0.1};
Point(p16 + 15) = {17.3638479865969, 0.4700220134031045, 0.1};
Point(p16 + 16) = {17.25811430603009, 0.3462237793879822, 0.1};
Point(p16 + 17) = {17.17304869303713, 0.2074093153087752, 0.1};
Point(p16 + 18) = {17.11074574532649, 0.05699669396990675, 0.1};
Point(p16 + 19) = {17.07273956824242, -0.1013104267003897, 0.1};
Point(p16 + 20) = {17.059966, -0.2636139999999999, 0.1};
Point(p16 + 21) = {17.07273956824242, -0.4259175732996101, 0.1};
Point(p16 + 22) = {17.11074574532649, -0.5842246939699069, 0.1};
Point(p16 + 23) = {17.17304869303713, -0.7346373153087746, 0.1};
Point(p16 + 24) = {17.25811430603009, -0.873451779387982, 0.1};
Point(p16 + 25) = {17.3638479865969, -0.9972500134031044, 0.1};
Point(p16 + 26) = {17.48764622061202, -1.102983693969906, 0.1};
Point(p16 + 27) = {17.62646068469123, -1.188049306962867, 0.1};
Point(p16 + 28) = {17.77687330603009, -1.250352254673515, 0.1};
Point(p16 + 29) = {17.93518042670039, -1.288358431757586, 0.1};
Point(p16 + 30) = {18.097484, -1.301132, 0.1};
Point(p16 + 31) = {18.25978757329961, -1.288358431757586, 0.1};
Point(p16 + 32) = {18.41809469396991, -1.250352254673515, 0.1};
Point(p16 + 33) = {18.56850731530877, -1.188049306962867, 0.1};
Point(p16 + 34) = {18.70732177938798, -1.102983693969907, 0.1};
Point(p16 + 35) = {18.8311200134031, -0.9972500134031046, 0.1};
Point(p16 + 36) = {18.93685369396991, -0.8734517793879822, 0.1};
Point(p16 + 37) = {19.02191930696287, -0.7346373153087753, 0.1};
Point(p16 + 38) = {19.08422225467352, -0.5842246939699069, 0.1};
Point(p16 + 39) = {19.12222843175759, -0.4259175732996106, 0.1};
Spline(16) = {11, p16 + 1, p16 + 2, p16 + 3, p16 + 4, p16 + 5, p16 + 6, p16 + 7, p16 + 8, p16 + 9, p16 + 10, p16 + 11, p16 + 12, p16 + 13, p16 + 14, p16 + 15, p16 + 16, p16 + 17, p16 + 18, p16 + 19, p16 + 20, p16 + 21, p16 + 22, p16 + 23, p16 + 24, p16 + 25, p16 + 26, p16 + 27, p16 + 28, p16 + 29, p16 + 30, p16 + 31, p16 + 32, p16 + 33, p16 + 34, p16 + 35, p16 + 36, p16 + 37, p16 + 38, p16 + 39, 11};
Line(17) = {12, 11};
p18 = newp;
Point(p18 + 1) = {19.12222843175759, -0.1013104267003898, 0};
Point(p18 + 2) = {19.08422225467352, 0.05699669396990664, 0};
Point(p18 + 3) = {19.02191930696287, 0.207409315308775, 0};
Point(p18 + 4) = {18.93685369396991, 0.3462237793879821, 0};
Point(p18 + 5) = {18.8311200134031, 0.4700220134031043, 0};
Point(p18 + 6) = {18.70732177938798, 0.5757556939699066, 0};
Point(p18 + 7) = {18.56850731530877, 0.6608213069628669, 0};
Point(p18 + 8) = {18.41809469396991, 0.723124254673515, 0};
Point(p18 + 9) = {18.25978757329961, 0.761130431757586, 0};
Point(p18 + 10) = {18.097484, 0.7739039999999999, 0};
Point(p18 + 11) = {17.93518042670039, 0.761130431757586, 0};
Point(p18 + 12) = {17.77687330603009, 0.7231242546735152, 0};
Point(p18 + 13) = {17.62646068469123, 0.660821306962867, 0};
Point(p18 + 14) = {17.48764622061202, 0.5757556939699067, 0};
Point(p18 + 15) = {17.3638479865969, 0.4700220134031045, 0};
Point(p18 + 16) = {17.25811430603009, 0.3462237793879822, 0};
Point(p18 + 17) = {17.17304869303713, 0.2074093153087752, 0};
Point(p18 + 18) = {17.11074574532649, 0.05699669396990675, 0};
Point(p18 + 19) = {17.07273956824242, -0.1013104267003897, 0};
Point(p18 + 20) = {17.059966, -0.2636139999999999, 0};
Point(p18 + 21) = {17.07273956824242, -0.4259175732996101, 0};
Point(p18 + 22) = {17.11074574532649, -0.5842246939699069, 0};
Point(p18 + 23) = {17.17304869303713, -0.7346373153087746, 0};
Point(p18 + 24) = {17.25811430603009, -0.873451779387982, 0};
Point(p18 + 25) = {17.3638479865969, -0.9972500134031044, 0};
Point(p18 + 26) = {17.48764622061202, -1.102983693969906, 0};
Point(p18 + 27) = {17.62646068469123, -1.188049306962867, 0};
Point(p18 + 28) = {17.77687330603009, -1.250352254673515, 0};
Point(p18 + 29) = {17.93518042670039, -1.288358431757586, 0};
Point(p18 + 30) = {18.097484, -1.301132, 0};
Point(p18 + 31) = {18.25978757329961, -1.288358431757586, 0};
Point(p18 + 32) = {18.41809469396991, -1.250352254673515, 0};
Point(p18 + 33) = {18.56850731530877, -1.188049306962867, 0};
Point(p18 + 34) = {18.70732177938798, -1.102983693969907, 0};
Point(p18 + 35) = {18.8311200134031, -0.9972500134031046, 0};
Point(p18 + 36) = {18.93685369396991, -0.8734517793879822, 0};
Point(p18 + 37) = {19.02191930696287, -0.7346373153087753, 0};
Point(p18 + 38) = {19.08422225467352, -0.5842246939699069, 0};
Point(p18 + 39) = {19.12222843175759, -0.4259175732996106, 0};
Spline(18) = {12, p18 + 1, p18 + 2, p18 + 3, p18 + 4, p18 + 5, p18 + 6, p18 + 7, p18 + 8, p18 + 9, p18 + 10, p18 + 11, p18 + 12, p18 + 13, p18 + 14, p18 + 15, p18 + 16, p18 + 17, p18 + 18, p18 + 19, p18 + 20, p18 + 21, p18 + 22, p18 + 23, p18 + 24, p18 + 25, p18 + 26, p18 + 27, p18 + 28, p18 + 29, p18 + 30, p18 + 31, p18 + 32, p18 + 33, p18 + 34, p18 + 35, p18 + 36, p18 + 37, p18 + 38, p18 + 39, 12};
Line(19) = {14, 13};
Line(20) = {13, 15};
Line(21) = {16, 15};
Line(22) = {14, 16};
Line(23) = {14, 17};
Line(24) = {17, 18};
Line(25) = {13, 18};
Line(26) = {15, 19};
Line(27) = {18, 19};
Line(28) = {16, 20};
Line(29) = {20, 19};
Line(30) = {17, 20};
Curve Loop(7) = {-13, -14, 15, 14};
Surface(7) = {7};
Curve Loop(8) = {13};
Plane Surface(8) = {8};
Curve Loop(9) = {15};
Plane Surface(9) = {9};
Curve Loop(10) = {-16, -17, 18, 17};
Surface(10) = {10};
Curve Loop(11) = {16};
Plane Surface(11) = {11};
Curve Loop(12) = {18};
Plane Surface(12) = {12};
Curve Loop(13) = {-19, 22, 21, -20};
Plane Surface(13) = {13};
Curve Loop(14) = {-23, 19, 25, -24};
Plane Surface(14) = {14};
Curve Loop(15) = {-20, 25, 27, -26, -16, -13};
Plane Surface(15) = {15};
Curve Loop(16) = {-28, 21, 26, -29};
Plane Surface(16) = {16};
Curve Loop(17) = {-22, 23, 30, -28, -18, -15};
Plane Surface(17) = {17};
Curve Loop(18) = {-24, 30, 29, -27};
Plane Surface(18) = {18};
Surface Loop(1) = {13, 14, 15, 16, 17, 18, 10, 7};
Volume(1) = {1};
Surface Loop(2) = {7, 8, 9};
Volume(2) = {2};
Surface Loop(3) = {10, 11, 12};
Volume(3) = {3};
Physical Surface("WALLS") = {13, 18};
Physical Surface("LOAD") = {8, 11};
Physical Surface("BORDER") = {7, 9, 10, 12, 14, 15, 16, 17};
Physical Volume("SOLID") = {1, 2, 3};
