cl__1 = 0.100513;
cl__2 = 0.067758;
cl__3 = 0.63978;
cl__4 = 0.563186;
cl__5 = 2.731325;
cl__6 = 2.739253;
Point(9) = {11.517579, 2.628076, 0.1, cl__1};
Point(10) = {11.517579, 2.628076, 0, cl__1};
Point(11) = {14.969047, 0.7639839999999999, 0.1, cl__2};
Point(12) = {14.969047, 0.7639839999999999, 0, cl__2};
Point(13) = {0.192763, -3.228933, 0.1, cl__3};
Point(14) = {0.192763, -3.228933, 0, cl__3};
Point(15) = {0.192763, 4.894793, 0.1, cl__4};
Point(16) = {0.192763, 4.894793, 0, cl__4};
Point(17) = {38.369766, -3.228933, 0, cl__5};
Point(18) = {38.369766, -3.228933, 0.1, cl__5};
Point(19) = {38.369766, 4.894793, 0.1, cl__6};
Point(20) = {38.369766, 4.894793, 0, cl__6};
p13 = newp;
Point(p13 + 1) = {11.50520423102903, 2.785312348108027, 0.1};
Point(p13 + 2) = {11.46838463199768, 2.938677015488113, 0.1};
Point(p13 + 3) = {11.40802682363136, 3.084393655041212, 0.1};
Point(p13 + 4) = {11.32561701548811, 3.218874239495724, 0.1};
Point(p13 + 5) = {11.22318441054691, 3.33880741054691, 0.1};
Point(p13 + 6) = {11.10325123949572, 3.441240015488114, 0.1};
Point(p13 + 7) = {10.96877065504121, 3.523649823631358, 0.1};
Point(p13 + 8) = {10.82305401548811, 3.584007631997682, 0.1};
Point(p13 + 9) = {10.66968934810803, 3.620827231029029, 0.1};
Point(p13 + 10) = {10.512453, 3.633202, 0.1};
Point(p13 + 11) = {10.35521665189197, 3.620827231029028, 0.1};
Point(p13 + 12) = {10.20185198451189, 3.584007631997683, 0.1};
Point(p13 + 13) = {10.05613534495879, 3.523649823631358, 0.1};
Point(p13 + 14) = {9.921654760504277, 3.441240015488114, 0.1};
Point(p13 + 15) = {9.801721589453091, 3.33880741054691, 0.1};
Point(p13 + 16) = {9.699288984511888, 3.218874239495725, 0.1};
Point(p13 + 17) = {9.616879176368643, 3.084393655041212, 0.1};
Point(p13 + 18) = {9.556521368002318, 2.938677015488114, 0.1};
Point(p13 + 19) = {9.519701768970972, 2.785312348108027, 0.1};
Point(p13 + 20) = {9.507327, 2.628076, 0.1};
Point(p13 + 21) = {9.519701768970972, 2.470839651891973, 0.1};
Point(p13 + 22) = {9.556521368002318, 2.317474984511886, 0.1};
Point(p13 + 23) = {9.616879176368643, 2.171758344958789, 0.1};
Point(p13 + 24) = {9.699288984511888, 2.037277760504276, 0.1};
Point(p13 + 25) = {9.801721589453091, 1.91734458945309, 0.1};
Point(p13 + 26) = {9.921654760504277, 1.814911984511887, 0.1};
Point(p13 + 27) = {10.05613534495879, 1.732502176368643, 0.1};
Point(p13 + 28) = {10.20185198451189, 1.672144368002318, 0.1};
Point(p13 + 29) = {10.35521665189197, 1.635324768970972, 0.1};
Point(p13 + 30) = {10.512453, 1.62295, 0.1};
Point(p13 + 31) = {10.66968934810803, 1.635324768970972, 0.1};
Point(p13 + 32) = {10.82305401548811, 1.672144368002317, 0.1};
Point(p13 + 33) = {10.96877065504121, 1.732502176368643, 0.1};
Point(p13 + 34) = {11.10325123949572, 1.814911984511887, 0.1};
Point(p13 + 35) = {11.22318441054691, 1.91734458945309, 0.1};
Point(p13 + 36) = {11.32561701548811, 2.037277760504276, 0.1};
Point(p13 + 37) = {11.40802682363136, 2.171758344958788, 0.1};
Point(p13 + 38) = {11.46838463199768, 2.317474984511886, 0.1};
Point(p13 + 39) = {11.50520423102903, 2.470839651891973, 0.1};
Spline(13) = {9, p13 + 1, p13 + 2, p13 + 3, p13 + 4, p13 + 5, p13 + 6, p13 + 7, p13 + 8, p13 + 9, p13 + 10, p13 + 11, p13 + 12, p13 + 13, p13 + 14, p13 + 15, p13 + 16, p13 + 17, p13 + 18, p13 + 19, p13 + 20, p13 + 21, p13 + 22, p13 + 23, p13 + 24, p13 + 25, p13 + 26, p13 + 27, p13 + 28, p13 + 29, p13 + 30, p13 + 31, p13 + 32, p13 + 33, p13 + 34, p13 + 35, p13 + 36, p13 + 37, p13 + 38, p13 + 39, 9};
Line(14) = {10, 9};
p15 = newp;
Point(p15 + 1) = {11.50520423102903, 2.785312348108027, 0};
Point(p15 + 2) = {11.46838463199768, 2.938677015488113, 0};
Point(p15 + 3) = {11.40802682363136, 3.084393655041212, 0};
Point(p15 + 4) = {11.32561701548811, 3.218874239495724, 0};
Point(p15 + 5) = {11.22318441054691, 3.33880741054691, 0};
Point(p15 + 6) = {11.10325123949572, 3.441240015488114, 0};
Point(p15 + 7) = {10.96877065504121, 3.523649823631358, 0};
Point(p15 + 8) = {10.82305401548811, 3.584007631997682, 0};
Point(p15 + 9) = {10.66968934810803, 3.620827231029029, 0};
Point(p15 + 10) = {10.512453, 3.633202, 0};
Point(p15 + 11) = {10.35521665189197, 3.620827231029028, 0};
Point(p15 + 12) = {10.20185198451189, 3.584007631997683, 0};
Point(p15 + 13) = {10.05613534495879, 3.523649823631358, 0};
Point(p15 + 14) = {9.921654760504277, 3.441240015488114, 0};
Point(p15 + 15) = {9.801721589453091, 3.33880741054691, 0};
Point(p15 + 16) = {9.699288984511888, 3.218874239495725, 0};
Point(p15 + 17) = {9.616879176368643, 3.084393655041212, 0};
Point(p15 + 18) = {9.556521368002318, 2.938677015488114, 0};
Point(p15 + 19) = {9.519701768970972, 2.785312348108027, 0};
Point(p15 + 20) = {9.507327, 2.628076, 0};
Point(p15 + 21) = {9.519701768970972, 2.470839651891973, 0};
Point(p15 + 22) = {9.556521368002318, 2.317474984511886, 0};
Point(p15 + 23) = {9.616879176368643, 2.171758344958789, 0};
Point(p15 + 24) = {9.699288984511888, 2.037277760504276, 0};
Point(p15 + 25) = {9.801721589453091, 1.91734458945309, 0};
Point(p15 + 26) = {9.921654760504277, 1.814911984511887, 0};
Point(p15 + 27) = {10.05613534495879, 1.732502176368643, 0};
Point(p15 + 28) = {10.20185198451189, 1.672144368002318, 0};
Point(p15 + 29) = {10.35521665189197, 1.635324768970972, 0};
Point(p15 + 30) = {10.512453, 1.62295, 0};
Point(p15 + 31) = {10.66968934810803, 1.635324768970972, 0};
Point(p15 + 32) = {10.82305401548811, 1.672144368002317, 0};
Point(p15 + 33) = {10.96877065504121, 1.732502176368643, 0};
Point(p15 + 34) = {11.10325123949572, 1.814911984511887, 0};
Point(p15 + 35) = {11.22318441054691, 1.91734458945309, 0};
Point(p15 + 36) = {11.32561701548811, 2.037277760504276, 0};
Point(p15 + 37) = {11.40802682363136, 2.171758344958788, 0};
Point(p15 + 38) = {11.46838463199768, 2.317474984511886, 0};
Point(p15 + 39) = {11.50520423102903, 2.470839651891973, 0};
Spline(15) = {10, p15 + 1, p15 + 2, p15 + 3, p15 + 4, p15 + 5, p15 + 6, p15 + 7, p15 + 8, p15 + 9, p15 + 10, p15 + 11, p15 + 12, p15 + 13, p15 + 14, p15 + 15, p15 + 16, p15 + 17, p15 + 18, p15 + 19, p15 + 20, p15 + 21, p15 + 22, p15 + 23, p15 + 24, p15 + 25, p15 + 26, p15 + 27, p15 + 28, p15 + 29, p15 + 30, p15 + 31, p15 + 32, p15 + 33, p15 + 34, p15 + 35, p15 + 36, p15 + 37, p15 + 38, p15 + 39, 10};
p16 = newp;
Point(p16 + 1) = {14.96070481657382, 0.8699814905598198, 0.1};
Point(p16 + 2) = {14.93588367853734, 0.9733689711165543, 0.1};
Point(p16 + 3) = {14.89519476468565, 1.071600698775521, 0.1};
Point(p16 + 4) = {14.83963997111655, 1.162257882389343, 0.1};
Point(p16 + 5) = {14.77058724122351, 1.243108241223505, 0.1};
Point(p16 + 6) = {14.68973688238934, 1.312160971116554, 0.1};
Point(p16 + 7) = {14.59907969877552, 1.367715764685651, 0.1};
Point(p16 + 8) = {14.50084797111655, 1.408404678537335, 0.1};
Point(p16 + 9) = {14.39746049055982, 1.433225816573816, 0.1};
Point(p16 + 10) = {14.291463, 1.441568, 0.1};
Point(p16 + 11) = {14.18546550944018, 1.433225816573816, 0.1};
Point(p16 + 12) = {14.08207802888345, 1.408404678537335, 0.1};
Point(p16 + 13) = {13.98384630122448, 1.367715764685651, 0.1};
Point(p16 + 14) = {13.89318911761066, 1.312160971116554, 0.1};
Point(p16 + 15) = {13.81233875877649, 1.243108241223505, 0.1};
Point(p16 + 16) = {13.74328602888345, 1.162257882389343, 0.1};
Point(p16 + 17) = {13.68773123531435, 1.071600698775521, 0.1};
Point(p16 + 18) = {13.64704232146267, 0.9733689711165544, 0.1};
Point(p16 + 19) = {13.62222118342618, 0.8699814905598199, 0.1};
Point(p16 + 20) = {13.613879, 0.7639840000000001, 0.1};
Point(p16 + 21) = {13.62222118342618, 0.6579865094401802, 0.1};
Point(p16 + 22) = {13.64704232146267, 0.5545990288834455, 0.1};
Point(p16 + 23) = {13.68773123531435, 0.4563673012244793, 0.1};
Point(p16 + 24) = {13.74328602888345, 0.365710117610657, 0.1};
Point(p16 + 25) = {13.81233875877649, 0.2848597587764944, 0.1};
Point(p16 + 26) = {13.89318911761066, 0.2158070288834457, 0.1};
Point(p16 + 27) = {13.98384630122448, 0.1602522353143491, 0.1};
Point(p16 + 28) = {14.08207802888345, 0.1195633214626647, 0.1};
Point(p16 + 29) = {14.18546550944018, 0.09474218342618423, 0.1};
Point(p16 + 30) = {14.291463, 0.08640000000000003, 0.1};
Point(p16 + 31) = {14.39746049055982, 0.09474218342618423, 0.1};
Point(p16 + 32) = {14.50084797111655, 0.1195633214626647, 0.1};
Point(p16 + 33) = {14.59907969877552, 0.1602522353143488, 0.1};
Point(p16 + 34) = {14.68973688238934, 0.2158070288834456, 0.1};
Point(p16 + 35) = {14.77058724122351, 0.2848597587764943, 0.1};
Point(p16 + 36) = {14.83963997111655, 0.3657101176106568, 0.1};
Point(p16 + 37) = {14.89519476468565, 0.4563673012244788, 0.1};
Point(p16 + 38) = {14.93588367853734, 0.5545990288834455, 0.1};
Point(p16 + 39) = {14.96070481657382, 0.65798650944018, 0.1};
Spline(16) = {11, p16 + 1, p16 + 2, p16 + 3, p16 + 4, p16 + 5, p16 + 6, p16 + 7, p16 + 8, p16 + 9, p16 + 10, p16 + 11, p16 + 12, p16 + 13, p16 + 14, p16 + 15, p16 + 16, p16 + 17, p16 + 18, p16 + 19, p16 + 20, p16 + 21, p16 + 22, p16 + 23, p16 + 24, p16 + 25, p16 + 26, p16 + 27, p16 + 28, p16 + 29, p16 + 30, p16 + 31, p16 + 32, p16 + 33, p16 + 34, p16 + 35, p16 + 36, p16 + 37, p16 + 38, p16 + 39, 11};
Line(17) = {12, 11};
p18 = newp;
Point(p18 + 1) = {14.96070481657382, 0.8699814905598198, 0};
Point(p18 + 2) = {14.93588367853734, 0.9733689711165543, 0};
Point(p18 + 3) = {14.89519476468565, 1.071600698775521, 0};
Point(p18 + 4) = {14.83963997111655, 1.162257882389343, 0};
Point(p18 + 5) = {14.77058724122351, 1.243108241223505, 0};
Point(p18 + 6) = {14.68973688238934, 1.312160971116554, 0};
Point(p18 + 7) = {14.59907969877552, 1.367715764685651, 0};
Point(p18 + 8) = {14.50084797111655, 1.408404678537335, 0};
Point(p18 + 9) = {14.39746049055982, 1.433225816573816, 0};
Point(p18 + 10) = {14.291463, 1.441568, 0};
Point(p18 + 11) = {14.18546550944018, 1.433225816573816, 0};
Point(p18 + 12) = {14.08207802888345, 1.408404678537335, 0};
Point(p18 + 13) = {13.98384630122448, 1.367715764685651, 0};
Point(p18 + 14) = {13.89318911761066, 1.312160971116554, 0};
Point(p18 + 15) = {13.81233875877649, 1.243108241223505, 0};
Point(p18 + 16) = {13.74328602888345, 1.162257882389343, 0};
Point(p18 + 17) = {13.68773123531435, 1.071600698775521, 0};
Point(p18 + 18) = {13.64704232146267, 0.9733689711165544, 0};
Point(p18 + 19) = {13.62222118342618, 0.8699814905598199, 0};
Point(p18 + 20) = {13.613879, 0.7639840000000001, 0};
Point(p18 + 21) = {13.62222118342618, 0.6579865094401802, 0};
Point(p18 + 22) = {13.64704232146267, 0.5545990288834455, 0};
Point(p18 + 23) = {13.68773123531435, 0.4563673012244793, 0};
Point(p18 + 24) = {13.74328602888345, 0.365710117610657, 0};
Point(p18 + 25) = {13.81233875877649, 0.2848597587764944, 0};
Point(p18 + 26) = {13.89318911761066, 0.2158070288834457, 0};
Point(p18 + 27) = {13.98384630122448, 0.1602522353143491, 0};
Point(p18 + 28) = {14.08207802888345, 0.1195633214626647, 0};
Point(p18 + 29) = {14.18546550944018, 0.09474218342618423, 0};
Point(p18 + 30) = {14.291463, 0.08640000000000003, 0};
Point(p18 + 31) = {14.39746049055982, 0.09474218342618423, 0};
Point(p18 + 32) = {14.50084797111655, 0.1195633214626647, 0};
Point(p18 + 33) = {14.59907969877552, 0.1602522353143488, 0};
Point(p18 + 34) = {14.68973688238934, 0.2158070288834456, 0};
Point(p18 + 35) = {14.77058724122351, 0.2848597587764943, 0};
Point(p18 + 36) = {14.83963997111655, 0.3657101176106568, 0};
Point(p18 + 37) = {14.89519476468565, 0.4563673012244788, 0};
Point(p18 + 38) = {14.93588367853734, 0.5545990288834455, 0};
Point(p18 + 39) = {14.96070481657382, 0.65798650944018, 0};
Spline(18) = {12, p18 + 1, p18 + 2, p18 + 3, p18 + 4, p18 + 5, p18 + 6, p18 + 7, p18 + 8, p18 + 9, p18 + 10, p18 + 11, p18 + 12, p18 + 13, p18 + 14, p18 + 15, p18 + 16, p18 + 17, p18 + 18, p18 + 19, p18 + 20, p18 + 21, p18 + 22, p18 + 23, p18 + 24, p18 + 25, p18 + 26, p18 + 27, p18 + 28, p18 + 29, p18 + 30, p18 + 31, p18 + 32, p18 + 33, p18 + 34, p18 + 35, p18 + 36, p18 + 37, p18 + 38, p18 + 39, 12};
Line(19) = {14, 13};
Line(20) = {13, 15};
Line(21) = {16, 15};
Line(22) = {14, 16};
Line(23) = {14, 17};
Line(24) = {17, 18};
Line(25) = {13, 18};
Line(26) = {15, 19};
Line(27) = {18, 19};
Line(28) = {16, 20};
Line(29) = {20, 19};
Line(30) = {17, 20};
Curve Loop(7) = {-13, -14, 15, 14};
Surface(7) = {7};
Curve Loop(8) = {13};
Plane Surface(8) = {8};
Curve Loop(9) = {15};
Plane Surface(9) = {9};
Curve Loop(10) = {-16, -17, 18, 17};
Surface(10) = {10};
Curve Loop(11) = {16};
Plane Surface(11) = {11};
Curve Loop(12) = {18};
Plane Surface(12) = {12};
Curve Loop(13) = {-19, 22, 21, -20};
Plane Surface(13) = {13};
Curve Loop(14) = {-23, 19, 25, -24};
Plane Surface(14) = {14};
Curve Loop(15) = {-20, 25, 27, -26, -16, -13};
Plane Surface(15) = {15};
Curve Loop(16) = {-28, 21, 26, -29};
Plane Surface(16) = {16};
Curve Loop(17) = {-22, 23, 30, -28, -18, -15};
Plane Surface(17) = {17};
Curve Loop(18) = {-24, 30, 29, -27};
Plane Surface(18) = {18};
Surface Loop(1) = {13, 14, 15, 16, 17, 18, 10, 7};
Volume(1) = {1};
Surface Loop(2) = {7, 8, 9};
Volume(2) = {2};
Surface Loop(3) = {10, 11, 12};
Volume(3) = {3};
Physical Surface("WALLS") = {13, 18};
Physical Surface("LOAD") = {8, 11};
Physical Surface("BORDER") = {7, 9, 10, 12, 14, 15, 16, 17};
Physical Volume("SOLID") = {1, 2, 3};
