cl__1 = 0.12715;
cl__2 = 0.054434;
cl__3 = 3.113086;
cl__4 = 3.032987;
cl__5 = 0.552225;
cl__6 = 0.54011;
Point(9) = {26.121527, 1.112672, 0.1, cl__1};
Point(10) = {26.121527, 1.112672, 0, cl__1};
Point(11) = {25.470511, -1.452958, 0.1, cl__2};
Point(12) = {25.470511, -1.452958, 0, cl__2};
Point(13) = {0.988331, -3.783517, 0.1, cl__3};
Point(14) = {0.988331, -3.783517, 0, cl__3};
Point(15) = {0.988331, 4.891821, 0.1, cl__4};
Point(16) = {0.988331, 4.891821, 0, cl__4};
Point(17) = {33.904537, -3.783517, 0, cl__5};
Point(18) = {33.904537, -3.783517, 0.1, cl__5};
Point(19) = {33.904537, 4.891821, 0.1, cl__6};
Point(20) = {33.904537, 4.891821, 0, cl__6};
p13 = newp;
Point(p13 + 1) = {26.10587271275506, 1.311578578733119, 0.1};
Point(p13 + 2) = {26.0592953115258, 1.50558741736474, 0.1};
Point(p13 + 3) = {25.98294168651204, 1.689921374409334, 0.1};
Point(p13 + 4) = {25.87869191736474, 1.860041536075132, 0.1};
Point(p13 + 5) = {25.74911297938548, 2.011758979385476, 0.1};
Point(p13 + 6) = {25.59739553607513, 2.14133791736474, 0.1};
Point(p13 + 7) = {25.42727537440933, 2.245587686512034, 0.1};
Point(p13 + 8) = {25.24294141736474, 2.321941311525804, 0.1};
Point(p13 + 9) = {25.04893257873312, 2.368518712755058, 0.1};
Point(p13 + 10) = {24.850026, 2.384173, 0.1};
Point(p13 + 11) = {24.65111942126688, 2.368518712755058, 0.1};
Point(p13 + 12) = {24.45711058263526, 2.321941311525804, 0.1};
Point(p13 + 13) = {24.27277662559067, 2.245587686512034, 0.1};
Point(p13 + 14) = {24.10265646392487, 2.14133791736474, 0.1};
Point(p13 + 15) = {23.95093902061452, 2.011758979385477, 0.1};
Point(p13 + 16) = {23.82136008263526, 1.860041536075132, 0.1};
Point(p13 + 17) = {23.71711031348796, 1.689921374409334, 0.1};
Point(p13 + 18) = {23.64075668847419, 1.50558741736474, 0.1};
Point(p13 + 19) = {23.59417928724494, 1.311578578733119, 0.1};
Point(p13 + 20) = {23.578525, 1.112672, 0.1};
Point(p13 + 21) = {23.59417928724494, 0.9137654212668817, 0.1};
Point(p13 + 22) = {23.64075668847419, 0.7197565826352597, 0.1};
Point(p13 + 23) = {23.71711031348796, 0.5354226255906672, 0.1};
Point(p13 + 24) = {23.82136008263526, 0.3653024639248683, 0.1};
Point(p13 + 25) = {23.95093902061452, 0.2135850206145238, 0.1};
Point(p13 + 26) = {24.10265646392487, 0.08400608263526022, 0.1};
Point(p13 + 27) = {24.27277662559067, -0.02024368651203368, 0.1};
Point(p13 + 28) = {24.45711058263526, -0.09659731152580386, 0.1};
Point(p13 + 29) = {24.65111942126688, -0.143174712755058, 0.1};
Point(p13 + 30) = {24.850026, -0.1588289999999999, 0.1};
Point(p13 + 31) = {25.04893257873312, -0.1431747127550582, 0.1};
Point(p13 + 32) = {25.24294141736474, -0.09659731152580409, 0.1};
Point(p13 + 33) = {25.42727537440933, -0.0202436865120339, 0.1};
Point(p13 + 34) = {25.59739553607513, 0.08400608263525999, 0.1};
Point(p13 + 35) = {25.74911297938548, 0.2135850206145236, 0.1};
Point(p13 + 36) = {25.87869191736474, 0.3653024639248681, 0.1};
Point(p13 + 37) = {25.98294168651204, 0.5354226255906664, 0.1};
Point(p13 + 38) = {26.0592953115258, 0.7197565826352599, 0.1};
Point(p13 + 39) = {26.10587271275506, 0.9137654212668812, 0.1};
Spline(13) = {9, p13 + 1, p13 + 2, p13 + 3, p13 + 4, p13 + 5, p13 + 6, p13 + 7, p13 + 8, p13 + 9, p13 + 10, p13 + 11, p13 + 12, p13 + 13, p13 + 14, p13 + 15, p13 + 16, p13 + 17, p13 + 18, p13 + 19, p13 + 20, p13 + 21, p13 + 22, p13 + 23, p13 + 24, p13 + 25, p13 + 26, p13 + 27, p13 + 28, p13 + 29, p13 + 30, p13 + 31, p13 + 32, p13 + 33, p13 + 34, p13 + 35, p13 + 36, p13 + 37, p13 + 38, p13 + 39, 9};
Line(14) = {10, 9};
p15 = newp;
Point(p15 + 1) = {26.10587271275506, 1.311578578733119, 0};
Point(p15 + 2) = {26.0592953115258, 1.50558741736474, 0};
Point(p15 + 3) = {25.98294168651204, 1.689921374409334, 0};
Point(p15 + 4) = {25.87869191736474, 1.860041536075132, 0};
Point(p15 + 5) = {25.74911297938548, 2.011758979385476, 0};
Point(p15 + 6) = {25.59739553607513, 2.14133791736474, 0};
Point(p15 + 7) = {25.42727537440933, 2.245587686512034, 0};
Point(p15 + 8) = {25.24294141736474, 2.321941311525804, 0};
Point(p15 + 9) = {25.04893257873312, 2.368518712755058, 0};
Point(p15 + 10) = {24.850026, 2.384173, 0};
Point(p15 + 11) = {24.65111942126688, 2.368518712755058, 0};
Point(p15 + 12) = {24.45711058263526, 2.321941311525804, 0};
Point(p15 + 13) = {24.27277662559067, 2.245587686512034, 0};
Point(p15 + 14) = {24.10265646392487, 2.14133791736474, 0};
Point(p15 + 15) = {23.95093902061452, 2.011758979385477, 0};
Point(p15 + 16) = {23.82136008263526, 1.860041536075132, 0};
Point(p15 + 17) = {23.71711031348796, 1.689921374409334, 0};
Point(p15 + 18) = {23.64075668847419, 1.50558741736474, 0};
Point(p15 + 19) = {23.59417928724494, 1.311578578733119, 0};
Point(p15 + 20) = {23.578525, 1.112672, 0};
Point(p15 + 21) = {23.59417928724494, 0.9137654212668817, 0};
Point(p15 + 22) = {23.64075668847419, 0.7197565826352597, 0};
Point(p15 + 23) = {23.71711031348796, 0.5354226255906672, 0};
Point(p15 + 24) = {23.82136008263526, 0.3653024639248683, 0};
Point(p15 + 25) = {23.95093902061452, 0.2135850206145238, 0};
Point(p15 + 26) = {24.10265646392487, 0.08400608263526022, 0};
Point(p15 + 27) = {24.27277662559067, -0.02024368651203368, 0};
Point(p15 + 28) = {24.45711058263526, -0.09659731152580386, 0};
Point(p15 + 29) = {24.65111942126688, -0.143174712755058, 0};
Point(p15 + 30) = {24.850026, -0.1588289999999999, 0};
Point(p15 + 31) = {25.04893257873312, -0.1431747127550582, 0};
Point(p15 + 32) = {25.24294141736474, -0.09659731152580409, 0};
Point(p15 + 33) = {25.42727537440933, -0.0202436865120339, 0};
Point(p15 + 34) = {25.59739553607513, 0.08400608263525999, 0};
Point(p15 + 35) = {25.74911297938548, 0.2135850206145236, 0};
Point(p15 + 36) = {25.87869191736474, 0.3653024639248681, 0};
Point(p15 + 37) = {25.98294168651204, 0.5354226255906664, 0};
Point(p15 + 38) = {26.0592953115258, 0.7197565826352599, 0};
Point(p15 + 39) = {26.10587271275506, 0.9137654212668812, 0};
Spline(15) = {10, p15 + 1, p15 + 2, p15 + 3, p15 + 4, p15 + 5, p15 + 6, p15 + 7, p15 + 8, p15 + 9, p15 + 10, p15 + 11, p15 + 12, p15 + 13, p15 + 14, p15 + 15, p15 + 16, p15 + 17, p15 + 18, p15 + 19, p15 + 20, p15 + 21, p15 + 22, p15 + 23, p15 + 24, p15 + 25, p15 + 26, p15 + 27, p15 + 28, p15 + 29, p15 + 30, p15 + 31, p15 + 32, p15 + 33, p15 + 34, p15 + 35, p15 + 36, p15 + 37, p15 + 38, p15 + 39, 10};
p16 = newp;
Point(p16 + 1) = {25.4638093205662, -1.367805089037861, 0.1};
Point(p16 + 2) = {25.44386929985404, -1.284748925349918, 0.1};
Point(p16 + 3) = {25.4111819273506, -1.205834627333774, 0.1};
Point(p16 + 4) = {25.36655207465008, -1.133005326908124, 0.1};
Point(p16 + 5) = {25.31107867684396, -1.068054323156039, 0.1};
Point(p16 + 6) = {25.24612767309188, -1.012580925349919, 0.1};
Point(p16 + 7) = {25.17329837266623, -0.9679510726494005, 0.1};
Point(p16 + 8) = {25.09438407465008, -0.9352637001459613, 0.1};
Point(p16 + 9) = {25.01132791096214, -0.915323679433805, 0.1};
Point(p16 + 10) = {24.926175, -0.9086219999999999, 0.1};
Point(p16 + 11) = {24.84102208903786, -0.9153236794338051, 0.1};
Point(p16 + 12) = {24.75796592534992, -0.9352637001459612, 0.1};
Point(p16 + 13) = {24.67905162733377, -0.9679510726494005, 0.1};
Point(p16 + 14) = {24.60622232690812, -1.012580925349919, 0.1};
Point(p16 + 15) = {24.54127132315604, -1.068054323156039, 0.1};
Point(p16 + 16) = {24.48579792534992, -1.133005326908124, 0.1};
Point(p16 + 17) = {24.4411680726494, -1.205834627333774, 0.1};
Point(p16 + 18) = {24.40848070014596, -1.284748925349918, 0.1};
Point(p16 + 19) = {24.38854067943381, -1.367805089037861, 0.1};
Point(p16 + 20) = {24.381839, -1.452958, 0.1};
Point(p16 + 21) = {24.38854067943381, -1.538110910962139, 0.1};
Point(p16 + 22) = {24.40848070014596, -1.621167074650081, 0.1};
Point(p16 + 23) = {24.4411680726494, -1.700081372666226, 0.1};
Point(p16 + 24) = {24.48579792534992, -1.772910673091876, 0.1};
Point(p16 + 25) = {24.54127132315604, -1.837861676843961, 0.1};
Point(p16 + 26) = {24.60622232690812, -1.893335074650081, 0.1};
Point(p16 + 27) = {24.67905162733377, -1.937964927350599, 0.1};
Point(p16 + 28) = {24.75796592534992, -1.970652299854039, 0.1};
Point(p16 + 29) = {24.84102208903786, -1.990592320566195, 0.1};
Point(p16 + 30) = {24.926175, -1.997294, 0.1};
Point(p16 + 31) = {25.01132791096214, -1.990592320566195, 0.1};
Point(p16 + 32) = {25.09438407465008, -1.970652299854039, 0.1};
Point(p16 + 33) = {25.17329837266623, -1.937964927350599, 0.1};
Point(p16 + 34) = {25.24612767309188, -1.893335074650081, 0.1};
Point(p16 + 35) = {25.31107867684396, -1.837861676843961, 0.1};
Point(p16 + 36) = {25.36655207465008, -1.772910673091876, 0.1};
Point(p16 + 37) = {25.4111819273506, -1.700081372666226, 0.1};
Point(p16 + 38) = {25.44386929985404, -1.621167074650081, 0.1};
Point(p16 + 39) = {25.4638093205662, -1.538110910962139, 0.1};
Spline(16) = {11, p16 + 1, p16 + 2, p16 + 3, p16 + 4, p16 + 5, p16 + 6, p16 + 7, p16 + 8, p16 + 9, p16 + 10, p16 + 11, p16 + 12, p16 + 13, p16 + 14, p16 + 15, p16 + 16, p16 + 17, p16 + 18, p16 + 19, p16 + 20, p16 + 21, p16 + 22, p16 + 23, p16 + 24, p16 + 25, p16 + 26, p16 + 27, p16 + 28, p16 + 29, p16 + 30, p16 + 31, p16 + 32, p16 + 33, p16 + 34, p16 + 35, p16 + 36, p16 + 37, p16 + 38, p16 + 39, 11};
Line(17) = {12, 11};
p18 = newp;
Point(p18 + 1) = {25.4638093205662, -1.367805089037861, 0};
Point(p18 + 2) = {25.44386929985404, -1.284748925349918, 0};
Point(p18 + 3) = {25.4111819273506, -1.205834627333774, 0};
Point(p18 + 4) = {25.36655207465008, -1.133005326908124, 0};
Point(p18 + 5) = {25.31107867684396, -1.068054323156039, 0};
Point(p18 + 6) = {25.24612767309188, -1.012580925349919, 0};
Point(p18 + 7) = {25.17329837266623, -0.9679510726494005, 0};
Point(p18 + 8) = {25.09438407465008, -0.9352637001459613, 0};
Point(p18 + 9) = {25.01132791096214, -0.915323679433805, 0};
Point(p18 + 10) = {24.926175, -0.9086219999999999, 0};
Point(p18 + 11) = {24.84102208903786, -0.9153236794338051, 0};
Point(p18 + 12) = {24.75796592534992, -0.9352637001459612, 0};
Point(p18 + 13) = {24.67905162733377, -0.9679510726494005, 0};
Point(p18 + 14) = {24.60622232690812, -1.012580925349919, 0};
Point(p18 + 15) = {24.54127132315604, -1.068054323156039, 0};
Point(p18 + 16) = {24.48579792534992, -1.133005326908124, 0};
Point(p18 + 17) = {24.4411680726494, -1.205834627333774, 0};
Point(p18 + 18) = {24.40848070014596, -1.284748925349918, 0};
Point(p18 + 19) = {24.38854067943381, -1.367805089037861, 0};
Point(p18 + 20) = {24.381839, -1.452958, 0};
Point(p18 + 21) = {24.38854067943381, -1.538110910962139, 0};
Point(p18 + 22) = {24.40848070014596, -1.621167074650081, 0};
Point(p18 + 23) = {24.4411680726494, -1.700081372666226, 0};
Point(p18 + 24) = {24.48579792534992, -1.772910673091876, 0};
Point(p18 + 25) = {24.54127132315604, -1.837861676843961, 0};
Point(p18 + 26) = {24.60622232690812, -1.893335074650081, 0};
Point(p18 + 27) = {24.67905162733377, -1.937964927350599, 0};
Point(p18 + 28) = {24.75796592534992, -1.970652299854039, 0};
Point(p18 + 29) = {24.84102208903786, -1.990592320566195, 0};
Point(p18 + 30) = {24.926175, -1.997294, 0};
Point(p18 + 31) = {25.01132791096214, -1.990592320566195, 0};
Point(p18 + 32) = {25.09438407465008, -1.970652299854039, 0};
Point(p18 + 33) = {25.17329837266623, -1.937964927350599, 0};
Point(p18 + 34) = {25.24612767309188, -1.893335074650081, 0};
Point(p18 + 35) = {25.31107867684396, -1.837861676843961, 0};
Point(p18 + 36) = {25.36655207465008, -1.772910673091876, 0};
Point(p18 + 37) = {25.4111819273506, -1.700081372666226, 0};
Point(p18 + 38) = {25.44386929985404, -1.621167074650081, 0};
Point(p18 + 39) = {25.4638093205662, -1.538110910962139, 0};
Spline(18) = {12, p18 + 1, p18 + 2, p18 + 3, p18 + 4, p18 + 5, p18 + 6, p18 + 7, p18 + 8, p18 + 9, p18 + 10, p18 + 11, p18 + 12, p18 + 13, p18 + 14, p18 + 15, p18 + 16, p18 + 17, p18 + 18, p18 + 19, p18 + 20, p18 + 21, p18 + 22, p18 + 23, p18 + 24, p18 + 25, p18 + 26, p18 + 27, p18 + 28, p18 + 29, p18 + 30, p18 + 31, p18 + 32, p18 + 33, p18 + 34, p18 + 35, p18 + 36, p18 + 37, p18 + 38, p18 + 39, 12};
Line(19) = {14, 13};
Line(20) = {13, 15};
Line(21) = {16, 15};
Line(22) = {14, 16};
Line(23) = {14, 17};
Line(24) = {17, 18};
Line(25) = {13, 18};
Line(26) = {15, 19};
Line(27) = {18, 19};
Line(28) = {16, 20};
Line(29) = {20, 19};
Line(30) = {17, 20};
Curve Loop(7) = {-13, -14, 15, 14};
Surface(7) = {7};
Curve Loop(8) = {13};
Plane Surface(8) = {8};
Curve Loop(9) = {15};
Plane Surface(9) = {9};
Curve Loop(10) = {-16, -17, 18, 17};
Surface(10) = {10};
Curve Loop(11) = {16};
Plane Surface(11) = {11};
Curve Loop(12) = {18};
Plane Surface(12) = {12};
Curve Loop(13) = {-19, 22, 21, -20};
Plane Surface(13) = {13};
Curve Loop(14) = {-23, 19, 25, -24};
Plane Surface(14) = {14};
Curve Loop(15) = {-20, 25, 27, -26, -16, -13};
Plane Surface(15) = {15};
Curve Loop(16) = {-28, 21, 26, -29};
Plane Surface(16) = {16};
Curve Loop(17) = {-22, 23, 30, -28, -18, -15};
Plane Surface(17) = {17};
Curve Loop(18) = {-24, 30, 29, -27};
Plane Surface(18) = {18};
Surface Loop(1) = {13, 14, 15, 16, 17, 18, 10, 7};
Volume(1) = {1};
Surface Loop(2) = {7, 8, 9};
Volume(2) = {2};
Surface Loop(3) = {10, 11, 12};
Volume(3) = {3};
Physical Surface("WALLS") = {13, 18};
Physical Surface("LOAD") = {8, 11};
Physical Surface("BORDER") = {7, 9, 10, 12, 14, 15, 16, 17};
Physical Volume("SOLID") = {1, 2, 3};
