cl__1 = 0.133922;
cl__2 = 0.141398;
cl__3 = 4.145673;
cl__4 = 4.346764;
cl__5 = 0.369932;
cl__6 = 0.391619;
Point(9) = {27.01051, -1.396237, 0.1, cl__1};
Point(10) = {27.01051, -1.396237, 0, cl__1};
Point(11) = {27.369205, 1.900429, 0.1, cl__2};
Point(12) = {27.369205, 1.900429, 0, cl__2};
Point(13) = {0.055909, -3.811739, 0.1, cl__3};
Point(14) = {0.055909, -3.811739, 0, cl__3};
Point(15) = {0.055909, 5.804524, 0.1, cl__4};
Point(16) = {0.055909, 5.804524, 0, cl__4};
Point(17) = {32.194116, -3.811739, 0, cl__5};
Point(18) = {32.194116, -3.811739, 0.1, cl__5};
Point(19) = {32.194116, 5.804524, 0.1, cl__6};
Point(20) = {32.194116, 5.804524, 0, cl__6};
p13 = newp;
Point(p13 + 1) = {26.9940219548685, -1.186736522859892, 0.1};
Point(p13 + 2) = {26.94496380986583, -0.9823946427591942, 0.1};
Point(p13 + 3) = {26.86454353933659, -0.7882429349578047, 0.1};
Point(p13 + 4) = {26.75474135724081, -0.6090620588543696, 0.1};
Point(p13 + 5) = {26.61826095771421, -0.4492640422857895, 0.1};
Point(p13 + 6) = {26.45846294114563, -0.3127836427591943, 0.1};
Point(p13 + 7) = {26.2792820650422, -0.2029814606634057, 0.1};
Point(p13 + 8) = {26.08513035724081, -0.1225611901341719, 0.1};
Point(p13 + 9) = {25.88078847714011, -0.07350304513149841, 0.1};
Point(p13 + 10) = {25.671288, -0.05701500000000004, 0.1};
Point(p13 + 11) = {25.46178752285989, -0.07350304513149863, 0.1};
Point(p13 + 12) = {25.25744564275919, -0.1225611901341719, 0.1};
Point(p13 + 13) = {25.06329393495781, -0.2029814606634055, 0.1};
Point(p13 + 14) = {24.88411305885437, -0.3127836427591941, 0.1};
Point(p13 + 15) = {24.72431504228579, -0.4492640422857894, 0.1};
Point(p13 + 16) = {24.58783464275919, -0.6090620588543694, 0.1};
Point(p13 + 17) = {24.47803246066341, -0.7882429349578046, 0.1};
Point(p13 + 18) = {24.39761219013417, -0.9823946427591941, 0.1};
Point(p13 + 19) = {24.3485540451315, -1.186736522859892, 0.1};
Point(p13 + 20) = {24.332066, -1.396237, 0.1};
Point(p13 + 21) = {24.3485540451315, -1.605737477140108, 0.1};
Point(p13 + 22) = {24.39761219013417, -1.810079357240806, 0.1};
Point(p13 + 23) = {24.47803246066341, -2.004231065042195, 0.1};
Point(p13 + 24) = {24.58783464275919, -2.18341194114563, 0.1};
Point(p13 + 25) = {24.72431504228579, -2.34320995771421, 0.1};
Point(p13 + 26) = {24.88411305885437, -2.479690357240806, 0.1};
Point(p13 + 27) = {25.06329393495781, -2.589492539336594, 0.1};
Point(p13 + 28) = {25.25744564275919, -2.669912809865828, 0.1};
Point(p13 + 29) = {25.46178752285989, -2.718970954868501, 0.1};
Point(p13 + 30) = {25.671288, -2.735459, 0.1};
Point(p13 + 31) = {25.88078847714011, -2.718970954868501, 0.1};
Point(p13 + 32) = {26.08513035724081, -2.669912809865828, 0.1};
Point(p13 + 33) = {26.2792820650422, -2.589492539336594, 0.1};
Point(p13 + 34) = {26.45846294114563, -2.479690357240806, 0.1};
Point(p13 + 35) = {26.61826095771421, -2.343209957714211, 0.1};
Point(p13 + 36) = {26.75474135724081, -2.18341194114563, 0.1};
Point(p13 + 37) = {26.86454353933659, -2.004231065042196, 0.1};
Point(p13 + 38) = {26.94496380986583, -1.810079357240806, 0.1};
Point(p13 + 39) = {26.9940219548685, -1.605737477140108, 0.1};
Spline(13) = {9, p13 + 1, p13 + 2, p13 + 3, p13 + 4, p13 + 5, p13 + 6, p13 + 7, p13 + 8, p13 + 9, p13 + 10, p13 + 11, p13 + 12, p13 + 13, p13 + 14, p13 + 15, p13 + 16, p13 + 17, p13 + 18, p13 + 19, p13 + 20, p13 + 21, p13 + 22, p13 + 23, p13 + 24, p13 + 25, p13 + 26, p13 + 27, p13 + 28, p13 + 29, p13 + 30, p13 + 31, p13 + 32, p13 + 33, p13 + 34, p13 + 35, p13 + 36, p13 + 37, p13 + 38, p13 + 39, 9};
Line(14) = {10, 9};
p15 = newp;
Point(p15 + 1) = {26.9940219548685, -1.186736522859892, 0};
Point(p15 + 2) = {26.94496380986583, -0.9823946427591942, 0};
Point(p15 + 3) = {26.86454353933659, -0.7882429349578047, 0};
Point(p15 + 4) = {26.75474135724081, -0.6090620588543696, 0};
Point(p15 + 5) = {26.61826095771421, -0.4492640422857895, 0};
Point(p15 + 6) = {26.45846294114563, -0.3127836427591943, 0};
Point(p15 + 7) = {26.2792820650422, -0.2029814606634057, 0};
Point(p15 + 8) = {26.08513035724081, -0.1225611901341719, 0};
Point(p15 + 9) = {25.88078847714011, -0.07350304513149841, 0};
Point(p15 + 10) = {25.671288, -0.05701500000000004, 0};
Point(p15 + 11) = {25.46178752285989, -0.07350304513149863, 0};
Point(p15 + 12) = {25.25744564275919, -0.1225611901341719, 0};
Point(p15 + 13) = {25.06329393495781, -0.2029814606634055, 0};
Point(p15 + 14) = {24.88411305885437, -0.3127836427591941, 0};
Point(p15 + 15) = {24.72431504228579, -0.4492640422857894, 0};
Point(p15 + 16) = {24.58783464275919, -0.6090620588543694, 0};
Point(p15 + 17) = {24.47803246066341, -0.7882429349578046, 0};
Point(p15 + 18) = {24.39761219013417, -0.9823946427591941, 0};
Point(p15 + 19) = {24.3485540451315, -1.186736522859892, 0};
Point(p15 + 20) = {24.332066, -1.396237, 0};
Point(p15 + 21) = {24.3485540451315, -1.605737477140108, 0};
Point(p15 + 22) = {24.39761219013417, -1.810079357240806, 0};
Point(p15 + 23) = {24.47803246066341, -2.004231065042195, 0};
Point(p15 + 24) = {24.58783464275919, -2.18341194114563, 0};
Point(p15 + 25) = {24.72431504228579, -2.34320995771421, 0};
Point(p15 + 26) = {24.88411305885437, -2.479690357240806, 0};
Point(p15 + 27) = {25.06329393495781, -2.589492539336594, 0};
Point(p15 + 28) = {25.25744564275919, -2.669912809865828, 0};
Point(p15 + 29) = {25.46178752285989, -2.718970954868501, 0};
Point(p15 + 30) = {25.671288, -2.735459, 0};
Point(p15 + 31) = {25.88078847714011, -2.718970954868501, 0};
Point(p15 + 32) = {26.08513035724081, -2.669912809865828, 0};
Point(p15 + 33) = {26.2792820650422, -2.589492539336594, 0};
Point(p15 + 34) = {26.45846294114563, -2.479690357240806, 0};
Point(p15 + 35) = {26.61826095771421, -2.343209957714211, 0};
Point(p15 + 36) = {26.75474135724081, -2.18341194114563, 0};
Point(p15 + 37) = {26.86454353933659, -2.004231065042196, 0};
Point(p15 + 38) = {26.94496380986583, -1.810079357240806, 0};
Point(p15 + 39) = {26.9940219548685, -1.605737477140108, 0};
Spline(15) = {10, p15 + 1, p15 + 2, p15 + 3, p15 + 4, p15 + 5, p15 + 6, p15 + 7, p15 + 8, p15 + 9, p15 + 10, p15 + 11, p15 + 12, p15 + 13, p15 + 14, p15 + 15, p15 + 16, p15 + 17, p15 + 18, p15 + 19, p15 + 20, p15 + 21, p15 + 22, p15 + 23, p15 + 24, p15 + 25, p15 + 26, p15 + 27, p15 + 28, p15 + 29, p15 + 30, p15 + 31, p15 + 32, p15 + 33, p15 + 34, p15 + 35, p15 + 36, p15 + 37, p15 + 38, p15 + 39, 10};
p16 = newp;
Point(p16 + 1) = {27.35179655983471, 2.121624204877586, 0.1};
Point(p16 + 2) = {27.29999989291102, 2.337372849706288, 0.1};
Point(p16 + 3) = {27.21509040507187, 2.542362486821724, 0.1};
Point(p16 + 4) = {27.09915884970629, 2.731545591036511, 0.1};
Point(p16 + 5) = {26.95505984646215, 2.900263846462154, 0.1};
Point(p16 + 6) = {26.78634159103651, 3.044362849706288, 0.1};
Point(p16 + 7) = {26.59715848682172, 3.160294405071868, 0.1};
Point(p16 + 8) = {26.39216884970629, 3.245203892911021, 0.1};
Point(p16 + 9) = {26.17642020487758, 3.297000559834713, 0.1};
Point(p16 + 10) = {25.955225, 3.314409, 0.1};
Point(p16 + 11) = {25.73402979512241, 3.297000559834713, 0.1};
Point(p16 + 12) = {25.51828115029371, 3.245203892911021, 0.1};
Point(p16 + 13) = {25.31329151317827, 3.160294405071868, 0.1};
Point(p16 + 14) = {25.12410840896349, 3.044362849706288, 0.1};
Point(p16 + 15) = {24.95539015353785, 2.900263846462154, 0.1};
Point(p16 + 16) = {24.81129115029371, 2.731545591036511, 0.1};
Point(p16 + 17) = {24.69535959492813, 2.542362486821724, 0.1};
Point(p16 + 18) = {24.61045010708898, 2.337372849706288, 0.1};
Point(p16 + 19) = {24.55865344016529, 2.121624204877586, 0.1};
Point(p16 + 20) = {24.541245, 1.900429, 0.1};
Point(p16 + 21) = {24.55865344016529, 1.679233795122415, 0.1};
Point(p16 + 22) = {24.61045010708898, 1.463485150293711, 0.1};
Point(p16 + 23) = {24.69535959492813, 1.258495513178276, 0.1};
Point(p16 + 24) = {24.81129115029371, 1.069312408963489, 0.1};
Point(p16 + 25) = {24.95539015353785, 0.9005941535378456, 0.1};
Point(p16 + 26) = {25.12410840896349, 0.7564951502937118, 0.1};
Point(p16 + 27) = {25.31329151317827, 0.6405635949281316, 0.1};
Point(p16 + 28) = {25.51828115029371, 0.5556541070889787, 0.1};
Point(p16 + 29) = {25.73402979512241, 0.5038574401652871, 0.1};
Point(p16 + 30) = {25.955225, 0.4864489999999999, 0.1};
Point(p16 + 31) = {26.17642020487758, 0.5038574401652871, 0.1};
Point(p16 + 32) = {26.39216884970629, 0.5556541070889787, 0.1};
Point(p16 + 33) = {26.59715848682172, 0.6405635949281314, 0.1};
Point(p16 + 34) = {26.78634159103651, 0.7564951502937116, 0.1};
Point(p16 + 35) = {26.95505984646215, 0.9005941535378452, 0.1};
Point(p16 + 36) = {27.09915884970628, 1.069312408963488, 0.1};
Point(p16 + 37) = {27.21509040507187, 1.258495513178275, 0.1};
Point(p16 + 38) = {27.29999989291102, 1.463485150293712, 0.1};
Point(p16 + 39) = {27.35179655983471, 1.679233795122414, 0.1};
Spline(16) = {11, p16 + 1, p16 + 2, p16 + 3, p16 + 4, p16 + 5, p16 + 6, p16 + 7, p16 + 8, p16 + 9, p16 + 10, p16 + 11, p16 + 12, p16 + 13, p16 + 14, p16 + 15, p16 + 16, p16 + 17, p16 + 18, p16 + 19, p16 + 20, p16 + 21, p16 + 22, p16 + 23, p16 + 24, p16 + 25, p16 + 26, p16 + 27, p16 + 28, p16 + 29, p16 + 30, p16 + 31, p16 + 32, p16 + 33, p16 + 34, p16 + 35, p16 + 36, p16 + 37, p16 + 38, p16 + 39, 11};
Line(17) = {12, 11};
p18 = newp;
Point(p18 + 1) = {27.35179655983471, 2.121624204877586, 0};
Point(p18 + 2) = {27.29999989291102, 2.337372849706288, 0};
Point(p18 + 3) = {27.21509040507187, 2.542362486821724, 0};
Point(p18 + 4) = {27.09915884970629, 2.731545591036511, 0};
Point(p18 + 5) = {26.95505984646215, 2.900263846462154, 0};
Point(p18 + 6) = {26.78634159103651, 3.044362849706288, 0};
Point(p18 + 7) = {26.59715848682172, 3.160294405071868, 0};
Point(p18 + 8) = {26.39216884970629, 3.245203892911021, 0};
Point(p18 + 9) = {26.17642020487758, 3.297000559834713, 0};
Point(p18 + 10) = {25.955225, 3.314409, 0};
Point(p18 + 11) = {25.73402979512241, 3.297000559834713, 0};
Point(p18 + 12) = {25.51828115029371, 3.245203892911021, 0};
Point(p18 + 13) = {25.31329151317827, 3.160294405071868, 0};
Point(p18 + 14) = {25.12410840896349, 3.044362849706288, 0};
Point(p18 + 15) = {24.95539015353785, 2.900263846462154, 0};
Point(p18 + 16) = {24.81129115029371, 2.731545591036511, 0};
Point(p18 + 17) = {24.69535959492813, 2.542362486821724, 0};
Point(p18 + 18) = {24.61045010708898, 2.337372849706288, 0};
Point(p18 + 19) = {24.55865344016529, 2.121624204877586, 0};
Point(p18 + 20) = {24.541245, 1.900429, 0};
Point(p18 + 21) = {24.55865344016529, 1.679233795122415, 0};
Point(p18 + 22) = {24.61045010708898, 1.463485150293711, 0};
Point(p18 + 23) = {24.69535959492813, 1.258495513178276, 0};
Point(p18 + 24) = {24.81129115029371, 1.069312408963489, 0};
Point(p18 + 25) = {24.95539015353785, 0.9005941535378456, 0};
Point(p18 + 26) = {25.12410840896349, 0.7564951502937118, 0};
Point(p18 + 27) = {25.31329151317827, 0.6405635949281316, 0};
Point(p18 + 28) = {25.51828115029371, 0.5556541070889787, 0};
Point(p18 + 29) = {25.73402979512241, 0.5038574401652871, 0};
Point(p18 + 30) = {25.955225, 0.4864489999999999, 0};
Point(p18 + 31) = {26.17642020487758, 0.5038574401652871, 0};
Point(p18 + 32) = {26.39216884970629, 0.5556541070889787, 0};
Point(p18 + 33) = {26.59715848682172, 0.6405635949281314, 0};
Point(p18 + 34) = {26.78634159103651, 0.7564951502937116, 0};
Point(p18 + 35) = {26.95505984646215, 0.9005941535378452, 0};
Point(p18 + 36) = {27.09915884970628, 1.069312408963488, 0};
Point(p18 + 37) = {27.21509040507187, 1.258495513178275, 0};
Point(p18 + 38) = {27.29999989291102, 1.463485150293712, 0};
Point(p18 + 39) = {27.35179655983471, 1.679233795122414, 0};
Spline(18) = {12, p18 + 1, p18 + 2, p18 + 3, p18 + 4, p18 + 5, p18 + 6, p18 + 7, p18 + 8, p18 + 9, p18 + 10, p18 + 11, p18 + 12, p18 + 13, p18 + 14, p18 + 15, p18 + 16, p18 + 17, p18 + 18, p18 + 19, p18 + 20, p18 + 21, p18 + 22, p18 + 23, p18 + 24, p18 + 25, p18 + 26, p18 + 27, p18 + 28, p18 + 29, p18 + 30, p18 + 31, p18 + 32, p18 + 33, p18 + 34, p18 + 35, p18 + 36, p18 + 37, p18 + 38, p18 + 39, 12};
Line(19) = {14, 13};
Line(20) = {13, 15};
Line(21) = {16, 15};
Line(22) = {14, 16};
Line(23) = {14, 17};
Line(24) = {17, 18};
Line(25) = {13, 18};
Line(26) = {15, 19};
Line(27) = {18, 19};
Line(28) = {16, 20};
Line(29) = {20, 19};
Line(30) = {17, 20};
Curve Loop(7) = {-13, -14, 15, 14};
Surface(7) = {7};
Curve Loop(8) = {13};
Plane Surface(8) = {8};
Curve Loop(9) = {15};
Plane Surface(9) = {9};
Curve Loop(10) = {-16, -17, 18, 17};
Surface(10) = {10};
Curve Loop(11) = {16};
Plane Surface(11) = {11};
Curve Loop(12) = {18};
Plane Surface(12) = {12};
Curve Loop(13) = {-19, 22, 21, -20};
Plane Surface(13) = {13};
Curve Loop(14) = {-23, 19, 25, -24};
Plane Surface(14) = {14};
Curve Loop(15) = {-20, 25, 27, -26, -13, -16};
Plane Surface(15) = {15};
Curve Loop(16) = {-28, 21, 26, -29};
Plane Surface(16) = {16};
Curve Loop(17) = {-22, 23, 30, -28, -15, -18};
Plane Surface(17) = {17};
Curve Loop(18) = {-24, 30, 29, -27};
Plane Surface(18) = {18};
Surface Loop(1) = {13, 14, 15, 16, 17, 18, 7, 10};
Volume(1) = {1};
Surface Loop(2) = {7, 8, 9};
Volume(2) = {2};
Surface Loop(3) = {10, 11, 12};
Volume(3) = {3};
Physical Surface("WALLS") = {13, 18};
Physical Surface("LOAD") = {8, 11};
Physical Surface("BORDER") = {7, 9, 10, 12, 14, 15, 16, 17};
Physical Volume("SOLID") = {1, 2, 3};
