cl__1 = 0.141441;
cl__2 = 0.121025;
cl__3 = 0.236945;
cl__4 = 0.358994;
cl__5 = 4.990745;
cl__6 = 4.870985;
Point(9) = {4.917046, -0.8501900000000003, 0.1, cl__1};
Point(10) = {4.917046, -0.8501900000000003, 0, cl__1};
Point(11) = {17.625397, 0.5241079999999997, 0.1, cl__2};
Point(12) = {17.625397, 0.5241079999999997, 0, cl__2};
Point(13) = {0.986638, -4.629027, 1, cl__3};
Point(14) = {0.986638, -4.629027, 0, cl__3};
Point(15) = {0.986638, 4.761258000000001, 1, cl__4};
Point(16) = {0.986638, 4.761258000000001, 0, cl__4};
Point(17) = {39.600953, -4.629027, 0, cl__5};
Point(18) = {39.600953, -4.629027, 1, cl__5};
Point(19) = {39.600953, 4.761258000000001, 1, cl__6};
Point(20) = {39.600953, 4.761258000000001, 0, cl__6};
p13 = newp;
Point(p13 + 1) = {4.899632265821168, -0.628927528302447, 0.1};
Point(p13 + 2) = {4.847819847213028, -0.4131132729861307, 0.1};
Point(p13 + 3) = {4.76288453787727, -0.2080612972633877, 0.1};
Point(p13 + 4) = {4.64691772701387, -0.01882066130500315, 0.1};
Point(p13 + 5) = {4.502774902378064, 0.1499489023780645, 0.1};
Point(p13 + 6) = {4.334005338694997, 0.2940917270138692, 0.1};
Point(p13 + 7) = {4.144764702736612, 0.4100585378772692, 0.1};
Point(p13 + 8) = {3.939712727013869, 0.494993847213028, 0.1};
Point(p13 + 9) = {3.723898471697553, 0.5468062658211688, 0.1};
Point(p13 + 10) = {3.502636, 0.5642199999999999, 0.1};
Point(p13 + 11) = {3.281373528302447, 0.5468062658211685, 0.1};
Point(p13 + 12) = {3.065559272986131, 0.4949938472130282, 0.1};
Point(p13 + 13) = {2.860507297263387, 0.4100585378772694, 0.1};
Point(p13 + 14) = {2.671266661305003, 0.2940917270138694, 0.1};
Point(p13 + 15) = {2.502497097621935, 0.1499489023780647, 0.1};
Point(p13 + 16) = {2.358354272986131, -0.01882066130500293, 0.1};
Point(p13 + 17) = {2.242387462122731, -0.2080612972633875, 0.1};
Point(p13 + 18) = {2.157452152786972, -0.4131132729861305, 0.1};
Point(p13 + 19) = {2.105639734178832, -0.6289275283024469, 0.1};
Point(p13 + 20) = {2.088226, -0.8501899999999998, 0.1};
Point(p13 + 21) = {2.105639734178831, -1.071452471697553, 0.1};
Point(p13 + 22) = {2.157452152786972, -1.28726672701387, 0.1};
Point(p13 + 23) = {2.24238746212273, -1.492318702736612, 0.1};
Point(p13 + 24) = {2.35835427298613, -1.681559338694997, 0.1};
Point(p13 + 25) = {2.502497097621935, -1.850328902378064, 0.1};
Point(p13 + 26) = {2.671266661305003, -1.994471727013869, 0.1};
Point(p13 + 27) = {2.860507297263387, -2.110438537877269, 0.1};
Point(p13 + 28) = {3.06555927298613, -2.195373847213028, 0.1};
Point(p13 + 29) = {3.281373528302447, -2.247186265821169, 0.1};
Point(p13 + 30) = {3.502635999999999, -2.2646, 0.1};
Point(p13 + 31) = {3.723898471697553, -2.247186265821169, 0.1};
Point(p13 + 32) = {3.939712727013869, -2.195373847213028, 0.1};
Point(p13 + 33) = {4.144764702736612, -2.11043853787727, 0.1};
Point(p13 + 34) = {4.334005338694997, -1.994471727013869, 0.1};
Point(p13 + 35) = {4.502774902378064, -1.850328902378065, 0.1};
Point(p13 + 36) = {4.646917727013869, -1.681559338694997, 0.1};
Point(p13 + 37) = {4.76288453787727, -1.492318702736612, 0.1};
Point(p13 + 38) = {4.847819847213028, -1.28726672701387, 0.1};
Point(p13 + 39) = {4.899632265821168, -1.071452471697553, 0.1};
Spline(13) = {9, p13 + 1, p13 + 2, p13 + 3, p13 + 4, p13 + 5, p13 + 6, p13 + 7, p13 + 8, p13 + 9, p13 + 10, p13 + 11, p13 + 12, p13 + 13, p13 + 14, p13 + 15, p13 + 16, p13 + 17, p13 + 18, p13 + 19, p13 + 20, p13 + 21, p13 + 22, p13 + 23, p13 + 24, p13 + 25, p13 + 26, p13 + 27, p13 + 28, p13 + 29, p13 + 30, p13 + 31, p13 + 32, p13 + 33, p13 + 34, p13 + 35, p13 + 36, p13 + 37, p13 + 38, p13 + 39, 9};
Line(14) = {10, 9};
p15 = newp;
Point(p15 + 1) = {4.899632265821168, -0.628927528302447, 0};
Point(p15 + 2) = {4.847819847213028, -0.4131132729861307, 0};
Point(p15 + 3) = {4.76288453787727, -0.2080612972633877, 0};
Point(p15 + 4) = {4.64691772701387, -0.01882066130500315, 0};
Point(p15 + 5) = {4.502774902378064, 0.1499489023780645, 0};
Point(p15 + 6) = {4.334005338694997, 0.2940917270138692, 0};
Point(p15 + 7) = {4.144764702736612, 0.4100585378772692, 0};
Point(p15 + 8) = {3.939712727013869, 0.494993847213028, 0};
Point(p15 + 9) = {3.723898471697553, 0.5468062658211688, 0};
Point(p15 + 10) = {3.502636, 0.5642199999999999, 0};
Point(p15 + 11) = {3.281373528302447, 0.5468062658211685, 0};
Point(p15 + 12) = {3.065559272986131, 0.4949938472130282, 0};
Point(p15 + 13) = {2.860507297263387, 0.4100585378772694, 0};
Point(p15 + 14) = {2.671266661305003, 0.2940917270138694, 0};
Point(p15 + 15) = {2.502497097621935, 0.1499489023780647, 0};
Point(p15 + 16) = {2.358354272986131, -0.01882066130500293, 0};
Point(p15 + 17) = {2.242387462122731, -0.2080612972633875, 0};
Point(p15 + 18) = {2.157452152786972, -0.4131132729861305, 0};
Point(p15 + 19) = {2.105639734178832, -0.6289275283024469, 0};
Point(p15 + 20) = {2.088226, -0.8501899999999998, 0};
Point(p15 + 21) = {2.105639734178831, -1.071452471697553, 0};
Point(p15 + 22) = {2.157452152786972, -1.28726672701387, 0};
Point(p15 + 23) = {2.24238746212273, -1.492318702736612, 0};
Point(p15 + 24) = {2.35835427298613, -1.681559338694997, 0};
Point(p15 + 25) = {2.502497097621935, -1.850328902378064, 0};
Point(p15 + 26) = {2.671266661305003, -1.994471727013869, 0};
Point(p15 + 27) = {2.860507297263387, -2.110438537877269, 0};
Point(p15 + 28) = {3.06555927298613, -2.195373847213028, 0};
Point(p15 + 29) = {3.281373528302447, -2.247186265821169, 0};
Point(p15 + 30) = {3.502635999999999, -2.2646, 0};
Point(p15 + 31) = {3.723898471697553, -2.247186265821169, 0};
Point(p15 + 32) = {3.939712727013869, -2.195373847213028, 0};
Point(p15 + 33) = {4.144764702736612, -2.11043853787727, 0};
Point(p15 + 34) = {4.334005338694997, -1.994471727013869, 0};
Point(p15 + 35) = {4.502774902378064, -1.850328902378065, 0};
Point(p15 + 36) = {4.646917727013869, -1.681559338694997, 0};
Point(p15 + 37) = {4.76288453787727, -1.492318702736612, 0};
Point(p15 + 38) = {4.847819847213028, -1.28726672701387, 0};
Point(p15 + 39) = {4.899632265821168, -1.071452471697553, 0};
Spline(15) = {10, p15 + 1, p15 + 2, p15 + 3, p15 + 4, p15 + 5, p15 + 6, p15 + 7, p15 + 8, p15 + 9, p15 + 10, p15 + 11, p15 + 12, p15 + 13, p15 + 14, p15 + 15, p15 + 16, p15 + 17, p15 + 18, p15 + 19, p15 + 20, p15 + 21, p15 + 22, p15 + 23, p15 + 24, p15 + 25, p15 + 26, p15 + 27, p15 + 28, p15 + 29, p15 + 30, p15 + 31, p15 + 32, p15 + 33, p15 + 34, p15 + 35, p15 + 36, p15 + 37, p15 + 38, p15 + 39, 10};
p16 = newp;
Point(p16 + 1) = {17.61049685114024, 0.7134323420115443, 0.1};
Point(p16 + 2) = {17.56616329567666, 0.8980948903912971, 0.1};
Point(p16 + 3) = {17.4934879728794, 1.073548640338287, 0.1};
Point(p16 + 4) = {17.3942603903913, 1.235473338231209, 0.1};
Point(p16 + 5) = {17.27092386061068, 1.379881860610676, 0.1};
Point(p16 + 6) = {17.12651533823121, 1.503218390391297, 0.1};
Point(p16 + 7) = {16.96459064033829, 1.6024459728794, 0.1};
Point(p16 + 8) = {16.7891368903913, 1.675121295676661, 0.1};
Point(p16 + 9) = {16.60447434201155, 1.719454851140244, 0.1};
Point(p16 + 10) = {16.41515, 1.734355, 0.1};
Point(p16 + 11) = {16.22582565798846, 1.719454851140244, 0.1};
Point(p16 + 12) = {16.0411631096087, 1.675121295676661, 0.1};
Point(p16 + 13) = {15.86570935966171, 1.6024459728794, 0.1};
Point(p16 + 14) = {15.70378466176879, 1.503218390391297, 0.1};
Point(p16 + 15) = {15.55937613938933, 1.379881860610676, 0.1};
Point(p16 + 16) = {15.4360396096087, 1.235473338231209, 0.1};
Point(p16 + 17) = {15.3368120271206, 1.073548640338287, 0.1};
Point(p16 + 18) = {15.26413670432334, 0.8980948903912971, 0.1};
Point(p16 + 19) = {15.21980314885976, 0.7134323420115445, 0.1};
Point(p16 + 20) = {15.204903, 0.5241080000000001, 0.1};
Point(p16 + 21) = {15.21980314885976, 0.3347836579884559, 0.1};
Point(p16 + 22) = {15.26413670432334, 0.1501211096087026, 0.1};
Point(p16 + 23) = {15.3368120271206, -0.02533264033828675, 0.1};
Point(p16 + 24) = {15.4360396096087, -0.1872573382312086, 0.1};
Point(p16 + 25) = {15.55937613938933, -0.3316658606106755, 0.1};
Point(p16 + 26) = {15.70378466176879, -0.455002390391297, 0.1};
Point(p16 + 27) = {15.86570935966171, -0.5542299728793996, 0.1};
Point(p16 + 28) = {16.0411631096087, -0.6269052956766608, 0.1};
Point(p16 + 29) = {16.22582565798846, -0.6712388511402436, 0.1};
Point(p16 + 30) = {16.41515, -0.6861390000000001, 0.1};
Point(p16 + 31) = {16.60447434201155, -0.6712388511402438, 0.1};
Point(p16 + 32) = {16.7891368903913, -0.6269052956766608, 0.1};
Point(p16 + 33) = {16.96459064033829, -0.5542299728793998, 0.1};
Point(p16 + 34) = {17.12651533823121, -0.4550023903912972, 0.1};
Point(p16 + 35) = {17.27092386061068, -0.3316658606106758, 0.1};
Point(p16 + 36) = {17.3942603903913, -0.1872573382312089, 0.1};
Point(p16 + 37) = {17.4934879728794, -0.02533264033828753, 0.1};
Point(p16 + 38) = {17.56616329567666, 0.1501211096087028, 0.1};
Point(p16 + 39) = {17.61049685114024, 0.3347836579884554, 0.1};
Spline(16) = {11, p16 + 1, p16 + 2, p16 + 3, p16 + 4, p16 + 5, p16 + 6, p16 + 7, p16 + 8, p16 + 9, p16 + 10, p16 + 11, p16 + 12, p16 + 13, p16 + 14, p16 + 15, p16 + 16, p16 + 17, p16 + 18, p16 + 19, p16 + 20, p16 + 21, p16 + 22, p16 + 23, p16 + 24, p16 + 25, p16 + 26, p16 + 27, p16 + 28, p16 + 29, p16 + 30, p16 + 31, p16 + 32, p16 + 33, p16 + 34, p16 + 35, p16 + 36, p16 + 37, p16 + 38, p16 + 39, 11};
Line(17) = {12, 11};
p18 = newp;
Point(p18 + 1) = {17.61049685114024, 0.7134323420115443, 0};
Point(p18 + 2) = {17.56616329567666, 0.8980948903912971, 0};
Point(p18 + 3) = {17.4934879728794, 1.073548640338287, 0};
Point(p18 + 4) = {17.3942603903913, 1.235473338231209, 0};
Point(p18 + 5) = {17.27092386061068, 1.379881860610676, 0};
Point(p18 + 6) = {17.12651533823121, 1.503218390391297, 0};
Point(p18 + 7) = {16.96459064033829, 1.6024459728794, 0};
Point(p18 + 8) = {16.7891368903913, 1.675121295676661, 0};
Point(p18 + 9) = {16.60447434201155, 1.719454851140244, 0};
Point(p18 + 10) = {16.41515, 1.734355, 0};
Point(p18 + 11) = {16.22582565798846, 1.719454851140244, 0};
Point(p18 + 12) = {16.0411631096087, 1.675121295676661, 0};
Point(p18 + 13) = {15.86570935966171, 1.6024459728794, 0};
Point(p18 + 14) = {15.70378466176879, 1.503218390391297, 0};
Point(p18 + 15) = {15.55937613938933, 1.379881860610676, 0};
Point(p18 + 16) = {15.4360396096087, 1.235473338231209, 0};
Point(p18 + 17) = {15.3368120271206, 1.073548640338287, 0};
Point(p18 + 18) = {15.26413670432334, 0.8980948903912971, 0};
Point(p18 + 19) = {15.21980314885976, 0.7134323420115445, 0};
Point(p18 + 20) = {15.204903, 0.5241080000000001, 0};
Point(p18 + 21) = {15.21980314885976, 0.3347836579884559, 0};
Point(p18 + 22) = {15.26413670432334, 0.1501211096087026, 0};
Point(p18 + 23) = {15.3368120271206, -0.02533264033828675, 0};
Point(p18 + 24) = {15.4360396096087, -0.1872573382312086, 0};
Point(p18 + 25) = {15.55937613938933, -0.3316658606106755, 0};
Point(p18 + 26) = {15.70378466176879, -0.455002390391297, 0};
Point(p18 + 27) = {15.86570935966171, -0.5542299728793996, 0};
Point(p18 + 28) = {16.0411631096087, -0.6269052956766608, 0};
Point(p18 + 29) = {16.22582565798846, -0.6712388511402436, 0};
Point(p18 + 30) = {16.41515, -0.6861390000000001, 0};
Point(p18 + 31) = {16.60447434201155, -0.6712388511402438, 0};
Point(p18 + 32) = {16.7891368903913, -0.6269052956766608, 0};
Point(p18 + 33) = {16.96459064033829, -0.5542299728793998, 0};
Point(p18 + 34) = {17.12651533823121, -0.4550023903912972, 0};
Point(p18 + 35) = {17.27092386061068, -0.3316658606106758, 0};
Point(p18 + 36) = {17.3942603903913, -0.1872573382312089, 0};
Point(p18 + 37) = {17.4934879728794, -0.02533264033828753, 0};
Point(p18 + 38) = {17.56616329567666, 0.1501211096087028, 0};
Point(p18 + 39) = {17.61049685114024, 0.3347836579884554, 0};
Spline(18) = {12, p18 + 1, p18 + 2, p18 + 3, p18 + 4, p18 + 5, p18 + 6, p18 + 7, p18 + 8, p18 + 9, p18 + 10, p18 + 11, p18 + 12, p18 + 13, p18 + 14, p18 + 15, p18 + 16, p18 + 17, p18 + 18, p18 + 19, p18 + 20, p18 + 21, p18 + 22, p18 + 23, p18 + 24, p18 + 25, p18 + 26, p18 + 27, p18 + 28, p18 + 29, p18 + 30, p18 + 31, p18 + 32, p18 + 33, p18 + 34, p18 + 35, p18 + 36, p18 + 37, p18 + 38, p18 + 39, 12};
Line(19) = {14, 13};
Line(20) = {13, 15};
Line(21) = {16, 15};
Line(22) = {14, 16};
Line(23) = {14, 17};
Line(24) = {17, 18};
Line(25) = {13, 18};
Line(26) = {15, 19};
Line(27) = {18, 19};
Line(28) = {16, 20};
Line(29) = {20, 19};
Line(30) = {17, 20};
Curve Loop(7) = {-13, -14, 15, 14};
Surface(7) = {7};
Curve Loop(8) = {13};
Plane Surface(8) = {8};
Curve Loop(9) = {15};
Plane Surface(9) = {9};
Curve Loop(10) = {-16, -17, 18, 17};
Surface(10) = {10};
Curve Loop(11) = {16};
Plane Surface(11) = {11};
Curve Loop(12) = {18};
Plane Surface(12) = {12};
Curve Loop(13) = {-19, 22, 21, -20};
Plane Surface(13) = {13};
Curve Loop(14) = {-23, 19, 25, -24};
Plane Surface(14) = {14};
Curve Loop(15) = {-20, 25, 27, -26};
Plane Surface(15) = {15};
Curve Loop(16) = {-28, 21, 26, -29};
Plane Surface(16) = {16};
Curve Loop(17) = {-22, 23, 30, -28, -15, -18};
Plane Surface(17) = {17};
Curve Loop(18) = {-24, 30, 29, -27};
Plane Surface(18) = {18};
Surface Loop(1) = {13, 14, 15, 16, 17, 18, 7, 10, 8, 11};
Volume(1) = {1};
Surface Loop(2) = {7, 8, 9};
Volume(2) = {2};
Surface Loop(3) = {10, 11, 12};
Volume(3) = {3};
Physical Surface("WALLS") = {13, 18};
Physical Surface("LOAD") = {8, 11};
Physical Surface("BORDER") = {7, 9, 10, 12, 14, 15, 16, 17};
Physical Volume("SOLID") = {1, 2, 3};
