cl__1 = 0.053775;
cl__2 = 0.06310499999999999;
cl__3 = 2.3427;
cl__4 = 1.742208;
cl__5 = 0.890823;
cl__6 = 0.577773;
Point(9) = {33.505507, 3.34405, 0.1, cl__1};
Point(10) = {33.505507, 3.34405, 0, cl__1};
Point(11) = {13.925389, 2.321051, 0.1, cl__2};
Point(12) = {13.925389, 2.321051, 0, cl__2};
Point(13) = {0.180263, -4.143646, 1, cl__3};
Point(14) = {0.180263, -4.143646, 0, cl__3};
Point(15) = {0.180263, 4.572030999999999, 1, cl__4};
Point(16) = {0.180263, 4.572030999999999, 0, cl__4};
Point(17) = {39.47668299999999, -4.143646, 0, cl__5};
Point(18) = {39.47668299999999, -4.143646, 1, cl__5};
Point(19) = {39.47668299999999, 4.572030999999999, 1, cl__6};
Point(20) = {39.47668299999999, 4.572030999999999, 0, cl__6};
p13 = newp;
Point(p13 + 1) = {33.49888644209001, 3.428172164271989, 0.1};
Point(p13 + 2) = {33.47918778846817, 3.510222961674145, 0.1};
Point(p13 + 3) = {33.44689608536272, 3.588182029263442, 0.1};
Point(p13 + 4) = {33.40280646167415, 3.660129756064521, 0.1};
Point(p13 + 5) = {33.34800455026272, 3.724294550262722, 0.1};
Point(p13 + 6) = {33.28383975606452, 3.779096461674145, 0.1};
Point(p13 + 7) = {33.21189202926344, 3.823186085362722, 0.1};
Point(p13 + 8) = {33.13393296167414, 3.85547778846817, 0.1};
Point(p13 + 9) = {33.05188216427199, 3.875176442090014, 0.1};
Point(p13 + 10) = {32.96776, 3.881797, 0.1};
Point(p13 + 11) = {32.88363783572801, 3.875176442090014, 0.1};
Point(p13 + 12) = {32.80158703832586, 3.85547778846817, 0.1};
Point(p13 + 13) = {32.72362797073656, 3.823186085362722, 0.1};
Point(p13 + 14) = {32.65168024393548, 3.779096461674145, 0.1};
Point(p13 + 15) = {32.58751544973727, 3.724294550262722, 0.1};
Point(p13 + 16) = {32.53271353832585, 3.660129756064521, 0.1};
Point(p13 + 17) = {32.48862391463727, 3.588182029263442, 0.1};
Point(p13 + 18) = {32.45633221153183, 3.510222961674145, 0.1};
Point(p13 + 19) = {32.43663355790999, 3.428172164271989, 0.1};
Point(p13 + 20) = {32.430013, 3.34405, 0.1};
Point(p13 + 21) = {32.43663355790999, 3.259927835728011, 0.1};
Point(p13 + 22) = {32.45633221153183, 3.177877038325855, 0.1};
Point(p13 + 23) = {32.48862391463727, 3.099917970736558, 0.1};
Point(p13 + 24) = {32.53271353832585, 3.02797024393548, 0.1};
Point(p13 + 25) = {32.58751544973727, 2.963805449737278, 0.1};
Point(p13 + 26) = {32.65168024393548, 2.909003538325855, 0.1};
Point(p13 + 27) = {32.72362797073656, 2.864913914637278, 0.1};
Point(p13 + 28) = {32.80158703832586, 2.83262221153183, 0.1};
Point(p13 + 29) = {32.88363783572801, 2.812923557909987, 0.1};
Point(p13 + 30) = {32.96776, 2.806303, 0.1};
Point(p13 + 31) = {33.05188216427199, 2.812923557909987, 0.1};
Point(p13 + 32) = {33.13393296167414, 2.83262221153183, 0.1};
Point(p13 + 33) = {33.21189202926344, 2.864913914637278, 0.1};
Point(p13 + 34) = {33.28383975606452, 2.909003538325855, 0.1};
Point(p13 + 35) = {33.34800455026272, 2.963805449737278, 0.1};
Point(p13 + 36) = {33.40280646167415, 3.02797024393548, 0.1};
Point(p13 + 37) = {33.44689608536272, 3.099917970736558, 0.1};
Point(p13 + 38) = {33.47918778846817, 3.177877038325855, 0.1};
Point(p13 + 39) = {33.49888644209001, 3.259927835728011, 0.1};
Spline(13) = {9, p13 + 1, p13 + 2, p13 + 3, p13 + 4, p13 + 5, p13 + 6, p13 + 7, p13 + 8, p13 + 9, p13 + 10, p13 + 11, p13 + 12, p13 + 13, p13 + 14, p13 + 15, p13 + 16, p13 + 17, p13 + 18, p13 + 19, p13 + 20, p13 + 21, p13 + 22, p13 + 23, p13 + 24, p13 + 25, p13 + 26, p13 + 27, p13 + 28, p13 + 29, p13 + 30, p13 + 31, p13 + 32, p13 + 33, p13 + 34, p13 + 35, p13 + 36, p13 + 37, p13 + 38, p13 + 39, 9};
Line(14) = {10, 9};
p15 = newp;
Point(p15 + 1) = {33.49888644209001, 3.428172164271989, 0};
Point(p15 + 2) = {33.47918778846817, 3.510222961674145, 0};
Point(p15 + 3) = {33.44689608536272, 3.588182029263442, 0};
Point(p15 + 4) = {33.40280646167415, 3.660129756064521, 0};
Point(p15 + 5) = {33.34800455026272, 3.724294550262722, 0};
Point(p15 + 6) = {33.28383975606452, 3.779096461674145, 0};
Point(p15 + 7) = {33.21189202926344, 3.823186085362722, 0};
Point(p15 + 8) = {33.13393296167414, 3.85547778846817, 0};
Point(p15 + 9) = {33.05188216427199, 3.875176442090014, 0};
Point(p15 + 10) = {32.96776, 3.881797, 0};
Point(p15 + 11) = {32.88363783572801, 3.875176442090014, 0};
Point(p15 + 12) = {32.80158703832586, 3.85547778846817, 0};
Point(p15 + 13) = {32.72362797073656, 3.823186085362722, 0};
Point(p15 + 14) = {32.65168024393548, 3.779096461674145, 0};
Point(p15 + 15) = {32.58751544973727, 3.724294550262722, 0};
Point(p15 + 16) = {32.53271353832585, 3.660129756064521, 0};
Point(p15 + 17) = {32.48862391463727, 3.588182029263442, 0};
Point(p15 + 18) = {32.45633221153183, 3.510222961674145, 0};
Point(p15 + 19) = {32.43663355790999, 3.428172164271989, 0};
Point(p15 + 20) = {32.430013, 3.34405, 0};
Point(p15 + 21) = {32.43663355790999, 3.259927835728011, 0};
Point(p15 + 22) = {32.45633221153183, 3.177877038325855, 0};
Point(p15 + 23) = {32.48862391463727, 3.099917970736558, 0};
Point(p15 + 24) = {32.53271353832585, 3.02797024393548, 0};
Point(p15 + 25) = {32.58751544973727, 2.963805449737278, 0};
Point(p15 + 26) = {32.65168024393548, 2.909003538325855, 0};
Point(p15 + 27) = {32.72362797073656, 2.864913914637278, 0};
Point(p15 + 28) = {32.80158703832586, 2.83262221153183, 0};
Point(p15 + 29) = {32.88363783572801, 2.812923557909987, 0};
Point(p15 + 30) = {32.96776, 2.806303, 0};
Point(p15 + 31) = {33.05188216427199, 2.812923557909987, 0};
Point(p15 + 32) = {33.13393296167414, 2.83262221153183, 0};
Point(p15 + 33) = {33.21189202926344, 2.864913914637278, 0};
Point(p15 + 34) = {33.28383975606452, 2.909003538325855, 0};
Point(p15 + 35) = {33.34800455026272, 2.963805449737278, 0};
Point(p15 + 36) = {33.40280646167415, 3.02797024393548, 0};
Point(p15 + 37) = {33.44689608536272, 3.099917970736558, 0};
Point(p15 + 38) = {33.47918778846817, 3.177877038325855, 0};
Point(p15 + 39) = {33.49888644209001, 3.259927835728011, 0};
Spline(15) = {10, p15 + 1, p15 + 2, p15 + 3, p15 + 4, p15 + 5, p15 + 6, p15 + 7, p15 + 8, p15 + 9, p15 + 10, p15 + 11, p15 + 12, p15 + 13, p15 + 14, p15 + 15, p15 + 16, p15 + 17, p15 + 18, p15 + 19, p15 + 20, p15 + 21, p15 + 22, p15 + 23, p15 + 24, p15 + 25, p15 + 26, p15 + 27, p15 + 28, p15 + 29, p15 + 30, p15 + 31, p15 + 32, p15 + 33, p15 + 34, p15 + 35, p15 + 36, p15 + 37, p15 + 38, p15 + 39, 10};
p16 = newp;
Point(p16 + 1) = {13.91761973964422, 2.419768812729173, 0.1};
Point(p16 + 2) = {13.89450326355154, 2.516055865283316, 0.1};
Point(p16 + 3) = {13.85660877608255, 2.607541250870141, 0.1};
Point(p16 + 4) = {13.80486936528332, 2.691972295673913, 0.1};
Point(p16 + 5) = {13.74055902716099, 2.76727002716099, 0.1};
Point(p16 + 6) = {13.66526129567391, 2.831580365283316, 0.1};
Point(p16 + 7) = {13.58083025087014, 2.883319776082546, 0.1};
Point(p16 + 8) = {13.48934486528332, 2.921214263551541, 0.1};
Point(p16 + 9) = {13.39305781272917, 2.944330739644221, 0.1};
Point(p16 + 10) = {13.29434, 2.9521, 0.1};
Point(p16 + 11) = {13.19562218727083, 2.944330739644221, 0.1};
Point(p16 + 12) = {13.09933513471668, 2.921214263551541, 0.1};
Point(p16 + 13) = {13.00784974912986, 2.883319776082546, 0.1};
Point(p16 + 14) = {12.92341870432609, 2.831580365283316, 0.1};
Point(p16 + 15) = {12.84812097283901, 2.76727002716099, 0.1};
Point(p16 + 16) = {12.78381063471668, 2.691972295673913, 0.1};
Point(p16 + 17) = {12.73207122391745, 2.607541250870141, 0.1};
Point(p16 + 18) = {12.69417673644846, 2.516055865283316, 0.1};
Point(p16 + 19) = {12.67106026035578, 2.419768812729173, 0.1};
Point(p16 + 20) = {12.663291, 2.321051, 0.1};
Point(p16 + 21) = {12.67106026035578, 2.222333187270828, 0.1};
Point(p16 + 22) = {12.69417673644846, 2.126046134716684, 0.1};
Point(p16 + 23) = {12.73207122391745, 2.034560749129859, 0.1};
Point(p16 + 24) = {12.78381063471668, 1.950129704326087, 0.1};
Point(p16 + 25) = {12.84812097283901, 1.874831972839011, 0.1};
Point(p16 + 26) = {12.92341870432609, 1.810521634716684, 0.1};
Point(p16 + 27) = {13.00784974912986, 1.758782223917455, 0.1};
Point(p16 + 28) = {13.09933513471668, 1.72088773644846, 0.1};
Point(p16 + 29) = {13.19562218727083, 1.697771260355779, 0.1};
Point(p16 + 30) = {13.29434, 1.690002, 0.1};
Point(p16 + 31) = {13.39305781272917, 1.697771260355779, 0.1};
Point(p16 + 32) = {13.48934486528332, 1.72088773644846, 0.1};
Point(p16 + 33) = {13.58083025087014, 1.758782223917455, 0.1};
Point(p16 + 34) = {13.66526129567391, 1.810521634716684, 0.1};
Point(p16 + 35) = {13.74055902716099, 1.874831972839011, 0.1};
Point(p16 + 36) = {13.80486936528332, 1.950129704326087, 0.1};
Point(p16 + 37) = {13.85660877608255, 2.034560749129859, 0.1};
Point(p16 + 38) = {13.89450326355154, 2.126046134716684, 0.1};
Point(p16 + 39) = {13.91761973964422, 2.222333187270827, 0.1};
Spline(16) = {11, p16 + 1, p16 + 2, p16 + 3, p16 + 4, p16 + 5, p16 + 6, p16 + 7, p16 + 8, p16 + 9, p16 + 10, p16 + 11, p16 + 12, p16 + 13, p16 + 14, p16 + 15, p16 + 16, p16 + 17, p16 + 18, p16 + 19, p16 + 20, p16 + 21, p16 + 22, p16 + 23, p16 + 24, p16 + 25, p16 + 26, p16 + 27, p16 + 28, p16 + 29, p16 + 30, p16 + 31, p16 + 32, p16 + 33, p16 + 34, p16 + 35, p16 + 36, p16 + 37, p16 + 38, p16 + 39, 11};
Line(17) = {12, 11};
p18 = newp;
Point(p18 + 1) = {13.91761973964422, 2.419768812729173, 0};
Point(p18 + 2) = {13.89450326355154, 2.516055865283316, 0};
Point(p18 + 3) = {13.85660877608255, 2.607541250870141, 0};
Point(p18 + 4) = {13.80486936528332, 2.691972295673913, 0};
Point(p18 + 5) = {13.74055902716099, 2.76727002716099, 0};
Point(p18 + 6) = {13.66526129567391, 2.831580365283316, 0};
Point(p18 + 7) = {13.58083025087014, 2.883319776082546, 0};
Point(p18 + 8) = {13.48934486528332, 2.921214263551541, 0};
Point(p18 + 9) = {13.39305781272917, 2.944330739644221, 0};
Point(p18 + 10) = {13.29434, 2.9521, 0};
Point(p18 + 11) = {13.19562218727083, 2.944330739644221, 0};
Point(p18 + 12) = {13.09933513471668, 2.921214263551541, 0};
Point(p18 + 13) = {13.00784974912986, 2.883319776082546, 0};
Point(p18 + 14) = {12.92341870432609, 2.831580365283316, 0};
Point(p18 + 15) = {12.84812097283901, 2.76727002716099, 0};
Point(p18 + 16) = {12.78381063471668, 2.691972295673913, 0};
Point(p18 + 17) = {12.73207122391745, 2.607541250870141, 0};
Point(p18 + 18) = {12.69417673644846, 2.516055865283316, 0};
Point(p18 + 19) = {12.67106026035578, 2.419768812729173, 0};
Point(p18 + 20) = {12.663291, 2.321051, 0};
Point(p18 + 21) = {12.67106026035578, 2.222333187270828, 0};
Point(p18 + 22) = {12.69417673644846, 2.126046134716684, 0};
Point(p18 + 23) = {12.73207122391745, 2.034560749129859, 0};
Point(p18 + 24) = {12.78381063471668, 1.950129704326087, 0};
Point(p18 + 25) = {12.84812097283901, 1.874831972839011, 0};
Point(p18 + 26) = {12.92341870432609, 1.810521634716684, 0};
Point(p18 + 27) = {13.00784974912986, 1.758782223917455, 0};
Point(p18 + 28) = {13.09933513471668, 1.72088773644846, 0};
Point(p18 + 29) = {13.19562218727083, 1.697771260355779, 0};
Point(p18 + 30) = {13.29434, 1.690002, 0};
Point(p18 + 31) = {13.39305781272917, 1.697771260355779, 0};
Point(p18 + 32) = {13.48934486528332, 1.72088773644846, 0};
Point(p18 + 33) = {13.58083025087014, 1.758782223917455, 0};
Point(p18 + 34) = {13.66526129567391, 1.810521634716684, 0};
Point(p18 + 35) = {13.74055902716099, 1.874831972839011, 0};
Point(p18 + 36) = {13.80486936528332, 1.950129704326087, 0};
Point(p18 + 37) = {13.85660877608255, 2.034560749129859, 0};
Point(p18 + 38) = {13.89450326355154, 2.126046134716684, 0};
Point(p18 + 39) = {13.91761973964422, 2.222333187270827, 0};
Spline(18) = {12, p18 + 1, p18 + 2, p18 + 3, p18 + 4, p18 + 5, p18 + 6, p18 + 7, p18 + 8, p18 + 9, p18 + 10, p18 + 11, p18 + 12, p18 + 13, p18 + 14, p18 + 15, p18 + 16, p18 + 17, p18 + 18, p18 + 19, p18 + 20, p18 + 21, p18 + 22, p18 + 23, p18 + 24, p18 + 25, p18 + 26, p18 + 27, p18 + 28, p18 + 29, p18 + 30, p18 + 31, p18 + 32, p18 + 33, p18 + 34, p18 + 35, p18 + 36, p18 + 37, p18 + 38, p18 + 39, 12};
Line(19) = {14, 13};
Line(20) = {13, 15};
Line(21) = {16, 15};
Line(22) = {14, 16};
Line(23) = {14, 17};
Line(24) = {17, 18};
Line(25) = {13, 18};
Line(26) = {15, 19};
Line(27) = {18, 19};
Line(28) = {16, 20};
Line(29) = {20, 19};
Line(30) = {17, 20};
Curve Loop(7) = {-13, -14, 15, 14};
Surface(7) = {7};
Curve Loop(8) = {13};
Plane Surface(8) = {8};
Curve Loop(9) = {15};
Plane Surface(9) = {9};
Curve Loop(10) = {-16, -17, 18, 17};
Surface(10) = {10};
Curve Loop(11) = {16};
Plane Surface(11) = {11};
Curve Loop(12) = {18};
Plane Surface(12) = {12};
Curve Loop(13) = {-19, 22, 21, -20};
Plane Surface(13) = {13};
Curve Loop(14) = {-23, 19, 25, -24};
Plane Surface(14) = {14};
Curve Loop(15) = {-20, 25, 27, -26};
Plane Surface(15) = {15};
Curve Loop(16) = {-28, 21, 26, -29};
Plane Surface(16) = {16};
Curve Loop(17) = {-22, 23, 30, -28, -18, -15};
Plane Surface(17) = {17};
Curve Loop(18) = {-24, 30, 29, -27};
Plane Surface(18) = {18};
Surface Loop(1) = {13, 14, 15, 16, 17, 18, 10, 7, 11, 8};
Volume(1) = {1};
Surface Loop(2) = {7, 8, 9};
Volume(2) = {2};
Surface Loop(3) = {10, 11, 12};
Volume(3) = {3};
Physical Surface("WALLS") = {13, 18};
Physical Surface("LOAD") = {8, 11};
Physical Surface("BORDER") = {7, 9, 10, 12, 14, 15, 16, 17};
Physical Volume("SOLID") = {1, 2, 3};
