cl__1 = 0.08248999999999999;
cl__2 = 0.090487;
cl__3 = 2.728465;
cl__4 = 3.500368;
cl__5 = 0.532406;
cl__6 = 0.551894;
Point(9) = {34.87794700000001, -0.1002100000000002, 0.1, cl__1};
Point(10) = {34.87794700000001, -0.1002100000000002, 0, cl__1};
Point(11) = {18.873129, -2.523063, 0.1, cl__2};
Point(12) = {18.873129, -2.523063, 0, cl__2};
Point(13) = {0.757777, -4.915898, 0.1, cl__3};
Point(14) = {0.757777, -4.915898, 0, cl__3};
Point(15) = {0.757777, 5.048171, 0.1, cl__4};
Point(16) = {0.757777, 5.048171, 0, cl__4};
Point(17) = {39.271032, -4.915898, 0, cl__5};
Point(18) = {39.271032, -4.915898, 0.1, cl__5};
Point(19) = {39.271032, 5.048171, 0.1, cl__6};
Point(20) = {39.271032, 5.048171, 0, cl__6};
p13 = newp;
Point(p13 + 1) = {34.86779116140357, 0.02883216447382628, 0.1};
Point(p13 + 2) = {34.83757371606581, 0.1546968825919166, 0.1};
Point(p13 + 3) = {34.78803871777689, 0.2742849472731531, 0.1};
Point(p13 + 4) = {34.72040588259192, 0.384651703475052, 0.1};
Point(p13 + 5) = {34.63634055537366, 0.4830795553736582, 0.1};
Point(p13 + 6) = {34.53791270347506, 0.5671448825919165, 0.1};
Point(p13 + 7) = {34.42754594727316, 0.6347777177768877, 0.1};
Point(p13 + 8) = {34.30795788259192, 0.6843127160658069, 0.1};
Point(p13 + 9) = {34.18209316447383, 0.7145301614035667, 0.1};
Point(p13 + 10) = {34.053051, 0.7246859999999999, 0.1};
Point(p13 + 11) = {33.92400883552618, 0.7145301614035666, 0.1};
Point(p13 + 12) = {33.79814411740809, 0.684312716065807, 0.1};
Point(p13 + 13) = {33.67855605272685, 0.6347777177768879, 0.1};
Point(p13 + 14) = {33.56818929652495, 0.5671448825919166, 0.1};
Point(p13 + 15) = {33.46976144462634, 0.4830795553736583, 0.1};
Point(p13 + 16) = {33.38569611740809, 0.384651703475052, 0.1};
Point(p13 + 17) = {33.31806328222311, 0.2742849472731532, 0.1};
Point(p13 + 18) = {33.2685282839342, 0.1546968825919167, 0.1};
Point(p13 + 19) = {33.23831083859643, 0.02883216447382639, 0.1};
Point(p13 + 20) = {33.228155, -0.1002099999999999, 0.1};
Point(p13 + 21) = {33.23831083859643, -0.2292521644738262, 0.1};
Point(p13 + 22) = {33.2685282839342, -0.3551168825919169, 0.1};
Point(p13 + 23) = {33.31806328222311, -0.4747049472731527, 0.1};
Point(p13 + 24) = {33.38569611740809, -0.5850717034750518, 0.1};
Point(p13 + 25) = {33.46976144462634, -0.6834995553736583, 0.1};
Point(p13 + 26) = {33.56818929652495, -0.7675648825919166, 0.1};
Point(p13 + 27) = {33.67855605272685, -0.8351977177768878, 0.1};
Point(p13 + 28) = {33.79814411740809, -0.8847327160658069, 0.1};
Point(p13 + 29) = {33.92400883552618, -0.9149501614035667, 0.1};
Point(p13 + 30) = {34.053051, -0.925106, 0.1};
Point(p13 + 31) = {34.18209316447383, -0.9149501614035668, 0.1};
Point(p13 + 32) = {34.30795788259192, -0.8847327160658071, 0.1};
Point(p13 + 33) = {34.42754594727316, -0.835197717776888, 0.1};
Point(p13 + 34) = {34.53791270347506, -0.7675648825919167, 0.1};
Point(p13 + 35) = {34.63634055537366, -0.6834995553736585, 0.1};
Point(p13 + 36) = {34.72040588259192, -0.585071703475052, 0.1};
Point(p13 + 37) = {34.78803871777689, -0.4747049472731533, 0.1};
Point(p13 + 38) = {34.83757371606581, -0.3551168825919168, 0.1};
Point(p13 + 39) = {34.86779116140357, -0.2292521644738265, 0.1};
Spline(13) = {9, p13 + 1, p13 + 2, p13 + 3, p13 + 4, p13 + 5, p13 + 6, p13 + 7, p13 + 8, p13 + 9, p13 + 10, p13 + 11, p13 + 12, p13 + 13, p13 + 14, p13 + 15, p13 + 16, p13 + 17, p13 + 18, p13 + 19, p13 + 20, p13 + 21, p13 + 22, p13 + 23, p13 + 24, p13 + 25, p13 + 26, p13 + 27, p13 + 28, p13 + 29, p13 + 30, p13 + 31, p13 + 32, p13 + 33, p13 + 34, p13 + 35, p13 + 36, p13 + 37, p13 + 38, p13 + 39, 9};
Line(14) = {10, 9};
p15 = newp;
Point(p15 + 1) = {34.86779116140357, 0.02883216447382628, 0};
Point(p15 + 2) = {34.83757371606581, 0.1546968825919166, 0};
Point(p15 + 3) = {34.78803871777689, 0.2742849472731531, 0};
Point(p15 + 4) = {34.72040588259192, 0.384651703475052, 0};
Point(p15 + 5) = {34.63634055537366, 0.4830795553736582, 0};
Point(p15 + 6) = {34.53791270347506, 0.5671448825919165, 0};
Point(p15 + 7) = {34.42754594727316, 0.6347777177768877, 0};
Point(p15 + 8) = {34.30795788259192, 0.6843127160658069, 0};
Point(p15 + 9) = {34.18209316447383, 0.7145301614035667, 0};
Point(p15 + 10) = {34.053051, 0.7246859999999999, 0};
Point(p15 + 11) = {33.92400883552618, 0.7145301614035666, 0};
Point(p15 + 12) = {33.79814411740809, 0.684312716065807, 0};
Point(p15 + 13) = {33.67855605272685, 0.6347777177768879, 0};
Point(p15 + 14) = {33.56818929652495, 0.5671448825919166, 0};
Point(p15 + 15) = {33.46976144462634, 0.4830795553736583, 0};
Point(p15 + 16) = {33.38569611740809, 0.384651703475052, 0};
Point(p15 + 17) = {33.31806328222311, 0.2742849472731532, 0};
Point(p15 + 18) = {33.2685282839342, 0.1546968825919167, 0};
Point(p15 + 19) = {33.23831083859643, 0.02883216447382639, 0};
Point(p15 + 20) = {33.228155, -0.1002099999999999, 0};
Point(p15 + 21) = {33.23831083859643, -0.2292521644738262, 0};
Point(p15 + 22) = {33.2685282839342, -0.3551168825919169, 0};
Point(p15 + 23) = {33.31806328222311, -0.4747049472731527, 0};
Point(p15 + 24) = {33.38569611740809, -0.5850717034750518, 0};
Point(p15 + 25) = {33.46976144462634, -0.6834995553736583, 0};
Point(p15 + 26) = {33.56818929652495, -0.7675648825919166, 0};
Point(p15 + 27) = {33.67855605272685, -0.8351977177768878, 0};
Point(p15 + 28) = {33.79814411740809, -0.8847327160658069, 0};
Point(p15 + 29) = {33.92400883552618, -0.9149501614035667, 0};
Point(p15 + 30) = {34.053051, -0.925106, 0};
Point(p15 + 31) = {34.18209316447383, -0.9149501614035668, 0};
Point(p15 + 32) = {34.30795788259192, -0.8847327160658071, 0};
Point(p15 + 33) = {34.42754594727316, -0.835197717776888, 0};
Point(p15 + 34) = {34.53791270347506, -0.7675648825919167, 0};
Point(p15 + 35) = {34.63634055537366, -0.6834995553736585, 0};
Point(p15 + 36) = {34.72040588259192, -0.585071703475052, 0};
Point(p15 + 37) = {34.78803871777689, -0.4747049472731533, 0};
Point(p15 + 38) = {34.83757371606581, -0.3551168825919168, 0};
Point(p15 + 39) = {34.86779116140357, -0.2292521644738265, 0};
Spline(15) = {10, p15 + 1, p15 + 2, p15 + 3, p15 + 4, p15 + 5, p15 + 6, p15 + 7, p15 + 8, p15 + 9, p15 + 10, p15 + 11, p15 + 12, p15 + 13, p15 + 14, p15 + 15, p15 + 16, p15 + 17, p15 + 18, p15 + 19, p15 + 20, p15 + 21, p15 + 22, p15 + 23, p15 + 24, p15 + 25, p15 + 26, p15 + 27, p15 + 28, p15 + 29, p15 + 30, p15 + 31, p15 + 32, p15 + 33, p15 + 34, p15 + 35, p15 + 36, p15 + 37, p15 + 38, p15 + 39, 10};
p16 = newp;
Point(p16 + 1) = {18.8619885856893, -2.381510614922441, 0.1};
Point(p16 + 2) = {18.82884165673045, -2.243443719350925, 0.1};
Point(p16 + 3) = {18.77450440052275, -2.112261978472175, 0.1};
Point(p16 + 4) = {18.70031478064907, -1.991195522113867, 0.1};
Point(p16 + 5) = {18.60809959177193, -1.883225408228072, 0.1};
Point(p16 + 6) = {18.50012947788613, -1.791010219350925, 0.1};
Point(p16 + 7) = {18.37906302152782, -1.716820599477244, 0.1};
Point(p16 + 8) = {18.24788128064908, -1.662483343269553, 0.1};
Point(p16 + 9) = {18.10981438507756, -1.629336414310699, 0.1};
Point(p16 + 10) = {17.968262, -1.618196, 0.1};
Point(p16 + 11) = {17.82670961492244, -1.6293364143107, 0.1};
Point(p16 + 12) = {17.68864271935092, -1.662483343269553, 0.1};
Point(p16 + 13) = {17.55746097847218, -1.716820599477244, 0.1};
Point(p16 + 14) = {17.43639452211386, -1.791010219350925, 0.1};
Point(p16 + 15) = {17.32842440822807, -1.883225408228072, 0.1};
Point(p16 + 16) = {17.23620921935093, -1.991195522113867, 0.1};
Point(p16 + 17) = {17.16201959947724, -2.112261978472175, 0.1};
Point(p16 + 18) = {17.10768234326955, -2.243443719350925, 0.1};
Point(p16 + 19) = {17.0745354143107, -2.381510614922441, 0.1};
Point(p16 + 20) = {17.063395, -2.523063, 0.1};
Point(p16 + 21) = {17.0745354143107, -2.664615385077559, 0.1};
Point(p16 + 22) = {17.10768234326955, -2.802682280649076, 0.1};
Point(p16 + 23) = {17.16201959947724, -2.933864021527824, 0.1};
Point(p16 + 24) = {17.23620921935093, -3.054930477886133, 0.1};
Point(p16 + 25) = {17.32842440822807, -3.162900591771928, 0.1};
Point(p16 + 26) = {17.43639452211386, -3.255115780649076, 0.1};
Point(p16 + 27) = {17.55746097847218, -3.329305400522756, 0.1};
Point(p16 + 28) = {17.68864271935092, -3.383642656730447, 0.1};
Point(p16 + 29) = {17.82670961492244, -3.4167895856893, 0.1};
Point(p16 + 30) = {17.968262, -3.42793, 0.1};
Point(p16 + 31) = {18.10981438507756, -3.416789585689301, 0.1};
Point(p16 + 32) = {18.24788128064908, -3.383642656730447, 0.1};
Point(p16 + 33) = {18.37906302152782, -3.329305400522756, 0.1};
Point(p16 + 34) = {18.50012947788613, -3.255115780649076, 0.1};
Point(p16 + 35) = {18.60809959177193, -3.162900591771928, 0.1};
Point(p16 + 36) = {18.70031478064907, -3.054930477886133, 0.1};
Point(p16 + 37) = {18.77450440052275, -2.933864021527825, 0.1};
Point(p16 + 38) = {18.82884165673045, -2.802682280649076, 0.1};
Point(p16 + 39) = {18.8619885856893, -2.664615385077559, 0.1};
Spline(16) = {11, p16 + 1, p16 + 2, p16 + 3, p16 + 4, p16 + 5, p16 + 6, p16 + 7, p16 + 8, p16 + 9, p16 + 10, p16 + 11, p16 + 12, p16 + 13, p16 + 14, p16 + 15, p16 + 16, p16 + 17, p16 + 18, p16 + 19, p16 + 20, p16 + 21, p16 + 22, p16 + 23, p16 + 24, p16 + 25, p16 + 26, p16 + 27, p16 + 28, p16 + 29, p16 + 30, p16 + 31, p16 + 32, p16 + 33, p16 + 34, p16 + 35, p16 + 36, p16 + 37, p16 + 38, p16 + 39, 11};
Line(17) = {12, 11};
p18 = newp;
Point(p18 + 1) = {18.8619885856893, -2.381510614922441, 0};
Point(p18 + 2) = {18.82884165673045, -2.243443719350925, 0};
Point(p18 + 3) = {18.77450440052275, -2.112261978472175, 0};
Point(p18 + 4) = {18.70031478064907, -1.991195522113867, 0};
Point(p18 + 5) = {18.60809959177193, -1.883225408228072, 0};
Point(p18 + 6) = {18.50012947788613, -1.791010219350925, 0};
Point(p18 + 7) = {18.37906302152782, -1.716820599477244, 0};
Point(p18 + 8) = {18.24788128064908, -1.662483343269553, 0};
Point(p18 + 9) = {18.10981438507756, -1.629336414310699, 0};
Point(p18 + 10) = {17.968262, -1.618196, 0};
Point(p18 + 11) = {17.82670961492244, -1.6293364143107, 0};
Point(p18 + 12) = {17.68864271935092, -1.662483343269553, 0};
Point(p18 + 13) = {17.55746097847218, -1.716820599477244, 0};
Point(p18 + 14) = {17.43639452211386, -1.791010219350925, 0};
Point(p18 + 15) = {17.32842440822807, -1.883225408228072, 0};
Point(p18 + 16) = {17.23620921935093, -1.991195522113867, 0};
Point(p18 + 17) = {17.16201959947724, -2.112261978472175, 0};
Point(p18 + 18) = {17.10768234326955, -2.243443719350925, 0};
Point(p18 + 19) = {17.0745354143107, -2.381510614922441, 0};
Point(p18 + 20) = {17.063395, -2.523063, 0};
Point(p18 + 21) = {17.0745354143107, -2.664615385077559, 0};
Point(p18 + 22) = {17.10768234326955, -2.802682280649076, 0};
Point(p18 + 23) = {17.16201959947724, -2.933864021527824, 0};
Point(p18 + 24) = {17.23620921935093, -3.054930477886133, 0};
Point(p18 + 25) = {17.32842440822807, -3.162900591771928, 0};
Point(p18 + 26) = {17.43639452211386, -3.255115780649076, 0};
Point(p18 + 27) = {17.55746097847218, -3.329305400522756, 0};
Point(p18 + 28) = {17.68864271935092, -3.383642656730447, 0};
Point(p18 + 29) = {17.82670961492244, -3.4167895856893, 0};
Point(p18 + 30) = {17.968262, -3.42793, 0};
Point(p18 + 31) = {18.10981438507756, -3.416789585689301, 0};
Point(p18 + 32) = {18.24788128064908, -3.383642656730447, 0};
Point(p18 + 33) = {18.37906302152782, -3.329305400522756, 0};
Point(p18 + 34) = {18.50012947788613, -3.255115780649076, 0};
Point(p18 + 35) = {18.60809959177193, -3.162900591771928, 0};
Point(p18 + 36) = {18.70031478064907, -3.054930477886133, 0};
Point(p18 + 37) = {18.77450440052275, -2.933864021527825, 0};
Point(p18 + 38) = {18.82884165673045, -2.802682280649076, 0};
Point(p18 + 39) = {18.8619885856893, -2.664615385077559, 0};
Spline(18) = {12, p18 + 1, p18 + 2, p18 + 3, p18 + 4, p18 + 5, p18 + 6, p18 + 7, p18 + 8, p18 + 9, p18 + 10, p18 + 11, p18 + 12, p18 + 13, p18 + 14, p18 + 15, p18 + 16, p18 + 17, p18 + 18, p18 + 19, p18 + 20, p18 + 21, p18 + 22, p18 + 23, p18 + 24, p18 + 25, p18 + 26, p18 + 27, p18 + 28, p18 + 29, p18 + 30, p18 + 31, p18 + 32, p18 + 33, p18 + 34, p18 + 35, p18 + 36, p18 + 37, p18 + 38, p18 + 39, 12};
Line(19) = {14, 13};
Line(20) = {13, 15};
Line(21) = {16, 15};
Line(22) = {14, 16};
Line(23) = {14, 17};
Line(24) = {17, 18};
Line(25) = {13, 18};
Line(26) = {15, 19};
Line(27) = {18, 19};
Line(28) = {16, 20};
Line(29) = {20, 19};
Line(30) = {17, 20};
Curve Loop(7) = {-13, -14, 15, 14};
Surface(7) = {7};
Curve Loop(8) = {13};
Plane Surface(8) = {8};
Curve Loop(9) = {15};
Plane Surface(9) = {9};
Curve Loop(10) = {-16, -17, 18, 17};
Surface(10) = {10};
Curve Loop(11) = {16};
Plane Surface(11) = {11};
Curve Loop(12) = {18};
Plane Surface(12) = {12};
Curve Loop(13) = {-19, 22, 21, -20};
Plane Surface(13) = {13};
Curve Loop(14) = {-23, 19, 25, -24};
Plane Surface(14) = {14};
Curve Loop(15) = {-20, 25, 27, -26, -16, -13};
Plane Surface(15) = {15};
Curve Loop(16) = {-28, 21, 26, -29};
Plane Surface(16) = {16};
Curve Loop(17) = {-22, 23, 30, -28, -18, -15};
Plane Surface(17) = {17};
Curve Loop(18) = {-24, 30, 29, -27};
Plane Surface(18) = {18};
Surface Loop(1) = {13, 14, 15, 16, 17, 18, 10, 7};
Volume(1) = {1};
Surface Loop(2) = {7, 8, 9};
Volume(2) = {2};
Surface Loop(3) = {10, 11, 12};
Volume(3) = {3};
Physical Surface("WALLS") = {13, 18};
Physical Surface("LOAD") = {8, 11};
Physical Surface("BORDER") = {7, 9, 10, 12, 14, 15, 16, 17};
Physical Volume("SOLID") = {1, 2, 3};
