cl__1 = 0.134934;
cl__2 = 0.130578;
cl__3 = 1.527804;
cl__4 = 1.047706;
cl__5 = 0.878825;
cl__6 = 0.953776;
Point(9) = {25.107546, -0.2235320000000003, 0.1, cl__1};
Point(10) = {25.107546, -0.2235320000000003, 0, cl__1};
Point(11) = {10.77662, 1.752186999999999, 0.1, cl__2};
Point(12) = {10.77662, 1.752186999999999, 0, cl__2};
Point(13) = {0.318734, -3.804251, 0.1, cl__3};
Point(14) = {0.318734, -3.804251, 0, cl__3};
Point(15) = {0.318734, 4.636899000000001, 0.1, cl__4};
Point(16) = {0.318734, 4.636899000000001, 0, cl__4};
Point(17) = {31.492176, -3.804251, 0, cl__5};
Point(18) = {31.492176, -3.804251, 0.1, cl__5};
Point(19) = {31.492176, 4.636899000000001, 0.1, cl__6};
Point(20) = {31.492176, 4.636899000000001, 0, cl__6};
p13 = newp;
Point(p13 + 1) = {25.09093337318699, -0.01244856250814985, 0.1};
Point(p13 + 2) = {25.04150455075422, 0.1934373002068859, 0.1};
Point(p13 + 3) = {24.96047663435486, 0.3890559949090597, 0.1};
Point(p13 + 4) = {24.84984480020688, 0.569590740113578, 0.1};
Point(p13 + 5) = {24.71233317123304, 0.7305961712330371, 0.1};
Point(p13 + 6) = {24.55132774011358, 0.8681078002068856, 0.1};
Point(p13 + 7) = {24.37079299490906, 0.9787396343548562, 0.1};
Point(p13 + 8) = {24.17517430020689, 1.059767550754219, 0.1};
Point(p13 + 9) = {23.96928843749185, 1.109196373186984, 0.1};
Point(p13 + 10) = {23.758205, 1.125809, 0.1};
Point(p13 + 11) = {23.54712156250815, 1.109196373186983, 0.1};
Point(p13 + 12) = {23.34123569979311, 1.059767550754219, 0.1};
Point(p13 + 13) = {23.14561700509094, 0.9787396343548564, 0.1};
Point(p13 + 14) = {22.96508225988642, 0.8681078002068858, 0.1};
Point(p13 + 15) = {22.80407682876696, 0.7305961712330371, 0.1};
Point(p13 + 16) = {22.66656519979312, 0.569590740113578, 0.1};
Point(p13 + 17) = {22.55593336564515, 0.3890559949090599, 0.1};
Point(p13 + 18) = {22.47490544924578, 0.193437300206886, 0.1};
Point(p13 + 19) = {22.42547662681302, -0.01244856250814971, 0.1};
Point(p13 + 20) = {22.408864, -0.2235319999999998, 0.1};
Point(p13 + 21) = {22.42547662681302, -0.43461543749185, 0.1};
Point(p13 + 22) = {22.47490544924578, -0.6405013002068863, 0.1};
Point(p13 + 23) = {22.55593336564514, -0.8361199949090592, 0.1};
Point(p13 + 24) = {22.66656519979312, -1.016654740113578, 0.1};
Point(p13 + 25) = {22.80407682876696, -1.177660171233037, 0.1};
Point(p13 + 26) = {22.96508225988642, -1.315171800206886, 0.1};
Point(p13 + 27) = {23.14561700509094, -1.425803634354856, 0.1};
Point(p13 + 28) = {23.34123569979311, -1.506831550754219, 0.1};
Point(p13 + 29) = {23.54712156250815, -1.556260373186984, 0.1};
Point(p13 + 30) = {23.758205, -1.572873, 0.1};
Point(p13 + 31) = {23.96928843749185, -1.556260373186984, 0.1};
Point(p13 + 32) = {24.17517430020689, -1.506831550754219, 0.1};
Point(p13 + 33) = {24.37079299490906, -1.425803634354857, 0.1};
Point(p13 + 34) = {24.55132774011358, -1.315171800206886, 0.1};
Point(p13 + 35) = {24.71233317123304, -1.177660171233037, 0.1};
Point(p13 + 36) = {24.84984480020688, -1.016654740113578, 0.1};
Point(p13 + 37) = {24.96047663435485, -0.8361199949090601, 0.1};
Point(p13 + 38) = {25.04150455075422, -0.6405013002068862, 0.1};
Point(p13 + 39) = {25.09093337318699, -0.4346154374918505, 0.1};
Spline(13) = {9, p13 + 1, p13 + 2, p13 + 3, p13 + 4, p13 + 5, p13 + 6, p13 + 7, p13 + 8, p13 + 9, p13 + 10, p13 + 11, p13 + 12, p13 + 13, p13 + 14, p13 + 15, p13 + 16, p13 + 17, p13 + 18, p13 + 19, p13 + 20, p13 + 21, p13 + 22, p13 + 23, p13 + 24, p13 + 25, p13 + 26, p13 + 27, p13 + 28, p13 + 29, p13 + 30, p13 + 31, p13 + 32, p13 + 33, p13 + 34, p13 + 35, p13 + 36, p13 + 37, p13 + 38, p13 + 39, 9};
Line(14) = {10, 9};
p15 = newp;
Point(p15 + 1) = {25.09093337318699, -0.01244856250814985, 0};
Point(p15 + 2) = {25.04150455075422, 0.1934373002068859, 0};
Point(p15 + 3) = {24.96047663435486, 0.3890559949090597, 0};
Point(p15 + 4) = {24.84984480020688, 0.569590740113578, 0};
Point(p15 + 5) = {24.71233317123304, 0.7305961712330371, 0};
Point(p15 + 6) = {24.55132774011358, 0.8681078002068856, 0};
Point(p15 + 7) = {24.37079299490906, 0.9787396343548562, 0};
Point(p15 + 8) = {24.17517430020689, 1.059767550754219, 0};
Point(p15 + 9) = {23.96928843749185, 1.109196373186984, 0};
Point(p15 + 10) = {23.758205, 1.125809, 0};
Point(p15 + 11) = {23.54712156250815, 1.109196373186983, 0};
Point(p15 + 12) = {23.34123569979311, 1.059767550754219, 0};
Point(p15 + 13) = {23.14561700509094, 0.9787396343548564, 0};
Point(p15 + 14) = {22.96508225988642, 0.8681078002068858, 0};
Point(p15 + 15) = {22.80407682876696, 0.7305961712330371, 0};
Point(p15 + 16) = {22.66656519979312, 0.569590740113578, 0};
Point(p15 + 17) = {22.55593336564515, 0.3890559949090599, 0};
Point(p15 + 18) = {22.47490544924578, 0.193437300206886, 0};
Point(p15 + 19) = {22.42547662681302, -0.01244856250814971, 0};
Point(p15 + 20) = {22.408864, -0.2235319999999998, 0};
Point(p15 + 21) = {22.42547662681302, -0.43461543749185, 0};
Point(p15 + 22) = {22.47490544924578, -0.6405013002068863, 0};
Point(p15 + 23) = {22.55593336564514, -0.8361199949090592, 0};
Point(p15 + 24) = {22.66656519979312, -1.016654740113578, 0};
Point(p15 + 25) = {22.80407682876696, -1.177660171233037, 0};
Point(p15 + 26) = {22.96508225988642, -1.315171800206886, 0};
Point(p15 + 27) = {23.14561700509094, -1.425803634354856, 0};
Point(p15 + 28) = {23.34123569979311, -1.506831550754219, 0};
Point(p15 + 29) = {23.54712156250815, -1.556260373186984, 0};
Point(p15 + 30) = {23.758205, -1.572873, 0};
Point(p15 + 31) = {23.96928843749185, -1.556260373186984, 0};
Point(p15 + 32) = {24.17517430020689, -1.506831550754219, 0};
Point(p15 + 33) = {24.37079299490906, -1.425803634354857, 0};
Point(p15 + 34) = {24.55132774011358, -1.315171800206886, 0};
Point(p15 + 35) = {24.71233317123304, -1.177660171233037, 0};
Point(p15 + 36) = {24.84984480020688, -1.016654740113578, 0};
Point(p15 + 37) = {24.96047663435485, -0.8361199949090601, 0};
Point(p15 + 38) = {25.04150455075422, -0.6405013002068862, 0};
Point(p15 + 39) = {25.09093337318699, -0.4346154374918505, 0};
Spline(15) = {10, p15 + 1, p15 + 2, p15 + 3, p15 + 4, p15 + 5, p15 + 6, p15 + 7, p15 + 8, p15 + 9, p15 + 10, p15 + 11, p15 + 12, p15 + 13, p15 + 14, p15 + 15, p15 + 16, p15 + 17, p15 + 18, p15 + 19, p15 + 20, p15 + 21, p15 + 22, p15 + 23, p15 + 24, p15 + 25, p15 + 26, p15 + 27, p15 + 28, p15 + 29, p15 + 30, p15 + 31, p15 + 32, p15 + 33, p15 + 34, p15 + 35, p15 + 36, p15 + 37, p15 + 38, p15 + 39, 10};
p16 = newp;
Point(p16 + 1) = {10.76054373062896, 1.956455370022372, 0.1};
Point(p16 + 2) = {10.71271077362182, 2.155693974846941, 0.1};
Point(p16 + 3) = {10.63429893512859, 2.344996898787906, 0.1};
Point(p16 + 4) = {10.52723897484694, 2.519702875597456, 0.1};
Point(p16 + 5) = {10.39416706431065, 2.675510064310645, 0.1};
Point(p16 + 6) = {10.23835987559746, 2.808581974846941, 0.1};
Point(p16 + 7) = {10.06365389878791, 2.91564193512859, 0.1};
Point(p16 + 8) = {9.874350974846941, 2.99405377362182, 0.1};
Point(p16 + 9) = {9.675112370022372, 3.041886730628956, 0.1};
Point(p16 + 10) = {9.470844, 3.057963, 0.1};
Point(p16 + 11) = {9.266575629977627, 3.041886730628956, 0.1};
Point(p16 + 12) = {9.067337025153059, 2.99405377362182, 0.1};
Point(p16 + 13) = {8.878034101212092, 2.91564193512859, 0.1};
Point(p16 + 14) = {8.703328124402542, 2.808581974846941, 0.1};
Point(p16 + 15) = {8.547520935689354, 2.675510064310645, 0.1};
Point(p16 + 16) = {8.414449025153058, 2.519702875597456, 0.1};
Point(p16 + 17) = {8.30738906487141, 2.344996898787906, 0.1};
Point(p16 + 18) = {8.228977226378179, 2.155693974846941, 0.1};
Point(p16 + 19) = {8.181144269371043, 1.956455370022373, 0.1};
Point(p16 + 20) = {8.165068, 1.752187, 0.1};
Point(p16 + 21) = {8.181144269371043, 1.547918629977628, 0.1};
Point(p16 + 22) = {8.228977226378179, 1.348680025153058, 0.1};
Point(p16 + 23) = {8.307389064871408, 1.159377101212094, 0.1};
Point(p16 + 24) = {8.414449025153058, 0.9846711244025437, 0.1};
Point(p16 + 25) = {8.547520935689354, 0.8288639356893547, 0.1};
Point(p16 + 26) = {8.703328124402542, 0.6957920251530587, 0.1};
Point(p16 + 27) = {8.878034101212092, 0.5887320648714098, 0.1};
Point(p16 + 28) = {9.067337025153059, 0.5103202263781794, 0.1};
Point(p16 + 29) = {9.266575629977627, 0.4624872693710433, 0.1};
Point(p16 + 30) = {9.470844, 0.4464109999999999, 0.1};
Point(p16 + 31) = {9.675112370022372, 0.4624872693710433, 0.1};
Point(p16 + 32) = {9.874350974846941, 0.5103202263781794, 0.1};
Point(p16 + 33) = {10.0636538987879, 0.5887320648714094, 0.1};
Point(p16 + 34) = {10.23835987559745, 0.6957920251530583, 0.1};
Point(p16 + 35) = {10.39416706431065, 0.8288639356893545, 0.1};
Point(p16 + 36) = {10.52723897484694, 0.9846711244025433, 0.1};
Point(p16 + 37) = {10.63429893512859, 1.159377101212093, 0.1};
Point(p16 + 38) = {10.71271077362182, 1.348680025153058, 0.1};
Point(p16 + 39) = {10.76054373062896, 1.547918629977627, 0.1};
Spline(16) = {11, p16 + 1, p16 + 2, p16 + 3, p16 + 4, p16 + 5, p16 + 6, p16 + 7, p16 + 8, p16 + 9, p16 + 10, p16 + 11, p16 + 12, p16 + 13, p16 + 14, p16 + 15, p16 + 16, p16 + 17, p16 + 18, p16 + 19, p16 + 20, p16 + 21, p16 + 22, p16 + 23, p16 + 24, p16 + 25, p16 + 26, p16 + 27, p16 + 28, p16 + 29, p16 + 30, p16 + 31, p16 + 32, p16 + 33, p16 + 34, p16 + 35, p16 + 36, p16 + 37, p16 + 38, p16 + 39, 11};
Line(17) = {12, 11};
p18 = newp;
Point(p18 + 1) = {10.76054373062896, 1.956455370022372, 0};
Point(p18 + 2) = {10.71271077362182, 2.155693974846941, 0};
Point(p18 + 3) = {10.63429893512859, 2.344996898787906, 0};
Point(p18 + 4) = {10.52723897484694, 2.519702875597456, 0};
Point(p18 + 5) = {10.39416706431065, 2.675510064310645, 0};
Point(p18 + 6) = {10.23835987559746, 2.808581974846941, 0};
Point(p18 + 7) = {10.06365389878791, 2.91564193512859, 0};
Point(p18 + 8) = {9.874350974846941, 2.99405377362182, 0};
Point(p18 + 9) = {9.675112370022372, 3.041886730628956, 0};
Point(p18 + 10) = {9.470844, 3.057963, 0};
Point(p18 + 11) = {9.266575629977627, 3.041886730628956, 0};
Point(p18 + 12) = {9.067337025153059, 2.99405377362182, 0};
Point(p18 + 13) = {8.878034101212092, 2.91564193512859, 0};
Point(p18 + 14) = {8.703328124402542, 2.808581974846941, 0};
Point(p18 + 15) = {8.547520935689354, 2.675510064310645, 0};
Point(p18 + 16) = {8.414449025153058, 2.519702875597456, 0};
Point(p18 + 17) = {8.30738906487141, 2.344996898787906, 0};
Point(p18 + 18) = {8.228977226378179, 2.155693974846941, 0};
Point(p18 + 19) = {8.181144269371043, 1.956455370022373, 0};
Point(p18 + 20) = {8.165068, 1.752187, 0};
Point(p18 + 21) = {8.181144269371043, 1.547918629977628, 0};
Point(p18 + 22) = {8.228977226378179, 1.348680025153058, 0};
Point(p18 + 23) = {8.307389064871408, 1.159377101212094, 0};
Point(p18 + 24) = {8.414449025153058, 0.9846711244025437, 0};
Point(p18 + 25) = {8.547520935689354, 0.8288639356893547, 0};
Point(p18 + 26) = {8.703328124402542, 0.6957920251530587, 0};
Point(p18 + 27) = {8.878034101212092, 0.5887320648714098, 0};
Point(p18 + 28) = {9.067337025153059, 0.5103202263781794, 0};
Point(p18 + 29) = {9.266575629977627, 0.4624872693710433, 0};
Point(p18 + 30) = {9.470844, 0.4464109999999999, 0};
Point(p18 + 31) = {9.675112370022372, 0.4624872693710433, 0};
Point(p18 + 32) = {9.874350974846941, 0.5103202263781794, 0};
Point(p18 + 33) = {10.0636538987879, 0.5887320648714094, 0};
Point(p18 + 34) = {10.23835987559745, 0.6957920251530583, 0};
Point(p18 + 35) = {10.39416706431065, 0.8288639356893545, 0};
Point(p18 + 36) = {10.52723897484694, 0.9846711244025433, 0};
Point(p18 + 37) = {10.63429893512859, 1.159377101212093, 0};
Point(p18 + 38) = {10.71271077362182, 1.348680025153058, 0};
Point(p18 + 39) = {10.76054373062896, 1.547918629977627, 0};
Spline(18) = {12, p18 + 1, p18 + 2, p18 + 3, p18 + 4, p18 + 5, p18 + 6, p18 + 7, p18 + 8, p18 + 9, p18 + 10, p18 + 11, p18 + 12, p18 + 13, p18 + 14, p18 + 15, p18 + 16, p18 + 17, p18 + 18, p18 + 19, p18 + 20, p18 + 21, p18 + 22, p18 + 23, p18 + 24, p18 + 25, p18 + 26, p18 + 27, p18 + 28, p18 + 29, p18 + 30, p18 + 31, p18 + 32, p18 + 33, p18 + 34, p18 + 35, p18 + 36, p18 + 37, p18 + 38, p18 + 39, 12};
Line(19) = {14, 13};
Line(20) = {13, 15};
Line(21) = {16, 15};
Line(22) = {14, 16};
Line(23) = {14, 17};
Line(24) = {17, 18};
Line(25) = {13, 18};
Line(26) = {15, 19};
Line(27) = {18, 19};
Line(28) = {16, 20};
Line(29) = {20, 19};
Line(30) = {17, 20};
Curve Loop(7) = {-13, -14, 15, 14};
Surface(7) = {7};
Curve Loop(8) = {13};
Plane Surface(8) = {8};
Curve Loop(9) = {15};
Plane Surface(9) = {9};
Curve Loop(10) = {-16, -17, 18, 17};
Surface(10) = {10};
Curve Loop(11) = {16};
Plane Surface(11) = {11};
Curve Loop(12) = {18};
Plane Surface(12) = {12};
Curve Loop(13) = {-19, 22, 21, -20};
Plane Surface(13) = {13};
Curve Loop(14) = {-23, 19, 25, -24};
Plane Surface(14) = {14};
Curve Loop(15) = {-20, 25, 27, -26, -13, -16};
Plane Surface(15) = {15};
Curve Loop(16) = {-28, 21, 26, -29};
Plane Surface(16) = {16};
Curve Loop(17) = {-22, 23, 30, -28, -15, -18};
Plane Surface(17) = {17};
Curve Loop(18) = {-24, 30, 29, -27};
Plane Surface(18) = {18};
Surface Loop(1) = {13, 14, 15, 16, 17, 18, 7, 10};
Volume(1) = {1};
Surface Loop(2) = {7, 8, 9};
Volume(2) = {2};
Surface Loop(3) = {10, 11, 12};
Volume(3) = {3};
Physical Surface("WALLS") = {13, 18};
Physical Surface("LOAD") = {8, 11};
Physical Surface("BORDER") = {7, 9, 10, 12, 14, 15, 16, 17};
Physical Volume("SOLID") = {1, 2, 3};
