cl__1 = 0.071274;
cl__2 = 0.060822;
cl__3 = 0.983751;
cl__4 = 0.979059;
cl__5 = 0.932372;
cl__6 = 1.348564;
Point(9) = {13.900471, 0.7534899999999998, 0.1, cl__1};
Point(10) = {13.900471, 0.7534899999999998, 0, cl__1};
Point(11) = {25.237696, -2.666616, 0.1, cl__2};
Point(12) = {25.237696, -2.666616, 0, cl__2};
Point(13) = {0.353598, -4.169775, 1, cl__3};
Point(14) = {0.353598, -4.169775, 0, cl__3};
Point(15) = {0.353598, 5.500455000000001, 1, cl__4};
Point(16) = {0.353598, 5.500455000000001, 0, cl__4};
Point(17) = {37.502842, -4.169775, 0, cl__5};
Point(18) = {37.502842, -4.169775, 1, cl__5};
Point(19) = {37.502842, 5.500455000000001, 1, cl__6};
Point(20) = {37.502842, 5.500455000000001, 0, cl__6};
p13 = newp;
Point(p13 + 1) = {13.89169600018744, 0.8649869441783091, 0.1};
Point(p13 + 2) = {13.86558707036769, 0.9737384635538057, 0.1};
Point(p13 + 3) = {13.82278709904349, 1.077066734793865, 0.1};
Point(p13 + 4) = {13.76434996355381, 1.172427472933685, 0.1};
Point(p13 + 5) = {13.69171458011612, 1.257472580116119, 0.1};
Point(p13 + 6) = {13.60666947293369, 1.330107963553806, 0.1};
Point(p13 + 7) = {13.51130873479386, 1.388545099043493, 0.1};
Point(p13 + 8) = {13.40798046355381, 1.431345070367692, 0.1};
Point(p13 + 9) = {13.29922894417831, 1.457454000187438, 0.1};
Point(p13 + 10) = {13.187732, 1.466229, 0.1};
Point(p13 + 11) = {13.07623505582169, 1.457454000187438, 0.1};
Point(p13 + 12) = {12.9674835364462, 1.431345070367692, 0.1};
Point(p13 + 13) = {12.86415526520614, 1.388545099043493, 0.1};
Point(p13 + 14) = {12.76879452706632, 1.330107963553806, 0.1};
Point(p13 + 15) = {12.68374941988388, 1.257472580116119, 0.1};
Point(p13 + 16) = {12.61111403644619, 1.172427472933685, 0.1};
Point(p13 + 17) = {12.55267690095651, 1.077066734793865, 0.1};
Point(p13 + 18) = {12.50987692963231, 0.9737384635538057, 0.1};
Point(p13 + 19) = {12.48376799981256, 0.8649869441783091, 0.1};
Point(p13 + 20) = {12.474993, 0.7534900000000001, 0.1};
Point(p13 + 21) = {12.48376799981256, 0.641993055821691, 0.1};
Point(p13 + 22) = {12.50987692963231, 0.5332415364461941, 0.1};
Point(p13 + 23) = {12.55267690095651, 0.4299132652061355, 0.1};
Point(p13 + 24) = {12.61111403644619, 0.3345525270663151, 0.1};
Point(p13 + 25) = {12.68374941988388, 0.2495074198838814, 0.1};
Point(p13 + 26) = {12.76879452706632, 0.1768720364461944, 0.1};
Point(p13 + 27) = {12.86415526520614, 0.1184349009565069, 0.1};
Point(p13 + 28) = {12.9674835364462, 0.07563492963230856, 0.1};
Point(p13 + 29) = {13.07623505582169, 0.04952599981256212, 0.1};
Point(p13 + 30) = {13.187732, 0.04075099999999998, 0.1};
Point(p13 + 31) = {13.29922894417831, 0.04952599981256212, 0.1};
Point(p13 + 32) = {13.40798046355381, 0.07563492963230845, 0.1};
Point(p13 + 33) = {13.51130873479386, 0.1184349009565068, 0.1};
Point(p13 + 34) = {13.60666947293369, 0.1768720364461942, 0.1};
Point(p13 + 35) = {13.69171458011612, 0.2495074198838811, 0.1};
Point(p13 + 36) = {13.76434996355381, 0.3345525270663149, 0.1};
Point(p13 + 37) = {13.82278709904349, 0.429913265206135, 0.1};
Point(p13 + 38) = {13.86558707036769, 0.5332415364461942, 0.1};
Point(p13 + 39) = {13.89169600018744, 0.6419930558216908, 0.1};
Spline(13) = {9, p13 + 1, p13 + 2, p13 + 3, p13 + 4, p13 + 5, p13 + 6, p13 + 7, p13 + 8, p13 + 9, p13 + 10, p13 + 11, p13 + 12, p13 + 13, p13 + 14, p13 + 15, p13 + 16, p13 + 17, p13 + 18, p13 + 19, p13 + 20, p13 + 21, p13 + 22, p13 + 23, p13 + 24, p13 + 25, p13 + 26, p13 + 27, p13 + 28, p13 + 29, p13 + 30, p13 + 31, p13 + 32, p13 + 33, p13 + 34, p13 + 35, p13 + 36, p13 + 37, p13 + 38, p13 + 39, 9};
Line(14) = {10, 9};
p15 = newp;
Point(p15 + 1) = {13.89169600018744, 0.8649869441783091, 0};
Point(p15 + 2) = {13.86558707036769, 0.9737384635538057, 0};
Point(p15 + 3) = {13.82278709904349, 1.077066734793865, 0};
Point(p15 + 4) = {13.76434996355381, 1.172427472933685, 0};
Point(p15 + 5) = {13.69171458011612, 1.257472580116119, 0};
Point(p15 + 6) = {13.60666947293369, 1.330107963553806, 0};
Point(p15 + 7) = {13.51130873479386, 1.388545099043493, 0};
Point(p15 + 8) = {13.40798046355381, 1.431345070367692, 0};
Point(p15 + 9) = {13.29922894417831, 1.457454000187438, 0};
Point(p15 + 10) = {13.187732, 1.466229, 0};
Point(p15 + 11) = {13.07623505582169, 1.457454000187438, 0};
Point(p15 + 12) = {12.9674835364462, 1.431345070367692, 0};
Point(p15 + 13) = {12.86415526520614, 1.388545099043493, 0};
Point(p15 + 14) = {12.76879452706632, 1.330107963553806, 0};
Point(p15 + 15) = {12.68374941988388, 1.257472580116119, 0};
Point(p15 + 16) = {12.61111403644619, 1.172427472933685, 0};
Point(p15 + 17) = {12.55267690095651, 1.077066734793865, 0};
Point(p15 + 18) = {12.50987692963231, 0.9737384635538057, 0};
Point(p15 + 19) = {12.48376799981256, 0.8649869441783091, 0};
Point(p15 + 20) = {12.474993, 0.7534900000000001, 0};
Point(p15 + 21) = {12.48376799981256, 0.641993055821691, 0};
Point(p15 + 22) = {12.50987692963231, 0.5332415364461941, 0};
Point(p15 + 23) = {12.55267690095651, 0.4299132652061355, 0};
Point(p15 + 24) = {12.61111403644619, 0.3345525270663151, 0};
Point(p15 + 25) = {12.68374941988388, 0.2495074198838814, 0};
Point(p15 + 26) = {12.76879452706632, 0.1768720364461944, 0};
Point(p15 + 27) = {12.86415526520614, 0.1184349009565069, 0};
Point(p15 + 28) = {12.9674835364462, 0.07563492963230856, 0};
Point(p15 + 29) = {13.07623505582169, 0.04952599981256212, 0};
Point(p15 + 30) = {13.187732, 0.04075099999999998, 0};
Point(p15 + 31) = {13.29922894417831, 0.04952599981256212, 0};
Point(p15 + 32) = {13.40798046355381, 0.07563492963230845, 0};
Point(p15 + 33) = {13.51130873479386, 0.1184349009565068, 0};
Point(p15 + 34) = {13.60666947293369, 0.1768720364461942, 0};
Point(p15 + 35) = {13.69171458011612, 0.2495074198838811, 0};
Point(p15 + 36) = {13.76434996355381, 0.3345525270663149, 0};
Point(p15 + 37) = {13.82278709904349, 0.429913265206135, 0};
Point(p15 + 38) = {13.86558707036769, 0.5332415364461942, 0};
Point(p15 + 39) = {13.89169600018744, 0.6419930558216908, 0};
Spline(15) = {10, p15 + 1, p15 + 2, p15 + 3, p15 + 4, p15 + 5, p15 + 6, p15 + 7, p15 + 8, p15 + 9, p15 + 10, p15 + 11, p15 + 12, p15 + 13, p15 + 14, p15 + 15, p15 + 16, p15 + 17, p15 + 18, p15 + 19, p15 + 20, p15 + 21, p15 + 22, p15 + 23, p15 + 24, p15 + 25, p15 + 26, p15 + 27, p15 + 28, p15 + 29, p15 + 30, p15 + 31, p15 + 32, p15 + 33, p15 + 34, p15 + 35, p15 + 36, p15 + 37, p15 + 38, p15 + 39, 10};
p16 = newp;
Point(p16 + 1) = {25.23020782714009, -2.571469742542161, 0.1};
Point(p16 + 2) = {25.207927692228, -2.478666301715258, 0.1};
Point(p16 + 3) = {25.1714042061288, -2.390490806229412, 0.1};
Point(p16 + 4) = {25.12153669828474, -2.309114429421177, 0.1};
Point(p16 + 5) = {25.05955307223972, -2.23654092776028, 0.1};
Point(p16 + 6) = {24.98697957057882, -2.174557301715258, 0.1};
Point(p16 + 7) = {24.90560319377059, -2.124689793871199, 0.1};
Point(p16 + 8) = {24.81742769828474, -2.088166307771994, 0.1};
Point(p16 + 9) = {24.72462425745784, -2.065886172859906, 0.1};
Point(p16 + 10) = {24.629478, -2.058398, 0.1};
Point(p16 + 11) = {24.53433174254216, -2.065886172859906, 0.1};
Point(p16 + 12) = {24.44152830171526, -2.088166307771994, 0.1};
Point(p16 + 13) = {24.35335280622941, -2.124689793871199, 0.1};
Point(p16 + 14) = {24.27197642942118, -2.174557301715258, 0.1};
Point(p16 + 15) = {24.19940292776028, -2.23654092776028, 0.1};
Point(p16 + 16) = {24.13741930171526, -2.309114429421177, 0.1};
Point(p16 + 17) = {24.0875517938712, -2.390490806229412, 0.1};
Point(p16 + 18) = {24.05102830777199, -2.478666301715258, 0.1};
Point(p16 + 19) = {24.02874817285991, -2.571469742542161, 0.1};
Point(p16 + 20) = {24.02126, -2.666616, 0.1};
Point(p16 + 21) = {24.02874817285991, -2.761762257457839, 0.1};
Point(p16 + 22) = {24.05102830777199, -2.854565698284742, 0.1};
Point(p16 + 23) = {24.0875517938712, -2.942741193770587, 0.1};
Point(p16 + 24) = {24.13741930171526, -3.024117570578823, 0.1};
Point(p16 + 25) = {24.19940292776028, -3.096691072239719, 0.1};
Point(p16 + 26) = {24.27197642942118, -3.158674698284742, 0.1};
Point(p16 + 27) = {24.35335280622941, -3.208542206128801, 0.1};
Point(p16 + 28) = {24.44152830171526, -3.245065692228005, 0.1};
Point(p16 + 29) = {24.53433174254216, -3.267345827140093, 0.1};
Point(p16 + 30) = {24.629478, -3.274834, 0.1};
Point(p16 + 31) = {24.72462425745784, -3.267345827140093, 0.1};
Point(p16 + 32) = {24.81742769828474, -3.245065692228006, 0.1};
Point(p16 + 33) = {24.90560319377059, -3.208542206128801, 0.1};
Point(p16 + 34) = {24.98697957057882, -3.158674698284742, 0.1};
Point(p16 + 35) = {25.05955307223972, -3.096691072239719, 0.1};
Point(p16 + 36) = {25.12153669828474, -3.024117570578823, 0.1};
Point(p16 + 37) = {25.1714042061288, -2.942741193770588, 0.1};
Point(p16 + 38) = {25.207927692228, -2.854565698284742, 0.1};
Point(p16 + 39) = {25.23020782714009, -2.761762257457839, 0.1};
Spline(16) = {11, p16 + 1, p16 + 2, p16 + 3, p16 + 4, p16 + 5, p16 + 6, p16 + 7, p16 + 8, p16 + 9, p16 + 10, p16 + 11, p16 + 12, p16 + 13, p16 + 14, p16 + 15, p16 + 16, p16 + 17, p16 + 18, p16 + 19, p16 + 20, p16 + 21, p16 + 22, p16 + 23, p16 + 24, p16 + 25, p16 + 26, p16 + 27, p16 + 28, p16 + 29, p16 + 30, p16 + 31, p16 + 32, p16 + 33, p16 + 34, p16 + 35, p16 + 36, p16 + 37, p16 + 38, p16 + 39, 11};
Line(17) = {12, 11};
p18 = newp;
Point(p18 + 1) = {25.23020782714009, -2.571469742542161, 0};
Point(p18 + 2) = {25.207927692228, -2.478666301715258, 0};
Point(p18 + 3) = {25.1714042061288, -2.390490806229412, 0};
Point(p18 + 4) = {25.12153669828474, -2.309114429421177, 0};
Point(p18 + 5) = {25.05955307223972, -2.23654092776028, 0};
Point(p18 + 6) = {24.98697957057882, -2.174557301715258, 0};
Point(p18 + 7) = {24.90560319377059, -2.124689793871199, 0};
Point(p18 + 8) = {24.81742769828474, -2.088166307771994, 0};
Point(p18 + 9) = {24.72462425745784, -2.065886172859906, 0};
Point(p18 + 10) = {24.629478, -2.058398, 0};
Point(p18 + 11) = {24.53433174254216, -2.065886172859906, 0};
Point(p18 + 12) = {24.44152830171526, -2.088166307771994, 0};
Point(p18 + 13) = {24.35335280622941, -2.124689793871199, 0};
Point(p18 + 14) = {24.27197642942118, -2.174557301715258, 0};
Point(p18 + 15) = {24.19940292776028, -2.23654092776028, 0};
Point(p18 + 16) = {24.13741930171526, -2.309114429421177, 0};
Point(p18 + 17) = {24.0875517938712, -2.390490806229412, 0};
Point(p18 + 18) = {24.05102830777199, -2.478666301715258, 0};
Point(p18 + 19) = {24.02874817285991, -2.571469742542161, 0};
Point(p18 + 20) = {24.02126, -2.666616, 0};
Point(p18 + 21) = {24.02874817285991, -2.761762257457839, 0};
Point(p18 + 22) = {24.05102830777199, -2.854565698284742, 0};
Point(p18 + 23) = {24.0875517938712, -2.942741193770587, 0};
Point(p18 + 24) = {24.13741930171526, -3.024117570578823, 0};
Point(p18 + 25) = {24.19940292776028, -3.096691072239719, 0};
Point(p18 + 26) = {24.27197642942118, -3.158674698284742, 0};
Point(p18 + 27) = {24.35335280622941, -3.208542206128801, 0};
Point(p18 + 28) = {24.44152830171526, -3.245065692228005, 0};
Point(p18 + 29) = {24.53433174254216, -3.267345827140093, 0};
Point(p18 + 30) = {24.629478, -3.274834, 0};
Point(p18 + 31) = {24.72462425745784, -3.267345827140093, 0};
Point(p18 + 32) = {24.81742769828474, -3.245065692228006, 0};
Point(p18 + 33) = {24.90560319377059, -3.208542206128801, 0};
Point(p18 + 34) = {24.98697957057882, -3.158674698284742, 0};
Point(p18 + 35) = {25.05955307223972, -3.096691072239719, 0};
Point(p18 + 36) = {25.12153669828474, -3.024117570578823, 0};
Point(p18 + 37) = {25.1714042061288, -2.942741193770588, 0};
Point(p18 + 38) = {25.207927692228, -2.854565698284742, 0};
Point(p18 + 39) = {25.23020782714009, -2.761762257457839, 0};
Spline(18) = {12, p18 + 1, p18 + 2, p18 + 3, p18 + 4, p18 + 5, p18 + 6, p18 + 7, p18 + 8, p18 + 9, p18 + 10, p18 + 11, p18 + 12, p18 + 13, p18 + 14, p18 + 15, p18 + 16, p18 + 17, p18 + 18, p18 + 19, p18 + 20, p18 + 21, p18 + 22, p18 + 23, p18 + 24, p18 + 25, p18 + 26, p18 + 27, p18 + 28, p18 + 29, p18 + 30, p18 + 31, p18 + 32, p18 + 33, p18 + 34, p18 + 35, p18 + 36, p18 + 37, p18 + 38, p18 + 39, 12};
Line(19) = {14, 13};
Line(20) = {13, 15};
Line(21) = {16, 15};
Line(22) = {14, 16};
Line(23) = {14, 17};
Line(24) = {17, 18};
Line(25) = {13, 18};
Line(26) = {15, 19};
Line(27) = {18, 19};
Line(28) = {16, 20};
Line(29) = {20, 19};
Line(30) = {17, 20};
Curve Loop(7) = {-13, -14, 15, 14};
Surface(7) = {7};
Curve Loop(8) = {13};
Plane Surface(8) = {8};
Curve Loop(9) = {15};
Plane Surface(9) = {9};
Curve Loop(10) = {-16, -17, 18, 17};
Surface(10) = {10};
Curve Loop(11) = {16};
Plane Surface(11) = {11};
Curve Loop(12) = {18};
Plane Surface(12) = {12};
Curve Loop(13) = {-19, 22, 21, -20};
Plane Surface(13) = {13};
Curve Loop(14) = {-23, 19, 25, -24};
Plane Surface(14) = {14};
Curve Loop(15) = {-20, 25, 27, -26};
Plane Surface(15) = {15};
Curve Loop(16) = {-28, 21, 26, -29};
Plane Surface(16) = {16};
Curve Loop(17) = {-22, 23, 30, -28, -18, -15};
Plane Surface(17) = {17};
Curve Loop(18) = {-24, 30, 29, -27};
Plane Surface(18) = {18};
Surface Loop(1) = {13, 14, 15, 16, 17, 18, 10, 7, 11, 8};
Volume(1) = {1};
Surface Loop(2) = {7, 8, 9};
Volume(2) = {2};
Surface Loop(3) = {10, 11, 12};
Volume(3) = {3};
Physical Surface("WALLS") = {13, 18};
Physical Surface("LOAD") = {8, 11};
Physical Surface("BORDER") = {7, 9, 10, 12, 14, 15, 16, 17};
Physical Volume("SOLID") = {1, 2, 3};
