cl__1 = 0.11645;
cl__2 = 0.08953999999999999;
cl__3 = 0.760925;
cl__4 = 0.63406;
cl__5 = 1.990312;
cl__6 = 2.444724;
Point(9) = {12.381455, 2.897937999999999, 0.1, cl__1};
Point(10) = {12.381455, 2.897937999999999, 0, cl__1};
Point(11) = {15.023784, -2.582503, 0.1, cl__2};
Point(12) = {15.023784, -2.582503, 0, cl__2};
Point(13) = {0.460936, -4.383003, 0.1, cl__3};
Point(14) = {0.460936, -4.383003, 0, cl__3};
Point(15) = {0.460936, 5.282860999999999, 0.1, cl__4};
Point(16) = {0.460936, 5.282860999999999, 0, cl__4};
Point(17) = {34.490747, -4.383003, 0, cl__5};
Point(18) = {34.490747, -4.383003, 0.1, cl__5};
Point(19) = {34.490747, 5.282860999999999, 0.1, cl__6};
Point(20) = {34.490747, 5.282860999999999, 0, cl__6};
p13 = newp;
Point(p13 + 1) = {12.36711804799972, 3.080106247408279, 0.1};
Point(p13 + 2) = {12.32446021533874, 3.257788907983615, 0.1};
Point(p13 + 3) = {12.2545318794304, 3.426610844927701, 0.1};
Point(p13 + 4) = {12.15905490798361, 3.582415101865089, 0.1};
Point(p13 + 5) = {12.0403802609053, 3.721365260905297, 0.1};
Point(p13 + 6) = {11.90143010186509, 3.840039907983614, 0.1};
Point(p13 + 7) = {11.7456258449277, 3.935516879430403, 0.1};
Point(p13 + 8) = {11.57680390798362, 4.005445215338739, 0.1};
Point(p13 + 9) = {11.39912124740828, 4.048103047999719, 0.1};
Point(p13 + 10) = {11.216953, 4.06244, 0.1};
Point(p13 + 11) = {11.03478475259172, 4.048103047999719, 0.1};
Point(p13 + 12) = {10.85710209201638, 4.005445215338739, 0.1};
Point(p13 + 13) = {10.6882801550723, 3.935516879430403, 0.1};
Point(p13 + 14) = {10.53247589813491, 3.840039907983615, 0.1};
Point(p13 + 15) = {10.3935257390947, 3.721365260905297, 0.1};
Point(p13 + 16) = {10.27485109201639, 3.582415101865089, 0.1};
Point(p13 + 17) = {10.1793741205696, 3.426610844927702, 0.1};
Point(p13 + 18) = {10.10944578466126, 3.257788907983615, 0.1};
Point(p13 + 19) = {10.06678795200028, 3.080106247408279, 0.1};
Point(p13 + 20) = {10.052451, 2.897938, 0.1};
Point(p13 + 21) = {10.06678795200028, 2.715769752591721, 0.1};
Point(p13 + 22) = {10.10944578466126, 2.538087092016385, 0.1};
Point(p13 + 23) = {10.1793741205696, 2.369265155072299, 0.1};
Point(p13 + 24) = {10.27485109201639, 2.21346089813491, 0.1};
Point(p13 + 25) = {10.3935257390947, 2.074510739094703, 0.1};
Point(p13 + 26) = {10.53247589813491, 1.955836092016385, 0.1};
Point(p13 + 27) = {10.6882801550723, 1.860359120569597, 0.1};
Point(p13 + 28) = {10.85710209201638, 1.790430784661261, 0.1};
Point(p13 + 29) = {11.03478475259172, 1.747772952000281, 0.1};
Point(p13 + 30) = {11.216953, 1.733436, 0.1};
Point(p13 + 31) = {11.39912124740828, 1.747772952000281, 0.1};
Point(p13 + 32) = {11.57680390798362, 1.790430784661261, 0.1};
Point(p13 + 33) = {11.7456258449277, 1.860359120569597, 0.1};
Point(p13 + 34) = {11.90143010186509, 1.955836092016385, 0.1};
Point(p13 + 35) = {12.0403802609053, 2.074510739094703, 0.1};
Point(p13 + 36) = {12.15905490798361, 2.21346089813491, 0.1};
Point(p13 + 37) = {12.2545318794304, 2.369265155072298, 0.1};
Point(p13 + 38) = {12.32446021533874, 2.538087092016385, 0.1};
Point(p13 + 39) = {12.36711804799972, 2.715769752591721, 0.1};
Spline(13) = {9, p13 + 1, p13 + 2, p13 + 3, p13 + 4, p13 + 5, p13 + 6, p13 + 7, p13 + 8, p13 + 9, p13 + 10, p13 + 11, p13 + 12, p13 + 13, p13 + 14, p13 + 15, p13 + 16, p13 + 17, p13 + 18, p13 + 19, p13 + 20, p13 + 21, p13 + 22, p13 + 23, p13 + 24, p13 + 25, p13 + 26, p13 + 27, p13 + 28, p13 + 29, p13 + 30, p13 + 31, p13 + 32, p13 + 33, p13 + 34, p13 + 35, p13 + 36, p13 + 37, p13 + 38, p13 + 39, 9};
Line(14) = {10, 9};
p15 = newp;
Point(p15 + 1) = {12.36711804799972, 3.080106247408279, 0};
Point(p15 + 2) = {12.32446021533874, 3.257788907983615, 0};
Point(p15 + 3) = {12.2545318794304, 3.426610844927701, 0};
Point(p15 + 4) = {12.15905490798361, 3.582415101865089, 0};
Point(p15 + 5) = {12.0403802609053, 3.721365260905297, 0};
Point(p15 + 6) = {11.90143010186509, 3.840039907983614, 0};
Point(p15 + 7) = {11.7456258449277, 3.935516879430403, 0};
Point(p15 + 8) = {11.57680390798362, 4.005445215338739, 0};
Point(p15 + 9) = {11.39912124740828, 4.048103047999719, 0};
Point(p15 + 10) = {11.216953, 4.06244, 0};
Point(p15 + 11) = {11.03478475259172, 4.048103047999719, 0};
Point(p15 + 12) = {10.85710209201638, 4.005445215338739, 0};
Point(p15 + 13) = {10.6882801550723, 3.935516879430403, 0};
Point(p15 + 14) = {10.53247589813491, 3.840039907983615, 0};
Point(p15 + 15) = {10.3935257390947, 3.721365260905297, 0};
Point(p15 + 16) = {10.27485109201639, 3.582415101865089, 0};
Point(p15 + 17) = {10.1793741205696, 3.426610844927702, 0};
Point(p15 + 18) = {10.10944578466126, 3.257788907983615, 0};
Point(p15 + 19) = {10.06678795200028, 3.080106247408279, 0};
Point(p15 + 20) = {10.052451, 2.897938, 0};
Point(p15 + 21) = {10.06678795200028, 2.715769752591721, 0};
Point(p15 + 22) = {10.10944578466126, 2.538087092016385, 0};
Point(p15 + 23) = {10.1793741205696, 2.369265155072299, 0};
Point(p15 + 24) = {10.27485109201639, 2.21346089813491, 0};
Point(p15 + 25) = {10.3935257390947, 2.074510739094703, 0};
Point(p15 + 26) = {10.53247589813491, 1.955836092016385, 0};
Point(p15 + 27) = {10.6882801550723, 1.860359120569597, 0};
Point(p15 + 28) = {10.85710209201638, 1.790430784661261, 0};
Point(p15 + 29) = {11.03478475259172, 1.747772952000281, 0};
Point(p15 + 30) = {11.216953, 1.733436, 0};
Point(p15 + 31) = {11.39912124740828, 1.747772952000281, 0};
Point(p15 + 32) = {11.57680390798362, 1.790430784661261, 0};
Point(p15 + 33) = {11.7456258449277, 1.860359120569597, 0};
Point(p15 + 34) = {11.90143010186509, 1.955836092016385, 0};
Point(p15 + 35) = {12.0403802609053, 2.074510739094703, 0};
Point(p15 + 36) = {12.15905490798361, 2.21346089813491, 0};
Point(p15 + 37) = {12.2545318794304, 2.369265155072298, 0};
Point(p15 + 38) = {12.32446021533874, 2.538087092016385, 0};
Point(p15 + 39) = {12.36711804799972, 2.715769752591721, 0};
Spline(15) = {10, p15 + 1, p15 + 2, p15 + 3, p15 + 4, p15 + 5, p15 + 6, p15 + 7, p15 + 8, p15 + 9, p15 + 10, p15 + 11, p15 + 12, p15 + 13, p15 + 14, p15 + 15, p15 + 16, p15 + 17, p15 + 18, p15 + 19, p15 + 20, p15 + 21, p15 + 22, p15 + 23, p15 + 24, p15 + 25, p15 + 26, p15 + 27, p15 + 28, p15 + 29, p15 + 30, p15 + 31, p15 + 32, p15 + 33, p15 + 34, p15 + 35, p15 + 36, p15 + 37, p15 + 38, p15 + 39, 10};
p16 = newp;
Point(p16 + 1) = {15.01276017710386, -2.442432049306372, 0.1};
Point(p16 + 2) = {14.97996015152113, -2.305810110287655, 0.1};
Point(p16 + 3) = {14.92619156873869, -2.176001268504709, 0.1};
Point(p16 + 4) = {14.85277838971234, -2.056201848453076, 0.1};
Point(p16 + 5) = {14.76152829055409, -1.949361709445909, 0.1};
Point(p16 + 6) = {14.65468815154692, -1.858111610287655, 0.1};
Point(p16 + 7) = {14.53488873149529, -1.784698431261308, 0.1};
Point(p16 + 8) = {14.40507988971235, -1.730929848478868, 0.1};
Point(p16 + 9) = {14.26845795069363, -1.698129822896135, 0.1};
Point(p16 + 10) = {14.128387, -1.687106, 0.1};
Point(p16 + 11) = {13.98831604930637, -1.698129822896135, 0.1};
Point(p16 + 12) = {13.85169411028765, -1.730929848478868, 0.1};
Point(p16 + 13) = {13.72188526850471, -1.784698431261308, 0.1};
Point(p16 + 14) = {13.60208584845308, -1.858111610287655, 0.1};
Point(p16 + 15) = {13.49524570944591, -1.949361709445909, 0.1};
Point(p16 + 16) = {13.40399561028766, -2.056201848453076, 0.1};
Point(p16 + 17) = {13.33058243126131, -2.176001268504709, 0.1};
Point(p16 + 18) = {13.27681384847887, -2.305810110287655, 0.1};
Point(p16 + 19) = {13.24401382289614, -2.442432049306372, 0.1};
Point(p16 + 20) = {13.23299, -2.582503, 0.1};
Point(p16 + 21) = {13.24401382289614, -2.722573950693628, 0.1};
Point(p16 + 22) = {13.27681384847887, -2.859195889712345, 0.1};
Point(p16 + 23) = {13.33058243126131, -2.989004731495291, 0.1};
Point(p16 + 24) = {13.40399561028766, -3.108804151546924, 0.1};
Point(p16 + 25) = {13.49524570944591, -3.215644290554091, 0.1};
Point(p16 + 26) = {13.60208584845308, -3.306894389712345, 0.1};
Point(p16 + 27) = {13.72188526850471, -3.380307568738692, 0.1};
Point(p16 + 28) = {13.85169411028765, -3.434076151521132, 0.1};
Point(p16 + 29) = {13.98831604930637, -3.466876177103865, 0.1};
Point(p16 + 30) = {14.128387, -3.4779, 0.1};
Point(p16 + 31) = {14.26845795069363, -3.466876177103865, 0.1};
Point(p16 + 32) = {14.40507988971235, -3.434076151521132, 0.1};
Point(p16 + 33) = {14.53488873149529, -3.380307568738692, 0.1};
Point(p16 + 34) = {14.65468815154692, -3.306894389712345, 0.1};
Point(p16 + 35) = {14.76152829055409, -3.215644290554091, 0.1};
Point(p16 + 36) = {14.85277838971234, -3.108804151546924, 0.1};
Point(p16 + 37) = {14.92619156873869, -2.989004731495291, 0.1};
Point(p16 + 38) = {14.97996015152113, -2.859195889712345, 0.1};
Point(p16 + 39) = {15.01276017710386, -2.722573950693628, 0.1};
Spline(16) = {11, p16 + 1, p16 + 2, p16 + 3, p16 + 4, p16 + 5, p16 + 6, p16 + 7, p16 + 8, p16 + 9, p16 + 10, p16 + 11, p16 + 12, p16 + 13, p16 + 14, p16 + 15, p16 + 16, p16 + 17, p16 + 18, p16 + 19, p16 + 20, p16 + 21, p16 + 22, p16 + 23, p16 + 24, p16 + 25, p16 + 26, p16 + 27, p16 + 28, p16 + 29, p16 + 30, p16 + 31, p16 + 32, p16 + 33, p16 + 34, p16 + 35, p16 + 36, p16 + 37, p16 + 38, p16 + 39, 11};
Line(17) = {12, 11};
p18 = newp;
Point(p18 + 1) = {15.01276017710386, -2.442432049306372, 0};
Point(p18 + 2) = {14.97996015152113, -2.305810110287655, 0};
Point(p18 + 3) = {14.92619156873869, -2.176001268504709, 0};
Point(p18 + 4) = {14.85277838971234, -2.056201848453076, 0};
Point(p18 + 5) = {14.76152829055409, -1.949361709445909, 0};
Point(p18 + 6) = {14.65468815154692, -1.858111610287655, 0};
Point(p18 + 7) = {14.53488873149529, -1.784698431261308, 0};
Point(p18 + 8) = {14.40507988971235, -1.730929848478868, 0};
Point(p18 + 9) = {14.26845795069363, -1.698129822896135, 0};
Point(p18 + 10) = {14.128387, -1.687106, 0};
Point(p18 + 11) = {13.98831604930637, -1.698129822896135, 0};
Point(p18 + 12) = {13.85169411028765, -1.730929848478868, 0};
Point(p18 + 13) = {13.72188526850471, -1.784698431261308, 0};
Point(p18 + 14) = {13.60208584845308, -1.858111610287655, 0};
Point(p18 + 15) = {13.49524570944591, -1.949361709445909, 0};
Point(p18 + 16) = {13.40399561028766, -2.056201848453076, 0};
Point(p18 + 17) = {13.33058243126131, -2.176001268504709, 0};
Point(p18 + 18) = {13.27681384847887, -2.305810110287655, 0};
Point(p18 + 19) = {13.24401382289614, -2.442432049306372, 0};
Point(p18 + 20) = {13.23299, -2.582503, 0};
Point(p18 + 21) = {13.24401382289614, -2.722573950693628, 0};
Point(p18 + 22) = {13.27681384847887, -2.859195889712345, 0};
Point(p18 + 23) = {13.33058243126131, -2.989004731495291, 0};
Point(p18 + 24) = {13.40399561028766, -3.108804151546924, 0};
Point(p18 + 25) = {13.49524570944591, -3.215644290554091, 0};
Point(p18 + 26) = {13.60208584845308, -3.306894389712345, 0};
Point(p18 + 27) = {13.72188526850471, -3.380307568738692, 0};
Point(p18 + 28) = {13.85169411028765, -3.434076151521132, 0};
Point(p18 + 29) = {13.98831604930637, -3.466876177103865, 0};
Point(p18 + 30) = {14.128387, -3.4779, 0};
Point(p18 + 31) = {14.26845795069363, -3.466876177103865, 0};
Point(p18 + 32) = {14.40507988971235, -3.434076151521132, 0};
Point(p18 + 33) = {14.53488873149529, -3.380307568738692, 0};
Point(p18 + 34) = {14.65468815154692, -3.306894389712345, 0};
Point(p18 + 35) = {14.76152829055409, -3.215644290554091, 0};
Point(p18 + 36) = {14.85277838971234, -3.108804151546924, 0};
Point(p18 + 37) = {14.92619156873869, -2.989004731495291, 0};
Point(p18 + 38) = {14.97996015152113, -2.859195889712345, 0};
Point(p18 + 39) = {15.01276017710386, -2.722573950693628, 0};
Spline(18) = {12, p18 + 1, p18 + 2, p18 + 3, p18 + 4, p18 + 5, p18 + 6, p18 + 7, p18 + 8, p18 + 9, p18 + 10, p18 + 11, p18 + 12, p18 + 13, p18 + 14, p18 + 15, p18 + 16, p18 + 17, p18 + 18, p18 + 19, p18 + 20, p18 + 21, p18 + 22, p18 + 23, p18 + 24, p18 + 25, p18 + 26, p18 + 27, p18 + 28, p18 + 29, p18 + 30, p18 + 31, p18 + 32, p18 + 33, p18 + 34, p18 + 35, p18 + 36, p18 + 37, p18 + 38, p18 + 39, 12};
Line(19) = {14, 13};
Line(20) = {13, 15};
Line(21) = {16, 15};
Line(22) = {14, 16};
Line(23) = {14, 17};
Line(24) = {17, 18};
Line(25) = {13, 18};
Line(26) = {15, 19};
Line(27) = {18, 19};
Line(28) = {16, 20};
Line(29) = {20, 19};
Line(30) = {17, 20};
Curve Loop(7) = {-13, -14, 15, 14};
Surface(7) = {7};
Curve Loop(8) = {13};
Plane Surface(8) = {8};
Curve Loop(9) = {15};
Plane Surface(9) = {9};
Curve Loop(10) = {-16, -17, 18, 17};
Surface(10) = {10};
Curve Loop(11) = {16};
Plane Surface(11) = {11};
Curve Loop(12) = {18};
Plane Surface(12) = {12};
Curve Loop(13) = {-19, 22, 21, -20};
Plane Surface(13) = {13};
Curve Loop(14) = {-23, 19, 25, -24};
Plane Surface(14) = {14};
Curve Loop(15) = {-20, 25, 27, -26, -16, -13};
Plane Surface(15) = {15};
Curve Loop(16) = {-28, 21, 26, -29};
Plane Surface(16) = {16};
Curve Loop(17) = {-22, 23, 30, -28, -18, -15};
Plane Surface(17) = {17};
Curve Loop(18) = {-24, 30, 29, -27};
Plane Surface(18) = {18};
Surface Loop(1) = {13, 14, 15, 16, 17, 18, 10, 7};
Volume(1) = {1};
Surface Loop(2) = {7, 8, 9};
Volume(2) = {2};
Surface Loop(3) = {10, 11, 12};
Volume(3) = {3};
Physical Surface("WALLS") = {13, 18};
Physical Surface("LOAD") = {8, 11};
Physical Surface("BORDER") = {7, 9, 10, 12, 14, 15, 16, 17};
Physical Volume("SOLID") = {1, 2, 3};
