cl__1 = 0.098468;
cl__2 = 0.088838;
cl__3 = 2.994263;
cl__4 = 3.165003;
cl__5 = 0.47767;
cl__6 = 0.612779;
Point(9) = {15.31111, 0.4209059999999997, 0.1, cl__1};
Point(10) = {15.31111, 0.4209059999999997, 0, cl__1};
Point(11) = {37.298751, 0.02262799999999978, 0.1, cl__2};
Point(12) = {37.298751, 0.02262799999999978, 0, cl__2};
Point(13) = {0.802168, -3.932548, 0.1, cl__3};
Point(14) = {0.802168, -3.932548, 0, cl__3};
Point(15) = {0.802168, 5.522240999999999, 0.1, cl__4};
Point(16) = {0.802168, 5.522240999999999, 0, cl__4};
Point(17) = {39.894036, -3.932548, 0, cl__5};
Point(18) = {39.894036, -3.932548, 0.1, cl__5};
Point(19) = {39.894036, 5.522240999999999, 0.1, cl__6};
Point(20) = {39.894036, 5.522240999999999, 0, cl__6};
p13 = newp;
Point(p13 + 1) = {15.29898696752888, 0.5749437326013495, 0.1};
Point(p13 + 2) = {15.262916379409, 0.7251885450041289, 0.1};
Point(p13 + 3) = {15.20378641323128, 0.8679409112930372, 0.1};
Point(p13 + 4) = {15.12305304500413, 0.9996857944421002, 0.1};
Point(p13 + 5) = {15.02270419819199, 1.117179198191988, 0.1};
Point(p13 + 6) = {14.9052107944421, 1.217528045004129, 0.1};
Point(p13 + 7) = {14.77346591129304, 1.298261413231278, 0.1};
Point(p13 + 8) = {14.63071354500413, 1.357391379408996, 0.1};
Point(p13 + 9) = {14.48046873260135, 1.39346196752888, 0.1};
Point(p13 + 10) = {14.326431, 1.405585, 0.1};
Point(p13 + 11) = {14.17239326739865, 1.39346196752888, 0.1};
Point(p13 + 12) = {14.02214845499587, 1.357391379408996, 0.1};
Point(p13 + 13) = {13.87939608870696, 1.298261413231278, 0.1};
Point(p13 + 14) = {13.7476512055579, 1.217528045004129, 0.1};
Point(p13 + 15) = {13.63015780180801, 1.117179198191988, 0.1};
Point(p13 + 16) = {13.52980895499587, 0.9996857944421003, 0.1};
Point(p13 + 17) = {13.44907558676872, 0.8679409112930372, 0.1};
Point(p13 + 18) = {13.389945620591, 0.7251885450041289, 0.1};
Point(p13 + 19) = {13.35387503247112, 0.5749437326013496, 0.1};
Point(p13 + 20) = {13.341752, 0.4209060000000001, 0.1};
Point(p13 + 21) = {13.35387503247112, 0.2668682673986507, 0.1};
Point(p13 + 22) = {13.389945620591, 0.1166234549958708, 0.1};
Point(p13 + 23) = {13.44907558676872, -0.02612891129303668, 0.1};
Point(p13 + 24) = {13.52980895499587, -0.1578737944421, 0.1};
Point(p13 + 25) = {13.63015780180801, -0.2753671981919883, 0.1};
Point(p13 + 26) = {13.7476512055579, -0.3757160450041287, 0.1};
Point(p13 + 27) = {13.87939608870696, -0.4564494132312777, 0.1};
Point(p13 + 28) = {14.02214845499587, -0.5155793794089955, 0.1};
Point(p13 + 29) = {14.17239326739865, -0.5516499675288795, 0.1};
Point(p13 + 30) = {14.326431, -0.563773, 0.1};
Point(p13 + 31) = {14.48046873260135, -0.5516499675288796, 0.1};
Point(p13 + 32) = {14.63071354500413, -0.5155793794089956, 0.1};
Point(p13 + 33) = {14.77346591129304, -0.456449413231278, 0.1};
Point(p13 + 34) = {14.9052107944421, -0.3757160450041289, 0.1};
Point(p13 + 35) = {15.02270419819199, -0.2753671981919885, 0.1};
Point(p13 + 36) = {15.12305304500413, -0.1578737944421003, 0.1};
Point(p13 + 37) = {15.20378641323128, -0.02612891129303735, 0.1};
Point(p13 + 38) = {15.262916379409, 0.116623454995871, 0.1};
Point(p13 + 39) = {15.29898696752888, 0.2668682673986503, 0.1};
Spline(13) = {9, p13 + 1, p13 + 2, p13 + 3, p13 + 4, p13 + 5, p13 + 6, p13 + 7, p13 + 8, p13 + 9, p13 + 10, p13 + 11, p13 + 12, p13 + 13, p13 + 14, p13 + 15, p13 + 16, p13 + 17, p13 + 18, p13 + 19, p13 + 20, p13 + 21, p13 + 22, p13 + 23, p13 + 24, p13 + 25, p13 + 26, p13 + 27, p13 + 28, p13 + 29, p13 + 30, p13 + 31, p13 + 32, p13 + 33, p13 + 34, p13 + 35, p13 + 36, p13 + 37, p13 + 38, p13 + 39, 9};
Line(14) = {10, 9};
p15 = newp;
Point(p15 + 1) = {15.29898696752888, 0.5749437326013495, 0};
Point(p15 + 2) = {15.262916379409, 0.7251885450041289, 0};
Point(p15 + 3) = {15.20378641323128, 0.8679409112930372, 0};
Point(p15 + 4) = {15.12305304500413, 0.9996857944421002, 0};
Point(p15 + 5) = {15.02270419819199, 1.117179198191988, 0};
Point(p15 + 6) = {14.9052107944421, 1.217528045004129, 0};
Point(p15 + 7) = {14.77346591129304, 1.298261413231278, 0};
Point(p15 + 8) = {14.63071354500413, 1.357391379408996, 0};
Point(p15 + 9) = {14.48046873260135, 1.39346196752888, 0};
Point(p15 + 10) = {14.326431, 1.405585, 0};
Point(p15 + 11) = {14.17239326739865, 1.39346196752888, 0};
Point(p15 + 12) = {14.02214845499587, 1.357391379408996, 0};
Point(p15 + 13) = {13.87939608870696, 1.298261413231278, 0};
Point(p15 + 14) = {13.7476512055579, 1.217528045004129, 0};
Point(p15 + 15) = {13.63015780180801, 1.117179198191988, 0};
Point(p15 + 16) = {13.52980895499587, 0.9996857944421003, 0};
Point(p15 + 17) = {13.44907558676872, 0.8679409112930372, 0};
Point(p15 + 18) = {13.389945620591, 0.7251885450041289, 0};
Point(p15 + 19) = {13.35387503247112, 0.5749437326013496, 0};
Point(p15 + 20) = {13.341752, 0.4209060000000001, 0};
Point(p15 + 21) = {13.35387503247112, 0.2668682673986507, 0};
Point(p15 + 22) = {13.389945620591, 0.1166234549958708, 0};
Point(p15 + 23) = {13.44907558676872, -0.02612891129303668, 0};
Point(p15 + 24) = {13.52980895499587, -0.1578737944421, 0};
Point(p15 + 25) = {13.63015780180801, -0.2753671981919883, 0};
Point(p15 + 26) = {13.7476512055579, -0.3757160450041287, 0};
Point(p15 + 27) = {13.87939608870696, -0.4564494132312777, 0};
Point(p15 + 28) = {14.02214845499587, -0.5155793794089955, 0};
Point(p15 + 29) = {14.17239326739865, -0.5516499675288795, 0};
Point(p15 + 30) = {14.326431, -0.563773, 0};
Point(p15 + 31) = {14.48046873260135, -0.5516499675288796, 0};
Point(p15 + 32) = {14.63071354500413, -0.5155793794089956, 0};
Point(p15 + 33) = {14.77346591129304, -0.456449413231278, 0};
Point(p15 + 34) = {14.9052107944421, -0.3757160450041289, 0};
Point(p15 + 35) = {15.02270419819199, -0.2753671981919885, 0};
Point(p15 + 36) = {15.12305304500413, -0.1578737944421003, 0};
Point(p15 + 37) = {15.20378641323128, -0.02612891129303735, 0};
Point(p15 + 38) = {15.262916379409, 0.116623454995871, 0};
Point(p15 + 39) = {15.29898696752888, 0.2668682673986503, 0};
Spline(15) = {10, p15 + 1, p15 + 2, p15 + 3, p15 + 4, p15 + 5, p15 + 6, p15 + 7, p15 + 8, p15 + 9, p15 + 10, p15 + 11, p15 + 12, p15 + 13, p15 + 14, p15 + 15, p15 + 16, p15 + 17, p15 + 18, p15 + 19, p15 + 20, p15 + 21, p15 + 22, p15 + 23, p15 + 24, p15 + 25, p15 + 26, p15 + 27, p15 + 28, p15 + 29, p15 + 30, p15 + 31, p15 + 32, p15 + 33, p15 + 34, p15 + 35, p15 + 36, p15 + 37, p15 + 38, p15 + 39, 10};
p16 = newp;
Point(p16 + 1) = {37.28781355570625, 0.1616014064869054, 0.1};
Point(p16 + 2) = {37.25527053900281, 0.2971528264798101, 0.1};
Point(p16 + 3) = {37.20192326696499, 0.4259445341491183, 0.1};
Point(p16 + 4) = {37.12908532647981, 0.5448052502168396, 0.1};
Point(p16 + 5) = {37.03855022937729, 0.6508082293772862, 0.1};
Point(p16 + 6) = {36.93254725021684, 0.74134332647981, 0.1};
Point(p16 + 7) = {36.81368653414912, 0.8141812669649863, 0.1};
Point(p16 + 8) = {36.68489482647981, 0.8675285390028048, 0.1};
Point(p16 + 9) = {36.5493434064869, 0.9000715557062491, 0.1};
Point(p16 + 10) = {36.41037, 0.911009, 0.1};
Point(p16 + 11) = {36.2713965935131, 0.900071555706249, 0.1};
Point(p16 + 12) = {36.13584517352019, 0.8675285390028048, 0.1};
Point(p16 + 13) = {36.00705346585088, 0.8141812669649864, 0.1};
Point(p16 + 14) = {35.88819274978316, 0.7413433264798102, 0.1};
Point(p16 + 15) = {35.78218977062271, 0.6508082293772863, 0.1};
Point(p16 + 16) = {35.69165467352019, 0.5448052502168397, 0.1};
Point(p16 + 17) = {35.61881673303501, 0.4259445341491184, 0.1};
Point(p16 + 18) = {35.56546946099719, 0.2971528264798102, 0.1};
Point(p16 + 19) = {35.53292644429375, 0.1616014064869054, 0.1};
Point(p16 + 20) = {35.521989, 0.02262800000000011, 0.1};
Point(p16 + 21) = {35.53292644429375, -0.1163454064869052, 0.1};
Point(p16 + 22) = {35.56546946099719, -0.2518968264798104, 0.1};
Point(p16 + 23) = {35.61881673303501, -0.3806885341491179, 0.1};
Point(p16 + 24) = {35.69165467352019, -0.4995492502168395, 0.1};
Point(p16 + 25) = {35.78218977062271, -0.6055522293772863, 0.1};
Point(p16 + 26) = {35.88819274978316, -0.6960873264798101, 0.1};
Point(p16 + 27) = {36.00705346585088, -0.7689252669649863, 0.1};
Point(p16 + 28) = {36.13584517352019, -0.8222725390028048, 0.1};
Point(p16 + 29) = {36.2713965935131, -0.854815555706249, 0.1};
Point(p16 + 30) = {36.41037, -0.865753, 0.1};
Point(p16 + 31) = {36.5493434064869, -0.8548155557062491, 0.1};
Point(p16 + 32) = {36.68489482647981, -0.8222725390028048, 0.1};
Point(p16 + 33) = {36.81368653414912, -0.7689252669649865, 0.1};
Point(p16 + 34) = {36.93254725021684, -0.6960873264798103, 0.1};
Point(p16 + 35) = {37.03855022937729, -0.6055522293772864, 0.1};
Point(p16 + 36) = {37.12908532647981, -0.4995492502168397, 0.1};
Point(p16 + 37) = {37.20192326696499, -0.3806885341491185, 0.1};
Point(p16 + 38) = {37.25527053900281, -0.2518968264798104, 0.1};
Point(p16 + 39) = {37.28781355570625, -0.1163454064869056, 0.1};
Spline(16) = {11, p16 + 1, p16 + 2, p16 + 3, p16 + 4, p16 + 5, p16 + 6, p16 + 7, p16 + 8, p16 + 9, p16 + 10, p16 + 11, p16 + 12, p16 + 13, p16 + 14, p16 + 15, p16 + 16, p16 + 17, p16 + 18, p16 + 19, p16 + 20, p16 + 21, p16 + 22, p16 + 23, p16 + 24, p16 + 25, p16 + 26, p16 + 27, p16 + 28, p16 + 29, p16 + 30, p16 + 31, p16 + 32, p16 + 33, p16 + 34, p16 + 35, p16 + 36, p16 + 37, p16 + 38, p16 + 39, 11};
Line(17) = {12, 11};
p18 = newp;
Point(p18 + 1) = {37.28781355570625, 0.1616014064869054, 0};
Point(p18 + 2) = {37.25527053900281, 0.2971528264798101, 0};
Point(p18 + 3) = {37.20192326696499, 0.4259445341491183, 0};
Point(p18 + 4) = {37.12908532647981, 0.5448052502168396, 0};
Point(p18 + 5) = {37.03855022937729, 0.6508082293772862, 0};
Point(p18 + 6) = {36.93254725021684, 0.74134332647981, 0};
Point(p18 + 7) = {36.81368653414912, 0.8141812669649863, 0};
Point(p18 + 8) = {36.68489482647981, 0.8675285390028048, 0};
Point(p18 + 9) = {36.5493434064869, 0.9000715557062491, 0};
Point(p18 + 10) = {36.41037, 0.911009, 0};
Point(p18 + 11) = {36.2713965935131, 0.900071555706249, 0};
Point(p18 + 12) = {36.13584517352019, 0.8675285390028048, 0};
Point(p18 + 13) = {36.00705346585088, 0.8141812669649864, 0};
Point(p18 + 14) = {35.88819274978316, 0.7413433264798102, 0};
Point(p18 + 15) = {35.78218977062271, 0.6508082293772863, 0};
Point(p18 + 16) = {35.69165467352019, 0.5448052502168397, 0};
Point(p18 + 17) = {35.61881673303501, 0.4259445341491184, 0};
Point(p18 + 18) = {35.56546946099719, 0.2971528264798102, 0};
Point(p18 + 19) = {35.53292644429375, 0.1616014064869054, 0};
Point(p18 + 20) = {35.521989, 0.02262800000000011, 0};
Point(p18 + 21) = {35.53292644429375, -0.1163454064869052, 0};
Point(p18 + 22) = {35.56546946099719, -0.2518968264798104, 0};
Point(p18 + 23) = {35.61881673303501, -0.3806885341491179, 0};
Point(p18 + 24) = {35.69165467352019, -0.4995492502168395, 0};
Point(p18 + 25) = {35.78218977062271, -0.6055522293772863, 0};
Point(p18 + 26) = {35.88819274978316, -0.6960873264798101, 0};
Point(p18 + 27) = {36.00705346585088, -0.7689252669649863, 0};
Point(p18 + 28) = {36.13584517352019, -0.8222725390028048, 0};
Point(p18 + 29) = {36.2713965935131, -0.854815555706249, 0};
Point(p18 + 30) = {36.41037, -0.865753, 0};
Point(p18 + 31) = {36.5493434064869, -0.8548155557062491, 0};
Point(p18 + 32) = {36.68489482647981, -0.8222725390028048, 0};
Point(p18 + 33) = {36.81368653414912, -0.7689252669649865, 0};
Point(p18 + 34) = {36.93254725021684, -0.6960873264798103, 0};
Point(p18 + 35) = {37.03855022937729, -0.6055522293772864, 0};
Point(p18 + 36) = {37.12908532647981, -0.4995492502168397, 0};
Point(p18 + 37) = {37.20192326696499, -0.3806885341491185, 0};
Point(p18 + 38) = {37.25527053900281, -0.2518968264798104, 0};
Point(p18 + 39) = {37.28781355570625, -0.1163454064869056, 0};
Spline(18) = {12, p18 + 1, p18 + 2, p18 + 3, p18 + 4, p18 + 5, p18 + 6, p18 + 7, p18 + 8, p18 + 9, p18 + 10, p18 + 11, p18 + 12, p18 + 13, p18 + 14, p18 + 15, p18 + 16, p18 + 17, p18 + 18, p18 + 19, p18 + 20, p18 + 21, p18 + 22, p18 + 23, p18 + 24, p18 + 25, p18 + 26, p18 + 27, p18 + 28, p18 + 29, p18 + 30, p18 + 31, p18 + 32, p18 + 33, p18 + 34, p18 + 35, p18 + 36, p18 + 37, p18 + 38, p18 + 39, 12};
Line(19) = {14, 13};
Line(20) = {13, 15};
Line(21) = {16, 15};
Line(22) = {14, 16};
Line(23) = {14, 17};
Line(24) = {17, 18};
Line(25) = {13, 18};
Line(26) = {15, 19};
Line(27) = {18, 19};
Line(28) = {16, 20};
Line(29) = {20, 19};
Line(30) = {17, 20};
Curve Loop(7) = {-13, -14, 15, 14};
Surface(7) = {7};
Curve Loop(8) = {13};
Plane Surface(8) = {8};
Curve Loop(9) = {15};
Plane Surface(9) = {9};
Curve Loop(10) = {-16, -17, 18, 17};
Surface(10) = {10};
Curve Loop(11) = {16};
Plane Surface(11) = {11};
Curve Loop(12) = {18};
Plane Surface(12) = {12};
Curve Loop(13) = {-19, 22, 21, -20};
Plane Surface(13) = {13};
Curve Loop(14) = {-23, 19, 25, -24};
Plane Surface(14) = {14};
Curve Loop(15) = {-20, 25, 27, -26, -16, -13};
Plane Surface(15) = {15};
Curve Loop(16) = {-28, 21, 26, -29};
Plane Surface(16) = {16};
Curve Loop(17) = {-22, 23, 30, -28, -18, -15};
Plane Surface(17) = {17};
Curve Loop(18) = {-24, 30, 29, -27};
Plane Surface(18) = {18};
Surface Loop(1) = {13, 14, 15, 16, 17, 18, 10, 7};
Volume(1) = {1};
Surface Loop(2) = {7, 8, 9};
Volume(2) = {2};
Surface Loop(3) = {10, 11, 12};
Volume(3) = {3};
Physical Surface("WALLS") = {13, 18};
Physical Surface("LOAD") = {8, 11};
Physical Surface("BORDER") = {7, 9, 10, 12, 14, 15, 16, 17};
Physical Volume("SOLID") = {1, 2, 3};
