cl__1 = 0.07105300000000001;
cl__2 = 0.135433;
cl__3 = 1.300049;
cl__4 = 1.35625;
cl__5 = 0.851442;
cl__6 = 0.9502389999999999;
Point(9) = {13.413023, -0.01111000000000018, 0.1, cl__1};
Point(10) = {13.413023, -0.01111000000000018, 0, cl__1};
Point(11) = {25.678481, -1.15339, 0.1, cl__2};
Point(12) = {25.678481, -1.15339, 0, cl__2};
Point(13) = {0.548563, -4.279216, 0.1, cl__3};
Point(14) = {0.548563, -4.279216, 0, cl__3};
Point(15) = {0.548563, 4.753494, 0.1, cl__4};
Point(16) = {0.548563, 4.753494, 0, cl__4};
Point(17) = {34.713453, -4.279216, 0, cl__5};
Point(18) = {34.713453, -4.279216, 0.1, cl__5};
Point(19) = {34.713453, 4.753494, 0.1, cl__6};
Point(20) = {34.713453, 4.753494, 0, cl__6};
p13 = newp;
Point(p13 + 1) = {13.40427517201974, 0.1000416933139653, 0.1};
Point(p13 + 2) = {13.37824708863623, 0.2084564630472201, 0.1};
Point(p13 + 3) = {13.33557964764461, 0.3114647777609397, 0.1};
Point(p13 + 4) = {13.27732346304722, 0.4065302308818756, 0.1};
Point(p13 + 5) = {13.20491299545004, 0.49131199545004, 0.1};
Point(p13 + 6) = {13.12013123088188, 0.5637224630472202, 0.1};
Point(p13 + 7) = {13.02506577776094, 0.6219786476446094, 0.1};
Point(p13 + 8) = {12.92205746304722, 0.6646460886362281, 0.1};
Point(p13 + 9) = {12.81364269331397, 0.6906741720197446, 0.1};
Point(p13 + 10) = {12.702491, 0.6994220000000001, 0.1};
Point(p13 + 11) = {12.59133930668603, 0.6906741720197445, 0.1};
Point(p13 + 12) = {12.48292453695278, 0.6646460886362282, 0.1};
Point(p13 + 13) = {12.37991622223906, 0.6219786476446095, 0.1};
Point(p13 + 14) = {12.28485076911812, 0.5637224630472203, 0.1};
Point(p13 + 15) = {12.20006900454996, 0.4913119954500401, 0.1};
Point(p13 + 16) = {12.12765853695278, 0.4065302308818756, 0.1};
Point(p13 + 17) = {12.06940235235539, 0.3114647777609397, 0.1};
Point(p13 + 18) = {12.02673491136377, 0.2084564630472202, 0.1};
Point(p13 + 19) = {12.00070682798026, 0.1000416933139654, 0.1};
Point(p13 + 20) = {11.991959, -0.01110999999999991, 0.1};
Point(p13 + 21) = {12.00070682798026, -0.1222616933139652, 0.1};
Point(p13 + 22) = {12.02673491136377, -0.2306764630472204, 0.1};
Point(p13 + 23) = {12.06940235235539, -0.3336847777609394, 0.1};
Point(p13 + 24) = {12.12765853695278, -0.4287502308818755, 0.1};
Point(p13 + 25) = {12.20006900454996, -0.5135319954500399, 0.1};
Point(p13 + 26) = {12.28485076911812, -0.5859424630472201, 0.1};
Point(p13 + 27) = {12.37991622223906, -0.6441986476446093, 0.1};
Point(p13 + 28) = {12.48292453695278, -0.686866088636228, 0.1};
Point(p13 + 29) = {12.59133930668603, -0.7128941720197444, 0.1};
Point(p13 + 30) = {12.702491, -0.721642, 0.1};
Point(p13 + 31) = {12.81364269331397, -0.7128941720197445, 0.1};
Point(p13 + 32) = {12.92205746304722, -0.6868660886362281, 0.1};
Point(p13 + 33) = {13.02506577776094, -0.6441986476446095, 0.1};
Point(p13 + 34) = {13.12013123088188, -0.5859424630472202, 0.1};
Point(p13 + 35) = {13.20491299545004, -0.5135319954500401, 0.1};
Point(p13 + 36) = {13.27732346304722, -0.4287502308818756, 0.1};
Point(p13 + 37) = {13.33557964764461, -0.3336847777609398, 0.1};
Point(p13 + 38) = {13.37824708863623, -0.2306764630472203, 0.1};
Point(p13 + 39) = {13.40427517201974, -0.1222616933139655, 0.1};
Spline(13) = {9, p13 + 1, p13 + 2, p13 + 3, p13 + 4, p13 + 5, p13 + 6, p13 + 7, p13 + 8, p13 + 9, p13 + 10, p13 + 11, p13 + 12, p13 + 13, p13 + 14, p13 + 15, p13 + 16, p13 + 17, p13 + 18, p13 + 19, p13 + 20, p13 + 21, p13 + 22, p13 + 23, p13 + 24, p13 + 25, p13 + 26, p13 + 27, p13 + 28, p13 + 29, p13 + 30, p13 + 31, p13 + 32, p13 + 33, p13 + 34, p13 + 35, p13 + 36, p13 + 37, p13 + 38, p13 + 39, 9};
Line(14) = {10, 9};
p15 = newp;
Point(p15 + 1) = {13.40427517201974, 0.1000416933139653, 0};
Point(p15 + 2) = {13.37824708863623, 0.2084564630472201, 0};
Point(p15 + 3) = {13.33557964764461, 0.3114647777609397, 0};
Point(p15 + 4) = {13.27732346304722, 0.4065302308818756, 0};
Point(p15 + 5) = {13.20491299545004, 0.49131199545004, 0};
Point(p15 + 6) = {13.12013123088188, 0.5637224630472202, 0};
Point(p15 + 7) = {13.02506577776094, 0.6219786476446094, 0};
Point(p15 + 8) = {12.92205746304722, 0.6646460886362281, 0};
Point(p15 + 9) = {12.81364269331397, 0.6906741720197446, 0};
Point(p15 + 10) = {12.702491, 0.6994220000000001, 0};
Point(p15 + 11) = {12.59133930668603, 0.6906741720197445, 0};
Point(p15 + 12) = {12.48292453695278, 0.6646460886362282, 0};
Point(p15 + 13) = {12.37991622223906, 0.6219786476446095, 0};
Point(p15 + 14) = {12.28485076911812, 0.5637224630472203, 0};
Point(p15 + 15) = {12.20006900454996, 0.4913119954500401, 0};
Point(p15 + 16) = {12.12765853695278, 0.4065302308818756, 0};
Point(p15 + 17) = {12.06940235235539, 0.3114647777609397, 0};
Point(p15 + 18) = {12.02673491136377, 0.2084564630472202, 0};
Point(p15 + 19) = {12.00070682798026, 0.1000416933139654, 0};
Point(p15 + 20) = {11.991959, -0.01110999999999991, 0};
Point(p15 + 21) = {12.00070682798026, -0.1222616933139652, 0};
Point(p15 + 22) = {12.02673491136377, -0.2306764630472204, 0};
Point(p15 + 23) = {12.06940235235539, -0.3336847777609394, 0};
Point(p15 + 24) = {12.12765853695278, -0.4287502308818755, 0};
Point(p15 + 25) = {12.20006900454996, -0.5135319954500399, 0};
Point(p15 + 26) = {12.28485076911812, -0.5859424630472201, 0};
Point(p15 + 27) = {12.37991622223906, -0.6441986476446093, 0};
Point(p15 + 28) = {12.48292453695278, -0.686866088636228, 0};
Point(p15 + 29) = {12.59133930668603, -0.7128941720197444, 0};
Point(p15 + 30) = {12.702491, -0.721642, 0};
Point(p15 + 31) = {12.81364269331397, -0.7128941720197445, 0};
Point(p15 + 32) = {12.92205746304722, -0.6868660886362281, 0};
Point(p15 + 33) = {13.02506577776094, -0.6441986476446095, 0};
Point(p15 + 34) = {13.12013123088188, -0.5859424630472202, 0};
Point(p15 + 35) = {13.20491299545004, -0.5135319954500401, 0};
Point(p15 + 36) = {13.27732346304722, -0.4287502308818756, 0};
Point(p15 + 37) = {13.33557964764461, -0.3336847777609398, 0};
Point(p15 + 38) = {13.37824708863623, -0.2306764630472203, 0};
Point(p15 + 39) = {13.40427517201974, -0.1222616933139655, 0};
Spline(15) = {10, p15 + 1, p15 + 2, p15 + 3, p15 + 4, p15 + 5, p15 + 6, p15 + 7, p15 + 8, p15 + 9, p15 + 10, p15 + 11, p15 + 12, p15 + 13, p15 + 14, p15 + 15, p15 + 16, p15 + 17, p15 + 18, p15 + 19, p15 + 20, p15 + 21, p15 + 22, p15 + 23, p15 + 24, p15 + 25, p15 + 26, p15 + 27, p15 + 28, p15 + 29, p15 + 30, p15 + 31, p15 + 32, p15 + 33, p15 + 34, p15 + 35, p15 + 36, p15 + 37, p15 + 38, p15 + 39, 10};
p16 = newp;
Point(p16 + 1) = {25.66180699956485, -0.9415267366999243, 0.1};
Point(p16 + 2) = {25.61219556748795, -0.7348802500761549, 0.1};
Point(p16 + 3) = {25.53086830187794, -0.5385388624497386, 0.1};
Point(p16 + 4) = {25.41982774992385, -0.357337150403744, 0.1};
Point(p16 + 5) = {25.28180809853725, -0.1957369014627479, 0.1};
Point(p16 + 6) = {25.12020784959626, -0.05771725007615514, 0.1};
Point(p16 + 7) = {24.93900613755026, 0.05332330187793533, 0.1};
Point(p16 + 8) = {24.74266474992385, 0.1346505674879501, 0.1};
Point(p16 + 9) = {24.53601826330008, 0.1842619995648505, 0.1};
Point(p16 + 10) = {24.324155, 0.200936, 0.1};
Point(p16 + 11) = {24.11229173669993, 0.1842619995648505, 0.1};
Point(p16 + 12) = {23.90564525007616, 0.1346505674879503, 0.1};
Point(p16 + 13) = {23.70930386244974, 0.05332330187793555, 0.1};
Point(p16 + 14) = {23.52810215040375, -0.05771725007615491, 0.1};
Point(p16 + 15) = {23.36650190146275, -0.1957369014627477, 0.1};
Point(p16 + 16) = {23.22848225007615, -0.3573371504037438, 0.1};
Point(p16 + 17) = {23.11744169812206, -0.5385388624497384, 0.1};
Point(p16 + 18) = {23.03611443251205, -0.7348802500761548, 0.1};
Point(p16 + 19) = {22.98650300043515, -0.941526736699924, 0.1};
Point(p16 + 20) = {22.969829, -1.15339, 0.1};
Point(p16 + 21) = {22.98650300043515, -1.365253263300076, 0.1};
Point(p16 + 22) = {23.03611443251205, -1.571899749923845, 0.1};
Point(p16 + 23) = {23.11744169812206, -1.768241137550261, 0.1};
Point(p16 + 24) = {23.22848225007615, -1.949442849596256, 0.1};
Point(p16 + 25) = {23.36650190146275, -2.111043098537252, 0.1};
Point(p16 + 26) = {23.52810215040374, -2.249062749923845, 0.1};
Point(p16 + 27) = {23.70930386244974, -2.360103301877935, 0.1};
Point(p16 + 28) = {23.90564525007616, -2.44143056748795, 0.1};
Point(p16 + 29) = {24.11229173669993, -2.491041999564851, 0.1};
Point(p16 + 30) = {24.324155, -2.507716, 0.1};
Point(p16 + 31) = {24.53601826330008, -2.491041999564851, 0.1};
Point(p16 + 32) = {24.74266474992385, -2.44143056748795, 0.1};
Point(p16 + 33) = {24.93900613755026, -2.360103301877936, 0.1};
Point(p16 + 34) = {25.12020784959626, -2.249062749923845, 0.1};
Point(p16 + 35) = {25.28180809853725, -2.111043098537252, 0.1};
Point(p16 + 36) = {25.41982774992385, -1.949442849596256, 0.1};
Point(p16 + 37) = {25.53086830187794, -1.768241137550262, 0.1};
Point(p16 + 38) = {25.61219556748795, -1.571899749923845, 0.1};
Point(p16 + 39) = {25.66180699956485, -1.365253263300076, 0.1};
Spline(16) = {11, p16 + 1, p16 + 2, p16 + 3, p16 + 4, p16 + 5, p16 + 6, p16 + 7, p16 + 8, p16 + 9, p16 + 10, p16 + 11, p16 + 12, p16 + 13, p16 + 14, p16 + 15, p16 + 16, p16 + 17, p16 + 18, p16 + 19, p16 + 20, p16 + 21, p16 + 22, p16 + 23, p16 + 24, p16 + 25, p16 + 26, p16 + 27, p16 + 28, p16 + 29, p16 + 30, p16 + 31, p16 + 32, p16 + 33, p16 + 34, p16 + 35, p16 + 36, p16 + 37, p16 + 38, p16 + 39, 11};
Line(17) = {12, 11};
p18 = newp;
Point(p18 + 1) = {25.66180699956485, -0.9415267366999243, 0};
Point(p18 + 2) = {25.61219556748795, -0.7348802500761549, 0};
Point(p18 + 3) = {25.53086830187794, -0.5385388624497386, 0};
Point(p18 + 4) = {25.41982774992385, -0.357337150403744, 0};
Point(p18 + 5) = {25.28180809853725, -0.1957369014627479, 0};
Point(p18 + 6) = {25.12020784959626, -0.05771725007615514, 0};
Point(p18 + 7) = {24.93900613755026, 0.05332330187793533, 0};
Point(p18 + 8) = {24.74266474992385, 0.1346505674879501, 0};
Point(p18 + 9) = {24.53601826330008, 0.1842619995648505, 0};
Point(p18 + 10) = {24.324155, 0.200936, 0};
Point(p18 + 11) = {24.11229173669993, 0.1842619995648505, 0};
Point(p18 + 12) = {23.90564525007616, 0.1346505674879503, 0};
Point(p18 + 13) = {23.70930386244974, 0.05332330187793555, 0};
Point(p18 + 14) = {23.52810215040375, -0.05771725007615491, 0};
Point(p18 + 15) = {23.36650190146275, -0.1957369014627477, 0};
Point(p18 + 16) = {23.22848225007615, -0.3573371504037438, 0};
Point(p18 + 17) = {23.11744169812206, -0.5385388624497384, 0};
Point(p18 + 18) = {23.03611443251205, -0.7348802500761548, 0};
Point(p18 + 19) = {22.98650300043515, -0.941526736699924, 0};
Point(p18 + 20) = {22.969829, -1.15339, 0};
Point(p18 + 21) = {22.98650300043515, -1.365253263300076, 0};
Point(p18 + 22) = {23.03611443251205, -1.571899749923845, 0};
Point(p18 + 23) = {23.11744169812206, -1.768241137550261, 0};
Point(p18 + 24) = {23.22848225007615, -1.949442849596256, 0};
Point(p18 + 25) = {23.36650190146275, -2.111043098537252, 0};
Point(p18 + 26) = {23.52810215040374, -2.249062749923845, 0};
Point(p18 + 27) = {23.70930386244974, -2.360103301877935, 0};
Point(p18 + 28) = {23.90564525007616, -2.44143056748795, 0};
Point(p18 + 29) = {24.11229173669993, -2.491041999564851, 0};
Point(p18 + 30) = {24.324155, -2.507716, 0};
Point(p18 + 31) = {24.53601826330008, -2.491041999564851, 0};
Point(p18 + 32) = {24.74266474992385, -2.44143056748795, 0};
Point(p18 + 33) = {24.93900613755026, -2.360103301877936, 0};
Point(p18 + 34) = {25.12020784959626, -2.249062749923845, 0};
Point(p18 + 35) = {25.28180809853725, -2.111043098537252, 0};
Point(p18 + 36) = {25.41982774992385, -1.949442849596256, 0};
Point(p18 + 37) = {25.53086830187794, -1.768241137550262, 0};
Point(p18 + 38) = {25.61219556748795, -1.571899749923845, 0};
Point(p18 + 39) = {25.66180699956485, -1.365253263300076, 0};
Spline(18) = {12, p18 + 1, p18 + 2, p18 + 3, p18 + 4, p18 + 5, p18 + 6, p18 + 7, p18 + 8, p18 + 9, p18 + 10, p18 + 11, p18 + 12, p18 + 13, p18 + 14, p18 + 15, p18 + 16, p18 + 17, p18 + 18, p18 + 19, p18 + 20, p18 + 21, p18 + 22, p18 + 23, p18 + 24, p18 + 25, p18 + 26, p18 + 27, p18 + 28, p18 + 29, p18 + 30, p18 + 31, p18 + 32, p18 + 33, p18 + 34, p18 + 35, p18 + 36, p18 + 37, p18 + 38, p18 + 39, 12};
Line(19) = {14, 13};
Line(20) = {13, 15};
Line(21) = {16, 15};
Line(22) = {14, 16};
Line(23) = {14, 17};
Line(24) = {17, 18};
Line(25) = {13, 18};
Line(26) = {15, 19};
Line(27) = {18, 19};
Line(28) = {16, 20};
Line(29) = {20, 19};
Line(30) = {17, 20};
Curve Loop(7) = {-13, -14, 15, 14};
Surface(7) = {7};
Curve Loop(8) = {13};
Plane Surface(8) = {8};
Curve Loop(9) = {15};
Plane Surface(9) = {9};
Curve Loop(10) = {-16, -17, 18, 17};
Surface(10) = {10};
Curve Loop(11) = {16};
Plane Surface(11) = {11};
Curve Loop(12) = {18};
Plane Surface(12) = {12};
Curve Loop(13) = {-19, 22, 21, -20};
Plane Surface(13) = {13};
Curve Loop(14) = {-23, 19, 25, -24};
Plane Surface(14) = {14};
Curve Loop(15) = {-20, 25, 27, -26, -16, -13};
Plane Surface(15) = {15};
Curve Loop(16) = {-28, 21, 26, -29};
Plane Surface(16) = {16};
Curve Loop(17) = {-22, 23, 30, -28, -18, -15};
Plane Surface(17) = {17};
Curve Loop(18) = {-24, 30, 29, -27};
Plane Surface(18) = {18};
Surface Loop(1) = {13, 14, 15, 16, 17, 18, 10, 7};
Volume(1) = {1};
Surface Loop(2) = {7, 8, 9};
Volume(2) = {2};
Surface Loop(3) = {10, 11, 12};
Volume(3) = {3};
Physical Surface("WALLS") = {13, 18};
Physical Surface("LOAD") = {8, 11};
Physical Surface("BORDER") = {7, 9, 10, 12, 14, 15, 16, 17};
Physical Volume("SOLID") = {1, 2, 3};
