cl__1 = 0.07040200000000001;
cl__2 = 0.121836;
cl__3 = 1.081397;
cl__4 = 1.156455;
cl__5 = 0.919469;
cl__6 = 1.013431;
Point(9) = {17.429641, -0.1450860000000002, 0.1, cl__1};
Point(10) = {17.429641, -0.1450860000000002, 0, cl__1};
Point(11) = {24.299894, -1.726579000000001, 0.1, cl__2};
Point(12) = {24.299894, -1.726579000000001, 0, cl__2};
Point(13) = {0.95665, -4.123294, 0.1, cl__3};
Point(14) = {0.95665, -4.123294, 0, cl__3};
Point(15) = {0.95665, 5.089183, 0.1, cl__4};
Point(16) = {0.95665, 5.089183, 0, cl__4};
Point(17) = {38.04688100000001, -4.123294, 0, cl__5};
Point(18) = {38.04688100000001, -4.123294, 0.1, cl__5};
Point(19) = {38.04688100000001, 5.089183, 0.1, cl__6};
Point(20) = {38.04688100000001, 5.089183, 0, cl__6};
p13 = newp;
Point(p13 + 1) = {17.42097330861081, -0.03495253861898154, 0.1};
Point(p13 + 2) = {17.39518366177166, 0.07246907143083359, 0.1};
Point(p13 + 3) = {17.35290708617867, 0.1745337535981349, 0.1};
Point(p13 + 4) = {17.29518457143083, 0.2687283366747038, 0.1};
Point(p13 + 5) = {17.2234374374113, 0.3527334374112967, 0.1};
Point(p13 + 6) = {17.13943233667471, 0.4244805714308336, 0.1};
Point(p13 + 7) = {17.04523775359814, 0.4822030861786672, 0.1};
Point(p13 + 8) = {16.94317307143083, 0.5244796617716629, 0.1};
Point(p13 + 9) = {16.83575146138102, 0.5502693086108106, 0.1};
Point(p13 + 10) = {16.725618, 0.558937, 0.1};
Point(p13 + 11) = {16.61548453861898, 0.5502693086108106, 0.1};
Point(p13 + 12) = {16.50806292856917, 0.5244796617716629, 0.1};
Point(p13 + 13) = {16.40599824640186, 0.4822030861786673, 0.1};
Point(p13 + 14) = {16.3118036633253, 0.4244805714308336, 0.1};
Point(p13 + 15) = {16.2277985625887, 0.3527334374112968, 0.1};
Point(p13 + 16) = {16.15605142856917, 0.2687283366747039, 0.1};
Point(p13 + 17) = {16.09832891382133, 0.174533753598135, 0.1};
Point(p13 + 18) = {16.05605233822834, 0.07246907143083367, 0.1};
Point(p13 + 19) = {16.03026269138919, -0.03495253861898147, 0.1};
Point(p13 + 20) = {16.021595, -0.1450859999999999, 0.1};
Point(p13 + 21) = {16.03026269138919, -0.2552194613810184, 0.1};
Point(p13 + 22) = {16.05605233822834, -0.3626410714308338, 0.1};
Point(p13 + 23) = {16.09832891382133, -0.4647057535981346, 0.1};
Point(p13 + 24) = {16.15605142856917, -0.5589003366747036, 0.1};
Point(p13 + 25) = {16.2277985625887, -0.6429054374112967, 0.1};
Point(p13 + 26) = {16.3118036633253, -0.7146525714308336, 0.1};
Point(p13 + 27) = {16.40599824640186, -0.7723750861786671, 0.1};
Point(p13 + 28) = {16.50806292856917, -0.8146516617716628, 0.1};
Point(p13 + 29) = {16.61548453861898, -0.8404413086108105, 0.1};
Point(p13 + 30) = {16.725618, -0.8491089999999999, 0.1};
Point(p13 + 31) = {16.83575146138102, -0.8404413086108107, 0.1};
Point(p13 + 32) = {16.94317307143083, -0.8146516617716628, 0.1};
Point(p13 + 33) = {17.04523775359814, -0.7723750861786673, 0.1};
Point(p13 + 34) = {17.13943233667471, -0.7146525714308336, 0.1};
Point(p13 + 35) = {17.2234374374113, -0.6429054374112968, 0.1};
Point(p13 + 36) = {17.29518457143083, -0.5589003366747038, 0.1};
Point(p13 + 37) = {17.35290708617867, -0.464705753598135, 0.1};
Point(p13 + 38) = {17.39518366177166, -0.3626410714308337, 0.1};
Point(p13 + 39) = {17.42097330861081, -0.2552194613810186, 0.1};
Spline(13) = {9, p13 + 1, p13 + 2, p13 + 3, p13 + 4, p13 + 5, p13 + 6, p13 + 7, p13 + 8, p13 + 9, p13 + 10, p13 + 11, p13 + 12, p13 + 13, p13 + 14, p13 + 15, p13 + 16, p13 + 17, p13 + 18, p13 + 19, p13 + 20, p13 + 21, p13 + 22, p13 + 23, p13 + 24, p13 + 25, p13 + 26, p13 + 27, p13 + 28, p13 + 29, p13 + 30, p13 + 31, p13 + 32, p13 + 33, p13 + 34, p13 + 35, p13 + 36, p13 + 37, p13 + 38, p13 + 39, 9};
Line(14) = {10, 9};
p15 = newp;
Point(p15 + 1) = {17.42097330861081, -0.03495253861898154, 0};
Point(p15 + 2) = {17.39518366177166, 0.07246907143083359, 0};
Point(p15 + 3) = {17.35290708617867, 0.1745337535981349, 0};
Point(p15 + 4) = {17.29518457143083, 0.2687283366747038, 0};
Point(p15 + 5) = {17.2234374374113, 0.3527334374112967, 0};
Point(p15 + 6) = {17.13943233667471, 0.4244805714308336, 0};
Point(p15 + 7) = {17.04523775359814, 0.4822030861786672, 0};
Point(p15 + 8) = {16.94317307143083, 0.5244796617716629, 0};
Point(p15 + 9) = {16.83575146138102, 0.5502693086108106, 0};
Point(p15 + 10) = {16.725618, 0.558937, 0};
Point(p15 + 11) = {16.61548453861898, 0.5502693086108106, 0};
Point(p15 + 12) = {16.50806292856917, 0.5244796617716629, 0};
Point(p15 + 13) = {16.40599824640186, 0.4822030861786673, 0};
Point(p15 + 14) = {16.3118036633253, 0.4244805714308336, 0};
Point(p15 + 15) = {16.2277985625887, 0.3527334374112968, 0};
Point(p15 + 16) = {16.15605142856917, 0.2687283366747039, 0};
Point(p15 + 17) = {16.09832891382133, 0.174533753598135, 0};
Point(p15 + 18) = {16.05605233822834, 0.07246907143083367, 0};
Point(p15 + 19) = {16.03026269138919, -0.03495253861898147, 0};
Point(p15 + 20) = {16.021595, -0.1450859999999999, 0};
Point(p15 + 21) = {16.03026269138919, -0.2552194613810184, 0};
Point(p15 + 22) = {16.05605233822834, -0.3626410714308338, 0};
Point(p15 + 23) = {16.09832891382133, -0.4647057535981346, 0};
Point(p15 + 24) = {16.15605142856917, -0.5589003366747036, 0};
Point(p15 + 25) = {16.2277985625887, -0.6429054374112967, 0};
Point(p15 + 26) = {16.3118036633253, -0.7146525714308336, 0};
Point(p15 + 27) = {16.40599824640186, -0.7723750861786671, 0};
Point(p15 + 28) = {16.50806292856917, -0.8146516617716628, 0};
Point(p15 + 29) = {16.61548453861898, -0.8404413086108105, 0};
Point(p15 + 30) = {16.725618, -0.8491089999999999, 0};
Point(p15 + 31) = {16.83575146138102, -0.8404413086108107, 0};
Point(p15 + 32) = {16.94317307143083, -0.8146516617716628, 0};
Point(p15 + 33) = {17.04523775359814, -0.7723750861786673, 0};
Point(p15 + 34) = {17.13943233667471, -0.7146525714308336, 0};
Point(p15 + 35) = {17.2234374374113, -0.6429054374112968, 0};
Point(p15 + 36) = {17.29518457143083, -0.5589003366747038, 0};
Point(p15 + 37) = {17.35290708617867, -0.464705753598135, 0};
Point(p15 + 38) = {17.39518366177166, -0.3626410714308337, 0};
Point(p15 + 39) = {17.42097330861081, -0.2552194613810186, 0};
Spline(15) = {10, p15 + 1, p15 + 2, p15 + 3, p15 + 4, p15 + 5, p15 + 6, p15 + 7, p15 + 8, p15 + 9, p15 + 10, p15 + 11, p15 + 12, p15 + 13, p15 + 14, p15 + 15, p15 + 16, p15 + 17, p15 + 18, p15 + 19, p15 + 20, p15 + 21, p15 + 22, p15 + 23, p15 + 24, p15 + 25, p15 + 26, p15 + 27, p15 + 28, p15 + 29, p15 + 30, p15 + 31, p15 + 32, p15 + 33, p15 + 34, p15 + 35, p15 + 36, p15 + 37, p15 + 38, p15 + 39, 10};
p16 = newp;
Point(p16 + 1) = {24.28489392971251, -1.535985035870189, 0.1};
Point(p16 + 2) = {24.24026307036291, -1.350084127682356, 0.1};
Point(p16 + 3) = {24.16710038182971, -1.173453772765827, 0.1};
Point(p16 + 4) = {24.06720737231764, -1.010443196661186, 0.1};
Point(p16 + 5) = {23.94304373924678, -0.8650662607532145, 0.1};
Point(p16 + 6) = {23.79766680333881, -0.740902627682356, 0.1};
Point(p16 + 7) = {23.63465622723417, -0.6410096181702876, 0.1};
Point(p16 + 8) = {23.45802587231764, -0.5678469296370878, 0.1};
Point(p16 + 9) = {23.27212496412981, -0.5232160702874862, 0.1};
Point(p16 + 10) = {23.081531, -0.508216, 0.1};
Point(p16 + 11) = {22.89093703587019, -0.5232160702874864, 0.1};
Point(p16 + 12) = {22.70503612768236, -0.5678469296370878, 0.1};
Point(p16 + 13) = {22.52840577276583, -0.6410096181702876, 0.1};
Point(p16 + 14) = {22.36539519666118, -0.7409026276823559, 0.1};
Point(p16 + 15) = {22.22001826075321, -0.8650662607532144, 0.1};
Point(p16 + 16) = {22.09585462768235, -1.010443196661186, 0.1};
Point(p16 + 17) = {21.99596161817028, -1.173453772765827, 0.1};
Point(p16 + 18) = {21.92279892963709, -1.350084127682356, 0.1};
Point(p16 + 19) = {21.87816807028748, -1.535985035870189, 0.1};
Point(p16 + 20) = {21.863168, -1.726579, 0.1};
Point(p16 + 21) = {21.87816807028748, -1.917172964129811, 0.1};
Point(p16 + 22) = {21.92279892963709, -2.103073872317645, 0.1};
Point(p16 + 23) = {21.99596161817028, -2.279704227234173, 0.1};
Point(p16 + 24) = {22.09585462768235, -2.442714803338815, 0.1};
Point(p16 + 25) = {22.22001826075321, -2.588091739246786, 0.1};
Point(p16 + 26) = {22.36539519666118, -2.712255372317644, 0.1};
Point(p16 + 27) = {22.52840577276583, -2.812148381829712, 0.1};
Point(p16 + 28) = {22.70503612768236, -2.885311070362913, 0.1};
Point(p16 + 29) = {22.89093703587019, -2.929941929712514, 0.1};
Point(p16 + 30) = {23.081531, -2.944942, 0.1};
Point(p16 + 31) = {23.27212496412981, -2.929941929712514, 0.1};
Point(p16 + 32) = {23.45802587231764, -2.885311070362913, 0.1};
Point(p16 + 33) = {23.63465622723417, -2.812148381829713, 0.1};
Point(p16 + 34) = {23.79766680333881, -2.712255372317644, 0.1};
Point(p16 + 35) = {23.94304373924678, -2.588091739246786, 0.1};
Point(p16 + 36) = {24.06720737231764, -2.442714803338815, 0.1};
Point(p16 + 37) = {24.16710038182971, -2.279704227234174, 0.1};
Point(p16 + 38) = {24.24026307036291, -2.103073872317645, 0.1};
Point(p16 + 39) = {24.28489392971251, -1.917172964129811, 0.1};
Spline(16) = {11, p16 + 1, p16 + 2, p16 + 3, p16 + 4, p16 + 5, p16 + 6, p16 + 7, p16 + 8, p16 + 9, p16 + 10, p16 + 11, p16 + 12, p16 + 13, p16 + 14, p16 + 15, p16 + 16, p16 + 17, p16 + 18, p16 + 19, p16 + 20, p16 + 21, p16 + 22, p16 + 23, p16 + 24, p16 + 25, p16 + 26, p16 + 27, p16 + 28, p16 + 29, p16 + 30, p16 + 31, p16 + 32, p16 + 33, p16 + 34, p16 + 35, p16 + 36, p16 + 37, p16 + 38, p16 + 39, 11};
Line(17) = {12, 11};
p18 = newp;
Point(p18 + 1) = {24.28489392971251, -1.535985035870189, 0};
Point(p18 + 2) = {24.24026307036291, -1.350084127682356, 0};
Point(p18 + 3) = {24.16710038182971, -1.173453772765827, 0};
Point(p18 + 4) = {24.06720737231764, -1.010443196661186, 0};
Point(p18 + 5) = {23.94304373924678, -0.8650662607532145, 0};
Point(p18 + 6) = {23.79766680333881, -0.740902627682356, 0};
Point(p18 + 7) = {23.63465622723417, -0.6410096181702876, 0};
Point(p18 + 8) = {23.45802587231764, -0.5678469296370878, 0};
Point(p18 + 9) = {23.27212496412981, -0.5232160702874862, 0};
Point(p18 + 10) = {23.081531, -0.508216, 0};
Point(p18 + 11) = {22.89093703587019, -0.5232160702874864, 0};
Point(p18 + 12) = {22.70503612768236, -0.5678469296370878, 0};
Point(p18 + 13) = {22.52840577276583, -0.6410096181702876, 0};
Point(p18 + 14) = {22.36539519666118, -0.7409026276823559, 0};
Point(p18 + 15) = {22.22001826075321, -0.8650662607532144, 0};
Point(p18 + 16) = {22.09585462768235, -1.010443196661186, 0};
Point(p18 + 17) = {21.99596161817028, -1.173453772765827, 0};
Point(p18 + 18) = {21.92279892963709, -1.350084127682356, 0};
Point(p18 + 19) = {21.87816807028748, -1.535985035870189, 0};
Point(p18 + 20) = {21.863168, -1.726579, 0};
Point(p18 + 21) = {21.87816807028748, -1.917172964129811, 0};
Point(p18 + 22) = {21.92279892963709, -2.103073872317645, 0};
Point(p18 + 23) = {21.99596161817028, -2.279704227234173, 0};
Point(p18 + 24) = {22.09585462768235, -2.442714803338815, 0};
Point(p18 + 25) = {22.22001826075321, -2.588091739246786, 0};
Point(p18 + 26) = {22.36539519666118, -2.712255372317644, 0};
Point(p18 + 27) = {22.52840577276583, -2.812148381829712, 0};
Point(p18 + 28) = {22.70503612768236, -2.885311070362913, 0};
Point(p18 + 29) = {22.89093703587019, -2.929941929712514, 0};
Point(p18 + 30) = {23.081531, -2.944942, 0};
Point(p18 + 31) = {23.27212496412981, -2.929941929712514, 0};
Point(p18 + 32) = {23.45802587231764, -2.885311070362913, 0};
Point(p18 + 33) = {23.63465622723417, -2.812148381829713, 0};
Point(p18 + 34) = {23.79766680333881, -2.712255372317644, 0};
Point(p18 + 35) = {23.94304373924678, -2.588091739246786, 0};
Point(p18 + 36) = {24.06720737231764, -2.442714803338815, 0};
Point(p18 + 37) = {24.16710038182971, -2.279704227234174, 0};
Point(p18 + 38) = {24.24026307036291, -2.103073872317645, 0};
Point(p18 + 39) = {24.28489392971251, -1.917172964129811, 0};
Spline(18) = {12, p18 + 1, p18 + 2, p18 + 3, p18 + 4, p18 + 5, p18 + 6, p18 + 7, p18 + 8, p18 + 9, p18 + 10, p18 + 11, p18 + 12, p18 + 13, p18 + 14, p18 + 15, p18 + 16, p18 + 17, p18 + 18, p18 + 19, p18 + 20, p18 + 21, p18 + 22, p18 + 23, p18 + 24, p18 + 25, p18 + 26, p18 + 27, p18 + 28, p18 + 29, p18 + 30, p18 + 31, p18 + 32, p18 + 33, p18 + 34, p18 + 35, p18 + 36, p18 + 37, p18 + 38, p18 + 39, 12};
Line(19) = {14, 13};
Line(20) = {13, 15};
Line(21) = {16, 15};
Line(22) = {14, 16};
Line(23) = {14, 17};
Line(24) = {17, 18};
Line(25) = {13, 18};
Line(26) = {15, 19};
Line(27) = {18, 19};
Line(28) = {16, 20};
Line(29) = {20, 19};
Line(30) = {17, 20};
Curve Loop(7) = {-13, -14, 15, 14};
Surface(7) = {7};
Curve Loop(8) = {13};
Plane Surface(8) = {8};
Curve Loop(9) = {15};
Plane Surface(9) = {9};
Curve Loop(10) = {-16, -17, 18, 17};
Surface(10) = {10};
Curve Loop(11) = {16};
Plane Surface(11) = {11};
Curve Loop(12) = {18};
Plane Surface(12) = {12};
Curve Loop(13) = {-19, 22, 21, -20};
Plane Surface(13) = {13};
Curve Loop(14) = {-23, 19, 25, -24};
Plane Surface(14) = {14};
Curve Loop(15) = {-20, 25, 27, -26, -16, -13};
Plane Surface(15) = {15};
Curve Loop(16) = {-28, 21, 26, -29};
Plane Surface(16) = {16};
Curve Loop(17) = {-22, 23, 30, -28, -18, -15};
Plane Surface(17) = {17};
Curve Loop(18) = {-24, 30, 29, -27};
Plane Surface(18) = {18};
Surface Loop(1) = {13, 14, 15, 16, 17, 18, 10, 7};
Volume(1) = {1};
Surface Loop(2) = {7, 8, 9};
Volume(2) = {2};
Surface Loop(3) = {10, 11, 12};
Volume(3) = {3};
Physical Surface("WALLS") = {13, 18};
Physical Surface("LOAD") = {8, 11};
Physical Surface("BORDER") = {7, 9, 10, 12, 14, 15, 16, 17};
Physical Volume("SOLID") = {1, 2, 3};
