cl__1 = 0.08878;
cl__2 = 0.057692;
cl__3 = 0.753741;
cl__4 = 0.816306;
cl__5 = 1.782117;
cl__6 = 1.804952;
Point(9) = {14.748829, -1.729972, 0.1, cl__1};
Point(10) = {14.748829, -1.729972, 0, cl__1};
Point(11) = {15.728368, -0.1310550000000001, 0.1, cl__2};
Point(12) = {15.728368, -0.1310550000000001, 0, cl__2};
Point(13) = {0.353914, -4.062474, 0.1, cl__3};
Point(14) = {0.353914, -4.062474, 0, cl__3};
Point(15) = {0.353914, 4.248602, 0.1, cl__4};
Point(16) = {0.353914, 4.248602, 0, cl__4};
Point(17) = {35.98043800000001, -4.062474, 0, cl__5};
Point(18) = {35.98043800000001, -4.062474, 0.1, cl__5};
Point(19) = {35.98043800000001, 4.248602, 0.1, cl__6};
Point(20) = {35.98043800000001, 4.248602, 0, cl__6};
p13 = newp;
Point(p13 + 1) = {14.73789870878036, -1.591089481937283, 0.1};
Point(p13 + 2) = {14.70537697516684, -1.455626712393922, 0.1};
Point(p13 + 3) = {14.65206459217443, -1.32691923433123, 0.1};
Point(p13 + 4) = {14.57927428760608, -1.208136253014742, 0.1};
Point(p13 + 5) = {14.48879840033742, -1.102202599662583, 0.1};
Point(p13 + 6) = {14.38286474698526, -1.011726712393922, 0.1};
Point(p13 + 7) = {14.26408176566877, -0.9389364078255671, 0.1};
Point(p13 + 8) = {14.13537428760608, -0.8856240248331627, 0.1};
Point(p13 + 9) = {13.99991151806272, -0.8531022912196368, 0.1};
Point(p13 + 10) = {13.861029, -0.842172, 0.1};
Point(p13 + 11) = {13.72214648193728, -0.8531022912196368, 0.1};
Point(p13 + 12) = {13.58668371239392, -0.8856240248331626, 0.1};
Point(p13 + 13) = {13.45797623433123, -0.938936407825567, 0.1};
Point(p13 + 14) = {13.33919325301474, -1.011726712393922, 0.1};
Point(p13 + 15) = {13.23325959966258, -1.102202599662583, 0.1};
Point(p13 + 16) = {13.14278371239392, -1.208136253014742, 0.1};
Point(p13 + 17) = {13.06999340782557, -1.32691923433123, 0.1};
Point(p13 + 18) = {13.01668102483316, -1.455626712393922, 0.1};
Point(p13 + 19) = {12.98415929121964, -1.591089481937283, 0.1};
Point(p13 + 20) = {12.973229, -1.729972, 0.1};
Point(p13 + 21) = {12.98415929121964, -1.868854518062717, 0.1};
Point(p13 + 22) = {13.01668102483316, -2.004317287606079, 0.1};
Point(p13 + 23) = {13.06999340782557, -2.133024765668769, 0.1};
Point(p13 + 24) = {13.14278371239392, -2.251807746985258, 0.1};
Point(p13 + 25) = {13.23325959966258, -2.357741400337417, 0.1};
Point(p13 + 26) = {13.33919325301474, -2.448217287606078, 0.1};
Point(p13 + 27) = {13.45797623433123, -2.521007592174433, 0.1};
Point(p13 + 28) = {13.58668371239392, -2.574319975166838, 0.1};
Point(p13 + 29) = {13.72214648193728, -2.606841708780363, 0.1};
Point(p13 + 30) = {13.861029, -2.617772, 0.1};
Point(p13 + 31) = {13.99991151806272, -2.606841708780363, 0.1};
Point(p13 + 32) = {14.13537428760608, -2.574319975166838, 0.1};
Point(p13 + 33) = {14.26408176566877, -2.521007592174433, 0.1};
Point(p13 + 34) = {14.38286474698526, -2.448217287606079, 0.1};
Point(p13 + 35) = {14.48879840033742, -2.357741400337417, 0.1};
Point(p13 + 36) = {14.57927428760608, -2.251807746985258, 0.1};
Point(p13 + 37) = {14.65206459217443, -2.13302476566877, 0.1};
Point(p13 + 38) = {14.70537697516684, -2.004317287606078, 0.1};
Point(p13 + 39) = {14.73789870878036, -1.868854518062717, 0.1};
Spline(13) = {9, p13 + 1, p13 + 2, p13 + 3, p13 + 4, p13 + 5, p13 + 6, p13 + 7, p13 + 8, p13 + 9, p13 + 10, p13 + 11, p13 + 12, p13 + 13, p13 + 14, p13 + 15, p13 + 16, p13 + 17, p13 + 18, p13 + 19, p13 + 20, p13 + 21, p13 + 22, p13 + 23, p13 + 24, p13 + 25, p13 + 26, p13 + 27, p13 + 28, p13 + 29, p13 + 30, p13 + 31, p13 + 32, p13 + 33, p13 + 34, p13 + 35, p13 + 36, p13 + 37, p13 + 38, p13 + 39, 9};
Line(14) = {10, 9};
p15 = newp;
Point(p15 + 1) = {14.73789870878036, -1.591089481937283, 0};
Point(p15 + 2) = {14.70537697516684, -1.455626712393922, 0};
Point(p15 + 3) = {14.65206459217443, -1.32691923433123, 0};
Point(p15 + 4) = {14.57927428760608, -1.208136253014742, 0};
Point(p15 + 5) = {14.48879840033742, -1.102202599662583, 0};
Point(p15 + 6) = {14.38286474698526, -1.011726712393922, 0};
Point(p15 + 7) = {14.26408176566877, -0.9389364078255671, 0};
Point(p15 + 8) = {14.13537428760608, -0.8856240248331627, 0};
Point(p15 + 9) = {13.99991151806272, -0.8531022912196368, 0};
Point(p15 + 10) = {13.861029, -0.842172, 0};
Point(p15 + 11) = {13.72214648193728, -0.8531022912196368, 0};
Point(p15 + 12) = {13.58668371239392, -0.8856240248331626, 0};
Point(p15 + 13) = {13.45797623433123, -0.938936407825567, 0};
Point(p15 + 14) = {13.33919325301474, -1.011726712393922, 0};
Point(p15 + 15) = {13.23325959966258, -1.102202599662583, 0};
Point(p15 + 16) = {13.14278371239392, -1.208136253014742, 0};
Point(p15 + 17) = {13.06999340782557, -1.32691923433123, 0};
Point(p15 + 18) = {13.01668102483316, -1.455626712393922, 0};
Point(p15 + 19) = {12.98415929121964, -1.591089481937283, 0};
Point(p15 + 20) = {12.973229, -1.729972, 0};
Point(p15 + 21) = {12.98415929121964, -1.868854518062717, 0};
Point(p15 + 22) = {13.01668102483316, -2.004317287606079, 0};
Point(p15 + 23) = {13.06999340782557, -2.133024765668769, 0};
Point(p15 + 24) = {13.14278371239392, -2.251807746985258, 0};
Point(p15 + 25) = {13.23325959966258, -2.357741400337417, 0};
Point(p15 + 26) = {13.33919325301474, -2.448217287606078, 0};
Point(p15 + 27) = {13.45797623433123, -2.521007592174433, 0};
Point(p15 + 28) = {13.58668371239392, -2.574319975166838, 0};
Point(p15 + 29) = {13.72214648193728, -2.606841708780363, 0};
Point(p15 + 30) = {13.861029, -2.617772, 0};
Point(p15 + 31) = {13.99991151806272, -2.606841708780363, 0};
Point(p15 + 32) = {14.13537428760608, -2.574319975166838, 0};
Point(p15 + 33) = {14.26408176566877, -2.521007592174433, 0};
Point(p15 + 34) = {14.38286474698526, -2.448217287606079, 0};
Point(p15 + 35) = {14.48879840033742, -2.357741400337417, 0};
Point(p15 + 36) = {14.57927428760608, -2.251807746985258, 0};
Point(p15 + 37) = {14.65206459217443, -2.13302476566877, 0};
Point(p15 + 38) = {14.70537697516684, -2.004317287606078, 0};
Point(p15 + 39) = {14.73789870878036, -1.868854518062717, 0};
Spline(15) = {10, p15 + 1, p15 + 2, p15 + 3, p15 + 4, p15 + 5, p15 + 6, p15 + 7, p15 + 8, p15 + 9, p15 + 10, p15 + 11, p15 + 12, p15 + 13, p15 + 14, p15 + 15, p15 + 16, p15 + 17, p15 + 18, p15 + 19, p15 + 20, p15 + 21, p15 + 22, p15 + 23, p15 + 24, p15 + 25, p15 + 26, p15 + 27, p15 + 28, p15 + 29, p15 + 30, p15 + 31, p15 + 32, p15 + 33, p15 + 34, p15 + 35, p15 + 36, p15 + 37, p15 + 38, p15 + 39, 10};
p16 = newp;
Point(p16 + 1) = {15.72126514514449, -0.04080467199452496, 0.1};
Point(p16 + 2) = {15.70013147643752, 0.04722339341178902, 0.1};
Point(p16 + 3) = {15.66548737494128, 0.130861653100239, 0.1};
Point(p16 + 4) = {15.61818589341179, 0.2080506555378259, 0.1};
Point(p16 + 5) = {15.55939175130892, 0.2768897513089241, 0.1};
Point(p16 + 6) = {15.49055265553783, 0.3356838934117891, 0.1};
Point(p16 + 7) = {15.41336365310024, 0.3829853749412773, 0.1};
Point(p16 + 8) = {15.32972539341179, 0.4176294764375162, 0.1};
Point(p16 + 9) = {15.24169732800547, 0.4387631451444874, 0.1};
Point(p16 + 10) = {15.151447, 0.445866, 0.1};
Point(p16 + 11) = {15.06119667199452, 0.4387631451444874, 0.1};
Point(p16 + 12) = {14.97316860658821, 0.4176294764375164, 0.1};
Point(p16 + 13) = {14.88953034689976, 0.3829853749412774, 0.1};
Point(p16 + 14) = {14.81234134446217, 0.3356838934117891, 0.1};
Point(p16 + 15) = {14.74350224869107, 0.2768897513089242, 0.1};
Point(p16 + 16) = {14.68470810658821, 0.208050655537826, 0.1};
Point(p16 + 17) = {14.63740662505872, 0.1308616531002391, 0.1};
Point(p16 + 18) = {14.60276252356248, 0.04722339341178908, 0.1};
Point(p16 + 19) = {14.58162885485551, -0.04080467199452491, 0.1};
Point(p16 + 20) = {14.574526, -0.1310549999999999, 0.1};
Point(p16 + 21) = {14.58162885485551, -0.221305328005475, 0.1};
Point(p16 + 22) = {14.60276252356248, -0.3093333934117892, 0.1};
Point(p16 + 23) = {14.63740662505872, -0.3929716531002388, 0.1};
Point(p16 + 24) = {14.68470810658821, -0.4701606555378258, 0.1};
Point(p16 + 25) = {14.74350224869107, -0.5389997513089242, 0.1};
Point(p16 + 26) = {14.81234134446217, -0.597793893411789, 0.1};
Point(p16 + 27) = {14.88953034689976, -0.6450953749412773, 0.1};
Point(p16 + 28) = {14.97316860658821, -0.6797394764375163, 0.1};
Point(p16 + 29) = {15.06119667199452, -0.7008731451444875, 0.1};
Point(p16 + 30) = {15.151447, -0.707976, 0.1};
Point(p16 + 31) = {15.24169732800547, -0.7008731451444875, 0.1};
Point(p16 + 32) = {15.32972539341179, -0.6797394764375164, 0.1};
Point(p16 + 33) = {15.41336365310024, -0.6450953749412776, 0.1};
Point(p16 + 34) = {15.49055265553783, -0.5977938934117891, 0.1};
Point(p16 + 35) = {15.55939175130892, -0.5389997513089243, 0.1};
Point(p16 + 36) = {15.61818589341179, -0.4701606555378259, 0.1};
Point(p16 + 37) = {15.66548737494128, -0.3929716531002392, 0.1};
Point(p16 + 38) = {15.70013147643752, -0.3093333934117892, 0.1};
Point(p16 + 39) = {15.72126514514449, -0.2213053280054752, 0.1};
Spline(16) = {11, p16 + 1, p16 + 2, p16 + 3, p16 + 4, p16 + 5, p16 + 6, p16 + 7, p16 + 8, p16 + 9, p16 + 10, p16 + 11, p16 + 12, p16 + 13, p16 + 14, p16 + 15, p16 + 16, p16 + 17, p16 + 18, p16 + 19, p16 + 20, p16 + 21, p16 + 22, p16 + 23, p16 + 24, p16 + 25, p16 + 26, p16 + 27, p16 + 28, p16 + 29, p16 + 30, p16 + 31, p16 + 32, p16 + 33, p16 + 34, p16 + 35, p16 + 36, p16 + 37, p16 + 38, p16 + 39, 11};
Line(17) = {12, 11};
p18 = newp;
Point(p18 + 1) = {15.72126514514449, -0.04080467199452496, 0};
Point(p18 + 2) = {15.70013147643752, 0.04722339341178902, 0};
Point(p18 + 3) = {15.66548737494128, 0.130861653100239, 0};
Point(p18 + 4) = {15.61818589341179, 0.2080506555378259, 0};
Point(p18 + 5) = {15.55939175130892, 0.2768897513089241, 0};
Point(p18 + 6) = {15.49055265553783, 0.3356838934117891, 0};
Point(p18 + 7) = {15.41336365310024, 0.3829853749412773, 0};
Point(p18 + 8) = {15.32972539341179, 0.4176294764375162, 0};
Point(p18 + 9) = {15.24169732800547, 0.4387631451444874, 0};
Point(p18 + 10) = {15.151447, 0.445866, 0};
Point(p18 + 11) = {15.06119667199452, 0.4387631451444874, 0};
Point(p18 + 12) = {14.97316860658821, 0.4176294764375164, 0};
Point(p18 + 13) = {14.88953034689976, 0.3829853749412774, 0};
Point(p18 + 14) = {14.81234134446217, 0.3356838934117891, 0};
Point(p18 + 15) = {14.74350224869107, 0.2768897513089242, 0};
Point(p18 + 16) = {14.68470810658821, 0.208050655537826, 0};
Point(p18 + 17) = {14.63740662505872, 0.1308616531002391, 0};
Point(p18 + 18) = {14.60276252356248, 0.04722339341178908, 0};
Point(p18 + 19) = {14.58162885485551, -0.04080467199452491, 0};
Point(p18 + 20) = {14.574526, -0.1310549999999999, 0};
Point(p18 + 21) = {14.58162885485551, -0.221305328005475, 0};
Point(p18 + 22) = {14.60276252356248, -0.3093333934117892, 0};
Point(p18 + 23) = {14.63740662505872, -0.3929716531002388, 0};
Point(p18 + 24) = {14.68470810658821, -0.4701606555378258, 0};
Point(p18 + 25) = {14.74350224869107, -0.5389997513089242, 0};
Point(p18 + 26) = {14.81234134446217, -0.597793893411789, 0};
Point(p18 + 27) = {14.88953034689976, -0.6450953749412773, 0};
Point(p18 + 28) = {14.97316860658821, -0.6797394764375163, 0};
Point(p18 + 29) = {15.06119667199452, -0.7008731451444875, 0};
Point(p18 + 30) = {15.151447, -0.707976, 0};
Point(p18 + 31) = {15.24169732800547, -0.7008731451444875, 0};
Point(p18 + 32) = {15.32972539341179, -0.6797394764375164, 0};
Point(p18 + 33) = {15.41336365310024, -0.6450953749412776, 0};
Point(p18 + 34) = {15.49055265553783, -0.5977938934117891, 0};
Point(p18 + 35) = {15.55939175130892, -0.5389997513089243, 0};
Point(p18 + 36) = {15.61818589341179, -0.4701606555378259, 0};
Point(p18 + 37) = {15.66548737494128, -0.3929716531002392, 0};
Point(p18 + 38) = {15.70013147643752, -0.3093333934117892, 0};
Point(p18 + 39) = {15.72126514514449, -0.2213053280054752, 0};
Spline(18) = {12, p18 + 1, p18 + 2, p18 + 3, p18 + 4, p18 + 5, p18 + 6, p18 + 7, p18 + 8, p18 + 9, p18 + 10, p18 + 11, p18 + 12, p18 + 13, p18 + 14, p18 + 15, p18 + 16, p18 + 17, p18 + 18, p18 + 19, p18 + 20, p18 + 21, p18 + 22, p18 + 23, p18 + 24, p18 + 25, p18 + 26, p18 + 27, p18 + 28, p18 + 29, p18 + 30, p18 + 31, p18 + 32, p18 + 33, p18 + 34, p18 + 35, p18 + 36, p18 + 37, p18 + 38, p18 + 39, 12};
Line(19) = {14, 13};
Line(20) = {13, 15};
Line(21) = {16, 15};
Line(22) = {14, 16};
Line(23) = {14, 17};
Line(24) = {17, 18};
Line(25) = {13, 18};
Line(26) = {15, 19};
Line(27) = {18, 19};
Line(28) = {16, 20};
Line(29) = {20, 19};
Line(30) = {17, 20};
Curve Loop(7) = {-13, -14, 15, 14};
Surface(7) = {7};
Curve Loop(8) = {13};
Plane Surface(8) = {8};
Curve Loop(9) = {15};
Plane Surface(9) = {9};
Curve Loop(10) = {-16, -17, 18, 17};
Surface(10) = {10};
Curve Loop(11) = {16};
Plane Surface(11) = {11};
Curve Loop(12) = {18};
Plane Surface(12) = {12};
Curve Loop(13) = {-19, 22, 21, -20};
Plane Surface(13) = {13};
Curve Loop(14) = {-23, 19, 25, -24};
Plane Surface(14) = {14};
Curve Loop(15) = {-20, 25, 27, -26, -13, -16};
Plane Surface(15) = {15};
Curve Loop(16) = {-28, 21, 26, -29};
Plane Surface(16) = {16};
Curve Loop(17) = {-22, 23, 30, -28, -15, -18};
Plane Surface(17) = {17};
Curve Loop(18) = {-24, 30, 29, -27};
Plane Surface(18) = {18};
Surface Loop(1) = {13, 14, 15, 16, 17, 18, 7, 10};
Volume(1) = {1};
Surface Loop(2) = {7, 8, 9};
Volume(2) = {2};
Surface Loop(3) = {10, 11, 12};
Volume(3) = {3};
Physical Surface("WALLS") = {13, 18};
Physical Surface("LOAD") = {8, 11};
Physical Surface("BORDER") = {7, 9, 10, 12, 14, 15, 16, 17};
Physical Volume("SOLID") = {1, 2, 3};
