cl__1 = 0.10718;
cl__2 = 0.131141;
cl__3 = 0.93232;
cl__4 = 0.763718;
cl__5 = 1.809778;
cl__6 = 1.27843;
Point(9) = {7.590388, 1.640115, 0.1, cl__1};
Point(10) = {7.590388, 1.640115, 0, cl__1};
Point(11) = {27.043538, 1.704302999999999, 0.1, cl__2};
Point(12) = {27.043538, 1.704302999999999, 0, cl__2};
Point(13) = {0.551917, -3.608792, 1, cl__3};
Point(14) = {0.551917, -3.608792, 0, cl__3};
Point(15) = {0.551917, 4.695650999999999, 1, cl__4};
Point(16) = {0.551917, 4.695650999999999, 0, cl__4};
Point(17) = {34.553446, -3.608792, 0, cl__5};
Point(18) = {34.553446, -3.608792, 1, cl__5};
Point(19) = {34.553446, 4.695650999999999, 1, cl__6};
Point(20) = {34.553446, 4.695650999999999, 0, cl__6};
p13 = newp;
Point(p13 + 1) = {7.577192388073187, 1.807781146761189, 0.1};
Point(p13 + 2) = {7.537930472052112, 1.97131879653708, 0.1};
Point(p13 + 3) = {7.473569010612044, 2.126701109639847, 0.1};
Point(p13 + 4) = {7.38569279653708, 2.270102057836568, 0.1};
Point(p13 + 5) = {7.276465633862179, 2.397990633862179, 0.1};
Point(p13 + 6) = {7.148577057836568, 2.50721779653708, 0.1};
Point(p13 + 7) = {7.005176109639846, 2.595094010612044, 0.1};
Point(p13 + 8) = {6.84979379653708, 2.659455472052113, 0.1};
Point(p13 + 9) = {6.686256146761189, 2.698717388073187, 0.1};
Point(p13 + 10) = {6.51859, 2.711913, 0.1};
Point(p13 + 11) = {6.35092385323881, 2.698717388073187, 0.1};
Point(p13 + 12) = {6.187386203462919, 2.659455472052113, 0.1};
Point(p13 + 13) = {6.032003890360153, 2.595094010612044, 0.1};
Point(p13 + 14) = {5.888602942163431, 2.50721779653708, 0.1};
Point(p13 + 15) = {5.760714366137821, 2.397990633862179, 0.1};
Point(p13 + 16) = {5.65148720346292, 2.270102057836568, 0.1};
Point(p13 + 17) = {5.563610989387955, 2.126701109639847, 0.1};
Point(p13 + 18) = {5.499249527947887, 1.97131879653708, 0.1};
Point(p13 + 19) = {5.459987611926812, 1.80778114676119, 0.1};
Point(p13 + 20) = {5.446791999999999, 1.640115, 0.1};
Point(p13 + 21) = {5.459987611926812, 1.472448853238811, 0.1};
Point(p13 + 22) = {5.499249527947887, 1.30891120346292, 0.1};
Point(p13 + 23) = {5.563610989387955, 1.153528890360154, 0.1};
Point(p13 + 24) = {5.65148720346292, 1.010127942163432, 0.1};
Point(p13 + 25) = {5.760714366137821, 0.8822393661378207, 0.1};
Point(p13 + 26) = {5.888602942163431, 0.7730122034629202, 0.1};
Point(p13 + 27) = {6.032003890360153, 0.6851359893879557, 0.1};
Point(p13 + 28) = {6.187386203462919, 0.6207745279478869, 0.1};
Point(p13 + 29) = {6.35092385323881, 0.5815126119268126, 0.1};
Point(p13 + 30) = {6.51859, 0.568317, 0.1};
Point(p13 + 31) = {6.686256146761189, 0.5815126119268126, 0.1};
Point(p13 + 32) = {6.849793796537079, 0.6207745279478869, 0.1};
Point(p13 + 33) = {7.005176109639846, 0.6851359893879555, 0.1};
Point(p13 + 34) = {7.148577057836568, 0.7730122034629199, 0.1};
Point(p13 + 35) = {7.276465633862179, 0.8822393661378205, 0.1};
Point(p13 + 36) = {7.38569279653708, 1.010127942163432, 0.1};
Point(p13 + 37) = {7.473569010612044, 1.153528890360153, 0.1};
Point(p13 + 38) = {7.537930472052112, 1.30891120346292, 0.1};
Point(p13 + 39) = {7.577192388073187, 1.47244885323881, 0.1};
Spline(13) = {9, p13 + 1, p13 + 2, p13 + 3, p13 + 4, p13 + 5, p13 + 6, p13 + 7, p13 + 8, p13 + 9, p13 + 10, p13 + 11, p13 + 12, p13 + 13, p13 + 14, p13 + 15, p13 + 16, p13 + 17, p13 + 18, p13 + 19, p13 + 20, p13 + 21, p13 + 22, p13 + 23, p13 + 24, p13 + 25, p13 + 26, p13 + 27, p13 + 28, p13 + 29, p13 + 30, p13 + 31, p13 + 32, p13 + 33, p13 + 34, p13 + 35, p13 + 36, p13 + 37, p13 + 38, p13 + 39, 9};
Line(14) = {10, 9};
p15 = newp;
Point(p15 + 1) = {7.577192388073187, 1.807781146761189, 0};
Point(p15 + 2) = {7.537930472052112, 1.97131879653708, 0};
Point(p15 + 3) = {7.473569010612044, 2.126701109639847, 0};
Point(p15 + 4) = {7.38569279653708, 2.270102057836568, 0};
Point(p15 + 5) = {7.276465633862179, 2.397990633862179, 0};
Point(p15 + 6) = {7.148577057836568, 2.50721779653708, 0};
Point(p15 + 7) = {7.005176109639846, 2.595094010612044, 0};
Point(p15 + 8) = {6.84979379653708, 2.659455472052113, 0};
Point(p15 + 9) = {6.686256146761189, 2.698717388073187, 0};
Point(p15 + 10) = {6.51859, 2.711913, 0};
Point(p15 + 11) = {6.35092385323881, 2.698717388073187, 0};
Point(p15 + 12) = {6.187386203462919, 2.659455472052113, 0};
Point(p15 + 13) = {6.032003890360153, 2.595094010612044, 0};
Point(p15 + 14) = {5.888602942163431, 2.50721779653708, 0};
Point(p15 + 15) = {5.760714366137821, 2.397990633862179, 0};
Point(p15 + 16) = {5.65148720346292, 2.270102057836568, 0};
Point(p15 + 17) = {5.563610989387955, 2.126701109639847, 0};
Point(p15 + 18) = {5.499249527947887, 1.97131879653708, 0};
Point(p15 + 19) = {5.459987611926812, 1.80778114676119, 0};
Point(p15 + 20) = {5.446791999999999, 1.640115, 0};
Point(p15 + 21) = {5.459987611926812, 1.472448853238811, 0};
Point(p15 + 22) = {5.499249527947887, 1.30891120346292, 0};
Point(p15 + 23) = {5.563610989387955, 1.153528890360154, 0};
Point(p15 + 24) = {5.65148720346292, 1.010127942163432, 0};
Point(p15 + 25) = {5.760714366137821, 0.8822393661378207, 0};
Point(p15 + 26) = {5.888602942163431, 0.7730122034629202, 0};
Point(p15 + 27) = {6.032003890360153, 0.6851359893879557, 0};
Point(p15 + 28) = {6.187386203462919, 0.6207745279478869, 0};
Point(p15 + 29) = {6.35092385323881, 0.5815126119268126, 0};
Point(p15 + 30) = {6.51859, 0.568317, 0};
Point(p15 + 31) = {6.686256146761189, 0.5815126119268126, 0};
Point(p15 + 32) = {6.849793796537079, 0.6207745279478869, 0};
Point(p15 + 33) = {7.005176109639846, 0.6851359893879555, 0};
Point(p15 + 34) = {7.148577057836568, 0.7730122034629199, 0};
Point(p15 + 35) = {7.276465633862179, 0.8822393661378205, 0};
Point(p15 + 36) = {7.38569279653708, 1.010127942163432, 0};
Point(p15 + 37) = {7.473569010612044, 1.153528890360153, 0};
Point(p15 + 38) = {7.537930472052112, 1.30891120346292, 0};
Point(p15 + 39) = {7.577192388073187, 1.47244885323881, 0};
Spline(15) = {10, p15 + 1, p15 + 2, p15 + 3, p15 + 4, p15 + 5, p15 + 6, p15 + 7, p15 + 8, p15 + 9, p15 + 10, p15 + 11, p15 + 12, p15 + 13, p15 + 14, p15 + 15, p15 + 16, p15 + 17, p15 + 18, p15 + 19, p15 + 20, p15 + 21, p15 + 22, p15 + 23, p15 + 24, p15 + 25, p15 + 26, p15 + 27, p15 + 28, p15 + 29, p15 + 30, p15 + 31, p15 + 32, p15 + 33, p15 + 34, p15 + 35, p15 + 36, p15 + 37, p15 + 38, p15 + 39, 10};
p16 = newp;
Point(p16 + 1) = {27.02739237905153, 1.909452565363944, 0.1};
Point(p16 + 2) = {26.97935307497811, 2.109550667576255, 0.1};
Point(p16 + 3) = {26.90060297487934, 2.299670227272939, 0.1};
Point(p16 + 4) = {26.79308116757625, 2.47512986992362, 0.1};
Point(p16 + 5) = {26.65943519680907, 2.631609196809069, 0.1};
Point(p16 + 6) = {26.50295586992362, 2.765255167576255, 0.1};
Point(p16 + 7) = {26.32749622727294, 2.872776974879343, 0.1};
Point(p16 + 8) = {26.13737666757626, 2.951527074978111, 0.1};
Point(p16 + 9) = {25.93727856536394, 2.999566379051529, 0.1};
Point(p16 + 10) = {25.732129, 3.015712, 0.1};
Point(p16 + 11) = {25.52697943463606, 2.999566379051529, 0.1};
Point(p16 + 12) = {25.32688133242375, 2.951527074978111, 0.1};
Point(p16 + 13) = {25.13676177272706, 2.872776974879343, 0.1};
Point(p16 + 14) = {24.96130213007638, 2.765255167576255, 0.1};
Point(p16 + 15) = {24.80482280319093, 2.631609196809069, 0.1};
Point(p16 + 16) = {24.67117683242375, 2.47512986992362, 0.1};
Point(p16 + 17) = {24.56365502512066, 2.299670227272939, 0.1};
Point(p16 + 18) = {24.48490492502189, 2.109550667576256, 0.1};
Point(p16 + 19) = {24.43686562094847, 1.909452565363944, 0.1};
Point(p16 + 20) = {24.42072, 1.704303, 0.1};
Point(p16 + 21) = {24.43686562094847, 1.499153434636056, 0.1};
Point(p16 + 22) = {24.48490492502189, 1.299055332423744, 0.1};
Point(p16 + 23) = {24.56365502512066, 1.108935772727061, 0.1};
Point(p16 + 24) = {24.67117683242375, 0.9334761300763801, 0.1};
Point(p16 + 25) = {24.80482280319093, 0.7769968031909309, 0.1};
Point(p16 + 26) = {24.96130213007638, 0.6433508324237445, 0.1};
Point(p16 + 27) = {25.13676177272706, 0.5358290251206566, 0.1};
Point(p16 + 28) = {25.32688133242375, 0.457078925021889, 0.1};
Point(p16 + 29) = {25.52697943463606, 0.409039620948471, 0.1};
Point(p16 + 30) = {25.732129, 0.3928939999999999, 0.1};
Point(p16 + 31) = {25.93727856536394, 0.4090396209484708, 0.1};
Point(p16 + 32) = {26.13737666757626, 0.4570789250218887, 0.1};
Point(p16 + 33) = {26.32749622727294, 0.5358290251206563, 0.1};
Point(p16 + 34) = {26.50295586992362, 0.6433508324237442, 0.1};
Point(p16 + 35) = {26.65943519680907, 0.7769968031909306, 0.1};
Point(p16 + 36) = {26.79308116757625, 0.9334761300763799, 0.1};
Point(p16 + 37) = {26.90060297487934, 1.10893577272706, 0.1};
Point(p16 + 38) = {26.97935307497811, 1.299055332423744, 0.1};
Point(p16 + 39) = {27.02739237905153, 1.499153434636055, 0.1};
Spline(16) = {11, p16 + 1, p16 + 2, p16 + 3, p16 + 4, p16 + 5, p16 + 6, p16 + 7, p16 + 8, p16 + 9, p16 + 10, p16 + 11, p16 + 12, p16 + 13, p16 + 14, p16 + 15, p16 + 16, p16 + 17, p16 + 18, p16 + 19, p16 + 20, p16 + 21, p16 + 22, p16 + 23, p16 + 24, p16 + 25, p16 + 26, p16 + 27, p16 + 28, p16 + 29, p16 + 30, p16 + 31, p16 + 32, p16 + 33, p16 + 34, p16 + 35, p16 + 36, p16 + 37, p16 + 38, p16 + 39, 11};
Line(17) = {12, 11};
p18 = newp;
Point(p18 + 1) = {27.02739237905153, 1.909452565363944, 0};
Point(p18 + 2) = {26.97935307497811, 2.109550667576255, 0};
Point(p18 + 3) = {26.90060297487934, 2.299670227272939, 0};
Point(p18 + 4) = {26.79308116757625, 2.47512986992362, 0};
Point(p18 + 5) = {26.65943519680907, 2.631609196809069, 0};
Point(p18 + 6) = {26.50295586992362, 2.765255167576255, 0};
Point(p18 + 7) = {26.32749622727294, 2.872776974879343, 0};
Point(p18 + 8) = {26.13737666757626, 2.951527074978111, 0};
Point(p18 + 9) = {25.93727856536394, 2.999566379051529, 0};
Point(p18 + 10) = {25.732129, 3.015712, 0};
Point(p18 + 11) = {25.52697943463606, 2.999566379051529, 0};
Point(p18 + 12) = {25.32688133242375, 2.951527074978111, 0};
Point(p18 + 13) = {25.13676177272706, 2.872776974879343, 0};
Point(p18 + 14) = {24.96130213007638, 2.765255167576255, 0};
Point(p18 + 15) = {24.80482280319093, 2.631609196809069, 0};
Point(p18 + 16) = {24.67117683242375, 2.47512986992362, 0};
Point(p18 + 17) = {24.56365502512066, 2.299670227272939, 0};
Point(p18 + 18) = {24.48490492502189, 2.109550667576256, 0};
Point(p18 + 19) = {24.43686562094847, 1.909452565363944, 0};
Point(p18 + 20) = {24.42072, 1.704303, 0};
Point(p18 + 21) = {24.43686562094847, 1.499153434636056, 0};
Point(p18 + 22) = {24.48490492502189, 1.299055332423744, 0};
Point(p18 + 23) = {24.56365502512066, 1.108935772727061, 0};
Point(p18 + 24) = {24.67117683242375, 0.9334761300763801, 0};
Point(p18 + 25) = {24.80482280319093, 0.7769968031909309, 0};
Point(p18 + 26) = {24.96130213007638, 0.6433508324237445, 0};
Point(p18 + 27) = {25.13676177272706, 0.5358290251206566, 0};
Point(p18 + 28) = {25.32688133242375, 0.457078925021889, 0};
Point(p18 + 29) = {25.52697943463606, 0.409039620948471, 0};
Point(p18 + 30) = {25.732129, 0.3928939999999999, 0};
Point(p18 + 31) = {25.93727856536394, 0.4090396209484708, 0};
Point(p18 + 32) = {26.13737666757626, 0.4570789250218887, 0};
Point(p18 + 33) = {26.32749622727294, 0.5358290251206563, 0};
Point(p18 + 34) = {26.50295586992362, 0.6433508324237442, 0};
Point(p18 + 35) = {26.65943519680907, 0.7769968031909306, 0};
Point(p18 + 36) = {26.79308116757625, 0.9334761300763799, 0};
Point(p18 + 37) = {26.90060297487934, 1.10893577272706, 0};
Point(p18 + 38) = {26.97935307497811, 1.299055332423744, 0};
Point(p18 + 39) = {27.02739237905153, 1.499153434636055, 0};
Spline(18) = {12, p18 + 1, p18 + 2, p18 + 3, p18 + 4, p18 + 5, p18 + 6, p18 + 7, p18 + 8, p18 + 9, p18 + 10, p18 + 11, p18 + 12, p18 + 13, p18 + 14, p18 + 15, p18 + 16, p18 + 17, p18 + 18, p18 + 19, p18 + 20, p18 + 21, p18 + 22, p18 + 23, p18 + 24, p18 + 25, p18 + 26, p18 + 27, p18 + 28, p18 + 29, p18 + 30, p18 + 31, p18 + 32, p18 + 33, p18 + 34, p18 + 35, p18 + 36, p18 + 37, p18 + 38, p18 + 39, 12};
Line(19) = {14, 13};
Line(20) = {13, 15};
Line(21) = {16, 15};
Line(22) = {14, 16};
Line(23) = {14, 17};
Line(24) = {17, 18};
Line(25) = {13, 18};
Line(26) = {15, 19};
Line(27) = {18, 19};
Line(28) = {16, 20};
Line(29) = {20, 19};
Line(30) = {17, 20};
Curve Loop(7) = {-13, -14, 15, 14};
Surface(7) = {7};
Curve Loop(8) = {13};
Plane Surface(8) = {8};
Curve Loop(9) = {15};
Plane Surface(9) = {9};
Curve Loop(10) = {-16, -17, 18, 17};
Surface(10) = {10};
Curve Loop(11) = {16};
Plane Surface(11) = {11};
Curve Loop(12) = {18};
Plane Surface(12) = {12};
Curve Loop(13) = {-19, 22, 21, -20};
Plane Surface(13) = {13};
Curve Loop(14) = {-23, 19, 25, -24};
Plane Surface(14) = {14};
Curve Loop(15) = {-20, 25, 27, -26};
Plane Surface(15) = {15};
Curve Loop(16) = {-28, 21, 26, -29};
Plane Surface(16) = {16};
Curve Loop(17) = {-22, 23, 30, -28, -15, -18};
Plane Surface(17) = {17};
Curve Loop(18) = {-24, 30, 29, -27};
Plane Surface(18) = {18};
Surface Loop(1) = {13, 14, 15, 16, 17, 18, 7, 10, 8, 11};
Volume(1) = {1};
Surface Loop(2) = {7, 8, 9};
Volume(2) = {2};
Surface Loop(3) = {10, 11, 12};
Volume(3) = {3};
Physical Surface("WALLS") = {13, 18};
Physical Surface("LOAD") = {8, 11};
Physical Surface("BORDER") = {7, 9, 10, 12, 14, 15, 16, 17};
Physical Volume("SOLID") = {1, 2, 3};
