cl__1 = 0.141225;
cl__2 = 0.065009;
cl__3 = 0.917801;
cl__4 = 0.852978;
cl__5 = 1.43395;
cl__6 = 1.336677;
Point(9) = {16.445293, 2.265914, 0.1, cl__1};
Point(10) = {16.445293, 2.265914, 0, cl__1};
Point(11) = {22.985616, 1.347504, 0.1, cl__2};
Point(12) = {22.985616, 1.347504, 0, cl__2};
Point(13) = {0.791067, -3.711682, 0.1, cl__3};
Point(14) = {0.791067, -3.711682, 0, cl__3};
Point(15) = {0.791067, 4.735015000000001, 0.1, cl__4};
Point(16) = {0.791067, 4.735015000000001, 0, cl__4};
Point(17) = {39.497539, -3.711682, 0, cl__5};
Point(18) = {39.497539, -3.711682, 0.1, cl__5};
Point(19) = {39.497539, 4.735015000000001, 0.1, cl__6};
Point(20) = {39.497539, 4.735015000000001, 0, cl__6};
p13 = newp;
Point(p13 + 1) = {16.4279058220705, 2.486839042556461, 0.1};
Point(p13 + 2) = {16.37617241830738, 2.702324177357003, 0.1};
Point(p13 + 3) = {16.2913666368046, 2.907063445228674, 0.1};
Point(p13 + 4) = {16.175576677357, 3.096015485905802, 0.1};
Point(p13 + 5) = {16.03165367305105, 3.264527673051045, 0.1};
Point(p13 + 6) = {15.8631414859058, 3.408450677357003, 0.1};
Point(p13 + 7) = {15.67418944522867, 3.524240636804595, 0.1};
Point(p13 + 8) = {15.469450177357, 3.609046418307379, 0.1};
Point(p13 + 9) = {15.25396504255646, 3.660779822070505, 0.1};
Point(p13 + 10) = {15.03304, 3.678167, 0.1};
Point(p13 + 11) = {14.81211495744354, 3.660779822070505, 0.1};
Point(p13 + 12) = {14.596629822643, 3.60904641830738, 0.1};
Point(p13 + 13) = {14.39189055477133, 3.524240636804595, 0.1};
Point(p13 + 14) = {14.2029385140942, 3.408450677357003, 0.1};
Point(p13 + 15) = {14.03442632694895, 3.264527673051045, 0.1};
Point(p13 + 16) = {13.890503322643, 3.096015485905802, 0.1};
Point(p13 + 17) = {13.7747133631954, 2.907063445228674, 0.1};
Point(p13 + 18) = {13.68990758169262, 2.702324177357003, 0.1};
Point(p13 + 19) = {13.63817417792949, 2.486839042556461, 0.1};
Point(p13 + 20) = {13.620787, 2.265914, 0.1};
Point(p13 + 21) = {13.63817417792949, 2.044988957443539, 0.1};
Point(p13 + 22) = {13.68990758169262, 1.829503822642997, 0.1};
Point(p13 + 23) = {13.7747133631954, 1.624764554771327, 0.1};
Point(p13 + 24) = {13.890503322643, 1.435812514094198, 0.1};
Point(p13 + 25) = {14.03442632694895, 1.267300326948955, 0.1};
Point(p13 + 26) = {14.2029385140942, 1.123377322642998, 0.1};
Point(p13 + 27) = {14.39189055477133, 1.007587363195405, 0.1};
Point(p13 + 28) = {14.596629822643, 0.9227815816926206, 0.1};
Point(p13 + 29) = {14.81211495744354, 0.871048177929495, 0.1};
Point(p13 + 30) = {15.03304, 0.853661, 0.1};
Point(p13 + 31) = {15.25396504255646, 0.871048177929495, 0.1};
Point(p13 + 32) = {15.469450177357, 0.9227815816926204, 0.1};
Point(p13 + 33) = {15.67418944522867, 1.007587363195405, 0.1};
Point(p13 + 34) = {15.8631414859058, 1.123377322642997, 0.1};
Point(p13 + 35) = {16.03165367305105, 1.267300326948954, 0.1};
Point(p13 + 36) = {16.175576677357, 1.435812514094198, 0.1};
Point(p13 + 37) = {16.29136663680459, 1.624764554771326, 0.1};
Point(p13 + 38) = {16.37617241830738, 1.829503822642997, 0.1};
Point(p13 + 39) = {16.4279058220705, 2.044988957443539, 0.1};
Spline(13) = {9, p13 + 1, p13 + 2, p13 + 3, p13 + 4, p13 + 5, p13 + 6, p13 + 7, p13 + 8, p13 + 9, p13 + 10, p13 + 11, p13 + 12, p13 + 13, p13 + 14, p13 + 15, p13 + 16, p13 + 17, p13 + 18, p13 + 19, p13 + 20, p13 + 21, p13 + 22, p13 + 23, p13 + 24, p13 + 25, p13 + 26, p13 + 27, p13 + 28, p13 + 29, p13 + 30, p13 + 31, p13 + 32, p13 + 33, p13 + 34, p13 + 35, p13 + 36, p13 + 37, p13 + 38, p13 + 39, 9};
Line(14) = {10, 9};
p15 = newp;
Point(p15 + 1) = {16.4279058220705, 2.486839042556461, 0};
Point(p15 + 2) = {16.37617241830738, 2.702324177357003, 0};
Point(p15 + 3) = {16.2913666368046, 2.907063445228674, 0};
Point(p15 + 4) = {16.175576677357, 3.096015485905802, 0};
Point(p15 + 5) = {16.03165367305105, 3.264527673051045, 0};
Point(p15 + 6) = {15.8631414859058, 3.408450677357003, 0};
Point(p15 + 7) = {15.67418944522867, 3.524240636804595, 0};
Point(p15 + 8) = {15.469450177357, 3.609046418307379, 0};
Point(p15 + 9) = {15.25396504255646, 3.660779822070505, 0};
Point(p15 + 10) = {15.03304, 3.678167, 0};
Point(p15 + 11) = {14.81211495744354, 3.660779822070505, 0};
Point(p15 + 12) = {14.596629822643, 3.60904641830738, 0};
Point(p15 + 13) = {14.39189055477133, 3.524240636804595, 0};
Point(p15 + 14) = {14.2029385140942, 3.408450677357003, 0};
Point(p15 + 15) = {14.03442632694895, 3.264527673051045, 0};
Point(p15 + 16) = {13.890503322643, 3.096015485905802, 0};
Point(p15 + 17) = {13.7747133631954, 2.907063445228674, 0};
Point(p15 + 18) = {13.68990758169262, 2.702324177357003, 0};
Point(p15 + 19) = {13.63817417792949, 2.486839042556461, 0};
Point(p15 + 20) = {13.620787, 2.265914, 0};
Point(p15 + 21) = {13.63817417792949, 2.044988957443539, 0};
Point(p15 + 22) = {13.68990758169262, 1.829503822642997, 0};
Point(p15 + 23) = {13.7747133631954, 1.624764554771327, 0};
Point(p15 + 24) = {13.890503322643, 1.435812514094198, 0};
Point(p15 + 25) = {14.03442632694895, 1.267300326948955, 0};
Point(p15 + 26) = {14.2029385140942, 1.123377322642998, 0};
Point(p15 + 27) = {14.39189055477133, 1.007587363195405, 0};
Point(p15 + 28) = {14.596629822643, 0.9227815816926206, 0};
Point(p15 + 29) = {14.81211495744354, 0.871048177929495, 0};
Point(p15 + 30) = {15.03304, 0.853661, 0};
Point(p15 + 31) = {15.25396504255646, 0.871048177929495, 0};
Point(p15 + 32) = {15.469450177357, 0.9227815816926204, 0};
Point(p15 + 33) = {15.67418944522867, 1.007587363195405, 0};
Point(p15 + 34) = {15.8631414859058, 1.123377322642997, 0};
Point(p15 + 35) = {16.03165367305105, 1.267300326948954, 0};
Point(p15 + 36) = {16.175576677357, 1.435812514094198, 0};
Point(p15 + 37) = {16.29136663680459, 1.624764554771326, 0};
Point(p15 + 38) = {16.37617241830738, 1.829503822642997, 0};
Point(p15 + 39) = {16.4279058220705, 2.044988957443539, 0};
Spline(15) = {10, p15 + 1, p15 + 2, p15 + 3, p15 + 4, p15 + 5, p15 + 6, p15 + 7, p15 + 8, p15 + 9, p15 + 10, p15 + 11, p15 + 12, p15 + 13, p15 + 14, p15 + 15, p15 + 16, p15 + 17, p15 + 18, p15 + 19, p15 + 20, p15 + 21, p15 + 22, p15 + 23, p15 + 24, p15 + 25, p15 + 26, p15 + 27, p15 + 28, p15 + 29, p15 + 30, p15 + 31, p15 + 32, p15 + 33, p15 + 34, p15 + 35, p15 + 36, p15 + 37, p15 + 38, p15 + 39, 10};
p16 = newp;
Point(p16 + 1) = {22.9776123133375, 1.449200481378004, 0.1};
Point(p16 + 2) = {22.95379833067832, 1.54839285787321, 0.1};
Point(p16 + 3) = {22.91476043130962, 1.642638683975682, 0.1};
Point(p16 + 4) = {22.86145985787321, 1.729617314662814, 0.1};
Point(p16 + 5) = {22.79520904738157, 1.807187047381563, 0.1};
Point(p16 + 6) = {22.71763931466282, 1.873437857873209, 0.1};
Point(p16 + 7) = {22.63066068397568, 1.926738431309616, 0.1};
Point(p16 + 8) = {22.53641485787321, 1.965776330678316, 0.1};
Point(p16 + 9) = {22.437222481378, 1.989590313337493, 0.1};
Point(p16 + 10) = {22.335526, 1.997594, 0.1};
Point(p16 + 11) = {22.233829518622, 1.989590313337493, 0.1};
Point(p16 + 12) = {22.13463714212679, 1.965776330678316, 0.1};
Point(p16 + 13) = {22.04039131602432, 1.926738431309616, 0.1};
Point(p16 + 14) = {21.95341268533719, 1.87343785787321, 0.1};
Point(p16 + 15) = {21.87584295261844, 1.807187047381563, 0.1};
Point(p16 + 16) = {21.80959214212679, 1.729617314662814, 0.1};
Point(p16 + 17) = {21.75629156869039, 1.642638683975682, 0.1};
Point(p16 + 18) = {21.71725366932169, 1.54839285787321, 0.1};
Point(p16 + 19) = {21.69343968666251, 1.449200481378004, 0.1};
Point(p16 + 20) = {21.685436, 1.347504, 0.1};
Point(p16 + 21) = {21.69343968666251, 1.245807518621996, 0.1};
Point(p16 + 22) = {21.71725366932169, 1.14661514212679, 0.1};
Point(p16 + 23) = {21.75629156869039, 1.052369316024318, 0.1};
Point(p16 + 24) = {21.80959214212679, 0.9653906853371863, 0.1};
Point(p16 + 25) = {21.87584295261844, 0.8878209526184374, 0.1};
Point(p16 + 26) = {21.95341268533719, 0.8215701421267906, 0.1};
Point(p16 + 27) = {22.04039131602432, 0.7682695686903841, 0.1};
Point(p16 + 28) = {22.13463714212679, 0.7292316693216837, 0.1};
Point(p16 + 29) = {22.233829518622, 0.705417686662507, 0.1};
Point(p16 + 30) = {22.335526, 0.6974140000000001, 0.1};
Point(p16 + 31) = {22.437222481378, 0.7054176866625069, 0.1};
Point(p16 + 32) = {22.53641485787321, 0.7292316693216837, 0.1};
Point(p16 + 33) = {22.63066068397568, 0.7682695686903839, 0.1};
Point(p16 + 34) = {22.71763931466282, 0.8215701421267905, 0.1};
Point(p16 + 35) = {22.79520904738157, 0.8878209526184373, 0.1};
Point(p16 + 36) = {22.86145985787321, 0.9653906853371861, 0.1};
Point(p16 + 37) = {22.91476043130962, 1.052369316024318, 0.1};
Point(p16 + 38) = {22.95379833067832, 1.14661514212679, 0.1};
Point(p16 + 39) = {22.9776123133375, 1.245807518621996, 0.1};
Spline(16) = {11, p16 + 1, p16 + 2, p16 + 3, p16 + 4, p16 + 5, p16 + 6, p16 + 7, p16 + 8, p16 + 9, p16 + 10, p16 + 11, p16 + 12, p16 + 13, p16 + 14, p16 + 15, p16 + 16, p16 + 17, p16 + 18, p16 + 19, p16 + 20, p16 + 21, p16 + 22, p16 + 23, p16 + 24, p16 + 25, p16 + 26, p16 + 27, p16 + 28, p16 + 29, p16 + 30, p16 + 31, p16 + 32, p16 + 33, p16 + 34, p16 + 35, p16 + 36, p16 + 37, p16 + 38, p16 + 39, 11};
Line(17) = {12, 11};
p18 = newp;
Point(p18 + 1) = {22.9776123133375, 1.449200481378004, 0};
Point(p18 + 2) = {22.95379833067832, 1.54839285787321, 0};
Point(p18 + 3) = {22.91476043130962, 1.642638683975682, 0};
Point(p18 + 4) = {22.86145985787321, 1.729617314662814, 0};
Point(p18 + 5) = {22.79520904738157, 1.807187047381563, 0};
Point(p18 + 6) = {22.71763931466282, 1.873437857873209, 0};
Point(p18 + 7) = {22.63066068397568, 1.926738431309616, 0};
Point(p18 + 8) = {22.53641485787321, 1.965776330678316, 0};
Point(p18 + 9) = {22.437222481378, 1.989590313337493, 0};
Point(p18 + 10) = {22.335526, 1.997594, 0};
Point(p18 + 11) = {22.233829518622, 1.989590313337493, 0};
Point(p18 + 12) = {22.13463714212679, 1.965776330678316, 0};
Point(p18 + 13) = {22.04039131602432, 1.926738431309616, 0};
Point(p18 + 14) = {21.95341268533719, 1.87343785787321, 0};
Point(p18 + 15) = {21.87584295261844, 1.807187047381563, 0};
Point(p18 + 16) = {21.80959214212679, 1.729617314662814, 0};
Point(p18 + 17) = {21.75629156869039, 1.642638683975682, 0};
Point(p18 + 18) = {21.71725366932169, 1.54839285787321, 0};
Point(p18 + 19) = {21.69343968666251, 1.449200481378004, 0};
Point(p18 + 20) = {21.685436, 1.347504, 0};
Point(p18 + 21) = {21.69343968666251, 1.245807518621996, 0};
Point(p18 + 22) = {21.71725366932169, 1.14661514212679, 0};
Point(p18 + 23) = {21.75629156869039, 1.052369316024318, 0};
Point(p18 + 24) = {21.80959214212679, 0.9653906853371863, 0};
Point(p18 + 25) = {21.87584295261844, 0.8878209526184374, 0};
Point(p18 + 26) = {21.95341268533719, 0.8215701421267906, 0};
Point(p18 + 27) = {22.04039131602432, 0.7682695686903841, 0};
Point(p18 + 28) = {22.13463714212679, 0.7292316693216837, 0};
Point(p18 + 29) = {22.233829518622, 0.705417686662507, 0};
Point(p18 + 30) = {22.335526, 0.6974140000000001, 0};
Point(p18 + 31) = {22.437222481378, 0.7054176866625069, 0};
Point(p18 + 32) = {22.53641485787321, 0.7292316693216837, 0};
Point(p18 + 33) = {22.63066068397568, 0.7682695686903839, 0};
Point(p18 + 34) = {22.71763931466282, 0.8215701421267905, 0};
Point(p18 + 35) = {22.79520904738157, 0.8878209526184373, 0};
Point(p18 + 36) = {22.86145985787321, 0.9653906853371861, 0};
Point(p18 + 37) = {22.91476043130962, 1.052369316024318, 0};
Point(p18 + 38) = {22.95379833067832, 1.14661514212679, 0};
Point(p18 + 39) = {22.9776123133375, 1.245807518621996, 0};
Spline(18) = {12, p18 + 1, p18 + 2, p18 + 3, p18 + 4, p18 + 5, p18 + 6, p18 + 7, p18 + 8, p18 + 9, p18 + 10, p18 + 11, p18 + 12, p18 + 13, p18 + 14, p18 + 15, p18 + 16, p18 + 17, p18 + 18, p18 + 19, p18 + 20, p18 + 21, p18 + 22, p18 + 23, p18 + 24, p18 + 25, p18 + 26, p18 + 27, p18 + 28, p18 + 29, p18 + 30, p18 + 31, p18 + 32, p18 + 33, p18 + 34, p18 + 35, p18 + 36, p18 + 37, p18 + 38, p18 + 39, 12};
Line(19) = {14, 13};
Line(20) = {13, 15};
Line(21) = {16, 15};
Line(22) = {14, 16};
Line(23) = {14, 17};
Line(24) = {17, 18};
Line(25) = {13, 18};
Line(26) = {15, 19};
Line(27) = {18, 19};
Line(28) = {16, 20};
Line(29) = {20, 19};
Line(30) = {17, 20};
Curve Loop(7) = {-13, -14, 15, 14};
Surface(7) = {7};
Curve Loop(8) = {13};
Plane Surface(8) = {8};
Curve Loop(9) = {15};
Plane Surface(9) = {9};
Curve Loop(10) = {-16, -17, 18, 17};
Surface(10) = {10};
Curve Loop(11) = {16};
Plane Surface(11) = {11};
Curve Loop(12) = {18};
Plane Surface(12) = {12};
Curve Loop(13) = {-19, 22, 21, -20};
Plane Surface(13) = {13};
Curve Loop(14) = {-23, 19, 25, -24};
Plane Surface(14) = {14};
Curve Loop(15) = {-20, 25, 27, -26, -16, -13};
Plane Surface(15) = {15};
Curve Loop(16) = {-28, 21, 26, -29};
Plane Surface(16) = {16};
Curve Loop(17) = {-22, 23, 30, -28, -18, -15};
Plane Surface(17) = {17};
Curve Loop(18) = {-24, 30, 29, -27};
Plane Surface(18) = {18};
Surface Loop(1) = {13, 14, 15, 16, 17, 18, 10, 7};
Volume(1) = {1};
Surface Loop(2) = {7, 8, 9};
Volume(2) = {2};
Surface Loop(3) = {10, 11, 12};
Volume(3) = {3};
Physical Surface("WALLS") = {13, 18};
Physical Surface("LOAD") = {8, 11};
Physical Surface("BORDER") = {7, 9, 10, 12, 14, 15, 16, 17};
Physical Volume("SOLID") = {1, 2, 3};
