cl__1 = 0.054578;
cl__2 = 0.08928999999999999;
cl__3 = 0.675366;
cl__4 = 0.478219;
cl__5 = 2.964498;
cl__6 = 2.80249;
Point(9) = {21.239531, 1.663242, 0.1, cl__1};
Point(10) = {21.239531, 1.663242, 0, cl__1};
Point(11) = {8.327929999999999, 3.540662, 0.1, cl__2};
Point(12) = {8.327929999999999, 3.540662, 0, cl__2};
Point(13) = {0.341357, -3.285096, 0.1, cl__3};
Point(14) = {0.341357, -3.285096, 0, cl__3};
Point(15) = {0.341357, 4.944863, 0.1, cl__4};
Point(16) = {0.341357, 4.944863, 0, cl__4};
Point(17) = {39.644337, -3.285096, 0, cl__5};
Point(18) = {39.644337, -3.285096, 0.1, cl__5};
Point(19) = {39.644337, 4.944863, 0.1, cl__6};
Point(20) = {39.644337, 4.944863, 0, cl__6};
p13 = newp;
Point(p13 + 1) = {21.23281156715333, 1.748620489460727, 0.1};
Point(p13 + 2) = {21.21281872335054, 1.83189667715597, 0.1};
Point(p13 + 3) = {21.18004475875848, 1.91102002696685, 0.1};
Point(p13 + 4) = {21.13529667715597, 1.984042259425681, 0.1};
Point(p13 + 5) = {21.07967632482243, 2.049165324822432, 0.1};
Point(p13 + 6) = {21.01455325942568, 2.10478567715597, 0.1};
Point(p13 + 7) = {20.94153102696685, 2.149533758758479, 0.1};
Point(p13 + 8) = {20.86240767715597, 2.182307723350537, 0.1};
Point(p13 + 9) = {20.77913148946073, 2.202300567153333, 0.1};
Point(p13 + 10) = {20.693753, 2.20902, 0.1};
Point(p13 + 11) = {20.60837451053927, 2.202300567153333, 0.1};
Point(p13 + 12) = {20.52509832284403, 2.182307723350537, 0.1};
Point(p13 + 13) = {20.44597497303315, 2.149533758758479, 0.1};
Point(p13 + 14) = {20.37295274057432, 2.10478567715597, 0.1};
Point(p13 + 15) = {20.30782967517757, 2.049165324822432, 0.1};
Point(p13 + 16) = {20.25220932284403, 1.984042259425681, 0.1};
Point(p13 + 17) = {20.20746124124152, 1.91102002696685, 0.1};
Point(p13 + 18) = {20.17468727664946, 1.83189667715597, 0.1};
Point(p13 + 19) = {20.15469443284667, 1.748620489460727, 0.1};
Point(p13 + 20) = {20.147975, 1.663242, 0.1};
Point(p13 + 21) = {20.15469443284667, 1.577863510539273, 0.1};
Point(p13 + 22) = {20.17468727664946, 1.49458732284403, 0.1};
Point(p13 + 23) = {20.20746124124152, 1.41546397303315, 0.1};
Point(p13 + 24) = {20.25220932284403, 1.342441740574319, 0.1};
Point(p13 + 25) = {20.30782967517757, 1.277318675177569, 0.1};
Point(p13 + 26) = {20.37295274057432, 1.22169832284403, 0.1};
Point(p13 + 27) = {20.44597497303315, 1.176950241241521, 0.1};
Point(p13 + 28) = {20.52509832284403, 1.144176276649464, 0.1};
Point(p13 + 29) = {20.60837451053927, 1.124183432846667, 0.1};
Point(p13 + 30) = {20.693753, 1.117464, 0.1};
Point(p13 + 31) = {20.77913148946073, 1.124183432846667, 0.1};
Point(p13 + 32) = {20.86240767715597, 1.144176276649464, 0.1};
Point(p13 + 33) = {20.94153102696685, 1.176950241241521, 0.1};
Point(p13 + 34) = {21.01455325942568, 1.22169832284403, 0.1};
Point(p13 + 35) = {21.07967632482243, 1.277318675177568, 0.1};
Point(p13 + 36) = {21.13529667715597, 1.342441740574319, 0.1};
Point(p13 + 37) = {21.18004475875848, 1.41546397303315, 0.1};
Point(p13 + 38) = {21.21281872335054, 1.49458732284403, 0.1};
Point(p13 + 39) = {21.23281156715333, 1.577863510539273, 0.1};
Spline(13) = {9, p13 + 1, p13 + 2, p13 + 3, p13 + 4, p13 + 5, p13 + 6, p13 + 7, p13 + 8, p13 + 9, p13 + 10, p13 + 11, p13 + 12, p13 + 13, p13 + 14, p13 + 15, p13 + 16, p13 + 17, p13 + 18, p13 + 19, p13 + 20, p13 + 21, p13 + 22, p13 + 23, p13 + 24, p13 + 25, p13 + 26, p13 + 27, p13 + 28, p13 + 29, p13 + 30, p13 + 31, p13 + 32, p13 + 33, p13 + 34, p13 + 35, p13 + 36, p13 + 37, p13 + 38, p13 + 39, 9};
Line(14) = {10, 9};
p15 = newp;
Point(p15 + 1) = {21.23281156715333, 1.748620489460727, 0};
Point(p15 + 2) = {21.21281872335054, 1.83189667715597, 0};
Point(p15 + 3) = {21.18004475875848, 1.91102002696685, 0};
Point(p15 + 4) = {21.13529667715597, 1.984042259425681, 0};
Point(p15 + 5) = {21.07967632482243, 2.049165324822432, 0};
Point(p15 + 6) = {21.01455325942568, 2.10478567715597, 0};
Point(p15 + 7) = {20.94153102696685, 2.149533758758479, 0};
Point(p15 + 8) = {20.86240767715597, 2.182307723350537, 0};
Point(p15 + 9) = {20.77913148946073, 2.202300567153333, 0};
Point(p15 + 10) = {20.693753, 2.20902, 0};
Point(p15 + 11) = {20.60837451053927, 2.202300567153333, 0};
Point(p15 + 12) = {20.52509832284403, 2.182307723350537, 0};
Point(p15 + 13) = {20.44597497303315, 2.149533758758479, 0};
Point(p15 + 14) = {20.37295274057432, 2.10478567715597, 0};
Point(p15 + 15) = {20.30782967517757, 2.049165324822432, 0};
Point(p15 + 16) = {20.25220932284403, 1.984042259425681, 0};
Point(p15 + 17) = {20.20746124124152, 1.91102002696685, 0};
Point(p15 + 18) = {20.17468727664946, 1.83189667715597, 0};
Point(p15 + 19) = {20.15469443284667, 1.748620489460727, 0};
Point(p15 + 20) = {20.147975, 1.663242, 0};
Point(p15 + 21) = {20.15469443284667, 1.577863510539273, 0};
Point(p15 + 22) = {20.17468727664946, 1.49458732284403, 0};
Point(p15 + 23) = {20.20746124124152, 1.41546397303315, 0};
Point(p15 + 24) = {20.25220932284403, 1.342441740574319, 0};
Point(p15 + 25) = {20.30782967517757, 1.277318675177569, 0};
Point(p15 + 26) = {20.37295274057432, 1.22169832284403, 0};
Point(p15 + 27) = {20.44597497303315, 1.176950241241521, 0};
Point(p15 + 28) = {20.52509832284403, 1.144176276649464, 0};
Point(p15 + 29) = {20.60837451053927, 1.124183432846667, 0};
Point(p15 + 30) = {20.693753, 1.117464, 0};
Point(p15 + 31) = {20.77913148946073, 1.124183432846667, 0};
Point(p15 + 32) = {20.86240767715597, 1.144176276649464, 0};
Point(p15 + 33) = {20.94153102696685, 1.176950241241521, 0};
Point(p15 + 34) = {21.01455325942568, 1.22169832284403, 0};
Point(p15 + 35) = {21.07967632482243, 1.277318675177568, 0};
Point(p15 + 36) = {21.13529667715597, 1.342441740574319, 0};
Point(p15 + 37) = {21.18004475875848, 1.41546397303315, 0};
Point(p15 + 38) = {21.21281872335054, 1.49458732284403, 0};
Point(p15 + 39) = {21.23281156715333, 1.577863510539273, 0};
Spline(15) = {10, p15 + 1, p15 + 2, p15 + 3, p15 + 4, p15 + 5, p15 + 6, p15 + 7, p15 + 8, p15 + 9, p15 + 10, p15 + 11, p15 + 12, p15 + 13, p15 + 14, p15 + 15, p15 + 16, p15 + 17, p15 + 18, p15 + 19, p15 + 20, p15 + 21, p15 + 22, p15 + 23, p15 + 24, p15 + 25, p15 + 26, p15 + 27, p15 + 28, p15 + 29, p15 + 30, p15 + 31, p15 + 32, p15 + 33, p15 + 34, p15 + 35, p15 + 36, p15 + 37, p15 + 38, p15 + 39, 10};
p16 = newp;
Point(p16 + 1) = {8.316936968564036, 3.680341708096562, 0.1};
Point(p16 + 2) = {8.284228559173878, 3.816582038209413, 0.1};
Point(p16 + 3) = {8.230610161421698, 3.946028301255442, 0.1};
Point(p16 + 4) = {8.157402038209414, 4.06549310063094, 0.1};
Point(p16 + 5) = {8.066406816494343, 4.172034816494344, 0.1};
Point(p16 + 6) = {7.95986510063094, 4.263030038209413, 0.1};
Point(p16 + 7) = {7.840400301255443, 4.336238161421697, 0.1};
Point(p16 + 8) = {7.710954038209413, 4.389856559173878, 0.1};
Point(p16 + 9) = {7.574713708096562, 4.422564968564036, 0.1};
Point(p16 + 10) = {7.435034, 4.433558000000001, 0.1};
Point(p16 + 11) = {7.295354291903438, 4.422564968564036, 0.1};
Point(p16 + 12) = {7.159113961790587, 4.389856559173878, 0.1};
Point(p16 + 13) = {7.029667698744557, 4.336238161421697, 0.1};
Point(p16 + 14) = {6.91020289936906, 4.263030038209413, 0.1};
Point(p16 + 15) = {6.803661183505657, 4.172034816494344, 0.1};
Point(p16 + 16) = {6.712665961790587, 4.06549310063094, 0.1};
Point(p16 + 17) = {6.639457838578303, 3.946028301255442, 0.1};
Point(p16 + 18) = {6.585839440826122, 3.816582038209413, 0.1};
Point(p16 + 19) = {6.553131031435964, 3.680341708096562, 0.1};
Point(p16 + 20) = {6.542138, 3.540662, 0.1};
Point(p16 + 21) = {6.553131031435964, 3.400982291903438, 0.1};
Point(p16 + 22) = {6.585839440826122, 3.264741961790587, 0.1};
Point(p16 + 23) = {6.639457838578303, 3.135295698744558, 0.1};
Point(p16 + 24) = {6.712665961790587, 3.01583089936906, 0.1};
Point(p16 + 25) = {6.803661183505656, 2.909289183505657, 0.1};
Point(p16 + 26) = {6.91020289936906, 2.818293961790587, 0.1};
Point(p16 + 27) = {7.029667698744557, 2.745085838578303, 0.1};
Point(p16 + 28) = {7.159113961790586, 2.691467440826123, 0.1};
Point(p16 + 29) = {7.295354291903438, 2.658759031435964, 0.1};
Point(p16 + 30) = {7.435034, 2.647766, 0.1};
Point(p16 + 31) = {7.574713708096562, 2.658759031435964, 0.1};
Point(p16 + 32) = {7.710954038209413, 2.691467440826123, 0.1};
Point(p16 + 33) = {7.840400301255443, 2.745085838578303, 0.1};
Point(p16 + 34) = {7.95986510063094, 2.818293961790587, 0.1};
Point(p16 + 35) = {8.066406816494343, 2.909289183505656, 0.1};
Point(p16 + 36) = {8.157402038209414, 3.01583089936906, 0.1};
Point(p16 + 37) = {8.230610161421696, 3.135295698744557, 0.1};
Point(p16 + 38) = {8.284228559173878, 3.264741961790587, 0.1};
Point(p16 + 39) = {8.316936968564036, 3.400982291903438, 0.1};
Spline(16) = {11, p16 + 1, p16 + 2, p16 + 3, p16 + 4, p16 + 5, p16 + 6, p16 + 7, p16 + 8, p16 + 9, p16 + 10, p16 + 11, p16 + 12, p16 + 13, p16 + 14, p16 + 15, p16 + 16, p16 + 17, p16 + 18, p16 + 19, p16 + 20, p16 + 21, p16 + 22, p16 + 23, p16 + 24, p16 + 25, p16 + 26, p16 + 27, p16 + 28, p16 + 29, p16 + 30, p16 + 31, p16 + 32, p16 + 33, p16 + 34, p16 + 35, p16 + 36, p16 + 37, p16 + 38, p16 + 39, 11};
Line(17) = {12, 11};
p18 = newp;
Point(p18 + 1) = {8.316936968564036, 3.680341708096562, 0};
Point(p18 + 2) = {8.284228559173878, 3.816582038209413, 0};
Point(p18 + 3) = {8.230610161421698, 3.946028301255442, 0};
Point(p18 + 4) = {8.157402038209414, 4.06549310063094, 0};
Point(p18 + 5) = {8.066406816494343, 4.172034816494344, 0};
Point(p18 + 6) = {7.95986510063094, 4.263030038209413, 0};
Point(p18 + 7) = {7.840400301255443, 4.336238161421697, 0};
Point(p18 + 8) = {7.710954038209413, 4.389856559173878, 0};
Point(p18 + 9) = {7.574713708096562, 4.422564968564036, 0};
Point(p18 + 10) = {7.435034, 4.433558000000001, 0};
Point(p18 + 11) = {7.295354291903438, 4.422564968564036, 0};
Point(p18 + 12) = {7.159113961790587, 4.389856559173878, 0};
Point(p18 + 13) = {7.029667698744557, 4.336238161421697, 0};
Point(p18 + 14) = {6.91020289936906, 4.263030038209413, 0};
Point(p18 + 15) = {6.803661183505657, 4.172034816494344, 0};
Point(p18 + 16) = {6.712665961790587, 4.06549310063094, 0};
Point(p18 + 17) = {6.639457838578303, 3.946028301255442, 0};
Point(p18 + 18) = {6.585839440826122, 3.816582038209413, 0};
Point(p18 + 19) = {6.553131031435964, 3.680341708096562, 0};
Point(p18 + 20) = {6.542138, 3.540662, 0};
Point(p18 + 21) = {6.553131031435964, 3.400982291903438, 0};
Point(p18 + 22) = {6.585839440826122, 3.264741961790587, 0};
Point(p18 + 23) = {6.639457838578303, 3.135295698744558, 0};
Point(p18 + 24) = {6.712665961790587, 3.01583089936906, 0};
Point(p18 + 25) = {6.803661183505656, 2.909289183505657, 0};
Point(p18 + 26) = {6.91020289936906, 2.818293961790587, 0};
Point(p18 + 27) = {7.029667698744557, 2.745085838578303, 0};
Point(p18 + 28) = {7.159113961790586, 2.691467440826123, 0};
Point(p18 + 29) = {7.295354291903438, 2.658759031435964, 0};
Point(p18 + 30) = {7.435034, 2.647766, 0};
Point(p18 + 31) = {7.574713708096562, 2.658759031435964, 0};
Point(p18 + 32) = {7.710954038209413, 2.691467440826123, 0};
Point(p18 + 33) = {7.840400301255443, 2.745085838578303, 0};
Point(p18 + 34) = {7.95986510063094, 2.818293961790587, 0};
Point(p18 + 35) = {8.066406816494343, 2.909289183505656, 0};
Point(p18 + 36) = {8.157402038209414, 3.01583089936906, 0};
Point(p18 + 37) = {8.230610161421696, 3.135295698744557, 0};
Point(p18 + 38) = {8.284228559173878, 3.264741961790587, 0};
Point(p18 + 39) = {8.316936968564036, 3.400982291903438, 0};
Spline(18) = {12, p18 + 1, p18 + 2, p18 + 3, p18 + 4, p18 + 5, p18 + 6, p18 + 7, p18 + 8, p18 + 9, p18 + 10, p18 + 11, p18 + 12, p18 + 13, p18 + 14, p18 + 15, p18 + 16, p18 + 17, p18 + 18, p18 + 19, p18 + 20, p18 + 21, p18 + 22, p18 + 23, p18 + 24, p18 + 25, p18 + 26, p18 + 27, p18 + 28, p18 + 29, p18 + 30, p18 + 31, p18 + 32, p18 + 33, p18 + 34, p18 + 35, p18 + 36, p18 + 37, p18 + 38, p18 + 39, 12};
Line(19) = {14, 13};
Line(20) = {13, 15};
Line(21) = {16, 15};
Line(22) = {14, 16};
Line(23) = {14, 17};
Line(24) = {17, 18};
Line(25) = {13, 18};
Line(26) = {15, 19};
Line(27) = {18, 19};
Line(28) = {16, 20};
Line(29) = {20, 19};
Line(30) = {17, 20};
Curve Loop(7) = {-13, -14, 15, 14};
Surface(7) = {7};
Curve Loop(8) = {13};
Plane Surface(8) = {8};
Curve Loop(9) = {15};
Plane Surface(9) = {9};
Curve Loop(10) = {-16, -17, 18, 17};
Surface(10) = {10};
Curve Loop(11) = {16};
Plane Surface(11) = {11};
Curve Loop(12) = {18};
Plane Surface(12) = {12};
Curve Loop(13) = {-19, 22, 21, -20};
Plane Surface(13) = {13};
Curve Loop(14) = {-23, 19, 25, -24};
Plane Surface(14) = {14};
Curve Loop(15) = {-20, 25, 27, -26, -13, -16};
Plane Surface(15) = {15};
Curve Loop(16) = {-28, 21, 26, -29};
Plane Surface(16) = {16};
Curve Loop(17) = {-22, 23, 30, -28, -15, -18};
Plane Surface(17) = {17};
Curve Loop(18) = {-24, 30, 29, -27};
Plane Surface(18) = {18};
Surface Loop(1) = {13, 14, 15, 16, 17, 18, 7, 10};
Volume(1) = {1};
Surface Loop(2) = {7, 8, 9};
Volume(2) = {2};
Surface Loop(3) = {10, 11, 12};
Volume(3) = {3};
Physical Surface("WALLS") = {13, 18};
Physical Surface("LOAD") = {8, 11};
Physical Surface("BORDER") = {7, 9, 10, 12, 14, 15, 16, 17};
Physical Volume("SOLID") = {1, 2, 3};
