cl__1 = 0.098923;
cl__2 = 0.080773;
cl__3 = 0.618313;
cl__4 = 0.615581;
cl__5 = 2.854285;
cl__6 = 2.447251;
Point(9) = {23.192192, 0.8441279999999998, 0.1, cl__1};
Point(10) = {23.192192, 0.8441279999999998, 0, cl__1};
Point(11) = {2.750967, 0.3682929999999998, 0.1, cl__2};
Point(12) = {2.750967, 0.3682929999999998, 0, cl__2};
Point(13) = {0.630617, -4.181728, 0.1, cl__3};
Point(14) = {0.630617, -4.181728, 0, cl__3};
Point(15) = {0.630617, 4.90025, 0.1, cl__4};
Point(16) = {0.630617, 4.90025, 0, cl__4};
Point(17) = {30.848625, -4.181728, 0, cl__5};
Point(18) = {30.848625, -4.181728, 0.1, cl__5};
Point(19) = {30.848625, 4.90025, 0.1, cl__6};
Point(20) = {30.848625, 4.90025, 0, cl__6};
p13 = newp;
Point(p13 + 1) = {23.18001290023195, 0.9988781351551427, 0.1};
Point(p13 + 2) = {23.1437754907842, 1.149817808396512, 0.1};
Point(p13 + 3) = {23.08437205694243, 1.293230384028851, 0.1};
Point(p13 + 4) = {23.00326530839651, 1.42558456848104, 0.1};
Point(p13 + 5) = {22.90245236247351, 1.543621362473512, 0.1};
Point(p13 + 6) = {22.78441556848104, 1.644434308396512, 0.1};
Point(p13 + 7) = {22.65206138402885, 1.725541056942432, 0.1};
Point(p13 + 8) = {22.50864880839651, 1.784944490784204, 0.1};
Point(p13 + 9) = {22.35770913515514, 1.82118190023195, 0.1};
Point(p13 + 10) = {22.202959, 1.833361, 0.1};
Point(p13 + 11) = {22.04820886484486, 1.82118190023195, 0.1};
Point(p13 + 12) = {21.89726919160349, 1.784944490784204, 0.1};
Point(p13 + 13) = {21.75385661597115, 1.725541056942432, 0.1};
Point(p13 + 14) = {21.62150243151896, 1.644434308396512, 0.1};
Point(p13 + 15) = {21.50346563752649, 1.543621362473512, 0.1};
Point(p13 + 16) = {21.40265269160349, 1.42558456848104, 0.1};
Point(p13 + 17) = {21.32154594305757, 1.293230384028851, 0.1};
Point(p13 + 18) = {21.2621425092158, 1.149817808396512, 0.1};
Point(p13 + 19) = {21.22590509976805, 0.9988781351551428, 0.1};
Point(p13 + 20) = {21.213726, 0.8441280000000001, 0.1};
Point(p13 + 21) = {21.22590509976805, 0.6893778648448574, 0.1};
Point(p13 + 22) = {21.2621425092158, 0.5384381916034873, 0.1};
Point(p13 + 23) = {21.32154594305757, 0.3950256159711494, 0.1};
Point(p13 + 24) = {21.40265269160349, 0.26267143151896, 0.1};
Point(p13 + 25) = {21.50346563752649, 0.1446346375264881, 0.1};
Point(p13 + 26) = {21.62150243151896, 0.0438216916034877, 0.1};
Point(p13 + 27) = {21.75385661597115, -0.03728505694243167, 0.1};
Point(p13 + 28) = {21.89726919160349, -0.09668849078420361, 0.1};
Point(p13 + 29) = {22.04820886484486, -0.1329259002319498, 0.1};
Point(p13 + 30) = {22.202959, -0.145105, 0.1};
Point(p13 + 31) = {22.35770913515514, -0.1329259002319499, 0.1};
Point(p13 + 32) = {22.50864880839651, -0.09668849078420372, 0.1};
Point(p13 + 33) = {22.65206138402885, -0.03728505694243189, 0.1};
Point(p13 + 34) = {22.78441556848104, 0.04382169160348748, 0.1};
Point(p13 + 35) = {22.90245236247351, 0.1446346375264879, 0.1};
Point(p13 + 36) = {23.00326530839651, 0.2626714315189598, 0.1};
Point(p13 + 37) = {23.08437205694243, 0.3950256159711487, 0.1};
Point(p13 + 38) = {23.1437754907842, 0.5384381916034875, 0.1};
Point(p13 + 39) = {23.18001290023195, 0.689377864844857, 0.1};
Spline(13) = {9, p13 + 1, p13 + 2, p13 + 3, p13 + 4, p13 + 5, p13 + 6, p13 + 7, p13 + 8, p13 + 9, p13 + 10, p13 + 11, p13 + 12, p13 + 13, p13 + 14, p13 + 15, p13 + 16, p13 + 17, p13 + 18, p13 + 19, p13 + 20, p13 + 21, p13 + 22, p13 + 23, p13 + 24, p13 + 25, p13 + 26, p13 + 27, p13 + 28, p13 + 29, p13 + 30, p13 + 31, p13 + 32, p13 + 33, p13 + 34, p13 + 35, p13 + 36, p13 + 37, p13 + 38, p13 + 39, 9};
Line(14) = {10, 9};
p15 = newp;
Point(p15 + 1) = {23.18001290023195, 0.9988781351551427, 0};
Point(p15 + 2) = {23.1437754907842, 1.149817808396512, 0};
Point(p15 + 3) = {23.08437205694243, 1.293230384028851, 0};
Point(p15 + 4) = {23.00326530839651, 1.42558456848104, 0};
Point(p15 + 5) = {22.90245236247351, 1.543621362473512, 0};
Point(p15 + 6) = {22.78441556848104, 1.644434308396512, 0};
Point(p15 + 7) = {22.65206138402885, 1.725541056942432, 0};
Point(p15 + 8) = {22.50864880839651, 1.784944490784204, 0};
Point(p15 + 9) = {22.35770913515514, 1.82118190023195, 0};
Point(p15 + 10) = {22.202959, 1.833361, 0};
Point(p15 + 11) = {22.04820886484486, 1.82118190023195, 0};
Point(p15 + 12) = {21.89726919160349, 1.784944490784204, 0};
Point(p15 + 13) = {21.75385661597115, 1.725541056942432, 0};
Point(p15 + 14) = {21.62150243151896, 1.644434308396512, 0};
Point(p15 + 15) = {21.50346563752649, 1.543621362473512, 0};
Point(p15 + 16) = {21.40265269160349, 1.42558456848104, 0};
Point(p15 + 17) = {21.32154594305757, 1.293230384028851, 0};
Point(p15 + 18) = {21.2621425092158, 1.149817808396512, 0};
Point(p15 + 19) = {21.22590509976805, 0.9988781351551428, 0};
Point(p15 + 20) = {21.213726, 0.8441280000000001, 0};
Point(p15 + 21) = {21.22590509976805, 0.6893778648448574, 0};
Point(p15 + 22) = {21.2621425092158, 0.5384381916034873, 0};
Point(p15 + 23) = {21.32154594305757, 0.3950256159711494, 0};
Point(p15 + 24) = {21.40265269160349, 0.26267143151896, 0};
Point(p15 + 25) = {21.50346563752649, 0.1446346375264881, 0};
Point(p15 + 26) = {21.62150243151896, 0.0438216916034877, 0};
Point(p15 + 27) = {21.75385661597115, -0.03728505694243167, 0};
Point(p15 + 28) = {21.89726919160349, -0.09668849078420361, 0};
Point(p15 + 29) = {22.04820886484486, -0.1329259002319498, 0};
Point(p15 + 30) = {22.202959, -0.145105, 0};
Point(p15 + 31) = {22.35770913515514, -0.1329259002319499, 0};
Point(p15 + 32) = {22.50864880839651, -0.09668849078420372, 0};
Point(p15 + 33) = {22.65206138402885, -0.03728505694243189, 0};
Point(p15 + 34) = {22.78441556848104, 0.04382169160348748, 0};
Point(p15 + 35) = {22.90245236247351, 0.1446346375264879, 0};
Point(p15 + 36) = {23.00326530839651, 0.2626714315189598, 0};
Point(p15 + 37) = {23.08437205694243, 0.3950256159711487, 0};
Point(p15 + 38) = {23.1437754907842, 0.5384381916034875, 0};
Point(p15 + 39) = {23.18001290023195, 0.689377864844857, 0};
Spline(15) = {10, p15 + 1, p15 + 2, p15 + 3, p15 + 4, p15 + 5, p15 + 6, p15 + 7, p15 + 8, p15 + 9, p15 + 10, p15 + 11, p15 + 12, p15 + 13, p15 + 14, p15 + 15, p15 + 16, p15 + 17, p15 + 18, p15 + 19, p15 + 20, p15 + 21, p15 + 22, p15 + 23, p15 + 24, p15 + 25, p15 + 26, p15 + 27, p15 + 28, p15 + 29, p15 + 30, p15 + 31, p15 + 32, p15 + 33, p15 + 34, p15 + 35, p15 + 36, p15 + 37, p15 + 38, p15 + 39, 10};
p16 = newp;
Point(p16 + 1) = {2.741022491037251, 0.4946499668814107, 0.1};
Point(p16 + 2) = {2.711433830963601, 0.6178956058834706, 0.1};
Point(p16 + 3) = {2.662929590789195, 0.7349952003451239, 0.1};
Point(p16 + 4) = {2.596704105883471, 0.8430653696194517, 0.1};
Point(p16 + 5) = {2.514388067474591, 0.9394450674745911, 0.1};
Point(p16 + 6) = {2.418008369619452, 1.021761105883471, 0.1};
Point(p16 + 7) = {2.309938200345124, 1.087986590789194, 0.1};
Point(p16 + 8) = {2.192838605883471, 1.136490830963601, 0.1};
Point(p16 + 9) = {2.069592966881411, 1.166079491037251, 0.1};
Point(p16 + 10) = {1.943236, 1.176024, 0.1};
Point(p16 + 11) = {1.816879033118589, 1.166079491037251, 0.1};
Point(p16 + 12) = {1.693633394116529, 1.136490830963601, 0.1};
Point(p16 + 13) = {1.576533799654876, 1.087986590789195, 0.1};
Point(p16 + 14) = {1.468463630380549, 1.021761105883471, 0.1};
Point(p16 + 15) = {1.372083932525409, 0.9394450674745912, 0.1};
Point(p16 + 16) = {1.289767894116529, 0.8430653696194517, 0.1};
Point(p16 + 17) = {1.223542409210805, 0.7349952003451239, 0.1};
Point(p16 + 18) = {1.175038169036399, 0.6178956058834707, 0.1};
Point(p16 + 19) = {1.145449508962749, 0.4946499668814108, 0.1};
Point(p16 + 20) = {1.135505, 0.3682930000000001, 0.1};
Point(p16 + 21) = {1.145449508962749, 0.2419360331185894, 0.1};
Point(p16 + 22) = {1.175038169036399, 0.1186903941165291, 0.1};
Point(p16 + 23) = {1.223542409210805, 0.001590799654876518, 0.1};
Point(p16 + 24) = {1.289767894116529, -0.1064793696194515, 0.1};
Point(p16 + 25) = {1.372083932525409, -0.2028590674745911, 0.1};
Point(p16 + 26) = {1.468463630380548, -0.2851751058834706, 0.1};
Point(p16 + 27) = {1.576533799654876, -0.3514005907891945, 0.1};
Point(p16 + 28) = {1.693633394116529, -0.3999048309636006, 0.1};
Point(p16 + 29) = {1.816879033118589, -0.4294934910372511, 0.1};
Point(p16 + 30) = {1.943236, -0.439438, 0.1};
Point(p16 + 31) = {2.069592966881411, -0.4294934910372512, 0.1};
Point(p16 + 32) = {2.192838605883471, -0.3999048309636007, 0.1};
Point(p16 + 33) = {2.309938200345124, -0.3514005907891947, 0.1};
Point(p16 + 34) = {2.418008369619451, -0.2851751058834707, 0.1};
Point(p16 + 35) = {2.514388067474591, -0.2028590674745914, 0.1};
Point(p16 + 36) = {2.596704105883471, -0.1064793696194517, 0.1};
Point(p16 + 37) = {2.662929590789195, 0.001590799654875963, 0.1};
Point(p16 + 38) = {2.711433830963601, 0.1186903941165292, 0.1};
Point(p16 + 39) = {2.741022491037251, 0.2419360331185891, 0.1};
Spline(16) = {11, p16 + 1, p16 + 2, p16 + 3, p16 + 4, p16 + 5, p16 + 6, p16 + 7, p16 + 8, p16 + 9, p16 + 10, p16 + 11, p16 + 12, p16 + 13, p16 + 14, p16 + 15, p16 + 16, p16 + 17, p16 + 18, p16 + 19, p16 + 20, p16 + 21, p16 + 22, p16 + 23, p16 + 24, p16 + 25, p16 + 26, p16 + 27, p16 + 28, p16 + 29, p16 + 30, p16 + 31, p16 + 32, p16 + 33, p16 + 34, p16 + 35, p16 + 36, p16 + 37, p16 + 38, p16 + 39, 11};
Line(17) = {12, 11};
p18 = newp;
Point(p18 + 1) = {2.741022491037251, 0.4946499668814107, 0};
Point(p18 + 2) = {2.711433830963601, 0.6178956058834706, 0};
Point(p18 + 3) = {2.662929590789195, 0.7349952003451239, 0};
Point(p18 + 4) = {2.596704105883471, 0.8430653696194517, 0};
Point(p18 + 5) = {2.514388067474591, 0.9394450674745911, 0};
Point(p18 + 6) = {2.418008369619452, 1.021761105883471, 0};
Point(p18 + 7) = {2.309938200345124, 1.087986590789194, 0};
Point(p18 + 8) = {2.192838605883471, 1.136490830963601, 0};
Point(p18 + 9) = {2.069592966881411, 1.166079491037251, 0};
Point(p18 + 10) = {1.943236, 1.176024, 0};
Point(p18 + 11) = {1.816879033118589, 1.166079491037251, 0};
Point(p18 + 12) = {1.693633394116529, 1.136490830963601, 0};
Point(p18 + 13) = {1.576533799654876, 1.087986590789195, 0};
Point(p18 + 14) = {1.468463630380549, 1.021761105883471, 0};
Point(p18 + 15) = {1.372083932525409, 0.9394450674745912, 0};
Point(p18 + 16) = {1.289767894116529, 0.8430653696194517, 0};
Point(p18 + 17) = {1.223542409210805, 0.7349952003451239, 0};
Point(p18 + 18) = {1.175038169036399, 0.6178956058834707, 0};
Point(p18 + 19) = {1.145449508962749, 0.4946499668814108, 0};
Point(p18 + 20) = {1.135505, 0.3682930000000001, 0};
Point(p18 + 21) = {1.145449508962749, 0.2419360331185894, 0};
Point(p18 + 22) = {1.175038169036399, 0.1186903941165291, 0};
Point(p18 + 23) = {1.223542409210805, 0.001590799654876518, 0};
Point(p18 + 24) = {1.289767894116529, -0.1064793696194515, 0};
Point(p18 + 25) = {1.372083932525409, -0.2028590674745911, 0};
Point(p18 + 26) = {1.468463630380548, -0.2851751058834706, 0};
Point(p18 + 27) = {1.576533799654876, -0.3514005907891945, 0};
Point(p18 + 28) = {1.693633394116529, -0.3999048309636006, 0};
Point(p18 + 29) = {1.816879033118589, -0.4294934910372511, 0};
Point(p18 + 30) = {1.943236, -0.439438, 0};
Point(p18 + 31) = {2.069592966881411, -0.4294934910372512, 0};
Point(p18 + 32) = {2.192838605883471, -0.3999048309636007, 0};
Point(p18 + 33) = {2.309938200345124, -0.3514005907891947, 0};
Point(p18 + 34) = {2.418008369619451, -0.2851751058834707, 0};
Point(p18 + 35) = {2.514388067474591, -0.2028590674745914, 0};
Point(p18 + 36) = {2.596704105883471, -0.1064793696194517, 0};
Point(p18 + 37) = {2.662929590789195, 0.001590799654875963, 0};
Point(p18 + 38) = {2.711433830963601, 0.1186903941165292, 0};
Point(p18 + 39) = {2.741022491037251, 0.2419360331185891, 0};
Spline(18) = {12, p18 + 1, p18 + 2, p18 + 3, p18 + 4, p18 + 5, p18 + 6, p18 + 7, p18 + 8, p18 + 9, p18 + 10, p18 + 11, p18 + 12, p18 + 13, p18 + 14, p18 + 15, p18 + 16, p18 + 17, p18 + 18, p18 + 19, p18 + 20, p18 + 21, p18 + 22, p18 + 23, p18 + 24, p18 + 25, p18 + 26, p18 + 27, p18 + 28, p18 + 29, p18 + 30, p18 + 31, p18 + 32, p18 + 33, p18 + 34, p18 + 35, p18 + 36, p18 + 37, p18 + 38, p18 + 39, 12};
Line(19) = {14, 13};
Line(20) = {13, 15};
Line(21) = {16, 15};
Line(22) = {14, 16};
Line(23) = {14, 17};
Line(24) = {17, 18};
Line(25) = {13, 18};
Line(26) = {15, 19};
Line(27) = {18, 19};
Line(28) = {16, 20};
Line(29) = {20, 19};
Line(30) = {17, 20};
Curve Loop(7) = {-13, -14, 15, 14};
Surface(7) = {7};
Curve Loop(8) = {13};
Plane Surface(8) = {8};
Curve Loop(9) = {15};
Plane Surface(9) = {9};
Curve Loop(10) = {-16, -17, 18, 17};
Surface(10) = {10};
Curve Loop(11) = {16};
Plane Surface(11) = {11};
Curve Loop(12) = {18};
Plane Surface(12) = {12};
Curve Loop(13) = {-19, 22, 21, -20};
Plane Surface(13) = {13};
Curve Loop(14) = {-23, 19, 25, -24};
Plane Surface(14) = {14};
Curve Loop(15) = {-20, 25, 27, -26, -16, -13};
Plane Surface(15) = {15};
Curve Loop(16) = {-28, 21, 26, -29};
Plane Surface(16) = {16};
Curve Loop(17) = {-22, 23, 30, -28, -18, -15};
Plane Surface(17) = {17};
Curve Loop(18) = {-24, 30, 29, -27};
Plane Surface(18) = {18};
Surface Loop(1) = {13, 14, 15, 16, 17, 18, 10, 7};
Volume(1) = {1};
Surface Loop(2) = {7, 8, 9};
Volume(2) = {2};
Surface Loop(3) = {10, 11, 12};
Volume(3) = {3};
Physical Surface("WALLS") = {13, 18};
Physical Surface("LOAD") = {8, 11};
Physical Surface("BORDER") = {7, 9, 10, 12, 14, 15, 16, 17};
Physical Volume("SOLID") = {1, 2, 3};
