cl__1 = 0.085796;
cl__2 = 0.138282;
cl__3 = 0.448609;
cl__4 = 0.317364;
cl__5 = 4.395845;
cl__6 = 4.064594;
Point(9) = {4.813894999999999, 1.183569, 0.1, cl__1};
Point(10) = {4.813894999999999, 1.183569, 0, cl__1};
Point(11) = {18.581151, 1.410833, 0.1, cl__2};
Point(12) = {18.581151, 1.410833, 0, cl__2};
Point(13) = {0.625325, -4.090083, 0.1, cl__3};
Point(14) = {0.625325, -4.090083, 0, cl__3};
Point(15) = {0.625325, 4.447879, 0.1, cl__4};
Point(16) = {0.625325, 4.447879, 0, cl__4};
Point(17) = {37.491944, -4.090083, 0, cl__5};
Point(18) = {37.491944, -4.090083, 0.1, cl__5};
Point(19) = {37.491944, 4.447879, 0.1, cl__6};
Point(20) = {37.491944, 4.447879, 0, cl__6};
p13 = newp;
Point(p13 + 1) = {4.803332051762026, 1.317783982929312, 0.1};
Point(p13 + 2) = {4.771903301890139, 1.448694147544913, 0.1};
Point(p13 + 3) = {4.720382630512225, 1.573076051128041, 0.1};
Point(p13 + 4) = {4.650038647544913, 1.687866998412607, 0.1};
Point(p13 + 5) = {4.562603455307154, 1.790240455307154, 0.1};
Point(p13 + 6) = {4.460229998412607, 1.877675647544913, 0.1};
Point(p13 + 7) = {4.34543905112804, 1.948019630512225, 0.1};
Point(p13 + 8) = {4.221057147544913, 1.999540301890139, 0.1};
Point(p13 + 9) = {4.090146982929311, 2.030969051762026, 0.1};
Point(p13 + 10) = {3.955932, 2.041532, 0.1};
Point(p13 + 11) = {3.821717017070688, 2.030969051762026, 0.1};
Point(p13 + 12) = {3.690806852455087, 1.999540301890139, 0.1};
Point(p13 + 13) = {3.566424948871959, 1.948019630512225, 0.1};
Point(p13 + 14) = {3.451634001587393, 1.877675647544913, 0.1};
Point(p13 + 15) = {3.349260544692846, 1.790240455307154, 0.1};
Point(p13 + 16) = {3.261825352455087, 1.687866998412607, 0.1};
Point(p13 + 17) = {3.191481369487775, 1.573076051128041, 0.1};
Point(p13 + 18) = {3.139960698109861, 1.448694147544913, 0.1};
Point(p13 + 19) = {3.108531948237974, 1.317783982929312, 0.1};
Point(p13 + 20) = {3.097969, 1.183569, 0.1};
Point(p13 + 21) = {3.108531948237974, 1.049354017070689, 0.1};
Point(p13 + 22) = {3.139960698109861, 0.9184438524550869, 0.1};
Point(p13 + 23) = {3.191481369487775, 0.7940619488719597, 0.1};
Point(p13 + 24) = {3.261825352455087, 0.6792710015873931, 0.1};
Point(p13 + 25) = {3.349260544692846, 0.5768975446928463, 0.1};
Point(p13 + 26) = {3.451634001587393, 0.4894623524550871, 0.1};
Point(p13 + 27) = {3.566424948871959, 0.4191183694877755, 0.1};
Point(p13 + 28) = {3.690806852455087, 0.3675976981098612, 0.1};
Point(p13 + 29) = {3.821717017070688, 0.3361689482379739, 0.1};
Point(p13 + 30) = {3.955932, 0.3256060000000001, 0.1};
Point(p13 + 31) = {4.090146982929311, 0.3361689482379738, 0.1};
Point(p13 + 32) = {4.221057147544912, 0.3675976981098612, 0.1};
Point(p13 + 33) = {4.34543905112804, 0.4191183694877753, 0.1};
Point(p13 + 34) = {4.460229998412607, 0.489462352455087, 0.1};
Point(p13 + 35) = {4.562603455307154, 0.576897544692846, 0.1};
Point(p13 + 36) = {4.650038647544913, 0.6792710015873928, 0.1};
Point(p13 + 37) = {4.720382630512225, 0.7940619488719591, 0.1};
Point(p13 + 38) = {4.771903301890139, 0.9184438524550869, 0.1};
Point(p13 + 39) = {4.803332051762026, 1.049354017070688, 0.1};
Spline(13) = {9, p13 + 1, p13 + 2, p13 + 3, p13 + 4, p13 + 5, p13 + 6, p13 + 7, p13 + 8, p13 + 9, p13 + 10, p13 + 11, p13 + 12, p13 + 13, p13 + 14, p13 + 15, p13 + 16, p13 + 17, p13 + 18, p13 + 19, p13 + 20, p13 + 21, p13 + 22, p13 + 23, p13 + 24, p13 + 25, p13 + 26, p13 + 27, p13 + 28, p13 + 29, p13 + 30, p13 + 31, p13 + 32, p13 + 33, p13 + 34, p13 + 35, p13 + 36, p13 + 37, p13 + 38, p13 + 39, 9};
Line(14) = {10, 9};
p15 = newp;
Point(p15 + 1) = {4.803332051762026, 1.317783982929312, 0};
Point(p15 + 2) = {4.771903301890139, 1.448694147544913, 0};
Point(p15 + 3) = {4.720382630512225, 1.573076051128041, 0};
Point(p15 + 4) = {4.650038647544913, 1.687866998412607, 0};
Point(p15 + 5) = {4.562603455307154, 1.790240455307154, 0};
Point(p15 + 6) = {4.460229998412607, 1.877675647544913, 0};
Point(p15 + 7) = {4.34543905112804, 1.948019630512225, 0};
Point(p15 + 8) = {4.221057147544913, 1.999540301890139, 0};
Point(p15 + 9) = {4.090146982929311, 2.030969051762026, 0};
Point(p15 + 10) = {3.955932, 2.041532, 0};
Point(p15 + 11) = {3.821717017070688, 2.030969051762026, 0};
Point(p15 + 12) = {3.690806852455087, 1.999540301890139, 0};
Point(p15 + 13) = {3.566424948871959, 1.948019630512225, 0};
Point(p15 + 14) = {3.451634001587393, 1.877675647544913, 0};
Point(p15 + 15) = {3.349260544692846, 1.790240455307154, 0};
Point(p15 + 16) = {3.261825352455087, 1.687866998412607, 0};
Point(p15 + 17) = {3.191481369487775, 1.573076051128041, 0};
Point(p15 + 18) = {3.139960698109861, 1.448694147544913, 0};
Point(p15 + 19) = {3.108531948237974, 1.317783982929312, 0};
Point(p15 + 20) = {3.097969, 1.183569, 0};
Point(p15 + 21) = {3.108531948237974, 1.049354017070689, 0};
Point(p15 + 22) = {3.139960698109861, 0.9184438524550869, 0};
Point(p15 + 23) = {3.191481369487775, 0.7940619488719597, 0};
Point(p15 + 24) = {3.261825352455087, 0.6792710015873931, 0};
Point(p15 + 25) = {3.349260544692846, 0.5768975446928463, 0};
Point(p15 + 26) = {3.451634001587393, 0.4894623524550871, 0};
Point(p15 + 27) = {3.566424948871959, 0.4191183694877755, 0};
Point(p15 + 28) = {3.690806852455087, 0.3675976981098612, 0};
Point(p15 + 29) = {3.821717017070688, 0.3361689482379739, 0};
Point(p15 + 30) = {3.955932, 0.3256060000000001, 0};
Point(p15 + 31) = {4.090146982929311, 0.3361689482379738, 0};
Point(p15 + 32) = {4.221057147544912, 0.3675976981098612, 0};
Point(p15 + 33) = {4.34543905112804, 0.4191183694877753, 0};
Point(p15 + 34) = {4.460229998412607, 0.489462352455087, 0};
Point(p15 + 35) = {4.562603455307154, 0.576897544692846, 0};
Point(p15 + 36) = {4.650038647544913, 0.6792710015873928, 0};
Point(p15 + 37) = {4.720382630512225, 0.7940619488719591, 0};
Point(p15 + 38) = {4.771903301890139, 0.9184438524550869, 0};
Point(p15 + 39) = {4.803332051762026, 1.049354017070688, 0};
Spline(15) = {10, p15 + 1, p15 + 2, p15 + 3, p15 + 4, p15 + 5, p15 + 6, p15 + 7, p15 + 8, p15 + 9, p15 + 10, p15 + 11, p15 + 12, p15 + 13, p15 + 14, p15 + 15, p15 + 16, p15 + 17, p15 + 18, p15 + 19, p15 + 20, p15 + 21, p15 + 22, p15 + 23, p15 + 24, p15 + 25, p15 + 26, p15 + 27, p15 + 28, p15 + 29, p15 + 30, p15 + 31, p15 + 32, p15 + 33, p15 + 34, p15 + 35, p15 + 36, p15 + 37, p15 + 38, p15 + 39, 10};
p16 = newp;
Point(p16 + 1) = {18.56412614189513, 1.627154332684792, 0.1};
Point(p16 + 2) = {18.51347077608933, 1.838149116229542, 0.1};
Point(p16 + 3) = {18.43043220580426, 2.038621958811839, 0.1};
Point(p16 + 4) = {18.31705511622954, 2.223636553716087, 0.1};
Point(p16 + 5) = {18.1761312275875, 2.388637227587506, 0.1};
Point(p16 + 6) = {18.01113055371609, 2.529561116229542, 0.1};
Point(p16 + 7) = {17.82611595881184, 2.642938205804255, 0.1};
Point(p16 + 8) = {17.62564311622954, 2.725976776089329, 0.1};
Point(p16 + 9) = {17.41464833268479, 2.776632141895131, 0.1};
Point(p16 + 10) = {17.198327, 2.793657, 0.1};
Point(p16 + 11) = {16.98200566731521, 2.776632141895131, 0.1};
Point(p16 + 12) = {16.77101088377046, 2.72597677608933, 0.1};
Point(p16 + 13) = {16.57053804118816, 2.642938205804255, 0.1};
Point(p16 + 14) = {16.38552344628391, 2.529561116229543, 0.1};
Point(p16 + 15) = {16.22052277241249, 2.388637227587506, 0.1};
Point(p16 + 16) = {16.07959888377046, 2.223636553716087, 0.1};
Point(p16 + 17) = {15.96622179419574, 2.038621958811839, 0.1};
Point(p16 + 18) = {15.88318322391067, 1.838149116229542, 0.1};
Point(p16 + 19) = {15.83252785810487, 1.627154332684792, 0.1};
Point(p16 + 20) = {15.815503, 1.410833, 0.1};
Point(p16 + 21) = {15.83252785810487, 1.194511667315208, 0.1};
Point(p16 + 22) = {15.88318322391067, 0.9835168837704573, 0.1};
Point(p16 + 23) = {15.96622179419574, 0.7830440411881616, 0.1};
Point(p16 + 24) = {16.07959888377046, 0.5980294462839133, 0.1};
Point(p16 + 25) = {16.22052277241249, 0.4330287724124937, 0.1};
Point(p16 + 26) = {16.38552344628391, 0.2921048837704578, 0.1};
Point(p16 + 27) = {16.57053804118816, 0.1787277941957444, 0.1};
Point(p16 + 28) = {16.77101088377046, 0.09568922391067058, 0.1};
Point(p16 + 29) = {16.98200566731521, 0.04503385810486926, 0.1};
Point(p16 + 30) = {17.198327, 0.02800899999999995, 0.1};
Point(p16 + 31) = {17.41464833268479, 0.04503385810486926, 0.1};
Point(p16 + 32) = {17.62564311622954, 0.09568922391067036, 0.1};
Point(p16 + 33) = {17.82611595881184, 0.1787277941957441, 0.1};
Point(p16 + 34) = {18.01113055371609, 0.2921048837704574, 0.1};
Point(p16 + 35) = {18.1761312275875, 0.4330287724124934, 0.1};
Point(p16 + 36) = {18.31705511622954, 0.598029446283913, 0.1};
Point(p16 + 37) = {18.43043220580426, 0.7830440411881607, 0.1};
Point(p16 + 38) = {18.51347077608933, 0.9835168837704574, 0.1};
Point(p16 + 39) = {18.56412614189513, 1.194511667315207, 0.1};
Spline(16) = {11, p16 + 1, p16 + 2, p16 + 3, p16 + 4, p16 + 5, p16 + 6, p16 + 7, p16 + 8, p16 + 9, p16 + 10, p16 + 11, p16 + 12, p16 + 13, p16 + 14, p16 + 15, p16 + 16, p16 + 17, p16 + 18, p16 + 19, p16 + 20, p16 + 21, p16 + 22, p16 + 23, p16 + 24, p16 + 25, p16 + 26, p16 + 27, p16 + 28, p16 + 29, p16 + 30, p16 + 31, p16 + 32, p16 + 33, p16 + 34, p16 + 35, p16 + 36, p16 + 37, p16 + 38, p16 + 39, 11};
Line(17) = {12, 11};
p18 = newp;
Point(p18 + 1) = {18.56412614189513, 1.627154332684792, 0};
Point(p18 + 2) = {18.51347077608933, 1.838149116229542, 0};
Point(p18 + 3) = {18.43043220580426, 2.038621958811839, 0};
Point(p18 + 4) = {18.31705511622954, 2.223636553716087, 0};
Point(p18 + 5) = {18.1761312275875, 2.388637227587506, 0};
Point(p18 + 6) = {18.01113055371609, 2.529561116229542, 0};
Point(p18 + 7) = {17.82611595881184, 2.642938205804255, 0};
Point(p18 + 8) = {17.62564311622954, 2.725976776089329, 0};
Point(p18 + 9) = {17.41464833268479, 2.776632141895131, 0};
Point(p18 + 10) = {17.198327, 2.793657, 0};
Point(p18 + 11) = {16.98200566731521, 2.776632141895131, 0};
Point(p18 + 12) = {16.77101088377046, 2.72597677608933, 0};
Point(p18 + 13) = {16.57053804118816, 2.642938205804255, 0};
Point(p18 + 14) = {16.38552344628391, 2.529561116229543, 0};
Point(p18 + 15) = {16.22052277241249, 2.388637227587506, 0};
Point(p18 + 16) = {16.07959888377046, 2.223636553716087, 0};
Point(p18 + 17) = {15.96622179419574, 2.038621958811839, 0};
Point(p18 + 18) = {15.88318322391067, 1.838149116229542, 0};
Point(p18 + 19) = {15.83252785810487, 1.627154332684792, 0};
Point(p18 + 20) = {15.815503, 1.410833, 0};
Point(p18 + 21) = {15.83252785810487, 1.194511667315208, 0};
Point(p18 + 22) = {15.88318322391067, 0.9835168837704573, 0};
Point(p18 + 23) = {15.96622179419574, 0.7830440411881616, 0};
Point(p18 + 24) = {16.07959888377046, 0.5980294462839133, 0};
Point(p18 + 25) = {16.22052277241249, 0.4330287724124937, 0};
Point(p18 + 26) = {16.38552344628391, 0.2921048837704578, 0};
Point(p18 + 27) = {16.57053804118816, 0.1787277941957444, 0};
Point(p18 + 28) = {16.77101088377046, 0.09568922391067058, 0};
Point(p18 + 29) = {16.98200566731521, 0.04503385810486926, 0};
Point(p18 + 30) = {17.198327, 0.02800899999999995, 0};
Point(p18 + 31) = {17.41464833268479, 0.04503385810486926, 0};
Point(p18 + 32) = {17.62564311622954, 0.09568922391067036, 0};
Point(p18 + 33) = {17.82611595881184, 0.1787277941957441, 0};
Point(p18 + 34) = {18.01113055371609, 0.2921048837704574, 0};
Point(p18 + 35) = {18.1761312275875, 0.4330287724124934, 0};
Point(p18 + 36) = {18.31705511622954, 0.598029446283913, 0};
Point(p18 + 37) = {18.43043220580426, 0.7830440411881607, 0};
Point(p18 + 38) = {18.51347077608933, 0.9835168837704574, 0};
Point(p18 + 39) = {18.56412614189513, 1.194511667315207, 0};
Spline(18) = {12, p18 + 1, p18 + 2, p18 + 3, p18 + 4, p18 + 5, p18 + 6, p18 + 7, p18 + 8, p18 + 9, p18 + 10, p18 + 11, p18 + 12, p18 + 13, p18 + 14, p18 + 15, p18 + 16, p18 + 17, p18 + 18, p18 + 19, p18 + 20, p18 + 21, p18 + 22, p18 + 23, p18 + 24, p18 + 25, p18 + 26, p18 + 27, p18 + 28, p18 + 29, p18 + 30, p18 + 31, p18 + 32, p18 + 33, p18 + 34, p18 + 35, p18 + 36, p18 + 37, p18 + 38, p18 + 39, 12};
Line(19) = {14, 13};
Line(20) = {13, 15};
Line(21) = {16, 15};
Line(22) = {14, 16};
Line(23) = {14, 17};
Line(24) = {17, 18};
Line(25) = {13, 18};
Line(26) = {15, 19};
Line(27) = {18, 19};
Line(28) = {16, 20};
Line(29) = {20, 19};
Line(30) = {17, 20};
Curve Loop(7) = {-13, -14, 15, 14};
Surface(7) = {7};
Curve Loop(8) = {13};
Plane Surface(8) = {8};
Curve Loop(9) = {15};
Plane Surface(9) = {9};
Curve Loop(10) = {-16, -17, 18, 17};
Surface(10) = {10};
Curve Loop(11) = {16};
Plane Surface(11) = {11};
Curve Loop(12) = {18};
Plane Surface(12) = {12};
Curve Loop(13) = {-19, 22, 21, -20};
Plane Surface(13) = {13};
Curve Loop(14) = {-23, 19, 25, -24};
Plane Surface(14) = {14};
Curve Loop(15) = {-20, 25, 27, -26, -13, -16};
Plane Surface(15) = {15};
Curve Loop(16) = {-28, 21, 26, -29};
Plane Surface(16) = {16};
Curve Loop(17) = {-22, 23, 30, -28, -15, -18};
Plane Surface(17) = {17};
Curve Loop(18) = {-24, 30, 29, -27};
Plane Surface(18) = {18};
Surface Loop(1) = {13, 14, 15, 16, 17, 18, 7, 10};
Volume(1) = {1};
Surface Loop(2) = {7, 8, 9};
Volume(2) = {2};
Surface Loop(3) = {10, 11, 12};
Volume(3) = {3};
Physical Surface("WALLS") = {13, 18};
Physical Surface("LOAD") = {8, 11};
Physical Surface("BORDER") = {7, 9, 10, 12, 14, 15, 16, 17};
Physical Volume("SOLID") = {1, 2, 3};
