cl__1 = 0.053223;
cl__2 = 0.148824;
cl__3 = 0.304673;
cl__4 = 0.588645;
cl__5 = 3.921956;
cl__6 = 3.579278;
Point(9) = {5.829398, -2.677417, 0.1, cl__1};
Point(10) = {5.829398, -2.677417, 0, cl__1};
Point(11) = {17.399233, 2.115524999999999, 0.1, cl__2};
Point(12) = {17.399233, 2.115524999999999, 0, cl__2};
Point(13) = {0.712019, -3.990348, 0.1, cl__3};
Point(14) = {0.712019, -3.990348, 0, cl__3};
Point(15) = {0.712019, 4.738266, 0.1, cl__4};
Point(16) = {0.712019, 4.738266, 0, cl__4};
Point(17) = {38.521294, -3.990348, 0, cl__5};
Point(18) = {38.521294, -3.990348, 0.1, cl__5};
Point(19) = {38.521294, 4.738266, 0.1, cl__6};
Point(20) = {38.521294, 4.738266, 0, cl__6};
p13 = newp;
Point(p13 + 1) = {5.82284536551495, -2.594157884671638, 0.1};
Point(p13 + 2) = {5.80334880966777, -2.512948885083822, 0.1};
Point(p13 + 3) = {5.771388402368775, -2.435789636323621, 0.1};
Point(p13 + 4) = {5.727751114916178, -2.364580055172377, 0.1};
Point(p13 + 5) = {5.673511442150916, -2.301073557849084, 0.1};
Point(p13 + 6) = {5.610004944827623, -2.246833885083822, 0.1};
Point(p13 + 7) = {5.538795363676379, -2.203196597631225, 0.1};
Point(p13 + 8) = {5.461636114916178, -2.17123619033223, 0.1};
Point(p13 + 9) = {5.380427115328362, -2.15173963448505, 0.1};
Point(p13 + 10) = {5.297168, -2.145187, 0.1};
Point(p13 + 11) = {5.213908884671638, -2.15173963448505, 0.1};
Point(p13 + 12) = {5.132699885083822, -2.17123619033223, 0.1};
Point(p13 + 13) = {5.055540636323621, -2.203196597631225, 0.1};
Point(p13 + 14) = {4.984331055172377, -2.246833885083822, 0.1};
Point(p13 + 15) = {4.920824557849084, -2.301073557849084, 0.1};
Point(p13 + 16) = {4.866584885083822, -2.364580055172377, 0.1};
Point(p13 + 17) = {4.822947597631225, -2.435789636323621, 0.1};
Point(p13 + 18) = {4.79098719033223, -2.512948885083822, 0.1};
Point(p13 + 19) = {4.77149063448505, -2.594157884671638, 0.1};
Point(p13 + 20) = {4.764938, -2.677417, 0.1};
Point(p13 + 21) = {4.77149063448505, -2.760676115328362, 0.1};
Point(p13 + 22) = {4.79098719033223, -2.841885114916179, 0.1};
Point(p13 + 23) = {4.822947597631225, -2.919044363676379, 0.1};
Point(p13 + 24) = {4.866584885083822, -2.990253944827623, 0.1};
Point(p13 + 25) = {4.920824557849084, -3.053760442150916, 0.1};
Point(p13 + 26) = {4.984331055172377, -3.108000114916178, 0.1};
Point(p13 + 27) = {5.055540636323621, -3.151637402368775, 0.1};
Point(p13 + 28) = {5.132699885083822, -3.18359780966777, 0.1};
Point(p13 + 29) = {5.213908884671638, -3.20309436551495, 0.1};
Point(p13 + 30) = {5.297168, -3.209647, 0.1};
Point(p13 + 31) = {5.380427115328362, -3.20309436551495, 0.1};
Point(p13 + 32) = {5.461636114916178, -3.18359780966777, 0.1};
Point(p13 + 33) = {5.538795363676379, -3.151637402368775, 0.1};
Point(p13 + 34) = {5.610004944827623, -3.108000114916178, 0.1};
Point(p13 + 35) = {5.673511442150916, -3.053760442150916, 0.1};
Point(p13 + 36) = {5.727751114916178, -2.990253944827623, 0.1};
Point(p13 + 37) = {5.771388402368775, -2.919044363676379, 0.1};
Point(p13 + 38) = {5.80334880966777, -2.841885114916178, 0.1};
Point(p13 + 39) = {5.82284536551495, -2.760676115328363, 0.1};
Spline(13) = {9, p13 + 1, p13 + 2, p13 + 3, p13 + 4, p13 + 5, p13 + 6, p13 + 7, p13 + 8, p13 + 9, p13 + 10, p13 + 11, p13 + 12, p13 + 13, p13 + 14, p13 + 15, p13 + 16, p13 + 17, p13 + 18, p13 + 19, p13 + 20, p13 + 21, p13 + 22, p13 + 23, p13 + 24, p13 + 25, p13 + 26, p13 + 27, p13 + 28, p13 + 29, p13 + 30, p13 + 31, p13 + 32, p13 + 33, p13 + 34, p13 + 35, p13 + 36, p13 + 37, p13 + 38, p13 + 39, 9};
Line(14) = {10, 9};
p15 = newp;
Point(p15 + 1) = {5.82284536551495, -2.594157884671638, 0};
Point(p15 + 2) = {5.80334880966777, -2.512948885083822, 0};
Point(p15 + 3) = {5.771388402368775, -2.435789636323621, 0};
Point(p15 + 4) = {5.727751114916178, -2.364580055172377, 0};
Point(p15 + 5) = {5.673511442150916, -2.301073557849084, 0};
Point(p15 + 6) = {5.610004944827623, -2.246833885083822, 0};
Point(p15 + 7) = {5.538795363676379, -2.203196597631225, 0};
Point(p15 + 8) = {5.461636114916178, -2.17123619033223, 0};
Point(p15 + 9) = {5.380427115328362, -2.15173963448505, 0};
Point(p15 + 10) = {5.297168, -2.145187, 0};
Point(p15 + 11) = {5.213908884671638, -2.15173963448505, 0};
Point(p15 + 12) = {5.132699885083822, -2.17123619033223, 0};
Point(p15 + 13) = {5.055540636323621, -2.203196597631225, 0};
Point(p15 + 14) = {4.984331055172377, -2.246833885083822, 0};
Point(p15 + 15) = {4.920824557849084, -2.301073557849084, 0};
Point(p15 + 16) = {4.866584885083822, -2.364580055172377, 0};
Point(p15 + 17) = {4.822947597631225, -2.435789636323621, 0};
Point(p15 + 18) = {4.79098719033223, -2.512948885083822, 0};
Point(p15 + 19) = {4.77149063448505, -2.594157884671638, 0};
Point(p15 + 20) = {4.764938, -2.677417, 0};
Point(p15 + 21) = {4.77149063448505, -2.760676115328362, 0};
Point(p15 + 22) = {4.79098719033223, -2.841885114916179, 0};
Point(p15 + 23) = {4.822947597631225, -2.919044363676379, 0};
Point(p15 + 24) = {4.866584885083822, -2.990253944827623, 0};
Point(p15 + 25) = {4.920824557849084, -3.053760442150916, 0};
Point(p15 + 26) = {4.984331055172377, -3.108000114916178, 0};
Point(p15 + 27) = {5.055540636323621, -3.151637402368775, 0};
Point(p15 + 28) = {5.132699885083822, -3.18359780966777, 0};
Point(p15 + 29) = {5.213908884671638, -3.20309436551495, 0};
Point(p15 + 30) = {5.297168, -3.209647, 0};
Point(p15 + 31) = {5.380427115328362, -3.20309436551495, 0};
Point(p15 + 32) = {5.461636114916178, -3.18359780966777, 0};
Point(p15 + 33) = {5.538795363676379, -3.151637402368775, 0};
Point(p15 + 34) = {5.610004944827623, -3.108000114916178, 0};
Point(p15 + 35) = {5.673511442150916, -3.053760442150916, 0};
Point(p15 + 36) = {5.727751114916178, -2.990253944827623, 0};
Point(p15 + 37) = {5.771388402368775, -2.919044363676379, 0};
Point(p15 + 38) = {5.80334880966777, -2.841885114916178, 0};
Point(p15 + 39) = {5.82284536551495, -2.760676115328363, 0};
Spline(15) = {10, p15 + 1, p15 + 2, p15 + 3, p15 + 4, p15 + 5, p15 + 6, p15 + 7, p15 + 8, p15 + 9, p15 + 10, p15 + 11, p15 + 12, p15 + 13, p15 + 14, p15 + 15, p15 + 16, p15 + 17, p15 + 18, p15 + 19, p15 + 20, p15 + 21, p15 + 22, p15 + 23, p15 + 24, p15 + 25, p15 + 26, p15 + 27, p15 + 28, p15 + 29, p15 + 30, p15 + 31, p15 + 32, p15 + 33, p15 + 34, p15 + 35, p15 + 36, p15 + 37, p15 + 38, p15 + 39, 10};
p16 = newp;
Point(p16 + 1) = {17.38091025907233, 2.348337497554868, 0.1};
Point(p16 + 2) = {17.32639320298065, 2.575417378759555, 0.1};
Point(p16 + 3) = {17.23702422257767, 2.791173183303882, 0.1};
Point(p16 + 4) = {17.11500387875956, 2.990292287227507, 0.1};
Point(p16 + 5) = {16.96333671735341, 3.167871717353411, 0.1};
Point(p16 + 6) = {16.78575728722751, 3.319538878759555, 0.1};
Point(p16 + 7) = {16.58663818330388, 3.441559222577669, 0.1};
Point(p16 + 8) = {16.37088237875955, 3.530928202980648, 0.1};
Point(p16 + 9) = {16.14380249755487, 3.58544525907233, 0.1};
Point(p16 + 10) = {15.91099, 3.603768, 0.1};
Point(p16 + 11) = {15.67817750244513, 3.585445259072329, 0.1};
Point(p16 + 12) = {15.45109762124044, 3.530928202980648, 0.1};
Point(p16 + 13) = {15.23534181669612, 3.441559222577669, 0.1};
Point(p16 + 14) = {15.03622271277249, 3.319538878759555, 0.1};
Point(p16 + 15) = {14.85864328264659, 3.167871717353411, 0.1};
Point(p16 + 16) = {14.70697612124044, 2.990292287227507, 0.1};
Point(p16 + 17) = {14.58495577742233, 2.791173183303882, 0.1};
Point(p16 + 18) = {14.49558679701935, 2.575417378759555, 0.1};
Point(p16 + 19) = {14.44106974092767, 2.348337497554868, 0.1};
Point(p16 + 20) = {14.422747, 2.115525, 0.1};
Point(p16 + 21) = {14.44106974092767, 1.882712502445132, 0.1};
Point(p16 + 22) = {14.49558679701935, 1.655632621240445, 0.1};
Point(p16 + 23) = {14.58495577742233, 1.439876816696118, 0.1};
Point(p16 + 24) = {14.70697612124044, 1.240757712772493, 0.1};
Point(p16 + 25) = {14.85864328264659, 1.063178282646589, 0.1};
Point(p16 + 26) = {15.03622271277249, 0.9115111212404452, 0.1};
Point(p16 + 27) = {15.23534181669612, 0.7894907774223308, 0.1};
Point(p16 + 28) = {15.45109762124044, 0.7001217970193516, 0.1};
Point(p16 + 29) = {15.67817750244513, 0.6456047409276704, 0.1};
Point(p16 + 30) = {15.91099, 0.6272819999999999, 0.1};
Point(p16 + 31) = {16.14380249755487, 0.6456047409276702, 0.1};
Point(p16 + 32) = {16.37088237875955, 0.7001217970193516, 0.1};
Point(p16 + 33) = {16.58663818330388, 0.7894907774223305, 0.1};
Point(p16 + 34) = {16.78575728722751, 0.9115111212404448, 0.1};
Point(p16 + 35) = {16.96333671735341, 1.063178282646589, 0.1};
Point(p16 + 36) = {17.11500387875956, 1.240757712772492, 0.1};
Point(p16 + 37) = {17.23702422257767, 1.439876816696117, 0.1};
Point(p16 + 38) = {17.32639320298065, 1.655632621240445, 0.1};
Point(p16 + 39) = {17.38091025907233, 1.882712502445131, 0.1};
Spline(16) = {11, p16 + 1, p16 + 2, p16 + 3, p16 + 4, p16 + 5, p16 + 6, p16 + 7, p16 + 8, p16 + 9, p16 + 10, p16 + 11, p16 + 12, p16 + 13, p16 + 14, p16 + 15, p16 + 16, p16 + 17, p16 + 18, p16 + 19, p16 + 20, p16 + 21, p16 + 22, p16 + 23, p16 + 24, p16 + 25, p16 + 26, p16 + 27, p16 + 28, p16 + 29, p16 + 30, p16 + 31, p16 + 32, p16 + 33, p16 + 34, p16 + 35, p16 + 36, p16 + 37, p16 + 38, p16 + 39, 11};
Line(17) = {12, 11};
p18 = newp;
Point(p18 + 1) = {17.38091025907233, 2.348337497554868, 0};
Point(p18 + 2) = {17.32639320298065, 2.575417378759555, 0};
Point(p18 + 3) = {17.23702422257767, 2.791173183303882, 0};
Point(p18 + 4) = {17.11500387875956, 2.990292287227507, 0};
Point(p18 + 5) = {16.96333671735341, 3.167871717353411, 0};
Point(p18 + 6) = {16.78575728722751, 3.319538878759555, 0};
Point(p18 + 7) = {16.58663818330388, 3.441559222577669, 0};
Point(p18 + 8) = {16.37088237875955, 3.530928202980648, 0};
Point(p18 + 9) = {16.14380249755487, 3.58544525907233, 0};
Point(p18 + 10) = {15.91099, 3.603768, 0};
Point(p18 + 11) = {15.67817750244513, 3.585445259072329, 0};
Point(p18 + 12) = {15.45109762124044, 3.530928202980648, 0};
Point(p18 + 13) = {15.23534181669612, 3.441559222577669, 0};
Point(p18 + 14) = {15.03622271277249, 3.319538878759555, 0};
Point(p18 + 15) = {14.85864328264659, 3.167871717353411, 0};
Point(p18 + 16) = {14.70697612124044, 2.990292287227507, 0};
Point(p18 + 17) = {14.58495577742233, 2.791173183303882, 0};
Point(p18 + 18) = {14.49558679701935, 2.575417378759555, 0};
Point(p18 + 19) = {14.44106974092767, 2.348337497554868, 0};
Point(p18 + 20) = {14.422747, 2.115525, 0};
Point(p18 + 21) = {14.44106974092767, 1.882712502445132, 0};
Point(p18 + 22) = {14.49558679701935, 1.655632621240445, 0};
Point(p18 + 23) = {14.58495577742233, 1.439876816696118, 0};
Point(p18 + 24) = {14.70697612124044, 1.240757712772493, 0};
Point(p18 + 25) = {14.85864328264659, 1.063178282646589, 0};
Point(p18 + 26) = {15.03622271277249, 0.9115111212404452, 0};
Point(p18 + 27) = {15.23534181669612, 0.7894907774223308, 0};
Point(p18 + 28) = {15.45109762124044, 0.7001217970193516, 0};
Point(p18 + 29) = {15.67817750244513, 0.6456047409276704, 0};
Point(p18 + 30) = {15.91099, 0.6272819999999999, 0};
Point(p18 + 31) = {16.14380249755487, 0.6456047409276702, 0};
Point(p18 + 32) = {16.37088237875955, 0.7001217970193516, 0};
Point(p18 + 33) = {16.58663818330388, 0.7894907774223305, 0};
Point(p18 + 34) = {16.78575728722751, 0.9115111212404448, 0};
Point(p18 + 35) = {16.96333671735341, 1.063178282646589, 0};
Point(p18 + 36) = {17.11500387875956, 1.240757712772492, 0};
Point(p18 + 37) = {17.23702422257767, 1.439876816696117, 0};
Point(p18 + 38) = {17.32639320298065, 1.655632621240445, 0};
Point(p18 + 39) = {17.38091025907233, 1.882712502445131, 0};
Spline(18) = {12, p18 + 1, p18 + 2, p18 + 3, p18 + 4, p18 + 5, p18 + 6, p18 + 7, p18 + 8, p18 + 9, p18 + 10, p18 + 11, p18 + 12, p18 + 13, p18 + 14, p18 + 15, p18 + 16, p18 + 17, p18 + 18, p18 + 19, p18 + 20, p18 + 21, p18 + 22, p18 + 23, p18 + 24, p18 + 25, p18 + 26, p18 + 27, p18 + 28, p18 + 29, p18 + 30, p18 + 31, p18 + 32, p18 + 33, p18 + 34, p18 + 35, p18 + 36, p18 + 37, p18 + 38, p18 + 39, 12};
Line(19) = {14, 13};
Line(20) = {13, 15};
Line(21) = {16, 15};
Line(22) = {14, 16};
Line(23) = {14, 17};
Line(24) = {17, 18};
Line(25) = {13, 18};
Line(26) = {15, 19};
Line(27) = {18, 19};
Line(28) = {16, 20};
Line(29) = {20, 19};
Line(30) = {17, 20};
Curve Loop(7) = {-13, -14, 15, 14};
Surface(7) = {7};
Curve Loop(8) = {13};
Plane Surface(8) = {8};
Curve Loop(9) = {15};
Plane Surface(9) = {9};
Curve Loop(10) = {-16, -17, 18, 17};
Surface(10) = {10};
Curve Loop(11) = {16};
Plane Surface(11) = {11};
Curve Loop(12) = {18};
Plane Surface(12) = {12};
Curve Loop(13) = {-19, 22, 21, -20};
Plane Surface(13) = {13};
Curve Loop(14) = {-23, 19, 25, -24};
Plane Surface(14) = {14};
Curve Loop(15) = {-20, 25, 27, -26, -13, -16};
Plane Surface(15) = {15};
Curve Loop(16) = {-28, 21, 26, -29};
Plane Surface(16) = {16};
Curve Loop(17) = {-22, 23, 30, -28, -15, -18};
Plane Surface(17) = {17};
Curve Loop(18) = {-24, 30, 29, -27};
Plane Surface(18) = {18};
Surface Loop(1) = {13, 14, 15, 16, 17, 18, 7, 10};
Volume(1) = {1};
Surface Loop(2) = {7, 8, 9};
Volume(2) = {2};
Surface Loop(3) = {10, 11, 12};
Volume(3) = {3};
Physical Surface("WALLS") = {13, 18};
Physical Surface("LOAD") = {8, 11};
Physical Surface("BORDER") = {7, 9, 10, 12, 14, 15, 16, 17};
Physical Volume("SOLID") = {1, 2, 3};
