cl__1 = 0.117623;
cl__2 = 0.076872;
cl__3 = 3.041728;
cl__4 = 3.135392;
cl__5 = 0.590373;
cl__6 = 0.497094;
Point(9) = {31.65856, 2.023299, 0.1, cl__1};
Point(10) = {31.65856, 2.023299, 0, cl__1};
Point(11) = {18.777369, 0.5991239999999999, 0.1, cl__2};
Point(12) = {18.777369, 0.5991239999999999, 0, cl__2};
Point(13) = {0.858017, -2.883543, 0.1, cl__3};
Point(14) = {0.858017, -2.883543, 0, cl__3};
Point(15) = {0.858017, 4.854520000000001, 0.1, cl__4};
Point(16) = {0.858017, 4.854520000000001, 0, cl__4};
Point(17) = {36.792993, -2.883543, 0, cl__5};
Point(18) = {36.792993, -2.883543, 0.1, cl__5};
Point(19) = {36.792993, 4.854520000000001, 0.1, cl__6};
Point(20) = {36.792993, 4.854520000000001, 0, cl__6};
p13 = newp;
Point(p13 + 1) = {31.64407859529992, 2.207302692986596, 0.1};
Point(p13 + 2) = {31.60099096144443, 2.386775604378617, 0.1};
Point(p13 + 3) = {31.53035805897871, 2.557298515461146, 0.1};
Point(p13 + 4) = {31.43391910437862, 2.714672586230237, 0.1};
Point(p13 + 5) = {31.31404874476896, 2.855022744768959, 0.1};
Point(p13 + 6) = {31.17369858623024, 2.974893104378616, 0.1};
Point(p13 + 7) = {31.01632451546115, 3.071332058978705, 0.1};
Point(p13 + 8) = {30.84580160437861, 3.14196496144443, 0.1};
Point(p13 + 9) = {30.6663286929866, 3.185052595299922, 0.1};
Point(p13 + 10) = {30.482325, 3.199534, 0.1};
Point(p13 + 11) = {30.2983213070134, 3.185052595299922, 0.1};
Point(p13 + 12) = {30.11884839562138, 3.14196496144443, 0.1};
Point(p13 + 13) = {29.94832548453885, 3.071332058978705, 0.1};
Point(p13 + 14) = {29.79095141376976, 2.974893104378617, 0.1};
Point(p13 + 15) = {29.65060125523104, 2.855022744768959, 0.1};
Point(p13 + 16) = {29.53073089562138, 2.714672586230237, 0.1};
Point(p13 + 17) = {29.43429194102129, 2.557298515461146, 0.1};
Point(p13 + 18) = {29.36365903855557, 2.386775604378617, 0.1};
Point(p13 + 19) = {29.32057140470008, 2.207302692986596, 0.1};
Point(p13 + 20) = {29.30609, 2.023299, 0.1};
Point(p13 + 21) = {29.32057140470008, 1.839295307013404, 0.1};
Point(p13 + 22) = {29.36365903855557, 1.659822395621384, 0.1};
Point(p13 + 23) = {29.43429194102129, 1.489299484538855, 0.1};
Point(p13 + 24) = {29.53073089562138, 1.331925413769763, 0.1};
Point(p13 + 25) = {29.65060125523104, 1.191575255231041, 0.1};
Point(p13 + 26) = {29.79095141376976, 1.071704895621384, 0.1};
Point(p13 + 27) = {29.94832548453885, 0.9752659410212954, 0.1};
Point(p13 + 28) = {30.11884839562138, 0.9046330385555703, 0.1};
Point(p13 + 29) = {30.2983213070134, 0.8615454047000786, 0.1};
Point(p13 + 30) = {30.482325, 0.8470640000000003, 0.1};
Point(p13 + 31) = {30.6663286929866, 0.8615454047000783, 0.1};
Point(p13 + 32) = {30.84580160437861, 0.9046330385555703, 0.1};
Point(p13 + 33) = {31.01632451546115, 0.9752659410212952, 0.1};
Point(p13 + 34) = {31.17369858623024, 1.071704895621384, 0.1};
Point(p13 + 35) = {31.31404874476896, 1.191575255231041, 0.1};
Point(p13 + 36) = {31.43391910437862, 1.331925413769763, 0.1};
Point(p13 + 37) = {31.53035805897871, 1.489299484538854, 0.1};
Point(p13 + 38) = {31.60099096144443, 1.659822395621384, 0.1};
Point(p13 + 39) = {31.64407859529992, 1.839295307013404, 0.1};
Spline(13) = {9, p13 + 1, p13 + 2, p13 + 3, p13 + 4, p13 + 5, p13 + 6, p13 + 7, p13 + 8, p13 + 9, p13 + 10, p13 + 11, p13 + 12, p13 + 13, p13 + 14, p13 + 15, p13 + 16, p13 + 17, p13 + 18, p13 + 19, p13 + 20, p13 + 21, p13 + 22, p13 + 23, p13 + 24, p13 + 25, p13 + 26, p13 + 27, p13 + 28, p13 + 29, p13 + 30, p13 + 31, p13 + 32, p13 + 33, p13 + 34, p13 + 35, p13 + 36, p13 + 37, p13 + 38, p13 + 39, 9};
Line(14) = {10, 9};
p15 = newp;
Point(p15 + 1) = {31.64407859529992, 2.207302692986596, 0};
Point(p15 + 2) = {31.60099096144443, 2.386775604378617, 0};
Point(p15 + 3) = {31.53035805897871, 2.557298515461146, 0};
Point(p15 + 4) = {31.43391910437862, 2.714672586230237, 0};
Point(p15 + 5) = {31.31404874476896, 2.855022744768959, 0};
Point(p15 + 6) = {31.17369858623024, 2.974893104378616, 0};
Point(p15 + 7) = {31.01632451546115, 3.071332058978705, 0};
Point(p15 + 8) = {30.84580160437861, 3.14196496144443, 0};
Point(p15 + 9) = {30.6663286929866, 3.185052595299922, 0};
Point(p15 + 10) = {30.482325, 3.199534, 0};
Point(p15 + 11) = {30.2983213070134, 3.185052595299922, 0};
Point(p15 + 12) = {30.11884839562138, 3.14196496144443, 0};
Point(p15 + 13) = {29.94832548453885, 3.071332058978705, 0};
Point(p15 + 14) = {29.79095141376976, 2.974893104378617, 0};
Point(p15 + 15) = {29.65060125523104, 2.855022744768959, 0};
Point(p15 + 16) = {29.53073089562138, 2.714672586230237, 0};
Point(p15 + 17) = {29.43429194102129, 2.557298515461146, 0};
Point(p15 + 18) = {29.36365903855557, 2.386775604378617, 0};
Point(p15 + 19) = {29.32057140470008, 2.207302692986596, 0};
Point(p15 + 20) = {29.30609, 2.023299, 0};
Point(p15 + 21) = {29.32057140470008, 1.839295307013404, 0};
Point(p15 + 22) = {29.36365903855557, 1.659822395621384, 0};
Point(p15 + 23) = {29.43429194102129, 1.489299484538855, 0};
Point(p15 + 24) = {29.53073089562138, 1.331925413769763, 0};
Point(p15 + 25) = {29.65060125523104, 1.191575255231041, 0};
Point(p15 + 26) = {29.79095141376976, 1.071704895621384, 0};
Point(p15 + 27) = {29.94832548453885, 0.9752659410212954, 0};
Point(p15 + 28) = {30.11884839562138, 0.9046330385555703, 0};
Point(p15 + 29) = {30.2983213070134, 0.8615454047000786, 0};
Point(p15 + 30) = {30.482325, 0.8470640000000003, 0};
Point(p15 + 31) = {30.6663286929866, 0.8615454047000783, 0};
Point(p15 + 32) = {30.84580160437861, 0.9046330385555703, 0};
Point(p15 + 33) = {31.01632451546115, 0.9752659410212952, 0};
Point(p15 + 34) = {31.17369858623024, 1.071704895621384, 0};
Point(p15 + 35) = {31.31404874476896, 1.191575255231041, 0};
Point(p15 + 36) = {31.43391910437862, 1.331925413769763, 0};
Point(p15 + 37) = {31.53035805897871, 1.489299484538854, 0};
Point(p15 + 38) = {31.60099096144443, 1.659822395621384, 0};
Point(p15 + 39) = {31.64407859529992, 1.839295307013404, 0};
Spline(15) = {10, p15 + 1, p15 + 2, p15 + 3, p15 + 4, p15 + 5, p15 + 6, p15 + 7, p15 + 8, p15 + 9, p15 + 10, p15 + 11, p15 + 12, p15 + 13, p15 + 14, p15 + 15, p15 + 16, p15 + 17, p15 + 18, p15 + 19, p15 + 20, p15 + 21, p15 + 22, p15 + 23, p15 + 24, p15 + 25, p15 + 26, p15 + 27, p15 + 28, p15 + 29, p15 + 30, p15 + 31, p15 + 32, p15 + 33, p15 + 34, p15 + 35, p15 + 36, p15 + 37, p15 + 38, p15 + 39, 10};
p16 = newp;
Point(p16 + 1) = {18.76790481811727, 0.7193778326623311, 0.1};
Point(p16 + 2) = {18.73974531203686, 0.8366706168649264, 0.1};
Point(p16 + 3) = {18.69358386225451, 0.9481142149882851, 0.1};
Point(p16 + 4) = {18.63055711686493, 1.050964515786513, 0.1};
Point(p16 + 5) = {18.55221700351338, 1.142689003513379, 0.1};
Point(p16 + 6) = {18.46049251578652, 1.221029116864926, 0.1};
Point(p16 + 7) = {18.35764221498829, 1.28405586225451, 0.1};
Point(p16 + 8) = {18.24619861686493, 1.330217312036861, 0.1};
Point(p16 + 9) = {18.12890583266233, 1.358376818117272, 0.1};
Point(p16 + 10) = {18.008652, 1.367841, 0.1};
Point(p16 + 11) = {17.88839816733767, 1.358376818117272, 0.1};
Point(p16 + 12) = {17.77110538313508, 1.330217312036861, 0.1};
Point(p16 + 13) = {17.65966178501172, 1.28405586225451, 0.1};
Point(p16 + 14) = {17.55681148421349, 1.221029116864926, 0.1};
Point(p16 + 15) = {17.46508699648662, 1.142689003513379, 0.1};
Point(p16 + 16) = {17.38674688313507, 1.050964515786513, 0.1};
Point(p16 + 17) = {17.32372013774549, 0.9481142149882853, 0.1};
Point(p16 + 18) = {17.27755868796314, 0.8366706168649265, 0.1};
Point(p16 + 19) = {17.24939918188273, 0.7193778326623312, 0.1};
Point(p16 + 20) = {17.239935, 0.5991240000000001, 0.1};
Point(p16 + 21) = {17.24939918188273, 0.4788701673376689, 0.1};
Point(p16 + 22) = {17.27755868796314, 0.3615773831350733, 0.1};
Point(p16 + 23) = {17.32372013774549, 0.2501337850117152, 0.1};
Point(p16 + 24) = {17.38674688313507, 0.147283484213487, 0.1};
Point(p16 + 25) = {17.46508699648662, 0.05555899648662077, 0.1};
Point(p16 + 26) = {17.55681148421349, -0.02278111686492634, 0.1};
Point(p16 + 27) = {17.65966178501172, -0.08580786225450954, 0.1};
Point(p16 + 28) = {17.77110538313508, -0.1319693120368616, 0.1};
Point(p16 + 29) = {17.88839816733767, -0.1601288181172724, 0.1};
Point(p16 + 30) = {18.008652, -0.169593, 0.1};
Point(p16 + 31) = {18.12890583266233, -0.1601288181172725, 0.1};
Point(p16 + 32) = {18.24619861686493, -0.1319693120368616, 0.1};
Point(p16 + 33) = {18.35764221498829, -0.08580786225450965, 0.1};
Point(p16 + 34) = {18.46049251578652, -0.02278111686492656, 0.1};
Point(p16 + 35) = {18.55221700351338, 0.05555899648662066, 0.1};
Point(p16 + 36) = {18.63055711686493, 0.1472834842134869, 0.1};
Point(p16 + 37) = {18.69358386225451, 0.2501337850117147, 0.1};
Point(p16 + 38) = {18.73974531203686, 0.3615773831350734, 0.1};
Point(p16 + 39) = {18.76790481811727, 0.4788701673376686, 0.1};
Spline(16) = {11, p16 + 1, p16 + 2, p16 + 3, p16 + 4, p16 + 5, p16 + 6, p16 + 7, p16 + 8, p16 + 9, p16 + 10, p16 + 11, p16 + 12, p16 + 13, p16 + 14, p16 + 15, p16 + 16, p16 + 17, p16 + 18, p16 + 19, p16 + 20, p16 + 21, p16 + 22, p16 + 23, p16 + 24, p16 + 25, p16 + 26, p16 + 27, p16 + 28, p16 + 29, p16 + 30, p16 + 31, p16 + 32, p16 + 33, p16 + 34, p16 + 35, p16 + 36, p16 + 37, p16 + 38, p16 + 39, 11};
Line(17) = {12, 11};
p18 = newp;
Point(p18 + 1) = {18.76790481811727, 0.7193778326623311, 0};
Point(p18 + 2) = {18.73974531203686, 0.8366706168649264, 0};
Point(p18 + 3) = {18.69358386225451, 0.9481142149882851, 0};
Point(p18 + 4) = {18.63055711686493, 1.050964515786513, 0};
Point(p18 + 5) = {18.55221700351338, 1.142689003513379, 0};
Point(p18 + 6) = {18.46049251578652, 1.221029116864926, 0};
Point(p18 + 7) = {18.35764221498829, 1.28405586225451, 0};
Point(p18 + 8) = {18.24619861686493, 1.330217312036861, 0};
Point(p18 + 9) = {18.12890583266233, 1.358376818117272, 0};
Point(p18 + 10) = {18.008652, 1.367841, 0};
Point(p18 + 11) = {17.88839816733767, 1.358376818117272, 0};
Point(p18 + 12) = {17.77110538313508, 1.330217312036861, 0};
Point(p18 + 13) = {17.65966178501172, 1.28405586225451, 0};
Point(p18 + 14) = {17.55681148421349, 1.221029116864926, 0};
Point(p18 + 15) = {17.46508699648662, 1.142689003513379, 0};
Point(p18 + 16) = {17.38674688313507, 1.050964515786513, 0};
Point(p18 + 17) = {17.32372013774549, 0.9481142149882853, 0};
Point(p18 + 18) = {17.27755868796314, 0.8366706168649265, 0};
Point(p18 + 19) = {17.24939918188273, 0.7193778326623312, 0};
Point(p18 + 20) = {17.239935, 0.5991240000000001, 0};
Point(p18 + 21) = {17.24939918188273, 0.4788701673376689, 0};
Point(p18 + 22) = {17.27755868796314, 0.3615773831350733, 0};
Point(p18 + 23) = {17.32372013774549, 0.2501337850117152, 0};
Point(p18 + 24) = {17.38674688313507, 0.147283484213487, 0};
Point(p18 + 25) = {17.46508699648662, 0.05555899648662077, 0};
Point(p18 + 26) = {17.55681148421349, -0.02278111686492634, 0};
Point(p18 + 27) = {17.65966178501172, -0.08580786225450954, 0};
Point(p18 + 28) = {17.77110538313508, -0.1319693120368616, 0};
Point(p18 + 29) = {17.88839816733767, -0.1601288181172724, 0};
Point(p18 + 30) = {18.008652, -0.169593, 0};
Point(p18 + 31) = {18.12890583266233, -0.1601288181172725, 0};
Point(p18 + 32) = {18.24619861686493, -0.1319693120368616, 0};
Point(p18 + 33) = {18.35764221498829, -0.08580786225450965, 0};
Point(p18 + 34) = {18.46049251578652, -0.02278111686492656, 0};
Point(p18 + 35) = {18.55221700351338, 0.05555899648662066, 0};
Point(p18 + 36) = {18.63055711686493, 0.1472834842134869, 0};
Point(p18 + 37) = {18.69358386225451, 0.2501337850117147, 0};
Point(p18 + 38) = {18.73974531203686, 0.3615773831350734, 0};
Point(p18 + 39) = {18.76790481811727, 0.4788701673376686, 0};
Spline(18) = {12, p18 + 1, p18 + 2, p18 + 3, p18 + 4, p18 + 5, p18 + 6, p18 + 7, p18 + 8, p18 + 9, p18 + 10, p18 + 11, p18 + 12, p18 + 13, p18 + 14, p18 + 15, p18 + 16, p18 + 17, p18 + 18, p18 + 19, p18 + 20, p18 + 21, p18 + 22, p18 + 23, p18 + 24, p18 + 25, p18 + 26, p18 + 27, p18 + 28, p18 + 29, p18 + 30, p18 + 31, p18 + 32, p18 + 33, p18 + 34, p18 + 35, p18 + 36, p18 + 37, p18 + 38, p18 + 39, 12};
Line(19) = {14, 13};
Line(20) = {13, 15};
Line(21) = {16, 15};
Line(22) = {14, 16};
Line(23) = {14, 17};
Line(24) = {17, 18};
Line(25) = {13, 18};
Line(26) = {15, 19};
Line(27) = {18, 19};
Line(28) = {16, 20};
Line(29) = {20, 19};
Line(30) = {17, 20};
Curve Loop(7) = {-13, -14, 15, 14};
Surface(7) = {7};
Curve Loop(8) = {13};
Plane Surface(8) = {8};
Curve Loop(9) = {15};
Plane Surface(9) = {9};
Curve Loop(10) = {-16, -17, 18, 17};
Surface(10) = {10};
Curve Loop(11) = {16};
Plane Surface(11) = {11};
Curve Loop(12) = {18};
Plane Surface(12) = {12};
Curve Loop(13) = {-19, 22, 21, -20};
Plane Surface(13) = {13};
Curve Loop(14) = {-23, 19, 25, -24};
Plane Surface(14) = {14};
Curve Loop(15) = {-20, 25, 27, -26, -16, -13};
Plane Surface(15) = {15};
Curve Loop(16) = {-28, 21, 26, -29};
Plane Surface(16) = {16};
Curve Loop(17) = {-22, 23, 30, -28, -18, -15};
Plane Surface(17) = {17};
Curve Loop(18) = {-24, 30, 29, -27};
Plane Surface(18) = {18};
Surface Loop(1) = {13, 14, 15, 16, 17, 18, 10, 7};
Volume(1) = {1};
Surface Loop(2) = {7, 8, 9};
Volume(2) = {2};
Surface Loop(3) = {10, 11, 12};
Volume(3) = {3};
Physical Surface("WALLS") = {13, 18};
Physical Surface("LOAD") = {8, 11};
Physical Surface("BORDER") = {7, 9, 10, 12, 14, 15, 16, 17};
Physical Volume("SOLID") = {1, 2, 3};
