cl__1 = 0.101325;
cl__2 = 0.08959499999999999;
cl__3 = 4.131482;
cl__4 = 4.080846;
cl__5 = 0.412172;
cl__6 = 0.385196;
Point(9) = {27.275244, -0.4371240000000002, 0.1, cl__1};
Point(10) = {27.275244, -0.4371240000000002, 0, cl__1};
Point(11) = {27.100246, 2.095896, 0.1, cl__2};
Point(12) = {27.100246, 2.095896, 0, cl__2};
Point(13) = {0.664094, -4.475013, 0.1, cl__3};
Point(14) = {0.664094, -4.475013, 0, cl__3};
Point(15) = {0.664094, 4.911836, 0.1, cl__4};
Point(16) = {0.664094, 4.911836, 0, cl__4};
Point(17) = {32.474654, -4.475013, 0, cl__5};
Point(18) = {32.474654, -4.475013, 0.1, cl__5};
Point(19) = {32.474654, 4.911836, 0.1, cl__6};
Point(20) = {32.474654, 4.911836, 0, cl__6};
p13 = newp;
Point(p13 + 1) = {27.26276923573134, -0.2786170911669162, 0.1};
Point(p13 + 2) = {27.22565211302303, -0.1240131484835733, 0.1};
Point(p13 + 3) = {27.16480657862082, 0.02288096588009619, 0.1};
Point(p13 + 4) = {27.08173085151643, 0.1584482313148438, 0.1};
Point(p13 + 5) = {26.97847053182371, 0.2793505318237068, 0.1};
Point(p13 + 6) = {26.85756823131484, 0.3826108515164265, 0.1};
Point(p13 + 7) = {26.7220009658801, 0.4656865786208153, 0.1};
Point(p13 + 8) = {26.57510685151643, 0.5265321130230316, 0.1};
Point(p13 + 9) = {26.42050290883308, 0.5636492357313421, 0.1};
Point(p13 + 10) = {26.261996, 0.5761239999999999, 0.1};
Point(p13 + 11) = {26.10348909116692, 0.5636492357313418, 0.1};
Point(p13 + 12) = {25.94888514848357, 0.5265321130230318, 0.1};
Point(p13 + 13) = {25.8019910341199, 0.4656865786208154, 0.1};
Point(p13 + 14) = {25.66642376868516, 0.3826108515164267, 0.1};
Point(p13 + 15) = {25.54552146817629, 0.2793505318237069, 0.1};
Point(p13 + 16) = {25.44226114848357, 0.1584482313148439, 0.1};
Point(p13 + 17) = {25.35918542137918, 0.0228809658800963, 0.1};
Point(p13 + 18) = {25.29833988697697, -0.1240131484835732, 0.1};
Point(p13 + 19) = {25.26122276426866, -0.2786170911669161, 0.1};
Point(p13 + 20) = {25.248748, -0.4371239999999999, 0.1};
Point(p13 + 21) = {25.26122276426866, -0.5956309088330838, 0.1};
Point(p13 + 22) = {25.29833988697697, -0.750234851516427, 0.1};
Point(p13 + 23) = {25.35918542137918, -0.8971289658800958, 0.1};
Point(p13 + 24) = {25.44226114848357, -1.032696231314844, 0.1};
Point(p13 + 25) = {25.54552146817629, -1.153598531823707, 0.1};
Point(p13 + 26) = {25.66642376868516, -1.256858851516427, 0.1};
Point(p13 + 27) = {25.8019910341199, -1.339934578620815, 0.1};
Point(p13 + 28) = {25.94888514848357, -1.400780113023032, 0.1};
Point(p13 + 29) = {26.10348909116692, -1.437897235731342, 0.1};
Point(p13 + 30) = {26.261996, -1.450372, 0.1};
Point(p13 + 31) = {26.42050290883308, -1.437897235731342, 0.1};
Point(p13 + 32) = {26.57510685151643, -1.400780113023032, 0.1};
Point(p13 + 33) = {26.7220009658801, -1.339934578620815, 0.1};
Point(p13 + 34) = {26.85756823131484, -1.256858851516427, 0.1};
Point(p13 + 35) = {26.97847053182371, -1.153598531823707, 0.1};
Point(p13 + 36) = {27.08173085151643, -1.032696231314844, 0.1};
Point(p13 + 37) = {27.16480657862082, -0.8971289658800965, 0.1};
Point(p13 + 38) = {27.22565211302303, -0.750234851516427, 0.1};
Point(p13 + 39) = {27.26276923573134, -0.5956309088330841, 0.1};
Spline(13) = {9, p13 + 1, p13 + 2, p13 + 3, p13 + 4, p13 + 5, p13 + 6, p13 + 7, p13 + 8, p13 + 9, p13 + 10, p13 + 11, p13 + 12, p13 + 13, p13 + 14, p13 + 15, p13 + 16, p13 + 17, p13 + 18, p13 + 19, p13 + 20, p13 + 21, p13 + 22, p13 + 23, p13 + 24, p13 + 25, p13 + 26, p13 + 27, p13 + 28, p13 + 29, p13 + 30, p13 + 31, p13 + 32, p13 + 33, p13 + 34, p13 + 35, p13 + 36, p13 + 37, p13 + 38, p13 + 39, 9};
Line(14) = {10, 9};
p15 = newp;
Point(p15 + 1) = {27.26276923573134, -0.2786170911669162, 0};
Point(p15 + 2) = {27.22565211302303, -0.1240131484835733, 0};
Point(p15 + 3) = {27.16480657862082, 0.02288096588009619, 0};
Point(p15 + 4) = {27.08173085151643, 0.1584482313148438, 0};
Point(p15 + 5) = {26.97847053182371, 0.2793505318237068, 0};
Point(p15 + 6) = {26.85756823131484, 0.3826108515164265, 0};
Point(p15 + 7) = {26.7220009658801, 0.4656865786208153, 0};
Point(p15 + 8) = {26.57510685151643, 0.5265321130230316, 0};
Point(p15 + 9) = {26.42050290883308, 0.5636492357313421, 0};
Point(p15 + 10) = {26.261996, 0.5761239999999999, 0};
Point(p15 + 11) = {26.10348909116692, 0.5636492357313418, 0};
Point(p15 + 12) = {25.94888514848357, 0.5265321130230318, 0};
Point(p15 + 13) = {25.8019910341199, 0.4656865786208154, 0};
Point(p15 + 14) = {25.66642376868516, 0.3826108515164267, 0};
Point(p15 + 15) = {25.54552146817629, 0.2793505318237069, 0};
Point(p15 + 16) = {25.44226114848357, 0.1584482313148439, 0};
Point(p15 + 17) = {25.35918542137918, 0.0228809658800963, 0};
Point(p15 + 18) = {25.29833988697697, -0.1240131484835732, 0};
Point(p15 + 19) = {25.26122276426866, -0.2786170911669161, 0};
Point(p15 + 20) = {25.248748, -0.4371239999999999, 0};
Point(p15 + 21) = {25.26122276426866, -0.5956309088330838, 0};
Point(p15 + 22) = {25.29833988697697, -0.750234851516427, 0};
Point(p15 + 23) = {25.35918542137918, -0.8971289658800958, 0};
Point(p15 + 24) = {25.44226114848357, -1.032696231314844, 0};
Point(p15 + 25) = {25.54552146817629, -1.153598531823707, 0};
Point(p15 + 26) = {25.66642376868516, -1.256858851516427, 0};
Point(p15 + 27) = {25.8019910341199, -1.339934578620815, 0};
Point(p15 + 28) = {25.94888514848357, -1.400780113023032, 0};
Point(p15 + 29) = {26.10348909116692, -1.437897235731342, 0};
Point(p15 + 30) = {26.261996, -1.450372, 0};
Point(p15 + 31) = {26.42050290883308, -1.437897235731342, 0};
Point(p15 + 32) = {26.57510685151643, -1.400780113023032, 0};
Point(p15 + 33) = {26.7220009658801, -1.339934578620815, 0};
Point(p15 + 34) = {26.85756823131484, -1.256858851516427, 0};
Point(p15 + 35) = {26.97847053182371, -1.153598531823707, 0};
Point(p15 + 36) = {27.08173085151643, -1.032696231314844, 0};
Point(p15 + 37) = {27.16480657862082, -0.8971289658800965, 0};
Point(p15 + 38) = {27.22565211302303, -0.750234851516427, 0};
Point(p15 + 39) = {27.26276923573134, -0.5956309088330841, 0};
Spline(15) = {10, p15 + 1, p15 + 2, p15 + 3, p15 + 4, p15 + 5, p15 + 6, p15 + 7, p15 + 8, p15 + 9, p15 + 10, p15 + 11, p15 + 12, p15 + 13, p15 + 14, p15 + 15, p15 + 16, p15 + 17, p15 + 18, p15 + 19, p15 + 20, p15 + 21, p15 + 22, p15 + 23, p15 + 24, p15 + 25, p15 + 26, p15 + 27, p15 + 28, p15 + 29, p15 + 30, p15 + 31, p15 + 32, p15 + 33, p15 + 34, p15 + 35, p15 + 36, p15 + 37, p15 + 38, p15 + 39, 10};
p16 = newp;
Point(p16 + 1) = {27.08921538106787, 2.23605330251833, 0.1};
Point(p16 + 2) = {27.05639513471813, 2.37275946709324, 0.1};
Point(p16 + 3) = {27.00259340434004, 2.502648334251147, 0.1};
Point(p16 + 4) = {26.92913496709324, 2.622521609006189, 0.1};
Point(p16 + 5) = {26.83782861349731, 2.729427613497306, 0.1};
Point(p16 + 6) = {26.73092260900619, 2.82073396709324, 0.1};
Point(p16 + 7) = {26.61104933425115, 2.894192404340044, 0.1};
Point(p16 + 8) = {26.48116046709324, 2.947994134718127, 0.1};
Point(p16 + 9) = {26.34445430251833, 2.980814381067873, 0.1};
Point(p16 + 10) = {26.204297, 2.991845, 0.1};
Point(p16 + 11) = {26.06413969748167, 2.980814381067873, 0.1};
Point(p16 + 12) = {25.92743353290676, 2.947994134718127, 0.1};
Point(p16 + 13) = {25.79754466574885, 2.894192404340044, 0.1};
Point(p16 + 14) = {25.67767139099381, 2.82073396709324, 0.1};
Point(p16 + 15) = {25.57076538650269, 2.729427613497307, 0.1};
Point(p16 + 16) = {25.47945903290676, 2.622521609006189, 0.1};
Point(p16 + 17) = {25.40600059565996, 2.502648334251147, 0.1};
Point(p16 + 18) = {25.35219886528187, 2.37275946709324, 0.1};
Point(p16 + 19) = {25.31937861893213, 2.23605330251833, 0.1};
Point(p16 + 20) = {25.308348, 2.095896, 0.1};
Point(p16 + 21) = {25.31937861893213, 1.95573869748167, 0.1};
Point(p16 + 22) = {25.35219886528187, 1.81903253290676, 0.1};
Point(p16 + 23) = {25.40600059565996, 1.689143665748853, 0.1};
Point(p16 + 24) = {25.47945903290676, 1.569270390993811, 0.1};
Point(p16 + 25) = {25.57076538650269, 1.462364386502694, 0.1};
Point(p16 + 26) = {25.67767139099381, 1.371058032906761, 0.1};
Point(p16 + 27) = {25.79754466574885, 1.297599595659956, 0.1};
Point(p16 + 28) = {25.92743353290676, 1.243797865281874, 0.1};
Point(p16 + 29) = {26.06413969748167, 1.210977618932127, 0.1};
Point(p16 + 30) = {26.204297, 1.199947, 0.1};
Point(p16 + 31) = {26.34445430251833, 1.210977618932127, 0.1};
Point(p16 + 32) = {26.48116046709324, 1.243797865281874, 0.1};
Point(p16 + 33) = {26.61104933425115, 1.297599595659956, 0.1};
Point(p16 + 34) = {26.73092260900619, 1.37105803290676, 0.1};
Point(p16 + 35) = {26.83782861349731, 1.462364386502694, 0.1};
Point(p16 + 36) = {26.92913496709324, 1.569270390993811, 0.1};
Point(p16 + 37) = {27.00259340434004, 1.689143665748853, 0.1};
Point(p16 + 38) = {27.05639513471813, 1.81903253290676, 0.1};
Point(p16 + 39) = {27.08921538106787, 1.95573869748167, 0.1};
Spline(16) = {11, p16 + 1, p16 + 2, p16 + 3, p16 + 4, p16 + 5, p16 + 6, p16 + 7, p16 + 8, p16 + 9, p16 + 10, p16 + 11, p16 + 12, p16 + 13, p16 + 14, p16 + 15, p16 + 16, p16 + 17, p16 + 18, p16 + 19, p16 + 20, p16 + 21, p16 + 22, p16 + 23, p16 + 24, p16 + 25, p16 + 26, p16 + 27, p16 + 28, p16 + 29, p16 + 30, p16 + 31, p16 + 32, p16 + 33, p16 + 34, p16 + 35, p16 + 36, p16 + 37, p16 + 38, p16 + 39, 11};
Line(17) = {12, 11};
p18 = newp;
Point(p18 + 1) = {27.08921538106787, 2.23605330251833, 0};
Point(p18 + 2) = {27.05639513471813, 2.37275946709324, 0};
Point(p18 + 3) = {27.00259340434004, 2.502648334251147, 0};
Point(p18 + 4) = {26.92913496709324, 2.622521609006189, 0};
Point(p18 + 5) = {26.83782861349731, 2.729427613497306, 0};
Point(p18 + 6) = {26.73092260900619, 2.82073396709324, 0};
Point(p18 + 7) = {26.61104933425115, 2.894192404340044, 0};
Point(p18 + 8) = {26.48116046709324, 2.947994134718127, 0};
Point(p18 + 9) = {26.34445430251833, 2.980814381067873, 0};
Point(p18 + 10) = {26.204297, 2.991845, 0};
Point(p18 + 11) = {26.06413969748167, 2.980814381067873, 0};
Point(p18 + 12) = {25.92743353290676, 2.947994134718127, 0};
Point(p18 + 13) = {25.79754466574885, 2.894192404340044, 0};
Point(p18 + 14) = {25.67767139099381, 2.82073396709324, 0};
Point(p18 + 15) = {25.57076538650269, 2.729427613497307, 0};
Point(p18 + 16) = {25.47945903290676, 2.622521609006189, 0};
Point(p18 + 17) = {25.40600059565996, 2.502648334251147, 0};
Point(p18 + 18) = {25.35219886528187, 2.37275946709324, 0};
Point(p18 + 19) = {25.31937861893213, 2.23605330251833, 0};
Point(p18 + 20) = {25.308348, 2.095896, 0};
Point(p18 + 21) = {25.31937861893213, 1.95573869748167, 0};
Point(p18 + 22) = {25.35219886528187, 1.81903253290676, 0};
Point(p18 + 23) = {25.40600059565996, 1.689143665748853, 0};
Point(p18 + 24) = {25.47945903290676, 1.569270390993811, 0};
Point(p18 + 25) = {25.57076538650269, 1.462364386502694, 0};
Point(p18 + 26) = {25.67767139099381, 1.371058032906761, 0};
Point(p18 + 27) = {25.79754466574885, 1.297599595659956, 0};
Point(p18 + 28) = {25.92743353290676, 1.243797865281874, 0};
Point(p18 + 29) = {26.06413969748167, 1.210977618932127, 0};
Point(p18 + 30) = {26.204297, 1.199947, 0};
Point(p18 + 31) = {26.34445430251833, 1.210977618932127, 0};
Point(p18 + 32) = {26.48116046709324, 1.243797865281874, 0};
Point(p18 + 33) = {26.61104933425115, 1.297599595659956, 0};
Point(p18 + 34) = {26.73092260900619, 1.37105803290676, 0};
Point(p18 + 35) = {26.83782861349731, 1.462364386502694, 0};
Point(p18 + 36) = {26.92913496709324, 1.569270390993811, 0};
Point(p18 + 37) = {27.00259340434004, 1.689143665748853, 0};
Point(p18 + 38) = {27.05639513471813, 1.81903253290676, 0};
Point(p18 + 39) = {27.08921538106787, 1.95573869748167, 0};
Spline(18) = {12, p18 + 1, p18 + 2, p18 + 3, p18 + 4, p18 + 5, p18 + 6, p18 + 7, p18 + 8, p18 + 9, p18 + 10, p18 + 11, p18 + 12, p18 + 13, p18 + 14, p18 + 15, p18 + 16, p18 + 17, p18 + 18, p18 + 19, p18 + 20, p18 + 21, p18 + 22, p18 + 23, p18 + 24, p18 + 25, p18 + 26, p18 + 27, p18 + 28, p18 + 29, p18 + 30, p18 + 31, p18 + 32, p18 + 33, p18 + 34, p18 + 35, p18 + 36, p18 + 37, p18 + 38, p18 + 39, 12};
Line(19) = {14, 13};
Line(20) = {13, 15};
Line(21) = {16, 15};
Line(22) = {14, 16};
Line(23) = {14, 17};
Line(24) = {17, 18};
Line(25) = {13, 18};
Line(26) = {15, 19};
Line(27) = {18, 19};
Line(28) = {16, 20};
Line(29) = {20, 19};
Line(30) = {17, 20};
Curve Loop(7) = {-13, -14, 15, 14};
Surface(7) = {7};
Curve Loop(8) = {13};
Plane Surface(8) = {8};
Curve Loop(9) = {15};
Plane Surface(9) = {9};
Curve Loop(10) = {-16, -17, 18, 17};
Surface(10) = {10};
Curve Loop(11) = {16};
Plane Surface(11) = {11};
Curve Loop(12) = {18};
Plane Surface(12) = {12};
Curve Loop(13) = {-19, 22, 21, -20};
Plane Surface(13) = {13};
Curve Loop(14) = {-23, 19, 25, -24};
Plane Surface(14) = {14};
Curve Loop(15) = {-20, 25, 27, -26, -13, -16};
Plane Surface(15) = {15};
Curve Loop(16) = {-28, 21, 26, -29};
Plane Surface(16) = {16};
Curve Loop(17) = {-22, 23, 30, -28, -15, -18};
Plane Surface(17) = {17};
Curve Loop(18) = {-24, 30, 29, -27};
Plane Surface(18) = {18};
Surface Loop(1) = {13, 14, 15, 16, 17, 18, 7, 10};
Volume(1) = {1};
Surface Loop(2) = {7, 8, 9};
Volume(2) = {2};
Surface Loop(3) = {10, 11, 12};
Volume(3) = {3};
Physical Surface("WALLS") = {13, 18};
Physical Surface("LOAD") = {8, 11};
Physical Surface("BORDER") = {7, 9, 10, 12, 14, 15, 16, 17};
Physical Volume("SOLID") = {1, 2, 3};
