cl__1 = 0.065507;
cl__2 = 0.102468;
cl__3 = 0.6587499999999999;
cl__4 = 0.574043;
cl__5 = 2.70523;
cl__6 = 2.592985;
Point(9) = {8.355373, 1.595124, 0.1, cl__1};
Point(10) = {8.355373, 1.595124, 0, cl__1};
Point(11) = {18.034569, 1.109683, 0.1, cl__2};
Point(12) = {18.034569, 1.109683, 0, cl__2};
Point(13) = {0.810994, -3.668654, 0.1, cl__3};
Point(14) = {0.810994, -3.668654, 0, cl__3};
Point(15) = {0.810994, 4.896388999999999, 0.1, cl__4};
Point(16) = {0.810994, 4.896388999999999, 0, cl__4};
Point(17) = {34.341059, -3.668654, 0, cl__5};
Point(18) = {34.341059, -3.668654, 0.1, cl__5};
Point(19) = {34.341059, 4.896388999999999, 0.1, cl__6};
Point(20) = {34.341059, 4.896388999999999, 0, cl__6};
p13 = newp;
Point(p13 + 1) = {8.347308001273657, 1.697599525013904, 0.1};
Point(p13 + 2) = {8.323311592129466, 1.797551762505197, 0.1};
Point(p13 + 3) = {8.283974643800073, 1.892519556664385, 0.1};
Point(p13 + 4) = {8.230265762505196, 1.98016448521923, 0.1};
Point(p13 + 5) = {8.163507439151871, 2.058328439151872, 0.1};
Point(p13 + 6) = {8.08534348521923, 2.125086762505197, 0.1};
Point(p13 + 7) = {7.997698556664385, 2.178795643800074, 0.1};
Point(p13 + 8) = {7.902730762505197, 2.218132592129466, 0.1};
Point(p13 + 9) = {7.802778525013904, 2.242129001273657, 0.1};
Point(p13 + 10) = {7.700303, 2.250194, 0.1};
Point(p13 + 11) = {7.597827474986095, 2.242129001273657, 0.1};
Point(p13 + 12) = {7.497875237494803, 2.218132592129466, 0.1};
Point(p13 + 13) = {7.402907443335615, 2.178795643800074, 0.1};
Point(p13 + 14) = {7.31526251478077, 2.125086762505197, 0.1};
Point(p13 + 15) = {7.237098560848128, 2.058328439151872, 0.1};
Point(p13 + 16) = {7.170340237494803, 1.98016448521923, 0.1};
Point(p13 + 17) = {7.116631356199925, 1.892519556664385, 0.1};
Point(p13 + 18) = {7.077294407870534, 1.797551762505197, 0.1};
Point(p13 + 19) = {7.053297998726343, 1.697599525013904, 0.1};
Point(p13 + 20) = {7.045233, 1.595124, 0.1};
Point(p13 + 21) = {7.053297998726343, 1.492648474986096, 0.1};
Point(p13 + 22) = {7.077294407870534, 1.392696237494803, 0.1};
Point(p13 + 23) = {7.116631356199925, 1.297728443335615, 0.1};
Point(p13 + 24) = {7.170340237494803, 1.21008351478077, 0.1};
Point(p13 + 25) = {7.237098560848128, 1.131919560848128, 0.1};
Point(p13 + 26) = {7.31526251478077, 1.065161237494803, 0.1};
Point(p13 + 27) = {7.402907443335615, 1.011452356199926, 0.1};
Point(p13 + 28) = {7.497875237494803, 0.9721154078705337, 0.1};
Point(p13 + 29) = {7.597827474986095, 0.9481189987263431, 0.1};
Point(p13 + 30) = {7.700303, 0.9400539999999999, 0.1};
Point(p13 + 31) = {7.802778525013903, 0.9481189987263431, 0.1};
Point(p13 + 32) = {7.902730762505197, 0.9721154078705336, 0.1};
Point(p13 + 33) = {7.997698556664385, 1.011452356199926, 0.1};
Point(p13 + 34) = {8.08534348521923, 1.065161237494803, 0.1};
Point(p13 + 35) = {8.163507439151871, 1.131919560848128, 0.1};
Point(p13 + 36) = {8.230265762505196, 1.21008351478077, 0.1};
Point(p13 + 37) = {8.283974643800073, 1.297728443335615, 0.1};
Point(p13 + 38) = {8.323311592129466, 1.392696237494803, 0.1};
Point(p13 + 39) = {8.347308001273657, 1.492648474986096, 0.1};
Spline(13) = {9, p13 + 1, p13 + 2, p13 + 3, p13 + 4, p13 + 5, p13 + 6, p13 + 7, p13 + 8, p13 + 9, p13 + 10, p13 + 11, p13 + 12, p13 + 13, p13 + 14, p13 + 15, p13 + 16, p13 + 17, p13 + 18, p13 + 19, p13 + 20, p13 + 21, p13 + 22, p13 + 23, p13 + 24, p13 + 25, p13 + 26, p13 + 27, p13 + 28, p13 + 29, p13 + 30, p13 + 31, p13 + 32, p13 + 33, p13 + 34, p13 + 35, p13 + 36, p13 + 37, p13 + 38, p13 + 39, 9};
Line(14) = {10, 9};
p15 = newp;
Point(p15 + 1) = {8.347308001273657, 1.697599525013904, 0};
Point(p15 + 2) = {8.323311592129466, 1.797551762505197, 0};
Point(p15 + 3) = {8.283974643800073, 1.892519556664385, 0};
Point(p15 + 4) = {8.230265762505196, 1.98016448521923, 0};
Point(p15 + 5) = {8.163507439151871, 2.058328439151872, 0};
Point(p15 + 6) = {8.08534348521923, 2.125086762505197, 0};
Point(p15 + 7) = {7.997698556664385, 2.178795643800074, 0};
Point(p15 + 8) = {7.902730762505197, 2.218132592129466, 0};
Point(p15 + 9) = {7.802778525013904, 2.242129001273657, 0};
Point(p15 + 10) = {7.700303, 2.250194, 0};
Point(p15 + 11) = {7.597827474986095, 2.242129001273657, 0};
Point(p15 + 12) = {7.497875237494803, 2.218132592129466, 0};
Point(p15 + 13) = {7.402907443335615, 2.178795643800074, 0};
Point(p15 + 14) = {7.31526251478077, 2.125086762505197, 0};
Point(p15 + 15) = {7.237098560848128, 2.058328439151872, 0};
Point(p15 + 16) = {7.170340237494803, 1.98016448521923, 0};
Point(p15 + 17) = {7.116631356199925, 1.892519556664385, 0};
Point(p15 + 18) = {7.077294407870534, 1.797551762505197, 0};
Point(p15 + 19) = {7.053297998726343, 1.697599525013904, 0};
Point(p15 + 20) = {7.045233, 1.595124, 0};
Point(p15 + 21) = {7.053297998726343, 1.492648474986096, 0};
Point(p15 + 22) = {7.077294407870534, 1.392696237494803, 0};
Point(p15 + 23) = {7.116631356199925, 1.297728443335615, 0};
Point(p15 + 24) = {7.170340237494803, 1.21008351478077, 0};
Point(p15 + 25) = {7.237098560848128, 1.131919560848128, 0};
Point(p15 + 26) = {7.31526251478077, 1.065161237494803, 0};
Point(p15 + 27) = {7.402907443335615, 1.011452356199926, 0};
Point(p15 + 28) = {7.497875237494803, 0.9721154078705337, 0};
Point(p15 + 29) = {7.597827474986095, 0.9481189987263431, 0};
Point(p15 + 30) = {7.700303, 0.9400539999999999, 0};
Point(p15 + 31) = {7.802778525013903, 0.9481189987263431, 0};
Point(p15 + 32) = {7.902730762505197, 0.9721154078705336, 0};
Point(p15 + 33) = {7.997698556664385, 1.011452356199926, 0};
Point(p15 + 34) = {8.08534348521923, 1.065161237494803, 0};
Point(p15 + 35) = {8.163507439151871, 1.131919560848128, 0};
Point(p15 + 36) = {8.230265762505196, 1.21008351478077, 0};
Point(p15 + 37) = {8.283974643800073, 1.297728443335615, 0};
Point(p15 + 38) = {8.323311592129466, 1.392696237494803, 0};
Point(p15 + 39) = {8.347308001273657, 1.492648474986096, 0};
Spline(15) = {10, p15 + 1, p15 + 2, p15 + 3, p15 + 4, p15 + 5, p15 + 6, p15 + 7, p15 + 8, p15 + 9, p15 + 10, p15 + 11, p15 + 12, p15 + 13, p15 + 14, p15 + 15, p15 + 16, p15 + 17, p15 + 18, p15 + 19, p15 + 20, p15 + 21, p15 + 22, p15 + 23, p15 + 24, p15 + 25, p15 + 26, p15 + 27, p15 + 28, p15 + 29, p15 + 30, p15 + 31, p15 + 32, p15 + 33, p15 + 34, p15 + 35, p15 + 36, p15 + 37, p15 + 38, p15 + 39, 10};
p16 = newp;
Point(p16 + 1) = {18.02195351346434, 1.269977954768494, 0.1};
Point(p16 + 2) = {17.98441768900429, 1.426325915762132, 0.1};
Point(p16 + 3) = {17.92288578319229, 1.574877077292119, 0.1};
Point(p16 + 4) = {17.83887291576213, 1.711973616748547, 0.1};
Point(p16 + 5) = {17.73444776233267, 1.834239762332669, 0.1};
Point(p16 + 6) = {17.61218161674855, 1.938664915762132, 0.1};
Point(p16 + 7) = {17.47508507729212, 2.022677783192288, 0.1};
Point(p16 + 8) = {17.32653391576213, 2.084209689004285, 0.1};
Point(p16 + 9) = {17.17018595476849, 2.121745513464345, 0.1};
Point(p16 + 10) = {17.009891, 2.134361, 0.1};
Point(p16 + 11) = {16.84959604523151, 2.121745513464345, 0.1};
Point(p16 + 12) = {16.69324808423787, 2.084209689004285, 0.1};
Point(p16 + 13) = {16.54469692270788, 2.022677783192289, 0.1};
Point(p16 + 14) = {16.40760038325145, 1.938664915762133, 0.1};
Point(p16 + 15) = {16.28533423766733, 1.834239762332669, 0.1};
Point(p16 + 16) = {16.18090908423787, 1.711973616748547, 0.1};
Point(p16 + 17) = {16.09689621680771, 1.574877077292119, 0.1};
Point(p16 + 18) = {16.03536431099571, 1.426325915762132, 0.1};
Point(p16 + 19) = {15.99782848653565, 1.269977954768494, 0.1};
Point(p16 + 20) = {15.985213, 1.109683, 0.1};
Point(p16 + 21) = {15.99782848653565, 0.9493880452315064, 0.1};
Point(p16 + 22) = {16.03536431099571, 0.7930400842378673, 0.1};
Point(p16 + 23) = {16.09689621680771, 0.6444889227078812, 0.1};
Point(p16 + 24) = {16.18090908423787, 0.5073923832514533, 0.1};
Point(p16 + 25) = {16.28533423766733, 0.3851262376673309, 0.1};
Point(p16 + 26) = {16.40760038325145, 0.2807010842378677, 0.1};
Point(p16 + 27) = {16.54469692270788, 0.1966882168077116, 0.1};
Point(p16 + 28) = {16.69324808423787, 0.1351563109957147, 0.1};
Point(p16 + 29) = {16.84959604523151, 0.09762048653565558, 0.1};
Point(p16 + 30) = {17.009891, 0.085005, 0.1};
Point(p16 + 31) = {17.17018595476849, 0.09762048653565536, 0.1};
Point(p16 + 32) = {17.32653391576213, 0.1351563109957146, 0.1};
Point(p16 + 33) = {17.47508507729212, 0.1966882168077114, 0.1};
Point(p16 + 34) = {17.61218161674855, 0.2807010842378674, 0.1};
Point(p16 + 35) = {17.73444776233267, 0.3851262376673307, 0.1};
Point(p16 + 36) = {17.83887291576213, 0.5073923832514531, 0.1};
Point(p16 + 37) = {17.92288578319229, 0.6444889227078805, 0.1};
Point(p16 + 38) = {17.98441768900429, 0.7930400842378674, 0.1};
Point(p16 + 39) = {18.02195351346434, 0.949388045231506, 0.1};
Spline(16) = {11, p16 + 1, p16 + 2, p16 + 3, p16 + 4, p16 + 5, p16 + 6, p16 + 7, p16 + 8, p16 + 9, p16 + 10, p16 + 11, p16 + 12, p16 + 13, p16 + 14, p16 + 15, p16 + 16, p16 + 17, p16 + 18, p16 + 19, p16 + 20, p16 + 21, p16 + 22, p16 + 23, p16 + 24, p16 + 25, p16 + 26, p16 + 27, p16 + 28, p16 + 29, p16 + 30, p16 + 31, p16 + 32, p16 + 33, p16 + 34, p16 + 35, p16 + 36, p16 + 37, p16 + 38, p16 + 39, 11};
Line(17) = {12, 11};
p18 = newp;
Point(p18 + 1) = {18.02195351346434, 1.269977954768494, 0};
Point(p18 + 2) = {17.98441768900429, 1.426325915762132, 0};
Point(p18 + 3) = {17.92288578319229, 1.574877077292119, 0};
Point(p18 + 4) = {17.83887291576213, 1.711973616748547, 0};
Point(p18 + 5) = {17.73444776233267, 1.834239762332669, 0};
Point(p18 + 6) = {17.61218161674855, 1.938664915762132, 0};
Point(p18 + 7) = {17.47508507729212, 2.022677783192288, 0};
Point(p18 + 8) = {17.32653391576213, 2.084209689004285, 0};
Point(p18 + 9) = {17.17018595476849, 2.121745513464345, 0};
Point(p18 + 10) = {17.009891, 2.134361, 0};
Point(p18 + 11) = {16.84959604523151, 2.121745513464345, 0};
Point(p18 + 12) = {16.69324808423787, 2.084209689004285, 0};
Point(p18 + 13) = {16.54469692270788, 2.022677783192289, 0};
Point(p18 + 14) = {16.40760038325145, 1.938664915762133, 0};
Point(p18 + 15) = {16.28533423766733, 1.834239762332669, 0};
Point(p18 + 16) = {16.18090908423787, 1.711973616748547, 0};
Point(p18 + 17) = {16.09689621680771, 1.574877077292119, 0};
Point(p18 + 18) = {16.03536431099571, 1.426325915762132, 0};
Point(p18 + 19) = {15.99782848653565, 1.269977954768494, 0};
Point(p18 + 20) = {15.985213, 1.109683, 0};
Point(p18 + 21) = {15.99782848653565, 0.9493880452315064, 0};
Point(p18 + 22) = {16.03536431099571, 0.7930400842378673, 0};
Point(p18 + 23) = {16.09689621680771, 0.6444889227078812, 0};
Point(p18 + 24) = {16.18090908423787, 0.5073923832514533, 0};
Point(p18 + 25) = {16.28533423766733, 0.3851262376673309, 0};
Point(p18 + 26) = {16.40760038325145, 0.2807010842378677, 0};
Point(p18 + 27) = {16.54469692270788, 0.1966882168077116, 0};
Point(p18 + 28) = {16.69324808423787, 0.1351563109957147, 0};
Point(p18 + 29) = {16.84959604523151, 0.09762048653565558, 0};
Point(p18 + 30) = {17.009891, 0.085005, 0};
Point(p18 + 31) = {17.17018595476849, 0.09762048653565536, 0};
Point(p18 + 32) = {17.32653391576213, 0.1351563109957146, 0};
Point(p18 + 33) = {17.47508507729212, 0.1966882168077114, 0};
Point(p18 + 34) = {17.61218161674855, 0.2807010842378674, 0};
Point(p18 + 35) = {17.73444776233267, 0.3851262376673307, 0};
Point(p18 + 36) = {17.83887291576213, 0.5073923832514531, 0};
Point(p18 + 37) = {17.92288578319229, 0.6444889227078805, 0};
Point(p18 + 38) = {17.98441768900429, 0.7930400842378674, 0};
Point(p18 + 39) = {18.02195351346434, 0.949388045231506, 0};
Spline(18) = {12, p18 + 1, p18 + 2, p18 + 3, p18 + 4, p18 + 5, p18 + 6, p18 + 7, p18 + 8, p18 + 9, p18 + 10, p18 + 11, p18 + 12, p18 + 13, p18 + 14, p18 + 15, p18 + 16, p18 + 17, p18 + 18, p18 + 19, p18 + 20, p18 + 21, p18 + 22, p18 + 23, p18 + 24, p18 + 25, p18 + 26, p18 + 27, p18 + 28, p18 + 29, p18 + 30, p18 + 31, p18 + 32, p18 + 33, p18 + 34, p18 + 35, p18 + 36, p18 + 37, p18 + 38, p18 + 39, 12};
Line(19) = {14, 13};
Line(20) = {13, 15};
Line(21) = {16, 15};
Line(22) = {14, 16};
Line(23) = {14, 17};
Line(24) = {17, 18};
Line(25) = {13, 18};
Line(26) = {15, 19};
Line(27) = {18, 19};
Line(28) = {16, 20};
Line(29) = {20, 19};
Line(30) = {17, 20};
Curve Loop(7) = {-13, -14, 15, 14};
Surface(7) = {7};
Curve Loop(8) = {13};
Plane Surface(8) = {8};
Curve Loop(9) = {15};
Plane Surface(9) = {9};
Curve Loop(10) = {-16, -17, 18, 17};
Surface(10) = {10};
Curve Loop(11) = {16};
Plane Surface(11) = {11};
Curve Loop(12) = {18};
Plane Surface(12) = {12};
Curve Loop(13) = {-19, 22, 21, -20};
Plane Surface(13) = {13};
Curve Loop(14) = {-23, 19, 25, -24};
Plane Surface(14) = {14};
Curve Loop(15) = {-20, 25, 27, -26, -16, -13};
Plane Surface(15) = {15};
Curve Loop(16) = {-28, 21, 26, -29};
Plane Surface(16) = {16};
Curve Loop(17) = {-22, 23, 30, -28, -18, -15};
Plane Surface(17) = {17};
Curve Loop(18) = {-24, 30, 29, -27};
Plane Surface(18) = {18};
Surface Loop(1) = {13, 14, 15, 16, 17, 18, 10, 7};
Volume(1) = {1};
Surface Loop(2) = {7, 8, 9};
Volume(2) = {2};
Surface Loop(3) = {10, 11, 12};
Volume(3) = {3};
Physical Surface("WALLS") = {13, 18};
Physical Surface("LOAD") = {8, 11};
Physical Surface("BORDER") = {7, 9, 10, 12, 14, 15, 16, 17};
Physical Volume("SOLID") = {1, 2, 3};
