cl__1 = 0.410496;
cl__2 = 0.577319;
cl__3 = 3.700533;
cl__4 = 0.109056;
cl__5 = 0.058501;
Point(1) = {0.841058, -3.498445, 1, cl__1};
Point(2) = {0.841058, -3.498445, 0, cl__1};
Point(3) = {0.841058, 4.449797999999999, 1, cl__2};
Point(4) = {0.841058, 4.449797999999999, 0, cl__2};
Point(5) = {36.79131099999999, -3.498445, 0, cl__3};
Point(6) = {36.79131099999999, -3.498445, 1, cl__3};
Point(7) = {36.79131099999999, 4.449797999999999, 1, cl__3};
Point(8) = {6.365238, -0.7898620000000002, 1, cl__4};
Point(9) = {16.701747, 1.26018, 1, cl__5};
Point(10) = {36.79131099999999, 4.449797999999999, 0, cl__3};
Point(11) = {6.365238, -0.7898620000000002, 0, cl__4};
Point(12) = {16.701747, 1.26018, 0, cl__5};
Line(1) = {2, 1};
Line(2) = {1, 3};
Line(3) = {4, 3};
Line(4) = {2, 4};
Line(5) = {2, 5};
Line(6) = {5, 6};
Line(7) = {1, 6};
Line(8) = {3, 7};
Line(9) = {6, 7};
p10 = newp;
Point(p10 + 1) = {6.351811433654412, -0.6192612991091209, 1};
Point(p10 + 2) = {6.311862341241294, -0.4528613536654404, 1};
Point(p10 + 3) = {6.246374401999294, -0.2947594825755391, 1};
Point(p10 + 4) = {6.15696014633456, -0.1488486786156773, 1};
Point(p10 + 5) = {6.045821249970458, -0.01872175002954235, 1};
Point(p10 + 6) = {5.915694321384323, 0.09241714633455966, 1};
Point(p10 + 7) = {5.769783517424461, 0.1818314019992938, 1};
Point(p10 + 8) = {5.61168164633456, 0.2473193412412938, 1};
Point(p10 + 9) = {5.445281700890879, 0.2872684336544117, 1};
Point(p10 + 10) = {5.274681, 0.300695, 1};
Point(p10 + 11) = {5.104080299109121, 0.2872684336544117, 1};
Point(p10 + 12) = {4.93768035366544, 0.2473193412412938, 1};
Point(p10 + 13) = {4.779578482575539, 0.1818314019992939, 1};
Point(p10 + 14) = {4.633667678615677, 0.09241714633455966, 1};
Point(p10 + 15) = {4.503540750029543, -0.01872175002954224, 1};
Point(p10 + 16) = {4.392401853665441, -0.1488486786156772, 1};
Point(p10 + 17) = {4.302987598000707, -0.294759482575539, 1};
Point(p10 + 18) = {4.237499658758706, -0.4528613536654403, 1};
Point(p10 + 19) = {4.197550566345589, -0.6192612991091208, 1};
Point(p10 + 20) = {4.184124000000001, -0.7898619999999998, 1};
Point(p10 + 21) = {4.197550566345589, -0.9604627008908788, 1};
Point(p10 + 22) = {4.237499658758706, -1.12686264633456, 1};
Point(p10 + 23) = {4.302987598000706, -1.28496451742446, 1};
Point(p10 + 24) = {4.39240185366544, -1.430875321384323, 1};
Point(p10 + 25) = {4.503540750029543, -1.561002249970457, 1};
Point(p10 + 26) = {4.633667678615677, -1.672141146334559, 1};
Point(p10 + 27) = {4.779578482575539, -1.761555401999294, 1};
Point(p10 + 28) = {4.93768035366544, -1.827043341241294, 1};
Point(p10 + 29) = {5.104080299109121, -1.866992433654412, 1};
Point(p10 + 30) = {5.274681, -1.880419, 1};
Point(p10 + 31) = {5.445281700890879, -1.866992433654412, 1};
Point(p10 + 32) = {5.611681646334559, -1.827043341241294, 1};
Point(p10 + 33) = {5.769783517424461, -1.761555401999294, 1};
Point(p10 + 34) = {5.915694321384323, -1.67214114633456, 1};
Point(p10 + 35) = {6.045821249970458, -1.561002249970458, 1};
Point(p10 + 36) = {6.156960146334559, -1.430875321384323, 1};
Point(p10 + 37) = {6.246374401999294, -1.284964517424461, 1};
Point(p10 + 38) = {6.311862341241294, -1.12686264633456, 1};
Point(p10 + 39) = {6.351811433654412, -0.9604627008908793, 1};
Spline(10) = {8, p10 + 1, p10 + 2, p10 + 3, p10 + 4, p10 + 5, p10 + 6, p10 + 7, p10 + 8, p10 + 9, p10 + 10, p10 + 11, p10 + 12, p10 + 13, p10 + 14, p10 + 15, p10 + 16, p10 + 17, p10 + 18, p10 + 19, p10 + 20, p10 + 21, p10 + 22, p10 + 23, p10 + 24, p10 + 25, p10 + 26, p10 + 27, p10 + 28, p10 + 29, p10 + 30, p10 + 31, p10 + 32, p10 + 33, p10 + 34, p10 + 35, p10 + 36, p10 + 37, p10 + 38, p10 + 39, 8};
p11 = newp;
Point(p11 + 1) = {16.6945446053782, 1.351695100655325, 1};
Point(p11 + 2) = {16.67311476837176, 1.440956795811311, 1};
Point(p11 + 3) = {16.63798516268934, 1.525767166290633, 1};
Point(p11 + 4) = {16.59002079581131, 1.604037899302611, 1};
Point(p11 + 5) = {16.53040270963482, 1.673841709634817, 1};
Point(p11 + 6) = {16.46059889930261, 1.73345979581131, 1};
Point(p11 + 7) = {16.38232816629063, 1.78142416268934, 1};
Point(p11 + 8) = {16.29751779581131, 1.816553768371763, 1};
Point(p11 + 9) = {16.20825610065533, 1.837983605378199, 1};
Point(p11 + 10) = {16.116741, 1.845186, 1};
Point(p11 + 11) = {16.02522589934468, 1.837983605378199, 1};
Point(p11 + 12) = {15.93596420418869, 1.816553768371763, 1};
Point(p11 + 13) = {15.85115383370937, 1.781424162689341, 1};
Point(p11 + 14) = {15.77288310069739, 1.73345979581131, 1};
Point(p11 + 15) = {15.70307929036518, 1.673841709634817, 1};
Point(p11 + 16) = {15.64346120418869, 1.604037899302611, 1};
Point(p11 + 17) = {15.59549683731066, 1.525767166290633, 1};
Point(p11 + 18) = {15.56036723162824, 1.440956795811311, 1};
Point(p11 + 19) = {15.5389373946218, 1.351695100655325, 1};
Point(p11 + 20) = {15.531735, 1.26018, 1};
Point(p11 + 21) = {15.5389373946218, 1.168664899344675, 1};
Point(p11 + 22) = {15.56036723162824, 1.079403204188689, 1};
Point(p11 + 23) = {15.59549683731066, 0.994592833709367, 1};
Point(p11 + 24) = {15.64346120418869, 0.9163221006973896, 1};
Point(p11 + 25) = {15.70307929036518, 0.8465182903651827, 1};
Point(p11 + 26) = {15.77288310069739, 0.7869002041886897, 1};
Point(p11 + 27) = {15.85115383370937, 0.7389358373106598, 1};
Point(p11 + 28) = {15.93596420418869, 0.7038062316282375, 1};
Point(p11 + 29) = {16.02522589934468, 0.682376394621801, 1};
Point(p11 + 30) = {16.116741, 0.6751740000000001, 1};
Point(p11 + 31) = {16.20825610065533, 0.6823763946218009, 1};
Point(p11 + 32) = {16.29751779581131, 0.7038062316282374, 1};
Point(p11 + 33) = {16.38232816629063, 0.7389358373106597, 1};
Point(p11 + 34) = {16.46059889930261, 0.7869002041886894, 1};
Point(p11 + 35) = {16.53040270963482, 0.8465182903651826, 1};
Point(p11 + 36) = {16.59002079581131, 0.9163221006973894, 1};
Point(p11 + 37) = {16.63798516268934, 0.9945928337093666, 1};
Point(p11 + 38) = {16.67311476837176, 1.079403204188689, 1};
Point(p11 + 39) = {16.6945446053782, 1.168664899344675, 1};
Spline(11) = {9, p11 + 1, p11 + 2, p11 + 3, p11 + 4, p11 + 5, p11 + 6, p11 + 7, p11 + 8, p11 + 9, p11 + 10, p11 + 11, p11 + 12, p11 + 13, p11 + 14, p11 + 15, p11 + 16, p11 + 17, p11 + 18, p11 + 19, p11 + 20, p11 + 21, p11 + 22, p11 + 23, p11 + 24, p11 + 25, p11 + 26, p11 + 27, p11 + 28, p11 + 29, p11 + 30, p11 + 31, p11 + 32, p11 + 33, p11 + 34, p11 + 35, p11 + 36, p11 + 37, p11 + 38, p11 + 39, 9};
Line(12) = {4, 10};
Line(13) = {10, 7};
Line(14) = {5, 10};
p15 = newp;
Point(p15 + 1) = {6.351811433654412, -0.6192612991091209, 0};
Point(p15 + 2) = {6.311862341241294, -0.4528613536654404, 0};
Point(p15 + 3) = {6.246374401999294, -0.2947594825755391, 0};
Point(p15 + 4) = {6.15696014633456, -0.1488486786156773, 0};
Point(p15 + 5) = {6.045821249970458, -0.01872175002954235, 0};
Point(p15 + 6) = {5.915694321384323, 0.09241714633455966, 0};
Point(p15 + 7) = {5.769783517424461, 0.1818314019992938, 0};
Point(p15 + 8) = {5.61168164633456, 0.2473193412412938, 0};
Point(p15 + 9) = {5.445281700890879, 0.2872684336544117, 0};
Point(p15 + 10) = {5.274681, 0.300695, 0};
Point(p15 + 11) = {5.104080299109121, 0.2872684336544117, 0};
Point(p15 + 12) = {4.93768035366544, 0.2473193412412938, 0};
Point(p15 + 13) = {4.779578482575539, 0.1818314019992939, 0};
Point(p15 + 14) = {4.633667678615677, 0.09241714633455966, 0};
Point(p15 + 15) = {4.503540750029543, -0.01872175002954224, 0};
Point(p15 + 16) = {4.392401853665441, -0.1488486786156772, 0};
Point(p15 + 17) = {4.302987598000707, -0.294759482575539, 0};
Point(p15 + 18) = {4.237499658758706, -0.4528613536654403, 0};
Point(p15 + 19) = {4.197550566345589, -0.6192612991091208, 0};
Point(p15 + 20) = {4.184124000000001, -0.7898619999999998, 0};
Point(p15 + 21) = {4.197550566345589, -0.9604627008908788, 0};
Point(p15 + 22) = {4.237499658758706, -1.12686264633456, 0};
Point(p15 + 23) = {4.302987598000706, -1.28496451742446, 0};
Point(p15 + 24) = {4.39240185366544, -1.430875321384323, 0};
Point(p15 + 25) = {4.503540750029543, -1.561002249970457, 0};
Point(p15 + 26) = {4.633667678615677, -1.672141146334559, 0};
Point(p15 + 27) = {4.779578482575539, -1.761555401999294, 0};
Point(p15 + 28) = {4.93768035366544, -1.827043341241294, 0};
Point(p15 + 29) = {5.104080299109121, -1.866992433654412, 0};
Point(p15 + 30) = {5.274681, -1.880419, 0};
Point(p15 + 31) = {5.445281700890879, -1.866992433654412, 0};
Point(p15 + 32) = {5.611681646334559, -1.827043341241294, 0};
Point(p15 + 33) = {5.769783517424461, -1.761555401999294, 0};
Point(p15 + 34) = {5.915694321384323, -1.67214114633456, 0};
Point(p15 + 35) = {6.045821249970458, -1.561002249970458, 0};
Point(p15 + 36) = {6.156960146334559, -1.430875321384323, 0};
Point(p15 + 37) = {6.246374401999294, -1.284964517424461, 0};
Point(p15 + 38) = {6.311862341241294, -1.12686264633456, 0};
Point(p15 + 39) = {6.351811433654412, -0.9604627008908793, 0};
Spline(15) = {11, p15 + 1, p15 + 2, p15 + 3, p15 + 4, p15 + 5, p15 + 6, p15 + 7, p15 + 8, p15 + 9, p15 + 10, p15 + 11, p15 + 12, p15 + 13, p15 + 14, p15 + 15, p15 + 16, p15 + 17, p15 + 18, p15 + 19, p15 + 20, p15 + 21, p15 + 22, p15 + 23, p15 + 24, p15 + 25, p15 + 26, p15 + 27, p15 + 28, p15 + 29, p15 + 30, p15 + 31, p15 + 32, p15 + 33, p15 + 34, p15 + 35, p15 + 36, p15 + 37, p15 + 38, p15 + 39, 11};
p16 = newp;
Point(p16 + 1) = {16.6945446053782, 1.351695100655325, 0};
Point(p16 + 2) = {16.67311476837176, 1.440956795811311, 0};
Point(p16 + 3) = {16.63798516268934, 1.525767166290633, 0};
Point(p16 + 4) = {16.59002079581131, 1.604037899302611, 0};
Point(p16 + 5) = {16.53040270963482, 1.673841709634817, 0};
Point(p16 + 6) = {16.46059889930261, 1.73345979581131, 0};
Point(p16 + 7) = {16.38232816629063, 1.78142416268934, 0};
Point(p16 + 8) = {16.29751779581131, 1.816553768371763, 0};
Point(p16 + 9) = {16.20825610065533, 1.837983605378199, 0};
Point(p16 + 10) = {16.116741, 1.845186, 0};
Point(p16 + 11) = {16.02522589934468, 1.837983605378199, 0};
Point(p16 + 12) = {15.93596420418869, 1.816553768371763, 0};
Point(p16 + 13) = {15.85115383370937, 1.781424162689341, 0};
Point(p16 + 14) = {15.77288310069739, 1.73345979581131, 0};
Point(p16 + 15) = {15.70307929036518, 1.673841709634817, 0};
Point(p16 + 16) = {15.64346120418869, 1.604037899302611, 0};
Point(p16 + 17) = {15.59549683731066, 1.525767166290633, 0};
Point(p16 + 18) = {15.56036723162824, 1.440956795811311, 0};
Point(p16 + 19) = {15.5389373946218, 1.351695100655325, 0};
Point(p16 + 20) = {15.531735, 1.26018, 0};
Point(p16 + 21) = {15.5389373946218, 1.168664899344675, 0};
Point(p16 + 22) = {15.56036723162824, 1.079403204188689, 0};
Point(p16 + 23) = {15.59549683731066, 0.994592833709367, 0};
Point(p16 + 24) = {15.64346120418869, 0.9163221006973896, 0};
Point(p16 + 25) = {15.70307929036518, 0.8465182903651827, 0};
Point(p16 + 26) = {15.77288310069739, 0.7869002041886897, 0};
Point(p16 + 27) = {15.85115383370937, 0.7389358373106598, 0};
Point(p16 + 28) = {15.93596420418869, 0.7038062316282375, 0};
Point(p16 + 29) = {16.02522589934468, 0.682376394621801, 0};
Point(p16 + 30) = {16.116741, 0.6751740000000001, 0};
Point(p16 + 31) = {16.20825610065533, 0.6823763946218009, 0};
Point(p16 + 32) = {16.29751779581131, 0.7038062316282374, 0};
Point(p16 + 33) = {16.38232816629063, 0.7389358373106597, 0};
Point(p16 + 34) = {16.46059889930261, 0.7869002041886894, 0};
Point(p16 + 35) = {16.53040270963482, 0.8465182903651826, 0};
Point(p16 + 36) = {16.59002079581131, 0.9163221006973894, 0};
Point(p16 + 37) = {16.63798516268934, 0.9945928337093666, 0};
Point(p16 + 38) = {16.67311476837176, 1.079403204188689, 0};
Point(p16 + 39) = {16.6945446053782, 1.168664899344675, 0};
Spline(16) = {12, p16 + 1, p16 + 2, p16 + 3, p16 + 4, p16 + 5, p16 + 6, p16 + 7, p16 + 8, p16 + 9, p16 + 10, p16 + 11, p16 + 12, p16 + 13, p16 + 14, p16 + 15, p16 + 16, p16 + 17, p16 + 18, p16 + 19, p16 + 20, p16 + 21, p16 + 22, p16 + 23, p16 + 24, p16 + 25, p16 + 26, p16 + 27, p16 + 28, p16 + 29, p16 + 30, p16 + 31, p16 + 32, p16 + 33, p16 + 34, p16 + 35, p16 + 36, p16 + 37, p16 + 38, p16 + 39, 12};
Line(17) = {11, 8};
Line(18) = {12, 9};
Curve Loop(1) = {-1, 4, 3, -2};
Plane Surface(1) = {1};
Curve Loop(2) = {-5, 1, 7, -6};
Plane Surface(2) = {2};
Curve Loop(3) = {-2, 7, 9, -8, -10, -11};
Plane Surface(3) = {3};
Curve Loop(4) = {-12, 3, 8, -13};
Plane Surface(4) = {4};
Curve Loop(5) = {-4, 5, 14, -12, -15, -16};
Plane Surface(5) = {5};
Curve Loop(6) = {-6, 14, 13, -9};
Plane Surface(6) = {6};
Curve Loop(7) = {-10, -17, 15, 17};
Surface(7) = {7};
Curve Loop(8) = {-11, -18, 16, 18};
Surface(8) = {8};
Surface Loop(1) = {1, 2, 3, 4, 5, 6, 7, 8};
Volume(1) = {1};
Physical Surface("INFLOW") = {1};
Physical Surface("OUTFLOW") = {6};
Physical Surface("OBSTACLE") = {7, 8};
Physical Surface("WALL_Y") = {2, 4};
Physical Surface("WALL_Z") = {3, 5};
Physical Volume("FLUID") = {1};
