cl__1 = 1;
cl__2 = 0.053099;
cl__3 = 0.104705;
Point(1) = {0.073709, -3.302634, 1, cl__1};
Point(2) = {0.073709, -3.302634, 0, cl__1};
Point(3) = {0.073709, 4.994158000000001, 1, cl__1};
Point(4) = {0.073709, 4.994158000000001, 0, cl__1};
Point(5) = {32.949086, -3.302634, 0, cl__1};
Point(6) = {32.949086, -3.302634, 1, cl__1};
Point(7) = {32.949086, 4.994158000000001, 1, cl__1};
Point(8) = {20.750026, -0.1432290000000001, 1, cl__2};
Point(9) = {13.41804, 1.924732, 1, cl__3};
Point(10) = {32.949086, 4.994158000000001, 0, cl__1};
Point(11) = {20.750026, -0.1432290000000001, 0, cl__2};
Point(12) = {13.41804, 1.924732, 0, cl__3};
Line(1) = {2, 1};
Line(2) = {1, 3};
Line(3) = {4, 3};
Line(4) = {2, 4};
Line(5) = {2, 5};
Line(6) = {5, 6};
Line(7) = {1, 6};
Line(8) = {3, 7};
Line(9) = {6, 7};
p10 = newp;
Point(p10 + 1) = {20.74348859503763, -0.06016339410489267, 1};
Point(p10 + 2) = {20.72403735275711, 0.02085686089413646, 1};
Point(p10 + 3) = {20.69215122729835, 0.09783677742820118, 1};
Point(p10 + 4) = {20.64861536089414, 0.1688808544705372, 1};
Point(p10 + 5) = {20.59450175106259, 0.2322397510625884, 1};
Point(p10 + 6) = {20.53114285447054, 0.2863533608941365, 1};
Point(p10 + 7) = {20.4600987774282, 0.329889227298354, 1};
Point(p10 + 8) = {20.38311886089414, 0.3617753527571125, 1};
Point(p10 + 9) = {20.30209860589511, 0.3812265950376341, 1};
Point(p10 + 10) = {20.219033, 0.3877640000000001, 1};
Point(p10 + 11) = {20.13596739410489, 0.381226595037634, 1};
Point(p10 + 12) = {20.05494713910586, 0.3617753527571125, 1};
Point(p10 + 13) = {19.9779672225718, 0.3298892272983541, 1};
Point(p10 + 14) = {19.90692314552946, 0.2863533608941365, 1};
Point(p10 + 15) = {19.84356424893741, 0.2322397510625885, 1};
Point(p10 + 16) = {19.78945063910586, 0.1688808544705373, 1};
Point(p10 + 17) = {19.74591477270165, 0.09783677742820124, 1};
Point(p10 + 18) = {19.71402864724289, 0.02085686089413652, 1};
Point(p10 + 19) = {19.69457740496237, -0.06016339410489262, 1};
Point(p10 + 20) = {19.68804, -0.1432289999999999, 1};
Point(p10 + 21) = {19.69457740496237, -0.2262946058951072, 1};
Point(p10 + 22) = {19.71402864724289, -0.3073148608941366, 1};
Point(p10 + 23) = {19.74591477270165, -0.3842947774282009, 1};
Point(p10 + 24) = {19.78945063910586, -0.4553388544705372, 1};
Point(p10 + 25) = {19.84356424893741, -0.5186977510625884, 1};
Point(p10 + 26) = {19.90692314552946, -0.5728113608941364, 1};
Point(p10 + 27) = {19.9779672225718, -0.616347227298354, 1};
Point(p10 + 28) = {20.05494713910586, -0.6482333527571125, 1};
Point(p10 + 29) = {20.13596739410489, -0.667684595037634, 1};
Point(p10 + 30) = {20.219033, -0.6742220000000001, 1};
Point(p10 + 31) = {20.30209860589511, -0.667684595037634, 1};
Point(p10 + 32) = {20.38311886089414, -0.6482333527571125, 1};
Point(p10 + 33) = {20.4600987774282, -0.6163472272983541, 1};
Point(p10 + 34) = {20.53114285447054, -0.5728113608941365, 1};
Point(p10 + 35) = {20.59450175106259, -0.5186977510625885, 1};
Point(p10 + 36) = {20.64861536089414, -0.4553388544705373, 1};
Point(p10 + 37) = {20.69215122729835, -0.3842947774282013, 1};
Point(p10 + 38) = {20.72403735275711, -0.3073148608941366, 1};
Point(p10 + 39) = {20.74348859503763, -0.2262946058951074, 1};
Spline(10) = {8, p10 + 1, p10 + 2, p10 + 3, p10 + 4, p10 + 5, p10 + 6, p10 + 7, p10 + 8, p10 + 9, p10 + 10, p10 + 11, p10 + 12, p10 + 13, p10 + 14, p10 + 15, p10 + 16, p10 + 17, p10 + 18, p10 + 19, p10 + 20, p10 + 21, p10 + 22, p10 + 23, p10 + 24, p10 + 25, p10 + 26, p10 + 27, p10 + 28, p10 + 29, p10 + 30, p10 + 31, p10 + 32, p10 + 33, p10 + 34, p10 + 35, p10 + 36, p10 + 37, p10 + 38, p10 + 39, 8};
p11 = newp;
Point(p11 + 1) = {13.40514912626678, 2.088526080882514, 1};
Point(p11 + 2) = {13.36679392116078, 2.248287007892311, 1};
Point(p11 + 3) = {13.30391881712533, 2.400080936790293, 1};
Point(p11 + 4) = {13.21807200789231, 2.540170197271825, 1};
Point(p11 + 5) = {13.11136732681425, 2.66510532681425, 1};
Point(p11 + 6) = {12.98643219727182, 2.771810007892311, 1};
Point(p11 + 7) = {12.84634293679029, 2.857656817125334, 1};
Point(p11 + 8) = {12.69454900789231, 2.920531921160775, 1};
Point(p11 + 9) = {12.53478808088251, 2.958887126266776, 1};
Point(p11 + 10) = {12.370994, 2.971778, 1};
Point(p11 + 11) = {12.20719991911749, 2.958887126266776, 1};
Point(p11 + 12) = {12.04743899210769, 2.920531921160776, 1};
Point(p11 + 13) = {11.89564506320971, 2.857656817125334, 1};
Point(p11 + 14) = {11.75555580272817, 2.771810007892311, 1};
Point(p11 + 15) = {11.63062067318575, 2.66510532681425, 1};
Point(p11 + 16) = {11.52391599210769, 2.540170197271825, 1};
Point(p11 + 17) = {11.43806918287467, 2.400080936790294, 1};
Point(p11 + 18) = {11.37519407883922, 2.248287007892311, 1};
Point(p11 + 19) = {11.33683887373322, 2.088526080882514, 1};
Point(p11 + 20) = {11.323948, 1.924732, 1};
Point(p11 + 21) = {11.33683887373322, 1.760937919117487, 1};
Point(p11 + 22) = {11.37519407883922, 1.601176992107689, 1};
Point(p11 + 23) = {11.43806918287467, 1.449383063209707, 1};
Point(p11 + 24) = {11.52391599210769, 1.309293802728175, 1};
Point(p11 + 25) = {11.63062067318575, 1.18435867318575, 1};
Point(p11 + 26) = {11.75555580272817, 1.077653992107689, 1};
Point(p11 + 27) = {11.89564506320971, 0.9918071828746664, 1};
Point(p11 + 28) = {12.04743899210769, 0.9289320788392249, 1};
Point(p11 + 29) = {12.20719991911749, 0.8905768737332236, 1};
Point(p11 + 30) = {12.370994, 0.8776860000000002, 1};
Point(p11 + 31) = {12.53478808088251, 0.8905768737332236, 1};
Point(p11 + 32) = {12.69454900789231, 0.9289320788392248, 1};
Point(p11 + 33) = {12.84634293679029, 0.9918071828746663, 1};
Point(p11 + 34) = {12.98643219727182, 1.077653992107689, 1};
Point(p11 + 35) = {13.11136732681425, 1.18435867318575, 1};
Point(p11 + 36) = {13.21807200789231, 1.309293802728175, 1};
Point(p11 + 37) = {13.30391881712533, 1.449383063209706, 1};
Point(p11 + 38) = {13.36679392116078, 1.601176992107689, 1};
Point(p11 + 39) = {13.40514912626678, 1.760937919117486, 1};
Spline(11) = {9, p11 + 1, p11 + 2, p11 + 3, p11 + 4, p11 + 5, p11 + 6, p11 + 7, p11 + 8, p11 + 9, p11 + 10, p11 + 11, p11 + 12, p11 + 13, p11 + 14, p11 + 15, p11 + 16, p11 + 17, p11 + 18, p11 + 19, p11 + 20, p11 + 21, p11 + 22, p11 + 23, p11 + 24, p11 + 25, p11 + 26, p11 + 27, p11 + 28, p11 + 29, p11 + 30, p11 + 31, p11 + 32, p11 + 33, p11 + 34, p11 + 35, p11 + 36, p11 + 37, p11 + 38, p11 + 39, 9};
Line(12) = {4, 10};
Line(13) = {10, 7};
Line(14) = {5, 10};
p15 = newp;
Point(p15 + 1) = {20.74348859503763, -0.06016339410489267, 0};
Point(p15 + 2) = {20.72403735275711, 0.02085686089413646, 0};
Point(p15 + 3) = {20.69215122729835, 0.09783677742820118, 0};
Point(p15 + 4) = {20.64861536089414, 0.1688808544705372, 0};
Point(p15 + 5) = {20.59450175106259, 0.2322397510625884, 0};
Point(p15 + 6) = {20.53114285447054, 0.2863533608941365, 0};
Point(p15 + 7) = {20.4600987774282, 0.329889227298354, 0};
Point(p15 + 8) = {20.38311886089414, 0.3617753527571125, 0};
Point(p15 + 9) = {20.30209860589511, 0.3812265950376341, 0};
Point(p15 + 10) = {20.219033, 0.3877640000000001, 0};
Point(p15 + 11) = {20.13596739410489, 0.381226595037634, 0};
Point(p15 + 12) = {20.05494713910586, 0.3617753527571125, 0};
Point(p15 + 13) = {19.9779672225718, 0.3298892272983541, 0};
Point(p15 + 14) = {19.90692314552946, 0.2863533608941365, 0};
Point(p15 + 15) = {19.84356424893741, 0.2322397510625885, 0};
Point(p15 + 16) = {19.78945063910586, 0.1688808544705373, 0};
Point(p15 + 17) = {19.74591477270165, 0.09783677742820124, 0};
Point(p15 + 18) = {19.71402864724289, 0.02085686089413652, 0};
Point(p15 + 19) = {19.69457740496237, -0.06016339410489262, 0};
Point(p15 + 20) = {19.68804, -0.1432289999999999, 0};
Point(p15 + 21) = {19.69457740496237, -0.2262946058951072, 0};
Point(p15 + 22) = {19.71402864724289, -0.3073148608941366, 0};
Point(p15 + 23) = {19.74591477270165, -0.3842947774282009, 0};
Point(p15 + 24) = {19.78945063910586, -0.4553388544705372, 0};
Point(p15 + 25) = {19.84356424893741, -0.5186977510625884, 0};
Point(p15 + 26) = {19.90692314552946, -0.5728113608941364, 0};
Point(p15 + 27) = {19.9779672225718, -0.616347227298354, 0};
Point(p15 + 28) = {20.05494713910586, -0.6482333527571125, 0};
Point(p15 + 29) = {20.13596739410489, -0.667684595037634, 0};
Point(p15 + 30) = {20.219033, -0.6742220000000001, 0};
Point(p15 + 31) = {20.30209860589511, -0.667684595037634, 0};
Point(p15 + 32) = {20.38311886089414, -0.6482333527571125, 0};
Point(p15 + 33) = {20.4600987774282, -0.6163472272983541, 0};
Point(p15 + 34) = {20.53114285447054, -0.5728113608941365, 0};
Point(p15 + 35) = {20.59450175106259, -0.5186977510625885, 0};
Point(p15 + 36) = {20.64861536089414, -0.4553388544705373, 0};
Point(p15 + 37) = {20.69215122729835, -0.3842947774282013, 0};
Point(p15 + 38) = {20.72403735275711, -0.3073148608941366, 0};
Point(p15 + 39) = {20.74348859503763, -0.2262946058951074, 0};
Spline(15) = {11, p15 + 1, p15 + 2, p15 + 3, p15 + 4, p15 + 5, p15 + 6, p15 + 7, p15 + 8, p15 + 9, p15 + 10, p15 + 11, p15 + 12, p15 + 13, p15 + 14, p15 + 15, p15 + 16, p15 + 17, p15 + 18, p15 + 19, p15 + 20, p15 + 21, p15 + 22, p15 + 23, p15 + 24, p15 + 25, p15 + 26, p15 + 27, p15 + 28, p15 + 29, p15 + 30, p15 + 31, p15 + 32, p15 + 33, p15 + 34, p15 + 35, p15 + 36, p15 + 37, p15 + 38, p15 + 39, 11};
p16 = newp;
Point(p16 + 1) = {13.40514912626678, 2.088526080882514, 0};
Point(p16 + 2) = {13.36679392116078, 2.248287007892311, 0};
Point(p16 + 3) = {13.30391881712533, 2.400080936790293, 0};
Point(p16 + 4) = {13.21807200789231, 2.540170197271825, 0};
Point(p16 + 5) = {13.11136732681425, 2.66510532681425, 0};
Point(p16 + 6) = {12.98643219727182, 2.771810007892311, 0};
Point(p16 + 7) = {12.84634293679029, 2.857656817125334, 0};
Point(p16 + 8) = {12.69454900789231, 2.920531921160775, 0};
Point(p16 + 9) = {12.53478808088251, 2.958887126266776, 0};
Point(p16 + 10) = {12.370994, 2.971778, 0};
Point(p16 + 11) = {12.20719991911749, 2.958887126266776, 0};
Point(p16 + 12) = {12.04743899210769, 2.920531921160776, 0};
Point(p16 + 13) = {11.89564506320971, 2.857656817125334, 0};
Point(p16 + 14) = {11.75555580272817, 2.771810007892311, 0};
Point(p16 + 15) = {11.63062067318575, 2.66510532681425, 0};
Point(p16 + 16) = {11.52391599210769, 2.540170197271825, 0};
Point(p16 + 17) = {11.43806918287467, 2.400080936790294, 0};
Point(p16 + 18) = {11.37519407883922, 2.248287007892311, 0};
Point(p16 + 19) = {11.33683887373322, 2.088526080882514, 0};
Point(p16 + 20) = {11.323948, 1.924732, 0};
Point(p16 + 21) = {11.33683887373322, 1.760937919117487, 0};
Point(p16 + 22) = {11.37519407883922, 1.601176992107689, 0};
Point(p16 + 23) = {11.43806918287467, 1.449383063209707, 0};
Point(p16 + 24) = {11.52391599210769, 1.309293802728175, 0};
Point(p16 + 25) = {11.63062067318575, 1.18435867318575, 0};
Point(p16 + 26) = {11.75555580272817, 1.077653992107689, 0};
Point(p16 + 27) = {11.89564506320971, 0.9918071828746664, 0};
Point(p16 + 28) = {12.04743899210769, 0.9289320788392249, 0};
Point(p16 + 29) = {12.20719991911749, 0.8905768737332236, 0};
Point(p16 + 30) = {12.370994, 0.8776860000000002, 0};
Point(p16 + 31) = {12.53478808088251, 0.8905768737332236, 0};
Point(p16 + 32) = {12.69454900789231, 0.9289320788392248, 0};
Point(p16 + 33) = {12.84634293679029, 0.9918071828746663, 0};
Point(p16 + 34) = {12.98643219727182, 1.077653992107689, 0};
Point(p16 + 35) = {13.11136732681425, 1.18435867318575, 0};
Point(p16 + 36) = {13.21807200789231, 1.309293802728175, 0};
Point(p16 + 37) = {13.30391881712533, 1.449383063209706, 0};
Point(p16 + 38) = {13.36679392116078, 1.601176992107689, 0};
Point(p16 + 39) = {13.40514912626678, 1.760937919117486, 0};
Spline(16) = {12, p16 + 1, p16 + 2, p16 + 3, p16 + 4, p16 + 5, p16 + 6, p16 + 7, p16 + 8, p16 + 9, p16 + 10, p16 + 11, p16 + 12, p16 + 13, p16 + 14, p16 + 15, p16 + 16, p16 + 17, p16 + 18, p16 + 19, p16 + 20, p16 + 21, p16 + 22, p16 + 23, p16 + 24, p16 + 25, p16 + 26, p16 + 27, p16 + 28, p16 + 29, p16 + 30, p16 + 31, p16 + 32, p16 + 33, p16 + 34, p16 + 35, p16 + 36, p16 + 37, p16 + 38, p16 + 39, 12};
Line(17) = {11, 8};
Line(18) = {12, 9};
Curve Loop(1) = {-1, 4, 3, -2};
Plane Surface(1) = {1};
Curve Loop(2) = {-5, 1, 7, -6};
Plane Surface(2) = {2};
Curve Loop(3) = {-2, 7, 9, -8, -10, -11};
Plane Surface(3) = {3};
Curve Loop(4) = {-12, 3, 8, -13};
Plane Surface(4) = {4};
Curve Loop(5) = {-4, 5, 14, -12, -15, -16};
Plane Surface(5) = {5};
Curve Loop(6) = {-6, 14, 13, -9};
Plane Surface(6) = {6};
Curve Loop(7) = {-10, -17, 15, 17};
Surface(7) = {7};
Curve Loop(8) = {-11, -18, 16, 18};
Surface(8) = {8};
Surface Loop(1) = {1, 2, 3, 4, 5, 6, 7, 8};
Volume(1) = {1};
Physical Surface("INFLOW") = {1};
Physical Surface("OUTFLOW") = {6};
Physical Surface("OBSTACLE") = {7, 8};
Physical Surface("WALL_Y") = {2, 4};
Physical Surface("WALL_Z") = {3, 5};
Physical Volume("FLUID") = {1};
