cl__1 = 1;
cl__2 = 0.062223;
cl__3 = 0.108647;
Point(1) = {0.426764, -3.275691, 1, cl__1};
Point(2) = {0.426764, -3.275691, 0, cl__1};
Point(3) = {0.426764, 4.605906, 1, cl__1};
Point(4) = {0.426764, 4.605906, 0, cl__1};
Point(5) = {33.74301, -3.275691, 0, cl__1};
Point(6) = {33.74301, -3.275691, 1, cl__1};
Point(7) = {33.74301, 4.605906, 1, cl__1};
Point(8) = {19.571847, -1.342662, 1, cl__2};
Point(9) = {28.478004, 0.4442909999999997, 1, cl__3};
Point(10) = {33.74301, 4.605906, 0, cl__1};
Point(11) = {19.571847, -1.342662, 0, cl__2};
Point(12) = {28.478004, 0.4442909999999997, 0, cl__3};
Line(1) = {2, 1};
Line(2) = {1, 3};
Line(3) = {4, 3};
Line(4) = {2, 4};
Line(5) = {2, 5};
Line(6) = {5, 6};
Line(7) = {1, 6};
Line(8) = {3, 7};
Line(9) = {6, 7};
p10 = newp;
Point(p10 + 1) = {19.56418630385685, -1.245323626383552, 1};
Point(p10 + 2) = {19.54139284719085, -1.150382046573082, 1};
Point(p10 + 3) = {19.50402788055225, -1.060175037356562, 1};
Point(p10 + 4) = {19.45301145342692, -0.9769237946808023, 1};
Point(p10 + 5) = {19.38959975956449, -0.9026782404355134, 1};
Point(p10 + 6) = {19.3153542053192, -0.8392665465730821, 1};
Point(p10 + 7) = {19.23210296264344, -0.7882501194477478, 1};
Point(p10 + 8) = {19.14189595342692, -0.7508851528091504, 1};
Point(p10 + 9) = {19.04695437361645, -0.7280916961431468, 1};
Point(p10 + 10) = {18.949616, -0.720431, 1};
Point(p10 + 11) = {18.85227762638355, -0.7280916961431469, 1};
Point(p10 + 12) = {18.75733604657308, -0.7508851528091502, 1};
Point(p10 + 13) = {18.66712903735656, -0.7882501194477477, 1};
Point(p10 + 14) = {18.5838777946808, -0.8392665465730821, 1};
Point(p10 + 15) = {18.50963224043551, -0.9026782404355134, 1};
Point(p10 + 16) = {18.44622054657308, -0.976923794680802, 1};
Point(p10 + 17) = {18.39520411944775, -1.060175037356562, 1};
Point(p10 + 18) = {18.35783915280915, -1.150382046573082, 1};
Point(p10 + 19) = {18.33504569614315, -1.245323626383552, 1};
Point(p10 + 20) = {18.327385, -1.342662, 1};
Point(p10 + 21) = {18.33504569614314, -1.440000373616448, 1};
Point(p10 + 22) = {18.35783915280915, -1.534941953426918, 1};
Point(p10 + 23) = {18.39520411944775, -1.625148962643438, 1};
Point(p10 + 24) = {18.44622054657308, -1.708400205319198, 1};
Point(p10 + 25) = {18.50963224043551, -1.782645759564487, 1};
Point(p10 + 26) = {18.5838777946808, -1.846057453426918, 1};
Point(p10 + 27) = {18.66712903735656, -1.897073880552252, 1};
Point(p10 + 28) = {18.75733604657308, -1.93443884719085, 1};
Point(p10 + 29) = {18.85227762638355, -1.957232303856853, 1};
Point(p10 + 30) = {18.949616, -1.964893, 1};
Point(p10 + 31) = {19.04695437361645, -1.957232303856853, 1};
Point(p10 + 32) = {19.14189595342692, -1.93443884719085, 1};
Point(p10 + 33) = {19.23210296264344, -1.897073880552252, 1};
Point(p10 + 34) = {19.3153542053192, -1.846057453426918, 1};
Point(p10 + 35) = {19.38959975956449, -1.782645759564487, 1};
Point(p10 + 36) = {19.45301145342692, -1.708400205319198, 1};
Point(p10 + 37) = {19.50402788055225, -1.625148962643438, 1};
Point(p10 + 38) = {19.54139284719085, -1.534941953426918, 1};
Point(p10 + 39) = {19.56418630385685, -1.440000373616448, 1};
Spline(10) = {8, p10 + 1, p10 + 2, p10 + 3, p10 + 4, p10 + 5, p10 + 6, p10 + 7, p10 + 8, p10 + 9, p10 + 10, p10 + 11, p10 + 12, p10 + 13, p10 + 14, p10 + 15, p10 + 16, p10 + 17, p10 + 18, p10 + 19, p10 + 20, p10 + 21, p10 + 22, p10 + 23, p10 + 24, p10 + 25, p10 + 26, p10 + 27, p10 + 28, p10 + 29, p10 + 30, p10 + 31, p10 + 32, p10 + 33, p10 + 34, p10 + 35, p10 + 36, p10 + 37, p10 + 38, p10 + 39, 8};
p11 = newp;
Point(p11 + 1) = {28.4646278129647, 0.6142515710599344, 1};
Point(p11 + 2) = {28.42482861797662, 0.7800271487935773, 1};
Point(p11 + 3) = {28.35958640330232, 0.9375357882995267, 1};
Point(p11 + 4) = {28.27050764879358, 1.082899104131942, 1};
Point(p11 + 5) = {28.15978576902184, 1.212537769021842, 1};
Point(p11 + 6) = {28.03014710413194, 1.323259648793577, 1};
Point(p11 + 7) = {27.88478378829953, 1.412338403302315, 1};
Point(p11 + 8) = {27.72727514879358, 1.477580617976614, 1};
Point(p11 + 9) = {27.56149957105994, 1.517379812964696, 1};
Point(p11 + 10) = {27.391539, 1.530756, 1};
Point(p11 + 11) = {27.22157842894007, 1.517379812964696, 1};
Point(p11 + 12) = {27.05580285120643, 1.477580617976614, 1};
Point(p11 + 13) = {26.89829421170047, 1.412338403302315, 1};
Point(p11 + 14) = {26.75293089586806, 1.323259648793577, 1};
Point(p11 + 15) = {26.62329223097816, 1.212537769021842, 1};
Point(p11 + 16) = {26.51257035120642, 1.082899104131942, 1};
Point(p11 + 17) = {26.42349159669769, 0.9375357882995268, 1};
Point(p11 + 18) = {26.35824938202339, 0.7800271487935773, 1};
Point(p11 + 19) = {26.31845018703531, 0.6142515710599346, 1};
Point(p11 + 20) = {26.305074, 0.4442910000000001, 1};
Point(p11 + 21) = {26.31845018703531, 0.2743304289400657, 1};
Point(p11 + 22) = {26.35824938202339, 0.1085548512064224, 1};
Point(p11 + 23) = {26.42349159669769, -0.04895378829952612, 1};
Point(p11 + 24) = {26.51257035120642, -0.1943171041319417, 1};
Point(p11 + 25) = {26.62329223097816, -0.3239557690218423, 1};
Point(p11 + 26) = {26.75293089586806, -0.4346776487935772, 1};
Point(p11 + 27) = {26.89829421170047, -0.523756403302315, 1};
Point(p11 + 28) = {27.05580285120642, -0.588998617976614, 1};
Point(p11 + 29) = {27.22157842894007, -0.6287978129646963, 1};
Point(p11 + 30) = {27.391539, -0.642174, 1};
Point(p11 + 31) = {27.56149957105994, -0.6287978129646963, 1};
Point(p11 + 32) = {27.72727514879358, -0.588998617976614, 1};
Point(p11 + 33) = {27.88478378829953, -0.5237564033023151, 1};
Point(p11 + 34) = {28.03014710413194, -0.4346776487935774, 1};
Point(p11 + 35) = {28.15978576902184, -0.3239557690218425, 1};
Point(p11 + 36) = {28.27050764879358, -0.194317104131942, 1};
Point(p11 + 37) = {28.35958640330232, -0.0489537882995269, 1};
Point(p11 + 38) = {28.42482861797662, 0.1085548512064225, 1};
Point(p11 + 39) = {28.4646278129647, 0.2743304289400653, 1};
Spline(11) = {9, p11 + 1, p11 + 2, p11 + 3, p11 + 4, p11 + 5, p11 + 6, p11 + 7, p11 + 8, p11 + 9, p11 + 10, p11 + 11, p11 + 12, p11 + 13, p11 + 14, p11 + 15, p11 + 16, p11 + 17, p11 + 18, p11 + 19, p11 + 20, p11 + 21, p11 + 22, p11 + 23, p11 + 24, p11 + 25, p11 + 26, p11 + 27, p11 + 28, p11 + 29, p11 + 30, p11 + 31, p11 + 32, p11 + 33, p11 + 34, p11 + 35, p11 + 36, p11 + 37, p11 + 38, p11 + 39, 9};
Line(12) = {4, 10};
Line(13) = {10, 7};
Line(14) = {5, 10};
p15 = newp;
Point(p15 + 1) = {19.56418630385685, -1.245323626383552, 0};
Point(p15 + 2) = {19.54139284719085, -1.150382046573082, 0};
Point(p15 + 3) = {19.50402788055225, -1.060175037356562, 0};
Point(p15 + 4) = {19.45301145342692, -0.9769237946808023, 0};
Point(p15 + 5) = {19.38959975956449, -0.9026782404355134, 0};
Point(p15 + 6) = {19.3153542053192, -0.8392665465730821, 0};
Point(p15 + 7) = {19.23210296264344, -0.7882501194477478, 0};
Point(p15 + 8) = {19.14189595342692, -0.7508851528091504, 0};
Point(p15 + 9) = {19.04695437361645, -0.7280916961431468, 0};
Point(p15 + 10) = {18.949616, -0.720431, 0};
Point(p15 + 11) = {18.85227762638355, -0.7280916961431469, 0};
Point(p15 + 12) = {18.75733604657308, -0.7508851528091502, 0};
Point(p15 + 13) = {18.66712903735656, -0.7882501194477477, 0};
Point(p15 + 14) = {18.5838777946808, -0.8392665465730821, 0};
Point(p15 + 15) = {18.50963224043551, -0.9026782404355134, 0};
Point(p15 + 16) = {18.44622054657308, -0.976923794680802, 0};
Point(p15 + 17) = {18.39520411944775, -1.060175037356562, 0};
Point(p15 + 18) = {18.35783915280915, -1.150382046573082, 0};
Point(p15 + 19) = {18.33504569614315, -1.245323626383552, 0};
Point(p15 + 20) = {18.327385, -1.342662, 0};
Point(p15 + 21) = {18.33504569614314, -1.440000373616448, 0};
Point(p15 + 22) = {18.35783915280915, -1.534941953426918, 0};
Point(p15 + 23) = {18.39520411944775, -1.625148962643438, 0};
Point(p15 + 24) = {18.44622054657308, -1.708400205319198, 0};
Point(p15 + 25) = {18.50963224043551, -1.782645759564487, 0};
Point(p15 + 26) = {18.5838777946808, -1.846057453426918, 0};
Point(p15 + 27) = {18.66712903735656, -1.897073880552252, 0};
Point(p15 + 28) = {18.75733604657308, -1.93443884719085, 0};
Point(p15 + 29) = {18.85227762638355, -1.957232303856853, 0};
Point(p15 + 30) = {18.949616, -1.964893, 0};
Point(p15 + 31) = {19.04695437361645, -1.957232303856853, 0};
Point(p15 + 32) = {19.14189595342692, -1.93443884719085, 0};
Point(p15 + 33) = {19.23210296264344, -1.897073880552252, 0};
Point(p15 + 34) = {19.3153542053192, -1.846057453426918, 0};
Point(p15 + 35) = {19.38959975956449, -1.782645759564487, 0};
Point(p15 + 36) = {19.45301145342692, -1.708400205319198, 0};
Point(p15 + 37) = {19.50402788055225, -1.625148962643438, 0};
Point(p15 + 38) = {19.54139284719085, -1.534941953426918, 0};
Point(p15 + 39) = {19.56418630385685, -1.440000373616448, 0};
Spline(15) = {11, p15 + 1, p15 + 2, p15 + 3, p15 + 4, p15 + 5, p15 + 6, p15 + 7, p15 + 8, p15 + 9, p15 + 10, p15 + 11, p15 + 12, p15 + 13, p15 + 14, p15 + 15, p15 + 16, p15 + 17, p15 + 18, p15 + 19, p15 + 20, p15 + 21, p15 + 22, p15 + 23, p15 + 24, p15 + 25, p15 + 26, p15 + 27, p15 + 28, p15 + 29, p15 + 30, p15 + 31, p15 + 32, p15 + 33, p15 + 34, p15 + 35, p15 + 36, p15 + 37, p15 + 38, p15 + 39, 11};
p16 = newp;
Point(p16 + 1) = {28.4646278129647, 0.6142515710599344, 0};
Point(p16 + 2) = {28.42482861797662, 0.7800271487935773, 0};
Point(p16 + 3) = {28.35958640330232, 0.9375357882995267, 0};
Point(p16 + 4) = {28.27050764879358, 1.082899104131942, 0};
Point(p16 + 5) = {28.15978576902184, 1.212537769021842, 0};
Point(p16 + 6) = {28.03014710413194, 1.323259648793577, 0};
Point(p16 + 7) = {27.88478378829953, 1.412338403302315, 0};
Point(p16 + 8) = {27.72727514879358, 1.477580617976614, 0};
Point(p16 + 9) = {27.56149957105994, 1.517379812964696, 0};
Point(p16 + 10) = {27.391539, 1.530756, 0};
Point(p16 + 11) = {27.22157842894007, 1.517379812964696, 0};
Point(p16 + 12) = {27.05580285120643, 1.477580617976614, 0};
Point(p16 + 13) = {26.89829421170047, 1.412338403302315, 0};
Point(p16 + 14) = {26.75293089586806, 1.323259648793577, 0};
Point(p16 + 15) = {26.62329223097816, 1.212537769021842, 0};
Point(p16 + 16) = {26.51257035120642, 1.082899104131942, 0};
Point(p16 + 17) = {26.42349159669769, 0.9375357882995268, 0};
Point(p16 + 18) = {26.35824938202339, 0.7800271487935773, 0};
Point(p16 + 19) = {26.31845018703531, 0.6142515710599346, 0};
Point(p16 + 20) = {26.305074, 0.4442910000000001, 0};
Point(p16 + 21) = {26.31845018703531, 0.2743304289400657, 0};
Point(p16 + 22) = {26.35824938202339, 0.1085548512064224, 0};
Point(p16 + 23) = {26.42349159669769, -0.04895378829952612, 0};
Point(p16 + 24) = {26.51257035120642, -0.1943171041319417, 0};
Point(p16 + 25) = {26.62329223097816, -0.3239557690218423, 0};
Point(p16 + 26) = {26.75293089586806, -0.4346776487935772, 0};
Point(p16 + 27) = {26.89829421170047, -0.523756403302315, 0};
Point(p16 + 28) = {27.05580285120642, -0.588998617976614, 0};
Point(p16 + 29) = {27.22157842894007, -0.6287978129646963, 0};
Point(p16 + 30) = {27.391539, -0.642174, 0};
Point(p16 + 31) = {27.56149957105994, -0.6287978129646963, 0};
Point(p16 + 32) = {27.72727514879358, -0.588998617976614, 0};
Point(p16 + 33) = {27.88478378829953, -0.5237564033023151, 0};
Point(p16 + 34) = {28.03014710413194, -0.4346776487935774, 0};
Point(p16 + 35) = {28.15978576902184, -0.3239557690218425, 0};
Point(p16 + 36) = {28.27050764879358, -0.194317104131942, 0};
Point(p16 + 37) = {28.35958640330232, -0.0489537882995269, 0};
Point(p16 + 38) = {28.42482861797662, 0.1085548512064225, 0};
Point(p16 + 39) = {28.4646278129647, 0.2743304289400653, 0};
Spline(16) = {12, p16 + 1, p16 + 2, p16 + 3, p16 + 4, p16 + 5, p16 + 6, p16 + 7, p16 + 8, p16 + 9, p16 + 10, p16 + 11, p16 + 12, p16 + 13, p16 + 14, p16 + 15, p16 + 16, p16 + 17, p16 + 18, p16 + 19, p16 + 20, p16 + 21, p16 + 22, p16 + 23, p16 + 24, p16 + 25, p16 + 26, p16 + 27, p16 + 28, p16 + 29, p16 + 30, p16 + 31, p16 + 32, p16 + 33, p16 + 34, p16 + 35, p16 + 36, p16 + 37, p16 + 38, p16 + 39, 12};
Line(17) = {11, 8};
Line(18) = {12, 9};
Curve Loop(1) = {-1, 4, 3, -2};
Plane Surface(1) = {1};
Curve Loop(2) = {-5, 1, 7, -6};
Plane Surface(2) = {2};
Curve Loop(3) = {-2, 7, 9, -8, -10, -11};
Plane Surface(3) = {3};
Curve Loop(4) = {-12, 3, 8, -13};
Plane Surface(4) = {4};
Curve Loop(5) = {-4, 5, 14, -12, -15, -16};
Plane Surface(5) = {5};
Curve Loop(6) = {-6, 14, 13, -9};
Plane Surface(6) = {6};
Curve Loop(7) = {-10, -17, 15, 17};
Surface(7) = {7};
Curve Loop(8) = {-11, -18, 16, 18};
Surface(8) = {8};
Surface Loop(1) = {1, 2, 3, 4, 5, 6, 7, 8};
Volume(1) = {1};
Physical Surface("INFLOW") = {1};
Physical Surface("OUTFLOW") = {6};
Physical Surface("OBSTACLE") = {7, 8};
Physical Surface("WALL_Y") = {2, 4};
Physical Surface("WALL_Z") = {3, 5};
Physical Volume("FLUID") = {1};
