cl__1 = 1.467198;
cl__2 = 1.277565;
cl__3 = 3.138319;
cl__4 = 1.515673;
cl__5 = 0.141433;
Point(1) = {0.512817, -4.479371, 1, cl__1};
Point(2) = {0.512817, -4.479371, 0, cl__1};
Point(3) = {0.512817, 5.473924999999999, 1, cl__2};
Point(4) = {0.512817, 5.473924999999999, 0, cl__2};
Point(5) = {30.986083, -4.479371, 0, cl__3};
Point(6) = {30.986083, -4.479371, 1, cl__3};
Point(7) = {30.986083, 5.473924999999999, 1, cl__4};
Point(8) = {15.961999, 3.381444999999999, 1, cl__5};
Point(9) = {30.986083, 5.473924999999999, 0, cl__4};
Point(10) = {15.961999, 3.381444999999999, 0, cl__5};
Line(1) = {2, 1};
Line(2) = {1, 3};
Line(3) = {4, 3};
Line(4) = {2, 4};
Line(5) = {2, 5};
Line(6) = {5, 6};
Line(7) = {1, 6};
Line(8) = {3, 7};
Line(9) = {6, 7};
p10 = newp;
Point(p10 + 1) = {15.94458625075392, 3.60269495694035, 1};
Point(p10 + 2) = {15.89277676269172, 3.818497005654319, 1};
Point(p10 + 3) = {15.80784625735533, 4.023537383496633, 1};
Point(p10 + 4) = {15.69188600565432, 4.212767315874814, 1};
Point(p10 + 5) = {15.54775133383557, 4.381527333835569, 1};
Point(p10 + 6) = {15.37899131587481, 4.525662005654319, 1};
Point(p10 + 7) = {15.18976138349663, 4.641622257355334, 1};
Point(p10 + 8) = {14.98472100565432, 4.726552762691725, 1};
Point(p10 + 9) = {14.76891895694035, 4.778362250753921, 1};
Point(p10 + 10) = {14.547669, 4.795775, 1};
Point(p10 + 11) = {14.32641904305965, 4.778362250753921, 1};
Point(p10 + 12) = {14.11061699434568, 4.726552762691725, 1};
Point(p10 + 13) = {13.90557661650337, 4.641622257355334, 1};
Point(p10 + 14) = {13.71634668412519, 4.525662005654319, 1};
Point(p10 + 15) = {13.54758666616443, 4.38152733383557, 1};
Point(p10 + 16) = {13.40345199434568, 4.212767315874814, 1};
Point(p10 + 17) = {13.28749174264467, 4.023537383496633, 1};
Point(p10 + 18) = {13.20256123730828, 3.818497005654319, 1};
Point(p10 + 19) = {13.15075174924608, 3.60269495694035, 1};
Point(p10 + 20) = {13.133339, 3.381445, 1};
Point(p10 + 21) = {13.15075174924608, 3.16019504305965, 1};
Point(p10 + 22) = {13.20256123730828, 2.94439299434568, 1};
Point(p10 + 23) = {13.28749174264467, 2.739352616503367, 1};
Point(p10 + 24) = {13.40345199434568, 2.550122684125186, 1};
Point(p10 + 25) = {13.54758666616443, 2.38136266616443, 1};
Point(p10 + 26) = {13.71634668412519, 2.23722799434568, 1};
Point(p10 + 27) = {13.90557661650337, 2.121267742644665, 1};
Point(p10 + 28) = {14.11061699434568, 2.036337237308275, 1};
Point(p10 + 29) = {14.32641904305965, 1.984527749246079, 1};
Point(p10 + 30) = {14.547669, 1.967115, 1};
Point(p10 + 31) = {14.76891895694035, 1.984527749246078, 1};
Point(p10 + 32) = {14.98472100565432, 2.036337237308275, 1};
Point(p10 + 33) = {15.18976138349663, 2.121267742644665, 1};
Point(p10 + 34) = {15.37899131587481, 2.23722799434568, 1};
Point(p10 + 35) = {15.54775133383557, 2.38136266616443, 1};
Point(p10 + 36) = {15.69188600565432, 2.550122684125186, 1};
Point(p10 + 37) = {15.80784625735533, 2.739352616503366, 1};
Point(p10 + 38) = {15.89277676269172, 2.94439299434568, 1};
Point(p10 + 39) = {15.94458625075392, 3.16019504305965, 1};
Spline(10) = {8, p10 + 1, p10 + 2, p10 + 3, p10 + 4, p10 + 5, p10 + 6, p10 + 7, p10 + 8, p10 + 9, p10 + 10, p10 + 11, p10 + 12, p10 + 13, p10 + 14, p10 + 15, p10 + 16, p10 + 17, p10 + 18, p10 + 19, p10 + 20, p10 + 21, p10 + 22, p10 + 23, p10 + 24, p10 + 25, p10 + 26, p10 + 27, p10 + 28, p10 + 29, p10 + 30, p10 + 31, p10 + 32, p10 + 33, p10 + 34, p10 + 35, p10 + 36, p10 + 37, p10 + 38, p10 + 39, 8};
Line(11) = {4, 9};
Line(12) = {9, 7};
Line(13) = {5, 9};
p14 = newp;
Point(p14 + 1) = {15.94458625075392, 3.60269495694035, 0};
Point(p14 + 2) = {15.89277676269172, 3.818497005654319, 0};
Point(p14 + 3) = {15.80784625735533, 4.023537383496633, 0};
Point(p14 + 4) = {15.69188600565432, 4.212767315874814, 0};
Point(p14 + 5) = {15.54775133383557, 4.381527333835569, 0};
Point(p14 + 6) = {15.37899131587481, 4.525662005654319, 0};
Point(p14 + 7) = {15.18976138349663, 4.641622257355334, 0};
Point(p14 + 8) = {14.98472100565432, 4.726552762691725, 0};
Point(p14 + 9) = {14.76891895694035, 4.778362250753921, 0};
Point(p14 + 10) = {14.547669, 4.795775, 0};
Point(p14 + 11) = {14.32641904305965, 4.778362250753921, 0};
Point(p14 + 12) = {14.11061699434568, 4.726552762691725, 0};
Point(p14 + 13) = {13.90557661650337, 4.641622257355334, 0};
Point(p14 + 14) = {13.71634668412519, 4.525662005654319, 0};
Point(p14 + 15) = {13.54758666616443, 4.38152733383557, 0};
Point(p14 + 16) = {13.40345199434568, 4.212767315874814, 0};
Point(p14 + 17) = {13.28749174264467, 4.023537383496633, 0};
Point(p14 + 18) = {13.20256123730828, 3.818497005654319, 0};
Point(p14 + 19) = {13.15075174924608, 3.60269495694035, 0};
Point(p14 + 20) = {13.133339, 3.381445, 0};
Point(p14 + 21) = {13.15075174924608, 3.16019504305965, 0};
Point(p14 + 22) = {13.20256123730828, 2.94439299434568, 0};
Point(p14 + 23) = {13.28749174264467, 2.739352616503367, 0};
Point(p14 + 24) = {13.40345199434568, 2.550122684125186, 0};
Point(p14 + 25) = {13.54758666616443, 2.38136266616443, 0};
Point(p14 + 26) = {13.71634668412519, 2.23722799434568, 0};
Point(p14 + 27) = {13.90557661650337, 2.121267742644665, 0};
Point(p14 + 28) = {14.11061699434568, 2.036337237308275, 0};
Point(p14 + 29) = {14.32641904305965, 1.984527749246079, 0};
Point(p14 + 30) = {14.547669, 1.967115, 0};
Point(p14 + 31) = {14.76891895694035, 1.984527749246078, 0};
Point(p14 + 32) = {14.98472100565432, 2.036337237308275, 0};
Point(p14 + 33) = {15.18976138349663, 2.121267742644665, 0};
Point(p14 + 34) = {15.37899131587481, 2.23722799434568, 0};
Point(p14 + 35) = {15.54775133383557, 2.38136266616443, 0};
Point(p14 + 36) = {15.69188600565432, 2.550122684125186, 0};
Point(p14 + 37) = {15.80784625735533, 2.739352616503366, 0};
Point(p14 + 38) = {15.89277676269172, 2.94439299434568, 0};
Point(p14 + 39) = {15.94458625075392, 3.16019504305965, 0};
Spline(14) = {10, p14 + 1, p14 + 2, p14 + 3, p14 + 4, p14 + 5, p14 + 6, p14 + 7, p14 + 8, p14 + 9, p14 + 10, p14 + 11, p14 + 12, p14 + 13, p14 + 14, p14 + 15, p14 + 16, p14 + 17, p14 + 18, p14 + 19, p14 + 20, p14 + 21, p14 + 22, p14 + 23, p14 + 24, p14 + 25, p14 + 26, p14 + 27, p14 + 28, p14 + 29, p14 + 30, p14 + 31, p14 + 32, p14 + 33, p14 + 34, p14 + 35, p14 + 36, p14 + 37, p14 + 38, p14 + 39, 10};
Line(15) = {10, 8};
Curve Loop(1) = {-1, 4, 3, -2};
Plane Surface(1) = {1};
Curve Loop(2) = {-5, 1, 7, -6};
Plane Surface(2) = {2};
Curve Loop(3) = {-2, 7, 9, -8, -10};
Plane Surface(3) = {3};
Curve Loop(4) = {-11, 3, 8, -12};
Plane Surface(4) = {4};
Curve Loop(5) = {-4, 5, 13, -11, -14};
Plane Surface(5) = {5};
Curve Loop(6) = {-6, 13, 12, -9};
Plane Surface(6) = {6};
Curve Loop(7) = {-10, -15, 14, 15};
Surface(7) = {7};
Surface Loop(1) = {1, 2, 3, 4, 5, 6, 7};
Volume(1) = {1};
Physical Surface("INFLOW") = {1};
Physical Surface("OUTFLOW") = {6};
Physical Surface("OBSTACLE") = {7};
Physical Surface("WALL_Y") = {2, 4};
Physical Surface("WALL_Z") = {3, 5};
Physical Volume("FLUID") = {1};
