cl__1 = 1.11725;
cl__2 = 1.217191;
cl__3 = 3.975519;
cl__4 = 0.100252;
Point(1) = {0.235521, -3.373676, 1, cl__1};
Point(2) = {0.235521, -3.373676, 0, cl__1};
Point(3) = {0.235521, 4.881189000000001, 1, cl__2};
Point(4) = {0.235521, 4.881189000000001, 0, cl__2};
Point(5) = {39.540348, -3.373676, 0, cl__3};
Point(6) = {39.540348, -3.373676, 1, cl__3};
Point(7) = {39.540348, 4.881189000000001, 1, cl__3};
Point(8) = {13.13375, -0.7807730000000003, 1, cl__4};
Point(9) = {39.540348, 4.881189000000001, 0, cl__3};
Point(10) = {13.13375, -0.7807730000000003, 0, cl__4};
Line(1) = {2, 1};
Line(2) = {1, 3};
Line(3) = {4, 3};
Line(4) = {2, 4};
Line(5) = {2, 5};
Line(6) = {5, 6};
Line(7) = {1, 6};
Line(8) = {3, 7};
Line(9) = {6, 7};
p10 = newp;
Point(p10 + 1) = {13.12140731521344, -0.6239443201078678, 1};
Point(p10 + 2) = {13.08468317871622, -0.4709772827992277, 1};
Point(p10 + 3) = {13.02448186062932, -0.3256384442011096, 1};
Point(p10 + 4) = {12.94228571720077, -0.1915065288717498, 1};
Point(p10 + 5) = {12.84011869027514, -0.07188430972486248, 1};
Point(p10 + 6) = {12.72049647112825, 0.03028271720077236, 1};
Point(p10 + 7) = {12.58636455579889, 0.1124788606293224, 1};
Point(p10 + 8) = {12.44102571720077, 0.1726801787162173, 1};
Point(p10 + 9) = {12.28805867989213, 0.2094043152134375, 1};
Point(p10 + 10) = {12.13123, 0.221747, 1};
Point(p10 + 11) = {11.97440132010787, 0.2094043152134374, 1};
Point(p10 + 12) = {11.82143428279923, 0.1726801787162174, 1};
Point(p10 + 13) = {11.67609544420111, 0.1124788606293226, 1};
Point(p10 + 14) = {11.54196352887175, 0.03028271720077236, 1};
Point(p10 + 15) = {11.42234130972486, -0.07188430972486237, 1};
Point(p10 + 16) = {11.32017428279923, -0.1915065288717497, 1};
Point(p10 + 17) = {11.23797813937068, -0.3256384442011095, 1};
Point(p10 + 18) = {11.17777682128378, -0.4709772827992276, 1};
Point(p10 + 19) = {11.14105268478656, -0.6239443201078677, 1};
Point(p10 + 20) = {11.12871, -0.7807729999999999, 1};
Point(p10 + 21) = {11.14105268478656, -0.9376016798921322, 1};
Point(p10 + 22) = {11.17777682128378, -1.090568717200773, 1};
Point(p10 + 23) = {11.23797813937068, -1.23590755579889, 1};
Point(p10 + 24) = {11.32017428279923, -1.37003947112825, 1};
Point(p10 + 25) = {11.42234130972486, -1.489661690275138, 1};
Point(p10 + 26) = {11.54196352887175, -1.591828717200772, 1};
Point(p10 + 27) = {11.67609544420111, -1.674024860629323, 1};
Point(p10 + 28) = {11.82143428279923, -1.734226178716217, 1};
Point(p10 + 29) = {11.97440132010787, -1.770950315213438, 1};
Point(p10 + 30) = {12.13123, -1.783293, 1};
Point(p10 + 31) = {12.28805867989213, -1.770950315213438, 1};
Point(p10 + 32) = {12.44102571720077, -1.734226178716217, 1};
Point(p10 + 33) = {12.58636455579889, -1.674024860629323, 1};
Point(p10 + 34) = {12.72049647112825, -1.591828717200773, 1};
Point(p10 + 35) = {12.84011869027514, -1.489661690275138, 1};
Point(p10 + 36) = {12.94228571720077, -1.37003947112825, 1};
Point(p10 + 37) = {13.02448186062932, -1.235907555798891, 1};
Point(p10 + 38) = {13.08468317871622, -1.090568717200773, 1};
Point(p10 + 39) = {13.12140731521344, -0.9376016798921325, 1};
Spline(10) = {8, p10 + 1, p10 + 2, p10 + 3, p10 + 4, p10 + 5, p10 + 6, p10 + 7, p10 + 8, p10 + 9, p10 + 10, p10 + 11, p10 + 12, p10 + 13, p10 + 14, p10 + 15, p10 + 16, p10 + 17, p10 + 18, p10 + 19, p10 + 20, p10 + 21, p10 + 22, p10 + 23, p10 + 24, p10 + 25, p10 + 26, p10 + 27, p10 + 28, p10 + 29, p10 + 30, p10 + 31, p10 + 32, p10 + 33, p10 + 34, p10 + 35, p10 + 36, p10 + 37, p10 + 38, p10 + 39, 8};
Line(11) = {4, 9};
Line(12) = {9, 7};
Line(13) = {5, 9};
p14 = newp;
Point(p14 + 1) = {13.12140731521344, -0.6239443201078678, 0};
Point(p14 + 2) = {13.08468317871622, -0.4709772827992277, 0};
Point(p14 + 3) = {13.02448186062932, -0.3256384442011096, 0};
Point(p14 + 4) = {12.94228571720077, -0.1915065288717498, 0};
Point(p14 + 5) = {12.84011869027514, -0.07188430972486248, 0};
Point(p14 + 6) = {12.72049647112825, 0.03028271720077236, 0};
Point(p14 + 7) = {12.58636455579889, 0.1124788606293224, 0};
Point(p14 + 8) = {12.44102571720077, 0.1726801787162173, 0};
Point(p14 + 9) = {12.28805867989213, 0.2094043152134375, 0};
Point(p14 + 10) = {12.13123, 0.221747, 0};
Point(p14 + 11) = {11.97440132010787, 0.2094043152134374, 0};
Point(p14 + 12) = {11.82143428279923, 0.1726801787162174, 0};
Point(p14 + 13) = {11.67609544420111, 0.1124788606293226, 0};
Point(p14 + 14) = {11.54196352887175, 0.03028271720077236, 0};
Point(p14 + 15) = {11.42234130972486, -0.07188430972486237, 0};
Point(p14 + 16) = {11.32017428279923, -0.1915065288717497, 0};
Point(p14 + 17) = {11.23797813937068, -0.3256384442011095, 0};
Point(p14 + 18) = {11.17777682128378, -0.4709772827992276, 0};
Point(p14 + 19) = {11.14105268478656, -0.6239443201078677, 0};
Point(p14 + 20) = {11.12871, -0.7807729999999999, 0};
Point(p14 + 21) = {11.14105268478656, -0.9376016798921322, 0};
Point(p14 + 22) = {11.17777682128378, -1.090568717200773, 0};
Point(p14 + 23) = {11.23797813937068, -1.23590755579889, 0};
Point(p14 + 24) = {11.32017428279923, -1.37003947112825, 0};
Point(p14 + 25) = {11.42234130972486, -1.489661690275138, 0};
Point(p14 + 26) = {11.54196352887175, -1.591828717200772, 0};
Point(p14 + 27) = {11.67609544420111, -1.674024860629323, 0};
Point(p14 + 28) = {11.82143428279923, -1.734226178716217, 0};
Point(p14 + 29) = {11.97440132010787, -1.770950315213438, 0};
Point(p14 + 30) = {12.13123, -1.783293, 0};
Point(p14 + 31) = {12.28805867989213, -1.770950315213438, 0};
Point(p14 + 32) = {12.44102571720077, -1.734226178716217, 0};
Point(p14 + 33) = {12.58636455579889, -1.674024860629323, 0};
Point(p14 + 34) = {12.72049647112825, -1.591828717200773, 0};
Point(p14 + 35) = {12.84011869027514, -1.489661690275138, 0};
Point(p14 + 36) = {12.94228571720077, -1.37003947112825, 0};
Point(p14 + 37) = {13.02448186062932, -1.235907555798891, 0};
Point(p14 + 38) = {13.08468317871622, -1.090568717200773, 0};
Point(p14 + 39) = {13.12140731521344, -0.9376016798921325, 0};
Spline(14) = {10, p14 + 1, p14 + 2, p14 + 3, p14 + 4, p14 + 5, p14 + 6, p14 + 7, p14 + 8, p14 + 9, p14 + 10, p14 + 11, p14 + 12, p14 + 13, p14 + 14, p14 + 15, p14 + 16, p14 + 17, p14 + 18, p14 + 19, p14 + 20, p14 + 21, p14 + 22, p14 + 23, p14 + 24, p14 + 25, p14 + 26, p14 + 27, p14 + 28, p14 + 29, p14 + 30, p14 + 31, p14 + 32, p14 + 33, p14 + 34, p14 + 35, p14 + 36, p14 + 37, p14 + 38, p14 + 39, 10};
Line(15) = {10, 8};
Curve Loop(1) = {-1, 4, 3, -2};
Plane Surface(1) = {1};
Curve Loop(2) = {-5, 1, 7, -6};
Plane Surface(2) = {2};
Curve Loop(3) = {-2, 7, 9, -8, -10};
Plane Surface(3) = {3};
Curve Loop(4) = {-11, 3, 8, -12};
Plane Surface(4) = {4};
Curve Loop(5) = {-4, 5, 13, -11, -14};
Plane Surface(5) = {5};
Curve Loop(6) = {-6, 13, 12, -9};
Plane Surface(6) = {6};
Curve Loop(7) = {-10, -15, 14, 15};
Surface(7) = {7};
Surface Loop(1) = {1, 2, 3, 4, 5, 6, 7};
Volume(1) = {1};
Physical Surface("INFLOW") = {1};
Physical Surface("OUTFLOW") = {6};
Physical Surface("OBSTACLE") = {7};
Physical Surface("WALL_Y") = {2, 4};
Physical Surface("WALL_Z") = {3, 5};
Physical Volume("FLUID") = {1};
