cl__1 = 1;
cl__2 = 0.11905;
cl__3 = 0.058845;
Point(1) = {0.36697, -3.65287, 1, cl__1};
Point(2) = {0.36697, -3.65287, 0, cl__1};
Point(3) = {0.36697, 5.609336000000001, 1, cl__1};
Point(4) = {0.36697, 5.609336000000001, 0, cl__1};
Point(5) = {35.681496, -3.65287, 0, cl__1};
Point(6) = {35.681496, -3.65287, 1, cl__1};
Point(7) = {35.681496, 5.609336000000001, 1, cl__1};
Point(8) = {5.228371, -0.1710460000000003, 1, cl__2};
Point(9) = {3.379974, 3.611478, 1, cl__3};
Point(10) = {35.681496, 5.609336000000001, 0, cl__1};
Point(11) = {5.228371, -0.1710460000000003, 0, cl__2};
Point(12) = {3.379974, 3.611478, 0, cl__3};
Line(1) = {2, 1};
Line(2) = {1, 3};
Line(3) = {4, 3};
Line(4) = {2, 4};
Line(5) = {2, 5};
Line(6) = {5, 6};
Line(7) = {1, 6};
Line(8) = {3, 7};
Line(9) = {6, 7};
p10 = newp;
Point(p10 + 1) = {5.21371400641349, 0.0151887613269997, 1};
Point(p10 + 2) = {5.170103929479832, 0.1968378047523917, 1};
Point(p10 + 3) = {5.09861459402668, 0.3694283279684312, 1};
Point(p10 + 4) = {5.001006304752392, 0.5287105794984324, 1};
Point(p10 + 5) = {4.879682501682241, 0.6707625016822411, 1};
Point(p10 + 6) = {4.737630579498433, 0.7920863047523917, 1};
Point(p10 + 7) = {4.578348327968431, 0.8896945940266792, 1};
Point(p10 + 8) = {4.405757804752392, 0.9611839294798312, 1};
Point(p10 + 9) = {4.224108761327, 1.00479400641349, 1};
Point(p10 + 10) = {4.037874, 1.019451, 1};
Point(p10 + 11) = {3.851639238673001, 1.004794006413489, 1};
Point(p10 + 12) = {3.669990195247609, 0.9611839294798314, 1};
Point(p10 + 13) = {3.497399672031569, 0.8896945940266794, 1};
Point(p10 + 14) = {3.338117420501568, 0.7920863047523917, 1};
Point(p10 + 15) = {3.196065498317759, 0.6707625016822413, 1};
Point(p10 + 16) = {3.074741695247609, 0.5287105794984325, 1};
Point(p10 + 17) = {2.977133405973321, 0.3694283279684313, 1};
Point(p10 + 18) = {2.905644070520169, 0.1968378047523918, 1};
Point(p10 + 19) = {2.862033993586511, 0.01518876132699984, 1};
Point(p10 + 20) = {2.847377000000001, -0.1710459999999999, 1};
Point(p10 + 21) = {2.862033993586511, -0.3572807613269995, 1};
Point(p10 + 22) = {2.905644070520169, -0.5389298047523922, 1};
Point(p10 + 23) = {2.977133405973321, -0.7115203279684306, 1};
Point(p10 + 24) = {3.074741695247608, -0.8708025794984322, 1};
Point(p10 + 25) = {3.196065498317759, -1.012854501682241, 1};
Point(p10 + 26) = {3.338117420501568, -1.134178304752392, 1};
Point(p10 + 27) = {3.497399672031569, -1.231786594026679, 1};
Point(p10 + 28) = {3.669990195247609, -1.303275929479831, 1};
Point(p10 + 29) = {3.851639238673001, -1.34688600641349, 1};
Point(p10 + 30) = {4.037874, -1.361543, 1};
Point(p10 + 31) = {4.224108761327, -1.34688600641349, 1};
Point(p10 + 32) = {4.405757804752392, -1.303275929479832, 1};
Point(p10 + 33) = {4.578348327968431, -1.231786594026679, 1};
Point(p10 + 34) = {4.737630579498433, -1.134178304752392, 1};
Point(p10 + 35) = {4.879682501682241, -1.012854501682241, 1};
Point(p10 + 36) = {5.001006304752392, -0.8708025794984326, 1};
Point(p10 + 37) = {5.09861459402668, -0.7115203279684315, 1};
Point(p10 + 38) = {5.170103929479832, -0.5389298047523919, 1};
Point(p10 + 39) = {5.21371400641349, -0.357280761327, 1};
Spline(10) = {8, p10 + 1, p10 + 2, p10 + 3, p10 + 4, p10 + 5, p10 + 6, p10 + 7, p10 + 8, p10 + 9, p10 + 10, p10 + 11, p10 + 12, p10 + 13, p10 + 14, p10 + 15, p10 + 16, p10 + 17, p10 + 18, p10 + 19, p10 + 20, p10 + 21, p10 + 22, p10 + 23, p10 + 24, p10 + 25, p10 + 26, p10 + 27, p10 + 28, p10 + 29, p10 + 30, p10 + 31, p10 + 32, p10 + 33, p10 + 34, p10 + 35, p10 + 36, p10 + 37, p10 + 38, p10 + 39, 8};
p11 = newp;
Point(p11 + 1) = {3.372729253269847, 3.703531235215064, 1};
Point(p11 + 2) = {3.351173402787818, 3.79331781427196, 1};
Point(p11 + 3) = {3.315837225132548, 3.878626893609737, 1};
Point(p11 + 4) = {3.26759081427196, 3.957357880570497, 1};
Point(p11 + 5) = {3.207622156962099, 4.027572156962099, 1};
Point(p11 + 6) = {3.137407880570497, 4.087540814271961, 1};
Point(p11 + 7) = {3.058676893609737, 4.135787225132548, 1};
Point(p11 + 8) = {2.97336781427196, 4.171123402787818, 1};
Point(p11 + 9) = {2.883581235215064, 4.192679253269846, 1};
Point(p11 + 10) = {2.791528, 4.199924, 1};
Point(p11 + 11) = {2.699474764784936, 4.192679253269846, 1};
Point(p11 + 12) = {2.60968818572804, 4.171123402787818, 1};
Point(p11 + 13) = {2.524379106390263, 4.135787225132549, 1};
Point(p11 + 14) = {2.445648119429503, 4.087540814271961, 1};
Point(p11 + 15) = {2.375433843037901, 4.027572156962099, 1};
Point(p11 + 16) = {2.31546518572804, 3.957357880570497, 1};
Point(p11 + 17) = {2.267218774867452, 3.878626893609737, 1};
Point(p11 + 18) = {2.231882597212182, 3.79331781427196, 1};
Point(p11 + 19) = {2.210326746730154, 3.703531235215064, 1};
Point(p11 + 20) = {2.203082, 3.611478, 1};
Point(p11 + 21) = {2.210326746730154, 3.519424764784936, 1};
Point(p11 + 22) = {2.231882597212182, 3.429638185728039, 1};
Point(p11 + 23) = {2.267218774867452, 3.344329106390263, 1};
Point(p11 + 24) = {2.31546518572804, 3.265598119429503, 1};
Point(p11 + 25) = {2.375433843037901, 3.195383843037901, 1};
Point(p11 + 26) = {2.445648119429503, 3.13541518572804, 1};
Point(p11 + 27) = {2.524379106390263, 3.087168774867452, 1};
Point(p11 + 28) = {2.609688185728039, 3.051832597212182, 1};
Point(p11 + 29) = {2.699474764784936, 3.030276746730153, 1};
Point(p11 + 30) = {2.791528, 3.023032, 1};
Point(p11 + 31) = {2.883581235215064, 3.030276746730153, 1};
Point(p11 + 32) = {2.97336781427196, 3.051832597212182, 1};
Point(p11 + 33) = {3.058676893609737, 3.087168774867452, 1};
Point(p11 + 34) = {3.137407880570497, 3.13541518572804, 1};
Point(p11 + 35) = {3.207622156962099, 3.1953838430379, 1};
Point(p11 + 36) = {3.26759081427196, 3.265598119429503, 1};
Point(p11 + 37) = {3.315837225132548, 3.344329106390262, 1};
Point(p11 + 38) = {3.351173402787818, 3.429638185728039, 1};
Point(p11 + 39) = {3.372729253269847, 3.519424764784936, 1};
Spline(11) = {9, p11 + 1, p11 + 2, p11 + 3, p11 + 4, p11 + 5, p11 + 6, p11 + 7, p11 + 8, p11 + 9, p11 + 10, p11 + 11, p11 + 12, p11 + 13, p11 + 14, p11 + 15, p11 + 16, p11 + 17, p11 + 18, p11 + 19, p11 + 20, p11 + 21, p11 + 22, p11 + 23, p11 + 24, p11 + 25, p11 + 26, p11 + 27, p11 + 28, p11 + 29, p11 + 30, p11 + 31, p11 + 32, p11 + 33, p11 + 34, p11 + 35, p11 + 36, p11 + 37, p11 + 38, p11 + 39, 9};
Line(12) = {4, 10};
Line(13) = {10, 7};
Line(14) = {5, 10};
p15 = newp;
Point(p15 + 1) = {5.21371400641349, 0.0151887613269997, 0};
Point(p15 + 2) = {5.170103929479832, 0.1968378047523917, 0};
Point(p15 + 3) = {5.09861459402668, 0.3694283279684312, 0};
Point(p15 + 4) = {5.001006304752392, 0.5287105794984324, 0};
Point(p15 + 5) = {4.879682501682241, 0.6707625016822411, 0};
Point(p15 + 6) = {4.737630579498433, 0.7920863047523917, 0};
Point(p15 + 7) = {4.578348327968431, 0.8896945940266792, 0};
Point(p15 + 8) = {4.405757804752392, 0.9611839294798312, 0};
Point(p15 + 9) = {4.224108761327, 1.00479400641349, 0};
Point(p15 + 10) = {4.037874, 1.019451, 0};
Point(p15 + 11) = {3.851639238673001, 1.004794006413489, 0};
Point(p15 + 12) = {3.669990195247609, 0.9611839294798314, 0};
Point(p15 + 13) = {3.497399672031569, 0.8896945940266794, 0};
Point(p15 + 14) = {3.338117420501568, 0.7920863047523917, 0};
Point(p15 + 15) = {3.196065498317759, 0.6707625016822413, 0};
Point(p15 + 16) = {3.074741695247609, 0.5287105794984325, 0};
Point(p15 + 17) = {2.977133405973321, 0.3694283279684313, 0};
Point(p15 + 18) = {2.905644070520169, 0.1968378047523918, 0};
Point(p15 + 19) = {2.862033993586511, 0.01518876132699984, 0};
Point(p15 + 20) = {2.847377000000001, -0.1710459999999999, 0};
Point(p15 + 21) = {2.862033993586511, -0.3572807613269995, 0};
Point(p15 + 22) = {2.905644070520169, -0.5389298047523922, 0};
Point(p15 + 23) = {2.977133405973321, -0.7115203279684306, 0};
Point(p15 + 24) = {3.074741695247608, -0.8708025794984322, 0};
Point(p15 + 25) = {3.196065498317759, -1.012854501682241, 0};
Point(p15 + 26) = {3.338117420501568, -1.134178304752392, 0};
Point(p15 + 27) = {3.497399672031569, -1.231786594026679, 0};
Point(p15 + 28) = {3.669990195247609, -1.303275929479831, 0};
Point(p15 + 29) = {3.851639238673001, -1.34688600641349, 0};
Point(p15 + 30) = {4.037874, -1.361543, 0};
Point(p15 + 31) = {4.224108761327, -1.34688600641349, 0};
Point(p15 + 32) = {4.405757804752392, -1.303275929479832, 0};
Point(p15 + 33) = {4.578348327968431, -1.231786594026679, 0};
Point(p15 + 34) = {4.737630579498433, -1.134178304752392, 0};
Point(p15 + 35) = {4.879682501682241, -1.012854501682241, 0};
Point(p15 + 36) = {5.001006304752392, -0.8708025794984326, 0};
Point(p15 + 37) = {5.09861459402668, -0.7115203279684315, 0};
Point(p15 + 38) = {5.170103929479832, -0.5389298047523919, 0};
Point(p15 + 39) = {5.21371400641349, -0.357280761327, 0};
Spline(15) = {11, p15 + 1, p15 + 2, p15 + 3, p15 + 4, p15 + 5, p15 + 6, p15 + 7, p15 + 8, p15 + 9, p15 + 10, p15 + 11, p15 + 12, p15 + 13, p15 + 14, p15 + 15, p15 + 16, p15 + 17, p15 + 18, p15 + 19, p15 + 20, p15 + 21, p15 + 22, p15 + 23, p15 + 24, p15 + 25, p15 + 26, p15 + 27, p15 + 28, p15 + 29, p15 + 30, p15 + 31, p15 + 32, p15 + 33, p15 + 34, p15 + 35, p15 + 36, p15 + 37, p15 + 38, p15 + 39, 11};
p16 = newp;
Point(p16 + 1) = {3.372729253269847, 3.703531235215064, 0};
Point(p16 + 2) = {3.351173402787818, 3.79331781427196, 0};
Point(p16 + 3) = {3.315837225132548, 3.878626893609737, 0};
Point(p16 + 4) = {3.26759081427196, 3.957357880570497, 0};
Point(p16 + 5) = {3.207622156962099, 4.027572156962099, 0};
Point(p16 + 6) = {3.137407880570497, 4.087540814271961, 0};
Point(p16 + 7) = {3.058676893609737, 4.135787225132548, 0};
Point(p16 + 8) = {2.97336781427196, 4.171123402787818, 0};
Point(p16 + 9) = {2.883581235215064, 4.192679253269846, 0};
Point(p16 + 10) = {2.791528, 4.199924, 0};
Point(p16 + 11) = {2.699474764784936, 4.192679253269846, 0};
Point(p16 + 12) = {2.60968818572804, 4.171123402787818, 0};
Point(p16 + 13) = {2.524379106390263, 4.135787225132549, 0};
Point(p16 + 14) = {2.445648119429503, 4.087540814271961, 0};
Point(p16 + 15) = {2.375433843037901, 4.027572156962099, 0};
Point(p16 + 16) = {2.31546518572804, 3.957357880570497, 0};
Point(p16 + 17) = {2.267218774867452, 3.878626893609737, 0};
Point(p16 + 18) = {2.231882597212182, 3.79331781427196, 0};
Point(p16 + 19) = {2.210326746730154, 3.703531235215064, 0};
Point(p16 + 20) = {2.203082, 3.611478, 0};
Point(p16 + 21) = {2.210326746730154, 3.519424764784936, 0};
Point(p16 + 22) = {2.231882597212182, 3.429638185728039, 0};
Point(p16 + 23) = {2.267218774867452, 3.344329106390263, 0};
Point(p16 + 24) = {2.31546518572804, 3.265598119429503, 0};
Point(p16 + 25) = {2.375433843037901, 3.195383843037901, 0};
Point(p16 + 26) = {2.445648119429503, 3.13541518572804, 0};
Point(p16 + 27) = {2.524379106390263, 3.087168774867452, 0};
Point(p16 + 28) = {2.609688185728039, 3.051832597212182, 0};
Point(p16 + 29) = {2.699474764784936, 3.030276746730153, 0};
Point(p16 + 30) = {2.791528, 3.023032, 0};
Point(p16 + 31) = {2.883581235215064, 3.030276746730153, 0};
Point(p16 + 32) = {2.97336781427196, 3.051832597212182, 0};
Point(p16 + 33) = {3.058676893609737, 3.087168774867452, 0};
Point(p16 + 34) = {3.137407880570497, 3.13541518572804, 0};
Point(p16 + 35) = {3.207622156962099, 3.1953838430379, 0};
Point(p16 + 36) = {3.26759081427196, 3.265598119429503, 0};
Point(p16 + 37) = {3.315837225132548, 3.344329106390262, 0};
Point(p16 + 38) = {3.351173402787818, 3.429638185728039, 0};
Point(p16 + 39) = {3.372729253269847, 3.519424764784936, 0};
Spline(16) = {12, p16 + 1, p16 + 2, p16 + 3, p16 + 4, p16 + 5, p16 + 6, p16 + 7, p16 + 8, p16 + 9, p16 + 10, p16 + 11, p16 + 12, p16 + 13, p16 + 14, p16 + 15, p16 + 16, p16 + 17, p16 + 18, p16 + 19, p16 + 20, p16 + 21, p16 + 22, p16 + 23, p16 + 24, p16 + 25, p16 + 26, p16 + 27, p16 + 28, p16 + 29, p16 + 30, p16 + 31, p16 + 32, p16 + 33, p16 + 34, p16 + 35, p16 + 36, p16 + 37, p16 + 38, p16 + 39, 12};
Line(17) = {11, 8};
Line(18) = {12, 9};
Curve Loop(1) = {-1, 4, 3, -2};
Plane Surface(1) = {1};
Curve Loop(2) = {-5, 1, 7, -6};
Plane Surface(2) = {2};
Curve Loop(3) = {-2, 7, 9, -8, -10, -11};
Plane Surface(3) = {3};
Curve Loop(4) = {-12, 3, 8, -13};
Plane Surface(4) = {4};
Curve Loop(5) = {-4, 5, 14, -12, -15, -16};
Plane Surface(5) = {5};
Curve Loop(6) = {-6, 14, 13, -9};
Plane Surface(6) = {6};
Curve Loop(7) = {-10, -17, 15, 17};
Surface(7) = {7};
Curve Loop(8) = {-11, -18, 16, 18};
Surface(8) = {8};
Surface Loop(1) = {1, 2, 3, 4, 5, 6, 7, 8};
Volume(1) = {1};
Physical Surface("INFLOW") = {1};
Physical Surface("OUTFLOW") = {6};
Physical Surface("OBSTACLE") = {7, 8};
Physical Surface("WALL_Y") = {2, 4};
Physical Surface("WALL_Z") = {3, 5};
Physical Volume("FLUID") = {1};
