cl__1 = 0.47524;
cl__2 = 0.561627;
cl__3 = 3.276989;
cl__4 = 0.08455699999999999;
Point(1) = {0.46115, -3.507769, 1, cl__1};
Point(2) = {0.46115, -3.507769, 0, cl__1};
Point(3) = {0.46115, 4.015725, 1, cl__2};
Point(4) = {0.46115, 4.015725, 0, cl__2};
Point(5) = {32.55326700000001, -3.507769, 0, cl__3};
Point(6) = {32.55326700000001, -3.507769, 1, cl__3};
Point(7) = {32.55326700000001, 4.015725, 1, cl__3};
Point(8) = {5.988189, -0.4383960000000002, 1, cl__4};
Point(9) = {32.55326700000001, 4.015725, 0, cl__3};
Point(10) = {5.988189, -0.4383960000000002, 0, cl__4};
Line(1) = {2, 1};
Line(2) = {1, 3};
Line(3) = {4, 3};
Line(4) = {2, 4};
Line(5) = {2, 5};
Line(6) = {5, 6};
Line(7) = {1, 6};
Line(8) = {3, 7};
Line(9) = {6, 7};
p10 = newp;
Point(p10 + 1) = {5.977778679403668, -0.3061203351337921, 1};
Point(p10 + 2) = {5.946804054257628, -0.1771017361343532, 1};
Point(p10 + 3) = {5.896027822631861, -0.05451706909723042, 1};
Point(p10 + 4) = {5.826700263865647, 0.05861522463993735, 1};
Point(p10 + 5) = {5.740528452540785, 0.1595094525407842, 1};
Point(p10 + 6) = {5.639634224639938, 0.2456812638656468, 1};
Point(p10 + 7) = {5.52650193090277, 0.3150088226318615, 1};
Point(p10 + 8) = {5.403917263865647, 0.3657850542576279, 1};
Point(p10 + 9) = {5.274898664866209, 0.3967596794036683, 1};
Point(p10 + 10) = {5.142623, 0.40717, 1};
Point(p10 + 11) = {5.010347335133792, 0.3967596794036682, 1};
Point(p10 + 12) = {4.881328736134353, 0.3657850542576279, 1};
Point(p10 + 13) = {4.758744069097231, 0.3150088226318615, 1};
Point(p10 + 14) = {4.645611775360063, 0.2456812638656468, 1};
Point(p10 + 15) = {4.544717547459216, 0.1595094525407843, 1};
Point(p10 + 16) = {4.458545736134353, 0.05861522463993746, 1};
Point(p10 + 17) = {4.389218177368139, -0.05451706909723031, 1};
Point(p10 + 18) = {4.338441945742373, -0.1771017361343531, 1};
Point(p10 + 19) = {4.307467320596333, -0.3061203351337921, 1};
Point(p10 + 20) = {4.297057000000001, -0.4383959999999999, 1};
Point(p10 + 21) = {4.307467320596333, -0.5706716648662078, 1};
Point(p10 + 22) = {4.338441945742373, -0.699690263865647, 1};
Point(p10 + 23) = {4.389218177368138, -0.8222749309027693, 1};
Point(p10 + 24) = {4.458545736134353, -0.9354072246399372, 1};
Point(p10 + 25) = {4.544717547459216, -1.036301452540784, 1};
Point(p10 + 26) = {4.645611775360063, -1.122473263865647, 1};
Point(p10 + 27) = {4.75874406909723, -1.191800822631861, 1};
Point(p10 + 28) = {4.881328736134353, -1.242577054257628, 1};
Point(p10 + 29) = {5.010347335133792, -1.273551679403668, 1};
Point(p10 + 30) = {5.142623, -1.283962, 1};
Point(p10 + 31) = {5.274898664866208, -1.273551679403668, 1};
Point(p10 + 32) = {5.403917263865647, -1.242577054257628, 1};
Point(p10 + 33) = {5.52650193090277, -1.191800822631861, 1};
Point(p10 + 34) = {5.639634224639938, -1.122473263865647, 1};
Point(p10 + 35) = {5.740528452540785, -1.036301452540784, 1};
Point(p10 + 36) = {5.826700263865647, -0.9354072246399376, 1};
Point(p10 + 37) = {5.896027822631861, -0.8222749309027698, 1};
Point(p10 + 38) = {5.946804054257628, -0.699690263865647, 1};
Point(p10 + 39) = {5.977778679403668, -0.570671664866208, 1};
Spline(10) = {8, p10 + 1, p10 + 2, p10 + 3, p10 + 4, p10 + 5, p10 + 6, p10 + 7, p10 + 8, p10 + 9, p10 + 10, p10 + 11, p10 + 12, p10 + 13, p10 + 14, p10 + 15, p10 + 16, p10 + 17, p10 + 18, p10 + 19, p10 + 20, p10 + 21, p10 + 22, p10 + 23, p10 + 24, p10 + 25, p10 + 26, p10 + 27, p10 + 28, p10 + 29, p10 + 30, p10 + 31, p10 + 32, p10 + 33, p10 + 34, p10 + 35, p10 + 36, p10 + 37, p10 + 38, p10 + 39, 8};
Line(11) = {4, 9};
Line(12) = {9, 7};
Line(13) = {5, 9};
p14 = newp;
Point(p14 + 1) = {5.977778679403668, -0.3061203351337921, 0};
Point(p14 + 2) = {5.946804054257628, -0.1771017361343532, 0};
Point(p14 + 3) = {5.896027822631861, -0.05451706909723042, 0};
Point(p14 + 4) = {5.826700263865647, 0.05861522463993735, 0};
Point(p14 + 5) = {5.740528452540785, 0.1595094525407842, 0};
Point(p14 + 6) = {5.639634224639938, 0.2456812638656468, 0};
Point(p14 + 7) = {5.52650193090277, 0.3150088226318615, 0};
Point(p14 + 8) = {5.403917263865647, 0.3657850542576279, 0};
Point(p14 + 9) = {5.274898664866209, 0.3967596794036683, 0};
Point(p14 + 10) = {5.142623, 0.40717, 0};
Point(p14 + 11) = {5.010347335133792, 0.3967596794036682, 0};
Point(p14 + 12) = {4.881328736134353, 0.3657850542576279, 0};
Point(p14 + 13) = {4.758744069097231, 0.3150088226318615, 0};
Point(p14 + 14) = {4.645611775360063, 0.2456812638656468, 0};
Point(p14 + 15) = {4.544717547459216, 0.1595094525407843, 0};
Point(p14 + 16) = {4.458545736134353, 0.05861522463993746, 0};
Point(p14 + 17) = {4.389218177368139, -0.05451706909723031, 0};
Point(p14 + 18) = {4.338441945742373, -0.1771017361343531, 0};
Point(p14 + 19) = {4.307467320596333, -0.3061203351337921, 0};
Point(p14 + 20) = {4.297057000000001, -0.4383959999999999, 0};
Point(p14 + 21) = {4.307467320596333, -0.5706716648662078, 0};
Point(p14 + 22) = {4.338441945742373, -0.699690263865647, 0};
Point(p14 + 23) = {4.389218177368138, -0.8222749309027693, 0};
Point(p14 + 24) = {4.458545736134353, -0.9354072246399372, 0};
Point(p14 + 25) = {4.544717547459216, -1.036301452540784, 0};
Point(p14 + 26) = {4.645611775360063, -1.122473263865647, 0};
Point(p14 + 27) = {4.75874406909723, -1.191800822631861, 0};
Point(p14 + 28) = {4.881328736134353, -1.242577054257628, 0};
Point(p14 + 29) = {5.010347335133792, -1.273551679403668, 0};
Point(p14 + 30) = {5.142623, -1.283962, 0};
Point(p14 + 31) = {5.274898664866208, -1.273551679403668, 0};
Point(p14 + 32) = {5.403917263865647, -1.242577054257628, 0};
Point(p14 + 33) = {5.52650193090277, -1.191800822631861, 0};
Point(p14 + 34) = {5.639634224639938, -1.122473263865647, 0};
Point(p14 + 35) = {5.740528452540785, -1.036301452540784, 0};
Point(p14 + 36) = {5.826700263865647, -0.9354072246399376, 0};
Point(p14 + 37) = {5.896027822631861, -0.8222749309027698, 0};
Point(p14 + 38) = {5.946804054257628, -0.699690263865647, 0};
Point(p14 + 39) = {5.977778679403668, -0.570671664866208, 0};
Spline(14) = {10, p14 + 1, p14 + 2, p14 + 3, p14 + 4, p14 + 5, p14 + 6, p14 + 7, p14 + 8, p14 + 9, p14 + 10, p14 + 11, p14 + 12, p14 + 13, p14 + 14, p14 + 15, p14 + 16, p14 + 17, p14 + 18, p14 + 19, p14 + 20, p14 + 21, p14 + 22, p14 + 23, p14 + 24, p14 + 25, p14 + 26, p14 + 27, p14 + 28, p14 + 29, p14 + 30, p14 + 31, p14 + 32, p14 + 33, p14 + 34, p14 + 35, p14 + 36, p14 + 37, p14 + 38, p14 + 39, 10};
Line(15) = {10, 8};
Curve Loop(1) = {-1, 4, 3, -2};
Plane Surface(1) = {1};
Curve Loop(2) = {-5, 1, 7, -6};
Plane Surface(2) = {2};
Curve Loop(3) = {-2, 7, 9, -8, -10};
Plane Surface(3) = {3};
Curve Loop(4) = {-11, 3, 8, -12};
Plane Surface(4) = {4};
Curve Loop(5) = {-4, 5, 13, -11, -14};
Plane Surface(5) = {5};
Curve Loop(6) = {-6, 13, 12, -9};
Plane Surface(6) = {6};
Curve Loop(7) = {-10, -15, 14, 15};
Surface(7) = {7};
Surface Loop(1) = {1, 2, 3, 4, 5, 6, 7};
Volume(1) = {1};
Physical Surface("INFLOW") = {1};
Physical Surface("OUTFLOW") = {6};
Physical Surface("OBSTACLE") = {7};
Physical Surface("WALL_Y") = {2, 4};
Physical Surface("WALL_Z") = {3, 5};
Physical Volume("FLUID") = {1};
