cl__1 = 1;
cl__2 = 0.105928;
cl__3 = 0.139269;
Point(1) = {0.755244, -4.090285, 1, cl__1};
Point(2) = {0.755244, -4.090285, 0, cl__1};
Point(3) = {0.755244, 4.364139, 1, cl__1};
Point(4) = {0.755244, 4.364139, 0, cl__1};
Point(5) = {31.860064, -4.090285, 0, cl__1};
Point(6) = {31.860064, -4.090285, 1, cl__1};
Point(7) = {31.860064, 4.364139, 1, cl__1};
Point(8) = {27.649219, -1.657791, 1, cl__2};
Point(9) = {16.447879, 1.3004, 1, cl__3};
Point(10) = {31.860064, 4.364139, 0, cl__1};
Point(11) = {27.649219, -1.657791, 0, cl__2};
Point(12) = {16.447879, 1.3004, 0, cl__3};
Line(1) = {2, 1};
Line(2) = {1, 3};
Line(3) = {4, 3};
Line(4) = {2, 4};
Line(5) = {2, 5};
Line(6) = {5, 6};
Line(7) = {1, 6};
Line(8) = {3, 7};
Line(9) = {6, 7};
p10 = newp;
Point(p10 + 1) = {27.63617749311396, -1.492082943437719, 1};
Point(p10 + 2) = {27.59737409763765, -1.330455169181511, 1};
Point(p10 + 3) = {27.53376428194878, -1.176887489445393, 1};
Point(p10 + 4) = {27.44691433081849, -1.035161250166377, 1};
Point(p10 + 5) = {27.33896277828207, -0.9087662217179329, 1};
Point(p10 + 6) = {27.21256774983362, -0.8008146691815113, 1};
Point(p10 + 7) = {27.07084151055461, -0.7139647180512216, 1};
Point(p10 + 8) = {26.91727383081849, -0.6503549023623536, 1};
Point(p10 + 9) = {26.75564605656228, -0.611551506886042, 1};
Point(p10 + 10) = {26.589938, -0.5985100000000001, 1};
Point(p10 + 11) = {26.42422994343772, -0.611551506886042, 1};
Point(p10 + 12) = {26.26260216918151, -0.6503549023623534, 1};
Point(p10 + 13) = {26.10903448944539, -0.7139647180512215, 1};
Point(p10 + 14) = {25.96730825016638, -0.8008146691815113, 1};
Point(p10 + 15) = {25.84091322171793, -0.9087662217179328, 1};
Point(p10 + 16) = {25.73296166918151, -1.035161250166377, 1};
Point(p10 + 17) = {25.64611171805122, -1.176887489445393, 1};
Point(p10 + 18) = {25.58250190236235, -1.330455169181511, 1};
Point(p10 + 19) = {25.54369850688604, -1.492082943437719, 1};
Point(p10 + 20) = {25.530657, -1.657791, 1};
Point(p10 + 21) = {25.54369850688604, -1.823499056562281, 1};
Point(p10 + 22) = {25.58250190236235, -1.985126830818489, 1};
Point(p10 + 23) = {25.64611171805122, -2.138694510554606, 1};
Point(p10 + 24) = {25.73296166918151, -2.280420749833623, 1};
Point(p10 + 25) = {25.84091322171793, -2.406815778282067, 1};
Point(p10 + 26) = {25.96730825016638, -2.514767330818489, 1};
Point(p10 + 27) = {26.10903448944539, -2.601617281948778, 1};
Point(p10 + 28) = {26.26260216918151, -2.665227097637646, 1};
Point(p10 + 29) = {26.42422994343772, -2.704030493113958, 1};
Point(p10 + 30) = {26.589938, -2.717072, 1};
Point(p10 + 31) = {26.75564605656228, -2.704030493113958, 1};
Point(p10 + 32) = {26.91727383081849, -2.665227097637647, 1};
Point(p10 + 33) = {27.07084151055461, -2.601617281948779, 1};
Point(p10 + 34) = {27.21256774983362, -2.514767330818489, 1};
Point(p10 + 35) = {27.33896277828207, -2.406815778282067, 1};
Point(p10 + 36) = {27.44691433081849, -2.280420749833624, 1};
Point(p10 + 37) = {27.53376428194878, -2.138694510554607, 1};
Point(p10 + 38) = {27.59737409763765, -1.985126830818489, 1};
Point(p10 + 39) = {27.63617749311396, -1.823499056562281, 1};
Spline(10) = {8, p10 + 1, p10 + 2, p10 + 3, p10 + 4, p10 + 5, p10 + 6, p10 + 7, p10 + 8, p10 + 9, p10 + 10, p10 + 11, p10 + 12, p10 + 13, p10 + 14, p10 + 15, p10 + 16, p10 + 17, p10 + 18, p10 + 19, p10 + 20, p10 + 21, p10 + 22, p10 + 23, p10 + 24, p10 + 25, p10 + 26, p10 + 27, p10 + 28, p10 + 29, p10 + 30, p10 + 31, p10 + 32, p10 + 33, p10 + 34, p10 + 35, p10 + 36, p10 + 37, p10 + 38, p10 + 39, 8};
p11 = newp;
Point(p11 + 1) = {16.43073271199842, 1.518264245813484, 1};
Point(p11 + 2) = {16.37971604650955, 1.730763950845062, 1};
Point(p11 + 3) = {16.29608520315233, 1.93266666711077, 1};
Point(p11 + 4) = {16.18189945084506, 2.119000879659447, 1};
Point(p11 + 5) = {16.03997042177035, 2.285178421770349, 1};
Point(p11 + 6) = {15.87379287965945, 2.427107450845063, 1};
Point(p11 + 7) = {15.68745866711077, 2.541293203152326, 1};
Point(p11 + 8) = {15.48555595084506, 2.624924046509548, 1};
Point(p11 + 9) = {15.27305624581348, 2.675940711998421, 1};
Point(p11 + 10) = {15.055192, 2.693087, 1};
Point(p11 + 11) = {14.83732775418652, 2.67594071199842, 1};
Point(p11 + 12) = {14.62482804915494, 2.624924046509549, 1};
Point(p11 + 13) = {14.42292533288923, 2.541293203152326, 1};
Point(p11 + 14) = {14.23659112034055, 2.427107450845063, 1};
Point(p11 + 15) = {14.07041357822965, 2.285178421770349, 1};
Point(p11 + 16) = {13.92848454915494, 2.119000879659448, 1};
Point(p11 + 17) = {13.81429879684767, 1.93266666711077, 1};
Point(p11 + 18) = {13.73066795349045, 1.730763950845063, 1};
Point(p11 + 19) = {13.67965128800158, 1.518264245813484, 1};
Point(p11 + 20) = {13.662505, 1.3004, 1};
Point(p11 + 21) = {13.67965128800158, 1.082535754186516, 1};
Point(p11 + 22) = {13.73066795349045, 0.8700360491549372, 1};
Point(p11 + 23) = {13.81429879684767, 0.6681333328892306, 1};
Point(p11 + 24) = {13.92848454915494, 0.4817991203405526, 1};
Point(p11 + 25) = {14.07041357822965, 0.3156215782296508, 1};
Point(p11 + 26) = {14.23659112034055, 0.1736925491549377, 1};
Point(p11 + 27) = {14.42292533288923, 0.05950679684767457, 1};
Point(p11 + 28) = {14.62482804915494, -0.02412404650954847, 1};
Point(p11 + 29) = {14.83732775418652, -0.07514071199842043, 1};
Point(p11 + 30) = {15.055192, -0.09228700000000001, 1};
Point(p11 + 31) = {15.27305624581348, -0.07514071199842065, 1};
Point(p11 + 32) = {15.48555595084506, -0.02412404650954869, 1};
Point(p11 + 33) = {15.68745866711077, 0.05950679684767457, 1};
Point(p11 + 34) = {15.87379287965945, 0.1736925491549375, 1};
Point(p11 + 35) = {16.03997042177035, 0.3156215782296504, 1};
Point(p11 + 36) = {16.18189945084506, 0.4817991203405522, 1};
Point(p11 + 37) = {16.29608520315233, 0.6681333328892295, 1};
Point(p11 + 38) = {16.37971604650955, 0.8700360491549373, 1};
Point(p11 + 39) = {16.43073271199842, 1.082535754186516, 1};
Spline(11) = {9, p11 + 1, p11 + 2, p11 + 3, p11 + 4, p11 + 5, p11 + 6, p11 + 7, p11 + 8, p11 + 9, p11 + 10, p11 + 11, p11 + 12, p11 + 13, p11 + 14, p11 + 15, p11 + 16, p11 + 17, p11 + 18, p11 + 19, p11 + 20, p11 + 21, p11 + 22, p11 + 23, p11 + 24, p11 + 25, p11 + 26, p11 + 27, p11 + 28, p11 + 29, p11 + 30, p11 + 31, p11 + 32, p11 + 33, p11 + 34, p11 + 35, p11 + 36, p11 + 37, p11 + 38, p11 + 39, 9};
Line(12) = {4, 10};
Line(13) = {10, 7};
Line(14) = {5, 10};
p15 = newp;
Point(p15 + 1) = {27.63617749311396, -1.492082943437719, 0};
Point(p15 + 2) = {27.59737409763765, -1.330455169181511, 0};
Point(p15 + 3) = {27.53376428194878, -1.176887489445393, 0};
Point(p15 + 4) = {27.44691433081849, -1.035161250166377, 0};
Point(p15 + 5) = {27.33896277828207, -0.9087662217179329, 0};
Point(p15 + 6) = {27.21256774983362, -0.8008146691815113, 0};
Point(p15 + 7) = {27.07084151055461, -0.7139647180512216, 0};
Point(p15 + 8) = {26.91727383081849, -0.6503549023623536, 0};
Point(p15 + 9) = {26.75564605656228, -0.611551506886042, 0};
Point(p15 + 10) = {26.589938, -0.5985100000000001, 0};
Point(p15 + 11) = {26.42422994343772, -0.611551506886042, 0};
Point(p15 + 12) = {26.26260216918151, -0.6503549023623534, 0};
Point(p15 + 13) = {26.10903448944539, -0.7139647180512215, 0};
Point(p15 + 14) = {25.96730825016638, -0.8008146691815113, 0};
Point(p15 + 15) = {25.84091322171793, -0.9087662217179328, 0};
Point(p15 + 16) = {25.73296166918151, -1.035161250166377, 0};
Point(p15 + 17) = {25.64611171805122, -1.176887489445393, 0};
Point(p15 + 18) = {25.58250190236235, -1.330455169181511, 0};
Point(p15 + 19) = {25.54369850688604, -1.492082943437719, 0};
Point(p15 + 20) = {25.530657, -1.657791, 0};
Point(p15 + 21) = {25.54369850688604, -1.823499056562281, 0};
Point(p15 + 22) = {25.58250190236235, -1.985126830818489, 0};
Point(p15 + 23) = {25.64611171805122, -2.138694510554606, 0};
Point(p15 + 24) = {25.73296166918151, -2.280420749833623, 0};
Point(p15 + 25) = {25.84091322171793, -2.406815778282067, 0};
Point(p15 + 26) = {25.96730825016638, -2.514767330818489, 0};
Point(p15 + 27) = {26.10903448944539, -2.601617281948778, 0};
Point(p15 + 28) = {26.26260216918151, -2.665227097637646, 0};
Point(p15 + 29) = {26.42422994343772, -2.704030493113958, 0};
Point(p15 + 30) = {26.589938, -2.717072, 0};
Point(p15 + 31) = {26.75564605656228, -2.704030493113958, 0};
Point(p15 + 32) = {26.91727383081849, -2.665227097637647, 0};
Point(p15 + 33) = {27.07084151055461, -2.601617281948779, 0};
Point(p15 + 34) = {27.21256774983362, -2.514767330818489, 0};
Point(p15 + 35) = {27.33896277828207, -2.406815778282067, 0};
Point(p15 + 36) = {27.44691433081849, -2.280420749833624, 0};
Point(p15 + 37) = {27.53376428194878, -2.138694510554607, 0};
Point(p15 + 38) = {27.59737409763765, -1.985126830818489, 0};
Point(p15 + 39) = {27.63617749311396, -1.823499056562281, 0};
Spline(15) = {11, p15 + 1, p15 + 2, p15 + 3, p15 + 4, p15 + 5, p15 + 6, p15 + 7, p15 + 8, p15 + 9, p15 + 10, p15 + 11, p15 + 12, p15 + 13, p15 + 14, p15 + 15, p15 + 16, p15 + 17, p15 + 18, p15 + 19, p15 + 20, p15 + 21, p15 + 22, p15 + 23, p15 + 24, p15 + 25, p15 + 26, p15 + 27, p15 + 28, p15 + 29, p15 + 30, p15 + 31, p15 + 32, p15 + 33, p15 + 34, p15 + 35, p15 + 36, p15 + 37, p15 + 38, p15 + 39, 11};
p16 = newp;
Point(p16 + 1) = {16.43073271199842, 1.518264245813484, 0};
Point(p16 + 2) = {16.37971604650955, 1.730763950845062, 0};
Point(p16 + 3) = {16.29608520315233, 1.93266666711077, 0};
Point(p16 + 4) = {16.18189945084506, 2.119000879659447, 0};
Point(p16 + 5) = {16.03997042177035, 2.285178421770349, 0};
Point(p16 + 6) = {15.87379287965945, 2.427107450845063, 0};
Point(p16 + 7) = {15.68745866711077, 2.541293203152326, 0};
Point(p16 + 8) = {15.48555595084506, 2.624924046509548, 0};
Point(p16 + 9) = {15.27305624581348, 2.675940711998421, 0};
Point(p16 + 10) = {15.055192, 2.693087, 0};
Point(p16 + 11) = {14.83732775418652, 2.67594071199842, 0};
Point(p16 + 12) = {14.62482804915494, 2.624924046509549, 0};
Point(p16 + 13) = {14.42292533288923, 2.541293203152326, 0};
Point(p16 + 14) = {14.23659112034055, 2.427107450845063, 0};
Point(p16 + 15) = {14.07041357822965, 2.285178421770349, 0};
Point(p16 + 16) = {13.92848454915494, 2.119000879659448, 0};
Point(p16 + 17) = {13.81429879684767, 1.93266666711077, 0};
Point(p16 + 18) = {13.73066795349045, 1.730763950845063, 0};
Point(p16 + 19) = {13.67965128800158, 1.518264245813484, 0};
Point(p16 + 20) = {13.662505, 1.3004, 0};
Point(p16 + 21) = {13.67965128800158, 1.082535754186516, 0};
Point(p16 + 22) = {13.73066795349045, 0.8700360491549372, 0};
Point(p16 + 23) = {13.81429879684767, 0.6681333328892306, 0};
Point(p16 + 24) = {13.92848454915494, 0.4817991203405526, 0};
Point(p16 + 25) = {14.07041357822965, 0.3156215782296508, 0};
Point(p16 + 26) = {14.23659112034055, 0.1736925491549377, 0};
Point(p16 + 27) = {14.42292533288923, 0.05950679684767457, 0};
Point(p16 + 28) = {14.62482804915494, -0.02412404650954847, 0};
Point(p16 + 29) = {14.83732775418652, -0.07514071199842043, 0};
Point(p16 + 30) = {15.055192, -0.09228700000000001, 0};
Point(p16 + 31) = {15.27305624581348, -0.07514071199842065, 0};
Point(p16 + 32) = {15.48555595084506, -0.02412404650954869, 0};
Point(p16 + 33) = {15.68745866711077, 0.05950679684767457, 0};
Point(p16 + 34) = {15.87379287965945, 0.1736925491549375, 0};
Point(p16 + 35) = {16.03997042177035, 0.3156215782296504, 0};
Point(p16 + 36) = {16.18189945084506, 0.4817991203405522, 0};
Point(p16 + 37) = {16.29608520315233, 0.6681333328892295, 0};
Point(p16 + 38) = {16.37971604650955, 0.8700360491549373, 0};
Point(p16 + 39) = {16.43073271199842, 1.082535754186516, 0};
Spline(16) = {12, p16 + 1, p16 + 2, p16 + 3, p16 + 4, p16 + 5, p16 + 6, p16 + 7, p16 + 8, p16 + 9, p16 + 10, p16 + 11, p16 + 12, p16 + 13, p16 + 14, p16 + 15, p16 + 16, p16 + 17, p16 + 18, p16 + 19, p16 + 20, p16 + 21, p16 + 22, p16 + 23, p16 + 24, p16 + 25, p16 + 26, p16 + 27, p16 + 28, p16 + 29, p16 + 30, p16 + 31, p16 + 32, p16 + 33, p16 + 34, p16 + 35, p16 + 36, p16 + 37, p16 + 38, p16 + 39, 12};
Line(17) = {11, 8};
Line(18) = {12, 9};
Curve Loop(1) = {-1, 4, 3, -2};
Plane Surface(1) = {1};
Curve Loop(2) = {-5, 1, 7, -6};
Plane Surface(2) = {2};
Curve Loop(3) = {-2, 7, 9, -8, -10, -11};
Plane Surface(3) = {3};
Curve Loop(4) = {-12, 3, 8, -13};
Plane Surface(4) = {4};
Curve Loop(5) = {-4, 5, 14, -12, -15, -16};
Plane Surface(5) = {5};
Curve Loop(6) = {-6, 14, 13, -9};
Plane Surface(6) = {6};
Curve Loop(7) = {-10, -17, 15, 17};
Surface(7) = {7};
Curve Loop(8) = {-11, -18, 16, 18};
Surface(8) = {8};
Surface Loop(1) = {1, 2, 3, 4, 5, 6, 7, 8};
Volume(1) = {1};
Physical Surface("INFLOW") = {1};
Physical Surface("OUTFLOW") = {6};
Physical Surface("OBSTACLE") = {7, 8};
Physical Surface("WALL_Y") = {2, 4};
Physical Surface("WALL_Z") = {3, 5};
Physical Volume("FLUID") = {1};
