cl__1 = 3.210607;
cl__2 = 1.111033;
cl__3 = 1.188542;
cl__4 = 0.131744;
cl__5 = 0.119937;
Point(1) = {0.0538, -4.068686, 1, cl__1};
Point(2) = {0.0538, -4.068686, 0, cl__1};
Point(3) = {0.0538, 4.921617000000001, 1, cl__1};
Point(4) = {0.0538, 4.921617000000001, 0, cl__1};
Point(5) = {31.78983, -4.068686, 0, cl__2};
Point(6) = {31.78983, -4.068686, 1, cl__2};
Point(7) = {31.78983, 4.921617000000001, 1, cl__3};
Point(8) = {20.910002, -1.686215, 1, cl__4};
Point(9) = {20.042985, 3.02231, 1, cl__5};
Point(10) = {31.78983, 4.921617000000001, 0, cl__3};
Point(11) = {20.910002, -1.686215, 0, cl__4};
Point(12) = {20.042985, 3.02231, 0, cl__5};
Line(1) = {2, 1};
Line(2) = {1, 3};
Line(3) = {4, 3};
Line(4) = {2, 4};
Line(5) = {2, 5};
Line(6) = {5, 6};
Line(7) = {1, 6};
Line(8) = {3, 7};
Line(9) = {6, 7};
p10 = newp;
Point(p10 + 1) = {20.89378210281034, -1.480121665508468, 1};
Point(p10 + 2) = {20.84552179894092, -1.279103032896681, 1};
Point(p10 + 3) = {20.76640941723977, -1.088108848042132, 1};
Point(p10 + 4) = {20.65839296710332, -0.9118420216492996, 1};
Point(p10 + 5) = {20.52413217201997, -0.7546428279800326, 1};
Point(p10 + 6) = {20.3669329783507, -0.6203820328966805, 1};
Point(p10 + 7) = {20.19066615195787, -0.5123655827602285, 1};
Point(p10 + 8) = {19.99967196710332, -0.4332532010590804, 1};
Point(p10 + 9) = {19.79865333449153, -0.3849928971896606, 1};
Point(p10 + 10) = {19.59256, -0.368773, 1};
Point(p10 + 11) = {19.38646666550847, -0.3849928971896606, 1};
Point(p10 + 12) = {19.18544803289668, -0.4332532010590802, 1};
Point(p10 + 13) = {18.99445384804213, -0.5123655827602283, 1};
Point(p10 + 14) = {18.8181870216493, -0.6203820328966805, 1};
Point(p10 + 15) = {18.66098782798003, -0.7546428279800325, 1};
Point(p10 + 16) = {18.52672703289668, -0.9118420216492995, 1};
Point(p10 + 17) = {18.41871058276023, -1.088108848042132, 1};
Point(p10 + 18) = {18.33959820105908, -1.27910303289668, 1};
Point(p10 + 19) = {18.29133789718966, -1.480121665508468, 1};
Point(p10 + 20) = {18.275118, -1.686215, 1};
Point(p10 + 21) = {18.29133789718966, -1.892308334491532, 1};
Point(p10 + 22) = {18.33959820105908, -2.09332696710332, 1};
Point(p10 + 23) = {18.41871058276023, -2.284321151957867, 1};
Point(p10 + 24) = {18.52672703289668, -2.4605879783507, 1};
Point(p10 + 25) = {18.66098782798003, -2.617787172019967, 1};
Point(p10 + 26) = {18.8181870216493, -2.752047967103319, 1};
Point(p10 + 27) = {18.99445384804213, -2.860064417239772, 1};
Point(p10 + 28) = {19.18544803289668, -2.939176798940919, 1};
Point(p10 + 29) = {19.38646666550847, -2.98743710281034, 1};
Point(p10 + 30) = {19.59256, -3.003657, 1};
Point(p10 + 31) = {19.79865333449153, -2.98743710281034, 1};
Point(p10 + 32) = {19.99967196710332, -2.93917679894092, 1};
Point(p10 + 33) = {20.19066615195787, -2.860064417239772, 1};
Point(p10 + 34) = {20.3669329783507, -2.75204796710332, 1};
Point(p10 + 35) = {20.52413217201997, -2.617787172019968, 1};
Point(p10 + 36) = {20.65839296710332, -2.460587978350701, 1};
Point(p10 + 37) = {20.76640941723977, -2.284321151957868, 1};
Point(p10 + 38) = {20.84552179894092, -2.09332696710332, 1};
Point(p10 + 39) = {20.89378210281034, -1.892308334491532, 1};
Spline(10) = {8, p10 + 1, p10 + 2, p10 + 3, p10 + 4, p10 + 5, p10 + 6, p10 + 7, p10 + 8, p10 + 9, p10 + 10, p10 + 11, p10 + 12, p10 + 13, p10 + 14, p10 + 15, p10 + 16, p10 + 17, p10 + 18, p10 + 19, p10 + 20, p10 + 21, p10 + 22, p10 + 23, p10 + 24, p10 + 25, p10 + 26, p10 + 27, p10 + 28, p10 + 29, p10 + 30, p10 + 31, p10 + 32, p10 + 33, p10 + 34, p10 + 35, p10 + 36, p10 + 37, p10 + 38, p10 + 39, 8};
p11 = newp;
Point(p11 + 1) = {20.02821882661789, 3.209932022162977, 1};
Point(p11 + 2) = {19.98428389866634, 3.392934167458509, 1};
Point(p11 + 3) = {19.91226203988318, 3.566810315720121, 1};
Point(p11 + 4) = {19.81392666745851, 3.727279059115762, 1};
Point(p11 + 5) = {19.69169912461781, 3.870389124617803, 1};
Point(p11 + 6) = {19.54858905911576, 3.992616667458509, 1};
Point(p11 + 7) = {19.38812031572012, 4.090952039883182, 1};
Point(p11 + 8) = {19.21424416745851, 4.162973898666337, 1};
Point(p11 + 9) = {19.03124202216298, 4.206908826617887, 1};
Point(p11 + 10) = {18.84362, 4.221675, 1};
Point(p11 + 11) = {18.65599797783702, 4.206908826617887, 1};
Point(p11 + 12) = {18.47299583254149, 4.162973898666337, 1};
Point(p11 + 13) = {18.29911968427988, 4.090952039883182, 1};
Point(p11 + 14) = {18.13865094088424, 3.992616667458509, 1};
Point(p11 + 15) = {17.9955408753822, 3.870389124617803, 1};
Point(p11 + 16) = {17.87331333254149, 3.727279059115762, 1};
Point(p11 + 17) = {17.77497796011682, 3.566810315720121, 1};
Point(p11 + 18) = {17.70295610133367, 3.392934167458509, 1};
Point(p11 + 19) = {17.65902117338211, 3.209932022162977, 1};
Point(p11 + 20) = {17.644255, 3.02231, 1};
Point(p11 + 21) = {17.65902117338211, 2.834687977837024, 1};
Point(p11 + 22) = {17.70295610133367, 2.651685832541491, 1};
Point(p11 + 23) = {17.77497796011682, 2.477809684279879, 1};
Point(p11 + 24) = {17.87331333254149, 2.317340940884238, 1};
Point(p11 + 25) = {17.9955408753822, 2.174230875382197, 1};
Point(p11 + 26) = {18.13865094088424, 2.052003332541491, 1};
Point(p11 + 27) = {18.29911968427988, 1.953667960116818, 1};
Point(p11 + 28) = {18.47299583254149, 1.881646101333663, 1};
Point(p11 + 29) = {18.65599797783702, 1.837711173382113, 1};
Point(p11 + 30) = {18.84362, 1.822945, 1};
Point(p11 + 31) = {19.03124202216298, 1.837711173382113, 1};
Point(p11 + 32) = {19.21424416745851, 1.881646101333663, 1};
Point(p11 + 33) = {19.38812031572012, 1.953667960116818, 1};
Point(p11 + 34) = {19.54858905911576, 2.052003332541491, 1};
Point(p11 + 35) = {19.69169912461781, 2.174230875382196, 1};
Point(p11 + 36) = {19.81392666745851, 2.317340940884238, 1};
Point(p11 + 37) = {19.91226203988318, 2.477809684279878, 1};
Point(p11 + 38) = {19.98428389866634, 2.651685832541491, 1};
Point(p11 + 39) = {20.02821882661789, 2.834687977837023, 1};
Spline(11) = {9, p11 + 1, p11 + 2, p11 + 3, p11 + 4, p11 + 5, p11 + 6, p11 + 7, p11 + 8, p11 + 9, p11 + 10, p11 + 11, p11 + 12, p11 + 13, p11 + 14, p11 + 15, p11 + 16, p11 + 17, p11 + 18, p11 + 19, p11 + 20, p11 + 21, p11 + 22, p11 + 23, p11 + 24, p11 + 25, p11 + 26, p11 + 27, p11 + 28, p11 + 29, p11 + 30, p11 + 31, p11 + 32, p11 + 33, p11 + 34, p11 + 35, p11 + 36, p11 + 37, p11 + 38, p11 + 39, 9};
Line(12) = {4, 10};
Line(13) = {10, 7};
Line(14) = {5, 10};
p15 = newp;
Point(p15 + 1) = {20.89378210281034, -1.480121665508468, 0};
Point(p15 + 2) = {20.84552179894092, -1.279103032896681, 0};
Point(p15 + 3) = {20.76640941723977, -1.088108848042132, 0};
Point(p15 + 4) = {20.65839296710332, -0.9118420216492996, 0};
Point(p15 + 5) = {20.52413217201997, -0.7546428279800326, 0};
Point(p15 + 6) = {20.3669329783507, -0.6203820328966805, 0};
Point(p15 + 7) = {20.19066615195787, -0.5123655827602285, 0};
Point(p15 + 8) = {19.99967196710332, -0.4332532010590804, 0};
Point(p15 + 9) = {19.79865333449153, -0.3849928971896606, 0};
Point(p15 + 10) = {19.59256, -0.368773, 0};
Point(p15 + 11) = {19.38646666550847, -0.3849928971896606, 0};
Point(p15 + 12) = {19.18544803289668, -0.4332532010590802, 0};
Point(p15 + 13) = {18.99445384804213, -0.5123655827602283, 0};
Point(p15 + 14) = {18.8181870216493, -0.6203820328966805, 0};
Point(p15 + 15) = {18.66098782798003, -0.7546428279800325, 0};
Point(p15 + 16) = {18.52672703289668, -0.9118420216492995, 0};
Point(p15 + 17) = {18.41871058276023, -1.088108848042132, 0};
Point(p15 + 18) = {18.33959820105908, -1.27910303289668, 0};
Point(p15 + 19) = {18.29133789718966, -1.480121665508468, 0};
Point(p15 + 20) = {18.275118, -1.686215, 0};
Point(p15 + 21) = {18.29133789718966, -1.892308334491532, 0};
Point(p15 + 22) = {18.33959820105908, -2.09332696710332, 0};
Point(p15 + 23) = {18.41871058276023, -2.284321151957867, 0};
Point(p15 + 24) = {18.52672703289668, -2.4605879783507, 0};
Point(p15 + 25) = {18.66098782798003, -2.617787172019967, 0};
Point(p15 + 26) = {18.8181870216493, -2.752047967103319, 0};
Point(p15 + 27) = {18.99445384804213, -2.860064417239772, 0};
Point(p15 + 28) = {19.18544803289668, -2.939176798940919, 0};
Point(p15 + 29) = {19.38646666550847, -2.98743710281034, 0};
Point(p15 + 30) = {19.59256, -3.003657, 0};
Point(p15 + 31) = {19.79865333449153, -2.98743710281034, 0};
Point(p15 + 32) = {19.99967196710332, -2.93917679894092, 0};
Point(p15 + 33) = {20.19066615195787, -2.860064417239772, 0};
Point(p15 + 34) = {20.3669329783507, -2.75204796710332, 0};
Point(p15 + 35) = {20.52413217201997, -2.617787172019968, 0};
Point(p15 + 36) = {20.65839296710332, -2.460587978350701, 0};
Point(p15 + 37) = {20.76640941723977, -2.284321151957868, 0};
Point(p15 + 38) = {20.84552179894092, -2.09332696710332, 0};
Point(p15 + 39) = {20.89378210281034, -1.892308334491532, 0};
Spline(15) = {11, p15 + 1, p15 + 2, p15 + 3, p15 + 4, p15 + 5, p15 + 6, p15 + 7, p15 + 8, p15 + 9, p15 + 10, p15 + 11, p15 + 12, p15 + 13, p15 + 14, p15 + 15, p15 + 16, p15 + 17, p15 + 18, p15 + 19, p15 + 20, p15 + 21, p15 + 22, p15 + 23, p15 + 24, p15 + 25, p15 + 26, p15 + 27, p15 + 28, p15 + 29, p15 + 30, p15 + 31, p15 + 32, p15 + 33, p15 + 34, p15 + 35, p15 + 36, p15 + 37, p15 + 38, p15 + 39, 11};
p16 = newp;
Point(p16 + 1) = {20.02821882661789, 3.209932022162977, 0};
Point(p16 + 2) = {19.98428389866634, 3.392934167458509, 0};
Point(p16 + 3) = {19.91226203988318, 3.566810315720121, 0};
Point(p16 + 4) = {19.81392666745851, 3.727279059115762, 0};
Point(p16 + 5) = {19.69169912461781, 3.870389124617803, 0};
Point(p16 + 6) = {19.54858905911576, 3.992616667458509, 0};
Point(p16 + 7) = {19.38812031572012, 4.090952039883182, 0};
Point(p16 + 8) = {19.21424416745851, 4.162973898666337, 0};
Point(p16 + 9) = {19.03124202216298, 4.206908826617887, 0};
Point(p16 + 10) = {18.84362, 4.221675, 0};
Point(p16 + 11) = {18.65599797783702, 4.206908826617887, 0};
Point(p16 + 12) = {18.47299583254149, 4.162973898666337, 0};
Point(p16 + 13) = {18.29911968427988, 4.090952039883182, 0};
Point(p16 + 14) = {18.13865094088424, 3.992616667458509, 0};
Point(p16 + 15) = {17.9955408753822, 3.870389124617803, 0};
Point(p16 + 16) = {17.87331333254149, 3.727279059115762, 0};
Point(p16 + 17) = {17.77497796011682, 3.566810315720121, 0};
Point(p16 + 18) = {17.70295610133367, 3.392934167458509, 0};
Point(p16 + 19) = {17.65902117338211, 3.209932022162977, 0};
Point(p16 + 20) = {17.644255, 3.02231, 0};
Point(p16 + 21) = {17.65902117338211, 2.834687977837024, 0};
Point(p16 + 22) = {17.70295610133367, 2.651685832541491, 0};
Point(p16 + 23) = {17.77497796011682, 2.477809684279879, 0};
Point(p16 + 24) = {17.87331333254149, 2.317340940884238, 0};
Point(p16 + 25) = {17.9955408753822, 2.174230875382197, 0};
Point(p16 + 26) = {18.13865094088424, 2.052003332541491, 0};
Point(p16 + 27) = {18.29911968427988, 1.953667960116818, 0};
Point(p16 + 28) = {18.47299583254149, 1.881646101333663, 0};
Point(p16 + 29) = {18.65599797783702, 1.837711173382113, 0};
Point(p16 + 30) = {18.84362, 1.822945, 0};
Point(p16 + 31) = {19.03124202216298, 1.837711173382113, 0};
Point(p16 + 32) = {19.21424416745851, 1.881646101333663, 0};
Point(p16 + 33) = {19.38812031572012, 1.953667960116818, 0};
Point(p16 + 34) = {19.54858905911576, 2.052003332541491, 0};
Point(p16 + 35) = {19.69169912461781, 2.174230875382196, 0};
Point(p16 + 36) = {19.81392666745851, 2.317340940884238, 0};
Point(p16 + 37) = {19.91226203988318, 2.477809684279878, 0};
Point(p16 + 38) = {19.98428389866634, 2.651685832541491, 0};
Point(p16 + 39) = {20.02821882661789, 2.834687977837023, 0};
Spline(16) = {12, p16 + 1, p16 + 2, p16 + 3, p16 + 4, p16 + 5, p16 + 6, p16 + 7, p16 + 8, p16 + 9, p16 + 10, p16 + 11, p16 + 12, p16 + 13, p16 + 14, p16 + 15, p16 + 16, p16 + 17, p16 + 18, p16 + 19, p16 + 20, p16 + 21, p16 + 22, p16 + 23, p16 + 24, p16 + 25, p16 + 26, p16 + 27, p16 + 28, p16 + 29, p16 + 30, p16 + 31, p16 + 32, p16 + 33, p16 + 34, p16 + 35, p16 + 36, p16 + 37, p16 + 38, p16 + 39, 12};
Line(17) = {11, 8};
Line(18) = {12, 9};
Curve Loop(1) = {-1, 4, 3, -2};
Plane Surface(1) = {1};
Curve Loop(2) = {-5, 1, 7, -6};
Plane Surface(2) = {2};
Curve Loop(3) = {-2, 7, 9, -8, -10, -11};
Plane Surface(3) = {3};
Curve Loop(4) = {-12, 3, 8, -13};
Plane Surface(4) = {4};
Curve Loop(5) = {-4, 5, 14, -12, -15, -16};
Plane Surface(5) = {5};
Curve Loop(6) = {-6, 14, 13, -9};
Plane Surface(6) = {6};
Curve Loop(7) = {-10, -17, 15, 17};
Surface(7) = {7};
Curve Loop(8) = {-11, -18, 16, 18};
Surface(8) = {8};
Surface Loop(1) = {1, 2, 3, 4, 5, 6, 7, 8};
Volume(1) = {1};
Physical Surface("INFLOW") = {1};
Physical Surface("OUTFLOW") = {6};
Physical Surface("OBSTACLE") = {7, 8};
Physical Surface("WALL_Y") = {2, 4};
Physical Surface("WALL_Z") = {3, 5};
Physical Volume("FLUID") = {1};
