cl__1 = 1;
cl__2 = 0.130881;
cl__3 = 0.118464;
Point(1) = {0.7371180000000001, -3.689002, 1, cl__1};
Point(2) = {0.7371180000000001, -3.689002, 0, cl__1};
Point(3) = {0.7371180000000001, 4.468449, 1, cl__1};
Point(4) = {0.7371180000000001, 4.468449, 0, cl__1};
Point(5) = {33.78358100000001, -3.689002, 0, cl__1};
Point(6) = {33.78358100000001, -3.689002, 1, cl__1};
Point(7) = {33.78358100000001, 4.468449, 1, cl__1};
Point(8) = {10.926212, 1.981664, 1, cl__2};
Point(9) = {31.926158, 2.509027, 1, cl__3};
Point(10) = {33.78358100000001, 4.468449, 0, cl__1};
Point(11) = {10.926212, 1.981664, 0, cl__2};
Point(12) = {31.926158, 2.509027, 0, cl__3};
Line(1) = {2, 1};
Line(2) = {1, 3};
Line(3) = {4, 3};
Line(4) = {2, 4};
Line(5) = {2, 5};
Line(6) = {5, 6};
Line(7) = {1, 6};
Line(8) = {3, 7};
Line(9) = {6, 7};
p10 = newp;
Point(p10 + 1) = {10.91009838936598, 2.186406835754839, 1};
Point(p10 + 2) = {10.86215432803574, 2.386108223390881, 1};
Point(p10 + 3) = {10.78356035791645, 2.575850851973617, 1};
Point(p10 + 4) = {10.67625172339088, 2.75096262826766, 1};
Point(p10 + 5) = {10.54287071917798, 2.907131719177984, 1};
Point(p10 + 6) = {10.38670162826766, 3.040512723390881, 1};
Point(p10 + 7) = {10.21158985197362, 3.147821357916453, 1};
Point(p10 + 8) = {10.02184722339088, 3.226415328035744, 1};
Point(p10 + 9) = {9.822145835754839, 3.274359389365982, 1};
Point(p10 + 10) = {9.617402999999999, 3.290473, 1};
Point(p10 + 11) = {9.41266016424516, 3.274359389365982, 1};
Point(p10 + 12) = {9.212958776609119, 3.226415328035744, 1};
Point(p10 + 13) = {9.023216148026384, 3.147821357916453, 1};
Point(p10 + 14) = {8.84810437173234, 3.040512723390881, 1};
Point(p10 + 15) = {8.691935280822015, 2.907131719177984, 1};
Point(p10 + 16) = {8.558554276609119, 2.75096262826766, 1};
Point(p10 + 17) = {8.451245642083546, 2.575850851973617, 1};
Point(p10 + 18) = {8.372651671964256, 2.386108223390881, 1};
Point(p10 + 19) = {8.324707610634018, 2.18640683575484, 1};
Point(p10 + 20) = {8.308593999999999, 1.981664, 1};
Point(p10 + 21) = {8.324707610634018, 1.776921164245161, 1};
Point(p10 + 22) = {8.372651671964256, 1.577219776609119, 1};
Point(p10 + 23) = {8.451245642083546, 1.387477148026384, 1};
Point(p10 + 24) = {8.558554276609119, 1.212365371732341, 1};
Point(p10 + 25) = {8.691935280822015, 1.056196280822016, 1};
Point(p10 + 26) = {8.84810437173234, 0.9228152766091198, 1};
Point(p10 + 27) = {9.023216148026382, 0.8155066420835468, 1};
Point(p10 + 28) = {9.212958776609119, 0.7369126719642567, 1};
Point(p10 + 29) = {9.41266016424516, 0.6889686106340187, 1};
Point(p10 + 30) = {9.617402999999999, 0.6728550000000002, 1};
Point(p10 + 31) = {9.822145835754839, 0.6889686106340185, 1};
Point(p10 + 32) = {10.02184722339088, 0.7369126719642565, 1};
Point(p10 + 33) = {10.21158985197362, 0.8155066420835466, 1};
Point(p10 + 34) = {10.38670162826766, 0.9228152766091193, 1};
Point(p10 + 35) = {10.54287071917798, 1.056196280822016, 1};
Point(p10 + 36) = {10.67625172339088, 1.21236537173234, 1};
Point(p10 + 37) = {10.78356035791645, 1.387477148026383, 1};
Point(p10 + 38) = {10.86215432803574, 1.577219776609119, 1};
Point(p10 + 39) = {10.91009838936598, 1.77692116424516, 1};
Spline(10) = {8, p10 + 1, p10 + 2, p10 + 3, p10 + 4, p10 + 5, p10 + 6, p10 + 7, p10 + 8, p10 + 9, p10 + 10, p10 + 11, p10 + 12, p10 + 13, p10 + 14, p10 + 15, p10 + 16, p10 + 17, p10 + 18, p10 + 19, p10 + 20, p10 + 21, p10 + 22, p10 + 23, p10 + 24, p10 + 25, p10 + 26, p10 + 27, p10 + 28, p10 + 29, p10 + 30, p10 + 31, p10 + 32, p10 + 33, p10 + 34, p10 + 35, p10 + 36, p10 + 37, p10 + 38, p10 + 39, 8};
p11 = newp;
Point(p11 + 1) = {31.91157311580263, 2.694345524665259, 1};
Point(p11 + 2) = {31.86817759146389, 2.875100892216338, 1};
Point(p11 + 3) = {31.79703996881451, 3.046842305611457, 1};
Point(p11 + 4) = {31.69991189221634, 3.205340921275755, 1};
Point(p11 + 5) = {31.57918497726483, 3.346693977264832, 1};
Point(p11 + 6) = {31.43783192127576, 3.467420892216338, 1};
Point(p11 + 7) = {31.27933330561146, 3.564548968814508, 1};
Point(p11 + 8) = {31.10759189221634, 3.635686591463891, 1};
Point(p11 + 9) = {30.92683652466526, 3.679082115802624, 1};
Point(p11 + 10) = {30.741518, 3.693667, 1};
Point(p11 + 11) = {30.55619947533474, 3.679082115802624, 1};
Point(p11 + 12) = {30.37544410778366, 3.635686591463891, 1};
Point(p11 + 13) = {30.20370269438854, 3.564548968814508, 1};
Point(p11 + 14) = {30.04520407872424, 3.467420892216338, 1};
Point(p11 + 15) = {29.90385102273517, 3.346693977264832, 1};
Point(p11 + 16) = {29.78312410778366, 3.205340921275756, 1};
Point(p11 + 17) = {29.68599603118549, 3.046842305611457, 1};
Point(p11 + 18) = {29.61485840853611, 2.875100892216338, 1};
Point(p11 + 19) = {29.57146288419738, 2.694345524665259, 1};
Point(p11 + 20) = {29.556878, 2.509027, 1};
Point(p11 + 21) = {29.57146288419737, 2.323708475334741, 1};
Point(p11 + 22) = {29.61485840853611, 2.142953107783662, 1};
Point(p11 + 23) = {29.68599603118549, 1.971211694388544, 1};
Point(p11 + 24) = {29.78312410778366, 1.812713078724245, 1};
Point(p11 + 25) = {29.90385102273517, 1.671360022735169, 1};
Point(p11 + 26) = {30.04520407872424, 1.550633107783663, 1};
Point(p11 + 27) = {30.20370269438854, 1.453505031185492, 1};
Point(p11 + 28) = {30.37544410778366, 1.38236740853611, 1};
Point(p11 + 29) = {30.55619947533474, 1.338971884197376, 1};
Point(p11 + 30) = {30.741518, 1.324387, 1};
Point(p11 + 31) = {30.92683652466526, 1.338971884197376, 1};
Point(p11 + 32) = {31.10759189221634, 1.382367408536109, 1};
Point(p11 + 33) = {31.27933330561146, 1.453505031185492, 1};
Point(p11 + 34) = {31.43783192127576, 1.550633107783662, 1};
Point(p11 + 35) = {31.57918497726483, 1.671360022735168, 1};
Point(p11 + 36) = {31.69991189221634, 1.812713078724244, 1};
Point(p11 + 37) = {31.79703996881451, 1.971211694388543, 1};
Point(p11 + 38) = {31.86817759146389, 2.142953107783662, 1};
Point(p11 + 39) = {31.91157311580262, 2.323708475334741, 1};
Spline(11) = {9, p11 + 1, p11 + 2, p11 + 3, p11 + 4, p11 + 5, p11 + 6, p11 + 7, p11 + 8, p11 + 9, p11 + 10, p11 + 11, p11 + 12, p11 + 13, p11 + 14, p11 + 15, p11 + 16, p11 + 17, p11 + 18, p11 + 19, p11 + 20, p11 + 21, p11 + 22, p11 + 23, p11 + 24, p11 + 25, p11 + 26, p11 + 27, p11 + 28, p11 + 29, p11 + 30, p11 + 31, p11 + 32, p11 + 33, p11 + 34, p11 + 35, p11 + 36, p11 + 37, p11 + 38, p11 + 39, 9};
Line(12) = {4, 10};
Line(13) = {10, 7};
Line(14) = {5, 10};
p15 = newp;
Point(p15 + 1) = {10.91009838936598, 2.186406835754839, 0};
Point(p15 + 2) = {10.86215432803574, 2.386108223390881, 0};
Point(p15 + 3) = {10.78356035791645, 2.575850851973617, 0};
Point(p15 + 4) = {10.67625172339088, 2.75096262826766, 0};
Point(p15 + 5) = {10.54287071917798, 2.907131719177984, 0};
Point(p15 + 6) = {10.38670162826766, 3.040512723390881, 0};
Point(p15 + 7) = {10.21158985197362, 3.147821357916453, 0};
Point(p15 + 8) = {10.02184722339088, 3.226415328035744, 0};
Point(p15 + 9) = {9.822145835754839, 3.274359389365982, 0};
Point(p15 + 10) = {9.617402999999999, 3.290473, 0};
Point(p15 + 11) = {9.41266016424516, 3.274359389365982, 0};
Point(p15 + 12) = {9.212958776609119, 3.226415328035744, 0};
Point(p15 + 13) = {9.023216148026384, 3.147821357916453, 0};
Point(p15 + 14) = {8.84810437173234, 3.040512723390881, 0};
Point(p15 + 15) = {8.691935280822015, 2.907131719177984, 0};
Point(p15 + 16) = {8.558554276609119, 2.75096262826766, 0};
Point(p15 + 17) = {8.451245642083546, 2.575850851973617, 0};
Point(p15 + 18) = {8.372651671964256, 2.386108223390881, 0};
Point(p15 + 19) = {8.324707610634018, 2.18640683575484, 0};
Point(p15 + 20) = {8.308593999999999, 1.981664, 0};
Point(p15 + 21) = {8.324707610634018, 1.776921164245161, 0};
Point(p15 + 22) = {8.372651671964256, 1.577219776609119, 0};
Point(p15 + 23) = {8.451245642083546, 1.387477148026384, 0};
Point(p15 + 24) = {8.558554276609119, 1.212365371732341, 0};
Point(p15 + 25) = {8.691935280822015, 1.056196280822016, 0};
Point(p15 + 26) = {8.84810437173234, 0.9228152766091198, 0};
Point(p15 + 27) = {9.023216148026382, 0.8155066420835468, 0};
Point(p15 + 28) = {9.212958776609119, 0.7369126719642567, 0};
Point(p15 + 29) = {9.41266016424516, 0.6889686106340187, 0};
Point(p15 + 30) = {9.617402999999999, 0.6728550000000002, 0};
Point(p15 + 31) = {9.822145835754839, 0.6889686106340185, 0};
Point(p15 + 32) = {10.02184722339088, 0.7369126719642565, 0};
Point(p15 + 33) = {10.21158985197362, 0.8155066420835466, 0};
Point(p15 + 34) = {10.38670162826766, 0.9228152766091193, 0};
Point(p15 + 35) = {10.54287071917798, 1.056196280822016, 0};
Point(p15 + 36) = {10.67625172339088, 1.21236537173234, 0};
Point(p15 + 37) = {10.78356035791645, 1.387477148026383, 0};
Point(p15 + 38) = {10.86215432803574, 1.577219776609119, 0};
Point(p15 + 39) = {10.91009838936598, 1.77692116424516, 0};
Spline(15) = {11, p15 + 1, p15 + 2, p15 + 3, p15 + 4, p15 + 5, p15 + 6, p15 + 7, p15 + 8, p15 + 9, p15 + 10, p15 + 11, p15 + 12, p15 + 13, p15 + 14, p15 + 15, p15 + 16, p15 + 17, p15 + 18, p15 + 19, p15 + 20, p15 + 21, p15 + 22, p15 + 23, p15 + 24, p15 + 25, p15 + 26, p15 + 27, p15 + 28, p15 + 29, p15 + 30, p15 + 31, p15 + 32, p15 + 33, p15 + 34, p15 + 35, p15 + 36, p15 + 37, p15 + 38, p15 + 39, 11};
p16 = newp;
Point(p16 + 1) = {31.91157311580263, 2.694345524665259, 0};
Point(p16 + 2) = {31.86817759146389, 2.875100892216338, 0};
Point(p16 + 3) = {31.79703996881451, 3.046842305611457, 0};
Point(p16 + 4) = {31.69991189221634, 3.205340921275755, 0};
Point(p16 + 5) = {31.57918497726483, 3.346693977264832, 0};
Point(p16 + 6) = {31.43783192127576, 3.467420892216338, 0};
Point(p16 + 7) = {31.27933330561146, 3.564548968814508, 0};
Point(p16 + 8) = {31.10759189221634, 3.635686591463891, 0};
Point(p16 + 9) = {30.92683652466526, 3.679082115802624, 0};
Point(p16 + 10) = {30.741518, 3.693667, 0};
Point(p16 + 11) = {30.55619947533474, 3.679082115802624, 0};
Point(p16 + 12) = {30.37544410778366, 3.635686591463891, 0};
Point(p16 + 13) = {30.20370269438854, 3.564548968814508, 0};
Point(p16 + 14) = {30.04520407872424, 3.467420892216338, 0};
Point(p16 + 15) = {29.90385102273517, 3.346693977264832, 0};
Point(p16 + 16) = {29.78312410778366, 3.205340921275756, 0};
Point(p16 + 17) = {29.68599603118549, 3.046842305611457, 0};
Point(p16 + 18) = {29.61485840853611, 2.875100892216338, 0};
Point(p16 + 19) = {29.57146288419738, 2.694345524665259, 0};
Point(p16 + 20) = {29.556878, 2.509027, 0};
Point(p16 + 21) = {29.57146288419737, 2.323708475334741, 0};
Point(p16 + 22) = {29.61485840853611, 2.142953107783662, 0};
Point(p16 + 23) = {29.68599603118549, 1.971211694388544, 0};
Point(p16 + 24) = {29.78312410778366, 1.812713078724245, 0};
Point(p16 + 25) = {29.90385102273517, 1.671360022735169, 0};
Point(p16 + 26) = {30.04520407872424, 1.550633107783663, 0};
Point(p16 + 27) = {30.20370269438854, 1.453505031185492, 0};
Point(p16 + 28) = {30.37544410778366, 1.38236740853611, 0};
Point(p16 + 29) = {30.55619947533474, 1.338971884197376, 0};
Point(p16 + 30) = {30.741518, 1.324387, 0};
Point(p16 + 31) = {30.92683652466526, 1.338971884197376, 0};
Point(p16 + 32) = {31.10759189221634, 1.382367408536109, 0};
Point(p16 + 33) = {31.27933330561146, 1.453505031185492, 0};
Point(p16 + 34) = {31.43783192127576, 1.550633107783662, 0};
Point(p16 + 35) = {31.57918497726483, 1.671360022735168, 0};
Point(p16 + 36) = {31.69991189221634, 1.812713078724244, 0};
Point(p16 + 37) = {31.79703996881451, 1.971211694388543, 0};
Point(p16 + 38) = {31.86817759146389, 2.142953107783662, 0};
Point(p16 + 39) = {31.91157311580262, 2.323708475334741, 0};
Spline(16) = {12, p16 + 1, p16 + 2, p16 + 3, p16 + 4, p16 + 5, p16 + 6, p16 + 7, p16 + 8, p16 + 9, p16 + 10, p16 + 11, p16 + 12, p16 + 13, p16 + 14, p16 + 15, p16 + 16, p16 + 17, p16 + 18, p16 + 19, p16 + 20, p16 + 21, p16 + 22, p16 + 23, p16 + 24, p16 + 25, p16 + 26, p16 + 27, p16 + 28, p16 + 29, p16 + 30, p16 + 31, p16 + 32, p16 + 33, p16 + 34, p16 + 35, p16 + 36, p16 + 37, p16 + 38, p16 + 39, 12};
Line(17) = {11, 8};
Line(18) = {12, 9};
Curve Loop(1) = {-1, 4, 3, -2};
Plane Surface(1) = {1};
Curve Loop(2) = {-5, 1, 7, -6};
Plane Surface(2) = {2};
Curve Loop(3) = {-2, 7, 9, -8, -10, -11};
Plane Surface(3) = {3};
Curve Loop(4) = {-12, 3, 8, -13};
Plane Surface(4) = {4};
Curve Loop(5) = {-4, 5, 14, -12, -15, -16};
Plane Surface(5) = {5};
Curve Loop(6) = {-6, 14, 13, -9};
Plane Surface(6) = {6};
Curve Loop(7) = {-10, -17, 15, 17};
Surface(7) = {7};
Curve Loop(8) = {-11, -18, 16, 18};
Surface(8) = {8};
Surface Loop(1) = {1, 2, 3, 4, 5, 6, 7, 8};
Volume(1) = {1};
Physical Surface("INFLOW") = {1};
Physical Surface("OUTFLOW") = {6};
Physical Surface("OBSTACLE") = {7, 8};
Physical Surface("WALL_Y") = {2, 4};
Physical Surface("WALL_Z") = {3, 5};
Physical Volume("FLUID") = {1};
