cl__1 = 0.914167;
cl__2 = 0.5617180000000001;
cl__3 = 3.285771;
cl__4 = 0.100252;
cl__5 = 0.081098;
Point(1) = {0.323602, -3.796354, 1, cl__1};
Point(2) = {0.323602, -3.796354, 0, cl__1};
Point(3) = {0.323602, 4.292449, 1, cl__2};
Point(4) = {0.323602, 4.292449, 0, cl__2};
Point(5) = {32.607853, -3.796354, 0, cl__1};
Point(6) = {32.607853, -3.796354, 1, cl__1};
Point(7) = {32.607853, 4.292449, 1, cl__3};
Point(8) = {11.006816, -0.7650660000000002, 1, cl__4};
Point(9) = {29.998866, 1.646533, 1, cl__5};
Point(10) = {32.607853, 4.292449, 0, cl__3};
Point(11) = {11.006816, -0.7650660000000002, 0, cl__4};
Point(12) = {29.998866, 1.646533, 0, cl__5};
Line(1) = {2, 1};
Line(2) = {1, 3};
Line(3) = {4, 3};
Line(4) = {2, 4};
Line(5) = {2, 5};
Line(6) = {5, 6};
Line(7) = {1, 6};
Line(8) = {3, 7};
Line(9) = {6, 7};
p10 = newp;
Point(p10 + 1) = {10.99447331521344, -0.6082373201078678, 1};
Point(p10 + 2) = {10.95774917871622, -0.4552702827992277, 1};
Point(p10 + 3) = {10.89754786062932, -0.3099314442011096, 1};
Point(p10 + 4) = {10.81535171720077, -0.1757995288717498, 1};
Point(p10 + 5) = {10.71318469027514, -0.05617730972486246, 1};
Point(p10 + 6) = {10.59356247112825, 0.04598971720077238, 1};
Point(p10 + 7) = {10.45943055579889, 0.1281858606293225, 1};
Point(p10 + 8) = {10.31409171720077, 0.1883871787162174, 1};
Point(p10 + 9) = {10.16112467989213, 0.2251113152134375, 1};
Point(p10 + 10) = {10.004296, 0.2374540000000001, 1};
Point(p10 + 11) = {9.847467320107867, 0.2251113152134374, 1};
Point(p10 + 12) = {9.694500282799227, 0.1883871787162175, 1};
Point(p10 + 13) = {9.549161444201109, 0.1281858606293226, 1};
Point(p10 + 14) = {9.41502952887175, 0.04598971720077238, 1};
Point(p10 + 15) = {9.295407309724862, -0.05617730972486235, 1};
Point(p10 + 16) = {9.193240282799227, -0.1757995288717497, 1};
Point(p10 + 17) = {9.111044139370678, -0.3099314442011095, 1};
Point(p10 + 18) = {9.050842821283783, -0.4552702827992276, 1};
Point(p10 + 19) = {9.014118684786563, -0.6082373201078677, 1};
Point(p10 + 20) = {9.001776, -0.7650659999999999, 1};
Point(p10 + 21) = {9.014118684786563, -0.9218946798921321, 1};
Point(p10 + 22) = {9.050842821283783, -1.074861717200773, 1};
Point(p10 + 23) = {9.111044139370676, -1.22020055579889, 1};
Point(p10 + 24) = {9.193240282799227, -1.35433247112825, 1};
Point(p10 + 25) = {9.295407309724862, -1.473954690275137, 1};
Point(p10 + 26) = {9.41502952887175, -1.576121717200772, 1};
Point(p10 + 27) = {9.549161444201109, -1.658317860629323, 1};
Point(p10 + 28) = {9.694500282799227, -1.718519178716218, 1};
Point(p10 + 29) = {9.847467320107867, -1.755243315213437, 1};
Point(p10 + 30) = {10.004296, -1.767586, 1};
Point(p10 + 31) = {10.16112467989213, -1.755243315213438, 1};
Point(p10 + 32) = {10.31409171720077, -1.718519178716218, 1};
Point(p10 + 33) = {10.45943055579889, -1.658317860629323, 1};
Point(p10 + 34) = {10.59356247112825, -1.576121717200773, 1};
Point(p10 + 35) = {10.71318469027514, -1.473954690275138, 1};
Point(p10 + 36) = {10.81535171720077, -1.354332471128251, 1};
Point(p10 + 37) = {10.89754786062932, -1.220200555798891, 1};
Point(p10 + 38) = {10.95774917871622, -1.074861717200773, 1};
Point(p10 + 39) = {10.99447331521344, -0.9218946798921325, 1};
Spline(10) = {8, p10 + 1, p10 + 2, p10 + 3, p10 + 4, p10 + 5, p10 + 6, p10 + 7, p10 + 8, p10 + 9, p10 + 10, p10 + 11, p10 + 12, p10 + 13, p10 + 14, p10 + 15, p10 + 16, p10 + 17, p10 + 18, p10 + 19, p10 + 20, p10 + 21, p10 + 22, p10 + 23, p10 + 24, p10 + 25, p10 + 26, p10 + 27, p10 + 28, p10 + 29, p10 + 30, p10 + 31, p10 + 32, p10 + 33, p10 + 34, p10 + 35, p10 + 36, p10 + 37, p10 + 38, p10 + 39, 8};
p11 = newp;
Point(p11 + 1) = {29.98888151507916, 1.773397909589396, 1};
Point(p11 + 2) = {29.95917391147201, 1.897138984064206, 1};
Point(p11 + 3) = {29.91047468897323, 2.014709307497778, 1};
Point(p11 + 4) = {29.84398298406421, 2.123213908333645, 1};
Point(p11 + 5) = {29.7613360431931, 2.219981043193104, 1};
Point(p11 + 6) = {29.66456890833365, 2.302627984064206, 1};
Point(p11 + 7) = {29.55606430749778, 2.369119688973234, 1};
Point(p11 + 8) = {29.43849398406421, 2.417818911472011, 1};
Point(p11 + 9) = {29.3147529095894, 2.447526515079164, 1};
Point(p11 + 10) = {29.187888, 2.457511, 1};
Point(p11 + 11) = {29.0610230904106, 2.447526515079164, 1};
Point(p11 + 12) = {28.9372820159358, 2.417818911472011, 1};
Point(p11 + 13) = {28.81971169250222, 2.369119688973234, 1};
Point(p11 + 14) = {28.71120709166636, 2.302627984064206, 1};
Point(p11 + 15) = {28.6144399568069, 2.219981043193104, 1};
Point(p11 + 16) = {28.53179301593579, 2.123213908333645, 1};
Point(p11 + 17) = {28.46530131102677, 2.014709307497778, 1};
Point(p11 + 18) = {28.41660208852799, 1.897138984064206, 1};
Point(p11 + 19) = {28.38689448492084, 1.773397909589396, 1};
Point(p11 + 20) = {28.37691, 1.646533, 1};
Point(p11 + 21) = {28.38689448492084, 1.519668090410604, 1};
Point(p11 + 22) = {28.41660208852799, 1.395927015935794, 1};
Point(p11 + 23) = {28.46530131102677, 1.278356692502222, 1};
Point(p11 + 24) = {28.53179301593579, 1.169852091666355, 1};
Point(p11 + 25) = {28.6144399568069, 1.073084956806896, 1};
Point(p11 + 26) = {28.71120709166636, 0.9904380159357939, 1};
Point(p11 + 27) = {28.81971169250222, 0.9239463110267659, 1};
Point(p11 + 28) = {28.9372820159358, 0.875247088527989, 1};
Point(p11 + 29) = {29.0610230904106, 0.8455394849208365, 1};
Point(p11 + 30) = {29.187888, 0.835555, 1};
Point(p11 + 31) = {29.3147529095894, 0.8455394849208364, 1};
Point(p11 + 32) = {29.43849398406421, 0.8752470885279889, 1};
Point(p11 + 33) = {29.55606430749778, 0.9239463110267658, 1};
Point(p11 + 34) = {29.66456890833365, 0.9904380159357938, 1};
Point(p11 + 35) = {29.7613360431931, 1.073084956806896, 1};
Point(p11 + 36) = {29.84398298406421, 1.169852091666355, 1};
Point(p11 + 37) = {29.91047468897323, 1.278356692502222, 1};
Point(p11 + 38) = {29.95917391147201, 1.395927015935794, 1};
Point(p11 + 39) = {29.98888151507916, 1.519668090410603, 1};
Spline(11) = {9, p11 + 1, p11 + 2, p11 + 3, p11 + 4, p11 + 5, p11 + 6, p11 + 7, p11 + 8, p11 + 9, p11 + 10, p11 + 11, p11 + 12, p11 + 13, p11 + 14, p11 + 15, p11 + 16, p11 + 17, p11 + 18, p11 + 19, p11 + 20, p11 + 21, p11 + 22, p11 + 23, p11 + 24, p11 + 25, p11 + 26, p11 + 27, p11 + 28, p11 + 29, p11 + 30, p11 + 31, p11 + 32, p11 + 33, p11 + 34, p11 + 35, p11 + 36, p11 + 37, p11 + 38, p11 + 39, 9};
Line(12) = {4, 10};
Line(13) = {10, 7};
Line(14) = {5, 10};
p15 = newp;
Point(p15 + 1) = {10.99447331521344, -0.6082373201078678, 0};
Point(p15 + 2) = {10.95774917871622, -0.4552702827992277, 0};
Point(p15 + 3) = {10.89754786062932, -0.3099314442011096, 0};
Point(p15 + 4) = {10.81535171720077, -0.1757995288717498, 0};
Point(p15 + 5) = {10.71318469027514, -0.05617730972486246, 0};
Point(p15 + 6) = {10.59356247112825, 0.04598971720077238, 0};
Point(p15 + 7) = {10.45943055579889, 0.1281858606293225, 0};
Point(p15 + 8) = {10.31409171720077, 0.1883871787162174, 0};
Point(p15 + 9) = {10.16112467989213, 0.2251113152134375, 0};
Point(p15 + 10) = {10.004296, 0.2374540000000001, 0};
Point(p15 + 11) = {9.847467320107867, 0.2251113152134374, 0};
Point(p15 + 12) = {9.694500282799227, 0.1883871787162175, 0};
Point(p15 + 13) = {9.549161444201109, 0.1281858606293226, 0};
Point(p15 + 14) = {9.41502952887175, 0.04598971720077238, 0};
Point(p15 + 15) = {9.295407309724862, -0.05617730972486235, 0};
Point(p15 + 16) = {9.193240282799227, -0.1757995288717497, 0};
Point(p15 + 17) = {9.111044139370678, -0.3099314442011095, 0};
Point(p15 + 18) = {9.050842821283783, -0.4552702827992276, 0};
Point(p15 + 19) = {9.014118684786563, -0.6082373201078677, 0};
Point(p15 + 20) = {9.001776, -0.7650659999999999, 0};
Point(p15 + 21) = {9.014118684786563, -0.9218946798921321, 0};
Point(p15 + 22) = {9.050842821283783, -1.074861717200773, 0};
Point(p15 + 23) = {9.111044139370676, -1.22020055579889, 0};
Point(p15 + 24) = {9.193240282799227, -1.35433247112825, 0};
Point(p15 + 25) = {9.295407309724862, -1.473954690275137, 0};
Point(p15 + 26) = {9.41502952887175, -1.576121717200772, 0};
Point(p15 + 27) = {9.549161444201109, -1.658317860629323, 0};
Point(p15 + 28) = {9.694500282799227, -1.718519178716218, 0};
Point(p15 + 29) = {9.847467320107867, -1.755243315213437, 0};
Point(p15 + 30) = {10.004296, -1.767586, 0};
Point(p15 + 31) = {10.16112467989213, -1.755243315213438, 0};
Point(p15 + 32) = {10.31409171720077, -1.718519178716218, 0};
Point(p15 + 33) = {10.45943055579889, -1.658317860629323, 0};
Point(p15 + 34) = {10.59356247112825, -1.576121717200773, 0};
Point(p15 + 35) = {10.71318469027514, -1.473954690275138, 0};
Point(p15 + 36) = {10.81535171720077, -1.354332471128251, 0};
Point(p15 + 37) = {10.89754786062932, -1.220200555798891, 0};
Point(p15 + 38) = {10.95774917871622, -1.074861717200773, 0};
Point(p15 + 39) = {10.99447331521344, -0.9218946798921325, 0};
Spline(15) = {11, p15 + 1, p15 + 2, p15 + 3, p15 + 4, p15 + 5, p15 + 6, p15 + 7, p15 + 8, p15 + 9, p15 + 10, p15 + 11, p15 + 12, p15 + 13, p15 + 14, p15 + 15, p15 + 16, p15 + 17, p15 + 18, p15 + 19, p15 + 20, p15 + 21, p15 + 22, p15 + 23, p15 + 24, p15 + 25, p15 + 26, p15 + 27, p15 + 28, p15 + 29, p15 + 30, p15 + 31, p15 + 32, p15 + 33, p15 + 34, p15 + 35, p15 + 36, p15 + 37, p15 + 38, p15 + 39, 11};
p16 = newp;
Point(p16 + 1) = {29.98888151507916, 1.773397909589396, 0};
Point(p16 + 2) = {29.95917391147201, 1.897138984064206, 0};
Point(p16 + 3) = {29.91047468897323, 2.014709307497778, 0};
Point(p16 + 4) = {29.84398298406421, 2.123213908333645, 0};
Point(p16 + 5) = {29.7613360431931, 2.219981043193104, 0};
Point(p16 + 6) = {29.66456890833365, 2.302627984064206, 0};
Point(p16 + 7) = {29.55606430749778, 2.369119688973234, 0};
Point(p16 + 8) = {29.43849398406421, 2.417818911472011, 0};
Point(p16 + 9) = {29.3147529095894, 2.447526515079164, 0};
Point(p16 + 10) = {29.187888, 2.457511, 0};
Point(p16 + 11) = {29.0610230904106, 2.447526515079164, 0};
Point(p16 + 12) = {28.9372820159358, 2.417818911472011, 0};
Point(p16 + 13) = {28.81971169250222, 2.369119688973234, 0};
Point(p16 + 14) = {28.71120709166636, 2.302627984064206, 0};
Point(p16 + 15) = {28.6144399568069, 2.219981043193104, 0};
Point(p16 + 16) = {28.53179301593579, 2.123213908333645, 0};
Point(p16 + 17) = {28.46530131102677, 2.014709307497778, 0};
Point(p16 + 18) = {28.41660208852799, 1.897138984064206, 0};
Point(p16 + 19) = {28.38689448492084, 1.773397909589396, 0};
Point(p16 + 20) = {28.37691, 1.646533, 0};
Point(p16 + 21) = {28.38689448492084, 1.519668090410604, 0};
Point(p16 + 22) = {28.41660208852799, 1.395927015935794, 0};
Point(p16 + 23) = {28.46530131102677, 1.278356692502222, 0};
Point(p16 + 24) = {28.53179301593579, 1.169852091666355, 0};
Point(p16 + 25) = {28.6144399568069, 1.073084956806896, 0};
Point(p16 + 26) = {28.71120709166636, 0.9904380159357939, 0};
Point(p16 + 27) = {28.81971169250222, 0.9239463110267659, 0};
Point(p16 + 28) = {28.9372820159358, 0.875247088527989, 0};
Point(p16 + 29) = {29.0610230904106, 0.8455394849208365, 0};
Point(p16 + 30) = {29.187888, 0.835555, 0};
Point(p16 + 31) = {29.3147529095894, 0.8455394849208364, 0};
Point(p16 + 32) = {29.43849398406421, 0.8752470885279889, 0};
Point(p16 + 33) = {29.55606430749778, 0.9239463110267658, 0};
Point(p16 + 34) = {29.66456890833365, 0.9904380159357938, 0};
Point(p16 + 35) = {29.7613360431931, 1.073084956806896, 0};
Point(p16 + 36) = {29.84398298406421, 1.169852091666355, 0};
Point(p16 + 37) = {29.91047468897323, 1.278356692502222, 0};
Point(p16 + 38) = {29.95917391147201, 1.395927015935794, 0};
Point(p16 + 39) = {29.98888151507916, 1.519668090410603, 0};
Spline(16) = {12, p16 + 1, p16 + 2, p16 + 3, p16 + 4, p16 + 5, p16 + 6, p16 + 7, p16 + 8, p16 + 9, p16 + 10, p16 + 11, p16 + 12, p16 + 13, p16 + 14, p16 + 15, p16 + 16, p16 + 17, p16 + 18, p16 + 19, p16 + 20, p16 + 21, p16 + 22, p16 + 23, p16 + 24, p16 + 25, p16 + 26, p16 + 27, p16 + 28, p16 + 29, p16 + 30, p16 + 31, p16 + 32, p16 + 33, p16 + 34, p16 + 35, p16 + 36, p16 + 37, p16 + 38, p16 + 39, 12};
Line(17) = {11, 8};
Line(18) = {12, 9};
Curve Loop(1) = {-1, 4, 3, -2};
Plane Surface(1) = {1};
Curve Loop(2) = {-5, 1, 7, -6};
Plane Surface(2) = {2};
Curve Loop(3) = {-2, 7, 9, -8, -10, -11};
Plane Surface(3) = {3};
Curve Loop(4) = {-12, 3, 8, -13};
Plane Surface(4) = {4};
Curve Loop(5) = {-4, 5, 14, -12, -15, -16};
Plane Surface(5) = {5};
Curve Loop(6) = {-6, 14, 13, -9};
Plane Surface(6) = {6};
Curve Loop(7) = {-10, -17, 15, 17};
Surface(7) = {7};
Curve Loop(8) = {-11, -18, 16, 18};
Surface(8) = {8};
Surface Loop(1) = {1, 2, 3, 4, 5, 6, 7, 8};
Volume(1) = {1};
Physical Surface("INFLOW") = {1};
Physical Surface("OUTFLOW") = {6};
Physical Surface("OBSTACLE") = {7, 8};
Physical Surface("WALL_Y") = {2, 4};
Physical Surface("WALL_Z") = {3, 5};
Physical Volume("FLUID") = {1};
