cl__1 = 0.421151;
cl__2 = 0.426728;
cl__3 = 3.72536;
cl__4 = 0.051415;
cl__5 = 0.126219;
Point(1) = {0.745935, -3.757854, 1, cl__1};
Point(2) = {0.745935, -3.757854, 0, cl__1};
Point(3) = {0.745935, 4.419437, 1, cl__2};
Point(4) = {0.745935, 4.419437, 0, cl__2};
Point(5) = {37.02854900000001, -3.757854, 0, cl__3};
Point(6) = {37.02854900000001, -3.757854, 1, cl__3};
Point(7) = {37.02854900000001, 4.419437, 1, cl__3};
Point(8) = {8.937520000000001, -2.6213, 1, cl__4};
Point(9) = {5.689128999999999, 0.2932699999999997, 1, cl__5};
Point(10) = {37.02854900000001, 4.419437, 0, cl__3};
Point(11) = {8.937520000000001, -2.6213, 0, cl__4};
Point(12) = {5.689128999999999, 0.2932699999999997, 0, cl__5};
Line(1) = {2, 1};
Line(2) = {1, 3};
Line(3) = {4, 3};
Line(4) = {2, 4};
Line(5) = {2, 5};
Line(6) = {5, 6};
Line(7) = {1, 6};
Line(8) = {3, 7};
Line(9) = {6, 7};
p10 = newp;
Point(p10 + 1) = {8.931189984940309, -2.540869532668495, 1};
Point(p10 + 2) = {8.912355805740122, -2.46241953037611, 1};
Point(p10 + 3) = {8.881481222398401, -2.387881692539912, 1};
Point(p10 + 4) = {8.839326469623892, -2.31909138810433, 1};
Point(p10 + 5) = {8.786929537333501, -2.257742462666499, 1};
Point(p10 + 6) = {8.725580611895671, -2.20534553037611, 1};
Point(p10 + 7) = {8.656790307460088, -2.163190777601599, 1};
Point(p10 + 8) = {8.58225246962389, -2.13231619425988, 1};
Point(p10 + 9) = {8.503802467331505, -2.113482015059691, 1};
Point(p10 + 10) = {8.423372000000001, -2.107152, 1};
Point(p10 + 11) = {8.342941532668496, -2.113482015059692, 1};
Point(p10 + 12) = {8.264491530376111, -2.13231619425988, 1};
Point(p10 + 13) = {8.189953692539913, -2.163190777601599, 1};
Point(p10 + 14) = {8.12116338810433, -2.20534553037611, 1};
Point(p10 + 15) = {8.0598144626665, -2.257742462666499, 1};
Point(p10 + 16) = {8.007417530376109, -2.31909138810433, 1};
Point(p10 + 17) = {7.965262777601599, -2.387881692539912, 1};
Point(p10 + 18) = {7.93438819425988, -2.46241953037611, 1};
Point(p10 + 19) = {7.915554015059691, -2.540869532668495, 1};
Point(p10 + 20) = {7.909224, -2.6213, 1};
Point(p10 + 21) = {7.915554015059691, -2.701730467331505, 1};
Point(p10 + 22) = {7.93438819425988, -2.780180469623891, 1};
Point(p10 + 23) = {7.965262777601599, -2.854718307460089, 1};
Point(p10 + 24) = {8.007417530376109, -2.923508611895671, 1};
Point(p10 + 25) = {8.0598144626665, -2.984857537333501, 1};
Point(p10 + 26) = {8.12116338810433, -3.037254469623891, 1};
Point(p10 + 27) = {8.189953692539913, -3.079409222398401, 1};
Point(p10 + 28) = {8.264491530376111, -3.110283805740121, 1};
Point(p10 + 29) = {8.342941532668496, -3.129117984940309, 1};
Point(p10 + 30) = {8.423372000000001, -3.135448, 1};
Point(p10 + 31) = {8.503802467331505, -3.129117984940309, 1};
Point(p10 + 32) = {8.58225246962389, -3.110283805740121, 1};
Point(p10 + 33) = {8.656790307460088, -3.079409222398401, 1};
Point(p10 + 34) = {8.725580611895671, -3.037254469623891, 1};
Point(p10 + 35) = {8.786929537333501, -2.984857537333501, 1};
Point(p10 + 36) = {8.839326469623892, -2.923508611895671, 1};
Point(p10 + 37) = {8.881481222398401, -2.854718307460089, 1};
Point(p10 + 38) = {8.912355805740122, -2.780180469623891, 1};
Point(p10 + 39) = {8.931189984940309, -2.701730467331505, 1};
Spline(10) = {8, p10 + 1, p10 + 2, p10 + 3, p10 + 4, p10 + 5, p10 + 6, p10 + 7, p10 + 8, p10 + 9, p10 + 10, p10 + 11, p10 + 12, p10 + 13, p10 + 14, p10 + 15, p10 + 16, p10 + 17, p10 + 18, p10 + 19, p10 + 20, p10 + 21, p10 + 22, p10 + 23, p10 + 24, p10 + 25, p10 + 26, p10 + 27, p10 + 28, p10 + 29, p10 + 30, p10 + 31, p10 + 32, p10 + 33, p10 + 34, p10 + 35, p10 + 36, p10 + 37, p10 + 38, p10 + 39, 8};
p11 = newp;
Point(p11 + 1) = {5.673589346615777, 0.490720017429129, 1};
Point(p11 + 2) = {5.62735302430258, 0.6833081601301148, 1};
Point(p11 + 3) = {5.551558524765316, 0.8662922688662584, 1};
Point(p11 + 4) = {5.448072160130115, 1.035166667591037, 1};
Point(p11 + 5) = {5.319442108145848, 1.185773108145848, 1};
Point(p11 + 6) = {5.168835667591036, 1.314403160130115, 1};
Point(p11 + 7) = {4.999961268866258, 1.417889524765316, 1};
Point(p11 + 8) = {4.816977160130115, 1.49368402430258, 1};
Point(p11 + 9) = {4.624389017429129, 1.539920346615777, 1};
Point(p11 + 10) = {4.426939, 1.55546, 1};
Point(p11 + 11) = {4.229488982570871, 1.539920346615777, 1};
Point(p11 + 12) = {4.036900839869885, 1.49368402430258, 1};
Point(p11 + 13) = {3.853916731133741, 1.417889524765316, 1};
Point(p11 + 14) = {3.685042332408964, 1.314403160130115, 1};
Point(p11 + 15) = {3.534435891854152, 1.185773108145848, 1};
Point(p11 + 16) = {3.405805839869885, 1.035166667591037, 1};
Point(p11 + 17) = {3.302319475234684, 0.8662922688662587, 1};
Point(p11 + 18) = {3.22652497569742, 0.683308160130115, 1};
Point(p11 + 19) = {3.180288653384223, 0.4907200174291291, 1};
Point(p11 + 20) = {3.164749, 0.2932700000000001, 1};
Point(p11 + 21) = {3.180288653384223, 0.09581998257087115, 1};
Point(p11 + 22) = {3.22652497569742, -0.0967681601301153, 1};
Point(p11 + 23) = {3.302319475234683, -0.2797522688662579, 1};
Point(p11 + 24) = {3.405805839869885, -0.4486266675910365, 1};
Point(p11 + 25) = {3.534435891854152, -0.5992331081458484, 1};
Point(p11 + 26) = {3.685042332408963, -0.7278631601301149, 1};
Point(p11 + 27) = {3.853916731133741, -0.831349524765316, 1};
Point(p11 + 28) = {4.036900839869885, -0.9071440243025799, 1};
Point(p11 + 29) = {4.229488982570871, -0.9533803466157769, 1};
Point(p11 + 30) = {4.426939, -0.96892, 1};
Point(p11 + 31) = {4.624389017429129, -0.9533803466157769, 1};
Point(p11 + 32) = {4.816977160130115, -0.9071440243025799, 1};
Point(p11 + 33) = {4.999961268866258, -0.831349524765316, 1};
Point(p11 + 34) = {5.168835667591036, -0.7278631601301151, 1};
Point(p11 + 35) = {5.319442108145848, -0.5992331081458486, 1};
Point(p11 + 36) = {5.448072160130115, -0.4486266675910369, 1};
Point(p11 + 37) = {5.551558524765316, -0.2797522688662588, 1};
Point(p11 + 38) = {5.62735302430258, -0.09676816013011513, 1};
Point(p11 + 39) = {5.673589346615777, 0.09581998257087071, 1};
Spline(11) = {9, p11 + 1, p11 + 2, p11 + 3, p11 + 4, p11 + 5, p11 + 6, p11 + 7, p11 + 8, p11 + 9, p11 + 10, p11 + 11, p11 + 12, p11 + 13, p11 + 14, p11 + 15, p11 + 16, p11 + 17, p11 + 18, p11 + 19, p11 + 20, p11 + 21, p11 + 22, p11 + 23, p11 + 24, p11 + 25, p11 + 26, p11 + 27, p11 + 28, p11 + 29, p11 + 30, p11 + 31, p11 + 32, p11 + 33, p11 + 34, p11 + 35, p11 + 36, p11 + 37, p11 + 38, p11 + 39, 9};
Line(12) = {4, 10};
Line(13) = {10, 7};
Line(14) = {5, 10};
p15 = newp;
Point(p15 + 1) = {8.931189984940309, -2.540869532668495, 0};
Point(p15 + 2) = {8.912355805740122, -2.46241953037611, 0};
Point(p15 + 3) = {8.881481222398401, -2.387881692539912, 0};
Point(p15 + 4) = {8.839326469623892, -2.31909138810433, 0};
Point(p15 + 5) = {8.786929537333501, -2.257742462666499, 0};
Point(p15 + 6) = {8.725580611895671, -2.20534553037611, 0};
Point(p15 + 7) = {8.656790307460088, -2.163190777601599, 0};
Point(p15 + 8) = {8.58225246962389, -2.13231619425988, 0};
Point(p15 + 9) = {8.503802467331505, -2.113482015059691, 0};
Point(p15 + 10) = {8.423372000000001, -2.107152, 0};
Point(p15 + 11) = {8.342941532668496, -2.113482015059692, 0};
Point(p15 + 12) = {8.264491530376111, -2.13231619425988, 0};
Point(p15 + 13) = {8.189953692539913, -2.163190777601599, 0};
Point(p15 + 14) = {8.12116338810433, -2.20534553037611, 0};
Point(p15 + 15) = {8.0598144626665, -2.257742462666499, 0};
Point(p15 + 16) = {8.007417530376109, -2.31909138810433, 0};
Point(p15 + 17) = {7.965262777601599, -2.387881692539912, 0};
Point(p15 + 18) = {7.93438819425988, -2.46241953037611, 0};
Point(p15 + 19) = {7.915554015059691, -2.540869532668495, 0};
Point(p15 + 20) = {7.909224, -2.6213, 0};
Point(p15 + 21) = {7.915554015059691, -2.701730467331505, 0};
Point(p15 + 22) = {7.93438819425988, -2.780180469623891, 0};
Point(p15 + 23) = {7.965262777601599, -2.854718307460089, 0};
Point(p15 + 24) = {8.007417530376109, -2.923508611895671, 0};
Point(p15 + 25) = {8.0598144626665, -2.984857537333501, 0};
Point(p15 + 26) = {8.12116338810433, -3.037254469623891, 0};
Point(p15 + 27) = {8.189953692539913, -3.079409222398401, 0};
Point(p15 + 28) = {8.264491530376111, -3.110283805740121, 0};
Point(p15 + 29) = {8.342941532668496, -3.129117984940309, 0};
Point(p15 + 30) = {8.423372000000001, -3.135448, 0};
Point(p15 + 31) = {8.503802467331505, -3.129117984940309, 0};
Point(p15 + 32) = {8.58225246962389, -3.110283805740121, 0};
Point(p15 + 33) = {8.656790307460088, -3.079409222398401, 0};
Point(p15 + 34) = {8.725580611895671, -3.037254469623891, 0};
Point(p15 + 35) = {8.786929537333501, -2.984857537333501, 0};
Point(p15 + 36) = {8.839326469623892, -2.923508611895671, 0};
Point(p15 + 37) = {8.881481222398401, -2.854718307460089, 0};
Point(p15 + 38) = {8.912355805740122, -2.780180469623891, 0};
Point(p15 + 39) = {8.931189984940309, -2.701730467331505, 0};
Spline(15) = {11, p15 + 1, p15 + 2, p15 + 3, p15 + 4, p15 + 5, p15 + 6, p15 + 7, p15 + 8, p15 + 9, p15 + 10, p15 + 11, p15 + 12, p15 + 13, p15 + 14, p15 + 15, p15 + 16, p15 + 17, p15 + 18, p15 + 19, p15 + 20, p15 + 21, p15 + 22, p15 + 23, p15 + 24, p15 + 25, p15 + 26, p15 + 27, p15 + 28, p15 + 29, p15 + 30, p15 + 31, p15 + 32, p15 + 33, p15 + 34, p15 + 35, p15 + 36, p15 + 37, p15 + 38, p15 + 39, 11};
p16 = newp;
Point(p16 + 1) = {5.673589346615777, 0.490720017429129, 0};
Point(p16 + 2) = {5.62735302430258, 0.6833081601301148, 0};
Point(p16 + 3) = {5.551558524765316, 0.8662922688662584, 0};
Point(p16 + 4) = {5.448072160130115, 1.035166667591037, 0};
Point(p16 + 5) = {5.319442108145848, 1.185773108145848, 0};
Point(p16 + 6) = {5.168835667591036, 1.314403160130115, 0};
Point(p16 + 7) = {4.999961268866258, 1.417889524765316, 0};
Point(p16 + 8) = {4.816977160130115, 1.49368402430258, 0};
Point(p16 + 9) = {4.624389017429129, 1.539920346615777, 0};
Point(p16 + 10) = {4.426939, 1.55546, 0};
Point(p16 + 11) = {4.229488982570871, 1.539920346615777, 0};
Point(p16 + 12) = {4.036900839869885, 1.49368402430258, 0};
Point(p16 + 13) = {3.853916731133741, 1.417889524765316, 0};
Point(p16 + 14) = {3.685042332408964, 1.314403160130115, 0};
Point(p16 + 15) = {3.534435891854152, 1.185773108145848, 0};
Point(p16 + 16) = {3.405805839869885, 1.035166667591037, 0};
Point(p16 + 17) = {3.302319475234684, 0.8662922688662587, 0};
Point(p16 + 18) = {3.22652497569742, 0.683308160130115, 0};
Point(p16 + 19) = {3.180288653384223, 0.4907200174291291, 0};
Point(p16 + 20) = {3.164749, 0.2932700000000001, 0};
Point(p16 + 21) = {3.180288653384223, 0.09581998257087115, 0};
Point(p16 + 22) = {3.22652497569742, -0.0967681601301153, 0};
Point(p16 + 23) = {3.302319475234683, -0.2797522688662579, 0};
Point(p16 + 24) = {3.405805839869885, -0.4486266675910365, 0};
Point(p16 + 25) = {3.534435891854152, -0.5992331081458484, 0};
Point(p16 + 26) = {3.685042332408963, -0.7278631601301149, 0};
Point(p16 + 27) = {3.853916731133741, -0.831349524765316, 0};
Point(p16 + 28) = {4.036900839869885, -0.9071440243025799, 0};
Point(p16 + 29) = {4.229488982570871, -0.9533803466157769, 0};
Point(p16 + 30) = {4.426939, -0.96892, 0};
Point(p16 + 31) = {4.624389017429129, -0.9533803466157769, 0};
Point(p16 + 32) = {4.816977160130115, -0.9071440243025799, 0};
Point(p16 + 33) = {4.999961268866258, -0.831349524765316, 0};
Point(p16 + 34) = {5.168835667591036, -0.7278631601301151, 0};
Point(p16 + 35) = {5.319442108145848, -0.5992331081458486, 0};
Point(p16 + 36) = {5.448072160130115, -0.4486266675910369, 0};
Point(p16 + 37) = {5.551558524765316, -0.2797522688662588, 0};
Point(p16 + 38) = {5.62735302430258, -0.09676816013011513, 0};
Point(p16 + 39) = {5.673589346615777, 0.09581998257087071, 0};
Spline(16) = {12, p16 + 1, p16 + 2, p16 + 3, p16 + 4, p16 + 5, p16 + 6, p16 + 7, p16 + 8, p16 + 9, p16 + 10, p16 + 11, p16 + 12, p16 + 13, p16 + 14, p16 + 15, p16 + 16, p16 + 17, p16 + 18, p16 + 19, p16 + 20, p16 + 21, p16 + 22, p16 + 23, p16 + 24, p16 + 25, p16 + 26, p16 + 27, p16 + 28, p16 + 29, p16 + 30, p16 + 31, p16 + 32, p16 + 33, p16 + 34, p16 + 35, p16 + 36, p16 + 37, p16 + 38, p16 + 39, 12};
Line(17) = {11, 8};
Line(18) = {12, 9};
Curve Loop(1) = {-1, 4, 3, -2};
Plane Surface(1) = {1};
Curve Loop(2) = {-5, 1, 7, -6};
Plane Surface(2) = {2};
Curve Loop(3) = {-2, 7, 9, -8, -10, -11};
Plane Surface(3) = {3};
Curve Loop(4) = {-12, 3, 8, -13};
Plane Surface(4) = {4};
Curve Loop(5) = {-4, 5, 14, -12, -15, -16};
Plane Surface(5) = {5};
Curve Loop(6) = {-6, 14, 13, -9};
Plane Surface(6) = {6};
Curve Loop(7) = {-10, -17, 15, 17};
Surface(7) = {7};
Curve Loop(8) = {-11, -18, 16, 18};
Surface(8) = {8};
Surface Loop(1) = {1, 2, 3, 4, 5, 6, 7, 8};
Volume(1) = {1};
Physical Surface("INFLOW") = {1};
Physical Surface("OUTFLOW") = {6};
Physical Surface("OBSTACLE") = {7, 8};
Physical Surface("WALL_Y") = {2, 4};
Physical Surface("WALL_Z") = {3, 5};
Physical Volume("FLUID") = {1};
