cl__1 = 3.499767;
cl__2 = 0.660176;
cl__3 = 0.846876;
cl__4 = 0.123294;
Point(1) = {0.554152, -4.154135, 1, cl__1};
Point(2) = {0.554152, -4.154135, 0, cl__1};
Point(3) = {0.554152, 4.935041999999999, 1, cl__1};
Point(4) = {0.554152, 4.935041999999999, 0, cl__1};
Point(5) = {34.701351, -4.154135, 0, cl__2};
Point(6) = {34.701351, -4.154135, 1, cl__2};
Point(7) = {34.701351, 4.935041999999999, 1, cl__3};
Point(8) = {28.595651, -1.410618, 1, cl__4};
Point(9) = {34.701351, 4.935041999999999, 0, cl__3};
Point(10) = {28.595651, -1.410618, 0, cl__4};
Line(1) = {2, 1};
Line(2) = {1, 3};
Line(3) = {4, 3};
Line(4) = {2, 4};
Line(5) = {2, 5};
Line(6) = {5, 6};
Line(7) = {1, 6};
Line(8) = {3, 7};
Line(9) = {6, 7};
p10 = newp;
Point(p10 + 1) = {28.58047145034171, -1.217743534238833, 1};
Point(p10 + 2) = {28.53530657225746, -1.029618277938358, 1};
Point(p10 + 3) = {28.46126847493933, -0.8508744992606234, 1};
Point(p10 + 4) = {28.36018022206164, -0.6859134632532657, 1};
Point(p10 + 5) = {28.23453094190292, -0.5387970580970769, 1};
Point(p10 + 6) = {28.08741453674673, -0.4131477779383578, 1};
Point(p10 + 7) = {27.92245350073938, -0.3120595250606695, 1};
Point(p10 + 8) = {27.74370972206164, -0.238021427742537, 1};
Point(p10 + 9) = {27.55558446576117, -0.1928565496582901, 1};
Point(p10 + 10) = {27.36271, -0.1776769999999999, 1};
Point(p10 + 11) = {27.16983553423883, -0.1928565496582901, 1};
Point(p10 + 12) = {26.98171027793836, -0.2380214277425368, 1};
Point(p10 + 13) = {26.80296649926062, -0.3120595250606695, 1};
Point(p10 + 14) = {26.63800546325326, -0.4131477779383578, 1};
Point(p10 + 15) = {26.49088905809708, -0.5387970580970767, 1};
Point(p10 + 16) = {26.36523977793836, -0.6859134632532656, 1};
Point(p10 + 17) = {26.26415152506067, -0.8508744992606233, 1};
Point(p10 + 18) = {26.19011342774254, -1.029618277938358, 1};
Point(p10 + 19) = {26.14494854965829, -1.217743534238833, 1};
Point(p10 + 20) = {26.129769, -1.410618, 1};
Point(p10 + 21) = {26.14494854965829, -1.603492465761167, 1};
Point(p10 + 22) = {26.19011342774254, -1.791617722061642, 1};
Point(p10 + 23) = {26.26415152506067, -1.970361500739376, 1};
Point(p10 + 24) = {26.36523977793836, -2.135322536746734, 1};
Point(p10 + 25) = {26.49088905809707, -2.282438941902923, 1};
Point(p10 + 26) = {26.63800546325326, -2.408088222061642, 1};
Point(p10 + 27) = {26.80296649926062, -2.509176474939331, 1};
Point(p10 + 28) = {26.98171027793836, -2.583214572257463, 1};
Point(p10 + 29) = {27.16983553423883, -2.62837945034171, 1};
Point(p10 + 30) = {27.36271, -2.643559, 1};
Point(p10 + 31) = {27.55558446576117, -2.62837945034171, 1};
Point(p10 + 32) = {27.74370972206164, -2.583214572257463, 1};
Point(p10 + 33) = {27.92245350073938, -2.509176474939331, 1};
Point(p10 + 34) = {28.08741453674673, -2.408088222061642, 1};
Point(p10 + 35) = {28.23453094190292, -2.282438941902923, 1};
Point(p10 + 36) = {28.36018022206164, -2.135322536746735, 1};
Point(p10 + 37) = {28.46126847493933, -1.970361500739377, 1};
Point(p10 + 38) = {28.53530657225746, -1.791617722061642, 1};
Point(p10 + 39) = {28.58047145034171, -1.603492465761168, 1};
Spline(10) = {8, p10 + 1, p10 + 2, p10 + 3, p10 + 4, p10 + 5, p10 + 6, p10 + 7, p10 + 8, p10 + 9, p10 + 10, p10 + 11, p10 + 12, p10 + 13, p10 + 14, p10 + 15, p10 + 16, p10 + 17, p10 + 18, p10 + 19, p10 + 20, p10 + 21, p10 + 22, p10 + 23, p10 + 24, p10 + 25, p10 + 26, p10 + 27, p10 + 28, p10 + 29, p10 + 30, p10 + 31, p10 + 32, p10 + 33, p10 + 34, p10 + 35, p10 + 36, p10 + 37, p10 + 38, p10 + 39, 8};
Line(11) = {4, 9};
Line(12) = {9, 7};
Line(13) = {5, 9};
p14 = newp;
Point(p14 + 1) = {28.58047145034171, -1.217743534238833, 0};
Point(p14 + 2) = {28.53530657225746, -1.029618277938358, 0};
Point(p14 + 3) = {28.46126847493933, -0.8508744992606234, 0};
Point(p14 + 4) = {28.36018022206164, -0.6859134632532657, 0};
Point(p14 + 5) = {28.23453094190292, -0.5387970580970769, 0};
Point(p14 + 6) = {28.08741453674673, -0.4131477779383578, 0};
Point(p14 + 7) = {27.92245350073938, -0.3120595250606695, 0};
Point(p14 + 8) = {27.74370972206164, -0.238021427742537, 0};
Point(p14 + 9) = {27.55558446576117, -0.1928565496582901, 0};
Point(p14 + 10) = {27.36271, -0.1776769999999999, 0};
Point(p14 + 11) = {27.16983553423883, -0.1928565496582901, 0};
Point(p14 + 12) = {26.98171027793836, -0.2380214277425368, 0};
Point(p14 + 13) = {26.80296649926062, -0.3120595250606695, 0};
Point(p14 + 14) = {26.63800546325326, -0.4131477779383578, 0};
Point(p14 + 15) = {26.49088905809708, -0.5387970580970767, 0};
Point(p14 + 16) = {26.36523977793836, -0.6859134632532656, 0};
Point(p14 + 17) = {26.26415152506067, -0.8508744992606233, 0};
Point(p14 + 18) = {26.19011342774254, -1.029618277938358, 0};
Point(p14 + 19) = {26.14494854965829, -1.217743534238833, 0};
Point(p14 + 20) = {26.129769, -1.410618, 0};
Point(p14 + 21) = {26.14494854965829, -1.603492465761167, 0};
Point(p14 + 22) = {26.19011342774254, -1.791617722061642, 0};
Point(p14 + 23) = {26.26415152506067, -1.970361500739376, 0};
Point(p14 + 24) = {26.36523977793836, -2.135322536746734, 0};
Point(p14 + 25) = {26.49088905809707, -2.282438941902923, 0};
Point(p14 + 26) = {26.63800546325326, -2.408088222061642, 0};
Point(p14 + 27) = {26.80296649926062, -2.509176474939331, 0};
Point(p14 + 28) = {26.98171027793836, -2.583214572257463, 0};
Point(p14 + 29) = {27.16983553423883, -2.62837945034171, 0};
Point(p14 + 30) = {27.36271, -2.643559, 0};
Point(p14 + 31) = {27.55558446576117, -2.62837945034171, 0};
Point(p14 + 32) = {27.74370972206164, -2.583214572257463, 0};
Point(p14 + 33) = {27.92245350073938, -2.509176474939331, 0};
Point(p14 + 34) = {28.08741453674673, -2.408088222061642, 0};
Point(p14 + 35) = {28.23453094190292, -2.282438941902923, 0};
Point(p14 + 36) = {28.36018022206164, -2.135322536746735, 0};
Point(p14 + 37) = {28.46126847493933, -1.970361500739377, 0};
Point(p14 + 38) = {28.53530657225746, -1.791617722061642, 0};
Point(p14 + 39) = {28.58047145034171, -1.603492465761168, 0};
Spline(14) = {10, p14 + 1, p14 + 2, p14 + 3, p14 + 4, p14 + 5, p14 + 6, p14 + 7, p14 + 8, p14 + 9, p14 + 10, p14 + 11, p14 + 12, p14 + 13, p14 + 14, p14 + 15, p14 + 16, p14 + 17, p14 + 18, p14 + 19, p14 + 20, p14 + 21, p14 + 22, p14 + 23, p14 + 24, p14 + 25, p14 + 26, p14 + 27, p14 + 28, p14 + 29, p14 + 30, p14 + 31, p14 + 32, p14 + 33, p14 + 34, p14 + 35, p14 + 36, p14 + 37, p14 + 38, p14 + 39, 10};
Line(15) = {10, 8};
Curve Loop(1) = {-1, 4, 3, -2};
Plane Surface(1) = {1};
Curve Loop(2) = {-5, 1, 7, -6};
Plane Surface(2) = {2};
Curve Loop(3) = {-2, 7, 9, -8, -10};
Plane Surface(3) = {3};
Curve Loop(4) = {-11, 3, 8, -12};
Plane Surface(4) = {4};
Curve Loop(5) = {-4, 5, 13, -11, -14};
Plane Surface(5) = {5};
Curve Loop(6) = {-6, 13, 12, -9};
Plane Surface(6) = {6};
Curve Loop(7) = {-10, -15, 14, 15};
Surface(7) = {7};
Surface Loop(1) = {1, 2, 3, 4, 5, 6, 7};
Volume(1) = {1};
Physical Surface("INFLOW") = {1};
Physical Surface("OUTFLOW") = {6};
Physical Surface("OBSTACLE") = {7};
Physical Surface("WALL_Y") = {2, 4};
Physical Surface("WALL_Z") = {3, 5};
Physical Volume("FLUID") = {1};
