cl__1 = 1.071254;
cl__2 = 1.119096;
cl__3 = 3.043555;
cl__4 = 0.07828300000000001;
cl__5 = 0.11137;
Point(1) = {0.823688, -3.60504, 1, cl__1};
Point(2) = {0.823688, -3.60504, 0, cl__1};
Point(3) = {0.823688, 5.567305999999999, 1, cl__2};
Point(4) = {0.823688, 5.567305999999999, 0, cl__2};
Point(5) = {30.088037, -3.60504, 0, cl__3};
Point(6) = {30.088037, -3.60504, 1, cl__3};
Point(7) = {30.088037, 5.567305999999999, 1, cl__3};
Point(8) = {12.393078, 0.3690709999999998, 1, cl__4};
Point(9) = {14.522954, 3.710182, 1, cl__5};
Point(10) = {30.088037, 5.567305999999999, 0, cl__3};
Point(11) = {12.393078, 0.3690709999999998, 0, cl__4};
Point(12) = {14.522954, 3.710182, 0, cl__5};
Line(1) = {2, 1};
Line(2) = {1, 3};
Line(3) = {4, 3};
Line(4) = {2, 4};
Line(5) = {2, 5};
Line(6) = {5, 6};
Line(7) = {1, 6};
Line(8) = {3, 7};
Line(9) = {6, 7};
p10 = newp;
Point(p10 + 1) = {12.38344007597975, 0.4915324358329789, 1};
Point(p10 + 2) = {12.35476362159482, 0.6109784646895456, 1};
Point(p10 + 3) = {12.30775474632386, 0.7244679289206096, 1};
Point(p10 + 4) = {12.24357096468955, 0.8292063412668644, 1};
Point(p10 + 5) = {12.16379269440948, 0.9226146944094837, 1};
Point(p10 + 6) = {12.07038434126686, 1.002392964689546, 1};
Point(p10 + 7) = {11.96564592892061, 1.066576746323856, 1};
Point(p10 + 8) = {11.85215646468954, 1.113585621594819, 1};
Point(p10 + 9) = {11.73271043583298, 1.142262075979751, 1};
Point(p10 + 10) = {11.610249, 1.1519, 1};
Point(p10 + 11) = {11.48778756416702, 1.142262075979751, 1};
Point(p10 + 12) = {11.36834153531045, 1.113585621594819, 1};
Point(p10 + 13) = {11.25485207107939, 1.066576746323856, 1};
Point(p10 + 14) = {11.15011365873313, 1.002392964689546, 1};
Point(p10 + 15) = {11.05670530559052, 0.9226146944094837, 1};
Point(p10 + 16) = {10.97692703531045, 0.8292063412668645, 1};
Point(p10 + 17) = {10.91274325367614, 0.7244679289206097, 1};
Point(p10 + 18) = {10.86573437840518, 0.6109784646895458, 1};
Point(p10 + 19) = {10.83705792402025, 0.491532435832979, 1};
Point(p10 + 20) = {10.82742, 0.3690710000000001, 1};
Point(p10 + 21) = {10.83705792402025, 0.2466095641670212, 1};
Point(p10 + 22) = {10.86573437840518, 0.127163535310454, 1};
Point(p10 + 23) = {10.91274325367614, 0.01367407107939073, 1};
Point(p10 + 24) = {10.97692703531045, -0.09106434126686436, 1};
Point(p10 + 25) = {11.05670530559052, -0.1844726944094838, 1};
Point(p10 + 26) = {11.15011365873313, -0.2642509646895456, 1};
Point(p10 + 27) = {11.25485207107939, -0.3284347463238558, 1};
Point(p10 + 28) = {11.36834153531045, -0.3754436215948188, 1};
Point(p10 + 29) = {11.48778756416702, -0.404120075979751, 1};
Point(p10 + 30) = {11.610249, -0.413758, 1};
Point(p10 + 31) = {11.73271043583298, -0.4041200759797511, 1};
Point(p10 + 32) = {11.85215646468954, -0.3754436215948189, 1};
Point(p10 + 33) = {11.96564592892061, -0.3284347463238559, 1};
Point(p10 + 34) = {12.07038434126686, -0.2642509646895458, 1};
Point(p10 + 35) = {12.16379269440948, -0.1844726944094839, 1};
Point(p10 + 36) = {12.24357096468955, -0.09106434126686463, 1};
Point(p10 + 37) = {12.30775474632386, 0.01367407107939017, 1};
Point(p10 + 38) = {12.35476362159482, 0.1271635353104541, 1};
Point(p10 + 39) = {12.38344007597975, 0.2466095641670209, 1};
Spline(10) = {8, p10 + 1, p10 + 2, p10 + 3, p10 + 4, p10 + 5, p10 + 6, p10 + 7, p10 + 8, p10 + 9, p10 + 10, p10 + 11, p10 + 12, p10 + 13, p10 + 14, p10 + 15, p10 + 16, p10 + 17, p10 + 18, p10 + 19, p10 + 20, p10 + 21, p10 + 22, p10 + 23, p10 + 24, p10 + 25, p10 + 26, p10 + 27, p10 + 28, p10 + 29, p10 + 30, p10 + 31, p10 + 32, p10 + 33, p10 + 34, p10 + 35, p10 + 36, p10 + 37, p10 + 38, p10 + 39, 8};
p11 = newp;
Point(p11 + 1) = {14.50924249260915, 3.88440322014977, 1};
Point(p11 + 2) = {14.46844559325443, 4.054334535652373, 1};
Point(p11 + 3) = {14.40156785699511, 4.215791673550433, 1};
Point(p11 + 4) = {14.31025603565237, 4.36479902326338, 1};
Point(p11 + 5) = {14.19675852931424, 4.49768752931424, 1};
Point(p11 + 6) = {14.06387002326338, 4.611185035652373, 1};
Point(p11 + 7) = {13.91486267355043, 4.70249685699511, 1};
Point(p11 + 8) = {13.75340553565237, 4.769374593254429, 1};
Point(p11 + 9) = {13.58347422014977, 4.810171492609146, 1};
Point(p11 + 10) = {13.409253, 4.823883, 1};
Point(p11 + 11) = {13.23503177985023, 4.810171492609145, 1};
Point(p11 + 12) = {13.06510046434763, 4.76937459325443, 1};
Point(p11 + 13) = {12.90364332644957, 4.70249685699511, 1};
Point(p11 + 14) = {12.75463597673662, 4.611185035652373, 1};
Point(p11 + 15) = {12.62174747068576, 4.49768752931424, 1};
Point(p11 + 16) = {12.50824996434763, 4.36479902326338, 1};
Point(p11 + 17) = {12.41693814300489, 4.215791673550433, 1};
Point(p11 + 18) = {12.35006040674557, 4.054334535652374, 1};
Point(p11 + 19) = {12.30926350739085, 3.88440322014977, 1};
Point(p11 + 20) = {12.295552, 3.710182, 1};
Point(p11 + 21) = {12.30926350739085, 3.53596077985023, 1};
Point(p11 + 22) = {12.35006040674557, 3.366029464347626, 1};
Point(p11 + 23) = {12.41693814300489, 3.204572326449568, 1};
Point(p11 + 24) = {12.50824996434763, 3.05556497673662, 1};
Point(p11 + 25) = {12.62174747068576, 2.922676470685761, 1};
Point(p11 + 26) = {12.75463597673662, 2.809178964347627, 1};
Point(p11 + 27) = {12.90364332644957, 2.717867143004891, 1};
Point(p11 + 28) = {13.06510046434763, 2.650989406745571, 1};
Point(p11 + 29) = {13.23503177985023, 2.610192507390855, 1};
Point(p11 + 30) = {13.409253, 2.596481, 1};
Point(p11 + 31) = {13.58347422014977, 2.610192507390854, 1};
Point(p11 + 32) = {13.75340553565237, 2.650989406745571, 1};
Point(p11 + 33) = {13.91486267355043, 2.717867143004891, 1};
Point(p11 + 34) = {14.06387002326338, 2.809178964347627, 1};
Point(p11 + 35) = {14.19675852931424, 2.922676470685761, 1};
Point(p11 + 36) = {14.31025603565237, 3.05556497673662, 1};
Point(p11 + 37) = {14.40156785699511, 3.204572326449567, 1};
Point(p11 + 38) = {14.46844559325443, 3.366029464347627, 1};
Point(p11 + 39) = {14.50924249260915, 3.535960779850229, 1};
Spline(11) = {9, p11 + 1, p11 + 2, p11 + 3, p11 + 4, p11 + 5, p11 + 6, p11 + 7, p11 + 8, p11 + 9, p11 + 10, p11 + 11, p11 + 12, p11 + 13, p11 + 14, p11 + 15, p11 + 16, p11 + 17, p11 + 18, p11 + 19, p11 + 20, p11 + 21, p11 + 22, p11 + 23, p11 + 24, p11 + 25, p11 + 26, p11 + 27, p11 + 28, p11 + 29, p11 + 30, p11 + 31, p11 + 32, p11 + 33, p11 + 34, p11 + 35, p11 + 36, p11 + 37, p11 + 38, p11 + 39, 9};
Line(12) = {4, 10};
Line(13) = {10, 7};
Line(14) = {5, 10};
p15 = newp;
Point(p15 + 1) = {12.38344007597975, 0.4915324358329789, 0};
Point(p15 + 2) = {12.35476362159482, 0.6109784646895456, 0};
Point(p15 + 3) = {12.30775474632386, 0.7244679289206096, 0};
Point(p15 + 4) = {12.24357096468955, 0.8292063412668644, 0};
Point(p15 + 5) = {12.16379269440948, 0.9226146944094837, 0};
Point(p15 + 6) = {12.07038434126686, 1.002392964689546, 0};
Point(p15 + 7) = {11.96564592892061, 1.066576746323856, 0};
Point(p15 + 8) = {11.85215646468954, 1.113585621594819, 0};
Point(p15 + 9) = {11.73271043583298, 1.142262075979751, 0};
Point(p15 + 10) = {11.610249, 1.1519, 0};
Point(p15 + 11) = {11.48778756416702, 1.142262075979751, 0};
Point(p15 + 12) = {11.36834153531045, 1.113585621594819, 0};
Point(p15 + 13) = {11.25485207107939, 1.066576746323856, 0};
Point(p15 + 14) = {11.15011365873313, 1.002392964689546, 0};
Point(p15 + 15) = {11.05670530559052, 0.9226146944094837, 0};
Point(p15 + 16) = {10.97692703531045, 0.8292063412668645, 0};
Point(p15 + 17) = {10.91274325367614, 0.7244679289206097, 0};
Point(p15 + 18) = {10.86573437840518, 0.6109784646895458, 0};
Point(p15 + 19) = {10.83705792402025, 0.491532435832979, 0};
Point(p15 + 20) = {10.82742, 0.3690710000000001, 0};
Point(p15 + 21) = {10.83705792402025, 0.2466095641670212, 0};
Point(p15 + 22) = {10.86573437840518, 0.127163535310454, 0};
Point(p15 + 23) = {10.91274325367614, 0.01367407107939073, 0};
Point(p15 + 24) = {10.97692703531045, -0.09106434126686436, 0};
Point(p15 + 25) = {11.05670530559052, -0.1844726944094838, 0};
Point(p15 + 26) = {11.15011365873313, -0.2642509646895456, 0};
Point(p15 + 27) = {11.25485207107939, -0.3284347463238558, 0};
Point(p15 + 28) = {11.36834153531045, -0.3754436215948188, 0};
Point(p15 + 29) = {11.48778756416702, -0.404120075979751, 0};
Point(p15 + 30) = {11.610249, -0.413758, 0};
Point(p15 + 31) = {11.73271043583298, -0.4041200759797511, 0};
Point(p15 + 32) = {11.85215646468954, -0.3754436215948189, 0};
Point(p15 + 33) = {11.96564592892061, -0.3284347463238559, 0};
Point(p15 + 34) = {12.07038434126686, -0.2642509646895458, 0};
Point(p15 + 35) = {12.16379269440948, -0.1844726944094839, 0};
Point(p15 + 36) = {12.24357096468955, -0.09106434126686463, 0};
Point(p15 + 37) = {12.30775474632386, 0.01367407107939017, 0};
Point(p15 + 38) = {12.35476362159482, 0.1271635353104541, 0};
Point(p15 + 39) = {12.38344007597975, 0.2466095641670209, 0};
Spline(15) = {11, p15 + 1, p15 + 2, p15 + 3, p15 + 4, p15 + 5, p15 + 6, p15 + 7, p15 + 8, p15 + 9, p15 + 10, p15 + 11, p15 + 12, p15 + 13, p15 + 14, p15 + 15, p15 + 16, p15 + 17, p15 + 18, p15 + 19, p15 + 20, p15 + 21, p15 + 22, p15 + 23, p15 + 24, p15 + 25, p15 + 26, p15 + 27, p15 + 28, p15 + 29, p15 + 30, p15 + 31, p15 + 32, p15 + 33, p15 + 34, p15 + 35, p15 + 36, p15 + 37, p15 + 38, p15 + 39, 11};
p16 = newp;
Point(p16 + 1) = {14.50924249260915, 3.88440322014977, 0};
Point(p16 + 2) = {14.46844559325443, 4.054334535652373, 0};
Point(p16 + 3) = {14.40156785699511, 4.215791673550433, 0};
Point(p16 + 4) = {14.31025603565237, 4.36479902326338, 0};
Point(p16 + 5) = {14.19675852931424, 4.49768752931424, 0};
Point(p16 + 6) = {14.06387002326338, 4.611185035652373, 0};
Point(p16 + 7) = {13.91486267355043, 4.70249685699511, 0};
Point(p16 + 8) = {13.75340553565237, 4.769374593254429, 0};
Point(p16 + 9) = {13.58347422014977, 4.810171492609146, 0};
Point(p16 + 10) = {13.409253, 4.823883, 0};
Point(p16 + 11) = {13.23503177985023, 4.810171492609145, 0};
Point(p16 + 12) = {13.06510046434763, 4.76937459325443, 0};
Point(p16 + 13) = {12.90364332644957, 4.70249685699511, 0};
Point(p16 + 14) = {12.75463597673662, 4.611185035652373, 0};
Point(p16 + 15) = {12.62174747068576, 4.49768752931424, 0};
Point(p16 + 16) = {12.50824996434763, 4.36479902326338, 0};
Point(p16 + 17) = {12.41693814300489, 4.215791673550433, 0};
Point(p16 + 18) = {12.35006040674557, 4.054334535652374, 0};
Point(p16 + 19) = {12.30926350739085, 3.88440322014977, 0};
Point(p16 + 20) = {12.295552, 3.710182, 0};
Point(p16 + 21) = {12.30926350739085, 3.53596077985023, 0};
Point(p16 + 22) = {12.35006040674557, 3.366029464347626, 0};
Point(p16 + 23) = {12.41693814300489, 3.204572326449568, 0};
Point(p16 + 24) = {12.50824996434763, 3.05556497673662, 0};
Point(p16 + 25) = {12.62174747068576, 2.922676470685761, 0};
Point(p16 + 26) = {12.75463597673662, 2.809178964347627, 0};
Point(p16 + 27) = {12.90364332644957, 2.717867143004891, 0};
Point(p16 + 28) = {13.06510046434763, 2.650989406745571, 0};
Point(p16 + 29) = {13.23503177985023, 2.610192507390855, 0};
Point(p16 + 30) = {13.409253, 2.596481, 0};
Point(p16 + 31) = {13.58347422014977, 2.610192507390854, 0};
Point(p16 + 32) = {13.75340553565237, 2.650989406745571, 0};
Point(p16 + 33) = {13.91486267355043, 2.717867143004891, 0};
Point(p16 + 34) = {14.06387002326338, 2.809178964347627, 0};
Point(p16 + 35) = {14.19675852931424, 2.922676470685761, 0};
Point(p16 + 36) = {14.31025603565237, 3.05556497673662, 0};
Point(p16 + 37) = {14.40156785699511, 3.204572326449567, 0};
Point(p16 + 38) = {14.46844559325443, 3.366029464347627, 0};
Point(p16 + 39) = {14.50924249260915, 3.535960779850229, 0};
Spline(16) = {12, p16 + 1, p16 + 2, p16 + 3, p16 + 4, p16 + 5, p16 + 6, p16 + 7, p16 + 8, p16 + 9, p16 + 10, p16 + 11, p16 + 12, p16 + 13, p16 + 14, p16 + 15, p16 + 16, p16 + 17, p16 + 18, p16 + 19, p16 + 20, p16 + 21, p16 + 22, p16 + 23, p16 + 24, p16 + 25, p16 + 26, p16 + 27, p16 + 28, p16 + 29, p16 + 30, p16 + 31, p16 + 32, p16 + 33, p16 + 34, p16 + 35, p16 + 36, p16 + 37, p16 + 38, p16 + 39, 12};
Line(17) = {11, 8};
Line(18) = {12, 9};
Curve Loop(1) = {-1, 4, 3, -2};
Plane Surface(1) = {1};
Curve Loop(2) = {-5, 1, 7, -6};
Plane Surface(2) = {2};
Curve Loop(3) = {-2, 7, 9, -8, -10, -11};
Plane Surface(3) = {3};
Curve Loop(4) = {-12, 3, 8, -13};
Plane Surface(4) = {4};
Curve Loop(5) = {-4, 5, 14, -12, -15, -16};
Plane Surface(5) = {5};
Curve Loop(6) = {-6, 14, 13, -9};
Plane Surface(6) = {6};
Curve Loop(7) = {-10, -17, 15, 17};
Surface(7) = {7};
Curve Loop(8) = {-11, -18, 16, 18};
Surface(8) = {8};
Surface Loop(1) = {1, 2, 3, 4, 5, 6, 7, 8};
Volume(1) = {1};
Physical Surface("INFLOW") = {1};
Physical Surface("OUTFLOW") = {6};
Physical Surface("OBSTACLE") = {7, 8};
Physical Surface("WALL_Y") = {2, 4};
Physical Surface("WALL_Z") = {3, 5};
Physical Volume("FLUID") = {1};
