cl__1 = 1;
cl__2 = 0.145073;
cl__3 = 0.141335;
Point(1) = {0.864594, -3.391584, 1, cl__1};
Point(2) = {0.864594, -3.391584, 0, cl__1};
Point(3) = {0.864594, 4.894664000000001, 1, cl__1};
Point(4) = {0.864594, 4.894664000000001, 0, cl__1};
Point(5) = {37.052662, -3.391584, 0, cl__1};
Point(6) = {37.052662, -3.391584, 1, cl__1};
Point(7) = {37.052662, 4.894664000000001, 1, cl__1};
Point(8) = {10.256005, -0.3985160000000003, 1, cl__2};
Point(9) = {30.497618, 2.301839999999999, 1, cl__3};
Point(10) = {37.052662, 4.894664000000001, 0, cl__1};
Point(11) = {10.256005, -0.3985160000000003, 0, cl__2};
Point(12) = {30.497618, 2.301839999999999, 0, cl__3};
Line(1) = {2, 1};
Line(2) = {1, 3};
Line(3) = {4, 3};
Line(4) = {2, 4};
Line(5) = {2, 5};
Line(6) = {5, 6};
Line(7) = {1, 6};
Line(8) = {3, 7};
Line(9) = {6, 7};
p10 = newp;
Point(p10 + 1) = {10.23814414328656, -0.171572297835581, 1};
Point(p10 + 2) = {10.18500136671532, 0.04978329719858438, 1};
Point(p10 + 3) = {10.09788522181622, 0.2601002757156535, 1};
Point(p10 + 4) = {9.978940797198584, 0.4541999357025027, 1};
Point(p10 + 5) = {9.831096899350417, 0.6273028993504165, 1};
Point(p10 + 6) = {9.657993935702502, 0.7751467971985845, 1};
Point(p10 + 7) = {9.463894275715653, 0.8940912218162184, 1};
Point(p10 + 8) = {9.253577297198584, 0.9812073667153193, 1};
Point(p10 + 9) = {9.032221702164419, 1.034350143286562, 1};
Point(p10 + 10) = {8.805277999999999, 1.052211, 1};
Point(p10 + 11) = {8.57833429783558, 1.034350143286562, 1};
Point(p10 + 12) = {8.356978702801415, 0.9812073667153195, 1};
Point(p10 + 13) = {8.146661724284346, 0.8940912218162186, 1};
Point(p10 + 14) = {7.952562064297497, 0.7751467971985845, 1};
Point(p10 + 15) = {7.779459100649583, 0.6273028993504167, 1};
Point(p10 + 16) = {7.631615202801415, 0.4541999357025029, 1};
Point(p10 + 17) = {7.512670778183781, 0.2601002757156536, 1};
Point(p10 + 18) = {7.42555463328468, 0.04978329719858454, 1};
Point(p10 + 19) = {7.372411856713438, -0.1715722978355808, 1};
Point(p10 + 20) = {7.354550999999999, -0.3985159999999998, 1};
Point(p10 + 21) = {7.372411856713437, -0.6254597021644188, 1};
Point(p10 + 22) = {7.42555463328468, -0.8468152971985847, 1};
Point(p10 + 23) = {7.51267077818378, -1.057132275715653, 1};
Point(p10 + 24) = {7.631615202801415, -1.251231935702503, 1};
Point(p10 + 25) = {7.779459100649582, -1.424334899350416, 1};
Point(p10 + 26) = {7.952562064297497, -1.572178797198584, 1};
Point(p10 + 27) = {8.146661724284346, -1.691123221816218, 1};
Point(p10 + 28) = {8.356978702801415, -1.778239366715319, 1};
Point(p10 + 29) = {8.57833429783558, -1.831382143286562, 1};
Point(p10 + 30) = {8.805277999999999, -1.849243, 1};
Point(p10 + 31) = {9.032221702164419, -1.831382143286563, 1};
Point(p10 + 32) = {9.253577297198584, -1.77823936671532, 1};
Point(p10 + 33) = {9.463894275715653, -1.691123221816218, 1};
Point(p10 + 34) = {9.657993935702502, -1.572178797198585, 1};
Point(p10 + 35) = {9.831096899350415, -1.424334899350417, 1};
Point(p10 + 36) = {9.978940797198584, -1.251231935702503, 1};
Point(p10 + 37) = {10.09788522181622, -1.057132275715654, 1};
Point(p10 + 38) = {10.18500136671532, -0.8468152971985847, 1};
Point(p10 + 39) = {10.23814414328656, -0.6254597021644193, 1};
Spline(10) = {8, p10 + 1, p10 + 2, p10 + 3, p10 + 4, p10 + 5, p10 + 6, p10 + 7, p10 + 8, p10 + 9, p10 + 10, p10 + 11, p10 + 12, p10 + 13, p10 + 14, p10 + 15, p10 + 16, p10 + 17, p10 + 18, p10 + 19, p10 + 20, p10 + 21, p10 + 22, p10 + 23, p10 + 24, p10 + 25, p10 + 26, p10 + 27, p10 + 28, p10 + 29, p10 + 30, p10 + 31, p10 + 32, p10 + 33, p10 + 34, p10 + 35, p10 + 36, p10 + 37, p10 + 38, p10 + 39, 8};
p11 = newp;
Point(p11 + 1) = {30.4802172669335, 2.52293727690247, 1};
Point(p11 + 2) = {30.42844353153182, 2.738590405067809, 1};
Point(p11 + 3) = {30.34357163498773, 2.943489288768887, 1};
Point(p11 + 4) = {30.22769140506781, 3.132588637468576, 1};
Point(p11 + 5) = {30.08365619761713, 3.301232197617131, 1};
Point(p11 + 6) = {29.91501263746858, 3.445267405067809, 1};
Point(p11 + 7) = {29.72591328876889, 3.561147634987726, 1};
Point(p11 + 8) = {29.52101440506781, 3.64601953153182, 1};
Point(p11 + 9) = {29.30536127690247, 3.6977932669335, 1};
Point(p11 + 10) = {29.084264, 3.715194, 1};
Point(p11 + 11) = {28.86316672309753, 3.6977932669335, 1};
Point(p11 + 12) = {28.64751359493219, 3.64601953153182, 1};
Point(p11 + 13) = {28.44261471123111, 3.561147634987726, 1};
Point(p11 + 14) = {28.25351536253142, 3.445267405067809, 1};
Point(p11 + 15) = {28.08487180238287, 3.301232197617132, 1};
Point(p11 + 16) = {27.94083659493219, 3.132588637468576, 1};
Point(p11 + 17) = {27.82495636501227, 2.943489288768887, 1};
Point(p11 + 18) = {27.74008446846818, 2.738590405067809, 1};
Point(p11 + 19) = {27.6883107330665, 2.52293727690247, 1};
Point(p11 + 20) = {27.67091, 2.30184, 1};
Point(p11 + 21) = {27.6883107330665, 2.08074272309753, 1};
Point(p11 + 22) = {27.74008446846818, 1.86508959493219, 1};
Point(p11 + 23) = {27.82495636501227, 1.660190711231113, 1};
Point(p11 + 24) = {27.94083659493219, 1.471091362531424, 1};
Point(p11 + 25) = {28.08487180238287, 1.302447802382868, 1};
Point(p11 + 26) = {28.25351536253142, 1.158412594932191, 1};
Point(p11 + 27) = {28.44261471123111, 1.042532365012274, 1};
Point(p11 + 28) = {28.64751359493219, 0.9576604684681795, 1};
Point(p11 + 29) = {28.86316672309753, 0.9058867330664997, 1};
Point(p11 + 30) = {29.084264, 0.8884859999999999, 1};
Point(p11 + 31) = {29.30536127690247, 0.9058867330664995, 1};
Point(p11 + 32) = {29.52101440506781, 0.9576604684681793, 1};
Point(p11 + 33) = {29.72591328876889, 1.042532365012273, 1};
Point(p11 + 34) = {29.91501263746858, 1.15841259493219, 1};
Point(p11 + 35) = {30.08365619761713, 1.302447802382868, 1};
Point(p11 + 36) = {30.22769140506781, 1.471091362531423, 1};
Point(p11 + 37) = {30.34357163498773, 1.660190711231112, 1};
Point(p11 + 38) = {30.42844353153182, 1.86508959493219, 1};
Point(p11 + 39) = {30.4802172669335, 2.080742723097529, 1};
Spline(11) = {9, p11 + 1, p11 + 2, p11 + 3, p11 + 4, p11 + 5, p11 + 6, p11 + 7, p11 + 8, p11 + 9, p11 + 10, p11 + 11, p11 + 12, p11 + 13, p11 + 14, p11 + 15, p11 + 16, p11 + 17, p11 + 18, p11 + 19, p11 + 20, p11 + 21, p11 + 22, p11 + 23, p11 + 24, p11 + 25, p11 + 26, p11 + 27, p11 + 28, p11 + 29, p11 + 30, p11 + 31, p11 + 32, p11 + 33, p11 + 34, p11 + 35, p11 + 36, p11 + 37, p11 + 38, p11 + 39, 9};
Line(12) = {4, 10};
Line(13) = {10, 7};
Line(14) = {5, 10};
p15 = newp;
Point(p15 + 1) = {10.23814414328656, -0.171572297835581, 0};
Point(p15 + 2) = {10.18500136671532, 0.04978329719858438, 0};
Point(p15 + 3) = {10.09788522181622, 0.2601002757156535, 0};
Point(p15 + 4) = {9.978940797198584, 0.4541999357025027, 0};
Point(p15 + 5) = {9.831096899350417, 0.6273028993504165, 0};
Point(p15 + 6) = {9.657993935702502, 0.7751467971985845, 0};
Point(p15 + 7) = {9.463894275715653, 0.8940912218162184, 0};
Point(p15 + 8) = {9.253577297198584, 0.9812073667153193, 0};
Point(p15 + 9) = {9.032221702164419, 1.034350143286562, 0};
Point(p15 + 10) = {8.805277999999999, 1.052211, 0};
Point(p15 + 11) = {8.57833429783558, 1.034350143286562, 0};
Point(p15 + 12) = {8.356978702801415, 0.9812073667153195, 0};
Point(p15 + 13) = {8.146661724284346, 0.8940912218162186, 0};
Point(p15 + 14) = {7.952562064297497, 0.7751467971985845, 0};
Point(p15 + 15) = {7.779459100649583, 0.6273028993504167, 0};
Point(p15 + 16) = {7.631615202801415, 0.4541999357025029, 0};
Point(p15 + 17) = {7.512670778183781, 0.2601002757156536, 0};
Point(p15 + 18) = {7.42555463328468, 0.04978329719858454, 0};
Point(p15 + 19) = {7.372411856713438, -0.1715722978355808, 0};
Point(p15 + 20) = {7.354550999999999, -0.3985159999999998, 0};
Point(p15 + 21) = {7.372411856713437, -0.6254597021644188, 0};
Point(p15 + 22) = {7.42555463328468, -0.8468152971985847, 0};
Point(p15 + 23) = {7.51267077818378, -1.057132275715653, 0};
Point(p15 + 24) = {7.631615202801415, -1.251231935702503, 0};
Point(p15 + 25) = {7.779459100649582, -1.424334899350416, 0};
Point(p15 + 26) = {7.952562064297497, -1.572178797198584, 0};
Point(p15 + 27) = {8.146661724284346, -1.691123221816218, 0};
Point(p15 + 28) = {8.356978702801415, -1.778239366715319, 0};
Point(p15 + 29) = {8.57833429783558, -1.831382143286562, 0};
Point(p15 + 30) = {8.805277999999999, -1.849243, 0};
Point(p15 + 31) = {9.032221702164419, -1.831382143286563, 0};
Point(p15 + 32) = {9.253577297198584, -1.77823936671532, 0};
Point(p15 + 33) = {9.463894275715653, -1.691123221816218, 0};
Point(p15 + 34) = {9.657993935702502, -1.572178797198585, 0};
Point(p15 + 35) = {9.831096899350415, -1.424334899350417, 0};
Point(p15 + 36) = {9.978940797198584, -1.251231935702503, 0};
Point(p15 + 37) = {10.09788522181622, -1.057132275715654, 0};
Point(p15 + 38) = {10.18500136671532, -0.8468152971985847, 0};
Point(p15 + 39) = {10.23814414328656, -0.6254597021644193, 0};
Spline(15) = {11, p15 + 1, p15 + 2, p15 + 3, p15 + 4, p15 + 5, p15 + 6, p15 + 7, p15 + 8, p15 + 9, p15 + 10, p15 + 11, p15 + 12, p15 + 13, p15 + 14, p15 + 15, p15 + 16, p15 + 17, p15 + 18, p15 + 19, p15 + 20, p15 + 21, p15 + 22, p15 + 23, p15 + 24, p15 + 25, p15 + 26, p15 + 27, p15 + 28, p15 + 29, p15 + 30, p15 + 31, p15 + 32, p15 + 33, p15 + 34, p15 + 35, p15 + 36, p15 + 37, p15 + 38, p15 + 39, 11};
p16 = newp;
Point(p16 + 1) = {30.4802172669335, 2.52293727690247, 0};
Point(p16 + 2) = {30.42844353153182, 2.738590405067809, 0};
Point(p16 + 3) = {30.34357163498773, 2.943489288768887, 0};
Point(p16 + 4) = {30.22769140506781, 3.132588637468576, 0};
Point(p16 + 5) = {30.08365619761713, 3.301232197617131, 0};
Point(p16 + 6) = {29.91501263746858, 3.445267405067809, 0};
Point(p16 + 7) = {29.72591328876889, 3.561147634987726, 0};
Point(p16 + 8) = {29.52101440506781, 3.64601953153182, 0};
Point(p16 + 9) = {29.30536127690247, 3.6977932669335, 0};
Point(p16 + 10) = {29.084264, 3.715194, 0};
Point(p16 + 11) = {28.86316672309753, 3.6977932669335, 0};
Point(p16 + 12) = {28.64751359493219, 3.64601953153182, 0};
Point(p16 + 13) = {28.44261471123111, 3.561147634987726, 0};
Point(p16 + 14) = {28.25351536253142, 3.445267405067809, 0};
Point(p16 + 15) = {28.08487180238287, 3.301232197617132, 0};
Point(p16 + 16) = {27.94083659493219, 3.132588637468576, 0};
Point(p16 + 17) = {27.82495636501227, 2.943489288768887, 0};
Point(p16 + 18) = {27.74008446846818, 2.738590405067809, 0};
Point(p16 + 19) = {27.6883107330665, 2.52293727690247, 0};
Point(p16 + 20) = {27.67091, 2.30184, 0};
Point(p16 + 21) = {27.6883107330665, 2.08074272309753, 0};
Point(p16 + 22) = {27.74008446846818, 1.86508959493219, 0};
Point(p16 + 23) = {27.82495636501227, 1.660190711231113, 0};
Point(p16 + 24) = {27.94083659493219, 1.471091362531424, 0};
Point(p16 + 25) = {28.08487180238287, 1.302447802382868, 0};
Point(p16 + 26) = {28.25351536253142, 1.158412594932191, 0};
Point(p16 + 27) = {28.44261471123111, 1.042532365012274, 0};
Point(p16 + 28) = {28.64751359493219, 0.9576604684681795, 0};
Point(p16 + 29) = {28.86316672309753, 0.9058867330664997, 0};
Point(p16 + 30) = {29.084264, 0.8884859999999999, 0};
Point(p16 + 31) = {29.30536127690247, 0.9058867330664995, 0};
Point(p16 + 32) = {29.52101440506781, 0.9576604684681793, 0};
Point(p16 + 33) = {29.72591328876889, 1.042532365012273, 0};
Point(p16 + 34) = {29.91501263746858, 1.15841259493219, 0};
Point(p16 + 35) = {30.08365619761713, 1.302447802382868, 0};
Point(p16 + 36) = {30.22769140506781, 1.471091362531423, 0};
Point(p16 + 37) = {30.34357163498773, 1.660190711231112, 0};
Point(p16 + 38) = {30.42844353153182, 1.86508959493219, 0};
Point(p16 + 39) = {30.4802172669335, 2.080742723097529, 0};
Spline(16) = {12, p16 + 1, p16 + 2, p16 + 3, p16 + 4, p16 + 5, p16 + 6, p16 + 7, p16 + 8, p16 + 9, p16 + 10, p16 + 11, p16 + 12, p16 + 13, p16 + 14, p16 + 15, p16 + 16, p16 + 17, p16 + 18, p16 + 19, p16 + 20, p16 + 21, p16 + 22, p16 + 23, p16 + 24, p16 + 25, p16 + 26, p16 + 27, p16 + 28, p16 + 29, p16 + 30, p16 + 31, p16 + 32, p16 + 33, p16 + 34, p16 + 35, p16 + 36, p16 + 37, p16 + 38, p16 + 39, 12};
Line(17) = {11, 8};
Line(18) = {12, 9};
Curve Loop(1) = {-1, 4, 3, -2};
Plane Surface(1) = {1};
Curve Loop(2) = {-5, 1, 7, -6};
Plane Surface(2) = {2};
Curve Loop(3) = {-2, 7, 9, -8, -10, -11};
Plane Surface(3) = {3};
Curve Loop(4) = {-12, 3, 8, -13};
Plane Surface(4) = {4};
Curve Loop(5) = {-4, 5, 14, -12, -15, -16};
Plane Surface(5) = {5};
Curve Loop(6) = {-6, 14, 13, -9};
Plane Surface(6) = {6};
Curve Loop(7) = {-10, -17, 15, 17};
Surface(7) = {7};
Curve Loop(8) = {-11, -18, 16, 18};
Surface(8) = {8};
Surface Loop(1) = {1, 2, 3, 4, 5, 6, 7, 8};
Volume(1) = {1};
Physical Surface("INFLOW") = {1};
Physical Surface("OUTFLOW") = {6};
Physical Surface("OBSTACLE") = {7, 8};
Physical Surface("WALL_Y") = {2, 4};
Physical Surface("WALL_Z") = {3, 5};
Physical Volume("FLUID") = {1};
