cl__1 = 1;
cl__2 = 0.054381;
cl__3 = 0.113174;
Point(1) = {0.546014, -3.910419, 1, cl__1};
Point(2) = {0.546014, -3.910419, 0, cl__1};
Point(3) = {0.546014, 5.537437, 1, cl__1};
Point(4) = {0.546014, 5.537437, 0, cl__1};
Point(5) = {31.750892, -3.910419, 0, cl__1};
Point(6) = {31.750892, -3.910419, 1, cl__1};
Point(7) = {31.750892, 5.537437, 1, cl__1};
Point(8) = {15.075541, -1.951525, 1, cl__2};
Point(9) = {15.883927, 1.846009999999999, 1, cl__3};
Point(10) = {31.750892, 5.537437, 0, cl__1};
Point(11) = {15.075541, -1.951525, 0, cl__2};
Point(12) = {15.883927, 1.846009999999999, 0, cl__3};
Line(1) = {2, 1};
Line(2) = {1, 3};
Line(3) = {4, 3};
Line(4) = {2, 4};
Line(5) = {2, 5};
Line(6) = {5, 6};
Line(7) = {1, 6};
Line(8) = {3, 7};
Line(9) = {6, 7};
p10 = newp;
Point(p10 + 1) = {15.06884584574568, -1.866454999304332, 1};
Point(p10 + 2) = {15.0489252399004, -1.783479704356937, 1};
Point(p10 + 3) = {15.01626969389278, -1.704642242298636, 1};
Point(p10 + 4) = {14.97168329564306, -1.631883853091839, 1};
Point(p10 + 5) = {14.91626391024993, -1.566996089750068, 1};
Point(p10 + 6) = {14.85137614690816, -1.511576704356937, 1};
Point(p10 + 7) = {14.77861775770136, -1.46699030610722, 1};
Point(p10 + 8) = {14.69978029564306, -1.434334760099598, 1};
Point(p10 + 9) = {14.61680500069567, -1.41441415425432, 1};
Point(p10 + 10) = {14.531735, -1.407719, 1};
Point(p10 + 11) = {14.44666499930433, -1.41441415425432, 1};
Point(p10 + 12) = {14.36368970435694, -1.434334760099598, 1};
Point(p10 + 13) = {14.28485224229864, -1.46699030610722, 1};
Point(p10 + 14) = {14.21209385309184, -1.511576704356937, 1};
Point(p10 + 15) = {14.14720608975007, -1.566996089750068, 1};
Point(p10 + 16) = {14.09178670435694, -1.631883853091839, 1};
Point(p10 + 17) = {14.04720030610722, -1.704642242298636, 1};
Point(p10 + 18) = {14.0145447600996, -1.783479704356937, 1};
Point(p10 + 19) = {13.99462415425432, -1.866454999304332, 1};
Point(p10 + 20) = {13.987929, -1.951525, 1};
Point(p10 + 21) = {13.99462415425432, -2.036595000695668, 1};
Point(p10 + 22) = {14.0145447600996, -2.119570295643063, 1};
Point(p10 + 23) = {14.04720030610722, -2.198407757701363, 1};
Point(p10 + 24) = {14.09178670435694, -2.27116614690816, 1};
Point(p10 + 25) = {14.14720608975007, -2.336053910249932, 1};
Point(p10 + 26) = {14.21209385309184, -2.391473295643062, 1};
Point(p10 + 27) = {14.28485224229864, -2.436059693892779, 1};
Point(p10 + 28) = {14.36368970435694, -2.468715239900402, 1};
Point(p10 + 29) = {14.44666499930433, -2.488635845745679, 1};
Point(p10 + 30) = {14.531735, -2.495331, 1};
Point(p10 + 31) = {14.61680500069567, -2.488635845745679, 1};
Point(p10 + 32) = {14.69978029564306, -2.468715239900402, 1};
Point(p10 + 33) = {14.77861775770136, -2.436059693892779, 1};
Point(p10 + 34) = {14.85137614690816, -2.391473295643063, 1};
Point(p10 + 35) = {14.91626391024993, -2.336053910249932, 1};
Point(p10 + 36) = {14.97168329564306, -2.271166146908161, 1};
Point(p10 + 37) = {15.01626969389278, -2.198407757701364, 1};
Point(p10 + 38) = {15.0489252399004, -2.119570295643063, 1};
Point(p10 + 39) = {15.06884584574568, -2.036595000695668, 1};
Spline(10) = {8, p10 + 1, p10 + 2, p10 + 3, p10 + 4, p10 + 5, p10 + 6, p10 + 7, p10 + 8, p10 + 9, p10 + 10, p10 + 11, p10 + 12, p10 + 13, p10 + 14, p10 + 15, p10 + 16, p10 + 17, p10 + 18, p10 + 19, p10 + 20, p10 + 21, p10 + 22, p10 + 23, p10 + 24, p10 + 25, p10 + 26, p10 + 27, p10 + 28, p10 + 29, p10 + 30, p10 + 31, p10 + 32, p10 + 33, p10 + 34, p10 + 35, p10 + 36, p10 + 37, p10 + 38, p10 + 39, 8};
p11 = newp;
Point(p11 + 1) = {15.86999345183178, 2.02305251572677, 1};
Point(p11 + 2) = {15.82853589752581, 2.195735657145925, 1};
Point(p11 + 3) = {15.76057515965885, 2.359807392213236, 1};
Point(p11 + 4) = {15.66778465714593, 2.511227730288474, 1};
Point(p11 + 5) = {15.55244920011294, 2.646268200112939, 1};
Point(p11 + 6) = {15.41740873028848, 2.761603657145925, 1};
Point(p11 + 7) = {15.26598839221324, 2.854394159658847, 1};
Point(p11 + 8) = {15.10191665714593, 2.922354897525812, 1};
Point(p11 + 9) = {14.92923351572677, 2.963812451831779, 1};
Point(p11 + 10) = {14.752191, 2.977746, 1};
Point(p11 + 11) = {14.57514848427323, 2.963812451831779, 1};
Point(p11 + 12) = {14.40246534285408, 2.922354897525812, 1};
Point(p11 + 13) = {14.23839360778676, 2.854394159658847, 1};
Point(p11 + 14) = {14.08697326971152, 2.761603657145925, 1};
Point(p11 + 15) = {13.95193279988706, 2.646268200112939, 1};
Point(p11 + 16) = {13.83659734285408, 2.511227730288474, 1};
Point(p11 + 17) = {13.74380684034115, 2.359807392213236, 1};
Point(p11 + 18) = {13.67584610247419, 2.195735657145926, 1};
Point(p11 + 19) = {13.63438854816822, 2.023052515726771, 1};
Point(p11 + 20) = {13.620455, 1.84601, 1};
Point(p11 + 21) = {13.63438854816822, 1.668967484273229, 1};
Point(p11 + 22) = {13.67584610247419, 1.496284342854074, 1};
Point(p11 + 23) = {13.74380684034115, 1.332212607786765, 1};
Point(p11 + 24) = {13.83659734285407, 1.180792269711526, 1};
Point(p11 + 25) = {13.95193279988706, 1.045751799887061, 1};
Point(p11 + 26) = {14.08697326971152, 0.9304163428540745, 1};
Point(p11 + 27) = {14.23839360778676, 0.8376258403411532, 1};
Point(p11 + 28) = {14.40246534285407, 0.7696651024741881, 1};
Point(p11 + 29) = {14.57514848427323, 0.7282075481682211, 1};
Point(p11 + 30) = {14.752191, 0.7142739999999999, 1};
Point(p11 + 31) = {14.92923351572677, 0.7282075481682211, 1};
Point(p11 + 32) = {15.10191665714592, 0.7696651024741878, 1};
Point(p11 + 33) = {15.26598839221324, 0.8376258403411532, 1};
Point(p11 + 34) = {15.41740873028847, 0.9304163428540743, 1};
Point(p11 + 35) = {15.55244920011294, 1.045751799887061, 1};
Point(p11 + 36) = {15.66778465714592, 1.180792269711525, 1};
Point(p11 + 37) = {15.76057515965885, 1.332212607786764, 1};
Point(p11 + 38) = {15.82853589752581, 1.496284342854074, 1};
Point(p11 + 39) = {15.86999345183178, 1.668967484273229, 1};
Spline(11) = {9, p11 + 1, p11 + 2, p11 + 3, p11 + 4, p11 + 5, p11 + 6, p11 + 7, p11 + 8, p11 + 9, p11 + 10, p11 + 11, p11 + 12, p11 + 13, p11 + 14, p11 + 15, p11 + 16, p11 + 17, p11 + 18, p11 + 19, p11 + 20, p11 + 21, p11 + 22, p11 + 23, p11 + 24, p11 + 25, p11 + 26, p11 + 27, p11 + 28, p11 + 29, p11 + 30, p11 + 31, p11 + 32, p11 + 33, p11 + 34, p11 + 35, p11 + 36, p11 + 37, p11 + 38, p11 + 39, 9};
Line(12) = {4, 10};
Line(13) = {10, 7};
Line(14) = {5, 10};
p15 = newp;
Point(p15 + 1) = {15.06884584574568, -1.866454999304332, 0};
Point(p15 + 2) = {15.0489252399004, -1.783479704356937, 0};
Point(p15 + 3) = {15.01626969389278, -1.704642242298636, 0};
Point(p15 + 4) = {14.97168329564306, -1.631883853091839, 0};
Point(p15 + 5) = {14.91626391024993, -1.566996089750068, 0};
Point(p15 + 6) = {14.85137614690816, -1.511576704356937, 0};
Point(p15 + 7) = {14.77861775770136, -1.46699030610722, 0};
Point(p15 + 8) = {14.69978029564306, -1.434334760099598, 0};
Point(p15 + 9) = {14.61680500069567, -1.41441415425432, 0};
Point(p15 + 10) = {14.531735, -1.407719, 0};
Point(p15 + 11) = {14.44666499930433, -1.41441415425432, 0};
Point(p15 + 12) = {14.36368970435694, -1.434334760099598, 0};
Point(p15 + 13) = {14.28485224229864, -1.46699030610722, 0};
Point(p15 + 14) = {14.21209385309184, -1.511576704356937, 0};
Point(p15 + 15) = {14.14720608975007, -1.566996089750068, 0};
Point(p15 + 16) = {14.09178670435694, -1.631883853091839, 0};
Point(p15 + 17) = {14.04720030610722, -1.704642242298636, 0};
Point(p15 + 18) = {14.0145447600996, -1.783479704356937, 0};
Point(p15 + 19) = {13.99462415425432, -1.866454999304332, 0};
Point(p15 + 20) = {13.987929, -1.951525, 0};
Point(p15 + 21) = {13.99462415425432, -2.036595000695668, 0};
Point(p15 + 22) = {14.0145447600996, -2.119570295643063, 0};
Point(p15 + 23) = {14.04720030610722, -2.198407757701363, 0};
Point(p15 + 24) = {14.09178670435694, -2.27116614690816, 0};
Point(p15 + 25) = {14.14720608975007, -2.336053910249932, 0};
Point(p15 + 26) = {14.21209385309184, -2.391473295643062, 0};
Point(p15 + 27) = {14.28485224229864, -2.436059693892779, 0};
Point(p15 + 28) = {14.36368970435694, -2.468715239900402, 0};
Point(p15 + 29) = {14.44666499930433, -2.488635845745679, 0};
Point(p15 + 30) = {14.531735, -2.495331, 0};
Point(p15 + 31) = {14.61680500069567, -2.488635845745679, 0};
Point(p15 + 32) = {14.69978029564306, -2.468715239900402, 0};
Point(p15 + 33) = {14.77861775770136, -2.436059693892779, 0};
Point(p15 + 34) = {14.85137614690816, -2.391473295643063, 0};
Point(p15 + 35) = {14.91626391024993, -2.336053910249932, 0};
Point(p15 + 36) = {14.97168329564306, -2.271166146908161, 0};
Point(p15 + 37) = {15.01626969389278, -2.198407757701364, 0};
Point(p15 + 38) = {15.0489252399004, -2.119570295643063, 0};
Point(p15 + 39) = {15.06884584574568, -2.036595000695668, 0};
Spline(15) = {11, p15 + 1, p15 + 2, p15 + 3, p15 + 4, p15 + 5, p15 + 6, p15 + 7, p15 + 8, p15 + 9, p15 + 10, p15 + 11, p15 + 12, p15 + 13, p15 + 14, p15 + 15, p15 + 16, p15 + 17, p15 + 18, p15 + 19, p15 + 20, p15 + 21, p15 + 22, p15 + 23, p15 + 24, p15 + 25, p15 + 26, p15 + 27, p15 + 28, p15 + 29, p15 + 30, p15 + 31, p15 + 32, p15 + 33, p15 + 34, p15 + 35, p15 + 36, p15 + 37, p15 + 38, p15 + 39, 11};
p16 = newp;
Point(p16 + 1) = {15.86999345183178, 2.02305251572677, 0};
Point(p16 + 2) = {15.82853589752581, 2.195735657145925, 0};
Point(p16 + 3) = {15.76057515965885, 2.359807392213236, 0};
Point(p16 + 4) = {15.66778465714593, 2.511227730288474, 0};
Point(p16 + 5) = {15.55244920011294, 2.646268200112939, 0};
Point(p16 + 6) = {15.41740873028848, 2.761603657145925, 0};
Point(p16 + 7) = {15.26598839221324, 2.854394159658847, 0};
Point(p16 + 8) = {15.10191665714593, 2.922354897525812, 0};
Point(p16 + 9) = {14.92923351572677, 2.963812451831779, 0};
Point(p16 + 10) = {14.752191, 2.977746, 0};
Point(p16 + 11) = {14.57514848427323, 2.963812451831779, 0};
Point(p16 + 12) = {14.40246534285408, 2.922354897525812, 0};
Point(p16 + 13) = {14.23839360778676, 2.854394159658847, 0};
Point(p16 + 14) = {14.08697326971152, 2.761603657145925, 0};
Point(p16 + 15) = {13.95193279988706, 2.646268200112939, 0};
Point(p16 + 16) = {13.83659734285408, 2.511227730288474, 0};
Point(p16 + 17) = {13.74380684034115, 2.359807392213236, 0};
Point(p16 + 18) = {13.67584610247419, 2.195735657145926, 0};
Point(p16 + 19) = {13.63438854816822, 2.023052515726771, 0};
Point(p16 + 20) = {13.620455, 1.84601, 0};
Point(p16 + 21) = {13.63438854816822, 1.668967484273229, 0};
Point(p16 + 22) = {13.67584610247419, 1.496284342854074, 0};
Point(p16 + 23) = {13.74380684034115, 1.332212607786765, 0};
Point(p16 + 24) = {13.83659734285407, 1.180792269711526, 0};
Point(p16 + 25) = {13.95193279988706, 1.045751799887061, 0};
Point(p16 + 26) = {14.08697326971152, 0.9304163428540745, 0};
Point(p16 + 27) = {14.23839360778676, 0.8376258403411532, 0};
Point(p16 + 28) = {14.40246534285407, 0.7696651024741881, 0};
Point(p16 + 29) = {14.57514848427323, 0.7282075481682211, 0};
Point(p16 + 30) = {14.752191, 0.7142739999999999, 0};
Point(p16 + 31) = {14.92923351572677, 0.7282075481682211, 0};
Point(p16 + 32) = {15.10191665714592, 0.7696651024741878, 0};
Point(p16 + 33) = {15.26598839221324, 0.8376258403411532, 0};
Point(p16 + 34) = {15.41740873028847, 0.9304163428540743, 0};
Point(p16 + 35) = {15.55244920011294, 1.045751799887061, 0};
Point(p16 + 36) = {15.66778465714592, 1.180792269711525, 0};
Point(p16 + 37) = {15.76057515965885, 1.332212607786764, 0};
Point(p16 + 38) = {15.82853589752581, 1.496284342854074, 0};
Point(p16 + 39) = {15.86999345183178, 1.668967484273229, 0};
Spline(16) = {12, p16 + 1, p16 + 2, p16 + 3, p16 + 4, p16 + 5, p16 + 6, p16 + 7, p16 + 8, p16 + 9, p16 + 10, p16 + 11, p16 + 12, p16 + 13, p16 + 14, p16 + 15, p16 + 16, p16 + 17, p16 + 18, p16 + 19, p16 + 20, p16 + 21, p16 + 22, p16 + 23, p16 + 24, p16 + 25, p16 + 26, p16 + 27, p16 + 28, p16 + 29, p16 + 30, p16 + 31, p16 + 32, p16 + 33, p16 + 34, p16 + 35, p16 + 36, p16 + 37, p16 + 38, p16 + 39, 12};
Line(17) = {11, 8};
Line(18) = {12, 9};
Curve Loop(1) = {-1, 4, 3, -2};
Plane Surface(1) = {1};
Curve Loop(2) = {-5, 1, 7, -6};
Plane Surface(2) = {2};
Curve Loop(3) = {-2, 7, 9, -8, -10, -11};
Plane Surface(3) = {3};
Curve Loop(4) = {-12, 3, 8, -13};
Plane Surface(4) = {4};
Curve Loop(5) = {-4, 5, 14, -12, -15, -16};
Plane Surface(5) = {5};
Curve Loop(6) = {-6, 14, 13, -9};
Plane Surface(6) = {6};
Curve Loop(7) = {-10, -17, 15, 17};
Surface(7) = {7};
Curve Loop(8) = {-11, -18, 16, 18};
Surface(8) = {8};
Surface Loop(1) = {1, 2, 3, 4, 5, 6, 7, 8};
Volume(1) = {1};
Physical Surface("INFLOW") = {1};
Physical Surface("OUTFLOW") = {6};
Physical Surface("OBSTACLE") = {7, 8};
Physical Surface("WALL_Y") = {2, 4};
Physical Surface("WALL_Z") = {3, 5};
Physical Volume("FLUID") = {1};
