cl__1 = 0.722386;
cl__2 = 0.364874;
cl__3 = 3.829724;
cl__4 = 0.085817;
cl__5 = 0.09853000000000001;
Point(1) = {0.788562, -3.541701, 1, cl__1};
Point(2) = {0.788562, -3.541701, 0, cl__1};
Point(3) = {0.788562, 5.055096000000001, 1, cl__2};
Point(4) = {0.788562, 5.055096000000001, 0, cl__2};
Point(5) = {38.055254, -3.541701, 0, cl__3};
Point(6) = {38.055254, -3.541701, 1, cl__3};
Point(7) = {38.055254, 5.055096000000001, 1, cl__3};
Point(8) = {8.201510000000001, 1.626944, 1, cl__4};
Point(9) = {6.112569, 3.427225, 1, cl__5};
Point(10) = {38.055254, 5.055096000000001, 0, cl__3};
Point(11) = {8.201510000000001, 1.626944, 0, cl__4};
Point(12) = {6.112569, 3.427225, 0, cl__5};
Line(1) = {2, 1};
Line(2) = {1, 3};
Line(3) = {4, 3};
Line(4) = {2, 4};
Line(5) = {2, 5};
Line(6) = {5, 6};
Line(7) = {1, 6};
Line(8) = {3, 7};
Line(9) = {6, 7};
p10 = newp;
Point(p10 + 1) = {8.190944540183507, 1.76119089556018, 1};
Point(p10 + 2) = {8.159508317419464, 1.892132187011765, 1};
Point(p10 + 3) = {8.107975395843159, 2.016543665189988, 1};
Point(p10 + 4) = {8.037614687011766, 2.131361906604075, 1};
Point(p10 + 5) = {7.950158705090516, 2.233759705090516, 1};
Point(p10 + 6) = {7.847760906604075, 2.321215687011765, 1};
Point(p10 + 7) = {7.732942665189988, 2.391576395843159, 1};
Point(p10 + 8) = {7.608531187011765, 2.443109317419463, 1};
Point(p10 + 9) = {7.47758989556018, 2.474545540183508, 1};
Point(p10 + 10) = {7.343343, 2.485111, 1};
Point(p10 + 11) = {7.20909610443982, 2.474545540183508, 1};
Point(p10 + 12) = {7.078154812988235, 2.443109317419463, 1};
Point(p10 + 13) = {6.953743334810012, 2.391576395843159, 1};
Point(p10 + 14) = {6.838925093395925, 2.321215687011765, 1};
Point(p10 + 15) = {6.736527294909484, 2.233759705090516, 1};
Point(p10 + 16) = {6.649071312988235, 2.131361906604075, 1};
Point(p10 + 17) = {6.578710604156841, 2.016543665189988, 1};
Point(p10 + 18) = {6.527177682580537, 1.892132187011766, 1};
Point(p10 + 19) = {6.495741459816492, 1.76119089556018, 1};
Point(p10 + 20) = {6.485176, 1.626944, 1};
Point(p10 + 21) = {6.495741459816492, 1.49269710443982, 1};
Point(p10 + 22) = {6.527177682580537, 1.361755812988234, 1};
Point(p10 + 23) = {6.578710604156841, 1.237344334810013, 1};
Point(p10 + 24) = {6.649071312988235, 1.122526093395925, 1};
Point(p10 + 25) = {6.736527294909484, 1.020128294909484, 1};
Point(p10 + 26) = {6.838925093395925, 0.9326723129882345, 1};
Point(p10 + 27) = {6.953743334810012, 0.8623116041568409, 1};
Point(p10 + 28) = {7.078154812988235, 0.8107786825805369, 1};
Point(p10 + 29) = {7.20909610443982, 0.7793424598164924, 1};
Point(p10 + 30) = {7.343343, 0.7687769999999999, 1};
Point(p10 + 31) = {7.47758989556018, 0.7793424598164923, 1};
Point(p10 + 32) = {7.608531187011765, 0.8107786825805369, 1};
Point(p10 + 33) = {7.732942665189987, 0.8623116041568408, 1};
Point(p10 + 34) = {7.847760906604075, 0.9326723129882343, 1};
Point(p10 + 35) = {7.950158705090516, 1.020128294909484, 1};
Point(p10 + 36) = {8.037614687011766, 1.122526093395925, 1};
Point(p10 + 37) = {8.107975395843159, 1.237344334810012, 1};
Point(p10 + 38) = {8.159508317419464, 1.361755812988234, 1};
Point(p10 + 39) = {8.190944540183507, 1.49269710443982, 1};
Spline(10) = {8, p10 + 1, p10 + 2, p10 + 3, p10 + 4, p10 + 5, p10 + 6, p10 + 7, p10 + 8, p10 + 9, p10 + 10, p10 + 11, p10 + 12, p10 + 13, p10 + 14, p10 + 15, p10 + 16, p10 + 17, p10 + 18, p10 + 19, p10 + 20, p10 + 21, p10 + 22, p10 + 23, p10 + 24, p10 + 25, p10 + 26, p10 + 27, p10 + 28, p10 + 29, p10 + 30, p10 + 31, p10 + 32, p10 + 33, p10 + 34, p10 + 35, p10 + 36, p10 + 37, p10 + 38, p10 + 39, 8};
p11 = newp;
Point(p11 + 1) = {6.10043829736507, 3.581360191273069, 1};
Point(p11 + 2) = {6.064344887618647, 3.731700062591624, 1};
Point(p11 + 3) = {6.005177510295847, 3.874542747374375, 1};
Point(p11 + 4) = {5.924393062591625, 4.006370984654279, 1};
Point(p11 + 5) = {5.823980725716668, 4.123938725716668, 1};
Point(p11 + 6) = {5.706412984654278, 4.224351062591625, 1};
Point(p11 + 7) = {5.574584747374375, 4.305135510295847, 1};
Point(p11 + 8) = {5.431742062591624, 4.364302887618647, 1};
Point(p11 + 9) = {5.281402191273069, 4.40039629736507, 1};
Point(p11 + 10) = {5.127267, 4.412527, 1};
Point(p11 + 11) = {4.97313180872693, 4.40039629736507, 1};
Point(p11 + 12) = {4.822791937408375, 4.364302887618647, 1};
Point(p11 + 13) = {4.679949252625625, 4.305135510295847, 1};
Point(p11 + 14) = {4.548121015345721, 4.224351062591625, 1};
Point(p11 + 15) = {4.430553274283332, 4.123938725716668, 1};
Point(p11 + 16) = {4.330140937408375, 4.006370984654279, 1};
Point(p11 + 17) = {4.249356489704152, 3.874542747374375, 1};
Point(p11 + 18) = {4.190189112381352, 3.731700062591624, 1};
Point(p11 + 19) = {4.15409570263493, 3.581360191273069, 1};
Point(p11 + 20) = {4.141965, 3.427225, 1};
Point(p11 + 21) = {4.15409570263493, 3.27308980872693, 1};
Point(p11 + 22) = {4.190189112381352, 3.122749937408375, 1};
Point(p11 + 23) = {4.249356489704152, 2.979907252625626, 1};
Point(p11 + 24) = {4.330140937408375, 2.848079015345722, 1};
Point(p11 + 25) = {4.430553274283332, 2.730511274283332, 1};
Point(p11 + 26) = {4.548121015345721, 2.630098937408376, 1};
Point(p11 + 27) = {4.679949252625625, 2.549314489704153, 1};
Point(p11 + 28) = {4.822791937408375, 2.490147112381353, 1};
Point(p11 + 29) = {4.97313180872693, 2.45405370263493, 1};
Point(p11 + 30) = {5.127267, 2.441923, 1};
Point(p11 + 31) = {5.281402191273069, 2.454053702634929, 1};
Point(p11 + 32) = {5.431742062591624, 2.490147112381353, 1};
Point(p11 + 33) = {5.574584747374375, 2.549314489704153, 1};
Point(p11 + 34) = {5.706412984654278, 2.630098937408375, 1};
Point(p11 + 35) = {5.823980725716667, 2.730511274283332, 1};
Point(p11 + 36) = {5.924393062591625, 2.848079015345721, 1};
Point(p11 + 37) = {6.005177510295847, 2.979907252625625, 1};
Point(p11 + 38) = {6.064344887618647, 3.122749937408375, 1};
Point(p11 + 39) = {6.10043829736507, 3.27308980872693, 1};
Spline(11) = {9, p11 + 1, p11 + 2, p11 + 3, p11 + 4, p11 + 5, p11 + 6, p11 + 7, p11 + 8, p11 + 9, p11 + 10, p11 + 11, p11 + 12, p11 + 13, p11 + 14, p11 + 15, p11 + 16, p11 + 17, p11 + 18, p11 + 19, p11 + 20, p11 + 21, p11 + 22, p11 + 23, p11 + 24, p11 + 25, p11 + 26, p11 + 27, p11 + 28, p11 + 29, p11 + 30, p11 + 31, p11 + 32, p11 + 33, p11 + 34, p11 + 35, p11 + 36, p11 + 37, p11 + 38, p11 + 39, 9};
Line(12) = {4, 10};
Line(13) = {10, 7};
Line(14) = {5, 10};
p15 = newp;
Point(p15 + 1) = {8.190944540183507, 1.76119089556018, 0};
Point(p15 + 2) = {8.159508317419464, 1.892132187011765, 0};
Point(p15 + 3) = {8.107975395843159, 2.016543665189988, 0};
Point(p15 + 4) = {8.037614687011766, 2.131361906604075, 0};
Point(p15 + 5) = {7.950158705090516, 2.233759705090516, 0};
Point(p15 + 6) = {7.847760906604075, 2.321215687011765, 0};
Point(p15 + 7) = {7.732942665189988, 2.391576395843159, 0};
Point(p15 + 8) = {7.608531187011765, 2.443109317419463, 0};
Point(p15 + 9) = {7.47758989556018, 2.474545540183508, 0};
Point(p15 + 10) = {7.343343, 2.485111, 0};
Point(p15 + 11) = {7.20909610443982, 2.474545540183508, 0};
Point(p15 + 12) = {7.078154812988235, 2.443109317419463, 0};
Point(p15 + 13) = {6.953743334810012, 2.391576395843159, 0};
Point(p15 + 14) = {6.838925093395925, 2.321215687011765, 0};
Point(p15 + 15) = {6.736527294909484, 2.233759705090516, 0};
Point(p15 + 16) = {6.649071312988235, 2.131361906604075, 0};
Point(p15 + 17) = {6.578710604156841, 2.016543665189988, 0};
Point(p15 + 18) = {6.527177682580537, 1.892132187011766, 0};
Point(p15 + 19) = {6.495741459816492, 1.76119089556018, 0};
Point(p15 + 20) = {6.485176, 1.626944, 0};
Point(p15 + 21) = {6.495741459816492, 1.49269710443982, 0};
Point(p15 + 22) = {6.527177682580537, 1.361755812988234, 0};
Point(p15 + 23) = {6.578710604156841, 1.237344334810013, 0};
Point(p15 + 24) = {6.649071312988235, 1.122526093395925, 0};
Point(p15 + 25) = {6.736527294909484, 1.020128294909484, 0};
Point(p15 + 26) = {6.838925093395925, 0.9326723129882345, 0};
Point(p15 + 27) = {6.953743334810012, 0.8623116041568409, 0};
Point(p15 + 28) = {7.078154812988235, 0.8107786825805369, 0};
Point(p15 + 29) = {7.20909610443982, 0.7793424598164924, 0};
Point(p15 + 30) = {7.343343, 0.7687769999999999, 0};
Point(p15 + 31) = {7.47758989556018, 0.7793424598164923, 0};
Point(p15 + 32) = {7.608531187011765, 0.8107786825805369, 0};
Point(p15 + 33) = {7.732942665189987, 0.8623116041568408, 0};
Point(p15 + 34) = {7.847760906604075, 0.9326723129882343, 0};
Point(p15 + 35) = {7.950158705090516, 1.020128294909484, 0};
Point(p15 + 36) = {8.037614687011766, 1.122526093395925, 0};
Point(p15 + 37) = {8.107975395843159, 1.237344334810012, 0};
Point(p15 + 38) = {8.159508317419464, 1.361755812988234, 0};
Point(p15 + 39) = {8.190944540183507, 1.49269710443982, 0};
Spline(15) = {11, p15 + 1, p15 + 2, p15 + 3, p15 + 4, p15 + 5, p15 + 6, p15 + 7, p15 + 8, p15 + 9, p15 + 10, p15 + 11, p15 + 12, p15 + 13, p15 + 14, p15 + 15, p15 + 16, p15 + 17, p15 + 18, p15 + 19, p15 + 20, p15 + 21, p15 + 22, p15 + 23, p15 + 24, p15 + 25, p15 + 26, p15 + 27, p15 + 28, p15 + 29, p15 + 30, p15 + 31, p15 + 32, p15 + 33, p15 + 34, p15 + 35, p15 + 36, p15 + 37, p15 + 38, p15 + 39, 11};
p16 = newp;
Point(p16 + 1) = {6.10043829736507, 3.581360191273069, 0};
Point(p16 + 2) = {6.064344887618647, 3.731700062591624, 0};
Point(p16 + 3) = {6.005177510295847, 3.874542747374375, 0};
Point(p16 + 4) = {5.924393062591625, 4.006370984654279, 0};
Point(p16 + 5) = {5.823980725716668, 4.123938725716668, 0};
Point(p16 + 6) = {5.706412984654278, 4.224351062591625, 0};
Point(p16 + 7) = {5.574584747374375, 4.305135510295847, 0};
Point(p16 + 8) = {5.431742062591624, 4.364302887618647, 0};
Point(p16 + 9) = {5.281402191273069, 4.40039629736507, 0};
Point(p16 + 10) = {5.127267, 4.412527, 0};
Point(p16 + 11) = {4.97313180872693, 4.40039629736507, 0};
Point(p16 + 12) = {4.822791937408375, 4.364302887618647, 0};
Point(p16 + 13) = {4.679949252625625, 4.305135510295847, 0};
Point(p16 + 14) = {4.548121015345721, 4.224351062591625, 0};
Point(p16 + 15) = {4.430553274283332, 4.123938725716668, 0};
Point(p16 + 16) = {4.330140937408375, 4.006370984654279, 0};
Point(p16 + 17) = {4.249356489704152, 3.874542747374375, 0};
Point(p16 + 18) = {4.190189112381352, 3.731700062591624, 0};
Point(p16 + 19) = {4.15409570263493, 3.581360191273069, 0};
Point(p16 + 20) = {4.141965, 3.427225, 0};
Point(p16 + 21) = {4.15409570263493, 3.27308980872693, 0};
Point(p16 + 22) = {4.190189112381352, 3.122749937408375, 0};
Point(p16 + 23) = {4.249356489704152, 2.979907252625626, 0};
Point(p16 + 24) = {4.330140937408375, 2.848079015345722, 0};
Point(p16 + 25) = {4.430553274283332, 2.730511274283332, 0};
Point(p16 + 26) = {4.548121015345721, 2.630098937408376, 0};
Point(p16 + 27) = {4.679949252625625, 2.549314489704153, 0};
Point(p16 + 28) = {4.822791937408375, 2.490147112381353, 0};
Point(p16 + 29) = {4.97313180872693, 2.45405370263493, 0};
Point(p16 + 30) = {5.127267, 2.441923, 0};
Point(p16 + 31) = {5.281402191273069, 2.454053702634929, 0};
Point(p16 + 32) = {5.431742062591624, 2.490147112381353, 0};
Point(p16 + 33) = {5.574584747374375, 2.549314489704153, 0};
Point(p16 + 34) = {5.706412984654278, 2.630098937408375, 0};
Point(p16 + 35) = {5.823980725716667, 2.730511274283332, 0};
Point(p16 + 36) = {5.924393062591625, 2.848079015345721, 0};
Point(p16 + 37) = {6.005177510295847, 2.979907252625625, 0};
Point(p16 + 38) = {6.064344887618647, 3.122749937408375, 0};
Point(p16 + 39) = {6.10043829736507, 3.27308980872693, 0};
Spline(16) = {12, p16 + 1, p16 + 2, p16 + 3, p16 + 4, p16 + 5, p16 + 6, p16 + 7, p16 + 8, p16 + 9, p16 + 10, p16 + 11, p16 + 12, p16 + 13, p16 + 14, p16 + 15, p16 + 16, p16 + 17, p16 + 18, p16 + 19, p16 + 20, p16 + 21, p16 + 22, p16 + 23, p16 + 24, p16 + 25, p16 + 26, p16 + 27, p16 + 28, p16 + 29, p16 + 30, p16 + 31, p16 + 32, p16 + 33, p16 + 34, p16 + 35, p16 + 36, p16 + 37, p16 + 38, p16 + 39, 12};
Line(17) = {11, 8};
Line(18) = {12, 9};
Curve Loop(1) = {-1, 4, 3, -2};
Plane Surface(1) = {1};
Curve Loop(2) = {-5, 1, 7, -6};
Plane Surface(2) = {2};
Curve Loop(3) = {-2, 7, 9, -8, -10, -11};
Plane Surface(3) = {3};
Curve Loop(4) = {-12, 3, 8, -13};
Plane Surface(4) = {4};
Curve Loop(5) = {-4, 5, 14, -12, -15, -16};
Plane Surface(5) = {5};
Curve Loop(6) = {-6, 14, 13, -9};
Plane Surface(6) = {6};
Curve Loop(7) = {-10, -17, 15, 17};
Surface(7) = {7};
Curve Loop(8) = {-11, -18, 16, 18};
Surface(8) = {8};
Surface Loop(1) = {1, 2, 3, 4, 5, 6, 7, 8};
Volume(1) = {1};
Physical Surface("INFLOW") = {1};
Physical Surface("OUTFLOW") = {6};
Physical Surface("OBSTACLE") = {7, 8};
Physical Surface("WALL_Y") = {2, 4};
Physical Surface("WALL_Z") = {3, 5};
Physical Volume("FLUID") = {1};
