cl__1 = 1.107617;
cl__2 = 3.84177;
cl__3 = 0.743707;
cl__4 = 0.058475;
cl__5 = 0.101082;
Point(1) = {0.845518, -4.015123, 1, cl__1};
Point(2) = {0.845518, -4.015123, 0, cl__1};
Point(3) = {0.845518, 5.249847999999999, 1, cl__2};
Point(4) = {0.845518, 5.249847999999999, 0, cl__2};
Point(5) = {38.137383, -4.015123, 0, cl__3};
Point(6) = {38.137383, -4.015123, 1, cl__3};
Point(7) = {38.137383, 5.249847999999999, 1, cl__2};
Point(8) = {11.928519, 1.060696, 1, cl__4};
Point(9) = {7.991664, 1.792184, 1, cl__5};
Point(10) = {38.137383, 5.249847999999999, 0, cl__2};
Point(11) = {11.928519, 1.060696, 0, cl__4};
Point(12) = {7.991664, 1.792184, 0, cl__5};
Line(1) = {2, 1};
Line(2) = {1, 3};
Line(3) = {4, 3};
Line(4) = {2, 4};
Line(5) = {2, 5};
Line(6) = {5, 6};
Line(7) = {1, 6};
Line(8) = {3, 7};
Line(9) = {6, 7};
p10 = newp;
Point(p10 + 1) = {11.92131973253969, 1.152171366301205, 1};
Point(p10 + 2) = {11.89989920001662, 1.241394305494739, 1};
Point(p10 + 3) = {11.8647848470322, 1.3261678527037, 1};
Point(p10 + 4) = {11.81684130549474, 1.404404601848528, 1};
Point(p10 + 5) = {11.7572491045124, 1.474178104512396, 1};
Point(p10 + 6) = {11.68747560184853, 1.533770305494739, 1};
Point(p10 + 7) = {11.6092388527037, 1.581713847032197, 1};
Point(p10 + 8) = {11.52446530549474, 1.616828200016624, 1};
Point(p10 + 9) = {11.43524236630121, 1.638248732539688, 1};
Point(p10 + 10) = {11.343767, 1.645448, 1};
Point(p10 + 11) = {11.25229163369879, 1.638248732539688, 1};
Point(p10 + 12) = {11.16306869450526, 1.616828200016624, 1};
Point(p10 + 13) = {11.0782951472963, 1.581713847032197, 1};
Point(p10 + 14) = {11.00005839815147, 1.533770305494739, 1};
Point(p10 + 15) = {10.9302848954876, 1.474178104512396, 1};
Point(p10 + 16) = {10.87069269450526, 1.404404601848528, 1};
Point(p10 + 17) = {10.8227491529678, 1.3261678527037, 1};
Point(p10 + 18) = {10.78763479998338, 1.241394305494739, 1};
Point(p10 + 19) = {10.76621426746031, 1.152171366301205, 1};
Point(p10 + 20) = {10.759015, 1.060696, 1};
Point(p10 + 21) = {10.76621426746031, 0.9692206336987951, 1};
Point(p10 + 22) = {10.78763479998338, 0.8799976945052607, 1};
Point(p10 + 23) = {10.8227491529678, 0.7952241472963009, 1};
Point(p10 + 24) = {10.87069269450526, 0.7169873981514718, 1};
Point(p10 + 25) = {10.9302848954876, 0.6472138954876041, 1};
Point(p10 + 26) = {11.00005839815147, 0.5876216945052608, 1};
Point(p10 + 27) = {11.0782951472963, 0.5396781529678036, 1};
Point(p10 + 28) = {11.16306869450526, 0.5045637999833764, 1};
Point(p10 + 29) = {11.25229163369879, 0.4831432674603121, 1};
Point(p10 + 30) = {11.343767, 0.475944, 1};
Point(p10 + 31) = {11.43524236630121, 0.483143267460312, 1};
Point(p10 + 32) = {11.52446530549474, 0.5045637999833763, 1};
Point(p10 + 33) = {11.6092388527037, 0.5396781529678035, 1};
Point(p10 + 34) = {11.68747560184853, 0.5876216945052607, 1};
Point(p10 + 35) = {11.7572491045124, 0.6472138954876039, 1};
Point(p10 + 36) = {11.81684130549474, 0.7169873981514716, 1};
Point(p10 + 37) = {11.8647848470322, 0.7952241472963004, 1};
Point(p10 + 38) = {11.89989920001662, 0.8799976945052607, 1};
Point(p10 + 39) = {11.92131973253969, 0.9692206336987949, 1};
Spline(10) = {8, p10 + 1, p10 + 2, p10 + 3, p10 + 4, p10 + 5, p10 + 6, p10 + 7, p10 + 8, p10 + 9, p10 + 10, p10 + 11, p10 + 12, p10 + 13, p10 + 14, p10 + 15, p10 + 16, p10 + 17, p10 + 18, p10 + 19, p10 + 20, p10 + 21, p10 + 22, p10 + 23, p10 + 24, p10 + 25, p10 + 26, p10 + 27, p10 + 28, p10 + 29, p10 + 30, p10 + 31, p10 + 32, p10 + 33, p10 + 34, p10 + 35, p10 + 36, p10 + 37, p10 + 38, p10 + 39, 8};
p11 = newp;
Point(p11 + 1) = {7.97921906688208, 1.950311868124291, 1};
Point(p11 + 2) = {7.942190703084048, 2.104546103339056, 1};
Point(p11 + 3) = {7.881490669812707, 2.251088946899227, 1};
Point(p11 + 4) = {7.798613603339056, 2.386332027648539, 1};
Point(p11 + 5) = {7.695600212092891, 2.506945212092892, 1};
Point(p11 + 6) = {7.574987027648539, 2.609958603339056, 1};
Point(p11 + 7) = {7.439743946899227, 2.692835669812707, 1};
Point(p11 + 8) = {7.293201103339056, 2.753535703084049, 1};
Point(p11 + 9) = {7.138966868124291, 2.79056406688208, 1};
Point(p11 + 10) = {6.980839, 2.803009, 1};
Point(p11 + 11) = {6.822711131875708, 2.79056406688208, 1};
Point(p11 + 12) = {6.668476896660944, 2.753535703084049, 1};
Point(p11 + 13) = {6.521934053100773, 2.692835669812707, 1};
Point(p11 + 14) = {6.38669097235146, 2.609958603339056, 1};
Point(p11 + 15) = {6.266077787907108, 2.506945212092892, 1};
Point(p11 + 16) = {6.163064396660944, 2.386332027648539, 1};
Point(p11 + 17) = {6.080187330187293, 2.251088946899228, 1};
Point(p11 + 18) = {6.019487296915951, 2.104546103339056, 1};
Point(p11 + 19) = {5.982458933117919, 1.950311868124291, 1};
Point(p11 + 20) = {5.970013999999999, 1.792184, 1};
Point(p11 + 21) = {5.982458933117919, 1.634056131875709, 1};
Point(p11 + 22) = {6.019487296915951, 1.479821896660944, 1};
Point(p11 + 23) = {6.080187330187292, 1.333279053100773, 1};
Point(p11 + 24) = {6.163064396660944, 1.198035972351461, 1};
Point(p11 + 25) = {6.266077787907108, 1.077422787907108, 1};
Point(p11 + 26) = {6.38669097235146, 0.9744093966609438, 1};
Point(p11 + 27) = {6.521934053100772, 0.8915323301872931, 1};
Point(p11 + 28) = {6.668476896660943, 0.8308322969159514, 1};
Point(p11 + 29) = {6.822711131875708, 0.7938039331179199, 1};
Point(p11 + 30) = {6.980839, 0.7813589999999999, 1};
Point(p11 + 31) = {7.138966868124291, 0.7938039331179197, 1};
Point(p11 + 32) = {7.293201103339055, 0.8308322969159513, 1};
Point(p11 + 33) = {7.439743946899227, 0.8915323301872929, 1};
Point(p11 + 34) = {7.574987027648539, 0.9744093966609436, 1};
Point(p11 + 35) = {7.695600212092891, 1.077422787907108, 1};
Point(p11 + 36) = {7.798613603339056, 1.198035972351461, 1};
Point(p11 + 37) = {7.881490669812706, 1.333279053100772, 1};
Point(p11 + 38) = {7.942190703084048, 1.479821896660944, 1};
Point(p11 + 39) = {7.97921906688208, 1.634056131875708, 1};
Spline(11) = {9, p11 + 1, p11 + 2, p11 + 3, p11 + 4, p11 + 5, p11 + 6, p11 + 7, p11 + 8, p11 + 9, p11 + 10, p11 + 11, p11 + 12, p11 + 13, p11 + 14, p11 + 15, p11 + 16, p11 + 17, p11 + 18, p11 + 19, p11 + 20, p11 + 21, p11 + 22, p11 + 23, p11 + 24, p11 + 25, p11 + 26, p11 + 27, p11 + 28, p11 + 29, p11 + 30, p11 + 31, p11 + 32, p11 + 33, p11 + 34, p11 + 35, p11 + 36, p11 + 37, p11 + 38, p11 + 39, 9};
Line(12) = {4, 10};
Line(13) = {10, 7};
Line(14) = {5, 10};
p15 = newp;
Point(p15 + 1) = {11.92131973253969, 1.152171366301205, 0};
Point(p15 + 2) = {11.89989920001662, 1.241394305494739, 0};
Point(p15 + 3) = {11.8647848470322, 1.3261678527037, 0};
Point(p15 + 4) = {11.81684130549474, 1.404404601848528, 0};
Point(p15 + 5) = {11.7572491045124, 1.474178104512396, 0};
Point(p15 + 6) = {11.68747560184853, 1.533770305494739, 0};
Point(p15 + 7) = {11.6092388527037, 1.581713847032197, 0};
Point(p15 + 8) = {11.52446530549474, 1.616828200016624, 0};
Point(p15 + 9) = {11.43524236630121, 1.638248732539688, 0};
Point(p15 + 10) = {11.343767, 1.645448, 0};
Point(p15 + 11) = {11.25229163369879, 1.638248732539688, 0};
Point(p15 + 12) = {11.16306869450526, 1.616828200016624, 0};
Point(p15 + 13) = {11.0782951472963, 1.581713847032197, 0};
Point(p15 + 14) = {11.00005839815147, 1.533770305494739, 0};
Point(p15 + 15) = {10.9302848954876, 1.474178104512396, 0};
Point(p15 + 16) = {10.87069269450526, 1.404404601848528, 0};
Point(p15 + 17) = {10.8227491529678, 1.3261678527037, 0};
Point(p15 + 18) = {10.78763479998338, 1.241394305494739, 0};
Point(p15 + 19) = {10.76621426746031, 1.152171366301205, 0};
Point(p15 + 20) = {10.759015, 1.060696, 0};
Point(p15 + 21) = {10.76621426746031, 0.9692206336987951, 0};
Point(p15 + 22) = {10.78763479998338, 0.8799976945052607, 0};
Point(p15 + 23) = {10.8227491529678, 0.7952241472963009, 0};
Point(p15 + 24) = {10.87069269450526, 0.7169873981514718, 0};
Point(p15 + 25) = {10.9302848954876, 0.6472138954876041, 0};
Point(p15 + 26) = {11.00005839815147, 0.5876216945052608, 0};
Point(p15 + 27) = {11.0782951472963, 0.5396781529678036, 0};
Point(p15 + 28) = {11.16306869450526, 0.5045637999833764, 0};
Point(p15 + 29) = {11.25229163369879, 0.4831432674603121, 0};
Point(p15 + 30) = {11.343767, 0.475944, 0};
Point(p15 + 31) = {11.43524236630121, 0.483143267460312, 0};
Point(p15 + 32) = {11.52446530549474, 0.5045637999833763, 0};
Point(p15 + 33) = {11.6092388527037, 0.5396781529678035, 0};
Point(p15 + 34) = {11.68747560184853, 0.5876216945052607, 0};
Point(p15 + 35) = {11.7572491045124, 0.6472138954876039, 0};
Point(p15 + 36) = {11.81684130549474, 0.7169873981514716, 0};
Point(p15 + 37) = {11.8647848470322, 0.7952241472963004, 0};
Point(p15 + 38) = {11.89989920001662, 0.8799976945052607, 0};
Point(p15 + 39) = {11.92131973253969, 0.9692206336987949, 0};
Spline(15) = {11, p15 + 1, p15 + 2, p15 + 3, p15 + 4, p15 + 5, p15 + 6, p15 + 7, p15 + 8, p15 + 9, p15 + 10, p15 + 11, p15 + 12, p15 + 13, p15 + 14, p15 + 15, p15 + 16, p15 + 17, p15 + 18, p15 + 19, p15 + 20, p15 + 21, p15 + 22, p15 + 23, p15 + 24, p15 + 25, p15 + 26, p15 + 27, p15 + 28, p15 + 29, p15 + 30, p15 + 31, p15 + 32, p15 + 33, p15 + 34, p15 + 35, p15 + 36, p15 + 37, p15 + 38, p15 + 39, 11};
p16 = newp;
Point(p16 + 1) = {7.97921906688208, 1.950311868124291, 0};
Point(p16 + 2) = {7.942190703084048, 2.104546103339056, 0};
Point(p16 + 3) = {7.881490669812707, 2.251088946899227, 0};
Point(p16 + 4) = {7.798613603339056, 2.386332027648539, 0};
Point(p16 + 5) = {7.695600212092891, 2.506945212092892, 0};
Point(p16 + 6) = {7.574987027648539, 2.609958603339056, 0};
Point(p16 + 7) = {7.439743946899227, 2.692835669812707, 0};
Point(p16 + 8) = {7.293201103339056, 2.753535703084049, 0};
Point(p16 + 9) = {7.138966868124291, 2.79056406688208, 0};
Point(p16 + 10) = {6.980839, 2.803009, 0};
Point(p16 + 11) = {6.822711131875708, 2.79056406688208, 0};
Point(p16 + 12) = {6.668476896660944, 2.753535703084049, 0};
Point(p16 + 13) = {6.521934053100773, 2.692835669812707, 0};
Point(p16 + 14) = {6.38669097235146, 2.609958603339056, 0};
Point(p16 + 15) = {6.266077787907108, 2.506945212092892, 0};
Point(p16 + 16) = {6.163064396660944, 2.386332027648539, 0};
Point(p16 + 17) = {6.080187330187293, 2.251088946899228, 0};
Point(p16 + 18) = {6.019487296915951, 2.104546103339056, 0};
Point(p16 + 19) = {5.982458933117919, 1.950311868124291, 0};
Point(p16 + 20) = {5.970013999999999, 1.792184, 0};
Point(p16 + 21) = {5.982458933117919, 1.634056131875709, 0};
Point(p16 + 22) = {6.019487296915951, 1.479821896660944, 0};
Point(p16 + 23) = {6.080187330187292, 1.333279053100773, 0};
Point(p16 + 24) = {6.163064396660944, 1.198035972351461, 0};
Point(p16 + 25) = {6.266077787907108, 1.077422787907108, 0};
Point(p16 + 26) = {6.38669097235146, 0.9744093966609438, 0};
Point(p16 + 27) = {6.521934053100772, 0.8915323301872931, 0};
Point(p16 + 28) = {6.668476896660943, 0.8308322969159514, 0};
Point(p16 + 29) = {6.822711131875708, 0.7938039331179199, 0};
Point(p16 + 30) = {6.980839, 0.7813589999999999, 0};
Point(p16 + 31) = {7.138966868124291, 0.7938039331179197, 0};
Point(p16 + 32) = {7.293201103339055, 0.8308322969159513, 0};
Point(p16 + 33) = {7.439743946899227, 0.8915323301872929, 0};
Point(p16 + 34) = {7.574987027648539, 0.9744093966609436, 0};
Point(p16 + 35) = {7.695600212092891, 1.077422787907108, 0};
Point(p16 + 36) = {7.798613603339056, 1.198035972351461, 0};
Point(p16 + 37) = {7.881490669812706, 1.333279053100772, 0};
Point(p16 + 38) = {7.942190703084048, 1.479821896660944, 0};
Point(p16 + 39) = {7.97921906688208, 1.634056131875708, 0};
Spline(16) = {12, p16 + 1, p16 + 2, p16 + 3, p16 + 4, p16 + 5, p16 + 6, p16 + 7, p16 + 8, p16 + 9, p16 + 10, p16 + 11, p16 + 12, p16 + 13, p16 + 14, p16 + 15, p16 + 16, p16 + 17, p16 + 18, p16 + 19, p16 + 20, p16 + 21, p16 + 22, p16 + 23, p16 + 24, p16 + 25, p16 + 26, p16 + 27, p16 + 28, p16 + 29, p16 + 30, p16 + 31, p16 + 32, p16 + 33, p16 + 34, p16 + 35, p16 + 36, p16 + 37, p16 + 38, p16 + 39, 12};
Line(17) = {11, 8};
Line(18) = {12, 9};
Curve Loop(1) = {-1, 4, 3, -2};
Plane Surface(1) = {1};
Curve Loop(2) = {-5, 1, 7, -6};
Plane Surface(2) = {2};
Curve Loop(3) = {-2, 7, 9, -8, -10, -11};
Plane Surface(3) = {3};
Curve Loop(4) = {-12, 3, 8, -13};
Plane Surface(4) = {4};
Curve Loop(5) = {-4, 5, 14, -12, -15, -16};
Plane Surface(5) = {5};
Curve Loop(6) = {-6, 14, 13, -9};
Plane Surface(6) = {6};
Curve Loop(7) = {-10, -17, 15, 17};
Surface(7) = {7};
Curve Loop(8) = {-11, -18, 16, 18};
Surface(8) = {8};
Surface Loop(1) = {1, 2, 3, 4, 5, 6, 7, 8};
Volume(1) = {1};
Physical Surface("INFLOW") = {1};
Physical Surface("OUTFLOW") = {6};
Physical Surface("OBSTACLE") = {7, 8};
Physical Surface("WALL_Y") = {2, 4};
Physical Surface("WALL_Z") = {3, 5};
Physical Volume("FLUID") = {1};
