cl__1 = 1;
cl__2 = 0.130515;
cl__3 = 0.082597;
Point(1) = {0.968574, -4.113265, 1, cl__1};
Point(2) = {0.968574, -4.113265, 0, cl__1};
Point(3) = {0.968574, 5.062092, 1, cl__1};
Point(4) = {0.968574, 5.062092, 0, cl__1};
Point(5) = {31.763238, -4.113265, 0, cl__1};
Point(6) = {31.763238, -4.113265, 1, cl__1};
Point(7) = {31.763238, 5.062092, 1, cl__1};
Point(8) = {15.111733, -1.520406, 1, cl__2};
Point(9) = {23.74007, 0.8506169999999998, 1, cl__3};
Point(10) = {31.763238, 5.062092, 0, cl__1};
Point(11) = {15.111733, -1.520406, 0, cl__2};
Point(12) = {23.74007, 0.8506169999999998, 0, cl__3};
Line(1) = {2, 1};
Line(2) = {1, 3};
Line(3) = {4, 3};
Line(4) = {2, 4};
Line(5) = {2, 5};
Line(6) = {5, 6};
Line(7) = {1, 6};
Line(8) = {3, 7};
Line(9) = {6, 7};
p10 = newp;
Point(p10 + 1) = {15.09566438848111, -1.316234932214883, 1};
Point(p10 + 2) = {15.04785421646868, -1.11709123372356, 1};
Point(p10 + 3) = {14.96947972907054, -0.9278784833029315, 1};
Point(p10 + 4) = {14.86247076627644, -0.7532557268294695, 1};
Point(p10 + 5) = {14.72946224389275, -0.5975227561072528, 1};
Point(p10 + 6) = {14.57372927317053, -0.4645142337235597, 1};
Point(p10 + 7) = {14.39910651669707, -0.3575052709294551, 1};
Point(p10 + 8) = {14.20989376627644, -0.2791307835313153, 1};
Point(p10 + 9) = {14.01075006778512, -0.2313206115188935, 1};
Point(p10 + 10) = {13.806579, -0.215252, 1};
Point(p10 + 11) = {13.60240793221488, -0.2313206115188937, 1};
Point(p10 + 12) = {13.40326423372356, -0.279130783531315, 1};
Point(p10 + 13) = {13.21405148330293, -0.3575052709294548, 1};
Point(p10 + 14) = {13.03942872682947, -0.4645142337235597, 1};
Point(p10 + 15) = {12.88369575610725, -0.5975227561072527, 1};
Point(p10 + 16) = {12.75068723372356, -0.7532557268294693, 1};
Point(p10 + 17) = {12.64367827092945, -0.9278784833029314, 1};
Point(p10 + 18) = {12.56530378353131, -1.11709123372356, 1};
Point(p10 + 19) = {12.51749361151889, -1.316234932214882, 1};
Point(p10 + 20) = {12.501425, -1.520406, 1};
Point(p10 + 21) = {12.51749361151889, -1.724577067785117, 1};
Point(p10 + 22) = {12.56530378353131, -1.92372076627644, 1};
Point(p10 + 23) = {12.64367827092945, -2.112933516697068, 1};
Point(p10 + 24) = {12.75068723372356, -2.28755627317053, 1};
Point(p10 + 25) = {12.88369575610725, -2.443289243892747, 1};
Point(p10 + 26) = {13.03942872682947, -2.57629776627644, 1};
Point(p10 + 27) = {13.21405148330293, -2.683306729070545, 1};
Point(p10 + 28) = {13.40326423372356, -2.761681216468685, 1};
Point(p10 + 29) = {13.60240793221488, -2.809491388481106, 1};
Point(p10 + 30) = {13.806579, -2.82556, 1};
Point(p10 + 31) = {14.01075006778512, -2.809491388481106, 1};
Point(p10 + 32) = {14.20989376627644, -2.761681216468685, 1};
Point(p10 + 33) = {14.39910651669707, -2.683306729070545, 1};
Point(p10 + 34) = {14.57372927317053, -2.57629776627644, 1};
Point(p10 + 35) = {14.72946224389275, -2.443289243892747, 1};
Point(p10 + 36) = {14.86247076627644, -2.287556273170531, 1};
Point(p10 + 37) = {14.96947972907054, -2.112933516697069, 1};
Point(p10 + 38) = {15.04785421646868, -1.92372076627644, 1};
Point(p10 + 39) = {15.09566438848111, -1.724577067785118, 1};
Spline(10) = {8, p10 + 1, p10 + 2, p10 + 3, p10 + 4, p10 + 5, p10 + 6, p10 + 7, p10 + 8, p10 + 9, p10 + 10, p10 + 11, p10 + 12, p10 + 13, p10 + 14, p10 + 15, p10 + 16, p10 + 17, p10 + 18, p10 + 19, p10 + 20, p10 + 21, p10 + 22, p10 + 23, p10 + 24, p10 + 25, p10 + 26, p10 + 27, p10 + 28, p10 + 29, p10 + 30, p10 + 31, p10 + 32, p10 + 33, p10 + 34, p10 + 35, p10 + 36, p10 + 37, p10 + 38, p10 + 39, 8};
p11 = newp;
Point(p11 + 1) = {23.72990091405805, 0.9798274879582095, 1};
Point(p11 + 2) = {23.69964405287734, 1.105856384877864, 1};
Point(p11 + 3) = {23.65004444079691, 1.225600441050873, 1};
Point(p11 + 4) = {23.58232338487786, 1.336111160406519, 1};
Point(p11 + 5) = {23.49814840227021, 1.434667402270215, 1};
Point(p11 + 6) = {23.39959216040652, 1.518842384877864, 1};
Point(p11 + 7) = {23.28908144105087, 1.586563440796914, 1};
Point(p11 + 8) = {23.16933738487786, 1.636163052877341, 1};
Point(p11 + 9) = {23.04330848795821, 1.666419914058047, 1};
Point(p11 + 10) = {22.914098, 1.676589, 1};
Point(p11 + 11) = {22.78488751204179, 1.666419914058047, 1};
Point(p11 + 12) = {22.65885861512213, 1.636163052877341, 1};
Point(p11 + 13) = {22.53911455894913, 1.586563440796914, 1};
Point(p11 + 14) = {22.42860383959348, 1.518842384877864, 1};
Point(p11 + 15) = {22.33004759772978, 1.434667402270215, 1};
Point(p11 + 16) = {22.24587261512213, 1.336111160406519, 1};
Point(p11 + 17) = {22.17815155920308, 1.225600441050873, 1};
Point(p11 + 18) = {22.12855194712266, 1.105856384877864, 1};
Point(p11 + 19) = {22.09829508594195, 0.9798274879582096, 1};
Point(p11 + 20) = {22.088126, 0.8506170000000001, 1};
Point(p11 + 21) = {22.09829508594195, 0.7214065120417905, 1};
Point(p11 + 22) = {22.12855194712266, 0.5953776151221356, 1};
Point(p11 + 23) = {22.17815155920308, 0.4756335589491275, 1};
Point(p11 + 24) = {22.24587261512213, 0.3651228395934814, 1};
Point(p11 + 25) = {22.33004759772978, 0.266566597729785, 1};
Point(p11 + 26) = {22.42860383959348, 0.182391615122136, 1};
Point(p11 + 27) = {22.53911455894913, 0.1146705592030854, 1};
Point(p11 + 28) = {22.65885861512213, 0.06507094712265937, 1};
Point(p11 + 29) = {22.78488751204179, 0.0348140859419529, 1};
Point(p11 + 30) = {22.914098, 0.02464499999999992, 1};
Point(p11 + 31) = {23.04330848795821, 0.03481408594195279, 1};
Point(p11 + 32) = {23.16933738487786, 0.06507094712265926, 1};
Point(p11 + 33) = {23.28908144105087, 0.1146705592030853, 1};
Point(p11 + 34) = {23.39959216040652, 0.1823916151221358, 1};
Point(p11 + 35) = {23.49814840227021, 0.2665665977297847, 1};
Point(p11 + 36) = {23.58232338487786, 0.3651228395934811, 1};
Point(p11 + 37) = {23.65004444079691, 0.4756335589491268, 1};
Point(p11 + 38) = {23.69964405287734, 0.5953776151221357, 1};
Point(p11 + 39) = {23.72990091405805, 0.7214065120417902, 1};
Spline(11) = {9, p11 + 1, p11 + 2, p11 + 3, p11 + 4, p11 + 5, p11 + 6, p11 + 7, p11 + 8, p11 + 9, p11 + 10, p11 + 11, p11 + 12, p11 + 13, p11 + 14, p11 + 15, p11 + 16, p11 + 17, p11 + 18, p11 + 19, p11 + 20, p11 + 21, p11 + 22, p11 + 23, p11 + 24, p11 + 25, p11 + 26, p11 + 27, p11 + 28, p11 + 29, p11 + 30, p11 + 31, p11 + 32, p11 + 33, p11 + 34, p11 + 35, p11 + 36, p11 + 37, p11 + 38, p11 + 39, 9};
Line(12) = {4, 10};
Line(13) = {10, 7};
Line(14) = {5, 10};
p15 = newp;
Point(p15 + 1) = {15.09566438848111, -1.316234932214883, 0};
Point(p15 + 2) = {15.04785421646868, -1.11709123372356, 0};
Point(p15 + 3) = {14.96947972907054, -0.9278784833029315, 0};
Point(p15 + 4) = {14.86247076627644, -0.7532557268294695, 0};
Point(p15 + 5) = {14.72946224389275, -0.5975227561072528, 0};
Point(p15 + 6) = {14.57372927317053, -0.4645142337235597, 0};
Point(p15 + 7) = {14.39910651669707, -0.3575052709294551, 0};
Point(p15 + 8) = {14.20989376627644, -0.2791307835313153, 0};
Point(p15 + 9) = {14.01075006778512, -0.2313206115188935, 0};
Point(p15 + 10) = {13.806579, -0.215252, 0};
Point(p15 + 11) = {13.60240793221488, -0.2313206115188937, 0};
Point(p15 + 12) = {13.40326423372356, -0.279130783531315, 0};
Point(p15 + 13) = {13.21405148330293, -0.3575052709294548, 0};
Point(p15 + 14) = {13.03942872682947, -0.4645142337235597, 0};
Point(p15 + 15) = {12.88369575610725, -0.5975227561072527, 0};
Point(p15 + 16) = {12.75068723372356, -0.7532557268294693, 0};
Point(p15 + 17) = {12.64367827092945, -0.9278784833029314, 0};
Point(p15 + 18) = {12.56530378353131, -1.11709123372356, 0};
Point(p15 + 19) = {12.51749361151889, -1.316234932214882, 0};
Point(p15 + 20) = {12.501425, -1.520406, 0};
Point(p15 + 21) = {12.51749361151889, -1.724577067785117, 0};
Point(p15 + 22) = {12.56530378353131, -1.92372076627644, 0};
Point(p15 + 23) = {12.64367827092945, -2.112933516697068, 0};
Point(p15 + 24) = {12.75068723372356, -2.28755627317053, 0};
Point(p15 + 25) = {12.88369575610725, -2.443289243892747, 0};
Point(p15 + 26) = {13.03942872682947, -2.57629776627644, 0};
Point(p15 + 27) = {13.21405148330293, -2.683306729070545, 0};
Point(p15 + 28) = {13.40326423372356, -2.761681216468685, 0};
Point(p15 + 29) = {13.60240793221488, -2.809491388481106, 0};
Point(p15 + 30) = {13.806579, -2.82556, 0};
Point(p15 + 31) = {14.01075006778512, -2.809491388481106, 0};
Point(p15 + 32) = {14.20989376627644, -2.761681216468685, 0};
Point(p15 + 33) = {14.39910651669707, -2.683306729070545, 0};
Point(p15 + 34) = {14.57372927317053, -2.57629776627644, 0};
Point(p15 + 35) = {14.72946224389275, -2.443289243892747, 0};
Point(p15 + 36) = {14.86247076627644, -2.287556273170531, 0};
Point(p15 + 37) = {14.96947972907054, -2.112933516697069, 0};
Point(p15 + 38) = {15.04785421646868, -1.92372076627644, 0};
Point(p15 + 39) = {15.09566438848111, -1.724577067785118, 0};
Spline(15) = {11, p15 + 1, p15 + 2, p15 + 3, p15 + 4, p15 + 5, p15 + 6, p15 + 7, p15 + 8, p15 + 9, p15 + 10, p15 + 11, p15 + 12, p15 + 13, p15 + 14, p15 + 15, p15 + 16, p15 + 17, p15 + 18, p15 + 19, p15 + 20, p15 + 21, p15 + 22, p15 + 23, p15 + 24, p15 + 25, p15 + 26, p15 + 27, p15 + 28, p15 + 29, p15 + 30, p15 + 31, p15 + 32, p15 + 33, p15 + 34, p15 + 35, p15 + 36, p15 + 37, p15 + 38, p15 + 39, 11};
p16 = newp;
Point(p16 + 1) = {23.72990091405805, 0.9798274879582095, 0};
Point(p16 + 2) = {23.69964405287734, 1.105856384877864, 0};
Point(p16 + 3) = {23.65004444079691, 1.225600441050873, 0};
Point(p16 + 4) = {23.58232338487786, 1.336111160406519, 0};
Point(p16 + 5) = {23.49814840227021, 1.434667402270215, 0};
Point(p16 + 6) = {23.39959216040652, 1.518842384877864, 0};
Point(p16 + 7) = {23.28908144105087, 1.586563440796914, 0};
Point(p16 + 8) = {23.16933738487786, 1.636163052877341, 0};
Point(p16 + 9) = {23.04330848795821, 1.666419914058047, 0};
Point(p16 + 10) = {22.914098, 1.676589, 0};
Point(p16 + 11) = {22.78488751204179, 1.666419914058047, 0};
Point(p16 + 12) = {22.65885861512213, 1.636163052877341, 0};
Point(p16 + 13) = {22.53911455894913, 1.586563440796914, 0};
Point(p16 + 14) = {22.42860383959348, 1.518842384877864, 0};
Point(p16 + 15) = {22.33004759772978, 1.434667402270215, 0};
Point(p16 + 16) = {22.24587261512213, 1.336111160406519, 0};
Point(p16 + 17) = {22.17815155920308, 1.225600441050873, 0};
Point(p16 + 18) = {22.12855194712266, 1.105856384877864, 0};
Point(p16 + 19) = {22.09829508594195, 0.9798274879582096, 0};
Point(p16 + 20) = {22.088126, 0.8506170000000001, 0};
Point(p16 + 21) = {22.09829508594195, 0.7214065120417905, 0};
Point(p16 + 22) = {22.12855194712266, 0.5953776151221356, 0};
Point(p16 + 23) = {22.17815155920308, 0.4756335589491275, 0};
Point(p16 + 24) = {22.24587261512213, 0.3651228395934814, 0};
Point(p16 + 25) = {22.33004759772978, 0.266566597729785, 0};
Point(p16 + 26) = {22.42860383959348, 0.182391615122136, 0};
Point(p16 + 27) = {22.53911455894913, 0.1146705592030854, 0};
Point(p16 + 28) = {22.65885861512213, 0.06507094712265937, 0};
Point(p16 + 29) = {22.78488751204179, 0.0348140859419529, 0};
Point(p16 + 30) = {22.914098, 0.02464499999999992, 0};
Point(p16 + 31) = {23.04330848795821, 0.03481408594195279, 0};
Point(p16 + 32) = {23.16933738487786, 0.06507094712265926, 0};
Point(p16 + 33) = {23.28908144105087, 0.1146705592030853, 0};
Point(p16 + 34) = {23.39959216040652, 0.1823916151221358, 0};
Point(p16 + 35) = {23.49814840227021, 0.2665665977297847, 0};
Point(p16 + 36) = {23.58232338487786, 0.3651228395934811, 0};
Point(p16 + 37) = {23.65004444079691, 0.4756335589491268, 0};
Point(p16 + 38) = {23.69964405287734, 0.5953776151221357, 0};
Point(p16 + 39) = {23.72990091405805, 0.7214065120417902, 0};
Spline(16) = {12, p16 + 1, p16 + 2, p16 + 3, p16 + 4, p16 + 5, p16 + 6, p16 + 7, p16 + 8, p16 + 9, p16 + 10, p16 + 11, p16 + 12, p16 + 13, p16 + 14, p16 + 15, p16 + 16, p16 + 17, p16 + 18, p16 + 19, p16 + 20, p16 + 21, p16 + 22, p16 + 23, p16 + 24, p16 + 25, p16 + 26, p16 + 27, p16 + 28, p16 + 29, p16 + 30, p16 + 31, p16 + 32, p16 + 33, p16 + 34, p16 + 35, p16 + 36, p16 + 37, p16 + 38, p16 + 39, 12};
Line(17) = {11, 8};
Line(18) = {12, 9};
Curve Loop(1) = {-1, 4, 3, -2};
Plane Surface(1) = {1};
Curve Loop(2) = {-5, 1, 7, -6};
Plane Surface(2) = {2};
Curve Loop(3) = {-2, 7, 9, -8, -10, -11};
Plane Surface(3) = {3};
Curve Loop(4) = {-12, 3, 8, -13};
Plane Surface(4) = {4};
Curve Loop(5) = {-4, 5, 14, -12, -15, -16};
Plane Surface(5) = {5};
Curve Loop(6) = {-6, 14, 13, -9};
Plane Surface(6) = {6};
Curve Loop(7) = {-10, -17, 15, 17};
Surface(7) = {7};
Curve Loop(8) = {-11, -18, 16, 18};
Surface(8) = {8};
Surface Loop(1) = {1, 2, 3, 4, 5, 6, 7, 8};
Volume(1) = {1};
Physical Surface("INFLOW") = {1};
Physical Surface("OUTFLOW") = {6};
Physical Surface("OBSTACLE") = {7, 8};
Physical Surface("WALL_Y") = {2, 4};
Physical Surface("WALL_Z") = {3, 5};
Physical Volume("FLUID") = {1};
