cl__1 = 0.989629;
cl__2 = 0.92176;
cl__3 = 3.628589;
cl__4 = 0.104836;
Point(1) = {0.073491, -3.751312, 1, cl__1};
Point(2) = {0.073491, -3.751312, 0, cl__1};
Point(3) = {0.073491, 3.912894, 1, cl__2};
Point(4) = {0.073491, 3.912894, 0, cl__2};
Point(5) = {36.082975, -3.751312, 0, cl__3};
Point(6) = {36.082975, -3.751312, 1, cl__3};
Point(7) = {36.082975, 3.912894, 1, cl__3};
Point(8) = {10.971751, 1.019927, 1, cl__4};
Point(9) = {36.082975, 3.912894, 0, cl__3};
Point(10) = {10.971751, 1.019927, 0, cl__4};
Line(1) = {2, 1};
Line(2) = {1, 3};
Line(3) = {4, 3};
Line(4) = {2, 4};
Line(5) = {2, 5};
Line(6) = {5, 6};
Line(7) = {1, 6};
Line(8) = {3, 7};
Line(9) = {6, 7};
p10 = newp;
Point(p10 + 1) = {10.95884399799296, 1.183926010031716, 1};
Point(p10 + 2) = {10.92044080519712, 1.343886820154942, 1};
Point(p10 + 3) = {10.85748703567202, 1.495870664344952, 1};
Point(p10 + 4) = {10.77153282015494, 1.636135195952328, 1};
Point(p10 + 5) = {10.6646946366976, 1.761226636697604, 1};
Point(p10 + 6) = {10.53960319595233, 1.868064820154943, 1};
Point(p10 + 7) = {10.39933866434495, 1.954019035672021, 1};
Point(p10 + 8) = {10.24735482015494, 2.016972805197122, 1};
Point(p10 + 9) = {10.08739401003172, 2.055375997992956, 1};
Point(p10 + 10) = {9.923394999999999, 2.068283, 1};
Point(p10 + 11) = {9.759395989968283, 2.055375997992956, 1};
Point(p10 + 12) = {9.599435179845058, 2.016972805197122, 1};
Point(p10 + 13) = {9.447451335655048, 1.954019035672021, 1};
Point(p10 + 14) = {9.307186804047671, 1.868064820154943, 1};
Point(p10 + 15) = {9.182095363302395, 1.761226636697604, 1};
Point(p10 + 16) = {9.075257179845057, 1.636135195952328, 1};
Point(p10 + 17) = {8.98930296432798, 1.495870664344952, 1};
Point(p10 + 18) = {8.926349194802878, 1.343886820154943, 1};
Point(p10 + 19) = {8.887946002007043, 1.183926010031716, 1};
Point(p10 + 20) = {8.875038999999999, 1.019927, 1};
Point(p10 + 21) = {8.887946002007043, 0.8559279899682839, 1};
Point(p10 + 22) = {8.926349194802878, 0.6959671798450573, 1};
Point(p10 + 23) = {8.989302964327978, 0.5439833356550483, 1};
Point(p10 + 24) = {9.075257179845057, 0.4037188040476721, 1};
Point(p10 + 25) = {9.182095363302395, 0.2786273633023958, 1};
Point(p10 + 26) = {9.307186804047671, 0.1717891798450577, 1};
Point(p10 + 27) = {9.447451335655046, 0.08583496432797943, 1};
Point(p10 + 28) = {9.599435179845056, 0.02288119480287798, 1};
Point(p10 + 29) = {9.759395989968283, -0.01552199799295617, 1};
Point(p10 + 30) = {9.923394999999999, -0.02842900000000004, 1};
Point(p10 + 31) = {10.08739401003172, -0.01552199799295639, 1};
Point(p10 + 32) = {10.24735482015494, 0.02288119480287787, 1};
Point(p10 + 33) = {10.39933866434495, 0.08583496432797932, 1};
Point(p10 + 34) = {10.53960319595233, 0.1717891798450575, 1};
Point(p10 + 35) = {10.6646946366976, 0.2786273633023956, 1};
Point(p10 + 36) = {10.77153282015494, 0.4037188040476718, 1};
Point(p10 + 37) = {10.85748703567202, 0.5439833356550474, 1};
Point(p10 + 38) = {10.92044080519712, 0.6959671798450574, 1};
Point(p10 + 39) = {10.95884399799296, 0.8559279899682835, 1};
Spline(10) = {8, p10 + 1, p10 + 2, p10 + 3, p10 + 4, p10 + 5, p10 + 6, p10 + 7, p10 + 8, p10 + 9, p10 + 10, p10 + 11, p10 + 12, p10 + 13, p10 + 14, p10 + 15, p10 + 16, p10 + 17, p10 + 18, p10 + 19, p10 + 20, p10 + 21, p10 + 22, p10 + 23, p10 + 24, p10 + 25, p10 + 26, p10 + 27, p10 + 28, p10 + 29, p10 + 30, p10 + 31, p10 + 32, p10 + 33, p10 + 34, p10 + 35, p10 + 36, p10 + 37, p10 + 38, p10 + 39, 8};
Line(11) = {4, 9};
Line(12) = {9, 7};
Line(13) = {5, 9};
p14 = newp;
Point(p14 + 1) = {10.95884399799296, 1.183926010031716, 0};
Point(p14 + 2) = {10.92044080519712, 1.343886820154942, 0};
Point(p14 + 3) = {10.85748703567202, 1.495870664344952, 0};
Point(p14 + 4) = {10.77153282015494, 1.636135195952328, 0};
Point(p14 + 5) = {10.6646946366976, 1.761226636697604, 0};
Point(p14 + 6) = {10.53960319595233, 1.868064820154943, 0};
Point(p14 + 7) = {10.39933866434495, 1.954019035672021, 0};
Point(p14 + 8) = {10.24735482015494, 2.016972805197122, 0};
Point(p14 + 9) = {10.08739401003172, 2.055375997992956, 0};
Point(p14 + 10) = {9.923394999999999, 2.068283, 0};
Point(p14 + 11) = {9.759395989968283, 2.055375997992956, 0};
Point(p14 + 12) = {9.599435179845058, 2.016972805197122, 0};
Point(p14 + 13) = {9.447451335655048, 1.954019035672021, 0};
Point(p14 + 14) = {9.307186804047671, 1.868064820154943, 0};
Point(p14 + 15) = {9.182095363302395, 1.761226636697604, 0};
Point(p14 + 16) = {9.075257179845057, 1.636135195952328, 0};
Point(p14 + 17) = {8.98930296432798, 1.495870664344952, 0};
Point(p14 + 18) = {8.926349194802878, 1.343886820154943, 0};
Point(p14 + 19) = {8.887946002007043, 1.183926010031716, 0};
Point(p14 + 20) = {8.875038999999999, 1.019927, 0};
Point(p14 + 21) = {8.887946002007043, 0.8559279899682839, 0};
Point(p14 + 22) = {8.926349194802878, 0.6959671798450573, 0};
Point(p14 + 23) = {8.989302964327978, 0.5439833356550483, 0};
Point(p14 + 24) = {9.075257179845057, 0.4037188040476721, 0};
Point(p14 + 25) = {9.182095363302395, 0.2786273633023958, 0};
Point(p14 + 26) = {9.307186804047671, 0.1717891798450577, 0};
Point(p14 + 27) = {9.447451335655046, 0.08583496432797943, 0};
Point(p14 + 28) = {9.599435179845056, 0.02288119480287798, 0};
Point(p14 + 29) = {9.759395989968283, -0.01552199799295617, 0};
Point(p14 + 30) = {9.923394999999999, -0.02842900000000004, 0};
Point(p14 + 31) = {10.08739401003172, -0.01552199799295639, 0};
Point(p14 + 32) = {10.24735482015494, 0.02288119480287787, 0};
Point(p14 + 33) = {10.39933866434495, 0.08583496432797932, 0};
Point(p14 + 34) = {10.53960319595233, 0.1717891798450575, 0};
Point(p14 + 35) = {10.6646946366976, 0.2786273633023956, 0};
Point(p14 + 36) = {10.77153282015494, 0.4037188040476718, 0};
Point(p14 + 37) = {10.85748703567202, 0.5439833356550474, 0};
Point(p14 + 38) = {10.92044080519712, 0.6959671798450574, 0};
Point(p14 + 39) = {10.95884399799296, 0.8559279899682835, 0};
Spline(14) = {10, p14 + 1, p14 + 2, p14 + 3, p14 + 4, p14 + 5, p14 + 6, p14 + 7, p14 + 8, p14 + 9, p14 + 10, p14 + 11, p14 + 12, p14 + 13, p14 + 14, p14 + 15, p14 + 16, p14 + 17, p14 + 18, p14 + 19, p14 + 20, p14 + 21, p14 + 22, p14 + 23, p14 + 24, p14 + 25, p14 + 26, p14 + 27, p14 + 28, p14 + 29, p14 + 30, p14 + 31, p14 + 32, p14 + 33, p14 + 34, p14 + 35, p14 + 36, p14 + 37, p14 + 38, p14 + 39, 10};
Line(15) = {10, 8};
Curve Loop(1) = {-1, 4, 3, -2};
Plane Surface(1) = {1};
Curve Loop(2) = {-5, 1, 7, -6};
Plane Surface(2) = {2};
Curve Loop(3) = {-2, 7, 9, -8, -10};
Plane Surface(3) = {3};
Curve Loop(4) = {-11, 3, 8, -12};
Plane Surface(4) = {4};
Curve Loop(5) = {-4, 5, 13, -11, -14};
Plane Surface(5) = {5};
Curve Loop(6) = {-6, 13, 12, -9};
Plane Surface(6) = {6};
Curve Loop(7) = {-10, -15, 14, 15};
Surface(7) = {7};
Surface Loop(1) = {1, 2, 3, 4, 5, 6, 7};
Volume(1) = {1};
Physical Surface("INFLOW") = {1};
Physical Surface("OUTFLOW") = {6};
Physical Surface("OBSTACLE") = {7};
Physical Surface("WALL_Y") = {2, 4};
Physical Surface("WALL_Z") = {3, 5};
Physical Volume("FLUID") = {1};
