cl__1 = 3.967296;
cl__2 = 1.134644;
cl__3 = 1.17874;
cl__4 = 0.127497;
Point(1) = {0.680727, -3.855799, 1, cl__1};
Point(2) = {0.680727, -3.855799, 0, cl__1};
Point(3) = {0.680727, 3.91894, 1, cl__1};
Point(4) = {0.680727, 3.91894, 0, cl__1};
Point(5) = {39.482052, -3.855799, 0, cl__2};
Point(6) = {39.482052, -3.855799, 1, cl__2};
Point(7) = {39.482052, 3.91894, 1, cl__3};
Point(8) = {28.537339, -0.6967920000000003, 1, cl__4};
Point(9) = {39.482052, 3.91894, 0, cl__3};
Point(10) = {28.537339, -0.6967920000000003, 0, cl__4};
Line(1) = {2, 1};
Line(2) = {1, 3};
Line(3) = {4, 3};
Line(4) = {2, 4};
Line(5) = {2, 5};
Line(6) = {5, 6};
Line(7) = {1, 6};
Line(8) = {3, 7};
Line(9) = {6, 7};
p10 = newp;
Point(p10 + 1) = {28.52164197898527, -0.4973424372387267, 1};
Point(p10 + 2) = {28.47493742869387, -0.3028039846477845, 1};
Point(p10 + 3) = {28.39837537015749, -0.1179668245660705, 1};
Point(p10 + 4) = {28.29384101535222, 0.05261773868583908, 1};
Point(p10 + 5) = {28.16390834702297, 0.2047493470229749, 1};
Point(p10 + 6) = {28.01177673868584, 0.3346820153522155, 1};
Point(p10 + 7) = {27.84119217543393, 0.4392163701574917, 1};
Point(p10 + 8) = {27.65635501535222, 0.5157784286938646, 1};
Point(p10 + 9) = {27.46181656276127, 0.562482978985264, 1};
Point(p10 + 10) = {27.262367, 0.57818, 1};
Point(p10 + 11) = {27.06291743723873, 0.5624829789852638, 1};
Point(p10 + 12) = {26.86837898464779, 0.5157784286938646, 1};
Point(p10 + 13) = {26.68354182456607, 0.4392163701574919, 1};
Point(p10 + 14) = {26.51295726131416, 0.3346820153522155, 1};
Point(p10 + 15) = {26.36082565297703, 0.204749347022975, 1};
Point(p10 + 16) = {26.23089298464778, 0.05261773868583919, 1};
Point(p10 + 17) = {26.12635862984251, -0.1179668245660704, 1};
Point(p10 + 18) = {26.04979657130614, -0.3028039846477844, 1};
Point(p10 + 19) = {26.00309202101474, -0.4973424372387266, 1};
Point(p10 + 20) = {25.987395, -0.6967919999999999, 1};
Point(p10 + 21) = {26.00309202101474, -0.896241562761273, 1};
Point(p10 + 22) = {26.04979657130614, -1.090780015352216, 1};
Point(p10 + 23) = {26.12635862984251, -1.275617175433929, 1};
Point(p10 + 24) = {26.23089298464778, -1.446201738685839, 1};
Point(p10 + 25) = {26.36082565297703, -1.598333347022975, 1};
Point(p10 + 26) = {26.51295726131416, -1.728266015352215, 1};
Point(p10 + 27) = {26.68354182456607, -1.832800370157492, 1};
Point(p10 + 28) = {26.86837898464779, -1.909362428693865, 1};
Point(p10 + 29) = {27.06291743723873, -1.956066978985264, 1};
Point(p10 + 30) = {27.262367, -1.971764, 1};
Point(p10 + 31) = {27.46181656276127, -1.956066978985264, 1};
Point(p10 + 32) = {27.65635501535222, -1.909362428693865, 1};
Point(p10 + 33) = {27.84119217543393, -1.832800370157492, 1};
Point(p10 + 34) = {28.01177673868584, -1.728266015352216, 1};
Point(p10 + 35) = {28.16390834702297, -1.598333347022975, 1};
Point(p10 + 36) = {28.29384101535222, -1.446201738685839, 1};
Point(p10 + 37) = {28.39837537015749, -1.27561717543393, 1};
Point(p10 + 38) = {28.47493742869387, -1.090780015352216, 1};
Point(p10 + 39) = {28.52164197898527, -0.8962415627612734, 1};
Spline(10) = {8, p10 + 1, p10 + 2, p10 + 3, p10 + 4, p10 + 5, p10 + 6, p10 + 7, p10 + 8, p10 + 9, p10 + 10, p10 + 11, p10 + 12, p10 + 13, p10 + 14, p10 + 15, p10 + 16, p10 + 17, p10 + 18, p10 + 19, p10 + 20, p10 + 21, p10 + 22, p10 + 23, p10 + 24, p10 + 25, p10 + 26, p10 + 27, p10 + 28, p10 + 29, p10 + 30, p10 + 31, p10 + 32, p10 + 33, p10 + 34, p10 + 35, p10 + 36, p10 + 37, p10 + 38, p10 + 39, 8};
Line(11) = {4, 9};
Line(12) = {9, 7};
Line(13) = {5, 9};
p14 = newp;
Point(p14 + 1) = {28.52164197898527, -0.4973424372387267, 0};
Point(p14 + 2) = {28.47493742869387, -0.3028039846477845, 0};
Point(p14 + 3) = {28.39837537015749, -0.1179668245660705, 0};
Point(p14 + 4) = {28.29384101535222, 0.05261773868583908, 0};
Point(p14 + 5) = {28.16390834702297, 0.2047493470229749, 0};
Point(p14 + 6) = {28.01177673868584, 0.3346820153522155, 0};
Point(p14 + 7) = {27.84119217543393, 0.4392163701574917, 0};
Point(p14 + 8) = {27.65635501535222, 0.5157784286938646, 0};
Point(p14 + 9) = {27.46181656276127, 0.562482978985264, 0};
Point(p14 + 10) = {27.262367, 0.57818, 0};
Point(p14 + 11) = {27.06291743723873, 0.5624829789852638, 0};
Point(p14 + 12) = {26.86837898464779, 0.5157784286938646, 0};
Point(p14 + 13) = {26.68354182456607, 0.4392163701574919, 0};
Point(p14 + 14) = {26.51295726131416, 0.3346820153522155, 0};
Point(p14 + 15) = {26.36082565297703, 0.204749347022975, 0};
Point(p14 + 16) = {26.23089298464778, 0.05261773868583919, 0};
Point(p14 + 17) = {26.12635862984251, -0.1179668245660704, 0};
Point(p14 + 18) = {26.04979657130614, -0.3028039846477844, 0};
Point(p14 + 19) = {26.00309202101474, -0.4973424372387266, 0};
Point(p14 + 20) = {25.987395, -0.6967919999999999, 0};
Point(p14 + 21) = {26.00309202101474, -0.896241562761273, 0};
Point(p14 + 22) = {26.04979657130614, -1.090780015352216, 0};
Point(p14 + 23) = {26.12635862984251, -1.275617175433929, 0};
Point(p14 + 24) = {26.23089298464778, -1.446201738685839, 0};
Point(p14 + 25) = {26.36082565297703, -1.598333347022975, 0};
Point(p14 + 26) = {26.51295726131416, -1.728266015352215, 0};
Point(p14 + 27) = {26.68354182456607, -1.832800370157492, 0};
Point(p14 + 28) = {26.86837898464779, -1.909362428693865, 0};
Point(p14 + 29) = {27.06291743723873, -1.956066978985264, 0};
Point(p14 + 30) = {27.262367, -1.971764, 0};
Point(p14 + 31) = {27.46181656276127, -1.956066978985264, 0};
Point(p14 + 32) = {27.65635501535222, -1.909362428693865, 0};
Point(p14 + 33) = {27.84119217543393, -1.832800370157492, 0};
Point(p14 + 34) = {28.01177673868584, -1.728266015352216, 0};
Point(p14 + 35) = {28.16390834702297, -1.598333347022975, 0};
Point(p14 + 36) = {28.29384101535222, -1.446201738685839, 0};
Point(p14 + 37) = {28.39837537015749, -1.27561717543393, 0};
Point(p14 + 38) = {28.47493742869387, -1.090780015352216, 0};
Point(p14 + 39) = {28.52164197898527, -0.8962415627612734, 0};
Spline(14) = {10, p14 + 1, p14 + 2, p14 + 3, p14 + 4, p14 + 5, p14 + 6, p14 + 7, p14 + 8, p14 + 9, p14 + 10, p14 + 11, p14 + 12, p14 + 13, p14 + 14, p14 + 15, p14 + 16, p14 + 17, p14 + 18, p14 + 19, p14 + 20, p14 + 21, p14 + 22, p14 + 23, p14 + 24, p14 + 25, p14 + 26, p14 + 27, p14 + 28, p14 + 29, p14 + 30, p14 + 31, p14 + 32, p14 + 33, p14 + 34, p14 + 35, p14 + 36, p14 + 37, p14 + 38, p14 + 39, 10};
Line(15) = {10, 8};
Curve Loop(1) = {-1, 4, 3, -2};
Plane Surface(1) = {1};
Curve Loop(2) = {-5, 1, 7, -6};
Plane Surface(2) = {2};
Curve Loop(3) = {-2, 7, 9, -8, -10};
Plane Surface(3) = {3};
Curve Loop(4) = {-11, 3, 8, -12};
Plane Surface(4) = {4};
Curve Loop(5) = {-4, 5, 13, -11, -14};
Plane Surface(5) = {5};
Curve Loop(6) = {-6, 13, 12, -9};
Plane Surface(6) = {6};
Curve Loop(7) = {-10, -15, 14, 15};
Surface(7) = {7};
Surface Loop(1) = {1, 2, 3, 4, 5, 6, 7};
Volume(1) = {1};
Physical Surface("INFLOW") = {1};
Physical Surface("OUTFLOW") = {6};
Physical Surface("OBSTACLE") = {7};
Physical Surface("WALL_Y") = {2, 4};
Physical Surface("WALL_Z") = {3, 5};
Physical Volume("FLUID") = {1};
