cl__1 = 1;
cl__2 = 0.13294;
cl__3 = 0.107735;
Point(1) = {0.807128, -4.236663, 1, cl__1};
Point(2) = {0.807128, -4.236663, 0, cl__1};
Point(3) = {0.807128, 5.696126, 1, cl__1};
Point(4) = {0.807128, 5.696126, 0, cl__1};
Point(5) = {35.362281, -4.236663, 0, cl__1};
Point(6) = {35.362281, -4.236663, 1, cl__1};
Point(7) = {35.362281, 5.696126, 1, cl__1};
Point(8) = {14.715244, 0.5169089999999997, 1, cl__2};
Point(9) = {22.949621, 3.592757999999999, 1, cl__3};
Point(10) = {35.362281, 5.696126, 0, cl__1};
Point(11) = {14.715244, 0.5169089999999997, 0, cl__2};
Point(12) = {22.949621, 3.592757999999999, 0, cl__3};
Line(1) = {2, 1};
Line(2) = {1, 3};
Line(3) = {4, 3};
Line(4) = {2, 4};
Line(5) = {2, 5};
Line(6) = {5, 6};
Line(7) = {1, 6};
Line(8) = {3, 7};
Line(9) = {6, 7};
p10 = newp;
Point(p10 + 1) = {14.69887681842888, 0.724873759996808, 1};
Point(p10 + 2) = {14.65017828804536, 0.9277177374070269, 1};
Point(p10 + 3) = {14.57034752828864, 1.120446240306252, 1};
Point(p10 + 4) = {14.46135023740703, 1.298313653323875, 1};
Point(p10 + 5) = {14.3258702904433, 1.456940290443302, 1};
Point(p10 + 6) = {14.16724365332388, 1.592420237407027, 1};
Point(p10 + 7) = {13.98937624030625, 1.701417528288637, 1};
Point(p10 + 8) = {13.79664773740703, 1.781248288045358, 1};
Point(p10 + 9) = {13.59380375999681, 1.829946818428879, 1};
Point(p10 + 10) = {13.385839, 1.846314, 1};
Point(p10 + 11) = {13.17787424000319, 1.829946818428879, 1};
Point(p10 + 12) = {12.97503026259297, 1.781248288045359, 1};
Point(p10 + 13) = {12.78230175969375, 1.701417528288637, 1};
Point(p10 + 14) = {12.60443434667613, 1.592420237407027, 1};
Point(p10 + 15) = {12.4458077095567, 1.456940290443302, 1};
Point(p10 + 16) = {12.31032776259297, 1.298313653323875, 1};
Point(p10 + 17) = {12.20133047171136, 1.120446240306252, 1};
Point(p10 + 18) = {12.12149971195464, 0.927717737407027, 1};
Point(p10 + 19) = {12.07280118157112, 0.7248737599968083, 1};
Point(p10 + 20) = {12.056434, 0.5169090000000001, 1};
Point(p10 + 21) = {12.07280118157112, 0.308944240003192, 1};
Point(p10 + 22) = {12.12149971195464, 0.1061002625929726, 1};
Point(p10 + 23) = {12.20133047171136, -0.08662824030625149, 1};
Point(p10 + 24) = {12.31032776259297, -0.2644956533238751, 1};
Point(p10 + 25) = {12.4458077095567, -0.4231222904433022, 1};
Point(p10 + 26) = {12.60443434667613, -0.5586022374070269, 1};
Point(p10 + 27) = {12.78230175969375, -0.667599528288637, 1};
Point(p10 + 28) = {12.97503026259297, -0.7474302880453586, 1};
Point(p10 + 29) = {13.17787424000319, -0.7961288184288789, 1};
Point(p10 + 30) = {13.385839, -0.812496, 1};
Point(p10 + 31) = {13.59380375999681, -0.7961288184288792, 1};
Point(p10 + 32) = {13.79664773740703, -0.7474302880453588, 1};
Point(p10 + 33) = {13.98937624030625, -0.6675995282886372, 1};
Point(p10 + 34) = {14.16724365332388, -0.5586022374070271, 1};
Point(p10 + 35) = {14.3258702904433, -0.4231222904433024, 1};
Point(p10 + 36) = {14.46135023740703, -0.2644956533238756, 1};
Point(p10 + 37) = {14.57034752828864, -0.08662824030625249, 1};
Point(p10 + 38) = {14.65017828804536, 0.1061002625929727, 1};
Point(p10 + 39) = {14.69887681842888, 0.3089442400031915, 1};
Spline(10) = {8, p10 + 1, p10 + 2, p10 + 3, p10 + 4, p10 + 5, p10 + 6, p10 + 7, p10 + 8, p10 + 9, p10 + 10, p10 + 11, p10 + 12, p10 + 13, p10 + 14, p10 + 15, p10 + 16, p10 + 17, p10 + 18, p10 + 19, p10 + 20, p10 + 21, p10 + 22, p10 + 23, p10 + 24, p10 + 25, p10 + 26, p10 + 27, p10 + 28, p10 + 29, p10 + 30, p10 + 31, p10 + 32, p10 + 33, p10 + 34, p10 + 35, p10 + 36, p10 + 37, p10 + 38, p10 + 39, 8};
p11 = newp;
Point(p11 + 1) = {22.93635700911685, 3.761292983780023, 1};
Point(p11 + 2) = {22.89689163994361, 3.925678076923838, 1};
Point(p11 + 3) = {22.83219666084739, 4.0818655728754, 1};
Point(p11 + 4) = {22.74386507692384, 4.226009617127801, 1};
Point(p11 + 5) = {22.63407190492489, 4.354560904924889, 1};
Point(p11 + 6) = {22.5055206171278, 4.464354076923838, 1};
Point(p11 + 7) = {22.3613765728754, 4.552685660847386, 1};
Point(p11 + 8) = {22.20518907692384, 4.617380639943616, 1};
Point(p11 + 9) = {22.04080398378002, 4.656846009116853, 1};
Point(p11 + 10) = {21.872269, 4.67011, 1};
Point(p11 + 11) = {21.70373401621998, 4.656846009116853, 1};
Point(p11 + 12) = {21.53934892307616, 4.617380639943616, 1};
Point(p11 + 13) = {21.3831614271246, 4.552685660847386, 1};
Point(p11 + 14) = {21.2390173828722, 4.464354076923838, 1};
Point(p11 + 15) = {21.11046609507511, 4.354560904924889, 1};
Point(p11 + 16) = {21.00067292307616, 4.226009617127801, 1};
Point(p11 + 17) = {20.91234133915261, 4.0818655728754, 1};
Point(p11 + 18) = {20.84764636005638, 3.925678076923838, 1};
Point(p11 + 19) = {20.80818099088315, 3.761292983780023, 1};
Point(p11 + 20) = {20.794917, 3.592758, 1};
Point(p11 + 21) = {20.80818099088314, 3.424223016219977, 1};
Point(p11 + 22) = {20.84764636005638, 3.259837923076161, 1};
Point(p11 + 23) = {20.91234133915261, 3.1036504271246, 1};
Point(p11 + 24) = {21.00067292307616, 2.959506382872199, 1};
Point(p11 + 25) = {21.11046609507511, 2.830955095075111, 1};
Point(p11 + 26) = {21.2390173828722, 2.721161923076162, 1};
Point(p11 + 27) = {21.3831614271246, 2.632830339152613, 1};
Point(p11 + 28) = {21.53934892307616, 2.568135360056384, 1};
Point(p11 + 29) = {21.70373401621998, 2.528669990883147, 1};
Point(p11 + 30) = {21.872269, 2.515406, 1};
Point(p11 + 31) = {22.04080398378002, 2.528669990883147, 1};
Point(p11 + 32) = {22.20518907692384, 2.568135360056384, 1};
Point(p11 + 33) = {22.3613765728754, 2.632830339152613, 1};
Point(p11 + 34) = {22.5055206171278, 2.721161923076161, 1};
Point(p11 + 35) = {22.63407190492489, 2.83095509507511, 1};
Point(p11 + 36) = {22.74386507692384, 2.959506382872199, 1};
Point(p11 + 37) = {22.83219666084739, 3.103650427124599, 1};
Point(p11 + 38) = {22.89689163994361, 3.259837923076161, 1};
Point(p11 + 39) = {22.93635700911685, 3.424223016219977, 1};
Spline(11) = {9, p11 + 1, p11 + 2, p11 + 3, p11 + 4, p11 + 5, p11 + 6, p11 + 7, p11 + 8, p11 + 9, p11 + 10, p11 + 11, p11 + 12, p11 + 13, p11 + 14, p11 + 15, p11 + 16, p11 + 17, p11 + 18, p11 + 19, p11 + 20, p11 + 21, p11 + 22, p11 + 23, p11 + 24, p11 + 25, p11 + 26, p11 + 27, p11 + 28, p11 + 29, p11 + 30, p11 + 31, p11 + 32, p11 + 33, p11 + 34, p11 + 35, p11 + 36, p11 + 37, p11 + 38, p11 + 39, 9};
Line(12) = {4, 10};
Line(13) = {10, 7};
Line(14) = {5, 10};
p15 = newp;
Point(p15 + 1) = {14.69887681842888, 0.724873759996808, 0};
Point(p15 + 2) = {14.65017828804536, 0.9277177374070269, 0};
Point(p15 + 3) = {14.57034752828864, 1.120446240306252, 0};
Point(p15 + 4) = {14.46135023740703, 1.298313653323875, 0};
Point(p15 + 5) = {14.3258702904433, 1.456940290443302, 0};
Point(p15 + 6) = {14.16724365332388, 1.592420237407027, 0};
Point(p15 + 7) = {13.98937624030625, 1.701417528288637, 0};
Point(p15 + 8) = {13.79664773740703, 1.781248288045358, 0};
Point(p15 + 9) = {13.59380375999681, 1.829946818428879, 0};
Point(p15 + 10) = {13.385839, 1.846314, 0};
Point(p15 + 11) = {13.17787424000319, 1.829946818428879, 0};
Point(p15 + 12) = {12.97503026259297, 1.781248288045359, 0};
Point(p15 + 13) = {12.78230175969375, 1.701417528288637, 0};
Point(p15 + 14) = {12.60443434667613, 1.592420237407027, 0};
Point(p15 + 15) = {12.4458077095567, 1.456940290443302, 0};
Point(p15 + 16) = {12.31032776259297, 1.298313653323875, 0};
Point(p15 + 17) = {12.20133047171136, 1.120446240306252, 0};
Point(p15 + 18) = {12.12149971195464, 0.927717737407027, 0};
Point(p15 + 19) = {12.07280118157112, 0.7248737599968083, 0};
Point(p15 + 20) = {12.056434, 0.5169090000000001, 0};
Point(p15 + 21) = {12.07280118157112, 0.308944240003192, 0};
Point(p15 + 22) = {12.12149971195464, 0.1061002625929726, 0};
Point(p15 + 23) = {12.20133047171136, -0.08662824030625149, 0};
Point(p15 + 24) = {12.31032776259297, -0.2644956533238751, 0};
Point(p15 + 25) = {12.4458077095567, -0.4231222904433022, 0};
Point(p15 + 26) = {12.60443434667613, -0.5586022374070269, 0};
Point(p15 + 27) = {12.78230175969375, -0.667599528288637, 0};
Point(p15 + 28) = {12.97503026259297, -0.7474302880453586, 0};
Point(p15 + 29) = {13.17787424000319, -0.7961288184288789, 0};
Point(p15 + 30) = {13.385839, -0.812496, 0};
Point(p15 + 31) = {13.59380375999681, -0.7961288184288792, 0};
Point(p15 + 32) = {13.79664773740703, -0.7474302880453588, 0};
Point(p15 + 33) = {13.98937624030625, -0.6675995282886372, 0};
Point(p15 + 34) = {14.16724365332388, -0.5586022374070271, 0};
Point(p15 + 35) = {14.3258702904433, -0.4231222904433024, 0};
Point(p15 + 36) = {14.46135023740703, -0.2644956533238756, 0};
Point(p15 + 37) = {14.57034752828864, -0.08662824030625249, 0};
Point(p15 + 38) = {14.65017828804536, 0.1061002625929727, 0};
Point(p15 + 39) = {14.69887681842888, 0.3089442400031915, 0};
Spline(15) = {11, p15 + 1, p15 + 2, p15 + 3, p15 + 4, p15 + 5, p15 + 6, p15 + 7, p15 + 8, p15 + 9, p15 + 10, p15 + 11, p15 + 12, p15 + 13, p15 + 14, p15 + 15, p15 + 16, p15 + 17, p15 + 18, p15 + 19, p15 + 20, p15 + 21, p15 + 22, p15 + 23, p15 + 24, p15 + 25, p15 + 26, p15 + 27, p15 + 28, p15 + 29, p15 + 30, p15 + 31, p15 + 32, p15 + 33, p15 + 34, p15 + 35, p15 + 36, p15 + 37, p15 + 38, p15 + 39, 11};
p16 = newp;
Point(p16 + 1) = {22.93635700911685, 3.761292983780023, 0};
Point(p16 + 2) = {22.89689163994361, 3.925678076923838, 0};
Point(p16 + 3) = {22.83219666084739, 4.0818655728754, 0};
Point(p16 + 4) = {22.74386507692384, 4.226009617127801, 0};
Point(p16 + 5) = {22.63407190492489, 4.354560904924889, 0};
Point(p16 + 6) = {22.5055206171278, 4.464354076923838, 0};
Point(p16 + 7) = {22.3613765728754, 4.552685660847386, 0};
Point(p16 + 8) = {22.20518907692384, 4.617380639943616, 0};
Point(p16 + 9) = {22.04080398378002, 4.656846009116853, 0};
Point(p16 + 10) = {21.872269, 4.67011, 0};
Point(p16 + 11) = {21.70373401621998, 4.656846009116853, 0};
Point(p16 + 12) = {21.53934892307616, 4.617380639943616, 0};
Point(p16 + 13) = {21.3831614271246, 4.552685660847386, 0};
Point(p16 + 14) = {21.2390173828722, 4.464354076923838, 0};
Point(p16 + 15) = {21.11046609507511, 4.354560904924889, 0};
Point(p16 + 16) = {21.00067292307616, 4.226009617127801, 0};
Point(p16 + 17) = {20.91234133915261, 4.0818655728754, 0};
Point(p16 + 18) = {20.84764636005638, 3.925678076923838, 0};
Point(p16 + 19) = {20.80818099088315, 3.761292983780023, 0};
Point(p16 + 20) = {20.794917, 3.592758, 0};
Point(p16 + 21) = {20.80818099088314, 3.424223016219977, 0};
Point(p16 + 22) = {20.84764636005638, 3.259837923076161, 0};
Point(p16 + 23) = {20.91234133915261, 3.1036504271246, 0};
Point(p16 + 24) = {21.00067292307616, 2.959506382872199, 0};
Point(p16 + 25) = {21.11046609507511, 2.830955095075111, 0};
Point(p16 + 26) = {21.2390173828722, 2.721161923076162, 0};
Point(p16 + 27) = {21.3831614271246, 2.632830339152613, 0};
Point(p16 + 28) = {21.53934892307616, 2.568135360056384, 0};
Point(p16 + 29) = {21.70373401621998, 2.528669990883147, 0};
Point(p16 + 30) = {21.872269, 2.515406, 0};
Point(p16 + 31) = {22.04080398378002, 2.528669990883147, 0};
Point(p16 + 32) = {22.20518907692384, 2.568135360056384, 0};
Point(p16 + 33) = {22.3613765728754, 2.632830339152613, 0};
Point(p16 + 34) = {22.5055206171278, 2.721161923076161, 0};
Point(p16 + 35) = {22.63407190492489, 2.83095509507511, 0};
Point(p16 + 36) = {22.74386507692384, 2.959506382872199, 0};
Point(p16 + 37) = {22.83219666084739, 3.103650427124599, 0};
Point(p16 + 38) = {22.89689163994361, 3.259837923076161, 0};
Point(p16 + 39) = {22.93635700911685, 3.424223016219977, 0};
Spline(16) = {12, p16 + 1, p16 + 2, p16 + 3, p16 + 4, p16 + 5, p16 + 6, p16 + 7, p16 + 8, p16 + 9, p16 + 10, p16 + 11, p16 + 12, p16 + 13, p16 + 14, p16 + 15, p16 + 16, p16 + 17, p16 + 18, p16 + 19, p16 + 20, p16 + 21, p16 + 22, p16 + 23, p16 + 24, p16 + 25, p16 + 26, p16 + 27, p16 + 28, p16 + 29, p16 + 30, p16 + 31, p16 + 32, p16 + 33, p16 + 34, p16 + 35, p16 + 36, p16 + 37, p16 + 38, p16 + 39, 12};
Line(17) = {11, 8};
Line(18) = {12, 9};
Curve Loop(1) = {-1, 4, 3, -2};
Plane Surface(1) = {1};
Curve Loop(2) = {-5, 1, 7, -6};
Plane Surface(2) = {2};
Curve Loop(3) = {-2, 7, 9, -8, -10, -11};
Plane Surface(3) = {3};
Curve Loop(4) = {-12, 3, 8, -13};
Plane Surface(4) = {4};
Curve Loop(5) = {-4, 5, 14, -12, -15, -16};
Plane Surface(5) = {5};
Curve Loop(6) = {-6, 14, 13, -9};
Plane Surface(6) = {6};
Curve Loop(7) = {-10, -17, 15, 17};
Surface(7) = {7};
Curve Loop(8) = {-11, -18, 16, 18};
Surface(8) = {8};
Surface Loop(1) = {1, 2, 3, 4, 5, 6, 7, 8};
Volume(1) = {1};
Physical Surface("INFLOW") = {1};
Physical Surface("OUTFLOW") = {6};
Physical Surface("OBSTACLE") = {7, 8};
Physical Surface("WALL_Y") = {2, 4};
Physical Surface("WALL_Z") = {3, 5};
Physical Volume("FLUID") = {1};
