cl__1 = 3.045983;
cl__2 = 0.329046;
cl__3 = 0.062879;
cl__4 = 0.08315500000000001;
Point(1) = {0.258821, -3.017843, 1, cl__1};
Point(2) = {0.258821, -3.017843, 0, cl__1};
Point(3) = {0.258821, 4.643337, 1, cl__2};
Point(4) = {0.258821, 4.643337, 0, cl__2};
Point(5) = {30.218002, -3.017843, 0, cl__1};
Point(6) = {30.218002, -3.017843, 1, cl__1};
Point(7) = {30.218002, 4.643337, 1, cl__2};
Point(8) = {27.90042, -0.4333830000000002, 1, cl__3};
Point(9) = {28.181198, 2.523257, 1, cl__4};
Point(10) = {30.218002, 4.643337, 0, cl__2};
Point(11) = {27.90042, -0.4333830000000002, 0, cl__3};
Point(12) = {28.181198, 2.523257, 0, cl__4};
Line(1) = {2, 1};
Line(2) = {1, 3};
Line(3) = {4, 3};
Line(4) = {2, 4};
Line(5) = {2, 5};
Line(6) = {5, 6};
Line(7) = {1, 6};
Line(8) = {3, 7};
Line(9) = {6, 7};
p10 = newp;
Point(p10 + 1) = {27.8926785270595, -0.3350182598584232, 1};
Point(p10 + 2) = {27.86964472899426, -0.2390755860729881, 1};
Point(p10 + 3) = {27.83188577435745, -0.147917405687771, 1};
Point(p10 + 4) = {27.78033141392701, -0.06378833564051123, 1};
Point(p10 + 5) = {27.71625108715585, 0.01124008715585156, 1};
Point(p10 + 6) = {27.64122266435949, 0.075320413927012, 1};
Point(p10 + 7) = {27.55709359431223, 0.1268747743574521, 1};
Point(p10 + 8) = {27.46593541392701, 0.1646337289942622, 1};
Point(p10 + 9) = {27.36999274014158, 0.1876675270594979, 1};
Point(p10 + 10) = {27.271628, 0.195409, 1};
Point(p10 + 11) = {27.17326325985842, 0.1876675270594978, 1};
Point(p10 + 12) = {27.07732058607299, 0.1646337289942623, 1};
Point(p10 + 13) = {26.98616240568777, 0.1268747743574523, 1};
Point(p10 + 14) = {26.90203333564051, 0.075320413927012, 1};
Point(p10 + 15) = {26.82700491284415, 0.01124008715585162, 1};
Point(p10 + 16) = {26.76292458607299, -0.06378833564051117, 1};
Point(p10 + 17) = {26.71137022564255, -0.1479174056877708, 1};
Point(p10 + 18) = {26.67361127100574, -0.239075586072988, 1};
Point(p10 + 19) = {26.6505774729405, -0.3350182598584231, 1};
Point(p10 + 20) = {26.642836, -0.433383, 1};
Point(p10 + 21) = {26.6505774729405, -0.5317477401415768, 1};
Point(p10 + 22) = {26.67361127100574, -0.6276904139270122, 1};
Point(p10 + 23) = {26.71137022564255, -0.7188485943122288, 1};
Point(p10 + 24) = {26.76292458607299, -0.8029776643594888, 1};
Point(p10 + 25) = {26.82700491284415, -0.8780060871558516, 1};
Point(p10 + 26) = {26.90203333564051, -0.942086413927012, 1};
Point(p10 + 27) = {26.98616240568777, -0.9936407743574522, 1};
Point(p10 + 28) = {27.07732058607299, -1.031399728994262, 1};
Point(p10 + 29) = {27.17326325985842, -1.054433527059498, 1};
Point(p10 + 30) = {27.271628, -1.062175, 1};
Point(p10 + 31) = {27.36999274014158, -1.054433527059498, 1};
Point(p10 + 32) = {27.46593541392701, -1.031399728994262, 1};
Point(p10 + 33) = {27.55709359431223, -0.9936407743574522, 1};
Point(p10 + 34) = {27.64122266435949, -0.942086413927012, 1};
Point(p10 + 35) = {27.71625108715585, -0.8780060871558517, 1};
Point(p10 + 36) = {27.78033141392701, -0.8029776643594889, 1};
Point(p10 + 37) = {27.83188577435745, -0.7188485943122292, 1};
Point(p10 + 38) = {27.86964472899426, -0.6276904139270121, 1};
Point(p10 + 39) = {27.8926785270595, -0.531747740141577, 1};
Spline(10) = {8, p10 + 1, p10 + 2, p10 + 3, p10 + 4, p10 + 5, p10 + 6, p10 + 7, p10 + 8, p10 + 9, p10 + 10, p10 + 11, p10 + 12, p10 + 13, p10 + 14, p10 + 15, p10 + 16, p10 + 17, p10 + 18, p10 + 19, p10 + 20, p10 + 21, p10 + 22, p10 + 23, p10 + 24, p10 + 25, p10 + 26, p10 + 27, p10 + 28, p10 + 29, p10 + 30, p10 + 31, p10 + 32, p10 + 33, p10 + 34, p10 + 35, p10 + 36, p10 + 37, p10 + 38, p10 + 39, 8};
p11 = newp;
Point(p11 + 1) = {28.17096023962188, 2.653340079404204, 1};
Point(p11 + 2) = {28.14049904612523, 2.780220081672487, 1};
Point(p11 + 3) = {28.09056447518883, 2.90077280005842, 1};
Point(p11 + 4) = {28.02238608167249, 3.012029826543806, 1};
Point(p11 + 5) = {27.93764264389567, 3.111251643895674, 1};
Point(p11 + 6) = {27.8384208265438, 3.195995081672488, 1};
Point(p11 + 7) = {27.72716380005842, 3.264173475188837, 1};
Point(p11 + 8) = {27.60661108167249, 3.314108046125235, 1};
Point(p11 + 9) = {27.4797310794042, 3.344569239621887, 1};
Point(p11 + 10) = {27.349648, 3.354807, 1};
Point(p11 + 11) = {27.21956492059579, 3.344569239621887, 1};
Point(p11 + 12) = {27.09268491832751, 3.314108046125235, 1};
Point(p11 + 13) = {26.97213219994158, 3.264173475188837, 1};
Point(p11 + 14) = {26.86087517345619, 3.195995081672488, 1};
Point(p11 + 15) = {26.76165335610433, 3.111251643895674, 1};
Point(p11 + 16) = {26.67690991832751, 3.012029826543806, 1};
Point(p11 + 17) = {26.60873152481116, 2.90077280005842, 1};
Point(p11 + 18) = {26.55879695387477, 2.780220081672488, 1};
Point(p11 + 19) = {26.52833576037811, 2.653340079404204, 1};
Point(p11 + 20) = {26.518098, 2.523257, 1};
Point(p11 + 21) = {26.52833576037811, 2.393173920595796, 1};
Point(p11 + 22) = {26.55879695387477, 2.266293918327512, 1};
Point(p11 + 23) = {26.60873152481116, 2.14574119994158, 1};
Point(p11 + 24) = {26.67690991832751, 2.034484173456194, 1};
Point(p11 + 25) = {26.76165335610433, 1.935262356104327, 1};
Point(p11 + 26) = {26.86087517345619, 1.850518918327513, 1};
Point(p11 + 27) = {26.97213219994158, 1.782340524811163, 1};
Point(p11 + 28) = {27.09268491832751, 1.732405953874765, 1};
Point(p11 + 29) = {27.21956492059579, 1.701944760378113, 1};
Point(p11 + 30) = {27.349648, 1.691707, 1};
Point(p11 + 31) = {27.4797310794042, 1.701944760378113, 1};
Point(p11 + 32) = {27.60661108167249, 1.732405953874765, 1};
Point(p11 + 33) = {27.72716380005842, 1.782340524811163, 1};
Point(p11 + 34) = {27.8384208265438, 1.850518918327512, 1};
Point(p11 + 35) = {27.93764264389567, 1.935262356104326, 1};
Point(p11 + 36) = {28.02238608167249, 2.034484173456194, 1};
Point(p11 + 37) = {28.09056447518883, 2.14574119994158, 1};
Point(p11 + 38) = {28.14049904612523, 2.266293918327512, 1};
Point(p11 + 39) = {28.17096023962188, 2.393173920595796, 1};
Spline(11) = {9, p11 + 1, p11 + 2, p11 + 3, p11 + 4, p11 + 5, p11 + 6, p11 + 7, p11 + 8, p11 + 9, p11 + 10, p11 + 11, p11 + 12, p11 + 13, p11 + 14, p11 + 15, p11 + 16, p11 + 17, p11 + 18, p11 + 19, p11 + 20, p11 + 21, p11 + 22, p11 + 23, p11 + 24, p11 + 25, p11 + 26, p11 + 27, p11 + 28, p11 + 29, p11 + 30, p11 + 31, p11 + 32, p11 + 33, p11 + 34, p11 + 35, p11 + 36, p11 + 37, p11 + 38, p11 + 39, 9};
Line(12) = {4, 10};
Line(13) = {10, 7};
Line(14) = {5, 10};
p15 = newp;
Point(p15 + 1) = {27.8926785270595, -0.3350182598584232, 0};
Point(p15 + 2) = {27.86964472899426, -0.2390755860729881, 0};
Point(p15 + 3) = {27.83188577435745, -0.147917405687771, 0};
Point(p15 + 4) = {27.78033141392701, -0.06378833564051123, 0};
Point(p15 + 5) = {27.71625108715585, 0.01124008715585156, 0};
Point(p15 + 6) = {27.64122266435949, 0.075320413927012, 0};
Point(p15 + 7) = {27.55709359431223, 0.1268747743574521, 0};
Point(p15 + 8) = {27.46593541392701, 0.1646337289942622, 0};
Point(p15 + 9) = {27.36999274014158, 0.1876675270594979, 0};
Point(p15 + 10) = {27.271628, 0.195409, 0};
Point(p15 + 11) = {27.17326325985842, 0.1876675270594978, 0};
Point(p15 + 12) = {27.07732058607299, 0.1646337289942623, 0};
Point(p15 + 13) = {26.98616240568777, 0.1268747743574523, 0};
Point(p15 + 14) = {26.90203333564051, 0.075320413927012, 0};
Point(p15 + 15) = {26.82700491284415, 0.01124008715585162, 0};
Point(p15 + 16) = {26.76292458607299, -0.06378833564051117, 0};
Point(p15 + 17) = {26.71137022564255, -0.1479174056877708, 0};
Point(p15 + 18) = {26.67361127100574, -0.239075586072988, 0};
Point(p15 + 19) = {26.6505774729405, -0.3350182598584231, 0};
Point(p15 + 20) = {26.642836, -0.433383, 0};
Point(p15 + 21) = {26.6505774729405, -0.5317477401415768, 0};
Point(p15 + 22) = {26.67361127100574, -0.6276904139270122, 0};
Point(p15 + 23) = {26.71137022564255, -0.7188485943122288, 0};
Point(p15 + 24) = {26.76292458607299, -0.8029776643594888, 0};
Point(p15 + 25) = {26.82700491284415, -0.8780060871558516, 0};
Point(p15 + 26) = {26.90203333564051, -0.942086413927012, 0};
Point(p15 + 27) = {26.98616240568777, -0.9936407743574522, 0};
Point(p15 + 28) = {27.07732058607299, -1.031399728994262, 0};
Point(p15 + 29) = {27.17326325985842, -1.054433527059498, 0};
Point(p15 + 30) = {27.271628, -1.062175, 0};
Point(p15 + 31) = {27.36999274014158, -1.054433527059498, 0};
Point(p15 + 32) = {27.46593541392701, -1.031399728994262, 0};
Point(p15 + 33) = {27.55709359431223, -0.9936407743574522, 0};
Point(p15 + 34) = {27.64122266435949, -0.942086413927012, 0};
Point(p15 + 35) = {27.71625108715585, -0.8780060871558517, 0};
Point(p15 + 36) = {27.78033141392701, -0.8029776643594889, 0};
Point(p15 + 37) = {27.83188577435745, -0.7188485943122292, 0};
Point(p15 + 38) = {27.86964472899426, -0.6276904139270121, 0};
Point(p15 + 39) = {27.8926785270595, -0.531747740141577, 0};
Spline(15) = {11, p15 + 1, p15 + 2, p15 + 3, p15 + 4, p15 + 5, p15 + 6, p15 + 7, p15 + 8, p15 + 9, p15 + 10, p15 + 11, p15 + 12, p15 + 13, p15 + 14, p15 + 15, p15 + 16, p15 + 17, p15 + 18, p15 + 19, p15 + 20, p15 + 21, p15 + 22, p15 + 23, p15 + 24, p15 + 25, p15 + 26, p15 + 27, p15 + 28, p15 + 29, p15 + 30, p15 + 31, p15 + 32, p15 + 33, p15 + 34, p15 + 35, p15 + 36, p15 + 37, p15 + 38, p15 + 39, 11};
p16 = newp;
Point(p16 + 1) = {28.17096023962188, 2.653340079404204, 0};
Point(p16 + 2) = {28.14049904612523, 2.780220081672487, 0};
Point(p16 + 3) = {28.09056447518883, 2.90077280005842, 0};
Point(p16 + 4) = {28.02238608167249, 3.012029826543806, 0};
Point(p16 + 5) = {27.93764264389567, 3.111251643895674, 0};
Point(p16 + 6) = {27.8384208265438, 3.195995081672488, 0};
Point(p16 + 7) = {27.72716380005842, 3.264173475188837, 0};
Point(p16 + 8) = {27.60661108167249, 3.314108046125235, 0};
Point(p16 + 9) = {27.4797310794042, 3.344569239621887, 0};
Point(p16 + 10) = {27.349648, 3.354807, 0};
Point(p16 + 11) = {27.21956492059579, 3.344569239621887, 0};
Point(p16 + 12) = {27.09268491832751, 3.314108046125235, 0};
Point(p16 + 13) = {26.97213219994158, 3.264173475188837, 0};
Point(p16 + 14) = {26.86087517345619, 3.195995081672488, 0};
Point(p16 + 15) = {26.76165335610433, 3.111251643895674, 0};
Point(p16 + 16) = {26.67690991832751, 3.012029826543806, 0};
Point(p16 + 17) = {26.60873152481116, 2.90077280005842, 0};
Point(p16 + 18) = {26.55879695387477, 2.780220081672488, 0};
Point(p16 + 19) = {26.52833576037811, 2.653340079404204, 0};
Point(p16 + 20) = {26.518098, 2.523257, 0};
Point(p16 + 21) = {26.52833576037811, 2.393173920595796, 0};
Point(p16 + 22) = {26.55879695387477, 2.266293918327512, 0};
Point(p16 + 23) = {26.60873152481116, 2.14574119994158, 0};
Point(p16 + 24) = {26.67690991832751, 2.034484173456194, 0};
Point(p16 + 25) = {26.76165335610433, 1.935262356104327, 0};
Point(p16 + 26) = {26.86087517345619, 1.850518918327513, 0};
Point(p16 + 27) = {26.97213219994158, 1.782340524811163, 0};
Point(p16 + 28) = {27.09268491832751, 1.732405953874765, 0};
Point(p16 + 29) = {27.21956492059579, 1.701944760378113, 0};
Point(p16 + 30) = {27.349648, 1.691707, 0};
Point(p16 + 31) = {27.4797310794042, 1.701944760378113, 0};
Point(p16 + 32) = {27.60661108167249, 1.732405953874765, 0};
Point(p16 + 33) = {27.72716380005842, 1.782340524811163, 0};
Point(p16 + 34) = {27.8384208265438, 1.850518918327512, 0};
Point(p16 + 35) = {27.93764264389567, 1.935262356104326, 0};
Point(p16 + 36) = {28.02238608167249, 2.034484173456194, 0};
Point(p16 + 37) = {28.09056447518883, 2.14574119994158, 0};
Point(p16 + 38) = {28.14049904612523, 2.266293918327512, 0};
Point(p16 + 39) = {28.17096023962188, 2.393173920595796, 0};
Spline(16) = {12, p16 + 1, p16 + 2, p16 + 3, p16 + 4, p16 + 5, p16 + 6, p16 + 7, p16 + 8, p16 + 9, p16 + 10, p16 + 11, p16 + 12, p16 + 13, p16 + 14, p16 + 15, p16 + 16, p16 + 17, p16 + 18, p16 + 19, p16 + 20, p16 + 21, p16 + 22, p16 + 23, p16 + 24, p16 + 25, p16 + 26, p16 + 27, p16 + 28, p16 + 29, p16 + 30, p16 + 31, p16 + 32, p16 + 33, p16 + 34, p16 + 35, p16 + 36, p16 + 37, p16 + 38, p16 + 39, 12};
Line(17) = {11, 8};
Line(18) = {12, 9};
Curve Loop(1) = {-1, 4, 3, -2};
Plane Surface(1) = {1};
Curve Loop(2) = {-5, 1, 7, -6};
Plane Surface(2) = {2};
Curve Loop(3) = {-2, 7, 9, -8, -10, -11};
Plane Surface(3) = {3};
Curve Loop(4) = {-12, 3, 8, -13};
Plane Surface(4) = {4};
Curve Loop(5) = {-4, 5, 14, -12, -15, -16};
Plane Surface(5) = {5};
Curve Loop(6) = {-6, 14, 13, -9};
Plane Surface(6) = {6};
Curve Loop(7) = {-10, -17, 15, 17};
Surface(7) = {7};
Curve Loop(8) = {-11, -18, 16, 18};
Surface(8) = {8};
Surface Loop(1) = {1, 2, 3, 4, 5, 6, 7, 8};
Volume(1) = {1};
Physical Surface("INFLOW") = {1};
Physical Surface("OUTFLOW") = {6};
Physical Surface("OBSTACLE") = {7, 8};
Physical Surface("WALL_Y") = {2, 4};
Physical Surface("WALL_Z") = {3, 5};
Physical Volume("FLUID") = {1};
