cl__1 = 1;
cl__2 = 0.054857;
cl__3 = 0.09505;
Point(1) = {0.457046, -3.103287, 1, cl__1};
Point(2) = {0.457046, -3.103287, 0, cl__1};
Point(3) = {0.457046, 4.666127, 1, cl__1};
Point(4) = {0.457046, 4.666127, 0, cl__1};
Point(5) = {37.167879, -3.103287, 0, cl__1};
Point(6) = {37.167879, -3.103287, 1, cl__1};
Point(7) = {37.167879, 4.666127, 1, cl__1};
Point(8) = {19.088975, 0.2359129999999999, 1, cl__2};
Point(9) = {22.835365, 2.114409, 1, cl__3};
Point(10) = {37.167879, 4.666127, 0, cl__1};
Point(11) = {19.088975, 0.2359129999999999, 0, cl__2};
Point(12) = {22.835365, 2.114409, 0, cl__3};
Line(1) = {2, 1};
Line(2) = {1, 3};
Line(3) = {4, 3};
Line(4) = {2, 4};
Line(5) = {2, 5};
Line(6) = {5, 6};
Line(7) = {1, 6};
Line(8) = {3, 7};
Line(9) = {6, 7};
p10 = newp;
Point(p10 + 1) = {19.08222116837696, 0.3217285673560495, 1};
Point(p10 + 2) = {19.06212597525707, 0.4054310706382537, 1};
Point(p10 + 3) = {19.02918423098706, 0.4849594764231226, 1};
Point(p10 + 4) = {18.98420707063826, 0.5583555314205866, 1};
Point(p10 + 5) = {18.92830198116907, 0.6238119811690667, 1};
Point(p10 + 6) = {18.86284553142059, 0.6797170706382536, 1};
Point(p10 + 7) = {18.78944947642312, 0.7246942309870612, 1};
Point(p10 + 8) = {18.70992107063826, 0.7576359752570649, 1};
Point(p10 + 9) = {18.62621856735605, 0.7777311683769559, 1};
Point(p10 + 10) = {18.540403, 0.784485, 1};
Point(p10 + 11) = {18.45458743264395, 0.7777311683769559, 1};
Point(p10 + 12) = {18.37088492936175, 0.7576359752570651, 1};
Point(p10 + 13) = {18.29135652357688, 0.7246942309870613, 1};
Point(p10 + 14) = {18.21796046857941, 0.6797170706382536, 1};
Point(p10 + 15) = {18.15250401883094, 0.6238119811690668, 1};
Point(p10 + 16) = {18.09659892936175, 0.5583555314205866, 1};
Point(p10 + 17) = {18.05162176901294, 0.4849594764231226, 1};
Point(p10 + 18) = {18.01868002474293, 0.4054310706382537, 1};
Point(p10 + 19) = {17.99858483162305, 0.3217285673560496, 1};
Point(p10 + 20) = {17.991831, 0.2359130000000001, 1};
Point(p10 + 21) = {17.99858483162305, 0.1500974326439506, 1};
Point(p10 + 22) = {18.01868002474293, 0.06639492936174621, 1};
Point(p10 + 23) = {18.05162176901294, -0.01313347642312232, 1};
Point(p10 + 24) = {18.09659892936175, -0.08652953142058648, 1};
Point(p10 + 25) = {18.15250401883094, -0.1519859811690667, 1};
Point(p10 + 26) = {18.21796046857941, -0.2078910706382535, 1};
Point(p10 + 27) = {18.29135652357688, -0.2528682309870612, 1};
Point(p10 + 28) = {18.37088492936175, -0.2858099752570649, 1};
Point(p10 + 29) = {18.45458743264395, -0.3059051683769558, 1};
Point(p10 + 30) = {18.540403, -0.3126589999999999, 1};
Point(p10 + 31) = {18.62621856735605, -0.3059051683769558, 1};
Point(p10 + 32) = {18.70992107063826, -0.285809975257065, 1};
Point(p10 + 33) = {18.78944947642312, -0.2528682309870613, 1};
Point(p10 + 34) = {18.86284553142059, -0.2078910706382537, 1};
Point(p10 + 35) = {18.92830198116907, -0.1519859811690668, 1};
Point(p10 + 36) = {18.98420707063826, -0.08652953142058664, 1};
Point(p10 + 37) = {19.02918423098706, -0.01313347642312274, 1};
Point(p10 + 38) = {19.06212597525707, 0.06639492936174626, 1};
Point(p10 + 39) = {19.08222116837696, 0.1500974326439504, 1};
Spline(10) = {8, p10 + 1, p10 + 2, p10 + 3, p10 + 4, p10 + 5, p10 + 6, p10 + 7, p10 + 8, p10 + 9, p10 + 10, p10 + 11, p10 + 12, p10 + 13, p10 + 14, p10 + 15, p10 + 16, p10 + 17, p10 + 18, p10 + 19, p10 + 20, p10 + 21, p10 + 22, p10 + 23, p10 + 24, p10 + 25, p10 + 26, p10 + 27, p10 + 28, p10 + 29, p10 + 30, p10 + 31, p10 + 32, p10 + 33, p10 + 34, p10 + 35, p10 + 36, p10 + 37, p10 + 38, p10 + 39, 8};
p11 = newp;
Point(p11 + 1) = {22.82366270617738, 2.263100741193065, 1};
Point(p11 + 2) = {22.78884397402112, 2.40813119823836, 1};
Point(p11 + 3) = {22.73176615627366, 2.545929239954938, 1};
Point(p11 + 4) = {22.65383469823836, 2.673101821230258, 1};
Point(p11 + 5) = {22.55696853105172, 2.786517531051719, 1};
Point(p11 + 6) = {22.44355282123026, 2.88338369823836, 1};
Point(p11 + 7) = {22.31638023995494, 2.961315156273665, 1};
Point(p11 + 8) = {22.17858219823836, 3.018392974021125, 1};
Point(p11 + 9) = {22.03355174119307, 3.053211706177382, 1};
Point(p11 + 10) = {21.88486, 3.064914, 1};
Point(p11 + 11) = {21.73616825880693, 3.053211706177382, 1};
Point(p11 + 12) = {21.59113780176164, 3.018392974021125, 1};
Point(p11 + 13) = {21.45333976004506, 2.961315156273665, 1};
Point(p11 + 14) = {21.32616717876974, 2.88338369823836, 1};
Point(p11 + 15) = {21.21275146894828, 2.78651753105172, 1};
Point(p11 + 16) = {21.11588530176164, 2.673101821230258, 1};
Point(p11 + 17) = {21.03795384372633, 2.545929239954938, 1};
Point(p11 + 18) = {20.98087602597888, 2.40813119823836, 1};
Point(p11 + 19) = {20.94605729382262, 2.263100741193065, 1};
Point(p11 + 20) = {20.934355, 2.114409, 1};
Point(p11 + 21) = {20.94605729382262, 1.965717258806936, 1};
Point(p11 + 22) = {20.98087602597888, 1.82068680176164, 1};
Point(p11 + 23) = {21.03795384372633, 1.682888760045063, 1};
Point(p11 + 24) = {21.11588530176164, 1.555716178769743, 1};
Point(p11 + 25) = {21.21275146894828, 1.442300468948281, 1};
Point(p11 + 26) = {21.32616717876974, 1.345434301761641, 1};
Point(p11 + 27) = {21.45333976004506, 1.267502843726336, 1};
Point(p11 + 28) = {21.59113780176164, 1.210425025978875, 1};
Point(p11 + 29) = {21.73616825880693, 1.175606293822619, 1};
Point(p11 + 30) = {21.88486, 1.163904, 1};
Point(p11 + 31) = {22.03355174119307, 1.175606293822619, 1};
Point(p11 + 32) = {22.17858219823836, 1.210425025978875, 1};
Point(p11 + 33) = {22.31638023995494, 1.267502843726335, 1};
Point(p11 + 34) = {22.44355282123026, 1.345434301761641, 1};
Point(p11 + 35) = {22.55696853105172, 1.442300468948281, 1};
Point(p11 + 36) = {22.65383469823836, 1.555716178769743, 1};
Point(p11 + 37) = {22.73176615627366, 1.682888760045062, 1};
Point(p11 + 38) = {22.78884397402112, 1.820686801761641, 1};
Point(p11 + 39) = {22.82366270617738, 1.965717258806935, 1};
Spline(11) = {9, p11 + 1, p11 + 2, p11 + 3, p11 + 4, p11 + 5, p11 + 6, p11 + 7, p11 + 8, p11 + 9, p11 + 10, p11 + 11, p11 + 12, p11 + 13, p11 + 14, p11 + 15, p11 + 16, p11 + 17, p11 + 18, p11 + 19, p11 + 20, p11 + 21, p11 + 22, p11 + 23, p11 + 24, p11 + 25, p11 + 26, p11 + 27, p11 + 28, p11 + 29, p11 + 30, p11 + 31, p11 + 32, p11 + 33, p11 + 34, p11 + 35, p11 + 36, p11 + 37, p11 + 38, p11 + 39, 9};
Line(12) = {4, 10};
Line(13) = {10, 7};
Line(14) = {5, 10};
p15 = newp;
Point(p15 + 1) = {19.08222116837696, 0.3217285673560495, 0};
Point(p15 + 2) = {19.06212597525707, 0.4054310706382537, 0};
Point(p15 + 3) = {19.02918423098706, 0.4849594764231226, 0};
Point(p15 + 4) = {18.98420707063826, 0.5583555314205866, 0};
Point(p15 + 5) = {18.92830198116907, 0.6238119811690667, 0};
Point(p15 + 6) = {18.86284553142059, 0.6797170706382536, 0};
Point(p15 + 7) = {18.78944947642312, 0.7246942309870612, 0};
Point(p15 + 8) = {18.70992107063826, 0.7576359752570649, 0};
Point(p15 + 9) = {18.62621856735605, 0.7777311683769559, 0};
Point(p15 + 10) = {18.540403, 0.784485, 0};
Point(p15 + 11) = {18.45458743264395, 0.7777311683769559, 0};
Point(p15 + 12) = {18.37088492936175, 0.7576359752570651, 0};
Point(p15 + 13) = {18.29135652357688, 0.7246942309870613, 0};
Point(p15 + 14) = {18.21796046857941, 0.6797170706382536, 0};
Point(p15 + 15) = {18.15250401883094, 0.6238119811690668, 0};
Point(p15 + 16) = {18.09659892936175, 0.5583555314205866, 0};
Point(p15 + 17) = {18.05162176901294, 0.4849594764231226, 0};
Point(p15 + 18) = {18.01868002474293, 0.4054310706382537, 0};
Point(p15 + 19) = {17.99858483162305, 0.3217285673560496, 0};
Point(p15 + 20) = {17.991831, 0.2359130000000001, 0};
Point(p15 + 21) = {17.99858483162305, 0.1500974326439506, 0};
Point(p15 + 22) = {18.01868002474293, 0.06639492936174621, 0};
Point(p15 + 23) = {18.05162176901294, -0.01313347642312232, 0};
Point(p15 + 24) = {18.09659892936175, -0.08652953142058648, 0};
Point(p15 + 25) = {18.15250401883094, -0.1519859811690667, 0};
Point(p15 + 26) = {18.21796046857941, -0.2078910706382535, 0};
Point(p15 + 27) = {18.29135652357688, -0.2528682309870612, 0};
Point(p15 + 28) = {18.37088492936175, -0.2858099752570649, 0};
Point(p15 + 29) = {18.45458743264395, -0.3059051683769558, 0};
Point(p15 + 30) = {18.540403, -0.3126589999999999, 0};
Point(p15 + 31) = {18.62621856735605, -0.3059051683769558, 0};
Point(p15 + 32) = {18.70992107063826, -0.285809975257065, 0};
Point(p15 + 33) = {18.78944947642312, -0.2528682309870613, 0};
Point(p15 + 34) = {18.86284553142059, -0.2078910706382537, 0};
Point(p15 + 35) = {18.92830198116907, -0.1519859811690668, 0};
Point(p15 + 36) = {18.98420707063826, -0.08652953142058664, 0};
Point(p15 + 37) = {19.02918423098706, -0.01313347642312274, 0};
Point(p15 + 38) = {19.06212597525707, 0.06639492936174626, 0};
Point(p15 + 39) = {19.08222116837696, 0.1500974326439504, 0};
Spline(15) = {11, p15 + 1, p15 + 2, p15 + 3, p15 + 4, p15 + 5, p15 + 6, p15 + 7, p15 + 8, p15 + 9, p15 + 10, p15 + 11, p15 + 12, p15 + 13, p15 + 14, p15 + 15, p15 + 16, p15 + 17, p15 + 18, p15 + 19, p15 + 20, p15 + 21, p15 + 22, p15 + 23, p15 + 24, p15 + 25, p15 + 26, p15 + 27, p15 + 28, p15 + 29, p15 + 30, p15 + 31, p15 + 32, p15 + 33, p15 + 34, p15 + 35, p15 + 36, p15 + 37, p15 + 38, p15 + 39, 11};
p16 = newp;
Point(p16 + 1) = {22.82366270617738, 2.263100741193065, 0};
Point(p16 + 2) = {22.78884397402112, 2.40813119823836, 0};
Point(p16 + 3) = {22.73176615627366, 2.545929239954938, 0};
Point(p16 + 4) = {22.65383469823836, 2.673101821230258, 0};
Point(p16 + 5) = {22.55696853105172, 2.786517531051719, 0};
Point(p16 + 6) = {22.44355282123026, 2.88338369823836, 0};
Point(p16 + 7) = {22.31638023995494, 2.961315156273665, 0};
Point(p16 + 8) = {22.17858219823836, 3.018392974021125, 0};
Point(p16 + 9) = {22.03355174119307, 3.053211706177382, 0};
Point(p16 + 10) = {21.88486, 3.064914, 0};
Point(p16 + 11) = {21.73616825880693, 3.053211706177382, 0};
Point(p16 + 12) = {21.59113780176164, 3.018392974021125, 0};
Point(p16 + 13) = {21.45333976004506, 2.961315156273665, 0};
Point(p16 + 14) = {21.32616717876974, 2.88338369823836, 0};
Point(p16 + 15) = {21.21275146894828, 2.78651753105172, 0};
Point(p16 + 16) = {21.11588530176164, 2.673101821230258, 0};
Point(p16 + 17) = {21.03795384372633, 2.545929239954938, 0};
Point(p16 + 18) = {20.98087602597888, 2.40813119823836, 0};
Point(p16 + 19) = {20.94605729382262, 2.263100741193065, 0};
Point(p16 + 20) = {20.934355, 2.114409, 0};
Point(p16 + 21) = {20.94605729382262, 1.965717258806936, 0};
Point(p16 + 22) = {20.98087602597888, 1.82068680176164, 0};
Point(p16 + 23) = {21.03795384372633, 1.682888760045063, 0};
Point(p16 + 24) = {21.11588530176164, 1.555716178769743, 0};
Point(p16 + 25) = {21.21275146894828, 1.442300468948281, 0};
Point(p16 + 26) = {21.32616717876974, 1.345434301761641, 0};
Point(p16 + 27) = {21.45333976004506, 1.267502843726336, 0};
Point(p16 + 28) = {21.59113780176164, 1.210425025978875, 0};
Point(p16 + 29) = {21.73616825880693, 1.175606293822619, 0};
Point(p16 + 30) = {21.88486, 1.163904, 0};
Point(p16 + 31) = {22.03355174119307, 1.175606293822619, 0};
Point(p16 + 32) = {22.17858219823836, 1.210425025978875, 0};
Point(p16 + 33) = {22.31638023995494, 1.267502843726335, 0};
Point(p16 + 34) = {22.44355282123026, 1.345434301761641, 0};
Point(p16 + 35) = {22.55696853105172, 1.442300468948281, 0};
Point(p16 + 36) = {22.65383469823836, 1.555716178769743, 0};
Point(p16 + 37) = {22.73176615627366, 1.682888760045062, 0};
Point(p16 + 38) = {22.78884397402112, 1.820686801761641, 0};
Point(p16 + 39) = {22.82366270617738, 1.965717258806935, 0};
Spline(16) = {12, p16 + 1, p16 + 2, p16 + 3, p16 + 4, p16 + 5, p16 + 6, p16 + 7, p16 + 8, p16 + 9, p16 + 10, p16 + 11, p16 + 12, p16 + 13, p16 + 14, p16 + 15, p16 + 16, p16 + 17, p16 + 18, p16 + 19, p16 + 20, p16 + 21, p16 + 22, p16 + 23, p16 + 24, p16 + 25, p16 + 26, p16 + 27, p16 + 28, p16 + 29, p16 + 30, p16 + 31, p16 + 32, p16 + 33, p16 + 34, p16 + 35, p16 + 36, p16 + 37, p16 + 38, p16 + 39, 12};
Line(17) = {11, 8};
Line(18) = {12, 9};
Curve Loop(1) = {-1, 4, 3, -2};
Plane Surface(1) = {1};
Curve Loop(2) = {-5, 1, 7, -6};
Plane Surface(2) = {2};
Curve Loop(3) = {-2, 7, 9, -8, -10, -11};
Plane Surface(3) = {3};
Curve Loop(4) = {-12, 3, 8, -13};
Plane Surface(4) = {4};
Curve Loop(5) = {-4, 5, 14, -12, -15, -16};
Plane Surface(5) = {5};
Curve Loop(6) = {-6, 14, 13, -9};
Plane Surface(6) = {6};
Curve Loop(7) = {-10, -17, 15, 17};
Surface(7) = {7};
Curve Loop(8) = {-11, -18, 16, 18};
Surface(8) = {8};
Surface Loop(1) = {1, 2, 3, 4, 5, 6, 7, 8};
Volume(1) = {1};
Physical Surface("INFLOW") = {1};
Physical Surface("OUTFLOW") = {6};
Physical Surface("OBSTACLE") = {7, 8};
Physical Surface("WALL_Y") = {2, 4};
Physical Surface("WALL_Z") = {3, 5};
Physical Volume("FLUID") = {1};
