cl__1 = 0.514784;
cl__2 = 0.6554;
cl__3 = 3.89495;
cl__4 = 0.075726;
Point(1) = {0.962131, -2.835544, 1, cl__1};
Point(2) = {0.962131, -2.835544, 0, cl__1};
Point(3) = {0.962131, 4.687624, 1, cl__2};
Point(4) = {0.962131, 4.687624, 0, cl__2};
Point(5) = {38.767431, -2.835544, 0, cl__3};
Point(6) = {38.767431, -2.835544, 1, cl__3};
Point(7) = {38.767431, 4.687624, 1, cl__3};
Point(8) = {7.05675, -0.3090930000000002, 1, cl__4};
Point(9) = {38.767431, 4.687624, 0, cl__3};
Point(10) = {7.05675, -0.3090930000000002, 0, cl__4};
Line(1) = {2, 1};
Line(2) = {1, 3};
Line(3) = {4, 3};
Line(4) = {2, 4};
Line(5) = {2, 5};
Line(6) = {5, 6};
Line(7) = {1, 6};
Line(8) = {3, 7};
Line(9) = {6, 7};
p10 = newp;
Point(p10 + 1) = {7.047426811240777, -0.1906306548313096, 1};
Point(p10 + 2) = {7.01968681281225, -0.07508524575465547, 1};
Point(p10 + 3) = {6.974213055539504, 0.03469811578526782, 1};
Point(p10 + 4) = {6.912125254245344, 0.1360161990772596, 1};
Point(p10 + 5) = {6.834952216655231, 0.2263742166552309, 1};
Point(p10 + 6) = {6.74459419907726, 0.3035472542453445, 1};
Point(p10 + 7) = {6.643276115785268, 0.3656350555395043, 1};
Point(p10 + 8) = {6.533492754245344, 0.4111088128122494, 1};
Point(p10 + 9) = {6.41794734516869, 0.438848811240777, 1};
Point(p10 + 10) = {6.299485, 0.448172, 1};
Point(p10 + 11) = {6.18102265483131, 0.4388488112407768, 1};
Point(p10 + 12) = {6.065477245754655, 0.4111088128122495, 1};
Point(p10 + 13) = {5.955693884214732, 0.3656350555395044, 1};
Point(p10 + 14) = {5.854375800922741, 0.3035472542453445, 1};
Point(p10 + 15) = {5.764017783344769, 0.2263742166552309, 1};
Point(p10 + 16) = {5.686844745754655, 0.1360161990772597, 1};
Point(p10 + 17) = {5.624756944460495, 0.03469811578526794, 1};
Point(p10 + 18) = {5.57928318718775, -0.07508524575465539, 1};
Point(p10 + 19) = {5.551543188759223, -0.1906306548313095, 1};
Point(p10 + 20) = {5.542219999999999, -0.3090929999999999, 1};
Point(p10 + 21) = {5.551543188759223, -0.4275553451686903, 1};
Point(p10 + 22) = {5.57928318718775, -0.5431007542453448, 1};
Point(p10 + 23) = {5.624756944460495, -0.6528841157852675, 1};
Point(p10 + 24) = {5.686844745754655, -0.7542021990772596, 1};
Point(p10 + 25) = {5.764017783344769, -0.8445602166552308, 1};
Point(p10 + 26) = {5.85437580092274, -0.9217332542453445, 1};
Point(p10 + 27) = {5.955693884214732, -0.9838210555395044, 1};
Point(p10 + 28) = {6.065477245754655, -1.029294812812249, 1};
Point(p10 + 29) = {6.18102265483131, -1.057034811240777, 1};
Point(p10 + 30) = {6.299485, -1.066358, 1};
Point(p10 + 31) = {6.41794734516869, -1.057034811240777, 1};
Point(p10 + 32) = {6.533492754245344, -1.029294812812249, 1};
Point(p10 + 33) = {6.643276115785268, -0.9838210555395044, 1};
Point(p10 + 34) = {6.744594199077259, -0.9217332542453447, 1};
Point(p10 + 35) = {6.83495221665523, -0.8445602166552311, 1};
Point(p10 + 36) = {6.912125254245344, -0.7542021990772598, 1};
Point(p10 + 37) = {6.974213055539504, -0.6528841157852681, 1};
Point(p10 + 38) = {7.01968681281225, -0.5431007542453448, 1};
Point(p10 + 39) = {7.047426811240777, -0.4275553451686906, 1};
Spline(10) = {8, p10 + 1, p10 + 2, p10 + 3, p10 + 4, p10 + 5, p10 + 6, p10 + 7, p10 + 8, p10 + 9, p10 + 10, p10 + 11, p10 + 12, p10 + 13, p10 + 14, p10 + 15, p10 + 16, p10 + 17, p10 + 18, p10 + 19, p10 + 20, p10 + 21, p10 + 22, p10 + 23, p10 + 24, p10 + 25, p10 + 26, p10 + 27, p10 + 28, p10 + 29, p10 + 30, p10 + 31, p10 + 32, p10 + 33, p10 + 34, p10 + 35, p10 + 36, p10 + 37, p10 + 38, p10 + 39, 8};
Line(11) = {4, 9};
Line(12) = {9, 7};
Line(13) = {5, 9};
p14 = newp;
Point(p14 + 1) = {7.047426811240777, -0.1906306548313096, 0};
Point(p14 + 2) = {7.01968681281225, -0.07508524575465547, 0};
Point(p14 + 3) = {6.974213055539504, 0.03469811578526782, 0};
Point(p14 + 4) = {6.912125254245344, 0.1360161990772596, 0};
Point(p14 + 5) = {6.834952216655231, 0.2263742166552309, 0};
Point(p14 + 6) = {6.74459419907726, 0.3035472542453445, 0};
Point(p14 + 7) = {6.643276115785268, 0.3656350555395043, 0};
Point(p14 + 8) = {6.533492754245344, 0.4111088128122494, 0};
Point(p14 + 9) = {6.41794734516869, 0.438848811240777, 0};
Point(p14 + 10) = {6.299485, 0.448172, 0};
Point(p14 + 11) = {6.18102265483131, 0.4388488112407768, 0};
Point(p14 + 12) = {6.065477245754655, 0.4111088128122495, 0};
Point(p14 + 13) = {5.955693884214732, 0.3656350555395044, 0};
Point(p14 + 14) = {5.854375800922741, 0.3035472542453445, 0};
Point(p14 + 15) = {5.764017783344769, 0.2263742166552309, 0};
Point(p14 + 16) = {5.686844745754655, 0.1360161990772597, 0};
Point(p14 + 17) = {5.624756944460495, 0.03469811578526794, 0};
Point(p14 + 18) = {5.57928318718775, -0.07508524575465539, 0};
Point(p14 + 19) = {5.551543188759223, -0.1906306548313095, 0};
Point(p14 + 20) = {5.542219999999999, -0.3090929999999999, 0};
Point(p14 + 21) = {5.551543188759223, -0.4275553451686903, 0};
Point(p14 + 22) = {5.57928318718775, -0.5431007542453448, 0};
Point(p14 + 23) = {5.624756944460495, -0.6528841157852675, 0};
Point(p14 + 24) = {5.686844745754655, -0.7542021990772596, 0};
Point(p14 + 25) = {5.764017783344769, -0.8445602166552308, 0};
Point(p14 + 26) = {5.85437580092274, -0.9217332542453445, 0};
Point(p14 + 27) = {5.955693884214732, -0.9838210555395044, 0};
Point(p14 + 28) = {6.065477245754655, -1.029294812812249, 0};
Point(p14 + 29) = {6.18102265483131, -1.057034811240777, 0};
Point(p14 + 30) = {6.299485, -1.066358, 0};
Point(p14 + 31) = {6.41794734516869, -1.057034811240777, 0};
Point(p14 + 32) = {6.533492754245344, -1.029294812812249, 0};
Point(p14 + 33) = {6.643276115785268, -0.9838210555395044, 0};
Point(p14 + 34) = {6.744594199077259, -0.9217332542453447, 0};
Point(p14 + 35) = {6.83495221665523, -0.8445602166552311, 0};
Point(p14 + 36) = {6.912125254245344, -0.7542021990772598, 0};
Point(p14 + 37) = {6.974213055539504, -0.6528841157852681, 0};
Point(p14 + 38) = {7.01968681281225, -0.5431007542453448, 0};
Point(p14 + 39) = {7.047426811240777, -0.4275553451686906, 0};
Spline(14) = {10, p14 + 1, p14 + 2, p14 + 3, p14 + 4, p14 + 5, p14 + 6, p14 + 7, p14 + 8, p14 + 9, p14 + 10, p14 + 11, p14 + 12, p14 + 13, p14 + 14, p14 + 15, p14 + 16, p14 + 17, p14 + 18, p14 + 19, p14 + 20, p14 + 21, p14 + 22, p14 + 23, p14 + 24, p14 + 25, p14 + 26, p14 + 27, p14 + 28, p14 + 29, p14 + 30, p14 + 31, p14 + 32, p14 + 33, p14 + 34, p14 + 35, p14 + 36, p14 + 37, p14 + 38, p14 + 39, 10};
Line(15) = {10, 8};
Curve Loop(1) = {-1, 4, 3, -2};
Plane Surface(1) = {1};
Curve Loop(2) = {-5, 1, 7, -6};
Plane Surface(2) = {2};
Curve Loop(3) = {-2, 7, 9, -8, -10};
Plane Surface(3) = {3};
Curve Loop(4) = {-11, 3, 8, -12};
Plane Surface(4) = {4};
Curve Loop(5) = {-4, 5, 13, -11, -14};
Plane Surface(5) = {5};
Curve Loop(6) = {-6, 13, 12, -9};
Plane Surface(6) = {6};
Curve Loop(7) = {-10, -15, 14, 15};
Surface(7) = {7};
Surface Loop(1) = {1, 2, 3, 4, 5, 6, 7};
Volume(1) = {1};
Physical Surface("INFLOW") = {1};
Physical Surface("OUTFLOW") = {6};
Physical Surface("OBSTACLE") = {7};
Physical Surface("WALL_Y") = {2, 4};
Physical Surface("WALL_Z") = {3, 5};
Physical Volume("FLUID") = {1};
