cl__1 = 3.556854;
cl__2 = 0.5688569999999999;
cl__3 = 0.529465;
cl__4 = 0.126896;
Point(1) = {0.325185, -3.322517, 1, cl__1};
Point(2) = {0.325185, -3.322517, 0, cl__1};
Point(3) = {0.325185, 5.311772000000001, 1, cl__1};
Point(4) = {0.325185, 5.311772000000001, 0, cl__1};
Point(5) = {35.305568, -3.322517, 0, cl__2};
Point(6) = {35.305568, -3.322517, 1, cl__2};
Point(7) = {35.305568, 5.311772000000001, 1, cl__3};
Point(8) = {31.377295, 1.303058, 1, cl__4};
Point(9) = {35.305568, 5.311772000000001, 0, cl__3};
Point(10) = {31.377295, 1.303058, 0, cl__4};
Line(1) = {2, 1};
Line(2) = {1, 3};
Line(3) = {4, 3};
Line(4) = {2, 4};
Line(5) = {2, 5};
Line(6) = {5, 6};
Line(7) = {1, 6};
Line(8) = {3, 7};
Line(9) = {6, 7};
p10 = newp;
Point(p10 + 1) = {31.36167195974663, 1.501567548060847, 1};
Point(p10 + 2) = {31.31518753008745, 1.695189132233016, 1};
Point(p10 + 3) = {31.23898631195365, 1.879155146520995, 1};
Point(p10 + 4) = {31.13494463223302, 2.048935737104814, 1};
Point(p10 + 5) = {31.00562434237483, 2.200350342374825, 1};
Point(p10 + 6) = {30.85420973710481, 2.329670632233016, 1};
Point(p10 + 7) = {30.68442914652099, 2.433712311953644, 1};
Point(p10 + 8) = {30.50046313223302, 2.509913530087447, 1};
Point(p10 + 9) = {30.30684154806085, 2.556397959746628, 1};
Point(p10 + 10) = {30.108332, 2.572021, 1};
Point(p10 + 11) = {29.90982245193915, 2.556397959746628, 1};
Point(p10 + 12) = {29.71620086776699, 2.509913530087447, 1};
Point(p10 + 13) = {29.53223485347901, 2.433712311953644, 1};
Point(p10 + 14) = {29.36245426289519, 2.329670632233016, 1};
Point(p10 + 15) = {29.21103965762518, 2.200350342374825, 1};
Point(p10 + 16) = {29.08171936776699, 2.048935737104814, 1};
Point(p10 + 17) = {28.97767768804636, 1.879155146520995, 1};
Point(p10 + 18) = {28.90147646991255, 1.695189132233017, 1};
Point(p10 + 19) = {28.85499204025337, 1.501567548060847, 1};
Point(p10 + 20) = {28.839369, 1.303058, 1};
Point(p10 + 21) = {28.85499204025337, 1.104548451939154, 1};
Point(p10 + 22) = {28.90147646991255, 0.9109268677669833, 1};
Point(p10 + 23) = {28.97767768804636, 0.7269608534790062, 1};
Point(p10 + 24) = {29.08171936776698, 0.5571802628951865, 1};
Point(p10 + 25) = {29.21103965762518, 0.4057656576251751, 1};
Point(p10 + 26) = {29.36245426289519, 0.2764453677669838, 1};
Point(p10 + 27) = {29.53223485347901, 0.1724036880463562, 1};
Point(p10 + 28) = {29.71620086776698, 0.09620246991255299, 1};
Point(p10 + 29) = {29.90982245193915, 0.04971804025337234, 1};
Point(p10 + 30) = {30.108332, 0.03409499999999999, 1};
Point(p10 + 31) = {30.30684154806085, 0.04971804025337212, 1};
Point(p10 + 32) = {30.50046313223302, 0.09620246991255299, 1};
Point(p10 + 33) = {30.68442914652099, 0.1724036880463562, 1};
Point(p10 + 34) = {30.85420973710481, 0.2764453677669834, 1};
Point(p10 + 35) = {31.00562434237483, 0.4057656576251749, 1};
Point(p10 + 36) = {31.13494463223302, 0.5571802628951862, 1};
Point(p10 + 37) = {31.23898631195365, 0.7269608534790053, 1};
Point(p10 + 38) = {31.31518753008745, 0.9109268677669834, 1};
Point(p10 + 39) = {31.36167195974663, 1.104548451939153, 1};
Spline(10) = {8, p10 + 1, p10 + 2, p10 + 3, p10 + 4, p10 + 5, p10 + 6, p10 + 7, p10 + 8, p10 + 9, p10 + 10, p10 + 11, p10 + 12, p10 + 13, p10 + 14, p10 + 15, p10 + 16, p10 + 17, p10 + 18, p10 + 19, p10 + 20, p10 + 21, p10 + 22, p10 + 23, p10 + 24, p10 + 25, p10 + 26, p10 + 27, p10 + 28, p10 + 29, p10 + 30, p10 + 31, p10 + 32, p10 + 33, p10 + 34, p10 + 35, p10 + 36, p10 + 37, p10 + 38, p10 + 39, 8};
Line(11) = {4, 9};
Line(12) = {9, 7};
Line(13) = {5, 9};
p14 = newp;
Point(p14 + 1) = {31.36167195974663, 1.501567548060847, 0};
Point(p14 + 2) = {31.31518753008745, 1.695189132233016, 0};
Point(p14 + 3) = {31.23898631195365, 1.879155146520995, 0};
Point(p14 + 4) = {31.13494463223302, 2.048935737104814, 0};
Point(p14 + 5) = {31.00562434237483, 2.200350342374825, 0};
Point(p14 + 6) = {30.85420973710481, 2.329670632233016, 0};
Point(p14 + 7) = {30.68442914652099, 2.433712311953644, 0};
Point(p14 + 8) = {30.50046313223302, 2.509913530087447, 0};
Point(p14 + 9) = {30.30684154806085, 2.556397959746628, 0};
Point(p14 + 10) = {30.108332, 2.572021, 0};
Point(p14 + 11) = {29.90982245193915, 2.556397959746628, 0};
Point(p14 + 12) = {29.71620086776699, 2.509913530087447, 0};
Point(p14 + 13) = {29.53223485347901, 2.433712311953644, 0};
Point(p14 + 14) = {29.36245426289519, 2.329670632233016, 0};
Point(p14 + 15) = {29.21103965762518, 2.200350342374825, 0};
Point(p14 + 16) = {29.08171936776699, 2.048935737104814, 0};
Point(p14 + 17) = {28.97767768804636, 1.879155146520995, 0};
Point(p14 + 18) = {28.90147646991255, 1.695189132233017, 0};
Point(p14 + 19) = {28.85499204025337, 1.501567548060847, 0};
Point(p14 + 20) = {28.839369, 1.303058, 0};
Point(p14 + 21) = {28.85499204025337, 1.104548451939154, 0};
Point(p14 + 22) = {28.90147646991255, 0.9109268677669833, 0};
Point(p14 + 23) = {28.97767768804636, 0.7269608534790062, 0};
Point(p14 + 24) = {29.08171936776698, 0.5571802628951865, 0};
Point(p14 + 25) = {29.21103965762518, 0.4057656576251751, 0};
Point(p14 + 26) = {29.36245426289519, 0.2764453677669838, 0};
Point(p14 + 27) = {29.53223485347901, 0.1724036880463562, 0};
Point(p14 + 28) = {29.71620086776698, 0.09620246991255299, 0};
Point(p14 + 29) = {29.90982245193915, 0.04971804025337234, 0};
Point(p14 + 30) = {30.108332, 0.03409499999999999, 0};
Point(p14 + 31) = {30.30684154806085, 0.04971804025337212, 0};
Point(p14 + 32) = {30.50046313223302, 0.09620246991255299, 0};
Point(p14 + 33) = {30.68442914652099, 0.1724036880463562, 0};
Point(p14 + 34) = {30.85420973710481, 0.2764453677669834, 0};
Point(p14 + 35) = {31.00562434237483, 0.4057656576251749, 0};
Point(p14 + 36) = {31.13494463223302, 0.5571802628951862, 0};
Point(p14 + 37) = {31.23898631195365, 0.7269608534790053, 0};
Point(p14 + 38) = {31.31518753008745, 0.9109268677669834, 0};
Point(p14 + 39) = {31.36167195974663, 1.104548451939153, 0};
Spline(14) = {10, p14 + 1, p14 + 2, p14 + 3, p14 + 4, p14 + 5, p14 + 6, p14 + 7, p14 + 8, p14 + 9, p14 + 10, p14 + 11, p14 + 12, p14 + 13, p14 + 14, p14 + 15, p14 + 16, p14 + 17, p14 + 18, p14 + 19, p14 + 20, p14 + 21, p14 + 22, p14 + 23, p14 + 24, p14 + 25, p14 + 26, p14 + 27, p14 + 28, p14 + 29, p14 + 30, p14 + 31, p14 + 32, p14 + 33, p14 + 34, p14 + 35, p14 + 36, p14 + 37, p14 + 38, p14 + 39, 10};
Line(15) = {10, 8};
Curve Loop(1) = {-1, 4, 3, -2};
Plane Surface(1) = {1};
Curve Loop(2) = {-5, 1, 7, -6};
Plane Surface(2) = {2};
Curve Loop(3) = {-2, 7, 9, -8, -10};
Plane Surface(3) = {3};
Curve Loop(4) = {-11, 3, 8, -12};
Plane Surface(4) = {4};
Curve Loop(5) = {-4, 5, 13, -11, -14};
Plane Surface(5) = {5};
Curve Loop(6) = {-6, 13, 12, -9};
Plane Surface(6) = {6};
Curve Loop(7) = {-10, -15, 14, 15};
Surface(7) = {7};
Surface Loop(1) = {1, 2, 3, 4, 5, 6, 7};
Volume(1) = {1};
Physical Surface("INFLOW") = {1};
Physical Surface("OUTFLOW") = {6};
Physical Surface("OBSTACLE") = {7};
Physical Surface("WALL_Y") = {2, 4};
Physical Surface("WALL_Z") = {3, 5};
Physical Volume("FLUID") = {1};
