cl__1 = 3.138218;
cl__2 = 0.656882;
cl__3 = 0.751445;
cl__4 = 0.061086;
Point(1) = {0.727235, -3.582355, 1, cl__1};
Point(2) = {0.727235, -3.582355, 0, cl__1};
Point(3) = {0.727235, 4.637899000000001, 1, cl__1};
Point(4) = {0.727235, 4.637899000000001, 0, cl__1};
Point(5) = {31.111869, -3.582355, 0, cl__2};
Point(6) = {31.111869, -3.582355, 1, cl__2};
Point(7) = {31.111869, 4.637899000000001, 1, cl__3};
Point(8) = {25.310543, -0.3525370000000002, 1, cl__4};
Point(9) = {31.111869, 4.637899000000001, 0, cl__3};
Point(10) = {25.310543, -0.3525370000000002, 0, cl__4};
Line(1) = {2, 1};
Line(2) = {1, 3};
Line(3) = {4, 3};
Line(4) = {2, 4};
Line(5) = {2, 5};
Line(6) = {5, 6};
Line(7) = {1, 6};
Line(8) = {3, 7};
Line(9) = {6, 7};
p10 = newp;
Point(p10 + 1) = {25.30302232435927, -0.2569777555544546, 1};
Point(p10 + 2) = {25.28064548143102, -0.1637714968501084, 1};
Point(p10 + 3) = {25.24396346335266, -0.07521327131009992, 1};
Point(p10 + 4) = {25.19387950314989, 0.006516323644875588, 1};
Point(p10 + 5) = {25.13162683414205, 0.07940483414205202, 1};
Point(p10 + 6) = {25.05873832364487, 0.1416575031498917, 1};
Point(p10 + 7) = {24.9770087286899, 0.191741463352658, 1};
Point(p10 + 8) = {24.88845050314989, 0.2284234814310249, 1};
Point(p10 + 9) = {24.79524424444554, 0.2508003243592647, 1};
Point(p10 + 10) = {24.699685, 0.258321, 1};
Point(p10 + 11) = {24.60412575555445, 0.2508003243592646, 1};
Point(p10 + 12) = {24.51091949685011, 0.228423481431025, 1};
Point(p10 + 13) = {24.4223612713101, 0.1917414633526581, 1};
Point(p10 + 14) = {24.34063167635512, 0.1416575031498917, 1};
Point(p10 + 15) = {24.26774316585795, 0.07940483414205207, 1};
Point(p10 + 16) = {24.20549049685011, 0.006516323644875643, 1};
Point(p10 + 17) = {24.15540653664734, -0.07521327131009986, 1};
Point(p10 + 18) = {24.11872451856897, -0.1637714968501083, 1};
Point(p10 + 19) = {24.09634767564074, -0.2569777555544546, 1};
Point(p10 + 20) = {24.088827, -0.3525369999999999, 1};
Point(p10 + 21) = {24.09634767564073, -0.4480962444455452, 1};
Point(p10 + 22) = {24.11872451856897, -0.5413025031498918, 1};
Point(p10 + 23) = {24.15540653664734, -0.6298607286898997, 1};
Point(p10 + 24) = {24.20549049685011, -0.7115903236448755, 1};
Point(p10 + 25) = {24.26774316585795, -0.784478834142052, 1};
Point(p10 + 26) = {24.34063167635512, -0.8467315031498917, 1};
Point(p10 + 27) = {24.4223612713101, -0.8968154633526579, 1};
Point(p10 + 28) = {24.51091949685011, -0.9334974814310248, 1};
Point(p10 + 29) = {24.60412575555445, -0.9558743243592646, 1};
Point(p10 + 30) = {24.699685, -0.963395, 1};
Point(p10 + 31) = {24.79524424444554, -0.9558743243592647, 1};
Point(p10 + 32) = {24.88845050314989, -0.933497481431025, 1};
Point(p10 + 33) = {24.9770087286899, -0.896815463352658, 1};
Point(p10 + 34) = {25.05873832364487, -0.8467315031498917, 1};
Point(p10 + 35) = {25.13162683414205, -0.7844788341420521, 1};
Point(p10 + 36) = {25.19387950314989, -0.7115903236448757, 1};
Point(p10 + 37) = {25.24396346335266, -0.6298607286899002, 1};
Point(p10 + 38) = {25.28064548143102, -0.5413025031498917, 1};
Point(p10 + 39) = {25.30302232435926, -0.4480962444455455, 1};
Spline(10) = {8, p10 + 1, p10 + 2, p10 + 3, p10 + 4, p10 + 5, p10 + 6, p10 + 7, p10 + 8, p10 + 9, p10 + 10, p10 + 11, p10 + 12, p10 + 13, p10 + 14, p10 + 15, p10 + 16, p10 + 17, p10 + 18, p10 + 19, p10 + 20, p10 + 21, p10 + 22, p10 + 23, p10 + 24, p10 + 25, p10 + 26, p10 + 27, p10 + 28, p10 + 29, p10 + 30, p10 + 31, p10 + 32, p10 + 33, p10 + 34, p10 + 35, p10 + 36, p10 + 37, p10 + 38, p10 + 39, 8};
Line(11) = {4, 9};
Line(12) = {9, 7};
Line(13) = {5, 9};
p14 = newp;
Point(p14 + 1) = {25.30302232435927, -0.2569777555544546, 0};
Point(p14 + 2) = {25.28064548143102, -0.1637714968501084, 0};
Point(p14 + 3) = {25.24396346335266, -0.07521327131009992, 0};
Point(p14 + 4) = {25.19387950314989, 0.006516323644875588, 0};
Point(p14 + 5) = {25.13162683414205, 0.07940483414205202, 0};
Point(p14 + 6) = {25.05873832364487, 0.1416575031498917, 0};
Point(p14 + 7) = {24.9770087286899, 0.191741463352658, 0};
Point(p14 + 8) = {24.88845050314989, 0.2284234814310249, 0};
Point(p14 + 9) = {24.79524424444554, 0.2508003243592647, 0};
Point(p14 + 10) = {24.699685, 0.258321, 0};
Point(p14 + 11) = {24.60412575555445, 0.2508003243592646, 0};
Point(p14 + 12) = {24.51091949685011, 0.228423481431025, 0};
Point(p14 + 13) = {24.4223612713101, 0.1917414633526581, 0};
Point(p14 + 14) = {24.34063167635512, 0.1416575031498917, 0};
Point(p14 + 15) = {24.26774316585795, 0.07940483414205207, 0};
Point(p14 + 16) = {24.20549049685011, 0.006516323644875643, 0};
Point(p14 + 17) = {24.15540653664734, -0.07521327131009986, 0};
Point(p14 + 18) = {24.11872451856897, -0.1637714968501083, 0};
Point(p14 + 19) = {24.09634767564074, -0.2569777555544546, 0};
Point(p14 + 20) = {24.088827, -0.3525369999999999, 0};
Point(p14 + 21) = {24.09634767564073, -0.4480962444455452, 0};
Point(p14 + 22) = {24.11872451856897, -0.5413025031498918, 0};
Point(p14 + 23) = {24.15540653664734, -0.6298607286898997, 0};
Point(p14 + 24) = {24.20549049685011, -0.7115903236448755, 0};
Point(p14 + 25) = {24.26774316585795, -0.784478834142052, 0};
Point(p14 + 26) = {24.34063167635512, -0.8467315031498917, 0};
Point(p14 + 27) = {24.4223612713101, -0.8968154633526579, 0};
Point(p14 + 28) = {24.51091949685011, -0.9334974814310248, 0};
Point(p14 + 29) = {24.60412575555445, -0.9558743243592646, 0};
Point(p14 + 30) = {24.699685, -0.963395, 0};
Point(p14 + 31) = {24.79524424444554, -0.9558743243592647, 0};
Point(p14 + 32) = {24.88845050314989, -0.933497481431025, 0};
Point(p14 + 33) = {24.9770087286899, -0.896815463352658, 0};
Point(p14 + 34) = {25.05873832364487, -0.8467315031498917, 0};
Point(p14 + 35) = {25.13162683414205, -0.7844788341420521, 0};
Point(p14 + 36) = {25.19387950314989, -0.7115903236448757, 0};
Point(p14 + 37) = {25.24396346335266, -0.6298607286899002, 0};
Point(p14 + 38) = {25.28064548143102, -0.5413025031498917, 0};
Point(p14 + 39) = {25.30302232435926, -0.4480962444455455, 0};
Spline(14) = {10, p14 + 1, p14 + 2, p14 + 3, p14 + 4, p14 + 5, p14 + 6, p14 + 7, p14 + 8, p14 + 9, p14 + 10, p14 + 11, p14 + 12, p14 + 13, p14 + 14, p14 + 15, p14 + 16, p14 + 17, p14 + 18, p14 + 19, p14 + 20, p14 + 21, p14 + 22, p14 + 23, p14 + 24, p14 + 25, p14 + 26, p14 + 27, p14 + 28, p14 + 29, p14 + 30, p14 + 31, p14 + 32, p14 + 33, p14 + 34, p14 + 35, p14 + 36, p14 + 37, p14 + 38, p14 + 39, 10};
Line(15) = {10, 8};
Curve Loop(1) = {-1, 4, 3, -2};
Plane Surface(1) = {1};
Curve Loop(2) = {-5, 1, 7, -6};
Plane Surface(2) = {2};
Curve Loop(3) = {-2, 7, 9, -8, -10};
Plane Surface(3) = {3};
Curve Loop(4) = {-11, 3, 8, -12};
Plane Surface(4) = {4};
Curve Loop(5) = {-4, 5, 13, -11, -14};
Plane Surface(5) = {5};
Curve Loop(6) = {-6, 13, 12, -9};
Plane Surface(6) = {6};
Curve Loop(7) = {-10, -15, 14, 15};
Surface(7) = {7};
Surface Loop(1) = {1, 2, 3, 4, 5, 6, 7};
Volume(1) = {1};
Physical Surface("INFLOW") = {1};
Physical Surface("OUTFLOW") = {6};
Physical Surface("OBSTACLE") = {7};
Physical Surface("WALL_Y") = {2, 4};
Physical Surface("WALL_Z") = {3, 5};
Physical Volume("FLUID") = {1};
