cl__1 = 0.472111;
cl__2 = 0.243676;
cl__3 = 3.288627;
cl__4 = 0.134552;
Point(1) = {0.561673, -4.046065, 1, cl__1};
Point(2) = {0.561673, -4.046065, 0, cl__1};
Point(3) = {0.561673, 4.569618000000001, 1, cl__2};
Point(4) = {0.561673, 4.569618000000001, 0, cl__2};
Point(5) = {32.602898, -4.046065, 0, cl__3};
Point(6) = {32.602898, -4.046065, 1, cl__3};
Point(7) = {32.602898, 4.569618000000001, 1, cl__3};
Point(8) = {4.207754, 1.567445, 1, cl__4};
Point(9) = {32.602898, 4.569618000000001, 0, cl__3};
Point(10) = {4.207754, 1.567445, 0, cl__4};
Line(1) = {2, 1};
Line(2) = {1, 3};
Line(3) = {4, 3};
Line(4) = {2, 4};
Line(5) = {2, 5};
Line(6) = {5, 6};
Line(7) = {1, 6};
Line(8) = {3, 7};
Line(9) = {6, 7};
p10 = newp;
Point(p10 + 1) = {4.19118840372591, 1.777930857835397, 1};
Point(p10 + 2) = {4.141899514861971, 1.983233855288373, 1};
Point(p10 + 3) = {4.061100989432457, 2.178298751200055, 1};
Point(p10 + 4) = {3.950782355288373, 2.358322400449821, 1};
Point(p10 + 5) = {3.813660023328905, 2.518872023328905, 1};
Point(p10 + 6) = {3.653110400449821, 2.655994355288374, 1};
Point(p10 + 7) = {3.473086751200055, 2.766312989432457, 1};
Point(p10 + 8) = {3.278021855288373, 2.847111514861971, 1};
Point(p10 + 9) = {3.072718857835397, 2.89640040372591, 1};
Point(p10 + 10) = {2.862233, 2.912966, 1};
Point(p10 + 11) = {2.651747142164603, 2.89640040372591, 1};
Point(p10 + 12) = {2.446444144711626, 2.847111514861972, 1};
Point(p10 + 13) = {2.251379248799945, 2.766312989432457, 1};
Point(p10 + 14) = {2.071355599550179, 2.655994355288374, 1};
Point(p10 + 15) = {1.910805976671095, 2.518872023328905, 1};
Point(p10 + 16) = {1.773683644711626, 2.358322400449821, 1};
Point(p10 + 17) = {1.663365010567543, 2.178298751200055, 1};
Point(p10 + 18) = {1.582566485138029, 1.983233855288374, 1};
Point(p10 + 19) = {1.53327759627409, 1.777930857835397, 1};
Point(p10 + 20) = {1.516712, 1.567445, 1};
Point(p10 + 21) = {1.533277596274089, 1.356959142164604, 1};
Point(p10 + 22) = {1.582566485138029, 1.151656144711626, 1};
Point(p10 + 23) = {1.663365010567543, 0.9565912487999459, 1};
Point(p10 + 24) = {1.773683644711626, 0.7765675995501794, 1};
Point(p10 + 25) = {1.910805976671095, 0.6160179766710955, 1};
Point(p10 + 26) = {2.071355599550179, 0.4788956447116264, 1};
Point(p10 + 27) = {2.251379248799945, 0.3685770105675432, 1};
Point(p10 + 28) = {2.446444144711626, 0.2877784851380287, 1};
Point(p10 + 29) = {2.651747142164603, 0.2384895962740898, 1};
Point(p10 + 30) = {2.862232999999999, 0.221924, 1};
Point(p10 + 31) = {3.072718857835396, 0.2384895962740896, 1};
Point(p10 + 32) = {3.278021855288373, 0.2877784851380285, 1};
Point(p10 + 33) = {3.473086751200055, 0.368577010567543, 1};
Point(p10 + 34) = {3.65311040044982, 0.4788956447116262, 1};
Point(p10 + 35) = {3.813660023328904, 0.6160179766710951, 1};
Point(p10 + 36) = {3.950782355288373, 0.776567599550179, 1};
Point(p10 + 37) = {4.061100989432457, 0.9565912487999451, 1};
Point(p10 + 38) = {4.141899514861971, 1.151656144711626, 1};
Point(p10 + 39) = {4.19118840372591, 1.356959142164603, 1};
Spline(10) = {8, p10 + 1, p10 + 2, p10 + 3, p10 + 4, p10 + 5, p10 + 6, p10 + 7, p10 + 8, p10 + 9, p10 + 10, p10 + 11, p10 + 12, p10 + 13, p10 + 14, p10 + 15, p10 + 16, p10 + 17, p10 + 18, p10 + 19, p10 + 20, p10 + 21, p10 + 22, p10 + 23, p10 + 24, p10 + 25, p10 + 26, p10 + 27, p10 + 28, p10 + 29, p10 + 30, p10 + 31, p10 + 32, p10 + 33, p10 + 34, p10 + 35, p10 + 36, p10 + 37, p10 + 38, p10 + 39, 8};
Line(11) = {4, 9};
Line(12) = {9, 7};
Line(13) = {5, 9};
p14 = newp;
Point(p14 + 1) = {4.19118840372591, 1.777930857835397, 0};
Point(p14 + 2) = {4.141899514861971, 1.983233855288373, 0};
Point(p14 + 3) = {4.061100989432457, 2.178298751200055, 0};
Point(p14 + 4) = {3.950782355288373, 2.358322400449821, 0};
Point(p14 + 5) = {3.813660023328905, 2.518872023328905, 0};
Point(p14 + 6) = {3.653110400449821, 2.655994355288374, 0};
Point(p14 + 7) = {3.473086751200055, 2.766312989432457, 0};
Point(p14 + 8) = {3.278021855288373, 2.847111514861971, 0};
Point(p14 + 9) = {3.072718857835397, 2.89640040372591, 0};
Point(p14 + 10) = {2.862233, 2.912966, 0};
Point(p14 + 11) = {2.651747142164603, 2.89640040372591, 0};
Point(p14 + 12) = {2.446444144711626, 2.847111514861972, 0};
Point(p14 + 13) = {2.251379248799945, 2.766312989432457, 0};
Point(p14 + 14) = {2.071355599550179, 2.655994355288374, 0};
Point(p14 + 15) = {1.910805976671095, 2.518872023328905, 0};
Point(p14 + 16) = {1.773683644711626, 2.358322400449821, 0};
Point(p14 + 17) = {1.663365010567543, 2.178298751200055, 0};
Point(p14 + 18) = {1.582566485138029, 1.983233855288374, 0};
Point(p14 + 19) = {1.53327759627409, 1.777930857835397, 0};
Point(p14 + 20) = {1.516712, 1.567445, 0};
Point(p14 + 21) = {1.533277596274089, 1.356959142164604, 0};
Point(p14 + 22) = {1.582566485138029, 1.151656144711626, 0};
Point(p14 + 23) = {1.663365010567543, 0.9565912487999459, 0};
Point(p14 + 24) = {1.773683644711626, 0.7765675995501794, 0};
Point(p14 + 25) = {1.910805976671095, 0.6160179766710955, 0};
Point(p14 + 26) = {2.071355599550179, 0.4788956447116264, 0};
Point(p14 + 27) = {2.251379248799945, 0.3685770105675432, 0};
Point(p14 + 28) = {2.446444144711626, 0.2877784851380287, 0};
Point(p14 + 29) = {2.651747142164603, 0.2384895962740898, 0};
Point(p14 + 30) = {2.862232999999999, 0.221924, 0};
Point(p14 + 31) = {3.072718857835396, 0.2384895962740896, 0};
Point(p14 + 32) = {3.278021855288373, 0.2877784851380285, 0};
Point(p14 + 33) = {3.473086751200055, 0.368577010567543, 0};
Point(p14 + 34) = {3.65311040044982, 0.4788956447116262, 0};
Point(p14 + 35) = {3.813660023328904, 0.6160179766710951, 0};
Point(p14 + 36) = {3.950782355288373, 0.776567599550179, 0};
Point(p14 + 37) = {4.061100989432457, 0.9565912487999451, 0};
Point(p14 + 38) = {4.141899514861971, 1.151656144711626, 0};
Point(p14 + 39) = {4.19118840372591, 1.356959142164603, 0};
Spline(14) = {10, p14 + 1, p14 + 2, p14 + 3, p14 + 4, p14 + 5, p14 + 6, p14 + 7, p14 + 8, p14 + 9, p14 + 10, p14 + 11, p14 + 12, p14 + 13, p14 + 14, p14 + 15, p14 + 16, p14 + 17, p14 + 18, p14 + 19, p14 + 20, p14 + 21, p14 + 22, p14 + 23, p14 + 24, p14 + 25, p14 + 26, p14 + 27, p14 + 28, p14 + 29, p14 + 30, p14 + 31, p14 + 32, p14 + 33, p14 + 34, p14 + 35, p14 + 36, p14 + 37, p14 + 38, p14 + 39, 10};
Line(15) = {10, 8};
Curve Loop(1) = {-1, 4, 3, -2};
Plane Surface(1) = {1};
Curve Loop(2) = {-5, 1, 7, -6};
Plane Surface(2) = {2};
Curve Loop(3) = {-2, 7, 9, -8, -10};
Plane Surface(3) = {3};
Curve Loop(4) = {-11, 3, 8, -12};
Plane Surface(4) = {4};
Curve Loop(5) = {-4, 5, 13, -11, -14};
Plane Surface(5) = {5};
Curve Loop(6) = {-6, 13, 12, -9};
Plane Surface(6) = {6};
Curve Loop(7) = {-10, -15, 14, 15};
Surface(7) = {7};
Surface Loop(1) = {1, 2, 3, 4, 5, 6, 7};
Volume(1) = {1};
Physical Surface("INFLOW") = {1};
Physical Surface("OUTFLOW") = {6};
Physical Surface("OBSTACLE") = {7};
Physical Surface("WALL_Y") = {2, 4};
Physical Surface("WALL_Z") = {3, 5};
Physical Volume("FLUID") = {1};
