cl__1 = 3.560499;
cl__2 = 1.236698;
cl__3 = 1.126286;
cl__4 = 0.110514;
Point(1) = {0.12517, -4.075392, 1, cl__1};
Point(2) = {0.12517, -4.075392, 0, cl__1};
Point(3) = {0.12517, 4.681041, 1, cl__1};
Point(4) = {0.12517, 4.681041, 0, cl__1};
Point(5) = {35.33477999999999, -4.075392, 0, cl__2};
Point(6) = {35.33477999999999, -4.075392, 1, cl__2};
Point(7) = {35.33477999999999, 4.681041, 1, cl__3};
Point(8) = {24.38132, 1.931956, 1, cl__4};
Point(9) = {35.33477999999999, 4.681041, 0, cl__3};
Point(10) = {24.38132, 1.931956, 0, cl__4};
Line(1) = {2, 1};
Line(2) = {1, 3};
Line(3) = {4, 3};
Line(4) = {2, 4};
Line(5) = {2, 5};
Line(6) = {5, 6};
Line(7) = {1, 6};
Line(8) = {3, 7};
Line(9) = {6, 7};
p10 = newp;
Point(p10 + 1) = {24.36771390503697, 2.104837828260096, 1};
Point(p10 + 2) = {24.32723064736191, 2.273462732146535, 1};
Point(p10 + 3) = {24.26086705913501, 2.433678606891663, 1};
Point(p10 + 4) = {24.17025723214654, 2.581540405933251, 1};
Point(p10 + 5) = {24.05763228105372, 2.71340728105372, 1};
Point(p10 + 6) = {23.92576540593325, 2.826032232146535, 1};
Point(p10 + 7) = {23.77790360689166, 2.916642059135008, 1};
Point(p10 + 8) = {23.61768773214654, 2.98300564736191, 1};
Point(p10 + 9) = {23.4490628282601, 3.02348890503697, 1};
Point(p10 + 10) = {23.276181, 3.037095, 1};
Point(p10 + 11) = {23.10329917173991, 3.02348890503697, 1};
Point(p10 + 12) = {22.93467426785347, 2.98300564736191, 1};
Point(p10 + 13) = {22.77445839310834, 2.916642059135009, 1};
Point(p10 + 14) = {22.62659659406675, 2.826032232146535, 1};
Point(p10 + 15) = {22.49472971894628, 2.71340728105372, 1};
Point(p10 + 16) = {22.38210476785347, 2.581540405933252, 1};
Point(p10 + 17) = {22.29149494086499, 2.433678606891663, 1};
Point(p10 + 18) = {22.22513135263809, 2.273462732146535, 1};
Point(p10 + 19) = {22.18464809496303, 2.104837828260096, 1};
Point(p10 + 20) = {22.171042, 1.931956, 1};
Point(p10 + 21) = {22.18464809496303, 1.759074171739905, 1};
Point(p10 + 22) = {22.22513135263809, 1.590449267853465, 1};
Point(p10 + 23) = {22.29149494086499, 1.430233393108338, 1};
Point(p10 + 24) = {22.38210476785347, 1.282371594066749, 1};
Point(p10 + 25) = {22.49472971894628, 1.15050471894628, 1};
Point(p10 + 26) = {22.62659659406675, 1.037879767853465, 1};
Point(p10 + 27) = {22.77445839310834, 0.9472699408649914, 1};
Point(p10 + 28) = {22.93467426785347, 0.8809063526380903, 1};
Point(p10 + 29) = {23.10329917173991, 0.84042309496303, 1};
Point(p10 + 30) = {23.276181, 0.8268169999999999, 1};
Point(p10 + 31) = {23.4490628282601, 0.84042309496303, 1};
Point(p10 + 32) = {23.61768773214654, 0.88090635263809, 1};
Point(p10 + 33) = {23.77790360689166, 0.9472699408649912, 1};
Point(p10 + 34) = {23.92576540593325, 1.037879767853465, 1};
Point(p10 + 35) = {24.05763228105372, 1.15050471894628, 1};
Point(p10 + 36) = {24.17025723214654, 1.282371594066748, 1};
Point(p10 + 37) = {24.26086705913501, 1.430233393108337, 1};
Point(p10 + 38) = {24.32723064736191, 1.590449267853465, 1};
Point(p10 + 39) = {24.36771390503697, 1.759074171739904, 1};
Spline(10) = {8, p10 + 1, p10 + 2, p10 + 3, p10 + 4, p10 + 5, p10 + 6, p10 + 7, p10 + 8, p10 + 9, p10 + 10, p10 + 11, p10 + 12, p10 + 13, p10 + 14, p10 + 15, p10 + 16, p10 + 17, p10 + 18, p10 + 19, p10 + 20, p10 + 21, p10 + 22, p10 + 23, p10 + 24, p10 + 25, p10 + 26, p10 + 27, p10 + 28, p10 + 29, p10 + 30, p10 + 31, p10 + 32, p10 + 33, p10 + 34, p10 + 35, p10 + 36, p10 + 37, p10 + 38, p10 + 39, 8};
Line(11) = {4, 9};
Line(12) = {9, 7};
Line(13) = {5, 9};
p14 = newp;
Point(p14 + 1) = {24.36771390503697, 2.104837828260096, 0};
Point(p14 + 2) = {24.32723064736191, 2.273462732146535, 0};
Point(p14 + 3) = {24.26086705913501, 2.433678606891663, 0};
Point(p14 + 4) = {24.17025723214654, 2.581540405933251, 0};
Point(p14 + 5) = {24.05763228105372, 2.71340728105372, 0};
Point(p14 + 6) = {23.92576540593325, 2.826032232146535, 0};
Point(p14 + 7) = {23.77790360689166, 2.916642059135008, 0};
Point(p14 + 8) = {23.61768773214654, 2.98300564736191, 0};
Point(p14 + 9) = {23.4490628282601, 3.02348890503697, 0};
Point(p14 + 10) = {23.276181, 3.037095, 0};
Point(p14 + 11) = {23.10329917173991, 3.02348890503697, 0};
Point(p14 + 12) = {22.93467426785347, 2.98300564736191, 0};
Point(p14 + 13) = {22.77445839310834, 2.916642059135009, 0};
Point(p14 + 14) = {22.62659659406675, 2.826032232146535, 0};
Point(p14 + 15) = {22.49472971894628, 2.71340728105372, 0};
Point(p14 + 16) = {22.38210476785347, 2.581540405933252, 0};
Point(p14 + 17) = {22.29149494086499, 2.433678606891663, 0};
Point(p14 + 18) = {22.22513135263809, 2.273462732146535, 0};
Point(p14 + 19) = {22.18464809496303, 2.104837828260096, 0};
Point(p14 + 20) = {22.171042, 1.931956, 0};
Point(p14 + 21) = {22.18464809496303, 1.759074171739905, 0};
Point(p14 + 22) = {22.22513135263809, 1.590449267853465, 0};
Point(p14 + 23) = {22.29149494086499, 1.430233393108338, 0};
Point(p14 + 24) = {22.38210476785347, 1.282371594066749, 0};
Point(p14 + 25) = {22.49472971894628, 1.15050471894628, 0};
Point(p14 + 26) = {22.62659659406675, 1.037879767853465, 0};
Point(p14 + 27) = {22.77445839310834, 0.9472699408649914, 0};
Point(p14 + 28) = {22.93467426785347, 0.8809063526380903, 0};
Point(p14 + 29) = {23.10329917173991, 0.84042309496303, 0};
Point(p14 + 30) = {23.276181, 0.8268169999999999, 0};
Point(p14 + 31) = {23.4490628282601, 0.84042309496303, 0};
Point(p14 + 32) = {23.61768773214654, 0.88090635263809, 0};
Point(p14 + 33) = {23.77790360689166, 0.9472699408649912, 0};
Point(p14 + 34) = {23.92576540593325, 1.037879767853465, 0};
Point(p14 + 35) = {24.05763228105372, 1.15050471894628, 0};
Point(p14 + 36) = {24.17025723214654, 1.282371594066748, 0};
Point(p14 + 37) = {24.26086705913501, 1.430233393108337, 0};
Point(p14 + 38) = {24.32723064736191, 1.590449267853465, 0};
Point(p14 + 39) = {24.36771390503697, 1.759074171739904, 0};
Spline(14) = {10, p14 + 1, p14 + 2, p14 + 3, p14 + 4, p14 + 5, p14 + 6, p14 + 7, p14 + 8, p14 + 9, p14 + 10, p14 + 11, p14 + 12, p14 + 13, p14 + 14, p14 + 15, p14 + 16, p14 + 17, p14 + 18, p14 + 19, p14 + 20, p14 + 21, p14 + 22, p14 + 23, p14 + 24, p14 + 25, p14 + 26, p14 + 27, p14 + 28, p14 + 29, p14 + 30, p14 + 31, p14 + 32, p14 + 33, p14 + 34, p14 + 35, p14 + 36, p14 + 37, p14 + 38, p14 + 39, 10};
Line(15) = {10, 8};
Curve Loop(1) = {-1, 4, 3, -2};
Plane Surface(1) = {1};
Curve Loop(2) = {-5, 1, 7, -6};
Plane Surface(2) = {2};
Curve Loop(3) = {-2, 7, 9, -8, -10};
Plane Surface(3) = {3};
Curve Loop(4) = {-11, 3, 8, -12};
Plane Surface(4) = {4};
Curve Loop(5) = {-4, 5, 13, -11, -14};
Plane Surface(5) = {5};
Curve Loop(6) = {-6, 13, 12, -9};
Plane Surface(6) = {6};
Curve Loop(7) = {-10, -15, 14, 15};
Surface(7) = {7};
Surface Loop(1) = {1, 2, 3, 4, 5, 6, 7};
Volume(1) = {1};
Physical Surface("INFLOW") = {1};
Physical Surface("OUTFLOW") = {6};
Physical Surface("OBSTACLE") = {7};
Physical Surface("WALL_Y") = {2, 4};
Physical Surface("WALL_Z") = {3, 5};
Physical Volume("FLUID") = {1};
