cl__1 = 3.453677;
cl__2 = 0.874185;
cl__3 = 0.903524;
cl__4 = 0.078861;
Point(1) = {0.661183, -3.497035, 1, cl__1};
Point(2) = {0.661183, -3.497035, 0, cl__1};
Point(3) = {0.661183, 5.364371, 1, cl__1};
Point(4) = {0.661183, 5.364371, 0, cl__1};
Point(5) = {34.25139, -3.497035, 0, cl__2};
Point(6) = {34.25139, -3.497035, 1, cl__2};
Point(7) = {34.25139, 5.364371, 1, cl__3};
Point(8) = {26.441454, 0.6132719999999999, 1, cl__4};
Point(9) = {34.25139, 5.364371, 0, cl__3};
Point(10) = {26.441454, 0.6132719999999999, 0, cl__4};
Line(1) = {2, 1};
Line(2) = {1, 3};
Line(3) = {4, 3};
Line(4) = {2, 4};
Line(5) = {2, 5};
Line(6) = {5, 6};
Line(7) = {1, 6};
Line(8) = {3, 7};
Line(9) = {6, 7};
p10 = newp;
Point(p10 + 1) = {26.43174488996507, 0.7366379399098415, 1};
Point(p10 + 2) = {26.40285663037204, 0.8569662009510217, 1};
Point(p10 + 3) = {26.35550054604671, 0.9712939019901037, 1};
Point(p10 + 4) = {26.29084270095102, 1.07680591559562, 1};
Point(p10 + 5) = {26.2104751858183, 1.170904185818304, 1};
Point(p10 + 6) = {26.11637691559562, 1.251271700951022, 1};
Point(p10 + 7) = {26.0108649019901, 1.315929546046713, 1};
Point(p10 + 8) = {25.89653720095102, 1.363285630372037, 1};
Point(p10 + 9) = {25.77620893990984, 1.392173889965072, 1};
Point(p10 + 10) = {25.652843, 1.401883, 1};
Point(p10 + 11) = {25.52947706009016, 1.392173889965072, 1};
Point(p10 + 12) = {25.40914879904898, 1.363285630372038, 1};
Point(p10 + 13) = {25.2948210980099, 1.315929546046713, 1};
Point(p10 + 14) = {25.18930908440438, 1.251271700951022, 1};
Point(p10 + 15) = {25.0952108141817, 1.170904185818304, 1};
Point(p10 + 16) = {25.01484329904898, 1.07680591559562, 1};
Point(p10 + 17) = {24.95018545395329, 0.9712939019901038, 1};
Point(p10 + 18) = {24.90282936962796, 0.8569662009510217, 1};
Point(p10 + 19) = {24.87394111003493, 0.7366379399098416, 1};
Point(p10 + 20) = {24.864232, 0.6132720000000002, 1};
Point(p10 + 21) = {24.87394111003493, 0.4899060600901586, 1};
Point(p10 + 22) = {24.90282936962796, 0.3695777990489781, 1};
Point(p10 + 23) = {24.95018545395329, 0.2552500980098967, 1};
Point(p10 + 24) = {25.01484329904898, 0.1497380844043806, 1};
Point(p10 + 25) = {25.0952108141817, 0.05563981418169572, 1};
Point(p10 + 26) = {25.18930908440438, -0.0247277009510215, 1};
Point(p10 + 27) = {25.2948210980099, -0.08938554604671278, 1};
Point(p10 + 28) = {25.40914879904898, -0.1367416303720372, 1};
Point(p10 + 29) = {25.52947706009016, -0.165629889965072, 1};
Point(p10 + 30) = {25.652843, -0.1753389999999999, 1};
Point(p10 + 31) = {25.77620893990984, -0.1656298899650721, 1};
Point(p10 + 32) = {25.89653720095102, -0.1367416303720373, 1};
Point(p10 + 33) = {26.0108649019901, -0.08938554604671289, 1};
Point(p10 + 34) = {26.11637691559562, -0.02472770095102172, 1};
Point(p10 + 35) = {26.2104751858183, 0.0556398141816955, 1};
Point(p10 + 36) = {26.29084270095102, 0.1497380844043804, 1};
Point(p10 + 37) = {26.35550054604671, 0.2552500980098962, 1};
Point(p10 + 38) = {26.40285663037204, 0.3695777990489783, 1};
Point(p10 + 39) = {26.43174488996507, 0.4899060600901584, 1};
Spline(10) = {8, p10 + 1, p10 + 2, p10 + 3, p10 + 4, p10 + 5, p10 + 6, p10 + 7, p10 + 8, p10 + 9, p10 + 10, p10 + 11, p10 + 12, p10 + 13, p10 + 14, p10 + 15, p10 + 16, p10 + 17, p10 + 18, p10 + 19, p10 + 20, p10 + 21, p10 + 22, p10 + 23, p10 + 24, p10 + 25, p10 + 26, p10 + 27, p10 + 28, p10 + 29, p10 + 30, p10 + 31, p10 + 32, p10 + 33, p10 + 34, p10 + 35, p10 + 36, p10 + 37, p10 + 38, p10 + 39, 8};
Line(11) = {4, 9};
Line(12) = {9, 7};
Line(13) = {5, 9};
p14 = newp;
Point(p14 + 1) = {26.43174488996507, 0.7366379399098415, 0};
Point(p14 + 2) = {26.40285663037204, 0.8569662009510217, 0};
Point(p14 + 3) = {26.35550054604671, 0.9712939019901037, 0};
Point(p14 + 4) = {26.29084270095102, 1.07680591559562, 0};
Point(p14 + 5) = {26.2104751858183, 1.170904185818304, 0};
Point(p14 + 6) = {26.11637691559562, 1.251271700951022, 0};
Point(p14 + 7) = {26.0108649019901, 1.315929546046713, 0};
Point(p14 + 8) = {25.89653720095102, 1.363285630372037, 0};
Point(p14 + 9) = {25.77620893990984, 1.392173889965072, 0};
Point(p14 + 10) = {25.652843, 1.401883, 0};
Point(p14 + 11) = {25.52947706009016, 1.392173889965072, 0};
Point(p14 + 12) = {25.40914879904898, 1.363285630372038, 0};
Point(p14 + 13) = {25.2948210980099, 1.315929546046713, 0};
Point(p14 + 14) = {25.18930908440438, 1.251271700951022, 0};
Point(p14 + 15) = {25.0952108141817, 1.170904185818304, 0};
Point(p14 + 16) = {25.01484329904898, 1.07680591559562, 0};
Point(p14 + 17) = {24.95018545395329, 0.9712939019901038, 0};
Point(p14 + 18) = {24.90282936962796, 0.8569662009510217, 0};
Point(p14 + 19) = {24.87394111003493, 0.7366379399098416, 0};
Point(p14 + 20) = {24.864232, 0.6132720000000002, 0};
Point(p14 + 21) = {24.87394111003493, 0.4899060600901586, 0};
Point(p14 + 22) = {24.90282936962796, 0.3695777990489781, 0};
Point(p14 + 23) = {24.95018545395329, 0.2552500980098967, 0};
Point(p14 + 24) = {25.01484329904898, 0.1497380844043806, 0};
Point(p14 + 25) = {25.0952108141817, 0.05563981418169572, 0};
Point(p14 + 26) = {25.18930908440438, -0.0247277009510215, 0};
Point(p14 + 27) = {25.2948210980099, -0.08938554604671278, 0};
Point(p14 + 28) = {25.40914879904898, -0.1367416303720372, 0};
Point(p14 + 29) = {25.52947706009016, -0.165629889965072, 0};
Point(p14 + 30) = {25.652843, -0.1753389999999999, 0};
Point(p14 + 31) = {25.77620893990984, -0.1656298899650721, 0};
Point(p14 + 32) = {25.89653720095102, -0.1367416303720373, 0};
Point(p14 + 33) = {26.0108649019901, -0.08938554604671289, 0};
Point(p14 + 34) = {26.11637691559562, -0.02472770095102172, 0};
Point(p14 + 35) = {26.2104751858183, 0.0556398141816955, 0};
Point(p14 + 36) = {26.29084270095102, 0.1497380844043804, 0};
Point(p14 + 37) = {26.35550054604671, 0.2552500980098962, 0};
Point(p14 + 38) = {26.40285663037204, 0.3695777990489783, 0};
Point(p14 + 39) = {26.43174488996507, 0.4899060600901584, 0};
Spline(14) = {10, p14 + 1, p14 + 2, p14 + 3, p14 + 4, p14 + 5, p14 + 6, p14 + 7, p14 + 8, p14 + 9, p14 + 10, p14 + 11, p14 + 12, p14 + 13, p14 + 14, p14 + 15, p14 + 16, p14 + 17, p14 + 18, p14 + 19, p14 + 20, p14 + 21, p14 + 22, p14 + 23, p14 + 24, p14 + 25, p14 + 26, p14 + 27, p14 + 28, p14 + 29, p14 + 30, p14 + 31, p14 + 32, p14 + 33, p14 + 34, p14 + 35, p14 + 36, p14 + 37, p14 + 38, p14 + 39, 10};
Line(15) = {10, 8};
Curve Loop(1) = {-1, 4, 3, -2};
Plane Surface(1) = {1};
Curve Loop(2) = {-5, 1, 7, -6};
Plane Surface(2) = {2};
Curve Loop(3) = {-2, 7, 9, -8, -10};
Plane Surface(3) = {3};
Curve Loop(4) = {-11, 3, 8, -12};
Plane Surface(4) = {4};
Curve Loop(5) = {-4, 5, 13, -11, -14};
Plane Surface(5) = {5};
Curve Loop(6) = {-6, 13, 12, -9};
Plane Surface(6) = {6};
Curve Loop(7) = {-10, -15, 14, 15};
Surface(7) = {7};
Surface Loop(1) = {1, 2, 3, 4, 5, 6, 7};
Volume(1) = {1};
Physical Surface("INFLOW") = {1};
Physical Surface("OUTFLOW") = {6};
Physical Surface("OBSTACLE") = {7};
Physical Surface("WALL_Y") = {2, 4};
Physical Surface("WALL_Z") = {3, 5};
Physical Volume("FLUID") = {1};
