cl__1 = 1.608574;
cl__2 = 1.507955;
cl__3 = 3.885006;
cl__4 = 0.104613;
Point(1) = {0.351759, -4.188313, 1, cl__1};
Point(2) = {0.351759, -4.188313, 0, cl__1};
Point(3) = {0.351759, 5.695263, 1, cl__2};
Point(4) = {0.351759, 5.695263, 0, cl__2};
Point(5) = {38.53448, -4.188313, 0, cl__3};
Point(6) = {38.53448, -4.188313, 1, cl__3};
Point(7) = {38.53448, 5.695263, 1, cl__3};
Point(8) = {17.192899, 2.44634, 1, cl__4};
Point(9) = {38.53448, 5.695263, 0, cl__3};
Point(10) = {17.192899, 2.44634, 0, cl__4};
Line(1) = {2, 1};
Line(2) = {1, 3};
Line(3) = {4, 3};
Line(4) = {2, 4};
Line(5) = {2, 5};
Line(6) = {5, 6};
Line(7) = {1, 6};
Line(8) = {3, 7};
Line(9) = {6, 7};
p10 = newp;
Point(p10 + 1) = {17.18001937912347, 2.609991099781467, 1};
Point(p10 + 2) = {17.14169765550488, 2.769612566359453, 1};
Point(p10 + 3) = {17.07887743716223, 2.921273989473532, 1};
Point(p10 + 4) = {16.99310556635945, 3.061240961551229, 1};
Point(p10 + 5) = {16.88649403121624, 3.186067031216246, 1};
Point(p10 + 6) = {16.76166796155123, 3.292678566359453, 1};
Point(p10 + 7) = {16.62170098947353, 3.378450437162226, 1};
Point(p10 + 8) = {16.47003956635945, 3.441270655504882, 1};
Point(p10 + 9) = {16.31041809978147, 3.479592379123473, 1};
Point(p10 + 10) = {16.146767, 3.492472, 1};
Point(p10 + 11) = {15.98311590021853, 3.479592379123473, 1};
Point(p10 + 12) = {15.82349443364055, 3.441270655504882, 1};
Point(p10 + 13) = {15.67183301052647, 3.378450437162226, 1};
Point(p10 + 14) = {15.53186603844877, 3.292678566359453, 1};
Point(p10 + 15) = {15.40703996878375, 3.186067031216246, 1};
Point(p10 + 16) = {15.30042843364055, 3.06124096155123, 1};
Point(p10 + 17) = {15.21465656283777, 2.921273989473532, 1};
Point(p10 + 18) = {15.15183634449512, 2.769612566359453, 1};
Point(p10 + 19) = {15.11351462087653, 2.609991099781467, 1};
Point(p10 + 20) = {15.100635, 2.44634, 1};
Point(p10 + 21) = {15.11351462087653, 2.282688900218533, 1};
Point(p10 + 22) = {15.15183634449512, 2.123067433640547, 1};
Point(p10 + 23) = {15.21465656283777, 1.971406010526469, 1};
Point(p10 + 24) = {15.30042843364055, 1.831439038448771, 1};
Point(p10 + 25) = {15.40703996878375, 1.706612968783755, 1};
Point(p10 + 26) = {15.53186603844877, 1.600001433640548, 1};
Point(p10 + 27) = {15.67183301052647, 1.514229562837774, 1};
Point(p10 + 28) = {15.82349443364055, 1.451409344495119, 1};
Point(p10 + 29) = {15.98311590021853, 1.413087620876528, 1};
Point(p10 + 30) = {16.146767, 1.400208, 1};
Point(p10 + 31) = {16.31041809978147, 1.413087620876528, 1};
Point(p10 + 32) = {16.47003956635945, 1.451409344495119, 1};
Point(p10 + 33) = {16.62170098947353, 1.514229562837774, 1};
Point(p10 + 34) = {16.76166796155123, 1.600001433640547, 1};
Point(p10 + 35) = {16.88649403121624, 1.706612968783755, 1};
Point(p10 + 36) = {16.99310556635945, 1.83143903844877, 1};
Point(p10 + 37) = {17.07887743716223, 1.971406010526468, 1};
Point(p10 + 38) = {17.14169765550488, 2.123067433640547, 1};
Point(p10 + 39) = {17.18001937912347, 2.282688900218533, 1};
Spline(10) = {8, p10 + 1, p10 + 2, p10 + 3, p10 + 4, p10 + 5, p10 + 6, p10 + 7, p10 + 8, p10 + 9, p10 + 10, p10 + 11, p10 + 12, p10 + 13, p10 + 14, p10 + 15, p10 + 16, p10 + 17, p10 + 18, p10 + 19, p10 + 20, p10 + 21, p10 + 22, p10 + 23, p10 + 24, p10 + 25, p10 + 26, p10 + 27, p10 + 28, p10 + 29, p10 + 30, p10 + 31, p10 + 32, p10 + 33, p10 + 34, p10 + 35, p10 + 36, p10 + 37, p10 + 38, p10 + 39, 8};
Line(11) = {4, 9};
Line(12) = {9, 7};
Line(13) = {5, 9};
p14 = newp;
Point(p14 + 1) = {17.18001937912347, 2.609991099781467, 0};
Point(p14 + 2) = {17.14169765550488, 2.769612566359453, 0};
Point(p14 + 3) = {17.07887743716223, 2.921273989473532, 0};
Point(p14 + 4) = {16.99310556635945, 3.061240961551229, 0};
Point(p14 + 5) = {16.88649403121624, 3.186067031216246, 0};
Point(p14 + 6) = {16.76166796155123, 3.292678566359453, 0};
Point(p14 + 7) = {16.62170098947353, 3.378450437162226, 0};
Point(p14 + 8) = {16.47003956635945, 3.441270655504882, 0};
Point(p14 + 9) = {16.31041809978147, 3.479592379123473, 0};
Point(p14 + 10) = {16.146767, 3.492472, 0};
Point(p14 + 11) = {15.98311590021853, 3.479592379123473, 0};
Point(p14 + 12) = {15.82349443364055, 3.441270655504882, 0};
Point(p14 + 13) = {15.67183301052647, 3.378450437162226, 0};
Point(p14 + 14) = {15.53186603844877, 3.292678566359453, 0};
Point(p14 + 15) = {15.40703996878375, 3.186067031216246, 0};
Point(p14 + 16) = {15.30042843364055, 3.06124096155123, 0};
Point(p14 + 17) = {15.21465656283777, 2.921273989473532, 0};
Point(p14 + 18) = {15.15183634449512, 2.769612566359453, 0};
Point(p14 + 19) = {15.11351462087653, 2.609991099781467, 0};
Point(p14 + 20) = {15.100635, 2.44634, 0};
Point(p14 + 21) = {15.11351462087653, 2.282688900218533, 0};
Point(p14 + 22) = {15.15183634449512, 2.123067433640547, 0};
Point(p14 + 23) = {15.21465656283777, 1.971406010526469, 0};
Point(p14 + 24) = {15.30042843364055, 1.831439038448771, 0};
Point(p14 + 25) = {15.40703996878375, 1.706612968783755, 0};
Point(p14 + 26) = {15.53186603844877, 1.600001433640548, 0};
Point(p14 + 27) = {15.67183301052647, 1.514229562837774, 0};
Point(p14 + 28) = {15.82349443364055, 1.451409344495119, 0};
Point(p14 + 29) = {15.98311590021853, 1.413087620876528, 0};
Point(p14 + 30) = {16.146767, 1.400208, 0};
Point(p14 + 31) = {16.31041809978147, 1.413087620876528, 0};
Point(p14 + 32) = {16.47003956635945, 1.451409344495119, 0};
Point(p14 + 33) = {16.62170098947353, 1.514229562837774, 0};
Point(p14 + 34) = {16.76166796155123, 1.600001433640547, 0};
Point(p14 + 35) = {16.88649403121624, 1.706612968783755, 0};
Point(p14 + 36) = {16.99310556635945, 1.83143903844877, 0};
Point(p14 + 37) = {17.07887743716223, 1.971406010526468, 0};
Point(p14 + 38) = {17.14169765550488, 2.123067433640547, 0};
Point(p14 + 39) = {17.18001937912347, 2.282688900218533, 0};
Spline(14) = {10, p14 + 1, p14 + 2, p14 + 3, p14 + 4, p14 + 5, p14 + 6, p14 + 7, p14 + 8, p14 + 9, p14 + 10, p14 + 11, p14 + 12, p14 + 13, p14 + 14, p14 + 15, p14 + 16, p14 + 17, p14 + 18, p14 + 19, p14 + 20, p14 + 21, p14 + 22, p14 + 23, p14 + 24, p14 + 25, p14 + 26, p14 + 27, p14 + 28, p14 + 29, p14 + 30, p14 + 31, p14 + 32, p14 + 33, p14 + 34, p14 + 35, p14 + 36, p14 + 37, p14 + 38, p14 + 39, 10};
Line(15) = {10, 8};
Curve Loop(1) = {-1, 4, 3, -2};
Plane Surface(1) = {1};
Curve Loop(2) = {-5, 1, 7, -6};
Plane Surface(2) = {2};
Curve Loop(3) = {-2, 7, 9, -8, -10};
Plane Surface(3) = {3};
Curve Loop(4) = {-11, 3, 8, -12};
Plane Surface(4) = {4};
Curve Loop(5) = {-4, 5, 13, -11, -14};
Plane Surface(5) = {5};
Curve Loop(6) = {-6, 13, 12, -9};
Plane Surface(6) = {6};
Curve Loop(7) = {-10, -15, 14, 15};
Surface(7) = {7};
Surface Loop(1) = {1, 2, 3, 4, 5, 6, 7};
Volume(1) = {1};
Physical Surface("INFLOW") = {1};
Physical Surface("OUTFLOW") = {6};
Physical Surface("OBSTACLE") = {7};
Physical Surface("WALL_Y") = {2, 4};
Physical Surface("WALL_Z") = {3, 5};
Physical Volume("FLUID") = {1};
