cl__1 = 0.474015;
cl__2 = 3.93674;
cl__3 = 0.325053;
cl__4 = 0.099312;
cl__5 = 0.09211;
Point(1) = {0.0847, -4.07158, 1, cl__1};
Point(2) = {0.0847, -4.07158, 0, cl__1};
Point(3) = {0.0847, 5.873853, 1, cl__2};
Point(4) = {0.0847, 5.873853, 0, cl__2};
Point(5) = {39.052076, -4.07158, 0, cl__3};
Point(6) = {39.052076, -4.07158, 1, cl__3};
Point(7) = {39.052076, 5.873853, 1, cl__2};
Point(8) = {6.415116, -1.977836, 1, cl__4};
Point(9) = {3.391816, -0.6496730000000002, 1, cl__5};
Point(10) = {39.052076, 5.873853, 0, cl__2};
Point(11) = {6.415116, -1.977836, 0, cl__4};
Point(12) = {3.391816, -0.6496730000000002, 0, cl__5};
Line(1) = {2, 1};
Line(2) = {1, 3};
Line(3) = {4, 3};
Line(4) = {2, 4};
Line(5) = {2, 5};
Line(6) = {5, 6};
Line(7) = {1, 6};
Line(8) = {3, 7};
Line(9) = {6, 7};
p10 = newp;
Point(p10 + 1) = {6.402888995565206, -1.822477178341386, 1};
Point(p10 + 2) = {6.366509051689109, -1.670943806478375, 1};
Point(p10 + 3) = {6.306871963328049, -1.526967138936662, 1};
Point(p10 + 4) = {6.225446193521625, -1.39409235910229, 1};
Point(p10 + 5) = {6.124236714959109, -1.275591285040891, 1};
Point(p10 + 6) = {6.005735640897711, -1.174381806478375, 1};
Point(p10 + 7) = {5.872860861063338, -1.092956036671951, 1};
Point(p10 + 8) = {5.728884193521626, -1.033318948310892, 1};
Point(p10 + 9) = {5.577350821658615, -0.9969390044347943, 1};
Point(p10 + 10) = {5.421992, -0.9847119999999999, 1};
Point(p10 + 11) = {5.266633178341386, -0.9969390044347944, 1};
Point(p10 + 12) = {5.115099806478375, -1.033318948310892, 1};
Point(p10 + 13) = {4.971123138936663, -1.092956036671951, 1};
Point(p10 + 14) = {4.83824835910229, -1.174381806478375, 1};
Point(p10 + 15) = {4.719747285040891, -1.275591285040891, 1};
Point(p10 + 16) = {4.618537806478376, -1.39409235910229, 1};
Point(p10 + 17) = {4.537112036671952, -1.526967138936662, 1};
Point(p10 + 18) = {4.477474948310892, -1.670943806478375, 1};
Point(p10 + 19) = {4.441095004434795, -1.822477178341386, 1};
Point(p10 + 20) = {4.428868, -1.977836, 1};
Point(p10 + 21) = {4.441095004434795, -2.133194821658614, 1};
Point(p10 + 22) = {4.477474948310892, -2.284728193521626, 1};
Point(p10 + 23) = {4.537112036671951, -2.428704861063337, 1};
Point(p10 + 24) = {4.618537806478375, -2.56157964089771, 1};
Point(p10 + 25) = {4.719747285040891, -2.680080714959109, 1};
Point(p10 + 26) = {4.83824835910229, -2.781290193521625, 1};
Point(p10 + 27) = {4.971123138936663, -2.862715963328049, 1};
Point(p10 + 28) = {5.115099806478375, -2.922353051689108, 1};
Point(p10 + 29) = {5.266633178341386, -2.958732995565205, 1};
Point(p10 + 30) = {5.421992, -2.97096, 1};
Point(p10 + 31) = {5.577350821658614, -2.958732995565206, 1};
Point(p10 + 32) = {5.728884193521625, -2.922353051689108, 1};
Point(p10 + 33) = {5.872860861063338, -2.862715963328049, 1};
Point(p10 + 34) = {6.005735640897711, -2.781290193521625, 1};
Point(p10 + 35) = {6.124236714959109, -2.680080714959109, 1};
Point(p10 + 36) = {6.225446193521625, -2.56157964089771, 1};
Point(p10 + 37) = {6.306871963328049, -2.428704861063338, 1};
Point(p10 + 38) = {6.366509051689109, -2.284728193521625, 1};
Point(p10 + 39) = {6.402888995565206, -2.133194821658615, 1};
Spline(10) = {8, p10 + 1, p10 + 2, p10 + 3, p10 + 4, p10 + 5, p10 + 6, p10 + 7, p10 + 8, p10 + 9, p10 + 10, p10 + 11, p10 + 12, p10 + 13, p10 + 14, p10 + 15, p10 + 16, p10 + 17, p10 + 18, p10 + 19, p10 + 20, p10 + 21, p10 + 22, p10 + 23, p10 + 24, p10 + 25, p10 + 26, p10 + 27, p10 + 28, p10 + 29, p10 + 30, p10 + 31, p10 + 32, p10 + 33, p10 + 34, p10 + 35, p10 + 36, p10 + 37, p10 + 38, p10 + 39, 8};
p11 = newp;
Point(p11 + 1) = {3.380475705898863, -0.5055809013825132, 1};
Point(p11 + 2) = {3.346734059272499, -0.3650368284472472, 1};
Point(p11 + 3) = {3.291421891442954, -0.231501442708904, 1};
Point(p11 + 4) = {3.215901171552753, -0.1082628285428984, 1};
Point(p11 + 5) = {3.122031470364491, 0.001644470364491224, 1};
Point(p11 + 6) = {3.012124171457102, 0.09551417155275288, 1};
Point(p11 + 7) = {2.888885557291096, 0.171034891442954, 1};
Point(p11 + 8) = {2.755350171552753, 0.2263470592724985, 1};
Point(p11 + 9) = {2.614806098617487, 0.2600887058988626, 1};
Point(p11 + 10) = {2.470714, 0.271429, 1};
Point(p11 + 11) = {2.326621901382513, 0.2600887058988626, 1};
Point(p11 + 12) = {2.186077828447247, 0.2263470592724987, 1};
Point(p11 + 13) = {2.052542442708904, 0.171034891442954, 1};
Point(p11 + 14) = {1.929303828542899, 0.09551417155275288, 1};
Point(p11 + 15) = {1.819396529635509, 0.001644470364491335, 1};
Point(p11 + 16) = {1.725526828447247, -0.1082628285428983, 1};
Point(p11 + 17) = {1.650006108557046, -0.2315014427089039, 1};
Point(p11 + 18) = {1.594693940727502, -0.3650368284472471, 1};
Point(p11 + 19) = {1.560952294101138, -0.5055809013825131, 1};
Point(p11 + 20) = {1.549612, -0.6496729999999998, 1};
Point(p11 + 21) = {1.560952294101138, -0.7937650986174866, 1};
Point(p11 + 22) = {1.594693940727502, -0.9343091715527531, 1};
Point(p11 + 23) = {1.650006108557046, -1.067844557291096, 1};
Point(p11 + 24) = {1.725526828447247, -1.191083171457101, 1};
Point(p11 + 25) = {1.819396529635509, -1.300990470364491, 1};
Point(p11 + 26) = {1.929303828542898, -1.394860171552753, 1};
Point(p11 + 27) = {2.052542442708904, -1.470380891442954, 1};
Point(p11 + 28) = {2.186077828447247, -1.525693059272498, 1};
Point(p11 + 29) = {2.326621901382513, -1.559434705898862, 1};
Point(p11 + 30) = {2.470714, -1.570775, 1};
Point(p11 + 31) = {2.614806098617487, -1.559434705898862, 1};
Point(p11 + 32) = {2.755350171552753, -1.525693059272498, 1};
Point(p11 + 33) = {2.888885557291096, -1.470380891442954, 1};
Point(p11 + 34) = {3.012124171457101, -1.394860171552753, 1};
Point(p11 + 35) = {3.122031470364491, -1.300990470364491, 1};
Point(p11 + 36) = {3.215901171552753, -1.191083171457102, 1};
Point(p11 + 37) = {3.291421891442954, -1.067844557291096, 1};
Point(p11 + 38) = {3.346734059272499, -0.9343091715527529, 1};
Point(p11 + 39) = {3.380475705898863, -0.7937650986174869, 1};
Spline(11) = {9, p11 + 1, p11 + 2, p11 + 3, p11 + 4, p11 + 5, p11 + 6, p11 + 7, p11 + 8, p11 + 9, p11 + 10, p11 + 11, p11 + 12, p11 + 13, p11 + 14, p11 + 15, p11 + 16, p11 + 17, p11 + 18, p11 + 19, p11 + 20, p11 + 21, p11 + 22, p11 + 23, p11 + 24, p11 + 25, p11 + 26, p11 + 27, p11 + 28, p11 + 29, p11 + 30, p11 + 31, p11 + 32, p11 + 33, p11 + 34, p11 + 35, p11 + 36, p11 + 37, p11 + 38, p11 + 39, 9};
Line(12) = {4, 10};
Line(13) = {10, 7};
Line(14) = {5, 10};
p15 = newp;
Point(p15 + 1) = {6.402888995565206, -1.822477178341386, 0};
Point(p15 + 2) = {6.366509051689109, -1.670943806478375, 0};
Point(p15 + 3) = {6.306871963328049, -1.526967138936662, 0};
Point(p15 + 4) = {6.225446193521625, -1.39409235910229, 0};
Point(p15 + 5) = {6.124236714959109, -1.275591285040891, 0};
Point(p15 + 6) = {6.005735640897711, -1.174381806478375, 0};
Point(p15 + 7) = {5.872860861063338, -1.092956036671951, 0};
Point(p15 + 8) = {5.728884193521626, -1.033318948310892, 0};
Point(p15 + 9) = {5.577350821658615, -0.9969390044347943, 0};
Point(p15 + 10) = {5.421992, -0.9847119999999999, 0};
Point(p15 + 11) = {5.266633178341386, -0.9969390044347944, 0};
Point(p15 + 12) = {5.115099806478375, -1.033318948310892, 0};
Point(p15 + 13) = {4.971123138936663, -1.092956036671951, 0};
Point(p15 + 14) = {4.83824835910229, -1.174381806478375, 0};
Point(p15 + 15) = {4.719747285040891, -1.275591285040891, 0};
Point(p15 + 16) = {4.618537806478376, -1.39409235910229, 0};
Point(p15 + 17) = {4.537112036671952, -1.526967138936662, 0};
Point(p15 + 18) = {4.477474948310892, -1.670943806478375, 0};
Point(p15 + 19) = {4.441095004434795, -1.822477178341386, 0};
Point(p15 + 20) = {4.428868, -1.977836, 0};
Point(p15 + 21) = {4.441095004434795, -2.133194821658614, 0};
Point(p15 + 22) = {4.477474948310892, -2.284728193521626, 0};
Point(p15 + 23) = {4.537112036671951, -2.428704861063337, 0};
Point(p15 + 24) = {4.618537806478375, -2.56157964089771, 0};
Point(p15 + 25) = {4.719747285040891, -2.680080714959109, 0};
Point(p15 + 26) = {4.83824835910229, -2.781290193521625, 0};
Point(p15 + 27) = {4.971123138936663, -2.862715963328049, 0};
Point(p15 + 28) = {5.115099806478375, -2.922353051689108, 0};
Point(p15 + 29) = {5.266633178341386, -2.958732995565205, 0};
Point(p15 + 30) = {5.421992, -2.97096, 0};
Point(p15 + 31) = {5.577350821658614, -2.958732995565206, 0};
Point(p15 + 32) = {5.728884193521625, -2.922353051689108, 0};
Point(p15 + 33) = {5.872860861063338, -2.862715963328049, 0};
Point(p15 + 34) = {6.005735640897711, -2.781290193521625, 0};
Point(p15 + 35) = {6.124236714959109, -2.680080714959109, 0};
Point(p15 + 36) = {6.225446193521625, -2.56157964089771, 0};
Point(p15 + 37) = {6.306871963328049, -2.428704861063338, 0};
Point(p15 + 38) = {6.366509051689109, -2.284728193521625, 0};
Point(p15 + 39) = {6.402888995565206, -2.133194821658615, 0};
Spline(15) = {11, p15 + 1, p15 + 2, p15 + 3, p15 + 4, p15 + 5, p15 + 6, p15 + 7, p15 + 8, p15 + 9, p15 + 10, p15 + 11, p15 + 12, p15 + 13, p15 + 14, p15 + 15, p15 + 16, p15 + 17, p15 + 18, p15 + 19, p15 + 20, p15 + 21, p15 + 22, p15 + 23, p15 + 24, p15 + 25, p15 + 26, p15 + 27, p15 + 28, p15 + 29, p15 + 30, p15 + 31, p15 + 32, p15 + 33, p15 + 34, p15 + 35, p15 + 36, p15 + 37, p15 + 38, p15 + 39, 11};
p16 = newp;
Point(p16 + 1) = {3.380475705898863, -0.5055809013825132, 0};
Point(p16 + 2) = {3.346734059272499, -0.3650368284472472, 0};
Point(p16 + 3) = {3.291421891442954, -0.231501442708904, 0};
Point(p16 + 4) = {3.215901171552753, -0.1082628285428984, 0};
Point(p16 + 5) = {3.122031470364491, 0.001644470364491224, 0};
Point(p16 + 6) = {3.012124171457102, 0.09551417155275288, 0};
Point(p16 + 7) = {2.888885557291096, 0.171034891442954, 0};
Point(p16 + 8) = {2.755350171552753, 0.2263470592724985, 0};
Point(p16 + 9) = {2.614806098617487, 0.2600887058988626, 0};
Point(p16 + 10) = {2.470714, 0.271429, 0};
Point(p16 + 11) = {2.326621901382513, 0.2600887058988626, 0};
Point(p16 + 12) = {2.186077828447247, 0.2263470592724987, 0};
Point(p16 + 13) = {2.052542442708904, 0.171034891442954, 0};
Point(p16 + 14) = {1.929303828542899, 0.09551417155275288, 0};
Point(p16 + 15) = {1.819396529635509, 0.001644470364491335, 0};
Point(p16 + 16) = {1.725526828447247, -0.1082628285428983, 0};
Point(p16 + 17) = {1.650006108557046, -0.2315014427089039, 0};
Point(p16 + 18) = {1.594693940727502, -0.3650368284472471, 0};
Point(p16 + 19) = {1.560952294101138, -0.5055809013825131, 0};
Point(p16 + 20) = {1.549612, -0.6496729999999998, 0};
Point(p16 + 21) = {1.560952294101138, -0.7937650986174866, 0};
Point(p16 + 22) = {1.594693940727502, -0.9343091715527531, 0};
Point(p16 + 23) = {1.650006108557046, -1.067844557291096, 0};
Point(p16 + 24) = {1.725526828447247, -1.191083171457101, 0};
Point(p16 + 25) = {1.819396529635509, -1.300990470364491, 0};
Point(p16 + 26) = {1.929303828542898, -1.394860171552753, 0};
Point(p16 + 27) = {2.052542442708904, -1.470380891442954, 0};
Point(p16 + 28) = {2.186077828447247, -1.525693059272498, 0};
Point(p16 + 29) = {2.326621901382513, -1.559434705898862, 0};
Point(p16 + 30) = {2.470714, -1.570775, 0};
Point(p16 + 31) = {2.614806098617487, -1.559434705898862, 0};
Point(p16 + 32) = {2.755350171552753, -1.525693059272498, 0};
Point(p16 + 33) = {2.888885557291096, -1.470380891442954, 0};
Point(p16 + 34) = {3.012124171457101, -1.394860171552753, 0};
Point(p16 + 35) = {3.122031470364491, -1.300990470364491, 0};
Point(p16 + 36) = {3.215901171552753, -1.191083171457102, 0};
Point(p16 + 37) = {3.291421891442954, -1.067844557291096, 0};
Point(p16 + 38) = {3.346734059272499, -0.9343091715527529, 0};
Point(p16 + 39) = {3.380475705898863, -0.7937650986174869, 0};
Spline(16) = {12, p16 + 1, p16 + 2, p16 + 3, p16 + 4, p16 + 5, p16 + 6, p16 + 7, p16 + 8, p16 + 9, p16 + 10, p16 + 11, p16 + 12, p16 + 13, p16 + 14, p16 + 15, p16 + 16, p16 + 17, p16 + 18, p16 + 19, p16 + 20, p16 + 21, p16 + 22, p16 + 23, p16 + 24, p16 + 25, p16 + 26, p16 + 27, p16 + 28, p16 + 29, p16 + 30, p16 + 31, p16 + 32, p16 + 33, p16 + 34, p16 + 35, p16 + 36, p16 + 37, p16 + 38, p16 + 39, 12};
Line(17) = {11, 8};
Line(18) = {12, 9};
Curve Loop(1) = {-1, 4, 3, -2};
Plane Surface(1) = {1};
Curve Loop(2) = {-5, 1, 7, -6};
Plane Surface(2) = {2};
Curve Loop(3) = {-2, 7, 9, -8, -10, -11};
Plane Surface(3) = {3};
Curve Loop(4) = {-12, 3, 8, -13};
Plane Surface(4) = {4};
Curve Loop(5) = {-4, 5, 14, -12, -15, -16};
Plane Surface(5) = {5};
Curve Loop(6) = {-6, 14, 13, -9};
Plane Surface(6) = {6};
Curve Loop(7) = {-10, -17, 15, 17};
Surface(7) = {7};
Curve Loop(8) = {-11, -18, 16, 18};
Surface(8) = {8};
Surface Loop(1) = {1, 2, 3, 4, 5, 6, 7, 8};
Volume(1) = {1};
Physical Surface("INFLOW") = {1};
Physical Surface("OUTFLOW") = {6};
Physical Surface("OBSTACLE") = {7, 8};
Physical Surface("WALL_Y") = {2, 4};
Physical Surface("WALL_Z") = {3, 5};
Physical Volume("FLUID") = {1};
