cl__1 = 3.04931;
cl__2 = 0.649409;
cl__3 = 0.5512;
cl__4 = 0.133203;
Point(1) = {0.417694, -4.040787, 1, cl__1};
Point(2) = {0.417694, -4.040787, 0, cl__1};
Point(3) = {0.417694, 4.271133000000001, 1, cl__1};
Point(4) = {0.417694, 4.271133000000001, 0, cl__1};
Point(5) = {30.208566, -4.040787, 0, cl__2};
Point(6) = {30.208566, -4.040787, 1, cl__2};
Point(7) = {30.208566, 4.271133000000001, 1, cl__3};
Point(8) = {25.538819, 0.9818479999999997, 1, cl__4};
Point(9) = {30.208566, 4.271133000000001, 0, cl__3};
Point(10) = {25.538819, 0.9818479999999997, 0, cl__4};
Line(1) = {2, 1};
Line(2) = {1, 3};
Line(3) = {4, 3};
Line(4) = {2, 4};
Line(5) = {2, 5};
Line(6) = {5, 6};
Line(7) = {1, 6};
Line(8) = {3, 7};
Line(9) = {6, 7};
p10 = newp;
Point(p10 + 1) = {25.52241954956958, 1.190222774729679, 1};
Point(p10 + 2) = {25.47362500717457, 1.393466670949284, 1};
Point(p10 + 3) = {25.39363685638854, 1.58657514940607, 1};
Point(p10 + 4) = {25.28442467094929, 1.764793238470134, 1};
Point(p10 + 5) = {25.14867761731679, 1.923732617316792, 1};
Point(p10 + 6) = {24.98973823847014, 2.059479670949284, 1};
Point(p10 + 7) = {24.81152014940607, 2.168691856388535, 1};
Point(p10 + 8) = {24.61841167094929, 2.248680007174568, 1};
Point(p10 + 9) = {24.41516777472968, 2.297474549569579, 1};
Point(p10 + 10) = {24.206793, 2.313874, 1};
Point(p10 + 11) = {23.99841822527032, 2.297474549569579, 1};
Point(p10 + 12) = {23.79517432905072, 2.248680007174568, 1};
Point(p10 + 13) = {23.60206585059393, 2.168691856388535, 1};
Point(p10 + 14) = {23.42384776152987, 2.059479670949284, 1};
Point(p10 + 15) = {23.26490838268321, 1.923732617316792, 1};
Point(p10 + 16) = {23.12916132905072, 1.764793238470134, 1};
Point(p10 + 17) = {23.01994914361147, 1.58657514940607, 1};
Point(p10 + 18) = {22.93996099282543, 1.393466670949284, 1};
Point(p10 + 19) = {22.89116645043042, 1.190222774729679, 1};
Point(p10 + 20) = {22.874767, 0.9818480000000002, 1};
Point(p10 + 21) = {22.89116645043042, 0.7734732252703217, 1};
Point(p10 + 22) = {22.93996099282543, 0.5702293290507159, 1};
Point(p10 + 23) = {23.01994914361147, 0.3771208505939313, 1};
Point(p10 + 24) = {23.12916132905072, 0.1989027615298664, 1};
Point(p10 + 25) = {23.26490838268321, 0.03996338268320798, 1};
Point(p10 + 26) = {23.42384776152987, -0.09578367094928342, 1};
Point(p10 + 27) = {23.60206585059393, -0.2049958563885346, 1};
Point(p10 + 28) = {23.79517432905072, -0.284984007174568, 1};
Point(p10 + 29) = {23.99841822527032, -0.3337785495695786, 1};
Point(p10 + 30) = {24.206793, -0.3501779999999999, 1};
Point(p10 + 31) = {24.41516777472968, -0.3337785495695789, 1};
Point(p10 + 32) = {24.61841167094929, -0.2849840071745682, 1};
Point(p10 + 33) = {24.81152014940607, -0.2049958563885348, 1};
Point(p10 + 34) = {24.98973823847014, -0.09578367094928386, 1};
Point(p10 + 35) = {25.14867761731679, 0.03996338268320776, 1};
Point(p10 + 36) = {25.28442467094929, 0.198902761529866, 1};
Point(p10 + 37) = {25.39363685638854, 0.3771208505939303, 1};
Point(p10 + 38) = {25.47362500717457, 0.5702293290507161, 1};
Point(p10 + 39) = {25.52241954956958, 0.7734732252703211, 1};
Spline(10) = {8, p10 + 1, p10 + 2, p10 + 3, p10 + 4, p10 + 5, p10 + 6, p10 + 7, p10 + 8, p10 + 9, p10 + 10, p10 + 11, p10 + 12, p10 + 13, p10 + 14, p10 + 15, p10 + 16, p10 + 17, p10 + 18, p10 + 19, p10 + 20, p10 + 21, p10 + 22, p10 + 23, p10 + 24, p10 + 25, p10 + 26, p10 + 27, p10 + 28, p10 + 29, p10 + 30, p10 + 31, p10 + 32, p10 + 33, p10 + 34, p10 + 35, p10 + 36, p10 + 37, p10 + 38, p10 + 39, 8};
Line(11) = {4, 9};
Line(12) = {9, 7};
Line(13) = {5, 9};
p14 = newp;
Point(p14 + 1) = {25.52241954956958, 1.190222774729679, 0};
Point(p14 + 2) = {25.47362500717457, 1.393466670949284, 0};
Point(p14 + 3) = {25.39363685638854, 1.58657514940607, 0};
Point(p14 + 4) = {25.28442467094929, 1.764793238470134, 0};
Point(p14 + 5) = {25.14867761731679, 1.923732617316792, 0};
Point(p14 + 6) = {24.98973823847014, 2.059479670949284, 0};
Point(p14 + 7) = {24.81152014940607, 2.168691856388535, 0};
Point(p14 + 8) = {24.61841167094929, 2.248680007174568, 0};
Point(p14 + 9) = {24.41516777472968, 2.297474549569579, 0};
Point(p14 + 10) = {24.206793, 2.313874, 0};
Point(p14 + 11) = {23.99841822527032, 2.297474549569579, 0};
Point(p14 + 12) = {23.79517432905072, 2.248680007174568, 0};
Point(p14 + 13) = {23.60206585059393, 2.168691856388535, 0};
Point(p14 + 14) = {23.42384776152987, 2.059479670949284, 0};
Point(p14 + 15) = {23.26490838268321, 1.923732617316792, 0};
Point(p14 + 16) = {23.12916132905072, 1.764793238470134, 0};
Point(p14 + 17) = {23.01994914361147, 1.58657514940607, 0};
Point(p14 + 18) = {22.93996099282543, 1.393466670949284, 0};
Point(p14 + 19) = {22.89116645043042, 1.190222774729679, 0};
Point(p14 + 20) = {22.874767, 0.9818480000000002, 0};
Point(p14 + 21) = {22.89116645043042, 0.7734732252703217, 0};
Point(p14 + 22) = {22.93996099282543, 0.5702293290507159, 0};
Point(p14 + 23) = {23.01994914361147, 0.3771208505939313, 0};
Point(p14 + 24) = {23.12916132905072, 0.1989027615298664, 0};
Point(p14 + 25) = {23.26490838268321, 0.03996338268320798, 0};
Point(p14 + 26) = {23.42384776152987, -0.09578367094928342, 0};
Point(p14 + 27) = {23.60206585059393, -0.2049958563885346, 0};
Point(p14 + 28) = {23.79517432905072, -0.284984007174568, 0};
Point(p14 + 29) = {23.99841822527032, -0.3337785495695786, 0};
Point(p14 + 30) = {24.206793, -0.3501779999999999, 0};
Point(p14 + 31) = {24.41516777472968, -0.3337785495695789, 0};
Point(p14 + 32) = {24.61841167094929, -0.2849840071745682, 0};
Point(p14 + 33) = {24.81152014940607, -0.2049958563885348, 0};
Point(p14 + 34) = {24.98973823847014, -0.09578367094928386, 0};
Point(p14 + 35) = {25.14867761731679, 0.03996338268320776, 0};
Point(p14 + 36) = {25.28442467094929, 0.198902761529866, 0};
Point(p14 + 37) = {25.39363685638854, 0.3771208505939303, 0};
Point(p14 + 38) = {25.47362500717457, 0.5702293290507161, 0};
Point(p14 + 39) = {25.52241954956958, 0.7734732252703211, 0};
Spline(14) = {10, p14 + 1, p14 + 2, p14 + 3, p14 + 4, p14 + 5, p14 + 6, p14 + 7, p14 + 8, p14 + 9, p14 + 10, p14 + 11, p14 + 12, p14 + 13, p14 + 14, p14 + 15, p14 + 16, p14 + 17, p14 + 18, p14 + 19, p14 + 20, p14 + 21, p14 + 22, p14 + 23, p14 + 24, p14 + 25, p14 + 26, p14 + 27, p14 + 28, p14 + 29, p14 + 30, p14 + 31, p14 + 32, p14 + 33, p14 + 34, p14 + 35, p14 + 36, p14 + 37, p14 + 38, p14 + 39, 10};
Line(15) = {10, 8};
Curve Loop(1) = {-1, 4, 3, -2};
Plane Surface(1) = {1};
Curve Loop(2) = {-5, 1, 7, -6};
Plane Surface(2) = {2};
Curve Loop(3) = {-2, 7, 9, -8, -10};
Plane Surface(3) = {3};
Curve Loop(4) = {-11, 3, 8, -12};
Plane Surface(4) = {4};
Curve Loop(5) = {-4, 5, 13, -11, -14};
Plane Surface(5) = {5};
Curve Loop(6) = {-6, 13, 12, -9};
Plane Surface(6) = {6};
Curve Loop(7) = {-10, -15, 14, 15};
Surface(7) = {7};
Surface Loop(1) = {1, 2, 3, 4, 5, 6, 7};
Volume(1) = {1};
Physical Surface("INFLOW") = {1};
Physical Surface("OUTFLOW") = {6};
Physical Surface("OBSTACLE") = {7};
Physical Surface("WALL_Y") = {2, 4};
Physical Surface("WALL_Z") = {3, 5};
Physical Volume("FLUID") = {1};
