cl__1 = 1.347718;
cl__2 = 1.144804;
cl__3 = 3.952876;
cl__4 = 0.098749;
cl__5 = 0.088107;
Point(1) = {0.360962, -3.511793, 1, cl__1};
Point(2) = {0.360962, -3.511793, 0, cl__1};
Point(3) = {0.360962, 4.632494, 1, cl__2};
Point(4) = {0.360962, 4.632494, 0, cl__2};
Point(5) = {39.318446, -3.511793, 0, cl__1};
Point(6) = {39.318446, -3.511793, 1, cl__1};
Point(7) = {39.318446, 4.632494, 1, cl__3};
Point(8) = {14.949829, 1.410532, 1, cl__4};
Point(9) = {29.840135, 3.173279, 1, cl__5};
Point(10) = {39.318446, 4.632494, 0, cl__3};
Point(11) = {14.949829, 1.410532, 0, cl__4};
Point(12) = {29.840135, 3.173279, 0, cl__5};
Line(1) = {2, 1};
Line(2) = {1, 3};
Line(3) = {4, 3};
Line(4) = {2, 4};
Line(5) = {2, 5};
Line(6) = {5, 6};
Line(7) = {1, 6};
Line(8) = {3, 7};
Line(9) = {6, 7};
p10 = newp;
Point(p10 + 1) = {14.93767131020766, 1.565010095620438, 1};
Point(p10 + 2) = {14.90149760350237, 1.715684427843294, 1};
Point(p10 + 3) = {14.84219859659687, 1.858844894549804, 1};
Point(p10 + 4) = {14.76123442784329, 1.990966409927303, 1};
Point(p10 + 5) = {14.66059870378103, 2.108795703781028, 1};
Point(p10 + 6) = {14.5427694099273, 2.209431427843294, 1};
Point(p10 + 7) = {14.4106478945498, 2.290395596596868, 1};
Point(p10 + 8) = {14.26748742784329, 2.349694603502366, 1};
Point(p10 + 9) = {14.11681309562044, 2.385868310207655, 1};
Point(p10 + 10) = {13.962335, 2.398026, 1};
Point(p10 + 11) = {13.80785690437956, 2.385868310207655, 1};
Point(p10 + 12) = {13.6571825721567, 2.349694603502366, 1};
Point(p10 + 13) = {13.51402210545019, 2.290395596596868, 1};
Point(p10 + 14) = {13.3819005900727, 2.209431427843294, 1};
Point(p10 + 15) = {13.26407129621897, 2.108795703781029, 1};
Point(p10 + 16) = {13.16343557215671, 1.990966409927303, 1};
Point(p10 + 17) = {13.08247140340313, 1.858844894549804, 1};
Point(p10 + 18) = {13.02317239649763, 1.715684427843294, 1};
Point(p10 + 19) = {12.98699868979234, 1.565010095620438, 1};
Point(p10 + 20) = {12.974841, 1.410532, 1};
Point(p10 + 21) = {12.98699868979234, 1.256053904379562, 1};
Point(p10 + 22) = {13.02317239649763, 1.105379572156705, 1};
Point(p10 + 23) = {13.08247140340313, 0.9622191054501964, 1};
Point(p10 + 24) = {13.16343557215671, 0.8300975900726966, 1};
Point(p10 + 25) = {13.26407129621897, 0.7122682962189714, 1};
Point(p10 + 26) = {13.3819005900727, 0.6116325721567056, 1};
Point(p10 + 27) = {13.51402210545019, 0.5306684034031318, 1};
Point(p10 + 28) = {13.6571825721567, 0.4713693964976335, 1};
Point(p10 + 29) = {13.80785690437956, 0.435195689792345, 1};
Point(p10 + 30) = {13.962335, 0.4230379999999999, 1};
Point(p10 + 31) = {14.11681309562044, 0.4351956897923449, 1};
Point(p10 + 32) = {14.26748742784329, 0.4713693964976334, 1};
Point(p10 + 33) = {14.4106478945498, 0.5306684034031317, 1};
Point(p10 + 34) = {14.5427694099273, 0.6116325721567054, 1};
Point(p10 + 35) = {14.66059870378103, 0.7122682962189711, 1};
Point(p10 + 36) = {14.76123442784329, 0.8300975900726962, 1};
Point(p10 + 37) = {14.84219859659687, 0.9622191054501957, 1};
Point(p10 + 38) = {14.90149760350237, 1.105379572156705, 1};
Point(p10 + 39) = {14.93767131020766, 1.256053904379562, 1};
Spline(10) = {8, p10 + 1, p10 + 2, p10 + 3, p10 + 4, p10 + 5, p10 + 6, p10 + 7, p10 + 8, p10 + 9, p10 + 10, p10 + 11, p10 + 12, p10 + 13, p10 + 14, p10 + 15, p10 + 16, p10 + 17, p10 + 18, p10 + 19, p10 + 20, p10 + 21, p10 + 22, p10 + 23, p10 + 24, p10 + 25, p10 + 26, p10 + 27, p10 + 28, p10 + 29, p10 + 30, p10 + 31, p10 + 32, p10 + 33, p10 + 34, p10 + 35, p10 + 36, p10 + 37, p10 + 38, p10 + 39, 8};
p11 = newp;
Point(p11 + 1) = {29.8292875539365, 3.311108870547461, 1};
Point(p11 + 2) = {29.79701231586869, 3.445544912250929, 1};
Point(p11 + 3) = {29.74410400927317, 3.573276863596022, 1};
Point(p11 + 4) = {29.67186541225093, 3.691159540022582, 1};
Point(p11 + 5) = {29.58207527880682, 3.796290278806813, 1};
Point(p11 + 6) = {29.47694454002258, 3.886080412250929, 1};
Point(p11 + 7) = {29.35906186359603, 3.958319009273169, 1};
Point(p11 + 8) = {29.23132991225093, 4.011227315868688, 1};
Point(p11 + 9) = {29.09689387054746, 4.043502553936499, 1};
Point(p11 + 10) = {28.959064, 4.05435, 1};
Point(p11 + 11) = {28.82123412945254, 4.043502553936499, 1};
Point(p11 + 12) = {28.68679808774907, 4.011227315868688, 1};
Point(p11 + 13) = {28.55906613640398, 3.958319009273169, 1};
Point(p11 + 14) = {28.44118345997742, 3.886080412250929, 1};
Point(p11 + 15) = {28.33605272119319, 3.796290278806813, 1};
Point(p11 + 16) = {28.24626258774907, 3.691159540022582, 1};
Point(p11 + 17) = {28.17402399072683, 3.573276863596022, 1};
Point(p11 + 18) = {28.12111568413131, 3.445544912250929, 1};
Point(p11 + 19) = {28.0888404460635, 3.311108870547461, 1};
Point(p11 + 20) = {28.077993, 3.173279, 1};
Point(p11 + 21) = {28.0888404460635, 3.035449129452539, 1};
Point(p11 + 22) = {28.12111568413131, 2.901013087749071, 1};
Point(p11 + 23) = {28.17402399072683, 2.773281136403978, 1};
Point(p11 + 24) = {28.24626258774907, 2.655398459977418, 1};
Point(p11 + 25) = {28.33605272119319, 2.550267721193187, 1};
Point(p11 + 26) = {28.44118345997742, 2.460477587749071, 1};
Point(p11 + 27) = {28.55906613640398, 2.388238990726831, 1};
Point(p11 + 28) = {28.68679808774907, 2.335330684131313, 1};
Point(p11 + 29) = {28.82123412945254, 2.303055446063501, 1};
Point(p11 + 30) = {28.959064, 2.292208, 1};
Point(p11 + 31) = {29.09689387054746, 2.303055446063501, 1};
Point(p11 + 32) = {29.23132991225093, 2.335330684131312, 1};
Point(p11 + 33) = {29.35906186359602, 2.388238990726831, 1};
Point(p11 + 34) = {29.47694454002258, 2.460477587749071, 1};
Point(p11 + 35) = {29.58207527880682, 2.550267721193187, 1};
Point(p11 + 36) = {29.67186541225093, 2.655398459977418, 1};
Point(p11 + 37) = {29.74410400927317, 2.773281136403978, 1};
Point(p11 + 38) = {29.79701231586869, 2.901013087749071, 1};
Point(p11 + 39) = {29.8292875539365, 3.035449129452538, 1};
Spline(11) = {9, p11 + 1, p11 + 2, p11 + 3, p11 + 4, p11 + 5, p11 + 6, p11 + 7, p11 + 8, p11 + 9, p11 + 10, p11 + 11, p11 + 12, p11 + 13, p11 + 14, p11 + 15, p11 + 16, p11 + 17, p11 + 18, p11 + 19, p11 + 20, p11 + 21, p11 + 22, p11 + 23, p11 + 24, p11 + 25, p11 + 26, p11 + 27, p11 + 28, p11 + 29, p11 + 30, p11 + 31, p11 + 32, p11 + 33, p11 + 34, p11 + 35, p11 + 36, p11 + 37, p11 + 38, p11 + 39, 9};
Line(12) = {4, 10};
Line(13) = {10, 7};
Line(14) = {5, 10};
p15 = newp;
Point(p15 + 1) = {14.93767131020766, 1.565010095620438, 0};
Point(p15 + 2) = {14.90149760350237, 1.715684427843294, 0};
Point(p15 + 3) = {14.84219859659687, 1.858844894549804, 0};
Point(p15 + 4) = {14.76123442784329, 1.990966409927303, 0};
Point(p15 + 5) = {14.66059870378103, 2.108795703781028, 0};
Point(p15 + 6) = {14.5427694099273, 2.209431427843294, 0};
Point(p15 + 7) = {14.4106478945498, 2.290395596596868, 0};
Point(p15 + 8) = {14.26748742784329, 2.349694603502366, 0};
Point(p15 + 9) = {14.11681309562044, 2.385868310207655, 0};
Point(p15 + 10) = {13.962335, 2.398026, 0};
Point(p15 + 11) = {13.80785690437956, 2.385868310207655, 0};
Point(p15 + 12) = {13.6571825721567, 2.349694603502366, 0};
Point(p15 + 13) = {13.51402210545019, 2.290395596596868, 0};
Point(p15 + 14) = {13.3819005900727, 2.209431427843294, 0};
Point(p15 + 15) = {13.26407129621897, 2.108795703781029, 0};
Point(p15 + 16) = {13.16343557215671, 1.990966409927303, 0};
Point(p15 + 17) = {13.08247140340313, 1.858844894549804, 0};
Point(p15 + 18) = {13.02317239649763, 1.715684427843294, 0};
Point(p15 + 19) = {12.98699868979234, 1.565010095620438, 0};
Point(p15 + 20) = {12.974841, 1.410532, 0};
Point(p15 + 21) = {12.98699868979234, 1.256053904379562, 0};
Point(p15 + 22) = {13.02317239649763, 1.105379572156705, 0};
Point(p15 + 23) = {13.08247140340313, 0.9622191054501964, 0};
Point(p15 + 24) = {13.16343557215671, 0.8300975900726966, 0};
Point(p15 + 25) = {13.26407129621897, 0.7122682962189714, 0};
Point(p15 + 26) = {13.3819005900727, 0.6116325721567056, 0};
Point(p15 + 27) = {13.51402210545019, 0.5306684034031318, 0};
Point(p15 + 28) = {13.6571825721567, 0.4713693964976335, 0};
Point(p15 + 29) = {13.80785690437956, 0.435195689792345, 0};
Point(p15 + 30) = {13.962335, 0.4230379999999999, 0};
Point(p15 + 31) = {14.11681309562044, 0.4351956897923449, 0};
Point(p15 + 32) = {14.26748742784329, 0.4713693964976334, 0};
Point(p15 + 33) = {14.4106478945498, 0.5306684034031317, 0};
Point(p15 + 34) = {14.5427694099273, 0.6116325721567054, 0};
Point(p15 + 35) = {14.66059870378103, 0.7122682962189711, 0};
Point(p15 + 36) = {14.76123442784329, 0.8300975900726962, 0};
Point(p15 + 37) = {14.84219859659687, 0.9622191054501957, 0};
Point(p15 + 38) = {14.90149760350237, 1.105379572156705, 0};
Point(p15 + 39) = {14.93767131020766, 1.256053904379562, 0};
Spline(15) = {11, p15 + 1, p15 + 2, p15 + 3, p15 + 4, p15 + 5, p15 + 6, p15 + 7, p15 + 8, p15 + 9, p15 + 10, p15 + 11, p15 + 12, p15 + 13, p15 + 14, p15 + 15, p15 + 16, p15 + 17, p15 + 18, p15 + 19, p15 + 20, p15 + 21, p15 + 22, p15 + 23, p15 + 24, p15 + 25, p15 + 26, p15 + 27, p15 + 28, p15 + 29, p15 + 30, p15 + 31, p15 + 32, p15 + 33, p15 + 34, p15 + 35, p15 + 36, p15 + 37, p15 + 38, p15 + 39, 11};
p16 = newp;
Point(p16 + 1) = {29.8292875539365, 3.311108870547461, 0};
Point(p16 + 2) = {29.79701231586869, 3.445544912250929, 0};
Point(p16 + 3) = {29.74410400927317, 3.573276863596022, 0};
Point(p16 + 4) = {29.67186541225093, 3.691159540022582, 0};
Point(p16 + 5) = {29.58207527880682, 3.796290278806813, 0};
Point(p16 + 6) = {29.47694454002258, 3.886080412250929, 0};
Point(p16 + 7) = {29.35906186359603, 3.958319009273169, 0};
Point(p16 + 8) = {29.23132991225093, 4.011227315868688, 0};
Point(p16 + 9) = {29.09689387054746, 4.043502553936499, 0};
Point(p16 + 10) = {28.959064, 4.05435, 0};
Point(p16 + 11) = {28.82123412945254, 4.043502553936499, 0};
Point(p16 + 12) = {28.68679808774907, 4.011227315868688, 0};
Point(p16 + 13) = {28.55906613640398, 3.958319009273169, 0};
Point(p16 + 14) = {28.44118345997742, 3.886080412250929, 0};
Point(p16 + 15) = {28.33605272119319, 3.796290278806813, 0};
Point(p16 + 16) = {28.24626258774907, 3.691159540022582, 0};
Point(p16 + 17) = {28.17402399072683, 3.573276863596022, 0};
Point(p16 + 18) = {28.12111568413131, 3.445544912250929, 0};
Point(p16 + 19) = {28.0888404460635, 3.311108870547461, 0};
Point(p16 + 20) = {28.077993, 3.173279, 0};
Point(p16 + 21) = {28.0888404460635, 3.035449129452539, 0};
Point(p16 + 22) = {28.12111568413131, 2.901013087749071, 0};
Point(p16 + 23) = {28.17402399072683, 2.773281136403978, 0};
Point(p16 + 24) = {28.24626258774907, 2.655398459977418, 0};
Point(p16 + 25) = {28.33605272119319, 2.550267721193187, 0};
Point(p16 + 26) = {28.44118345997742, 2.460477587749071, 0};
Point(p16 + 27) = {28.55906613640398, 2.388238990726831, 0};
Point(p16 + 28) = {28.68679808774907, 2.335330684131313, 0};
Point(p16 + 29) = {28.82123412945254, 2.303055446063501, 0};
Point(p16 + 30) = {28.959064, 2.292208, 0};
Point(p16 + 31) = {29.09689387054746, 2.303055446063501, 0};
Point(p16 + 32) = {29.23132991225093, 2.335330684131312, 0};
Point(p16 + 33) = {29.35906186359602, 2.388238990726831, 0};
Point(p16 + 34) = {29.47694454002258, 2.460477587749071, 0};
Point(p16 + 35) = {29.58207527880682, 2.550267721193187, 0};
Point(p16 + 36) = {29.67186541225093, 2.655398459977418, 0};
Point(p16 + 37) = {29.74410400927317, 2.773281136403978, 0};
Point(p16 + 38) = {29.79701231586869, 2.901013087749071, 0};
Point(p16 + 39) = {29.8292875539365, 3.035449129452538, 0};
Spline(16) = {12, p16 + 1, p16 + 2, p16 + 3, p16 + 4, p16 + 5, p16 + 6, p16 + 7, p16 + 8, p16 + 9, p16 + 10, p16 + 11, p16 + 12, p16 + 13, p16 + 14, p16 + 15, p16 + 16, p16 + 17, p16 + 18, p16 + 19, p16 + 20, p16 + 21, p16 + 22, p16 + 23, p16 + 24, p16 + 25, p16 + 26, p16 + 27, p16 + 28, p16 + 29, p16 + 30, p16 + 31, p16 + 32, p16 + 33, p16 + 34, p16 + 35, p16 + 36, p16 + 37, p16 + 38, p16 + 39, 12};
Line(17) = {11, 8};
Line(18) = {12, 9};
Curve Loop(1) = {-1, 4, 3, -2};
Plane Surface(1) = {1};
Curve Loop(2) = {-5, 1, 7, -6};
Plane Surface(2) = {2};
Curve Loop(3) = {-2, 7, 9, -8, -10, -11};
Plane Surface(3) = {3};
Curve Loop(4) = {-12, 3, 8, -13};
Plane Surface(4) = {4};
Curve Loop(5) = {-4, 5, 14, -12, -15, -16};
Plane Surface(5) = {5};
Curve Loop(6) = {-6, 14, 13, -9};
Plane Surface(6) = {6};
Curve Loop(7) = {-10, -17, 15, 17};
Surface(7) = {7};
Curve Loop(8) = {-11, -18, 16, 18};
Surface(8) = {8};
Surface Loop(1) = {1, 2, 3, 4, 5, 6, 7, 8};
Volume(1) = {1};
Physical Surface("INFLOW") = {1};
Physical Surface("OUTFLOW") = {6};
Physical Surface("OBSTACLE") = {7, 8};
Physical Surface("WALL_Y") = {2, 4};
Physical Surface("WALL_Z") = {3, 5};
Physical Volume("FLUID") = {1};
