cl__1 = 3.056393;
cl__2 = 1.060346;
cl__3 = 1.064622;
cl__4 = 0.072044;
Point(1) = {0.086939, -3.601376, 1, cl__1};
Point(2) = {0.086939, -3.601376, 0, cl__1};
Point(3) = {0.086939, 4.445219, 1, cl__1};
Point(4) = {0.086939, 4.445219, 0, cl__1};
Point(5) = {30.297972, -3.601376, 0, cl__2};
Point(6) = {30.297972, -3.601376, 1, cl__2};
Point(7) = {30.297972, 4.445219, 1, cl__3};
Point(8) = {20.410622, 0.3616259999999998, 1, cl__4};
Point(9) = {30.297972, 4.445219, 0, cl__3};
Point(10) = {20.410622, 0.3616259999999998, 0, cl__4};
Line(1) = {2, 1};
Line(2) = {1, 3};
Line(3) = {4, 3};
Line(4) = {2, 4};
Line(5) = {2, 5};
Line(6) = {5, 6};
Line(7) = {1, 6};
Line(8) = {3, 7};
Line(9) = {6, 7};
p10 = newp;
Point(p10 + 1) = {20.4017521757867, 0.474327802428049, 1};
Point(p10 + 2) = {20.3753611076562, 0.5842545124444815, 1};
Point(p10 + 3) = {20.33209863129279, 0.6886993696228588, 1};
Point(p10 + 4) = {20.27303001244448, 0.7850905949468416, 1};
Point(p10 + 5) = {20.19960971654482, 0.8710547165448175, 1};
Point(p10 + 6) = {20.11364559494684, 0.9444750124444815, 1};
Point(p10 + 7) = {20.01725436962286, 1.003543631292792, 1};
Point(p10 + 8) = {19.91280951244448, 1.046806107656197, 1};
Point(p10 + 9) = {19.80288280242805, 1.073197175786702, 1};
Point(p10 + 10) = {19.690181, 1.082067, 1};
Point(p10 + 11) = {19.57747919757195, 1.073197175786702, 1};
Point(p10 + 12) = {19.46755248755552, 1.046806107656197, 1};
Point(p10 + 13) = {19.36310763037714, 1.003543631292792, 1};
Point(p10 + 14) = {19.26671640505316, 0.9444750124444815, 1};
Point(p10 + 15) = {19.18075228345518, 0.8710547165448175, 1};
Point(p10 + 16) = {19.10733198755552, 0.7850905949468417, 1};
Point(p10 + 17) = {19.04826336870721, 0.6886993696228589, 1};
Point(p10 + 18) = {19.0050008923438, 0.5842545124444816, 1};
Point(p10 + 19) = {18.9786098242133, 0.4743278024280491, 1};
Point(p10 + 20) = {18.96974, 0.3616260000000001, 1};
Point(p10 + 21) = {18.9786098242133, 0.2489241975719511, 1};
Point(p10 + 22) = {19.0050008923438, 0.1389974875555183, 1};
Point(p10 + 23) = {19.04826336870721, 0.03455263037714157, 1};
Point(p10 + 24) = {19.10733198755552, -0.06183859494684157, 1};
Point(p10 + 25) = {19.18075228345518, -0.1478027165448175, 1};
Point(p10 + 26) = {19.26671640505316, -0.2212230124444814, 1};
Point(p10 + 27) = {19.36310763037714, -0.2802916312927919, 1};
Point(p10 + 28) = {19.46755248755552, -0.3235541076561967, 1};
Point(p10 + 29) = {19.57747919757195, -0.3499451757867016, 1};
Point(p10 + 30) = {19.690181, -0.358815, 1};
Point(p10 + 31) = {19.80288280242805, -0.3499451757867017, 1};
Point(p10 + 32) = {19.91280951244448, -0.3235541076561967, 1};
Point(p10 + 33) = {20.01725436962286, -0.280291631292792, 1};
Point(p10 + 34) = {20.11364559494684, -0.2212230124444816, 1};
Point(p10 + 35) = {20.19960971654482, -0.1478027165448176, 1};
Point(p10 + 36) = {20.27303001244448, -0.0618385949468418, 1};
Point(p10 + 37) = {20.33209863129279, 0.03455263037714107, 1};
Point(p10 + 38) = {20.3753611076562, 0.1389974875555184, 1};
Point(p10 + 39) = {20.4017521757867, 0.2489241975719509, 1};
Spline(10) = {8, p10 + 1, p10 + 2, p10 + 3, p10 + 4, p10 + 5, p10 + 6, p10 + 7, p10 + 8, p10 + 9, p10 + 10, p10 + 11, p10 + 12, p10 + 13, p10 + 14, p10 + 15, p10 + 16, p10 + 17, p10 + 18, p10 + 19, p10 + 20, p10 + 21, p10 + 22, p10 + 23, p10 + 24, p10 + 25, p10 + 26, p10 + 27, p10 + 28, p10 + 29, p10 + 30, p10 + 31, p10 + 32, p10 + 33, p10 + 34, p10 + 35, p10 + 36, p10 + 37, p10 + 38, p10 + 39, 8};
Line(11) = {4, 9};
Line(12) = {9, 7};
Line(13) = {5, 9};
p14 = newp;
Point(p14 + 1) = {20.4017521757867, 0.474327802428049, 0};
Point(p14 + 2) = {20.3753611076562, 0.5842545124444815, 0};
Point(p14 + 3) = {20.33209863129279, 0.6886993696228588, 0};
Point(p14 + 4) = {20.27303001244448, 0.7850905949468416, 0};
Point(p14 + 5) = {20.19960971654482, 0.8710547165448175, 0};
Point(p14 + 6) = {20.11364559494684, 0.9444750124444815, 0};
Point(p14 + 7) = {20.01725436962286, 1.003543631292792, 0};
Point(p14 + 8) = {19.91280951244448, 1.046806107656197, 0};
Point(p14 + 9) = {19.80288280242805, 1.073197175786702, 0};
Point(p14 + 10) = {19.690181, 1.082067, 0};
Point(p14 + 11) = {19.57747919757195, 1.073197175786702, 0};
Point(p14 + 12) = {19.46755248755552, 1.046806107656197, 0};
Point(p14 + 13) = {19.36310763037714, 1.003543631292792, 0};
Point(p14 + 14) = {19.26671640505316, 0.9444750124444815, 0};
Point(p14 + 15) = {19.18075228345518, 0.8710547165448175, 0};
Point(p14 + 16) = {19.10733198755552, 0.7850905949468417, 0};
Point(p14 + 17) = {19.04826336870721, 0.6886993696228589, 0};
Point(p14 + 18) = {19.0050008923438, 0.5842545124444816, 0};
Point(p14 + 19) = {18.9786098242133, 0.4743278024280491, 0};
Point(p14 + 20) = {18.96974, 0.3616260000000001, 0};
Point(p14 + 21) = {18.9786098242133, 0.2489241975719511, 0};
Point(p14 + 22) = {19.0050008923438, 0.1389974875555183, 0};
Point(p14 + 23) = {19.04826336870721, 0.03455263037714157, 0};
Point(p14 + 24) = {19.10733198755552, -0.06183859494684157, 0};
Point(p14 + 25) = {19.18075228345518, -0.1478027165448175, 0};
Point(p14 + 26) = {19.26671640505316, -0.2212230124444814, 0};
Point(p14 + 27) = {19.36310763037714, -0.2802916312927919, 0};
Point(p14 + 28) = {19.46755248755552, -0.3235541076561967, 0};
Point(p14 + 29) = {19.57747919757195, -0.3499451757867016, 0};
Point(p14 + 30) = {19.690181, -0.358815, 0};
Point(p14 + 31) = {19.80288280242805, -0.3499451757867017, 0};
Point(p14 + 32) = {19.91280951244448, -0.3235541076561967, 0};
Point(p14 + 33) = {20.01725436962286, -0.280291631292792, 0};
Point(p14 + 34) = {20.11364559494684, -0.2212230124444816, 0};
Point(p14 + 35) = {20.19960971654482, -0.1478027165448176, 0};
Point(p14 + 36) = {20.27303001244448, -0.0618385949468418, 0};
Point(p14 + 37) = {20.33209863129279, 0.03455263037714107, 0};
Point(p14 + 38) = {20.3753611076562, 0.1389974875555184, 0};
Point(p14 + 39) = {20.4017521757867, 0.2489241975719509, 0};
Spline(14) = {10, p14 + 1, p14 + 2, p14 + 3, p14 + 4, p14 + 5, p14 + 6, p14 + 7, p14 + 8, p14 + 9, p14 + 10, p14 + 11, p14 + 12, p14 + 13, p14 + 14, p14 + 15, p14 + 16, p14 + 17, p14 + 18, p14 + 19, p14 + 20, p14 + 21, p14 + 22, p14 + 23, p14 + 24, p14 + 25, p14 + 26, p14 + 27, p14 + 28, p14 + 29, p14 + 30, p14 + 31, p14 + 32, p14 + 33, p14 + 34, p14 + 35, p14 + 36, p14 + 37, p14 + 38, p14 + 39, 10};
Line(15) = {10, 8};
Curve Loop(1) = {-1, 4, 3, -2};
Plane Surface(1) = {1};
Curve Loop(2) = {-5, 1, 7, -6};
Plane Surface(2) = {2};
Curve Loop(3) = {-2, 7, 9, -8, -10};
Plane Surface(3) = {3};
Curve Loop(4) = {-11, 3, 8, -12};
Plane Surface(4) = {4};
Curve Loop(5) = {-4, 5, 13, -11, -14};
Plane Surface(5) = {5};
Curve Loop(6) = {-6, 13, 12, -9};
Plane Surface(6) = {6};
Curve Loop(7) = {-10, -15, 14, 15};
Surface(7) = {7};
Surface Loop(1) = {1, 2, 3, 4, 5, 6, 7};
Volume(1) = {1};
Physical Surface("INFLOW") = {1};
Physical Surface("OUTFLOW") = {6};
Physical Surface("OBSTACLE") = {7};
Physical Surface("WALL_Y") = {2, 4};
Physical Surface("WALL_Z") = {3, 5};
Physical Volume("FLUID") = {1};
