cl__1 = 0.633116;
cl__2 = 0.46578;
cl__3 = 3.367679;
cl__4 = 0.09673900000000001;
cl__5 = 0.052697;
Point(1) = {0.435836, -4.569903, 1, cl__1};
Point(2) = {0.435836, -4.569903, 0, cl__1};
Point(3) = {0.435836, 4.627952000000001, 1, cl__2};
Point(4) = {0.435836, 4.627952000000001, 0, cl__2};
Point(5) = {33.361295, -4.569903, 0, cl__3};
Point(6) = {33.361295, -4.569903, 1, cl__3};
Point(7) = {33.361295, 4.627952000000001, 1, cl__3};
Point(8) = {14.455918, -3.08087, 1, cl__4};
Point(9) = {4.784795, 1.124502, 1, cl__5};
Point(10) = {33.361295, 4.627952000000001, 0, cl__3};
Point(11) = {14.455918, -3.08087, 0, cl__4};
Point(12) = {4.784795, 1.124502, 0, cl__5};
Line(1) = {2, 1};
Line(2) = {1, 3};
Line(3) = {4, 3};
Line(4) = {2, 4};
Line(5) = {2, 5};
Line(6) = {5, 6};
Line(7) = {1, 6};
Line(8) = {3, 7};
Line(9) = {6, 7};
p10 = newp;
Point(p10 + 1) = {14.44400782380833, -2.929536862864731, 1};
Point(p10 + 2) = {14.40857056329877, -2.78193004981162, 1};
Point(p10 + 3) = {14.35047880143459, -2.64168413045696, 1};
Point(p10 + 4) = {14.27116295018838, -2.512252424784784, 1};
Point(p10 + 5) = {14.17257602905205, -2.396821970947946, 1};
Point(p10 + 6) = {14.05714557521522, -2.29823504981162, 1};
Point(p10 + 7) = {13.92771386954304, -2.218919198565415, 1};
Point(p10 + 8) = {13.78746795018838, -2.160827436701231, 1};
Point(p10 + 9) = {13.63986113713527, -2.12539017619167, 1};
Point(p10 + 10) = {13.488528, -2.11348, 1};
Point(p10 + 11) = {13.33719486286473, -2.12539017619167, 1};
Point(p10 + 12) = {13.18958804981162, -2.160827436701231, 1};
Point(p10 + 13) = {13.04934213045696, -2.218919198565415, 1};
Point(p10 + 14) = {12.91991042478478, -2.29823504981162, 1};
Point(p10 + 15) = {12.80447997094795, -2.396821970947946, 1};
Point(p10 + 16) = {12.70589304981162, -2.512252424784784, 1};
Point(p10 + 17) = {12.62657719856542, -2.64168413045696, 1};
Point(p10 + 18) = {12.56848543670123, -2.78193004981162, 1};
Point(p10 + 19) = {12.53304817619167, -2.929536862864731, 1};
Point(p10 + 20) = {12.521138, -3.08087, 1};
Point(p10 + 21) = {12.53304817619167, -3.232203137135269, 1};
Point(p10 + 22) = {12.56848543670123, -3.379809950188381, 1};
Point(p10 + 23) = {12.62657719856542, -3.52005586954304, 1};
Point(p10 + 24) = {12.70589304981162, -3.649487575215216, 1};
Point(p10 + 25) = {12.80447997094795, -3.764918029052054, 1};
Point(p10 + 26) = {12.91991042478478, -3.86350495018838, 1};
Point(p10 + 27) = {13.04934213045696, -3.942820801434585, 1};
Point(p10 + 28) = {13.18958804981162, -4.000912563298769, 1};
Point(p10 + 29) = {13.33719486286473, -4.03634982380833, 1};
Point(p10 + 30) = {13.488528, -4.04826, 1};
Point(p10 + 31) = {13.63986113713527, -4.03634982380833, 1};
Point(p10 + 32) = {13.78746795018838, -4.000912563298769, 1};
Point(p10 + 33) = {13.92771386954304, -3.942820801434585, 1};
Point(p10 + 34) = {14.05714557521522, -3.86350495018838, 1};
Point(p10 + 35) = {14.17257602905205, -3.764918029052054, 1};
Point(p10 + 36) = {14.27116295018838, -3.649487575215216, 1};
Point(p10 + 37) = {14.35047880143459, -3.52005586954304, 1};
Point(p10 + 38) = {14.40857056329877, -3.379809950188381, 1};
Point(p10 + 39) = {14.44400782380833, -3.232203137135269, 1};
Spline(10) = {8, p10 + 1, p10 + 2, p10 + 3, p10 + 4, p10 + 5, p10 + 6, p10 + 7, p10 + 8, p10 + 9, p10 + 10, p10 + 11, p10 + 12, p10 + 13, p10 + 14, p10 + 15, p10 + 16, p10 + 17, p10 + 18, p10 + 19, p10 + 20, p10 + 21, p10 + 22, p10 + 23, p10 + 24, p10 + 25, p10 + 26, p10 + 27, p10 + 28, p10 + 29, p10 + 30, p10 + 31, p10 + 32, p10 + 33, p10 + 34, p10 + 35, p10 + 36, p10 + 37, p10 + 38, p10 + 39, 8};
p11 = newp;
Point(p11 + 1) = {4.778307174090058, 1.20693764430439, 1};
Point(p11 + 2) = {4.759003448165992, 1.287343449457788, 1};
Point(p11 + 3) = {4.727359144025447, 1.36373955768575, 1};
Point(p11 + 4) = {4.684153449457789, 1.434244843259555, 1};
Point(p11 + 5) = {4.63045023205475, 1.49712323205475, 1};
Point(p11 + 6) = {4.567571843259556, 1.550826449457789, 1};
Point(p11 + 7) = {4.49706655768575, 1.594032144025447, 1};
Point(p11 + 8) = {4.420670449457789, 1.625676448165992, 1};
Point(p11 + 9) = {4.340264644304391, 1.644980174090057, 1};
Point(p11 + 10) = {4.257829, 1.651468, 1};
Point(p11 + 11) = {4.17539335569561, 1.644980174090057, 1};
Point(p11 + 12) = {4.094987550542212, 1.625676448165992, 1};
Point(p11 + 13) = {4.01859144231425, 1.594032144025447, 1};
Point(p11 + 14) = {3.948086156740445, 1.550826449457789, 1};
Point(p11 + 15) = {3.88520776794525, 1.49712323205475, 1};
Point(p11 + 16) = {3.831504550542212, 1.434244843259555, 1};
Point(p11 + 17) = {3.788298855974553, 1.36373955768575, 1};
Point(p11 + 18) = {3.756654551834008, 1.287343449457788, 1};
Point(p11 + 19) = {3.737350825909943, 1.20693764430439, 1};
Point(p11 + 20) = {3.730863, 1.124502, 1};
Point(p11 + 21) = {3.737350825909943, 1.04206635569561, 1};
Point(p11 + 22) = {3.756654551834008, 0.9616605505422111, 1};
Point(p11 + 23) = {3.788298855974552, 0.8852644423142502, 1};
Point(p11 + 24) = {3.831504550542212, 0.8147591567404445, 1};
Point(p11 + 25) = {3.88520776794525, 0.7518807679452497, 1};
Point(p11 + 26) = {3.948086156740445, 0.6981775505422114, 1};
Point(p11 + 27) = {4.01859144231425, 0.6549718559745524, 1};
Point(p11 + 28) = {4.094987550542212, 0.623327551834008, 1};
Point(p11 + 29) = {4.17539335569561, 0.6040238259099425, 1};
Point(p11 + 30) = {4.257829, 0.5975359999999998, 1};
Point(p11 + 31) = {4.340264644304391, 0.6040238259099425, 1};
Point(p11 + 32) = {4.420670449457789, 0.6233275518340079, 1};
Point(p11 + 33) = {4.49706655768575, 0.6549718559745523, 1};
Point(p11 + 34) = {4.567571843259556, 0.6981775505422112, 1};
Point(p11 + 35) = {4.63045023205475, 0.7518807679452495, 1};
Point(p11 + 36) = {4.684153449457789, 0.8147591567404444, 1};
Point(p11 + 37) = {4.727359144025447, 0.8852644423142497, 1};
Point(p11 + 38) = {4.759003448165992, 0.9616605505422112, 1};
Point(p11 + 39) = {4.778307174090058, 1.04206635569561, 1};
Spline(11) = {9, p11 + 1, p11 + 2, p11 + 3, p11 + 4, p11 + 5, p11 + 6, p11 + 7, p11 + 8, p11 + 9, p11 + 10, p11 + 11, p11 + 12, p11 + 13, p11 + 14, p11 + 15, p11 + 16, p11 + 17, p11 + 18, p11 + 19, p11 + 20, p11 + 21, p11 + 22, p11 + 23, p11 + 24, p11 + 25, p11 + 26, p11 + 27, p11 + 28, p11 + 29, p11 + 30, p11 + 31, p11 + 32, p11 + 33, p11 + 34, p11 + 35, p11 + 36, p11 + 37, p11 + 38, p11 + 39, 9};
Line(12) = {4, 10};
Line(13) = {10, 7};
Line(14) = {5, 10};
p15 = newp;
Point(p15 + 1) = {14.44400782380833, -2.929536862864731, 0};
Point(p15 + 2) = {14.40857056329877, -2.78193004981162, 0};
Point(p15 + 3) = {14.35047880143459, -2.64168413045696, 0};
Point(p15 + 4) = {14.27116295018838, -2.512252424784784, 0};
Point(p15 + 5) = {14.17257602905205, -2.396821970947946, 0};
Point(p15 + 6) = {14.05714557521522, -2.29823504981162, 0};
Point(p15 + 7) = {13.92771386954304, -2.218919198565415, 0};
Point(p15 + 8) = {13.78746795018838, -2.160827436701231, 0};
Point(p15 + 9) = {13.63986113713527, -2.12539017619167, 0};
Point(p15 + 10) = {13.488528, -2.11348, 0};
Point(p15 + 11) = {13.33719486286473, -2.12539017619167, 0};
Point(p15 + 12) = {13.18958804981162, -2.160827436701231, 0};
Point(p15 + 13) = {13.04934213045696, -2.218919198565415, 0};
Point(p15 + 14) = {12.91991042478478, -2.29823504981162, 0};
Point(p15 + 15) = {12.80447997094795, -2.396821970947946, 0};
Point(p15 + 16) = {12.70589304981162, -2.512252424784784, 0};
Point(p15 + 17) = {12.62657719856542, -2.64168413045696, 0};
Point(p15 + 18) = {12.56848543670123, -2.78193004981162, 0};
Point(p15 + 19) = {12.53304817619167, -2.929536862864731, 0};
Point(p15 + 20) = {12.521138, -3.08087, 0};
Point(p15 + 21) = {12.53304817619167, -3.232203137135269, 0};
Point(p15 + 22) = {12.56848543670123, -3.379809950188381, 0};
Point(p15 + 23) = {12.62657719856542, -3.52005586954304, 0};
Point(p15 + 24) = {12.70589304981162, -3.649487575215216, 0};
Point(p15 + 25) = {12.80447997094795, -3.764918029052054, 0};
Point(p15 + 26) = {12.91991042478478, -3.86350495018838, 0};
Point(p15 + 27) = {13.04934213045696, -3.942820801434585, 0};
Point(p15 + 28) = {13.18958804981162, -4.000912563298769, 0};
Point(p15 + 29) = {13.33719486286473, -4.03634982380833, 0};
Point(p15 + 30) = {13.488528, -4.04826, 0};
Point(p15 + 31) = {13.63986113713527, -4.03634982380833, 0};
Point(p15 + 32) = {13.78746795018838, -4.000912563298769, 0};
Point(p15 + 33) = {13.92771386954304, -3.942820801434585, 0};
Point(p15 + 34) = {14.05714557521522, -3.86350495018838, 0};
Point(p15 + 35) = {14.17257602905205, -3.764918029052054, 0};
Point(p15 + 36) = {14.27116295018838, -3.649487575215216, 0};
Point(p15 + 37) = {14.35047880143459, -3.52005586954304, 0};
Point(p15 + 38) = {14.40857056329877, -3.379809950188381, 0};
Point(p15 + 39) = {14.44400782380833, -3.232203137135269, 0};
Spline(15) = {11, p15 + 1, p15 + 2, p15 + 3, p15 + 4, p15 + 5, p15 + 6, p15 + 7, p15 + 8, p15 + 9, p15 + 10, p15 + 11, p15 + 12, p15 + 13, p15 + 14, p15 + 15, p15 + 16, p15 + 17, p15 + 18, p15 + 19, p15 + 20, p15 + 21, p15 + 22, p15 + 23, p15 + 24, p15 + 25, p15 + 26, p15 + 27, p15 + 28, p15 + 29, p15 + 30, p15 + 31, p15 + 32, p15 + 33, p15 + 34, p15 + 35, p15 + 36, p15 + 37, p15 + 38, p15 + 39, 11};
p16 = newp;
Point(p16 + 1) = {4.778307174090058, 1.20693764430439, 0};
Point(p16 + 2) = {4.759003448165992, 1.287343449457788, 0};
Point(p16 + 3) = {4.727359144025447, 1.36373955768575, 0};
Point(p16 + 4) = {4.684153449457789, 1.434244843259555, 0};
Point(p16 + 5) = {4.63045023205475, 1.49712323205475, 0};
Point(p16 + 6) = {4.567571843259556, 1.550826449457789, 0};
Point(p16 + 7) = {4.49706655768575, 1.594032144025447, 0};
Point(p16 + 8) = {4.420670449457789, 1.625676448165992, 0};
Point(p16 + 9) = {4.340264644304391, 1.644980174090057, 0};
Point(p16 + 10) = {4.257829, 1.651468, 0};
Point(p16 + 11) = {4.17539335569561, 1.644980174090057, 0};
Point(p16 + 12) = {4.094987550542212, 1.625676448165992, 0};
Point(p16 + 13) = {4.01859144231425, 1.594032144025447, 0};
Point(p16 + 14) = {3.948086156740445, 1.550826449457789, 0};
Point(p16 + 15) = {3.88520776794525, 1.49712323205475, 0};
Point(p16 + 16) = {3.831504550542212, 1.434244843259555, 0};
Point(p16 + 17) = {3.788298855974553, 1.36373955768575, 0};
Point(p16 + 18) = {3.756654551834008, 1.287343449457788, 0};
Point(p16 + 19) = {3.737350825909943, 1.20693764430439, 0};
Point(p16 + 20) = {3.730863, 1.124502, 0};
Point(p16 + 21) = {3.737350825909943, 1.04206635569561, 0};
Point(p16 + 22) = {3.756654551834008, 0.9616605505422111, 0};
Point(p16 + 23) = {3.788298855974552, 0.8852644423142502, 0};
Point(p16 + 24) = {3.831504550542212, 0.8147591567404445, 0};
Point(p16 + 25) = {3.88520776794525, 0.7518807679452497, 0};
Point(p16 + 26) = {3.948086156740445, 0.6981775505422114, 0};
Point(p16 + 27) = {4.01859144231425, 0.6549718559745524, 0};
Point(p16 + 28) = {4.094987550542212, 0.623327551834008, 0};
Point(p16 + 29) = {4.17539335569561, 0.6040238259099425, 0};
Point(p16 + 30) = {4.257829, 0.5975359999999998, 0};
Point(p16 + 31) = {4.340264644304391, 0.6040238259099425, 0};
Point(p16 + 32) = {4.420670449457789, 0.6233275518340079, 0};
Point(p16 + 33) = {4.49706655768575, 0.6549718559745523, 0};
Point(p16 + 34) = {4.567571843259556, 0.6981775505422112, 0};
Point(p16 + 35) = {4.63045023205475, 0.7518807679452495, 0};
Point(p16 + 36) = {4.684153449457789, 0.8147591567404444, 0};
Point(p16 + 37) = {4.727359144025447, 0.8852644423142497, 0};
Point(p16 + 38) = {4.759003448165992, 0.9616605505422112, 0};
Point(p16 + 39) = {4.778307174090058, 1.04206635569561, 0};
Spline(16) = {12, p16 + 1, p16 + 2, p16 + 3, p16 + 4, p16 + 5, p16 + 6, p16 + 7, p16 + 8, p16 + 9, p16 + 10, p16 + 11, p16 + 12, p16 + 13, p16 + 14, p16 + 15, p16 + 16, p16 + 17, p16 + 18, p16 + 19, p16 + 20, p16 + 21, p16 + 22, p16 + 23, p16 + 24, p16 + 25, p16 + 26, p16 + 27, p16 + 28, p16 + 29, p16 + 30, p16 + 31, p16 + 32, p16 + 33, p16 + 34, p16 + 35, p16 + 36, p16 + 37, p16 + 38, p16 + 39, 12};
Line(17) = {11, 8};
Line(18) = {12, 9};
Curve Loop(1) = {-1, 4, 3, -2};
Plane Surface(1) = {1};
Curve Loop(2) = {-5, 1, 7, -6};
Plane Surface(2) = {2};
Curve Loop(3) = {-2, 7, 9, -8, -10, -11};
Plane Surface(3) = {3};
Curve Loop(4) = {-12, 3, 8, -13};
Plane Surface(4) = {4};
Curve Loop(5) = {-4, 5, 14, -12, -15, -16};
Plane Surface(5) = {5};
Curve Loop(6) = {-6, 14, 13, -9};
Plane Surface(6) = {6};
Curve Loop(7) = {-10, -17, 15, 17};
Surface(7) = {7};
Curve Loop(8) = {-11, -18, 16, 18};
Surface(8) = {8};
Surface Loop(1) = {1, 2, 3, 4, 5, 6, 7, 8};
Volume(1) = {1};
Physical Surface("INFLOW") = {1};
Physical Surface("OUTFLOW") = {6};
Physical Surface("OBSTACLE") = {7, 8};
Physical Surface("WALL_Y") = {2, 4};
Physical Surface("WALL_Z") = {3, 5};
Physical Volume("FLUID") = {1};
