cl__1 = 0.841622;
cl__2 = 0.846201;
cl__3 = 3.742395;
cl__4 = 0.08835899999999999;
Point(1) = {0.832143, -3.887715, 1, cl__1};
Point(2) = {0.832143, -3.887715, 0, cl__1};
Point(3) = {0.832143, 4.884465000000001, 1, cl__2};
Point(4) = {0.832143, 4.884465000000001, 0, cl__2};
Point(5) = {37.166033, -3.887715, 0, cl__3};
Point(6) = {37.166033, -3.887715, 1, cl__3};
Point(7) = {37.166033, 4.884465000000001, 1, cl__3};
Point(8) = {9.942096999999999, 0.4497059999999998, 1, cl__4};
Point(9) = {37.166033, 4.884465000000001, 0, cl__3};
Point(10) = {9.942096999999999, 0.4497059999999998, 0, cl__4};
Line(1) = {2, 1};
Line(2) = {1, 3};
Line(3) = {4, 3};
Line(4) = {2, 4};
Line(5) = {2, 5};
Line(6) = {5, 6};
Line(7) = {1, 6};
Line(8) = {3, 7};
Line(9) = {6, 7};
p10 = newp;
Point(p10 + 1) = {9.931218590113094, 0.5879293032270374, 1};
Point(p10 + 2) = {9.898851223007169, 0.7227490899917823, 1};
Point(p10 + 3) = {9.845791890681502, 0.8508456497028671, 1};
Point(p10 + 4) = {9.773347089991782, 0.9690648199320973, 1};
Point(p10 + 5) = {9.683300652361496, 1.074495652361497, 1};
Point(p10 + 6) = {9.577869819932097, 1.164542089991782, 1};
Point(p10 + 7) = {9.459650649702866, 1.236986890681503, 1};
Point(p10 + 8) = {9.331554089991782, 1.290046223007169, 1};
Point(p10 + 9) = {9.196734303227037, 1.322413590113095, 1};
Point(p10 + 10) = {9.058510999999999, 1.333292, 1};
Point(p10 + 11) = {8.920287696772961, 1.322413590113095, 1};
Point(p10 + 12) = {8.785467910008217, 1.29004622300717, 1};
Point(p10 + 13) = {8.657371350297133, 1.236986890681503, 1};
Point(p10 + 14) = {8.539152180067902, 1.164542089991782, 1};
Point(p10 + 15) = {8.433721347638503, 1.074495652361497, 1};
Point(p10 + 16) = {8.343674910008216, 0.9690648199320973, 1};
Point(p10 + 17) = {8.271230109318497, 0.8508456497028672, 1};
Point(p10 + 18) = {8.21817077699283, 0.7227490899917823, 1};
Point(p10 + 19) = {8.185803409886905, 0.5879293032270375, 1};
Point(p10 + 20) = {8.174925, 0.4497060000000001, 1};
Point(p10 + 21) = {8.185803409886905, 0.3114826967729627, 1};
Point(p10 + 22) = {8.21817077699283, 0.1766629100082174, 1};
Point(p10 + 23) = {8.271230109318497, 0.0485663502971333, 1};
Point(p10 + 24) = {8.343674910008216, -0.0696528199320971, 1};
Point(p10 + 25) = {8.433721347638503, -0.1750836523614968, 1};
Point(p10 + 26) = {8.539152180067902, -0.2651300899917822, 1};
Point(p10 + 27) = {8.657371350297131, -0.3375748906815031, 1};
Point(p10 + 28) = {8.785467910008217, -0.3906342230071695, 1};
Point(p10 + 29) = {8.920287696772961, -0.4230015901130953, 1};
Point(p10 + 30) = {9.058510999999999, -0.43388, 1};
Point(p10 + 31) = {9.196734303227037, -0.4230015901130954, 1};
Point(p10 + 32) = {9.331554089991782, -0.3906342230071696, 1};
Point(p10 + 33) = {9.459650649702866, -0.3375748906815032, 1};
Point(p10 + 34) = {9.577869819932097, -0.2651300899917824, 1};
Point(p10 + 35) = {9.683300652361496, -0.1750836523614969, 1};
Point(p10 + 36) = {9.773347089991782, -0.06965281993209732, 1};
Point(p10 + 37) = {9.845791890681502, 0.04856635029713263, 1};
Point(p10 + 38) = {9.898851223007169, 0.1766629100082175, 1};
Point(p10 + 39) = {9.931218590113094, 0.3114826967729624, 1};
Spline(10) = {8, p10 + 1, p10 + 2, p10 + 3, p10 + 4, p10 + 5, p10 + 6, p10 + 7, p10 + 8, p10 + 9, p10 + 10, p10 + 11, p10 + 12, p10 + 13, p10 + 14, p10 + 15, p10 + 16, p10 + 17, p10 + 18, p10 + 19, p10 + 20, p10 + 21, p10 + 22, p10 + 23, p10 + 24, p10 + 25, p10 + 26, p10 + 27, p10 + 28, p10 + 29, p10 + 30, p10 + 31, p10 + 32, p10 + 33, p10 + 34, p10 + 35, p10 + 36, p10 + 37, p10 + 38, p10 + 39, 8};
Line(11) = {4, 9};
Line(12) = {9, 7};
Line(13) = {5, 9};
p14 = newp;
Point(p14 + 1) = {9.931218590113094, 0.5879293032270374, 0};
Point(p14 + 2) = {9.898851223007169, 0.7227490899917823, 0};
Point(p14 + 3) = {9.845791890681502, 0.8508456497028671, 0};
Point(p14 + 4) = {9.773347089991782, 0.9690648199320973, 0};
Point(p14 + 5) = {9.683300652361496, 1.074495652361497, 0};
Point(p14 + 6) = {9.577869819932097, 1.164542089991782, 0};
Point(p14 + 7) = {9.459650649702866, 1.236986890681503, 0};
Point(p14 + 8) = {9.331554089991782, 1.290046223007169, 0};
Point(p14 + 9) = {9.196734303227037, 1.322413590113095, 0};
Point(p14 + 10) = {9.058510999999999, 1.333292, 0};
Point(p14 + 11) = {8.920287696772961, 1.322413590113095, 0};
Point(p14 + 12) = {8.785467910008217, 1.29004622300717, 0};
Point(p14 + 13) = {8.657371350297133, 1.236986890681503, 0};
Point(p14 + 14) = {8.539152180067902, 1.164542089991782, 0};
Point(p14 + 15) = {8.433721347638503, 1.074495652361497, 0};
Point(p14 + 16) = {8.343674910008216, 0.9690648199320973, 0};
Point(p14 + 17) = {8.271230109318497, 0.8508456497028672, 0};
Point(p14 + 18) = {8.21817077699283, 0.7227490899917823, 0};
Point(p14 + 19) = {8.185803409886905, 0.5879293032270375, 0};
Point(p14 + 20) = {8.174925, 0.4497060000000001, 0};
Point(p14 + 21) = {8.185803409886905, 0.3114826967729627, 0};
Point(p14 + 22) = {8.21817077699283, 0.1766629100082174, 0};
Point(p14 + 23) = {8.271230109318497, 0.0485663502971333, 0};
Point(p14 + 24) = {8.343674910008216, -0.0696528199320971, 0};
Point(p14 + 25) = {8.433721347638503, -0.1750836523614968, 0};
Point(p14 + 26) = {8.539152180067902, -0.2651300899917822, 0};
Point(p14 + 27) = {8.657371350297131, -0.3375748906815031, 0};
Point(p14 + 28) = {8.785467910008217, -0.3906342230071695, 0};
Point(p14 + 29) = {8.920287696772961, -0.4230015901130953, 0};
Point(p14 + 30) = {9.058510999999999, -0.43388, 0};
Point(p14 + 31) = {9.196734303227037, -0.4230015901130954, 0};
Point(p14 + 32) = {9.331554089991782, -0.3906342230071696, 0};
Point(p14 + 33) = {9.459650649702866, -0.3375748906815032, 0};
Point(p14 + 34) = {9.577869819932097, -0.2651300899917824, 0};
Point(p14 + 35) = {9.683300652361496, -0.1750836523614969, 0};
Point(p14 + 36) = {9.773347089991782, -0.06965281993209732, 0};
Point(p14 + 37) = {9.845791890681502, 0.04856635029713263, 0};
Point(p14 + 38) = {9.898851223007169, 0.1766629100082175, 0};
Point(p14 + 39) = {9.931218590113094, 0.3114826967729624, 0};
Spline(14) = {10, p14 + 1, p14 + 2, p14 + 3, p14 + 4, p14 + 5, p14 + 6, p14 + 7, p14 + 8, p14 + 9, p14 + 10, p14 + 11, p14 + 12, p14 + 13, p14 + 14, p14 + 15, p14 + 16, p14 + 17, p14 + 18, p14 + 19, p14 + 20, p14 + 21, p14 + 22, p14 + 23, p14 + 24, p14 + 25, p14 + 26, p14 + 27, p14 + 28, p14 + 29, p14 + 30, p14 + 31, p14 + 32, p14 + 33, p14 + 34, p14 + 35, p14 + 36, p14 + 37, p14 + 38, p14 + 39, 10};
Line(15) = {10, 8};
Curve Loop(1) = {-1, 4, 3, -2};
Plane Surface(1) = {1};
Curve Loop(2) = {-5, 1, 7, -6};
Plane Surface(2) = {2};
Curve Loop(3) = {-2, 7, 9, -8, -10};
Plane Surface(3) = {3};
Curve Loop(4) = {-11, 3, 8, -12};
Plane Surface(4) = {4};
Curve Loop(5) = {-4, 5, 13, -11, -14};
Plane Surface(5) = {5};
Curve Loop(6) = {-6, 13, 12, -9};
Plane Surface(6) = {6};
Curve Loop(7) = {-10, -15, 14, 15};
Surface(7) = {7};
Surface Loop(1) = {1, 2, 3, 4, 5, 6, 7};
Volume(1) = {1};
Physical Surface("INFLOW") = {1};
Physical Surface("OUTFLOW") = {6};
Physical Surface("OBSTACLE") = {7};
Physical Surface("WALL_Y") = {2, 4};
Physical Surface("WALL_Z") = {3, 5};
Physical Volume("FLUID") = {1};
