cl__1 = 3.051633;
cl__2 = 1.48282;
cl__3 = 0.766792;
cl__4 = 0.72944;
cl__5 = 0.120088;
cl__6 = 0.111835;
Point(1) = {0.630217, -4.158598, 1, cl__1};
Point(2) = {0.630217, -4.158598, 0, cl__1};
Point(3) = {0.630217, 5.024649, 1, cl__2};
Point(4) = {0.630217, 5.024649, 0, cl__2};
Point(5) = {30.168909, -4.158598, 0, cl__3};
Point(6) = {30.168909, -4.158598, 1, cl__3};
Point(7) = {30.168909, 5.024649, 1, cl__4};
Point(8) = {24.007389, 0.7861599999999996, 1, cl__5};
Point(9) = {17.253719, 1.29872, 1, cl__6};
Point(10) = {30.168909, 5.024649, 0, cl__4};
Point(11) = {24.007389, 0.7861599999999996, 0, cl__5};
Point(12) = {17.253719, 1.29872, 0, cl__6};
Line(1) = {2, 1};
Line(2) = {1, 3};
Line(3) = {4, 3};
Line(4) = {2, 4};
Line(5) = {2, 5};
Line(6) = {5, 6};
Line(7) = {1, 6};
Line(8) = {3, 7};
Line(9) = {6, 7};
p10 = newp;
Point(p10 + 1) = {23.99260414983057, 0.9740193332464425, 1};
Point(p10 + 2) = {23.94861365140155, 1.157252946238976, 1};
Point(p10 + 3) = {23.87650069678038, 1.331349019308226, 1};
Point(p10 + 4) = {23.77804094623897, 1.49202072934349, 1};
Point(p10 + 5) = {23.65565880560486, 1.635311805604863, 1};
Point(p10 + 6) = {23.51236772934349, 1.757693946238976, 1};
Point(p10 + 7) = {23.35169601930822, 1.856153696780376, 1};
Point(p10 + 8) = {23.17759994623897, 1.928266651401557, 1};
Point(p10 + 9) = {22.99436633324644, 1.97225714983057, 1};
Point(p10 + 10) = {22.806507, 1.987042, 1};
Point(p10 + 11) = {22.61864766675356, 1.97225714983057, 1};
Point(p10 + 12) = {22.43541405376103, 1.928266651401557, 1};
Point(p10 + 13) = {22.26131798069177, 1.856153696780376, 1};
Point(p10 + 14) = {22.10064627065651, 1.757693946238976, 1};
Point(p10 + 15) = {21.95735519439514, 1.635311805604863, 1};
Point(p10 + 16) = {21.83497305376103, 1.49202072934349, 1};
Point(p10 + 17) = {21.73651330321962, 1.331349019308226, 1};
Point(p10 + 18) = {21.66440034859844, 1.157252946238976, 1};
Point(p10 + 19) = {21.62040985016943, 0.9740193332464426, 1};
Point(p10 + 20) = {21.605625, 0.7861600000000001, 1};
Point(p10 + 21) = {21.62040985016943, 0.5983006667535576, 1};
Point(p10 + 22) = {21.66440034859844, 0.415067053761024, 1};
Point(p10 + 23) = {21.73651330321962, 0.2409709806917741, 1};
Point(p10 + 24) = {21.83497305376103, 0.08029927065651032, 1};
Point(p10 + 25) = {21.95735519439513, -0.0629918056048635, 1};
Point(p10 + 26) = {22.10064627065651, -0.1853739462389755, 1};
Point(p10 + 27) = {22.26131798069177, -0.2838336967803756, 1};
Point(p10 + 28) = {22.43541405376103, -0.3559466514015566, 1};
Point(p10 + 29) = {22.61864766675356, -0.3999371498305702, 1};
Point(p10 + 30) = {22.806507, -0.414722, 1};
Point(p10 + 31) = {22.99436633324644, -0.3999371498305702, 1};
Point(p10 + 32) = {23.17759994623897, -0.3559466514015568, 1};
Point(p10 + 33) = {23.35169601930822, -0.2838336967803756, 1};
Point(p10 + 34) = {23.51236772934349, -0.1853739462389759, 1};
Point(p10 + 35) = {23.65565880560486, -0.06299180560486384, 1};
Point(p10 + 36) = {23.77804094623897, 0.08029927065650999, 1};
Point(p10 + 37) = {23.87650069678038, 0.2409709806917734, 1};
Point(p10 + 38) = {23.94861365140155, 0.4150670537610241, 1};
Point(p10 + 39) = {23.99260414983057, 0.5983006667535572, 1};
Spline(10) = {8, p10 + 1, p10 + 2, p10 + 3, p10 + 4, p10 + 5, p10 + 6, p10 + 7, p10 + 8, p10 + 9, p10 + 10, p10 + 11, p10 + 12, p10 + 13, p10 + 14, p10 + 15, p10 + 16, p10 + 17, p10 + 18, p10 + 19, p10 + 20, p10 + 21, p10 + 22, p10 + 23, p10 + 24, p10 + 25, p10 + 26, p10 + 27, p10 + 28, p10 + 29, p10 + 30, p10 + 31, p10 + 32, p10 + 33, p10 + 34, p10 + 35, p10 + 36, p10 + 37, p10 + 38, p10 + 39, 8};
p11 = newp;
Point(p11 + 1) = {17.23995026801623, 1.473668327543277, 1};
Point(p11 + 2) = {17.19898310394217, 1.644308846642228, 1};
Point(p11 + 3) = {17.13182625531954, 1.806439821393222, 1};
Point(p11 + 4) = {17.04013334664223, 1.956069049116035, 1};
Point(p11 + 5) = {16.9261621616332, 2.089512161633194, 1};
Point(p11 + 6) = {16.79271904911604, 2.203483346642228, 1};
Point(p11 + 7) = {16.64308982139323, 2.295176255319537, 1};
Point(p11 + 8) = {16.48095884664223, 2.362333103942169, 1};
Point(p11 + 9) = {16.31031832754328, 2.403300268016232, 1};
Point(p11 + 10) = {16.13537, 2.417069, 1};
Point(p11 + 11) = {15.96042167245673, 2.403300268016232, 1};
Point(p11 + 12) = {15.78978115335777, 2.362333103942169, 1};
Point(p11 + 13) = {15.62765017860678, 2.295176255319537, 1};
Point(p11 + 14) = {15.47802095088397, 2.203483346642228, 1};
Point(p11 + 15) = {15.34457783836681, 2.089512161633194, 1};
Point(p11 + 16) = {15.23060665335777, 1.956069049116035, 1};
Point(p11 + 17) = {15.13891374468047, 1.806439821393222, 1};
Point(p11 + 18) = {15.07175689605783, 1.644308846642228, 1};
Point(p11 + 19) = {15.03078973198377, 1.473668327543277, 1};
Point(p11 + 20) = {15.017021, 1.29872, 1};
Point(p11 + 21) = {15.03078973198377, 1.123771672456723, 1};
Point(p11 + 22) = {15.07175689605783, 0.9531311533577717, 1};
Point(p11 + 23) = {15.13891374468047, 0.7910001786067783, 1};
Point(p11 + 24) = {15.23060665335777, 0.6413709508839651, 1};
Point(p11 + 25) = {15.34457783836681, 0.5079278383668059, 1};
Point(p11 + 26) = {15.47802095088397, 0.3939566533577721, 1};
Point(p11 + 27) = {15.62765017860678, 0.3022637446804631, 1};
Point(p11 + 28) = {15.78978115335777, 0.2351068960578313, 1};
Point(p11 + 29) = {15.96042167245673, 0.1941397319837685, 1};
Point(p11 + 30) = {16.13537, 0.1803710000000001, 1};
Point(p11 + 31) = {16.31031832754328, 0.1941397319837683, 1};
Point(p11 + 32) = {16.48095884664223, 0.2351068960578313, 1};
Point(p11 + 33) = {16.64308982139323, 0.302263744680463, 1};
Point(p11 + 34) = {16.79271904911604, 0.3939566533577719, 1};
Point(p11 + 35) = {16.9261621616332, 0.5079278383668057, 1};
Point(p11 + 36) = {17.04013334664223, 0.6413709508839648, 1};
Point(p11 + 37) = {17.13182625531954, 0.7910001786067775, 1};
Point(p11 + 38) = {17.19898310394217, 0.9531311533577718, 1};
Point(p11 + 39) = {17.23995026801623, 1.123771672456723, 1};
Spline(11) = {9, p11 + 1, p11 + 2, p11 + 3, p11 + 4, p11 + 5, p11 + 6, p11 + 7, p11 + 8, p11 + 9, p11 + 10, p11 + 11, p11 + 12, p11 + 13, p11 + 14, p11 + 15, p11 + 16, p11 + 17, p11 + 18, p11 + 19, p11 + 20, p11 + 21, p11 + 22, p11 + 23, p11 + 24, p11 + 25, p11 + 26, p11 + 27, p11 + 28, p11 + 29, p11 + 30, p11 + 31, p11 + 32, p11 + 33, p11 + 34, p11 + 35, p11 + 36, p11 + 37, p11 + 38, p11 + 39, 9};
Line(12) = {4, 10};
Line(13) = {10, 7};
Line(14) = {5, 10};
p15 = newp;
Point(p15 + 1) = {23.99260414983057, 0.9740193332464425, 0};
Point(p15 + 2) = {23.94861365140155, 1.157252946238976, 0};
Point(p15 + 3) = {23.87650069678038, 1.331349019308226, 0};
Point(p15 + 4) = {23.77804094623897, 1.49202072934349, 0};
Point(p15 + 5) = {23.65565880560486, 1.635311805604863, 0};
Point(p15 + 6) = {23.51236772934349, 1.757693946238976, 0};
Point(p15 + 7) = {23.35169601930822, 1.856153696780376, 0};
Point(p15 + 8) = {23.17759994623897, 1.928266651401557, 0};
Point(p15 + 9) = {22.99436633324644, 1.97225714983057, 0};
Point(p15 + 10) = {22.806507, 1.987042, 0};
Point(p15 + 11) = {22.61864766675356, 1.97225714983057, 0};
Point(p15 + 12) = {22.43541405376103, 1.928266651401557, 0};
Point(p15 + 13) = {22.26131798069177, 1.856153696780376, 0};
Point(p15 + 14) = {22.10064627065651, 1.757693946238976, 0};
Point(p15 + 15) = {21.95735519439514, 1.635311805604863, 0};
Point(p15 + 16) = {21.83497305376103, 1.49202072934349, 0};
Point(p15 + 17) = {21.73651330321962, 1.331349019308226, 0};
Point(p15 + 18) = {21.66440034859844, 1.157252946238976, 0};
Point(p15 + 19) = {21.62040985016943, 0.9740193332464426, 0};
Point(p15 + 20) = {21.605625, 0.7861600000000001, 0};
Point(p15 + 21) = {21.62040985016943, 0.5983006667535576, 0};
Point(p15 + 22) = {21.66440034859844, 0.415067053761024, 0};
Point(p15 + 23) = {21.73651330321962, 0.2409709806917741, 0};
Point(p15 + 24) = {21.83497305376103, 0.08029927065651032, 0};
Point(p15 + 25) = {21.95735519439513, -0.0629918056048635, 0};
Point(p15 + 26) = {22.10064627065651, -0.1853739462389755, 0};
Point(p15 + 27) = {22.26131798069177, -0.2838336967803756, 0};
Point(p15 + 28) = {22.43541405376103, -0.3559466514015566, 0};
Point(p15 + 29) = {22.61864766675356, -0.3999371498305702, 0};
Point(p15 + 30) = {22.806507, -0.414722, 0};
Point(p15 + 31) = {22.99436633324644, -0.3999371498305702, 0};
Point(p15 + 32) = {23.17759994623897, -0.3559466514015568, 0};
Point(p15 + 33) = {23.35169601930822, -0.2838336967803756, 0};
Point(p15 + 34) = {23.51236772934349, -0.1853739462389759, 0};
Point(p15 + 35) = {23.65565880560486, -0.06299180560486384, 0};
Point(p15 + 36) = {23.77804094623897, 0.08029927065650999, 0};
Point(p15 + 37) = {23.87650069678038, 0.2409709806917734, 0};
Point(p15 + 38) = {23.94861365140155, 0.4150670537610241, 0};
Point(p15 + 39) = {23.99260414983057, 0.5983006667535572, 0};
Spline(15) = {11, p15 + 1, p15 + 2, p15 + 3, p15 + 4, p15 + 5, p15 + 6, p15 + 7, p15 + 8, p15 + 9, p15 + 10, p15 + 11, p15 + 12, p15 + 13, p15 + 14, p15 + 15, p15 + 16, p15 + 17, p15 + 18, p15 + 19, p15 + 20, p15 + 21, p15 + 22, p15 + 23, p15 + 24, p15 + 25, p15 + 26, p15 + 27, p15 + 28, p15 + 29, p15 + 30, p15 + 31, p15 + 32, p15 + 33, p15 + 34, p15 + 35, p15 + 36, p15 + 37, p15 + 38, p15 + 39, 11};
p16 = newp;
Point(p16 + 1) = {17.23995026801623, 1.473668327543277, 0};
Point(p16 + 2) = {17.19898310394217, 1.644308846642228, 0};
Point(p16 + 3) = {17.13182625531954, 1.806439821393222, 0};
Point(p16 + 4) = {17.04013334664223, 1.956069049116035, 0};
Point(p16 + 5) = {16.9261621616332, 2.089512161633194, 0};
Point(p16 + 6) = {16.79271904911604, 2.203483346642228, 0};
Point(p16 + 7) = {16.64308982139323, 2.295176255319537, 0};
Point(p16 + 8) = {16.48095884664223, 2.362333103942169, 0};
Point(p16 + 9) = {16.31031832754328, 2.403300268016232, 0};
Point(p16 + 10) = {16.13537, 2.417069, 0};
Point(p16 + 11) = {15.96042167245673, 2.403300268016232, 0};
Point(p16 + 12) = {15.78978115335777, 2.362333103942169, 0};
Point(p16 + 13) = {15.62765017860678, 2.295176255319537, 0};
Point(p16 + 14) = {15.47802095088397, 2.203483346642228, 0};
Point(p16 + 15) = {15.34457783836681, 2.089512161633194, 0};
Point(p16 + 16) = {15.23060665335777, 1.956069049116035, 0};
Point(p16 + 17) = {15.13891374468047, 1.806439821393222, 0};
Point(p16 + 18) = {15.07175689605783, 1.644308846642228, 0};
Point(p16 + 19) = {15.03078973198377, 1.473668327543277, 0};
Point(p16 + 20) = {15.017021, 1.29872, 0};
Point(p16 + 21) = {15.03078973198377, 1.123771672456723, 0};
Point(p16 + 22) = {15.07175689605783, 0.9531311533577717, 0};
Point(p16 + 23) = {15.13891374468047, 0.7910001786067783, 0};
Point(p16 + 24) = {15.23060665335777, 0.6413709508839651, 0};
Point(p16 + 25) = {15.34457783836681, 0.5079278383668059, 0};
Point(p16 + 26) = {15.47802095088397, 0.3939566533577721, 0};
Point(p16 + 27) = {15.62765017860678, 0.3022637446804631, 0};
Point(p16 + 28) = {15.78978115335777, 0.2351068960578313, 0};
Point(p16 + 29) = {15.96042167245673, 0.1941397319837685, 0};
Point(p16 + 30) = {16.13537, 0.1803710000000001, 0};
Point(p16 + 31) = {16.31031832754328, 0.1941397319837683, 0};
Point(p16 + 32) = {16.48095884664223, 0.2351068960578313, 0};
Point(p16 + 33) = {16.64308982139323, 0.302263744680463, 0};
Point(p16 + 34) = {16.79271904911604, 0.3939566533577719, 0};
Point(p16 + 35) = {16.9261621616332, 0.5079278383668057, 0};
Point(p16 + 36) = {17.04013334664223, 0.6413709508839648, 0};
Point(p16 + 37) = {17.13182625531954, 0.7910001786067775, 0};
Point(p16 + 38) = {17.19898310394217, 0.9531311533577718, 0};
Point(p16 + 39) = {17.23995026801623, 1.123771672456723, 0};
Spline(16) = {12, p16 + 1, p16 + 2, p16 + 3, p16 + 4, p16 + 5, p16 + 6, p16 + 7, p16 + 8, p16 + 9, p16 + 10, p16 + 11, p16 + 12, p16 + 13, p16 + 14, p16 + 15, p16 + 16, p16 + 17, p16 + 18, p16 + 19, p16 + 20, p16 + 21, p16 + 22, p16 + 23, p16 + 24, p16 + 25, p16 + 26, p16 + 27, p16 + 28, p16 + 29, p16 + 30, p16 + 31, p16 + 32, p16 + 33, p16 + 34, p16 + 35, p16 + 36, p16 + 37, p16 + 38, p16 + 39, 12};
Line(17) = {11, 8};
Line(18) = {12, 9};
Curve Loop(1) = {-1, 4, 3, -2};
Plane Surface(1) = {1};
Curve Loop(2) = {-5, 1, 7, -6};
Plane Surface(2) = {2};
Curve Loop(3) = {-2, 7, 9, -8, -10, -11};
Plane Surface(3) = {3};
Curve Loop(4) = {-12, 3, 8, -13};
Plane Surface(4) = {4};
Curve Loop(5) = {-4, 5, 14, -12, -15, -16};
Plane Surface(5) = {5};
Curve Loop(6) = {-6, 14, 13, -9};
Plane Surface(6) = {6};
Curve Loop(7) = {-10, -17, 15, 17};
Surface(7) = {7};
Curve Loop(8) = {-11, -18, 16, 18};
Surface(8) = {8};
Surface Loop(1) = {1, 2, 3, 4, 5, 6, 7, 8};
Volume(1) = {1};
Physical Surface("INFLOW") = {1};
Physical Surface("OUTFLOW") = {6};
Physical Surface("OBSTACLE") = {7, 8};
Physical Surface("WALL_Y") = {2, 4};
Physical Surface("WALL_Z") = {3, 5};
Physical Volume("FLUID") = {1};
