cl__1 = 1;
cl__2 = 0.086711;
cl__3 = 0.12324;
Point(1) = {0.4375, -3.692505, 1, cl__1};
Point(2) = {0.4375, -3.692505, 0, cl__1};
Point(3) = {0.4375, 4.281935000000001, 1, cl__1};
Point(4) = {0.4375, 4.281935000000001, 0, cl__1};
Point(5) = {36.970378, -3.692505, 0, cl__1};
Point(6) = {36.970378, -3.692505, 1, cl__1};
Point(7) = {36.970378, 4.281935000000001, 1, cl__1};
Point(8) = {11.798243, -1.887157, 1, cl__2};
Point(9) = {8.132063, -1.214789, 1, cl__3};
Point(10) = {36.970378, 4.281935000000001, 0, cl__1};
Point(11) = {11.798243, -1.887157, 0, cl__2};
Point(12) = {8.132063, -1.214789, 0, cl__3};
Line(1) = {2, 1};
Line(2) = {1, 3};
Line(3) = {4, 3};
Line(4) = {2, 4};
Line(5) = {2, 5};
Line(6) = {5, 6};
Line(7) = {1, 6};
Line(8) = {3, 7};
Line(9) = {6, 7};
p10 = newp;
Point(p10 + 1) = {11.78756740007847, -1.75151064171557, 1};
Point(p10 + 2) = {11.75580346901424, -1.619204346956556, 1};
Point(p10 + 3) = {11.70373334020855, -1.493495935799342, 1};
Point(p10 + 4) = {11.63263915304344, -1.377480766528917, 1};
Point(p10 + 5) = {11.54427148235501, -1.274015517644989, 1};
Point(p10 + 6) = {11.44080623347108, -1.185647846956556, 1};
Point(p10 + 7) = {11.32479106420066, -1.114553659791452, 1};
Point(p10 + 8) = {11.19908265304344, -1.062483530985761, 1};
Point(p10 + 9) = {11.06677635828443, -1.030719599921528, 1};
Point(p10 + 10) = {10.93113, -1.020044, 1};
Point(p10 + 11) = {10.79548364171557, -1.030719599921528, 1};
Point(p10 + 12) = {10.66317734695656, -1.062483530985761, 1};
Point(p10 + 13) = {10.53746893579934, -1.114553659791452, 1};
Point(p10 + 14) = {10.42145376652892, -1.185647846956556, 1};
Point(p10 + 15) = {10.31798851764499, -1.274015517644989, 1};
Point(p10 + 16) = {10.22962084695656, -1.377480766528917, 1};
Point(p10 + 17) = {10.15852665979145, -1.493495935799342, 1};
Point(p10 + 18) = {10.10645653098576, -1.619204346956556, 1};
Point(p10 + 19) = {10.07469259992153, -1.75151064171557, 1};
Point(p10 + 20) = {10.064017, -1.887157, 1};
Point(p10 + 21) = {10.07469259992153, -2.022803358284429, 1};
Point(p10 + 22) = {10.10645653098576, -2.155109653043444, 1};
Point(p10 + 23) = {10.15852665979145, -2.280818064200657, 1};
Point(p10 + 24) = {10.22962084695656, -2.396833233471083, 1};
Point(p10 + 25) = {10.31798851764499, -2.500298482355011, 1};
Point(p10 + 26) = {10.42145376652892, -2.588666153043444, 1};
Point(p10 + 27) = {10.53746893579934, -2.659760340208548, 1};
Point(p10 + 28) = {10.66317734695656, -2.711830469014239, 1};
Point(p10 + 29) = {10.79548364171557, -2.743594400078472, 1};
Point(p10 + 30) = {10.93113, -2.75427, 1};
Point(p10 + 31) = {11.06677635828443, -2.743594400078472, 1};
Point(p10 + 32) = {11.19908265304344, -2.711830469014239, 1};
Point(p10 + 33) = {11.32479106420066, -2.659760340208548, 1};
Point(p10 + 34) = {11.44080623347108, -2.588666153043444, 1};
Point(p10 + 35) = {11.54427148235501, -2.500298482355011, 1};
Point(p10 + 36) = {11.63263915304344, -2.396833233471083, 1};
Point(p10 + 37) = {11.70373334020855, -2.280818064200658, 1};
Point(p10 + 38) = {11.75580346901424, -2.155109653043444, 1};
Point(p10 + 39) = {11.78756740007847, -2.02280335828443, 1};
Spline(10) = {8, p10 + 1, p10 + 2, p10 + 3, p10 + 4, p10 + 5, p10 + 6, p10 + 7, p10 + 8, p10 + 9, p10 + 10, p10 + 11, p10 + 12, p10 + 13, p10 + 14, p10 + 15, p10 + 16, p10 + 17, p10 + 18, p10 + 19, p10 + 20, p10 + 21, p10 + 22, p10 + 23, p10 + 24, p10 + 25, p10 + 26, p10 + 27, p10 + 28, p10 + 29, p10 + 30, p10 + 31, p10 + 32, p10 + 33, p10 + 34, p10 + 35, p10 + 36, p10 + 37, p10 + 38, p10 + 39, 8};
p11 = newp;
Point(p11 + 1) = {8.11689008632613, -1.021998852415489, 1};
Point(p11 + 2) = {8.07174495279518, -0.833955838098326, 1};
Point(p11 + 3) = {7.997739222422793, -0.655290200139983, 1};
Point(p11 + 4) = {7.896695161901674, -0.4904012795042514, 1};
Point(p11 + 5) = {7.771100811347864, -0.3433491886521365, 1};
Point(p11 + 6) = {7.624048720495749, -0.217754838098326, 1};
Point(p11 + 7) = {7.459159799860017, -0.1167107775772072, 1};
Point(p11 + 8) = {7.280494161901674, -0.04270504720482005, 1};
Point(p11 + 9) = {7.09245114758451, 0.002440086326129132, 1};
Point(p11 + 10) = {6.899661, 0.0176130000000001, 1};
Point(p11 + 11) = {6.70687085241549, 0.00244008632612891, 1};
Point(p11 + 12) = {6.518827838098326, -0.04270504720482005, 1};
Point(p11 + 13) = {6.340162200139983, -0.1167107775772069, 1};
Point(p11 + 14) = {6.175273279504252, -0.217754838098326, 1};
Point(p11 + 15) = {6.028221188652137, -0.3433491886521363, 1};
Point(p11 + 16) = {5.902626838098326, -0.4904012795042513, 1};
Point(p11 + 17) = {5.801582777577208, -0.6552902001399828, 1};
Point(p11 + 18) = {5.72757704720482, -0.8339558380983259, 1};
Point(p11 + 19) = {5.682431913673871, -1.021998852415489, 1};
Point(p11 + 20) = {5.667259, -1.214789, 1};
Point(p11 + 21) = {5.682431913673871, -1.40757914758451, 1};
Point(p11 + 22) = {5.72757704720482, -1.595622161901674, 1};
Point(p11 + 23) = {5.801582777577207, -1.774287799860016, 1};
Point(p11 + 24) = {5.902626838098326, -1.939176720495748, 1};
Point(p11 + 25) = {6.028221188652136, -2.086228811347863, 1};
Point(p11 + 26) = {6.175273279504252, -2.211823161901674, 1};
Point(p11 + 27) = {6.340162200139983, -2.312867222422793, 1};
Point(p11 + 28) = {6.518827838098326, -2.38687295279518, 1};
Point(p11 + 29) = {6.70687085241549, -2.432018086326129, 1};
Point(p11 + 30) = {6.899661, -2.447191, 1};
Point(p11 + 31) = {7.09245114758451, -2.432018086326129, 1};
Point(p11 + 32) = {7.280494161901673, -2.38687295279518, 1};
Point(p11 + 33) = {7.459159799860017, -2.312867222422793, 1};
Point(p11 + 34) = {7.624048720495749, -2.211823161901674, 1};
Point(p11 + 35) = {7.771100811347863, -2.086228811347864, 1};
Point(p11 + 36) = {7.896695161901674, -1.939176720495749, 1};
Point(p11 + 37) = {7.997739222422792, -1.774287799860017, 1};
Point(p11 + 38) = {8.07174495279518, -1.595622161901674, 1};
Point(p11 + 39) = {8.116890086326128, -1.407579147584511, 1};
Spline(11) = {9, p11 + 1, p11 + 2, p11 + 3, p11 + 4, p11 + 5, p11 + 6, p11 + 7, p11 + 8, p11 + 9, p11 + 10, p11 + 11, p11 + 12, p11 + 13, p11 + 14, p11 + 15, p11 + 16, p11 + 17, p11 + 18, p11 + 19, p11 + 20, p11 + 21, p11 + 22, p11 + 23, p11 + 24, p11 + 25, p11 + 26, p11 + 27, p11 + 28, p11 + 29, p11 + 30, p11 + 31, p11 + 32, p11 + 33, p11 + 34, p11 + 35, p11 + 36, p11 + 37, p11 + 38, p11 + 39, 9};
Line(12) = {4, 10};
Line(13) = {10, 7};
Line(14) = {5, 10};
p15 = newp;
Point(p15 + 1) = {11.78756740007847, -1.75151064171557, 0};
Point(p15 + 2) = {11.75580346901424, -1.619204346956556, 0};
Point(p15 + 3) = {11.70373334020855, -1.493495935799342, 0};
Point(p15 + 4) = {11.63263915304344, -1.377480766528917, 0};
Point(p15 + 5) = {11.54427148235501, -1.274015517644989, 0};
Point(p15 + 6) = {11.44080623347108, -1.185647846956556, 0};
Point(p15 + 7) = {11.32479106420066, -1.114553659791452, 0};
Point(p15 + 8) = {11.19908265304344, -1.062483530985761, 0};
Point(p15 + 9) = {11.06677635828443, -1.030719599921528, 0};
Point(p15 + 10) = {10.93113, -1.020044, 0};
Point(p15 + 11) = {10.79548364171557, -1.030719599921528, 0};
Point(p15 + 12) = {10.66317734695656, -1.062483530985761, 0};
Point(p15 + 13) = {10.53746893579934, -1.114553659791452, 0};
Point(p15 + 14) = {10.42145376652892, -1.185647846956556, 0};
Point(p15 + 15) = {10.31798851764499, -1.274015517644989, 0};
Point(p15 + 16) = {10.22962084695656, -1.377480766528917, 0};
Point(p15 + 17) = {10.15852665979145, -1.493495935799342, 0};
Point(p15 + 18) = {10.10645653098576, -1.619204346956556, 0};
Point(p15 + 19) = {10.07469259992153, -1.75151064171557, 0};
Point(p15 + 20) = {10.064017, -1.887157, 0};
Point(p15 + 21) = {10.07469259992153, -2.022803358284429, 0};
Point(p15 + 22) = {10.10645653098576, -2.155109653043444, 0};
Point(p15 + 23) = {10.15852665979145, -2.280818064200657, 0};
Point(p15 + 24) = {10.22962084695656, -2.396833233471083, 0};
Point(p15 + 25) = {10.31798851764499, -2.500298482355011, 0};
Point(p15 + 26) = {10.42145376652892, -2.588666153043444, 0};
Point(p15 + 27) = {10.53746893579934, -2.659760340208548, 0};
Point(p15 + 28) = {10.66317734695656, -2.711830469014239, 0};
Point(p15 + 29) = {10.79548364171557, -2.743594400078472, 0};
Point(p15 + 30) = {10.93113, -2.75427, 0};
Point(p15 + 31) = {11.06677635828443, -2.743594400078472, 0};
Point(p15 + 32) = {11.19908265304344, -2.711830469014239, 0};
Point(p15 + 33) = {11.32479106420066, -2.659760340208548, 0};
Point(p15 + 34) = {11.44080623347108, -2.588666153043444, 0};
Point(p15 + 35) = {11.54427148235501, -2.500298482355011, 0};
Point(p15 + 36) = {11.63263915304344, -2.396833233471083, 0};
Point(p15 + 37) = {11.70373334020855, -2.280818064200658, 0};
Point(p15 + 38) = {11.75580346901424, -2.155109653043444, 0};
Point(p15 + 39) = {11.78756740007847, -2.02280335828443, 0};
Spline(15) = {11, p15 + 1, p15 + 2, p15 + 3, p15 + 4, p15 + 5, p15 + 6, p15 + 7, p15 + 8, p15 + 9, p15 + 10, p15 + 11, p15 + 12, p15 + 13, p15 + 14, p15 + 15, p15 + 16, p15 + 17, p15 + 18, p15 + 19, p15 + 20, p15 + 21, p15 + 22, p15 + 23, p15 + 24, p15 + 25, p15 + 26, p15 + 27, p15 + 28, p15 + 29, p15 + 30, p15 + 31, p15 + 32, p15 + 33, p15 + 34, p15 + 35, p15 + 36, p15 + 37, p15 + 38, p15 + 39, 11};
p16 = newp;
Point(p16 + 1) = {8.11689008632613, -1.021998852415489, 0};
Point(p16 + 2) = {8.07174495279518, -0.833955838098326, 0};
Point(p16 + 3) = {7.997739222422793, -0.655290200139983, 0};
Point(p16 + 4) = {7.896695161901674, -0.4904012795042514, 0};
Point(p16 + 5) = {7.771100811347864, -0.3433491886521365, 0};
Point(p16 + 6) = {7.624048720495749, -0.217754838098326, 0};
Point(p16 + 7) = {7.459159799860017, -0.1167107775772072, 0};
Point(p16 + 8) = {7.280494161901674, -0.04270504720482005, 0};
Point(p16 + 9) = {7.09245114758451, 0.002440086326129132, 0};
Point(p16 + 10) = {6.899661, 0.0176130000000001, 0};
Point(p16 + 11) = {6.70687085241549, 0.00244008632612891, 0};
Point(p16 + 12) = {6.518827838098326, -0.04270504720482005, 0};
Point(p16 + 13) = {6.340162200139983, -0.1167107775772069, 0};
Point(p16 + 14) = {6.175273279504252, -0.217754838098326, 0};
Point(p16 + 15) = {6.028221188652137, -0.3433491886521363, 0};
Point(p16 + 16) = {5.902626838098326, -0.4904012795042513, 0};
Point(p16 + 17) = {5.801582777577208, -0.6552902001399828, 0};
Point(p16 + 18) = {5.72757704720482, -0.8339558380983259, 0};
Point(p16 + 19) = {5.682431913673871, -1.021998852415489, 0};
Point(p16 + 20) = {5.667259, -1.214789, 0};
Point(p16 + 21) = {5.682431913673871, -1.40757914758451, 0};
Point(p16 + 22) = {5.72757704720482, -1.595622161901674, 0};
Point(p16 + 23) = {5.801582777577207, -1.774287799860016, 0};
Point(p16 + 24) = {5.902626838098326, -1.939176720495748, 0};
Point(p16 + 25) = {6.028221188652136, -2.086228811347863, 0};
Point(p16 + 26) = {6.175273279504252, -2.211823161901674, 0};
Point(p16 + 27) = {6.340162200139983, -2.312867222422793, 0};
Point(p16 + 28) = {6.518827838098326, -2.38687295279518, 0};
Point(p16 + 29) = {6.70687085241549, -2.432018086326129, 0};
Point(p16 + 30) = {6.899661, -2.447191, 0};
Point(p16 + 31) = {7.09245114758451, -2.432018086326129, 0};
Point(p16 + 32) = {7.280494161901673, -2.38687295279518, 0};
Point(p16 + 33) = {7.459159799860017, -2.312867222422793, 0};
Point(p16 + 34) = {7.624048720495749, -2.211823161901674, 0};
Point(p16 + 35) = {7.771100811347863, -2.086228811347864, 0};
Point(p16 + 36) = {7.896695161901674, -1.939176720495749, 0};
Point(p16 + 37) = {7.997739222422792, -1.774287799860017, 0};
Point(p16 + 38) = {8.07174495279518, -1.595622161901674, 0};
Point(p16 + 39) = {8.116890086326128, -1.407579147584511, 0};
Spline(16) = {12, p16 + 1, p16 + 2, p16 + 3, p16 + 4, p16 + 5, p16 + 6, p16 + 7, p16 + 8, p16 + 9, p16 + 10, p16 + 11, p16 + 12, p16 + 13, p16 + 14, p16 + 15, p16 + 16, p16 + 17, p16 + 18, p16 + 19, p16 + 20, p16 + 21, p16 + 22, p16 + 23, p16 + 24, p16 + 25, p16 + 26, p16 + 27, p16 + 28, p16 + 29, p16 + 30, p16 + 31, p16 + 32, p16 + 33, p16 + 34, p16 + 35, p16 + 36, p16 + 37, p16 + 38, p16 + 39, 12};
Line(17) = {11, 8};
Line(18) = {12, 9};
Curve Loop(1) = {-1, 4, 3, -2};
Plane Surface(1) = {1};
Curve Loop(2) = {-5, 1, 7, -6};
Plane Surface(2) = {2};
Curve Loop(3) = {-2, 7, 9, -8, -10, -11};
Plane Surface(3) = {3};
Curve Loop(4) = {-12, 3, 8, -13};
Plane Surface(4) = {4};
Curve Loop(5) = {-4, 5, 14, -12, -15, -16};
Plane Surface(5) = {5};
Curve Loop(6) = {-6, 14, 13, -9};
Plane Surface(6) = {6};
Curve Loop(7) = {-10, -17, 15, 17};
Surface(7) = {7};
Curve Loop(8) = {-11, -18, 16, 18};
Surface(8) = {8};
Surface Loop(1) = {1, 2, 3, 4, 5, 6, 7, 8};
Volume(1) = {1};
Physical Surface("INFLOW") = {1};
Physical Surface("OUTFLOW") = {6};
Physical Surface("OBSTACLE") = {7, 8};
Physical Surface("WALL_Y") = {2, 4};
Physical Surface("WALL_Z") = {3, 5};
Physical Volume("FLUID") = {1};
