cl__1 = 0.330861;
cl__2 = 0.400864;
cl__3 = 3.328089;
cl__4 = 0.081041;
Point(1) = {0.068286, -3.651134, 1, cl__1};
Point(2) = {0.068286, -3.651134, 0, cl__1};
Point(3) = {0.068286, 4.53555, 1, cl__2};
Point(4) = {0.068286, 4.53555, 0, cl__2};
Point(5) = {33.028204, -3.651134, 0, cl__3};
Point(6) = {33.028204, -3.651134, 1, cl__3};
Point(7) = {33.028204, 4.53555, 1, cl__3};
Point(8) = {2.665672, 0.0600649999999998, 1, cl__4};
Point(9) = {33.028204, 4.53555, 0, cl__3};
Point(10) = {2.665672, 0.0600649999999998, 0, cl__4};
Line(1) = {2, 1};
Line(2) = {1, 3};
Line(3) = {4, 3};
Line(4) = {2, 4};
Line(5) = {2, 5};
Line(6) = {5, 6};
Line(7) = {1, 6};
Line(8) = {3, 7};
Line(9) = {6, 7};
p10 = newp;
Point(p10 + 1) = {2.655694532725025, 0.1868407419443234, 1};
Point(p10 + 2) = {2.626007809257723, 0.3104948443774124, 1};
Point(p10 + 3) = {2.577342815254447, 0.4279825329129266, 1};
Point(p10 + 4) = {2.510897844377412, 0.5364108707398386, 1};
Point(p10 + 5) = {2.428308992327828, 0.6331099923278276, 1};
Point(p10 + 6) = {2.331609870739839, 0.7156988443774125, 1};
Point(p10 + 7) = {2.223181532912927, 0.7821438152544468, 1};
Point(p10 + 8) = {2.105693844377412, 0.8308088092577228, 1};
Point(p10 + 9) = {1.982039741944323, 0.8604955327250244, 1};
Point(p10 + 10) = {1.855264, 0.8704730000000001, 1};
Point(p10 + 11) = {1.728488258055676, 0.8604955327250243, 1};
Point(p10 + 12) = {1.604834155622588, 0.8308088092577229, 1};
Point(p10 + 13) = {1.487346467087074, 0.7821438152544469, 1};
Point(p10 + 14) = {1.378918129260162, 0.7156988443774125, 1};
Point(p10 + 15) = {1.282219007672172, 0.6331099923278277, 1};
Point(p10 + 16) = {1.199630155622588, 0.5364108707398387, 1};
Point(p10 + 17) = {1.133185184745553, 0.4279825329129267, 1};
Point(p10 + 18) = {1.084520190742277, 0.3104948443774124, 1};
Point(p10 + 19) = {1.054833467274976, 0.1868407419443235, 1};
Point(p10 + 20) = {1.044856, 0.0600650000000001, 1};
Point(p10 + 21) = {1.054833467274976, -0.0667107419443233, 1};
Point(p10 + 22) = {1.084520190742277, -0.1903648443774127, 1};
Point(p10 + 23) = {1.133185184745553, -0.3078525329129262, 1};
Point(p10 + 24) = {1.199630155622587, -0.4162808707398385, 1};
Point(p10 + 25) = {1.282219007672172, -0.5129799923278275, 1};
Point(p10 + 26) = {1.378918129260161, -0.5955688443774123, 1};
Point(p10 + 27) = {1.487346467087073, -0.6620138152544467, 1};
Point(p10 + 28) = {1.604834155622588, -0.7106788092577228, 1};
Point(p10 + 29) = {1.728488258055676, -0.7403655327250243, 1};
Point(p10 + 30) = {1.855264, -0.750343, 1};
Point(p10 + 31) = {1.982039741944323, -0.7403655327250244, 1};
Point(p10 + 32) = {2.105693844377412, -0.7106788092577229, 1};
Point(p10 + 33) = {2.223181532912927, -0.6620138152544468, 1};
Point(p10 + 34) = {2.331609870739838, -0.5955688443774125, 1};
Point(p10 + 35) = {2.428308992327827, -0.5129799923278278, 1};
Point(p10 + 36) = {2.510897844377412, -0.4162808707398388, 1};
Point(p10 + 37) = {2.577342815254447, -0.3078525329129268, 1};
Point(p10 + 38) = {2.626007809257723, -0.1903648443774126, 1};
Point(p10 + 39) = {2.655694532725025, -0.06671074194432358, 1};
Spline(10) = {8, p10 + 1, p10 + 2, p10 + 3, p10 + 4, p10 + 5, p10 + 6, p10 + 7, p10 + 8, p10 + 9, p10 + 10, p10 + 11, p10 + 12, p10 + 13, p10 + 14, p10 + 15, p10 + 16, p10 + 17, p10 + 18, p10 + 19, p10 + 20, p10 + 21, p10 + 22, p10 + 23, p10 + 24, p10 + 25, p10 + 26, p10 + 27, p10 + 28, p10 + 29, p10 + 30, p10 + 31, p10 + 32, p10 + 33, p10 + 34, p10 + 35, p10 + 36, p10 + 37, p10 + 38, p10 + 39, 8};
Line(11) = {4, 9};
Line(12) = {9, 7};
Line(13) = {5, 9};
p14 = newp;
Point(p14 + 1) = {2.655694532725025, 0.1868407419443234, 0};
Point(p14 + 2) = {2.626007809257723, 0.3104948443774124, 0};
Point(p14 + 3) = {2.577342815254447, 0.4279825329129266, 0};
Point(p14 + 4) = {2.510897844377412, 0.5364108707398386, 0};
Point(p14 + 5) = {2.428308992327828, 0.6331099923278276, 0};
Point(p14 + 6) = {2.331609870739839, 0.7156988443774125, 0};
Point(p14 + 7) = {2.223181532912927, 0.7821438152544468, 0};
Point(p14 + 8) = {2.105693844377412, 0.8308088092577228, 0};
Point(p14 + 9) = {1.982039741944323, 0.8604955327250244, 0};
Point(p14 + 10) = {1.855264, 0.8704730000000001, 0};
Point(p14 + 11) = {1.728488258055676, 0.8604955327250243, 0};
Point(p14 + 12) = {1.604834155622588, 0.8308088092577229, 0};
Point(p14 + 13) = {1.487346467087074, 0.7821438152544469, 0};
Point(p14 + 14) = {1.378918129260162, 0.7156988443774125, 0};
Point(p14 + 15) = {1.282219007672172, 0.6331099923278277, 0};
Point(p14 + 16) = {1.199630155622588, 0.5364108707398387, 0};
Point(p14 + 17) = {1.133185184745553, 0.4279825329129267, 0};
Point(p14 + 18) = {1.084520190742277, 0.3104948443774124, 0};
Point(p14 + 19) = {1.054833467274976, 0.1868407419443235, 0};
Point(p14 + 20) = {1.044856, 0.0600650000000001, 0};
Point(p14 + 21) = {1.054833467274976, -0.0667107419443233, 0};
Point(p14 + 22) = {1.084520190742277, -0.1903648443774127, 0};
Point(p14 + 23) = {1.133185184745553, -0.3078525329129262, 0};
Point(p14 + 24) = {1.199630155622587, -0.4162808707398385, 0};
Point(p14 + 25) = {1.282219007672172, -0.5129799923278275, 0};
Point(p14 + 26) = {1.378918129260161, -0.5955688443774123, 0};
Point(p14 + 27) = {1.487346467087073, -0.6620138152544467, 0};
Point(p14 + 28) = {1.604834155622588, -0.7106788092577228, 0};
Point(p14 + 29) = {1.728488258055676, -0.7403655327250243, 0};
Point(p14 + 30) = {1.855264, -0.750343, 0};
Point(p14 + 31) = {1.982039741944323, -0.7403655327250244, 0};
Point(p14 + 32) = {2.105693844377412, -0.7106788092577229, 0};
Point(p14 + 33) = {2.223181532912927, -0.6620138152544468, 0};
Point(p14 + 34) = {2.331609870739838, -0.5955688443774125, 0};
Point(p14 + 35) = {2.428308992327827, -0.5129799923278278, 0};
Point(p14 + 36) = {2.510897844377412, -0.4162808707398388, 0};
Point(p14 + 37) = {2.577342815254447, -0.3078525329129268, 0};
Point(p14 + 38) = {2.626007809257723, -0.1903648443774126, 0};
Point(p14 + 39) = {2.655694532725025, -0.06671074194432358, 0};
Spline(14) = {10, p14 + 1, p14 + 2, p14 + 3, p14 + 4, p14 + 5, p14 + 6, p14 + 7, p14 + 8, p14 + 9, p14 + 10, p14 + 11, p14 + 12, p14 + 13, p14 + 14, p14 + 15, p14 + 16, p14 + 17, p14 + 18, p14 + 19, p14 + 20, p14 + 21, p14 + 22, p14 + 23, p14 + 24, p14 + 25, p14 + 26, p14 + 27, p14 + 28, p14 + 29, p14 + 30, p14 + 31, p14 + 32, p14 + 33, p14 + 34, p14 + 35, p14 + 36, p14 + 37, p14 + 38, p14 + 39, 10};
Line(15) = {10, 8};
Curve Loop(1) = {-1, 4, 3, -2};
Plane Surface(1) = {1};
Curve Loop(2) = {-5, 1, 7, -6};
Plane Surface(2) = {2};
Curve Loop(3) = {-2, 7, 9, -8, -10};
Plane Surface(3) = {3};
Curve Loop(4) = {-11, 3, 8, -12};
Plane Surface(4) = {4};
Curve Loop(5) = {-4, 5, 13, -11, -14};
Plane Surface(5) = {5};
Curve Loop(6) = {-6, 13, 12, -9};
Plane Surface(6) = {6};
Curve Loop(7) = {-10, -15, 14, 15};
Surface(7) = {7};
Surface Loop(1) = {1, 2, 3, 4, 5, 6, 7};
Volume(1) = {1};
Physical Surface("INFLOW") = {1};
Physical Surface("OUTFLOW") = {6};
Physical Surface("OBSTACLE") = {7};
Physical Surface("WALL_Y") = {2, 4};
Physical Surface("WALL_Z") = {3, 5};
Physical Volume("FLUID") = {1};
