cl__1 = 1;
cl__2 = 0.124843;
cl__3 = 0.100411;
Point(1) = {0.935308, -3.5466, 1, cl__1};
Point(2) = {0.935308, -3.5466, 0, cl__1};
Point(3) = {0.935308, 5.224232000000001, 1, cl__1};
Point(4) = {0.935308, 5.224232000000001, 0, cl__1};
Point(5) = {34.829319, -3.5466, 0, cl__1};
Point(6) = {34.829319, -3.5466, 1, cl__1};
Point(7) = {34.829319, 5.224232000000001, 1, cl__1};
Point(8) = {15.624071, 1.754292, 1, cl__2};
Point(9) = {21.920719, 3.356561, 1, cl__3};
Point(10) = {34.829319, 5.224232000000001, 0, cl__1};
Point(11) = {15.624071, 1.754292, 0, cl__2};
Point(12) = {21.920719, 3.356561, 0, cl__3};
Line(1) = {2, 1};
Line(2) = {1, 3};
Line(3) = {4, 3};
Line(4) = {2, 4};
Line(5) = {2, 5};
Line(6) = {5, 6};
Line(7) = {1, 6};
Line(8) = {3, 7};
Line(9) = {6, 7};
p10 = newp;
Point(p10 + 1) = {15.60870079198417, 1.94958900988678, 1};
Point(p10 + 2) = {15.56296863346881, 2.140077159236532, 1};
Point(p10 + 3) = {15.48800060197291, 2.321065997618343, 1};
Point(p10 + 4) = {15.38564265923653, 2.488098979163735, 1};
Point(p10 + 5) = {15.25841519751638, 2.637063197516378, 1};
Point(p10 + 6) = {15.10945097916374, 2.764290659236532, 1};
Point(p10 + 7) = {14.94241799761834, 2.866648601972911, 1};
Point(p10 + 8) = {14.76142915923653, 2.94161663346881, 1};
Point(p10 + 9) = {14.57094100988678, 2.987348791984166, 1};
Point(p10 + 10) = {14.375644, 3.002719, 1};
Point(p10 + 11) = {14.18034699011322, 2.987348791984166, 1};
Point(p10 + 12) = {13.98985884076347, 2.94161663346881, 1};
Point(p10 + 13) = {13.80887000238166, 2.866648601972911, 1};
Point(p10 + 14) = {13.64183702083626, 2.764290659236532, 1};
Point(p10 + 15) = {13.49287280248362, 2.637063197516378, 1};
Point(p10 + 16) = {13.36564534076347, 2.488098979163735, 1};
Point(p10 + 17) = {13.26328739802709, 2.321065997618343, 1};
Point(p10 + 18) = {13.18831936653119, 2.140077159236533, 1};
Point(p10 + 19) = {13.14258720801583, 1.94958900988678, 1};
Point(p10 + 20) = {13.127217, 1.754292, 1};
Point(p10 + 21) = {13.14258720801583, 1.55899499011322, 1};
Point(p10 + 22) = {13.18831936653119, 1.368506840763467, 1};
Point(p10 + 23) = {13.26328739802709, 1.187518002381657, 1};
Point(p10 + 24) = {13.36564534076347, 1.020485020836265, 1};
Point(p10 + 25) = {13.49287280248362, 0.8715208024836221, 1};
Point(p10 + 26) = {13.64183702083626, 0.7442933407634675, 1};
Point(p10 + 27) = {13.80887000238166, 0.6419353980270885, 1};
Point(p10 + 28) = {13.98985884076347, 0.5669673665311903, 1};
Point(p10 + 29) = {14.18034699011322, 0.521235208015834, 1};
Point(p10 + 30) = {14.375644, 0.505865, 1};
Point(p10 + 31) = {14.57094100988678, 0.521235208015834, 1};
Point(p10 + 32) = {14.76142915923653, 0.5669673665311903, 1};
Point(p10 + 33) = {14.94241799761834, 0.6419353980270885, 1};
Point(p10 + 34) = {15.10945097916373, 0.7442933407634673, 1};
Point(p10 + 35) = {15.25841519751638, 0.8715208024836218, 1};
Point(p10 + 36) = {15.38564265923653, 1.020485020836264, 1};
Point(p10 + 37) = {15.48800060197291, 1.187518002381657, 1};
Point(p10 + 38) = {15.56296863346881, 1.368506840763467, 1};
Point(p10 + 39) = {15.60870079198417, 1.558994990113219, 1};
Spline(10) = {8, p10 + 1, p10 + 2, p10 + 3, p10 + 4, p10 + 5, p10 + 6, p10 + 7, p10 + 8, p10 + 9, p10 + 10, p10 + 11, p10 + 12, p10 + 13, p10 + 14, p10 + 15, p10 + 16, p10 + 17, p10 + 18, p10 + 19, p10 + 20, p10 + 21, p10 + 22, p10 + 23, p10 + 24, p10 + 25, p10 + 26, p10 + 27, p10 + 28, p10 + 29, p10 + 30, p10 + 31, p10 + 32, p10 + 33, p10 + 34, p10 + 35, p10 + 36, p10 + 37, p10 + 38, p10 + 39, 8};
p11 = newp;
Point(p11 + 1) = {21.90835673967499, 3.513638410691546, 1};
Point(p11 + 2) = {21.87157435857713, 3.666848054221829, 1};
Point(p11 + 3) = {21.81127756100278, 3.812417400693477, 1};
Point(p11 + 4) = {21.72895105422183, 3.946762049679395, 1};
Point(p11 + 5) = {21.62662199005722, 4.066573990057225, 1};
Point(p11 + 6) = {21.50681004967939, 4.168903054221829, 1};
Point(p11 + 7) = {21.37246540069348, 4.251229561002782, 1};
Point(p11 + 8) = {21.22689605422183, 4.311526358577127, 1};
Point(p11 + 9) = {21.07368641069155, 4.348308739674984, 1};
Point(p11 + 10) = {20.916609, 4.360671, 1};
Point(p11 + 11) = {20.75953158930846, 4.348308739674984, 1};
Point(p11 + 12) = {20.60632194577817, 4.311526358577127, 1};
Point(p11 + 13) = {20.46075259930652, 4.251229561002782, 1};
Point(p11 + 14) = {20.32640795032061, 4.168903054221829, 1};
Point(p11 + 15) = {20.20659600994278, 4.066573990057225, 1};
Point(p11 + 16) = {20.10426694577817, 3.946762049679395, 1};
Point(p11 + 17) = {20.02194043899722, 3.812417400693477, 1};
Point(p11 + 18) = {19.96164364142287, 3.666848054221829, 1};
Point(p11 + 19) = {19.92486126032502, 3.513638410691546, 1};
Point(p11 + 20) = {19.912499, 3.356561, 1};
Point(p11 + 21) = {19.92486126032502, 3.199483589308454, 1};
Point(p11 + 22) = {19.96164364142287, 3.046273945778172, 1};
Point(p11 + 23) = {20.02194043899722, 2.900704599306524, 1};
Point(p11 + 24) = {20.10426694577817, 2.766359950320605, 1};
Point(p11 + 25) = {20.20659600994278, 2.646548009942776, 1};
Point(p11 + 26) = {20.3264079503206, 2.544218945778172, 1};
Point(p11 + 27) = {20.46075259930652, 2.461892438997218, 1};
Point(p11 + 28) = {20.60632194577817, 2.401595641422873, 1};
Point(p11 + 29) = {20.75953158930846, 2.364813260325016, 1};
Point(p11 + 30) = {20.916609, 2.352451, 1};
Point(p11 + 31) = {21.07368641069155, 2.364813260325016, 1};
Point(p11 + 32) = {21.22689605422183, 2.401595641422873, 1};
Point(p11 + 33) = {21.37246540069348, 2.461892438997218, 1};
Point(p11 + 34) = {21.50681004967939, 2.544218945778172, 1};
Point(p11 + 35) = {21.62662199005722, 2.646548009942776, 1};
Point(p11 + 36) = {21.72895105422183, 2.766359950320605, 1};
Point(p11 + 37) = {21.81127756100278, 2.900704599306524, 1};
Point(p11 + 38) = {21.87157435857713, 3.046273945778172, 1};
Point(p11 + 39) = {21.90835673967499, 3.199483589308453, 1};
Spline(11) = {9, p11 + 1, p11 + 2, p11 + 3, p11 + 4, p11 + 5, p11 + 6, p11 + 7, p11 + 8, p11 + 9, p11 + 10, p11 + 11, p11 + 12, p11 + 13, p11 + 14, p11 + 15, p11 + 16, p11 + 17, p11 + 18, p11 + 19, p11 + 20, p11 + 21, p11 + 22, p11 + 23, p11 + 24, p11 + 25, p11 + 26, p11 + 27, p11 + 28, p11 + 29, p11 + 30, p11 + 31, p11 + 32, p11 + 33, p11 + 34, p11 + 35, p11 + 36, p11 + 37, p11 + 38, p11 + 39, 9};
Line(12) = {4, 10};
Line(13) = {10, 7};
Line(14) = {5, 10};
p15 = newp;
Point(p15 + 1) = {15.60870079198417, 1.94958900988678, 0};
Point(p15 + 2) = {15.56296863346881, 2.140077159236532, 0};
Point(p15 + 3) = {15.48800060197291, 2.321065997618343, 0};
Point(p15 + 4) = {15.38564265923653, 2.488098979163735, 0};
Point(p15 + 5) = {15.25841519751638, 2.637063197516378, 0};
Point(p15 + 6) = {15.10945097916374, 2.764290659236532, 0};
Point(p15 + 7) = {14.94241799761834, 2.866648601972911, 0};
Point(p15 + 8) = {14.76142915923653, 2.94161663346881, 0};
Point(p15 + 9) = {14.57094100988678, 2.987348791984166, 0};
Point(p15 + 10) = {14.375644, 3.002719, 0};
Point(p15 + 11) = {14.18034699011322, 2.987348791984166, 0};
Point(p15 + 12) = {13.98985884076347, 2.94161663346881, 0};
Point(p15 + 13) = {13.80887000238166, 2.866648601972911, 0};
Point(p15 + 14) = {13.64183702083626, 2.764290659236532, 0};
Point(p15 + 15) = {13.49287280248362, 2.637063197516378, 0};
Point(p15 + 16) = {13.36564534076347, 2.488098979163735, 0};
Point(p15 + 17) = {13.26328739802709, 2.321065997618343, 0};
Point(p15 + 18) = {13.18831936653119, 2.140077159236533, 0};
Point(p15 + 19) = {13.14258720801583, 1.94958900988678, 0};
Point(p15 + 20) = {13.127217, 1.754292, 0};
Point(p15 + 21) = {13.14258720801583, 1.55899499011322, 0};
Point(p15 + 22) = {13.18831936653119, 1.368506840763467, 0};
Point(p15 + 23) = {13.26328739802709, 1.187518002381657, 0};
Point(p15 + 24) = {13.36564534076347, 1.020485020836265, 0};
Point(p15 + 25) = {13.49287280248362, 0.8715208024836221, 0};
Point(p15 + 26) = {13.64183702083626, 0.7442933407634675, 0};
Point(p15 + 27) = {13.80887000238166, 0.6419353980270885, 0};
Point(p15 + 28) = {13.98985884076347, 0.5669673665311903, 0};
Point(p15 + 29) = {14.18034699011322, 0.521235208015834, 0};
Point(p15 + 30) = {14.375644, 0.505865, 0};
Point(p15 + 31) = {14.57094100988678, 0.521235208015834, 0};
Point(p15 + 32) = {14.76142915923653, 0.5669673665311903, 0};
Point(p15 + 33) = {14.94241799761834, 0.6419353980270885, 0};
Point(p15 + 34) = {15.10945097916373, 0.7442933407634673, 0};
Point(p15 + 35) = {15.25841519751638, 0.8715208024836218, 0};
Point(p15 + 36) = {15.38564265923653, 1.020485020836264, 0};
Point(p15 + 37) = {15.48800060197291, 1.187518002381657, 0};
Point(p15 + 38) = {15.56296863346881, 1.368506840763467, 0};
Point(p15 + 39) = {15.60870079198417, 1.558994990113219, 0};
Spline(15) = {11, p15 + 1, p15 + 2, p15 + 3, p15 + 4, p15 + 5, p15 + 6, p15 + 7, p15 + 8, p15 + 9, p15 + 10, p15 + 11, p15 + 12, p15 + 13, p15 + 14, p15 + 15, p15 + 16, p15 + 17, p15 + 18, p15 + 19, p15 + 20, p15 + 21, p15 + 22, p15 + 23, p15 + 24, p15 + 25, p15 + 26, p15 + 27, p15 + 28, p15 + 29, p15 + 30, p15 + 31, p15 + 32, p15 + 33, p15 + 34, p15 + 35, p15 + 36, p15 + 37, p15 + 38, p15 + 39, 11};
p16 = newp;
Point(p16 + 1) = {21.90835673967499, 3.513638410691546, 0};
Point(p16 + 2) = {21.87157435857713, 3.666848054221829, 0};
Point(p16 + 3) = {21.81127756100278, 3.812417400693477, 0};
Point(p16 + 4) = {21.72895105422183, 3.946762049679395, 0};
Point(p16 + 5) = {21.62662199005722, 4.066573990057225, 0};
Point(p16 + 6) = {21.50681004967939, 4.168903054221829, 0};
Point(p16 + 7) = {21.37246540069348, 4.251229561002782, 0};
Point(p16 + 8) = {21.22689605422183, 4.311526358577127, 0};
Point(p16 + 9) = {21.07368641069155, 4.348308739674984, 0};
Point(p16 + 10) = {20.916609, 4.360671, 0};
Point(p16 + 11) = {20.75953158930846, 4.348308739674984, 0};
Point(p16 + 12) = {20.60632194577817, 4.311526358577127, 0};
Point(p16 + 13) = {20.46075259930652, 4.251229561002782, 0};
Point(p16 + 14) = {20.32640795032061, 4.168903054221829, 0};
Point(p16 + 15) = {20.20659600994278, 4.066573990057225, 0};
Point(p16 + 16) = {20.10426694577817, 3.946762049679395, 0};
Point(p16 + 17) = {20.02194043899722, 3.812417400693477, 0};
Point(p16 + 18) = {19.96164364142287, 3.666848054221829, 0};
Point(p16 + 19) = {19.92486126032502, 3.513638410691546, 0};
Point(p16 + 20) = {19.912499, 3.356561, 0};
Point(p16 + 21) = {19.92486126032502, 3.199483589308454, 0};
Point(p16 + 22) = {19.96164364142287, 3.046273945778172, 0};
Point(p16 + 23) = {20.02194043899722, 2.900704599306524, 0};
Point(p16 + 24) = {20.10426694577817, 2.766359950320605, 0};
Point(p16 + 25) = {20.20659600994278, 2.646548009942776, 0};
Point(p16 + 26) = {20.3264079503206, 2.544218945778172, 0};
Point(p16 + 27) = {20.46075259930652, 2.461892438997218, 0};
Point(p16 + 28) = {20.60632194577817, 2.401595641422873, 0};
Point(p16 + 29) = {20.75953158930846, 2.364813260325016, 0};
Point(p16 + 30) = {20.916609, 2.352451, 0};
Point(p16 + 31) = {21.07368641069155, 2.364813260325016, 0};
Point(p16 + 32) = {21.22689605422183, 2.401595641422873, 0};
Point(p16 + 33) = {21.37246540069348, 2.461892438997218, 0};
Point(p16 + 34) = {21.50681004967939, 2.544218945778172, 0};
Point(p16 + 35) = {21.62662199005722, 2.646548009942776, 0};
Point(p16 + 36) = {21.72895105422183, 2.766359950320605, 0};
Point(p16 + 37) = {21.81127756100278, 2.900704599306524, 0};
Point(p16 + 38) = {21.87157435857713, 3.046273945778172, 0};
Point(p16 + 39) = {21.90835673967499, 3.199483589308453, 0};
Spline(16) = {12, p16 + 1, p16 + 2, p16 + 3, p16 + 4, p16 + 5, p16 + 6, p16 + 7, p16 + 8, p16 + 9, p16 + 10, p16 + 11, p16 + 12, p16 + 13, p16 + 14, p16 + 15, p16 + 16, p16 + 17, p16 + 18, p16 + 19, p16 + 20, p16 + 21, p16 + 22, p16 + 23, p16 + 24, p16 + 25, p16 + 26, p16 + 27, p16 + 28, p16 + 29, p16 + 30, p16 + 31, p16 + 32, p16 + 33, p16 + 34, p16 + 35, p16 + 36, p16 + 37, p16 + 38, p16 + 39, 12};
Line(17) = {11, 8};
Line(18) = {12, 9};
Curve Loop(1) = {-1, 4, 3, -2};
Plane Surface(1) = {1};
Curve Loop(2) = {-5, 1, 7, -6};
Plane Surface(2) = {2};
Curve Loop(3) = {-2, 7, 9, -8, -10, -11};
Plane Surface(3) = {3};
Curve Loop(4) = {-12, 3, 8, -13};
Plane Surface(4) = {4};
Curve Loop(5) = {-4, 5, 14, -12, -15, -16};
Plane Surface(5) = {5};
Curve Loop(6) = {-6, 14, 13, -9};
Plane Surface(6) = {6};
Curve Loop(7) = {-10, -17, 15, 17};
Surface(7) = {7};
Curve Loop(8) = {-11, -18, 16, 18};
Surface(8) = {8};
Surface Loop(1) = {1, 2, 3, 4, 5, 6, 7, 8};
Volume(1) = {1};
Physical Surface("INFLOW") = {1};
Physical Surface("OUTFLOW") = {6};
Physical Surface("OBSTACLE") = {7, 8};
Physical Surface("WALL_Y") = {2, 4};
Physical Surface("WALL_Z") = {3, 5};
Physical Volume("FLUID") = {1};
