cl__1 = 0.59737;
cl__2 = 1.208093;
cl__3 = 3.109076;
cl__4 = 0.146422;
cl__5 = 0.057483;
Point(1) = {0.372492, -2.894916, 1, cl__1};
Point(2) = {0.372492, -2.894916, 0, cl__1};
Point(3) = {0.372492, 4.844027000000001, 1, cl__2};
Point(4) = {0.372492, 4.844027000000001, 0, cl__2};
Point(5) = {30.849024, -2.894916, 0, cl__1};
Point(6) = {30.849024, -2.894916, 1, cl__1};
Point(7) = {30.849024, 4.844027000000001, 1, cl__3};
Point(8) = {18.980933, -0.5031640000000003, 1, cl__4};
Point(9) = {4.693602, 2.476173999999999, 1, cl__5};
Point(10) = {30.849024, 4.844027000000001, 0, cl__3};
Point(11) = {18.980933, -0.5031640000000003, 0, cl__4};
Point(12) = {4.693602, 2.476173999999999, 0, cl__5};
Line(1) = {2, 1};
Line(2) = {1, 3};
Line(3) = {4, 3};
Line(4) = {2, 4};
Line(5) = {2, 5};
Line(6) = {5, 6};
Line(7) = {1, 6};
Line(8) = {3, 7};
Line(9) = {6, 7};
p10 = newp;
Point(p10 + 1) = {18.96290604668953, -0.2741098404677232, 1};
Point(p10 + 2) = {18.90926907017666, -0.05069575453030323, 1};
Point(p10 + 3) = {18.82134279083404, 0.1615770615476397, 1};
Point(p10 + 4) = {18.7012922454697, 0.3574817465411805, 1};
Point(p10 + 5) = {18.5520734769354, 0.5321944769354041, 1};
Point(p10 + 6) = {18.37736074654118, 0.6814132454696968, 1};
Point(p10 + 7) = {18.18145606154764, 0.8014637908340436, 1};
Point(p10 + 8) = {17.9691832454697, 0.8893900701766573, 1};
Point(p10 + 9) = {17.74576915953228, 0.9430270466895314, 1};
Point(p10 + 10) = {17.516715, 0.9610540000000001, 1};
Point(p10 + 11) = {17.28766084046772, 0.9430270466895314, 1};
Point(p10 + 12) = {17.06424675453031, 0.8893900701766573, 1};
Point(p10 + 13) = {16.85197393845236, 0.8014637908340438, 1};
Point(p10 + 14) = {16.65606925345882, 0.6814132454696968, 1};
Point(p10 + 15) = {16.4813565230646, 0.5321944769354043, 1};
Point(p10 + 16) = {16.3321377545303, 0.3574817465411807, 1};
Point(p10 + 17) = {16.21208720916596, 0.1615770615476398, 1};
Point(p10 + 18) = {16.12416092982334, -0.05069575453030306, 1};
Point(p10 + 19) = {16.07052395331047, -0.274109840467723, 1};
Point(p10 + 20) = {16.052497, -0.5031639999999997, 1};
Point(p10 + 21) = {16.07052395331047, -0.7322181595322765, 1};
Point(p10 + 22) = {16.12416092982334, -0.9556322454696972, 1};
Point(p10 + 23) = {16.21208720916596, -1.167905061547639, 1};
Point(p10 + 24) = {16.3321377545303, -1.36380974654118, 1};
Point(p10 + 25) = {16.4813565230646, -1.538522476935404, 1};
Point(p10 + 26) = {16.65606925345882, -1.687741245469697, 1};
Point(p10 + 27) = {16.85197393845236, -1.807791790834044, 1};
Point(p10 + 28) = {17.06424675453031, -1.895718070176657, 1};
Point(p10 + 29) = {17.28766084046772, -1.949355046689531, 1};
Point(p10 + 30) = {17.516715, -1.967382, 1};
Point(p10 + 31) = {17.74576915953228, -1.949355046689531, 1};
Point(p10 + 32) = {17.9691832454697, -1.895718070176657, 1};
Point(p10 + 33) = {18.18145606154764, -1.807791790834044, 1};
Point(p10 + 34) = {18.37736074654118, -1.687741245469697, 1};
Point(p10 + 35) = {18.5520734769354, -1.538522476935404, 1};
Point(p10 + 36) = {18.7012922454697, -1.363809746541181, 1};
Point(p10 + 37) = {18.82134279083404, -1.16790506154764, 1};
Point(p10 + 38) = {18.90926907017666, -0.9556322454696971, 1};
Point(p10 + 39) = {18.96290604668953, -0.732218159532277, 1};
Spline(10) = {8, p10 + 1, p10 + 2, p10 + 3, p10 + 4, p10 + 5, p10 + 6, p10 + 7, p10 + 8, p10 + 9, p10 + 10, p10 + 11, p10 + 12, p10 + 13, p10 + 14, p10 + 15, p10 + 16, p10 + 17, p10 + 18, p10 + 19, p10 + 20, p10 + 21, p10 + 22, p10 + 23, p10 + 24, p10 + 25, p10 + 26, p10 + 27, p10 + 28, p10 + 29, p10 + 30, p10 + 31, p10 + 32, p10 + 33, p10 + 34, p10 + 35, p10 + 36, p10 + 37, p10 + 38, p10 + 39, 8};
p11 = newp;
Point(p11 + 1) = {4.686524888824303, 2.566097223539076, 1};
Point(p11 + 2) = {4.665467817261943, 2.653806238876551, 1};
Point(p11 + 3) = {4.630949280299199, 2.737141358965284, 1};
Point(p11 + 4) = {4.583819238876551, 2.814050596575282, 1};
Point(p11 + 5) = {4.525238191029463, 2.882640191029463, 1};
Point(p11 + 6) = {4.456648596575282, 2.941221238876551, 1};
Point(p11 + 7) = {4.379739358965283, 2.988351280299199, 1};
Point(p11 + 8) = {4.296404238876551, 3.022869817261943, 1};
Point(p11 + 9) = {4.208695223539076, 3.043926888824303, 1};
Point(p11 + 10) = {4.118772, 3.051004, 1};
Point(p11 + 11) = {4.028848776460924, 3.043926888824303, 1};
Point(p11 + 12) = {3.941139761123449, 3.022869817261943, 1};
Point(p11 + 13) = {3.857804641034716, 2.9883512802992, 1};
Point(p11 + 14) = {3.780895403424718, 2.941221238876551, 1};
Point(p11 + 15) = {3.712305808970537, 2.882640191029463, 1};
Point(p11 + 16) = {3.653724761123449, 2.814050596575282, 1};
Point(p11 + 17) = {3.606594719700801, 2.737141358965284, 1};
Point(p11 + 18) = {3.572076182738057, 2.653806238876551, 1};
Point(p11 + 19) = {3.551019111175697, 2.566097223539076, 1};
Point(p11 + 20) = {3.543942, 2.476174, 1};
Point(p11 + 21) = {3.551019111175697, 2.386250776460924, 1};
Point(p11 + 22) = {3.572076182738057, 2.298541761123449, 1};
Point(p11 + 23) = {3.6065947197008, 2.215206641034717, 1};
Point(p11 + 24) = {3.653724761123449, 2.138297403424718, 1};
Point(p11 + 25) = {3.712305808970537, 2.069707808970537, 1};
Point(p11 + 26) = {3.780895403424718, 2.011126761123449, 1};
Point(p11 + 27) = {3.857804641034716, 1.963996719700801, 1};
Point(p11 + 28) = {3.941139761123449, 1.929478182738057, 1};
Point(p11 + 29) = {4.028848776460924, 1.908421111175697, 1};
Point(p11 + 30) = {4.118772, 1.901344, 1};
Point(p11 + 31) = {4.208695223539076, 1.908421111175697, 1};
Point(p11 + 32) = {4.29640423887655, 1.929478182738057, 1};
Point(p11 + 33) = {4.379739358965283, 1.9639967197008, 1};
Point(p11 + 34) = {4.456648596575282, 2.011126761123449, 1};
Point(p11 + 35) = {4.525238191029463, 2.069707808970537, 1};
Point(p11 + 36) = {4.583819238876551, 2.138297403424717, 1};
Point(p11 + 37) = {4.630949280299199, 2.215206641034716, 1};
Point(p11 + 38) = {4.665467817261943, 2.298541761123449, 1};
Point(p11 + 39) = {4.686524888824303, 2.386250776460924, 1};
Spline(11) = {9, p11 + 1, p11 + 2, p11 + 3, p11 + 4, p11 + 5, p11 + 6, p11 + 7, p11 + 8, p11 + 9, p11 + 10, p11 + 11, p11 + 12, p11 + 13, p11 + 14, p11 + 15, p11 + 16, p11 + 17, p11 + 18, p11 + 19, p11 + 20, p11 + 21, p11 + 22, p11 + 23, p11 + 24, p11 + 25, p11 + 26, p11 + 27, p11 + 28, p11 + 29, p11 + 30, p11 + 31, p11 + 32, p11 + 33, p11 + 34, p11 + 35, p11 + 36, p11 + 37, p11 + 38, p11 + 39, 9};
Line(12) = {4, 10};
Line(13) = {10, 7};
Line(14) = {5, 10};
p15 = newp;
Point(p15 + 1) = {18.96290604668953, -0.2741098404677232, 0};
Point(p15 + 2) = {18.90926907017666, -0.05069575453030323, 0};
Point(p15 + 3) = {18.82134279083404, 0.1615770615476397, 0};
Point(p15 + 4) = {18.7012922454697, 0.3574817465411805, 0};
Point(p15 + 5) = {18.5520734769354, 0.5321944769354041, 0};
Point(p15 + 6) = {18.37736074654118, 0.6814132454696968, 0};
Point(p15 + 7) = {18.18145606154764, 0.8014637908340436, 0};
Point(p15 + 8) = {17.9691832454697, 0.8893900701766573, 0};
Point(p15 + 9) = {17.74576915953228, 0.9430270466895314, 0};
Point(p15 + 10) = {17.516715, 0.9610540000000001, 0};
Point(p15 + 11) = {17.28766084046772, 0.9430270466895314, 0};
Point(p15 + 12) = {17.06424675453031, 0.8893900701766573, 0};
Point(p15 + 13) = {16.85197393845236, 0.8014637908340438, 0};
Point(p15 + 14) = {16.65606925345882, 0.6814132454696968, 0};
Point(p15 + 15) = {16.4813565230646, 0.5321944769354043, 0};
Point(p15 + 16) = {16.3321377545303, 0.3574817465411807, 0};
Point(p15 + 17) = {16.21208720916596, 0.1615770615476398, 0};
Point(p15 + 18) = {16.12416092982334, -0.05069575453030306, 0};
Point(p15 + 19) = {16.07052395331047, -0.274109840467723, 0};
Point(p15 + 20) = {16.052497, -0.5031639999999997, 0};
Point(p15 + 21) = {16.07052395331047, -0.7322181595322765, 0};
Point(p15 + 22) = {16.12416092982334, -0.9556322454696972, 0};
Point(p15 + 23) = {16.21208720916596, -1.167905061547639, 0};
Point(p15 + 24) = {16.3321377545303, -1.36380974654118, 0};
Point(p15 + 25) = {16.4813565230646, -1.538522476935404, 0};
Point(p15 + 26) = {16.65606925345882, -1.687741245469697, 0};
Point(p15 + 27) = {16.85197393845236, -1.807791790834044, 0};
Point(p15 + 28) = {17.06424675453031, -1.895718070176657, 0};
Point(p15 + 29) = {17.28766084046772, -1.949355046689531, 0};
Point(p15 + 30) = {17.516715, -1.967382, 0};
Point(p15 + 31) = {17.74576915953228, -1.949355046689531, 0};
Point(p15 + 32) = {17.9691832454697, -1.895718070176657, 0};
Point(p15 + 33) = {18.18145606154764, -1.807791790834044, 0};
Point(p15 + 34) = {18.37736074654118, -1.687741245469697, 0};
Point(p15 + 35) = {18.5520734769354, -1.538522476935404, 0};
Point(p15 + 36) = {18.7012922454697, -1.363809746541181, 0};
Point(p15 + 37) = {18.82134279083404, -1.16790506154764, 0};
Point(p15 + 38) = {18.90926907017666, -0.9556322454696971, 0};
Point(p15 + 39) = {18.96290604668953, -0.732218159532277, 0};
Spline(15) = {11, p15 + 1, p15 + 2, p15 + 3, p15 + 4, p15 + 5, p15 + 6, p15 + 7, p15 + 8, p15 + 9, p15 + 10, p15 + 11, p15 + 12, p15 + 13, p15 + 14, p15 + 15, p15 + 16, p15 + 17, p15 + 18, p15 + 19, p15 + 20, p15 + 21, p15 + 22, p15 + 23, p15 + 24, p15 + 25, p15 + 26, p15 + 27, p15 + 28, p15 + 29, p15 + 30, p15 + 31, p15 + 32, p15 + 33, p15 + 34, p15 + 35, p15 + 36, p15 + 37, p15 + 38, p15 + 39, 11};
p16 = newp;
Point(p16 + 1) = {4.686524888824303, 2.566097223539076, 0};
Point(p16 + 2) = {4.665467817261943, 2.653806238876551, 0};
Point(p16 + 3) = {4.630949280299199, 2.737141358965284, 0};
Point(p16 + 4) = {4.583819238876551, 2.814050596575282, 0};
Point(p16 + 5) = {4.525238191029463, 2.882640191029463, 0};
Point(p16 + 6) = {4.456648596575282, 2.941221238876551, 0};
Point(p16 + 7) = {4.379739358965283, 2.988351280299199, 0};
Point(p16 + 8) = {4.296404238876551, 3.022869817261943, 0};
Point(p16 + 9) = {4.208695223539076, 3.043926888824303, 0};
Point(p16 + 10) = {4.118772, 3.051004, 0};
Point(p16 + 11) = {4.028848776460924, 3.043926888824303, 0};
Point(p16 + 12) = {3.941139761123449, 3.022869817261943, 0};
Point(p16 + 13) = {3.857804641034716, 2.9883512802992, 0};
Point(p16 + 14) = {3.780895403424718, 2.941221238876551, 0};
Point(p16 + 15) = {3.712305808970537, 2.882640191029463, 0};
Point(p16 + 16) = {3.653724761123449, 2.814050596575282, 0};
Point(p16 + 17) = {3.606594719700801, 2.737141358965284, 0};
Point(p16 + 18) = {3.572076182738057, 2.653806238876551, 0};
Point(p16 + 19) = {3.551019111175697, 2.566097223539076, 0};
Point(p16 + 20) = {3.543942, 2.476174, 0};
Point(p16 + 21) = {3.551019111175697, 2.386250776460924, 0};
Point(p16 + 22) = {3.572076182738057, 2.298541761123449, 0};
Point(p16 + 23) = {3.6065947197008, 2.215206641034717, 0};
Point(p16 + 24) = {3.653724761123449, 2.138297403424718, 0};
Point(p16 + 25) = {3.712305808970537, 2.069707808970537, 0};
Point(p16 + 26) = {3.780895403424718, 2.011126761123449, 0};
Point(p16 + 27) = {3.857804641034716, 1.963996719700801, 0};
Point(p16 + 28) = {3.941139761123449, 1.929478182738057, 0};
Point(p16 + 29) = {4.028848776460924, 1.908421111175697, 0};
Point(p16 + 30) = {4.118772, 1.901344, 0};
Point(p16 + 31) = {4.208695223539076, 1.908421111175697, 0};
Point(p16 + 32) = {4.29640423887655, 1.929478182738057, 0};
Point(p16 + 33) = {4.379739358965283, 1.9639967197008, 0};
Point(p16 + 34) = {4.456648596575282, 2.011126761123449, 0};
Point(p16 + 35) = {4.525238191029463, 2.069707808970537, 0};
Point(p16 + 36) = {4.583819238876551, 2.138297403424717, 0};
Point(p16 + 37) = {4.630949280299199, 2.215206641034716, 0};
Point(p16 + 38) = {4.665467817261943, 2.298541761123449, 0};
Point(p16 + 39) = {4.686524888824303, 2.386250776460924, 0};
Spline(16) = {12, p16 + 1, p16 + 2, p16 + 3, p16 + 4, p16 + 5, p16 + 6, p16 + 7, p16 + 8, p16 + 9, p16 + 10, p16 + 11, p16 + 12, p16 + 13, p16 + 14, p16 + 15, p16 + 16, p16 + 17, p16 + 18, p16 + 19, p16 + 20, p16 + 21, p16 + 22, p16 + 23, p16 + 24, p16 + 25, p16 + 26, p16 + 27, p16 + 28, p16 + 29, p16 + 30, p16 + 31, p16 + 32, p16 + 33, p16 + 34, p16 + 35, p16 + 36, p16 + 37, p16 + 38, p16 + 39, 12};
Line(17) = {11, 8};
Line(18) = {12, 9};
Curve Loop(1) = {-1, 4, 3, -2};
Plane Surface(1) = {1};
Curve Loop(2) = {-5, 1, 7, -6};
Plane Surface(2) = {2};
Curve Loop(3) = {-2, 7, 9, -8, -10, -11};
Plane Surface(3) = {3};
Curve Loop(4) = {-12, 3, 8, -13};
Plane Surface(4) = {4};
Curve Loop(5) = {-4, 5, 14, -12, -15, -16};
Plane Surface(5) = {5};
Curve Loop(6) = {-6, 14, 13, -9};
Plane Surface(6) = {6};
Curve Loop(7) = {-10, -17, 15, 17};
Surface(7) = {7};
Curve Loop(8) = {-11, -18, 16, 18};
Surface(8) = {8};
Surface Loop(1) = {1, 2, 3, 4, 5, 6, 7, 8};
Volume(1) = {1};
Physical Surface("INFLOW") = {1};
Physical Surface("OUTFLOW") = {6};
Physical Surface("OBSTACLE") = {7, 8};
Physical Surface("WALL_Y") = {2, 4};
Physical Surface("WALL_Z") = {3, 5};
Physical Volume("FLUID") = {1};
