cl__1 = 0.554907;
cl__2 = 0.55601;
cl__3 = 3.260081;
cl__4 = 0.126022;
Point(1) = {0.818949, -3.118018, 1, cl__1};
Point(2) = {0.818949, -3.118018, 0, cl__1};
Point(3) = {0.818949, 4.748093, 1, cl__2};
Point(4) = {0.818949, 4.748093, 0, cl__2};
Point(5) = {32.362689, -3.118018, 0, cl__3};
Point(6) = {32.362689, -3.118018, 1, cl__3};
Point(7) = {32.362689, 4.748093, 1, cl__3};
Point(8) = {7.644461, 0.8054819999999997, 1, cl__4};
Point(9) = {32.362689, 4.748093, 0, cl__3};
Point(10) = {7.644461, 0.8054819999999997, 0, cl__4};
Line(1) = {2, 1};
Line(2) = {1, 3};
Line(3) = {4, 3};
Line(4) = {2, 4};
Line(5) = {2, 5};
Line(6) = {5, 6};
Line(7) = {1, 6};
Line(8) = {3, 7};
Line(9) = {6, 7};
p10 = newp;
Point(p10 + 1) = {7.628945662143102, 1.002623059360675, 1};
Point(p10 + 2) = {7.582781687682897, 1.194909851566224, 1};
Point(p10 + 3) = {7.507105786880044, 1.377607637629273, 1};
Point(p10 + 4) = {7.403781351566225, 1.546217791717759, 1};
Point(p10 + 5) = {7.275352572253006, 1.696588572253005, 1};
Point(p10 + 6) = {7.124981791717759, 1.825017351566224, 1};
Point(p10 + 7) = {6.956371637629273, 1.928341786880044, 1};
Point(p10 + 8) = {6.773673851566224, 2.004017687682897, 1};
Point(p10 + 9) = {6.581387059360675, 2.050181662143101, 1};
Point(p10 + 10) = {6.384246, 2.065697, 1};
Point(p10 + 11) = {6.187104940639325, 2.050181662143101, 1};
Point(p10 + 12) = {5.994818148433776, 2.004017687682897, 1};
Point(p10 + 13) = {5.812120362370727, 1.928341786880044, 1};
Point(p10 + 14) = {5.643510208282241, 1.825017351566224, 1};
Point(p10 + 15) = {5.493139427746995, 1.696588572253005, 1};
Point(p10 + 16) = {5.364710648433776, 1.546217791717759, 1};
Point(p10 + 17) = {5.261386213119956, 1.377607637629273, 1};
Point(p10 + 18) = {5.185710312317103, 1.194909851566225, 1};
Point(p10 + 19) = {5.139546337856899, 1.002623059360675, 1};
Point(p10 + 20) = {5.124031, 0.8054820000000001, 1};
Point(p10 + 21) = {5.139546337856898, 0.6083409406393256, 1};
Point(p10 + 22) = {5.185710312317103, 0.4160541484337753, 1};
Point(p10 + 23) = {5.261386213119955, 0.2333563623707278, 1};
Point(p10 + 24) = {5.364710648433776, 0.06474620828224109, 1};
Point(p10 + 25) = {5.493139427746994, -0.0856245722530049, 1};
Point(p10 + 26) = {5.64351020828224, -0.2140533515662244, 1};
Point(p10 + 27) = {5.812120362370727, -0.317377786880044, 1};
Point(p10 + 28) = {5.994818148433776, -0.3930536876828969, 1};
Point(p10 + 29) = {6.187104940639325, -0.4392176621431014, 1};
Point(p10 + 30) = {6.384246, -0.4547330000000001, 1};
Point(p10 + 31) = {6.581387059360674, -0.4392176621431017, 1};
Point(p10 + 32) = {6.773673851566224, -0.3930536876828972, 1};
Point(p10 + 33) = {6.956371637629273, -0.317377786880044, 1};
Point(p10 + 34) = {7.124981791717759, -0.2140533515662246, 1};
Point(p10 + 35) = {7.275352572253005, -0.08562457225300524, 1};
Point(p10 + 36) = {7.403781351566225, 0.06474620828224065, 1};
Point(p10 + 37) = {7.507105786880044, 0.2333563623707268, 1};
Point(p10 + 38) = {7.582781687682897, 0.4160541484337754, 1};
Point(p10 + 39) = {7.628945662143101, 0.6083409406393252, 1};
Spline(10) = {8, p10 + 1, p10 + 2, p10 + 3, p10 + 4, p10 + 5, p10 + 6, p10 + 7, p10 + 8, p10 + 9, p10 + 10, p10 + 11, p10 + 12, p10 + 13, p10 + 14, p10 + 15, p10 + 16, p10 + 17, p10 + 18, p10 + 19, p10 + 20, p10 + 21, p10 + 22, p10 + 23, p10 + 24, p10 + 25, p10 + 26, p10 + 27, p10 + 28, p10 + 29, p10 + 30, p10 + 31, p10 + 32, p10 + 33, p10 + 34, p10 + 35, p10 + 36, p10 + 37, p10 + 38, p10 + 39, 8};
Line(11) = {4, 9};
Line(12) = {9, 7};
Line(13) = {5, 9};
p14 = newp;
Point(p14 + 1) = {7.628945662143102, 1.002623059360675, 0};
Point(p14 + 2) = {7.582781687682897, 1.194909851566224, 0};
Point(p14 + 3) = {7.507105786880044, 1.377607637629273, 0};
Point(p14 + 4) = {7.403781351566225, 1.546217791717759, 0};
Point(p14 + 5) = {7.275352572253006, 1.696588572253005, 0};
Point(p14 + 6) = {7.124981791717759, 1.825017351566224, 0};
Point(p14 + 7) = {6.956371637629273, 1.928341786880044, 0};
Point(p14 + 8) = {6.773673851566224, 2.004017687682897, 0};
Point(p14 + 9) = {6.581387059360675, 2.050181662143101, 0};
Point(p14 + 10) = {6.384246, 2.065697, 0};
Point(p14 + 11) = {6.187104940639325, 2.050181662143101, 0};
Point(p14 + 12) = {5.994818148433776, 2.004017687682897, 0};
Point(p14 + 13) = {5.812120362370727, 1.928341786880044, 0};
Point(p14 + 14) = {5.643510208282241, 1.825017351566224, 0};
Point(p14 + 15) = {5.493139427746995, 1.696588572253005, 0};
Point(p14 + 16) = {5.364710648433776, 1.546217791717759, 0};
Point(p14 + 17) = {5.261386213119956, 1.377607637629273, 0};
Point(p14 + 18) = {5.185710312317103, 1.194909851566225, 0};
Point(p14 + 19) = {5.139546337856899, 1.002623059360675, 0};
Point(p14 + 20) = {5.124031, 0.8054820000000001, 0};
Point(p14 + 21) = {5.139546337856898, 0.6083409406393256, 0};
Point(p14 + 22) = {5.185710312317103, 0.4160541484337753, 0};
Point(p14 + 23) = {5.261386213119955, 0.2333563623707278, 0};
Point(p14 + 24) = {5.364710648433776, 0.06474620828224109, 0};
Point(p14 + 25) = {5.493139427746994, -0.0856245722530049, 0};
Point(p14 + 26) = {5.64351020828224, -0.2140533515662244, 0};
Point(p14 + 27) = {5.812120362370727, -0.317377786880044, 0};
Point(p14 + 28) = {5.994818148433776, -0.3930536876828969, 0};
Point(p14 + 29) = {6.187104940639325, -0.4392176621431014, 0};
Point(p14 + 30) = {6.384246, -0.4547330000000001, 0};
Point(p14 + 31) = {6.581387059360674, -0.4392176621431017, 0};
Point(p14 + 32) = {6.773673851566224, -0.3930536876828972, 0};
Point(p14 + 33) = {6.956371637629273, -0.317377786880044, 0};
Point(p14 + 34) = {7.124981791717759, -0.2140533515662246, 0};
Point(p14 + 35) = {7.275352572253005, -0.08562457225300524, 0};
Point(p14 + 36) = {7.403781351566225, 0.06474620828224065, 0};
Point(p14 + 37) = {7.507105786880044, 0.2333563623707268, 0};
Point(p14 + 38) = {7.582781687682897, 0.4160541484337754, 0};
Point(p14 + 39) = {7.628945662143101, 0.6083409406393252, 0};
Spline(14) = {10, p14 + 1, p14 + 2, p14 + 3, p14 + 4, p14 + 5, p14 + 6, p14 + 7, p14 + 8, p14 + 9, p14 + 10, p14 + 11, p14 + 12, p14 + 13, p14 + 14, p14 + 15, p14 + 16, p14 + 17, p14 + 18, p14 + 19, p14 + 20, p14 + 21, p14 + 22, p14 + 23, p14 + 24, p14 + 25, p14 + 26, p14 + 27, p14 + 28, p14 + 29, p14 + 30, p14 + 31, p14 + 32, p14 + 33, p14 + 34, p14 + 35, p14 + 36, p14 + 37, p14 + 38, p14 + 39, 10};
Line(15) = {10, 8};
Curve Loop(1) = {-1, 4, 3, -2};
Plane Surface(1) = {1};
Curve Loop(2) = {-5, 1, 7, -6};
Plane Surface(2) = {2};
Curve Loop(3) = {-2, 7, 9, -8, -10};
Plane Surface(3) = {3};
Curve Loop(4) = {-11, 3, 8, -12};
Plane Surface(4) = {4};
Curve Loop(5) = {-4, 5, 13, -11, -14};
Plane Surface(5) = {5};
Curve Loop(6) = {-6, 13, 12, -9};
Plane Surface(6) = {6};
Curve Loop(7) = {-10, -15, 14, 15};
Surface(7) = {7};
Surface Loop(1) = {1, 2, 3, 4, 5, 6, 7};
Volume(1) = {1};
Physical Surface("INFLOW") = {1};
Physical Surface("OUTFLOW") = {6};
Physical Surface("OBSTACLE") = {7};
Physical Surface("WALL_Y") = {2, 4};
Physical Surface("WALL_Z") = {3, 5};
Physical Volume("FLUID") = {1};
