cl__1 = 0.996021;
cl__2 = 0.717129;
cl__3 = 3.733192;
cl__4 = 0.09993;
cl__5 = 0.131897;
Point(1) = {0.953005, -3.836446, 1, cl__1};
Point(2) = {0.953005, -3.836446, 0, cl__1};
Point(3) = {0.953005, 4.759691, 1, cl__2};
Point(4) = {0.953005, 4.759691, 0, cl__2};
Point(5) = {37.083671, -3.836446, 0, cl__1};
Point(6) = {37.083671, -3.836446, 1, cl__1};
Point(7) = {37.083671, 4.759691, 1, cl__3};
Point(8) = {30.505179, -0.7810310000000003, 1, cl__4};
Point(9) = {12.122597, 1.657639, 1, cl__5};
Point(10) = {37.083671, 4.759691, 0, cl__3};
Point(11) = {30.505179, -0.7810310000000003, 0, cl__4};
Point(12) = {12.122597, 1.657639, 0, cl__5};
Line(1) = {2, 1};
Line(2) = {1, 3};
Line(3) = {4, 3};
Line(4) = {2, 4};
Line(5) = {2, 5};
Line(6) = {5, 6};
Line(7) = {1, 6};
Line(8) = {3, 7};
Line(9) = {6, 7};
p10 = newp;
Point(p10 + 1) = {30.49287592182174, -0.6247055697819022, 1};
Point(p10 + 2) = {30.4562696299033, -0.472229390470132, 1};
Point(p10 + 3) = {30.39626149264101, -0.3273569316387717, 1};
Point(p10 + 4) = {30.31432910952987, -0.1936554340283747, 1};
Point(p10 + 5) = {30.21248992776006, -0.07441707223993954, 1};
Point(p10 + 6) = {30.09325156597163, 0.02742210952986812, 1};
Point(p10 + 7) = {29.95955006836123, 0.1093544926410085, 1};
Point(p10 + 8) = {29.81467760952987, 0.1693626299032959, 1};
Point(p10 + 9) = {29.6622014302181, 0.205968921821743, 1};
Point(p10 + 10) = {29.505876, 0.218272, 1};
Point(p10 + 11) = {29.3495505697819, 0.2059689218217429, 1};
Point(p10 + 12) = {29.19707439047013, 0.169362629903296, 1};
Point(p10 + 13) = {29.05220193163877, 0.1093544926410086, 1};
Point(p10 + 14) = {28.91850043402837, 0.02742210952986812, 1};
Point(p10 + 15) = {28.79926207223994, -0.07441707223993943, 1};
Point(p10 + 16) = {28.69742289047013, -0.1936554340283746, 1};
Point(p10 + 17) = {28.61549050735899, -0.3273569316387716, 1};
Point(p10 + 18) = {28.5554823700967, -0.4722293904701318, 1};
Point(p10 + 19) = {28.51887607817826, -0.6247055697819021, 1};
Point(p10 + 20) = {28.506573, -0.7810309999999999, 1};
Point(p10 + 21) = {28.51887607817826, -0.9373564302180977, 1};
Point(p10 + 22) = {28.5554823700967, -1.089832609529868, 1};
Point(p10 + 23) = {28.61549050735899, -1.234705068361228, 1};
Point(p10 + 24) = {28.69742289047013, -1.368406565971625, 1};
Point(p10 + 25) = {28.79926207223994, -1.487644927760061, 1};
Point(p10 + 26) = {28.91850043402837, -1.589484109529868, 1};
Point(p10 + 27) = {29.05220193163877, -1.671416492641009, 1};
Point(p10 + 28) = {29.19707439047013, -1.731424629903296, 1};
Point(p10 + 29) = {29.3495505697819, -1.768030921821743, 1};
Point(p10 + 30) = {29.505876, -1.780334, 1};
Point(p10 + 31) = {29.6622014302181, -1.768030921821743, 1};
Point(p10 + 32) = {29.81467760952987, -1.731424629903296, 1};
Point(p10 + 33) = {29.95955006836123, -1.671416492641009, 1};
Point(p10 + 34) = {30.09325156597163, -1.589484109529868, 1};
Point(p10 + 35) = {30.21248992776006, -1.487644927760061, 1};
Point(p10 + 36) = {30.31432910952987, -1.368406565971626, 1};
Point(p10 + 37) = {30.39626149264101, -1.234705068361229, 1};
Point(p10 + 38) = {30.4562696299033, -1.089832609529868, 1};
Point(p10 + 39) = {30.49287592182174, -0.9373564302180981, 1};
Spline(10) = {8, p10 + 1, p10 + 2, p10 + 3, p10 + 4, p10 + 5, p10 + 6, p10 + 7, p10 + 8, p10 + 9, p10 + 10, p10 + 11, p10 + 12, p10 + 13, p10 + 14, p10 + 15, p10 + 16, p10 + 17, p10 + 18, p10 + 19, p10 + 20, p10 + 21, p10 + 22, p10 + 23, p10 + 24, p10 + 25, p10 + 26, p10 + 27, p10 + 28, p10 + 29, p10 + 30, p10 + 31, p10 + 32, p10 + 33, p10 + 34, p10 + 35, p10 + 36, p10 + 37, p10 + 38, p10 + 39, 8};
p11 = newp;
Point(p11 + 1) = {12.10635833984141, 1.863970740616253, 1};
Point(p11 + 2) = {12.05804220907175, 2.065221909002747, 1};
Point(p11 + 3) = {11.97883831118263, 2.256437033479471, 1};
Point(p11 + 4) = {11.87069690900275, 2.432907763075194, 1};
Point(p11 + 5) = {11.73628080275449, 2.590288802754496, 1};
Point(p11 + 6) = {11.57889976307519, 2.724704909002747, 1};
Point(p11 + 7) = {11.40242903347947, 2.832846311182635, 1};
Point(p11 + 8) = {11.21121390900275, 2.912050209071753, 1};
Point(p11 + 9) = {11.00996274061625, 2.960366339841407, 1};
Point(p11 + 10) = {10.803631, 2.976605, 1};
Point(p11 + 11) = {10.59729925938375, 2.960366339841406, 1};
Point(p11 + 12) = {10.39604809099725, 2.912050209071753, 1};
Point(p11 + 13) = {10.20483296652053, 2.832846311182635, 1};
Point(p11 + 14) = {10.0283622369248, 2.724704909002747, 1};
Point(p11 + 15) = {9.870981197245504, 2.590288802754496, 1};
Point(p11 + 16) = {9.736565090997253, 2.432907763075194, 1};
Point(p11 + 17) = {9.628423688817364, 2.256437033479471, 1};
Point(p11 + 18) = {9.549219790928246, 2.065221909002747, 1};
Point(p11 + 19) = {9.500903660158594, 1.863970740616253, 1};
Point(p11 + 20) = {9.484665, 1.657639, 1};
Point(p11 + 21) = {9.500903660158592, 1.451307259383747, 1};
Point(p11 + 22) = {9.549219790928246, 1.250056090997253, 1};
Point(p11 + 23) = {9.628423688817364, 1.05884096652053, 1};
Point(p11 + 24) = {9.736565090997253, 0.8823702369248061, 1};
Point(p11 + 25) = {9.870981197245504, 0.7249891972455043, 1};
Point(p11 + 26) = {10.0283622369248, 0.5905730909972533, 1};
Point(p11 + 27) = {10.20483296652053, 0.4824316888173652, 1};
Point(p11 + 28) = {10.39604809099725, 0.4032277909282465, 1};
Point(p11 + 29) = {10.59729925938375, 0.3549116601585938, 1};
Point(p11 + 30) = {10.803631, 0.338673, 1};
Point(p11 + 31) = {11.00996274061625, 0.3549116601585935, 1};
Point(p11 + 32) = {11.21121390900275, 0.4032277909282465, 1};
Point(p11 + 33) = {11.40242903347947, 0.4824316888173652, 1};
Point(p11 + 34) = {11.57889976307519, 0.5905730909972529, 1};
Point(p11 + 35) = {11.73628080275449, 0.7249891972455039, 1};
Point(p11 + 36) = {11.87069690900275, 0.8823702369248057, 1};
Point(p11 + 37) = {11.97883831118263, 1.058840966520529, 1};
Point(p11 + 38) = {12.05804220907175, 1.250056090997253, 1};
Point(p11 + 39) = {12.1063583398414, 1.451307259383747, 1};
Spline(11) = {9, p11 + 1, p11 + 2, p11 + 3, p11 + 4, p11 + 5, p11 + 6, p11 + 7, p11 + 8, p11 + 9, p11 + 10, p11 + 11, p11 + 12, p11 + 13, p11 + 14, p11 + 15, p11 + 16, p11 + 17, p11 + 18, p11 + 19, p11 + 20, p11 + 21, p11 + 22, p11 + 23, p11 + 24, p11 + 25, p11 + 26, p11 + 27, p11 + 28, p11 + 29, p11 + 30, p11 + 31, p11 + 32, p11 + 33, p11 + 34, p11 + 35, p11 + 36, p11 + 37, p11 + 38, p11 + 39, 9};
Line(12) = {4, 10};
Line(13) = {10, 7};
Line(14) = {5, 10};
p15 = newp;
Point(p15 + 1) = {30.49287592182174, -0.6247055697819022, 0};
Point(p15 + 2) = {30.4562696299033, -0.472229390470132, 0};
Point(p15 + 3) = {30.39626149264101, -0.3273569316387717, 0};
Point(p15 + 4) = {30.31432910952987, -0.1936554340283747, 0};
Point(p15 + 5) = {30.21248992776006, -0.07441707223993954, 0};
Point(p15 + 6) = {30.09325156597163, 0.02742210952986812, 0};
Point(p15 + 7) = {29.95955006836123, 0.1093544926410085, 0};
Point(p15 + 8) = {29.81467760952987, 0.1693626299032959, 0};
Point(p15 + 9) = {29.6622014302181, 0.205968921821743, 0};
Point(p15 + 10) = {29.505876, 0.218272, 0};
Point(p15 + 11) = {29.3495505697819, 0.2059689218217429, 0};
Point(p15 + 12) = {29.19707439047013, 0.169362629903296, 0};
Point(p15 + 13) = {29.05220193163877, 0.1093544926410086, 0};
Point(p15 + 14) = {28.91850043402837, 0.02742210952986812, 0};
Point(p15 + 15) = {28.79926207223994, -0.07441707223993943, 0};
Point(p15 + 16) = {28.69742289047013, -0.1936554340283746, 0};
Point(p15 + 17) = {28.61549050735899, -0.3273569316387716, 0};
Point(p15 + 18) = {28.5554823700967, -0.4722293904701318, 0};
Point(p15 + 19) = {28.51887607817826, -0.6247055697819021, 0};
Point(p15 + 20) = {28.506573, -0.7810309999999999, 0};
Point(p15 + 21) = {28.51887607817826, -0.9373564302180977, 0};
Point(p15 + 22) = {28.5554823700967, -1.089832609529868, 0};
Point(p15 + 23) = {28.61549050735899, -1.234705068361228, 0};
Point(p15 + 24) = {28.69742289047013, -1.368406565971625, 0};
Point(p15 + 25) = {28.79926207223994, -1.487644927760061, 0};
Point(p15 + 26) = {28.91850043402837, -1.589484109529868, 0};
Point(p15 + 27) = {29.05220193163877, -1.671416492641009, 0};
Point(p15 + 28) = {29.19707439047013, -1.731424629903296, 0};
Point(p15 + 29) = {29.3495505697819, -1.768030921821743, 0};
Point(p15 + 30) = {29.505876, -1.780334, 0};
Point(p15 + 31) = {29.6622014302181, -1.768030921821743, 0};
Point(p15 + 32) = {29.81467760952987, -1.731424629903296, 0};
Point(p15 + 33) = {29.95955006836123, -1.671416492641009, 0};
Point(p15 + 34) = {30.09325156597163, -1.589484109529868, 0};
Point(p15 + 35) = {30.21248992776006, -1.487644927760061, 0};
Point(p15 + 36) = {30.31432910952987, -1.368406565971626, 0};
Point(p15 + 37) = {30.39626149264101, -1.234705068361229, 0};
Point(p15 + 38) = {30.4562696299033, -1.089832609529868, 0};
Point(p15 + 39) = {30.49287592182174, -0.9373564302180981, 0};
Spline(15) = {11, p15 + 1, p15 + 2, p15 + 3, p15 + 4, p15 + 5, p15 + 6, p15 + 7, p15 + 8, p15 + 9, p15 + 10, p15 + 11, p15 + 12, p15 + 13, p15 + 14, p15 + 15, p15 + 16, p15 + 17, p15 + 18, p15 + 19, p15 + 20, p15 + 21, p15 + 22, p15 + 23, p15 + 24, p15 + 25, p15 + 26, p15 + 27, p15 + 28, p15 + 29, p15 + 30, p15 + 31, p15 + 32, p15 + 33, p15 + 34, p15 + 35, p15 + 36, p15 + 37, p15 + 38, p15 + 39, 11};
p16 = newp;
Point(p16 + 1) = {12.10635833984141, 1.863970740616253, 0};
Point(p16 + 2) = {12.05804220907175, 2.065221909002747, 0};
Point(p16 + 3) = {11.97883831118263, 2.256437033479471, 0};
Point(p16 + 4) = {11.87069690900275, 2.432907763075194, 0};
Point(p16 + 5) = {11.73628080275449, 2.590288802754496, 0};
Point(p16 + 6) = {11.57889976307519, 2.724704909002747, 0};
Point(p16 + 7) = {11.40242903347947, 2.832846311182635, 0};
Point(p16 + 8) = {11.21121390900275, 2.912050209071753, 0};
Point(p16 + 9) = {11.00996274061625, 2.960366339841407, 0};
Point(p16 + 10) = {10.803631, 2.976605, 0};
Point(p16 + 11) = {10.59729925938375, 2.960366339841406, 0};
Point(p16 + 12) = {10.39604809099725, 2.912050209071753, 0};
Point(p16 + 13) = {10.20483296652053, 2.832846311182635, 0};
Point(p16 + 14) = {10.0283622369248, 2.724704909002747, 0};
Point(p16 + 15) = {9.870981197245504, 2.590288802754496, 0};
Point(p16 + 16) = {9.736565090997253, 2.432907763075194, 0};
Point(p16 + 17) = {9.628423688817364, 2.256437033479471, 0};
Point(p16 + 18) = {9.549219790928246, 2.065221909002747, 0};
Point(p16 + 19) = {9.500903660158594, 1.863970740616253, 0};
Point(p16 + 20) = {9.484665, 1.657639, 0};
Point(p16 + 21) = {9.500903660158592, 1.451307259383747, 0};
Point(p16 + 22) = {9.549219790928246, 1.250056090997253, 0};
Point(p16 + 23) = {9.628423688817364, 1.05884096652053, 0};
Point(p16 + 24) = {9.736565090997253, 0.8823702369248061, 0};
Point(p16 + 25) = {9.870981197245504, 0.7249891972455043, 0};
Point(p16 + 26) = {10.0283622369248, 0.5905730909972533, 0};
Point(p16 + 27) = {10.20483296652053, 0.4824316888173652, 0};
Point(p16 + 28) = {10.39604809099725, 0.4032277909282465, 0};
Point(p16 + 29) = {10.59729925938375, 0.3549116601585938, 0};
Point(p16 + 30) = {10.803631, 0.338673, 0};
Point(p16 + 31) = {11.00996274061625, 0.3549116601585935, 0};
Point(p16 + 32) = {11.21121390900275, 0.4032277909282465, 0};
Point(p16 + 33) = {11.40242903347947, 0.4824316888173652, 0};
Point(p16 + 34) = {11.57889976307519, 0.5905730909972529, 0};
Point(p16 + 35) = {11.73628080275449, 0.7249891972455039, 0};
Point(p16 + 36) = {11.87069690900275, 0.8823702369248057, 0};
Point(p16 + 37) = {11.97883831118263, 1.058840966520529, 0};
Point(p16 + 38) = {12.05804220907175, 1.250056090997253, 0};
Point(p16 + 39) = {12.1063583398414, 1.451307259383747, 0};
Spline(16) = {12, p16 + 1, p16 + 2, p16 + 3, p16 + 4, p16 + 5, p16 + 6, p16 + 7, p16 + 8, p16 + 9, p16 + 10, p16 + 11, p16 + 12, p16 + 13, p16 + 14, p16 + 15, p16 + 16, p16 + 17, p16 + 18, p16 + 19, p16 + 20, p16 + 21, p16 + 22, p16 + 23, p16 + 24, p16 + 25, p16 + 26, p16 + 27, p16 + 28, p16 + 29, p16 + 30, p16 + 31, p16 + 32, p16 + 33, p16 + 34, p16 + 35, p16 + 36, p16 + 37, p16 + 38, p16 + 39, 12};
Line(17) = {11, 8};
Line(18) = {12, 9};
Curve Loop(1) = {-1, 4, 3, -2};
Plane Surface(1) = {1};
Curve Loop(2) = {-5, 1, 7, -6};
Plane Surface(2) = {2};
Curve Loop(3) = {-2, 7, 9, -8, -10, -11};
Plane Surface(3) = {3};
Curve Loop(4) = {-12, 3, 8, -13};
Plane Surface(4) = {4};
Curve Loop(5) = {-4, 5, 14, -12, -15, -16};
Plane Surface(5) = {5};
Curve Loop(6) = {-6, 14, 13, -9};
Plane Surface(6) = {6};
Curve Loop(7) = {-10, -17, 15, 17};
Surface(7) = {7};
Curve Loop(8) = {-11, -18, 16, 18};
Surface(8) = {8};
Surface Loop(1) = {1, 2, 3, 4, 5, 6, 7, 8};
Volume(1) = {1};
Physical Surface("INFLOW") = {1};
Physical Surface("OUTFLOW") = {6};
Physical Surface("OBSTACLE") = {7, 8};
Physical Surface("WALL_Y") = {2, 4};
Physical Surface("WALL_Z") = {3, 5};
Physical Volume("FLUID") = {1};
