cl__1 = 3.770415;
cl__2 = 0.5815;
cl__3 = 1.421888;
cl__4 = 0.14777;
cl__5 = 0.08654100000000001;
Point(1) = {0.517749, -3.609905, 1, cl__1};
Point(2) = {0.517749, -3.609905, 0, cl__1};
Point(3) = {0.517749, 4.62895, 1, cl__2};
Point(4) = {0.517749, 4.62895, 0, cl__2};
Point(5) = {37.478436, -3.609905, 0, cl__1};
Point(6) = {37.478436, -3.609905, 1, cl__1};
Point(7) = {37.478436, 4.62895, 1, cl__3};
Point(8) = {23.737256, 0.2330479999999996, 1, cl__4};
Point(9) = {33.127375, 0.5633759999999998, 1, cl__5};
Point(10) = {37.478436, 4.62895, 0, cl__3};
Point(11) = {23.737256, 0.2330479999999996, 0, cl__4};
Point(12) = {33.127375, 0.5633759999999998, 0, cl__5};
Line(1) = {2, 1};
Line(2) = {1, 3};
Line(3) = {4, 3};
Line(4) = {2, 4};
Line(5) = {2, 5};
Line(6) = {5, 6};
Line(7) = {1, 6};
Line(8) = {3, 7};
Line(9) = {6, 7};
p10 = newp;
Point(p10 + 1) = {23.71906309783241, 0.464210739686554, 1};
Point(p10 + 2) = {23.6649323609598, 0.6896814855368767, 1};
Point(p10 + 3) = {23.57619666777358, 0.9039083994936291, 1};
Point(p10 + 4) = {23.45504098553688, 1.101616503956831, 1};
Point(p10 + 5) = {23.30444856923902, 1.277937569239018, 1};
Point(p10 + 6) = {23.12812750395683, 1.428529985536877, 1};
Point(p10 + 7) = {22.93041939949363, 1.549685667773578, 1};
Point(p10 + 8) = {22.71619248553688, 1.6384213609598, 1};
Point(p10 + 9) = {22.49072173968655, 1.692552097832413, 1};
Point(p10 + 10) = {22.259559, 1.710745, 1};
Point(p10 + 11) = {22.02839626031345, 1.692552097832413, 1};
Point(p10 + 12) = {21.80292551446312, 1.6384213609598, 1};
Point(p10 + 13) = {21.58869860050637, 1.549685667773579, 1};
Point(p10 + 14) = {21.39099049604317, 1.428529985536877, 1};
Point(p10 + 15) = {21.21466943076098, 1.277937569239018, 1};
Point(p10 + 16) = {21.06407701446312, 1.101616503956831, 1};
Point(p10 + 17) = {20.94292133222642, 0.9039083994936292, 1};
Point(p10 + 18) = {20.8541856390402, 0.6896814855368768, 1};
Point(p10 + 19) = {20.80005490216759, 0.4642107396865542, 1};
Point(p10 + 20) = {20.781862, 0.2330480000000002, 1};
Point(p10 + 21) = {20.80005490216758, 0.001885260313446158, 1};
Point(p10 + 22) = {20.8541856390402, -0.2235854855368772, 1};
Point(p10 + 23) = {20.94292133222642, -0.4378123994936283, 1};
Point(p10 + 24) = {21.06407701446312, -0.6355205039568305, 1};
Point(p10 + 25) = {21.21466943076098, -0.8118415692390176, 1};
Point(p10 + 26) = {21.39099049604317, -0.9624339855368765, 1};
Point(p10 + 27) = {21.58869860050637, -1.083589667773579, 1};
Point(p10 + 28) = {21.80292551446312, -1.1723253609598, 1};
Point(p10 + 29) = {22.02839626031345, -1.226456097832413, 1};
Point(p10 + 30) = {22.259559, -1.244649, 1};
Point(p10 + 31) = {22.49072173968655, -1.226456097832413, 1};
Point(p10 + 32) = {22.71619248553688, -1.1723253609598, 1};
Point(p10 + 33) = {22.93041939949363, -1.083589667773579, 1};
Point(p10 + 34) = {23.12812750395683, -0.962433985536877, 1};
Point(p10 + 35) = {23.30444856923902, -0.8118415692390178, 1};
Point(p10 + 36) = {23.45504098553688, -0.635520503956831, 1};
Point(p10 + 37) = {23.57619666777358, -0.4378123994936294, 1};
Point(p10 + 38) = {23.6649323609598, -0.223585485536877, 1};
Point(p10 + 39) = {23.71906309783241, 0.00188526031344563, 1};
Spline(10) = {8, p10 + 1, p10 + 2, p10 + 3, p10 + 4, p10 + 5, p10 + 6, p10 + 7, p10 + 8, p10 + 9, p10 + 10, p10 + 11, p10 + 12, p10 + 13, p10 + 14, p10 + 15, p10 + 16, p10 + 17, p10 + 18, p10 + 19, p10 + 20, p10 + 21, p10 + 22, p10 + 23, p10 + 24, p10 + 25, p10 + 26, p10 + 27, p10 + 28, p10 + 29, p10 + 30, p10 + 31, p10 + 32, p10 + 33, p10 + 34, p10 + 35, p10 + 36, p10 + 37, p10 + 38, p10 + 39, 8};
p11 = newp;
Point(p11 + 1) = {33.11672034221112, 0.6987562632593962, 1};
Point(p11 + 2) = {33.08501872188003, 0.830803015136012, 1};
Point(p11 + 3) = {33.03305073811091, 0.9562648263606006, 1};
Point(p11 + 4) = {32.96209601513601, 1.072052410756934, 1};
Point(p11 + 5) = {32.87390169372021, 1.175314693720212, 1};
Point(p11 + 6) = {32.77063941075694, 1.263509015136012, 1};
Point(p11 + 7) = {32.65485182636061, 1.334463738110904, 1};
Point(p11 + 8) = {32.52939001513602, 1.386431721880022, 1};
Point(p11 + 9) = {32.3973432632594, 1.418133342211119, 1};
Point(p11 + 10) = {32.261963, 1.428788, 1};
Point(p11 + 11) = {32.1265827367406, 1.418133342211119, 1};
Point(p11 + 12) = {31.99453598486399, 1.386431721880022, 1};
Point(p11 + 13) = {31.8690741736394, 1.334463738110904, 1};
Point(p11 + 14) = {31.75328658924307, 1.263509015136012, 1};
Point(p11 + 15) = {31.65002430627979, 1.175314693720213, 1};
Point(p11 + 16) = {31.56182998486399, 1.072052410756934, 1};
Point(p11 + 17) = {31.4908752618891, 0.9562648263606006, 1};
Point(p11 + 18) = {31.43890727811998, 0.8308030151360121, 1};
Point(p11 + 19) = {31.40720565778888, 0.6987562632593963, 1};
Point(p11 + 20) = {31.396551, 0.5633760000000001, 1};
Point(p11 + 21) = {31.40720565778888, 0.4279957367406039, 1};
Point(p11 + 22) = {31.43890727811998, 0.2959489848639877, 1};
Point(p11 + 23) = {31.4908752618891, 0.1704871736393998, 1};
Point(p11 + 24) = {31.56182998486399, 0.05469958924306639, 1};
Point(p11 + 25) = {31.65002430627979, -0.04856269372021238, 1};
Point(p11 + 26) = {31.75328658924307, -0.1367570151360119, 1};
Point(p11 + 27) = {31.8690741736394, -0.2077117381109037, 1};
Point(p11 + 28) = {31.99453598486399, -0.2596797218800214, 1};
Point(p11 + 29) = {32.1265827367406, -0.2913813422111192, 1};
Point(p11 + 30) = {32.261963, -0.302036, 1};
Point(p11 + 31) = {32.39734326325939, -0.2913813422111193, 1};
Point(p11 + 32) = {32.52939001513602, -0.2596797218800215, 1};
Point(p11 + 33) = {32.6548518263606, -0.2077117381109038, 1};
Point(p11 + 34) = {32.77063941075694, -0.1367570151360121, 1};
Point(p11 + 35) = {32.87390169372021, -0.0485626937202126, 1};
Point(p11 + 36) = {32.96209601513601, 0.05469958924306606, 1};
Point(p11 + 37) = {33.03305073811091, 0.1704871736393992, 1};
Point(p11 + 38) = {33.08501872188003, 0.2959489848639879, 1};
Point(p11 + 39) = {33.11672034221112, 0.4279957367406035, 1};
Spline(11) = {9, p11 + 1, p11 + 2, p11 + 3, p11 + 4, p11 + 5, p11 + 6, p11 + 7, p11 + 8, p11 + 9, p11 + 10, p11 + 11, p11 + 12, p11 + 13, p11 + 14, p11 + 15, p11 + 16, p11 + 17, p11 + 18, p11 + 19, p11 + 20, p11 + 21, p11 + 22, p11 + 23, p11 + 24, p11 + 25, p11 + 26, p11 + 27, p11 + 28, p11 + 29, p11 + 30, p11 + 31, p11 + 32, p11 + 33, p11 + 34, p11 + 35, p11 + 36, p11 + 37, p11 + 38, p11 + 39, 9};
Line(12) = {4, 10};
Line(13) = {10, 7};
Line(14) = {5, 10};
p15 = newp;
Point(p15 + 1) = {23.71906309783241, 0.464210739686554, 0};
Point(p15 + 2) = {23.6649323609598, 0.6896814855368767, 0};
Point(p15 + 3) = {23.57619666777358, 0.9039083994936291, 0};
Point(p15 + 4) = {23.45504098553688, 1.101616503956831, 0};
Point(p15 + 5) = {23.30444856923902, 1.277937569239018, 0};
Point(p15 + 6) = {23.12812750395683, 1.428529985536877, 0};
Point(p15 + 7) = {22.93041939949363, 1.549685667773578, 0};
Point(p15 + 8) = {22.71619248553688, 1.6384213609598, 0};
Point(p15 + 9) = {22.49072173968655, 1.692552097832413, 0};
Point(p15 + 10) = {22.259559, 1.710745, 0};
Point(p15 + 11) = {22.02839626031345, 1.692552097832413, 0};
Point(p15 + 12) = {21.80292551446312, 1.6384213609598, 0};
Point(p15 + 13) = {21.58869860050637, 1.549685667773579, 0};
Point(p15 + 14) = {21.39099049604317, 1.428529985536877, 0};
Point(p15 + 15) = {21.21466943076098, 1.277937569239018, 0};
Point(p15 + 16) = {21.06407701446312, 1.101616503956831, 0};
Point(p15 + 17) = {20.94292133222642, 0.9039083994936292, 0};
Point(p15 + 18) = {20.8541856390402, 0.6896814855368768, 0};
Point(p15 + 19) = {20.80005490216759, 0.4642107396865542, 0};
Point(p15 + 20) = {20.781862, 0.2330480000000002, 0};
Point(p15 + 21) = {20.80005490216758, 0.001885260313446158, 0};
Point(p15 + 22) = {20.8541856390402, -0.2235854855368772, 0};
Point(p15 + 23) = {20.94292133222642, -0.4378123994936283, 0};
Point(p15 + 24) = {21.06407701446312, -0.6355205039568305, 0};
Point(p15 + 25) = {21.21466943076098, -0.8118415692390176, 0};
Point(p15 + 26) = {21.39099049604317, -0.9624339855368765, 0};
Point(p15 + 27) = {21.58869860050637, -1.083589667773579, 0};
Point(p15 + 28) = {21.80292551446312, -1.1723253609598, 0};
Point(p15 + 29) = {22.02839626031345, -1.226456097832413, 0};
Point(p15 + 30) = {22.259559, -1.244649, 0};
Point(p15 + 31) = {22.49072173968655, -1.226456097832413, 0};
Point(p15 + 32) = {22.71619248553688, -1.1723253609598, 0};
Point(p15 + 33) = {22.93041939949363, -1.083589667773579, 0};
Point(p15 + 34) = {23.12812750395683, -0.962433985536877, 0};
Point(p15 + 35) = {23.30444856923902, -0.8118415692390178, 0};
Point(p15 + 36) = {23.45504098553688, -0.635520503956831, 0};
Point(p15 + 37) = {23.57619666777358, -0.4378123994936294, 0};
Point(p15 + 38) = {23.6649323609598, -0.223585485536877, 0};
Point(p15 + 39) = {23.71906309783241, 0.00188526031344563, 0};
Spline(15) = {11, p15 + 1, p15 + 2, p15 + 3, p15 + 4, p15 + 5, p15 + 6, p15 + 7, p15 + 8, p15 + 9, p15 + 10, p15 + 11, p15 + 12, p15 + 13, p15 + 14, p15 + 15, p15 + 16, p15 + 17, p15 + 18, p15 + 19, p15 + 20, p15 + 21, p15 + 22, p15 + 23, p15 + 24, p15 + 25, p15 + 26, p15 + 27, p15 + 28, p15 + 29, p15 + 30, p15 + 31, p15 + 32, p15 + 33, p15 + 34, p15 + 35, p15 + 36, p15 + 37, p15 + 38, p15 + 39, 11};
p16 = newp;
Point(p16 + 1) = {33.11672034221112, 0.6987562632593962, 0};
Point(p16 + 2) = {33.08501872188003, 0.830803015136012, 0};
Point(p16 + 3) = {33.03305073811091, 0.9562648263606006, 0};
Point(p16 + 4) = {32.96209601513601, 1.072052410756934, 0};
Point(p16 + 5) = {32.87390169372021, 1.175314693720212, 0};
Point(p16 + 6) = {32.77063941075694, 1.263509015136012, 0};
Point(p16 + 7) = {32.65485182636061, 1.334463738110904, 0};
Point(p16 + 8) = {32.52939001513602, 1.386431721880022, 0};
Point(p16 + 9) = {32.3973432632594, 1.418133342211119, 0};
Point(p16 + 10) = {32.261963, 1.428788, 0};
Point(p16 + 11) = {32.1265827367406, 1.418133342211119, 0};
Point(p16 + 12) = {31.99453598486399, 1.386431721880022, 0};
Point(p16 + 13) = {31.8690741736394, 1.334463738110904, 0};
Point(p16 + 14) = {31.75328658924307, 1.263509015136012, 0};
Point(p16 + 15) = {31.65002430627979, 1.175314693720213, 0};
Point(p16 + 16) = {31.56182998486399, 1.072052410756934, 0};
Point(p16 + 17) = {31.4908752618891, 0.9562648263606006, 0};
Point(p16 + 18) = {31.43890727811998, 0.8308030151360121, 0};
Point(p16 + 19) = {31.40720565778888, 0.6987562632593963, 0};
Point(p16 + 20) = {31.396551, 0.5633760000000001, 0};
Point(p16 + 21) = {31.40720565778888, 0.4279957367406039, 0};
Point(p16 + 22) = {31.43890727811998, 0.2959489848639877, 0};
Point(p16 + 23) = {31.4908752618891, 0.1704871736393998, 0};
Point(p16 + 24) = {31.56182998486399, 0.05469958924306639, 0};
Point(p16 + 25) = {31.65002430627979, -0.04856269372021238, 0};
Point(p16 + 26) = {31.75328658924307, -0.1367570151360119, 0};
Point(p16 + 27) = {31.8690741736394, -0.2077117381109037, 0};
Point(p16 + 28) = {31.99453598486399, -0.2596797218800214, 0};
Point(p16 + 29) = {32.1265827367406, -0.2913813422111192, 0};
Point(p16 + 30) = {32.261963, -0.302036, 0};
Point(p16 + 31) = {32.39734326325939, -0.2913813422111193, 0};
Point(p16 + 32) = {32.52939001513602, -0.2596797218800215, 0};
Point(p16 + 33) = {32.6548518263606, -0.2077117381109038, 0};
Point(p16 + 34) = {32.77063941075694, -0.1367570151360121, 0};
Point(p16 + 35) = {32.87390169372021, -0.0485626937202126, 0};
Point(p16 + 36) = {32.96209601513601, 0.05469958924306606, 0};
Point(p16 + 37) = {33.03305073811091, 0.1704871736393992, 0};
Point(p16 + 38) = {33.08501872188003, 0.2959489848639879, 0};
Point(p16 + 39) = {33.11672034221112, 0.4279957367406035, 0};
Spline(16) = {12, p16 + 1, p16 + 2, p16 + 3, p16 + 4, p16 + 5, p16 + 6, p16 + 7, p16 + 8, p16 + 9, p16 + 10, p16 + 11, p16 + 12, p16 + 13, p16 + 14, p16 + 15, p16 + 16, p16 + 17, p16 + 18, p16 + 19, p16 + 20, p16 + 21, p16 + 22, p16 + 23, p16 + 24, p16 + 25, p16 + 26, p16 + 27, p16 + 28, p16 + 29, p16 + 30, p16 + 31, p16 + 32, p16 + 33, p16 + 34, p16 + 35, p16 + 36, p16 + 37, p16 + 38, p16 + 39, 12};
Line(17) = {11, 8};
Line(18) = {12, 9};
Curve Loop(1) = {-1, 4, 3, -2};
Plane Surface(1) = {1};
Curve Loop(2) = {-5, 1, 7, -6};
Plane Surface(2) = {2};
Curve Loop(3) = {-2, 7, 9, -8, -10, -11};
Plane Surface(3) = {3};
Curve Loop(4) = {-12, 3, 8, -13};
Plane Surface(4) = {4};
Curve Loop(5) = {-4, 5, 14, -12, -15, -16};
Plane Surface(5) = {5};
Curve Loop(6) = {-6, 14, 13, -9};
Plane Surface(6) = {6};
Curve Loop(7) = {-10, -17, 15, 17};
Surface(7) = {7};
Curve Loop(8) = {-11, -18, 16, 18};
Surface(8) = {8};
Surface Loop(1) = {1, 2, 3, 4, 5, 6, 7, 8};
Volume(1) = {1};
Physical Surface("INFLOW") = {1};
Physical Surface("OUTFLOW") = {6};
Physical Surface("OBSTACLE") = {7, 8};
Physical Surface("WALL_Y") = {2, 4};
Physical Surface("WALL_Z") = {3, 5};
Physical Volume("FLUID") = {1};
