cl__1 = 1.261926;
cl__2 = 3.553929;
cl__3 = 0.754292;
cl__4 = 0.065275;
cl__5 = 0.07362;
Point(1) = {0.021488, -3.91957, 1, cl__1};
Point(2) = {0.021488, -3.91957, 0, cl__1};
Point(3) = {0.021488, 4.414353999999999, 1, cl__2};
Point(4) = {0.021488, 4.414353999999999, 0, cl__2};
Point(5) = {35.294153, -3.91957, 0, cl__3};
Point(6) = {35.294153, -3.91957, 1, cl__3};
Point(7) = {35.294153, 4.414353999999999, 1, cl__2};
Point(8) = {8.679627, -2.163813000000001, 1, cl__4};
Point(9) = {13.156679, 1.043665, 1, cl__5};
Point(10) = {35.294153, 4.414353999999999, 0, cl__2};
Point(11) = {8.679627, -2.163813000000001, 0, cl__4};
Point(12) = {13.156679, 1.043665, 0, cl__5};
Line(1) = {2, 1};
Line(2) = {1, 3};
Line(3) = {4, 3};
Line(4) = {2, 4};
Line(5) = {2, 5};
Line(6) = {5, 6};
Line(7) = {1, 6};
Line(8) = {3, 7};
Line(9) = {6, 7};
p10 = newp;
Point(p10 + 1) = {8.671590576635136, -2.061700559379454, 1};
Point(p10 + 2) = {8.647679189955145, -1.962102465938748, 1};
Point(p10 + 3) = {8.608481617657432, -1.867471155285511, 1};
Point(p10 + 4) = {8.554963034061252, -1.780136764351341, 1};
Point(p10 + 5) = {8.488441244312737, -1.702249755687262, 1};
Point(p10 + 6) = {8.410554235648659, -1.635727965938748, 1};
Point(p10 + 7) = {8.32321984471449, -1.582209382342567, 1};
Point(p10 + 8) = {8.228588534061252, -1.543011810044855, 1};
Point(p10 + 9) = {8.128990440620546, -1.519100423364865, 1};
Point(p10 + 10) = {8.026878, -1.511064, 1};
Point(p10 + 11) = {7.924765559379455, -1.519100423364865, 1};
Point(p10 + 12) = {7.825167465938748, -1.543011810044855, 1};
Point(p10 + 13) = {7.730536155285511, -1.582209382342567, 1};
Point(p10 + 14) = {7.643201764351341, -1.635727965938748, 1};
Point(p10 + 15) = {7.565314755687262, -1.702249755687262, 1};
Point(p10 + 16) = {7.498792965938748, -1.780136764351341, 1};
Point(p10 + 17) = {7.445274382342567, -1.867471155285511, 1};
Point(p10 + 18) = {7.406076810044855, -1.962102465938748, 1};
Point(p10 + 19) = {7.382165423364865, -2.061700559379454, 1};
Point(p10 + 20) = {7.374129, -2.163813, 1};
Point(p10 + 21) = {7.382165423364865, -2.265925440620546, 1};
Point(p10 + 22) = {7.406076810044855, -2.365523534061253, 1};
Point(p10 + 23) = {7.445274382342567, -2.460154844714489, 1};
Point(p10 + 24) = {7.498792965938748, -2.54748923564866, 1};
Point(p10 + 25) = {7.565314755687262, -2.625376244312738, 1};
Point(p10 + 26) = {7.64320176435134, -2.691898034061253, 1};
Point(p10 + 27) = {7.730536155285511, -2.745416617657433, 1};
Point(p10 + 28) = {7.825167465938748, -2.784614189955145, 1};
Point(p10 + 29) = {7.924765559379455, -2.808525576635136, 1};
Point(p10 + 30) = {8.026878, -2.816562, 1};
Point(p10 + 31) = {8.128990440620546, -2.808525576635136, 1};
Point(p10 + 32) = {8.228588534061252, -2.784614189955145, 1};
Point(p10 + 33) = {8.323219844714489, -2.745416617657433, 1};
Point(p10 + 34) = {8.410554235648659, -2.691898034061253, 1};
Point(p10 + 35) = {8.488441244312737, -2.625376244312738, 1};
Point(p10 + 36) = {8.554963034061252, -2.54748923564866, 1};
Point(p10 + 37) = {8.608481617657432, -2.46015484471449, 1};
Point(p10 + 38) = {8.647679189955145, -2.365523534061253, 1};
Point(p10 + 39) = {8.671590576635136, -2.265925440620546, 1};
Spline(10) = {8, p10 + 1, p10 + 2, p10 + 3, p10 + 4, p10 + 5, p10 + 6, p10 + 7, p10 + 8, p10 + 9, p10 + 10, p10 + 11, p10 + 12, p10 + 13, p10 + 14, p10 + 15, p10 + 16, p10 + 17, p10 + 18, p10 + 19, p10 + 20, p10 + 21, p10 + 22, p10 + 23, p10 + 24, p10 + 25, p10 + 26, p10 + 27, p10 + 28, p10 + 29, p10 + 30, p10 + 31, p10 + 32, p10 + 33, p10 + 34, p10 + 35, p10 + 36, p10 + 37, p10 + 38, p10 + 39, 8};
p11 = newp;
Point(p11 + 1) = {13.14761509478784, 1.158832835334943, 1};
Point(p11 + 2) = {13.12064656257907, 1.271164856343808, 1};
Point(p11 + 3) = {13.0764374581401, 1.377895075860753, 1};
Point(p11 + 4) = {13.01607635634381, 1.47639544166398, 1};
Point(p11 + 5) = {12.94104954784344, 1.564240547843442, 1};
Point(p11 + 6) = {12.85320444166398, 1.639267356343808, 1};
Point(p11 + 7) = {12.75470407586075, 1.699628458140097, 1};
Point(p11 + 8) = {12.64797385634381, 1.743837562579074, 1};
Point(p11 + 9) = {12.53564183533494, 1.770806094787843, 1};
Point(p11 + 10) = {12.420474, 1.77987, 1};
Point(p11 + 11) = {12.30530616466506, 1.770806094787843, 1};
Point(p11 + 12) = {12.19297414365619, 1.743837562579074, 1};
Point(p11 + 13) = {12.08624392413925, 1.699628458140098, 1};
Point(p11 + 14) = {11.98774355833602, 1.639267356343808, 1};
Point(p11 + 15) = {11.89989845215656, 1.564240547843442, 1};
Point(p11 + 16) = {11.82487164365619, 1.47639544166398, 1};
Point(p11 + 17) = {11.7645105418599, 1.377895075860753, 1};
Point(p11 + 18) = {11.72030143742093, 1.271164856343808, 1};
Point(p11 + 19) = {11.69333290521216, 1.158832835334943, 1};
Point(p11 + 20) = {11.684269, 1.043665, 1};
Point(p11 + 21) = {11.69333290521216, 0.9284971646650571, 1};
Point(p11 + 22) = {11.72030143742093, 0.8161651436561916, 1};
Point(p11 + 23) = {11.7645105418599, 0.7094349241392475, 1};
Point(p11 + 24) = {11.82487164365619, 0.61093455833602, 1};
Point(p11 + 25) = {11.89989845215656, 0.5230894521565579, 1};
Point(p11 + 26) = {11.98774355833602, 0.448062643656192, 1};
Point(p11 + 27) = {12.08624392413925, 0.3877015418599028, 1};
Point(p11 + 28) = {12.19297414365619, 0.3434924374209266, 1};
Point(p11 + 29) = {12.30530616466506, 0.3165239052121568, 1};
Point(p11 + 30) = {12.420474, 0.3074600000000001, 1};
Point(p11 + 31) = {12.53564183533494, 0.3165239052121567, 1};
Point(p11 + 32) = {12.64797385634381, 0.3434924374209265, 1};
Point(p11 + 33) = {12.75470407586075, 0.3877015418599027, 1};
Point(p11 + 34) = {12.85320444166398, 0.4480626436561918, 1};
Point(p11 + 35) = {12.94104954784344, 0.5230894521565578, 1};
Point(p11 + 36) = {13.01607635634381, 0.6109345583360197, 1};
Point(p11 + 37) = {13.0764374581401, 0.7094349241392469, 1};
Point(p11 + 38) = {13.12064656257907, 0.8161651436561917, 1};
Point(p11 + 39) = {13.14761509478784, 0.9284971646650567, 1};
Spline(11) = {9, p11 + 1, p11 + 2, p11 + 3, p11 + 4, p11 + 5, p11 + 6, p11 + 7, p11 + 8, p11 + 9, p11 + 10, p11 + 11, p11 + 12, p11 + 13, p11 + 14, p11 + 15, p11 + 16, p11 + 17, p11 + 18, p11 + 19, p11 + 20, p11 + 21, p11 + 22, p11 + 23, p11 + 24, p11 + 25, p11 + 26, p11 + 27, p11 + 28, p11 + 29, p11 + 30, p11 + 31, p11 + 32, p11 + 33, p11 + 34, p11 + 35, p11 + 36, p11 + 37, p11 + 38, p11 + 39, 9};
Line(12) = {4, 10};
Line(13) = {10, 7};
Line(14) = {5, 10};
p15 = newp;
Point(p15 + 1) = {8.671590576635136, -2.061700559379454, 0};
Point(p15 + 2) = {8.647679189955145, -1.962102465938748, 0};
Point(p15 + 3) = {8.608481617657432, -1.867471155285511, 0};
Point(p15 + 4) = {8.554963034061252, -1.780136764351341, 0};
Point(p15 + 5) = {8.488441244312737, -1.702249755687262, 0};
Point(p15 + 6) = {8.410554235648659, -1.635727965938748, 0};
Point(p15 + 7) = {8.32321984471449, -1.582209382342567, 0};
Point(p15 + 8) = {8.228588534061252, -1.543011810044855, 0};
Point(p15 + 9) = {8.128990440620546, -1.519100423364865, 0};
Point(p15 + 10) = {8.026878, -1.511064, 0};
Point(p15 + 11) = {7.924765559379455, -1.519100423364865, 0};
Point(p15 + 12) = {7.825167465938748, -1.543011810044855, 0};
Point(p15 + 13) = {7.730536155285511, -1.582209382342567, 0};
Point(p15 + 14) = {7.643201764351341, -1.635727965938748, 0};
Point(p15 + 15) = {7.565314755687262, -1.702249755687262, 0};
Point(p15 + 16) = {7.498792965938748, -1.780136764351341, 0};
Point(p15 + 17) = {7.445274382342567, -1.867471155285511, 0};
Point(p15 + 18) = {7.406076810044855, -1.962102465938748, 0};
Point(p15 + 19) = {7.382165423364865, -2.061700559379454, 0};
Point(p15 + 20) = {7.374129, -2.163813, 0};
Point(p15 + 21) = {7.382165423364865, -2.265925440620546, 0};
Point(p15 + 22) = {7.406076810044855, -2.365523534061253, 0};
Point(p15 + 23) = {7.445274382342567, -2.460154844714489, 0};
Point(p15 + 24) = {7.498792965938748, -2.54748923564866, 0};
Point(p15 + 25) = {7.565314755687262, -2.625376244312738, 0};
Point(p15 + 26) = {7.64320176435134, -2.691898034061253, 0};
Point(p15 + 27) = {7.730536155285511, -2.745416617657433, 0};
Point(p15 + 28) = {7.825167465938748, -2.784614189955145, 0};
Point(p15 + 29) = {7.924765559379455, -2.808525576635136, 0};
Point(p15 + 30) = {8.026878, -2.816562, 0};
Point(p15 + 31) = {8.128990440620546, -2.808525576635136, 0};
Point(p15 + 32) = {8.228588534061252, -2.784614189955145, 0};
Point(p15 + 33) = {8.323219844714489, -2.745416617657433, 0};
Point(p15 + 34) = {8.410554235648659, -2.691898034061253, 0};
Point(p15 + 35) = {8.488441244312737, -2.625376244312738, 0};
Point(p15 + 36) = {8.554963034061252, -2.54748923564866, 0};
Point(p15 + 37) = {8.608481617657432, -2.46015484471449, 0};
Point(p15 + 38) = {8.647679189955145, -2.365523534061253, 0};
Point(p15 + 39) = {8.671590576635136, -2.265925440620546, 0};
Spline(15) = {11, p15 + 1, p15 + 2, p15 + 3, p15 + 4, p15 + 5, p15 + 6, p15 + 7, p15 + 8, p15 + 9, p15 + 10, p15 + 11, p15 + 12, p15 + 13, p15 + 14, p15 + 15, p15 + 16, p15 + 17, p15 + 18, p15 + 19, p15 + 20, p15 + 21, p15 + 22, p15 + 23, p15 + 24, p15 + 25, p15 + 26, p15 + 27, p15 + 28, p15 + 29, p15 + 30, p15 + 31, p15 + 32, p15 + 33, p15 + 34, p15 + 35, p15 + 36, p15 + 37, p15 + 38, p15 + 39, 11};
p16 = newp;
Point(p16 + 1) = {13.14761509478784, 1.158832835334943, 0};
Point(p16 + 2) = {13.12064656257907, 1.271164856343808, 0};
Point(p16 + 3) = {13.0764374581401, 1.377895075860753, 0};
Point(p16 + 4) = {13.01607635634381, 1.47639544166398, 0};
Point(p16 + 5) = {12.94104954784344, 1.564240547843442, 0};
Point(p16 + 6) = {12.85320444166398, 1.639267356343808, 0};
Point(p16 + 7) = {12.75470407586075, 1.699628458140097, 0};
Point(p16 + 8) = {12.64797385634381, 1.743837562579074, 0};
Point(p16 + 9) = {12.53564183533494, 1.770806094787843, 0};
Point(p16 + 10) = {12.420474, 1.77987, 0};
Point(p16 + 11) = {12.30530616466506, 1.770806094787843, 0};
Point(p16 + 12) = {12.19297414365619, 1.743837562579074, 0};
Point(p16 + 13) = {12.08624392413925, 1.699628458140098, 0};
Point(p16 + 14) = {11.98774355833602, 1.639267356343808, 0};
Point(p16 + 15) = {11.89989845215656, 1.564240547843442, 0};
Point(p16 + 16) = {11.82487164365619, 1.47639544166398, 0};
Point(p16 + 17) = {11.7645105418599, 1.377895075860753, 0};
Point(p16 + 18) = {11.72030143742093, 1.271164856343808, 0};
Point(p16 + 19) = {11.69333290521216, 1.158832835334943, 0};
Point(p16 + 20) = {11.684269, 1.043665, 0};
Point(p16 + 21) = {11.69333290521216, 0.9284971646650571, 0};
Point(p16 + 22) = {11.72030143742093, 0.8161651436561916, 0};
Point(p16 + 23) = {11.7645105418599, 0.7094349241392475, 0};
Point(p16 + 24) = {11.82487164365619, 0.61093455833602, 0};
Point(p16 + 25) = {11.89989845215656, 0.5230894521565579, 0};
Point(p16 + 26) = {11.98774355833602, 0.448062643656192, 0};
Point(p16 + 27) = {12.08624392413925, 0.3877015418599028, 0};
Point(p16 + 28) = {12.19297414365619, 0.3434924374209266, 0};
Point(p16 + 29) = {12.30530616466506, 0.3165239052121568, 0};
Point(p16 + 30) = {12.420474, 0.3074600000000001, 0};
Point(p16 + 31) = {12.53564183533494, 0.3165239052121567, 0};
Point(p16 + 32) = {12.64797385634381, 0.3434924374209265, 0};
Point(p16 + 33) = {12.75470407586075, 0.3877015418599027, 0};
Point(p16 + 34) = {12.85320444166398, 0.4480626436561918, 0};
Point(p16 + 35) = {12.94104954784344, 0.5230894521565578, 0};
Point(p16 + 36) = {13.01607635634381, 0.6109345583360197, 0};
Point(p16 + 37) = {13.0764374581401, 0.7094349241392469, 0};
Point(p16 + 38) = {13.12064656257907, 0.8161651436561917, 0};
Point(p16 + 39) = {13.14761509478784, 0.9284971646650567, 0};
Spline(16) = {12, p16 + 1, p16 + 2, p16 + 3, p16 + 4, p16 + 5, p16 + 6, p16 + 7, p16 + 8, p16 + 9, p16 + 10, p16 + 11, p16 + 12, p16 + 13, p16 + 14, p16 + 15, p16 + 16, p16 + 17, p16 + 18, p16 + 19, p16 + 20, p16 + 21, p16 + 22, p16 + 23, p16 + 24, p16 + 25, p16 + 26, p16 + 27, p16 + 28, p16 + 29, p16 + 30, p16 + 31, p16 + 32, p16 + 33, p16 + 34, p16 + 35, p16 + 36, p16 + 37, p16 + 38, p16 + 39, 12};
Line(17) = {11, 8};
Line(18) = {12, 9};
Curve Loop(1) = {-1, 4, 3, -2};
Plane Surface(1) = {1};
Curve Loop(2) = {-5, 1, 7, -6};
Plane Surface(2) = {2};
Curve Loop(3) = {-2, 7, 9, -8, -10, -11};
Plane Surface(3) = {3};
Curve Loop(4) = {-12, 3, 8, -13};
Plane Surface(4) = {4};
Curve Loop(5) = {-4, 5, 14, -12, -15, -16};
Plane Surface(5) = {5};
Curve Loop(6) = {-6, 14, 13, -9};
Plane Surface(6) = {6};
Curve Loop(7) = {-10, -17, 15, 17};
Surface(7) = {7};
Curve Loop(8) = {-11, -18, 16, 18};
Surface(8) = {8};
Surface Loop(1) = {1, 2, 3, 4, 5, 6, 7, 8};
Volume(1) = {1};
Physical Surface("INFLOW") = {1};
Physical Surface("OUTFLOW") = {6};
Physical Surface("OBSTACLE") = {7, 8};
Physical Surface("WALL_Y") = {2, 4};
Physical Surface("WALL_Z") = {3, 5};
Physical Volume("FLUID") = {1};
