cl__1 = 0.674773;
cl__2 = 0.628069;
cl__3 = 3.684174;
cl__4 = 0.113478;
Point(1) = {0.756269, -4.42459, 1, cl__1};
Point(2) = {0.756269, -4.42459, 0, cl__1};
Point(3) = {0.756269, 5.365591999999999, 1, cl__2};
Point(4) = {0.756269, 5.365591999999999, 0, cl__2};
Point(5) = {36.515095, -4.42459, 0, cl__3};
Point(6) = {36.515095, -4.42459, 1, cl__3};
Point(7) = {36.515095, 5.365591999999999, 1, cl__3};
Point(8) = {7.761878, 0.8353929999999998, 1, cl__4};
Point(9) = {36.515095, 5.365591999999999, 0, cl__3};
Point(10) = {7.761878, 0.8353929999999998, 0, cl__4};
Line(1) = {2, 1};
Line(2) = {1, 3};
Line(3) = {4, 3};
Line(4) = {2, 4};
Line(5) = {2, 5};
Line(6) = {5, 6};
Line(7) = {1, 6};
Line(8) = {3, 7};
Line(9) = {6, 7};
p10 = newp;
Point(p10 + 1) = {7.747906913582254, 1.012912484410678, 1};
Point(p10 + 2) = {7.706337668843997, 1.186060849961775, 1};
Point(p10 + 3) = {7.638193838551097, 1.350574609246942, 1};
Point(p10 + 4) = {7.545153349961775, 1.502402887522714, 1};
Point(p10 + 5) = {7.429507168688777, 1.637807168688776, 1};
Point(p10 + 6) = {7.294102887522715, 1.753453349961775, 1};
Point(p10 + 7) = {7.142274609246942, 1.846493838551097, 1};
Point(p10 + 8) = {6.977760849961775, 1.914637668843996, 1};
Point(p10 + 9) = {6.804612484410679, 1.956206913582253, 1};
Point(p10 + 10) = {6.627093, 1.970178, 1};
Point(p10 + 11) = {6.449573515589321, 1.956206913582253, 1};
Point(p10 + 12) = {6.276425150038226, 1.914637668843996, 1};
Point(p10 + 13) = {6.111911390753059, 1.846493838551097, 1};
Point(p10 + 14) = {5.960083112477286, 1.753453349961775, 1};
Point(p10 + 15) = {5.824678831311224, 1.637807168688776, 1};
Point(p10 + 16) = {5.709032650038226, 1.502402887522714, 1};
Point(p10 + 17) = {5.615992161448903, 1.350574609246942, 1};
Point(p10 + 18) = {5.547848331156004, 1.186060849961775, 1};
Point(p10 + 19) = {5.506279086417747, 1.012912484410678, 1};
Point(p10 + 20) = {5.492308, 0.8353930000000002, 1};
Point(p10 + 21) = {5.506279086417747, 0.6578735155893218, 1};
Point(p10 + 22) = {5.547848331156004, 0.484725150038225, 1};
Point(p10 + 23) = {5.615992161448903, 0.320211390753059, 1};
Point(p10 + 24) = {5.709032650038226, 0.1683831124772861, 1};
Point(p10 + 25) = {5.824678831311224, 0.03297883131122381, 1};
Point(p10 + 26) = {5.960083112477286, -0.08266734996177449, 1};
Point(p10 + 27) = {6.111911390753058, -0.1757078385510968, 1};
Point(p10 + 28) = {6.276425150038225, -0.2438516688439958, 1};
Point(p10 + 29) = {6.449573515589321, -0.2854209135822532, 1};
Point(p10 + 30) = {6.627093, -0.2993919999999999, 1};
Point(p10 + 31) = {6.804612484410678, -0.2854209135822532, 1};
Point(p10 + 32) = {6.977760849961775, -0.2438516688439958, 1};
Point(p10 + 33) = {7.142274609246941, -0.1757078385510971, 1};
Point(p10 + 34) = {7.294102887522715, -0.08266734996177472, 1};
Point(p10 + 35) = {7.429507168688777, 0.03297883131122359, 1};
Point(p10 + 36) = {7.545153349961775, 0.1683831124772857, 1};
Point(p10 + 37) = {7.638193838551097, 0.3202113907530583, 1};
Point(p10 + 38) = {7.706337668843997, 0.4847251500382251, 1};
Point(p10 + 39) = {7.747906913582254, 0.6578735155893214, 1};
Spline(10) = {8, p10 + 1, p10 + 2, p10 + 3, p10 + 4, p10 + 5, p10 + 6, p10 + 7, p10 + 8, p10 + 9, p10 + 10, p10 + 11, p10 + 12, p10 + 13, p10 + 14, p10 + 15, p10 + 16, p10 + 17, p10 + 18, p10 + 19, p10 + 20, p10 + 21, p10 + 22, p10 + 23, p10 + 24, p10 + 25, p10 + 26, p10 + 27, p10 + 28, p10 + 29, p10 + 30, p10 + 31, p10 + 32, p10 + 33, p10 + 34, p10 + 35, p10 + 36, p10 + 37, p10 + 38, p10 + 39, 8};
Line(11) = {4, 9};
Line(12) = {9, 7};
Line(13) = {5, 9};
p14 = newp;
Point(p14 + 1) = {7.747906913582254, 1.012912484410678, 0};
Point(p14 + 2) = {7.706337668843997, 1.186060849961775, 0};
Point(p14 + 3) = {7.638193838551097, 1.350574609246942, 0};
Point(p14 + 4) = {7.545153349961775, 1.502402887522714, 0};
Point(p14 + 5) = {7.429507168688777, 1.637807168688776, 0};
Point(p14 + 6) = {7.294102887522715, 1.753453349961775, 0};
Point(p14 + 7) = {7.142274609246942, 1.846493838551097, 0};
Point(p14 + 8) = {6.977760849961775, 1.914637668843996, 0};
Point(p14 + 9) = {6.804612484410679, 1.956206913582253, 0};
Point(p14 + 10) = {6.627093, 1.970178, 0};
Point(p14 + 11) = {6.449573515589321, 1.956206913582253, 0};
Point(p14 + 12) = {6.276425150038226, 1.914637668843996, 0};
Point(p14 + 13) = {6.111911390753059, 1.846493838551097, 0};
Point(p14 + 14) = {5.960083112477286, 1.753453349961775, 0};
Point(p14 + 15) = {5.824678831311224, 1.637807168688776, 0};
Point(p14 + 16) = {5.709032650038226, 1.502402887522714, 0};
Point(p14 + 17) = {5.615992161448903, 1.350574609246942, 0};
Point(p14 + 18) = {5.547848331156004, 1.186060849961775, 0};
Point(p14 + 19) = {5.506279086417747, 1.012912484410678, 0};
Point(p14 + 20) = {5.492308, 0.8353930000000002, 0};
Point(p14 + 21) = {5.506279086417747, 0.6578735155893218, 0};
Point(p14 + 22) = {5.547848331156004, 0.484725150038225, 0};
Point(p14 + 23) = {5.615992161448903, 0.320211390753059, 0};
Point(p14 + 24) = {5.709032650038226, 0.1683831124772861, 0};
Point(p14 + 25) = {5.824678831311224, 0.03297883131122381, 0};
Point(p14 + 26) = {5.960083112477286, -0.08266734996177449, 0};
Point(p14 + 27) = {6.111911390753058, -0.1757078385510968, 0};
Point(p14 + 28) = {6.276425150038225, -0.2438516688439958, 0};
Point(p14 + 29) = {6.449573515589321, -0.2854209135822532, 0};
Point(p14 + 30) = {6.627093, -0.2993919999999999, 0};
Point(p14 + 31) = {6.804612484410678, -0.2854209135822532, 0};
Point(p14 + 32) = {6.977760849961775, -0.2438516688439958, 0};
Point(p14 + 33) = {7.142274609246941, -0.1757078385510971, 0};
Point(p14 + 34) = {7.294102887522715, -0.08266734996177472, 0};
Point(p14 + 35) = {7.429507168688777, 0.03297883131122359, 0};
Point(p14 + 36) = {7.545153349961775, 0.1683831124772857, 0};
Point(p14 + 37) = {7.638193838551097, 0.3202113907530583, 0};
Point(p14 + 38) = {7.706337668843997, 0.4847251500382251, 0};
Point(p14 + 39) = {7.747906913582254, 0.6578735155893214, 0};
Spline(14) = {10, p14 + 1, p14 + 2, p14 + 3, p14 + 4, p14 + 5, p14 + 6, p14 + 7, p14 + 8, p14 + 9, p14 + 10, p14 + 11, p14 + 12, p14 + 13, p14 + 14, p14 + 15, p14 + 16, p14 + 17, p14 + 18, p14 + 19, p14 + 20, p14 + 21, p14 + 22, p14 + 23, p14 + 24, p14 + 25, p14 + 26, p14 + 27, p14 + 28, p14 + 29, p14 + 30, p14 + 31, p14 + 32, p14 + 33, p14 + 34, p14 + 35, p14 + 36, p14 + 37, p14 + 38, p14 + 39, 10};
Line(15) = {10, 8};
Curve Loop(1) = {-1, 4, 3, -2};
Plane Surface(1) = {1};
Curve Loop(2) = {-5, 1, 7, -6};
Plane Surface(2) = {2};
Curve Loop(3) = {-2, 7, 9, -8, -10};
Plane Surface(3) = {3};
Curve Loop(4) = {-11, 3, 8, -12};
Plane Surface(4) = {4};
Curve Loop(5) = {-4, 5, 13, -11, -14};
Plane Surface(5) = {5};
Curve Loop(6) = {-6, 13, 12, -9};
Plane Surface(6) = {6};
Curve Loop(7) = {-10, -15, 14, 15};
Surface(7) = {7};
Surface Loop(1) = {1, 2, 3, 4, 5, 6, 7};
Volume(1) = {1};
Physical Surface("INFLOW") = {1};
Physical Surface("OUTFLOW") = {6};
Physical Surface("OBSTACLE") = {7};
Physical Surface("WALL_Y") = {2, 4};
Physical Surface("WALL_Z") = {3, 5};
Physical Volume("FLUID") = {1};
