cl__1 = 3.852047;
cl__2 = 0.605243;
cl__3 = 0.714553;
cl__4 = 0.130649;
Point(1) = {0.530852, -3.157726, 1, cl__1};
Point(2) = {0.530852, -3.157726, 0, cl__1};
Point(3) = {0.530852, 4.984698999999999, 1, cl__1};
Point(4) = {0.530852, 4.984698999999999, 0, cl__1};
Point(5) = {38.304726, -3.157726, 0, cl__2};
Point(6) = {38.304726, -3.157726, 1, cl__2};
Point(7) = {38.304726, 4.984698999999999, 1, cl__3};
Point(8) = {32.896005, -0.1478030000000003, 1, cl__4};
Point(9) = {38.304726, 4.984698999999999, 0, cl__3};
Point(10) = {32.896005, -0.1478030000000003, 0, cl__4};
Line(1) = {2, 1};
Line(2) = {1, 3};
Line(3) = {4, 3};
Line(4) = {2, 4};
Line(5) = {2, 5};
Line(6) = {5, 6};
Line(7) = {1, 6};
Line(8) = {3, 7};
Line(9) = {6, 7};
p10 = newp;
Point(p10 + 1) = {32.87991996472746, 0.05657675136148116, 1};
Point(p10 + 2) = {32.83206092586143, 0.2559239949469363, 1};
Point(p10 + 3) = {32.75360633177381, 0.445330140023721, 1};
Point(p10 + 4) = {32.64648799494694, 0.6201313786970887, 1};
Point(p10 + 5) = {32.51334352433885, 0.77602352433885, 1};
Point(p10 + 6) = {32.35745137869709, 0.9091679949469363, 1};
Point(p10 + 7) = {32.18265014002372, 1.016286331773812, 1};
Point(p10 + 8) = {31.99324399494694, 1.094740925861423, 1};
Point(p10 + 9) = {31.79389675136148, 1.142599964727461, 1};
Point(p10 + 10) = {31.589517, 1.158685, 1};
Point(p10 + 11) = {31.38513724863852, 1.142599964727461, 1};
Point(p10 + 12) = {31.18579000505306, 1.094740925861423, 1};
Point(p10 + 13) = {30.99638385997628, 1.016286331773813, 1};
Point(p10 + 14) = {30.82158262130291, 0.9091679949469363, 1};
Point(p10 + 15) = {30.66569047566115, 0.7760235243388502, 1};
Point(p10 + 16) = {30.53254600505306, 0.6201313786970888, 1};
Point(p10 + 17) = {30.42542766822619, 0.4453301400237212, 1};
Point(p10 + 18) = {30.34697307413858, 0.2559239949469364, 1};
Point(p10 + 19) = {30.29911403527254, 0.05657675136148133, 1};
Point(p10 + 20) = {30.283029, -0.1478029999999998, 1};
Point(p10 + 21) = {30.29911403527254, -0.352182751361481, 1};
Point(p10 + 22) = {30.34697307413858, -0.5515299949469368, 1};
Point(p10 + 23) = {30.42542766822619, -0.7409361400237203, 1};
Point(p10 + 24) = {30.53254600505306, -0.9157373786970886, 1};
Point(p10 + 25) = {30.66569047566115, -1.07162952433885, 1};
Point(p10 + 26) = {30.82158262130291, -1.204773994946936, 1};
Point(p10 + 27) = {30.99638385997628, -1.311892331773812, 1};
Point(p10 + 28) = {31.18579000505306, -1.390346925861423, 1};
Point(p10 + 29) = {31.38513724863852, -1.43820596472746, 1};
Point(p10 + 30) = {31.589517, -1.454291, 1};
Point(p10 + 31) = {31.79389675136148, -1.43820596472746, 1};
Point(p10 + 32) = {31.99324399494694, -1.390346925861423, 1};
Point(p10 + 33) = {32.18265014002372, -1.311892331773812, 1};
Point(p10 + 34) = {32.35745137869709, -1.204773994946936, 1};
Point(p10 + 35) = {32.51334352433885, -1.07162952433885, 1};
Point(p10 + 36) = {32.64648799494694, -0.915737378697089, 1};
Point(p10 + 37) = {32.75360633177381, -0.7409361400237213, 1};
Point(p10 + 38) = {32.83206092586143, -0.5515299949469366, 1};
Point(p10 + 39) = {32.87991996472746, -0.3521827513614815, 1};
Spline(10) = {8, p10 + 1, p10 + 2, p10 + 3, p10 + 4, p10 + 5, p10 + 6, p10 + 7, p10 + 8, p10 + 9, p10 + 10, p10 + 11, p10 + 12, p10 + 13, p10 + 14, p10 + 15, p10 + 16, p10 + 17, p10 + 18, p10 + 19, p10 + 20, p10 + 21, p10 + 22, p10 + 23, p10 + 24, p10 + 25, p10 + 26, p10 + 27, p10 + 28, p10 + 29, p10 + 30, p10 + 31, p10 + 32, p10 + 33, p10 + 34, p10 + 35, p10 + 36, p10 + 37, p10 + 38, p10 + 39, 8};
Line(11) = {4, 9};
Line(12) = {9, 7};
Line(13) = {5, 9};
p14 = newp;
Point(p14 + 1) = {32.87991996472746, 0.05657675136148116, 0};
Point(p14 + 2) = {32.83206092586143, 0.2559239949469363, 0};
Point(p14 + 3) = {32.75360633177381, 0.445330140023721, 0};
Point(p14 + 4) = {32.64648799494694, 0.6201313786970887, 0};
Point(p14 + 5) = {32.51334352433885, 0.77602352433885, 0};
Point(p14 + 6) = {32.35745137869709, 0.9091679949469363, 0};
Point(p14 + 7) = {32.18265014002372, 1.016286331773812, 0};
Point(p14 + 8) = {31.99324399494694, 1.094740925861423, 0};
Point(p14 + 9) = {31.79389675136148, 1.142599964727461, 0};
Point(p14 + 10) = {31.589517, 1.158685, 0};
Point(p14 + 11) = {31.38513724863852, 1.142599964727461, 0};
Point(p14 + 12) = {31.18579000505306, 1.094740925861423, 0};
Point(p14 + 13) = {30.99638385997628, 1.016286331773813, 0};
Point(p14 + 14) = {30.82158262130291, 0.9091679949469363, 0};
Point(p14 + 15) = {30.66569047566115, 0.7760235243388502, 0};
Point(p14 + 16) = {30.53254600505306, 0.6201313786970888, 0};
Point(p14 + 17) = {30.42542766822619, 0.4453301400237212, 0};
Point(p14 + 18) = {30.34697307413858, 0.2559239949469364, 0};
Point(p14 + 19) = {30.29911403527254, 0.05657675136148133, 0};
Point(p14 + 20) = {30.283029, -0.1478029999999998, 0};
Point(p14 + 21) = {30.29911403527254, -0.352182751361481, 0};
Point(p14 + 22) = {30.34697307413858, -0.5515299949469368, 0};
Point(p14 + 23) = {30.42542766822619, -0.7409361400237203, 0};
Point(p14 + 24) = {30.53254600505306, -0.9157373786970886, 0};
Point(p14 + 25) = {30.66569047566115, -1.07162952433885, 0};
Point(p14 + 26) = {30.82158262130291, -1.204773994946936, 0};
Point(p14 + 27) = {30.99638385997628, -1.311892331773812, 0};
Point(p14 + 28) = {31.18579000505306, -1.390346925861423, 0};
Point(p14 + 29) = {31.38513724863852, -1.43820596472746, 0};
Point(p14 + 30) = {31.589517, -1.454291, 0};
Point(p14 + 31) = {31.79389675136148, -1.43820596472746, 0};
Point(p14 + 32) = {31.99324399494694, -1.390346925861423, 0};
Point(p14 + 33) = {32.18265014002372, -1.311892331773812, 0};
Point(p14 + 34) = {32.35745137869709, -1.204773994946936, 0};
Point(p14 + 35) = {32.51334352433885, -1.07162952433885, 0};
Point(p14 + 36) = {32.64648799494694, -0.915737378697089, 0};
Point(p14 + 37) = {32.75360633177381, -0.7409361400237213, 0};
Point(p14 + 38) = {32.83206092586143, -0.5515299949469366, 0};
Point(p14 + 39) = {32.87991996472746, -0.3521827513614815, 0};
Spline(14) = {10, p14 + 1, p14 + 2, p14 + 3, p14 + 4, p14 + 5, p14 + 6, p14 + 7, p14 + 8, p14 + 9, p14 + 10, p14 + 11, p14 + 12, p14 + 13, p14 + 14, p14 + 15, p14 + 16, p14 + 17, p14 + 18, p14 + 19, p14 + 20, p14 + 21, p14 + 22, p14 + 23, p14 + 24, p14 + 25, p14 + 26, p14 + 27, p14 + 28, p14 + 29, p14 + 30, p14 + 31, p14 + 32, p14 + 33, p14 + 34, p14 + 35, p14 + 36, p14 + 37, p14 + 38, p14 + 39, 10};
Line(15) = {10, 8};
Curve Loop(1) = {-1, 4, 3, -2};
Plane Surface(1) = {1};
Curve Loop(2) = {-5, 1, 7, -6};
Plane Surface(2) = {2};
Curve Loop(3) = {-2, 7, 9, -8, -10};
Plane Surface(3) = {3};
Curve Loop(4) = {-11, 3, 8, -12};
Plane Surface(4) = {4};
Curve Loop(5) = {-4, 5, 13, -11, -14};
Plane Surface(5) = {5};
Curve Loop(6) = {-6, 13, 12, -9};
Plane Surface(6) = {6};
Curve Loop(7) = {-10, -15, 14, 15};
Surface(7) = {7};
Surface Loop(1) = {1, 2, 3, 4, 5, 6, 7};
Volume(1) = {1};
Physical Surface("INFLOW") = {1};
Physical Surface("OUTFLOW") = {6};
Physical Surface("OBSTACLE") = {7};
Physical Surface("WALL_Y") = {2, 4};
Physical Surface("WALL_Z") = {3, 5};
Physical Volume("FLUID") = {1};
