cl__1 = 1;
cl__2 = 0.079152;
cl__3 = 0.07323300000000001;
Point(1) = {0.520688, -4.334692, 1, cl__1};
Point(2) = {0.520688, -4.334692, 0, cl__1};
Point(3) = {0.520688, 5.589245, 1, cl__1};
Point(4) = {0.520688, 5.589245, 0, cl__1};
Point(5) = {32.931695, -4.334692, 0, cl__1};
Point(6) = {32.931695, -4.334692, 1, cl__1};
Point(7) = {32.931695, 5.589245, 1, cl__1};
Point(8) = {15.408581, 1.435839, 1, cl__2};
Point(9) = {2.805362, 3.689657, 1, cl__3};
Point(10) = {32.931695, 5.589245, 0, cl__1};
Point(11) = {15.408581, 1.435839, 0, cl__2};
Point(12) = {2.805362, 3.689657, 0, cl__3};
Line(1) = {2, 1};
Line(2) = {1, 3};
Line(3) = {4, 3};
Line(4) = {2, 4};
Line(5) = {2, 5};
Line(6) = {5, 6};
Line(7) = {1, 6};
Line(8) = {3, 7};
Line(9) = {6, 7};
p10 = newp;
Point(p10 + 1) = {15.39883611228284, 1.559659538465249, 1};
Point(p10 + 2) = {15.36984140060839, 1.680431204336675, 1};
Point(p10 + 3) = {15.322310811006, 1.795180198382347, 1};
Point(p10 + 4) = {15.25741470433668, 1.901081019538782, 1};
Point(p10 + 5) = {15.17675103812443, 1.995526038124433, 1};
Point(p10 + 6) = {15.08230601953878, 2.076189704336675, 1};
Point(p10 + 7) = {14.97640519838235, 2.141085811006004, 1};
Point(p10 + 8) = {14.86165620433667, 2.188616400608391, 1};
Point(p10 + 9) = {14.74088453846525, 2.217611112282842, 1};
Point(p10 + 10) = {14.617064, 2.227356, 1};
Point(p10 + 11) = {14.49324346153475, 2.217611112282841, 1};
Point(p10 + 12) = {14.37247179566332, 2.188616400608391, 1};
Point(p10 + 13) = {14.25772280161765, 2.141085811006004, 1};
Point(p10 + 14) = {14.15182198046122, 2.076189704336675, 1};
Point(p10 + 15) = {14.05737696187557, 1.995526038124433, 1};
Point(p10 + 16) = {13.97671329566332, 1.901081019538782, 1};
Point(p10 + 17) = {13.91181718899399, 1.795180198382347, 1};
Point(p10 + 18) = {13.86428659939161, 1.680431204336675, 1};
Point(p10 + 19) = {13.83529188771716, 1.559659538465249, 1};
Point(p10 + 20) = {13.825547, 1.435839, 1};
Point(p10 + 21) = {13.83529188771716, 1.312018461534752, 1};
Point(p10 + 22) = {13.86428659939161, 1.191246795663325, 1};
Point(p10 + 23) = {13.91181718899399, 1.076497801617654, 1};
Point(p10 + 24) = {13.97671329566332, 0.9705969804612187, 1};
Point(p10 + 25) = {14.05737696187557, 0.8761519618755675, 1};
Point(p10 + 26) = {14.15182198046122, 0.7954882956633249, 1};
Point(p10 + 27) = {14.25772280161765, 0.7305921889939958, 1};
Point(p10 + 28) = {14.37247179566332, 0.683061599391609, 1};
Point(p10 + 29) = {14.49324346153475, 0.6540668877171585, 1};
Point(p10 + 30) = {14.617064, 0.6443220000000001, 1};
Point(p10 + 31) = {14.74088453846525, 0.6540668877171584, 1};
Point(p10 + 32) = {14.86165620433667, 0.6830615993916089, 1};
Point(p10 + 33) = {14.97640519838235, 0.7305921889939957, 1};
Point(p10 + 34) = {15.08230601953878, 0.7954882956633247, 1};
Point(p10 + 35) = {15.17675103812443, 0.8761519618755674, 1};
Point(p10 + 36) = {15.25741470433668, 0.9705969804612185, 1};
Point(p10 + 37) = {15.322310811006, 1.076497801617653, 1};
Point(p10 + 38) = {15.36984140060839, 1.191246795663325, 1};
Point(p10 + 39) = {15.39883611228284, 1.312018461534751, 1};
Spline(10) = {8, p10 + 1, p10 + 2, p10 + 3, p10 + 4, p10 + 5, p10 + 6, p10 + 7, p10 + 8, p10 + 9, p10 + 10, p10 + 11, p10 + 12, p10 + 13, p10 + 14, p10 + 15, p10 + 16, p10 + 17, p10 + 18, p10 + 19, p10 + 20, p10 + 21, p10 + 22, p10 + 23, p10 + 24, p10 + 25, p10 + 26, p10 + 27, p10 + 28, p10 + 29, p10 + 30, p10 + 31, p10 + 32, p10 + 33, p10 + 34, p10 + 35, p10 + 36, p10 + 37, p10 + 38, p10 + 39, 8};
p11 = newp;
Point(p11 + 1) = {2.796345827091356, 3.804218338913982, 1};
Point(p11 + 2) = {2.769519316465397, 3.915958797456617, 1};
Point(p11 + 3) = {2.725543025845819, 4.022126954693263, 1};
Point(p11 + 4) = {2.665499797456616, 4.120108598240842, 1};
Point(p11 + 5) = {2.590868094852782, 4.207491094852782, 1};
Point(p11 + 6) = {2.503485598240842, 4.282122797456617, 1};
Point(p11 + 7) = {2.405503954693263, 4.342166025845819, 1};
Point(p11 + 8) = {2.299335797456616, 4.386142316465397, 1};
Point(p11 + 9) = {2.187595338913982, 4.412968827091356, 1};
Point(p11 + 10) = {2.073034, 4.421985, 1};
Point(p11 + 11) = {1.958472661086017, 4.412968827091356, 1};
Point(p11 + 12) = {1.846732202543383, 4.386142316465397, 1};
Point(p11 + 13) = {1.740564045306737, 4.342166025845819, 1};
Point(p11 + 14) = {1.642582401759158, 4.282122797456617, 1};
Point(p11 + 15) = {1.555199905147218, 4.207491094852782, 1};
Point(p11 + 16) = {1.480568202543383, 4.120108598240842, 1};
Point(p11 + 17) = {1.420524974154181, 4.022126954693263, 1};
Point(p11 + 18) = {1.376548683534603, 3.915958797456617, 1};
Point(p11 + 19) = {1.349722172908644, 3.804218338913982, 1};
Point(p11 + 20) = {1.340706, 3.689657, 1};
Point(p11 + 21) = {1.349722172908644, 3.575095661086018, 1};
Point(p11 + 22) = {1.376548683534603, 3.463355202543383, 1};
Point(p11 + 23) = {1.420524974154181, 3.357187045306738, 1};
Point(p11 + 24) = {1.480568202543383, 3.259205401759158, 1};
Point(p11 + 25) = {1.555199905147218, 3.171822905147218, 1};
Point(p11 + 26) = {1.642582401759157, 3.097191202543383, 1};
Point(p11 + 27) = {1.740564045306737, 3.037147974154181, 1};
Point(p11 + 28) = {1.846732202543383, 2.993171683534603, 1};
Point(p11 + 29) = {1.958472661086017, 2.966345172908644, 1};
Point(p11 + 30) = {2.073034, 2.957329, 1};
Point(p11 + 31) = {2.187595338913982, 2.966345172908644, 1};
Point(p11 + 32) = {2.299335797456616, 2.993171683534603, 1};
Point(p11 + 33) = {2.405503954693263, 3.037147974154181, 1};
Point(p11 + 34) = {2.503485598240842, 3.097191202543383, 1};
Point(p11 + 35) = {2.590868094852782, 3.171822905147218, 1};
Point(p11 + 36) = {2.665499797456616, 3.259205401759158, 1};
Point(p11 + 37) = {2.725543025845819, 3.357187045306737, 1};
Point(p11 + 38) = {2.769519316465397, 3.463355202543383, 1};
Point(p11 + 39) = {2.796345827091356, 3.575095661086018, 1};
Spline(11) = {9, p11 + 1, p11 + 2, p11 + 3, p11 + 4, p11 + 5, p11 + 6, p11 + 7, p11 + 8, p11 + 9, p11 + 10, p11 + 11, p11 + 12, p11 + 13, p11 + 14, p11 + 15, p11 + 16, p11 + 17, p11 + 18, p11 + 19, p11 + 20, p11 + 21, p11 + 22, p11 + 23, p11 + 24, p11 + 25, p11 + 26, p11 + 27, p11 + 28, p11 + 29, p11 + 30, p11 + 31, p11 + 32, p11 + 33, p11 + 34, p11 + 35, p11 + 36, p11 + 37, p11 + 38, p11 + 39, 9};
Line(12) = {4, 10};
Line(13) = {10, 7};
Line(14) = {5, 10};
p15 = newp;
Point(p15 + 1) = {15.39883611228284, 1.559659538465249, 0};
Point(p15 + 2) = {15.36984140060839, 1.680431204336675, 0};
Point(p15 + 3) = {15.322310811006, 1.795180198382347, 0};
Point(p15 + 4) = {15.25741470433668, 1.901081019538782, 0};
Point(p15 + 5) = {15.17675103812443, 1.995526038124433, 0};
Point(p15 + 6) = {15.08230601953878, 2.076189704336675, 0};
Point(p15 + 7) = {14.97640519838235, 2.141085811006004, 0};
Point(p15 + 8) = {14.86165620433667, 2.188616400608391, 0};
Point(p15 + 9) = {14.74088453846525, 2.217611112282842, 0};
Point(p15 + 10) = {14.617064, 2.227356, 0};
Point(p15 + 11) = {14.49324346153475, 2.217611112282841, 0};
Point(p15 + 12) = {14.37247179566332, 2.188616400608391, 0};
Point(p15 + 13) = {14.25772280161765, 2.141085811006004, 0};
Point(p15 + 14) = {14.15182198046122, 2.076189704336675, 0};
Point(p15 + 15) = {14.05737696187557, 1.995526038124433, 0};
Point(p15 + 16) = {13.97671329566332, 1.901081019538782, 0};
Point(p15 + 17) = {13.91181718899399, 1.795180198382347, 0};
Point(p15 + 18) = {13.86428659939161, 1.680431204336675, 0};
Point(p15 + 19) = {13.83529188771716, 1.559659538465249, 0};
Point(p15 + 20) = {13.825547, 1.435839, 0};
Point(p15 + 21) = {13.83529188771716, 1.312018461534752, 0};
Point(p15 + 22) = {13.86428659939161, 1.191246795663325, 0};
Point(p15 + 23) = {13.91181718899399, 1.076497801617654, 0};
Point(p15 + 24) = {13.97671329566332, 0.9705969804612187, 0};
Point(p15 + 25) = {14.05737696187557, 0.8761519618755675, 0};
Point(p15 + 26) = {14.15182198046122, 0.7954882956633249, 0};
Point(p15 + 27) = {14.25772280161765, 0.7305921889939958, 0};
Point(p15 + 28) = {14.37247179566332, 0.683061599391609, 0};
Point(p15 + 29) = {14.49324346153475, 0.6540668877171585, 0};
Point(p15 + 30) = {14.617064, 0.6443220000000001, 0};
Point(p15 + 31) = {14.74088453846525, 0.6540668877171584, 0};
Point(p15 + 32) = {14.86165620433667, 0.6830615993916089, 0};
Point(p15 + 33) = {14.97640519838235, 0.7305921889939957, 0};
Point(p15 + 34) = {15.08230601953878, 0.7954882956633247, 0};
Point(p15 + 35) = {15.17675103812443, 0.8761519618755674, 0};
Point(p15 + 36) = {15.25741470433668, 0.9705969804612185, 0};
Point(p15 + 37) = {15.322310811006, 1.076497801617653, 0};
Point(p15 + 38) = {15.36984140060839, 1.191246795663325, 0};
Point(p15 + 39) = {15.39883611228284, 1.312018461534751, 0};
Spline(15) = {11, p15 + 1, p15 + 2, p15 + 3, p15 + 4, p15 + 5, p15 + 6, p15 + 7, p15 + 8, p15 + 9, p15 + 10, p15 + 11, p15 + 12, p15 + 13, p15 + 14, p15 + 15, p15 + 16, p15 + 17, p15 + 18, p15 + 19, p15 + 20, p15 + 21, p15 + 22, p15 + 23, p15 + 24, p15 + 25, p15 + 26, p15 + 27, p15 + 28, p15 + 29, p15 + 30, p15 + 31, p15 + 32, p15 + 33, p15 + 34, p15 + 35, p15 + 36, p15 + 37, p15 + 38, p15 + 39, 11};
p16 = newp;
Point(p16 + 1) = {2.796345827091356, 3.804218338913982, 0};
Point(p16 + 2) = {2.769519316465397, 3.915958797456617, 0};
Point(p16 + 3) = {2.725543025845819, 4.022126954693263, 0};
Point(p16 + 4) = {2.665499797456616, 4.120108598240842, 0};
Point(p16 + 5) = {2.590868094852782, 4.207491094852782, 0};
Point(p16 + 6) = {2.503485598240842, 4.282122797456617, 0};
Point(p16 + 7) = {2.405503954693263, 4.342166025845819, 0};
Point(p16 + 8) = {2.299335797456616, 4.386142316465397, 0};
Point(p16 + 9) = {2.187595338913982, 4.412968827091356, 0};
Point(p16 + 10) = {2.073034, 4.421985, 0};
Point(p16 + 11) = {1.958472661086017, 4.412968827091356, 0};
Point(p16 + 12) = {1.846732202543383, 4.386142316465397, 0};
Point(p16 + 13) = {1.740564045306737, 4.342166025845819, 0};
Point(p16 + 14) = {1.642582401759158, 4.282122797456617, 0};
Point(p16 + 15) = {1.555199905147218, 4.207491094852782, 0};
Point(p16 + 16) = {1.480568202543383, 4.120108598240842, 0};
Point(p16 + 17) = {1.420524974154181, 4.022126954693263, 0};
Point(p16 + 18) = {1.376548683534603, 3.915958797456617, 0};
Point(p16 + 19) = {1.349722172908644, 3.804218338913982, 0};
Point(p16 + 20) = {1.340706, 3.689657, 0};
Point(p16 + 21) = {1.349722172908644, 3.575095661086018, 0};
Point(p16 + 22) = {1.376548683534603, 3.463355202543383, 0};
Point(p16 + 23) = {1.420524974154181, 3.357187045306738, 0};
Point(p16 + 24) = {1.480568202543383, 3.259205401759158, 0};
Point(p16 + 25) = {1.555199905147218, 3.171822905147218, 0};
Point(p16 + 26) = {1.642582401759157, 3.097191202543383, 0};
Point(p16 + 27) = {1.740564045306737, 3.037147974154181, 0};
Point(p16 + 28) = {1.846732202543383, 2.993171683534603, 0};
Point(p16 + 29) = {1.958472661086017, 2.966345172908644, 0};
Point(p16 + 30) = {2.073034, 2.957329, 0};
Point(p16 + 31) = {2.187595338913982, 2.966345172908644, 0};
Point(p16 + 32) = {2.299335797456616, 2.993171683534603, 0};
Point(p16 + 33) = {2.405503954693263, 3.037147974154181, 0};
Point(p16 + 34) = {2.503485598240842, 3.097191202543383, 0};
Point(p16 + 35) = {2.590868094852782, 3.171822905147218, 0};
Point(p16 + 36) = {2.665499797456616, 3.259205401759158, 0};
Point(p16 + 37) = {2.725543025845819, 3.357187045306737, 0};
Point(p16 + 38) = {2.769519316465397, 3.463355202543383, 0};
Point(p16 + 39) = {2.796345827091356, 3.575095661086018, 0};
Spline(16) = {12, p16 + 1, p16 + 2, p16 + 3, p16 + 4, p16 + 5, p16 + 6, p16 + 7, p16 + 8, p16 + 9, p16 + 10, p16 + 11, p16 + 12, p16 + 13, p16 + 14, p16 + 15, p16 + 16, p16 + 17, p16 + 18, p16 + 19, p16 + 20, p16 + 21, p16 + 22, p16 + 23, p16 + 24, p16 + 25, p16 + 26, p16 + 27, p16 + 28, p16 + 29, p16 + 30, p16 + 31, p16 + 32, p16 + 33, p16 + 34, p16 + 35, p16 + 36, p16 + 37, p16 + 38, p16 + 39, 12};
Line(17) = {11, 8};
Line(18) = {12, 9};
Curve Loop(1) = {-1, 4, 3, -2};
Plane Surface(1) = {1};
Curve Loop(2) = {-5, 1, 7, -6};
Plane Surface(2) = {2};
Curve Loop(3) = {-2, 7, 9, -8, -10, -11};
Plane Surface(3) = {3};
Curve Loop(4) = {-12, 3, 8, -13};
Plane Surface(4) = {4};
Curve Loop(5) = {-4, 5, 14, -12, -15, -16};
Plane Surface(5) = {5};
Curve Loop(6) = {-6, 14, 13, -9};
Plane Surface(6) = {6};
Curve Loop(7) = {-10, -17, 15, 17};
Surface(7) = {7};
Curve Loop(8) = {-11, -18, 16, 18};
Surface(8) = {8};
Surface Loop(1) = {1, 2, 3, 4, 5, 6, 7, 8};
Volume(1) = {1};
Physical Surface("INFLOW") = {1};
Physical Surface("OUTFLOW") = {6};
Physical Surface("OBSTACLE") = {7, 8};
Physical Surface("WALL_Y") = {2, 4};
Physical Surface("WALL_Z") = {3, 5};
Physical Volume("FLUID") = {1};
