cl__1 = 1.487547;
cl__2 = 0.757854;
cl__3 = 3.334798;
cl__4 = 0.050638;
cl__5 = 0.09933599999999999;
Point(1) = {0.200671, -3.96459, 1, cl__1};
Point(2) = {0.200671, -3.96459, 0, cl__1};
Point(3) = {0.200671, 5.092204000000001, 1, cl__2};
Point(4) = {0.200671, 5.092204000000001, 0, cl__2};
Point(5) = {33.039093, -3.96459, 0, cl__1};
Point(6) = {33.039093, -3.96459, 1, cl__1};
Point(7) = {33.039093, 5.092204000000001, 1, cl__3};
Point(8) = {25.632021, -2.308333, 1, cl__4};
Point(9) = {16.321078, 0.8304259999999998, 1, cl__5};
Point(10) = {33.039093, 5.092204000000001, 0, cl__3};
Point(11) = {25.632021, -2.308333, 0, cl__4};
Point(12) = {16.321078, 0.8304259999999998, 0, cl__5};
Line(1) = {2, 1};
Line(2) = {1, 3};
Line(3) = {4, 3};
Line(4) = {2, 4};
Line(5) = {2, 5};
Line(6) = {5, 6};
Line(7) = {1, 6};
Line(8) = {3, 7};
Line(9) = {6, 7};
p10 = newp;
Point(p10 + 1) = {25.62578664653389, -2.229118028461858, 1};
Point(p10 + 2) = {25.60723709660851, -2.151853592422403, 1};
Point(p10 + 3) = {25.57682910170546, -2.078442198722888, 1};
Point(p10 + 4) = {25.5353114075776, -2.010691479514642, 1};
Point(p10 + 5) = {25.48370631764368, -1.950269682356319, 1};
Point(p10 + 6) = {25.42328452048536, -1.898664592422403, 1};
Point(p10 + 7) = {25.35553380127711, -1.857146898294543, 1};
Point(p10 + 8) = {25.2821224075776, -1.826738903391493, 1};
Point(p10 + 9) = {25.20485797153814, -1.808189353466116, 1};
Point(p10 + 10) = {25.125643, -1.801955, 1};
Point(p10 + 11) = {25.04642802846186, -1.808189353466116, 1};
Point(p10 + 12) = {24.9691635924224, -1.826738903391493, 1};
Point(p10 + 13) = {24.89575219872289, -1.857146898294543, 1};
Point(p10 + 14) = {24.82800147951464, -1.898664592422403, 1};
Point(p10 + 15) = {24.76757968235632, -1.950269682356319, 1};
Point(p10 + 16) = {24.7159745924224, -2.010691479514642, 1};
Point(p10 + 17) = {24.67445689829454, -2.078442198722888, 1};
Point(p10 + 18) = {24.64404890339149, -2.151853592422403, 1};
Point(p10 + 19) = {24.62549935346611, -2.229118028461858, 1};
Point(p10 + 20) = {24.619265, -2.308333, 1};
Point(p10 + 21) = {24.62549935346611, -2.387547971538142, 1};
Point(p10 + 22) = {24.64404890339149, -2.464812407577598, 1};
Point(p10 + 23) = {24.67445689829454, -2.538223801277112, 1};
Point(p10 + 24) = {24.7159745924224, -2.605974520485358, 1};
Point(p10 + 25) = {24.76757968235632, -2.666396317643682, 1};
Point(p10 + 26) = {24.82800147951464, -2.718001407577597, 1};
Point(p10 + 27) = {24.89575219872289, -2.759519101705457, 1};
Point(p10 + 28) = {24.9691635924224, -2.789927096608507, 1};
Point(p10 + 29) = {25.04642802846186, -2.808476646533885, 1};
Point(p10 + 30) = {25.125643, -2.814711, 1};
Point(p10 + 31) = {25.20485797153814, -2.808476646533885, 1};
Point(p10 + 32) = {25.2821224075776, -2.789927096608507, 1};
Point(p10 + 33) = {25.35553380127711, -2.759519101705457, 1};
Point(p10 + 34) = {25.42328452048536, -2.718001407577598, 1};
Point(p10 + 35) = {25.48370631764368, -2.666396317643682, 1};
Point(p10 + 36) = {25.5353114075776, -2.605974520485358, 1};
Point(p10 + 37) = {25.57682910170546, -2.538223801277113, 1};
Point(p10 + 38) = {25.60723709660851, -2.464812407577597, 1};
Point(p10 + 39) = {25.62578664653389, -2.387547971538142, 1};
Spline(10) = {8, p10 + 1, p10 + 2, p10 + 3, p10 + 4, p10 + 5, p10 + 6, p10 + 7, p10 + 8, p10 + 9, p10 + 10, p10 + 11, p10 + 12, p10 + 13, p10 + 14, p10 + 15, p10 + 16, p10 + 17, p10 + 18, p10 + 19, p10 + 20, p10 + 21, p10 + 22, p10 + 23, p10 + 24, p10 + 25, p10 + 26, p10 + 27, p10 + 28, p10 + 29, p10 + 30, p10 + 31, p10 + 32, p10 + 33, p10 + 34, p10 + 35, p10 + 36, p10 + 37, p10 + 38, p10 + 39, 8};
p11 = newp;
Point(p11 + 1) = {16.30884807770193, 0.9858218966268288, 1};
Point(p11 + 2) = {16.27245945208347, 1.137391430549292, 1};
Point(p11 + 3) = {16.21280813187428, 1.281402456811776, 1};
Point(p11 + 4) = {16.13136293054929, 1.414308946002504, 1};
Point(p11 + 5) = {16.03012929926625, 1.53283829926625, 1};
Point(p11 + 6) = {15.9115999460025, 1.634071930549292, 1};
Point(p11 + 7) = {15.77869345681178, 1.715517131874281, 1};
Point(p11 + 8) = {15.63468243054929, 1.77516845208347, 1};
Point(p11 + 9) = {15.48311289662683, 1.811557077701927, 1};
Point(p11 + 10) = {15.327717, 1.823787, 1};
Point(p11 + 11) = {15.17232110337317, 1.811557077701927, 1};
Point(p11 + 12) = {15.02075156945071, 1.77516845208347, 1};
Point(p11 + 13) = {14.87674054318822, 1.715517131874281, 1};
Point(p11 + 14) = {14.7438340539975, 1.634071930549292, 1};
Point(p11 + 15) = {14.62530470073375, 1.53283829926625, 1};
Point(p11 + 16) = {14.52407106945071, 1.414308946002504, 1};
Point(p11 + 17) = {14.44262586812572, 1.281402456811776, 1};
Point(p11 + 18) = {14.38297454791653, 1.137391430549292, 1};
Point(p11 + 19) = {14.34658592229807, 0.9858218966268288, 1};
Point(p11 + 20) = {14.334356, 0.8304260000000001, 1};
Point(p11 + 21) = {14.34658592229807, 0.6750301033731714, 1};
Point(p11 + 22) = {14.38297454791653, 0.5234605694507075, 1};
Point(p11 + 23) = {14.44262586812572, 0.3794495431882245, 1};
Point(p11 + 24) = {14.52407106945071, 0.2465430539974967, 1};
Point(p11 + 25) = {14.62530470073375, 0.12801370073375, 1};
Point(p11 + 26) = {14.7438340539975, 0.02678006945070788, 1};
Point(p11 + 27) = {14.87674054318822, -0.05466513187428124, 1};
Point(p11 + 28) = {15.02075156945071, -0.1143164520834701, 1};
Point(p11 + 29) = {15.17232110337317, -0.1507050777019265, 1};
Point(p11 + 30) = {15.327717, -0.1629350000000001, 1};
Point(p11 + 31) = {15.48311289662683, -0.1507050777019266, 1};
Point(p11 + 32) = {15.63468243054929, -0.1143164520834702, 1};
Point(p11 + 33) = {15.77869345681178, -0.05466513187428135, 1};
Point(p11 + 34) = {15.9115999460025, 0.02678006945070766, 1};
Point(p11 + 35) = {16.03012929926625, 0.1280137007337497, 1};
Point(p11 + 36) = {16.13136293054929, 0.2465430539974963, 1};
Point(p11 + 37) = {16.21280813187428, 0.3794495431882239, 1};
Point(p11 + 38) = {16.27245945208347, 0.5234605694507076, 1};
Point(p11 + 39) = {16.30884807770193, 0.6750301033731709, 1};
Spline(11) = {9, p11 + 1, p11 + 2, p11 + 3, p11 + 4, p11 + 5, p11 + 6, p11 + 7, p11 + 8, p11 + 9, p11 + 10, p11 + 11, p11 + 12, p11 + 13, p11 + 14, p11 + 15, p11 + 16, p11 + 17, p11 + 18, p11 + 19, p11 + 20, p11 + 21, p11 + 22, p11 + 23, p11 + 24, p11 + 25, p11 + 26, p11 + 27, p11 + 28, p11 + 29, p11 + 30, p11 + 31, p11 + 32, p11 + 33, p11 + 34, p11 + 35, p11 + 36, p11 + 37, p11 + 38, p11 + 39, 9};
Line(12) = {4, 10};
Line(13) = {10, 7};
Line(14) = {5, 10};
p15 = newp;
Point(p15 + 1) = {25.62578664653389, -2.229118028461858, 0};
Point(p15 + 2) = {25.60723709660851, -2.151853592422403, 0};
Point(p15 + 3) = {25.57682910170546, -2.078442198722888, 0};
Point(p15 + 4) = {25.5353114075776, -2.010691479514642, 0};
Point(p15 + 5) = {25.48370631764368, -1.950269682356319, 0};
Point(p15 + 6) = {25.42328452048536, -1.898664592422403, 0};
Point(p15 + 7) = {25.35553380127711, -1.857146898294543, 0};
Point(p15 + 8) = {25.2821224075776, -1.826738903391493, 0};
Point(p15 + 9) = {25.20485797153814, -1.808189353466116, 0};
Point(p15 + 10) = {25.125643, -1.801955, 0};
Point(p15 + 11) = {25.04642802846186, -1.808189353466116, 0};
Point(p15 + 12) = {24.9691635924224, -1.826738903391493, 0};
Point(p15 + 13) = {24.89575219872289, -1.857146898294543, 0};
Point(p15 + 14) = {24.82800147951464, -1.898664592422403, 0};
Point(p15 + 15) = {24.76757968235632, -1.950269682356319, 0};
Point(p15 + 16) = {24.7159745924224, -2.010691479514642, 0};
Point(p15 + 17) = {24.67445689829454, -2.078442198722888, 0};
Point(p15 + 18) = {24.64404890339149, -2.151853592422403, 0};
Point(p15 + 19) = {24.62549935346611, -2.229118028461858, 0};
Point(p15 + 20) = {24.619265, -2.308333, 0};
Point(p15 + 21) = {24.62549935346611, -2.387547971538142, 0};
Point(p15 + 22) = {24.64404890339149, -2.464812407577598, 0};
Point(p15 + 23) = {24.67445689829454, -2.538223801277112, 0};
Point(p15 + 24) = {24.7159745924224, -2.605974520485358, 0};
Point(p15 + 25) = {24.76757968235632, -2.666396317643682, 0};
Point(p15 + 26) = {24.82800147951464, -2.718001407577597, 0};
Point(p15 + 27) = {24.89575219872289, -2.759519101705457, 0};
Point(p15 + 28) = {24.9691635924224, -2.789927096608507, 0};
Point(p15 + 29) = {25.04642802846186, -2.808476646533885, 0};
Point(p15 + 30) = {25.125643, -2.814711, 0};
Point(p15 + 31) = {25.20485797153814, -2.808476646533885, 0};
Point(p15 + 32) = {25.2821224075776, -2.789927096608507, 0};
Point(p15 + 33) = {25.35553380127711, -2.759519101705457, 0};
Point(p15 + 34) = {25.42328452048536, -2.718001407577598, 0};
Point(p15 + 35) = {25.48370631764368, -2.666396317643682, 0};
Point(p15 + 36) = {25.5353114075776, -2.605974520485358, 0};
Point(p15 + 37) = {25.57682910170546, -2.538223801277113, 0};
Point(p15 + 38) = {25.60723709660851, -2.464812407577597, 0};
Point(p15 + 39) = {25.62578664653389, -2.387547971538142, 0};
Spline(15) = {11, p15 + 1, p15 + 2, p15 + 3, p15 + 4, p15 + 5, p15 + 6, p15 + 7, p15 + 8, p15 + 9, p15 + 10, p15 + 11, p15 + 12, p15 + 13, p15 + 14, p15 + 15, p15 + 16, p15 + 17, p15 + 18, p15 + 19, p15 + 20, p15 + 21, p15 + 22, p15 + 23, p15 + 24, p15 + 25, p15 + 26, p15 + 27, p15 + 28, p15 + 29, p15 + 30, p15 + 31, p15 + 32, p15 + 33, p15 + 34, p15 + 35, p15 + 36, p15 + 37, p15 + 38, p15 + 39, 11};
p16 = newp;
Point(p16 + 1) = {16.30884807770193, 0.9858218966268288, 0};
Point(p16 + 2) = {16.27245945208347, 1.137391430549292, 0};
Point(p16 + 3) = {16.21280813187428, 1.281402456811776, 0};
Point(p16 + 4) = {16.13136293054929, 1.414308946002504, 0};
Point(p16 + 5) = {16.03012929926625, 1.53283829926625, 0};
Point(p16 + 6) = {15.9115999460025, 1.634071930549292, 0};
Point(p16 + 7) = {15.77869345681178, 1.715517131874281, 0};
Point(p16 + 8) = {15.63468243054929, 1.77516845208347, 0};
Point(p16 + 9) = {15.48311289662683, 1.811557077701927, 0};
Point(p16 + 10) = {15.327717, 1.823787, 0};
Point(p16 + 11) = {15.17232110337317, 1.811557077701927, 0};
Point(p16 + 12) = {15.02075156945071, 1.77516845208347, 0};
Point(p16 + 13) = {14.87674054318822, 1.715517131874281, 0};
Point(p16 + 14) = {14.7438340539975, 1.634071930549292, 0};
Point(p16 + 15) = {14.62530470073375, 1.53283829926625, 0};
Point(p16 + 16) = {14.52407106945071, 1.414308946002504, 0};
Point(p16 + 17) = {14.44262586812572, 1.281402456811776, 0};
Point(p16 + 18) = {14.38297454791653, 1.137391430549292, 0};
Point(p16 + 19) = {14.34658592229807, 0.9858218966268288, 0};
Point(p16 + 20) = {14.334356, 0.8304260000000001, 0};
Point(p16 + 21) = {14.34658592229807, 0.6750301033731714, 0};
Point(p16 + 22) = {14.38297454791653, 0.5234605694507075, 0};
Point(p16 + 23) = {14.44262586812572, 0.3794495431882245, 0};
Point(p16 + 24) = {14.52407106945071, 0.2465430539974967, 0};
Point(p16 + 25) = {14.62530470073375, 0.12801370073375, 0};
Point(p16 + 26) = {14.7438340539975, 0.02678006945070788, 0};
Point(p16 + 27) = {14.87674054318822, -0.05466513187428124, 0};
Point(p16 + 28) = {15.02075156945071, -0.1143164520834701, 0};
Point(p16 + 29) = {15.17232110337317, -0.1507050777019265, 0};
Point(p16 + 30) = {15.327717, -0.1629350000000001, 0};
Point(p16 + 31) = {15.48311289662683, -0.1507050777019266, 0};
Point(p16 + 32) = {15.63468243054929, -0.1143164520834702, 0};
Point(p16 + 33) = {15.77869345681178, -0.05466513187428135, 0};
Point(p16 + 34) = {15.9115999460025, 0.02678006945070766, 0};
Point(p16 + 35) = {16.03012929926625, 0.1280137007337497, 0};
Point(p16 + 36) = {16.13136293054929, 0.2465430539974963, 0};
Point(p16 + 37) = {16.21280813187428, 0.3794495431882239, 0};
Point(p16 + 38) = {16.27245945208347, 0.5234605694507076, 0};
Point(p16 + 39) = {16.30884807770193, 0.6750301033731709, 0};
Spline(16) = {12, p16 + 1, p16 + 2, p16 + 3, p16 + 4, p16 + 5, p16 + 6, p16 + 7, p16 + 8, p16 + 9, p16 + 10, p16 + 11, p16 + 12, p16 + 13, p16 + 14, p16 + 15, p16 + 16, p16 + 17, p16 + 18, p16 + 19, p16 + 20, p16 + 21, p16 + 22, p16 + 23, p16 + 24, p16 + 25, p16 + 26, p16 + 27, p16 + 28, p16 + 29, p16 + 30, p16 + 31, p16 + 32, p16 + 33, p16 + 34, p16 + 35, p16 + 36, p16 + 37, p16 + 38, p16 + 39, 12};
Line(17) = {11, 8};
Line(18) = {12, 9};
Curve Loop(1) = {-1, 4, 3, -2};
Plane Surface(1) = {1};
Curve Loop(2) = {-5, 1, 7, -6};
Plane Surface(2) = {2};
Curve Loop(3) = {-2, 7, 9, -8, -10, -11};
Plane Surface(3) = {3};
Curve Loop(4) = {-12, 3, 8, -13};
Plane Surface(4) = {4};
Curve Loop(5) = {-4, 5, 14, -12, -15, -16};
Plane Surface(5) = {5};
Curve Loop(6) = {-6, 14, 13, -9};
Plane Surface(6) = {6};
Curve Loop(7) = {-10, -17, 15, 17};
Surface(7) = {7};
Curve Loop(8) = {-11, -18, 16, 18};
Surface(8) = {8};
Surface Loop(1) = {1, 2, 3, 4, 5, 6, 7, 8};
Volume(1) = {1};
Physical Surface("INFLOW") = {1};
Physical Surface("OUTFLOW") = {6};
Physical Surface("OBSTACLE") = {7, 8};
Physical Surface("WALL_Y") = {2, 4};
Physical Surface("WALL_Z") = {3, 5};
Physical Volume("FLUID") = {1};
