cl__1 = 1;
cl__2 = 0.09910099999999999;
cl__3 = 0.07008499999999999;
Point(1) = {0.8154749999999999, -3.060647, 1, cl__1};
Point(2) = {0.8154749999999999, -3.060647, 0, cl__1};
Point(3) = {0.8154749999999999, 4.779664, 1, cl__1};
Point(4) = {0.8154749999999999, 4.779664, 0, cl__1};
Point(5) = {39.742253, -3.060647, 0, cl__1};
Point(6) = {39.742253, -3.060647, 1, cl__1};
Point(7) = {39.742253, 4.779664, 1, cl__1};
Point(8) = {12.573813, 1.52853, 1, cl__2};
Point(9) = {13.444807, 3.506806, 1, cl__3};
Point(10) = {39.742253, 4.779664, 0, cl__1};
Point(11) = {12.573813, 1.52853, 0, cl__2};
Point(12) = {13.444807, 3.506806, 0, cl__3};
Line(1) = {2, 1};
Line(2) = {1, 3};
Line(3) = {4, 3};
Line(4) = {2, 4};
Line(5) = {2, 5};
Line(6) = {5, 6};
Line(7) = {1, 6};
Line(8) = {3, 7};
Line(9) = {6, 7};
p10 = newp;
Point(p10 + 1) = {12.56161205934817, 1.683557649896124, 1};
Point(p10 + 2) = {12.52530966504411, 1.834768004544533, 1};
Point(p10 + 3) = {12.46579970251634, 1.978437763175389, 1};
Point(p10 + 4) = {12.38454750454453, 2.111029299518607, 1};
Point(p10 + 5) = {12.28355376990334, 2.229277769903337, 1};
Point(p10 + 6) = {12.16530529951861, 2.330271504544533, 1};
Point(p10 + 7) = {12.03271376317539, 2.411523702516342, 1};
Point(p10 + 8) = {11.88904400454453, 2.471033665044111, 1};
Point(p10 + 9) = {11.73783364989612, 2.507336059348166, 1};
Point(p10 + 10) = {11.582806, 2.519537, 1};
Point(p10 + 11) = {11.42777835010387, 2.507336059348166, 1};
Point(p10 + 12) = {11.27656799545547, 2.471033665044111, 1};
Point(p10 + 13) = {11.13289823682461, 2.411523702516342, 1};
Point(p10 + 14) = {11.00030670048139, 2.330271504544533, 1};
Point(p10 + 15) = {10.88205823009666, 2.229277769903337, 1};
Point(p10 + 16) = {10.78106449545547, 2.111029299518607, 1};
Point(p10 + 17) = {10.69981229748366, 1.978437763175389, 1};
Point(p10 + 18) = {10.64030233495589, 1.834768004544534, 1};
Point(p10 + 19) = {10.60399994065183, 1.683557649896124, 1};
Point(p10 + 20) = {10.591799, 1.52853, 1};
Point(p10 + 21) = {10.60399994065183, 1.373502350103876, 1};
Point(p10 + 22) = {10.64030233495589, 1.222291995455466, 1};
Point(p10 + 23) = {10.69981229748366, 1.078622236824611, 1};
Point(p10 + 24) = {10.78106449545547, 0.9460307004813931, 1};
Point(p10 + 25) = {10.88205823009666, 0.8277822300966631, 1};
Point(p10 + 26) = {11.00030670048139, 0.7267884954554665, 1};
Point(p10 + 27) = {11.13289823682461, 0.6455362974836582, 1};
Point(p10 + 28) = {11.27656799545547, 0.5860263349558887, 1};
Point(p10 + 29) = {11.42777835010387, 0.5497239406518344, 1};
Point(p10 + 30) = {11.582806, 0.537523, 1};
Point(p10 + 31) = {11.73783364989612, 0.5497239406518343, 1};
Point(p10 + 32) = {11.88904400454453, 0.5860263349558886, 1};
Point(p10 + 33) = {12.03271376317539, 0.645536297483658, 1};
Point(p10 + 34) = {12.16530529951861, 0.7267884954554663, 1};
Point(p10 + 35) = {12.28355376990334, 0.8277822300966629, 1};
Point(p10 + 36) = {12.38454750454453, 0.9460307004813928, 1};
Point(p10 + 37) = {12.46579970251634, 1.078622236824611, 1};
Point(p10 + 38) = {12.52530966504411, 1.222291995455466, 1};
Point(p10 + 39) = {12.56161205934817, 1.373502350103876, 1};
Spline(10) = {8, p10 + 1, p10 + 2, p10 + 3, p10 + 4, p10 + 5, p10 + 6, p10 + 7, p10 + 8, p10 + 9, p10 + 10, p10 + 11, p10 + 12, p10 + 13, p10 + 14, p10 + 15, p10 + 16, p10 + 17, p10 + 18, p10 + 19, p10 + 20, p10 + 21, p10 + 22, p10 + 23, p10 + 24, p10 + 25, p10 + 26, p10 + 27, p10 + 28, p10 + 29, p10 + 30, p10 + 31, p10 + 32, p10 + 33, p10 + 34, p10 + 35, p10 + 36, p10 + 37, p10 + 38, p10 + 39, 8};
p11 = newp;
Point(p11 + 1) = {13.43617836119444, 3.616443251257911, 1};
Point(p11 + 2) = {13.41050491050198, 3.723380869524676, 1};
Point(p11 + 3) = {13.36841881348394, 3.824985695732961, 1};
Point(p11 + 4) = {13.31095636952468, 3.918755881854432, 1};
Point(p11 + 5) = {13.23953249470137, 4.002382494701373, 1};
Point(p11 + 6) = {13.15590588185443, 4.073806369524676, 1};
Point(p11 + 7) = {13.06213569573296, 4.131268813483942, 1};
Point(p11 + 8) = {12.96053086952468, 4.173354910501975, 1};
Point(p11 + 9) = {12.85359325125791, 4.199028361194443, 1};
Point(p11 + 10) = {12.743956, 4.207657, 1};
Point(p11 + 11) = {12.63431874874209, 4.199028361194443, 1};
Point(p11 + 12) = {12.52738113047532, 4.173354910501975, 1};
Point(p11 + 13) = {12.42577630426704, 4.131268813483942, 1};
Point(p11 + 14) = {12.33200611814557, 4.073806369524676, 1};
Point(p11 + 15) = {12.24837950529863, 4.002382494701373, 1};
Point(p11 + 16) = {12.17695563047532, 3.918755881854432, 1};
Point(p11 + 17) = {12.11949318651606, 3.824985695732961, 1};
Point(p11 + 18) = {12.07740708949803, 3.723380869524676, 1};
Point(p11 + 19) = {12.05173363880556, 3.616443251257911, 1};
Point(p11 + 20) = {12.043105, 3.506806, 1};
Point(p11 + 21) = {12.05173363880556, 3.397168748742089, 1};
Point(p11 + 22) = {12.07740708949803, 3.290231130475324, 1};
Point(p11 + 23) = {12.11949318651606, 3.188626304267039, 1};
Point(p11 + 24) = {12.17695563047532, 3.094856118145568, 1};
Point(p11 + 25) = {12.24837950529863, 3.011229505298627, 1};
Point(p11 + 26) = {12.33200611814557, 2.939805630475324, 1};
Point(p11 + 27) = {12.42577630426704, 2.882343186516058, 1};
Point(p11 + 28) = {12.52738113047532, 2.840257089498025, 1};
Point(p11 + 29) = {12.63431874874209, 2.814583638805557, 1};
Point(p11 + 30) = {12.743956, 2.805955, 1};
Point(p11 + 31) = {12.85359325125791, 2.814583638805557, 1};
Point(p11 + 32) = {12.96053086952468, 2.840257089498025, 1};
Point(p11 + 33) = {13.06213569573296, 2.882343186516058, 1};
Point(p11 + 34) = {13.15590588185443, 2.939805630475324, 1};
Point(p11 + 35) = {13.23953249470137, 3.011229505298627, 1};
Point(p11 + 36) = {13.31095636952468, 3.094856118145568, 1};
Point(p11 + 37) = {13.36841881348394, 3.188626304267039, 1};
Point(p11 + 38) = {13.41050491050198, 3.290231130475324, 1};
Point(p11 + 39) = {13.43617836119444, 3.397168748742089, 1};
Spline(11) = {9, p11 + 1, p11 + 2, p11 + 3, p11 + 4, p11 + 5, p11 + 6, p11 + 7, p11 + 8, p11 + 9, p11 + 10, p11 + 11, p11 + 12, p11 + 13, p11 + 14, p11 + 15, p11 + 16, p11 + 17, p11 + 18, p11 + 19, p11 + 20, p11 + 21, p11 + 22, p11 + 23, p11 + 24, p11 + 25, p11 + 26, p11 + 27, p11 + 28, p11 + 29, p11 + 30, p11 + 31, p11 + 32, p11 + 33, p11 + 34, p11 + 35, p11 + 36, p11 + 37, p11 + 38, p11 + 39, 9};
Line(12) = {4, 10};
Line(13) = {10, 7};
Line(14) = {5, 10};
p15 = newp;
Point(p15 + 1) = {12.56161205934817, 1.683557649896124, 0};
Point(p15 + 2) = {12.52530966504411, 1.834768004544533, 0};
Point(p15 + 3) = {12.46579970251634, 1.978437763175389, 0};
Point(p15 + 4) = {12.38454750454453, 2.111029299518607, 0};
Point(p15 + 5) = {12.28355376990334, 2.229277769903337, 0};
Point(p15 + 6) = {12.16530529951861, 2.330271504544533, 0};
Point(p15 + 7) = {12.03271376317539, 2.411523702516342, 0};
Point(p15 + 8) = {11.88904400454453, 2.471033665044111, 0};
Point(p15 + 9) = {11.73783364989612, 2.507336059348166, 0};
Point(p15 + 10) = {11.582806, 2.519537, 0};
Point(p15 + 11) = {11.42777835010387, 2.507336059348166, 0};
Point(p15 + 12) = {11.27656799545547, 2.471033665044111, 0};
Point(p15 + 13) = {11.13289823682461, 2.411523702516342, 0};
Point(p15 + 14) = {11.00030670048139, 2.330271504544533, 0};
Point(p15 + 15) = {10.88205823009666, 2.229277769903337, 0};
Point(p15 + 16) = {10.78106449545547, 2.111029299518607, 0};
Point(p15 + 17) = {10.69981229748366, 1.978437763175389, 0};
Point(p15 + 18) = {10.64030233495589, 1.834768004544534, 0};
Point(p15 + 19) = {10.60399994065183, 1.683557649896124, 0};
Point(p15 + 20) = {10.591799, 1.52853, 0};
Point(p15 + 21) = {10.60399994065183, 1.373502350103876, 0};
Point(p15 + 22) = {10.64030233495589, 1.222291995455466, 0};
Point(p15 + 23) = {10.69981229748366, 1.078622236824611, 0};
Point(p15 + 24) = {10.78106449545547, 0.9460307004813931, 0};
Point(p15 + 25) = {10.88205823009666, 0.8277822300966631, 0};
Point(p15 + 26) = {11.00030670048139, 0.7267884954554665, 0};
Point(p15 + 27) = {11.13289823682461, 0.6455362974836582, 0};
Point(p15 + 28) = {11.27656799545547, 0.5860263349558887, 0};
Point(p15 + 29) = {11.42777835010387, 0.5497239406518344, 0};
Point(p15 + 30) = {11.582806, 0.537523, 0};
Point(p15 + 31) = {11.73783364989612, 0.5497239406518343, 0};
Point(p15 + 32) = {11.88904400454453, 0.5860263349558886, 0};
Point(p15 + 33) = {12.03271376317539, 0.645536297483658, 0};
Point(p15 + 34) = {12.16530529951861, 0.7267884954554663, 0};
Point(p15 + 35) = {12.28355376990334, 0.8277822300966629, 0};
Point(p15 + 36) = {12.38454750454453, 0.9460307004813928, 0};
Point(p15 + 37) = {12.46579970251634, 1.078622236824611, 0};
Point(p15 + 38) = {12.52530966504411, 1.222291995455466, 0};
Point(p15 + 39) = {12.56161205934817, 1.373502350103876, 0};
Spline(15) = {11, p15 + 1, p15 + 2, p15 + 3, p15 + 4, p15 + 5, p15 + 6, p15 + 7, p15 + 8, p15 + 9, p15 + 10, p15 + 11, p15 + 12, p15 + 13, p15 + 14, p15 + 15, p15 + 16, p15 + 17, p15 + 18, p15 + 19, p15 + 20, p15 + 21, p15 + 22, p15 + 23, p15 + 24, p15 + 25, p15 + 26, p15 + 27, p15 + 28, p15 + 29, p15 + 30, p15 + 31, p15 + 32, p15 + 33, p15 + 34, p15 + 35, p15 + 36, p15 + 37, p15 + 38, p15 + 39, 11};
p16 = newp;
Point(p16 + 1) = {13.43617836119444, 3.616443251257911, 0};
Point(p16 + 2) = {13.41050491050198, 3.723380869524676, 0};
Point(p16 + 3) = {13.36841881348394, 3.824985695732961, 0};
Point(p16 + 4) = {13.31095636952468, 3.918755881854432, 0};
Point(p16 + 5) = {13.23953249470137, 4.002382494701373, 0};
Point(p16 + 6) = {13.15590588185443, 4.073806369524676, 0};
Point(p16 + 7) = {13.06213569573296, 4.131268813483942, 0};
Point(p16 + 8) = {12.96053086952468, 4.173354910501975, 0};
Point(p16 + 9) = {12.85359325125791, 4.199028361194443, 0};
Point(p16 + 10) = {12.743956, 4.207657, 0};
Point(p16 + 11) = {12.63431874874209, 4.199028361194443, 0};
Point(p16 + 12) = {12.52738113047532, 4.173354910501975, 0};
Point(p16 + 13) = {12.42577630426704, 4.131268813483942, 0};
Point(p16 + 14) = {12.33200611814557, 4.073806369524676, 0};
Point(p16 + 15) = {12.24837950529863, 4.002382494701373, 0};
Point(p16 + 16) = {12.17695563047532, 3.918755881854432, 0};
Point(p16 + 17) = {12.11949318651606, 3.824985695732961, 0};
Point(p16 + 18) = {12.07740708949803, 3.723380869524676, 0};
Point(p16 + 19) = {12.05173363880556, 3.616443251257911, 0};
Point(p16 + 20) = {12.043105, 3.506806, 0};
Point(p16 + 21) = {12.05173363880556, 3.397168748742089, 0};
Point(p16 + 22) = {12.07740708949803, 3.290231130475324, 0};
Point(p16 + 23) = {12.11949318651606, 3.188626304267039, 0};
Point(p16 + 24) = {12.17695563047532, 3.094856118145568, 0};
Point(p16 + 25) = {12.24837950529863, 3.011229505298627, 0};
Point(p16 + 26) = {12.33200611814557, 2.939805630475324, 0};
Point(p16 + 27) = {12.42577630426704, 2.882343186516058, 0};
Point(p16 + 28) = {12.52738113047532, 2.840257089498025, 0};
Point(p16 + 29) = {12.63431874874209, 2.814583638805557, 0};
Point(p16 + 30) = {12.743956, 2.805955, 0};
Point(p16 + 31) = {12.85359325125791, 2.814583638805557, 0};
Point(p16 + 32) = {12.96053086952468, 2.840257089498025, 0};
Point(p16 + 33) = {13.06213569573296, 2.882343186516058, 0};
Point(p16 + 34) = {13.15590588185443, 2.939805630475324, 0};
Point(p16 + 35) = {13.23953249470137, 3.011229505298627, 0};
Point(p16 + 36) = {13.31095636952468, 3.094856118145568, 0};
Point(p16 + 37) = {13.36841881348394, 3.188626304267039, 0};
Point(p16 + 38) = {13.41050491050198, 3.290231130475324, 0};
Point(p16 + 39) = {13.43617836119444, 3.397168748742089, 0};
Spline(16) = {12, p16 + 1, p16 + 2, p16 + 3, p16 + 4, p16 + 5, p16 + 6, p16 + 7, p16 + 8, p16 + 9, p16 + 10, p16 + 11, p16 + 12, p16 + 13, p16 + 14, p16 + 15, p16 + 16, p16 + 17, p16 + 18, p16 + 19, p16 + 20, p16 + 21, p16 + 22, p16 + 23, p16 + 24, p16 + 25, p16 + 26, p16 + 27, p16 + 28, p16 + 29, p16 + 30, p16 + 31, p16 + 32, p16 + 33, p16 + 34, p16 + 35, p16 + 36, p16 + 37, p16 + 38, p16 + 39, 12};
Line(17) = {11, 8};
Line(18) = {12, 9};
Curve Loop(1) = {-1, 4, 3, -2};
Plane Surface(1) = {1};
Curve Loop(2) = {-5, 1, 7, -6};
Plane Surface(2) = {2};
Curve Loop(3) = {-2, 7, 9, -8, -10, -11};
Plane Surface(3) = {3};
Curve Loop(4) = {-12, 3, 8, -13};
Plane Surface(4) = {4};
Curve Loop(5) = {-4, 5, 14, -12, -15, -16};
Plane Surface(5) = {5};
Curve Loop(6) = {-6, 14, 13, -9};
Plane Surface(6) = {6};
Curve Loop(7) = {-10, -17, 15, 17};
Surface(7) = {7};
Curve Loop(8) = {-11, -18, 16, 18};
Surface(8) = {8};
Surface Loop(1) = {1, 2, 3, 4, 5, 6, 7, 8};
Volume(1) = {1};
Physical Surface("INFLOW") = {1};
Physical Surface("OUTFLOW") = {6};
Physical Surface("OBSTACLE") = {7, 8};
Physical Surface("WALL_Y") = {2, 4};
Physical Surface("WALL_Z") = {3, 5};
Physical Volume("FLUID") = {1};
