cl__1 = 1.4592;
cl__2 = 1.40146;
cl__3 = 3.6579;
cl__4 = 0.060054;
Point(1) = {0.669834, -3.284572, 1, cl__1};
Point(2) = {0.669834, -3.284572, 0, cl__1};
Point(3) = {0.669834, 4.346656, 1, cl__2};
Point(4) = {0.669834, 4.346656, 0, cl__2};
Point(5) = {36.379446, -3.284572, 0, cl__3};
Point(6) = {36.379446, -3.284572, 1, cl__3};
Point(7) = {36.379446, 4.346656, 1, cl__3};
Point(8) = {15.63622, 1.658709, 1, cl__4};
Point(9) = {36.379446, 4.346656, 0, cl__3};
Point(10) = {15.63622, 1.658709, 0, cl__4};
Line(1) = {2, 1};
Line(2) = {1, 3};
Line(3) = {4, 3};
Line(4) = {2, 4};
Line(5) = {2, 5};
Line(6) = {5, 6};
Line(7) = {1, 6};
Line(8) = {3, 7};
Line(9) = {6, 7};
p10 = newp;
Point(p10 + 1) = {15.62882629450271, 1.752654935807585, 1};
Point(p10 + 2) = {15.60682723557847, 1.844287610886903, 1};
Point(p10 + 3) = {15.5707645130687, 1.931350724666086, 1};
Point(p10 + 4) = {15.5215261108869, 2.011700494337983, 1};
Point(p10 + 5) = {15.46032444190767, 2.083358441907675, 1};
Point(p10 + 6) = {15.38866649433798, 2.144560110886903, 1};
Point(p10 + 7) = {15.30831672466608, 2.193798513068703, 1};
Point(p10 + 8) = {15.2212536108869, 2.229861235578473, 1};
Point(p10 + 9) = {15.12962093580759, 2.251860294502707, 1};
Point(p10 + 10) = {15.035675, 2.259254, 1};
Point(p10 + 11) = {14.94172906419241, 2.251860294502707, 1};
Point(p10 + 12) = {14.8500963891131, 2.229861235578473, 1};
Point(p10 + 13) = {14.76303327533391, 2.193798513068703, 1};
Point(p10 + 14) = {14.68268350566202, 2.144560110886903, 1};
Point(p10 + 15) = {14.61102555809232, 2.083358441907675, 1};
Point(p10 + 16) = {14.5498238891131, 2.011700494337983, 1};
Point(p10 + 17) = {14.5005854869313, 1.931350724666086, 1};
Point(p10 + 18) = {14.46452276442153, 1.844287610886903, 1};
Point(p10 + 19) = {14.44252370549729, 1.752654935807586, 1};
Point(p10 + 20) = {14.43513, 1.658709, 1};
Point(p10 + 21) = {14.44252370549729, 1.564763064192415, 1};
Point(p10 + 22) = {14.46452276442153, 1.473130389113097, 1};
Point(p10 + 23) = {14.5005854869313, 1.386067275333914, 1};
Point(p10 + 24) = {14.5498238891131, 1.305717505662017, 1};
Point(p10 + 25) = {14.61102555809232, 1.234059558092325, 1};
Point(p10 + 26) = {14.68268350566202, 1.172857889113097, 1};
Point(p10 + 27) = {14.76303327533391, 1.123619486931297, 1};
Point(p10 + 28) = {14.8500963891131, 1.087556764421527, 1};
Point(p10 + 29) = {14.94172906419241, 1.065557705497293, 1};
Point(p10 + 30) = {15.035675, 1.058164, 1};
Point(p10 + 31) = {15.12962093580759, 1.065557705497293, 1};
Point(p10 + 32) = {15.2212536108869, 1.087556764421527, 1};
Point(p10 + 33) = {15.30831672466608, 1.123619486931297, 1};
Point(p10 + 34) = {15.38866649433798, 1.172857889113097, 1};
Point(p10 + 35) = {15.46032444190767, 1.234059558092325, 1};
Point(p10 + 36) = {15.5215261108869, 1.305717505662016, 1};
Point(p10 + 37) = {15.5707645130687, 1.386067275333914, 1};
Point(p10 + 38) = {15.60682723557847, 1.473130389113097, 1};
Point(p10 + 39) = {15.62882629450271, 1.564763064192414, 1};
Spline(10) = {8, p10 + 1, p10 + 2, p10 + 3, p10 + 4, p10 + 5, p10 + 6, p10 + 7, p10 + 8, p10 + 9, p10 + 10, p10 + 11, p10 + 12, p10 + 13, p10 + 14, p10 + 15, p10 + 16, p10 + 17, p10 + 18, p10 + 19, p10 + 20, p10 + 21, p10 + 22, p10 + 23, p10 + 24, p10 + 25, p10 + 26, p10 + 27, p10 + 28, p10 + 29, p10 + 30, p10 + 31, p10 + 32, p10 + 33, p10 + 34, p10 + 35, p10 + 36, p10 + 37, p10 + 38, p10 + 39, 8};
Line(11) = {4, 9};
Line(12) = {9, 7};
Line(13) = {5, 9};
p14 = newp;
Point(p14 + 1) = {15.62882629450271, 1.752654935807585, 0};
Point(p14 + 2) = {15.60682723557847, 1.844287610886903, 0};
Point(p14 + 3) = {15.5707645130687, 1.931350724666086, 0};
Point(p14 + 4) = {15.5215261108869, 2.011700494337983, 0};
Point(p14 + 5) = {15.46032444190767, 2.083358441907675, 0};
Point(p14 + 6) = {15.38866649433798, 2.144560110886903, 0};
Point(p14 + 7) = {15.30831672466608, 2.193798513068703, 0};
Point(p14 + 8) = {15.2212536108869, 2.229861235578473, 0};
Point(p14 + 9) = {15.12962093580759, 2.251860294502707, 0};
Point(p14 + 10) = {15.035675, 2.259254, 0};
Point(p14 + 11) = {14.94172906419241, 2.251860294502707, 0};
Point(p14 + 12) = {14.8500963891131, 2.229861235578473, 0};
Point(p14 + 13) = {14.76303327533391, 2.193798513068703, 0};
Point(p14 + 14) = {14.68268350566202, 2.144560110886903, 0};
Point(p14 + 15) = {14.61102555809232, 2.083358441907675, 0};
Point(p14 + 16) = {14.5498238891131, 2.011700494337983, 0};
Point(p14 + 17) = {14.5005854869313, 1.931350724666086, 0};
Point(p14 + 18) = {14.46452276442153, 1.844287610886903, 0};
Point(p14 + 19) = {14.44252370549729, 1.752654935807586, 0};
Point(p14 + 20) = {14.43513, 1.658709, 0};
Point(p14 + 21) = {14.44252370549729, 1.564763064192415, 0};
Point(p14 + 22) = {14.46452276442153, 1.473130389113097, 0};
Point(p14 + 23) = {14.5005854869313, 1.386067275333914, 0};
Point(p14 + 24) = {14.5498238891131, 1.305717505662017, 0};
Point(p14 + 25) = {14.61102555809232, 1.234059558092325, 0};
Point(p14 + 26) = {14.68268350566202, 1.172857889113097, 0};
Point(p14 + 27) = {14.76303327533391, 1.123619486931297, 0};
Point(p14 + 28) = {14.8500963891131, 1.087556764421527, 0};
Point(p14 + 29) = {14.94172906419241, 1.065557705497293, 0};
Point(p14 + 30) = {15.035675, 1.058164, 0};
Point(p14 + 31) = {15.12962093580759, 1.065557705497293, 0};
Point(p14 + 32) = {15.2212536108869, 1.087556764421527, 0};
Point(p14 + 33) = {15.30831672466608, 1.123619486931297, 0};
Point(p14 + 34) = {15.38866649433798, 1.172857889113097, 0};
Point(p14 + 35) = {15.46032444190767, 1.234059558092325, 0};
Point(p14 + 36) = {15.5215261108869, 1.305717505662016, 0};
Point(p14 + 37) = {15.5707645130687, 1.386067275333914, 0};
Point(p14 + 38) = {15.60682723557847, 1.473130389113097, 0};
Point(p14 + 39) = {15.62882629450271, 1.564763064192414, 0};
Spline(14) = {10, p14 + 1, p14 + 2, p14 + 3, p14 + 4, p14 + 5, p14 + 6, p14 + 7, p14 + 8, p14 + 9, p14 + 10, p14 + 11, p14 + 12, p14 + 13, p14 + 14, p14 + 15, p14 + 16, p14 + 17, p14 + 18, p14 + 19, p14 + 20, p14 + 21, p14 + 22, p14 + 23, p14 + 24, p14 + 25, p14 + 26, p14 + 27, p14 + 28, p14 + 29, p14 + 30, p14 + 31, p14 + 32, p14 + 33, p14 + 34, p14 + 35, p14 + 36, p14 + 37, p14 + 38, p14 + 39, 10};
Line(15) = {10, 8};
Curve Loop(1) = {-1, 4, 3, -2};
Plane Surface(1) = {1};
Curve Loop(2) = {-5, 1, 7, -6};
Plane Surface(2) = {2};
Curve Loop(3) = {-2, 7, 9, -8, -10};
Plane Surface(3) = {3};
Curve Loop(4) = {-11, 3, 8, -12};
Plane Surface(4) = {4};
Curve Loop(5) = {-4, 5, 13, -11, -14};
Plane Surface(5) = {5};
Curve Loop(6) = {-6, 13, 12, -9};
Plane Surface(6) = {6};
Curve Loop(7) = {-10, -15, 14, 15};
Surface(7) = {7};
Surface Loop(1) = {1, 2, 3, 4, 5, 6, 7};
Volume(1) = {1};
Physical Surface("INFLOW") = {1};
Physical Surface("OUTFLOW") = {6};
Physical Surface("OBSTACLE") = {7};
Physical Surface("WALL_Y") = {2, 4};
Physical Surface("WALL_Z") = {3, 5};
Physical Volume("FLUID") = {1};
