cl__1 = 1.29506;
cl__2 = 0.977741;
cl__3 = 3.228701;
cl__4 = 0.070578;
cl__5 = 0.056256;
Point(1) = {0.029192, -3.876147, 1, cl__1};
Point(2) = {0.029192, -3.876147, 0, cl__1};
Point(3) = {0.029192, 5.104361000000001, 1, cl__2};
Point(4) = {0.029192, 5.104361000000001, 0, cl__2};
Point(5) = {31.973244, -3.876147, 0, cl__1};
Point(6) = {31.973244, -3.876147, 1, cl__1};
Point(7) = {31.973244, 5.104361000000001, 1, cl__3};
Point(8) = {13.138125, 1.83863, 1, cl__4};
Point(9) = {24.616851, 2.772549999999999, 1, cl__5};
Point(10) = {31.973244, 5.104361000000001, 0, cl__3};
Point(11) = {13.138125, 1.83863, 0, cl__4};
Point(12) = {24.616851, 2.772549999999999, 0, cl__5};
Line(1) = {2, 1};
Line(2) = {1, 3};
Line(3) = {4, 3};
Line(4) = {2, 4};
Line(5) = {2, 5};
Line(6) = {5, 6};
Line(7) = {1, 6};
Line(8) = {3, 7};
Line(9) = {6, 7};
p10 = newp;
Point(p10 + 1) = {13.1294356277786, 1.949038942473954, 1};
Point(p10 + 2) = {13.10358147229686, 2.056729250357928, 1};
Point(p10 + 3) = {13.06119914866776, 2.159049230868176, 1};
Point(p10 + 4) = {13.00333225035793, 2.253479426503991, 1};
Point(p10 + 5) = {12.93140565245297, 2.337694652452966, 1};
Point(p10 + 6) = {12.84719042650399, 2.409621250357928, 1};
Point(p10 + 7) = {12.75276023086817, 2.467488148667763, 1};
Point(p10 + 8) = {12.65044025035793, 2.509870472296859, 1};
Point(p10 + 9) = {12.54274994247395, 2.535724627778599, 1};
Point(p10 + 10) = {12.432341, 2.544414, 1};
Point(p10 + 11) = {12.32193205752604, 2.535724627778599, 1};
Point(p10 + 12) = {12.21424174964207, 2.509870472296859, 1};
Point(p10 + 13) = {12.11192176913182, 2.467488148667763, 1};
Point(p10 + 14) = {12.01749157349601, 2.409621250357928, 1};
Point(p10 + 15) = {11.93327634754703, 2.337694652452966, 1};
Point(p10 + 16) = {11.86134974964207, 2.253479426503991, 1};
Point(p10 + 17) = {11.80348285133224, 2.159049230868176, 1};
Point(p10 + 18) = {11.76110052770314, 2.056729250357928, 1};
Point(p10 + 19) = {11.7352463722214, 1.949038942473954, 1};
Point(p10 + 20) = {11.726557, 1.83863, 1};
Point(p10 + 21) = {11.7352463722214, 1.728221057526046, 1};
Point(p10 + 22) = {11.76110052770314, 1.620530749642072, 1};
Point(p10 + 23) = {11.80348285133224, 1.518210769131824, 1};
Point(p10 + 24) = {11.86134974964207, 1.423780573496009, 1};
Point(p10 + 25) = {11.93327634754703, 1.339565347547034, 1};
Point(p10 + 26) = {12.01749157349601, 1.267638749642072, 1};
Point(p10 + 27) = {12.11192176913182, 1.209771851332237, 1};
Point(p10 + 28) = {12.21424174964207, 1.167389527703141, 1};
Point(p10 + 29) = {12.32193205752604, 1.141535372221401, 1};
Point(p10 + 30) = {12.432341, 1.132846, 1};
Point(p10 + 31) = {12.54274994247395, 1.141535372221401, 1};
Point(p10 + 32) = {12.65044025035793, 1.167389527703141, 1};
Point(p10 + 33) = {12.75276023086817, 1.209771851332237, 1};
Point(p10 + 34) = {12.84719042650399, 1.267638749642072, 1};
Point(p10 + 35) = {12.93140565245297, 1.339565347547034, 1};
Point(p10 + 36) = {13.00333225035793, 1.423780573496009, 1};
Point(p10 + 37) = {13.06119914866776, 1.518210769131824, 1};
Point(p10 + 38) = {13.10358147229686, 1.620530749642072, 1};
Point(p10 + 39) = {13.1294356277786, 1.728221057526045, 1};
Spline(10) = {8, p10 + 1, p10 + 2, p10 + 3, p10 + 4, p10 + 5, p10 + 6, p10 + 7, p10 + 8, p10 + 9, p10 + 10, p10 + 11, p10 + 12, p10 + 13, p10 + 14, p10 + 15, p10 + 16, p10 + 17, p10 + 18, p10 + 19, p10 + 20, p10 + 21, p10 + 22, p10 + 23, p10 + 24, p10 + 25, p10 + 26, p10 + 27, p10 + 28, p10 + 29, p10 + 30, p10 + 31, p10 + 32, p10 + 33, p10 + 34, p10 + 35, p10 + 36, p10 + 37, p10 + 38, p10 + 39, 8};
p11 = newp;
Point(p11 + 1) = {24.60992490363856, 2.860554398390892, 1};
Point(p11 + 2) = {24.58931715803307, 2.946391836423548, 1};
Point(p11 + 3) = {24.5555351942735, 3.027948711495478, 1};
Point(p11 + 4) = {24.50941083642355, 3.103216822670663, 1};
Point(p11 + 5) = {24.45207981925143, 3.170342819251429, 1};
Point(p11 + 6) = {24.38495382267066, 3.227673836423548, 1};
Point(p11 + 7) = {24.30968571149548, 3.273798194273505, 1};
Point(p11 + 8) = {24.22812883642355, 3.307580158033066, 1};
Point(p11 + 9) = {24.14229139839089, 3.328187903638563, 1};
Point(p11 + 10) = {24.054287, 3.335114, 1};
Point(p11 + 11) = {23.96628260160911, 3.328187903638563, 1};
Point(p11 + 12) = {23.88044516357645, 3.307580158033066, 1};
Point(p11 + 13) = {23.79888828850452, 3.273798194273505, 1};
Point(p11 + 14) = {23.72362017732934, 3.227673836423548, 1};
Point(p11 + 15) = {23.65649418074857, 3.170342819251429, 1};
Point(p11 + 16) = {23.59916316357645, 3.103216822670663, 1};
Point(p11 + 17) = {23.55303880572649, 3.027948711495478, 1};
Point(p11 + 18) = {23.51925684196693, 2.946391836423548, 1};
Point(p11 + 19) = {23.49864909636144, 2.860554398390892, 1};
Point(p11 + 20) = {23.491723, 2.77255, 1};
Point(p11 + 21) = {23.49864909636144, 2.684545601609107, 1};
Point(p11 + 22) = {23.51925684196693, 2.598708163576452, 1};
Point(p11 + 23) = {23.55303880572649, 2.517151288504522, 1};
Point(p11 + 24) = {23.59916316357645, 2.441883177329337, 1};
Point(p11 + 25) = {23.65649418074857, 2.374757180748571, 1};
Point(p11 + 26) = {23.72362017732934, 2.317426163576452, 1};
Point(p11 + 27) = {23.79888828850452, 2.271301805726495, 1};
Point(p11 + 28) = {23.88044516357645, 2.237519841966933, 1};
Point(p11 + 29) = {23.96628260160911, 2.216912096361437, 1};
Point(p11 + 30) = {24.054287, 2.209986, 1};
Point(p11 + 31) = {24.14229139839089, 2.216912096361437, 1};
Point(p11 + 32) = {24.22812883642355, 2.237519841966933, 1};
Point(p11 + 33) = {24.30968571149548, 2.271301805726495, 1};
Point(p11 + 34) = {24.38495382267066, 2.317426163576452, 1};
Point(p11 + 35) = {24.45207981925143, 2.374757180748571, 1};
Point(p11 + 36) = {24.50941083642355, 2.441883177329337, 1};
Point(p11 + 37) = {24.5555351942735, 2.517151288504521, 1};
Point(p11 + 38) = {24.58931715803307, 2.598708163576452, 1};
Point(p11 + 39) = {24.60992490363856, 2.684545601609107, 1};
Spline(11) = {9, p11 + 1, p11 + 2, p11 + 3, p11 + 4, p11 + 5, p11 + 6, p11 + 7, p11 + 8, p11 + 9, p11 + 10, p11 + 11, p11 + 12, p11 + 13, p11 + 14, p11 + 15, p11 + 16, p11 + 17, p11 + 18, p11 + 19, p11 + 20, p11 + 21, p11 + 22, p11 + 23, p11 + 24, p11 + 25, p11 + 26, p11 + 27, p11 + 28, p11 + 29, p11 + 30, p11 + 31, p11 + 32, p11 + 33, p11 + 34, p11 + 35, p11 + 36, p11 + 37, p11 + 38, p11 + 39, 9};
Line(12) = {4, 10};
Line(13) = {10, 7};
Line(14) = {5, 10};
p15 = newp;
Point(p15 + 1) = {13.1294356277786, 1.949038942473954, 0};
Point(p15 + 2) = {13.10358147229686, 2.056729250357928, 0};
Point(p15 + 3) = {13.06119914866776, 2.159049230868176, 0};
Point(p15 + 4) = {13.00333225035793, 2.253479426503991, 0};
Point(p15 + 5) = {12.93140565245297, 2.337694652452966, 0};
Point(p15 + 6) = {12.84719042650399, 2.409621250357928, 0};
Point(p15 + 7) = {12.75276023086817, 2.467488148667763, 0};
Point(p15 + 8) = {12.65044025035793, 2.509870472296859, 0};
Point(p15 + 9) = {12.54274994247395, 2.535724627778599, 0};
Point(p15 + 10) = {12.432341, 2.544414, 0};
Point(p15 + 11) = {12.32193205752604, 2.535724627778599, 0};
Point(p15 + 12) = {12.21424174964207, 2.509870472296859, 0};
Point(p15 + 13) = {12.11192176913182, 2.467488148667763, 0};
Point(p15 + 14) = {12.01749157349601, 2.409621250357928, 0};
Point(p15 + 15) = {11.93327634754703, 2.337694652452966, 0};
Point(p15 + 16) = {11.86134974964207, 2.253479426503991, 0};
Point(p15 + 17) = {11.80348285133224, 2.159049230868176, 0};
Point(p15 + 18) = {11.76110052770314, 2.056729250357928, 0};
Point(p15 + 19) = {11.7352463722214, 1.949038942473954, 0};
Point(p15 + 20) = {11.726557, 1.83863, 0};
Point(p15 + 21) = {11.7352463722214, 1.728221057526046, 0};
Point(p15 + 22) = {11.76110052770314, 1.620530749642072, 0};
Point(p15 + 23) = {11.80348285133224, 1.518210769131824, 0};
Point(p15 + 24) = {11.86134974964207, 1.423780573496009, 0};
Point(p15 + 25) = {11.93327634754703, 1.339565347547034, 0};
Point(p15 + 26) = {12.01749157349601, 1.267638749642072, 0};
Point(p15 + 27) = {12.11192176913182, 1.209771851332237, 0};
Point(p15 + 28) = {12.21424174964207, 1.167389527703141, 0};
Point(p15 + 29) = {12.32193205752604, 1.141535372221401, 0};
Point(p15 + 30) = {12.432341, 1.132846, 0};
Point(p15 + 31) = {12.54274994247395, 1.141535372221401, 0};
Point(p15 + 32) = {12.65044025035793, 1.167389527703141, 0};
Point(p15 + 33) = {12.75276023086817, 1.209771851332237, 0};
Point(p15 + 34) = {12.84719042650399, 1.267638749642072, 0};
Point(p15 + 35) = {12.93140565245297, 1.339565347547034, 0};
Point(p15 + 36) = {13.00333225035793, 1.423780573496009, 0};
Point(p15 + 37) = {13.06119914866776, 1.518210769131824, 0};
Point(p15 + 38) = {13.10358147229686, 1.620530749642072, 0};
Point(p15 + 39) = {13.1294356277786, 1.728221057526045, 0};
Spline(15) = {11, p15 + 1, p15 + 2, p15 + 3, p15 + 4, p15 + 5, p15 + 6, p15 + 7, p15 + 8, p15 + 9, p15 + 10, p15 + 11, p15 + 12, p15 + 13, p15 + 14, p15 + 15, p15 + 16, p15 + 17, p15 + 18, p15 + 19, p15 + 20, p15 + 21, p15 + 22, p15 + 23, p15 + 24, p15 + 25, p15 + 26, p15 + 27, p15 + 28, p15 + 29, p15 + 30, p15 + 31, p15 + 32, p15 + 33, p15 + 34, p15 + 35, p15 + 36, p15 + 37, p15 + 38, p15 + 39, 11};
p16 = newp;
Point(p16 + 1) = {24.60992490363856, 2.860554398390892, 0};
Point(p16 + 2) = {24.58931715803307, 2.946391836423548, 0};
Point(p16 + 3) = {24.5555351942735, 3.027948711495478, 0};
Point(p16 + 4) = {24.50941083642355, 3.103216822670663, 0};
Point(p16 + 5) = {24.45207981925143, 3.170342819251429, 0};
Point(p16 + 6) = {24.38495382267066, 3.227673836423548, 0};
Point(p16 + 7) = {24.30968571149548, 3.273798194273505, 0};
Point(p16 + 8) = {24.22812883642355, 3.307580158033066, 0};
Point(p16 + 9) = {24.14229139839089, 3.328187903638563, 0};
Point(p16 + 10) = {24.054287, 3.335114, 0};
Point(p16 + 11) = {23.96628260160911, 3.328187903638563, 0};
Point(p16 + 12) = {23.88044516357645, 3.307580158033066, 0};
Point(p16 + 13) = {23.79888828850452, 3.273798194273505, 0};
Point(p16 + 14) = {23.72362017732934, 3.227673836423548, 0};
Point(p16 + 15) = {23.65649418074857, 3.170342819251429, 0};
Point(p16 + 16) = {23.59916316357645, 3.103216822670663, 0};
Point(p16 + 17) = {23.55303880572649, 3.027948711495478, 0};
Point(p16 + 18) = {23.51925684196693, 2.946391836423548, 0};
Point(p16 + 19) = {23.49864909636144, 2.860554398390892, 0};
Point(p16 + 20) = {23.491723, 2.77255, 0};
Point(p16 + 21) = {23.49864909636144, 2.684545601609107, 0};
Point(p16 + 22) = {23.51925684196693, 2.598708163576452, 0};
Point(p16 + 23) = {23.55303880572649, 2.517151288504522, 0};
Point(p16 + 24) = {23.59916316357645, 2.441883177329337, 0};
Point(p16 + 25) = {23.65649418074857, 2.374757180748571, 0};
Point(p16 + 26) = {23.72362017732934, 2.317426163576452, 0};
Point(p16 + 27) = {23.79888828850452, 2.271301805726495, 0};
Point(p16 + 28) = {23.88044516357645, 2.237519841966933, 0};
Point(p16 + 29) = {23.96628260160911, 2.216912096361437, 0};
Point(p16 + 30) = {24.054287, 2.209986, 0};
Point(p16 + 31) = {24.14229139839089, 2.216912096361437, 0};
Point(p16 + 32) = {24.22812883642355, 2.237519841966933, 0};
Point(p16 + 33) = {24.30968571149548, 2.271301805726495, 0};
Point(p16 + 34) = {24.38495382267066, 2.317426163576452, 0};
Point(p16 + 35) = {24.45207981925143, 2.374757180748571, 0};
Point(p16 + 36) = {24.50941083642355, 2.441883177329337, 0};
Point(p16 + 37) = {24.5555351942735, 2.517151288504521, 0};
Point(p16 + 38) = {24.58931715803307, 2.598708163576452, 0};
Point(p16 + 39) = {24.60992490363856, 2.684545601609107, 0};
Spline(16) = {12, p16 + 1, p16 + 2, p16 + 3, p16 + 4, p16 + 5, p16 + 6, p16 + 7, p16 + 8, p16 + 9, p16 + 10, p16 + 11, p16 + 12, p16 + 13, p16 + 14, p16 + 15, p16 + 16, p16 + 17, p16 + 18, p16 + 19, p16 + 20, p16 + 21, p16 + 22, p16 + 23, p16 + 24, p16 + 25, p16 + 26, p16 + 27, p16 + 28, p16 + 29, p16 + 30, p16 + 31, p16 + 32, p16 + 33, p16 + 34, p16 + 35, p16 + 36, p16 + 37, p16 + 38, p16 + 39, 12};
Line(17) = {11, 8};
Line(18) = {12, 9};
Curve Loop(1) = {-1, 4, 3, -2};
Plane Surface(1) = {1};
Curve Loop(2) = {-5, 1, 7, -6};
Plane Surface(2) = {2};
Curve Loop(3) = {-2, 7, 9, -8, -10, -11};
Plane Surface(3) = {3};
Curve Loop(4) = {-12, 3, 8, -13};
Plane Surface(4) = {4};
Curve Loop(5) = {-4, 5, 14, -12, -15, -16};
Plane Surface(5) = {5};
Curve Loop(6) = {-6, 14, 13, -9};
Plane Surface(6) = {6};
Curve Loop(7) = {-10, -17, 15, 17};
Surface(7) = {7};
Curve Loop(8) = {-11, -18, 16, 18};
Surface(8) = {8};
Surface Loop(1) = {1, 2, 3, 4, 5, 6, 7, 8};
Volume(1) = {1};
Physical Surface("INFLOW") = {1};
Physical Surface("OUTFLOW") = {6};
Physical Surface("OBSTACLE") = {7, 8};
Physical Surface("WALL_Y") = {2, 4};
Physical Surface("WALL_Z") = {3, 5};
Physical Volume("FLUID") = {1};
