cl__1 = 1;
cl__2 = 0.053774;
cl__3 = 0.105632;
Point(1) = {0.301842, -4.519317, 1, cl__1};
Point(2) = {0.301842, -4.519317, 0, cl__1};
Point(3) = {0.301842, 5.119984, 1, cl__1};
Point(4) = {0.301842, 5.119984, 0, cl__1};
Point(5) = {32.218867, -4.519317, 0, cl__1};
Point(6) = {32.218867, -4.519317, 1, cl__1};
Point(7) = {32.218867, 5.119984, 1, cl__1};
Point(8) = {30.369908, -3.328308, 1, cl__2};
Point(9) = {9.947348999999999, 0.5172749999999998, 1, cl__3};
Point(10) = {32.218867, 5.119984, 0, cl__1};
Point(11) = {30.369908, -3.328308, 0, cl__2};
Point(12) = {9.947348999999999, 0.5172749999999998, 0, cl__3};
Line(1) = {2, 1};
Line(2) = {1, 3};
Line(3) = {4, 3};
Line(4) = {2, 4};
Line(5) = {2, 5};
Line(6) = {5, 6};
Line(7) = {1, 6};
Line(8) = {3, 7};
Line(9) = {6, 7};
p10 = newp;
Point(p10 + 1) = {30.36328757751827, -3.244187556507126, 1};
Point(p10 + 2) = {30.34358932684649, -3.162138437512793, 1};
Point(p10 + 3) = {30.31129828429096, -3.084180964632055, 1};
Point(p10 + 4) = {30.26720956248721, -3.012234709573255, 1};
Point(p10 + 5) = {30.21240877208813, -2.94807122791187, 1};
Point(p10 + 6) = {30.14824529042675, -2.893270437512793, 1};
Point(p10 + 7) = {30.07629903536795, -2.849181715709044, 1};
Point(p10 + 8) = {29.99834156248721, -2.816890673153509, 1};
Point(p10 + 9) = {29.91629244349287, -2.797192422481733, 1};
Point(p10 + 10) = {29.832172, -2.790572, 1};
Point(p10 + 11) = {29.74805155650713, -2.797192422481733, 1};
Point(p10 + 12) = {29.66600243751279, -2.816890673153509, 1};
Point(p10 + 13) = {29.58804496463205, -2.849181715709044, 1};
Point(p10 + 14) = {29.51609870957325, -2.893270437512793, 1};
Point(p10 + 15) = {29.45193522791187, -2.94807122791187, 1};
Point(p10 + 16) = {29.39713443751279, -3.012234709573255, 1};
Point(p10 + 17) = {29.35304571570904, -3.084180964632055, 1};
Point(p10 + 18) = {29.32075467315351, -3.162138437512793, 1};
Point(p10 + 19) = {29.30105642248173, -3.244187556507126, 1};
Point(p10 + 20) = {29.294436, -3.328308, 1};
Point(p10 + 21) = {29.30105642248173, -3.412428443492873, 1};
Point(p10 + 22) = {29.32075467315351, -3.494477562487207, 1};
Point(p10 + 23) = {29.35304571570904, -3.572435035367945, 1};
Point(p10 + 24) = {29.39713443751279, -3.644381290426745, 1};
Point(p10 + 25) = {29.45193522791187, -3.708544772088129, 1};
Point(p10 + 26) = {29.51609870957325, -3.763345562487206, 1};
Point(p10 + 27) = {29.58804496463205, -3.807434284290956, 1};
Point(p10 + 28) = {29.66600243751279, -3.83972532684649, 1};
Point(p10 + 29) = {29.74805155650713, -3.859423577518267, 1};
Point(p10 + 30) = {29.832172, -3.866044, 1};
Point(p10 + 31) = {29.91629244349287, -3.859423577518267, 1};
Point(p10 + 32) = {29.99834156248721, -3.839725326846491, 1};
Point(p10 + 33) = {30.07629903536795, -3.807434284290956, 1};
Point(p10 + 34) = {30.14824529042675, -3.763345562487207, 1};
Point(p10 + 35) = {30.21240877208813, -3.708544772088129, 1};
Point(p10 + 36) = {30.26720956248721, -3.644381290426745, 1};
Point(p10 + 37) = {30.31129828429096, -3.572435035367945, 1};
Point(p10 + 38) = {30.34358932684649, -3.494477562487207, 1};
Point(p10 + 39) = {30.36328757751827, -3.412428443492873, 1};
Spline(10) = {8, p10 + 1, p10 + 2, p10 + 3, p10 + 4, p10 + 5, p10 + 6, p10 + 7, p10 + 8, p10 + 9, p10 + 10, p10 + 11, p10 + 12, p10 + 13, p10 + 14, p10 + 15, p10 + 16, p10 + 17, p10 + 18, p10 + 19, p10 + 20, p10 + 21, p10 + 22, p10 + 23, p10 + 24, p10 + 25, p10 + 26, p10 + 27, p10 + 28, p10 + 29, p10 + 30, p10 + 31, p10 + 32, p10 + 33, p10 + 34, p10 + 35, p10 + 36, p10 + 37, p10 + 38, p10 + 39, 8};
p11 = newp;
Point(p11 + 1) = {9.934343911002477, 0.6825203234146918, 1};
Point(p11 + 2) = {9.895648872462445, 0.8436967585491275, 1};
Point(p11 + 3) = {9.832216684650229, 0.9968356066563773, 1};
Point(p11 + 4) = {9.745609258549127, 1.138166081057342, 1};
Point(p11 + 5) = {9.637959156423317, 1.264208156423317, 1};
Point(p11 + 6) = {9.511917081057343, 1.371858258549127, 1};
Point(p11 + 7) = {9.370586606656378, 1.458465684650229, 1};
Point(p11 + 8) = {9.217447758549127, 1.521897872462445, 1};
Point(p11 + 9) = {9.056271323414691, 1.560592911002478, 1};
Point(p11 + 10) = {8.891026, 1.573598, 1};
Point(p11 + 11) = {8.725780676585309, 1.560592911002478, 1};
Point(p11 + 12) = {8.564604241450873, 1.521897872462445, 1};
Point(p11 + 13) = {8.411465393343622, 1.458465684650229, 1};
Point(p11 + 14) = {8.270134918942658, 1.371858258549127, 1};
Point(p11 + 15) = {8.144092843576683, 1.264208156423317, 1};
Point(p11 + 16) = {8.036442741450873, 1.138166081057342, 1};
Point(p11 + 17) = {7.949835315349771, 0.9968356066563773, 1};
Point(p11 + 18) = {7.886403127537555, 0.8436967585491277, 1};
Point(p11 + 19) = {7.847708088997523, 0.6825203234146919, 1};
Point(p11 + 20) = {7.834703, 0.5172750000000002, 1};
Point(p11 + 21) = {7.847708088997522, 0.3520296765853084, 1};
Point(p11 + 22) = {7.886403127537555, 0.1908532414508722, 1};
Point(p11 + 23) = {7.949835315349771, 0.03771439334362336, 1};
Point(p11 + 24) = {8.036442741450873, -0.1036160810573419, 1};
Point(p11 + 25) = {8.144092843576683, -0.2296581564233172, 1};
Point(p11 + 26) = {8.270134918942658, -0.3373082585491274, 1};
Point(p11 + 27) = {8.411465393343622, -0.4239156846502291, 1};
Point(p11 + 28) = {8.564604241450873, -0.4873478724624453, 1};
Point(p11 + 29) = {8.725780676585309, -0.5260429110024775, 1};
Point(p11 + 30) = {8.891026, -0.5390479999999999, 1};
Point(p11 + 31) = {9.056271323414691, -0.5260429110024777, 1};
Point(p11 + 32) = {9.217447758549127, -0.4873478724624455, 1};
Point(p11 + 33) = {9.370586606656378, -0.4239156846502292, 1};
Point(p11 + 34) = {9.511917081057343, -0.3373082585491276, 1};
Point(p11 + 35) = {9.637959156423317, -0.2296581564233175, 1};
Point(p11 + 36) = {9.745609258549127, -0.1036160810573422, 1};
Point(p11 + 37) = {9.832216684650229, 0.03771439334362259, 1};
Point(p11 + 38) = {9.895648872462445, 0.1908532414508723, 1};
Point(p11 + 39) = {9.934343911002477, 0.352029676585308, 1};
Spline(11) = {9, p11 + 1, p11 + 2, p11 + 3, p11 + 4, p11 + 5, p11 + 6, p11 + 7, p11 + 8, p11 + 9, p11 + 10, p11 + 11, p11 + 12, p11 + 13, p11 + 14, p11 + 15, p11 + 16, p11 + 17, p11 + 18, p11 + 19, p11 + 20, p11 + 21, p11 + 22, p11 + 23, p11 + 24, p11 + 25, p11 + 26, p11 + 27, p11 + 28, p11 + 29, p11 + 30, p11 + 31, p11 + 32, p11 + 33, p11 + 34, p11 + 35, p11 + 36, p11 + 37, p11 + 38, p11 + 39, 9};
Line(12) = {4, 10};
Line(13) = {10, 7};
Line(14) = {5, 10};
p15 = newp;
Point(p15 + 1) = {30.36328757751827, -3.244187556507126, 0};
Point(p15 + 2) = {30.34358932684649, -3.162138437512793, 0};
Point(p15 + 3) = {30.31129828429096, -3.084180964632055, 0};
Point(p15 + 4) = {30.26720956248721, -3.012234709573255, 0};
Point(p15 + 5) = {30.21240877208813, -2.94807122791187, 0};
Point(p15 + 6) = {30.14824529042675, -2.893270437512793, 0};
Point(p15 + 7) = {30.07629903536795, -2.849181715709044, 0};
Point(p15 + 8) = {29.99834156248721, -2.816890673153509, 0};
Point(p15 + 9) = {29.91629244349287, -2.797192422481733, 0};
Point(p15 + 10) = {29.832172, -2.790572, 0};
Point(p15 + 11) = {29.74805155650713, -2.797192422481733, 0};
Point(p15 + 12) = {29.66600243751279, -2.816890673153509, 0};
Point(p15 + 13) = {29.58804496463205, -2.849181715709044, 0};
Point(p15 + 14) = {29.51609870957325, -2.893270437512793, 0};
Point(p15 + 15) = {29.45193522791187, -2.94807122791187, 0};
Point(p15 + 16) = {29.39713443751279, -3.012234709573255, 0};
Point(p15 + 17) = {29.35304571570904, -3.084180964632055, 0};
Point(p15 + 18) = {29.32075467315351, -3.162138437512793, 0};
Point(p15 + 19) = {29.30105642248173, -3.244187556507126, 0};
Point(p15 + 20) = {29.294436, -3.328308, 0};
Point(p15 + 21) = {29.30105642248173, -3.412428443492873, 0};
Point(p15 + 22) = {29.32075467315351, -3.494477562487207, 0};
Point(p15 + 23) = {29.35304571570904, -3.572435035367945, 0};
Point(p15 + 24) = {29.39713443751279, -3.644381290426745, 0};
Point(p15 + 25) = {29.45193522791187, -3.708544772088129, 0};
Point(p15 + 26) = {29.51609870957325, -3.763345562487206, 0};
Point(p15 + 27) = {29.58804496463205, -3.807434284290956, 0};
Point(p15 + 28) = {29.66600243751279, -3.83972532684649, 0};
Point(p15 + 29) = {29.74805155650713, -3.859423577518267, 0};
Point(p15 + 30) = {29.832172, -3.866044, 0};
Point(p15 + 31) = {29.91629244349287, -3.859423577518267, 0};
Point(p15 + 32) = {29.99834156248721, -3.839725326846491, 0};
Point(p15 + 33) = {30.07629903536795, -3.807434284290956, 0};
Point(p15 + 34) = {30.14824529042675, -3.763345562487207, 0};
Point(p15 + 35) = {30.21240877208813, -3.708544772088129, 0};
Point(p15 + 36) = {30.26720956248721, -3.644381290426745, 0};
Point(p15 + 37) = {30.31129828429096, -3.572435035367945, 0};
Point(p15 + 38) = {30.34358932684649, -3.494477562487207, 0};
Point(p15 + 39) = {30.36328757751827, -3.412428443492873, 0};
Spline(15) = {11, p15 + 1, p15 + 2, p15 + 3, p15 + 4, p15 + 5, p15 + 6, p15 + 7, p15 + 8, p15 + 9, p15 + 10, p15 + 11, p15 + 12, p15 + 13, p15 + 14, p15 + 15, p15 + 16, p15 + 17, p15 + 18, p15 + 19, p15 + 20, p15 + 21, p15 + 22, p15 + 23, p15 + 24, p15 + 25, p15 + 26, p15 + 27, p15 + 28, p15 + 29, p15 + 30, p15 + 31, p15 + 32, p15 + 33, p15 + 34, p15 + 35, p15 + 36, p15 + 37, p15 + 38, p15 + 39, 11};
p16 = newp;
Point(p16 + 1) = {9.934343911002477, 0.6825203234146918, 0};
Point(p16 + 2) = {9.895648872462445, 0.8436967585491275, 0};
Point(p16 + 3) = {9.832216684650229, 0.9968356066563773, 0};
Point(p16 + 4) = {9.745609258549127, 1.138166081057342, 0};
Point(p16 + 5) = {9.637959156423317, 1.264208156423317, 0};
Point(p16 + 6) = {9.511917081057343, 1.371858258549127, 0};
Point(p16 + 7) = {9.370586606656378, 1.458465684650229, 0};
Point(p16 + 8) = {9.217447758549127, 1.521897872462445, 0};
Point(p16 + 9) = {9.056271323414691, 1.560592911002478, 0};
Point(p16 + 10) = {8.891026, 1.573598, 0};
Point(p16 + 11) = {8.725780676585309, 1.560592911002478, 0};
Point(p16 + 12) = {8.564604241450873, 1.521897872462445, 0};
Point(p16 + 13) = {8.411465393343622, 1.458465684650229, 0};
Point(p16 + 14) = {8.270134918942658, 1.371858258549127, 0};
Point(p16 + 15) = {8.144092843576683, 1.264208156423317, 0};
Point(p16 + 16) = {8.036442741450873, 1.138166081057342, 0};
Point(p16 + 17) = {7.949835315349771, 0.9968356066563773, 0};
Point(p16 + 18) = {7.886403127537555, 0.8436967585491277, 0};
Point(p16 + 19) = {7.847708088997523, 0.6825203234146919, 0};
Point(p16 + 20) = {7.834703, 0.5172750000000002, 0};
Point(p16 + 21) = {7.847708088997522, 0.3520296765853084, 0};
Point(p16 + 22) = {7.886403127537555, 0.1908532414508722, 0};
Point(p16 + 23) = {7.949835315349771, 0.03771439334362336, 0};
Point(p16 + 24) = {8.036442741450873, -0.1036160810573419, 0};
Point(p16 + 25) = {8.144092843576683, -0.2296581564233172, 0};
Point(p16 + 26) = {8.270134918942658, -0.3373082585491274, 0};
Point(p16 + 27) = {8.411465393343622, -0.4239156846502291, 0};
Point(p16 + 28) = {8.564604241450873, -0.4873478724624453, 0};
Point(p16 + 29) = {8.725780676585309, -0.5260429110024775, 0};
Point(p16 + 30) = {8.891026, -0.5390479999999999, 0};
Point(p16 + 31) = {9.056271323414691, -0.5260429110024777, 0};
Point(p16 + 32) = {9.217447758549127, -0.4873478724624455, 0};
Point(p16 + 33) = {9.370586606656378, -0.4239156846502292, 0};
Point(p16 + 34) = {9.511917081057343, -0.3373082585491276, 0};
Point(p16 + 35) = {9.637959156423317, -0.2296581564233175, 0};
Point(p16 + 36) = {9.745609258549127, -0.1036160810573422, 0};
Point(p16 + 37) = {9.832216684650229, 0.03771439334362259, 0};
Point(p16 + 38) = {9.895648872462445, 0.1908532414508723, 0};
Point(p16 + 39) = {9.934343911002477, 0.352029676585308, 0};
Spline(16) = {12, p16 + 1, p16 + 2, p16 + 3, p16 + 4, p16 + 5, p16 + 6, p16 + 7, p16 + 8, p16 + 9, p16 + 10, p16 + 11, p16 + 12, p16 + 13, p16 + 14, p16 + 15, p16 + 16, p16 + 17, p16 + 18, p16 + 19, p16 + 20, p16 + 21, p16 + 22, p16 + 23, p16 + 24, p16 + 25, p16 + 26, p16 + 27, p16 + 28, p16 + 29, p16 + 30, p16 + 31, p16 + 32, p16 + 33, p16 + 34, p16 + 35, p16 + 36, p16 + 37, p16 + 38, p16 + 39, 12};
Line(17) = {11, 8};
Line(18) = {12, 9};
Curve Loop(1) = {-1, 4, 3, -2};
Plane Surface(1) = {1};
Curve Loop(2) = {-5, 1, 7, -6};
Plane Surface(2) = {2};
Curve Loop(3) = {-2, 7, 9, -8, -10, -11};
Plane Surface(3) = {3};
Curve Loop(4) = {-12, 3, 8, -13};
Plane Surface(4) = {4};
Curve Loop(5) = {-4, 5, 14, -12, -15, -16};
Plane Surface(5) = {5};
Curve Loop(6) = {-6, 14, 13, -9};
Plane Surface(6) = {6};
Curve Loop(7) = {-10, -17, 15, 17};
Surface(7) = {7};
Curve Loop(8) = {-11, -18, 16, 18};
Surface(8) = {8};
Surface Loop(1) = {1, 2, 3, 4, 5, 6, 7, 8};
Volume(1) = {1};
Physical Surface("INFLOW") = {1};
Physical Surface("OUTFLOW") = {6};
Physical Surface("OBSTACLE") = {7, 8};
Physical Surface("WALL_Y") = {2, 4};
Physical Surface("WALL_Z") = {3, 5};
Physical Volume("FLUID") = {1};
