cl__1 = 0.26811;
cl__2 = 1.864498;
cl__3 = 3.742693;
cl__4 = 0.134485;
cl__5 = 0.100204;
Point(1) = {0.321802, -3.672816, 1, cl__1};
Point(2) = {0.321802, -3.672816, 0, cl__1};
Point(3) = {0.321802, 4.505329000000001, 1, cl__2};
Point(4) = {0.321802, 4.505329000000001, 0, cl__2};
Point(5) = {37.202879, -3.672816, 0, cl__1};
Point(6) = {37.202879, -3.672816, 1, cl__1};
Point(7) = {37.202879, 4.505329000000001, 1, cl__3};
Point(8) = {18.64769, -1.780326000000001, 1, cl__4};
Point(9) = {3.899664, -1.040193, 1, cl__5};
Point(10) = {37.202879, 4.505329000000001, 0, cl__3};
Point(11) = {18.64769, -1.780326000000001, 0, cl__4};
Point(12) = {3.899664, -1.040193, 0, cl__5};
Line(1) = {2, 1};
Line(2) = {1, 3};
Line(3) = {4, 3};
Line(4) = {2, 4};
Line(5) = {2, 5};
Line(6) = {5, 6};
Line(7) = {1, 6};
Line(8) = {3, 7};
Line(9) = {6, 7};
p10 = newp;
Point(p10 + 1) = {18.63113270178435, -1.569945578994041, 1};
Point(p10 + 2) = {18.58186850276999, -1.364745422165835, 1};
Point(p10 + 3) = {18.50111045103515, -1.16977823839677, 1};
Point(p10 + 4) = {18.39084707783416, -0.9898447668102245, 1};
Point(p10 + 5) = {18.25379343335839, -0.8293755666416154, 1};
Point(p10 + 6) = {18.09332423318978, -0.6923219221658352, 1};
Point(p10 + 7) = {17.91339076160323, -0.5820585489648462, 1};
Point(p10 + 8) = {17.71842357783417, -0.5013004972300119, 1};
Point(p10 + 9) = {17.51322342100596, -0.4520362982156509, 1};
Point(p10 + 10) = {17.302843, -0.4354790000000002, 1};
Point(p10 + 11) = {17.09246257899404, -0.4520362982156512, 1};
Point(p10 + 12) = {16.88726242216583, -0.5013004972300117, 1};
Point(p10 + 13) = {16.69229523839677, -0.5820585489648462, 1};
Point(p10 + 14) = {16.51236176681022, -0.6923219221658352, 1};
Point(p10 + 15) = {16.35189256664161, -0.8293755666416152, 1};
Point(p10 + 16) = {16.21483892216584, -0.9898447668102244, 1};
Point(p10 + 17) = {16.10457554896485, -1.16977823839677, 1};
Point(p10 + 18) = {16.02381749723001, -1.364745422165835, 1};
Point(p10 + 19) = {15.97455329821565, -1.569945578994041, 1};
Point(p10 + 20) = {15.957996, -1.780326, 1};
Point(p10 + 21) = {15.97455329821565, -1.990706421005959, 1};
Point(p10 + 22) = {16.02381749723001, -2.195906577834165, 1};
Point(p10 + 23) = {16.10457554896485, -2.390873761603229, 1};
Point(p10 + 24) = {16.21483892216584, -2.570807233189775, 1};
Point(p10 + 25) = {16.35189256664161, -2.731276433358385, 1};
Point(p10 + 26) = {16.51236176681022, -2.868330077834165, 1};
Point(p10 + 27) = {16.69229523839677, -2.978593451035154, 1};
Point(p10 + 28) = {16.88726242216583, -3.059351502769988, 1};
Point(p10 + 29) = {17.09246257899404, -3.108615701784349, 1};
Point(p10 + 30) = {17.302843, -3.125173, 1};
Point(p10 + 31) = {17.51322342100596, -3.108615701784349, 1};
Point(p10 + 32) = {17.71842357783416, -3.059351502769989, 1};
Point(p10 + 33) = {17.91339076160323, -2.978593451035154, 1};
Point(p10 + 34) = {18.09332423318978, -2.868330077834165, 1};
Point(p10 + 35) = {18.25379343335839, -2.731276433358385, 1};
Point(p10 + 36) = {18.39084707783416, -2.570807233189776, 1};
Point(p10 + 37) = {18.50111045103515, -2.39087376160323, 1};
Point(p10 + 38) = {18.58186850276999, -2.195906577834165, 1};
Point(p10 + 39) = {18.63113270178435, -1.99070642100596, 1};
Spline(10) = {8, p10 + 1, p10 + 2, p10 + 3, p10 + 4, p10 + 5, p10 + 6, p10 + 7, p10 + 8, p10 + 9, p10 + 10, p10 + 11, p10 + 12, p10 + 13, p10 + 14, p10 + 15, p10 + 16, p10 + 17, p10 + 18, p10 + 19, p10 + 20, p10 + 21, p10 + 22, p10 + 23, p10 + 24, p10 + 25, p10 + 26, p10 + 27, p10 + 28, p10 + 29, p10 + 30, p10 + 31, p10 + 32, p10 + 33, p10 + 34, p10 + 35, p10 + 36, p10 + 37, p10 + 38, p10 + 39, 8};
p11 = newp;
Point(p11 + 1) = {3.887327212498292, -0.8834392522166219, 1};
Point(p11 + 2) = {3.850620622644912, -0.7305453019395333, 1};
Point(p11 + 3) = {3.790448068504236, -0.5852759056504848, 1};
Point(p11 + 4) = {3.708291198060467, -0.4512080780075979, 1};
Point(p11 + 5) = {3.606172986126949, -0.3316430138730507, 1};
Point(p11 + 6) = {3.486607921992402, -0.2295248019395333, 1};
Point(p11 + 7) = {3.352540094349515, -0.1473679314957637, 1};
Point(p11 + 8) = {3.207270698060467, -0.08719537735508798, 1};
Point(p11 + 9) = {3.054376747783378, -0.05048878750170749, 1};
Point(p11 + 10) = {2.897623, -0.03815199999999996, 1};
Point(p11 + 11) = {2.740869252216622, -0.0504887875017076, 1};
Point(p11 + 12) = {2.587975301939533, -0.08719537735508787, 1};
Point(p11 + 13) = {2.442705905650485, -0.1473679314957635, 1};
Point(p11 + 14) = {2.308638078007598, -0.2295248019395333, 1};
Point(p11 + 15) = {2.189073013873051, -0.3316430138730506, 1};
Point(p11 + 16) = {2.086954801939533, -0.4512080780075978, 1};
Point(p11 + 17) = {2.004797931495764, -0.5852759056504846, 1};
Point(p11 + 18) = {1.944625377355088, -0.7305453019395332, 1};
Point(p11 + 19) = {1.907918787501707, -0.8834392522166219, 1};
Point(p11 + 20) = {1.895582, -1.040193, 1};
Point(p11 + 21) = {1.907918787501707, -1.196946747783378, 1};
Point(p11 + 22) = {1.944625377355088, -1.349840698060467, 1};
Point(p11 + 23) = {2.004797931495763, -1.495110094349515, 1};
Point(p11 + 24) = {2.086954801939533, -1.629177921992402, 1};
Point(p11 + 25) = {2.18907301387305, -1.748742986126949, 1};
Point(p11 + 26) = {2.308638078007598, -1.850861198060466, 1};
Point(p11 + 27) = {2.442705905650485, -1.933018068504236, 1};
Point(p11 + 28) = {2.587975301939533, -1.993190622644912, 1};
Point(p11 + 29) = {2.740869252216622, -2.029897212498292, 1};
Point(p11 + 30) = {2.897623, -2.042234, 1};
Point(p11 + 31) = {3.054376747783377, -2.029897212498292, 1};
Point(p11 + 32) = {3.207270698060466, -1.993190622644912, 1};
Point(p11 + 33) = {3.352540094349515, -1.933018068504236, 1};
Point(p11 + 34) = {3.486607921992402, -1.850861198060467, 1};
Point(p11 + 35) = {3.606172986126949, -1.748742986126949, 1};
Point(p11 + 36) = {3.708291198060466, -1.629177921992402, 1};
Point(p11 + 37) = {3.790448068504236, -1.495110094349515, 1};
Point(p11 + 38) = {3.850620622644912, -1.349840698060467, 1};
Point(p11 + 39) = {3.887327212498292, -1.196946747783378, 1};
Spline(11) = {9, p11 + 1, p11 + 2, p11 + 3, p11 + 4, p11 + 5, p11 + 6, p11 + 7, p11 + 8, p11 + 9, p11 + 10, p11 + 11, p11 + 12, p11 + 13, p11 + 14, p11 + 15, p11 + 16, p11 + 17, p11 + 18, p11 + 19, p11 + 20, p11 + 21, p11 + 22, p11 + 23, p11 + 24, p11 + 25, p11 + 26, p11 + 27, p11 + 28, p11 + 29, p11 + 30, p11 + 31, p11 + 32, p11 + 33, p11 + 34, p11 + 35, p11 + 36, p11 + 37, p11 + 38, p11 + 39, 9};
Line(12) = {4, 10};
Line(13) = {10, 7};
Line(14) = {5, 10};
p15 = newp;
Point(p15 + 1) = {18.63113270178435, -1.569945578994041, 0};
Point(p15 + 2) = {18.58186850276999, -1.364745422165835, 0};
Point(p15 + 3) = {18.50111045103515, -1.16977823839677, 0};
Point(p15 + 4) = {18.39084707783416, -0.9898447668102245, 0};
Point(p15 + 5) = {18.25379343335839, -0.8293755666416154, 0};
Point(p15 + 6) = {18.09332423318978, -0.6923219221658352, 0};
Point(p15 + 7) = {17.91339076160323, -0.5820585489648462, 0};
Point(p15 + 8) = {17.71842357783417, -0.5013004972300119, 0};
Point(p15 + 9) = {17.51322342100596, -0.4520362982156509, 0};
Point(p15 + 10) = {17.302843, -0.4354790000000002, 0};
Point(p15 + 11) = {17.09246257899404, -0.4520362982156512, 0};
Point(p15 + 12) = {16.88726242216583, -0.5013004972300117, 0};
Point(p15 + 13) = {16.69229523839677, -0.5820585489648462, 0};
Point(p15 + 14) = {16.51236176681022, -0.6923219221658352, 0};
Point(p15 + 15) = {16.35189256664161, -0.8293755666416152, 0};
Point(p15 + 16) = {16.21483892216584, -0.9898447668102244, 0};
Point(p15 + 17) = {16.10457554896485, -1.16977823839677, 0};
Point(p15 + 18) = {16.02381749723001, -1.364745422165835, 0};
Point(p15 + 19) = {15.97455329821565, -1.569945578994041, 0};
Point(p15 + 20) = {15.957996, -1.780326, 0};
Point(p15 + 21) = {15.97455329821565, -1.990706421005959, 0};
Point(p15 + 22) = {16.02381749723001, -2.195906577834165, 0};
Point(p15 + 23) = {16.10457554896485, -2.390873761603229, 0};
Point(p15 + 24) = {16.21483892216584, -2.570807233189775, 0};
Point(p15 + 25) = {16.35189256664161, -2.731276433358385, 0};
Point(p15 + 26) = {16.51236176681022, -2.868330077834165, 0};
Point(p15 + 27) = {16.69229523839677, -2.978593451035154, 0};
Point(p15 + 28) = {16.88726242216583, -3.059351502769988, 0};
Point(p15 + 29) = {17.09246257899404, -3.108615701784349, 0};
Point(p15 + 30) = {17.302843, -3.125173, 0};
Point(p15 + 31) = {17.51322342100596, -3.108615701784349, 0};
Point(p15 + 32) = {17.71842357783416, -3.059351502769989, 0};
Point(p15 + 33) = {17.91339076160323, -2.978593451035154, 0};
Point(p15 + 34) = {18.09332423318978, -2.868330077834165, 0};
Point(p15 + 35) = {18.25379343335839, -2.731276433358385, 0};
Point(p15 + 36) = {18.39084707783416, -2.570807233189776, 0};
Point(p15 + 37) = {18.50111045103515, -2.39087376160323, 0};
Point(p15 + 38) = {18.58186850276999, -2.195906577834165, 0};
Point(p15 + 39) = {18.63113270178435, -1.99070642100596, 0};
Spline(15) = {11, p15 + 1, p15 + 2, p15 + 3, p15 + 4, p15 + 5, p15 + 6, p15 + 7, p15 + 8, p15 + 9, p15 + 10, p15 + 11, p15 + 12, p15 + 13, p15 + 14, p15 + 15, p15 + 16, p15 + 17, p15 + 18, p15 + 19, p15 + 20, p15 + 21, p15 + 22, p15 + 23, p15 + 24, p15 + 25, p15 + 26, p15 + 27, p15 + 28, p15 + 29, p15 + 30, p15 + 31, p15 + 32, p15 + 33, p15 + 34, p15 + 35, p15 + 36, p15 + 37, p15 + 38, p15 + 39, 11};
p16 = newp;
Point(p16 + 1) = {3.887327212498292, -0.8834392522166219, 0};
Point(p16 + 2) = {3.850620622644912, -0.7305453019395333, 0};
Point(p16 + 3) = {3.790448068504236, -0.5852759056504848, 0};
Point(p16 + 4) = {3.708291198060467, -0.4512080780075979, 0};
Point(p16 + 5) = {3.606172986126949, -0.3316430138730507, 0};
Point(p16 + 6) = {3.486607921992402, -0.2295248019395333, 0};
Point(p16 + 7) = {3.352540094349515, -0.1473679314957637, 0};
Point(p16 + 8) = {3.207270698060467, -0.08719537735508798, 0};
Point(p16 + 9) = {3.054376747783378, -0.05048878750170749, 0};
Point(p16 + 10) = {2.897623, -0.03815199999999996, 0};
Point(p16 + 11) = {2.740869252216622, -0.0504887875017076, 0};
Point(p16 + 12) = {2.587975301939533, -0.08719537735508787, 0};
Point(p16 + 13) = {2.442705905650485, -0.1473679314957635, 0};
Point(p16 + 14) = {2.308638078007598, -0.2295248019395333, 0};
Point(p16 + 15) = {2.189073013873051, -0.3316430138730506, 0};
Point(p16 + 16) = {2.086954801939533, -0.4512080780075978, 0};
Point(p16 + 17) = {2.004797931495764, -0.5852759056504846, 0};
Point(p16 + 18) = {1.944625377355088, -0.7305453019395332, 0};
Point(p16 + 19) = {1.907918787501707, -0.8834392522166219, 0};
Point(p16 + 20) = {1.895582, -1.040193, 0};
Point(p16 + 21) = {1.907918787501707, -1.196946747783378, 0};
Point(p16 + 22) = {1.944625377355088, -1.349840698060467, 0};
Point(p16 + 23) = {2.004797931495763, -1.495110094349515, 0};
Point(p16 + 24) = {2.086954801939533, -1.629177921992402, 0};
Point(p16 + 25) = {2.18907301387305, -1.748742986126949, 0};
Point(p16 + 26) = {2.308638078007598, -1.850861198060466, 0};
Point(p16 + 27) = {2.442705905650485, -1.933018068504236, 0};
Point(p16 + 28) = {2.587975301939533, -1.993190622644912, 0};
Point(p16 + 29) = {2.740869252216622, -2.029897212498292, 0};
Point(p16 + 30) = {2.897623, -2.042234, 0};
Point(p16 + 31) = {3.054376747783377, -2.029897212498292, 0};
Point(p16 + 32) = {3.207270698060466, -1.993190622644912, 0};
Point(p16 + 33) = {3.352540094349515, -1.933018068504236, 0};
Point(p16 + 34) = {3.486607921992402, -1.850861198060467, 0};
Point(p16 + 35) = {3.606172986126949, -1.748742986126949, 0};
Point(p16 + 36) = {3.708291198060466, -1.629177921992402, 0};
Point(p16 + 37) = {3.790448068504236, -1.495110094349515, 0};
Point(p16 + 38) = {3.850620622644912, -1.349840698060467, 0};
Point(p16 + 39) = {3.887327212498292, -1.196946747783378, 0};
Spline(16) = {12, p16 + 1, p16 + 2, p16 + 3, p16 + 4, p16 + 5, p16 + 6, p16 + 7, p16 + 8, p16 + 9, p16 + 10, p16 + 11, p16 + 12, p16 + 13, p16 + 14, p16 + 15, p16 + 16, p16 + 17, p16 + 18, p16 + 19, p16 + 20, p16 + 21, p16 + 22, p16 + 23, p16 + 24, p16 + 25, p16 + 26, p16 + 27, p16 + 28, p16 + 29, p16 + 30, p16 + 31, p16 + 32, p16 + 33, p16 + 34, p16 + 35, p16 + 36, p16 + 37, p16 + 38, p16 + 39, 12};
Line(17) = {11, 8};
Line(18) = {12, 9};
Curve Loop(1) = {-1, 4, 3, -2};
Plane Surface(1) = {1};
Curve Loop(2) = {-5, 1, 7, -6};
Plane Surface(2) = {2};
Curve Loop(3) = {-2, 7, 9, -8, -10, -11};
Plane Surface(3) = {3};
Curve Loop(4) = {-12, 3, 8, -13};
Plane Surface(4) = {4};
Curve Loop(5) = {-4, 5, 14, -12, -15, -16};
Plane Surface(5) = {5};
Curve Loop(6) = {-6, 14, 13, -9};
Plane Surface(6) = {6};
Curve Loop(7) = {-10, -17, 15, 17};
Surface(7) = {7};
Curve Loop(8) = {-11, -18, 16, 18};
Surface(8) = {8};
Surface Loop(1) = {1, 2, 3, 4, 5, 6, 7, 8};
Volume(1) = {1};
Physical Surface("INFLOW") = {1};
Physical Surface("OUTFLOW") = {6};
Physical Surface("OBSTACLE") = {7, 8};
Physical Surface("WALL_Y") = {2, 4};
Physical Surface("WALL_Z") = {3, 5};
Physical Volume("FLUID") = {1};
