cl__1 = 1.182411;
cl__2 = 0.985275;
cl__3 = 3.48277;
cl__4 = 0.08953999999999999;
cl__5 = 0.11645;
Point(1) = {0.460936, -4.383003, 1, cl__1};
Point(2) = {0.460936, -4.383003, 0, cl__1};
Point(3) = {0.460936, 5.282860999999999, 1, cl__2};
Point(4) = {0.460936, 5.282860999999999, 0, cl__2};
Point(5) = {34.490747, -4.383003, 0, cl__3};
Point(6) = {34.490747, -4.383003, 1, cl__3};
Point(7) = {34.490747, 5.282860999999999, 1, cl__3};
Point(8) = {15.023784, -2.582503, 1, cl__4};
Point(9) = {12.381455, 2.897937999999999, 1, cl__5};
Point(10) = {34.490747, 5.282860999999999, 0, cl__3};
Point(11) = {15.023784, -2.582503, 0, cl__4};
Point(12) = {12.381455, 2.897937999999999, 0, cl__5};
Line(1) = {2, 1};
Line(2) = {1, 3};
Line(3) = {4, 3};
Line(4) = {2, 4};
Line(5) = {2, 5};
Line(6) = {5, 6};
Line(7) = {1, 6};
Line(8) = {3, 7};
Line(9) = {6, 7};
p10 = newp;
Point(p10 + 1) = {15.01276017710386, -2.442432049306372, 1};
Point(p10 + 2) = {14.97996015152113, -2.305810110287655, 1};
Point(p10 + 3) = {14.92619156873869, -2.176001268504709, 1};
Point(p10 + 4) = {14.85277838971234, -2.056201848453076, 1};
Point(p10 + 5) = {14.76152829055409, -1.949361709445909, 1};
Point(p10 + 6) = {14.65468815154692, -1.858111610287655, 1};
Point(p10 + 7) = {14.53488873149529, -1.784698431261308, 1};
Point(p10 + 8) = {14.40507988971235, -1.730929848478868, 1};
Point(p10 + 9) = {14.26845795069363, -1.698129822896135, 1};
Point(p10 + 10) = {14.128387, -1.687106, 1};
Point(p10 + 11) = {13.98831604930637, -1.698129822896135, 1};
Point(p10 + 12) = {13.85169411028765, -1.730929848478868, 1};
Point(p10 + 13) = {13.72188526850471, -1.784698431261308, 1};
Point(p10 + 14) = {13.60208584845308, -1.858111610287655, 1};
Point(p10 + 15) = {13.49524570944591, -1.949361709445909, 1};
Point(p10 + 16) = {13.40399561028766, -2.056201848453076, 1};
Point(p10 + 17) = {13.33058243126131, -2.176001268504709, 1};
Point(p10 + 18) = {13.27681384847887, -2.305810110287655, 1};
Point(p10 + 19) = {13.24401382289614, -2.442432049306372, 1};
Point(p10 + 20) = {13.23299, -2.582503, 1};
Point(p10 + 21) = {13.24401382289614, -2.722573950693628, 1};
Point(p10 + 22) = {13.27681384847887, -2.859195889712345, 1};
Point(p10 + 23) = {13.33058243126131, -2.989004731495291, 1};
Point(p10 + 24) = {13.40399561028766, -3.108804151546924, 1};
Point(p10 + 25) = {13.49524570944591, -3.215644290554091, 1};
Point(p10 + 26) = {13.60208584845308, -3.306894389712345, 1};
Point(p10 + 27) = {13.72188526850471, -3.380307568738692, 1};
Point(p10 + 28) = {13.85169411028765, -3.434076151521132, 1};
Point(p10 + 29) = {13.98831604930637, -3.466876177103865, 1};
Point(p10 + 30) = {14.128387, -3.4779, 1};
Point(p10 + 31) = {14.26845795069363, -3.466876177103865, 1};
Point(p10 + 32) = {14.40507988971235, -3.434076151521132, 1};
Point(p10 + 33) = {14.53488873149529, -3.380307568738692, 1};
Point(p10 + 34) = {14.65468815154692, -3.306894389712345, 1};
Point(p10 + 35) = {14.76152829055409, -3.215644290554091, 1};
Point(p10 + 36) = {14.85277838971234, -3.108804151546924, 1};
Point(p10 + 37) = {14.92619156873869, -2.989004731495291, 1};
Point(p10 + 38) = {14.97996015152113, -2.859195889712345, 1};
Point(p10 + 39) = {15.01276017710386, -2.722573950693628, 1};
Spline(10) = {8, p10 + 1, p10 + 2, p10 + 3, p10 + 4, p10 + 5, p10 + 6, p10 + 7, p10 + 8, p10 + 9, p10 + 10, p10 + 11, p10 + 12, p10 + 13, p10 + 14, p10 + 15, p10 + 16, p10 + 17, p10 + 18, p10 + 19, p10 + 20, p10 + 21, p10 + 22, p10 + 23, p10 + 24, p10 + 25, p10 + 26, p10 + 27, p10 + 28, p10 + 29, p10 + 30, p10 + 31, p10 + 32, p10 + 33, p10 + 34, p10 + 35, p10 + 36, p10 + 37, p10 + 38, p10 + 39, 8};
p11 = newp;
Point(p11 + 1) = {12.36711804799972, 3.080106247408279, 1};
Point(p11 + 2) = {12.32446021533874, 3.257788907983615, 1};
Point(p11 + 3) = {12.2545318794304, 3.426610844927701, 1};
Point(p11 + 4) = {12.15905490798361, 3.582415101865089, 1};
Point(p11 + 5) = {12.0403802609053, 3.721365260905297, 1};
Point(p11 + 6) = {11.90143010186509, 3.840039907983615, 1};
Point(p11 + 7) = {11.7456258449277, 3.935516879430403, 1};
Point(p11 + 8) = {11.57680390798362, 4.005445215338739, 1};
Point(p11 + 9) = {11.39912124740828, 4.048103047999719, 1};
Point(p11 + 10) = {11.216953, 4.06244, 1};
Point(p11 + 11) = {11.03478475259172, 4.048103047999719, 1};
Point(p11 + 12) = {10.85710209201638, 4.005445215338739, 1};
Point(p11 + 13) = {10.6882801550723, 3.935516879430403, 1};
Point(p11 + 14) = {10.53247589813491, 3.840039907983615, 1};
Point(p11 + 15) = {10.3935257390947, 3.721365260905297, 1};
Point(p11 + 16) = {10.27485109201639, 3.582415101865089, 1};
Point(p11 + 17) = {10.1793741205696, 3.426610844927702, 1};
Point(p11 + 18) = {10.10944578466126, 3.257788907983615, 1};
Point(p11 + 19) = {10.06678795200028, 3.080106247408279, 1};
Point(p11 + 20) = {10.052451, 2.897938, 1};
Point(p11 + 21) = {10.06678795200028, 2.715769752591721, 1};
Point(p11 + 22) = {10.10944578466126, 2.538087092016385, 1};
Point(p11 + 23) = {10.1793741205696, 2.369265155072299, 1};
Point(p11 + 24) = {10.27485109201639, 2.21346089813491, 1};
Point(p11 + 25) = {10.3935257390947, 2.074510739094703, 1};
Point(p11 + 26) = {10.53247589813491, 1.955836092016385, 1};
Point(p11 + 27) = {10.6882801550723, 1.860359120569597, 1};
Point(p11 + 28) = {10.85710209201638, 1.790430784661261, 1};
Point(p11 + 29) = {11.03478475259172, 1.747772952000281, 1};
Point(p11 + 30) = {11.216953, 1.733436, 1};
Point(p11 + 31) = {11.39912124740828, 1.747772952000281, 1};
Point(p11 + 32) = {11.57680390798362, 1.790430784661261, 1};
Point(p11 + 33) = {11.7456258449277, 1.860359120569597, 1};
Point(p11 + 34) = {11.90143010186509, 1.955836092016385, 1};
Point(p11 + 35) = {12.0403802609053, 2.074510739094703, 1};
Point(p11 + 36) = {12.15905490798361, 2.21346089813491, 1};
Point(p11 + 37) = {12.2545318794304, 2.369265155072298, 1};
Point(p11 + 38) = {12.32446021533874, 2.538087092016385, 1};
Point(p11 + 39) = {12.36711804799972, 2.715769752591721, 1};
Spline(11) = {9, p11 + 1, p11 + 2, p11 + 3, p11 + 4, p11 + 5, p11 + 6, p11 + 7, p11 + 8, p11 + 9, p11 + 10, p11 + 11, p11 + 12, p11 + 13, p11 + 14, p11 + 15, p11 + 16, p11 + 17, p11 + 18, p11 + 19, p11 + 20, p11 + 21, p11 + 22, p11 + 23, p11 + 24, p11 + 25, p11 + 26, p11 + 27, p11 + 28, p11 + 29, p11 + 30, p11 + 31, p11 + 32, p11 + 33, p11 + 34, p11 + 35, p11 + 36, p11 + 37, p11 + 38, p11 + 39, 9};
Line(12) = {4, 10};
Line(13) = {10, 7};
Line(14) = {5, 10};
p15 = newp;
Point(p15 + 1) = {15.01276017710386, -2.442432049306372, 0};
Point(p15 + 2) = {14.97996015152113, -2.305810110287655, 0};
Point(p15 + 3) = {14.92619156873869, -2.176001268504709, 0};
Point(p15 + 4) = {14.85277838971234, -2.056201848453076, 0};
Point(p15 + 5) = {14.76152829055409, -1.949361709445909, 0};
Point(p15 + 6) = {14.65468815154692, -1.858111610287655, 0};
Point(p15 + 7) = {14.53488873149529, -1.784698431261308, 0};
Point(p15 + 8) = {14.40507988971235, -1.730929848478868, 0};
Point(p15 + 9) = {14.26845795069363, -1.698129822896135, 0};
Point(p15 + 10) = {14.128387, -1.687106, 0};
Point(p15 + 11) = {13.98831604930637, -1.698129822896135, 0};
Point(p15 + 12) = {13.85169411028765, -1.730929848478868, 0};
Point(p15 + 13) = {13.72188526850471, -1.784698431261308, 0};
Point(p15 + 14) = {13.60208584845308, -1.858111610287655, 0};
Point(p15 + 15) = {13.49524570944591, -1.949361709445909, 0};
Point(p15 + 16) = {13.40399561028766, -2.056201848453076, 0};
Point(p15 + 17) = {13.33058243126131, -2.176001268504709, 0};
Point(p15 + 18) = {13.27681384847887, -2.305810110287655, 0};
Point(p15 + 19) = {13.24401382289614, -2.442432049306372, 0};
Point(p15 + 20) = {13.23299, -2.582503, 0};
Point(p15 + 21) = {13.24401382289614, -2.722573950693628, 0};
Point(p15 + 22) = {13.27681384847887, -2.859195889712345, 0};
Point(p15 + 23) = {13.33058243126131, -2.989004731495291, 0};
Point(p15 + 24) = {13.40399561028766, -3.108804151546924, 0};
Point(p15 + 25) = {13.49524570944591, -3.215644290554091, 0};
Point(p15 + 26) = {13.60208584845308, -3.306894389712345, 0};
Point(p15 + 27) = {13.72188526850471, -3.380307568738692, 0};
Point(p15 + 28) = {13.85169411028765, -3.434076151521132, 0};
Point(p15 + 29) = {13.98831604930637, -3.466876177103865, 0};
Point(p15 + 30) = {14.128387, -3.4779, 0};
Point(p15 + 31) = {14.26845795069363, -3.466876177103865, 0};
Point(p15 + 32) = {14.40507988971235, -3.434076151521132, 0};
Point(p15 + 33) = {14.53488873149529, -3.380307568738692, 0};
Point(p15 + 34) = {14.65468815154692, -3.306894389712345, 0};
Point(p15 + 35) = {14.76152829055409, -3.215644290554091, 0};
Point(p15 + 36) = {14.85277838971234, -3.108804151546924, 0};
Point(p15 + 37) = {14.92619156873869, -2.989004731495291, 0};
Point(p15 + 38) = {14.97996015152113, -2.859195889712345, 0};
Point(p15 + 39) = {15.01276017710386, -2.722573950693628, 0};
Spline(15) = {11, p15 + 1, p15 + 2, p15 + 3, p15 + 4, p15 + 5, p15 + 6, p15 + 7, p15 + 8, p15 + 9, p15 + 10, p15 + 11, p15 + 12, p15 + 13, p15 + 14, p15 + 15, p15 + 16, p15 + 17, p15 + 18, p15 + 19, p15 + 20, p15 + 21, p15 + 22, p15 + 23, p15 + 24, p15 + 25, p15 + 26, p15 + 27, p15 + 28, p15 + 29, p15 + 30, p15 + 31, p15 + 32, p15 + 33, p15 + 34, p15 + 35, p15 + 36, p15 + 37, p15 + 38, p15 + 39, 11};
p16 = newp;
Point(p16 + 1) = {12.36711804799972, 3.080106247408279, 0};
Point(p16 + 2) = {12.32446021533874, 3.257788907983615, 0};
Point(p16 + 3) = {12.2545318794304, 3.426610844927701, 0};
Point(p16 + 4) = {12.15905490798361, 3.582415101865089, 0};
Point(p16 + 5) = {12.0403802609053, 3.721365260905297, 0};
Point(p16 + 6) = {11.90143010186509, 3.840039907983615, 0};
Point(p16 + 7) = {11.7456258449277, 3.935516879430403, 0};
Point(p16 + 8) = {11.57680390798362, 4.005445215338739, 0};
Point(p16 + 9) = {11.39912124740828, 4.048103047999719, 0};
Point(p16 + 10) = {11.216953, 4.06244, 0};
Point(p16 + 11) = {11.03478475259172, 4.048103047999719, 0};
Point(p16 + 12) = {10.85710209201638, 4.005445215338739, 0};
Point(p16 + 13) = {10.6882801550723, 3.935516879430403, 0};
Point(p16 + 14) = {10.53247589813491, 3.840039907983615, 0};
Point(p16 + 15) = {10.3935257390947, 3.721365260905297, 0};
Point(p16 + 16) = {10.27485109201639, 3.582415101865089, 0};
Point(p16 + 17) = {10.1793741205696, 3.426610844927702, 0};
Point(p16 + 18) = {10.10944578466126, 3.257788907983615, 0};
Point(p16 + 19) = {10.06678795200028, 3.080106247408279, 0};
Point(p16 + 20) = {10.052451, 2.897938, 0};
Point(p16 + 21) = {10.06678795200028, 2.715769752591721, 0};
Point(p16 + 22) = {10.10944578466126, 2.538087092016385, 0};
Point(p16 + 23) = {10.1793741205696, 2.369265155072299, 0};
Point(p16 + 24) = {10.27485109201639, 2.21346089813491, 0};
Point(p16 + 25) = {10.3935257390947, 2.074510739094703, 0};
Point(p16 + 26) = {10.53247589813491, 1.955836092016385, 0};
Point(p16 + 27) = {10.6882801550723, 1.860359120569597, 0};
Point(p16 + 28) = {10.85710209201638, 1.790430784661261, 0};
Point(p16 + 29) = {11.03478475259172, 1.747772952000281, 0};
Point(p16 + 30) = {11.216953, 1.733436, 0};
Point(p16 + 31) = {11.39912124740828, 1.747772952000281, 0};
Point(p16 + 32) = {11.57680390798362, 1.790430784661261, 0};
Point(p16 + 33) = {11.7456258449277, 1.860359120569597, 0};
Point(p16 + 34) = {11.90143010186509, 1.955836092016385, 0};
Point(p16 + 35) = {12.0403802609053, 2.074510739094703, 0};
Point(p16 + 36) = {12.15905490798361, 2.21346089813491, 0};
Point(p16 + 37) = {12.2545318794304, 2.369265155072298, 0};
Point(p16 + 38) = {12.32446021533874, 2.538087092016385, 0};
Point(p16 + 39) = {12.36711804799972, 2.715769752591721, 0};
Spline(16) = {12, p16 + 1, p16 + 2, p16 + 3, p16 + 4, p16 + 5, p16 + 6, p16 + 7, p16 + 8, p16 + 9, p16 + 10, p16 + 11, p16 + 12, p16 + 13, p16 + 14, p16 + 15, p16 + 16, p16 + 17, p16 + 18, p16 + 19, p16 + 20, p16 + 21, p16 + 22, p16 + 23, p16 + 24, p16 + 25, p16 + 26, p16 + 27, p16 + 28, p16 + 29, p16 + 30, p16 + 31, p16 + 32, p16 + 33, p16 + 34, p16 + 35, p16 + 36, p16 + 37, p16 + 38, p16 + 39, 12};
Line(17) = {11, 8};
Line(18) = {12, 9};
Curve Loop(1) = {-1, 4, 3, -2};
Plane Surface(1) = {1};
Curve Loop(2) = {-5, 1, 7, -6};
Plane Surface(2) = {2};
Curve Loop(3) = {-2, 7, 9, -8, -10, -11};
Plane Surface(3) = {3};
Curve Loop(4) = {-12, 3, 8, -13};
Plane Surface(4) = {4};
Curve Loop(5) = {-4, 5, 14, -12, -15, -16};
Plane Surface(5) = {5};
Curve Loop(6) = {-6, 14, 13, -9};
Plane Surface(6) = {6};
Curve Loop(7) = {-10, -17, 15, 17};
Surface(7) = {7};
Curve Loop(8) = {-11, -18, 16, 18};
Surface(8) = {8};
Surface Loop(1) = {1, 2, 3, 4, 5, 6, 7, 8};
Volume(1) = {1};
Physical Surface("INFLOW") = {1};
Physical Surface("OUTFLOW") = {6};
Physical Surface("OBSTACLE") = {7, 8};
Physical Surface("WALL_Y") = {2, 4};
Physical Surface("WALL_Z") = {3, 5};
Physical Volume("FLUID") = {1};
