cl__1 = 1;
cl__2 = 0.123854;
cl__3 = 0.059981;
Point(1) = {0.10129, -4.72994, 1, cl__1};
Point(2) = {0.10129, -4.72994, 0, cl__1};
Point(3) = {0.10129, 5.241725, 1, cl__1};
Point(4) = {0.10129, 5.241725, 0, cl__1};
Point(5) = {32.311602, -4.72994, 0, cl__1};
Point(6) = {32.311602, -4.72994, 1, cl__1};
Point(7) = {32.311602, 5.241725, 1, cl__1};
Point(8) = {27.139395, -1.867622, 1, cl__2};
Point(9) = {10.16476, -0.3562140000000001, 1, cl__3};
Point(10) = {32.311602, 5.241725, 0, cl__1};
Point(11) = {27.139395, -1.867622, 0, cl__2};
Point(12) = {10.16476, -0.3562140000000001, 0, cl__3};
Line(1) = {2, 1};
Line(2) = {1, 3};
Line(3) = {4, 3};
Line(4) = {2, 4};
Line(5) = {2, 5};
Line(6) = {5, 6};
Line(7) = {1, 6};
Line(8) = {3, 7};
Line(9) = {6, 7};
p10 = newp;
Point(p10 + 1) = {27.1241465173607, -1.673871657669072, 1};
Point(p10 + 2) = {27.0787765376922, -1.484892091786853, 1};
Point(p10 + 3) = {27.00440222046826, -1.305336606452582, 1};
Point(p10 + 4) = {26.90285490821315, -1.13962645362568, 1};
Point(p10 + 5) = {26.77663503277079, -0.9918419672292135, 1};
Point(p10 + 6) = {26.62885054637432, -0.8656220917868525, 1};
Point(p10 + 7) = {26.46314039354742, -0.7640747795317389, 1};
Point(p10 + 8) = {26.28358490821315, -0.6897004623078005, 1};
Point(p10 + 9) = {26.09460534233093, -0.6443304826392979, 1};
Point(p10 + 10) = {25.900855, -0.6290819999999999, 1};
Point(p10 + 11) = {25.70710465766907, -0.6443304826392982, 1};
Point(p10 + 12) = {25.51812509178685, -0.6897004623078002, 1};
Point(p10 + 13) = {25.33856960645258, -0.7640747795317386, 1};
Point(p10 + 14) = {25.17285945362568, -0.8656220917868525, 1};
Point(p10 + 15) = {25.02507496722921, -0.9918419672292133, 1};
Point(p10 + 16) = {24.89885509178685, -1.13962645362568, 1};
Point(p10 + 17) = {24.79730777953174, -1.305336606452582, 1};
Point(p10 + 18) = {24.7229334623078, -1.484892091786852, 1};
Point(p10 + 19) = {24.6775634826393, -1.673871657669072, 1};
Point(p10 + 20) = {24.662315, -1.867622, 1};
Point(p10 + 21) = {24.6775634826393, -2.061372342330927, 1};
Point(p10 + 22) = {24.7229334623078, -2.250351908213148, 1};
Point(p10 + 23) = {24.79730777953174, -2.429907393547417, 1};
Point(p10 + 24) = {24.89885509178685, -2.595617546374319, 1};
Point(p10 + 25) = {25.02507496722921, -2.743402032770786, 1};
Point(p10 + 26) = {25.17285945362568, -2.869621908213147, 1};
Point(p10 + 27) = {25.33856960645258, -2.971169220468261, 1};
Point(p10 + 28) = {25.51812509178685, -3.0455435376922, 1};
Point(p10 + 29) = {25.70710465766907, -3.090913517360701, 1};
Point(p10 + 30) = {25.900855, -3.106162, 1};
Point(p10 + 31) = {26.09460534233093, -3.090913517360702, 1};
Point(p10 + 32) = {26.28358490821315, -3.0455435376922, 1};
Point(p10 + 33) = {26.46314039354742, -2.971169220468261, 1};
Point(p10 + 34) = {26.62885054637432, -2.869621908213147, 1};
Point(p10 + 35) = {26.77663503277079, -2.743402032770787, 1};
Point(p10 + 36) = {26.90285490821315, -2.59561754637432, 1};
Point(p10 + 37) = {27.00440222046826, -2.429907393547418, 1};
Point(p10 + 38) = {27.0787765376922, -2.250351908213148, 1};
Point(p10 + 39) = {27.1241465173607, -2.061372342330928, 1};
Spline(10) = {8, p10 + 1, p10 + 2, p10 + 3, p10 + 4, p10 + 5, p10 + 6, p10 + 7, p10 + 8, p10 + 9, p10 + 10, p10 + 11, p10 + 12, p10 + 13, p10 + 14, p10 + 15, p10 + 16, p10 + 17, p10 + 18, p10 + 19, p10 + 20, p10 + 21, p10 + 22, p10 + 23, p10 + 24, p10 + 25, p10 + 26, p10 + 27, p10 + 28, p10 + 29, p10 + 30, p10 + 31, p10 + 32, p10 + 33, p10 + 34, p10 + 35, p10 + 36, p10 + 37, p10 + 38, p10 + 39, 8};
p11 = newp;
Point(p11 + 1) = {10.15737535588403, -0.2623831999586841, 1};
Point(p11 + 2) = {10.13540325798248, -0.1708628256209571, 1};
Point(p11 + 3) = {10.0993847322669, -0.08390641234172214, 1};
Point(p11 + 4) = {10.05020667437904, -0.003655115607703929, 1};
Point(p11 + 5) = {9.989080011316723, 0.0679150113167219, 1};
Point(p11 + 6) = {9.917509884392297, 0.1290416743790429, 1};
Point(p11 + 7) = {9.837258587658278, 0.1782197322669007, 1};
Point(p11 + 8) = {9.750302174379044, 0.2142382579824798, 1};
Point(p11 + 9) = {9.658781800041316, 0.236210355884029, 1};
Point(p11 + 10) = {9.564951000000001, 0.2435950000000001, 1};
Point(p11 + 11) = {9.471120199958685, 0.236210355884029, 1};
Point(p11 + 12) = {9.379599825620957, 0.2142382579824799, 1};
Point(p11 + 13) = {9.292643412341723, 0.1782197322669009, 1};
Point(p11 + 14) = {9.212392115607704, 0.1290416743790429, 1};
Point(p11 + 15) = {9.140821988683278, 0.06791501131672195, 1};
Point(p11 + 16) = {9.079695325620957, -0.003655115607703874, 1};
Point(p11 + 17) = {9.030517267733099, -0.08390641234172208, 1};
Point(p11 + 18) = {8.994498742017521, -0.1708628256209571, 1};
Point(p11 + 19) = {8.972526644115971, -0.2623831999586841, 1};
Point(p11 + 20) = {8.965142, -0.3562139999999999, 1};
Point(p11 + 21) = {8.972526644115971, -0.4500448000413158, 1};
Point(p11 + 22) = {8.994498742017521, -0.5415651743790431, 1};
Point(p11 + 23) = {9.030517267733099, -0.6285215876582775, 1};
Point(p11 + 24) = {9.079695325620957, -0.708772884392296, 1};
Point(p11 + 25) = {9.140821988683278, -0.7803430113167218, 1};
Point(p11 + 26) = {9.212392115607704, -0.8414696743790429, 1};
Point(p11 + 27) = {9.292643412341723, -0.8906477322669006, 1};
Point(p11 + 28) = {9.379599825620957, -0.9266662579824798, 1};
Point(p11 + 29) = {9.471120199958685, -0.948638355884029, 1};
Point(p11 + 30) = {9.564951000000001, -0.9560230000000001, 1};
Point(p11 + 31) = {9.658781800041316, -0.948638355884029, 1};
Point(p11 + 32) = {9.750302174379044, -0.9266662579824798, 1};
Point(p11 + 33) = {9.837258587658278, -0.8906477322669009, 1};
Point(p11 + 34) = {9.917509884392297, -0.8414696743790429, 1};
Point(p11 + 35) = {9.989080011316723, -0.780343011316722, 1};
Point(p11 + 36) = {10.05020667437904, -0.7087728843922961, 1};
Point(p11 + 37) = {10.0993847322669, -0.6285215876582779, 1};
Point(p11 + 38) = {10.13540325798248, -0.5415651743790429, 1};
Point(p11 + 39) = {10.15737535588403, -0.450044800041316, 1};
Spline(11) = {9, p11 + 1, p11 + 2, p11 + 3, p11 + 4, p11 + 5, p11 + 6, p11 + 7, p11 + 8, p11 + 9, p11 + 10, p11 + 11, p11 + 12, p11 + 13, p11 + 14, p11 + 15, p11 + 16, p11 + 17, p11 + 18, p11 + 19, p11 + 20, p11 + 21, p11 + 22, p11 + 23, p11 + 24, p11 + 25, p11 + 26, p11 + 27, p11 + 28, p11 + 29, p11 + 30, p11 + 31, p11 + 32, p11 + 33, p11 + 34, p11 + 35, p11 + 36, p11 + 37, p11 + 38, p11 + 39, 9};
Line(12) = {4, 10};
Line(13) = {10, 7};
Line(14) = {5, 10};
p15 = newp;
Point(p15 + 1) = {27.1241465173607, -1.673871657669072, 0};
Point(p15 + 2) = {27.0787765376922, -1.484892091786853, 0};
Point(p15 + 3) = {27.00440222046826, -1.305336606452582, 0};
Point(p15 + 4) = {26.90285490821315, -1.13962645362568, 0};
Point(p15 + 5) = {26.77663503277079, -0.9918419672292135, 0};
Point(p15 + 6) = {26.62885054637432, -0.8656220917868525, 0};
Point(p15 + 7) = {26.46314039354742, -0.7640747795317389, 0};
Point(p15 + 8) = {26.28358490821315, -0.6897004623078005, 0};
Point(p15 + 9) = {26.09460534233093, -0.6443304826392979, 0};
Point(p15 + 10) = {25.900855, -0.6290819999999999, 0};
Point(p15 + 11) = {25.70710465766907, -0.6443304826392982, 0};
Point(p15 + 12) = {25.51812509178685, -0.6897004623078002, 0};
Point(p15 + 13) = {25.33856960645258, -0.7640747795317386, 0};
Point(p15 + 14) = {25.17285945362568, -0.8656220917868525, 0};
Point(p15 + 15) = {25.02507496722921, -0.9918419672292133, 0};
Point(p15 + 16) = {24.89885509178685, -1.13962645362568, 0};
Point(p15 + 17) = {24.79730777953174, -1.305336606452582, 0};
Point(p15 + 18) = {24.7229334623078, -1.484892091786852, 0};
Point(p15 + 19) = {24.6775634826393, -1.673871657669072, 0};
Point(p15 + 20) = {24.662315, -1.867622, 0};
Point(p15 + 21) = {24.6775634826393, -2.061372342330927, 0};
Point(p15 + 22) = {24.7229334623078, -2.250351908213148, 0};
Point(p15 + 23) = {24.79730777953174, -2.429907393547417, 0};
Point(p15 + 24) = {24.89885509178685, -2.595617546374319, 0};
Point(p15 + 25) = {25.02507496722921, -2.743402032770786, 0};
Point(p15 + 26) = {25.17285945362568, -2.869621908213147, 0};
Point(p15 + 27) = {25.33856960645258, -2.971169220468261, 0};
Point(p15 + 28) = {25.51812509178685, -3.0455435376922, 0};
Point(p15 + 29) = {25.70710465766907, -3.090913517360701, 0};
Point(p15 + 30) = {25.900855, -3.106162, 0};
Point(p15 + 31) = {26.09460534233093, -3.090913517360702, 0};
Point(p15 + 32) = {26.28358490821315, -3.0455435376922, 0};
Point(p15 + 33) = {26.46314039354742, -2.971169220468261, 0};
Point(p15 + 34) = {26.62885054637432, -2.869621908213147, 0};
Point(p15 + 35) = {26.77663503277079, -2.743402032770787, 0};
Point(p15 + 36) = {26.90285490821315, -2.59561754637432, 0};
Point(p15 + 37) = {27.00440222046826, -2.429907393547418, 0};
Point(p15 + 38) = {27.0787765376922, -2.250351908213148, 0};
Point(p15 + 39) = {27.1241465173607, -2.061372342330928, 0};
Spline(15) = {11, p15 + 1, p15 + 2, p15 + 3, p15 + 4, p15 + 5, p15 + 6, p15 + 7, p15 + 8, p15 + 9, p15 + 10, p15 + 11, p15 + 12, p15 + 13, p15 + 14, p15 + 15, p15 + 16, p15 + 17, p15 + 18, p15 + 19, p15 + 20, p15 + 21, p15 + 22, p15 + 23, p15 + 24, p15 + 25, p15 + 26, p15 + 27, p15 + 28, p15 + 29, p15 + 30, p15 + 31, p15 + 32, p15 + 33, p15 + 34, p15 + 35, p15 + 36, p15 + 37, p15 + 38, p15 + 39, 11};
p16 = newp;
Point(p16 + 1) = {10.15737535588403, -0.2623831999586841, 0};
Point(p16 + 2) = {10.13540325798248, -0.1708628256209571, 0};
Point(p16 + 3) = {10.0993847322669, -0.08390641234172214, 0};
Point(p16 + 4) = {10.05020667437904, -0.003655115607703929, 0};
Point(p16 + 5) = {9.989080011316723, 0.0679150113167219, 0};
Point(p16 + 6) = {9.917509884392297, 0.1290416743790429, 0};
Point(p16 + 7) = {9.837258587658278, 0.1782197322669007, 0};
Point(p16 + 8) = {9.750302174379044, 0.2142382579824798, 0};
Point(p16 + 9) = {9.658781800041316, 0.236210355884029, 0};
Point(p16 + 10) = {9.564951000000001, 0.2435950000000001, 0};
Point(p16 + 11) = {9.471120199958685, 0.236210355884029, 0};
Point(p16 + 12) = {9.379599825620957, 0.2142382579824799, 0};
Point(p16 + 13) = {9.292643412341723, 0.1782197322669009, 0};
Point(p16 + 14) = {9.212392115607704, 0.1290416743790429, 0};
Point(p16 + 15) = {9.140821988683278, 0.06791501131672195, 0};
Point(p16 + 16) = {9.079695325620957, -0.003655115607703874, 0};
Point(p16 + 17) = {9.030517267733099, -0.08390641234172208, 0};
Point(p16 + 18) = {8.994498742017521, -0.1708628256209571, 0};
Point(p16 + 19) = {8.972526644115971, -0.2623831999586841, 0};
Point(p16 + 20) = {8.965142, -0.3562139999999999, 0};
Point(p16 + 21) = {8.972526644115971, -0.4500448000413158, 0};
Point(p16 + 22) = {8.994498742017521, -0.5415651743790431, 0};
Point(p16 + 23) = {9.030517267733099, -0.6285215876582775, 0};
Point(p16 + 24) = {9.079695325620957, -0.708772884392296, 0};
Point(p16 + 25) = {9.140821988683278, -0.7803430113167218, 0};
Point(p16 + 26) = {9.212392115607704, -0.8414696743790429, 0};
Point(p16 + 27) = {9.292643412341723, -0.8906477322669006, 0};
Point(p16 + 28) = {9.379599825620957, -0.9266662579824798, 0};
Point(p16 + 29) = {9.471120199958685, -0.948638355884029, 0};
Point(p16 + 30) = {9.564951000000001, -0.9560230000000001, 0};
Point(p16 + 31) = {9.658781800041316, -0.948638355884029, 0};
Point(p16 + 32) = {9.750302174379044, -0.9266662579824798, 0};
Point(p16 + 33) = {9.837258587658278, -0.8906477322669009, 0};
Point(p16 + 34) = {9.917509884392297, -0.8414696743790429, 0};
Point(p16 + 35) = {9.989080011316723, -0.780343011316722, 0};
Point(p16 + 36) = {10.05020667437904, -0.7087728843922961, 0};
Point(p16 + 37) = {10.0993847322669, -0.6285215876582779, 0};
Point(p16 + 38) = {10.13540325798248, -0.5415651743790429, 0};
Point(p16 + 39) = {10.15737535588403, -0.450044800041316, 0};
Spline(16) = {12, p16 + 1, p16 + 2, p16 + 3, p16 + 4, p16 + 5, p16 + 6, p16 + 7, p16 + 8, p16 + 9, p16 + 10, p16 + 11, p16 + 12, p16 + 13, p16 + 14, p16 + 15, p16 + 16, p16 + 17, p16 + 18, p16 + 19, p16 + 20, p16 + 21, p16 + 22, p16 + 23, p16 + 24, p16 + 25, p16 + 26, p16 + 27, p16 + 28, p16 + 29, p16 + 30, p16 + 31, p16 + 32, p16 + 33, p16 + 34, p16 + 35, p16 + 36, p16 + 37, p16 + 38, p16 + 39, 12};
Line(17) = {11, 8};
Line(18) = {12, 9};
Curve Loop(1) = {-1, 4, 3, -2};
Plane Surface(1) = {1};
Curve Loop(2) = {-5, 1, 7, -6};
Plane Surface(2) = {2};
Curve Loop(3) = {-2, 7, 9, -8, -10, -11};
Plane Surface(3) = {3};
Curve Loop(4) = {-12, 3, 8, -13};
Plane Surface(4) = {4};
Curve Loop(5) = {-4, 5, 14, -12, -15, -16};
Plane Surface(5) = {5};
Curve Loop(6) = {-6, 14, 13, -9};
Plane Surface(6) = {6};
Curve Loop(7) = {-10, -17, 15, 17};
Surface(7) = {7};
Curve Loop(8) = {-11, -18, 16, 18};
Surface(8) = {8};
Surface Loop(1) = {1, 2, 3, 4, 5, 6, 7, 8};
Volume(1) = {1};
Physical Surface("INFLOW") = {1};
Physical Surface("OUTFLOW") = {6};
Physical Surface("OBSTACLE") = {7, 8};
Physical Surface("WALL_Y") = {2, 4};
Physical Surface("WALL_Z") = {3, 5};
Physical Volume("FLUID") = {1};
