cl__1 = 3.078017;
cl__2 = 1.201457;
cl__3 = 1.119288;
cl__4 = 0.07721;
Point(1) = {0.567594, -3.861805, 1, cl__1};
Point(2) = {0.567594, -3.861805, 0, cl__1};
Point(3) = {0.567594, 4.03172, 1, cl__1};
Point(4) = {0.567594, 4.03172, 0, cl__1};
Point(5) = {30.526089, -3.861805, 0, cl__2};
Point(6) = {30.526089, -3.861805, 1, cl__2};
Point(7) = {30.526089, 4.03172, 1, cl__3};
Point(8) = {19.632286, 1.373226, 1, cl__4};
Point(9) = {30.526089, 4.03172, 0, cl__3};
Point(10) = {19.632286, 1.373226, 0, cl__4};
Line(1) = {2, 1};
Line(2) = {1, 3};
Line(3) = {4, 3};
Line(4) = {2, 4};
Line(5) = {2, 5};
Line(6) = {5, 6};
Line(7) = {1, 6};
Line(8) = {3, 7};
Line(9) = {6, 7};
p10 = newp;
Point(p10 + 1) = {19.62278013083853, 1.494009519760958, 1};
Point(p10 + 2) = {19.59449658940104, 1.61181894840788, 1};
Point(p10 + 3) = {19.54813181034541, 1.723753426820403, 1};
Point(p10 + 4) = {19.48482744840788, 1.827056756650775, 1};
Point(p10 + 5) = {19.40614226707448, 1.919185267074477, 1};
Point(p10 + 6) = {19.31401375665077, 1.99787044840788, 1};
Point(p10 + 7) = {19.2107104268204, 2.061174810345412, 1};
Point(p10 + 8) = {19.09877594840788, 2.107539589401037, 1};
Point(p10 + 9) = {18.98096651976096, 2.135823130838528, 1};
Point(p10 + 10) = {18.860183, 2.145329, 1};
Point(p10 + 11) = {18.73939948023904, 2.135823130838528, 1};
Point(p10 + 12) = {18.62159005159212, 2.107539589401037, 1};
Point(p10 + 13) = {18.5096555731796, 2.061174810345412, 1};
Point(p10 + 14) = {18.40635224334923, 1.99787044840788, 1};
Point(p10 + 15) = {18.31422373292552, 1.919185267074477, 1};
Point(p10 + 16) = {18.23553855159212, 1.827056756650776, 1};
Point(p10 + 17) = {18.17223418965459, 1.723753426820403, 1};
Point(p10 + 18) = {18.12586941059896, 1.61181894840788, 1};
Point(p10 + 19) = {18.09758586916147, 1.494009519760958, 1};
Point(p10 + 20) = {18.08808, 1.373226, 1};
Point(p10 + 21) = {18.09758586916147, 1.252442480239043, 1};
Point(p10 + 22) = {18.12586941059896, 1.13463305159212, 1};
Point(p10 + 23) = {18.17223418965459, 1.022698573179597, 1};
Point(p10 + 24) = {18.23553855159212, 0.9193952433492247, 1};
Point(p10 + 25) = {18.31422373292552, 0.8272667329255232, 1};
Point(p10 + 26) = {18.40635224334923, 0.7485815515921201, 1};
Point(p10 + 27) = {18.5096555731796, 0.6852771896545887, 1};
Point(p10 + 28) = {18.62159005159212, 0.6389124105989632, 1};
Point(p10 + 29) = {18.73939948023904, 0.6106288691614725, 1};
Point(p10 + 30) = {18.860183, 0.6011230000000001, 1};
Point(p10 + 31) = {18.98096651976095, 0.6106288691614724, 1};
Point(p10 + 32) = {19.09877594840788, 0.6389124105989631, 1};
Point(p10 + 33) = {19.2107104268204, 0.6852771896545886, 1};
Point(p10 + 34) = {19.31401375665077, 0.7485815515921199, 1};
Point(p10 + 35) = {19.40614226707448, 0.827266732925523, 1};
Point(p10 + 36) = {19.48482744840788, 0.9193952433492245, 1};
Point(p10 + 37) = {19.54813181034541, 1.022698573179597, 1};
Point(p10 + 38) = {19.59449658940104, 1.13463305159212, 1};
Point(p10 + 39) = {19.62278013083853, 1.252442480239043, 1};
Spline(10) = {8, p10 + 1, p10 + 2, p10 + 3, p10 + 4, p10 + 5, p10 + 6, p10 + 7, p10 + 8, p10 + 9, p10 + 10, p10 + 11, p10 + 12, p10 + 13, p10 + 14, p10 + 15, p10 + 16, p10 + 17, p10 + 18, p10 + 19, p10 + 20, p10 + 21, p10 + 22, p10 + 23, p10 + 24, p10 + 25, p10 + 26, p10 + 27, p10 + 28, p10 + 29, p10 + 30, p10 + 31, p10 + 32, p10 + 33, p10 + 34, p10 + 35, p10 + 36, p10 + 37, p10 + 38, p10 + 39, 8};
Line(11) = {4, 9};
Line(12) = {9, 7};
Line(13) = {5, 9};
p14 = newp;
Point(p14 + 1) = {19.62278013083853, 1.494009519760958, 0};
Point(p14 + 2) = {19.59449658940104, 1.61181894840788, 0};
Point(p14 + 3) = {19.54813181034541, 1.723753426820403, 0};
Point(p14 + 4) = {19.48482744840788, 1.827056756650775, 0};
Point(p14 + 5) = {19.40614226707448, 1.919185267074477, 0};
Point(p14 + 6) = {19.31401375665077, 1.99787044840788, 0};
Point(p14 + 7) = {19.2107104268204, 2.061174810345412, 0};
Point(p14 + 8) = {19.09877594840788, 2.107539589401037, 0};
Point(p14 + 9) = {18.98096651976096, 2.135823130838528, 0};
Point(p14 + 10) = {18.860183, 2.145329, 0};
Point(p14 + 11) = {18.73939948023904, 2.135823130838528, 0};
Point(p14 + 12) = {18.62159005159212, 2.107539589401037, 0};
Point(p14 + 13) = {18.5096555731796, 2.061174810345412, 0};
Point(p14 + 14) = {18.40635224334923, 1.99787044840788, 0};
Point(p14 + 15) = {18.31422373292552, 1.919185267074477, 0};
Point(p14 + 16) = {18.23553855159212, 1.827056756650776, 0};
Point(p14 + 17) = {18.17223418965459, 1.723753426820403, 0};
Point(p14 + 18) = {18.12586941059896, 1.61181894840788, 0};
Point(p14 + 19) = {18.09758586916147, 1.494009519760958, 0};
Point(p14 + 20) = {18.08808, 1.373226, 0};
Point(p14 + 21) = {18.09758586916147, 1.252442480239043, 0};
Point(p14 + 22) = {18.12586941059896, 1.13463305159212, 0};
Point(p14 + 23) = {18.17223418965459, 1.022698573179597, 0};
Point(p14 + 24) = {18.23553855159212, 0.9193952433492247, 0};
Point(p14 + 25) = {18.31422373292552, 0.8272667329255232, 0};
Point(p14 + 26) = {18.40635224334923, 0.7485815515921201, 0};
Point(p14 + 27) = {18.5096555731796, 0.6852771896545887, 0};
Point(p14 + 28) = {18.62159005159212, 0.6389124105989632, 0};
Point(p14 + 29) = {18.73939948023904, 0.6106288691614725, 0};
Point(p14 + 30) = {18.860183, 0.6011230000000001, 0};
Point(p14 + 31) = {18.98096651976095, 0.6106288691614724, 0};
Point(p14 + 32) = {19.09877594840788, 0.6389124105989631, 0};
Point(p14 + 33) = {19.2107104268204, 0.6852771896545886, 0};
Point(p14 + 34) = {19.31401375665077, 0.7485815515921199, 0};
Point(p14 + 35) = {19.40614226707448, 0.827266732925523, 0};
Point(p14 + 36) = {19.48482744840788, 0.9193952433492245, 0};
Point(p14 + 37) = {19.54813181034541, 1.022698573179597, 0};
Point(p14 + 38) = {19.59449658940104, 1.13463305159212, 0};
Point(p14 + 39) = {19.62278013083853, 1.252442480239043, 0};
Spline(14) = {10, p14 + 1, p14 + 2, p14 + 3, p14 + 4, p14 + 5, p14 + 6, p14 + 7, p14 + 8, p14 + 9, p14 + 10, p14 + 11, p14 + 12, p14 + 13, p14 + 14, p14 + 15, p14 + 16, p14 + 17, p14 + 18, p14 + 19, p14 + 20, p14 + 21, p14 + 22, p14 + 23, p14 + 24, p14 + 25, p14 + 26, p14 + 27, p14 + 28, p14 + 29, p14 + 30, p14 + 31, p14 + 32, p14 + 33, p14 + 34, p14 + 35, p14 + 36, p14 + 37, p14 + 38, p14 + 39, 10};
Line(15) = {10, 8};
Curve Loop(1) = {-1, 4, 3, -2};
Plane Surface(1) = {1};
Curve Loop(2) = {-5, 1, 7, -6};
Plane Surface(2) = {2};
Curve Loop(3) = {-2, 7, 9, -8, -10};
Plane Surface(3) = {3};
Curve Loop(4) = {-11, 3, 8, -12};
Plane Surface(4) = {4};
Curve Loop(5) = {-4, 5, 13, -11, -14};
Plane Surface(5) = {5};
Curve Loop(6) = {-6, 13, 12, -9};
Plane Surface(6) = {6};
Curve Loop(7) = {-10, -15, 14, 15};
Surface(7) = {7};
Surface Loop(1) = {1, 2, 3, 4, 5, 6, 7};
Volume(1) = {1};
Physical Surface("INFLOW") = {1};
Physical Surface("OUTFLOW") = {6};
Physical Surface("OBSTACLE") = {7};
Physical Surface("WALL_Y") = {2, 4};
Physical Surface("WALL_Z") = {3, 5};
Physical Volume("FLUID") = {1};
