cl__1 = 0.953812;
cl__2 = 1.138997;
cl__3 = 3.208886;
cl__4 = 0.07607899999999999;
Point(1) = {0.086738, -3.256509, 1, cl__1};
Point(2) = {0.086738, -3.256509, 0, cl__1};
Point(3) = {0.086738, 4.595021000000001, 1, cl__2};
Point(4) = {0.086738, 4.595021000000001, 0, cl__2};
Point(5) = {31.847812, -3.256509, 0, cl__3};
Point(6) = {31.847812, -3.256509, 1, cl__3};
Point(7) = {31.847812, 4.595021000000001, 1, cl__3};
Point(8) = {11.06679, -1.978216, 1, cl__4};
Point(9) = {31.847812, 4.595021000000001, 0, cl__3};
Point(10) = {11.06679, -1.978216, 0, cl__4};
Line(1) = {2, 1};
Line(2) = {1, 3};
Line(3) = {4, 3};
Line(4) = {2, 4};
Line(5) = {2, 5};
Line(6) = {5, 6};
Line(7) = {1, 6};
Line(8) = {3, 7};
Line(9) = {6, 7};
p10 = newp;
Point(p10 + 1) = {11.05742347419967, -1.859203005514368, 1};
Point(p10 + 2) = {11.02955453174961, -1.743120505934456, 1};
Point(p10 + 3) = {10.98386939850465, -1.632826837655649, 1};
Point(p10 + 4) = {10.92149299406555, -1.531037796834671, 1};
Point(p10 + 5) = {10.84396123252501, -1.440259767474992, 1};
Point(p10 + 6) = {10.75318320316533, -1.362728005934456, 1};
Point(p10 + 7) = {10.65139416234435, -1.300351601495353, 1};
Point(p10 + 8) = {10.54110049406555, -1.254666468250392, 1};
Point(p10 + 9) = {10.42501799448563, -1.226797525800328, 1};
Point(p10 + 10) = {10.306005, -1.217431, 1};
Point(p10 + 11) = {10.18699200551437, -1.226797525800328, 1};
Point(p10 + 12) = {10.07090950593446, -1.254666468250392, 1};
Point(p10 + 13) = {9.96061583765565, -1.300351601495352, 1};
Point(p10 + 14) = {9.858826796834672, -1.362728005934456, 1};
Point(p10 + 15) = {9.768048767474994, -1.440259767474992, 1};
Point(p10 + 16) = {9.690517005934456, -1.531037796834671, 1};
Point(p10 + 17) = {9.628140601495353, -1.632826837655649, 1};
Point(p10 + 18) = {9.582455468250393, -1.743120505934455, 1};
Point(p10 + 19) = {9.554586525800328, -1.859203005514368, 1};
Point(p10 + 20) = {9.54522, -1.978216, 1};
Point(p10 + 21) = {9.554586525800328, -2.097228994485632, 1};
Point(p10 + 22) = {9.582455468250393, -2.213311494065545, 1};
Point(p10 + 23) = {9.628140601495353, -2.323605162344351, 1};
Point(p10 + 24) = {9.690517005934456, -2.425394203165329, 1};
Point(p10 + 25) = {9.768048767474992, -2.516172232525007, 1};
Point(p10 + 26) = {9.858826796834672, -2.593703994065544, 1};
Point(p10 + 27) = {9.960615837655649, -2.656080398504647, 1};
Point(p10 + 28) = {10.07090950593446, -2.701765531749608, 1};
Point(p10 + 29) = {10.18699200551437, -2.729634474199672, 1};
Point(p10 + 30) = {10.306005, -2.739001, 1};
Point(p10 + 31) = {10.42501799448563, -2.729634474199672, 1};
Point(p10 + 32) = {10.54110049406554, -2.701765531749608, 1};
Point(p10 + 33) = {10.65139416234435, -2.656080398504647, 1};
Point(p10 + 34) = {10.75318320316533, -2.593703994065545, 1};
Point(p10 + 35) = {10.84396123252501, -2.516172232525008, 1};
Point(p10 + 36) = {10.92149299406555, -2.425394203165329, 1};
Point(p10 + 37) = {10.98386939850465, -2.323605162344351, 1};
Point(p10 + 38) = {11.02955453174961, -2.213311494065545, 1};
Point(p10 + 39) = {11.05742347419967, -2.097228994485632, 1};
Spline(10) = {8, p10 + 1, p10 + 2, p10 + 3, p10 + 4, p10 + 5, p10 + 6, p10 + 7, p10 + 8, p10 + 9, p10 + 10, p10 + 11, p10 + 12, p10 + 13, p10 + 14, p10 + 15, p10 + 16, p10 + 17, p10 + 18, p10 + 19, p10 + 20, p10 + 21, p10 + 22, p10 + 23, p10 + 24, p10 + 25, p10 + 26, p10 + 27, p10 + 28, p10 + 29, p10 + 30, p10 + 31, p10 + 32, p10 + 33, p10 + 34, p10 + 35, p10 + 36, p10 + 37, p10 + 38, p10 + 39, 8};
Line(11) = {4, 9};
Line(12) = {9, 7};
Line(13) = {5, 9};
p14 = newp;
Point(p14 + 1) = {11.05742347419967, -1.859203005514368, 0};
Point(p14 + 2) = {11.02955453174961, -1.743120505934456, 0};
Point(p14 + 3) = {10.98386939850465, -1.632826837655649, 0};
Point(p14 + 4) = {10.92149299406555, -1.531037796834671, 0};
Point(p14 + 5) = {10.84396123252501, -1.440259767474992, 0};
Point(p14 + 6) = {10.75318320316533, -1.362728005934456, 0};
Point(p14 + 7) = {10.65139416234435, -1.300351601495353, 0};
Point(p14 + 8) = {10.54110049406555, -1.254666468250392, 0};
Point(p14 + 9) = {10.42501799448563, -1.226797525800328, 0};
Point(p14 + 10) = {10.306005, -1.217431, 0};
Point(p14 + 11) = {10.18699200551437, -1.226797525800328, 0};
Point(p14 + 12) = {10.07090950593446, -1.254666468250392, 0};
Point(p14 + 13) = {9.96061583765565, -1.300351601495352, 0};
Point(p14 + 14) = {9.858826796834672, -1.362728005934456, 0};
Point(p14 + 15) = {9.768048767474994, -1.440259767474992, 0};
Point(p14 + 16) = {9.690517005934456, -1.531037796834671, 0};
Point(p14 + 17) = {9.628140601495353, -1.632826837655649, 0};
Point(p14 + 18) = {9.582455468250393, -1.743120505934455, 0};
Point(p14 + 19) = {9.554586525800328, -1.859203005514368, 0};
Point(p14 + 20) = {9.54522, -1.978216, 0};
Point(p14 + 21) = {9.554586525800328, -2.097228994485632, 0};
Point(p14 + 22) = {9.582455468250393, -2.213311494065545, 0};
Point(p14 + 23) = {9.628140601495353, -2.323605162344351, 0};
Point(p14 + 24) = {9.690517005934456, -2.425394203165329, 0};
Point(p14 + 25) = {9.768048767474992, -2.516172232525007, 0};
Point(p14 + 26) = {9.858826796834672, -2.593703994065544, 0};
Point(p14 + 27) = {9.960615837655649, -2.656080398504647, 0};
Point(p14 + 28) = {10.07090950593446, -2.701765531749608, 0};
Point(p14 + 29) = {10.18699200551437, -2.729634474199672, 0};
Point(p14 + 30) = {10.306005, -2.739001, 0};
Point(p14 + 31) = {10.42501799448563, -2.729634474199672, 0};
Point(p14 + 32) = {10.54110049406554, -2.701765531749608, 0};
Point(p14 + 33) = {10.65139416234435, -2.656080398504647, 0};
Point(p14 + 34) = {10.75318320316533, -2.593703994065545, 0};
Point(p14 + 35) = {10.84396123252501, -2.516172232525008, 0};
Point(p14 + 36) = {10.92149299406555, -2.425394203165329, 0};
Point(p14 + 37) = {10.98386939850465, -2.323605162344351, 0};
Point(p14 + 38) = {11.02955453174961, -2.213311494065545, 0};
Point(p14 + 39) = {11.05742347419967, -2.097228994485632, 0};
Spline(14) = {10, p14 + 1, p14 + 2, p14 + 3, p14 + 4, p14 + 5, p14 + 6, p14 + 7, p14 + 8, p14 + 9, p14 + 10, p14 + 11, p14 + 12, p14 + 13, p14 + 14, p14 + 15, p14 + 16, p14 + 17, p14 + 18, p14 + 19, p14 + 20, p14 + 21, p14 + 22, p14 + 23, p14 + 24, p14 + 25, p14 + 26, p14 + 27, p14 + 28, p14 + 29, p14 + 30, p14 + 31, p14 + 32, p14 + 33, p14 + 34, p14 + 35, p14 + 36, p14 + 37, p14 + 38, p14 + 39, 10};
Line(15) = {10, 8};
Curve Loop(1) = {-1, 4, 3, -2};
Plane Surface(1) = {1};
Curve Loop(2) = {-5, 1, 7, -6};
Plane Surface(2) = {2};
Curve Loop(3) = {-2, 7, 9, -8, -10};
Plane Surface(3) = {3};
Curve Loop(4) = {-11, 3, 8, -12};
Plane Surface(4) = {4};
Curve Loop(5) = {-4, 5, 13, -11, -14};
Plane Surface(5) = {5};
Curve Loop(6) = {-6, 13, 12, -9};
Plane Surface(6) = {6};
Curve Loop(7) = {-10, -15, 14, 15};
Surface(7) = {7};
Surface Loop(1) = {1, 2, 3, 4, 5, 6, 7};
Volume(1) = {1};
Physical Surface("INFLOW") = {1};
Physical Surface("OUTFLOW") = {6};
Physical Surface("OBSTACLE") = {7};
Physical Surface("WALL_Y") = {2, 4};
Physical Surface("WALL_Z") = {3, 5};
Physical Volume("FLUID") = {1};
