cl__1 = 1;
cl__2 = 0.08880300000000001;
cl__3 = 0.143975;
Point(1) = {0.103927, -4.432526, 1, cl__1};
Point(2) = {0.103927, -4.432526, 0, cl__1};
Point(3) = {0.103927, 5.508033999999999, 1, cl__1};
Point(4) = {0.103927, 5.508033999999999, 0, cl__1};
Point(5) = {37.027429, -4.432526, 0, cl__1};
Point(6) = {37.027429, -4.432526, 1, cl__1};
Point(7) = {37.027429, 5.508033999999999, 1, cl__1};
Point(8) = {9.317166, -2.399174, 1, cl__2};
Point(9) = {30.143663, 1.4569, 1, cl__3};
Point(10) = {37.027429, 5.508033999999999, 0, cl__1};
Point(11) = {9.317166, -2.399174, 0, cl__2};
Point(12) = {30.143663, 1.4569, 0, cl__3};
Line(1) = {2, 1};
Line(2) = {1, 3};
Line(3) = {4, 3};
Line(4) = {2, 4};
Line(5) = {2, 5};
Line(6) = {5, 6};
Line(7) = {1, 6};
Line(8) = {3, 7};
Line(9) = {6, 7};
p10 = newp;
Point(p10 + 1) = {9.306232840163721, -2.260255032706929, 1};
Point(p10 + 2) = {9.273702571335134, -2.124756711434232, 1};
Point(p10 + 3) = {9.22037619669457, -1.996015454544791, 1};
Point(p10 + 4) = {9.147566788565769, -1.877201299050958, 1};
Point(p10 + 5) = {9.057067156217434, -1.771239843782566, 1};
Point(p10 + 6) = {8.951105700949043, -1.680740211434232, 1};
Point(p10 + 7) = {8.83229154545521, -1.607930803305431, 1};
Point(p10 + 8) = {8.703550288565769, -1.554604428664866, 1};
Point(p10 + 9) = {8.568051967293071, -1.522074159836278, 1};
Point(p10 + 10) = {8.429133, -1.511141, 1};
Point(p10 + 11) = {8.290214032706929, -1.522074159836278, 1};
Point(p10 + 12) = {8.154715711434232, -1.554604428664866, 1};
Point(p10 + 13) = {8.025974454544791, -1.607930803305431, 1};
Point(p10 + 14) = {7.907160299050958, -1.680740211434232, 1};
Point(p10 + 15) = {7.801198843782567, -1.771239843782566, 1};
Point(p10 + 16) = {7.710699211434233, -1.877201299050958, 1};
Point(p10 + 17) = {7.637889803305431, -1.996015454544791, 1};
Point(p10 + 18) = {7.584563428664866, -2.124756711434232, 1};
Point(p10 + 19) = {7.552033159836278, -2.260255032706929, 1};
Point(p10 + 20) = {7.5411, -2.399174, 1};
Point(p10 + 21) = {7.552033159836278, -2.538092967293071, 1};
Point(p10 + 22) = {7.584563428664866, -2.673591288565768, 1};
Point(p10 + 23) = {7.637889803305431, -2.802332545455208, 1};
Point(p10 + 24) = {7.710699211434233, -2.921146700949042, 1};
Point(p10 + 25) = {7.801198843782567, -3.027108156217433, 1};
Point(p10 + 26) = {7.907160299050958, -3.117607788565767, 1};
Point(p10 + 27) = {8.025974454544791, -3.190417196694569, 1};
Point(p10 + 28) = {8.154715711434232, -3.243743571335134, 1};
Point(p10 + 29) = {8.290214032706929, -3.276273840163722, 1};
Point(p10 + 30) = {8.429133, -3.287207, 1};
Point(p10 + 31) = {8.568051967293071, -3.276273840163722, 1};
Point(p10 + 32) = {8.703550288565769, -3.243743571335134, 1};
Point(p10 + 33) = {8.83229154545521, -3.190417196694569, 1};
Point(p10 + 34) = {8.951105700949041, -3.117607788565768, 1};
Point(p10 + 35) = {9.057067156217434, -3.027108156217433, 1};
Point(p10 + 36) = {9.147566788565769, -2.921146700949042, 1};
Point(p10 + 37) = {9.22037619669457, -2.802332545455209, 1};
Point(p10 + 38) = {9.273702571335134, -2.673591288565768, 1};
Point(p10 + 39) = {9.306232840163721, -2.538092967293072, 1};
Spline(10) = {8, p10 + 1, p10 + 2, p10 + 3, p10 + 4, p10 + 5, p10 + 6, p10 + 7, p10 + 8, p10 + 9, p10 + 10, p10 + 11, p10 + 12, p10 + 13, p10 + 14, p10 + 15, p10 + 16, p10 + 17, p10 + 18, p10 + 19, p10 + 20, p10 + 21, p10 + 22, p10 + 23, p10 + 24, p10 + 25, p10 + 26, p10 + 27, p10 + 28, p10 + 29, p10 + 30, p10 + 31, p10 + 32, p10 + 33, p10 + 34, p10 + 35, p10 + 36, p10 + 37, p10 + 38, p10 + 39, 8};
p11 = newp;
Point(p11 + 1) = {30.12593727606019, 1.682126677476137, 1};
Point(p11 + 2) = {30.07319657039246, 1.901807526668325, 1};
Point(p11 + 3) = {29.98673953420673, 2.110533275990512, 1};
Point(p11 + 4) = {29.86869502666832, 2.303164404773341, 1};
Point(p11 + 5) = {29.72196969532011, 2.474957695320113, 1};
Point(p11 + 6) = {29.55017640477334, 2.621683026668325, 1};
Point(p11 + 7) = {29.35754527599051, 2.739727534206727, 1};
Point(p11 + 8) = {29.14881952666832, 2.826184570392464, 1};
Point(p11 + 9) = {28.92913867747614, 2.87892527606019, 1};
Point(p11 + 10) = {28.703912, 2.896651, 1};
Point(p11 + 11) = {28.47868532252386, 2.87892527606019, 1};
Point(p11 + 12) = {28.25900447333168, 2.826184570392464, 1};
Point(p11 + 13) = {28.05027872400949, 2.739727534206727, 1};
Point(p11 + 14) = {27.85764759522666, 2.621683026668325, 1};
Point(p11 + 15) = {27.68585430467989, 2.474957695320113, 1};
Point(p11 + 16) = {27.53912897333167, 2.303164404773341, 1};
Point(p11 + 17) = {27.42108446579327, 2.110533275990512, 1};
Point(p11 + 18) = {27.33462742960754, 1.901807526668325, 1};
Point(p11 + 19) = {27.28188672393981, 1.682126677476138, 1};
Point(p11 + 20) = {27.264161, 1.4569, 1};
Point(p11 + 21) = {27.28188672393981, 1.231673322523863, 1};
Point(p11 + 22) = {27.33462742960754, 1.011992473331675, 1};
Point(p11 + 23) = {27.42108446579327, 0.8032667240094886, 1};
Point(p11 + 24) = {27.53912897333167, 0.6106355952266598, 1};
Point(p11 + 25) = {27.68585430467989, 0.4388423046798873, 1};
Point(p11 + 26) = {27.85764759522666, 0.2921169733316753, 1};
Point(p11 + 27) = {28.05027872400949, 0.1740724657932733, 1};
Point(p11 + 28) = {28.25900447333168, 0.08761542960753643, 1};
Point(p11 + 29) = {28.47868532252386, 0.03487472393980995, 1};
Point(p11 + 30) = {28.703912, 0.01714900000000008, 1};
Point(p11 + 31) = {28.92913867747614, 0.03487472393980995, 1};
Point(p11 + 32) = {29.14881952666832, 0.08761542960753643, 1};
Point(p11 + 33) = {29.35754527599051, 0.1740724657932733, 1};
Point(p11 + 34) = {29.55017640477334, 0.2921169733316749, 1};
Point(p11 + 35) = {29.72196969532011, 0.4388423046798868, 1};
Point(p11 + 36) = {29.86869502666832, 0.6106355952266592, 1};
Point(p11 + 37) = {29.98673953420673, 0.8032667240094876, 1};
Point(p11 + 38) = {30.07319657039246, 1.011992473331675, 1};
Point(p11 + 39) = {30.12593727606019, 1.231673322523862, 1};
Spline(11) = {9, p11 + 1, p11 + 2, p11 + 3, p11 + 4, p11 + 5, p11 + 6, p11 + 7, p11 + 8, p11 + 9, p11 + 10, p11 + 11, p11 + 12, p11 + 13, p11 + 14, p11 + 15, p11 + 16, p11 + 17, p11 + 18, p11 + 19, p11 + 20, p11 + 21, p11 + 22, p11 + 23, p11 + 24, p11 + 25, p11 + 26, p11 + 27, p11 + 28, p11 + 29, p11 + 30, p11 + 31, p11 + 32, p11 + 33, p11 + 34, p11 + 35, p11 + 36, p11 + 37, p11 + 38, p11 + 39, 9};
Line(12) = {4, 10};
Line(13) = {10, 7};
Line(14) = {5, 10};
p15 = newp;
Point(p15 + 1) = {9.306232840163721, -2.260255032706929, 0};
Point(p15 + 2) = {9.273702571335134, -2.124756711434232, 0};
Point(p15 + 3) = {9.22037619669457, -1.996015454544791, 0};
Point(p15 + 4) = {9.147566788565769, -1.877201299050958, 0};
Point(p15 + 5) = {9.057067156217434, -1.771239843782566, 0};
Point(p15 + 6) = {8.951105700949043, -1.680740211434232, 0};
Point(p15 + 7) = {8.83229154545521, -1.607930803305431, 0};
Point(p15 + 8) = {8.703550288565769, -1.554604428664866, 0};
Point(p15 + 9) = {8.568051967293071, -1.522074159836278, 0};
Point(p15 + 10) = {8.429133, -1.511141, 0};
Point(p15 + 11) = {8.290214032706929, -1.522074159836278, 0};
Point(p15 + 12) = {8.154715711434232, -1.554604428664866, 0};
Point(p15 + 13) = {8.025974454544791, -1.607930803305431, 0};
Point(p15 + 14) = {7.907160299050958, -1.680740211434232, 0};
Point(p15 + 15) = {7.801198843782567, -1.771239843782566, 0};
Point(p15 + 16) = {7.710699211434233, -1.877201299050958, 0};
Point(p15 + 17) = {7.637889803305431, -1.996015454544791, 0};
Point(p15 + 18) = {7.584563428664866, -2.124756711434232, 0};
Point(p15 + 19) = {7.552033159836278, -2.260255032706929, 0};
Point(p15 + 20) = {7.5411, -2.399174, 0};
Point(p15 + 21) = {7.552033159836278, -2.538092967293071, 0};
Point(p15 + 22) = {7.584563428664866, -2.673591288565768, 0};
Point(p15 + 23) = {7.637889803305431, -2.802332545455208, 0};
Point(p15 + 24) = {7.710699211434233, -2.921146700949042, 0};
Point(p15 + 25) = {7.801198843782567, -3.027108156217433, 0};
Point(p15 + 26) = {7.907160299050958, -3.117607788565767, 0};
Point(p15 + 27) = {8.025974454544791, -3.190417196694569, 0};
Point(p15 + 28) = {8.154715711434232, -3.243743571335134, 0};
Point(p15 + 29) = {8.290214032706929, -3.276273840163722, 0};
Point(p15 + 30) = {8.429133, -3.287207, 0};
Point(p15 + 31) = {8.568051967293071, -3.276273840163722, 0};
Point(p15 + 32) = {8.703550288565769, -3.243743571335134, 0};
Point(p15 + 33) = {8.83229154545521, -3.190417196694569, 0};
Point(p15 + 34) = {8.951105700949041, -3.117607788565768, 0};
Point(p15 + 35) = {9.057067156217434, -3.027108156217433, 0};
Point(p15 + 36) = {9.147566788565769, -2.921146700949042, 0};
Point(p15 + 37) = {9.22037619669457, -2.802332545455209, 0};
Point(p15 + 38) = {9.273702571335134, -2.673591288565768, 0};
Point(p15 + 39) = {9.306232840163721, -2.538092967293072, 0};
Spline(15) = {11, p15 + 1, p15 + 2, p15 + 3, p15 + 4, p15 + 5, p15 + 6, p15 + 7, p15 + 8, p15 + 9, p15 + 10, p15 + 11, p15 + 12, p15 + 13, p15 + 14, p15 + 15, p15 + 16, p15 + 17, p15 + 18, p15 + 19, p15 + 20, p15 + 21, p15 + 22, p15 + 23, p15 + 24, p15 + 25, p15 + 26, p15 + 27, p15 + 28, p15 + 29, p15 + 30, p15 + 31, p15 + 32, p15 + 33, p15 + 34, p15 + 35, p15 + 36, p15 + 37, p15 + 38, p15 + 39, 11};
p16 = newp;
Point(p16 + 1) = {30.12593727606019, 1.682126677476137, 0};
Point(p16 + 2) = {30.07319657039246, 1.901807526668325, 0};
Point(p16 + 3) = {29.98673953420673, 2.110533275990512, 0};
Point(p16 + 4) = {29.86869502666832, 2.303164404773341, 0};
Point(p16 + 5) = {29.72196969532011, 2.474957695320113, 0};
Point(p16 + 6) = {29.55017640477334, 2.621683026668325, 0};
Point(p16 + 7) = {29.35754527599051, 2.739727534206727, 0};
Point(p16 + 8) = {29.14881952666832, 2.826184570392464, 0};
Point(p16 + 9) = {28.92913867747614, 2.87892527606019, 0};
Point(p16 + 10) = {28.703912, 2.896651, 0};
Point(p16 + 11) = {28.47868532252386, 2.87892527606019, 0};
Point(p16 + 12) = {28.25900447333168, 2.826184570392464, 0};
Point(p16 + 13) = {28.05027872400949, 2.739727534206727, 0};
Point(p16 + 14) = {27.85764759522666, 2.621683026668325, 0};
Point(p16 + 15) = {27.68585430467989, 2.474957695320113, 0};
Point(p16 + 16) = {27.53912897333167, 2.303164404773341, 0};
Point(p16 + 17) = {27.42108446579327, 2.110533275990512, 0};
Point(p16 + 18) = {27.33462742960754, 1.901807526668325, 0};
Point(p16 + 19) = {27.28188672393981, 1.682126677476138, 0};
Point(p16 + 20) = {27.264161, 1.4569, 0};
Point(p16 + 21) = {27.28188672393981, 1.231673322523863, 0};
Point(p16 + 22) = {27.33462742960754, 1.011992473331675, 0};
Point(p16 + 23) = {27.42108446579327, 0.8032667240094886, 0};
Point(p16 + 24) = {27.53912897333167, 0.6106355952266598, 0};
Point(p16 + 25) = {27.68585430467989, 0.4388423046798873, 0};
Point(p16 + 26) = {27.85764759522666, 0.2921169733316753, 0};
Point(p16 + 27) = {28.05027872400949, 0.1740724657932733, 0};
Point(p16 + 28) = {28.25900447333168, 0.08761542960753643, 0};
Point(p16 + 29) = {28.47868532252386, 0.03487472393980995, 0};
Point(p16 + 30) = {28.703912, 0.01714900000000008, 0};
Point(p16 + 31) = {28.92913867747614, 0.03487472393980995, 0};
Point(p16 + 32) = {29.14881952666832, 0.08761542960753643, 0};
Point(p16 + 33) = {29.35754527599051, 0.1740724657932733, 0};
Point(p16 + 34) = {29.55017640477334, 0.2921169733316749, 0};
Point(p16 + 35) = {29.72196969532011, 0.4388423046798868, 0};
Point(p16 + 36) = {29.86869502666832, 0.6106355952266592, 0};
Point(p16 + 37) = {29.98673953420673, 0.8032667240094876, 0};
Point(p16 + 38) = {30.07319657039246, 1.011992473331675, 0};
Point(p16 + 39) = {30.12593727606019, 1.231673322523862, 0};
Spline(16) = {12, p16 + 1, p16 + 2, p16 + 3, p16 + 4, p16 + 5, p16 + 6, p16 + 7, p16 + 8, p16 + 9, p16 + 10, p16 + 11, p16 + 12, p16 + 13, p16 + 14, p16 + 15, p16 + 16, p16 + 17, p16 + 18, p16 + 19, p16 + 20, p16 + 21, p16 + 22, p16 + 23, p16 + 24, p16 + 25, p16 + 26, p16 + 27, p16 + 28, p16 + 29, p16 + 30, p16 + 31, p16 + 32, p16 + 33, p16 + 34, p16 + 35, p16 + 36, p16 + 37, p16 + 38, p16 + 39, 12};
Line(17) = {11, 8};
Line(18) = {12, 9};
Curve Loop(1) = {-1, 4, 3, -2};
Plane Surface(1) = {1};
Curve Loop(2) = {-5, 1, 7, -6};
Plane Surface(2) = {2};
Curve Loop(3) = {-2, 7, 9, -8, -10, -11};
Plane Surface(3) = {3};
Curve Loop(4) = {-12, 3, 8, -13};
Plane Surface(4) = {4};
Curve Loop(5) = {-4, 5, 14, -12, -15, -16};
Plane Surface(5) = {5};
Curve Loop(6) = {-6, 14, 13, -9};
Plane Surface(6) = {6};
Curve Loop(7) = {-10, -17, 15, 17};
Surface(7) = {7};
Curve Loop(8) = {-11, -18, 16, 18};
Surface(8) = {8};
Surface Loop(1) = {1, 2, 3, 4, 5, 6, 7, 8};
Volume(1) = {1};
Physical Surface("INFLOW") = {1};
Physical Surface("OUTFLOW") = {6};
Physical Surface("OBSTACLE") = {7, 8};
Physical Surface("WALL_Y") = {2, 4};
Physical Surface("WALL_Z") = {3, 5};
Physical Volume("FLUID") = {1};
