cl__1 = 1.167879;
cl__2 = 1.257454;
cl__3 = 3.638405;
cl__4 = 0.106724;
Point(1) = {0.952789, -4.58386, 1, cl__1};
Point(2) = {0.952789, -4.58386, 0, cl__1};
Point(3) = {0.952789, 4.86942, 1, cl__2};
Point(4) = {0.952789, 4.86942, 0, cl__2};
Point(5) = {36.075729, -4.58386, 0, cl__3};
Point(6) = {36.075729, -4.58386, 1, cl__3};
Point(7) = {36.075729, 4.86942, 1, cl__3};
Point(8) = {14.282812, -1.10741, 1, cl__4};
Point(9) = {36.075729, 4.86942, 0, cl__3};
Point(10) = {14.282812, -1.10741, 0, cl__4};
Line(1) = {2, 1};
Line(2) = {1, 3};
Line(3) = {4, 3};
Line(4) = {2, 4};
Line(5) = {2, 5};
Line(6) = {5, 6};
Line(7) = {1, 6};
Line(8) = {3, 7};
Line(9) = {6, 7};
p10 = newp;
Point(p10 + 1) = {14.26967244305846, -0.9404560993581388, 1};
Point(p10 + 2) = {14.23057731173342, -0.7776131578383092, 1};
Point(p10 + 3) = {14.16648925790741, -0.6228909091054675, 1};
Point(p10 + 4) = {14.07898634216169, -0.4800991284171195, 1};
Point(p10 + 5) = {13.97022317668744, -0.3527538233125631, 1};
Point(p10 + 6) = {13.84287787158288, -0.2439906578383092, 1};
Point(p10 + 7) = {13.70008609089453, -0.1564877420925854, 1};
Point(p10 + 8) = {13.54536384216169, -0.09239968826657896, 1};
Point(p10 + 9) = {13.38252090064186, -0.05330455694154224, 1};
Point(p10 + 10) = {13.215567, -0.04016500000000001, 1};
Point(p10 + 11) = {13.04861309935814, -0.05330455694154224, 1};
Point(p10 + 12) = {12.88577015783831, -0.09239968826657874, 1};
Point(p10 + 13) = {12.73104790910547, -0.1564877420925853, 1};
Point(p10 + 14) = {12.58825612841712, -0.2439906578383092, 1};
Point(p10 + 15) = {12.46091082331256, -0.352753823312563, 1};
Point(p10 + 16) = {12.35214765783831, -0.4800991284171194, 1};
Point(p10 + 17) = {12.26464474209259, -0.6228909091054673, 1};
Point(p10 + 18) = {12.20055668826658, -0.7776131578383092, 1};
Point(p10 + 19) = {12.16146155694154, -0.9404560993581387, 1};
Point(p10 + 20) = {12.148322, -1.10741, 1};
Point(p10 + 21) = {12.16146155694154, -1.274363900641861, 1};
Point(p10 + 22) = {12.20055668826658, -1.437206842161691, 1};
Point(p10 + 23) = {12.26464474209259, -1.591929090894532, 1};
Point(p10 + 24) = {12.35214765783831, -1.73472087158288, 1};
Point(p10 + 25) = {12.46091082331256, -1.862066176687437, 1};
Point(p10 + 26) = {12.58825612841712, -1.970829342161691, 1};
Point(p10 + 27) = {12.73104790910547, -2.058332257907415, 1};
Point(p10 + 28) = {12.88577015783831, -2.122420311733421, 1};
Point(p10 + 29) = {13.04861309935814, -2.161515443058458, 1};
Point(p10 + 30) = {13.215567, -2.174655, 1};
Point(p10 + 31) = {13.38252090064186, -2.161515443058458, 1};
Point(p10 + 32) = {13.54536384216169, -2.122420311733421, 1};
Point(p10 + 33) = {13.70008609089453, -2.058332257907415, 1};
Point(p10 + 34) = {13.84287787158288, -1.970829342161691, 1};
Point(p10 + 35) = {13.97022317668744, -1.862066176687437, 1};
Point(p10 + 36) = {14.07898634216169, -1.734720871582881, 1};
Point(p10 + 37) = {14.16648925790741, -1.591929090894533, 1};
Point(p10 + 38) = {14.23057731173342, -1.437206842161691, 1};
Point(p10 + 39) = {14.26967244305846, -1.274363900641861, 1};
Spline(10) = {8, p10 + 1, p10 + 2, p10 + 3, p10 + 4, p10 + 5, p10 + 6, p10 + 7, p10 + 8, p10 + 9, p10 + 10, p10 + 11, p10 + 12, p10 + 13, p10 + 14, p10 + 15, p10 + 16, p10 + 17, p10 + 18, p10 + 19, p10 + 20, p10 + 21, p10 + 22, p10 + 23, p10 + 24, p10 + 25, p10 + 26, p10 + 27, p10 + 28, p10 + 29, p10 + 30, p10 + 31, p10 + 32, p10 + 33, p10 + 34, p10 + 35, p10 + 36, p10 + 37, p10 + 38, p10 + 39, 8};
Line(11) = {4, 9};
Line(12) = {9, 7};
Line(13) = {5, 9};
p14 = newp;
Point(p14 + 1) = {14.26967244305846, -0.9404560993581388, 0};
Point(p14 + 2) = {14.23057731173342, -0.7776131578383092, 0};
Point(p14 + 3) = {14.16648925790741, -0.6228909091054675, 0};
Point(p14 + 4) = {14.07898634216169, -0.4800991284171195, 0};
Point(p14 + 5) = {13.97022317668744, -0.3527538233125631, 0};
Point(p14 + 6) = {13.84287787158288, -0.2439906578383092, 0};
Point(p14 + 7) = {13.70008609089453, -0.1564877420925854, 0};
Point(p14 + 8) = {13.54536384216169, -0.09239968826657896, 0};
Point(p14 + 9) = {13.38252090064186, -0.05330455694154224, 0};
Point(p14 + 10) = {13.215567, -0.04016500000000001, 0};
Point(p14 + 11) = {13.04861309935814, -0.05330455694154224, 0};
Point(p14 + 12) = {12.88577015783831, -0.09239968826657874, 0};
Point(p14 + 13) = {12.73104790910547, -0.1564877420925853, 0};
Point(p14 + 14) = {12.58825612841712, -0.2439906578383092, 0};
Point(p14 + 15) = {12.46091082331256, -0.352753823312563, 0};
Point(p14 + 16) = {12.35214765783831, -0.4800991284171194, 0};
Point(p14 + 17) = {12.26464474209259, -0.6228909091054673, 0};
Point(p14 + 18) = {12.20055668826658, -0.7776131578383092, 0};
Point(p14 + 19) = {12.16146155694154, -0.9404560993581387, 0};
Point(p14 + 20) = {12.148322, -1.10741, 0};
Point(p14 + 21) = {12.16146155694154, -1.274363900641861, 0};
Point(p14 + 22) = {12.20055668826658, -1.437206842161691, 0};
Point(p14 + 23) = {12.26464474209259, -1.591929090894532, 0};
Point(p14 + 24) = {12.35214765783831, -1.73472087158288, 0};
Point(p14 + 25) = {12.46091082331256, -1.862066176687437, 0};
Point(p14 + 26) = {12.58825612841712, -1.970829342161691, 0};
Point(p14 + 27) = {12.73104790910547, -2.058332257907415, 0};
Point(p14 + 28) = {12.88577015783831, -2.122420311733421, 0};
Point(p14 + 29) = {13.04861309935814, -2.161515443058458, 0};
Point(p14 + 30) = {13.215567, -2.174655, 0};
Point(p14 + 31) = {13.38252090064186, -2.161515443058458, 0};
Point(p14 + 32) = {13.54536384216169, -2.122420311733421, 0};
Point(p14 + 33) = {13.70008609089453, -2.058332257907415, 0};
Point(p14 + 34) = {13.84287787158288, -1.970829342161691, 0};
Point(p14 + 35) = {13.97022317668744, -1.862066176687437, 0};
Point(p14 + 36) = {14.07898634216169, -1.734720871582881, 0};
Point(p14 + 37) = {14.16648925790741, -1.591929090894533, 0};
Point(p14 + 38) = {14.23057731173342, -1.437206842161691, 0};
Point(p14 + 39) = {14.26967244305846, -1.274363900641861, 0};
Spline(14) = {10, p14 + 1, p14 + 2, p14 + 3, p14 + 4, p14 + 5, p14 + 6, p14 + 7, p14 + 8, p14 + 9, p14 + 10, p14 + 11, p14 + 12, p14 + 13, p14 + 14, p14 + 15, p14 + 16, p14 + 17, p14 + 18, p14 + 19, p14 + 20, p14 + 21, p14 + 22, p14 + 23, p14 + 24, p14 + 25, p14 + 26, p14 + 27, p14 + 28, p14 + 29, p14 + 30, p14 + 31, p14 + 32, p14 + 33, p14 + 34, p14 + 35, p14 + 36, p14 + 37, p14 + 38, p14 + 39, 10};
Line(15) = {10, 8};
Curve Loop(1) = {-1, 4, 3, -2};
Plane Surface(1) = {1};
Curve Loop(2) = {-5, 1, 7, -6};
Plane Surface(2) = {2};
Curve Loop(3) = {-2, 7, 9, -8, -10};
Plane Surface(3) = {3};
Curve Loop(4) = {-11, 3, 8, -12};
Plane Surface(4) = {4};
Curve Loop(5) = {-4, 5, 13, -11, -14};
Plane Surface(5) = {5};
Curve Loop(6) = {-6, 13, 12, -9};
Plane Surface(6) = {6};
Curve Loop(7) = {-10, -15, 14, 15};
Surface(7) = {7};
Surface Loop(1) = {1, 2, 3, 4, 5, 6, 7};
Volume(1) = {1};
Physical Surface("INFLOW") = {1};
Physical Surface("OUTFLOW") = {6};
Physical Surface("OBSTACLE") = {7};
Physical Surface("WALL_Y") = {2, 4};
Physical Surface("WALL_Z") = {3, 5};
Physical Volume("FLUID") = {1};
