cl__1 = 1.901784;
cl__2 = 1.741039;
cl__3 = 0.782582;
cl__4 = 0.107793;
cl__5 = 0.08166;
Point(1) = {0.817034, -3.657904, 1, cl__1};
Point(2) = {0.817034, -3.657904, 0, cl__1};
Point(3) = {0.817034, 5.432428, 1, cl__2};
Point(4) = {0.817034, 5.432428, 0, cl__2};
Point(5) = {39.03256, -3.657904, 0, cl__3};
Point(6) = {39.03256, -3.657904, 1, cl__3};
Point(7) = {39.03256, 5.432428, 1, cl__2};
Point(8) = {21.814206, -1.000094, 1, cl__4};
Point(9) = {8.453967, 1.650048, 1, cl__5};
Point(10) = {39.03256, 5.432428, 0, cl__2};
Point(11) = {21.814206, -1.000094, 0, cl__4};
Point(12) = {8.453967, 1.650048, 0, cl__5};
Line(1) = {2, 1};
Line(2) = {1, 3};
Line(3) = {4, 3};
Line(4) = {2, 4};
Line(5) = {2, 5};
Line(6) = {5, 6};
Line(7) = {1, 6};
Line(8) = {3, 7};
Line(9) = {6, 7};
p10 = newp;
Point(p10 + 1) = {21.80093488066606, -0.8314684406647189, 1};
Point(p10 + 2) = {21.76144830166655, -0.6669950022364186, 1};
Point(p10 + 3) = {21.69671855362489, -0.5107235666252508, 1};
Point(p10 + 4) = {21.60833949776358, -0.3665020552111222, 1};
Point(p10 + 5) = {21.4984873197512, -0.2378816802488037, 1};
Point(p10 + 6) = {21.36986694478888, -0.1280295022364186, 1};
Point(p10 + 7) = {21.22564543337475, -0.03965044637510862, 1};
Point(p10 + 8) = {21.06937399776358, 0.02507930166655115, 1};
Point(p10 + 9) = {20.90490055933528, 0.0645658806660574, 1};
Point(p10 + 10) = {20.736275, 0.07783699999999993, 1};
Point(p10 + 11) = {20.56764944066472, 0.06456588066605717, 1};
Point(p10 + 12) = {20.40317600223642, 0.02507930166655115, 1};
Point(p10 + 13) = {20.24690456662525, -0.03965044637510851, 1};
Point(p10 + 14) = {20.10268305521112, -0.1280295022364186, 1};
Point(p10 + 15) = {19.9740626802488, -0.2378816802488036, 1};
Point(p10 + 16) = {19.86421050223642, -0.3665020552111221, 1};
Point(p10 + 17) = {19.77583144637511, -0.5107235666252505, 1};
Point(p10 + 18) = {19.71110169833345, -0.6669950022364185, 1};
Point(p10 + 19) = {19.67161511933394, -0.8314684406647188, 1};
Point(p10 + 20) = {19.658344, -1.000094, 1};
Point(p10 + 21) = {19.67161511933394, -1.168719559335281, 1};
Point(p10 + 22) = {19.71110169833345, -1.333192997763582, 1};
Point(p10 + 23) = {19.77583144637511, -1.489464433374749, 1};
Point(p10 + 24) = {19.86421050223642, -1.633685944788878, 1};
Point(p10 + 25) = {19.9740626802488, -1.762306319751196, 1};
Point(p10 + 26) = {20.10268305521112, -1.872158497763581, 1};
Point(p10 + 27) = {20.24690456662525, -1.960537553624891, 1};
Point(p10 + 28) = {20.40317600223642, -2.025267301666551, 1};
Point(p10 + 29) = {20.56764944066472, -2.064753880666057, 1};
Point(p10 + 30) = {20.736275, -2.078025, 1};
Point(p10 + 31) = {20.90490055933528, -2.064753880666057, 1};
Point(p10 + 32) = {21.06937399776358, -2.025267301666551, 1};
Point(p10 + 33) = {21.22564543337475, -1.960537553624892, 1};
Point(p10 + 34) = {21.36986694478888, -1.872158497763582, 1};
Point(p10 + 35) = {21.4984873197512, -1.762306319751197, 1};
Point(p10 + 36) = {21.60833949776358, -1.633685944788878, 1};
Point(p10 + 37) = {21.69671855362489, -1.48946443337475, 1};
Point(p10 + 38) = {21.76144830166655, -1.333192997763582, 1};
Point(p10 + 39) = {21.80093488066606, -1.168719559335281, 1};
Spline(10) = {8, p10 + 1, p10 + 2, p10 + 3, p10 + 4, p10 + 5, p10 + 6, p10 + 7, p10 + 8, p10 + 9, p10 + 10, p10 + 11, p10 + 12, p10 + 13, p10 + 14, p10 + 15, p10 + 16, p10 + 17, p10 + 18, p10 + 19, p10 + 20, p10 + 21, p10 + 22, p10 + 23, p10 + 24, p10 + 25, p10 + 26, p10 + 27, p10 + 28, p10 + 29, p10 + 30, p10 + 31, p10 + 32, p10 + 33, p10 + 34, p10 + 35, p10 + 36, p10 + 37, p10 + 38, p10 + 39, 8};
p11 = newp;
Point(p11 + 1) = {8.443913323553309, 1.777792071282922, 1};
Point(p11 + 2) = {8.413999849093589, 1.902390659572593, 1};
Point(p11 + 3) = {8.364963145639173, 2.020775734106314, 1};
Point(p11 + 4) = {8.298010659572594, 2.130032261451529, 1};
Point(p11 + 5) = {8.214790983303372, 2.227469983303372, 1};
Point(p11 + 6) = {8.117353261451528, 2.310689659572593, 1};
Point(p11 + 7) = {8.008096734106314, 2.377642145639173, 1};
Point(p11 + 8) = {7.889711659572593, 2.42667884909359, 1};
Point(p11 + 9) = {7.765113071282922, 2.456592323553308, 1};
Point(p11 + 10) = {7.637369, 2.466646, 1};
Point(p11 + 11) = {7.509624928717077, 2.456592323553308, 1};
Point(p11 + 12) = {7.385026340427406, 2.42667884909359, 1};
Point(p11 + 13) = {7.266641265893686, 2.377642145639173, 1};
Point(p11 + 14) = {7.157384738548471, 2.310689659572593, 1};
Point(p11 + 15) = {7.059947016696627, 2.227469983303372, 1};
Point(p11 + 16) = {6.976727340427407, 2.130032261451529, 1};
Point(p11 + 17) = {6.909774854360827, 2.020775734106314, 1};
Point(p11 + 18) = {6.86073815090641, 1.902390659572593, 1};
Point(p11 + 19) = {6.830824676446691, 1.777792071282922, 1};
Point(p11 + 20) = {6.820771, 1.650048, 1};
Point(p11 + 21) = {6.830824676446691, 1.522303928717078, 1};
Point(p11 + 22) = {6.86073815090641, 1.397705340427406, 1};
Point(p11 + 23) = {6.909774854360826, 1.279320265893686, 1};
Point(p11 + 24) = {6.976727340427406, 1.170063738548471, 1};
Point(p11 + 25) = {7.059947016696627, 1.072626016696628, 1};
Point(p11 + 26) = {7.157384738548471, 0.9894063404274067, 1};
Point(p11 + 27) = {7.266641265893685, 0.9224538543608272, 1};
Point(p11 + 28) = {7.385026340427406, 0.8734171509064101, 1};
Point(p11 + 29) = {7.509624928717077, 0.8435036764466917, 1};
Point(p11 + 30) = {7.637369, 0.8334499999999999, 1};
Point(p11 + 31) = {7.765113071282922, 0.8435036764466916, 1};
Point(p11 + 32) = {7.889711659572593, 0.87341715090641, 1};
Point(p11 + 33) = {8.008096734106314, 0.9224538543608271, 1};
Point(p11 + 34) = {8.117353261451528, 0.9894063404274065, 1};
Point(p11 + 35) = {8.214790983303372, 1.072626016696627, 1};
Point(p11 + 36) = {8.298010659572594, 1.170063738548471, 1};
Point(p11 + 37) = {8.364963145639173, 1.279320265893685, 1};
Point(p11 + 38) = {8.413999849093589, 1.397705340427406, 1};
Point(p11 + 39) = {8.443913323553307, 1.522303928717077, 1};
Spline(11) = {9, p11 + 1, p11 + 2, p11 + 3, p11 + 4, p11 + 5, p11 + 6, p11 + 7, p11 + 8, p11 + 9, p11 + 10, p11 + 11, p11 + 12, p11 + 13, p11 + 14, p11 + 15, p11 + 16, p11 + 17, p11 + 18, p11 + 19, p11 + 20, p11 + 21, p11 + 22, p11 + 23, p11 + 24, p11 + 25, p11 + 26, p11 + 27, p11 + 28, p11 + 29, p11 + 30, p11 + 31, p11 + 32, p11 + 33, p11 + 34, p11 + 35, p11 + 36, p11 + 37, p11 + 38, p11 + 39, 9};
Line(12) = {4, 10};
Line(13) = {10, 7};
Line(14) = {5, 10};
p15 = newp;
Point(p15 + 1) = {21.80093488066606, -0.8314684406647189, 0};
Point(p15 + 2) = {21.76144830166655, -0.6669950022364186, 0};
Point(p15 + 3) = {21.69671855362489, -0.5107235666252508, 0};
Point(p15 + 4) = {21.60833949776358, -0.3665020552111222, 0};
Point(p15 + 5) = {21.4984873197512, -0.2378816802488037, 0};
Point(p15 + 6) = {21.36986694478888, -0.1280295022364186, 0};
Point(p15 + 7) = {21.22564543337475, -0.03965044637510862, 0};
Point(p15 + 8) = {21.06937399776358, 0.02507930166655115, 0};
Point(p15 + 9) = {20.90490055933528, 0.0645658806660574, 0};
Point(p15 + 10) = {20.736275, 0.07783699999999993, 0};
Point(p15 + 11) = {20.56764944066472, 0.06456588066605717, 0};
Point(p15 + 12) = {20.40317600223642, 0.02507930166655115, 0};
Point(p15 + 13) = {20.24690456662525, -0.03965044637510851, 0};
Point(p15 + 14) = {20.10268305521112, -0.1280295022364186, 0};
Point(p15 + 15) = {19.9740626802488, -0.2378816802488036, 0};
Point(p15 + 16) = {19.86421050223642, -0.3665020552111221, 0};
Point(p15 + 17) = {19.77583144637511, -0.5107235666252505, 0};
Point(p15 + 18) = {19.71110169833345, -0.6669950022364185, 0};
Point(p15 + 19) = {19.67161511933394, -0.8314684406647188, 0};
Point(p15 + 20) = {19.658344, -1.000094, 0};
Point(p15 + 21) = {19.67161511933394, -1.168719559335281, 0};
Point(p15 + 22) = {19.71110169833345, -1.333192997763582, 0};
Point(p15 + 23) = {19.77583144637511, -1.489464433374749, 0};
Point(p15 + 24) = {19.86421050223642, -1.633685944788878, 0};
Point(p15 + 25) = {19.9740626802488, -1.762306319751196, 0};
Point(p15 + 26) = {20.10268305521112, -1.872158497763581, 0};
Point(p15 + 27) = {20.24690456662525, -1.960537553624891, 0};
Point(p15 + 28) = {20.40317600223642, -2.025267301666551, 0};
Point(p15 + 29) = {20.56764944066472, -2.064753880666057, 0};
Point(p15 + 30) = {20.736275, -2.078025, 0};
Point(p15 + 31) = {20.90490055933528, -2.064753880666057, 0};
Point(p15 + 32) = {21.06937399776358, -2.025267301666551, 0};
Point(p15 + 33) = {21.22564543337475, -1.960537553624892, 0};
Point(p15 + 34) = {21.36986694478888, -1.872158497763582, 0};
Point(p15 + 35) = {21.4984873197512, -1.762306319751197, 0};
Point(p15 + 36) = {21.60833949776358, -1.633685944788878, 0};
Point(p15 + 37) = {21.69671855362489, -1.48946443337475, 0};
Point(p15 + 38) = {21.76144830166655, -1.333192997763582, 0};
Point(p15 + 39) = {21.80093488066606, -1.168719559335281, 0};
Spline(15) = {11, p15 + 1, p15 + 2, p15 + 3, p15 + 4, p15 + 5, p15 + 6, p15 + 7, p15 + 8, p15 + 9, p15 + 10, p15 + 11, p15 + 12, p15 + 13, p15 + 14, p15 + 15, p15 + 16, p15 + 17, p15 + 18, p15 + 19, p15 + 20, p15 + 21, p15 + 22, p15 + 23, p15 + 24, p15 + 25, p15 + 26, p15 + 27, p15 + 28, p15 + 29, p15 + 30, p15 + 31, p15 + 32, p15 + 33, p15 + 34, p15 + 35, p15 + 36, p15 + 37, p15 + 38, p15 + 39, 11};
p16 = newp;
Point(p16 + 1) = {8.443913323553309, 1.777792071282922, 0};
Point(p16 + 2) = {8.413999849093589, 1.902390659572593, 0};
Point(p16 + 3) = {8.364963145639173, 2.020775734106314, 0};
Point(p16 + 4) = {8.298010659572594, 2.130032261451529, 0};
Point(p16 + 5) = {8.214790983303372, 2.227469983303372, 0};
Point(p16 + 6) = {8.117353261451528, 2.310689659572593, 0};
Point(p16 + 7) = {8.008096734106314, 2.377642145639173, 0};
Point(p16 + 8) = {7.889711659572593, 2.42667884909359, 0};
Point(p16 + 9) = {7.765113071282922, 2.456592323553308, 0};
Point(p16 + 10) = {7.637369, 2.466646, 0};
Point(p16 + 11) = {7.509624928717077, 2.456592323553308, 0};
Point(p16 + 12) = {7.385026340427406, 2.42667884909359, 0};
Point(p16 + 13) = {7.266641265893686, 2.377642145639173, 0};
Point(p16 + 14) = {7.157384738548471, 2.310689659572593, 0};
Point(p16 + 15) = {7.059947016696627, 2.227469983303372, 0};
Point(p16 + 16) = {6.976727340427407, 2.130032261451529, 0};
Point(p16 + 17) = {6.909774854360827, 2.020775734106314, 0};
Point(p16 + 18) = {6.86073815090641, 1.902390659572593, 0};
Point(p16 + 19) = {6.830824676446691, 1.777792071282922, 0};
Point(p16 + 20) = {6.820771, 1.650048, 0};
Point(p16 + 21) = {6.830824676446691, 1.522303928717078, 0};
Point(p16 + 22) = {6.86073815090641, 1.397705340427406, 0};
Point(p16 + 23) = {6.909774854360826, 1.279320265893686, 0};
Point(p16 + 24) = {6.976727340427406, 1.170063738548471, 0};
Point(p16 + 25) = {7.059947016696627, 1.072626016696628, 0};
Point(p16 + 26) = {7.157384738548471, 0.9894063404274067, 0};
Point(p16 + 27) = {7.266641265893685, 0.9224538543608272, 0};
Point(p16 + 28) = {7.385026340427406, 0.8734171509064101, 0};
Point(p16 + 29) = {7.509624928717077, 0.8435036764466917, 0};
Point(p16 + 30) = {7.637369, 0.8334499999999999, 0};
Point(p16 + 31) = {7.765113071282922, 0.8435036764466916, 0};
Point(p16 + 32) = {7.889711659572593, 0.87341715090641, 0};
Point(p16 + 33) = {8.008096734106314, 0.9224538543608271, 0};
Point(p16 + 34) = {8.117353261451528, 0.9894063404274065, 0};
Point(p16 + 35) = {8.214790983303372, 1.072626016696627, 0};
Point(p16 + 36) = {8.298010659572594, 1.170063738548471, 0};
Point(p16 + 37) = {8.364963145639173, 1.279320265893685, 0};
Point(p16 + 38) = {8.413999849093589, 1.397705340427406, 0};
Point(p16 + 39) = {8.443913323553307, 1.522303928717077, 0};
Spline(16) = {12, p16 + 1, p16 + 2, p16 + 3, p16 + 4, p16 + 5, p16 + 6, p16 + 7, p16 + 8, p16 + 9, p16 + 10, p16 + 11, p16 + 12, p16 + 13, p16 + 14, p16 + 15, p16 + 16, p16 + 17, p16 + 18, p16 + 19, p16 + 20, p16 + 21, p16 + 22, p16 + 23, p16 + 24, p16 + 25, p16 + 26, p16 + 27, p16 + 28, p16 + 29, p16 + 30, p16 + 31, p16 + 32, p16 + 33, p16 + 34, p16 + 35, p16 + 36, p16 + 37, p16 + 38, p16 + 39, 12};
Line(17) = {11, 8};
Line(18) = {12, 9};
Curve Loop(1) = {-1, 4, 3, -2};
Plane Surface(1) = {1};
Curve Loop(2) = {-5, 1, 7, -6};
Plane Surface(2) = {2};
Curve Loop(3) = {-2, 7, 9, -8, -10, -11};
Plane Surface(3) = {3};
Curve Loop(4) = {-12, 3, 8, -13};
Plane Surface(4) = {4};
Curve Loop(5) = {-4, 5, 14, -12, -15, -16};
Plane Surface(5) = {5};
Curve Loop(6) = {-6, 14, 13, -9};
Plane Surface(6) = {6};
Curve Loop(7) = {-10, -17, 15, 17};
Surface(7) = {7};
Curve Loop(8) = {-11, -18, 16, 18};
Surface(8) = {8};
Surface Loop(1) = {1, 2, 3, 4, 5, 6, 7, 8};
Volume(1) = {1};
Physical Surface("INFLOW") = {1};
Physical Surface("OUTFLOW") = {6};
Physical Surface("OBSTACLE") = {7, 8};
Physical Surface("WALL_Y") = {2, 4};
Physical Surface("WALL_Z") = {3, 5};
Physical Volume("FLUID") = {1};
