cl__1 = 1.828004;
cl__2 = 3.732414;
cl__3 = 1.836724;
cl__4 = 0.058044;
Point(1) = {0.124354, -4.239667, 1, cl__1};
Point(2) = {0.124354, -4.239667, 0, cl__1};
Point(3) = {0.124354, 5.617024, 1, cl__2};
Point(4) = {0.124354, 5.617024, 0, cl__2};
Point(5) = {36.99733699999999, -4.239667, 0, cl__3};
Point(6) = {36.99733699999999, -4.239667, 1, cl__3};
Point(7) = {36.99733699999999, 5.617024, 1, cl__2};
Point(8) = {19.09658, -0.06115900000000014, 1, cl__4};
Point(9) = {36.99733699999999, 5.617024, 0, cl__2};
Point(10) = {19.09658, -0.06115900000000014, 0, cl__4};
Line(1) = {2, 1};
Line(2) = {1, 3};
Line(3) = {4, 3};
Line(4) = {2, 4};
Line(5) = {2, 5};
Line(6) = {5, 6};
Line(7) = {1, 6};
Line(8) = {3, 7};
Line(9) = {6, 7};
p10 = newp;
Point(p10 + 1) = {19.08943379579172, 0.02964213375688169, 1};
Point(p10 + 2) = {19.06817114643139, 0.1182074422489832, 1};
Point(p10 + 3) = {19.03331560891295, 0.202356153649822, 1};
Point(p10 + 4) = {18.98572544224898, 0.2800162474111477, 1};
Point(p10 + 5) = {18.92657247428548, 0.3492754742854819, 1};
Point(p10 + 6) = {18.85731324741115, 0.4084284422489832, 1};
Point(p10 + 7) = {18.77965315364983, 0.4560186089129446, 1};
Point(p10 + 8) = {18.69550444224899, 0.4908741464313915, 1};
Point(p10 + 9) = {18.60693913375688, 0.512136795791723, 1};
Point(p10 + 10) = {18.516138, 0.5192830000000001, 1};
Point(p10 + 11) = {18.42533686624312, 0.512136795791723, 1};
Point(p10 + 12) = {18.33677155775102, 0.4908741464313915, 1};
Point(p10 + 13) = {18.25262284635018, 0.4560186089129446, 1};
Point(p10 + 14) = {18.17496275258885, 0.4084284422489832, 1};
Point(p10 + 15) = {18.10570352571452, 0.3492754742854821, 1};
Point(p10 + 16) = {18.04655055775102, 0.2800162474111477, 1};
Point(p10 + 17) = {17.99896039108706, 0.2023561536498221, 1};
Point(p10 + 18) = {17.96410485356861, 0.1182074422489833, 1};
Point(p10 + 19) = {17.94284220420828, 0.02964213375688176, 1};
Point(p10 + 20) = {17.935696, -0.06115899999999993, 1};
Point(p10 + 21) = {17.94284220420828, -0.1519601337568816, 1};
Point(p10 + 22) = {17.96410485356861, -0.2405254422489834, 1};
Point(p10 + 23) = {17.99896039108706, -0.3246741536498217, 1};
Point(p10 + 24) = {18.04655055775102, -0.4023342474111476, 1};
Point(p10 + 25) = {18.10570352571452, -0.471593474285482, 1};
Point(p10 + 26) = {18.17496275258885, -0.5307464422489832, 1};
Point(p10 + 27) = {18.25262284635018, -0.5783366089129446, 1};
Point(p10 + 28) = {18.33677155775102, -0.6131921464313915, 1};
Point(p10 + 29) = {18.42533686624312, -0.6344547957917229, 1};
Point(p10 + 30) = {18.516138, -0.641601, 1};
Point(p10 + 31) = {18.60693913375688, -0.6344547957917229, 1};
Point(p10 + 32) = {18.69550444224899, -0.6131921464313915, 1};
Point(p10 + 33) = {18.77965315364983, -0.5783366089129446, 1};
Point(p10 + 34) = {18.85731324741115, -0.5307464422489833, 1};
Point(p10 + 35) = {18.92657247428548, -0.4715934742854822, 1};
Point(p10 + 36) = {18.98572544224898, -0.4023342474111479, 1};
Point(p10 + 37) = {19.03331560891295, -0.3246741536498222, 1};
Point(p10 + 38) = {19.06817114643139, -0.2405254422489833, 1};
Point(p10 + 39) = {19.08943379579172, -0.1519601337568818, 1};
Spline(10) = {8, p10 + 1, p10 + 2, p10 + 3, p10 + 4, p10 + 5, p10 + 6, p10 + 7, p10 + 8, p10 + 9, p10 + 10, p10 + 11, p10 + 12, p10 + 13, p10 + 14, p10 + 15, p10 + 16, p10 + 17, p10 + 18, p10 + 19, p10 + 20, p10 + 21, p10 + 22, p10 + 23, p10 + 24, p10 + 25, p10 + 26, p10 + 27, p10 + 28, p10 + 29, p10 + 30, p10 + 31, p10 + 32, p10 + 33, p10 + 34, p10 + 35, p10 + 36, p10 + 37, p10 + 38, p10 + 39, 8};
Line(11) = {4, 9};
Line(12) = {9, 7};
Line(13) = {5, 9};
p14 = newp;
Point(p14 + 1) = {19.08943379579172, 0.02964213375688169, 0};
Point(p14 + 2) = {19.06817114643139, 0.1182074422489832, 0};
Point(p14 + 3) = {19.03331560891295, 0.202356153649822, 0};
Point(p14 + 4) = {18.98572544224898, 0.2800162474111477, 0};
Point(p14 + 5) = {18.92657247428548, 0.3492754742854819, 0};
Point(p14 + 6) = {18.85731324741115, 0.4084284422489832, 0};
Point(p14 + 7) = {18.77965315364983, 0.4560186089129446, 0};
Point(p14 + 8) = {18.69550444224899, 0.4908741464313915, 0};
Point(p14 + 9) = {18.60693913375688, 0.512136795791723, 0};
Point(p14 + 10) = {18.516138, 0.5192830000000001, 0};
Point(p14 + 11) = {18.42533686624312, 0.512136795791723, 0};
Point(p14 + 12) = {18.33677155775102, 0.4908741464313915, 0};
Point(p14 + 13) = {18.25262284635018, 0.4560186089129446, 0};
Point(p14 + 14) = {18.17496275258885, 0.4084284422489832, 0};
Point(p14 + 15) = {18.10570352571452, 0.3492754742854821, 0};
Point(p14 + 16) = {18.04655055775102, 0.2800162474111477, 0};
Point(p14 + 17) = {17.99896039108706, 0.2023561536498221, 0};
Point(p14 + 18) = {17.96410485356861, 0.1182074422489833, 0};
Point(p14 + 19) = {17.94284220420828, 0.02964213375688176, 0};
Point(p14 + 20) = {17.935696, -0.06115899999999993, 0};
Point(p14 + 21) = {17.94284220420828, -0.1519601337568816, 0};
Point(p14 + 22) = {17.96410485356861, -0.2405254422489834, 0};
Point(p14 + 23) = {17.99896039108706, -0.3246741536498217, 0};
Point(p14 + 24) = {18.04655055775102, -0.4023342474111476, 0};
Point(p14 + 25) = {18.10570352571452, -0.471593474285482, 0};
Point(p14 + 26) = {18.17496275258885, -0.5307464422489832, 0};
Point(p14 + 27) = {18.25262284635018, -0.5783366089129446, 0};
Point(p14 + 28) = {18.33677155775102, -0.6131921464313915, 0};
Point(p14 + 29) = {18.42533686624312, -0.6344547957917229, 0};
Point(p14 + 30) = {18.516138, -0.641601, 0};
Point(p14 + 31) = {18.60693913375688, -0.6344547957917229, 0};
Point(p14 + 32) = {18.69550444224899, -0.6131921464313915, 0};
Point(p14 + 33) = {18.77965315364983, -0.5783366089129446, 0};
Point(p14 + 34) = {18.85731324741115, -0.5307464422489833, 0};
Point(p14 + 35) = {18.92657247428548, -0.4715934742854822, 0};
Point(p14 + 36) = {18.98572544224898, -0.4023342474111479, 0};
Point(p14 + 37) = {19.03331560891295, -0.3246741536498222, 0};
Point(p14 + 38) = {19.06817114643139, -0.2405254422489833, 0};
Point(p14 + 39) = {19.08943379579172, -0.1519601337568818, 0};
Spline(14) = {10, p14 + 1, p14 + 2, p14 + 3, p14 + 4, p14 + 5, p14 + 6, p14 + 7, p14 + 8, p14 + 9, p14 + 10, p14 + 11, p14 + 12, p14 + 13, p14 + 14, p14 + 15, p14 + 16, p14 + 17, p14 + 18, p14 + 19, p14 + 20, p14 + 21, p14 + 22, p14 + 23, p14 + 24, p14 + 25, p14 + 26, p14 + 27, p14 + 28, p14 + 29, p14 + 30, p14 + 31, p14 + 32, p14 + 33, p14 + 34, p14 + 35, p14 + 36, p14 + 37, p14 + 38, p14 + 39, 10};
Line(15) = {10, 8};
Curve Loop(1) = {-1, 4, 3, -2};
Plane Surface(1) = {1};
Curve Loop(2) = {-5, 1, 7, -6};
Plane Surface(2) = {2};
Curve Loop(3) = {-2, 7, 9, -8, -10};
Plane Surface(3) = {3};
Curve Loop(4) = {-11, 3, 8, -12};
Plane Surface(4) = {4};
Curve Loop(5) = {-4, 5, 13, -11, -14};
Plane Surface(5) = {5};
Curve Loop(6) = {-6, 13, 12, -9};
Plane Surface(6) = {6};
Curve Loop(7) = {-10, -15, 14, 15};
Surface(7) = {7};
Surface Loop(1) = {1, 2, 3, 4, 5, 6, 7};
Volume(1) = {1};
Physical Surface("INFLOW") = {1};
Physical Surface("OUTFLOW") = {6};
Physical Surface("OBSTACLE") = {7};
Physical Surface("WALL_Y") = {2, 4};
Physical Surface("WALL_Z") = {3, 5};
Physical Volume("FLUID") = {1};
