cl__1 = 3.726835;
cl__2 = 0.868904;
cl__3 = 1.035922;
cl__4 = 0.05059;
Point(1) = {0.904838, -4.236836, 1, cl__1};
Point(2) = {0.904838, -4.236836, 0, cl__1};
Point(3) = {0.904838, 5.404994, 1, cl__1};
Point(4) = {0.904838, 5.404994, 0, cl__1};
Point(5) = {36.955229, -4.236836, 0, cl__2};
Point(6) = {36.955229, -4.236836, 1, cl__2};
Point(7) = {36.955229, 5.404994, 1, cl__3};
Point(8) = {28.79862, -1.153346, 1, cl__4};
Point(9) = {36.955229, 5.404994, 0, cl__3};
Point(10) = {28.79862, -1.153346, 0, cl__4};
Line(1) = {2, 1};
Line(2) = {1, 3};
Line(3) = {4, 3};
Line(4) = {2, 4};
Line(5) = {2, 5};
Line(6) = {5, 6};
Line(7) = {1, 6};
Line(8) = {3, 7};
Line(9) = {6, 7};
p10 = newp;
Point(p10 + 1) = {28.79239158075372, -1.074206429874007, 1};
Point(p10 + 2) = {28.77385968736765, -0.9970155386136916, 1};
Point(p10 + 3) = {28.7434806365608, -0.9236740221437623, 1};
Point(p10 + 4) = {28.70200246138631, -0.855987792006247, 1};
Point(p10 + 5) = {28.65044649217515, -0.7956235078248504, 1};
Point(p10 + 6) = {28.59008220799375, -0.7440675386136916, 1};
Point(p10 + 7) = {28.52239597785624, -0.7025893634392015, 1};
Point(p10 + 8) = {28.44905446138631, -0.672210312632347, 1};
Point(p10 + 9) = {28.37186357012599, -0.6536784192462821, 1};
Point(p10 + 10) = {28.292724, -0.64745, 1};
Point(p10 + 11) = {28.21358442987401, -0.6536784192462822, 1};
Point(p10 + 12) = {28.13639353861369, -0.6722103126323469, 1};
Point(p10 + 13) = {28.06305202214376, -0.7025893634392014, 1};
Point(p10 + 14) = {27.99536579200625, -0.7440675386136916, 1};
Point(p10 + 15) = {27.93500150782485, -0.7956235078248504, 1};
Point(p10 + 16) = {27.88344553861369, -0.8559877920062469, 1};
Point(p10 + 17) = {27.8419673634392, -0.9236740221437622, 1};
Point(p10 + 18) = {27.81158831263235, -0.9970155386136915, 1};
Point(p10 + 19) = {27.79305641924628, -1.074206429874007, 1};
Point(p10 + 20) = {27.786828, -1.153346, 1};
Point(p10 + 21) = {27.79305641924628, -1.232485570125992, 1};
Point(p10 + 22) = {27.81158831263235, -1.309676461386309, 1};
Point(p10 + 23) = {27.8419673634392, -1.383017977856237, 1};
Point(p10 + 24) = {27.88344553861369, -1.450704207993753, 1};
Point(p10 + 25) = {27.93500150782485, -1.51106849217515, 1};
Point(p10 + 26) = {27.99536579200625, -1.562624461386308, 1};
Point(p10 + 27) = {28.06305202214376, -1.604102636560798, 1};
Point(p10 + 28) = {28.13639353861369, -1.634481687367653, 1};
Point(p10 + 29) = {28.21358442987401, -1.653013580753718, 1};
Point(p10 + 30) = {28.292724, -1.659242, 1};
Point(p10 + 31) = {28.37186357012599, -1.653013580753718, 1};
Point(p10 + 32) = {28.44905446138631, -1.634481687367653, 1};
Point(p10 + 33) = {28.52239597785624, -1.604102636560798, 1};
Point(p10 + 34) = {28.59008220799375, -1.562624461386309, 1};
Point(p10 + 35) = {28.65044649217515, -1.51106849217515, 1};
Point(p10 + 36) = {28.70200246138631, -1.450704207993753, 1};
Point(p10 + 37) = {28.7434806365608, -1.383017977856238, 1};
Point(p10 + 38) = {28.77385968736765, -1.309676461386309, 1};
Point(p10 + 39) = {28.79239158075372, -1.232485570125993, 1};
Spline(10) = {8, p10 + 1, p10 + 2, p10 + 3, p10 + 4, p10 + 5, p10 + 6, p10 + 7, p10 + 8, p10 + 9, p10 + 10, p10 + 11, p10 + 12, p10 + 13, p10 + 14, p10 + 15, p10 + 16, p10 + 17, p10 + 18, p10 + 19, p10 + 20, p10 + 21, p10 + 22, p10 + 23, p10 + 24, p10 + 25, p10 + 26, p10 + 27, p10 + 28, p10 + 29, p10 + 30, p10 + 31, p10 + 32, p10 + 33, p10 + 34, p10 + 35, p10 + 36, p10 + 37, p10 + 38, p10 + 39, 8};
Line(11) = {4, 9};
Line(12) = {9, 7};
Line(13) = {5, 9};
p14 = newp;
Point(p14 + 1) = {28.79239158075372, -1.074206429874007, 0};
Point(p14 + 2) = {28.77385968736765, -0.9970155386136916, 0};
Point(p14 + 3) = {28.7434806365608, -0.9236740221437623, 0};
Point(p14 + 4) = {28.70200246138631, -0.855987792006247, 0};
Point(p14 + 5) = {28.65044649217515, -0.7956235078248504, 0};
Point(p14 + 6) = {28.59008220799375, -0.7440675386136916, 0};
Point(p14 + 7) = {28.52239597785624, -0.7025893634392015, 0};
Point(p14 + 8) = {28.44905446138631, -0.672210312632347, 0};
Point(p14 + 9) = {28.37186357012599, -0.6536784192462821, 0};
Point(p14 + 10) = {28.292724, -0.64745, 0};
Point(p14 + 11) = {28.21358442987401, -0.6536784192462822, 0};
Point(p14 + 12) = {28.13639353861369, -0.6722103126323469, 0};
Point(p14 + 13) = {28.06305202214376, -0.7025893634392014, 0};
Point(p14 + 14) = {27.99536579200625, -0.7440675386136916, 0};
Point(p14 + 15) = {27.93500150782485, -0.7956235078248504, 0};
Point(p14 + 16) = {27.88344553861369, -0.8559877920062469, 0};
Point(p14 + 17) = {27.8419673634392, -0.9236740221437622, 0};
Point(p14 + 18) = {27.81158831263235, -0.9970155386136915, 0};
Point(p14 + 19) = {27.79305641924628, -1.074206429874007, 0};
Point(p14 + 20) = {27.786828, -1.153346, 0};
Point(p14 + 21) = {27.79305641924628, -1.232485570125992, 0};
Point(p14 + 22) = {27.81158831263235, -1.309676461386309, 0};
Point(p14 + 23) = {27.8419673634392, -1.383017977856237, 0};
Point(p14 + 24) = {27.88344553861369, -1.450704207993753, 0};
Point(p14 + 25) = {27.93500150782485, -1.51106849217515, 0};
Point(p14 + 26) = {27.99536579200625, -1.562624461386308, 0};
Point(p14 + 27) = {28.06305202214376, -1.604102636560798, 0};
Point(p14 + 28) = {28.13639353861369, -1.634481687367653, 0};
Point(p14 + 29) = {28.21358442987401, -1.653013580753718, 0};
Point(p14 + 30) = {28.292724, -1.659242, 0};
Point(p14 + 31) = {28.37186357012599, -1.653013580753718, 0};
Point(p14 + 32) = {28.44905446138631, -1.634481687367653, 0};
Point(p14 + 33) = {28.52239597785624, -1.604102636560798, 0};
Point(p14 + 34) = {28.59008220799375, -1.562624461386309, 0};
Point(p14 + 35) = {28.65044649217515, -1.51106849217515, 0};
Point(p14 + 36) = {28.70200246138631, -1.450704207993753, 0};
Point(p14 + 37) = {28.7434806365608, -1.383017977856238, 0};
Point(p14 + 38) = {28.77385968736765, -1.309676461386309, 0};
Point(p14 + 39) = {28.79239158075372, -1.232485570125993, 0};
Spline(14) = {10, p14 + 1, p14 + 2, p14 + 3, p14 + 4, p14 + 5, p14 + 6, p14 + 7, p14 + 8, p14 + 9, p14 + 10, p14 + 11, p14 + 12, p14 + 13, p14 + 14, p14 + 15, p14 + 16, p14 + 17, p14 + 18, p14 + 19, p14 + 20, p14 + 21, p14 + 22, p14 + 23, p14 + 24, p14 + 25, p14 + 26, p14 + 27, p14 + 28, p14 + 29, p14 + 30, p14 + 31, p14 + 32, p14 + 33, p14 + 34, p14 + 35, p14 + 36, p14 + 37, p14 + 38, p14 + 39, 10};
Line(15) = {10, 8};
Curve Loop(1) = {-1, 4, 3, -2};
Plane Surface(1) = {1};
Curve Loop(2) = {-5, 1, 7, -6};
Plane Surface(2) = {2};
Curve Loop(3) = {-2, 7, 9, -8, -10};
Plane Surface(3) = {3};
Curve Loop(4) = {-11, 3, 8, -12};
Plane Surface(4) = {4};
Curve Loop(5) = {-4, 5, 13, -11, -14};
Plane Surface(5) = {5};
Curve Loop(6) = {-6, 13, 12, -9};
Plane Surface(6) = {6};
Curve Loop(7) = {-10, -15, 14, 15};
Surface(7) = {7};
Surface Loop(1) = {1, 2, 3, 4, 5, 6, 7};
Volume(1) = {1};
Physical Surface("INFLOW") = {1};
Physical Surface("OUTFLOW") = {6};
Physical Surface("OBSTACLE") = {7};
Physical Surface("WALL_Y") = {2, 4};
Physical Surface("WALL_Z") = {3, 5};
Physical Volume("FLUID") = {1};
