cl__1 = 1;
cl__2 = 0.076998;
cl__3 = 0.061773;
Point(1) = {0.153127, -3.431204, 1, cl__1};
Point(2) = {0.153127, -3.431204, 0, cl__1};
Point(3) = {0.153127, 4.821587, 1, cl__1};
Point(4) = {0.153127, 4.821587, 0, cl__1};
Point(5) = {36.303113, -3.431204, 0, cl__1};
Point(6) = {36.303113, -3.431204, 1, cl__1};
Point(7) = {36.303113, 4.821587, 1, cl__1};
Point(8) = {24.790461, 1.340938, 1, cl__2};
Point(9) = {4.426447999999999, 1.805432, 1, cl__3};
Point(10) = {36.303113, 4.821587, 0, cl__1};
Point(11) = {24.790461, 1.340938, 0, cl__2};
Point(12) = {4.426447999999999, 1.805432, 0, cl__3};
Line(1) = {2, 1};
Line(2) = {1, 3};
Line(3) = {4, 3};
Line(4) = {2, 4};
Line(5) = {2, 5};
Line(6) = {5, 6};
Line(7) = {1, 6};
Line(8) = {3, 7};
Line(9) = {6, 7};
p10 = newp;
Point(p10 + 1) = {24.78098130542642, 1.461388940088282, 1};
Point(p10 + 2) = {24.75277564324739, 1.578873978277839, 1};
Point(p10 + 3) = {24.70653853047499, 1.690500243017957, 1};
Point(p10 + 4) = {24.64340847827784, 1.793519125204402, 1};
Point(p10 + 5) = {24.56493995805767, 1.885393958057674, 1};
Point(p10 + 6) = {24.4730651252044, 1.963862478277839, 1};
Point(p10 + 7) = {24.37004624301796, 2.026992530474987, 1};
Point(p10 + 8) = {24.25841997827784, 2.073229643247394, 1};
Point(p10 + 9) = {24.14093494008828, 2.101435305426422, 1};
Point(p10 + 10) = {24.020484, 2.110915, 1};
Point(p10 + 11) = {23.90003305991172, 2.101435305426422, 1};
Point(p10 + 12) = {23.78254802172216, 2.073229643247394, 1};
Point(p10 + 13) = {23.67092175698204, 2.026992530474987, 1};
Point(p10 + 14) = {23.5679028747956, 1.963862478277839, 1};
Point(p10 + 15) = {23.47602804194232, 1.885393958057674, 1};
Point(p10 + 16) = {23.39755952172216, 1.793519125204402, 1};
Point(p10 + 17) = {23.33442946952501, 1.690500243017957, 1};
Point(p10 + 18) = {23.28819235675261, 1.578873978277839, 1};
Point(p10 + 19) = {23.25998669457358, 1.461388940088282, 1};
Point(p10 + 20) = {23.250507, 1.340938, 1};
Point(p10 + 21) = {23.25998669457358, 1.220487059911718, 1};
Point(p10 + 22) = {23.28819235675261, 1.103002021722161, 1};
Point(p10 + 23) = {23.33442946952501, 0.9913757569820434, 1};
Point(p10 + 24) = {23.39755952172216, 0.8883568747955984, 1};
Point(p10 + 25) = {23.47602804194232, 0.7964820419423257, 1};
Point(p10 + 26) = {23.5679028747956, 0.7180135217221612, 1};
Point(p10 + 27) = {23.67092175698204, 0.6548834695250131, 1};
Point(p10 + 28) = {23.78254802172216, 0.6086463567526065, 1};
Point(p10 + 29) = {23.90003305991172, 0.5804406945735776, 1};
Point(p10 + 30) = {24.020484, 0.5709609999999999, 1};
Point(p10 + 31) = {24.14093494008828, 0.5804406945735775, 1};
Point(p10 + 32) = {24.25841997827784, 0.6086463567526065, 1};
Point(p10 + 33) = {24.37004624301796, 0.654883469525013, 1};
Point(p10 + 34) = {24.4730651252044, 0.7180135217221609, 1};
Point(p10 + 35) = {24.56493995805767, 0.7964820419423255, 1};
Point(p10 + 36) = {24.64340847827784, 0.8883568747955982, 1};
Point(p10 + 37) = {24.70653853047499, 0.9913757569820427, 1};
Point(p10 + 38) = {24.75277564324739, 1.103002021722161, 1};
Point(p10 + 39) = {24.78098130542642, 1.220487059911718, 1};
Spline(10) = {8, p10 + 1, p10 + 2, p10 + 3, p10 + 4, p10 + 5, p10 + 6, p10 + 7, p10 + 8, p10 + 9, p10 + 10, p10 + 11, p10 + 12, p10 + 13, p10 + 14, p10 + 15, p10 + 16, p10 + 17, p10 + 18, p10 + 19, p10 + 20, p10 + 21, p10 + 22, p10 + 23, p10 + 24, p10 + 25, p10 + 26, p10 + 27, p10 + 28, p10 + 29, p10 + 30, p10 + 31, p10 + 32, p10 + 33, p10 + 34, p10 + 35, p10 + 36, p10 + 37, p10 + 38, p10 + 39, 8};
p11 = newp;
Point(p11 + 1) = {4.418842657077537, 1.902067044261627, 1};
Point(p11 + 2) = {4.396213897093586, 1.996322613020208, 1};
Point(p11 + 3) = {4.359118915219502, 2.085877821356609, 1};
Point(p11 + 4) = {4.308471113020208, 2.168527522824891, 1};
Point(p11 + 5) = {4.245517607476272, 2.242236607476272, 1};
Point(p11 + 6) = {4.171808522824891, 2.305190113020208, 1};
Point(p11 + 7) = {4.089158821356609, 2.355837915219501, 1};
Point(p11 + 8) = {3.999603613020208, 2.392932897093587, 1};
Point(p11 + 9) = {3.905348044261627, 2.415561657077538, 1};
Point(p11 + 10) = {3.808713, 2.423167, 1};
Point(p11 + 11) = {3.712077955738373, 2.415561657077538, 1};
Point(p11 + 12) = {3.617822386979792, 2.392932897093587, 1};
Point(p11 + 13) = {3.528267178643391, 2.355837915219501, 1};
Point(p11 + 14) = {3.445617477175109, 2.305190113020208, 1};
Point(p11 + 15) = {3.371908392523728, 2.242236607476272, 1};
Point(p11 + 16) = {3.308954886979792, 2.168527522824891, 1};
Point(p11 + 17) = {3.258307084780498, 2.085877821356609, 1};
Point(p11 + 18) = {3.221212102906414, 1.996322613020208, 1};
Point(p11 + 19) = {3.198583342922463, 1.902067044261627, 1};
Point(p11 + 20) = {3.190978, 1.805432, 1};
Point(p11 + 21) = {3.198583342922463, 1.708796955738373, 1};
Point(p11 + 22) = {3.221212102906414, 1.614541386979792, 1};
Point(p11 + 23) = {3.258307084780498, 1.524986178643391, 1};
Point(p11 + 24) = {3.308954886979792, 1.442336477175109, 1};
Point(p11 + 25) = {3.371908392523728, 1.368627392523728, 1};
Point(p11 + 26) = {3.445617477175109, 1.305673886979792, 1};
Point(p11 + 27) = {3.528267178643391, 1.255026084780499, 1};
Point(p11 + 28) = {3.617822386979792, 1.217931102906413, 1};
Point(p11 + 29) = {3.712077955738373, 1.195302342922463, 1};
Point(p11 + 30) = {3.808713, 1.187697, 1};
Point(p11 + 31) = {3.905348044261627, 1.195302342922463, 1};
Point(p11 + 32) = {3.999603613020208, 1.217931102906413, 1};
Point(p11 + 33) = {4.089158821356609, 1.255026084780499, 1};
Point(p11 + 34) = {4.17180852282489, 1.305673886979792, 1};
Point(p11 + 35) = {4.245517607476271, 1.368627392523728, 1};
Point(p11 + 36) = {4.308471113020208, 1.442336477175109, 1};
Point(p11 + 37) = {4.359118915219502, 1.524986178643391, 1};
Point(p11 + 38) = {4.396213897093586, 1.614541386979792, 1};
Point(p11 + 39) = {4.418842657077537, 1.708796955738373, 1};
Spline(11) = {9, p11 + 1, p11 + 2, p11 + 3, p11 + 4, p11 + 5, p11 + 6, p11 + 7, p11 + 8, p11 + 9, p11 + 10, p11 + 11, p11 + 12, p11 + 13, p11 + 14, p11 + 15, p11 + 16, p11 + 17, p11 + 18, p11 + 19, p11 + 20, p11 + 21, p11 + 22, p11 + 23, p11 + 24, p11 + 25, p11 + 26, p11 + 27, p11 + 28, p11 + 29, p11 + 30, p11 + 31, p11 + 32, p11 + 33, p11 + 34, p11 + 35, p11 + 36, p11 + 37, p11 + 38, p11 + 39, 9};
Line(12) = {4, 10};
Line(13) = {10, 7};
Line(14) = {5, 10};
p15 = newp;
Point(p15 + 1) = {24.78098130542642, 1.461388940088282, 0};
Point(p15 + 2) = {24.75277564324739, 1.578873978277839, 0};
Point(p15 + 3) = {24.70653853047499, 1.690500243017957, 0};
Point(p15 + 4) = {24.64340847827784, 1.793519125204402, 0};
Point(p15 + 5) = {24.56493995805767, 1.885393958057674, 0};
Point(p15 + 6) = {24.4730651252044, 1.963862478277839, 0};
Point(p15 + 7) = {24.37004624301796, 2.026992530474987, 0};
Point(p15 + 8) = {24.25841997827784, 2.073229643247394, 0};
Point(p15 + 9) = {24.14093494008828, 2.101435305426422, 0};
Point(p15 + 10) = {24.020484, 2.110915, 0};
Point(p15 + 11) = {23.90003305991172, 2.101435305426422, 0};
Point(p15 + 12) = {23.78254802172216, 2.073229643247394, 0};
Point(p15 + 13) = {23.67092175698204, 2.026992530474987, 0};
Point(p15 + 14) = {23.5679028747956, 1.963862478277839, 0};
Point(p15 + 15) = {23.47602804194232, 1.885393958057674, 0};
Point(p15 + 16) = {23.39755952172216, 1.793519125204402, 0};
Point(p15 + 17) = {23.33442946952501, 1.690500243017957, 0};
Point(p15 + 18) = {23.28819235675261, 1.578873978277839, 0};
Point(p15 + 19) = {23.25998669457358, 1.461388940088282, 0};
Point(p15 + 20) = {23.250507, 1.340938, 0};
Point(p15 + 21) = {23.25998669457358, 1.220487059911718, 0};
Point(p15 + 22) = {23.28819235675261, 1.103002021722161, 0};
Point(p15 + 23) = {23.33442946952501, 0.9913757569820434, 0};
Point(p15 + 24) = {23.39755952172216, 0.8883568747955984, 0};
Point(p15 + 25) = {23.47602804194232, 0.7964820419423257, 0};
Point(p15 + 26) = {23.5679028747956, 0.7180135217221612, 0};
Point(p15 + 27) = {23.67092175698204, 0.6548834695250131, 0};
Point(p15 + 28) = {23.78254802172216, 0.6086463567526065, 0};
Point(p15 + 29) = {23.90003305991172, 0.5804406945735776, 0};
Point(p15 + 30) = {24.020484, 0.5709609999999999, 0};
Point(p15 + 31) = {24.14093494008828, 0.5804406945735775, 0};
Point(p15 + 32) = {24.25841997827784, 0.6086463567526065, 0};
Point(p15 + 33) = {24.37004624301796, 0.654883469525013, 0};
Point(p15 + 34) = {24.4730651252044, 0.7180135217221609, 0};
Point(p15 + 35) = {24.56493995805767, 0.7964820419423255, 0};
Point(p15 + 36) = {24.64340847827784, 0.8883568747955982, 0};
Point(p15 + 37) = {24.70653853047499, 0.9913757569820427, 0};
Point(p15 + 38) = {24.75277564324739, 1.103002021722161, 0};
Point(p15 + 39) = {24.78098130542642, 1.220487059911718, 0};
Spline(15) = {11, p15 + 1, p15 + 2, p15 + 3, p15 + 4, p15 + 5, p15 + 6, p15 + 7, p15 + 8, p15 + 9, p15 + 10, p15 + 11, p15 + 12, p15 + 13, p15 + 14, p15 + 15, p15 + 16, p15 + 17, p15 + 18, p15 + 19, p15 + 20, p15 + 21, p15 + 22, p15 + 23, p15 + 24, p15 + 25, p15 + 26, p15 + 27, p15 + 28, p15 + 29, p15 + 30, p15 + 31, p15 + 32, p15 + 33, p15 + 34, p15 + 35, p15 + 36, p15 + 37, p15 + 38, p15 + 39, 11};
p16 = newp;
Point(p16 + 1) = {4.418842657077537, 1.902067044261627, 0};
Point(p16 + 2) = {4.396213897093586, 1.996322613020208, 0};
Point(p16 + 3) = {4.359118915219502, 2.085877821356609, 0};
Point(p16 + 4) = {4.308471113020208, 2.168527522824891, 0};
Point(p16 + 5) = {4.245517607476272, 2.242236607476272, 0};
Point(p16 + 6) = {4.171808522824891, 2.305190113020208, 0};
Point(p16 + 7) = {4.089158821356609, 2.355837915219501, 0};
Point(p16 + 8) = {3.999603613020208, 2.392932897093587, 0};
Point(p16 + 9) = {3.905348044261627, 2.415561657077538, 0};
Point(p16 + 10) = {3.808713, 2.423167, 0};
Point(p16 + 11) = {3.712077955738373, 2.415561657077538, 0};
Point(p16 + 12) = {3.617822386979792, 2.392932897093587, 0};
Point(p16 + 13) = {3.528267178643391, 2.355837915219501, 0};
Point(p16 + 14) = {3.445617477175109, 2.305190113020208, 0};
Point(p16 + 15) = {3.371908392523728, 2.242236607476272, 0};
Point(p16 + 16) = {3.308954886979792, 2.168527522824891, 0};
Point(p16 + 17) = {3.258307084780498, 2.085877821356609, 0};
Point(p16 + 18) = {3.221212102906414, 1.996322613020208, 0};
Point(p16 + 19) = {3.198583342922463, 1.902067044261627, 0};
Point(p16 + 20) = {3.190978, 1.805432, 0};
Point(p16 + 21) = {3.198583342922463, 1.708796955738373, 0};
Point(p16 + 22) = {3.221212102906414, 1.614541386979792, 0};
Point(p16 + 23) = {3.258307084780498, 1.524986178643391, 0};
Point(p16 + 24) = {3.308954886979792, 1.442336477175109, 0};
Point(p16 + 25) = {3.371908392523728, 1.368627392523728, 0};
Point(p16 + 26) = {3.445617477175109, 1.305673886979792, 0};
Point(p16 + 27) = {3.528267178643391, 1.255026084780499, 0};
Point(p16 + 28) = {3.617822386979792, 1.217931102906413, 0};
Point(p16 + 29) = {3.712077955738373, 1.195302342922463, 0};
Point(p16 + 30) = {3.808713, 1.187697, 0};
Point(p16 + 31) = {3.905348044261627, 1.195302342922463, 0};
Point(p16 + 32) = {3.999603613020208, 1.217931102906413, 0};
Point(p16 + 33) = {4.089158821356609, 1.255026084780499, 0};
Point(p16 + 34) = {4.17180852282489, 1.305673886979792, 0};
Point(p16 + 35) = {4.245517607476271, 1.368627392523728, 0};
Point(p16 + 36) = {4.308471113020208, 1.442336477175109, 0};
Point(p16 + 37) = {4.359118915219502, 1.524986178643391, 0};
Point(p16 + 38) = {4.396213897093586, 1.614541386979792, 0};
Point(p16 + 39) = {4.418842657077537, 1.708796955738373, 0};
Spline(16) = {12, p16 + 1, p16 + 2, p16 + 3, p16 + 4, p16 + 5, p16 + 6, p16 + 7, p16 + 8, p16 + 9, p16 + 10, p16 + 11, p16 + 12, p16 + 13, p16 + 14, p16 + 15, p16 + 16, p16 + 17, p16 + 18, p16 + 19, p16 + 20, p16 + 21, p16 + 22, p16 + 23, p16 + 24, p16 + 25, p16 + 26, p16 + 27, p16 + 28, p16 + 29, p16 + 30, p16 + 31, p16 + 32, p16 + 33, p16 + 34, p16 + 35, p16 + 36, p16 + 37, p16 + 38, p16 + 39, 12};
Line(17) = {11, 8};
Line(18) = {12, 9};
Curve Loop(1) = {-1, 4, 3, -2};
Plane Surface(1) = {1};
Curve Loop(2) = {-5, 1, 7, -6};
Plane Surface(2) = {2};
Curve Loop(3) = {-2, 7, 9, -8, -10, -11};
Plane Surface(3) = {3};
Curve Loop(4) = {-12, 3, 8, -13};
Plane Surface(4) = {4};
Curve Loop(5) = {-4, 5, 14, -12, -15, -16};
Plane Surface(5) = {5};
Curve Loop(6) = {-6, 14, 13, -9};
Plane Surface(6) = {6};
Curve Loop(7) = {-10, -17, 15, 17};
Surface(7) = {7};
Curve Loop(8) = {-11, -18, 16, 18};
Surface(8) = {8};
Surface Loop(1) = {1, 2, 3, 4, 5, 6, 7, 8};
Volume(1) = {1};
Physical Surface("INFLOW") = {1};
Physical Surface("OUTFLOW") = {6};
Physical Surface("OBSTACLE") = {7, 8};
Physical Surface("WALL_Y") = {2, 4};
Physical Surface("WALL_Z") = {3, 5};
Physical Volume("FLUID") = {1};
