cl__1 = 1.147361;
cl__2 = 1.075459;
cl__3 = 3.334084;
cl__4 = 0.14799;
Point(1) = {0.53234, -4.060946, 1, cl__1};
Point(2) = {0.53234, -4.060946, 0, cl__1};
Point(3) = {0.53234, 5.478426, 1, cl__2};
Point(4) = {0.53234, 5.478426, 0, cl__2};
Point(5) = {32.997906, -4.060946, 0, cl__3};
Point(6) = {32.997906, -4.060946, 1, cl__3};
Point(7) = {32.997906, 5.478426, 1, cl__3};
Point(8) = {13.634934, 1.658004, 1, cl__4};
Point(9) = {32.997906, 5.478426, 0, cl__3};
Point(10) = {13.634934, 1.658004, 0, cl__4};
Line(1) = {2, 1};
Line(2) = {1, 3};
Line(3) = {4, 3};
Line(4) = {2, 4};
Line(5) = {2, 5};
Line(6) = {5, 6};
Line(7) = {1, 6};
Line(8) = {3, 7};
Line(9) = {6, 7};
p10 = newp;
Point(p10 + 1) = {13.61671399987006, 1.889511051944108, 1};
Point(p10 + 2) = {13.56250263635217, 2.115317631941496, 1};
Point(p10 + 3) = {13.47363477313332, 2.329863632583556, 1};
Point(p10 + 4) = {13.3522986319415, 2.527866219297127, 1};
Point(p10 + 5) = {13.20148191126441, 2.704449911264409, 1};
Point(p10 + 6) = {13.02489821929713, 2.855266631941496, 1};
Point(p10 + 7) = {12.82689563258356, 2.976602773133317, 1};
Point(p10 + 8) = {12.6123496319415, 3.065470636352165, 1};
Point(p10 + 9) = {12.38654305194411, 3.119681999870063, 1};
Point(p10 + 10) = {12.155036, 3.137902, 1};
Point(p10 + 11) = {11.92352894805589, 3.119681999870063, 1};
Point(p10 + 12) = {11.69772236805851, 3.065470636352165, 1};
Point(p10 + 13) = {11.48317636741645, 2.976602773133317, 1};
Point(p10 + 14) = {11.28517378070288, 2.855266631941496, 1};
Point(p10 + 15) = {11.10859008873559, 2.704449911264409, 1};
Point(p10 + 16) = {10.9577733680585, 2.527866219297127, 1};
Point(p10 + 17) = {10.83643722686668, 2.329863632583556, 1};
Point(p10 + 18) = {10.74756936364784, 2.115317631941496, 1};
Point(p10 + 19) = {10.69335800012994, 1.889511051944108, 1};
Point(p10 + 20) = {10.675138, 1.658004, 1};
Point(p10 + 21) = {10.69335800012994, 1.426496948055893, 1};
Point(p10 + 22) = {10.74756936364784, 1.200690368058504, 1};
Point(p10 + 23) = {10.83643722686668, 0.9861443674164451, 1};
Point(p10 + 24) = {10.9577733680585, 0.7881417807028738, 1};
Point(p10 + 25) = {11.10859008873559, 0.6115580887355909, 1};
Point(p10 + 26) = {11.28517378070288, 0.4607413680585042, 1};
Point(p10 + 27) = {11.48317636741644, 0.339405226866683, 1};
Point(p10 + 28) = {11.69772236805851, 0.250537363647835, 1};
Point(p10 + 29) = {11.92352894805589, 0.1963260001299372, 1};
Point(p10 + 30) = {12.155036, 0.1781060000000001, 1};
Point(p10 + 31) = {12.38654305194411, 0.196326000129937, 1};
Point(p10 + 32) = {12.6123496319415, 0.2505373636478347, 1};
Point(p10 + 33) = {12.82689563258356, 0.3394052268666827, 1};
Point(p10 + 34) = {13.02489821929713, 0.460741368058504, 1};
Point(p10 + 35) = {13.20148191126441, 0.6115580887355905, 1};
Point(p10 + 36) = {13.3522986319415, 0.7881417807028733, 1};
Point(p10 + 37) = {13.47363477313332, 0.986144367416444, 1};
Point(p10 + 38) = {13.56250263635217, 1.200690368058504, 1};
Point(p10 + 39) = {13.61671399987006, 1.426496948055892, 1};
Spline(10) = {8, p10 + 1, p10 + 2, p10 + 3, p10 + 4, p10 + 5, p10 + 6, p10 + 7, p10 + 8, p10 + 9, p10 + 10, p10 + 11, p10 + 12, p10 + 13, p10 + 14, p10 + 15, p10 + 16, p10 + 17, p10 + 18, p10 + 19, p10 + 20, p10 + 21, p10 + 22, p10 + 23, p10 + 24, p10 + 25, p10 + 26, p10 + 27, p10 + 28, p10 + 29, p10 + 30, p10 + 31, p10 + 32, p10 + 33, p10 + 34, p10 + 35, p10 + 36, p10 + 37, p10 + 38, p10 + 39, 8};
Line(11) = {4, 9};
Line(12) = {9, 7};
Line(13) = {5, 9};
p14 = newp;
Point(p14 + 1) = {13.61671399987006, 1.889511051944108, 0};
Point(p14 + 2) = {13.56250263635217, 2.115317631941496, 0};
Point(p14 + 3) = {13.47363477313332, 2.329863632583556, 0};
Point(p14 + 4) = {13.3522986319415, 2.527866219297127, 0};
Point(p14 + 5) = {13.20148191126441, 2.704449911264409, 0};
Point(p14 + 6) = {13.02489821929713, 2.855266631941496, 0};
Point(p14 + 7) = {12.82689563258356, 2.976602773133317, 0};
Point(p14 + 8) = {12.6123496319415, 3.065470636352165, 0};
Point(p14 + 9) = {12.38654305194411, 3.119681999870063, 0};
Point(p14 + 10) = {12.155036, 3.137902, 0};
Point(p14 + 11) = {11.92352894805589, 3.119681999870063, 0};
Point(p14 + 12) = {11.69772236805851, 3.065470636352165, 0};
Point(p14 + 13) = {11.48317636741645, 2.976602773133317, 0};
Point(p14 + 14) = {11.28517378070288, 2.855266631941496, 0};
Point(p14 + 15) = {11.10859008873559, 2.704449911264409, 0};
Point(p14 + 16) = {10.9577733680585, 2.527866219297127, 0};
Point(p14 + 17) = {10.83643722686668, 2.329863632583556, 0};
Point(p14 + 18) = {10.74756936364784, 2.115317631941496, 0};
Point(p14 + 19) = {10.69335800012994, 1.889511051944108, 0};
Point(p14 + 20) = {10.675138, 1.658004, 0};
Point(p14 + 21) = {10.69335800012994, 1.426496948055893, 0};
Point(p14 + 22) = {10.74756936364784, 1.200690368058504, 0};
Point(p14 + 23) = {10.83643722686668, 0.9861443674164451, 0};
Point(p14 + 24) = {10.9577733680585, 0.7881417807028738, 0};
Point(p14 + 25) = {11.10859008873559, 0.6115580887355909, 0};
Point(p14 + 26) = {11.28517378070288, 0.4607413680585042, 0};
Point(p14 + 27) = {11.48317636741644, 0.339405226866683, 0};
Point(p14 + 28) = {11.69772236805851, 0.250537363647835, 0};
Point(p14 + 29) = {11.92352894805589, 0.1963260001299372, 0};
Point(p14 + 30) = {12.155036, 0.1781060000000001, 0};
Point(p14 + 31) = {12.38654305194411, 0.196326000129937, 0};
Point(p14 + 32) = {12.6123496319415, 0.2505373636478347, 0};
Point(p14 + 33) = {12.82689563258356, 0.3394052268666827, 0};
Point(p14 + 34) = {13.02489821929713, 0.460741368058504, 0};
Point(p14 + 35) = {13.20148191126441, 0.6115580887355905, 0};
Point(p14 + 36) = {13.3522986319415, 0.7881417807028733, 0};
Point(p14 + 37) = {13.47363477313332, 0.986144367416444, 0};
Point(p14 + 38) = {13.56250263635217, 1.200690368058504, 0};
Point(p14 + 39) = {13.61671399987006, 1.426496948055892, 0};
Spline(14) = {10, p14 + 1, p14 + 2, p14 + 3, p14 + 4, p14 + 5, p14 + 6, p14 + 7, p14 + 8, p14 + 9, p14 + 10, p14 + 11, p14 + 12, p14 + 13, p14 + 14, p14 + 15, p14 + 16, p14 + 17, p14 + 18, p14 + 19, p14 + 20, p14 + 21, p14 + 22, p14 + 23, p14 + 24, p14 + 25, p14 + 26, p14 + 27, p14 + 28, p14 + 29, p14 + 30, p14 + 31, p14 + 32, p14 + 33, p14 + 34, p14 + 35, p14 + 36, p14 + 37, p14 + 38, p14 + 39, 10};
Line(15) = {10, 8};
Curve Loop(1) = {-1, 4, 3, -2};
Plane Surface(1) = {1};
Curve Loop(2) = {-5, 1, 7, -6};
Plane Surface(2) = {2};
Curve Loop(3) = {-2, 7, 9, -8, -10};
Plane Surface(3) = {3};
Curve Loop(4) = {-11, 3, 8, -12};
Plane Surface(4) = {4};
Curve Loop(5) = {-4, 5, 13, -11, -14};
Plane Surface(5) = {5};
Curve Loop(6) = {-6, 13, 12, -9};
Plane Surface(6) = {6};
Curve Loop(7) = {-10, -15, 14, 15};
Surface(7) = {7};
Surface Loop(1) = {1, 2, 3, 4, 5, 6, 7};
Volume(1) = {1};
Physical Surface("INFLOW") = {1};
Physical Surface("OUTFLOW") = {6};
Physical Surface("OBSTACLE") = {7};
Physical Surface("WALL_Y") = {2, 4};
Physical Surface("WALL_Z") = {3, 5};
Physical Volume("FLUID") = {1};
