cl__1 = 1.20905;
cl__2 = 3.727019;
cl__3 = 0.06300699999999999;
cl__4 = 0.060593;
Point(1) = {0.318485, -3.962528, 1, cl__1};
Point(2) = {0.318485, -3.962528, 0, cl__1};
Point(3) = {0.318485, 4.245641, 1, cl__2};
Point(4) = {0.318485, 4.245641, 0, cl__2};
Point(5) = {37.043537, -3.962528, 0, cl__1};
Point(6) = {37.043537, -3.962528, 1, cl__1};
Point(7) = {37.043537, 4.245641, 1, cl__2};
Point(8) = {13.178161, -0.4625500000000002, 1, cl__3};
Point(9) = {18.043638, 1.4405, 1, cl__4};
Point(10) = {37.043537, 4.245641, 0, cl__2};
Point(11) = {13.178161, -0.4625500000000002, 0, cl__3};
Point(12) = {18.043638, 1.4405, 0, cl__4};
Line(1) = {2, 1};
Line(2) = {1, 3};
Line(3) = {4, 3};
Line(4) = {2, 4};
Line(5) = {2, 5};
Line(6) = {5, 6};
Line(7) = {1, 6};
Line(8) = {3, 7};
Line(9) = {6, 7};
p10 = newp;
Point(p10 + 1) = {13.17040374351214, -0.3639847108742416, 1};
Point(p10 + 2) = {13.14732298344815, -0.2678464262861994, 1};
Point(p10 + 3) = {13.10948704472146, -0.1765023898671048, 1};
Point(p10 + 4) = {13.0578275737138, -0.09220179494707226, 1};
Point(p10 + 5) = {12.99361659804933, -0.01702040195066729, 1};
Point(p10 + 6) = {12.91843520505293, 0.04719057371380064, 1};
Point(p10 + 7) = {12.8341346101329, 0.09885004472146164, 1};
Point(p10 + 8) = {12.7427905737138, 0.1366859834481525, 1};
Point(p10 + 9) = {12.64665228912576, 0.1597667435121408, 1};
Point(p10 + 10) = {12.548087, 0.167524, 1};
Point(p10 + 11) = {12.44952171087424, 0.1597667435121408, 1};
Point(p10 + 12) = {12.3533834262862, 0.1366859834481526, 1};
Point(p10 + 13) = {12.26203938986711, 0.09885004472146175, 1};
Point(p10 + 14) = {12.17773879494707, 0.04719057371380064, 1};
Point(p10 + 15) = {12.10255740195067, -0.01702040195066723, 1};
Point(p10 + 16) = {12.0383464262862, -0.0922017949470722, 1};
Point(p10 + 17) = {11.98668695527854, -0.1765023898671048, 1};
Point(p10 + 18) = {11.94885101655185, -0.2678464262861994, 1};
Point(p10 + 19) = {11.92577025648786, -0.3639847108742415, 1};
Point(p10 + 20) = {11.918013, -0.46255, 1};
Point(p10 + 21) = {11.92577025648786, -0.5611152891257584, 1};
Point(p10 + 22) = {11.94885101655185, -0.6572535737138008, 1};
Point(p10 + 23) = {11.98668695527854, -0.7485976101328948, 1};
Point(p10 + 24) = {12.0383464262862, -0.8328982050529277, 1};
Point(p10 + 25) = {12.10255740195067, -0.9080795980493328, 1};
Point(p10 + 26) = {12.17773879494707, -0.9722905737138006, 1};
Point(p10 + 27) = {12.26203938986711, -1.023950044721462, 1};
Point(p10 + 28) = {12.3533834262862, -1.061785983448153, 1};
Point(p10 + 29) = {12.44952171087424, -1.084866743512141, 1};
Point(p10 + 30) = {12.548087, -1.092624, 1};
Point(p10 + 31) = {12.64665228912576, -1.084866743512141, 1};
Point(p10 + 32) = {12.7427905737138, -1.061785983448153, 1};
Point(p10 + 33) = {12.8341346101329, -1.023950044721462, 1};
Point(p10 + 34) = {12.91843520505293, -0.9722905737138008, 1};
Point(p10 + 35) = {12.99361659804933, -0.9080795980493328, 1};
Point(p10 + 36) = {13.0578275737138, -0.8328982050529279, 1};
Point(p10 + 37) = {13.10948704472146, -0.7485976101328953, 1};
Point(p10 + 38) = {13.14732298344815, -0.6572535737138008, 1};
Point(p10 + 39) = {13.17040374351214, -0.5611152891257586, 1};
Spline(10) = {8, p10 + 1, p10 + 2, p10 + 3, p10 + 4, p10 + 5, p10 + 6, p10 + 7, p10 + 8, p10 + 9, p10 + 10, p10 + 11, p10 + 12, p10 + 13, p10 + 14, p10 + 15, p10 + 16, p10 + 17, p10 + 18, p10 + 19, p10 + 20, p10 + 21, p10 + 22, p10 + 23, p10 + 24, p10 + 25, p10 + 26, p10 + 27, p10 + 28, p10 + 29, p10 + 30, p10 + 31, p10 + 32, p10 + 33, p10 + 34, p10 + 35, p10 + 36, p10 + 37, p10 + 38, p10 + 39, 8};
p11 = newp;
Point(p11 + 1) = {18.03617803315179, 1.535287866098432, 1};
Point(p11 + 2) = {18.01398182174917, 1.627741740350629, 1};
Point(p11 + 3) = {17.97759591018189, 1.715585101535684, 1};
Point(p11 + 4) = {17.92791624035063, 1.796654954565821, 1};
Point(p11 + 5) = {17.86616609060402, 1.868955090604021, 1};
Point(p11 + 6) = {17.79386595456582, 1.930705240350629, 1};
Point(p11 + 7) = {17.71279610153568, 1.980384910181885, 1};
Point(p11 + 8) = {17.62495274035063, 2.016770821749173, 1};
Point(p11 + 9) = {17.53249886609843, 2.03896703315179, 1};
Point(p11 + 10) = {17.437711, 2.046427, 1};
Point(p11 + 11) = {17.34292313390157, 2.03896703315179, 1};
Point(p11 + 12) = {17.25046925964937, 2.016770821749173, 1};
Point(p11 + 13) = {17.16262589846432, 1.980384910181885, 1};
Point(p11 + 14) = {17.08155604543418, 1.930705240350629, 1};
Point(p11 + 15) = {17.00925590939598, 1.868955090604021, 1};
Point(p11 + 16) = {16.94750575964937, 1.796654954565821, 1};
Point(p11 + 17) = {16.89782608981811, 1.715585101535684, 1};
Point(p11 + 18) = {16.86144017825083, 1.627741740350629, 1};
Point(p11 + 19) = {16.83924396684821, 1.535287866098432, 1};
Point(p11 + 20) = {16.831784, 1.4405, 1};
Point(p11 + 21) = {16.83924396684821, 1.345712133901568, 1};
Point(p11 + 22) = {16.86144017825083, 1.253258259649371, 1};
Point(p11 + 23) = {16.89782608981811, 1.165414898464316, 1};
Point(p11 + 24) = {16.94750575964937, 1.084345045434179, 1};
Point(p11 + 25) = {17.00925590939598, 1.012044909395979, 1};
Point(p11 + 26) = {17.08155604543418, 0.9502947596493712, 1};
Point(p11 + 27) = {17.16262589846432, 0.9006150898181148, 1};
Point(p11 + 28) = {17.25046925964937, 0.8642291782508265, 1};
Point(p11 + 29) = {17.34292313390157, 0.8420329668482099, 1};
Point(p11 + 30) = {17.437711, 0.8345729999999999, 1};
Point(p11 + 31) = {17.53249886609843, 0.8420329668482098, 1};
Point(p11 + 32) = {17.62495274035063, 0.8642291782508263, 1};
Point(p11 + 33) = {17.71279610153568, 0.9006150898181147, 1};
Point(p11 + 34) = {17.79386595456582, 0.950294759649371, 1};
Point(p11 + 35) = {17.86616609060402, 1.012044909395979, 1};
Point(p11 + 36) = {17.92791624035063, 1.084345045434178, 1};
Point(p11 + 37) = {17.97759591018189, 1.165414898464315, 1};
Point(p11 + 38) = {18.01398182174917, 1.253258259649371, 1};
Point(p11 + 39) = {18.03617803315179, 1.345712133901568, 1};
Spline(11) = {9, p11 + 1, p11 + 2, p11 + 3, p11 + 4, p11 + 5, p11 + 6, p11 + 7, p11 + 8, p11 + 9, p11 + 10, p11 + 11, p11 + 12, p11 + 13, p11 + 14, p11 + 15, p11 + 16, p11 + 17, p11 + 18, p11 + 19, p11 + 20, p11 + 21, p11 + 22, p11 + 23, p11 + 24, p11 + 25, p11 + 26, p11 + 27, p11 + 28, p11 + 29, p11 + 30, p11 + 31, p11 + 32, p11 + 33, p11 + 34, p11 + 35, p11 + 36, p11 + 37, p11 + 38, p11 + 39, 9};
Line(12) = {4, 10};
Line(13) = {10, 7};
Line(14) = {5, 10};
p15 = newp;
Point(p15 + 1) = {13.17040374351214, -0.3639847108742416, 0};
Point(p15 + 2) = {13.14732298344815, -0.2678464262861994, 0};
Point(p15 + 3) = {13.10948704472146, -0.1765023898671048, 0};
Point(p15 + 4) = {13.0578275737138, -0.09220179494707226, 0};
Point(p15 + 5) = {12.99361659804933, -0.01702040195066729, 0};
Point(p15 + 6) = {12.91843520505293, 0.04719057371380064, 0};
Point(p15 + 7) = {12.8341346101329, 0.09885004472146164, 0};
Point(p15 + 8) = {12.7427905737138, 0.1366859834481525, 0};
Point(p15 + 9) = {12.64665228912576, 0.1597667435121408, 0};
Point(p15 + 10) = {12.548087, 0.167524, 0};
Point(p15 + 11) = {12.44952171087424, 0.1597667435121408, 0};
Point(p15 + 12) = {12.3533834262862, 0.1366859834481526, 0};
Point(p15 + 13) = {12.26203938986711, 0.09885004472146175, 0};
Point(p15 + 14) = {12.17773879494707, 0.04719057371380064, 0};
Point(p15 + 15) = {12.10255740195067, -0.01702040195066723, 0};
Point(p15 + 16) = {12.0383464262862, -0.0922017949470722, 0};
Point(p15 + 17) = {11.98668695527854, -0.1765023898671048, 0};
Point(p15 + 18) = {11.94885101655185, -0.2678464262861994, 0};
Point(p15 + 19) = {11.92577025648786, -0.3639847108742415, 0};
Point(p15 + 20) = {11.918013, -0.46255, 0};
Point(p15 + 21) = {11.92577025648786, -0.5611152891257584, 0};
Point(p15 + 22) = {11.94885101655185, -0.6572535737138008, 0};
Point(p15 + 23) = {11.98668695527854, -0.7485976101328948, 0};
Point(p15 + 24) = {12.0383464262862, -0.8328982050529277, 0};
Point(p15 + 25) = {12.10255740195067, -0.9080795980493328, 0};
Point(p15 + 26) = {12.17773879494707, -0.9722905737138006, 0};
Point(p15 + 27) = {12.26203938986711, -1.023950044721462, 0};
Point(p15 + 28) = {12.3533834262862, -1.061785983448153, 0};
Point(p15 + 29) = {12.44952171087424, -1.084866743512141, 0};
Point(p15 + 30) = {12.548087, -1.092624, 0};
Point(p15 + 31) = {12.64665228912576, -1.084866743512141, 0};
Point(p15 + 32) = {12.7427905737138, -1.061785983448153, 0};
Point(p15 + 33) = {12.8341346101329, -1.023950044721462, 0};
Point(p15 + 34) = {12.91843520505293, -0.9722905737138008, 0};
Point(p15 + 35) = {12.99361659804933, -0.9080795980493328, 0};
Point(p15 + 36) = {13.0578275737138, -0.8328982050529279, 0};
Point(p15 + 37) = {13.10948704472146, -0.7485976101328953, 0};
Point(p15 + 38) = {13.14732298344815, -0.6572535737138008, 0};
Point(p15 + 39) = {13.17040374351214, -0.5611152891257586, 0};
Spline(15) = {11, p15 + 1, p15 + 2, p15 + 3, p15 + 4, p15 + 5, p15 + 6, p15 + 7, p15 + 8, p15 + 9, p15 + 10, p15 + 11, p15 + 12, p15 + 13, p15 + 14, p15 + 15, p15 + 16, p15 + 17, p15 + 18, p15 + 19, p15 + 20, p15 + 21, p15 + 22, p15 + 23, p15 + 24, p15 + 25, p15 + 26, p15 + 27, p15 + 28, p15 + 29, p15 + 30, p15 + 31, p15 + 32, p15 + 33, p15 + 34, p15 + 35, p15 + 36, p15 + 37, p15 + 38, p15 + 39, 11};
p16 = newp;
Point(p16 + 1) = {18.03617803315179, 1.535287866098432, 0};
Point(p16 + 2) = {18.01398182174917, 1.627741740350629, 0};
Point(p16 + 3) = {17.97759591018189, 1.715585101535684, 0};
Point(p16 + 4) = {17.92791624035063, 1.796654954565821, 0};
Point(p16 + 5) = {17.86616609060402, 1.868955090604021, 0};
Point(p16 + 6) = {17.79386595456582, 1.930705240350629, 0};
Point(p16 + 7) = {17.71279610153568, 1.980384910181885, 0};
Point(p16 + 8) = {17.62495274035063, 2.016770821749173, 0};
Point(p16 + 9) = {17.53249886609843, 2.03896703315179, 0};
Point(p16 + 10) = {17.437711, 2.046427, 0};
Point(p16 + 11) = {17.34292313390157, 2.03896703315179, 0};
Point(p16 + 12) = {17.25046925964937, 2.016770821749173, 0};
Point(p16 + 13) = {17.16262589846432, 1.980384910181885, 0};
Point(p16 + 14) = {17.08155604543418, 1.930705240350629, 0};
Point(p16 + 15) = {17.00925590939598, 1.868955090604021, 0};
Point(p16 + 16) = {16.94750575964937, 1.796654954565821, 0};
Point(p16 + 17) = {16.89782608981811, 1.715585101535684, 0};
Point(p16 + 18) = {16.86144017825083, 1.627741740350629, 0};
Point(p16 + 19) = {16.83924396684821, 1.535287866098432, 0};
Point(p16 + 20) = {16.831784, 1.4405, 0};
Point(p16 + 21) = {16.83924396684821, 1.345712133901568, 0};
Point(p16 + 22) = {16.86144017825083, 1.253258259649371, 0};
Point(p16 + 23) = {16.89782608981811, 1.165414898464316, 0};
Point(p16 + 24) = {16.94750575964937, 1.084345045434179, 0};
Point(p16 + 25) = {17.00925590939598, 1.012044909395979, 0};
Point(p16 + 26) = {17.08155604543418, 0.9502947596493712, 0};
Point(p16 + 27) = {17.16262589846432, 0.9006150898181148, 0};
Point(p16 + 28) = {17.25046925964937, 0.8642291782508265, 0};
Point(p16 + 29) = {17.34292313390157, 0.8420329668482099, 0};
Point(p16 + 30) = {17.437711, 0.8345729999999999, 0};
Point(p16 + 31) = {17.53249886609843, 0.8420329668482098, 0};
Point(p16 + 32) = {17.62495274035063, 0.8642291782508263, 0};
Point(p16 + 33) = {17.71279610153568, 0.9006150898181147, 0};
Point(p16 + 34) = {17.79386595456582, 0.950294759649371, 0};
Point(p16 + 35) = {17.86616609060402, 1.012044909395979, 0};
Point(p16 + 36) = {17.92791624035063, 1.084345045434178, 0};
Point(p16 + 37) = {17.97759591018189, 1.165414898464315, 0};
Point(p16 + 38) = {18.01398182174917, 1.253258259649371, 0};
Point(p16 + 39) = {18.03617803315179, 1.345712133901568, 0};
Spline(16) = {12, p16 + 1, p16 + 2, p16 + 3, p16 + 4, p16 + 5, p16 + 6, p16 + 7, p16 + 8, p16 + 9, p16 + 10, p16 + 11, p16 + 12, p16 + 13, p16 + 14, p16 + 15, p16 + 16, p16 + 17, p16 + 18, p16 + 19, p16 + 20, p16 + 21, p16 + 22, p16 + 23, p16 + 24, p16 + 25, p16 + 26, p16 + 27, p16 + 28, p16 + 29, p16 + 30, p16 + 31, p16 + 32, p16 + 33, p16 + 34, p16 + 35, p16 + 36, p16 + 37, p16 + 38, p16 + 39, 12};
Line(17) = {11, 8};
Line(18) = {12, 9};
Curve Loop(1) = {-1, 4, 3, -2};
Plane Surface(1) = {1};
Curve Loop(2) = {-5, 1, 7, -6};
Plane Surface(2) = {2};
Curve Loop(3) = {-2, 7, 9, -8, -10, -11};
Plane Surface(3) = {3};
Curve Loop(4) = {-12, 3, 8, -13};
Plane Surface(4) = {4};
Curve Loop(5) = {-4, 5, 14, -12, -15, -16};
Plane Surface(5) = {5};
Curve Loop(6) = {-6, 14, 13, -9};
Plane Surface(6) = {6};
Curve Loop(7) = {-10, -17, 15, 17};
Surface(7) = {7};
Curve Loop(8) = {-11, -18, 16, 18};
Surface(8) = {8};
Surface Loop(1) = {1, 2, 3, 4, 5, 6, 7, 8};
Volume(1) = {1};
Physical Surface("INFLOW") = {1};
Physical Surface("OUTFLOW") = {6};
Physical Surface("OBSTACLE") = {7, 8};
Physical Surface("WALL_Y") = {2, 4};
Physical Surface("WALL_Z") = {3, 5};
Physical Volume("FLUID") = {1};
