cl__1 = 3.184035;
cl__2 = 1.158355;
cl__3 = 0.986224;
cl__4 = 0.135234;
Point(1) = {0.409979, -3.682082, 1, cl__1};
Point(2) = {0.409979, -3.682082, 0, cl__1};
Point(3) = {0.409979, 4.991645, 1, cl__1};
Point(4) = {0.409979, 4.991645, 0, cl__1};
Point(5) = {31.543613, -3.682082, 0, cl__2};
Point(6) = {31.543613, -3.682082, 1, cl__2};
Point(7) = {31.543613, 4.991645, 1, cl__3};
Point(8) = {21.850536, 3.051115999999999, 1, cl__4};
Point(9) = {31.543613, 4.991645, 0, cl__3};
Point(10) = {21.850536, 3.051115999999999, 0, cl__4};
Line(1) = {2, 1};
Line(2) = {1, 3};
Line(3) = {4, 3};
Line(4) = {2, 4};
Line(5) = {2, 5};
Line(6) = {5, 6};
Line(7) = {1, 6};
Line(8) = {3, 7};
Line(9) = {6, 7};
p10 = newp;
Point(p10 + 1) = {21.83388643820877, 3.262668740886971, 1};
Point(p10 + 2) = {21.7843477203031, 3.469012351190011, 1};
Point(p10 + 3) = {21.70313965392742, 3.665065966408278, 1};
Point(p10 + 4) = {21.59226185119001, 3.846002095870455, 1};
Point(p10 + 5) = {21.4544444915766, 4.007365491576596, 1};
Point(p10 + 6) = {21.29308109587046, 4.145182851190011, 1};
Point(p10 + 7) = {21.11214496640828, 4.256060653927421, 1};
Point(p10 + 8) = {20.91609135119001, 4.337268720303104, 1};
Point(p10 + 9) = {20.70974774088697, 4.386807438208769, 1};
Point(p10 + 10) = {20.498195, 4.403457, 1};
Point(p10 + 11) = {20.28664225911303, 4.386807438208769, 1};
Point(p10 + 12) = {20.08029864880999, 4.337268720303104, 1};
Point(p10 + 13) = {19.88424503359172, 4.256060653927421, 1};
Point(p10 + 14) = {19.70330890412954, 4.145182851190011, 1};
Point(p10 + 15) = {19.5419455084234, 4.007365491576596, 1};
Point(p10 + 16) = {19.40412814880999, 3.846002095870455, 1};
Point(p10 + 17) = {19.29325034607258, 3.665065966408279, 1};
Point(p10 + 18) = {19.2120422796969, 3.469012351190011, 1};
Point(p10 + 19) = {19.16250356179123, 3.262668740886971, 1};
Point(p10 + 20) = {19.145854, 3.051116, 1};
Point(p10 + 21) = {19.16250356179123, 2.839563259113029, 1};
Point(p10 + 22) = {19.2120422796969, 2.633219648809989, 1};
Point(p10 + 23) = {19.29325034607258, 2.437166033591722, 1};
Point(p10 + 24) = {19.40412814880999, 2.256229904129545, 1};
Point(p10 + 25) = {19.5419455084234, 2.094866508423403, 1};
Point(p10 + 26) = {19.70330890412954, 1.957049148809989, 1};
Point(p10 + 27) = {19.88424503359172, 1.846171346072578, 1};
Point(p10 + 28) = {20.08029864880999, 1.764963279696896, 1};
Point(p10 + 29) = {20.28664225911303, 1.715424561791231, 1};
Point(p10 + 30) = {20.498195, 1.698775, 1};
Point(p10 + 31) = {20.70974774088697, 1.715424561791231, 1};
Point(p10 + 32) = {20.91609135119001, 1.764963279696895, 1};
Point(p10 + 33) = {21.11214496640828, 1.846171346072578, 1};
Point(p10 + 34) = {21.29308109587046, 1.957049148809989, 1};
Point(p10 + 35) = {21.4544444915766, 2.094866508423403, 1};
Point(p10 + 36) = {21.59226185119001, 2.256229904129544, 1};
Point(p10 + 37) = {21.70313965392742, 2.437166033591721, 1};
Point(p10 + 38) = {21.7843477203031, 2.633219648809989, 1};
Point(p10 + 39) = {21.83388643820877, 2.839563259113029, 1};
Spline(10) = {8, p10 + 1, p10 + 2, p10 + 3, p10 + 4, p10 + 5, p10 + 6, p10 + 7, p10 + 8, p10 + 9, p10 + 10, p10 + 11, p10 + 12, p10 + 13, p10 + 14, p10 + 15, p10 + 16, p10 + 17, p10 + 18, p10 + 19, p10 + 20, p10 + 21, p10 + 22, p10 + 23, p10 + 24, p10 + 25, p10 + 26, p10 + 27, p10 + 28, p10 + 29, p10 + 30, p10 + 31, p10 + 32, p10 + 33, p10 + 34, p10 + 35, p10 + 36, p10 + 37, p10 + 38, p10 + 39, 8};
Line(11) = {4, 9};
Line(12) = {9, 7};
Line(13) = {5, 9};
p14 = newp;
Point(p14 + 1) = {21.83388643820877, 3.262668740886971, 0};
Point(p14 + 2) = {21.7843477203031, 3.469012351190011, 0};
Point(p14 + 3) = {21.70313965392742, 3.665065966408278, 0};
Point(p14 + 4) = {21.59226185119001, 3.846002095870455, 0};
Point(p14 + 5) = {21.4544444915766, 4.007365491576596, 0};
Point(p14 + 6) = {21.29308109587046, 4.145182851190011, 0};
Point(p14 + 7) = {21.11214496640828, 4.256060653927421, 0};
Point(p14 + 8) = {20.91609135119001, 4.337268720303104, 0};
Point(p14 + 9) = {20.70974774088697, 4.386807438208769, 0};
Point(p14 + 10) = {20.498195, 4.403457, 0};
Point(p14 + 11) = {20.28664225911303, 4.386807438208769, 0};
Point(p14 + 12) = {20.08029864880999, 4.337268720303104, 0};
Point(p14 + 13) = {19.88424503359172, 4.256060653927421, 0};
Point(p14 + 14) = {19.70330890412954, 4.145182851190011, 0};
Point(p14 + 15) = {19.5419455084234, 4.007365491576596, 0};
Point(p14 + 16) = {19.40412814880999, 3.846002095870455, 0};
Point(p14 + 17) = {19.29325034607258, 3.665065966408279, 0};
Point(p14 + 18) = {19.2120422796969, 3.469012351190011, 0};
Point(p14 + 19) = {19.16250356179123, 3.262668740886971, 0};
Point(p14 + 20) = {19.145854, 3.051116, 0};
Point(p14 + 21) = {19.16250356179123, 2.839563259113029, 0};
Point(p14 + 22) = {19.2120422796969, 2.633219648809989, 0};
Point(p14 + 23) = {19.29325034607258, 2.437166033591722, 0};
Point(p14 + 24) = {19.40412814880999, 2.256229904129545, 0};
Point(p14 + 25) = {19.5419455084234, 2.094866508423403, 0};
Point(p14 + 26) = {19.70330890412954, 1.957049148809989, 0};
Point(p14 + 27) = {19.88424503359172, 1.846171346072578, 0};
Point(p14 + 28) = {20.08029864880999, 1.764963279696896, 0};
Point(p14 + 29) = {20.28664225911303, 1.715424561791231, 0};
Point(p14 + 30) = {20.498195, 1.698775, 0};
Point(p14 + 31) = {20.70974774088697, 1.715424561791231, 0};
Point(p14 + 32) = {20.91609135119001, 1.764963279696895, 0};
Point(p14 + 33) = {21.11214496640828, 1.846171346072578, 0};
Point(p14 + 34) = {21.29308109587046, 1.957049148809989, 0};
Point(p14 + 35) = {21.4544444915766, 2.094866508423403, 0};
Point(p14 + 36) = {21.59226185119001, 2.256229904129544, 0};
Point(p14 + 37) = {21.70313965392742, 2.437166033591721, 0};
Point(p14 + 38) = {21.7843477203031, 2.633219648809989, 0};
Point(p14 + 39) = {21.83388643820877, 2.839563259113029, 0};
Spline(14) = {10, p14 + 1, p14 + 2, p14 + 3, p14 + 4, p14 + 5, p14 + 6, p14 + 7, p14 + 8, p14 + 9, p14 + 10, p14 + 11, p14 + 12, p14 + 13, p14 + 14, p14 + 15, p14 + 16, p14 + 17, p14 + 18, p14 + 19, p14 + 20, p14 + 21, p14 + 22, p14 + 23, p14 + 24, p14 + 25, p14 + 26, p14 + 27, p14 + 28, p14 + 29, p14 + 30, p14 + 31, p14 + 32, p14 + 33, p14 + 34, p14 + 35, p14 + 36, p14 + 37, p14 + 38, p14 + 39, 10};
Line(15) = {10, 8};
Curve Loop(1) = {-1, 4, 3, -2};
Plane Surface(1) = {1};
Curve Loop(2) = {-5, 1, 7, -6};
Plane Surface(2) = {2};
Curve Loop(3) = {-2, 7, 9, -8, -10};
Plane Surface(3) = {3};
Curve Loop(4) = {-11, 3, 8, -12};
Plane Surface(4) = {4};
Curve Loop(5) = {-4, 5, 13, -11, -14};
Plane Surface(5) = {5};
Curve Loop(6) = {-6, 13, 12, -9};
Plane Surface(6) = {6};
Curve Loop(7) = {-10, -15, 14, 15};
Surface(7) = {7};
Surface Loop(1) = {1, 2, 3, 4, 5, 6, 7};
Volume(1) = {1};
Physical Surface("INFLOW") = {1};
Physical Surface("OUTFLOW") = {6};
Physical Surface("OBSTACLE") = {7};
Physical Surface("WALL_Y") = {2, 4};
Physical Surface("WALL_Z") = {3, 5};
Physical Volume("FLUID") = {1};
