cl__1 = 0.465002;
cl__2 = 0.60585;
cl__3 = 3.061157;
cl__4 = 0.055028;
Point(1) = {0.39402, -3.989045, 1, cl__1};
Point(2) = {0.39402, -3.989045, 0, cl__1};
Point(3) = {0.39402, 5.117829, 1, cl__2};
Point(4) = {0.39402, 5.117829, 0, cl__2};
Point(5) = {30.27102, -3.989045, 0, cl__3};
Point(6) = {30.27102, -3.989045, 1, cl__3};
Point(7) = {30.27102, 5.117829, 1, cl__3};
Point(8) = {4.658047, -0.3488070000000001, 1, cl__4};
Point(9) = {30.27102, 5.117829, 0, cl__3};
Point(10) = {4.658047, -0.3488070000000001, 0, cl__4};
Line(1) = {2, 1};
Line(2) = {1, 3};
Line(3) = {4, 3};
Line(4) = {2, 4};
Line(5) = {2, 5};
Line(6) = {5, 6};
Line(7) = {1, 6};
Line(8) = {3, 7};
Line(9) = {6, 7};
p10 = newp;
Point(p10 + 1) = {4.651272078504396, -0.2627234604053366, 1};
Point(p10 + 2) = {4.631114135069478, -0.178759583250382, 1};
Point(p10 + 3) = {4.598069525162996, -0.09898283785082349, 1};
Point(p10 + 4) = {4.552951916749618, -0.0253575924422364, 1};
Point(p10 + 5) = {4.49687225508524, 0.0403032550852393, 1};
Point(p10 + 6) = {4.431211407557764, 0.09638291674961802, 1};
Point(p10 + 7) = {4.357586162149176, 0.141500525162996, 1};
Point(p10 + 8) = {4.277809416749618, 0.1745451350694786, 1};
Point(p10 + 9) = {4.193845539594664, 0.1947030785043954, 1};
Point(p10 + 10) = {4.107762, 0.201478, 1};
Point(p10 + 11) = {4.021678460405337, 0.1947030785043954, 1};
Point(p10 + 12) = {3.937714583250382, 0.1745451350694787, 1};
Point(p10 + 13) = {3.857937837850824, 0.141500525162996, 1};
Point(p10 + 14) = {3.784312592442237, 0.09638291674961802, 1};
Point(p10 + 15) = {3.718651744914761, 0.04030325508523935, 1};
Point(p10 + 16) = {3.662572083250382, -0.02535759244223634, 1};
Point(p10 + 17) = {3.617454474837004, -0.09898283785082343, 1};
Point(p10 + 18) = {3.584409864930522, -0.178759583250382, 1};
Point(p10 + 19) = {3.564251921495605, -0.2627234604053365, 1};
Point(p10 + 20) = {3.557477, -0.3488069999999999, 1};
Point(p10 + 21) = {3.564251921495605, -0.4348905395946633, 1};
Point(p10 + 22) = {3.584409864930522, -0.5188544167496181, 1};
Point(p10 + 23) = {3.617454474837004, -0.5986311621491762, 1};
Point(p10 + 24) = {3.662572083250382, -0.6722564075577635, 1};
Point(p10 + 25) = {3.718651744914761, -0.7379172550852393, 1};
Point(p10 + 26) = {3.784312592442237, -0.7939969167496179, 1};
Point(p10 + 27) = {3.857937837850824, -0.8391145251629959, 1};
Point(p10 + 28) = {3.937714583250382, -0.8721591350694785, 1};
Point(p10 + 29) = {4.021678460405337, -0.8923170785043953, 1};
Point(p10 + 30) = {4.107762, -0.899092, 1};
Point(p10 + 31) = {4.193845539594664, -0.8923170785043953, 1};
Point(p10 + 32) = {4.277809416749618, -0.8721591350694786, 1};
Point(p10 + 33) = {4.357586162149176, -0.839114525162996, 1};
Point(p10 + 34) = {4.431211407557764, -0.793996916749618, 1};
Point(p10 + 35) = {4.49687225508524, -0.7379172550852393, 1};
Point(p10 + 36) = {4.552951916749618, -0.6722564075577637, 1};
Point(p10 + 37) = {4.598069525162996, -0.5986311621491766, 1};
Point(p10 + 38) = {4.631114135069478, -0.5188544167496181, 1};
Point(p10 + 39) = {4.651272078504396, -0.4348905395946636, 1};
Spline(10) = {8, p10 + 1, p10 + 2, p10 + 3, p10 + 4, p10 + 5, p10 + 6, p10 + 7, p10 + 8, p10 + 9, p10 + 10, p10 + 11, p10 + 12, p10 + 13, p10 + 14, p10 + 15, p10 + 16, p10 + 17, p10 + 18, p10 + 19, p10 + 20, p10 + 21, p10 + 22, p10 + 23, p10 + 24, p10 + 25, p10 + 26, p10 + 27, p10 + 28, p10 + 29, p10 + 30, p10 + 31, p10 + 32, p10 + 33, p10 + 34, p10 + 35, p10 + 36, p10 + 37, p10 + 38, p10 + 39, 8};
Line(11) = {4, 9};
Line(12) = {9, 7};
Line(13) = {5, 9};
p14 = newp;
Point(p14 + 1) = {4.651272078504396, -0.2627234604053366, 0};
Point(p14 + 2) = {4.631114135069478, -0.178759583250382, 0};
Point(p14 + 3) = {4.598069525162996, -0.09898283785082349, 0};
Point(p14 + 4) = {4.552951916749618, -0.0253575924422364, 0};
Point(p14 + 5) = {4.49687225508524, 0.0403032550852393, 0};
Point(p14 + 6) = {4.431211407557764, 0.09638291674961802, 0};
Point(p14 + 7) = {4.357586162149176, 0.141500525162996, 0};
Point(p14 + 8) = {4.277809416749618, 0.1745451350694786, 0};
Point(p14 + 9) = {4.193845539594664, 0.1947030785043954, 0};
Point(p14 + 10) = {4.107762, 0.201478, 0};
Point(p14 + 11) = {4.021678460405337, 0.1947030785043954, 0};
Point(p14 + 12) = {3.937714583250382, 0.1745451350694787, 0};
Point(p14 + 13) = {3.857937837850824, 0.141500525162996, 0};
Point(p14 + 14) = {3.784312592442237, 0.09638291674961802, 0};
Point(p14 + 15) = {3.718651744914761, 0.04030325508523935, 0};
Point(p14 + 16) = {3.662572083250382, -0.02535759244223634, 0};
Point(p14 + 17) = {3.617454474837004, -0.09898283785082343, 0};
Point(p14 + 18) = {3.584409864930522, -0.178759583250382, 0};
Point(p14 + 19) = {3.564251921495605, -0.2627234604053365, 0};
Point(p14 + 20) = {3.557477, -0.3488069999999999, 0};
Point(p14 + 21) = {3.564251921495605, -0.4348905395946633, 0};
Point(p14 + 22) = {3.584409864930522, -0.5188544167496181, 0};
Point(p14 + 23) = {3.617454474837004, -0.5986311621491762, 0};
Point(p14 + 24) = {3.662572083250382, -0.6722564075577635, 0};
Point(p14 + 25) = {3.718651744914761, -0.7379172550852393, 0};
Point(p14 + 26) = {3.784312592442237, -0.7939969167496179, 0};
Point(p14 + 27) = {3.857937837850824, -0.8391145251629959, 0};
Point(p14 + 28) = {3.937714583250382, -0.8721591350694785, 0};
Point(p14 + 29) = {4.021678460405337, -0.8923170785043953, 0};
Point(p14 + 30) = {4.107762, -0.899092, 0};
Point(p14 + 31) = {4.193845539594664, -0.8923170785043953, 0};
Point(p14 + 32) = {4.277809416749618, -0.8721591350694786, 0};
Point(p14 + 33) = {4.357586162149176, -0.839114525162996, 0};
Point(p14 + 34) = {4.431211407557764, -0.793996916749618, 0};
Point(p14 + 35) = {4.49687225508524, -0.7379172550852393, 0};
Point(p14 + 36) = {4.552951916749618, -0.6722564075577637, 0};
Point(p14 + 37) = {4.598069525162996, -0.5986311621491766, 0};
Point(p14 + 38) = {4.631114135069478, -0.5188544167496181, 0};
Point(p14 + 39) = {4.651272078504396, -0.4348905395946636, 0};
Spline(14) = {10, p14 + 1, p14 + 2, p14 + 3, p14 + 4, p14 + 5, p14 + 6, p14 + 7, p14 + 8, p14 + 9, p14 + 10, p14 + 11, p14 + 12, p14 + 13, p14 + 14, p14 + 15, p14 + 16, p14 + 17, p14 + 18, p14 + 19, p14 + 20, p14 + 21, p14 + 22, p14 + 23, p14 + 24, p14 + 25, p14 + 26, p14 + 27, p14 + 28, p14 + 29, p14 + 30, p14 + 31, p14 + 32, p14 + 33, p14 + 34, p14 + 35, p14 + 36, p14 + 37, p14 + 38, p14 + 39, 10};
Line(15) = {10, 8};
Curve Loop(1) = {-1, 4, 3, -2};
Plane Surface(1) = {1};
Curve Loop(2) = {-5, 1, 7, -6};
Plane Surface(2) = {2};
Curve Loop(3) = {-2, 7, 9, -8, -10};
Plane Surface(3) = {3};
Curve Loop(4) = {-11, 3, 8, -12};
Plane Surface(4) = {4};
Curve Loop(5) = {-4, 5, 13, -11, -14};
Plane Surface(5) = {5};
Curve Loop(6) = {-6, 13, 12, -9};
Plane Surface(6) = {6};
Curve Loop(7) = {-10, -15, 14, 15};
Surface(7) = {7};
Surface Loop(1) = {1, 2, 3, 4, 5, 6, 7};
Volume(1) = {1};
Physical Surface("INFLOW") = {1};
Physical Surface("OUTFLOW") = {6};
Physical Surface("OBSTACLE") = {7};
Physical Surface("WALL_Y") = {2, 4};
Physical Surface("WALL_Z") = {3, 5};
Physical Volume("FLUID") = {1};
