cl__1 = 1;
cl__2 = 0.129535;
cl__3 = 0.076681;
Point(1) = {0.929881, -3.898859, 1, cl__1};
Point(2) = {0.929881, -3.898859, 0, cl__1};
Point(3) = {0.929881, 5.628070000000001, 1, cl__1};
Point(4) = {0.929881, 5.628070000000001, 0, cl__1};
Point(5) = {39.76206, -3.898859, 0, cl__1};
Point(6) = {39.76206, -3.898859, 1, cl__1};
Point(7) = {39.76206, 5.628070000000001, 1, cl__1};
Point(8) = {19.59795, -1.855933, 1, cl__2};
Point(9) = {35.123772, 2.960487, 1, cl__3};
Point(10) = {39.76206, 5.628070000000001, 0, cl__1};
Point(11) = {19.59795, -1.855933, 0, cl__2};
Point(12) = {35.123772, 2.960487, 0, cl__3};
Line(1) = {2, 1};
Line(2) = {1, 3};
Line(3) = {4, 3};
Line(4) = {2, 4};
Line(5) = {2, 5};
Line(6) = {5, 6};
Line(7) = {1, 6};
Line(8) = {3, 7};
Line(9) = {6, 7};
p10 = newp;
Point(p10 + 1) = {19.58200215354821, -1.653296397882462, 1};
Point(p10 + 2) = {19.53455130310035, -1.455649381421384, 1};
Point(p10 + 3) = {19.45676584607478, -1.267858676114877, 1};
Point(p10 + 4) = {19.35056111857862, -1.094548312369207, 1};
Point(p10 + 5) = {19.21855223347609, -0.9399857665239117, 1};
Point(p10 + 6) = {19.06398968763079, -0.8079768814213837, 1};
Point(p10 + 7) = {18.89067932388512, -0.7017721539252189, 1};
Point(p10 + 8) = {18.70288861857862, -0.6239866968996544, 1};
Point(p10 + 9) = {18.50524160211754, -0.5765358464517913, 1};
Point(p10 + 10) = {18.302605, -0.5605880000000001, 1};
Point(p10 + 11) = {18.09996839788246, -0.5765358464517916, 1};
Point(p10 + 12) = {17.90232138142138, -0.6239866968996544, 1};
Point(p10 + 13) = {17.71453067611488, -0.7017721539252186, 1};
Point(p10 + 14) = {17.54122031236921, -0.8079768814213837, 1};
Point(p10 + 15) = {17.38665776652391, -0.9399857665239116, 1};
Point(p10 + 16) = {17.25464888142139, -1.094548312369206, 1};
Point(p10 + 17) = {17.14844415392522, -1.267858676114877, 1};
Point(p10 + 18) = {17.07065869689965, -1.455649381421384, 1};
Point(p10 + 19) = {17.02320784645179, -1.653296397882462, 1};
Point(p10 + 20) = {17.00726, -1.855933, 1};
Point(p10 + 21) = {17.02320784645179, -2.058569602117538, 1};
Point(p10 + 22) = {17.07065869689965, -2.256216618578617, 1};
Point(p10 + 23) = {17.14844415392522, -2.444007323885122, 1};
Point(p10 + 24) = {17.25464888142138, -2.617317687630794, 1};
Point(p10 + 25) = {17.38665776652391, -2.771880233476089, 1};
Point(p10 + 26) = {17.54122031236921, -2.903889118578616, 1};
Point(p10 + 27) = {17.71453067611488, -3.010093846074781, 1};
Point(p10 + 28) = {17.90232138142138, -3.087879303100346, 1};
Point(p10 + 29) = {18.09996839788246, -3.135330153548209, 1};
Point(p10 + 30) = {18.302605, -3.151278, 1};
Point(p10 + 31) = {18.50524160211754, -3.135330153548209, 1};
Point(p10 + 32) = {18.70288861857862, -3.087879303100346, 1};
Point(p10 + 33) = {18.89067932388512, -3.010093846074781, 1};
Point(p10 + 34) = {19.06398968763079, -2.903889118578617, 1};
Point(p10 + 35) = {19.21855223347609, -2.771880233476089, 1};
Point(p10 + 36) = {19.35056111857861, -2.617317687630794, 1};
Point(p10 + 37) = {19.45676584607478, -2.444007323885124, 1};
Point(p10 + 38) = {19.53455130310035, -2.256216618578617, 1};
Point(p10 + 39) = {19.58200215354821, -2.058569602117538, 1};
Spline(10) = {8, p10 + 1, p10 + 2, p10 + 3, p10 + 4, p10 + 5, p10 + 6, p10 + 7, p10 + 8, p10 + 9, p10 + 10, p10 + 11, p10 + 12, p10 + 13, p10 + 14, p10 + 15, p10 + 16, p10 + 17, p10 + 18, p10 + 19, p10 + 20, p10 + 21, p10 + 22, p10 + 23, p10 + 24, p10 + 25, p10 + 26, p10 + 27, p10 + 28, p10 + 29, p10 + 30, p10 + 31, p10 + 32, p10 + 33, p10 + 34, p10 + 35, p10 + 36, p10 + 37, p10 + 38, p10 + 39, 8};
p11 = newp;
Point(p11 + 1) = {35.1143313456984, 3.080441886399639, 1};
Point(p11 + 2) = {35.08624184303422, 3.197443085388676, 1};
Point(p11 + 3) = {35.04019514878679, 3.308609639143283, 1};
Point(p11 + 4) = {34.97732508538868, 3.411204258169382, 1};
Point(p11 + 5) = {34.89917972245453, 3.502700722454532, 1};
Point(p11 + 6) = {34.80768325816938, 3.580846085388676, 1};
Point(p11 + 7) = {34.70508863914328, 3.643716148786786, 1};
Point(p11 + 8) = {34.59392208538868, 3.689762843034222, 1};
Point(p11 + 9) = {34.47692088639964, 3.717852345698395, 1};
Point(p11 + 10) = {34.356966, 3.727293, 1};
Point(p11 + 11) = {34.23701111360036, 3.717852345698395, 1};
Point(p11 + 12) = {34.12000991461132, 3.689762843034222, 1};
Point(p11 + 13) = {34.00884336085672, 3.643716148786786, 1};
Point(p11 + 14) = {33.90624874183062, 3.580846085388676, 1};
Point(p11 + 15) = {33.81475227754547, 3.502700722454532, 1};
Point(p11 + 16) = {33.73660691461132, 3.411204258169382, 1};
Point(p11 + 17) = {33.67373685121321, 3.308609639143283, 1};
Point(p11 + 18) = {33.62769015696578, 3.197443085388676, 1};
Point(p11 + 19) = {33.5996006543016, 3.080441886399639, 1};
Point(p11 + 20) = {33.59016, 2.960487, 1};
Point(p11 + 21) = {33.5996006543016, 2.840532113600361, 1};
Point(p11 + 22) = {33.62769015696578, 2.723530914611324, 1};
Point(p11 + 23) = {33.67373685121321, 2.612364360856718, 1};
Point(p11 + 24) = {33.73660691461132, 2.509769741830618, 1};
Point(p11 + 25) = {33.81475227754547, 2.418273277545469, 1};
Point(p11 + 26) = {33.90624874183062, 2.340127914611324, 1};
Point(p11 + 27) = {34.00884336085672, 2.277257851213215, 1};
Point(p11 + 28) = {34.12000991461132, 2.231211156965779, 1};
Point(p11 + 29) = {34.23701111360036, 2.203121654301605, 1};
Point(p11 + 30) = {34.356966, 2.193681, 1};
Point(p11 + 31) = {34.47692088639964, 2.203121654301605, 1};
Point(p11 + 32) = {34.59392208538868, 2.231211156965779, 1};
Point(p11 + 33) = {34.70508863914328, 2.277257851213214, 1};
Point(p11 + 34) = {34.80768325816938, 2.340127914611324, 1};
Point(p11 + 35) = {34.89917972245453, 2.418273277545468, 1};
Point(p11 + 36) = {34.97732508538868, 2.509769741830618, 1};
Point(p11 + 37) = {35.04019514878679, 2.612364360856717, 1};
Point(p11 + 38) = {35.08624184303422, 2.723530914611324, 1};
Point(p11 + 39) = {35.1143313456984, 2.840532113600361, 1};
Spline(11) = {9, p11 + 1, p11 + 2, p11 + 3, p11 + 4, p11 + 5, p11 + 6, p11 + 7, p11 + 8, p11 + 9, p11 + 10, p11 + 11, p11 + 12, p11 + 13, p11 + 14, p11 + 15, p11 + 16, p11 + 17, p11 + 18, p11 + 19, p11 + 20, p11 + 21, p11 + 22, p11 + 23, p11 + 24, p11 + 25, p11 + 26, p11 + 27, p11 + 28, p11 + 29, p11 + 30, p11 + 31, p11 + 32, p11 + 33, p11 + 34, p11 + 35, p11 + 36, p11 + 37, p11 + 38, p11 + 39, 9};
Line(12) = {4, 10};
Line(13) = {10, 7};
Line(14) = {5, 10};
p15 = newp;
Point(p15 + 1) = {19.58200215354821, -1.653296397882462, 0};
Point(p15 + 2) = {19.53455130310035, -1.455649381421384, 0};
Point(p15 + 3) = {19.45676584607478, -1.267858676114877, 0};
Point(p15 + 4) = {19.35056111857862, -1.094548312369207, 0};
Point(p15 + 5) = {19.21855223347609, -0.9399857665239117, 0};
Point(p15 + 6) = {19.06398968763079, -0.8079768814213837, 0};
Point(p15 + 7) = {18.89067932388512, -0.7017721539252189, 0};
Point(p15 + 8) = {18.70288861857862, -0.6239866968996544, 0};
Point(p15 + 9) = {18.50524160211754, -0.5765358464517913, 0};
Point(p15 + 10) = {18.302605, -0.5605880000000001, 0};
Point(p15 + 11) = {18.09996839788246, -0.5765358464517916, 0};
Point(p15 + 12) = {17.90232138142138, -0.6239866968996544, 0};
Point(p15 + 13) = {17.71453067611488, -0.7017721539252186, 0};
Point(p15 + 14) = {17.54122031236921, -0.8079768814213837, 0};
Point(p15 + 15) = {17.38665776652391, -0.9399857665239116, 0};
Point(p15 + 16) = {17.25464888142139, -1.094548312369206, 0};
Point(p15 + 17) = {17.14844415392522, -1.267858676114877, 0};
Point(p15 + 18) = {17.07065869689965, -1.455649381421384, 0};
Point(p15 + 19) = {17.02320784645179, -1.653296397882462, 0};
Point(p15 + 20) = {17.00726, -1.855933, 0};
Point(p15 + 21) = {17.02320784645179, -2.058569602117538, 0};
Point(p15 + 22) = {17.07065869689965, -2.256216618578617, 0};
Point(p15 + 23) = {17.14844415392522, -2.444007323885122, 0};
Point(p15 + 24) = {17.25464888142138, -2.617317687630794, 0};
Point(p15 + 25) = {17.38665776652391, -2.771880233476089, 0};
Point(p15 + 26) = {17.54122031236921, -2.903889118578616, 0};
Point(p15 + 27) = {17.71453067611488, -3.010093846074781, 0};
Point(p15 + 28) = {17.90232138142138, -3.087879303100346, 0};
Point(p15 + 29) = {18.09996839788246, -3.135330153548209, 0};
Point(p15 + 30) = {18.302605, -3.151278, 0};
Point(p15 + 31) = {18.50524160211754, -3.135330153548209, 0};
Point(p15 + 32) = {18.70288861857862, -3.087879303100346, 0};
Point(p15 + 33) = {18.89067932388512, -3.010093846074781, 0};
Point(p15 + 34) = {19.06398968763079, -2.903889118578617, 0};
Point(p15 + 35) = {19.21855223347609, -2.771880233476089, 0};
Point(p15 + 36) = {19.35056111857861, -2.617317687630794, 0};
Point(p15 + 37) = {19.45676584607478, -2.444007323885124, 0};
Point(p15 + 38) = {19.53455130310035, -2.256216618578617, 0};
Point(p15 + 39) = {19.58200215354821, -2.058569602117538, 0};
Spline(15) = {11, p15 + 1, p15 + 2, p15 + 3, p15 + 4, p15 + 5, p15 + 6, p15 + 7, p15 + 8, p15 + 9, p15 + 10, p15 + 11, p15 + 12, p15 + 13, p15 + 14, p15 + 15, p15 + 16, p15 + 17, p15 + 18, p15 + 19, p15 + 20, p15 + 21, p15 + 22, p15 + 23, p15 + 24, p15 + 25, p15 + 26, p15 + 27, p15 + 28, p15 + 29, p15 + 30, p15 + 31, p15 + 32, p15 + 33, p15 + 34, p15 + 35, p15 + 36, p15 + 37, p15 + 38, p15 + 39, 11};
p16 = newp;
Point(p16 + 1) = {35.1143313456984, 3.080441886399639, 0};
Point(p16 + 2) = {35.08624184303422, 3.197443085388676, 0};
Point(p16 + 3) = {35.04019514878679, 3.308609639143283, 0};
Point(p16 + 4) = {34.97732508538868, 3.411204258169382, 0};
Point(p16 + 5) = {34.89917972245453, 3.502700722454532, 0};
Point(p16 + 6) = {34.80768325816938, 3.580846085388676, 0};
Point(p16 + 7) = {34.70508863914328, 3.643716148786786, 0};
Point(p16 + 8) = {34.59392208538868, 3.689762843034222, 0};
Point(p16 + 9) = {34.47692088639964, 3.717852345698395, 0};
Point(p16 + 10) = {34.356966, 3.727293, 0};
Point(p16 + 11) = {34.23701111360036, 3.717852345698395, 0};
Point(p16 + 12) = {34.12000991461132, 3.689762843034222, 0};
Point(p16 + 13) = {34.00884336085672, 3.643716148786786, 0};
Point(p16 + 14) = {33.90624874183062, 3.580846085388676, 0};
Point(p16 + 15) = {33.81475227754547, 3.502700722454532, 0};
Point(p16 + 16) = {33.73660691461132, 3.411204258169382, 0};
Point(p16 + 17) = {33.67373685121321, 3.308609639143283, 0};
Point(p16 + 18) = {33.62769015696578, 3.197443085388676, 0};
Point(p16 + 19) = {33.5996006543016, 3.080441886399639, 0};
Point(p16 + 20) = {33.59016, 2.960487, 0};
Point(p16 + 21) = {33.5996006543016, 2.840532113600361, 0};
Point(p16 + 22) = {33.62769015696578, 2.723530914611324, 0};
Point(p16 + 23) = {33.67373685121321, 2.612364360856718, 0};
Point(p16 + 24) = {33.73660691461132, 2.509769741830618, 0};
Point(p16 + 25) = {33.81475227754547, 2.418273277545469, 0};
Point(p16 + 26) = {33.90624874183062, 2.340127914611324, 0};
Point(p16 + 27) = {34.00884336085672, 2.277257851213215, 0};
Point(p16 + 28) = {34.12000991461132, 2.231211156965779, 0};
Point(p16 + 29) = {34.23701111360036, 2.203121654301605, 0};
Point(p16 + 30) = {34.356966, 2.193681, 0};
Point(p16 + 31) = {34.47692088639964, 2.203121654301605, 0};
Point(p16 + 32) = {34.59392208538868, 2.231211156965779, 0};
Point(p16 + 33) = {34.70508863914328, 2.277257851213214, 0};
Point(p16 + 34) = {34.80768325816938, 2.340127914611324, 0};
Point(p16 + 35) = {34.89917972245453, 2.418273277545468, 0};
Point(p16 + 36) = {34.97732508538868, 2.509769741830618, 0};
Point(p16 + 37) = {35.04019514878679, 2.612364360856717, 0};
Point(p16 + 38) = {35.08624184303422, 2.723530914611324, 0};
Point(p16 + 39) = {35.1143313456984, 2.840532113600361, 0};
Spline(16) = {12, p16 + 1, p16 + 2, p16 + 3, p16 + 4, p16 + 5, p16 + 6, p16 + 7, p16 + 8, p16 + 9, p16 + 10, p16 + 11, p16 + 12, p16 + 13, p16 + 14, p16 + 15, p16 + 16, p16 + 17, p16 + 18, p16 + 19, p16 + 20, p16 + 21, p16 + 22, p16 + 23, p16 + 24, p16 + 25, p16 + 26, p16 + 27, p16 + 28, p16 + 29, p16 + 30, p16 + 31, p16 + 32, p16 + 33, p16 + 34, p16 + 35, p16 + 36, p16 + 37, p16 + 38, p16 + 39, 12};
Line(17) = {11, 8};
Line(18) = {12, 9};
Curve Loop(1) = {-1, 4, 3, -2};
Plane Surface(1) = {1};
Curve Loop(2) = {-5, 1, 7, -6};
Plane Surface(2) = {2};
Curve Loop(3) = {-2, 7, 9, -8, -10, -11};
Plane Surface(3) = {3};
Curve Loop(4) = {-12, 3, 8, -13};
Plane Surface(4) = {4};
Curve Loop(5) = {-4, 5, 14, -12, -15, -16};
Plane Surface(5) = {5};
Curve Loop(6) = {-6, 14, 13, -9};
Plane Surface(6) = {6};
Curve Loop(7) = {-10, -17, 15, 17};
Surface(7) = {7};
Curve Loop(8) = {-11, -18, 16, 18};
Surface(8) = {8};
Surface Loop(1) = {1, 2, 3, 4, 5, 6, 7, 8};
Volume(1) = {1};
Physical Surface("INFLOW") = {1};
Physical Surface("OUTFLOW") = {6};
Physical Surface("OBSTACLE") = {7, 8};
Physical Surface("WALL_Y") = {2, 4};
Physical Surface("WALL_Z") = {3, 5};
Physical Volume("FLUID") = {1};
