cl__1 = 3.485283;
cl__2 = 0.736033;
cl__3 = 0.881139;
cl__4 = 0.067069;
cl__5 = 0.117808;
Point(1) = {0.53394, -4.160542, 1, cl__1};
Point(2) = {0.53394, -4.160542, 0, cl__1};
Point(3) = {0.53394, 5.829042, 1, cl__1};
Point(4) = {0.53394, 5.829042, 0, cl__1};
Point(5) = {34.493073, -4.160542, 0, cl__2};
Point(6) = {34.493073, -4.160542, 1, cl__2};
Point(7) = {34.493073, 5.829042, 1, cl__3};
Point(8) = {28.047741, -0.4376980000000001, 1, cl__4};
Point(9) = {24.195872, -0.4158630000000003, 1, cl__5};
Point(10) = {34.493073, 5.829042, 0, cl__3};
Point(11) = {28.047741, -0.4376980000000001, 0, cl__4};
Point(12) = {24.195872, -0.4158630000000003, 0, cl__5};
Line(1) = {2, 1};
Line(2) = {1, 3};
Line(3) = {4, 3};
Line(4) = {2, 4};
Line(5) = {2, 5};
Line(6) = {5, 6};
Line(7) = {1, 6};
Line(8) = {3, 7};
Line(9) = {6, 7};
p10 = newp;
Point(p10 + 1) = {28.03948370546541, -0.3327791250766326, 1};
Point(p10 + 2) = {28.01491514385748, -0.2304437010596609, 1};
Point(p10 + 3) = {27.97464027470137, -0.1332115657201831, 1};
Point(p10 + 4) = {27.91965079894034, -0.04347689692521345, 1};
Point(p10 + 5) = {27.85130073996722, 0.03655073996722435, 1};
Point(p10 + 6) = {27.77127310307479, 0.1049007989403392, 1};
Point(p10 + 7) = {27.68153843427982, 0.1598902747013722, 1};
Point(p10 + 8) = {27.58430629894034, 0.2001651438574802, 1};
Point(p10 + 9) = {27.48197087492337, 0.2247337054654123, 1};
Point(p10 + 10) = {27.377052, 0.232991, 1};
Point(p10 + 11) = {27.27213312507663, 0.2247337054654123, 1};
Point(p10 + 12) = {27.16979770105966, 0.2001651438574804, 1};
Point(p10 + 13) = {27.07256556572018, 0.1598902747013722, 1};
Point(p10 + 14) = {26.98283089692521, 0.1049007989403392, 1};
Point(p10 + 15) = {26.90280326003278, 0.03655073996722441, 1};
Point(p10 + 16) = {26.83445320105966, -0.04347689692521339, 1};
Point(p10 + 17) = {26.77946372529863, -0.1332115657201831, 1};
Point(p10 + 18) = {26.73918885614252, -0.2304437010596608, 1};
Point(p10 + 19) = {26.71462029453459, -0.3327791250766325, 1};
Point(p10 + 20) = {26.706363, -0.4376979999999999, 1};
Point(p10 + 21) = {26.71462029453459, -0.5426168749233673, 1};
Point(p10 + 22) = {26.73918885614252, -0.6449522989403393, 1};
Point(p10 + 23) = {26.77946372529863, -0.7421844342798165, 1};
Point(p10 + 24) = {26.83445320105966, -0.8319191030747863, 1};
Point(p10 + 25) = {26.90280326003278, -0.9119467399672243, 1};
Point(p10 + 26) = {26.98283089692521, -0.9802967989403391, 1};
Point(p10 + 27) = {27.07256556572018, -1.035286274701372, 1};
Point(p10 + 28) = {27.16979770105966, -1.07556114385748, 1};
Point(p10 + 29) = {27.27213312507663, -1.100129705465412, 1};
Point(p10 + 30) = {27.377052, -1.108387, 1};
Point(p10 + 31) = {27.48197087492337, -1.100129705465412, 1};
Point(p10 + 32) = {27.58430629894034, -1.07556114385748, 1};
Point(p10 + 33) = {27.68153843427982, -1.035286274701372, 1};
Point(p10 + 34) = {27.77127310307479, -0.9802967989403393, 1};
Point(p10 + 35) = {27.85130073996722, -0.9119467399672244, 1};
Point(p10 + 36) = {27.91965079894034, -0.8319191030747866, 1};
Point(p10 + 37) = {27.97464027470137, -0.742184434279817, 1};
Point(p10 + 38) = {28.01491514385748, -0.6449522989403392, 1};
Point(p10 + 39) = {28.03948370546541, -0.5426168749233675, 1};
Spline(10) = {8, p10 + 1, p10 + 2, p10 + 3, p10 + 4, p10 + 5, p10 + 6, p10 + 7, p10 + 8, p10 + 9, p10 + 10, p10 + 11, p10 + 12, p10 + 13, p10 + 14, p10 + 15, p10 + 16, p10 + 17, p10 + 18, p10 + 19, p10 + 20, p10 + 21, p10 + 22, p10 + 23, p10 + 24, p10 + 25, p10 + 26, p10 + 27, p10 + 28, p10 + 29, p10 + 30, p10 + 31, p10 + 32, p10 + 33, p10 + 34, p10 + 35, p10 + 36, p10 + 37, p10 + 38, p10 + 39, 8};
p11 = newp;
Point(p11 + 1) = {24.18136790491164, -0.2315709982943349, 1};
Point(p11 + 2) = {24.13821275860396, -0.05181687730075074, 1};
Point(p11 + 3) = {24.06746918400278, 0.1189732199521657, 1};
Point(p11 + 4) = {23.97087912269925, 0.2765938744502121, 1};
Point(p11 + 5) = {23.85082094256668, 0.4171639425666854, 1};
Point(p11 + 6) = {23.71025087445021, 0.5372221226992493, 1};
Point(p11 + 7) = {23.55263021995216, 0.6338121840027838, 1};
Point(p11 + 8) = {23.38184012269925, 0.7045557586039618, 1};
Point(p11 + 9) = {23.20208600170566, 0.7477109049116387, 1};
Point(p11 + 10) = {23.017794, 0.762215, 1};
Point(p11 + 11) = {22.83350199829433, 0.7477109049116385, 1};
Point(p11 + 12) = {22.65374787730075, 0.704555758603962, 1};
Point(p11 + 13) = {22.48295778004783, 0.6338121840027841, 1};
Point(p11 + 14) = {22.32533712554979, 0.5372221226992493, 1};
Point(p11 + 15) = {22.18476705743331, 0.4171639425666855, 1};
Point(p11 + 16) = {22.06470887730075, 0.2765938744502123, 1};
Point(p11 + 17) = {21.96811881599722, 0.1189732199521659, 1};
Point(p11 + 18) = {21.89737524139604, -0.05181687730075057, 1};
Point(p11 + 19) = {21.85422009508836, -0.2315709982943348, 1};
Point(p11 + 20) = {21.839716, -0.4158629999999998, 1};
Point(p11 + 21) = {21.85422009508836, -0.6001550017056649, 1};
Point(p11 + 22) = {21.89737524139604, -0.7799091226992496, 1};
Point(p11 + 23) = {21.96811881599722, -0.9506992199521651, 1};
Point(p11 + 24) = {22.06470887730075, -1.108319874450212, 1};
Point(p11 + 25) = {22.18476705743331, -1.248889942566685, 1};
Point(p11 + 26) = {22.32533712554979, -1.368948122699249, 1};
Point(p11 + 27) = {22.48295778004783, -1.465538184002784, 1};
Point(p11 + 28) = {22.65374787730075, -1.536281758603962, 1};
Point(p11 + 29) = {22.83350199829433, -1.579436904911638, 1};
Point(p11 + 30) = {23.017794, -1.593941, 1};
Point(p11 + 31) = {23.20208600170566, -1.579436904911639, 1};
Point(p11 + 32) = {23.38184012269925, -1.536281758603962, 1};
Point(p11 + 33) = {23.55263021995216, -1.465538184002784, 1};
Point(p11 + 34) = {23.71025087445021, -1.368948122699249, 1};
Point(p11 + 35) = {23.85082094256668, -1.248889942566686, 1};
Point(p11 + 36) = {23.97087912269925, -1.108319874450213, 1};
Point(p11 + 37) = {24.06746918400278, -0.950699219952166, 1};
Point(p11 + 38) = {24.13821275860396, -0.7799091226992495, 1};
Point(p11 + 39) = {24.18136790491164, -0.6001550017056654, 1};
Spline(11) = {9, p11 + 1, p11 + 2, p11 + 3, p11 + 4, p11 + 5, p11 + 6, p11 + 7, p11 + 8, p11 + 9, p11 + 10, p11 + 11, p11 + 12, p11 + 13, p11 + 14, p11 + 15, p11 + 16, p11 + 17, p11 + 18, p11 + 19, p11 + 20, p11 + 21, p11 + 22, p11 + 23, p11 + 24, p11 + 25, p11 + 26, p11 + 27, p11 + 28, p11 + 29, p11 + 30, p11 + 31, p11 + 32, p11 + 33, p11 + 34, p11 + 35, p11 + 36, p11 + 37, p11 + 38, p11 + 39, 9};
Line(12) = {4, 10};
Line(13) = {10, 7};
Line(14) = {5, 10};
p15 = newp;
Point(p15 + 1) = {28.03948370546541, -0.3327791250766326, 0};
Point(p15 + 2) = {28.01491514385748, -0.2304437010596609, 0};
Point(p15 + 3) = {27.97464027470137, -0.1332115657201831, 0};
Point(p15 + 4) = {27.91965079894034, -0.04347689692521345, 0};
Point(p15 + 5) = {27.85130073996722, 0.03655073996722435, 0};
Point(p15 + 6) = {27.77127310307479, 0.1049007989403392, 0};
Point(p15 + 7) = {27.68153843427982, 0.1598902747013722, 0};
Point(p15 + 8) = {27.58430629894034, 0.2001651438574802, 0};
Point(p15 + 9) = {27.48197087492337, 0.2247337054654123, 0};
Point(p15 + 10) = {27.377052, 0.232991, 0};
Point(p15 + 11) = {27.27213312507663, 0.2247337054654123, 0};
Point(p15 + 12) = {27.16979770105966, 0.2001651438574804, 0};
Point(p15 + 13) = {27.07256556572018, 0.1598902747013722, 0};
Point(p15 + 14) = {26.98283089692521, 0.1049007989403392, 0};
Point(p15 + 15) = {26.90280326003278, 0.03655073996722441, 0};
Point(p15 + 16) = {26.83445320105966, -0.04347689692521339, 0};
Point(p15 + 17) = {26.77946372529863, -0.1332115657201831, 0};
Point(p15 + 18) = {26.73918885614252, -0.2304437010596608, 0};
Point(p15 + 19) = {26.71462029453459, -0.3327791250766325, 0};
Point(p15 + 20) = {26.706363, -0.4376979999999999, 0};
Point(p15 + 21) = {26.71462029453459, -0.5426168749233673, 0};
Point(p15 + 22) = {26.73918885614252, -0.6449522989403393, 0};
Point(p15 + 23) = {26.77946372529863, -0.7421844342798165, 0};
Point(p15 + 24) = {26.83445320105966, -0.8319191030747863, 0};
Point(p15 + 25) = {26.90280326003278, -0.9119467399672243, 0};
Point(p15 + 26) = {26.98283089692521, -0.9802967989403391, 0};
Point(p15 + 27) = {27.07256556572018, -1.035286274701372, 0};
Point(p15 + 28) = {27.16979770105966, -1.07556114385748, 0};
Point(p15 + 29) = {27.27213312507663, -1.100129705465412, 0};
Point(p15 + 30) = {27.377052, -1.108387, 0};
Point(p15 + 31) = {27.48197087492337, -1.100129705465412, 0};
Point(p15 + 32) = {27.58430629894034, -1.07556114385748, 0};
Point(p15 + 33) = {27.68153843427982, -1.035286274701372, 0};
Point(p15 + 34) = {27.77127310307479, -0.9802967989403393, 0};
Point(p15 + 35) = {27.85130073996722, -0.9119467399672244, 0};
Point(p15 + 36) = {27.91965079894034, -0.8319191030747866, 0};
Point(p15 + 37) = {27.97464027470137, -0.742184434279817, 0};
Point(p15 + 38) = {28.01491514385748, -0.6449522989403392, 0};
Point(p15 + 39) = {28.03948370546541, -0.5426168749233675, 0};
Spline(15) = {11, p15 + 1, p15 + 2, p15 + 3, p15 + 4, p15 + 5, p15 + 6, p15 + 7, p15 + 8, p15 + 9, p15 + 10, p15 + 11, p15 + 12, p15 + 13, p15 + 14, p15 + 15, p15 + 16, p15 + 17, p15 + 18, p15 + 19, p15 + 20, p15 + 21, p15 + 22, p15 + 23, p15 + 24, p15 + 25, p15 + 26, p15 + 27, p15 + 28, p15 + 29, p15 + 30, p15 + 31, p15 + 32, p15 + 33, p15 + 34, p15 + 35, p15 + 36, p15 + 37, p15 + 38, p15 + 39, 11};
p16 = newp;
Point(p16 + 1) = {24.18136790491164, -0.2315709982943349, 0};
Point(p16 + 2) = {24.13821275860396, -0.05181687730075074, 0};
Point(p16 + 3) = {24.06746918400278, 0.1189732199521657, 0};
Point(p16 + 4) = {23.97087912269925, 0.2765938744502121, 0};
Point(p16 + 5) = {23.85082094256668, 0.4171639425666854, 0};
Point(p16 + 6) = {23.71025087445021, 0.5372221226992493, 0};
Point(p16 + 7) = {23.55263021995216, 0.6338121840027838, 0};
Point(p16 + 8) = {23.38184012269925, 0.7045557586039618, 0};
Point(p16 + 9) = {23.20208600170566, 0.7477109049116387, 0};
Point(p16 + 10) = {23.017794, 0.762215, 0};
Point(p16 + 11) = {22.83350199829433, 0.7477109049116385, 0};
Point(p16 + 12) = {22.65374787730075, 0.704555758603962, 0};
Point(p16 + 13) = {22.48295778004783, 0.6338121840027841, 0};
Point(p16 + 14) = {22.32533712554979, 0.5372221226992493, 0};
Point(p16 + 15) = {22.18476705743331, 0.4171639425666855, 0};
Point(p16 + 16) = {22.06470887730075, 0.2765938744502123, 0};
Point(p16 + 17) = {21.96811881599722, 0.1189732199521659, 0};
Point(p16 + 18) = {21.89737524139604, -0.05181687730075057, 0};
Point(p16 + 19) = {21.85422009508836, -0.2315709982943348, 0};
Point(p16 + 20) = {21.839716, -0.4158629999999998, 0};
Point(p16 + 21) = {21.85422009508836, -0.6001550017056649, 0};
Point(p16 + 22) = {21.89737524139604, -0.7799091226992496, 0};
Point(p16 + 23) = {21.96811881599722, -0.9506992199521651, 0};
Point(p16 + 24) = {22.06470887730075, -1.108319874450212, 0};
Point(p16 + 25) = {22.18476705743331, -1.248889942566685, 0};
Point(p16 + 26) = {22.32533712554979, -1.368948122699249, 0};
Point(p16 + 27) = {22.48295778004783, -1.465538184002784, 0};
Point(p16 + 28) = {22.65374787730075, -1.536281758603962, 0};
Point(p16 + 29) = {22.83350199829433, -1.579436904911638, 0};
Point(p16 + 30) = {23.017794, -1.593941, 0};
Point(p16 + 31) = {23.20208600170566, -1.579436904911639, 0};
Point(p16 + 32) = {23.38184012269925, -1.536281758603962, 0};
Point(p16 + 33) = {23.55263021995216, -1.465538184002784, 0};
Point(p16 + 34) = {23.71025087445021, -1.368948122699249, 0};
Point(p16 + 35) = {23.85082094256668, -1.248889942566686, 0};
Point(p16 + 36) = {23.97087912269925, -1.108319874450213, 0};
Point(p16 + 37) = {24.06746918400278, -0.950699219952166, 0};
Point(p16 + 38) = {24.13821275860396, -0.7799091226992495, 0};
Point(p16 + 39) = {24.18136790491164, -0.6001550017056654, 0};
Spline(16) = {12, p16 + 1, p16 + 2, p16 + 3, p16 + 4, p16 + 5, p16 + 6, p16 + 7, p16 + 8, p16 + 9, p16 + 10, p16 + 11, p16 + 12, p16 + 13, p16 + 14, p16 + 15, p16 + 16, p16 + 17, p16 + 18, p16 + 19, p16 + 20, p16 + 21, p16 + 22, p16 + 23, p16 + 24, p16 + 25, p16 + 26, p16 + 27, p16 + 28, p16 + 29, p16 + 30, p16 + 31, p16 + 32, p16 + 33, p16 + 34, p16 + 35, p16 + 36, p16 + 37, p16 + 38, p16 + 39, 12};
Line(17) = {11, 8};
Line(18) = {12, 9};
Curve Loop(1) = {-1, 4, 3, -2};
Plane Surface(1) = {1};
Curve Loop(2) = {-5, 1, 7, -6};
Plane Surface(2) = {2};
Curve Loop(3) = {-2, 7, 9, -8, -10, -11};
Plane Surface(3) = {3};
Curve Loop(4) = {-12, 3, 8, -13};
Plane Surface(4) = {4};
Curve Loop(5) = {-4, 5, 14, -12, -15, -16};
Plane Surface(5) = {5};
Curve Loop(6) = {-6, 14, 13, -9};
Plane Surface(6) = {6};
Curve Loop(7) = {-10, -17, 15, 17};
Surface(7) = {7};
Curve Loop(8) = {-11, -18, 16, 18};
Surface(8) = {8};
Surface Loop(1) = {1, 2, 3, 4, 5, 6, 7, 8};
Volume(1) = {1};
Physical Surface("INFLOW") = {1};
Physical Surface("OUTFLOW") = {6};
Physical Surface("OBSTACLE") = {7, 8};
Physical Surface("WALL_Y") = {2, 4};
Physical Surface("WALL_Z") = {3, 5};
Physical Volume("FLUID") = {1};
