cl__1 = 3.995498;
cl__2 = 1.781868;
cl__3 = 1.678891;
cl__4 = 0.111852;
cl__5 = 1e+22;
cl__6 = 0.065548;
Point(1) = {0.639427, -4.004003, 1, cl__1};
Point(2) = {0.639427, -4.004003, 0, cl__1};
Point(3) = {0.639427, 4.054023999999999, 1, cl__1};
Point(4) = {0.639427, 4.054023999999999, 0, cl__1};
Point(5) = {32.750293, -4.004003, 0, cl__2};
Point(6) = {32.750293, -4.004003, 1, cl__2};
Point(7) = {32.750293, 4.054023999999999, 1, cl__3};
Point(8) = {21.645031, -1.519944, 1, cl__3};
Point(9) = {20.410622, 0.3616259999999998, 1, cl__4};
Point(10) = {23.051733, 2.782261999999999, 1, cl__5};
Point(11) = {25.44176049252165, 1.85994957271024, 1, cl__4};
Point(12) = {24.98962703532261, 0.3369719920091609, 1, cl__5};
Point(13) = {27.517975, 0.8030249999999997, 1, cl__5};
Point(14) = {32.750293, 4.054023999999999, 0, cl__6};
Point(15) = {21.645031, -1.519944, 0, cl__5};
Point(16) = {20.410622, 0.3616259999999998, 0, cl__5};
Point(17) = {23.051733, 2.782261999999999, 0, cl__5};
Point(18) = {25.44176049252165, 1.85994957271024, 0, cl__5};
Point(19) = {24.98962703532261, 0.3369719920091609, 0, cl__5};
Point(20) = {27.517975, 0.8030249999999997, 0, cl__5};
Line(1) = {2, 1};
Line(2) = {1, 3};
Line(3) = {4, 3};
Line(4) = {2, 4};
Line(5) = {2, 5};
Line(6) = {5, 6};
Line(7) = {1, 6};
Line(8) = {3, 7};
Line(9) = {6, 7};
p10 = newp;
Point(p10 + 1) = {21.63696096580496, -1.417404493289894, 1};
Point(p10 + 2) = {21.61294957424463, -1.317389849544104, 1};
Point(p10 + 3) = {21.57358806546847, -1.222362761221222, 1};
Point(p10 + 4) = {21.5198456504559, -1.134663110612582, 1};
Point(p10 + 5) = {21.45304564582538, -1.056450354174623, 1};
Point(p10 + 6) = {21.37483288938742, -0.9896503495441038, 1};
Point(p10 + 7) = {21.28713323877878, -0.9359079345315328, 1};
Point(p10 + 8) = {21.1921061504559, -0.896546425755369, 1};
Point(p10 + 9) = {21.0920915067101, -0.8725350341950396, 1};
Point(p10 + 10) = {20.989552, -0.8644649999999999, 1};
Point(p10 + 11) = {20.88701249328989, -0.8725350341950396, 1};
Point(p10 + 12) = {20.7869978495441, -0.8965464257553689, 1};
Point(p10 + 13) = {20.69197076122122, -0.9359079345315328, 1};
Point(p10 + 14) = {20.60427111061258, -0.9896503495441038, 1};
Point(p10 + 15) = {20.52605835417462, -1.056450354174623, 1};
Point(p10 + 16) = {20.4592583495441, -1.134663110612582, 1};
Point(p10 + 17) = {20.40551593453153, -1.222362761221222, 1};
Point(p10 + 18) = {20.36615442575537, -1.317389849544104, 1};
Point(p10 + 19) = {20.34214303419504, -1.417404493289894, 1};
Point(p10 + 20) = {20.334073, -1.519944, 1};
Point(p10 + 21) = {20.34214303419504, -1.622483506710105, 1};
Point(p10 + 22) = {20.36615442575537, -1.722498150455896, 1};
Point(p10 + 23) = {20.40551593453153, -1.817525238778778, 1};
Point(p10 + 24) = {20.4592583495441, -1.905224889387418, 1};
Point(p10 + 25) = {20.52605835417462, -1.983437645825377, 1};
Point(p10 + 26) = {20.60427111061258, -2.050237650455896, 1};
Point(p10 + 27) = {20.69197076122122, -2.103980065468467, 1};
Point(p10 + 28) = {20.7869978495441, -2.143341574244631, 1};
Point(p10 + 29) = {20.88701249328989, -2.16735296580496, 1};
Point(p10 + 30) = {20.989552, -2.175423, 1};
Point(p10 + 31) = {21.0920915067101, -2.16735296580496, 1};
Point(p10 + 32) = {21.1921061504559, -2.143341574244631, 1};
Point(p10 + 33) = {21.28713323877878, -2.103980065468467, 1};
Point(p10 + 34) = {21.37483288938742, -2.050237650455896, 1};
Point(p10 + 35) = {21.45304564582538, -1.983437645825377, 1};
Point(p10 + 36) = {21.5198456504559, -1.905224889387418, 1};
Point(p10 + 37) = {21.57358806546847, -1.817525238778778, 1};
Point(p10 + 38) = {21.61294957424463, -1.722498150455896, 1};
Point(p10 + 39) = {21.63696096580496, -1.622483506710106, 1};
Spline(10) = {8, p10 + 1, p10 + 2, p10 + 3, p10 + 4, p10 + 5, p10 + 6, p10 + 7, p10 + 8, p10 + 9, p10 + 10, p10 + 11, p10 + 12, p10 + 13, p10 + 14, p10 + 15, p10 + 16, p10 + 17, p10 + 18, p10 + 19, p10 + 20, p10 + 21, p10 + 22, p10 + 23, p10 + 24, p10 + 25, p10 + 26, p10 + 27, p10 + 28, p10 + 29, p10 + 30, p10 + 31, p10 + 32, p10 + 33, p10 + 34, p10 + 35, p10 + 36, p10 + 37, p10 + 38, p10 + 39, 8};
p11 = newp;
Point(p11 + 1) = {20.4017521757867, 0.474327802428049, 1};
Point(p11 + 2) = {20.3753611076562, 0.5842545124444815, 1};
Point(p11 + 3) = {20.33209863129279, 0.6886993696228588, 1};
Point(p11 + 4) = {20.27303001244448, 0.7850905949468416, 1};
Point(p11 + 5) = {20.19960971654482, 0.8710547165448175, 1};
Point(p11 + 6) = {20.11364559494684, 0.9444750124444815, 1};
Point(p11 + 7) = {20.01725436962286, 1.003543631292792, 1};
Point(p11 + 8) = {19.91280951244448, 1.046806107656197, 1};
Point(p11 + 9) = {19.80288280242805, 1.073197175786702, 1};
Point(p11 + 10) = {19.690181, 1.082067, 1};
Point(p11 + 11) = {19.57747919757195, 1.073197175786702, 1};
Point(p11 + 12) = {19.46755248755552, 1.046806107656197, 1};
Point(p11 + 13) = {19.36310763037714, 1.003543631292792, 1};
Point(p11 + 14) = {19.26671640505316, 0.9444750124444815, 1};
Point(p11 + 15) = {19.18075228345518, 0.8710547165448175, 1};
Point(p11 + 16) = {19.10733198755552, 0.7850905949468417, 1};
Point(p11 + 17) = {19.04826336870721, 0.6886993696228589, 1};
Point(p11 + 18) = {19.0050008923438, 0.5842545124444816, 1};
Point(p11 + 19) = {18.9786098242133, 0.4743278024280491, 1};
Point(p11 + 20) = {18.96974, 0.3616260000000001, 1};
Point(p11 + 21) = {18.9786098242133, 0.2489241975719511, 1};
Point(p11 + 22) = {19.0050008923438, 0.1389974875555183, 1};
Point(p11 + 23) = {19.04826336870721, 0.03455263037714157, 1};
Point(p11 + 24) = {19.10733198755552, -0.06183859494684157, 1};
Point(p11 + 25) = {19.18075228345518, -0.1478027165448175, 1};
Point(p11 + 26) = {19.26671640505316, -0.2212230124444814, 1};
Point(p11 + 27) = {19.36310763037714, -0.2802916312927919, 1};
Point(p11 + 28) = {19.46755248755552, -0.3235541076561967, 1};
Point(p11 + 29) = {19.57747919757195, -0.3499451757867016, 1};
Point(p11 + 30) = {19.690181, -0.358815, 1};
Point(p11 + 31) = {19.80288280242805, -0.3499451757867017, 1};
Point(p11 + 32) = {19.91280951244448, -0.3235541076561967, 1};
Point(p11 + 33) = {20.01725436962286, -0.280291631292792, 1};
Point(p11 + 34) = {20.11364559494684, -0.2212230124444816, 1};
Point(p11 + 35) = {20.19960971654482, -0.1478027165448176, 1};
Point(p11 + 36) = {20.27303001244448, -0.0618385949468418, 1};
Point(p11 + 37) = {20.33209863129279, 0.03455263037714107, 1};
Point(p11 + 38) = {20.3753611076562, 0.1389974875555184, 1};
Point(p11 + 39) = {20.4017521757867, 0.2489241975719509, 1};
Spline(11) = {9, p11 + 1, p11 + 2, p11 + 3, p11 + 4, p11 + 5, p11 + 6, p11 + 7, p11 + 8, p11 + 9, p11 + 10, p11 + 11, p11 + 12, p11 + 13, p11 + 14, p11 + 15, p11 + 16, p11 + 17, p11 + 18, p11 + 19, p11 + 20, p11 + 21, p11 + 22, p11 + 23, p11 + 24, p11 + 25, p11 + 26, p11 + 27, p11 + 28, p11 + 29, p11 + 30, p11 + 31, p11 + 32, p11 + 33, p11 + 34, p11 + 35, p11 + 36, p11 + 37, p11 + 38, p11 + 39, 9};
p12 = newp;
Point(p12 + 1) = {23.03796216272247, 2.957237077836799, 1};
Point(p12 + 2) = {22.99698873460645, 3.127903688548266, 1};
Point(p12 + 3) = {22.92982161743517, 3.290059453768678, 1};
Point(p12 + 4) = {22.83811468854827, 3.439711560394177, 1};
Point(p12 + 5) = {22.72412607689278, 3.573175076892777, 1};
Point(p12 + 6) = {22.59066256039418, 3.687163688548266, 1};
Point(p12 + 7) = {22.44101045376868, 3.778870617435173, 1};
Point(p12 + 8) = {22.27885468854826, 3.846037734606455, 1};
Point(p12 + 9) = {22.1081880778368, 3.887011162722473, 1};
Point(p12 + 10) = {21.933213, 3.900782, 1};
Point(p12 + 11) = {21.7582379221632, 3.887011162722473, 1};
Point(p12 + 12) = {21.58757131145173, 3.846037734606455, 1};
Point(p12 + 13) = {21.42541554623132, 3.778870617435173, 1};
Point(p12 + 14) = {21.27576343960582, 3.687163688548266, 1};
Point(p12 + 15) = {21.14229992310722, 3.573175076892777, 1};
Point(p12 + 16) = {21.02831131145173, 3.439711560394177, 1};
Point(p12 + 17) = {20.93660438256483, 3.290059453768678, 1};
Point(p12 + 18) = {20.86943726539354, 3.127903688548266, 1};
Point(p12 + 19) = {20.82846383727752, 2.957237077836799, 1};
Point(p12 + 20) = {20.814693, 2.782262, 1};
Point(p12 + 21) = {20.82846383727752, 2.607286922163201, 1};
Point(p12 + 22) = {20.86943726539354, 2.436620311451733, 1};
Point(p12 + 23) = {20.93660438256482, 2.274464546231322, 1};
Point(p12 + 24) = {21.02831131145173, 2.124812439605823, 1};
Point(p12 + 25) = {21.14229992310722, 1.991348923107223, 1};
Point(p12 + 26) = {21.27576343960582, 1.877360311451734, 1};
Point(p12 + 27) = {21.42541554623132, 1.785653382564827, 1};
Point(p12 + 28) = {21.58757131145173, 1.718486265393545, 1};
Point(p12 + 29) = {21.7582379221632, 1.677512837277527, 1};
Point(p12 + 30) = {21.933213, 1.663742, 1};
Point(p12 + 31) = {22.1081880778368, 1.677512837277526, 1};
Point(p12 + 32) = {22.27885468854826, 1.718486265393545, 1};
Point(p12 + 33) = {22.44101045376868, 1.785653382564826, 1};
Point(p12 + 34) = {22.59066256039418, 1.877360311451733, 1};
Point(p12 + 35) = {22.72412607689278, 1.991348923107223, 1};
Point(p12 + 36) = {22.83811468854826, 2.124812439605822, 1};
Point(p12 + 37) = {22.92982161743517, 2.274464546231322, 1};
Point(p12 + 38) = {22.99698873460645, 2.436620311451733, 1};
Point(p12 + 39) = {23.03796216272247, 2.607286922163201, 1};
Spline(12) = {10, p12 + 1, p12 + 2, p12 + 3, p12 + 4, p12 + 5, p12 + 6, p12 + 7, p12 + 8, p12 + 9, p12 + 10, p12 + 11, p12 + 12, p12 + 13, p12 + 14, p12 + 15, p12 + 16, p12 + 17, p12 + 18, p12 + 19, p12 + 20, p12 + 21, p12 + 22, p12 + 23, p12 + 24, p12 + 25, p12 + 26, p12 + 27, p12 + 28, p12 + 29, p12 + 30, p12 + 31, p12 + 32, p12 + 33, p12 + 34, p12 + 35, p12 + 36, p12 + 37, p12 + 38, p12 + 39, 10};
p13 = newp;
Point(p13 + 1) = {25.37604483033253, 2.023542385931819, 1};
Point(p13 + 2) = {25.29018110860805, 2.177518286923903, 1};
Point(p13 + 3) = {25.18554627079111, 2.31940805931687, 1};
Point(p13 + 4) = {25.06381828111319, 2.44693630451641, 1};
Point(p13 + 5) = {24.92694921611882, 2.558057930864625, 1};
Point(p13 + 6) = {24.77713396042049, 2.650990949511117, 1};
Point(p13 + 7) = {24.61677500869046, 2.724245051066933, 1};
Point(p13 + 8) = {24.44844393833842, 2.77664550477526, 1};
Point(p13 + 9) = {24.27484017071374, 2.8073519969426, 1};
Point(p13 + 10) = {24.09874768215356, 2.815872106530175, 1};
Point(p13 + 11) = {23.92299035907462, 2.802069201805816, 1};
Point(p13 + 12) = {23.750386713052, 2.766164631422619, 1};
Point(p13 + 13) = {23.58370468209073, 2.708734174787383, 1};
Point(p13 + 14) = {23.42561724291458, 2.630698808642086, 1};
Point(p13 + 15) = {23.27865954609016, 2.53330993792902, 1};
Point(p13 + 16) = {23.145188261384, 2.418129327783083, 1};
Point(p13 + 17) = {23.02734378530586, 2.287004058469454, 1};
Point(p13 + 18) = {22.92701591689264, 2.142036904898846, 1};
Point(p13 + 19) = {22.84581355216911, 1.985552615725743, 1};
Point(p13 + 20) = {22.78503888327661, 1.820060632790885, 1};
Point(p13 + 21) = {22.74566651602242, 1.648214848753263, 1};
Point(p13 + 22) = {22.72832784072872, 1.472771048253606, 1};
Point(p13 + 23) = {22.73330090701617, 1.296542715099131, 1};
Point(p13 + 24) = {22.76050596489398, 1.122355914162411, 1};
Point(p13 + 25) = {22.80950674366127, 0.9530039715254771, 1};
Point(p13 + 26) = {22.87951744811062, 0.7912026796356703, 1};
Point(p13 + 27) = {22.96941535984023, 0.6395467458204764, 1};
Point(p13 + 28) = {23.07775884159514, 0.5004681825696068, 1};
Point(p13 + 29) = {23.20281045591296, 0.3761973068536393, 1};
Point(p13 + 30) = {23.3425648273347, 0.2687269739090647, 1};
Point(p13 + 31) = {23.4947808013718, 0.1797806190504083, 1};
Point(p13 + 32) = {23.65701738451559, 0.1107846200031479, 1};
Point(p13 + 33) = {23.82667288894177, 0.06284542296560613, 1};
Point(p13 + 34) = {24.00102665417016, 0.03673179921503489, 1};
Point(p13 + 35) = {24.17728267661558, 0.03286251679773033, 1};
Point(p13 + 36) = {24.3526144473694, 0.05129962500466578, 1};
Point(p13 + 37) = {24.5242102791762, 0.09174745932535711, 1};
Point(p13 + 38) = {24.68931839572473, 0.1535573828369032, 1};
Point(p13 + 39) = {24.84529106018399, 0.2357381879934708, 1};
Spline(13) = {11, p13 + 1, p13 + 2, p13 + 3, p13 + 4, p13 + 5, p13 + 6, p13 + 7, p13 + 8, p13 + 9, p13 + 10, p13 + 11, p13 + 12, p13 + 13, p13 + 14, p13 + 15, p13 + 16, p13 + 17, p13 + 18, p13 + 19, p13 + 20, p13 + 21, p13 + 22, p13 + 23, p13 + 24, p13 + 25, p13 + 26, p13 + 27, p13 + 28, p13 + 29, p13 + 30, p13 + 31, p13 + 32, p13 + 33, p13 + 34, p13 + 35, p13 + 36, p13 + 37, p13 + 38, p13 + 39, 12};
p14 = newp;
Point(p14 + 1) = {26.210847, 0.803025, 1};
Circle(14) = {13, p14 + 1, 11};
p15 = newp;
Point(p15 + 1) = {26.210847, 0.803025, 1};
Circle(15) = {12, p15 + 1, 13};
Line(16) = {4, 14};
Line(17) = {14, 7};
Line(18) = {5, 14};
p19 = newp;
Point(p19 + 1) = {21.63696096580496, -1.417404493289894, 0};
Point(p19 + 2) = {21.61294957424463, -1.317389849544104, 0};
Point(p19 + 3) = {21.57358806546847, -1.222362761221222, 0};
Point(p19 + 4) = {21.5198456504559, -1.134663110612582, 0};
Point(p19 + 5) = {21.45304564582538, -1.056450354174623, 0};
Point(p19 + 6) = {21.37483288938742, -0.9896503495441038, 0};
Point(p19 + 7) = {21.28713323877878, -0.9359079345315328, 0};
Point(p19 + 8) = {21.1921061504559, -0.896546425755369, 0};
Point(p19 + 9) = {21.0920915067101, -0.8725350341950396, 0};
Point(p19 + 10) = {20.989552, -0.8644649999999999, 0};
Point(p19 + 11) = {20.88701249328989, -0.8725350341950396, 0};
Point(p19 + 12) = {20.7869978495441, -0.8965464257553689, 0};
Point(p19 + 13) = {20.69197076122122, -0.9359079345315328, 0};
Point(p19 + 14) = {20.60427111061258, -0.9896503495441038, 0};
Point(p19 + 15) = {20.52605835417462, -1.056450354174623, 0};
Point(p19 + 16) = {20.4592583495441, -1.134663110612582, 0};
Point(p19 + 17) = {20.40551593453153, -1.222362761221222, 0};
Point(p19 + 18) = {20.36615442575537, -1.317389849544104, 0};
Point(p19 + 19) = {20.34214303419504, -1.417404493289894, 0};
Point(p19 + 20) = {20.334073, -1.519944, 0};
Point(p19 + 21) = {20.34214303419504, -1.622483506710105, 0};
Point(p19 + 22) = {20.36615442575537, -1.722498150455896, 0};
Point(p19 + 23) = {20.40551593453153, -1.817525238778778, 0};
Point(p19 + 24) = {20.4592583495441, -1.905224889387418, 0};
Point(p19 + 25) = {20.52605835417462, -1.983437645825377, 0};
Point(p19 + 26) = {20.60427111061258, -2.050237650455896, 0};
Point(p19 + 27) = {20.69197076122122, -2.103980065468467, 0};
Point(p19 + 28) = {20.7869978495441, -2.143341574244631, 0};
Point(p19 + 29) = {20.88701249328989, -2.16735296580496, 0};
Point(p19 + 30) = {20.989552, -2.175423, 0};
Point(p19 + 31) = {21.0920915067101, -2.16735296580496, 0};
Point(p19 + 32) = {21.1921061504559, -2.143341574244631, 0};
Point(p19 + 33) = {21.28713323877878, -2.103980065468467, 0};
Point(p19 + 34) = {21.37483288938742, -2.050237650455896, 0};
Point(p19 + 35) = {21.45304564582538, -1.983437645825377, 0};
Point(p19 + 36) = {21.5198456504559, -1.905224889387418, 0};
Point(p19 + 37) = {21.57358806546847, -1.817525238778778, 0};
Point(p19 + 38) = {21.61294957424463, -1.722498150455896, 0};
Point(p19 + 39) = {21.63696096580496, -1.622483506710106, 0};
Spline(19) = {15, p19 + 1, p19 + 2, p19 + 3, p19 + 4, p19 + 5, p19 + 6, p19 + 7, p19 + 8, p19 + 9, p19 + 10, p19 + 11, p19 + 12, p19 + 13, p19 + 14, p19 + 15, p19 + 16, p19 + 17, p19 + 18, p19 + 19, p19 + 20, p19 + 21, p19 + 22, p19 + 23, p19 + 24, p19 + 25, p19 + 26, p19 + 27, p19 + 28, p19 + 29, p19 + 30, p19 + 31, p19 + 32, p19 + 33, p19 + 34, p19 + 35, p19 + 36, p19 + 37, p19 + 38, p19 + 39, 15};
p20 = newp;
Point(p20 + 1) = {20.4017521757867, 0.474327802428049, 0};
Point(p20 + 2) = {20.3753611076562, 0.5842545124444815, 0};
Point(p20 + 3) = {20.33209863129279, 0.6886993696228588, 0};
Point(p20 + 4) = {20.27303001244448, 0.7850905949468416, 0};
Point(p20 + 5) = {20.19960971654482, 0.8710547165448175, 0};
Point(p20 + 6) = {20.11364559494684, 0.9444750124444815, 0};
Point(p20 + 7) = {20.01725436962286, 1.003543631292792, 0};
Point(p20 + 8) = {19.91280951244448, 1.046806107656197, 0};
Point(p20 + 9) = {19.80288280242805, 1.073197175786702, 0};
Point(p20 + 10) = {19.690181, 1.082067, 0};
Point(p20 + 11) = {19.57747919757195, 1.073197175786702, 0};
Point(p20 + 12) = {19.46755248755552, 1.046806107656197, 0};
Point(p20 + 13) = {19.36310763037714, 1.003543631292792, 0};
Point(p20 + 14) = {19.26671640505316, 0.9444750124444815, 0};
Point(p20 + 15) = {19.18075228345518, 0.8710547165448175, 0};
Point(p20 + 16) = {19.10733198755552, 0.7850905949468417, 0};
Point(p20 + 17) = {19.04826336870721, 0.6886993696228589, 0};
Point(p20 + 18) = {19.0050008923438, 0.5842545124444816, 0};
Point(p20 + 19) = {18.9786098242133, 0.4743278024280491, 0};
Point(p20 + 20) = {18.96974, 0.3616260000000001, 0};
Point(p20 + 21) = {18.9786098242133, 0.2489241975719511, 0};
Point(p20 + 22) = {19.0050008923438, 0.1389974875555183, 0};
Point(p20 + 23) = {19.04826336870721, 0.03455263037714157, 0};
Point(p20 + 24) = {19.10733198755552, -0.06183859494684157, 0};
Point(p20 + 25) = {19.18075228345518, -0.1478027165448175, 0};
Point(p20 + 26) = {19.26671640505316, -0.2212230124444814, 0};
Point(p20 + 27) = {19.36310763037714, -0.2802916312927919, 0};
Point(p20 + 28) = {19.46755248755552, -0.3235541076561967, 0};
Point(p20 + 29) = {19.57747919757195, -0.3499451757867016, 0};
Point(p20 + 30) = {19.690181, -0.358815, 0};
Point(p20 + 31) = {19.80288280242805, -0.3499451757867017, 0};
Point(p20 + 32) = {19.91280951244448, -0.3235541076561967, 0};
Point(p20 + 33) = {20.01725436962286, -0.280291631292792, 0};
Point(p20 + 34) = {20.11364559494684, -0.2212230124444816, 0};
Point(p20 + 35) = {20.19960971654482, -0.1478027165448176, 0};
Point(p20 + 36) = {20.27303001244448, -0.0618385949468418, 0};
Point(p20 + 37) = {20.33209863129279, 0.03455263037714107, 0};
Point(p20 + 38) = {20.3753611076562, 0.1389974875555184, 0};
Point(p20 + 39) = {20.4017521757867, 0.2489241975719509, 0};
Spline(20) = {16, p20 + 1, p20 + 2, p20 + 3, p20 + 4, p20 + 5, p20 + 6, p20 + 7, p20 + 8, p20 + 9, p20 + 10, p20 + 11, p20 + 12, p20 + 13, p20 + 14, p20 + 15, p20 + 16, p20 + 17, p20 + 18, p20 + 19, p20 + 20, p20 + 21, p20 + 22, p20 + 23, p20 + 24, p20 + 25, p20 + 26, p20 + 27, p20 + 28, p20 + 29, p20 + 30, p20 + 31, p20 + 32, p20 + 33, p20 + 34, p20 + 35, p20 + 36, p20 + 37, p20 + 38, p20 + 39, 16};
p21 = newp;
Point(p21 + 1) = {23.03796216272247, 2.957237077836799, 0};
Point(p21 + 2) = {22.99698873460645, 3.127903688548266, 0};
Point(p21 + 3) = {22.92982161743517, 3.290059453768678, 0};
Point(p21 + 4) = {22.83811468854827, 3.439711560394177, 0};
Point(p21 + 5) = {22.72412607689278, 3.573175076892777, 0};
Point(p21 + 6) = {22.59066256039418, 3.687163688548266, 0};
Point(p21 + 7) = {22.44101045376868, 3.778870617435173, 0};
Point(p21 + 8) = {22.27885468854826, 3.846037734606455, 0};
Point(p21 + 9) = {22.1081880778368, 3.887011162722473, 0};
Point(p21 + 10) = {21.933213, 3.900782, 0};
Point(p21 + 11) = {21.7582379221632, 3.887011162722473, 0};
Point(p21 + 12) = {21.58757131145173, 3.846037734606455, 0};
Point(p21 + 13) = {21.42541554623132, 3.778870617435173, 0};
Point(p21 + 14) = {21.27576343960582, 3.687163688548266, 0};
Point(p21 + 15) = {21.14229992310722, 3.573175076892777, 0};
Point(p21 + 16) = {21.02831131145173, 3.439711560394177, 0};
Point(p21 + 17) = {20.93660438256483, 3.290059453768678, 0};
Point(p21 + 18) = {20.86943726539354, 3.127903688548266, 0};
Point(p21 + 19) = {20.82846383727752, 2.957237077836799, 0};
Point(p21 + 20) = {20.814693, 2.782262, 0};
Point(p21 + 21) = {20.82846383727752, 2.607286922163201, 0};
Point(p21 + 22) = {20.86943726539354, 2.436620311451733, 0};
Point(p21 + 23) = {20.93660438256482, 2.274464546231322, 0};
Point(p21 + 24) = {21.02831131145173, 2.124812439605823, 0};
Point(p21 + 25) = {21.14229992310722, 1.991348923107223, 0};
Point(p21 + 26) = {21.27576343960582, 1.877360311451734, 0};
Point(p21 + 27) = {21.42541554623132, 1.785653382564827, 0};
Point(p21 + 28) = {21.58757131145173, 1.718486265393545, 0};
Point(p21 + 29) = {21.7582379221632, 1.677512837277527, 0};
Point(p21 + 30) = {21.933213, 1.663742, 0};
Point(p21 + 31) = {22.1081880778368, 1.677512837277526, 0};
Point(p21 + 32) = {22.27885468854826, 1.718486265393545, 0};
Point(p21 + 33) = {22.44101045376868, 1.785653382564826, 0};
Point(p21 + 34) = {22.59066256039418, 1.877360311451733, 0};
Point(p21 + 35) = {22.72412607689278, 1.991348923107223, 0};
Point(p21 + 36) = {22.83811468854826, 2.124812439605822, 0};
Point(p21 + 37) = {22.92982161743517, 2.274464546231322, 0};
Point(p21 + 38) = {22.99698873460645, 2.436620311451733, 0};
Point(p21 + 39) = {23.03796216272247, 2.607286922163201, 0};
Spline(21) = {17, p21 + 1, p21 + 2, p21 + 3, p21 + 4, p21 + 5, p21 + 6, p21 + 7, p21 + 8, p21 + 9, p21 + 10, p21 + 11, p21 + 12, p21 + 13, p21 + 14, p21 + 15, p21 + 16, p21 + 17, p21 + 18, p21 + 19, p21 + 20, p21 + 21, p21 + 22, p21 + 23, p21 + 24, p21 + 25, p21 + 26, p21 + 27, p21 + 28, p21 + 29, p21 + 30, p21 + 31, p21 + 32, p21 + 33, p21 + 34, p21 + 35, p21 + 36, p21 + 37, p21 + 38, p21 + 39, 17};
p22 = newp;
Point(p22 + 1) = {25.37604483033253, 2.023542385931819, 0};
Point(p22 + 2) = {25.29018110860805, 2.177518286923903, 0};
Point(p22 + 3) = {25.18554627079111, 2.31940805931687, 0};
Point(p22 + 4) = {25.06381828111319, 2.44693630451641, 0};
Point(p22 + 5) = {24.92694921611882, 2.558057930864625, 0};
Point(p22 + 6) = {24.77713396042049, 2.650990949511117, 0};
Point(p22 + 7) = {24.61677500869046, 2.724245051066933, 0};
Point(p22 + 8) = {24.44844393833842, 2.77664550477526, 0};
Point(p22 + 9) = {24.27484017071374, 2.8073519969426, 0};
Point(p22 + 10) = {24.09874768215356, 2.815872106530175, 0};
Point(p22 + 11) = {23.92299035907462, 2.802069201805816, 0};
Point(p22 + 12) = {23.750386713052, 2.766164631422619, 0};
Point(p22 + 13) = {23.58370468209073, 2.708734174787383, 0};
Point(p22 + 14) = {23.42561724291458, 2.630698808642086, 0};
Point(p22 + 15) = {23.27865954609016, 2.53330993792902, 0};
Point(p22 + 16) = {23.145188261384, 2.418129327783083, 0};
Point(p22 + 17) = {23.02734378530586, 2.287004058469454, 0};
Point(p22 + 18) = {22.92701591689264, 2.142036904898846, 0};
Point(p22 + 19) = {22.84581355216911, 1.985552615725743, 0};
Point(p22 + 20) = {22.78503888327661, 1.820060632790885, 0};
Point(p22 + 21) = {22.74566651602242, 1.648214848753263, 0};
Point(p22 + 22) = {22.72832784072872, 1.472771048253606, 0};
Point(p22 + 23) = {22.73330090701617, 1.296542715099131, 0};
Point(p22 + 24) = {22.76050596489398, 1.122355914162411, 0};
Point(p22 + 25) = {22.80950674366127, 0.9530039715254771, 0};
Point(p22 + 26) = {22.87951744811062, 0.7912026796356703, 0};
Point(p22 + 27) = {22.96941535984023, 0.6395467458204764, 0};
Point(p22 + 28) = {23.07775884159514, 0.5004681825696068, 0};
Point(p22 + 29) = {23.20281045591296, 0.3761973068536393, 0};
Point(p22 + 30) = {23.3425648273347, 0.2687269739090647, 0};
Point(p22 + 31) = {23.4947808013718, 0.1797806190504083, 0};
Point(p22 + 32) = {23.65701738451559, 0.1107846200031479, 0};
Point(p22 + 33) = {23.82667288894177, 0.06284542296560613, 0};
Point(p22 + 34) = {24.00102665417016, 0.03673179921503489, 0};
Point(p22 + 35) = {24.17728267661558, 0.03286251679773033, 0};
Point(p22 + 36) = {24.3526144473694, 0.05129962500466578, 0};
Point(p22 + 37) = {24.5242102791762, 0.09174745932535711, 0};
Point(p22 + 38) = {24.68931839572473, 0.1535573828369032, 0};
Point(p22 + 39) = {24.84529106018399, 0.2357381879934708, 0};
Spline(22) = {18, p22 + 1, p22 + 2, p22 + 3, p22 + 4, p22 + 5, p22 + 6, p22 + 7, p22 + 8, p22 + 9, p22 + 10, p22 + 11, p22 + 12, p22 + 13, p22 + 14, p22 + 15, p22 + 16, p22 + 17, p22 + 18, p22 + 19, p22 + 20, p22 + 21, p22 + 22, p22 + 23, p22 + 24, p22 + 25, p22 + 26, p22 + 27, p22 + 28, p22 + 29, p22 + 30, p22 + 31, p22 + 32, p22 + 33, p22 + 34, p22 + 35, p22 + 36, p22 + 37, p22 + 38, p22 + 39, 19};
p23 = newp;
Point(p23 + 1) = {26.210847, 0.803025, 0};
Circle(23) = {20, p23 + 1, 18};
p24 = newp;
Point(p24 + 1) = {26.210847, 0.803025, 0};
Circle(24) = {19, p24 + 1, 20};
Line(25) = {15, 8};
Line(26) = {16, 9};
Line(27) = {17, 10};
Line(28) = {19, 12};
Line(29) = {18, 11};
Line(30) = {20, 13};
Curve Loop(1) = {-1, 4, 3, -2};
Plane Surface(1) = {1};
Curve Loop(2) = {-5, 1, 7, -6};
Plane Surface(2) = {2};
Curve Loop(3) = {-2, 7, 9, -8, -10, -11, -12, -13, -14, -15};
Plane Surface(3) = {3};
Curve Loop(4) = {-16, 3, 8, -17};
Plane Surface(4) = {4};
Curve Loop(5) = {-4, 5, 18, -16, -19, -20, -21, -22, -23, -24};
Plane Surface(5) = {5};
Curve Loop(6) = {-6, 18, 17, -9};
Plane Surface(6) = {6};
Curve Loop(7) = {-10, -25, 19, 25};
Surface(7) = {7};
Curve Loop(8) = {-11, -26, 20, 26};
Surface(8) = {8};
Curve Loop(9) = {-12, -27, 21, 27};
Surface(9) = {9};
Curve Loop(10) = {-13, -29, 22, 28};
Surface(10) = {10};
Curve Loop(11) = {-14, -30, 23, 29};
Surface(11) = {11};
Curve Loop(12) = {30, -15, -28, 24};
Surface(12) = {12};
Surface Loop(1) = {1, 2, 3, 4, 5, 6, 7, 8, 9, 10, 11, 12};
Volume(1) = {1};
Physical Surface("INFLOW") = {1};
Physical Surface("OUTFLOW") = {6};
Physical Surface("OBSTACLE") = {7};
Physical Surface("WALL_Y") = {2, 4};
Physical Surface("WALL_Z") = {3, 5};
Physical Volume("FLUID") = {1};
