cl__1 = 1.14625;
cl__2 = 1.238414;
cl__3 = 3.309327;
cl__4 = 1e+22;
cl__5 = 0.070951;
cl__6 = 0.111852;
cl__7 = 0.057979;
cl__8 = 0.065548;
Point(1) = {0.639427, -4.004003, 1, cl__1};
Point(2) = {0.639427, -4.004003, 0, cl__1};
Point(3) = {0.639427, 4.054023999999999, 1, cl__2};
Point(4) = {0.639427, 4.054023999999999, 0, cl__2};
Point(5) = {32.750293, -4.004003, 0, cl__3};
Point(6) = {32.750293, -4.004003, 1, cl__3};
Point(7) = {32.750293, 4.054023999999999, 1, cl__3};
Point(8) = {9.022447, -1.603718, 1, cl__3};
Point(9) = {12.66861, -1.179953, 1, cl__4};
Point(10) = {21.645031, -1.519944, 1, cl__5};
Point(11) = {20.410622, 0.3616259999999998, 1, cl__5};
Point(12) = {25.44176049252165, 1.85994957271024, 1, cl__6};
Point(13) = {24.98962703532261, 0.3369719920091609, 1, cl__4};
Point(14) = {27.517975, 0.8030249999999997, 1, cl__4};
Point(15) = {23.051733, 2.782261999999999, 1, cl__7};
Point(16) = {32.750293, 4.054023999999999, 0, cl__8};
Point(17) = {9.022447, -1.603718, 0, cl__4};
Point(18) = {12.66861, -1.179953, 0, cl__4};
Point(19) = {21.645031, -1.519944, 0, cl__4};
Point(20) = {20.410622, 0.3616259999999998, 0, cl__4};
Point(21) = {25.44176049252165, 1.85994957271024, 0, cl__4};
Point(22) = {24.98962703532261, 0.3369719920091609, 0, cl__4};
Point(23) = {27.517975, 0.8030249999999997, 0, cl__4};
Point(24) = {23.051733, 2.782261999999999, 0, cl__4};
Line(1) = {2, 1};
Line(2) = {1, 3};
Line(3) = {4, 3};
Line(4) = {2, 4};
Line(5) = {2, 5};
Line(6) = {5, 6};
Line(7) = {1, 6};
Line(8) = {3, 7};
Line(9) = {6, 7};
p10 = newp;
Point(p10 + 1) = {9.015308798370336, -1.513018548645394, 1};
Point(p10 + 2) = {8.9940699596958, -1.424552418797361, 1};
Point(p10 + 3) = {8.959253454672222, -1.340497940175009, 1};
Point(p10 + 4) = {8.91171658120264, -1.262924813002842, 1};
Point(p10 + 5) = {8.85262985487771, -1.193743145122289, 1};
Point(p10 + 6) = {8.783448186997157, -1.13465641879736, 1};
Point(p10 + 7) = {8.705875059824992, -1.087119545327778, 1};
Point(p10 + 8) = {8.621820581202639, -1.0523030403042, 1};
Point(p10 + 9) = {8.533354451354606, -1.031064201629664, 1};
Point(p10 + 10) = {8.442655, -1.023926, 1};
Point(p10 + 11) = {8.351955548645394, -1.031064201629664, 1};
Point(p10 + 12) = {8.263489418797361, -1.0523030403042, 1};
Point(p10 + 13) = {8.179434940175009, -1.087119545327778, 1};
Point(p10 + 14) = {8.101861813002843, -1.13465641879736, 1};
Point(p10 + 15) = {8.03268014512229, -1.193743145122289, 1};
Point(p10 + 16) = {7.97359341879736, -1.262924813002842, 1};
Point(p10 + 17) = {7.926056545327778, -1.340497940175009, 1};
Point(p10 + 18) = {7.891240040304201, -1.42455241879736, 1};
Point(p10 + 19) = {7.870001201629664, -1.513018548645394, 1};
Point(p10 + 20) = {7.862863, -1.603718, 1};
Point(p10 + 21) = {7.870001201629664, -1.694417451354606, 1};
Point(p10 + 22) = {7.891240040304201, -1.78288358120264, 1};
Point(p10 + 23) = {7.926056545327778, -1.866938059824991, 1};
Point(p10 + 24) = {7.97359341879736, -1.944511186997157, 1};
Point(p10 + 25) = {8.03268014512229, -2.013692854877711, 1};
Point(p10 + 26) = {8.101861813002843, -2.072779581202639, 1};
Point(p10 + 27) = {8.179434940175009, -2.120316454672222, 1};
Point(p10 + 28) = {8.263489418797361, -2.1551329596958, 1};
Point(p10 + 29) = {8.351955548645394, -2.176371798370336, 1};
Point(p10 + 30) = {8.442655, -2.18351, 1};
Point(p10 + 31) = {8.533354451354606, -2.176371798370336, 1};
Point(p10 + 32) = {8.621820581202639, -2.1551329596958, 1};
Point(p10 + 33) = {8.705875059824992, -2.120316454672222, 1};
Point(p10 + 34) = {8.783448186997157, -2.072779581202639, 1};
Point(p10 + 35) = {8.85262985487771, -2.013692854877711, 1};
Point(p10 + 36) = {8.91171658120264, -1.944511186997158, 1};
Point(p10 + 37) = {8.959253454672222, -1.866938059824991, 1};
Point(p10 + 38) = {8.9940699596958, -1.78288358120264, 1};
Point(p10 + 39) = {9.015308798370336, -1.694417451354606, 1};
Spline(10) = {8, p10 + 1, p10 + 2, p10 + 3, p10 + 4, p10 + 5, p10 + 6, p10 + 7, p10 + 8, p10 + 9, p10 + 10, p10 + 11, p10 + 12, p10 + 13, p10 + 14, p10 + 15, p10 + 16, p10 + 17, p10 + 18, p10 + 19, p10 + 20, p10 + 21, p10 + 22, p10 + 23, p10 + 24, p10 + 25, p10 + 26, p10 + 27, p10 + 28, p10 + 29, p10 + 30, p10 + 31, p10 + 32, p10 + 33, p10 + 34, p10 + 35, p10 + 36, p10 + 37, p10 + 38, p10 + 39, 8};
p11 = newp;
Point(p11 + 1) = {12.65987479147064, -1.068961652012701, 1};
Point(p11 + 2) = {12.63388425570703, -0.9607032793720143, 1};
Point(p11 + 3) = {12.59127836595732, -0.8578435625012935, 1};
Point(p11 + 4) = {12.53310622062799, -0.7629152490017244, 1};
Point(p11 + 5) = {12.46080021099932, -0.6782557890006763, 1};
Point(p11 + 6) = {12.37614075099828, -0.6059497793720142, 1};
Point(p11 + 7) = {12.28121243749871, -0.5477776340426838, 1};
Point(p11 + 8) = {12.17835272062799, -0.5051717442929745, 1};
Point(p11 + 9) = {12.0700943479873, -0.4791812085293656, 1};
Point(p11 + 10) = {11.959103, -0.470446, 1};
Point(p11 + 11) = {11.8481116520127, -0.4791812085293657, 1};
Point(p11 + 12) = {11.73985327937202, -0.5051717442929744, 1};
Point(p11 + 13) = {11.63699356250129, -0.5477776340426836, 1};
Point(p11 + 14) = {11.54206524900173, -0.6059497793720142, 1};
Point(p11 + 15) = {11.45740578900068, -0.6782557890006762, 1};
Point(p11 + 16) = {11.38509977937201, -0.7629152490017241, 1};
Point(p11 + 17) = {11.32692763404268, -0.8578435625012933, 1};
Point(p11 + 18) = {11.28432174429298, -0.9607032793720142, 1};
Point(p11 + 19) = {11.25833120852937, -1.068961652012701, 1};
Point(p11 + 20) = {11.249596, -1.179953, 1};
Point(p11 + 21) = {11.25833120852937, -1.290944347987299, 1};
Point(p11 + 22) = {11.28432174429298, -1.399202720627986, 1};
Point(p11 + 23) = {11.32692763404268, -1.502062437498706, 1};
Point(p11 + 24) = {11.38509977937201, -1.596990750998276, 1};
Point(p11 + 25) = {11.45740578900068, -1.681650210999324, 1};
Point(p11 + 26) = {11.54206524900173, -1.753956220627986, 1};
Point(p11 + 27) = {11.63699356250129, -1.812128365957316, 1};
Point(p11 + 28) = {11.73985327937202, -1.854734255707025, 1};
Point(p11 + 29) = {11.8481116520127, -1.880724791470634, 1};
Point(p11 + 30) = {11.959103, -1.88946, 1};
Point(p11 + 31) = {12.0700943479873, -1.880724791470634, 1};
Point(p11 + 32) = {12.17835272062799, -1.854734255707026, 1};
Point(p11 + 33) = {12.28121243749871, -1.812128365957316, 1};
Point(p11 + 34) = {12.37614075099828, -1.753956220627986, 1};
Point(p11 + 35) = {12.46080021099932, -1.681650210999324, 1};
Point(p11 + 36) = {12.53310622062799, -1.596990750998276, 1};
Point(p11 + 37) = {12.59127836595732, -1.502062437498707, 1};
Point(p11 + 38) = {12.63388425570703, -1.399202720627986, 1};
Point(p11 + 39) = {12.65987479147064, -1.290944347987299, 1};
Spline(11) = {9, p11 + 1, p11 + 2, p11 + 3, p11 + 4, p11 + 5, p11 + 6, p11 + 7, p11 + 8, p11 + 9, p11 + 10, p11 + 11, p11 + 12, p11 + 13, p11 + 14, p11 + 15, p11 + 16, p11 + 17, p11 + 18, p11 + 19, p11 + 20, p11 + 21, p11 + 22, p11 + 23, p11 + 24, p11 + 25, p11 + 26, p11 + 27, p11 + 28, p11 + 29, p11 + 30, p11 + 31, p11 + 32, p11 + 33, p11 + 34, p11 + 35, p11 + 36, p11 + 37, p11 + 38, p11 + 39, 9};
p12 = newp;
Point(p12 + 1) = {21.63696096580496, -1.417404493289894, 1};
Point(p12 + 2) = {21.61294957424463, -1.317389849544104, 1};
Point(p12 + 3) = {21.57358806546847, -1.222362761221222, 1};
Point(p12 + 4) = {21.5198456504559, -1.134663110612582, 1};
Point(p12 + 5) = {21.45304564582538, -1.056450354174623, 1};
Point(p12 + 6) = {21.37483288938742, -0.9896503495441038, 1};
Point(p12 + 7) = {21.28713323877878, -0.9359079345315328, 1};
Point(p12 + 8) = {21.1921061504559, -0.896546425755369, 1};
Point(p12 + 9) = {21.0920915067101, -0.8725350341950396, 1};
Point(p12 + 10) = {20.989552, -0.8644649999999999, 1};
Point(p12 + 11) = {20.88701249328989, -0.8725350341950396, 1};
Point(p12 + 12) = {20.7869978495441, -0.8965464257553689, 1};
Point(p12 + 13) = {20.69197076122122, -0.9359079345315328, 1};
Point(p12 + 14) = {20.60427111061258, -0.9896503495441038, 1};
Point(p12 + 15) = {20.52605835417462, -1.056450354174623, 1};
Point(p12 + 16) = {20.4592583495441, -1.134663110612582, 1};
Point(p12 + 17) = {20.40551593453153, -1.222362761221222, 1};
Point(p12 + 18) = {20.36615442575537, -1.317389849544104, 1};
Point(p12 + 19) = {20.34214303419504, -1.417404493289894, 1};
Point(p12 + 20) = {20.334073, -1.519944, 1};
Point(p12 + 21) = {20.34214303419504, -1.622483506710105, 1};
Point(p12 + 22) = {20.36615442575537, -1.722498150455896, 1};
Point(p12 + 23) = {20.40551593453153, -1.817525238778778, 1};
Point(p12 + 24) = {20.4592583495441, -1.905224889387418, 1};
Point(p12 + 25) = {20.52605835417462, -1.983437645825377, 1};
Point(p12 + 26) = {20.60427111061258, -2.050237650455896, 1};
Point(p12 + 27) = {20.69197076122122, -2.103980065468467, 1};
Point(p12 + 28) = {20.7869978495441, -2.143341574244631, 1};
Point(p12 + 29) = {20.88701249328989, -2.16735296580496, 1};
Point(p12 + 30) = {20.989552, -2.175423, 1};
Point(p12 + 31) = {21.0920915067101, -2.16735296580496, 1};
Point(p12 + 32) = {21.1921061504559, -2.143341574244631, 1};
Point(p12 + 33) = {21.28713323877878, -2.103980065468467, 1};
Point(p12 + 34) = {21.37483288938742, -2.050237650455896, 1};
Point(p12 + 35) = {21.45304564582538, -1.983437645825377, 1};
Point(p12 + 36) = {21.5198456504559, -1.905224889387418, 1};
Point(p12 + 37) = {21.57358806546847, -1.817525238778778, 1};
Point(p12 + 38) = {21.61294957424463, -1.722498150455896, 1};
Point(p12 + 39) = {21.63696096580496, -1.622483506710106, 1};
Spline(12) = {10, p12 + 1, p12 + 2, p12 + 3, p12 + 4, p12 + 5, p12 + 6, p12 + 7, p12 + 8, p12 + 9, p12 + 10, p12 + 11, p12 + 12, p12 + 13, p12 + 14, p12 + 15, p12 + 16, p12 + 17, p12 + 18, p12 + 19, p12 + 20, p12 + 21, p12 + 22, p12 + 23, p12 + 24, p12 + 25, p12 + 26, p12 + 27, p12 + 28, p12 + 29, p12 + 30, p12 + 31, p12 + 32, p12 + 33, p12 + 34, p12 + 35, p12 + 36, p12 + 37, p12 + 38, p12 + 39, 10};
p13 = newp;
Point(p13 + 1) = {20.4017521757867, 0.474327802428049, 1};
Point(p13 + 2) = {20.3753611076562, 0.5842545124444815, 1};
Point(p13 + 3) = {20.33209863129279, 0.6886993696228588, 1};
Point(p13 + 4) = {20.27303001244448, 0.7850905949468416, 1};
Point(p13 + 5) = {20.19960971654482, 0.8710547165448175, 1};
Point(p13 + 6) = {20.11364559494684, 0.9444750124444815, 1};
Point(p13 + 7) = {20.01725436962286, 1.003543631292792, 1};
Point(p13 + 8) = {19.91280951244448, 1.046806107656197, 1};
Point(p13 + 9) = {19.80288280242805, 1.073197175786702, 1};
Point(p13 + 10) = {19.690181, 1.082067, 1};
Point(p13 + 11) = {19.57747919757195, 1.073197175786702, 1};
Point(p13 + 12) = {19.46755248755552, 1.046806107656197, 1};
Point(p13 + 13) = {19.36310763037714, 1.003543631292792, 1};
Point(p13 + 14) = {19.26671640505316, 0.9444750124444815, 1};
Point(p13 + 15) = {19.18075228345518, 0.8710547165448175, 1};
Point(p13 + 16) = {19.10733198755552, 0.7850905949468417, 1};
Point(p13 + 17) = {19.04826336870721, 0.6886993696228589, 1};
Point(p13 + 18) = {19.0050008923438, 0.5842545124444816, 1};
Point(p13 + 19) = {18.9786098242133, 0.4743278024280491, 1};
Point(p13 + 20) = {18.96974, 0.3616260000000001, 1};
Point(p13 + 21) = {18.9786098242133, 0.2489241975719511, 1};
Point(p13 + 22) = {19.0050008923438, 0.1389974875555183, 1};
Point(p13 + 23) = {19.04826336870721, 0.03455263037714157, 1};
Point(p13 + 24) = {19.10733198755552, -0.06183859494684157, 1};
Point(p13 + 25) = {19.18075228345518, -0.1478027165448175, 1};
Point(p13 + 26) = {19.26671640505316, -0.2212230124444814, 1};
Point(p13 + 27) = {19.36310763037714, -0.2802916312927919, 1};
Point(p13 + 28) = {19.46755248755552, -0.3235541076561967, 1};
Point(p13 + 29) = {19.57747919757195, -0.3499451757867016, 1};
Point(p13 + 30) = {19.690181, -0.358815, 1};
Point(p13 + 31) = {19.80288280242805, -0.3499451757867017, 1};
Point(p13 + 32) = {19.91280951244448, -0.3235541076561967, 1};
Point(p13 + 33) = {20.01725436962286, -0.280291631292792, 1};
Point(p13 + 34) = {20.11364559494684, -0.2212230124444816, 1};
Point(p13 + 35) = {20.19960971654482, -0.1478027165448176, 1};
Point(p13 + 36) = {20.27303001244448, -0.0618385949468418, 1};
Point(p13 + 37) = {20.33209863129279, 0.03455263037714107, 1};
Point(p13 + 38) = {20.3753611076562, 0.1389974875555184, 1};
Point(p13 + 39) = {20.4017521757867, 0.2489241975719509, 1};
Spline(13) = {11, p13 + 1, p13 + 2, p13 + 3, p13 + 4, p13 + 5, p13 + 6, p13 + 7, p13 + 8, p13 + 9, p13 + 10, p13 + 11, p13 + 12, p13 + 13, p13 + 14, p13 + 15, p13 + 16, p13 + 17, p13 + 18, p13 + 19, p13 + 20, p13 + 21, p13 + 22, p13 + 23, p13 + 24, p13 + 25, p13 + 26, p13 + 27, p13 + 28, p13 + 29, p13 + 30, p13 + 31, p13 + 32, p13 + 33, p13 + 34, p13 + 35, p13 + 36, p13 + 37, p13 + 38, p13 + 39, 11};
p14 = newp;
Point(p14 + 1) = {25.37604483033253, 2.023542385931819, 1};
Point(p14 + 2) = {25.29018110860805, 2.177518286923903, 1};
Point(p14 + 3) = {25.18554627079111, 2.31940805931687, 1};
Point(p14 + 4) = {25.06381828111319, 2.44693630451641, 1};
Point(p14 + 5) = {24.92694921611882, 2.558057930864625, 1};
Point(p14 + 6) = {24.77713396042049, 2.650990949511117, 1};
Point(p14 + 7) = {24.61677500869046, 2.724245051066933, 1};
Point(p14 + 8) = {24.44844393833842, 2.77664550477526, 1};
Point(p14 + 9) = {24.27484017071374, 2.8073519969426, 1};
Point(p14 + 10) = {24.09874768215356, 2.815872106530175, 1};
Point(p14 + 11) = {23.92299035907462, 2.802069201805816, 1};
Point(p14 + 12) = {23.750386713052, 2.766164631422619, 1};
Point(p14 + 13) = {23.58370468209073, 2.708734174787383, 1};
Point(p14 + 14) = {23.42561724291458, 2.630698808642086, 1};
Point(p14 + 15) = {23.27865954609016, 2.53330993792902, 1};
Point(p14 + 16) = {23.145188261384, 2.418129327783083, 1};
Point(p14 + 17) = {23.02734378530586, 2.287004058469454, 1};
Point(p14 + 18) = {22.92701591689264, 2.142036904898846, 1};
Point(p14 + 19) = {22.84581355216911, 1.985552615725743, 1};
Point(p14 + 20) = {22.78503888327661, 1.820060632790885, 1};
Point(p14 + 21) = {22.74566651602242, 1.648214848753263, 1};
Point(p14 + 22) = {22.72832784072872, 1.472771048253606, 1};
Point(p14 + 23) = {22.73330090701617, 1.296542715099131, 1};
Point(p14 + 24) = {22.76050596489398, 1.122355914162411, 1};
Point(p14 + 25) = {22.80950674366127, 0.9530039715254771, 1};
Point(p14 + 26) = {22.87951744811062, 0.7912026796356703, 1};
Point(p14 + 27) = {22.96941535984023, 0.6395467458204764, 1};
Point(p14 + 28) = {23.07775884159514, 0.5004681825696068, 1};
Point(p14 + 29) = {23.20281045591296, 0.3761973068536393, 1};
Point(p14 + 30) = {23.3425648273347, 0.2687269739090647, 1};
Point(p14 + 31) = {23.4947808013718, 0.1797806190504083, 1};
Point(p14 + 32) = {23.65701738451559, 0.1107846200031479, 1};
Point(p14 + 33) = {23.82667288894177, 0.06284542296560613, 1};
Point(p14 + 34) = {24.00102665417016, 0.03673179921503489, 1};
Point(p14 + 35) = {24.17728267661558, 0.03286251679773033, 1};
Point(p14 + 36) = {24.3526144473694, 0.05129962500466578, 1};
Point(p14 + 37) = {24.5242102791762, 0.09174745932535711, 1};
Point(p14 + 38) = {24.68931839572473, 0.1535573828369032, 1};
Point(p14 + 39) = {24.84529106018399, 0.2357381879934708, 1};
Spline(14) = {12, p14 + 1, p14 + 2, p14 + 3, p14 + 4, p14 + 5, p14 + 6, p14 + 7, p14 + 8, p14 + 9, p14 + 10, p14 + 11, p14 + 12, p14 + 13, p14 + 14, p14 + 15, p14 + 16, p14 + 17, p14 + 18, p14 + 19, p14 + 20, p14 + 21, p14 + 22, p14 + 23, p14 + 24, p14 + 25, p14 + 26, p14 + 27, p14 + 28, p14 + 29, p14 + 30, p14 + 31, p14 + 32, p14 + 33, p14 + 34, p14 + 35, p14 + 36, p14 + 37, p14 + 38, p14 + 39, 13};
p15 = newp;
Point(p15 + 1) = {26.210847, 0.803025, 1};
Circle(15) = {14, p15 + 1, 12};
p16 = newp;
Point(p16 + 1) = {26.210847, 0.803025, 1};
Circle(16) = {13, p16 + 1, 14};
p17 = newp;
Point(p17 + 1) = {23.03796216272247, 2.957237077836799, 1};
Point(p17 + 2) = {22.99698873460645, 3.127903688548266, 1};
Point(p17 + 3) = {22.92982161743517, 3.290059453768678, 1};
Point(p17 + 4) = {22.83811468854827, 3.439711560394177, 1};
Point(p17 + 5) = {22.72412607689278, 3.573175076892777, 1};
Point(p17 + 6) = {22.59066256039418, 3.687163688548266, 1};
Point(p17 + 7) = {22.44101045376868, 3.778870617435173, 1};
Point(p17 + 8) = {22.27885468854826, 3.846037734606455, 1};
Point(p17 + 9) = {22.1081880778368, 3.887011162722473, 1};
Point(p17 + 10) = {21.933213, 3.900782, 1};
Point(p17 + 11) = {21.7582379221632, 3.887011162722473, 1};
Point(p17 + 12) = {21.58757131145173, 3.846037734606455, 1};
Point(p17 + 13) = {21.42541554623132, 3.778870617435173, 1};
Point(p17 + 14) = {21.27576343960582, 3.687163688548266, 1};
Point(p17 + 15) = {21.14229992310722, 3.573175076892777, 1};
Point(p17 + 16) = {21.02831131145173, 3.439711560394177, 1};
Point(p17 + 17) = {20.93660438256483, 3.290059453768678, 1};
Point(p17 + 18) = {20.86943726539354, 3.127903688548266, 1};
Point(p17 + 19) = {20.82846383727752, 2.957237077836799, 1};
Point(p17 + 20) = {20.814693, 2.782262, 1};
Point(p17 + 21) = {20.82846383727752, 2.607286922163201, 1};
Point(p17 + 22) = {20.86943726539354, 2.436620311451733, 1};
Point(p17 + 23) = {20.93660438256482, 2.274464546231322, 1};
Point(p17 + 24) = {21.02831131145173, 2.124812439605823, 1};
Point(p17 + 25) = {21.14229992310722, 1.991348923107223, 1};
Point(p17 + 26) = {21.27576343960582, 1.877360311451734, 1};
Point(p17 + 27) = {21.42541554623132, 1.785653382564827, 1};
Point(p17 + 28) = {21.58757131145173, 1.718486265393545, 1};
Point(p17 + 29) = {21.7582379221632, 1.677512837277527, 1};
Point(p17 + 30) = {21.933213, 1.663742, 1};
Point(p17 + 31) = {22.1081880778368, 1.677512837277526, 1};
Point(p17 + 32) = {22.27885468854826, 1.718486265393545, 1};
Point(p17 + 33) = {22.44101045376868, 1.785653382564826, 1};
Point(p17 + 34) = {22.59066256039418, 1.877360311451733, 1};
Point(p17 + 35) = {22.72412607689278, 1.991348923107223, 1};
Point(p17 + 36) = {22.83811468854826, 2.124812439605822, 1};
Point(p17 + 37) = {22.92982161743517, 2.274464546231322, 1};
Point(p17 + 38) = {22.99698873460645, 2.436620311451733, 1};
Point(p17 + 39) = {23.03796216272247, 2.607286922163201, 1};
Spline(17) = {15, p17 + 1, p17 + 2, p17 + 3, p17 + 4, p17 + 5, p17 + 6, p17 + 7, p17 + 8, p17 + 9, p17 + 10, p17 + 11, p17 + 12, p17 + 13, p17 + 14, p17 + 15, p17 + 16, p17 + 17, p17 + 18, p17 + 19, p17 + 20, p17 + 21, p17 + 22, p17 + 23, p17 + 24, p17 + 25, p17 + 26, p17 + 27, p17 + 28, p17 + 29, p17 + 30, p17 + 31, p17 + 32, p17 + 33, p17 + 34, p17 + 35, p17 + 36, p17 + 37, p17 + 38, p17 + 39, 15};
Line(18) = {4, 16};
Line(19) = {16, 7};
Line(20) = {5, 16};
p21 = newp;
Point(p21 + 1) = {9.015308798370336, -1.513018548645394, 0};
Point(p21 + 2) = {8.9940699596958, -1.424552418797361, 0};
Point(p21 + 3) = {8.959253454672222, -1.340497940175009, 0};
Point(p21 + 4) = {8.91171658120264, -1.262924813002842, 0};
Point(p21 + 5) = {8.85262985487771, -1.193743145122289, 0};
Point(p21 + 6) = {8.783448186997157, -1.13465641879736, 0};
Point(p21 + 7) = {8.705875059824992, -1.087119545327778, 0};
Point(p21 + 8) = {8.621820581202639, -1.0523030403042, 0};
Point(p21 + 9) = {8.533354451354606, -1.031064201629664, 0};
Point(p21 + 10) = {8.442655, -1.023926, 0};
Point(p21 + 11) = {8.351955548645394, -1.031064201629664, 0};
Point(p21 + 12) = {8.263489418797361, -1.0523030403042, 0};
Point(p21 + 13) = {8.179434940175009, -1.087119545327778, 0};
Point(p21 + 14) = {8.101861813002843, -1.13465641879736, 0};
Point(p21 + 15) = {8.03268014512229, -1.193743145122289, 0};
Point(p21 + 16) = {7.97359341879736, -1.262924813002842, 0};
Point(p21 + 17) = {7.926056545327778, -1.340497940175009, 0};
Point(p21 + 18) = {7.891240040304201, -1.42455241879736, 0};
Point(p21 + 19) = {7.870001201629664, -1.513018548645394, 0};
Point(p21 + 20) = {7.862863, -1.603718, 0};
Point(p21 + 21) = {7.870001201629664, -1.694417451354606, 0};
Point(p21 + 22) = {7.891240040304201, -1.78288358120264, 0};
Point(p21 + 23) = {7.926056545327778, -1.866938059824991, 0};
Point(p21 + 24) = {7.97359341879736, -1.944511186997157, 0};
Point(p21 + 25) = {8.03268014512229, -2.013692854877711, 0};
Point(p21 + 26) = {8.101861813002843, -2.072779581202639, 0};
Point(p21 + 27) = {8.179434940175009, -2.120316454672222, 0};
Point(p21 + 28) = {8.263489418797361, -2.1551329596958, 0};
Point(p21 + 29) = {8.351955548645394, -2.176371798370336, 0};
Point(p21 + 30) = {8.442655, -2.18351, 0};
Point(p21 + 31) = {8.533354451354606, -2.176371798370336, 0};
Point(p21 + 32) = {8.621820581202639, -2.1551329596958, 0};
Point(p21 + 33) = {8.705875059824992, -2.120316454672222, 0};
Point(p21 + 34) = {8.783448186997157, -2.072779581202639, 0};
Point(p21 + 35) = {8.85262985487771, -2.013692854877711, 0};
Point(p21 + 36) = {8.91171658120264, -1.944511186997158, 0};
Point(p21 + 37) = {8.959253454672222, -1.866938059824991, 0};
Point(p21 + 38) = {8.9940699596958, -1.78288358120264, 0};
Point(p21 + 39) = {9.015308798370336, -1.694417451354606, 0};
Spline(21) = {17, p21 + 1, p21 + 2, p21 + 3, p21 + 4, p21 + 5, p21 + 6, p21 + 7, p21 + 8, p21 + 9, p21 + 10, p21 + 11, p21 + 12, p21 + 13, p21 + 14, p21 + 15, p21 + 16, p21 + 17, p21 + 18, p21 + 19, p21 + 20, p21 + 21, p21 + 22, p21 + 23, p21 + 24, p21 + 25, p21 + 26, p21 + 27, p21 + 28, p21 + 29, p21 + 30, p21 + 31, p21 + 32, p21 + 33, p21 + 34, p21 + 35, p21 + 36, p21 + 37, p21 + 38, p21 + 39, 17};
p22 = newp;
Point(p22 + 1) = {12.65987479147064, -1.068961652012701, 0};
Point(p22 + 2) = {12.63388425570703, -0.9607032793720143, 0};
Point(p22 + 3) = {12.59127836595732, -0.8578435625012935, 0};
Point(p22 + 4) = {12.53310622062799, -0.7629152490017244, 0};
Point(p22 + 5) = {12.46080021099932, -0.6782557890006763, 0};
Point(p22 + 6) = {12.37614075099828, -0.6059497793720142, 0};
Point(p22 + 7) = {12.28121243749871, -0.5477776340426838, 0};
Point(p22 + 8) = {12.17835272062799, -0.5051717442929745, 0};
Point(p22 + 9) = {12.0700943479873, -0.4791812085293656, 0};
Point(p22 + 10) = {11.959103, -0.470446, 0};
Point(p22 + 11) = {11.8481116520127, -0.4791812085293657, 0};
Point(p22 + 12) = {11.73985327937202, -0.5051717442929744, 0};
Point(p22 + 13) = {11.63699356250129, -0.5477776340426836, 0};
Point(p22 + 14) = {11.54206524900173, -0.6059497793720142, 0};
Point(p22 + 15) = {11.45740578900068, -0.6782557890006762, 0};
Point(p22 + 16) = {11.38509977937201, -0.7629152490017241, 0};
Point(p22 + 17) = {11.32692763404268, -0.8578435625012933, 0};
Point(p22 + 18) = {11.28432174429298, -0.9607032793720142, 0};
Point(p22 + 19) = {11.25833120852937, -1.068961652012701, 0};
Point(p22 + 20) = {11.249596, -1.179953, 0};
Point(p22 + 21) = {11.25833120852937, -1.290944347987299, 0};
Point(p22 + 22) = {11.28432174429298, -1.399202720627986, 0};
Point(p22 + 23) = {11.32692763404268, -1.502062437498706, 0};
Point(p22 + 24) = {11.38509977937201, -1.596990750998276, 0};
Point(p22 + 25) = {11.45740578900068, -1.681650210999324, 0};
Point(p22 + 26) = {11.54206524900173, -1.753956220627986, 0};
Point(p22 + 27) = {11.63699356250129, -1.812128365957316, 0};
Point(p22 + 28) = {11.73985327937202, -1.854734255707025, 0};
Point(p22 + 29) = {11.8481116520127, -1.880724791470634, 0};
Point(p22 + 30) = {11.959103, -1.88946, 0};
Point(p22 + 31) = {12.0700943479873, -1.880724791470634, 0};
Point(p22 + 32) = {12.17835272062799, -1.854734255707026, 0};
Point(p22 + 33) = {12.28121243749871, -1.812128365957316, 0};
Point(p22 + 34) = {12.37614075099828, -1.753956220627986, 0};
Point(p22 + 35) = {12.46080021099932, -1.681650210999324, 0};
Point(p22 + 36) = {12.53310622062799, -1.596990750998276, 0};
Point(p22 + 37) = {12.59127836595732, -1.502062437498707, 0};
Point(p22 + 38) = {12.63388425570703, -1.399202720627986, 0};
Point(p22 + 39) = {12.65987479147064, -1.290944347987299, 0};
Spline(22) = {18, p22 + 1, p22 + 2, p22 + 3, p22 + 4, p22 + 5, p22 + 6, p22 + 7, p22 + 8, p22 + 9, p22 + 10, p22 + 11, p22 + 12, p22 + 13, p22 + 14, p22 + 15, p22 + 16, p22 + 17, p22 + 18, p22 + 19, p22 + 20, p22 + 21, p22 + 22, p22 + 23, p22 + 24, p22 + 25, p22 + 26, p22 + 27, p22 + 28, p22 + 29, p22 + 30, p22 + 31, p22 + 32, p22 + 33, p22 + 34, p22 + 35, p22 + 36, p22 + 37, p22 + 38, p22 + 39, 18};
p23 = newp;
Point(p23 + 1) = {21.63696096580496, -1.417404493289894, 0};
Point(p23 + 2) = {21.61294957424463, -1.317389849544104, 0};
Point(p23 + 3) = {21.57358806546847, -1.222362761221222, 0};
Point(p23 + 4) = {21.5198456504559, -1.134663110612582, 0};
Point(p23 + 5) = {21.45304564582538, -1.056450354174623, 0};
Point(p23 + 6) = {21.37483288938742, -0.9896503495441038, 0};
Point(p23 + 7) = {21.28713323877878, -0.9359079345315328, 0};
Point(p23 + 8) = {21.1921061504559, -0.896546425755369, 0};
Point(p23 + 9) = {21.0920915067101, -0.8725350341950396, 0};
Point(p23 + 10) = {20.989552, -0.8644649999999999, 0};
Point(p23 + 11) = {20.88701249328989, -0.8725350341950396, 0};
Point(p23 + 12) = {20.7869978495441, -0.8965464257553689, 0};
Point(p23 + 13) = {20.69197076122122, -0.9359079345315328, 0};
Point(p23 + 14) = {20.60427111061258, -0.9896503495441038, 0};
Point(p23 + 15) = {20.52605835417462, -1.056450354174623, 0};
Point(p23 + 16) = {20.4592583495441, -1.134663110612582, 0};
Point(p23 + 17) = {20.40551593453153, -1.222362761221222, 0};
Point(p23 + 18) = {20.36615442575537, -1.317389849544104, 0};
Point(p23 + 19) = {20.34214303419504, -1.417404493289894, 0};
Point(p23 + 20) = {20.334073, -1.519944, 0};
Point(p23 + 21) = {20.34214303419504, -1.622483506710105, 0};
Point(p23 + 22) = {20.36615442575537, -1.722498150455896, 0};
Point(p23 + 23) = {20.40551593453153, -1.817525238778778, 0};
Point(p23 + 24) = {20.4592583495441, -1.905224889387418, 0};
Point(p23 + 25) = {20.52605835417462, -1.983437645825377, 0};
Point(p23 + 26) = {20.60427111061258, -2.050237650455896, 0};
Point(p23 + 27) = {20.69197076122122, -2.103980065468467, 0};
Point(p23 + 28) = {20.7869978495441, -2.143341574244631, 0};
Point(p23 + 29) = {20.88701249328989, -2.16735296580496, 0};
Point(p23 + 30) = {20.989552, -2.175423, 0};
Point(p23 + 31) = {21.0920915067101, -2.16735296580496, 0};
Point(p23 + 32) = {21.1921061504559, -2.143341574244631, 0};
Point(p23 + 33) = {21.28713323877878, -2.103980065468467, 0};
Point(p23 + 34) = {21.37483288938742, -2.050237650455896, 0};
Point(p23 + 35) = {21.45304564582538, -1.983437645825377, 0};
Point(p23 + 36) = {21.5198456504559, -1.905224889387418, 0};
Point(p23 + 37) = {21.57358806546847, -1.817525238778778, 0};
Point(p23 + 38) = {21.61294957424463, -1.722498150455896, 0};
Point(p23 + 39) = {21.63696096580496, -1.622483506710106, 0};
Spline(23) = {19, p23 + 1, p23 + 2, p23 + 3, p23 + 4, p23 + 5, p23 + 6, p23 + 7, p23 + 8, p23 + 9, p23 + 10, p23 + 11, p23 + 12, p23 + 13, p23 + 14, p23 + 15, p23 + 16, p23 + 17, p23 + 18, p23 + 19, p23 + 20, p23 + 21, p23 + 22, p23 + 23, p23 + 24, p23 + 25, p23 + 26, p23 + 27, p23 + 28, p23 + 29, p23 + 30, p23 + 31, p23 + 32, p23 + 33, p23 + 34, p23 + 35, p23 + 36, p23 + 37, p23 + 38, p23 + 39, 19};
p24 = newp;
Point(p24 + 1) = {20.4017521757867, 0.474327802428049, 0};
Point(p24 + 2) = {20.3753611076562, 0.5842545124444815, 0};
Point(p24 + 3) = {20.33209863129279, 0.6886993696228588, 0};
Point(p24 + 4) = {20.27303001244448, 0.7850905949468416, 0};
Point(p24 + 5) = {20.19960971654482, 0.8710547165448175, 0};
Point(p24 + 6) = {20.11364559494684, 0.9444750124444815, 0};
Point(p24 + 7) = {20.01725436962286, 1.003543631292792, 0};
Point(p24 + 8) = {19.91280951244448, 1.046806107656197, 0};
Point(p24 + 9) = {19.80288280242805, 1.073197175786702, 0};
Point(p24 + 10) = {19.690181, 1.082067, 0};
Point(p24 + 11) = {19.57747919757195, 1.073197175786702, 0};
Point(p24 + 12) = {19.46755248755552, 1.046806107656197, 0};
Point(p24 + 13) = {19.36310763037714, 1.003543631292792, 0};
Point(p24 + 14) = {19.26671640505316, 0.9444750124444815, 0};
Point(p24 + 15) = {19.18075228345518, 0.8710547165448175, 0};
Point(p24 + 16) = {19.10733198755552, 0.7850905949468417, 0};
Point(p24 + 17) = {19.04826336870721, 0.6886993696228589, 0};
Point(p24 + 18) = {19.0050008923438, 0.5842545124444816, 0};
Point(p24 + 19) = {18.9786098242133, 0.4743278024280491, 0};
Point(p24 + 20) = {18.96974, 0.3616260000000001, 0};
Point(p24 + 21) = {18.9786098242133, 0.2489241975719511, 0};
Point(p24 + 22) = {19.0050008923438, 0.1389974875555183, 0};
Point(p24 + 23) = {19.04826336870721, 0.03455263037714157, 0};
Point(p24 + 24) = {19.10733198755552, -0.06183859494684157, 0};
Point(p24 + 25) = {19.18075228345518, -0.1478027165448175, 0};
Point(p24 + 26) = {19.26671640505316, -0.2212230124444814, 0};
Point(p24 + 27) = {19.36310763037714, -0.2802916312927919, 0};
Point(p24 + 28) = {19.46755248755552, -0.3235541076561967, 0};
Point(p24 + 29) = {19.57747919757195, -0.3499451757867016, 0};
Point(p24 + 30) = {19.690181, -0.358815, 0};
Point(p24 + 31) = {19.80288280242805, -0.3499451757867017, 0};
Point(p24 + 32) = {19.91280951244448, -0.3235541076561967, 0};
Point(p24 + 33) = {20.01725436962286, -0.280291631292792, 0};
Point(p24 + 34) = {20.11364559494684, -0.2212230124444816, 0};
Point(p24 + 35) = {20.19960971654482, -0.1478027165448176, 0};
Point(p24 + 36) = {20.27303001244448, -0.0618385949468418, 0};
Point(p24 + 37) = {20.33209863129279, 0.03455263037714107, 0};
Point(p24 + 38) = {20.3753611076562, 0.1389974875555184, 0};
Point(p24 + 39) = {20.4017521757867, 0.2489241975719509, 0};
Spline(24) = {20, p24 + 1, p24 + 2, p24 + 3, p24 + 4, p24 + 5, p24 + 6, p24 + 7, p24 + 8, p24 + 9, p24 + 10, p24 + 11, p24 + 12, p24 + 13, p24 + 14, p24 + 15, p24 + 16, p24 + 17, p24 + 18, p24 + 19, p24 + 20, p24 + 21, p24 + 22, p24 + 23, p24 + 24, p24 + 25, p24 + 26, p24 + 27, p24 + 28, p24 + 29, p24 + 30, p24 + 31, p24 + 32, p24 + 33, p24 + 34, p24 + 35, p24 + 36, p24 + 37, p24 + 38, p24 + 39, 20};
p25 = newp;
Point(p25 + 1) = {25.37604483033253, 2.023542385931819, 0};
Point(p25 + 2) = {25.29018110860805, 2.177518286923903, 0};
Point(p25 + 3) = {25.18554627079111, 2.31940805931687, 0};
Point(p25 + 4) = {25.06381828111319, 2.44693630451641, 0};
Point(p25 + 5) = {24.92694921611882, 2.558057930864625, 0};
Point(p25 + 6) = {24.77713396042049, 2.650990949511117, 0};
Point(p25 + 7) = {24.61677500869046, 2.724245051066933, 0};
Point(p25 + 8) = {24.44844393833842, 2.77664550477526, 0};
Point(p25 + 9) = {24.27484017071374, 2.8073519969426, 0};
Point(p25 + 10) = {24.09874768215356, 2.815872106530175, 0};
Point(p25 + 11) = {23.92299035907462, 2.802069201805816, 0};
Point(p25 + 12) = {23.750386713052, 2.766164631422619, 0};
Point(p25 + 13) = {23.58370468209073, 2.708734174787383, 0};
Point(p25 + 14) = {23.42561724291458, 2.630698808642086, 0};
Point(p25 + 15) = {23.27865954609016, 2.53330993792902, 0};
Point(p25 + 16) = {23.145188261384, 2.418129327783083, 0};
Point(p25 + 17) = {23.02734378530586, 2.287004058469454, 0};
Point(p25 + 18) = {22.92701591689264, 2.142036904898846, 0};
Point(p25 + 19) = {22.84581355216911, 1.985552615725743, 0};
Point(p25 + 20) = {22.78503888327661, 1.820060632790885, 0};
Point(p25 + 21) = {22.74566651602242, 1.648214848753263, 0};
Point(p25 + 22) = {22.72832784072872, 1.472771048253606, 0};
Point(p25 + 23) = {22.73330090701617, 1.296542715099131, 0};
Point(p25 + 24) = {22.76050596489398, 1.122355914162411, 0};
Point(p25 + 25) = {22.80950674366127, 0.9530039715254771, 0};
Point(p25 + 26) = {22.87951744811062, 0.7912026796356703, 0};
Point(p25 + 27) = {22.96941535984023, 0.6395467458204764, 0};
Point(p25 + 28) = {23.07775884159514, 0.5004681825696068, 0};
Point(p25 + 29) = {23.20281045591296, 0.3761973068536393, 0};
Point(p25 + 30) = {23.3425648273347, 0.2687269739090647, 0};
Point(p25 + 31) = {23.4947808013718, 0.1797806190504083, 0};
Point(p25 + 32) = {23.65701738451559, 0.1107846200031479, 0};
Point(p25 + 33) = {23.82667288894177, 0.06284542296560613, 0};
Point(p25 + 34) = {24.00102665417016, 0.03673179921503489, 0};
Point(p25 + 35) = {24.17728267661558, 0.03286251679773033, 0};
Point(p25 + 36) = {24.3526144473694, 0.05129962500466578, 0};
Point(p25 + 37) = {24.5242102791762, 0.09174745932535711, 0};
Point(p25 + 38) = {24.68931839572473, 0.1535573828369032, 0};
Point(p25 + 39) = {24.84529106018399, 0.2357381879934708, 0};
Spline(25) = {21, p25 + 1, p25 + 2, p25 + 3, p25 + 4, p25 + 5, p25 + 6, p25 + 7, p25 + 8, p25 + 9, p25 + 10, p25 + 11, p25 + 12, p25 + 13, p25 + 14, p25 + 15, p25 + 16, p25 + 17, p25 + 18, p25 + 19, p25 + 20, p25 + 21, p25 + 22, p25 + 23, p25 + 24, p25 + 25, p25 + 26, p25 + 27, p25 + 28, p25 + 29, p25 + 30, p25 + 31, p25 + 32, p25 + 33, p25 + 34, p25 + 35, p25 + 36, p25 + 37, p25 + 38, p25 + 39, 22};
p26 = newp;
Point(p26 + 1) = {26.210847, 0.803025, 0};
Circle(26) = {23, p26 + 1, 21};
p27 = newp;
Point(p27 + 1) = {26.210847, 0.803025, 0};
Circle(27) = {22, p27 + 1, 23};
p28 = newp;
Point(p28 + 1) = {23.03796216272247, 2.957237077836799, 0};
Point(p28 + 2) = {22.99698873460645, 3.127903688548266, 0};
Point(p28 + 3) = {22.92982161743517, 3.290059453768678, 0};
Point(p28 + 4) = {22.83811468854827, 3.439711560394177, 0};
Point(p28 + 5) = {22.72412607689278, 3.573175076892777, 0};
Point(p28 + 6) = {22.59066256039418, 3.687163688548266, 0};
Point(p28 + 7) = {22.44101045376868, 3.778870617435173, 0};
Point(p28 + 8) = {22.27885468854826, 3.846037734606455, 0};
Point(p28 + 9) = {22.1081880778368, 3.887011162722473, 0};
Point(p28 + 10) = {21.933213, 3.900782, 0};
Point(p28 + 11) = {21.7582379221632, 3.887011162722473, 0};
Point(p28 + 12) = {21.58757131145173, 3.846037734606455, 0};
Point(p28 + 13) = {21.42541554623132, 3.778870617435173, 0};
Point(p28 + 14) = {21.27576343960582, 3.687163688548266, 0};
Point(p28 + 15) = {21.14229992310722, 3.573175076892777, 0};
Point(p28 + 16) = {21.02831131145173, 3.439711560394177, 0};
Point(p28 + 17) = {20.93660438256483, 3.290059453768678, 0};
Point(p28 + 18) = {20.86943726539354, 3.127903688548266, 0};
Point(p28 + 19) = {20.82846383727752, 2.957237077836799, 0};
Point(p28 + 20) = {20.814693, 2.782262, 0};
Point(p28 + 21) = {20.82846383727752, 2.607286922163201, 0};
Point(p28 + 22) = {20.86943726539354, 2.436620311451733, 0};
Point(p28 + 23) = {20.93660438256482, 2.274464546231322, 0};
Point(p28 + 24) = {21.02831131145173, 2.124812439605823, 0};
Point(p28 + 25) = {21.14229992310722, 1.991348923107223, 0};
Point(p28 + 26) = {21.27576343960582, 1.877360311451734, 0};
Point(p28 + 27) = {21.42541554623132, 1.785653382564827, 0};
Point(p28 + 28) = {21.58757131145173, 1.718486265393545, 0};
Point(p28 + 29) = {21.7582379221632, 1.677512837277527, 0};
Point(p28 + 30) = {21.933213, 1.663742, 0};
Point(p28 + 31) = {22.1081880778368, 1.677512837277526, 0};
Point(p28 + 32) = {22.27885468854826, 1.718486265393545, 0};
Point(p28 + 33) = {22.44101045376868, 1.785653382564826, 0};
Point(p28 + 34) = {22.59066256039418, 1.877360311451733, 0};
Point(p28 + 35) = {22.72412607689278, 1.991348923107223, 0};
Point(p28 + 36) = {22.83811468854826, 2.124812439605822, 0};
Point(p28 + 37) = {22.92982161743517, 2.274464546231322, 0};
Point(p28 + 38) = {22.99698873460645, 2.436620311451733, 0};
Point(p28 + 39) = {23.03796216272247, 2.607286922163201, 0};
Spline(28) = {24, p28 + 1, p28 + 2, p28 + 3, p28 + 4, p28 + 5, p28 + 6, p28 + 7, p28 + 8, p28 + 9, p28 + 10, p28 + 11, p28 + 12, p28 + 13, p28 + 14, p28 + 15, p28 + 16, p28 + 17, p28 + 18, p28 + 19, p28 + 20, p28 + 21, p28 + 22, p28 + 23, p28 + 24, p28 + 25, p28 + 26, p28 + 27, p28 + 28, p28 + 29, p28 + 30, p28 + 31, p28 + 32, p28 + 33, p28 + 34, p28 + 35, p28 + 36, p28 + 37, p28 + 38, p28 + 39, 24};
Line(29) = {17, 8};
Line(30) = {18, 9};
Line(31) = {19, 10};
Line(32) = {20, 11};
Line(33) = {22, 13};
Line(34) = {21, 12};
Line(35) = {23, 14};
Line(36) = {24, 15};
Curve Loop(1) = {-1, 4, 3, -2};
Plane Surface(1) = {1};
Curve Loop(2) = {-5, 1, 7, -6};
Plane Surface(2) = {2};
Curve Loop(3) = {-2, 7, 9, -8, -10, -11, -12, -13, -14, -15, -16, -17};
Plane Surface(3) = {3};
Curve Loop(4) = {-18, 3, 8, -19};
Plane Surface(4) = {4};
Curve Loop(5) = {-4, 5, 20, -18, -21, -22, -23, -24, -25, -26, -27, -28};
Plane Surface(5) = {5};
Curve Loop(6) = {-6, 20, 19, -9};
Plane Surface(6) = {6};
Curve Loop(7) = {-10, -29, 21, 29};
Surface(7) = {7};
Curve Loop(8) = {-11, -30, 22, 30};
Surface(8) = {8};
Curve Loop(9) = {-12, -31, 23, 31};
Surface(9) = {9};
Curve Loop(10) = {-13, -32, 24, 32};
Surface(10) = {10};
Curve Loop(11) = {-14, -34, 25, 33};
Surface(11) = {11};
Curve Loop(12) = {-15, -35, 26, 34};
Surface(12) = {12};
Curve Loop(13) = {35, -16, -33, 27};
Surface(13) = {13};
Curve Loop(14) = {-17, -36, 28, 36};
Surface(14) = {14};
Surface Loop(1) = {1, 2, 3, 4, 5, 6, 7, 8, 9, 10, 11, 12, 13, 14};
Volume(1) = {1};
Physical Surface("INFLOW") = {1};
Physical Surface("OUTFLOW") = {6};
Physical Surface("OBSTACLE") = {7};
Physical Surface("WALL_Y") = {2, 4};
Physical Surface("WALL_Z") = {3, 5};
Physical Volume("FLUID") = {1};
