cl__1 = 3.310323;
cl__2 = 0.535473;
cl__3 = 0.497568;
cl__4 = 0.079856;
cl__5 = 0.084512;
Point(1) = {0.8793260000000001, -3.873481, 1, cl__1};
Point(2) = {0.8793260000000001, -3.873481, 0, cl__1};
Point(3) = {0.8793260000000001, 5.601534000000001, 1, cl__2};
Point(4) = {0.8793260000000001, 5.601534000000001, 0, cl__2};
Point(5) = {32.762474, -3.873481, 0, cl__3};
Point(6) = {32.762474, -3.873481, 1, cl__3};
Point(7) = {32.762474, 5.601534000000001, 1, cl__2};
Point(8) = {27.681787, -2.057604, 1, cl__4};
Point(9) = {5.713478, 0.3655519999999998, 1, cl__5};
Point(10) = {32.762474, 5.601534000000001, 0, cl__2};
Point(11) = {27.681787, -2.057604, 0, cl__4};
Point(12) = {5.713478, 0.3655519999999998, 0, cl__5};
Line(1) = {2, 1};
Line(2) = {1, 3};
Line(3) = {4, 3};
Line(4) = {2, 4};
Line(5) = {2, 5};
Line(6) = {5, 6};
Line(7) = {1, 6};
Line(8) = {3, 7};
Line(9) = {6, 7};
p10 = newp;
Point(p10 + 1) = {27.67195545051229, -1.932682319335333, 1};
Point(p10 + 2) = {27.64270288742659, -1.810836625039919, 1};
Point(p10 + 3) = {27.59474960592976, -1.695067162489986, 1};
Point(p10 + 4) = {27.52927637496008, -1.588224560070332, 1};
Point(p10 + 5) = {27.4478953627572, -1.492939637242795, 1};
Point(p10 + 6) = {27.35261043992967, -1.411558625039919, 1};
Point(p10 + 7) = {27.24576783751001, -1.346085394070234, 1};
Point(p10 + 8) = {27.12999837496008, -1.298132112573407, 1};
Point(p10 + 9) = {27.00815268066467, -1.268879549487709, 1};
Point(p10 + 10) = {26.883231, -1.259048, 1};
Point(p10 + 11) = {26.75830931933533, -1.268879549487709, 1};
Point(p10 + 12) = {26.63646362503992, -1.298132112573407, 1};
Point(p10 + 13) = {26.52069416248998, -1.346085394070234, 1};
Point(p10 + 14) = {26.41385156007033, -1.411558625039919, 1};
Point(p10 + 15) = {26.31856663724279, -1.492939637242795, 1};
Point(p10 + 16) = {26.23718562503992, -1.588224560070332, 1};
Point(p10 + 17) = {26.17171239407023, -1.695067162489986, 1};
Point(p10 + 18) = {26.12375911257341, -1.810836625039919, 1};
Point(p10 + 19) = {26.09450654948771, -1.932682319335333, 1};
Point(p10 + 20) = {26.084675, -2.057604, 1};
Point(p10 + 21) = {26.09450654948771, -2.182525680664666, 1};
Point(p10 + 22) = {26.12375911257341, -2.304371374960081, 1};
Point(p10 + 23) = {26.17171239407023, -2.420140837510013, 1};
Point(p10 + 24) = {26.23718562503992, -2.526983439929668, 1};
Point(p10 + 25) = {26.31856663724279, -2.622268362757205, 1};
Point(p10 + 26) = {26.41385156007033, -2.70364937496008, 1};
Point(p10 + 27) = {26.52069416248998, -2.769122605929766, 1};
Point(p10 + 28) = {26.63646362503992, -2.817075887426593, 1};
Point(p10 + 29) = {26.75830931933533, -2.846328450512291, 1};
Point(p10 + 30) = {26.883231, -2.85616, 1};
Point(p10 + 31) = {27.00815268066467, -2.846328450512291, 1};
Point(p10 + 32) = {27.12999837496008, -2.817075887426593, 1};
Point(p10 + 33) = {27.24576783751001, -2.769122605929766, 1};
Point(p10 + 34) = {27.35261043992967, -2.703649374960081, 1};
Point(p10 + 35) = {27.4478953627572, -2.622268362757205, 1};
Point(p10 + 36) = {27.52927637496008, -2.526983439929668, 1};
Point(p10 + 37) = {27.59474960592976, -2.420140837510014, 1};
Point(p10 + 38) = {27.64270288742659, -2.30437137496008, 1};
Point(p10 + 39) = {27.67195545051229, -2.182525680664667, 1};
Spline(10) = {8, p10 + 1, p10 + 2, p10 + 3, p10 + 4, p10 + 5, p10 + 6, p10 + 7, p10 + 8, p10 + 9, p10 + 10, p10 + 11, p10 + 12, p10 + 13, p10 + 14, p10 + 15, p10 + 16, p10 + 17, p10 + 18, p10 + 19, p10 + 20, p10 + 21, p10 + 22, p10 + 23, p10 + 24, p10 + 25, p10 + 26, p10 + 27, p10 + 28, p10 + 29, p10 + 30, p10 + 31, p10 + 32, p10 + 33, p10 + 34, p10 + 35, p10 + 36, p10 + 37, p10 + 38, p10 + 39, 8};
p11 = newp;
Point(p11 + 1) = {5.703073121157125, 0.49775852083266, 1};
Point(p11 + 2) = {5.672114687277426, 0.626709678354133, 1};
Point(p11 + 3) = {5.62136499774817, 0.7492302671018847, 1};
Point(p11 + 4) = {5.552073678354133, 0.862303423558424, 1};
Point(p11 + 5) = {5.4659469113435, 0.9631449113434997, 1};
Point(p11 + 6) = {5.365105423558424, 1.049271678354133, 1};
Point(p11 + 7) = {5.252032267101884, 1.11856299774817, 1};
Point(p11 + 8) = {5.129511678354133, 1.169312687277425, 1};
Point(p11 + 9) = {5.00056052083266, 1.200271121157125, 1};
Point(p11 + 10) = {4.868354, 1.210676, 1};
Point(p11 + 11) = {4.736147479167339, 1.200271121157125, 1};
Point(p11 + 12) = {4.607196321645867, 1.169312687277425, 1};
Point(p11 + 13) = {4.484675732898116, 1.11856299774817, 1};
Point(p11 + 14) = {4.371602576441576, 1.049271678354133, 1};
Point(p11 + 15) = {4.2707610886565, 0.9631449113434998, 1};
Point(p11 + 16) = {4.184634321645867, 0.8623034235584242, 1};
Point(p11 + 17) = {4.11534300225183, 0.7492302671018848, 1};
Point(p11 + 18) = {4.064593312722574, 0.626709678354133, 1};
Point(p11 + 19) = {4.033634878842875, 0.4977585208326601, 1};
Point(p11 + 20) = {4.02323, 0.3655520000000001, 1};
Point(p11 + 21) = {4.033634878842875, 0.23334547916734, 1};
Point(p11 + 22) = {4.064593312722574, 0.1043943216458667, 1};
Point(p11 + 23) = {4.11534300225183, -0.01812626710188431, 1};
Point(p11 + 24) = {4.184634321645867, -0.131199423558424, 1};
Point(p11 + 25) = {4.2707610886565, -0.2320409113434997, 1};
Point(p11 + 26) = {4.371602576441576, -0.318167678354133, 1};
Point(p11 + 27) = {4.484675732898115, -0.3874589977481702, 1};
Point(p11 + 28) = {4.607196321645867, -0.4382086872774253, 1};
Point(p11 + 29) = {4.736147479167339, -0.4691671211571251, 1};
Point(p11 + 30) = {4.868354, -0.479572, 1};
Point(p11 + 31) = {5.00056052083266, -0.4691671211571252, 1};
Point(p11 + 32) = {5.129511678354133, -0.4382086872774255, 1};
Point(p11 + 33) = {5.252032267101884, -0.3874589977481703, 1};
Point(p11 + 34) = {5.365105423558424, -0.3181676783541332, 1};
Point(p11 + 35) = {5.4659469113435, -0.2320409113434999, 1};
Point(p11 + 36) = {5.552073678354133, -0.1311994235584242, 1};
Point(p11 + 37) = {5.62136499774817, -0.01812626710188492, 1};
Point(p11 + 38) = {5.672114687277426, 0.1043943216458668, 1};
Point(p11 + 39) = {5.703073121157125, 0.2333454791673397, 1};
Spline(11) = {9, p11 + 1, p11 + 2, p11 + 3, p11 + 4, p11 + 5, p11 + 6, p11 + 7, p11 + 8, p11 + 9, p11 + 10, p11 + 11, p11 + 12, p11 + 13, p11 + 14, p11 + 15, p11 + 16, p11 + 17, p11 + 18, p11 + 19, p11 + 20, p11 + 21, p11 + 22, p11 + 23, p11 + 24, p11 + 25, p11 + 26, p11 + 27, p11 + 28, p11 + 29, p11 + 30, p11 + 31, p11 + 32, p11 + 33, p11 + 34, p11 + 35, p11 + 36, p11 + 37, p11 + 38, p11 + 39, 9};
Line(12) = {4, 10};
Line(13) = {10, 7};
Line(14) = {5, 10};
p15 = newp;
Point(p15 + 1) = {27.67195545051229, -1.932682319335333, 0};
Point(p15 + 2) = {27.64270288742659, -1.810836625039919, 0};
Point(p15 + 3) = {27.59474960592976, -1.695067162489986, 0};
Point(p15 + 4) = {27.52927637496008, -1.588224560070332, 0};
Point(p15 + 5) = {27.4478953627572, -1.492939637242795, 0};
Point(p15 + 6) = {27.35261043992967, -1.411558625039919, 0};
Point(p15 + 7) = {27.24576783751001, -1.346085394070234, 0};
Point(p15 + 8) = {27.12999837496008, -1.298132112573407, 0};
Point(p15 + 9) = {27.00815268066467, -1.268879549487709, 0};
Point(p15 + 10) = {26.883231, -1.259048, 0};
Point(p15 + 11) = {26.75830931933533, -1.268879549487709, 0};
Point(p15 + 12) = {26.63646362503992, -1.298132112573407, 0};
Point(p15 + 13) = {26.52069416248998, -1.346085394070234, 0};
Point(p15 + 14) = {26.41385156007033, -1.411558625039919, 0};
Point(p15 + 15) = {26.31856663724279, -1.492939637242795, 0};
Point(p15 + 16) = {26.23718562503992, -1.588224560070332, 0};
Point(p15 + 17) = {26.17171239407023, -1.695067162489986, 0};
Point(p15 + 18) = {26.12375911257341, -1.810836625039919, 0};
Point(p15 + 19) = {26.09450654948771, -1.932682319335333, 0};
Point(p15 + 20) = {26.084675, -2.057604, 0};
Point(p15 + 21) = {26.09450654948771, -2.182525680664666, 0};
Point(p15 + 22) = {26.12375911257341, -2.304371374960081, 0};
Point(p15 + 23) = {26.17171239407023, -2.420140837510013, 0};
Point(p15 + 24) = {26.23718562503992, -2.526983439929668, 0};
Point(p15 + 25) = {26.31856663724279, -2.622268362757205, 0};
Point(p15 + 26) = {26.41385156007033, -2.70364937496008, 0};
Point(p15 + 27) = {26.52069416248998, -2.769122605929766, 0};
Point(p15 + 28) = {26.63646362503992, -2.817075887426593, 0};
Point(p15 + 29) = {26.75830931933533, -2.846328450512291, 0};
Point(p15 + 30) = {26.883231, -2.85616, 0};
Point(p15 + 31) = {27.00815268066467, -2.846328450512291, 0};
Point(p15 + 32) = {27.12999837496008, -2.817075887426593, 0};
Point(p15 + 33) = {27.24576783751001, -2.769122605929766, 0};
Point(p15 + 34) = {27.35261043992967, -2.703649374960081, 0};
Point(p15 + 35) = {27.4478953627572, -2.622268362757205, 0};
Point(p15 + 36) = {27.52927637496008, -2.526983439929668, 0};
Point(p15 + 37) = {27.59474960592976, -2.420140837510014, 0};
Point(p15 + 38) = {27.64270288742659, -2.30437137496008, 0};
Point(p15 + 39) = {27.67195545051229, -2.182525680664667, 0};
Spline(15) = {11, p15 + 1, p15 + 2, p15 + 3, p15 + 4, p15 + 5, p15 + 6, p15 + 7, p15 + 8, p15 + 9, p15 + 10, p15 + 11, p15 + 12, p15 + 13, p15 + 14, p15 + 15, p15 + 16, p15 + 17, p15 + 18, p15 + 19, p15 + 20, p15 + 21, p15 + 22, p15 + 23, p15 + 24, p15 + 25, p15 + 26, p15 + 27, p15 + 28, p15 + 29, p15 + 30, p15 + 31, p15 + 32, p15 + 33, p15 + 34, p15 + 35, p15 + 36, p15 + 37, p15 + 38, p15 + 39, 11};
p16 = newp;
Point(p16 + 1) = {5.703073121157125, 0.49775852083266, 0};
Point(p16 + 2) = {5.672114687277426, 0.626709678354133, 0};
Point(p16 + 3) = {5.62136499774817, 0.7492302671018847, 0};
Point(p16 + 4) = {5.552073678354133, 0.862303423558424, 0};
Point(p16 + 5) = {5.4659469113435, 0.9631449113434997, 0};
Point(p16 + 6) = {5.365105423558424, 1.049271678354133, 0};
Point(p16 + 7) = {5.252032267101884, 1.11856299774817, 0};
Point(p16 + 8) = {5.129511678354133, 1.169312687277425, 0};
Point(p16 + 9) = {5.00056052083266, 1.200271121157125, 0};
Point(p16 + 10) = {4.868354, 1.210676, 0};
Point(p16 + 11) = {4.736147479167339, 1.200271121157125, 0};
Point(p16 + 12) = {4.607196321645867, 1.169312687277425, 0};
Point(p16 + 13) = {4.484675732898116, 1.11856299774817, 0};
Point(p16 + 14) = {4.371602576441576, 1.049271678354133, 0};
Point(p16 + 15) = {4.2707610886565, 0.9631449113434998, 0};
Point(p16 + 16) = {4.184634321645867, 0.8623034235584242, 0};
Point(p16 + 17) = {4.11534300225183, 0.7492302671018848, 0};
Point(p16 + 18) = {4.064593312722574, 0.626709678354133, 0};
Point(p16 + 19) = {4.033634878842875, 0.4977585208326601, 0};
Point(p16 + 20) = {4.02323, 0.3655520000000001, 0};
Point(p16 + 21) = {4.033634878842875, 0.23334547916734, 0};
Point(p16 + 22) = {4.064593312722574, 0.1043943216458667, 0};
Point(p16 + 23) = {4.11534300225183, -0.01812626710188431, 0};
Point(p16 + 24) = {4.184634321645867, -0.131199423558424, 0};
Point(p16 + 25) = {4.2707610886565, -0.2320409113434997, 0};
Point(p16 + 26) = {4.371602576441576, -0.318167678354133, 0};
Point(p16 + 27) = {4.484675732898115, -0.3874589977481702, 0};
Point(p16 + 28) = {4.607196321645867, -0.4382086872774253, 0};
Point(p16 + 29) = {4.736147479167339, -0.4691671211571251, 0};
Point(p16 + 30) = {4.868354, -0.479572, 0};
Point(p16 + 31) = {5.00056052083266, -0.4691671211571252, 0};
Point(p16 + 32) = {5.129511678354133, -0.4382086872774255, 0};
Point(p16 + 33) = {5.252032267101884, -0.3874589977481703, 0};
Point(p16 + 34) = {5.365105423558424, -0.3181676783541332, 0};
Point(p16 + 35) = {5.4659469113435, -0.2320409113434999, 0};
Point(p16 + 36) = {5.552073678354133, -0.1311994235584242, 0};
Point(p16 + 37) = {5.62136499774817, -0.01812626710188492, 0};
Point(p16 + 38) = {5.672114687277426, 0.1043943216458668, 0};
Point(p16 + 39) = {5.703073121157125, 0.2333454791673397, 0};
Spline(16) = {12, p16 + 1, p16 + 2, p16 + 3, p16 + 4, p16 + 5, p16 + 6, p16 + 7, p16 + 8, p16 + 9, p16 + 10, p16 + 11, p16 + 12, p16 + 13, p16 + 14, p16 + 15, p16 + 16, p16 + 17, p16 + 18, p16 + 19, p16 + 20, p16 + 21, p16 + 22, p16 + 23, p16 + 24, p16 + 25, p16 + 26, p16 + 27, p16 + 28, p16 + 29, p16 + 30, p16 + 31, p16 + 32, p16 + 33, p16 + 34, p16 + 35, p16 + 36, p16 + 37, p16 + 38, p16 + 39, 12};
Line(17) = {11, 8};
Line(18) = {12, 9};
Curve Loop(1) = {-1, 4, 3, -2};
Plane Surface(1) = {1};
Curve Loop(2) = {-5, 1, 7, -6};
Plane Surface(2) = {2};
Curve Loop(3) = {-2, 7, 9, -8, -10, -11};
Plane Surface(3) = {3};
Curve Loop(4) = {-12, 3, 8, -13};
Plane Surface(4) = {4};
Curve Loop(5) = {-4, 5, 14, -12, -15, -16};
Plane Surface(5) = {5};
Curve Loop(6) = {-6, 14, 13, -9};
Plane Surface(6) = {6};
Curve Loop(7) = {-10, -17, 15, 17};
Surface(7) = {7};
Curve Loop(8) = {-11, -18, 16, 18};
Surface(8) = {8};
Surface Loop(1) = {1, 2, 3, 4, 5, 6, 7, 8};
Volume(1) = {1};
Physical Surface("INFLOW") = {1};
Physical Surface("OUTFLOW") = {6};
Physical Surface("OBSTACLE") = {7, 8};
Physical Surface("WALL_Y") = {2, 4};
Physical Surface("WALL_Z") = {3, 5};
Physical Volume("FLUID") = {1};
