cl__1 = 1;
cl__2 = 0.080928;
cl__3 = 0.079566;
Point(1) = {0.664238, -4.479819, 1, cl__1};
Point(2) = {0.664238, -4.479819, 0, cl__1};
Point(3) = {0.664238, 5.140218999999999, 1, cl__1};
Point(4) = {0.664238, 5.140218999999999, 0, cl__1};
Point(5) = {33.139157, -4.479819, 0, cl__1};
Point(6) = {33.139157, -4.479819, 1, cl__1};
Point(7) = {33.139157, 5.140218999999999, 1, cl__1};
Point(8) = {24.661334, -1.920907, 1, cl__2};
Point(9) = {14.329451, -0.9389120000000002, 1, cl__3};
Point(10) = {33.139157, 5.140218999999999, 0, cl__1};
Point(11) = {24.661334, -1.920907, 0, cl__2};
Point(12) = {14.329451, -0.9389120000000002, 0, cl__3};
Line(1) = {2, 1};
Line(2) = {1, 3};
Line(3) = {4, 3};
Line(4) = {2, 4};
Line(5) = {2, 5};
Line(6) = {5, 6};
Line(7) = {1, 6};
Line(8) = {3, 7};
Line(9) = {6, 7};
p10 = newp;
Point(p10 + 1) = {24.65137035871854, -1.794306933959917, 1};
Point(p10 + 2) = {24.62172477278992, -1.670824181707271, 1};
Point(p10 + 3) = {24.57312721492778, -1.553499298418281, 1};
Point(p10 + 4) = {24.50677431829273, -1.445221212098486, 1};
Point(p10 + 5) = {24.42429991141256, -1.348656088587445, 1};
Point(p10 + 6) = {24.32773478790152, -1.266181681707271, 1};
Point(p10 + 7) = {24.21945670158172, -1.199828785072217, 1};
Point(p10 + 8) = {24.10213181829273, -1.151231227210077, 1};
Point(p10 + 9) = {23.97864906604008, -1.121585641281464, 1};
Point(p10 + 10) = {23.852049, -1.111622, 1};
Point(p10 + 11) = {23.72544893395992, -1.121585641281464, 1};
Point(p10 + 12) = {23.60196618170727, -1.151231227210076, 1};
Point(p10 + 13) = {23.48464129841828, -1.199828785072217, 1};
Point(p10 + 14) = {23.37636321209849, -1.266181681707271, 1};
Point(p10 + 15) = {23.27979808858744, -1.348656088587445, 1};
Point(p10 + 16) = {23.19732368170727, -1.445221212098486, 1};
Point(p10 + 17) = {23.13097078507222, -1.553499298418281, 1};
Point(p10 + 18) = {23.08237322721008, -1.670824181707271, 1};
Point(p10 + 19) = {23.05272764128146, -1.794306933959917, 1};
Point(p10 + 20) = {23.042764, -1.920907, 1};
Point(p10 + 21) = {23.05272764128146, -2.047507066040083, 1};
Point(p10 + 22) = {23.08237322721008, -2.17098981829273, 1};
Point(p10 + 23) = {23.13097078507222, -2.288314701581719, 1};
Point(p10 + 24) = {23.19732368170727, -2.396592787901514, 1};
Point(p10 + 25) = {23.27979808858744, -2.493157911412555, 1};
Point(p10 + 26) = {23.37636321209849, -2.575632318292729, 1};
Point(p10 + 27) = {23.48464129841828, -2.641985214927783, 1};
Point(p10 + 28) = {23.60196618170727, -2.690582772789923, 1};
Point(p10 + 29) = {23.72544893395992, -2.720228358718536, 1};
Point(p10 + 30) = {23.852049, -2.730192, 1};
Point(p10 + 31) = {23.97864906604008, -2.720228358718536, 1};
Point(p10 + 32) = {24.10213181829273, -2.690582772789924, 1};
Point(p10 + 33) = {24.21945670158172, -2.641985214927783, 1};
Point(p10 + 34) = {24.32773478790152, -2.57563231829273, 1};
Point(p10 + 35) = {24.42429991141256, -2.493157911412555, 1};
Point(p10 + 36) = {24.50677431829273, -2.396592787901514, 1};
Point(p10 + 37) = {24.57312721492778, -2.288314701581719, 1};
Point(p10 + 38) = {24.62172477278992, -2.170989818292729, 1};
Point(p10 + 39) = {24.65137035871854, -2.047507066040083, 1};
Spline(10) = {8, p10 + 1, p10 + 2, p10 + 3, p10 + 4, p10 + 5, p10 + 6, p10 + 7, p10 + 8, p10 + 9, p10 + 10, p10 + 11, p10 + 12, p10 + 13, p10 + 14, p10 + 15, p10 + 16, p10 + 17, p10 + 18, p10 + 19, p10 + 20, p10 + 21, p10 + 22, p10 + 23, p10 + 24, p10 + 25, p10 + 26, p10 + 27, p10 + 28, p10 + 29, p10 + 30, p10 + 31, p10 + 32, p10 + 33, p10 + 34, p10 + 35, p10 + 36, p10 + 37, p10 + 38, p10 + 39, 8};
p11 = newp;
Point(p11 + 1) = {14.31965516663623, -0.8144441357184151, 1};
Point(p11 + 2) = {14.29050887247282, -0.6930410833406012, 1};
Point(p11 + 3) = {14.2427297960031, -0.5776921889297308, 1};
Point(p11 + 4) = {14.1774944166594, -0.4712377250872323, 1};
Point(p11 + 5) = {14.09640904598498, -0.3762989540150176, 1};
Point(p11 + 6) = {14.00147027491277, -0.2952135833406011, 1};
Point(p11 + 7) = {13.89501581107027, -0.2299782039969042, 1};
Point(p11 + 8) = {13.7796669166594, -0.1821991275271796, 1};
Point(p11 + 9) = {13.65826386428158, -0.1530528333637756, 1};
Point(p11 + 10) = {13.533796, -0.143257, 1};
Point(p11 + 11) = {13.40932813571842, -0.1530528333637757, 1};
Point(p11 + 12) = {13.2879250833406, -0.1821991275271795, 1};
Point(p11 + 13) = {13.17257618892973, -0.2299782039969042, 1};
Point(p11 + 14) = {13.06612172508723, -0.2952135833406011, 1};
Point(p11 + 15) = {12.97118295401502, -0.3762989540150175, 1};
Point(p11 + 16) = {12.8900975833406, -0.4712377250872322, 1};
Point(p11 + 17) = {12.8248622039969, -0.5776921889297308, 1};
Point(p11 + 18) = {12.77708312752718, -0.6930410833406011, 1};
Point(p11 + 19) = {12.74793683336378, -0.814444135718415, 1};
Point(p11 + 20) = {12.738141, -0.9389119999999999, 1};
Point(p11 + 21) = {12.74793683336378, -1.063379864281585, 1};
Point(p11 + 22) = {12.77708312752718, -1.184782916659399, 1};
Point(p11 + 23) = {12.8248622039969, -1.300131811070269, 1};
Point(p11 + 24) = {12.8900975833406, -1.406586274912768, 1};
Point(p11 + 25) = {12.97118295401502, -1.501525045984982, 1};
Point(p11 + 26) = {13.06612172508723, -1.582610416659399, 1};
Point(p11 + 27) = {13.17257618892973, -1.647845796003096, 1};
Point(p11 + 28) = {13.2879250833406, -1.69562487247282, 1};
Point(p11 + 29) = {13.40932813571842, -1.724771166636224, 1};
Point(p11 + 30) = {13.533796, -1.734567, 1};
Point(p11 + 31) = {13.65826386428158, -1.724771166636224, 1};
Point(p11 + 32) = {13.7796669166594, -1.69562487247282, 1};
Point(p11 + 33) = {13.89501581107027, -1.647845796003096, 1};
Point(p11 + 34) = {14.00147027491277, -1.582610416659399, 1};
Point(p11 + 35) = {14.09640904598498, -1.501525045984982, 1};
Point(p11 + 36) = {14.1774944166594, -1.406586274912768, 1};
Point(p11 + 37) = {14.2427297960031, -1.300131811070269, 1};
Point(p11 + 38) = {14.29050887247282, -1.184782916659399, 1};
Point(p11 + 39) = {14.31965516663622, -1.063379864281585, 1};
Spline(11) = {9, p11 + 1, p11 + 2, p11 + 3, p11 + 4, p11 + 5, p11 + 6, p11 + 7, p11 + 8, p11 + 9, p11 + 10, p11 + 11, p11 + 12, p11 + 13, p11 + 14, p11 + 15, p11 + 16, p11 + 17, p11 + 18, p11 + 19, p11 + 20, p11 + 21, p11 + 22, p11 + 23, p11 + 24, p11 + 25, p11 + 26, p11 + 27, p11 + 28, p11 + 29, p11 + 30, p11 + 31, p11 + 32, p11 + 33, p11 + 34, p11 + 35, p11 + 36, p11 + 37, p11 + 38, p11 + 39, 9};
Line(12) = {4, 10};
Line(13) = {10, 7};
Line(14) = {5, 10};
p15 = newp;
Point(p15 + 1) = {24.65137035871854, -1.794306933959917, 0};
Point(p15 + 2) = {24.62172477278992, -1.670824181707271, 0};
Point(p15 + 3) = {24.57312721492778, -1.553499298418281, 0};
Point(p15 + 4) = {24.50677431829273, -1.445221212098486, 0};
Point(p15 + 5) = {24.42429991141256, -1.348656088587445, 0};
Point(p15 + 6) = {24.32773478790152, -1.266181681707271, 0};
Point(p15 + 7) = {24.21945670158172, -1.199828785072217, 0};
Point(p15 + 8) = {24.10213181829273, -1.151231227210077, 0};
Point(p15 + 9) = {23.97864906604008, -1.121585641281464, 0};
Point(p15 + 10) = {23.852049, -1.111622, 0};
Point(p15 + 11) = {23.72544893395992, -1.121585641281464, 0};
Point(p15 + 12) = {23.60196618170727, -1.151231227210076, 0};
Point(p15 + 13) = {23.48464129841828, -1.199828785072217, 0};
Point(p15 + 14) = {23.37636321209849, -1.266181681707271, 0};
Point(p15 + 15) = {23.27979808858744, -1.348656088587445, 0};
Point(p15 + 16) = {23.19732368170727, -1.445221212098486, 0};
Point(p15 + 17) = {23.13097078507222, -1.553499298418281, 0};
Point(p15 + 18) = {23.08237322721008, -1.670824181707271, 0};
Point(p15 + 19) = {23.05272764128146, -1.794306933959917, 0};
Point(p15 + 20) = {23.042764, -1.920907, 0};
Point(p15 + 21) = {23.05272764128146, -2.047507066040083, 0};
Point(p15 + 22) = {23.08237322721008, -2.17098981829273, 0};
Point(p15 + 23) = {23.13097078507222, -2.288314701581719, 0};
Point(p15 + 24) = {23.19732368170727, -2.396592787901514, 0};
Point(p15 + 25) = {23.27979808858744, -2.493157911412555, 0};
Point(p15 + 26) = {23.37636321209849, -2.575632318292729, 0};
Point(p15 + 27) = {23.48464129841828, -2.641985214927783, 0};
Point(p15 + 28) = {23.60196618170727, -2.690582772789923, 0};
Point(p15 + 29) = {23.72544893395992, -2.720228358718536, 0};
Point(p15 + 30) = {23.852049, -2.730192, 0};
Point(p15 + 31) = {23.97864906604008, -2.720228358718536, 0};
Point(p15 + 32) = {24.10213181829273, -2.690582772789924, 0};
Point(p15 + 33) = {24.21945670158172, -2.641985214927783, 0};
Point(p15 + 34) = {24.32773478790152, -2.57563231829273, 0};
Point(p15 + 35) = {24.42429991141256, -2.493157911412555, 0};
Point(p15 + 36) = {24.50677431829273, -2.396592787901514, 0};
Point(p15 + 37) = {24.57312721492778, -2.288314701581719, 0};
Point(p15 + 38) = {24.62172477278992, -2.170989818292729, 0};
Point(p15 + 39) = {24.65137035871854, -2.047507066040083, 0};
Spline(15) = {11, p15 + 1, p15 + 2, p15 + 3, p15 + 4, p15 + 5, p15 + 6, p15 + 7, p15 + 8, p15 + 9, p15 + 10, p15 + 11, p15 + 12, p15 + 13, p15 + 14, p15 + 15, p15 + 16, p15 + 17, p15 + 18, p15 + 19, p15 + 20, p15 + 21, p15 + 22, p15 + 23, p15 + 24, p15 + 25, p15 + 26, p15 + 27, p15 + 28, p15 + 29, p15 + 30, p15 + 31, p15 + 32, p15 + 33, p15 + 34, p15 + 35, p15 + 36, p15 + 37, p15 + 38, p15 + 39, 11};
p16 = newp;
Point(p16 + 1) = {14.31965516663623, -0.8144441357184151, 0};
Point(p16 + 2) = {14.29050887247282, -0.6930410833406012, 0};
Point(p16 + 3) = {14.2427297960031, -0.5776921889297308, 0};
Point(p16 + 4) = {14.1774944166594, -0.4712377250872323, 0};
Point(p16 + 5) = {14.09640904598498, -0.3762989540150176, 0};
Point(p16 + 6) = {14.00147027491277, -0.2952135833406011, 0};
Point(p16 + 7) = {13.89501581107027, -0.2299782039969042, 0};
Point(p16 + 8) = {13.7796669166594, -0.1821991275271796, 0};
Point(p16 + 9) = {13.65826386428158, -0.1530528333637756, 0};
Point(p16 + 10) = {13.533796, -0.143257, 0};
Point(p16 + 11) = {13.40932813571842, -0.1530528333637757, 0};
Point(p16 + 12) = {13.2879250833406, -0.1821991275271795, 0};
Point(p16 + 13) = {13.17257618892973, -0.2299782039969042, 0};
Point(p16 + 14) = {13.06612172508723, -0.2952135833406011, 0};
Point(p16 + 15) = {12.97118295401502, -0.3762989540150175, 0};
Point(p16 + 16) = {12.8900975833406, -0.4712377250872322, 0};
Point(p16 + 17) = {12.8248622039969, -0.5776921889297308, 0};
Point(p16 + 18) = {12.77708312752718, -0.6930410833406011, 0};
Point(p16 + 19) = {12.74793683336378, -0.814444135718415, 0};
Point(p16 + 20) = {12.738141, -0.9389119999999999, 0};
Point(p16 + 21) = {12.74793683336378, -1.063379864281585, 0};
Point(p16 + 22) = {12.77708312752718, -1.184782916659399, 0};
Point(p16 + 23) = {12.8248622039969, -1.300131811070269, 0};
Point(p16 + 24) = {12.8900975833406, -1.406586274912768, 0};
Point(p16 + 25) = {12.97118295401502, -1.501525045984982, 0};
Point(p16 + 26) = {13.06612172508723, -1.582610416659399, 0};
Point(p16 + 27) = {13.17257618892973, -1.647845796003096, 0};
Point(p16 + 28) = {13.2879250833406, -1.69562487247282, 0};
Point(p16 + 29) = {13.40932813571842, -1.724771166636224, 0};
Point(p16 + 30) = {13.533796, -1.734567, 0};
Point(p16 + 31) = {13.65826386428158, -1.724771166636224, 0};
Point(p16 + 32) = {13.7796669166594, -1.69562487247282, 0};
Point(p16 + 33) = {13.89501581107027, -1.647845796003096, 0};
Point(p16 + 34) = {14.00147027491277, -1.582610416659399, 0};
Point(p16 + 35) = {14.09640904598498, -1.501525045984982, 0};
Point(p16 + 36) = {14.1774944166594, -1.406586274912768, 0};
Point(p16 + 37) = {14.2427297960031, -1.300131811070269, 0};
Point(p16 + 38) = {14.29050887247282, -1.184782916659399, 0};
Point(p16 + 39) = {14.31965516663622, -1.063379864281585, 0};
Spline(16) = {12, p16 + 1, p16 + 2, p16 + 3, p16 + 4, p16 + 5, p16 + 6, p16 + 7, p16 + 8, p16 + 9, p16 + 10, p16 + 11, p16 + 12, p16 + 13, p16 + 14, p16 + 15, p16 + 16, p16 + 17, p16 + 18, p16 + 19, p16 + 20, p16 + 21, p16 + 22, p16 + 23, p16 + 24, p16 + 25, p16 + 26, p16 + 27, p16 + 28, p16 + 29, p16 + 30, p16 + 31, p16 + 32, p16 + 33, p16 + 34, p16 + 35, p16 + 36, p16 + 37, p16 + 38, p16 + 39, 12};
Line(17) = {11, 8};
Line(18) = {12, 9};
Curve Loop(1) = {-1, 4, 3, -2};
Plane Surface(1) = {1};
Curve Loop(2) = {-5, 1, 7, -6};
Plane Surface(2) = {2};
Curve Loop(3) = {-2, 7, 9, -8, -10, -11};
Plane Surface(3) = {3};
Curve Loop(4) = {-12, 3, 8, -13};
Plane Surface(4) = {4};
Curve Loop(5) = {-4, 5, 14, -12, -15, -16};
Plane Surface(5) = {5};
Curve Loop(6) = {-6, 14, 13, -9};
Plane Surface(6) = {6};
Curve Loop(7) = {-10, -17, 15, 17};
Surface(7) = {7};
Curve Loop(8) = {-11, -18, 16, 18};
Surface(8) = {8};
Surface Loop(1) = {1, 2, 3, 4, 5, 6, 7, 8};
Volume(1) = {1};
Physical Surface("INFLOW") = {1};
Physical Surface("OUTFLOW") = {6};
Physical Surface("OBSTACLE") = {7, 8};
Physical Surface("WALL_Y") = {2, 4};
Physical Surface("WALL_Z") = {3, 5};
Physical Volume("FLUID") = {1};
