cl__1 = 3.651852;
cl__2 = 1.325737;
cl__3 = 0.343151;
cl__4 = 0.148168;
cl__5 = 0.129147;
Point(1) = {0.157698, -4.822159, 1, cl__1};
Point(2) = {0.157698, -4.822159, 0, cl__1};
Point(3) = {0.157698, 5.004962999999999, 1, cl__2};
Point(4) = {0.157698, 5.004962999999999, 0, cl__2};
Point(5) = {36.18644800000001, -4.822159, 0, cl__3};
Point(6) = {36.18644800000001, -4.822159, 1, cl__3};
Point(7) = {36.18644800000001, 5.004962999999999, 1, cl__2};
Point(8) = {6.034925, -2.627039, 1, cl__4};
Point(9) = {24.616342, 1.978476, 1, cl__5};
Point(10) = {36.18644800000001, 5.004962999999999, 0, cl__2};
Point(11) = {6.034925, -2.627039, 0, cl__4};
Point(12) = {24.616342, 1.978476, 0, cl__5};
Line(1) = {2, 1};
Line(2) = {1, 3};
Line(3) = {4, 3};
Line(4) = {2, 4};
Line(5) = {2, 5};
Line(6) = {5, 6};
Line(7) = {1, 6};
Line(8) = {3, 7};
Line(9) = {6, 7};
p10 = newp;
Point(p10 + 1) = {6.016683109739642, -2.395253807577051, 1};
Point(p10 + 2) = {5.962406614838138, -2.169175935842505, 1};
Point(p10 + 3) = {5.873431982733324, -1.954372172307907, 1};
Point(p10 + 4) = {5.751950064157494, -1.756131698524297, 1};
Point(p10 + 5) = {5.600952147121359, -1.579335852878641, 1};
Point(p10 + 6) = {5.424156301475702, -1.428337935842505, 1};
Point(p10 + 7) = {5.225915827692093, -1.306856017266676, 1};
Point(p10 + 8) = {5.011112064157495, -1.217881385161862, 1};
Point(p10 + 9) = {4.785034192422949, -1.163604890260359, 1};
Point(p10 + 10) = {4.553249, -1.145363, 1};
Point(p10 + 11) = {4.321463807577051, -1.163604890260359, 1};
Point(p10 + 12) = {4.095385935842506, -1.217881385161862, 1};
Point(p10 + 13) = {3.880582172307907, -1.306856017266676, 1};
Point(p10 + 14) = {3.682341698524298, -1.428337935842505, 1};
Point(p10 + 15) = {3.505545852878641, -1.579335852878641, 1};
Point(p10 + 16) = {3.354547935842506, -1.756131698524297, 1};
Point(p10 + 17) = {3.233066017266676, -1.954372172307907, 1};
Point(p10 + 18) = {3.144091385161862, -2.169175935842505, 1};
Point(p10 + 19) = {3.089814890260359, -2.39525380757705, 1};
Point(p10 + 20) = {3.071573, -2.627039, 1};
Point(p10 + 21) = {3.089814890260359, -2.858824192422949, 1};
Point(p10 + 22) = {3.144091385161862, -3.084902064157495, 1};
Point(p10 + 23) = {3.233066017266676, -3.299705827692092, 1};
Point(p10 + 24) = {3.354547935842505, -3.497946301475702, 1};
Point(p10 + 25) = {3.505545852878641, -3.674742147121359, 1};
Point(p10 + 26) = {3.682341698524298, -3.825740064157494, 1};
Point(p10 + 27) = {3.880582172307907, -3.947221982733324, 1};
Point(p10 + 28) = {4.095385935842505, -4.036196614838138, 1};
Point(p10 + 29) = {4.321463807577051, -4.090473109739641, 1};
Point(p10 + 30) = {4.553249, -4.108715, 1};
Point(p10 + 31) = {4.785034192422949, -4.090473109739641, 1};
Point(p10 + 32) = {5.011112064157494, -4.036196614838138, 1};
Point(p10 + 33) = {5.225915827692092, -3.947221982733324, 1};
Point(p10 + 34) = {5.424156301475702, -3.825740064157495, 1};
Point(p10 + 35) = {5.600952147121359, -3.674742147121359, 1};
Point(p10 + 36) = {5.751950064157494, -3.497946301475703, 1};
Point(p10 + 37) = {5.873431982733324, -3.299705827692093, 1};
Point(p10 + 38) = {5.962406614838138, -3.084902064157495, 1};
Point(p10 + 39) = {6.016683109739642, -2.858824192422949, 1};
Spline(10) = {8, p10 + 1, p10 + 2, p10 + 3, p10 + 4, p10 + 5, p10 + 6, p10 + 7, p10 + 8, p10 + 9, p10 + 10, p10 + 11, p10 + 12, p10 + 13, p10 + 14, p10 + 15, p10 + 16, p10 + 17, p10 + 18, p10 + 19, p10 + 20, p10 + 21, p10 + 22, p10 + 23, p10 + 24, p10 + 25, p10 + 26, p10 + 27, p10 + 28, p10 + 29, p10 + 30, p10 + 31, p10 + 32, p10 + 33, p10 + 34, p10 + 35, p10 + 36, p10 + 37, p10 + 38, p10 + 39, 8};
p11 = newp;
Point(p11 + 1) = {24.60044191047504, 2.180505792827647, 1};
Point(p11 + 2) = {24.55313315487363, 2.377560941657435, 1};
Point(p11 + 3) = {24.47558063176745, 2.564789294736634, 1};
Point(p11 + 4) = {24.36969394165743, 2.737580668637151, 1};
Point(p11 + 5) = {24.23808036627187, 2.891680366271866, 1};
Point(p11 + 6) = {24.08398066863715, 3.023293941657436, 1};
Point(p11 + 7) = {23.91118929473663, 3.129180631767454, 1};
Point(p11 + 8) = {23.72396094165743, 3.206733154873636, 1};
Point(p11 + 9) = {23.52690579282765, 3.25404191047504, 1};
Point(p11 + 10) = {23.324876, 3.269942, 1};
Point(p11 + 11) = {23.12284620717235, 3.25404191047504, 1};
Point(p11 + 12) = {22.92579105834256, 3.206733154873637, 1};
Point(p11 + 13) = {22.73856270526337, 3.129180631767455, 1};
Point(p11 + 14) = {22.56577133136285, 3.023293941657436, 1};
Point(p11 + 15) = {22.41167163372813, 2.891680366271866, 1};
Point(p11 + 16) = {22.28005805834256, 2.737580668637151, 1};
Point(p11 + 17) = {22.17417136823255, 2.564789294736634, 1};
Point(p11 + 18) = {22.09661884512636, 2.377560941657436, 1};
Point(p11 + 19) = {22.04931008952496, 2.180505792827647, 1};
Point(p11 + 20) = {22.03341, 1.978476, 1};
Point(p11 + 21) = {22.04931008952496, 1.776446207172353, 1};
Point(p11 + 22) = {22.09661884512636, 1.579391058342564, 1};
Point(p11 + 23) = {22.17417136823255, 1.392162705263367, 1};
Point(p11 + 24) = {22.28005805834256, 1.219371331362849, 1};
Point(p11 + 25) = {22.41167163372813, 1.065271633728134, 1};
Point(p11 + 26) = {22.56577133136285, 0.9336580583425642, 1};
Point(p11 + 27) = {22.73856270526337, 0.8277713682325454, 1};
Point(p11 + 28) = {22.92579105834256, 0.7502188451263632, 1};
Point(p11 + 29) = {23.12284620717235, 0.7029100895249598, 1};
Point(p11 + 30) = {23.324876, 0.6870099999999999, 1};
Point(p11 + 31) = {23.52690579282764, 0.7029100895249598, 1};
Point(p11 + 32) = {23.72396094165743, 0.7502188451263629, 1};
Point(p11 + 33) = {23.91118929473663, 0.8277713682325452, 1};
Point(p11 + 34) = {24.08398066863715, 0.9336580583425638, 1};
Point(p11 + 35) = {24.23808036627187, 1.065271633728134, 1};
Point(p11 + 36) = {24.36969394165743, 1.219371331362848, 1};
Point(p11 + 37) = {24.47558063176745, 1.392162705263366, 1};
Point(p11 + 38) = {24.55313315487363, 1.579391058342564, 1};
Point(p11 + 39) = {24.60044191047504, 1.776446207172353, 1};
Spline(11) = {9, p11 + 1, p11 + 2, p11 + 3, p11 + 4, p11 + 5, p11 + 6, p11 + 7, p11 + 8, p11 + 9, p11 + 10, p11 + 11, p11 + 12, p11 + 13, p11 + 14, p11 + 15, p11 + 16, p11 + 17, p11 + 18, p11 + 19, p11 + 20, p11 + 21, p11 + 22, p11 + 23, p11 + 24, p11 + 25, p11 + 26, p11 + 27, p11 + 28, p11 + 29, p11 + 30, p11 + 31, p11 + 32, p11 + 33, p11 + 34, p11 + 35, p11 + 36, p11 + 37, p11 + 38, p11 + 39, 9};
Line(12) = {4, 10};
Line(13) = {10, 7};
Line(14) = {5, 10};
p15 = newp;
Point(p15 + 1) = {6.016683109739642, -2.395253807577051, 0};
Point(p15 + 2) = {5.962406614838138, -2.169175935842505, 0};
Point(p15 + 3) = {5.873431982733324, -1.954372172307907, 0};
Point(p15 + 4) = {5.751950064157494, -1.756131698524297, 0};
Point(p15 + 5) = {5.600952147121359, -1.579335852878641, 0};
Point(p15 + 6) = {5.424156301475702, -1.428337935842505, 0};
Point(p15 + 7) = {5.225915827692093, -1.306856017266676, 0};
Point(p15 + 8) = {5.011112064157495, -1.217881385161862, 0};
Point(p15 + 9) = {4.785034192422949, -1.163604890260359, 0};
Point(p15 + 10) = {4.553249, -1.145363, 0};
Point(p15 + 11) = {4.321463807577051, -1.163604890260359, 0};
Point(p15 + 12) = {4.095385935842506, -1.217881385161862, 0};
Point(p15 + 13) = {3.880582172307907, -1.306856017266676, 0};
Point(p15 + 14) = {3.682341698524298, -1.428337935842505, 0};
Point(p15 + 15) = {3.505545852878641, -1.579335852878641, 0};
Point(p15 + 16) = {3.354547935842506, -1.756131698524297, 0};
Point(p15 + 17) = {3.233066017266676, -1.954372172307907, 0};
Point(p15 + 18) = {3.144091385161862, -2.169175935842505, 0};
Point(p15 + 19) = {3.089814890260359, -2.39525380757705, 0};
Point(p15 + 20) = {3.071573, -2.627039, 0};
Point(p15 + 21) = {3.089814890260359, -2.858824192422949, 0};
Point(p15 + 22) = {3.144091385161862, -3.084902064157495, 0};
Point(p15 + 23) = {3.233066017266676, -3.299705827692092, 0};
Point(p15 + 24) = {3.354547935842505, -3.497946301475702, 0};
Point(p15 + 25) = {3.505545852878641, -3.674742147121359, 0};
Point(p15 + 26) = {3.682341698524298, -3.825740064157494, 0};
Point(p15 + 27) = {3.880582172307907, -3.947221982733324, 0};
Point(p15 + 28) = {4.095385935842505, -4.036196614838138, 0};
Point(p15 + 29) = {4.321463807577051, -4.090473109739641, 0};
Point(p15 + 30) = {4.553249, -4.108715, 0};
Point(p15 + 31) = {4.785034192422949, -4.090473109739641, 0};
Point(p15 + 32) = {5.011112064157494, -4.036196614838138, 0};
Point(p15 + 33) = {5.225915827692092, -3.947221982733324, 0};
Point(p15 + 34) = {5.424156301475702, -3.825740064157495, 0};
Point(p15 + 35) = {5.600952147121359, -3.674742147121359, 0};
Point(p15 + 36) = {5.751950064157494, -3.497946301475703, 0};
Point(p15 + 37) = {5.873431982733324, -3.299705827692093, 0};
Point(p15 + 38) = {5.962406614838138, -3.084902064157495, 0};
Point(p15 + 39) = {6.016683109739642, -2.858824192422949, 0};
Spline(15) = {11, p15 + 1, p15 + 2, p15 + 3, p15 + 4, p15 + 5, p15 + 6, p15 + 7, p15 + 8, p15 + 9, p15 + 10, p15 + 11, p15 + 12, p15 + 13, p15 + 14, p15 + 15, p15 + 16, p15 + 17, p15 + 18, p15 + 19, p15 + 20, p15 + 21, p15 + 22, p15 + 23, p15 + 24, p15 + 25, p15 + 26, p15 + 27, p15 + 28, p15 + 29, p15 + 30, p15 + 31, p15 + 32, p15 + 33, p15 + 34, p15 + 35, p15 + 36, p15 + 37, p15 + 38, p15 + 39, 11};
p16 = newp;
Point(p16 + 1) = {24.60044191047504, 2.180505792827647, 0};
Point(p16 + 2) = {24.55313315487363, 2.377560941657435, 0};
Point(p16 + 3) = {24.47558063176745, 2.564789294736634, 0};
Point(p16 + 4) = {24.36969394165743, 2.737580668637151, 0};
Point(p16 + 5) = {24.23808036627187, 2.891680366271866, 0};
Point(p16 + 6) = {24.08398066863715, 3.023293941657436, 0};
Point(p16 + 7) = {23.91118929473663, 3.129180631767454, 0};
Point(p16 + 8) = {23.72396094165743, 3.206733154873636, 0};
Point(p16 + 9) = {23.52690579282765, 3.25404191047504, 0};
Point(p16 + 10) = {23.324876, 3.269942, 0};
Point(p16 + 11) = {23.12284620717235, 3.25404191047504, 0};
Point(p16 + 12) = {22.92579105834256, 3.206733154873637, 0};
Point(p16 + 13) = {22.73856270526337, 3.129180631767455, 0};
Point(p16 + 14) = {22.56577133136285, 3.023293941657436, 0};
Point(p16 + 15) = {22.41167163372813, 2.891680366271866, 0};
Point(p16 + 16) = {22.28005805834256, 2.737580668637151, 0};
Point(p16 + 17) = {22.17417136823255, 2.564789294736634, 0};
Point(p16 + 18) = {22.09661884512636, 2.377560941657436, 0};
Point(p16 + 19) = {22.04931008952496, 2.180505792827647, 0};
Point(p16 + 20) = {22.03341, 1.978476, 0};
Point(p16 + 21) = {22.04931008952496, 1.776446207172353, 0};
Point(p16 + 22) = {22.09661884512636, 1.579391058342564, 0};
Point(p16 + 23) = {22.17417136823255, 1.392162705263367, 0};
Point(p16 + 24) = {22.28005805834256, 1.219371331362849, 0};
Point(p16 + 25) = {22.41167163372813, 1.065271633728134, 0};
Point(p16 + 26) = {22.56577133136285, 0.9336580583425642, 0};
Point(p16 + 27) = {22.73856270526337, 0.8277713682325454, 0};
Point(p16 + 28) = {22.92579105834256, 0.7502188451263632, 0};
Point(p16 + 29) = {23.12284620717235, 0.7029100895249598, 0};
Point(p16 + 30) = {23.324876, 0.6870099999999999, 0};
Point(p16 + 31) = {23.52690579282764, 0.7029100895249598, 0};
Point(p16 + 32) = {23.72396094165743, 0.7502188451263629, 0};
Point(p16 + 33) = {23.91118929473663, 0.8277713682325452, 0};
Point(p16 + 34) = {24.08398066863715, 0.9336580583425638, 0};
Point(p16 + 35) = {24.23808036627187, 1.065271633728134, 0};
Point(p16 + 36) = {24.36969394165743, 1.219371331362848, 0};
Point(p16 + 37) = {24.47558063176745, 1.392162705263366, 0};
Point(p16 + 38) = {24.55313315487363, 1.579391058342564, 0};
Point(p16 + 39) = {24.60044191047504, 1.776446207172353, 0};
Spline(16) = {12, p16 + 1, p16 + 2, p16 + 3, p16 + 4, p16 + 5, p16 + 6, p16 + 7, p16 + 8, p16 + 9, p16 + 10, p16 + 11, p16 + 12, p16 + 13, p16 + 14, p16 + 15, p16 + 16, p16 + 17, p16 + 18, p16 + 19, p16 + 20, p16 + 21, p16 + 22, p16 + 23, p16 + 24, p16 + 25, p16 + 26, p16 + 27, p16 + 28, p16 + 29, p16 + 30, p16 + 31, p16 + 32, p16 + 33, p16 + 34, p16 + 35, p16 + 36, p16 + 37, p16 + 38, p16 + 39, 12};
Line(17) = {11, 8};
Line(18) = {12, 9};
Curve Loop(1) = {-1, 4, 3, -2};
Plane Surface(1) = {1};
Curve Loop(2) = {-5, 1, 7, -6};
Plane Surface(2) = {2};
Curve Loop(3) = {-2, 7, 9, -8, -10, -11};
Plane Surface(3) = {3};
Curve Loop(4) = {-12, 3, 8, -13};
Plane Surface(4) = {4};
Curve Loop(5) = {-4, 5, 14, -12, -15, -16};
Plane Surface(5) = {5};
Curve Loop(6) = {-6, 14, 13, -9};
Plane Surface(6) = {6};
Curve Loop(7) = {-10, -17, 15, 17};
Surface(7) = {7};
Curve Loop(8) = {-11, -18, 16, 18};
Surface(8) = {8};
Surface Loop(1) = {1, 2, 3, 4, 5, 6, 7, 8};
Volume(1) = {1};
Physical Surface("INFLOW") = {1};
Physical Surface("OUTFLOW") = {6};
Physical Surface("OBSTACLE") = {7, 8};
Physical Surface("WALL_Y") = {2, 4};
Physical Surface("WALL_Z") = {3, 5};
Physical Volume("FLUID") = {1};
