cl__1 = 3.798045;
cl__2 = 1.034571;
cl__3 = 0.859065;
cl__4 = 0.094891;
Point(1) = {0.655509, -4.1905, 1, cl__1};
Point(2) = {0.655509, -4.1905, 0, cl__1};
Point(3) = {0.655509, 4.544793, 1, cl__1};
Point(4) = {0.655509, 4.544793, 0, cl__1};
Point(5) = {37.728481, -4.1905, 0, cl__2};
Point(6) = {37.728481, -4.1905, 1, cl__2};
Point(7) = {37.728481, 4.544793, 1, cl__3};
Point(8) = {29.413, 2.270103, 1, cl__4};
Point(9) = {37.728481, 4.544793, 0, cl__3};
Point(10) = {29.413, 2.270103, 0, cl__4};
Line(1) = {2, 1};
Line(2) = {1, 3};
Line(3) = {4, 3};
Line(4) = {2, 4};
Line(5) = {2, 5};
Line(6) = {5, 6};
Line(7) = {1, 6};
Line(8) = {3, 7};
Line(9) = {6, 7};
p10 = newp;
Point(p10 + 1) = {29.40131740483243, 2.418544446049001, 1};
Point(p10 + 2) = {29.36655728359505, 2.56333077104736, 1};
Point(p10 + 3) = {29.30957554583496, 2.700896855155355, 1};
Point(p10 + 4) = {29.23177527104736, 2.827855364826589, 1};
Point(p10 + 5) = {29.13507216020182, 2.941080160201821, 1};
Point(p10 + 6) = {29.02184736482659, 3.03778327104736, 1};
Point(p10 + 7) = {28.89488885515535, 3.115583545834963, 1};
Point(p10 + 8) = {28.75732277104736, 3.172565283595053, 1};
Point(p10 + 9) = {28.612536446049, 3.207325404832429, 1};
Point(p10 + 10) = {28.464095, 3.219008, 1};
Point(p10 + 11) = {28.315653553951, 3.207325404832429, 1};
Point(p10 + 12) = {28.17086722895264, 3.172565283595053, 1};
Point(p10 + 13) = {28.03330114484465, 3.115583545834963, 1};
Point(p10 + 14) = {27.90634263517341, 3.03778327104736, 1};
Point(p10 + 15) = {27.79311783979818, 2.941080160201821, 1};
Point(p10 + 16) = {27.69641472895264, 2.827855364826589, 1};
Point(p10 + 17) = {27.61861445416504, 2.700896855155355, 1};
Point(p10 + 18) = {27.56163271640495, 2.56333077104736, 1};
Point(p10 + 19) = {27.52687259516757, 2.418544446049001, 1};
Point(p10 + 20) = {27.51519, 2.270103, 1};
Point(p10 + 21) = {27.52687259516757, 2.121661553951, 1};
Point(p10 + 22) = {27.56163271640495, 1.976875228952641, 1};
Point(p10 + 23) = {27.61861445416504, 1.839309144844646, 1};
Point(p10 + 24) = {27.69641472895264, 1.712350635173411, 1};
Point(p10 + 25) = {27.79311783979818, 1.599125839798179, 1};
Point(p10 + 26) = {27.90634263517341, 1.502422728952641, 1};
Point(p10 + 27) = {28.03330114484465, 1.424622454165037, 1};
Point(p10 + 28) = {28.17086722895264, 1.367640716404948, 1};
Point(p10 + 29) = {28.315653553951, 1.332880595167571, 1};
Point(p10 + 30) = {28.464095, 1.321198, 1};
Point(p10 + 31) = {28.612536446049, 1.332880595167571, 1};
Point(p10 + 32) = {28.75732277104736, 1.367640716404948, 1};
Point(p10 + 33) = {28.89488885515535, 1.424622454165037, 1};
Point(p10 + 34) = {29.02184736482659, 1.502422728952641, 1};
Point(p10 + 35) = {29.13507216020182, 1.599125839798179, 1};
Point(p10 + 36) = {29.23177527104736, 1.712350635173411, 1};
Point(p10 + 37) = {29.30957554583496, 1.839309144844645, 1};
Point(p10 + 38) = {29.36655728359505, 1.976875228952641, 1};
Point(p10 + 39) = {29.40131740483243, 2.121661553951, 1};
Spline(10) = {8, p10 + 1, p10 + 2, p10 + 3, p10 + 4, p10 + 5, p10 + 6, p10 + 7, p10 + 8, p10 + 9, p10 + 10, p10 + 11, p10 + 12, p10 + 13, p10 + 14, p10 + 15, p10 + 16, p10 + 17, p10 + 18, p10 + 19, p10 + 20, p10 + 21, p10 + 22, p10 + 23, p10 + 24, p10 + 25, p10 + 26, p10 + 27, p10 + 28, p10 + 29, p10 + 30, p10 + 31, p10 + 32, p10 + 33, p10 + 34, p10 + 35, p10 + 36, p10 + 37, p10 + 38, p10 + 39, 8};
Line(11) = {4, 9};
Line(12) = {9, 7};
Line(13) = {5, 9};
p14 = newp;
Point(p14 + 1) = {29.40131740483243, 2.418544446049001, 0};
Point(p14 + 2) = {29.36655728359505, 2.56333077104736, 0};
Point(p14 + 3) = {29.30957554583496, 2.700896855155355, 0};
Point(p14 + 4) = {29.23177527104736, 2.827855364826589, 0};
Point(p14 + 5) = {29.13507216020182, 2.941080160201821, 0};
Point(p14 + 6) = {29.02184736482659, 3.03778327104736, 0};
Point(p14 + 7) = {28.89488885515535, 3.115583545834963, 0};
Point(p14 + 8) = {28.75732277104736, 3.172565283595053, 0};
Point(p14 + 9) = {28.612536446049, 3.207325404832429, 0};
Point(p14 + 10) = {28.464095, 3.219008, 0};
Point(p14 + 11) = {28.315653553951, 3.207325404832429, 0};
Point(p14 + 12) = {28.17086722895264, 3.172565283595053, 0};
Point(p14 + 13) = {28.03330114484465, 3.115583545834963, 0};
Point(p14 + 14) = {27.90634263517341, 3.03778327104736, 0};
Point(p14 + 15) = {27.79311783979818, 2.941080160201821, 0};
Point(p14 + 16) = {27.69641472895264, 2.827855364826589, 0};
Point(p14 + 17) = {27.61861445416504, 2.700896855155355, 0};
Point(p14 + 18) = {27.56163271640495, 2.56333077104736, 0};
Point(p14 + 19) = {27.52687259516757, 2.418544446049001, 0};
Point(p14 + 20) = {27.51519, 2.270103, 0};
Point(p14 + 21) = {27.52687259516757, 2.121661553951, 0};
Point(p14 + 22) = {27.56163271640495, 1.976875228952641, 0};
Point(p14 + 23) = {27.61861445416504, 1.839309144844646, 0};
Point(p14 + 24) = {27.69641472895264, 1.712350635173411, 0};
Point(p14 + 25) = {27.79311783979818, 1.599125839798179, 0};
Point(p14 + 26) = {27.90634263517341, 1.502422728952641, 0};
Point(p14 + 27) = {28.03330114484465, 1.424622454165037, 0};
Point(p14 + 28) = {28.17086722895264, 1.367640716404948, 0};
Point(p14 + 29) = {28.315653553951, 1.332880595167571, 0};
Point(p14 + 30) = {28.464095, 1.321198, 0};
Point(p14 + 31) = {28.612536446049, 1.332880595167571, 0};
Point(p14 + 32) = {28.75732277104736, 1.367640716404948, 0};
Point(p14 + 33) = {28.89488885515535, 1.424622454165037, 0};
Point(p14 + 34) = {29.02184736482659, 1.502422728952641, 0};
Point(p14 + 35) = {29.13507216020182, 1.599125839798179, 0};
Point(p14 + 36) = {29.23177527104736, 1.712350635173411, 0};
Point(p14 + 37) = {29.30957554583496, 1.839309144844645, 0};
Point(p14 + 38) = {29.36655728359505, 1.976875228952641, 0};
Point(p14 + 39) = {29.40131740483243, 2.121661553951, 0};
Spline(14) = {10, p14 + 1, p14 + 2, p14 + 3, p14 + 4, p14 + 5, p14 + 6, p14 + 7, p14 + 8, p14 + 9, p14 + 10, p14 + 11, p14 + 12, p14 + 13, p14 + 14, p14 + 15, p14 + 16, p14 + 17, p14 + 18, p14 + 19, p14 + 20, p14 + 21, p14 + 22, p14 + 23, p14 + 24, p14 + 25, p14 + 26, p14 + 27, p14 + 28, p14 + 29, p14 + 30, p14 + 31, p14 + 32, p14 + 33, p14 + 34, p14 + 35, p14 + 36, p14 + 37, p14 + 38, p14 + 39, 10};
Line(15) = {10, 8};
Curve Loop(1) = {-1, 4, 3, -2};
Plane Surface(1) = {1};
Curve Loop(2) = {-5, 1, 7, -6};
Plane Surface(2) = {2};
Curve Loop(3) = {-2, 7, 9, -8, -10};
Plane Surface(3) = {3};
Curve Loop(4) = {-11, 3, 8, -12};
Plane Surface(4) = {4};
Curve Loop(5) = {-4, 5, 13, -11, -14};
Plane Surface(5) = {5};
Curve Loop(6) = {-6, 13, 12, -9};
Plane Surface(6) = {6};
Curve Loop(7) = {-10, -15, 14, 15};
Surface(7) = {7};
Surface Loop(1) = {1, 2, 3, 4, 5, 6, 7};
Volume(1) = {1};
Physical Surface("INFLOW") = {1};
Physical Surface("OUTFLOW") = {6};
Physical Surface("OBSTACLE") = {7};
Physical Surface("WALL_Y") = {2, 4};
Physical Surface("WALL_Z") = {3, 5};
Physical Volume("FLUID") = {1};
