cl__1 = 1.911085;
cl__2 = 1.91218;
cl__3 = 1.772965;
cl__4 = 1.774139;
cl__5 = 0.148833;
Point(1) = {0.664371, -3.748985, 1, cl__1};
Point(2) = {0.664371, -3.748985, 0, cl__1};
Point(3) = {0.664371, 3.920213, 1, cl__2};
Point(4) = {0.664371, 3.920213, 0, cl__2};
Point(5) = {39.746545, -3.748985, 0, cl__3};
Point(6) = {39.746545, -3.748985, 1, cl__3};
Point(7) = {39.746545, 3.920213, 1, cl__4};
Point(8) = {22.397376, 0.05619799999999963, 1, cl__5};
Point(9) = {39.746545, 3.920213, 0, cl__4};
Point(10) = {22.397376, 0.05619799999999963, 0, cl__5};
Line(1) = {2, 1};
Line(2) = {1, 3};
Line(3) = {4, 3};
Line(4) = {2, 4};
Line(5) = {2, 5};
Line(6) = {5, 6};
Line(7) = {1, 6};
Line(8) = {3, 7};
Line(9) = {6, 7};
p10 = newp;
Point(p10 + 1) = {22.3790521756463, 0.2890242637877919, 1};
Point(p10 + 2) = {22.32453189595408, 0.5161175722550598, 1};
Point(p10 + 3) = {22.2351576311518, 0.7318861344678593, 1};
Point(p10 + 4) = {22.11313007225506, 0.9310170123297088, 1};
Point(p10 + 5) = {21.96145394275015, 1.108606942750155, 1};
Point(p10 + 6) = {21.78386401232971, 1.26028307225506, 1};
Point(p10 + 7) = {21.58473313446786, 1.382310631151798, 1};
Point(p10 + 8) = {21.36896457225506, 1.471684895954082, 1};
Point(p10 + 9) = {21.14187126378779, 1.526205175646302, 1};
Point(p10 + 10) = {20.909045, 1.544529, 1};
Point(p10 + 11) = {20.67621873621221, 1.526205175646302, 1};
Point(p10 + 12) = {20.44912542774494, 1.471684895954082, 1};
Point(p10 + 13) = {20.23335686553214, 1.382310631151798, 1};
Point(p10 + 14) = {20.03422598767029, 1.26028307225506, 1};
Point(p10 + 15) = {19.85663605724984, 1.108606942750155, 1};
Point(p10 + 16) = {19.70495992774494, 0.931017012329709, 1};
Point(p10 + 17) = {19.5829323688482, 0.7318861344678596, 1};
Point(p10 + 18) = {19.49355810404592, 0.5161175722550601, 1};
Point(p10 + 19) = {19.4390378243537, 0.289024263787792, 1};
Point(p10 + 20) = {19.420714, 0.05619800000000018, 1};
Point(p10 + 21) = {19.4390378243537, -0.1766282637877916, 1};
Point(p10 + 22) = {19.49355810404592, -0.4037215722550603, 1};
Point(p10 + 23) = {19.5829323688482, -0.6194901344678587, 1};
Point(p10 + 24) = {19.70495992774494, -0.8186210123297087, 1};
Point(p10 + 25) = {19.85663605724984, -0.9962109427501555, 1};
Point(p10 + 26) = {20.03422598767029, -1.14788707225506, 1};
Point(p10 + 27) = {20.23335686553214, -1.269914631151798, 1};
Point(p10 + 28) = {20.44912542774494, -1.359288895954082, 1};
Point(p10 + 29) = {20.67621873621221, -1.413809175646302, 1};
Point(p10 + 30) = {20.909045, -1.432133, 1};
Point(p10 + 31) = {21.14187126378779, -1.413809175646302, 1};
Point(p10 + 32) = {21.36896457225506, -1.359288895954082, 1};
Point(p10 + 33) = {21.58473313446786, -1.269914631151798, 1};
Point(p10 + 34) = {21.78386401232971, -1.14788707225506, 1};
Point(p10 + 35) = {21.96145394275015, -0.9962109427501558, 1};
Point(p10 + 36) = {22.11313007225506, -0.8186210123297092, 1};
Point(p10 + 37) = {22.2351576311518, -0.6194901344678597, 1};
Point(p10 + 38) = {22.32453189595408, -0.4037215722550602, 1};
Point(p10 + 39) = {22.3790521756463, -0.1766282637877922, 1};
Spline(10) = {8, p10 + 1, p10 + 2, p10 + 3, p10 + 4, p10 + 5, p10 + 6, p10 + 7, p10 + 8, p10 + 9, p10 + 10, p10 + 11, p10 + 12, p10 + 13, p10 + 14, p10 + 15, p10 + 16, p10 + 17, p10 + 18, p10 + 19, p10 + 20, p10 + 21, p10 + 22, p10 + 23, p10 + 24, p10 + 25, p10 + 26, p10 + 27, p10 + 28, p10 + 29, p10 + 30, p10 + 31, p10 + 32, p10 + 33, p10 + 34, p10 + 35, p10 + 36, p10 + 37, p10 + 38, p10 + 39, 8};
Line(11) = {4, 9};
Line(12) = {9, 7};
Line(13) = {5, 9};
p14 = newp;
Point(p14 + 1) = {22.3790521756463, 0.2890242637877919, 0};
Point(p14 + 2) = {22.32453189595408, 0.5161175722550598, 0};
Point(p14 + 3) = {22.2351576311518, 0.7318861344678593, 0};
Point(p14 + 4) = {22.11313007225506, 0.9310170123297088, 0};
Point(p14 + 5) = {21.96145394275015, 1.108606942750155, 0};
Point(p14 + 6) = {21.78386401232971, 1.26028307225506, 0};
Point(p14 + 7) = {21.58473313446786, 1.382310631151798, 0};
Point(p14 + 8) = {21.36896457225506, 1.471684895954082, 0};
Point(p14 + 9) = {21.14187126378779, 1.526205175646302, 0};
Point(p14 + 10) = {20.909045, 1.544529, 0};
Point(p14 + 11) = {20.67621873621221, 1.526205175646302, 0};
Point(p14 + 12) = {20.44912542774494, 1.471684895954082, 0};
Point(p14 + 13) = {20.23335686553214, 1.382310631151798, 0};
Point(p14 + 14) = {20.03422598767029, 1.26028307225506, 0};
Point(p14 + 15) = {19.85663605724984, 1.108606942750155, 0};
Point(p14 + 16) = {19.70495992774494, 0.931017012329709, 0};
Point(p14 + 17) = {19.5829323688482, 0.7318861344678596, 0};
Point(p14 + 18) = {19.49355810404592, 0.5161175722550601, 0};
Point(p14 + 19) = {19.4390378243537, 0.289024263787792, 0};
Point(p14 + 20) = {19.420714, 0.05619800000000018, 0};
Point(p14 + 21) = {19.4390378243537, -0.1766282637877916, 0};
Point(p14 + 22) = {19.49355810404592, -0.4037215722550603, 0};
Point(p14 + 23) = {19.5829323688482, -0.6194901344678587, 0};
Point(p14 + 24) = {19.70495992774494, -0.8186210123297087, 0};
Point(p14 + 25) = {19.85663605724984, -0.9962109427501555, 0};
Point(p14 + 26) = {20.03422598767029, -1.14788707225506, 0};
Point(p14 + 27) = {20.23335686553214, -1.269914631151798, 0};
Point(p14 + 28) = {20.44912542774494, -1.359288895954082, 0};
Point(p14 + 29) = {20.67621873621221, -1.413809175646302, 0};
Point(p14 + 30) = {20.909045, -1.432133, 0};
Point(p14 + 31) = {21.14187126378779, -1.413809175646302, 0};
Point(p14 + 32) = {21.36896457225506, -1.359288895954082, 0};
Point(p14 + 33) = {21.58473313446786, -1.269914631151798, 0};
Point(p14 + 34) = {21.78386401232971, -1.14788707225506, 0};
Point(p14 + 35) = {21.96145394275015, -0.9962109427501558, 0};
Point(p14 + 36) = {22.11313007225506, -0.8186210123297092, 0};
Point(p14 + 37) = {22.2351576311518, -0.6194901344678597, 0};
Point(p14 + 38) = {22.32453189595408, -0.4037215722550602, 0};
Point(p14 + 39) = {22.3790521756463, -0.1766282637877922, 0};
Spline(14) = {10, p14 + 1, p14 + 2, p14 + 3, p14 + 4, p14 + 5, p14 + 6, p14 + 7, p14 + 8, p14 + 9, p14 + 10, p14 + 11, p14 + 12, p14 + 13, p14 + 14, p14 + 15, p14 + 16, p14 + 17, p14 + 18, p14 + 19, p14 + 20, p14 + 21, p14 + 22, p14 + 23, p14 + 24, p14 + 25, p14 + 26, p14 + 27, p14 + 28, p14 + 29, p14 + 30, p14 + 31, p14 + 32, p14 + 33, p14 + 34, p14 + 35, p14 + 36, p14 + 37, p14 + 38, p14 + 39, 10};
Line(15) = {10, 8};
Curve Loop(1) = {-1, 4, 3, -2};
Plane Surface(1) = {1};
Curve Loop(2) = {-5, 1, 7, -6};
Plane Surface(2) = {2};
Curve Loop(3) = {-2, 7, 9, -8, -10};
Plane Surface(3) = {3};
Curve Loop(4) = {-11, 3, 8, -12};
Plane Surface(4) = {4};
Curve Loop(5) = {-4, 5, 13, -11, -14};
Plane Surface(5) = {5};
Curve Loop(6) = {-6, 13, 12, -9};
Plane Surface(6) = {6};
Curve Loop(7) = {-10, -15, 14, 15};
Surface(7) = {7};
Surface Loop(1) = {1, 2, 3, 4, 5, 6, 7};
Volume(1) = {1};
Physical Surface("INFLOW") = {1};
Physical Surface("OUTFLOW") = {6};
Physical Surface("OBSTACLE") = {7};
Physical Surface("WALL_Y") = {2, 4};
Physical Surface("WALL_Z") = {3, 5};
Physical Volume("FLUID") = {1};
