cl__1 = 1;
cl__2 = 0.136135;
cl__3 = 0.122908;
Point(1) = {0.807497, -4.098404, 1, cl__1};
Point(2) = {0.807497, -4.098404, 0, cl__1};
Point(3) = {0.807497, 4.479224, 1, cl__1};
Point(4) = {0.807497, 4.479224, 0, cl__1};
Point(5) = {30.969308, -4.098404, 0, cl__1};
Point(6) = {30.969308, -4.098404, 1, cl__1};
Point(7) = {30.969308, 4.479224, 1, cl__1};
Point(8) = {29.954246, -0.4878030000000003, 1, cl__2};
Point(9) = {14.347013, -0.2828500000000003, 1, cl__3};
Point(10) = {30.969308, 4.479224, 0, cl__1};
Point(11) = {29.954246, -0.4878030000000003, 0, cl__2};
Point(12) = {14.347013, -0.2828500000000003, 0, cl__3};
Line(1) = {2, 1};
Line(2) = {1, 3};
Line(3) = {4, 3};
Line(4) = {2, 4};
Line(5) = {2, 5};
Line(6) = {5, 6};
Line(7) = {1, 6};
Line(8) = {3, 7};
Line(9) = {6, 7};
p10 = newp;
Point(p10 + 1) = {29.93748553478085, -0.2748410974519467, 1};
Point(p10 + 2) = {29.88761683740189, -0.06712302372465972, 1};
Point(p10 + 3) = {29.80586784069731, 0.1302365128299322, 1};
Point(p10 + 4) = {29.69425147627534, 0.312377865423106, 1};
Point(p10 + 5) = {29.55551610946153, 0.4748161094615252, 1};
Point(p10 + 6) = {29.39307786542311, 0.6135514762753402, 1};
Point(p10 + 7) = {29.21093651282993, 0.7251678406973103, 1};
Point(p10 + 8) = {29.01357697627534, 0.8069168374018909, 1};
Point(p10 + 9) = {28.80585890254805, 0.8567855347808502, 1};
Point(p10 + 10) = {28.592897, 0.8735459999999999, 1};
Point(p10 + 11) = {28.37993509745195, 0.85678553478085, 1};
Point(p10 + 12) = {28.17221702372466, 0.8069168374018911, 1};
Point(p10 + 13) = {27.97485748717007, 0.7251678406973103, 1};
Point(p10 + 14) = {27.7927161345769, 0.6135514762753402, 1};
Point(p10 + 15) = {27.63027789053848, 0.4748161094615253, 1};
Point(p10 + 16) = {27.49154252372466, 0.3123778654231061, 1};
Point(p10 + 17) = {27.37992615930269, 0.1302365128299323, 1};
Point(p10 + 18) = {27.29817716259811, -0.06712302372465961, 1};
Point(p10 + 19) = {27.24830846521915, -0.2748410974519466, 1};
Point(p10 + 20) = {27.231548, -0.4878029999999998, 1};
Point(p10 + 21) = {27.24830846521915, -0.700764902548053, 1};
Point(p10 + 22) = {27.29817716259811, -0.9084829762753407, 1};
Point(p10 + 23) = {27.37992615930269, -1.105842512829931, 1};
Point(p10 + 24) = {27.49154252372466, -1.287983865423106, 1};
Point(p10 + 25) = {27.63027789053848, -1.450422109461525, 1};
Point(p10 + 26) = {27.7927161345769, -1.58915747627534, 1};
Point(p10 + 27) = {27.97485748717007, -1.70077384069731, 1};
Point(p10 + 28) = {28.17221702372466, -1.782522837401891, 1};
Point(p10 + 29) = {28.37993509745195, -1.83239153478085, 1};
Point(p10 + 30) = {28.592897, -1.849152, 1};
Point(p10 + 31) = {28.80585890254805, -1.83239153478085, 1};
Point(p10 + 32) = {29.01357697627534, -1.782522837401891, 1};
Point(p10 + 33) = {29.21093651282993, -1.70077384069731, 1};
Point(p10 + 34) = {29.39307786542311, -1.58915747627534, 1};
Point(p10 + 35) = {29.55551610946153, -1.450422109461525, 1};
Point(p10 + 36) = {29.69425147627534, -1.287983865423106, 1};
Point(p10 + 37) = {29.80586784069731, -1.105842512829933, 1};
Point(p10 + 38) = {29.88761683740189, -0.9084829762753406, 1};
Point(p10 + 39) = {29.93748553478085, -0.7007649025480536, 1};
Spline(10) = {8, p10 + 1, p10 + 2, p10 + 3, p10 + 4, p10 + 5, p10 + 6, p10 + 7, p10 + 8, p10 + 9, p10 + 10, p10 + 11, p10 + 12, p10 + 13, p10 + 14, p10 + 15, p10 + 16, p10 + 17, p10 + 18, p10 + 19, p10 + 20, p10 + 21, p10 + 22, p10 + 23, p10 + 24, p10 + 25, p10 + 26, p10 + 27, p10 + 28, p10 + 29, p10 + 30, p10 + 31, p10 + 32, p10 + 33, p10 + 34, p10 + 35, p10 + 36, p10 + 37, p10 + 38, p10 + 39, 8};
p11 = newp;
Point(p11 + 1) = {14.33188103490531, -0.09058015344621317, 1};
Point(p11 + 2) = {14.28685773882198, 0.09695537137838289, 1};
Point(p11 + 3) = {14.21305173472334, 0.2751388274578832, 1};
Point(p11 + 4) = {14.11228037137838, 0.4395827467466237, 1};
Point(p11 + 5) = {13.98702497419364, 0.586237974193637, 1};
Point(p11 + 6) = {13.84036974674662, 0.7114933713783829, 1};
Point(p11 + 7) = {13.67592582745788, 0.8122647347233423, 1};
Point(p11 + 8) = {13.49774237137838, 0.8860707388219822, 1};
Point(p11 + 9) = {13.31020684655379, 0.9310940349053096, 1};
Point(p11 + 10) = {13.117937, 0.946226, 1};
Point(p11 + 11) = {12.92566715344621, 0.9310940349053094, 1};
Point(p11 + 12) = {12.73813162862162, 0.8860707388219822, 1};
Point(p11 + 13) = {12.55994817254212, 0.8122647347233425, 1};
Point(p11 + 14) = {12.39550425325338, 0.7114933713783829, 1};
Point(p11 + 15) = {12.24884902580636, 0.5862379741936372, 1};
Point(p11 + 16) = {12.12359362862162, 0.4395827467466238, 1};
Point(p11 + 17) = {12.02282226527666, 0.2751388274578834, 1};
Point(p11 + 18) = {11.94901626117802, 0.096955371378383, 1};
Point(p11 + 19) = {11.90399296509469, -0.09058015344621306, 1};
Point(p11 + 20) = {11.888861, -0.2828499999999998, 1};
Point(p11 + 21) = {11.90399296509469, -0.4751198465537866, 1};
Point(p11 + 22) = {11.94901626117802, -0.6626553713783833, 1};
Point(p11 + 23) = {12.02282226527666, -0.8408388274578826, 1};
Point(p11 + 24) = {12.12359362862162, -1.005282746746624, 1};
Point(p11 + 25) = {12.24884902580636, -1.151937974193637, 1};
Point(p11 + 26) = {12.39550425325338, -1.277193371378383, 1};
Point(p11 + 27) = {12.55994817254212, -1.377964734723342, 1};
Point(p11 + 28) = {12.73813162862162, -1.451770738821982, 1};
Point(p11 + 29) = {12.92566715344621, -1.496794034905309, 1};
Point(p11 + 30) = {13.117937, -1.511926, 1};
Point(p11 + 31) = {13.31020684655379, -1.49679403490531, 1};
Point(p11 + 32) = {13.49774237137838, -1.451770738821982, 1};
Point(p11 + 33) = {13.67592582745788, -1.377964734723343, 1};
Point(p11 + 34) = {13.84036974674662, -1.277193371378383, 1};
Point(p11 + 35) = {13.98702497419364, -1.151937974193637, 1};
Point(p11 + 36) = {14.11228037137838, -1.005282746746624, 1};
Point(p11 + 37) = {14.21305173472334, -0.8408388274578835, 1};
Point(p11 + 38) = {14.28685773882198, -0.6626553713783832, 1};
Point(p11 + 39) = {14.33188103490531, -0.475119846553787, 1};
Spline(11) = {9, p11 + 1, p11 + 2, p11 + 3, p11 + 4, p11 + 5, p11 + 6, p11 + 7, p11 + 8, p11 + 9, p11 + 10, p11 + 11, p11 + 12, p11 + 13, p11 + 14, p11 + 15, p11 + 16, p11 + 17, p11 + 18, p11 + 19, p11 + 20, p11 + 21, p11 + 22, p11 + 23, p11 + 24, p11 + 25, p11 + 26, p11 + 27, p11 + 28, p11 + 29, p11 + 30, p11 + 31, p11 + 32, p11 + 33, p11 + 34, p11 + 35, p11 + 36, p11 + 37, p11 + 38, p11 + 39, 9};
Line(12) = {4, 10};
Line(13) = {10, 7};
Line(14) = {5, 10};
p15 = newp;
Point(p15 + 1) = {29.93748553478085, -0.2748410974519467, 0};
Point(p15 + 2) = {29.88761683740189, -0.06712302372465972, 0};
Point(p15 + 3) = {29.80586784069731, 0.1302365128299322, 0};
Point(p15 + 4) = {29.69425147627534, 0.312377865423106, 0};
Point(p15 + 5) = {29.55551610946153, 0.4748161094615252, 0};
Point(p15 + 6) = {29.39307786542311, 0.6135514762753402, 0};
Point(p15 + 7) = {29.21093651282993, 0.7251678406973103, 0};
Point(p15 + 8) = {29.01357697627534, 0.8069168374018909, 0};
Point(p15 + 9) = {28.80585890254805, 0.8567855347808502, 0};
Point(p15 + 10) = {28.592897, 0.8735459999999999, 0};
Point(p15 + 11) = {28.37993509745195, 0.85678553478085, 0};
Point(p15 + 12) = {28.17221702372466, 0.8069168374018911, 0};
Point(p15 + 13) = {27.97485748717007, 0.7251678406973103, 0};
Point(p15 + 14) = {27.7927161345769, 0.6135514762753402, 0};
Point(p15 + 15) = {27.63027789053848, 0.4748161094615253, 0};
Point(p15 + 16) = {27.49154252372466, 0.3123778654231061, 0};
Point(p15 + 17) = {27.37992615930269, 0.1302365128299323, 0};
Point(p15 + 18) = {27.29817716259811, -0.06712302372465961, 0};
Point(p15 + 19) = {27.24830846521915, -0.2748410974519466, 0};
Point(p15 + 20) = {27.231548, -0.4878029999999998, 0};
Point(p15 + 21) = {27.24830846521915, -0.700764902548053, 0};
Point(p15 + 22) = {27.29817716259811, -0.9084829762753407, 0};
Point(p15 + 23) = {27.37992615930269, -1.105842512829931, 0};
Point(p15 + 24) = {27.49154252372466, -1.287983865423106, 0};
Point(p15 + 25) = {27.63027789053848, -1.450422109461525, 0};
Point(p15 + 26) = {27.7927161345769, -1.58915747627534, 0};
Point(p15 + 27) = {27.97485748717007, -1.70077384069731, 0};
Point(p15 + 28) = {28.17221702372466, -1.782522837401891, 0};
Point(p15 + 29) = {28.37993509745195, -1.83239153478085, 0};
Point(p15 + 30) = {28.592897, -1.849152, 0};
Point(p15 + 31) = {28.80585890254805, -1.83239153478085, 0};
Point(p15 + 32) = {29.01357697627534, -1.782522837401891, 0};
Point(p15 + 33) = {29.21093651282993, -1.70077384069731, 0};
Point(p15 + 34) = {29.39307786542311, -1.58915747627534, 0};
Point(p15 + 35) = {29.55551610946153, -1.450422109461525, 0};
Point(p15 + 36) = {29.69425147627534, -1.287983865423106, 0};
Point(p15 + 37) = {29.80586784069731, -1.105842512829933, 0};
Point(p15 + 38) = {29.88761683740189, -0.9084829762753406, 0};
Point(p15 + 39) = {29.93748553478085, -0.7007649025480536, 0};
Spline(15) = {11, p15 + 1, p15 + 2, p15 + 3, p15 + 4, p15 + 5, p15 + 6, p15 + 7, p15 + 8, p15 + 9, p15 + 10, p15 + 11, p15 + 12, p15 + 13, p15 + 14, p15 + 15, p15 + 16, p15 + 17, p15 + 18, p15 + 19, p15 + 20, p15 + 21, p15 + 22, p15 + 23, p15 + 24, p15 + 25, p15 + 26, p15 + 27, p15 + 28, p15 + 29, p15 + 30, p15 + 31, p15 + 32, p15 + 33, p15 + 34, p15 + 35, p15 + 36, p15 + 37, p15 + 38, p15 + 39, 11};
p16 = newp;
Point(p16 + 1) = {14.33188103490531, -0.09058015344621317, 0};
Point(p16 + 2) = {14.28685773882198, 0.09695537137838289, 0};
Point(p16 + 3) = {14.21305173472334, 0.2751388274578832, 0};
Point(p16 + 4) = {14.11228037137838, 0.4395827467466237, 0};
Point(p16 + 5) = {13.98702497419364, 0.586237974193637, 0};
Point(p16 + 6) = {13.84036974674662, 0.7114933713783829, 0};
Point(p16 + 7) = {13.67592582745788, 0.8122647347233423, 0};
Point(p16 + 8) = {13.49774237137838, 0.8860707388219822, 0};
Point(p16 + 9) = {13.31020684655379, 0.9310940349053096, 0};
Point(p16 + 10) = {13.117937, 0.946226, 0};
Point(p16 + 11) = {12.92566715344621, 0.9310940349053094, 0};
Point(p16 + 12) = {12.73813162862162, 0.8860707388219822, 0};
Point(p16 + 13) = {12.55994817254212, 0.8122647347233425, 0};
Point(p16 + 14) = {12.39550425325338, 0.7114933713783829, 0};
Point(p16 + 15) = {12.24884902580636, 0.5862379741936372, 0};
Point(p16 + 16) = {12.12359362862162, 0.4395827467466238, 0};
Point(p16 + 17) = {12.02282226527666, 0.2751388274578834, 0};
Point(p16 + 18) = {11.94901626117802, 0.096955371378383, 0};
Point(p16 + 19) = {11.90399296509469, -0.09058015344621306, 0};
Point(p16 + 20) = {11.888861, -0.2828499999999998, 0};
Point(p16 + 21) = {11.90399296509469, -0.4751198465537866, 0};
Point(p16 + 22) = {11.94901626117802, -0.6626553713783833, 0};
Point(p16 + 23) = {12.02282226527666, -0.8408388274578826, 0};
Point(p16 + 24) = {12.12359362862162, -1.005282746746624, 0};
Point(p16 + 25) = {12.24884902580636, -1.151937974193637, 0};
Point(p16 + 26) = {12.39550425325338, -1.277193371378383, 0};
Point(p16 + 27) = {12.55994817254212, -1.377964734723342, 0};
Point(p16 + 28) = {12.73813162862162, -1.451770738821982, 0};
Point(p16 + 29) = {12.92566715344621, -1.496794034905309, 0};
Point(p16 + 30) = {13.117937, -1.511926, 0};
Point(p16 + 31) = {13.31020684655379, -1.49679403490531, 0};
Point(p16 + 32) = {13.49774237137838, -1.451770738821982, 0};
Point(p16 + 33) = {13.67592582745788, -1.377964734723343, 0};
Point(p16 + 34) = {13.84036974674662, -1.277193371378383, 0};
Point(p16 + 35) = {13.98702497419364, -1.151937974193637, 0};
Point(p16 + 36) = {14.11228037137838, -1.005282746746624, 0};
Point(p16 + 37) = {14.21305173472334, -0.8408388274578835, 0};
Point(p16 + 38) = {14.28685773882198, -0.6626553713783832, 0};
Point(p16 + 39) = {14.33188103490531, -0.475119846553787, 0};
Spline(16) = {12, p16 + 1, p16 + 2, p16 + 3, p16 + 4, p16 + 5, p16 + 6, p16 + 7, p16 + 8, p16 + 9, p16 + 10, p16 + 11, p16 + 12, p16 + 13, p16 + 14, p16 + 15, p16 + 16, p16 + 17, p16 + 18, p16 + 19, p16 + 20, p16 + 21, p16 + 22, p16 + 23, p16 + 24, p16 + 25, p16 + 26, p16 + 27, p16 + 28, p16 + 29, p16 + 30, p16 + 31, p16 + 32, p16 + 33, p16 + 34, p16 + 35, p16 + 36, p16 + 37, p16 + 38, p16 + 39, 12};
Line(17) = {11, 8};
Line(18) = {12, 9};
Curve Loop(1) = {-1, 4, 3, -2};
Plane Surface(1) = {1};
Curve Loop(2) = {-5, 1, 7, -6};
Plane Surface(2) = {2};
Curve Loop(3) = {-2, 7, 9, -8, -10, -11};
Plane Surface(3) = {3};
Curve Loop(4) = {-12, 3, 8, -13};
Plane Surface(4) = {4};
Curve Loop(5) = {-4, 5, 14, -12, -15, -16};
Plane Surface(5) = {5};
Curve Loop(6) = {-6, 14, 13, -9};
Plane Surface(6) = {6};
Curve Loop(7) = {-10, -17, 15, 17};
Surface(7) = {7};
Curve Loop(8) = {-11, -18, 16, 18};
Surface(8) = {8};
Surface Loop(1) = {1, 2, 3, 4, 5, 6, 7, 8};
Volume(1) = {1};
Physical Surface("INFLOW") = {1};
Physical Surface("OUTFLOW") = {6};
Physical Surface("OBSTACLE") = {7, 8};
Physical Surface("WALL_Y") = {2, 4};
Physical Surface("WALL_Z") = {3, 5};
Physical Volume("FLUID") = {1};
