cl__1 = 0.826943;
cl__2 = 1.016851;
cl__3 = 3.217955;
cl__4 = 0.070728;
Point(1) = {0.693313, -3.448072, 1, cl__1};
Point(2) = {0.693313, -3.448072, 0, cl__1};
Point(3) = {0.693313, 4.668226000000001, 1, cl__2};
Point(4) = {0.693313, 4.668226000000001, 0, cl__2};
Point(5) = {31.922641, -3.448072, 0, cl__3};
Point(6) = {31.922641, -3.448072, 1, cl__3};
Point(7) = {31.922641, 4.668226000000001, 1, cl__3};
Point(8) = {10.207921, -1.712505, 1, cl__4};
Point(9) = {31.922641, 4.668226000000001, 0, cl__3};
Point(10) = {10.207921, -1.712505, 0, cl__4};
Line(1) = {2, 1};
Line(2) = {1, 3};
Line(3) = {4, 3};
Line(4) = {2, 4};
Line(5) = {2, 5};
Line(6) = {5, 6};
Line(7) = {1, 6};
Line(8) = {3, 7};
Line(9) = {6, 7};
p10 = newp;
Point(p10 + 1) = {10.19921323415945, -1.601862344435276, 1};
Point(p10 + 2) = {10.1733043507322, -1.493944078252476, 1};
Point(p10 + 3) = {10.1308323124149, -1.391407507325213, 1};
Point(p10 + 4) = {10.07284292174752, -1.296777422329084, 1};
Point(p10 + 5) = {10.00076406998406, -1.212383930015941, 1};
Point(p10 + 6) = {9.916370577670916, -1.140305078252476, 1};
Point(p10 + 7) = {9.821740492674788, -1.082315687585099, 1};
Point(p10 + 8) = {9.719203921747525, -1.039843649267796, 1};
Point(p10 + 9) = {9.611285655564725, -1.013934765840552, 1};
Point(p10 + 10) = {9.500643, -1.005227, 1};
Point(p10 + 11) = {9.390000344435276, -1.013934765840552, 1};
Point(p10 + 12) = {9.282082078252476, -1.039843649267796, 1};
Point(p10 + 13) = {9.179545507325214, -1.082315687585099, 1};
Point(p10 + 14) = {9.084915422329084, -1.140305078252476, 1};
Point(p10 + 15) = {9.000521930015941, -1.212383930015941, 1};
Point(p10 + 16) = {8.928443078252476, -1.296777422329084, 1};
Point(p10 + 17) = {8.870453687585099, -1.391407507325213, 1};
Point(p10 + 18) = {8.827981649267796, -1.493944078252476, 1};
Point(p10 + 19) = {8.802072765840553, -1.601862344435276, 1};
Point(p10 + 20) = {8.793365, -1.712505, 1};
Point(p10 + 21) = {8.802072765840553, -1.823147655564724, 1};
Point(p10 + 22) = {8.827981649267796, -1.931065921747524, 1};
Point(p10 + 23) = {8.870453687585099, -2.033602492674787, 1};
Point(p10 + 24) = {8.928443078252476, -2.128232577670916, 1};
Point(p10 + 25) = {9.000521930015941, -2.212626069984059, 1};
Point(p10 + 26) = {9.084915422329084, -2.284704921747524, 1};
Point(p10 + 27) = {9.179545507325212, -2.3426943124149, 1};
Point(p10 + 28) = {9.282082078252476, -2.385166350732204, 1};
Point(p10 + 29) = {9.390000344435276, -2.411075234159448, 1};
Point(p10 + 30) = {9.500643, -2.419783, 1};
Point(p10 + 31) = {9.611285655564725, -2.411075234159448, 1};
Point(p10 + 32) = {9.719203921747525, -2.385166350732204, 1};
Point(p10 + 33) = {9.821740492674786, -2.3426943124149, 1};
Point(p10 + 34) = {9.916370577670916, -2.284704921747524, 1};
Point(p10 + 35) = {10.00076406998406, -2.212626069984059, 1};
Point(p10 + 36) = {10.07284292174752, -2.128232577670916, 1};
Point(p10 + 37) = {10.1308323124149, -2.033602492674787, 1};
Point(p10 + 38) = {10.1733043507322, -1.931065921747524, 1};
Point(p10 + 39) = {10.19921323415945, -1.823147655564725, 1};
Spline(10) = {8, p10 + 1, p10 + 2, p10 + 3, p10 + 4, p10 + 5, p10 + 6, p10 + 7, p10 + 8, p10 + 9, p10 + 10, p10 + 11, p10 + 12, p10 + 13, p10 + 14, p10 + 15, p10 + 16, p10 + 17, p10 + 18, p10 + 19, p10 + 20, p10 + 21, p10 + 22, p10 + 23, p10 + 24, p10 + 25, p10 + 26, p10 + 27, p10 + 28, p10 + 29, p10 + 30, p10 + 31, p10 + 32, p10 + 33, p10 + 34, p10 + 35, p10 + 36, p10 + 37, p10 + 38, p10 + 39, 8};
Line(11) = {4, 9};
Line(12) = {9, 7};
Line(13) = {5, 9};
p14 = newp;
Point(p14 + 1) = {10.19921323415945, -1.601862344435276, 0};
Point(p14 + 2) = {10.1733043507322, -1.493944078252476, 0};
Point(p14 + 3) = {10.1308323124149, -1.391407507325213, 0};
Point(p14 + 4) = {10.07284292174752, -1.296777422329084, 0};
Point(p14 + 5) = {10.00076406998406, -1.212383930015941, 0};
Point(p14 + 6) = {9.916370577670916, -1.140305078252476, 0};
Point(p14 + 7) = {9.821740492674788, -1.082315687585099, 0};
Point(p14 + 8) = {9.719203921747525, -1.039843649267796, 0};
Point(p14 + 9) = {9.611285655564725, -1.013934765840552, 0};
Point(p14 + 10) = {9.500643, -1.005227, 0};
Point(p14 + 11) = {9.390000344435276, -1.013934765840552, 0};
Point(p14 + 12) = {9.282082078252476, -1.039843649267796, 0};
Point(p14 + 13) = {9.179545507325214, -1.082315687585099, 0};
Point(p14 + 14) = {9.084915422329084, -1.140305078252476, 0};
Point(p14 + 15) = {9.000521930015941, -1.212383930015941, 0};
Point(p14 + 16) = {8.928443078252476, -1.296777422329084, 0};
Point(p14 + 17) = {8.870453687585099, -1.391407507325213, 0};
Point(p14 + 18) = {8.827981649267796, -1.493944078252476, 0};
Point(p14 + 19) = {8.802072765840553, -1.601862344435276, 0};
Point(p14 + 20) = {8.793365, -1.712505, 0};
Point(p14 + 21) = {8.802072765840553, -1.823147655564724, 0};
Point(p14 + 22) = {8.827981649267796, -1.931065921747524, 0};
Point(p14 + 23) = {8.870453687585099, -2.033602492674787, 0};
Point(p14 + 24) = {8.928443078252476, -2.128232577670916, 0};
Point(p14 + 25) = {9.000521930015941, -2.212626069984059, 0};
Point(p14 + 26) = {9.084915422329084, -2.284704921747524, 0};
Point(p14 + 27) = {9.179545507325212, -2.3426943124149, 0};
Point(p14 + 28) = {9.282082078252476, -2.385166350732204, 0};
Point(p14 + 29) = {9.390000344435276, -2.411075234159448, 0};
Point(p14 + 30) = {9.500643, -2.419783, 0};
Point(p14 + 31) = {9.611285655564725, -2.411075234159448, 0};
Point(p14 + 32) = {9.719203921747525, -2.385166350732204, 0};
Point(p14 + 33) = {9.821740492674786, -2.3426943124149, 0};
Point(p14 + 34) = {9.916370577670916, -2.284704921747524, 0};
Point(p14 + 35) = {10.00076406998406, -2.212626069984059, 0};
Point(p14 + 36) = {10.07284292174752, -2.128232577670916, 0};
Point(p14 + 37) = {10.1308323124149, -2.033602492674787, 0};
Point(p14 + 38) = {10.1733043507322, -1.931065921747524, 0};
Point(p14 + 39) = {10.19921323415945, -1.823147655564725, 0};
Spline(14) = {10, p14 + 1, p14 + 2, p14 + 3, p14 + 4, p14 + 5, p14 + 6, p14 + 7, p14 + 8, p14 + 9, p14 + 10, p14 + 11, p14 + 12, p14 + 13, p14 + 14, p14 + 15, p14 + 16, p14 + 17, p14 + 18, p14 + 19, p14 + 20, p14 + 21, p14 + 22, p14 + 23, p14 + 24, p14 + 25, p14 + 26, p14 + 27, p14 + 28, p14 + 29, p14 + 30, p14 + 31, p14 + 32, p14 + 33, p14 + 34, p14 + 35, p14 + 36, p14 + 37, p14 + 38, p14 + 39, 10};
Line(15) = {10, 8};
Curve Loop(1) = {-1, 4, 3, -2};
Plane Surface(1) = {1};
Curve Loop(2) = {-5, 1, 7, -6};
Plane Surface(2) = {2};
Curve Loop(3) = {-2, 7, 9, -8, -10};
Plane Surface(3) = {3};
Curve Loop(4) = {-11, 3, 8, -12};
Plane Surface(4) = {4};
Curve Loop(5) = {-4, 5, 13, -11, -14};
Plane Surface(5) = {5};
Curve Loop(6) = {-6, 13, 12, -9};
Plane Surface(6) = {6};
Curve Loop(7) = {-10, -15, 14, 15};
Surface(7) = {7};
Surface Loop(1) = {1, 2, 3, 4, 5, 6, 7};
Volume(1) = {1};
Physical Surface("INFLOW") = {1};
Physical Surface("OUTFLOW") = {6};
Physical Surface("OBSTACLE") = {7};
Physical Surface("WALL_Y") = {2, 4};
Physical Surface("WALL_Z") = {3, 5};
Physical Volume("FLUID") = {1};
