cl__1 = 1;
cl__2 = 0.08409;
cl__3 = 0.127684;
Point(1) = {0.8698630000000001, -3.361022, 1, cl__1};
Point(2) = {0.8698630000000001, -3.361022, 0, cl__1};
Point(3) = {0.8698630000000001, 4.493665, 1, cl__1};
Point(4) = {0.8698630000000001, 4.493665, 0, cl__1};
Point(5) = {34.00784400000001, -3.361022, 0, cl__1};
Point(6) = {34.00784400000001, -3.361022, 1, cl__1};
Point(7) = {34.00784400000001, 4.493665, 1, cl__1};
Point(8) = {8.157101000000001, -0.6296910000000002, 1, cl__2};
Point(9) = {13.861544, 1.740567, 1, cl__3};
Point(10) = {34.00784400000001, 4.493665, 0, cl__1};
Point(11) = {8.157101000000001, -0.6296910000000002, 0, cl__2};
Point(12) = {13.861544, 1.740567, 0, cl__3};
Line(1) = {2, 1};
Line(2) = {1, 3};
Line(3) = {4, 3};
Line(4) = {2, 4};
Line(5) = {2, 5};
Line(6) = {5, 6};
Line(7) = {1, 6};
Line(8) = {3, 7};
Line(9) = {6, 7};
p10 = newp;
Point(p10 + 1) = {8.146748174853089, -0.4981458840855301, 1};
Point(p10 + 2) = {8.11594462032653, -0.3698398454980842, 1};
Point(p10 + 3) = {8.065448822163901, -0.2479322047310141, 1};
Point(p10 + 4) = {7.996504154501916, -0.1354247324882685, 1};
Point(p10 + 5) = {7.910808263872643, -0.03508773612735705, 1};
Point(p10 + 6) = {7.810471267511732, 0.0506081545019158, 1};
Point(p10 + 7) = {7.697963795268986, 0.1195528221639017, 1};
Point(p10 + 8) = {7.576056154501916, 0.1700486203265295, 1};
Point(p10 + 9) = {7.44775011591447, 0.2008521748530889, 1};
Point(p10 + 10) = {7.316205, 0.211205, 1};
Point(p10 + 11) = {7.18465988408553, 0.2008521748530888, 1};
Point(p10 + 12) = {7.056353845498085, 0.1700486203265295, 1};
Point(p10 + 13) = {6.934446204731014, 0.1195528221639018, 1};
Point(p10 + 14) = {6.821938732488269, 0.0506081545019158, 1};
Point(p10 + 15) = {6.721601736127357, -0.03508773612735694, 1};
Point(p10 + 16) = {6.635905845498084, -0.1354247324882684, 1};
Point(p10 + 17) = {6.566961177836099, -0.247932204731014, 1};
Point(p10 + 18) = {6.516465379673471, -0.3698398454980841, 1};
Point(p10 + 19) = {6.485661825146911, -0.49814588408553, 1};
Point(p10 + 20) = {6.475309, -0.6296909999999999, 1};
Point(p10 + 21) = {6.485661825146911, -0.7612361159144698, 1};
Point(p10 + 22) = {6.516465379673471, -0.889542154501916, 1};
Point(p10 + 23) = {6.566961177836098, -1.011449795268986, 1};
Point(p10 + 24) = {6.635905845498084, -1.123957267511731, 1};
Point(p10 + 25) = {6.721601736127357, -1.224294263872643, 1};
Point(p10 + 26) = {6.821938732488269, -1.309990154501916, 1};
Point(p10 + 27) = {6.934446204731014, -1.378934822163902, 1};
Point(p10 + 28) = {7.056353845498085, -1.429430620326529, 1};
Point(p10 + 29) = {7.18465988408553, -1.460234174853089, 1};
Point(p10 + 30) = {7.316205, -1.470587, 1};
Point(p10 + 31) = {7.44775011591447, -1.460234174853089, 1};
Point(p10 + 32) = {7.576056154501916, -1.429430620326529, 1};
Point(p10 + 33) = {7.697963795268986, -1.378934822163902, 1};
Point(p10 + 34) = {7.810471267511732, -1.309990154501916, 1};
Point(p10 + 35) = {7.910808263872643, -1.224294263872643, 1};
Point(p10 + 36) = {7.996504154501916, -1.123957267511732, 1};
Point(p10 + 37) = {8.065448822163901, -1.011449795268986, 1};
Point(p10 + 38) = {8.11594462032653, -0.889542154501916, 1};
Point(p10 + 39) = {8.146748174853089, -0.7612361159144702, 1};
Spline(10) = {8, p10 + 1, p10 + 2, p10 + 3, p10 + 4, p10 + 5, p10 + 6, p10 + 7, p10 + 8, p10 + 9, p10 + 10, p10 + 11, p10 + 12, p10 + 13, p10 + 14, p10 + 15, p10 + 16, p10 + 17, p10 + 18, p10 + 19, p10 + 20, p10 + 21, p10 + 22, p10 + 23, p10 + 24, p10 + 25, p10 + 26, p10 + 27, p10 + 28, p10 + 29, p10 + 30, p10 + 31, p10 + 32, p10 + 33, p10 + 34, p10 + 35, p10 + 36, p10 + 37, p10 + 38, p10 + 39, 8};
p11 = newp;
Point(p11 + 1) = {13.84582403005213, 1.940308156604108, 1};
Point(p11 + 2) = {13.79905119804024, 2.13513102302973, 1};
Point(p11 + 3) = {13.72237720631858, 2.320238413725444, 1};
Point(p11 + 4) = {13.61769002302973, 2.491072370396112, 1};
Point(p11 + 5) = {13.48756739406311, 2.643426394063106, 1};
Point(p11 + 6) = {13.33521337039611, 2.77354902302973, 1};
Point(p11 + 7) = {13.16437941372544, 2.878236206318579, 1};
Point(p11 + 8) = {12.97927202302973, 2.954910198040239, 1};
Point(p11 + 9) = {12.78444915660411, 3.001683030052133, 1};
Point(p11 + 10) = {12.584708, 3.017403, 1};
Point(p11 + 11) = {12.38496684339589, 3.001683030052133, 1};
Point(p11 + 12) = {12.19014397697027, 2.954910198040239, 1};
Point(p11 + 13) = {12.00503658627455, 2.878236206318579, 1};
Point(p11 + 14) = {11.83420262960389, 2.77354902302973, 1};
Point(p11 + 15) = {11.68184860593689, 2.643426394063106, 1};
Point(p11 + 16) = {11.55172597697027, 2.491072370396112, 1};
Point(p11 + 17) = {11.44703879368142, 2.320238413725444, 1};
Point(p11 + 18) = {11.37036480195976, 2.13513102302973, 1};
Point(p11 + 19) = {11.32359196994787, 1.940308156604108, 1};
Point(p11 + 20) = {11.307872, 1.740567, 1};
Point(p11 + 21) = {11.32359196994787, 1.540825843395892, 1};
Point(p11 + 22) = {11.37036480195976, 1.346002976970269, 1};
Point(p11 + 23) = {11.44703879368142, 1.160895586274557, 1};
Point(p11 + 24) = {11.55172597697027, 0.9900616296038879, 1};
Point(p11 + 25) = {11.68184860593689, 0.8377076059368934, 1};
Point(p11 + 26) = {11.83420262960389, 0.7075849769702696, 1};
Point(p11 + 27) = {12.00503658627455, 0.602897793681421, 1};
Point(p11 + 28) = {12.19014397697027, 0.5262238019597612, 1};
Point(p11 + 29) = {12.38496684339589, 0.4794509699478666, 1};
Point(p11 + 30) = {12.584708, 0.4637309999999999, 1};
Point(p11 + 31) = {12.78444915660411, 0.4794509699478666, 1};
Point(p11 + 32) = {12.97927202302973, 0.5262238019597612, 1};
Point(p11 + 33) = {13.16437941372544, 0.602897793681421, 1};
Point(p11 + 34) = {13.33521337039611, 0.7075849769702693, 1};
Point(p11 + 35) = {13.48756739406311, 0.8377076059368931, 1};
Point(p11 + 36) = {13.61769002302973, 0.9900616296038874, 1};
Point(p11 + 37) = {13.72237720631858, 1.160895586274556, 1};
Point(p11 + 38) = {13.79905119804024, 1.346002976970269, 1};
Point(p11 + 39) = {13.84582403005213, 1.540825843395891, 1};
Spline(11) = {9, p11 + 1, p11 + 2, p11 + 3, p11 + 4, p11 + 5, p11 + 6, p11 + 7, p11 + 8, p11 + 9, p11 + 10, p11 + 11, p11 + 12, p11 + 13, p11 + 14, p11 + 15, p11 + 16, p11 + 17, p11 + 18, p11 + 19, p11 + 20, p11 + 21, p11 + 22, p11 + 23, p11 + 24, p11 + 25, p11 + 26, p11 + 27, p11 + 28, p11 + 29, p11 + 30, p11 + 31, p11 + 32, p11 + 33, p11 + 34, p11 + 35, p11 + 36, p11 + 37, p11 + 38, p11 + 39, 9};
Line(12) = {4, 10};
Line(13) = {10, 7};
Line(14) = {5, 10};
p15 = newp;
Point(p15 + 1) = {8.146748174853089, -0.4981458840855301, 0};
Point(p15 + 2) = {8.11594462032653, -0.3698398454980842, 0};
Point(p15 + 3) = {8.065448822163901, -0.2479322047310141, 0};
Point(p15 + 4) = {7.996504154501916, -0.1354247324882685, 0};
Point(p15 + 5) = {7.910808263872643, -0.03508773612735705, 0};
Point(p15 + 6) = {7.810471267511732, 0.0506081545019158, 0};
Point(p15 + 7) = {7.697963795268986, 0.1195528221639017, 0};
Point(p15 + 8) = {7.576056154501916, 0.1700486203265295, 0};
Point(p15 + 9) = {7.44775011591447, 0.2008521748530889, 0};
Point(p15 + 10) = {7.316205, 0.211205, 0};
Point(p15 + 11) = {7.18465988408553, 0.2008521748530888, 0};
Point(p15 + 12) = {7.056353845498085, 0.1700486203265295, 0};
Point(p15 + 13) = {6.934446204731014, 0.1195528221639018, 0};
Point(p15 + 14) = {6.821938732488269, 0.0506081545019158, 0};
Point(p15 + 15) = {6.721601736127357, -0.03508773612735694, 0};
Point(p15 + 16) = {6.635905845498084, -0.1354247324882684, 0};
Point(p15 + 17) = {6.566961177836099, -0.247932204731014, 0};
Point(p15 + 18) = {6.516465379673471, -0.3698398454980841, 0};
Point(p15 + 19) = {6.485661825146911, -0.49814588408553, 0};
Point(p15 + 20) = {6.475309, -0.6296909999999999, 0};
Point(p15 + 21) = {6.485661825146911, -0.7612361159144698, 0};
Point(p15 + 22) = {6.516465379673471, -0.889542154501916, 0};
Point(p15 + 23) = {6.566961177836098, -1.011449795268986, 0};
Point(p15 + 24) = {6.635905845498084, -1.123957267511731, 0};
Point(p15 + 25) = {6.721601736127357, -1.224294263872643, 0};
Point(p15 + 26) = {6.821938732488269, -1.309990154501916, 0};
Point(p15 + 27) = {6.934446204731014, -1.378934822163902, 0};
Point(p15 + 28) = {7.056353845498085, -1.429430620326529, 0};
Point(p15 + 29) = {7.18465988408553, -1.460234174853089, 0};
Point(p15 + 30) = {7.316205, -1.470587, 0};
Point(p15 + 31) = {7.44775011591447, -1.460234174853089, 0};
Point(p15 + 32) = {7.576056154501916, -1.429430620326529, 0};
Point(p15 + 33) = {7.697963795268986, -1.378934822163902, 0};
Point(p15 + 34) = {7.810471267511732, -1.309990154501916, 0};
Point(p15 + 35) = {7.910808263872643, -1.224294263872643, 0};
Point(p15 + 36) = {7.996504154501916, -1.123957267511732, 0};
Point(p15 + 37) = {8.065448822163901, -1.011449795268986, 0};
Point(p15 + 38) = {8.11594462032653, -0.889542154501916, 0};
Point(p15 + 39) = {8.146748174853089, -0.7612361159144702, 0};
Spline(15) = {11, p15 + 1, p15 + 2, p15 + 3, p15 + 4, p15 + 5, p15 + 6, p15 + 7, p15 + 8, p15 + 9, p15 + 10, p15 + 11, p15 + 12, p15 + 13, p15 + 14, p15 + 15, p15 + 16, p15 + 17, p15 + 18, p15 + 19, p15 + 20, p15 + 21, p15 + 22, p15 + 23, p15 + 24, p15 + 25, p15 + 26, p15 + 27, p15 + 28, p15 + 29, p15 + 30, p15 + 31, p15 + 32, p15 + 33, p15 + 34, p15 + 35, p15 + 36, p15 + 37, p15 + 38, p15 + 39, 11};
p16 = newp;
Point(p16 + 1) = {13.84582403005213, 1.940308156604108, 0};
Point(p16 + 2) = {13.79905119804024, 2.13513102302973, 0};
Point(p16 + 3) = {13.72237720631858, 2.320238413725444, 0};
Point(p16 + 4) = {13.61769002302973, 2.491072370396112, 0};
Point(p16 + 5) = {13.48756739406311, 2.643426394063106, 0};
Point(p16 + 6) = {13.33521337039611, 2.77354902302973, 0};
Point(p16 + 7) = {13.16437941372544, 2.878236206318579, 0};
Point(p16 + 8) = {12.97927202302973, 2.954910198040239, 0};
Point(p16 + 9) = {12.78444915660411, 3.001683030052133, 0};
Point(p16 + 10) = {12.584708, 3.017403, 0};
Point(p16 + 11) = {12.38496684339589, 3.001683030052133, 0};
Point(p16 + 12) = {12.19014397697027, 2.954910198040239, 0};
Point(p16 + 13) = {12.00503658627455, 2.878236206318579, 0};
Point(p16 + 14) = {11.83420262960389, 2.77354902302973, 0};
Point(p16 + 15) = {11.68184860593689, 2.643426394063106, 0};
Point(p16 + 16) = {11.55172597697027, 2.491072370396112, 0};
Point(p16 + 17) = {11.44703879368142, 2.320238413725444, 0};
Point(p16 + 18) = {11.37036480195976, 2.13513102302973, 0};
Point(p16 + 19) = {11.32359196994787, 1.940308156604108, 0};
Point(p16 + 20) = {11.307872, 1.740567, 0};
Point(p16 + 21) = {11.32359196994787, 1.540825843395892, 0};
Point(p16 + 22) = {11.37036480195976, 1.346002976970269, 0};
Point(p16 + 23) = {11.44703879368142, 1.160895586274557, 0};
Point(p16 + 24) = {11.55172597697027, 0.9900616296038879, 0};
Point(p16 + 25) = {11.68184860593689, 0.8377076059368934, 0};
Point(p16 + 26) = {11.83420262960389, 0.7075849769702696, 0};
Point(p16 + 27) = {12.00503658627455, 0.602897793681421, 0};
Point(p16 + 28) = {12.19014397697027, 0.5262238019597612, 0};
Point(p16 + 29) = {12.38496684339589, 0.4794509699478666, 0};
Point(p16 + 30) = {12.584708, 0.4637309999999999, 0};
Point(p16 + 31) = {12.78444915660411, 0.4794509699478666, 0};
Point(p16 + 32) = {12.97927202302973, 0.5262238019597612, 0};
Point(p16 + 33) = {13.16437941372544, 0.602897793681421, 0};
Point(p16 + 34) = {13.33521337039611, 0.7075849769702693, 0};
Point(p16 + 35) = {13.48756739406311, 0.8377076059368931, 0};
Point(p16 + 36) = {13.61769002302973, 0.9900616296038874, 0};
Point(p16 + 37) = {13.72237720631858, 1.160895586274556, 0};
Point(p16 + 38) = {13.79905119804024, 1.346002976970269, 0};
Point(p16 + 39) = {13.84582403005213, 1.540825843395891, 0};
Spline(16) = {12, p16 + 1, p16 + 2, p16 + 3, p16 + 4, p16 + 5, p16 + 6, p16 + 7, p16 + 8, p16 + 9, p16 + 10, p16 + 11, p16 + 12, p16 + 13, p16 + 14, p16 + 15, p16 + 16, p16 + 17, p16 + 18, p16 + 19, p16 + 20, p16 + 21, p16 + 22, p16 + 23, p16 + 24, p16 + 25, p16 + 26, p16 + 27, p16 + 28, p16 + 29, p16 + 30, p16 + 31, p16 + 32, p16 + 33, p16 + 34, p16 + 35, p16 + 36, p16 + 37, p16 + 38, p16 + 39, 12};
Line(17) = {11, 8};
Line(18) = {12, 9};
Curve Loop(1) = {-1, 4, 3, -2};
Plane Surface(1) = {1};
Curve Loop(2) = {-5, 1, 7, -6};
Plane Surface(2) = {2};
Curve Loop(3) = {-2, 7, 9, -8, -10, -11};
Plane Surface(3) = {3};
Curve Loop(4) = {-12, 3, 8, -13};
Plane Surface(4) = {4};
Curve Loop(5) = {-4, 5, 14, -12, -15, -16};
Plane Surface(5) = {5};
Curve Loop(6) = {-6, 14, 13, -9};
Plane Surface(6) = {6};
Curve Loop(7) = {-10, -17, 15, 17};
Surface(7) = {7};
Curve Loop(8) = {-11, -18, 16, 18};
Surface(8) = {8};
Surface Loop(1) = {1, 2, 3, 4, 5, 6, 7, 8};
Volume(1) = {1};
Physical Surface("INFLOW") = {1};
Physical Surface("OUTFLOW") = {6};
Physical Surface("OBSTACLE") = {7, 8};
Physical Surface("WALL_Y") = {2, 4};
Physical Surface("WALL_Z") = {3, 5};
Physical Volume("FLUID") = {1};
