cl__1 = 3.134092;
cl__2 = 1.210422;
cl__3 = 1.245146;
cl__4 = 0.112619;
cl__5 = 0.112535;
Point(1) = {0.334303, -3.79754, 1, cl__1};
Point(2) = {0.334303, -3.79754, 0, cl__1};
Point(3) = {0.334303, 4.298358, 1, cl__2};
Point(4) = {0.334303, 4.298358, 0, cl__2};
Point(5) = {31.078407, -3.79754, 0, cl__3};
Point(6) = {31.078407, -3.79754, 1, cl__3};
Point(7) = {31.078407, 4.298358, 1, cl__2};
Point(8) = {14.860305, -1.60727, 1, cl__4};
Point(9) = {20.38049, 2.138115, 1, cl__5};
Point(10) = {31.078407, 4.298358, 0, cl__2};
Point(11) = {14.860305, -1.60727, 0, cl__4};
Point(12) = {20.38049, 2.138115, 0, cl__5};
Line(1) = {2, 1};
Line(2) = {1, 3};
Line(3) = {4, 3};
Line(4) = {2, 4};
Line(5) = {2, 5};
Line(6) = {5, 6};
Line(7) = {1, 6};
Line(8) = {3, 7};
Line(9) = {6, 7};
p10 = newp;
Point(p10 + 1) = {14.84643979385314, -1.431095851988668, 1};
Point(p10 + 2) = {14.80518558280386, -1.25925969618985, 1};
Point(p10 + 3) = {14.73755818244308, -1.095992709050818, 1};
Point(p10 + 4) = {14.64522280381015, -0.9453150656470011, 1};
Point(p10 + 5) = {14.53045305037057, -0.8109369496294281, 1};
Point(p10 + 6) = {14.396074934353, -0.6961671961898498, 1};
Point(p10 + 7) = {14.24539729094918, -0.6038318175569231, 1};
Point(p10 + 8) = {14.08213030381015, -0.5362044171961424, 1};
Point(p10 + 9) = {13.91029414801133, -0.4949502061468647, 1};
Point(p10 + 10) = {13.73412, -0.481085, 1};
Point(p10 + 11) = {13.55794585198867, -0.4949502061468649, 1};
Point(p10 + 12) = {13.38610969618985, -0.5362044171961424, 1};
Point(p10 + 13) = {13.22284270905082, -0.6038318175569228, 1};
Point(p10 + 14) = {13.072165065647, -0.6961671961898498, 1};
Point(p10 + 15) = {12.93778694962943, -0.8109369496294279, 1};
Point(p10 + 16) = {12.82301719618985, -0.945315065647001, 1};
Point(p10 + 17) = {12.73068181755692, -1.095992709050818, 1};
Point(p10 + 18) = {12.66305441719614, -1.25925969618985, 1};
Point(p10 + 19) = {12.62180020614687, -1.431095851988667, 1};
Point(p10 + 20) = {12.607935, -1.60727, 1};
Point(p10 + 21) = {12.62180020614687, -1.783444148011332, 1};
Point(p10 + 22) = {12.66305441719614, -1.95528030381015, 1};
Point(p10 + 23) = {12.73068181755692, -2.118547290949181, 1};
Point(p10 + 24) = {12.82301719618985, -2.269224934352999, 1};
Point(p10 + 25) = {12.93778694962943, -2.403603050370572, 1};
Point(p10 + 26) = {13.072165065647, -2.51837280381015, 1};
Point(p10 + 27) = {13.22284270905082, -2.610708182443077, 1};
Point(p10 + 28) = {13.38610969618985, -2.678335582803857, 1};
Point(p10 + 29) = {13.55794585198867, -2.719589793853135, 1};
Point(p10 + 30) = {13.73412, -2.733455, 1};
Point(p10 + 31) = {13.91029414801133, -2.719589793853135, 1};
Point(p10 + 32) = {14.08213030381015, -2.678335582803857, 1};
Point(p10 + 33) = {14.24539729094918, -2.610708182443077, 1};
Point(p10 + 34) = {14.396074934353, -2.51837280381015, 1};
Point(p10 + 35) = {14.53045305037057, -2.403603050370572, 1};
Point(p10 + 36) = {14.64522280381015, -2.269224934352999, 1};
Point(p10 + 37) = {14.73755818244308, -2.118547290949182, 1};
Point(p10 + 38) = {14.80518558280386, -1.95528030381015, 1};
Point(p10 + 39) = {14.84643979385314, -1.783444148011333, 1};
Spline(10) = {8, p10 + 1, p10 + 2, p10 + 3, p10 + 4, p10 + 5, p10 + 6, p10 + 7, p10 + 8, p10 + 9, p10 + 10, p10 + 11, p10 + 12, p10 + 13, p10 + 14, p10 + 15, p10 + 16, p10 + 17, p10 + 18, p10 + 19, p10 + 20, p10 + 21, p10 + 22, p10 + 23, p10 + 24, p10 + 25, p10 + 26, p10 + 27, p10 + 28, p10 + 29, p10 + 30, p10 + 31, p10 + 32, p10 + 33, p10 + 34, p10 + 35, p10 + 36, p10 + 37, p10 + 38, p10 + 39, 8};
p11 = newp;
Point(p11 + 1) = {20.3666350864004, 2.314158368798559, 1};
Point(p11 + 2) = {20.32541149955623, 2.485866965602852, 1};
Point(p11 + 3) = {20.25783430098885, 2.649012754891399, 1};
Point(p11 + 4) = {20.16556746560285, 2.799578545882082, 1};
Point(p11 + 5) = {20.0508829091015, 2.9338569091015, 1};
Point(p11 + 6) = {19.91660454588208, 3.048541465602852, 1};
Point(p11 + 7) = {19.7660387548914, 3.140808300988855, 1};
Point(p11 + 8) = {19.60289296560285, 3.208385499556234, 1};
Point(p11 + 9) = {19.43118436879856, 3.249609086400397, 1};
Point(p11 + 10) = {19.255141, 3.263464, 1};
Point(p11 + 11) = {19.07909763120144, 3.249609086400397, 1};
Point(p11 + 12) = {18.90738903439714, 3.208385499556235, 1};
Point(p11 + 13) = {18.7442432451086, 3.140808300988856, 1};
Point(p11 + 14) = {18.59367745411792, 3.048541465602852, 1};
Point(p11 + 15) = {18.4593990908985, 2.9338569091015, 1};
Point(p11 + 16) = {18.34471453439714, 2.799578545882083, 1};
Point(p11 + 17) = {18.25244769901114, 2.649012754891399, 1};
Point(p11 + 18) = {18.18487050044376, 2.485866965602853, 1};
Point(p11 + 19) = {18.1436469135996, 2.314158368798559, 1};
Point(p11 + 20) = {18.129792, 2.138115, 1};
Point(p11 + 21) = {18.1436469135996, 1.962071631201441, 1};
Point(p11 + 22) = {18.18487050044376, 1.790363034397147, 1};
Point(p11 + 23) = {18.25244769901114, 1.627217245108601, 1};
Point(p11 + 24) = {18.34471453439714, 1.476651454117918, 1};
Point(p11 + 25) = {18.4593990908985, 1.3423730908985, 1};
Point(p11 + 26) = {18.59367745411792, 1.227688534397148, 1};
Point(p11 + 27) = {18.7442432451086, 1.135421699011145, 1};
Point(p11 + 28) = {18.90738903439714, 1.067844500443765, 1};
Point(p11 + 29) = {19.07909763120144, 1.026620913599603, 1};
Point(p11 + 30) = {19.255141, 1.012766, 1};
Point(p11 + 31) = {19.43118436879856, 1.026620913599602, 1};
Point(p11 + 32) = {19.60289296560285, 1.067844500443765, 1};
Point(p11 + 33) = {19.7660387548914, 1.135421699011144, 1};
Point(p11 + 34) = {19.91660454588208, 1.227688534397147, 1};
Point(p11 + 35) = {20.0508829091015, 1.3423730908985, 1};
Point(p11 + 36) = {20.16556746560285, 1.476651454117917, 1};
Point(p11 + 37) = {20.25783430098885, 1.6272172451086, 1};
Point(p11 + 38) = {20.32541149955623, 1.790363034397147, 1};
Point(p11 + 39) = {20.3666350864004, 1.962071631201441, 1};
Spline(11) = {9, p11 + 1, p11 + 2, p11 + 3, p11 + 4, p11 + 5, p11 + 6, p11 + 7, p11 + 8, p11 + 9, p11 + 10, p11 + 11, p11 + 12, p11 + 13, p11 + 14, p11 + 15, p11 + 16, p11 + 17, p11 + 18, p11 + 19, p11 + 20, p11 + 21, p11 + 22, p11 + 23, p11 + 24, p11 + 25, p11 + 26, p11 + 27, p11 + 28, p11 + 29, p11 + 30, p11 + 31, p11 + 32, p11 + 33, p11 + 34, p11 + 35, p11 + 36, p11 + 37, p11 + 38, p11 + 39, 9};
Line(12) = {4, 10};
Line(13) = {10, 7};
Line(14) = {5, 10};
p15 = newp;
Point(p15 + 1) = {14.84643979385314, -1.431095851988668, 0};
Point(p15 + 2) = {14.80518558280386, -1.25925969618985, 0};
Point(p15 + 3) = {14.73755818244308, -1.095992709050818, 0};
Point(p15 + 4) = {14.64522280381015, -0.9453150656470011, 0};
Point(p15 + 5) = {14.53045305037057, -0.8109369496294281, 0};
Point(p15 + 6) = {14.396074934353, -0.6961671961898498, 0};
Point(p15 + 7) = {14.24539729094918, -0.6038318175569231, 0};
Point(p15 + 8) = {14.08213030381015, -0.5362044171961424, 0};
Point(p15 + 9) = {13.91029414801133, -0.4949502061468647, 0};
Point(p15 + 10) = {13.73412, -0.481085, 0};
Point(p15 + 11) = {13.55794585198867, -0.4949502061468649, 0};
Point(p15 + 12) = {13.38610969618985, -0.5362044171961424, 0};
Point(p15 + 13) = {13.22284270905082, -0.6038318175569228, 0};
Point(p15 + 14) = {13.072165065647, -0.6961671961898498, 0};
Point(p15 + 15) = {12.93778694962943, -0.8109369496294279, 0};
Point(p15 + 16) = {12.82301719618985, -0.945315065647001, 0};
Point(p15 + 17) = {12.73068181755692, -1.095992709050818, 0};
Point(p15 + 18) = {12.66305441719614, -1.25925969618985, 0};
Point(p15 + 19) = {12.62180020614687, -1.431095851988667, 0};
Point(p15 + 20) = {12.607935, -1.60727, 0};
Point(p15 + 21) = {12.62180020614687, -1.783444148011332, 0};
Point(p15 + 22) = {12.66305441719614, -1.95528030381015, 0};
Point(p15 + 23) = {12.73068181755692, -2.118547290949181, 0};
Point(p15 + 24) = {12.82301719618985, -2.269224934352999, 0};
Point(p15 + 25) = {12.93778694962943, -2.403603050370572, 0};
Point(p15 + 26) = {13.072165065647, -2.51837280381015, 0};
Point(p15 + 27) = {13.22284270905082, -2.610708182443077, 0};
Point(p15 + 28) = {13.38610969618985, -2.678335582803857, 0};
Point(p15 + 29) = {13.55794585198867, -2.719589793853135, 0};
Point(p15 + 30) = {13.73412, -2.733455, 0};
Point(p15 + 31) = {13.91029414801133, -2.719589793853135, 0};
Point(p15 + 32) = {14.08213030381015, -2.678335582803857, 0};
Point(p15 + 33) = {14.24539729094918, -2.610708182443077, 0};
Point(p15 + 34) = {14.396074934353, -2.51837280381015, 0};
Point(p15 + 35) = {14.53045305037057, -2.403603050370572, 0};
Point(p15 + 36) = {14.64522280381015, -2.269224934352999, 0};
Point(p15 + 37) = {14.73755818244308, -2.118547290949182, 0};
Point(p15 + 38) = {14.80518558280386, -1.95528030381015, 0};
Point(p15 + 39) = {14.84643979385314, -1.783444148011333, 0};
Spline(15) = {11, p15 + 1, p15 + 2, p15 + 3, p15 + 4, p15 + 5, p15 + 6, p15 + 7, p15 + 8, p15 + 9, p15 + 10, p15 + 11, p15 + 12, p15 + 13, p15 + 14, p15 + 15, p15 + 16, p15 + 17, p15 + 18, p15 + 19, p15 + 20, p15 + 21, p15 + 22, p15 + 23, p15 + 24, p15 + 25, p15 + 26, p15 + 27, p15 + 28, p15 + 29, p15 + 30, p15 + 31, p15 + 32, p15 + 33, p15 + 34, p15 + 35, p15 + 36, p15 + 37, p15 + 38, p15 + 39, 11};
p16 = newp;
Point(p16 + 1) = {20.3666350864004, 2.314158368798559, 0};
Point(p16 + 2) = {20.32541149955623, 2.485866965602852, 0};
Point(p16 + 3) = {20.25783430098885, 2.649012754891399, 0};
Point(p16 + 4) = {20.16556746560285, 2.799578545882082, 0};
Point(p16 + 5) = {20.0508829091015, 2.9338569091015, 0};
Point(p16 + 6) = {19.91660454588208, 3.048541465602852, 0};
Point(p16 + 7) = {19.7660387548914, 3.140808300988855, 0};
Point(p16 + 8) = {19.60289296560285, 3.208385499556234, 0};
Point(p16 + 9) = {19.43118436879856, 3.249609086400397, 0};
Point(p16 + 10) = {19.255141, 3.263464, 0};
Point(p16 + 11) = {19.07909763120144, 3.249609086400397, 0};
Point(p16 + 12) = {18.90738903439714, 3.208385499556235, 0};
Point(p16 + 13) = {18.7442432451086, 3.140808300988856, 0};
Point(p16 + 14) = {18.59367745411792, 3.048541465602852, 0};
Point(p16 + 15) = {18.4593990908985, 2.9338569091015, 0};
Point(p16 + 16) = {18.34471453439714, 2.799578545882083, 0};
Point(p16 + 17) = {18.25244769901114, 2.649012754891399, 0};
Point(p16 + 18) = {18.18487050044376, 2.485866965602853, 0};
Point(p16 + 19) = {18.1436469135996, 2.314158368798559, 0};
Point(p16 + 20) = {18.129792, 2.138115, 0};
Point(p16 + 21) = {18.1436469135996, 1.962071631201441, 0};
Point(p16 + 22) = {18.18487050044376, 1.790363034397147, 0};
Point(p16 + 23) = {18.25244769901114, 1.627217245108601, 0};
Point(p16 + 24) = {18.34471453439714, 1.476651454117918, 0};
Point(p16 + 25) = {18.4593990908985, 1.3423730908985, 0};
Point(p16 + 26) = {18.59367745411792, 1.227688534397148, 0};
Point(p16 + 27) = {18.7442432451086, 1.135421699011145, 0};
Point(p16 + 28) = {18.90738903439714, 1.067844500443765, 0};
Point(p16 + 29) = {19.07909763120144, 1.026620913599603, 0};
Point(p16 + 30) = {19.255141, 1.012766, 0};
Point(p16 + 31) = {19.43118436879856, 1.026620913599602, 0};
Point(p16 + 32) = {19.60289296560285, 1.067844500443765, 0};
Point(p16 + 33) = {19.7660387548914, 1.135421699011144, 0};
Point(p16 + 34) = {19.91660454588208, 1.227688534397147, 0};
Point(p16 + 35) = {20.0508829091015, 1.3423730908985, 0};
Point(p16 + 36) = {20.16556746560285, 1.476651454117917, 0};
Point(p16 + 37) = {20.25783430098885, 1.6272172451086, 0};
Point(p16 + 38) = {20.32541149955623, 1.790363034397147, 0};
Point(p16 + 39) = {20.3666350864004, 1.962071631201441, 0};
Spline(16) = {12, p16 + 1, p16 + 2, p16 + 3, p16 + 4, p16 + 5, p16 + 6, p16 + 7, p16 + 8, p16 + 9, p16 + 10, p16 + 11, p16 + 12, p16 + 13, p16 + 14, p16 + 15, p16 + 16, p16 + 17, p16 + 18, p16 + 19, p16 + 20, p16 + 21, p16 + 22, p16 + 23, p16 + 24, p16 + 25, p16 + 26, p16 + 27, p16 + 28, p16 + 29, p16 + 30, p16 + 31, p16 + 32, p16 + 33, p16 + 34, p16 + 35, p16 + 36, p16 + 37, p16 + 38, p16 + 39, 12};
Line(17) = {11, 8};
Line(18) = {12, 9};
Curve Loop(1) = {-1, 4, 3, -2};
Plane Surface(1) = {1};
Curve Loop(2) = {-5, 1, 7, -6};
Plane Surface(2) = {2};
Curve Loop(3) = {-2, 7, 9, -8, -10, -11};
Plane Surface(3) = {3};
Curve Loop(4) = {-12, 3, 8, -13};
Plane Surface(4) = {4};
Curve Loop(5) = {-4, 5, 14, -12, -15, -16};
Plane Surface(5) = {5};
Curve Loop(6) = {-6, 14, 13, -9};
Plane Surface(6) = {6};
Curve Loop(7) = {-10, -17, 15, 17};
Surface(7) = {7};
Curve Loop(8) = {-11, -18, 16, 18};
Surface(8) = {8};
Surface Loop(1) = {1, 2, 3, 4, 5, 6, 7, 8};
Volume(1) = {1};
Physical Surface("INFLOW") = {1};
Physical Surface("OUTFLOW") = {6};
Physical Surface("OBSTACLE") = {7, 8};
Physical Surface("WALL_Y") = {2, 4};
Physical Surface("WALL_Z") = {3, 5};
Physical Volume("FLUID") = {1};
