cl__1 = 1.013164;
cl__2 = 0.7387590000000001;
cl__3 = 3.202802;
cl__4 = 0.09815;
cl__5 = 0.141616;
Point(1) = {0.615993, -4.134026, 1, cl__1};
Point(2) = {0.615993, -4.134026, 0, cl__1};
Point(3) = {0.615993, 4.192261, 1, cl__2};
Point(4) = {0.615993, 4.192261, 0, cl__2};
Point(5) = {31.756291, -4.134026, 0, cl__1};
Point(6) = {31.756291, -4.134026, 1, cl__1};
Point(7) = {31.756291, 4.192261, 1, cl__3};
Point(8) = {26.299338, 1.212742, 1, cl__4};
Point(9) = {12.147784, 1.436059, 1, cl__5};
Point(10) = {31.756291, 4.192261, 0, cl__3};
Point(11) = {26.299338, 1.212742, 0, cl__4};
Point(12) = {12.147784, 1.436059, 0, cl__5};
Line(1) = {2, 1};
Line(2) = {1, 3};
Line(3) = {4, 3};
Line(4) = {2, 4};
Line(5) = {2, 5};
Line(6) = {5, 6};
Line(7) = {1, 6};
Line(8) = {3, 7};
Line(9) = {6, 7};
p10 = newp;
Point(p10 + 1) = {26.28725415554077, 1.366281801699126, 1};
Point(p10 + 2) = {26.25130016651763, 1.516040943911033, 1};
Point(p10 + 3) = {26.19236133946479, 1.658331859532366, 1};
Point(p10 + 4) = {26.11188894391103, 1.789650873984053, 1};
Point(p10 + 5) = {26.01186447730747, 1.906764477307472, 1};
Point(p10 + 6) = {25.89475087398405, 2.006788943911034, 1};
Point(p10 + 7) = {25.76343185953236, 2.087261339464786, 1};
Point(p10 + 8) = {25.62114094391103, 2.146200166517628, 1};
Point(p10 + 9) = {25.47138180169912, 2.182154155540765, 1};
Point(p10 + 10) = {25.317842, 2.194238, 1};
Point(p10 + 11) = {25.16430219830087, 2.182154155540765, 1};
Point(p10 + 12) = {25.01454305608896, 2.146200166517628, 1};
Point(p10 + 13) = {24.87225214046763, 2.087261339464786, 1};
Point(p10 + 14) = {24.74093312601595, 2.006788943911034, 1};
Point(p10 + 15) = {24.62381952269253, 1.906764477307472, 1};
Point(p10 + 16) = {24.52379505608896, 1.789650873984053, 1};
Point(p10 + 17) = {24.44332266053521, 1.658331859532366, 1};
Point(p10 + 18) = {24.38438383348237, 1.516040943911034, 1};
Point(p10 + 19) = {24.34842984445923, 1.366281801699126, 1};
Point(p10 + 20) = {24.336346, 1.212742, 1};
Point(p10 + 21) = {24.34842984445923, 1.059202198300874, 1};
Point(p10 + 22) = {24.38438383348237, 0.9094430560889664, 1};
Point(p10 + 23) = {24.44332266053521, 0.7671521404676342, 1};
Point(p10 + 24) = {24.52379505608896, 0.6358331260159469, 1};
Point(p10 + 25) = {24.62381952269253, 0.5187195226925284, 1};
Point(p10 + 26) = {24.74093312601595, 0.4186950560889666, 1};
Point(p10 + 27) = {24.87225214046763, 0.3382226605352138, 1};
Point(p10 + 28) = {25.01454305608896, 0.279283833482372, 1};
Point(p10 + 29) = {25.16430219830087, 0.2433298444592347, 1};
Point(p10 + 30) = {25.317842, 0.231246, 1};
Point(p10 + 31) = {25.47138180169912, 0.2433298444592346, 1};
Point(p10 + 32) = {25.62114094391103, 0.2792838334823718, 1};
Point(p10 + 33) = {25.76343185953236, 0.3382226605352137, 1};
Point(p10 + 34) = {25.89475087398405, 0.4186950560889664, 1};
Point(p10 + 35) = {26.01186447730747, 0.5187195226925282, 1};
Point(p10 + 36) = {26.11188894391103, 0.6358331260159465, 1};
Point(p10 + 37) = {26.19236133946479, 0.7671521404676336, 1};
Point(p10 + 38) = {26.25130016651763, 0.9094430560889664, 1};
Point(p10 + 39) = {26.28725415554077, 1.059202198300873, 1};
Spline(10) = {8, p10 + 1, p10 + 2, p10 + 3, p10 + 4, p10 + 5, p10 + 6, p10 + 7, p10 + 8, p10 + 9, p10 + 10, p10 + 11, p10 + 12, p10 + 13, p10 + 14, p10 + 15, p10 + 16, p10 + 17, p10 + 18, p10 + 19, p10 + 20, p10 + 21, p10 + 22, p10 + 23, p10 + 24, p10 + 25, p10 + 26, p10 + 27, p10 + 28, p10 + 29, p10 + 30, p10 + 31, p10 + 32, p10 + 33, p10 + 34, p10 + 35, p10 + 36, p10 + 37, p10 + 38, p10 + 39, 8};
p11 = newp;
Point(p11 + 1) = {12.13034868348223, 1.657595701314768, 1};
Point(p11 + 2) = {12.07847204928609, 1.873677433805009, 1};
Point(p11 + 3) = {11.99343147231417, 2.078983548082656, 1};
Point(p11 + 4) = {11.87732093380501, 2.268458726242266, 1};
Point(p11 + 5) = {11.73299946056549, 2.437437460565484, 1};
Point(p11 + 6) = {11.56402072624227, 2.581758933805009, 1};
Point(p11 + 7) = {11.37454554808266, 2.697869472314172, 1};
Point(p11 + 8) = {11.16923943380501, 2.782910049286094, 1};
Point(p11 + 9) = {10.95315770131477, 2.834786683482232, 1};
Point(p11 + 10) = {10.731621, 2.852222, 1};
Point(p11 + 11) = {10.51008429868523, 2.834786683482232, 1};
Point(p11 + 12) = {10.29400256619499, 2.782910049286094, 1};
Point(p11 + 13) = {10.08869645191734, 2.697869472314172, 1};
Point(p11 + 14) = {9.899221273757735, 2.581758933805009, 1};
Point(p11 + 15) = {9.730242539434515, 2.437437460565484, 1};
Point(p11 + 16) = {9.585921066194992, 2.268458726242266, 1};
Point(p11 + 17) = {9.469810527685828, 2.078983548082656, 1};
Point(p11 + 18) = {9.384769950713906, 1.873677433805009, 1};
Point(p11 + 19) = {9.332893316517769, 1.657595701314769, 1};
Point(p11 + 20) = {9.315458, 1.436059, 1};
Point(p11 + 21) = {9.332893316517769, 1.214522298685232, 1};
Point(p11 + 22) = {9.384769950713906, 0.9984405661949909, 1};
Point(p11 + 23) = {9.469810527685828, 0.7931344519173449, 1};
Point(p11 + 24) = {9.585921066194992, 0.6036592737577344, 1};
Point(p11 + 25) = {9.730242539434515, 0.4346805394345152, 1};
Point(p11 + 26) = {9.899221273757735, 0.2903590661949913, 1};
Point(p11 + 27) = {10.08869645191734, 0.1742485276858283, 1};
Point(p11 + 28) = {10.29400256619499, 0.0892079507139063, 1};
Point(p11 + 29) = {10.51008429868523, 0.037331316517768, 1};
Point(p11 + 30) = {10.731621, 0.01989599999999991, 1};
Point(p11 + 31) = {10.95315770131477, 0.03733131651776778, 1};
Point(p11 + 32) = {11.16923943380501, 0.0892079507139063, 1};
Point(p11 + 33) = {11.37454554808266, 0.1742485276858283, 1};
Point(p11 + 34) = {11.56402072624227, 0.2903590661949911, 1};
Point(p11 + 35) = {11.73299946056549, 0.434680539434515, 1};
Point(p11 + 36) = {11.87732093380501, 0.603659273757734, 1};
Point(p11 + 37) = {11.99343147231417, 0.7931344519173439, 1};
Point(p11 + 38) = {12.07847204928609, 0.998440566194991, 1};
Point(p11 + 39) = {12.13034868348223, 1.214522298685231, 1};
Spline(11) = {9, p11 + 1, p11 + 2, p11 + 3, p11 + 4, p11 + 5, p11 + 6, p11 + 7, p11 + 8, p11 + 9, p11 + 10, p11 + 11, p11 + 12, p11 + 13, p11 + 14, p11 + 15, p11 + 16, p11 + 17, p11 + 18, p11 + 19, p11 + 20, p11 + 21, p11 + 22, p11 + 23, p11 + 24, p11 + 25, p11 + 26, p11 + 27, p11 + 28, p11 + 29, p11 + 30, p11 + 31, p11 + 32, p11 + 33, p11 + 34, p11 + 35, p11 + 36, p11 + 37, p11 + 38, p11 + 39, 9};
Line(12) = {4, 10};
Line(13) = {10, 7};
Line(14) = {5, 10};
p15 = newp;
Point(p15 + 1) = {26.28725415554077, 1.366281801699126, 0};
Point(p15 + 2) = {26.25130016651763, 1.516040943911033, 0};
Point(p15 + 3) = {26.19236133946479, 1.658331859532366, 0};
Point(p15 + 4) = {26.11188894391103, 1.789650873984053, 0};
Point(p15 + 5) = {26.01186447730747, 1.906764477307472, 0};
Point(p15 + 6) = {25.89475087398405, 2.006788943911034, 0};
Point(p15 + 7) = {25.76343185953236, 2.087261339464786, 0};
Point(p15 + 8) = {25.62114094391103, 2.146200166517628, 0};
Point(p15 + 9) = {25.47138180169912, 2.182154155540765, 0};
Point(p15 + 10) = {25.317842, 2.194238, 0};
Point(p15 + 11) = {25.16430219830087, 2.182154155540765, 0};
Point(p15 + 12) = {25.01454305608896, 2.146200166517628, 0};
Point(p15 + 13) = {24.87225214046763, 2.087261339464786, 0};
Point(p15 + 14) = {24.74093312601595, 2.006788943911034, 0};
Point(p15 + 15) = {24.62381952269253, 1.906764477307472, 0};
Point(p15 + 16) = {24.52379505608896, 1.789650873984053, 0};
Point(p15 + 17) = {24.44332266053521, 1.658331859532366, 0};
Point(p15 + 18) = {24.38438383348237, 1.516040943911034, 0};
Point(p15 + 19) = {24.34842984445923, 1.366281801699126, 0};
Point(p15 + 20) = {24.336346, 1.212742, 0};
Point(p15 + 21) = {24.34842984445923, 1.059202198300874, 0};
Point(p15 + 22) = {24.38438383348237, 0.9094430560889664, 0};
Point(p15 + 23) = {24.44332266053521, 0.7671521404676342, 0};
Point(p15 + 24) = {24.52379505608896, 0.6358331260159469, 0};
Point(p15 + 25) = {24.62381952269253, 0.5187195226925284, 0};
Point(p15 + 26) = {24.74093312601595, 0.4186950560889666, 0};
Point(p15 + 27) = {24.87225214046763, 0.3382226605352138, 0};
Point(p15 + 28) = {25.01454305608896, 0.279283833482372, 0};
Point(p15 + 29) = {25.16430219830087, 0.2433298444592347, 0};
Point(p15 + 30) = {25.317842, 0.231246, 0};
Point(p15 + 31) = {25.47138180169912, 0.2433298444592346, 0};
Point(p15 + 32) = {25.62114094391103, 0.2792838334823718, 0};
Point(p15 + 33) = {25.76343185953236, 0.3382226605352137, 0};
Point(p15 + 34) = {25.89475087398405, 0.4186950560889664, 0};
Point(p15 + 35) = {26.01186447730747, 0.5187195226925282, 0};
Point(p15 + 36) = {26.11188894391103, 0.6358331260159465, 0};
Point(p15 + 37) = {26.19236133946479, 0.7671521404676336, 0};
Point(p15 + 38) = {26.25130016651763, 0.9094430560889664, 0};
Point(p15 + 39) = {26.28725415554077, 1.059202198300873, 0};
Spline(15) = {11, p15 + 1, p15 + 2, p15 + 3, p15 + 4, p15 + 5, p15 + 6, p15 + 7, p15 + 8, p15 + 9, p15 + 10, p15 + 11, p15 + 12, p15 + 13, p15 + 14, p15 + 15, p15 + 16, p15 + 17, p15 + 18, p15 + 19, p15 + 20, p15 + 21, p15 + 22, p15 + 23, p15 + 24, p15 + 25, p15 + 26, p15 + 27, p15 + 28, p15 + 29, p15 + 30, p15 + 31, p15 + 32, p15 + 33, p15 + 34, p15 + 35, p15 + 36, p15 + 37, p15 + 38, p15 + 39, 11};
p16 = newp;
Point(p16 + 1) = {12.13034868348223, 1.657595701314768, 0};
Point(p16 + 2) = {12.07847204928609, 1.873677433805009, 0};
Point(p16 + 3) = {11.99343147231417, 2.078983548082656, 0};
Point(p16 + 4) = {11.87732093380501, 2.268458726242266, 0};
Point(p16 + 5) = {11.73299946056549, 2.437437460565484, 0};
Point(p16 + 6) = {11.56402072624227, 2.581758933805009, 0};
Point(p16 + 7) = {11.37454554808266, 2.697869472314172, 0};
Point(p16 + 8) = {11.16923943380501, 2.782910049286094, 0};
Point(p16 + 9) = {10.95315770131477, 2.834786683482232, 0};
Point(p16 + 10) = {10.731621, 2.852222, 0};
Point(p16 + 11) = {10.51008429868523, 2.834786683482232, 0};
Point(p16 + 12) = {10.29400256619499, 2.782910049286094, 0};
Point(p16 + 13) = {10.08869645191734, 2.697869472314172, 0};
Point(p16 + 14) = {9.899221273757735, 2.581758933805009, 0};
Point(p16 + 15) = {9.730242539434515, 2.437437460565484, 0};
Point(p16 + 16) = {9.585921066194992, 2.268458726242266, 0};
Point(p16 + 17) = {9.469810527685828, 2.078983548082656, 0};
Point(p16 + 18) = {9.384769950713906, 1.873677433805009, 0};
Point(p16 + 19) = {9.332893316517769, 1.657595701314769, 0};
Point(p16 + 20) = {9.315458, 1.436059, 0};
Point(p16 + 21) = {9.332893316517769, 1.214522298685232, 0};
Point(p16 + 22) = {9.384769950713906, 0.9984405661949909, 0};
Point(p16 + 23) = {9.469810527685828, 0.7931344519173449, 0};
Point(p16 + 24) = {9.585921066194992, 0.6036592737577344, 0};
Point(p16 + 25) = {9.730242539434515, 0.4346805394345152, 0};
Point(p16 + 26) = {9.899221273757735, 0.2903590661949913, 0};
Point(p16 + 27) = {10.08869645191734, 0.1742485276858283, 0};
Point(p16 + 28) = {10.29400256619499, 0.0892079507139063, 0};
Point(p16 + 29) = {10.51008429868523, 0.037331316517768, 0};
Point(p16 + 30) = {10.731621, 0.01989599999999991, 0};
Point(p16 + 31) = {10.95315770131477, 0.03733131651776778, 0};
Point(p16 + 32) = {11.16923943380501, 0.0892079507139063, 0};
Point(p16 + 33) = {11.37454554808266, 0.1742485276858283, 0};
Point(p16 + 34) = {11.56402072624227, 0.2903590661949911, 0};
Point(p16 + 35) = {11.73299946056549, 0.434680539434515, 0};
Point(p16 + 36) = {11.87732093380501, 0.603659273757734, 0};
Point(p16 + 37) = {11.99343147231417, 0.7931344519173439, 0};
Point(p16 + 38) = {12.07847204928609, 0.998440566194991, 0};
Point(p16 + 39) = {12.13034868348223, 1.214522298685231, 0};
Spline(16) = {12, p16 + 1, p16 + 2, p16 + 3, p16 + 4, p16 + 5, p16 + 6, p16 + 7, p16 + 8, p16 + 9, p16 + 10, p16 + 11, p16 + 12, p16 + 13, p16 + 14, p16 + 15, p16 + 16, p16 + 17, p16 + 18, p16 + 19, p16 + 20, p16 + 21, p16 + 22, p16 + 23, p16 + 24, p16 + 25, p16 + 26, p16 + 27, p16 + 28, p16 + 29, p16 + 30, p16 + 31, p16 + 32, p16 + 33, p16 + 34, p16 + 35, p16 + 36, p16 + 37, p16 + 38, p16 + 39, 12};
Line(17) = {11, 8};
Line(18) = {12, 9};
Curve Loop(1) = {-1, 4, 3, -2};
Plane Surface(1) = {1};
Curve Loop(2) = {-5, 1, 7, -6};
Plane Surface(2) = {2};
Curve Loop(3) = {-2, 7, 9, -8, -10, -11};
Plane Surface(3) = {3};
Curve Loop(4) = {-12, 3, 8, -13};
Plane Surface(4) = {4};
Curve Loop(5) = {-4, 5, 14, -12, -15, -16};
Plane Surface(5) = {5};
Curve Loop(6) = {-6, 14, 13, -9};
Plane Surface(6) = {6};
Curve Loop(7) = {-10, -17, 15, 17};
Surface(7) = {7};
Curve Loop(8) = {-11, -18, 16, 18};
Surface(8) = {8};
Surface Loop(1) = {1, 2, 3, 4, 5, 6, 7, 8};
Volume(1) = {1};
Physical Surface("INFLOW") = {1};
Physical Surface("OUTFLOW") = {6};
Physical Surface("OBSTACLE") = {7, 8};
Physical Surface("WALL_Y") = {2, 4};
Physical Surface("WALL_Z") = {3, 5};
Physical Volume("FLUID") = {1};
