cl__1 = 3.052835;
cl__2 = 1.055456;
cl__3 = 1.065761;
cl__4 = 0.072044;
cl__5 = 0.05065;
Point(1) = {0.218638, -3.493192, 1, cl__1};
Point(2) = {0.218638, -3.493192, 0, cl__1};
Point(3) = {0.218638, 4.503902, 1, cl__1};
Point(4) = {0.218638, 4.503902, 0, cl__1};
Point(5) = {30.26536, -3.493192, 0, cl__2};
Point(6) = {30.26536, -3.493192, 1, cl__2};
Point(7) = {30.26536, 4.503902, 1, cl__3};
Point(8) = {20.389427, 0.3594009999999999, 1, cl__4};
Point(9) = {18.340837, 2.474544, 1, cl__5};
Point(10) = {30.26536, 4.503902, 0, cl__3};
Point(11) = {20.389427, 0.3594009999999999, 0, cl__4};
Point(12) = {18.340837, 2.474544, 0, cl__5};
Line(1) = {2, 1};
Line(2) = {1, 3};
Line(3) = {4, 3};
Line(4) = {2, 4};
Line(5) = {2, 5};
Line(6) = {5, 6};
Line(7) = {1, 6};
Line(8) = {3, 7};
Line(9) = {6, 7};
p10 = newp;
Point(p10 + 1) = {20.3805571757867, 0.472102802428049, 1};
Point(p10 + 2) = {20.3541661076562, 0.5820295124444815, 1};
Point(p10 + 3) = {20.31090363129279, 0.6864743696228588, 1};
Point(p10 + 4) = {20.25183501244448, 0.7828655949468417, 1};
Point(p10 + 5) = {20.17841471654482, 0.8688297165448176, 1};
Point(p10 + 6) = {20.09245059494684, 0.9422500124444815, 1};
Point(p10 + 7) = {19.99605936962286, 1.001318631292792, 1};
Point(p10 + 8) = {19.89161451244448, 1.044581107656197, 1};
Point(p10 + 9) = {19.78168780242805, 1.070972175786702, 1};
Point(p10 + 10) = {19.668986, 1.079842, 1};
Point(p10 + 11) = {19.55628419757195, 1.070972175786702, 1};
Point(p10 + 12) = {19.44635748755552, 1.044581107656197, 1};
Point(p10 + 13) = {19.34191263037714, 1.001318631292792, 1};
Point(p10 + 14) = {19.24552140505316, 0.9422500124444815, 1};
Point(p10 + 15) = {19.15955728345518, 0.8688297165448176, 1};
Point(p10 + 16) = {19.08613698755552, 0.7828655949468417, 1};
Point(p10 + 17) = {19.02706836870721, 0.6864743696228589, 1};
Point(p10 + 18) = {18.9838058923438, 0.5820295124444816, 1};
Point(p10 + 19) = {18.9574148242133, 0.4721028024280491, 1};
Point(p10 + 20) = {18.948545, 0.3594010000000001, 1};
Point(p10 + 21) = {18.9574148242133, 0.2466991975719512, 1};
Point(p10 + 22) = {18.9838058923438, 0.1367724875555183, 1};
Point(p10 + 23) = {19.02706836870721, 0.03232763037714159, 1};
Point(p10 + 24) = {19.08613698755552, -0.06406359494684155, 1};
Point(p10 + 25) = {19.15955728345518, -0.1500277165448174, 1};
Point(p10 + 26) = {19.24552140505316, -0.2234480124444814, 1};
Point(p10 + 27) = {19.34191263037714, -0.2825166312927919, 1};
Point(p10 + 28) = {19.44635748755552, -0.3257791076561967, 1};
Point(p10 + 29) = {19.55628419757195, -0.3521701757867016, 1};
Point(p10 + 30) = {19.668986, -0.36104, 1};
Point(p10 + 31) = {19.78168780242805, -0.3521701757867017, 1};
Point(p10 + 32) = {19.89161451244448, -0.3257791076561967, 1};
Point(p10 + 33) = {19.99605936962286, -0.282516631292792, 1};
Point(p10 + 34) = {20.09245059494684, -0.2234480124444816, 1};
Point(p10 + 35) = {20.17841471654482, -0.1500277165448176, 1};
Point(p10 + 36) = {20.25183501244448, -0.06406359494684177, 1};
Point(p10 + 37) = {20.31090363129279, 0.03232763037714109, 1};
Point(p10 + 38) = {20.3541661076562, 0.1367724875555184, 1};
Point(p10 + 39) = {20.3805571757867, 0.2466991975719509, 1};
Spline(10) = {8, p10 + 1, p10 + 2, p10 + 3, p10 + 4, p10 + 5, p10 + 6, p10 + 7, p10 + 8, p10 + 9, p10 + 10, p10 + 11, p10 + 12, p10 + 13, p10 + 14, p10 + 15, p10 + 16, p10 + 17, p10 + 18, p10 + 19, p10 + 20, p10 + 21, p10 + 22, p10 + 23, p10 + 24, p10 + 25, p10 + 26, p10 + 27, p10 + 28, p10 + 29, p10 + 30, p10 + 31, p10 + 32, p10 + 33, p10 + 34, p10 + 35, p10 + 36, p10 + 37, p10 + 38, p10 + 39, 8};
p11 = newp;
Point(p11 + 1) = {18.33460115682309, 2.553777900108412, 1};
Point(p11 + 2) = {18.31604717444698, 2.631060798633917, 1};
Point(p11 + 3) = {18.28563191349488, 2.704489734127581, 1};
Point(p11 + 4) = {18.24410429863391, 2.772256642500885, 1};
Point(p11 + 5) = {18.1924868775642, 2.832692877564205, 1};
Point(p11 + 6) = {18.13205064250089, 2.884310298633916, 1};
Point(p11 + 7) = {18.06428373412758, 2.925837913494884, 1};
Point(p11 + 8) = {17.99085479863392, 2.956253174446979, 1};
Point(p11 + 9) = {17.91357190010841, 2.974807156823096, 1};
Point(p11 + 10) = {17.834338, 2.981043, 1};
Point(p11 + 11) = {17.75510409989159, 2.974807156823096, 1};
Point(p11 + 12) = {17.67782120136608, 2.956253174446979, 1};
Point(p11 + 13) = {17.60439226587242, 2.925837913494884, 1};
Point(p11 + 14) = {17.53662535749911, 2.884310298633916, 1};
Point(p11 + 15) = {17.47618912243579, 2.832692877564205, 1};
Point(p11 + 16) = {17.42457170136608, 2.772256642500885, 1};
Point(p11 + 17) = {17.38304408650512, 2.704489734127581, 1};
Point(p11 + 18) = {17.35262882555302, 2.631060798633917, 1};
Point(p11 + 19) = {17.3340748431769, 2.553777900108412, 1};
Point(p11 + 20) = {17.327839, 2.474544, 1};
Point(p11 + 21) = {17.3340748431769, 2.395310099891588, 1};
Point(p11 + 22) = {17.35262882555302, 2.318027201366083, 1};
Point(p11 + 23) = {17.38304408650512, 2.24459826587242, 1};
Point(p11 + 24) = {17.42457170136608, 2.176831357499115, 1};
Point(p11 + 25) = {17.47618912243579, 2.116395122435795, 1};
Point(p11 + 26) = {17.53662535749911, 2.064777701366083, 1};
Point(p11 + 27) = {17.60439226587242, 2.023250086505116, 1};
Point(p11 + 28) = {17.67782120136608, 1.992834825553021, 1};
Point(p11 + 29) = {17.75510409989159, 1.974280843176903, 1};
Point(p11 + 30) = {17.834338, 1.968045, 1};
Point(p11 + 31) = {17.91357190010841, 1.974280843176903, 1};
Point(p11 + 32) = {17.99085479863392, 1.992834825553021, 1};
Point(p11 + 33) = {18.06428373412758, 2.023250086505116, 1};
Point(p11 + 34) = {18.13205064250089, 2.064777701366083, 1};
Point(p11 + 35) = {18.1924868775642, 2.116395122435795, 1};
Point(p11 + 36) = {18.24410429863391, 2.176831357499114, 1};
Point(p11 + 37) = {18.28563191349488, 2.244598265872419, 1};
Point(p11 + 38) = {18.31604717444698, 2.318027201366083, 1};
Point(p11 + 39) = {18.33460115682309, 2.395310099891588, 1};
Spline(11) = {9, p11 + 1, p11 + 2, p11 + 3, p11 + 4, p11 + 5, p11 + 6, p11 + 7, p11 + 8, p11 + 9, p11 + 10, p11 + 11, p11 + 12, p11 + 13, p11 + 14, p11 + 15, p11 + 16, p11 + 17, p11 + 18, p11 + 19, p11 + 20, p11 + 21, p11 + 22, p11 + 23, p11 + 24, p11 + 25, p11 + 26, p11 + 27, p11 + 28, p11 + 29, p11 + 30, p11 + 31, p11 + 32, p11 + 33, p11 + 34, p11 + 35, p11 + 36, p11 + 37, p11 + 38, p11 + 39, 9};
Line(12) = {4, 10};
Line(13) = {10, 7};
Line(14) = {5, 10};
p15 = newp;
Point(p15 + 1) = {20.3805571757867, 0.472102802428049, 0};
Point(p15 + 2) = {20.3541661076562, 0.5820295124444815, 0};
Point(p15 + 3) = {20.31090363129279, 0.6864743696228588, 0};
Point(p15 + 4) = {20.25183501244448, 0.7828655949468417, 0};
Point(p15 + 5) = {20.17841471654482, 0.8688297165448176, 0};
Point(p15 + 6) = {20.09245059494684, 0.9422500124444815, 0};
Point(p15 + 7) = {19.99605936962286, 1.001318631292792, 0};
Point(p15 + 8) = {19.89161451244448, 1.044581107656197, 0};
Point(p15 + 9) = {19.78168780242805, 1.070972175786702, 0};
Point(p15 + 10) = {19.668986, 1.079842, 0};
Point(p15 + 11) = {19.55628419757195, 1.070972175786702, 0};
Point(p15 + 12) = {19.44635748755552, 1.044581107656197, 0};
Point(p15 + 13) = {19.34191263037714, 1.001318631292792, 0};
Point(p15 + 14) = {19.24552140505316, 0.9422500124444815, 0};
Point(p15 + 15) = {19.15955728345518, 0.8688297165448176, 0};
Point(p15 + 16) = {19.08613698755552, 0.7828655949468417, 0};
Point(p15 + 17) = {19.02706836870721, 0.6864743696228589, 0};
Point(p15 + 18) = {18.9838058923438, 0.5820295124444816, 0};
Point(p15 + 19) = {18.9574148242133, 0.4721028024280491, 0};
Point(p15 + 20) = {18.948545, 0.3594010000000001, 0};
Point(p15 + 21) = {18.9574148242133, 0.2466991975719512, 0};
Point(p15 + 22) = {18.9838058923438, 0.1367724875555183, 0};
Point(p15 + 23) = {19.02706836870721, 0.03232763037714159, 0};
Point(p15 + 24) = {19.08613698755552, -0.06406359494684155, 0};
Point(p15 + 25) = {19.15955728345518, -0.1500277165448174, 0};
Point(p15 + 26) = {19.24552140505316, -0.2234480124444814, 0};
Point(p15 + 27) = {19.34191263037714, -0.2825166312927919, 0};
Point(p15 + 28) = {19.44635748755552, -0.3257791076561967, 0};
Point(p15 + 29) = {19.55628419757195, -0.3521701757867016, 0};
Point(p15 + 30) = {19.668986, -0.36104, 0};
Point(p15 + 31) = {19.78168780242805, -0.3521701757867017, 0};
Point(p15 + 32) = {19.89161451244448, -0.3257791076561967, 0};
Point(p15 + 33) = {19.99605936962286, -0.282516631292792, 0};
Point(p15 + 34) = {20.09245059494684, -0.2234480124444816, 0};
Point(p15 + 35) = {20.17841471654482, -0.1500277165448176, 0};
Point(p15 + 36) = {20.25183501244448, -0.06406359494684177, 0};
Point(p15 + 37) = {20.31090363129279, 0.03232763037714109, 0};
Point(p15 + 38) = {20.3541661076562, 0.1367724875555184, 0};
Point(p15 + 39) = {20.3805571757867, 0.2466991975719509, 0};
Spline(15) = {11, p15 + 1, p15 + 2, p15 + 3, p15 + 4, p15 + 5, p15 + 6, p15 + 7, p15 + 8, p15 + 9, p15 + 10, p15 + 11, p15 + 12, p15 + 13, p15 + 14, p15 + 15, p15 + 16, p15 + 17, p15 + 18, p15 + 19, p15 + 20, p15 + 21, p15 + 22, p15 + 23, p15 + 24, p15 + 25, p15 + 26, p15 + 27, p15 + 28, p15 + 29, p15 + 30, p15 + 31, p15 + 32, p15 + 33, p15 + 34, p15 + 35, p15 + 36, p15 + 37, p15 + 38, p15 + 39, 11};
p16 = newp;
Point(p16 + 1) = {18.33460115682309, 2.553777900108412, 0};
Point(p16 + 2) = {18.31604717444698, 2.631060798633917, 0};
Point(p16 + 3) = {18.28563191349488, 2.704489734127581, 0};
Point(p16 + 4) = {18.24410429863391, 2.772256642500885, 0};
Point(p16 + 5) = {18.1924868775642, 2.832692877564205, 0};
Point(p16 + 6) = {18.13205064250089, 2.884310298633916, 0};
Point(p16 + 7) = {18.06428373412758, 2.925837913494884, 0};
Point(p16 + 8) = {17.99085479863392, 2.956253174446979, 0};
Point(p16 + 9) = {17.91357190010841, 2.974807156823096, 0};
Point(p16 + 10) = {17.834338, 2.981043, 0};
Point(p16 + 11) = {17.75510409989159, 2.974807156823096, 0};
Point(p16 + 12) = {17.67782120136608, 2.956253174446979, 0};
Point(p16 + 13) = {17.60439226587242, 2.925837913494884, 0};
Point(p16 + 14) = {17.53662535749911, 2.884310298633916, 0};
Point(p16 + 15) = {17.47618912243579, 2.832692877564205, 0};
Point(p16 + 16) = {17.42457170136608, 2.772256642500885, 0};
Point(p16 + 17) = {17.38304408650512, 2.704489734127581, 0};
Point(p16 + 18) = {17.35262882555302, 2.631060798633917, 0};
Point(p16 + 19) = {17.3340748431769, 2.553777900108412, 0};
Point(p16 + 20) = {17.327839, 2.474544, 0};
Point(p16 + 21) = {17.3340748431769, 2.395310099891588, 0};
Point(p16 + 22) = {17.35262882555302, 2.318027201366083, 0};
Point(p16 + 23) = {17.38304408650512, 2.24459826587242, 0};
Point(p16 + 24) = {17.42457170136608, 2.176831357499115, 0};
Point(p16 + 25) = {17.47618912243579, 2.116395122435795, 0};
Point(p16 + 26) = {17.53662535749911, 2.064777701366083, 0};
Point(p16 + 27) = {17.60439226587242, 2.023250086505116, 0};
Point(p16 + 28) = {17.67782120136608, 1.992834825553021, 0};
Point(p16 + 29) = {17.75510409989159, 1.974280843176903, 0};
Point(p16 + 30) = {17.834338, 1.968045, 0};
Point(p16 + 31) = {17.91357190010841, 1.974280843176903, 0};
Point(p16 + 32) = {17.99085479863392, 1.992834825553021, 0};
Point(p16 + 33) = {18.06428373412758, 2.023250086505116, 0};
Point(p16 + 34) = {18.13205064250089, 2.064777701366083, 0};
Point(p16 + 35) = {18.1924868775642, 2.116395122435795, 0};
Point(p16 + 36) = {18.24410429863391, 2.176831357499114, 0};
Point(p16 + 37) = {18.28563191349488, 2.244598265872419, 0};
Point(p16 + 38) = {18.31604717444698, 2.318027201366083, 0};
Point(p16 + 39) = {18.33460115682309, 2.395310099891588, 0};
Spline(16) = {12, p16 + 1, p16 + 2, p16 + 3, p16 + 4, p16 + 5, p16 + 6, p16 + 7, p16 + 8, p16 + 9, p16 + 10, p16 + 11, p16 + 12, p16 + 13, p16 + 14, p16 + 15, p16 + 16, p16 + 17, p16 + 18, p16 + 19, p16 + 20, p16 + 21, p16 + 22, p16 + 23, p16 + 24, p16 + 25, p16 + 26, p16 + 27, p16 + 28, p16 + 29, p16 + 30, p16 + 31, p16 + 32, p16 + 33, p16 + 34, p16 + 35, p16 + 36, p16 + 37, p16 + 38, p16 + 39, 12};
Line(17) = {11, 8};
Line(18) = {12, 9};
Curve Loop(1) = {-1, 4, 3, -2};
Plane Surface(1) = {1};
Curve Loop(2) = {-5, 1, 7, -6};
Plane Surface(2) = {2};
Curve Loop(3) = {-2, 7, 9, -8, -10, -11};
Plane Surface(3) = {3};
Curve Loop(4) = {-12, 3, 8, -13};
Plane Surface(4) = {4};
Curve Loop(5) = {-4, 5, 14, -12, -15, -16};
Plane Surface(5) = {5};
Curve Loop(6) = {-6, 14, 13, -9};
Plane Surface(6) = {6};
Curve Loop(7) = {-10, -17, 15, 17};
Surface(7) = {7};
Curve Loop(8) = {-11, -18, 16, 18};
Surface(8) = {8};
Surface Loop(1) = {1, 2, 3, 4, 5, 6, 7, 8};
Volume(1) = {1};
Physical Surface("INFLOW") = {1};
Physical Surface("OUTFLOW") = {6};
Physical Surface("OBSTACLE") = {7, 8};
Physical Surface("WALL_Y") = {2, 4};
Physical Surface("WALL_Z") = {3, 5};
Physical Volume("FLUID") = {1};
