cl__1 = 3.707337;
cl__2 = 1.583476;
cl__3 = 0.69041;
cl__4 = 0.111974;
cl__5 = 0.122532;
Point(1) = {0.8157489999999999, -4.606515, 1, cl__1};
Point(2) = {0.8157489999999999, -4.606515, 0, cl__1};
Point(3) = {0.8157489999999999, 5.34323, 1, cl__2};
Point(4) = {0.8157489999999999, 5.34323, 0, cl__2};
Point(5) = {36.73806399999999, -4.606515, 0, cl__3};
Point(6) = {36.73806399999999, -4.606515, 1, cl__3};
Point(7) = {36.73806399999999, 5.34323, 1, cl__2};
Point(8) = {7.384019, 1.283768, 1, cl__4};
Point(9) = {22.669411, 2.952634999999999, 1, cl__5};
Point(10) = {36.73806399999999, 5.34323, 0, cl__2};
Point(11) = {7.384019, 1.283768, 0, cl__4};
Point(12) = {22.669411, 2.952634999999999, 0, cl__5};
Line(1) = {2, 1};
Line(2) = {1, 3};
Line(3) = {4, 3};
Line(4) = {2, 4};
Line(5) = {2, 5};
Line(6) = {5, 6};
Line(7) = {1, 6};
Line(8) = {3, 7};
Line(9) = {6, 7};
p10 = newp;
Point(p10 + 1) = {7.370233191744637, 1.458933302146288, 1};
Point(p10 + 2) = {7.32921521933027, 1.629785453213426, 1};
Point(p10 + 3) = {7.261975081368586, 1.792117506216361, 1};
Point(p10 + 4) = {7.170168453213426, 1.941932307260965, 1};
Point(p10 + 5) = {7.0560559187387, 2.0755409187387, 1};
Point(p10 + 6) = {6.922447307260964, 2.189653453213426, 1};
Point(p10 + 7) = {6.772632506216361, 2.281460081368586, 1};
Point(p10 + 8) = {6.610300453213426, 2.34870021933027, 1};
Point(p10 + 9) = {6.439448302146288, 2.389718191744637, 1};
Point(p10 + 10) = {6.264283, 2.403504, 1};
Point(p10 + 11) = {6.089117697853712, 2.389718191744637, 1};
Point(p10 + 12) = {5.918265546786574, 2.34870021933027, 1};
Point(p10 + 13) = {5.755933493783639, 2.281460081368587, 1};
Point(p10 + 14) = {5.606118692739035, 2.189653453213426, 1};
Point(p10 + 15) = {5.4725100812613, 2.0755409187387, 1};
Point(p10 + 16) = {5.358397546786573, 1.941932307260965, 1};
Point(p10 + 17) = {5.266590918631413, 1.792117506216361, 1};
Point(p10 + 18) = {5.19935078066973, 1.629785453213426, 1};
Point(p10 + 19) = {5.158332808255363, 1.458933302146288, 1};
Point(p10 + 20) = {5.144546999999999, 1.283768, 1};
Point(p10 + 21) = {5.158332808255363, 1.108602697853712, 1};
Point(p10 + 22) = {5.19935078066973, 0.9377505467865735, 1};
Point(p10 + 23) = {5.266590918631413, 0.7754184937836395, 1};
Point(p10 + 24) = {5.358397546786573, 0.6256036927390354, 1};
Point(p10 + 25) = {5.4725100812613, 0.4919950812613001, 1};
Point(p10 + 26) = {5.606118692739035, 0.377882546786574, 1};
Point(p10 + 27) = {5.755933493783639, 0.2860759186314138, 1};
Point(p10 + 28) = {5.918265546786573, 0.2188357806697299, 1};
Point(p10 + 29) = {6.089117697853712, 0.177817808255363, 1};
Point(p10 + 30) = {6.264283, 0.164032, 1};
Point(p10 + 31) = {6.439448302146287, 0.1778178082553628, 1};
Point(p10 + 32) = {6.610300453213426, 0.2188357806697299, 1};
Point(p10 + 33) = {6.772632506216361, 0.2860759186314137, 1};
Point(p10 + 34) = {6.922447307260964, 0.3778825467865737, 1};
Point(p10 + 35) = {7.0560559187387, 0.4919950812612999, 1};
Point(p10 + 36) = {7.170168453213426, 0.625603692739035, 1};
Point(p10 + 37) = {7.261975081368586, 0.7754184937836386, 1};
Point(p10 + 38) = {7.32921521933027, 0.9377505467865737, 1};
Point(p10 + 39) = {7.370233191744637, 1.108602697853712, 1};
Spline(10) = {8, p10 + 1, p10 + 2, p10 + 3, p10 + 4, p10 + 5, p10 + 6, p10 + 7, p10 + 8, p10 + 9, p10 + 10, p10 + 11, p10 + 12, p10 + 13, p10 + 14, p10 + 15, p10 + 16, p10 + 17, p10 + 18, p10 + 19, p10 + 20, p10 + 21, p10 + 22, p10 + 23, p10 + 24, p10 + 25, p10 + 26, p10 + 27, p10 + 28, p10 + 29, p10 + 30, p10 + 31, p10 + 32, p10 + 33, p10 + 34, p10 + 35, p10 + 36, p10 + 37, p10 + 38, p10 + 39, 8};
p11 = newp;
Point(p11 + 1) = {22.65432522825139, 3.144317904440956, 1};
Point(p11 + 2) = {22.60943937477284, 3.331280939615488, 1};
Point(p11 + 3) = {22.53585867824459, 3.50892045510286, 1};
Point(p11 + 4) = {22.43539493961549, 3.672862376480023, 1};
Point(p11 + 5) = {22.31052190955063, 3.819069909550625, 1};
Point(p11 + 6) = {22.16431437648002, 3.943942939615488, 1};
Point(p11 + 7) = {22.00037245510286, 4.044406678244588, 1};
Point(p11 + 8) = {21.82273293961549, 4.117987374772842, 1};
Point(p11 + 9) = {21.63576990444096, 4.162873228251397, 1};
Point(p11 + 10) = {21.444087, 4.177959, 1};
Point(p11 + 11) = {21.25240409555904, 4.162873228251397, 1};
Point(p11 + 12) = {21.06544106038451, 4.117987374772843, 1};
Point(p11 + 13) = {20.88780154489714, 4.044406678244588, 1};
Point(p11 + 14) = {20.72385962351998, 3.943942939615488, 1};
Point(p11 + 15) = {20.57765209044937, 3.819069909550625, 1};
Point(p11 + 16) = {20.45277906038451, 3.672862376480023, 1};
Point(p11 + 17) = {20.35231532175541, 3.508920455102861, 1};
Point(p11 + 18) = {20.27873462522716, 3.331280939615488, 1};
Point(p11 + 19) = {20.2338487717486, 3.144317904440956, 1};
Point(p11 + 20) = {20.218763, 2.952635, 1};
Point(p11 + 21) = {20.2338487717486, 2.760952095559044, 1};
Point(p11 + 22) = {20.27873462522716, 2.573989060384511, 1};
Point(p11 + 23) = {20.35231532175541, 2.39634954489714, 1};
Point(p11 + 24) = {20.45277906038451, 2.232407623519978, 1};
Point(p11 + 25) = {20.57765209044937, 2.086200090449375, 1};
Point(p11 + 26) = {20.72385962351998, 1.961327060384512, 1};
Point(p11 + 27) = {20.88780154489714, 1.860863321755412, 1};
Point(p11 + 28) = {21.06544106038451, 1.787282625227157, 1};
Point(p11 + 29) = {21.25240409555904, 1.742396771748603, 1};
Point(p11 + 30) = {21.444087, 1.727311, 1};
Point(p11 + 31) = {21.63576990444096, 1.742396771748603, 1};
Point(p11 + 32) = {21.82273293961549, 1.787282625227157, 1};
Point(p11 + 33) = {22.00037245510286, 1.860863321755412, 1};
Point(p11 + 34) = {22.16431437648002, 1.961327060384511, 1};
Point(p11 + 35) = {22.31052190955062, 2.086200090449374, 1};
Point(p11 + 36) = {22.43539493961549, 2.232407623519977, 1};
Point(p11 + 37) = {22.53585867824459, 2.396349544897139, 1};
Point(p11 + 38) = {22.60943937477284, 2.573989060384512, 1};
Point(p11 + 39) = {22.65432522825139, 2.760952095559044, 1};
Spline(11) = {9, p11 + 1, p11 + 2, p11 + 3, p11 + 4, p11 + 5, p11 + 6, p11 + 7, p11 + 8, p11 + 9, p11 + 10, p11 + 11, p11 + 12, p11 + 13, p11 + 14, p11 + 15, p11 + 16, p11 + 17, p11 + 18, p11 + 19, p11 + 20, p11 + 21, p11 + 22, p11 + 23, p11 + 24, p11 + 25, p11 + 26, p11 + 27, p11 + 28, p11 + 29, p11 + 30, p11 + 31, p11 + 32, p11 + 33, p11 + 34, p11 + 35, p11 + 36, p11 + 37, p11 + 38, p11 + 39, 9};
Line(12) = {4, 10};
Line(13) = {10, 7};
Line(14) = {5, 10};
p15 = newp;
Point(p15 + 1) = {7.370233191744637, 1.458933302146288, 0};
Point(p15 + 2) = {7.32921521933027, 1.629785453213426, 0};
Point(p15 + 3) = {7.261975081368586, 1.792117506216361, 0};
Point(p15 + 4) = {7.170168453213426, 1.941932307260965, 0};
Point(p15 + 5) = {7.0560559187387, 2.0755409187387, 0};
Point(p15 + 6) = {6.922447307260964, 2.189653453213426, 0};
Point(p15 + 7) = {6.772632506216361, 2.281460081368586, 0};
Point(p15 + 8) = {6.610300453213426, 2.34870021933027, 0};
Point(p15 + 9) = {6.439448302146288, 2.389718191744637, 0};
Point(p15 + 10) = {6.264283, 2.403504, 0};
Point(p15 + 11) = {6.089117697853712, 2.389718191744637, 0};
Point(p15 + 12) = {5.918265546786574, 2.34870021933027, 0};
Point(p15 + 13) = {5.755933493783639, 2.281460081368587, 0};
Point(p15 + 14) = {5.606118692739035, 2.189653453213426, 0};
Point(p15 + 15) = {5.4725100812613, 2.0755409187387, 0};
Point(p15 + 16) = {5.358397546786573, 1.941932307260965, 0};
Point(p15 + 17) = {5.266590918631413, 1.792117506216361, 0};
Point(p15 + 18) = {5.19935078066973, 1.629785453213426, 0};
Point(p15 + 19) = {5.158332808255363, 1.458933302146288, 0};
Point(p15 + 20) = {5.144546999999999, 1.283768, 0};
Point(p15 + 21) = {5.158332808255363, 1.108602697853712, 0};
Point(p15 + 22) = {5.19935078066973, 0.9377505467865735, 0};
Point(p15 + 23) = {5.266590918631413, 0.7754184937836395, 0};
Point(p15 + 24) = {5.358397546786573, 0.6256036927390354, 0};
Point(p15 + 25) = {5.4725100812613, 0.4919950812613001, 0};
Point(p15 + 26) = {5.606118692739035, 0.377882546786574, 0};
Point(p15 + 27) = {5.755933493783639, 0.2860759186314138, 0};
Point(p15 + 28) = {5.918265546786573, 0.2188357806697299, 0};
Point(p15 + 29) = {6.089117697853712, 0.177817808255363, 0};
Point(p15 + 30) = {6.264283, 0.164032, 0};
Point(p15 + 31) = {6.439448302146287, 0.1778178082553628, 0};
Point(p15 + 32) = {6.610300453213426, 0.2188357806697299, 0};
Point(p15 + 33) = {6.772632506216361, 0.2860759186314137, 0};
Point(p15 + 34) = {6.922447307260964, 0.3778825467865737, 0};
Point(p15 + 35) = {7.0560559187387, 0.4919950812612999, 0};
Point(p15 + 36) = {7.170168453213426, 0.625603692739035, 0};
Point(p15 + 37) = {7.261975081368586, 0.7754184937836386, 0};
Point(p15 + 38) = {7.32921521933027, 0.9377505467865737, 0};
Point(p15 + 39) = {7.370233191744637, 1.108602697853712, 0};
Spline(15) = {11, p15 + 1, p15 + 2, p15 + 3, p15 + 4, p15 + 5, p15 + 6, p15 + 7, p15 + 8, p15 + 9, p15 + 10, p15 + 11, p15 + 12, p15 + 13, p15 + 14, p15 + 15, p15 + 16, p15 + 17, p15 + 18, p15 + 19, p15 + 20, p15 + 21, p15 + 22, p15 + 23, p15 + 24, p15 + 25, p15 + 26, p15 + 27, p15 + 28, p15 + 29, p15 + 30, p15 + 31, p15 + 32, p15 + 33, p15 + 34, p15 + 35, p15 + 36, p15 + 37, p15 + 38, p15 + 39, 11};
p16 = newp;
Point(p16 + 1) = {22.65432522825139, 3.144317904440956, 0};
Point(p16 + 2) = {22.60943937477284, 3.331280939615488, 0};
Point(p16 + 3) = {22.53585867824459, 3.50892045510286, 0};
Point(p16 + 4) = {22.43539493961549, 3.672862376480023, 0};
Point(p16 + 5) = {22.31052190955063, 3.819069909550625, 0};
Point(p16 + 6) = {22.16431437648002, 3.943942939615488, 0};
Point(p16 + 7) = {22.00037245510286, 4.044406678244588, 0};
Point(p16 + 8) = {21.82273293961549, 4.117987374772842, 0};
Point(p16 + 9) = {21.63576990444096, 4.162873228251397, 0};
Point(p16 + 10) = {21.444087, 4.177959, 0};
Point(p16 + 11) = {21.25240409555904, 4.162873228251397, 0};
Point(p16 + 12) = {21.06544106038451, 4.117987374772843, 0};
Point(p16 + 13) = {20.88780154489714, 4.044406678244588, 0};
Point(p16 + 14) = {20.72385962351998, 3.943942939615488, 0};
Point(p16 + 15) = {20.57765209044937, 3.819069909550625, 0};
Point(p16 + 16) = {20.45277906038451, 3.672862376480023, 0};
Point(p16 + 17) = {20.35231532175541, 3.508920455102861, 0};
Point(p16 + 18) = {20.27873462522716, 3.331280939615488, 0};
Point(p16 + 19) = {20.2338487717486, 3.144317904440956, 0};
Point(p16 + 20) = {20.218763, 2.952635, 0};
Point(p16 + 21) = {20.2338487717486, 2.760952095559044, 0};
Point(p16 + 22) = {20.27873462522716, 2.573989060384511, 0};
Point(p16 + 23) = {20.35231532175541, 2.39634954489714, 0};
Point(p16 + 24) = {20.45277906038451, 2.232407623519978, 0};
Point(p16 + 25) = {20.57765209044937, 2.086200090449375, 0};
Point(p16 + 26) = {20.72385962351998, 1.961327060384512, 0};
Point(p16 + 27) = {20.88780154489714, 1.860863321755412, 0};
Point(p16 + 28) = {21.06544106038451, 1.787282625227157, 0};
Point(p16 + 29) = {21.25240409555904, 1.742396771748603, 0};
Point(p16 + 30) = {21.444087, 1.727311, 0};
Point(p16 + 31) = {21.63576990444096, 1.742396771748603, 0};
Point(p16 + 32) = {21.82273293961549, 1.787282625227157, 0};
Point(p16 + 33) = {22.00037245510286, 1.860863321755412, 0};
Point(p16 + 34) = {22.16431437648002, 1.961327060384511, 0};
Point(p16 + 35) = {22.31052190955062, 2.086200090449374, 0};
Point(p16 + 36) = {22.43539493961549, 2.232407623519977, 0};
Point(p16 + 37) = {22.53585867824459, 2.396349544897139, 0};
Point(p16 + 38) = {22.60943937477284, 2.573989060384512, 0};
Point(p16 + 39) = {22.65432522825139, 2.760952095559044, 0};
Spline(16) = {12, p16 + 1, p16 + 2, p16 + 3, p16 + 4, p16 + 5, p16 + 6, p16 + 7, p16 + 8, p16 + 9, p16 + 10, p16 + 11, p16 + 12, p16 + 13, p16 + 14, p16 + 15, p16 + 16, p16 + 17, p16 + 18, p16 + 19, p16 + 20, p16 + 21, p16 + 22, p16 + 23, p16 + 24, p16 + 25, p16 + 26, p16 + 27, p16 + 28, p16 + 29, p16 + 30, p16 + 31, p16 + 32, p16 + 33, p16 + 34, p16 + 35, p16 + 36, p16 + 37, p16 + 38, p16 + 39, 12};
Line(17) = {11, 8};
Line(18) = {12, 9};
Curve Loop(1) = {-1, 4, 3, -2};
Plane Surface(1) = {1};
Curve Loop(2) = {-5, 1, 7, -6};
Plane Surface(2) = {2};
Curve Loop(3) = {-2, 7, 9, -8, -10, -11};
Plane Surface(3) = {3};
Curve Loop(4) = {-12, 3, 8, -13};
Plane Surface(4) = {4};
Curve Loop(5) = {-4, 5, 14, -12, -15, -16};
Plane Surface(5) = {5};
Curve Loop(6) = {-6, 14, 13, -9};
Plane Surface(6) = {6};
Curve Loop(7) = {-10, -17, 15, 17};
Surface(7) = {7};
Curve Loop(8) = {-11, -18, 16, 18};
Surface(8) = {8};
Surface Loop(1) = {1, 2, 3, 4, 5, 6, 7, 8};
Volume(1) = {1};
Physical Surface("INFLOW") = {1};
Physical Surface("OUTFLOW") = {6};
Physical Surface("OBSTACLE") = {7, 8};
Physical Surface("WALL_Y") = {2, 4};
Physical Surface("WALL_Z") = {3, 5};
Physical Volume("FLUID") = {1};
