cl__1 = 1;
cl__2 = 0.07474;
cl__3 = 0.058325;
Point(1) = {0.063792, -2.904265, 1, cl__1};
Point(2) = {0.063792, -2.904265, 0, cl__1};
Point(3) = {0.063792, 4.661647, 1, cl__1};
Point(4) = {0.063792, 4.661647, 0, cl__1};
Point(5) = {35.484337, -2.904265, 0, cl__1};
Point(6) = {35.484337, -2.904265, 1, cl__1};
Point(7) = {35.484337, 4.661647, 1, cl__1};
Point(8) = {32.16776, -1.442285, 1, cl__2};
Point(9) = {14.670977, 2.004939, 1, cl__3};
Point(10) = {35.484337, 4.661647, 0, cl__1};
Point(11) = {32.16776, -1.442285, 0, cl__2};
Point(12) = {14.670977, 2.004939, 0, cl__3};
Line(1) = {2, 1};
Line(2) = {1, 3};
Line(3) = {4, 3};
Line(4) = {2, 4};
Line(5) = {2, 5};
Line(6) = {5, 6};
Line(7) = {1, 6};
Line(8) = {3, 7};
Line(9) = {6, 7};
p10 = newp;
Point(p10 + 1) = {32.15855830269578, -1.325366350132327, 1};
Point(p10 + 2) = {32.13117978710945, -1.211326625455148, 1};
Point(p10 + 3) = {32.08629860315881, -1.102973862466162, 1};
Point(p10 + 4) = {32.02501987454485, -1.002976065792363, 1};
Point(p10 + 5) = {31.94885248693848, -0.9137955130615181, 1};
Point(p10 + 6) = {31.85967193420764, -0.8376281254551474, 1};
Point(p10 + 7) = {31.75967413753384, -0.7763493968411865, 1};
Point(p10 + 8) = {31.65132137454485, -0.7314682128905512, 1};
Point(p10 + 9) = {31.53728164986767, -0.7040896973042159, 1};
Point(p10 + 10) = {31.420363, -0.6948880000000001, 1};
Point(p10 + 11) = {31.30344435013232, -0.704089697304216, 1};
Point(p10 + 12) = {31.18940462545515, -0.7314682128905511, 1};
Point(p10 + 13) = {31.08105186246616, -0.7763493968411864, 1};
Point(p10 + 14) = {30.98105406579236, -0.8376281254551474, 1};
Point(p10 + 15) = {30.89187351306152, -0.913795513061518, 1};
Point(p10 + 16) = {30.81570612545515, -1.002976065792363, 1};
Point(p10 + 17) = {30.75442739684118, -1.102973862466162, 1};
Point(p10 + 18) = {30.70954621289055, -1.211326625455147, 1};
Point(p10 + 19) = {30.68216769730422, -1.325366350132327, 1};
Point(p10 + 20) = {30.672966, -1.442285, 1};
Point(p10 + 21) = {30.68216769730422, -1.559203649867673, 1};
Point(p10 + 22) = {30.70954621289055, -1.673243374544853, 1};
Point(p10 + 23) = {30.75442739684118, -1.781596137533838, 1};
Point(p10 + 24) = {30.81570612545515, -1.881593934207638, 1};
Point(p10 + 25) = {30.89187351306152, -1.970774486938482, 1};
Point(p10 + 26) = {30.98105406579236, -2.046941874544852, 1};
Point(p10 + 27) = {31.08105186246616, -2.108220603158814, 1};
Point(p10 + 28) = {31.18940462545515, -2.153101787109449, 1};
Point(p10 + 29) = {31.30344435013232, -2.180480302695784, 1};
Point(p10 + 30) = {31.420363, -2.189682, 1};
Point(p10 + 31) = {31.53728164986767, -2.180480302695784, 1};
Point(p10 + 32) = {31.65132137454485, -2.153101787109449, 1};
Point(p10 + 33) = {31.75967413753384, -2.108220603158814, 1};
Point(p10 + 34) = {31.85967193420764, -2.046941874544853, 1};
Point(p10 + 35) = {31.94885248693848, -1.970774486938482, 1};
Point(p10 + 36) = {32.02501987454485, -1.881593934207638, 1};
Point(p10 + 37) = {32.08629860315881, -1.781596137533838, 1};
Point(p10 + 38) = {32.13117978710945, -1.673243374544853, 1};
Point(p10 + 39) = {32.15855830269578, -1.559203649867674, 1};
Spline(10) = {8, p10 + 1, p10 + 2, p10 + 3, p10 + 4, p10 + 5, p10 + 6, p10 + 7, p10 + 8, p10 + 9, p10 + 10, p10 + 11, p10 + 12, p10 + 13, p10 + 14, p10 + 15, p10 + 16, p10 + 17, p10 + 18, p10 + 19, p10 + 20, p10 + 21, p10 + 22, p10 + 23, p10 + 24, p10 + 25, p10 + 26, p10 + 27, p10 + 28, p10 + 29, p10 + 30, p10 + 31, p10 + 32, p10 + 33, p10 + 34, p10 + 35, p10 + 36, p10 + 37, p10 + 38, p10 + 39, 8};
p11 = newp;
Point(p11 + 1) = {14.66379621234045, 2.09617955816918, 1};
Point(p11 + 2) = {14.64243066418566, 2.185173470986182, 1};
Point(p11 + 3) = {14.60740644623939, 2.26972941296359, 1};
Point(p11 + 4) = {14.55958597098618, 2.347765336184837, 1};
Point(p11 + 5) = {14.50014673723384, 2.417359737233835, 1};
Point(p11 + 6) = {14.43055233618484, 2.476798970986182, 1};
Point(p11 + 7) = {14.35251641296359, 2.524619446239389, 1};
Point(p11 + 8) = {14.26796047098618, 2.559643664185664, 1};
Point(p11 + 9) = {14.17896655816918, 2.581009212340454, 1};
Point(p11 + 10) = {14.087726, 2.58819, 1};
Point(p11 + 11) = {13.99648544183082, 2.581009212340454, 1};
Point(p11 + 12) = {13.90749152901382, 2.559643664185665, 1};
Point(p11 + 13) = {13.82293558703641, 2.524619446239389, 1};
Point(p11 + 14) = {13.74489966381516, 2.476798970986182, 1};
Point(p11 + 15) = {13.67530526276616, 2.417359737233835, 1};
Point(p11 + 16) = {13.61586602901382, 2.347765336184837, 1};
Point(p11 + 17) = {13.56804555376061, 2.26972941296359, 1};
Point(p11 + 18) = {13.53302133581434, 2.185173470986182, 1};
Point(p11 + 19) = {13.51165578765955, 2.09617955816918, 1};
Point(p11 + 20) = {13.504475, 2.004939, 1};
Point(p11 + 21) = {13.51165578765955, 1.91369844183082, 1};
Point(p11 + 22) = {13.53302133581434, 1.824704529013817, 1};
Point(p11 + 23) = {13.56804555376061, 1.74014858703641, 1};
Point(p11 + 24) = {13.61586602901382, 1.662112663815163, 1};
Point(p11 + 25) = {13.67530526276616, 1.592518262766165, 1};
Point(p11 + 26) = {13.74489966381516, 1.533079029013817, 1};
Point(p11 + 27) = {13.82293558703641, 1.48525855376061, 1};
Point(p11 + 28) = {13.90749152901382, 1.450234335814335, 1};
Point(p11 + 29) = {13.99648544183082, 1.428868787659545, 1};
Point(p11 + 30) = {14.087726, 1.421688, 1};
Point(p11 + 31) = {14.17896655816918, 1.428868787659545, 1};
Point(p11 + 32) = {14.26796047098618, 1.450234335814335, 1};
Point(p11 + 33) = {14.35251641296359, 1.48525855376061, 1};
Point(p11 + 34) = {14.43055233618484, 1.533079029013817, 1};
Point(p11 + 35) = {14.50014673723383, 1.592518262766165, 1};
Point(p11 + 36) = {14.55958597098618, 1.662112663815162, 1};
Point(p11 + 37) = {14.60740644623939, 1.740148587036409, 1};
Point(p11 + 38) = {14.64243066418566, 1.824704529013817, 1};
Point(p11 + 39) = {14.66379621234045, 1.91369844183082, 1};
Spline(11) = {9, p11 + 1, p11 + 2, p11 + 3, p11 + 4, p11 + 5, p11 + 6, p11 + 7, p11 + 8, p11 + 9, p11 + 10, p11 + 11, p11 + 12, p11 + 13, p11 + 14, p11 + 15, p11 + 16, p11 + 17, p11 + 18, p11 + 19, p11 + 20, p11 + 21, p11 + 22, p11 + 23, p11 + 24, p11 + 25, p11 + 26, p11 + 27, p11 + 28, p11 + 29, p11 + 30, p11 + 31, p11 + 32, p11 + 33, p11 + 34, p11 + 35, p11 + 36, p11 + 37, p11 + 38, p11 + 39, 9};
Line(12) = {4, 10};
Line(13) = {10, 7};
Line(14) = {5, 10};
p15 = newp;
Point(p15 + 1) = {32.15855830269578, -1.325366350132327, 0};
Point(p15 + 2) = {32.13117978710945, -1.211326625455148, 0};
Point(p15 + 3) = {32.08629860315881, -1.102973862466162, 0};
Point(p15 + 4) = {32.02501987454485, -1.002976065792363, 0};
Point(p15 + 5) = {31.94885248693848, -0.9137955130615181, 0};
Point(p15 + 6) = {31.85967193420764, -0.8376281254551474, 0};
Point(p15 + 7) = {31.75967413753384, -0.7763493968411865, 0};
Point(p15 + 8) = {31.65132137454485, -0.7314682128905512, 0};
Point(p15 + 9) = {31.53728164986767, -0.7040896973042159, 0};
Point(p15 + 10) = {31.420363, -0.6948880000000001, 0};
Point(p15 + 11) = {31.30344435013232, -0.704089697304216, 0};
Point(p15 + 12) = {31.18940462545515, -0.7314682128905511, 0};
Point(p15 + 13) = {31.08105186246616, -0.7763493968411864, 0};
Point(p15 + 14) = {30.98105406579236, -0.8376281254551474, 0};
Point(p15 + 15) = {30.89187351306152, -0.913795513061518, 0};
Point(p15 + 16) = {30.81570612545515, -1.002976065792363, 0};
Point(p15 + 17) = {30.75442739684118, -1.102973862466162, 0};
Point(p15 + 18) = {30.70954621289055, -1.211326625455147, 0};
Point(p15 + 19) = {30.68216769730422, -1.325366350132327, 0};
Point(p15 + 20) = {30.672966, -1.442285, 0};
Point(p15 + 21) = {30.68216769730422, -1.559203649867673, 0};
Point(p15 + 22) = {30.70954621289055, -1.673243374544853, 0};
Point(p15 + 23) = {30.75442739684118, -1.781596137533838, 0};
Point(p15 + 24) = {30.81570612545515, -1.881593934207638, 0};
Point(p15 + 25) = {30.89187351306152, -1.970774486938482, 0};
Point(p15 + 26) = {30.98105406579236, -2.046941874544852, 0};
Point(p15 + 27) = {31.08105186246616, -2.108220603158814, 0};
Point(p15 + 28) = {31.18940462545515, -2.153101787109449, 0};
Point(p15 + 29) = {31.30344435013232, -2.180480302695784, 0};
Point(p15 + 30) = {31.420363, -2.189682, 0};
Point(p15 + 31) = {31.53728164986767, -2.180480302695784, 0};
Point(p15 + 32) = {31.65132137454485, -2.153101787109449, 0};
Point(p15 + 33) = {31.75967413753384, -2.108220603158814, 0};
Point(p15 + 34) = {31.85967193420764, -2.046941874544853, 0};
Point(p15 + 35) = {31.94885248693848, -1.970774486938482, 0};
Point(p15 + 36) = {32.02501987454485, -1.881593934207638, 0};
Point(p15 + 37) = {32.08629860315881, -1.781596137533838, 0};
Point(p15 + 38) = {32.13117978710945, -1.673243374544853, 0};
Point(p15 + 39) = {32.15855830269578, -1.559203649867674, 0};
Spline(15) = {11, p15 + 1, p15 + 2, p15 + 3, p15 + 4, p15 + 5, p15 + 6, p15 + 7, p15 + 8, p15 + 9, p15 + 10, p15 + 11, p15 + 12, p15 + 13, p15 + 14, p15 + 15, p15 + 16, p15 + 17, p15 + 18, p15 + 19, p15 + 20, p15 + 21, p15 + 22, p15 + 23, p15 + 24, p15 + 25, p15 + 26, p15 + 27, p15 + 28, p15 + 29, p15 + 30, p15 + 31, p15 + 32, p15 + 33, p15 + 34, p15 + 35, p15 + 36, p15 + 37, p15 + 38, p15 + 39, 11};
p16 = newp;
Point(p16 + 1) = {14.66379621234045, 2.09617955816918, 0};
Point(p16 + 2) = {14.64243066418566, 2.185173470986182, 0};
Point(p16 + 3) = {14.60740644623939, 2.26972941296359, 0};
Point(p16 + 4) = {14.55958597098618, 2.347765336184837, 0};
Point(p16 + 5) = {14.50014673723384, 2.417359737233835, 0};
Point(p16 + 6) = {14.43055233618484, 2.476798970986182, 0};
Point(p16 + 7) = {14.35251641296359, 2.524619446239389, 0};
Point(p16 + 8) = {14.26796047098618, 2.559643664185664, 0};
Point(p16 + 9) = {14.17896655816918, 2.581009212340454, 0};
Point(p16 + 10) = {14.087726, 2.58819, 0};
Point(p16 + 11) = {13.99648544183082, 2.581009212340454, 0};
Point(p16 + 12) = {13.90749152901382, 2.559643664185665, 0};
Point(p16 + 13) = {13.82293558703641, 2.524619446239389, 0};
Point(p16 + 14) = {13.74489966381516, 2.476798970986182, 0};
Point(p16 + 15) = {13.67530526276616, 2.417359737233835, 0};
Point(p16 + 16) = {13.61586602901382, 2.347765336184837, 0};
Point(p16 + 17) = {13.56804555376061, 2.26972941296359, 0};
Point(p16 + 18) = {13.53302133581434, 2.185173470986182, 0};
Point(p16 + 19) = {13.51165578765955, 2.09617955816918, 0};
Point(p16 + 20) = {13.504475, 2.004939, 0};
Point(p16 + 21) = {13.51165578765955, 1.91369844183082, 0};
Point(p16 + 22) = {13.53302133581434, 1.824704529013817, 0};
Point(p16 + 23) = {13.56804555376061, 1.74014858703641, 0};
Point(p16 + 24) = {13.61586602901382, 1.662112663815163, 0};
Point(p16 + 25) = {13.67530526276616, 1.592518262766165, 0};
Point(p16 + 26) = {13.74489966381516, 1.533079029013817, 0};
Point(p16 + 27) = {13.82293558703641, 1.48525855376061, 0};
Point(p16 + 28) = {13.90749152901382, 1.450234335814335, 0};
Point(p16 + 29) = {13.99648544183082, 1.428868787659545, 0};
Point(p16 + 30) = {14.087726, 1.421688, 0};
Point(p16 + 31) = {14.17896655816918, 1.428868787659545, 0};
Point(p16 + 32) = {14.26796047098618, 1.450234335814335, 0};
Point(p16 + 33) = {14.35251641296359, 1.48525855376061, 0};
Point(p16 + 34) = {14.43055233618484, 1.533079029013817, 0};
Point(p16 + 35) = {14.50014673723383, 1.592518262766165, 0};
Point(p16 + 36) = {14.55958597098618, 1.662112663815162, 0};
Point(p16 + 37) = {14.60740644623939, 1.740148587036409, 0};
Point(p16 + 38) = {14.64243066418566, 1.824704529013817, 0};
Point(p16 + 39) = {14.66379621234045, 1.91369844183082, 0};
Spline(16) = {12, p16 + 1, p16 + 2, p16 + 3, p16 + 4, p16 + 5, p16 + 6, p16 + 7, p16 + 8, p16 + 9, p16 + 10, p16 + 11, p16 + 12, p16 + 13, p16 + 14, p16 + 15, p16 + 16, p16 + 17, p16 + 18, p16 + 19, p16 + 20, p16 + 21, p16 + 22, p16 + 23, p16 + 24, p16 + 25, p16 + 26, p16 + 27, p16 + 28, p16 + 29, p16 + 30, p16 + 31, p16 + 32, p16 + 33, p16 + 34, p16 + 35, p16 + 36, p16 + 37, p16 + 38, p16 + 39, 12};
Line(17) = {11, 8};
Line(18) = {12, 9};
Curve Loop(1) = {-1, 4, 3, -2};
Plane Surface(1) = {1};
Curve Loop(2) = {-5, 1, 7, -6};
Plane Surface(2) = {2};
Curve Loop(3) = {-2, 7, 9, -8, -10, -11};
Plane Surface(3) = {3};
Curve Loop(4) = {-12, 3, 8, -13};
Plane Surface(4) = {4};
Curve Loop(5) = {-4, 5, 14, -12, -15, -16};
Plane Surface(5) = {5};
Curve Loop(6) = {-6, 14, 13, -9};
Plane Surface(6) = {6};
Curve Loop(7) = {-10, -17, 15, 17};
Surface(7) = {7};
Curve Loop(8) = {-11, -18, 16, 18};
Surface(8) = {8};
Surface Loop(1) = {1, 2, 3, 4, 5, 6, 7, 8};
Volume(1) = {1};
Physical Surface("INFLOW") = {1};
Physical Surface("OUTFLOW") = {6};
Physical Surface("OBSTACLE") = {7, 8};
Physical Surface("WALL_Y") = {2, 4};
Physical Surface("WALL_Z") = {3, 5};
Physical Volume("FLUID") = {1};
