cl__1 = 1.306287;
cl__2 = 1.286039;
cl__3 = 3.723623;
cl__4 = 0.120843;
cl__5 = 0.057087;
Point(1) = {0.657921, -3.544102, 1, cl__1};
Point(2) = {0.657921, -3.544102, 0, cl__1};
Point(3) = {0.657921, 4.595744, 1, cl__2};
Point(4) = {0.657921, 4.595744, 0, cl__2};
Point(5) = {37.01314, -3.544102, 0, cl__3};
Point(6) = {37.01314, -3.544102, 1, cl__3};
Point(7) = {37.01314, 4.595744, 1, cl__3};
Point(8) = {16.604168, -1.065761, 1, cl__4};
Point(9) = {14.130787, 0.8624459999999999, 1, cl__5};
Point(10) = {37.01314, 4.595744, 0, cl__3};
Point(11) = {16.604168, -1.065761, 0, cl__4};
Point(12) = {14.130787, 0.8624459999999999, 0, cl__5};
Line(1) = {2, 1};
Line(2) = {1, 3};
Line(3) = {4, 3};
Line(4) = {2, 4};
Line(5) = {2, 5};
Line(6) = {5, 6};
Line(7) = {1, 6};
Line(8) = {3, 7};
Line(9) = {6, 7};
p10 = newp;
Point(p10 + 1) = {16.58929017217874, -0.8767202736735736, 1};
Point(p10 + 2) = {16.54502303021262, -0.6923343574195048, 1};
Point(p10 + 3) = {16.47245657805104, -0.5171434444377405, 1};
Point(p10 + 4) = {16.37337764258049, -0.3554613164311975, 1};
Point(p10 + 5) = {16.25022587601638, -0.2112691239836156, 1};
Point(p10 + 6) = {16.1060336835688, -0.08811735741950466, 1};
Point(p10 + 7) = {15.94435155556226, 0.01096157805104614, 1};
Point(p10 + 8) = {15.76916064258049, 0.08352803021261757, 1};
Point(p10 + 9) = {15.58477472632643, 0.1277951721787447, 1};
Point(p10 + 10) = {15.395734, 0.142673, 1};
Point(p10 + 11) = {15.20669327367357, 0.1277951721787447, 1};
Point(p10 + 12) = {15.0223073574195, 0.08352803021261779, 1};
Point(p10 + 13) = {14.84711644443774, 0.01096157805104614, 1};
Point(p10 + 14) = {14.6854343164312, -0.08811735741950466, 1};
Point(p10 + 15) = {14.54124212398361, -0.2112691239836155, 1};
Point(p10 + 16) = {14.4180903574195, -0.3554613164311974, 1};
Point(p10 + 17) = {14.31901142194895, -0.5171434444377404, 1};
Point(p10 + 18) = {14.24644496978738, -0.6923343574195047, 1};
Point(p10 + 19) = {14.20217782782125, -0.8767202736735735, 1};
Point(p10 + 20) = {14.1873, -1.065761, 1};
Point(p10 + 21) = {14.20217782782125, -1.254801726326426, 1};
Point(p10 + 22) = {14.24644496978738, -1.439187642580495, 1};
Point(p10 + 23) = {14.31901142194895, -1.614378555562259, 1};
Point(p10 + 24) = {14.4180903574195, -1.776060683568802, 1};
Point(p10 + 25) = {14.54124212398361, -1.920252876016384, 1};
Point(p10 + 26) = {14.6854343164312, -2.043404642580495, 1};
Point(p10 + 27) = {14.84711644443774, -2.142483578051046, 1};
Point(p10 + 28) = {15.0223073574195, -2.215050030212617, 1};
Point(p10 + 29) = {15.20669327367357, -2.259317172178744, 1};
Point(p10 + 30) = {15.395734, -2.274195, 1};
Point(p10 + 31) = {15.58477472632643, -2.259317172178744, 1};
Point(p10 + 32) = {15.76916064258049, -2.215050030212618, 1};
Point(p10 + 33) = {15.94435155556226, -2.142483578051046, 1};
Point(p10 + 34) = {16.1060336835688, -2.043404642580495, 1};
Point(p10 + 35) = {16.25022587601638, -1.920252876016384, 1};
Point(p10 + 36) = {16.37337764258049, -1.776060683568803, 1};
Point(p10 + 37) = {16.47245657805104, -1.61437855556226, 1};
Point(p10 + 38) = {16.54502303021262, -1.439187642580495, 1};
Point(p10 + 39) = {16.58929017217874, -1.254801726326427, 1};
Spline(10) = {8, p10 + 1, p10 + 2, p10 + 3, p10 + 4, p10 + 5, p10 + 6, p10 + 7, p10 + 8, p10 + 9, p10 + 10, p10 + 11, p10 + 12, p10 + 13, p10 + 14, p10 + 15, p10 + 16, p10 + 17, p10 + 18, p10 + 19, p10 + 20, p10 + 21, p10 + 22, p10 + 23, p10 + 24, p10 + 25, p10 + 26, p10 + 27, p10 + 28, p10 + 29, p10 + 30, p10 + 31, p10 + 32, p10 + 33, p10 + 34, p10 + 35, p10 + 36, p10 + 37, p10 + 38, p10 + 39, 8};
p11 = newp;
Point(p11 + 1) = {14.12375859374891, 0.9517503687953768, 1};
Point(p11 + 2) = {14.10284643768348, 1.038855767646804, 1};
Point(p11 + 3) = {14.06856545848951, 1.121617372548314, 1};
Point(p11 + 4) = {14.0217597676468, 1.197997318117213, 1};
Point(p11 + 5) = {13.96358187660309, 1.266114876603089, 1};
Point(p11 + 6) = {13.89546431811721, 1.324292767646804, 1};
Point(p11 + 7) = {13.81908437254831, 1.37109845848951, 1};
Point(p11 + 8) = {13.7363227676468, 1.40537943768348, 1};
Point(p11 + 9) = {13.64921736879538, 1.426291593748909, 1};
Point(p11 + 10) = {13.559913, 1.43332, 1};
Point(p11 + 11) = {13.47060863120462, 1.426291593748909, 1};
Point(p11 + 12) = {13.3835032323532, 1.40537943768348, 1};
Point(p11 + 13) = {13.30074162745169, 1.37109845848951, 1};
Point(p11 + 14) = {13.22436168188279, 1.324292767646804, 1};
Point(p11 + 15) = {13.15624412339691, 1.266114876603089, 1};
Point(p11 + 16) = {13.0980662323532, 1.197997318117213, 1};
Point(p11 + 17) = {13.05126054151049, 1.121617372548314, 1};
Point(p11 + 18) = {13.01697956231652, 1.038855767646804, 1};
Point(p11 + 19) = {12.99606740625109, 0.9517503687953769, 1};
Point(p11 + 20) = {12.989039, 0.8624460000000002, 1};
Point(p11 + 21) = {12.99606740625109, 0.7731416312046233, 1};
Point(p11 + 22) = {13.01697956231652, 0.6860362323531961, 1};
Point(p11 + 23) = {13.05126054151049, 0.6032746274516863, 1};
Point(p11 + 24) = {13.0980662323532, 0.5268946818827869, 1};
Point(p11 + 25) = {13.15624412339691, 0.458777123396911, 1};
Point(p11 + 26) = {13.22436168188279, 0.4005992323531964, 1};
Point(p11 + 27) = {13.30074162745169, 0.3537935415104898, 1};
Point(p11 + 28) = {13.3835032323532, 0.3195125623165206, 1};
Point(p11 + 29) = {13.47060863120462, 0.2986004062510914, 1};
Point(p11 + 30) = {13.559913, 0.2915720000000001, 1};
Point(p11 + 31) = {13.64921736879538, 0.2986004062510914, 1};
Point(p11 + 32) = {13.7363227676468, 0.3195125623165205, 1};
Point(p11 + 33) = {13.81908437254831, 0.3537935415104897, 1};
Point(p11 + 34) = {13.89546431811721, 0.4005992323531962, 1};
Point(p11 + 35) = {13.96358187660309, 0.4587771233969108, 1};
Point(p11 + 36) = {14.0217597676468, 0.5268946818827867, 1};
Point(p11 + 37) = {14.06856545848951, 0.6032746274516859, 1};
Point(p11 + 38) = {14.10284643768348, 0.6860362323531962, 1};
Point(p11 + 39) = {14.12375859374891, 0.7731416312046232, 1};
Spline(11) = {9, p11 + 1, p11 + 2, p11 + 3, p11 + 4, p11 + 5, p11 + 6, p11 + 7, p11 + 8, p11 + 9, p11 + 10, p11 + 11, p11 + 12, p11 + 13, p11 + 14, p11 + 15, p11 + 16, p11 + 17, p11 + 18, p11 + 19, p11 + 20, p11 + 21, p11 + 22, p11 + 23, p11 + 24, p11 + 25, p11 + 26, p11 + 27, p11 + 28, p11 + 29, p11 + 30, p11 + 31, p11 + 32, p11 + 33, p11 + 34, p11 + 35, p11 + 36, p11 + 37, p11 + 38, p11 + 39, 9};
Line(12) = {4, 10};
Line(13) = {10, 7};
Line(14) = {5, 10};
p15 = newp;
Point(p15 + 1) = {16.58929017217874, -0.8767202736735736, 0};
Point(p15 + 2) = {16.54502303021262, -0.6923343574195048, 0};
Point(p15 + 3) = {16.47245657805104, -0.5171434444377405, 0};
Point(p15 + 4) = {16.37337764258049, -0.3554613164311975, 0};
Point(p15 + 5) = {16.25022587601638, -0.2112691239836156, 0};
Point(p15 + 6) = {16.1060336835688, -0.08811735741950466, 0};
Point(p15 + 7) = {15.94435155556226, 0.01096157805104614, 0};
Point(p15 + 8) = {15.76916064258049, 0.08352803021261757, 0};
Point(p15 + 9) = {15.58477472632643, 0.1277951721787447, 0};
Point(p15 + 10) = {15.395734, 0.142673, 0};
Point(p15 + 11) = {15.20669327367357, 0.1277951721787447, 0};
Point(p15 + 12) = {15.0223073574195, 0.08352803021261779, 0};
Point(p15 + 13) = {14.84711644443774, 0.01096157805104614, 0};
Point(p15 + 14) = {14.6854343164312, -0.08811735741950466, 0};
Point(p15 + 15) = {14.54124212398361, -0.2112691239836155, 0};
Point(p15 + 16) = {14.4180903574195, -0.3554613164311974, 0};
Point(p15 + 17) = {14.31901142194895, -0.5171434444377404, 0};
Point(p15 + 18) = {14.24644496978738, -0.6923343574195047, 0};
Point(p15 + 19) = {14.20217782782125, -0.8767202736735735, 0};
Point(p15 + 20) = {14.1873, -1.065761, 0};
Point(p15 + 21) = {14.20217782782125, -1.254801726326426, 0};
Point(p15 + 22) = {14.24644496978738, -1.439187642580495, 0};
Point(p15 + 23) = {14.31901142194895, -1.614378555562259, 0};
Point(p15 + 24) = {14.4180903574195, -1.776060683568802, 0};
Point(p15 + 25) = {14.54124212398361, -1.920252876016384, 0};
Point(p15 + 26) = {14.6854343164312, -2.043404642580495, 0};
Point(p15 + 27) = {14.84711644443774, -2.142483578051046, 0};
Point(p15 + 28) = {15.0223073574195, -2.215050030212617, 0};
Point(p15 + 29) = {15.20669327367357, -2.259317172178744, 0};
Point(p15 + 30) = {15.395734, -2.274195, 0};
Point(p15 + 31) = {15.58477472632643, -2.259317172178744, 0};
Point(p15 + 32) = {15.76916064258049, -2.215050030212618, 0};
Point(p15 + 33) = {15.94435155556226, -2.142483578051046, 0};
Point(p15 + 34) = {16.1060336835688, -2.043404642580495, 0};
Point(p15 + 35) = {16.25022587601638, -1.920252876016384, 0};
Point(p15 + 36) = {16.37337764258049, -1.776060683568803, 0};
Point(p15 + 37) = {16.47245657805104, -1.61437855556226, 0};
Point(p15 + 38) = {16.54502303021262, -1.439187642580495, 0};
Point(p15 + 39) = {16.58929017217874, -1.254801726326427, 0};
Spline(15) = {11, p15 + 1, p15 + 2, p15 + 3, p15 + 4, p15 + 5, p15 + 6, p15 + 7, p15 + 8, p15 + 9, p15 + 10, p15 + 11, p15 + 12, p15 + 13, p15 + 14, p15 + 15, p15 + 16, p15 + 17, p15 + 18, p15 + 19, p15 + 20, p15 + 21, p15 + 22, p15 + 23, p15 + 24, p15 + 25, p15 + 26, p15 + 27, p15 + 28, p15 + 29, p15 + 30, p15 + 31, p15 + 32, p15 + 33, p15 + 34, p15 + 35, p15 + 36, p15 + 37, p15 + 38, p15 + 39, 11};
p16 = newp;
Point(p16 + 1) = {14.12375859374891, 0.9517503687953768, 0};
Point(p16 + 2) = {14.10284643768348, 1.038855767646804, 0};
Point(p16 + 3) = {14.06856545848951, 1.121617372548314, 0};
Point(p16 + 4) = {14.0217597676468, 1.197997318117213, 0};
Point(p16 + 5) = {13.96358187660309, 1.266114876603089, 0};
Point(p16 + 6) = {13.89546431811721, 1.324292767646804, 0};
Point(p16 + 7) = {13.81908437254831, 1.37109845848951, 0};
Point(p16 + 8) = {13.7363227676468, 1.40537943768348, 0};
Point(p16 + 9) = {13.64921736879538, 1.426291593748909, 0};
Point(p16 + 10) = {13.559913, 1.43332, 0};
Point(p16 + 11) = {13.47060863120462, 1.426291593748909, 0};
Point(p16 + 12) = {13.3835032323532, 1.40537943768348, 0};
Point(p16 + 13) = {13.30074162745169, 1.37109845848951, 0};
Point(p16 + 14) = {13.22436168188279, 1.324292767646804, 0};
Point(p16 + 15) = {13.15624412339691, 1.266114876603089, 0};
Point(p16 + 16) = {13.0980662323532, 1.197997318117213, 0};
Point(p16 + 17) = {13.05126054151049, 1.121617372548314, 0};
Point(p16 + 18) = {13.01697956231652, 1.038855767646804, 0};
Point(p16 + 19) = {12.99606740625109, 0.9517503687953769, 0};
Point(p16 + 20) = {12.989039, 0.8624460000000002, 0};
Point(p16 + 21) = {12.99606740625109, 0.7731416312046233, 0};
Point(p16 + 22) = {13.01697956231652, 0.6860362323531961, 0};
Point(p16 + 23) = {13.05126054151049, 0.6032746274516863, 0};
Point(p16 + 24) = {13.0980662323532, 0.5268946818827869, 0};
Point(p16 + 25) = {13.15624412339691, 0.458777123396911, 0};
Point(p16 + 26) = {13.22436168188279, 0.4005992323531964, 0};
Point(p16 + 27) = {13.30074162745169, 0.3537935415104898, 0};
Point(p16 + 28) = {13.3835032323532, 0.3195125623165206, 0};
Point(p16 + 29) = {13.47060863120462, 0.2986004062510914, 0};
Point(p16 + 30) = {13.559913, 0.2915720000000001, 0};
Point(p16 + 31) = {13.64921736879538, 0.2986004062510914, 0};
Point(p16 + 32) = {13.7363227676468, 0.3195125623165205, 0};
Point(p16 + 33) = {13.81908437254831, 0.3537935415104897, 0};
Point(p16 + 34) = {13.89546431811721, 0.4005992323531962, 0};
Point(p16 + 35) = {13.96358187660309, 0.4587771233969108, 0};
Point(p16 + 36) = {14.0217597676468, 0.5268946818827867, 0};
Point(p16 + 37) = {14.06856545848951, 0.6032746274516859, 0};
Point(p16 + 38) = {14.10284643768348, 0.6860362323531962, 0};
Point(p16 + 39) = {14.12375859374891, 0.7731416312046232, 0};
Spline(16) = {12, p16 + 1, p16 + 2, p16 + 3, p16 + 4, p16 + 5, p16 + 6, p16 + 7, p16 + 8, p16 + 9, p16 + 10, p16 + 11, p16 + 12, p16 + 13, p16 + 14, p16 + 15, p16 + 16, p16 + 17, p16 + 18, p16 + 19, p16 + 20, p16 + 21, p16 + 22, p16 + 23, p16 + 24, p16 + 25, p16 + 26, p16 + 27, p16 + 28, p16 + 29, p16 + 30, p16 + 31, p16 + 32, p16 + 33, p16 + 34, p16 + 35, p16 + 36, p16 + 37, p16 + 38, p16 + 39, 12};
Line(17) = {11, 8};
Line(18) = {12, 9};
Curve Loop(1) = {-1, 4, 3, -2};
Plane Surface(1) = {1};
Curve Loop(2) = {-5, 1, 7, -6};
Plane Surface(2) = {2};
Curve Loop(3) = {-2, 7, 9, -8, -10, -11};
Plane Surface(3) = {3};
Curve Loop(4) = {-12, 3, 8, -13};
Plane Surface(4) = {4};
Curve Loop(5) = {-4, 5, 14, -12, -15, -16};
Plane Surface(5) = {5};
Curve Loop(6) = {-6, 14, 13, -9};
Plane Surface(6) = {6};
Curve Loop(7) = {-10, -17, 15, 17};
Surface(7) = {7};
Curve Loop(8) = {-11, -18, 16, 18};
Surface(8) = {8};
Surface Loop(1) = {1, 2, 3, 4, 5, 6, 7, 8};
Volume(1) = {1};
Physical Surface("INFLOW") = {1};
Physical Surface("OUTFLOW") = {6};
Physical Surface("OBSTACLE") = {7, 8};
Physical Surface("WALL_Y") = {2, 4};
Physical Surface("WALL_Z") = {3, 5};
Physical Volume("FLUID") = {1};
