cl__1 = 1.322016;
cl__2 = 3.543399;
cl__3 = 0.807221;
cl__4 = 0.124808;
cl__5 = 0.13039;
Point(1) = {0.248219, -4.240736, 1, cl__1};
Point(2) = {0.248219, -4.240736, 0, cl__1};
Point(3) = {0.248219, 4.952222000000001, 1, cl__2};
Point(4) = {0.248219, 4.952222000000001, 0, cl__2};
Point(5) = {35.134597, -4.240736, 0, cl__3};
Point(6) = {35.134597, -4.240736, 1, cl__3};
Point(7) = {35.134597, 4.952222000000001, 1, cl__2};
Point(8) = {15.456236, -0.4394130000000003, 1, cl__4};
Point(9) = {10.082368, -0.3489350000000003, 1, cl__5};
Point(10) = {35.134597, 4.952222000000001, 0, cl__2};
Point(11) = {15.456236, -0.4394130000000003, 0, cl__4};
Point(12) = {10.082368, -0.3489350000000003, 0, cl__5};
Line(1) = {2, 1};
Line(2) = {1, 3};
Line(3) = {4, 3};
Line(4) = {2, 4};
Line(5) = {2, 5};
Line(6) = {5, 6};
Line(7) = {1, 6};
Line(8) = {3, 7};
Line(9) = {6, 7};
p10 = newp;
Point(p10 + 1) = {15.4408700887533, -0.2441705857415187, 1};
Point(p10 + 2) = {15.39515071474462, -0.05373568769450437, 1};
Point(p10 + 3) = {15.32020364069597, 0.127202554933934, 1};
Point(p10 + 4) = {15.2178743123055, 0.2941888421106854, 1};
Point(p10 + 5) = {15.09068241724974, 0.4431114172497438, 1};
Point(p10 + 6) = {14.94175984211068, 0.5703033123054957, 1};
Point(p10 + 7) = {14.77477355493393, 0.6726326406959697, 1};
Point(p10 + 8) = {14.5938353123055, 0.7475797147446226, 1};
Point(p10 + 9) = {14.40340041425848, 0.7932990887532982, 1};
Point(p10 + 10) = {14.208158, 0.808665, 1};
Point(p10 + 11) = {14.01291558574152, 0.7932990887532982, 1};
Point(p10 + 12) = {13.8224806876945, 0.7475797147446228, 1};
Point(p10 + 13) = {13.64154244506607, 0.6726326406959697, 1};
Point(p10 + 14) = {13.47455615788931, 0.5703033123054957, 1};
Point(p10 + 15) = {13.32563358275026, 0.443111417249744, 1};
Point(p10 + 16) = {13.1984416876945, 0.2941888421106855, 1};
Point(p10 + 17) = {13.09611235930403, 0.1272025549339342, 1};
Point(p10 + 18) = {13.02116528525538, -0.05373568769450426, 1};
Point(p10 + 19) = {12.9754459112467, -0.2441705857415186, 1};
Point(p10 + 20) = {12.96008, -0.4394129999999998, 1};
Point(p10 + 21) = {12.9754459112467, -0.634655414258481, 1};
Point(p10 + 22) = {13.02116528525538, -0.825090312305496, 1};
Point(p10 + 23) = {13.09611235930403, -1.006028554933933, 1};
Point(p10 + 24) = {13.1984416876945, -1.173014842110685, 1};
Point(p10 + 25) = {13.32563358275026, -1.321937417249744, 1};
Point(p10 + 26) = {13.47455615788931, -1.449129312305496, 1};
Point(p10 + 27) = {13.64154244506607, -1.55145864069597, 1};
Point(p10 + 28) = {13.8224806876945, -1.626405714744623, 1};
Point(p10 + 29) = {14.01291558574152, -1.672125088753298, 1};
Point(p10 + 30) = {14.208158, -1.687491, 1};
Point(p10 + 31) = {14.40340041425848, -1.672125088753298, 1};
Point(p10 + 32) = {14.59383531230549, -1.626405714744623, 1};
Point(p10 + 33) = {14.77477355493393, -1.55145864069597, 1};
Point(p10 + 34) = {14.94175984211068, -1.449129312305496, 1};
Point(p10 + 35) = {15.09068241724974, -1.321937417249744, 1};
Point(p10 + 36) = {15.2178743123055, -1.173014842110686, 1};
Point(p10 + 37) = {15.32020364069597, -1.006028554933934, 1};
Point(p10 + 38) = {15.39515071474462, -0.8250903123054959, 1};
Point(p10 + 39) = {15.4408700887533, -0.6346554142584815, 1};
Spline(10) = {8, p10 + 1, p10 + 2, p10 + 3, p10 + 4, p10 + 5, p10 + 6, p10 + 7, p10 + 8, p10 + 9, p10 + 10, p10 + 11, p10 + 12, p10 + 13, p10 + 14, p10 + 15, p10 + 16, p10 + 17, p10 + 18, p10 + 19, p10 + 20, p10 + 21, p10 + 22, p10 + 23, p10 + 24, p10 + 25, p10 + 26, p10 + 27, p10 + 28, p10 + 29, p10 + 30, p10 + 31, p10 + 32, p10 + 33, p10 + 34, p10 + 35, p10 + 36, p10 + 37, p10 + 38, p10 + 39, 8};
p11 = newp;
Point(p11 + 1) = {10.06631486423698, -0.1449605703374381, 1};
Point(p11 + 2) = {10.0185507384277, 0.05399133191451083, 1};
Point(p11 + 3) = {9.940251733869641, 0.2430218506388958, 1};
Point(p11 + 4) = {9.83334583191451, 0.4174764271083989, 1};
Point(p11 + 5) = {9.700465410668796, 0.5730594106687957, 1};
Point(p11 + 6) = {9.544882427108398, 0.7059398319145109, 1};
Point(p11 + 7) = {9.370427850638896, 0.8128457338696402, 1};
Point(p11 + 8) = {9.181397331914511, 0.8911447384277018, 1};
Point(p11 + 9) = {8.982445429662562, 0.9389088642369785, 1};
Point(p11 + 10) = {8.778471, 0.9549620000000001, 1};
Point(p11 + 11) = {8.574496570337438, 0.9389088642369783, 1};
Point(p11 + 12) = {8.375544668085489, 0.891144738427702, 1};
Point(p11 + 13) = {8.186514149361104, 0.8128457338696404, 1};
Point(p11 + 14) = {8.012059572891602, 0.7059398319145109, 1};
Point(p11 + 15) = {7.856476589331204, 0.5730594106687958, 1};
Point(p11 + 16) = {7.723596168085489, 0.4174764271083991, 1};
Point(p11 + 17) = {7.61669026613036, 0.2430218506388959, 1};
Point(p11 + 18) = {7.538391261572298, 0.05399133191451094, 1};
Point(p11 + 19) = {7.490627135763021, -0.1449605703374379, 1};
Point(p11 + 20) = {7.474574, -0.3489349999999998, 1};
Point(p11 + 21) = {7.490627135763021, -0.5529094296625617, 1};
Point(p11 + 22) = {7.538391261572298, -0.7518613319145113, 1};
Point(p11 + 23) = {7.616690266130359, -0.9408918506388951, 1};
Point(p11 + 24) = {7.723596168085488, -1.115346427108399, 1};
Point(p11 + 25) = {7.856476589331203, -1.270929410668796, 1};
Point(p11 + 26) = {8.012059572891602, -1.403809831914511, 1};
Point(p11 + 27) = {8.186514149361104, -1.51071573386964, 1};
Point(p11 + 28) = {8.375544668085489, -1.589014738427702, 1};
Point(p11 + 29) = {8.574496570337438, -1.636778864236978, 1};
Point(p11 + 30) = {8.778471, -1.652832, 1};
Point(p11 + 31) = {8.982445429662562, -1.636778864236978, 1};
Point(p11 + 32) = {9.181397331914511, -1.589014738427702, 1};
Point(p11 + 33) = {9.370427850638896, -1.51071573386964, 1};
Point(p11 + 34) = {9.544882427108398, -1.403809831914511, 1};
Point(p11 + 35) = {9.700465410668794, -1.270929410668796, 1};
Point(p11 + 36) = {9.83334583191451, -1.115346427108399, 1};
Point(p11 + 37) = {9.940251733869641, -0.9408918506388961, 1};
Point(p11 + 38) = {10.0185507384277, -0.7518613319145111, 1};
Point(p11 + 39) = {10.06631486423698, -0.5529094296625622, 1};
Spline(11) = {9, p11 + 1, p11 + 2, p11 + 3, p11 + 4, p11 + 5, p11 + 6, p11 + 7, p11 + 8, p11 + 9, p11 + 10, p11 + 11, p11 + 12, p11 + 13, p11 + 14, p11 + 15, p11 + 16, p11 + 17, p11 + 18, p11 + 19, p11 + 20, p11 + 21, p11 + 22, p11 + 23, p11 + 24, p11 + 25, p11 + 26, p11 + 27, p11 + 28, p11 + 29, p11 + 30, p11 + 31, p11 + 32, p11 + 33, p11 + 34, p11 + 35, p11 + 36, p11 + 37, p11 + 38, p11 + 39, 9};
Line(12) = {4, 10};
Line(13) = {10, 7};
Line(14) = {5, 10};
p15 = newp;
Point(p15 + 1) = {15.4408700887533, -0.2441705857415187, 0};
Point(p15 + 2) = {15.39515071474462, -0.05373568769450437, 0};
Point(p15 + 3) = {15.32020364069597, 0.127202554933934, 0};
Point(p15 + 4) = {15.2178743123055, 0.2941888421106854, 0};
Point(p15 + 5) = {15.09068241724974, 0.4431114172497438, 0};
Point(p15 + 6) = {14.94175984211068, 0.5703033123054957, 0};
Point(p15 + 7) = {14.77477355493393, 0.6726326406959697, 0};
Point(p15 + 8) = {14.5938353123055, 0.7475797147446226, 0};
Point(p15 + 9) = {14.40340041425848, 0.7932990887532982, 0};
Point(p15 + 10) = {14.208158, 0.808665, 0};
Point(p15 + 11) = {14.01291558574152, 0.7932990887532982, 0};
Point(p15 + 12) = {13.8224806876945, 0.7475797147446228, 0};
Point(p15 + 13) = {13.64154244506607, 0.6726326406959697, 0};
Point(p15 + 14) = {13.47455615788931, 0.5703033123054957, 0};
Point(p15 + 15) = {13.32563358275026, 0.443111417249744, 0};
Point(p15 + 16) = {13.1984416876945, 0.2941888421106855, 0};
Point(p15 + 17) = {13.09611235930403, 0.1272025549339342, 0};
Point(p15 + 18) = {13.02116528525538, -0.05373568769450426, 0};
Point(p15 + 19) = {12.9754459112467, -0.2441705857415186, 0};
Point(p15 + 20) = {12.96008, -0.4394129999999998, 0};
Point(p15 + 21) = {12.9754459112467, -0.634655414258481, 0};
Point(p15 + 22) = {13.02116528525538, -0.825090312305496, 0};
Point(p15 + 23) = {13.09611235930403, -1.006028554933933, 0};
Point(p15 + 24) = {13.1984416876945, -1.173014842110685, 0};
Point(p15 + 25) = {13.32563358275026, -1.321937417249744, 0};
Point(p15 + 26) = {13.47455615788931, -1.449129312305496, 0};
Point(p15 + 27) = {13.64154244506607, -1.55145864069597, 0};
Point(p15 + 28) = {13.8224806876945, -1.626405714744623, 0};
Point(p15 + 29) = {14.01291558574152, -1.672125088753298, 0};
Point(p15 + 30) = {14.208158, -1.687491, 0};
Point(p15 + 31) = {14.40340041425848, -1.672125088753298, 0};
Point(p15 + 32) = {14.59383531230549, -1.626405714744623, 0};
Point(p15 + 33) = {14.77477355493393, -1.55145864069597, 0};
Point(p15 + 34) = {14.94175984211068, -1.449129312305496, 0};
Point(p15 + 35) = {15.09068241724974, -1.321937417249744, 0};
Point(p15 + 36) = {15.2178743123055, -1.173014842110686, 0};
Point(p15 + 37) = {15.32020364069597, -1.006028554933934, 0};
Point(p15 + 38) = {15.39515071474462, -0.8250903123054959, 0};
Point(p15 + 39) = {15.4408700887533, -0.6346554142584815, 0};
Spline(15) = {11, p15 + 1, p15 + 2, p15 + 3, p15 + 4, p15 + 5, p15 + 6, p15 + 7, p15 + 8, p15 + 9, p15 + 10, p15 + 11, p15 + 12, p15 + 13, p15 + 14, p15 + 15, p15 + 16, p15 + 17, p15 + 18, p15 + 19, p15 + 20, p15 + 21, p15 + 22, p15 + 23, p15 + 24, p15 + 25, p15 + 26, p15 + 27, p15 + 28, p15 + 29, p15 + 30, p15 + 31, p15 + 32, p15 + 33, p15 + 34, p15 + 35, p15 + 36, p15 + 37, p15 + 38, p15 + 39, 11};
p16 = newp;
Point(p16 + 1) = {10.06631486423698, -0.1449605703374381, 0};
Point(p16 + 2) = {10.0185507384277, 0.05399133191451083, 0};
Point(p16 + 3) = {9.940251733869641, 0.2430218506388958, 0};
Point(p16 + 4) = {9.83334583191451, 0.4174764271083989, 0};
Point(p16 + 5) = {9.700465410668796, 0.5730594106687957, 0};
Point(p16 + 6) = {9.544882427108398, 0.7059398319145109, 0};
Point(p16 + 7) = {9.370427850638896, 0.8128457338696402, 0};
Point(p16 + 8) = {9.181397331914511, 0.8911447384277018, 0};
Point(p16 + 9) = {8.982445429662562, 0.9389088642369785, 0};
Point(p16 + 10) = {8.778471, 0.9549620000000001, 0};
Point(p16 + 11) = {8.574496570337438, 0.9389088642369783, 0};
Point(p16 + 12) = {8.375544668085489, 0.891144738427702, 0};
Point(p16 + 13) = {8.186514149361104, 0.8128457338696404, 0};
Point(p16 + 14) = {8.012059572891602, 0.7059398319145109, 0};
Point(p16 + 15) = {7.856476589331204, 0.5730594106687958, 0};
Point(p16 + 16) = {7.723596168085489, 0.4174764271083991, 0};
Point(p16 + 17) = {7.61669026613036, 0.2430218506388959, 0};
Point(p16 + 18) = {7.538391261572298, 0.05399133191451094, 0};
Point(p16 + 19) = {7.490627135763021, -0.1449605703374379, 0};
Point(p16 + 20) = {7.474574, -0.3489349999999998, 0};
Point(p16 + 21) = {7.490627135763021, -0.5529094296625617, 0};
Point(p16 + 22) = {7.538391261572298, -0.7518613319145113, 0};
Point(p16 + 23) = {7.616690266130359, -0.9408918506388951, 0};
Point(p16 + 24) = {7.723596168085488, -1.115346427108399, 0};
Point(p16 + 25) = {7.856476589331203, -1.270929410668796, 0};
Point(p16 + 26) = {8.012059572891602, -1.403809831914511, 0};
Point(p16 + 27) = {8.186514149361104, -1.51071573386964, 0};
Point(p16 + 28) = {8.375544668085489, -1.589014738427702, 0};
Point(p16 + 29) = {8.574496570337438, -1.636778864236978, 0};
Point(p16 + 30) = {8.778471, -1.652832, 0};
Point(p16 + 31) = {8.982445429662562, -1.636778864236978, 0};
Point(p16 + 32) = {9.181397331914511, -1.589014738427702, 0};
Point(p16 + 33) = {9.370427850638896, -1.51071573386964, 0};
Point(p16 + 34) = {9.544882427108398, -1.403809831914511, 0};
Point(p16 + 35) = {9.700465410668794, -1.270929410668796, 0};
Point(p16 + 36) = {9.83334583191451, -1.115346427108399, 0};
Point(p16 + 37) = {9.940251733869641, -0.9408918506388961, 0};
Point(p16 + 38) = {10.0185507384277, -0.7518613319145111, 0};
Point(p16 + 39) = {10.06631486423698, -0.5529094296625622, 0};
Spline(16) = {12, p16 + 1, p16 + 2, p16 + 3, p16 + 4, p16 + 5, p16 + 6, p16 + 7, p16 + 8, p16 + 9, p16 + 10, p16 + 11, p16 + 12, p16 + 13, p16 + 14, p16 + 15, p16 + 16, p16 + 17, p16 + 18, p16 + 19, p16 + 20, p16 + 21, p16 + 22, p16 + 23, p16 + 24, p16 + 25, p16 + 26, p16 + 27, p16 + 28, p16 + 29, p16 + 30, p16 + 31, p16 + 32, p16 + 33, p16 + 34, p16 + 35, p16 + 36, p16 + 37, p16 + 38, p16 + 39, 12};
Line(17) = {11, 8};
Line(18) = {12, 9};
Curve Loop(1) = {-1, 4, 3, -2};
Plane Surface(1) = {1};
Curve Loop(2) = {-5, 1, 7, -6};
Plane Surface(2) = {2};
Curve Loop(3) = {-2, 7, 9, -8, -10, -11};
Plane Surface(3) = {3};
Curve Loop(4) = {-12, 3, 8, -13};
Plane Surface(4) = {4};
Curve Loop(5) = {-4, 5, 14, -12, -15, -16};
Plane Surface(5) = {5};
Curve Loop(6) = {-6, 14, 13, -9};
Plane Surface(6) = {6};
Curve Loop(7) = {-10, -17, 15, 17};
Surface(7) = {7};
Curve Loop(8) = {-11, -18, 16, 18};
Surface(8) = {8};
Surface Loop(1) = {1, 2, 3, 4, 5, 6, 7, 8};
Volume(1) = {1};
Physical Surface("INFLOW") = {1};
Physical Surface("OUTFLOW") = {6};
Physical Surface("OBSTACLE") = {7, 8};
Physical Surface("WALL_Y") = {2, 4};
Physical Surface("WALL_Z") = {3, 5};
Physical Volume("FLUID") = {1};
