cl__1 = 3.355155;
cl__2 = 0.845431;
cl__3 = 1.103639;
cl__4 = 0.059528;
cl__5 = 0.120845;
Point(1) = {0.01032, -4.483075, 1, cl__1};
Point(2) = {0.01032, -4.483075, 0, cl__1};
Point(3) = {0.01032, 4.749484, 1, cl__2};
Point(4) = {0.01032, 4.749484, 0, cl__2};
Point(5) = {33.23246, -4.483075, 0, cl__1};
Point(6) = {33.23246, -4.483075, 1, cl__1};
Point(7) = {33.23246, 4.749484, 1, cl__3};
Point(8) = {25.057829, -2.250662000000001, 1, cl__4};
Point(9) = {24.034249, 1.969637, 1, cl__5};
Point(10) = {33.23246, 4.749484, 0, cl__3};
Point(11) = {25.057829, -2.250662000000001, 0, cl__4};
Point(12) = {24.034249, 1.969637, 0, cl__5};
Line(1) = {2, 1};
Line(2) = {1, 3};
Line(3) = {4, 3};
Line(4) = {2, 4};
Line(5) = {2, 5};
Line(6) = {5, 6};
Line(7) = {1, 6};
Line(8) = {3, 7};
Line(9) = {6, 7};
p10 = newp;
Point(p10 + 1) = {25.05050012770113, -2.157539848085317, 1};
Point(p10 + 2) = {25.02869397196366, -2.066710672605476, 1};
Point(p10 + 3) = {24.99294747271233, -1.980410989305542, 1};
Point(p10 + 4) = {24.94414082739452, -1.900765782800589, 1};
Point(p10 + 5) = {24.88347581759795, -1.829736182402053, 1};
Point(p10 + 6) = {24.81244621719941, -1.769071172605476, 1};
Point(p10 + 7) = {24.73280101069446, -1.720264527287673, 1};
Point(p10 + 8) = {24.64650132739452, -1.684518028036337, 1};
Point(p10 + 9) = {24.55567215191468, -1.662711872298867, 1};
Point(p10 + 10) = {24.46255, -1.655383, 1};
Point(p10 + 11) = {24.36942784808532, -1.662711872298867, 1};
Point(p10 + 12) = {24.27859867260548, -1.684518028036337, 1};
Point(p10 + 13) = {24.19229898930554, -1.720264527287673, 1};
Point(p10 + 14) = {24.11265378280059, -1.769071172605476, 1};
Point(p10 + 15) = {24.04162418240205, -1.829736182402053, 1};
Point(p10 + 16) = {23.98095917260548, -1.900765782800589, 1};
Point(p10 + 17) = {23.93215252728767, -1.980410989305542, 1};
Point(p10 + 18) = {23.89640602803634, -2.066710672605476, 1};
Point(p10 + 19) = {23.87459987229887, -2.157539848085317, 1};
Point(p10 + 20) = {23.867271, -2.250662, 1};
Point(p10 + 21) = {23.87459987229887, -2.343784151914684, 1};
Point(p10 + 22) = {23.89640602803634, -2.434613327394525, 1};
Point(p10 + 23) = {23.93215252728767, -2.520913010694458, 1};
Point(p10 + 24) = {23.98095917260548, -2.600558217199411, 1};
Point(p10 + 25) = {24.04162418240205, -2.671587817597947, 1};
Point(p10 + 26) = {24.11265378280059, -2.732252827394524, 1};
Point(p10 + 27) = {24.19229898930554, -2.781059472712327, 1};
Point(p10 + 28) = {24.27859867260548, -2.816805971963663, 1};
Point(p10 + 29) = {24.36942784808532, -2.838612127701133, 1};
Point(p10 + 30) = {24.46255, -2.845941, 1};
Point(p10 + 31) = {24.55567215191468, -2.838612127701133, 1};
Point(p10 + 32) = {24.64650132739452, -2.816805971963663, 1};
Point(p10 + 33) = {24.73280101069446, -2.781059472712328, 1};
Point(p10 + 34) = {24.81244621719941, -2.732252827394524, 1};
Point(p10 + 35) = {24.88347581759795, -2.671587817597947, 1};
Point(p10 + 36) = {24.94414082739452, -2.600558217199411, 1};
Point(p10 + 37) = {24.99294747271233, -2.520913010694458, 1};
Point(p10 + 38) = {25.02869397196366, -2.434613327394525, 1};
Point(p10 + 39) = {25.05050012770113, -2.343784151914684, 1};
Spline(10) = {8, p10 + 1, p10 + 2, p10 + 3, p10 + 4, p10 + 5, p10 + 6, p10 + 7, p10 + 8, p10 + 9, p10 + 10, p10 + 11, p10 + 12, p10 + 13, p10 + 14, p10 + 15, p10 + 16, p10 + 17, p10 + 18, p10 + 19, p10 + 20, p10 + 21, p10 + 22, p10 + 23, p10 + 24, p10 + 25, p10 + 26, p10 + 27, p10 + 28, p10 + 29, p10 + 30, p10 + 31, p10 + 32, p10 + 33, p10 + 34, p10 + 35, p10 + 36, p10 + 37, p10 + 38, p10 + 39, 8};
p11 = newp;
Point(p11 + 1) = {24.01937093825722, 2.158680698581262, 1};
Point(p11 + 2) = {23.97510310028643, 2.343069513903389, 1};
Point(p11 + 3) = {23.90253550717501, 2.518263181381755, 1};
Point(p11 + 4) = {23.80345501390339, 2.679947851488596, 1};
Point(p11 + 5) = {23.68030131104523, 2.824142311045227, 1};
Point(p11 + 6) = {23.5361068514886, 2.947296013903388, 1};
Point(p11 + 7) = {23.37442218138175, 3.046376507175006, 1};
Point(p11 + 8) = {23.19922851390339, 3.118944100286427, 1};
Point(p11 + 9) = {23.01483969858126, 3.163211938257216, 1};
Point(p11 + 10) = {22.825796, 3.17809, 1};
Point(p11 + 11) = {22.63675230141874, 3.163211938257216, 1};
Point(p11 + 12) = {22.45236348609661, 3.118944100286427, 1};
Point(p11 + 13) = {22.27716981861825, 3.046376507175006, 1};
Point(p11 + 14) = {22.1154851485114, 2.947296013903388, 1};
Point(p11 + 15) = {21.97129068895477, 2.824142311045227, 1};
Point(p11 + 16) = {21.84813698609661, 2.679947851488596, 1};
Point(p11 + 17) = {21.74905649282499, 2.518263181381755, 1};
Point(p11 + 18) = {21.67648889971357, 2.343069513903389, 1};
Point(p11 + 19) = {21.63222106174278, 2.158680698581263, 1};
Point(p11 + 20) = {21.617343, 1.969637, 1};
Point(p11 + 21) = {21.63222106174278, 1.780593301418738, 1};
Point(p11 + 22) = {21.67648889971357, 1.596204486096611, 1};
Point(p11 + 23) = {21.74905649282499, 1.421010818618246, 1};
Point(p11 + 24) = {21.84813698609661, 1.259326148511404, 1};
Point(p11 + 25) = {21.97129068895477, 1.115131688954773, 1};
Point(p11 + 26) = {22.1154851485114, 0.9919779860966118, 1};
Point(p11 + 27) = {22.27716981861824, 0.8928974928249944, 1};
Point(p11 + 28) = {22.45236348609661, 0.8203298997135728, 1};
Point(p11 + 29) = {22.63675230141874, 0.7760620617427842, 1};
Point(p11 + 30) = {22.825796, 0.7611840000000001, 1};
Point(p11 + 31) = {23.01483969858126, 0.776062061742784, 1};
Point(p11 + 32) = {23.19922851390339, 0.8203298997135728, 1};
Point(p11 + 33) = {23.37442218138175, 0.8928974928249944, 1};
Point(p11 + 34) = {23.5361068514886, 0.9919779860966116, 1};
Point(p11 + 35) = {23.68030131104523, 1.115131688954773, 1};
Point(p11 + 36) = {23.80345501390339, 1.259326148511404, 1};
Point(p11 + 37) = {23.90253550717501, 1.421010818618245, 1};
Point(p11 + 38) = {23.97510310028643, 1.596204486096612, 1};
Point(p11 + 39) = {24.01937093825722, 1.780593301418738, 1};
Spline(11) = {9, p11 + 1, p11 + 2, p11 + 3, p11 + 4, p11 + 5, p11 + 6, p11 + 7, p11 + 8, p11 + 9, p11 + 10, p11 + 11, p11 + 12, p11 + 13, p11 + 14, p11 + 15, p11 + 16, p11 + 17, p11 + 18, p11 + 19, p11 + 20, p11 + 21, p11 + 22, p11 + 23, p11 + 24, p11 + 25, p11 + 26, p11 + 27, p11 + 28, p11 + 29, p11 + 30, p11 + 31, p11 + 32, p11 + 33, p11 + 34, p11 + 35, p11 + 36, p11 + 37, p11 + 38, p11 + 39, 9};
Line(12) = {4, 10};
Line(13) = {10, 7};
Line(14) = {5, 10};
p15 = newp;
Point(p15 + 1) = {25.05050012770113, -2.157539848085317, 0};
Point(p15 + 2) = {25.02869397196366, -2.066710672605476, 0};
Point(p15 + 3) = {24.99294747271233, -1.980410989305542, 0};
Point(p15 + 4) = {24.94414082739452, -1.900765782800589, 0};
Point(p15 + 5) = {24.88347581759795, -1.829736182402053, 0};
Point(p15 + 6) = {24.81244621719941, -1.769071172605476, 0};
Point(p15 + 7) = {24.73280101069446, -1.720264527287673, 0};
Point(p15 + 8) = {24.64650132739452, -1.684518028036337, 0};
Point(p15 + 9) = {24.55567215191468, -1.662711872298867, 0};
Point(p15 + 10) = {24.46255, -1.655383, 0};
Point(p15 + 11) = {24.36942784808532, -1.662711872298867, 0};
Point(p15 + 12) = {24.27859867260548, -1.684518028036337, 0};
Point(p15 + 13) = {24.19229898930554, -1.720264527287673, 0};
Point(p15 + 14) = {24.11265378280059, -1.769071172605476, 0};
Point(p15 + 15) = {24.04162418240205, -1.829736182402053, 0};
Point(p15 + 16) = {23.98095917260548, -1.900765782800589, 0};
Point(p15 + 17) = {23.93215252728767, -1.980410989305542, 0};
Point(p15 + 18) = {23.89640602803634, -2.066710672605476, 0};
Point(p15 + 19) = {23.87459987229887, -2.157539848085317, 0};
Point(p15 + 20) = {23.867271, -2.250662, 0};
Point(p15 + 21) = {23.87459987229887, -2.343784151914684, 0};
Point(p15 + 22) = {23.89640602803634, -2.434613327394525, 0};
Point(p15 + 23) = {23.93215252728767, -2.520913010694458, 0};
Point(p15 + 24) = {23.98095917260548, -2.600558217199411, 0};
Point(p15 + 25) = {24.04162418240205, -2.671587817597947, 0};
Point(p15 + 26) = {24.11265378280059, -2.732252827394524, 0};
Point(p15 + 27) = {24.19229898930554, -2.781059472712327, 0};
Point(p15 + 28) = {24.27859867260548, -2.816805971963663, 0};
Point(p15 + 29) = {24.36942784808532, -2.838612127701133, 0};
Point(p15 + 30) = {24.46255, -2.845941, 0};
Point(p15 + 31) = {24.55567215191468, -2.838612127701133, 0};
Point(p15 + 32) = {24.64650132739452, -2.816805971963663, 0};
Point(p15 + 33) = {24.73280101069446, -2.781059472712328, 0};
Point(p15 + 34) = {24.81244621719941, -2.732252827394524, 0};
Point(p15 + 35) = {24.88347581759795, -2.671587817597947, 0};
Point(p15 + 36) = {24.94414082739452, -2.600558217199411, 0};
Point(p15 + 37) = {24.99294747271233, -2.520913010694458, 0};
Point(p15 + 38) = {25.02869397196366, -2.434613327394525, 0};
Point(p15 + 39) = {25.05050012770113, -2.343784151914684, 0};
Spline(15) = {11, p15 + 1, p15 + 2, p15 + 3, p15 + 4, p15 + 5, p15 + 6, p15 + 7, p15 + 8, p15 + 9, p15 + 10, p15 + 11, p15 + 12, p15 + 13, p15 + 14, p15 + 15, p15 + 16, p15 + 17, p15 + 18, p15 + 19, p15 + 20, p15 + 21, p15 + 22, p15 + 23, p15 + 24, p15 + 25, p15 + 26, p15 + 27, p15 + 28, p15 + 29, p15 + 30, p15 + 31, p15 + 32, p15 + 33, p15 + 34, p15 + 35, p15 + 36, p15 + 37, p15 + 38, p15 + 39, 11};
p16 = newp;
Point(p16 + 1) = {24.01937093825722, 2.158680698581262, 0};
Point(p16 + 2) = {23.97510310028643, 2.343069513903389, 0};
Point(p16 + 3) = {23.90253550717501, 2.518263181381755, 0};
Point(p16 + 4) = {23.80345501390339, 2.679947851488596, 0};
Point(p16 + 5) = {23.68030131104523, 2.824142311045227, 0};
Point(p16 + 6) = {23.5361068514886, 2.947296013903388, 0};
Point(p16 + 7) = {23.37442218138175, 3.046376507175006, 0};
Point(p16 + 8) = {23.19922851390339, 3.118944100286427, 0};
Point(p16 + 9) = {23.01483969858126, 3.163211938257216, 0};
Point(p16 + 10) = {22.825796, 3.17809, 0};
Point(p16 + 11) = {22.63675230141874, 3.163211938257216, 0};
Point(p16 + 12) = {22.45236348609661, 3.118944100286427, 0};
Point(p16 + 13) = {22.27716981861825, 3.046376507175006, 0};
Point(p16 + 14) = {22.1154851485114, 2.947296013903388, 0};
Point(p16 + 15) = {21.97129068895477, 2.824142311045227, 0};
Point(p16 + 16) = {21.84813698609661, 2.679947851488596, 0};
Point(p16 + 17) = {21.74905649282499, 2.518263181381755, 0};
Point(p16 + 18) = {21.67648889971357, 2.343069513903389, 0};
Point(p16 + 19) = {21.63222106174278, 2.158680698581263, 0};
Point(p16 + 20) = {21.617343, 1.969637, 0};
Point(p16 + 21) = {21.63222106174278, 1.780593301418738, 0};
Point(p16 + 22) = {21.67648889971357, 1.596204486096611, 0};
Point(p16 + 23) = {21.74905649282499, 1.421010818618246, 0};
Point(p16 + 24) = {21.84813698609661, 1.259326148511404, 0};
Point(p16 + 25) = {21.97129068895477, 1.115131688954773, 0};
Point(p16 + 26) = {22.1154851485114, 0.9919779860966118, 0};
Point(p16 + 27) = {22.27716981861824, 0.8928974928249944, 0};
Point(p16 + 28) = {22.45236348609661, 0.8203298997135728, 0};
Point(p16 + 29) = {22.63675230141874, 0.7760620617427842, 0};
Point(p16 + 30) = {22.825796, 0.7611840000000001, 0};
Point(p16 + 31) = {23.01483969858126, 0.776062061742784, 0};
Point(p16 + 32) = {23.19922851390339, 0.8203298997135728, 0};
Point(p16 + 33) = {23.37442218138175, 0.8928974928249944, 0};
Point(p16 + 34) = {23.5361068514886, 0.9919779860966116, 0};
Point(p16 + 35) = {23.68030131104523, 1.115131688954773, 0};
Point(p16 + 36) = {23.80345501390339, 1.259326148511404, 0};
Point(p16 + 37) = {23.90253550717501, 1.421010818618245, 0};
Point(p16 + 38) = {23.97510310028643, 1.596204486096612, 0};
Point(p16 + 39) = {24.01937093825722, 1.780593301418738, 0};
Spline(16) = {12, p16 + 1, p16 + 2, p16 + 3, p16 + 4, p16 + 5, p16 + 6, p16 + 7, p16 + 8, p16 + 9, p16 + 10, p16 + 11, p16 + 12, p16 + 13, p16 + 14, p16 + 15, p16 + 16, p16 + 17, p16 + 18, p16 + 19, p16 + 20, p16 + 21, p16 + 22, p16 + 23, p16 + 24, p16 + 25, p16 + 26, p16 + 27, p16 + 28, p16 + 29, p16 + 30, p16 + 31, p16 + 32, p16 + 33, p16 + 34, p16 + 35, p16 + 36, p16 + 37, p16 + 38, p16 + 39, 12};
Line(17) = {11, 8};
Line(18) = {12, 9};
Curve Loop(1) = {-1, 4, 3, -2};
Plane Surface(1) = {1};
Curve Loop(2) = {-5, 1, 7, -6};
Plane Surface(2) = {2};
Curve Loop(3) = {-2, 7, 9, -8, -10, -11};
Plane Surface(3) = {3};
Curve Loop(4) = {-12, 3, 8, -13};
Plane Surface(4) = {4};
Curve Loop(5) = {-4, 5, 14, -12, -15, -16};
Plane Surface(5) = {5};
Curve Loop(6) = {-6, 14, 13, -9};
Plane Surface(6) = {6};
Curve Loop(7) = {-10, -17, 15, 17};
Surface(7) = {7};
Curve Loop(8) = {-11, -18, 16, 18};
Surface(8) = {8};
Surface Loop(1) = {1, 2, 3, 4, 5, 6, 7, 8};
Volume(1) = {1};
Physical Surface("INFLOW") = {1};
Physical Surface("OUTFLOW") = {6};
Physical Surface("OBSTACLE") = {7, 8};
Physical Surface("WALL_Y") = {2, 4};
Physical Surface("WALL_Z") = {3, 5};
Physical Volume("FLUID") = {1};
