cl__1 = 1.183036;
cl__2 = 1.036995;
cl__3 = 3.224937;
cl__4 = 0.105165;
Point(1) = {0.508756, -3.802234, 1, cl__1};
Point(2) = {0.508756, -3.802234, 0, cl__1};
Point(3) = {0.508756, 4.044957999999999, 1, cl__2};
Point(4) = {0.508756, 4.044957999999999, 0, cl__2};
Point(5) = {32.009804, -3.802234, 0, cl__3};
Point(6) = {32.009804, -3.802234, 1, cl__3};
Point(7) = {32.009804, 4.044957999999999, 1, cl__3};
Point(8) = {12.860421, 2.382892, 1, cl__4};
Point(9) = {32.009804, 4.044957999999999, 0, cl__3};
Point(10) = {12.860421, 2.382892, 0, cl__4};
Line(1) = {2, 1};
Line(2) = {1, 3};
Line(3) = {4, 3};
Line(4) = {2, 4};
Line(5) = {2, 5};
Line(6) = {5, 6};
Line(7) = {1, 6};
Line(8) = {3, 7};
Line(9) = {6, 7};
p10 = newp;
Point(p10 + 1) = {12.84747348032185, 2.547405835856164, 1};
Point(p10 + 2) = {12.80894973219225, 2.70786879508343, 1};
Point(p10 + 3) = {12.74579833814312, 2.860329747079595, 1};
Point(p10 + 4) = {12.65957429508343, 3.001034597217623, 1};
Point(p10 + 5) = {12.55240072511449, 3.126518725114489, 1};
Point(p10 + 6) = {12.42691659721762, 3.23369229508343, 1};
Point(p10 + 7) = {12.28621174707959, 3.319916338143124, 1};
Point(p10 + 8) = {12.13375079508343, 3.38306773219225, 1};
Point(p10 + 9) = {11.97328783585616, 3.421591480321855, 1};
Point(p10 + 10) = {11.808774, 3.434539, 1};
Point(p10 + 11) = {11.64426016414384, 3.421591480321855, 1};
Point(p10 + 12) = {11.48379720491657, 3.38306773219225, 1};
Point(p10 + 13) = {11.3313362529204, 3.319916338143125, 1};
Point(p10 + 14) = {11.19063140278238, 3.23369229508343, 1};
Point(p10 + 15) = {11.06514727488551, 3.126518725114489, 1};
Point(p10 + 16) = {10.95797370491657, 3.001034597217623, 1};
Point(p10 + 17) = {10.87174966185687, 2.860329747079595, 1};
Point(p10 + 18) = {10.80859826780775, 2.707868795083431, 1};
Point(p10 + 19) = {10.77007451967815, 2.547405835856164, 1};
Point(p10 + 20) = {10.757127, 2.382892, 1};
Point(p10 + 21) = {10.77007451967815, 2.218378164143837, 1};
Point(p10 + 22) = {10.80859826780775, 2.057915204916569, 1};
Point(p10 + 23) = {10.87174966185687, 1.905454252920405, 1};
Point(p10 + 24) = {10.95797370491657, 1.764749402782378, 1};
Point(p10 + 25) = {11.06514727488551, 1.639265274885511, 1};
Point(p10 + 26) = {11.19063140278238, 1.53209170491657, 1};
Point(p10 + 27) = {11.3313362529204, 1.445867661856876, 1};
Point(p10 + 28) = {11.48379720491657, 1.382716267807751, 1};
Point(p10 + 29) = {11.64426016414384, 1.344192519678145, 1};
Point(p10 + 30) = {11.808774, 1.331245, 1};
Point(p10 + 31) = {11.97328783585616, 1.344192519678145, 1};
Point(p10 + 32) = {12.13375079508343, 1.38271626780775, 1};
Point(p10 + 33) = {12.28621174707959, 1.445867661856875, 1};
Point(p10 + 34) = {12.42691659721762, 1.532091704916569, 1};
Point(p10 + 35) = {12.55240072511449, 1.639265274885511, 1};
Point(p10 + 36) = {12.65957429508343, 1.764749402782377, 1};
Point(p10 + 37) = {12.74579833814312, 1.905454252920405, 1};
Point(p10 + 38) = {12.80894973219225, 2.057915204916569, 1};
Point(p10 + 39) = {12.84747348032185, 2.218378164143836, 1};
Spline(10) = {8, p10 + 1, p10 + 2, p10 + 3, p10 + 4, p10 + 5, p10 + 6, p10 + 7, p10 + 8, p10 + 9, p10 + 10, p10 + 11, p10 + 12, p10 + 13, p10 + 14, p10 + 15, p10 + 16, p10 + 17, p10 + 18, p10 + 19, p10 + 20, p10 + 21, p10 + 22, p10 + 23, p10 + 24, p10 + 25, p10 + 26, p10 + 27, p10 + 28, p10 + 29, p10 + 30, p10 + 31, p10 + 32, p10 + 33, p10 + 34, p10 + 35, p10 + 36, p10 + 37, p10 + 38, p10 + 39, 8};
Line(11) = {4, 9};
Line(12) = {9, 7};
Line(13) = {5, 9};
p14 = newp;
Point(p14 + 1) = {12.84747348032185, 2.547405835856164, 0};
Point(p14 + 2) = {12.80894973219225, 2.70786879508343, 0};
Point(p14 + 3) = {12.74579833814312, 2.860329747079595, 0};
Point(p14 + 4) = {12.65957429508343, 3.001034597217623, 0};
Point(p14 + 5) = {12.55240072511449, 3.126518725114489, 0};
Point(p14 + 6) = {12.42691659721762, 3.23369229508343, 0};
Point(p14 + 7) = {12.28621174707959, 3.319916338143124, 0};
Point(p14 + 8) = {12.13375079508343, 3.38306773219225, 0};
Point(p14 + 9) = {11.97328783585616, 3.421591480321855, 0};
Point(p14 + 10) = {11.808774, 3.434539, 0};
Point(p14 + 11) = {11.64426016414384, 3.421591480321855, 0};
Point(p14 + 12) = {11.48379720491657, 3.38306773219225, 0};
Point(p14 + 13) = {11.3313362529204, 3.319916338143125, 0};
Point(p14 + 14) = {11.19063140278238, 3.23369229508343, 0};
Point(p14 + 15) = {11.06514727488551, 3.126518725114489, 0};
Point(p14 + 16) = {10.95797370491657, 3.001034597217623, 0};
Point(p14 + 17) = {10.87174966185687, 2.860329747079595, 0};
Point(p14 + 18) = {10.80859826780775, 2.707868795083431, 0};
Point(p14 + 19) = {10.77007451967815, 2.547405835856164, 0};
Point(p14 + 20) = {10.757127, 2.382892, 0};
Point(p14 + 21) = {10.77007451967815, 2.218378164143837, 0};
Point(p14 + 22) = {10.80859826780775, 2.057915204916569, 0};
Point(p14 + 23) = {10.87174966185687, 1.905454252920405, 0};
Point(p14 + 24) = {10.95797370491657, 1.764749402782378, 0};
Point(p14 + 25) = {11.06514727488551, 1.639265274885511, 0};
Point(p14 + 26) = {11.19063140278238, 1.53209170491657, 0};
Point(p14 + 27) = {11.3313362529204, 1.445867661856876, 0};
Point(p14 + 28) = {11.48379720491657, 1.382716267807751, 0};
Point(p14 + 29) = {11.64426016414384, 1.344192519678145, 0};
Point(p14 + 30) = {11.808774, 1.331245, 0};
Point(p14 + 31) = {11.97328783585616, 1.344192519678145, 0};
Point(p14 + 32) = {12.13375079508343, 1.38271626780775, 0};
Point(p14 + 33) = {12.28621174707959, 1.445867661856875, 0};
Point(p14 + 34) = {12.42691659721762, 1.532091704916569, 0};
Point(p14 + 35) = {12.55240072511449, 1.639265274885511, 0};
Point(p14 + 36) = {12.65957429508343, 1.764749402782377, 0};
Point(p14 + 37) = {12.74579833814312, 1.905454252920405, 0};
Point(p14 + 38) = {12.80894973219225, 2.057915204916569, 0};
Point(p14 + 39) = {12.84747348032185, 2.218378164143836, 0};
Spline(14) = {10, p14 + 1, p14 + 2, p14 + 3, p14 + 4, p14 + 5, p14 + 6, p14 + 7, p14 + 8, p14 + 9, p14 + 10, p14 + 11, p14 + 12, p14 + 13, p14 + 14, p14 + 15, p14 + 16, p14 + 17, p14 + 18, p14 + 19, p14 + 20, p14 + 21, p14 + 22, p14 + 23, p14 + 24, p14 + 25, p14 + 26, p14 + 27, p14 + 28, p14 + 29, p14 + 30, p14 + 31, p14 + 32, p14 + 33, p14 + 34, p14 + 35, p14 + 36, p14 + 37, p14 + 38, p14 + 39, 10};
Line(15) = {10, 8};
Curve Loop(1) = {-1, 4, 3, -2};
Plane Surface(1) = {1};
Curve Loop(2) = {-5, 1, 7, -6};
Plane Surface(2) = {2};
Curve Loop(3) = {-2, 7, 9, -8, -10};
Plane Surface(3) = {3};
Curve Loop(4) = {-11, 3, 8, -12};
Plane Surface(4) = {4};
Curve Loop(5) = {-4, 5, 13, -11, -14};
Plane Surface(5) = {5};
Curve Loop(6) = {-6, 13, 12, -9};
Plane Surface(6) = {6};
Curve Loop(7) = {-10, -15, 14, 15};
Surface(7) = {7};
Surface Loop(1) = {1, 2, 3, 4, 5, 6, 7};
Volume(1) = {1};
Physical Surface("INFLOW") = {1};
Physical Surface("OUTFLOW") = {6};
Physical Surface("OBSTACLE") = {7};
Physical Surface("WALL_Y") = {2, 4};
Physical Surface("WALL_Z") = {3, 5};
Physical Volume("FLUID") = {1};
