cl__1 = 3.514882;
cl__2 = 1.334109;
cl__3 = 1.670858;
cl__4 = 0.131669;
cl__5 = 0.102831;
Point(1) = {0.290775, -4.001303, 1, cl__1};
Point(2) = {0.290775, -4.001303, 0, cl__1};
Point(3) = {0.290775, 4.976295, 1, cl__2};
Point(4) = {0.290775, 4.976295, 0, cl__2};
Point(5) = {34.86100999999999, -4.001303, 0, cl__3};
Point(6) = {34.86100999999999, -4.001303, 1, cl__3};
Point(7) = {34.86100999999999, 4.976295, 1, cl__2};
Point(8) = {22.634032, 1.604009, 1, cl__4};
Point(9) = {18.037048, 1.923812, 1, cl__5};
Point(10) = {34.86100999999999, 4.976295, 0, cl__2};
Point(11) = {22.634032, 1.604009, 0, cl__4};
Point(12) = {18.037048, 1.923812, 0, cl__5};
Line(1) = {2, 1};
Line(2) = {1, 3};
Line(3) = {4, 3};
Line(4) = {2, 4};
Line(5) = {2, 5};
Line(6) = {5, 6};
Line(7) = {1, 6};
Line(8) = {3, 7};
Line(9) = {6, 7};
p10 = newp;
Point(p10 + 1) = {22.61782137348987, 1.809984539339357, 1};
Point(p10 + 2) = {22.56958865338415, 2.010888277306555, 1};
Point(p10 + 3) = {22.49052148932706, 2.201773297111564, 1};
Point(p10 + 4) = {22.38256677730656, 2.377939376055724, 1};
Point(p10 + 5) = {22.24838272061373, 2.535048720613734, 1};
Point(p10 + 6) = {22.09127337605572, 2.669232777306555, 1};
Point(p10 + 7) = {21.91510729711156, 2.777187489327058, 1};
Point(p10 + 8) = {21.72422227730656, 2.856254653384149, 1};
Point(p10 + 9) = {21.52331853933936, 2.904487373489872, 1};
Point(p10 + 10) = {21.317343, 2.920698, 1};
Point(p10 + 11) = {21.11136746066065, 2.904487373489872, 1};
Point(p10 + 12) = {20.91046372269345, 2.856254653384149, 1};
Point(p10 + 13) = {20.71957870288844, 2.777187489327058, 1};
Point(p10 + 14) = {20.54341262394428, 2.669232777306555, 1};
Point(p10 + 15) = {20.38630327938627, 2.535048720613734, 1};
Point(p10 + 16) = {20.25211922269344, 2.377939376055724, 1};
Point(p10 + 17) = {20.14416451067294, 2.201773297111564, 1};
Point(p10 + 18) = {20.06509734661585, 2.010888277306555, 1};
Point(p10 + 19) = {20.01686462651013, 1.809984539339357, 1};
Point(p10 + 20) = {20.000654, 1.604009, 1};
Point(p10 + 21) = {20.01686462651013, 1.398033460660644, 1};
Point(p10 + 22) = {20.06509734661585, 1.197129722693445, 1};
Point(p10 + 23) = {20.14416451067294, 1.006244702888436, 1};
Point(p10 + 24) = {20.25211922269344, 0.830078623944276, 1};
Point(p10 + 25) = {20.38630327938627, 0.6729692793862661, 1};
Point(p10 + 26) = {20.54341262394428, 0.5387852226934451, 1};
Point(p10 + 27) = {20.71957870288844, 0.4308305106729422, 1};
Point(p10 + 28) = {20.91046372269345, 0.3517633466158505, 1};
Point(p10 + 29) = {21.11136746066065, 0.3035306265101287, 1};
Point(p10 + 30) = {21.317343, 0.28732, 1};
Point(p10 + 31) = {21.52331853933936, 0.3035306265101287, 1};
Point(p10 + 32) = {21.72422227730656, 0.3517633466158505, 1};
Point(p10 + 33) = {21.91510729711156, 0.430830510672942, 1};
Point(p10 + 34) = {22.09127337605572, 0.5387852226934446, 1};
Point(p10 + 35) = {22.24838272061373, 0.6729692793862657, 1};
Point(p10 + 36) = {22.38256677730656, 0.8300786239442756, 1};
Point(p10 + 37) = {22.49052148932706, 1.006244702888436, 1};
Point(p10 + 38) = {22.56958865338415, 1.197129722693445, 1};
Point(p10 + 39) = {22.61782137348987, 1.398033460660643, 1};
Spline(10) = {8, p10 + 1, p10 + 2, p10 + 3, p10 + 4, p10 + 5, p10 + 6, p10 + 7, p10 + 8, p10 + 9, p10 + 10, p10 + 11, p10 + 12, p10 + 13, p10 + 14, p10 + 15, p10 + 16, p10 + 17, p10 + 18, p10 + 19, p10 + 20, p10 + 21, p10 + 22, p10 + 23, p10 + 24, p10 + 25, p10 + 26, p10 + 27, p10 + 28, p10 + 29, p10 + 30, p10 + 31, p10 + 32, p10 + 33, p10 + 34, p10 + 35, p10 + 36, p10 + 37, p10 + 38, p10 + 39, 8};
p11 = newp;
Point(p11 + 1) = {18.02438780982904, 2.084674968311055, 1};
Point(p11 + 2) = {17.98671897521495, 2.241576956468708, 1};
Point(p11 + 3) = {17.92496902788162, 2.390654516796674, 1};
Point(p11 + 4) = {17.84065845646871, 2.528236864999621, 1};
Point(p11 + 5) = {17.73586326705516, 2.650936267055157, 1};
Point(p11 + 6) = {17.61316386499962, 2.755731456468708, 1};
Point(p11 + 7) = {17.47558151679667, 2.840042027881617, 1};
Point(p11 + 8) = {17.32650395646871, 2.901791975214953, 1};
Point(p11 + 9) = {17.16960196831105, 2.939460809829046, 1};
Point(p11 + 10) = {17.008739, 2.952121, 1};
Point(p11 + 11) = {16.84787603168894, 2.939460809829045, 1};
Point(p11 + 12) = {16.69097404353129, 2.901791975214953, 1};
Point(p11 + 13) = {16.54189648320332, 2.840042027881617, 1};
Point(p11 + 14) = {16.40431413500038, 2.755731456468708, 1};
Point(p11 + 15) = {16.28161473294484, 2.650936267055158, 1};
Point(p11 + 16) = {16.17681954353129, 2.528236864999621, 1};
Point(p11 + 17) = {16.09250897211838, 2.390654516796674, 1};
Point(p11 + 18) = {16.03075902478504, 2.241576956468708, 1};
Point(p11 + 19) = {15.99309019017095, 2.084674968311055, 1};
Point(p11 + 20) = {15.98043, 1.923812, 1};
Point(p11 + 21) = {15.99309019017095, 1.762949031688946, 1};
Point(p11 + 22) = {16.03075902478504, 1.606047043531292, 1};
Point(p11 + 23) = {16.09250897211838, 1.456969483203327, 1};
Point(p11 + 24) = {16.17681954353129, 1.31938713500038, 1};
Point(p11 + 25) = {16.28161473294484, 1.196687732944843, 1};
Point(p11 + 26) = {16.40431413500038, 1.091892543531293, 1};
Point(p11 + 27) = {16.54189648320332, 1.007581972118384, 1};
Point(p11 + 28) = {16.69097404353129, 0.9458320247850471, 1};
Point(p11 + 29) = {16.84787603168894, 0.9081631901709548, 1};
Point(p11 + 30) = {17.008739, 0.8955030000000002, 1};
Point(p11 + 31) = {17.16960196831105, 0.9081631901709546, 1};
Point(p11 + 32) = {17.32650395646871, 0.945832024785047, 1};
Point(p11 + 33) = {17.47558151679667, 1.007581972118384, 1};
Point(p11 + 34) = {17.61316386499962, 1.091892543531292, 1};
Point(p11 + 35) = {17.73586326705516, 1.196687732944842, 1};
Point(p11 + 36) = {17.84065845646871, 1.319387135000379, 1};
Point(p11 + 37) = {17.92496902788162, 1.456969483203326, 1};
Point(p11 + 38) = {17.98671897521495, 1.606047043531292, 1};
Point(p11 + 39) = {18.02438780982904, 1.762949031688945, 1};
Spline(11) = {9, p11 + 1, p11 + 2, p11 + 3, p11 + 4, p11 + 5, p11 + 6, p11 + 7, p11 + 8, p11 + 9, p11 + 10, p11 + 11, p11 + 12, p11 + 13, p11 + 14, p11 + 15, p11 + 16, p11 + 17, p11 + 18, p11 + 19, p11 + 20, p11 + 21, p11 + 22, p11 + 23, p11 + 24, p11 + 25, p11 + 26, p11 + 27, p11 + 28, p11 + 29, p11 + 30, p11 + 31, p11 + 32, p11 + 33, p11 + 34, p11 + 35, p11 + 36, p11 + 37, p11 + 38, p11 + 39, 9};
Line(12) = {4, 10};
Line(13) = {10, 7};
Line(14) = {5, 10};
p15 = newp;
Point(p15 + 1) = {22.61782137348987, 1.809984539339357, 0};
Point(p15 + 2) = {22.56958865338415, 2.010888277306555, 0};
Point(p15 + 3) = {22.49052148932706, 2.201773297111564, 0};
Point(p15 + 4) = {22.38256677730656, 2.377939376055724, 0};
Point(p15 + 5) = {22.24838272061373, 2.535048720613734, 0};
Point(p15 + 6) = {22.09127337605572, 2.669232777306555, 0};
Point(p15 + 7) = {21.91510729711156, 2.777187489327058, 0};
Point(p15 + 8) = {21.72422227730656, 2.856254653384149, 0};
Point(p15 + 9) = {21.52331853933936, 2.904487373489872, 0};
Point(p15 + 10) = {21.317343, 2.920698, 0};
Point(p15 + 11) = {21.11136746066065, 2.904487373489872, 0};
Point(p15 + 12) = {20.91046372269345, 2.856254653384149, 0};
Point(p15 + 13) = {20.71957870288844, 2.777187489327058, 0};
Point(p15 + 14) = {20.54341262394428, 2.669232777306555, 0};
Point(p15 + 15) = {20.38630327938627, 2.535048720613734, 0};
Point(p15 + 16) = {20.25211922269344, 2.377939376055724, 0};
Point(p15 + 17) = {20.14416451067294, 2.201773297111564, 0};
Point(p15 + 18) = {20.06509734661585, 2.010888277306555, 0};
Point(p15 + 19) = {20.01686462651013, 1.809984539339357, 0};
Point(p15 + 20) = {20.000654, 1.604009, 0};
Point(p15 + 21) = {20.01686462651013, 1.398033460660644, 0};
Point(p15 + 22) = {20.06509734661585, 1.197129722693445, 0};
Point(p15 + 23) = {20.14416451067294, 1.006244702888436, 0};
Point(p15 + 24) = {20.25211922269344, 0.830078623944276, 0};
Point(p15 + 25) = {20.38630327938627, 0.6729692793862661, 0};
Point(p15 + 26) = {20.54341262394428, 0.5387852226934451, 0};
Point(p15 + 27) = {20.71957870288844, 0.4308305106729422, 0};
Point(p15 + 28) = {20.91046372269345, 0.3517633466158505, 0};
Point(p15 + 29) = {21.11136746066065, 0.3035306265101287, 0};
Point(p15 + 30) = {21.317343, 0.28732, 0};
Point(p15 + 31) = {21.52331853933936, 0.3035306265101287, 0};
Point(p15 + 32) = {21.72422227730656, 0.3517633466158505, 0};
Point(p15 + 33) = {21.91510729711156, 0.430830510672942, 0};
Point(p15 + 34) = {22.09127337605572, 0.5387852226934446, 0};
Point(p15 + 35) = {22.24838272061373, 0.6729692793862657, 0};
Point(p15 + 36) = {22.38256677730656, 0.8300786239442756, 0};
Point(p15 + 37) = {22.49052148932706, 1.006244702888436, 0};
Point(p15 + 38) = {22.56958865338415, 1.197129722693445, 0};
Point(p15 + 39) = {22.61782137348987, 1.398033460660643, 0};
Spline(15) = {11, p15 + 1, p15 + 2, p15 + 3, p15 + 4, p15 + 5, p15 + 6, p15 + 7, p15 + 8, p15 + 9, p15 + 10, p15 + 11, p15 + 12, p15 + 13, p15 + 14, p15 + 15, p15 + 16, p15 + 17, p15 + 18, p15 + 19, p15 + 20, p15 + 21, p15 + 22, p15 + 23, p15 + 24, p15 + 25, p15 + 26, p15 + 27, p15 + 28, p15 + 29, p15 + 30, p15 + 31, p15 + 32, p15 + 33, p15 + 34, p15 + 35, p15 + 36, p15 + 37, p15 + 38, p15 + 39, 11};
p16 = newp;
Point(p16 + 1) = {18.02438780982904, 2.084674968311055, 0};
Point(p16 + 2) = {17.98671897521495, 2.241576956468708, 0};
Point(p16 + 3) = {17.92496902788162, 2.390654516796674, 0};
Point(p16 + 4) = {17.84065845646871, 2.528236864999621, 0};
Point(p16 + 5) = {17.73586326705516, 2.650936267055157, 0};
Point(p16 + 6) = {17.61316386499962, 2.755731456468708, 0};
Point(p16 + 7) = {17.47558151679667, 2.840042027881617, 0};
Point(p16 + 8) = {17.32650395646871, 2.901791975214953, 0};
Point(p16 + 9) = {17.16960196831105, 2.939460809829046, 0};
Point(p16 + 10) = {17.008739, 2.952121, 0};
Point(p16 + 11) = {16.84787603168894, 2.939460809829045, 0};
Point(p16 + 12) = {16.69097404353129, 2.901791975214953, 0};
Point(p16 + 13) = {16.54189648320332, 2.840042027881617, 0};
Point(p16 + 14) = {16.40431413500038, 2.755731456468708, 0};
Point(p16 + 15) = {16.28161473294484, 2.650936267055158, 0};
Point(p16 + 16) = {16.17681954353129, 2.528236864999621, 0};
Point(p16 + 17) = {16.09250897211838, 2.390654516796674, 0};
Point(p16 + 18) = {16.03075902478504, 2.241576956468708, 0};
Point(p16 + 19) = {15.99309019017095, 2.084674968311055, 0};
Point(p16 + 20) = {15.98043, 1.923812, 0};
Point(p16 + 21) = {15.99309019017095, 1.762949031688946, 0};
Point(p16 + 22) = {16.03075902478504, 1.606047043531292, 0};
Point(p16 + 23) = {16.09250897211838, 1.456969483203327, 0};
Point(p16 + 24) = {16.17681954353129, 1.31938713500038, 0};
Point(p16 + 25) = {16.28161473294484, 1.196687732944843, 0};
Point(p16 + 26) = {16.40431413500038, 1.091892543531293, 0};
Point(p16 + 27) = {16.54189648320332, 1.007581972118384, 0};
Point(p16 + 28) = {16.69097404353129, 0.9458320247850471, 0};
Point(p16 + 29) = {16.84787603168894, 0.9081631901709548, 0};
Point(p16 + 30) = {17.008739, 0.8955030000000002, 0};
Point(p16 + 31) = {17.16960196831105, 0.9081631901709546, 0};
Point(p16 + 32) = {17.32650395646871, 0.945832024785047, 0};
Point(p16 + 33) = {17.47558151679667, 1.007581972118384, 0};
Point(p16 + 34) = {17.61316386499962, 1.091892543531292, 0};
Point(p16 + 35) = {17.73586326705516, 1.196687732944842, 0};
Point(p16 + 36) = {17.84065845646871, 1.319387135000379, 0};
Point(p16 + 37) = {17.92496902788162, 1.456969483203326, 0};
Point(p16 + 38) = {17.98671897521495, 1.606047043531292, 0};
Point(p16 + 39) = {18.02438780982904, 1.762949031688945, 0};
Spline(16) = {12, p16 + 1, p16 + 2, p16 + 3, p16 + 4, p16 + 5, p16 + 6, p16 + 7, p16 + 8, p16 + 9, p16 + 10, p16 + 11, p16 + 12, p16 + 13, p16 + 14, p16 + 15, p16 + 16, p16 + 17, p16 + 18, p16 + 19, p16 + 20, p16 + 21, p16 + 22, p16 + 23, p16 + 24, p16 + 25, p16 + 26, p16 + 27, p16 + 28, p16 + 29, p16 + 30, p16 + 31, p16 + 32, p16 + 33, p16 + 34, p16 + 35, p16 + 36, p16 + 37, p16 + 38, p16 + 39, 12};
Line(17) = {11, 8};
Line(18) = {12, 9};
Curve Loop(1) = {-1, 4, 3, -2};
Plane Surface(1) = {1};
Curve Loop(2) = {-5, 1, 7, -6};
Plane Surface(2) = {2};
Curve Loop(3) = {-2, 7, 9, -8, -10, -11};
Plane Surface(3) = {3};
Curve Loop(4) = {-12, 3, 8, -13};
Plane Surface(4) = {4};
Curve Loop(5) = {-4, 5, 14, -12, -15, -16};
Plane Surface(5) = {5};
Curve Loop(6) = {-6, 14, 13, -9};
Plane Surface(6) = {6};
Curve Loop(7) = {-10, -17, 15, 17};
Surface(7) = {7};
Curve Loop(8) = {-11, -18, 16, 18};
Surface(8) = {8};
Surface Loop(1) = {1, 2, 3, 4, 5, 6, 7, 8};
Volume(1) = {1};
Physical Surface("INFLOW") = {1};
Physical Surface("OUTFLOW") = {6};
Physical Surface("OBSTACLE") = {7, 8};
Physical Surface("WALL_Y") = {2, 4};
Physical Surface("WALL_Z") = {3, 5};
Physical Volume("FLUID") = {1};
