cl__1 = 1.747322;
cl__2 = 1.66828;
cl__3 = 1.772797;
cl__4 = 1.694892;
cl__5 = 0.077972;
Point(1) = {0.570282, -3.647259, 1, cl__1};
Point(2) = {0.570282, -3.647259, 0, cl__1};
Point(3) = {0.570282, 4.03657, 1, cl__2};
Point(4) = {0.570282, 4.03657, 0, cl__2};
Point(5) = {35.53223, -3.647259, 0, cl__3};
Point(6) = {35.53223, -3.647259, 1, cl__3};
Point(7) = {35.53223, 4.03657, 1, cl__4};
Point(8) = {18.697044, 2.031636, 1, cl__5};
Point(9) = {35.53223, 4.03657, 0, cl__4};
Point(10) = {18.697044, 2.031636, 0, cl__5};
Line(1) = {2, 1};
Line(2) = {1, 3};
Line(3) = {4, 3};
Line(4) = {2, 4};
Line(5) = {2, 5};
Line(6) = {5, 6};
Line(7) = {1, 6};
Line(8) = {3, 7};
Line(9) = {6, 7};
p10 = newp;
Point(p10 + 1) = {18.68744434061718, 2.153611237515634, 1};
Point(p10 + 2) = {18.65888173794217, 2.272583039871029, 1};
Point(p10 + 3) = {18.61205949804668, 2.385621926447419, 1};
Point(p10 + 4) = {18.54813053987103, 2.48994450470274, 1};
Point(p10 + 5) = {18.46866900653356, 2.582982006533556, 1};
Point(p10 + 6) = {18.37563150470274, 2.662443539871028, 1};
Point(p10 + 7) = {18.27130892644742, 2.726372498046679, 1};
Point(p10 + 8) = {18.15827003987103, 2.773194737942174, 1};
Point(p10 + 9) = {18.03929823751563, 2.801757340617182, 1};
Point(p10 + 10) = {17.917323, 2.811357, 1};
Point(p10 + 11) = {17.79534776248437, 2.801757340617181, 1};
Point(p10 + 12) = {17.67637596012897, 2.773194737942174, 1};
Point(p10 + 13) = {17.56333707355258, 2.726372498046679, 1};
Point(p10 + 14) = {17.45901449529726, 2.662443539871028, 1};
Point(p10 + 15) = {17.36597699346644, 2.582982006533556, 1};
Point(p10 + 16) = {17.28651546012897, 2.48994450470274, 1};
Point(p10 + 17) = {17.22258650195332, 2.38562192644742, 1};
Point(p10 + 18) = {17.17576426205783, 2.272583039871029, 1};
Point(p10 + 19) = {17.14720165938282, 2.153611237515634, 1};
Point(p10 + 20) = {17.137602, 2.031636, 1};
Point(p10 + 21) = {17.14720165938282, 1.909660762484366, 1};
Point(p10 + 22) = {17.17576426205783, 1.790688960128972, 1};
Point(p10 + 23) = {17.22258650195332, 1.677650073552581, 1};
Point(p10 + 24) = {17.28651546012897, 1.573327495297261, 1};
Point(p10 + 25) = {17.36597699346644, 1.480289993466444, 1};
Point(p10 + 26) = {17.45901449529726, 1.400828460128972, 1};
Point(p10 + 27) = {17.56333707355258, 1.336899501953322, 1};
Point(p10 + 28) = {17.67637596012897, 1.290077262057827, 1};
Point(p10 + 29) = {17.79534776248437, 1.261514659382819, 1};
Point(p10 + 30) = {17.917323, 1.251915, 1};
Point(p10 + 31) = {18.03929823751563, 1.261514659382819, 1};
Point(p10 + 32) = {18.15827003987103, 1.290077262057827, 1};
Point(p10 + 33) = {18.27130892644742, 1.336899501953322, 1};
Point(p10 + 34) = {18.37563150470274, 1.400828460128972, 1};
Point(p10 + 35) = {18.46866900653356, 1.480289993466444, 1};
Point(p10 + 36) = {18.54813053987103, 1.573327495297261, 1};
Point(p10 + 37) = {18.61205949804668, 1.677650073552581, 1};
Point(p10 + 38) = {18.65888173794217, 1.790688960128972, 1};
Point(p10 + 39) = {18.68744434061718, 1.909660762484366, 1};
Spline(10) = {8, p10 + 1, p10 + 2, p10 + 3, p10 + 4, p10 + 5, p10 + 6, p10 + 7, p10 + 8, p10 + 9, p10 + 10, p10 + 11, p10 + 12, p10 + 13, p10 + 14, p10 + 15, p10 + 16, p10 + 17, p10 + 18, p10 + 19, p10 + 20, p10 + 21, p10 + 22, p10 + 23, p10 + 24, p10 + 25, p10 + 26, p10 + 27, p10 + 28, p10 + 29, p10 + 30, p10 + 31, p10 + 32, p10 + 33, p10 + 34, p10 + 35, p10 + 36, p10 + 37, p10 + 38, p10 + 39, 8};
Line(11) = {4, 9};
Line(12) = {9, 7};
Line(13) = {5, 9};
p14 = newp;
Point(p14 + 1) = {18.68744434061718, 2.153611237515634, 0};
Point(p14 + 2) = {18.65888173794217, 2.272583039871029, 0};
Point(p14 + 3) = {18.61205949804668, 2.385621926447419, 0};
Point(p14 + 4) = {18.54813053987103, 2.48994450470274, 0};
Point(p14 + 5) = {18.46866900653356, 2.582982006533556, 0};
Point(p14 + 6) = {18.37563150470274, 2.662443539871028, 0};
Point(p14 + 7) = {18.27130892644742, 2.726372498046679, 0};
Point(p14 + 8) = {18.15827003987103, 2.773194737942174, 0};
Point(p14 + 9) = {18.03929823751563, 2.801757340617182, 0};
Point(p14 + 10) = {17.917323, 2.811357, 0};
Point(p14 + 11) = {17.79534776248437, 2.801757340617181, 0};
Point(p14 + 12) = {17.67637596012897, 2.773194737942174, 0};
Point(p14 + 13) = {17.56333707355258, 2.726372498046679, 0};
Point(p14 + 14) = {17.45901449529726, 2.662443539871028, 0};
Point(p14 + 15) = {17.36597699346644, 2.582982006533556, 0};
Point(p14 + 16) = {17.28651546012897, 2.48994450470274, 0};
Point(p14 + 17) = {17.22258650195332, 2.38562192644742, 0};
Point(p14 + 18) = {17.17576426205783, 2.272583039871029, 0};
Point(p14 + 19) = {17.14720165938282, 2.153611237515634, 0};
Point(p14 + 20) = {17.137602, 2.031636, 0};
Point(p14 + 21) = {17.14720165938282, 1.909660762484366, 0};
Point(p14 + 22) = {17.17576426205783, 1.790688960128972, 0};
Point(p14 + 23) = {17.22258650195332, 1.677650073552581, 0};
Point(p14 + 24) = {17.28651546012897, 1.573327495297261, 0};
Point(p14 + 25) = {17.36597699346644, 1.480289993466444, 0};
Point(p14 + 26) = {17.45901449529726, 1.400828460128972, 0};
Point(p14 + 27) = {17.56333707355258, 1.336899501953322, 0};
Point(p14 + 28) = {17.67637596012897, 1.290077262057827, 0};
Point(p14 + 29) = {17.79534776248437, 1.261514659382819, 0};
Point(p14 + 30) = {17.917323, 1.251915, 0};
Point(p14 + 31) = {18.03929823751563, 1.261514659382819, 0};
Point(p14 + 32) = {18.15827003987103, 1.290077262057827, 0};
Point(p14 + 33) = {18.27130892644742, 1.336899501953322, 0};
Point(p14 + 34) = {18.37563150470274, 1.400828460128972, 0};
Point(p14 + 35) = {18.46866900653356, 1.480289993466444, 0};
Point(p14 + 36) = {18.54813053987103, 1.573327495297261, 0};
Point(p14 + 37) = {18.61205949804668, 1.677650073552581, 0};
Point(p14 + 38) = {18.65888173794217, 1.790688960128972, 0};
Point(p14 + 39) = {18.68744434061718, 1.909660762484366, 0};
Spline(14) = {10, p14 + 1, p14 + 2, p14 + 3, p14 + 4, p14 + 5, p14 + 6, p14 + 7, p14 + 8, p14 + 9, p14 + 10, p14 + 11, p14 + 12, p14 + 13, p14 + 14, p14 + 15, p14 + 16, p14 + 17, p14 + 18, p14 + 19, p14 + 20, p14 + 21, p14 + 22, p14 + 23, p14 + 24, p14 + 25, p14 + 26, p14 + 27, p14 + 28, p14 + 29, p14 + 30, p14 + 31, p14 + 32, p14 + 33, p14 + 34, p14 + 35, p14 + 36, p14 + 37, p14 + 38, p14 + 39, 10};
Line(15) = {10, 8};
Curve Loop(1) = {-1, 4, 3, -2};
Plane Surface(1) = {1};
Curve Loop(2) = {-5, 1, 7, -6};
Plane Surface(2) = {2};
Curve Loop(3) = {-2, 7, 9, -8, -10};
Plane Surface(3) = {3};
Curve Loop(4) = {-11, 3, 8, -12};
Plane Surface(4) = {4};
Curve Loop(5) = {-4, 5, 13, -11, -14};
Plane Surface(5) = {5};
Curve Loop(6) = {-6, 13, 12, -9};
Plane Surface(6) = {6};
Curve Loop(7) = {-10, -15, 14, 15};
Surface(7) = {7};
Surface Loop(1) = {1, 2, 3, 4, 5, 6, 7};
Volume(1) = {1};
Physical Surface("INFLOW") = {1};
Physical Surface("OUTFLOW") = {6};
Physical Surface("OBSTACLE") = {7};
Physical Surface("WALL_Y") = {2, 4};
Physical Surface("WALL_Z") = {3, 5};
Physical Volume("FLUID") = {1};
