cl__1 = 3.75374;
cl__2 = 0.92108;
cl__3 = 0.750088;
cl__4 = 0.107763;
Point(1) = {0.5837020000000001, -3.8133, 1, cl__1};
Point(2) = {0.5837020000000001, -3.8133, 0, cl__1};
Point(3) = {0.5837020000000001, 5.406809000000001, 1, cl__1};
Point(4) = {0.5837020000000001, 5.406809000000001, 0, cl__1};
Point(5) = {37.253242, -3.8133, 0, cl__2};
Point(6) = {37.253242, -3.8133, 1, cl__2};
Point(7) = {37.253242, 5.406809000000001, 1, cl__3};
Point(8) = {30.243346, 2.546244, 1, cl__4};
Point(9) = {37.253242, 5.406809000000001, 0, cl__3};
Point(10) = {30.243346, 2.546244, 0, cl__4};
Line(1) = {2, 1};
Line(2) = {1, 3};
Line(3) = {4, 3};
Line(4) = {2, 4};
Line(5) = {2, 5};
Line(6) = {5, 6};
Line(7) = {1, 6};
Line(8) = {3, 7};
Line(9) = {6, 7};
p10 = newp;
Point(p10 + 1) = {30.2300785372289, 2.714823098299164, 1};
Point(p10 + 2) = {30.19060283788121, 2.879251219716252, 1};
Point(p10 + 3) = {30.12589092468721, 3.035479598196327, 1};
Point(p10 + 4) = {30.03753621971625, 3.179661372568947, 1};
Point(p10 + 5) = {29.92771430903718, 3.308246309037184, 1};
Point(p10 + 6) = {29.79912937256895, 3.418068219716252, 1};
Point(p10 + 7) = {29.65494759819633, 3.506422924687208, 1};
Point(p10 + 8) = {29.49871921971625, 3.571134837881211, 1};
Point(p10 + 9) = {29.33429109829916, 3.610610537228901, 1};
Point(p10 + 10) = {29.165712, 3.623878, 1};
Point(p10 + 11) = {28.99713290170083, 3.610610537228901, 1};
Point(p10 + 12) = {28.83270478028375, 3.571134837881212, 1};
Point(p10 + 13) = {28.67647640180367, 3.506422924687208, 1};
Point(p10 + 14) = {28.53229462743105, 3.418068219716252, 1};
Point(p10 + 15) = {28.40370969096282, 3.308246309037184, 1};
Point(p10 + 16) = {28.29388778028375, 3.179661372568948, 1};
Point(p10 + 17) = {28.20553307531279, 3.035479598196327, 1};
Point(p10 + 18) = {28.14082116211879, 2.879251219716252, 1};
Point(p10 + 19) = {28.1013454627711, 2.714823098299164, 1};
Point(p10 + 20) = {28.088078, 2.546244, 1};
Point(p10 + 21) = {28.1013454627711, 2.377664901700836, 1};
Point(p10 + 22) = {28.14082116211879, 2.213236780283748, 1};
Point(p10 + 23) = {28.20553307531279, 2.057008401803674, 1};
Point(p10 + 24) = {28.29388778028375, 1.912826627431053, 1};
Point(p10 + 25) = {28.40370969096281, 1.784241690962816, 1};
Point(p10 + 26) = {28.53229462743105, 1.674419780283748, 1};
Point(p10 + 27) = {28.67647640180367, 1.586065075312793, 1};
Point(p10 + 28) = {28.83270478028375, 1.521353162118789, 1};
Point(p10 + 29) = {28.99713290170083, 1.4818774627711, 1};
Point(p10 + 30) = {29.165712, 1.46861, 1};
Point(p10 + 31) = {29.33429109829916, 1.4818774627711, 1};
Point(p10 + 32) = {29.49871921971625, 1.521353162118789, 1};
Point(p10 + 33) = {29.65494759819633, 1.586065075312793, 1};
Point(p10 + 34) = {29.79912937256895, 1.674419780283748, 1};
Point(p10 + 35) = {29.92771430903718, 1.784241690962816, 1};
Point(p10 + 36) = {30.03753621971625, 1.912826627431053, 1};
Point(p10 + 37) = {30.12589092468721, 2.057008401803673, 1};
Point(p10 + 38) = {30.19060283788121, 2.213236780283748, 1};
Point(p10 + 39) = {30.2300785372289, 2.377664901700836, 1};
Spline(10) = {8, p10 + 1, p10 + 2, p10 + 3, p10 + 4, p10 + 5, p10 + 6, p10 + 7, p10 + 8, p10 + 9, p10 + 10, p10 + 11, p10 + 12, p10 + 13, p10 + 14, p10 + 15, p10 + 16, p10 + 17, p10 + 18, p10 + 19, p10 + 20, p10 + 21, p10 + 22, p10 + 23, p10 + 24, p10 + 25, p10 + 26, p10 + 27, p10 + 28, p10 + 29, p10 + 30, p10 + 31, p10 + 32, p10 + 33, p10 + 34, p10 + 35, p10 + 36, p10 + 37, p10 + 38, p10 + 39, 8};
Line(11) = {4, 9};
Line(12) = {9, 7};
Line(13) = {5, 9};
p14 = newp;
Point(p14 + 1) = {30.2300785372289, 2.714823098299164, 0};
Point(p14 + 2) = {30.19060283788121, 2.879251219716252, 0};
Point(p14 + 3) = {30.12589092468721, 3.035479598196327, 0};
Point(p14 + 4) = {30.03753621971625, 3.179661372568947, 0};
Point(p14 + 5) = {29.92771430903718, 3.308246309037184, 0};
Point(p14 + 6) = {29.79912937256895, 3.418068219716252, 0};
Point(p14 + 7) = {29.65494759819633, 3.506422924687208, 0};
Point(p14 + 8) = {29.49871921971625, 3.571134837881211, 0};
Point(p14 + 9) = {29.33429109829916, 3.610610537228901, 0};
Point(p14 + 10) = {29.165712, 3.623878, 0};
Point(p14 + 11) = {28.99713290170083, 3.610610537228901, 0};
Point(p14 + 12) = {28.83270478028375, 3.571134837881212, 0};
Point(p14 + 13) = {28.67647640180367, 3.506422924687208, 0};
Point(p14 + 14) = {28.53229462743105, 3.418068219716252, 0};
Point(p14 + 15) = {28.40370969096282, 3.308246309037184, 0};
Point(p14 + 16) = {28.29388778028375, 3.179661372568948, 0};
Point(p14 + 17) = {28.20553307531279, 3.035479598196327, 0};
Point(p14 + 18) = {28.14082116211879, 2.879251219716252, 0};
Point(p14 + 19) = {28.1013454627711, 2.714823098299164, 0};
Point(p14 + 20) = {28.088078, 2.546244, 0};
Point(p14 + 21) = {28.1013454627711, 2.377664901700836, 0};
Point(p14 + 22) = {28.14082116211879, 2.213236780283748, 0};
Point(p14 + 23) = {28.20553307531279, 2.057008401803674, 0};
Point(p14 + 24) = {28.29388778028375, 1.912826627431053, 0};
Point(p14 + 25) = {28.40370969096281, 1.784241690962816, 0};
Point(p14 + 26) = {28.53229462743105, 1.674419780283748, 0};
Point(p14 + 27) = {28.67647640180367, 1.586065075312793, 0};
Point(p14 + 28) = {28.83270478028375, 1.521353162118789, 0};
Point(p14 + 29) = {28.99713290170083, 1.4818774627711, 0};
Point(p14 + 30) = {29.165712, 1.46861, 0};
Point(p14 + 31) = {29.33429109829916, 1.4818774627711, 0};
Point(p14 + 32) = {29.49871921971625, 1.521353162118789, 0};
Point(p14 + 33) = {29.65494759819633, 1.586065075312793, 0};
Point(p14 + 34) = {29.79912937256895, 1.674419780283748, 0};
Point(p14 + 35) = {29.92771430903718, 1.784241690962816, 0};
Point(p14 + 36) = {30.03753621971625, 1.912826627431053, 0};
Point(p14 + 37) = {30.12589092468721, 2.057008401803673, 0};
Point(p14 + 38) = {30.19060283788121, 2.213236780283748, 0};
Point(p14 + 39) = {30.2300785372289, 2.377664901700836, 0};
Spline(14) = {10, p14 + 1, p14 + 2, p14 + 3, p14 + 4, p14 + 5, p14 + 6, p14 + 7, p14 + 8, p14 + 9, p14 + 10, p14 + 11, p14 + 12, p14 + 13, p14 + 14, p14 + 15, p14 + 16, p14 + 17, p14 + 18, p14 + 19, p14 + 20, p14 + 21, p14 + 22, p14 + 23, p14 + 24, p14 + 25, p14 + 26, p14 + 27, p14 + 28, p14 + 29, p14 + 30, p14 + 31, p14 + 32, p14 + 33, p14 + 34, p14 + 35, p14 + 36, p14 + 37, p14 + 38, p14 + 39, 10};
Line(15) = {10, 8};
Curve Loop(1) = {-1, 4, 3, -2};
Plane Surface(1) = {1};
Curve Loop(2) = {-5, 1, 7, -6};
Plane Surface(2) = {2};
Curve Loop(3) = {-2, 7, 9, -8, -10};
Plane Surface(3) = {3};
Curve Loop(4) = {-11, 3, 8, -12};
Plane Surface(4) = {4};
Curve Loop(5) = {-4, 5, 13, -11, -14};
Plane Surface(5) = {5};
Curve Loop(6) = {-6, 13, 12, -9};
Plane Surface(6) = {6};
Curve Loop(7) = {-10, -15, 14, 15};
Surface(7) = {7};
Surface Loop(1) = {1, 2, 3, 4, 5, 6, 7};
Volume(1) = {1};
Physical Surface("INFLOW") = {1};
Physical Surface("OUTFLOW") = {6};
Physical Surface("OBSTACLE") = {7};
Physical Surface("WALL_Y") = {2, 4};
Physical Surface("WALL_Z") = {3, 5};
Physical Volume("FLUID") = {1};
