cl__1 = 1;
cl__2 = 0.134485;
cl__3 = 0.050797;
Point(1) = {0.271258, -4.299664, 1, cl__1};
Point(2) = {0.271258, -4.299664, 0, cl__1};
Point(3) = {0.271258, 4.455438000000001, 1, cl__1};
Point(4) = {0.271258, 4.455438000000001, 0, cl__1};
Point(5) = {33.728082, -4.299664, 0, cl__1};
Point(6) = {33.728082, -4.299664, 1, cl__1};
Point(7) = {33.728082, 4.455438000000001, 1, cl__1};
Point(8) = {17.031581, -1.905926, 1, cl__2};
Point(9) = {11.547201, 0.4648209999999999, 1, cl__3};
Point(10) = {33.728082, 4.455438000000001, 0, cl__1};
Point(11) = {17.031581, -1.905926, 0, cl__2};
Point(12) = {11.547201, 0.4648209999999999, 0, cl__3};
Line(1) = {2, 1};
Line(2) = {1, 3};
Line(3) = {4, 3};
Line(4) = {2, 4};
Line(5) = {2, 5};
Line(6) = {5, 6};
Line(7) = {1, 6};
Line(8) = {3, 7};
Line(9) = {6, 7};
p10 = newp;
Point(p10 + 1) = {17.01502370178435, -1.695545578994041, 1};
Point(p10 + 2) = {16.96575950276999, -1.490345422165835, 1};
Point(p10 + 3) = {16.88500145103515, -1.29537823839677, 1};
Point(p10 + 4) = {16.77473807783417, -1.115444766810224, 1};
Point(p10 + 5) = {16.63768443335838, -0.9549755666416153, 1};
Point(p10 + 6) = {16.47721523318977, -0.8179219221658351, 1};
Point(p10 + 7) = {16.29728176160323, -0.7076585489648461, 1};
Point(p10 + 8) = {16.10231457783416, -0.6269004972300118, 1};
Point(p10 + 9) = {15.89711442100596, -0.5776362982156509, 1};
Point(p10 + 10) = {15.686734, -0.5610790000000001, 1};
Point(p10 + 11) = {15.47635357899404, -0.5776362982156511, 1};
Point(p10 + 12) = {15.27115342216583, -0.6269004972300116, 1};
Point(p10 + 13) = {15.07618623839677, -0.7076585489648461, 1};
Point(p10 + 14) = {14.89625276681022, -0.8179219221658351, 1};
Point(p10 + 15) = {14.73578356664162, -0.9549755666416151, 1};
Point(p10 + 16) = {14.59872992216583, -1.115444766810224, 1};
Point(p10 + 17) = {14.48846654896485, -1.29537823839677, 1};
Point(p10 + 18) = {14.40770849723001, -1.490345422165835, 1};
Point(p10 + 19) = {14.35844429821565, -1.695545578994041, 1};
Point(p10 + 20) = {14.341887, -1.905926, 1};
Point(p10 + 21) = {14.35844429821565, -2.116306421005959, 1};
Point(p10 + 22) = {14.40770849723001, -2.321506577834165, 1};
Point(p10 + 23) = {14.48846654896485, -2.51647376160323, 1};
Point(p10 + 24) = {14.59872992216583, -2.696407233189775, 1};
Point(p10 + 25) = {14.73578356664162, -2.856876433358384, 1};
Point(p10 + 26) = {14.89625276681022, -2.993930077834165, 1};
Point(p10 + 27) = {15.07618623839677, -3.104193451035154, 1};
Point(p10 + 28) = {15.27115342216583, -3.184951502769988, 1};
Point(p10 + 29) = {15.47635357899404, -3.234215701784349, 1};
Point(p10 + 30) = {15.686734, -3.250773, 1};
Point(p10 + 31) = {15.89711442100596, -3.234215701784349, 1};
Point(p10 + 32) = {16.10231457783416, -3.184951502769988, 1};
Point(p10 + 33) = {16.29728176160323, -3.104193451035154, 1};
Point(p10 + 34) = {16.47721523318977, -2.993930077834165, 1};
Point(p10 + 35) = {16.63768443335838, -2.856876433358385, 1};
Point(p10 + 36) = {16.77473807783417, -2.696407233189776, 1};
Point(p10 + 37) = {16.88500145103515, -2.516473761603231, 1};
Point(p10 + 38) = {16.96575950276999, -2.321506577834165, 1};
Point(p10 + 39) = {17.01502370178435, -2.11630642100596, 1};
Spline(10) = {8, p10 + 1, p10 + 2, p10 + 3, p10 + 4, p10 + 5, p10 + 6, p10 + 7, p10 + 8, p10 + 9, p10 + 10, p10 + 11, p10 + 12, p10 + 13, p10 + 14, p10 + 15, p10 + 16, p10 + 17, p10 + 18, p10 + 19, p10 + 20, p10 + 21, p10 + 22, p10 + 23, p10 + 24, p10 + 25, p10 + 26, p10 + 27, p10 + 28, p10 + 29, p10 + 30, p10 + 31, p10 + 32, p10 + 33, p10 + 34, p10 + 35, p10 + 36, p10 + 37, p10 + 38, p10 + 39, 8};
p11 = newp;
Point(p11 + 1) = {11.54094705868377, 0.544284858772021, 1};
Point(p11 + 2) = {11.52233922752593, 0.6217920536156476, 1};
Point(p11 + 3) = {11.49183569308544, 0.6954341001621978, 1};
Point(p11 + 4) = {11.45018755361565, 0.7633976868217554, 1};
Point(p11 + 5) = {11.39842032453255, 0.8240093245325493, 1};
Point(p11 + 6) = {11.33780868682176, 0.8757765536156477, 1};
Point(p11 + 7) = {11.2698451001622, 0.9174246930854411, 1};
Point(p11 + 8) = {11.19620305361565, 0.9479282275259329, 1};
Point(p11 + 9) = {11.11869585877202, 0.9665360586837715, 1};
Point(p11 + 10) = {11.039232, 0.97279, 1};
Point(p11 + 11) = {10.95976814122798, 0.9665360586837715, 1};
Point(p11 + 12) = {10.88226094638435, 0.9479282275259329, 1};
Point(p11 + 13) = {10.8086188998378, 0.9174246930854411, 1};
Point(p11 + 14) = {10.74065531317824, 0.8757765536156477, 1};
Point(p11 + 15) = {10.68004367546745, 0.8240093245325494, 1};
Point(p11 + 16) = {10.62827644638435, 0.7633976868217554, 1};
Point(p11 + 17) = {10.58662830691456, 0.6954341001621979, 1};
Point(p11 + 18) = {10.55612477247407, 0.6217920536156477, 1};
Point(p11 + 19) = {10.53751694131623, 0.544284858772021, 1};
Point(p11 + 20) = {10.531263, 0.464821, 1};
Point(p11 + 21) = {10.53751694131623, 0.385357141227979, 1};
Point(p11 + 22) = {10.55612477247407, 0.3078499463843521, 1};
Point(p11 + 23) = {10.58662830691456, 0.2342078998378024, 1};
Point(p11 + 24) = {10.62827644638435, 0.1662443131782447, 1};
Point(p11 + 25) = {10.68004367546745, 0.1056326754674506, 1};
Point(p11 + 26) = {10.74065531317824, 0.05386544638435237, 1};
Point(p11 + 27) = {10.8086188998378, 0.01221730691455897, 1};
Point(p11 + 28) = {10.88226094638435, -0.01828622752593284, 1};
Point(p11 + 29) = {10.95976814122798, -0.03689405868377155, 1};
Point(p11 + 30) = {11.039232, -0.04314800000000002, 1};
Point(p11 + 31) = {11.11869585877202, -0.03689405868377155, 1};
Point(p11 + 32) = {11.19620305361565, -0.0182862275259329, 1};
Point(p11 + 33) = {11.2698451001622, 0.01221730691455891, 1};
Point(p11 + 34) = {11.33780868682176, 0.05386544638435226, 1};
Point(p11 + 35) = {11.39842032453255, 0.1056326754674505, 1};
Point(p11 + 36) = {11.45018755361565, 0.1662443131782446, 1};
Point(p11 + 37) = {11.49183569308544, 0.234207899837802, 1};
Point(p11 + 38) = {11.52233922752593, 0.3078499463843523, 1};
Point(p11 + 39) = {11.54094705868377, 0.3853571412279788, 1};
Spline(11) = {9, p11 + 1, p11 + 2, p11 + 3, p11 + 4, p11 + 5, p11 + 6, p11 + 7, p11 + 8, p11 + 9, p11 + 10, p11 + 11, p11 + 12, p11 + 13, p11 + 14, p11 + 15, p11 + 16, p11 + 17, p11 + 18, p11 + 19, p11 + 20, p11 + 21, p11 + 22, p11 + 23, p11 + 24, p11 + 25, p11 + 26, p11 + 27, p11 + 28, p11 + 29, p11 + 30, p11 + 31, p11 + 32, p11 + 33, p11 + 34, p11 + 35, p11 + 36, p11 + 37, p11 + 38, p11 + 39, 9};
Line(12) = {4, 10};
Line(13) = {10, 7};
Line(14) = {5, 10};
p15 = newp;
Point(p15 + 1) = {17.01502370178435, -1.695545578994041, 0};
Point(p15 + 2) = {16.96575950276999, -1.490345422165835, 0};
Point(p15 + 3) = {16.88500145103515, -1.29537823839677, 0};
Point(p15 + 4) = {16.77473807783417, -1.115444766810224, 0};
Point(p15 + 5) = {16.63768443335838, -0.9549755666416153, 0};
Point(p15 + 6) = {16.47721523318977, -0.8179219221658351, 0};
Point(p15 + 7) = {16.29728176160323, -0.7076585489648461, 0};
Point(p15 + 8) = {16.10231457783416, -0.6269004972300118, 0};
Point(p15 + 9) = {15.89711442100596, -0.5776362982156509, 0};
Point(p15 + 10) = {15.686734, -0.5610790000000001, 0};
Point(p15 + 11) = {15.47635357899404, -0.5776362982156511, 0};
Point(p15 + 12) = {15.27115342216583, -0.6269004972300116, 0};
Point(p15 + 13) = {15.07618623839677, -0.7076585489648461, 0};
Point(p15 + 14) = {14.89625276681022, -0.8179219221658351, 0};
Point(p15 + 15) = {14.73578356664162, -0.9549755666416151, 0};
Point(p15 + 16) = {14.59872992216583, -1.115444766810224, 0};
Point(p15 + 17) = {14.48846654896485, -1.29537823839677, 0};
Point(p15 + 18) = {14.40770849723001, -1.490345422165835, 0};
Point(p15 + 19) = {14.35844429821565, -1.695545578994041, 0};
Point(p15 + 20) = {14.341887, -1.905926, 0};
Point(p15 + 21) = {14.35844429821565, -2.116306421005959, 0};
Point(p15 + 22) = {14.40770849723001, -2.321506577834165, 0};
Point(p15 + 23) = {14.48846654896485, -2.51647376160323, 0};
Point(p15 + 24) = {14.59872992216583, -2.696407233189775, 0};
Point(p15 + 25) = {14.73578356664162, -2.856876433358384, 0};
Point(p15 + 26) = {14.89625276681022, -2.993930077834165, 0};
Point(p15 + 27) = {15.07618623839677, -3.104193451035154, 0};
Point(p15 + 28) = {15.27115342216583, -3.184951502769988, 0};
Point(p15 + 29) = {15.47635357899404, -3.234215701784349, 0};
Point(p15 + 30) = {15.686734, -3.250773, 0};
Point(p15 + 31) = {15.89711442100596, -3.234215701784349, 0};
Point(p15 + 32) = {16.10231457783416, -3.184951502769988, 0};
Point(p15 + 33) = {16.29728176160323, -3.104193451035154, 0};
Point(p15 + 34) = {16.47721523318977, -2.993930077834165, 0};
Point(p15 + 35) = {16.63768443335838, -2.856876433358385, 0};
Point(p15 + 36) = {16.77473807783417, -2.696407233189776, 0};
Point(p15 + 37) = {16.88500145103515, -2.516473761603231, 0};
Point(p15 + 38) = {16.96575950276999, -2.321506577834165, 0};
Point(p15 + 39) = {17.01502370178435, -2.11630642100596, 0};
Spline(15) = {11, p15 + 1, p15 + 2, p15 + 3, p15 + 4, p15 + 5, p15 + 6, p15 + 7, p15 + 8, p15 + 9, p15 + 10, p15 + 11, p15 + 12, p15 + 13, p15 + 14, p15 + 15, p15 + 16, p15 + 17, p15 + 18, p15 + 19, p15 + 20, p15 + 21, p15 + 22, p15 + 23, p15 + 24, p15 + 25, p15 + 26, p15 + 27, p15 + 28, p15 + 29, p15 + 30, p15 + 31, p15 + 32, p15 + 33, p15 + 34, p15 + 35, p15 + 36, p15 + 37, p15 + 38, p15 + 39, 11};
p16 = newp;
Point(p16 + 1) = {11.54094705868377, 0.544284858772021, 0};
Point(p16 + 2) = {11.52233922752593, 0.6217920536156476, 0};
Point(p16 + 3) = {11.49183569308544, 0.6954341001621978, 0};
Point(p16 + 4) = {11.45018755361565, 0.7633976868217554, 0};
Point(p16 + 5) = {11.39842032453255, 0.8240093245325493, 0};
Point(p16 + 6) = {11.33780868682176, 0.8757765536156477, 0};
Point(p16 + 7) = {11.2698451001622, 0.9174246930854411, 0};
Point(p16 + 8) = {11.19620305361565, 0.9479282275259329, 0};
Point(p16 + 9) = {11.11869585877202, 0.9665360586837715, 0};
Point(p16 + 10) = {11.039232, 0.97279, 0};
Point(p16 + 11) = {10.95976814122798, 0.9665360586837715, 0};
Point(p16 + 12) = {10.88226094638435, 0.9479282275259329, 0};
Point(p16 + 13) = {10.8086188998378, 0.9174246930854411, 0};
Point(p16 + 14) = {10.74065531317824, 0.8757765536156477, 0};
Point(p16 + 15) = {10.68004367546745, 0.8240093245325494, 0};
Point(p16 + 16) = {10.62827644638435, 0.7633976868217554, 0};
Point(p16 + 17) = {10.58662830691456, 0.6954341001621979, 0};
Point(p16 + 18) = {10.55612477247407, 0.6217920536156477, 0};
Point(p16 + 19) = {10.53751694131623, 0.544284858772021, 0};
Point(p16 + 20) = {10.531263, 0.464821, 0};
Point(p16 + 21) = {10.53751694131623, 0.385357141227979, 0};
Point(p16 + 22) = {10.55612477247407, 0.3078499463843521, 0};
Point(p16 + 23) = {10.58662830691456, 0.2342078998378024, 0};
Point(p16 + 24) = {10.62827644638435, 0.1662443131782447, 0};
Point(p16 + 25) = {10.68004367546745, 0.1056326754674506, 0};
Point(p16 + 26) = {10.74065531317824, 0.05386544638435237, 0};
Point(p16 + 27) = {10.8086188998378, 0.01221730691455897, 0};
Point(p16 + 28) = {10.88226094638435, -0.01828622752593284, 0};
Point(p16 + 29) = {10.95976814122798, -0.03689405868377155, 0};
Point(p16 + 30) = {11.039232, -0.04314800000000002, 0};
Point(p16 + 31) = {11.11869585877202, -0.03689405868377155, 0};
Point(p16 + 32) = {11.19620305361565, -0.0182862275259329, 0};
Point(p16 + 33) = {11.2698451001622, 0.01221730691455891, 0};
Point(p16 + 34) = {11.33780868682176, 0.05386544638435226, 0};
Point(p16 + 35) = {11.39842032453255, 0.1056326754674505, 0};
Point(p16 + 36) = {11.45018755361565, 0.1662443131782446, 0};
Point(p16 + 37) = {11.49183569308544, 0.234207899837802, 0};
Point(p16 + 38) = {11.52233922752593, 0.3078499463843523, 0};
Point(p16 + 39) = {11.54094705868377, 0.3853571412279788, 0};
Spline(16) = {12, p16 + 1, p16 + 2, p16 + 3, p16 + 4, p16 + 5, p16 + 6, p16 + 7, p16 + 8, p16 + 9, p16 + 10, p16 + 11, p16 + 12, p16 + 13, p16 + 14, p16 + 15, p16 + 16, p16 + 17, p16 + 18, p16 + 19, p16 + 20, p16 + 21, p16 + 22, p16 + 23, p16 + 24, p16 + 25, p16 + 26, p16 + 27, p16 + 28, p16 + 29, p16 + 30, p16 + 31, p16 + 32, p16 + 33, p16 + 34, p16 + 35, p16 + 36, p16 + 37, p16 + 38, p16 + 39, 12};
Line(17) = {11, 8};
Line(18) = {12, 9};
Curve Loop(1) = {-1, 4, 3, -2};
Plane Surface(1) = {1};
Curve Loop(2) = {-5, 1, 7, -6};
Plane Surface(2) = {2};
Curve Loop(3) = {-2, 7, 9, -8, -10, -11};
Plane Surface(3) = {3};
Curve Loop(4) = {-12, 3, 8, -13};
Plane Surface(4) = {4};
Curve Loop(5) = {-4, 5, 14, -12, -15, -16};
Plane Surface(5) = {5};
Curve Loop(6) = {-6, 14, 13, -9};
Plane Surface(6) = {6};
Curve Loop(7) = {-10, -17, 15, 17};
Surface(7) = {7};
Curve Loop(8) = {-11, -18, 16, 18};
Surface(8) = {8};
Surface Loop(1) = {1, 2, 3, 4, 5, 6, 7, 8};
Volume(1) = {1};
Physical Surface("INFLOW") = {1};
Physical Surface("OUTFLOW") = {6};
Physical Surface("OBSTACLE") = {7, 8};
Physical Surface("WALL_Y") = {2, 4};
Physical Surface("WALL_Z") = {3, 5};
Physical Volume("FLUID") = {1};
