cl__1 = 1;
cl__2 = 0.13011;
cl__3 = 0.05348;
Point(1) = {0.8700369999999999, -3.740635, 1, cl__1};
Point(2) = {0.8700369999999999, -3.740635, 0, cl__1};
Point(3) = {0.8700369999999999, 4.445753000000001, 1, cl__1};
Point(4) = {0.8700369999999999, 4.445753000000001, 0, cl__1};
Point(5) = {39.981506, -3.740635, 0, cl__1};
Point(6) = {39.981506, -3.740635, 1, cl__1};
Point(7) = {39.981506, 4.445753000000001, 1, cl__1};
Point(8) = {26.789807, -1.118988000000001, 1, cl__2};
Point(9) = {24.826479, 2.302928999999999, 1, cl__3};
Point(10) = {39.981506, 4.445753000000001, 0, cl__1};
Point(11) = {26.789807, -1.118988000000001, 0, cl__2};
Point(12) = {24.826479, 2.302928999999999, 0, cl__3};
Line(1) = {2, 1};
Line(2) = {1, 3};
Line(3) = {4, 3};
Line(4) = {2, 4};
Line(5) = {2, 5};
Line(6) = {5, 6};
Line(7) = {1, 6};
Line(8) = {3, 7};
Line(9) = {6, 7};
p10 = newp;
Point(p10 + 1) = {26.77378834919497, -0.9154517432740159, 1};
Point(p10 + 2) = {26.72612682912556, -0.7169272246867335, 1};
Point(p10 + 3) = {26.64799602459539, -0.5283027767508748, 1};
Point(p10 + 4) = {26.54131977531327, -0.3542229593832724, 1};
Point(p10 + 5) = {26.40872480457469, -0.1989741954253079, 1};
Point(p10 + 6) = {26.25347604061673, -0.06637922468673341, 1};
Point(p10 + 7) = {26.07939622324912, 0.04029702459538842, 1};
Point(p10 + 8) = {25.89077177531327, 0.1184278291255589, 1};
Point(p10 + 9) = {25.69224725672598, 0.1660893491949713, 1};
Point(p10 + 10) = {25.488711, 0.1821079999999999, 1};
Point(p10 + 11) = {25.28517474327401, 0.1660893491949711, 1};
Point(p10 + 12) = {25.08665022468673, 0.1184278291255592, 1};
Point(p10 + 13) = {24.89802577675087, 0.04029702459538864, 1};
Point(p10 + 14) = {24.72394595938327, -0.06637922468673341, 1};
Point(p10 + 15) = {24.56869719542531, -0.1989741954253078, 1};
Point(p10 + 16) = {24.43610222468673, -0.3542229593832723, 1};
Point(p10 + 17) = {24.32942597540461, -0.5283027767508747, 1};
Point(p10 + 18) = {24.25129517087444, -0.7169272246867333, 1};
Point(p10 + 19) = {24.20363365080503, -0.9154517432740157, 1};
Point(p10 + 20) = {24.187615, -1.118988, 1};
Point(p10 + 21) = {24.20363365080503, -1.322524256725984, 1};
Point(p10 + 22) = {24.25129517087444, -1.521048775313267, 1};
Point(p10 + 23) = {24.32942597540461, -1.709673223249125, 1};
Point(p10 + 24) = {24.43610222468673, -1.883753040616728, 1};
Point(p10 + 25) = {24.5686971954253, -2.039001804574692, 1};
Point(p10 + 26) = {24.72394595938327, -2.171596775313267, 1};
Point(p10 + 27) = {24.89802577675087, -2.278273024595388, 1};
Point(p10 + 28) = {25.08665022468673, -2.356403829125559, 1};
Point(p10 + 29) = {25.28517474327401, -2.404065349194971, 1};
Point(p10 + 30) = {25.488711, -2.420084, 1};
Point(p10 + 31) = {25.69224725672598, -2.404065349194972, 1};
Point(p10 + 32) = {25.89077177531327, -2.35640382912556, 1};
Point(p10 + 33) = {26.07939622324912, -2.278273024595389, 1};
Point(p10 + 34) = {26.25347604061673, -2.171596775313267, 1};
Point(p10 + 35) = {26.40872480457469, -2.039001804574692, 1};
Point(p10 + 36) = {26.54131977531327, -1.883753040616728, 1};
Point(p10 + 37) = {26.64799602459539, -1.709673223249126, 1};
Point(p10 + 38) = {26.72612682912556, -1.521048775313267, 1};
Point(p10 + 39) = {26.77378834919497, -1.322524256725985, 1};
Spline(10) = {8, p10 + 1, p10 + 2, p10 + 3, p10 + 4, p10 + 5, p10 + 6, p10 + 7, p10 + 8, p10 + 9, p10 + 10, p10 + 11, p10 + 12, p10 + 13, p10 + 14, p10 + 15, p10 + 16, p10 + 17, p10 + 18, p10 + 19, p10 + 20, p10 + 21, p10 + 22, p10 + 23, p10 + 24, p10 + 25, p10 + 26, p10 + 27, p10 + 28, p10 + 29, p10 + 30, p10 + 31, p10 + 32, p10 + 33, p10 + 34, p10 + 35, p10 + 36, p10 + 37, p10 + 38, p10 + 39, 8};
p11 = newp;
Point(p11 + 1) = {24.81989473686194, 2.38658999546905, 1};
Point(p11 + 2) = {24.80030407385813, 2.468190979574727, 1};
Point(p11 + 3) = {24.76818939812942, 2.54572266527021, 1};
Point(p11 + 4) = {24.72434147957473, 2.617275965140762, 1};
Point(p11 + 5) = {24.66983999947178, 2.681088999471784, 1};
Point(p11 + 6) = {24.60602696514076, 2.735590479574727, 1};
Point(p11 + 7) = {24.53447366527021, 2.779438398129415, 1};
Point(p11 + 8) = {24.45694197957473, 2.811553073858132, 1};
Point(p11 + 9) = {24.37534099546905, 2.831143736861939, 1};
Point(p11 + 10) = {24.29168, 2.837728, 1};
Point(p11 + 11) = {24.20801900453095, 2.831143736861939, 1};
Point(p11 + 12) = {24.12641802042527, 2.811553073858132, 1};
Point(p11 + 13) = {24.04888633472979, 2.779438398129415, 1};
Point(p11 + 14) = {23.97733303485924, 2.735590479574727, 1};
Point(p11 + 15) = {23.91352000052822, 2.681088999471784, 1};
Point(p11 + 16) = {23.85901852042527, 2.617275965140762, 1};
Point(p11 + 17) = {23.81517060187058, 2.54572266527021, 1};
Point(p11 + 18) = {23.78305592614187, 2.468190979574727, 1};
Point(p11 + 19) = {23.76346526313806, 2.38658999546905, 1};
Point(p11 + 20) = {23.756881, 2.302929, 1};
Point(p11 + 21) = {23.76346526313806, 2.219268004530949, 1};
Point(p11 + 22) = {23.78305592614187, 2.137667020425272, 1};
Point(p11 + 23) = {23.81517060187058, 2.06013533472979, 1};
Point(p11 + 24) = {23.85901852042527, 1.988582034859238, 1};
Point(p11 + 25) = {23.91352000052822, 1.924769000528215, 1};
Point(p11 + 26) = {23.97733303485924, 1.870267520425272, 1};
Point(p11 + 27) = {24.04888633472979, 1.826419601870585, 1};
Point(p11 + 28) = {24.12641802042527, 1.794304926141868, 1};
Point(p11 + 29) = {24.20801900453095, 1.774714263138061, 1};
Point(p11 + 30) = {24.29168, 1.76813, 1};
Point(p11 + 31) = {24.37534099546905, 1.774714263138061, 1};
Point(p11 + 32) = {24.45694197957473, 1.794304926141868, 1};
Point(p11 + 33) = {24.53447366527021, 1.826419601870585, 1};
Point(p11 + 34) = {24.60602696514076, 1.870267520425272, 1};
Point(p11 + 35) = {24.66983999947178, 1.924769000528215, 1};
Point(p11 + 36) = {24.72434147957473, 1.988582034859237, 1};
Point(p11 + 37) = {24.76818939812942, 2.06013533472979, 1};
Point(p11 + 38) = {24.80030407385813, 2.137667020425272, 1};
Point(p11 + 39) = {24.81989473686194, 2.219268004530949, 1};
Spline(11) = {9, p11 + 1, p11 + 2, p11 + 3, p11 + 4, p11 + 5, p11 + 6, p11 + 7, p11 + 8, p11 + 9, p11 + 10, p11 + 11, p11 + 12, p11 + 13, p11 + 14, p11 + 15, p11 + 16, p11 + 17, p11 + 18, p11 + 19, p11 + 20, p11 + 21, p11 + 22, p11 + 23, p11 + 24, p11 + 25, p11 + 26, p11 + 27, p11 + 28, p11 + 29, p11 + 30, p11 + 31, p11 + 32, p11 + 33, p11 + 34, p11 + 35, p11 + 36, p11 + 37, p11 + 38, p11 + 39, 9};
Line(12) = {4, 10};
Line(13) = {10, 7};
Line(14) = {5, 10};
p15 = newp;
Point(p15 + 1) = {26.77378834919497, -0.9154517432740159, 0};
Point(p15 + 2) = {26.72612682912556, -0.7169272246867335, 0};
Point(p15 + 3) = {26.64799602459539, -0.5283027767508748, 0};
Point(p15 + 4) = {26.54131977531327, -0.3542229593832724, 0};
Point(p15 + 5) = {26.40872480457469, -0.1989741954253079, 0};
Point(p15 + 6) = {26.25347604061673, -0.06637922468673341, 0};
Point(p15 + 7) = {26.07939622324912, 0.04029702459538842, 0};
Point(p15 + 8) = {25.89077177531327, 0.1184278291255589, 0};
Point(p15 + 9) = {25.69224725672598, 0.1660893491949713, 0};
Point(p15 + 10) = {25.488711, 0.1821079999999999, 0};
Point(p15 + 11) = {25.28517474327401, 0.1660893491949711, 0};
Point(p15 + 12) = {25.08665022468673, 0.1184278291255592, 0};
Point(p15 + 13) = {24.89802577675087, 0.04029702459538864, 0};
Point(p15 + 14) = {24.72394595938327, -0.06637922468673341, 0};
Point(p15 + 15) = {24.56869719542531, -0.1989741954253078, 0};
Point(p15 + 16) = {24.43610222468673, -0.3542229593832723, 0};
Point(p15 + 17) = {24.32942597540461, -0.5283027767508747, 0};
Point(p15 + 18) = {24.25129517087444, -0.7169272246867333, 0};
Point(p15 + 19) = {24.20363365080503, -0.9154517432740157, 0};
Point(p15 + 20) = {24.187615, -1.118988, 0};
Point(p15 + 21) = {24.20363365080503, -1.322524256725984, 0};
Point(p15 + 22) = {24.25129517087444, -1.521048775313267, 0};
Point(p15 + 23) = {24.32942597540461, -1.709673223249125, 0};
Point(p15 + 24) = {24.43610222468673, -1.883753040616728, 0};
Point(p15 + 25) = {24.5686971954253, -2.039001804574692, 0};
Point(p15 + 26) = {24.72394595938327, -2.171596775313267, 0};
Point(p15 + 27) = {24.89802577675087, -2.278273024595388, 0};
Point(p15 + 28) = {25.08665022468673, -2.356403829125559, 0};
Point(p15 + 29) = {25.28517474327401, -2.404065349194971, 0};
Point(p15 + 30) = {25.488711, -2.420084, 0};
Point(p15 + 31) = {25.69224725672598, -2.404065349194972, 0};
Point(p15 + 32) = {25.89077177531327, -2.35640382912556, 0};
Point(p15 + 33) = {26.07939622324912, -2.278273024595389, 0};
Point(p15 + 34) = {26.25347604061673, -2.171596775313267, 0};
Point(p15 + 35) = {26.40872480457469, -2.039001804574692, 0};
Point(p15 + 36) = {26.54131977531327, -1.883753040616728, 0};
Point(p15 + 37) = {26.64799602459539, -1.709673223249126, 0};
Point(p15 + 38) = {26.72612682912556, -1.521048775313267, 0};
Point(p15 + 39) = {26.77378834919497, -1.322524256725985, 0};
Spline(15) = {11, p15 + 1, p15 + 2, p15 + 3, p15 + 4, p15 + 5, p15 + 6, p15 + 7, p15 + 8, p15 + 9, p15 + 10, p15 + 11, p15 + 12, p15 + 13, p15 + 14, p15 + 15, p15 + 16, p15 + 17, p15 + 18, p15 + 19, p15 + 20, p15 + 21, p15 + 22, p15 + 23, p15 + 24, p15 + 25, p15 + 26, p15 + 27, p15 + 28, p15 + 29, p15 + 30, p15 + 31, p15 + 32, p15 + 33, p15 + 34, p15 + 35, p15 + 36, p15 + 37, p15 + 38, p15 + 39, 11};
p16 = newp;
Point(p16 + 1) = {24.81989473686194, 2.38658999546905, 0};
Point(p16 + 2) = {24.80030407385813, 2.468190979574727, 0};
Point(p16 + 3) = {24.76818939812942, 2.54572266527021, 0};
Point(p16 + 4) = {24.72434147957473, 2.617275965140762, 0};
Point(p16 + 5) = {24.66983999947178, 2.681088999471784, 0};
Point(p16 + 6) = {24.60602696514076, 2.735590479574727, 0};
Point(p16 + 7) = {24.53447366527021, 2.779438398129415, 0};
Point(p16 + 8) = {24.45694197957473, 2.811553073858132, 0};
Point(p16 + 9) = {24.37534099546905, 2.831143736861939, 0};
Point(p16 + 10) = {24.29168, 2.837728, 0};
Point(p16 + 11) = {24.20801900453095, 2.831143736861939, 0};
Point(p16 + 12) = {24.12641802042527, 2.811553073858132, 0};
Point(p16 + 13) = {24.04888633472979, 2.779438398129415, 0};
Point(p16 + 14) = {23.97733303485924, 2.735590479574727, 0};
Point(p16 + 15) = {23.91352000052822, 2.681088999471784, 0};
Point(p16 + 16) = {23.85901852042527, 2.617275965140762, 0};
Point(p16 + 17) = {23.81517060187058, 2.54572266527021, 0};
Point(p16 + 18) = {23.78305592614187, 2.468190979574727, 0};
Point(p16 + 19) = {23.76346526313806, 2.38658999546905, 0};
Point(p16 + 20) = {23.756881, 2.302929, 0};
Point(p16 + 21) = {23.76346526313806, 2.219268004530949, 0};
Point(p16 + 22) = {23.78305592614187, 2.137667020425272, 0};
Point(p16 + 23) = {23.81517060187058, 2.06013533472979, 0};
Point(p16 + 24) = {23.85901852042527, 1.988582034859238, 0};
Point(p16 + 25) = {23.91352000052822, 1.924769000528215, 0};
Point(p16 + 26) = {23.97733303485924, 1.870267520425272, 0};
Point(p16 + 27) = {24.04888633472979, 1.826419601870585, 0};
Point(p16 + 28) = {24.12641802042527, 1.794304926141868, 0};
Point(p16 + 29) = {24.20801900453095, 1.774714263138061, 0};
Point(p16 + 30) = {24.29168, 1.76813, 0};
Point(p16 + 31) = {24.37534099546905, 1.774714263138061, 0};
Point(p16 + 32) = {24.45694197957473, 1.794304926141868, 0};
Point(p16 + 33) = {24.53447366527021, 1.826419601870585, 0};
Point(p16 + 34) = {24.60602696514076, 1.870267520425272, 0};
Point(p16 + 35) = {24.66983999947178, 1.924769000528215, 0};
Point(p16 + 36) = {24.72434147957473, 1.988582034859237, 0};
Point(p16 + 37) = {24.76818939812942, 2.06013533472979, 0};
Point(p16 + 38) = {24.80030407385813, 2.137667020425272, 0};
Point(p16 + 39) = {24.81989473686194, 2.219268004530949, 0};
Spline(16) = {12, p16 + 1, p16 + 2, p16 + 3, p16 + 4, p16 + 5, p16 + 6, p16 + 7, p16 + 8, p16 + 9, p16 + 10, p16 + 11, p16 + 12, p16 + 13, p16 + 14, p16 + 15, p16 + 16, p16 + 17, p16 + 18, p16 + 19, p16 + 20, p16 + 21, p16 + 22, p16 + 23, p16 + 24, p16 + 25, p16 + 26, p16 + 27, p16 + 28, p16 + 29, p16 + 30, p16 + 31, p16 + 32, p16 + 33, p16 + 34, p16 + 35, p16 + 36, p16 + 37, p16 + 38, p16 + 39, 12};
Line(17) = {11, 8};
Line(18) = {12, 9};
Curve Loop(1) = {-1, 4, 3, -2};
Plane Surface(1) = {1};
Curve Loop(2) = {-5, 1, 7, -6};
Plane Surface(2) = {2};
Curve Loop(3) = {-2, 7, 9, -8, -10, -11};
Plane Surface(3) = {3};
Curve Loop(4) = {-12, 3, 8, -13};
Plane Surface(4) = {4};
Curve Loop(5) = {-4, 5, 14, -12, -15, -16};
Plane Surface(5) = {5};
Curve Loop(6) = {-6, 14, 13, -9};
Plane Surface(6) = {6};
Curve Loop(7) = {-10, -17, 15, 17};
Surface(7) = {7};
Curve Loop(8) = {-11, -18, 16, 18};
Surface(8) = {8};
Surface Loop(1) = {1, 2, 3, 4, 5, 6, 7, 8};
Volume(1) = {1};
Physical Surface("INFLOW") = {1};
Physical Surface("OUTFLOW") = {6};
Physical Surface("OBSTACLE") = {7, 8};
Physical Surface("WALL_Y") = {2, 4};
Physical Surface("WALL_Z") = {3, 5};
Physical Volume("FLUID") = {1};
