cl__1 = 1.616727;
cl__2 = 1.540959;
cl__3 = 1.323345;
cl__4 = 0.127234;
cl__5 = 0.107524;
Point(1) = {0.430456, -4.377798, 1, cl__1};
Point(2) = {0.430456, -4.377798, 0, cl__1};
Point(3) = {0.430456, 4.398892999999999, 1, cl__2};
Point(4) = {0.430456, 4.398892999999999, 0, cl__2};
Point(5) = {32.587384, -4.377798, 0, cl__3};
Point(6) = {32.587384, -4.377798, 1, cl__3};
Point(7) = {32.587384, 4.398892999999999, 1, cl__2};
Point(8) = {15.799099, -0.9554820000000004, 1, cl__4};
Point(9) = {17.981497, 0.7066839999999996, 1, cl__5};
Point(10) = {32.587384, 4.398892999999999, 0, cl__2};
Point(11) = {15.799099, -0.9554820000000004, 0, cl__4};
Point(12) = {17.981497, 0.7066839999999996, 0, cl__5};
Line(1) = {2, 1};
Line(2) = {1, 3};
Line(3) = {4, 3};
Line(4) = {2, 4};
Line(5) = {2, 5};
Line(6) = {5, 6};
Line(7) = {1, 6};
Line(8) = {3, 7};
Line(9) = {6, 7};
p10 = newp;
Point(p10 + 1) = {15.7834343586495, -0.7564438598817826, 1};
Point(p10 + 2) = {15.73682615005601, -0.5623066993429907, 1};
Point(p10 + 3) = {15.66042202299888, -0.3778508195803856, 1};
Point(p10 + 4) = {15.55610330065701, -0.2076181365276901, 1};
Point(p10 + 5) = {15.42643865618845, -0.05580034381154586, 1};
Point(p10 + 6) = {15.27462086347231, 0.07386430065700933, 1};
Point(p10 + 7) = {15.10438818041961, 0.1781830229988762, 1};
Point(p10 + 8) = {14.91993230065701, 0.2545871500560083, 1};
Point(p10 + 9) = {14.72579514011822, 0.3011953586494988, 1};
Point(p10 + 10) = {14.526757, 0.31686, 1};
Point(p10 + 11) = {14.32771885988178, 0.3011953586494988, 1};
Point(p10 + 12) = {14.13358169934299, 0.2545871500560083, 1};
Point(p10 + 13) = {13.94912581958039, 0.1781830229988765, 1};
Point(p10 + 14) = {13.77889313652769, 0.07386430065700933, 1};
Point(p10 + 15) = {13.62707534381155, -0.05580034381154564, 1};
Point(p10 + 16) = {13.49741069934299, -0.20761813652769, 1};
Point(p10 + 17) = {13.39309197700112, -0.3778508195803855, 1};
Point(p10 + 18) = {13.31668784994399, -0.5623066993429906, 1};
Point(p10 + 19) = {13.2700796413505, -0.7564438598817824, 1};
Point(p10 + 20) = {13.254415, -0.9554819999999999, 1};
Point(p10 + 21) = {13.2700796413505, -1.154520140118217, 1};
Point(p10 + 22) = {13.31668784994399, -1.34865730065701, 1};
Point(p10 + 23) = {13.39309197700112, -1.533113180419614, 1};
Point(p10 + 24) = {13.49741069934299, -1.70334586347231, 1};
Point(p10 + 25) = {13.62707534381155, -1.855163656188454, 1};
Point(p10 + 26) = {13.77889313652769, -1.984828300657009, 1};
Point(p10 + 27) = {13.94912581958038, -2.089147022998876, 1};
Point(p10 + 28) = {14.13358169934299, -2.165551150056008, 1};
Point(p10 + 29) = {14.32771885988178, -2.212159358649499, 1};
Point(p10 + 30) = {14.526757, -2.227824, 1};
Point(p10 + 31) = {14.72579514011822, -2.212159358649499, 1};
Point(p10 + 32) = {14.91993230065701, -2.165551150056008, 1};
Point(p10 + 33) = {15.10438818041961, -2.089147022998877, 1};
Point(p10 + 34) = {15.27462086347231, -1.98482830065701, 1};
Point(p10 + 35) = {15.42643865618845, -1.855163656188455, 1};
Point(p10 + 36) = {15.55610330065701, -1.70334586347231, 1};
Point(p10 + 37) = {15.66042202299888, -1.533113180419615, 1};
Point(p10 + 38) = {15.73682615005601, -1.34865730065701, 1};
Point(p10 + 39) = {15.7834343586495, -1.154520140118218, 1};
Spline(10) = {8, p10 + 1, p10 + 2, p10 + 3, p10 + 4, p10 + 5, p10 + 6, p10 + 7, p10 + 8, p10 + 9, p10 + 10, p10 + 11, p10 + 12, p10 + 13, p10 + 14, p10 + 15, p10 + 16, p10 + 17, p10 + 18, p10 + 19, p10 + 20, p10 + 21, p10 + 22, p10 + 23, p10 + 24, p10 + 25, p10 + 26, p10 + 27, p10 + 28, p10 + 29, p10 + 30, p10 + 31, p10 + 32, p10 + 33, p10 + 34, p10 + 35, p10 + 36, p10 + 37, p10 + 38, p10 + 39, 8};
p11 = newp;
Point(p11 + 1) = {17.96825907289982, 0.8748878120175326, 1};
Point(p11 + 2) = {17.92887125329862, 1.038949887946746, 1};
Point(p11 + 3) = {17.86430340003568, 1.194830474987451, 1};
Point(p11 + 4) = {17.77614538794675, 1.338691275748697, 1};
Point(p11 + 5) = {17.66656795986912, 1.466989959869117, 1};
Point(p11 + 6) = {17.5382692757487, 1.576567387946747, 1};
Point(p11 + 7) = {17.39440847498745, 1.664725400035679, 1};
Point(p11 + 8) = {17.23852788794675, 1.729293253298619, 1};
Point(p11 + 9) = {17.07446581201754, 1.768681072899813, 1};
Point(p11 + 10) = {16.906262, 1.781919, 1};
Point(p11 + 11) = {16.73805818798247, 1.768681072899813, 1};
Point(p11 + 12) = {16.57399611205325, 1.72929325329862, 1};
Point(p11 + 13) = {16.41811552501255, 1.66472540003568, 1};
Point(p11 + 14) = {16.2742547242513, 1.576567387946747, 1};
Point(p11 + 15) = {16.14595604013088, 1.466989959869117, 1};
Point(p11 + 16) = {16.03637861205326, 1.338691275748698, 1};
Point(p11 + 17) = {15.94822059996432, 1.194830474987452, 1};
Point(p11 + 18) = {15.88365274670138, 1.038949887946747, 1};
Point(p11 + 19) = {15.84426492710019, 0.8748878120175327, 1};
Point(p11 + 20) = {15.831027, 0.7066840000000001, 1};
Point(p11 + 21) = {15.84426492710019, 0.5384801879824674, 1};
Point(p11 + 22) = {15.88365274670138, 0.3744181120532531, 1};
Point(p11 + 23) = {15.94822059996432, 0.218537525012549, 1};
Point(p11 + 24) = {16.03637861205326, 0.07467672425130278, 1};
Point(p11 + 25) = {16.14595604013088, -0.05362195986911733, 1};
Point(p11 + 26) = {16.2742547242513, -0.1631993879467465, 1};
Point(p11 + 27) = {16.41811552501255, -0.2513574000356796, 1};
Point(p11 + 28) = {16.57399611205325, -0.3159252532986193, 1};
Point(p11 + 29) = {16.73805818798247, -0.3553130728998127, 1};
Point(p11 + 30) = {16.906262, -0.368551, 1};
Point(p11 + 31) = {17.07446581201754, -0.355313072899813, 1};
Point(p11 + 32) = {17.23852788794675, -0.3159252532986195, 1};
Point(p11 + 33) = {17.39440847498745, -0.2513574000356797, 1};
Point(p11 + 34) = {17.5382692757487, -0.1631993879467467, 1};
Point(p11 + 35) = {17.66656795986912, -0.05362195986911755, 1};
Point(p11 + 36) = {17.77614538794675, 0.07467672425130245, 1};
Point(p11 + 37) = {17.86430340003568, 0.2185375250125482, 1};
Point(p11 + 38) = {17.92887125329862, 0.3744181120532532, 1};
Point(p11 + 39) = {17.96825907289982, 0.5384801879824671, 1};
Spline(11) = {9, p11 + 1, p11 + 2, p11 + 3, p11 + 4, p11 + 5, p11 + 6, p11 + 7, p11 + 8, p11 + 9, p11 + 10, p11 + 11, p11 + 12, p11 + 13, p11 + 14, p11 + 15, p11 + 16, p11 + 17, p11 + 18, p11 + 19, p11 + 20, p11 + 21, p11 + 22, p11 + 23, p11 + 24, p11 + 25, p11 + 26, p11 + 27, p11 + 28, p11 + 29, p11 + 30, p11 + 31, p11 + 32, p11 + 33, p11 + 34, p11 + 35, p11 + 36, p11 + 37, p11 + 38, p11 + 39, 9};
Line(12) = {4, 10};
Line(13) = {10, 7};
Line(14) = {5, 10};
p15 = newp;
Point(p15 + 1) = {15.7834343586495, -0.7564438598817826, 0};
Point(p15 + 2) = {15.73682615005601, -0.5623066993429907, 0};
Point(p15 + 3) = {15.66042202299888, -0.3778508195803856, 0};
Point(p15 + 4) = {15.55610330065701, -0.2076181365276901, 0};
Point(p15 + 5) = {15.42643865618845, -0.05580034381154586, 0};
Point(p15 + 6) = {15.27462086347231, 0.07386430065700933, 0};
Point(p15 + 7) = {15.10438818041961, 0.1781830229988762, 0};
Point(p15 + 8) = {14.91993230065701, 0.2545871500560083, 0};
Point(p15 + 9) = {14.72579514011822, 0.3011953586494988, 0};
Point(p15 + 10) = {14.526757, 0.31686, 0};
Point(p15 + 11) = {14.32771885988178, 0.3011953586494988, 0};
Point(p15 + 12) = {14.13358169934299, 0.2545871500560083, 0};
Point(p15 + 13) = {13.94912581958039, 0.1781830229988765, 0};
Point(p15 + 14) = {13.77889313652769, 0.07386430065700933, 0};
Point(p15 + 15) = {13.62707534381155, -0.05580034381154564, 0};
Point(p15 + 16) = {13.49741069934299, -0.20761813652769, 0};
Point(p15 + 17) = {13.39309197700112, -0.3778508195803855, 0};
Point(p15 + 18) = {13.31668784994399, -0.5623066993429906, 0};
Point(p15 + 19) = {13.2700796413505, -0.7564438598817824, 0};
Point(p15 + 20) = {13.254415, -0.9554819999999999, 0};
Point(p15 + 21) = {13.2700796413505, -1.154520140118217, 0};
Point(p15 + 22) = {13.31668784994399, -1.34865730065701, 0};
Point(p15 + 23) = {13.39309197700112, -1.533113180419614, 0};
Point(p15 + 24) = {13.49741069934299, -1.70334586347231, 0};
Point(p15 + 25) = {13.62707534381155, -1.855163656188454, 0};
Point(p15 + 26) = {13.77889313652769, -1.984828300657009, 0};
Point(p15 + 27) = {13.94912581958038, -2.089147022998876, 0};
Point(p15 + 28) = {14.13358169934299, -2.165551150056008, 0};
Point(p15 + 29) = {14.32771885988178, -2.212159358649499, 0};
Point(p15 + 30) = {14.526757, -2.227824, 0};
Point(p15 + 31) = {14.72579514011822, -2.212159358649499, 0};
Point(p15 + 32) = {14.91993230065701, -2.165551150056008, 0};
Point(p15 + 33) = {15.10438818041961, -2.089147022998877, 0};
Point(p15 + 34) = {15.27462086347231, -1.98482830065701, 0};
Point(p15 + 35) = {15.42643865618845, -1.855163656188455, 0};
Point(p15 + 36) = {15.55610330065701, -1.70334586347231, 0};
Point(p15 + 37) = {15.66042202299888, -1.533113180419615, 0};
Point(p15 + 38) = {15.73682615005601, -1.34865730065701, 0};
Point(p15 + 39) = {15.7834343586495, -1.154520140118218, 0};
Spline(15) = {11, p15 + 1, p15 + 2, p15 + 3, p15 + 4, p15 + 5, p15 + 6, p15 + 7, p15 + 8, p15 + 9, p15 + 10, p15 + 11, p15 + 12, p15 + 13, p15 + 14, p15 + 15, p15 + 16, p15 + 17, p15 + 18, p15 + 19, p15 + 20, p15 + 21, p15 + 22, p15 + 23, p15 + 24, p15 + 25, p15 + 26, p15 + 27, p15 + 28, p15 + 29, p15 + 30, p15 + 31, p15 + 32, p15 + 33, p15 + 34, p15 + 35, p15 + 36, p15 + 37, p15 + 38, p15 + 39, 11};
p16 = newp;
Point(p16 + 1) = {17.96825907289982, 0.8748878120175326, 0};
Point(p16 + 2) = {17.92887125329862, 1.038949887946746, 0};
Point(p16 + 3) = {17.86430340003568, 1.194830474987451, 0};
Point(p16 + 4) = {17.77614538794675, 1.338691275748697, 0};
Point(p16 + 5) = {17.66656795986912, 1.466989959869117, 0};
Point(p16 + 6) = {17.5382692757487, 1.576567387946747, 0};
Point(p16 + 7) = {17.39440847498745, 1.664725400035679, 0};
Point(p16 + 8) = {17.23852788794675, 1.729293253298619, 0};
Point(p16 + 9) = {17.07446581201754, 1.768681072899813, 0};
Point(p16 + 10) = {16.906262, 1.781919, 0};
Point(p16 + 11) = {16.73805818798247, 1.768681072899813, 0};
Point(p16 + 12) = {16.57399611205325, 1.72929325329862, 0};
Point(p16 + 13) = {16.41811552501255, 1.66472540003568, 0};
Point(p16 + 14) = {16.2742547242513, 1.576567387946747, 0};
Point(p16 + 15) = {16.14595604013088, 1.466989959869117, 0};
Point(p16 + 16) = {16.03637861205326, 1.338691275748698, 0};
Point(p16 + 17) = {15.94822059996432, 1.194830474987452, 0};
Point(p16 + 18) = {15.88365274670138, 1.038949887946747, 0};
Point(p16 + 19) = {15.84426492710019, 0.8748878120175327, 0};
Point(p16 + 20) = {15.831027, 0.7066840000000001, 0};
Point(p16 + 21) = {15.84426492710019, 0.5384801879824674, 0};
Point(p16 + 22) = {15.88365274670138, 0.3744181120532531, 0};
Point(p16 + 23) = {15.94822059996432, 0.218537525012549, 0};
Point(p16 + 24) = {16.03637861205326, 0.07467672425130278, 0};
Point(p16 + 25) = {16.14595604013088, -0.05362195986911733, 0};
Point(p16 + 26) = {16.2742547242513, -0.1631993879467465, 0};
Point(p16 + 27) = {16.41811552501255, -0.2513574000356796, 0};
Point(p16 + 28) = {16.57399611205325, -0.3159252532986193, 0};
Point(p16 + 29) = {16.73805818798247, -0.3553130728998127, 0};
Point(p16 + 30) = {16.906262, -0.368551, 0};
Point(p16 + 31) = {17.07446581201754, -0.355313072899813, 0};
Point(p16 + 32) = {17.23852788794675, -0.3159252532986195, 0};
Point(p16 + 33) = {17.39440847498745, -0.2513574000356797, 0};
Point(p16 + 34) = {17.5382692757487, -0.1631993879467467, 0};
Point(p16 + 35) = {17.66656795986912, -0.05362195986911755, 0};
Point(p16 + 36) = {17.77614538794675, 0.07467672425130245, 0};
Point(p16 + 37) = {17.86430340003568, 0.2185375250125482, 0};
Point(p16 + 38) = {17.92887125329862, 0.3744181120532532, 0};
Point(p16 + 39) = {17.96825907289982, 0.5384801879824671, 0};
Spline(16) = {12, p16 + 1, p16 + 2, p16 + 3, p16 + 4, p16 + 5, p16 + 6, p16 + 7, p16 + 8, p16 + 9, p16 + 10, p16 + 11, p16 + 12, p16 + 13, p16 + 14, p16 + 15, p16 + 16, p16 + 17, p16 + 18, p16 + 19, p16 + 20, p16 + 21, p16 + 22, p16 + 23, p16 + 24, p16 + 25, p16 + 26, p16 + 27, p16 + 28, p16 + 29, p16 + 30, p16 + 31, p16 + 32, p16 + 33, p16 + 34, p16 + 35, p16 + 36, p16 + 37, p16 + 38, p16 + 39, 12};
Line(17) = {11, 8};
Line(18) = {12, 9};
Curve Loop(1) = {-1, 4, 3, -2};
Plane Surface(1) = {1};
Curve Loop(2) = {-5, 1, 7, -6};
Plane Surface(2) = {2};
Curve Loop(3) = {-2, 7, 9, -8, -10, -11};
Plane Surface(3) = {3};
Curve Loop(4) = {-12, 3, 8, -13};
Plane Surface(4) = {4};
Curve Loop(5) = {-4, 5, 14, -12, -15, -16};
Plane Surface(5) = {5};
Curve Loop(6) = {-6, 14, 13, -9};
Plane Surface(6) = {6};
Curve Loop(7) = {-10, -17, 15, 17};
Surface(7) = {7};
Curve Loop(8) = {-11, -18, 16, 18};
Surface(8) = {8};
Surface Loop(1) = {1, 2, 3, 4, 5, 6, 7, 8};
Volume(1) = {1};
Physical Surface("INFLOW") = {1};
Physical Surface("OUTFLOW") = {6};
Physical Surface("OBSTACLE") = {7, 8};
Physical Surface("WALL_Y") = {2, 4};
Physical Surface("WALL_Z") = {3, 5};
Physical Volume("FLUID") = {1};
