cl__1 = 0.52577;
cl__2 = 1.466275;
cl__3 = 3.47904;
cl__4 = 0.075629;
cl__5 = 0.06936100000000001;
Point(1) = {0.937585, -3.377313, 1, cl__1};
Point(2) = {0.937585, -3.377313, 0, cl__1};
Point(3) = {0.937585, 4.943171, 1, cl__2};
Point(4) = {0.937585, 4.943171, 0, cl__2};
Point(5) = {34.540768, -3.377313, 0, cl__1};
Point(6) = {34.540768, -3.377313, 1, cl__1};
Point(7) = {34.540768, 4.943171, 1, cl__3};
Point(8) = {20.555473, 1.142933, 1, cl__4};
Point(9) = {3.026653, 2.408084999999999, 1, cl__5};
Point(10) = {34.540768, 4.943171, 0, cl__3};
Point(11) = {20.555473, 1.142933, 0, cl__4};
Point(12) = {3.026653, 2.408084999999999, 0, cl__5};
Line(1) = {2, 1};
Line(2) = {1, 3};
Line(3) = {4, 3};
Line(4) = {2, 4};
Line(5) = {2, 5};
Line(6) = {5, 6};
Line(7) = {1, 6};
Line(8) = {3, 7};
Line(9) = {6, 7};
p10 = newp;
Point(p10 + 1) = {20.54616186435533, 1.261242195827416, 1};
Point(p10 + 2) = {20.5184577284828, 1.376638226607851, 1};
Point(p10 + 3) = {20.47304276015232, 1.486279659086023, 1};
Point(p10 + 4) = {20.41103522660785, 1.587466757315265, 1};
Point(p10 + 5) = {20.33396195911645, 1.677707959116449, 1};
Point(p10 + 6) = {20.24372075731527, 1.754781226607852, 1};
Point(p10 + 7) = {20.14253365908602, 1.816788760152324, 1};
Point(p10 + 8) = {20.03289222660785, 1.862203728482796, 1};
Point(p10 + 9) = {19.91749619582741, 1.889907864355334, 1};
Point(p10 + 10) = {19.799187, 1.899219, 1};
Point(p10 + 11) = {19.68087780417259, 1.889907864355334, 1};
Point(p10 + 12) = {19.56548177339215, 1.862203728482797, 1};
Point(p10 + 13) = {19.45584034091398, 1.816788760152324, 1};
Point(p10 + 14) = {19.35465324268473, 1.754781226607852, 1};
Point(p10 + 15) = {19.26441204088355, 1.677707959116449, 1};
Point(p10 + 16) = {19.18733877339215, 1.587466757315265, 1};
Point(p10 + 17) = {19.12533123984768, 1.486279659086023, 1};
Point(p10 + 18) = {19.0799162715172, 1.376638226607852, 1};
Point(p10 + 19) = {19.05221213564467, 1.261242195827416, 1};
Point(p10 + 20) = {19.042901, 1.142933, 1};
Point(p10 + 21) = {19.05221213564467, 1.024623804172584, 1};
Point(p10 + 22) = {19.0799162715172, 0.9092277733921482, 1};
Point(p10 + 23) = {19.12533123984768, 0.7995863409139775, 1};
Point(p10 + 24) = {19.18733877339215, 0.6983992426847347, 1};
Point(p10 + 25) = {19.26441204088355, 0.6081580408835507, 1};
Point(p10 + 26) = {19.35465324268473, 0.5310847733921485, 1};
Point(p10 + 27) = {19.45584034091398, 0.469077239847676, 1};
Point(p10 + 28) = {19.56548177339215, 0.4236622715172035, 1};
Point(p10 + 29) = {19.68087780417259, 0.3959581356446656, 1};
Point(p10 + 30) = {19.799187, 0.386647, 1};
Point(p10 + 31) = {19.91749619582741, 0.3959581356446656, 1};
Point(p10 + 32) = {20.03289222660785, 0.4236622715172034, 1};
Point(p10 + 33) = {20.14253365908602, 0.4690772398476759, 1};
Point(p10 + 34) = {20.24372075731527, 0.5310847733921483, 1};
Point(p10 + 35) = {20.33396195911645, 0.6081580408835505, 1};
Point(p10 + 36) = {20.41103522660785, 0.6983992426847345, 1};
Point(p10 + 37) = {20.47304276015232, 0.799586340913977, 1};
Point(p10 + 38) = {20.5184577284828, 0.9092277733921483, 1};
Point(p10 + 39) = {20.54616186435533, 1.024623804172584, 1};
Spline(10) = {8, p10 + 1, p10 + 2, p10 + 3, p10 + 4, p10 + 5, p10 + 6, p10 + 7, p10 + 8, p10 + 9, p10 + 10, p10 + 11, p10 + 12, p10 + 13, p10 + 14, p10 + 15, p10 + 16, p10 + 17, p10 + 18, p10 + 19, p10 + 20, p10 + 21, p10 + 22, p10 + 23, p10 + 24, p10 + 25, p10 + 26, p10 + 27, p10 + 28, p10 + 29, p10 + 30, p10 + 31, p10 + 32, p10 + 33, p10 + 34, p10 + 35, p10 + 36, p10 + 37, p10 + 38, p10 + 39, 8};
p11 = newp;
Point(p11 + 1) = {3.018113448361897, 2.51659029146888, 1};
Point(p11 + 2) = {2.992705065550063, 2.622423822553379, 1};
Point(p11 + 3) = {2.951053490274915, 2.722979620476845, 1};
Point(p11 + 4) = {2.894184322553379, 2.815781667768844, 1};
Point(p11 + 5) = {2.823497870032707, 2.898544870032707, 1};
Point(p11 + 6) = {2.740734667768844, 2.969231322553379, 1};
Point(p11 + 7) = {2.647932620476846, 3.026100490274914, 1};
Point(p11 + 8) = {2.547376822553379, 3.067752065550063, 1};
Point(p11 + 9) = {2.44154329146888, 3.093160448361896, 1};
Point(p11 + 10) = {2.333038, 3.1017, 1};
Point(p11 + 11) = {2.22453270853112, 3.093160448361896, 1};
Point(p11 + 12) = {2.118699177446621, 3.067752065550063, 1};
Point(p11 + 13) = {2.018143379523154, 3.026100490274914, 1};
Point(p11 + 14) = {1.925341332231157, 2.969231322553379, 1};
Point(p11 + 15) = {1.842578129967293, 2.898544870032707, 1};
Point(p11 + 16) = {1.771891677446621, 2.815781667768844, 1};
Point(p11 + 17) = {1.715022509725086, 2.722979620476845, 1};
Point(p11 + 18) = {1.673370934449937, 2.622423822553379, 1};
Point(p11 + 19) = {1.647962551638104, 2.51659029146888, 1};
Point(p11 + 20) = {1.639423, 2.408085, 1};
Point(p11 + 21) = {1.647962551638104, 2.29957970853112, 1};
Point(p11 + 22) = {1.673370934449937, 2.19374617744662, 1};
Point(p11 + 23) = {1.715022509725085, 2.093190379523155, 1};
Point(p11 + 24) = {1.771891677446621, 2.000388332231156, 1};
Point(p11 + 25) = {1.842578129967293, 1.917625129967293, 1};
Point(p11 + 26) = {1.925341332231156, 1.846938677446621, 1};
Point(p11 + 27) = {2.018143379523154, 1.790069509725085, 1};
Point(p11 + 28) = {2.118699177446621, 1.748417934449937, 1};
Point(p11 + 29) = {2.22453270853112, 1.723009551638103, 1};
Point(p11 + 30) = {2.333038, 1.71447, 1};
Point(p11 + 31) = {2.44154329146888, 1.723009551638103, 1};
Point(p11 + 32) = {2.547376822553379, 1.748417934449937, 1};
Point(p11 + 33) = {2.647932620476846, 1.790069509725085, 1};
Point(p11 + 34) = {2.740734667768844, 1.846938677446621, 1};
Point(p11 + 35) = {2.823497870032707, 1.917625129967293, 1};
Point(p11 + 36) = {2.894184322553379, 2.000388332231156, 1};
Point(p11 + 37) = {2.951053490274915, 2.093190379523154, 1};
Point(p11 + 38) = {2.992705065550063, 2.19374617744662, 1};
Point(p11 + 39) = {3.018113448361897, 2.29957970853112, 1};
Spline(11) = {9, p11 + 1, p11 + 2, p11 + 3, p11 + 4, p11 + 5, p11 + 6, p11 + 7, p11 + 8, p11 + 9, p11 + 10, p11 + 11, p11 + 12, p11 + 13, p11 + 14, p11 + 15, p11 + 16, p11 + 17, p11 + 18, p11 + 19, p11 + 20, p11 + 21, p11 + 22, p11 + 23, p11 + 24, p11 + 25, p11 + 26, p11 + 27, p11 + 28, p11 + 29, p11 + 30, p11 + 31, p11 + 32, p11 + 33, p11 + 34, p11 + 35, p11 + 36, p11 + 37, p11 + 38, p11 + 39, 9};
Line(12) = {4, 10};
Line(13) = {10, 7};
Line(14) = {5, 10};
p15 = newp;
Point(p15 + 1) = {20.54616186435533, 1.261242195827416, 0};
Point(p15 + 2) = {20.5184577284828, 1.376638226607851, 0};
Point(p15 + 3) = {20.47304276015232, 1.486279659086023, 0};
Point(p15 + 4) = {20.41103522660785, 1.587466757315265, 0};
Point(p15 + 5) = {20.33396195911645, 1.677707959116449, 0};
Point(p15 + 6) = {20.24372075731527, 1.754781226607852, 0};
Point(p15 + 7) = {20.14253365908602, 1.816788760152324, 0};
Point(p15 + 8) = {20.03289222660785, 1.862203728482796, 0};
Point(p15 + 9) = {19.91749619582741, 1.889907864355334, 0};
Point(p15 + 10) = {19.799187, 1.899219, 0};
Point(p15 + 11) = {19.68087780417259, 1.889907864355334, 0};
Point(p15 + 12) = {19.56548177339215, 1.862203728482797, 0};
Point(p15 + 13) = {19.45584034091398, 1.816788760152324, 0};
Point(p15 + 14) = {19.35465324268473, 1.754781226607852, 0};
Point(p15 + 15) = {19.26441204088355, 1.677707959116449, 0};
Point(p15 + 16) = {19.18733877339215, 1.587466757315265, 0};
Point(p15 + 17) = {19.12533123984768, 1.486279659086023, 0};
Point(p15 + 18) = {19.0799162715172, 1.376638226607852, 0};
Point(p15 + 19) = {19.05221213564467, 1.261242195827416, 0};
Point(p15 + 20) = {19.042901, 1.142933, 0};
Point(p15 + 21) = {19.05221213564467, 1.024623804172584, 0};
Point(p15 + 22) = {19.0799162715172, 0.9092277733921482, 0};
Point(p15 + 23) = {19.12533123984768, 0.7995863409139775, 0};
Point(p15 + 24) = {19.18733877339215, 0.6983992426847347, 0};
Point(p15 + 25) = {19.26441204088355, 0.6081580408835507, 0};
Point(p15 + 26) = {19.35465324268473, 0.5310847733921485, 0};
Point(p15 + 27) = {19.45584034091398, 0.469077239847676, 0};
Point(p15 + 28) = {19.56548177339215, 0.4236622715172035, 0};
Point(p15 + 29) = {19.68087780417259, 0.3959581356446656, 0};
Point(p15 + 30) = {19.799187, 0.386647, 0};
Point(p15 + 31) = {19.91749619582741, 0.3959581356446656, 0};
Point(p15 + 32) = {20.03289222660785, 0.4236622715172034, 0};
Point(p15 + 33) = {20.14253365908602, 0.4690772398476759, 0};
Point(p15 + 34) = {20.24372075731527, 0.5310847733921483, 0};
Point(p15 + 35) = {20.33396195911645, 0.6081580408835505, 0};
Point(p15 + 36) = {20.41103522660785, 0.6983992426847345, 0};
Point(p15 + 37) = {20.47304276015232, 0.799586340913977, 0};
Point(p15 + 38) = {20.5184577284828, 0.9092277733921483, 0};
Point(p15 + 39) = {20.54616186435533, 1.024623804172584, 0};
Spline(15) = {11, p15 + 1, p15 + 2, p15 + 3, p15 + 4, p15 + 5, p15 + 6, p15 + 7, p15 + 8, p15 + 9, p15 + 10, p15 + 11, p15 + 12, p15 + 13, p15 + 14, p15 + 15, p15 + 16, p15 + 17, p15 + 18, p15 + 19, p15 + 20, p15 + 21, p15 + 22, p15 + 23, p15 + 24, p15 + 25, p15 + 26, p15 + 27, p15 + 28, p15 + 29, p15 + 30, p15 + 31, p15 + 32, p15 + 33, p15 + 34, p15 + 35, p15 + 36, p15 + 37, p15 + 38, p15 + 39, 11};
p16 = newp;
Point(p16 + 1) = {3.018113448361897, 2.51659029146888, 0};
Point(p16 + 2) = {2.992705065550063, 2.622423822553379, 0};
Point(p16 + 3) = {2.951053490274915, 2.722979620476845, 0};
Point(p16 + 4) = {2.894184322553379, 2.815781667768844, 0};
Point(p16 + 5) = {2.823497870032707, 2.898544870032707, 0};
Point(p16 + 6) = {2.740734667768844, 2.969231322553379, 0};
Point(p16 + 7) = {2.647932620476846, 3.026100490274914, 0};
Point(p16 + 8) = {2.547376822553379, 3.067752065550063, 0};
Point(p16 + 9) = {2.44154329146888, 3.093160448361896, 0};
Point(p16 + 10) = {2.333038, 3.1017, 0};
Point(p16 + 11) = {2.22453270853112, 3.093160448361896, 0};
Point(p16 + 12) = {2.118699177446621, 3.067752065550063, 0};
Point(p16 + 13) = {2.018143379523154, 3.026100490274914, 0};
Point(p16 + 14) = {1.925341332231157, 2.969231322553379, 0};
Point(p16 + 15) = {1.842578129967293, 2.898544870032707, 0};
Point(p16 + 16) = {1.771891677446621, 2.815781667768844, 0};
Point(p16 + 17) = {1.715022509725086, 2.722979620476845, 0};
Point(p16 + 18) = {1.673370934449937, 2.622423822553379, 0};
Point(p16 + 19) = {1.647962551638104, 2.51659029146888, 0};
Point(p16 + 20) = {1.639423, 2.408085, 0};
Point(p16 + 21) = {1.647962551638104, 2.29957970853112, 0};
Point(p16 + 22) = {1.673370934449937, 2.19374617744662, 0};
Point(p16 + 23) = {1.715022509725085, 2.093190379523155, 0};
Point(p16 + 24) = {1.771891677446621, 2.000388332231156, 0};
Point(p16 + 25) = {1.842578129967293, 1.917625129967293, 0};
Point(p16 + 26) = {1.925341332231156, 1.846938677446621, 0};
Point(p16 + 27) = {2.018143379523154, 1.790069509725085, 0};
Point(p16 + 28) = {2.118699177446621, 1.748417934449937, 0};
Point(p16 + 29) = {2.22453270853112, 1.723009551638103, 0};
Point(p16 + 30) = {2.333038, 1.71447, 0};
Point(p16 + 31) = {2.44154329146888, 1.723009551638103, 0};
Point(p16 + 32) = {2.547376822553379, 1.748417934449937, 0};
Point(p16 + 33) = {2.647932620476846, 1.790069509725085, 0};
Point(p16 + 34) = {2.740734667768844, 1.846938677446621, 0};
Point(p16 + 35) = {2.823497870032707, 1.917625129967293, 0};
Point(p16 + 36) = {2.894184322553379, 2.000388332231156, 0};
Point(p16 + 37) = {2.951053490274915, 2.093190379523154, 0};
Point(p16 + 38) = {2.992705065550063, 2.19374617744662, 0};
Point(p16 + 39) = {3.018113448361897, 2.29957970853112, 0};
Spline(16) = {12, p16 + 1, p16 + 2, p16 + 3, p16 + 4, p16 + 5, p16 + 6, p16 + 7, p16 + 8, p16 + 9, p16 + 10, p16 + 11, p16 + 12, p16 + 13, p16 + 14, p16 + 15, p16 + 16, p16 + 17, p16 + 18, p16 + 19, p16 + 20, p16 + 21, p16 + 22, p16 + 23, p16 + 24, p16 + 25, p16 + 26, p16 + 27, p16 + 28, p16 + 29, p16 + 30, p16 + 31, p16 + 32, p16 + 33, p16 + 34, p16 + 35, p16 + 36, p16 + 37, p16 + 38, p16 + 39, 12};
Line(17) = {11, 8};
Line(18) = {12, 9};
Curve Loop(1) = {-1, 4, 3, -2};
Plane Surface(1) = {1};
Curve Loop(2) = {-5, 1, 7, -6};
Plane Surface(2) = {2};
Curve Loop(3) = {-2, 7, 9, -8, -10, -11};
Plane Surface(3) = {3};
Curve Loop(4) = {-12, 3, 8, -13};
Plane Surface(4) = {4};
Curve Loop(5) = {-4, 5, 14, -12, -15, -16};
Plane Surface(5) = {5};
Curve Loop(6) = {-6, 14, 13, -9};
Plane Surface(6) = {6};
Curve Loop(7) = {-10, -17, 15, 17};
Surface(7) = {7};
Curve Loop(8) = {-11, -18, 16, 18};
Surface(8) = {8};
Surface Loop(1) = {1, 2, 3, 4, 5, 6, 7, 8};
Volume(1) = {1};
Physical Surface("INFLOW") = {1};
Physical Surface("OUTFLOW") = {6};
Physical Surface("OBSTACLE") = {7, 8};
Physical Surface("WALL_Y") = {2, 4};
Physical Surface("WALL_Z") = {3, 5};
Physical Volume("FLUID") = {1};
