cl__1 = 3.272833;
cl__2 = 0.829148;
cl__3 = 0.8832680000000001;
cl__4 = 0.088699;
Point(1) = {0.398034, -3.24225, 1, cl__1};
Point(2) = {0.398034, -3.24225, 0, cl__1};
Point(3) = {0.398034, 4.541372000000001, 1, cl__1};
Point(4) = {0.398034, 4.541372000000001, 0, cl__1};
Point(5) = {32.496116, -3.24225, 0, cl__2};
Point(6) = {32.496116, -3.24225, 1, cl__2};
Point(7) = {32.496116, 4.541372000000001, 1, cl__3};
Point(8) = {24.793563, -0.007441000000000217, 1, cl__4};
Point(9) = {32.496116, 4.541372000000001, 0, cl__3};
Point(10) = {24.793563, -0.007441000000000217, 0, cl__4};
Line(1) = {2, 1};
Line(2) = {1, 3};
Line(3) = {4, 3};
Line(4) = {2, 4};
Line(5) = {2, 5};
Line(6) = {5, 6};
Line(7) = {1, 6};
Line(8) = {3, 7};
Line(9) = {6, 7};
p10 = newp;
Point(p10 + 1) = {24.78264271815946, 0.1313143368426392, 1};
Point(p10 + 2) = {24.75015076621909, 0.2666530567896515, 1};
Point(p10 + 3) = {24.69688720387027, 0.3952426713924814, 1};
Point(p10 + 4) = {24.62416355678965, 0.5139168775751438, 1};
Point(p10 + 5) = {24.53377052252431, 0.6197535225243122, 1};
Point(p10 + 6) = {24.42793387757515, 0.7101465567896514, 1};
Point(p10 + 7) = {24.30925967139248, 0.7828702038702677, 1};
Point(p10 + 8) = {24.18067005678965, 0.8361337662190893, 1};
Point(p10 + 9) = {24.04533133684264, 0.8686257181594594, 1};
Point(p10 + 10) = {23.906576, 0.8795459999999999, 1};
Point(p10 + 11) = {23.76782066315736, 0.8686257181594593, 1};
Point(p10 + 12) = {23.63248194321035, 0.8361337662190894, 1};
Point(p10 + 13) = {23.50389232860752, 0.7828702038702678, 1};
Point(p10 + 14) = {23.38521812242486, 0.7101465567896514, 1};
Point(p10 + 15) = {23.27938147747569, 0.6197535225243123, 1};
Point(p10 + 16) = {23.18898844321035, 0.5139168775751439, 1};
Point(p10 + 17) = {23.11626479612973, 0.3952426713924815, 1};
Point(p10 + 18) = {23.06300123378091, 0.2666530567896516, 1};
Point(p10 + 19) = {23.03050928184054, 0.1313143368426394, 1};
Point(p10 + 20) = {23.019589, -0.007440999999999891, 1};
Point(p10 + 21) = {23.03050928184054, -0.1461963368426391, 1};
Point(p10 + 22) = {23.06300123378091, -0.2815350567896517, 1};
Point(p10 + 23) = {23.11626479612973, -0.4101246713924809, 1};
Point(p10 + 24) = {23.18898844321035, -0.5287988775751438, 1};
Point(p10 + 25) = {23.27938147747569, -0.6346355225243122, 1};
Point(p10 + 26) = {23.38521812242486, -0.7250285567896514, 1};
Point(p10 + 27) = {23.50389232860752, -0.7977522038702678, 1};
Point(p10 + 28) = {23.63248194321035, -0.8510157662190894, 1};
Point(p10 + 29) = {23.76782066315736, -0.8835077181594594, 1};
Point(p10 + 30) = {23.906576, -0.894428, 1};
Point(p10 + 31) = {24.04533133684264, -0.8835077181594595, 1};
Point(p10 + 32) = {24.18067005678965, -0.8510157662190895, 1};
Point(p10 + 33) = {24.30925967139248, -0.7977522038702679, 1};
Point(p10 + 34) = {24.42793387757515, -0.7250285567896516, 1};
Point(p10 + 35) = {24.53377052252431, -0.6346355225243124, 1};
Point(p10 + 36) = {24.62416355678965, -0.5287988775751441, 1};
Point(p10 + 37) = {24.69688720387027, -0.4101246713924815, 1};
Point(p10 + 38) = {24.75015076621909, -0.2815350567896516, 1};
Point(p10 + 39) = {24.78264271815946, -0.1461963368426394, 1};
Spline(10) = {8, p10 + 1, p10 + 2, p10 + 3, p10 + 4, p10 + 5, p10 + 6, p10 + 7, p10 + 8, p10 + 9, p10 + 10, p10 + 11, p10 + 12, p10 + 13, p10 + 14, p10 + 15, p10 + 16, p10 + 17, p10 + 18, p10 + 19, p10 + 20, p10 + 21, p10 + 22, p10 + 23, p10 + 24, p10 + 25, p10 + 26, p10 + 27, p10 + 28, p10 + 29, p10 + 30, p10 + 31, p10 + 32, p10 + 33, p10 + 34, p10 + 35, p10 + 36, p10 + 37, p10 + 38, p10 + 39, 8};
Line(11) = {4, 9};
Line(12) = {9, 7};
Line(13) = {5, 9};
p14 = newp;
Point(p14 + 1) = {24.78264271815946, 0.1313143368426392, 0};
Point(p14 + 2) = {24.75015076621909, 0.2666530567896515, 0};
Point(p14 + 3) = {24.69688720387027, 0.3952426713924814, 0};
Point(p14 + 4) = {24.62416355678965, 0.5139168775751438, 0};
Point(p14 + 5) = {24.53377052252431, 0.6197535225243122, 0};
Point(p14 + 6) = {24.42793387757515, 0.7101465567896514, 0};
Point(p14 + 7) = {24.30925967139248, 0.7828702038702677, 0};
Point(p14 + 8) = {24.18067005678965, 0.8361337662190893, 0};
Point(p14 + 9) = {24.04533133684264, 0.8686257181594594, 0};
Point(p14 + 10) = {23.906576, 0.8795459999999999, 0};
Point(p14 + 11) = {23.76782066315736, 0.8686257181594593, 0};
Point(p14 + 12) = {23.63248194321035, 0.8361337662190894, 0};
Point(p14 + 13) = {23.50389232860752, 0.7828702038702678, 0};
Point(p14 + 14) = {23.38521812242486, 0.7101465567896514, 0};
Point(p14 + 15) = {23.27938147747569, 0.6197535225243123, 0};
Point(p14 + 16) = {23.18898844321035, 0.5139168775751439, 0};
Point(p14 + 17) = {23.11626479612973, 0.3952426713924815, 0};
Point(p14 + 18) = {23.06300123378091, 0.2666530567896516, 0};
Point(p14 + 19) = {23.03050928184054, 0.1313143368426394, 0};
Point(p14 + 20) = {23.019589, -0.007440999999999891, 0};
Point(p14 + 21) = {23.03050928184054, -0.1461963368426391, 0};
Point(p14 + 22) = {23.06300123378091, -0.2815350567896517, 0};
Point(p14 + 23) = {23.11626479612973, -0.4101246713924809, 0};
Point(p14 + 24) = {23.18898844321035, -0.5287988775751438, 0};
Point(p14 + 25) = {23.27938147747569, -0.6346355225243122, 0};
Point(p14 + 26) = {23.38521812242486, -0.7250285567896514, 0};
Point(p14 + 27) = {23.50389232860752, -0.7977522038702678, 0};
Point(p14 + 28) = {23.63248194321035, -0.8510157662190894, 0};
Point(p14 + 29) = {23.76782066315736, -0.8835077181594594, 0};
Point(p14 + 30) = {23.906576, -0.894428, 0};
Point(p14 + 31) = {24.04533133684264, -0.8835077181594595, 0};
Point(p14 + 32) = {24.18067005678965, -0.8510157662190895, 0};
Point(p14 + 33) = {24.30925967139248, -0.7977522038702679, 0};
Point(p14 + 34) = {24.42793387757515, -0.7250285567896516, 0};
Point(p14 + 35) = {24.53377052252431, -0.6346355225243124, 0};
Point(p14 + 36) = {24.62416355678965, -0.5287988775751441, 0};
Point(p14 + 37) = {24.69688720387027, -0.4101246713924815, 0};
Point(p14 + 38) = {24.75015076621909, -0.2815350567896516, 0};
Point(p14 + 39) = {24.78264271815946, -0.1461963368426394, 0};
Spline(14) = {10, p14 + 1, p14 + 2, p14 + 3, p14 + 4, p14 + 5, p14 + 6, p14 + 7, p14 + 8, p14 + 9, p14 + 10, p14 + 11, p14 + 12, p14 + 13, p14 + 14, p14 + 15, p14 + 16, p14 + 17, p14 + 18, p14 + 19, p14 + 20, p14 + 21, p14 + 22, p14 + 23, p14 + 24, p14 + 25, p14 + 26, p14 + 27, p14 + 28, p14 + 29, p14 + 30, p14 + 31, p14 + 32, p14 + 33, p14 + 34, p14 + 35, p14 + 36, p14 + 37, p14 + 38, p14 + 39, 10};
Line(15) = {10, 8};
Curve Loop(1) = {-1, 4, 3, -2};
Plane Surface(1) = {1};
Curve Loop(2) = {-5, 1, 7, -6};
Plane Surface(2) = {2};
Curve Loop(3) = {-2, 7, 9, -8, -10};
Plane Surface(3) = {3};
Curve Loop(4) = {-11, 3, 8, -12};
Plane Surface(4) = {4};
Curve Loop(5) = {-4, 5, 13, -11, -14};
Plane Surface(5) = {5};
Curve Loop(6) = {-6, 13, 12, -9};
Plane Surface(6) = {6};
Curve Loop(7) = {-10, -15, 14, 15};
Surface(7) = {7};
Surface Loop(1) = {1, 2, 3, 4, 5, 6, 7};
Volume(1) = {1};
Physical Surface("INFLOW") = {1};
Physical Surface("OUTFLOW") = {6};
Physical Surface("OBSTACLE") = {7};
Physical Surface("WALL_Y") = {2, 4};
Physical Surface("WALL_Z") = {3, 5};
Physical Volume("FLUID") = {1};
