cl__1 = 1;
cl__2 = 0.111198;
cl__3 = 0.060677;
Point(1) = {0.880132, -3.889715, 1, cl__1};
Point(2) = {0.880132, -3.889715, 0, cl__1};
Point(3) = {0.880132, 4.717796000000001, 1, cl__1};
Point(4) = {0.880132, 4.717796000000001, 0, cl__1};
Point(5) = {34.112518, -3.889715, 0, cl__1};
Point(6) = {34.112518, -3.889715, 1, cl__1};
Point(7) = {34.112518, 4.717796000000001, 1, cl__1};
Point(8) = {7.41415, 2.25902, 1, cl__2};
Point(9) = {9.946647, 2.402424, 1, cl__3};
Point(10) = {34.112518, 4.717796000000001, 0, cl__1};
Point(11) = {7.41415, 2.25902, 0, cl__2};
Point(12) = {9.946647, 2.402424, 0, cl__3};
Line(1) = {2, 1};
Line(2) = {1, 3};
Line(3) = {4, 3};
Line(4) = {2, 4};
Line(5) = {2, 5};
Line(6) = {5, 6};
Line(7) = {1, 6};
Line(8) = {3, 7};
Line(9) = {6, 7};
p10 = newp;
Point(p10 + 1) = {7.400459656351662, 2.432972309304366, 1};
Point(p10 + 2) = {7.359725727102918, 2.602641335439043, 1};
Point(p10 + 3) = {7.29295121678003, 2.763849263881381, 1};
Point(p10 + 4) = {7.201780335439043, 2.912626620414689, 1};
Point(p10 + 5) = {7.088458012757379, 3.045310012757379, 1};
Point(p10 + 6) = {6.955774620414688, 3.158632335439043, 1};
Point(p10 + 7) = {6.806997263881381, 3.249803216780029, 1};
Point(p10 + 8) = {6.645789335439042, 3.316577727102918, 1};
Point(p10 + 9) = {6.476120309304366, 3.357311656351663, 1};
Point(p10 + 10) = {6.302168, 3.371002, 1};
Point(p10 + 11) = {6.128215690695634, 3.357311656351663, 1};
Point(p10 + 12) = {5.958546664560957, 3.316577727102918, 1};
Point(p10 + 13) = {5.797338736118619, 3.24980321678003, 1};
Point(p10 + 14) = {5.648561379585312, 3.158632335439043, 1};
Point(p10 + 15) = {5.515877987242621, 3.04531001275738, 1};
Point(p10 + 16) = {5.402555664560957, 2.912626620414689, 1};
Point(p10 + 17) = {5.31138478321997, 2.763849263881381, 1};
Point(p10 + 18) = {5.244610272897082, 2.602641335439043, 1};
Point(p10 + 19) = {5.203876343648338, 2.432972309304366, 1};
Point(p10 + 20) = {5.190186, 2.25902, 1};
Point(p10 + 21) = {5.203876343648338, 2.085067690695634, 1};
Point(p10 + 22) = {5.244610272897082, 1.915398664560957, 1};
Point(p10 + 23) = {5.31138478321997, 1.75419073611862, 1};
Point(p10 + 24) = {5.402555664560957, 1.605413379585311, 1};
Point(p10 + 25) = {5.515877987242621, 1.472729987242621, 1};
Point(p10 + 26) = {5.648561379585311, 1.359407664560957, 1};
Point(p10 + 27) = {5.797338736118619, 1.268236783219971, 1};
Point(p10 + 28) = {5.958546664560957, 1.201462272897083, 1};
Point(p10 + 29) = {6.128215690695634, 1.160728343648338, 1};
Point(p10 + 30) = {6.302168, 1.147038, 1};
Point(p10 + 31) = {6.476120309304366, 1.160728343648338, 1};
Point(p10 + 32) = {6.645789335439042, 1.201462272897083, 1};
Point(p10 + 33) = {6.806997263881381, 1.26823678321997, 1};
Point(p10 + 34) = {6.955774620414688, 1.359407664560957, 1};
Point(p10 + 35) = {7.088458012757379, 1.47272998724262, 1};
Point(p10 + 36) = {7.201780335439043, 1.605413379585311, 1};
Point(p10 + 37) = {7.29295121678003, 1.754190736118619, 1};
Point(p10 + 38) = {7.359725727102918, 1.915398664560957, 1};
Point(p10 + 39) = {7.400459656351662, 2.085067690695634, 1};
Spline(10) = {8, p10 + 1, p10 + 2, p10 + 3, p10 + 4, p10 + 5, p10 + 6, p10 + 7, p10 + 8, p10 + 9, p10 + 10, p10 + 11, p10 + 12, p10 + 13, p10 + 14, p10 + 15, p10 + 16, p10 + 17, p10 + 18, p10 + 19, p10 + 20, p10 + 21, p10 + 22, p10 + 23, p10 + 24, p10 + 25, p10 + 26, p10 + 27, p10 + 28, p10 + 29, p10 + 30, p10 + 31, p10 + 32, p10 + 33, p10 + 34, p10 + 35, p10 + 36, p10 + 37, p10 + 38, p10 + 39, 8};
p11 = newp;
Point(p11 + 1) = {9.939176642111253, 2.497343896786926, 1};
Point(p11 + 2) = {9.916949513448927, 2.589926550693881, 1};
Point(p11 + 3) = {9.8805129196883, 2.677892269517464, 1};
Point(p11 + 4) = {9.830764050693881, 2.759075045318756, 1};
Point(p11 + 5) = {9.768927888727342, 2.831475888727343, 1};
Point(p11 + 6) = {9.696527045318756, 2.893312050693881, 1};
Point(p11 + 7) = {9.615344269517465, 2.9430609196883, 1};
Point(p11 + 8) = {9.527378550693882, 2.979497513448926, 1};
Point(p11 + 9) = {9.434795896786927, 3.001724642111252, 1};
Point(p11 + 10) = {9.339876, 3.009195, 1};
Point(p11 + 11) = {9.244956103213074, 3.001724642111252, 1};
Point(p11 + 12) = {9.152373449306118, 2.979497513448926, 1};
Point(p11 + 13) = {9.064407730482536, 2.9430609196883, 1};
Point(p11 + 14) = {8.983224954681244, 2.893312050693881, 1};
Point(p11 + 15) = {8.910824111272658, 2.831475888727343, 1};
Point(p11 + 16) = {8.848987949306119, 2.759075045318756, 1};
Point(p11 + 17) = {8.7992390803117, 2.677892269517464, 1};
Point(p11 + 18) = {8.762802486551074, 2.589926550693881, 1};
Point(p11 + 19) = {8.740575357888748, 2.497343896786926, 1};
Point(p11 + 20) = {8.733105, 2.402424, 1};
Point(p11 + 21) = {8.740575357888748, 2.307504103213074, 1};
Point(p11 + 22) = {8.762802486551074, 2.214921449306118, 1};
Point(p11 + 23) = {8.7992390803117, 2.126955730482536, 1};
Point(p11 + 24) = {8.848987949306119, 2.045772954681244, 1};
Point(p11 + 25) = {8.910824111272657, 1.973372111272657, 1};
Point(p11 + 26) = {8.983224954681244, 1.911535949306119, 1};
Point(p11 + 27) = {9.064407730482536, 1.8617870803117, 1};
Point(p11 + 28) = {9.152373449306118, 1.825350486551073, 1};
Point(p11 + 29) = {9.244956103213074, 1.803123357888748, 1};
Point(p11 + 30) = {9.339876, 1.795653, 1};
Point(p11 + 31) = {9.434795896786927, 1.803123357888748, 1};
Point(p11 + 32) = {9.527378550693882, 1.825350486551073, 1};
Point(p11 + 33) = {9.615344269517465, 1.8617870803117, 1};
Point(p11 + 34) = {9.696527045318756, 1.911535949306119, 1};
Point(p11 + 35) = {9.768927888727342, 1.973372111272657, 1};
Point(p11 + 36) = {9.830764050693881, 2.045772954681244, 1};
Point(p11 + 37) = {9.8805129196883, 2.126955730482536, 1};
Point(p11 + 38) = {9.916949513448927, 2.214921449306118, 1};
Point(p11 + 39) = {9.939176642111253, 2.307504103213074, 1};
Spline(11) = {9, p11 + 1, p11 + 2, p11 + 3, p11 + 4, p11 + 5, p11 + 6, p11 + 7, p11 + 8, p11 + 9, p11 + 10, p11 + 11, p11 + 12, p11 + 13, p11 + 14, p11 + 15, p11 + 16, p11 + 17, p11 + 18, p11 + 19, p11 + 20, p11 + 21, p11 + 22, p11 + 23, p11 + 24, p11 + 25, p11 + 26, p11 + 27, p11 + 28, p11 + 29, p11 + 30, p11 + 31, p11 + 32, p11 + 33, p11 + 34, p11 + 35, p11 + 36, p11 + 37, p11 + 38, p11 + 39, 9};
Line(12) = {4, 10};
Line(13) = {10, 7};
Line(14) = {5, 10};
p15 = newp;
Point(p15 + 1) = {7.400459656351662, 2.432972309304366, 0};
Point(p15 + 2) = {7.359725727102918, 2.602641335439043, 0};
Point(p15 + 3) = {7.29295121678003, 2.763849263881381, 0};
Point(p15 + 4) = {7.201780335439043, 2.912626620414689, 0};
Point(p15 + 5) = {7.088458012757379, 3.045310012757379, 0};
Point(p15 + 6) = {6.955774620414688, 3.158632335439043, 0};
Point(p15 + 7) = {6.806997263881381, 3.249803216780029, 0};
Point(p15 + 8) = {6.645789335439042, 3.316577727102918, 0};
Point(p15 + 9) = {6.476120309304366, 3.357311656351663, 0};
Point(p15 + 10) = {6.302168, 3.371002, 0};
Point(p15 + 11) = {6.128215690695634, 3.357311656351663, 0};
Point(p15 + 12) = {5.958546664560957, 3.316577727102918, 0};
Point(p15 + 13) = {5.797338736118619, 3.24980321678003, 0};
Point(p15 + 14) = {5.648561379585312, 3.158632335439043, 0};
Point(p15 + 15) = {5.515877987242621, 3.04531001275738, 0};
Point(p15 + 16) = {5.402555664560957, 2.912626620414689, 0};
Point(p15 + 17) = {5.31138478321997, 2.763849263881381, 0};
Point(p15 + 18) = {5.244610272897082, 2.602641335439043, 0};
Point(p15 + 19) = {5.203876343648338, 2.432972309304366, 0};
Point(p15 + 20) = {5.190186, 2.25902, 0};
Point(p15 + 21) = {5.203876343648338, 2.085067690695634, 0};
Point(p15 + 22) = {5.244610272897082, 1.915398664560957, 0};
Point(p15 + 23) = {5.31138478321997, 1.75419073611862, 0};
Point(p15 + 24) = {5.402555664560957, 1.605413379585311, 0};
Point(p15 + 25) = {5.515877987242621, 1.472729987242621, 0};
Point(p15 + 26) = {5.648561379585311, 1.359407664560957, 0};
Point(p15 + 27) = {5.797338736118619, 1.268236783219971, 0};
Point(p15 + 28) = {5.958546664560957, 1.201462272897083, 0};
Point(p15 + 29) = {6.128215690695634, 1.160728343648338, 0};
Point(p15 + 30) = {6.302168, 1.147038, 0};
Point(p15 + 31) = {6.476120309304366, 1.160728343648338, 0};
Point(p15 + 32) = {6.645789335439042, 1.201462272897083, 0};
Point(p15 + 33) = {6.806997263881381, 1.26823678321997, 0};
Point(p15 + 34) = {6.955774620414688, 1.359407664560957, 0};
Point(p15 + 35) = {7.088458012757379, 1.47272998724262, 0};
Point(p15 + 36) = {7.201780335439043, 1.605413379585311, 0};
Point(p15 + 37) = {7.29295121678003, 1.754190736118619, 0};
Point(p15 + 38) = {7.359725727102918, 1.915398664560957, 0};
Point(p15 + 39) = {7.400459656351662, 2.085067690695634, 0};
Spline(15) = {11, p15 + 1, p15 + 2, p15 + 3, p15 + 4, p15 + 5, p15 + 6, p15 + 7, p15 + 8, p15 + 9, p15 + 10, p15 + 11, p15 + 12, p15 + 13, p15 + 14, p15 + 15, p15 + 16, p15 + 17, p15 + 18, p15 + 19, p15 + 20, p15 + 21, p15 + 22, p15 + 23, p15 + 24, p15 + 25, p15 + 26, p15 + 27, p15 + 28, p15 + 29, p15 + 30, p15 + 31, p15 + 32, p15 + 33, p15 + 34, p15 + 35, p15 + 36, p15 + 37, p15 + 38, p15 + 39, 11};
p16 = newp;
Point(p16 + 1) = {9.939176642111253, 2.497343896786926, 0};
Point(p16 + 2) = {9.916949513448927, 2.589926550693881, 0};
Point(p16 + 3) = {9.8805129196883, 2.677892269517464, 0};
Point(p16 + 4) = {9.830764050693881, 2.759075045318756, 0};
Point(p16 + 5) = {9.768927888727342, 2.831475888727343, 0};
Point(p16 + 6) = {9.696527045318756, 2.893312050693881, 0};
Point(p16 + 7) = {9.615344269517465, 2.9430609196883, 0};
Point(p16 + 8) = {9.527378550693882, 2.979497513448926, 0};
Point(p16 + 9) = {9.434795896786927, 3.001724642111252, 0};
Point(p16 + 10) = {9.339876, 3.009195, 0};
Point(p16 + 11) = {9.244956103213074, 3.001724642111252, 0};
Point(p16 + 12) = {9.152373449306118, 2.979497513448926, 0};
Point(p16 + 13) = {9.064407730482536, 2.9430609196883, 0};
Point(p16 + 14) = {8.983224954681244, 2.893312050693881, 0};
Point(p16 + 15) = {8.910824111272658, 2.831475888727343, 0};
Point(p16 + 16) = {8.848987949306119, 2.759075045318756, 0};
Point(p16 + 17) = {8.7992390803117, 2.677892269517464, 0};
Point(p16 + 18) = {8.762802486551074, 2.589926550693881, 0};
Point(p16 + 19) = {8.740575357888748, 2.497343896786926, 0};
Point(p16 + 20) = {8.733105, 2.402424, 0};
Point(p16 + 21) = {8.740575357888748, 2.307504103213074, 0};
Point(p16 + 22) = {8.762802486551074, 2.214921449306118, 0};
Point(p16 + 23) = {8.7992390803117, 2.126955730482536, 0};
Point(p16 + 24) = {8.848987949306119, 2.045772954681244, 0};
Point(p16 + 25) = {8.910824111272657, 1.973372111272657, 0};
Point(p16 + 26) = {8.983224954681244, 1.911535949306119, 0};
Point(p16 + 27) = {9.064407730482536, 1.8617870803117, 0};
Point(p16 + 28) = {9.152373449306118, 1.825350486551073, 0};
Point(p16 + 29) = {9.244956103213074, 1.803123357888748, 0};
Point(p16 + 30) = {9.339876, 1.795653, 0};
Point(p16 + 31) = {9.434795896786927, 1.803123357888748, 0};
Point(p16 + 32) = {9.527378550693882, 1.825350486551073, 0};
Point(p16 + 33) = {9.615344269517465, 1.8617870803117, 0};
Point(p16 + 34) = {9.696527045318756, 1.911535949306119, 0};
Point(p16 + 35) = {9.768927888727342, 1.973372111272657, 0};
Point(p16 + 36) = {9.830764050693881, 2.045772954681244, 0};
Point(p16 + 37) = {9.8805129196883, 2.126955730482536, 0};
Point(p16 + 38) = {9.916949513448927, 2.214921449306118, 0};
Point(p16 + 39) = {9.939176642111253, 2.307504103213074, 0};
Spline(16) = {12, p16 + 1, p16 + 2, p16 + 3, p16 + 4, p16 + 5, p16 + 6, p16 + 7, p16 + 8, p16 + 9, p16 + 10, p16 + 11, p16 + 12, p16 + 13, p16 + 14, p16 + 15, p16 + 16, p16 + 17, p16 + 18, p16 + 19, p16 + 20, p16 + 21, p16 + 22, p16 + 23, p16 + 24, p16 + 25, p16 + 26, p16 + 27, p16 + 28, p16 + 29, p16 + 30, p16 + 31, p16 + 32, p16 + 33, p16 + 34, p16 + 35, p16 + 36, p16 + 37, p16 + 38, p16 + 39, 12};
Line(17) = {11, 8};
Line(18) = {12, 9};
Curve Loop(1) = {-1, 4, 3, -2};
Plane Surface(1) = {1};
Curve Loop(2) = {-5, 1, 7, -6};
Plane Surface(2) = {2};
Curve Loop(3) = {-2, 7, 9, -8, -10, -11};
Plane Surface(3) = {3};
Curve Loop(4) = {-12, 3, 8, -13};
Plane Surface(4) = {4};
Curve Loop(5) = {-4, 5, 14, -12, -15, -16};
Plane Surface(5) = {5};
Curve Loop(6) = {-6, 14, 13, -9};
Plane Surface(6) = {6};
Curve Loop(7) = {-10, -17, 15, 17};
Surface(7) = {7};
Curve Loop(8) = {-11, -18, 16, 18};
Surface(8) = {8};
Surface Loop(1) = {1, 2, 3, 4, 5, 6, 7, 8};
Volume(1) = {1};
Physical Surface("INFLOW") = {1};
Physical Surface("OUTFLOW") = {6};
Physical Surface("OBSTACLE") = {7, 8};
Physical Surface("WALL_Y") = {2, 4};
Physical Surface("WALL_Z") = {3, 5};
Physical Volume("FLUID") = {1};
