cl__1 = 1.097037;
cl__2 = 0.978;
cl__3 = 3.584162;
cl__4 = 0.140794;
Point(1) = {0.770766, -4.906193, 1, cl__1};
Point(2) = {0.770766, -4.906193, 0, cl__1};
Point(3) = {0.770766, 4.916556, 1, cl__2};
Point(4) = {0.770766, 4.916556, 0, cl__2};
Point(5) = {35.503526, -4.906193, 0, cl__3};
Point(6) = {35.503526, -4.906193, 1, cl__3};
Point(7) = {35.503526, 4.916556, 1, cl__3};
Point(8) = {12.810523, 1.433119, 1, cl__4};
Point(9) = {35.503526, 4.916556, 0, cl__3};
Point(10) = {12.810523, 1.433119, 0, cl__4};
Line(1) = {2, 1};
Line(2) = {1, 3};
Line(3) = {4, 3};
Line(4) = {2, 4};
Line(5) = {2, 5};
Line(6) = {5, 6};
Line(7) = {1, 6};
Line(8) = {3, 7};
Line(9) = {6, 7};
p10 = newp;
Point(p10 + 1) = {12.79318895919249, 1.653368871405348, 1};
Point(p10 + 2) = {12.74161365838305, 1.86819546000928, 1};
Point(p10 + 3) = {12.6570670526462, 2.072309022231798, 1};
Point(p10 + 4) = {12.54163096000928, 2.260683604756908, 1};
Point(p10 + 5) = {12.39814780018344, 2.428680800183444, 1};
Point(p10 + 6) = {12.23015060475691, 2.572163960009281, 1};
Point(p10 + 7) = {12.0417760222318, 2.687600052646198, 1};
Point(p10 + 8) = {11.83766246000928, 2.77214665838305, 1};
Point(p10 + 9) = {11.62283587140535, 2.823721959192496, 1};
Point(p10 + 10) = {11.402586, 2.841056, 1};
Point(p10 + 11) = {11.18233612859465, 2.823721959192496, 1};
Point(p10 + 12) = {10.96750953999072, 2.77214665838305, 1};
Point(p10 + 13) = {10.7633959777682, 2.687600052646198, 1};
Point(p10 + 14) = {10.57502139524309, 2.572163960009281, 1};
Point(p10 + 15) = {10.40702419981656, 2.428680800183444, 1};
Point(p10 + 16) = {10.26354103999072, 2.260683604756908, 1};
Point(p10 + 17) = {10.1481049473538, 2.072309022231798, 1};
Point(p10 + 18) = {10.06355834161695, 1.86819546000928, 1};
Point(p10 + 19) = {10.0119830408075, 1.653368871405348, 1};
Point(p10 + 20) = {9.994648999999999, 1.433119, 1};
Point(p10 + 21) = {10.0119830408075, 1.212869128594653, 1};
Point(p10 + 22) = {10.06355834161695, 0.9980425399907192, 1};
Point(p10 + 23) = {10.1481049473538, 0.7939289777682025, 1};
Point(p10 + 24) = {10.26354103999072, 0.6055543952430924, 1};
Point(p10 + 25) = {10.40702419981655, 0.4375571998165559, 1};
Point(p10 + 26) = {10.57502139524309, 0.2940740399907198, 1};
Point(p10 + 27) = {10.7633959777682, 0.178637947353802, 1};
Point(p10 + 28) = {10.96750953999072, 0.09409134161695043, 1};
Point(p10 + 29) = {11.18233612859465, 0.0425160408075036, 1};
Point(p10 + 30) = {11.402586, 0.02518200000000004, 1};
Point(p10 + 31) = {11.62283587140535, 0.0425160408075036, 1};
Point(p10 + 32) = {11.83766246000928, 0.09409134161695021, 1};
Point(p10 + 33) = {12.0417760222318, 0.178637947353802, 1};
Point(p10 + 34) = {12.23015060475691, 0.2940740399907196, 1};
Point(p10 + 35) = {12.39814780018344, 0.4375571998165556, 1};
Point(p10 + 36) = {12.54163096000928, 0.605554395243092, 1};
Point(p10 + 37) = {12.6570670526462, 0.7939289777682015, 1};
Point(p10 + 38) = {12.74161365838305, 0.9980425399907193, 1};
Point(p10 + 39) = {12.79318895919249, 1.212869128594652, 1};
Spline(10) = {8, p10 + 1, p10 + 2, p10 + 3, p10 + 4, p10 + 5, p10 + 6, p10 + 7, p10 + 8, p10 + 9, p10 + 10, p10 + 11, p10 + 12, p10 + 13, p10 + 14, p10 + 15, p10 + 16, p10 + 17, p10 + 18, p10 + 19, p10 + 20, p10 + 21, p10 + 22, p10 + 23, p10 + 24, p10 + 25, p10 + 26, p10 + 27, p10 + 28, p10 + 29, p10 + 30, p10 + 31, p10 + 32, p10 + 33, p10 + 34, p10 + 35, p10 + 36, p10 + 37, p10 + 38, p10 + 39, 8};
Line(11) = {4, 9};
Line(12) = {9, 7};
Line(13) = {5, 9};
p14 = newp;
Point(p14 + 1) = {12.79318895919249, 1.653368871405348, 0};
Point(p14 + 2) = {12.74161365838305, 1.86819546000928, 0};
Point(p14 + 3) = {12.6570670526462, 2.072309022231798, 0};
Point(p14 + 4) = {12.54163096000928, 2.260683604756908, 0};
Point(p14 + 5) = {12.39814780018344, 2.428680800183444, 0};
Point(p14 + 6) = {12.23015060475691, 2.572163960009281, 0};
Point(p14 + 7) = {12.0417760222318, 2.687600052646198, 0};
Point(p14 + 8) = {11.83766246000928, 2.77214665838305, 0};
Point(p14 + 9) = {11.62283587140535, 2.823721959192496, 0};
Point(p14 + 10) = {11.402586, 2.841056, 0};
Point(p14 + 11) = {11.18233612859465, 2.823721959192496, 0};
Point(p14 + 12) = {10.96750953999072, 2.77214665838305, 0};
Point(p14 + 13) = {10.7633959777682, 2.687600052646198, 0};
Point(p14 + 14) = {10.57502139524309, 2.572163960009281, 0};
Point(p14 + 15) = {10.40702419981656, 2.428680800183444, 0};
Point(p14 + 16) = {10.26354103999072, 2.260683604756908, 0};
Point(p14 + 17) = {10.1481049473538, 2.072309022231798, 0};
Point(p14 + 18) = {10.06355834161695, 1.86819546000928, 0};
Point(p14 + 19) = {10.0119830408075, 1.653368871405348, 0};
Point(p14 + 20) = {9.994648999999999, 1.433119, 0};
Point(p14 + 21) = {10.0119830408075, 1.212869128594653, 0};
Point(p14 + 22) = {10.06355834161695, 0.9980425399907192, 0};
Point(p14 + 23) = {10.1481049473538, 0.7939289777682025, 0};
Point(p14 + 24) = {10.26354103999072, 0.6055543952430924, 0};
Point(p14 + 25) = {10.40702419981655, 0.4375571998165559, 0};
Point(p14 + 26) = {10.57502139524309, 0.2940740399907198, 0};
Point(p14 + 27) = {10.7633959777682, 0.178637947353802, 0};
Point(p14 + 28) = {10.96750953999072, 0.09409134161695043, 0};
Point(p14 + 29) = {11.18233612859465, 0.0425160408075036, 0};
Point(p14 + 30) = {11.402586, 0.02518200000000004, 0};
Point(p14 + 31) = {11.62283587140535, 0.0425160408075036, 0};
Point(p14 + 32) = {11.83766246000928, 0.09409134161695021, 0};
Point(p14 + 33) = {12.0417760222318, 0.178637947353802, 0};
Point(p14 + 34) = {12.23015060475691, 0.2940740399907196, 0};
Point(p14 + 35) = {12.39814780018344, 0.4375571998165556, 0};
Point(p14 + 36) = {12.54163096000928, 0.605554395243092, 0};
Point(p14 + 37) = {12.6570670526462, 0.7939289777682015, 0};
Point(p14 + 38) = {12.74161365838305, 0.9980425399907193, 0};
Point(p14 + 39) = {12.79318895919249, 1.212869128594652, 0};
Spline(14) = {10, p14 + 1, p14 + 2, p14 + 3, p14 + 4, p14 + 5, p14 + 6, p14 + 7, p14 + 8, p14 + 9, p14 + 10, p14 + 11, p14 + 12, p14 + 13, p14 + 14, p14 + 15, p14 + 16, p14 + 17, p14 + 18, p14 + 19, p14 + 20, p14 + 21, p14 + 22, p14 + 23, p14 + 24, p14 + 25, p14 + 26, p14 + 27, p14 + 28, p14 + 29, p14 + 30, p14 + 31, p14 + 32, p14 + 33, p14 + 34, p14 + 35, p14 + 36, p14 + 37, p14 + 38, p14 + 39, 10};
Line(15) = {10, 8};
Curve Loop(1) = {-1, 4, 3, -2};
Plane Surface(1) = {1};
Curve Loop(2) = {-5, 1, 7, -6};
Plane Surface(2) = {2};
Curve Loop(3) = {-2, 7, 9, -8, -10};
Plane Surface(3) = {3};
Curve Loop(4) = {-11, 3, 8, -12};
Plane Surface(4) = {4};
Curve Loop(5) = {-4, 5, 13, -11, -14};
Plane Surface(5) = {5};
Curve Loop(6) = {-6, 13, 12, -9};
Plane Surface(6) = {6};
Curve Loop(7) = {-10, -15, 14, 15};
Surface(7) = {7};
Surface Loop(1) = {1, 2, 3, 4, 5, 6, 7};
Volume(1) = {1};
Physical Surface("INFLOW") = {1};
Physical Surface("OUTFLOW") = {6};
Physical Surface("OBSTACLE") = {7};
Physical Surface("WALL_Y") = {2, 4};
Physical Surface("WALL_Z") = {3, 5};
Physical Volume("FLUID") = {1};
