cl__1 = 1;
cl__2 = 0.10393;
cl__3 = 0.087565;
Point(1) = {0.816453, -3.060808, 1, cl__1};
Point(2) = {0.816453, -3.060808, 0, cl__1};
Point(3) = {0.816453, 4.552417, 1, cl__1};
Point(4) = {0.816453, 4.552417, 0, cl__1};
Point(5) = {35.783112, -3.060808, 0, cl__1};
Point(6) = {35.783112, -3.060808, 1, cl__1};
Point(7) = {35.783112, 4.552417, 1, cl__1};
Point(8) = {25.469517, 1.231763, 1, cl__2};
Point(9) = {31.993367, 3.096811, 1, cl__3};
Point(10) = {35.783112, 4.552417, 0, cl__1};
Point(11) = {25.469517, 1.231763, 0, cl__2};
Point(12) = {31.993367, 3.096811, 0, cl__3};
Line(1) = {2, 1};
Line(2) = {1, 3};
Line(3) = {4, 3};
Line(4) = {2, 4};
Line(5) = {2, 5};
Line(6) = {5, 6};
Line(7) = {1, 6};
Line(8) = {3, 7};
Line(9) = {6, 7};
p10 = newp;
Point(p10 + 1) = {25.45672149238052, 1.394345339516312, 1};
Point(p10 + 2) = {25.41865003738555, 1.552924362253883, 1};
Point(p10 + 3) = {25.35624008058897, 1.703595326379311, 1};
Point(p10 + 4) = {25.27102836225388, 1.842648212707567, 1};
Point(p10 + 5) = {25.16511307768718, 1.966659077687179, 1};
Point(p10 + 6) = {25.04110221270757, 2.072574362253883, 1};
Point(p10 + 7) = {24.90204932637931, 2.15778608058897, 1};
Point(p10 + 8) = {24.75137836225388, 2.220196037385553, 1};
Point(p10 + 9) = {24.59279933951631, 2.258267492380527, 1};
Point(p10 + 10) = {24.430217, 2.271063, 1};
Point(p10 + 11) = {24.26763466048369, 2.258267492380527, 1};
Point(p10 + 12) = {24.10905563774612, 2.220196037385553, 1};
Point(p10 + 13) = {23.95838467362069, 2.157786080588971, 1};
Point(p10 + 14) = {23.81933178729243, 2.072574362253883, 1};
Point(p10 + 15) = {23.69532092231282, 1.966659077687179, 1};
Point(p10 + 16) = {23.58940563774611, 1.842648212707567, 1};
Point(p10 + 17) = {23.50419391941103, 1.703595326379311, 1};
Point(p10 + 18) = {23.44178396261444, 1.552924362253883, 1};
Point(p10 + 19) = {23.40371250761947, 1.394345339516312, 1};
Point(p10 + 20) = {23.390917, 1.231763, 1};
Point(p10 + 21) = {23.40371250761947, 1.069180660483688, 1};
Point(p10 + 22) = {23.44178396261444, 0.9106016377461168, 1};
Point(p10 + 23) = {23.50419391941103, 0.7599306736206896, 1};
Point(p10 + 24) = {23.58940563774611, 0.6208777872924328, 1};
Point(p10 + 25) = {23.69532092231282, 0.4968669223128213, 1};
Point(p10 + 26) = {23.81933178729243, 0.3909516377461173, 1};
Point(p10 + 27) = {23.95838467362069, 0.3057399194110294, 1};
Point(p10 + 28) = {24.10905563774612, 0.2433299626144469, 1};
Point(p10 + 29) = {24.26763466048369, 0.2052585076194735, 1};
Point(p10 + 30) = {24.430217, 0.1924630000000001, 1};
Point(p10 + 31) = {24.59279933951631, 0.2052585076194733, 1};
Point(p10 + 32) = {24.75137836225388, 0.2433299626144468, 1};
Point(p10 + 33) = {24.90204932637931, 0.3057399194110293, 1};
Point(p10 + 34) = {25.04110221270757, 0.3909516377461171, 1};
Point(p10 + 35) = {25.16511307768718, 0.496866922312821, 1};
Point(p10 + 36) = {25.27102836225388, 0.6208777872924325, 1};
Point(p10 + 37) = {25.35624008058897, 0.7599306736206888, 1};
Point(p10 + 38) = {25.41865003738555, 0.9106016377461169, 1};
Point(p10 + 39) = {25.45672149238052, 1.069180660483688, 1};
Spline(10) = {8, p10 + 1, p10 + 2, p10 + 3, p10 + 4, p10 + 5, p10 + 6, p10 + 7, p10 + 8, p10 + 9, p10 + 10, p10 + 11, p10 + 12, p10 + 13, p10 + 14, p10 + 15, p10 + 16, p10 + 17, p10 + 18, p10 + 19, p10 + 20, p10 + 21, p10 + 22, p10 + 23, p10 + 24, p10 + 25, p10 + 26, p10 + 27, p10 + 28, p10 + 29, p10 + 30, p10 + 31, p10 + 32, p10 + 33, p10 + 34, p10 + 35, p10 + 36, p10 + 37, p10 + 38, p10 + 39, 8};
p11 = newp;
Point(p11 + 1) = {31.98258634468877, 3.233792213574618, 1};
Point(p11 + 2) = {31.95050983426778, 3.367400495056446, 1};
Point(p11 + 3) = {31.89792729887945, 3.494345965134936, 1};
Point(p11 + 4) = {31.82613349505645, 3.611502805028895, 1};
Point(p11 + 5) = {31.73689622451888, 3.715986224518876, 1};
Point(p11 + 6) = {31.6324128050289, 3.805223495056445, 1};
Point(p11 + 7) = {31.51525596513493, 3.877017298879448, 1};
Point(p11 + 8) = {31.38831049505644, 3.929599834267786, 1};
Point(p11 + 9) = {31.25470221357462, 3.96167634468877, 1};
Point(p11 + 10) = {31.117721, 3.972457, 1};
Point(p11 + 11) = {30.98073978642538, 3.96167634468877, 1};
Point(p11 + 12) = {30.84713150494355, 3.929599834267786, 1};
Point(p11 + 13) = {30.72018603486507, 3.877017298879448, 1};
Point(p11 + 14) = {30.6030291949711, 3.805223495056445, 1};
Point(p11 + 15) = {30.49854577548112, 3.715986224518876, 1};
Point(p11 + 16) = {30.40930850494355, 3.611502805028895, 1};
Point(p11 + 17) = {30.33751470112055, 3.494345965134936, 1};
Point(p11 + 18) = {30.28493216573222, 3.367400495056446, 1};
Point(p11 + 19) = {30.25285565531123, 3.233792213574618, 1};
Point(p11 + 20) = {30.242075, 3.096811, 1};
Point(p11 + 21) = {30.25285565531123, 2.959829786425382, 1};
Point(p11 + 22) = {30.28493216573222, 2.826221504943555, 1};
Point(p11 + 23) = {30.33751470112055, 2.699276034865065, 1};
Point(p11 + 24) = {30.40930850494355, 2.582119194971106, 1};
Point(p11 + 25) = {30.49854577548112, 2.477635775481125, 1};
Point(p11 + 26) = {30.6030291949711, 2.388398504943555, 1};
Point(p11 + 27) = {30.72018603486507, 2.316604701120553, 1};
Point(p11 + 28) = {30.84713150494355, 2.264022165732214, 1};
Point(p11 + 29) = {30.98073978642538, 2.23194565531123, 1};
Point(p11 + 30) = {31.117721, 2.221165, 1};
Point(p11 + 31) = {31.25470221357462, 2.23194565531123, 1};
Point(p11 + 32) = {31.38831049505644, 2.264022165732214, 1};
Point(p11 + 33) = {31.51525596513493, 2.316604701120553, 1};
Point(p11 + 34) = {31.6324128050289, 2.388398504943555, 1};
Point(p11 + 35) = {31.73689622451888, 2.477635775481124, 1};
Point(p11 + 36) = {31.82613349505645, 2.582119194971105, 1};
Point(p11 + 37) = {31.89792729887945, 2.699276034865065, 1};
Point(p11 + 38) = {31.95050983426778, 2.826221504943555, 1};
Point(p11 + 39) = {31.98258634468877, 2.959829786425382, 1};
Spline(11) = {9, p11 + 1, p11 + 2, p11 + 3, p11 + 4, p11 + 5, p11 + 6, p11 + 7, p11 + 8, p11 + 9, p11 + 10, p11 + 11, p11 + 12, p11 + 13, p11 + 14, p11 + 15, p11 + 16, p11 + 17, p11 + 18, p11 + 19, p11 + 20, p11 + 21, p11 + 22, p11 + 23, p11 + 24, p11 + 25, p11 + 26, p11 + 27, p11 + 28, p11 + 29, p11 + 30, p11 + 31, p11 + 32, p11 + 33, p11 + 34, p11 + 35, p11 + 36, p11 + 37, p11 + 38, p11 + 39, 9};
Line(12) = {4, 10};
Line(13) = {10, 7};
Line(14) = {5, 10};
p15 = newp;
Point(p15 + 1) = {25.45672149238052, 1.394345339516312, 0};
Point(p15 + 2) = {25.41865003738555, 1.552924362253883, 0};
Point(p15 + 3) = {25.35624008058897, 1.703595326379311, 0};
Point(p15 + 4) = {25.27102836225388, 1.842648212707567, 0};
Point(p15 + 5) = {25.16511307768718, 1.966659077687179, 0};
Point(p15 + 6) = {25.04110221270757, 2.072574362253883, 0};
Point(p15 + 7) = {24.90204932637931, 2.15778608058897, 0};
Point(p15 + 8) = {24.75137836225388, 2.220196037385553, 0};
Point(p15 + 9) = {24.59279933951631, 2.258267492380527, 0};
Point(p15 + 10) = {24.430217, 2.271063, 0};
Point(p15 + 11) = {24.26763466048369, 2.258267492380527, 0};
Point(p15 + 12) = {24.10905563774612, 2.220196037385553, 0};
Point(p15 + 13) = {23.95838467362069, 2.157786080588971, 0};
Point(p15 + 14) = {23.81933178729243, 2.072574362253883, 0};
Point(p15 + 15) = {23.69532092231282, 1.966659077687179, 0};
Point(p15 + 16) = {23.58940563774611, 1.842648212707567, 0};
Point(p15 + 17) = {23.50419391941103, 1.703595326379311, 0};
Point(p15 + 18) = {23.44178396261444, 1.552924362253883, 0};
Point(p15 + 19) = {23.40371250761947, 1.394345339516312, 0};
Point(p15 + 20) = {23.390917, 1.231763, 0};
Point(p15 + 21) = {23.40371250761947, 1.069180660483688, 0};
Point(p15 + 22) = {23.44178396261444, 0.9106016377461168, 0};
Point(p15 + 23) = {23.50419391941103, 0.7599306736206896, 0};
Point(p15 + 24) = {23.58940563774611, 0.6208777872924328, 0};
Point(p15 + 25) = {23.69532092231282, 0.4968669223128213, 0};
Point(p15 + 26) = {23.81933178729243, 0.3909516377461173, 0};
Point(p15 + 27) = {23.95838467362069, 0.3057399194110294, 0};
Point(p15 + 28) = {24.10905563774612, 0.2433299626144469, 0};
Point(p15 + 29) = {24.26763466048369, 0.2052585076194735, 0};
Point(p15 + 30) = {24.430217, 0.1924630000000001, 0};
Point(p15 + 31) = {24.59279933951631, 0.2052585076194733, 0};
Point(p15 + 32) = {24.75137836225388, 0.2433299626144468, 0};
Point(p15 + 33) = {24.90204932637931, 0.3057399194110293, 0};
Point(p15 + 34) = {25.04110221270757, 0.3909516377461171, 0};
Point(p15 + 35) = {25.16511307768718, 0.496866922312821, 0};
Point(p15 + 36) = {25.27102836225388, 0.6208777872924325, 0};
Point(p15 + 37) = {25.35624008058897, 0.7599306736206888, 0};
Point(p15 + 38) = {25.41865003738555, 0.9106016377461169, 0};
Point(p15 + 39) = {25.45672149238052, 1.069180660483688, 0};
Spline(15) = {11, p15 + 1, p15 + 2, p15 + 3, p15 + 4, p15 + 5, p15 + 6, p15 + 7, p15 + 8, p15 + 9, p15 + 10, p15 + 11, p15 + 12, p15 + 13, p15 + 14, p15 + 15, p15 + 16, p15 + 17, p15 + 18, p15 + 19, p15 + 20, p15 + 21, p15 + 22, p15 + 23, p15 + 24, p15 + 25, p15 + 26, p15 + 27, p15 + 28, p15 + 29, p15 + 30, p15 + 31, p15 + 32, p15 + 33, p15 + 34, p15 + 35, p15 + 36, p15 + 37, p15 + 38, p15 + 39, 11};
p16 = newp;
Point(p16 + 1) = {31.98258634468877, 3.233792213574618, 0};
Point(p16 + 2) = {31.95050983426778, 3.367400495056446, 0};
Point(p16 + 3) = {31.89792729887945, 3.494345965134936, 0};
Point(p16 + 4) = {31.82613349505645, 3.611502805028895, 0};
Point(p16 + 5) = {31.73689622451888, 3.715986224518876, 0};
Point(p16 + 6) = {31.6324128050289, 3.805223495056445, 0};
Point(p16 + 7) = {31.51525596513493, 3.877017298879448, 0};
Point(p16 + 8) = {31.38831049505644, 3.929599834267786, 0};
Point(p16 + 9) = {31.25470221357462, 3.96167634468877, 0};
Point(p16 + 10) = {31.117721, 3.972457, 0};
Point(p16 + 11) = {30.98073978642538, 3.96167634468877, 0};
Point(p16 + 12) = {30.84713150494355, 3.929599834267786, 0};
Point(p16 + 13) = {30.72018603486507, 3.877017298879448, 0};
Point(p16 + 14) = {30.6030291949711, 3.805223495056445, 0};
Point(p16 + 15) = {30.49854577548112, 3.715986224518876, 0};
Point(p16 + 16) = {30.40930850494355, 3.611502805028895, 0};
Point(p16 + 17) = {30.33751470112055, 3.494345965134936, 0};
Point(p16 + 18) = {30.28493216573222, 3.367400495056446, 0};
Point(p16 + 19) = {30.25285565531123, 3.233792213574618, 0};
Point(p16 + 20) = {30.242075, 3.096811, 0};
Point(p16 + 21) = {30.25285565531123, 2.959829786425382, 0};
Point(p16 + 22) = {30.28493216573222, 2.826221504943555, 0};
Point(p16 + 23) = {30.33751470112055, 2.699276034865065, 0};
Point(p16 + 24) = {30.40930850494355, 2.582119194971106, 0};
Point(p16 + 25) = {30.49854577548112, 2.477635775481125, 0};
Point(p16 + 26) = {30.6030291949711, 2.388398504943555, 0};
Point(p16 + 27) = {30.72018603486507, 2.316604701120553, 0};
Point(p16 + 28) = {30.84713150494355, 2.264022165732214, 0};
Point(p16 + 29) = {30.98073978642538, 2.23194565531123, 0};
Point(p16 + 30) = {31.117721, 2.221165, 0};
Point(p16 + 31) = {31.25470221357462, 2.23194565531123, 0};
Point(p16 + 32) = {31.38831049505644, 2.264022165732214, 0};
Point(p16 + 33) = {31.51525596513493, 2.316604701120553, 0};
Point(p16 + 34) = {31.6324128050289, 2.388398504943555, 0};
Point(p16 + 35) = {31.73689622451888, 2.477635775481124, 0};
Point(p16 + 36) = {31.82613349505645, 2.582119194971105, 0};
Point(p16 + 37) = {31.89792729887945, 2.699276034865065, 0};
Point(p16 + 38) = {31.95050983426778, 2.826221504943555, 0};
Point(p16 + 39) = {31.98258634468877, 2.959829786425382, 0};
Spline(16) = {12, p16 + 1, p16 + 2, p16 + 3, p16 + 4, p16 + 5, p16 + 6, p16 + 7, p16 + 8, p16 + 9, p16 + 10, p16 + 11, p16 + 12, p16 + 13, p16 + 14, p16 + 15, p16 + 16, p16 + 17, p16 + 18, p16 + 19, p16 + 20, p16 + 21, p16 + 22, p16 + 23, p16 + 24, p16 + 25, p16 + 26, p16 + 27, p16 + 28, p16 + 29, p16 + 30, p16 + 31, p16 + 32, p16 + 33, p16 + 34, p16 + 35, p16 + 36, p16 + 37, p16 + 38, p16 + 39, 12};
Line(17) = {11, 8};
Line(18) = {12, 9};
Curve Loop(1) = {-1, 4, 3, -2};
Plane Surface(1) = {1};
Curve Loop(2) = {-5, 1, 7, -6};
Plane Surface(2) = {2};
Curve Loop(3) = {-2, 7, 9, -8, -10, -11};
Plane Surface(3) = {3};
Curve Loop(4) = {-12, 3, 8, -13};
Plane Surface(4) = {4};
Curve Loop(5) = {-4, 5, 14, -12, -15, -16};
Plane Surface(5) = {5};
Curve Loop(6) = {-6, 14, 13, -9};
Plane Surface(6) = {6};
Curve Loop(7) = {-10, -17, 15, 17};
Surface(7) = {7};
Curve Loop(8) = {-11, -18, 16, 18};
Surface(8) = {8};
Surface Loop(1) = {1, 2, 3, 4, 5, 6, 7, 8};
Volume(1) = {1};
Physical Surface("INFLOW") = {1};
Physical Surface("OUTFLOW") = {6};
Physical Surface("OBSTACLE") = {7, 8};
Physical Surface("WALL_Y") = {2, 4};
Physical Surface("WALL_Z") = {3, 5};
Physical Volume("FLUID") = {1};
