cl__1 = 3.371118;
cl__2 = 0.545017;
cl__3 = 0.126605;
cl__4 = 0.061284;
Point(1) = {0.82336, -3.84705, 1, cl__1};
Point(2) = {0.82336, -3.84705, 0, cl__1};
Point(3) = {0.82336, 4.342074, 1, cl__2};
Point(4) = {0.82336, 4.342074, 0, cl__2};
Point(5) = {33.461597, -3.84705, 0, cl__1};
Point(6) = {33.461597, -3.84705, 1, cl__1};
Point(7) = {33.461597, 4.342074, 1, cl__2};
Point(8) = {28.352486, -0.6613490000000003, 1, cl__3};
Point(9) = {31.980093, 1.842749, 1, cl__4};
Point(10) = {33.461597, 4.342074, 0, cl__2};
Point(11) = {28.352486, -0.6613490000000003, 0, cl__3};
Point(12) = {31.980093, 1.842749, 0, cl__4};
Line(1) = {2, 1};
Line(2) = {1, 3};
Line(3) = {4, 3};
Line(4) = {2, 4};
Line(5) = {2, 5};
Line(6) = {5, 6};
Line(7) = {1, 6};
Line(8) = {3, 7};
Line(9) = {6, 7};
p10 = newp;
Point(p10 + 1) = {28.33689878667549, -0.4632946762324205, 1};
Point(p10 + 2) = {28.29052095562503, -0.2701171072206147, 1};
Point(p10 + 3) = {28.21449448296826, -0.08657296583324758, 1};
Point(p10 + 4) = {28.11069139277938, 0.08281828202064256, 1};
Point(p10 + 5) = {27.98166766164157, 0.2338856616415721, 1};
Point(p10 + 6) = {27.83060028202064, 0.3629093927793854, 1};
Point(p10 + 7) = {27.66120903416675, 0.4667124829682556, 1};
Point(p10 + 8) = {27.47766489277938, 0.5427389556250282, 1};
Point(p10 + 9) = {27.28448732376758, 0.5891167866754961, 1};
Point(p10 + 10) = {27.086433, 0.6047040000000001, 1};
Point(p10 + 11) = {26.88837867623242, 0.5891167866754961, 1};
Point(p10 + 12) = {26.69520110722062, 0.5427389556250284, 1};
Point(p10 + 13) = {26.51165696583325, 0.4667124829682558, 1};
Point(p10 + 14) = {26.34226571797936, 0.3629093927793854, 1};
Point(p10 + 15) = {26.19119833835843, 0.2338856616415722, 1};
Point(p10 + 16) = {26.06217460722062, 0.08281828202064268, 1};
Point(p10 + 17) = {25.95837151703174, -0.08657296583324736, 1};
Point(p10 + 18) = {25.88234504437497, -0.2701171072206145, 1};
Point(p10 + 19) = {25.8359672133245, -0.4632946762324204, 1};
Point(p10 + 20) = {25.82038, -0.6613489999999999, 1};
Point(p10 + 21) = {25.8359672133245, -0.8594033237675792, 1};
Point(p10 + 22) = {25.88234504437497, -1.052580892779386, 1};
Point(p10 + 23) = {25.95837151703174, -1.236125034166752, 1};
Point(p10 + 24) = {26.06217460722061, -1.405516282020642, 1};
Point(p10 + 25) = {26.19119833835843, -1.556583661641572, 1};
Point(p10 + 26) = {26.34226571797936, -1.685607392779385, 1};
Point(p10 + 27) = {26.51165696583325, -1.789410482968256, 1};
Point(p10 + 28) = {26.69520110722062, -1.865436955625028, 1};
Point(p10 + 29) = {26.88837867623242, -1.911814786675496, 1};
Point(p10 + 30) = {27.086433, -1.927402, 1};
Point(p10 + 31) = {27.28448732376758, -1.911814786675496, 1};
Point(p10 + 32) = {27.47766489277938, -1.865436955625028, 1};
Point(p10 + 33) = {27.66120903416675, -1.789410482968256, 1};
Point(p10 + 34) = {27.83060028202064, -1.685607392779386, 1};
Point(p10 + 35) = {27.98166766164157, -1.556583661641572, 1};
Point(p10 + 36) = {28.11069139277938, -1.405516282020643, 1};
Point(p10 + 37) = {28.21449448296826, -1.236125034166753, 1};
Point(p10 + 38) = {28.29052095562503, -1.052580892779386, 1};
Point(p10 + 39) = {28.33689878667549, -0.8594033237675797, 1};
Spline(10) = {8, p10 + 1, p10 + 2, p10 + 3, p10 + 4, p10 + 5, p10 + 6, p10 + 7, p10 + 8, p10 + 9, p10 + 10, p10 + 11, p10 + 12, p10 + 13, p10 + 14, p10 + 15, p10 + 16, p10 + 17, p10 + 18, p10 + 19, p10 + 20, p10 + 21, p10 + 22, p10 + 23, p10 + 24, p10 + 25, p10 + 26, p10 + 27, p10 + 28, p10 + 29, p10 + 30, p10 + 31, p10 + 32, p10 + 33, p10 + 34, p10 + 35, p10 + 36, p10 + 37, p10 + 38, p10 + 39, 8};
p11 = newp;
Point(p11 + 1) = {31.97254786109203, 1.93861907972758, 1};
Point(p11 + 2) = {31.9500982307289, 2.032128519917714, 1};
Point(p11 + 3) = {31.91329689331622, 2.120974807812883, 1};
Point(p11 + 4) = {31.86305001991771, 2.202970252941181, 1};
Point(p11 + 5) = {31.80059485531627, 2.27609585531627, 1};
Point(p11 + 6) = {31.72746925294118, 2.338551019917714, 1};
Point(p11 + 7) = {31.64547380781288, 2.38879789331622, 1};
Point(p11 + 8) = {31.55662751991771, 2.425599230728903, 1};
Point(p11 + 9) = {31.46311807972758, 2.448048861092027, 1};
Point(p11 + 10) = {31.367248, 2.455594, 1};
Point(p11 + 11) = {31.27137792027242, 2.448048861092027, 1};
Point(p11 + 12) = {31.17786848008229, 2.425599230728904, 1};
Point(p11 + 13) = {31.08902219218712, 2.38879789331622, 1};
Point(p11 + 14) = {31.00702674705882, 2.338551019917714, 1};
Point(p11 + 15) = {30.93390114468373, 2.27609585531627, 1};
Point(p11 + 16) = {30.87144598008229, 2.202970252941181, 1};
Point(p11 + 17) = {30.82119910668378, 2.120974807812883, 1};
Point(p11 + 18) = {30.7843977692711, 2.032128519917715, 1};
Point(p11 + 19) = {30.76194813890797, 1.93861907972758, 1};
Point(p11 + 20) = {30.754403, 1.842749, 1};
Point(p11 + 21) = {30.76194813890797, 1.74687892027242, 1};
Point(p11 + 22) = {30.7843977692711, 1.653369480082285, 1};
Point(p11 + 23) = {30.82119910668378, 1.564523192187118, 1};
Point(p11 + 24) = {30.87144598008229, 1.482527747058819, 1};
Point(p11 + 25) = {30.93390114468373, 1.40940214468373, 1};
Point(p11 + 26) = {31.00702674705882, 1.346946980082286, 1};
Point(p11 + 27) = {31.08902219218712, 1.29670010668378, 1};
Point(p11 + 28) = {31.17786848008229, 1.259898769271097, 1};
Point(p11 + 29) = {31.27137792027242, 1.237449138907973, 1};
Point(p11 + 30) = {31.367248, 1.229904, 1};
Point(p11 + 31) = {31.46311807972758, 1.237449138907973, 1};
Point(p11 + 32) = {31.55662751991771, 1.259898769271097, 1};
Point(p11 + 33) = {31.64547380781288, 1.29670010668378, 1};
Point(p11 + 34) = {31.72746925294118, 1.346946980082285, 1};
Point(p11 + 35) = {31.80059485531627, 1.40940214468373, 1};
Point(p11 + 36) = {31.86305001991771, 1.482527747058819, 1};
Point(p11 + 37) = {31.91329689331622, 1.564523192187117, 1};
Point(p11 + 38) = {31.9500982307289, 1.653369480082285, 1};
Point(p11 + 39) = {31.97254786109203, 1.74687892027242, 1};
Spline(11) = {9, p11 + 1, p11 + 2, p11 + 3, p11 + 4, p11 + 5, p11 + 6, p11 + 7, p11 + 8, p11 + 9, p11 + 10, p11 + 11, p11 + 12, p11 + 13, p11 + 14, p11 + 15, p11 + 16, p11 + 17, p11 + 18, p11 + 19, p11 + 20, p11 + 21, p11 + 22, p11 + 23, p11 + 24, p11 + 25, p11 + 26, p11 + 27, p11 + 28, p11 + 29, p11 + 30, p11 + 31, p11 + 32, p11 + 33, p11 + 34, p11 + 35, p11 + 36, p11 + 37, p11 + 38, p11 + 39, 9};
Line(12) = {4, 10};
Line(13) = {10, 7};
Line(14) = {5, 10};
p15 = newp;
Point(p15 + 1) = {28.33689878667549, -0.4632946762324205, 0};
Point(p15 + 2) = {28.29052095562503, -0.2701171072206147, 0};
Point(p15 + 3) = {28.21449448296826, -0.08657296583324758, 0};
Point(p15 + 4) = {28.11069139277938, 0.08281828202064256, 0};
Point(p15 + 5) = {27.98166766164157, 0.2338856616415721, 0};
Point(p15 + 6) = {27.83060028202064, 0.3629093927793854, 0};
Point(p15 + 7) = {27.66120903416675, 0.4667124829682556, 0};
Point(p15 + 8) = {27.47766489277938, 0.5427389556250282, 0};
Point(p15 + 9) = {27.28448732376758, 0.5891167866754961, 0};
Point(p15 + 10) = {27.086433, 0.6047040000000001, 0};
Point(p15 + 11) = {26.88837867623242, 0.5891167866754961, 0};
Point(p15 + 12) = {26.69520110722062, 0.5427389556250284, 0};
Point(p15 + 13) = {26.51165696583325, 0.4667124829682558, 0};
Point(p15 + 14) = {26.34226571797936, 0.3629093927793854, 0};
Point(p15 + 15) = {26.19119833835843, 0.2338856616415722, 0};
Point(p15 + 16) = {26.06217460722062, 0.08281828202064268, 0};
Point(p15 + 17) = {25.95837151703174, -0.08657296583324736, 0};
Point(p15 + 18) = {25.88234504437497, -0.2701171072206145, 0};
Point(p15 + 19) = {25.8359672133245, -0.4632946762324204, 0};
Point(p15 + 20) = {25.82038, -0.6613489999999999, 0};
Point(p15 + 21) = {25.8359672133245, -0.8594033237675792, 0};
Point(p15 + 22) = {25.88234504437497, -1.052580892779386, 0};
Point(p15 + 23) = {25.95837151703174, -1.236125034166752, 0};
Point(p15 + 24) = {26.06217460722061, -1.405516282020642, 0};
Point(p15 + 25) = {26.19119833835843, -1.556583661641572, 0};
Point(p15 + 26) = {26.34226571797936, -1.685607392779385, 0};
Point(p15 + 27) = {26.51165696583325, -1.789410482968256, 0};
Point(p15 + 28) = {26.69520110722062, -1.865436955625028, 0};
Point(p15 + 29) = {26.88837867623242, -1.911814786675496, 0};
Point(p15 + 30) = {27.086433, -1.927402, 0};
Point(p15 + 31) = {27.28448732376758, -1.911814786675496, 0};
Point(p15 + 32) = {27.47766489277938, -1.865436955625028, 0};
Point(p15 + 33) = {27.66120903416675, -1.789410482968256, 0};
Point(p15 + 34) = {27.83060028202064, -1.685607392779386, 0};
Point(p15 + 35) = {27.98166766164157, -1.556583661641572, 0};
Point(p15 + 36) = {28.11069139277938, -1.405516282020643, 0};
Point(p15 + 37) = {28.21449448296826, -1.236125034166753, 0};
Point(p15 + 38) = {28.29052095562503, -1.052580892779386, 0};
Point(p15 + 39) = {28.33689878667549, -0.8594033237675797, 0};
Spline(15) = {11, p15 + 1, p15 + 2, p15 + 3, p15 + 4, p15 + 5, p15 + 6, p15 + 7, p15 + 8, p15 + 9, p15 + 10, p15 + 11, p15 + 12, p15 + 13, p15 + 14, p15 + 15, p15 + 16, p15 + 17, p15 + 18, p15 + 19, p15 + 20, p15 + 21, p15 + 22, p15 + 23, p15 + 24, p15 + 25, p15 + 26, p15 + 27, p15 + 28, p15 + 29, p15 + 30, p15 + 31, p15 + 32, p15 + 33, p15 + 34, p15 + 35, p15 + 36, p15 + 37, p15 + 38, p15 + 39, 11};
p16 = newp;
Point(p16 + 1) = {31.97254786109203, 1.93861907972758, 0};
Point(p16 + 2) = {31.9500982307289, 2.032128519917714, 0};
Point(p16 + 3) = {31.91329689331622, 2.120974807812883, 0};
Point(p16 + 4) = {31.86305001991771, 2.202970252941181, 0};
Point(p16 + 5) = {31.80059485531627, 2.27609585531627, 0};
Point(p16 + 6) = {31.72746925294118, 2.338551019917714, 0};
Point(p16 + 7) = {31.64547380781288, 2.38879789331622, 0};
Point(p16 + 8) = {31.55662751991771, 2.425599230728903, 0};
Point(p16 + 9) = {31.46311807972758, 2.448048861092027, 0};
Point(p16 + 10) = {31.367248, 2.455594, 0};
Point(p16 + 11) = {31.27137792027242, 2.448048861092027, 0};
Point(p16 + 12) = {31.17786848008229, 2.425599230728904, 0};
Point(p16 + 13) = {31.08902219218712, 2.38879789331622, 0};
Point(p16 + 14) = {31.00702674705882, 2.338551019917714, 0};
Point(p16 + 15) = {30.93390114468373, 2.27609585531627, 0};
Point(p16 + 16) = {30.87144598008229, 2.202970252941181, 0};
Point(p16 + 17) = {30.82119910668378, 2.120974807812883, 0};
Point(p16 + 18) = {30.7843977692711, 2.032128519917715, 0};
Point(p16 + 19) = {30.76194813890797, 1.93861907972758, 0};
Point(p16 + 20) = {30.754403, 1.842749, 0};
Point(p16 + 21) = {30.76194813890797, 1.74687892027242, 0};
Point(p16 + 22) = {30.7843977692711, 1.653369480082285, 0};
Point(p16 + 23) = {30.82119910668378, 1.564523192187118, 0};
Point(p16 + 24) = {30.87144598008229, 1.482527747058819, 0};
Point(p16 + 25) = {30.93390114468373, 1.40940214468373, 0};
Point(p16 + 26) = {31.00702674705882, 1.346946980082286, 0};
Point(p16 + 27) = {31.08902219218712, 1.29670010668378, 0};
Point(p16 + 28) = {31.17786848008229, 1.259898769271097, 0};
Point(p16 + 29) = {31.27137792027242, 1.237449138907973, 0};
Point(p16 + 30) = {31.367248, 1.229904, 0};
Point(p16 + 31) = {31.46311807972758, 1.237449138907973, 0};
Point(p16 + 32) = {31.55662751991771, 1.259898769271097, 0};
Point(p16 + 33) = {31.64547380781288, 1.29670010668378, 0};
Point(p16 + 34) = {31.72746925294118, 1.346946980082285, 0};
Point(p16 + 35) = {31.80059485531627, 1.40940214468373, 0};
Point(p16 + 36) = {31.86305001991771, 1.482527747058819, 0};
Point(p16 + 37) = {31.91329689331622, 1.564523192187117, 0};
Point(p16 + 38) = {31.9500982307289, 1.653369480082285, 0};
Point(p16 + 39) = {31.97254786109203, 1.74687892027242, 0};
Spline(16) = {12, p16 + 1, p16 + 2, p16 + 3, p16 + 4, p16 + 5, p16 + 6, p16 + 7, p16 + 8, p16 + 9, p16 + 10, p16 + 11, p16 + 12, p16 + 13, p16 + 14, p16 + 15, p16 + 16, p16 + 17, p16 + 18, p16 + 19, p16 + 20, p16 + 21, p16 + 22, p16 + 23, p16 + 24, p16 + 25, p16 + 26, p16 + 27, p16 + 28, p16 + 29, p16 + 30, p16 + 31, p16 + 32, p16 + 33, p16 + 34, p16 + 35, p16 + 36, p16 + 37, p16 + 38, p16 + 39, 12};
Line(17) = {11, 8};
Line(18) = {12, 9};
Curve Loop(1) = {-1, 4, 3, -2};
Plane Surface(1) = {1};
Curve Loop(2) = {-5, 1, 7, -6};
Plane Surface(2) = {2};
Curve Loop(3) = {-2, 7, 9, -8, -10, -11};
Plane Surface(3) = {3};
Curve Loop(4) = {-12, 3, 8, -13};
Plane Surface(4) = {4};
Curve Loop(5) = {-4, 5, 14, -12, -15, -16};
Plane Surface(5) = {5};
Curve Loop(6) = {-6, 14, 13, -9};
Plane Surface(6) = {6};
Curve Loop(7) = {-10, -17, 15, 17};
Surface(7) = {7};
Curve Loop(8) = {-11, -18, 16, 18};
Surface(8) = {8};
Surface Loop(1) = {1, 2, 3, 4, 5, 6, 7, 8};
Volume(1) = {1};
Physical Surface("INFLOW") = {1};
Physical Surface("OUTFLOW") = {6};
Physical Surface("OBSTACLE") = {7, 8};
Physical Surface("WALL_Y") = {2, 4};
Physical Surface("WALL_Z") = {3, 5};
Physical Volume("FLUID") = {1};
