cl__1 = 3.552825;
cl__2 = 0.854123;
cl__3 = 0.126154;
cl__4 = 0.08812399999999999;
Point(1) = {0.370377, -3.99342, 1, cl__1};
Point(2) = {0.370377, -3.99342, 0, cl__1};
Point(3) = {0.370377, 4.080295999999999, 1, cl__2};
Point(4) = {0.370377, 4.080295999999999, 0, cl__2};
Point(5) = {35.298165, -3.99342, 0, cl__1};
Point(6) = {35.298165, -3.99342, 1, cl__1};
Point(7) = {35.298165, 4.080295999999999, 1, cl__2};
Point(8) = {22.053856, 1.948947, 1, cl__3};
Point(9) = {29.200961, 2.337789, 1, cl__4};
Point(10) = {35.298165, 4.080295999999999, 0, cl__2};
Point(11) = {22.053856, 1.948947, 0, cl__3};
Point(12) = {29.200961, 2.337789, 0, cl__4};
Line(1) = {2, 1};
Line(2) = {1, 3};
Line(3) = {4, 3};
Line(4) = {2, 4};
Line(5) = {2, 5};
Line(6) = {5, 6};
Line(7) = {1, 6};
Line(8) = {3, 7};
Line(9) = {6, 7};
p10 = newp;
Point(p10 + 1) = {22.03832436150605, 2.146295178592388, 1};
Point(p10 + 2) = {21.99211188651047, 2.338783990066777, 1};
Point(p10 + 3) = {21.91635647951807, 2.521673721050928, 1};
Point(p10 + 4) = {21.81292349006678, 2.690461019391794, 1};
Point(p10 + 5) = {21.6843597816313, 2.840989781631296, 1};
Point(p10 + 6) = {21.53383101939179, 2.969553490066777, 1};
Point(p10 + 7) = {21.36504372105093, 3.072986479518069, 1};
Point(p10 + 8) = {21.18215399006678, 3.148741886510471, 1};
Point(p10 + 9) = {20.98966517859239, 3.194954361506049, 1};
Point(p10 + 10) = {20.792317, 3.210486, 1};
Point(p10 + 11) = {20.59496882140761, 3.194954361506049, 1};
Point(p10 + 12) = {20.40248000993322, 3.148741886510471, 1};
Point(p10 + 13) = {20.21959027894907, 3.072986479518069, 1};
Point(p10 + 14) = {20.05080298060821, 2.969553490066777, 1};
Point(p10 + 15) = {19.9002742183687, 2.840989781631296, 1};
Point(p10 + 16) = {19.77171050993323, 2.690461019391794, 1};
Point(p10 + 17) = {19.66827752048193, 2.521673721050928, 1};
Point(p10 + 18) = {19.59252211348953, 2.338783990066777, 1};
Point(p10 + 19) = {19.54630963849395, 2.146295178592388, 1};
Point(p10 + 20) = {19.530778, 1.948947, 1};
Point(p10 + 21) = {19.54630963849395, 1.751598821407612, 1};
Point(p10 + 22) = {19.59252211348953, 1.559110009933223, 1};
Point(p10 + 23) = {19.66827752048193, 1.376220278949073, 1};
Point(p10 + 24) = {19.77171050993323, 1.207432980608206, 1};
Point(p10 + 25) = {19.9002742183687, 1.056904218368704, 1};
Point(p10 + 26) = {20.05080298060821, 0.9283405099332234, 1};
Point(p10 + 27) = {20.21959027894907, 0.8249075204819307, 1};
Point(p10 + 28) = {20.40248000993322, 0.7491521134895283, 1};
Point(p10 + 29) = {20.59496882140761, 0.7029396384939506, 1};
Point(p10 + 30) = {20.792317, 0.687408, 1};
Point(p10 + 31) = {20.98966517859239, 0.7029396384939506, 1};
Point(p10 + 32) = {21.18215399006678, 0.7491521134895283, 1};
Point(p10 + 33) = {21.36504372105093, 0.8249075204819305, 1};
Point(p10 + 34) = {21.53383101939179, 0.9283405099332231, 1};
Point(p10 + 35) = {21.6843597816313, 1.056904218368704, 1};
Point(p10 + 36) = {21.81292349006678, 1.207432980608206, 1};
Point(p10 + 37) = {21.91635647951807, 1.376220278949072, 1};
Point(p10 + 38) = {21.99211188651047, 1.559110009933223, 1};
Point(p10 + 39) = {22.03832436150605, 1.751598821407612, 1};
Spline(10) = {8, p10 + 1, p10 + 2, p10 + 3, p10 + 4, p10 + 5, p10 + 6, p10 + 7, p10 + 8, p10 + 9, p10 + 10, p10 + 11, p10 + 12, p10 + 13, p10 + 14, p10 + 15, p10 + 16, p10 + 17, p10 + 18, p10 + 19, p10 + 20, p10 + 21, p10 + 22, p10 + 23, p10 + 24, p10 + 25, p10 + 26, p10 + 27, p10 + 28, p10 + 29, p10 + 30, p10 + 31, p10 + 32, p10 + 33, p10 + 34, p10 + 35, p10 + 36, p10 + 37, p10 + 38, p10 + 39, 8};
p11 = newp;
Point(p11 + 1) = {29.19011152251269, 2.475644682234193, 1};
Point(p11 + 2) = {29.15783024019387, 2.610105900055001, 1};
Point(p11 + 3) = {29.10491202534966, 2.737861772028479, 1};
Point(p11 + 4) = {29.032659900055, 2.85576652458921, 1};
Point(p11 + 5) = {28.94285295142571, 2.960916951425708, 1};
Point(p11 + 6) = {28.83770252458921, 3.050723900055001, 1};
Point(p11 + 7) = {28.71979777202848, 3.122976025349661, 1};
Point(p11 + 8) = {28.592041900055, 3.175894240193876, 1};
Point(p11 + 9) = {28.45758068223419, 3.208175522512697, 1};
Point(p11 + 10) = {28.319725, 3.219025, 1};
Point(p11 + 11) = {28.18186931776581, 3.208175522512697, 1};
Point(p11 + 12) = {28.047408099945, 3.175894240193876, 1};
Point(p11 + 13) = {27.91965222797152, 3.122976025349661, 1};
Point(p11 + 14) = {27.80174747541079, 3.050723900055001, 1};
Point(p11 + 15) = {27.69659704857429, 2.960916951425708, 1};
Point(p11 + 16) = {27.606790099945, 2.85576652458921, 1};
Point(p11 + 17) = {27.53453797465034, 2.737861772028479, 1};
Point(p11 + 18) = {27.48161975980612, 2.610105900055001, 1};
Point(p11 + 19) = {27.4493384774873, 2.475644682234193, 1};
Point(p11 + 20) = {27.438489, 2.337789, 1};
Point(p11 + 21) = {27.4493384774873, 2.199933317765807, 1};
Point(p11 + 22) = {27.48161975980612, 2.065472099944999, 1};
Point(p11 + 23) = {27.53453797465034, 1.937716227971521, 1};
Point(p11 + 24) = {27.606790099945, 1.81981147541079, 1};
Point(p11 + 25) = {27.69659704857429, 1.714661048574292, 1};
Point(p11 + 26) = {27.80174747541079, 1.624854099944999, 1};
Point(p11 + 27) = {27.91965222797152, 1.552601974650339, 1};
Point(p11 + 28) = {28.047408099945, 1.499683759806124, 1};
Point(p11 + 29) = {28.18186931776581, 1.467402477487303, 1};
Point(p11 + 30) = {28.319725, 1.456553, 1};
Point(p11 + 31) = {28.45758068223419, 1.467402477487303, 1};
Point(p11 + 32) = {28.592041900055, 1.499683759806124, 1};
Point(p11 + 33) = {28.71979777202848, 1.552601974650339, 1};
Point(p11 + 34) = {28.83770252458921, 1.624854099944999, 1};
Point(p11 + 35) = {28.94285295142571, 1.714661048574291, 1};
Point(p11 + 36) = {29.032659900055, 1.81981147541079, 1};
Point(p11 + 37) = {29.10491202534966, 1.937716227971521, 1};
Point(p11 + 38) = {29.15783024019387, 2.065472099944999, 1};
Point(p11 + 39) = {29.19011152251269, 2.199933317765807, 1};
Spline(11) = {9, p11 + 1, p11 + 2, p11 + 3, p11 + 4, p11 + 5, p11 + 6, p11 + 7, p11 + 8, p11 + 9, p11 + 10, p11 + 11, p11 + 12, p11 + 13, p11 + 14, p11 + 15, p11 + 16, p11 + 17, p11 + 18, p11 + 19, p11 + 20, p11 + 21, p11 + 22, p11 + 23, p11 + 24, p11 + 25, p11 + 26, p11 + 27, p11 + 28, p11 + 29, p11 + 30, p11 + 31, p11 + 32, p11 + 33, p11 + 34, p11 + 35, p11 + 36, p11 + 37, p11 + 38, p11 + 39, 9};
Line(12) = {4, 10};
Line(13) = {10, 7};
Line(14) = {5, 10};
p15 = newp;
Point(p15 + 1) = {22.03832436150605, 2.146295178592388, 0};
Point(p15 + 2) = {21.99211188651047, 2.338783990066777, 0};
Point(p15 + 3) = {21.91635647951807, 2.521673721050928, 0};
Point(p15 + 4) = {21.81292349006678, 2.690461019391794, 0};
Point(p15 + 5) = {21.6843597816313, 2.840989781631296, 0};
Point(p15 + 6) = {21.53383101939179, 2.969553490066777, 0};
Point(p15 + 7) = {21.36504372105093, 3.072986479518069, 0};
Point(p15 + 8) = {21.18215399006678, 3.148741886510471, 0};
Point(p15 + 9) = {20.98966517859239, 3.194954361506049, 0};
Point(p15 + 10) = {20.792317, 3.210486, 0};
Point(p15 + 11) = {20.59496882140761, 3.194954361506049, 0};
Point(p15 + 12) = {20.40248000993322, 3.148741886510471, 0};
Point(p15 + 13) = {20.21959027894907, 3.072986479518069, 0};
Point(p15 + 14) = {20.05080298060821, 2.969553490066777, 0};
Point(p15 + 15) = {19.9002742183687, 2.840989781631296, 0};
Point(p15 + 16) = {19.77171050993323, 2.690461019391794, 0};
Point(p15 + 17) = {19.66827752048193, 2.521673721050928, 0};
Point(p15 + 18) = {19.59252211348953, 2.338783990066777, 0};
Point(p15 + 19) = {19.54630963849395, 2.146295178592388, 0};
Point(p15 + 20) = {19.530778, 1.948947, 0};
Point(p15 + 21) = {19.54630963849395, 1.751598821407612, 0};
Point(p15 + 22) = {19.59252211348953, 1.559110009933223, 0};
Point(p15 + 23) = {19.66827752048193, 1.376220278949073, 0};
Point(p15 + 24) = {19.77171050993323, 1.207432980608206, 0};
Point(p15 + 25) = {19.9002742183687, 1.056904218368704, 0};
Point(p15 + 26) = {20.05080298060821, 0.9283405099332234, 0};
Point(p15 + 27) = {20.21959027894907, 0.8249075204819307, 0};
Point(p15 + 28) = {20.40248000993322, 0.7491521134895283, 0};
Point(p15 + 29) = {20.59496882140761, 0.7029396384939506, 0};
Point(p15 + 30) = {20.792317, 0.687408, 0};
Point(p15 + 31) = {20.98966517859239, 0.7029396384939506, 0};
Point(p15 + 32) = {21.18215399006678, 0.7491521134895283, 0};
Point(p15 + 33) = {21.36504372105093, 0.8249075204819305, 0};
Point(p15 + 34) = {21.53383101939179, 0.9283405099332231, 0};
Point(p15 + 35) = {21.6843597816313, 1.056904218368704, 0};
Point(p15 + 36) = {21.81292349006678, 1.207432980608206, 0};
Point(p15 + 37) = {21.91635647951807, 1.376220278949072, 0};
Point(p15 + 38) = {21.99211188651047, 1.559110009933223, 0};
Point(p15 + 39) = {22.03832436150605, 1.751598821407612, 0};
Spline(15) = {11, p15 + 1, p15 + 2, p15 + 3, p15 + 4, p15 + 5, p15 + 6, p15 + 7, p15 + 8, p15 + 9, p15 + 10, p15 + 11, p15 + 12, p15 + 13, p15 + 14, p15 + 15, p15 + 16, p15 + 17, p15 + 18, p15 + 19, p15 + 20, p15 + 21, p15 + 22, p15 + 23, p15 + 24, p15 + 25, p15 + 26, p15 + 27, p15 + 28, p15 + 29, p15 + 30, p15 + 31, p15 + 32, p15 + 33, p15 + 34, p15 + 35, p15 + 36, p15 + 37, p15 + 38, p15 + 39, 11};
p16 = newp;
Point(p16 + 1) = {29.19011152251269, 2.475644682234193, 0};
Point(p16 + 2) = {29.15783024019387, 2.610105900055001, 0};
Point(p16 + 3) = {29.10491202534966, 2.737861772028479, 0};
Point(p16 + 4) = {29.032659900055, 2.85576652458921, 0};
Point(p16 + 5) = {28.94285295142571, 2.960916951425708, 0};
Point(p16 + 6) = {28.83770252458921, 3.050723900055001, 0};
Point(p16 + 7) = {28.71979777202848, 3.122976025349661, 0};
Point(p16 + 8) = {28.592041900055, 3.175894240193876, 0};
Point(p16 + 9) = {28.45758068223419, 3.208175522512697, 0};
Point(p16 + 10) = {28.319725, 3.219025, 0};
Point(p16 + 11) = {28.18186931776581, 3.208175522512697, 0};
Point(p16 + 12) = {28.047408099945, 3.175894240193876, 0};
Point(p16 + 13) = {27.91965222797152, 3.122976025349661, 0};
Point(p16 + 14) = {27.80174747541079, 3.050723900055001, 0};
Point(p16 + 15) = {27.69659704857429, 2.960916951425708, 0};
Point(p16 + 16) = {27.606790099945, 2.85576652458921, 0};
Point(p16 + 17) = {27.53453797465034, 2.737861772028479, 0};
Point(p16 + 18) = {27.48161975980612, 2.610105900055001, 0};
Point(p16 + 19) = {27.4493384774873, 2.475644682234193, 0};
Point(p16 + 20) = {27.438489, 2.337789, 0};
Point(p16 + 21) = {27.4493384774873, 2.199933317765807, 0};
Point(p16 + 22) = {27.48161975980612, 2.065472099944999, 0};
Point(p16 + 23) = {27.53453797465034, 1.937716227971521, 0};
Point(p16 + 24) = {27.606790099945, 1.81981147541079, 0};
Point(p16 + 25) = {27.69659704857429, 1.714661048574292, 0};
Point(p16 + 26) = {27.80174747541079, 1.624854099944999, 0};
Point(p16 + 27) = {27.91965222797152, 1.552601974650339, 0};
Point(p16 + 28) = {28.047408099945, 1.499683759806124, 0};
Point(p16 + 29) = {28.18186931776581, 1.467402477487303, 0};
Point(p16 + 30) = {28.319725, 1.456553, 0};
Point(p16 + 31) = {28.45758068223419, 1.467402477487303, 0};
Point(p16 + 32) = {28.592041900055, 1.499683759806124, 0};
Point(p16 + 33) = {28.71979777202848, 1.552601974650339, 0};
Point(p16 + 34) = {28.83770252458921, 1.624854099944999, 0};
Point(p16 + 35) = {28.94285295142571, 1.714661048574291, 0};
Point(p16 + 36) = {29.032659900055, 1.81981147541079, 0};
Point(p16 + 37) = {29.10491202534966, 1.937716227971521, 0};
Point(p16 + 38) = {29.15783024019387, 2.065472099944999, 0};
Point(p16 + 39) = {29.19011152251269, 2.199933317765807, 0};
Spline(16) = {12, p16 + 1, p16 + 2, p16 + 3, p16 + 4, p16 + 5, p16 + 6, p16 + 7, p16 + 8, p16 + 9, p16 + 10, p16 + 11, p16 + 12, p16 + 13, p16 + 14, p16 + 15, p16 + 16, p16 + 17, p16 + 18, p16 + 19, p16 + 20, p16 + 21, p16 + 22, p16 + 23, p16 + 24, p16 + 25, p16 + 26, p16 + 27, p16 + 28, p16 + 29, p16 + 30, p16 + 31, p16 + 32, p16 + 33, p16 + 34, p16 + 35, p16 + 36, p16 + 37, p16 + 38, p16 + 39, 12};
Line(17) = {11, 8};
Line(18) = {12, 9};
Curve Loop(1) = {-1, 4, 3, -2};
Plane Surface(1) = {1};
Curve Loop(2) = {-5, 1, 7, -6};
Plane Surface(2) = {2};
Curve Loop(3) = {-2, 7, 9, -8, -10, -11};
Plane Surface(3) = {3};
Curve Loop(4) = {-12, 3, 8, -13};
Plane Surface(4) = {4};
Curve Loop(5) = {-4, 5, 14, -12, -15, -16};
Plane Surface(5) = {5};
Curve Loop(6) = {-6, 14, 13, -9};
Plane Surface(6) = {6};
Curve Loop(7) = {-10, -17, 15, 17};
Surface(7) = {7};
Curve Loop(8) = {-11, -18, 16, 18};
Surface(8) = {8};
Surface Loop(1) = {1, 2, 3, 4, 5, 6, 7, 8};
Volume(1) = {1};
Physical Surface("INFLOW") = {1};
Physical Surface("OUTFLOW") = {6};
Physical Surface("OBSTACLE") = {7, 8};
Physical Surface("WALL_Y") = {2, 4};
Physical Surface("WALL_Z") = {3, 5};
Physical Volume("FLUID") = {1};
