cl__1 = 3.38471;
cl__2 = 0.662865;
cl__3 = 0.950851;
cl__4 = 0.062187;
Point(1) = {0.7049879999999999, -4.600085, 1, cl__1};
Point(2) = {0.7049879999999999, -4.600085, 0, cl__1};
Point(3) = {0.7049879999999999, 5.234166, 1, cl__1};
Point(4) = {0.7049879999999999, 5.234166, 0, cl__1};
Point(5) = {33.488031, -4.600085, 0, cl__2};
Point(6) = {33.488031, -4.600085, 1, cl__2};
Point(7) = {33.488031, 5.234166, 1, cl__3};
Point(8) = {27.258434, -2.227875, 1, cl__4};
Point(9) = {33.488031, 5.234166, 0, cl__3};
Point(10) = {27.258434, -2.227875, 0, cl__4};
Line(1) = {2, 1};
Line(2) = {1, 3};
Line(3) = {4, 3};
Line(4) = {2, 4};
Line(5) = {2, 5};
Line(6) = {5, 6};
Line(7) = {1, 6};
Line(8) = {3, 7};
Line(9) = {6, 7};
p10 = newp;
Point(p10 + 1) = {27.25077769911926, -2.130592473487571, 1};
Point(p10 + 2) = {27.22799732001453, -2.035705365640074, 1};
Point(p10 + 3) = {27.19065379122312, -1.945550111964969, 1};
Point(p10 + 4) = {27.13966663435993, -1.862346634015871, 1};
Point(p10 + 5) = {27.0762913224436, -1.788143677556397, 1};
Point(p10 + 6) = {27.00208836598413, -1.724768365640074, 1};
Point(p10 + 7) = {26.91888488803503, -1.673781208776883, 1};
Point(p10 + 8) = {26.82872963435992, -1.636437679985468, 1};
Point(p10 + 9) = {26.73384252651243, -1.613657300880739, 1};
Point(p10 + 10) = {26.63656, -1.606001, 1};
Point(p10 + 11) = {26.53927747348757, -1.613657300880739, 1};
Point(p10 + 12) = {26.44439036564007, -1.636437679985468, 1};
Point(p10 + 13) = {26.35423511196497, -1.673781208776883, 1};
Point(p10 + 14) = {26.27103163401587, -1.724768365640074, 1};
Point(p10 + 15) = {26.1968286775564, -1.788143677556397, 1};
Point(p10 + 16) = {26.13345336564007, -1.862346634015871, 1};
Point(p10 + 17) = {26.08246620877688, -1.945550111964969, 1};
Point(p10 + 18) = {26.04512267998547, -2.035705365640074, 1};
Point(p10 + 19) = {26.02234230088074, -2.130592473487571, 1};
Point(p10 + 20) = {26.014686, -2.227875, 1};
Point(p10 + 21) = {26.02234230088074, -2.325157526512429, 1};
Point(p10 + 22) = {26.04512267998547, -2.420044634359926, 1};
Point(p10 + 23) = {26.08246620877688, -2.51019988803503, 1};
Point(p10 + 24) = {26.13345336564007, -2.59340336598413, 1};
Point(p10 + 25) = {26.1968286775564, -2.667606322443603, 1};
Point(p10 + 26) = {26.27103163401587, -2.730981634359926, 1};
Point(p10 + 27) = {26.35423511196497, -2.781968791223117, 1};
Point(p10 + 28) = {26.44439036564007, -2.819312320014532, 1};
Point(p10 + 29) = {26.53927747348757, -2.842092699119261, 1};
Point(p10 + 30) = {26.63656, -2.849749, 1};
Point(p10 + 31) = {26.73384252651243, -2.842092699119261, 1};
Point(p10 + 32) = {26.82872963435992, -2.819312320014532, 1};
Point(p10 + 33) = {26.91888488803503, -2.781968791223117, 1};
Point(p10 + 34) = {27.00208836598413, -2.730981634359926, 1};
Point(p10 + 35) = {27.0762913224436, -2.667606322443603, 1};
Point(p10 + 36) = {27.13966663435993, -2.59340336598413, 1};
Point(p10 + 37) = {27.19065379122312, -2.510199888035031, 1};
Point(p10 + 38) = {27.22799732001453, -2.420044634359926, 1};
Point(p10 + 39) = {27.25077769911926, -2.325157526512429, 1};
Spline(10) = {8, p10 + 1, p10 + 2, p10 + 3, p10 + 4, p10 + 5, p10 + 6, p10 + 7, p10 + 8, p10 + 9, p10 + 10, p10 + 11, p10 + 12, p10 + 13, p10 + 14, p10 + 15, p10 + 16, p10 + 17, p10 + 18, p10 + 19, p10 + 20, p10 + 21, p10 + 22, p10 + 23, p10 + 24, p10 + 25, p10 + 26, p10 + 27, p10 + 28, p10 + 29, p10 + 30, p10 + 31, p10 + 32, p10 + 33, p10 + 34, p10 + 35, p10 + 36, p10 + 37, p10 + 38, p10 + 39, 8};
Line(11) = {4, 9};
Line(12) = {9, 7};
Line(13) = {5, 9};
p14 = newp;
Point(p14 + 1) = {27.25077769911926, -2.130592473487571, 0};
Point(p14 + 2) = {27.22799732001453, -2.035705365640074, 0};
Point(p14 + 3) = {27.19065379122312, -1.945550111964969, 0};
Point(p14 + 4) = {27.13966663435993, -1.862346634015871, 0};
Point(p14 + 5) = {27.0762913224436, -1.788143677556397, 0};
Point(p14 + 6) = {27.00208836598413, -1.724768365640074, 0};
Point(p14 + 7) = {26.91888488803503, -1.673781208776883, 0};
Point(p14 + 8) = {26.82872963435992, -1.636437679985468, 0};
Point(p14 + 9) = {26.73384252651243, -1.613657300880739, 0};
Point(p14 + 10) = {26.63656, -1.606001, 0};
Point(p14 + 11) = {26.53927747348757, -1.613657300880739, 0};
Point(p14 + 12) = {26.44439036564007, -1.636437679985468, 0};
Point(p14 + 13) = {26.35423511196497, -1.673781208776883, 0};
Point(p14 + 14) = {26.27103163401587, -1.724768365640074, 0};
Point(p14 + 15) = {26.1968286775564, -1.788143677556397, 0};
Point(p14 + 16) = {26.13345336564007, -1.862346634015871, 0};
Point(p14 + 17) = {26.08246620877688, -1.945550111964969, 0};
Point(p14 + 18) = {26.04512267998547, -2.035705365640074, 0};
Point(p14 + 19) = {26.02234230088074, -2.130592473487571, 0};
Point(p14 + 20) = {26.014686, -2.227875, 0};
Point(p14 + 21) = {26.02234230088074, -2.325157526512429, 0};
Point(p14 + 22) = {26.04512267998547, -2.420044634359926, 0};
Point(p14 + 23) = {26.08246620877688, -2.51019988803503, 0};
Point(p14 + 24) = {26.13345336564007, -2.59340336598413, 0};
Point(p14 + 25) = {26.1968286775564, -2.667606322443603, 0};
Point(p14 + 26) = {26.27103163401587, -2.730981634359926, 0};
Point(p14 + 27) = {26.35423511196497, -2.781968791223117, 0};
Point(p14 + 28) = {26.44439036564007, -2.819312320014532, 0};
Point(p14 + 29) = {26.53927747348757, -2.842092699119261, 0};
Point(p14 + 30) = {26.63656, -2.849749, 0};
Point(p14 + 31) = {26.73384252651243, -2.842092699119261, 0};
Point(p14 + 32) = {26.82872963435992, -2.819312320014532, 0};
Point(p14 + 33) = {26.91888488803503, -2.781968791223117, 0};
Point(p14 + 34) = {27.00208836598413, -2.730981634359926, 0};
Point(p14 + 35) = {27.0762913224436, -2.667606322443603, 0};
Point(p14 + 36) = {27.13966663435993, -2.59340336598413, 0};
Point(p14 + 37) = {27.19065379122312, -2.510199888035031, 0};
Point(p14 + 38) = {27.22799732001453, -2.420044634359926, 0};
Point(p14 + 39) = {27.25077769911926, -2.325157526512429, 0};
Spline(14) = {10, p14 + 1, p14 + 2, p14 + 3, p14 + 4, p14 + 5, p14 + 6, p14 + 7, p14 + 8, p14 + 9, p14 + 10, p14 + 11, p14 + 12, p14 + 13, p14 + 14, p14 + 15, p14 + 16, p14 + 17, p14 + 18, p14 + 19, p14 + 20, p14 + 21, p14 + 22, p14 + 23, p14 + 24, p14 + 25, p14 + 26, p14 + 27, p14 + 28, p14 + 29, p14 + 30, p14 + 31, p14 + 32, p14 + 33, p14 + 34, p14 + 35, p14 + 36, p14 + 37, p14 + 38, p14 + 39, 10};
Line(15) = {10, 8};
Curve Loop(1) = {-1, 4, 3, -2};
Plane Surface(1) = {1};
Curve Loop(2) = {-5, 1, 7, -6};
Plane Surface(2) = {2};
Curve Loop(3) = {-2, 7, 9, -8, -10};
Plane Surface(3) = {3};
Curve Loop(4) = {-11, 3, 8, -12};
Plane Surface(4) = {4};
Curve Loop(5) = {-4, 5, 13, -11, -14};
Plane Surface(5) = {5};
Curve Loop(6) = {-6, 13, 12, -9};
Plane Surface(6) = {6};
Curve Loop(7) = {-10, -15, 14, 15};
Surface(7) = {7};
Surface Loop(1) = {1, 2, 3, 4, 5, 6, 7};
Volume(1) = {1};
Physical Surface("INFLOW") = {1};
Physical Surface("OUTFLOW") = {6};
Physical Surface("OBSTACLE") = {7};
Physical Surface("WALL_Y") = {2, 4};
Physical Surface("WALL_Z") = {3, 5};
Physical Volume("FLUID") = {1};
