cl__1 = 3.598673;
cl__2 = 1.037266;
cl__3 = 1.282715;
cl__4 = 0.109555;
cl__5 = 0.121435;
Point(1) = {0.805388, -3.878924, 1, cl__1};
Point(2) = {0.805388, -3.878924, 0, cl__1};
Point(3) = {0.805388, 5.856923, 1, cl__2};
Point(4) = {0.805388, 5.856923, 0, cl__2};
Point(5) = {35.655973, -3.878924, 0, cl__1};
Point(6) = {35.655973, -3.878924, 1, cl__1};
Point(7) = {35.655973, 5.856923, 1, cl__3};
Point(8) = {23.478384, 0.3240929999999997, 1, cl__4};
Point(9) = {26.703182, 1.678789, 1, cl__5};
Point(10) = {35.655973, 5.856923, 0, cl__3};
Point(11) = {23.478384, 0.3240929999999997, 0, cl__4};
Point(12) = {26.703182, 1.678789, 0, cl__5};
Line(1) = {2, 1};
Line(2) = {1, 3};
Line(3) = {4, 3};
Line(4) = {2, 4};
Line(5) = {2, 5};
Line(6) = {5, 6};
Line(7) = {1, 6};
Line(8) = {3, 7};
Line(9) = {6, 7};
p10 = newp;
Point(p10 + 1) = {23.46489597385066, 0.4954746217403599, 1};
Point(p10 + 2) = {23.42476401537064, 0.6626362591704793, 1};
Point(p10 + 3) = {23.35897630656804, 0.8214618379991607, 1};
Point(p10 + 4) = {23.26915275917048, 0.9680405453637668, 1};
Point(p10 + 5) = {23.15750512702214, 1.098763127022141, 1};
Point(p10 + 6) = {23.02678254536377, 1.210410759170479, 1};
Point(p10 + 7) = {22.88020383799916, 1.300234306568042, 1};
Point(p10 + 8) = {22.72137825917048, 1.366022015370639, 1};
Point(p10 + 9) = {22.55421662174036, 1.406153973850663, 1};
Point(p10 + 10) = {22.382835, 1.419642, 1};
Point(p10 + 11) = {22.21145337825964, 1.406153973850663, 1};
Point(p10 + 12) = {22.04429174082952, 1.366022015370639, 1};
Point(p10 + 13) = {21.88546616200084, 1.300234306568042, 1};
Point(p10 + 14) = {21.73888745463623, 1.210410759170479, 1};
Point(p10 + 15) = {21.60816487297786, 1.098763127022141, 1};
Point(p10 + 16) = {21.49651724082952, 0.9680405453637668, 1};
Point(p10 + 17) = {21.40669369343196, 0.8214618379991609, 1};
Point(p10 + 18) = {21.34090598462936, 0.6626362591704794, 1};
Point(p10 + 19) = {21.30077402614934, 0.4954746217403601, 1};
Point(p10 + 20) = {21.287286, 0.3240930000000001, 1};
Point(p10 + 21) = {21.30077402614934, 0.1527113782596403, 1};
Point(p10 + 22) = {21.34090598462936, -0.0144502591704796, 1};
Point(p10 + 23) = {21.40669369343196, -0.1732758379991602, 1};
Point(p10 + 24) = {21.49651724082952, -0.3198545453637666, 1};
Point(p10 + 25) = {21.60816487297786, -0.450577127022141, 1};
Point(p10 + 26) = {21.73888745463623, -0.5622247591704792, 1};
Point(p10 + 27) = {21.88546616200084, -0.6520483065680422, 1};
Point(p10 + 28) = {22.04429174082952, -0.7178360153706393, 1};
Point(p10 + 29) = {22.21145337825964, -0.7579679738506626, 1};
Point(p10 + 30) = {22.382835, -0.7714560000000001, 1};
Point(p10 + 31) = {22.55421662174036, -0.7579679738506628, 1};
Point(p10 + 32) = {22.72137825917048, -0.7178360153706393, 1};
Point(p10 + 33) = {22.88020383799916, -0.6520483065680422, 1};
Point(p10 + 34) = {23.02678254536377, -0.5622247591704794, 1};
Point(p10 + 35) = {23.15750512702214, -0.4505771270221412, 1};
Point(p10 + 36) = {23.26915275917048, -0.319854545363767, 1};
Point(p10 + 37) = {23.35897630656804, -0.173275837999161, 1};
Point(p10 + 38) = {23.42476401537064, -0.01445025917047948, 1};
Point(p10 + 39) = {23.46489597385066, 0.1527113782596399, 1};
Spline(10) = {8, p10 + 1, p10 + 2, p10 + 3, p10 + 4, p10 + 5, p10 + 6, p10 + 7, p10 + 8, p10 + 9, p10 + 10, p10 + 11, p10 + 12, p10 + 13, p10 + 14, p10 + 15, p10 + 16, p10 + 17, p10 + 18, p10 + 19, p10 + 20, p10 + 21, p10 + 22, p10 + 23, p10 + 24, p10 + 25, p10 + 26, p10 + 27, p10 + 28, p10 + 29, p10 + 30, p10 + 31, p10 + 32, p10 + 33, p10 + 34, p10 + 35, p10 + 36, p10 + 37, p10 + 38, p10 + 39, 8};
p11 = newp;
Point(p11 + 1) = {26.68823132409005, 1.86875534905607, 1};
Point(p11 + 2) = {26.64374743161954, 2.054044096136212, 1};
Point(p11 + 3) = {26.57082566365467, 2.230092817349218, 1};
Point(p11 + 4) = {26.47126159613621, 2.392566608906617, 1};
Point(p11 + 5) = {26.34750682684067, 2.537464826840665, 1};
Point(p11 + 6) = {26.20260860890662, 2.661219596136212, 1};
Point(p11 + 7) = {26.04013481734922, 2.760783663654669, 1};
Point(p11 + 8) = {25.86408609613621, 2.833705431619536, 1};
Point(p11 + 9) = {25.67879734905607, 2.878189324090046, 1};
Point(p11 + 10) = {25.488831, 2.89314, 1};
Point(p11 + 11) = {25.29886465094393, 2.878189324090046, 1};
Point(p11 + 12) = {25.11357590386379, 2.833705431619536, 1};
Point(p11 + 13) = {24.93752718265078, 2.760783663654669, 1};
Point(p11 + 14) = {24.77505339109338, 2.661219596136212, 1};
Point(p11 + 15) = {24.63015517315934, 2.537464826840665, 1};
Point(p11 + 16) = {24.50640040386379, 2.392566608906617, 1};
Point(p11 + 17) = {24.40683633634533, 2.230092817349218, 1};
Point(p11 + 18) = {24.33391456838046, 2.054044096136212, 1};
Point(p11 + 19) = {24.28943067590995, 1.86875534905607, 1};
Point(p11 + 20) = {24.27448, 1.678789, 1};
Point(p11 + 21) = {24.28943067590995, 1.488822650943931, 1};
Point(p11 + 22) = {24.33391456838046, 1.303533903863788, 1};
Point(p11 + 23) = {24.40683633634533, 1.127485182650782, 1};
Point(p11 + 24) = {24.50640040386379, 0.9650113910933832, 1};
Point(p11 + 25) = {24.63015517315933, 0.8201131731593351, 1};
Point(p11 + 26) = {24.77505339109338, 0.6963584038637884, 1};
Point(p11 + 27) = {24.93752718265078, 0.5967943363453314, 1};
Point(p11 + 28) = {25.11357590386379, 0.5238725683804641, 1};
Point(p11 + 29) = {25.29886465094393, 0.4793886759099542, 1};
Point(p11 + 30) = {25.488831, 0.4644380000000001, 1};
Point(p11 + 31) = {25.67879734905607, 0.4793886759099539, 1};
Point(p11 + 32) = {25.86408609613621, 0.5238725683804639, 1};
Point(p11 + 33) = {26.04013481734922, 0.5967943363453314, 1};
Point(p11 + 34) = {26.20260860890662, 0.6963584038637882, 1};
Point(p11 + 35) = {26.34750682684066, 0.8201131731593347, 1};
Point(p11 + 36) = {26.47126159613621, 0.9650113910933827, 1};
Point(p11 + 37) = {26.57082566365467, 1.127485182650781, 1};
Point(p11 + 38) = {26.64374743161954, 1.303533903863788, 1};
Point(p11 + 39) = {26.68823132409005, 1.48882265094393, 1};
Spline(11) = {9, p11 + 1, p11 + 2, p11 + 3, p11 + 4, p11 + 5, p11 + 6, p11 + 7, p11 + 8, p11 + 9, p11 + 10, p11 + 11, p11 + 12, p11 + 13, p11 + 14, p11 + 15, p11 + 16, p11 + 17, p11 + 18, p11 + 19, p11 + 20, p11 + 21, p11 + 22, p11 + 23, p11 + 24, p11 + 25, p11 + 26, p11 + 27, p11 + 28, p11 + 29, p11 + 30, p11 + 31, p11 + 32, p11 + 33, p11 + 34, p11 + 35, p11 + 36, p11 + 37, p11 + 38, p11 + 39, 9};
Line(12) = {4, 10};
Line(13) = {10, 7};
Line(14) = {5, 10};
p15 = newp;
Point(p15 + 1) = {23.46489597385066, 0.4954746217403599, 0};
Point(p15 + 2) = {23.42476401537064, 0.6626362591704793, 0};
Point(p15 + 3) = {23.35897630656804, 0.8214618379991607, 0};
Point(p15 + 4) = {23.26915275917048, 0.9680405453637668, 0};
Point(p15 + 5) = {23.15750512702214, 1.098763127022141, 0};
Point(p15 + 6) = {23.02678254536377, 1.210410759170479, 0};
Point(p15 + 7) = {22.88020383799916, 1.300234306568042, 0};
Point(p15 + 8) = {22.72137825917048, 1.366022015370639, 0};
Point(p15 + 9) = {22.55421662174036, 1.406153973850663, 0};
Point(p15 + 10) = {22.382835, 1.419642, 0};
Point(p15 + 11) = {22.21145337825964, 1.406153973850663, 0};
Point(p15 + 12) = {22.04429174082952, 1.366022015370639, 0};
Point(p15 + 13) = {21.88546616200084, 1.300234306568042, 0};
Point(p15 + 14) = {21.73888745463623, 1.210410759170479, 0};
Point(p15 + 15) = {21.60816487297786, 1.098763127022141, 0};
Point(p15 + 16) = {21.49651724082952, 0.9680405453637668, 0};
Point(p15 + 17) = {21.40669369343196, 0.8214618379991609, 0};
Point(p15 + 18) = {21.34090598462936, 0.6626362591704794, 0};
Point(p15 + 19) = {21.30077402614934, 0.4954746217403601, 0};
Point(p15 + 20) = {21.287286, 0.3240930000000001, 0};
Point(p15 + 21) = {21.30077402614934, 0.1527113782596403, 0};
Point(p15 + 22) = {21.34090598462936, -0.0144502591704796, 0};
Point(p15 + 23) = {21.40669369343196, -0.1732758379991602, 0};
Point(p15 + 24) = {21.49651724082952, -0.3198545453637666, 0};
Point(p15 + 25) = {21.60816487297786, -0.450577127022141, 0};
Point(p15 + 26) = {21.73888745463623, -0.5622247591704792, 0};
Point(p15 + 27) = {21.88546616200084, -0.6520483065680422, 0};
Point(p15 + 28) = {22.04429174082952, -0.7178360153706393, 0};
Point(p15 + 29) = {22.21145337825964, -0.7579679738506626, 0};
Point(p15 + 30) = {22.382835, -0.7714560000000001, 0};
Point(p15 + 31) = {22.55421662174036, -0.7579679738506628, 0};
Point(p15 + 32) = {22.72137825917048, -0.7178360153706393, 0};
Point(p15 + 33) = {22.88020383799916, -0.6520483065680422, 0};
Point(p15 + 34) = {23.02678254536377, -0.5622247591704794, 0};
Point(p15 + 35) = {23.15750512702214, -0.4505771270221412, 0};
Point(p15 + 36) = {23.26915275917048, -0.319854545363767, 0};
Point(p15 + 37) = {23.35897630656804, -0.173275837999161, 0};
Point(p15 + 38) = {23.42476401537064, -0.01445025917047948, 0};
Point(p15 + 39) = {23.46489597385066, 0.1527113782596399, 0};
Spline(15) = {11, p15 + 1, p15 + 2, p15 + 3, p15 + 4, p15 + 5, p15 + 6, p15 + 7, p15 + 8, p15 + 9, p15 + 10, p15 + 11, p15 + 12, p15 + 13, p15 + 14, p15 + 15, p15 + 16, p15 + 17, p15 + 18, p15 + 19, p15 + 20, p15 + 21, p15 + 22, p15 + 23, p15 + 24, p15 + 25, p15 + 26, p15 + 27, p15 + 28, p15 + 29, p15 + 30, p15 + 31, p15 + 32, p15 + 33, p15 + 34, p15 + 35, p15 + 36, p15 + 37, p15 + 38, p15 + 39, 11};
p16 = newp;
Point(p16 + 1) = {26.68823132409005, 1.86875534905607, 0};
Point(p16 + 2) = {26.64374743161954, 2.054044096136212, 0};
Point(p16 + 3) = {26.57082566365467, 2.230092817349218, 0};
Point(p16 + 4) = {26.47126159613621, 2.392566608906617, 0};
Point(p16 + 5) = {26.34750682684067, 2.537464826840665, 0};
Point(p16 + 6) = {26.20260860890662, 2.661219596136212, 0};
Point(p16 + 7) = {26.04013481734922, 2.760783663654669, 0};
Point(p16 + 8) = {25.86408609613621, 2.833705431619536, 0};
Point(p16 + 9) = {25.67879734905607, 2.878189324090046, 0};
Point(p16 + 10) = {25.488831, 2.89314, 0};
Point(p16 + 11) = {25.29886465094393, 2.878189324090046, 0};
Point(p16 + 12) = {25.11357590386379, 2.833705431619536, 0};
Point(p16 + 13) = {24.93752718265078, 2.760783663654669, 0};
Point(p16 + 14) = {24.77505339109338, 2.661219596136212, 0};
Point(p16 + 15) = {24.63015517315934, 2.537464826840665, 0};
Point(p16 + 16) = {24.50640040386379, 2.392566608906617, 0};
Point(p16 + 17) = {24.40683633634533, 2.230092817349218, 0};
Point(p16 + 18) = {24.33391456838046, 2.054044096136212, 0};
Point(p16 + 19) = {24.28943067590995, 1.86875534905607, 0};
Point(p16 + 20) = {24.27448, 1.678789, 0};
Point(p16 + 21) = {24.28943067590995, 1.488822650943931, 0};
Point(p16 + 22) = {24.33391456838046, 1.303533903863788, 0};
Point(p16 + 23) = {24.40683633634533, 1.127485182650782, 0};
Point(p16 + 24) = {24.50640040386379, 0.9650113910933832, 0};
Point(p16 + 25) = {24.63015517315933, 0.8201131731593351, 0};
Point(p16 + 26) = {24.77505339109338, 0.6963584038637884, 0};
Point(p16 + 27) = {24.93752718265078, 0.5967943363453314, 0};
Point(p16 + 28) = {25.11357590386379, 0.5238725683804641, 0};
Point(p16 + 29) = {25.29886465094393, 0.4793886759099542, 0};
Point(p16 + 30) = {25.488831, 0.4644380000000001, 0};
Point(p16 + 31) = {25.67879734905607, 0.4793886759099539, 0};
Point(p16 + 32) = {25.86408609613621, 0.5238725683804639, 0};
Point(p16 + 33) = {26.04013481734922, 0.5967943363453314, 0};
Point(p16 + 34) = {26.20260860890662, 0.6963584038637882, 0};
Point(p16 + 35) = {26.34750682684066, 0.8201131731593347, 0};
Point(p16 + 36) = {26.47126159613621, 0.9650113910933827, 0};
Point(p16 + 37) = {26.57082566365467, 1.127485182650781, 0};
Point(p16 + 38) = {26.64374743161954, 1.303533903863788, 0};
Point(p16 + 39) = {26.68823132409005, 1.48882265094393, 0};
Spline(16) = {12, p16 + 1, p16 + 2, p16 + 3, p16 + 4, p16 + 5, p16 + 6, p16 + 7, p16 + 8, p16 + 9, p16 + 10, p16 + 11, p16 + 12, p16 + 13, p16 + 14, p16 + 15, p16 + 16, p16 + 17, p16 + 18, p16 + 19, p16 + 20, p16 + 21, p16 + 22, p16 + 23, p16 + 24, p16 + 25, p16 + 26, p16 + 27, p16 + 28, p16 + 29, p16 + 30, p16 + 31, p16 + 32, p16 + 33, p16 + 34, p16 + 35, p16 + 36, p16 + 37, p16 + 38, p16 + 39, 12};
Line(17) = {11, 8};
Line(18) = {12, 9};
Curve Loop(1) = {-1, 4, 3, -2};
Plane Surface(1) = {1};
Curve Loop(2) = {-5, 1, 7, -6};
Plane Surface(2) = {2};
Curve Loop(3) = {-2, 7, 9, -8, -10, -11};
Plane Surface(3) = {3};
Curve Loop(4) = {-12, 3, 8, -13};
Plane Surface(4) = {4};
Curve Loop(5) = {-4, 5, 14, -12, -15, -16};
Plane Surface(5) = {5};
Curve Loop(6) = {-6, 14, 13, -9};
Plane Surface(6) = {6};
Curve Loop(7) = {-10, -17, 15, 17};
Surface(7) = {7};
Curve Loop(8) = {-11, -18, 16, 18};
Surface(8) = {8};
Surface Loop(1) = {1, 2, 3, 4, 5, 6, 7, 8};
Volume(1) = {1};
Physical Surface("INFLOW") = {1};
Physical Surface("OUTFLOW") = {6};
Physical Surface("OBSTACLE") = {7, 8};
Physical Surface("WALL_Y") = {2, 4};
Physical Surface("WALL_Z") = {3, 5};
Physical Volume("FLUID") = {1};
