cl__1 = 3.581777;
cl__2 = 0.715675;
cl__3 = 1.437889;
cl__4 = 0.080165;
cl__5 = 0.119048;
Point(1) = {0.276968, -4.415761, 1, cl__1};
Point(2) = {0.276968, -4.415761, 0, cl__1};
Point(3) = {0.276968, 4.584258999999999, 1, cl__2};
Point(4) = {0.276968, 4.584258999999999, 0, cl__2};
Point(5) = {35.533967, -4.415761, 0, cl__1};
Point(6) = {35.533967, -4.415761, 1, cl__1};
Point(7) = {35.533967, 4.584258999999999, 1, cl__3};
Point(8) = {30.930618, 1.425651, 1, cl__4};
Point(9) = {22.780669, 2.510732, 1, cl__5};
Point(10) = {35.533967, 4.584258999999999, 0, cl__3};
Point(11) = {30.930618, 1.425651, 0, cl__4};
Point(12) = {22.780669, 2.510732, 0, cl__5};
Line(1) = {2, 1};
Line(2) = {1, 3};
Line(3) = {4, 3};
Line(4) = {2, 4};
Line(5) = {2, 5};
Line(6) = {5, 6};
Line(7) = {1, 6};
Line(8) = {3, 7};
Line(9) = {6, 7};
p10 = newp;
Point(p10 + 1) = {30.92074837054975, 1.551056532465036, 1};
Point(p10 + 2) = {30.89138250523149, 1.673374164523682, 1};
Point(p10 + 3) = {30.84324348910908, 1.789592030125708, 1};
Point(p10 + 4) = {30.77751666452368, 1.896848459715009, 1};
Point(p10 + 5) = {30.69582044403142, 1.992502444031415, 1};
Point(p10 + 6) = {30.60016645971501, 2.074198664523682, 1};
Point(p10 + 7) = {30.49291003012571, 2.139925489109081, 1};
Point(p10 + 8) = {30.37669216452368, 2.188064505231493, 1};
Point(p10 + 9) = {30.25437453246504, 2.217430370549752, 1};
Point(p10 + 10) = {30.128969, 2.2273, 1};
Point(p10 + 11) = {30.00356346753497, 2.217430370549752, 1};
Point(p10 + 12) = {29.88124583547632, 2.188064505231494, 1};
Point(p10 + 13) = {29.76502796987429, 2.139925489109081, 1};
Point(p10 + 14) = {29.65777154028499, 2.074198664523682, 1};
Point(p10 + 15) = {29.56211755596859, 1.992502444031415, 1};
Point(p10 + 16) = {29.48042133547632, 1.896848459715009, 1};
Point(p10 + 17) = {29.41469451089092, 1.789592030125708, 1};
Point(p10 + 18) = {29.36655549476851, 1.673374164523682, 1};
Point(p10 + 19) = {29.33718962945025, 1.551056532465036, 1};
Point(p10 + 20) = {29.32732, 1.425651, 1};
Point(p10 + 21) = {29.33718962945025, 1.300245467534964, 1};
Point(p10 + 22) = {29.36655549476851, 1.177927835476318, 1};
Point(p10 + 23) = {29.41469451089092, 1.061709969874292, 1};
Point(p10 + 24) = {29.48042133547632, 0.9544535402849913, 1};
Point(p10 + 25) = {29.56211755596859, 0.8587995559685855, 1};
Point(p10 + 26) = {29.65777154028499, 0.7771033354763179, 1};
Point(p10 + 27) = {29.76502796987429, 0.7113765108909192, 1};
Point(p10 + 28) = {29.88124583547632, 0.6632374947685066, 1};
Point(p10 + 29) = {30.00356346753497, 0.6338716294502486, 1};
Point(p10 + 30) = {30.128969, 0.6240020000000001, 1};
Point(p10 + 31) = {30.25437453246504, 0.6338716294502484, 1};
Point(p10 + 32) = {30.37669216452368, 0.6632374947685065, 1};
Point(p10 + 33) = {30.49291003012571, 0.7113765108909191, 1};
Point(p10 + 34) = {30.60016645971501, 0.7771033354763177, 1};
Point(p10 + 35) = {30.69582044403142, 0.8587995559685853, 1};
Point(p10 + 36) = {30.77751666452368, 0.9544535402849911, 1};
Point(p10 + 37) = {30.84324348910908, 1.061709969874292, 1};
Point(p10 + 38) = {30.89138250523149, 1.177927835476318, 1};
Point(p10 + 39) = {30.92074837054975, 1.300245467534964, 1};
Spline(10) = {8, p10 + 1, p10 + 2, p10 + 3, p10 + 4, p10 + 5, p10 + 6, p10 + 7, p10 + 8, p10 + 9, p10 + 10, p10 + 11, p10 + 12, p10 + 13, p10 + 14, p10 + 15, p10 + 16, p10 + 17, p10 + 18, p10 + 19, p10 + 20, p10 + 21, p10 + 22, p10 + 23, p10 + 24, p10 + 25, p10 + 26, p10 + 27, p10 + 28, p10 + 29, p10 + 30, p10 + 31, p10 + 32, p10 + 33, p10 + 34, p10 + 35, p10 + 36, p10 + 37, p10 + 38, p10 + 39, 8};
p11 = newp;
Point(p11 + 1) = {22.76601226495834, 2.696963476203234, 1};
Point(p11 + 2) = {22.72240295729299, 2.87860931539551, 1};
Point(p11 + 3) = {22.65091488288967, 3.051196794167937, 1};
Point(p11 + 4) = {22.55330831539551, 3.210476236008134, 1};
Point(p11 + 5) = {22.43198665243984, 3.352525652439836, 1};
Point(p11 + 6) = {22.28993723600813, 3.47384731539551, 1};
Point(p11 + 7) = {22.13065779416794, 3.571453882889672, 1};
Point(p11 + 8) = {21.95807031539551, 3.642941957292989, 1};
Point(p11 + 9) = {21.77642447620323, 3.686551264958337, 1};
Point(p11 + 10) = {21.590193, 3.701208, 1};
Point(p11 + 11) = {21.40396152379677, 3.686551264958337, 1};
Point(p11 + 12) = {21.22231568460449, 3.642941957292989, 1};
Point(p11 + 13) = {21.04972820583206, 3.571453882889672, 1};
Point(p11 + 14) = {20.89044876399187, 3.47384731539551, 1};
Point(p11 + 15) = {20.74839934756016, 3.352525652439836, 1};
Point(p11 + 16) = {20.62707768460449, 3.210476236008134, 1};
Point(p11 + 17) = {20.52947111711033, 3.051196794167937, 1};
Point(p11 + 18) = {20.45798304270701, 2.87860931539551, 1};
Point(p11 + 19) = {20.41437373504166, 2.696963476203234, 1};
Point(p11 + 20) = {20.399717, 2.510732, 1};
Point(p11 + 21) = {20.41437373504166, 2.324500523796766, 1};
Point(p11 + 22) = {20.45798304270701, 2.14285468460449, 1};
Point(p11 + 23) = {20.52947111711033, 1.970267205832064, 1};
Point(p11 + 24) = {20.62707768460449, 1.810987763991866, 1};
Point(p11 + 25) = {20.74839934756016, 1.668938347560164, 1};
Point(p11 + 26) = {20.89044876399187, 1.54761668460449, 1};
Point(p11 + 27) = {21.04972820583206, 1.450010117110329, 1};
Point(p11 + 28) = {21.22231568460449, 1.378522042707011, 1};
Point(p11 + 29) = {21.40396152379677, 1.334912735041663, 1};
Point(p11 + 30) = {21.590193, 1.320256, 1};
Point(p11 + 31) = {21.77642447620323, 1.334912735041663, 1};
Point(p11 + 32) = {21.95807031539551, 1.378522042707011, 1};
Point(p11 + 33) = {22.13065779416793, 1.450010117110328, 1};
Point(p11 + 34) = {22.28993723600813, 1.54761668460449, 1};
Point(p11 + 35) = {22.43198665243984, 1.668938347560163, 1};
Point(p11 + 36) = {22.55330831539551, 1.810987763991865, 1};
Point(p11 + 37) = {22.65091488288967, 1.970267205832063, 1};
Point(p11 + 38) = {22.72240295729299, 2.14285468460449, 1};
Point(p11 + 39) = {22.76601226495834, 2.324500523796766, 1};
Spline(11) = {9, p11 + 1, p11 + 2, p11 + 3, p11 + 4, p11 + 5, p11 + 6, p11 + 7, p11 + 8, p11 + 9, p11 + 10, p11 + 11, p11 + 12, p11 + 13, p11 + 14, p11 + 15, p11 + 16, p11 + 17, p11 + 18, p11 + 19, p11 + 20, p11 + 21, p11 + 22, p11 + 23, p11 + 24, p11 + 25, p11 + 26, p11 + 27, p11 + 28, p11 + 29, p11 + 30, p11 + 31, p11 + 32, p11 + 33, p11 + 34, p11 + 35, p11 + 36, p11 + 37, p11 + 38, p11 + 39, 9};
Line(12) = {4, 10};
Line(13) = {10, 7};
Line(14) = {5, 10};
p15 = newp;
Point(p15 + 1) = {30.92074837054975, 1.551056532465036, 0};
Point(p15 + 2) = {30.89138250523149, 1.673374164523682, 0};
Point(p15 + 3) = {30.84324348910908, 1.789592030125708, 0};
Point(p15 + 4) = {30.77751666452368, 1.896848459715009, 0};
Point(p15 + 5) = {30.69582044403142, 1.992502444031415, 0};
Point(p15 + 6) = {30.60016645971501, 2.074198664523682, 0};
Point(p15 + 7) = {30.49291003012571, 2.139925489109081, 0};
Point(p15 + 8) = {30.37669216452368, 2.188064505231493, 0};
Point(p15 + 9) = {30.25437453246504, 2.217430370549752, 0};
Point(p15 + 10) = {30.128969, 2.2273, 0};
Point(p15 + 11) = {30.00356346753497, 2.217430370549752, 0};
Point(p15 + 12) = {29.88124583547632, 2.188064505231494, 0};
Point(p15 + 13) = {29.76502796987429, 2.139925489109081, 0};
Point(p15 + 14) = {29.65777154028499, 2.074198664523682, 0};
Point(p15 + 15) = {29.56211755596859, 1.992502444031415, 0};
Point(p15 + 16) = {29.48042133547632, 1.896848459715009, 0};
Point(p15 + 17) = {29.41469451089092, 1.789592030125708, 0};
Point(p15 + 18) = {29.36655549476851, 1.673374164523682, 0};
Point(p15 + 19) = {29.33718962945025, 1.551056532465036, 0};
Point(p15 + 20) = {29.32732, 1.425651, 0};
Point(p15 + 21) = {29.33718962945025, 1.300245467534964, 0};
Point(p15 + 22) = {29.36655549476851, 1.177927835476318, 0};
Point(p15 + 23) = {29.41469451089092, 1.061709969874292, 0};
Point(p15 + 24) = {29.48042133547632, 0.9544535402849913, 0};
Point(p15 + 25) = {29.56211755596859, 0.8587995559685855, 0};
Point(p15 + 26) = {29.65777154028499, 0.7771033354763179, 0};
Point(p15 + 27) = {29.76502796987429, 0.7113765108909192, 0};
Point(p15 + 28) = {29.88124583547632, 0.6632374947685066, 0};
Point(p15 + 29) = {30.00356346753497, 0.6338716294502486, 0};
Point(p15 + 30) = {30.128969, 0.6240020000000001, 0};
Point(p15 + 31) = {30.25437453246504, 0.6338716294502484, 0};
Point(p15 + 32) = {30.37669216452368, 0.6632374947685065, 0};
Point(p15 + 33) = {30.49291003012571, 0.7113765108909191, 0};
Point(p15 + 34) = {30.60016645971501, 0.7771033354763177, 0};
Point(p15 + 35) = {30.69582044403142, 0.8587995559685853, 0};
Point(p15 + 36) = {30.77751666452368, 0.9544535402849911, 0};
Point(p15 + 37) = {30.84324348910908, 1.061709969874292, 0};
Point(p15 + 38) = {30.89138250523149, 1.177927835476318, 0};
Point(p15 + 39) = {30.92074837054975, 1.300245467534964, 0};
Spline(15) = {11, p15 + 1, p15 + 2, p15 + 3, p15 + 4, p15 + 5, p15 + 6, p15 + 7, p15 + 8, p15 + 9, p15 + 10, p15 + 11, p15 + 12, p15 + 13, p15 + 14, p15 + 15, p15 + 16, p15 + 17, p15 + 18, p15 + 19, p15 + 20, p15 + 21, p15 + 22, p15 + 23, p15 + 24, p15 + 25, p15 + 26, p15 + 27, p15 + 28, p15 + 29, p15 + 30, p15 + 31, p15 + 32, p15 + 33, p15 + 34, p15 + 35, p15 + 36, p15 + 37, p15 + 38, p15 + 39, 11};
p16 = newp;
Point(p16 + 1) = {22.76601226495834, 2.696963476203234, 0};
Point(p16 + 2) = {22.72240295729299, 2.87860931539551, 0};
Point(p16 + 3) = {22.65091488288967, 3.051196794167937, 0};
Point(p16 + 4) = {22.55330831539551, 3.210476236008134, 0};
Point(p16 + 5) = {22.43198665243984, 3.352525652439836, 0};
Point(p16 + 6) = {22.28993723600813, 3.47384731539551, 0};
Point(p16 + 7) = {22.13065779416794, 3.571453882889672, 0};
Point(p16 + 8) = {21.95807031539551, 3.642941957292989, 0};
Point(p16 + 9) = {21.77642447620323, 3.686551264958337, 0};
Point(p16 + 10) = {21.590193, 3.701208, 0};
Point(p16 + 11) = {21.40396152379677, 3.686551264958337, 0};
Point(p16 + 12) = {21.22231568460449, 3.642941957292989, 0};
Point(p16 + 13) = {21.04972820583206, 3.571453882889672, 0};
Point(p16 + 14) = {20.89044876399187, 3.47384731539551, 0};
Point(p16 + 15) = {20.74839934756016, 3.352525652439836, 0};
Point(p16 + 16) = {20.62707768460449, 3.210476236008134, 0};
Point(p16 + 17) = {20.52947111711033, 3.051196794167937, 0};
Point(p16 + 18) = {20.45798304270701, 2.87860931539551, 0};
Point(p16 + 19) = {20.41437373504166, 2.696963476203234, 0};
Point(p16 + 20) = {20.399717, 2.510732, 0};
Point(p16 + 21) = {20.41437373504166, 2.324500523796766, 0};
Point(p16 + 22) = {20.45798304270701, 2.14285468460449, 0};
Point(p16 + 23) = {20.52947111711033, 1.970267205832064, 0};
Point(p16 + 24) = {20.62707768460449, 1.810987763991866, 0};
Point(p16 + 25) = {20.74839934756016, 1.668938347560164, 0};
Point(p16 + 26) = {20.89044876399187, 1.54761668460449, 0};
Point(p16 + 27) = {21.04972820583206, 1.450010117110329, 0};
Point(p16 + 28) = {21.22231568460449, 1.378522042707011, 0};
Point(p16 + 29) = {21.40396152379677, 1.334912735041663, 0};
Point(p16 + 30) = {21.590193, 1.320256, 0};
Point(p16 + 31) = {21.77642447620323, 1.334912735041663, 0};
Point(p16 + 32) = {21.95807031539551, 1.378522042707011, 0};
Point(p16 + 33) = {22.13065779416793, 1.450010117110328, 0};
Point(p16 + 34) = {22.28993723600813, 1.54761668460449, 0};
Point(p16 + 35) = {22.43198665243984, 1.668938347560163, 0};
Point(p16 + 36) = {22.55330831539551, 1.810987763991865, 0};
Point(p16 + 37) = {22.65091488288967, 1.970267205832063, 0};
Point(p16 + 38) = {22.72240295729299, 2.14285468460449, 0};
Point(p16 + 39) = {22.76601226495834, 2.324500523796766, 0};
Spline(16) = {12, p16 + 1, p16 + 2, p16 + 3, p16 + 4, p16 + 5, p16 + 6, p16 + 7, p16 + 8, p16 + 9, p16 + 10, p16 + 11, p16 + 12, p16 + 13, p16 + 14, p16 + 15, p16 + 16, p16 + 17, p16 + 18, p16 + 19, p16 + 20, p16 + 21, p16 + 22, p16 + 23, p16 + 24, p16 + 25, p16 + 26, p16 + 27, p16 + 28, p16 + 29, p16 + 30, p16 + 31, p16 + 32, p16 + 33, p16 + 34, p16 + 35, p16 + 36, p16 + 37, p16 + 38, p16 + 39, 12};
Line(17) = {11, 8};
Line(18) = {12, 9};
Curve Loop(1) = {-1, 4, 3, -2};
Plane Surface(1) = {1};
Curve Loop(2) = {-5, 1, 7, -6};
Plane Surface(2) = {2};
Curve Loop(3) = {-2, 7, 9, -8, -10, -11};
Plane Surface(3) = {3};
Curve Loop(4) = {-12, 3, 8, -13};
Plane Surface(4) = {4};
Curve Loop(5) = {-4, 5, 14, -12, -15, -16};
Plane Surface(5) = {5};
Curve Loop(6) = {-6, 14, 13, -9};
Plane Surface(6) = {6};
Curve Loop(7) = {-10, -17, 15, 17};
Surface(7) = {7};
Curve Loop(8) = {-11, -18, 16, 18};
Surface(8) = {8};
Surface Loop(1) = {1, 2, 3, 4, 5, 6, 7, 8};
Volume(1) = {1};
Physical Surface("INFLOW") = {1};
Physical Surface("OUTFLOW") = {6};
Physical Surface("OBSTACLE") = {7, 8};
Physical Surface("WALL_Y") = {2, 4};
Physical Surface("WALL_Z") = {3, 5};
Physical Volume("FLUID") = {1};
