cl__1 = 3.37302;
cl__2 = 0.521187;
cl__3 = 0.83605;
cl__4 = 0.066291;
cl__5 = 0.118885;
Point(1) = {0.8704809999999999, -3.367512, 1, cl__1};
Point(2) = {0.8704809999999999, -3.367512, 0, cl__1};
Point(3) = {0.8704809999999999, 4.541271999999999, 1, cl__2};
Point(4) = {0.8704809999999999, 4.541271999999999, 0, cl__2};
Point(5) = {33.497599, -3.367512, 0, cl__3};
Point(6) = {33.497599, -3.367512, 1, cl__3};
Point(7) = {33.497599, 4.541271999999999, 1, cl__2};
Point(8) = {10.212047, -0.8971280000000003, 1, cl__4};
Point(9) = {31.152183, 1.96898, 1, cl__5};
Point(10) = {33.497599, 4.541271999999999, 0, cl__2};
Point(11) = {10.212047, -0.8971280000000003, 0, cl__4};
Point(12) = {31.152183, 1.96898, 0, cl__5};
Line(1) = {2, 1};
Line(2) = {1, 3};
Line(3) = {4, 3};
Line(4) = {2, 4};
Line(5) = {2, 5};
Line(6) = {5, 6};
Line(7) = {1, 6};
Line(8) = {3, 7};
Line(9) = {6, 7};
p10 = newp;
Point(p10 + 1) = {10.2038855147989, -0.7934264980835757, 1};
Point(p10 + 2) = {10.17960202204767, -0.6922784713098868, 1};
Point(p10 + 3) = {10.13979446193014, -0.5961745197891564, 1};
Point(p10 + 4) = {10.08544302869011, -0.5074810417585536, 1};
Point(p10 + 5) = {10.01788603499603, -0.4283819650039694, 1};
Point(p10 + 6) = {9.938786958241446, -0.3608249713098868, 1};
Point(p10 + 7) = {9.850093480210843, -0.3064735380698617, 1};
Point(p10 + 8) = {9.753989528690113, -0.2666659779523287, 1};
Point(p10 + 9) = {9.652841501916424, -0.2423824852010991, 1};
Point(p10 + 10) = {9.54914, -0.234221, 1};
Point(p10 + 11) = {9.445438498083575, -0.2423824852010991, 1};
Point(p10 + 12) = {9.344290471309886, -0.2666659779523286, 1};
Point(p10 + 13) = {9.248186519789156, -0.3064735380698617, 1};
Point(p10 + 14) = {9.159493041758553, -0.3608249713098868, 1};
Point(p10 + 15) = {9.080393965003969, -0.4283819650039693, 1};
Point(p10 + 16) = {9.012836971309886, -0.5074810417585535, 1};
Point(p10 + 17) = {8.958485538069862, -0.5961745197891563, 1};
Point(p10 + 18) = {8.918677977952328, -0.6922784713098867, 1};
Point(p10 + 19) = {8.894394485201099, -0.7934264980835757, 1};
Point(p10 + 20) = {8.886232999999999, -0.8971279999999999, 1};
Point(p10 + 21) = {8.894394485201099, -1.000829501916424, 1};
Point(p10 + 22) = {8.918677977952328, -1.101977528690113, 1};
Point(p10 + 23) = {8.95848553806986, -1.198081480210843, 1};
Point(p10 + 24) = {9.012836971309886, -1.286774958241446, 1};
Point(p10 + 25) = {9.080393965003969, -1.365874034996031, 1};
Point(p10 + 26) = {9.159493041758553, -1.433431028690113, 1};
Point(p10 + 27) = {9.248186519789156, -1.487782461930138, 1};
Point(p10 + 28) = {9.344290471309886, -1.527590022047671, 1};
Point(p10 + 29) = {9.445438498083575, -1.551873514798901, 1};
Point(p10 + 30) = {9.54914, -1.560035, 1};
Point(p10 + 31) = {9.652841501916424, -1.551873514798901, 1};
Point(p10 + 32) = {9.753989528690113, -1.527590022047671, 1};
Point(p10 + 33) = {9.850093480210843, -1.487782461930138, 1};
Point(p10 + 34) = {9.938786958241446, -1.433431028690114, 1};
Point(p10 + 35) = {10.01788603499603, -1.365874034996031, 1};
Point(p10 + 36) = {10.08544302869011, -1.286774958241447, 1};
Point(p10 + 37) = {10.13979446193014, -1.198081480210844, 1};
Point(p10 + 38) = {10.17960202204767, -1.101977528690113, 1};
Point(p10 + 39) = {10.2038855147989, -1.000829501916425, 1};
Spline(10) = {8, p10 + 1, p10 + 2, p10 + 3, p10 + 4, p10 + 5, p10 + 6, p10 + 7, p10 + 8, p10 + 9, p10 + 10, p10 + 11, p10 + 12, p10 + 13, p10 + 14, p10 + 15, p10 + 16, p10 + 17, p10 + 18, p10 + 19, p10 + 20, p10 + 21, p10 + 22, p10 + 23, p10 + 24, p10 + 25, p10 + 26, p10 + 27, p10 + 28, p10 + 29, p10 + 30, p10 + 31, p10 + 32, p10 + 33, p10 + 34, p10 + 35, p10 + 36, p10 + 37, p10 + 38, p10 + 39, 8};
p11 = newp;
Point(p11 + 1) = {31.13754627140487, 2.154957270197543, 1};
Point(p11 + 2) = {31.09399649045401, 2.33635516277965, 1};
Point(p11 + 3) = {31.02260599728787, 2.50870705960586, 1};
Point(p11 + 4) = {30.92513266277965, 2.667769084973159, 1};
Point(p11 + 5) = {30.80397660392041, 2.809624603920408, 1};
Point(p11 + 6) = {30.66212108497316, 2.930780662779651, 1};
Point(p11 + 7) = {30.50305905960586, 3.028253997287865, 1};
Point(p11 + 8) = {30.33070716277965, 3.099644490454009, 1};
Point(p11 + 9) = {30.14930927019754, 3.14319427140487, 1};
Point(p11 + 10) = {29.963332, 3.157831, 1};
Point(p11 + 11) = {29.77735472980246, 3.14319427140487, 1};
Point(p11 + 12) = {29.59595683722035, 3.099644490454009, 1};
Point(p11 + 13) = {29.42360494039414, 3.028253997287865, 1};
Point(p11 + 14) = {29.26454291502684, 2.930780662779651, 1};
Point(p11 + 15) = {29.12268739607959, 2.809624603920408, 1};
Point(p11 + 16) = {29.00153133722035, 2.667769084973159, 1};
Point(p11 + 17) = {28.90405800271214, 2.50870705960586, 1};
Point(p11 + 18) = {28.83266750954599, 2.336355162779651, 1};
Point(p11 + 19) = {28.78911772859513, 2.154957270197543, 1};
Point(p11 + 20) = {28.774481, 1.96898, 1};
Point(p11 + 21) = {28.78911772859513, 1.783002729802457, 1};
Point(p11 + 22) = {28.83266750954599, 1.601604837220349, 1};
Point(p11 + 23) = {28.90405800271213, 1.429252940394141, 1};
Point(p11 + 24) = {29.00153133722035, 1.270190915026841, 1};
Point(p11 + 25) = {29.12268739607959, 1.128335396079592, 1};
Point(p11 + 26) = {29.26454291502684, 1.007179337220349, 1};
Point(p11 + 27) = {29.42360494039414, 0.9097060027121346, 1};
Point(p11 + 28) = {29.59595683722035, 0.8383155095459902, 1};
Point(p11 + 29) = {29.77735472980246, 0.7947657285951299, 1};
Point(p11 + 30) = {29.963332, 0.7801289999999999, 1};
Point(p11 + 31) = {30.14930927019754, 0.7947657285951297, 1};
Point(p11 + 32) = {30.33070716277965, 0.8383155095459902, 1};
Point(p11 + 33) = {30.50305905960586, 0.9097060027121344, 1};
Point(p11 + 34) = {30.66212108497316, 1.007179337220349, 1};
Point(p11 + 35) = {30.80397660392041, 1.128335396079591, 1};
Point(p11 + 36) = {30.92513266277965, 1.270190915026841, 1};
Point(p11 + 37) = {31.02260599728787, 1.42925294039414, 1};
Point(p11 + 38) = {31.09399649045401, 1.601604837220349, 1};
Point(p11 + 39) = {31.13754627140487, 1.783002729802456, 1};
Spline(11) = {9, p11 + 1, p11 + 2, p11 + 3, p11 + 4, p11 + 5, p11 + 6, p11 + 7, p11 + 8, p11 + 9, p11 + 10, p11 + 11, p11 + 12, p11 + 13, p11 + 14, p11 + 15, p11 + 16, p11 + 17, p11 + 18, p11 + 19, p11 + 20, p11 + 21, p11 + 22, p11 + 23, p11 + 24, p11 + 25, p11 + 26, p11 + 27, p11 + 28, p11 + 29, p11 + 30, p11 + 31, p11 + 32, p11 + 33, p11 + 34, p11 + 35, p11 + 36, p11 + 37, p11 + 38, p11 + 39, 9};
Line(12) = {4, 10};
Line(13) = {10, 7};
Line(14) = {5, 10};
p15 = newp;
Point(p15 + 1) = {10.2038855147989, -0.7934264980835757, 0};
Point(p15 + 2) = {10.17960202204767, -0.6922784713098868, 0};
Point(p15 + 3) = {10.13979446193014, -0.5961745197891564, 0};
Point(p15 + 4) = {10.08544302869011, -0.5074810417585536, 0};
Point(p15 + 5) = {10.01788603499603, -0.4283819650039694, 0};
Point(p15 + 6) = {9.938786958241446, -0.3608249713098868, 0};
Point(p15 + 7) = {9.850093480210843, -0.3064735380698617, 0};
Point(p15 + 8) = {9.753989528690113, -0.2666659779523287, 0};
Point(p15 + 9) = {9.652841501916424, -0.2423824852010991, 0};
Point(p15 + 10) = {9.54914, -0.234221, 0};
Point(p15 + 11) = {9.445438498083575, -0.2423824852010991, 0};
Point(p15 + 12) = {9.344290471309886, -0.2666659779523286, 0};
Point(p15 + 13) = {9.248186519789156, -0.3064735380698617, 0};
Point(p15 + 14) = {9.159493041758553, -0.3608249713098868, 0};
Point(p15 + 15) = {9.080393965003969, -0.4283819650039693, 0};
Point(p15 + 16) = {9.012836971309886, -0.5074810417585535, 0};
Point(p15 + 17) = {8.958485538069862, -0.5961745197891563, 0};
Point(p15 + 18) = {8.918677977952328, -0.6922784713098867, 0};
Point(p15 + 19) = {8.894394485201099, -0.7934264980835757, 0};
Point(p15 + 20) = {8.886232999999999, -0.8971279999999999, 0};
Point(p15 + 21) = {8.894394485201099, -1.000829501916424, 0};
Point(p15 + 22) = {8.918677977952328, -1.101977528690113, 0};
Point(p15 + 23) = {8.95848553806986, -1.198081480210843, 0};
Point(p15 + 24) = {9.012836971309886, -1.286774958241446, 0};
Point(p15 + 25) = {9.080393965003969, -1.365874034996031, 0};
Point(p15 + 26) = {9.159493041758553, -1.433431028690113, 0};
Point(p15 + 27) = {9.248186519789156, -1.487782461930138, 0};
Point(p15 + 28) = {9.344290471309886, -1.527590022047671, 0};
Point(p15 + 29) = {9.445438498083575, -1.551873514798901, 0};
Point(p15 + 30) = {9.54914, -1.560035, 0};
Point(p15 + 31) = {9.652841501916424, -1.551873514798901, 0};
Point(p15 + 32) = {9.753989528690113, -1.527590022047671, 0};
Point(p15 + 33) = {9.850093480210843, -1.487782461930138, 0};
Point(p15 + 34) = {9.938786958241446, -1.433431028690114, 0};
Point(p15 + 35) = {10.01788603499603, -1.365874034996031, 0};
Point(p15 + 36) = {10.08544302869011, -1.286774958241447, 0};
Point(p15 + 37) = {10.13979446193014, -1.198081480210844, 0};
Point(p15 + 38) = {10.17960202204767, -1.101977528690113, 0};
Point(p15 + 39) = {10.2038855147989, -1.000829501916425, 0};
Spline(15) = {11, p15 + 1, p15 + 2, p15 + 3, p15 + 4, p15 + 5, p15 + 6, p15 + 7, p15 + 8, p15 + 9, p15 + 10, p15 + 11, p15 + 12, p15 + 13, p15 + 14, p15 + 15, p15 + 16, p15 + 17, p15 + 18, p15 + 19, p15 + 20, p15 + 21, p15 + 22, p15 + 23, p15 + 24, p15 + 25, p15 + 26, p15 + 27, p15 + 28, p15 + 29, p15 + 30, p15 + 31, p15 + 32, p15 + 33, p15 + 34, p15 + 35, p15 + 36, p15 + 37, p15 + 38, p15 + 39, 11};
p16 = newp;
Point(p16 + 1) = {31.13754627140487, 2.154957270197543, 0};
Point(p16 + 2) = {31.09399649045401, 2.33635516277965, 0};
Point(p16 + 3) = {31.02260599728787, 2.50870705960586, 0};
Point(p16 + 4) = {30.92513266277965, 2.667769084973159, 0};
Point(p16 + 5) = {30.80397660392041, 2.809624603920408, 0};
Point(p16 + 6) = {30.66212108497316, 2.930780662779651, 0};
Point(p16 + 7) = {30.50305905960586, 3.028253997287865, 0};
Point(p16 + 8) = {30.33070716277965, 3.099644490454009, 0};
Point(p16 + 9) = {30.14930927019754, 3.14319427140487, 0};
Point(p16 + 10) = {29.963332, 3.157831, 0};
Point(p16 + 11) = {29.77735472980246, 3.14319427140487, 0};
Point(p16 + 12) = {29.59595683722035, 3.099644490454009, 0};
Point(p16 + 13) = {29.42360494039414, 3.028253997287865, 0};
Point(p16 + 14) = {29.26454291502684, 2.930780662779651, 0};
Point(p16 + 15) = {29.12268739607959, 2.809624603920408, 0};
Point(p16 + 16) = {29.00153133722035, 2.667769084973159, 0};
Point(p16 + 17) = {28.90405800271214, 2.50870705960586, 0};
Point(p16 + 18) = {28.83266750954599, 2.336355162779651, 0};
Point(p16 + 19) = {28.78911772859513, 2.154957270197543, 0};
Point(p16 + 20) = {28.774481, 1.96898, 0};
Point(p16 + 21) = {28.78911772859513, 1.783002729802457, 0};
Point(p16 + 22) = {28.83266750954599, 1.601604837220349, 0};
Point(p16 + 23) = {28.90405800271213, 1.429252940394141, 0};
Point(p16 + 24) = {29.00153133722035, 1.270190915026841, 0};
Point(p16 + 25) = {29.12268739607959, 1.128335396079592, 0};
Point(p16 + 26) = {29.26454291502684, 1.007179337220349, 0};
Point(p16 + 27) = {29.42360494039414, 0.9097060027121346, 0};
Point(p16 + 28) = {29.59595683722035, 0.8383155095459902, 0};
Point(p16 + 29) = {29.77735472980246, 0.7947657285951299, 0};
Point(p16 + 30) = {29.963332, 0.7801289999999999, 0};
Point(p16 + 31) = {30.14930927019754, 0.7947657285951297, 0};
Point(p16 + 32) = {30.33070716277965, 0.8383155095459902, 0};
Point(p16 + 33) = {30.50305905960586, 0.9097060027121344, 0};
Point(p16 + 34) = {30.66212108497316, 1.007179337220349, 0};
Point(p16 + 35) = {30.80397660392041, 1.128335396079591, 0};
Point(p16 + 36) = {30.92513266277965, 1.270190915026841, 0};
Point(p16 + 37) = {31.02260599728787, 1.42925294039414, 0};
Point(p16 + 38) = {31.09399649045401, 1.601604837220349, 0};
Point(p16 + 39) = {31.13754627140487, 1.783002729802456, 0};
Spline(16) = {12, p16 + 1, p16 + 2, p16 + 3, p16 + 4, p16 + 5, p16 + 6, p16 + 7, p16 + 8, p16 + 9, p16 + 10, p16 + 11, p16 + 12, p16 + 13, p16 + 14, p16 + 15, p16 + 16, p16 + 17, p16 + 18, p16 + 19, p16 + 20, p16 + 21, p16 + 22, p16 + 23, p16 + 24, p16 + 25, p16 + 26, p16 + 27, p16 + 28, p16 + 29, p16 + 30, p16 + 31, p16 + 32, p16 + 33, p16 + 34, p16 + 35, p16 + 36, p16 + 37, p16 + 38, p16 + 39, 12};
Line(17) = {11, 8};
Line(18) = {12, 9};
Curve Loop(1) = {-1, 4, 3, -2};
Plane Surface(1) = {1};
Curve Loop(2) = {-5, 1, 7, -6};
Plane Surface(2) = {2};
Curve Loop(3) = {-2, 7, 9, -8, -10, -11};
Plane Surface(3) = {3};
Curve Loop(4) = {-12, 3, 8, -13};
Plane Surface(4) = {4};
Curve Loop(5) = {-4, 5, 14, -12, -15, -16};
Plane Surface(5) = {5};
Curve Loop(6) = {-6, 14, 13, -9};
Plane Surface(6) = {6};
Curve Loop(7) = {-10, -17, 15, 17};
Surface(7) = {7};
Curve Loop(8) = {-11, -18, 16, 18};
Surface(8) = {8};
Surface Loop(1) = {1, 2, 3, 4, 5, 6, 7, 8};
Volume(1) = {1};
Physical Surface("INFLOW") = {1};
Physical Surface("OUTFLOW") = {6};
Physical Surface("OBSTACLE") = {7, 8};
Physical Surface("WALL_Y") = {2, 4};
Physical Surface("WALL_Z") = {3, 5};
Physical Volume("FLUID") = {1};
