cl__1 = 3.199332;
cl__2 = 0.589896;
cl__3 = 0.48461;
cl__4 = 0.138342;
cl__5 = 0.052948;
Point(1) = {0.042696, -4.00636, 1, cl__1};
Point(2) = {0.042696, -4.00636, 0, cl__1};
Point(3) = {0.042696, 4.928350000000001, 1, cl__2};
Point(4) = {0.042696, 4.928350000000001, 0, cl__2};
Point(5) = {31.679892, -4.00636, 0, cl__3};
Point(6) = {31.679892, -4.00636, 1, cl__3};
Point(7) = {31.679892, 4.928350000000001, 1, cl__2};
Point(8) = {7.312351, -1.966936, 1, cl__4};
Point(9) = {26.560387, -0.9381560000000002, 1, cl__5};
Point(10) = {31.679892, 4.928350000000001, 0, cl__2};
Point(11) = {7.312351, -1.966936, 0, cl__4};
Point(12) = {26.560387, -0.9381560000000002, 0, cl__5};
Line(1) = {2, 1};
Line(2) = {1, 3};
Line(3) = {4, 3};
Line(4) = {2, 4};
Line(5) = {2, 5};
Line(6) = {5, 6};
Line(7) = {1, 6};
Line(8) = {3, 7};
Line(9) = {6, 7};
p10 = newp;
Point(p10 + 1) = {7.295318754899488, -1.750520806636184, 1};
Point(p10 + 2) = {7.244641409999106, -1.539434473573833, 1};
Point(p10 + 3) = {7.161566809718769, -1.338874646888317, 1};
Point(p10 + 4) = {7.048140526426167, -1.153779775132538, 1};
Point(p10 + 5) = {6.907155491656218, -0.9887075083437817, 1};
Point(p10 + 6) = {6.742083224867462, -0.8477224735738327, 1};
Point(p10 + 7) = {6.556988353111683, -0.7342961902812315, 1};
Point(p10 + 8) = {6.356428526426167, -0.6512215900008935, 1};
Point(p10 + 9) = {6.145342193363816, -0.6005442451005121, 1};
Point(p10 + 10) = {5.928927, -0.583512, 1};
Point(p10 + 11) = {5.712511806636183, -0.6005442451005123, 1};
Point(p10 + 12) = {5.501425473573833, -0.6512215900008933, 1};
Point(p10 + 13) = {5.300865646888317, -0.7342961902812313, 1};
Point(p10 + 14) = {5.115770775132537, -0.8477224735738327, 1};
Point(p10 + 15) = {4.950698508343781, -0.9887075083437816, 1};
Point(p10 + 16) = {4.809713473573833, -1.153779775132537, 1};
Point(p10 + 17) = {4.696287190281232, -1.338874646888317, 1};
Point(p10 + 18) = {4.613212590000893, -1.539434473573833, 1};
Point(p10 + 19) = {4.562535245100512, -1.750520806636183, 1};
Point(p10 + 20) = {4.545503, -1.966936, 1};
Point(p10 + 21) = {4.562535245100512, -2.183351193363816, 1};
Point(p10 + 22) = {4.613212590000893, -2.394437526426167, 1};
Point(p10 + 23) = {4.696287190281231, -2.594997353111682, 1};
Point(p10 + 24) = {4.809713473573833, -2.780092224867462, 1};
Point(p10 + 25) = {4.950698508343781, -2.945164491656218, 1};
Point(p10 + 26) = {5.115770775132537, -3.086149526426167, 1};
Point(p10 + 27) = {5.300865646888317, -3.199575809718769, 1};
Point(p10 + 28) = {5.501425473573832, -3.282650409999107, 1};
Point(p10 + 29) = {5.712511806636183, -3.333327754899488, 1};
Point(p10 + 30) = {5.928927, -3.35036, 1};
Point(p10 + 31) = {6.145342193363816, -3.333327754899488, 1};
Point(p10 + 32) = {6.356428526426167, -3.282650409999107, 1};
Point(p10 + 33) = {6.556988353111683, -3.199575809718769, 1};
Point(p10 + 34) = {6.742083224867462, -3.086149526426167, 1};
Point(p10 + 35) = {6.907155491656217, -2.945164491656219, 1};
Point(p10 + 36) = {7.048140526426167, -2.780092224867463, 1};
Point(p10 + 37) = {7.161566809718768, -2.594997353111683, 1};
Point(p10 + 38) = {7.244641409999106, -2.394437526426167, 1};
Point(p10 + 39) = {7.295318754899488, -2.183351193363817, 1};
Spline(10) = {8, p10 + 1, p10 + 2, p10 + 3, p10 + 4, p10 + 5, p10 + 6, p10 + 7, p10 + 8, p10 + 9, p10 + 10, p10 + 11, p10 + 12, p10 + 13, p10 + 14, p10 + 15, p10 + 16, p10 + 17, p10 + 18, p10 + 19, p10 + 20, p10 + 21, p10 + 22, p10 + 23, p10 + 24, p10 + 25, p10 + 26, p10 + 27, p10 + 28, p10 + 29, p10 + 30, p10 + 31, p10 + 32, p10 + 33, p10 + 34, p10 + 35, p10 + 36, p10 + 37, p10 + 38, p10 + 39, 8};
p11 = newp;
Point(p11 + 1) = {26.55386819795499, -0.8553267665815685, 1};
Point(p11 + 2) = {26.53447230636099, -0.774537063784364, 1};
Point(p11 + 3) = {26.50267691644031, -0.6977762022169053, 1};
Point(p11 + 4) = {26.45926493621564, -0.6269342890456767, 1};
Point(p11 + 5) = {26.40530531271622, -0.5637556872837844, 1};
Point(p11 + 6) = {26.34212671095433, -0.509796063784364, 1};
Point(p11 + 7) = {26.2712847977831, -0.4663840835596946, 1};
Point(p11 + 8) = {26.19452393621564, -0.4345886936390095, 1};
Point(p11 + 9) = {26.11373423341843, -0.4151928020450052, 1};
Point(p11 + 10) = {26.030905, -0.408674, 1};
Point(p11 + 11) = {25.94807576658157, -0.4151928020450053, 1};
Point(p11 + 12) = {25.86728606378437, -0.4345886936390094, 1};
Point(p11 + 13) = {25.79052520221691, -0.4663840835596946, 1};
Point(p11 + 14) = {25.71968328904568, -0.509796063784364, 1};
Point(p11 + 15) = {25.65650468728379, -0.5637556872837843, 1};
Point(p11 + 16) = {25.60254506378437, -0.6269342890456766, 1};
Point(p11 + 17) = {25.55913308355969, -0.6977762022169052, 1};
Point(p11 + 18) = {25.52733769363901, -0.774537063784364, 1};
Point(p11 + 19) = {25.50794180204501, -0.8553267665815684, 1};
Point(p11 + 20) = {25.501423, -0.9381559999999999, 1};
Point(p11 + 21) = {25.50794180204501, -1.020985233418432, 1};
Point(p11 + 22) = {25.52733769363901, -1.101774936215636, 1};
Point(p11 + 23) = {25.55913308355969, -1.178535797783094, 1};
Point(p11 + 24) = {25.60254506378437, -1.249377710954323, 1};
Point(p11 + 25) = {25.65650468728379, -1.312556312716215, 1};
Point(p11 + 26) = {25.71968328904568, -1.366515936215636, 1};
Point(p11 + 27) = {25.79052520221691, -1.409927916440305, 1};
Point(p11 + 28) = {25.86728606378437, -1.44172330636099, 1};
Point(p11 + 29) = {25.94807576658157, -1.461119197954995, 1};
Point(p11 + 30) = {26.030905, -1.467638, 1};
Point(p11 + 31) = {26.11373423341843, -1.461119197954995, 1};
Point(p11 + 32) = {26.19452393621564, -1.44172330636099, 1};
Point(p11 + 33) = {26.2712847977831, -1.409927916440305, 1};
Point(p11 + 34) = {26.34212671095433, -1.366515936215636, 1};
Point(p11 + 35) = {26.40530531271622, -1.312556312716216, 1};
Point(p11 + 36) = {26.45926493621564, -1.249377710954323, 1};
Point(p11 + 37) = {26.50267691644031, -1.178535797783095, 1};
Point(p11 + 38) = {26.53447230636099, -1.101774936215636, 1};
Point(p11 + 39) = {26.55386819795499, -1.020985233418432, 1};
Spline(11) = {9, p11 + 1, p11 + 2, p11 + 3, p11 + 4, p11 + 5, p11 + 6, p11 + 7, p11 + 8, p11 + 9, p11 + 10, p11 + 11, p11 + 12, p11 + 13, p11 + 14, p11 + 15, p11 + 16, p11 + 17, p11 + 18, p11 + 19, p11 + 20, p11 + 21, p11 + 22, p11 + 23, p11 + 24, p11 + 25, p11 + 26, p11 + 27, p11 + 28, p11 + 29, p11 + 30, p11 + 31, p11 + 32, p11 + 33, p11 + 34, p11 + 35, p11 + 36, p11 + 37, p11 + 38, p11 + 39, 9};
Line(12) = {4, 10};
Line(13) = {10, 7};
Line(14) = {5, 10};
p15 = newp;
Point(p15 + 1) = {7.295318754899488, -1.750520806636184, 0};
Point(p15 + 2) = {7.244641409999106, -1.539434473573833, 0};
Point(p15 + 3) = {7.161566809718769, -1.338874646888317, 0};
Point(p15 + 4) = {7.048140526426167, -1.153779775132538, 0};
Point(p15 + 5) = {6.907155491656218, -0.9887075083437817, 0};
Point(p15 + 6) = {6.742083224867462, -0.8477224735738327, 0};
Point(p15 + 7) = {6.556988353111683, -0.7342961902812315, 0};
Point(p15 + 8) = {6.356428526426167, -0.6512215900008935, 0};
Point(p15 + 9) = {6.145342193363816, -0.6005442451005121, 0};
Point(p15 + 10) = {5.928927, -0.583512, 0};
Point(p15 + 11) = {5.712511806636183, -0.6005442451005123, 0};
Point(p15 + 12) = {5.501425473573833, -0.6512215900008933, 0};
Point(p15 + 13) = {5.300865646888317, -0.7342961902812313, 0};
Point(p15 + 14) = {5.115770775132537, -0.8477224735738327, 0};
Point(p15 + 15) = {4.950698508343781, -0.9887075083437816, 0};
Point(p15 + 16) = {4.809713473573833, -1.153779775132537, 0};
Point(p15 + 17) = {4.696287190281232, -1.338874646888317, 0};
Point(p15 + 18) = {4.613212590000893, -1.539434473573833, 0};
Point(p15 + 19) = {4.562535245100512, -1.750520806636183, 0};
Point(p15 + 20) = {4.545503, -1.966936, 0};
Point(p15 + 21) = {4.562535245100512, -2.183351193363816, 0};
Point(p15 + 22) = {4.613212590000893, -2.394437526426167, 0};
Point(p15 + 23) = {4.696287190281231, -2.594997353111682, 0};
Point(p15 + 24) = {4.809713473573833, -2.780092224867462, 0};
Point(p15 + 25) = {4.950698508343781, -2.945164491656218, 0};
Point(p15 + 26) = {5.115770775132537, -3.086149526426167, 0};
Point(p15 + 27) = {5.300865646888317, -3.199575809718769, 0};
Point(p15 + 28) = {5.501425473573832, -3.282650409999107, 0};
Point(p15 + 29) = {5.712511806636183, -3.333327754899488, 0};
Point(p15 + 30) = {5.928927, -3.35036, 0};
Point(p15 + 31) = {6.145342193363816, -3.333327754899488, 0};
Point(p15 + 32) = {6.356428526426167, -3.282650409999107, 0};
Point(p15 + 33) = {6.556988353111683, -3.199575809718769, 0};
Point(p15 + 34) = {6.742083224867462, -3.086149526426167, 0};
Point(p15 + 35) = {6.907155491656217, -2.945164491656219, 0};
Point(p15 + 36) = {7.048140526426167, -2.780092224867463, 0};
Point(p15 + 37) = {7.161566809718768, -2.594997353111683, 0};
Point(p15 + 38) = {7.244641409999106, -2.394437526426167, 0};
Point(p15 + 39) = {7.295318754899488, -2.183351193363817, 0};
Spline(15) = {11, p15 + 1, p15 + 2, p15 + 3, p15 + 4, p15 + 5, p15 + 6, p15 + 7, p15 + 8, p15 + 9, p15 + 10, p15 + 11, p15 + 12, p15 + 13, p15 + 14, p15 + 15, p15 + 16, p15 + 17, p15 + 18, p15 + 19, p15 + 20, p15 + 21, p15 + 22, p15 + 23, p15 + 24, p15 + 25, p15 + 26, p15 + 27, p15 + 28, p15 + 29, p15 + 30, p15 + 31, p15 + 32, p15 + 33, p15 + 34, p15 + 35, p15 + 36, p15 + 37, p15 + 38, p15 + 39, 11};
p16 = newp;
Point(p16 + 1) = {26.55386819795499, -0.8553267665815685, 0};
Point(p16 + 2) = {26.53447230636099, -0.774537063784364, 0};
Point(p16 + 3) = {26.50267691644031, -0.6977762022169053, 0};
Point(p16 + 4) = {26.45926493621564, -0.6269342890456767, 0};
Point(p16 + 5) = {26.40530531271622, -0.5637556872837844, 0};
Point(p16 + 6) = {26.34212671095433, -0.509796063784364, 0};
Point(p16 + 7) = {26.2712847977831, -0.4663840835596946, 0};
Point(p16 + 8) = {26.19452393621564, -0.4345886936390095, 0};
Point(p16 + 9) = {26.11373423341843, -0.4151928020450052, 0};
Point(p16 + 10) = {26.030905, -0.408674, 0};
Point(p16 + 11) = {25.94807576658157, -0.4151928020450053, 0};
Point(p16 + 12) = {25.86728606378437, -0.4345886936390094, 0};
Point(p16 + 13) = {25.79052520221691, -0.4663840835596946, 0};
Point(p16 + 14) = {25.71968328904568, -0.509796063784364, 0};
Point(p16 + 15) = {25.65650468728379, -0.5637556872837843, 0};
Point(p16 + 16) = {25.60254506378437, -0.6269342890456766, 0};
Point(p16 + 17) = {25.55913308355969, -0.6977762022169052, 0};
Point(p16 + 18) = {25.52733769363901, -0.774537063784364, 0};
Point(p16 + 19) = {25.50794180204501, -0.8553267665815684, 0};
Point(p16 + 20) = {25.501423, -0.9381559999999999, 0};
Point(p16 + 21) = {25.50794180204501, -1.020985233418432, 0};
Point(p16 + 22) = {25.52733769363901, -1.101774936215636, 0};
Point(p16 + 23) = {25.55913308355969, -1.178535797783094, 0};
Point(p16 + 24) = {25.60254506378437, -1.249377710954323, 0};
Point(p16 + 25) = {25.65650468728379, -1.312556312716215, 0};
Point(p16 + 26) = {25.71968328904568, -1.366515936215636, 0};
Point(p16 + 27) = {25.79052520221691, -1.409927916440305, 0};
Point(p16 + 28) = {25.86728606378437, -1.44172330636099, 0};
Point(p16 + 29) = {25.94807576658157, -1.461119197954995, 0};
Point(p16 + 30) = {26.030905, -1.467638, 0};
Point(p16 + 31) = {26.11373423341843, -1.461119197954995, 0};
Point(p16 + 32) = {26.19452393621564, -1.44172330636099, 0};
Point(p16 + 33) = {26.2712847977831, -1.409927916440305, 0};
Point(p16 + 34) = {26.34212671095433, -1.366515936215636, 0};
Point(p16 + 35) = {26.40530531271622, -1.312556312716216, 0};
Point(p16 + 36) = {26.45926493621564, -1.249377710954323, 0};
Point(p16 + 37) = {26.50267691644031, -1.178535797783095, 0};
Point(p16 + 38) = {26.53447230636099, -1.101774936215636, 0};
Point(p16 + 39) = {26.55386819795499, -1.020985233418432, 0};
Spline(16) = {12, p16 + 1, p16 + 2, p16 + 3, p16 + 4, p16 + 5, p16 + 6, p16 + 7, p16 + 8, p16 + 9, p16 + 10, p16 + 11, p16 + 12, p16 + 13, p16 + 14, p16 + 15, p16 + 16, p16 + 17, p16 + 18, p16 + 19, p16 + 20, p16 + 21, p16 + 22, p16 + 23, p16 + 24, p16 + 25, p16 + 26, p16 + 27, p16 + 28, p16 + 29, p16 + 30, p16 + 31, p16 + 32, p16 + 33, p16 + 34, p16 + 35, p16 + 36, p16 + 37, p16 + 38, p16 + 39, 12};
Line(17) = {11, 8};
Line(18) = {12, 9};
Curve Loop(1) = {-1, 4, 3, -2};
Plane Surface(1) = {1};
Curve Loop(2) = {-5, 1, 7, -6};
Plane Surface(2) = {2};
Curve Loop(3) = {-2, 7, 9, -8, -10, -11};
Plane Surface(3) = {3};
Curve Loop(4) = {-12, 3, 8, -13};
Plane Surface(4) = {4};
Curve Loop(5) = {-4, 5, 14, -12, -15, -16};
Plane Surface(5) = {5};
Curve Loop(6) = {-6, 14, 13, -9};
Plane Surface(6) = {6};
Curve Loop(7) = {-10, -17, 15, 17};
Surface(7) = {7};
Curve Loop(8) = {-11, -18, 16, 18};
Surface(8) = {8};
Surface Loop(1) = {1, 2, 3, 4, 5, 6, 7, 8};
Volume(1) = {1};
Physical Surface("INFLOW") = {1};
Physical Surface("OUTFLOW") = {6};
Physical Surface("OBSTACLE") = {7, 8};
Physical Surface("WALL_Y") = {2, 4};
Physical Surface("WALL_Z") = {3, 5};
Physical Volume("FLUID") = {1};
