cl__1 = 1.274949;
cl__2 = 1.78108;
cl__3 = 3.876507;
cl__4 = 0.134958;
cl__5 = 0.087057;
Point(1) = {0.101901, -3.728034, 1, cl__1};
Point(2) = {0.101901, -3.728034, 0, cl__1};
Point(3) = {0.101901, 5.272995000000001, 1, cl__2};
Point(4) = {0.101901, 5.272995000000001, 0, cl__2};
Point(5) = {38.502932, -3.728034, 0, cl__1};
Point(6) = {38.502932, -3.728034, 1, cl__1};
Point(7) = {38.502932, 5.272995000000001, 1, cl__3};
Point(8) = {20.83055, -1.429083000000001, 1, cl__4};
Point(9) = {14.238934, -0.6446720000000002, 1, cl__5};
Point(10) = {38.502932, 5.272995000000001, 0, cl__3};
Point(11) = {20.83055, -1.429083000000001, 0, cl__4};
Point(12) = {14.238934, -0.6446720000000002, 0, cl__5};
Line(1) = {2, 1};
Line(2) = {1, 3};
Line(3) = {4, 3};
Line(4) = {2, 4};
Line(5) = {2, 5};
Line(6) = {5, 6};
Line(7) = {1, 6};
Line(8) = {3, 7};
Line(9) = {6, 7};
p10 = newp;
Point(p10 + 1) = {20.81393447994702, -1.217962800408865, 1};
Point(p10 + 2) = {20.76449704903555, -1.012041080799436, 1};
Point(p10 + 3) = {20.68345502088804, -0.8163883173235015, 1};
Point(p10 + 4) = {20.57280391920056, -0.6358221303521333, 1};
Point(p10 + 5) = {20.43526834132662, -0.474788658673384, 1};
Point(p10 + 6) = {20.27423486964787, -0.3372530807994358, 1};
Point(p10 + 7) = {20.0936686826765, -0.2266019791119593, 1};
Point(p10 + 8) = {19.89801591920056, -0.1455599509644518, 1};
Point(p10 + 9) = {19.69209419959114, -0.09612252005297628, 1};
Point(p10 + 10) = {19.480974, -0.07950699999999999, 1};
Point(p10 + 11) = {19.26985380040886, -0.0961225200529765, 1};
Point(p10 + 12) = {19.06393208079944, -0.1455599509644516, 1};
Point(p10 + 13) = {18.8682793173235, -0.2266019791119591, 1};
Point(p10 + 14) = {18.68771313035213, -0.3372530807994358, 1};
Point(p10 + 15) = {18.52667965867338, -0.4747886586733839, 1};
Point(p10 + 16) = {18.38914408079944, -0.6358221303521332, 1};
Point(p10 + 17) = {18.27849297911196, -0.8163883173235014, 1};
Point(p10 + 18) = {18.19745095096445, -1.012041080799436, 1};
Point(p10 + 19) = {18.14801352005298, -1.217962800408865, 1};
Point(p10 + 20) = {18.131398, -1.429083, 1};
Point(p10 + 21) = {18.14801352005298, -1.640203199591135, 1};
Point(p10 + 22) = {18.19745095096445, -1.846124919200565, 1};
Point(p10 + 23) = {18.27849297911196, -2.041777682676498, 1};
Point(p10 + 24) = {18.38914408079944, -2.222343869647867, 1};
Point(p10 + 25) = {18.52667965867338, -2.383377341326616, 1};
Point(p10 + 26) = {18.68771313035213, -2.520912919200564, 1};
Point(p10 + 27) = {18.8682793173235, -2.631564020888041, 1};
Point(p10 + 28) = {19.06393208079944, -2.712606049035548, 1};
Point(p10 + 29) = {19.26985380040886, -2.762043479947024, 1};
Point(p10 + 30) = {19.480974, -2.778659, 1};
Point(p10 + 31) = {19.69209419959114, -2.762043479947024, 1};
Point(p10 + 32) = {19.89801591920056, -2.712606049035549, 1};
Point(p10 + 33) = {20.0936686826765, -2.631564020888041, 1};
Point(p10 + 34) = {20.27423486964787, -2.520912919200565, 1};
Point(p10 + 35) = {20.43526834132662, -2.383377341326617, 1};
Point(p10 + 36) = {20.57280391920056, -2.222343869647867, 1};
Point(p10 + 37) = {20.68345502088804, -2.041777682676499, 1};
Point(p10 + 38) = {20.76449704903555, -1.846124919200564, 1};
Point(p10 + 39) = {20.81393447994702, -1.640203199591135, 1};
Spline(10) = {8, p10 + 1, p10 + 2, p10 + 3, p10 + 4, p10 + 5, p10 + 6, p10 + 7, p10 + 8, p10 + 9, p10 + 10, p10 + 11, p10 + 12, p10 + 13, p10 + 14, p10 + 15, p10 + 16, p10 + 17, p10 + 18, p10 + 19, p10 + 20, p10 + 21, p10 + 22, p10 + 23, p10 + 24, p10 + 25, p10 + 26, p10 + 27, p10 + 28, p10 + 29, p10 + 30, p10 + 31, p10 + 32, p10 + 33, p10 + 34, p10 + 35, p10 + 36, p10 + 37, p10 + 38, p10 + 39, 8};
p11 = newp;
Point(p11 + 1) = {14.22821582636025, -0.5084846913354613, 1};
Point(p11 + 2) = {14.19632522244759, -0.3756507661900077, 1};
Point(p11 + 3) = {14.14404744076919, -0.2494410366512431, 1};
Point(p11 + 4) = {14.07266973380999, -0.1329632051264894, 1};
Point(p11 + 5) = {13.98394965760435, -0.0290853423956462, 1};
Point(p11 + 6) = {13.88007179487351, 0.05963473380999229, 1};
Point(p11 + 7) = {13.76359396334876, 0.1310124407691915, 1};
Point(p11 + 8) = {13.63738423380999, 0.1832902224475881, 1};
Point(p11 + 9) = {13.50455030866454, 0.2151808263602496, 1};
Point(p11 + 10) = {13.368363, 0.225899, 1};
Point(p11 + 11) = {13.23217569133546, 0.2151808263602496, 1};
Point(p11 + 12) = {13.09934176619001, 0.1832902224475882, 1};
Point(p11 + 13) = {12.97313203665124, 0.1310124407691916, 1};
Point(p11 + 14) = {12.85665420512649, 0.05963473380999229, 1};
Point(p11 + 15) = {12.75277634239565, -0.02908534239564609, 1};
Point(p11 + 16) = {12.66405626619001, -0.1329632051264893, 1};
Point(p11 + 17) = {12.59267855923081, -0.249441036651243, 1};
Point(p11 + 18) = {12.54040077755241, -0.3756507661900076, 1};
Point(p11 + 19) = {12.50851017363975, -0.508484691335461, 1};
Point(p11 + 20) = {12.497792, -0.6446719999999999, 1};
Point(p11 + 21) = {12.50851017363975, -0.7808593086645388, 1};
Point(p11 + 22) = {12.54040077755241, -0.9136932338099926, 1};
Point(p11 + 23) = {12.59267855923081, -1.039902963348756, 1};
Point(p11 + 24) = {12.66405626619001, -1.156380794873511, 1};
Point(p11 + 25) = {12.75277634239565, -1.260258657604354, 1};
Point(p11 + 26) = {12.85665420512649, -1.348978733809992, 1};
Point(p11 + 27) = {12.97313203665124, -1.420356440769192, 1};
Point(p11 + 28) = {13.09934176619001, -1.472634222447588, 1};
Point(p11 + 29) = {13.23217569133546, -1.50452482636025, 1};
Point(p11 + 30) = {13.368363, -1.515243, 1};
Point(p11 + 31) = {13.50455030866454, -1.50452482636025, 1};
Point(p11 + 32) = {13.63738423380999, -1.472634222447588, 1};
Point(p11 + 33) = {13.76359396334876, -1.420356440769192, 1};
Point(p11 + 34) = {13.88007179487351, -1.348978733809993, 1};
Point(p11 + 35) = {13.98394965760435, -1.260258657604354, 1};
Point(p11 + 36) = {14.07266973380999, -1.156380794873511, 1};
Point(p11 + 37) = {14.14404744076919, -1.039902963348757, 1};
Point(p11 + 38) = {14.19632522244759, -0.9136932338099926, 1};
Point(p11 + 39) = {14.22821582636025, -0.780859308664539, 1};
Spline(11) = {9, p11 + 1, p11 + 2, p11 + 3, p11 + 4, p11 + 5, p11 + 6, p11 + 7, p11 + 8, p11 + 9, p11 + 10, p11 + 11, p11 + 12, p11 + 13, p11 + 14, p11 + 15, p11 + 16, p11 + 17, p11 + 18, p11 + 19, p11 + 20, p11 + 21, p11 + 22, p11 + 23, p11 + 24, p11 + 25, p11 + 26, p11 + 27, p11 + 28, p11 + 29, p11 + 30, p11 + 31, p11 + 32, p11 + 33, p11 + 34, p11 + 35, p11 + 36, p11 + 37, p11 + 38, p11 + 39, 9};
Line(12) = {4, 10};
Line(13) = {10, 7};
Line(14) = {5, 10};
p15 = newp;
Point(p15 + 1) = {20.81393447994702, -1.217962800408865, 0};
Point(p15 + 2) = {20.76449704903555, -1.012041080799436, 0};
Point(p15 + 3) = {20.68345502088804, -0.8163883173235015, 0};
Point(p15 + 4) = {20.57280391920056, -0.6358221303521333, 0};
Point(p15 + 5) = {20.43526834132662, -0.474788658673384, 0};
Point(p15 + 6) = {20.27423486964787, -0.3372530807994358, 0};
Point(p15 + 7) = {20.0936686826765, -0.2266019791119593, 0};
Point(p15 + 8) = {19.89801591920056, -0.1455599509644518, 0};
Point(p15 + 9) = {19.69209419959114, -0.09612252005297628, 0};
Point(p15 + 10) = {19.480974, -0.07950699999999999, 0};
Point(p15 + 11) = {19.26985380040886, -0.0961225200529765, 0};
Point(p15 + 12) = {19.06393208079944, -0.1455599509644516, 0};
Point(p15 + 13) = {18.8682793173235, -0.2266019791119591, 0};
Point(p15 + 14) = {18.68771313035213, -0.3372530807994358, 0};
Point(p15 + 15) = {18.52667965867338, -0.4747886586733839, 0};
Point(p15 + 16) = {18.38914408079944, -0.6358221303521332, 0};
Point(p15 + 17) = {18.27849297911196, -0.8163883173235014, 0};
Point(p15 + 18) = {18.19745095096445, -1.012041080799436, 0};
Point(p15 + 19) = {18.14801352005298, -1.217962800408865, 0};
Point(p15 + 20) = {18.131398, -1.429083, 0};
Point(p15 + 21) = {18.14801352005298, -1.640203199591135, 0};
Point(p15 + 22) = {18.19745095096445, -1.846124919200565, 0};
Point(p15 + 23) = {18.27849297911196, -2.041777682676498, 0};
Point(p15 + 24) = {18.38914408079944, -2.222343869647867, 0};
Point(p15 + 25) = {18.52667965867338, -2.383377341326616, 0};
Point(p15 + 26) = {18.68771313035213, -2.520912919200564, 0};
Point(p15 + 27) = {18.8682793173235, -2.631564020888041, 0};
Point(p15 + 28) = {19.06393208079944, -2.712606049035548, 0};
Point(p15 + 29) = {19.26985380040886, -2.762043479947024, 0};
Point(p15 + 30) = {19.480974, -2.778659, 0};
Point(p15 + 31) = {19.69209419959114, -2.762043479947024, 0};
Point(p15 + 32) = {19.89801591920056, -2.712606049035549, 0};
Point(p15 + 33) = {20.0936686826765, -2.631564020888041, 0};
Point(p15 + 34) = {20.27423486964787, -2.520912919200565, 0};
Point(p15 + 35) = {20.43526834132662, -2.383377341326617, 0};
Point(p15 + 36) = {20.57280391920056, -2.222343869647867, 0};
Point(p15 + 37) = {20.68345502088804, -2.041777682676499, 0};
Point(p15 + 38) = {20.76449704903555, -1.846124919200564, 0};
Point(p15 + 39) = {20.81393447994702, -1.640203199591135, 0};
Spline(15) = {11, p15 + 1, p15 + 2, p15 + 3, p15 + 4, p15 + 5, p15 + 6, p15 + 7, p15 + 8, p15 + 9, p15 + 10, p15 + 11, p15 + 12, p15 + 13, p15 + 14, p15 + 15, p15 + 16, p15 + 17, p15 + 18, p15 + 19, p15 + 20, p15 + 21, p15 + 22, p15 + 23, p15 + 24, p15 + 25, p15 + 26, p15 + 27, p15 + 28, p15 + 29, p15 + 30, p15 + 31, p15 + 32, p15 + 33, p15 + 34, p15 + 35, p15 + 36, p15 + 37, p15 + 38, p15 + 39, 11};
p16 = newp;
Point(p16 + 1) = {14.22821582636025, -0.5084846913354613, 0};
Point(p16 + 2) = {14.19632522244759, -0.3756507661900077, 0};
Point(p16 + 3) = {14.14404744076919, -0.2494410366512431, 0};
Point(p16 + 4) = {14.07266973380999, -0.1329632051264894, 0};
Point(p16 + 5) = {13.98394965760435, -0.0290853423956462, 0};
Point(p16 + 6) = {13.88007179487351, 0.05963473380999229, 0};
Point(p16 + 7) = {13.76359396334876, 0.1310124407691915, 0};
Point(p16 + 8) = {13.63738423380999, 0.1832902224475881, 0};
Point(p16 + 9) = {13.50455030866454, 0.2151808263602496, 0};
Point(p16 + 10) = {13.368363, 0.225899, 0};
Point(p16 + 11) = {13.23217569133546, 0.2151808263602496, 0};
Point(p16 + 12) = {13.09934176619001, 0.1832902224475882, 0};
Point(p16 + 13) = {12.97313203665124, 0.1310124407691916, 0};
Point(p16 + 14) = {12.85665420512649, 0.05963473380999229, 0};
Point(p16 + 15) = {12.75277634239565, -0.02908534239564609, 0};
Point(p16 + 16) = {12.66405626619001, -0.1329632051264893, 0};
Point(p16 + 17) = {12.59267855923081, -0.249441036651243, 0};
Point(p16 + 18) = {12.54040077755241, -0.3756507661900076, 0};
Point(p16 + 19) = {12.50851017363975, -0.508484691335461, 0};
Point(p16 + 20) = {12.497792, -0.6446719999999999, 0};
Point(p16 + 21) = {12.50851017363975, -0.7808593086645388, 0};
Point(p16 + 22) = {12.54040077755241, -0.9136932338099926, 0};
Point(p16 + 23) = {12.59267855923081, -1.039902963348756, 0};
Point(p16 + 24) = {12.66405626619001, -1.156380794873511, 0};
Point(p16 + 25) = {12.75277634239565, -1.260258657604354, 0};
Point(p16 + 26) = {12.85665420512649, -1.348978733809992, 0};
Point(p16 + 27) = {12.97313203665124, -1.420356440769192, 0};
Point(p16 + 28) = {13.09934176619001, -1.472634222447588, 0};
Point(p16 + 29) = {13.23217569133546, -1.50452482636025, 0};
Point(p16 + 30) = {13.368363, -1.515243, 0};
Point(p16 + 31) = {13.50455030866454, -1.50452482636025, 0};
Point(p16 + 32) = {13.63738423380999, -1.472634222447588, 0};
Point(p16 + 33) = {13.76359396334876, -1.420356440769192, 0};
Point(p16 + 34) = {13.88007179487351, -1.348978733809993, 0};
Point(p16 + 35) = {13.98394965760435, -1.260258657604354, 0};
Point(p16 + 36) = {14.07266973380999, -1.156380794873511, 0};
Point(p16 + 37) = {14.14404744076919, -1.039902963348757, 0};
Point(p16 + 38) = {14.19632522244759, -0.9136932338099926, 0};
Point(p16 + 39) = {14.22821582636025, -0.780859308664539, 0};
Spline(16) = {12, p16 + 1, p16 + 2, p16 + 3, p16 + 4, p16 + 5, p16 + 6, p16 + 7, p16 + 8, p16 + 9, p16 + 10, p16 + 11, p16 + 12, p16 + 13, p16 + 14, p16 + 15, p16 + 16, p16 + 17, p16 + 18, p16 + 19, p16 + 20, p16 + 21, p16 + 22, p16 + 23, p16 + 24, p16 + 25, p16 + 26, p16 + 27, p16 + 28, p16 + 29, p16 + 30, p16 + 31, p16 + 32, p16 + 33, p16 + 34, p16 + 35, p16 + 36, p16 + 37, p16 + 38, p16 + 39, 12};
Line(17) = {11, 8};
Line(18) = {12, 9};
Curve Loop(1) = {-1, 4, 3, -2};
Plane Surface(1) = {1};
Curve Loop(2) = {-5, 1, 7, -6};
Plane Surface(2) = {2};
Curve Loop(3) = {-2, 7, 9, -8, -10, -11};
Plane Surface(3) = {3};
Curve Loop(4) = {-12, 3, 8, -13};
Plane Surface(4) = {4};
Curve Loop(5) = {-4, 5, 14, -12, -15, -16};
Plane Surface(5) = {5};
Curve Loop(6) = {-6, 14, 13, -9};
Plane Surface(6) = {6};
Curve Loop(7) = {-10, -17, 15, 17};
Surface(7) = {7};
Curve Loop(8) = {-11, -18, 16, 18};
Surface(8) = {8};
Surface Loop(1) = {1, 2, 3, 4, 5, 6, 7, 8};
Volume(1) = {1};
Physical Surface("INFLOW") = {1};
Physical Surface("OUTFLOW") = {6};
Physical Surface("OBSTACLE") = {7, 8};
Physical Surface("WALL_Y") = {2, 4};
Physical Surface("WALL_Z") = {3, 5};
Physical Volume("FLUID") = {1};
