cl__1 = 1.079712;
cl__2 = 1.055619;
cl__3 = 3.040882;
cl__4 = 0.116675;
Point(1) = {0.231433, -3.674997, 1, cl__1};
Point(2) = {0.231433, -3.674997, 0, cl__1};
Point(3) = {0.231433, 5.089335, 1, cl__2};
Point(4) = {0.231433, 5.089335, 0, cl__2};
Point(5) = {30.091414, -3.674997, 0, cl__3};
Point(6) = {30.091414, -3.674997, 1, cl__3};
Point(7) = {30.091414, 5.089335, 1, cl__3};
Point(8) = {12.396892, 1.032747, 1, cl__4};
Point(9) = {30.091414, 5.089335, 0, cl__3};
Point(10) = {12.396892, 1.032747, 0, cl__4};
Line(1) = {2, 1};
Line(2) = {1, 3};
Line(3) = {4, 3};
Line(4) = {2, 4};
Line(5) = {2, 5};
Line(6) = {5, 6};
Line(7) = {1, 6};
Line(8) = {3, 7};
Line(9) = {6, 7};
p10 = newp;
Point(p10 + 1) = {12.38252730983108, 1.215267694258015, 1};
Point(p10 + 2) = {12.33978694566995, 1.393294123271942, 1};
Point(p10 + 3) = {12.2697233171294, 1.562442685523615, 1};
Point(p10 + 4) = {12.17406162327194, 1.718548382038505, 1};
Point(p10 + 5) = {12.05515737248331, 1.85776737248331, 1};
Point(p10 + 6) = {11.9159383820385, 1.976671623271942, 1};
Point(p10 + 7) = {11.75983268552361, 2.072333317129399, 1};
Point(p10 + 8) = {11.59068412327194, 2.142396945669952, 1};
Point(p10 + 9) = {11.41265769425801, 2.18513730983108, 1};
Point(p10 + 10) = {11.230137, 2.199502, 1};
Point(p10 + 11) = {11.04761630574198, 2.18513730983108, 1};
Point(p10 + 12) = {10.86958987672806, 2.142396945669952, 1};
Point(p10 + 13) = {10.70044131447638, 2.072333317129399, 1};
Point(p10 + 14) = {10.5443356179615, 1.976671623271942, 1};
Point(p10 + 15) = {10.40511662751669, 1.85776737248331, 1};
Point(p10 + 16) = {10.28621237672806, 1.718548382038505, 1};
Point(p10 + 17) = {10.1905506828706, 1.562442685523615, 1};
Point(p10 + 18) = {10.12048705433005, 1.393294123271942, 1};
Point(p10 + 19) = {10.07774669016892, 1.215267694258015, 1};
Point(p10 + 20) = {10.063382, 1.032747, 1};
Point(p10 + 21) = {10.07774669016892, 0.8502263057419857, 1};
Point(p10 + 22) = {10.12048705433005, 0.6721998767280579, 1};
Point(p10 + 23) = {10.1905506828706, 0.5030513144763858, 1};
Point(p10 + 24) = {10.28621237672806, 0.3469456179614957, 1};
Point(p10 + 25) = {10.40511662751669, 0.2077266275166899, 1};
Point(p10 + 26) = {10.54433561796149, 0.08882237672805837, 1};
Point(p10 + 27) = {10.70044131447638, -0.006839317129399003, 1};
Point(p10 + 28) = {10.86958987672806, -0.07690294566995171, 1};
Point(p10 + 29) = {11.04761630574198, -0.1196433098310798, 1};
Point(p10 + 30) = {11.230137, -0.1340079999999999, 1};
Point(p10 + 31) = {11.41265769425801, -0.1196433098310798, 1};
Point(p10 + 32) = {11.59068412327194, -0.07690294566995193, 1};
Point(p10 + 33) = {11.75983268552361, -0.006839317129399003, 1};
Point(p10 + 34) = {11.9159383820385, 0.08882237672805815, 1};
Point(p10 + 35) = {12.05515737248331, 0.2077266275166897, 1};
Point(p10 + 36) = {12.17406162327194, 0.3469456179614954, 1};
Point(p10 + 37) = {12.2697233171294, 0.503051314476385, 1};
Point(p10 + 38) = {12.33978694566995, 0.6721998767280581, 1};
Point(p10 + 39) = {12.38252730983108, 0.8502263057419852, 1};
Spline(10) = {8, p10 + 1, p10 + 2, p10 + 3, p10 + 4, p10 + 5, p10 + 6, p10 + 7, p10 + 8, p10 + 9, p10 + 10, p10 + 11, p10 + 12, p10 + 13, p10 + 14, p10 + 15, p10 + 16, p10 + 17, p10 + 18, p10 + 19, p10 + 20, p10 + 21, p10 + 22, p10 + 23, p10 + 24, p10 + 25, p10 + 26, p10 + 27, p10 + 28, p10 + 29, p10 + 30, p10 + 31, p10 + 32, p10 + 33, p10 + 34, p10 + 35, p10 + 36, p10 + 37, p10 + 38, p10 + 39, 8};
Line(11) = {4, 9};
Line(12) = {9, 7};
Line(13) = {5, 9};
p14 = newp;
Point(p14 + 1) = {12.38252730983108, 1.215267694258015, 0};
Point(p14 + 2) = {12.33978694566995, 1.393294123271942, 0};
Point(p14 + 3) = {12.2697233171294, 1.562442685523615, 0};
Point(p14 + 4) = {12.17406162327194, 1.718548382038505, 0};
Point(p14 + 5) = {12.05515737248331, 1.85776737248331, 0};
Point(p14 + 6) = {11.9159383820385, 1.976671623271942, 0};
Point(p14 + 7) = {11.75983268552361, 2.072333317129399, 0};
Point(p14 + 8) = {11.59068412327194, 2.142396945669952, 0};
Point(p14 + 9) = {11.41265769425801, 2.18513730983108, 0};
Point(p14 + 10) = {11.230137, 2.199502, 0};
Point(p14 + 11) = {11.04761630574198, 2.18513730983108, 0};
Point(p14 + 12) = {10.86958987672806, 2.142396945669952, 0};
Point(p14 + 13) = {10.70044131447638, 2.072333317129399, 0};
Point(p14 + 14) = {10.5443356179615, 1.976671623271942, 0};
Point(p14 + 15) = {10.40511662751669, 1.85776737248331, 0};
Point(p14 + 16) = {10.28621237672806, 1.718548382038505, 0};
Point(p14 + 17) = {10.1905506828706, 1.562442685523615, 0};
Point(p14 + 18) = {10.12048705433005, 1.393294123271942, 0};
Point(p14 + 19) = {10.07774669016892, 1.215267694258015, 0};
Point(p14 + 20) = {10.063382, 1.032747, 0};
Point(p14 + 21) = {10.07774669016892, 0.8502263057419857, 0};
Point(p14 + 22) = {10.12048705433005, 0.6721998767280579, 0};
Point(p14 + 23) = {10.1905506828706, 0.5030513144763858, 0};
Point(p14 + 24) = {10.28621237672806, 0.3469456179614957, 0};
Point(p14 + 25) = {10.40511662751669, 0.2077266275166899, 0};
Point(p14 + 26) = {10.54433561796149, 0.08882237672805837, 0};
Point(p14 + 27) = {10.70044131447638, -0.006839317129399003, 0};
Point(p14 + 28) = {10.86958987672806, -0.07690294566995171, 0};
Point(p14 + 29) = {11.04761630574198, -0.1196433098310798, 0};
Point(p14 + 30) = {11.230137, -0.1340079999999999, 0};
Point(p14 + 31) = {11.41265769425801, -0.1196433098310798, 0};
Point(p14 + 32) = {11.59068412327194, -0.07690294566995193, 0};
Point(p14 + 33) = {11.75983268552361, -0.006839317129399003, 0};
Point(p14 + 34) = {11.9159383820385, 0.08882237672805815, 0};
Point(p14 + 35) = {12.05515737248331, 0.2077266275166897, 0};
Point(p14 + 36) = {12.17406162327194, 0.3469456179614954, 0};
Point(p14 + 37) = {12.2697233171294, 0.503051314476385, 0};
Point(p14 + 38) = {12.33978694566995, 0.6721998767280581, 0};
Point(p14 + 39) = {12.38252730983108, 0.8502263057419852, 0};
Spline(14) = {10, p14 + 1, p14 + 2, p14 + 3, p14 + 4, p14 + 5, p14 + 6, p14 + 7, p14 + 8, p14 + 9, p14 + 10, p14 + 11, p14 + 12, p14 + 13, p14 + 14, p14 + 15, p14 + 16, p14 + 17, p14 + 18, p14 + 19, p14 + 20, p14 + 21, p14 + 22, p14 + 23, p14 + 24, p14 + 25, p14 + 26, p14 + 27, p14 + 28, p14 + 29, p14 + 30, p14 + 31, p14 + 32, p14 + 33, p14 + 34, p14 + 35, p14 + 36, p14 + 37, p14 + 38, p14 + 39, 10};
Line(15) = {10, 8};
Curve Loop(1) = {-1, 4, 3, -2};
Plane Surface(1) = {1};
Curve Loop(2) = {-5, 1, 7, -6};
Plane Surface(2) = {2};
Curve Loop(3) = {-2, 7, 9, -8, -10};
Plane Surface(3) = {3};
Curve Loop(4) = {-11, 3, 8, -12};
Plane Surface(4) = {4};
Curve Loop(5) = {-4, 5, 13, -11, -14};
Plane Surface(5) = {5};
Curve Loop(6) = {-6, 13, 12, -9};
Plane Surface(6) = {6};
Curve Loop(7) = {-10, -15, 14, 15};
Surface(7) = {7};
Surface Loop(1) = {1, 2, 3, 4, 5, 6, 7};
Volume(1) = {1};
Physical Surface("INFLOW") = {1};
Physical Surface("OUTFLOW") = {6};
Physical Surface("OBSTACLE") = {7};
Physical Surface("WALL_Y") = {2, 4};
Physical Surface("WALL_Z") = {3, 5};
Physical Volume("FLUID") = {1};
