cl__1 = 3.442691;
cl__2 = 0.238;
cl__3 = 0.907768;
cl__4 = 0.063983;
cl__5 = 0.088403;
Point(1) = {0.62808, -4.456834, 1, cl__1};
Point(2) = {0.62808, -4.456834, 0, cl__1};
Point(3) = {0.62808, 4.759581, 1, cl__2};
Point(4) = {0.62808, 4.759581, 0, cl__2};
Point(5) = {34.117099, -4.456834, 0, cl__1};
Point(6) = {34.117099, -4.456834, 1, cl__1};
Point(7) = {34.117099, 4.759581, 1, cl__3};
Point(8) = {33.50308200000001, -1.709611, 1, cl__4};
Point(9) = {26.555295, 0.8255499999999998, 1, cl__5};
Point(10) = {34.117099, 4.759581, 0, cl__3};
Point(11) = {33.50308200000001, -1.709611, 0, cl__4};
Point(12) = {26.555295, 0.8255499999999998, 0, cl__5};
Line(1) = {2, 1};
Line(2) = {1, 3};
Line(3) = {4, 3};
Line(4) = {2, 4};
Line(5) = {2, 5};
Line(6) = {5, 6};
Line(7) = {1, 6};
Line(8) = {3, 7};
Line(9) = {6, 7};
p10 = newp;
Point(p10 + 1) = {33.49520463096299, -1.609519536233309, 1};
Point(p10 + 2) = {33.47176649082113, -1.511892656489077, 1};
Point(p10 + 3) = {33.43334470437144, -1.419134258551646, 1};
Point(p10 + 4) = {33.38088534351093, -1.333528362025707, 1};
Point(p10 + 5) = {33.31568013180659, -1.257182868193411, 1};
Point(p10 + 6) = {33.2393346379743, -1.191977656489077, 1};
Point(p10 + 7) = {33.15372874144835, -1.139518295628557, 1};
Point(p10 + 8) = {33.06097034351092, -1.101096509178872, 1};
Point(p10 + 9) = {32.96334346376669, -1.077658369037013, 1};
Point(p10 + 10) = {32.863252, -1.069781, 1};
Point(p10 + 11) = {32.76316053623331, -1.077658369037013, 1};
Point(p10 + 12) = {32.66553365648908, -1.101096509178872, 1};
Point(p10 + 13) = {32.57277525855165, -1.139518295628557, 1};
Point(p10 + 14) = {32.48716936202571, -1.191977656489077, 1};
Point(p10 + 15) = {32.41082386819341, -1.257182868193411, 1};
Point(p10 + 16) = {32.34561865648908, -1.333528362025707, 1};
Point(p10 + 17) = {32.29315929562856, -1.419134258551646, 1};
Point(p10 + 18) = {32.25473750917887, -1.511892656489077, 1};
Point(p10 + 19) = {32.23129936903702, -1.609519536233309, 1};
Point(p10 + 20) = {32.223422, -1.709611, 1};
Point(p10 + 21) = {32.23129936903702, -1.809702463766691, 1};
Point(p10 + 22) = {32.25473750917887, -1.907329343510923, 1};
Point(p10 + 23) = {32.29315929562856, -2.000087741448354, 1};
Point(p10 + 24) = {32.34561865648908, -2.085693637974293, 1};
Point(p10 + 25) = {32.41082386819341, -2.162039131806589, 1};
Point(p10 + 26) = {32.48716936202571, -2.227244343510923, 1};
Point(p10 + 27) = {32.57277525855165, -2.279703704371443, 1};
Point(p10 + 28) = {32.66553365648908, -2.318125490821128, 1};
Point(p10 + 29) = {32.76316053623331, -2.341563630962987, 1};
Point(p10 + 30) = {32.863252, -2.349441, 1};
Point(p10 + 31) = {32.96334346376669, -2.341563630962987, 1};
Point(p10 + 32) = {33.06097034351092, -2.318125490821128, 1};
Point(p10 + 33) = {33.15372874144835, -2.279703704371443, 1};
Point(p10 + 34) = {33.2393346379743, -2.227244343510923, 1};
Point(p10 + 35) = {33.31568013180659, -2.162039131806589, 1};
Point(p10 + 36) = {33.38088534351093, -2.085693637974293, 1};
Point(p10 + 37) = {33.43334470437144, -2.000087741448354, 1};
Point(p10 + 38) = {33.47176649082113, -1.907329343510923, 1};
Point(p10 + 39) = {33.49520463096299, -1.809702463766691, 1};
Spline(10) = {8, p10 + 1, p10 + 2, p10 + 3, p10 + 4, p10 + 5, p10 + 6, p10 + 7, p10 + 8, p10 + 9, p10 + 10, p10 + 11, p10 + 12, p10 + 13, p10 + 14, p10 + 15, p10 + 16, p10 + 17, p10 + 18, p10 + 19, p10 + 20, p10 + 21, p10 + 22, p10 + 23, p10 + 24, p10 + 25, p10 + 26, p10 + 27, p10 + 28, p10 + 29, p10 + 30, p10 + 31, p10 + 32, p10 + 33, p10 + 34, p10 + 35, p10 + 36, p10 + 37, p10 + 38, p10 + 39, 8};
p11 = newp;
Point(p11 + 1) = {26.544411099113, 0.9638430729984454, 1};
Point(p11 + 2) = {26.51202739421344, 1.098730911571274, 1};
Point(p11 + 3) = {26.45894127959129, 1.226892129465751, 1};
Point(p11 + 4) = {26.38645991157127, 1.34517097215462, 1};
Point(p11 + 5) = {26.29636802198591, 1.450655021985906, 1};
Point(p11 + 6) = {26.19088397215462, 1.540746911571274, 1};
Point(p11 + 7) = {26.07260512946575, 1.613228279591291, 1};
Point(p11 + 8) = {25.94444391157127, 1.666314394213437, 1};
Point(p11 + 9) = {25.80955607299844, 1.698698099113001, 1};
Point(p11 + 10) = {25.671263, 1.709582, 1};
Point(p11 + 11) = {25.53296992700155, 1.698698099113001, 1};
Point(p11 + 12) = {25.39808208842873, 1.666314394213437, 1};
Point(p11 + 13) = {25.26992087053425, 1.613228279591291, 1};
Point(p11 + 14) = {25.15164202784538, 1.540746911571274, 1};
Point(p11 + 15) = {25.04615797801409, 1.450655021985906, 1};
Point(p11 + 16) = {24.95606608842873, 1.34517097215462, 1};
Point(p11 + 17) = {24.88358472040871, 1.226892129465751, 1};
Point(p11 + 18) = {24.83049860578656, 1.098730911571274, 1};
Point(p11 + 19) = {24.798114900887, 0.9638430729984455, 1};
Point(p11 + 20) = {24.787231, 0.8255500000000001, 1};
Point(p11 + 21) = {24.798114900887, 0.6872569270015547, 1};
Point(p11 + 22) = {24.83049860578656, 0.5523690884287262, 1};
Point(p11 + 23) = {24.88358472040871, 0.4242078705342495, 1};
Point(p11 + 24) = {24.95606608842873, 0.3059290278453805, 1};
Point(p11 + 25) = {25.04615797801409, 0.200444978014094, 1};
Point(p11 + 26) = {25.15164202784538, 0.1103530884287265, 1};
Point(p11 + 27) = {25.26992087053425, 0.03787172040870879, 1};
Point(p11 + 28) = {25.39808208842873, -0.01521439421343718, 1};
Point(p11 + 29) = {25.53296992700155, -0.04759809911300072, 1};
Point(p11 + 30) = {25.671263, -0.05848200000000003, 1};
Point(p11 + 31) = {25.80955607299844, -0.04759809911300084, 1};
Point(p11 + 32) = {25.94444391157127, -0.01521439421343729, 1};
Point(p11 + 33) = {26.07260512946575, 0.03787172040870868, 1};
Point(p11 + 34) = {26.19088397215462, 0.1103530884287264, 1};
Point(p11 + 35) = {26.29636802198591, 0.2004449780140939, 1};
Point(p11 + 36) = {26.38645991157127, 0.3059290278453801, 1};
Point(p11 + 37) = {26.45894127959129, 0.4242078705342488, 1};
Point(p11 + 38) = {26.51202739421344, 0.5523690884287262, 1};
Point(p11 + 39) = {26.544411099113, 0.6872569270015545, 1};
Spline(11) = {9, p11 + 1, p11 + 2, p11 + 3, p11 + 4, p11 + 5, p11 + 6, p11 + 7, p11 + 8, p11 + 9, p11 + 10, p11 + 11, p11 + 12, p11 + 13, p11 + 14, p11 + 15, p11 + 16, p11 + 17, p11 + 18, p11 + 19, p11 + 20, p11 + 21, p11 + 22, p11 + 23, p11 + 24, p11 + 25, p11 + 26, p11 + 27, p11 + 28, p11 + 29, p11 + 30, p11 + 31, p11 + 32, p11 + 33, p11 + 34, p11 + 35, p11 + 36, p11 + 37, p11 + 38, p11 + 39, 9};
Line(12) = {4, 10};
Line(13) = {10, 7};
Line(14) = {5, 10};
p15 = newp;
Point(p15 + 1) = {33.49520463096299, -1.609519536233309, 0};
Point(p15 + 2) = {33.47176649082113, -1.511892656489077, 0};
Point(p15 + 3) = {33.43334470437144, -1.419134258551646, 0};
Point(p15 + 4) = {33.38088534351093, -1.333528362025707, 0};
Point(p15 + 5) = {33.31568013180659, -1.257182868193411, 0};
Point(p15 + 6) = {33.2393346379743, -1.191977656489077, 0};
Point(p15 + 7) = {33.15372874144835, -1.139518295628557, 0};
Point(p15 + 8) = {33.06097034351092, -1.101096509178872, 0};
Point(p15 + 9) = {32.96334346376669, -1.077658369037013, 0};
Point(p15 + 10) = {32.863252, -1.069781, 0};
Point(p15 + 11) = {32.76316053623331, -1.077658369037013, 0};
Point(p15 + 12) = {32.66553365648908, -1.101096509178872, 0};
Point(p15 + 13) = {32.57277525855165, -1.139518295628557, 0};
Point(p15 + 14) = {32.48716936202571, -1.191977656489077, 0};
Point(p15 + 15) = {32.41082386819341, -1.257182868193411, 0};
Point(p15 + 16) = {32.34561865648908, -1.333528362025707, 0};
Point(p15 + 17) = {32.29315929562856, -1.419134258551646, 0};
Point(p15 + 18) = {32.25473750917887, -1.511892656489077, 0};
Point(p15 + 19) = {32.23129936903702, -1.609519536233309, 0};
Point(p15 + 20) = {32.223422, -1.709611, 0};
Point(p15 + 21) = {32.23129936903702, -1.809702463766691, 0};
Point(p15 + 22) = {32.25473750917887, -1.907329343510923, 0};
Point(p15 + 23) = {32.29315929562856, -2.000087741448354, 0};
Point(p15 + 24) = {32.34561865648908, -2.085693637974293, 0};
Point(p15 + 25) = {32.41082386819341, -2.162039131806589, 0};
Point(p15 + 26) = {32.48716936202571, -2.227244343510923, 0};
Point(p15 + 27) = {32.57277525855165, -2.279703704371443, 0};
Point(p15 + 28) = {32.66553365648908, -2.318125490821128, 0};
Point(p15 + 29) = {32.76316053623331, -2.341563630962987, 0};
Point(p15 + 30) = {32.863252, -2.349441, 0};
Point(p15 + 31) = {32.96334346376669, -2.341563630962987, 0};
Point(p15 + 32) = {33.06097034351092, -2.318125490821128, 0};
Point(p15 + 33) = {33.15372874144835, -2.279703704371443, 0};
Point(p15 + 34) = {33.2393346379743, -2.227244343510923, 0};
Point(p15 + 35) = {33.31568013180659, -2.162039131806589, 0};
Point(p15 + 36) = {33.38088534351093, -2.085693637974293, 0};
Point(p15 + 37) = {33.43334470437144, -2.000087741448354, 0};
Point(p15 + 38) = {33.47176649082113, -1.907329343510923, 0};
Point(p15 + 39) = {33.49520463096299, -1.809702463766691, 0};
Spline(15) = {11, p15 + 1, p15 + 2, p15 + 3, p15 + 4, p15 + 5, p15 + 6, p15 + 7, p15 + 8, p15 + 9, p15 + 10, p15 + 11, p15 + 12, p15 + 13, p15 + 14, p15 + 15, p15 + 16, p15 + 17, p15 + 18, p15 + 19, p15 + 20, p15 + 21, p15 + 22, p15 + 23, p15 + 24, p15 + 25, p15 + 26, p15 + 27, p15 + 28, p15 + 29, p15 + 30, p15 + 31, p15 + 32, p15 + 33, p15 + 34, p15 + 35, p15 + 36, p15 + 37, p15 + 38, p15 + 39, 11};
p16 = newp;
Point(p16 + 1) = {26.544411099113, 0.9638430729984454, 0};
Point(p16 + 2) = {26.51202739421344, 1.098730911571274, 0};
Point(p16 + 3) = {26.45894127959129, 1.226892129465751, 0};
Point(p16 + 4) = {26.38645991157127, 1.34517097215462, 0};
Point(p16 + 5) = {26.29636802198591, 1.450655021985906, 0};
Point(p16 + 6) = {26.19088397215462, 1.540746911571274, 0};
Point(p16 + 7) = {26.07260512946575, 1.613228279591291, 0};
Point(p16 + 8) = {25.94444391157127, 1.666314394213437, 0};
Point(p16 + 9) = {25.80955607299844, 1.698698099113001, 0};
Point(p16 + 10) = {25.671263, 1.709582, 0};
Point(p16 + 11) = {25.53296992700155, 1.698698099113001, 0};
Point(p16 + 12) = {25.39808208842873, 1.666314394213437, 0};
Point(p16 + 13) = {25.26992087053425, 1.613228279591291, 0};
Point(p16 + 14) = {25.15164202784538, 1.540746911571274, 0};
Point(p16 + 15) = {25.04615797801409, 1.450655021985906, 0};
Point(p16 + 16) = {24.95606608842873, 1.34517097215462, 0};
Point(p16 + 17) = {24.88358472040871, 1.226892129465751, 0};
Point(p16 + 18) = {24.83049860578656, 1.098730911571274, 0};
Point(p16 + 19) = {24.798114900887, 0.9638430729984455, 0};
Point(p16 + 20) = {24.787231, 0.8255500000000001, 0};
Point(p16 + 21) = {24.798114900887, 0.6872569270015547, 0};
Point(p16 + 22) = {24.83049860578656, 0.5523690884287262, 0};
Point(p16 + 23) = {24.88358472040871, 0.4242078705342495, 0};
Point(p16 + 24) = {24.95606608842873, 0.3059290278453805, 0};
Point(p16 + 25) = {25.04615797801409, 0.200444978014094, 0};
Point(p16 + 26) = {25.15164202784538, 0.1103530884287265, 0};
Point(p16 + 27) = {25.26992087053425, 0.03787172040870879, 0};
Point(p16 + 28) = {25.39808208842873, -0.01521439421343718, 0};
Point(p16 + 29) = {25.53296992700155, -0.04759809911300072, 0};
Point(p16 + 30) = {25.671263, -0.05848200000000003, 0};
Point(p16 + 31) = {25.80955607299844, -0.04759809911300084, 0};
Point(p16 + 32) = {25.94444391157127, -0.01521439421343729, 0};
Point(p16 + 33) = {26.07260512946575, 0.03787172040870868, 0};
Point(p16 + 34) = {26.19088397215462, 0.1103530884287264, 0};
Point(p16 + 35) = {26.29636802198591, 0.2004449780140939, 0};
Point(p16 + 36) = {26.38645991157127, 0.3059290278453801, 0};
Point(p16 + 37) = {26.45894127959129, 0.4242078705342488, 0};
Point(p16 + 38) = {26.51202739421344, 0.5523690884287262, 0};
Point(p16 + 39) = {26.544411099113, 0.6872569270015545, 0};
Spline(16) = {12, p16 + 1, p16 + 2, p16 + 3, p16 + 4, p16 + 5, p16 + 6, p16 + 7, p16 + 8, p16 + 9, p16 + 10, p16 + 11, p16 + 12, p16 + 13, p16 + 14, p16 + 15, p16 + 16, p16 + 17, p16 + 18, p16 + 19, p16 + 20, p16 + 21, p16 + 22, p16 + 23, p16 + 24, p16 + 25, p16 + 26, p16 + 27, p16 + 28, p16 + 29, p16 + 30, p16 + 31, p16 + 32, p16 + 33, p16 + 34, p16 + 35, p16 + 36, p16 + 37, p16 + 38, p16 + 39, 12};
Line(17) = {11, 8};
Line(18) = {12, 9};
Curve Loop(1) = {-1, 4, 3, -2};
Plane Surface(1) = {1};
Curve Loop(2) = {-5, 1, 7, -6};
Plane Surface(2) = {2};
Curve Loop(3) = {-2, 7, 9, -8, -10, -11};
Plane Surface(3) = {3};
Curve Loop(4) = {-12, 3, 8, -13};
Plane Surface(4) = {4};
Curve Loop(5) = {-4, 5, 14, -12, -15, -16};
Plane Surface(5) = {5};
Curve Loop(6) = {-6, 14, 13, -9};
Plane Surface(6) = {6};
Curve Loop(7) = {-10, -17, 15, 17};
Surface(7) = {7};
Curve Loop(8) = {-11, -18, 16, 18};
Surface(8) = {8};
Surface Loop(1) = {1, 2, 3, 4, 5, 6, 7, 8};
Volume(1) = {1};
Physical Surface("INFLOW") = {1};
Physical Surface("OUTFLOW") = {6};
Physical Surface("OBSTACLE") = {7, 8};
Physical Surface("WALL_Y") = {2, 4};
Physical Surface("WALL_Z") = {3, 5};
Physical Volume("FLUID") = {1};
