cl__1 = 1;
cl__2 = 0.133203;
cl__3 = 0.091769;
Point(1) = {0.018742, -3.548537, 1, cl__1};
Point(2) = {0.018742, -3.548537, 0, cl__1};
Point(3) = {0.018742, 5.390861000000001, 1, cl__1};
Point(4) = {0.018742, 5.390861000000001, 0, cl__1};
Point(5) = {38.621101, -3.548537, 0, cl__1};
Point(6) = {38.621101, -3.548537, 1, cl__1};
Point(7) = {38.621101, 5.390861000000001, 1, cl__1};
Point(8) = {32.279969, 1.055968999999999, 1, cl__2};
Point(9) = {23.06302, 1.872795, 1, cl__3};
Point(10) = {38.621101, 5.390861000000001, 0, cl__1};
Point(11) = {32.279969, 1.055968999999999, 0, cl__2};
Point(12) = {23.06302, 1.872795, 0, cl__3};
Line(1) = {2, 1};
Line(2) = {1, 3};
Line(3) = {4, 3};
Line(4) = {2, 4};
Line(5) = {2, 5};
Line(6) = {5, 6};
Line(7) = {1, 6};
Line(8) = {3, 7};
Line(9) = {6, 7};
p10 = newp;
Point(p10 + 1) = {32.26356954956957, 1.264343774729678, 1};
Point(p10 + 2) = {32.21477500717457, 1.467587670949284, 1};
Point(p10 + 3) = {32.13478685638853, 1.660696149406069, 1};
Point(p10 + 4) = {32.02557467094928, 1.838914238470134, 1};
Point(p10 + 5) = {31.88982761731679, 1.997853617316792, 1};
Point(p10 + 6) = {31.73088823847013, 2.133600670949284, 1};
Point(p10 + 7) = {31.55267014940607, 2.242812856388535, 1};
Point(p10 + 8) = {31.35956167094928, 2.322801007174568, 1};
Point(p10 + 9) = {31.15631777472968, 2.371595549569579, 1};
Point(p10 + 10) = {30.947943, 2.387995, 1};
Point(p10 + 11) = {30.73956822527032, 2.371595549569578, 1};
Point(p10 + 12) = {30.53632432905071, 2.322801007174568, 1};
Point(p10 + 13) = {30.34321585059393, 2.242812856388535, 1};
Point(p10 + 14) = {30.16499776152986, 2.133600670949284, 1};
Point(p10 + 15) = {30.00605838268321, 1.997853617316792, 1};
Point(p10 + 16) = {29.87031132905071, 1.838914238470134, 1};
Point(p10 + 17) = {29.76109914361146, 1.660696149406069, 1};
Point(p10 + 18) = {29.68111099282543, 1.467587670949284, 1};
Point(p10 + 19) = {29.63231645043042, 1.264343774729679, 1};
Point(p10 + 20) = {29.615917, 1.055969, 1};
Point(p10 + 21) = {29.63231645043042, 0.8475942252703216, 1};
Point(p10 + 22) = {29.68111099282543, 0.6443503290507158, 1};
Point(p10 + 23) = {29.76109914361146, 0.4512418505939312, 1};
Point(p10 + 24) = {29.87031132905071, 0.2730237615298663, 1};
Point(p10 + 25) = {30.00605838268321, 0.1140843826832079, 1};
Point(p10 + 26) = {30.16499776152986, -0.02166267094928354, 1};
Point(p10 + 27) = {30.34321585059393, -0.1308748563885347, 1};
Point(p10 + 28) = {30.53632432905071, -0.2108630071745681, 1};
Point(p10 + 29) = {30.73956822527032, -0.2596575495695788, 1};
Point(p10 + 30) = {30.947943, -0.276057, 1};
Point(p10 + 31) = {31.15631777472968, -0.259657549569579, 1};
Point(p10 + 32) = {31.35956167094928, -0.2108630071745683, 1};
Point(p10 + 33) = {31.55267014940607, -0.1308748563885349, 1};
Point(p10 + 34) = {31.73088823847013, -0.02166267094928398, 1};
Point(p10 + 35) = {31.88982761731679, 0.1140843826832076, 1};
Point(p10 + 36) = {32.02557467094928, 0.2730237615298658, 1};
Point(p10 + 37) = {32.13478685638853, 0.4512418505939302, 1};
Point(p10 + 38) = {32.21477500717457, 0.644350329050716, 1};
Point(p10 + 39) = {32.26356954956957, 0.847594225270321, 1};
Spline(10) = {8, p10 + 1, p10 + 2, p10 + 3, p10 + 4, p10 + 5, p10 + 6, p10 + 7, p10 + 8, p10 + 9, p10 + 10, p10 + 11, p10 + 12, p10 + 13, p10 + 14, p10 + 15, p10 + 16, p10 + 17, p10 + 18, p10 + 19, p10 + 20, p10 + 21, p10 + 22, p10 + 23, p10 + 24, p10 + 25, p10 + 26, p10 + 27, p10 + 28, p10 + 29, p10 + 30, p10 + 31, p10 + 32, p10 + 33, p10 + 34, p10 + 35, p10 + 36, p10 + 37, p10 + 38, p10 + 39, 8};
p11 = newp;
Point(p11 + 1) = {23.05172166403412, 2.01635396996063, 1};
Point(p11 + 2) = {23.01810485866497, 2.156378041635923, 1};
Point(p11 + 3) = {22.96299734120852, 2.289419357667984, 1};
Point(p11 + 4) = {22.88775604163592, 2.412201999317289, 1};
Point(p11 + 5) = {22.79423365045421, 2.521702650454207, 1};
Point(p11 + 6) = {22.68473299931729, 2.615225041635923, 1};
Point(p11 + 7) = {22.56195035766799, 2.69046634120852, 1};
Point(p11 + 8) = {22.42890904163592, 2.745573858664965, 1};
Point(p11 + 9) = {22.28888496996063, 2.779190664034115, 1};
Point(p11 + 10) = {22.145326, 2.790489, 1};
Point(p11 + 11) = {22.00176703003937, 2.779190664034114, 1};
Point(p11 + 12) = {21.86174295836408, 2.745573858664965, 1};
Point(p11 + 13) = {21.72870164233202, 2.69046634120852, 1};
Point(p11 + 14) = {21.60591900068271, 2.615225041635923, 1};
Point(p11 + 15) = {21.49641834954579, 2.521702650454208, 1};
Point(p11 + 16) = {21.40289595836408, 2.412201999317289, 1};
Point(p11 + 17) = {21.32765465879148, 2.289419357667984, 1};
Point(p11 + 18) = {21.27254714133504, 2.156378041635923, 1};
Point(p11 + 19) = {21.23893033596589, 2.01635396996063, 1};
Point(p11 + 20) = {21.227632, 1.872795, 1};
Point(p11 + 21) = {21.23893033596589, 1.729236030039371, 1};
Point(p11 + 22) = {21.27254714133504, 1.589211958364077, 1};
Point(p11 + 23) = {21.32765465879148, 1.456170642332017, 1};
Point(p11 + 24) = {21.40289595836408, 1.333388000682711, 1};
Point(p11 + 25) = {21.49641834954579, 1.223887349545792, 1};
Point(p11 + 26) = {21.60591900068271, 1.130364958364077, 1};
Point(p11 + 27) = {21.72870164233202, 1.05512365879148, 1};
Point(p11 + 28) = {21.86174295836408, 1.000016141335035, 1};
Point(p11 + 29) = {22.00176703003937, 0.9663993359658857, 1};
Point(p11 + 30) = {22.145326, 0.955101, 1};
Point(p11 + 31) = {22.28888496996063, 0.9663993359658856, 1};
Point(p11 + 32) = {22.42890904163592, 1.000016141335035, 1};
Point(p11 + 33) = {22.56195035766799, 1.05512365879148, 1};
Point(p11 + 34) = {22.68473299931729, 1.130364958364077, 1};
Point(p11 + 35) = {22.79423365045421, 1.223887349545792, 1};
Point(p11 + 36) = {22.88775604163592, 1.333388000682711, 1};
Point(p11 + 37) = {22.96299734120852, 1.456170642332016, 1};
Point(p11 + 38) = {23.01810485866497, 1.589211958364077, 1};
Point(p11 + 39) = {23.05172166403412, 1.72923603003937, 1};
Spline(11) = {9, p11 + 1, p11 + 2, p11 + 3, p11 + 4, p11 + 5, p11 + 6, p11 + 7, p11 + 8, p11 + 9, p11 + 10, p11 + 11, p11 + 12, p11 + 13, p11 + 14, p11 + 15, p11 + 16, p11 + 17, p11 + 18, p11 + 19, p11 + 20, p11 + 21, p11 + 22, p11 + 23, p11 + 24, p11 + 25, p11 + 26, p11 + 27, p11 + 28, p11 + 29, p11 + 30, p11 + 31, p11 + 32, p11 + 33, p11 + 34, p11 + 35, p11 + 36, p11 + 37, p11 + 38, p11 + 39, 9};
Line(12) = {4, 10};
Line(13) = {10, 7};
Line(14) = {5, 10};
p15 = newp;
Point(p15 + 1) = {32.26356954956957, 1.264343774729678, 0};
Point(p15 + 2) = {32.21477500717457, 1.467587670949284, 0};
Point(p15 + 3) = {32.13478685638853, 1.660696149406069, 0};
Point(p15 + 4) = {32.02557467094928, 1.838914238470134, 0};
Point(p15 + 5) = {31.88982761731679, 1.997853617316792, 0};
Point(p15 + 6) = {31.73088823847013, 2.133600670949284, 0};
Point(p15 + 7) = {31.55267014940607, 2.242812856388535, 0};
Point(p15 + 8) = {31.35956167094928, 2.322801007174568, 0};
Point(p15 + 9) = {31.15631777472968, 2.371595549569579, 0};
Point(p15 + 10) = {30.947943, 2.387995, 0};
Point(p15 + 11) = {30.73956822527032, 2.371595549569578, 0};
Point(p15 + 12) = {30.53632432905071, 2.322801007174568, 0};
Point(p15 + 13) = {30.34321585059393, 2.242812856388535, 0};
Point(p15 + 14) = {30.16499776152986, 2.133600670949284, 0};
Point(p15 + 15) = {30.00605838268321, 1.997853617316792, 0};
Point(p15 + 16) = {29.87031132905071, 1.838914238470134, 0};
Point(p15 + 17) = {29.76109914361146, 1.660696149406069, 0};
Point(p15 + 18) = {29.68111099282543, 1.467587670949284, 0};
Point(p15 + 19) = {29.63231645043042, 1.264343774729679, 0};
Point(p15 + 20) = {29.615917, 1.055969, 0};
Point(p15 + 21) = {29.63231645043042, 0.8475942252703216, 0};
Point(p15 + 22) = {29.68111099282543, 0.6443503290507158, 0};
Point(p15 + 23) = {29.76109914361146, 0.4512418505939312, 0};
Point(p15 + 24) = {29.87031132905071, 0.2730237615298663, 0};
Point(p15 + 25) = {30.00605838268321, 0.1140843826832079, 0};
Point(p15 + 26) = {30.16499776152986, -0.02166267094928354, 0};
Point(p15 + 27) = {30.34321585059393, -0.1308748563885347, 0};
Point(p15 + 28) = {30.53632432905071, -0.2108630071745681, 0};
Point(p15 + 29) = {30.73956822527032, -0.2596575495695788, 0};
Point(p15 + 30) = {30.947943, -0.276057, 0};
Point(p15 + 31) = {31.15631777472968, -0.259657549569579, 0};
Point(p15 + 32) = {31.35956167094928, -0.2108630071745683, 0};
Point(p15 + 33) = {31.55267014940607, -0.1308748563885349, 0};
Point(p15 + 34) = {31.73088823847013, -0.02166267094928398, 0};
Point(p15 + 35) = {31.88982761731679, 0.1140843826832076, 0};
Point(p15 + 36) = {32.02557467094928, 0.2730237615298658, 0};
Point(p15 + 37) = {32.13478685638853, 0.4512418505939302, 0};
Point(p15 + 38) = {32.21477500717457, 0.644350329050716, 0};
Point(p15 + 39) = {32.26356954956957, 0.847594225270321, 0};
Spline(15) = {11, p15 + 1, p15 + 2, p15 + 3, p15 + 4, p15 + 5, p15 + 6, p15 + 7, p15 + 8, p15 + 9, p15 + 10, p15 + 11, p15 + 12, p15 + 13, p15 + 14, p15 + 15, p15 + 16, p15 + 17, p15 + 18, p15 + 19, p15 + 20, p15 + 21, p15 + 22, p15 + 23, p15 + 24, p15 + 25, p15 + 26, p15 + 27, p15 + 28, p15 + 29, p15 + 30, p15 + 31, p15 + 32, p15 + 33, p15 + 34, p15 + 35, p15 + 36, p15 + 37, p15 + 38, p15 + 39, 11};
p16 = newp;
Point(p16 + 1) = {23.05172166403412, 2.01635396996063, 0};
Point(p16 + 2) = {23.01810485866497, 2.156378041635923, 0};
Point(p16 + 3) = {22.96299734120852, 2.289419357667984, 0};
Point(p16 + 4) = {22.88775604163592, 2.412201999317289, 0};
Point(p16 + 5) = {22.79423365045421, 2.521702650454207, 0};
Point(p16 + 6) = {22.68473299931729, 2.615225041635923, 0};
Point(p16 + 7) = {22.56195035766799, 2.69046634120852, 0};
Point(p16 + 8) = {22.42890904163592, 2.745573858664965, 0};
Point(p16 + 9) = {22.28888496996063, 2.779190664034115, 0};
Point(p16 + 10) = {22.145326, 2.790489, 0};
Point(p16 + 11) = {22.00176703003937, 2.779190664034114, 0};
Point(p16 + 12) = {21.86174295836408, 2.745573858664965, 0};
Point(p16 + 13) = {21.72870164233202, 2.69046634120852, 0};
Point(p16 + 14) = {21.60591900068271, 2.615225041635923, 0};
Point(p16 + 15) = {21.49641834954579, 2.521702650454208, 0};
Point(p16 + 16) = {21.40289595836408, 2.412201999317289, 0};
Point(p16 + 17) = {21.32765465879148, 2.289419357667984, 0};
Point(p16 + 18) = {21.27254714133504, 2.156378041635923, 0};
Point(p16 + 19) = {21.23893033596589, 2.01635396996063, 0};
Point(p16 + 20) = {21.227632, 1.872795, 0};
Point(p16 + 21) = {21.23893033596589, 1.729236030039371, 0};
Point(p16 + 22) = {21.27254714133504, 1.589211958364077, 0};
Point(p16 + 23) = {21.32765465879148, 1.456170642332017, 0};
Point(p16 + 24) = {21.40289595836408, 1.333388000682711, 0};
Point(p16 + 25) = {21.49641834954579, 1.223887349545792, 0};
Point(p16 + 26) = {21.60591900068271, 1.130364958364077, 0};
Point(p16 + 27) = {21.72870164233202, 1.05512365879148, 0};
Point(p16 + 28) = {21.86174295836408, 1.000016141335035, 0};
Point(p16 + 29) = {22.00176703003937, 0.9663993359658857, 0};
Point(p16 + 30) = {22.145326, 0.955101, 0};
Point(p16 + 31) = {22.28888496996063, 0.9663993359658856, 0};
Point(p16 + 32) = {22.42890904163592, 1.000016141335035, 0};
Point(p16 + 33) = {22.56195035766799, 1.05512365879148, 0};
Point(p16 + 34) = {22.68473299931729, 1.130364958364077, 0};
Point(p16 + 35) = {22.79423365045421, 1.223887349545792, 0};
Point(p16 + 36) = {22.88775604163592, 1.333388000682711, 0};
Point(p16 + 37) = {22.96299734120852, 1.456170642332016, 0};
Point(p16 + 38) = {23.01810485866497, 1.589211958364077, 0};
Point(p16 + 39) = {23.05172166403412, 1.72923603003937, 0};
Spline(16) = {12, p16 + 1, p16 + 2, p16 + 3, p16 + 4, p16 + 5, p16 + 6, p16 + 7, p16 + 8, p16 + 9, p16 + 10, p16 + 11, p16 + 12, p16 + 13, p16 + 14, p16 + 15, p16 + 16, p16 + 17, p16 + 18, p16 + 19, p16 + 20, p16 + 21, p16 + 22, p16 + 23, p16 + 24, p16 + 25, p16 + 26, p16 + 27, p16 + 28, p16 + 29, p16 + 30, p16 + 31, p16 + 32, p16 + 33, p16 + 34, p16 + 35, p16 + 36, p16 + 37, p16 + 38, p16 + 39, 12};
Line(17) = {11, 8};
Line(18) = {12, 9};
Curve Loop(1) = {-1, 4, 3, -2};
Plane Surface(1) = {1};
Curve Loop(2) = {-5, 1, 7, -6};
Plane Surface(2) = {2};
Curve Loop(3) = {-2, 7, 9, -8, -10, -11};
Plane Surface(3) = {3};
Curve Loop(4) = {-12, 3, 8, -13};
Plane Surface(4) = {4};
Curve Loop(5) = {-4, 5, 14, -12, -15, -16};
Plane Surface(5) = {5};
Curve Loop(6) = {-6, 14, 13, -9};
Plane Surface(6) = {6};
Curve Loop(7) = {-10, -17, 15, 17};
Surface(7) = {7};
Curve Loop(8) = {-11, -18, 16, 18};
Surface(8) = {8};
Surface Loop(1) = {1, 2, 3, 4, 5, 6, 7, 8};
Volume(1) = {1};
Physical Surface("INFLOW") = {1};
Physical Surface("OUTFLOW") = {6};
Physical Surface("OBSTACLE") = {7, 8};
Physical Surface("WALL_Y") = {2, 4};
Physical Surface("WALL_Z") = {3, 5};
Physical Volume("FLUID") = {1};
