cl__1 = 1.555902;
cl__2 = 1.393769;
cl__3 = 3.83247;
cl__4 = 0.121836;
cl__5 = 0.07040200000000001;
Point(1) = {0.95665, -4.123294, 1, cl__1};
Point(2) = {0.95665, -4.123294, 0, cl__1};
Point(3) = {0.95665, 5.089183, 1, cl__2};
Point(4) = {0.95665, 5.089183, 0, cl__2};
Point(5) = {38.04688100000001, -4.123294, 0, cl__1};
Point(6) = {38.04688100000001, -4.123294, 1, cl__1};
Point(7) = {38.04688100000001, 5.089183, 1, cl__3};
Point(8) = {24.299894, -1.726579000000001, 1, cl__4};
Point(9) = {17.429641, -0.1450860000000002, 1, cl__5};
Point(10) = {38.04688100000001, 5.089183, 0, cl__3};
Point(11) = {24.299894, -1.726579000000001, 0, cl__4};
Point(12) = {17.429641, -0.1450860000000002, 0, cl__5};
Line(1) = {2, 1};
Line(2) = {1, 3};
Line(3) = {4, 3};
Line(4) = {2, 4};
Line(5) = {2, 5};
Line(6) = {5, 6};
Line(7) = {1, 6};
Line(8) = {3, 7};
Line(9) = {6, 7};
p10 = newp;
Point(p10 + 1) = {24.28489392971251, -1.535985035870189, 1};
Point(p10 + 2) = {24.24026307036291, -1.350084127682356, 1};
Point(p10 + 3) = {24.16710038182971, -1.173453772765827, 1};
Point(p10 + 4) = {24.06720737231764, -1.010443196661186, 1};
Point(p10 + 5) = {23.94304373924678, -0.8650662607532145, 1};
Point(p10 + 6) = {23.79766680333881, -0.7409026276823559, 1};
Point(p10 + 7) = {23.63465622723417, -0.6410096181702876, 1};
Point(p10 + 8) = {23.45802587231764, -0.5678469296370878, 1};
Point(p10 + 9) = {23.27212496412981, -0.5232160702874862, 1};
Point(p10 + 10) = {23.081531, -0.508216, 1};
Point(p10 + 11) = {22.89093703587019, -0.5232160702874864, 1};
Point(p10 + 12) = {22.70503612768236, -0.5678469296370878, 1};
Point(p10 + 13) = {22.52840577276583, -0.6410096181702876, 1};
Point(p10 + 14) = {22.36539519666118, -0.7409026276823559, 1};
Point(p10 + 15) = {22.22001826075321, -0.8650662607532144, 1};
Point(p10 + 16) = {22.09585462768235, -1.010443196661186, 1};
Point(p10 + 17) = {21.99596161817028, -1.173453772765827, 1};
Point(p10 + 18) = {21.92279892963709, -1.350084127682356, 1};
Point(p10 + 19) = {21.87816807028748, -1.535985035870189, 1};
Point(p10 + 20) = {21.863168, -1.726579, 1};
Point(p10 + 21) = {21.87816807028748, -1.917172964129811, 1};
Point(p10 + 22) = {21.92279892963709, -2.103073872317645, 1};
Point(p10 + 23) = {21.99596161817028, -2.279704227234173, 1};
Point(p10 + 24) = {22.09585462768235, -2.442714803338815, 1};
Point(p10 + 25) = {22.22001826075321, -2.588091739246786, 1};
Point(p10 + 26) = {22.36539519666118, -2.712255372317644, 1};
Point(p10 + 27) = {22.52840577276583, -2.812148381829712, 1};
Point(p10 + 28) = {22.70503612768236, -2.885311070362913, 1};
Point(p10 + 29) = {22.89093703587019, -2.929941929712514, 1};
Point(p10 + 30) = {23.081531, -2.944942, 1};
Point(p10 + 31) = {23.27212496412981, -2.929941929712514, 1};
Point(p10 + 32) = {23.45802587231764, -2.885311070362913, 1};
Point(p10 + 33) = {23.63465622723417, -2.812148381829712, 1};
Point(p10 + 34) = {23.79766680333881, -2.712255372317644, 1};
Point(p10 + 35) = {23.94304373924678, -2.588091739246786, 1};
Point(p10 + 36) = {24.06720737231764, -2.442714803338815, 1};
Point(p10 + 37) = {24.16710038182971, -2.279704227234174, 1};
Point(p10 + 38) = {24.24026307036291, -2.103073872317645, 1};
Point(p10 + 39) = {24.28489392971251, -1.917172964129811, 1};
Spline(10) = {8, p10 + 1, p10 + 2, p10 + 3, p10 + 4, p10 + 5, p10 + 6, p10 + 7, p10 + 8, p10 + 9, p10 + 10, p10 + 11, p10 + 12, p10 + 13, p10 + 14, p10 + 15, p10 + 16, p10 + 17, p10 + 18, p10 + 19, p10 + 20, p10 + 21, p10 + 22, p10 + 23, p10 + 24, p10 + 25, p10 + 26, p10 + 27, p10 + 28, p10 + 29, p10 + 30, p10 + 31, p10 + 32, p10 + 33, p10 + 34, p10 + 35, p10 + 36, p10 + 37, p10 + 38, p10 + 39, 8};
p11 = newp;
Point(p11 + 1) = {17.42097330861081, -0.03495253861898154, 1};
Point(p11 + 2) = {17.39518366177166, 0.07246907143083359, 1};
Point(p11 + 3) = {17.35290708617867, 0.1745337535981349, 1};
Point(p11 + 4) = {17.29518457143083, 0.2687283366747038, 1};
Point(p11 + 5) = {17.2234374374113, 0.3527334374112967, 1};
Point(p11 + 6) = {17.13943233667471, 0.4244805714308336, 1};
Point(p11 + 7) = {17.04523775359814, 0.4822030861786672, 1};
Point(p11 + 8) = {16.94317307143083, 0.5244796617716629, 1};
Point(p11 + 9) = {16.83575146138102, 0.5502693086108106, 1};
Point(p11 + 10) = {16.725618, 0.558937, 1};
Point(p11 + 11) = {16.61548453861898, 0.5502693086108106, 1};
Point(p11 + 12) = {16.50806292856917, 0.5244796617716629, 1};
Point(p11 + 13) = {16.40599824640186, 0.4822030861786673, 1};
Point(p11 + 14) = {16.3118036633253, 0.4244805714308336, 1};
Point(p11 + 15) = {16.2277985625887, 0.3527334374112968, 1};
Point(p11 + 16) = {16.15605142856917, 0.2687283366747039, 1};
Point(p11 + 17) = {16.09832891382133, 0.174533753598135, 1};
Point(p11 + 18) = {16.05605233822834, 0.07246907143083367, 1};
Point(p11 + 19) = {16.03026269138919, -0.03495253861898147, 1};
Point(p11 + 20) = {16.021595, -0.1450859999999999, 1};
Point(p11 + 21) = {16.03026269138919, -0.2552194613810184, 1};
Point(p11 + 22) = {16.05605233822834, -0.3626410714308338, 1};
Point(p11 + 23) = {16.09832891382133, -0.4647057535981345, 1};
Point(p11 + 24) = {16.15605142856917, -0.5589003366747036, 1};
Point(p11 + 25) = {16.2277985625887, -0.6429054374112967, 1};
Point(p11 + 26) = {16.3118036633253, -0.7146525714308336, 1};
Point(p11 + 27) = {16.40599824640186, -0.7723750861786671, 1};
Point(p11 + 28) = {16.50806292856917, -0.8146516617716628, 1};
Point(p11 + 29) = {16.61548453861898, -0.8404413086108105, 1};
Point(p11 + 30) = {16.725618, -0.8491089999999999, 1};
Point(p11 + 31) = {16.83575146138102, -0.8404413086108107, 1};
Point(p11 + 32) = {16.94317307143083, -0.8146516617716628, 1};
Point(p11 + 33) = {17.04523775359814, -0.7723750861786673, 1};
Point(p11 + 34) = {17.13943233667471, -0.7146525714308336, 1};
Point(p11 + 35) = {17.2234374374113, -0.6429054374112968, 1};
Point(p11 + 36) = {17.29518457143083, -0.558900336674704, 1};
Point(p11 + 37) = {17.35290708617867, -0.464705753598135, 1};
Point(p11 + 38) = {17.39518366177166, -0.3626410714308337, 1};
Point(p11 + 39) = {17.42097330861081, -0.2552194613810186, 1};
Spline(11) = {9, p11 + 1, p11 + 2, p11 + 3, p11 + 4, p11 + 5, p11 + 6, p11 + 7, p11 + 8, p11 + 9, p11 + 10, p11 + 11, p11 + 12, p11 + 13, p11 + 14, p11 + 15, p11 + 16, p11 + 17, p11 + 18, p11 + 19, p11 + 20, p11 + 21, p11 + 22, p11 + 23, p11 + 24, p11 + 25, p11 + 26, p11 + 27, p11 + 28, p11 + 29, p11 + 30, p11 + 31, p11 + 32, p11 + 33, p11 + 34, p11 + 35, p11 + 36, p11 + 37, p11 + 38, p11 + 39, 9};
Line(12) = {4, 10};
Line(13) = {10, 7};
Line(14) = {5, 10};
p15 = newp;
Point(p15 + 1) = {24.28489392971251, -1.535985035870189, 0};
Point(p15 + 2) = {24.24026307036291, -1.350084127682356, 0};
Point(p15 + 3) = {24.16710038182971, -1.173453772765827, 0};
Point(p15 + 4) = {24.06720737231764, -1.010443196661186, 0};
Point(p15 + 5) = {23.94304373924678, -0.8650662607532145, 0};
Point(p15 + 6) = {23.79766680333881, -0.7409026276823559, 0};
Point(p15 + 7) = {23.63465622723417, -0.6410096181702876, 0};
Point(p15 + 8) = {23.45802587231764, -0.5678469296370878, 0};
Point(p15 + 9) = {23.27212496412981, -0.5232160702874862, 0};
Point(p15 + 10) = {23.081531, -0.508216, 0};
Point(p15 + 11) = {22.89093703587019, -0.5232160702874864, 0};
Point(p15 + 12) = {22.70503612768236, -0.5678469296370878, 0};
Point(p15 + 13) = {22.52840577276583, -0.6410096181702876, 0};
Point(p15 + 14) = {22.36539519666118, -0.7409026276823559, 0};
Point(p15 + 15) = {22.22001826075321, -0.8650662607532144, 0};
Point(p15 + 16) = {22.09585462768235, -1.010443196661186, 0};
Point(p15 + 17) = {21.99596161817028, -1.173453772765827, 0};
Point(p15 + 18) = {21.92279892963709, -1.350084127682356, 0};
Point(p15 + 19) = {21.87816807028748, -1.535985035870189, 0};
Point(p15 + 20) = {21.863168, -1.726579, 0};
Point(p15 + 21) = {21.87816807028748, -1.917172964129811, 0};
Point(p15 + 22) = {21.92279892963709, -2.103073872317645, 0};
Point(p15 + 23) = {21.99596161817028, -2.279704227234173, 0};
Point(p15 + 24) = {22.09585462768235, -2.442714803338815, 0};
Point(p15 + 25) = {22.22001826075321, -2.588091739246786, 0};
Point(p15 + 26) = {22.36539519666118, -2.712255372317644, 0};
Point(p15 + 27) = {22.52840577276583, -2.812148381829712, 0};
Point(p15 + 28) = {22.70503612768236, -2.885311070362913, 0};
Point(p15 + 29) = {22.89093703587019, -2.929941929712514, 0};
Point(p15 + 30) = {23.081531, -2.944942, 0};
Point(p15 + 31) = {23.27212496412981, -2.929941929712514, 0};
Point(p15 + 32) = {23.45802587231764, -2.885311070362913, 0};
Point(p15 + 33) = {23.63465622723417, -2.812148381829712, 0};
Point(p15 + 34) = {23.79766680333881, -2.712255372317644, 0};
Point(p15 + 35) = {23.94304373924678, -2.588091739246786, 0};
Point(p15 + 36) = {24.06720737231764, -2.442714803338815, 0};
Point(p15 + 37) = {24.16710038182971, -2.279704227234174, 0};
Point(p15 + 38) = {24.24026307036291, -2.103073872317645, 0};
Point(p15 + 39) = {24.28489392971251, -1.917172964129811, 0};
Spline(15) = {11, p15 + 1, p15 + 2, p15 + 3, p15 + 4, p15 + 5, p15 + 6, p15 + 7, p15 + 8, p15 + 9, p15 + 10, p15 + 11, p15 + 12, p15 + 13, p15 + 14, p15 + 15, p15 + 16, p15 + 17, p15 + 18, p15 + 19, p15 + 20, p15 + 21, p15 + 22, p15 + 23, p15 + 24, p15 + 25, p15 + 26, p15 + 27, p15 + 28, p15 + 29, p15 + 30, p15 + 31, p15 + 32, p15 + 33, p15 + 34, p15 + 35, p15 + 36, p15 + 37, p15 + 38, p15 + 39, 11};
p16 = newp;
Point(p16 + 1) = {17.42097330861081, -0.03495253861898154, 0};
Point(p16 + 2) = {17.39518366177166, 0.07246907143083359, 0};
Point(p16 + 3) = {17.35290708617867, 0.1745337535981349, 0};
Point(p16 + 4) = {17.29518457143083, 0.2687283366747038, 0};
Point(p16 + 5) = {17.2234374374113, 0.3527334374112967, 0};
Point(p16 + 6) = {17.13943233667471, 0.4244805714308336, 0};
Point(p16 + 7) = {17.04523775359814, 0.4822030861786672, 0};
Point(p16 + 8) = {16.94317307143083, 0.5244796617716629, 0};
Point(p16 + 9) = {16.83575146138102, 0.5502693086108106, 0};
Point(p16 + 10) = {16.725618, 0.558937, 0};
Point(p16 + 11) = {16.61548453861898, 0.5502693086108106, 0};
Point(p16 + 12) = {16.50806292856917, 0.5244796617716629, 0};
Point(p16 + 13) = {16.40599824640186, 0.4822030861786673, 0};
Point(p16 + 14) = {16.3118036633253, 0.4244805714308336, 0};
Point(p16 + 15) = {16.2277985625887, 0.3527334374112968, 0};
Point(p16 + 16) = {16.15605142856917, 0.2687283366747039, 0};
Point(p16 + 17) = {16.09832891382133, 0.174533753598135, 0};
Point(p16 + 18) = {16.05605233822834, 0.07246907143083367, 0};
Point(p16 + 19) = {16.03026269138919, -0.03495253861898147, 0};
Point(p16 + 20) = {16.021595, -0.1450859999999999, 0};
Point(p16 + 21) = {16.03026269138919, -0.2552194613810184, 0};
Point(p16 + 22) = {16.05605233822834, -0.3626410714308338, 0};
Point(p16 + 23) = {16.09832891382133, -0.4647057535981345, 0};
Point(p16 + 24) = {16.15605142856917, -0.5589003366747036, 0};
Point(p16 + 25) = {16.2277985625887, -0.6429054374112967, 0};
Point(p16 + 26) = {16.3118036633253, -0.7146525714308336, 0};
Point(p16 + 27) = {16.40599824640186, -0.7723750861786671, 0};
Point(p16 + 28) = {16.50806292856917, -0.8146516617716628, 0};
Point(p16 + 29) = {16.61548453861898, -0.8404413086108105, 0};
Point(p16 + 30) = {16.725618, -0.8491089999999999, 0};
Point(p16 + 31) = {16.83575146138102, -0.8404413086108107, 0};
Point(p16 + 32) = {16.94317307143083, -0.8146516617716628, 0};
Point(p16 + 33) = {17.04523775359814, -0.7723750861786673, 0};
Point(p16 + 34) = {17.13943233667471, -0.7146525714308336, 0};
Point(p16 + 35) = {17.2234374374113, -0.6429054374112968, 0};
Point(p16 + 36) = {17.29518457143083, -0.558900336674704, 0};
Point(p16 + 37) = {17.35290708617867, -0.464705753598135, 0};
Point(p16 + 38) = {17.39518366177166, -0.3626410714308337, 0};
Point(p16 + 39) = {17.42097330861081, -0.2552194613810186, 0};
Spline(16) = {12, p16 + 1, p16 + 2, p16 + 3, p16 + 4, p16 + 5, p16 + 6, p16 + 7, p16 + 8, p16 + 9, p16 + 10, p16 + 11, p16 + 12, p16 + 13, p16 + 14, p16 + 15, p16 + 16, p16 + 17, p16 + 18, p16 + 19, p16 + 20, p16 + 21, p16 + 22, p16 + 23, p16 + 24, p16 + 25, p16 + 26, p16 + 27, p16 + 28, p16 + 29, p16 + 30, p16 + 31, p16 + 32, p16 + 33, p16 + 34, p16 + 35, p16 + 36, p16 + 37, p16 + 38, p16 + 39, 12};
Line(17) = {11, 8};
Line(18) = {12, 9};
Curve Loop(1) = {-1, 4, 3, -2};
Plane Surface(1) = {1};
Curve Loop(2) = {-5, 1, 7, -6};
Plane Surface(2) = {2};
Curve Loop(3) = {-2, 7, 9, -8, -10, -11};
Plane Surface(3) = {3};
Curve Loop(4) = {-12, 3, 8, -13};
Plane Surface(4) = {4};
Curve Loop(5) = {-4, 5, 14, -12, -15, -16};
Plane Surface(5) = {5};
Curve Loop(6) = {-6, 14, 13, -9};
Plane Surface(6) = {6};
Curve Loop(7) = {-10, -17, 15, 17};
Surface(7) = {7};
Curve Loop(8) = {-11, -18, 16, 18};
Surface(8) = {8};
Surface Loop(1) = {1, 2, 3, 4, 5, 6, 7, 8};
Volume(1) = {1};
Physical Surface("INFLOW") = {1};
Physical Surface("OUTFLOW") = {6};
Physical Surface("OBSTACLE") = {7, 8};
Physical Surface("WALL_Y") = {2, 4};
Physical Surface("WALL_Z") = {3, 5};
Physical Volume("FLUID") = {1};
