cl__1 = 3.866505;
cl__2 = 1.172563;
cl__3 = 1.180009;
cl__4 = 0.137362;
Point(1) = {0.646706, -2.943354, 1, cl__1};
Point(2) = {0.646706, -2.943354, 0, cl__1};
Point(3) = {0.646706, 4.787806, 1, cl__1};
Point(4) = {0.646706, 4.787806, 0, cl__1};
Point(5) = {38.471334, -2.943354, 0, cl__2};
Point(6) = {38.471334, -2.943354, 1, cl__2};
Point(7) = {38.471334, 4.787806, 1, cl__3};
Point(8) = {27.290677, 0.7957069999999997, 1, cl__4};
Point(9) = {38.471334, 4.787806, 0, cl__3};
Point(10) = {27.290677, 0.7957069999999997, 0, cl__4};
Line(1) = {2, 1};
Line(2) = {1, 3};
Line(3) = {4, 3};
Line(4) = {2, 4};
Line(5) = {2, 5};
Line(6) = {5, 6};
Line(7) = {1, 6};
Line(8) = {3, 7};
Line(9) = {6, 7};
p10 = newp;
Point(p10 + 1) = {27.27376545840829, 1.010588509868562, 1};
Point(p10 + 2) = {27.22344725191335, 1.220178923813315, 1};
Point(p10 + 3) = {27.14096138175563, 1.419317430252236, 1};
Point(p10 + 4) = {27.02833892381332, 1.603100578253987, 1};
Point(p10 + 5) = {26.88835301677346, 1.767003016773465, 1};
Point(p10 + 6) = {26.72445057825399, 1.906988923813315, 1};
Point(p10 + 7) = {26.54066743025223, 2.019611381755626, 1};
Point(p10 + 8) = {26.34152892381331, 2.102097251913349, 1};
Point(p10 + 9) = {26.13193850986856, 2.152415458408293, 1};
Point(p10 + 10) = {25.917057, 2.169327, 1};
Point(p10 + 11) = {25.70217549013144, 2.152415458408293, 1};
Point(p10 + 12) = {25.49258507618669, 2.102097251913349, 1};
Point(p10 + 13) = {25.29344656974776, 2.019611381755626, 1};
Point(p10 + 14) = {25.10966342174601, 1.906988923813315, 1};
Point(p10 + 15) = {24.94576098322653, 1.767003016773466, 1};
Point(p10 + 16) = {24.80577507618668, 1.603100578253987, 1};
Point(p10 + 17) = {24.69315261824437, 1.419317430252236, 1};
Point(p10 + 18) = {24.61066674808665, 1.220178923813315, 1};
Point(p10 + 19) = {24.56034854159171, 1.010588509868562, 1};
Point(p10 + 20) = {24.543437, 0.7957070000000003, 1};
Point(p10 + 21) = {24.56034854159171, 0.5808254901314382, 1};
Point(p10 + 22) = {24.61066674808665, 0.3712350761866843, 1};
Point(p10 + 23) = {24.69315261824437, 0.1720965697477645, 1};
Point(p10 + 24) = {24.80577507618668, -0.01168657825398678, 1};
Point(p10 + 25) = {24.94576098322653, -0.1755890167734653, 1};
Point(p10 + 26) = {25.10966342174601, -0.3155749238133151, 1};
Point(p10 + 27) = {25.29344656974776, -0.4281973817556258, 1};
Point(p10 + 28) = {25.49258507618669, -0.5106832519133487, 1};
Point(p10 + 29) = {25.70217549013144, -0.5610014584082931, 1};
Point(p10 + 30) = {25.917057, -0.577913, 1};
Point(p10 + 31) = {26.13193850986856, -0.5610014584082931, 1};
Point(p10 + 32) = {26.34152892381331, -0.510683251913349, 1};
Point(p10 + 33) = {26.54066743025223, -0.4281973817556258, 1};
Point(p10 + 34) = {26.72445057825399, -0.3155749238133155, 1};
Point(p10 + 35) = {26.88835301677346, -0.1755890167734656, 1};
Point(p10 + 36) = {27.02833892381332, -0.01168657825398722, 1};
Point(p10 + 37) = {27.14096138175563, 0.1720965697477636, 1};
Point(p10 + 38) = {27.22344725191335, 0.3712350761866845, 1};
Point(p10 + 39) = {27.27376545840829, 0.5808254901314378, 1};
Spline(10) = {8, p10 + 1, p10 + 2, p10 + 3, p10 + 4, p10 + 5, p10 + 6, p10 + 7, p10 + 8, p10 + 9, p10 + 10, p10 + 11, p10 + 12, p10 + 13, p10 + 14, p10 + 15, p10 + 16, p10 + 17, p10 + 18, p10 + 19, p10 + 20, p10 + 21, p10 + 22, p10 + 23, p10 + 24, p10 + 25, p10 + 26, p10 + 27, p10 + 28, p10 + 29, p10 + 30, p10 + 31, p10 + 32, p10 + 33, p10 + 34, p10 + 35, p10 + 36, p10 + 37, p10 + 38, p10 + 39, 8};
Line(11) = {4, 9};
Line(12) = {9, 7};
Line(13) = {5, 9};
p14 = newp;
Point(p14 + 1) = {27.27376545840829, 1.010588509868562, 0};
Point(p14 + 2) = {27.22344725191335, 1.220178923813315, 0};
Point(p14 + 3) = {27.14096138175563, 1.419317430252236, 0};
Point(p14 + 4) = {27.02833892381332, 1.603100578253987, 0};
Point(p14 + 5) = {26.88835301677346, 1.767003016773465, 0};
Point(p14 + 6) = {26.72445057825399, 1.906988923813315, 0};
Point(p14 + 7) = {26.54066743025223, 2.019611381755626, 0};
Point(p14 + 8) = {26.34152892381331, 2.102097251913349, 0};
Point(p14 + 9) = {26.13193850986856, 2.152415458408293, 0};
Point(p14 + 10) = {25.917057, 2.169327, 0};
Point(p14 + 11) = {25.70217549013144, 2.152415458408293, 0};
Point(p14 + 12) = {25.49258507618669, 2.102097251913349, 0};
Point(p14 + 13) = {25.29344656974776, 2.019611381755626, 0};
Point(p14 + 14) = {25.10966342174601, 1.906988923813315, 0};
Point(p14 + 15) = {24.94576098322653, 1.767003016773466, 0};
Point(p14 + 16) = {24.80577507618668, 1.603100578253987, 0};
Point(p14 + 17) = {24.69315261824437, 1.419317430252236, 0};
Point(p14 + 18) = {24.61066674808665, 1.220178923813315, 0};
Point(p14 + 19) = {24.56034854159171, 1.010588509868562, 0};
Point(p14 + 20) = {24.543437, 0.7957070000000003, 0};
Point(p14 + 21) = {24.56034854159171, 0.5808254901314382, 0};
Point(p14 + 22) = {24.61066674808665, 0.3712350761866843, 0};
Point(p14 + 23) = {24.69315261824437, 0.1720965697477645, 0};
Point(p14 + 24) = {24.80577507618668, -0.01168657825398678, 0};
Point(p14 + 25) = {24.94576098322653, -0.1755890167734653, 0};
Point(p14 + 26) = {25.10966342174601, -0.3155749238133151, 0};
Point(p14 + 27) = {25.29344656974776, -0.4281973817556258, 0};
Point(p14 + 28) = {25.49258507618669, -0.5106832519133487, 0};
Point(p14 + 29) = {25.70217549013144, -0.5610014584082931, 0};
Point(p14 + 30) = {25.917057, -0.577913, 0};
Point(p14 + 31) = {26.13193850986856, -0.5610014584082931, 0};
Point(p14 + 32) = {26.34152892381331, -0.510683251913349, 0};
Point(p14 + 33) = {26.54066743025223, -0.4281973817556258, 0};
Point(p14 + 34) = {26.72445057825399, -0.3155749238133155, 0};
Point(p14 + 35) = {26.88835301677346, -0.1755890167734656, 0};
Point(p14 + 36) = {27.02833892381332, -0.01168657825398722, 0};
Point(p14 + 37) = {27.14096138175563, 0.1720965697477636, 0};
Point(p14 + 38) = {27.22344725191335, 0.3712350761866845, 0};
Point(p14 + 39) = {27.27376545840829, 0.5808254901314378, 0};
Spline(14) = {10, p14 + 1, p14 + 2, p14 + 3, p14 + 4, p14 + 5, p14 + 6, p14 + 7, p14 + 8, p14 + 9, p14 + 10, p14 + 11, p14 + 12, p14 + 13, p14 + 14, p14 + 15, p14 + 16, p14 + 17, p14 + 18, p14 + 19, p14 + 20, p14 + 21, p14 + 22, p14 + 23, p14 + 24, p14 + 25, p14 + 26, p14 + 27, p14 + 28, p14 + 29, p14 + 30, p14 + 31, p14 + 32, p14 + 33, p14 + 34, p14 + 35, p14 + 36, p14 + 37, p14 + 38, p14 + 39, 10};
Line(15) = {10, 8};
Curve Loop(1) = {-1, 4, 3, -2};
Plane Surface(1) = {1};
Curve Loop(2) = {-5, 1, 7, -6};
Plane Surface(2) = {2};
Curve Loop(3) = {-2, 7, 9, -8, -10};
Plane Surface(3) = {3};
Curve Loop(4) = {-11, 3, 8, -12};
Plane Surface(4) = {4};
Curve Loop(5) = {-4, 5, 13, -11, -14};
Plane Surface(5) = {5};
Curve Loop(6) = {-6, 13, 12, -9};
Plane Surface(6) = {6};
Curve Loop(7) = {-10, -15, 14, 15};
Surface(7) = {7};
Surface Loop(1) = {1, 2, 3, 4, 5, 6, 7};
Volume(1) = {1};
Physical Surface("INFLOW") = {1};
Physical Surface("OUTFLOW") = {6};
Physical Surface("OBSTACLE") = {7};
Physical Surface("WALL_Y") = {2, 4};
Physical Surface("WALL_Z") = {3, 5};
Physical Volume("FLUID") = {1};
