cl__1 = 0.346531;
cl__2 = 0.708967;
cl__3 = 3.349074;
cl__4 = 0.119395;
Point(1) = {0.285728, -4.153475, 1, cl__1};
Point(2) = {0.285728, -4.153475, 0, cl__1};
Point(3) = {0.285728, 4.696906, 1, cl__2};
Point(4) = {0.285728, 4.696906, 0, cl__2};
Point(5) = {33.197096, -4.153475, 0, cl__3};
Point(6) = {33.197096, -4.153475, 1, cl__3};
Point(7) = {33.197096, 4.696906, 1, cl__3};
Point(8) = {5.787567, -2.378438, 1, cl__4};
Point(9) = {33.197096, 4.696906, 0, cl__3};
Point(10) = {5.787567, -2.378438, 0, cl__4};
Line(1) = {2, 1};
Line(2) = {1, 3};
Line(3) = {4, 3};
Line(4) = {2, 4};
Line(5) = {2, 5};
Line(6) = {5, 6};
Line(7) = {1, 6};
Line(8) = {3, 7};
Line(9) = {6, 7};
p10 = newp;
Point(p10 + 1) = {5.772867494253565, -2.191663070465216, 1};
Point(p10 + 2) = {5.729130927630599, -2.009487159566032, 1};
Point(p10 + 3) = {5.657434239554702, -1.836396042835968, 1};
Point(p10 + 4) = {5.559542840433968, -1.676651798025402, 1};
Point(p10 + 5) = {5.437867141397678, -1.534187858602322, 1};
Point(p10 + 6) = {5.295403201974598, -1.412512159566031, 1};
Point(p10 + 7) = {5.135658957164032, -1.314620760445298, 1};
Point(p10 + 8) = {4.962567840433969, -1.242924072369402, 1};
Point(p10 + 9) = {4.780391929534784, -1.199187505746435, 1};
Point(p10 + 10) = {4.593617, -1.184488, 1};
Point(p10 + 11) = {4.406842070465216, -1.199187505746435, 1};
Point(p10 + 12) = {4.224666159566032, -1.242924072369401, 1};
Point(p10 + 13) = {4.051575042835968, -1.314620760445298, 1};
Point(p10 + 14) = {3.891830798025402, -1.412512159566031, 1};
Point(p10 + 15) = {3.749366858602322, -1.534187858602321, 1};
Point(p10 + 16) = {3.627691159566031, -1.676651798025401, 1};
Point(p10 + 17) = {3.529799760445298, -1.836396042835968, 1};
Point(p10 + 18) = {3.458103072369402, -2.009487159566032, 1};
Point(p10 + 19) = {3.414366505746435, -2.191663070465216, 1};
Point(p10 + 20) = {3.399667, -2.378438, 1};
Point(p10 + 21) = {3.414366505746435, -2.565212929534784, 1};
Point(p10 + 22) = {3.458103072369402, -2.747388840433969, 1};
Point(p10 + 23) = {3.529799760445298, -2.920479957164031, 1};
Point(p10 + 24) = {3.627691159566031, -3.080224201974598, 1};
Point(p10 + 25) = {3.749366858602321, -3.222688141397678, 1};
Point(p10 + 26) = {3.891830798025401, -3.344363840433969, 1};
Point(p10 + 27) = {4.051575042835968, -3.442255239554702, 1};
Point(p10 + 28) = {4.224666159566032, -3.513951927630599, 1};
Point(p10 + 29) = {4.406842070465216, -3.557688494253565, 1};
Point(p10 + 30) = {4.593617, -3.572388, 1};
Point(p10 + 31) = {4.780391929534783, -3.557688494253565, 1};
Point(p10 + 32) = {4.962567840433969, -3.513951927630599, 1};
Point(p10 + 33) = {5.135658957164032, -3.442255239554702, 1};
Point(p10 + 34) = {5.295403201974598, -3.344363840433969, 1};
Point(p10 + 35) = {5.437867141397678, -3.222688141397679, 1};
Point(p10 + 36) = {5.559542840433968, -3.080224201974599, 1};
Point(p10 + 37) = {5.657434239554702, -2.920479957164032, 1};
Point(p10 + 38) = {5.729130927630599, -2.747388840433969, 1};
Point(p10 + 39) = {5.772867494253565, -2.565212929534784, 1};
Spline(10) = {8, p10 + 1, p10 + 2, p10 + 3, p10 + 4, p10 + 5, p10 + 6, p10 + 7, p10 + 8, p10 + 9, p10 + 10, p10 + 11, p10 + 12, p10 + 13, p10 + 14, p10 + 15, p10 + 16, p10 + 17, p10 + 18, p10 + 19, p10 + 20, p10 + 21, p10 + 22, p10 + 23, p10 + 24, p10 + 25, p10 + 26, p10 + 27, p10 + 28, p10 + 29, p10 + 30, p10 + 31, p10 + 32, p10 + 33, p10 + 34, p10 + 35, p10 + 36, p10 + 37, p10 + 38, p10 + 39, 8};
Line(11) = {4, 9};
Line(12) = {9, 7};
Line(13) = {5, 9};
p14 = newp;
Point(p14 + 1) = {5.772867494253565, -2.191663070465216, 0};
Point(p14 + 2) = {5.729130927630599, -2.009487159566032, 0};
Point(p14 + 3) = {5.657434239554702, -1.836396042835968, 0};
Point(p14 + 4) = {5.559542840433968, -1.676651798025402, 0};
Point(p14 + 5) = {5.437867141397678, -1.534187858602322, 0};
Point(p14 + 6) = {5.295403201974598, -1.412512159566031, 0};
Point(p14 + 7) = {5.135658957164032, -1.314620760445298, 0};
Point(p14 + 8) = {4.962567840433969, -1.242924072369402, 0};
Point(p14 + 9) = {4.780391929534784, -1.199187505746435, 0};
Point(p14 + 10) = {4.593617, -1.184488, 0};
Point(p14 + 11) = {4.406842070465216, -1.199187505746435, 0};
Point(p14 + 12) = {4.224666159566032, -1.242924072369401, 0};
Point(p14 + 13) = {4.051575042835968, -1.314620760445298, 0};
Point(p14 + 14) = {3.891830798025402, -1.412512159566031, 0};
Point(p14 + 15) = {3.749366858602322, -1.534187858602321, 0};
Point(p14 + 16) = {3.627691159566031, -1.676651798025401, 0};
Point(p14 + 17) = {3.529799760445298, -1.836396042835968, 0};
Point(p14 + 18) = {3.458103072369402, -2.009487159566032, 0};
Point(p14 + 19) = {3.414366505746435, -2.191663070465216, 0};
Point(p14 + 20) = {3.399667, -2.378438, 0};
Point(p14 + 21) = {3.414366505746435, -2.565212929534784, 0};
Point(p14 + 22) = {3.458103072369402, -2.747388840433969, 0};
Point(p14 + 23) = {3.529799760445298, -2.920479957164031, 0};
Point(p14 + 24) = {3.627691159566031, -3.080224201974598, 0};
Point(p14 + 25) = {3.749366858602321, -3.222688141397678, 0};
Point(p14 + 26) = {3.891830798025401, -3.344363840433969, 0};
Point(p14 + 27) = {4.051575042835968, -3.442255239554702, 0};
Point(p14 + 28) = {4.224666159566032, -3.513951927630599, 0};
Point(p14 + 29) = {4.406842070465216, -3.557688494253565, 0};
Point(p14 + 30) = {4.593617, -3.572388, 0};
Point(p14 + 31) = {4.780391929534783, -3.557688494253565, 0};
Point(p14 + 32) = {4.962567840433969, -3.513951927630599, 0};
Point(p14 + 33) = {5.135658957164032, -3.442255239554702, 0};
Point(p14 + 34) = {5.295403201974598, -3.344363840433969, 0};
Point(p14 + 35) = {5.437867141397678, -3.222688141397679, 0};
Point(p14 + 36) = {5.559542840433968, -3.080224201974599, 0};
Point(p14 + 37) = {5.657434239554702, -2.920479957164032, 0};
Point(p14 + 38) = {5.729130927630599, -2.747388840433969, 0};
Point(p14 + 39) = {5.772867494253565, -2.565212929534784, 0};
Spline(14) = {10, p14 + 1, p14 + 2, p14 + 3, p14 + 4, p14 + 5, p14 + 6, p14 + 7, p14 + 8, p14 + 9, p14 + 10, p14 + 11, p14 + 12, p14 + 13, p14 + 14, p14 + 15, p14 + 16, p14 + 17, p14 + 18, p14 + 19, p14 + 20, p14 + 21, p14 + 22, p14 + 23, p14 + 24, p14 + 25, p14 + 26, p14 + 27, p14 + 28, p14 + 29, p14 + 30, p14 + 31, p14 + 32, p14 + 33, p14 + 34, p14 + 35, p14 + 36, p14 + 37, p14 + 38, p14 + 39, 10};
Line(15) = {10, 8};
Curve Loop(1) = {-1, 4, 3, -2};
Plane Surface(1) = {1};
Curve Loop(2) = {-5, 1, 7, -6};
Plane Surface(2) = {2};
Curve Loop(3) = {-2, 7, 9, -8, -10};
Plane Surface(3) = {3};
Curve Loop(4) = {-11, 3, 8, -12};
Plane Surface(4) = {4};
Curve Loop(5) = {-4, 5, 13, -11, -14};
Plane Surface(5) = {5};
Curve Loop(6) = {-6, 13, 12, -9};
Plane Surface(6) = {6};
Curve Loop(7) = {-10, -15, 14, 15};
Surface(7) = {7};
Surface Loop(1) = {1, 2, 3, 4, 5, 6, 7};
Volume(1) = {1};
Physical Surface("INFLOW") = {1};
Physical Surface("OUTFLOW") = {6};
Physical Surface("OBSTACLE") = {7};
Physical Surface("WALL_Y") = {2, 4};
Physical Surface("WALL_Z") = {3, 5};
Physical Volume("FLUID") = {1};
