cl__1 = 1;
cl__2 = 0.08186499999999999;
cl__3 = 0.114604;
Point(1) = {0.566116, -3.578585, 1, cl__1};
Point(2) = {0.566116, -3.578585, 0, cl__1};
Point(3) = {0.566116, 4.832101999999999, 1, cl__1};
Point(4) = {0.566116, 4.832101999999999, 0, cl__1};
Point(5) = {35.222695, -3.578585, 0, cl__1};
Point(6) = {35.222695, -3.578585, 1, cl__1};
Point(7) = {35.222695, 4.832101999999999, 1, cl__1};
Point(8) = {11.395172, -0.5434250000000003, 1, cl__2};
Point(9) = {15.673235, 2.722629, 1, cl__3};
Point(10) = {35.222695, 4.832101999999999, 0, cl__1};
Point(11) = {11.395172, -0.5434250000000003, 0, cl__2};
Point(12) = {15.673235, 2.722629, 0, cl__3};
Line(1) = {2, 1};
Line(2) = {1, 3};
Line(3) = {4, 3};
Line(4) = {2, 4};
Line(5) = {2, 5};
Line(6) = {5, 6};
Line(7) = {1, 6};
Line(8) = {3, 7};
Line(9) = {6, 7};
p10 = newp;
Point(p10 + 1) = {11.38509302309323, -0.4153594558914199, 1};
Point(p10 + 2) = {11.35510427023458, -0.2904473105039663, 1};
Point(p10 + 3) = {11.30594416404638, -0.1717643154167209, 1};
Point(p10 + 4) = {11.23882318949603, -0.06223283985501005, 1};
Point(p10 + 5) = {11.15539408773871, 0.03545008773871061, 1};
Point(p10 + 6) = {11.05771116014499, 0.1188791894960338, 1};
Point(p10 + 7) = {10.94817968458328, 0.1860001640463798, 1};
Point(p10 + 8) = {10.82949668949603, 0.2351602702345762, 1};
Point(p10 + 9) = {10.70458454410858, 0.2651490230932312, 1};
Point(p10 + 10) = {10.576519, 0.2752279999999999, 1};
Point(p10 + 11) = {10.44845345589142, 0.2651490230932312, 1};
Point(p10 + 12) = {10.32354131050397, 0.2351602702345763, 1};
Point(p10 + 13) = {10.20485831541672, 0.1860001640463799, 1};
Point(p10 + 14) = {10.09532683985501, 0.1188791894960338, 1};
Point(p10 + 15) = {9.997643912261289, 0.03545008773871061, 1};
Point(p10 + 16) = {9.914214810503966, -0.06223283985500999, 1};
Point(p10 + 17) = {9.84709383595362, -0.1717643154167208, 1};
Point(p10 + 18) = {9.797933729765424, -0.2904473105039662, 1};
Point(p10 + 19) = {9.767944976906769, -0.4153594558914199, 1};
Point(p10 + 20) = {9.757866, -0.5434249999999999, 1};
Point(p10 + 21) = {9.767944976906769, -0.6714905441085801, 1};
Point(p10 + 22) = {9.797933729765424, -0.7964026894960341, 1};
Point(p10 + 23) = {9.847093835953618, -0.9150856845832788, 1};
Point(p10 + 24) = {9.914214810503966, -1.02461716014499, 1};
Point(p10 + 25) = {9.997643912261289, -1.122300087738711, 1};
Point(p10 + 26) = {10.09532683985501, -1.205729189496034, 1};
Point(p10 + 27) = {10.20485831541672, -1.27285016404638, 1};
Point(p10 + 28) = {10.32354131050397, -1.322010270234576, 1};
Point(p10 + 29) = {10.44845345589142, -1.351999023093231, 1};
Point(p10 + 30) = {10.576519, -1.362078, 1};
Point(p10 + 31) = {10.70458454410858, -1.351999023093231, 1};
Point(p10 + 32) = {10.82949668949603, -1.322010270234576, 1};
Point(p10 + 33) = {10.94817968458328, -1.27285016404638, 1};
Point(p10 + 34) = {11.05771116014499, -1.205729189496034, 1};
Point(p10 + 35) = {11.15539408773871, -1.122300087738711, 1};
Point(p10 + 36) = {11.23882318949603, -1.02461716014499, 1};
Point(p10 + 37) = {11.30594416404638, -0.9150856845832793, 1};
Point(p10 + 38) = {11.35510427023458, -0.7964026894960341, 1};
Point(p10 + 39) = {11.38509302309323, -0.6714905441085803, 1};
Spline(10) = {8, p10 + 1, p10 + 2, p10 + 3, p10 + 4, p10 + 5, p10 + 6, p10 + 7, p10 + 8, p10 + 9, p10 + 10, p10 + 11, p10 + 12, p10 + 13, p10 + 14, p10 + 15, p10 + 16, p10 + 17, p10 + 18, p10 + 19, p10 + 20, p10 + 21, p10 + 22, p10 + 23, p10 + 24, p10 + 25, p10 + 26, p10 + 27, p10 + 28, p10 + 29, p10 + 30, p10 + 31, p10 + 32, p10 + 33, p10 + 34, p10 + 35, p10 + 36, p10 + 37, p10 + 38, p10 + 39, 8};
p11 = newp;
Point(p11 + 1) = {15.65912530892067, 2.901909623618101, 1};
Point(p11 + 2) = {15.61714366310445, 3.076775763284448, 1};
Point(p11 + 3) = {15.54832379000041, 3.242921634293009, 1};
Point(p11 + 4) = {15.45436026328445, 3.396256173893023, 1};
Point(p11 + 5) = {15.33756677683137, 3.533003776831374, 1};
Point(p11 + 6) = {15.20081917389302, 3.649797263284448, 1};
Point(p11 + 7) = {15.04748463429301, 3.74376079000041, 1};
Point(p11 + 8) = {14.88133876328445, 3.812580663104447, 1};
Point(p11 + 9) = {14.7064726236181, 3.854562308920674, 1};
Point(p11 + 10) = {14.527192, 3.868672, 1};
Point(p11 + 11) = {14.3479113763819, 3.854562308920674, 1};
Point(p11 + 12) = {14.17304523671555, 3.812580663104447, 1};
Point(p11 + 13) = {14.00689936570699, 3.74376079000041, 1};
Point(p11 + 14) = {13.85356482610698, 3.649797263284448, 1};
Point(p11 + 15) = {13.71681722316863, 3.533003776831374, 1};
Point(p11 + 16) = {13.60002373671555, 3.396256173893023, 1};
Point(p11 + 17) = {13.50606020999959, 3.242921634293009, 1};
Point(p11 + 18) = {13.43724033689555, 3.076775763284448, 1};
Point(p11 + 19) = {13.39525869107933, 2.901909623618101, 1};
Point(p11 + 20) = {13.381149, 2.722629, 1};
Point(p11 + 21) = {13.39525869107933, 2.543348376381899, 1};
Point(p11 + 22) = {13.43724033689555, 2.368482236715552, 1};
Point(p11 + 23) = {13.50606020999959, 2.202336365706991, 1};
Point(p11 + 24) = {13.60002373671555, 2.049001826106977, 1};
Point(p11 + 25) = {13.71681722316863, 1.912254223168626, 1};
Point(p11 + 26) = {13.85356482610698, 1.795460736715552, 1};
Point(p11 + 27) = {14.00689936570699, 1.70149720999959, 1};
Point(p11 + 28) = {14.17304523671555, 1.632677336895553, 1};
Point(p11 + 29) = {14.3479113763819, 1.590695691079327, 1};
Point(p11 + 30) = {14.527192, 1.576586, 1};
Point(p11 + 31) = {14.7064726236181, 1.590695691079327, 1};
Point(p11 + 32) = {14.88133876328445, 1.632677336895553, 1};
Point(p11 + 33) = {15.04748463429301, 1.70149720999959, 1};
Point(p11 + 34) = {15.20081917389302, 1.795460736715552, 1};
Point(p11 + 35) = {15.33756677683137, 1.912254223168625, 1};
Point(p11 + 36) = {15.45436026328445, 2.049001826106977, 1};
Point(p11 + 37) = {15.54832379000041, 2.20233636570699, 1};
Point(p11 + 38) = {15.61714366310445, 2.368482236715552, 1};
Point(p11 + 39) = {15.65912530892067, 2.543348376381898, 1};
Spline(11) = {9, p11 + 1, p11 + 2, p11 + 3, p11 + 4, p11 + 5, p11 + 6, p11 + 7, p11 + 8, p11 + 9, p11 + 10, p11 + 11, p11 + 12, p11 + 13, p11 + 14, p11 + 15, p11 + 16, p11 + 17, p11 + 18, p11 + 19, p11 + 20, p11 + 21, p11 + 22, p11 + 23, p11 + 24, p11 + 25, p11 + 26, p11 + 27, p11 + 28, p11 + 29, p11 + 30, p11 + 31, p11 + 32, p11 + 33, p11 + 34, p11 + 35, p11 + 36, p11 + 37, p11 + 38, p11 + 39, 9};
Line(12) = {4, 10};
Line(13) = {10, 7};
Line(14) = {5, 10};
p15 = newp;
Point(p15 + 1) = {11.38509302309323, -0.4153594558914199, 0};
Point(p15 + 2) = {11.35510427023458, -0.2904473105039663, 0};
Point(p15 + 3) = {11.30594416404638, -0.1717643154167209, 0};
Point(p15 + 4) = {11.23882318949603, -0.06223283985501005, 0};
Point(p15 + 5) = {11.15539408773871, 0.03545008773871061, 0};
Point(p15 + 6) = {11.05771116014499, 0.1188791894960338, 0};
Point(p15 + 7) = {10.94817968458328, 0.1860001640463798, 0};
Point(p15 + 8) = {10.82949668949603, 0.2351602702345762, 0};
Point(p15 + 9) = {10.70458454410858, 0.2651490230932312, 0};
Point(p15 + 10) = {10.576519, 0.2752279999999999, 0};
Point(p15 + 11) = {10.44845345589142, 0.2651490230932312, 0};
Point(p15 + 12) = {10.32354131050397, 0.2351602702345763, 0};
Point(p15 + 13) = {10.20485831541672, 0.1860001640463799, 0};
Point(p15 + 14) = {10.09532683985501, 0.1188791894960338, 0};
Point(p15 + 15) = {9.997643912261289, 0.03545008773871061, 0};
Point(p15 + 16) = {9.914214810503966, -0.06223283985500999, 0};
Point(p15 + 17) = {9.84709383595362, -0.1717643154167208, 0};
Point(p15 + 18) = {9.797933729765424, -0.2904473105039662, 0};
Point(p15 + 19) = {9.767944976906769, -0.4153594558914199, 0};
Point(p15 + 20) = {9.757866, -0.5434249999999999, 0};
Point(p15 + 21) = {9.767944976906769, -0.6714905441085801, 0};
Point(p15 + 22) = {9.797933729765424, -0.7964026894960341, 0};
Point(p15 + 23) = {9.847093835953618, -0.9150856845832788, 0};
Point(p15 + 24) = {9.914214810503966, -1.02461716014499, 0};
Point(p15 + 25) = {9.997643912261289, -1.122300087738711, 0};
Point(p15 + 26) = {10.09532683985501, -1.205729189496034, 0};
Point(p15 + 27) = {10.20485831541672, -1.27285016404638, 0};
Point(p15 + 28) = {10.32354131050397, -1.322010270234576, 0};
Point(p15 + 29) = {10.44845345589142, -1.351999023093231, 0};
Point(p15 + 30) = {10.576519, -1.362078, 0};
Point(p15 + 31) = {10.70458454410858, -1.351999023093231, 0};
Point(p15 + 32) = {10.82949668949603, -1.322010270234576, 0};
Point(p15 + 33) = {10.94817968458328, -1.27285016404638, 0};
Point(p15 + 34) = {11.05771116014499, -1.205729189496034, 0};
Point(p15 + 35) = {11.15539408773871, -1.122300087738711, 0};
Point(p15 + 36) = {11.23882318949603, -1.02461716014499, 0};
Point(p15 + 37) = {11.30594416404638, -0.9150856845832793, 0};
Point(p15 + 38) = {11.35510427023458, -0.7964026894960341, 0};
Point(p15 + 39) = {11.38509302309323, -0.6714905441085803, 0};
Spline(15) = {11, p15 + 1, p15 + 2, p15 + 3, p15 + 4, p15 + 5, p15 + 6, p15 + 7, p15 + 8, p15 + 9, p15 + 10, p15 + 11, p15 + 12, p15 + 13, p15 + 14, p15 + 15, p15 + 16, p15 + 17, p15 + 18, p15 + 19, p15 + 20, p15 + 21, p15 + 22, p15 + 23, p15 + 24, p15 + 25, p15 + 26, p15 + 27, p15 + 28, p15 + 29, p15 + 30, p15 + 31, p15 + 32, p15 + 33, p15 + 34, p15 + 35, p15 + 36, p15 + 37, p15 + 38, p15 + 39, 11};
p16 = newp;
Point(p16 + 1) = {15.65912530892067, 2.901909623618101, 0};
Point(p16 + 2) = {15.61714366310445, 3.076775763284448, 0};
Point(p16 + 3) = {15.54832379000041, 3.242921634293009, 0};
Point(p16 + 4) = {15.45436026328445, 3.396256173893023, 0};
Point(p16 + 5) = {15.33756677683137, 3.533003776831374, 0};
Point(p16 + 6) = {15.20081917389302, 3.649797263284448, 0};
Point(p16 + 7) = {15.04748463429301, 3.74376079000041, 0};
Point(p16 + 8) = {14.88133876328445, 3.812580663104447, 0};
Point(p16 + 9) = {14.7064726236181, 3.854562308920674, 0};
Point(p16 + 10) = {14.527192, 3.868672, 0};
Point(p16 + 11) = {14.3479113763819, 3.854562308920674, 0};
Point(p16 + 12) = {14.17304523671555, 3.812580663104447, 0};
Point(p16 + 13) = {14.00689936570699, 3.74376079000041, 0};
Point(p16 + 14) = {13.85356482610698, 3.649797263284448, 0};
Point(p16 + 15) = {13.71681722316863, 3.533003776831374, 0};
Point(p16 + 16) = {13.60002373671555, 3.396256173893023, 0};
Point(p16 + 17) = {13.50606020999959, 3.242921634293009, 0};
Point(p16 + 18) = {13.43724033689555, 3.076775763284448, 0};
Point(p16 + 19) = {13.39525869107933, 2.901909623618101, 0};
Point(p16 + 20) = {13.381149, 2.722629, 0};
Point(p16 + 21) = {13.39525869107933, 2.543348376381899, 0};
Point(p16 + 22) = {13.43724033689555, 2.368482236715552, 0};
Point(p16 + 23) = {13.50606020999959, 2.202336365706991, 0};
Point(p16 + 24) = {13.60002373671555, 2.049001826106977, 0};
Point(p16 + 25) = {13.71681722316863, 1.912254223168626, 0};
Point(p16 + 26) = {13.85356482610698, 1.795460736715552, 0};
Point(p16 + 27) = {14.00689936570699, 1.70149720999959, 0};
Point(p16 + 28) = {14.17304523671555, 1.632677336895553, 0};
Point(p16 + 29) = {14.3479113763819, 1.590695691079327, 0};
Point(p16 + 30) = {14.527192, 1.576586, 0};
Point(p16 + 31) = {14.7064726236181, 1.590695691079327, 0};
Point(p16 + 32) = {14.88133876328445, 1.632677336895553, 0};
Point(p16 + 33) = {15.04748463429301, 1.70149720999959, 0};
Point(p16 + 34) = {15.20081917389302, 1.795460736715552, 0};
Point(p16 + 35) = {15.33756677683137, 1.912254223168625, 0};
Point(p16 + 36) = {15.45436026328445, 2.049001826106977, 0};
Point(p16 + 37) = {15.54832379000041, 2.20233636570699, 0};
Point(p16 + 38) = {15.61714366310445, 2.368482236715552, 0};
Point(p16 + 39) = {15.65912530892067, 2.543348376381898, 0};
Spline(16) = {12, p16 + 1, p16 + 2, p16 + 3, p16 + 4, p16 + 5, p16 + 6, p16 + 7, p16 + 8, p16 + 9, p16 + 10, p16 + 11, p16 + 12, p16 + 13, p16 + 14, p16 + 15, p16 + 16, p16 + 17, p16 + 18, p16 + 19, p16 + 20, p16 + 21, p16 + 22, p16 + 23, p16 + 24, p16 + 25, p16 + 26, p16 + 27, p16 + 28, p16 + 29, p16 + 30, p16 + 31, p16 + 32, p16 + 33, p16 + 34, p16 + 35, p16 + 36, p16 + 37, p16 + 38, p16 + 39, 12};
Line(17) = {11, 8};
Line(18) = {12, 9};
Curve Loop(1) = {-1, 4, 3, -2};
Plane Surface(1) = {1};
Curve Loop(2) = {-5, 1, 7, -6};
Plane Surface(2) = {2};
Curve Loop(3) = {-2, 7, 9, -8, -10, -11};
Plane Surface(3) = {3};
Curve Loop(4) = {-12, 3, 8, -13};
Plane Surface(4) = {4};
Curve Loop(5) = {-4, 5, 14, -12, -15, -16};
Plane Surface(5) = {5};
Curve Loop(6) = {-6, 14, 13, -9};
Plane Surface(6) = {6};
Curve Loop(7) = {-10, -17, 15, 17};
Surface(7) = {7};
Curve Loop(8) = {-11, -18, 16, 18};
Surface(8) = {8};
Surface Loop(1) = {1, 2, 3, 4, 5, 6, 7, 8};
Volume(1) = {1};
Physical Surface("INFLOW") = {1};
Physical Surface("OUTFLOW") = {6};
Physical Surface("OBSTACLE") = {7, 8};
Physical Surface("WALL_Y") = {2, 4};
Physical Surface("WALL_Z") = {3, 5};
Physical Volume("FLUID") = {1};
