cl__1 = 3.7469;
cl__2 = 1.476928;
cl__3 = 1.392928;
cl__4 = 0.104547;
Point(1) = {0.519276, -3.047511, 1, cl__1};
Point(2) = {0.519276, -3.047511, 0, cl__1};
Point(3) = {0.519276, 4.649807, 1, cl__1};
Point(4) = {0.519276, 4.649807, 0, cl__1};
Point(5) = {37.270813, -3.047511, 0, cl__2};
Point(6) = {37.270813, -3.047511, 1, cl__2};
Point(7) = {37.270813, 4.649807, 1, cl__3};
Point(8) = {23.499398, 2.481163, 1, cl__4};
Point(9) = {37.270813, 4.649807, 0, cl__3};
Point(10) = {23.499398, 2.481163, 0, cl__4};
Line(1) = {2, 1};
Line(2) = {1, 3};
Line(3) = {4, 3};
Line(4) = {2, 4};
Line(5) = {2, 5};
Line(6) = {5, 6};
Line(7) = {1, 6};
Line(8) = {3, 7};
Line(9) = {6, 7};
p10 = newp;
Point(p10 + 1) = {23.48652648019536, 2.644711165903471, 1};
Point(p10 + 2) = {23.44822886031716, 2.804232233177154, 1};
Point(p10 + 3) = {23.38544815486931, 2.955798263724703, 1};
Point(p10 + 4) = {23.29973023317715, 3.095677198855221, 1};
Point(p10 + 5) = {23.19318575495423, 3.220424754954224, 1};
Point(p10 + 6) = {23.06843819885522, 3.326969233177154, 1};
Point(p10 + 7) = {22.9285592637247, 3.412687154869309, 1};
Point(p10 + 8) = {22.77699323317715, 3.475467860317159, 1};
Point(p10 + 9) = {22.61747216590347, 3.513765480195361, 1};
Point(p10 + 10) = {22.453924, 3.526637, 1};
Point(p10 + 11) = {22.29037583409653, 3.513765480195361, 1};
Point(p10 + 12) = {22.13085476682285, 3.475467860317159, 1};
Point(p10 + 13) = {21.9792887362753, 3.41268715486931, 1};
Point(p10 + 14) = {21.83940980114478, 3.326969233177154, 1};
Point(p10 + 15) = {21.71466224504578, 3.220424754954225, 1};
Point(p10 + 16) = {21.60811776682285, 3.095677198855221, 1};
Point(p10 + 17) = {21.52239984513069, 2.955798263724703, 1};
Point(p10 + 18) = {21.45961913968284, 2.804232233177154, 1};
Point(p10 + 19) = {21.42132151980464, 2.644711165903471, 1};
Point(p10 + 20) = {21.40845, 2.481163, 1};
Point(p10 + 21) = {21.42132151980464, 2.31761483409653, 1};
Point(p10 + 22) = {21.45961913968284, 2.158093766822846, 1};
Point(p10 + 23) = {21.52239984513069, 2.006527736275298, 1};
Point(p10 + 24) = {21.60811776682285, 1.866648801144779, 1};
Point(p10 + 25) = {21.71466224504578, 1.741901245045776, 1};
Point(p10 + 26) = {21.83940980114478, 1.635356766822846, 1};
Point(p10 + 27) = {21.9792887362753, 1.54963884513069, 1};
Point(p10 + 28) = {22.13085476682285, 1.486858139682841, 1};
Point(p10 + 29) = {22.29037583409653, 1.448560519804639, 1};
Point(p10 + 30) = {22.453924, 1.435689, 1};
Point(p10 + 31) = {22.61747216590347, 1.448560519804639, 1};
Point(p10 + 32) = {22.77699323317715, 1.486858139682841, 1};
Point(p10 + 33) = {22.9285592637247, 1.54963884513069, 1};
Point(p10 + 34) = {23.06843819885522, 1.635356766822846, 1};
Point(p10 + 35) = {23.19318575495423, 1.741901245045775, 1};
Point(p10 + 36) = {23.29973023317715, 1.866648801144779, 1};
Point(p10 + 37) = {23.38544815486931, 2.006527736275297, 1};
Point(p10 + 38) = {23.44822886031716, 2.158093766822846, 1};
Point(p10 + 39) = {23.48652648019536, 2.317614834096529, 1};
Spline(10) = {8, p10 + 1, p10 + 2, p10 + 3, p10 + 4, p10 + 5, p10 + 6, p10 + 7, p10 + 8, p10 + 9, p10 + 10, p10 + 11, p10 + 12, p10 + 13, p10 + 14, p10 + 15, p10 + 16, p10 + 17, p10 + 18, p10 + 19, p10 + 20, p10 + 21, p10 + 22, p10 + 23, p10 + 24, p10 + 25, p10 + 26, p10 + 27, p10 + 28, p10 + 29, p10 + 30, p10 + 31, p10 + 32, p10 + 33, p10 + 34, p10 + 35, p10 + 36, p10 + 37, p10 + 38, p10 + 39, 8};
Line(11) = {4, 9};
Line(12) = {9, 7};
Line(13) = {5, 9};
p14 = newp;
Point(p14 + 1) = {23.48652648019536, 2.644711165903471, 0};
Point(p14 + 2) = {23.44822886031716, 2.804232233177154, 0};
Point(p14 + 3) = {23.38544815486931, 2.955798263724703, 0};
Point(p14 + 4) = {23.29973023317715, 3.095677198855221, 0};
Point(p14 + 5) = {23.19318575495423, 3.220424754954224, 0};
Point(p14 + 6) = {23.06843819885522, 3.326969233177154, 0};
Point(p14 + 7) = {22.9285592637247, 3.412687154869309, 0};
Point(p14 + 8) = {22.77699323317715, 3.475467860317159, 0};
Point(p14 + 9) = {22.61747216590347, 3.513765480195361, 0};
Point(p14 + 10) = {22.453924, 3.526637, 0};
Point(p14 + 11) = {22.29037583409653, 3.513765480195361, 0};
Point(p14 + 12) = {22.13085476682285, 3.475467860317159, 0};
Point(p14 + 13) = {21.9792887362753, 3.41268715486931, 0};
Point(p14 + 14) = {21.83940980114478, 3.326969233177154, 0};
Point(p14 + 15) = {21.71466224504578, 3.220424754954225, 0};
Point(p14 + 16) = {21.60811776682285, 3.095677198855221, 0};
Point(p14 + 17) = {21.52239984513069, 2.955798263724703, 0};
Point(p14 + 18) = {21.45961913968284, 2.804232233177154, 0};
Point(p14 + 19) = {21.42132151980464, 2.644711165903471, 0};
Point(p14 + 20) = {21.40845, 2.481163, 0};
Point(p14 + 21) = {21.42132151980464, 2.31761483409653, 0};
Point(p14 + 22) = {21.45961913968284, 2.158093766822846, 0};
Point(p14 + 23) = {21.52239984513069, 2.006527736275298, 0};
Point(p14 + 24) = {21.60811776682285, 1.866648801144779, 0};
Point(p14 + 25) = {21.71466224504578, 1.741901245045776, 0};
Point(p14 + 26) = {21.83940980114478, 1.635356766822846, 0};
Point(p14 + 27) = {21.9792887362753, 1.54963884513069, 0};
Point(p14 + 28) = {22.13085476682285, 1.486858139682841, 0};
Point(p14 + 29) = {22.29037583409653, 1.448560519804639, 0};
Point(p14 + 30) = {22.453924, 1.435689, 0};
Point(p14 + 31) = {22.61747216590347, 1.448560519804639, 0};
Point(p14 + 32) = {22.77699323317715, 1.486858139682841, 0};
Point(p14 + 33) = {22.9285592637247, 1.54963884513069, 0};
Point(p14 + 34) = {23.06843819885522, 1.635356766822846, 0};
Point(p14 + 35) = {23.19318575495423, 1.741901245045775, 0};
Point(p14 + 36) = {23.29973023317715, 1.866648801144779, 0};
Point(p14 + 37) = {23.38544815486931, 2.006527736275297, 0};
Point(p14 + 38) = {23.44822886031716, 2.158093766822846, 0};
Point(p14 + 39) = {23.48652648019536, 2.317614834096529, 0};
Spline(14) = {10, p14 + 1, p14 + 2, p14 + 3, p14 + 4, p14 + 5, p14 + 6, p14 + 7, p14 + 8, p14 + 9, p14 + 10, p14 + 11, p14 + 12, p14 + 13, p14 + 14, p14 + 15, p14 + 16, p14 + 17, p14 + 18, p14 + 19, p14 + 20, p14 + 21, p14 + 22, p14 + 23, p14 + 24, p14 + 25, p14 + 26, p14 + 27, p14 + 28, p14 + 29, p14 + 30, p14 + 31, p14 + 32, p14 + 33, p14 + 34, p14 + 35, p14 + 36, p14 + 37, p14 + 38, p14 + 39, 10};
Line(15) = {10, 8};
Curve Loop(1) = {-1, 4, 3, -2};
Plane Surface(1) = {1};
Curve Loop(2) = {-5, 1, 7, -6};
Plane Surface(2) = {2};
Curve Loop(3) = {-2, 7, 9, -8, -10};
Plane Surface(3) = {3};
Curve Loop(4) = {-11, 3, 8, -12};
Plane Surface(4) = {4};
Curve Loop(5) = {-4, 5, 13, -11, -14};
Plane Surface(5) = {5};
Curve Loop(6) = {-6, 13, 12, -9};
Plane Surface(6) = {6};
Curve Loop(7) = {-10, -15, 14, 15};
Surface(7) = {7};
Surface Loop(1) = {1, 2, 3, 4, 5, 6, 7};
Volume(1) = {1};
Physical Surface("INFLOW") = {1};
Physical Surface("OUTFLOW") = {6};
Physical Surface("OBSTACLE") = {7};
Physical Surface("WALL_Y") = {2, 4};
Physical Surface("WALL_Z") = {3, 5};
Physical Volume("FLUID") = {1};
