cl__1 = 0.56818;
cl__2 = 0.440223;
cl__3 = 3.247942;
cl__4 = 0.052697;
Point(1) = {0.603253, -4.074256, 1, cl__1};
Point(2) = {0.603253, -4.074256, 0, cl__1};
Point(3) = {0.603253, 4.515333999999999, 1, cl__2};
Point(4) = {0.603253, 4.515333999999999, 0, cl__2};
Point(5) = {32.194217, -4.074256, 0, cl__3};
Point(6) = {32.194217, -4.074256, 1, cl__3};
Point(7) = {32.194217, 4.515333999999999, 1, cl__3};
Point(8) = {4.635842999999999, 1.050137, 1, cl__4};
Point(9) = {32.194217, 4.515333999999999, 0, cl__3};
Point(10) = {4.635842999999999, 1.050137, 0, cl__4};
Line(1) = {2, 1};
Line(2) = {1, 3};
Line(3) = {4, 3};
Line(4) = {2, 4};
Line(5) = {2, 5};
Line(6) = {5, 6};
Line(7) = {1, 6};
Line(8) = {3, 7};
Line(9) = {6, 7};
p10 = newp;
Point(p10 + 1) = {4.629355174090057, 1.13257264430439, 1};
Point(p10 + 2) = {4.610051448165992, 1.212978449457789, 1};
Point(p10 + 3) = {4.578407144025447, 1.28937455768575, 1};
Point(p10 + 4) = {4.535201449457788, 1.359879843259556, 1};
Point(p10 + 5) = {4.48149823205475, 1.42275823205475, 1};
Point(p10 + 6) = {4.418619843259555, 1.476461449457789, 1};
Point(p10 + 7) = {4.34811455768575, 1.519667144025448, 1};
Point(p10 + 8) = {4.271718449457788, 1.551311448165992, 1};
Point(p10 + 9) = {4.19131264430439, 1.570615174090058, 1};
Point(p10 + 10) = {4.108877, 1.577103, 1};
Point(p10 + 11) = {4.026441355695609, 1.570615174090058, 1};
Point(p10 + 12) = {3.946035550542211, 1.551311448165992, 1};
Point(p10 + 13) = {3.86963944231425, 1.519667144025448, 1};
Point(p10 + 14) = {3.799134156740444, 1.476461449457789, 1};
Point(p10 + 15) = {3.736255767945249, 1.42275823205475, 1};
Point(p10 + 16) = {3.682552550542211, 1.359879843259556, 1};
Point(p10 + 17) = {3.639346855974552, 1.28937455768575, 1};
Point(p10 + 18) = {3.607702551834008, 1.212978449457789, 1};
Point(p10 + 19) = {3.588398825909942, 1.13257264430439, 1};
Point(p10 + 20) = {3.581911, 1.050137, 1};
Point(p10 + 21) = {3.588398825909942, 0.9677013556956099, 1};
Point(p10 + 22) = {3.607702551834008, 0.8872955505422113, 1};
Point(p10 + 23) = {3.639346855974552, 0.8108994423142504, 1};
Point(p10 + 24) = {3.682552550542211, 0.7403941567404447, 1};
Point(p10 + 25) = {3.736255767945249, 0.6775157679452499, 1};
Point(p10 + 26) = {3.799134156740444, 0.6238125505422116, 1};
Point(p10 + 27) = {3.86963944231425, 0.5806068559745526, 1};
Point(p10 + 28) = {3.946035550542211, 0.5489625518340082, 1};
Point(p10 + 29) = {4.026441355695609, 0.5296588259099427, 1};
Point(p10 + 30) = {4.108877, 0.5231710000000001, 1};
Point(p10 + 31) = {4.19131264430439, 0.5296588259099427, 1};
Point(p10 + 32) = {4.271718449457788, 0.5489625518340081, 1};
Point(p10 + 33) = {4.34811455768575, 0.5806068559745525, 1};
Point(p10 + 34) = {4.418619843259555, 0.6238125505422114, 1};
Point(p10 + 35) = {4.48149823205475, 0.6775157679452497, 1};
Point(p10 + 36) = {4.535201449457788, 0.7403941567404446, 1};
Point(p10 + 37) = {4.578407144025447, 0.8108994423142499, 1};
Point(p10 + 38) = {4.610051448165992, 0.8872955505422114, 1};
Point(p10 + 39) = {4.629355174090057, 0.9677013556956097, 1};
Spline(10) = {8, p10 + 1, p10 + 2, p10 + 3, p10 + 4, p10 + 5, p10 + 6, p10 + 7, p10 + 8, p10 + 9, p10 + 10, p10 + 11, p10 + 12, p10 + 13, p10 + 14, p10 + 15, p10 + 16, p10 + 17, p10 + 18, p10 + 19, p10 + 20, p10 + 21, p10 + 22, p10 + 23, p10 + 24, p10 + 25, p10 + 26, p10 + 27, p10 + 28, p10 + 29, p10 + 30, p10 + 31, p10 + 32, p10 + 33, p10 + 34, p10 + 35, p10 + 36, p10 + 37, p10 + 38, p10 + 39, 8};
Line(11) = {4, 9};
Line(12) = {9, 7};
Line(13) = {5, 9};
p14 = newp;
Point(p14 + 1) = {4.629355174090057, 1.13257264430439, 0};
Point(p14 + 2) = {4.610051448165992, 1.212978449457789, 0};
Point(p14 + 3) = {4.578407144025447, 1.28937455768575, 0};
Point(p14 + 4) = {4.535201449457788, 1.359879843259556, 0};
Point(p14 + 5) = {4.48149823205475, 1.42275823205475, 0};
Point(p14 + 6) = {4.418619843259555, 1.476461449457789, 0};
Point(p14 + 7) = {4.34811455768575, 1.519667144025448, 0};
Point(p14 + 8) = {4.271718449457788, 1.551311448165992, 0};
Point(p14 + 9) = {4.19131264430439, 1.570615174090058, 0};
Point(p14 + 10) = {4.108877, 1.577103, 0};
Point(p14 + 11) = {4.026441355695609, 1.570615174090058, 0};
Point(p14 + 12) = {3.946035550542211, 1.551311448165992, 0};
Point(p14 + 13) = {3.86963944231425, 1.519667144025448, 0};
Point(p14 + 14) = {3.799134156740444, 1.476461449457789, 0};
Point(p14 + 15) = {3.736255767945249, 1.42275823205475, 0};
Point(p14 + 16) = {3.682552550542211, 1.359879843259556, 0};
Point(p14 + 17) = {3.639346855974552, 1.28937455768575, 0};
Point(p14 + 18) = {3.607702551834008, 1.212978449457789, 0};
Point(p14 + 19) = {3.588398825909942, 1.13257264430439, 0};
Point(p14 + 20) = {3.581911, 1.050137, 0};
Point(p14 + 21) = {3.588398825909942, 0.9677013556956099, 0};
Point(p14 + 22) = {3.607702551834008, 0.8872955505422113, 0};
Point(p14 + 23) = {3.639346855974552, 0.8108994423142504, 0};
Point(p14 + 24) = {3.682552550542211, 0.7403941567404447, 0};
Point(p14 + 25) = {3.736255767945249, 0.6775157679452499, 0};
Point(p14 + 26) = {3.799134156740444, 0.6238125505422116, 0};
Point(p14 + 27) = {3.86963944231425, 0.5806068559745526, 0};
Point(p14 + 28) = {3.946035550542211, 0.5489625518340082, 0};
Point(p14 + 29) = {4.026441355695609, 0.5296588259099427, 0};
Point(p14 + 30) = {4.108877, 0.5231710000000001, 0};
Point(p14 + 31) = {4.19131264430439, 0.5296588259099427, 0};
Point(p14 + 32) = {4.271718449457788, 0.5489625518340081, 0};
Point(p14 + 33) = {4.34811455768575, 0.5806068559745525, 0};
Point(p14 + 34) = {4.418619843259555, 0.6238125505422114, 0};
Point(p14 + 35) = {4.48149823205475, 0.6775157679452497, 0};
Point(p14 + 36) = {4.535201449457788, 0.7403941567404446, 0};
Point(p14 + 37) = {4.578407144025447, 0.8108994423142499, 0};
Point(p14 + 38) = {4.610051448165992, 0.8872955505422114, 0};
Point(p14 + 39) = {4.629355174090057, 0.9677013556956097, 0};
Spline(14) = {10, p14 + 1, p14 + 2, p14 + 3, p14 + 4, p14 + 5, p14 + 6, p14 + 7, p14 + 8, p14 + 9, p14 + 10, p14 + 11, p14 + 12, p14 + 13, p14 + 14, p14 + 15, p14 + 16, p14 + 17, p14 + 18, p14 + 19, p14 + 20, p14 + 21, p14 + 22, p14 + 23, p14 + 24, p14 + 25, p14 + 26, p14 + 27, p14 + 28, p14 + 29, p14 + 30, p14 + 31, p14 + 32, p14 + 33, p14 + 34, p14 + 35, p14 + 36, p14 + 37, p14 + 38, p14 + 39, 10};
Line(15) = {10, 8};
Curve Loop(1) = {-1, 4, 3, -2};
Plane Surface(1) = {1};
Curve Loop(2) = {-5, 1, 7, -6};
Plane Surface(2) = {2};
Curve Loop(3) = {-2, 7, 9, -8, -10};
Plane Surface(3) = {3};
Curve Loop(4) = {-11, 3, 8, -12};
Plane Surface(4) = {4};
Curve Loop(5) = {-4, 5, 13, -11, -14};
Plane Surface(5) = {5};
Curve Loop(6) = {-6, 13, 12, -9};
Plane Surface(6) = {6};
Curve Loop(7) = {-10, -15, 14, 15};
Surface(7) = {7};
Surface Loop(1) = {1, 2, 3, 4, 5, 6, 7};
Volume(1) = {1};
Physical Surface("INFLOW") = {1};
Physical Surface("OUTFLOW") = {6};
Physical Surface("OBSTACLE") = {7};
Physical Surface("WALL_Y") = {2, 4};
Physical Surface("WALL_Z") = {3, 5};
Physical Volume("FLUID") = {1};
