cl__1 = 1.628943;
cl__2 = 3.588789;
cl__3 = 0.675459;
cl__4 = 0.121591;
cl__5 = 0.072175;
Point(1) = {0.222918, -4.070237, 1, cl__1};
Point(2) = {0.222918, -4.070237, 0, cl__1};
Point(3) = {0.222918, 4.979158000000001, 1, cl__2};
Point(4) = {0.222918, 4.979158000000001, 0, cl__2};
Point(5) = {35.601508, -4.070237, 0, cl__3};
Point(6) = {35.601508, -4.070237, 1, cl__3};
Point(7) = {35.601508, 4.979158000000001, 1, cl__2};
Point(8) = {18.060187, 1.422268, 1, cl__4};
Point(9) = {4.781150999999999, 2.346689, 1, cl__5};
Point(10) = {35.601508, 4.979158000000001, 0, cl__2};
Point(11) = {18.060187, 1.422268, 0, cl__4};
Point(12) = {4.781150999999999, 2.346689, 0, cl__5};
Line(1) = {2, 1};
Line(2) = {1, 3};
Line(3) = {4, 3};
Line(4) = {2, 4};
Line(5) = {2, 5};
Line(6) = {5, 6};
Line(7) = {1, 6};
Line(8) = {3, 7};
Line(9) = {6, 7};
p10 = newp;
Point(p10 + 1) = {18.0452170809664, 1.612478856124927, 1};
Point(p10 + 2) = {18.00067593295451, 1.79800608969842, 1};
Point(p10 + 3) = {17.92766030685198, 1.974281404500311, 1};
Point(p10 + 4) = {17.82796808969842, 2.13696431725595, 1};
Point(p10 + 5) = {17.70405403473966, 2.28204903473966, 1};
Point(p10 + 6) = {17.55896931725595, 2.40596308969842, 1};
Point(p10 + 7) = {17.39628640450031, 2.505655306851975, 1};
Point(p10 + 8) = {17.22001108969842, 2.578670932954505, 1};
Point(p10 + 9) = {17.03448385612493, 2.623212080966396, 1};
Point(p10 + 10) = {16.844273, 2.638182, 1};
Point(p10 + 11) = {16.65406214387507, 2.623212080966396, 1};
Point(p10 + 12) = {16.46853491030158, 2.578670932954505, 1};
Point(p10 + 13) = {16.29225959549969, 2.505655306851975, 1};
Point(p10 + 14) = {16.12957668274405, 2.40596308969842, 1};
Point(p10 + 15) = {15.98449196526034, 2.28204903473966, 1};
Point(p10 + 16) = {15.86057791030158, 2.13696431725595, 1};
Point(p10 + 17) = {15.76088569314803, 1.974281404500311, 1};
Point(p10 + 18) = {15.6878700670455, 1.79800608969842, 1};
Point(p10 + 19) = {15.64332891903361, 1.612478856124927, 1};
Point(p10 + 20) = {15.628359, 1.422268, 1};
Point(p10 + 21) = {15.64332891903361, 1.232057143875073, 1};
Point(p10 + 22) = {15.6878700670455, 1.04652991030158, 1};
Point(p10 + 23) = {15.76088569314803, 0.8702545954996895, 1};
Point(p10 + 24) = {15.86057791030158, 0.70757168274405, 1};
Point(p10 + 25) = {15.98449196526034, 0.5624869652603405, 1};
Point(p10 + 26) = {16.12957668274405, 0.4385729103015804, 1};
Point(p10 + 27) = {16.29225959549969, 0.338880693148025, 1};
Point(p10 + 28) = {16.46853491030158, 0.2658650670454947, 1};
Point(p10 + 29) = {16.65406214387507, 0.221323919033604, 1};
Point(p10 + 30) = {16.844273, 0.2063540000000001, 1};
Point(p10 + 31) = {17.03448385612493, 0.2213239190336038, 1};
Point(p10 + 32) = {17.22001108969842, 0.2658650670454947, 1};
Point(p10 + 33) = {17.39628640450031, 0.338880693148025, 1};
Point(p10 + 34) = {17.55896931725595, 0.4385729103015802, 1};
Point(p10 + 35) = {17.70405403473966, 0.5624869652603401, 1};
Point(p10 + 36) = {17.82796808969842, 0.7075716827440497, 1};
Point(p10 + 37) = {17.92766030685198, 0.8702545954996886, 1};
Point(p10 + 38) = {18.00067593295451, 1.04652991030158, 1};
Point(p10 + 39) = {18.0452170809664, 1.232057143875072, 1};
Spline(10) = {8, p10 + 1, p10 + 2, p10 + 3, p10 + 4, p10 + 5, p10 + 6, p10 + 7, p10 + 8, p10 + 9, p10 + 10, p10 + 11, p10 + 12, p10 + 13, p10 + 14, p10 + 15, p10 + 16, p10 + 17, p10 + 18, p10 + 19, p10 + 20, p10 + 21, p10 + 22, p10 + 23, p10 + 24, p10 + 25, p10 + 26, p10 + 27, p10 + 28, p10 + 29, p10 + 30, p10 + 31, p10 + 32, p10 + 33, p10 + 34, p10 + 35, p10 + 36, p10 + 37, p10 + 38, p10 + 39, 8};
p11 = newp;
Point(p11 + 1) = {4.772265096759519, 2.459595105839392, 1};
Point(p11 + 2) = {4.745826187466478, 2.569721088639135, 1};
Point(p11 + 3) = {4.702485285813382, 2.674355281215519, 1};
Point(p11 + 4) = {4.643309588639135, 2.770921242486335, 1};
Point(p11 + 5) = {4.569756198001047, 2.857041198001047, 1};
Point(p11 + 6) = {4.483636242486336, 2.930594588639135, 1};
Point(p11 + 7) = {4.387070281215519, 2.989770285813382, 1};
Point(p11 + 8) = {4.282436088639135, 3.033111187466478, 1};
Point(p11 + 9) = {4.172310105839391, 3.059550096759519, 1};
Point(p11 + 10) = {4.059404, 3.068436, 1};
Point(p11 + 11) = {3.946497894160608, 3.059550096759519, 1};
Point(p11 + 12) = {3.836371911360865, 3.033111187466478, 1};
Point(p11 + 13) = {3.731737718784481, 2.989770285813382, 1};
Point(p11 + 14) = {3.635171757513664, 2.930594588639135, 1};
Point(p11 + 15) = {3.549051801998953, 2.857041198001047, 1};
Point(p11 + 16) = {3.475498411360864, 2.770921242486336, 1};
Point(p11 + 17) = {3.416322714186618, 2.674355281215519, 1};
Point(p11 + 18) = {3.372981812533522, 2.569721088639135, 1};
Point(p11 + 19) = {3.346542903240481, 2.459595105839392, 1};
Point(p11 + 20) = {3.337657, 2.346689, 1};
Point(p11 + 21) = {3.346542903240481, 2.233782894160609, 1};
Point(p11 + 22) = {3.372981812533522, 2.123656911360865, 1};
Point(p11 + 23) = {3.416322714186617, 2.019022718784482, 1};
Point(p11 + 24) = {3.475498411360864, 1.922456757513664, 1};
Point(p11 + 25) = {3.549051801998953, 1.836336801998953, 1};
Point(p11 + 26) = {3.635171757513664, 1.762783411360865, 1};
Point(p11 + 27) = {3.731737718784481, 1.703607714186618, 1};
Point(p11 + 28) = {3.836371911360864, 1.660266812533522, 1};
Point(p11 + 29) = {3.946497894160608, 1.633827903240481, 1};
Point(p11 + 30) = {4.059404, 1.624942, 1};
Point(p11 + 31) = {4.172310105839391, 1.633827903240481, 1};
Point(p11 + 32) = {4.282436088639135, 1.660266812533522, 1};
Point(p11 + 33) = {4.387070281215518, 1.703607714186618, 1};
Point(p11 + 34) = {4.483636242486336, 1.762783411360865, 1};
Point(p11 + 35) = {4.569756198001047, 1.836336801998953, 1};
Point(p11 + 36) = {4.643309588639135, 1.922456757513664, 1};
Point(p11 + 37) = {4.702485285813381, 2.019022718784481, 1};
Point(p11 + 38) = {4.745826187466478, 2.123656911360865, 1};
Point(p11 + 39) = {4.772265096759519, 2.233782894160608, 1};
Spline(11) = {9, p11 + 1, p11 + 2, p11 + 3, p11 + 4, p11 + 5, p11 + 6, p11 + 7, p11 + 8, p11 + 9, p11 + 10, p11 + 11, p11 + 12, p11 + 13, p11 + 14, p11 + 15, p11 + 16, p11 + 17, p11 + 18, p11 + 19, p11 + 20, p11 + 21, p11 + 22, p11 + 23, p11 + 24, p11 + 25, p11 + 26, p11 + 27, p11 + 28, p11 + 29, p11 + 30, p11 + 31, p11 + 32, p11 + 33, p11 + 34, p11 + 35, p11 + 36, p11 + 37, p11 + 38, p11 + 39, 9};
Line(12) = {4, 10};
Line(13) = {10, 7};
Line(14) = {5, 10};
p15 = newp;
Point(p15 + 1) = {18.0452170809664, 1.612478856124927, 0};
Point(p15 + 2) = {18.00067593295451, 1.79800608969842, 0};
Point(p15 + 3) = {17.92766030685198, 1.974281404500311, 0};
Point(p15 + 4) = {17.82796808969842, 2.13696431725595, 0};
Point(p15 + 5) = {17.70405403473966, 2.28204903473966, 0};
Point(p15 + 6) = {17.55896931725595, 2.40596308969842, 0};
Point(p15 + 7) = {17.39628640450031, 2.505655306851975, 0};
Point(p15 + 8) = {17.22001108969842, 2.578670932954505, 0};
Point(p15 + 9) = {17.03448385612493, 2.623212080966396, 0};
Point(p15 + 10) = {16.844273, 2.638182, 0};
Point(p15 + 11) = {16.65406214387507, 2.623212080966396, 0};
Point(p15 + 12) = {16.46853491030158, 2.578670932954505, 0};
Point(p15 + 13) = {16.29225959549969, 2.505655306851975, 0};
Point(p15 + 14) = {16.12957668274405, 2.40596308969842, 0};
Point(p15 + 15) = {15.98449196526034, 2.28204903473966, 0};
Point(p15 + 16) = {15.86057791030158, 2.13696431725595, 0};
Point(p15 + 17) = {15.76088569314803, 1.974281404500311, 0};
Point(p15 + 18) = {15.6878700670455, 1.79800608969842, 0};
Point(p15 + 19) = {15.64332891903361, 1.612478856124927, 0};
Point(p15 + 20) = {15.628359, 1.422268, 0};
Point(p15 + 21) = {15.64332891903361, 1.232057143875073, 0};
Point(p15 + 22) = {15.6878700670455, 1.04652991030158, 0};
Point(p15 + 23) = {15.76088569314803, 0.8702545954996895, 0};
Point(p15 + 24) = {15.86057791030158, 0.70757168274405, 0};
Point(p15 + 25) = {15.98449196526034, 0.5624869652603405, 0};
Point(p15 + 26) = {16.12957668274405, 0.4385729103015804, 0};
Point(p15 + 27) = {16.29225959549969, 0.338880693148025, 0};
Point(p15 + 28) = {16.46853491030158, 0.2658650670454947, 0};
Point(p15 + 29) = {16.65406214387507, 0.221323919033604, 0};
Point(p15 + 30) = {16.844273, 0.2063540000000001, 0};
Point(p15 + 31) = {17.03448385612493, 0.2213239190336038, 0};
Point(p15 + 32) = {17.22001108969842, 0.2658650670454947, 0};
Point(p15 + 33) = {17.39628640450031, 0.338880693148025, 0};
Point(p15 + 34) = {17.55896931725595, 0.4385729103015802, 0};
Point(p15 + 35) = {17.70405403473966, 0.5624869652603401, 0};
Point(p15 + 36) = {17.82796808969842, 0.7075716827440497, 0};
Point(p15 + 37) = {17.92766030685198, 0.8702545954996886, 0};
Point(p15 + 38) = {18.00067593295451, 1.04652991030158, 0};
Point(p15 + 39) = {18.0452170809664, 1.232057143875072, 0};
Spline(15) = {11, p15 + 1, p15 + 2, p15 + 3, p15 + 4, p15 + 5, p15 + 6, p15 + 7, p15 + 8, p15 + 9, p15 + 10, p15 + 11, p15 + 12, p15 + 13, p15 + 14, p15 + 15, p15 + 16, p15 + 17, p15 + 18, p15 + 19, p15 + 20, p15 + 21, p15 + 22, p15 + 23, p15 + 24, p15 + 25, p15 + 26, p15 + 27, p15 + 28, p15 + 29, p15 + 30, p15 + 31, p15 + 32, p15 + 33, p15 + 34, p15 + 35, p15 + 36, p15 + 37, p15 + 38, p15 + 39, 11};
p16 = newp;
Point(p16 + 1) = {4.772265096759519, 2.459595105839392, 0};
Point(p16 + 2) = {4.745826187466478, 2.569721088639135, 0};
Point(p16 + 3) = {4.702485285813382, 2.674355281215519, 0};
Point(p16 + 4) = {4.643309588639135, 2.770921242486335, 0};
Point(p16 + 5) = {4.569756198001047, 2.857041198001047, 0};
Point(p16 + 6) = {4.483636242486336, 2.930594588639135, 0};
Point(p16 + 7) = {4.387070281215519, 2.989770285813382, 0};
Point(p16 + 8) = {4.282436088639135, 3.033111187466478, 0};
Point(p16 + 9) = {4.172310105839391, 3.059550096759519, 0};
Point(p16 + 10) = {4.059404, 3.068436, 0};
Point(p16 + 11) = {3.946497894160608, 3.059550096759519, 0};
Point(p16 + 12) = {3.836371911360865, 3.033111187466478, 0};
Point(p16 + 13) = {3.731737718784481, 2.989770285813382, 0};
Point(p16 + 14) = {3.635171757513664, 2.930594588639135, 0};
Point(p16 + 15) = {3.549051801998953, 2.857041198001047, 0};
Point(p16 + 16) = {3.475498411360864, 2.770921242486336, 0};
Point(p16 + 17) = {3.416322714186618, 2.674355281215519, 0};
Point(p16 + 18) = {3.372981812533522, 2.569721088639135, 0};
Point(p16 + 19) = {3.346542903240481, 2.459595105839392, 0};
Point(p16 + 20) = {3.337657, 2.346689, 0};
Point(p16 + 21) = {3.346542903240481, 2.233782894160609, 0};
Point(p16 + 22) = {3.372981812533522, 2.123656911360865, 0};
Point(p16 + 23) = {3.416322714186617, 2.019022718784482, 0};
Point(p16 + 24) = {3.475498411360864, 1.922456757513664, 0};
Point(p16 + 25) = {3.549051801998953, 1.836336801998953, 0};
Point(p16 + 26) = {3.635171757513664, 1.762783411360865, 0};
Point(p16 + 27) = {3.731737718784481, 1.703607714186618, 0};
Point(p16 + 28) = {3.836371911360864, 1.660266812533522, 0};
Point(p16 + 29) = {3.946497894160608, 1.633827903240481, 0};
Point(p16 + 30) = {4.059404, 1.624942, 0};
Point(p16 + 31) = {4.172310105839391, 1.633827903240481, 0};
Point(p16 + 32) = {4.282436088639135, 1.660266812533522, 0};
Point(p16 + 33) = {4.387070281215518, 1.703607714186618, 0};
Point(p16 + 34) = {4.483636242486336, 1.762783411360865, 0};
Point(p16 + 35) = {4.569756198001047, 1.836336801998953, 0};
Point(p16 + 36) = {4.643309588639135, 1.922456757513664, 0};
Point(p16 + 37) = {4.702485285813381, 2.019022718784481, 0};
Point(p16 + 38) = {4.745826187466478, 2.123656911360865, 0};
Point(p16 + 39) = {4.772265096759519, 2.233782894160608, 0};
Spline(16) = {12, p16 + 1, p16 + 2, p16 + 3, p16 + 4, p16 + 5, p16 + 6, p16 + 7, p16 + 8, p16 + 9, p16 + 10, p16 + 11, p16 + 12, p16 + 13, p16 + 14, p16 + 15, p16 + 16, p16 + 17, p16 + 18, p16 + 19, p16 + 20, p16 + 21, p16 + 22, p16 + 23, p16 + 24, p16 + 25, p16 + 26, p16 + 27, p16 + 28, p16 + 29, p16 + 30, p16 + 31, p16 + 32, p16 + 33, p16 + 34, p16 + 35, p16 + 36, p16 + 37, p16 + 38, p16 + 39, 12};
Line(17) = {11, 8};
Line(18) = {12, 9};
Curve Loop(1) = {-1, 4, 3, -2};
Plane Surface(1) = {1};
Curve Loop(2) = {-5, 1, 7, -6};
Plane Surface(2) = {2};
Curve Loop(3) = {-2, 7, 9, -8, -10, -11};
Plane Surface(3) = {3};
Curve Loop(4) = {-12, 3, 8, -13};
Plane Surface(4) = {4};
Curve Loop(5) = {-4, 5, 14, -12, -15, -16};
Plane Surface(5) = {5};
Curve Loop(6) = {-6, 14, 13, -9};
Plane Surface(6) = {6};
Curve Loop(7) = {-10, -17, 15, 17};
Surface(7) = {7};
Curve Loop(8) = {-11, -18, 16, 18};
Surface(8) = {8};
Surface Loop(1) = {1, 2, 3, 4, 5, 6, 7, 8};
Volume(1) = {1};
Physical Surface("INFLOW") = {1};
Physical Surface("OUTFLOW") = {6};
Physical Surface("OBSTACLE") = {7, 8};
Physical Surface("WALL_Y") = {2, 4};
Physical Surface("WALL_Z") = {3, 5};
Physical Volume("FLUID") = {1};
