cl__1 = 3.539415;
cl__2 = 0.223811;
cl__3 = 0.145025;
cl__4 = 0.095845;
Point(1) = {0.880125, -4.004687, 1, cl__1};
Point(2) = {0.880125, -4.004687, 0, cl__1};
Point(3) = {0.880125, 4.190877, 1, cl__2};
Point(4) = {0.880125, 4.190877, 0, cl__2};
Point(5) = {35.156135, -4.004687, 0, cl__1};
Point(6) = {35.156135, -4.004687, 1, cl__1};
Point(7) = {35.156135, 4.190877, 1, cl__2};
Point(8) = {34.368213, -1.073036000000001, 1, cl__3};
Point(9) = {26.718194, 1.892618, 1, cl__4};
Point(10) = {35.156135, 4.190877, 0, cl__2};
Point(11) = {34.368213, -1.073036000000001, 0, cl__3};
Point(12) = {26.718194, 1.892618, 0, cl__4};
Line(1) = {2, 1};
Line(2) = {1, 3};
Line(3) = {4, 3};
Line(4) = {2, 4};
Line(5) = {2, 5};
Line(6) = {5, 6};
Line(7) = {1, 6};
Line(8) = {3, 7};
Line(9) = {6, 7};
p10 = newp;
Point(p10 + 1) = {34.35035796670147, -0.8461662913375452, 1};
Point(p10 + 2) = {34.29723251698312, -0.6248828678397551, 1};
Point(p10 + 3) = {34.21014477573028, -0.4146344617907235, 1};
Point(p10 + 4) = {34.09123913216025, -0.2205980867218318, 1};
Point(p10 + 5) = {33.94344343784292, -0.047551562157085, 1};
Point(p10 + 6) = {33.77039691327817, 0.100244132160245, 1};
Point(p10 + 7) = {33.57636053820928, 0.2191497757302769, 1};
Point(p10 + 8) = {33.36611213216025, 0.3062375169831115, 1};
Point(p10 + 9) = {33.14482870866246, 0.3593629667014608, 1};
Point(p10 + 10) = {32.917959, 0.3772179999999998, 1};
Point(p10 + 11) = {32.69108929133755, 0.3593629667014606, 1};
Point(p10 + 12) = {32.46980586783976, 0.3062375169831115, 1};
Point(p10 + 13) = {32.25955746179073, 0.2191497757302772, 1};
Point(p10 + 14) = {32.06552108672184, 0.100244132160245, 1};
Point(p10 + 15) = {31.89247456215709, -0.04755156215708478, 1};
Point(p10 + 16) = {31.74467886783976, -0.2205980867218317, 1};
Point(p10 + 17) = {31.62577322426973, -0.4146344617907234, 1};
Point(p10 + 18) = {31.53868548301689, -0.624882867839755, 1};
Point(p10 + 19) = {31.48556003329854, -0.846166291337545, 1};
Point(p10 + 20) = {31.467705, -1.073036, 1};
Point(p10 + 21) = {31.48556003329854, -1.299905708662455, 1};
Point(p10 + 22) = {31.53868548301689, -1.521189132160246, 1};
Point(p10 + 23) = {31.62577322426973, -1.731437538209276, 1};
Point(p10 + 24) = {31.74467886783976, -1.925473913278168, 1};
Point(p10 + 25) = {31.89247456215709, -2.098520437842915, 1};
Point(p10 + 26) = {32.06552108672184, -2.246316132160245, 1};
Point(p10 + 27) = {32.25955746179073, -2.365221775730277, 1};
Point(p10 + 28) = {32.46980586783976, -2.452309516983112, 1};
Point(p10 + 29) = {32.69108929133755, -2.505434966701461, 1};
Point(p10 + 30) = {32.917959, -2.52329, 1};
Point(p10 + 31) = {33.14482870866246, -2.505434966701461, 1};
Point(p10 + 32) = {33.36611213216025, -2.452309516983112, 1};
Point(p10 + 33) = {33.57636053820928, -2.365221775730277, 1};
Point(p10 + 34) = {33.77039691327817, -2.246316132160245, 1};
Point(p10 + 35) = {33.94344343784292, -2.098520437842915, 1};
Point(p10 + 36) = {34.09123913216025, -1.925473913278169, 1};
Point(p10 + 37) = {34.21014477573028, -1.731437538209277, 1};
Point(p10 + 38) = {34.29723251698312, -1.521189132160245, 1};
Point(p10 + 39) = {34.35035796670147, -1.299905708662455, 1};
Spline(10) = {8, p10 + 1, p10 + 2, p10 + 3, p10 + 4, p10 + 5, p10 + 6, p10 + 7, p10 + 8, p10 + 9, p10 + 10, p10 + 11, p10 + 12, p10 + 13, p10 + 14, p10 + 15, p10 + 16, p10 + 17, p10 + 18, p10 + 19, p10 + 20, p10 + 21, p10 + 22, p10 + 23, p10 + 24, p10 + 25, p10 + 26, p10 + 27, p10 + 28, p10 + 29, p10 + 30, p10 + 31, p10 + 32, p10 + 33, p10 + 34, p10 + 35, p10 + 36, p10 + 37, p10 + 38, p10 + 39, 8};
p11 = newp;
Point(p11 + 1) = {26.70639390235507, 2.042552456583344, 1};
Point(p11 + 2) = {26.67128416698657, 2.188795029241674, 1};
Point(p11 + 3) = {26.61372931210182, 2.327744740484869, 1};
Point(p11 + 4) = {26.53514652924167, 2.455980187274469, 1};
Point(p11 + 5) = {26.43747078732146, 2.570343787321465, 1};
Point(p11 + 6) = {26.32310718727447, 2.668019529241674, 1};
Point(p11 + 7) = {26.19487174048487, 2.746602312101817, 1};
Point(p11 + 8) = {26.05592202924167, 2.804157166986573, 1};
Point(p11 + 9) = {25.90967945658334, 2.839266902355069, 1};
Point(p11 + 10) = {25.759745, 2.851067, 1};
Point(p11 + 11) = {25.60981054341665, 2.839266902355069, 1};
Point(p11 + 12) = {25.46356797075833, 2.804157166986573, 1};
Point(p11 + 13) = {25.32461825951513, 2.746602312101817, 1};
Point(p11 + 14) = {25.19638281272553, 2.668019529241674, 1};
Point(p11 + 15) = {25.08201921267854, 2.570343787321465, 1};
Point(p11 + 16) = {24.98434347075833, 2.455980187274469, 1};
Point(p11 + 17) = {24.90576068789818, 2.327744740484869, 1};
Point(p11 + 18) = {24.84820583301342, 2.188795029241674, 1};
Point(p11 + 19) = {24.81309609764493, 2.042552456583344, 1};
Point(p11 + 20) = {24.801296, 1.892618, 1};
Point(p11 + 21) = {24.81309609764493, 1.742683543416656, 1};
Point(p11 + 22) = {24.84820583301342, 1.596440970758326, 1};
Point(p11 + 23) = {24.90576068789818, 1.457491259515131, 1};
Point(p11 + 24) = {24.98434347075833, 1.329255812725531, 1};
Point(p11 + 25) = {25.08201921267853, 1.214892212678535, 1};
Point(p11 + 26) = {25.19638281272553, 1.117216470758326, 1};
Point(p11 + 27) = {25.32461825951513, 1.038633687898183, 1};
Point(p11 + 28) = {25.46356797075833, 0.9810788330134264, 1};
Point(p11 + 29) = {25.60981054341665, 0.9459690976449309, 1};
Point(p11 + 30) = {25.759745, 0.9341689999999999, 1};
Point(p11 + 31) = {25.90967945658334, 0.9459690976449308, 1};
Point(p11 + 32) = {26.05592202924167, 0.9810788330134262, 1};
Point(p11 + 33) = {26.19487174048487, 1.038633687898183, 1};
Point(p11 + 34) = {26.32310718727447, 1.117216470758326, 1};
Point(p11 + 35) = {26.43747078732146, 1.214892212678534, 1};
Point(p11 + 36) = {26.53514652924167, 1.329255812725531, 1};
Point(p11 + 37) = {26.61372931210182, 1.457491259515131, 1};
Point(p11 + 38) = {26.67128416698657, 1.596440970758326, 1};
Point(p11 + 39) = {26.70639390235507, 1.742683543416655, 1};
Spline(11) = {9, p11 + 1, p11 + 2, p11 + 3, p11 + 4, p11 + 5, p11 + 6, p11 + 7, p11 + 8, p11 + 9, p11 + 10, p11 + 11, p11 + 12, p11 + 13, p11 + 14, p11 + 15, p11 + 16, p11 + 17, p11 + 18, p11 + 19, p11 + 20, p11 + 21, p11 + 22, p11 + 23, p11 + 24, p11 + 25, p11 + 26, p11 + 27, p11 + 28, p11 + 29, p11 + 30, p11 + 31, p11 + 32, p11 + 33, p11 + 34, p11 + 35, p11 + 36, p11 + 37, p11 + 38, p11 + 39, 9};
Line(12) = {4, 10};
Line(13) = {10, 7};
Line(14) = {5, 10};
p15 = newp;
Point(p15 + 1) = {34.35035796670147, -0.8461662913375452, 0};
Point(p15 + 2) = {34.29723251698312, -0.6248828678397551, 0};
Point(p15 + 3) = {34.21014477573028, -0.4146344617907235, 0};
Point(p15 + 4) = {34.09123913216025, -0.2205980867218318, 0};
Point(p15 + 5) = {33.94344343784292, -0.047551562157085, 0};
Point(p15 + 6) = {33.77039691327817, 0.100244132160245, 0};
Point(p15 + 7) = {33.57636053820928, 0.2191497757302769, 0};
Point(p15 + 8) = {33.36611213216025, 0.3062375169831115, 0};
Point(p15 + 9) = {33.14482870866246, 0.3593629667014608, 0};
Point(p15 + 10) = {32.917959, 0.3772179999999998, 0};
Point(p15 + 11) = {32.69108929133755, 0.3593629667014606, 0};
Point(p15 + 12) = {32.46980586783976, 0.3062375169831115, 0};
Point(p15 + 13) = {32.25955746179073, 0.2191497757302772, 0};
Point(p15 + 14) = {32.06552108672184, 0.100244132160245, 0};
Point(p15 + 15) = {31.89247456215709, -0.04755156215708478, 0};
Point(p15 + 16) = {31.74467886783976, -0.2205980867218317, 0};
Point(p15 + 17) = {31.62577322426973, -0.4146344617907234, 0};
Point(p15 + 18) = {31.53868548301689, -0.624882867839755, 0};
Point(p15 + 19) = {31.48556003329854, -0.846166291337545, 0};
Point(p15 + 20) = {31.467705, -1.073036, 0};
Point(p15 + 21) = {31.48556003329854, -1.299905708662455, 0};
Point(p15 + 22) = {31.53868548301689, -1.521189132160246, 0};
Point(p15 + 23) = {31.62577322426973, -1.731437538209276, 0};
Point(p15 + 24) = {31.74467886783976, -1.925473913278168, 0};
Point(p15 + 25) = {31.89247456215709, -2.098520437842915, 0};
Point(p15 + 26) = {32.06552108672184, -2.246316132160245, 0};
Point(p15 + 27) = {32.25955746179073, -2.365221775730277, 0};
Point(p15 + 28) = {32.46980586783976, -2.452309516983112, 0};
Point(p15 + 29) = {32.69108929133755, -2.505434966701461, 0};
Point(p15 + 30) = {32.917959, -2.52329, 0};
Point(p15 + 31) = {33.14482870866246, -2.505434966701461, 0};
Point(p15 + 32) = {33.36611213216025, -2.452309516983112, 0};
Point(p15 + 33) = {33.57636053820928, -2.365221775730277, 0};
Point(p15 + 34) = {33.77039691327817, -2.246316132160245, 0};
Point(p15 + 35) = {33.94344343784292, -2.098520437842915, 0};
Point(p15 + 36) = {34.09123913216025, -1.925473913278169, 0};
Point(p15 + 37) = {34.21014477573028, -1.731437538209277, 0};
Point(p15 + 38) = {34.29723251698312, -1.521189132160245, 0};
Point(p15 + 39) = {34.35035796670147, -1.299905708662455, 0};
Spline(15) = {11, p15 + 1, p15 + 2, p15 + 3, p15 + 4, p15 + 5, p15 + 6, p15 + 7, p15 + 8, p15 + 9, p15 + 10, p15 + 11, p15 + 12, p15 + 13, p15 + 14, p15 + 15, p15 + 16, p15 + 17, p15 + 18, p15 + 19, p15 + 20, p15 + 21, p15 + 22, p15 + 23, p15 + 24, p15 + 25, p15 + 26, p15 + 27, p15 + 28, p15 + 29, p15 + 30, p15 + 31, p15 + 32, p15 + 33, p15 + 34, p15 + 35, p15 + 36, p15 + 37, p15 + 38, p15 + 39, 11};
p16 = newp;
Point(p16 + 1) = {26.70639390235507, 2.042552456583344, 0};
Point(p16 + 2) = {26.67128416698657, 2.188795029241674, 0};
Point(p16 + 3) = {26.61372931210182, 2.327744740484869, 0};
Point(p16 + 4) = {26.53514652924167, 2.455980187274469, 0};
Point(p16 + 5) = {26.43747078732146, 2.570343787321465, 0};
Point(p16 + 6) = {26.32310718727447, 2.668019529241674, 0};
Point(p16 + 7) = {26.19487174048487, 2.746602312101817, 0};
Point(p16 + 8) = {26.05592202924167, 2.804157166986573, 0};
Point(p16 + 9) = {25.90967945658334, 2.839266902355069, 0};
Point(p16 + 10) = {25.759745, 2.851067, 0};
Point(p16 + 11) = {25.60981054341665, 2.839266902355069, 0};
Point(p16 + 12) = {25.46356797075833, 2.804157166986573, 0};
Point(p16 + 13) = {25.32461825951513, 2.746602312101817, 0};
Point(p16 + 14) = {25.19638281272553, 2.668019529241674, 0};
Point(p16 + 15) = {25.08201921267854, 2.570343787321465, 0};
Point(p16 + 16) = {24.98434347075833, 2.455980187274469, 0};
Point(p16 + 17) = {24.90576068789818, 2.327744740484869, 0};
Point(p16 + 18) = {24.84820583301342, 2.188795029241674, 0};
Point(p16 + 19) = {24.81309609764493, 2.042552456583344, 0};
Point(p16 + 20) = {24.801296, 1.892618, 0};
Point(p16 + 21) = {24.81309609764493, 1.742683543416656, 0};
Point(p16 + 22) = {24.84820583301342, 1.596440970758326, 0};
Point(p16 + 23) = {24.90576068789818, 1.457491259515131, 0};
Point(p16 + 24) = {24.98434347075833, 1.329255812725531, 0};
Point(p16 + 25) = {25.08201921267853, 1.214892212678535, 0};
Point(p16 + 26) = {25.19638281272553, 1.117216470758326, 0};
Point(p16 + 27) = {25.32461825951513, 1.038633687898183, 0};
Point(p16 + 28) = {25.46356797075833, 0.9810788330134264, 0};
Point(p16 + 29) = {25.60981054341665, 0.9459690976449309, 0};
Point(p16 + 30) = {25.759745, 0.9341689999999999, 0};
Point(p16 + 31) = {25.90967945658334, 0.9459690976449308, 0};
Point(p16 + 32) = {26.05592202924167, 0.9810788330134262, 0};
Point(p16 + 33) = {26.19487174048487, 1.038633687898183, 0};
Point(p16 + 34) = {26.32310718727447, 1.117216470758326, 0};
Point(p16 + 35) = {26.43747078732146, 1.214892212678534, 0};
Point(p16 + 36) = {26.53514652924167, 1.329255812725531, 0};
Point(p16 + 37) = {26.61372931210182, 1.457491259515131, 0};
Point(p16 + 38) = {26.67128416698657, 1.596440970758326, 0};
Point(p16 + 39) = {26.70639390235507, 1.742683543416655, 0};
Spline(16) = {12, p16 + 1, p16 + 2, p16 + 3, p16 + 4, p16 + 5, p16 + 6, p16 + 7, p16 + 8, p16 + 9, p16 + 10, p16 + 11, p16 + 12, p16 + 13, p16 + 14, p16 + 15, p16 + 16, p16 + 17, p16 + 18, p16 + 19, p16 + 20, p16 + 21, p16 + 22, p16 + 23, p16 + 24, p16 + 25, p16 + 26, p16 + 27, p16 + 28, p16 + 29, p16 + 30, p16 + 31, p16 + 32, p16 + 33, p16 + 34, p16 + 35, p16 + 36, p16 + 37, p16 + 38, p16 + 39, 12};
Line(17) = {11, 8};
Line(18) = {12, 9};
Curve Loop(1) = {-1, 4, 3, -2};
Plane Surface(1) = {1};
Curve Loop(2) = {-5, 1, 7, -6};
Plane Surface(2) = {2};
Curve Loop(3) = {-2, 7, 9, -8, -10, -11};
Plane Surface(3) = {3};
Curve Loop(4) = {-12, 3, 8, -13};
Plane Surface(4) = {4};
Curve Loop(5) = {-4, 5, 14, -12, -15, -16};
Plane Surface(5) = {5};
Curve Loop(6) = {-6, 14, 13, -9};
Plane Surface(6) = {6};
Curve Loop(7) = {-10, -17, 15, 17};
Surface(7) = {7};
Curve Loop(8) = {-11, -18, 16, 18};
Surface(8) = {8};
Surface Loop(1) = {1, 2, 3, 4, 5, 6, 7, 8};
Volume(1) = {1};
Physical Surface("INFLOW") = {1};
Physical Surface("OUTFLOW") = {6};
Physical Surface("OBSTACLE") = {7, 8};
Physical Surface("WALL_Y") = {2, 4};
Physical Surface("WALL_Z") = {3, 5};
Physical Volume("FLUID") = {1};
