cl__1 = 3.088856;
cl__2 = 0.7382919999999999;
cl__3 = 1.122359;
cl__4 = 0.054773;
cl__5 = 0.148295;
Point(1) = {0.986955, -4.105782, 1, cl__1};
Point(2) = {0.986955, -4.105782, 0, cl__1};
Point(3) = {0.986955, 4.326665, 1, cl__2};
Point(4) = {0.986955, 4.326665, 0, cl__2};
Point(5) = {30.599458, -4.105782, 0, cl__1};
Point(6) = {30.599458, -4.105782, 1, cl__1};
Point(7) = {30.599458, 4.326665, 1, cl__3};
Point(8) = {19.733272, -1.227146, 1, cl__4};
Point(9) = {24.030427, -0.3950840000000004, 1, cl__5};
Point(10) = {30.599458, 4.326665, 0, cl__3};
Point(11) = {19.733272, -1.227146, 0, cl__4};
Point(12) = {24.030427, -0.3950840000000004, 0, cl__5};
Line(1) = {2, 1};
Line(2) = {1, 3};
Line(3) = {4, 3};
Line(4) = {2, 4};
Line(5) = {2, 5};
Line(6) = {5, 6};
Line(7) = {1, 6};
Line(8) = {3, 7};
Line(9) = {6, 7};
p10 = newp;
Point(p10 + 1) = {19.7265284978592, -1.141461681160119, 1};
Point(p10 + 2) = {19.70646403883989, -1.057887194620027, 1};
Point(p10 + 3) = {19.67357267651327, -0.9784804216061589, 1};
Point(p10 + 4) = {19.62866430537997, -0.9051966204060868, 1};
Point(p10 + 5) = {19.57284471857965, -0.8398402814203488, 1};
Point(p10 + 6) = {19.50748837959391, -0.784020694620027, 1};
Point(p10 + 7) = {19.43420457839384, -0.7391123234867327, 1};
Point(p10 + 8) = {19.35479780537997, -0.7062209611601067, 1};
Point(p10 + 9) = {19.27122331883988, -0.6861565021408035, 1};
Point(p10 + 10) = {19.185539, -0.679413, 1};
Point(p10 + 11) = {19.09985468116012, -0.6861565021408035, 1};
Point(p10 + 12) = {19.01628019462003, -0.7062209611601067, 1};
Point(p10 + 13) = {18.93687342160616, -0.7391123234867327, 1};
Point(p10 + 14) = {18.86358962040608, -0.784020694620027, 1};
Point(p10 + 15) = {18.79823328142035, -0.8398402814203487, 1};
Point(p10 + 16) = {18.74241369462003, -0.9051966204060868, 1};
Point(p10 + 17) = {18.69750532348673, -0.9784804216061589, 1};
Point(p10 + 18) = {18.6646139611601, -1.057887194620027, 1};
Point(p10 + 19) = {18.6445495021408, -1.141461681160119, 1};
Point(p10 + 20) = {18.637806, -1.227146, 1};
Point(p10 + 21) = {18.6445495021408, -1.312830318839881, 1};
Point(p10 + 22) = {18.6646139611601, -1.396404805379973, 1};
Point(p10 + 23) = {18.69750532348673, -1.475811578393841, 1};
Point(p10 + 24) = {18.74241369462003, -1.549095379593913, 1};
Point(p10 + 25) = {18.79823328142035, -1.614451718579651, 1};
Point(p10 + 26) = {18.86358962040608, -1.670271305379973, 1};
Point(p10 + 27) = {18.93687342160616, -1.715179676513267, 1};
Point(p10 + 28) = {19.01628019462003, -1.748071038839893, 1};
Point(p10 + 29) = {19.09985468116012, -1.768135497859197, 1};
Point(p10 + 30) = {19.185539, -1.774879, 1};
Point(p10 + 31) = {19.27122331883988, -1.768135497859197, 1};
Point(p10 + 32) = {19.35479780537997, -1.748071038839893, 1};
Point(p10 + 33) = {19.43420457839384, -1.715179676513267, 1};
Point(p10 + 34) = {19.50748837959391, -1.670271305379973, 1};
Point(p10 + 35) = {19.57284471857965, -1.614451718579651, 1};
Point(p10 + 36) = {19.62866430537997, -1.549095379593914, 1};
Point(p10 + 37) = {19.67357267651327, -1.475811578393841, 1};
Point(p10 + 38) = {19.70646403883989, -1.396404805379973, 1};
Point(p10 + 39) = {19.7265284978592, -1.312830318839881, 1};
Spline(10) = {8, p10 + 1, p10 + 2, p10 + 3, p10 + 4, p10 + 5, p10 + 6, p10 + 7, p10 + 8, p10 + 9, p10 + 10, p10 + 11, p10 + 12, p10 + 13, p10 + 14, p10 + 15, p10 + 16, p10 + 17, p10 + 18, p10 + 19, p10 + 20, p10 + 21, p10 + 22, p10 + 23, p10 + 24, p10 + 25, p10 + 26, p10 + 27, p10 + 28, p10 + 29, p10 + 30, p10 + 31, p10 + 32, p10 + 33, p10 + 34, p10 + 35, p10 + 36, p10 + 37, p10 + 38, p10 + 39, 8};
p11 = newp;
Point(p11 + 1) = {24.0121694123739, -0.1630993536341246, 1};
Point(p11 + 2) = {23.95784621189641, 0.06317306082532259, 1};
Point(p11 + 3) = {23.86879501605166, 0.2781616655792606, 1};
Point(p11 + 4) = {23.74720856082532, 0.4765727276723752, 1};
Point(p11 + 5) = {23.59608070826737, 0.6535207082673717, 1};
Point(p11 + 6) = {23.41913272767237, 0.8046485608253227, 1};
Point(p11 + 7) = {23.22072166557926, 0.9262350160516641, 1};
Point(p11 + 8) = {23.00573306082532, 1.015286211896414, 1};
Point(p11 + 9) = {22.77946064636588, 1.0696094123739, 1};
Point(p11 + 10) = {22.547476, 1.087867, 1};
Point(p11 + 11) = {22.31549135363412, 1.0696094123739, 1};
Point(p11 + 12) = {22.08921893917468, 1.015286211896414, 1};
Point(p11 + 13) = {21.87423033442074, 0.9262350160516644, 1};
Point(p11 + 14) = {21.67581927232763, 0.8046485608253227, 1};
Point(p11 + 15) = {21.49887129173263, 0.653520708267372, 1};
Point(p11 + 16) = {21.34774343917468, 0.4765727276723755, 1};
Point(p11 + 17) = {21.22615698394834, 0.2781616655792607, 1};
Point(p11 + 18) = {21.13710578810359, 0.06317306082532276, 1};
Point(p11 + 19) = {21.0827825876261, -0.1630993536341244, 1};
Point(p11 + 20) = {21.064525, -0.3950839999999998, 1};
Point(p11 + 21) = {21.0827825876261, -0.6270686463658752, 1};
Point(p11 + 22) = {21.13710578810359, -0.8533410608253231, 1};
Point(p11 + 23) = {21.22615698394834, -1.06832966557926, 1};
Point(p11 + 24) = {21.34774343917468, -1.266740727672375, 1};
Point(p11 + 25) = {21.49887129173263, -1.443688708267372, 1};
Point(p11 + 26) = {21.67581927232762, -1.594816560825322, 1};
Point(p11 + 27) = {21.87423033442074, -1.716403016051664, 1};
Point(p11 + 28) = {22.08921893917468, -1.805454211896414, 1};
Point(p11 + 29) = {22.31549135363412, -1.8597774123739, 1};
Point(p11 + 30) = {22.547476, -1.878035, 1};
Point(p11 + 31) = {22.77946064636587, -1.8597774123739, 1};
Point(p11 + 32) = {23.00573306082532, -1.805454211896414, 1};
Point(p11 + 33) = {23.22072166557926, -1.716403016051664, 1};
Point(p11 + 34) = {23.41913272767237, -1.594816560825323, 1};
Point(p11 + 35) = {23.59608070826737, -1.443688708267372, 1};
Point(p11 + 36) = {23.74720856082532, -1.266740727672376, 1};
Point(p11 + 37) = {23.86879501605166, -1.068329665579261, 1};
Point(p11 + 38) = {23.95784621189641, -0.8533410608253229, 1};
Point(p11 + 39) = {24.0121694123739, -0.6270686463658757, 1};
Spline(11) = {9, p11 + 1, p11 + 2, p11 + 3, p11 + 4, p11 + 5, p11 + 6, p11 + 7, p11 + 8, p11 + 9, p11 + 10, p11 + 11, p11 + 12, p11 + 13, p11 + 14, p11 + 15, p11 + 16, p11 + 17, p11 + 18, p11 + 19, p11 + 20, p11 + 21, p11 + 22, p11 + 23, p11 + 24, p11 + 25, p11 + 26, p11 + 27, p11 + 28, p11 + 29, p11 + 30, p11 + 31, p11 + 32, p11 + 33, p11 + 34, p11 + 35, p11 + 36, p11 + 37, p11 + 38, p11 + 39, 9};
Line(12) = {4, 10};
Line(13) = {10, 7};
Line(14) = {5, 10};
p15 = newp;
Point(p15 + 1) = {19.7265284978592, -1.141461681160119, 0};
Point(p15 + 2) = {19.70646403883989, -1.057887194620027, 0};
Point(p15 + 3) = {19.67357267651327, -0.9784804216061589, 0};
Point(p15 + 4) = {19.62866430537997, -0.9051966204060868, 0};
Point(p15 + 5) = {19.57284471857965, -0.8398402814203488, 0};
Point(p15 + 6) = {19.50748837959391, -0.784020694620027, 0};
Point(p15 + 7) = {19.43420457839384, -0.7391123234867327, 0};
Point(p15 + 8) = {19.35479780537997, -0.7062209611601067, 0};
Point(p15 + 9) = {19.27122331883988, -0.6861565021408035, 0};
Point(p15 + 10) = {19.185539, -0.679413, 0};
Point(p15 + 11) = {19.09985468116012, -0.6861565021408035, 0};
Point(p15 + 12) = {19.01628019462003, -0.7062209611601067, 0};
Point(p15 + 13) = {18.93687342160616, -0.7391123234867327, 0};
Point(p15 + 14) = {18.86358962040608, -0.784020694620027, 0};
Point(p15 + 15) = {18.79823328142035, -0.8398402814203487, 0};
Point(p15 + 16) = {18.74241369462003, -0.9051966204060868, 0};
Point(p15 + 17) = {18.69750532348673, -0.9784804216061589, 0};
Point(p15 + 18) = {18.6646139611601, -1.057887194620027, 0};
Point(p15 + 19) = {18.6445495021408, -1.141461681160119, 0};
Point(p15 + 20) = {18.637806, -1.227146, 0};
Point(p15 + 21) = {18.6445495021408, -1.312830318839881, 0};
Point(p15 + 22) = {18.6646139611601, -1.396404805379973, 0};
Point(p15 + 23) = {18.69750532348673, -1.475811578393841, 0};
Point(p15 + 24) = {18.74241369462003, -1.549095379593913, 0};
Point(p15 + 25) = {18.79823328142035, -1.614451718579651, 0};
Point(p15 + 26) = {18.86358962040608, -1.670271305379973, 0};
Point(p15 + 27) = {18.93687342160616, -1.715179676513267, 0};
Point(p15 + 28) = {19.01628019462003, -1.748071038839893, 0};
Point(p15 + 29) = {19.09985468116012, -1.768135497859197, 0};
Point(p15 + 30) = {19.185539, -1.774879, 0};
Point(p15 + 31) = {19.27122331883988, -1.768135497859197, 0};
Point(p15 + 32) = {19.35479780537997, -1.748071038839893, 0};
Point(p15 + 33) = {19.43420457839384, -1.715179676513267, 0};
Point(p15 + 34) = {19.50748837959391, -1.670271305379973, 0};
Point(p15 + 35) = {19.57284471857965, -1.614451718579651, 0};
Point(p15 + 36) = {19.62866430537997, -1.549095379593914, 0};
Point(p15 + 37) = {19.67357267651327, -1.475811578393841, 0};
Point(p15 + 38) = {19.70646403883989, -1.396404805379973, 0};
Point(p15 + 39) = {19.7265284978592, -1.312830318839881, 0};
Spline(15) = {11, p15 + 1, p15 + 2, p15 + 3, p15 + 4, p15 + 5, p15 + 6, p15 + 7, p15 + 8, p15 + 9, p15 + 10, p15 + 11, p15 + 12, p15 + 13, p15 + 14, p15 + 15, p15 + 16, p15 + 17, p15 + 18, p15 + 19, p15 + 20, p15 + 21, p15 + 22, p15 + 23, p15 + 24, p15 + 25, p15 + 26, p15 + 27, p15 + 28, p15 + 29, p15 + 30, p15 + 31, p15 + 32, p15 + 33, p15 + 34, p15 + 35, p15 + 36, p15 + 37, p15 + 38, p15 + 39, 11};
p16 = newp;
Point(p16 + 1) = {24.0121694123739, -0.1630993536341246, 0};
Point(p16 + 2) = {23.95784621189641, 0.06317306082532259, 0};
Point(p16 + 3) = {23.86879501605166, 0.2781616655792606, 0};
Point(p16 + 4) = {23.74720856082532, 0.4765727276723752, 0};
Point(p16 + 5) = {23.59608070826737, 0.6535207082673717, 0};
Point(p16 + 6) = {23.41913272767237, 0.8046485608253227, 0};
Point(p16 + 7) = {23.22072166557926, 0.9262350160516641, 0};
Point(p16 + 8) = {23.00573306082532, 1.015286211896414, 0};
Point(p16 + 9) = {22.77946064636588, 1.0696094123739, 0};
Point(p16 + 10) = {22.547476, 1.087867, 0};
Point(p16 + 11) = {22.31549135363412, 1.0696094123739, 0};
Point(p16 + 12) = {22.08921893917468, 1.015286211896414, 0};
Point(p16 + 13) = {21.87423033442074, 0.9262350160516644, 0};
Point(p16 + 14) = {21.67581927232763, 0.8046485608253227, 0};
Point(p16 + 15) = {21.49887129173263, 0.653520708267372, 0};
Point(p16 + 16) = {21.34774343917468, 0.4765727276723755, 0};
Point(p16 + 17) = {21.22615698394834, 0.2781616655792607, 0};
Point(p16 + 18) = {21.13710578810359, 0.06317306082532276, 0};
Point(p16 + 19) = {21.0827825876261, -0.1630993536341244, 0};
Point(p16 + 20) = {21.064525, -0.3950839999999998, 0};
Point(p16 + 21) = {21.0827825876261, -0.6270686463658752, 0};
Point(p16 + 22) = {21.13710578810359, -0.8533410608253231, 0};
Point(p16 + 23) = {21.22615698394834, -1.06832966557926, 0};
Point(p16 + 24) = {21.34774343917468, -1.266740727672375, 0};
Point(p16 + 25) = {21.49887129173263, -1.443688708267372, 0};
Point(p16 + 26) = {21.67581927232762, -1.594816560825322, 0};
Point(p16 + 27) = {21.87423033442074, -1.716403016051664, 0};
Point(p16 + 28) = {22.08921893917468, -1.805454211896414, 0};
Point(p16 + 29) = {22.31549135363412, -1.8597774123739, 0};
Point(p16 + 30) = {22.547476, -1.878035, 0};
Point(p16 + 31) = {22.77946064636587, -1.8597774123739, 0};
Point(p16 + 32) = {23.00573306082532, -1.805454211896414, 0};
Point(p16 + 33) = {23.22072166557926, -1.716403016051664, 0};
Point(p16 + 34) = {23.41913272767237, -1.594816560825323, 0};
Point(p16 + 35) = {23.59608070826737, -1.443688708267372, 0};
Point(p16 + 36) = {23.74720856082532, -1.266740727672376, 0};
Point(p16 + 37) = {23.86879501605166, -1.068329665579261, 0};
Point(p16 + 38) = {23.95784621189641, -0.8533410608253229, 0};
Point(p16 + 39) = {24.0121694123739, -0.6270686463658757, 0};
Spline(16) = {12, p16 + 1, p16 + 2, p16 + 3, p16 + 4, p16 + 5, p16 + 6, p16 + 7, p16 + 8, p16 + 9, p16 + 10, p16 + 11, p16 + 12, p16 + 13, p16 + 14, p16 + 15, p16 + 16, p16 + 17, p16 + 18, p16 + 19, p16 + 20, p16 + 21, p16 + 22, p16 + 23, p16 + 24, p16 + 25, p16 + 26, p16 + 27, p16 + 28, p16 + 29, p16 + 30, p16 + 31, p16 + 32, p16 + 33, p16 + 34, p16 + 35, p16 + 36, p16 + 37, p16 + 38, p16 + 39, 12};
Line(17) = {11, 8};
Line(18) = {12, 9};
Curve Loop(1) = {-1, 4, 3, -2};
Plane Surface(1) = {1};
Curve Loop(2) = {-5, 1, 7, -6};
Plane Surface(2) = {2};
Curve Loop(3) = {-2, 7, 9, -8, -10, -11};
Plane Surface(3) = {3};
Curve Loop(4) = {-12, 3, 8, -13};
Plane Surface(4) = {4};
Curve Loop(5) = {-4, 5, 14, -12, -15, -16};
Plane Surface(5) = {5};
Curve Loop(6) = {-6, 14, 13, -9};
Plane Surface(6) = {6};
Curve Loop(7) = {-10, -17, 15, 17};
Surface(7) = {7};
Curve Loop(8) = {-11, -18, 16, 18};
Surface(8) = {8};
Surface Loop(1) = {1, 2, 3, 4, 5, 6, 7, 8};
Volume(1) = {1};
Physical Surface("INFLOW") = {1};
Physical Surface("OUTFLOW") = {6};
Physical Surface("OBSTACLE") = {7, 8};
Physical Surface("WALL_Y") = {2, 4};
Physical Surface("WALL_Z") = {3, 5};
Physical Volume("FLUID") = {1};
