cl__1 = 1;
cl__2 = 0.113127;
cl__3 = 0.057134;
Point(1) = {0.286524, -3.327757, 1, cl__1};
Point(2) = {0.286524, -3.327757, 0, cl__1};
Point(3) = {0.286524, 4.591182, 1, cl__1};
Point(4) = {0.286524, 4.591182, 0, cl__1};
Point(5) = {31.448484, -3.327757, 0, cl__1};
Point(6) = {31.448484, -3.327757, 1, cl__1};
Point(7) = {31.448484, 4.591182, 1, cl__1};
Point(8) = {26.532752, -1.287712, 1, cl__2};
Point(9) = {18.548479, 2.762924, 1, cl__3};
Point(10) = {31.448484, 4.591182, 0, cl__1};
Point(11) = {26.532752, -1.287712, 0, cl__2};
Point(12) = {18.548479, 2.762924, 0, cl__3};
Line(1) = {2, 1};
Line(2) = {1, 3};
Line(3) = {4, 3};
Line(4) = {2, 4};
Line(5) = {2, 5};
Line(6) = {5, 6};
Line(7) = {1, 6};
Line(8) = {3, 7};
Line(9) = {6, 7};
p10 = newp;
Point(p10 + 1) = {26.51882415213008, -1.110741913430543, 1};
Point(p10 + 2) = {26.47738355835877, -0.9381294177224702, 1};
Point(p10 + 3) = {26.40945062363815, -0.7741248053881437, 1};
Point(p10 + 4) = {26.31669808227753, -0.622766414283337, 1};
Point(p10 + 5) = {26.20140980967325, -0.4877811903267509, 1};
Point(p10 + 6) = {26.06642458571666, -0.3724929177224701, 1};
Point(p10 + 7) = {25.91506619461185, -0.2797403763618527, 1};
Point(p10 + 8) = {25.75106158227753, -0.2118074416412328, 1};
Point(p10 + 9) = {25.57844908656946, -0.1703668478699167, 1};
Point(p10 + 10) = {25.401479, -0.156439, 1};
Point(p10 + 11) = {25.22450891343054, -0.1703668478699167, 1};
Point(p10 + 12) = {25.05189641772247, -0.2118074416412326, 1};
Point(p10 + 13) = {24.88789180538814, -0.2797403763618524, 1};
Point(p10 + 14) = {24.73653341428334, -0.3724929177224701, 1};
Point(p10 + 15) = {24.60154819032675, -0.4877811903267507, 1};
Point(p10 + 16) = {24.48625991772247, -0.6227664142833369, 1};
Point(p10 + 17) = {24.39350737636185, -0.7741248053881435, 1};
Point(p10 + 18) = {24.32557444164123, -0.9381294177224699, 1};
Point(p10 + 19) = {24.28413384786991, -1.110741913430543, 1};
Point(p10 + 20) = {24.270206, -1.287712, 1};
Point(p10 + 21) = {24.28413384786991, -1.464682086569457, 1};
Point(p10 + 22) = {24.32557444164123, -1.63729458227753, 1};
Point(p10 + 23) = {24.39350737636185, -1.801299194611856, 1};
Point(p10 + 24) = {24.48625991772247, -1.952657585716663, 1};
Point(p10 + 25) = {24.60154819032675, -2.087642809673249, 1};
Point(p10 + 26) = {24.73653341428334, -2.20293108227753, 1};
Point(p10 + 27) = {24.88789180538814, -2.295683623638147, 1};
Point(p10 + 28) = {25.05189641772247, -2.363616558358767, 1};
Point(p10 + 29) = {25.22450891343054, -2.405057152130083, 1};
Point(p10 + 30) = {25.401479, -2.418985, 1};
Point(p10 + 31) = {25.57844908656946, -2.405057152130083, 1};
Point(p10 + 32) = {25.75106158227753, -2.363616558358768, 1};
Point(p10 + 33) = {25.91506619461185, -2.295683623638148, 1};
Point(p10 + 34) = {26.06642458571666, -2.20293108227753, 1};
Point(p10 + 35) = {26.20140980967325, -2.087642809673249, 1};
Point(p10 + 36) = {26.31669808227753, -1.952657585716663, 1};
Point(p10 + 37) = {26.40945062363815, -1.801299194611857, 1};
Point(p10 + 38) = {26.47738355835877, -1.63729458227753, 1};
Point(p10 + 39) = {26.51882415213008, -1.464682086569457, 1};
Spline(10) = {8, p10 + 1, p10 + 2, p10 + 3, p10 + 4, p10 + 5, p10 + 6, p10 + 7, p10 + 8, p10 + 9, p10 + 10, p10 + 11, p10 + 12, p10 + 13, p10 + 14, p10 + 15, p10 + 16, p10 + 17, p10 + 18, p10 + 19, p10 + 20, p10 + 21, p10 + 22, p10 + 23, p10 + 24, p10 + 25, p10 + 26, p10 + 27, p10 + 28, p10 + 29, p10 + 30, p10 + 31, p10 + 32, p10 + 33, p10 + 34, p10 + 35, p10 + 36, p10 + 37, p10 + 38, p10 + 39, 8};
p11 = newp;
Point(p11 + 1) = {18.54144480726899, 2.852301892993946, 1};
Point(p11 + 2) = {18.52051543424614, 2.93947900563416, 1};
Point(p11 + 3) = {18.48620623155588, 3.022308748083192, 1};
Point(p11 + 4) = {18.43936200563416, 3.098751577185791, 1};
Point(p11 + 5) = {18.38113621679025, 3.166925216790247, 1};
Point(p11 + 6) = {18.31296257718579, 3.22515100563416, 1};
Point(p11 + 7) = {18.23651974808319, 3.271995231555879, 1};
Point(p11 + 8) = {18.15369000563416, 3.306304434246138, 1};
Point(p11 + 9) = {18.06651289299394, 3.327233807268988, 1};
Point(p11 + 10) = {17.977135, 3.334268, 1};
Point(p11 + 11) = {17.88775710700606, 3.327233807268988, 1};
Point(p11 + 12) = {17.80057999436584, 3.306304434246138, 1};
Point(p11 + 13) = {17.71775025191681, 3.271995231555879, 1};
Point(p11 + 14) = {17.64130742281421, 3.22515100563416, 1};
Point(p11 + 15) = {17.57313378320976, 3.166925216790247, 1};
Point(p11 + 16) = {17.51490799436584, 3.098751577185791, 1};
Point(p11 + 17) = {17.46806376844412, 3.022308748083192, 1};
Point(p11 + 18) = {17.43375456575386, 2.93947900563416, 1};
Point(p11 + 19) = {17.41282519273101, 2.852301892993946, 1};
Point(p11 + 20) = {17.405791, 2.762924, 1};
Point(p11 + 21) = {17.41282519273101, 2.673546107006054, 1};
Point(p11 + 22) = {17.43375456575386, 2.58636899436584, 1};
Point(p11 + 23) = {17.46806376844412, 2.503539251916809, 1};
Point(p11 + 24) = {17.51490799436584, 2.427096422814209, 1};
Point(p11 + 25) = {17.57313378320976, 2.358922783209753, 1};
Point(p11 + 26) = {17.64130742281421, 2.30069699436584, 1};
Point(p11 + 27) = {17.71775025191681, 2.253852768444121, 1};
Point(p11 + 28) = {17.80057999436584, 2.219543565753862, 1};
Point(p11 + 29) = {17.88775710700606, 2.198614192731012, 1};
Point(p11 + 30) = {17.977135, 2.19158, 1};
Point(p11 + 31) = {18.06651289299394, 2.198614192731012, 1};
Point(p11 + 32) = {18.15369000563416, 2.219543565753862, 1};
Point(p11 + 33) = {18.23651974808319, 2.253852768444121, 1};
Point(p11 + 34) = {18.31296257718579, 2.30069699436584, 1};
Point(p11 + 35) = {18.38113621679025, 2.358922783209753, 1};
Point(p11 + 36) = {18.43936200563416, 2.427096422814209, 1};
Point(p11 + 37) = {18.48620623155588, 2.503539251916808, 1};
Point(p11 + 38) = {18.52051543424614, 2.58636899436584, 1};
Point(p11 + 39) = {18.54144480726899, 2.673546107006054, 1};
Spline(11) = {9, p11 + 1, p11 + 2, p11 + 3, p11 + 4, p11 + 5, p11 + 6, p11 + 7, p11 + 8, p11 + 9, p11 + 10, p11 + 11, p11 + 12, p11 + 13, p11 + 14, p11 + 15, p11 + 16, p11 + 17, p11 + 18, p11 + 19, p11 + 20, p11 + 21, p11 + 22, p11 + 23, p11 + 24, p11 + 25, p11 + 26, p11 + 27, p11 + 28, p11 + 29, p11 + 30, p11 + 31, p11 + 32, p11 + 33, p11 + 34, p11 + 35, p11 + 36, p11 + 37, p11 + 38, p11 + 39, 9};
Line(12) = {4, 10};
Line(13) = {10, 7};
Line(14) = {5, 10};
p15 = newp;
Point(p15 + 1) = {26.51882415213008, -1.110741913430543, 0};
Point(p15 + 2) = {26.47738355835877, -0.9381294177224702, 0};
Point(p15 + 3) = {26.40945062363815, -0.7741248053881437, 0};
Point(p15 + 4) = {26.31669808227753, -0.622766414283337, 0};
Point(p15 + 5) = {26.20140980967325, -0.4877811903267509, 0};
Point(p15 + 6) = {26.06642458571666, -0.3724929177224701, 0};
Point(p15 + 7) = {25.91506619461185, -0.2797403763618527, 0};
Point(p15 + 8) = {25.75106158227753, -0.2118074416412328, 0};
Point(p15 + 9) = {25.57844908656946, -0.1703668478699167, 0};
Point(p15 + 10) = {25.401479, -0.156439, 0};
Point(p15 + 11) = {25.22450891343054, -0.1703668478699167, 0};
Point(p15 + 12) = {25.05189641772247, -0.2118074416412326, 0};
Point(p15 + 13) = {24.88789180538814, -0.2797403763618524, 0};
Point(p15 + 14) = {24.73653341428334, -0.3724929177224701, 0};
Point(p15 + 15) = {24.60154819032675, -0.4877811903267507, 0};
Point(p15 + 16) = {24.48625991772247, -0.6227664142833369, 0};
Point(p15 + 17) = {24.39350737636185, -0.7741248053881435, 0};
Point(p15 + 18) = {24.32557444164123, -0.9381294177224699, 0};
Point(p15 + 19) = {24.28413384786991, -1.110741913430543, 0};
Point(p15 + 20) = {24.270206, -1.287712, 0};
Point(p15 + 21) = {24.28413384786991, -1.464682086569457, 0};
Point(p15 + 22) = {24.32557444164123, -1.63729458227753, 0};
Point(p15 + 23) = {24.39350737636185, -1.801299194611856, 0};
Point(p15 + 24) = {24.48625991772247, -1.952657585716663, 0};
Point(p15 + 25) = {24.60154819032675, -2.087642809673249, 0};
Point(p15 + 26) = {24.73653341428334, -2.20293108227753, 0};
Point(p15 + 27) = {24.88789180538814, -2.295683623638147, 0};
Point(p15 + 28) = {25.05189641772247, -2.363616558358767, 0};
Point(p15 + 29) = {25.22450891343054, -2.405057152130083, 0};
Point(p15 + 30) = {25.401479, -2.418985, 0};
Point(p15 + 31) = {25.57844908656946, -2.405057152130083, 0};
Point(p15 + 32) = {25.75106158227753, -2.363616558358768, 0};
Point(p15 + 33) = {25.91506619461185, -2.295683623638148, 0};
Point(p15 + 34) = {26.06642458571666, -2.20293108227753, 0};
Point(p15 + 35) = {26.20140980967325, -2.087642809673249, 0};
Point(p15 + 36) = {26.31669808227753, -1.952657585716663, 0};
Point(p15 + 37) = {26.40945062363815, -1.801299194611857, 0};
Point(p15 + 38) = {26.47738355835877, -1.63729458227753, 0};
Point(p15 + 39) = {26.51882415213008, -1.464682086569457, 0};
Spline(15) = {11, p15 + 1, p15 + 2, p15 + 3, p15 + 4, p15 + 5, p15 + 6, p15 + 7, p15 + 8, p15 + 9, p15 + 10, p15 + 11, p15 + 12, p15 + 13, p15 + 14, p15 + 15, p15 + 16, p15 + 17, p15 + 18, p15 + 19, p15 + 20, p15 + 21, p15 + 22, p15 + 23, p15 + 24, p15 + 25, p15 + 26, p15 + 27, p15 + 28, p15 + 29, p15 + 30, p15 + 31, p15 + 32, p15 + 33, p15 + 34, p15 + 35, p15 + 36, p15 + 37, p15 + 38, p15 + 39, 11};
p16 = newp;
Point(p16 + 1) = {18.54144480726899, 2.852301892993946, 0};
Point(p16 + 2) = {18.52051543424614, 2.93947900563416, 0};
Point(p16 + 3) = {18.48620623155588, 3.022308748083192, 0};
Point(p16 + 4) = {18.43936200563416, 3.098751577185791, 0};
Point(p16 + 5) = {18.38113621679025, 3.166925216790247, 0};
Point(p16 + 6) = {18.31296257718579, 3.22515100563416, 0};
Point(p16 + 7) = {18.23651974808319, 3.271995231555879, 0};
Point(p16 + 8) = {18.15369000563416, 3.306304434246138, 0};
Point(p16 + 9) = {18.06651289299394, 3.327233807268988, 0};
Point(p16 + 10) = {17.977135, 3.334268, 0};
Point(p16 + 11) = {17.88775710700606, 3.327233807268988, 0};
Point(p16 + 12) = {17.80057999436584, 3.306304434246138, 0};
Point(p16 + 13) = {17.71775025191681, 3.271995231555879, 0};
Point(p16 + 14) = {17.64130742281421, 3.22515100563416, 0};
Point(p16 + 15) = {17.57313378320976, 3.166925216790247, 0};
Point(p16 + 16) = {17.51490799436584, 3.098751577185791, 0};
Point(p16 + 17) = {17.46806376844412, 3.022308748083192, 0};
Point(p16 + 18) = {17.43375456575386, 2.93947900563416, 0};
Point(p16 + 19) = {17.41282519273101, 2.852301892993946, 0};
Point(p16 + 20) = {17.405791, 2.762924, 0};
Point(p16 + 21) = {17.41282519273101, 2.673546107006054, 0};
Point(p16 + 22) = {17.43375456575386, 2.58636899436584, 0};
Point(p16 + 23) = {17.46806376844412, 2.503539251916809, 0};
Point(p16 + 24) = {17.51490799436584, 2.427096422814209, 0};
Point(p16 + 25) = {17.57313378320976, 2.358922783209753, 0};
Point(p16 + 26) = {17.64130742281421, 2.30069699436584, 0};
Point(p16 + 27) = {17.71775025191681, 2.253852768444121, 0};
Point(p16 + 28) = {17.80057999436584, 2.219543565753862, 0};
Point(p16 + 29) = {17.88775710700606, 2.198614192731012, 0};
Point(p16 + 30) = {17.977135, 2.19158, 0};
Point(p16 + 31) = {18.06651289299394, 2.198614192731012, 0};
Point(p16 + 32) = {18.15369000563416, 2.219543565753862, 0};
Point(p16 + 33) = {18.23651974808319, 2.253852768444121, 0};
Point(p16 + 34) = {18.31296257718579, 2.30069699436584, 0};
Point(p16 + 35) = {18.38113621679025, 2.358922783209753, 0};
Point(p16 + 36) = {18.43936200563416, 2.427096422814209, 0};
Point(p16 + 37) = {18.48620623155588, 2.503539251916808, 0};
Point(p16 + 38) = {18.52051543424614, 2.58636899436584, 0};
Point(p16 + 39) = {18.54144480726899, 2.673546107006054, 0};
Spline(16) = {12, p16 + 1, p16 + 2, p16 + 3, p16 + 4, p16 + 5, p16 + 6, p16 + 7, p16 + 8, p16 + 9, p16 + 10, p16 + 11, p16 + 12, p16 + 13, p16 + 14, p16 + 15, p16 + 16, p16 + 17, p16 + 18, p16 + 19, p16 + 20, p16 + 21, p16 + 22, p16 + 23, p16 + 24, p16 + 25, p16 + 26, p16 + 27, p16 + 28, p16 + 29, p16 + 30, p16 + 31, p16 + 32, p16 + 33, p16 + 34, p16 + 35, p16 + 36, p16 + 37, p16 + 38, p16 + 39, 12};
Line(17) = {11, 8};
Line(18) = {12, 9};
Curve Loop(1) = {-1, 4, 3, -2};
Plane Surface(1) = {1};
Curve Loop(2) = {-5, 1, 7, -6};
Plane Surface(2) = {2};
Curve Loop(3) = {-2, 7, 9, -8, -10, -11};
Plane Surface(3) = {3};
Curve Loop(4) = {-12, 3, 8, -13};
Plane Surface(4) = {4};
Curve Loop(5) = {-4, 5, 14, -12, -15, -16};
Plane Surface(5) = {5};
Curve Loop(6) = {-6, 14, 13, -9};
Plane Surface(6) = {6};
Curve Loop(7) = {-10, -17, 15, 17};
Surface(7) = {7};
Curve Loop(8) = {-11, -18, 16, 18};
Surface(8) = {8};
Surface Loop(1) = {1, 2, 3, 4, 5, 6, 7, 8};
Volume(1) = {1};
Physical Surface("INFLOW") = {1};
Physical Surface("OUTFLOW") = {6};
Physical Surface("OBSTACLE") = {7, 8};
Physical Surface("WALL_Y") = {2, 4};
Physical Surface("WALL_Z") = {3, 5};
Physical Volume("FLUID") = {1};
