cl__1 = 3.967084;
cl__2 = 0.5687950000000001;
cl__3 = 1.635992;
cl__4 = 0.115471;
cl__5 = 0.080095;
Point(1) = {0.127288, -4.176201, 1, cl__1};
Point(2) = {0.127288, -4.176201, 0, cl__1};
Point(3) = {0.127288, 5.017094000000001, 1, cl__2};
Point(4) = {0.127288, 5.017094000000001, 0, cl__2};
Point(5) = {39.403637, -4.176201, 0, cl__3};
Point(6) = {39.403637, -4.176201, 1, cl__3};
Point(7) = {39.403637, 5.017094000000001, 1, cl__2};
Point(8) = {18.093862, 0.7353239999999996, 1, cl__4};
Point(9) = {36.374772, 1.061963, 1, cl__5};
Point(10) = {39.403637, 5.017094000000001, 0, cl__2};
Point(11) = {18.093862, 0.7353239999999996, 0, cl__4};
Point(12) = {36.374772, 1.061963, 0, cl__5};
Line(1) = {2, 1};
Line(2) = {1, 3};
Line(3) = {4, 3};
Line(4) = {2, 4};
Line(5) = {2, 5};
Line(6) = {5, 6};
Line(7) = {1, 6};
Line(8) = {3, 7};
Line(9) = {6, 7};
p10 = newp;
Point(p10 + 1) = {18.07964565301525, 0.9159598153887448, 1};
Point(p10 + 2) = {18.03734666570511, 1.092147777506718, 1};
Point(p10 + 3) = {17.96800657951945, 1.259549553992253, 1};
Point(p10 + 4) = {17.87333277750672, 1.414043157533633, 1};
Point(p10 + 5) = {17.75565644287679, 1.551824442876793, 1};
Point(p10 + 6) = {17.61787515753363, 1.669500777506718, 1};
Point(p10 + 7) = {17.46338155399225, 1.764174579519453, 1};
Point(p10 + 8) = {17.29597977750672, 1.833514665705112, 1};
Point(p10 + 9) = {17.11979181538874, 1.875813653015249, 1};
Point(p10 + 10) = {16.939156, 1.89003, 1};
Point(p10 + 11) = {16.75852018461126, 1.875813653015249, 1};
Point(p10 + 12) = {16.58233222249328, 1.833514665705112, 1};
Point(p10 + 13) = {16.41493044600775, 1.764174579519453, 1};
Point(p10 + 14) = {16.26043684246637, 1.669500777506718, 1};
Point(p10 + 15) = {16.12265555712321, 1.551824442876794, 1};
Point(p10 + 16) = {16.00497922249328, 1.414043157533633, 1};
Point(p10 + 17) = {15.91030542048055, 1.259549553992253, 1};
Point(p10 + 18) = {15.84096533429489, 1.092147777506718, 1};
Point(p10 + 19) = {15.79866634698475, 0.9159598153887449, 1};
Point(p10 + 20) = {15.78445, 0.7353240000000001, 1};
Point(p10 + 21) = {15.79866634698475, 0.5546881846112552, 1};
Point(p10 + 22) = {15.84096533429489, 0.3785002224932816, 1};
Point(p10 + 23) = {15.91030542048055, 0.2110984460077475, 1};
Point(p10 + 24) = {16.00497922249328, 0.05660484246636766, 1};
Point(p10 + 25) = {16.12265555712321, -0.08117644287679349, 1};
Point(p10 + 26) = {16.26043684246637, -0.1988527775067179, 1};
Point(p10 + 27) = {16.41493044600775, -0.2935265795194534, 1};
Point(p10 + 28) = {16.58233222249328, -0.3628666657051115, 1};
Point(p10 + 29) = {16.75852018461126, -0.4051656530152491, 1};
Point(p10 + 30) = {16.939156, -0.419382, 1};
Point(p10 + 31) = {17.11979181538874, -0.4051656530152491, 1};
Point(p10 + 32) = {17.29597977750672, -0.3628666657051117, 1};
Point(p10 + 33) = {17.46338155399225, -0.2935265795194536, 1};
Point(p10 + 34) = {17.61787515753363, -0.1988527775067183, 1};
Point(p10 + 35) = {17.75565644287679, -0.08117644287679371, 1};
Point(p10 + 36) = {17.87333277750672, 0.05660484246636721, 1};
Point(p10 + 37) = {17.96800657951945, 0.2110984460077466, 1};
Point(p10 + 38) = {18.03734666570511, 0.3785002224932817, 1};
Point(p10 + 39) = {18.07964565301525, 0.5546881846112549, 1};
Spline(10) = {8, p10 + 1, p10 + 2, p10 + 3, p10 + 4, p10 + 5, p10 + 6, p10 + 7, p10 + 8, p10 + 9, p10 + 10, p10 + 11, p10 + 12, p10 + 13, p10 + 14, p10 + 15, p10 + 16, p10 + 17, p10 + 18, p10 + 19, p10 + 20, p10 + 21, p10 + 22, p10 + 23, p10 + 24, p10 + 25, p10 + 26, p10 + 27, p10 + 28, p10 + 29, p10 + 30, p10 + 31, p10 + 32, p10 + 33, p10 + 34, p10 + 35, p10 + 36, p10 + 37, p10 + 38, p10 + 39, 8};
p11 = newp;
Point(p11 + 1) = {36.36491097639968, 1.187259184773973, 1};
Point(p11 + 2) = {36.3355707167266, 1.309470161644614, 1};
Point(p11 + 3) = {36.28747367554868, 1.42558669076639, 1};
Point(p11 + 4) = {36.22180416164461, 1.532749597823656, 1};
Point(p11 + 5) = {36.14017917639136, 1.628320176391365, 1};
Point(p11 + 6) = {36.04460859782365, 1.709945161644614, 1};
Point(p11 + 7) = {35.93744569076639, 1.775614675548673, 1};
Point(p11 + 8) = {35.82132916164461, 1.823711716726603, 1};
Point(p11 + 9) = {35.69911818477397, 1.853051976399676, 1};
Point(p11 + 10) = {35.573822, 1.862913, 1};
Point(p11 + 11) = {35.44852581522603, 1.853051976399676, 1};
Point(p11 + 12) = {35.32631483835539, 1.823711716726603, 1};
Point(p11 + 13) = {35.21019830923361, 1.775614675548673, 1};
Point(p11 + 14) = {35.10303540217635, 1.709945161644614, 1};
Point(p11 + 15) = {35.00746482360864, 1.628320176391365, 1};
Point(p11 + 16) = {34.92583983835539, 1.532749597823656, 1};
Point(p11 + 17) = {34.86017032445132, 1.42558669076639, 1};
Point(p11 + 18) = {34.8120732832734, 1.309470161644614, 1};
Point(p11 + 19) = {34.78273302360032, 1.187259184773973, 1};
Point(p11 + 20) = {34.772872, 1.061963, 1};
Point(p11 + 21) = {34.78273302360032, 0.9366668152260271, 1};
Point(p11 + 22) = {34.8120732832734, 0.8144558383553856, 1};
Point(p11 + 23) = {34.86017032445132, 0.6983393092336103, 1};
Point(p11 + 24) = {34.92583983835539, 0.5911764021763437, 1};
Point(p11 + 25) = {35.00746482360864, 0.4956058236086348, 1};
Point(p11 + 26) = {35.10303540217635, 0.4139808383553859, 1};
Point(p11 + 27) = {35.21019830923361, 0.3483113244513267, 1};
Point(p11 + 28) = {35.32631483835539, 0.3002142832733967, 1};
Point(p11 + 29) = {35.44852581522603, 0.2708740236003244, 1};
Point(p11 + 30) = {35.573822, 0.2610129999999999, 1};
Point(p11 + 31) = {35.69911818477397, 0.2708740236003243, 1};
Point(p11 + 32) = {35.82132916164461, 0.3002142832733966, 1};
Point(p11 + 33) = {35.93744569076639, 0.3483113244513267, 1};
Point(p11 + 34) = {36.04460859782365, 0.4139808383553857, 1};
Point(p11 + 35) = {36.14017917639136, 0.4956058236086346, 1};
Point(p11 + 36) = {36.22180416164461, 0.5911764021763435, 1};
Point(p11 + 37) = {36.28747367554868, 0.6983393092336099, 1};
Point(p11 + 38) = {36.3355707167266, 0.8144558383553857, 1};
Point(p11 + 39) = {36.36491097639968, 0.9366668152260269, 1};
Spline(11) = {9, p11 + 1, p11 + 2, p11 + 3, p11 + 4, p11 + 5, p11 + 6, p11 + 7, p11 + 8, p11 + 9, p11 + 10, p11 + 11, p11 + 12, p11 + 13, p11 + 14, p11 + 15, p11 + 16, p11 + 17, p11 + 18, p11 + 19, p11 + 20, p11 + 21, p11 + 22, p11 + 23, p11 + 24, p11 + 25, p11 + 26, p11 + 27, p11 + 28, p11 + 29, p11 + 30, p11 + 31, p11 + 32, p11 + 33, p11 + 34, p11 + 35, p11 + 36, p11 + 37, p11 + 38, p11 + 39, 9};
Line(12) = {4, 10};
Line(13) = {10, 7};
Line(14) = {5, 10};
p15 = newp;
Point(p15 + 1) = {18.07964565301525, 0.9159598153887448, 0};
Point(p15 + 2) = {18.03734666570511, 1.092147777506718, 0};
Point(p15 + 3) = {17.96800657951945, 1.259549553992253, 0};
Point(p15 + 4) = {17.87333277750672, 1.414043157533633, 0};
Point(p15 + 5) = {17.75565644287679, 1.551824442876793, 0};
Point(p15 + 6) = {17.61787515753363, 1.669500777506718, 0};
Point(p15 + 7) = {17.46338155399225, 1.764174579519453, 0};
Point(p15 + 8) = {17.29597977750672, 1.833514665705112, 0};
Point(p15 + 9) = {17.11979181538874, 1.875813653015249, 0};
Point(p15 + 10) = {16.939156, 1.89003, 0};
Point(p15 + 11) = {16.75852018461126, 1.875813653015249, 0};
Point(p15 + 12) = {16.58233222249328, 1.833514665705112, 0};
Point(p15 + 13) = {16.41493044600775, 1.764174579519453, 0};
Point(p15 + 14) = {16.26043684246637, 1.669500777506718, 0};
Point(p15 + 15) = {16.12265555712321, 1.551824442876794, 0};
Point(p15 + 16) = {16.00497922249328, 1.414043157533633, 0};
Point(p15 + 17) = {15.91030542048055, 1.259549553992253, 0};
Point(p15 + 18) = {15.84096533429489, 1.092147777506718, 0};
Point(p15 + 19) = {15.79866634698475, 0.9159598153887449, 0};
Point(p15 + 20) = {15.78445, 0.7353240000000001, 0};
Point(p15 + 21) = {15.79866634698475, 0.5546881846112552, 0};
Point(p15 + 22) = {15.84096533429489, 0.3785002224932816, 0};
Point(p15 + 23) = {15.91030542048055, 0.2110984460077475, 0};
Point(p15 + 24) = {16.00497922249328, 0.05660484246636766, 0};
Point(p15 + 25) = {16.12265555712321, -0.08117644287679349, 0};
Point(p15 + 26) = {16.26043684246637, -0.1988527775067179, 0};
Point(p15 + 27) = {16.41493044600775, -0.2935265795194534, 0};
Point(p15 + 28) = {16.58233222249328, -0.3628666657051115, 0};
Point(p15 + 29) = {16.75852018461126, -0.4051656530152491, 0};
Point(p15 + 30) = {16.939156, -0.419382, 0};
Point(p15 + 31) = {17.11979181538874, -0.4051656530152491, 0};
Point(p15 + 32) = {17.29597977750672, -0.3628666657051117, 0};
Point(p15 + 33) = {17.46338155399225, -0.2935265795194536, 0};
Point(p15 + 34) = {17.61787515753363, -0.1988527775067183, 0};
Point(p15 + 35) = {17.75565644287679, -0.08117644287679371, 0};
Point(p15 + 36) = {17.87333277750672, 0.05660484246636721, 0};
Point(p15 + 37) = {17.96800657951945, 0.2110984460077466, 0};
Point(p15 + 38) = {18.03734666570511, 0.3785002224932817, 0};
Point(p15 + 39) = {18.07964565301525, 0.5546881846112549, 0};
Spline(15) = {11, p15 + 1, p15 + 2, p15 + 3, p15 + 4, p15 + 5, p15 + 6, p15 + 7, p15 + 8, p15 + 9, p15 + 10, p15 + 11, p15 + 12, p15 + 13, p15 + 14, p15 + 15, p15 + 16, p15 + 17, p15 + 18, p15 + 19, p15 + 20, p15 + 21, p15 + 22, p15 + 23, p15 + 24, p15 + 25, p15 + 26, p15 + 27, p15 + 28, p15 + 29, p15 + 30, p15 + 31, p15 + 32, p15 + 33, p15 + 34, p15 + 35, p15 + 36, p15 + 37, p15 + 38, p15 + 39, 11};
p16 = newp;
Point(p16 + 1) = {36.36491097639968, 1.187259184773973, 0};
Point(p16 + 2) = {36.3355707167266, 1.309470161644614, 0};
Point(p16 + 3) = {36.28747367554868, 1.42558669076639, 0};
Point(p16 + 4) = {36.22180416164461, 1.532749597823656, 0};
Point(p16 + 5) = {36.14017917639136, 1.628320176391365, 0};
Point(p16 + 6) = {36.04460859782365, 1.709945161644614, 0};
Point(p16 + 7) = {35.93744569076639, 1.775614675548673, 0};
Point(p16 + 8) = {35.82132916164461, 1.823711716726603, 0};
Point(p16 + 9) = {35.69911818477397, 1.853051976399676, 0};
Point(p16 + 10) = {35.573822, 1.862913, 0};
Point(p16 + 11) = {35.44852581522603, 1.853051976399676, 0};
Point(p16 + 12) = {35.32631483835539, 1.823711716726603, 0};
Point(p16 + 13) = {35.21019830923361, 1.775614675548673, 0};
Point(p16 + 14) = {35.10303540217635, 1.709945161644614, 0};
Point(p16 + 15) = {35.00746482360864, 1.628320176391365, 0};
Point(p16 + 16) = {34.92583983835539, 1.532749597823656, 0};
Point(p16 + 17) = {34.86017032445132, 1.42558669076639, 0};
Point(p16 + 18) = {34.8120732832734, 1.309470161644614, 0};
Point(p16 + 19) = {34.78273302360032, 1.187259184773973, 0};
Point(p16 + 20) = {34.772872, 1.061963, 0};
Point(p16 + 21) = {34.78273302360032, 0.9366668152260271, 0};
Point(p16 + 22) = {34.8120732832734, 0.8144558383553856, 0};
Point(p16 + 23) = {34.86017032445132, 0.6983393092336103, 0};
Point(p16 + 24) = {34.92583983835539, 0.5911764021763437, 0};
Point(p16 + 25) = {35.00746482360864, 0.4956058236086348, 0};
Point(p16 + 26) = {35.10303540217635, 0.4139808383553859, 0};
Point(p16 + 27) = {35.21019830923361, 0.3483113244513267, 0};
Point(p16 + 28) = {35.32631483835539, 0.3002142832733967, 0};
Point(p16 + 29) = {35.44852581522603, 0.2708740236003244, 0};
Point(p16 + 30) = {35.573822, 0.2610129999999999, 0};
Point(p16 + 31) = {35.69911818477397, 0.2708740236003243, 0};
Point(p16 + 32) = {35.82132916164461, 0.3002142832733966, 0};
Point(p16 + 33) = {35.93744569076639, 0.3483113244513267, 0};
Point(p16 + 34) = {36.04460859782365, 0.4139808383553857, 0};
Point(p16 + 35) = {36.14017917639136, 0.4956058236086346, 0};
Point(p16 + 36) = {36.22180416164461, 0.5911764021763435, 0};
Point(p16 + 37) = {36.28747367554868, 0.6983393092336099, 0};
Point(p16 + 38) = {36.3355707167266, 0.8144558383553857, 0};
Point(p16 + 39) = {36.36491097639968, 0.9366668152260269, 0};
Spline(16) = {12, p16 + 1, p16 + 2, p16 + 3, p16 + 4, p16 + 5, p16 + 6, p16 + 7, p16 + 8, p16 + 9, p16 + 10, p16 + 11, p16 + 12, p16 + 13, p16 + 14, p16 + 15, p16 + 16, p16 + 17, p16 + 18, p16 + 19, p16 + 20, p16 + 21, p16 + 22, p16 + 23, p16 + 24, p16 + 25, p16 + 26, p16 + 27, p16 + 28, p16 + 29, p16 + 30, p16 + 31, p16 + 32, p16 + 33, p16 + 34, p16 + 35, p16 + 36, p16 + 37, p16 + 38, p16 + 39, 12};
Line(17) = {11, 8};
Line(18) = {12, 9};
Curve Loop(1) = {-1, 4, 3, -2};
Plane Surface(1) = {1};
Curve Loop(2) = {-5, 1, 7, -6};
Plane Surface(2) = {2};
Curve Loop(3) = {-2, 7, 9, -8, -10, -11};
Plane Surface(3) = {3};
Curve Loop(4) = {-12, 3, 8, -13};
Plane Surface(4) = {4};
Curve Loop(5) = {-4, 5, 14, -12, -15, -16};
Plane Surface(5) = {5};
Curve Loop(6) = {-6, 14, 13, -9};
Plane Surface(6) = {6};
Curve Loop(7) = {-10, -17, 15, 17};
Surface(7) = {7};
Curve Loop(8) = {-11, -18, 16, 18};
Surface(8) = {8};
Surface Loop(1) = {1, 2, 3, 4, 5, 6, 7, 8};
Volume(1) = {1};
Physical Surface("INFLOW") = {1};
Physical Surface("OUTFLOW") = {6};
Physical Surface("OBSTACLE") = {7, 8};
Physical Surface("WALL_Y") = {2, 4};
Physical Surface("WALL_Z") = {3, 5};
Physical Volume("FLUID") = {1};
