cl__1 = 1.896538;
cl__2 = 1.576287;
cl__3 = 3.857126;
cl__4 = 0.125649;
cl__5 = 0.09764399999999999;
Point(1) = {0.131287, -3.725296, 1, cl__1};
Point(2) = {0.131287, -3.725296, 0, cl__1};
Point(3) = {0.131287, 5.056336999999999, 1, cl__2};
Point(4) = {0.131287, 5.056336999999999, 0, cl__2};
Point(5) = {38.320529, -3.725296, 0, cl__1};
Point(6) = {38.320529, -3.725296, 1, cl__1};
Point(7) = {38.320529, 5.056336999999999, 1, cl__3};
Point(8) = {22.833136, -0.6755660000000002, 1, cl__4};
Point(9) = {19.739054, 3.384555999999999, 1, cl__5};
Point(10) = {38.320529, 5.056336999999999, 0, cl__3};
Point(11) = {22.833136, -0.6755660000000002, 0, cl__4};
Point(12) = {19.739054, 3.384555999999999, 0, cl__5};
Line(1) = {2, 1};
Line(2) = {1, 3};
Line(3) = {4, 3};
Line(4) = {2, 4};
Line(5) = {2, 5};
Line(6) = {5, 6};
Line(7) = {1, 6};
Line(8) = {3, 7};
Line(9) = {6, 7};
p10 = newp;
Point(p10 + 1) = {22.81766651076272, -0.4790075025871353, 1};
Point(p10 + 2) = {22.77163895321621, -0.287288927720828, 1};
Point(p10 + 3) = {22.69618667858397, -0.1051310229917571, 1};
Point(p10 + 4) = {22.59316757227917, 0.06298087943822184, 1};
Point(p10 + 5) = {22.46511830659987, 0.2129073065998662, 1};
Point(p10 + 6) = {22.31519187943822, 0.3409565722791722, 1};
Point(p10 + 7) = {22.14707997700824, 0.4439756785839665, 1};
Point(p10 + 8) = {21.96492207227917, 0.5194279532162137, 1};
Point(p10 + 9) = {21.77320349741287, 0.5654555107627254, 1};
Point(p10 + 10) = {21.576645, 0.580925, 1};
Point(p10 + 11) = {21.38008650258713, 0.5654555107627252, 1};
Point(p10 + 12) = {21.18836792772083, 0.5194279532162139, 1};
Point(p10 + 13) = {21.00621002299176, 0.4439756785839667, 1};
Point(p10 + 14) = {20.83809812056178, 0.3409565722791722, 1};
Point(p10 + 15) = {20.68817169340013, 0.2129073065998663, 1};
Point(p10 + 16) = {20.56012242772083, 0.06298087943822206, 1};
Point(p10 + 17) = {20.45710332141603, -0.105131022991757, 1};
Point(p10 + 18) = {20.38165104678379, -0.2872889277208278, 1};
Point(p10 + 19) = {20.33562348923727, -0.4790075025871351, 1};
Point(p10 + 20) = {20.320154, -0.6755659999999999, 1};
Point(p10 + 21) = {20.33562348923727, -0.8721244974128646, 1};
Point(p10 + 22) = {20.38165104678379, -1.063843072279173, 1};
Point(p10 + 23) = {20.45710332141603, -1.246000977008242, 1};
Point(p10 + 24) = {20.56012242772083, -1.414112879438222, 1};
Point(p10 + 25) = {20.68817169340013, -1.564039306599866, 1};
Point(p10 + 26) = {20.83809812056178, -1.692088572279172, 1};
Point(p10 + 27) = {21.00621002299176, -1.795107678583967, 1};
Point(p10 + 28) = {21.18836792772083, -1.870559953216214, 1};
Point(p10 + 29) = {21.38008650258713, -1.916587510762725, 1};
Point(p10 + 30) = {21.576645, -1.932057, 1};
Point(p10 + 31) = {21.77320349741287, -1.916587510762725, 1};
Point(p10 + 32) = {21.96492207227917, -1.870559953216214, 1};
Point(p10 + 33) = {22.14707997700824, -1.795107678583967, 1};
Point(p10 + 34) = {22.31519187943822, -1.692088572279172, 1};
Point(p10 + 35) = {22.46511830659987, -1.564039306599867, 1};
Point(p10 + 36) = {22.59316757227917, -1.414112879438222, 1};
Point(p10 + 37) = {22.69618667858397, -1.246000977008243, 1};
Point(p10 + 38) = {22.77163895321621, -1.063843072279172, 1};
Point(p10 + 39) = {22.81766651076272, -0.872124497412865, 1};
Spline(10) = {8, p10 + 1, p10 + 2, p10 + 3, p10 + 4, p10 + 5, p10 + 6, p10 + 7, p10 + 8, p10 + 9, p10 + 10, p10 + 11, p10 + 12, p10 + 13, p10 + 14, p10 + 15, p10 + 16, p10 + 17, p10 + 18, p10 + 19, p10 + 20, p10 + 21, p10 + 22, p10 + 23, p10 + 24, p10 + 25, p10 + 26, p10 + 27, p10 + 28, p10 + 29, p10 + 30, p10 + 31, p10 + 32, p10 + 33, p10 + 34, p10 + 35, p10 + 36, p10 + 37, p10 + 38, p10 + 39, 8};
p11 = newp;
Point(p11 + 1) = {19.72703240329071, 3.537304869043883, 1};
Point(p11 + 2) = {19.69126362477124, 3.686292553987474, 1};
Point(p11 + 3) = {19.63262841047849, 3.827850483565683, 1};
Point(p11 + 4) = {19.55257055398747, 3.958493031748462, 1};
Point(p11 + 5) = {19.45306134542179, 4.075003345421792, 1};
Point(p11 + 6) = {19.33655103174846, 4.174512553987474, 1};
Point(p11 + 7) = {19.20590848356568, 4.25457041047849, 1};
Point(p11 + 8) = {19.06435055398747, 4.313205624771239, 1};
Point(p11 + 9) = {18.91536286904388, 4.348974403290716, 1};
Point(p11 + 10) = {18.762614, 4.360996, 1};
Point(p11 + 11) = {18.60986513095612, 4.348974403290716, 1};
Point(p11 + 12) = {18.46087744601252, 4.31320562477124, 1};
Point(p11 + 13) = {18.31931951643432, 4.25457041047849, 1};
Point(p11 + 14) = {18.18867696825154, 4.174512553987474, 1};
Point(p11 + 15) = {18.07216665457821, 4.075003345421792, 1};
Point(p11 + 16) = {17.97265744601253, 3.958493031748462, 1};
Point(p11 + 17) = {17.89259958952151, 3.827850483565683, 1};
Point(p11 + 18) = {17.83396437522876, 3.686292553987474, 1};
Point(p11 + 19) = {17.79819559670928, 3.537304869043883, 1};
Point(p11 + 20) = {17.786174, 3.384556, 1};
Point(p11 + 21) = {17.79819559670928, 3.231807130956117, 1};
Point(p11 + 22) = {17.83396437522876, 3.082819446012526, 1};
Point(p11 + 23) = {17.89259958952151, 2.941261516434317, 1};
Point(p11 + 24) = {17.97265744601253, 2.810618968251537, 1};
Point(p11 + 25) = {18.07216665457821, 2.694108654578208, 1};
Point(p11 + 26) = {18.18867696825154, 2.594599446012526, 1};
Point(p11 + 27) = {18.31931951643432, 2.51454158952151, 1};
Point(p11 + 28) = {18.46087744601252, 2.45590637522876, 1};
Point(p11 + 29) = {18.60986513095612, 2.420137596709284, 1};
Point(p11 + 30) = {18.762614, 2.408116, 1};
Point(p11 + 31) = {18.91536286904388, 2.420137596709284, 1};
Point(p11 + 32) = {19.06435055398747, 2.45590637522876, 1};
Point(p11 + 33) = {19.20590848356568, 2.51454158952151, 1};
Point(p11 + 34) = {19.33655103174846, 2.594599446012526, 1};
Point(p11 + 35) = {19.45306134542179, 2.694108654578207, 1};
Point(p11 + 36) = {19.55257055398747, 2.810618968251537, 1};
Point(p11 + 37) = {19.63262841047849, 2.941261516434317, 1};
Point(p11 + 38) = {19.69126362477124, 3.082819446012526, 1};
Point(p11 + 39) = {19.72703240329071, 3.231807130956116, 1};
Spline(11) = {9, p11 + 1, p11 + 2, p11 + 3, p11 + 4, p11 + 5, p11 + 6, p11 + 7, p11 + 8, p11 + 9, p11 + 10, p11 + 11, p11 + 12, p11 + 13, p11 + 14, p11 + 15, p11 + 16, p11 + 17, p11 + 18, p11 + 19, p11 + 20, p11 + 21, p11 + 22, p11 + 23, p11 + 24, p11 + 25, p11 + 26, p11 + 27, p11 + 28, p11 + 29, p11 + 30, p11 + 31, p11 + 32, p11 + 33, p11 + 34, p11 + 35, p11 + 36, p11 + 37, p11 + 38, p11 + 39, 9};
Line(12) = {4, 10};
Line(13) = {10, 7};
Line(14) = {5, 10};
p15 = newp;
Point(p15 + 1) = {22.81766651076272, -0.4790075025871353, 0};
Point(p15 + 2) = {22.77163895321621, -0.287288927720828, 0};
Point(p15 + 3) = {22.69618667858397, -0.1051310229917571, 0};
Point(p15 + 4) = {22.59316757227917, 0.06298087943822184, 0};
Point(p15 + 5) = {22.46511830659987, 0.2129073065998662, 0};
Point(p15 + 6) = {22.31519187943822, 0.3409565722791722, 0};
Point(p15 + 7) = {22.14707997700824, 0.4439756785839665, 0};
Point(p15 + 8) = {21.96492207227917, 0.5194279532162137, 0};
Point(p15 + 9) = {21.77320349741287, 0.5654555107627254, 0};
Point(p15 + 10) = {21.576645, 0.580925, 0};
Point(p15 + 11) = {21.38008650258713, 0.5654555107627252, 0};
Point(p15 + 12) = {21.18836792772083, 0.5194279532162139, 0};
Point(p15 + 13) = {21.00621002299176, 0.4439756785839667, 0};
Point(p15 + 14) = {20.83809812056178, 0.3409565722791722, 0};
Point(p15 + 15) = {20.68817169340013, 0.2129073065998663, 0};
Point(p15 + 16) = {20.56012242772083, 0.06298087943822206, 0};
Point(p15 + 17) = {20.45710332141603, -0.105131022991757, 0};
Point(p15 + 18) = {20.38165104678379, -0.2872889277208278, 0};
Point(p15 + 19) = {20.33562348923727, -0.4790075025871351, 0};
Point(p15 + 20) = {20.320154, -0.6755659999999999, 0};
Point(p15 + 21) = {20.33562348923727, -0.8721244974128646, 0};
Point(p15 + 22) = {20.38165104678379, -1.063843072279173, 0};
Point(p15 + 23) = {20.45710332141603, -1.246000977008242, 0};
Point(p15 + 24) = {20.56012242772083, -1.414112879438222, 0};
Point(p15 + 25) = {20.68817169340013, -1.564039306599866, 0};
Point(p15 + 26) = {20.83809812056178, -1.692088572279172, 0};
Point(p15 + 27) = {21.00621002299176, -1.795107678583967, 0};
Point(p15 + 28) = {21.18836792772083, -1.870559953216214, 0};
Point(p15 + 29) = {21.38008650258713, -1.916587510762725, 0};
Point(p15 + 30) = {21.576645, -1.932057, 0};
Point(p15 + 31) = {21.77320349741287, -1.916587510762725, 0};
Point(p15 + 32) = {21.96492207227917, -1.870559953216214, 0};
Point(p15 + 33) = {22.14707997700824, -1.795107678583967, 0};
Point(p15 + 34) = {22.31519187943822, -1.692088572279172, 0};
Point(p15 + 35) = {22.46511830659987, -1.564039306599867, 0};
Point(p15 + 36) = {22.59316757227917, -1.414112879438222, 0};
Point(p15 + 37) = {22.69618667858397, -1.246000977008243, 0};
Point(p15 + 38) = {22.77163895321621, -1.063843072279172, 0};
Point(p15 + 39) = {22.81766651076272, -0.872124497412865, 0};
Spline(15) = {11, p15 + 1, p15 + 2, p15 + 3, p15 + 4, p15 + 5, p15 + 6, p15 + 7, p15 + 8, p15 + 9, p15 + 10, p15 + 11, p15 + 12, p15 + 13, p15 + 14, p15 + 15, p15 + 16, p15 + 17, p15 + 18, p15 + 19, p15 + 20, p15 + 21, p15 + 22, p15 + 23, p15 + 24, p15 + 25, p15 + 26, p15 + 27, p15 + 28, p15 + 29, p15 + 30, p15 + 31, p15 + 32, p15 + 33, p15 + 34, p15 + 35, p15 + 36, p15 + 37, p15 + 38, p15 + 39, 11};
p16 = newp;
Point(p16 + 1) = {19.72703240329071, 3.537304869043883, 0};
Point(p16 + 2) = {19.69126362477124, 3.686292553987474, 0};
Point(p16 + 3) = {19.63262841047849, 3.827850483565683, 0};
Point(p16 + 4) = {19.55257055398747, 3.958493031748462, 0};
Point(p16 + 5) = {19.45306134542179, 4.075003345421792, 0};
Point(p16 + 6) = {19.33655103174846, 4.174512553987474, 0};
Point(p16 + 7) = {19.20590848356568, 4.25457041047849, 0};
Point(p16 + 8) = {19.06435055398747, 4.313205624771239, 0};
Point(p16 + 9) = {18.91536286904388, 4.348974403290716, 0};
Point(p16 + 10) = {18.762614, 4.360996, 0};
Point(p16 + 11) = {18.60986513095612, 4.348974403290716, 0};
Point(p16 + 12) = {18.46087744601252, 4.31320562477124, 0};
Point(p16 + 13) = {18.31931951643432, 4.25457041047849, 0};
Point(p16 + 14) = {18.18867696825154, 4.174512553987474, 0};
Point(p16 + 15) = {18.07216665457821, 4.075003345421792, 0};
Point(p16 + 16) = {17.97265744601253, 3.958493031748462, 0};
Point(p16 + 17) = {17.89259958952151, 3.827850483565683, 0};
Point(p16 + 18) = {17.83396437522876, 3.686292553987474, 0};
Point(p16 + 19) = {17.79819559670928, 3.537304869043883, 0};
Point(p16 + 20) = {17.786174, 3.384556, 0};
Point(p16 + 21) = {17.79819559670928, 3.231807130956117, 0};
Point(p16 + 22) = {17.83396437522876, 3.082819446012526, 0};
Point(p16 + 23) = {17.89259958952151, 2.941261516434317, 0};
Point(p16 + 24) = {17.97265744601253, 2.810618968251537, 0};
Point(p16 + 25) = {18.07216665457821, 2.694108654578208, 0};
Point(p16 + 26) = {18.18867696825154, 2.594599446012526, 0};
Point(p16 + 27) = {18.31931951643432, 2.51454158952151, 0};
Point(p16 + 28) = {18.46087744601252, 2.45590637522876, 0};
Point(p16 + 29) = {18.60986513095612, 2.420137596709284, 0};
Point(p16 + 30) = {18.762614, 2.408116, 0};
Point(p16 + 31) = {18.91536286904388, 2.420137596709284, 0};
Point(p16 + 32) = {19.06435055398747, 2.45590637522876, 0};
Point(p16 + 33) = {19.20590848356568, 2.51454158952151, 0};
Point(p16 + 34) = {19.33655103174846, 2.594599446012526, 0};
Point(p16 + 35) = {19.45306134542179, 2.694108654578207, 0};
Point(p16 + 36) = {19.55257055398747, 2.810618968251537, 0};
Point(p16 + 37) = {19.63262841047849, 2.941261516434317, 0};
Point(p16 + 38) = {19.69126362477124, 3.082819446012526, 0};
Point(p16 + 39) = {19.72703240329071, 3.231807130956116, 0};
Spline(16) = {12, p16 + 1, p16 + 2, p16 + 3, p16 + 4, p16 + 5, p16 + 6, p16 + 7, p16 + 8, p16 + 9, p16 + 10, p16 + 11, p16 + 12, p16 + 13, p16 + 14, p16 + 15, p16 + 16, p16 + 17, p16 + 18, p16 + 19, p16 + 20, p16 + 21, p16 + 22, p16 + 23, p16 + 24, p16 + 25, p16 + 26, p16 + 27, p16 + 28, p16 + 29, p16 + 30, p16 + 31, p16 + 32, p16 + 33, p16 + 34, p16 + 35, p16 + 36, p16 + 37, p16 + 38, p16 + 39, 12};
Line(17) = {11, 8};
Line(18) = {12, 9};
Curve Loop(1) = {-1, 4, 3, -2};
Plane Surface(1) = {1};
Curve Loop(2) = {-5, 1, 7, -6};
Plane Surface(2) = {2};
Curve Loop(3) = {-2, 7, 9, -8, -10, -11};
Plane Surface(3) = {3};
Curve Loop(4) = {-12, 3, 8, -13};
Plane Surface(4) = {4};
Curve Loop(5) = {-4, 5, 14, -12, -15, -16};
Plane Surface(5) = {5};
Curve Loop(6) = {-6, 14, 13, -9};
Plane Surface(6) = {6};
Curve Loop(7) = {-10, -17, 15, 17};
Surface(7) = {7};
Curve Loop(8) = {-11, -18, 16, 18};
Surface(8) = {8};
Surface Loop(1) = {1, 2, 3, 4, 5, 6, 7, 8};
Volume(1) = {1};
Physical Surface("INFLOW") = {1};
Physical Surface("OUTFLOW") = {6};
Physical Surface("OBSTACLE") = {7, 8};
Physical Surface("WALL_Y") = {2, 4};
Physical Surface("WALL_Z") = {3, 5};
Physical Volume("FLUID") = {1};
