cl__1 = 0.492963;
cl__2 = 1.711419;
cl__3 = 3.839988;
cl__4 = 0.109223;
cl__5 = 0.10501;
Point(1) = {0.242424, -3.865114, 1, cl__1};
Point(2) = {0.242424, -3.865114, 0, cl__1};
Point(3) = {0.242424, 4.617224, 1, cl__2};
Point(4) = {0.242424, 4.617224, 0, cl__2};
Point(5) = {38.164945, -3.865114, 0, cl__1};
Point(6) = {38.164945, -3.865114, 1, cl__1};
Point(7) = {38.164945, 4.617224, 1, cl__3};
Point(8) = {5.438750000000001, 0.5416019999999998, 1, cl__4};
Point(9) = {21.874003, 1.541348, 1, cl__5};
Point(10) = {38.164945, 4.617224, 0, cl__3};
Point(11) = {5.438750000000001, 0.5416019999999998, 0, cl__4};
Point(12) = {21.874003, 1.541348, 0, cl__5};
Line(1) = {2, 1};
Line(2) = {1, 3};
Line(3) = {4, 3};
Line(4) = {2, 4};
Line(5) = {2, 5};
Line(6) = {5, 6};
Line(7) = {1, 6};
Line(8) = {3, 7};
Line(9) = {6, 7};
p10 = newp;
Point(p10 + 1) = {5.425302873183206, 0.7124639464474962, 1};
Point(p10 + 2) = {5.385292605623507, 0.8791187047151657, 1};
Point(p10 + 3) = {5.319704382894689, 1.037462681559026, 1};
Point(p10 + 4) = {5.230153204715166, 1.183596922755651, 1};
Point(p10 + 5) = {5.11884411829504, 1.313923118295039, 1};
Point(p10 + 6) = {4.988517922755651, 1.425232204715166, 1};
Point(p10 + 7) = {4.842383681559026, 1.514783382894688, 1};
Point(p10 + 8) = {4.684039704715167, 1.580371605623507, 1};
Point(p10 + 9) = {4.517384946447496, 1.620381873183206, 1};
Point(p10 + 10) = {4.346523, 1.633829, 1};
Point(p10 + 11) = {4.175661053552504, 1.620381873183205, 1};
Point(p10 + 12) = {4.009006295284835, 1.580371605623507, 1};
Point(p10 + 13) = {3.850662318440974, 1.514783382894689, 1};
Point(p10 + 14) = {3.704528077244349, 1.425232204715166, 1};
Point(p10 + 15) = {3.574201881704961, 1.313923118295039, 1};
Point(p10 + 16) = {3.462892795284835, 1.183596922755651, 1};
Point(p10 + 17) = {3.373341617105312, 1.037462681559026, 1};
Point(p10 + 18) = {3.307753394376494, 0.8791187047151658, 1};
Point(p10 + 19) = {3.267743126816795, 0.7124639464474964, 1};
Point(p10 + 20) = {3.254296, 0.5416020000000001, 1};
Point(p10 + 21) = {3.267743126816795, 0.3707400535525039, 1};
Point(p10 + 22) = {3.307753394376494, 0.204085295284834, 1};
Point(p10 + 23) = {3.373341617105312, 0.04574131844097462, 1};
Point(p10 + 24) = {3.462892795284835, -0.1003929227556509, 1};
Point(p10 + 25) = {3.574201881704961, -0.2307191182950392, 1};
Point(p10 + 26) = {3.704528077244349, -0.3420282047151656, 1};
Point(p10 + 27) = {3.850662318440974, -0.4315793828946884, 1};
Point(p10 + 28) = {4.009006295284834, -0.4971676056235067, 1};
Point(p10 + 29) = {4.175661053552504, -0.5371778731832054, 1};
Point(p10 + 30) = {4.346523, -0.550625, 1};
Point(p10 + 31) = {4.517384946447496, -0.5371778731832056, 1};
Point(p10 + 32) = {4.684039704715166, -0.4971676056235067, 1};
Point(p10 + 33) = {4.842383681559026, -0.4315793828946886, 1};
Point(p10 + 34) = {4.988517922755651, -0.3420282047151658, 1};
Point(p10 + 35) = {5.11884411829504, -0.2307191182950394, 1};
Point(p10 + 36) = {5.230153204715166, -0.1003929227556513, 1};
Point(p10 + 37) = {5.319704382894689, 0.04574131844097384, 1};
Point(p10 + 38) = {5.385292605623507, 0.2040852952848341, 1};
Point(p10 + 39) = {5.425302873183206, 0.3707400535525035, 1};
Spline(10) = {8, p10 + 1, p10 + 2, p10 + 3, p10 + 4, p10 + 5, p10 + 6, p10 + 7, p10 + 8, p10 + 9, p10 + 10, p10 + 11, p10 + 12, p10 + 13, p10 + 14, p10 + 15, p10 + 16, p10 + 17, p10 + 18, p10 + 19, p10 + 20, p10 + 21, p10 + 22, p10 + 23, p10 + 24, p10 + 25, p10 + 26, p10 + 27, p10 + 28, p10 + 29, p10 + 30, p10 + 31, p10 + 32, p10 + 33, p10 + 34, p10 + 35, p10 + 36, p10 + 37, p10 + 38, p10 + 39, 8};
p11 = newp;
Point(p11 + 1) = {21.86107453877061, 1.705619675304281, 1};
Point(p11 + 2) = {21.82260749670502, 1.865846436776138, 1};
Point(p11 + 3) = {21.75954906004368, 2.018082969785998, 1};
Point(p11 + 4) = {21.67345193677614, 2.158580705647074, 1};
Point(p11 + 5) = {21.56643612381721, 2.283880123817212, 1};
Point(p11 + 6) = {21.44113670564707, 2.390895936776138, 1};
Point(p11 + 7) = {21.300638969786, 2.47699306004368, 1};
Point(p11 + 8) = {21.14840243677614, 2.540051496705024, 1};
Point(p11 + 9) = {20.98817567530428, 2.578518538770613, 1};
Point(p11 + 10) = {20.823904, 2.591447, 1};
Point(p11 + 11) = {20.65963232469572, 2.578518538770613, 1};
Point(p11 + 12) = {20.49940556322386, 2.540051496705024, 1};
Point(p11 + 13) = {20.347169030214, 2.476993060043681, 1};
Point(p11 + 14) = {20.20667129435293, 2.390895936776138, 1};
Point(p11 + 15) = {20.08137187618279, 2.283880123817212, 1};
Point(p11 + 16) = {19.97435606322386, 2.158580705647074, 1};
Point(p11 + 17) = {19.88825893995632, 2.018082969785998, 1};
Point(p11 + 18) = {19.82520050329498, 1.865846436776138, 1};
Point(p11 + 19) = {19.78673346122939, 1.705619675304281, 1};
Point(p11 + 20) = {19.773805, 1.541348, 1};
Point(p11 + 21) = {19.78673346122939, 1.377076324695719, 1};
Point(p11 + 22) = {19.82520050329498, 1.216849563223862, 1};
Point(p11 + 23) = {19.88825893995632, 1.064613030214002, 1};
Point(p11 + 24) = {19.97435606322386, 0.9241152943529264, 1};
Point(p11 + 25) = {20.08137187618279, 0.7988158761827877, 1};
Point(p11 + 26) = {20.20667129435293, 0.6918000632238622, 1};
Point(p11 + 27) = {20.347169030214, 0.6057029399563192, 1};
Point(p11 + 28) = {20.49940556322386, 0.5426445032949756, 1};
Point(p11 + 29) = {20.65963232469572, 0.5041774612293866, 1};
Point(p11 + 30) = {20.823904, 0.491249, 1};
Point(p11 + 31) = {20.98817567530428, 0.5041774612293866, 1};
Point(p11 + 32) = {21.14840243677614, 0.5426445032949755, 1};
Point(p11 + 33) = {21.300638969786, 0.6057029399563191, 1};
Point(p11 + 34) = {21.44113670564707, 0.691800063223862, 1};
Point(p11 + 35) = {21.56643612381721, 0.7988158761827875, 1};
Point(p11 + 36) = {21.67345193677614, 0.9241152943529261, 1};
Point(p11 + 37) = {21.75954906004368, 1.064613030214002, 1};
Point(p11 + 38) = {21.82260749670502, 1.216849563223862, 1};
Point(p11 + 39) = {21.86107453877061, 1.377076324695718, 1};
Spline(11) = {9, p11 + 1, p11 + 2, p11 + 3, p11 + 4, p11 + 5, p11 + 6, p11 + 7, p11 + 8, p11 + 9, p11 + 10, p11 + 11, p11 + 12, p11 + 13, p11 + 14, p11 + 15, p11 + 16, p11 + 17, p11 + 18, p11 + 19, p11 + 20, p11 + 21, p11 + 22, p11 + 23, p11 + 24, p11 + 25, p11 + 26, p11 + 27, p11 + 28, p11 + 29, p11 + 30, p11 + 31, p11 + 32, p11 + 33, p11 + 34, p11 + 35, p11 + 36, p11 + 37, p11 + 38, p11 + 39, 9};
Line(12) = {4, 10};
Line(13) = {10, 7};
Line(14) = {5, 10};
p15 = newp;
Point(p15 + 1) = {5.425302873183206, 0.7124639464474962, 0};
Point(p15 + 2) = {5.385292605623507, 0.8791187047151657, 0};
Point(p15 + 3) = {5.319704382894689, 1.037462681559026, 0};
Point(p15 + 4) = {5.230153204715166, 1.183596922755651, 0};
Point(p15 + 5) = {5.11884411829504, 1.313923118295039, 0};
Point(p15 + 6) = {4.988517922755651, 1.425232204715166, 0};
Point(p15 + 7) = {4.842383681559026, 1.514783382894688, 0};
Point(p15 + 8) = {4.684039704715167, 1.580371605623507, 0};
Point(p15 + 9) = {4.517384946447496, 1.620381873183206, 0};
Point(p15 + 10) = {4.346523, 1.633829, 0};
Point(p15 + 11) = {4.175661053552504, 1.620381873183205, 0};
Point(p15 + 12) = {4.009006295284835, 1.580371605623507, 0};
Point(p15 + 13) = {3.850662318440974, 1.514783382894689, 0};
Point(p15 + 14) = {3.704528077244349, 1.425232204715166, 0};
Point(p15 + 15) = {3.574201881704961, 1.313923118295039, 0};
Point(p15 + 16) = {3.462892795284835, 1.183596922755651, 0};
Point(p15 + 17) = {3.373341617105312, 1.037462681559026, 0};
Point(p15 + 18) = {3.307753394376494, 0.8791187047151658, 0};
Point(p15 + 19) = {3.267743126816795, 0.7124639464474964, 0};
Point(p15 + 20) = {3.254296, 0.5416020000000001, 0};
Point(p15 + 21) = {3.267743126816795, 0.3707400535525039, 0};
Point(p15 + 22) = {3.307753394376494, 0.204085295284834, 0};
Point(p15 + 23) = {3.373341617105312, 0.04574131844097462, 0};
Point(p15 + 24) = {3.462892795284835, -0.1003929227556509, 0};
Point(p15 + 25) = {3.574201881704961, -0.2307191182950392, 0};
Point(p15 + 26) = {3.704528077244349, -0.3420282047151656, 0};
Point(p15 + 27) = {3.850662318440974, -0.4315793828946884, 0};
Point(p15 + 28) = {4.009006295284834, -0.4971676056235067, 0};
Point(p15 + 29) = {4.175661053552504, -0.5371778731832054, 0};
Point(p15 + 30) = {4.346523, -0.550625, 0};
Point(p15 + 31) = {4.517384946447496, -0.5371778731832056, 0};
Point(p15 + 32) = {4.684039704715166, -0.4971676056235067, 0};
Point(p15 + 33) = {4.842383681559026, -0.4315793828946886, 0};
Point(p15 + 34) = {4.988517922755651, -0.3420282047151658, 0};
Point(p15 + 35) = {5.11884411829504, -0.2307191182950394, 0};
Point(p15 + 36) = {5.230153204715166, -0.1003929227556513, 0};
Point(p15 + 37) = {5.319704382894689, 0.04574131844097384, 0};
Point(p15 + 38) = {5.385292605623507, 0.2040852952848341, 0};
Point(p15 + 39) = {5.425302873183206, 0.3707400535525035, 0};
Spline(15) = {11, p15 + 1, p15 + 2, p15 + 3, p15 + 4, p15 + 5, p15 + 6, p15 + 7, p15 + 8, p15 + 9, p15 + 10, p15 + 11, p15 + 12, p15 + 13, p15 + 14, p15 + 15, p15 + 16, p15 + 17, p15 + 18, p15 + 19, p15 + 20, p15 + 21, p15 + 22, p15 + 23, p15 + 24, p15 + 25, p15 + 26, p15 + 27, p15 + 28, p15 + 29, p15 + 30, p15 + 31, p15 + 32, p15 + 33, p15 + 34, p15 + 35, p15 + 36, p15 + 37, p15 + 38, p15 + 39, 11};
p16 = newp;
Point(p16 + 1) = {21.86107453877061, 1.705619675304281, 0};
Point(p16 + 2) = {21.82260749670502, 1.865846436776138, 0};
Point(p16 + 3) = {21.75954906004368, 2.018082969785998, 0};
Point(p16 + 4) = {21.67345193677614, 2.158580705647074, 0};
Point(p16 + 5) = {21.56643612381721, 2.283880123817212, 0};
Point(p16 + 6) = {21.44113670564707, 2.390895936776138, 0};
Point(p16 + 7) = {21.300638969786, 2.47699306004368, 0};
Point(p16 + 8) = {21.14840243677614, 2.540051496705024, 0};
Point(p16 + 9) = {20.98817567530428, 2.578518538770613, 0};
Point(p16 + 10) = {20.823904, 2.591447, 0};
Point(p16 + 11) = {20.65963232469572, 2.578518538770613, 0};
Point(p16 + 12) = {20.49940556322386, 2.540051496705024, 0};
Point(p16 + 13) = {20.347169030214, 2.476993060043681, 0};
Point(p16 + 14) = {20.20667129435293, 2.390895936776138, 0};
Point(p16 + 15) = {20.08137187618279, 2.283880123817212, 0};
Point(p16 + 16) = {19.97435606322386, 2.158580705647074, 0};
Point(p16 + 17) = {19.88825893995632, 2.018082969785998, 0};
Point(p16 + 18) = {19.82520050329498, 1.865846436776138, 0};
Point(p16 + 19) = {19.78673346122939, 1.705619675304281, 0};
Point(p16 + 20) = {19.773805, 1.541348, 0};
Point(p16 + 21) = {19.78673346122939, 1.377076324695719, 0};
Point(p16 + 22) = {19.82520050329498, 1.216849563223862, 0};
Point(p16 + 23) = {19.88825893995632, 1.064613030214002, 0};
Point(p16 + 24) = {19.97435606322386, 0.9241152943529264, 0};
Point(p16 + 25) = {20.08137187618279, 0.7988158761827877, 0};
Point(p16 + 26) = {20.20667129435293, 0.6918000632238622, 0};
Point(p16 + 27) = {20.347169030214, 0.6057029399563192, 0};
Point(p16 + 28) = {20.49940556322386, 0.5426445032949756, 0};
Point(p16 + 29) = {20.65963232469572, 0.5041774612293866, 0};
Point(p16 + 30) = {20.823904, 0.491249, 0};
Point(p16 + 31) = {20.98817567530428, 0.5041774612293866, 0};
Point(p16 + 32) = {21.14840243677614, 0.5426445032949755, 0};
Point(p16 + 33) = {21.300638969786, 0.6057029399563191, 0};
Point(p16 + 34) = {21.44113670564707, 0.691800063223862, 0};
Point(p16 + 35) = {21.56643612381721, 0.7988158761827875, 0};
Point(p16 + 36) = {21.67345193677614, 0.9241152943529261, 0};
Point(p16 + 37) = {21.75954906004368, 1.064613030214002, 0};
Point(p16 + 38) = {21.82260749670502, 1.216849563223862, 0};
Point(p16 + 39) = {21.86107453877061, 1.377076324695718, 0};
Spline(16) = {12, p16 + 1, p16 + 2, p16 + 3, p16 + 4, p16 + 5, p16 + 6, p16 + 7, p16 + 8, p16 + 9, p16 + 10, p16 + 11, p16 + 12, p16 + 13, p16 + 14, p16 + 15, p16 + 16, p16 + 17, p16 + 18, p16 + 19, p16 + 20, p16 + 21, p16 + 22, p16 + 23, p16 + 24, p16 + 25, p16 + 26, p16 + 27, p16 + 28, p16 + 29, p16 + 30, p16 + 31, p16 + 32, p16 + 33, p16 + 34, p16 + 35, p16 + 36, p16 + 37, p16 + 38, p16 + 39, 12};
Line(17) = {11, 8};
Line(18) = {12, 9};
Curve Loop(1) = {-1, 4, 3, -2};
Plane Surface(1) = {1};
Curve Loop(2) = {-5, 1, 7, -6};
Plane Surface(2) = {2};
Curve Loop(3) = {-2, 7, 9, -8, -10, -11};
Plane Surface(3) = {3};
Curve Loop(4) = {-12, 3, 8, -13};
Plane Surface(4) = {4};
Curve Loop(5) = {-4, 5, 14, -12, -15, -16};
Plane Surface(5) = {5};
Curve Loop(6) = {-6, 14, 13, -9};
Plane Surface(6) = {6};
Curve Loop(7) = {-10, -17, 15, 17};
Surface(7) = {7};
Curve Loop(8) = {-11, -18, 16, 18};
Surface(8) = {8};
Surface Loop(1) = {1, 2, 3, 4, 5, 6, 7, 8};
Volume(1) = {1};
Physical Surface("INFLOW") = {1};
Physical Surface("OUTFLOW") = {6};
Physical Surface("OBSTACLE") = {7, 8};
Physical Surface("WALL_Y") = {2, 4};
Physical Surface("WALL_Z") = {3, 5};
Physical Volume("FLUID") = {1};
