cl__1 = 0.388143;
cl__2 = 3.133776;
cl__3 = 0.09553300000000001;
cl__4 = 0.09761599999999999;
Point(1) = {0.344967, -4.245407, 1, cl__1};
Point(2) = {0.344967, -4.245407, 0, cl__1};
Point(3) = {0.344967, 4.294532, 1, cl__2};
Point(4) = {0.344967, 4.294532, 0, cl__2};
Point(5) = {31.045493, -4.245407, 0, cl__1};
Point(6) = {31.045493, -4.245407, 1, cl__1};
Point(7) = {31.045493, 4.294532, 1, cl__2};
Point(8) = {5.353709, -1.606445, 1, cl__3};
Point(9) = {7.398460999999999, -0.1458110000000002, 1, cl__4};
Point(10) = {31.045493, 4.294532, 0, cl__2};
Point(11) = {5.353709, -1.606445, 0, cl__3};
Point(12) = {7.398460999999999, -0.1458110000000002, 0, cl__4};
Line(1) = {2, 1};
Line(2) = {1, 3};
Line(3) = {4, 3};
Line(4) = {2, 4};
Line(5) = {2, 5};
Line(6) = {5, 6};
Line(7) = {1, 6};
Line(8) = {3, 7};
Line(9) = {6, 7};
p10 = newp;
Point(p10 + 1) = {5.341947265485775, -1.456997993209721, 1};
Point(p10 + 2) = {5.306951674881798, -1.311230867712798, 1};
Point(p10 + 3) = {5.249583935772446, -1.17273289391232, 1};
Point(p10 + 4) = {5.171256632287202, -1.044914351571675, 1};
Point(p10 + 5) = {5.073898442591288, -0.930922557408712, 1};
Point(p10 + 6) = {4.959906648428325, -0.8335643677127982, 1};
Point(p10 + 7) = {4.832088106087681, -0.755237064227554, 1};
Point(p10 + 8) = {4.693590132287201, -0.697869325118202, 1};
Point(p10 + 9) = {4.547823006790279, -0.6628737345142252, 1};
Point(p10 + 10) = {4.398376, -0.6511119999999999, 1};
Point(p10 + 11) = {4.248928993209721, -0.6628737345142253, 1};
Point(p10 + 12) = {4.103161867712799, -0.6978693251182019, 1};
Point(p10 + 13) = {3.96466389391232, -0.7552370642275539, 1};
Point(p10 + 14) = {3.836845351571675, -0.8335643677127982, 1};
Point(p10 + 15) = {3.722853557408712, -0.9309225574087119, 1};
Point(p10 + 16) = {3.625495367712798, -1.044914351571675, 1};
Point(p10 + 17) = {3.547168064227554, -1.172732893912319, 1};
Point(p10 + 18) = {3.489800325118202, -1.311230867712798, 1};
Point(p10 + 19) = {3.454804734514225, -1.456997993209721, 1};
Point(p10 + 20) = {3.443043, -1.606445, 1};
Point(p10 + 21) = {3.454804734514225, -1.755892006790279, 1};
Point(p10 + 22) = {3.489800325118202, -1.901659132287202, 1};
Point(p10 + 23) = {3.547168064227554, -2.04015710608768, 1};
Point(p10 + 24) = {3.625495367712798, -2.167975648428325, 1};
Point(p10 + 25) = {3.722853557408712, -2.281967442591288, 1};
Point(p10 + 26) = {3.836845351571674, -2.379325632287201, 1};
Point(p10 + 27) = {3.964663893912319, -2.457652935772446, 1};
Point(p10 + 28) = {4.103161867712798, -2.515020674881798, 1};
Point(p10 + 29) = {4.248928993209721, -2.550016265485775, 1};
Point(p10 + 30) = {4.398376, -2.561778, 1};
Point(p10 + 31) = {4.547823006790279, -2.550016265485775, 1};
Point(p10 + 32) = {4.693590132287201, -2.515020674881798, 1};
Point(p10 + 33) = {4.83208810608768, -2.457652935772446, 1};
Point(p10 + 34) = {4.959906648428325, -2.379325632287202, 1};
Point(p10 + 35) = {5.073898442591288, -2.281967442591288, 1};
Point(p10 + 36) = {5.171256632287202, -2.167975648428325, 1};
Point(p10 + 37) = {5.249583935772446, -2.040157106087681, 1};
Point(p10 + 38) = {5.306951674881798, -1.901659132287202, 1};
Point(p10 + 39) = {5.341947265485775, -1.755892006790279, 1};
Spline(10) = {8, p10 + 1, p10 + 2, p10 + 3, p10 + 4, p10 + 5, p10 + 6, p10 + 7, p10 + 8, p10 + 9, p10 + 10, p10 + 11, p10 + 12, p10 + 13, p10 + 14, p10 + 15, p10 + 16, p10 + 17, p10 + 18, p10 + 19, p10 + 20, p10 + 21, p10 + 22, p10 + 23, p10 + 24, p10 + 25, p10 + 26, p10 + 27, p10 + 28, p10 + 29, p10 + 30, p10 + 31, p10 + 32, p10 + 33, p10 + 34, p10 + 35, p10 + 36, p10 + 37, p10 + 38, p10 + 39, 8};
p11 = newp;
Point(p11 + 1) = {7.386442813620371, 0.006894536697066883, 1};
Point(p11 + 2) = {7.350684182116225, 0.1558399562800318, 1};
Point(p11 + 3) = {7.29206560167129, 0.2973577281972551, 1};
Point(p11 + 4) = {7.212030456280031, 0.4279632152335774, 1};
Point(p11 + 5) = {7.112549476843403, 0.5444404768434037, 1};
Point(p11 + 6) = {6.996072215233577, 0.6439214562800318, 1};
Point(p11 + 7) = {6.865466728197255, 0.7239566016712896, 1};
Point(p11 + 8) = {6.723948956280031, 0.7825751821162259, 1};
Point(p11 + 9) = {6.575003536697067, 0.8183338136203715, 1};
Point(p11 + 10) = {6.422298, 0.830352, 1};
Point(p11 + 11) = {6.269592463302932, 0.8183338136203714, 1};
Point(p11 + 12) = {6.120647043719968, 0.782575182116226, 1};
Point(p11 + 13) = {5.979129271802744, 0.7239566016712897, 1};
Point(p11 + 14) = {5.848523784766423, 0.6439214562800318, 1};
Point(p11 + 15) = {5.732046523156596, 0.5444404768434038, 1};
Point(p11 + 16) = {5.632565543719968, 0.4279632152335775, 1};
Point(p11 + 17) = {5.55253039832871, 0.2973577281972553, 1};
Point(p11 + 18) = {5.493911817883774, 0.1558399562800319, 1};
Point(p11 + 19) = {5.458153186379628, 0.006894536697066994, 1};
Point(p11 + 20) = {5.446135, -0.1458109999999999, 1};
Point(p11 + 21) = {5.458153186379628, -0.2985165366970667, 1};
Point(p11 + 22) = {5.493911817883774, -0.447461956280032, 1};
Point(p11 + 23) = {5.55253039832871, -0.5889797281972546, 1};
Point(p11 + 24) = {5.632565543719967, -0.7195852152335773, 1};
Point(p11 + 25) = {5.732046523156596, -0.8360624768434037, 1};
Point(p11 + 26) = {5.848523784766422, -0.9355434562800318, 1};
Point(p11 + 27) = {5.979129271802744, -1.01557860167129, 1};
Point(p11 + 28) = {6.120647043719968, -1.074197182116226, 1};
Point(p11 + 29) = {6.269592463302932, -1.109955813620371, 1};
Point(p11 + 30) = {6.422298, -1.121974, 1};
Point(p11 + 31) = {6.575003536697066, -1.109955813620372, 1};
Point(p11 + 32) = {6.723948956280031, -1.074197182116226, 1};
Point(p11 + 33) = {6.865466728197255, -1.01557860167129, 1};
Point(p11 + 34) = {6.996072215233577, -0.935543456280032, 1};
Point(p11 + 35) = {7.112549476843403, -0.836062476843404, 1};
Point(p11 + 36) = {7.212030456280031, -0.7195852152335777, 1};
Point(p11 + 37) = {7.29206560167129, -0.5889797281972554, 1};
Point(p11 + 38) = {7.350684182116225, -0.4474619562800319, 1};
Point(p11 + 39) = {7.386442813620371, -0.2985165366970671, 1};
Spline(11) = {9, p11 + 1, p11 + 2, p11 + 3, p11 + 4, p11 + 5, p11 + 6, p11 + 7, p11 + 8, p11 + 9, p11 + 10, p11 + 11, p11 + 12, p11 + 13, p11 + 14, p11 + 15, p11 + 16, p11 + 17, p11 + 18, p11 + 19, p11 + 20, p11 + 21, p11 + 22, p11 + 23, p11 + 24, p11 + 25, p11 + 26, p11 + 27, p11 + 28, p11 + 29, p11 + 30, p11 + 31, p11 + 32, p11 + 33, p11 + 34, p11 + 35, p11 + 36, p11 + 37, p11 + 38, p11 + 39, 9};
Line(12) = {4, 10};
Line(13) = {10, 7};
Line(14) = {5, 10};
p15 = newp;
Point(p15 + 1) = {5.341947265485775, -1.456997993209721, 0};
Point(p15 + 2) = {5.306951674881798, -1.311230867712798, 0};
Point(p15 + 3) = {5.249583935772446, -1.17273289391232, 0};
Point(p15 + 4) = {5.171256632287202, -1.044914351571675, 0};
Point(p15 + 5) = {5.073898442591288, -0.930922557408712, 0};
Point(p15 + 6) = {4.959906648428325, -0.8335643677127982, 0};
Point(p15 + 7) = {4.832088106087681, -0.755237064227554, 0};
Point(p15 + 8) = {4.693590132287201, -0.697869325118202, 0};
Point(p15 + 9) = {4.547823006790279, -0.6628737345142252, 0};
Point(p15 + 10) = {4.398376, -0.6511119999999999, 0};
Point(p15 + 11) = {4.248928993209721, -0.6628737345142253, 0};
Point(p15 + 12) = {4.103161867712799, -0.6978693251182019, 0};
Point(p15 + 13) = {3.96466389391232, -0.7552370642275539, 0};
Point(p15 + 14) = {3.836845351571675, -0.8335643677127982, 0};
Point(p15 + 15) = {3.722853557408712, -0.9309225574087119, 0};
Point(p15 + 16) = {3.625495367712798, -1.044914351571675, 0};
Point(p15 + 17) = {3.547168064227554, -1.172732893912319, 0};
Point(p15 + 18) = {3.489800325118202, -1.311230867712798, 0};
Point(p15 + 19) = {3.454804734514225, -1.456997993209721, 0};
Point(p15 + 20) = {3.443043, -1.606445, 0};
Point(p15 + 21) = {3.454804734514225, -1.755892006790279, 0};
Point(p15 + 22) = {3.489800325118202, -1.901659132287202, 0};
Point(p15 + 23) = {3.547168064227554, -2.04015710608768, 0};
Point(p15 + 24) = {3.625495367712798, -2.167975648428325, 0};
Point(p15 + 25) = {3.722853557408712, -2.281967442591288, 0};
Point(p15 + 26) = {3.836845351571674, -2.379325632287201, 0};
Point(p15 + 27) = {3.964663893912319, -2.457652935772446, 0};
Point(p15 + 28) = {4.103161867712798, -2.515020674881798, 0};
Point(p15 + 29) = {4.248928993209721, -2.550016265485775, 0};
Point(p15 + 30) = {4.398376, -2.561778, 0};
Point(p15 + 31) = {4.547823006790279, -2.550016265485775, 0};
Point(p15 + 32) = {4.693590132287201, -2.515020674881798, 0};
Point(p15 + 33) = {4.83208810608768, -2.457652935772446, 0};
Point(p15 + 34) = {4.959906648428325, -2.379325632287202, 0};
Point(p15 + 35) = {5.073898442591288, -2.281967442591288, 0};
Point(p15 + 36) = {5.171256632287202, -2.167975648428325, 0};
Point(p15 + 37) = {5.249583935772446, -2.040157106087681, 0};
Point(p15 + 38) = {5.306951674881798, -1.901659132287202, 0};
Point(p15 + 39) = {5.341947265485775, -1.755892006790279, 0};
Spline(15) = {11, p15 + 1, p15 + 2, p15 + 3, p15 + 4, p15 + 5, p15 + 6, p15 + 7, p15 + 8, p15 + 9, p15 + 10, p15 + 11, p15 + 12, p15 + 13, p15 + 14, p15 + 15, p15 + 16, p15 + 17, p15 + 18, p15 + 19, p15 + 20, p15 + 21, p15 + 22, p15 + 23, p15 + 24, p15 + 25, p15 + 26, p15 + 27, p15 + 28, p15 + 29, p15 + 30, p15 + 31, p15 + 32, p15 + 33, p15 + 34, p15 + 35, p15 + 36, p15 + 37, p15 + 38, p15 + 39, 11};
p16 = newp;
Point(p16 + 1) = {7.386442813620371, 0.006894536697066883, 0};
Point(p16 + 2) = {7.350684182116225, 0.1558399562800318, 0};
Point(p16 + 3) = {7.29206560167129, 0.2973577281972551, 0};
Point(p16 + 4) = {7.212030456280031, 0.4279632152335774, 0};
Point(p16 + 5) = {7.112549476843403, 0.5444404768434037, 0};
Point(p16 + 6) = {6.996072215233577, 0.6439214562800318, 0};
Point(p16 + 7) = {6.865466728197255, 0.7239566016712896, 0};
Point(p16 + 8) = {6.723948956280031, 0.7825751821162259, 0};
Point(p16 + 9) = {6.575003536697067, 0.8183338136203715, 0};
Point(p16 + 10) = {6.422298, 0.830352, 0};
Point(p16 + 11) = {6.269592463302932, 0.8183338136203714, 0};
Point(p16 + 12) = {6.120647043719968, 0.782575182116226, 0};
Point(p16 + 13) = {5.979129271802744, 0.7239566016712897, 0};
Point(p16 + 14) = {5.848523784766423, 0.6439214562800318, 0};
Point(p16 + 15) = {5.732046523156596, 0.5444404768434038, 0};
Point(p16 + 16) = {5.632565543719968, 0.4279632152335775, 0};
Point(p16 + 17) = {5.55253039832871, 0.2973577281972553, 0};
Point(p16 + 18) = {5.493911817883774, 0.1558399562800319, 0};
Point(p16 + 19) = {5.458153186379628, 0.006894536697066994, 0};
Point(p16 + 20) = {5.446135, -0.1458109999999999, 0};
Point(p16 + 21) = {5.458153186379628, -0.2985165366970667, 0};
Point(p16 + 22) = {5.493911817883774, -0.447461956280032, 0};
Point(p16 + 23) = {5.55253039832871, -0.5889797281972546, 0};
Point(p16 + 24) = {5.632565543719967, -0.7195852152335773, 0};
Point(p16 + 25) = {5.732046523156596, -0.8360624768434037, 0};
Point(p16 + 26) = {5.848523784766422, -0.9355434562800318, 0};
Point(p16 + 27) = {5.979129271802744, -1.01557860167129, 0};
Point(p16 + 28) = {6.120647043719968, -1.074197182116226, 0};
Point(p16 + 29) = {6.269592463302932, -1.109955813620371, 0};
Point(p16 + 30) = {6.422298, -1.121974, 0};
Point(p16 + 31) = {6.575003536697066, -1.109955813620372, 0};
Point(p16 + 32) = {6.723948956280031, -1.074197182116226, 0};
Point(p16 + 33) = {6.865466728197255, -1.01557860167129, 0};
Point(p16 + 34) = {6.996072215233577, -0.935543456280032, 0};
Point(p16 + 35) = {7.112549476843403, -0.836062476843404, 0};
Point(p16 + 36) = {7.212030456280031, -0.7195852152335777, 0};
Point(p16 + 37) = {7.29206560167129, -0.5889797281972554, 0};
Point(p16 + 38) = {7.350684182116225, -0.4474619562800319, 0};
Point(p16 + 39) = {7.386442813620371, -0.2985165366970671, 0};
Spline(16) = {12, p16 + 1, p16 + 2, p16 + 3, p16 + 4, p16 + 5, p16 + 6, p16 + 7, p16 + 8, p16 + 9, p16 + 10, p16 + 11, p16 + 12, p16 + 13, p16 + 14, p16 + 15, p16 + 16, p16 + 17, p16 + 18, p16 + 19, p16 + 20, p16 + 21, p16 + 22, p16 + 23, p16 + 24, p16 + 25, p16 + 26, p16 + 27, p16 + 28, p16 + 29, p16 + 30, p16 + 31, p16 + 32, p16 + 33, p16 + 34, p16 + 35, p16 + 36, p16 + 37, p16 + 38, p16 + 39, 12};
Line(17) = {11, 8};
Line(18) = {12, 9};
Curve Loop(1) = {-1, 4, 3, -2};
Plane Surface(1) = {1};
Curve Loop(2) = {-5, 1, 7, -6};
Plane Surface(2) = {2};
Curve Loop(3) = {-2, 7, 9, -8, -10, -11};
Plane Surface(3) = {3};
Curve Loop(4) = {-12, 3, 8, -13};
Plane Surface(4) = {4};
Curve Loop(5) = {-4, 5, 14, -12, -15, -16};
Plane Surface(5) = {5};
Curve Loop(6) = {-6, 14, 13, -9};
Plane Surface(6) = {6};
Curve Loop(7) = {-10, -17, 15, 17};
Surface(7) = {7};
Curve Loop(8) = {-11, -18, 16, 18};
Surface(8) = {8};
Surface Loop(1) = {1, 2, 3, 4, 5, 6, 7, 8};
Volume(1) = {1};
Physical Surface("INFLOW") = {1};
Physical Surface("OUTFLOW") = {6};
Physical Surface("OBSTACLE") = {7, 8};
Physical Surface("WALL_Y") = {2, 4};
Physical Surface("WALL_Z") = {3, 5};
Physical Volume("FLUID") = {1};
