cl__1 = 3.043904;
cl__2 = 0.873911;
cl__3 = 1.085904;
cl__4 = 1e+22;
cl__5 = 0.065548;
cl__6 = 0.072044;
Point(1) = {0.639427, -4.004003, 1, cl__1};
Point(2) = {0.639427, -4.004003, 0, cl__1};
Point(3) = {0.639427, 4.054023999999999, 1, cl__1};
Point(4) = {0.639427, 4.054023999999999, 0, cl__1};
Point(5) = {32.750293, -4.004003, 0, cl__2};
Point(6) = {32.750293, -4.004003, 1, cl__2};
Point(7) = {32.750293, 4.054023999999999, 1, cl__3};
Point(8) = {21.645031, -1.519944, 1, cl__4};
Point(9) = {20.410622, 0.3616259999999998, 1, cl__3};
Point(10) = {25.511828, 1.423849, 1, cl__5};
Point(11) = {32.750293, 4.054023999999999, 0, cl__5};
Point(12) = {21.645031, -1.519944, 0, cl__4};
Point(13) = {20.410622, 0.3616259999999998, 0, cl__4};
Point(14) = {25.511828, 1.423849, 0, cl__6};
Line(1) = {2, 1};
Line(2) = {1, 3};
Line(3) = {4, 3};
Line(4) = {2, 4};
Line(5) = {2, 5};
Line(6) = {5, 6};
Line(7) = {1, 6};
Line(8) = {3, 7};
Line(9) = {6, 7};
p10 = newp;
Point(p10 + 1) = {21.63696096580496, -1.417404493289894, 1};
Point(p10 + 2) = {21.61294957424463, -1.317389849544104, 1};
Point(p10 + 3) = {21.57358806546847, -1.222362761221222, 1};
Point(p10 + 4) = {21.5198456504559, -1.134663110612582, 1};
Point(p10 + 5) = {21.45304564582538, -1.056450354174623, 1};
Point(p10 + 6) = {21.37483288938742, -0.9896503495441038, 1};
Point(p10 + 7) = {21.28713323877878, -0.9359079345315328, 1};
Point(p10 + 8) = {21.1921061504559, -0.896546425755369, 1};
Point(p10 + 9) = {21.0920915067101, -0.8725350341950396, 1};
Point(p10 + 10) = {20.989552, -0.8644649999999999, 1};
Point(p10 + 11) = {20.88701249328989, -0.8725350341950396, 1};
Point(p10 + 12) = {20.7869978495441, -0.8965464257553689, 1};
Point(p10 + 13) = {20.69197076122122, -0.9359079345315328, 1};
Point(p10 + 14) = {20.60427111061258, -0.9896503495441038, 1};
Point(p10 + 15) = {20.52605835417462, -1.056450354174623, 1};
Point(p10 + 16) = {20.4592583495441, -1.134663110612582, 1};
Point(p10 + 17) = {20.40551593453153, -1.222362761221222, 1};
Point(p10 + 18) = {20.36615442575537, -1.317389849544104, 1};
Point(p10 + 19) = {20.34214303419504, -1.417404493289894, 1};
Point(p10 + 20) = {20.334073, -1.519944, 1};
Point(p10 + 21) = {20.34214303419504, -1.622483506710105, 1};
Point(p10 + 22) = {20.36615442575537, -1.722498150455896, 1};
Point(p10 + 23) = {20.40551593453153, -1.817525238778778, 1};
Point(p10 + 24) = {20.4592583495441, -1.905224889387418, 1};
Point(p10 + 25) = {20.52605835417462, -1.983437645825377, 1};
Point(p10 + 26) = {20.60427111061258, -2.050237650455896, 1};
Point(p10 + 27) = {20.69197076122122, -2.103980065468467, 1};
Point(p10 + 28) = {20.7869978495441, -2.143341574244631, 1};
Point(p10 + 29) = {20.88701249328989, -2.16735296580496, 1};
Point(p10 + 30) = {20.989552, -2.175423, 1};
Point(p10 + 31) = {21.0920915067101, -2.16735296580496, 1};
Point(p10 + 32) = {21.1921061504559, -2.143341574244631, 1};
Point(p10 + 33) = {21.28713323877878, -2.103980065468467, 1};
Point(p10 + 34) = {21.37483288938742, -2.050237650455896, 1};
Point(p10 + 35) = {21.45304564582538, -1.983437645825377, 1};
Point(p10 + 36) = {21.5198456504559, -1.905224889387418, 1};
Point(p10 + 37) = {21.57358806546847, -1.817525238778778, 1};
Point(p10 + 38) = {21.61294957424463, -1.722498150455896, 1};
Point(p10 + 39) = {21.63696096580496, -1.622483506710106, 1};
Spline(10) = {8, p10 + 1, p10 + 2, p10 + 3, p10 + 4, p10 + 5, p10 + 6, p10 + 7, p10 + 8, p10 + 9, p10 + 10, p10 + 11, p10 + 12, p10 + 13, p10 + 14, p10 + 15, p10 + 16, p10 + 17, p10 + 18, p10 + 19, p10 + 20, p10 + 21, p10 + 22, p10 + 23, p10 + 24, p10 + 25, p10 + 26, p10 + 27, p10 + 28, p10 + 29, p10 + 30, p10 + 31, p10 + 32, p10 + 33, p10 + 34, p10 + 35, p10 + 36, p10 + 37, p10 + 38, p10 + 39, 8};
p11 = newp;
Point(p11 + 1) = {20.4017521757867, 0.474327802428049, 1};
Point(p11 + 2) = {20.3753611076562, 0.5842545124444815, 1};
Point(p11 + 3) = {20.33209863129279, 0.6886993696228588, 1};
Point(p11 + 4) = {20.27303001244448, 0.7850905949468416, 1};
Point(p11 + 5) = {20.19960971654482, 0.8710547165448175, 1};
Point(p11 + 6) = {20.11364559494684, 0.9444750124444815, 1};
Point(p11 + 7) = {20.01725436962286, 1.003543631292792, 1};
Point(p11 + 8) = {19.91280951244448, 1.046806107656197, 1};
Point(p11 + 9) = {19.80288280242805, 1.073197175786702, 1};
Point(p11 + 10) = {19.690181, 1.082067, 1};
Point(p11 + 11) = {19.57747919757195, 1.073197175786702, 1};
Point(p11 + 12) = {19.46755248755552, 1.046806107656197, 1};
Point(p11 + 13) = {19.36310763037714, 1.003543631292792, 1};
Point(p11 + 14) = {19.26671640505316, 0.9444750124444815, 1};
Point(p11 + 15) = {19.18075228345518, 0.8710547165448175, 1};
Point(p11 + 16) = {19.10733198755552, 0.7850905949468417, 1};
Point(p11 + 17) = {19.04826336870721, 0.6886993696228589, 1};
Point(p11 + 18) = {19.0050008923438, 0.5842545124444816, 1};
Point(p11 + 19) = {18.9786098242133, 0.4743278024280491, 1};
Point(p11 + 20) = {18.96974, 0.3616260000000001, 1};
Point(p11 + 21) = {18.9786098242133, 0.2489241975719511, 1};
Point(p11 + 22) = {19.0050008923438, 0.1389974875555183, 1};
Point(p11 + 23) = {19.04826336870721, 0.03455263037714157, 1};
Point(p11 + 24) = {19.10733198755552, -0.06183859494684157, 1};
Point(p11 + 25) = {19.18075228345518, -0.1478027165448175, 1};
Point(p11 + 26) = {19.26671640505316, -0.2212230124444814, 1};
Point(p11 + 27) = {19.36310763037714, -0.2802916312927919, 1};
Point(p11 + 28) = {19.46755248755552, -0.3235541076561967, 1};
Point(p11 + 29) = {19.57747919757195, -0.3499451757867016, 1};
Point(p11 + 30) = {19.690181, -0.358815, 1};
Point(p11 + 31) = {19.80288280242805, -0.3499451757867017, 1};
Point(p11 + 32) = {19.91280951244448, -0.3235541076561967, 1};
Point(p11 + 33) = {20.01725436962286, -0.280291631292792, 1};
Point(p11 + 34) = {20.11364559494684, -0.2212230124444816, 1};
Point(p11 + 35) = {20.19960971654482, -0.1478027165448176, 1};
Point(p11 + 36) = {20.27303001244448, -0.0618385949468418, 1};
Point(p11 + 37) = {20.33209863129279, 0.03455263037714107, 1};
Point(p11 + 38) = {20.3753611076562, 0.1389974875555184, 1};
Point(p11 + 39) = {20.4017521757867, 0.2489241975719509, 1};
Spline(11) = {9, p11 + 1, p11 + 2, p11 + 3, p11 + 4, p11 + 5, p11 + 6, p11 + 7, p11 + 8, p11 + 9, p11 + 10, p11 + 11, p11 + 12, p11 + 13, p11 + 14, p11 + 15, p11 + 16, p11 + 17, p11 + 18, p11 + 19, p11 + 20, p11 + 21, p11 + 22, p11 + 23, p11 + 24, p11 + 25, p11 + 26, p11 + 27, p11 + 28, p11 + 29, p11 + 30, p11 + 31, p11 + 32, p11 + 33, p11 + 34, p11 + 35, p11 + 36, p11 + 37, p11 + 38, p11 + 39, 9};
p12 = newp;
Point(p12 + 1) = {25.49468795400974, 1.641633933539709, 1};
Point(p12 + 2) = {25.44368986085579, 1.854056279228914, 1};
Point(p12 + 3) = {25.36008946284456, 2.055885493927402, 1};
Point(p12 + 4) = {25.24594527922892, 2.242151872536535, 1};
Point(p12 + 5) = {25.10406791863229, 2.408268918632288, 1};
Point(p12 + 6) = {24.93795087253654, 2.550146279228914, 1};
Point(p12 + 7) = {24.7516844939274, 2.664290462844562, 1};
Point(p12 + 8) = {24.54985527922891, 2.747890860855787, 1};
Point(p12 + 9) = {24.33743293353971, 2.798888954009739, 1};
Point(p12 + 10) = {24.119648, 2.816029, 1};
Point(p12 + 11) = {23.90186306646029, 2.798888954009739, 1};
Point(p12 + 12) = {23.68944072077109, 2.747890860855787, 1};
Point(p12 + 13) = {23.4876115060726, 2.664290462844562, 1};
Point(p12 + 14) = {23.30134512746347, 2.550146279228914, 1};
Point(p12 + 15) = {23.13522808136771, 2.408268918632288, 1};
Point(p12 + 16) = {22.99335072077109, 2.242151872536535, 1};
Point(p12 + 17) = {22.87920653715544, 2.055885493927402, 1};
Point(p12 + 18) = {22.79560613914422, 1.854056279228914, 1};
Point(p12 + 19) = {22.74460804599026, 1.641633933539709, 1};
Point(p12 + 20) = {22.727468, 1.423849, 1};
Point(p12 + 21) = {22.74460804599026, 1.206064066460292, 1};
Point(p12 + 22) = {22.79560613914422, 0.9936417207710853, 1};
Point(p12 + 23) = {22.87920653715544, 0.7918125060725985, 1};
Point(p12 + 24) = {22.99335072077109, 0.6055461274634648, 1};
Point(p12 + 25) = {23.13522808136771, 0.4394290813677123, 1};
Point(p12 + 26) = {23.30134512746347, 0.2975517207710858, 1};
Point(p12 + 27) = {23.4876115060726, 0.183407537155438, 1};
Point(p12 + 28) = {23.68944072077109, 0.09980713914421302, 1};
Point(p12 + 29) = {23.90186306646029, 0.04880904599026126, 1};
Point(p12 + 30) = {24.119648, 0.03166899999999995, 1};
Point(p12 + 31) = {24.33743293353971, 0.04880904599026104, 1};
Point(p12 + 32) = {24.54985527922891, 0.09980713914421302, 1};
Point(p12 + 33) = {24.7516844939274, 0.183407537155438, 1};
Point(p12 + 34) = {24.93795087253654, 0.2975517207710854, 1};
Point(p12 + 35) = {25.10406791863229, 0.439429081367712, 1};
Point(p12 + 36) = {25.24594527922892, 0.6055461274634644, 1};
Point(p12 + 37) = {25.36008946284456, 0.7918125060725975, 1};
Point(p12 + 38) = {25.44368986085579, 0.9936417207710854, 1};
Point(p12 + 39) = {25.49468795400974, 1.206064066460291, 1};
Spline(12) = {10, p12 + 1, p12 + 2, p12 + 3, p12 + 4, p12 + 5, p12 + 6, p12 + 7, p12 + 8, p12 + 9, p12 + 10, p12 + 11, p12 + 12, p12 + 13, p12 + 14, p12 + 15, p12 + 16, p12 + 17, p12 + 18, p12 + 19, p12 + 20, p12 + 21, p12 + 22, p12 + 23, p12 + 24, p12 + 25, p12 + 26, p12 + 27, p12 + 28, p12 + 29, p12 + 30, p12 + 31, p12 + 32, p12 + 33, p12 + 34, p12 + 35, p12 + 36, p12 + 37, p12 + 38, p12 + 39, 10};
Line(13) = {4, 11};
Line(14) = {11, 7};
Line(15) = {5, 11};
p16 = newp;
Point(p16 + 1) = {21.63696096580496, -1.417404493289894, 0};
Point(p16 + 2) = {21.61294957424463, -1.317389849544104, 0};
Point(p16 + 3) = {21.57358806546847, -1.222362761221222, 0};
Point(p16 + 4) = {21.5198456504559, -1.134663110612582, 0};
Point(p16 + 5) = {21.45304564582538, -1.056450354174623, 0};
Point(p16 + 6) = {21.37483288938742, -0.9896503495441038, 0};
Point(p16 + 7) = {21.28713323877878, -0.9359079345315328, 0};
Point(p16 + 8) = {21.1921061504559, -0.896546425755369, 0};
Point(p16 + 9) = {21.0920915067101, -0.8725350341950396, 0};
Point(p16 + 10) = {20.989552, -0.8644649999999999, 0};
Point(p16 + 11) = {20.88701249328989, -0.8725350341950396, 0};
Point(p16 + 12) = {20.7869978495441, -0.8965464257553689, 0};
Point(p16 + 13) = {20.69197076122122, -0.9359079345315328, 0};
Point(p16 + 14) = {20.60427111061258, -0.9896503495441038, 0};
Point(p16 + 15) = {20.52605835417462, -1.056450354174623, 0};
Point(p16 + 16) = {20.4592583495441, -1.134663110612582, 0};
Point(p16 + 17) = {20.40551593453153, -1.222362761221222, 0};
Point(p16 + 18) = {20.36615442575537, -1.317389849544104, 0};
Point(p16 + 19) = {20.34214303419504, -1.417404493289894, 0};
Point(p16 + 20) = {20.334073, -1.519944, 0};
Point(p16 + 21) = {20.34214303419504, -1.622483506710105, 0};
Point(p16 + 22) = {20.36615442575537, -1.722498150455896, 0};
Point(p16 + 23) = {20.40551593453153, -1.817525238778778, 0};
Point(p16 + 24) = {20.4592583495441, -1.905224889387418, 0};
Point(p16 + 25) = {20.52605835417462, -1.983437645825377, 0};
Point(p16 + 26) = {20.60427111061258, -2.050237650455896, 0};
Point(p16 + 27) = {20.69197076122122, -2.103980065468467, 0};
Point(p16 + 28) = {20.7869978495441, -2.143341574244631, 0};
Point(p16 + 29) = {20.88701249328989, -2.16735296580496, 0};
Point(p16 + 30) = {20.989552, -2.175423, 0};
Point(p16 + 31) = {21.0920915067101, -2.16735296580496, 0};
Point(p16 + 32) = {21.1921061504559, -2.143341574244631, 0};
Point(p16 + 33) = {21.28713323877878, -2.103980065468467, 0};
Point(p16 + 34) = {21.37483288938742, -2.050237650455896, 0};
Point(p16 + 35) = {21.45304564582538, -1.983437645825377, 0};
Point(p16 + 36) = {21.5198456504559, -1.905224889387418, 0};
Point(p16 + 37) = {21.57358806546847, -1.817525238778778, 0};
Point(p16 + 38) = {21.61294957424463, -1.722498150455896, 0};
Point(p16 + 39) = {21.63696096580496, -1.622483506710106, 0};
Spline(16) = {12, p16 + 1, p16 + 2, p16 + 3, p16 + 4, p16 + 5, p16 + 6, p16 + 7, p16 + 8, p16 + 9, p16 + 10, p16 + 11, p16 + 12, p16 + 13, p16 + 14, p16 + 15, p16 + 16, p16 + 17, p16 + 18, p16 + 19, p16 + 20, p16 + 21, p16 + 22, p16 + 23, p16 + 24, p16 + 25, p16 + 26, p16 + 27, p16 + 28, p16 + 29, p16 + 30, p16 + 31, p16 + 32, p16 + 33, p16 + 34, p16 + 35, p16 + 36, p16 + 37, p16 + 38, p16 + 39, 12};
p17 = newp;
Point(p17 + 1) = {20.4017521757867, 0.474327802428049, 0};
Point(p17 + 2) = {20.3753611076562, 0.5842545124444815, 0};
Point(p17 + 3) = {20.33209863129279, 0.6886993696228588, 0};
Point(p17 + 4) = {20.27303001244448, 0.7850905949468416, 0};
Point(p17 + 5) = {20.19960971654482, 0.8710547165448175, 0};
Point(p17 + 6) = {20.11364559494684, 0.9444750124444815, 0};
Point(p17 + 7) = {20.01725436962286, 1.003543631292792, 0};
Point(p17 + 8) = {19.91280951244448, 1.046806107656197, 0};
Point(p17 + 9) = {19.80288280242805, 1.073197175786702, 0};
Point(p17 + 10) = {19.690181, 1.082067, 0};
Point(p17 + 11) = {19.57747919757195, 1.073197175786702, 0};
Point(p17 + 12) = {19.46755248755552, 1.046806107656197, 0};
Point(p17 + 13) = {19.36310763037714, 1.003543631292792, 0};
Point(p17 + 14) = {19.26671640505316, 0.9444750124444815, 0};
Point(p17 + 15) = {19.18075228345518, 0.8710547165448175, 0};
Point(p17 + 16) = {19.10733198755552, 0.7850905949468417, 0};
Point(p17 + 17) = {19.04826336870721, 0.6886993696228589, 0};
Point(p17 + 18) = {19.0050008923438, 0.5842545124444816, 0};
Point(p17 + 19) = {18.9786098242133, 0.4743278024280491, 0};
Point(p17 + 20) = {18.96974, 0.3616260000000001, 0};
Point(p17 + 21) = {18.9786098242133, 0.2489241975719511, 0};
Point(p17 + 22) = {19.0050008923438, 0.1389974875555183, 0};
Point(p17 + 23) = {19.04826336870721, 0.03455263037714157, 0};
Point(p17 + 24) = {19.10733198755552, -0.06183859494684157, 0};
Point(p17 + 25) = {19.18075228345518, -0.1478027165448175, 0};
Point(p17 + 26) = {19.26671640505316, -0.2212230124444814, 0};
Point(p17 + 27) = {19.36310763037714, -0.2802916312927919, 0};
Point(p17 + 28) = {19.46755248755552, -0.3235541076561967, 0};
Point(p17 + 29) = {19.57747919757195, -0.3499451757867016, 0};
Point(p17 + 30) = {19.690181, -0.358815, 0};
Point(p17 + 31) = {19.80288280242805, -0.3499451757867017, 0};
Point(p17 + 32) = {19.91280951244448, -0.3235541076561967, 0};
Point(p17 + 33) = {20.01725436962286, -0.280291631292792, 0};
Point(p17 + 34) = {20.11364559494684, -0.2212230124444816, 0};
Point(p17 + 35) = {20.19960971654482, -0.1478027165448176, 0};
Point(p17 + 36) = {20.27303001244448, -0.0618385949468418, 0};
Point(p17 + 37) = {20.33209863129279, 0.03455263037714107, 0};
Point(p17 + 38) = {20.3753611076562, 0.1389974875555184, 0};
Point(p17 + 39) = {20.4017521757867, 0.2489241975719509, 0};
Spline(17) = {13, p17 + 1, p17 + 2, p17 + 3, p17 + 4, p17 + 5, p17 + 6, p17 + 7, p17 + 8, p17 + 9, p17 + 10, p17 + 11, p17 + 12, p17 + 13, p17 + 14, p17 + 15, p17 + 16, p17 + 17, p17 + 18, p17 + 19, p17 + 20, p17 + 21, p17 + 22, p17 + 23, p17 + 24, p17 + 25, p17 + 26, p17 + 27, p17 + 28, p17 + 29, p17 + 30, p17 + 31, p17 + 32, p17 + 33, p17 + 34, p17 + 35, p17 + 36, p17 + 37, p17 + 38, p17 + 39, 13};
p18 = newp;
Point(p18 + 1) = {25.49468795400974, 1.641633933539709, 0};
Point(p18 + 2) = {25.44368986085579, 1.854056279228914, 0};
Point(p18 + 3) = {25.36008946284456, 2.055885493927402, 0};
Point(p18 + 4) = {25.24594527922892, 2.242151872536535, 0};
Point(p18 + 5) = {25.10406791863229, 2.408268918632288, 0};
Point(p18 + 6) = {24.93795087253654, 2.550146279228914, 0};
Point(p18 + 7) = {24.7516844939274, 2.664290462844562, 0};
Point(p18 + 8) = {24.54985527922891, 2.747890860855787, 0};
Point(p18 + 9) = {24.33743293353971, 2.798888954009739, 0};
Point(p18 + 10) = {24.119648, 2.816029, 0};
Point(p18 + 11) = {23.90186306646029, 2.798888954009739, 0};
Point(p18 + 12) = {23.68944072077109, 2.747890860855787, 0};
Point(p18 + 13) = {23.4876115060726, 2.664290462844562, 0};
Point(p18 + 14) = {23.30134512746347, 2.550146279228914, 0};
Point(p18 + 15) = {23.13522808136771, 2.408268918632288, 0};
Point(p18 + 16) = {22.99335072077109, 2.242151872536535, 0};
Point(p18 + 17) = {22.87920653715544, 2.055885493927402, 0};
Point(p18 + 18) = {22.79560613914422, 1.854056279228914, 0};
Point(p18 + 19) = {22.74460804599026, 1.641633933539709, 0};
Point(p18 + 20) = {22.727468, 1.423849, 0};
Point(p18 + 21) = {22.74460804599026, 1.206064066460292, 0};
Point(p18 + 22) = {22.79560613914422, 0.9936417207710853, 0};
Point(p18 + 23) = {22.87920653715544, 0.7918125060725985, 0};
Point(p18 + 24) = {22.99335072077109, 0.6055461274634648, 0};
Point(p18 + 25) = {23.13522808136771, 0.4394290813677123, 0};
Point(p18 + 26) = {23.30134512746347, 0.2975517207710858, 0};
Point(p18 + 27) = {23.4876115060726, 0.183407537155438, 0};
Point(p18 + 28) = {23.68944072077109, 0.09980713914421302, 0};
Point(p18 + 29) = {23.90186306646029, 0.04880904599026126, 0};
Point(p18 + 30) = {24.119648, 0.03166899999999995, 0};
Point(p18 + 31) = {24.33743293353971, 0.04880904599026104, 0};
Point(p18 + 32) = {24.54985527922891, 0.09980713914421302, 0};
Point(p18 + 33) = {24.7516844939274, 0.183407537155438, 0};
Point(p18 + 34) = {24.93795087253654, 0.2975517207710854, 0};
Point(p18 + 35) = {25.10406791863229, 0.439429081367712, 0};
Point(p18 + 36) = {25.24594527922892, 0.6055461274634644, 0};
Point(p18 + 37) = {25.36008946284456, 0.7918125060725975, 0};
Point(p18 + 38) = {25.44368986085579, 0.9936417207710854, 0};
Point(p18 + 39) = {25.49468795400974, 1.206064066460291, 0};
Spline(18) = {14, p18 + 1, p18 + 2, p18 + 3, p18 + 4, p18 + 5, p18 + 6, p18 + 7, p18 + 8, p18 + 9, p18 + 10, p18 + 11, p18 + 12, p18 + 13, p18 + 14, p18 + 15, p18 + 16, p18 + 17, p18 + 18, p18 + 19, p18 + 20, p18 + 21, p18 + 22, p18 + 23, p18 + 24, p18 + 25, p18 + 26, p18 + 27, p18 + 28, p18 + 29, p18 + 30, p18 + 31, p18 + 32, p18 + 33, p18 + 34, p18 + 35, p18 + 36, p18 + 37, p18 + 38, p18 + 39, 14};
Line(19) = {12, 8};
Line(20) = {13, 9};
Line(21) = {14, 10};
Curve Loop(1) = {-1, 4, 3, -2};
Plane Surface(1) = {1};
Curve Loop(2) = {-5, 1, 7, -6};
Plane Surface(2) = {2};
Curve Loop(3) = {-2, 7, 9, -8, -10, -11, -12};
Plane Surface(3) = {3};
Curve Loop(4) = {-13, 3, 8, -14};
Plane Surface(4) = {4};
Curve Loop(5) = {-4, 5, 15, -13, -16, -17, -18};
Plane Surface(5) = {5};
Curve Loop(6) = {-6, 15, 14, -9};
Plane Surface(6) = {6};
Curve Loop(7) = {-10, -19, 16, 19};
Surface(7) = {7};
Curve Loop(8) = {-11, -20, 17, 20};
Surface(8) = {8};
Curve Loop(9) = {-12, -21, 18, 21};
Surface(9) = {9};
Surface Loop(1) = {1, 2, 3, 4, 5, 6, 7, 8, 9};
Volume(1) = {1};
Physical Surface("INFLOW") = {1};
Physical Surface("OUTFLOW") = {6};
Physical Surface("OBSTACLE") = {7};
Physical Surface("WALL_Y") = {2, 4};
Physical Surface("WALL_Z") = {3, 5};
Physical Volume("FLUID") = {1};
