cl__1 = 3.131633;
cl__2 = 0.666316;
cl__3 = 0.612115;
cl__4 = 0.108647;
Point(1) = {0.831772, -4.580265, 1, cl__1};
Point(2) = {0.831772, -4.580265, 0, cl__1};
Point(3) = {0.831772, 4.766725, 1, cl__1};
Point(4) = {0.831772, 4.766725, 0, cl__1};
Point(5) = {30.965644, -4.580265, 0, cl__2};
Point(6) = {30.965644, -4.580265, 1, cl__2};
Point(7) = {30.965644, 4.766725, 1, cl__3};
Point(8) = {26.223424, 0.5268969999999996, 1, cl__4};
Point(9) = {30.965644, 4.766725, 0, cl__3};
Point(10) = {26.223424, 0.5268969999999996, 0, cl__4};
Line(1) = {2, 1};
Line(2) = {1, 3};
Line(3) = {4, 3};
Line(4) = {2, 4};
Line(5) = {2, 5};
Line(6) = {5, 6};
Line(7) = {1, 6};
Line(8) = {3, 7};
Line(9) = {6, 7};
p10 = newp;
Point(p10 + 1) = {26.2100478129647, 0.6968575710599344, 1};
Point(p10 + 2) = {26.17024861797661, 0.8626331487935772, 1};
Point(p10 + 3) = {26.10500640330232, 1.020141788299527, 1};
Point(p10 + 4) = {26.01592764879358, 1.165505104131942, 1};
Point(p10 + 5) = {25.90520576902184, 1.295143769021842, 1};
Point(p10 + 6) = {25.77556710413194, 1.405865648793577, 1};
Point(p10 + 7) = {25.63020378829953, 1.494944403302315, 1};
Point(p10 + 8) = {25.47269514879358, 1.560186617976614, 1};
Point(p10 + 9) = {25.30691957105994, 1.599985812964696, 1};
Point(p10 + 10) = {25.136959, 1.613362, 1};
Point(p10 + 11) = {24.96699842894007, 1.599985812964696, 1};
Point(p10 + 12) = {24.80122285120643, 1.560186617976614, 1};
Point(p10 + 13) = {24.64371421170047, 1.494944403302315, 1};
Point(p10 + 14) = {24.49835089586806, 1.405865648793577, 1};
Point(p10 + 15) = {24.36871223097816, 1.295143769021842, 1};
Point(p10 + 16) = {24.25799035120642, 1.165505104131942, 1};
Point(p10 + 17) = {24.16891159669769, 1.020141788299527, 1};
Point(p10 + 18) = {24.10366938202339, 0.8626331487935772, 1};
Point(p10 + 19) = {24.06387018703531, 0.6968575710599345, 1};
Point(p10 + 20) = {24.050494, 0.5268970000000001, 1};
Point(p10 + 21) = {24.06387018703531, 0.3569364289400657, 1};
Point(p10 + 22) = {24.10366938202339, 0.1911608512064223, 1};
Point(p10 + 23) = {24.16891159669769, 0.03365221170047383, 1};
Point(p10 + 24) = {24.25799035120642, -0.1117111041319417, 1};
Point(p10 + 25) = {24.36871223097816, -0.2413497690218424, 1};
Point(p10 + 26) = {24.49835089586806, -0.3520716487935772, 1};
Point(p10 + 27) = {24.64371421170047, -0.441150403302315, 1};
Point(p10 + 28) = {24.80122285120642, -0.5063926179766141, 1};
Point(p10 + 29) = {24.96699842894007, -0.5461918129646963, 1};
Point(p10 + 30) = {25.136959, -0.5595680000000001, 1};
Point(p10 + 31) = {25.30691957105994, -0.5461918129646963, 1};
Point(p10 + 32) = {25.47269514879358, -0.5063926179766141, 1};
Point(p10 + 33) = {25.63020378829953, -0.4411504033023151, 1};
Point(p10 + 34) = {25.77556710413194, -0.3520716487935774, 1};
Point(p10 + 35) = {25.90520576902184, -0.2413497690218426, 1};
Point(p10 + 36) = {26.01592764879358, -0.1117111041319421, 1};
Point(p10 + 37) = {26.10500640330232, 0.03365221170047306, 1};
Point(p10 + 38) = {26.17024861797661, 0.1911608512064225, 1};
Point(p10 + 39) = {26.2100478129647, 0.3569364289400653, 1};
Spline(10) = {8, p10 + 1, p10 + 2, p10 + 3, p10 + 4, p10 + 5, p10 + 6, p10 + 7, p10 + 8, p10 + 9, p10 + 10, p10 + 11, p10 + 12, p10 + 13, p10 + 14, p10 + 15, p10 + 16, p10 + 17, p10 + 18, p10 + 19, p10 + 20, p10 + 21, p10 + 22, p10 + 23, p10 + 24, p10 + 25, p10 + 26, p10 + 27, p10 + 28, p10 + 29, p10 + 30, p10 + 31, p10 + 32, p10 + 33, p10 + 34, p10 + 35, p10 + 36, p10 + 37, p10 + 38, p10 + 39, 8};
Line(11) = {4, 9};
Line(12) = {9, 7};
Line(13) = {5, 9};
p14 = newp;
Point(p14 + 1) = {26.2100478129647, 0.6968575710599344, 0};
Point(p14 + 2) = {26.17024861797661, 0.8626331487935772, 0};
Point(p14 + 3) = {26.10500640330232, 1.020141788299527, 0};
Point(p14 + 4) = {26.01592764879358, 1.165505104131942, 0};
Point(p14 + 5) = {25.90520576902184, 1.295143769021842, 0};
Point(p14 + 6) = {25.77556710413194, 1.405865648793577, 0};
Point(p14 + 7) = {25.63020378829953, 1.494944403302315, 0};
Point(p14 + 8) = {25.47269514879358, 1.560186617976614, 0};
Point(p14 + 9) = {25.30691957105994, 1.599985812964696, 0};
Point(p14 + 10) = {25.136959, 1.613362, 0};
Point(p14 + 11) = {24.96699842894007, 1.599985812964696, 0};
Point(p14 + 12) = {24.80122285120643, 1.560186617976614, 0};
Point(p14 + 13) = {24.64371421170047, 1.494944403302315, 0};
Point(p14 + 14) = {24.49835089586806, 1.405865648793577, 0};
Point(p14 + 15) = {24.36871223097816, 1.295143769021842, 0};
Point(p14 + 16) = {24.25799035120642, 1.165505104131942, 0};
Point(p14 + 17) = {24.16891159669769, 1.020141788299527, 0};
Point(p14 + 18) = {24.10366938202339, 0.8626331487935772, 0};
Point(p14 + 19) = {24.06387018703531, 0.6968575710599345, 0};
Point(p14 + 20) = {24.050494, 0.5268970000000001, 0};
Point(p14 + 21) = {24.06387018703531, 0.3569364289400657, 0};
Point(p14 + 22) = {24.10366938202339, 0.1911608512064223, 0};
Point(p14 + 23) = {24.16891159669769, 0.03365221170047383, 0};
Point(p14 + 24) = {24.25799035120642, -0.1117111041319417, 0};
Point(p14 + 25) = {24.36871223097816, -0.2413497690218424, 0};
Point(p14 + 26) = {24.49835089586806, -0.3520716487935772, 0};
Point(p14 + 27) = {24.64371421170047, -0.441150403302315, 0};
Point(p14 + 28) = {24.80122285120642, -0.5063926179766141, 0};
Point(p14 + 29) = {24.96699842894007, -0.5461918129646963, 0};
Point(p14 + 30) = {25.136959, -0.5595680000000001, 0};
Point(p14 + 31) = {25.30691957105994, -0.5461918129646963, 0};
Point(p14 + 32) = {25.47269514879358, -0.5063926179766141, 0};
Point(p14 + 33) = {25.63020378829953, -0.4411504033023151, 0};
Point(p14 + 34) = {25.77556710413194, -0.3520716487935774, 0};
Point(p14 + 35) = {25.90520576902184, -0.2413497690218426, 0};
Point(p14 + 36) = {26.01592764879358, -0.1117111041319421, 0};
Point(p14 + 37) = {26.10500640330232, 0.03365221170047306, 0};
Point(p14 + 38) = {26.17024861797661, 0.1911608512064225, 0};
Point(p14 + 39) = {26.2100478129647, 0.3569364289400653, 0};
Spline(14) = {10, p14 + 1, p14 + 2, p14 + 3, p14 + 4, p14 + 5, p14 + 6, p14 + 7, p14 + 8, p14 + 9, p14 + 10, p14 + 11, p14 + 12, p14 + 13, p14 + 14, p14 + 15, p14 + 16, p14 + 17, p14 + 18, p14 + 19, p14 + 20, p14 + 21, p14 + 22, p14 + 23, p14 + 24, p14 + 25, p14 + 26, p14 + 27, p14 + 28, p14 + 29, p14 + 30, p14 + 31, p14 + 32, p14 + 33, p14 + 34, p14 + 35, p14 + 36, p14 + 37, p14 + 38, p14 + 39, 10};
Line(15) = {10, 8};
Curve Loop(1) = {-1, 4, 3, -2};
Plane Surface(1) = {1};
Curve Loop(2) = {-5, 1, 7, -6};
Plane Surface(2) = {2};
Curve Loop(3) = {-2, 7, 9, -8, -10};
Plane Surface(3) = {3};
Curve Loop(4) = {-11, 3, 8, -12};
Plane Surface(4) = {4};
Curve Loop(5) = {-4, 5, 13, -11, -14};
Plane Surface(5) = {5};
Curve Loop(6) = {-6, 13, 12, -9};
Plane Surface(6) = {6};
Curve Loop(7) = {-10, -15, 14, 15};
Surface(7) = {7};
Surface Loop(1) = {1, 2, 3, 4, 5, 6, 7};
Volume(1) = {1};
Physical Surface("INFLOW") = {1};
Physical Surface("OUTFLOW") = {6};
Physical Surface("OBSTACLE") = {7};
Physical Surface("WALL_Y") = {2, 4};
Physical Surface("WALL_Z") = {3, 5};
Physical Volume("FLUID") = {1};
