cl__1 = 1.421836;
cl__2 = 1.475192;
cl__3 = 0.508433;
cl__4 = 0.561993;
cl__5 = 0.142635;
cl__6 = 0.06864199999999999;
Point(1) = {0.86741, -3.576465, 1, cl__1};
Point(2) = {0.86741, -3.576465, 0, cl__1};
Point(3) = {0.86741, 4.875288, 1, cl__2};
Point(4) = {0.86741, 4.875288, 0, cl__2};
Point(5) = {32.311686, -3.576465, 0, cl__3};
Point(6) = {32.311686, -3.576465, 1, cl__3};
Point(7) = {32.311686, 4.875288, 1, cl__4};
Point(8) = {17.603222, -0.3550900000000004, 1, cl__5};
Point(9) = {28.693306, 0.2667429999999998, 1, cl__6};
Point(10) = {32.311686, 4.875288, 0, cl__4};
Point(11) = {17.603222, -0.3550900000000004, 0, cl__5};
Point(12) = {28.693306, 0.2667429999999998, 0, cl__6};
Line(1) = {2, 1};
Line(2) = {1, 3};
Line(3) = {4, 3};
Line(4) = {2, 4};
Line(5) = {2, 5};
Line(6) = {5, 6};
Line(7) = {1, 6};
Line(8) = {3, 7};
Line(9) = {6, 7};
p10 = newp;
Point(p10 + 1) = {17.58566126460788, -0.1319597007898667, 1};
Point(p10 + 2) = {17.53341146201759, 0.08567638992670618, 1};
Point(p10 + 3) = {17.44775915577608, 0.2924593493035025, 1};
Point(p10 + 4) = {17.33081338992671, 0.483297494607369, 1};
Point(p10 + 5) = {17.18545375734543, 0.6534917573454319, 1};
Point(p10 + 6) = {17.01525949460737, 0.7988513899267063, 1};
Point(p10 + 7) = {16.8244213493035, 0.9157971557760783, 1};
Point(p10 + 8) = {16.61763838992671, 1.001449462017592, 1};
Point(p10 + 9) = {16.40000229921013, 1.053699264607875, 1};
Point(p10 + 10) = {16.176872, 1.07126, 1};
Point(p10 + 11) = {15.95374170078987, 1.053699264607875, 1};
Point(p10 + 12) = {15.73610561007329, 1.001449462017592, 1};
Point(p10 + 13) = {15.5293226506965, 0.9157971557760786, 1};
Point(p10 + 14) = {15.33848450539263, 0.7988513899267063, 1};
Point(p10 + 15) = {15.16829024265457, 0.6534917573454321, 1};
Point(p10 + 16) = {15.02293061007329, 0.4832974946073693, 1};
Point(p10 + 17) = {14.90598484422392, 0.2924593493035027, 1};
Point(p10 + 18) = {14.82033253798241, 0.08567638992670634, 1};
Point(p10 + 19) = {14.76808273539213, -0.1319597007898665, 1};
Point(p10 + 20) = {14.750522, -0.3550899999999999, 1};
Point(p10 + 21) = {14.76808273539212, -0.5782202992101331, 1};
Point(p10 + 22) = {14.82033253798241, -0.7958563899267067, 1};
Point(p10 + 23) = {14.90598484422392, -1.002639349303502, 1};
Point(p10 + 24) = {15.02293061007329, -1.193477494607369, 1};
Point(p10 + 25) = {15.16829024265457, -1.363671757345432, 1};
Point(p10 + 26) = {15.33848450539263, -1.509031389926706, 1};
Point(p10 + 27) = {15.5293226506965, -1.625977155776078, 1};
Point(p10 + 28) = {15.73610561007329, -1.711629462017592, 1};
Point(p10 + 29) = {15.95374170078987, -1.763879264607874, 1};
Point(p10 + 30) = {16.176872, -1.78144, 1};
Point(p10 + 31) = {16.40000229921013, -1.763879264607875, 1};
Point(p10 + 32) = {16.6176383899267, -1.711629462017592, 1};
Point(p10 + 33) = {16.8244213493035, -1.625977155776078, 1};
Point(p10 + 34) = {17.01525949460737, -1.509031389926706, 1};
Point(p10 + 35) = {17.18545375734543, -1.363671757345432, 1};
Point(p10 + 36) = {17.33081338992671, -1.193477494607369, 1};
Point(p10 + 37) = {17.44775915577608, -1.002639349303503, 1};
Point(p10 + 38) = {17.53341146201759, -0.7958563899267066, 1};
Point(p10 + 39) = {17.58566126460788, -0.5782202992101336, 1};
Spline(10) = {8, p10 + 1, p10 + 2, p10 + 3, p10 + 4, p10 + 5, p10 + 6, p10 + 7, p10 + 8, p10 + 9, p10 + 10, p10 + 11, p10 + 12, p10 + 13, p10 + 14, p10 + 15, p10 + 16, p10 + 17, p10 + 18, p10 + 19, p10 + 20, p10 + 21, p10 + 22, p10 + 23, p10 + 24, p10 + 25, p10 + 26, p10 + 27, p10 + 28, p10 + 29, p10 + 30, p10 + 31, p10 + 32, p10 + 33, p10 + 34, p10 + 35, p10 + 36, p10 + 37, p10 + 38, p10 + 39, 8};
p11 = newp;
Point(p11 + 1) = {28.68485506768629, 0.3741222761895202, 1};
Point(p11 + 2) = {28.65971036074577, 0.4788575182278683, 1};
Point(p11 + 3) = {28.61849102531381, 0.5783697968597206, 1};
Point(p11 + 4) = {28.56221201822787, 0.6702087895228426, 1};
Point(p11 + 5) = {28.49225911542173, 0.7521131154217264, 1};
Point(p11 + 6) = {28.41035478952285, 0.8220660182278683, 1};
Point(p11 + 7) = {28.31851579685972, 0.878345025313807, 1};
Point(p11 + 8) = {28.21900351822787, 0.9195643607457704, 1};
Point(p11 + 9) = {28.11426827618952, 0.9447090676862928, 1};
Point(p11 + 10) = {28.006889, 0.95316, 1};
Point(p11 + 11) = {27.89950972381048, 0.9447090676862926, 1};
Point(p11 + 12) = {27.79477448177213, 0.9195643607457706, 1};
Point(p11 + 13) = {27.69526220314028, 0.878345025313807, 1};
Point(p11 + 14) = {27.60342321047716, 0.8220660182278683, 1};
Point(p11 + 15) = {27.52151888457827, 0.7521131154217264, 1};
Point(p11 + 16) = {27.45156598177213, 0.6702087895228426, 1};
Point(p11 + 17) = {27.39528697468619, 0.5783697968597206, 1};
Point(p11 + 18) = {27.35406763925423, 0.4788575182278684, 1};
Point(p11 + 19) = {27.32892293231371, 0.3741222761895203, 1};
Point(p11 + 20) = {27.320472, 0.2667430000000001, 1};
Point(p11 + 21) = {27.32892293231371, 0.1593637238104799, 1};
Point(p11 + 22) = {27.35406763925423, 0.0546284817721315, 1};
Point(p11 + 23) = {27.39528697468619, -0.04488379685972016, 1};
Point(p11 + 24) = {27.45156598177213, -0.1367227895228425, 1};
Point(p11 + 25) = {27.52151888457827, -0.2186271154217264, 1};
Point(p11 + 26) = {27.60342321047716, -0.2885800182278682, 1};
Point(p11 + 27) = {27.69526220314028, -0.3448590253138069, 1};
Point(p11 + 28) = {27.79477448177213, -0.3860783607457705, 1};
Point(p11 + 29) = {27.89950972381048, -0.4112230676862926, 1};
Point(p11 + 30) = {28.006889, -0.419674, 1};
Point(p11 + 31) = {28.11426827618952, -0.4112230676862927, 1};
Point(p11 + 32) = {28.21900351822787, -0.3860783607457706, 1};
Point(p11 + 33) = {28.31851579685972, -0.344859025313807, 1};
Point(p11 + 34) = {28.41035478952284, -0.2885800182278684, 1};
Point(p11 + 35) = {28.49225911542173, -0.2186271154217265, 1};
Point(p11 + 36) = {28.56221201822787, -0.1367227895228427, 1};
Point(p11 + 37) = {28.61849102531381, -0.0448837968597206, 1};
Point(p11 + 38) = {28.65971036074577, 0.05462848177213156, 1};
Point(p11 + 39) = {28.68485506768629, 0.1593637238104797, 1};
Spline(11) = {9, p11 + 1, p11 + 2, p11 + 3, p11 + 4, p11 + 5, p11 + 6, p11 + 7, p11 + 8, p11 + 9, p11 + 10, p11 + 11, p11 + 12, p11 + 13, p11 + 14, p11 + 15, p11 + 16, p11 + 17, p11 + 18, p11 + 19, p11 + 20, p11 + 21, p11 + 22, p11 + 23, p11 + 24, p11 + 25, p11 + 26, p11 + 27, p11 + 28, p11 + 29, p11 + 30, p11 + 31, p11 + 32, p11 + 33, p11 + 34, p11 + 35, p11 + 36, p11 + 37, p11 + 38, p11 + 39, 9};
Line(12) = {4, 10};
Line(13) = {10, 7};
Line(14) = {5, 10};
p15 = newp;
Point(p15 + 1) = {17.58566126460788, -0.1319597007898667, 0};
Point(p15 + 2) = {17.53341146201759, 0.08567638992670618, 0};
Point(p15 + 3) = {17.44775915577608, 0.2924593493035025, 0};
Point(p15 + 4) = {17.33081338992671, 0.483297494607369, 0};
Point(p15 + 5) = {17.18545375734543, 0.6534917573454319, 0};
Point(p15 + 6) = {17.01525949460737, 0.7988513899267063, 0};
Point(p15 + 7) = {16.8244213493035, 0.9157971557760783, 0};
Point(p15 + 8) = {16.61763838992671, 1.001449462017592, 0};
Point(p15 + 9) = {16.40000229921013, 1.053699264607875, 0};
Point(p15 + 10) = {16.176872, 1.07126, 0};
Point(p15 + 11) = {15.95374170078987, 1.053699264607875, 0};
Point(p15 + 12) = {15.73610561007329, 1.001449462017592, 0};
Point(p15 + 13) = {15.5293226506965, 0.9157971557760786, 0};
Point(p15 + 14) = {15.33848450539263, 0.7988513899267063, 0};
Point(p15 + 15) = {15.16829024265457, 0.6534917573454321, 0};
Point(p15 + 16) = {15.02293061007329, 0.4832974946073693, 0};
Point(p15 + 17) = {14.90598484422392, 0.2924593493035027, 0};
Point(p15 + 18) = {14.82033253798241, 0.08567638992670634, 0};
Point(p15 + 19) = {14.76808273539213, -0.1319597007898665, 0};
Point(p15 + 20) = {14.750522, -0.3550899999999999, 0};
Point(p15 + 21) = {14.76808273539212, -0.5782202992101331, 0};
Point(p15 + 22) = {14.82033253798241, -0.7958563899267067, 0};
Point(p15 + 23) = {14.90598484422392, -1.002639349303502, 0};
Point(p15 + 24) = {15.02293061007329, -1.193477494607369, 0};
Point(p15 + 25) = {15.16829024265457, -1.363671757345432, 0};
Point(p15 + 26) = {15.33848450539263, -1.509031389926706, 0};
Point(p15 + 27) = {15.5293226506965, -1.625977155776078, 0};
Point(p15 + 28) = {15.73610561007329, -1.711629462017592, 0};
Point(p15 + 29) = {15.95374170078987, -1.763879264607874, 0};
Point(p15 + 30) = {16.176872, -1.78144, 0};
Point(p15 + 31) = {16.40000229921013, -1.763879264607875, 0};
Point(p15 + 32) = {16.6176383899267, -1.711629462017592, 0};
Point(p15 + 33) = {16.8244213493035, -1.625977155776078, 0};
Point(p15 + 34) = {17.01525949460737, -1.509031389926706, 0};
Point(p15 + 35) = {17.18545375734543, -1.363671757345432, 0};
Point(p15 + 36) = {17.33081338992671, -1.193477494607369, 0};
Point(p15 + 37) = {17.44775915577608, -1.002639349303503, 0};
Point(p15 + 38) = {17.53341146201759, -0.7958563899267066, 0};
Point(p15 + 39) = {17.58566126460788, -0.5782202992101336, 0};
Spline(15) = {11, p15 + 1, p15 + 2, p15 + 3, p15 + 4, p15 + 5, p15 + 6, p15 + 7, p15 + 8, p15 + 9, p15 + 10, p15 + 11, p15 + 12, p15 + 13, p15 + 14, p15 + 15, p15 + 16, p15 + 17, p15 + 18, p15 + 19, p15 + 20, p15 + 21, p15 + 22, p15 + 23, p15 + 24, p15 + 25, p15 + 26, p15 + 27, p15 + 28, p15 + 29, p15 + 30, p15 + 31, p15 + 32, p15 + 33, p15 + 34, p15 + 35, p15 + 36, p15 + 37, p15 + 38, p15 + 39, 11};
p16 = newp;
Point(p16 + 1) = {28.68485506768629, 0.3741222761895202, 0};
Point(p16 + 2) = {28.65971036074577, 0.4788575182278683, 0};
Point(p16 + 3) = {28.61849102531381, 0.5783697968597206, 0};
Point(p16 + 4) = {28.56221201822787, 0.6702087895228426, 0};
Point(p16 + 5) = {28.49225911542173, 0.7521131154217264, 0};
Point(p16 + 6) = {28.41035478952285, 0.8220660182278683, 0};
Point(p16 + 7) = {28.31851579685972, 0.878345025313807, 0};
Point(p16 + 8) = {28.21900351822787, 0.9195643607457704, 0};
Point(p16 + 9) = {28.11426827618952, 0.9447090676862928, 0};
Point(p16 + 10) = {28.006889, 0.95316, 0};
Point(p16 + 11) = {27.89950972381048, 0.9447090676862926, 0};
Point(p16 + 12) = {27.79477448177213, 0.9195643607457706, 0};
Point(p16 + 13) = {27.69526220314028, 0.878345025313807, 0};
Point(p16 + 14) = {27.60342321047716, 0.8220660182278683, 0};
Point(p16 + 15) = {27.52151888457827, 0.7521131154217264, 0};
Point(p16 + 16) = {27.45156598177213, 0.6702087895228426, 0};
Point(p16 + 17) = {27.39528697468619, 0.5783697968597206, 0};
Point(p16 + 18) = {27.35406763925423, 0.4788575182278684, 0};
Point(p16 + 19) = {27.32892293231371, 0.3741222761895203, 0};
Point(p16 + 20) = {27.320472, 0.2667430000000001, 0};
Point(p16 + 21) = {27.32892293231371, 0.1593637238104799, 0};
Point(p16 + 22) = {27.35406763925423, 0.0546284817721315, 0};
Point(p16 + 23) = {27.39528697468619, -0.04488379685972016, 0};
Point(p16 + 24) = {27.45156598177213, -0.1367227895228425, 0};
Point(p16 + 25) = {27.52151888457827, -0.2186271154217264, 0};
Point(p16 + 26) = {27.60342321047716, -0.2885800182278682, 0};
Point(p16 + 27) = {27.69526220314028, -0.3448590253138069, 0};
Point(p16 + 28) = {27.79477448177213, -0.3860783607457705, 0};
Point(p16 + 29) = {27.89950972381048, -0.4112230676862926, 0};
Point(p16 + 30) = {28.006889, -0.419674, 0};
Point(p16 + 31) = {28.11426827618952, -0.4112230676862927, 0};
Point(p16 + 32) = {28.21900351822787, -0.3860783607457706, 0};
Point(p16 + 33) = {28.31851579685972, -0.344859025313807, 0};
Point(p16 + 34) = {28.41035478952284, -0.2885800182278684, 0};
Point(p16 + 35) = {28.49225911542173, -0.2186271154217265, 0};
Point(p16 + 36) = {28.56221201822787, -0.1367227895228427, 0};
Point(p16 + 37) = {28.61849102531381, -0.0448837968597206, 0};
Point(p16 + 38) = {28.65971036074577, 0.05462848177213156, 0};
Point(p16 + 39) = {28.68485506768629, 0.1593637238104797, 0};
Spline(16) = {12, p16 + 1, p16 + 2, p16 + 3, p16 + 4, p16 + 5, p16 + 6, p16 + 7, p16 + 8, p16 + 9, p16 + 10, p16 + 11, p16 + 12, p16 + 13, p16 + 14, p16 + 15, p16 + 16, p16 + 17, p16 + 18, p16 + 19, p16 + 20, p16 + 21, p16 + 22, p16 + 23, p16 + 24, p16 + 25, p16 + 26, p16 + 27, p16 + 28, p16 + 29, p16 + 30, p16 + 31, p16 + 32, p16 + 33, p16 + 34, p16 + 35, p16 + 36, p16 + 37, p16 + 38, p16 + 39, 12};
Line(17) = {11, 8};
Line(18) = {12, 9};
Curve Loop(1) = {-1, 4, 3, -2};
Plane Surface(1) = {1};
Curve Loop(2) = {-5, 1, 7, -6};
Plane Surface(2) = {2};
Curve Loop(3) = {-2, 7, 9, -8, -10, -11};
Plane Surface(3) = {3};
Curve Loop(4) = {-12, 3, 8, -13};
Plane Surface(4) = {4};
Curve Loop(5) = {-4, 5, 14, -12, -15, -16};
Plane Surface(5) = {5};
Curve Loop(6) = {-6, 14, 13, -9};
Plane Surface(6) = {6};
Curve Loop(7) = {-10, -17, 15, 17};
Surface(7) = {7};
Curve Loop(8) = {-11, -18, 16, 18};
Surface(8) = {8};
Surface Loop(1) = {1, 2, 3, 4, 5, 6, 7, 8};
Volume(1) = {1};
Physical Surface("INFLOW") = {1};
Physical Surface("OUTFLOW") = {6};
Physical Surface("OBSTACLE") = {7, 8};
Physical Surface("WALL_Y") = {2, 4};
Physical Surface("WALL_Z") = {3, 5};
Physical Volume("FLUID") = {1};
