cl__1 = 0.979382;
cl__2 = 1.003148;
cl__3 = 1.879807;
cl__4 = 1.81662;
cl__5 = 0.143632;
cl__6 = 0.068325;
Point(1) = {0.512526, -3.378295, 1, cl__1};
Point(2) = {0.512526, -3.378295, 0, cl__1};
Point(3) = {0.512526, 4.528822999999999, 1, cl__2};
Point(4) = {0.512526, 4.528822999999999, 0, cl__2};
Point(5) = {38.452801, -3.378295, 0, cl__3};
Point(6) = {38.452801, -3.378295, 1, cl__3};
Point(7) = {38.452801, 4.528822999999999, 1, cl__4};
Point(8) = {12.5821, 0.2341479999999996, 1, cl__5};
Point(9) = {20.442853, 2.106792, 1, cl__6};
Point(10) = {38.452801, 4.528822999999999, 0, cl__4};
Point(11) = {12.5821, 0.2341479999999996, 0, cl__5};
Point(12) = {20.442853, 2.106792, 0, cl__6};
Line(1) = {2, 1};
Line(2) = {1, 3};
Line(3) = {4, 3};
Line(4) = {2, 4};
Line(5) = {2, 5};
Line(6) = {5, 6};
Line(7) = {1, 6};
Line(8) = {3, 7};
Line(9) = {6, 7};
p10 = newp;
Point(p10 + 1) = {12.56441655429859, 0.4588374815231893, 1};
Point(p10 + 2) = {12.51180164231551, 0.6779943623096414, 1};
Point(p10 + 3) = {12.42555081780266, 0.8862222726144067, 1};
Point(p10 + 4) = {12.30778786230964, 1.078393950216968, 1};
Point(p10 + 5) = {12.16141249063352, 1.249777490633518, 1};
Point(p10 + 6) = {11.99002895021697, 1.396152862309642, 1};
Point(p10 + 7) = {11.79785727261441, 1.513915817802664, 1};
Point(p10 + 8) = {11.58962936230964, 1.600166642315506, 1};
Point(p10 + 9) = {11.37047248152319, 1.652781554298587, 1};
Point(p10 + 10) = {11.145783, 1.670465, 1};
Point(p10 + 11) = {10.92109351847681, 1.652781554298586, 1};
Point(p10 + 12) = {10.70193663769036, 1.600166642315506, 1};
Point(p10 + 13) = {10.49370872738559, 1.513915817802664, 1};
Point(p10 + 14) = {10.30153704978303, 1.396152862309642, 1};
Point(p10 + 15) = {10.13015350936648, 1.249777490633519, 1};
Point(p10 + 16) = {9.983778137690358, 1.078393950216968, 1};
Point(p10 + 17) = {9.866015182197335, 0.8862222726144068, 1};
Point(p10 + 18) = {9.779764357684494, 0.6779943623096415, 1};
Point(p10 + 19) = {9.727149445701414, 0.4588374815231895, 1};
Point(p10 + 20) = {9.709465999999999, 0.2341480000000002, 1};
Point(p10 + 21) = {9.727149445701412, 0.009458518476810895, 1};
Point(p10 + 22) = {9.779764357684494, -0.2096983623096418, 1};
Point(p10 + 23) = {9.866015182197335, -0.4179262726144058, 1};
Point(p10 + 24) = {9.983778137690358, -0.610097950216968, 1};
Point(p10 + 25) = {10.13015350936648, -0.7814814906335183, 1};
Point(p10 + 26) = {10.30153704978303, -0.9278568623096413, 1};
Point(p10 + 27) = {10.49370872738559, -1.045619817802664, 1};
Point(p10 + 28) = {10.70193663769036, -1.131870642315506, 1};
Point(p10 + 29) = {10.92109351847681, -1.184485554298586, 1};
Point(p10 + 30) = {11.145783, -1.202169, 1};
Point(p10 + 31) = {11.37047248152319, -1.184485554298587, 1};
Point(p10 + 32) = {11.58962936230964, -1.131870642315506, 1};
Point(p10 + 33) = {11.79785727261441, -1.045619817802664, 1};
Point(p10 + 34) = {11.99002895021697, -0.9278568623096415, 1};
Point(p10 + 35) = {12.16141249063352, -0.7814814906335186, 1};
Point(p10 + 36) = {12.30778786230964, -0.6100979502169684, 1};
Point(p10 + 37) = {12.42555081780266, -0.4179262726144068, 1};
Point(p10 + 38) = {12.51180164231551, -0.2096983623096416, 1};
Point(p10 + 39) = {12.56441655429859, 0.009458518476810396, 1};
Spline(10) = {8, p10 + 1, p10 + 2, p10 + 3, p10 + 4, p10 + 5, p10 + 6, p10 + 7, p10 + 8, p10 + 9, p10 + 10, p10 + 11, p10 + 12, p10 + 13, p10 + 14, p10 + 15, p10 + 16, p10 + 17, p10 + 18, p10 + 19, p10 + 20, p10 + 21, p10 + 22, p10 + 23, p10 + 24, p10 + 25, p10 + 26, p10 + 27, p10 + 28, p10 + 29, p10 + 30, p10 + 31, p10 + 32, p10 + 33, p10 + 34, p10 + 35, p10 + 36, p10 + 37, p10 + 38, p10 + 39, 8};
p11 = newp;
Point(p11 + 1) = {20.43444109564661, 2.213675378935342, 1};
Point(p11 + 2) = {20.40941251158912, 2.3179269343557, 1};
Point(p11 + 3) = {20.36838353463213, 2.416979646975546, 1};
Point(p11 + 4) = {20.3123644343557, 2.508394510273075, 1};
Point(p11 + 5) = {20.24273458692537, 2.589920586925365, 1};
Point(p11 + 6) = {20.16120851027308, 2.6595504343557, 1};
Point(p11 + 7) = {20.06979364697555, 2.71556953463213, 1};
Point(p11 + 8) = {19.9707409343557, 2.756598511589115, 1};
Point(p11 + 9) = {19.86648937893534, 2.781627095646606, 1};
Point(p11 + 10) = {19.759606, 2.790039, 1};
Point(p11 + 11) = {19.65272262106466, 2.781627095646606, 1};
Point(p11 + 12) = {19.5484710656443, 2.756598511589115, 1};
Point(p11 + 13) = {19.44941835302446, 2.71556953463213, 1};
Point(p11 + 14) = {19.35800348972693, 2.6595504343557, 1};
Point(p11 + 15) = {19.27647741307464, 2.589920586925365, 1};
Point(p11 + 16) = {19.2068475656443, 2.508394510273075, 1};
Point(p11 + 17) = {19.15082846536787, 2.416979646975546, 1};
Point(p11 + 18) = {19.10979948841089, 2.3179269343557, 1};
Point(p11 + 19) = {19.08477090435339, 2.213675378935342, 1};
Point(p11 + 20) = {19.076359, 2.106792, 1};
Point(p11 + 21) = {19.08477090435339, 1.999908621064657, 1};
Point(p11 + 22) = {19.10979948841089, 1.8956570656443, 1};
Point(p11 + 23) = {19.15082846536787, 1.796604353024454, 1};
Point(p11 + 24) = {19.2068475656443, 1.705189489726925, 1};
Point(p11 + 25) = {19.27647741307464, 1.623663413074635, 1};
Point(p11 + 26) = {19.35800348972693, 1.5540335656443, 1};
Point(p11 + 27) = {19.44941835302446, 1.49801446536787, 1};
Point(p11 + 28) = {19.5484710656443, 1.456985488410885, 1};
Point(p11 + 29) = {19.65272262106466, 1.431956904353394, 1};
Point(p11 + 30) = {19.759606, 1.423545, 1};
Point(p11 + 31) = {19.86648937893534, 1.431956904353394, 1};
Point(p11 + 32) = {19.9707409343557, 1.456985488410885, 1};
Point(p11 + 33) = {20.06979364697555, 1.49801446536787, 1};
Point(p11 + 34) = {20.16120851027308, 1.5540335656443, 1};
Point(p11 + 35) = {20.24273458692537, 1.623663413074635, 1};
Point(p11 + 36) = {20.3123644343557, 1.705189489726924, 1};
Point(p11 + 37) = {20.36838353463213, 1.796604353024454, 1};
Point(p11 + 38) = {20.40941251158912, 1.8956570656443, 1};
Point(p11 + 39) = {20.43444109564661, 1.999908621064657, 1};
Spline(11) = {9, p11 + 1, p11 + 2, p11 + 3, p11 + 4, p11 + 5, p11 + 6, p11 + 7, p11 + 8, p11 + 9, p11 + 10, p11 + 11, p11 + 12, p11 + 13, p11 + 14, p11 + 15, p11 + 16, p11 + 17, p11 + 18, p11 + 19, p11 + 20, p11 + 21, p11 + 22, p11 + 23, p11 + 24, p11 + 25, p11 + 26, p11 + 27, p11 + 28, p11 + 29, p11 + 30, p11 + 31, p11 + 32, p11 + 33, p11 + 34, p11 + 35, p11 + 36, p11 + 37, p11 + 38, p11 + 39, 9};
Line(12) = {4, 10};
Line(13) = {10, 7};
Line(14) = {5, 10};
p15 = newp;
Point(p15 + 1) = {12.56441655429859, 0.4588374815231893, 0};
Point(p15 + 2) = {12.51180164231551, 0.6779943623096414, 0};
Point(p15 + 3) = {12.42555081780266, 0.8862222726144067, 0};
Point(p15 + 4) = {12.30778786230964, 1.078393950216968, 0};
Point(p15 + 5) = {12.16141249063352, 1.249777490633518, 0};
Point(p15 + 6) = {11.99002895021697, 1.396152862309642, 0};
Point(p15 + 7) = {11.79785727261441, 1.513915817802664, 0};
Point(p15 + 8) = {11.58962936230964, 1.600166642315506, 0};
Point(p15 + 9) = {11.37047248152319, 1.652781554298587, 0};
Point(p15 + 10) = {11.145783, 1.670465, 0};
Point(p15 + 11) = {10.92109351847681, 1.652781554298586, 0};
Point(p15 + 12) = {10.70193663769036, 1.600166642315506, 0};
Point(p15 + 13) = {10.49370872738559, 1.513915817802664, 0};
Point(p15 + 14) = {10.30153704978303, 1.396152862309642, 0};
Point(p15 + 15) = {10.13015350936648, 1.249777490633519, 0};
Point(p15 + 16) = {9.983778137690358, 1.078393950216968, 0};
Point(p15 + 17) = {9.866015182197335, 0.8862222726144068, 0};
Point(p15 + 18) = {9.779764357684494, 0.6779943623096415, 0};
Point(p15 + 19) = {9.727149445701414, 0.4588374815231895, 0};
Point(p15 + 20) = {9.709465999999999, 0.2341480000000002, 0};
Point(p15 + 21) = {9.727149445701412, 0.009458518476810895, 0};
Point(p15 + 22) = {9.779764357684494, -0.2096983623096418, 0};
Point(p15 + 23) = {9.866015182197335, -0.4179262726144058, 0};
Point(p15 + 24) = {9.983778137690358, -0.610097950216968, 0};
Point(p15 + 25) = {10.13015350936648, -0.7814814906335183, 0};
Point(p15 + 26) = {10.30153704978303, -0.9278568623096413, 0};
Point(p15 + 27) = {10.49370872738559, -1.045619817802664, 0};
Point(p15 + 28) = {10.70193663769036, -1.131870642315506, 0};
Point(p15 + 29) = {10.92109351847681, -1.184485554298586, 0};
Point(p15 + 30) = {11.145783, -1.202169, 0};
Point(p15 + 31) = {11.37047248152319, -1.184485554298587, 0};
Point(p15 + 32) = {11.58962936230964, -1.131870642315506, 0};
Point(p15 + 33) = {11.79785727261441, -1.045619817802664, 0};
Point(p15 + 34) = {11.99002895021697, -0.9278568623096415, 0};
Point(p15 + 35) = {12.16141249063352, -0.7814814906335186, 0};
Point(p15 + 36) = {12.30778786230964, -0.6100979502169684, 0};
Point(p15 + 37) = {12.42555081780266, -0.4179262726144068, 0};
Point(p15 + 38) = {12.51180164231551, -0.2096983623096416, 0};
Point(p15 + 39) = {12.56441655429859, 0.009458518476810396, 0};
Spline(15) = {11, p15 + 1, p15 + 2, p15 + 3, p15 + 4, p15 + 5, p15 + 6, p15 + 7, p15 + 8, p15 + 9, p15 + 10, p15 + 11, p15 + 12, p15 + 13, p15 + 14, p15 + 15, p15 + 16, p15 + 17, p15 + 18, p15 + 19, p15 + 20, p15 + 21, p15 + 22, p15 + 23, p15 + 24, p15 + 25, p15 + 26, p15 + 27, p15 + 28, p15 + 29, p15 + 30, p15 + 31, p15 + 32, p15 + 33, p15 + 34, p15 + 35, p15 + 36, p15 + 37, p15 + 38, p15 + 39, 11};
p16 = newp;
Point(p16 + 1) = {20.43444109564661, 2.213675378935342, 0};
Point(p16 + 2) = {20.40941251158912, 2.3179269343557, 0};
Point(p16 + 3) = {20.36838353463213, 2.416979646975546, 0};
Point(p16 + 4) = {20.3123644343557, 2.508394510273075, 0};
Point(p16 + 5) = {20.24273458692537, 2.589920586925365, 0};
Point(p16 + 6) = {20.16120851027308, 2.6595504343557, 0};
Point(p16 + 7) = {20.06979364697555, 2.71556953463213, 0};
Point(p16 + 8) = {19.9707409343557, 2.756598511589115, 0};
Point(p16 + 9) = {19.86648937893534, 2.781627095646606, 0};
Point(p16 + 10) = {19.759606, 2.790039, 0};
Point(p16 + 11) = {19.65272262106466, 2.781627095646606, 0};
Point(p16 + 12) = {19.5484710656443, 2.756598511589115, 0};
Point(p16 + 13) = {19.44941835302446, 2.71556953463213, 0};
Point(p16 + 14) = {19.35800348972693, 2.6595504343557, 0};
Point(p16 + 15) = {19.27647741307464, 2.589920586925365, 0};
Point(p16 + 16) = {19.2068475656443, 2.508394510273075, 0};
Point(p16 + 17) = {19.15082846536787, 2.416979646975546, 0};
Point(p16 + 18) = {19.10979948841089, 2.3179269343557, 0};
Point(p16 + 19) = {19.08477090435339, 2.213675378935342, 0};
Point(p16 + 20) = {19.076359, 2.106792, 0};
Point(p16 + 21) = {19.08477090435339, 1.999908621064657, 0};
Point(p16 + 22) = {19.10979948841089, 1.8956570656443, 0};
Point(p16 + 23) = {19.15082846536787, 1.796604353024454, 0};
Point(p16 + 24) = {19.2068475656443, 1.705189489726925, 0};
Point(p16 + 25) = {19.27647741307464, 1.623663413074635, 0};
Point(p16 + 26) = {19.35800348972693, 1.5540335656443, 0};
Point(p16 + 27) = {19.44941835302446, 1.49801446536787, 0};
Point(p16 + 28) = {19.5484710656443, 1.456985488410885, 0};
Point(p16 + 29) = {19.65272262106466, 1.431956904353394, 0};
Point(p16 + 30) = {19.759606, 1.423545, 0};
Point(p16 + 31) = {19.86648937893534, 1.431956904353394, 0};
Point(p16 + 32) = {19.9707409343557, 1.456985488410885, 0};
Point(p16 + 33) = {20.06979364697555, 1.49801446536787, 0};
Point(p16 + 34) = {20.16120851027308, 1.5540335656443, 0};
Point(p16 + 35) = {20.24273458692537, 1.623663413074635, 0};
Point(p16 + 36) = {20.3123644343557, 1.705189489726924, 0};
Point(p16 + 37) = {20.36838353463213, 1.796604353024454, 0};
Point(p16 + 38) = {20.40941251158912, 1.8956570656443, 0};
Point(p16 + 39) = {20.43444109564661, 1.999908621064657, 0};
Spline(16) = {12, p16 + 1, p16 + 2, p16 + 3, p16 + 4, p16 + 5, p16 + 6, p16 + 7, p16 + 8, p16 + 9, p16 + 10, p16 + 11, p16 + 12, p16 + 13, p16 + 14, p16 + 15, p16 + 16, p16 + 17, p16 + 18, p16 + 19, p16 + 20, p16 + 21, p16 + 22, p16 + 23, p16 + 24, p16 + 25, p16 + 26, p16 + 27, p16 + 28, p16 + 29, p16 + 30, p16 + 31, p16 + 32, p16 + 33, p16 + 34, p16 + 35, p16 + 36, p16 + 37, p16 + 38, p16 + 39, 12};
Line(17) = {11, 8};
Line(18) = {12, 9};
Curve Loop(1) = {-1, 4, 3, -2};
Plane Surface(1) = {1};
Curve Loop(2) = {-5, 1, 7, -6};
Plane Surface(2) = {2};
Curve Loop(3) = {-2, 7, 9, -8, -10, -11};
Plane Surface(3) = {3};
Curve Loop(4) = {-12, 3, 8, -13};
Plane Surface(4) = {4};
Curve Loop(5) = {-4, 5, 14, -12, -15, -16};
Plane Surface(5) = {5};
Curve Loop(6) = {-6, 14, 13, -9};
Plane Surface(6) = {6};
Curve Loop(7) = {-10, -17, 15, 17};
Surface(7) = {7};
Curve Loop(8) = {-11, -18, 16, 18};
Surface(8) = {8};
Surface Loop(1) = {1, 2, 3, 4, 5, 6, 7, 8};
Volume(1) = {1};
Physical Surface("INFLOW") = {1};
Physical Surface("OUTFLOW") = {6};
Physical Surface("OBSTACLE") = {7, 8};
Physical Surface("WALL_Y") = {2, 4};
Physical Surface("WALL_Z") = {3, 5};
Physical Volume("FLUID") = {1};
