cl__1 = 0.963939;
cl__2 = 3.709309;
cl__3 = 0.119944;
cl__4 = 0.07503899999999999;
Point(1) = {0.958032, -3.712573, 1, cl__1};
Point(2) = {0.958032, -3.712573, 0, cl__1};
Point(3) = {0.958032, 4.11721, 1, cl__2};
Point(4) = {0.958032, 4.11721, 0, cl__2};
Point(5) = {36.885919, -3.712573, 0, cl__1};
Point(6) = {36.885919, -3.712573, 1, cl__1};
Point(7) = {36.885919, 4.11721, 1, cl__2};
Point(8) = {15.818864, -1.52282, 1, cl__3};
Point(9) = {10.857848, 1.21039, 1, cl__4};
Point(10) = {36.885919, 4.11721, 0, cl__2};
Point(11) = {15.818864, -1.52282, 0, cl__3};
Point(12) = {10.857848, 1.21039, 0, cl__4};
Line(1) = {2, 1};
Line(2) = {1, 3};
Line(3) = {4, 3};
Line(4) = {2, 4};
Line(5) = {2, 5};
Line(6) = {5, 6};
Line(7) = {1, 6};
Line(8) = {3, 7};
Line(9) = {6, 7};
p10 = newp;
Point(p10 + 1) = {15.80409689093177, -1.335186088817681, 1};
Point(p10 + 2) = {15.76015917896157, -1.152172347249919, 1};
Point(p10 + 3) = {15.68813275637902, -0.9782851810018984, 1};
Point(p10 + 4) = {15.58979115275008, -0.8178062692050638, 1};
Point(p10 + 5) = {15.46755586473317, -0.6746871352668264, 1};
Point(p10 + 6) = {15.32443673079494, -0.5524518472499187, 1};
Point(p10 + 7) = {15.1639578189981, -0.4541102436209801, 1};
Point(p10 + 8) = {14.99007065275008, -0.3820838210384248, 1};
Point(p10 + 9) = {14.80705691118232, -0.3381461090682274, 1};
Point(p10 + 10) = {14.619423, -0.3233790000000001, 1};
Point(p10 + 11) = {14.43178908881768, -0.3381461090682276, 1};
Point(p10 + 12) = {14.24877534724992, -0.3820838210384248, 1};
Point(p10 + 13) = {14.0748881810019, -0.4541102436209798, 1};
Point(p10 + 14) = {13.91440926920506, -0.5524518472499187, 1};
Point(p10 + 15) = {13.77129013526683, -0.6746871352668262, 1};
Point(p10 + 16) = {13.64905484724992, -0.8178062692050637, 1};
Point(p10 + 17) = {13.55071324362098, -0.9782851810018982, 1};
Point(p10 + 18) = {13.47868682103842, -1.152172347249919, 1};
Point(p10 + 19) = {13.43474910906823, -1.33518608881768, 1};
Point(p10 + 20) = {13.419982, -1.52282, 1};
Point(p10 + 21) = {13.43474910906823, -1.710453911182319, 1};
Point(p10 + 22) = {13.47868682103842, -1.893467652750082, 1};
Point(p10 + 23) = {13.55071324362098, -2.067354818998101, 1};
Point(p10 + 24) = {13.64905484724992, -2.227833730794936, 1};
Point(p10 + 25) = {13.77129013526683, -2.370952864733174, 1};
Point(p10 + 26) = {13.91440926920506, -2.493188152750081, 1};
Point(p10 + 27) = {14.0748881810019, -2.59152975637902, 1};
Point(p10 + 28) = {14.24877534724992, -2.663556178961575, 1};
Point(p10 + 29) = {14.43178908881768, -2.707493890931772, 1};
Point(p10 + 30) = {14.619423, -2.722261, 1};
Point(p10 + 31) = {14.80705691118232, -2.707493890931773, 1};
Point(p10 + 32) = {14.99007065275008, -2.663556178961575, 1};
Point(p10 + 33) = {15.1639578189981, -2.59152975637902, 1};
Point(p10 + 34) = {15.32443673079494, -2.493188152750081, 1};
Point(p10 + 35) = {15.46755586473317, -2.370952864733174, 1};
Point(p10 + 36) = {15.58979115275008, -2.227833730794937, 1};
Point(p10 + 37) = {15.68813275637902, -2.067354818998102, 1};
Point(p10 + 38) = {15.76015917896157, -1.893467652750082, 1};
Point(p10 + 39) = {15.80409689093177, -1.71045391118232, 1};
Spline(10) = {8, p10 + 1, p10 + 2, p10 + 3, p10 + 4, p10 + 5, p10 + 6, p10 + 7, p10 + 8, p10 + 9, p10 + 10, p10 + 11, p10 + 12, p10 + 13, p10 + 14, p10 + 15, p10 + 16, p10 + 17, p10 + 18, p10 + 19, p10 + 20, p10 + 21, p10 + 22, p10 + 23, p10 + 24, p10 + 25, p10 + 26, p10 + 27, p10 + 28, p10 + 29, p10 + 30, p10 + 31, p10 + 32, p10 + 33, p10 + 34, p10 + 35, p10 + 36, p10 + 37, p10 + 38, p10 + 39, 8};
p11 = newp;
Point(p11 + 1) = {10.84860946621085, 1.327776701787074, 1};
Point(p11 + 2) = {10.8211213482062, 1.442272953392022, 1};
Point(p11 + 3) = {10.77606049467919, 1.551059477109059, 1};
Point(p11 + 4) = {10.71453645339202, 1.651457587682497, 1};
Point(p11 + 5) = {10.63806415042779, 1.740995150427792, 1};
Point(p11 + 6) = {10.5485265876825, 1.817467453392023, 1};
Point(p11 + 7) = {10.44812847710906, 1.878991494679185, 1};
Point(p11 + 8) = {10.33934195339202, 1.924052348206204, 1};
Point(p11 + 9) = {10.22484570178707, 1.951540466210845, 1};
Point(p11 + 10) = {10.107459, 1.960779, 1};
Point(p11 + 11) = {9.990072298212926, 1.951540466210845, 1};
Point(p11 + 12) = {9.875576046607978, 1.924052348206204, 1};
Point(p11 + 13) = {9.766789522890942, 1.878991494679185, 1};
Point(p11 + 14) = {9.666391412317504, 1.817467453392023, 1};
Point(p11 + 15) = {9.576853849572208, 1.740995150427792, 1};
Point(p11 + 16) = {9.500381546607978, 1.651457587682497, 1};
Point(p11 + 17) = {9.438857505320815, 1.551059477109059, 1};
Point(p11 + 18) = {9.393796651793796, 1.442272953392023, 1};
Point(p11 + 19) = {9.366308533789155, 1.327776701787074, 1};
Point(p11 + 20) = {9.35707, 1.21039, 1};
Point(p11 + 21) = {9.366308533789155, 1.093003298212926, 1};
Point(p11 + 22) = {9.393796651793796, 0.9785070466079775, 1};
Point(p11 + 23) = {9.438857505320815, 0.8697205228909417, 1};
Point(p11 + 24) = {9.500381546607978, 0.7693224123175035, 1};
Point(p11 + 25) = {9.576853849572208, 0.679784849572208, 1};
Point(p11 + 26) = {9.666391412317504, 0.6033125466079777, 1};
Point(p11 + 27) = {9.766789522890942, 0.541788505320815, 1};
Point(p11 + 28) = {9.875576046607978, 0.4967276517937962, 1};
Point(p11 + 29) = {9.990072298212926, 0.4692395337891554, 1};
Point(p11 + 30) = {10.107459, 0.4600010000000001, 1};
Point(p11 + 31) = {10.22484570178707, 0.4692395337891553, 1};
Point(p11 + 32) = {10.33934195339202, 0.4967276517937961, 1};
Point(p11 + 33) = {10.44812847710906, 0.5417885053208149, 1};
Point(p11 + 34) = {10.5485265876825, 0.6033125466079776, 1};
Point(p11 + 35) = {10.63806415042779, 0.6797848495722077, 1};
Point(p11 + 36) = {10.71453645339202, 0.7693224123175033, 1};
Point(p11 + 37) = {10.77606049467919, 0.8697205228909412, 1};
Point(p11 + 38) = {10.8211213482062, 0.9785070466079775, 1};
Point(p11 + 39) = {10.84860946621085, 1.093003298212926, 1};
Spline(11) = {9, p11 + 1, p11 + 2, p11 + 3, p11 + 4, p11 + 5, p11 + 6, p11 + 7, p11 + 8, p11 + 9, p11 + 10, p11 + 11, p11 + 12, p11 + 13, p11 + 14, p11 + 15, p11 + 16, p11 + 17, p11 + 18, p11 + 19, p11 + 20, p11 + 21, p11 + 22, p11 + 23, p11 + 24, p11 + 25, p11 + 26, p11 + 27, p11 + 28, p11 + 29, p11 + 30, p11 + 31, p11 + 32, p11 + 33, p11 + 34, p11 + 35, p11 + 36, p11 + 37, p11 + 38, p11 + 39, 9};
Line(12) = {4, 10};
Line(13) = {10, 7};
Line(14) = {5, 10};
p15 = newp;
Point(p15 + 1) = {15.80409689093177, -1.335186088817681, 0};
Point(p15 + 2) = {15.76015917896157, -1.152172347249919, 0};
Point(p15 + 3) = {15.68813275637902, -0.9782851810018984, 0};
Point(p15 + 4) = {15.58979115275008, -0.8178062692050638, 0};
Point(p15 + 5) = {15.46755586473317, -0.6746871352668264, 0};
Point(p15 + 6) = {15.32443673079494, -0.5524518472499187, 0};
Point(p15 + 7) = {15.1639578189981, -0.4541102436209801, 0};
Point(p15 + 8) = {14.99007065275008, -0.3820838210384248, 0};
Point(p15 + 9) = {14.80705691118232, -0.3381461090682274, 0};
Point(p15 + 10) = {14.619423, -0.3233790000000001, 0};
Point(p15 + 11) = {14.43178908881768, -0.3381461090682276, 0};
Point(p15 + 12) = {14.24877534724992, -0.3820838210384248, 0};
Point(p15 + 13) = {14.0748881810019, -0.4541102436209798, 0};
Point(p15 + 14) = {13.91440926920506, -0.5524518472499187, 0};
Point(p15 + 15) = {13.77129013526683, -0.6746871352668262, 0};
Point(p15 + 16) = {13.64905484724992, -0.8178062692050637, 0};
Point(p15 + 17) = {13.55071324362098, -0.9782851810018982, 0};
Point(p15 + 18) = {13.47868682103842, -1.152172347249919, 0};
Point(p15 + 19) = {13.43474910906823, -1.33518608881768, 0};
Point(p15 + 20) = {13.419982, -1.52282, 0};
Point(p15 + 21) = {13.43474910906823, -1.710453911182319, 0};
Point(p15 + 22) = {13.47868682103842, -1.893467652750082, 0};
Point(p15 + 23) = {13.55071324362098, -2.067354818998101, 0};
Point(p15 + 24) = {13.64905484724992, -2.227833730794936, 0};
Point(p15 + 25) = {13.77129013526683, -2.370952864733174, 0};
Point(p15 + 26) = {13.91440926920506, -2.493188152750081, 0};
Point(p15 + 27) = {14.0748881810019, -2.59152975637902, 0};
Point(p15 + 28) = {14.24877534724992, -2.663556178961575, 0};
Point(p15 + 29) = {14.43178908881768, -2.707493890931772, 0};
Point(p15 + 30) = {14.619423, -2.722261, 0};
Point(p15 + 31) = {14.80705691118232, -2.707493890931773, 0};
Point(p15 + 32) = {14.99007065275008, -2.663556178961575, 0};
Point(p15 + 33) = {15.1639578189981, -2.59152975637902, 0};
Point(p15 + 34) = {15.32443673079494, -2.493188152750081, 0};
Point(p15 + 35) = {15.46755586473317, -2.370952864733174, 0};
Point(p15 + 36) = {15.58979115275008, -2.227833730794937, 0};
Point(p15 + 37) = {15.68813275637902, -2.067354818998102, 0};
Point(p15 + 38) = {15.76015917896157, -1.893467652750082, 0};
Point(p15 + 39) = {15.80409689093177, -1.71045391118232, 0};
Spline(15) = {11, p15 + 1, p15 + 2, p15 + 3, p15 + 4, p15 + 5, p15 + 6, p15 + 7, p15 + 8, p15 + 9, p15 + 10, p15 + 11, p15 + 12, p15 + 13, p15 + 14, p15 + 15, p15 + 16, p15 + 17, p15 + 18, p15 + 19, p15 + 20, p15 + 21, p15 + 22, p15 + 23, p15 + 24, p15 + 25, p15 + 26, p15 + 27, p15 + 28, p15 + 29, p15 + 30, p15 + 31, p15 + 32, p15 + 33, p15 + 34, p15 + 35, p15 + 36, p15 + 37, p15 + 38, p15 + 39, 11};
p16 = newp;
Point(p16 + 1) = {10.84860946621085, 1.327776701787074, 0};
Point(p16 + 2) = {10.8211213482062, 1.442272953392022, 0};
Point(p16 + 3) = {10.77606049467919, 1.551059477109059, 0};
Point(p16 + 4) = {10.71453645339202, 1.651457587682497, 0};
Point(p16 + 5) = {10.63806415042779, 1.740995150427792, 0};
Point(p16 + 6) = {10.5485265876825, 1.817467453392023, 0};
Point(p16 + 7) = {10.44812847710906, 1.878991494679185, 0};
Point(p16 + 8) = {10.33934195339202, 1.924052348206204, 0};
Point(p16 + 9) = {10.22484570178707, 1.951540466210845, 0};
Point(p16 + 10) = {10.107459, 1.960779, 0};
Point(p16 + 11) = {9.990072298212926, 1.951540466210845, 0};
Point(p16 + 12) = {9.875576046607978, 1.924052348206204, 0};
Point(p16 + 13) = {9.766789522890942, 1.878991494679185, 0};
Point(p16 + 14) = {9.666391412317504, 1.817467453392023, 0};
Point(p16 + 15) = {9.576853849572208, 1.740995150427792, 0};
Point(p16 + 16) = {9.500381546607978, 1.651457587682497, 0};
Point(p16 + 17) = {9.438857505320815, 1.551059477109059, 0};
Point(p16 + 18) = {9.393796651793796, 1.442272953392023, 0};
Point(p16 + 19) = {9.366308533789155, 1.327776701787074, 0};
Point(p16 + 20) = {9.35707, 1.21039, 0};
Point(p16 + 21) = {9.366308533789155, 1.093003298212926, 0};
Point(p16 + 22) = {9.393796651793796, 0.9785070466079775, 0};
Point(p16 + 23) = {9.438857505320815, 0.8697205228909417, 0};
Point(p16 + 24) = {9.500381546607978, 0.7693224123175035, 0};
Point(p16 + 25) = {9.576853849572208, 0.679784849572208, 0};
Point(p16 + 26) = {9.666391412317504, 0.6033125466079777, 0};
Point(p16 + 27) = {9.766789522890942, 0.541788505320815, 0};
Point(p16 + 28) = {9.875576046607978, 0.4967276517937962, 0};
Point(p16 + 29) = {9.990072298212926, 0.4692395337891554, 0};
Point(p16 + 30) = {10.107459, 0.4600010000000001, 0};
Point(p16 + 31) = {10.22484570178707, 0.4692395337891553, 0};
Point(p16 + 32) = {10.33934195339202, 0.4967276517937961, 0};
Point(p16 + 33) = {10.44812847710906, 0.5417885053208149, 0};
Point(p16 + 34) = {10.5485265876825, 0.6033125466079776, 0};
Point(p16 + 35) = {10.63806415042779, 0.6797848495722077, 0};
Point(p16 + 36) = {10.71453645339202, 0.7693224123175033, 0};
Point(p16 + 37) = {10.77606049467919, 0.8697205228909412, 0};
Point(p16 + 38) = {10.8211213482062, 0.9785070466079775, 0};
Point(p16 + 39) = {10.84860946621085, 1.093003298212926, 0};
Spline(16) = {12, p16 + 1, p16 + 2, p16 + 3, p16 + 4, p16 + 5, p16 + 6, p16 + 7, p16 + 8, p16 + 9, p16 + 10, p16 + 11, p16 + 12, p16 + 13, p16 + 14, p16 + 15, p16 + 16, p16 + 17, p16 + 18, p16 + 19, p16 + 20, p16 + 21, p16 + 22, p16 + 23, p16 + 24, p16 + 25, p16 + 26, p16 + 27, p16 + 28, p16 + 29, p16 + 30, p16 + 31, p16 + 32, p16 + 33, p16 + 34, p16 + 35, p16 + 36, p16 + 37, p16 + 38, p16 + 39, 12};
Line(17) = {11, 8};
Line(18) = {12, 9};
Curve Loop(1) = {-1, 4, 3, -2};
Plane Surface(1) = {1};
Curve Loop(2) = {-5, 1, 7, -6};
Plane Surface(2) = {2};
Curve Loop(3) = {-2, 7, 9, -8, -10, -11};
Plane Surface(3) = {3};
Curve Loop(4) = {-12, 3, 8, -13};
Plane Surface(4) = {4};
Curve Loop(5) = {-4, 5, 14, -12, -15, -16};
Plane Surface(5) = {5};
Curve Loop(6) = {-6, 14, 13, -9};
Plane Surface(6) = {6};
Curve Loop(7) = {-10, -17, 15, 17};
Surface(7) = {7};
Curve Loop(8) = {-11, -18, 16, 18};
Surface(8) = {8};
Surface Loop(1) = {1, 2, 3, 4, 5, 6, 7, 8};
Volume(1) = {1};
Physical Surface("INFLOW") = {1};
Physical Surface("OUTFLOW") = {6};
Physical Surface("OBSTACLE") = {7, 8};
Physical Surface("WALL_Y") = {2, 4};
Physical Surface("WALL_Z") = {3, 5};
Physical Volume("FLUID") = {1};
