cl__1 = 1.53014;
cl__2 = 1.336823;
cl__3 = 3.090888;
cl__4 = 1.515303;
cl__5 = 0.090071;
Point(1) = {0.440469, -4.741966, 1, cl__1};
Point(2) = {0.440469, -4.741966, 0, cl__1};
Point(3) = {0.440469, 5.110692999999999, 1, cl__2};
Point(4) = {0.440469, 5.110692999999999, 0, cl__2};
Point(5) = {30.513767, -4.741966, 0, cl__3};
Point(6) = {30.513767, -4.741966, 1, cl__3};
Point(7) = {30.513767, 5.110692999999999, 1, cl__4};
Point(8) = {15.478024, 3.173696, 1, cl__5};
Point(9) = {30.513767, 5.110692999999999, 0, cl__4};
Point(10) = {15.478024, 3.173696, 0, cl__5};
Line(1) = {2, 1};
Line(2) = {1, 3};
Line(3) = {4, 3};
Line(4) = {2, 4};
Line(5) = {2, 5};
Line(6) = {5, 6};
Line(7) = {1, 6};
Line(8) = {3, 7};
Line(9) = {6, 7};
p10 = newp;
Point(p10 + 1) = {15.46693480219243, 3.314597617702991, 1};
Point(p10 + 2) = {15.43394026162266, 3.452029769952476, 1};
Point(p10 + 3) = {15.37985281338213, 3.582608421048908, 1};
Point(p10 + 4) = {15.30600426995248, 3.703118291236597, 1};
Point(p10 + 5) = {15.21421302756219, 3.810592027562192, 1};
Point(p10 + 6) = {15.1067392912366, 3.902383269952476, 1};
Point(p10 + 7) = {14.98622942104891, 3.976231813382132, 1};
Point(p10 + 8) = {14.85565076995248, 4.030319261622659, 1};
Point(p10 + 9) = {14.71821861770299, 4.063313802192425, 1};
Point(p10 + 10) = {14.577317, 4.074403, 1};
Point(p10 + 11) = {14.43641538229701, 4.063313802192424, 1};
Point(p10 + 12) = {14.29898323004753, 4.030319261622659, 1};
Point(p10 + 13) = {14.16840457895109, 3.976231813382133, 1};
Point(p10 + 14) = {14.0478947087634, 3.902383269952476, 1};
Point(p10 + 15) = {13.94042097243781, 3.810592027562192, 1};
Point(p10 + 16) = {13.84862973004753, 3.703118291236597, 1};
Point(p10 + 17) = {13.77478118661787, 3.582608421048908, 1};
Point(p10 + 18) = {13.72069373837734, 3.452029769952476, 1};
Point(p10 + 19) = {13.68769919780758, 3.314597617702991, 1};
Point(p10 + 20) = {13.67661, 3.173696, 1};
Point(p10 + 21) = {13.68769919780758, 3.032794382297009, 1};
Point(p10 + 22) = {13.72069373837734, 2.895362230047524, 1};
Point(p10 + 23) = {13.77478118661787, 2.764783578951092, 1};
Point(p10 + 24) = {13.84862973004753, 2.644273708763404, 1};
Point(p10 + 25) = {13.94042097243781, 2.536799972437808, 1};
Point(p10 + 26) = {14.0478947087634, 2.445008730047524, 1};
Point(p10 + 27) = {14.16840457895109, 2.371160186617868, 1};
Point(p10 + 28) = {14.29898323004753, 2.317072738377341, 1};
Point(p10 + 29) = {14.43641538229701, 2.284078197807575, 1};
Point(p10 + 30) = {14.577317, 2.272989, 1};
Point(p10 + 31) = {14.71821861770299, 2.284078197807575, 1};
Point(p10 + 32) = {14.85565076995248, 2.317072738377341, 1};
Point(p10 + 33) = {14.98622942104891, 2.371160186617868, 1};
Point(p10 + 34) = {15.1067392912366, 2.445008730047524, 1};
Point(p10 + 35) = {15.21421302756219, 2.536799972437808, 1};
Point(p10 + 36) = {15.30600426995248, 2.644273708763403, 1};
Point(p10 + 37) = {15.37985281338213, 2.764783578951092, 1};
Point(p10 + 38) = {15.43394026162266, 2.895362230047524, 1};
Point(p10 + 39) = {15.46693480219242, 3.032794382297009, 1};
Spline(10) = {8, p10 + 1, p10 + 2, p10 + 3, p10 + 4, p10 + 5, p10 + 6, p10 + 7, p10 + 8, p10 + 9, p10 + 10, p10 + 11, p10 + 12, p10 + 13, p10 + 14, p10 + 15, p10 + 16, p10 + 17, p10 + 18, p10 + 19, p10 + 20, p10 + 21, p10 + 22, p10 + 23, p10 + 24, p10 + 25, p10 + 26, p10 + 27, p10 + 28, p10 + 29, p10 + 30, p10 + 31, p10 + 32, p10 + 33, p10 + 34, p10 + 35, p10 + 36, p10 + 37, p10 + 38, p10 + 39, 8};
Line(11) = {4, 9};
Line(12) = {9, 7};
Line(13) = {5, 9};
p14 = newp;
Point(p14 + 1) = {15.46693480219243, 3.314597617702991, 0};
Point(p14 + 2) = {15.43394026162266, 3.452029769952476, 0};
Point(p14 + 3) = {15.37985281338213, 3.582608421048908, 0};
Point(p14 + 4) = {15.30600426995248, 3.703118291236597, 0};
Point(p14 + 5) = {15.21421302756219, 3.810592027562192, 0};
Point(p14 + 6) = {15.1067392912366, 3.902383269952476, 0};
Point(p14 + 7) = {14.98622942104891, 3.976231813382132, 0};
Point(p14 + 8) = {14.85565076995248, 4.030319261622659, 0};
Point(p14 + 9) = {14.71821861770299, 4.063313802192425, 0};
Point(p14 + 10) = {14.577317, 4.074403, 0};
Point(p14 + 11) = {14.43641538229701, 4.063313802192424, 0};
Point(p14 + 12) = {14.29898323004753, 4.030319261622659, 0};
Point(p14 + 13) = {14.16840457895109, 3.976231813382133, 0};
Point(p14 + 14) = {14.0478947087634, 3.902383269952476, 0};
Point(p14 + 15) = {13.94042097243781, 3.810592027562192, 0};
Point(p14 + 16) = {13.84862973004753, 3.703118291236597, 0};
Point(p14 + 17) = {13.77478118661787, 3.582608421048908, 0};
Point(p14 + 18) = {13.72069373837734, 3.452029769952476, 0};
Point(p14 + 19) = {13.68769919780758, 3.314597617702991, 0};
Point(p14 + 20) = {13.67661, 3.173696, 0};
Point(p14 + 21) = {13.68769919780758, 3.032794382297009, 0};
Point(p14 + 22) = {13.72069373837734, 2.895362230047524, 0};
Point(p14 + 23) = {13.77478118661787, 2.764783578951092, 0};
Point(p14 + 24) = {13.84862973004753, 2.644273708763404, 0};
Point(p14 + 25) = {13.94042097243781, 2.536799972437808, 0};
Point(p14 + 26) = {14.0478947087634, 2.445008730047524, 0};
Point(p14 + 27) = {14.16840457895109, 2.371160186617868, 0};
Point(p14 + 28) = {14.29898323004753, 2.317072738377341, 0};
Point(p14 + 29) = {14.43641538229701, 2.284078197807575, 0};
Point(p14 + 30) = {14.577317, 2.272989, 0};
Point(p14 + 31) = {14.71821861770299, 2.284078197807575, 0};
Point(p14 + 32) = {14.85565076995248, 2.317072738377341, 0};
Point(p14 + 33) = {14.98622942104891, 2.371160186617868, 0};
Point(p14 + 34) = {15.1067392912366, 2.445008730047524, 0};
Point(p14 + 35) = {15.21421302756219, 2.536799972437808, 0};
Point(p14 + 36) = {15.30600426995248, 2.644273708763403, 0};
Point(p14 + 37) = {15.37985281338213, 2.764783578951092, 0};
Point(p14 + 38) = {15.43394026162266, 2.895362230047524, 0};
Point(p14 + 39) = {15.46693480219242, 3.032794382297009, 0};
Spline(14) = {10, p14 + 1, p14 + 2, p14 + 3, p14 + 4, p14 + 5, p14 + 6, p14 + 7, p14 + 8, p14 + 9, p14 + 10, p14 + 11, p14 + 12, p14 + 13, p14 + 14, p14 + 15, p14 + 16, p14 + 17, p14 + 18, p14 + 19, p14 + 20, p14 + 21, p14 + 22, p14 + 23, p14 + 24, p14 + 25, p14 + 26, p14 + 27, p14 + 28, p14 + 29, p14 + 30, p14 + 31, p14 + 32, p14 + 33, p14 + 34, p14 + 35, p14 + 36, p14 + 37, p14 + 38, p14 + 39, 10};
Line(15) = {10, 8};
Curve Loop(1) = {-1, 4, 3, -2};
Plane Surface(1) = {1};
Curve Loop(2) = {-5, 1, 7, -6};
Plane Surface(2) = {2};
Curve Loop(3) = {-2, 7, 9, -8, -10};
Plane Surface(3) = {3};
Curve Loop(4) = {-11, 3, 8, -12};
Plane Surface(4) = {4};
Curve Loop(5) = {-4, 5, 13, -11, -14};
Plane Surface(5) = {5};
Curve Loop(6) = {-6, 13, 12, -9};
Plane Surface(6) = {6};
Curve Loop(7) = {-10, -15, 14, 15};
Surface(7) = {7};
Surface Loop(1) = {1, 2, 3, 4, 5, 6, 7};
Volume(1) = {1};
Physical Surface("INFLOW") = {1};
Physical Surface("OUTFLOW") = {6};
Physical Surface("OBSTACLE") = {7};
Physical Surface("WALL_Y") = {2, 4};
Physical Surface("WALL_Z") = {3, 5};
Physical Volume("FLUID") = {1};
