cl__1 = 3.701216;
cl__2 = 0.427545;
cl__3 = 1.005305;
cl__4 = 0.108274;
cl__5 = 0.140634;
Point(1) = {0.065912, -4.010678, 1, cl__1};
Point(2) = {0.065912, -4.010678, 0, cl__1};
Point(3) = {0.065912, 4.199688999999999, 1, cl__2};
Point(4) = {0.065912, 4.199688999999999, 0, cl__2};
Point(5) = {36.783794, -4.010678, 0, cl__1};
Point(6) = {36.783794, -4.010678, 1, cl__1};
Point(7) = {36.783794, 4.199688999999999, 1, cl__3};
Point(8) = {33.205279, -1.368159, 1, cl__4};
Point(9) = {28.028012, 1.285449, 1, cl__5};
Point(10) = {36.783794, 4.199688999999999, 0, cl__3};
Point(11) = {33.205279, -1.368159, 0, cl__4};
Point(12) = {28.028012, 1.285449, 0, cl__5};
Line(1) = {2, 1};
Line(2) = {1, 3};
Line(3) = {4, 3};
Line(4) = {2, 4};
Line(5) = {2, 5};
Line(6) = {5, 6};
Line(7) = {1, 6};
Line(8) = {3, 7};
Line(9) = {6, 7};
p10 = newp;
Point(p10 + 1) = {33.19194867389599, -1.19878114732234, 1};
Point(p10 + 2) = {33.15228593245342, -1.033573939510469, 1};
Point(p10 + 3) = {33.08726740399972, -0.8766053263120031, 1};
Point(p10 + 4) = {32.99849406048953, -0.7317403959328476, 1};
Point(p10 + 5) = {32.88815179626192, -0.6025462037380774, 1};
Point(p10 + 6) = {32.75895760406716, -0.4922039395104693, 1};
Point(p10 + 7) = {32.614092673688, -0.4034305960002865, 1};
Point(p10 + 8) = {32.45712406048953, -0.3384120675465854, 1};
Point(p10 + 9) = {32.29191685267767, -0.2987493261040204, 1};
Point(p10 + 10) = {32.122539, -0.2854189999999999, 1};
Point(p10 + 11) = {31.95316114732234, -0.2987493261040206, 1};
Point(p10 + 12) = {31.78795393951047, -0.3384120675465851, 1};
Point(p10 + 13) = {31.63098532631201, -0.4034305960002864, 1};
Point(p10 + 14) = {31.48612039593285, -0.4922039395104693, 1};
Point(p10 + 15) = {31.35692620373808, -0.6025462037380773, 1};
Point(p10 + 16) = {31.24658393951047, -0.7317403959328473, 1};
Point(p10 + 17) = {31.15781059600029, -0.8766053263120029, 1};
Point(p10 + 18) = {31.09279206754659, -1.033573939510469, 1};
Point(p10 + 19) = {31.05312932610402, -1.19878114732234, 1};
Point(p10 + 20) = {31.039799, -1.368159, 1};
Point(p10 + 21) = {31.05312932610402, -1.537536852677659, 1};
Point(p10 + 22) = {31.09279206754659, -1.702744060489531, 1};
Point(p10 + 23) = {31.15781059600029, -1.859712673687996, 1};
Point(p10 + 24) = {31.24658393951047, -2.004577604067152, 1};
Point(p10 + 25) = {31.35692620373808, -2.133771796261922, 1};
Point(p10 + 26) = {31.48612039593285, -2.24411406048953, 1};
Point(p10 + 27) = {31.63098532631201, -2.332887403999713, 1};
Point(p10 + 28) = {31.78795393951047, -2.397905932453415, 1};
Point(p10 + 29) = {31.95316114732234, -2.437568673895979, 1};
Point(p10 + 30) = {32.122539, -2.450899, 1};
Point(p10 + 31) = {32.29191685267767, -2.43756867389598, 1};
Point(p10 + 32) = {32.45712406048953, -2.397905932453415, 1};
Point(p10 + 33) = {32.614092673688, -2.332887403999713, 1};
Point(p10 + 34) = {32.75895760406716, -2.24411406048953, 1};
Point(p10 + 35) = {32.88815179626192, -2.133771796261922, 1};
Point(p10 + 36) = {32.99849406048953, -2.004577604067153, 1};
Point(p10 + 37) = {33.08726740399972, -1.859712673687997, 1};
Point(p10 + 38) = {33.15228593245342, -1.702744060489531, 1};
Point(p10 + 39) = {33.19194867389598, -1.53753685267766, 1};
Spline(10) = {8, p10 + 1, p10 + 2, p10 + 3, p10 + 4, p10 + 5, p10 + 6, p10 + 7, p10 + 8, p10 + 9, p10 + 10, p10 + 11, p10 + 12, p10 + 13, p10 + 14, p10 + 15, p10 + 16, p10 + 17, p10 + 18, p10 + 19, p10 + 20, p10 + 21, p10 + 22, p10 + 23, p10 + 24, p10 + 25, p10 + 26, p10 + 27, p10 + 28, p10 + 29, p10 + 30, p10 + 31, p10 + 32, p10 + 33, p10 + 34, p10 + 35, p10 + 36, p10 + 37, p10 + 38, p10 + 39, 8};
p11 = newp;
Point(p11 + 1) = {28.01069758397759, 1.505449514868074, 1};
Point(p11 + 2) = {27.95918067429607, 1.720032886920247, 1};
Point(p11 + 3) = {27.87472978824664, 1.923915361375213, 1};
Point(p11 + 4) = {27.75942438692025, 2.112076675064753, 1};
Point(p11 + 5) = {27.61610367197423, 2.279883671974233, 1};
Point(p11 + 6) = {27.44829667506475, 2.423204386920247, 1};
Point(p11 + 7) = {27.26013536137521, 2.538509788246642, 1};
Point(p11 + 8) = {27.05625288692025, 2.622960674296075, 1};
Point(p11 + 9) = {26.84166951486807, 2.674477583977588, 1};
Point(p11 + 10) = {26.621669, 2.691792, 1};
Point(p11 + 11) = {26.40166848513193, 2.674477583977588, 1};
Point(p11 + 12) = {26.18708511307975, 2.622960674296075, 1};
Point(p11 + 13) = {25.98320263862479, 2.538509788246642, 1};
Point(p11 + 14) = {25.79504132493525, 2.423204386920247, 1};
Point(p11 + 15) = {25.62723432802577, 2.279883671974233, 1};
Point(p11 + 16) = {25.48391361307975, 2.112076675064753, 1};
Point(p11 + 17) = {25.36860821175336, 1.923915361375214, 1};
Point(p11 + 18) = {25.28415732570393, 1.720032886920247, 1};
Point(p11 + 19) = {25.23264041602241, 1.505449514868074, 1};
Point(p11 + 20) = {25.215326, 1.285449, 1};
Point(p11 + 21) = {25.23264041602241, 1.065448485131927, 1};
Point(p11 + 22) = {25.28415732570393, 0.850865113079753, 1};
Point(p11 + 23) = {25.36860821175336, 0.6469826386247874, 1};
Point(p11 + 24) = {25.48391361307975, 0.4588213249352467, 1};
Point(p11 + 25) = {25.62723432802577, 0.2910143280257674, 1};
Point(p11 + 26) = {25.79504132493525, 0.1476936130797535, 1};
Point(p11 + 27) = {25.98320263862479, 0.03238821175335849, 1};
Point(p11 + 28) = {26.18708511307975, -0.05206267429607503, 1};
Point(p11 + 29) = {26.40166848513193, -0.1035795839775875, 1};
Point(p11 + 30) = {26.621669, -0.1208939999999998, 1};
Point(p11 + 31) = {26.84166951486807, -0.1035795839775877, 1};
Point(p11 + 32) = {27.05625288692025, -0.05206267429607503, 1};
Point(p11 + 33) = {27.26013536137521, 0.03238821175335826, 1};
Point(p11 + 34) = {27.44829667506475, 0.1476936130797533, 1};
Point(p11 + 35) = {27.61610367197423, 0.2910143280257671, 1};
Point(p11 + 36) = {27.75942438692025, 0.4588213249352463, 1};
Point(p11 + 37) = {27.87472978824664, 0.6469826386247864, 1};
Point(p11 + 38) = {27.95918067429607, 0.8508651130797531, 1};
Point(p11 + 39) = {28.01069758397759, 1.065448485131926, 1};
Spline(11) = {9, p11 + 1, p11 + 2, p11 + 3, p11 + 4, p11 + 5, p11 + 6, p11 + 7, p11 + 8, p11 + 9, p11 + 10, p11 + 11, p11 + 12, p11 + 13, p11 + 14, p11 + 15, p11 + 16, p11 + 17, p11 + 18, p11 + 19, p11 + 20, p11 + 21, p11 + 22, p11 + 23, p11 + 24, p11 + 25, p11 + 26, p11 + 27, p11 + 28, p11 + 29, p11 + 30, p11 + 31, p11 + 32, p11 + 33, p11 + 34, p11 + 35, p11 + 36, p11 + 37, p11 + 38, p11 + 39, 9};
Line(12) = {4, 10};
Line(13) = {10, 7};
Line(14) = {5, 10};
p15 = newp;
Point(p15 + 1) = {33.19194867389599, -1.19878114732234, 0};
Point(p15 + 2) = {33.15228593245342, -1.033573939510469, 0};
Point(p15 + 3) = {33.08726740399972, -0.8766053263120031, 0};
Point(p15 + 4) = {32.99849406048953, -0.7317403959328476, 0};
Point(p15 + 5) = {32.88815179626192, -0.6025462037380774, 0};
Point(p15 + 6) = {32.75895760406716, -0.4922039395104693, 0};
Point(p15 + 7) = {32.614092673688, -0.4034305960002865, 0};
Point(p15 + 8) = {32.45712406048953, -0.3384120675465854, 0};
Point(p15 + 9) = {32.29191685267767, -0.2987493261040204, 0};
Point(p15 + 10) = {32.122539, -0.2854189999999999, 0};
Point(p15 + 11) = {31.95316114732234, -0.2987493261040206, 0};
Point(p15 + 12) = {31.78795393951047, -0.3384120675465851, 0};
Point(p15 + 13) = {31.63098532631201, -0.4034305960002864, 0};
Point(p15 + 14) = {31.48612039593285, -0.4922039395104693, 0};
Point(p15 + 15) = {31.35692620373808, -0.6025462037380773, 0};
Point(p15 + 16) = {31.24658393951047, -0.7317403959328473, 0};
Point(p15 + 17) = {31.15781059600029, -0.8766053263120029, 0};
Point(p15 + 18) = {31.09279206754659, -1.033573939510469, 0};
Point(p15 + 19) = {31.05312932610402, -1.19878114732234, 0};
Point(p15 + 20) = {31.039799, -1.368159, 0};
Point(p15 + 21) = {31.05312932610402, -1.537536852677659, 0};
Point(p15 + 22) = {31.09279206754659, -1.702744060489531, 0};
Point(p15 + 23) = {31.15781059600029, -1.859712673687996, 0};
Point(p15 + 24) = {31.24658393951047, -2.004577604067152, 0};
Point(p15 + 25) = {31.35692620373808, -2.133771796261922, 0};
Point(p15 + 26) = {31.48612039593285, -2.24411406048953, 0};
Point(p15 + 27) = {31.63098532631201, -2.332887403999713, 0};
Point(p15 + 28) = {31.78795393951047, -2.397905932453415, 0};
Point(p15 + 29) = {31.95316114732234, -2.437568673895979, 0};
Point(p15 + 30) = {32.122539, -2.450899, 0};
Point(p15 + 31) = {32.29191685267767, -2.43756867389598, 0};
Point(p15 + 32) = {32.45712406048953, -2.397905932453415, 0};
Point(p15 + 33) = {32.614092673688, -2.332887403999713, 0};
Point(p15 + 34) = {32.75895760406716, -2.24411406048953, 0};
Point(p15 + 35) = {32.88815179626192, -2.133771796261922, 0};
Point(p15 + 36) = {32.99849406048953, -2.004577604067153, 0};
Point(p15 + 37) = {33.08726740399972, -1.859712673687997, 0};
Point(p15 + 38) = {33.15228593245342, -1.702744060489531, 0};
Point(p15 + 39) = {33.19194867389598, -1.53753685267766, 0};
Spline(15) = {11, p15 + 1, p15 + 2, p15 + 3, p15 + 4, p15 + 5, p15 + 6, p15 + 7, p15 + 8, p15 + 9, p15 + 10, p15 + 11, p15 + 12, p15 + 13, p15 + 14, p15 + 15, p15 + 16, p15 + 17, p15 + 18, p15 + 19, p15 + 20, p15 + 21, p15 + 22, p15 + 23, p15 + 24, p15 + 25, p15 + 26, p15 + 27, p15 + 28, p15 + 29, p15 + 30, p15 + 31, p15 + 32, p15 + 33, p15 + 34, p15 + 35, p15 + 36, p15 + 37, p15 + 38, p15 + 39, 11};
p16 = newp;
Point(p16 + 1) = {28.01069758397759, 1.505449514868074, 0};
Point(p16 + 2) = {27.95918067429607, 1.720032886920247, 0};
Point(p16 + 3) = {27.87472978824664, 1.923915361375213, 0};
Point(p16 + 4) = {27.75942438692025, 2.112076675064753, 0};
Point(p16 + 5) = {27.61610367197423, 2.279883671974233, 0};
Point(p16 + 6) = {27.44829667506475, 2.423204386920247, 0};
Point(p16 + 7) = {27.26013536137521, 2.538509788246642, 0};
Point(p16 + 8) = {27.05625288692025, 2.622960674296075, 0};
Point(p16 + 9) = {26.84166951486807, 2.674477583977588, 0};
Point(p16 + 10) = {26.621669, 2.691792, 0};
Point(p16 + 11) = {26.40166848513193, 2.674477583977588, 0};
Point(p16 + 12) = {26.18708511307975, 2.622960674296075, 0};
Point(p16 + 13) = {25.98320263862479, 2.538509788246642, 0};
Point(p16 + 14) = {25.79504132493525, 2.423204386920247, 0};
Point(p16 + 15) = {25.62723432802577, 2.279883671974233, 0};
Point(p16 + 16) = {25.48391361307975, 2.112076675064753, 0};
Point(p16 + 17) = {25.36860821175336, 1.923915361375214, 0};
Point(p16 + 18) = {25.28415732570393, 1.720032886920247, 0};
Point(p16 + 19) = {25.23264041602241, 1.505449514868074, 0};
Point(p16 + 20) = {25.215326, 1.285449, 0};
Point(p16 + 21) = {25.23264041602241, 1.065448485131927, 0};
Point(p16 + 22) = {25.28415732570393, 0.850865113079753, 0};
Point(p16 + 23) = {25.36860821175336, 0.6469826386247874, 0};
Point(p16 + 24) = {25.48391361307975, 0.4588213249352467, 0};
Point(p16 + 25) = {25.62723432802577, 0.2910143280257674, 0};
Point(p16 + 26) = {25.79504132493525, 0.1476936130797535, 0};
Point(p16 + 27) = {25.98320263862479, 0.03238821175335849, 0};
Point(p16 + 28) = {26.18708511307975, -0.05206267429607503, 0};
Point(p16 + 29) = {26.40166848513193, -0.1035795839775875, 0};
Point(p16 + 30) = {26.621669, -0.1208939999999998, 0};
Point(p16 + 31) = {26.84166951486807, -0.1035795839775877, 0};
Point(p16 + 32) = {27.05625288692025, -0.05206267429607503, 0};
Point(p16 + 33) = {27.26013536137521, 0.03238821175335826, 0};
Point(p16 + 34) = {27.44829667506475, 0.1476936130797533, 0};
Point(p16 + 35) = {27.61610367197423, 0.2910143280257671, 0};
Point(p16 + 36) = {27.75942438692025, 0.4588213249352463, 0};
Point(p16 + 37) = {27.87472978824664, 0.6469826386247864, 0};
Point(p16 + 38) = {27.95918067429607, 0.8508651130797531, 0};
Point(p16 + 39) = {28.01069758397759, 1.065448485131926, 0};
Spline(16) = {12, p16 + 1, p16 + 2, p16 + 3, p16 + 4, p16 + 5, p16 + 6, p16 + 7, p16 + 8, p16 + 9, p16 + 10, p16 + 11, p16 + 12, p16 + 13, p16 + 14, p16 + 15, p16 + 16, p16 + 17, p16 + 18, p16 + 19, p16 + 20, p16 + 21, p16 + 22, p16 + 23, p16 + 24, p16 + 25, p16 + 26, p16 + 27, p16 + 28, p16 + 29, p16 + 30, p16 + 31, p16 + 32, p16 + 33, p16 + 34, p16 + 35, p16 + 36, p16 + 37, p16 + 38, p16 + 39, 12};
Line(17) = {11, 8};
Line(18) = {12, 9};
Curve Loop(1) = {-1, 4, 3, -2};
Plane Surface(1) = {1};
Curve Loop(2) = {-5, 1, 7, -6};
Plane Surface(2) = {2};
Curve Loop(3) = {-2, 7, 9, -8, -10, -11};
Plane Surface(3) = {3};
Curve Loop(4) = {-12, 3, 8, -13};
Plane Surface(4) = {4};
Curve Loop(5) = {-4, 5, 14, -12, -15, -16};
Plane Surface(5) = {5};
Curve Loop(6) = {-6, 14, 13, -9};
Plane Surface(6) = {6};
Curve Loop(7) = {-10, -17, 15, 17};
Surface(7) = {7};
Curve Loop(8) = {-11, -18, 16, 18};
Surface(8) = {8};
Surface Loop(1) = {1, 2, 3, 4, 5, 6, 7, 8};
Volume(1) = {1};
Physical Surface("INFLOW") = {1};
Physical Surface("OUTFLOW") = {6};
Physical Surface("OBSTACLE") = {7, 8};
Physical Surface("WALL_Y") = {2, 4};
Physical Surface("WALL_Z") = {3, 5};
Physical Volume("FLUID") = {1};
