cl__1 = 0.598773;
cl__2 = 0.532609;
cl__3 = 3.292871;
cl__4 = 0.064387;
cl__5 = 0.060329;
Point(1) = {0.060059, -3.345113, 1, cl__1};
Point(2) = {0.060059, -3.345113, 0, cl__1};
Point(3) = {0.060059, 5.256324000000001, 1, cl__2};
Point(4) = {0.060059, 5.256324000000001, 0, cl__2};
Point(5) = {32.646649, -3.345113, 0, cl__1};
Point(6) = {32.646649, -3.345113, 1, cl__1};
Point(7) = {32.646649, 5.256324000000001, 1, cl__3};
Point(8) = {6.469412, -0.06831900000000016, 1, cl__4};
Point(9) = {30.39692, 1.852752, 1, cl__5};
Point(10) = {32.646649, 5.256324000000001, 0, cl__3};
Point(11) = {6.469412, -0.06831900000000016, 0, cl__4};
Point(12) = {30.39692, 1.852752, 0, cl__5};
Line(1) = {2, 1};
Line(2) = {1, 3};
Line(3) = {4, 3};
Line(4) = {2, 4};
Line(5) = {2, 5};
Line(6) = {5, 6};
Line(7) = {1, 6};
Line(8) = {3, 7};
Line(9) = {6, 7};
p10 = newp;
Point(p10 + 1) = {6.461484854924013, 0.03240492830884857, 1};
Point(p10 + 2) = {6.437898612316509, 0.1306486992191805, 1};
Point(p10 + 3) = {6.399234043748737, 0.2239932250388012, 1};
Point(p10 + 4) = {6.346443199219181, 0.3101400537493115, 1};
Point(p10 + 5) = {6.280825964522926, 0.3869679645229259, 1};
Point(p10 + 6) = {6.203998053749311, 0.4525851992191805, 1};
Point(p10 + 7) = {6.117851225038801, 0.5053760437487369, 1};
Point(p10 + 8) = {6.024506699219181, 0.5440406123165094, 1};
Point(p10 + 9) = {5.926262928308849, 0.5676268549240131, 1};
Point(p10 + 10) = {5.825539, 0.575554, 1};
Point(p10 + 11) = {5.724815071691151, 0.5676268549240131, 1};
Point(p10 + 12) = {5.626571300780819, 0.5440406123165095, 1};
Point(p10 + 13) = {5.533226774961199, 0.505376043748737, 1};
Point(p10 + 14) = {5.447079946250689, 0.4525851992191805, 1};
Point(p10 + 15) = {5.370252035477074, 0.3869679645229259, 1};
Point(p10 + 16) = {5.30463480078082, 0.3101400537493116, 1};
Point(p10 + 17) = {5.251843956251263, 0.2239932250388013, 1};
Point(p10 + 18) = {5.213179387683491, 0.1306486992191806, 1};
Point(p10 + 19) = {5.189593145075987, 0.03240492830884864, 1};
Point(p10 + 20) = {5.181666, -0.06831899999999992, 1};
Point(p10 + 21) = {5.189593145075987, -0.1690429283088485, 1};
Point(p10 + 22) = {5.213179387683491, -0.2672866992191807, 1};
Point(p10 + 23) = {5.251843956251263, -0.3606312250388009, 1};
Point(p10 + 24) = {5.30463480078082, -0.4467780537493115, 1};
Point(p10 + 25) = {5.370252035477074, -0.5236059645229258, 1};
Point(p10 + 26) = {5.447079946250688, -0.5892231992191805, 1};
Point(p10 + 27) = {5.533226774961198, -0.6420140437487369, 1};
Point(p10 + 28) = {5.626571300780819, -0.6806786123165094, 1};
Point(p10 + 29) = {5.724815071691151, -0.7042648549240131, 1};
Point(p10 + 30) = {5.825539, -0.712192, 1};
Point(p10 + 31) = {5.926262928308849, -0.7042648549240131, 1};
Point(p10 + 32) = {6.02450669921918, -0.6806786123165095, 1};
Point(p10 + 33) = {6.117851225038801, -0.6420140437487371, 1};
Point(p10 + 34) = {6.203998053749311, -0.5892231992191806, 1};
Point(p10 + 35) = {6.280825964522926, -0.5236059645229261, 1};
Point(p10 + 36) = {6.346443199219181, -0.4467780537493117, 1};
Point(p10 + 37) = {6.399234043748737, -0.3606312250388014, 1};
Point(p10 + 38) = {6.437898612316509, -0.2672866992191806, 1};
Point(p10 + 39) = {6.461484854924013, -0.1690429283088487, 1};
Spline(10) = {8, p10 + 1, p10 + 2, p10 + 3, p10 + 4, p10 + 5, p10 + 6, p10 + 7, p10 + 8, p10 + 9, p10 + 10, p10 + 11, p10 + 12, p10 + 13, p10 + 14, p10 + 15, p10 + 16, p10 + 17, p10 + 18, p10 + 19, p10 + 20, p10 + 21, p10 + 22, p10 + 23, p10 + 24, p10 + 25, p10 + 26, p10 + 27, p10 + 28, p10 + 29, p10 + 30, p10 + 31, p10 + 32, p10 + 33, p10 + 34, p10 + 35, p10 + 36, p10 + 37, p10 + 38, p10 + 39, 8};
p11 = newp;
Point(p11 + 1) = {30.38949253593262, 1.947126879110726, 1};
Point(p11 + 2) = {30.36739303254615, 2.039177935485479, 1};
Point(p11 + 3) = {30.33116565295803, 2.126638566616372, 1};
Point(p11 + 4) = {30.28170243548548, 2.207355201499769, 1};
Point(p11 + 5) = {30.22022132870169, 2.279340328701688, 1};
Point(p11 + 6) = {30.14823620149977, 2.340821435485479, 1};
Point(p11 + 7) = {30.06751956661637, 2.390284652958028, 1};
Point(p11 + 8) = {29.98005893548548, 2.426512032546154, 1};
Point(p11 + 9) = {29.88800787911073, 2.448611535932619, 1};
Point(p11 + 10) = {29.793633, 2.456039, 1};
Point(p11 + 11) = {29.69925812088927, 2.448611535932619, 1};
Point(p11 + 12) = {29.60720706451452, 2.426512032546154, 1};
Point(p11 + 13) = {29.51974643338363, 2.390284652958028, 1};
Point(p11 + 14) = {29.43902979850023, 2.340821435485479, 1};
Point(p11 + 15) = {29.36704467129831, 2.279340328701688, 1};
Point(p11 + 16) = {29.30556356451452, 2.207355201499769, 1};
Point(p11 + 17) = {29.25610034704197, 2.126638566616372, 1};
Point(p11 + 18) = {29.21987296745385, 2.039177935485479, 1};
Point(p11 + 19) = {29.19777346406738, 1.947126879110726, 1};
Point(p11 + 20) = {29.190346, 1.852752, 1};
Point(p11 + 21) = {29.19777346406738, 1.758377120889274, 1};
Point(p11 + 22) = {29.21987296745385, 1.666326064514521, 1};
Point(p11 + 23) = {29.25610034704197, 1.578865433383628, 1};
Point(p11 + 24) = {29.30556356451452, 1.498148798500231, 1};
Point(p11 + 25) = {29.36704467129831, 1.426163671298311, 1};
Point(p11 + 26) = {29.43902979850023, 1.364682564514521, 1};
Point(p11 + 27) = {29.51974643338363, 1.315219347041972, 1};
Point(p11 + 28) = {29.60720706451452, 1.278991967453846, 1};
Point(p11 + 29) = {29.69925812088927, 1.256892464067381, 1};
Point(p11 + 30) = {29.793633, 1.249465, 1};
Point(p11 + 31) = {29.88800787911072, 1.256892464067381, 1};
Point(p11 + 32) = {29.98005893548548, 1.278991967453845, 1};
Point(p11 + 33) = {30.06751956661637, 1.315219347041972, 1};
Point(p11 + 34) = {30.14823620149977, 1.364682564514521, 1};
Point(p11 + 35) = {30.22022132870169, 1.426163671298311, 1};
Point(p11 + 36) = {30.28170243548548, 1.498148798500231, 1};
Point(p11 + 37) = {30.33116565295803, 1.578865433383628, 1};
Point(p11 + 38) = {30.36739303254615, 1.666326064514521, 1};
Point(p11 + 39) = {30.38949253593262, 1.758377120889274, 1};
Spline(11) = {9, p11 + 1, p11 + 2, p11 + 3, p11 + 4, p11 + 5, p11 + 6, p11 + 7, p11 + 8, p11 + 9, p11 + 10, p11 + 11, p11 + 12, p11 + 13, p11 + 14, p11 + 15, p11 + 16, p11 + 17, p11 + 18, p11 + 19, p11 + 20, p11 + 21, p11 + 22, p11 + 23, p11 + 24, p11 + 25, p11 + 26, p11 + 27, p11 + 28, p11 + 29, p11 + 30, p11 + 31, p11 + 32, p11 + 33, p11 + 34, p11 + 35, p11 + 36, p11 + 37, p11 + 38, p11 + 39, 9};
Line(12) = {4, 10};
Line(13) = {10, 7};
Line(14) = {5, 10};
p15 = newp;
Point(p15 + 1) = {6.461484854924013, 0.03240492830884857, 0};
Point(p15 + 2) = {6.437898612316509, 0.1306486992191805, 0};
Point(p15 + 3) = {6.399234043748737, 0.2239932250388012, 0};
Point(p15 + 4) = {6.346443199219181, 0.3101400537493115, 0};
Point(p15 + 5) = {6.280825964522926, 0.3869679645229259, 0};
Point(p15 + 6) = {6.203998053749311, 0.4525851992191805, 0};
Point(p15 + 7) = {6.117851225038801, 0.5053760437487369, 0};
Point(p15 + 8) = {6.024506699219181, 0.5440406123165094, 0};
Point(p15 + 9) = {5.926262928308849, 0.5676268549240131, 0};
Point(p15 + 10) = {5.825539, 0.575554, 0};
Point(p15 + 11) = {5.724815071691151, 0.5676268549240131, 0};
Point(p15 + 12) = {5.626571300780819, 0.5440406123165095, 0};
Point(p15 + 13) = {5.533226774961199, 0.505376043748737, 0};
Point(p15 + 14) = {5.447079946250689, 0.4525851992191805, 0};
Point(p15 + 15) = {5.370252035477074, 0.3869679645229259, 0};
Point(p15 + 16) = {5.30463480078082, 0.3101400537493116, 0};
Point(p15 + 17) = {5.251843956251263, 0.2239932250388013, 0};
Point(p15 + 18) = {5.213179387683491, 0.1306486992191806, 0};
Point(p15 + 19) = {5.189593145075987, 0.03240492830884864, 0};
Point(p15 + 20) = {5.181666, -0.06831899999999992, 0};
Point(p15 + 21) = {5.189593145075987, -0.1690429283088485, 0};
Point(p15 + 22) = {5.213179387683491, -0.2672866992191807, 0};
Point(p15 + 23) = {5.251843956251263, -0.3606312250388009, 0};
Point(p15 + 24) = {5.30463480078082, -0.4467780537493115, 0};
Point(p15 + 25) = {5.370252035477074, -0.5236059645229258, 0};
Point(p15 + 26) = {5.447079946250688, -0.5892231992191805, 0};
Point(p15 + 27) = {5.533226774961198, -0.6420140437487369, 0};
Point(p15 + 28) = {5.626571300780819, -0.6806786123165094, 0};
Point(p15 + 29) = {5.724815071691151, -0.7042648549240131, 0};
Point(p15 + 30) = {5.825539, -0.712192, 0};
Point(p15 + 31) = {5.926262928308849, -0.7042648549240131, 0};
Point(p15 + 32) = {6.02450669921918, -0.6806786123165095, 0};
Point(p15 + 33) = {6.117851225038801, -0.6420140437487371, 0};
Point(p15 + 34) = {6.203998053749311, -0.5892231992191806, 0};
Point(p15 + 35) = {6.280825964522926, -0.5236059645229261, 0};
Point(p15 + 36) = {6.346443199219181, -0.4467780537493117, 0};
Point(p15 + 37) = {6.399234043748737, -0.3606312250388014, 0};
Point(p15 + 38) = {6.437898612316509, -0.2672866992191806, 0};
Point(p15 + 39) = {6.461484854924013, -0.1690429283088487, 0};
Spline(15) = {11, p15 + 1, p15 + 2, p15 + 3, p15 + 4, p15 + 5, p15 + 6, p15 + 7, p15 + 8, p15 + 9, p15 + 10, p15 + 11, p15 + 12, p15 + 13, p15 + 14, p15 + 15, p15 + 16, p15 + 17, p15 + 18, p15 + 19, p15 + 20, p15 + 21, p15 + 22, p15 + 23, p15 + 24, p15 + 25, p15 + 26, p15 + 27, p15 + 28, p15 + 29, p15 + 30, p15 + 31, p15 + 32, p15 + 33, p15 + 34, p15 + 35, p15 + 36, p15 + 37, p15 + 38, p15 + 39, 11};
p16 = newp;
Point(p16 + 1) = {30.38949253593262, 1.947126879110726, 0};
Point(p16 + 2) = {30.36739303254615, 2.039177935485479, 0};
Point(p16 + 3) = {30.33116565295803, 2.126638566616372, 0};
Point(p16 + 4) = {30.28170243548548, 2.207355201499769, 0};
Point(p16 + 5) = {30.22022132870169, 2.279340328701688, 0};
Point(p16 + 6) = {30.14823620149977, 2.340821435485479, 0};
Point(p16 + 7) = {30.06751956661637, 2.390284652958028, 0};
Point(p16 + 8) = {29.98005893548548, 2.426512032546154, 0};
Point(p16 + 9) = {29.88800787911073, 2.448611535932619, 0};
Point(p16 + 10) = {29.793633, 2.456039, 0};
Point(p16 + 11) = {29.69925812088927, 2.448611535932619, 0};
Point(p16 + 12) = {29.60720706451452, 2.426512032546154, 0};
Point(p16 + 13) = {29.51974643338363, 2.390284652958028, 0};
Point(p16 + 14) = {29.43902979850023, 2.340821435485479, 0};
Point(p16 + 15) = {29.36704467129831, 2.279340328701688, 0};
Point(p16 + 16) = {29.30556356451452, 2.207355201499769, 0};
Point(p16 + 17) = {29.25610034704197, 2.126638566616372, 0};
Point(p16 + 18) = {29.21987296745385, 2.039177935485479, 0};
Point(p16 + 19) = {29.19777346406738, 1.947126879110726, 0};
Point(p16 + 20) = {29.190346, 1.852752, 0};
Point(p16 + 21) = {29.19777346406738, 1.758377120889274, 0};
Point(p16 + 22) = {29.21987296745385, 1.666326064514521, 0};
Point(p16 + 23) = {29.25610034704197, 1.578865433383628, 0};
Point(p16 + 24) = {29.30556356451452, 1.498148798500231, 0};
Point(p16 + 25) = {29.36704467129831, 1.426163671298311, 0};
Point(p16 + 26) = {29.43902979850023, 1.364682564514521, 0};
Point(p16 + 27) = {29.51974643338363, 1.315219347041972, 0};
Point(p16 + 28) = {29.60720706451452, 1.278991967453846, 0};
Point(p16 + 29) = {29.69925812088927, 1.256892464067381, 0};
Point(p16 + 30) = {29.793633, 1.249465, 0};
Point(p16 + 31) = {29.88800787911072, 1.256892464067381, 0};
Point(p16 + 32) = {29.98005893548548, 1.278991967453845, 0};
Point(p16 + 33) = {30.06751956661637, 1.315219347041972, 0};
Point(p16 + 34) = {30.14823620149977, 1.364682564514521, 0};
Point(p16 + 35) = {30.22022132870169, 1.426163671298311, 0};
Point(p16 + 36) = {30.28170243548548, 1.498148798500231, 0};
Point(p16 + 37) = {30.33116565295803, 1.578865433383628, 0};
Point(p16 + 38) = {30.36739303254615, 1.666326064514521, 0};
Point(p16 + 39) = {30.38949253593262, 1.758377120889274, 0};
Spline(16) = {12, p16 + 1, p16 + 2, p16 + 3, p16 + 4, p16 + 5, p16 + 6, p16 + 7, p16 + 8, p16 + 9, p16 + 10, p16 + 11, p16 + 12, p16 + 13, p16 + 14, p16 + 15, p16 + 16, p16 + 17, p16 + 18, p16 + 19, p16 + 20, p16 + 21, p16 + 22, p16 + 23, p16 + 24, p16 + 25, p16 + 26, p16 + 27, p16 + 28, p16 + 29, p16 + 30, p16 + 31, p16 + 32, p16 + 33, p16 + 34, p16 + 35, p16 + 36, p16 + 37, p16 + 38, p16 + 39, 12};
Line(17) = {11, 8};
Line(18) = {12, 9};
Curve Loop(1) = {-1, 4, 3, -2};
Plane Surface(1) = {1};
Curve Loop(2) = {-5, 1, 7, -6};
Plane Surface(2) = {2};
Curve Loop(3) = {-2, 7, 9, -8, -10, -11};
Plane Surface(3) = {3};
Curve Loop(4) = {-12, 3, 8, -13};
Plane Surface(4) = {4};
Curve Loop(5) = {-4, 5, 14, -12, -15, -16};
Plane Surface(5) = {5};
Curve Loop(6) = {-6, 14, 13, -9};
Plane Surface(6) = {6};
Curve Loop(7) = {-10, -17, 15, 17};
Surface(7) = {7};
Curve Loop(8) = {-11, -18, 16, 18};
Surface(8) = {8};
Surface Loop(1) = {1, 2, 3, 4, 5, 6, 7, 8};
Volume(1) = {1};
Physical Surface("INFLOW") = {1};
Physical Surface("OUTFLOW") = {6};
Physical Surface("OBSTACLE") = {7, 8};
Physical Surface("WALL_Y") = {2, 4};
Physical Surface("WALL_Z") = {3, 5};
Physical Volume("FLUID") = {1};
