cl__1 = 3.082516;
cl__2 = 0.267829;
cl__3 = 0.718983;
cl__4 = 0.08988599999999999;
cl__5 = 0.06629400000000001;
Point(1) = {0.5691580000000001, -4.343188, 1, cl__1};
Point(2) = {0.5691580000000001, -4.343188, 0, cl__1};
Point(3) = {0.5691580000000001, 4.765922, 1, cl__2};
Point(4) = {0.5691580000000001, 4.765922, 0, cl__2};
Point(5) = {30.486822, -4.343188, 0, cl__3};
Point(6) = {30.486822, -4.343188, 1, cl__3};
Point(7) = {30.486822, 4.765922, 1, cl__2};
Point(8) = {29.91927, -1.080423, 1, cl__4};
Point(9) = {3.382009, 3.209557, 1, cl__5};
Point(10) = {30.486822, 4.765922, 0, cl__2};
Point(11) = {29.91927, -1.080423, 0, cl__4};
Point(12) = {3.382009, 3.209557, 0, cl__5};
Line(1) = {2, 1};
Line(2) = {1, 3};
Line(3) = {4, 3};
Line(4) = {2, 4};
Line(5) = {2, 5};
Line(6) = {5, 6};
Line(7) = {1, 6};
Line(8) = {3, 7};
Line(9) = {6, 7};
p10 = newp;
Point(p10 + 1) = {29.90820356645067, -0.9398106296228681, 1};
Point(p10 + 2) = {29.87527675812403, -0.8026606024701235, 1};
Point(p10 + 3) = {29.82130034231891, -0.6723500073851103, 1};
Point(p10 + 4) = {29.74760339752988, -0.5520875236948921, 1};
Point(p10 + 5) = {29.65600058712378, -0.4448344128762222, 1};
Point(p10 + 6) = {29.54874747630511, -0.3532316024701233, 1};
Point(p10 + 7) = {29.42848499261489, -0.279534657681092, 1};
Point(p10 + 8) = {29.29817439752988, -0.2255582418759707, 1};
Point(p10 + 9) = {29.16102437037713, -0.1926314335493355, 1};
Point(p10 + 10) = {29.020412, -0.1815649999999999, 1};
Point(p10 + 11) = {28.87979962962287, -0.1926314335493357, 1};
Point(p10 + 12) = {28.74264960247012, -0.2255582418759706, 1};
Point(p10 + 13) = {28.61233900738511, -0.2795346576810919, 1};
Point(p10 + 14) = {28.49207652369489, -0.3532316024701233, 1};
Point(p10 + 15) = {28.38482341287622, -0.4448344128762221, 1};
Point(p10 + 16) = {28.29322060247013, -0.552087523694892, 1};
Point(p10 + 17) = {28.21952365768109, -0.6723500073851103, 1};
Point(p10 + 18) = {28.16554724187597, -0.8026606024701233, 1};
Point(p10 + 19) = {28.13262043354933, -0.939810629622868, 1};
Point(p10 + 20) = {28.121554, -1.080423, 1};
Point(p10 + 21) = {28.13262043354933, -1.221035370377132, 1};
Point(p10 + 22) = {28.16554724187597, -1.358185397529877, 1};
Point(p10 + 23) = {28.21952365768109, -1.488495992614889, 1};
Point(p10 + 24) = {28.29322060247013, -1.608758476305108, 1};
Point(p10 + 25) = {28.38482341287622, -1.716011587123778, 1};
Point(p10 + 26) = {28.49207652369489, -1.807614397529876, 1};
Point(p10 + 27) = {28.61233900738511, -1.881311342318908, 1};
Point(p10 + 28) = {28.74264960247012, -1.935287758124029, 1};
Point(p10 + 29) = {28.87979962962287, -1.968214566450664, 1};
Point(p10 + 30) = {29.020412, -1.979281, 1};
Point(p10 + 31) = {29.16102437037713, -1.968214566450664, 1};
Point(p10 + 32) = {29.29817439752988, -1.935287758124029, 1};
Point(p10 + 33) = {29.42848499261489, -1.881311342318908, 1};
Point(p10 + 34) = {29.54874747630511, -1.807614397529877, 1};
Point(p10 + 35) = {29.65600058712378, -1.716011587123778, 1};
Point(p10 + 36) = {29.74760339752988, -1.608758476305108, 1};
Point(p10 + 37) = {29.82130034231891, -1.48849599261489, 1};
Point(p10 + 38) = {29.87527675812403, -1.358185397529877, 1};
Point(p10 + 39) = {29.90820356645067, -1.221035370377132, 1};
Spline(10) = {8, p10 + 1, p10 + 2, p10 + 3, p10 + 4, p10 + 5, p10 + 6, p10 + 7, p10 + 8, p10 + 9, p10 + 10, p10 + 11, p10 + 12, p10 + 13, p10 + 14, p10 + 15, p10 + 16, p10 + 17, p10 + 18, p10 + 19, p10 + 20, p10 + 21, p10 + 22, p10 + 23, p10 + 24, p10 + 25, p10 + 26, p10 + 27, p10 + 28, p10 + 29, p10 + 30, p10 + 31, p10 + 32, p10 + 33, p10 + 34, p10 + 35, p10 + 36, p10 + 37, p10 + 38, p10 + 39, 8};
p11 = newp;
Point(p11 + 1) = {3.373847096202481, 3.313263820688236, 1};
Point(p11 + 2) = {3.349562357969226, 3.414417035267922, 1};
Point(p11 + 3) = {3.309752756151961, 3.510525915887835, 1};
Point(p11 + 4) = {3.255398535267922, 3.599223942940025, 1};
Point(p11 + 5) = {3.187838076626591, 3.678327076626591, 1};
Point(p11 + 6) = {3.108734942940024, 3.745887535267922, 1};
Point(p11 + 7) = {3.020036915887835, 3.800241756151961, 1};
Point(p11 + 8) = {2.923928035267922, 3.840051357969226, 1};
Point(p11 + 9) = {2.822774820688236, 3.864336096202481, 1};
Point(p11 + 10) = {2.719068, 3.872498, 1};
Point(p11 + 11) = {2.615361179311764, 3.864336096202481, 1};
Point(p11 + 12) = {2.514207964732078, 3.840051357969226, 1};
Point(p11 + 13) = {2.418099084112165, 3.800241756151961, 1};
Point(p11 + 14) = {2.329401057059976, 3.745887535267922, 1};
Point(p11 + 15) = {2.250297923373409, 3.678327076626591, 1};
Point(p11 + 16) = {2.182737464732078, 3.599223942940025, 1};
Point(p11 + 17) = {2.128383243848039, 3.510525915887835, 1};
Point(p11 + 18) = {2.088573642030775, 3.414417035267922, 1};
Point(p11 + 19) = {2.064288903797519, 3.313263820688236, 1};
Point(p11 + 20) = {2.056127, 3.209557, 1};
Point(p11 + 21) = {2.064288903797519, 3.105850179311765, 1};
Point(p11 + 22) = {2.088573642030775, 3.004696964732078, 1};
Point(p11 + 23) = {2.128383243848039, 2.908588084112166, 1};
Point(p11 + 24) = {2.182737464732078, 2.819890057059976, 1};
Point(p11 + 25) = {2.250297923373409, 2.740786923373409, 1};
Point(p11 + 26) = {2.329401057059976, 2.673226464732078, 1};
Point(p11 + 27) = {2.418099084112165, 2.61887224384804, 1};
Point(p11 + 28) = {2.514207964732078, 2.579062642030775, 1};
Point(p11 + 29) = {2.615361179311764, 2.554777903797519, 1};
Point(p11 + 30) = {2.719068, 2.546616, 1};
Point(p11 + 31) = {2.822774820688235, 2.554777903797519, 1};
Point(p11 + 32) = {2.923928035267922, 2.579062642030775, 1};
Point(p11 + 33) = {3.020036915887835, 2.618872243848039, 1};
Point(p11 + 34) = {3.108734942940024, 2.673226464732078, 1};
Point(p11 + 35) = {3.187838076626591, 2.740786923373409, 1};
Point(p11 + 36) = {3.255398535267922, 2.819890057059975, 1};
Point(p11 + 37) = {3.309752756151961, 2.908588084112165, 1};
Point(p11 + 38) = {3.349562357969226, 3.004696964732078, 1};
Point(p11 + 39) = {3.373847096202481, 3.105850179311764, 1};
Spline(11) = {9, p11 + 1, p11 + 2, p11 + 3, p11 + 4, p11 + 5, p11 + 6, p11 + 7, p11 + 8, p11 + 9, p11 + 10, p11 + 11, p11 + 12, p11 + 13, p11 + 14, p11 + 15, p11 + 16, p11 + 17, p11 + 18, p11 + 19, p11 + 20, p11 + 21, p11 + 22, p11 + 23, p11 + 24, p11 + 25, p11 + 26, p11 + 27, p11 + 28, p11 + 29, p11 + 30, p11 + 31, p11 + 32, p11 + 33, p11 + 34, p11 + 35, p11 + 36, p11 + 37, p11 + 38, p11 + 39, 9};
Line(12) = {4, 10};
Line(13) = {10, 7};
Line(14) = {5, 10};
p15 = newp;
Point(p15 + 1) = {29.90820356645067, -0.9398106296228681, 0};
Point(p15 + 2) = {29.87527675812403, -0.8026606024701235, 0};
Point(p15 + 3) = {29.82130034231891, -0.6723500073851103, 0};
Point(p15 + 4) = {29.74760339752988, -0.5520875236948921, 0};
Point(p15 + 5) = {29.65600058712378, -0.4448344128762222, 0};
Point(p15 + 6) = {29.54874747630511, -0.3532316024701233, 0};
Point(p15 + 7) = {29.42848499261489, -0.279534657681092, 0};
Point(p15 + 8) = {29.29817439752988, -0.2255582418759707, 0};
Point(p15 + 9) = {29.16102437037713, -0.1926314335493355, 0};
Point(p15 + 10) = {29.020412, -0.1815649999999999, 0};
Point(p15 + 11) = {28.87979962962287, -0.1926314335493357, 0};
Point(p15 + 12) = {28.74264960247012, -0.2255582418759706, 0};
Point(p15 + 13) = {28.61233900738511, -0.2795346576810919, 0};
Point(p15 + 14) = {28.49207652369489, -0.3532316024701233, 0};
Point(p15 + 15) = {28.38482341287622, -0.4448344128762221, 0};
Point(p15 + 16) = {28.29322060247013, -0.552087523694892, 0};
Point(p15 + 17) = {28.21952365768109, -0.6723500073851103, 0};
Point(p15 + 18) = {28.16554724187597, -0.8026606024701233, 0};
Point(p15 + 19) = {28.13262043354933, -0.939810629622868, 0};
Point(p15 + 20) = {28.121554, -1.080423, 0};
Point(p15 + 21) = {28.13262043354933, -1.221035370377132, 0};
Point(p15 + 22) = {28.16554724187597, -1.358185397529877, 0};
Point(p15 + 23) = {28.21952365768109, -1.488495992614889, 0};
Point(p15 + 24) = {28.29322060247013, -1.608758476305108, 0};
Point(p15 + 25) = {28.38482341287622, -1.716011587123778, 0};
Point(p15 + 26) = {28.49207652369489, -1.807614397529876, 0};
Point(p15 + 27) = {28.61233900738511, -1.881311342318908, 0};
Point(p15 + 28) = {28.74264960247012, -1.935287758124029, 0};
Point(p15 + 29) = {28.87979962962287, -1.968214566450664, 0};
Point(p15 + 30) = {29.020412, -1.979281, 0};
Point(p15 + 31) = {29.16102437037713, -1.968214566450664, 0};
Point(p15 + 32) = {29.29817439752988, -1.935287758124029, 0};
Point(p15 + 33) = {29.42848499261489, -1.881311342318908, 0};
Point(p15 + 34) = {29.54874747630511, -1.807614397529877, 0};
Point(p15 + 35) = {29.65600058712378, -1.716011587123778, 0};
Point(p15 + 36) = {29.74760339752988, -1.608758476305108, 0};
Point(p15 + 37) = {29.82130034231891, -1.48849599261489, 0};
Point(p15 + 38) = {29.87527675812403, -1.358185397529877, 0};
Point(p15 + 39) = {29.90820356645067, -1.221035370377132, 0};
Spline(15) = {11, p15 + 1, p15 + 2, p15 + 3, p15 + 4, p15 + 5, p15 + 6, p15 + 7, p15 + 8, p15 + 9, p15 + 10, p15 + 11, p15 + 12, p15 + 13, p15 + 14, p15 + 15, p15 + 16, p15 + 17, p15 + 18, p15 + 19, p15 + 20, p15 + 21, p15 + 22, p15 + 23, p15 + 24, p15 + 25, p15 + 26, p15 + 27, p15 + 28, p15 + 29, p15 + 30, p15 + 31, p15 + 32, p15 + 33, p15 + 34, p15 + 35, p15 + 36, p15 + 37, p15 + 38, p15 + 39, 11};
p16 = newp;
Point(p16 + 1) = {3.373847096202481, 3.313263820688236, 0};
Point(p16 + 2) = {3.349562357969226, 3.414417035267922, 0};
Point(p16 + 3) = {3.309752756151961, 3.510525915887835, 0};
Point(p16 + 4) = {3.255398535267922, 3.599223942940025, 0};
Point(p16 + 5) = {3.187838076626591, 3.678327076626591, 0};
Point(p16 + 6) = {3.108734942940024, 3.745887535267922, 0};
Point(p16 + 7) = {3.020036915887835, 3.800241756151961, 0};
Point(p16 + 8) = {2.923928035267922, 3.840051357969226, 0};
Point(p16 + 9) = {2.822774820688236, 3.864336096202481, 0};
Point(p16 + 10) = {2.719068, 3.872498, 0};
Point(p16 + 11) = {2.615361179311764, 3.864336096202481, 0};
Point(p16 + 12) = {2.514207964732078, 3.840051357969226, 0};
Point(p16 + 13) = {2.418099084112165, 3.800241756151961, 0};
Point(p16 + 14) = {2.329401057059976, 3.745887535267922, 0};
Point(p16 + 15) = {2.250297923373409, 3.678327076626591, 0};
Point(p16 + 16) = {2.182737464732078, 3.599223942940025, 0};
Point(p16 + 17) = {2.128383243848039, 3.510525915887835, 0};
Point(p16 + 18) = {2.088573642030775, 3.414417035267922, 0};
Point(p16 + 19) = {2.064288903797519, 3.313263820688236, 0};
Point(p16 + 20) = {2.056127, 3.209557, 0};
Point(p16 + 21) = {2.064288903797519, 3.105850179311765, 0};
Point(p16 + 22) = {2.088573642030775, 3.004696964732078, 0};
Point(p16 + 23) = {2.128383243848039, 2.908588084112166, 0};
Point(p16 + 24) = {2.182737464732078, 2.819890057059976, 0};
Point(p16 + 25) = {2.250297923373409, 2.740786923373409, 0};
Point(p16 + 26) = {2.329401057059976, 2.673226464732078, 0};
Point(p16 + 27) = {2.418099084112165, 2.61887224384804, 0};
Point(p16 + 28) = {2.514207964732078, 2.579062642030775, 0};
Point(p16 + 29) = {2.615361179311764, 2.554777903797519, 0};
Point(p16 + 30) = {2.719068, 2.546616, 0};
Point(p16 + 31) = {2.822774820688235, 2.554777903797519, 0};
Point(p16 + 32) = {2.923928035267922, 2.579062642030775, 0};
Point(p16 + 33) = {3.020036915887835, 2.618872243848039, 0};
Point(p16 + 34) = {3.108734942940024, 2.673226464732078, 0};
Point(p16 + 35) = {3.187838076626591, 2.740786923373409, 0};
Point(p16 + 36) = {3.255398535267922, 2.819890057059975, 0};
Point(p16 + 37) = {3.309752756151961, 2.908588084112165, 0};
Point(p16 + 38) = {3.349562357969226, 3.004696964732078, 0};
Point(p16 + 39) = {3.373847096202481, 3.105850179311764, 0};
Spline(16) = {12, p16 + 1, p16 + 2, p16 + 3, p16 + 4, p16 + 5, p16 + 6, p16 + 7, p16 + 8, p16 + 9, p16 + 10, p16 + 11, p16 + 12, p16 + 13, p16 + 14, p16 + 15, p16 + 16, p16 + 17, p16 + 18, p16 + 19, p16 + 20, p16 + 21, p16 + 22, p16 + 23, p16 + 24, p16 + 25, p16 + 26, p16 + 27, p16 + 28, p16 + 29, p16 + 30, p16 + 31, p16 + 32, p16 + 33, p16 + 34, p16 + 35, p16 + 36, p16 + 37, p16 + 38, p16 + 39, 12};
Line(17) = {11, 8};
Line(18) = {12, 9};
Curve Loop(1) = {-1, 4, 3, -2};
Plane Surface(1) = {1};
Curve Loop(2) = {-5, 1, 7, -6};
Plane Surface(2) = {2};
Curve Loop(3) = {-2, 7, 9, -8, -10, -11};
Plane Surface(3) = {3};
Curve Loop(4) = {-12, 3, 8, -13};
Plane Surface(4) = {4};
Curve Loop(5) = {-4, 5, 14, -12, -15, -16};
Plane Surface(5) = {5};
Curve Loop(6) = {-6, 14, 13, -9};
Plane Surface(6) = {6};
Curve Loop(7) = {-10, -17, 15, 17};
Surface(7) = {7};
Curve Loop(8) = {-11, -18, 16, 18};
Surface(8) = {8};
Surface Loop(1) = {1, 2, 3, 4, 5, 6, 7, 8};
Volume(1) = {1};
Physical Surface("INFLOW") = {1};
Physical Surface("OUTFLOW") = {6};
Physical Surface("OBSTACLE") = {7, 8};
Physical Surface("WALL_Y") = {2, 4};
Physical Surface("WALL_Z") = {3, 5};
Physical Volume("FLUID") = {1};
