cl__1 = 0.515539;
cl__2 = 3.47735;
cl__3 = 0.08878;
cl__4 = 0.082443;
Point(1) = {0.132507, -4.256033, 1, cl__1};
Point(2) = {0.132507, -4.256033, 0, cl__1};
Point(3) = {0.132507, 4.630817, 1, cl__2};
Point(4) = {0.132507, 4.630817, 0, cl__2};
Point(5) = {34.488437, -4.256033, 0, cl__1};
Point(6) = {34.488437, -4.256033, 1, cl__1};
Point(7) = {34.488437, 4.630817, 1, cl__2};
Point(8) = {14.174054, -1.849821, 1, cl__3};
Point(9) = {4.034071, 0.8713009999999998, 1, cl__4};
Point(10) = {34.488437, 4.630817, 0, cl__2};
Point(11) = {14.174054, -1.849821, 0, cl__3};
Point(12) = {4.034071, 0.8713009999999998, 0, cl__4};
Line(1) = {2, 1};
Line(2) = {1, 3};
Line(3) = {4, 3};
Line(4) = {2, 4};
Line(5) = {2, 5};
Line(6) = {5, 6};
Line(7) = {1, 6};
Line(8) = {3, 7};
Line(9) = {6, 7};
p10 = newp;
Point(p10 + 1) = {14.16312370878036, -1.710938481937283, 1};
Point(p10 + 2) = {14.13060197516684, -1.575475712393922, 1};
Point(p10 + 3) = {14.07728959217443, -1.44676823433123, 1};
Point(p10 + 4) = {14.00449928760608, -1.327985253014742, 1};
Point(p10 + 5) = {13.91402340033742, -1.222051599662583, 1};
Point(p10 + 6) = {13.80808974698526, -1.131575712393921, 1};
Point(p10 + 7) = {13.68930676566877, -1.058785407825567, 1};
Point(p10 + 8) = {13.56059928760608, -1.005473024833162, 1};
Point(p10 + 9) = {13.42513651806272, -0.9729512912196366, 1};
Point(p10 + 10) = {13.286254, -0.9620209999999999, 1};
Point(p10 + 11) = {13.14737148193728, -0.9729512912196366, 1};
Point(p10 + 12) = {13.01190871239392, -1.005473024833162, 1};
Point(p10 + 13) = {12.88320123433123, -1.058785407825567, 1};
Point(p10 + 14) = {12.76441825301474, -1.131575712393921, 1};
Point(p10 + 15) = {12.65848459966258, -1.222051599662583, 1};
Point(p10 + 16) = {12.56800871239392, -1.327985253014742, 1};
Point(p10 + 17) = {12.49521840782557, -1.44676823433123, 1};
Point(p10 + 18) = {12.44190602483316, -1.575475712393922, 1};
Point(p10 + 19) = {12.40938429121964, -1.710938481937283, 1};
Point(p10 + 20) = {12.398454, -1.849821, 1};
Point(p10 + 21) = {12.40938429121964, -1.988703518062717, 1};
Point(p10 + 22) = {12.44190602483316, -2.124166287606079, 1};
Point(p10 + 23) = {12.49521840782557, -2.252873765668769, 1};
Point(p10 + 24) = {12.56800871239392, -2.371656746985257, 1};
Point(p10 + 25) = {12.65848459966258, -2.477590400337417, 1};
Point(p10 + 26) = {12.76441825301474, -2.568066287606078, 1};
Point(p10 + 27) = {12.88320123433123, -2.640856592174433, 1};
Point(p10 + 28) = {13.01190871239392, -2.694168975166837, 1};
Point(p10 + 29) = {13.14737148193728, -2.726690708780363, 1};
Point(p10 + 30) = {13.286254, -2.737621, 1};
Point(p10 + 31) = {13.42513651806272, -2.726690708780363, 1};
Point(p10 + 32) = {13.56059928760608, -2.694168975166837, 1};
Point(p10 + 33) = {13.68930676566877, -2.640856592174433, 1};
Point(p10 + 34) = {13.80808974698526, -2.568066287606078, 1};
Point(p10 + 35) = {13.91402340033742, -2.477590400337417, 1};
Point(p10 + 36) = {14.00449928760608, -2.371656746985258, 1};
Point(p10 + 37) = {14.07728959217443, -2.25287376566877, 1};
Point(p10 + 38) = {14.13060197516684, -2.124166287606078, 1};
Point(p10 + 39) = {14.16312370878036, -1.988703518062717, 1};
Spline(10) = {8, p10 + 1, p10 + 2, p10 + 3, p10 + 4, p10 + 5, p10 + 6, p10 + 7, p10 + 8, p10 + 9, p10 + 10, p10 + 11, p10 + 12, p10 + 13, p10 + 14, p10 + 15, p10 + 16, p10 + 17, p10 + 18, p10 + 19, p10 + 20, p10 + 21, p10 + 22, p10 + 23, p10 + 24, p10 + 25, p10 + 26, p10 + 27, p10 + 28, p10 + 29, p10 + 30, p10 + 31, p10 + 32, p10 + 33, p10 + 34, p10 + 35, p10 + 36, p10 + 37, p10 + 38, p10 + 39, 8};
p11 = newp;
Point(p11 + 1) = {4.02392089863685, 1.000270266013118, 1};
Point(p11 + 2) = {3.993720523729213, 1.126063880672538, 1};
Point(p11 + 3) = {3.944213508736616, 1.245584387700275, 1};
Point(p11 + 4) = {3.876618880672538, 1.355888795547484, 1};
Point(p11 + 5) = {3.792601043613625, 1.454261043613625, 1};
Point(p11 + 6) = {3.694228795547484, 1.538278880672538, 1};
Point(p11 + 7) = {3.583924387700275, 1.605873508736616, 1};
Point(p11 + 8) = {3.464403880672538, 1.655380523729213, 1};
Point(p11 + 9) = {3.338610266013117, 1.685580898636849, 1};
Point(p11 + 10) = {3.209641, 1.695731, 1};
Point(p11 + 11) = {3.080671733986882, 1.685580898636849, 1};
Point(p11 + 12) = {2.954878119327462, 1.655380523729213, 1};
Point(p11 + 13) = {2.835357612299726, 1.605873508736616, 1};
Point(p11 + 14) = {2.725053204452516, 1.538278880672538, 1};
Point(p11 + 15) = {2.626680956386375, 1.454261043613625, 1};
Point(p11 + 16) = {2.542663119327462, 1.355888795547484, 1};
Point(p11 + 17) = {2.475068491263384, 1.245584387700275, 1};
Point(p11 + 18) = {2.425561476270786, 1.126063880672538, 1};
Point(p11 + 19) = {2.395361101363151, 1.000270266013118, 1};
Point(p11 + 20) = {2.385211, 0.8713010000000001, 1};
Point(p11 + 21) = {2.395361101363151, 0.7423317339868826, 1};
Point(p11 + 22) = {2.425561476270786, 0.6165381193274618, 1};
Point(p11 + 23) = {2.475068491263384, 0.4970176122997259, 1};
Point(p11 + 24) = {2.542663119327462, 0.3867132044525164, 1};
Point(p11 + 25) = {2.626680956386374, 0.2883409563863747, 1};
Point(p11 + 26) = {2.725053204452516, 0.2043231193274622, 1};
Point(p11 + 27) = {2.835357612299725, 0.1367284912633839, 1};
Point(p11 + 28) = {2.954878119327462, 0.08722147627078658, 1};
Point(p11 + 29) = {3.080671733986882, 0.05702110136315064, 1};
Point(p11 + 30) = {3.209641, 0.046871, 1};
Point(p11 + 31) = {3.338610266013117, 0.05702110136315053, 1};
Point(p11 + 32) = {3.464403880672537, 0.08722147627078647, 1};
Point(p11 + 33) = {3.583924387700274, 0.1367284912633838, 1};
Point(p11 + 34) = {3.694228795547483, 0.2043231193274619, 1};
Point(p11 + 35) = {3.792601043613625, 0.2883409563863745, 1};
Point(p11 + 36) = {3.876618880672538, 0.3867132044525162, 1};
Point(p11 + 37) = {3.944213508736616, 0.4970176122997253, 1};
Point(p11 + 38) = {3.993720523729213, 0.6165381193274619, 1};
Point(p11 + 39) = {4.023920898636849, 0.7423317339868822, 1};
Spline(11) = {9, p11 + 1, p11 + 2, p11 + 3, p11 + 4, p11 + 5, p11 + 6, p11 + 7, p11 + 8, p11 + 9, p11 + 10, p11 + 11, p11 + 12, p11 + 13, p11 + 14, p11 + 15, p11 + 16, p11 + 17, p11 + 18, p11 + 19, p11 + 20, p11 + 21, p11 + 22, p11 + 23, p11 + 24, p11 + 25, p11 + 26, p11 + 27, p11 + 28, p11 + 29, p11 + 30, p11 + 31, p11 + 32, p11 + 33, p11 + 34, p11 + 35, p11 + 36, p11 + 37, p11 + 38, p11 + 39, 9};
Line(12) = {4, 10};
Line(13) = {10, 7};
Line(14) = {5, 10};
p15 = newp;
Point(p15 + 1) = {14.16312370878036, -1.710938481937283, 0};
Point(p15 + 2) = {14.13060197516684, -1.575475712393922, 0};
Point(p15 + 3) = {14.07728959217443, -1.44676823433123, 0};
Point(p15 + 4) = {14.00449928760608, -1.327985253014742, 0};
Point(p15 + 5) = {13.91402340033742, -1.222051599662583, 0};
Point(p15 + 6) = {13.80808974698526, -1.131575712393921, 0};
Point(p15 + 7) = {13.68930676566877, -1.058785407825567, 0};
Point(p15 + 8) = {13.56059928760608, -1.005473024833162, 0};
Point(p15 + 9) = {13.42513651806272, -0.9729512912196366, 0};
Point(p15 + 10) = {13.286254, -0.9620209999999999, 0};
Point(p15 + 11) = {13.14737148193728, -0.9729512912196366, 0};
Point(p15 + 12) = {13.01190871239392, -1.005473024833162, 0};
Point(p15 + 13) = {12.88320123433123, -1.058785407825567, 0};
Point(p15 + 14) = {12.76441825301474, -1.131575712393921, 0};
Point(p15 + 15) = {12.65848459966258, -1.222051599662583, 0};
Point(p15 + 16) = {12.56800871239392, -1.327985253014742, 0};
Point(p15 + 17) = {12.49521840782557, -1.44676823433123, 0};
Point(p15 + 18) = {12.44190602483316, -1.575475712393922, 0};
Point(p15 + 19) = {12.40938429121964, -1.710938481937283, 0};
Point(p15 + 20) = {12.398454, -1.849821, 0};
Point(p15 + 21) = {12.40938429121964, -1.988703518062717, 0};
Point(p15 + 22) = {12.44190602483316, -2.124166287606079, 0};
Point(p15 + 23) = {12.49521840782557, -2.252873765668769, 0};
Point(p15 + 24) = {12.56800871239392, -2.371656746985257, 0};
Point(p15 + 25) = {12.65848459966258, -2.477590400337417, 0};
Point(p15 + 26) = {12.76441825301474, -2.568066287606078, 0};
Point(p15 + 27) = {12.88320123433123, -2.640856592174433, 0};
Point(p15 + 28) = {13.01190871239392, -2.694168975166837, 0};
Point(p15 + 29) = {13.14737148193728, -2.726690708780363, 0};
Point(p15 + 30) = {13.286254, -2.737621, 0};
Point(p15 + 31) = {13.42513651806272, -2.726690708780363, 0};
Point(p15 + 32) = {13.56059928760608, -2.694168975166837, 0};
Point(p15 + 33) = {13.68930676566877, -2.640856592174433, 0};
Point(p15 + 34) = {13.80808974698526, -2.568066287606078, 0};
Point(p15 + 35) = {13.91402340033742, -2.477590400337417, 0};
Point(p15 + 36) = {14.00449928760608, -2.371656746985258, 0};
Point(p15 + 37) = {14.07728959217443, -2.25287376566877, 0};
Point(p15 + 38) = {14.13060197516684, -2.124166287606078, 0};
Point(p15 + 39) = {14.16312370878036, -1.988703518062717, 0};
Spline(15) = {11, p15 + 1, p15 + 2, p15 + 3, p15 + 4, p15 + 5, p15 + 6, p15 + 7, p15 + 8, p15 + 9, p15 + 10, p15 + 11, p15 + 12, p15 + 13, p15 + 14, p15 + 15, p15 + 16, p15 + 17, p15 + 18, p15 + 19, p15 + 20, p15 + 21, p15 + 22, p15 + 23, p15 + 24, p15 + 25, p15 + 26, p15 + 27, p15 + 28, p15 + 29, p15 + 30, p15 + 31, p15 + 32, p15 + 33, p15 + 34, p15 + 35, p15 + 36, p15 + 37, p15 + 38, p15 + 39, 11};
p16 = newp;
Point(p16 + 1) = {4.02392089863685, 1.000270266013118, 0};
Point(p16 + 2) = {3.993720523729213, 1.126063880672538, 0};
Point(p16 + 3) = {3.944213508736616, 1.245584387700275, 0};
Point(p16 + 4) = {3.876618880672538, 1.355888795547484, 0};
Point(p16 + 5) = {3.792601043613625, 1.454261043613625, 0};
Point(p16 + 6) = {3.694228795547484, 1.538278880672538, 0};
Point(p16 + 7) = {3.583924387700275, 1.605873508736616, 0};
Point(p16 + 8) = {3.464403880672538, 1.655380523729213, 0};
Point(p16 + 9) = {3.338610266013117, 1.685580898636849, 0};
Point(p16 + 10) = {3.209641, 1.695731, 0};
Point(p16 + 11) = {3.080671733986882, 1.685580898636849, 0};
Point(p16 + 12) = {2.954878119327462, 1.655380523729213, 0};
Point(p16 + 13) = {2.835357612299726, 1.605873508736616, 0};
Point(p16 + 14) = {2.725053204452516, 1.538278880672538, 0};
Point(p16 + 15) = {2.626680956386375, 1.454261043613625, 0};
Point(p16 + 16) = {2.542663119327462, 1.355888795547484, 0};
Point(p16 + 17) = {2.475068491263384, 1.245584387700275, 0};
Point(p16 + 18) = {2.425561476270786, 1.126063880672538, 0};
Point(p16 + 19) = {2.395361101363151, 1.000270266013118, 0};
Point(p16 + 20) = {2.385211, 0.8713010000000001, 0};
Point(p16 + 21) = {2.395361101363151, 0.7423317339868826, 0};
Point(p16 + 22) = {2.425561476270786, 0.6165381193274618, 0};
Point(p16 + 23) = {2.475068491263384, 0.4970176122997259, 0};
Point(p16 + 24) = {2.542663119327462, 0.3867132044525164, 0};
Point(p16 + 25) = {2.626680956386374, 0.2883409563863747, 0};
Point(p16 + 26) = {2.725053204452516, 0.2043231193274622, 0};
Point(p16 + 27) = {2.835357612299725, 0.1367284912633839, 0};
Point(p16 + 28) = {2.954878119327462, 0.08722147627078658, 0};
Point(p16 + 29) = {3.080671733986882, 0.05702110136315064, 0};
Point(p16 + 30) = {3.209641, 0.046871, 0};
Point(p16 + 31) = {3.338610266013117, 0.05702110136315053, 0};
Point(p16 + 32) = {3.464403880672537, 0.08722147627078647, 0};
Point(p16 + 33) = {3.583924387700274, 0.1367284912633838, 0};
Point(p16 + 34) = {3.694228795547483, 0.2043231193274619, 0};
Point(p16 + 35) = {3.792601043613625, 0.2883409563863745, 0};
Point(p16 + 36) = {3.876618880672538, 0.3867132044525162, 0};
Point(p16 + 37) = {3.944213508736616, 0.4970176122997253, 0};
Point(p16 + 38) = {3.993720523729213, 0.6165381193274619, 0};
Point(p16 + 39) = {4.023920898636849, 0.7423317339868822, 0};
Spline(16) = {12, p16 + 1, p16 + 2, p16 + 3, p16 + 4, p16 + 5, p16 + 6, p16 + 7, p16 + 8, p16 + 9, p16 + 10, p16 + 11, p16 + 12, p16 + 13, p16 + 14, p16 + 15, p16 + 16, p16 + 17, p16 + 18, p16 + 19, p16 + 20, p16 + 21, p16 + 22, p16 + 23, p16 + 24, p16 + 25, p16 + 26, p16 + 27, p16 + 28, p16 + 29, p16 + 30, p16 + 31, p16 + 32, p16 + 33, p16 + 34, p16 + 35, p16 + 36, p16 + 37, p16 + 38, p16 + 39, 12};
Line(17) = {11, 8};
Line(18) = {12, 9};
Curve Loop(1) = {-1, 4, 3, -2};
Plane Surface(1) = {1};
Curve Loop(2) = {-5, 1, 7, -6};
Plane Surface(2) = {2};
Curve Loop(3) = {-2, 7, 9, -8, -10, -11};
Plane Surface(3) = {3};
Curve Loop(4) = {-12, 3, 8, -13};
Plane Surface(4) = {4};
Curve Loop(5) = {-4, 5, 14, -12, -15, -16};
Plane Surface(5) = {5};
Curve Loop(6) = {-6, 14, 13, -9};
Plane Surface(6) = {6};
Curve Loop(7) = {-10, -17, 15, 17};
Surface(7) = {7};
Curve Loop(8) = {-11, -18, 16, 18};
Surface(8) = {8};
Surface Loop(1) = {1, 2, 3, 4, 5, 6, 7, 8};
Volume(1) = {1};
Physical Surface("INFLOW") = {1};
Physical Surface("OUTFLOW") = {6};
Physical Surface("OBSTACLE") = {7, 8};
Physical Surface("WALL_Y") = {2, 4};
Physical Surface("WALL_Z") = {3, 5};
Physical Volume("FLUID") = {1};
