cl__1 = 0.976061;
cl__2 = 0.874727;
cl__3 = 3.968187;
cl__4 = 0.070451;
Point(1) = {0.95702, -4.937263, 1, cl__1};
Point(2) = {0.95702, -4.937263, 0, cl__1};
Point(3) = {0.95702, 4.967931, 1, cl__2};
Point(4) = {0.95702, 4.967931, 0, cl__2};
Point(5) = {39.371598, -4.937263, 0, cl__3};
Point(6) = {39.371598, -4.937263, 1, cl__3};
Point(7) = {39.371598, 4.967931, 1, cl__3};
Point(8) = {10.255794, 1.034117, 1, cl__4};
Point(9) = {39.371598, 4.967931, 0, cl__3};
Point(10) = {10.255794, 1.034117, 0, cl__4};
Line(1) = {2, 1};
Line(2) = {1, 3};
Line(3) = {4, 3};
Line(4) = {2, 4};
Line(5) = {2, 5};
Line(6) = {5, 6};
Line(7) = {1, 6};
Line(8) = {3, 7};
Line(9) = {6, 7};
p10 = newp;
Point(p10 + 1) = {10.2471202758977, 1.144327114268888, 1};
Point(p10 + 2) = {10.22131267946465, 1.251823489758077, 1};
Point(p10 + 3) = {10.17900667937552, 1.353959208943007, 1};
Point(p10 + 4) = {10.12124398975808, 1.448219351448327, 1};
Point(p10 + 5) = {10.04944691973408, 1.532282919734078, 1};
Point(p10 + 6) = {9.965383351448327, 1.604079989758077, 1};
Point(p10 + 7) = {9.871123208943008, 1.661842679375519, 1};
Point(p10 + 8) = {9.768987489758077, 1.704148679464647, 1};
Point(p10 + 9) = {9.661491114268888, 1.729956275897702, 1};
Point(p10 + 10) = {9.551280999999999, 1.73863, 1};
Point(p10 + 11) = {9.441070885731111, 1.729956275897702, 1};
Point(p10 + 12) = {9.333574510241922, 1.704148679464647, 1};
Point(p10 + 13) = {9.231438791056993, 1.661842679375519, 1};
Point(p10 + 14) = {9.137178648551673, 1.604079989758077, 1};
Point(p10 + 15) = {9.053115080265922, 1.532282919734078, 1};
Point(p10 + 16) = {8.981318010241923, 1.448219351448327, 1};
Point(p10 + 17) = {8.92355532062448, 1.353959208943007, 1};
Point(p10 + 18) = {8.881249320535352, 1.251823489758077, 1};
Point(p10 + 19) = {8.855441724102297, 1.144327114268888, 1};
Point(p10 + 20) = {8.846767999999999, 1.034117, 1};
Point(p10 + 21) = {8.855441724102297, 0.9239068857311119, 1};
Point(p10 + 22) = {8.881249320535352, 0.8164105102419225, 1};
Point(p10 + 23) = {8.92355532062448, 0.7142747910569931, 1};
Point(p10 + 24) = {8.981318010241923, 0.6200146485516729, 1};
Point(p10 + 25) = {9.053115080265922, 0.5359510802659219, 1};
Point(p10 + 26) = {9.137178648551672, 0.4641540102419227, 1};
Point(p10 + 27) = {9.231438791056991, 0.4063913206244805, 1};
Point(p10 + 28) = {9.333574510241922, 0.3640853205353525, 1};
Point(p10 + 29) = {9.441070885731111, 0.3382777241022978, 1};
Point(p10 + 30) = {9.551280999999999, 0.329604, 1};
Point(p10 + 31) = {9.661491114268888, 0.3382777241022977, 1};
Point(p10 + 32) = {9.768987489758077, 0.3640853205353525, 1};
Point(p10 + 33) = {9.871123208943006, 0.4063913206244804, 1};
Point(p10 + 34) = {9.965383351448326, 0.4641540102419226, 1};
Point(p10 + 35) = {10.04944691973408, 0.5359510802659218, 1};
Point(p10 + 36) = {10.12124398975808, 0.6200146485516727, 1};
Point(p10 + 37) = {10.17900667937552, 0.7142747910569925, 1};
Point(p10 + 38) = {10.22131267946465, 0.8164105102419225, 1};
Point(p10 + 39) = {10.2471202758977, 0.9239068857311117, 1};
Spline(10) = {8, p10 + 1, p10 + 2, p10 + 3, p10 + 4, p10 + 5, p10 + 6, p10 + 7, p10 + 8, p10 + 9, p10 + 10, p10 + 11, p10 + 12, p10 + 13, p10 + 14, p10 + 15, p10 + 16, p10 + 17, p10 + 18, p10 + 19, p10 + 20, p10 + 21, p10 + 22, p10 + 23, p10 + 24, p10 + 25, p10 + 26, p10 + 27, p10 + 28, p10 + 29, p10 + 30, p10 + 31, p10 + 32, p10 + 33, p10 + 34, p10 + 35, p10 + 36, p10 + 37, p10 + 38, p10 + 39, 8};
Line(11) = {4, 9};
Line(12) = {9, 7};
Line(13) = {5, 9};
p14 = newp;
Point(p14 + 1) = {10.2471202758977, 1.144327114268888, 0};
Point(p14 + 2) = {10.22131267946465, 1.251823489758077, 0};
Point(p14 + 3) = {10.17900667937552, 1.353959208943007, 0};
Point(p14 + 4) = {10.12124398975808, 1.448219351448327, 0};
Point(p14 + 5) = {10.04944691973408, 1.532282919734078, 0};
Point(p14 + 6) = {9.965383351448327, 1.604079989758077, 0};
Point(p14 + 7) = {9.871123208943008, 1.661842679375519, 0};
Point(p14 + 8) = {9.768987489758077, 1.704148679464647, 0};
Point(p14 + 9) = {9.661491114268888, 1.729956275897702, 0};
Point(p14 + 10) = {9.551280999999999, 1.73863, 0};
Point(p14 + 11) = {9.441070885731111, 1.729956275897702, 0};
Point(p14 + 12) = {9.333574510241922, 1.704148679464647, 0};
Point(p14 + 13) = {9.231438791056993, 1.661842679375519, 0};
Point(p14 + 14) = {9.137178648551673, 1.604079989758077, 0};
Point(p14 + 15) = {9.053115080265922, 1.532282919734078, 0};
Point(p14 + 16) = {8.981318010241923, 1.448219351448327, 0};
Point(p14 + 17) = {8.92355532062448, 1.353959208943007, 0};
Point(p14 + 18) = {8.881249320535352, 1.251823489758077, 0};
Point(p14 + 19) = {8.855441724102297, 1.144327114268888, 0};
Point(p14 + 20) = {8.846767999999999, 1.034117, 0};
Point(p14 + 21) = {8.855441724102297, 0.9239068857311119, 0};
Point(p14 + 22) = {8.881249320535352, 0.8164105102419225, 0};
Point(p14 + 23) = {8.92355532062448, 0.7142747910569931, 0};
Point(p14 + 24) = {8.981318010241923, 0.6200146485516729, 0};
Point(p14 + 25) = {9.053115080265922, 0.5359510802659219, 0};
Point(p14 + 26) = {9.137178648551672, 0.4641540102419227, 0};
Point(p14 + 27) = {9.231438791056991, 0.4063913206244805, 0};
Point(p14 + 28) = {9.333574510241922, 0.3640853205353525, 0};
Point(p14 + 29) = {9.441070885731111, 0.3382777241022978, 0};
Point(p14 + 30) = {9.551280999999999, 0.329604, 0};
Point(p14 + 31) = {9.661491114268888, 0.3382777241022977, 0};
Point(p14 + 32) = {9.768987489758077, 0.3640853205353525, 0};
Point(p14 + 33) = {9.871123208943006, 0.4063913206244804, 0};
Point(p14 + 34) = {9.965383351448326, 0.4641540102419226, 0};
Point(p14 + 35) = {10.04944691973408, 0.5359510802659218, 0};
Point(p14 + 36) = {10.12124398975808, 0.6200146485516727, 0};
Point(p14 + 37) = {10.17900667937552, 0.7142747910569925, 0};
Point(p14 + 38) = {10.22131267946465, 0.8164105102419225, 0};
Point(p14 + 39) = {10.2471202758977, 0.9239068857311117, 0};
Spline(14) = {10, p14 + 1, p14 + 2, p14 + 3, p14 + 4, p14 + 5, p14 + 6, p14 + 7, p14 + 8, p14 + 9, p14 + 10, p14 + 11, p14 + 12, p14 + 13, p14 + 14, p14 + 15, p14 + 16, p14 + 17, p14 + 18, p14 + 19, p14 + 20, p14 + 21, p14 + 22, p14 + 23, p14 + 24, p14 + 25, p14 + 26, p14 + 27, p14 + 28, p14 + 29, p14 + 30, p14 + 31, p14 + 32, p14 + 33, p14 + 34, p14 + 35, p14 + 36, p14 + 37, p14 + 38, p14 + 39, 10};
Line(15) = {10, 8};
Curve Loop(1) = {-1, 4, 3, -2};
Plane Surface(1) = {1};
Curve Loop(2) = {-5, 1, 7, -6};
Plane Surface(2) = {2};
Curve Loop(3) = {-2, 7, 9, -8, -10};
Plane Surface(3) = {3};
Curve Loop(4) = {-11, 3, 8, -12};
Plane Surface(4) = {4};
Curve Loop(5) = {-4, 5, 13, -11, -14};
Plane Surface(5) = {5};
Curve Loop(6) = {-6, 13, 12, -9};
Plane Surface(6) = {6};
Curve Loop(7) = {-10, -15, 14, 15};
Surface(7) = {7};
Surface Loop(1) = {1, 2, 3, 4, 5, 6, 7};
Volume(1) = {1};
Physical Surface("INFLOW") = {1};
Physical Surface("OUTFLOW") = {6};
Physical Surface("OBSTACLE") = {7};
Physical Surface("WALL_Y") = {2, 4};
Physical Surface("WALL_Z") = {3, 5};
Physical Volume("FLUID") = {1};
