cl__1 = 0.935896;
cl__2 = 0.758728;
cl__3 = 3.259246;
cl__4 = 0.123152;
Point(1) = {0.740541, -3.619321, 1, cl__1};
Point(2) = {0.740541, -3.619321, 0, cl__1};
Point(3) = {0.740541, 4.423852, 1, cl__2};
Point(4) = {0.740541, 4.423852, 0, cl__2};
Point(5) = {32.343393, -3.619321, 0, cl__3};
Point(6) = {32.343393, -3.619321, 1, cl__3};
Point(7) = {32.343393, 4.423852, 1, cl__3};
Point(8) = {10.587278, 2.539924, 1, cl__4};
Point(9) = {32.343393, 4.423852, 0, cl__3};
Point(10) = {10.587278, 2.539924, 0, cl__4};
Line(1) = {2, 1};
Line(2) = {1, 3};
Line(3) = {4, 3};
Line(4) = {2, 4};
Line(5) = {2, 5};
Line(6) = {5, 6};
Line(7) = {1, 6};
Line(8) = {3, 7};
Line(9) = {6, 7};
p10 = newp;
Point(p10 + 1) = {10.5721159821447, 2.73257570308295, 1};
Point(p10 + 2) = {10.52700326777826, 2.920483681861652, 1};
Point(p10 + 3) = {10.45305068164889, 3.099021018267747, 1};
Point(p10 + 4) = {10.35207918186165, 3.26379153054747, 1};
Point(p10 + 5) = {10.22657502184651, 3.410738021846513, 1};
Point(p10 + 6) = {10.07962853054747, 3.536242181861652, 1};
Point(p10 + 7) = {9.914858018267747, 3.637213681648886, 1};
Point(p10 + 8) = {9.736320681861651, 3.711166267778259, 1};
Point(p10 + 9) = {9.548412703082949, 3.756278982144702, 1};
Point(p10 + 10) = {9.355760999999999, 3.771441, 1};
Point(p10 + 11) = {9.16310929691705, 3.756278982144702, 1};
Point(p10 + 12) = {8.975201318138348, 3.711166267778259, 1};
Point(p10 + 13) = {8.796663981732252, 3.637213681648886, 1};
Point(p10 + 14) = {8.63189346945253, 3.536242181861652, 1};
Point(p10 + 15) = {8.484946978153486, 3.410738021846513, 1};
Point(p10 + 16) = {8.359442818138348, 3.26379153054747, 1};
Point(p10 + 17) = {8.258471318351113, 3.099021018267748, 1};
Point(p10 + 18) = {8.18451873222174, 2.920483681861652, 1};
Point(p10 + 19) = {8.139406017855297, 2.73257570308295, 1};
Point(p10 + 20) = {8.124243999999999, 2.539924, 1};
Point(p10 + 21) = {8.139406017855297, 2.34727229691705, 1};
Point(p10 + 22) = {8.18451873222174, 2.159364318138348, 1};
Point(p10 + 23) = {8.258471318351113, 1.980826981732253, 1};
Point(p10 + 24) = {8.359442818138348, 1.816056469452531, 1};
Point(p10 + 25) = {8.484946978153486, 1.669109978153487, 1};
Point(p10 + 26) = {8.63189346945253, 1.543605818138348, 1};
Point(p10 + 27) = {8.796663981732252, 1.442634318351114, 1};
Point(p10 + 28) = {8.975201318138348, 1.368681732221741, 1};
Point(p10 + 29) = {9.16310929691705, 1.323569017855298, 1};
Point(p10 + 30) = {9.355760999999999, 1.308407, 1};
Point(p10 + 31) = {9.548412703082949, 1.323569017855298, 1};
Point(p10 + 32) = {9.736320681861651, 1.368681732221741, 1};
Point(p10 + 33) = {9.914858018267747, 1.442634318351114, 1};
Point(p10 + 34) = {10.07962853054747, 1.543605818138348, 1};
Point(p10 + 35) = {10.22657502184651, 1.669109978153486, 1};
Point(p10 + 36) = {10.35207918186165, 1.81605646945253, 1};
Point(p10 + 37) = {10.45305068164889, 1.980826981732252, 1};
Point(p10 + 38) = {10.52700326777826, 2.159364318138348, 1};
Point(p10 + 39) = {10.5721159821447, 2.34727229691705, 1};
Spline(10) = {8, p10 + 1, p10 + 2, p10 + 3, p10 + 4, p10 + 5, p10 + 6, p10 + 7, p10 + 8, p10 + 9, p10 + 10, p10 + 11, p10 + 12, p10 + 13, p10 + 14, p10 + 15, p10 + 16, p10 + 17, p10 + 18, p10 + 19, p10 + 20, p10 + 21, p10 + 22, p10 + 23, p10 + 24, p10 + 25, p10 + 26, p10 + 27, p10 + 28, p10 + 29, p10 + 30, p10 + 31, p10 + 32, p10 + 33, p10 + 34, p10 + 35, p10 + 36, p10 + 37, p10 + 38, p10 + 39, 8};
Line(11) = {4, 9};
Line(12) = {9, 7};
Line(13) = {5, 9};
p14 = newp;
Point(p14 + 1) = {10.5721159821447, 2.73257570308295, 0};
Point(p14 + 2) = {10.52700326777826, 2.920483681861652, 0};
Point(p14 + 3) = {10.45305068164889, 3.099021018267747, 0};
Point(p14 + 4) = {10.35207918186165, 3.26379153054747, 0};
Point(p14 + 5) = {10.22657502184651, 3.410738021846513, 0};
Point(p14 + 6) = {10.07962853054747, 3.536242181861652, 0};
Point(p14 + 7) = {9.914858018267747, 3.637213681648886, 0};
Point(p14 + 8) = {9.736320681861651, 3.711166267778259, 0};
Point(p14 + 9) = {9.548412703082949, 3.756278982144702, 0};
Point(p14 + 10) = {9.355760999999999, 3.771441, 0};
Point(p14 + 11) = {9.16310929691705, 3.756278982144702, 0};
Point(p14 + 12) = {8.975201318138348, 3.711166267778259, 0};
Point(p14 + 13) = {8.796663981732252, 3.637213681648886, 0};
Point(p14 + 14) = {8.63189346945253, 3.536242181861652, 0};
Point(p14 + 15) = {8.484946978153486, 3.410738021846513, 0};
Point(p14 + 16) = {8.359442818138348, 3.26379153054747, 0};
Point(p14 + 17) = {8.258471318351113, 3.099021018267748, 0};
Point(p14 + 18) = {8.18451873222174, 2.920483681861652, 0};
Point(p14 + 19) = {8.139406017855297, 2.73257570308295, 0};
Point(p14 + 20) = {8.124243999999999, 2.539924, 0};
Point(p14 + 21) = {8.139406017855297, 2.34727229691705, 0};
Point(p14 + 22) = {8.18451873222174, 2.159364318138348, 0};
Point(p14 + 23) = {8.258471318351113, 1.980826981732253, 0};
Point(p14 + 24) = {8.359442818138348, 1.816056469452531, 0};
Point(p14 + 25) = {8.484946978153486, 1.669109978153487, 0};
Point(p14 + 26) = {8.63189346945253, 1.543605818138348, 0};
Point(p14 + 27) = {8.796663981732252, 1.442634318351114, 0};
Point(p14 + 28) = {8.975201318138348, 1.368681732221741, 0};
Point(p14 + 29) = {9.16310929691705, 1.323569017855298, 0};
Point(p14 + 30) = {9.355760999999999, 1.308407, 0};
Point(p14 + 31) = {9.548412703082949, 1.323569017855298, 0};
Point(p14 + 32) = {9.736320681861651, 1.368681732221741, 0};
Point(p14 + 33) = {9.914858018267747, 1.442634318351114, 0};
Point(p14 + 34) = {10.07962853054747, 1.543605818138348, 0};
Point(p14 + 35) = {10.22657502184651, 1.669109978153486, 0};
Point(p14 + 36) = {10.35207918186165, 1.81605646945253, 0};
Point(p14 + 37) = {10.45305068164889, 1.980826981732252, 0};
Point(p14 + 38) = {10.52700326777826, 2.159364318138348, 0};
Point(p14 + 39) = {10.5721159821447, 2.34727229691705, 0};
Spline(14) = {10, p14 + 1, p14 + 2, p14 + 3, p14 + 4, p14 + 5, p14 + 6, p14 + 7, p14 + 8, p14 + 9, p14 + 10, p14 + 11, p14 + 12, p14 + 13, p14 + 14, p14 + 15, p14 + 16, p14 + 17, p14 + 18, p14 + 19, p14 + 20, p14 + 21, p14 + 22, p14 + 23, p14 + 24, p14 + 25, p14 + 26, p14 + 27, p14 + 28, p14 + 29, p14 + 30, p14 + 31, p14 + 32, p14 + 33, p14 + 34, p14 + 35, p14 + 36, p14 + 37, p14 + 38, p14 + 39, 10};
Line(15) = {10, 8};
Curve Loop(1) = {-1, 4, 3, -2};
Plane Surface(1) = {1};
Curve Loop(2) = {-5, 1, 7, -6};
Plane Surface(2) = {2};
Curve Loop(3) = {-2, 7, 9, -8, -10};
Plane Surface(3) = {3};
Curve Loop(4) = {-11, 3, 8, -12};
Plane Surface(4) = {4};
Curve Loop(5) = {-4, 5, 13, -11, -14};
Plane Surface(5) = {5};
Curve Loop(6) = {-6, 13, 12, -9};
Plane Surface(6) = {6};
Curve Loop(7) = {-10, -15, 14, 15};
Surface(7) = {7};
Surface Loop(1) = {1, 2, 3, 4, 5, 6, 7};
Volume(1) = {1};
Physical Surface("INFLOW") = {1};
Physical Surface("OUTFLOW") = {6};
Physical Surface("OBSTACLE") = {7};
Physical Surface("WALL_Y") = {2, 4};
Physical Surface("WALL_Z") = {3, 5};
Physical Volume("FLUID") = {1};
