cl__1 = 1;
cl__2 = 0.11283;
cl__3 = 0.085186;
Point(1) = {0.255534, -3.954075, 1, cl__1};
Point(2) = {0.255534, -3.954075, 0, cl__1};
Point(3) = {0.255534, 4.134576000000001, 1, cl__1};
Point(4) = {0.255534, 4.134576000000001, 0, cl__1};
Point(5) = {38.227078, -3.954075, 0, cl__1};
Point(6) = {38.227078, -3.954075, 1, cl__1};
Point(7) = {38.227078, 4.134576000000001, 1, cl__1};
Point(8) = {6.330704, -0.8035120000000003, 1, cl__2};
Point(9) = {27.552789, 0.05123799999999978, 1, cl__3};
Point(10) = {38.227078, 4.134576000000001, 0, cl__1};
Point(11) = {6.330704, -0.8035120000000003, 0, cl__2};
Point(12) = {27.552789, 0.05123799999999978, 0, cl__3};
Line(1) = {2, 1};
Line(2) = {1, 3};
Line(3) = {4, 3};
Line(4) = {2, 4};
Line(5) = {2, 5};
Line(6) = {5, 6};
Line(7) = {1, 6};
Line(8) = {3, 7};
Line(9) = {6, 7};
p10 = newp;
Point(p10 + 1) = {6.316812803940132, -0.6270076188329676, 1};
Point(p10 + 2) = {6.275481263109757, -0.4548493613147244, 1};
Point(p10 + 3) = {6.207727097215638, -0.2912763351058684, 1};
Point(p10 + 4) = {6.115218638685276, -0.1403162509794118, 1};
Point(p10 + 5) = {6.000233752785657, -0.005686247214343298, 1};
Point(p10 + 6) = {5.865603749020588, 0.1092986386852757, 1};
Point(p10 + 7) = {5.714643664894131, 0.2018070972156385, 1};
Point(p10 + 8) = {5.551070638685276, 0.2695612631097566, 1};
Point(p10 + 9) = {5.378912381167033, 0.3108928039401315, 1};
Point(p10 + 10) = {5.202408, 0.324784, 1};
Point(p10 + 11) = {5.025903618832968, 0.3108928039401313, 1};
Point(p10 + 12) = {4.853745361314725, 0.2695612631097566, 1};
Point(p10 + 13) = {4.690172335105869, 0.2018070972156387, 1};
Point(p10 + 14) = {4.539212250979412, 0.1092986386852757, 1};
Point(p10 + 15) = {4.404582247214344, -0.005686247214343187, 1};
Point(p10 + 16) = {4.289597361314724, -0.1403162509794116, 1};
Point(p10 + 17) = {4.197088902784362, -0.2912763351058683, 1};
Point(p10 + 18) = {4.129334736890243, -0.4548493613147243, 1};
Point(p10 + 19) = {4.088003196059869, -0.6270076188329675, 1};
Point(p10 + 20) = {4.074112, -0.8035119999999999, 1};
Point(p10 + 21) = {4.088003196059868, -0.9800163811670322, 1};
Point(p10 + 22) = {4.129334736890243, -1.152174638685276, 1};
Point(p10 + 23) = {4.197088902784361, -1.315747664894131, 1};
Point(p10 + 24) = {4.289597361314724, -1.466707749020588, 1};
Point(p10 + 25) = {4.404582247214343, -1.601337752785657, 1};
Point(p10 + 26) = {4.539212250979412, -1.716322638685276, 1};
Point(p10 + 27) = {4.690172335105868, -1.808831097215639, 1};
Point(p10 + 28) = {4.853745361314724, -1.876585263109757, 1};
Point(p10 + 29) = {5.025903618832968, -1.917916803940131, 1};
Point(p10 + 30) = {5.202408, -1.931808, 1};
Point(p10 + 31) = {5.378912381167032, -1.917916803940132, 1};
Point(p10 + 32) = {5.551070638685276, -1.876585263109757, 1};
Point(p10 + 33) = {5.714643664894131, -1.808831097215639, 1};
Point(p10 + 34) = {5.865603749020588, -1.716322638685276, 1};
Point(p10 + 35) = {6.000233752785657, -1.601337752785657, 1};
Point(p10 + 36) = {6.115218638685276, -1.466707749020589, 1};
Point(p10 + 37) = {6.207727097215638, -1.315747664894132, 1};
Point(p10 + 38) = {6.275481263109757, -1.152174638685276, 1};
Point(p10 + 39) = {6.316812803940131, -0.9800163811670326, 1};
Spline(10) = {8, p10 + 1, p10 + 2, p10 + 3, p10 + 4, p10 + 5, p10 + 6, p10 + 7, p10 + 8, p10 + 9, p10 + 10, p10 + 11, p10 + 12, p10 + 13, p10 + 14, p10 + 15, p10 + 16, p10 + 17, p10 + 18, p10 + 19, p10 + 20, p10 + 21, p10 + 22, p10 + 23, p10 + 24, p10 + 25, p10 + 26, p10 + 27, p10 + 28, p10 + 29, p10 + 30, p10 + 31, p10 + 32, p10 + 33, p10 + 34, p10 + 35, p10 + 36, p10 + 37, p10 + 38, p10 + 39, 8};
p11 = newp;
Point(p11 + 1) = {27.54230123906601, 0.1844976376513109, 1};
Point(p11 + 2) = {27.51109619974512, 0.3144759807602652, 1};
Point(p11 + 3) = {27.45994225366901, 0.4379725311461313, 1};
Point(p11 + 4) = {27.39009898076026, 0.551946393876857, 1};
Point(p11 + 5) = {27.30328615419445, 0.6535911541944476, 1};
Point(p11 + 6) = {27.20164139387686, 0.7404039807602651, 1};
Point(p11 + 7) = {27.08766753114613, 0.8102472536690062, 1};
Point(p11 + 8) = {26.96417098076027, 0.8614011997451243, 1};
Point(p11 + 9) = {26.83419263765131, 0.8926062390660117, 1};
Point(p11 + 10) = {26.700933, 0.903094, 1};
Point(p11 + 11) = {26.56767336234869, 0.8926062390660116, 1};
Point(p11 + 12) = {26.43769501923973, 0.8614011997451243, 1};
Point(p11 + 13) = {26.31419846885387, 0.8102472536690063, 1};
Point(p11 + 14) = {26.20022460612314, 0.7404039807602651, 1};
Point(p11 + 15) = {26.09857984580555, 0.6535911541944477, 1};
Point(p11 + 16) = {26.01176701923973, 0.5519463938768571, 1};
Point(p11 + 17) = {25.94192374633099, 0.4379725311461314, 1};
Point(p11 + 18) = {25.89076980025488, 0.3144759807602653, 1};
Point(p11 + 19) = {25.85956476093399, 0.184497637651311, 1};
Point(p11 + 20) = {25.849077, 0.0512380000000001, 1};
Point(p11 + 21) = {25.85956476093399, -0.08202163765131076, 1};
Point(p11 + 22) = {25.89076980025488, -0.2119999807602654, 1};
Point(p11 + 23) = {25.94192374633099, -0.3354965311461309, 1};
Point(p11 + 24) = {26.01176701923973, -0.4494703938768568, 1};
Point(p11 + 25) = {26.09857984580555, -0.5511151541944476, 1};
Point(p11 + 26) = {26.20022460612314, -0.6379279807602651, 1};
Point(p11 + 27) = {26.31419846885387, -0.7077712536690062, 1};
Point(p11 + 28) = {26.43769501923973, -0.7589251997451243, 1};
Point(p11 + 29) = {26.56767336234869, -0.7901302390660115, 1};
Point(p11 + 30) = {26.700933, -0.8006179999999999, 1};
Point(p11 + 31) = {26.83419263765131, -0.7901302390660117, 1};
Point(p11 + 32) = {26.96417098076027, -0.7589251997451243, 1};
Point(p11 + 33) = {27.08766753114613, -0.7077712536690063, 1};
Point(p11 + 34) = {27.20164139387686, -0.6379279807602652, 1};
Point(p11 + 35) = {27.30328615419445, -0.5511151541944477, 1};
Point(p11 + 36) = {27.39009898076026, -0.4494703938768572, 1};
Point(p11 + 37) = {27.45994225366901, -0.3354965311461315, 1};
Point(p11 + 38) = {27.51109619974512, -0.2119999807602654, 1};
Point(p11 + 39) = {27.54230123906601, -0.08202163765131107, 1};
Spline(11) = {9, p11 + 1, p11 + 2, p11 + 3, p11 + 4, p11 + 5, p11 + 6, p11 + 7, p11 + 8, p11 + 9, p11 + 10, p11 + 11, p11 + 12, p11 + 13, p11 + 14, p11 + 15, p11 + 16, p11 + 17, p11 + 18, p11 + 19, p11 + 20, p11 + 21, p11 + 22, p11 + 23, p11 + 24, p11 + 25, p11 + 26, p11 + 27, p11 + 28, p11 + 29, p11 + 30, p11 + 31, p11 + 32, p11 + 33, p11 + 34, p11 + 35, p11 + 36, p11 + 37, p11 + 38, p11 + 39, 9};
Line(12) = {4, 10};
Line(13) = {10, 7};
Line(14) = {5, 10};
p15 = newp;
Point(p15 + 1) = {6.316812803940132, -0.6270076188329676, 0};
Point(p15 + 2) = {6.275481263109757, -0.4548493613147244, 0};
Point(p15 + 3) = {6.207727097215638, -0.2912763351058684, 0};
Point(p15 + 4) = {6.115218638685276, -0.1403162509794118, 0};
Point(p15 + 5) = {6.000233752785657, -0.005686247214343298, 0};
Point(p15 + 6) = {5.865603749020588, 0.1092986386852757, 0};
Point(p15 + 7) = {5.714643664894131, 0.2018070972156385, 0};
Point(p15 + 8) = {5.551070638685276, 0.2695612631097566, 0};
Point(p15 + 9) = {5.378912381167033, 0.3108928039401315, 0};
Point(p15 + 10) = {5.202408, 0.324784, 0};
Point(p15 + 11) = {5.025903618832968, 0.3108928039401313, 0};
Point(p15 + 12) = {4.853745361314725, 0.2695612631097566, 0};
Point(p15 + 13) = {4.690172335105869, 0.2018070972156387, 0};
Point(p15 + 14) = {4.539212250979412, 0.1092986386852757, 0};
Point(p15 + 15) = {4.404582247214344, -0.005686247214343187, 0};
Point(p15 + 16) = {4.289597361314724, -0.1403162509794116, 0};
Point(p15 + 17) = {4.197088902784362, -0.2912763351058683, 0};
Point(p15 + 18) = {4.129334736890243, -0.4548493613147243, 0};
Point(p15 + 19) = {4.088003196059869, -0.6270076188329675, 0};
Point(p15 + 20) = {4.074112, -0.8035119999999999, 0};
Point(p15 + 21) = {4.088003196059868, -0.9800163811670322, 0};
Point(p15 + 22) = {4.129334736890243, -1.152174638685276, 0};
Point(p15 + 23) = {4.197088902784361, -1.315747664894131, 0};
Point(p15 + 24) = {4.289597361314724, -1.466707749020588, 0};
Point(p15 + 25) = {4.404582247214343, -1.601337752785657, 0};
Point(p15 + 26) = {4.539212250979412, -1.716322638685276, 0};
Point(p15 + 27) = {4.690172335105868, -1.808831097215639, 0};
Point(p15 + 28) = {4.853745361314724, -1.876585263109757, 0};
Point(p15 + 29) = {5.025903618832968, -1.917916803940131, 0};
Point(p15 + 30) = {5.202408, -1.931808, 0};
Point(p15 + 31) = {5.378912381167032, -1.917916803940132, 0};
Point(p15 + 32) = {5.551070638685276, -1.876585263109757, 0};
Point(p15 + 33) = {5.714643664894131, -1.808831097215639, 0};
Point(p15 + 34) = {5.865603749020588, -1.716322638685276, 0};
Point(p15 + 35) = {6.000233752785657, -1.601337752785657, 0};
Point(p15 + 36) = {6.115218638685276, -1.466707749020589, 0};
Point(p15 + 37) = {6.207727097215638, -1.315747664894132, 0};
Point(p15 + 38) = {6.275481263109757, -1.152174638685276, 0};
Point(p15 + 39) = {6.316812803940131, -0.9800163811670326, 0};
Spline(15) = {11, p15 + 1, p15 + 2, p15 + 3, p15 + 4, p15 + 5, p15 + 6, p15 + 7, p15 + 8, p15 + 9, p15 + 10, p15 + 11, p15 + 12, p15 + 13, p15 + 14, p15 + 15, p15 + 16, p15 + 17, p15 + 18, p15 + 19, p15 + 20, p15 + 21, p15 + 22, p15 + 23, p15 + 24, p15 + 25, p15 + 26, p15 + 27, p15 + 28, p15 + 29, p15 + 30, p15 + 31, p15 + 32, p15 + 33, p15 + 34, p15 + 35, p15 + 36, p15 + 37, p15 + 38, p15 + 39, 11};
p16 = newp;
Point(p16 + 1) = {27.54230123906601, 0.1844976376513109, 0};
Point(p16 + 2) = {27.51109619974512, 0.3144759807602652, 0};
Point(p16 + 3) = {27.45994225366901, 0.4379725311461313, 0};
Point(p16 + 4) = {27.39009898076026, 0.551946393876857, 0};
Point(p16 + 5) = {27.30328615419445, 0.6535911541944476, 0};
Point(p16 + 6) = {27.20164139387686, 0.7404039807602651, 0};
Point(p16 + 7) = {27.08766753114613, 0.8102472536690062, 0};
Point(p16 + 8) = {26.96417098076027, 0.8614011997451243, 0};
Point(p16 + 9) = {26.83419263765131, 0.8926062390660117, 0};
Point(p16 + 10) = {26.700933, 0.903094, 0};
Point(p16 + 11) = {26.56767336234869, 0.8926062390660116, 0};
Point(p16 + 12) = {26.43769501923973, 0.8614011997451243, 0};
Point(p16 + 13) = {26.31419846885387, 0.8102472536690063, 0};
Point(p16 + 14) = {26.20022460612314, 0.7404039807602651, 0};
Point(p16 + 15) = {26.09857984580555, 0.6535911541944477, 0};
Point(p16 + 16) = {26.01176701923973, 0.5519463938768571, 0};
Point(p16 + 17) = {25.94192374633099, 0.4379725311461314, 0};
Point(p16 + 18) = {25.89076980025488, 0.3144759807602653, 0};
Point(p16 + 19) = {25.85956476093399, 0.184497637651311, 0};
Point(p16 + 20) = {25.849077, 0.0512380000000001, 0};
Point(p16 + 21) = {25.85956476093399, -0.08202163765131076, 0};
Point(p16 + 22) = {25.89076980025488, -0.2119999807602654, 0};
Point(p16 + 23) = {25.94192374633099, -0.3354965311461309, 0};
Point(p16 + 24) = {26.01176701923973, -0.4494703938768568, 0};
Point(p16 + 25) = {26.09857984580555, -0.5511151541944476, 0};
Point(p16 + 26) = {26.20022460612314, -0.6379279807602651, 0};
Point(p16 + 27) = {26.31419846885387, -0.7077712536690062, 0};
Point(p16 + 28) = {26.43769501923973, -0.7589251997451243, 0};
Point(p16 + 29) = {26.56767336234869, -0.7901302390660115, 0};
Point(p16 + 30) = {26.700933, -0.8006179999999999, 0};
Point(p16 + 31) = {26.83419263765131, -0.7901302390660117, 0};
Point(p16 + 32) = {26.96417098076027, -0.7589251997451243, 0};
Point(p16 + 33) = {27.08766753114613, -0.7077712536690063, 0};
Point(p16 + 34) = {27.20164139387686, -0.6379279807602652, 0};
Point(p16 + 35) = {27.30328615419445, -0.5511151541944477, 0};
Point(p16 + 36) = {27.39009898076026, -0.4494703938768572, 0};
Point(p16 + 37) = {27.45994225366901, -0.3354965311461315, 0};
Point(p16 + 38) = {27.51109619974512, -0.2119999807602654, 0};
Point(p16 + 39) = {27.54230123906601, -0.08202163765131107, 0};
Spline(16) = {12, p16 + 1, p16 + 2, p16 + 3, p16 + 4, p16 + 5, p16 + 6, p16 + 7, p16 + 8, p16 + 9, p16 + 10, p16 + 11, p16 + 12, p16 + 13, p16 + 14, p16 + 15, p16 + 16, p16 + 17, p16 + 18, p16 + 19, p16 + 20, p16 + 21, p16 + 22, p16 + 23, p16 + 24, p16 + 25, p16 + 26, p16 + 27, p16 + 28, p16 + 29, p16 + 30, p16 + 31, p16 + 32, p16 + 33, p16 + 34, p16 + 35, p16 + 36, p16 + 37, p16 + 38, p16 + 39, 12};
Line(17) = {11, 8};
Line(18) = {12, 9};
Curve Loop(1) = {-1, 4, 3, -2};
Plane Surface(1) = {1};
Curve Loop(2) = {-5, 1, 7, -6};
Plane Surface(2) = {2};
Curve Loop(3) = {-2, 7, 9, -8, -10, -11};
Plane Surface(3) = {3};
Curve Loop(4) = {-12, 3, 8, -13};
Plane Surface(4) = {4};
Curve Loop(5) = {-4, 5, 14, -12, -15, -16};
Plane Surface(5) = {5};
Curve Loop(6) = {-6, 14, 13, -9};
Plane Surface(6) = {6};
Curve Loop(7) = {-10, -17, 15, 17};
Surface(7) = {7};
Curve Loop(8) = {-11, -18, 16, 18};
Surface(8) = {8};
Surface Loop(1) = {1, 2, 3, 4, 5, 6, 7, 8};
Volume(1) = {1};
Physical Surface("INFLOW") = {1};
Physical Surface("OUTFLOW") = {6};
Physical Surface("OBSTACLE") = {7, 8};
Physical Surface("WALL_Y") = {2, 4};
Physical Surface("WALL_Z") = {3, 5};
Physical Volume("FLUID") = {1};
