cl__1 = 0.982531;
cl__2 = 0.967518;
cl__3 = 3.842524;
cl__4 = 0.14989;
Point(1) = {0.934248, -3.595811, 1, cl__1};
Point(2) = {0.934248, -3.595811, 0, cl__1};
Point(3) = {0.934248, 4.611286, 1, cl__2};
Point(4) = {0.934248, 4.611286, 0, cl__2};
Point(5) = {38.20549399999999, -3.595811, 0, cl__3};
Point(6) = {38.20549399999999, -3.595811, 1, cl__3};
Point(7) = {38.20549399999999, 4.611286, 1, cl__3};
Point(8) = {12.905376, 0.7135059999999996, 1, cl__4};
Point(9) = {38.20549399999999, 4.611286, 0, cl__3};
Point(10) = {12.905376, 0.7135059999999996, 0, cl__4};
Line(1) = {2, 1};
Line(2) = {1, 3};
Line(3) = {4, 3};
Line(4) = {2, 4};
Line(5) = {2, 5};
Line(6) = {5, 6};
Line(7) = {1, 6};
Line(8) = {3, 7};
Line(9) = {6, 7};
p10 = newp;
Point(p10 + 1) = {12.88692202909473, 0.9479859325177321, 1};
Point(p10 + 2) = {12.83201451438784, 1.176692190902597, 1};
Point(p10 + 3) = {12.74200546111899, 1.393993268040606, 1};
Point(p10 + 4) = {12.6191111909026, 1.594538490231693, 1};
Point(p10 + 5) = {12.46635776853408, 1.773389768534078, 1};
Point(p10 + 6) = {12.28750649023169, 1.926143190902597, 1};
Point(p10 + 7) = {12.08696126804061, 2.049037461118993, 1};
Point(p10 + 8) = {11.8696601909026, 2.139046514387838, 1};
Point(p10 + 9) = {11.64095393251773, 2.193954029094733, 1};
Point(p10 + 10) = {11.406474, 2.212408, 1};
Point(p10 + 11) = {11.17199406748227, 2.193954029094733, 1};
Point(p10 + 12) = {10.9432878090974, 2.139046514387839, 1};
Point(p10 + 13) = {10.72598673195939, 2.049037461118993, 1};
Point(p10 + 14) = {10.52544150976831, 1.926143190902597, 1};
Point(p10 + 15) = {10.34659023146592, 1.773389768534078, 1};
Point(p10 + 16) = {10.1938368090974, 1.594538490231693, 1};
Point(p10 + 17) = {10.07094253888101, 1.393993268040606, 1};
Point(p10 + 18) = {9.980933485612161, 1.176692190902598, 1};
Point(p10 + 19) = {9.926025970905267, 0.9479859325177322, 1};
Point(p10 + 20) = {9.907572, 0.7135060000000002, 1};
Point(p10 + 21) = {9.926025970905267, 0.4790260674822681, 1};
Point(p10 + 22) = {9.980933485612161, 0.2503198090974021, 1};
Point(p10 + 23) = {10.07094253888101, 0.03301873195939464, 1};
Point(p10 + 24) = {10.1938368090974, -0.1675264902316924, 1};
Point(p10 + 25) = {10.34659023146592, -0.3463777685340783, 1};
Point(p10 + 26) = {10.52544150976831, -0.4991311909025973, 1};
Point(p10 + 27) = {10.72598673195939, -0.6220254611189928, 1};
Point(p10 + 28) = {10.9432878090974, -0.7120345143878382, 1};
Point(p10 + 29) = {11.17199406748227, -0.7669420290947331, 1};
Point(p10 + 30) = {11.406474, -0.785396, 1};
Point(p10 + 31) = {11.64095393251773, -0.7669420290947331, 1};
Point(p10 + 32) = {11.8696601909026, -0.7120345143878384, 1};
Point(p10 + 33) = {12.08696126804061, -0.622025461118993, 1};
Point(p10 + 34) = {12.28750649023169, -0.4991311909025977, 1};
Point(p10 + 35) = {12.46635776853408, -0.3463777685340788, 1};
Point(p10 + 36) = {12.6191111909026, -0.1675264902316929, 1};
Point(p10 + 37) = {12.74200546111899, 0.03301873195939353, 1};
Point(p10 + 38) = {12.83201451438784, 0.2503198090974023, 1};
Point(p10 + 39) = {12.88692202909473, 0.4790260674822675, 1};
Spline(10) = {8, p10 + 1, p10 + 2, p10 + 3, p10 + 4, p10 + 5, p10 + 6, p10 + 7, p10 + 8, p10 + 9, p10 + 10, p10 + 11, p10 + 12, p10 + 13, p10 + 14, p10 + 15, p10 + 16, p10 + 17, p10 + 18, p10 + 19, p10 + 20, p10 + 21, p10 + 22, p10 + 23, p10 + 24, p10 + 25, p10 + 26, p10 + 27, p10 + 28, p10 + 29, p10 + 30, p10 + 31, p10 + 32, p10 + 33, p10 + 34, p10 + 35, p10 + 36, p10 + 37, p10 + 38, p10 + 39, 8};
Line(11) = {4, 9};
Line(12) = {9, 7};
Line(13) = {5, 9};
p14 = newp;
Point(p14 + 1) = {12.88692202909473, 0.9479859325177321, 0};
Point(p14 + 2) = {12.83201451438784, 1.176692190902597, 0};
Point(p14 + 3) = {12.74200546111899, 1.393993268040606, 0};
Point(p14 + 4) = {12.6191111909026, 1.594538490231693, 0};
Point(p14 + 5) = {12.46635776853408, 1.773389768534078, 0};
Point(p14 + 6) = {12.28750649023169, 1.926143190902597, 0};
Point(p14 + 7) = {12.08696126804061, 2.049037461118993, 0};
Point(p14 + 8) = {11.8696601909026, 2.139046514387838, 0};
Point(p14 + 9) = {11.64095393251773, 2.193954029094733, 0};
Point(p14 + 10) = {11.406474, 2.212408, 0};
Point(p14 + 11) = {11.17199406748227, 2.193954029094733, 0};
Point(p14 + 12) = {10.9432878090974, 2.139046514387839, 0};
Point(p14 + 13) = {10.72598673195939, 2.049037461118993, 0};
Point(p14 + 14) = {10.52544150976831, 1.926143190902597, 0};
Point(p14 + 15) = {10.34659023146592, 1.773389768534078, 0};
Point(p14 + 16) = {10.1938368090974, 1.594538490231693, 0};
Point(p14 + 17) = {10.07094253888101, 1.393993268040606, 0};
Point(p14 + 18) = {9.980933485612161, 1.176692190902598, 0};
Point(p14 + 19) = {9.926025970905267, 0.9479859325177322, 0};
Point(p14 + 20) = {9.907572, 0.7135060000000002, 0};
Point(p14 + 21) = {9.926025970905267, 0.4790260674822681, 0};
Point(p14 + 22) = {9.980933485612161, 0.2503198090974021, 0};
Point(p14 + 23) = {10.07094253888101, 0.03301873195939464, 0};
Point(p14 + 24) = {10.1938368090974, -0.1675264902316924, 0};
Point(p14 + 25) = {10.34659023146592, -0.3463777685340783, 0};
Point(p14 + 26) = {10.52544150976831, -0.4991311909025973, 0};
Point(p14 + 27) = {10.72598673195939, -0.6220254611189928, 0};
Point(p14 + 28) = {10.9432878090974, -0.7120345143878382, 0};
Point(p14 + 29) = {11.17199406748227, -0.7669420290947331, 0};
Point(p14 + 30) = {11.406474, -0.785396, 0};
Point(p14 + 31) = {11.64095393251773, -0.7669420290947331, 0};
Point(p14 + 32) = {11.8696601909026, -0.7120345143878384, 0};
Point(p14 + 33) = {12.08696126804061, -0.622025461118993, 0};
Point(p14 + 34) = {12.28750649023169, -0.4991311909025977, 0};
Point(p14 + 35) = {12.46635776853408, -0.3463777685340788, 0};
Point(p14 + 36) = {12.6191111909026, -0.1675264902316929, 0};
Point(p14 + 37) = {12.74200546111899, 0.03301873195939353, 0};
Point(p14 + 38) = {12.83201451438784, 0.2503198090974023, 0};
Point(p14 + 39) = {12.88692202909473, 0.4790260674822675, 0};
Spline(14) = {10, p14 + 1, p14 + 2, p14 + 3, p14 + 4, p14 + 5, p14 + 6, p14 + 7, p14 + 8, p14 + 9, p14 + 10, p14 + 11, p14 + 12, p14 + 13, p14 + 14, p14 + 15, p14 + 16, p14 + 17, p14 + 18, p14 + 19, p14 + 20, p14 + 21, p14 + 22, p14 + 23, p14 + 24, p14 + 25, p14 + 26, p14 + 27, p14 + 28, p14 + 29, p14 + 30, p14 + 31, p14 + 32, p14 + 33, p14 + 34, p14 + 35, p14 + 36, p14 + 37, p14 + 38, p14 + 39, 10};
Line(15) = {10, 8};
Curve Loop(1) = {-1, 4, 3, -2};
Plane Surface(1) = {1};
Curve Loop(2) = {-5, 1, 7, -6};
Plane Surface(2) = {2};
Curve Loop(3) = {-2, 7, 9, -8, -10};
Plane Surface(3) = {3};
Curve Loop(4) = {-11, 3, 8, -12};
Plane Surface(4) = {4};
Curve Loop(5) = {-4, 5, 13, -11, -14};
Plane Surface(5) = {5};
Curve Loop(6) = {-6, 13, 12, -9};
Plane Surface(6) = {6};
Curve Loop(7) = {-10, -15, 14, 15};
Surface(7) = {7};
Surface Loop(1) = {1, 2, 3, 4, 5, 6, 7};
Volume(1) = {1};
Physical Surface("INFLOW") = {1};
Physical Surface("OUTFLOW") = {6};
Physical Surface("OBSTACLE") = {7};
Physical Surface("WALL_Y") = {2, 4};
Physical Surface("WALL_Z") = {3, 5};
Physical Volume("FLUID") = {1};
