cl__1 = 1.399888;
cl__2 = 1.414189;
cl__3 = 3.951352;
cl__4 = 0.143661;
Point(1) = {0.8822449999999999, -4.820676, 1, cl__1};
Point(2) = {0.8822449999999999, -4.820676, 0, cl__1};
Point(3) = {0.8822449999999999, 5.172254, 1, cl__2};
Point(4) = {0.8822449999999999, 5.172254, 0, cl__2};
Point(5) = {39.196348, -4.820676, 0, cl__3};
Point(6) = {39.196348, -4.820676, 1, cl__3};
Point(7) = {39.196348, 5.172254, 1, cl__3};
Point(8) = {16.997347, -0.04612800000000036, 1, cl__4};
Point(9) = {39.196348, 5.172254, 0, cl__3};
Point(10) = {16.997347, -0.04612800000000036, 0, cl__4};
Line(1) = {2, 1};
Line(2) = {1, 3};
Line(3) = {4, 3};
Line(4) = {2, 4};
Line(5) = {2, 5};
Line(6) = {5, 6};
Line(7) = {1, 6};
Line(8) = {3, 7};
Line(9) = {6, 7};
p10 = newp;
Point(p10 + 1) = {16.97965995929404, 0.178607160386981, 1};
Point(p10 + 2) = {16.92703435081826, 0.3978085952719988, 1};
Point(p10 + 3) = {16.84076599170773, 0.6060788378403306, 1};
Point(p10 + 4) = {16.722979095272, 0.7982895835106376, 1};
Point(p10 + 5) = {16.57657396581363, 0.9697079658136247, 1};
Point(p10 + 6) = {16.40515558351064, 1.116113095271999, 1};
Point(p10 + 7) = {16.21294483784033, 1.233899991707727, 1};
Point(p10 + 8) = {16.004674595272, 1.320168350818264, 1};
Point(p10 + 9) = {15.78547316038698, 1.37279395929404, 1};
Point(p10 + 10) = {15.560738, 1.390481, 1};
Point(p10 + 11) = {15.33600283961302, 1.37279395929404, 1};
Point(p10 + 12) = {15.116801404728, 1.320168350818264, 1};
Point(p10 + 13) = {14.90853116215967, 1.233899991707727, 1};
Point(p10 + 14) = {14.71632041648936, 1.116113095271999, 1};
Point(p10 + 15) = {14.54490203418638, 0.969707965813625, 1};
Point(p10 + 16) = {14.398496904728, 0.7982895835106376, 1};
Point(p10 + 17) = {14.28071000829227, 0.6060788378403308, 1};
Point(p10 + 18) = {14.19444164918174, 0.397808595271999, 1};
Point(p10 + 19) = {14.14181604070596, 0.1786071603869812, 1};
Point(p10 + 20) = {14.124129, -0.04612799999999983, 1};
Point(p10 + 21) = {14.14181604070596, -0.2708631603869808, 1};
Point(p10 + 22) = {14.19444164918174, -0.4900645952719993, 1};
Point(p10 + 23) = {14.28071000829227, -0.6983348378403298, 1};
Point(p10 + 24) = {14.398496904728, -0.8905455835106375, 1};
Point(p10 + 25) = {14.54490203418638, -1.061963965813625, 1};
Point(p10 + 26) = {14.71632041648936, -1.208369095271999, 1};
Point(p10 + 27) = {14.90853116215967, -1.326155991707727, 1};
Point(p10 + 28) = {15.116801404728, -1.412424350818264, 1};
Point(p10 + 29) = {15.33600283961302, -1.46504995929404, 1};
Point(p10 + 30) = {15.560738, -1.482737, 1};
Point(p10 + 31) = {15.78547316038698, -1.46504995929404, 1};
Point(p10 + 32) = {16.004674595272, -1.412424350818264, 1};
Point(p10 + 33) = {16.21294483784033, -1.326155991707727, 1};
Point(p10 + 34) = {16.40515558351064, -1.208369095271999, 1};
Point(p10 + 35) = {16.57657396581363, -1.061963965813625, 1};
Point(p10 + 36) = {16.722979095272, -0.890545583510638, 1};
Point(p10 + 37) = {16.84076599170773, -0.6983348378403309, 1};
Point(p10 + 38) = {16.92703435081826, -0.4900645952719991, 1};
Point(p10 + 39) = {16.97965995929404, -0.2708631603869813, 1};
Spline(10) = {8, p10 + 1, p10 + 2, p10 + 3, p10 + 4, p10 + 5, p10 + 6, p10 + 7, p10 + 8, p10 + 9, p10 + 10, p10 + 11, p10 + 12, p10 + 13, p10 + 14, p10 + 15, p10 + 16, p10 + 17, p10 + 18, p10 + 19, p10 + 20, p10 + 21, p10 + 22, p10 + 23, p10 + 24, p10 + 25, p10 + 26, p10 + 27, p10 + 28, p10 + 29, p10 + 30, p10 + 31, p10 + 32, p10 + 33, p10 + 34, p10 + 35, p10 + 36, p10 + 37, p10 + 38, p10 + 39, 8};
Line(11) = {4, 9};
Line(12) = {9, 7};
Line(13) = {5, 9};
p14 = newp;
Point(p14 + 1) = {16.97965995929404, 0.178607160386981, 0};
Point(p14 + 2) = {16.92703435081826, 0.3978085952719988, 0};
Point(p14 + 3) = {16.84076599170773, 0.6060788378403306, 0};
Point(p14 + 4) = {16.722979095272, 0.7982895835106376, 0};
Point(p14 + 5) = {16.57657396581363, 0.9697079658136247, 0};
Point(p14 + 6) = {16.40515558351064, 1.116113095271999, 0};
Point(p14 + 7) = {16.21294483784033, 1.233899991707727, 0};
Point(p14 + 8) = {16.004674595272, 1.320168350818264, 0};
Point(p14 + 9) = {15.78547316038698, 1.37279395929404, 0};
Point(p14 + 10) = {15.560738, 1.390481, 0};
Point(p14 + 11) = {15.33600283961302, 1.37279395929404, 0};
Point(p14 + 12) = {15.116801404728, 1.320168350818264, 0};
Point(p14 + 13) = {14.90853116215967, 1.233899991707727, 0};
Point(p14 + 14) = {14.71632041648936, 1.116113095271999, 0};
Point(p14 + 15) = {14.54490203418638, 0.969707965813625, 0};
Point(p14 + 16) = {14.398496904728, 0.7982895835106376, 0};
Point(p14 + 17) = {14.28071000829227, 0.6060788378403308, 0};
Point(p14 + 18) = {14.19444164918174, 0.397808595271999, 0};
Point(p14 + 19) = {14.14181604070596, 0.1786071603869812, 0};
Point(p14 + 20) = {14.124129, -0.04612799999999983, 0};
Point(p14 + 21) = {14.14181604070596, -0.2708631603869808, 0};
Point(p14 + 22) = {14.19444164918174, -0.4900645952719993, 0};
Point(p14 + 23) = {14.28071000829227, -0.6983348378403298, 0};
Point(p14 + 24) = {14.398496904728, -0.8905455835106375, 0};
Point(p14 + 25) = {14.54490203418638, -1.061963965813625, 0};
Point(p14 + 26) = {14.71632041648936, -1.208369095271999, 0};
Point(p14 + 27) = {14.90853116215967, -1.326155991707727, 0};
Point(p14 + 28) = {15.116801404728, -1.412424350818264, 0};
Point(p14 + 29) = {15.33600283961302, -1.46504995929404, 0};
Point(p14 + 30) = {15.560738, -1.482737, 0};
Point(p14 + 31) = {15.78547316038698, -1.46504995929404, 0};
Point(p14 + 32) = {16.004674595272, -1.412424350818264, 0};
Point(p14 + 33) = {16.21294483784033, -1.326155991707727, 0};
Point(p14 + 34) = {16.40515558351064, -1.208369095271999, 0};
Point(p14 + 35) = {16.57657396581363, -1.061963965813625, 0};
Point(p14 + 36) = {16.722979095272, -0.890545583510638, 0};
Point(p14 + 37) = {16.84076599170773, -0.6983348378403309, 0};
Point(p14 + 38) = {16.92703435081826, -0.4900645952719991, 0};
Point(p14 + 39) = {16.97965995929404, -0.2708631603869813, 0};
Spline(14) = {10, p14 + 1, p14 + 2, p14 + 3, p14 + 4, p14 + 5, p14 + 6, p14 + 7, p14 + 8, p14 + 9, p14 + 10, p14 + 11, p14 + 12, p14 + 13, p14 + 14, p14 + 15, p14 + 16, p14 + 17, p14 + 18, p14 + 19, p14 + 20, p14 + 21, p14 + 22, p14 + 23, p14 + 24, p14 + 25, p14 + 26, p14 + 27, p14 + 28, p14 + 29, p14 + 30, p14 + 31, p14 + 32, p14 + 33, p14 + 34, p14 + 35, p14 + 36, p14 + 37, p14 + 38, p14 + 39, 10};
Line(15) = {10, 8};
Curve Loop(1) = {-1, 4, 3, -2};
Plane Surface(1) = {1};
Curve Loop(2) = {-5, 1, 7, -6};
Plane Surface(2) = {2};
Curve Loop(3) = {-2, 7, 9, -8, -10};
Plane Surface(3) = {3};
Curve Loop(4) = {-11, 3, 8, -12};
Plane Surface(4) = {4};
Curve Loop(5) = {-4, 5, 13, -11, -14};
Plane Surface(5) = {5};
Curve Loop(6) = {-6, 13, 12, -9};
Plane Surface(6) = {6};
Curve Loop(7) = {-10, -15, 14, 15};
Surface(7) = {7};
Surface Loop(1) = {1, 2, 3, 4, 5, 6, 7};
Volume(1) = {1};
Physical Surface("INFLOW") = {1};
Physical Surface("OUTFLOW") = {6};
Physical Surface("OBSTACLE") = {7};
Physical Surface("WALL_Y") = {2, 4};
Physical Surface("WALL_Z") = {3, 5};
Physical Volume("FLUID") = {1};
