cl__1 = 1;
cl__2 = 0.059828;
cl__3 = 0.117849;
Point(1) = {0.47459, -3.619679, 1, cl__1};
Point(2) = {0.47459, -3.619679, 0, cl__1};
Point(3) = {0.47459, 3.909979, 1, cl__1};
Point(4) = {0.47459, 3.909979, 0, cl__1};
Point(5) = {38.702778, -3.619679, 0, cl__1};
Point(6) = {38.702778, -3.619679, 1, cl__1};
Point(7) = {38.702778, 3.909979, 1, cl__1};
Point(8) = {13.562446, -1.753749, 1, cl__2};
Point(9) = {37.06458000000001, -0.3853630000000003, 1, cl__3};
Point(10) = {38.702778, 3.909979, 0, cl__1};
Point(11) = {13.562446, -1.753749, 0, cl__2};
Point(12) = {37.06458000000001, -0.3853630000000003, 0, cl__3};
Line(1) = {2, 1};
Line(2) = {1, 3};
Line(3) = {4, 3};
Line(4) = {2, 4};
Line(5) = {2, 5};
Line(6) = {5, 6};
Line(7) = {1, 6};
Line(8) = {3, 7};
Line(9) = {6, 7};
p10 = newp;
Point(p10 + 1) = {13.55508021734624, -1.660157857559126, 1};
Point(p10 + 2) = {13.53316423939952, -1.56887123965634, 1};
Point(p10 + 3) = {13.49723771027184, -1.482136925787323, 1};
Point(p10 + 4) = {13.44818526034366, -1.402090602614216, 1};
Point(p10 + 5) = {13.38721472372794, -1.330703276272056, 1};
Point(p10 + 6) = {13.31582739738578, -1.26973273965634, 1};
Point(p10 + 7) = {13.23578107421268, -1.220680289728156, 1};
Point(p10 + 8) = {13.14904676034366, -1.184753760600485, 1};
Point(p10 + 9) = {13.05776014244088, -1.162837782653763, 1};
Point(p10 + 10) = {12.964169, -1.155472, 1};
Point(p10 + 11) = {12.87057785755912, -1.162837782653763, 1};
Point(p10 + 12) = {12.77929123965634, -1.184753760600485, 1};
Point(p10 + 13) = {12.69255692578732, -1.220680289728156, 1};
Point(p10 + 14) = {12.61251060261422, -1.26973273965634, 1};
Point(p10 + 15) = {12.54112327627206, -1.330703276272056, 1};
Point(p10 + 16) = {12.48015273965634, -1.402090602614216, 1};
Point(p10 + 17) = {12.43110028972816, -1.482136925787323, 1};
Point(p10 + 18) = {12.39517376060048, -1.56887123965634, 1};
Point(p10 + 19) = {12.37325778265376, -1.660157857559126, 1};
Point(p10 + 20) = {12.365892, -1.753749, 1};
Point(p10 + 21) = {12.37325778265376, -1.847340142440874, 1};
Point(p10 + 22) = {12.39517376060048, -1.938626760343661, 1};
Point(p10 + 23) = {12.43110028972816, -2.025361074212677, 1};
Point(p10 + 24) = {12.48015273965634, -2.105407397385784, 1};
Point(p10 + 25) = {12.54112327627206, -2.176794723727944, 1};
Point(p10 + 26) = {12.61251060261422, -2.23776526034366, 1};
Point(p10 + 27) = {12.69255692578732, -2.286817710271844, 1};
Point(p10 + 28) = {12.77929123965634, -2.322744239399515, 1};
Point(p10 + 29) = {12.87057785755912, -2.344660217346237, 1};
Point(p10 + 30) = {12.964169, -2.352026, 1};
Point(p10 + 31) = {13.05776014244087, -2.344660217346237, 1};
Point(p10 + 32) = {13.14904676034366, -2.322744239399515, 1};
Point(p10 + 33) = {13.23578107421268, -2.286817710271844, 1};
Point(p10 + 34) = {13.31582739738578, -2.23776526034366, 1};
Point(p10 + 35) = {13.38721472372794, -2.176794723727944, 1};
Point(p10 + 36) = {13.44818526034366, -2.105407397385784, 1};
Point(p10 + 37) = {13.49723771027184, -2.025361074212677, 1};
Point(p10 + 38) = {13.53316423939952, -1.93862676034366, 1};
Point(p10 + 39) = {13.55508021734624, -1.847340142440874, 1};
Spline(10) = {8, p10 + 1, p10 + 2, p10 + 3, p10 + 4, p10 + 5, p10 + 6, p10 + 7, p10 + 8, p10 + 9, p10 + 10, p10 + 11, p10 + 12, p10 + 13, p10 + 14, p10 + 15, p10 + 16, p10 + 17, p10 + 18, p10 + 19, p10 + 20, p10 + 21, p10 + 22, p10 + 23, p10 + 24, p10 + 25, p10 + 26, p10 + 27, p10 + 28, p10 + 29, p10 + 30, p10 + 31, p10 + 32, p10 + 33, p10 + 34, p10 + 35, p10 + 36, p10 + 37, p10 + 38, p10 + 39, 8};
p11 = newp;
Point(p11 + 1) = {37.05007079557299, -0.2010060779913432, 1};
Point(p11 + 2) = {37.00690044705823, -0.02118863524808512, 1};
Point(p11 + 3) = {36.93613195171032, 0.1496616260095577, 1};
Point(p11 + 4) = {36.83950786475192, 0.3073378053299135, 1};
Point(p11 + 5) = {36.71940739188088, 0.4479573918808779, 1};
Point(p11 + 6) = {36.57878780532992, 0.568057864751915, 1};
Point(p11 + 7) = {36.42111162600956, 0.6646819517103221, 1};
Point(p11 + 8) = {36.25026136475192, 0.7354504470582243, 1};
Point(p11 + 9) = {36.07044392200866, 0.7786207955729857, 1};
Point(p11 + 10) = {35.886087, 0.79313, 1};
Point(p11 + 11) = {35.70173007799135, 0.7786207955729855, 1};
Point(p11 + 12) = {35.52191263524809, 0.7354504470582245, 1};
Point(p11 + 13) = {35.35106237399044, 0.6646819517103223, 1};
Point(p11 + 14) = {35.19338619467009, 0.568057864751915, 1};
Point(p11 + 15) = {35.05276660811913, 0.447957391880878, 1};
Point(p11 + 16) = {34.93266613524809, 0.3073378053299137, 1};
Point(p11 + 17) = {34.83604204828968, 0.1496616260095578, 1};
Point(p11 + 18) = {34.76527355294178, -0.02118863524808501, 1};
Point(p11 + 19) = {34.72210320442701, -0.2010060779913431, 1};
Point(p11 + 20) = {34.707594, -0.3853629999999998, 1};
Point(p11 + 21) = {34.72210320442701, -0.5697199220086566, 1};
Point(p11 + 22) = {34.76527355294178, -0.7495373647519152, 1};
Point(p11 + 23) = {34.83604204828968, -0.9203876260095571, 1};
Point(p11 + 24) = {34.93266613524809, -1.078063805329913, 1};
Point(p11 + 25) = {35.05276660811913, -1.218683391880878, 1};
Point(p11 + 26) = {35.19338619467009, -1.338783864751915, 1};
Point(p11 + 27) = {35.35106237399044, -1.435407951710322, 1};
Point(p11 + 28) = {35.52191263524809, -1.506176447058224, 1};
Point(p11 + 29) = {35.70173007799135, -1.549346795572986, 1};
Point(p11 + 30) = {35.886087, -1.563856, 1};
Point(p11 + 31) = {36.07044392200866, -1.549346795572986, 1};
Point(p11 + 32) = {36.25026136475192, -1.506176447058225, 1};
Point(p11 + 33) = {36.42111162600956, -1.435407951710322, 1};
Point(p11 + 34) = {36.57878780532992, -1.338783864751915, 1};
Point(p11 + 35) = {36.71940739188088, -1.218683391880878, 1};
Point(p11 + 36) = {36.83950786475192, -1.078063805329914, 1};
Point(p11 + 37) = {36.93613195171032, -0.9203876260095579, 1};
Point(p11 + 38) = {37.00690044705823, -0.7495373647519152, 1};
Point(p11 + 39) = {37.05007079557299, -0.5697199220086571, 1};
Spline(11) = {9, p11 + 1, p11 + 2, p11 + 3, p11 + 4, p11 + 5, p11 + 6, p11 + 7, p11 + 8, p11 + 9, p11 + 10, p11 + 11, p11 + 12, p11 + 13, p11 + 14, p11 + 15, p11 + 16, p11 + 17, p11 + 18, p11 + 19, p11 + 20, p11 + 21, p11 + 22, p11 + 23, p11 + 24, p11 + 25, p11 + 26, p11 + 27, p11 + 28, p11 + 29, p11 + 30, p11 + 31, p11 + 32, p11 + 33, p11 + 34, p11 + 35, p11 + 36, p11 + 37, p11 + 38, p11 + 39, 9};
Line(12) = {4, 10};
Line(13) = {10, 7};
Line(14) = {5, 10};
p15 = newp;
Point(p15 + 1) = {13.55508021734624, -1.660157857559126, 0};
Point(p15 + 2) = {13.53316423939952, -1.56887123965634, 0};
Point(p15 + 3) = {13.49723771027184, -1.482136925787323, 0};
Point(p15 + 4) = {13.44818526034366, -1.402090602614216, 0};
Point(p15 + 5) = {13.38721472372794, -1.330703276272056, 0};
Point(p15 + 6) = {13.31582739738578, -1.26973273965634, 0};
Point(p15 + 7) = {13.23578107421268, -1.220680289728156, 0};
Point(p15 + 8) = {13.14904676034366, -1.184753760600485, 0};
Point(p15 + 9) = {13.05776014244088, -1.162837782653763, 0};
Point(p15 + 10) = {12.964169, -1.155472, 0};
Point(p15 + 11) = {12.87057785755912, -1.162837782653763, 0};
Point(p15 + 12) = {12.77929123965634, -1.184753760600485, 0};
Point(p15 + 13) = {12.69255692578732, -1.220680289728156, 0};
Point(p15 + 14) = {12.61251060261422, -1.26973273965634, 0};
Point(p15 + 15) = {12.54112327627206, -1.330703276272056, 0};
Point(p15 + 16) = {12.48015273965634, -1.402090602614216, 0};
Point(p15 + 17) = {12.43110028972816, -1.482136925787323, 0};
Point(p15 + 18) = {12.39517376060048, -1.56887123965634, 0};
Point(p15 + 19) = {12.37325778265376, -1.660157857559126, 0};
Point(p15 + 20) = {12.365892, -1.753749, 0};
Point(p15 + 21) = {12.37325778265376, -1.847340142440874, 0};
Point(p15 + 22) = {12.39517376060048, -1.938626760343661, 0};
Point(p15 + 23) = {12.43110028972816, -2.025361074212677, 0};
Point(p15 + 24) = {12.48015273965634, -2.105407397385784, 0};
Point(p15 + 25) = {12.54112327627206, -2.176794723727944, 0};
Point(p15 + 26) = {12.61251060261422, -2.23776526034366, 0};
Point(p15 + 27) = {12.69255692578732, -2.286817710271844, 0};
Point(p15 + 28) = {12.77929123965634, -2.322744239399515, 0};
Point(p15 + 29) = {12.87057785755912, -2.344660217346237, 0};
Point(p15 + 30) = {12.964169, -2.352026, 0};
Point(p15 + 31) = {13.05776014244087, -2.344660217346237, 0};
Point(p15 + 32) = {13.14904676034366, -2.322744239399515, 0};
Point(p15 + 33) = {13.23578107421268, -2.286817710271844, 0};
Point(p15 + 34) = {13.31582739738578, -2.23776526034366, 0};
Point(p15 + 35) = {13.38721472372794, -2.176794723727944, 0};
Point(p15 + 36) = {13.44818526034366, -2.105407397385784, 0};
Point(p15 + 37) = {13.49723771027184, -2.025361074212677, 0};
Point(p15 + 38) = {13.53316423939952, -1.93862676034366, 0};
Point(p15 + 39) = {13.55508021734624, -1.847340142440874, 0};
Spline(15) = {11, p15 + 1, p15 + 2, p15 + 3, p15 + 4, p15 + 5, p15 + 6, p15 + 7, p15 + 8, p15 + 9, p15 + 10, p15 + 11, p15 + 12, p15 + 13, p15 + 14, p15 + 15, p15 + 16, p15 + 17, p15 + 18, p15 + 19, p15 + 20, p15 + 21, p15 + 22, p15 + 23, p15 + 24, p15 + 25, p15 + 26, p15 + 27, p15 + 28, p15 + 29, p15 + 30, p15 + 31, p15 + 32, p15 + 33, p15 + 34, p15 + 35, p15 + 36, p15 + 37, p15 + 38, p15 + 39, 11};
p16 = newp;
Point(p16 + 1) = {37.05007079557299, -0.2010060779913432, 0};
Point(p16 + 2) = {37.00690044705823, -0.02118863524808512, 0};
Point(p16 + 3) = {36.93613195171032, 0.1496616260095577, 0};
Point(p16 + 4) = {36.83950786475192, 0.3073378053299135, 0};
Point(p16 + 5) = {36.71940739188088, 0.4479573918808779, 0};
Point(p16 + 6) = {36.57878780532992, 0.568057864751915, 0};
Point(p16 + 7) = {36.42111162600956, 0.6646819517103221, 0};
Point(p16 + 8) = {36.25026136475192, 0.7354504470582243, 0};
Point(p16 + 9) = {36.07044392200866, 0.7786207955729857, 0};
Point(p16 + 10) = {35.886087, 0.79313, 0};
Point(p16 + 11) = {35.70173007799135, 0.7786207955729855, 0};
Point(p16 + 12) = {35.52191263524809, 0.7354504470582245, 0};
Point(p16 + 13) = {35.35106237399044, 0.6646819517103223, 0};
Point(p16 + 14) = {35.19338619467009, 0.568057864751915, 0};
Point(p16 + 15) = {35.05276660811913, 0.447957391880878, 0};
Point(p16 + 16) = {34.93266613524809, 0.3073378053299137, 0};
Point(p16 + 17) = {34.83604204828968, 0.1496616260095578, 0};
Point(p16 + 18) = {34.76527355294178, -0.02118863524808501, 0};
Point(p16 + 19) = {34.72210320442701, -0.2010060779913431, 0};
Point(p16 + 20) = {34.707594, -0.3853629999999998, 0};
Point(p16 + 21) = {34.72210320442701, -0.5697199220086566, 0};
Point(p16 + 22) = {34.76527355294178, -0.7495373647519152, 0};
Point(p16 + 23) = {34.83604204828968, -0.9203876260095571, 0};
Point(p16 + 24) = {34.93266613524809, -1.078063805329913, 0};
Point(p16 + 25) = {35.05276660811913, -1.218683391880878, 0};
Point(p16 + 26) = {35.19338619467009, -1.338783864751915, 0};
Point(p16 + 27) = {35.35106237399044, -1.435407951710322, 0};
Point(p16 + 28) = {35.52191263524809, -1.506176447058224, 0};
Point(p16 + 29) = {35.70173007799135, -1.549346795572986, 0};
Point(p16 + 30) = {35.886087, -1.563856, 0};
Point(p16 + 31) = {36.07044392200866, -1.549346795572986, 0};
Point(p16 + 32) = {36.25026136475192, -1.506176447058225, 0};
Point(p16 + 33) = {36.42111162600956, -1.435407951710322, 0};
Point(p16 + 34) = {36.57878780532992, -1.338783864751915, 0};
Point(p16 + 35) = {36.71940739188088, -1.218683391880878, 0};
Point(p16 + 36) = {36.83950786475192, -1.078063805329914, 0};
Point(p16 + 37) = {36.93613195171032, -0.9203876260095579, 0};
Point(p16 + 38) = {37.00690044705823, -0.7495373647519152, 0};
Point(p16 + 39) = {37.05007079557299, -0.5697199220086571, 0};
Spline(16) = {12, p16 + 1, p16 + 2, p16 + 3, p16 + 4, p16 + 5, p16 + 6, p16 + 7, p16 + 8, p16 + 9, p16 + 10, p16 + 11, p16 + 12, p16 + 13, p16 + 14, p16 + 15, p16 + 16, p16 + 17, p16 + 18, p16 + 19, p16 + 20, p16 + 21, p16 + 22, p16 + 23, p16 + 24, p16 + 25, p16 + 26, p16 + 27, p16 + 28, p16 + 29, p16 + 30, p16 + 31, p16 + 32, p16 + 33, p16 + 34, p16 + 35, p16 + 36, p16 + 37, p16 + 38, p16 + 39, 12};
Line(17) = {11, 8};
Line(18) = {12, 9};
Curve Loop(1) = {-1, 4, 3, -2};
Plane Surface(1) = {1};
Curve Loop(2) = {-5, 1, 7, -6};
Plane Surface(2) = {2};
Curve Loop(3) = {-2, 7, 9, -8, -10, -11};
Plane Surface(3) = {3};
Curve Loop(4) = {-12, 3, 8, -13};
Plane Surface(4) = {4};
Curve Loop(5) = {-4, 5, 14, -12, -15, -16};
Plane Surface(5) = {5};
Curve Loop(6) = {-6, 14, 13, -9};
Plane Surface(6) = {6};
Curve Loop(7) = {-10, -17, 15, 17};
Surface(7) = {7};
Curve Loop(8) = {-11, -18, 16, 18};
Surface(8) = {8};
Surface Loop(1) = {1, 2, 3, 4, 5, 6, 7, 8};
Volume(1) = {1};
Physical Surface("INFLOW") = {1};
Physical Surface("OUTFLOW") = {6};
Physical Surface("OBSTACLE") = {7, 8};
Physical Surface("WALL_Y") = {2, 4};
Physical Surface("WALL_Z") = {3, 5};
Physical Volume("FLUID") = {1};
