cl__1 = 1.433777;
cl__2 = 0.439472;
cl__3 = 3.682291;
cl__4 = 0.147229;
cl__5 = 0.12858;
Point(1) = {0.301764, -3.883043, 1, cl__1};
Point(2) = {0.301764, -3.883043, 0, cl__1};
Point(3) = {0.301764, 4.169564, 1, cl__2};
Point(4) = {0.301764, 4.169564, 0, cl__2};
Point(5) = {36.602124, -3.883043, 0, cl__1};
Point(6) = {36.602124, -3.883043, 1, cl__1};
Point(7) = {36.602124, 4.169564, 1, cl__3};
Point(8) = {17.108739, -0.03526400000000036, 1, cl__4};
Point(9) = {35.74986800000001, 1.379754, 1, cl__5};
Point(10) = {36.602124, 4.169564, 0, cl__3};
Point(11) = {17.108739, -0.03526400000000036, 0, cl__4};
Point(12) = {35.74986800000001, 1.379754, 0, cl__5};
Line(1) = {2, 1};
Line(2) = {1, 3};
Line(3) = {4, 3};
Line(4) = {2, 4};
Line(5) = {2, 5};
Line(6) = {5, 6};
Line(7) = {1, 6};
Line(8) = {3, 7};
Line(9) = {6, 7};
p10 = newp;
Point(p10 + 1) = {17.09061266697482, 0.1950528985340815, 1};
Point(p10 + 2) = {17.03667999837619, 0.4196986306482913, 1};
Point(p10 + 3) = {16.94826899549729, 0.6331416728615373, 1};
Point(p10 + 4) = {16.82755663064829, 0.8301263490976853, 1};
Point(p10 + 5) = {16.67751524287314, 1.005802242873142, 1};
Point(p10 + 6) = {16.50183934909769, 1.155843630648292, 1};
Point(p10 + 7) = {16.30485467286154, 1.276555995497292, 1};
Point(p10 + 8) = {16.09141163064829, 1.364966998376192, 1};
Point(p10 + 9) = {15.86676589853408, 1.418899666974816, 1};
Point(p10 + 10) = {15.636449, 1.437026, 1};
Point(p10 + 11) = {15.40613210146592, 1.418899666974815, 1};
Point(p10 + 12) = {15.18148636935171, 1.364966998376192, 1};
Point(p10 + 13) = {14.96804332713846, 1.276555995497292, 1};
Point(p10 + 14) = {14.77105865090232, 1.155843630648292, 1};
Point(p10 + 15) = {14.59538275712686, 1.005802242873142, 1};
Point(p10 + 16) = {14.44534136935171, 0.8301263490976856, 1};
Point(p10 + 17) = {14.32462900450271, 0.6331416728615376, 1};
Point(p10 + 18) = {14.23621800162381, 0.4196986306482915, 1};
Point(p10 + 19) = {14.18228533302518, 0.1950528985340817, 1};
Point(p10 + 20) = {14.164159, -0.03526399999999982, 1};
Point(p10 + 21) = {14.18228533302518, -0.2655808985340813, 1};
Point(p10 + 22) = {14.23621800162381, -0.4902266306482919, 1};
Point(p10 + 23) = {14.32462900450271, -0.7036696728615366, 1};
Point(p10 + 24) = {14.44534136935171, -0.9006543490976852, 1};
Point(p10 + 25) = {14.59538275712686, -1.076330242873142, 1};
Point(p10 + 26) = {14.77105865090232, -1.226371630648291, 1};
Point(p10 + 27) = {14.96804332713846, -1.347083995497292, 1};
Point(p10 + 28) = {15.18148636935171, -1.435494998376192, 1};
Point(p10 + 29) = {15.40613210146592, -1.489427666974815, 1};
Point(p10 + 30) = {15.636449, -1.507554, 1};
Point(p10 + 31) = {15.86676589853408, -1.489427666974815, 1};
Point(p10 + 32) = {16.09141163064829, -1.435494998376192, 1};
Point(p10 + 33) = {16.30485467286154, -1.347083995497292, 1};
Point(p10 + 34) = {16.50183934909769, -1.226371630648292, 1};
Point(p10 + 35) = {16.67751524287314, -1.076330242873142, 1};
Point(p10 + 36) = {16.82755663064829, -0.9006543490976856, 1};
Point(p10 + 37) = {16.94826899549729, -0.7036696728615376, 1};
Point(p10 + 38) = {17.03667999837619, -0.4902266306482917, 1};
Point(p10 + 39) = {17.09061266697482, -0.2655808985340818, 1};
Spline(10) = {8, p10 + 1, p10 + 2, p10 + 3, p10 + 4, p10 + 5, p10 + 6, p10 + 7, p10 + 8, p10 + 9, p10 + 10, p10 + 11, p10 + 12, p10 + 13, p10 + 14, p10 + 15, p10 + 16, p10 + 17, p10 + 18, p10 + 19, p10 + 20, p10 + 21, p10 + 22, p10 + 23, p10 + 24, p10 + 25, p10 + 26, p10 + 27, p10 + 28, p10 + 29, p10 + 30, p10 + 31, p10 + 32, p10 + 33, p10 + 34, p10 + 35, p10 + 36, p10 + 37, p10 + 38, p10 + 39, 8};
p11 = newp;
Point(p11 + 1) = {35.73403760677893, 1.580898217321054, 1};
Point(p11 + 2) = {35.68693622393489, 1.777089596452279, 1};
Point(p11 + 3) = {35.60972364383403, 1.963497254517608, 1};
Point(p11 + 4) = {35.50430109645228, 2.135531216323924, 1};
Point(p11 + 5) = {35.37326443478357, 2.288955434783569, 1};
Point(p11 + 6) = {35.21984021632392, 2.419992096452279, 1};
Point(p11 + 7) = {35.04780625451761, 2.525414643834024, 1};
Point(p11 + 8) = {34.86139859645228, 2.60262722393489, 1};
Point(p11 + 9) = {34.66520721732105, 2.649728606778931, 1};
Point(p11 + 10) = {34.464063, 2.665559, 1};
Point(p11 + 11) = {34.26291878267895, 2.649728606778931, 1};
Point(p11 + 12) = {34.06672740354772, 2.60262722393489, 1};
Point(p11 + 13) = {33.8803197454824, 2.525414643834024, 1};
Point(p11 + 14) = {33.70828578367608, 2.419992096452279, 1};
Point(p11 + 15) = {33.55486156521643, 2.288955434783569, 1};
Point(p11 + 16) = {33.42382490354773, 2.135531216323924, 1};
Point(p11 + 17) = {33.31840235616598, 1.963497254517608, 1};
Point(p11 + 18) = {33.24118977606511, 1.777089596452279, 1};
Point(p11 + 19) = {33.19408839322107, 1.580898217321054, 1};
Point(p11 + 20) = {33.178258, 1.379754, 1};
Point(p11 + 21) = {33.19408839322107, 1.178609782678946, 1};
Point(p11 + 22) = {33.24118977606511, 0.9824184035477203, 1};
Point(p11 + 23) = {33.31840235616598, 0.7960107454823926, 1};
Point(p11 + 24) = {33.42382490354773, 0.6239767836760766, 1};
Point(p11 + 25) = {33.55486156521643, 0.4705525652164312, 1};
Point(p11 + 26) = {33.70828578367608, 0.3395159035477207, 1};
Point(p11 + 27) = {33.8803197454824, 0.2340933561659757, 1};
Point(p11 + 28) = {34.06672740354772, 0.1568807760651099, 1};
Point(p11 + 29) = {34.26291878267895, 0.1097793932210689, 1};
Point(p11 + 30) = {34.464063, 0.09394899999999984, 1};
Point(p11 + 31) = {34.66520721732105, 0.1097793932210687, 1};
Point(p11 + 32) = {34.86139859645228, 0.1568807760651099, 1};
Point(p11 + 33) = {35.04780625451761, 0.2340933561659755, 1};
Point(p11 + 34) = {35.21984021632392, 0.3395159035477204, 1};
Point(p11 + 35) = {35.37326443478357, 0.470552565216431, 1};
Point(p11 + 36) = {35.50430109645228, 0.6239767836760761, 1};
Point(p11 + 37) = {35.60972364383403, 0.7960107454823917, 1};
Point(p11 + 38) = {35.68693622393489, 0.9824184035477204, 1};
Point(p11 + 39) = {35.73403760677893, 1.178609782678945, 1};
Spline(11) = {9, p11 + 1, p11 + 2, p11 + 3, p11 + 4, p11 + 5, p11 + 6, p11 + 7, p11 + 8, p11 + 9, p11 + 10, p11 + 11, p11 + 12, p11 + 13, p11 + 14, p11 + 15, p11 + 16, p11 + 17, p11 + 18, p11 + 19, p11 + 20, p11 + 21, p11 + 22, p11 + 23, p11 + 24, p11 + 25, p11 + 26, p11 + 27, p11 + 28, p11 + 29, p11 + 30, p11 + 31, p11 + 32, p11 + 33, p11 + 34, p11 + 35, p11 + 36, p11 + 37, p11 + 38, p11 + 39, 9};
Line(12) = {4, 10};
Line(13) = {10, 7};
Line(14) = {5, 10};
p15 = newp;
Point(p15 + 1) = {17.09061266697482, 0.1950528985340815, 0};
Point(p15 + 2) = {17.03667999837619, 0.4196986306482913, 0};
Point(p15 + 3) = {16.94826899549729, 0.6331416728615373, 0};
Point(p15 + 4) = {16.82755663064829, 0.8301263490976853, 0};
Point(p15 + 5) = {16.67751524287314, 1.005802242873142, 0};
Point(p15 + 6) = {16.50183934909769, 1.155843630648292, 0};
Point(p15 + 7) = {16.30485467286154, 1.276555995497292, 0};
Point(p15 + 8) = {16.09141163064829, 1.364966998376192, 0};
Point(p15 + 9) = {15.86676589853408, 1.418899666974816, 0};
Point(p15 + 10) = {15.636449, 1.437026, 0};
Point(p15 + 11) = {15.40613210146592, 1.418899666974815, 0};
Point(p15 + 12) = {15.18148636935171, 1.364966998376192, 0};
Point(p15 + 13) = {14.96804332713846, 1.276555995497292, 0};
Point(p15 + 14) = {14.77105865090232, 1.155843630648292, 0};
Point(p15 + 15) = {14.59538275712686, 1.005802242873142, 0};
Point(p15 + 16) = {14.44534136935171, 0.8301263490976856, 0};
Point(p15 + 17) = {14.32462900450271, 0.6331416728615376, 0};
Point(p15 + 18) = {14.23621800162381, 0.4196986306482915, 0};
Point(p15 + 19) = {14.18228533302518, 0.1950528985340817, 0};
Point(p15 + 20) = {14.164159, -0.03526399999999982, 0};
Point(p15 + 21) = {14.18228533302518, -0.2655808985340813, 0};
Point(p15 + 22) = {14.23621800162381, -0.4902266306482919, 0};
Point(p15 + 23) = {14.32462900450271, -0.7036696728615366, 0};
Point(p15 + 24) = {14.44534136935171, -0.9006543490976852, 0};
Point(p15 + 25) = {14.59538275712686, -1.076330242873142, 0};
Point(p15 + 26) = {14.77105865090232, -1.226371630648291, 0};
Point(p15 + 27) = {14.96804332713846, -1.347083995497292, 0};
Point(p15 + 28) = {15.18148636935171, -1.435494998376192, 0};
Point(p15 + 29) = {15.40613210146592, -1.489427666974815, 0};
Point(p15 + 30) = {15.636449, -1.507554, 0};
Point(p15 + 31) = {15.86676589853408, -1.489427666974815, 0};
Point(p15 + 32) = {16.09141163064829, -1.435494998376192, 0};
Point(p15 + 33) = {16.30485467286154, -1.347083995497292, 0};
Point(p15 + 34) = {16.50183934909769, -1.226371630648292, 0};
Point(p15 + 35) = {16.67751524287314, -1.076330242873142, 0};
Point(p15 + 36) = {16.82755663064829, -0.9006543490976856, 0};
Point(p15 + 37) = {16.94826899549729, -0.7036696728615376, 0};
Point(p15 + 38) = {17.03667999837619, -0.4902266306482917, 0};
Point(p15 + 39) = {17.09061266697482, -0.2655808985340818, 0};
Spline(15) = {11, p15 + 1, p15 + 2, p15 + 3, p15 + 4, p15 + 5, p15 + 6, p15 + 7, p15 + 8, p15 + 9, p15 + 10, p15 + 11, p15 + 12, p15 + 13, p15 + 14, p15 + 15, p15 + 16, p15 + 17, p15 + 18, p15 + 19, p15 + 20, p15 + 21, p15 + 22, p15 + 23, p15 + 24, p15 + 25, p15 + 26, p15 + 27, p15 + 28, p15 + 29, p15 + 30, p15 + 31, p15 + 32, p15 + 33, p15 + 34, p15 + 35, p15 + 36, p15 + 37, p15 + 38, p15 + 39, 11};
p16 = newp;
Point(p16 + 1) = {35.73403760677893, 1.580898217321054, 0};
Point(p16 + 2) = {35.68693622393489, 1.777089596452279, 0};
Point(p16 + 3) = {35.60972364383403, 1.963497254517608, 0};
Point(p16 + 4) = {35.50430109645228, 2.135531216323924, 0};
Point(p16 + 5) = {35.37326443478357, 2.288955434783569, 0};
Point(p16 + 6) = {35.21984021632392, 2.419992096452279, 0};
Point(p16 + 7) = {35.04780625451761, 2.525414643834024, 0};
Point(p16 + 8) = {34.86139859645228, 2.60262722393489, 0};
Point(p16 + 9) = {34.66520721732105, 2.649728606778931, 0};
Point(p16 + 10) = {34.464063, 2.665559, 0};
Point(p16 + 11) = {34.26291878267895, 2.649728606778931, 0};
Point(p16 + 12) = {34.06672740354772, 2.60262722393489, 0};
Point(p16 + 13) = {33.8803197454824, 2.525414643834024, 0};
Point(p16 + 14) = {33.70828578367608, 2.419992096452279, 0};
Point(p16 + 15) = {33.55486156521643, 2.288955434783569, 0};
Point(p16 + 16) = {33.42382490354773, 2.135531216323924, 0};
Point(p16 + 17) = {33.31840235616598, 1.963497254517608, 0};
Point(p16 + 18) = {33.24118977606511, 1.777089596452279, 0};
Point(p16 + 19) = {33.19408839322107, 1.580898217321054, 0};
Point(p16 + 20) = {33.178258, 1.379754, 0};
Point(p16 + 21) = {33.19408839322107, 1.178609782678946, 0};
Point(p16 + 22) = {33.24118977606511, 0.9824184035477203, 0};
Point(p16 + 23) = {33.31840235616598, 0.7960107454823926, 0};
Point(p16 + 24) = {33.42382490354773, 0.6239767836760766, 0};
Point(p16 + 25) = {33.55486156521643, 0.4705525652164312, 0};
Point(p16 + 26) = {33.70828578367608, 0.3395159035477207, 0};
Point(p16 + 27) = {33.8803197454824, 0.2340933561659757, 0};
Point(p16 + 28) = {34.06672740354772, 0.1568807760651099, 0};
Point(p16 + 29) = {34.26291878267895, 0.1097793932210689, 0};
Point(p16 + 30) = {34.464063, 0.09394899999999984, 0};
Point(p16 + 31) = {34.66520721732105, 0.1097793932210687, 0};
Point(p16 + 32) = {34.86139859645228, 0.1568807760651099, 0};
Point(p16 + 33) = {35.04780625451761, 0.2340933561659755, 0};
Point(p16 + 34) = {35.21984021632392, 0.3395159035477204, 0};
Point(p16 + 35) = {35.37326443478357, 0.470552565216431, 0};
Point(p16 + 36) = {35.50430109645228, 0.6239767836760761, 0};
Point(p16 + 37) = {35.60972364383403, 0.7960107454823917, 0};
Point(p16 + 38) = {35.68693622393489, 0.9824184035477204, 0};
Point(p16 + 39) = {35.73403760677893, 1.178609782678945, 0};
Spline(16) = {12, p16 + 1, p16 + 2, p16 + 3, p16 + 4, p16 + 5, p16 + 6, p16 + 7, p16 + 8, p16 + 9, p16 + 10, p16 + 11, p16 + 12, p16 + 13, p16 + 14, p16 + 15, p16 + 16, p16 + 17, p16 + 18, p16 + 19, p16 + 20, p16 + 21, p16 + 22, p16 + 23, p16 + 24, p16 + 25, p16 + 26, p16 + 27, p16 + 28, p16 + 29, p16 + 30, p16 + 31, p16 + 32, p16 + 33, p16 + 34, p16 + 35, p16 + 36, p16 + 37, p16 + 38, p16 + 39, 12};
Line(17) = {11, 8};
Line(18) = {12, 9};
Curve Loop(1) = {-1, 4, 3, -2};
Plane Surface(1) = {1};
Curve Loop(2) = {-5, 1, 7, -6};
Plane Surface(2) = {2};
Curve Loop(3) = {-2, 7, 9, -8, -10, -11};
Plane Surface(3) = {3};
Curve Loop(4) = {-12, 3, 8, -13};
Plane Surface(4) = {4};
Curve Loop(5) = {-4, 5, 14, -12, -15, -16};
Plane Surface(5) = {5};
Curve Loop(6) = {-6, 14, 13, -9};
Plane Surface(6) = {6};
Curve Loop(7) = {-10, -17, 15, 17};
Surface(7) = {7};
Curve Loop(8) = {-11, -18, 16, 18};
Surface(8) = {8};
Surface Loop(1) = {1, 2, 3, 4, 5, 6, 7, 8};
Volume(1) = {1};
Physical Surface("INFLOW") = {1};
Physical Surface("OUTFLOW") = {6};
Physical Surface("OBSTACLE") = {7, 8};
Physical Surface("WALL_Y") = {2, 4};
Physical Surface("WALL_Z") = {3, 5};
Physical Volume("FLUID") = {1};
