cl__1 = 0.204326;
cl__2 = 0.602366;
cl__3 = 3.253981;
cl__4 = 0.0601;
cl__5 = 0.086483;
Point(1) = {0.704572, -4.065911, 1, cl__1};
Point(2) = {0.704572, -4.065911, 0, cl__1};
Point(3) = {0.704572, 4.157559000000001, 1, cl__2};
Point(4) = {0.704572, 4.157559000000001, 0, cl__2};
Point(5) = {32.278983, -4.065911, 0, cl__3};
Point(6) = {32.278983, -4.065911, 1, cl__3};
Point(7) = {32.278983, 4.157559000000001, 1, cl__3};
Point(8) = {3.176605, -2.197386, 1, cl__4};
Point(9) = {9.837536999999999, 1.115797, 1, cl__5};
Point(10) = {32.278983, 4.157559000000001, 0, cl__3};
Point(11) = {3.176605, -2.197386, 0, cl__4};
Point(12) = {9.837536999999999, 1.115797, 0, cl__5};
Line(1) = {2, 1};
Line(2) = {1, 3};
Line(3) = {4, 3};
Line(4) = {2, 4};
Line(5) = {2, 5};
Line(6) = {5, 6};
Line(7) = {1, 6};
Line(8) = {3, 7};
Line(9) = {6, 7};
p10 = newp;
Point(p10 + 1) = {3.169205680386018, -2.103368730076356, 1};
Point(p10 + 2) = {3.147189917349904, -2.011666477363662, 1};
Point(p10 + 3) = {3.111099812043733, -1.924537255666033, 1};
Point(p10 + 4) = {3.061824022636338, -1.844126475586971, 1};
Point(p10 + 5) = {3.000575882599896, -1.772414117400104, 1};
Point(p10 + 6) = {2.928863524413028, -1.711165977363662, 1};
Point(p10 + 7) = {2.848452744333967, -1.661890187956267, 1};
Point(p10 + 8) = {2.761323522636338, -1.625800082650096, 1};
Point(p10 + 9) = {2.669621269923644, -1.603784319613982, 1};
Point(p10 + 10) = {2.575604, -1.596385, 1};
Point(p10 + 11) = {2.481586730076356, -1.603784319613982, 1};
Point(p10 + 12) = {2.389884477363662, -1.625800082650096, 1};
Point(p10 + 13) = {2.302755255666033, -1.661890187956267, 1};
Point(p10 + 14) = {2.222344475586971, -1.711165977363662, 1};
Point(p10 + 15) = {2.150632117400104, -1.772414117400104, 1};
Point(p10 + 16) = {2.089383977363662, -1.844126475586971, 1};
Point(p10 + 17) = {2.040108187956267, -1.924537255666033, 1};
Point(p10 + 18) = {2.004018082650096, -2.011666477363662, 1};
Point(p10 + 19) = {1.982002319613982, -2.103368730076356, 1};
Point(p10 + 20) = {1.974603, -2.197386, 1};
Point(p10 + 21) = {1.982002319613982, -2.291403269923644, 1};
Point(p10 + 22) = {2.004018082650096, -2.383105522636338, 1};
Point(p10 + 23) = {2.040108187956267, -2.470234744333967, 1};
Point(p10 + 24) = {2.089383977363662, -2.550645524413028, 1};
Point(p10 + 25) = {2.150632117400103, -2.622357882599896, 1};
Point(p10 + 26) = {2.222344475586971, -2.683606022636337, 1};
Point(p10 + 27) = {2.302755255666032, -2.732881812043733, 1};
Point(p10 + 28) = {2.389884477363662, -2.768971917349903, 1};
Point(p10 + 29) = {2.481586730076356, -2.790987680386018, 1};
Point(p10 + 30) = {2.575604, -2.798387, 1};
Point(p10 + 31) = {2.669621269923644, -2.790987680386018, 1};
Point(p10 + 32) = {2.761323522636337, -2.768971917349903, 1};
Point(p10 + 33) = {2.848452744333967, -2.732881812043733, 1};
Point(p10 + 34) = {2.928863524413028, -2.683606022636338, 1};
Point(p10 + 35) = {3.000575882599896, -2.622357882599896, 1};
Point(p10 + 36) = {3.061824022636337, -2.550645524413029, 1};
Point(p10 + 37) = {3.111099812043733, -2.470234744333967, 1};
Point(p10 + 38) = {3.147189917349904, -2.383105522636338, 1};
Point(p10 + 39) = {3.169205680386018, -2.291403269923644, 1};
Spline(10) = {8, p10 + 1, p10 + 2, p10 + 3, p10 + 4, p10 + 5, p10 + 6, p10 + 7, p10 + 8, p10 + 9, p10 + 10, p10 + 11, p10 + 12, p10 + 13, p10 + 14, p10 + 15, p10 + 16, p10 + 17, p10 + 18, p10 + 19, p10 + 20, p10 + 21, p10 + 22, p10 + 23, p10 + 24, p10 + 25, p10 + 26, p10 + 27, p10 + 28, p10 + 29, p10 + 30, p10 + 31, p10 + 32, p10 + 33, p10 + 34, p10 + 35, p10 + 36, p10 + 37, p10 + 38, p10 + 39, 8};
p11 = newp;
Point(p11 + 1) = {9.826889482973574, 1.251086531269673, 1};
Point(p11 + 2) = {9.79520910910057, 1.383044785279274, 1};
Point(p11 + 3) = {9.743275954326874, 1.508422511870752, 1};
Point(p11 + 4) = {9.672368785279275, 1.624132495310604, 1};
Point(p11 + 5) = {9.584233571787124, 1.727325571787124, 1};
Point(p11 + 6) = {9.481040495310603, 1.815460785279275, 1};
Point(p11 + 7) = {9.365330511870752, 1.886367954326874, 1};
Point(p11 + 8) = {9.239952785279273, 1.93830110910057, 1};
Point(p11 + 9) = {9.107994531269673, 1.969981482973574, 1};
Point(p11 + 10) = {8.972704999999999, 1.980629, 1};
Point(p11 + 11) = {8.837415468730326, 1.969981482973574, 1};
Point(p11 + 12) = {8.705457214720726, 1.93830110910057, 1};
Point(p11 + 13) = {8.580079488129249, 1.886367954326875, 1};
Point(p11 + 14) = {8.464369504689396, 1.815460785279275, 1};
Point(p11 + 15) = {8.361176428212875, 1.727325571787124, 1};
Point(p11 + 16) = {8.273041214720726, 1.624132495310604, 1};
Point(p11 + 17) = {8.202134045673125, 1.508422511870752, 1};
Point(p11 + 18) = {8.150200890899429, 1.383044785279274, 1};
Point(p11 + 19) = {8.118520517026425, 1.251086531269673, 1};
Point(p11 + 20) = {8.107873, 1.115797, 1};
Point(p11 + 21) = {8.118520517026425, 0.9805074687303271, 1};
Point(p11 + 22) = {8.150200890899429, 0.8485492147207252, 1};
Point(p11 + 23) = {8.202134045673125, 0.7231714881292486, 1};
Point(p11 + 24) = {8.273041214720724, 0.6074615046893959, 1};
Point(p11 + 25) = {8.361176428212875, 0.5042684282128757, 1};
Point(p11 + 26) = {8.464369504689396, 0.4161332147207254, 1};
Point(p11 + 27) = {8.580079488129247, 0.3452260456731254, 1};
Point(p11 + 28) = {8.705457214720726, 0.2932928908994297, 1};
Point(p11 + 29) = {8.837415468730326, 0.2616125170264257, 1};
Point(p11 + 30) = {8.972704999999999, 0.2509649999999999, 1};
Point(p11 + 31) = {9.107994531269672, 0.2616125170264257, 1};
Point(p11 + 32) = {9.239952785279273, 0.2932928908994296, 1};
Point(p11 + 33) = {9.36533051187075, 0.3452260456731253, 1};
Point(p11 + 34) = {9.481040495310603, 0.4161332147207253, 1};
Point(p11 + 35) = {9.584233571787124, 0.5042684282128755, 1};
Point(p11 + 36) = {9.672368785279273, 0.6074615046893955, 1};
Point(p11 + 37) = {9.743275954326874, 0.723171488129248, 1};
Point(p11 + 38) = {9.79520910910057, 0.8485492147207252, 1};
Point(p11 + 39) = {9.826889482973574, 0.9805074687303268, 1};
Spline(11) = {9, p11 + 1, p11 + 2, p11 + 3, p11 + 4, p11 + 5, p11 + 6, p11 + 7, p11 + 8, p11 + 9, p11 + 10, p11 + 11, p11 + 12, p11 + 13, p11 + 14, p11 + 15, p11 + 16, p11 + 17, p11 + 18, p11 + 19, p11 + 20, p11 + 21, p11 + 22, p11 + 23, p11 + 24, p11 + 25, p11 + 26, p11 + 27, p11 + 28, p11 + 29, p11 + 30, p11 + 31, p11 + 32, p11 + 33, p11 + 34, p11 + 35, p11 + 36, p11 + 37, p11 + 38, p11 + 39, 9};
Line(12) = {4, 10};
Line(13) = {10, 7};
Line(14) = {5, 10};
p15 = newp;
Point(p15 + 1) = {3.169205680386018, -2.103368730076356, 0};
Point(p15 + 2) = {3.147189917349904, -2.011666477363662, 0};
Point(p15 + 3) = {3.111099812043733, -1.924537255666033, 0};
Point(p15 + 4) = {3.061824022636338, -1.844126475586971, 0};
Point(p15 + 5) = {3.000575882599896, -1.772414117400104, 0};
Point(p15 + 6) = {2.928863524413028, -1.711165977363662, 0};
Point(p15 + 7) = {2.848452744333967, -1.661890187956267, 0};
Point(p15 + 8) = {2.761323522636338, -1.625800082650096, 0};
Point(p15 + 9) = {2.669621269923644, -1.603784319613982, 0};
Point(p15 + 10) = {2.575604, -1.596385, 0};
Point(p15 + 11) = {2.481586730076356, -1.603784319613982, 0};
Point(p15 + 12) = {2.389884477363662, -1.625800082650096, 0};
Point(p15 + 13) = {2.302755255666033, -1.661890187956267, 0};
Point(p15 + 14) = {2.222344475586971, -1.711165977363662, 0};
Point(p15 + 15) = {2.150632117400104, -1.772414117400104, 0};
Point(p15 + 16) = {2.089383977363662, -1.844126475586971, 0};
Point(p15 + 17) = {2.040108187956267, -1.924537255666033, 0};
Point(p15 + 18) = {2.004018082650096, -2.011666477363662, 0};
Point(p15 + 19) = {1.982002319613982, -2.103368730076356, 0};
Point(p15 + 20) = {1.974603, -2.197386, 0};
Point(p15 + 21) = {1.982002319613982, -2.291403269923644, 0};
Point(p15 + 22) = {2.004018082650096, -2.383105522636338, 0};
Point(p15 + 23) = {2.040108187956267, -2.470234744333967, 0};
Point(p15 + 24) = {2.089383977363662, -2.550645524413028, 0};
Point(p15 + 25) = {2.150632117400103, -2.622357882599896, 0};
Point(p15 + 26) = {2.222344475586971, -2.683606022636337, 0};
Point(p15 + 27) = {2.302755255666032, -2.732881812043733, 0};
Point(p15 + 28) = {2.389884477363662, -2.768971917349903, 0};
Point(p15 + 29) = {2.481586730076356, -2.790987680386018, 0};
Point(p15 + 30) = {2.575604, -2.798387, 0};
Point(p15 + 31) = {2.669621269923644, -2.790987680386018, 0};
Point(p15 + 32) = {2.761323522636337, -2.768971917349903, 0};
Point(p15 + 33) = {2.848452744333967, -2.732881812043733, 0};
Point(p15 + 34) = {2.928863524413028, -2.683606022636338, 0};
Point(p15 + 35) = {3.000575882599896, -2.622357882599896, 0};
Point(p15 + 36) = {3.061824022636337, -2.550645524413029, 0};
Point(p15 + 37) = {3.111099812043733, -2.470234744333967, 0};
Point(p15 + 38) = {3.147189917349904, -2.383105522636338, 0};
Point(p15 + 39) = {3.169205680386018, -2.291403269923644, 0};
Spline(15) = {11, p15 + 1, p15 + 2, p15 + 3, p15 + 4, p15 + 5, p15 + 6, p15 + 7, p15 + 8, p15 + 9, p15 + 10, p15 + 11, p15 + 12, p15 + 13, p15 + 14, p15 + 15, p15 + 16, p15 + 17, p15 + 18, p15 + 19, p15 + 20, p15 + 21, p15 + 22, p15 + 23, p15 + 24, p15 + 25, p15 + 26, p15 + 27, p15 + 28, p15 + 29, p15 + 30, p15 + 31, p15 + 32, p15 + 33, p15 + 34, p15 + 35, p15 + 36, p15 + 37, p15 + 38, p15 + 39, 11};
p16 = newp;
Point(p16 + 1) = {9.826889482973574, 1.251086531269673, 0};
Point(p16 + 2) = {9.79520910910057, 1.383044785279274, 0};
Point(p16 + 3) = {9.743275954326874, 1.508422511870752, 0};
Point(p16 + 4) = {9.672368785279275, 1.624132495310604, 0};
Point(p16 + 5) = {9.584233571787124, 1.727325571787124, 0};
Point(p16 + 6) = {9.481040495310603, 1.815460785279275, 0};
Point(p16 + 7) = {9.365330511870752, 1.886367954326874, 0};
Point(p16 + 8) = {9.239952785279273, 1.93830110910057, 0};
Point(p16 + 9) = {9.107994531269673, 1.969981482973574, 0};
Point(p16 + 10) = {8.972704999999999, 1.980629, 0};
Point(p16 + 11) = {8.837415468730326, 1.969981482973574, 0};
Point(p16 + 12) = {8.705457214720726, 1.93830110910057, 0};
Point(p16 + 13) = {8.580079488129249, 1.886367954326875, 0};
Point(p16 + 14) = {8.464369504689396, 1.815460785279275, 0};
Point(p16 + 15) = {8.361176428212875, 1.727325571787124, 0};
Point(p16 + 16) = {8.273041214720726, 1.624132495310604, 0};
Point(p16 + 17) = {8.202134045673125, 1.508422511870752, 0};
Point(p16 + 18) = {8.150200890899429, 1.383044785279274, 0};
Point(p16 + 19) = {8.118520517026425, 1.251086531269673, 0};
Point(p16 + 20) = {8.107873, 1.115797, 0};
Point(p16 + 21) = {8.118520517026425, 0.9805074687303271, 0};
Point(p16 + 22) = {8.150200890899429, 0.8485492147207252, 0};
Point(p16 + 23) = {8.202134045673125, 0.7231714881292486, 0};
Point(p16 + 24) = {8.273041214720724, 0.6074615046893959, 0};
Point(p16 + 25) = {8.361176428212875, 0.5042684282128757, 0};
Point(p16 + 26) = {8.464369504689396, 0.4161332147207254, 0};
Point(p16 + 27) = {8.580079488129247, 0.3452260456731254, 0};
Point(p16 + 28) = {8.705457214720726, 0.2932928908994297, 0};
Point(p16 + 29) = {8.837415468730326, 0.2616125170264257, 0};
Point(p16 + 30) = {8.972704999999999, 0.2509649999999999, 0};
Point(p16 + 31) = {9.107994531269672, 0.2616125170264257, 0};
Point(p16 + 32) = {9.239952785279273, 0.2932928908994296, 0};
Point(p16 + 33) = {9.36533051187075, 0.3452260456731253, 0};
Point(p16 + 34) = {9.481040495310603, 0.4161332147207253, 0};
Point(p16 + 35) = {9.584233571787124, 0.5042684282128755, 0};
Point(p16 + 36) = {9.672368785279273, 0.6074615046893955, 0};
Point(p16 + 37) = {9.743275954326874, 0.723171488129248, 0};
Point(p16 + 38) = {9.79520910910057, 0.8485492147207252, 0};
Point(p16 + 39) = {9.826889482973574, 0.9805074687303268, 0};
Spline(16) = {12, p16 + 1, p16 + 2, p16 + 3, p16 + 4, p16 + 5, p16 + 6, p16 + 7, p16 + 8, p16 + 9, p16 + 10, p16 + 11, p16 + 12, p16 + 13, p16 + 14, p16 + 15, p16 + 16, p16 + 17, p16 + 18, p16 + 19, p16 + 20, p16 + 21, p16 + 22, p16 + 23, p16 + 24, p16 + 25, p16 + 26, p16 + 27, p16 + 28, p16 + 29, p16 + 30, p16 + 31, p16 + 32, p16 + 33, p16 + 34, p16 + 35, p16 + 36, p16 + 37, p16 + 38, p16 + 39, 12};
Line(17) = {11, 8};
Line(18) = {12, 9};
Curve Loop(1) = {-1, 4, 3, -2};
Plane Surface(1) = {1};
Curve Loop(2) = {-5, 1, 7, -6};
Plane Surface(2) = {2};
Curve Loop(3) = {-2, 7, 9, -8, -10, -11};
Plane Surface(3) = {3};
Curve Loop(4) = {-12, 3, 8, -13};
Plane Surface(4) = {4};
Curve Loop(5) = {-4, 5, 14, -12, -15, -16};
Plane Surface(5) = {5};
Curve Loop(6) = {-6, 14, 13, -9};
Plane Surface(6) = {6};
Curve Loop(7) = {-10, -17, 15, 17};
Surface(7) = {7};
Curve Loop(8) = {-11, -18, 16, 18};
Surface(8) = {8};
Surface Loop(1) = {1, 2, 3, 4, 5, 6, 7, 8};
Volume(1) = {1};
Physical Surface("INFLOW") = {1};
Physical Surface("OUTFLOW") = {6};
Physical Surface("OBSTACLE") = {7, 8};
Physical Surface("WALL_Y") = {2, 4};
Physical Surface("WALL_Z") = {3, 5};
Physical Volume("FLUID") = {1};
