cl__1 = 1.059228;
cl__2 = 1.594893;
cl__3 = 3.663844;
cl__4 = 0.076977;
cl__5 = 0.052626;
Point(1) = {0.154221, -3.962892, 1, cl__1};
Point(2) = {0.154221, -3.962892, 0, cl__1};
Point(3) = {0.154221, 5.386246, 1, cl__2};
Point(4) = {0.154221, 5.386246, 0, cl__2};
Point(5) = {36.339009, -3.962892, 0, cl__1};
Point(6) = {36.339009, -3.962892, 1, cl__1};
Point(7) = {36.339009, 5.386246, 1, cl__3};
Point(8) = {11.9719, -1.309651, 1, cl__4};
Point(9) = {20.684964, -0.8597080000000002, 1, cl__5};
Point(10) = {36.339009, 5.386246, 0, cl__3};
Point(11) = {11.9719, -1.309651, 0, cl__4};
Point(12) = {20.684964, -0.8597080000000002, 0, cl__5};
Line(1) = {2, 1};
Line(2) = {1, 3};
Line(3) = {4, 3};
Line(4) = {2, 4};
Line(5) = {2, 5};
Line(6) = {5, 6};
Line(7) = {1, 6};
Line(8) = {3, 7};
Line(9) = {6, 7};
p10 = newp;
Point(p10 + 1) = {11.96242290318656, -1.189233067583842, 1};
Point(p10 + 2) = {11.93422497032245, -1.071780224307974, 1};
Point(p10 + 3) = {11.88800052809838, -0.9601845489774881, 1};
Point(p10 + 4) = {11.82488777569202, -0.857193897483832, 1};
Point(p10 + 5) = {11.74644075852684, -0.7653442414731561, 1};
Point(p10 + 6) = {11.65459110251617, -0.6868972243079742, 1};
Point(p10 + 7) = {11.55160045102251, -0.6237844719016168, 1};
Point(p10 + 8) = {11.44000477569202, -0.5775600296775448, 1};
Point(p10 + 9) = {11.32255193241616, -0.5493620968134432, 1};
Point(p10 + 10) = {11.202134, -0.5398849999999999, 1};
Point(p10 + 11) = {11.08171606758384, -0.5493620968134432, 1};
Point(p10 + 12) = {10.96426322430797, -0.5775600296775447, 1};
Point(p10 + 13) = {10.85266754897749, -0.6237844719016168, 1};
Point(p10 + 14) = {10.74967689748383, -0.6868972243079742, 1};
Point(p10 + 15) = {10.65782724147316, -0.7653442414731559, 1};
Point(p10 + 16) = {10.57938022430797, -0.857193897483832, 1};
Point(p10 + 17) = {10.51626747190162, -0.9601845489774878, 1};
Point(p10 + 18) = {10.47004302967754, -1.071780224307974, 1};
Point(p10 + 19) = {10.44184509681344, -1.189233067583841, 1};
Point(p10 + 20) = {10.432368, -1.309651, 1};
Point(p10 + 21) = {10.44184509681344, -1.430068932416158, 1};
Point(p10 + 22) = {10.47004302967754, -1.547521775692026, 1};
Point(p10 + 23) = {10.51626747190162, -1.659117451022512, 1};
Point(p10 + 24) = {10.57938022430797, -1.762108102516168, 1};
Point(p10 + 25) = {10.65782724147316, -1.853957758526844, 1};
Point(p10 + 26) = {10.74967689748383, -1.932404775692026, 1};
Point(p10 + 27) = {10.85266754897749, -1.995517528098383, 1};
Point(p10 + 28) = {10.96426322430797, -2.041741970322455, 1};
Point(p10 + 29) = {11.08171606758384, -2.069939903186556, 1};
Point(p10 + 30) = {11.202134, -2.079417, 1};
Point(p10 + 31) = {11.32255193241616, -2.069939903186556, 1};
Point(p10 + 32) = {11.44000477569202, -2.041741970322455, 1};
Point(p10 + 33) = {11.55160045102251, -1.995517528098383, 1};
Point(p10 + 34) = {11.65459110251617, -1.932404775692026, 1};
Point(p10 + 35) = {11.74644075852684, -1.853957758526844, 1};
Point(p10 + 36) = {11.82488777569202, -1.762108102516168, 1};
Point(p10 + 37) = {11.88800052809838, -1.659117451022512, 1};
Point(p10 + 38) = {11.93422497032245, -1.547521775692026, 1};
Point(p10 + 39) = {11.96242290318656, -1.430068932416158, 1};
Spline(10) = {8, p10 + 1, p10 + 2, p10 + 3, p10 + 4, p10 + 5, p10 + 6, p10 + 7, p10 + 8, p10 + 9, p10 + 10, p10 + 11, p10 + 12, p10 + 13, p10 + 14, p10 + 15, p10 + 16, p10 + 17, p10 + 18, p10 + 19, p10 + 20, p10 + 21, p10 + 22, p10 + 23, p10 + 24, p10 + 25, p10 + 26, p10 + 27, p10 + 28, p10 + 29, p10 + 30, p10 + 31, p10 + 32, p10 + 33, p10 + 34, p10 + 35, p10 + 36, p10 + 37, p10 + 38, p10 + 39, 8};
p11 = newp;
Point(p11 + 1) = {20.67848484149828, -0.777382485558998, 1};
Point(p11 + 2) = {20.65920690437852, -0.6970840985062514, 1};
Point(p11 + 3) = {20.62760487543242, -0.6207900516260667, 1};
Point(p11 + 4) = {20.58445690149375, -0.5503789575580585, 1};
Point(p11 + 5) = {20.5308254288808, -0.4875845711192052, 1};
Point(p11 + 6) = {20.46803104244194, -0.4339530985062514, 1};
Point(p11 + 7) = {20.39761994837394, -0.3908051245675812, 1};
Point(p11 + 8) = {20.32132590149375, -0.3592030956214799, 1};
Point(p11 + 9) = {20.241027514441, -0.3399251585017217, 1};
Point(p11 + 10) = {20.158702, -0.333446, 1};
Point(p11 + 11) = {20.076376485559, -0.3399251585017217, 1};
Point(p11 + 12) = {19.99607809850625, -0.3592030956214799, 1};
Point(p11 + 13) = {19.91978405162607, -0.3908051245675812, 1};
Point(p11 + 14) = {19.84937295755806, -0.4339530985062514, 1};
Point(p11 + 15) = {19.78657857111921, -0.4875845711192051, 1};
Point(p11 + 16) = {19.73294709850625, -0.5503789575580584, 1};
Point(p11 + 17) = {19.68979912456758, -0.6207900516260666, 1};
Point(p11 + 18) = {19.65819709562148, -0.6970840985062514, 1};
Point(p11 + 19) = {19.63891915850172, -0.777382485558998, 1};
Point(p11 + 20) = {19.63244, -0.8597079999999999, 1};
Point(p11 + 21) = {19.63891915850172, -0.9420335144410019, 1};
Point(p11 + 22) = {19.65819709562148, -1.022331901493749, 1};
Point(p11 + 23) = {19.68979912456758, -1.098625948373933, 1};
Point(p11 + 24) = {19.73294709850625, -1.169037042441941, 1};
Point(p11 + 25) = {19.78657857111921, -1.231831428880795, 1};
Point(p11 + 26) = {19.84937295755806, -1.285462901493749, 1};
Point(p11 + 27) = {19.91978405162607, -1.328610875432419, 1};
Point(p11 + 28) = {19.99607809850625, -1.36021290437852, 1};
Point(p11 + 29) = {20.076376485559, -1.379490841498278, 1};
Point(p11 + 30) = {20.158702, -1.38597, 1};
Point(p11 + 31) = {20.241027514441, -1.379490841498278, 1};
Point(p11 + 32) = {20.32132590149375, -1.36021290437852, 1};
Point(p11 + 33) = {20.39761994837394, -1.328610875432419, 1};
Point(p11 + 34) = {20.46803104244194, -1.285462901493749, 1};
Point(p11 + 35) = {20.5308254288808, -1.231831428880795, 1};
Point(p11 + 36) = {20.58445690149375, -1.169037042441942, 1};
Point(p11 + 37) = {20.62760487543242, -1.098625948373934, 1};
Point(p11 + 38) = {20.65920690437852, -1.022331901493749, 1};
Point(p11 + 39) = {20.67848484149828, -0.9420335144410021, 1};
Spline(11) = {9, p11 + 1, p11 + 2, p11 + 3, p11 + 4, p11 + 5, p11 + 6, p11 + 7, p11 + 8, p11 + 9, p11 + 10, p11 + 11, p11 + 12, p11 + 13, p11 + 14, p11 + 15, p11 + 16, p11 + 17, p11 + 18, p11 + 19, p11 + 20, p11 + 21, p11 + 22, p11 + 23, p11 + 24, p11 + 25, p11 + 26, p11 + 27, p11 + 28, p11 + 29, p11 + 30, p11 + 31, p11 + 32, p11 + 33, p11 + 34, p11 + 35, p11 + 36, p11 + 37, p11 + 38, p11 + 39, 9};
Line(12) = {4, 10};
Line(13) = {10, 7};
Line(14) = {5, 10};
p15 = newp;
Point(p15 + 1) = {11.96242290318656, -1.189233067583842, 0};
Point(p15 + 2) = {11.93422497032245, -1.071780224307974, 0};
Point(p15 + 3) = {11.88800052809838, -0.9601845489774881, 0};
Point(p15 + 4) = {11.82488777569202, -0.857193897483832, 0};
Point(p15 + 5) = {11.74644075852684, -0.7653442414731561, 0};
Point(p15 + 6) = {11.65459110251617, -0.6868972243079742, 0};
Point(p15 + 7) = {11.55160045102251, -0.6237844719016168, 0};
Point(p15 + 8) = {11.44000477569202, -0.5775600296775448, 0};
Point(p15 + 9) = {11.32255193241616, -0.5493620968134432, 0};
Point(p15 + 10) = {11.202134, -0.5398849999999999, 0};
Point(p15 + 11) = {11.08171606758384, -0.5493620968134432, 0};
Point(p15 + 12) = {10.96426322430797, -0.5775600296775447, 0};
Point(p15 + 13) = {10.85266754897749, -0.6237844719016168, 0};
Point(p15 + 14) = {10.74967689748383, -0.6868972243079742, 0};
Point(p15 + 15) = {10.65782724147316, -0.7653442414731559, 0};
Point(p15 + 16) = {10.57938022430797, -0.857193897483832, 0};
Point(p15 + 17) = {10.51626747190162, -0.9601845489774878, 0};
Point(p15 + 18) = {10.47004302967754, -1.071780224307974, 0};
Point(p15 + 19) = {10.44184509681344, -1.189233067583841, 0};
Point(p15 + 20) = {10.432368, -1.309651, 0};
Point(p15 + 21) = {10.44184509681344, -1.430068932416158, 0};
Point(p15 + 22) = {10.47004302967754, -1.547521775692026, 0};
Point(p15 + 23) = {10.51626747190162, -1.659117451022512, 0};
Point(p15 + 24) = {10.57938022430797, -1.762108102516168, 0};
Point(p15 + 25) = {10.65782724147316, -1.853957758526844, 0};
Point(p15 + 26) = {10.74967689748383, -1.932404775692026, 0};
Point(p15 + 27) = {10.85266754897749, -1.995517528098383, 0};
Point(p15 + 28) = {10.96426322430797, -2.041741970322455, 0};
Point(p15 + 29) = {11.08171606758384, -2.069939903186556, 0};
Point(p15 + 30) = {11.202134, -2.079417, 0};
Point(p15 + 31) = {11.32255193241616, -2.069939903186556, 0};
Point(p15 + 32) = {11.44000477569202, -2.041741970322455, 0};
Point(p15 + 33) = {11.55160045102251, -1.995517528098383, 0};
Point(p15 + 34) = {11.65459110251617, -1.932404775692026, 0};
Point(p15 + 35) = {11.74644075852684, -1.853957758526844, 0};
Point(p15 + 36) = {11.82488777569202, -1.762108102516168, 0};
Point(p15 + 37) = {11.88800052809838, -1.659117451022512, 0};
Point(p15 + 38) = {11.93422497032245, -1.547521775692026, 0};
Point(p15 + 39) = {11.96242290318656, -1.430068932416158, 0};
Spline(15) = {11, p15 + 1, p15 + 2, p15 + 3, p15 + 4, p15 + 5, p15 + 6, p15 + 7, p15 + 8, p15 + 9, p15 + 10, p15 + 11, p15 + 12, p15 + 13, p15 + 14, p15 + 15, p15 + 16, p15 + 17, p15 + 18, p15 + 19, p15 + 20, p15 + 21, p15 + 22, p15 + 23, p15 + 24, p15 + 25, p15 + 26, p15 + 27, p15 + 28, p15 + 29, p15 + 30, p15 + 31, p15 + 32, p15 + 33, p15 + 34, p15 + 35, p15 + 36, p15 + 37, p15 + 38, p15 + 39, 11};
p16 = newp;
Point(p16 + 1) = {20.67848484149828, -0.777382485558998, 0};
Point(p16 + 2) = {20.65920690437852, -0.6970840985062514, 0};
Point(p16 + 3) = {20.62760487543242, -0.6207900516260667, 0};
Point(p16 + 4) = {20.58445690149375, -0.5503789575580585, 0};
Point(p16 + 5) = {20.5308254288808, -0.4875845711192052, 0};
Point(p16 + 6) = {20.46803104244194, -0.4339530985062514, 0};
Point(p16 + 7) = {20.39761994837394, -0.3908051245675812, 0};
Point(p16 + 8) = {20.32132590149375, -0.3592030956214799, 0};
Point(p16 + 9) = {20.241027514441, -0.3399251585017217, 0};
Point(p16 + 10) = {20.158702, -0.333446, 0};
Point(p16 + 11) = {20.076376485559, -0.3399251585017217, 0};
Point(p16 + 12) = {19.99607809850625, -0.3592030956214799, 0};
Point(p16 + 13) = {19.91978405162607, -0.3908051245675812, 0};
Point(p16 + 14) = {19.84937295755806, -0.4339530985062514, 0};
Point(p16 + 15) = {19.78657857111921, -0.4875845711192051, 0};
Point(p16 + 16) = {19.73294709850625, -0.5503789575580584, 0};
Point(p16 + 17) = {19.68979912456758, -0.6207900516260666, 0};
Point(p16 + 18) = {19.65819709562148, -0.6970840985062514, 0};
Point(p16 + 19) = {19.63891915850172, -0.777382485558998, 0};
Point(p16 + 20) = {19.63244, -0.8597079999999999, 0};
Point(p16 + 21) = {19.63891915850172, -0.9420335144410019, 0};
Point(p16 + 22) = {19.65819709562148, -1.022331901493749, 0};
Point(p16 + 23) = {19.68979912456758, -1.098625948373933, 0};
Point(p16 + 24) = {19.73294709850625, -1.169037042441941, 0};
Point(p16 + 25) = {19.78657857111921, -1.231831428880795, 0};
Point(p16 + 26) = {19.84937295755806, -1.285462901493749, 0};
Point(p16 + 27) = {19.91978405162607, -1.328610875432419, 0};
Point(p16 + 28) = {19.99607809850625, -1.36021290437852, 0};
Point(p16 + 29) = {20.076376485559, -1.379490841498278, 0};
Point(p16 + 30) = {20.158702, -1.38597, 0};
Point(p16 + 31) = {20.241027514441, -1.379490841498278, 0};
Point(p16 + 32) = {20.32132590149375, -1.36021290437852, 0};
Point(p16 + 33) = {20.39761994837394, -1.328610875432419, 0};
Point(p16 + 34) = {20.46803104244194, -1.285462901493749, 0};
Point(p16 + 35) = {20.5308254288808, -1.231831428880795, 0};
Point(p16 + 36) = {20.58445690149375, -1.169037042441942, 0};
Point(p16 + 37) = {20.62760487543242, -1.098625948373934, 0};
Point(p16 + 38) = {20.65920690437852, -1.022331901493749, 0};
Point(p16 + 39) = {20.67848484149828, -0.9420335144410021, 0};
Spline(16) = {12, p16 + 1, p16 + 2, p16 + 3, p16 + 4, p16 + 5, p16 + 6, p16 + 7, p16 + 8, p16 + 9, p16 + 10, p16 + 11, p16 + 12, p16 + 13, p16 + 14, p16 + 15, p16 + 16, p16 + 17, p16 + 18, p16 + 19, p16 + 20, p16 + 21, p16 + 22, p16 + 23, p16 + 24, p16 + 25, p16 + 26, p16 + 27, p16 + 28, p16 + 29, p16 + 30, p16 + 31, p16 + 32, p16 + 33, p16 + 34, p16 + 35, p16 + 36, p16 + 37, p16 + 38, p16 + 39, 12};
Line(17) = {11, 8};
Line(18) = {12, 9};
Curve Loop(1) = {-1, 4, 3, -2};
Plane Surface(1) = {1};
Curve Loop(2) = {-5, 1, 7, -6};
Plane Surface(2) = {2};
Curve Loop(3) = {-2, 7, 9, -8, -10, -11};
Plane Surface(3) = {3};
Curve Loop(4) = {-12, 3, 8, -13};
Plane Surface(4) = {4};
Curve Loop(5) = {-4, 5, 14, -12, -15, -16};
Plane Surface(5) = {5};
Curve Loop(6) = {-6, 14, 13, -9};
Plane Surface(6) = {6};
Curve Loop(7) = {-10, -17, 15, 17};
Surface(7) = {7};
Curve Loop(8) = {-11, -18, 16, 18};
Surface(8) = {8};
Surface Loop(1) = {1, 2, 3, 4, 5, 6, 7, 8};
Volume(1) = {1};
Physical Surface("INFLOW") = {1};
Physical Surface("OUTFLOW") = {6};
Physical Surface("OBSTACLE") = {7, 8};
Physical Surface("WALL_Y") = {2, 4};
Physical Surface("WALL_Z") = {3, 5};
Physical Volume("FLUID") = {1};
