cl__1 = 0.865385;
cl__2 = 1.446053;
cl__3 = 3.862587;
cl__4 = 0.108232;
cl__5 = 0.087224;
Point(1) = {0.139793, -4.966252, 1, cl__1};
Point(2) = {0.139793, -4.966252, 0, cl__1};
Point(3) = {0.139793, 4.990165999999999, 1, cl__2};
Point(4) = {0.139793, 4.990165999999999, 0, cl__2};
Point(5) = {38.303723, -4.966252, 0, cl__1};
Point(6) = {38.303723, -4.966252, 1, cl__1};
Point(7) = {38.303723, 4.990165999999999, 1, cl__3};
Point(8) = {25.225067, 1.440545, 1, cl__4};
Point(9) = {5.879119999999999, 3.222628, 1, cl__5};
Point(10) = {38.303723, 4.990165999999999, 0, cl__3};
Point(11) = {25.225067, 1.440545, 0, cl__4};
Point(12) = {5.879119999999999, 3.222628, 0, cl__5};
Line(1) = {2, 1};
Line(2) = {1, 3};
Line(3) = {4, 3};
Line(4) = {2, 4};
Line(5) = {2, 5};
Line(6) = {5, 6};
Line(7) = {1, 6};
Line(8) = {3, 7};
Line(9) = {6, 7};
p10 = newp;
Point(p10 + 1) = {25.21174179554629, 1.609857775940203, 1};
Point(p10 + 2) = {25.17209429294264, 1.775001509419871, 1};
Point(p10 + 3) = {25.10710074528565, 1.931909813640105, 1};
Point(p10 + 4) = {25.01836150941987, 2.076719085402199, 1};
Point(p10 + 5) = {24.90806163984095, 2.205863639840949, 1};
Point(p10 + 6) = {24.7789170854022, 2.316163509419871, 1};
Point(p10 + 7) = {24.6341078136401, 2.404902745285651, 1};
Point(p10 + 8) = {24.47719950941987, 2.469896292942636, 1};
Point(p10 + 9) = {24.3120557759402, 2.509543795546292, 1};
Point(p10 + 10) = {24.142743, 2.522869, 1};
Point(p10 + 11) = {23.9734302240598, 2.509543795546292, 1};
Point(p10 + 12) = {23.80828649058013, 2.469896292942636, 1};
Point(p10 + 13) = {23.6513781863599, 2.404902745285651, 1};
Point(p10 + 14) = {23.5065689145978, 2.316163509419871, 1};
Point(p10 + 15) = {23.37742436015905, 2.205863639840949, 1};
Point(p10 + 16) = {23.26712449058013, 2.076719085402199, 1};
Point(p10 + 17) = {23.17838525471435, 1.931909813640105, 1};
Point(p10 + 18) = {23.11339170705736, 1.775001509419871, 1};
Point(p10 + 19) = {23.07374420445371, 1.609857775940203, 1};
Point(p10 + 20) = {23.060419, 1.440545, 1};
Point(p10 + 21) = {23.07374420445371, 1.271232224059797, 1};
Point(p10 + 22) = {23.11339170705736, 1.106088490580129, 1};
Point(p10 + 23) = {23.17838525471435, 0.9491801863598952, 1};
Point(p10 + 24) = {23.26712449058013, 0.8043709145978013, 1};
Point(p10 + 25) = {23.37742436015905, 0.6752263601590511, 1};
Point(p10 + 26) = {23.5065689145978, 0.5649264905801294, 1};
Point(p10 + 27) = {23.65137818635989, 0.476187254714349, 1};
Point(p10 + 28) = {23.80828649058013, 0.4111937070573641, 1};
Point(p10 + 29) = {23.9734302240598, 0.3715462044537081, 1};
Point(p10 + 30) = {24.142743, 0.3582209999999999, 1};
Point(p10 + 31) = {24.3120557759402, 0.3715462044537081, 1};
Point(p10 + 32) = {24.47719950941987, 0.4111937070573641, 1};
Point(p10 + 33) = {24.6341078136401, 0.4761872547143489, 1};
Point(p10 + 34) = {24.7789170854022, 0.5649264905801291, 1};
Point(p10 + 35) = {24.90806163984095, 0.6752263601590509, 1};
Point(p10 + 36) = {25.01836150941987, 0.804370914597801, 1};
Point(p10 + 37) = {25.10710074528565, 0.9491801863598945, 1};
Point(p10 + 38) = {25.17209429294264, 1.106088490580129, 1};
Point(p10 + 39) = {25.21174179554629, 1.271232224059797, 1};
Spline(10) = {8, p10 + 1, p10 + 2, p10 + 3, p10 + 4, p10 + 5, p10 + 6, p10 + 7, p10 + 8, p10 + 9, p10 + 10, p10 + 11, p10 + 12, p10 + 13, p10 + 14, p10 + 15, p10 + 16, p10 + 17, p10 + 18, p10 + 19, p10 + 20, p10 + 21, p10 + 22, p10 + 23, p10 + 24, p10 + 25, p10 + 26, p10 + 27, p10 + 28, p10 + 29, p10 + 30, p10 + 31, p10 + 32, p10 + 33, p10 + 34, p10 + 35, p10 + 36, p10 + 37, p10 + 38, p10 + 39, 8};
p11 = newp;
Point(p11 + 1) = {5.868381278200703, 3.359076397786691, 1};
Point(p11 + 2) = {5.836429535773284, 3.492164983173604, 1};
Point(p11 + 3) = {5.784051530658061, 3.618616673492822, 1};
Point(p11 + 4) = {5.712536983173604, 3.735317808459587, 1};
Point(p11 + 5) = {5.623646818822154, 3.839394818822154, 1};
Point(p11 + 6) = {5.519569808459586, 3.928284983173604, 1};
Point(p11 + 7) = {5.402868673492822, 3.999799530658062, 1};
Point(p11 + 8) = {5.276416983173604, 4.052177535773285, 1};
Point(p11 + 9) = {5.143328397786691, 4.084129278200702, 1};
Point(p11 + 10) = {5.00688, 4.094868, 1};
Point(p11 + 11) = {4.870431602213309, 4.084129278200702, 1};
Point(p11 + 12) = {4.737343016826395, 4.052177535773285, 1};
Point(p11 + 13) = {4.610891326507177, 3.999799530658062, 1};
Point(p11 + 14) = {4.494190191540413, 3.928284983173604, 1};
Point(p11 + 15) = {4.390113181177846, 3.839394818822154, 1};
Point(p11 + 16) = {4.301223016826396, 3.735317808459587, 1};
Point(p11 + 17) = {4.229708469341938, 3.618616673492822, 1};
Point(p11 + 18) = {4.177330464226715, 3.492164983173604, 1};
Point(p11 + 19) = {4.145378721799297, 3.359076397786691, 1};
Point(p11 + 20) = {4.13464, 3.222628, 1};
Point(p11 + 21) = {4.145378721799297, 3.086179602213309, 1};
Point(p11 + 22) = {4.177330464226715, 2.953091016826396, 1};
Point(p11 + 23) = {4.229708469341937, 2.826639326507178, 1};
Point(p11 + 24) = {4.301223016826396, 2.709938191540413, 1};
Point(p11 + 25) = {4.390113181177846, 2.605861181177846, 1};
Point(p11 + 26) = {4.494190191540413, 2.516971016826396, 1};
Point(p11 + 27) = {4.610891326507177, 2.445456469341938, 1};
Point(p11 + 28) = {4.737343016826395, 2.393078464226715, 1};
Point(p11 + 29) = {4.870431602213309, 2.361126721799297, 1};
Point(p11 + 30) = {5.00688, 2.350388, 1};
Point(p11 + 31) = {5.14332839778669, 2.361126721799297, 1};
Point(p11 + 32) = {5.276416983173604, 2.393078464226715, 1};
Point(p11 + 33) = {5.402868673492822, 2.445456469341938, 1};
Point(p11 + 34) = {5.519569808459586, 2.516971016826396, 1};
Point(p11 + 35) = {5.623646818822154, 2.605861181177846, 1};
Point(p11 + 36) = {5.712536983173604, 2.709938191540413, 1};
Point(p11 + 37) = {5.784051530658061, 2.826639326507177, 1};
Point(p11 + 38) = {5.836429535773284, 2.953091016826396, 1};
Point(p11 + 39) = {5.868381278200703, 3.086179602213309, 1};
Spline(11) = {9, p11 + 1, p11 + 2, p11 + 3, p11 + 4, p11 + 5, p11 + 6, p11 + 7, p11 + 8, p11 + 9, p11 + 10, p11 + 11, p11 + 12, p11 + 13, p11 + 14, p11 + 15, p11 + 16, p11 + 17, p11 + 18, p11 + 19, p11 + 20, p11 + 21, p11 + 22, p11 + 23, p11 + 24, p11 + 25, p11 + 26, p11 + 27, p11 + 28, p11 + 29, p11 + 30, p11 + 31, p11 + 32, p11 + 33, p11 + 34, p11 + 35, p11 + 36, p11 + 37, p11 + 38, p11 + 39, 9};
Line(12) = {4, 10};
Line(13) = {10, 7};
Line(14) = {5, 10};
p15 = newp;
Point(p15 + 1) = {25.21174179554629, 1.609857775940203, 0};
Point(p15 + 2) = {25.17209429294264, 1.775001509419871, 0};
Point(p15 + 3) = {25.10710074528565, 1.931909813640105, 0};
Point(p15 + 4) = {25.01836150941987, 2.076719085402199, 0};
Point(p15 + 5) = {24.90806163984095, 2.205863639840949, 0};
Point(p15 + 6) = {24.7789170854022, 2.316163509419871, 0};
Point(p15 + 7) = {24.6341078136401, 2.404902745285651, 0};
Point(p15 + 8) = {24.47719950941987, 2.469896292942636, 0};
Point(p15 + 9) = {24.3120557759402, 2.509543795546292, 0};
Point(p15 + 10) = {24.142743, 2.522869, 0};
Point(p15 + 11) = {23.9734302240598, 2.509543795546292, 0};
Point(p15 + 12) = {23.80828649058013, 2.469896292942636, 0};
Point(p15 + 13) = {23.6513781863599, 2.404902745285651, 0};
Point(p15 + 14) = {23.5065689145978, 2.316163509419871, 0};
Point(p15 + 15) = {23.37742436015905, 2.205863639840949, 0};
Point(p15 + 16) = {23.26712449058013, 2.076719085402199, 0};
Point(p15 + 17) = {23.17838525471435, 1.931909813640105, 0};
Point(p15 + 18) = {23.11339170705736, 1.775001509419871, 0};
Point(p15 + 19) = {23.07374420445371, 1.609857775940203, 0};
Point(p15 + 20) = {23.060419, 1.440545, 0};
Point(p15 + 21) = {23.07374420445371, 1.271232224059797, 0};
Point(p15 + 22) = {23.11339170705736, 1.106088490580129, 0};
Point(p15 + 23) = {23.17838525471435, 0.9491801863598952, 0};
Point(p15 + 24) = {23.26712449058013, 0.8043709145978013, 0};
Point(p15 + 25) = {23.37742436015905, 0.6752263601590511, 0};
Point(p15 + 26) = {23.5065689145978, 0.5649264905801294, 0};
Point(p15 + 27) = {23.65137818635989, 0.476187254714349, 0};
Point(p15 + 28) = {23.80828649058013, 0.4111937070573641, 0};
Point(p15 + 29) = {23.9734302240598, 0.3715462044537081, 0};
Point(p15 + 30) = {24.142743, 0.3582209999999999, 0};
Point(p15 + 31) = {24.3120557759402, 0.3715462044537081, 0};
Point(p15 + 32) = {24.47719950941987, 0.4111937070573641, 0};
Point(p15 + 33) = {24.6341078136401, 0.4761872547143489, 0};
Point(p15 + 34) = {24.7789170854022, 0.5649264905801291, 0};
Point(p15 + 35) = {24.90806163984095, 0.6752263601590509, 0};
Point(p15 + 36) = {25.01836150941987, 0.804370914597801, 0};
Point(p15 + 37) = {25.10710074528565, 0.9491801863598945, 0};
Point(p15 + 38) = {25.17209429294264, 1.106088490580129, 0};
Point(p15 + 39) = {25.21174179554629, 1.271232224059797, 0};
Spline(15) = {11, p15 + 1, p15 + 2, p15 + 3, p15 + 4, p15 + 5, p15 + 6, p15 + 7, p15 + 8, p15 + 9, p15 + 10, p15 + 11, p15 + 12, p15 + 13, p15 + 14, p15 + 15, p15 + 16, p15 + 17, p15 + 18, p15 + 19, p15 + 20, p15 + 21, p15 + 22, p15 + 23, p15 + 24, p15 + 25, p15 + 26, p15 + 27, p15 + 28, p15 + 29, p15 + 30, p15 + 31, p15 + 32, p15 + 33, p15 + 34, p15 + 35, p15 + 36, p15 + 37, p15 + 38, p15 + 39, 11};
p16 = newp;
Point(p16 + 1) = {5.868381278200703, 3.359076397786691, 0};
Point(p16 + 2) = {5.836429535773284, 3.492164983173604, 0};
Point(p16 + 3) = {5.784051530658061, 3.618616673492822, 0};
Point(p16 + 4) = {5.712536983173604, 3.735317808459587, 0};
Point(p16 + 5) = {5.623646818822154, 3.839394818822154, 0};
Point(p16 + 6) = {5.519569808459586, 3.928284983173604, 0};
Point(p16 + 7) = {5.402868673492822, 3.999799530658062, 0};
Point(p16 + 8) = {5.276416983173604, 4.052177535773285, 0};
Point(p16 + 9) = {5.143328397786691, 4.084129278200702, 0};
Point(p16 + 10) = {5.00688, 4.094868, 0};
Point(p16 + 11) = {4.870431602213309, 4.084129278200702, 0};
Point(p16 + 12) = {4.737343016826395, 4.052177535773285, 0};
Point(p16 + 13) = {4.610891326507177, 3.999799530658062, 0};
Point(p16 + 14) = {4.494190191540413, 3.928284983173604, 0};
Point(p16 + 15) = {4.390113181177846, 3.839394818822154, 0};
Point(p16 + 16) = {4.301223016826396, 3.735317808459587, 0};
Point(p16 + 17) = {4.229708469341938, 3.618616673492822, 0};
Point(p16 + 18) = {4.177330464226715, 3.492164983173604, 0};
Point(p16 + 19) = {4.145378721799297, 3.359076397786691, 0};
Point(p16 + 20) = {4.13464, 3.222628, 0};
Point(p16 + 21) = {4.145378721799297, 3.086179602213309, 0};
Point(p16 + 22) = {4.177330464226715, 2.953091016826396, 0};
Point(p16 + 23) = {4.229708469341937, 2.826639326507178, 0};
Point(p16 + 24) = {4.301223016826396, 2.709938191540413, 0};
Point(p16 + 25) = {4.390113181177846, 2.605861181177846, 0};
Point(p16 + 26) = {4.494190191540413, 2.516971016826396, 0};
Point(p16 + 27) = {4.610891326507177, 2.445456469341938, 0};
Point(p16 + 28) = {4.737343016826395, 2.393078464226715, 0};
Point(p16 + 29) = {4.870431602213309, 2.361126721799297, 0};
Point(p16 + 30) = {5.00688, 2.350388, 0};
Point(p16 + 31) = {5.14332839778669, 2.361126721799297, 0};
Point(p16 + 32) = {5.276416983173604, 2.393078464226715, 0};
Point(p16 + 33) = {5.402868673492822, 2.445456469341938, 0};
Point(p16 + 34) = {5.519569808459586, 2.516971016826396, 0};
Point(p16 + 35) = {5.623646818822154, 2.605861181177846, 0};
Point(p16 + 36) = {5.712536983173604, 2.709938191540413, 0};
Point(p16 + 37) = {5.784051530658061, 2.826639326507177, 0};
Point(p16 + 38) = {5.836429535773284, 2.953091016826396, 0};
Point(p16 + 39) = {5.868381278200703, 3.086179602213309, 0};
Spline(16) = {12, p16 + 1, p16 + 2, p16 + 3, p16 + 4, p16 + 5, p16 + 6, p16 + 7, p16 + 8, p16 + 9, p16 + 10, p16 + 11, p16 + 12, p16 + 13, p16 + 14, p16 + 15, p16 + 16, p16 + 17, p16 + 18, p16 + 19, p16 + 20, p16 + 21, p16 + 22, p16 + 23, p16 + 24, p16 + 25, p16 + 26, p16 + 27, p16 + 28, p16 + 29, p16 + 30, p16 + 31, p16 + 32, p16 + 33, p16 + 34, p16 + 35, p16 + 36, p16 + 37, p16 + 38, p16 + 39, 12};
Line(17) = {11, 8};
Line(18) = {12, 9};
Curve Loop(1) = {-1, 4, 3, -2};
Plane Surface(1) = {1};
Curve Loop(2) = {-5, 1, 7, -6};
Plane Surface(2) = {2};
Curve Loop(3) = {-2, 7, 9, -8, -10, -11};
Plane Surface(3) = {3};
Curve Loop(4) = {-12, 3, 8, -13};
Plane Surface(4) = {4};
Curve Loop(5) = {-4, 5, 14, -12, -15, -16};
Plane Surface(5) = {5};
Curve Loop(6) = {-6, 14, 13, -9};
Plane Surface(6) = {6};
Curve Loop(7) = {-10, -17, 15, 17};
Surface(7) = {7};
Curve Loop(8) = {-11, -18, 16, 18};
Surface(8) = {8};
Surface Loop(1) = {1, 2, 3, 4, 5, 6, 7, 8};
Volume(1) = {1};
Physical Surface("INFLOW") = {1};
Physical Surface("OUTFLOW") = {6};
Physical Surface("OBSTACLE") = {7, 8};
Physical Surface("WALL_Y") = {2, 4};
Physical Surface("WALL_Z") = {3, 5};
Physical Volume("FLUID") = {1};
