cl__1 = 3.48245;
cl__2 = 1.122889;
cl__3 = 1.310972;
cl__4 = 0.097563;
Point(1) = {0.791818, -3.866393, 1, cl__1};
Point(2) = {0.791818, -3.866393, 0, cl__1};
Point(3) = {0.791818, 5.658147, 1, cl__1};
Point(4) = {0.791818, 5.658147, 0, cl__1};
Point(5) = {34.497337, -3.866393, 0, cl__2};
Point(6) = {34.497337, -3.866393, 1, cl__2};
Point(7) = {34.497337, 5.658147, 1, cl__3};
Point(8) = {23.462285, -1.699875, 1, cl__4};
Point(9) = {34.497337, 5.658147, 0, cl__3};
Point(10) = {23.462285, -1.699875, 0, cl__4};
Line(1) = {2, 1};
Line(2) = {1, 3};
Line(3) = {4, 3};
Line(4) = {2, 4};
Line(5) = {2, 5};
Line(6) = {5, 6};
Line(7) = {1, 6};
Line(8) = {3, 7};
Line(9) = {6, 7};
p10 = newp;
Point(p10 + 1) = {23.45027338804649, -1.547252999307265, 1};
Point(p10 + 2) = {23.41453431793652, -1.398389058794965, 1};
Point(p10 + 3) = {23.35594780418737, -1.256948702729606, 1};
Point(p10 + 4) = {23.27595644120504, -1.126414662091147, 1};
Point(p10 + 5) = {23.17652988182225, -1.01000111817775, 1};
Point(p10 + 6) = {23.06011633790885, -0.9105745587949644, 1};
Point(p10 + 7) = {22.92958229727039, -0.830583195812627, 1};
Point(p10 + 8) = {22.78814194120504, -0.7719966820634757, 1};
Point(p10 + 9) = {22.63927800069273, -0.7362576119535064, 1};
Point(p10 + 10) = {22.486656, -0.7242460000000001, 1};
Point(p10 + 11) = {22.33403399930727, -0.7362576119535065, 1};
Point(p10 + 12) = {22.18517005879496, -0.7719966820634756, 1};
Point(p10 + 13) = {22.04372970272961, -0.8305831958126269, 1};
Point(p10 + 14) = {21.91319566209115, -0.9105745587949644, 1};
Point(p10 + 15) = {21.79678211817775, -1.01000111817775, 1};
Point(p10 + 16) = {21.69735555879496, -1.126414662091147, 1};
Point(p10 + 17) = {21.61736419581263, -1.256948702729606, 1};
Point(p10 + 18) = {21.55877768206348, -1.398389058794964, 1};
Point(p10 + 19) = {21.52303861195351, -1.547252999307265, 1};
Point(p10 + 20) = {21.511027, -1.699875, 1};
Point(p10 + 21) = {21.52303861195351, -1.852497000692735, 1};
Point(p10 + 22) = {21.55877768206348, -2.001360941205036, 1};
Point(p10 + 23) = {21.61736419581263, -2.142801297270394, 1};
Point(p10 + 24) = {21.69735555879496, -2.273335337908853, 1};
Point(p10 + 25) = {21.79678211817775, -2.38974888182225, 1};
Point(p10 + 26) = {21.91319566209115, -2.489175441205036, 1};
Point(p10 + 27) = {22.04372970272961, -2.569166804187373, 1};
Point(p10 + 28) = {22.18517005879496, -2.627753317936524, 1};
Point(p10 + 29) = {22.33403399930727, -2.663492388046493, 1};
Point(p10 + 30) = {22.486656, -2.675504, 1};
Point(p10 + 31) = {22.63927800069273, -2.663492388046494, 1};
Point(p10 + 32) = {22.78814194120504, -2.627753317936524, 1};
Point(p10 + 33) = {22.92958229727039, -2.569166804187373, 1};
Point(p10 + 34) = {23.06011633790885, -2.489175441205036, 1};
Point(p10 + 35) = {23.17652988182225, -2.38974888182225, 1};
Point(p10 + 36) = {23.27595644120504, -2.273335337908853, 1};
Point(p10 + 37) = {23.35594780418737, -2.142801297270394, 1};
Point(p10 + 38) = {23.41453431793652, -2.001360941205036, 1};
Point(p10 + 39) = {23.45027338804649, -1.852497000692736, 1};
Spline(10) = {8, p10 + 1, p10 + 2, p10 + 3, p10 + 4, p10 + 5, p10 + 6, p10 + 7, p10 + 8, p10 + 9, p10 + 10, p10 + 11, p10 + 12, p10 + 13, p10 + 14, p10 + 15, p10 + 16, p10 + 17, p10 + 18, p10 + 19, p10 + 20, p10 + 21, p10 + 22, p10 + 23, p10 + 24, p10 + 25, p10 + 26, p10 + 27, p10 + 28, p10 + 29, p10 + 30, p10 + 31, p10 + 32, p10 + 33, p10 + 34, p10 + 35, p10 + 36, p10 + 37, p10 + 38, p10 + 39, 8};
Line(11) = {4, 9};
Line(12) = {9, 7};
Line(13) = {5, 9};
p14 = newp;
Point(p14 + 1) = {23.45027338804649, -1.547252999307265, 0};
Point(p14 + 2) = {23.41453431793652, -1.398389058794965, 0};
Point(p14 + 3) = {23.35594780418737, -1.256948702729606, 0};
Point(p14 + 4) = {23.27595644120504, -1.126414662091147, 0};
Point(p14 + 5) = {23.17652988182225, -1.01000111817775, 0};
Point(p14 + 6) = {23.06011633790885, -0.9105745587949644, 0};
Point(p14 + 7) = {22.92958229727039, -0.830583195812627, 0};
Point(p14 + 8) = {22.78814194120504, -0.7719966820634757, 0};
Point(p14 + 9) = {22.63927800069273, -0.7362576119535064, 0};
Point(p14 + 10) = {22.486656, -0.7242460000000001, 0};
Point(p14 + 11) = {22.33403399930727, -0.7362576119535065, 0};
Point(p14 + 12) = {22.18517005879496, -0.7719966820634756, 0};
Point(p14 + 13) = {22.04372970272961, -0.8305831958126269, 0};
Point(p14 + 14) = {21.91319566209115, -0.9105745587949644, 0};
Point(p14 + 15) = {21.79678211817775, -1.01000111817775, 0};
Point(p14 + 16) = {21.69735555879496, -1.126414662091147, 0};
Point(p14 + 17) = {21.61736419581263, -1.256948702729606, 0};
Point(p14 + 18) = {21.55877768206348, -1.398389058794964, 0};
Point(p14 + 19) = {21.52303861195351, -1.547252999307265, 0};
Point(p14 + 20) = {21.511027, -1.699875, 0};
Point(p14 + 21) = {21.52303861195351, -1.852497000692735, 0};
Point(p14 + 22) = {21.55877768206348, -2.001360941205036, 0};
Point(p14 + 23) = {21.61736419581263, -2.142801297270394, 0};
Point(p14 + 24) = {21.69735555879496, -2.273335337908853, 0};
Point(p14 + 25) = {21.79678211817775, -2.38974888182225, 0};
Point(p14 + 26) = {21.91319566209115, -2.489175441205036, 0};
Point(p14 + 27) = {22.04372970272961, -2.569166804187373, 0};
Point(p14 + 28) = {22.18517005879496, -2.627753317936524, 0};
Point(p14 + 29) = {22.33403399930727, -2.663492388046493, 0};
Point(p14 + 30) = {22.486656, -2.675504, 0};
Point(p14 + 31) = {22.63927800069273, -2.663492388046494, 0};
Point(p14 + 32) = {22.78814194120504, -2.627753317936524, 0};
Point(p14 + 33) = {22.92958229727039, -2.569166804187373, 0};
Point(p14 + 34) = {23.06011633790885, -2.489175441205036, 0};
Point(p14 + 35) = {23.17652988182225, -2.38974888182225, 0};
Point(p14 + 36) = {23.27595644120504, -2.273335337908853, 0};
Point(p14 + 37) = {23.35594780418737, -2.142801297270394, 0};
Point(p14 + 38) = {23.41453431793652, -2.001360941205036, 0};
Point(p14 + 39) = {23.45027338804649, -1.852497000692736, 0};
Spline(14) = {10, p14 + 1, p14 + 2, p14 + 3, p14 + 4, p14 + 5, p14 + 6, p14 + 7, p14 + 8, p14 + 9, p14 + 10, p14 + 11, p14 + 12, p14 + 13, p14 + 14, p14 + 15, p14 + 16, p14 + 17, p14 + 18, p14 + 19, p14 + 20, p14 + 21, p14 + 22, p14 + 23, p14 + 24, p14 + 25, p14 + 26, p14 + 27, p14 + 28, p14 + 29, p14 + 30, p14 + 31, p14 + 32, p14 + 33, p14 + 34, p14 + 35, p14 + 36, p14 + 37, p14 + 38, p14 + 39, 10};
Line(15) = {10, 8};
Curve Loop(1) = {-1, 4, 3, -2};
Plane Surface(1) = {1};
Curve Loop(2) = {-5, 1, 7, -6};
Plane Surface(2) = {2};
Curve Loop(3) = {-2, 7, 9, -8, -10};
Plane Surface(3) = {3};
Curve Loop(4) = {-11, 3, 8, -12};
Plane Surface(4) = {4};
Curve Loop(5) = {-4, 5, 13, -11, -14};
Plane Surface(5) = {5};
Curve Loop(6) = {-6, 13, 12, -9};
Plane Surface(6) = {6};
Curve Loop(7) = {-10, -15, 14, 15};
Surface(7) = {7};
Surface Loop(1) = {1, 2, 3, 4, 5, 6, 7};
Volume(1) = {1};
Physical Surface("INFLOW") = {1};
Physical Surface("OUTFLOW") = {6};
Physical Surface("OBSTACLE") = {7};
Physical Surface("WALL_Y") = {2, 4};
Physical Surface("WALL_Z") = {3, 5};
Physical Volume("FLUID") = {1};
