cl__1 = 3.79145;
cl__2 = 1.359069;
cl__3 = 1.513558;
cl__4 = 0.057748;
Point(1) = {0.24724, -3.763963, 1, cl__1};
Point(2) = {0.24724, -3.763963, 0, cl__1};
Point(3) = {0.24724, 5.039287, 1, cl__1};
Point(4) = {0.24724, 5.039287, 0, cl__1};
Point(5) = {37.658137, -3.763963, 0, cl__2};
Point(6) = {37.658137, -3.763963, 1, cl__2};
Point(7) = {37.658137, 5.039287, 1, cl__3};
Point(8) = {24.179661, -1.984275, 1, cl__4};
Point(9) = {37.658137, 5.039287, 0, cl__3};
Point(10) = {24.179661, -1.984275, 0, cl__4};
Line(1) = {2, 1};
Line(2) = {1, 3};
Line(3) = {4, 3};
Line(4) = {2, 4};
Line(5) = {2, 5};
Line(6) = {5, 6};
Line(7) = {1, 6};
Line(8) = {3, 7};
Line(9) = {6, 7};
p10 = newp;
Point(p10 + 1) = {24.1725512259919, -1.893936755825172, 1};
Point(p10 + 2) = {24.15139697019967, -1.805822939037372, 1};
Point(p10 + 3) = {24.11671912060787, -1.722103204238907, 1};
Point(p10 + 4) = {24.06937156096263, -1.644839009150386, 1};
Point(p10 + 5) = {24.01052014531995, -1.575932854680049, 1};
Point(p10 + 6) = {23.94161399084961, -1.517081439037372, 1};
Point(p10 + 7) = {23.86434979576109, -1.469733879392129, 1};
Point(p10 + 8) = {23.78063006096263, -1.435056029800326, 1};
Point(p10 + 9) = {23.69251624417483, -1.413901774008098, 1};
Point(p10 + 10) = {23.602178, -1.406792, 1};
Point(p10 + 11) = {23.51183975582517, -1.413901774008098, 1};
Point(p10 + 12) = {23.42372593903737, -1.435056029800326, 1};
Point(p10 + 13) = {23.34000620423891, -1.469733879392129, 1};
Point(p10 + 14) = {23.26274200915038, -1.517081439037372, 1};
Point(p10 + 15) = {23.19383585468005, -1.575932854680049, 1};
Point(p10 + 16) = {23.13498443903737, -1.644839009150386, 1};
Point(p10 + 17) = {23.08763687939213, -1.722103204238907, 1};
Point(p10 + 18) = {23.05295902980032, -1.805822939037372, 1};
Point(p10 + 19) = {23.0318047740081, -1.893936755825172, 1};
Point(p10 + 20) = {23.024695, -1.984275, 1};
Point(p10 + 21) = {23.0318047740081, -2.074613244174828, 1};
Point(p10 + 22) = {23.05295902980032, -2.162727060962628, 1};
Point(p10 + 23) = {23.08763687939213, -2.246446795761092, 1};
Point(p10 + 24) = {23.13498443903737, -2.323710990849614, 1};
Point(p10 + 25) = {23.19383585468005, -2.392617145319951, 1};
Point(p10 + 26) = {23.26274200915038, -2.451468560962628, 1};
Point(p10 + 27) = {23.34000620423891, -2.498816120607871, 1};
Point(p10 + 28) = {23.42372593903737, -2.533493970199674, 1};
Point(p10 + 29) = {23.51183975582517, -2.554648225991902, 1};
Point(p10 + 30) = {23.602178, -2.561758, 1};
Point(p10 + 31) = {23.69251624417483, -2.554648225991902, 1};
Point(p10 + 32) = {23.78063006096263, -2.533493970199674, 1};
Point(p10 + 33) = {23.86434979576109, -2.498816120607871, 1};
Point(p10 + 34) = {23.94161399084961, -2.451468560962628, 1};
Point(p10 + 35) = {24.01052014531995, -2.392617145319951, 1};
Point(p10 + 36) = {24.06937156096263, -2.323710990849615, 1};
Point(p10 + 37) = {24.11671912060787, -2.246446795761093, 1};
Point(p10 + 38) = {24.15139697019967, -2.162727060962628, 1};
Point(p10 + 39) = {24.1725512259919, -2.074613244174828, 1};
Spline(10) = {8, p10 + 1, p10 + 2, p10 + 3, p10 + 4, p10 + 5, p10 + 6, p10 + 7, p10 + 8, p10 + 9, p10 + 10, p10 + 11, p10 + 12, p10 + 13, p10 + 14, p10 + 15, p10 + 16, p10 + 17, p10 + 18, p10 + 19, p10 + 20, p10 + 21, p10 + 22, p10 + 23, p10 + 24, p10 + 25, p10 + 26, p10 + 27, p10 + 28, p10 + 29, p10 + 30, p10 + 31, p10 + 32, p10 + 33, p10 + 34, p10 + 35, p10 + 36, p10 + 37, p10 + 38, p10 + 39, 8};
Line(11) = {4, 9};
Line(12) = {9, 7};
Line(13) = {5, 9};
p14 = newp;
Point(p14 + 1) = {24.1725512259919, -1.893936755825172, 0};
Point(p14 + 2) = {24.15139697019967, -1.805822939037372, 0};
Point(p14 + 3) = {24.11671912060787, -1.722103204238907, 0};
Point(p14 + 4) = {24.06937156096263, -1.644839009150386, 0};
Point(p14 + 5) = {24.01052014531995, -1.575932854680049, 0};
Point(p14 + 6) = {23.94161399084961, -1.517081439037372, 0};
Point(p14 + 7) = {23.86434979576109, -1.469733879392129, 0};
Point(p14 + 8) = {23.78063006096263, -1.435056029800326, 0};
Point(p14 + 9) = {23.69251624417483, -1.413901774008098, 0};
Point(p14 + 10) = {23.602178, -1.406792, 0};
Point(p14 + 11) = {23.51183975582517, -1.413901774008098, 0};
Point(p14 + 12) = {23.42372593903737, -1.435056029800326, 0};
Point(p14 + 13) = {23.34000620423891, -1.469733879392129, 0};
Point(p14 + 14) = {23.26274200915038, -1.517081439037372, 0};
Point(p14 + 15) = {23.19383585468005, -1.575932854680049, 0};
Point(p14 + 16) = {23.13498443903737, -1.644839009150386, 0};
Point(p14 + 17) = {23.08763687939213, -1.722103204238907, 0};
Point(p14 + 18) = {23.05295902980032, -1.805822939037372, 0};
Point(p14 + 19) = {23.0318047740081, -1.893936755825172, 0};
Point(p14 + 20) = {23.024695, -1.984275, 0};
Point(p14 + 21) = {23.0318047740081, -2.074613244174828, 0};
Point(p14 + 22) = {23.05295902980032, -2.162727060962628, 0};
Point(p14 + 23) = {23.08763687939213, -2.246446795761092, 0};
Point(p14 + 24) = {23.13498443903737, -2.323710990849614, 0};
Point(p14 + 25) = {23.19383585468005, -2.392617145319951, 0};
Point(p14 + 26) = {23.26274200915038, -2.451468560962628, 0};
Point(p14 + 27) = {23.34000620423891, -2.498816120607871, 0};
Point(p14 + 28) = {23.42372593903737, -2.533493970199674, 0};
Point(p14 + 29) = {23.51183975582517, -2.554648225991902, 0};
Point(p14 + 30) = {23.602178, -2.561758, 0};
Point(p14 + 31) = {23.69251624417483, -2.554648225991902, 0};
Point(p14 + 32) = {23.78063006096263, -2.533493970199674, 0};
Point(p14 + 33) = {23.86434979576109, -2.498816120607871, 0};
Point(p14 + 34) = {23.94161399084961, -2.451468560962628, 0};
Point(p14 + 35) = {24.01052014531995, -2.392617145319951, 0};
Point(p14 + 36) = {24.06937156096263, -2.323710990849615, 0};
Point(p14 + 37) = {24.11671912060787, -2.246446795761093, 0};
Point(p14 + 38) = {24.15139697019967, -2.162727060962628, 0};
Point(p14 + 39) = {24.1725512259919, -2.074613244174828, 0};
Spline(14) = {10, p14 + 1, p14 + 2, p14 + 3, p14 + 4, p14 + 5, p14 + 6, p14 + 7, p14 + 8, p14 + 9, p14 + 10, p14 + 11, p14 + 12, p14 + 13, p14 + 14, p14 + 15, p14 + 16, p14 + 17, p14 + 18, p14 + 19, p14 + 20, p14 + 21, p14 + 22, p14 + 23, p14 + 24, p14 + 25, p14 + 26, p14 + 27, p14 + 28, p14 + 29, p14 + 30, p14 + 31, p14 + 32, p14 + 33, p14 + 34, p14 + 35, p14 + 36, p14 + 37, p14 + 38, p14 + 39, 10};
Line(15) = {10, 8};
Curve Loop(1) = {-1, 4, 3, -2};
Plane Surface(1) = {1};
Curve Loop(2) = {-5, 1, 7, -6};
Plane Surface(2) = {2};
Curve Loop(3) = {-2, 7, 9, -8, -10};
Plane Surface(3) = {3};
Curve Loop(4) = {-11, 3, 8, -12};
Plane Surface(4) = {4};
Curve Loop(5) = {-4, 5, 13, -11, -14};
Plane Surface(5) = {5};
Curve Loop(6) = {-6, 13, 12, -9};
Plane Surface(6) = {6};
Curve Loop(7) = {-10, -15, 14, 15};
Surface(7) = {7};
Surface Loop(1) = {1, 2, 3, 4, 5, 6, 7};
Volume(1) = {1};
Physical Surface("INFLOW") = {1};
Physical Surface("OUTFLOW") = {6};
Physical Surface("OBSTACLE") = {7};
Physical Surface("WALL_Y") = {2, 4};
Physical Surface("WALL_Z") = {3, 5};
Physical Volume("FLUID") = {1};
