cl__1 = 3.34445;
cl__2 = 1.200129;
cl__3 = 0.479982;
cl__4 = 0.145846;
cl__5 = 0.06643499999999999;
Point(1) = {0.438166, -3.428567, 1, cl__1};
Point(2) = {0.438166, -3.428567, 0, cl__1};
Point(3) = {0.438166, 4.822093, 1, cl__2};
Point(4) = {0.438166, 4.822093, 0, cl__2};
Point(5) = {33.189095, -3.428567, 0, cl__3};
Point(6) = {33.189095, -3.428567, 1, cl__3};
Point(7) = {33.189095, 4.822093, 1, cl__2};
Point(8) = {6.773222, 0.4937929999999996, 1, cl__4};
Point(9) = {22.169889, 1.461516, 1, cl__5};
Point(10) = {33.189095, 4.822093, 0, cl__2};
Point(11) = {6.773222, 0.4937929999999996, 0, cl__4};
Point(12) = {22.169889, 1.461516, 0, cl__5};
Line(1) = {2, 1};
Line(2) = {1, 3};
Line(3) = {4, 3};
Line(4) = {2, 4};
Line(5) = {2, 5};
Line(6) = {5, 6};
Line(7) = {1, 6};
Line(8) = {3, 7};
Line(9) = {6, 7};
p10 = newp;
Point(p10 + 1) = {6.755265900289406, 0.7219468791859702, 1};
Point(p10 + 2) = {6.701839739925378, 0.9444828526670689, 1};
Point(p10 + 3) = {6.614259048287339, 1.155921346221639, 1};
Point(p10 + 4) = {6.494680352667069, 1.351056042414237, 1};
Point(p10 + 5) = {6.346048077409675, 1.525082077409676, 1};
Point(p10 + 6) = {6.172022042414237, 1.673714352667069, 1};
Point(p10 + 7) = {5.976887346221639, 1.793293048287339, 1};
Point(p10 + 8) = {5.765448852667069, 1.880873739925379, 1};
Point(p10 + 9) = {5.54291287918597, 1.934299900289406, 1};
Point(p10 + 10) = {5.314759, 1.952256, 1};
Point(p10 + 11) = {5.086605120814029, 1.934299900289406, 1};
Point(p10 + 12) = {4.86406914733293, 1.880873739925379, 1};
Point(p10 + 13) = {4.652630653778361, 1.793293048287339, 1};
Point(p10 + 14) = {4.457495957585762, 1.673714352667069, 1};
Point(p10 + 15) = {4.283469922590324, 1.525082077409676, 1};
Point(p10 + 16) = {4.13483764733293, 1.351056042414237, 1};
Point(p10 + 17) = {4.01525895171266, 1.155921346221639, 1};
Point(p10 + 18) = {3.927678260074621, 0.944482852667069, 1};
Point(p10 + 19) = {3.874252099710593, 0.7219468791859704, 1};
Point(p10 + 20) = {3.856296, 0.4937930000000001, 1};
Point(p10 + 21) = {3.874252099710593, 0.26563912081403, 1};
Point(p10 + 22) = {3.927678260074621, 0.04310314733293058, 1};
Point(p10 + 23) = {4.01525895171266, -0.1683353462216379, 1};
Point(p10 + 24) = {4.13483764733293, -0.3634700424142371, 1};
Point(p10 + 25) = {4.283469922590323, -0.5374960774096758, 1};
Point(p10 + 26) = {4.457495957585762, -0.686128352667069, 1};
Point(p10 + 27) = {4.652630653778361, -0.8057070482873396, 1};
Point(p10 + 28) = {4.86406914733293, -0.8932877399253787, 1};
Point(p10 + 29) = {5.086605120814029, -0.9467139002894065, 1};
Point(p10 + 30) = {5.314759, -0.9646700000000001, 1};
Point(p10 + 31) = {5.54291287918597, -0.9467139002894065, 1};
Point(p10 + 32) = {5.765448852667069, -0.8932877399253789, 1};
Point(p10 + 33) = {5.976887346221638, -0.8057070482873396, 1};
Point(p10 + 34) = {6.172022042414237, -0.6861283526670692, 1};
Point(p10 + 35) = {6.346048077409675, -0.537496077409676, 1};
Point(p10 + 36) = {6.494680352667069, -0.3634700424142376, 1};
Point(p10 + 37) = {6.614259048287339, -0.168335346221639, 1};
Point(p10 + 38) = {6.701839739925378, 0.04310314733293075, 1};
Point(p10 + 39) = {6.755265900289406, 0.2656391208140294, 1};
Spline(10) = {8, p10 + 1, p10 + 2, p10 + 3, p10 + 4, p10 + 5, p10 + 6, p10 + 7, p10 + 8, p10 + 9, p10 + 10, p10 + 11, p10 + 12, p10 + 13, p10 + 14, p10 + 15, p10 + 16, p10 + 17, p10 + 18, p10 + 19, p10 + 20, p10 + 21, p10 + 22, p10 + 23, p10 + 24, p10 + 25, p10 + 26, p10 + 27, p10 + 28, p10 + 29, p10 + 30, p10 + 31, p10 + 32, p10 + 33, p10 + 34, p10 + 35, p10 + 36, p10 + 37, p10 + 38, p10 + 39, 8};
p11 = newp;
Point(p11 + 1) = {22.16170969982774, 1.565443862587337, 1};
Point(p11 + 2) = {22.13737320082675, 1.666812676280974, 1};
Point(p11 + 3) = {22.09747874837064, 1.763126404463967, 1};
Point(p11 + 4) = {22.04300867628097, 1.852013483501514, 1};
Point(p11 + 5) = {21.97530421850841, 1.931285218508408, 1};
Point(p11 + 6) = {21.89603248350151, 1.998989676280974, 1};
Point(p11 + 7) = {21.80714540446397, 2.053459748370639, 1};
Point(p11 + 8) = {21.71083167628097, 2.09335420082675, 1};
Point(p11 + 9) = {21.60946286258734, 2.117690699827742, 1};
Point(p11 + 10) = {21.505535, 2.12587, 1};
Point(p11 + 11) = {21.40160713741266, 2.117690699827742, 1};
Point(p11 + 12) = {21.30023832371903, 2.09335420082675, 1};
Point(p11 + 13) = {21.20392459553603, 2.053459748370639, 1};
Point(p11 + 14) = {21.11503751649849, 1.998989676280974, 1};
Point(p11 + 15) = {21.03576578149159, 1.931285218508408, 1};
Point(p11 + 16) = {20.96806132371902, 1.852013483501514, 1};
Point(p11 + 17) = {20.91359125162936, 1.763126404463967, 1};
Point(p11 + 18) = {20.87369679917325, 1.666812676280974, 1};
Point(p11 + 19) = {20.84936030017226, 1.565443862587338, 1};
Point(p11 + 20) = {20.841181, 1.461516, 1};
Point(p11 + 21) = {20.84936030017226, 1.357588137412663, 1};
Point(p11 + 22) = {20.87369679917325, 1.256219323719026, 1};
Point(p11 + 23) = {20.91359125162936, 1.159905595536034, 1};
Point(p11 + 24) = {20.96806132371902, 1.071018516498486, 1};
Point(p11 + 25) = {21.03576578149159, 0.9917467814915926, 1};
Point(p11 + 26) = {21.11503751649849, 0.9240423237190263, 1};
Point(p11 + 27) = {21.20392459553603, 0.8695722516293611, 1};
Point(p11 + 28) = {21.30023832371903, 0.8296777991732496, 1};
Point(p11 + 29) = {21.40160713741266, 0.8053413001722579, 1};
Point(p11 + 30) = {21.505535, 0.797162, 1};
Point(p11 + 31) = {21.60946286258734, 0.8053413001722579, 1};
Point(p11 + 32) = {21.71083167628097, 0.8296777991732496, 1};
Point(p11 + 33) = {21.80714540446397, 0.869572251629361, 1};
Point(p11 + 34) = {21.89603248350151, 0.9240423237190262, 1};
Point(p11 + 35) = {21.97530421850841, 0.9917467814915923, 1};
Point(p11 + 36) = {22.04300867628097, 1.071018516498486, 1};
Point(p11 + 37) = {22.09747874837064, 1.159905595536033, 1};
Point(p11 + 38) = {22.13737320082675, 1.256219323719026, 1};
Point(p11 + 39) = {22.16170969982774, 1.357588137412662, 1};
Spline(11) = {9, p11 + 1, p11 + 2, p11 + 3, p11 + 4, p11 + 5, p11 + 6, p11 + 7, p11 + 8, p11 + 9, p11 + 10, p11 + 11, p11 + 12, p11 + 13, p11 + 14, p11 + 15, p11 + 16, p11 + 17, p11 + 18, p11 + 19, p11 + 20, p11 + 21, p11 + 22, p11 + 23, p11 + 24, p11 + 25, p11 + 26, p11 + 27, p11 + 28, p11 + 29, p11 + 30, p11 + 31, p11 + 32, p11 + 33, p11 + 34, p11 + 35, p11 + 36, p11 + 37, p11 + 38, p11 + 39, 9};
Line(12) = {4, 10};
Line(13) = {10, 7};
Line(14) = {5, 10};
p15 = newp;
Point(p15 + 1) = {6.755265900289406, 0.7219468791859702, 0};
Point(p15 + 2) = {6.701839739925378, 0.9444828526670689, 0};
Point(p15 + 3) = {6.614259048287339, 1.155921346221639, 0};
Point(p15 + 4) = {6.494680352667069, 1.351056042414237, 0};
Point(p15 + 5) = {6.346048077409675, 1.525082077409676, 0};
Point(p15 + 6) = {6.172022042414237, 1.673714352667069, 0};
Point(p15 + 7) = {5.976887346221639, 1.793293048287339, 0};
Point(p15 + 8) = {5.765448852667069, 1.880873739925379, 0};
Point(p15 + 9) = {5.54291287918597, 1.934299900289406, 0};
Point(p15 + 10) = {5.314759, 1.952256, 0};
Point(p15 + 11) = {5.086605120814029, 1.934299900289406, 0};
Point(p15 + 12) = {4.86406914733293, 1.880873739925379, 0};
Point(p15 + 13) = {4.652630653778361, 1.793293048287339, 0};
Point(p15 + 14) = {4.457495957585762, 1.673714352667069, 0};
Point(p15 + 15) = {4.283469922590324, 1.525082077409676, 0};
Point(p15 + 16) = {4.13483764733293, 1.351056042414237, 0};
Point(p15 + 17) = {4.01525895171266, 1.155921346221639, 0};
Point(p15 + 18) = {3.927678260074621, 0.944482852667069, 0};
Point(p15 + 19) = {3.874252099710593, 0.7219468791859704, 0};
Point(p15 + 20) = {3.856296, 0.4937930000000001, 0};
Point(p15 + 21) = {3.874252099710593, 0.26563912081403, 0};
Point(p15 + 22) = {3.927678260074621, 0.04310314733293058, 0};
Point(p15 + 23) = {4.01525895171266, -0.1683353462216379, 0};
Point(p15 + 24) = {4.13483764733293, -0.3634700424142371, 0};
Point(p15 + 25) = {4.283469922590323, -0.5374960774096758, 0};
Point(p15 + 26) = {4.457495957585762, -0.686128352667069, 0};
Point(p15 + 27) = {4.652630653778361, -0.8057070482873396, 0};
Point(p15 + 28) = {4.86406914733293, -0.8932877399253787, 0};
Point(p15 + 29) = {5.086605120814029, -0.9467139002894065, 0};
Point(p15 + 30) = {5.314759, -0.9646700000000001, 0};
Point(p15 + 31) = {5.54291287918597, -0.9467139002894065, 0};
Point(p15 + 32) = {5.765448852667069, -0.8932877399253789, 0};
Point(p15 + 33) = {5.976887346221638, -0.8057070482873396, 0};
Point(p15 + 34) = {6.172022042414237, -0.6861283526670692, 0};
Point(p15 + 35) = {6.346048077409675, -0.537496077409676, 0};
Point(p15 + 36) = {6.494680352667069, -0.3634700424142376, 0};
Point(p15 + 37) = {6.614259048287339, -0.168335346221639, 0};
Point(p15 + 38) = {6.701839739925378, 0.04310314733293075, 0};
Point(p15 + 39) = {6.755265900289406, 0.2656391208140294, 0};
Spline(15) = {11, p15 + 1, p15 + 2, p15 + 3, p15 + 4, p15 + 5, p15 + 6, p15 + 7, p15 + 8, p15 + 9, p15 + 10, p15 + 11, p15 + 12, p15 + 13, p15 + 14, p15 + 15, p15 + 16, p15 + 17, p15 + 18, p15 + 19, p15 + 20, p15 + 21, p15 + 22, p15 + 23, p15 + 24, p15 + 25, p15 + 26, p15 + 27, p15 + 28, p15 + 29, p15 + 30, p15 + 31, p15 + 32, p15 + 33, p15 + 34, p15 + 35, p15 + 36, p15 + 37, p15 + 38, p15 + 39, 11};
p16 = newp;
Point(p16 + 1) = {22.16170969982774, 1.565443862587337, 0};
Point(p16 + 2) = {22.13737320082675, 1.666812676280974, 0};
Point(p16 + 3) = {22.09747874837064, 1.763126404463967, 0};
Point(p16 + 4) = {22.04300867628097, 1.852013483501514, 0};
Point(p16 + 5) = {21.97530421850841, 1.931285218508408, 0};
Point(p16 + 6) = {21.89603248350151, 1.998989676280974, 0};
Point(p16 + 7) = {21.80714540446397, 2.053459748370639, 0};
Point(p16 + 8) = {21.71083167628097, 2.09335420082675, 0};
Point(p16 + 9) = {21.60946286258734, 2.117690699827742, 0};
Point(p16 + 10) = {21.505535, 2.12587, 0};
Point(p16 + 11) = {21.40160713741266, 2.117690699827742, 0};
Point(p16 + 12) = {21.30023832371903, 2.09335420082675, 0};
Point(p16 + 13) = {21.20392459553603, 2.053459748370639, 0};
Point(p16 + 14) = {21.11503751649849, 1.998989676280974, 0};
Point(p16 + 15) = {21.03576578149159, 1.931285218508408, 0};
Point(p16 + 16) = {20.96806132371902, 1.852013483501514, 0};
Point(p16 + 17) = {20.91359125162936, 1.763126404463967, 0};
Point(p16 + 18) = {20.87369679917325, 1.666812676280974, 0};
Point(p16 + 19) = {20.84936030017226, 1.565443862587338, 0};
Point(p16 + 20) = {20.841181, 1.461516, 0};
Point(p16 + 21) = {20.84936030017226, 1.357588137412663, 0};
Point(p16 + 22) = {20.87369679917325, 1.256219323719026, 0};
Point(p16 + 23) = {20.91359125162936, 1.159905595536034, 0};
Point(p16 + 24) = {20.96806132371902, 1.071018516498486, 0};
Point(p16 + 25) = {21.03576578149159, 0.9917467814915926, 0};
Point(p16 + 26) = {21.11503751649849, 0.9240423237190263, 0};
Point(p16 + 27) = {21.20392459553603, 0.8695722516293611, 0};
Point(p16 + 28) = {21.30023832371903, 0.8296777991732496, 0};
Point(p16 + 29) = {21.40160713741266, 0.8053413001722579, 0};
Point(p16 + 30) = {21.505535, 0.797162, 0};
Point(p16 + 31) = {21.60946286258734, 0.8053413001722579, 0};
Point(p16 + 32) = {21.71083167628097, 0.8296777991732496, 0};
Point(p16 + 33) = {21.80714540446397, 0.869572251629361, 0};
Point(p16 + 34) = {21.89603248350151, 0.9240423237190262, 0};
Point(p16 + 35) = {21.97530421850841, 0.9917467814915923, 0};
Point(p16 + 36) = {22.04300867628097, 1.071018516498486, 0};
Point(p16 + 37) = {22.09747874837064, 1.159905595536033, 0};
Point(p16 + 38) = {22.13737320082675, 1.256219323719026, 0};
Point(p16 + 39) = {22.16170969982774, 1.357588137412662, 0};
Spline(16) = {12, p16 + 1, p16 + 2, p16 + 3, p16 + 4, p16 + 5, p16 + 6, p16 + 7, p16 + 8, p16 + 9, p16 + 10, p16 + 11, p16 + 12, p16 + 13, p16 + 14, p16 + 15, p16 + 16, p16 + 17, p16 + 18, p16 + 19, p16 + 20, p16 + 21, p16 + 22, p16 + 23, p16 + 24, p16 + 25, p16 + 26, p16 + 27, p16 + 28, p16 + 29, p16 + 30, p16 + 31, p16 + 32, p16 + 33, p16 + 34, p16 + 35, p16 + 36, p16 + 37, p16 + 38, p16 + 39, 12};
Line(17) = {11, 8};
Line(18) = {12, 9};
Curve Loop(1) = {-1, 4, 3, -2};
Plane Surface(1) = {1};
Curve Loop(2) = {-5, 1, 7, -6};
Plane Surface(2) = {2};
Curve Loop(3) = {-2, 7, 9, -8, -10, -11};
Plane Surface(3) = {3};
Curve Loop(4) = {-12, 3, 8, -13};
Plane Surface(4) = {4};
Curve Loop(5) = {-4, 5, 14, -12, -15, -16};
Plane Surface(5) = {5};
Curve Loop(6) = {-6, 14, 13, -9};
Plane Surface(6) = {6};
Curve Loop(7) = {-10, -17, 15, 17};
Surface(7) = {7};
Curve Loop(8) = {-11, -18, 16, 18};
Surface(8) = {8};
Surface Loop(1) = {1, 2, 3, 4, 5, 6, 7, 8};
Volume(1) = {1};
Physical Surface("INFLOW") = {1};
Physical Surface("OUTFLOW") = {6};
Physical Surface("OBSTACLE") = {7, 8};
Physical Surface("WALL_Y") = {2, 4};
Physical Surface("WALL_Z") = {3, 5};
Physical Volume("FLUID") = {1};
