cl__1 = 3.834839;
cl__2 = 1.277666;
cl__3 = 1.152865;
cl__4 = 0.148082;
Point(1) = {0.744705, -3.527371, 1, cl__1};
Point(2) = {0.744705, -3.527371, 0, cl__1};
Point(3) = {0.744705, 4.937825999999999, 1, cl__1};
Point(4) = {0.744705, 4.937825999999999, 0, cl__1};
Point(5) = {38.114089, -3.527371, 0, cl__2};
Point(6) = {38.114089, -3.527371, 1, cl__2};
Point(7) = {38.114089, 4.937825999999999, 1, cl__3};
Point(8) = {26.776713, 2.715190999999999, 1, cl__4};
Point(9) = {38.114089, 4.937825999999999, 0, cl__3};
Point(10) = {26.776713, 2.715190999999999, 0, cl__4};
Line(1) = {2, 1};
Line(2) = {1, 3};
Line(3) = {4, 3};
Line(4) = {2, 4};
Line(5) = {2, 5};
Line(6) = {5, 6};
Line(7) = {1, 6};
Line(8) = {3, 7};
Line(9) = {6, 7};
p10 = newp;
Point(p10 + 1) = {26.75848167314341, 2.946841971651945, 1};
Point(p10 + 2) = {26.70423660834716, 3.172788927576321, 1};
Point(p10 + 3) = {26.61531349913557, 3.387468303843316, 1};
Point(p10 + 4) = {26.49390192757632, 3.585593981729235, 1};
Point(p10 + 5) = {26.3429914495031, 3.762287449503101, 1};
Point(p10 + 6) = {26.16629798172924, 3.913197927576321, 1};
Point(p10 + 7) = {25.96817230384332, 4.03460949913557, 1};
Point(p10 + 8) = {25.75349292757632, 4.123532608347157, 1};
Point(p10 + 9) = {25.52754597165195, 4.17777767314341, 1};
Point(p10 + 10) = {25.295895, 4.196009, 1};
Point(p10 + 11) = {25.06424402834806, 4.17777767314341, 1};
Point(p10 + 12) = {24.83829707242368, 4.123532608347157, 1};
Point(p10 + 13) = {24.62361769615669, 4.034609499135571, 1};
Point(p10 + 14) = {24.42549201827077, 3.913197927576321, 1};
Point(p10 + 15) = {24.2487985504969, 3.762287449503101, 1};
Point(p10 + 16) = {24.09788807242368, 3.585593981729235, 1};
Point(p10 + 17) = {23.97647650086443, 3.387468303843316, 1};
Point(p10 + 18) = {23.88755339165284, 3.172788927576321, 1};
Point(p10 + 19) = {23.83330832685659, 2.946841971651945, 1};
Point(p10 + 20) = {23.815077, 2.715191, 1};
Point(p10 + 21) = {23.83330832685659, 2.483540028348056, 1};
Point(p10 + 22) = {23.88755339165284, 2.257593072423679, 1};
Point(p10 + 23) = {23.97647650086443, 2.042913696156685, 1};
Point(p10 + 24) = {24.09788807242368, 1.844788018270765, 1};
Point(p10 + 25) = {24.2487985504969, 1.668094550496899, 1};
Point(p10 + 26) = {24.42549201827077, 1.517184072423679, 1};
Point(p10 + 27) = {24.62361769615669, 1.395772500864429, 1};
Point(p10 + 28) = {24.83829707242368, 1.306849391652843, 1};
Point(p10 + 29) = {25.06424402834806, 1.252604326856589, 1};
Point(p10 + 30) = {25.295895, 1.234373, 1};
Point(p10 + 31) = {25.52754597165195, 1.252604326856589, 1};
Point(p10 + 32) = {25.75349292757632, 1.306849391652843, 1};
Point(p10 + 33) = {25.96817230384332, 1.395772500864429, 1};
Point(p10 + 34) = {26.16629798172924, 1.517184072423679, 1};
Point(p10 + 35) = {26.3429914495031, 1.668094550496899, 1};
Point(p10 + 36) = {26.49390192757632, 1.844788018270764, 1};
Point(p10 + 37) = {26.61531349913557, 2.042913696156683, 1};
Point(p10 + 38) = {26.70423660834716, 2.257593072423679, 1};
Point(p10 + 39) = {26.75848167314341, 2.483540028348055, 1};
Spline(10) = {8, p10 + 1, p10 + 2, p10 + 3, p10 + 4, p10 + 5, p10 + 6, p10 + 7, p10 + 8, p10 + 9, p10 + 10, p10 + 11, p10 + 12, p10 + 13, p10 + 14, p10 + 15, p10 + 16, p10 + 17, p10 + 18, p10 + 19, p10 + 20, p10 + 21, p10 + 22, p10 + 23, p10 + 24, p10 + 25, p10 + 26, p10 + 27, p10 + 28, p10 + 29, p10 + 30, p10 + 31, p10 + 32, p10 + 33, p10 + 34, p10 + 35, p10 + 36, p10 + 37, p10 + 38, p10 + 39, 8};
Line(11) = {4, 9};
Line(12) = {9, 7};
Line(13) = {5, 9};
p14 = newp;
Point(p14 + 1) = {26.75848167314341, 2.946841971651945, 0};
Point(p14 + 2) = {26.70423660834716, 3.172788927576321, 0};
Point(p14 + 3) = {26.61531349913557, 3.387468303843316, 0};
Point(p14 + 4) = {26.49390192757632, 3.585593981729235, 0};
Point(p14 + 5) = {26.3429914495031, 3.762287449503101, 0};
Point(p14 + 6) = {26.16629798172924, 3.913197927576321, 0};
Point(p14 + 7) = {25.96817230384332, 4.03460949913557, 0};
Point(p14 + 8) = {25.75349292757632, 4.123532608347157, 0};
Point(p14 + 9) = {25.52754597165195, 4.17777767314341, 0};
Point(p14 + 10) = {25.295895, 4.196009, 0};
Point(p14 + 11) = {25.06424402834806, 4.17777767314341, 0};
Point(p14 + 12) = {24.83829707242368, 4.123532608347157, 0};
Point(p14 + 13) = {24.62361769615669, 4.034609499135571, 0};
Point(p14 + 14) = {24.42549201827077, 3.913197927576321, 0};
Point(p14 + 15) = {24.2487985504969, 3.762287449503101, 0};
Point(p14 + 16) = {24.09788807242368, 3.585593981729235, 0};
Point(p14 + 17) = {23.97647650086443, 3.387468303843316, 0};
Point(p14 + 18) = {23.88755339165284, 3.172788927576321, 0};
Point(p14 + 19) = {23.83330832685659, 2.946841971651945, 0};
Point(p14 + 20) = {23.815077, 2.715191, 0};
Point(p14 + 21) = {23.83330832685659, 2.483540028348056, 0};
Point(p14 + 22) = {23.88755339165284, 2.257593072423679, 0};
Point(p14 + 23) = {23.97647650086443, 2.042913696156685, 0};
Point(p14 + 24) = {24.09788807242368, 1.844788018270765, 0};
Point(p14 + 25) = {24.2487985504969, 1.668094550496899, 0};
Point(p14 + 26) = {24.42549201827077, 1.517184072423679, 0};
Point(p14 + 27) = {24.62361769615669, 1.395772500864429, 0};
Point(p14 + 28) = {24.83829707242368, 1.306849391652843, 0};
Point(p14 + 29) = {25.06424402834806, 1.252604326856589, 0};
Point(p14 + 30) = {25.295895, 1.234373, 0};
Point(p14 + 31) = {25.52754597165195, 1.252604326856589, 0};
Point(p14 + 32) = {25.75349292757632, 1.306849391652843, 0};
Point(p14 + 33) = {25.96817230384332, 1.395772500864429, 0};
Point(p14 + 34) = {26.16629798172924, 1.517184072423679, 0};
Point(p14 + 35) = {26.3429914495031, 1.668094550496899, 0};
Point(p14 + 36) = {26.49390192757632, 1.844788018270764, 0};
Point(p14 + 37) = {26.61531349913557, 2.042913696156683, 0};
Point(p14 + 38) = {26.70423660834716, 2.257593072423679, 0};
Point(p14 + 39) = {26.75848167314341, 2.483540028348055, 0};
Spline(14) = {10, p14 + 1, p14 + 2, p14 + 3, p14 + 4, p14 + 5, p14 + 6, p14 + 7, p14 + 8, p14 + 9, p14 + 10, p14 + 11, p14 + 12, p14 + 13, p14 + 14, p14 + 15, p14 + 16, p14 + 17, p14 + 18, p14 + 19, p14 + 20, p14 + 21, p14 + 22, p14 + 23, p14 + 24, p14 + 25, p14 + 26, p14 + 27, p14 + 28, p14 + 29, p14 + 30, p14 + 31, p14 + 32, p14 + 33, p14 + 34, p14 + 35, p14 + 36, p14 + 37, p14 + 38, p14 + 39, 10};
Line(15) = {10, 8};
Curve Loop(1) = {-1, 4, 3, -2};
Plane Surface(1) = {1};
Curve Loop(2) = {-5, 1, 7, -6};
Plane Surface(2) = {2};
Curve Loop(3) = {-2, 7, 9, -8, -10};
Plane Surface(3) = {3};
Curve Loop(4) = {-11, 3, 8, -12};
Plane Surface(4) = {4};
Curve Loop(5) = {-4, 5, 13, -11, -14};
Plane Surface(5) = {5};
Curve Loop(6) = {-6, 13, 12, -9};
Plane Surface(6) = {6};
Curve Loop(7) = {-10, -15, 14, 15};
Surface(7) = {7};
Surface Loop(1) = {1, 2, 3, 4, 5, 6, 7};
Volume(1) = {1};
Physical Surface("INFLOW") = {1};
Physical Surface("OUTFLOW") = {6};
Physical Surface("OBSTACLE") = {7};
Physical Surface("WALL_Y") = {2, 4};
Physical Surface("WALL_Z") = {3, 5};
Physical Volume("FLUID") = {1};
