cl__1 = 3.333387;
cl__2 = 0.537162;
cl__3 = 0.739863;
cl__4 = 0.059121;
cl__5 = 0.054033;
Point(1) = {0.964635, -3.873624, 1, cl__1};
Point(2) = {0.964635, -3.873624, 0, cl__1};
Point(3) = {0.964635, 4.288896000000001, 1, cl__2};
Point(4) = {0.964635, 4.288896000000001, 0, cl__2};
Point(5) = {33.083077, -3.873624, 0, cl__1};
Point(6) = {33.083077, -3.873624, 1, cl__1};
Point(7) = {33.083077, 4.288896000000001, 1, cl__3};
Point(8) = {28.246176, -1.405638, 1, cl__4};
Point(9) = {27.879745, 1.60702, 1, cl__5};
Point(10) = {33.083077, 4.288896000000001, 0, cl__3};
Point(11) = {28.246176, -1.405638, 0, cl__4};
Point(12) = {27.879745, 1.60702, 0, cl__5};
Line(1) = {2, 1};
Line(2) = {1, 3};
Line(3) = {4, 3};
Line(4) = {2, 4};
Line(5) = {2, 5};
Line(6) = {5, 6};
Line(7) = {1, 6};
Line(8) = {3, 7};
Line(9) = {6, 7};
p10 = newp;
Point(p10 + 1) = {28.23889718690827, -1.31315191062017, 1};
Point(p10 + 2) = {28.2172399761684, -1.222943135704604, 1};
Point(p10 + 3) = {28.18173764018498, -1.137232914677483, 1};
Point(p10 + 4) = {28.1332643642954, -1.05813171763641, 1};
Point(p10 + 5) = {28.07301372142564, -0.9875872785743577, 1};
Point(p10 + 6) = {28.00246928236359, -0.9273366357046041, 1};
Point(p10 + 7) = {27.92336808532252, -0.8788633598150225, 1};
Point(p10 + 8) = {27.83765786429539, -0.8433610238315934, 1};
Point(p10 + 9) = {27.74744908937983, -0.8217038130917268, 1};
Point(p10 + 10) = {27.654963, -0.814425, 1};
Point(p10 + 11) = {27.56247691062017, -0.8217038130917268, 1};
Point(p10 + 12) = {27.4722681357046, -0.8433610238315933, 1};
Point(p10 + 13) = {27.38655791467748, -0.8788633598150224, 1};
Point(p10 + 14) = {27.30745671763641, -0.9273366357046041, 1};
Point(p10 + 15) = {27.23691227857435, -0.9875872785743576, 1};
Point(p10 + 16) = {27.1766616357046, -1.05813171763641, 1};
Point(p10 + 17) = {27.12818835981502, -1.137232914677483, 1};
Point(p10 + 18) = {27.09268602383159, -1.222943135704604, 1};
Point(p10 + 19) = {27.07102881309173, -1.31315191062017, 1};
Point(p10 + 20) = {27.06375, -1.405638, 1};
Point(p10 + 21) = {27.07102881309173, -1.49812408937983, 1};
Point(p10 + 22) = {27.09268602383159, -1.588332864295396, 1};
Point(p10 + 23) = {27.12818835981502, -1.674043085322516, 1};
Point(p10 + 24) = {27.1766616357046, -1.75314428236359, 1};
Point(p10 + 25) = {27.23691227857435, -1.823688721425642, 1};
Point(p10 + 26) = {27.30745671763641, -1.883939364295396, 1};
Point(p10 + 27) = {27.38655791467748, -1.932412640184977, 1};
Point(p10 + 28) = {27.4722681357046, -1.967914976168406, 1};
Point(p10 + 29) = {27.56247691062017, -1.989572186908273, 1};
Point(p10 + 30) = {27.654963, -1.996851, 1};
Point(p10 + 31) = {27.74744908937983, -1.989572186908273, 1};
Point(p10 + 32) = {27.83765786429539, -1.967914976168406, 1};
Point(p10 + 33) = {27.92336808532252, -1.932412640184977, 1};
Point(p10 + 34) = {28.00246928236359, -1.883939364295396, 1};
Point(p10 + 35) = {28.07301372142564, -1.823688721425642, 1};
Point(p10 + 36) = {28.13326436429539, -1.75314428236359, 1};
Point(p10 + 37) = {28.18173764018498, -1.674043085322517, 1};
Point(p10 + 38) = {28.2172399761684, -1.588332864295396, 1};
Point(p10 + 39) = {28.23889718690827, -1.49812408937983, 1};
Spline(10) = {8, p10 + 1, p10 + 2, p10 + 3, p10 + 4, p10 + 5, p10 + 6, p10 + 7, p10 + 8, p10 + 9, p10 + 10, p10 + 11, p10 + 12, p10 + 13, p10 + 14, p10 + 15, p10 + 16, p10 + 17, p10 + 18, p10 + 19, p10 + 20, p10 + 21, p10 + 22, p10 + 23, p10 + 24, p10 + 25, p10 + 26, p10 + 27, p10 + 28, p10 + 29, p10 + 30, p10 + 31, p10 + 32, p10 + 33, p10 + 34, p10 + 35, p10 + 36, p10 + 37, p10 + 38, p10 + 39, 8};
p11 = newp;
Point(p11 + 1) = {27.87309264107377, 1.691546234495188, 1};
Point(p11 + 2) = {27.85329936744976, 1.773991152570615, 1};
Point(p11 + 3) = {27.8208525552147, 1.852324686724269, 1};
Point(p11 + 4) = {27.77655115257062, 1.924618005371192, 1};
Point(p11 + 5) = {27.72148600707852, 1.989091007078527, 1};
Point(p11 + 6) = {27.65701300537119, 2.044156152570615, 1};
Point(p11 + 7) = {27.58471968672427, 2.0884575552147, 1};
Point(p11 + 8) = {27.50638615257061, 2.12090436744976, 1};
Point(p11 + 9) = {27.42394123449519, 2.140697641073771, 1};
Point(p11 + 10) = {27.339415, 2.14735, 1};
Point(p11 + 11) = {27.25488876550481, 2.14069764107377, 1};
Point(p11 + 12) = {27.17244384742938, 2.12090436744976, 1};
Point(p11 + 13) = {27.09411031327573, 2.088457555214701, 1};
Point(p11 + 14) = {27.02181699462881, 2.044156152570615, 1};
Point(p11 + 15) = {26.95734399292147, 1.989091007078527, 1};
Point(p11 + 16) = {26.90227884742938, 1.924618005371192, 1};
Point(p11 + 17) = {26.8579774447853, 1.852324686724269, 1};
Point(p11 + 18) = {26.82553063255024, 1.773991152570615, 1};
Point(p11 + 19) = {26.80573735892623, 1.691546234495188, 1};
Point(p11 + 20) = {26.799085, 1.60702, 1};
Point(p11 + 21) = {26.80573735892623, 1.522493765504812, 1};
Point(p11 + 22) = {26.82553063255024, 1.440048847429384, 1};
Point(p11 + 23) = {26.8579774447853, 1.361715313275731, 1};
Point(p11 + 24) = {26.90227884742938, 1.289421994628808, 1};
Point(p11 + 25) = {26.95734399292147, 1.224948992921473, 1};
Point(p11 + 26) = {27.02181699462881, 1.169883847429385, 1};
Point(p11 + 27) = {27.09411031327573, 1.125582444785299, 1};
Point(p11 + 28) = {27.17244384742938, 1.093135632550239, 1};
Point(p11 + 29) = {27.25488876550481, 1.073342358926229, 1};
Point(p11 + 30) = {27.339415, 1.06669, 1};
Point(p11 + 31) = {27.42394123449519, 1.073342358926229, 1};
Point(p11 + 32) = {27.50638615257061, 1.093135632550239, 1};
Point(p11 + 33) = {27.58471968672427, 1.125582444785299, 1};
Point(p11 + 34) = {27.65701300537119, 1.169883847429384, 1};
Point(p11 + 35) = {27.72148600707852, 1.224948992921473, 1};
Point(p11 + 36) = {27.77655115257062, 1.289421994628808, 1};
Point(p11 + 37) = {27.8208525552147, 1.36171531327573, 1};
Point(p11 + 38) = {27.85329936744976, 1.440048847429384, 1};
Point(p11 + 39) = {27.87309264107377, 1.522493765504812, 1};
Spline(11) = {9, p11 + 1, p11 + 2, p11 + 3, p11 + 4, p11 + 5, p11 + 6, p11 + 7, p11 + 8, p11 + 9, p11 + 10, p11 + 11, p11 + 12, p11 + 13, p11 + 14, p11 + 15, p11 + 16, p11 + 17, p11 + 18, p11 + 19, p11 + 20, p11 + 21, p11 + 22, p11 + 23, p11 + 24, p11 + 25, p11 + 26, p11 + 27, p11 + 28, p11 + 29, p11 + 30, p11 + 31, p11 + 32, p11 + 33, p11 + 34, p11 + 35, p11 + 36, p11 + 37, p11 + 38, p11 + 39, 9};
Line(12) = {4, 10};
Line(13) = {10, 7};
Line(14) = {5, 10};
p15 = newp;
Point(p15 + 1) = {28.23889718690827, -1.31315191062017, 0};
Point(p15 + 2) = {28.2172399761684, -1.222943135704604, 0};
Point(p15 + 3) = {28.18173764018498, -1.137232914677483, 0};
Point(p15 + 4) = {28.1332643642954, -1.05813171763641, 0};
Point(p15 + 5) = {28.07301372142564, -0.9875872785743577, 0};
Point(p15 + 6) = {28.00246928236359, -0.9273366357046041, 0};
Point(p15 + 7) = {27.92336808532252, -0.8788633598150225, 0};
Point(p15 + 8) = {27.83765786429539, -0.8433610238315934, 0};
Point(p15 + 9) = {27.74744908937983, -0.8217038130917268, 0};
Point(p15 + 10) = {27.654963, -0.814425, 0};
Point(p15 + 11) = {27.56247691062017, -0.8217038130917268, 0};
Point(p15 + 12) = {27.4722681357046, -0.8433610238315933, 0};
Point(p15 + 13) = {27.38655791467748, -0.8788633598150224, 0};
Point(p15 + 14) = {27.30745671763641, -0.9273366357046041, 0};
Point(p15 + 15) = {27.23691227857435, -0.9875872785743576, 0};
Point(p15 + 16) = {27.1766616357046, -1.05813171763641, 0};
Point(p15 + 17) = {27.12818835981502, -1.137232914677483, 0};
Point(p15 + 18) = {27.09268602383159, -1.222943135704604, 0};
Point(p15 + 19) = {27.07102881309173, -1.31315191062017, 0};
Point(p15 + 20) = {27.06375, -1.405638, 0};
Point(p15 + 21) = {27.07102881309173, -1.49812408937983, 0};
Point(p15 + 22) = {27.09268602383159, -1.588332864295396, 0};
Point(p15 + 23) = {27.12818835981502, -1.674043085322516, 0};
Point(p15 + 24) = {27.1766616357046, -1.75314428236359, 0};
Point(p15 + 25) = {27.23691227857435, -1.823688721425642, 0};
Point(p15 + 26) = {27.30745671763641, -1.883939364295396, 0};
Point(p15 + 27) = {27.38655791467748, -1.932412640184977, 0};
Point(p15 + 28) = {27.4722681357046, -1.967914976168406, 0};
Point(p15 + 29) = {27.56247691062017, -1.989572186908273, 0};
Point(p15 + 30) = {27.654963, -1.996851, 0};
Point(p15 + 31) = {27.74744908937983, -1.989572186908273, 0};
Point(p15 + 32) = {27.83765786429539, -1.967914976168406, 0};
Point(p15 + 33) = {27.92336808532252, -1.932412640184977, 0};
Point(p15 + 34) = {28.00246928236359, -1.883939364295396, 0};
Point(p15 + 35) = {28.07301372142564, -1.823688721425642, 0};
Point(p15 + 36) = {28.13326436429539, -1.75314428236359, 0};
Point(p15 + 37) = {28.18173764018498, -1.674043085322517, 0};
Point(p15 + 38) = {28.2172399761684, -1.588332864295396, 0};
Point(p15 + 39) = {28.23889718690827, -1.49812408937983, 0};
Spline(15) = {11, p15 + 1, p15 + 2, p15 + 3, p15 + 4, p15 + 5, p15 + 6, p15 + 7, p15 + 8, p15 + 9, p15 + 10, p15 + 11, p15 + 12, p15 + 13, p15 + 14, p15 + 15, p15 + 16, p15 + 17, p15 + 18, p15 + 19, p15 + 20, p15 + 21, p15 + 22, p15 + 23, p15 + 24, p15 + 25, p15 + 26, p15 + 27, p15 + 28, p15 + 29, p15 + 30, p15 + 31, p15 + 32, p15 + 33, p15 + 34, p15 + 35, p15 + 36, p15 + 37, p15 + 38, p15 + 39, 11};
p16 = newp;
Point(p16 + 1) = {27.87309264107377, 1.691546234495188, 0};
Point(p16 + 2) = {27.85329936744976, 1.773991152570615, 0};
Point(p16 + 3) = {27.8208525552147, 1.852324686724269, 0};
Point(p16 + 4) = {27.77655115257062, 1.924618005371192, 0};
Point(p16 + 5) = {27.72148600707852, 1.989091007078527, 0};
Point(p16 + 6) = {27.65701300537119, 2.044156152570615, 0};
Point(p16 + 7) = {27.58471968672427, 2.0884575552147, 0};
Point(p16 + 8) = {27.50638615257061, 2.12090436744976, 0};
Point(p16 + 9) = {27.42394123449519, 2.140697641073771, 0};
Point(p16 + 10) = {27.339415, 2.14735, 0};
Point(p16 + 11) = {27.25488876550481, 2.14069764107377, 0};
Point(p16 + 12) = {27.17244384742938, 2.12090436744976, 0};
Point(p16 + 13) = {27.09411031327573, 2.088457555214701, 0};
Point(p16 + 14) = {27.02181699462881, 2.044156152570615, 0};
Point(p16 + 15) = {26.95734399292147, 1.989091007078527, 0};
Point(p16 + 16) = {26.90227884742938, 1.924618005371192, 0};
Point(p16 + 17) = {26.8579774447853, 1.852324686724269, 0};
Point(p16 + 18) = {26.82553063255024, 1.773991152570615, 0};
Point(p16 + 19) = {26.80573735892623, 1.691546234495188, 0};
Point(p16 + 20) = {26.799085, 1.60702, 0};
Point(p16 + 21) = {26.80573735892623, 1.522493765504812, 0};
Point(p16 + 22) = {26.82553063255024, 1.440048847429384, 0};
Point(p16 + 23) = {26.8579774447853, 1.361715313275731, 0};
Point(p16 + 24) = {26.90227884742938, 1.289421994628808, 0};
Point(p16 + 25) = {26.95734399292147, 1.224948992921473, 0};
Point(p16 + 26) = {27.02181699462881, 1.169883847429385, 0};
Point(p16 + 27) = {27.09411031327573, 1.125582444785299, 0};
Point(p16 + 28) = {27.17244384742938, 1.093135632550239, 0};
Point(p16 + 29) = {27.25488876550481, 1.073342358926229, 0};
Point(p16 + 30) = {27.339415, 1.06669, 0};
Point(p16 + 31) = {27.42394123449519, 1.073342358926229, 0};
Point(p16 + 32) = {27.50638615257061, 1.093135632550239, 0};
Point(p16 + 33) = {27.58471968672427, 1.125582444785299, 0};
Point(p16 + 34) = {27.65701300537119, 1.169883847429384, 0};
Point(p16 + 35) = {27.72148600707852, 1.224948992921473, 0};
Point(p16 + 36) = {27.77655115257062, 1.289421994628808, 0};
Point(p16 + 37) = {27.8208525552147, 1.36171531327573, 0};
Point(p16 + 38) = {27.85329936744976, 1.440048847429384, 0};
Point(p16 + 39) = {27.87309264107377, 1.522493765504812, 0};
Spline(16) = {12, p16 + 1, p16 + 2, p16 + 3, p16 + 4, p16 + 5, p16 + 6, p16 + 7, p16 + 8, p16 + 9, p16 + 10, p16 + 11, p16 + 12, p16 + 13, p16 + 14, p16 + 15, p16 + 16, p16 + 17, p16 + 18, p16 + 19, p16 + 20, p16 + 21, p16 + 22, p16 + 23, p16 + 24, p16 + 25, p16 + 26, p16 + 27, p16 + 28, p16 + 29, p16 + 30, p16 + 31, p16 + 32, p16 + 33, p16 + 34, p16 + 35, p16 + 36, p16 + 37, p16 + 38, p16 + 39, 12};
Line(17) = {11, 8};
Line(18) = {12, 9};
Curve Loop(1) = {-1, 4, 3, -2};
Plane Surface(1) = {1};
Curve Loop(2) = {-5, 1, 7, -6};
Plane Surface(2) = {2};
Curve Loop(3) = {-2, 7, 9, -8, -10, -11};
Plane Surface(3) = {3};
Curve Loop(4) = {-12, 3, 8, -13};
Plane Surface(4) = {4};
Curve Loop(5) = {-4, 5, 14, -12, -15, -16};
Plane Surface(5) = {5};
Curve Loop(6) = {-6, 14, 13, -9};
Plane Surface(6) = {6};
Curve Loop(7) = {-10, -17, 15, 17};
Surface(7) = {7};
Curve Loop(8) = {-11, -18, 16, 18};
Surface(8) = {8};
Surface Loop(1) = {1, 2, 3, 4, 5, 6, 7, 8};
Volume(1) = {1};
Physical Surface("INFLOW") = {1};
Physical Surface("OUTFLOW") = {6};
Physical Surface("OBSTACLE") = {7, 8};
Physical Surface("WALL_Y") = {2, 4};
Physical Surface("WALL_Z") = {3, 5};
Physical Volume("FLUID") = {1};
