cl__1 = 3.51031;
cl__2 = 0.5361590000000001;
cl__3 = 0.758938;
cl__4 = 0.050068;
cl__5 = 0.062424;
Point(1) = {0.5779339999999999, -3.613532, 1, cl__1};
Point(2) = {0.5779339999999999, -3.613532, 0, cl__1};
Point(3) = {0.5779339999999999, 4.745817, 1, cl__2};
Point(4) = {0.5779339999999999, 4.745817, 0, cl__2};
Point(5) = {34.853379, -3.613532, 0, cl__1};
Point(6) = {34.853379, -3.613532, 1, cl__1};
Point(7) = {34.853379, 4.745817, 1, cl__3};
Point(8) = {30.392732, -0.4908110000000001, 1, cl__4};
Point(9) = {27.945444, -0.3378700000000001, 1, cl__5};
Point(10) = {34.853379, 4.745817, 0, cl__3};
Point(11) = {30.392732, -0.4908110000000001, 0, cl__4};
Point(12) = {27.945444, -0.3378700000000001, 0, cl__5};
Line(1) = {2, 1};
Line(2) = {1, 3};
Line(3) = {4, 3};
Line(4) = {2, 4};
Line(5) = {2, 5};
Line(6) = {5, 6};
Line(7) = {1, 6};
Line(8) = {3, 7};
Line(9) = {6, 7};
p10 = newp;
Point(p10 + 1) = {30.38656784761581, -0.4124880177815173, 1};
Point(p10 + 2) = {30.36822717235259, -0.3360936073243288, 1};
Point(p10 + 3) = {30.33816158250454, -0.2635088525524027, 1};
Point(p10 + 4) = {30.29711139267567, -0.1965210310232137, 1};
Point(p10 + 5) = {30.24608739477735, -0.1367796052226442, 1};
Point(p10 + 6) = {30.18634596897679, -0.0857556073243288, 1};
Point(p10 + 7) = {30.1193581474476, -0.04470541749546475, 1};
Point(p10 + 8) = {30.04677339267567, -0.01463982764740768, 1};
Point(p10 + 9) = {29.97037898221848, 0.003700847615811187, 1};
Point(p10 + 10) = {29.892056, 0.009865000000000013, 1};
Point(p10 + 11) = {29.81373301778152, 0.003700847615811131, 1};
Point(p10 + 12) = {29.73733860732433, -0.01463982764740762, 1};
Point(p10 + 13) = {29.6647538525524, -0.04470541749546469, 1};
Point(p10 + 14) = {29.59776603102321, -0.0857556073243288, 1};
Point(p10 + 15) = {29.53802460522265, -0.1367796052226441, 1};
Point(p10 + 16) = {29.48700060732433, -0.1965210310232137, 1};
Point(p10 + 17) = {29.44595041749546, -0.2635088525524026, 1};
Point(p10 + 18) = {29.41588482764741, -0.3360936073243288, 1};
Point(p10 + 19) = {29.39754415238419, -0.4124880177815173, 1};
Point(p10 + 20) = {29.39138, -0.4908109999999999, 1};
Point(p10 + 21) = {29.39754415238419, -0.5691339822184825, 1};
Point(p10 + 22) = {29.41588482764741, -0.6455283926756713, 1};
Point(p10 + 23) = {29.44595041749546, -0.718113147447597, 1};
Point(p10 + 24) = {29.48700060732433, -0.7851009689767863, 1};
Point(p10 + 25) = {29.53802460522265, -0.8448423947773558, 1};
Point(p10 + 26) = {29.59776603102321, -0.8958663926756711, 1};
Point(p10 + 27) = {29.6647538525524, -0.9369165825045352, 1};
Point(p10 + 28) = {29.73733860732433, -0.9669821723525923, 1};
Point(p10 + 29) = {29.81373301778152, -0.9853228476158111, 1};
Point(p10 + 30) = {29.892056, -0.991487, 1};
Point(p10 + 31) = {29.97037898221848, -0.9853228476158111, 1};
Point(p10 + 32) = {30.04677339267567, -0.9669821723525924, 1};
Point(p10 + 33) = {30.1193581474476, -0.9369165825045354, 1};
Point(p10 + 34) = {30.18634596897679, -0.8958663926756713, 1};
Point(p10 + 35) = {30.24608739477735, -0.844842394777356, 1};
Point(p10 + 36) = {30.29711139267567, -0.7851009689767864, 1};
Point(p10 + 37) = {30.33816158250454, -0.7181131474475975, 1};
Point(p10 + 38) = {30.36822717235259, -0.6455283926756713, 1};
Point(p10 + 39) = {30.38656784761581, -0.5691339822184828, 1};
Spline(10) = {8, p10 + 1, p10 + 2, p10 + 3, p10 + 4, p10 + 5, p10 + 6, p10 + 7, p10 + 8, p10 + 9, p10 + 10, p10 + 11, p10 + 12, p10 + 13, p10 + 14, p10 + 15, p10 + 16, p10 + 17, p10 + 18, p10 + 19, p10 + 20, p10 + 21, p10 + 22, p10 + 23, p10 + 24, p10 + 25, p10 + 26, p10 + 27, p10 + 28, p10 + 29, p10 + 30, p10 + 31, p10 + 32, p10 + 33, p10 + 34, p10 + 35, p10 + 36, p10 + 37, p10 + 38, p10 + 39, 8};
p11 = newp;
Point(p11 + 1) = {27.93775860666809, -0.2402178188466814, 1};
Point(p11 + 2) = {27.91489166656254, -0.1449701584823659, 1};
Point(p11 + 3) = {27.87740623963978, -0.05447233241408456, 1};
Point(p11 + 4) = {27.82622534151763, 0.02904730253529658, 1};
Point(p11 + 5) = {27.76260921576755, 0.1035322157675468, 1};
Point(p11 + 6) = {27.6881243025353, 0.1671483415176341, 1};
Point(p11 + 7) = {27.60460466758592, 0.2183292396397741, 1};
Point(p11 + 8) = {27.51410684151763, 0.2558146665625378, 1};
Point(p11 + 9) = {27.41885918115332, 0.2786816066680871, 1};
Point(p11 + 10) = {27.321207, 0.286367, 1};
Point(p11 + 11) = {27.22355481884668, 0.2786816066680869, 1};
Point(p11 + 12) = {27.12830715848237, 0.2558146665625378, 1};
Point(p11 + 13) = {27.03780933241408, 0.2183292396397742, 1};
Point(p11 + 14) = {26.95428969746471, 0.1671483415176341, 1};
Point(p11 + 15) = {26.87980478423246, 0.1035322157675469, 1};
Point(p11 + 16) = {26.81618865848237, 0.02904730253529664, 1};
Point(p11 + 17) = {26.76500776036023, -0.05447233241408445, 1};
Point(p11 + 18) = {26.72752233343746, -0.1449701584823659, 1};
Point(p11 + 19) = {26.70465539333192, -0.2402178188466813, 1};
Point(p11 + 20) = {26.69697, -0.3378699999999999, 1};
Point(p11 + 21) = {26.70465539333192, -0.4355221811533185, 1};
Point(p11 + 22) = {26.72752233343746, -0.5307698415176343, 1};
Point(p11 + 23) = {26.76500776036023, -0.6212676675859152, 1};
Point(p11 + 24) = {26.81618865848237, -0.7047873025352965, 1};
Point(p11 + 25) = {26.87980478423246, -0.7792722157675469, 1};
Point(p11 + 26) = {26.95428969746471, -0.842888341517634, 1};
Point(p11 + 27) = {27.03780933241408, -0.8940692396397741, 1};
Point(p11 + 28) = {27.12830715848237, -0.9315546665625378, 1};
Point(p11 + 29) = {27.22355481884668, -0.954421606668087, 1};
Point(p11 + 30) = {27.321207, -0.962107, 1};
Point(p11 + 31) = {27.41885918115332, -0.9544216066680871, 1};
Point(p11 + 32) = {27.51410684151763, -0.9315546665625378, 1};
Point(p11 + 33) = {27.60460466758592, -0.8940692396397742, 1};
Point(p11 + 34) = {27.6881243025353, -0.8428883415176341, 1};
Point(p11 + 35) = {27.76260921576755, -0.779272215767547, 1};
Point(p11 + 36) = {27.82622534151763, -0.7047873025352966, 1};
Point(p11 + 37) = {27.87740623963978, -0.6212676675859157, 1};
Point(p11 + 38) = {27.91489166656254, -0.5307698415176342, 1};
Point(p11 + 39) = {27.93775860666809, -0.4355221811533188, 1};
Spline(11) = {9, p11 + 1, p11 + 2, p11 + 3, p11 + 4, p11 + 5, p11 + 6, p11 + 7, p11 + 8, p11 + 9, p11 + 10, p11 + 11, p11 + 12, p11 + 13, p11 + 14, p11 + 15, p11 + 16, p11 + 17, p11 + 18, p11 + 19, p11 + 20, p11 + 21, p11 + 22, p11 + 23, p11 + 24, p11 + 25, p11 + 26, p11 + 27, p11 + 28, p11 + 29, p11 + 30, p11 + 31, p11 + 32, p11 + 33, p11 + 34, p11 + 35, p11 + 36, p11 + 37, p11 + 38, p11 + 39, 9};
Line(12) = {4, 10};
Line(13) = {10, 7};
Line(14) = {5, 10};
p15 = newp;
Point(p15 + 1) = {30.38656784761581, -0.4124880177815173, 0};
Point(p15 + 2) = {30.36822717235259, -0.3360936073243288, 0};
Point(p15 + 3) = {30.33816158250454, -0.2635088525524027, 0};
Point(p15 + 4) = {30.29711139267567, -0.1965210310232137, 0};
Point(p15 + 5) = {30.24608739477735, -0.1367796052226442, 0};
Point(p15 + 6) = {30.18634596897679, -0.0857556073243288, 0};
Point(p15 + 7) = {30.1193581474476, -0.04470541749546475, 0};
Point(p15 + 8) = {30.04677339267567, -0.01463982764740768, 0};
Point(p15 + 9) = {29.97037898221848, 0.003700847615811187, 0};
Point(p15 + 10) = {29.892056, 0.009865000000000013, 0};
Point(p15 + 11) = {29.81373301778152, 0.003700847615811131, 0};
Point(p15 + 12) = {29.73733860732433, -0.01463982764740762, 0};
Point(p15 + 13) = {29.6647538525524, -0.04470541749546469, 0};
Point(p15 + 14) = {29.59776603102321, -0.0857556073243288, 0};
Point(p15 + 15) = {29.53802460522265, -0.1367796052226441, 0};
Point(p15 + 16) = {29.48700060732433, -0.1965210310232137, 0};
Point(p15 + 17) = {29.44595041749546, -0.2635088525524026, 0};
Point(p15 + 18) = {29.41588482764741, -0.3360936073243288, 0};
Point(p15 + 19) = {29.39754415238419, -0.4124880177815173, 0};
Point(p15 + 20) = {29.39138, -0.4908109999999999, 0};
Point(p15 + 21) = {29.39754415238419, -0.5691339822184825, 0};
Point(p15 + 22) = {29.41588482764741, -0.6455283926756713, 0};
Point(p15 + 23) = {29.44595041749546, -0.718113147447597, 0};
Point(p15 + 24) = {29.48700060732433, -0.7851009689767863, 0};
Point(p15 + 25) = {29.53802460522265, -0.8448423947773558, 0};
Point(p15 + 26) = {29.59776603102321, -0.8958663926756711, 0};
Point(p15 + 27) = {29.6647538525524, -0.9369165825045352, 0};
Point(p15 + 28) = {29.73733860732433, -0.9669821723525923, 0};
Point(p15 + 29) = {29.81373301778152, -0.9853228476158111, 0};
Point(p15 + 30) = {29.892056, -0.991487, 0};
Point(p15 + 31) = {29.97037898221848, -0.9853228476158111, 0};
Point(p15 + 32) = {30.04677339267567, -0.9669821723525924, 0};
Point(p15 + 33) = {30.1193581474476, -0.9369165825045354, 0};
Point(p15 + 34) = {30.18634596897679, -0.8958663926756713, 0};
Point(p15 + 35) = {30.24608739477735, -0.844842394777356, 0};
Point(p15 + 36) = {30.29711139267567, -0.7851009689767864, 0};
Point(p15 + 37) = {30.33816158250454, -0.7181131474475975, 0};
Point(p15 + 38) = {30.36822717235259, -0.6455283926756713, 0};
Point(p15 + 39) = {30.38656784761581, -0.5691339822184828, 0};
Spline(15) = {11, p15 + 1, p15 + 2, p15 + 3, p15 + 4, p15 + 5, p15 + 6, p15 + 7, p15 + 8, p15 + 9, p15 + 10, p15 + 11, p15 + 12, p15 + 13, p15 + 14, p15 + 15, p15 + 16, p15 + 17, p15 + 18, p15 + 19, p15 + 20, p15 + 21, p15 + 22, p15 + 23, p15 + 24, p15 + 25, p15 + 26, p15 + 27, p15 + 28, p15 + 29, p15 + 30, p15 + 31, p15 + 32, p15 + 33, p15 + 34, p15 + 35, p15 + 36, p15 + 37, p15 + 38, p15 + 39, 11};
p16 = newp;
Point(p16 + 1) = {27.93775860666809, -0.2402178188466814, 0};
Point(p16 + 2) = {27.91489166656254, -0.1449701584823659, 0};
Point(p16 + 3) = {27.87740623963978, -0.05447233241408456, 0};
Point(p16 + 4) = {27.82622534151763, 0.02904730253529658, 0};
Point(p16 + 5) = {27.76260921576755, 0.1035322157675468, 0};
Point(p16 + 6) = {27.6881243025353, 0.1671483415176341, 0};
Point(p16 + 7) = {27.60460466758592, 0.2183292396397741, 0};
Point(p16 + 8) = {27.51410684151763, 0.2558146665625378, 0};
Point(p16 + 9) = {27.41885918115332, 0.2786816066680871, 0};
Point(p16 + 10) = {27.321207, 0.286367, 0};
Point(p16 + 11) = {27.22355481884668, 0.2786816066680869, 0};
Point(p16 + 12) = {27.12830715848237, 0.2558146665625378, 0};
Point(p16 + 13) = {27.03780933241408, 0.2183292396397742, 0};
Point(p16 + 14) = {26.95428969746471, 0.1671483415176341, 0};
Point(p16 + 15) = {26.87980478423246, 0.1035322157675469, 0};
Point(p16 + 16) = {26.81618865848237, 0.02904730253529664, 0};
Point(p16 + 17) = {26.76500776036023, -0.05447233241408445, 0};
Point(p16 + 18) = {26.72752233343746, -0.1449701584823659, 0};
Point(p16 + 19) = {26.70465539333192, -0.2402178188466813, 0};
Point(p16 + 20) = {26.69697, -0.3378699999999999, 0};
Point(p16 + 21) = {26.70465539333192, -0.4355221811533185, 0};
Point(p16 + 22) = {26.72752233343746, -0.5307698415176343, 0};
Point(p16 + 23) = {26.76500776036023, -0.6212676675859152, 0};
Point(p16 + 24) = {26.81618865848237, -0.7047873025352965, 0};
Point(p16 + 25) = {26.87980478423246, -0.7792722157675469, 0};
Point(p16 + 26) = {26.95428969746471, -0.842888341517634, 0};
Point(p16 + 27) = {27.03780933241408, -0.8940692396397741, 0};
Point(p16 + 28) = {27.12830715848237, -0.9315546665625378, 0};
Point(p16 + 29) = {27.22355481884668, -0.954421606668087, 0};
Point(p16 + 30) = {27.321207, -0.962107, 0};
Point(p16 + 31) = {27.41885918115332, -0.9544216066680871, 0};
Point(p16 + 32) = {27.51410684151763, -0.9315546665625378, 0};
Point(p16 + 33) = {27.60460466758592, -0.8940692396397742, 0};
Point(p16 + 34) = {27.6881243025353, -0.8428883415176341, 0};
Point(p16 + 35) = {27.76260921576755, -0.779272215767547, 0};
Point(p16 + 36) = {27.82622534151763, -0.7047873025352966, 0};
Point(p16 + 37) = {27.87740623963978, -0.6212676675859157, 0};
Point(p16 + 38) = {27.91489166656254, -0.5307698415176342, 0};
Point(p16 + 39) = {27.93775860666809, -0.4355221811533188, 0};
Spline(16) = {12, p16 + 1, p16 + 2, p16 + 3, p16 + 4, p16 + 5, p16 + 6, p16 + 7, p16 + 8, p16 + 9, p16 + 10, p16 + 11, p16 + 12, p16 + 13, p16 + 14, p16 + 15, p16 + 16, p16 + 17, p16 + 18, p16 + 19, p16 + 20, p16 + 21, p16 + 22, p16 + 23, p16 + 24, p16 + 25, p16 + 26, p16 + 27, p16 + 28, p16 + 29, p16 + 30, p16 + 31, p16 + 32, p16 + 33, p16 + 34, p16 + 35, p16 + 36, p16 + 37, p16 + 38, p16 + 39, 12};
Line(17) = {11, 8};
Line(18) = {12, 9};
Curve Loop(1) = {-1, 4, 3, -2};
Plane Surface(1) = {1};
Curve Loop(2) = {-5, 1, 7, -6};
Plane Surface(2) = {2};
Curve Loop(3) = {-2, 7, 9, -8, -10, -11};
Plane Surface(3) = {3};
Curve Loop(4) = {-12, 3, 8, -13};
Plane Surface(4) = {4};
Curve Loop(5) = {-4, 5, 14, -12, -15, -16};
Plane Surface(5) = {5};
Curve Loop(6) = {-6, 14, 13, -9};
Plane Surface(6) = {6};
Curve Loop(7) = {-10, -17, 15, 17};
Surface(7) = {7};
Curve Loop(8) = {-11, -18, 16, 18};
Surface(8) = {8};
Surface Loop(1) = {1, 2, 3, 4, 5, 6, 7, 8};
Volume(1) = {1};
Physical Surface("INFLOW") = {1};
Physical Surface("OUTFLOW") = {6};
Physical Surface("OBSTACLE") = {7, 8};
Physical Surface("WALL_Y") = {2, 4};
Physical Surface("WALL_Z") = {3, 5};
Physical Volume("FLUID") = {1};
