cl__1 = 3.79852;
cl__2 = 1.227221;
cl__3 = 1.335735;
cl__4 = 0.149286;
Point(1) = {0.408867, -4.203945, 1, cl__1};
Point(2) = {0.408867, -4.203945, 0, cl__1};
Point(3) = {0.408867, 5.741888, 1, cl__1};
Point(4) = {0.408867, 5.741888, 0, cl__1};
Point(5) = {37.658277, -4.203945, 0, cl__2};
Point(6) = {37.658277, -4.203945, 1, cl__2};
Point(7) = {37.658277, 5.741888, 1, cl__3};
Point(8) = {25.815616, -0.7920670000000003, 1, cl__4};
Point(9) = {37.658277, 5.741888, 0, cl__3};
Point(10) = {25.815616, -0.7920670000000003, 0, cl__4};
Line(1) = {2, 1};
Line(2) = {1, 3};
Line(3) = {4, 3};
Line(4) = {2, 4};
Line(5) = {2, 5};
Line(6) = {5, 6};
Line(7) = {1, 6};
Line(8) = {3, 7};
Line(9) = {6, 7};
p10 = newp;
Point(p10 + 1) = {25.79723645307584, -0.5585327138234361, 1};
Point(p10 + 2) = {25.74255037774683, -0.3307488168283991, 1};
Point(p10 + 3) = {25.65290432668028, -0.1143241045303194, 1};
Point(p10 + 4) = {25.5305056831716, 0.08541232838158463, 1};
Point(p10 + 5) = {25.37836830804181, 0.2635423080418059, 1};
Point(p10 + 6) = {25.20023832838159, 0.4156796831716011, 1};
Point(p10 + 7) = {25.00050189546968, 0.5380783266802743, 1};
Point(p10 + 8) = {24.7840771831716, 0.6277243777468341, 1};
Point(p10 + 9) = {24.55629328617657, 0.6824104530758358, 1};
Point(p10 + 10) = {24.322759, 0.7007900000000001, 1};
Point(p10 + 11) = {24.08922471382344, 0.6824104530758356, 1};
Point(p10 + 12) = {23.8614408168284, 0.6277243777468343, 1};
Point(p10 + 13) = {23.64501610453032, 0.5380783266802746, 1};
Point(p10 + 14) = {23.44527967161842, 0.4156796831716011, 1};
Point(p10 + 15) = {23.2671496919582, 0.2635423080418059, 1};
Point(p10 + 16) = {23.1150123168284, 0.08541232838158486, 1};
Point(p10 + 17) = {22.99261367331973, -0.1143241045303192, 1};
Point(p10 + 18) = {22.90296762225317, -0.3307488168283989, 1};
Point(p10 + 19) = {22.84828154692417, -0.5585327138234358, 1};
Point(p10 + 20) = {22.829902, -0.7920669999999997, 1};
Point(p10 + 21) = {22.84828154692417, -1.025601286176564, 1};
Point(p10 + 22) = {22.90296762225317, -1.253385183171601, 1};
Point(p10 + 23) = {22.99261367331973, -1.46980989546968, 1};
Point(p10 + 24) = {23.1150123168284, -1.669546328381585, 1};
Point(p10 + 25) = {23.2671496919582, -1.847676308041806, 1};
Point(p10 + 26) = {23.44527967161842, -1.999813683171601, 1};
Point(p10 + 27) = {23.64501610453032, -2.122212326680274, 1};
Point(p10 + 28) = {23.8614408168284, -2.211858377746834, 1};
Point(p10 + 29) = {24.08922471382344, -2.266544453075836, 1};
Point(p10 + 30) = {24.322759, -2.284924, 1};
Point(p10 + 31) = {24.55629328617657, -2.266544453075836, 1};
Point(p10 + 32) = {24.7840771831716, -2.211858377746834, 1};
Point(p10 + 33) = {25.00050189546968, -2.122212326680275, 1};
Point(p10 + 34) = {25.20023832838159, -1.999813683171601, 1};
Point(p10 + 35) = {25.37836830804181, -1.847676308041806, 1};
Point(p10 + 36) = {25.5305056831716, -1.669546328381585, 1};
Point(p10 + 37) = {25.65290432668028, -1.469809895469681, 1};
Point(p10 + 38) = {25.74255037774683, -1.253385183171601, 1};
Point(p10 + 39) = {25.79723645307584, -1.025601286176564, 1};
Spline(10) = {8, p10 + 1, p10 + 2, p10 + 3, p10 + 4, p10 + 5, p10 + 6, p10 + 7, p10 + 8, p10 + 9, p10 + 10, p10 + 11, p10 + 12, p10 + 13, p10 + 14, p10 + 15, p10 + 16, p10 + 17, p10 + 18, p10 + 19, p10 + 20, p10 + 21, p10 + 22, p10 + 23, p10 + 24, p10 + 25, p10 + 26, p10 + 27, p10 + 28, p10 + 29, p10 + 30, p10 + 31, p10 + 32, p10 + 33, p10 + 34, p10 + 35, p10 + 36, p10 + 37, p10 + 38, p10 + 39, 8};
Line(11) = {4, 9};
Line(12) = {9, 7};
Line(13) = {5, 9};
p14 = newp;
Point(p14 + 1) = {25.79723645307584, -0.5585327138234361, 0};
Point(p14 + 2) = {25.74255037774683, -0.3307488168283991, 0};
Point(p14 + 3) = {25.65290432668028, -0.1143241045303194, 0};
Point(p14 + 4) = {25.5305056831716, 0.08541232838158463, 0};
Point(p14 + 5) = {25.37836830804181, 0.2635423080418059, 0};
Point(p14 + 6) = {25.20023832838159, 0.4156796831716011, 0};
Point(p14 + 7) = {25.00050189546968, 0.5380783266802743, 0};
Point(p14 + 8) = {24.7840771831716, 0.6277243777468341, 0};
Point(p14 + 9) = {24.55629328617657, 0.6824104530758358, 0};
Point(p14 + 10) = {24.322759, 0.7007900000000001, 0};
Point(p14 + 11) = {24.08922471382344, 0.6824104530758356, 0};
Point(p14 + 12) = {23.8614408168284, 0.6277243777468343, 0};
Point(p14 + 13) = {23.64501610453032, 0.5380783266802746, 0};
Point(p14 + 14) = {23.44527967161842, 0.4156796831716011, 0};
Point(p14 + 15) = {23.2671496919582, 0.2635423080418059, 0};
Point(p14 + 16) = {23.1150123168284, 0.08541232838158486, 0};
Point(p14 + 17) = {22.99261367331973, -0.1143241045303192, 0};
Point(p14 + 18) = {22.90296762225317, -0.3307488168283989, 0};
Point(p14 + 19) = {22.84828154692417, -0.5585327138234358, 0};
Point(p14 + 20) = {22.829902, -0.7920669999999997, 0};
Point(p14 + 21) = {22.84828154692417, -1.025601286176564, 0};
Point(p14 + 22) = {22.90296762225317, -1.253385183171601, 0};
Point(p14 + 23) = {22.99261367331973, -1.46980989546968, 0};
Point(p14 + 24) = {23.1150123168284, -1.669546328381585, 0};
Point(p14 + 25) = {23.2671496919582, -1.847676308041806, 0};
Point(p14 + 26) = {23.44527967161842, -1.999813683171601, 0};
Point(p14 + 27) = {23.64501610453032, -2.122212326680274, 0};
Point(p14 + 28) = {23.8614408168284, -2.211858377746834, 0};
Point(p14 + 29) = {24.08922471382344, -2.266544453075836, 0};
Point(p14 + 30) = {24.322759, -2.284924, 0};
Point(p14 + 31) = {24.55629328617657, -2.266544453075836, 0};
Point(p14 + 32) = {24.7840771831716, -2.211858377746834, 0};
Point(p14 + 33) = {25.00050189546968, -2.122212326680275, 0};
Point(p14 + 34) = {25.20023832838159, -1.999813683171601, 0};
Point(p14 + 35) = {25.37836830804181, -1.847676308041806, 0};
Point(p14 + 36) = {25.5305056831716, -1.669546328381585, 0};
Point(p14 + 37) = {25.65290432668028, -1.469809895469681, 0};
Point(p14 + 38) = {25.74255037774683, -1.253385183171601, 0};
Point(p14 + 39) = {25.79723645307584, -1.025601286176564, 0};
Spline(14) = {10, p14 + 1, p14 + 2, p14 + 3, p14 + 4, p14 + 5, p14 + 6, p14 + 7, p14 + 8, p14 + 9, p14 + 10, p14 + 11, p14 + 12, p14 + 13, p14 + 14, p14 + 15, p14 + 16, p14 + 17, p14 + 18, p14 + 19, p14 + 20, p14 + 21, p14 + 22, p14 + 23, p14 + 24, p14 + 25, p14 + 26, p14 + 27, p14 + 28, p14 + 29, p14 + 30, p14 + 31, p14 + 32, p14 + 33, p14 + 34, p14 + 35, p14 + 36, p14 + 37, p14 + 38, p14 + 39, 10};
Line(15) = {10, 8};
Curve Loop(1) = {-1, 4, 3, -2};
Plane Surface(1) = {1};
Curve Loop(2) = {-5, 1, 7, -6};
Plane Surface(2) = {2};
Curve Loop(3) = {-2, 7, 9, -8, -10};
Plane Surface(3) = {3};
Curve Loop(4) = {-11, 3, 8, -12};
Plane Surface(4) = {4};
Curve Loop(5) = {-4, 5, 13, -11, -14};
Plane Surface(5) = {5};
Curve Loop(6) = {-6, 13, 12, -9};
Plane Surface(6) = {6};
Curve Loop(7) = {-10, -15, 14, 15};
Surface(7) = {7};
Surface Loop(1) = {1, 2, 3, 4, 5, 6, 7};
Volume(1) = {1};
Physical Surface("INFLOW") = {1};
Physical Surface("OUTFLOW") = {6};
Physical Surface("OBSTACLE") = {7};
Physical Surface("WALL_Y") = {2, 4};
Physical Surface("WALL_Z") = {3, 5};
Physical Volume("FLUID") = {1};
