cl__1 = 3.33383;
cl__2 = 0.835249;
cl__3 = 0.825058;
cl__4 = 0.091585;
Point(1) = {0.895118, -3.193213, 1, cl__1};
Point(2) = {0.895118, -3.193213, 0, cl__1};
Point(3) = {0.895118, 4.600326, 1, cl__1};
Point(4) = {0.895118, 4.600326, 0, cl__1};
Point(5) = {33.109779, -3.193213, 0, cl__2};
Point(6) = {33.109779, -3.193213, 1, cl__2};
Point(7) = {33.109779, 4.600326, 1, cl__3};
Point(8) = {25.673182, 0.8240809999999997, 1, cl__4};
Point(9) = {33.109779, 4.600326, 0, cl__3};
Point(10) = {25.673182, 0.8240809999999997, 0, cl__4};
Line(1) = {2, 1};
Line(2) = {1, 3};
Line(3) = {4, 3};
Line(4) = {2, 4};
Line(5) = {2, 5};
Line(6) = {5, 6};
Line(7) = {1, 6};
Line(8) = {3, 7};
Line(9) = {6, 7};
p10 = newp;
Point(p10 + 1) = {25.66190641598069, 0.9673508790692352, 1};
Point(p10 + 2) = {25.62835730622285, 1.107092978230318, 1};
Point(p10 + 3) = {25.57336076115182, 1.239866383224465, 1};
Point(p10 + 4) = {25.49827097823032, 1.362401772171052, 1};
Point(p10 + 5) = {25.40493691712257, 1.471681917122575, 1};
Point(p10 + 6) = {25.29565677217105, 1.565015978230318, 1};
Point(p10 + 7) = {25.17312138322446, 1.64010576115182, 1};
Point(p10 + 8) = {25.04034797823032, 1.695102306222851, 1};
Point(p10 + 9) = {24.90060587906924, 1.728651415980694, 1};
Point(p10 + 10) = {24.757336, 1.739927, 1};
Point(p10 + 11) = {24.61406612093076, 1.728651415980694, 1};
Point(p10 + 12) = {24.47432402176968, 1.695102306222851, 1};
Point(p10 + 13) = {24.34155061677554, 1.64010576115182, 1};
Point(p10 + 14) = {24.21901522782895, 1.565015978230318, 1};
Point(p10 + 15) = {24.10973508287742, 1.471681917122575, 1};
Point(p10 + 16) = {24.01640102176968, 1.362401772171052, 1};
Point(p10 + 17) = {23.94131123884818, 1.239866383224465, 1};
Point(p10 + 18) = {23.88631469377715, 1.107092978230318, 1};
Point(p10 + 19) = {23.85276558401931, 0.9673508790692353, 1};
Point(p10 + 20) = {23.84149, 0.8240810000000001, 1};
Point(p10 + 21) = {23.85276558401931, 0.6808111209307648, 1};
Point(p10 + 22) = {23.88631469377715, 0.5410690217696816, 1};
Point(p10 + 23) = {23.94131123884818, 0.4082956167755354, 1};
Point(p10 + 24) = {24.01640102176968, 0.2857602278289477, 1};
Point(p10 + 25) = {24.10973508287742, 0.1764800828774252, 1};
Point(p10 + 26) = {24.21901522782895, 0.08314602176968189, 1};
Point(p10 + 27) = {24.34155061677554, 0.008056238848180075, 1};
Point(p10 + 28) = {24.47432402176968, -0.04694030622285128, 1};
Point(p10 + 29) = {24.61406612093076, -0.08048941598069459, 1};
Point(p10 + 30) = {24.757336, -0.0917650000000001, 1};
Point(p10 + 31) = {24.90060587906923, -0.08048941598069459, 1};
Point(p10 + 32) = {25.04034797823032, -0.04694030622285139, 1};
Point(p10 + 33) = {25.17312138322446, 0.008056238848179964, 1};
Point(p10 + 34) = {25.29565677217105, 0.08314602176968167, 1};
Point(p10 + 35) = {25.40493691712257, 0.176480082877425, 1};
Point(p10 + 36) = {25.49827097823032, 0.2857602278289474, 1};
Point(p10 + 37) = {25.57336076115182, 0.4082956167755348, 1};
Point(p10 + 38) = {25.62835730622285, 0.5410690217696816, 1};
Point(p10 + 39) = {25.66190641598069, 0.6808111209307645, 1};
Spline(10) = {8, p10 + 1, p10 + 2, p10 + 3, p10 + 4, p10 + 5, p10 + 6, p10 + 7, p10 + 8, p10 + 9, p10 + 10, p10 + 11, p10 + 12, p10 + 13, p10 + 14, p10 + 15, p10 + 16, p10 + 17, p10 + 18, p10 + 19, p10 + 20, p10 + 21, p10 + 22, p10 + 23, p10 + 24, p10 + 25, p10 + 26, p10 + 27, p10 + 28, p10 + 29, p10 + 30, p10 + 31, p10 + 32, p10 + 33, p10 + 34, p10 + 35, p10 + 36, p10 + 37, p10 + 38, p10 + 39, 8};
Line(11) = {4, 9};
Line(12) = {9, 7};
Line(13) = {5, 9};
p14 = newp;
Point(p14 + 1) = {25.66190641598069, 0.9673508790692352, 0};
Point(p14 + 2) = {25.62835730622285, 1.107092978230318, 0};
Point(p14 + 3) = {25.57336076115182, 1.239866383224465, 0};
Point(p14 + 4) = {25.49827097823032, 1.362401772171052, 0};
Point(p14 + 5) = {25.40493691712257, 1.471681917122575, 0};
Point(p14 + 6) = {25.29565677217105, 1.565015978230318, 0};
Point(p14 + 7) = {25.17312138322446, 1.64010576115182, 0};
Point(p14 + 8) = {25.04034797823032, 1.695102306222851, 0};
Point(p14 + 9) = {24.90060587906924, 1.728651415980694, 0};
Point(p14 + 10) = {24.757336, 1.739927, 0};
Point(p14 + 11) = {24.61406612093076, 1.728651415980694, 0};
Point(p14 + 12) = {24.47432402176968, 1.695102306222851, 0};
Point(p14 + 13) = {24.34155061677554, 1.64010576115182, 0};
Point(p14 + 14) = {24.21901522782895, 1.565015978230318, 0};
Point(p14 + 15) = {24.10973508287742, 1.471681917122575, 0};
Point(p14 + 16) = {24.01640102176968, 1.362401772171052, 0};
Point(p14 + 17) = {23.94131123884818, 1.239866383224465, 0};
Point(p14 + 18) = {23.88631469377715, 1.107092978230318, 0};
Point(p14 + 19) = {23.85276558401931, 0.9673508790692353, 0};
Point(p14 + 20) = {23.84149, 0.8240810000000001, 0};
Point(p14 + 21) = {23.85276558401931, 0.6808111209307648, 0};
Point(p14 + 22) = {23.88631469377715, 0.5410690217696816, 0};
Point(p14 + 23) = {23.94131123884818, 0.4082956167755354, 0};
Point(p14 + 24) = {24.01640102176968, 0.2857602278289477, 0};
Point(p14 + 25) = {24.10973508287742, 0.1764800828774252, 0};
Point(p14 + 26) = {24.21901522782895, 0.08314602176968189, 0};
Point(p14 + 27) = {24.34155061677554, 0.008056238848180075, 0};
Point(p14 + 28) = {24.47432402176968, -0.04694030622285128, 0};
Point(p14 + 29) = {24.61406612093076, -0.08048941598069459, 0};
Point(p14 + 30) = {24.757336, -0.0917650000000001, 0};
Point(p14 + 31) = {24.90060587906923, -0.08048941598069459, 0};
Point(p14 + 32) = {25.04034797823032, -0.04694030622285139, 0};
Point(p14 + 33) = {25.17312138322446, 0.008056238848179964, 0};
Point(p14 + 34) = {25.29565677217105, 0.08314602176968167, 0};
Point(p14 + 35) = {25.40493691712257, 0.176480082877425, 0};
Point(p14 + 36) = {25.49827097823032, 0.2857602278289474, 0};
Point(p14 + 37) = {25.57336076115182, 0.4082956167755348, 0};
Point(p14 + 38) = {25.62835730622285, 0.5410690217696816, 0};
Point(p14 + 39) = {25.66190641598069, 0.6808111209307645, 0};
Spline(14) = {10, p14 + 1, p14 + 2, p14 + 3, p14 + 4, p14 + 5, p14 + 6, p14 + 7, p14 + 8, p14 + 9, p14 + 10, p14 + 11, p14 + 12, p14 + 13, p14 + 14, p14 + 15, p14 + 16, p14 + 17, p14 + 18, p14 + 19, p14 + 20, p14 + 21, p14 + 22, p14 + 23, p14 + 24, p14 + 25, p14 + 26, p14 + 27, p14 + 28, p14 + 29, p14 + 30, p14 + 31, p14 + 32, p14 + 33, p14 + 34, p14 + 35, p14 + 36, p14 + 37, p14 + 38, p14 + 39, 10};
Line(15) = {10, 8};
Curve Loop(1) = {-1, 4, 3, -2};
Plane Surface(1) = {1};
Curve Loop(2) = {-5, 1, 7, -6};
Plane Surface(2) = {2};
Curve Loop(3) = {-2, 7, 9, -8, -10};
Plane Surface(3) = {3};
Curve Loop(4) = {-11, 3, 8, -12};
Plane Surface(4) = {4};
Curve Loop(5) = {-4, 5, 13, -11, -14};
Plane Surface(5) = {5};
Curve Loop(6) = {-6, 13, 12, -9};
Plane Surface(6) = {6};
Curve Loop(7) = {-10, -15, 14, 15};
Surface(7) = {7};
Surface Loop(1) = {1, 2, 3, 4, 5, 6, 7};
Volume(1) = {1};
Physical Surface("INFLOW") = {1};
Physical Surface("OUTFLOW") = {6};
Physical Surface("OBSTACLE") = {7};
Physical Surface("WALL_Y") = {2, 4};
Physical Surface("WALL_Z") = {3, 5};
Physical Volume("FLUID") = {1};
