cl__1 = 3.865801;
cl__2 = 1.544837;
cl__3 = 1.539562;
cl__4 = 0.089577;
Point(1) = {0.91977, -3.966016, 1, cl__1};
Point(2) = {0.91977, -3.966016, 0, cl__1};
Point(3) = {0.91977, 4.142275, 1, cl__1};
Point(4) = {0.91977, 4.142275, 0, cl__1};
Point(5) = {38.444844, -3.966016, 0, cl__2};
Point(6) = {38.444844, -3.966016, 1, cl__2};
Point(7) = {38.444844, 4.142275, 1, cl__3};
Point(8) = {23.534832, 0.1942949999999998, 1, cl__4};
Point(9) = {38.444844, 4.142275, 0, cl__3};
Point(10) = {23.534832, 0.1942949999999998, 0, cl__4};
Line(1) = {2, 1};
Line(2) = {1, 3};
Line(3) = {4, 3};
Line(4) = {2, 4};
Line(5) = {2, 5};
Line(6) = {5, 6};
Line(7) = {1, 6};
Line(8) = {3, 7};
Line(9) = {6, 7};
p10 = newp;
Point(p10 + 1) = {23.52380362178988, 0.3344238314456925, 1};
Point(p10 + 2) = {23.49099004243216, 0.4711022260002635, 1};
Point(p10 + 3) = {23.43719924115264, 0.6009647079801945, 1};
Point(p10 + 4) = {23.36375572600026, 0.7208136320902717, 1};
Point(p10 + 5) = {23.27246792006313, 0.82769792006313, 1};
Point(p10 + 6) = {23.16558363209027, 0.9189857260002635, 1};
Point(p10 + 7) = {23.04573470798019, 0.9924292411526416, 1};
Point(p10 + 8) = {22.91587222600026, 1.046220042432161, 1};
Point(p10 + 9) = {22.77919383144569, 1.079033621789885, 1};
Point(p10 + 10) = {22.639065, 1.090062, 1};
Point(p10 + 11) = {22.49893616855431, 1.079033621789885, 1};
Point(p10 + 12) = {22.36225777399974, 1.046220042432161, 1};
Point(p10 + 13) = {22.2323952920198, 0.9924292411526418, 1};
Point(p10 + 14) = {22.11254636790973, 0.9189857260002635, 1};
Point(p10 + 15) = {22.00566207993687, 0.8276979200631301, 1};
Point(p10 + 16) = {21.91437427399973, 0.7208136320902718, 1};
Point(p10 + 17) = {21.84093075884736, 0.6009647079801946, 1};
Point(p10 + 18) = {21.78713995756784, 0.4711022260002636, 1};
Point(p10 + 19) = {21.75432637821011, 0.3344238314456925, 1};
Point(p10 + 20) = {21.743298, 0.1942950000000001, 1};
Point(p10 + 21) = {21.75432637821011, 0.05416616855430764, 1};
Point(p10 + 22) = {21.78713995756784, -0.08251222600026381, 1};
Point(p10 + 23) = {21.84093075884736, -0.2123747079801941, 1};
Point(p10 + 24) = {21.91437427399973, -0.3322236320902717, 1};
Point(p10 + 25) = {22.00566207993687, -0.43910792006313, 1};
Point(p10 + 26) = {22.11254636790973, -0.5303957260002634, 1};
Point(p10 + 27) = {22.2323952920198, -0.6038392411526416, 1};
Point(p10 + 28) = {22.36225777399974, -0.6576300424321608, 1};
Point(p10 + 29) = {22.49893616855431, -0.6904436217898846, 1};
Point(p10 + 30) = {22.639065, -0.701472, 1};
Point(p10 + 31) = {22.77919383144569, -0.6904436217898847, 1};
Point(p10 + 32) = {22.91587222600026, -0.6576300424321608, 1};
Point(p10 + 33) = {23.04573470798019, -0.6038392411526418, 1};
Point(p10 + 34) = {23.16558363209027, -0.5303957260002636, 1};
Point(p10 + 35) = {23.27246792006313, -0.4391079200631303, 1};
Point(p10 + 36) = {23.36375572600026, -0.3322236320902719, 1};
Point(p10 + 37) = {23.43719924115264, -0.2123747079801948, 1};
Point(p10 + 38) = {23.49099004243216, -0.0825122260002637, 1};
Point(p10 + 39) = {23.52380362178988, 0.05416616855430731, 1};
Spline(10) = {8, p10 + 1, p10 + 2, p10 + 3, p10 + 4, p10 + 5, p10 + 6, p10 + 7, p10 + 8, p10 + 9, p10 + 10, p10 + 11, p10 + 12, p10 + 13, p10 + 14, p10 + 15, p10 + 16, p10 + 17, p10 + 18, p10 + 19, p10 + 20, p10 + 21, p10 + 22, p10 + 23, p10 + 24, p10 + 25, p10 + 26, p10 + 27, p10 + 28, p10 + 29, p10 + 30, p10 + 31, p10 + 32, p10 + 33, p10 + 34, p10 + 35, p10 + 36, p10 + 37, p10 + 38, p10 + 39, 8};
Line(11) = {4, 9};
Line(12) = {9, 7};
Line(13) = {5, 9};
p14 = newp;
Point(p14 + 1) = {23.52380362178988, 0.3344238314456925, 0};
Point(p14 + 2) = {23.49099004243216, 0.4711022260002635, 0};
Point(p14 + 3) = {23.43719924115264, 0.6009647079801945, 0};
Point(p14 + 4) = {23.36375572600026, 0.7208136320902717, 0};
Point(p14 + 5) = {23.27246792006313, 0.82769792006313, 0};
Point(p14 + 6) = {23.16558363209027, 0.9189857260002635, 0};
Point(p14 + 7) = {23.04573470798019, 0.9924292411526416, 0};
Point(p14 + 8) = {22.91587222600026, 1.046220042432161, 0};
Point(p14 + 9) = {22.77919383144569, 1.079033621789885, 0};
Point(p14 + 10) = {22.639065, 1.090062, 0};
Point(p14 + 11) = {22.49893616855431, 1.079033621789885, 0};
Point(p14 + 12) = {22.36225777399974, 1.046220042432161, 0};
Point(p14 + 13) = {22.2323952920198, 0.9924292411526418, 0};
Point(p14 + 14) = {22.11254636790973, 0.9189857260002635, 0};
Point(p14 + 15) = {22.00566207993687, 0.8276979200631301, 0};
Point(p14 + 16) = {21.91437427399973, 0.7208136320902718, 0};
Point(p14 + 17) = {21.84093075884736, 0.6009647079801946, 0};
Point(p14 + 18) = {21.78713995756784, 0.4711022260002636, 0};
Point(p14 + 19) = {21.75432637821011, 0.3344238314456925, 0};
Point(p14 + 20) = {21.743298, 0.1942950000000001, 0};
Point(p14 + 21) = {21.75432637821011, 0.05416616855430764, 0};
Point(p14 + 22) = {21.78713995756784, -0.08251222600026381, 0};
Point(p14 + 23) = {21.84093075884736, -0.2123747079801941, 0};
Point(p14 + 24) = {21.91437427399973, -0.3322236320902717, 0};
Point(p14 + 25) = {22.00566207993687, -0.43910792006313, 0};
Point(p14 + 26) = {22.11254636790973, -0.5303957260002634, 0};
Point(p14 + 27) = {22.2323952920198, -0.6038392411526416, 0};
Point(p14 + 28) = {22.36225777399974, -0.6576300424321608, 0};
Point(p14 + 29) = {22.49893616855431, -0.6904436217898846, 0};
Point(p14 + 30) = {22.639065, -0.701472, 0};
Point(p14 + 31) = {22.77919383144569, -0.6904436217898847, 0};
Point(p14 + 32) = {22.91587222600026, -0.6576300424321608, 0};
Point(p14 + 33) = {23.04573470798019, -0.6038392411526418, 0};
Point(p14 + 34) = {23.16558363209027, -0.5303957260002636, 0};
Point(p14 + 35) = {23.27246792006313, -0.4391079200631303, 0};
Point(p14 + 36) = {23.36375572600026, -0.3322236320902719, 0};
Point(p14 + 37) = {23.43719924115264, -0.2123747079801948, 0};
Point(p14 + 38) = {23.49099004243216, -0.0825122260002637, 0};
Point(p14 + 39) = {23.52380362178988, 0.05416616855430731, 0};
Spline(14) = {10, p14 + 1, p14 + 2, p14 + 3, p14 + 4, p14 + 5, p14 + 6, p14 + 7, p14 + 8, p14 + 9, p14 + 10, p14 + 11, p14 + 12, p14 + 13, p14 + 14, p14 + 15, p14 + 16, p14 + 17, p14 + 18, p14 + 19, p14 + 20, p14 + 21, p14 + 22, p14 + 23, p14 + 24, p14 + 25, p14 + 26, p14 + 27, p14 + 28, p14 + 29, p14 + 30, p14 + 31, p14 + 32, p14 + 33, p14 + 34, p14 + 35, p14 + 36, p14 + 37, p14 + 38, p14 + 39, 10};
Line(15) = {10, 8};
Curve Loop(1) = {-1, 4, 3, -2};
Plane Surface(1) = {1};
Curve Loop(2) = {-5, 1, 7, -6};
Plane Surface(2) = {2};
Curve Loop(3) = {-2, 7, 9, -8, -10};
Plane Surface(3) = {3};
Curve Loop(4) = {-11, 3, 8, -12};
Plane Surface(4) = {4};
Curve Loop(5) = {-4, 5, 13, -11, -14};
Plane Surface(5) = {5};
Curve Loop(6) = {-6, 13, 12, -9};
Plane Surface(6) = {6};
Curve Loop(7) = {-10, -15, 14, 15};
Surface(7) = {7};
Surface Loop(1) = {1, 2, 3, 4, 5, 6, 7};
Volume(1) = {1};
Physical Surface("INFLOW") = {1};
Physical Surface("OUTFLOW") = {6};
Physical Surface("OBSTACLE") = {7};
Physical Surface("WALL_Y") = {2, 4};
Physical Surface("WALL_Z") = {3, 5};
Physical Volume("FLUID") = {1};
