cl__1 = 3.565654;
cl__2 = 0.756109;
cl__3 = 0.195584;
cl__4 = 0.067506;
Point(1) = {0.089461, -4.079764, 1, cl__1};
Point(2) = {0.089461, -4.079764, 0, cl__1};
Point(3) = {0.089461, 5.22803, 1, cl__1};
Point(4) = {0.089461, 5.22803, 0, cl__1};
Point(5) = {35.351523, -4.079764, 0, cl__2};
Point(6) = {35.351523, -4.079764, 1, cl__2};
Point(7) = {35.351523, 5.22803, 1, cl__3};
Point(8) = {33.78775400000001, 3.846257, 1, cl__4};
Point(9) = {35.351523, 5.22803, 0, cl__3};
Point(10) = {33.78775400000001, 3.846257, 0, cl__4};
Line(1) = {2, 1};
Line(2) = {1, 3};
Line(3) = {4, 3};
Line(4) = {2, 4};
Line(5) = {2, 5};
Line(6) = {5, 6};
Line(7) = {1, 6};
Line(8) = {3, 7};
Line(9) = {6, 7};
p10 = newp;
Point(p10 + 1) = {33.77944282964386, 3.951860432142384, 1};
Point(p10 + 2) = {33.75471396717279, 4.054863557307724, 1};
Point(p10 + 3) = {33.71417631925122, 4.152730096706677, 1};
Point(p10 + 4) = {33.65882805730773, 4.243050251338818, 1};
Point(p10 + 5) = {33.5900320392417, 4.323600039241697, 1};
Point(p10 + 6) = {33.50948225133882, 4.392396057307724, 1};
Point(p10 + 7) = {33.41916209670668, 4.44774431925122, 1};
Point(p10 + 8) = {33.32129555730773, 4.488281967172788, 1};
Point(p10 + 9) = {33.21829243214238, 4.513010829643857, 1};
Point(p10 + 10) = {33.112689, 4.521322, 1};
Point(p10 + 11) = {33.00708556785762, 4.513010829643857, 1};
Point(p10 + 12) = {32.90408244269228, 4.488281967172788, 1};
Point(p10 + 13) = {32.80621590329333, 4.44774431925122, 1};
Point(p10 + 14) = {32.71589574866118, 4.392396057307724, 1};
Point(p10 + 15) = {32.63534596075831, 4.323600039241697, 1};
Point(p10 + 16) = {32.56654994269228, 4.243050251338818, 1};
Point(p10 + 17) = {32.51120168074878, 4.152730096706677, 1};
Point(p10 + 18) = {32.47066403282722, 4.054863557307724, 1};
Point(p10 + 19) = {32.44593517035614, 3.951860432142384, 1};
Point(p10 + 20) = {32.437624, 3.846257, 1};
Point(p10 + 21) = {32.44593517035614, 3.740653567857616, 1};
Point(p10 + 22) = {32.47066403282722, 3.637650442692276, 1};
Point(p10 + 23) = {32.51120168074878, 3.539783903293323, 1};
Point(p10 + 24) = {32.56654994269228, 3.449463748661182, 1};
Point(p10 + 25) = {32.63534596075831, 3.368913960758303, 1};
Point(p10 + 26) = {32.71589574866118, 3.300117942692276, 1};
Point(p10 + 27) = {32.80621590329333, 3.244769680748779, 1};
Point(p10 + 28) = {32.90408244269228, 3.204232032827212, 1};
Point(p10 + 29) = {33.00708556785762, 3.179503170356143, 1};
Point(p10 + 30) = {33.112689, 3.171192, 1};
Point(p10 + 31) = {33.21829243214238, 3.179503170356143, 1};
Point(p10 + 32) = {33.32129555730773, 3.204232032827212, 1};
Point(p10 + 33) = {33.41916209670668, 3.244769680748779, 1};
Point(p10 + 34) = {33.50948225133882, 3.300117942692276, 1};
Point(p10 + 35) = {33.5900320392417, 3.368913960758303, 1};
Point(p10 + 36) = {33.65882805730773, 3.449463748661182, 1};
Point(p10 + 37) = {33.71417631925122, 3.539783903293323, 1};
Point(p10 + 38) = {33.75471396717279, 3.637650442692276, 1};
Point(p10 + 39) = {33.77944282964386, 3.740653567857616, 1};
Spline(10) = {8, p10 + 1, p10 + 2, p10 + 3, p10 + 4, p10 + 5, p10 + 6, p10 + 7, p10 + 8, p10 + 9, p10 + 10, p10 + 11, p10 + 12, p10 + 13, p10 + 14, p10 + 15, p10 + 16, p10 + 17, p10 + 18, p10 + 19, p10 + 20, p10 + 21, p10 + 22, p10 + 23, p10 + 24, p10 + 25, p10 + 26, p10 + 27, p10 + 28, p10 + 29, p10 + 30, p10 + 31, p10 + 32, p10 + 33, p10 + 34, p10 + 35, p10 + 36, p10 + 37, p10 + 38, p10 + 39, 8};
Line(11) = {4, 9};
Line(12) = {9, 7};
Line(13) = {5, 9};
p14 = newp;
Point(p14 + 1) = {33.77944282964386, 3.951860432142384, 0};
Point(p14 + 2) = {33.75471396717279, 4.054863557307724, 0};
Point(p14 + 3) = {33.71417631925122, 4.152730096706677, 0};
Point(p14 + 4) = {33.65882805730773, 4.243050251338818, 0};
Point(p14 + 5) = {33.5900320392417, 4.323600039241697, 0};
Point(p14 + 6) = {33.50948225133882, 4.392396057307724, 0};
Point(p14 + 7) = {33.41916209670668, 4.44774431925122, 0};
Point(p14 + 8) = {33.32129555730773, 4.488281967172788, 0};
Point(p14 + 9) = {33.21829243214238, 4.513010829643857, 0};
Point(p14 + 10) = {33.112689, 4.521322, 0};
Point(p14 + 11) = {33.00708556785762, 4.513010829643857, 0};
Point(p14 + 12) = {32.90408244269228, 4.488281967172788, 0};
Point(p14 + 13) = {32.80621590329333, 4.44774431925122, 0};
Point(p14 + 14) = {32.71589574866118, 4.392396057307724, 0};
Point(p14 + 15) = {32.63534596075831, 4.323600039241697, 0};
Point(p14 + 16) = {32.56654994269228, 4.243050251338818, 0};
Point(p14 + 17) = {32.51120168074878, 4.152730096706677, 0};
Point(p14 + 18) = {32.47066403282722, 4.054863557307724, 0};
Point(p14 + 19) = {32.44593517035614, 3.951860432142384, 0};
Point(p14 + 20) = {32.437624, 3.846257, 0};
Point(p14 + 21) = {32.44593517035614, 3.740653567857616, 0};
Point(p14 + 22) = {32.47066403282722, 3.637650442692276, 0};
Point(p14 + 23) = {32.51120168074878, 3.539783903293323, 0};
Point(p14 + 24) = {32.56654994269228, 3.449463748661182, 0};
Point(p14 + 25) = {32.63534596075831, 3.368913960758303, 0};
Point(p14 + 26) = {32.71589574866118, 3.300117942692276, 0};
Point(p14 + 27) = {32.80621590329333, 3.244769680748779, 0};
Point(p14 + 28) = {32.90408244269228, 3.204232032827212, 0};
Point(p14 + 29) = {33.00708556785762, 3.179503170356143, 0};
Point(p14 + 30) = {33.112689, 3.171192, 0};
Point(p14 + 31) = {33.21829243214238, 3.179503170356143, 0};
Point(p14 + 32) = {33.32129555730773, 3.204232032827212, 0};
Point(p14 + 33) = {33.41916209670668, 3.244769680748779, 0};
Point(p14 + 34) = {33.50948225133882, 3.300117942692276, 0};
Point(p14 + 35) = {33.5900320392417, 3.368913960758303, 0};
Point(p14 + 36) = {33.65882805730773, 3.449463748661182, 0};
Point(p14 + 37) = {33.71417631925122, 3.539783903293323, 0};
Point(p14 + 38) = {33.75471396717279, 3.637650442692276, 0};
Point(p14 + 39) = {33.77944282964386, 3.740653567857616, 0};
Spline(14) = {10, p14 + 1, p14 + 2, p14 + 3, p14 + 4, p14 + 5, p14 + 6, p14 + 7, p14 + 8, p14 + 9, p14 + 10, p14 + 11, p14 + 12, p14 + 13, p14 + 14, p14 + 15, p14 + 16, p14 + 17, p14 + 18, p14 + 19, p14 + 20, p14 + 21, p14 + 22, p14 + 23, p14 + 24, p14 + 25, p14 + 26, p14 + 27, p14 + 28, p14 + 29, p14 + 30, p14 + 31, p14 + 32, p14 + 33, p14 + 34, p14 + 35, p14 + 36, p14 + 37, p14 + 38, p14 + 39, 10};
Line(15) = {10, 8};
Curve Loop(1) = {-1, 4, 3, -2};
Plane Surface(1) = {1};
Curve Loop(2) = {-5, 1, 7, -6};
Plane Surface(2) = {2};
Curve Loop(3) = {-2, 7, 9, -8, -10};
Plane Surface(3) = {3};
Curve Loop(4) = {-11, 3, 8, -12};
Plane Surface(4) = {4};
Curve Loop(5) = {-4, 5, 13, -11, -14};
Plane Surface(5) = {5};
Curve Loop(6) = {-6, 13, 12, -9};
Plane Surface(6) = {6};
Curve Loop(7) = {-10, -15, 14, 15};
Surface(7) = {7};
Surface Loop(1) = {1, 2, 3, 4, 5, 6, 7};
Volume(1) = {1};
Physical Surface("INFLOW") = {1};
Physical Surface("OUTFLOW") = {6};
Physical Surface("OBSTACLE") = {7};
Physical Surface("WALL_Y") = {2, 4};
Physical Surface("WALL_Z") = {3, 5};
Physical Volume("FLUID") = {1};
