cl__1 = 0.465002;
cl__2 = 3.061157;
cl__3 = 0.08268499999999999;
cl__4 = 0.055028;
Point(1) = {0.39402, -3.989045, 1, cl__1};
Point(2) = {0.39402, -3.989045, 0, cl__1};
Point(3) = {0.39402, 5.117829, 1, cl__2};
Point(4) = {0.39402, 5.117829, 0, cl__2};
Point(5) = {30.27102, -3.989045, 0, cl__1};
Point(6) = {30.27102, -3.989045, 1, cl__1};
Point(7) = {30.27102, 5.117829, 1, cl__2};
Point(8) = {12.302707, -2.625873, 1, cl__3};
Point(9) = {4.658047, -0.3488070000000001, 1, cl__4};
Point(10) = {30.27102, 5.117829, 0, cl__2};
Point(11) = {12.302707, -2.625873, 0, cl__3};
Point(12) = {4.658047, -0.3488070000000001, 0, cl__4};
Line(1) = {2, 1};
Line(2) = {1, 3};
Line(3) = {4, 3};
Line(4) = {2, 4};
Line(5) = {2, 5};
Line(6) = {5, 6};
Line(7) = {1, 6};
Line(8) = {3, 7};
Line(9) = {6, 7};
p10 = newp;
Point(p10 + 1) = {12.29252715366773, -2.496525788319345, 1};
Point(p10 + 2) = {12.26223827627258, -2.370363534269052, 1};
Point(p10 + 3) = {12.21258618049906, -2.250492771252355, 1};
Point(p10 + 4) = {12.14479346573095, -2.139865115282978, 1};
Point(p10 + 5) = {12.06052941359697, -2.041204586403028, 1};
Point(p10 + 6) = {11.96186888471702, -1.956940534269052, 1};
Point(p10 + 7) = {11.85124122874764, -1.889147819500945, 1};
Point(p10 + 8) = {11.73137046573095, -1.839495723727417, 1};
Point(p10 + 9) = {11.60520821168065, -1.809206846332273, 1};
Point(p10 + 10) = {11.475861, -1.799027, 1};
Point(p10 + 11) = {11.34651378831935, -1.809206846332273, 1};
Point(p10 + 12) = {11.22035153426905, -1.839495723727417, 1};
Point(p10 + 13) = {11.10048077125236, -1.889147819500945, 1};
Point(p10 + 14) = {10.98985311528298, -1.956940534269052, 1};
Point(p10 + 15) = {10.89119258640303, -2.041204586403028, 1};
Point(p10 + 16) = {10.80692853426905, -2.139865115282978, 1};
Point(p10 + 17) = {10.73913581950094, -2.250492771252354, 1};
Point(p10 + 18) = {10.68948372372742, -2.370363534269052, 1};
Point(p10 + 19) = {10.65919484633227, -2.496525788319345, 1};
Point(p10 + 20) = {10.649015, -2.625873, 1};
Point(p10 + 21) = {10.65919484633227, -2.755220211680654, 1};
Point(p10 + 22) = {10.68948372372742, -2.881382465730948, 1};
Point(p10 + 23) = {10.73913581950094, -3.001253228747645, 1};
Point(p10 + 24) = {10.80692853426905, -3.111880884717022, 1};
Point(p10 + 25) = {10.89119258640303, -3.210541413596972, 1};
Point(p10 + 26) = {10.98985311528298, -3.294805465730947, 1};
Point(p10 + 27) = {11.10048077125236, -3.362598180499055, 1};
Point(p10 + 28) = {11.22035153426905, -3.412250276272582, 1};
Point(p10 + 29) = {11.34651378831935, -3.442539153667727, 1};
Point(p10 + 30) = {11.475861, -3.452719, 1};
Point(p10 + 31) = {11.60520821168065, -3.442539153667727, 1};
Point(p10 + 32) = {11.73137046573095, -3.412250276272582, 1};
Point(p10 + 33) = {11.85124122874764, -3.362598180499055, 1};
Point(p10 + 34) = {11.96186888471702, -3.294805465730948, 1};
Point(p10 + 35) = {12.06052941359697, -3.210541413596972, 1};
Point(p10 + 36) = {12.14479346573095, -3.111880884717023, 1};
Point(p10 + 37) = {12.21258618049906, -3.001253228747645, 1};
Point(p10 + 38) = {12.26223827627258, -2.881382465730948, 1};
Point(p10 + 39) = {12.29252715366773, -2.755220211680655, 1};
Spline(10) = {8, p10 + 1, p10 + 2, p10 + 3, p10 + 4, p10 + 5, p10 + 6, p10 + 7, p10 + 8, p10 + 9, p10 + 10, p10 + 11, p10 + 12, p10 + 13, p10 + 14, p10 + 15, p10 + 16, p10 + 17, p10 + 18, p10 + 19, p10 + 20, p10 + 21, p10 + 22, p10 + 23, p10 + 24, p10 + 25, p10 + 26, p10 + 27, p10 + 28, p10 + 29, p10 + 30, p10 + 31, p10 + 32, p10 + 33, p10 + 34, p10 + 35, p10 + 36, p10 + 37, p10 + 38, p10 + 39, 8};
p11 = newp;
Point(p11 + 1) = {4.651272078504396, -0.2627234604053366, 1};
Point(p11 + 2) = {4.631114135069478, -0.178759583250382, 1};
Point(p11 + 3) = {4.598069525162996, -0.09898283785082349, 1};
Point(p11 + 4) = {4.552951916749618, -0.0253575924422364, 1};
Point(p11 + 5) = {4.49687225508524, 0.0403032550852393, 1};
Point(p11 + 6) = {4.431211407557764, 0.09638291674961802, 1};
Point(p11 + 7) = {4.357586162149176, 0.141500525162996, 1};
Point(p11 + 8) = {4.277809416749618, 0.1745451350694786, 1};
Point(p11 + 9) = {4.193845539594664, 0.1947030785043954, 1};
Point(p11 + 10) = {4.107762, 0.201478, 1};
Point(p11 + 11) = {4.021678460405337, 0.1947030785043954, 1};
Point(p11 + 12) = {3.937714583250382, 0.1745451350694787, 1};
Point(p11 + 13) = {3.857937837850824, 0.141500525162996, 1};
Point(p11 + 14) = {3.784312592442237, 0.09638291674961802, 1};
Point(p11 + 15) = {3.718651744914761, 0.04030325508523935, 1};
Point(p11 + 16) = {3.662572083250382, -0.02535759244223634, 1};
Point(p11 + 17) = {3.617454474837004, -0.09898283785082343, 1};
Point(p11 + 18) = {3.584409864930522, -0.178759583250382, 1};
Point(p11 + 19) = {3.564251921495605, -0.2627234604053365, 1};
Point(p11 + 20) = {3.557477, -0.3488069999999999, 1};
Point(p11 + 21) = {3.564251921495605, -0.4348905395946633, 1};
Point(p11 + 22) = {3.584409864930522, -0.5188544167496181, 1};
Point(p11 + 23) = {3.617454474837004, -0.5986311621491762, 1};
Point(p11 + 24) = {3.662572083250382, -0.6722564075577635, 1};
Point(p11 + 25) = {3.718651744914761, -0.7379172550852393, 1};
Point(p11 + 26) = {3.784312592442237, -0.7939969167496179, 1};
Point(p11 + 27) = {3.857937837850824, -0.8391145251629959, 1};
Point(p11 + 28) = {3.937714583250382, -0.8721591350694785, 1};
Point(p11 + 29) = {4.021678460405337, -0.8923170785043953, 1};
Point(p11 + 30) = {4.107762, -0.899092, 1};
Point(p11 + 31) = {4.193845539594664, -0.8923170785043953, 1};
Point(p11 + 32) = {4.277809416749618, -0.8721591350694786, 1};
Point(p11 + 33) = {4.357586162149176, -0.839114525162996, 1};
Point(p11 + 34) = {4.431211407557764, -0.793996916749618, 1};
Point(p11 + 35) = {4.49687225508524, -0.7379172550852393, 1};
Point(p11 + 36) = {4.552951916749618, -0.6722564075577637, 1};
Point(p11 + 37) = {4.598069525162996, -0.5986311621491766, 1};
Point(p11 + 38) = {4.631114135069478, -0.5188544167496181, 1};
Point(p11 + 39) = {4.651272078504396, -0.4348905395946636, 1};
Spline(11) = {9, p11 + 1, p11 + 2, p11 + 3, p11 + 4, p11 + 5, p11 + 6, p11 + 7, p11 + 8, p11 + 9, p11 + 10, p11 + 11, p11 + 12, p11 + 13, p11 + 14, p11 + 15, p11 + 16, p11 + 17, p11 + 18, p11 + 19, p11 + 20, p11 + 21, p11 + 22, p11 + 23, p11 + 24, p11 + 25, p11 + 26, p11 + 27, p11 + 28, p11 + 29, p11 + 30, p11 + 31, p11 + 32, p11 + 33, p11 + 34, p11 + 35, p11 + 36, p11 + 37, p11 + 38, p11 + 39, 9};
Line(12) = {4, 10};
Line(13) = {10, 7};
Line(14) = {5, 10};
p15 = newp;
Point(p15 + 1) = {12.29252715366773, -2.496525788319345, 0};
Point(p15 + 2) = {12.26223827627258, -2.370363534269052, 0};
Point(p15 + 3) = {12.21258618049906, -2.250492771252355, 0};
Point(p15 + 4) = {12.14479346573095, -2.139865115282978, 0};
Point(p15 + 5) = {12.06052941359697, -2.041204586403028, 0};
Point(p15 + 6) = {11.96186888471702, -1.956940534269052, 0};
Point(p15 + 7) = {11.85124122874764, -1.889147819500945, 0};
Point(p15 + 8) = {11.73137046573095, -1.839495723727417, 0};
Point(p15 + 9) = {11.60520821168065, -1.809206846332273, 0};
Point(p15 + 10) = {11.475861, -1.799027, 0};
Point(p15 + 11) = {11.34651378831935, -1.809206846332273, 0};
Point(p15 + 12) = {11.22035153426905, -1.839495723727417, 0};
Point(p15 + 13) = {11.10048077125236, -1.889147819500945, 0};
Point(p15 + 14) = {10.98985311528298, -1.956940534269052, 0};
Point(p15 + 15) = {10.89119258640303, -2.041204586403028, 0};
Point(p15 + 16) = {10.80692853426905, -2.139865115282978, 0};
Point(p15 + 17) = {10.73913581950094, -2.250492771252354, 0};
Point(p15 + 18) = {10.68948372372742, -2.370363534269052, 0};
Point(p15 + 19) = {10.65919484633227, -2.496525788319345, 0};
Point(p15 + 20) = {10.649015, -2.625873, 0};
Point(p15 + 21) = {10.65919484633227, -2.755220211680654, 0};
Point(p15 + 22) = {10.68948372372742, -2.881382465730948, 0};
Point(p15 + 23) = {10.73913581950094, -3.001253228747645, 0};
Point(p15 + 24) = {10.80692853426905, -3.111880884717022, 0};
Point(p15 + 25) = {10.89119258640303, -3.210541413596972, 0};
Point(p15 + 26) = {10.98985311528298, -3.294805465730947, 0};
Point(p15 + 27) = {11.10048077125236, -3.362598180499055, 0};
Point(p15 + 28) = {11.22035153426905, -3.412250276272582, 0};
Point(p15 + 29) = {11.34651378831935, -3.442539153667727, 0};
Point(p15 + 30) = {11.475861, -3.452719, 0};
Point(p15 + 31) = {11.60520821168065, -3.442539153667727, 0};
Point(p15 + 32) = {11.73137046573095, -3.412250276272582, 0};
Point(p15 + 33) = {11.85124122874764, -3.362598180499055, 0};
Point(p15 + 34) = {11.96186888471702, -3.294805465730948, 0};
Point(p15 + 35) = {12.06052941359697, -3.210541413596972, 0};
Point(p15 + 36) = {12.14479346573095, -3.111880884717023, 0};
Point(p15 + 37) = {12.21258618049906, -3.001253228747645, 0};
Point(p15 + 38) = {12.26223827627258, -2.881382465730948, 0};
Point(p15 + 39) = {12.29252715366773, -2.755220211680655, 0};
Spline(15) = {11, p15 + 1, p15 + 2, p15 + 3, p15 + 4, p15 + 5, p15 + 6, p15 + 7, p15 + 8, p15 + 9, p15 + 10, p15 + 11, p15 + 12, p15 + 13, p15 + 14, p15 + 15, p15 + 16, p15 + 17, p15 + 18, p15 + 19, p15 + 20, p15 + 21, p15 + 22, p15 + 23, p15 + 24, p15 + 25, p15 + 26, p15 + 27, p15 + 28, p15 + 29, p15 + 30, p15 + 31, p15 + 32, p15 + 33, p15 + 34, p15 + 35, p15 + 36, p15 + 37, p15 + 38, p15 + 39, 11};
p16 = newp;
Point(p16 + 1) = {4.651272078504396, -0.2627234604053366, 0};
Point(p16 + 2) = {4.631114135069478, -0.178759583250382, 0};
Point(p16 + 3) = {4.598069525162996, -0.09898283785082349, 0};
Point(p16 + 4) = {4.552951916749618, -0.0253575924422364, 0};
Point(p16 + 5) = {4.49687225508524, 0.0403032550852393, 0};
Point(p16 + 6) = {4.431211407557764, 0.09638291674961802, 0};
Point(p16 + 7) = {4.357586162149176, 0.141500525162996, 0};
Point(p16 + 8) = {4.277809416749618, 0.1745451350694786, 0};
Point(p16 + 9) = {4.193845539594664, 0.1947030785043954, 0};
Point(p16 + 10) = {4.107762, 0.201478, 0};
Point(p16 + 11) = {4.021678460405337, 0.1947030785043954, 0};
Point(p16 + 12) = {3.937714583250382, 0.1745451350694787, 0};
Point(p16 + 13) = {3.857937837850824, 0.141500525162996, 0};
Point(p16 + 14) = {3.784312592442237, 0.09638291674961802, 0};
Point(p16 + 15) = {3.718651744914761, 0.04030325508523935, 0};
Point(p16 + 16) = {3.662572083250382, -0.02535759244223634, 0};
Point(p16 + 17) = {3.617454474837004, -0.09898283785082343, 0};
Point(p16 + 18) = {3.584409864930522, -0.178759583250382, 0};
Point(p16 + 19) = {3.564251921495605, -0.2627234604053365, 0};
Point(p16 + 20) = {3.557477, -0.3488069999999999, 0};
Point(p16 + 21) = {3.564251921495605, -0.4348905395946633, 0};
Point(p16 + 22) = {3.584409864930522, -0.5188544167496181, 0};
Point(p16 + 23) = {3.617454474837004, -0.5986311621491762, 0};
Point(p16 + 24) = {3.662572083250382, -0.6722564075577635, 0};
Point(p16 + 25) = {3.718651744914761, -0.7379172550852393, 0};
Point(p16 + 26) = {3.784312592442237, -0.7939969167496179, 0};
Point(p16 + 27) = {3.857937837850824, -0.8391145251629959, 0};
Point(p16 + 28) = {3.937714583250382, -0.8721591350694785, 0};
Point(p16 + 29) = {4.021678460405337, -0.8923170785043953, 0};
Point(p16 + 30) = {4.107762, -0.899092, 0};
Point(p16 + 31) = {4.193845539594664, -0.8923170785043953, 0};
Point(p16 + 32) = {4.277809416749618, -0.8721591350694786, 0};
Point(p16 + 33) = {4.357586162149176, -0.839114525162996, 0};
Point(p16 + 34) = {4.431211407557764, -0.793996916749618, 0};
Point(p16 + 35) = {4.49687225508524, -0.7379172550852393, 0};
Point(p16 + 36) = {4.552951916749618, -0.6722564075577637, 0};
Point(p16 + 37) = {4.598069525162996, -0.5986311621491766, 0};
Point(p16 + 38) = {4.631114135069478, -0.5188544167496181, 0};
Point(p16 + 39) = {4.651272078504396, -0.4348905395946636, 0};
Spline(16) = {12, p16 + 1, p16 + 2, p16 + 3, p16 + 4, p16 + 5, p16 + 6, p16 + 7, p16 + 8, p16 + 9, p16 + 10, p16 + 11, p16 + 12, p16 + 13, p16 + 14, p16 + 15, p16 + 16, p16 + 17, p16 + 18, p16 + 19, p16 + 20, p16 + 21, p16 + 22, p16 + 23, p16 + 24, p16 + 25, p16 + 26, p16 + 27, p16 + 28, p16 + 29, p16 + 30, p16 + 31, p16 + 32, p16 + 33, p16 + 34, p16 + 35, p16 + 36, p16 + 37, p16 + 38, p16 + 39, 12};
Line(17) = {11, 8};
Line(18) = {12, 9};
Curve Loop(1) = {-1, 4, 3, -2};
Plane Surface(1) = {1};
Curve Loop(2) = {-5, 1, 7, -6};
Plane Surface(2) = {2};
Curve Loop(3) = {-2, 7, 9, -8, -10, -11};
Plane Surface(3) = {3};
Curve Loop(4) = {-12, 3, 8, -13};
Plane Surface(4) = {4};
Curve Loop(5) = {-4, 5, 14, -12, -15, -16};
Plane Surface(5) = {5};
Curve Loop(6) = {-6, 14, 13, -9};
Plane Surface(6) = {6};
Curve Loop(7) = {-10, -17, 15, 17};
Surface(7) = {7};
Curve Loop(8) = {-11, -18, 16, 18};
Surface(8) = {8};
Surface Loop(1) = {1, 2, 3, 4, 5, 6, 7, 8};
Volume(1) = {1};
Physical Surface("INFLOW") = {1};
Physical Surface("OUTFLOW") = {6};
Physical Surface("OBSTACLE") = {7, 8};
Physical Surface("WALL_Y") = {2, 4};
Physical Surface("WALL_Z") = {3, 5};
Physical Volume("FLUID") = {1};
