cl__1 = 3.705012;
cl__2 = 0.987531;
cl__3 = 1.147105;
cl__4 = 0.14552;
cl__5 = 0.14574;
Point(1) = {0.025962, -3.5614, 1, cl__1};
Point(2) = {0.025962, -3.5614, 0, cl__1};
Point(3) = {0.025962, 4.924024999999999, 1, cl__2};
Point(4) = {0.025962, 4.924024999999999, 0, cl__2};
Point(5) = {36.806394, -3.5614, 0, cl__1};
Point(6) = {36.806394, -3.5614, 1, cl__1};
Point(7) = {36.806394, 4.924024999999999, 1, cl__3};
Point(8) = {25.730466, -0.3898580000000004, 1, cl__4};
Point(9) = {28.382945, 1.988301, 1, cl__5};
Point(10) = {36.806394, 4.924024999999999, 0, cl__3};
Point(11) = {25.730466, -0.3898580000000004, 0, cl__4};
Point(12) = {28.382945, 1.988301, 0, cl__5};
Line(1) = {2, 1};
Line(2) = {1, 3};
Line(3) = {4, 3};
Line(4) = {2, 4};
Line(5) = {2, 5};
Line(6) = {5, 6};
Line(7) = {1, 6};
Line(8) = {3, 7};
Line(9) = {6, 7};
p10 = newp;
Point(p10 + 1) = {25.71255004861073, -0.1622142536045259, 1};
Point(p10 + 2) = {25.65924334462574, 0.05982414824841226, 1};
Point(p10 + 3) = {25.57185847601196, 0.270789883201988, 1};
Point(p10 + 4) = {25.45254714824841, 0.4654882747065116, 1};
Point(p10 + 5) = {25.30424720219623, 0.6391252021962264, 1};
Point(p10 + 6) = {25.13061027470651, 0.7874251482484123, 1};
Point(p10 + 7) = {24.93591188320199, 0.9067364760119612, 1};
Point(p10 + 8) = {24.72494614824841, 0.99412134462574, 1};
Point(p10 + 9) = {24.50290774639548, 1.047428048610726, 1};
Point(p10 + 10) = {24.275264, 1.065344, 1};
Point(p10 + 11) = {24.04762025360452, 1.047428048610725, 1};
Point(p10 + 12) = {23.82558185175159, 0.9941213446257402, 1};
Point(p10 + 13) = {23.61461611679801, 0.9067364760119614, 1};
Point(p10 + 14) = {23.41991772529349, 0.7874251482484123, 1};
Point(p10 + 15) = {23.24628079780377, 0.6391252021962264, 1};
Point(p10 + 16) = {23.09798085175159, 0.4654882747065117, 1};
Point(p10 + 17) = {22.97866952398804, 0.2707898832019881, 1};
Point(p10 + 18) = {22.89128465537426, 0.05982414824841242, 1};
Point(p10 + 19) = {22.83797795138927, -0.1622142536045258, 1};
Point(p10 + 20) = {22.820062, -0.3898579999999998, 1};
Point(p10 + 21) = {22.83797795138927, -0.6175017463954738, 1};
Point(p10 + 22) = {22.89128465537426, -0.8395401482484127, 1};
Point(p10 + 23) = {22.97866952398804, -1.050505883201987, 1};
Point(p10 + 24) = {23.09798085175159, -1.245204274706511, 1};
Point(p10 + 25) = {23.24628079780377, -1.418841202196226, 1};
Point(p10 + 26) = {23.41991772529349, -1.567141148248412, 1};
Point(p10 + 27) = {23.61461611679801, -1.686452476011961, 1};
Point(p10 + 28) = {23.82558185175159, -1.77383734462574, 1};
Point(p10 + 29) = {24.04762025360452, -1.827144048610726, 1};
Point(p10 + 30) = {24.275264, -1.84506, 1};
Point(p10 + 31) = {24.50290774639547, -1.827144048610726, 1};
Point(p10 + 32) = {24.72494614824841, -1.77383734462574, 1};
Point(p10 + 33) = {24.93591188320199, -1.686452476011961, 1};
Point(p10 + 34) = {25.13061027470651, -1.567141148248413, 1};
Point(p10 + 35) = {25.30424720219623, -1.418841202196227, 1};
Point(p10 + 36) = {25.45254714824841, -1.245204274706512, 1};
Point(p10 + 37) = {25.57185847601196, -1.050505883201988, 1};
Point(p10 + 38) = {25.65924334462574, -0.8395401482484126, 1};
Point(p10 + 39) = {25.71255004861073, -0.6175017463954744, 1};
Spline(10) = {8, p10 + 1, p10 + 2, p10 + 3, p10 + 4, p10 + 5, p10 + 6, p10 + 7, p10 + 8, p10 + 9, p10 + 10, p10 + 11, p10 + 12, p10 + 13, p10 + 14, p10 + 15, p10 + 16, p10 + 17, p10 + 18, p10 + 19, p10 + 20, p10 + 21, p10 + 22, p10 + 23, p10 + 24, p10 + 25, p10 + 26, p10 + 27, p10 + 28, p10 + 29, p10 + 30, p10 + 31, p10 + 32, p10 + 33, p10 + 34, p10 + 35, p10 + 36, p10 + 37, p10 + 38, p10 + 39, 8};
p11 = newp;
Point(p11 + 1) = {28.36500195064838, 2.216289058653027, 1};
Point(p11 + 2) = {28.3116146200181, 2.438663294653032, 1};
Point(p11 + 3) = {28.2240975813717, 2.649948116291915, 1};
Point(p11 + 4) = {28.10460579465303, 2.844940990046807, 1};
Point(p11 + 5) = {27.95608154422162, 3.018840544221618, 1};
Point(p11 + 6) = {27.78218199004681, 3.167364794653031, 1};
Point(p11 + 7) = {27.58718911629191, 3.2868565813717, 1};
Point(p11 + 8) = {27.37590429465303, 3.374373620018106, 1};
Point(p11 + 9) = {27.15353005865303, 3.427760950648376, 1};
Point(p11 + 10) = {26.925542, 3.445704, 1};
Point(p11 + 11) = {26.69755394134697, 3.427760950648375, 1};
Point(p11 + 12) = {26.47517970534697, 3.374373620018106, 1};
Point(p11 + 13) = {26.26389488370809, 3.2868565813717, 1};
Point(p11 + 14) = {26.06890200995319, 3.167364794653031, 1};
Point(p11 + 15) = {25.89500245577838, 3.018840544221618, 1};
Point(p11 + 16) = {25.74647820534697, 2.844940990046807, 1};
Point(p11 + 17) = {25.6269864186283, 2.649948116291915, 1};
Point(p11 + 18) = {25.5394693799819, 2.438663294653032, 1};
Point(p11 + 19) = {25.48608204935162, 2.216289058653028, 1};
Point(p11 + 20) = {25.468139, 1.988301, 1};
Point(p11 + 21) = {25.48608204935162, 1.760312941346973, 1};
Point(p11 + 22) = {25.5394693799819, 1.537938705346968, 1};
Point(p11 + 23) = {25.6269864186283, 1.326653883708086, 1};
Point(p11 + 24) = {25.74647820534697, 1.131661009953193, 1};
Point(p11 + 25) = {25.89500245577838, 0.9577614557783822, 1};
Point(p11 + 26) = {26.06890200995319, 0.8092372053469687, 1};
Point(p11 + 27) = {26.26389488370809, 0.6897454186283003, 1};
Point(p11 + 28) = {26.47517970534697, 0.6022283799818944, 1};
Point(p11 + 29) = {26.69755394134697, 0.5488410493516247, 1};
Point(p11 + 30) = {26.925542, 0.5308980000000001, 1};
Point(p11 + 31) = {27.15353005865303, 0.5488410493516245, 1};
Point(p11 + 32) = {27.37590429465303, 0.6022283799818944, 1};
Point(p11 + 33) = {27.58718911629191, 0.6897454186283001, 1};
Point(p11 + 34) = {27.78218199004681, 0.8092372053469683, 1};
Point(p11 + 35) = {27.95608154422162, 0.957761455778382, 1};
Point(p11 + 36) = {28.10460579465303, 1.131661009953193, 1};
Point(p11 + 37) = {28.2240975813717, 1.326653883708085, 1};
Point(p11 + 38) = {28.3116146200181, 1.537938705346968, 1};
Point(p11 + 39) = {28.36500195064838, 1.760312941346972, 1};
Spline(11) = {9, p11 + 1, p11 + 2, p11 + 3, p11 + 4, p11 + 5, p11 + 6, p11 + 7, p11 + 8, p11 + 9, p11 + 10, p11 + 11, p11 + 12, p11 + 13, p11 + 14, p11 + 15, p11 + 16, p11 + 17, p11 + 18, p11 + 19, p11 + 20, p11 + 21, p11 + 22, p11 + 23, p11 + 24, p11 + 25, p11 + 26, p11 + 27, p11 + 28, p11 + 29, p11 + 30, p11 + 31, p11 + 32, p11 + 33, p11 + 34, p11 + 35, p11 + 36, p11 + 37, p11 + 38, p11 + 39, 9};
Line(12) = {4, 10};
Line(13) = {10, 7};
Line(14) = {5, 10};
p15 = newp;
Point(p15 + 1) = {25.71255004861073, -0.1622142536045259, 0};
Point(p15 + 2) = {25.65924334462574, 0.05982414824841226, 0};
Point(p15 + 3) = {25.57185847601196, 0.270789883201988, 0};
Point(p15 + 4) = {25.45254714824841, 0.4654882747065116, 0};
Point(p15 + 5) = {25.30424720219623, 0.6391252021962264, 0};
Point(p15 + 6) = {25.13061027470651, 0.7874251482484123, 0};
Point(p15 + 7) = {24.93591188320199, 0.9067364760119612, 0};
Point(p15 + 8) = {24.72494614824841, 0.99412134462574, 0};
Point(p15 + 9) = {24.50290774639548, 1.047428048610726, 0};
Point(p15 + 10) = {24.275264, 1.065344, 0};
Point(p15 + 11) = {24.04762025360452, 1.047428048610725, 0};
Point(p15 + 12) = {23.82558185175159, 0.9941213446257402, 0};
Point(p15 + 13) = {23.61461611679801, 0.9067364760119614, 0};
Point(p15 + 14) = {23.41991772529349, 0.7874251482484123, 0};
Point(p15 + 15) = {23.24628079780377, 0.6391252021962264, 0};
Point(p15 + 16) = {23.09798085175159, 0.4654882747065117, 0};
Point(p15 + 17) = {22.97866952398804, 0.2707898832019881, 0};
Point(p15 + 18) = {22.89128465537426, 0.05982414824841242, 0};
Point(p15 + 19) = {22.83797795138927, -0.1622142536045258, 0};
Point(p15 + 20) = {22.820062, -0.3898579999999998, 0};
Point(p15 + 21) = {22.83797795138927, -0.6175017463954738, 0};
Point(p15 + 22) = {22.89128465537426, -0.8395401482484127, 0};
Point(p15 + 23) = {22.97866952398804, -1.050505883201987, 0};
Point(p15 + 24) = {23.09798085175159, -1.245204274706511, 0};
Point(p15 + 25) = {23.24628079780377, -1.418841202196226, 0};
Point(p15 + 26) = {23.41991772529349, -1.567141148248412, 0};
Point(p15 + 27) = {23.61461611679801, -1.686452476011961, 0};
Point(p15 + 28) = {23.82558185175159, -1.77383734462574, 0};
Point(p15 + 29) = {24.04762025360452, -1.827144048610726, 0};
Point(p15 + 30) = {24.275264, -1.84506, 0};
Point(p15 + 31) = {24.50290774639547, -1.827144048610726, 0};
Point(p15 + 32) = {24.72494614824841, -1.77383734462574, 0};
Point(p15 + 33) = {24.93591188320199, -1.686452476011961, 0};
Point(p15 + 34) = {25.13061027470651, -1.567141148248413, 0};
Point(p15 + 35) = {25.30424720219623, -1.418841202196227, 0};
Point(p15 + 36) = {25.45254714824841, -1.245204274706512, 0};
Point(p15 + 37) = {25.57185847601196, -1.050505883201988, 0};
Point(p15 + 38) = {25.65924334462574, -0.8395401482484126, 0};
Point(p15 + 39) = {25.71255004861073, -0.6175017463954744, 0};
Spline(15) = {11, p15 + 1, p15 + 2, p15 + 3, p15 + 4, p15 + 5, p15 + 6, p15 + 7, p15 + 8, p15 + 9, p15 + 10, p15 + 11, p15 + 12, p15 + 13, p15 + 14, p15 + 15, p15 + 16, p15 + 17, p15 + 18, p15 + 19, p15 + 20, p15 + 21, p15 + 22, p15 + 23, p15 + 24, p15 + 25, p15 + 26, p15 + 27, p15 + 28, p15 + 29, p15 + 30, p15 + 31, p15 + 32, p15 + 33, p15 + 34, p15 + 35, p15 + 36, p15 + 37, p15 + 38, p15 + 39, 11};
p16 = newp;
Point(p16 + 1) = {28.36500195064838, 2.216289058653027, 0};
Point(p16 + 2) = {28.3116146200181, 2.438663294653032, 0};
Point(p16 + 3) = {28.2240975813717, 2.649948116291915, 0};
Point(p16 + 4) = {28.10460579465303, 2.844940990046807, 0};
Point(p16 + 5) = {27.95608154422162, 3.018840544221618, 0};
Point(p16 + 6) = {27.78218199004681, 3.167364794653031, 0};
Point(p16 + 7) = {27.58718911629191, 3.2868565813717, 0};
Point(p16 + 8) = {27.37590429465303, 3.374373620018106, 0};
Point(p16 + 9) = {27.15353005865303, 3.427760950648376, 0};
Point(p16 + 10) = {26.925542, 3.445704, 0};
Point(p16 + 11) = {26.69755394134697, 3.427760950648375, 0};
Point(p16 + 12) = {26.47517970534697, 3.374373620018106, 0};
Point(p16 + 13) = {26.26389488370809, 3.2868565813717, 0};
Point(p16 + 14) = {26.06890200995319, 3.167364794653031, 0};
Point(p16 + 15) = {25.89500245577838, 3.018840544221618, 0};
Point(p16 + 16) = {25.74647820534697, 2.844940990046807, 0};
Point(p16 + 17) = {25.6269864186283, 2.649948116291915, 0};
Point(p16 + 18) = {25.5394693799819, 2.438663294653032, 0};
Point(p16 + 19) = {25.48608204935162, 2.216289058653028, 0};
Point(p16 + 20) = {25.468139, 1.988301, 0};
Point(p16 + 21) = {25.48608204935162, 1.760312941346973, 0};
Point(p16 + 22) = {25.5394693799819, 1.537938705346968, 0};
Point(p16 + 23) = {25.6269864186283, 1.326653883708086, 0};
Point(p16 + 24) = {25.74647820534697, 1.131661009953193, 0};
Point(p16 + 25) = {25.89500245577838, 0.9577614557783822, 0};
Point(p16 + 26) = {26.06890200995319, 0.8092372053469687, 0};
Point(p16 + 27) = {26.26389488370809, 0.6897454186283003, 0};
Point(p16 + 28) = {26.47517970534697, 0.6022283799818944, 0};
Point(p16 + 29) = {26.69755394134697, 0.5488410493516247, 0};
Point(p16 + 30) = {26.925542, 0.5308980000000001, 0};
Point(p16 + 31) = {27.15353005865303, 0.5488410493516245, 0};
Point(p16 + 32) = {27.37590429465303, 0.6022283799818944, 0};
Point(p16 + 33) = {27.58718911629191, 0.6897454186283001, 0};
Point(p16 + 34) = {27.78218199004681, 0.8092372053469683, 0};
Point(p16 + 35) = {27.95608154422162, 0.957761455778382, 0};
Point(p16 + 36) = {28.10460579465303, 1.131661009953193, 0};
Point(p16 + 37) = {28.2240975813717, 1.326653883708085, 0};
Point(p16 + 38) = {28.3116146200181, 1.537938705346968, 0};
Point(p16 + 39) = {28.36500195064838, 1.760312941346972, 0};
Spline(16) = {12, p16 + 1, p16 + 2, p16 + 3, p16 + 4, p16 + 5, p16 + 6, p16 + 7, p16 + 8, p16 + 9, p16 + 10, p16 + 11, p16 + 12, p16 + 13, p16 + 14, p16 + 15, p16 + 16, p16 + 17, p16 + 18, p16 + 19, p16 + 20, p16 + 21, p16 + 22, p16 + 23, p16 + 24, p16 + 25, p16 + 26, p16 + 27, p16 + 28, p16 + 29, p16 + 30, p16 + 31, p16 + 32, p16 + 33, p16 + 34, p16 + 35, p16 + 36, p16 + 37, p16 + 38, p16 + 39, 12};
Line(17) = {11, 8};
Line(18) = {12, 9};
Curve Loop(1) = {-1, 4, 3, -2};
Plane Surface(1) = {1};
Curve Loop(2) = {-5, 1, 7, -6};
Plane Surface(2) = {2};
Curve Loop(3) = {-2, 7, 9, -8, -10, -11};
Plane Surface(3) = {3};
Curve Loop(4) = {-12, 3, 8, -13};
Plane Surface(4) = {4};
Curve Loop(5) = {-4, 5, 14, -12, -15, -16};
Plane Surface(5) = {5};
Curve Loop(6) = {-6, 14, 13, -9};
Plane Surface(6) = {6};
Curve Loop(7) = {-10, -17, 15, 17};
Surface(7) = {7};
Curve Loop(8) = {-11, -18, 16, 18};
Surface(8) = {8};
Surface Loop(1) = {1, 2, 3, 4, 5, 6, 7, 8};
Volume(1) = {1};
Physical Surface("INFLOW") = {1};
Physical Surface("OUTFLOW") = {6};
Physical Surface("OBSTACLE") = {7, 8};
Physical Surface("WALL_Y") = {2, 4};
Physical Surface("WALL_Z") = {3, 5};
Physical Volume("FLUID") = {1};
