cl__1 = 3.299719;
cl__2 = 0.880339;
cl__3 = 0.763034;
cl__4 = 0.139218;
Point(1) = {0.639427, -4.004003, 1, cl__1};
Point(2) = {0.639427, -4.004003, 0, cl__1};
Point(3) = {0.639427, 4.054023999999999, 1, cl__1};
Point(4) = {0.639427, 4.054023999999999, 0, cl__1};
Point(5) = {32.750293, -4.004003, 0, cl__2};
Point(6) = {32.750293, -4.004003, 1, cl__2};
Point(7) = {32.750293, 4.054023999999999, 1, cl__3};
Point(8) = {25.511828, 1.423849, 1, cl__4};
Point(9) = {32.750293, 4.054023999999999, 0, cl__3};
Point(10) = {25.511828, 1.423849, 0, cl__4};
Line(1) = {2, 1};
Line(2) = {1, 3};
Line(3) = {4, 3};
Line(4) = {2, 4};
Line(5) = {2, 5};
Line(6) = {5, 6};
Line(7) = {1, 6};
Line(8) = {3, 7};
Line(9) = {6, 7};
p10 = newp;
Point(p10 + 1) = {25.49468795400974, 1.641633933539709, 1};
Point(p10 + 2) = {25.44368986085579, 1.854056279228914, 1};
Point(p10 + 3) = {25.36008946284456, 2.055885493927402, 1};
Point(p10 + 4) = {25.24594527922892, 2.242151872536535, 1};
Point(p10 + 5) = {25.10406791863229, 2.408268918632288, 1};
Point(p10 + 6) = {24.93795087253654, 2.550146279228914, 1};
Point(p10 + 7) = {24.7516844939274, 2.664290462844562, 1};
Point(p10 + 8) = {24.54985527922891, 2.747890860855787, 1};
Point(p10 + 9) = {24.33743293353971, 2.798888954009739, 1};
Point(p10 + 10) = {24.119648, 2.816029, 1};
Point(p10 + 11) = {23.90186306646029, 2.798888954009739, 1};
Point(p10 + 12) = {23.68944072077109, 2.747890860855787, 1};
Point(p10 + 13) = {23.4876115060726, 2.664290462844562, 1};
Point(p10 + 14) = {23.30134512746347, 2.550146279228914, 1};
Point(p10 + 15) = {23.13522808136771, 2.408268918632288, 1};
Point(p10 + 16) = {22.99335072077109, 2.242151872536535, 1};
Point(p10 + 17) = {22.87920653715544, 2.055885493927402, 1};
Point(p10 + 18) = {22.79560613914422, 1.854056279228914, 1};
Point(p10 + 19) = {22.74460804599026, 1.641633933539709, 1};
Point(p10 + 20) = {22.727468, 1.423849, 1};
Point(p10 + 21) = {22.74460804599026, 1.206064066460292, 1};
Point(p10 + 22) = {22.79560613914422, 0.9936417207710853, 1};
Point(p10 + 23) = {22.87920653715544, 0.7918125060725985, 1};
Point(p10 + 24) = {22.99335072077109, 0.6055461274634648, 1};
Point(p10 + 25) = {23.13522808136771, 0.4394290813677123, 1};
Point(p10 + 26) = {23.30134512746347, 0.2975517207710858, 1};
Point(p10 + 27) = {23.4876115060726, 0.183407537155438, 1};
Point(p10 + 28) = {23.68944072077109, 0.09980713914421302, 1};
Point(p10 + 29) = {23.90186306646029, 0.04880904599026126, 1};
Point(p10 + 30) = {24.119648, 0.03166899999999995, 1};
Point(p10 + 31) = {24.33743293353971, 0.04880904599026104, 1};
Point(p10 + 32) = {24.54985527922891, 0.09980713914421302, 1};
Point(p10 + 33) = {24.7516844939274, 0.183407537155438, 1};
Point(p10 + 34) = {24.93795087253654, 0.2975517207710854, 1};
Point(p10 + 35) = {25.10406791863229, 0.439429081367712, 1};
Point(p10 + 36) = {25.24594527922892, 0.6055461274634644, 1};
Point(p10 + 37) = {25.36008946284456, 0.7918125060725975, 1};
Point(p10 + 38) = {25.44368986085579, 0.9936417207710854, 1};
Point(p10 + 39) = {25.49468795400974, 1.206064066460291, 1};
Spline(10) = {8, p10 + 1, p10 + 2, p10 + 3, p10 + 4, p10 + 5, p10 + 6, p10 + 7, p10 + 8, p10 + 9, p10 + 10, p10 + 11, p10 + 12, p10 + 13, p10 + 14, p10 + 15, p10 + 16, p10 + 17, p10 + 18, p10 + 19, p10 + 20, p10 + 21, p10 + 22, p10 + 23, p10 + 24, p10 + 25, p10 + 26, p10 + 27, p10 + 28, p10 + 29, p10 + 30, p10 + 31, p10 + 32, p10 + 33, p10 + 34, p10 + 35, p10 + 36, p10 + 37, p10 + 38, p10 + 39, 8};
Line(11) = {4, 9};
Line(12) = {9, 7};
Line(13) = {5, 9};
p14 = newp;
Point(p14 + 1) = {25.49468795400974, 1.641633933539709, 0};
Point(p14 + 2) = {25.44368986085579, 1.854056279228914, 0};
Point(p14 + 3) = {25.36008946284456, 2.055885493927402, 0};
Point(p14 + 4) = {25.24594527922892, 2.242151872536535, 0};
Point(p14 + 5) = {25.10406791863229, 2.408268918632288, 0};
Point(p14 + 6) = {24.93795087253654, 2.550146279228914, 0};
Point(p14 + 7) = {24.7516844939274, 2.664290462844562, 0};
Point(p14 + 8) = {24.54985527922891, 2.747890860855787, 0};
Point(p14 + 9) = {24.33743293353971, 2.798888954009739, 0};
Point(p14 + 10) = {24.119648, 2.816029, 0};
Point(p14 + 11) = {23.90186306646029, 2.798888954009739, 0};
Point(p14 + 12) = {23.68944072077109, 2.747890860855787, 0};
Point(p14 + 13) = {23.4876115060726, 2.664290462844562, 0};
Point(p14 + 14) = {23.30134512746347, 2.550146279228914, 0};
Point(p14 + 15) = {23.13522808136771, 2.408268918632288, 0};
Point(p14 + 16) = {22.99335072077109, 2.242151872536535, 0};
Point(p14 + 17) = {22.87920653715544, 2.055885493927402, 0};
Point(p14 + 18) = {22.79560613914422, 1.854056279228914, 0};
Point(p14 + 19) = {22.74460804599026, 1.641633933539709, 0};
Point(p14 + 20) = {22.727468, 1.423849, 0};
Point(p14 + 21) = {22.74460804599026, 1.206064066460292, 0};
Point(p14 + 22) = {22.79560613914422, 0.9936417207710853, 0};
Point(p14 + 23) = {22.87920653715544, 0.7918125060725985, 0};
Point(p14 + 24) = {22.99335072077109, 0.6055461274634648, 0};
Point(p14 + 25) = {23.13522808136771, 0.4394290813677123, 0};
Point(p14 + 26) = {23.30134512746347, 0.2975517207710858, 0};
Point(p14 + 27) = {23.4876115060726, 0.183407537155438, 0};
Point(p14 + 28) = {23.68944072077109, 0.09980713914421302, 0};
Point(p14 + 29) = {23.90186306646029, 0.04880904599026126, 0};
Point(p14 + 30) = {24.119648, 0.03166899999999995, 0};
Point(p14 + 31) = {24.33743293353971, 0.04880904599026104, 0};
Point(p14 + 32) = {24.54985527922891, 0.09980713914421302, 0};
Point(p14 + 33) = {24.7516844939274, 0.183407537155438, 0};
Point(p14 + 34) = {24.93795087253654, 0.2975517207710854, 0};
Point(p14 + 35) = {25.10406791863229, 0.439429081367712, 0};
Point(p14 + 36) = {25.24594527922892, 0.6055461274634644, 0};
Point(p14 + 37) = {25.36008946284456, 0.7918125060725975, 0};
Point(p14 + 38) = {25.44368986085579, 0.9936417207710854, 0};
Point(p14 + 39) = {25.49468795400974, 1.206064066460291, 0};
Spline(14) = {10, p14 + 1, p14 + 2, p14 + 3, p14 + 4, p14 + 5, p14 + 6, p14 + 7, p14 + 8, p14 + 9, p14 + 10, p14 + 11, p14 + 12, p14 + 13, p14 + 14, p14 + 15, p14 + 16, p14 + 17, p14 + 18, p14 + 19, p14 + 20, p14 + 21, p14 + 22, p14 + 23, p14 + 24, p14 + 25, p14 + 26, p14 + 27, p14 + 28, p14 + 29, p14 + 30, p14 + 31, p14 + 32, p14 + 33, p14 + 34, p14 + 35, p14 + 36, p14 + 37, p14 + 38, p14 + 39, 10};
Line(15) = {10, 8};
Curve Loop(1) = {-1, 4, 3, -2};
Plane Surface(1) = {1};
Curve Loop(2) = {-5, 1, 7, -6};
Plane Surface(2) = {2};
Curve Loop(3) = {-2, 7, 9, -8, -10};
Plane Surface(3) = {3};
Curve Loop(4) = {-11, 3, 8, -12};
Plane Surface(4) = {4};
Curve Loop(5) = {-4, 5, 13, -11, -14};
Plane Surface(5) = {5};
Curve Loop(6) = {-6, 13, 12, -9};
Plane Surface(6) = {6};
Curve Loop(7) = {-10, -15, 14, 15};
Surface(7) = {7};
Surface Loop(1) = {1, 2, 3, 4, 5, 6, 7};
Volume(1) = {1};
Physical Surface("INFLOW") = {1};
Physical Surface("OUTFLOW") = {6};
Physical Surface("OBSTACLE") = {7};
Physical Surface("WALL_Y") = {2, 4};
Physical Surface("WALL_Z") = {3, 5};
Physical Volume("FLUID") = {1};
