cl__1 = 3.51495;
cl__2 = 0.549803;
cl__3 = 0.541032;
cl__4 = 0.099173;
cl__5 = 0.145079;
Point(1) = {0.942676, -3.35008, 1, cl__1};
Point(2) = {0.942676, -3.35008, 0, cl__1};
Point(3) = {0.942676, 4.351025, 1, cl__1};
Point(4) = {0.942676, 4.351025, 0, cl__1};
Point(5) = {34.937952, -3.35008, 0, cl__2};
Point(6) = {34.937952, -3.35008, 1, cl__2};
Point(7) = {34.937952, 4.351025, 1, cl__3};
Point(8) = {21.441944, 1.037991, 1, cl__4};
Point(9) = {30.657468, 0.5791159999999995, 1, cl__5};
Point(10) = {34.937952, 4.351025, 0, cl__3};
Point(11) = {21.441944, 1.037991, 0, cl__4};
Point(12) = {30.657468, 0.5791159999999995, 0, cl__5};
Line(1) = {2, 1};
Line(2) = {1, 3};
Line(3) = {4, 3};
Line(4) = {2, 4};
Line(5) = {2, 5};
Line(6) = {5, 6};
Line(7) = {1, 6};
Line(8) = {3, 7};
Line(9) = {6, 7};
p10 = newp;
Point(p10 + 1) = {21.42973420726505, 1.193131126276488, 1};
Point(p10 + 2) = {21.39340547467933, 1.344451187763489, 1};
Point(p10 + 3) = {21.33385233620723, 1.488225182344702, 1};
Point(p10 + 4) = {21.25254118776349, 1.620912917115005, 1};
Point(p10 + 5) = {21.15147417967901, 1.73924717967901, 1};
Point(p10 + 6) = {21.033139917115, 1.840314187763489, 1};
Point(p10 + 7) = {20.9004521823447, 1.921625336207233, 1};
Point(p10 + 8) = {20.75667818776349, 1.981178474679328, 1};
Point(p10 + 9) = {20.60535812627649, 2.017507207265054, 1};
Point(p10 + 10) = {20.450218, 2.029717, 1};
Point(p10 + 11) = {20.29507787372351, 2.017507207265054, 1};
Point(p10 + 12) = {20.14375781223651, 1.981178474679328, 1};
Point(p10 + 13) = {19.9999838176553, 1.921625336207233, 1};
Point(p10 + 14) = {19.86729608288499, 1.840314187763489, 1};
Point(p10 + 15) = {19.74896182032099, 1.73924717967901, 1};
Point(p10 + 16) = {19.64789481223651, 1.620912917115005, 1};
Point(p10 + 17) = {19.56658366379277, 1.488225182344702, 1};
Point(p10 + 18) = {19.50703052532067, 1.344451187763489, 1};
Point(p10 + 19) = {19.47070179273495, 1.193131126276488, 1};
Point(p10 + 20) = {19.458492, 1.037991, 1};
Point(p10 + 21) = {19.47070179273495, 0.8828508737235122, 1};
Point(p10 + 22) = {19.50703052532067, 0.7315308122365107, 1};
Point(p10 + 23) = {19.56658366379277, 0.5877568176552989, 1};
Point(p10 + 24) = {19.64789481223651, 0.455069082884995, 1};
Point(p10 + 25) = {19.74896182032099, 0.3367348203209901, 1};
Point(p10 + 26) = {19.86729608288499, 0.2356678122365111, 1};
Point(p10 + 27) = {19.9999838176553, 0.1543566637927669, 1};
Point(p10 + 28) = {20.14375781223651, 0.09480352532067271, 1};
Point(p10 + 29) = {20.29507787372351, 0.0584747927349466, 1};
Point(p10 + 30) = {20.450218, 0.04626500000000011, 1};
Point(p10 + 31) = {20.60535812627649, 0.05847479273494649, 1};
Point(p10 + 32) = {20.75667818776349, 0.0948035253206726, 1};
Point(p10 + 33) = {20.9004521823447, 0.1543566637927668, 1};
Point(p10 + 34) = {21.033139917115, 0.2356678122365109, 1};
Point(p10 + 35) = {21.15147417967901, 0.3367348203209899, 1};
Point(p10 + 36) = {21.25254118776349, 0.4550690828849947, 1};
Point(p10 + 37) = {21.33385233620723, 0.5877568176552981, 1};
Point(p10 + 38) = {21.39340547467933, 0.7315308122365107, 1};
Point(p10 + 39) = {21.42973420726505, 0.8828508737235119, 1};
Spline(10) = {8, p10 + 1, p10 + 2, p10 + 3, p10 + 4, p10 + 5, p10 + 6, p10 + 7, p10 + 8, p10 + 9, p10 + 10, p10 + 11, p10 + 12, p10 + 13, p10 + 14, p10 + 15, p10 + 16, p10 + 17, p10 + 18, p10 + 19, p10 + 20, p10 + 21, p10 + 22, p10 + 23, p10 + 24, p10 + 25, p10 + 26, p10 + 27, p10 + 28, p10 + 29, p10 + 30, p10 + 31, p10 + 32, p10 + 33, p10 + 34, p10 + 35, p10 + 36, p10 + 37, p10 + 38, p10 + 39, 8};
p11 = newp;
Point(p11 + 1) = {30.63960641689866, 0.8060689317978563, 1};
Point(p11 + 2) = {30.58646147904978, 1.027433529201252, 1};
Point(p11 + 3) = {30.49934179120115, 1.237759061155138, 1};
Point(p11 + 4) = {30.38039252920125, 1.431866615032388, 1};
Point(p11 + 5) = {30.23254261865051, 1.604976618650506, 1};
Point(p11 + 6) = {30.05943261503239, 1.752826529201252, 1};
Point(p11 + 7) = {29.86532506115514, 1.871775791201145, 1};
Point(p11 + 8) = {29.65499952920125, 1.958895479049781, 1};
Point(p11 + 9) = {29.43363493179786, 2.012040416898658, 1};
Point(p11 + 10) = {29.206682, 2.029902, 1};
Point(p11 + 11) = {28.97972906820214, 2.012040416898657, 1};
Point(p11 + 12) = {28.75836447079875, 1.958895479049781, 1};
Point(p11 + 13) = {28.54803893884486, 1.871775791201145, 1};
Point(p11 + 14) = {28.35393138496761, 1.752826529201252, 1};
Point(p11 + 15) = {28.1808213813495, 1.604976618650507, 1};
Point(p11 + 16) = {28.03297147079875, 1.431866615032388, 1};
Point(p11 + 17) = {27.91402220879885, 1.237759061155138, 1};
Point(p11 + 18) = {27.82690252095022, 1.027433529201252, 1};
Point(p11 + 19) = {27.77375758310134, 0.8060689317978564, 1};
Point(p11 + 20) = {27.755896, 0.5791160000000002, 1};
Point(p11 + 21) = {27.77375758310134, 0.3521630682021438, 1};
Point(p11 + 22) = {27.82690252095022, 0.1307984707987471, 1};
Point(p11 + 23) = {27.91402220879885, -0.0795270611551373, 1};
Point(p11 + 24) = {28.03297147079875, -0.2736346150323877, 1};
Point(p11 + 25) = {28.1808213813495, -0.4467446186505064, 1};
Point(p11 + 26) = {28.35393138496761, -0.5945945292012522, 1};
Point(p11 + 27) = {28.54803893884486, -0.7135437912011453, 1};
Point(p11 + 28) = {28.75836447079875, -0.8006634790497806, 1};
Point(p11 + 29) = {28.97972906820214, -0.8538084168986573, 1};
Point(p11 + 30) = {29.206682, -0.8716699999999999, 1};
Point(p11 + 31) = {29.43363493179786, -0.8538084168986575, 1};
Point(p11 + 32) = {29.65499952920125, -0.8006634790497806, 1};
Point(p11 + 33) = {29.86532506115514, -0.7135437912011455, 1};
Point(p11 + 34) = {30.05943261503239, -0.5945945292012527, 1};
Point(p11 + 35) = {30.23254261865051, -0.4467446186505066, 1};
Point(p11 + 36) = {30.38039252920125, -0.2736346150323883, 1};
Point(p11 + 37) = {30.49934179120115, -0.07952706115513841, 1};
Point(p11 + 38) = {30.58646147904978, 0.1307984707987472, 1};
Point(p11 + 39) = {30.63960641689866, 0.3521630682021433, 1};
Spline(11) = {9, p11 + 1, p11 + 2, p11 + 3, p11 + 4, p11 + 5, p11 + 6, p11 + 7, p11 + 8, p11 + 9, p11 + 10, p11 + 11, p11 + 12, p11 + 13, p11 + 14, p11 + 15, p11 + 16, p11 + 17, p11 + 18, p11 + 19, p11 + 20, p11 + 21, p11 + 22, p11 + 23, p11 + 24, p11 + 25, p11 + 26, p11 + 27, p11 + 28, p11 + 29, p11 + 30, p11 + 31, p11 + 32, p11 + 33, p11 + 34, p11 + 35, p11 + 36, p11 + 37, p11 + 38, p11 + 39, 9};
Line(12) = {4, 10};
Line(13) = {10, 7};
Line(14) = {5, 10};
p15 = newp;
Point(p15 + 1) = {21.42973420726505, 1.193131126276488, 0};
Point(p15 + 2) = {21.39340547467933, 1.344451187763489, 0};
Point(p15 + 3) = {21.33385233620723, 1.488225182344702, 0};
Point(p15 + 4) = {21.25254118776349, 1.620912917115005, 0};
Point(p15 + 5) = {21.15147417967901, 1.73924717967901, 0};
Point(p15 + 6) = {21.033139917115, 1.840314187763489, 0};
Point(p15 + 7) = {20.9004521823447, 1.921625336207233, 0};
Point(p15 + 8) = {20.75667818776349, 1.981178474679328, 0};
Point(p15 + 9) = {20.60535812627649, 2.017507207265054, 0};
Point(p15 + 10) = {20.450218, 2.029717, 0};
Point(p15 + 11) = {20.29507787372351, 2.017507207265054, 0};
Point(p15 + 12) = {20.14375781223651, 1.981178474679328, 0};
Point(p15 + 13) = {19.9999838176553, 1.921625336207233, 0};
Point(p15 + 14) = {19.86729608288499, 1.840314187763489, 0};
Point(p15 + 15) = {19.74896182032099, 1.73924717967901, 0};
Point(p15 + 16) = {19.64789481223651, 1.620912917115005, 0};
Point(p15 + 17) = {19.56658366379277, 1.488225182344702, 0};
Point(p15 + 18) = {19.50703052532067, 1.344451187763489, 0};
Point(p15 + 19) = {19.47070179273495, 1.193131126276488, 0};
Point(p15 + 20) = {19.458492, 1.037991, 0};
Point(p15 + 21) = {19.47070179273495, 0.8828508737235122, 0};
Point(p15 + 22) = {19.50703052532067, 0.7315308122365107, 0};
Point(p15 + 23) = {19.56658366379277, 0.5877568176552989, 0};
Point(p15 + 24) = {19.64789481223651, 0.455069082884995, 0};
Point(p15 + 25) = {19.74896182032099, 0.3367348203209901, 0};
Point(p15 + 26) = {19.86729608288499, 0.2356678122365111, 0};
Point(p15 + 27) = {19.9999838176553, 0.1543566637927669, 0};
Point(p15 + 28) = {20.14375781223651, 0.09480352532067271, 0};
Point(p15 + 29) = {20.29507787372351, 0.0584747927349466, 0};
Point(p15 + 30) = {20.450218, 0.04626500000000011, 0};
Point(p15 + 31) = {20.60535812627649, 0.05847479273494649, 0};
Point(p15 + 32) = {20.75667818776349, 0.0948035253206726, 0};
Point(p15 + 33) = {20.9004521823447, 0.1543566637927668, 0};
Point(p15 + 34) = {21.033139917115, 0.2356678122365109, 0};
Point(p15 + 35) = {21.15147417967901, 0.3367348203209899, 0};
Point(p15 + 36) = {21.25254118776349, 0.4550690828849947, 0};
Point(p15 + 37) = {21.33385233620723, 0.5877568176552981, 0};
Point(p15 + 38) = {21.39340547467933, 0.7315308122365107, 0};
Point(p15 + 39) = {21.42973420726505, 0.8828508737235119, 0};
Spline(15) = {11, p15 + 1, p15 + 2, p15 + 3, p15 + 4, p15 + 5, p15 + 6, p15 + 7, p15 + 8, p15 + 9, p15 + 10, p15 + 11, p15 + 12, p15 + 13, p15 + 14, p15 + 15, p15 + 16, p15 + 17, p15 + 18, p15 + 19, p15 + 20, p15 + 21, p15 + 22, p15 + 23, p15 + 24, p15 + 25, p15 + 26, p15 + 27, p15 + 28, p15 + 29, p15 + 30, p15 + 31, p15 + 32, p15 + 33, p15 + 34, p15 + 35, p15 + 36, p15 + 37, p15 + 38, p15 + 39, 11};
p16 = newp;
Point(p16 + 1) = {30.63960641689866, 0.8060689317978563, 0};
Point(p16 + 2) = {30.58646147904978, 1.027433529201252, 0};
Point(p16 + 3) = {30.49934179120115, 1.237759061155138, 0};
Point(p16 + 4) = {30.38039252920125, 1.431866615032388, 0};
Point(p16 + 5) = {30.23254261865051, 1.604976618650506, 0};
Point(p16 + 6) = {30.05943261503239, 1.752826529201252, 0};
Point(p16 + 7) = {29.86532506115514, 1.871775791201145, 0};
Point(p16 + 8) = {29.65499952920125, 1.958895479049781, 0};
Point(p16 + 9) = {29.43363493179786, 2.012040416898658, 0};
Point(p16 + 10) = {29.206682, 2.029902, 0};
Point(p16 + 11) = {28.97972906820214, 2.012040416898657, 0};
Point(p16 + 12) = {28.75836447079875, 1.958895479049781, 0};
Point(p16 + 13) = {28.54803893884486, 1.871775791201145, 0};
Point(p16 + 14) = {28.35393138496761, 1.752826529201252, 0};
Point(p16 + 15) = {28.1808213813495, 1.604976618650507, 0};
Point(p16 + 16) = {28.03297147079875, 1.431866615032388, 0};
Point(p16 + 17) = {27.91402220879885, 1.237759061155138, 0};
Point(p16 + 18) = {27.82690252095022, 1.027433529201252, 0};
Point(p16 + 19) = {27.77375758310134, 0.8060689317978564, 0};
Point(p16 + 20) = {27.755896, 0.5791160000000002, 0};
Point(p16 + 21) = {27.77375758310134, 0.3521630682021438, 0};
Point(p16 + 22) = {27.82690252095022, 0.1307984707987471, 0};
Point(p16 + 23) = {27.91402220879885, -0.0795270611551373, 0};
Point(p16 + 24) = {28.03297147079875, -0.2736346150323877, 0};
Point(p16 + 25) = {28.1808213813495, -0.4467446186505064, 0};
Point(p16 + 26) = {28.35393138496761, -0.5945945292012522, 0};
Point(p16 + 27) = {28.54803893884486, -0.7135437912011453, 0};
Point(p16 + 28) = {28.75836447079875, -0.8006634790497806, 0};
Point(p16 + 29) = {28.97972906820214, -0.8538084168986573, 0};
Point(p16 + 30) = {29.206682, -0.8716699999999999, 0};
Point(p16 + 31) = {29.43363493179786, -0.8538084168986575, 0};
Point(p16 + 32) = {29.65499952920125, -0.8006634790497806, 0};
Point(p16 + 33) = {29.86532506115514, -0.7135437912011455, 0};
Point(p16 + 34) = {30.05943261503239, -0.5945945292012527, 0};
Point(p16 + 35) = {30.23254261865051, -0.4467446186505066, 0};
Point(p16 + 36) = {30.38039252920125, -0.2736346150323883, 0};
Point(p16 + 37) = {30.49934179120115, -0.07952706115513841, 0};
Point(p16 + 38) = {30.58646147904978, 0.1307984707987472, 0};
Point(p16 + 39) = {30.63960641689866, 0.3521630682021433, 0};
Spline(16) = {12, p16 + 1, p16 + 2, p16 + 3, p16 + 4, p16 + 5, p16 + 6, p16 + 7, p16 + 8, p16 + 9, p16 + 10, p16 + 11, p16 + 12, p16 + 13, p16 + 14, p16 + 15, p16 + 16, p16 + 17, p16 + 18, p16 + 19, p16 + 20, p16 + 21, p16 + 22, p16 + 23, p16 + 24, p16 + 25, p16 + 26, p16 + 27, p16 + 28, p16 + 29, p16 + 30, p16 + 31, p16 + 32, p16 + 33, p16 + 34, p16 + 35, p16 + 36, p16 + 37, p16 + 38, p16 + 39, 12};
Line(17) = {11, 8};
Line(18) = {12, 9};
Curve Loop(1) = {-1, 4, 3, -2};
Plane Surface(1) = {1};
Curve Loop(2) = {-5, 1, 7, -6};
Plane Surface(2) = {2};
Curve Loop(3) = {-2, 7, 9, -8, -10, -11};
Plane Surface(3) = {3};
Curve Loop(4) = {-12, 3, 8, -13};
Plane Surface(4) = {4};
Curve Loop(5) = {-4, 5, 14, -12, -15, -16};
Plane Surface(5) = {5};
Curve Loop(6) = {-6, 14, 13, -9};
Plane Surface(6) = {6};
Curve Loop(7) = {-10, -17, 15, 17};
Surface(7) = {7};
Curve Loop(8) = {-11, -18, 16, 18};
Surface(8) = {8};
Surface Loop(1) = {1, 2, 3, 4, 5, 6, 7, 8};
Volume(1) = {1};
Physical Surface("INFLOW") = {1};
Physical Surface("OUTFLOW") = {6};
Physical Surface("OBSTACLE") = {7, 8};
Physical Surface("WALL_Y") = {2, 4};
Physical Surface("WALL_Z") = {3, 5};
Physical Volume("FLUID") = {1};
