cl__1 = 3.271806;
cl__2 = 1.237226;
cl__3 = 0.525907;
cl__4 = 0.055936;
cl__5 = 0.121075;
Point(1) = {0.993958, -3.987747, 1, cl__1};
Point(2) = {0.993958, -3.987747, 0, cl__1};
Point(3) = {0.993958, 5.539009999999999, 1, cl__2};
Point(4) = {0.993958, 5.539009999999999, 0, cl__2};
Point(5) = {32.369461, -3.987747, 0, cl__3};
Point(6) = {32.369461, -3.987747, 1, cl__3};
Point(7) = {32.369461, 5.539009999999999, 1, cl__2};
Point(8) = {7.247525, -2.791885, 1, cl__4};
Point(9) = {20.241533, -1.423004, 1, cl__5};
Point(10) = {32.369461, 5.539009999999999, 0, cl__2};
Point(11) = {7.247525, -2.791885, 0, cl__4};
Point(12) = {20.241533, -1.423004, 0, cl__5};
Line(1) = {2, 1};
Line(2) = {1, 3};
Line(3) = {4, 3};
Line(4) = {2, 4};
Line(5) = {2, 5};
Line(6) = {5, 6};
Line(7) = {1, 6};
Line(8) = {3, 7};
Line(9) = {6, 7};
p10 = newp;
Point(p10 + 1) = {7.240638374818615, -2.704382130504027, 1};
Point(p10 + 2) = {7.220148070841825, -2.619033872060418, 1};
Point(p10 + 3) = {7.186558627356957, -2.537941782046687, 1};
Point(p10 + 4) = {7.140697127939582, -2.463102616848187, 1};
Point(p10 + 5) = {7.083692834910945, -2.396359165089055, 1};
Point(p10 + 6) = {7.016949383151813, -2.339354872060418, 1};
Point(p10 + 7) = {6.942110217953314, -2.293493372643043, 1};
Point(p10 + 8) = {6.861018127939582, -2.259903929158176, 1};
Point(p10 + 9) = {6.775669869495974, -2.239413625181385, 1};
Point(p10 + 10) = {6.688167, -2.232527, 1};
Point(p10 + 11) = {6.600664130504026, -2.239413625181385, 1};
Point(p10 + 12) = {6.515315872060418, -2.259903929158176, 1};
Point(p10 + 13) = {6.434223782046686, -2.293493372643043, 1};
Point(p10 + 14) = {6.359384616848187, -2.339354872060418, 1};
Point(p10 + 15) = {6.292641165089055, -2.396359165089055, 1};
Point(p10 + 16) = {6.235636872060418, -2.463102616848187, 1};
Point(p10 + 17) = {6.189775372643043, -2.537941782046687, 1};
Point(p10 + 18) = {6.156185929158175, -2.619033872060418, 1};
Point(p10 + 19) = {6.135695625181385, -2.704382130504027, 1};
Point(p10 + 20) = {6.128809, -2.791885, 1};
Point(p10 + 21) = {6.135695625181385, -2.879387869495973, 1};
Point(p10 + 22) = {6.156185929158175, -2.964736127939582, 1};
Point(p10 + 23) = {6.189775372643043, -3.045828217953313, 1};
Point(p10 + 24) = {6.235636872060418, -3.120667383151813, 1};
Point(p10 + 25) = {6.292641165089055, -3.187410834910945, 1};
Point(p10 + 26) = {6.359384616848187, -3.244415127939582, 1};
Point(p10 + 27) = {6.434223782046686, -3.290276627356957, 1};
Point(p10 + 28) = {6.515315872060418, -3.323866070841825, 1};
Point(p10 + 29) = {6.600664130504026, -3.344356374818615, 1};
Point(p10 + 30) = {6.688167, -3.351243, 1};
Point(p10 + 31) = {6.775669869495974, -3.344356374818615, 1};
Point(p10 + 32) = {6.861018127939582, -3.323866070841825, 1};
Point(p10 + 33) = {6.942110217953314, -3.290276627356957, 1};
Point(p10 + 34) = {7.016949383151813, -3.244415127939582, 1};
Point(p10 + 35) = {7.083692834910945, -3.187410834910945, 1};
Point(p10 + 36) = {7.140697127939582, -3.120667383151813, 1};
Point(p10 + 37) = {7.186558627356957, -3.045828217953314, 1};
Point(p10 + 38) = {7.220148070841825, -2.964736127939582, 1};
Point(p10 + 39) = {7.240638374818615, -2.879387869495974, 1};
Spline(10) = {8, p10 + 1, p10 + 2, p10 + 3, p10 + 4, p10 + 5, p10 + 6, p10 + 7, p10 + 8, p10 + 9, p10 + 10, p10 + 11, p10 + 12, p10 + 13, p10 + 14, p10 + 15, p10 + 16, p10 + 17, p10 + 18, p10 + 19, p10 + 20, p10 + 21, p10 + 22, p10 + 23, p10 + 24, p10 + 25, p10 + 26, p10 + 27, p10 + 28, p10 + 29, p10 + 30, p10 + 31, p10 + 32, p10 + 33, p10 + 34, p10 + 35, p10 + 36, p10 + 37, p10 + 38, p10 + 39, 8};
p11 = newp;
Point(p11 + 1) = {20.22662660912892, -1.23360034571468, 1};
Point(p11 + 2) = {20.18227448133042, -1.048860437992555, 1};
Point(p11 + 3) = {20.10956871318716, -0.8733331864783447, 1};
Point(p11 + 4) = {20.01029956200744, -0.7113406546458788, 1};
Point(p11 + 5) = {19.88691136374874, -0.5668716362512628, 1};
Point(p11 + 6) = {19.74244234535412, -0.4434834379925547, 1};
Point(p11 + 7) = {19.58044981352165, -0.3442142868128368, 1};
Point(p11 + 8) = {19.40492256200744, -0.2715085186695776, 1};
Point(p11 + 9) = {19.22018265428532, -0.2271563908710743, 1};
Point(p11 + 10) = {19.030779, -0.2122499999999998, 1};
Point(p11 + 11) = {18.84137534571468, -0.2271563908710745, 1};
Point(p11 + 12) = {18.65663543799256, -0.2715085186695774, 1};
Point(p11 + 13) = {18.48110818647834, -0.3442142868128366, 1};
Point(p11 + 14) = {18.31911565464588, -0.4434834379925547, 1};
Point(p11 + 15) = {18.17464663625126, -0.5668716362512627, 1};
Point(p11 + 16) = {18.05125843799255, -0.7113406546458787, 1};
Point(p11 + 17) = {17.95198928681284, -0.8733331864783446, 1};
Point(p11 + 18) = {17.87928351866958, -1.048860437992555, 1};
Point(p11 + 19) = {17.83493139087107, -1.23360034571468, 1};
Point(p11 + 20) = {17.820025, -1.423004, 1};
Point(p11 + 21) = {17.83493139087107, -1.612407654285319, 1};
Point(p11 + 22) = {17.87928351866958, -1.797147562007445, 1};
Point(p11 + 23) = {17.95198928681284, -1.972674813521655, 1};
Point(p11 + 24) = {18.05125843799255, -2.134667345354121, 1};
Point(p11 + 25) = {18.17464663625126, -2.279136363748737, 1};
Point(p11 + 26) = {18.31911565464588, -2.402524562007445, 1};
Point(p11 + 27) = {18.48110818647834, -2.501793713187163, 1};
Point(p11 + 28) = {18.65663543799255, -2.574499481330422, 1};
Point(p11 + 29) = {18.84137534571468, -2.618851609128925, 1};
Point(p11 + 30) = {19.030779, -2.633758, 1};
Point(p11 + 31) = {19.22018265428532, -2.618851609128925, 1};
Point(p11 + 32) = {19.40492256200744, -2.574499481330423, 1};
Point(p11 + 33) = {19.58044981352165, -2.501793713187163, 1};
Point(p11 + 34) = {19.74244234535412, -2.402524562007445, 1};
Point(p11 + 35) = {19.88691136374874, -2.279136363748737, 1};
Point(p11 + 36) = {20.01029956200744, -2.134667345354121, 1};
Point(p11 + 37) = {20.10956871318716, -1.972674813521655, 1};
Point(p11 + 38) = {20.18227448133042, -1.797147562007445, 1};
Point(p11 + 39) = {20.22662660912892, -1.61240765428532, 1};
Spline(11) = {9, p11 + 1, p11 + 2, p11 + 3, p11 + 4, p11 + 5, p11 + 6, p11 + 7, p11 + 8, p11 + 9, p11 + 10, p11 + 11, p11 + 12, p11 + 13, p11 + 14, p11 + 15, p11 + 16, p11 + 17, p11 + 18, p11 + 19, p11 + 20, p11 + 21, p11 + 22, p11 + 23, p11 + 24, p11 + 25, p11 + 26, p11 + 27, p11 + 28, p11 + 29, p11 + 30, p11 + 31, p11 + 32, p11 + 33, p11 + 34, p11 + 35, p11 + 36, p11 + 37, p11 + 38, p11 + 39, 9};
Line(12) = {4, 10};
Line(13) = {10, 7};
Line(14) = {5, 10};
p15 = newp;
Point(p15 + 1) = {7.240638374818615, -2.704382130504027, 0};
Point(p15 + 2) = {7.220148070841825, -2.619033872060418, 0};
Point(p15 + 3) = {7.186558627356957, -2.537941782046687, 0};
Point(p15 + 4) = {7.140697127939582, -2.463102616848187, 0};
Point(p15 + 5) = {7.083692834910945, -2.396359165089055, 0};
Point(p15 + 6) = {7.016949383151813, -2.339354872060418, 0};
Point(p15 + 7) = {6.942110217953314, -2.293493372643043, 0};
Point(p15 + 8) = {6.861018127939582, -2.259903929158176, 0};
Point(p15 + 9) = {6.775669869495974, -2.239413625181385, 0};
Point(p15 + 10) = {6.688167, -2.232527, 0};
Point(p15 + 11) = {6.600664130504026, -2.239413625181385, 0};
Point(p15 + 12) = {6.515315872060418, -2.259903929158176, 0};
Point(p15 + 13) = {6.434223782046686, -2.293493372643043, 0};
Point(p15 + 14) = {6.359384616848187, -2.339354872060418, 0};
Point(p15 + 15) = {6.292641165089055, -2.396359165089055, 0};
Point(p15 + 16) = {6.235636872060418, -2.463102616848187, 0};
Point(p15 + 17) = {6.189775372643043, -2.537941782046687, 0};
Point(p15 + 18) = {6.156185929158175, -2.619033872060418, 0};
Point(p15 + 19) = {6.135695625181385, -2.704382130504027, 0};
Point(p15 + 20) = {6.128809, -2.791885, 0};
Point(p15 + 21) = {6.135695625181385, -2.879387869495973, 0};
Point(p15 + 22) = {6.156185929158175, -2.964736127939582, 0};
Point(p15 + 23) = {6.189775372643043, -3.045828217953313, 0};
Point(p15 + 24) = {6.235636872060418, -3.120667383151813, 0};
Point(p15 + 25) = {6.292641165089055, -3.187410834910945, 0};
Point(p15 + 26) = {6.359384616848187, -3.244415127939582, 0};
Point(p15 + 27) = {6.434223782046686, -3.290276627356957, 0};
Point(p15 + 28) = {6.515315872060418, -3.323866070841825, 0};
Point(p15 + 29) = {6.600664130504026, -3.344356374818615, 0};
Point(p15 + 30) = {6.688167, -3.351243, 0};
Point(p15 + 31) = {6.775669869495974, -3.344356374818615, 0};
Point(p15 + 32) = {6.861018127939582, -3.323866070841825, 0};
Point(p15 + 33) = {6.942110217953314, -3.290276627356957, 0};
Point(p15 + 34) = {7.016949383151813, -3.244415127939582, 0};
Point(p15 + 35) = {7.083692834910945, -3.187410834910945, 0};
Point(p15 + 36) = {7.140697127939582, -3.120667383151813, 0};
Point(p15 + 37) = {7.186558627356957, -3.045828217953314, 0};
Point(p15 + 38) = {7.220148070841825, -2.964736127939582, 0};
Point(p15 + 39) = {7.240638374818615, -2.879387869495974, 0};
Spline(15) = {11, p15 + 1, p15 + 2, p15 + 3, p15 + 4, p15 + 5, p15 + 6, p15 + 7, p15 + 8, p15 + 9, p15 + 10, p15 + 11, p15 + 12, p15 + 13, p15 + 14, p15 + 15, p15 + 16, p15 + 17, p15 + 18, p15 + 19, p15 + 20, p15 + 21, p15 + 22, p15 + 23, p15 + 24, p15 + 25, p15 + 26, p15 + 27, p15 + 28, p15 + 29, p15 + 30, p15 + 31, p15 + 32, p15 + 33, p15 + 34, p15 + 35, p15 + 36, p15 + 37, p15 + 38, p15 + 39, 11};
p16 = newp;
Point(p16 + 1) = {20.22662660912892, -1.23360034571468, 0};
Point(p16 + 2) = {20.18227448133042, -1.048860437992555, 0};
Point(p16 + 3) = {20.10956871318716, -0.8733331864783447, 0};
Point(p16 + 4) = {20.01029956200744, -0.7113406546458788, 0};
Point(p16 + 5) = {19.88691136374874, -0.5668716362512628, 0};
Point(p16 + 6) = {19.74244234535412, -0.4434834379925547, 0};
Point(p16 + 7) = {19.58044981352165, -0.3442142868128368, 0};
Point(p16 + 8) = {19.40492256200744, -0.2715085186695776, 0};
Point(p16 + 9) = {19.22018265428532, -0.2271563908710743, 0};
Point(p16 + 10) = {19.030779, -0.2122499999999998, 0};
Point(p16 + 11) = {18.84137534571468, -0.2271563908710745, 0};
Point(p16 + 12) = {18.65663543799256, -0.2715085186695774, 0};
Point(p16 + 13) = {18.48110818647834, -0.3442142868128366, 0};
Point(p16 + 14) = {18.31911565464588, -0.4434834379925547, 0};
Point(p16 + 15) = {18.17464663625126, -0.5668716362512627, 0};
Point(p16 + 16) = {18.05125843799255, -0.7113406546458787, 0};
Point(p16 + 17) = {17.95198928681284, -0.8733331864783446, 0};
Point(p16 + 18) = {17.87928351866958, -1.048860437992555, 0};
Point(p16 + 19) = {17.83493139087107, -1.23360034571468, 0};
Point(p16 + 20) = {17.820025, -1.423004, 0};
Point(p16 + 21) = {17.83493139087107, -1.612407654285319, 0};
Point(p16 + 22) = {17.87928351866958, -1.797147562007445, 0};
Point(p16 + 23) = {17.95198928681284, -1.972674813521655, 0};
Point(p16 + 24) = {18.05125843799255, -2.134667345354121, 0};
Point(p16 + 25) = {18.17464663625126, -2.279136363748737, 0};
Point(p16 + 26) = {18.31911565464588, -2.402524562007445, 0};
Point(p16 + 27) = {18.48110818647834, -2.501793713187163, 0};
Point(p16 + 28) = {18.65663543799255, -2.574499481330422, 0};
Point(p16 + 29) = {18.84137534571468, -2.618851609128925, 0};
Point(p16 + 30) = {19.030779, -2.633758, 0};
Point(p16 + 31) = {19.22018265428532, -2.618851609128925, 0};
Point(p16 + 32) = {19.40492256200744, -2.574499481330423, 0};
Point(p16 + 33) = {19.58044981352165, -2.501793713187163, 0};
Point(p16 + 34) = {19.74244234535412, -2.402524562007445, 0};
Point(p16 + 35) = {19.88691136374874, -2.279136363748737, 0};
Point(p16 + 36) = {20.01029956200744, -2.134667345354121, 0};
Point(p16 + 37) = {20.10956871318716, -1.972674813521655, 0};
Point(p16 + 38) = {20.18227448133042, -1.797147562007445, 0};
Point(p16 + 39) = {20.22662660912892, -1.61240765428532, 0};
Spline(16) = {12, p16 + 1, p16 + 2, p16 + 3, p16 + 4, p16 + 5, p16 + 6, p16 + 7, p16 + 8, p16 + 9, p16 + 10, p16 + 11, p16 + 12, p16 + 13, p16 + 14, p16 + 15, p16 + 16, p16 + 17, p16 + 18, p16 + 19, p16 + 20, p16 + 21, p16 + 22, p16 + 23, p16 + 24, p16 + 25, p16 + 26, p16 + 27, p16 + 28, p16 + 29, p16 + 30, p16 + 31, p16 + 32, p16 + 33, p16 + 34, p16 + 35, p16 + 36, p16 + 37, p16 + 38, p16 + 39, 12};
Line(17) = {11, 8};
Line(18) = {12, 9};
Curve Loop(1) = {-1, 4, 3, -2};
Plane Surface(1) = {1};
Curve Loop(2) = {-5, 1, 7, -6};
Plane Surface(2) = {2};
Curve Loop(3) = {-2, 7, 9, -8, -10, -11};
Plane Surface(3) = {3};
Curve Loop(4) = {-12, 3, 8, -13};
Plane Surface(4) = {4};
Curve Loop(5) = {-4, 5, 14, -12, -15, -16};
Plane Surface(5) = {5};
Curve Loop(6) = {-6, 14, 13, -9};
Plane Surface(6) = {6};
Curve Loop(7) = {-10, -17, 15, 17};
Surface(7) = {7};
Curve Loop(8) = {-11, -18, 16, 18};
Surface(8) = {8};
Surface Loop(1) = {1, 2, 3, 4, 5, 6, 7, 8};
Volume(1) = {1};
Physical Surface("INFLOW") = {1};
Physical Surface("OUTFLOW") = {6};
Physical Surface("OBSTACLE") = {7, 8};
Physical Surface("WALL_Y") = {2, 4};
Physical Surface("WALL_Z") = {3, 5};
Physical Volume("FLUID") = {1};
