cl__1 = 0.734692;
cl__2 = 1.308752;
cl__3 = 3.856129;
cl__4 = 0.068189;
cl__5 = 0.140684;
Point(1) = {0.26068, -4.061944, 1, cl__1};
Point(2) = {0.26068, -4.061944, 0, cl__1};
Point(3) = {0.26068, 5.436878, 1, cl__2};
Point(4) = {0.26068, 5.436878, 0, cl__2};
Point(5) = {38.267686, -4.061944, 0, cl__1};
Point(6) = {38.267686, -4.061944, 1, cl__1};
Point(7) = {38.267686, 5.436878, 1, cl__3};
Point(8) = {8.28429, -0.8121830000000001, 1, cl__4};
Point(9) = {26.170121, 1.202811, 1, cl__5};
Point(10) = {38.267686, 5.436878, 0, cl__3};
Point(11) = {8.28429, -0.8121830000000001, 0, cl__4};
Point(12) = {26.170121, 1.202811, 0, cl__5};
Line(1) = {2, 1};
Line(2) = {1, 3};
Line(3) = {4, 3};
Line(4) = {2, 4};
Line(5) = {2, 5};
Line(6) = {5, 6};
Line(7) = {1, 6};
Line(8) = {3, 7};
Line(9) = {6, 7};
p10 = newp;
Point(p10 + 1) = {8.275894814880079, -0.705512059068182, 1};
Point(p10 + 2) = {8.250915976839986, -0.6014677107226615, 1};
Point(p10 + 3) = {8.209968547772283, -0.5026118721231002, 1};
Point(p10 + 4) = {8.154060789277338, -0.4113787020995378, 1};
Point(p10 + 5) = {8.084569335916514, -0.3300146640834863, 1};
Point(p10 + 6) = {8.003205297900463, -0.2605232107226615, 1};
Point(p10 + 7) = {7.911972127876901, -0.204615452227718, 1};
Point(p10 + 8) = {7.813116289277339, -0.1636680231600141, 1};
Point(p10 + 9) = {7.709071940931818, -0.1386891851199221, 1};
Point(p10 + 10) = {7.602401, -0.130294, 1};
Point(p10 + 11) = {7.495730059068182, -0.1386891851199222, 1};
Point(p10 + 12) = {7.391685710722662, -0.1636680231600139, 1};
Point(p10 + 13) = {7.292829872123101, -0.204615452227718, 1};
Point(p10 + 14) = {7.201596702099538, -0.2605232107226615, 1};
Point(p10 + 15) = {7.120232664083487, -0.3300146640834863, 1};
Point(p10 + 16) = {7.050741210722662, -0.4113787020995377, 1};
Point(p10 + 17) = {6.994833452227718, -0.5026118721231001, 1};
Point(p10 + 18) = {6.953886023160014, -0.6014677107226614, 1};
Point(p10 + 19) = {6.928907185119923, -0.7055120590681819, 1};
Point(p10 + 20) = {6.920512, -0.8121829999999999, 1};
Point(p10 + 21) = {6.928907185119923, -0.9188539409318179, 1};
Point(p10 + 22) = {6.953886023160014, -1.022898289277339, 1};
Point(p10 + 23) = {6.994833452227718, -1.121754127876899, 1};
Point(p10 + 24) = {7.050741210722662, -1.212987297900462, 1};
Point(p10 + 25) = {7.120232664083487, -1.294351335916514, 1};
Point(p10 + 26) = {7.201596702099538, -1.363842789277338, 1};
Point(p10 + 27) = {7.2928298721231, -1.419750547772282, 1};
Point(p10 + 28) = {7.391685710722662, -1.460697976839986, 1};
Point(p10 + 29) = {7.495730059068182, -1.485676814880078, 1};
Point(p10 + 30) = {7.602401, -1.494072, 1};
Point(p10 + 31) = {7.709071940931818, -1.485676814880078, 1};
Point(p10 + 32) = {7.813116289277339, -1.460697976839986, 1};
Point(p10 + 33) = {7.9119721278769, -1.419750547772282, 1};
Point(p10 + 34) = {8.003205297900463, -1.363842789277339, 1};
Point(p10 + 35) = {8.084569335916514, -1.294351335916514, 1};
Point(p10 + 36) = {8.154060789277338, -1.212987297900462, 1};
Point(p10 + 37) = {8.209968547772283, -1.1217541278769, 1};
Point(p10 + 38) = {8.250915976839986, -1.022898289277339, 1};
Point(p10 + 39) = {8.275894814880079, -0.9188539409318182, 1};
Spline(10) = {8, p10 + 1, p10 + 2, p10 + 3, p10 + 4, p10 + 5, p10 + 6, p10 + 7, p10 + 8, p10 + 9, p10 + 10, p10 + 11, p10 + 12, p10 + 13, p10 + 14, p10 + 15, p10 + 16, p10 + 17, p10 + 18, p10 + 19, p10 + 20, p10 + 21, p10 + 22, p10 + 23, p10 + 24, p10 + 25, p10 + 26, p10 + 27, p10 + 28, p10 + 29, p10 + 30, p10 + 31, p10 + 32, p10 + 33, p10 + 34, p10 + 35, p10 + 36, p10 + 37, p10 + 38, p10 + 39, 8};
p11 = newp;
Point(p11 + 1) = {26.15280040352457, 1.422890044969524, 1};
Point(p11 + 2) = {26.10126510466726, 1.637550013451423, 1};
Point(p11 + 3) = {26.01678407352178, 1.841505264606083, 1};
Point(p11 + 4) = {25.90143751345142, 2.029733743261405, 1};
Point(p11 + 5) = {25.75806563957839, 2.197600639578388, 1};
Point(p11 + 6) = {25.59019874326141, 2.340972513451423, 1};
Point(p11 + 7) = {25.40197026460608, 2.456319073521784, 1};
Point(p11 + 8) = {25.19801501345142, 2.540800104667255, 1};
Point(p11 + 9) = {24.98335504496952, 2.592335403524566, 1};
Point(p11 + 10) = {24.763276, 2.609656, 1};
Point(p11 + 11) = {24.54319695503048, 2.592335403524566, 1};
Point(p11 + 12) = {24.32853698654858, 2.540800104667255, 1};
Point(p11 + 13) = {24.12458173539392, 2.456319073521784, 1};
Point(p11 + 14) = {23.9363532567386, 2.340972513451423, 1};
Point(p11 + 15) = {23.76848636042161, 2.197600639578388, 1};
Point(p11 + 16) = {23.62511448654858, 2.029733743261405, 1};
Point(p11 + 17) = {23.50976792647822, 1.841505264606083, 1};
Point(p11 + 18) = {23.42528689533275, 1.637550013451423, 1};
Point(p11 + 19) = {23.37375159647544, 1.422890044969524, 1};
Point(p11 + 20) = {23.356431, 1.202811, 1};
Point(p11 + 21) = {23.37375159647544, 0.9827319550304767, 1};
Point(p11 + 22) = {23.42528689533275, 0.7680719865485768, 1};
Point(p11 + 23) = {23.50976792647822, 0.5641167353939182, 1};
Point(p11 + 24) = {23.62511448654858, 0.3758882567385959, 1};
Point(p11 + 25) = {23.76848636042161, 0.2080213604216118, 1};
Point(p11 + 26) = {23.9363532567386, 0.06464948654857738, 1};
Point(p11 + 27) = {24.12458173539392, -0.05069707352178421, 1};
Point(p11 + 28) = {24.32853698654858, -0.1351781046672551, 1};
Point(p11 + 29) = {24.54319695503048, -0.1867134035245663, 1};
Point(p11 + 30) = {24.763276, -0.2040339999999998, 1};
Point(p11 + 31) = {24.98335504496952, -0.1867134035245663, 1};
Point(p11 + 32) = {25.19801501345142, -0.1351781046672553, 1};
Point(p11 + 33) = {25.40197026460608, -0.05069707352178421, 1};
Point(p11 + 34) = {25.5901987432614, 0.06464948654857716, 1};
Point(p11 + 35) = {25.75806563957839, 0.2080213604216115, 1};
Point(p11 + 36) = {25.90143751345142, 0.3758882567385955, 1};
Point(p11 + 37) = {26.01678407352178, 0.5641167353939172, 1};
Point(p11 + 38) = {26.10126510466726, 0.768071986548577, 1};
Point(p11 + 39) = {26.15280040352457, 0.9827319550304762, 1};
Spline(11) = {9, p11 + 1, p11 + 2, p11 + 3, p11 + 4, p11 + 5, p11 + 6, p11 + 7, p11 + 8, p11 + 9, p11 + 10, p11 + 11, p11 + 12, p11 + 13, p11 + 14, p11 + 15, p11 + 16, p11 + 17, p11 + 18, p11 + 19, p11 + 20, p11 + 21, p11 + 22, p11 + 23, p11 + 24, p11 + 25, p11 + 26, p11 + 27, p11 + 28, p11 + 29, p11 + 30, p11 + 31, p11 + 32, p11 + 33, p11 + 34, p11 + 35, p11 + 36, p11 + 37, p11 + 38, p11 + 39, 9};
Line(12) = {4, 10};
Line(13) = {10, 7};
Line(14) = {5, 10};
p15 = newp;
Point(p15 + 1) = {8.275894814880079, -0.705512059068182, 0};
Point(p15 + 2) = {8.250915976839986, -0.6014677107226615, 0};
Point(p15 + 3) = {8.209968547772283, -0.5026118721231002, 0};
Point(p15 + 4) = {8.154060789277338, -0.4113787020995378, 0};
Point(p15 + 5) = {8.084569335916514, -0.3300146640834863, 0};
Point(p15 + 6) = {8.003205297900463, -0.2605232107226615, 0};
Point(p15 + 7) = {7.911972127876901, -0.204615452227718, 0};
Point(p15 + 8) = {7.813116289277339, -0.1636680231600141, 0};
Point(p15 + 9) = {7.709071940931818, -0.1386891851199221, 0};
Point(p15 + 10) = {7.602401, -0.130294, 0};
Point(p15 + 11) = {7.495730059068182, -0.1386891851199222, 0};
Point(p15 + 12) = {7.391685710722662, -0.1636680231600139, 0};
Point(p15 + 13) = {7.292829872123101, -0.204615452227718, 0};
Point(p15 + 14) = {7.201596702099538, -0.2605232107226615, 0};
Point(p15 + 15) = {7.120232664083487, -0.3300146640834863, 0};
Point(p15 + 16) = {7.050741210722662, -0.4113787020995377, 0};
Point(p15 + 17) = {6.994833452227718, -0.5026118721231001, 0};
Point(p15 + 18) = {6.953886023160014, -0.6014677107226614, 0};
Point(p15 + 19) = {6.928907185119923, -0.7055120590681819, 0};
Point(p15 + 20) = {6.920512, -0.8121829999999999, 0};
Point(p15 + 21) = {6.928907185119923, -0.9188539409318179, 0};
Point(p15 + 22) = {6.953886023160014, -1.022898289277339, 0};
Point(p15 + 23) = {6.994833452227718, -1.121754127876899, 0};
Point(p15 + 24) = {7.050741210722662, -1.212987297900462, 0};
Point(p15 + 25) = {7.120232664083487, -1.294351335916514, 0};
Point(p15 + 26) = {7.201596702099538, -1.363842789277338, 0};
Point(p15 + 27) = {7.2928298721231, -1.419750547772282, 0};
Point(p15 + 28) = {7.391685710722662, -1.460697976839986, 0};
Point(p15 + 29) = {7.495730059068182, -1.485676814880078, 0};
Point(p15 + 30) = {7.602401, -1.494072, 0};
Point(p15 + 31) = {7.709071940931818, -1.485676814880078, 0};
Point(p15 + 32) = {7.813116289277339, -1.460697976839986, 0};
Point(p15 + 33) = {7.9119721278769, -1.419750547772282, 0};
Point(p15 + 34) = {8.003205297900463, -1.363842789277339, 0};
Point(p15 + 35) = {8.084569335916514, -1.294351335916514, 0};
Point(p15 + 36) = {8.154060789277338, -1.212987297900462, 0};
Point(p15 + 37) = {8.209968547772283, -1.1217541278769, 0};
Point(p15 + 38) = {8.250915976839986, -1.022898289277339, 0};
Point(p15 + 39) = {8.275894814880079, -0.9188539409318182, 0};
Spline(15) = {11, p15 + 1, p15 + 2, p15 + 3, p15 + 4, p15 + 5, p15 + 6, p15 + 7, p15 + 8, p15 + 9, p15 + 10, p15 + 11, p15 + 12, p15 + 13, p15 + 14, p15 + 15, p15 + 16, p15 + 17, p15 + 18, p15 + 19, p15 + 20, p15 + 21, p15 + 22, p15 + 23, p15 + 24, p15 + 25, p15 + 26, p15 + 27, p15 + 28, p15 + 29, p15 + 30, p15 + 31, p15 + 32, p15 + 33, p15 + 34, p15 + 35, p15 + 36, p15 + 37, p15 + 38, p15 + 39, 11};
p16 = newp;
Point(p16 + 1) = {26.15280040352457, 1.422890044969524, 0};
Point(p16 + 2) = {26.10126510466726, 1.637550013451423, 0};
Point(p16 + 3) = {26.01678407352178, 1.841505264606083, 0};
Point(p16 + 4) = {25.90143751345142, 2.029733743261405, 0};
Point(p16 + 5) = {25.75806563957839, 2.197600639578388, 0};
Point(p16 + 6) = {25.59019874326141, 2.340972513451423, 0};
Point(p16 + 7) = {25.40197026460608, 2.456319073521784, 0};
Point(p16 + 8) = {25.19801501345142, 2.540800104667255, 0};
Point(p16 + 9) = {24.98335504496952, 2.592335403524566, 0};
Point(p16 + 10) = {24.763276, 2.609656, 0};
Point(p16 + 11) = {24.54319695503048, 2.592335403524566, 0};
Point(p16 + 12) = {24.32853698654858, 2.540800104667255, 0};
Point(p16 + 13) = {24.12458173539392, 2.456319073521784, 0};
Point(p16 + 14) = {23.9363532567386, 2.340972513451423, 0};
Point(p16 + 15) = {23.76848636042161, 2.197600639578388, 0};
Point(p16 + 16) = {23.62511448654858, 2.029733743261405, 0};
Point(p16 + 17) = {23.50976792647822, 1.841505264606083, 0};
Point(p16 + 18) = {23.42528689533275, 1.637550013451423, 0};
Point(p16 + 19) = {23.37375159647544, 1.422890044969524, 0};
Point(p16 + 20) = {23.356431, 1.202811, 0};
Point(p16 + 21) = {23.37375159647544, 0.9827319550304767, 0};
Point(p16 + 22) = {23.42528689533275, 0.7680719865485768, 0};
Point(p16 + 23) = {23.50976792647822, 0.5641167353939182, 0};
Point(p16 + 24) = {23.62511448654858, 0.3758882567385959, 0};
Point(p16 + 25) = {23.76848636042161, 0.2080213604216118, 0};
Point(p16 + 26) = {23.9363532567386, 0.06464948654857738, 0};
Point(p16 + 27) = {24.12458173539392, -0.05069707352178421, 0};
Point(p16 + 28) = {24.32853698654858, -0.1351781046672551, 0};
Point(p16 + 29) = {24.54319695503048, -0.1867134035245663, 0};
Point(p16 + 30) = {24.763276, -0.2040339999999998, 0};
Point(p16 + 31) = {24.98335504496952, -0.1867134035245663, 0};
Point(p16 + 32) = {25.19801501345142, -0.1351781046672553, 0};
Point(p16 + 33) = {25.40197026460608, -0.05069707352178421, 0};
Point(p16 + 34) = {25.5901987432614, 0.06464948654857716, 0};
Point(p16 + 35) = {25.75806563957839, 0.2080213604216115, 0};
Point(p16 + 36) = {25.90143751345142, 0.3758882567385955, 0};
Point(p16 + 37) = {26.01678407352178, 0.5641167353939172, 0};
Point(p16 + 38) = {26.10126510466726, 0.768071986548577, 0};
Point(p16 + 39) = {26.15280040352457, 0.9827319550304762, 0};
Spline(16) = {12, p16 + 1, p16 + 2, p16 + 3, p16 + 4, p16 + 5, p16 + 6, p16 + 7, p16 + 8, p16 + 9, p16 + 10, p16 + 11, p16 + 12, p16 + 13, p16 + 14, p16 + 15, p16 + 16, p16 + 17, p16 + 18, p16 + 19, p16 + 20, p16 + 21, p16 + 22, p16 + 23, p16 + 24, p16 + 25, p16 + 26, p16 + 27, p16 + 28, p16 + 29, p16 + 30, p16 + 31, p16 + 32, p16 + 33, p16 + 34, p16 + 35, p16 + 36, p16 + 37, p16 + 38, p16 + 39, 12};
Line(17) = {11, 8};
Line(18) = {12, 9};
Curve Loop(1) = {-1, 4, 3, -2};
Plane Surface(1) = {1};
Curve Loop(2) = {-5, 1, 7, -6};
Plane Surface(2) = {2};
Curve Loop(3) = {-2, 7, 9, -8, -10, -11};
Plane Surface(3) = {3};
Curve Loop(4) = {-12, 3, 8, -13};
Plane Surface(4) = {4};
Curve Loop(5) = {-4, 5, 14, -12, -15, -16};
Plane Surface(5) = {5};
Curve Loop(6) = {-6, 14, 13, -9};
Plane Surface(6) = {6};
Curve Loop(7) = {-10, -17, 15, 17};
Surface(7) = {7};
Curve Loop(8) = {-11, -18, 16, 18};
Surface(8) = {8};
Surface Loop(1) = {1, 2, 3, 4, 5, 6, 7, 8};
Volume(1) = {1};
Physical Surface("INFLOW") = {1};
Physical Surface("OUTFLOW") = {6};
Physical Surface("OBSTACLE") = {7, 8};
Physical Surface("WALL_Y") = {2, 4};
Physical Surface("WALL_Z") = {3, 5};
Physical Volume("FLUID") = {1};
