cl__1 = 3.213963;
cl__2 = 1.217208;
cl__3 = 1.459639;
cl__4 = 0.08479200000000001;
cl__5 = 0.109697;
Point(1) = {0.101752, -3.285502, 1, cl__1};
Point(2) = {0.101752, -3.285502, 0, cl__1};
Point(3) = {0.101752, 5.029459999999999, 1, cl__2};
Point(4) = {0.101752, 5.029459999999999, 0, cl__2};
Point(5) = {31.869598, -3.285502, 0, cl__1};
Point(6) = {31.869598, -3.285502, 1, cl__1};
Point(7) = {31.869598, 5.029459999999999, 1, cl__3};
Point(8) = {20.330079, 0.7234409999999998, 1, cl__4};
Point(9) = {17.915037, 1.156683, 1, cl__5};
Point(10) = {31.869598, 5.029459999999999, 0, cl__3};
Point(11) = {20.330079, 0.7234409999999998, 0, cl__4};
Point(12) = {17.915037, 1.156683, 0, cl__5};
Line(1) = {2, 1};
Line(2) = {1, 3};
Line(3) = {4, 3};
Line(4) = {2, 4};
Line(5) = {2, 5};
Line(6) = {5, 6};
Line(7) = {1, 6};
Line(8) = {3, 7};
Line(9) = {6, 7};
p10 = newp;
Point(p10 + 1) = {20.31963963619913, 0.8560856937692378, 1};
Point(p10 + 2) = {20.28857859657957, 0.9854642349553773, 1};
Point(p10 + 3) = {20.23766070702242, 1.108390894491655, 1};
Point(p10 + 4) = {20.16813973495538, 1.221838810050095, 1};
Point(p10 + 5) = {20.08172751743761, 1.323014517437603, 1};
Point(p10 + 6) = {19.9805518100501, 1.409426734955377, 1};
Point(p10 + 7) = {19.86710389449166, 1.478947707022422, 1};
Point(p10 + 8) = {19.74417723495538, 1.529865596579568, 1};
Point(p10 + 9) = {19.61479869376924, 1.560926636199132, 1};
Point(p10 + 10) = {19.482154, 1.571366, 1};
Point(p10 + 11) = {19.34950930623076, 1.560926636199132, 1};
Point(p10 + 12) = {19.22013076504462, 1.529865596579568, 1};
Point(p10 + 13) = {19.09720410550835, 1.478947707022422, 1};
Point(p10 + 14) = {18.98375618994991, 1.409426734955377, 1};
Point(p10 + 15) = {18.8825804825624, 1.323014517437603, 1};
Point(p10 + 16) = {18.79616826504462, 1.221838810050095, 1};
Point(p10 + 17) = {18.72664729297758, 1.108390894491655, 1};
Point(p10 + 18) = {18.67572940342043, 0.9854642349553774, 1};
Point(p10 + 19) = {18.64466836380087, 0.8560856937692378, 1};
Point(p10 + 20) = {18.634229, 0.7234410000000001, 1};
Point(p10 + 21) = {18.64466836380087, 0.5907963062307624, 1};
Point(p10 + 22) = {18.67572940342043, 0.4614177650446225, 1};
Point(p10 + 23) = {18.72664729297758, 0.3384911055083452, 1};
Point(p10 + 24) = {18.79616826504462, 0.2250431899499048, 1};
Point(p10 + 25) = {18.8825804825624, 0.1238674825623968, 1};
Point(p10 + 26) = {18.9837561899499, 0.03745526504462271, 1};
Point(p10 + 27) = {19.09720410550835, -0.03206570702242184, 1};
Point(p10 + 28) = {19.22013076504462, -0.08298359657956811, 1};
Point(p10 + 29) = {19.34950930623076, -0.1140446361991322, 1};
Point(p10 + 30) = {19.482154, -0.124484, 1};
Point(p10 + 31) = {19.61479869376924, -0.1140446361991322, 1};
Point(p10 + 32) = {19.74417723495538, -0.08298359657956822, 1};
Point(p10 + 33) = {19.86710389449166, -0.03206570702242184, 1};
Point(p10 + 34) = {19.98055181005009, 0.0374552650446226, 1};
Point(p10 + 35) = {20.0817275174376, 0.1238674825623965, 1};
Point(p10 + 36) = {20.16813973495538, 0.2250431899499045, 1};
Point(p10 + 37) = {20.23766070702242, 0.3384911055083446, 1};
Point(p10 + 38) = {20.28857859657957, 0.4614177650446225, 1};
Point(p10 + 39) = {20.31963963619913, 0.5907963062307621, 1};
Spline(10) = {8, p10 + 1, p10 + 2, p10 + 3, p10 + 4, p10 + 5, p10 + 6, p10 + 7, p10 + 8, p10 + 9, p10 + 10, p10 + 11, p10 + 12, p10 + 13, p10 + 14, p10 + 15, p10 + 16, p10 + 17, p10 + 18, p10 + 19, p10 + 20, p10 + 21, p10 + 22, p10 + 23, p10 + 24, p10 + 25, p10 + 26, p10 + 27, p10 + 28, p10 + 29, p10 + 30, p10 + 31, p10 + 32, p10 + 33, p10 + 34, p10 + 35, p10 + 36, p10 + 37, p10 + 38, p10 + 39, 8};
p11 = newp;
Point(p11 + 1) = {17.90153146667099, 1.328287071549647, 1};
Point(p11 + 2) = {17.86134741773681, 1.49566568133648, 1};
Point(p11 + 3) = {17.79547431784544, 1.65469741248979, 1};
Point(p11 + 4) = {17.70553418133648, 1.801466375992526, 1};
Point(p11 + 5) = {17.59374163286499, 1.932358632864988, 1};
Point(p11 + 6) = {17.46284937599253, 2.04415118133648, 1};
Point(p11 + 7) = {17.31608041248979, 2.134091317845438, 1};
Point(p11 + 8) = {17.15704868133648, 2.199964417736811, 1};
Point(p11 + 9) = {16.98967007154965, 2.240148466670989, 1};
Point(p11 + 10) = {16.818066, 2.253654, 1};
Point(p11 + 11) = {16.64646192845035, 2.240148466670989, 1};
Point(p11 + 12) = {16.47908331866352, 2.199964417736811, 1};
Point(p11 + 13) = {16.32005158751021, 2.134091317845438, 1};
Point(p11 + 14) = {16.17328262400748, 2.04415118133648, 1};
Point(p11 + 15) = {16.04239036713501, 1.932358632864988, 1};
Point(p11 + 16) = {15.93059781866352, 1.801466375992526, 1};
Point(p11 + 17) = {15.84065768215456, 1.65469741248979, 1};
Point(p11 + 18) = {15.77478458226319, 1.49566568133648, 1};
Point(p11 + 19) = {15.73460053332901, 1.328287071549647, 1};
Point(p11 + 20) = {15.721095, 1.156683, 1};
Point(p11 + 21) = {15.73460053332901, 0.9850789284503529, 1};
Point(p11 + 22) = {15.77478458226319, 0.8177003186635192, 1};
Point(p11 + 23) = {15.84065768215456, 0.6586685875102102, 1};
Point(p11 + 24) = {15.93059781866352, 0.5118996240074736, 1};
Point(p11 + 25) = {16.04239036713501, 0.3810073671350118, 1};
Point(p11 + 26) = {16.17328262400747, 0.2692148186635196, 1};
Point(p11 + 27) = {16.32005158751021, 0.179274682154562, 1};
Point(p11 + 28) = {16.47908331866352, 0.1134015822631891, 1};
Point(p11 + 29) = {16.64646192845035, 0.07321753332901126, 1};
Point(p11 + 30) = {16.818066, 0.05971199999999999, 1};
Point(p11 + 31) = {16.98967007154965, 0.07321753332901104, 1};
Point(p11 + 32) = {17.15704868133648, 0.1134015822631891, 1};
Point(p11 + 33) = {17.31608041248979, 0.1792746821545619, 1};
Point(p11 + 34) = {17.46284937599253, 0.2692148186635194, 1};
Point(p11 + 35) = {17.59374163286499, 0.3810073671350116, 1};
Point(p11 + 36) = {17.70553418133648, 0.5118996240074731, 1};
Point(p11 + 37) = {17.79547431784544, 0.6586685875102094, 1};
Point(p11 + 38) = {17.86134741773681, 0.8177003186635192, 1};
Point(p11 + 39) = {17.90153146667099, 0.9850789284503526, 1};
Spline(11) = {9, p11 + 1, p11 + 2, p11 + 3, p11 + 4, p11 + 5, p11 + 6, p11 + 7, p11 + 8, p11 + 9, p11 + 10, p11 + 11, p11 + 12, p11 + 13, p11 + 14, p11 + 15, p11 + 16, p11 + 17, p11 + 18, p11 + 19, p11 + 20, p11 + 21, p11 + 22, p11 + 23, p11 + 24, p11 + 25, p11 + 26, p11 + 27, p11 + 28, p11 + 29, p11 + 30, p11 + 31, p11 + 32, p11 + 33, p11 + 34, p11 + 35, p11 + 36, p11 + 37, p11 + 38, p11 + 39, 9};
Line(12) = {4, 10};
Line(13) = {10, 7};
Line(14) = {5, 10};
p15 = newp;
Point(p15 + 1) = {20.31963963619913, 0.8560856937692378, 0};
Point(p15 + 2) = {20.28857859657957, 0.9854642349553773, 0};
Point(p15 + 3) = {20.23766070702242, 1.108390894491655, 0};
Point(p15 + 4) = {20.16813973495538, 1.221838810050095, 0};
Point(p15 + 5) = {20.08172751743761, 1.323014517437603, 0};
Point(p15 + 6) = {19.9805518100501, 1.409426734955377, 0};
Point(p15 + 7) = {19.86710389449166, 1.478947707022422, 0};
Point(p15 + 8) = {19.74417723495538, 1.529865596579568, 0};
Point(p15 + 9) = {19.61479869376924, 1.560926636199132, 0};
Point(p15 + 10) = {19.482154, 1.571366, 0};
Point(p15 + 11) = {19.34950930623076, 1.560926636199132, 0};
Point(p15 + 12) = {19.22013076504462, 1.529865596579568, 0};
Point(p15 + 13) = {19.09720410550835, 1.478947707022422, 0};
Point(p15 + 14) = {18.98375618994991, 1.409426734955377, 0};
Point(p15 + 15) = {18.8825804825624, 1.323014517437603, 0};
Point(p15 + 16) = {18.79616826504462, 1.221838810050095, 0};
Point(p15 + 17) = {18.72664729297758, 1.108390894491655, 0};
Point(p15 + 18) = {18.67572940342043, 0.9854642349553774, 0};
Point(p15 + 19) = {18.64466836380087, 0.8560856937692378, 0};
Point(p15 + 20) = {18.634229, 0.7234410000000001, 0};
Point(p15 + 21) = {18.64466836380087, 0.5907963062307624, 0};
Point(p15 + 22) = {18.67572940342043, 0.4614177650446225, 0};
Point(p15 + 23) = {18.72664729297758, 0.3384911055083452, 0};
Point(p15 + 24) = {18.79616826504462, 0.2250431899499048, 0};
Point(p15 + 25) = {18.8825804825624, 0.1238674825623968, 0};
Point(p15 + 26) = {18.9837561899499, 0.03745526504462271, 0};
Point(p15 + 27) = {19.09720410550835, -0.03206570702242184, 0};
Point(p15 + 28) = {19.22013076504462, -0.08298359657956811, 0};
Point(p15 + 29) = {19.34950930623076, -0.1140446361991322, 0};
Point(p15 + 30) = {19.482154, -0.124484, 0};
Point(p15 + 31) = {19.61479869376924, -0.1140446361991322, 0};
Point(p15 + 32) = {19.74417723495538, -0.08298359657956822, 0};
Point(p15 + 33) = {19.86710389449166, -0.03206570702242184, 0};
Point(p15 + 34) = {19.98055181005009, 0.0374552650446226, 0};
Point(p15 + 35) = {20.0817275174376, 0.1238674825623965, 0};
Point(p15 + 36) = {20.16813973495538, 0.2250431899499045, 0};
Point(p15 + 37) = {20.23766070702242, 0.3384911055083446, 0};
Point(p15 + 38) = {20.28857859657957, 0.4614177650446225, 0};
Point(p15 + 39) = {20.31963963619913, 0.5907963062307621, 0};
Spline(15) = {11, p15 + 1, p15 + 2, p15 + 3, p15 + 4, p15 + 5, p15 + 6, p15 + 7, p15 + 8, p15 + 9, p15 + 10, p15 + 11, p15 + 12, p15 + 13, p15 + 14, p15 + 15, p15 + 16, p15 + 17, p15 + 18, p15 + 19, p15 + 20, p15 + 21, p15 + 22, p15 + 23, p15 + 24, p15 + 25, p15 + 26, p15 + 27, p15 + 28, p15 + 29, p15 + 30, p15 + 31, p15 + 32, p15 + 33, p15 + 34, p15 + 35, p15 + 36, p15 + 37, p15 + 38, p15 + 39, 11};
p16 = newp;
Point(p16 + 1) = {17.90153146667099, 1.328287071549647, 0};
Point(p16 + 2) = {17.86134741773681, 1.49566568133648, 0};
Point(p16 + 3) = {17.79547431784544, 1.65469741248979, 0};
Point(p16 + 4) = {17.70553418133648, 1.801466375992526, 0};
Point(p16 + 5) = {17.59374163286499, 1.932358632864988, 0};
Point(p16 + 6) = {17.46284937599253, 2.04415118133648, 0};
Point(p16 + 7) = {17.31608041248979, 2.134091317845438, 0};
Point(p16 + 8) = {17.15704868133648, 2.199964417736811, 0};
Point(p16 + 9) = {16.98967007154965, 2.240148466670989, 0};
Point(p16 + 10) = {16.818066, 2.253654, 0};
Point(p16 + 11) = {16.64646192845035, 2.240148466670989, 0};
Point(p16 + 12) = {16.47908331866352, 2.199964417736811, 0};
Point(p16 + 13) = {16.32005158751021, 2.134091317845438, 0};
Point(p16 + 14) = {16.17328262400748, 2.04415118133648, 0};
Point(p16 + 15) = {16.04239036713501, 1.932358632864988, 0};
Point(p16 + 16) = {15.93059781866352, 1.801466375992526, 0};
Point(p16 + 17) = {15.84065768215456, 1.65469741248979, 0};
Point(p16 + 18) = {15.77478458226319, 1.49566568133648, 0};
Point(p16 + 19) = {15.73460053332901, 1.328287071549647, 0};
Point(p16 + 20) = {15.721095, 1.156683, 0};
Point(p16 + 21) = {15.73460053332901, 0.9850789284503529, 0};
Point(p16 + 22) = {15.77478458226319, 0.8177003186635192, 0};
Point(p16 + 23) = {15.84065768215456, 0.6586685875102102, 0};
Point(p16 + 24) = {15.93059781866352, 0.5118996240074736, 0};
Point(p16 + 25) = {16.04239036713501, 0.3810073671350118, 0};
Point(p16 + 26) = {16.17328262400747, 0.2692148186635196, 0};
Point(p16 + 27) = {16.32005158751021, 0.179274682154562, 0};
Point(p16 + 28) = {16.47908331866352, 0.1134015822631891, 0};
Point(p16 + 29) = {16.64646192845035, 0.07321753332901126, 0};
Point(p16 + 30) = {16.818066, 0.05971199999999999, 0};
Point(p16 + 31) = {16.98967007154965, 0.07321753332901104, 0};
Point(p16 + 32) = {17.15704868133648, 0.1134015822631891, 0};
Point(p16 + 33) = {17.31608041248979, 0.1792746821545619, 0};
Point(p16 + 34) = {17.46284937599253, 0.2692148186635194, 0};
Point(p16 + 35) = {17.59374163286499, 0.3810073671350116, 0};
Point(p16 + 36) = {17.70553418133648, 0.5118996240074731, 0};
Point(p16 + 37) = {17.79547431784544, 0.6586685875102094, 0};
Point(p16 + 38) = {17.86134741773681, 0.8177003186635192, 0};
Point(p16 + 39) = {17.90153146667099, 0.9850789284503526, 0};
Spline(16) = {12, p16 + 1, p16 + 2, p16 + 3, p16 + 4, p16 + 5, p16 + 6, p16 + 7, p16 + 8, p16 + 9, p16 + 10, p16 + 11, p16 + 12, p16 + 13, p16 + 14, p16 + 15, p16 + 16, p16 + 17, p16 + 18, p16 + 19, p16 + 20, p16 + 21, p16 + 22, p16 + 23, p16 + 24, p16 + 25, p16 + 26, p16 + 27, p16 + 28, p16 + 29, p16 + 30, p16 + 31, p16 + 32, p16 + 33, p16 + 34, p16 + 35, p16 + 36, p16 + 37, p16 + 38, p16 + 39, 12};
Line(17) = {11, 8};
Line(18) = {12, 9};
Curve Loop(1) = {-1, 4, 3, -2};
Plane Surface(1) = {1};
Curve Loop(2) = {-5, 1, 7, -6};
Plane Surface(2) = {2};
Curve Loop(3) = {-2, 7, 9, -8, -10, -11};
Plane Surface(3) = {3};
Curve Loop(4) = {-12, 3, 8, -13};
Plane Surface(4) = {4};
Curve Loop(5) = {-4, 5, 14, -12, -15, -16};
Plane Surface(5) = {5};
Curve Loop(6) = {-6, 14, 13, -9};
Plane Surface(6) = {6};
Curve Loop(7) = {-10, -17, 15, 17};
Surface(7) = {7};
Curve Loop(8) = {-11, -18, 16, 18};
Surface(8) = {8};
Surface Loop(1) = {1, 2, 3, 4, 5, 6, 7, 8};
Volume(1) = {1};
Physical Surface("INFLOW") = {1};
Physical Surface("OUTFLOW") = {6};
Physical Surface("OBSTACLE") = {7, 8};
Physical Surface("WALL_Y") = {2, 4};
Physical Surface("WALL_Z") = {3, 5};
Physical Volume("FLUID") = {1};
