cl__1 = 4.008677;
cl__2 = 0.673087;
cl__3 = 0.209107;
cl__4 = 0.079045;
Point(1) = {0.6766219999999999, -4.393278, 1, cl__1};
Point(2) = {0.6766219999999999, -4.393278, 0, cl__1};
Point(3) = {0.6766219999999999, 5.152666000000001, 1, cl__1};
Point(4) = {0.6766219999999999, 5.152666000000001, 0, cl__1};
Point(5) = {39.801605, -4.393278, 0, cl__2};
Point(6) = {39.801605, -4.393278, 1, cl__2};
Point(7) = {39.801605, 5.152666000000001, 1, cl__3};
Point(8) = {38.785418, 2.907846, 1, cl__4};
Point(9) = {39.801605, 5.152666000000001, 0, cl__3};
Point(10) = {38.785418, 2.907846, 0, cl__4};
Line(1) = {2, 1};
Line(2) = {1, 3};
Line(3) = {4, 3};
Line(4) = {2, 4};
Line(5) = {2, 5};
Line(6) = {5, 6};
Line(7) = {1, 6};
Line(8) = {3, 7};
Line(9) = {6, 7};
p10 = newp;
Point(p10 + 1) = {38.77568621188845, 3.031500092194446, 1};
Point(p10 + 2) = {38.74673047647505, 3.15210941025466, 1};
Point(p10 + 3) = {38.69926378006427, 3.266704152490624, 1};
Point(p10 + 4) = {38.63445491025466, 3.372462616030342, 1};
Point(p10 + 5) = {38.55389967650925, 3.46678067650925, 1};
Point(p10 + 6) = {38.45958161603034, 3.54733591025466, 1};
Point(p10 + 7) = {38.35382315249063, 3.612144780064268, 1};
Point(p10 + 8) = {38.23922841025466, 3.659611476475053, 1};
Point(p10 + 9) = {38.11861909219444, 3.688567211888448, 1};
Point(p10 + 10) = {37.994965, 3.698299, 1};
Point(p10 + 11) = {37.87131090780556, 3.688567211888448, 1};
Point(p10 + 12) = {37.75070158974534, 3.659611476475053, 1};
Point(p10 + 13) = {37.63610684750937, 3.612144780064268, 1};
Point(p10 + 14) = {37.53034838396966, 3.54733591025466, 1};
Point(p10 + 15) = {37.43603032349075, 3.46678067650925, 1};
Point(p10 + 16) = {37.35547508974534, 3.372462616030342, 1};
Point(p10 + 17) = {37.29066621993573, 3.266704152490624, 1};
Point(p10 + 18) = {37.24319952352495, 3.152109410254661, 1};
Point(p10 + 19) = {37.21424378811155, 3.031500092194446, 1};
Point(p10 + 20) = {37.204512, 2.907846, 1};
Point(p10 + 21) = {37.21424378811155, 2.784191907805555, 1};
Point(p10 + 22) = {37.24319952352495, 2.66358258974534, 1};
Point(p10 + 23) = {37.29066621993573, 2.548987847509377, 1};
Point(p10 + 24) = {37.35547508974534, 2.443229383969658, 1};
Point(p10 + 25) = {37.43603032349075, 2.34891132349075, 1};
Point(p10 + 26) = {37.53034838396966, 2.26835608974534, 1};
Point(p10 + 27) = {37.63610684750937, 2.203547219935732, 1};
Point(p10 + 28) = {37.75070158974534, 2.156080523524947, 1};
Point(p10 + 29) = {37.87131090780556, 2.127124788111552, 1};
Point(p10 + 30) = {37.994965, 2.117393, 1};
Point(p10 + 31) = {38.11861909219444, 2.127124788111552, 1};
Point(p10 + 32) = {38.23922841025466, 2.156080523524947, 1};
Point(p10 + 33) = {38.35382315249063, 2.203547219935732, 1};
Point(p10 + 34) = {38.45958161603034, 2.26835608974534, 1};
Point(p10 + 35) = {38.55389967650925, 2.34891132349075, 1};
Point(p10 + 36) = {38.63445491025466, 2.443229383969657, 1};
Point(p10 + 37) = {38.69926378006427, 2.548987847509376, 1};
Point(p10 + 38) = {38.74673047647505, 2.66358258974534, 1};
Point(p10 + 39) = {38.77568621188845, 2.784191907805554, 1};
Spline(10) = {8, p10 + 1, p10 + 2, p10 + 3, p10 + 4, p10 + 5, p10 + 6, p10 + 7, p10 + 8, p10 + 9, p10 + 10, p10 + 11, p10 + 12, p10 + 13, p10 + 14, p10 + 15, p10 + 16, p10 + 17, p10 + 18, p10 + 19, p10 + 20, p10 + 21, p10 + 22, p10 + 23, p10 + 24, p10 + 25, p10 + 26, p10 + 27, p10 + 28, p10 + 29, p10 + 30, p10 + 31, p10 + 32, p10 + 33, p10 + 34, p10 + 35, p10 + 36, p10 + 37, p10 + 38, p10 + 39, 8};
Line(11) = {4, 9};
Line(12) = {9, 7};
Line(13) = {5, 9};
p14 = newp;
Point(p14 + 1) = {38.77568621188845, 3.031500092194446, 0};
Point(p14 + 2) = {38.74673047647505, 3.15210941025466, 0};
Point(p14 + 3) = {38.69926378006427, 3.266704152490624, 0};
Point(p14 + 4) = {38.63445491025466, 3.372462616030342, 0};
Point(p14 + 5) = {38.55389967650925, 3.46678067650925, 0};
Point(p14 + 6) = {38.45958161603034, 3.54733591025466, 0};
Point(p14 + 7) = {38.35382315249063, 3.612144780064268, 0};
Point(p14 + 8) = {38.23922841025466, 3.659611476475053, 0};
Point(p14 + 9) = {38.11861909219444, 3.688567211888448, 0};
Point(p14 + 10) = {37.994965, 3.698299, 0};
Point(p14 + 11) = {37.87131090780556, 3.688567211888448, 0};
Point(p14 + 12) = {37.75070158974534, 3.659611476475053, 0};
Point(p14 + 13) = {37.63610684750937, 3.612144780064268, 0};
Point(p14 + 14) = {37.53034838396966, 3.54733591025466, 0};
Point(p14 + 15) = {37.43603032349075, 3.46678067650925, 0};
Point(p14 + 16) = {37.35547508974534, 3.372462616030342, 0};
Point(p14 + 17) = {37.29066621993573, 3.266704152490624, 0};
Point(p14 + 18) = {37.24319952352495, 3.152109410254661, 0};
Point(p14 + 19) = {37.21424378811155, 3.031500092194446, 0};
Point(p14 + 20) = {37.204512, 2.907846, 0};
Point(p14 + 21) = {37.21424378811155, 2.784191907805555, 0};
Point(p14 + 22) = {37.24319952352495, 2.66358258974534, 0};
Point(p14 + 23) = {37.29066621993573, 2.548987847509377, 0};
Point(p14 + 24) = {37.35547508974534, 2.443229383969658, 0};
Point(p14 + 25) = {37.43603032349075, 2.34891132349075, 0};
Point(p14 + 26) = {37.53034838396966, 2.26835608974534, 0};
Point(p14 + 27) = {37.63610684750937, 2.203547219935732, 0};
Point(p14 + 28) = {37.75070158974534, 2.156080523524947, 0};
Point(p14 + 29) = {37.87131090780556, 2.127124788111552, 0};
Point(p14 + 30) = {37.994965, 2.117393, 0};
Point(p14 + 31) = {38.11861909219444, 2.127124788111552, 0};
Point(p14 + 32) = {38.23922841025466, 2.156080523524947, 0};
Point(p14 + 33) = {38.35382315249063, 2.203547219935732, 0};
Point(p14 + 34) = {38.45958161603034, 2.26835608974534, 0};
Point(p14 + 35) = {38.55389967650925, 2.34891132349075, 0};
Point(p14 + 36) = {38.63445491025466, 2.443229383969657, 0};
Point(p14 + 37) = {38.69926378006427, 2.548987847509376, 0};
Point(p14 + 38) = {38.74673047647505, 2.66358258974534, 0};
Point(p14 + 39) = {38.77568621188845, 2.784191907805554, 0};
Spline(14) = {10, p14 + 1, p14 + 2, p14 + 3, p14 + 4, p14 + 5, p14 + 6, p14 + 7, p14 + 8, p14 + 9, p14 + 10, p14 + 11, p14 + 12, p14 + 13, p14 + 14, p14 + 15, p14 + 16, p14 + 17, p14 + 18, p14 + 19, p14 + 20, p14 + 21, p14 + 22, p14 + 23, p14 + 24, p14 + 25, p14 + 26, p14 + 27, p14 + 28, p14 + 29, p14 + 30, p14 + 31, p14 + 32, p14 + 33, p14 + 34, p14 + 35, p14 + 36, p14 + 37, p14 + 38, p14 + 39, 10};
Line(15) = {10, 8};
Curve Loop(1) = {-1, 4, 3, -2};
Plane Surface(1) = {1};
Curve Loop(2) = {-5, 1, 7, -6};
Plane Surface(2) = {2};
Curve Loop(3) = {-2, 7, 9, -8, -10};
Plane Surface(3) = {3};
Curve Loop(4) = {-11, 3, 8, -12};
Plane Surface(4) = {4};
Curve Loop(5) = {-4, 5, 13, -11, -14};
Plane Surface(5) = {5};
Curve Loop(6) = {-6, 13, 12, -9};
Plane Surface(6) = {6};
Curve Loop(7) = {-10, -15, 14, 15};
Surface(7) = {7};
Surface Loop(1) = {1, 2, 3, 4, 5, 6, 7};
Volume(1) = {1};
Physical Surface("INFLOW") = {1};
Physical Surface("OUTFLOW") = {6};
Physical Surface("OBSTACLE") = {7};
Physical Surface("WALL_Y") = {2, 4};
Physical Surface("WALL_Z") = {3, 5};
Physical Volume("FLUID") = {1};
