cl__1 = 1.010033;
cl__2 = 0.9451850000000001;
cl__3 = 3.54888;
cl__4 = 0.110963;
Point(1) = {0.790741, -4.087456, 1, cl__1};
Point(2) = {0.790741, -4.087456, 0, cl__1};
Point(3) = {0.790741, 4.53883, 1, cl__2};
Point(4) = {0.790741, 4.53883, 0, cl__2};
Point(5) = {35.22572599999999, -4.087456, 0, cl__3};
Point(6) = {35.22572599999999, -4.087456, 1, cl__3};
Point(7) = {35.22572599999999, 4.53883, 1, cl__3};
Point(8) = {11.866872, 1.044016, 1, cl__4};
Point(9) = {35.22572599999999, 4.53883, 0, cl__3};
Point(10) = {11.866872, 1.044016, 0, cl__4};
Line(1) = {2, 1};
Line(2) = {1, 3};
Line(3) = {4, 3};
Line(4) = {2, 4};
Line(5) = {2, 5};
Line(6) = {5, 6};
Line(7) = {1, 6};
Line(8) = {3, 7};
Line(9) = {6, 7};
p10 = newp;
Point(p10 + 1) = {11.85321060106292, 1.217600531877056, 1};
Point(p10 + 2) = {11.81256279323311, 1.386910836485267, 1};
Point(p10 + 3) = {11.74592946044166, 1.547777932216493, 1};
Point(p10 + 4) = {11.65495133648527, 1.696240737286549, 1};
Point(p10 + 5) = {11.54186860471481, 1.82864360471481, 1};
Point(p10 + 6) = {11.40946573728655, 1.941726336485267, 1};
Point(p10 + 7) = {11.26100293221649, 2.032704460441663, 1};
Point(p10 + 8) = {11.10013583648527, 2.099337793233108, 1};
Point(p10 + 9) = {10.93082553187706, 2.139985601062923, 1};
Point(p10 + 10) = {10.757241, 2.153647, 1};
Point(p10 + 11) = {10.58365646812294, 2.139985601062923, 1};
Point(p10 + 12) = {10.41434616351473, 2.099337793233108, 1};
Point(p10 + 13) = {10.25347906778351, 2.032704460441663, 1};
Point(p10 + 14) = {10.10501626271345, 1.941726336485267, 1};
Point(p10 + 15) = {9.97261339528519, 1.82864360471481, 1};
Point(p10 + 16) = {9.859530663514732, 1.69624073728655, 1};
Point(p10 + 17) = {9.768552539558337, 1.547777932216493, 1};
Point(p10 + 18) = {9.701919206766894, 1.386910836485267, 1};
Point(p10 + 19) = {9.661271398937078, 1.217600531877057, 1};
Point(p10 + 20) = {9.64761, 1.044016, 1};
Point(p10 + 21) = {9.661271398937076, 0.8704314681229438, 1};
Point(p10 + 22) = {9.701919206766894, 0.7011211635147324, 1};
Point(p10 + 23) = {9.768552539558337, 0.5402540677835076, 1};
Point(p10 + 24) = {9.859530663514732, 0.3917912627134509, 1};
Point(p10 + 25) = {9.97261339528519, 0.2593883952851902, 1};
Point(p10 + 26) = {10.10501626271345, 0.1463056635147328, 1};
Point(p10 + 27) = {10.25347906778351, 0.05532753955833725, 1};
Point(p10 + 28) = {10.41434616351473, -0.01130579323310754, 1};
Point(p10 + 29) = {10.58365646812294, -0.05195360106292313, 1};
Point(p10 + 30) = {10.757241, -0.06561499999999998, 1};
Point(p10 + 31) = {10.93082553187706, -0.05195360106292335, 1};
Point(p10 + 32) = {11.10013583648527, -0.01130579323310754, 1};
Point(p10 + 33) = {11.26100293221649, 0.05532753955833714, 1};
Point(p10 + 34) = {11.40946573728655, 0.1463056635147326, 1};
Point(p10 + 35) = {11.54186860471481, 0.25938839528519, 1};
Point(p10 + 36) = {11.65495133648527, 0.3917912627134505, 1};
Point(p10 + 37) = {11.74592946044166, 0.5402540677835068, 1};
Point(p10 + 38) = {11.81256279323311, 0.7011211635147325, 1};
Point(p10 + 39) = {11.85321060106292, 0.8704314681229434, 1};
Spline(10) = {8, p10 + 1, p10 + 2, p10 + 3, p10 + 4, p10 + 5, p10 + 6, p10 + 7, p10 + 8, p10 + 9, p10 + 10, p10 + 11, p10 + 12, p10 + 13, p10 + 14, p10 + 15, p10 + 16, p10 + 17, p10 + 18, p10 + 19, p10 + 20, p10 + 21, p10 + 22, p10 + 23, p10 + 24, p10 + 25, p10 + 26, p10 + 27, p10 + 28, p10 + 29, p10 + 30, p10 + 31, p10 + 32, p10 + 33, p10 + 34, p10 + 35, p10 + 36, p10 + 37, p10 + 38, p10 + 39, 8};
Line(11) = {4, 9};
Line(12) = {9, 7};
Line(13) = {5, 9};
p14 = newp;
Point(p14 + 1) = {11.85321060106292, 1.217600531877056, 0};
Point(p14 + 2) = {11.81256279323311, 1.386910836485267, 0};
Point(p14 + 3) = {11.74592946044166, 1.547777932216493, 0};
Point(p14 + 4) = {11.65495133648527, 1.696240737286549, 0};
Point(p14 + 5) = {11.54186860471481, 1.82864360471481, 0};
Point(p14 + 6) = {11.40946573728655, 1.941726336485267, 0};
Point(p14 + 7) = {11.26100293221649, 2.032704460441663, 0};
Point(p14 + 8) = {11.10013583648527, 2.099337793233108, 0};
Point(p14 + 9) = {10.93082553187706, 2.139985601062923, 0};
Point(p14 + 10) = {10.757241, 2.153647, 0};
Point(p14 + 11) = {10.58365646812294, 2.139985601062923, 0};
Point(p14 + 12) = {10.41434616351473, 2.099337793233108, 0};
Point(p14 + 13) = {10.25347906778351, 2.032704460441663, 0};
Point(p14 + 14) = {10.10501626271345, 1.941726336485267, 0};
Point(p14 + 15) = {9.97261339528519, 1.82864360471481, 0};
Point(p14 + 16) = {9.859530663514732, 1.69624073728655, 0};
Point(p14 + 17) = {9.768552539558337, 1.547777932216493, 0};
Point(p14 + 18) = {9.701919206766894, 1.386910836485267, 0};
Point(p14 + 19) = {9.661271398937078, 1.217600531877057, 0};
Point(p14 + 20) = {9.64761, 1.044016, 0};
Point(p14 + 21) = {9.661271398937076, 0.8704314681229438, 0};
Point(p14 + 22) = {9.701919206766894, 0.7011211635147324, 0};
Point(p14 + 23) = {9.768552539558337, 0.5402540677835076, 0};
Point(p14 + 24) = {9.859530663514732, 0.3917912627134509, 0};
Point(p14 + 25) = {9.97261339528519, 0.2593883952851902, 0};
Point(p14 + 26) = {10.10501626271345, 0.1463056635147328, 0};
Point(p14 + 27) = {10.25347906778351, 0.05532753955833725, 0};
Point(p14 + 28) = {10.41434616351473, -0.01130579323310754, 0};
Point(p14 + 29) = {10.58365646812294, -0.05195360106292313, 0};
Point(p14 + 30) = {10.757241, -0.06561499999999998, 0};
Point(p14 + 31) = {10.93082553187706, -0.05195360106292335, 0};
Point(p14 + 32) = {11.10013583648527, -0.01130579323310754, 0};
Point(p14 + 33) = {11.26100293221649, 0.05532753955833714, 0};
Point(p14 + 34) = {11.40946573728655, 0.1463056635147326, 0};
Point(p14 + 35) = {11.54186860471481, 0.25938839528519, 0};
Point(p14 + 36) = {11.65495133648527, 0.3917912627134505, 0};
Point(p14 + 37) = {11.74592946044166, 0.5402540677835068, 0};
Point(p14 + 38) = {11.81256279323311, 0.7011211635147325, 0};
Point(p14 + 39) = {11.85321060106292, 0.8704314681229434, 0};
Spline(14) = {10, p14 + 1, p14 + 2, p14 + 3, p14 + 4, p14 + 5, p14 + 6, p14 + 7, p14 + 8, p14 + 9, p14 + 10, p14 + 11, p14 + 12, p14 + 13, p14 + 14, p14 + 15, p14 + 16, p14 + 17, p14 + 18, p14 + 19, p14 + 20, p14 + 21, p14 + 22, p14 + 23, p14 + 24, p14 + 25, p14 + 26, p14 + 27, p14 + 28, p14 + 29, p14 + 30, p14 + 31, p14 + 32, p14 + 33, p14 + 34, p14 + 35, p14 + 36, p14 + 37, p14 + 38, p14 + 39, 10};
Line(15) = {10, 8};
Curve Loop(1) = {-1, 4, 3, -2};
Plane Surface(1) = {1};
Curve Loop(2) = {-5, 1, 7, -6};
Plane Surface(2) = {2};
Curve Loop(3) = {-2, 7, 9, -8, -10};
Plane Surface(3) = {3};
Curve Loop(4) = {-11, 3, 8, -12};
Plane Surface(4) = {4};
Curve Loop(5) = {-4, 5, 13, -11, -14};
Plane Surface(5) = {5};
Curve Loop(6) = {-6, 13, 12, -9};
Plane Surface(6) = {6};
Curve Loop(7) = {-10, -15, 14, 15};
Surface(7) = {7};
Surface Loop(1) = {1, 2, 3, 4, 5, 6, 7};
Volume(1) = {1};
Physical Surface("INFLOW") = {1};
Physical Surface("OUTFLOW") = {6};
Physical Surface("OBSTACLE") = {7};
Physical Surface("WALL_Y") = {2, 4};
Physical Surface("WALL_Z") = {3, 5};
Physical Volume("FLUID") = {1};
