cl__1 = 0.933635;
cl__2 = 1.014439;
cl__3 = 3.22899;
cl__4 = 0.09569900000000001;
Point(1) = {0.938949, -3.631438, 1, cl__1};
Point(2) = {0.938949, -3.631438, 0, cl__1};
Point(3) = {0.938949, 5.141367999999999, 1, cl__2};
Point(4) = {0.938949, 5.141367999999999, 0, cl__2};
Point(5) = {31.990579, -3.631438, 0, cl__3};
Point(6) = {31.990579, -3.631438, 1, cl__3};
Point(7) = {31.990579, 5.141367999999999, 1, cl__3};
Point(8) = {11.611154, -0.2303370000000002, 1, cl__4};
Point(9) = {31.990579, 5.141367999999999, 0, cl__3};
Point(10) = {11.611154, -0.2303370000000002, 0, cl__4};
Line(1) = {2, 1};
Line(2) = {1, 3};
Line(3) = {4, 3};
Line(4) = {2, 4};
Line(5) = {2, 5};
Line(6) = {5, 6};
Line(7) = {1, 6};
Line(8) = {3, 7};
Line(9) = {6, 7};
p10 = newp;
Point(p10 + 1) = {11.5993718773778, -0.0806309377356145, 1};
Point(p10 + 2) = {11.56431562447278, 0.06538886442988653, 1};
Point(p10 + 3) = {11.5068484425765, 0.2041269143552491, 1};
Point(p10 + 4) = {11.42838536442989, 0.3321670208061216, 1};
Point(p10 + 5) = {11.33085841142093, 0.4463564114209329, 1};
Point(p10 + 6) = {11.21666902080612, 0.5438833644298866, 1};
Point(p10 + 7) = {11.08862891435525, 0.6223464425765018, 1};
Point(p10 + 8) = {10.94989086442989, 0.6798136244727826, 1};
Point(p10 + 9) = {10.80387106226439, 0.7148698773778003, 1};
Point(p10 + 10) = {10.654165, 0.726652, 1};
Point(p10 + 11) = {10.50445893773562, 0.7148698773778002, 1};
Point(p10 + 12) = {10.35843913557011, 0.6798136244727827, 1};
Point(p10 + 13) = {10.21970108564475, 0.622346442576502, 1};
Point(p10 + 14) = {10.09166097919388, 0.5438833644298866, 1};
Point(p10 + 15) = {9.977471588579068, 0.446356411420933, 1};
Point(p10 + 16) = {9.879944635570114, 0.3321670208061217, 1};
Point(p10 + 17) = {9.801481557423498, 0.2041269143552492, 1};
Point(p10 + 18) = {9.744014375527218, 0.06538886442988665, 1};
Point(p10 + 19) = {9.708958122622201, -0.08063093773561439, 1};
Point(p10 + 20) = {9.697176000000001, -0.2303369999999999, 1};
Point(p10 + 21) = {9.708958122622201, -0.3800430622643853, 1};
Point(p10 + 22) = {9.744014375527218, -0.5260628644298868, 1};
Point(p10 + 23) = {9.801481557423498, -0.6648009143552486, 1};
Point(p10 + 24) = {9.879944635570114, -0.7928410208061215, 1};
Point(p10 + 25) = {9.977471588579068, -0.9070304114209329, 1};
Point(p10 + 26) = {10.09166097919388, -1.004557364429886, 1};
Point(p10 + 27) = {10.21970108564475, -1.083020442576502, 1};
Point(p10 + 28) = {10.35843913557011, -1.140487624472783, 1};
Point(p10 + 29) = {10.50445893773562, -1.1755438773778, 1};
Point(p10 + 30) = {10.654165, -1.187326, 1};
Point(p10 + 31) = {10.80387106226439, -1.1755438773778, 1};
Point(p10 + 32) = {10.94989086442989, -1.140487624472783, 1};
Point(p10 + 33) = {11.08862891435525, -1.083020442576502, 1};
Point(p10 + 34) = {11.21666902080612, -1.004557364429887, 1};
Point(p10 + 35) = {11.33085841142093, -0.9070304114209331, 1};
Point(p10 + 36) = {11.42838536442989, -0.7928410208061218, 1};
Point(p10 + 37) = {11.5068484425765, -0.6648009143552492, 1};
Point(p10 + 38) = {11.56431562447278, -0.5260628644298867, 1};
Point(p10 + 39) = {11.5993718773778, -0.3800430622643857, 1};
Spline(10) = {8, p10 + 1, p10 + 2, p10 + 3, p10 + 4, p10 + 5, p10 + 6, p10 + 7, p10 + 8, p10 + 9, p10 + 10, p10 + 11, p10 + 12, p10 + 13, p10 + 14, p10 + 15, p10 + 16, p10 + 17, p10 + 18, p10 + 19, p10 + 20, p10 + 21, p10 + 22, p10 + 23, p10 + 24, p10 + 25, p10 + 26, p10 + 27, p10 + 28, p10 + 29, p10 + 30, p10 + 31, p10 + 32, p10 + 33, p10 + 34, p10 + 35, p10 + 36, p10 + 37, p10 + 38, p10 + 39, 8};
Line(11) = {4, 9};
Line(12) = {9, 7};
Line(13) = {5, 9};
p14 = newp;
Point(p14 + 1) = {11.5993718773778, -0.0806309377356145, 0};
Point(p14 + 2) = {11.56431562447278, 0.06538886442988653, 0};
Point(p14 + 3) = {11.5068484425765, 0.2041269143552491, 0};
Point(p14 + 4) = {11.42838536442989, 0.3321670208061216, 0};
Point(p14 + 5) = {11.33085841142093, 0.4463564114209329, 0};
Point(p14 + 6) = {11.21666902080612, 0.5438833644298866, 0};
Point(p14 + 7) = {11.08862891435525, 0.6223464425765018, 0};
Point(p14 + 8) = {10.94989086442989, 0.6798136244727826, 0};
Point(p14 + 9) = {10.80387106226439, 0.7148698773778003, 0};
Point(p14 + 10) = {10.654165, 0.726652, 0};
Point(p14 + 11) = {10.50445893773562, 0.7148698773778002, 0};
Point(p14 + 12) = {10.35843913557011, 0.6798136244727827, 0};
Point(p14 + 13) = {10.21970108564475, 0.622346442576502, 0};
Point(p14 + 14) = {10.09166097919388, 0.5438833644298866, 0};
Point(p14 + 15) = {9.977471588579068, 0.446356411420933, 0};
Point(p14 + 16) = {9.879944635570114, 0.3321670208061217, 0};
Point(p14 + 17) = {9.801481557423498, 0.2041269143552492, 0};
Point(p14 + 18) = {9.744014375527218, 0.06538886442988665, 0};
Point(p14 + 19) = {9.708958122622201, -0.08063093773561439, 0};
Point(p14 + 20) = {9.697176000000001, -0.2303369999999999, 0};
Point(p14 + 21) = {9.708958122622201, -0.3800430622643853, 0};
Point(p14 + 22) = {9.744014375527218, -0.5260628644298868, 0};
Point(p14 + 23) = {9.801481557423498, -0.6648009143552486, 0};
Point(p14 + 24) = {9.879944635570114, -0.7928410208061215, 0};
Point(p14 + 25) = {9.977471588579068, -0.9070304114209329, 0};
Point(p14 + 26) = {10.09166097919388, -1.004557364429886, 0};
Point(p14 + 27) = {10.21970108564475, -1.083020442576502, 0};
Point(p14 + 28) = {10.35843913557011, -1.140487624472783, 0};
Point(p14 + 29) = {10.50445893773562, -1.1755438773778, 0};
Point(p14 + 30) = {10.654165, -1.187326, 0};
Point(p14 + 31) = {10.80387106226439, -1.1755438773778, 0};
Point(p14 + 32) = {10.94989086442989, -1.140487624472783, 0};
Point(p14 + 33) = {11.08862891435525, -1.083020442576502, 0};
Point(p14 + 34) = {11.21666902080612, -1.004557364429887, 0};
Point(p14 + 35) = {11.33085841142093, -0.9070304114209331, 0};
Point(p14 + 36) = {11.42838536442989, -0.7928410208061218, 0};
Point(p14 + 37) = {11.5068484425765, -0.6648009143552492, 0};
Point(p14 + 38) = {11.56431562447278, -0.5260628644298867, 0};
Point(p14 + 39) = {11.5993718773778, -0.3800430622643857, 0};
Spline(14) = {10, p14 + 1, p14 + 2, p14 + 3, p14 + 4, p14 + 5, p14 + 6, p14 + 7, p14 + 8, p14 + 9, p14 + 10, p14 + 11, p14 + 12, p14 + 13, p14 + 14, p14 + 15, p14 + 16, p14 + 17, p14 + 18, p14 + 19, p14 + 20, p14 + 21, p14 + 22, p14 + 23, p14 + 24, p14 + 25, p14 + 26, p14 + 27, p14 + 28, p14 + 29, p14 + 30, p14 + 31, p14 + 32, p14 + 33, p14 + 34, p14 + 35, p14 + 36, p14 + 37, p14 + 38, p14 + 39, 10};
Line(15) = {10, 8};
Curve Loop(1) = {-1, 4, 3, -2};
Plane Surface(1) = {1};
Curve Loop(2) = {-5, 1, 7, -6};
Plane Surface(2) = {2};
Curve Loop(3) = {-2, 7, 9, -8, -10};
Plane Surface(3) = {3};
Curve Loop(4) = {-11, 3, 8, -12};
Plane Surface(4) = {4};
Curve Loop(5) = {-4, 5, 13, -11, -14};
Plane Surface(5) = {5};
Curve Loop(6) = {-6, 13, 12, -9};
Plane Surface(6) = {6};
Curve Loop(7) = {-10, -15, 14, 15};
Surface(7) = {7};
Surface Loop(1) = {1, 2, 3, 4, 5, 6, 7};
Volume(1) = {1};
Physical Surface("INFLOW") = {1};
Physical Surface("OUTFLOW") = {6};
Physical Surface("OBSTACLE") = {7};
Physical Surface("WALL_Y") = {2, 4};
Physical Surface("WALL_Z") = {3, 5};
Physical Volume("FLUID") = {1};
