cl__1 = 3.303829;
cl__2 = 0.807976;
cl__3 = 1.220085;
cl__4 = 0.087946;
cl__5 = 0.06711399999999999;
Point(1) = {0.370181, -4.711311, 1, cl__1};
Point(2) = {0.370181, -4.711311, 0, cl__1};
Point(3) = {0.370181, 5.130324999999999, 1, cl__2};
Point(4) = {0.370181, 5.130324999999999, 0, cl__2};
Point(5) = {32.669778, -4.711311, 0, cl__1};
Point(6) = {32.669778, -4.711311, 1, cl__1};
Point(7) = {32.669778, 5.130324999999999, 1, cl__3};
Point(8) = {24.699866, -3.31267, 1, cl__4};
Point(9) = {21.842311, 1.074028, 1, cl__5};
Point(10) = {32.669778, 5.130324999999999, 0, cl__3};
Point(11) = {24.699866, -3.31267, 0, cl__4};
Point(12) = {21.842311, 1.074028, 0, cl__5};
Line(1) = {2, 1};
Line(2) = {1, 3};
Line(3) = {4, 3};
Line(4) = {2, 4};
Line(5) = {2, 5};
Line(6) = {5, 6};
Line(7) = {1, 6};
Line(8) = {3, 7};
Line(9) = {6, 7};
p10 = newp;
Point(p10 + 1) = {24.6890384495781, -3.175092927548044, 1};
Point(p10 + 2) = {24.65682240853835, -3.040903459211981, 1};
Point(p10 + 3) = {24.60401114273008, -2.913405785051557, 1};
Point(p10 + 4) = {24.53190504078802, -2.795739320945123, 1};
Point(p10 + 5) = {24.44227959424842, -2.690801405751585, 1};
Point(p10 + 6) = {24.33734167905488, -2.601175959211981, 1};
Point(p10 + 7) = {24.21967521494844, -2.529069857269919, 1};
Point(p10 + 8) = {24.09217754078802, -2.476258591461646, 1};
Point(p10 + 9) = {23.95798807245196, -2.444042550421903, 1};
Point(p10 + 10) = {23.820411, -2.433215, 1};
Point(p10 + 11) = {23.68283392754804, -2.444042550421903, 1};
Point(p10 + 12) = {23.54864445921198, -2.476258591461646, 1};
Point(p10 + 13) = {23.42114678505156, -2.529069857269919, 1};
Point(p10 + 14) = {23.30348032094512, -2.601175959211981, 1};
Point(p10 + 15) = {23.19854240575158, -2.690801405751585, 1};
Point(p10 + 16) = {23.10891695921198, -2.795739320945123, 1};
Point(p10 + 17) = {23.03681085726992, -2.913405785051557, 1};
Point(p10 + 18) = {22.98399959146165, -3.040903459211981, 1};
Point(p10 + 19) = {22.9517835504219, -3.175092927548044, 1};
Point(p10 + 20) = {22.940956, -3.31267, 1};
Point(p10 + 21) = {22.9517835504219, -3.450247072451956, 1};
Point(p10 + 22) = {22.98399959146165, -3.584436540788019, 1};
Point(p10 + 23) = {23.03681085726992, -3.711934214948442, 1};
Point(p10 + 24) = {23.10891695921198, -3.829600679054876, 1};
Point(p10 + 25) = {23.19854240575158, -3.934538594248415, 1};
Point(p10 + 26) = {23.30348032094512, -4.024164040788019, 1};
Point(p10 + 27) = {23.42114678505156, -4.096270142730081, 1};
Point(p10 + 28) = {23.54864445921198, -4.149081408538354, 1};
Point(p10 + 29) = {23.68283392754804, -4.181297449578096, 1};
Point(p10 + 30) = {23.820411, -4.192125, 1};
Point(p10 + 31) = {23.95798807245196, -4.181297449578096, 1};
Point(p10 + 32) = {24.09217754078802, -4.149081408538354, 1};
Point(p10 + 33) = {24.21967521494844, -4.096270142730081, 1};
Point(p10 + 34) = {24.33734167905488, -4.024164040788019, 1};
Point(p10 + 35) = {24.44227959424842, -3.934538594248415, 1};
Point(p10 + 36) = {24.53190504078802, -3.829600679054877, 1};
Point(p10 + 37) = {24.60401114273008, -3.711934214948443, 1};
Point(p10 + 38) = {24.65682240853835, -3.584436540788019, 1};
Point(p10 + 39) = {24.6890384495781, -3.450247072451956, 1};
Spline(10) = {8, p10 + 1, p10 + 2, p10 + 3, p10 + 4, p10 + 5, p10 + 6, p10 + 7, p10 + 8, p10 + 9, p10 + 10, p10 + 11, p10 + 12, p10 + 13, p10 + 14, p10 + 15, p10 + 16, p10 + 17, p10 + 18, p10 + 19, p10 + 20, p10 + 21, p10 + 22, p10 + 23, p10 + 24, p10 + 25, p10 + 26, p10 + 27, p10 + 28, p10 + 29, p10 + 30, p10 + 31, p10 + 32, p10 + 33, p10 + 34, p10 + 35, p10 + 36, p10 + 37, p10 + 38, p10 + 39, 8};
p11 = newp;
Point(p11 + 1) = {21.83404816521868, 1.179017270432635, 1};
Point(p11 + 2) = {21.80946311928981, 1.281421356587808, 1};
Point(p11 + 3) = {21.76916122763726, 1.3787187300047, 1};
Point(p11 + 4) = {21.7141348565878, 1.468513606438318, 1};
Point(p11 + 5) = {21.64573893801876, 1.548594938018758, 1};
Point(p11 + 6) = {21.56565760643832, 1.616990856587808, 1};
Point(p11 + 7) = {21.4758627300047, 1.672017227637257, 1};
Point(p11 + 8) = {21.37856535658781, 1.712319119289813, 1};
Point(p11 + 9) = {21.27616127043263, 1.73690416521868, 1};
Point(p11 + 10) = {21.171172, 1.745167, 1};
Point(p11 + 11) = {21.06618272956736, 1.73690416521868, 1};
Point(p11 + 12) = {20.96377864341219, 1.712319119289813, 1};
Point(p11 + 13) = {20.8664812699953, 1.672017227637257, 1};
Point(p11 + 14) = {20.77668639356168, 1.616990856587808, 1};
Point(p11 + 15) = {20.69660506198124, 1.548594938018758, 1};
Point(p11 + 16) = {20.62820914341219, 1.468513606438318, 1};
Point(p11 + 17) = {20.57318277236274, 1.3787187300047, 1};
Point(p11 + 18) = {20.53288088071018, 1.281421356587808, 1};
Point(p11 + 19) = {20.50829583478132, 1.179017270432636, 1};
Point(p11 + 20) = {20.500033, 1.074028, 1};
Point(p11 + 21) = {20.50829583478132, 0.9690387295673646, 1};
Point(p11 + 22) = {20.53288088071018, 0.8666346434121919, 1};
Point(p11 + 23) = {20.57318277236274, 0.7693372699953006, 1};
Point(p11 + 24) = {20.62820914341219, 0.6795423935616819, 1};
Point(p11 + 25) = {20.69660506198124, 0.5994610619812417, 1};
Point(p11 + 26) = {20.77668639356168, 0.5310651434121921, 1};
Point(p11 + 27) = {20.8664812699953, 0.4760387723627429, 1};
Point(p11 + 28) = {20.96377864341219, 0.4357368807101869, 1};
Point(p11 + 29) = {21.06618272956736, 0.4111518347813199, 1};
Point(p11 + 30) = {21.171172, 0.4028889999999999, 1};
Point(p11 + 31) = {21.27616127043263, 0.4111518347813198, 1};
Point(p11 + 32) = {21.37856535658781, 0.4357368807101868, 1};
Point(p11 + 33) = {21.4758627300047, 0.4760387723627429, 1};
Point(p11 + 34) = {21.56565760643832, 0.531065143412192, 1};
Point(p11 + 35) = {21.64573893801876, 0.5994610619812415, 1};
Point(p11 + 36) = {21.7141348565878, 0.6795423935616817, 1};
Point(p11 + 37) = {21.76916122763726, 0.7693372699953002, 1};
Point(p11 + 38) = {21.80946311928981, 0.866634643412192, 1};
Point(p11 + 39) = {21.83404816521868, 0.9690387295673644, 1};
Spline(11) = {9, p11 + 1, p11 + 2, p11 + 3, p11 + 4, p11 + 5, p11 + 6, p11 + 7, p11 + 8, p11 + 9, p11 + 10, p11 + 11, p11 + 12, p11 + 13, p11 + 14, p11 + 15, p11 + 16, p11 + 17, p11 + 18, p11 + 19, p11 + 20, p11 + 21, p11 + 22, p11 + 23, p11 + 24, p11 + 25, p11 + 26, p11 + 27, p11 + 28, p11 + 29, p11 + 30, p11 + 31, p11 + 32, p11 + 33, p11 + 34, p11 + 35, p11 + 36, p11 + 37, p11 + 38, p11 + 39, 9};
Line(12) = {4, 10};
Line(13) = {10, 7};
Line(14) = {5, 10};
p15 = newp;
Point(p15 + 1) = {24.6890384495781, -3.175092927548044, 0};
Point(p15 + 2) = {24.65682240853835, -3.040903459211981, 0};
Point(p15 + 3) = {24.60401114273008, -2.913405785051557, 0};
Point(p15 + 4) = {24.53190504078802, -2.795739320945123, 0};
Point(p15 + 5) = {24.44227959424842, -2.690801405751585, 0};
Point(p15 + 6) = {24.33734167905488, -2.601175959211981, 0};
Point(p15 + 7) = {24.21967521494844, -2.529069857269919, 0};
Point(p15 + 8) = {24.09217754078802, -2.476258591461646, 0};
Point(p15 + 9) = {23.95798807245196, -2.444042550421903, 0};
Point(p15 + 10) = {23.820411, -2.433215, 0};
Point(p15 + 11) = {23.68283392754804, -2.444042550421903, 0};
Point(p15 + 12) = {23.54864445921198, -2.476258591461646, 0};
Point(p15 + 13) = {23.42114678505156, -2.529069857269919, 0};
Point(p15 + 14) = {23.30348032094512, -2.601175959211981, 0};
Point(p15 + 15) = {23.19854240575158, -2.690801405751585, 0};
Point(p15 + 16) = {23.10891695921198, -2.795739320945123, 0};
Point(p15 + 17) = {23.03681085726992, -2.913405785051557, 0};
Point(p15 + 18) = {22.98399959146165, -3.040903459211981, 0};
Point(p15 + 19) = {22.9517835504219, -3.175092927548044, 0};
Point(p15 + 20) = {22.940956, -3.31267, 0};
Point(p15 + 21) = {22.9517835504219, -3.450247072451956, 0};
Point(p15 + 22) = {22.98399959146165, -3.584436540788019, 0};
Point(p15 + 23) = {23.03681085726992, -3.711934214948442, 0};
Point(p15 + 24) = {23.10891695921198, -3.829600679054876, 0};
Point(p15 + 25) = {23.19854240575158, -3.934538594248415, 0};
Point(p15 + 26) = {23.30348032094512, -4.024164040788019, 0};
Point(p15 + 27) = {23.42114678505156, -4.096270142730081, 0};
Point(p15 + 28) = {23.54864445921198, -4.149081408538354, 0};
Point(p15 + 29) = {23.68283392754804, -4.181297449578096, 0};
Point(p15 + 30) = {23.820411, -4.192125, 0};
Point(p15 + 31) = {23.95798807245196, -4.181297449578096, 0};
Point(p15 + 32) = {24.09217754078802, -4.149081408538354, 0};
Point(p15 + 33) = {24.21967521494844, -4.096270142730081, 0};
Point(p15 + 34) = {24.33734167905488, -4.024164040788019, 0};
Point(p15 + 35) = {24.44227959424842, -3.934538594248415, 0};
Point(p15 + 36) = {24.53190504078802, -3.829600679054877, 0};
Point(p15 + 37) = {24.60401114273008, -3.711934214948443, 0};
Point(p15 + 38) = {24.65682240853835, -3.584436540788019, 0};
Point(p15 + 39) = {24.6890384495781, -3.450247072451956, 0};
Spline(15) = {11, p15 + 1, p15 + 2, p15 + 3, p15 + 4, p15 + 5, p15 + 6, p15 + 7, p15 + 8, p15 + 9, p15 + 10, p15 + 11, p15 + 12, p15 + 13, p15 + 14, p15 + 15, p15 + 16, p15 + 17, p15 + 18, p15 + 19, p15 + 20, p15 + 21, p15 + 22, p15 + 23, p15 + 24, p15 + 25, p15 + 26, p15 + 27, p15 + 28, p15 + 29, p15 + 30, p15 + 31, p15 + 32, p15 + 33, p15 + 34, p15 + 35, p15 + 36, p15 + 37, p15 + 38, p15 + 39, 11};
p16 = newp;
Point(p16 + 1) = {21.83404816521868, 1.179017270432635, 0};
Point(p16 + 2) = {21.80946311928981, 1.281421356587808, 0};
Point(p16 + 3) = {21.76916122763726, 1.3787187300047, 0};
Point(p16 + 4) = {21.7141348565878, 1.468513606438318, 0};
Point(p16 + 5) = {21.64573893801876, 1.548594938018758, 0};
Point(p16 + 6) = {21.56565760643832, 1.616990856587808, 0};
Point(p16 + 7) = {21.4758627300047, 1.672017227637257, 0};
Point(p16 + 8) = {21.37856535658781, 1.712319119289813, 0};
Point(p16 + 9) = {21.27616127043263, 1.73690416521868, 0};
Point(p16 + 10) = {21.171172, 1.745167, 0};
Point(p16 + 11) = {21.06618272956736, 1.73690416521868, 0};
Point(p16 + 12) = {20.96377864341219, 1.712319119289813, 0};
Point(p16 + 13) = {20.8664812699953, 1.672017227637257, 0};
Point(p16 + 14) = {20.77668639356168, 1.616990856587808, 0};
Point(p16 + 15) = {20.69660506198124, 1.548594938018758, 0};
Point(p16 + 16) = {20.62820914341219, 1.468513606438318, 0};
Point(p16 + 17) = {20.57318277236274, 1.3787187300047, 0};
Point(p16 + 18) = {20.53288088071018, 1.281421356587808, 0};
Point(p16 + 19) = {20.50829583478132, 1.179017270432636, 0};
Point(p16 + 20) = {20.500033, 1.074028, 0};
Point(p16 + 21) = {20.50829583478132, 0.9690387295673646, 0};
Point(p16 + 22) = {20.53288088071018, 0.8666346434121919, 0};
Point(p16 + 23) = {20.57318277236274, 0.7693372699953006, 0};
Point(p16 + 24) = {20.62820914341219, 0.6795423935616819, 0};
Point(p16 + 25) = {20.69660506198124, 0.5994610619812417, 0};
Point(p16 + 26) = {20.77668639356168, 0.5310651434121921, 0};
Point(p16 + 27) = {20.8664812699953, 0.4760387723627429, 0};
Point(p16 + 28) = {20.96377864341219, 0.4357368807101869, 0};
Point(p16 + 29) = {21.06618272956736, 0.4111518347813199, 0};
Point(p16 + 30) = {21.171172, 0.4028889999999999, 0};
Point(p16 + 31) = {21.27616127043263, 0.4111518347813198, 0};
Point(p16 + 32) = {21.37856535658781, 0.4357368807101868, 0};
Point(p16 + 33) = {21.4758627300047, 0.4760387723627429, 0};
Point(p16 + 34) = {21.56565760643832, 0.531065143412192, 0};
Point(p16 + 35) = {21.64573893801876, 0.5994610619812415, 0};
Point(p16 + 36) = {21.7141348565878, 0.6795423935616817, 0};
Point(p16 + 37) = {21.76916122763726, 0.7693372699953002, 0};
Point(p16 + 38) = {21.80946311928981, 0.866634643412192, 0};
Point(p16 + 39) = {21.83404816521868, 0.9690387295673644, 0};
Spline(16) = {12, p16 + 1, p16 + 2, p16 + 3, p16 + 4, p16 + 5, p16 + 6, p16 + 7, p16 + 8, p16 + 9, p16 + 10, p16 + 11, p16 + 12, p16 + 13, p16 + 14, p16 + 15, p16 + 16, p16 + 17, p16 + 18, p16 + 19, p16 + 20, p16 + 21, p16 + 22, p16 + 23, p16 + 24, p16 + 25, p16 + 26, p16 + 27, p16 + 28, p16 + 29, p16 + 30, p16 + 31, p16 + 32, p16 + 33, p16 + 34, p16 + 35, p16 + 36, p16 + 37, p16 + 38, p16 + 39, 12};
Line(17) = {11, 8};
Line(18) = {12, 9};
Curve Loop(1) = {-1, 4, 3, -2};
Plane Surface(1) = {1};
Curve Loop(2) = {-5, 1, 7, -6};
Plane Surface(2) = {2};
Curve Loop(3) = {-2, 7, 9, -8, -10, -11};
Plane Surface(3) = {3};
Curve Loop(4) = {-12, 3, 8, -13};
Plane Surface(4) = {4};
Curve Loop(5) = {-4, 5, 14, -12, -15, -16};
Plane Surface(5) = {5};
Curve Loop(6) = {-6, 14, 13, -9};
Plane Surface(6) = {6};
Curve Loop(7) = {-10, -17, 15, 17};
Surface(7) = {7};
Curve Loop(8) = {-11, -18, 16, 18};
Surface(8) = {8};
Surface Loop(1) = {1, 2, 3, 4, 5, 6, 7, 8};
Volume(1) = {1};
Physical Surface("INFLOW") = {1};
Physical Surface("OUTFLOW") = {6};
Physical Surface("OBSTACLE") = {7, 8};
Physical Surface("WALL_Y") = {2, 4};
Physical Surface("WALL_Z") = {3, 5};
Physical Volume("FLUID") = {1};
