cl__1 = 1;
cl__2 = 0.113895;
cl__3 = 0.103035;
Point(1) = {0.640962, -4.205602, 1, cl__1};
Point(2) = {0.640962, -4.205602, 0, cl__1};
Point(3) = {0.640962, 4.428707, 1, cl__1};
Point(4) = {0.640962, 4.428707, 0, cl__1};
Point(5) = {34.347653, -4.205602, 0, cl__1};
Point(6) = {34.347653, -4.205602, 1, cl__1};
Point(7) = {34.347653, 4.428707, 1, cl__1};
Point(8) = {31.039218, -1.74029, 1, cl__2};
Point(9) = {19.556757, 2.405746999999999, 1, cl__3};
Point(10) = {34.347653, 4.428707, 0, cl__1};
Point(11) = {31.039218, -1.74029, 0, cl__2};
Point(12) = {19.556757, 2.405746999999999, 0, cl__3};
Line(1) = {2, 1};
Line(2) = {1, 3};
Line(3) = {4, 3};
Line(4) = {2, 4};
Line(5) = {2, 5};
Line(6) = {5, 6};
Line(7) = {1, 6};
Line(8) = {3, 7};
Line(9) = {6, 7};
p10 = newp;
Point(p10 + 1) = {31.02519564783249, -1.562119122476894, 1};
Point(p10 + 2) = {30.98347386817785, -1.388335403273648, 1};
Point(p10 + 3) = {30.91507998971782, -1.223217974312143, 1};
Point(p10 + 4) = {30.82169809672635, -1.07083257468674, 1};
Point(p10 + 5) = {30.70562756132564, -0.9349314386743629, 1};
Point(p10 + 6) = {30.56972642531326, -0.8188609032736479, 1};
Point(p10 + 7) = {30.41734102568786, -0.7254790102821826, 1};
Point(p10 + 8) = {30.25222359672635, -0.6570851318221511, 1};
Point(p10 + 9) = {30.07843987752311, -0.6153633521675084, 1};
Point(p10 + 10) = {29.900269, -0.6013409999999999, 1};
Point(p10 + 11) = {29.7220981224769, -0.6153633521675084, 1};
Point(p10 + 12) = {29.54831440327365, -0.6570851318221509, 1};
Point(p10 + 13) = {29.38319697431215, -0.7254790102821824, 1};
Point(p10 + 14) = {29.23081157468674, -0.8188609032736479, 1};
Point(p10 + 15) = {29.09491043867436, -0.9349314386743627, 1};
Point(p10 + 16) = {28.97883990327365, -1.07083257468674, 1};
Point(p10 + 17) = {28.88545801028219, -1.223217974312143, 1};
Point(p10 + 18) = {28.81706413182215, -1.388335403273648, 1};
Point(p10 + 19) = {28.77534235216751, -1.562119122476894, 1};
Point(p10 + 20) = {28.76132, -1.74029, 1};
Point(p10 + 21) = {28.77534235216751, -1.918460877523106, 1};
Point(p10 + 22) = {28.81706413182215, -2.092244596726352, 1};
Point(p10 + 23) = {28.88545801028219, -2.257362025687856, 1};
Point(p10 + 24) = {28.97883990327365, -2.40974742531326, 1};
Point(p10 + 25) = {29.09491043867436, -2.545648561325637, 1};
Point(p10 + 26) = {29.23081157468674, -2.661719096726352, 1};
Point(p10 + 27) = {29.38319697431215, -2.755100989717817, 1};
Point(p10 + 28) = {29.54831440327365, -2.823494868177849, 1};
Point(p10 + 29) = {29.7220981224769, -2.865216647832491, 1};
Point(p10 + 30) = {29.900269, -2.879239, 1};
Point(p10 + 31) = {30.07843987752311, -2.865216647832491, 1};
Point(p10 + 32) = {30.25222359672635, -2.823494868177849, 1};
Point(p10 + 33) = {30.41734102568786, -2.755100989717818, 1};
Point(p10 + 34) = {30.56972642531326, -2.661719096726352, 1};
Point(p10 + 35) = {30.70562756132564, -2.545648561325637, 1};
Point(p10 + 36) = {30.82169809672635, -2.40974742531326, 1};
Point(p10 + 37) = {30.91507998971782, -2.257362025687857, 1};
Point(p10 + 38) = {30.98347386817785, -2.092244596726352, 1};
Point(p10 + 39) = {31.02519564783249, -1.918460877523106, 1};
Spline(10) = {8, p10 + 1, p10 + 2, p10 + 3, p10 + 4, p10 + 5, p10 + 6, p10 + 7, p10 + 8, p10 + 9, p10 + 10, p10 + 11, p10 + 12, p10 + 13, p10 + 14, p10 + 15, p10 + 16, p10 + 17, p10 + 18, p10 + 19, p10 + 20, p10 + 21, p10 + 22, p10 + 23, p10 + 24, p10 + 25, p10 + 26, p10 + 27, p10 + 28, p10 + 29, p10 + 30, p10 + 31, p10 + 32, p10 + 33, p10 + 34, p10 + 35, p10 + 36, p10 + 37, p10 + 38, p10 + 39, 8};
p11 = newp;
Point(p11 + 1) = {19.54407163248556, 2.566929876792062, 1};
Point(p11 + 2) = {19.50632788579077, 2.724143896222205, 1};
Point(p11 + 3) = {19.44445513622358, 2.873517927368641, 1};
Point(p11 + 4) = {19.3599768962222, 3.011373885840559, 1};
Point(p11 + 5) = {19.25497330042268, 3.134317300422684, 1};
Point(p11 + 6) = {19.13202988584056, 3.239320896222204, 1};
Point(p11 + 7) = {18.99417392736864, 3.323799136223581, 1};
Point(p11 + 8) = {18.8447998962222, 3.385671885790777, 1};
Point(p11 + 9) = {18.68758587679206, 3.423415632485562, 1};
Point(p11 + 10) = {18.526403, 3.436101, 1};
Point(p11 + 11) = {18.36522012320794, 3.423415632485562, 1};
Point(p11 + 12) = {18.20800610377779, 3.385671885790777, 1};
Point(p11 + 13) = {18.05863207263136, 3.323799136223581, 1};
Point(p11 + 14) = {17.92077611415944, 3.239320896222204, 1};
Point(p11 + 15) = {17.79783269957731, 3.134317300422684, 1};
Point(p11 + 16) = {17.69282910377779, 3.011373885840559, 1};
Point(p11 + 17) = {17.60835086377642, 2.873517927368641, 1};
Point(p11 + 18) = {17.54647811420922, 2.724143896222205, 1};
Point(p11 + 19) = {17.50873436751444, 2.566929876792062, 1};
Point(p11 + 20) = {17.496049, 2.405747, 1};
Point(p11 + 21) = {17.50873436751444, 2.244564123207938, 1};
Point(p11 + 22) = {17.54647811420922, 2.087350103777795, 1};
Point(p11 + 23) = {17.60835086377642, 1.93797607263136, 1};
Point(p11 + 24) = {17.69282910377779, 1.800120114159441, 1};
Point(p11 + 25) = {17.79783269957731, 1.677176699577316, 1};
Point(p11 + 26) = {17.92077611415944, 1.572173103777796, 1};
Point(p11 + 27) = {18.05863207263136, 1.487694863776418, 1};
Point(p11 + 28) = {18.20800610377779, 1.425822114209223, 1};
Point(p11 + 29) = {18.36522012320794, 1.388078367514437, 1};
Point(p11 + 30) = {18.526403, 1.375393, 1};
Point(p11 + 31) = {18.68758587679206, 1.388078367514437, 1};
Point(p11 + 32) = {18.8447998962222, 1.425822114209223, 1};
Point(p11 + 33) = {18.99417392736864, 1.487694863776418, 1};
Point(p11 + 34) = {19.13202988584056, 1.572173103777795, 1};
Point(p11 + 35) = {19.25497330042268, 1.677176699577316, 1};
Point(p11 + 36) = {19.3599768962222, 1.800120114159441, 1};
Point(p11 + 37) = {19.44445513622358, 1.937976072631359, 1};
Point(p11 + 38) = {19.50632788579077, 2.087350103777795, 1};
Point(p11 + 39) = {19.54407163248556, 2.244564123207938, 1};
Spline(11) = {9, p11 + 1, p11 + 2, p11 + 3, p11 + 4, p11 + 5, p11 + 6, p11 + 7, p11 + 8, p11 + 9, p11 + 10, p11 + 11, p11 + 12, p11 + 13, p11 + 14, p11 + 15, p11 + 16, p11 + 17, p11 + 18, p11 + 19, p11 + 20, p11 + 21, p11 + 22, p11 + 23, p11 + 24, p11 + 25, p11 + 26, p11 + 27, p11 + 28, p11 + 29, p11 + 30, p11 + 31, p11 + 32, p11 + 33, p11 + 34, p11 + 35, p11 + 36, p11 + 37, p11 + 38, p11 + 39, 9};
Line(12) = {4, 10};
Line(13) = {10, 7};
Line(14) = {5, 10};
p15 = newp;
Point(p15 + 1) = {31.02519564783249, -1.562119122476894, 0};
Point(p15 + 2) = {30.98347386817785, -1.388335403273648, 0};
Point(p15 + 3) = {30.91507998971782, -1.223217974312143, 0};
Point(p15 + 4) = {30.82169809672635, -1.07083257468674, 0};
Point(p15 + 5) = {30.70562756132564, -0.9349314386743629, 0};
Point(p15 + 6) = {30.56972642531326, -0.8188609032736479, 0};
Point(p15 + 7) = {30.41734102568786, -0.7254790102821826, 0};
Point(p15 + 8) = {30.25222359672635, -0.6570851318221511, 0};
Point(p15 + 9) = {30.07843987752311, -0.6153633521675084, 0};
Point(p15 + 10) = {29.900269, -0.6013409999999999, 0};
Point(p15 + 11) = {29.7220981224769, -0.6153633521675084, 0};
Point(p15 + 12) = {29.54831440327365, -0.6570851318221509, 0};
Point(p15 + 13) = {29.38319697431215, -0.7254790102821824, 0};
Point(p15 + 14) = {29.23081157468674, -0.8188609032736479, 0};
Point(p15 + 15) = {29.09491043867436, -0.9349314386743627, 0};
Point(p15 + 16) = {28.97883990327365, -1.07083257468674, 0};
Point(p15 + 17) = {28.88545801028219, -1.223217974312143, 0};
Point(p15 + 18) = {28.81706413182215, -1.388335403273648, 0};
Point(p15 + 19) = {28.77534235216751, -1.562119122476894, 0};
Point(p15 + 20) = {28.76132, -1.74029, 0};
Point(p15 + 21) = {28.77534235216751, -1.918460877523106, 0};
Point(p15 + 22) = {28.81706413182215, -2.092244596726352, 0};
Point(p15 + 23) = {28.88545801028219, -2.257362025687856, 0};
Point(p15 + 24) = {28.97883990327365, -2.40974742531326, 0};
Point(p15 + 25) = {29.09491043867436, -2.545648561325637, 0};
Point(p15 + 26) = {29.23081157468674, -2.661719096726352, 0};
Point(p15 + 27) = {29.38319697431215, -2.755100989717817, 0};
Point(p15 + 28) = {29.54831440327365, -2.823494868177849, 0};
Point(p15 + 29) = {29.7220981224769, -2.865216647832491, 0};
Point(p15 + 30) = {29.900269, -2.879239, 0};
Point(p15 + 31) = {30.07843987752311, -2.865216647832491, 0};
Point(p15 + 32) = {30.25222359672635, -2.823494868177849, 0};
Point(p15 + 33) = {30.41734102568786, -2.755100989717818, 0};
Point(p15 + 34) = {30.56972642531326, -2.661719096726352, 0};
Point(p15 + 35) = {30.70562756132564, -2.545648561325637, 0};
Point(p15 + 36) = {30.82169809672635, -2.40974742531326, 0};
Point(p15 + 37) = {30.91507998971782, -2.257362025687857, 0};
Point(p15 + 38) = {30.98347386817785, -2.092244596726352, 0};
Point(p15 + 39) = {31.02519564783249, -1.918460877523106, 0};
Spline(15) = {11, p15 + 1, p15 + 2, p15 + 3, p15 + 4, p15 + 5, p15 + 6, p15 + 7, p15 + 8, p15 + 9, p15 + 10, p15 + 11, p15 + 12, p15 + 13, p15 + 14, p15 + 15, p15 + 16, p15 + 17, p15 + 18, p15 + 19, p15 + 20, p15 + 21, p15 + 22, p15 + 23, p15 + 24, p15 + 25, p15 + 26, p15 + 27, p15 + 28, p15 + 29, p15 + 30, p15 + 31, p15 + 32, p15 + 33, p15 + 34, p15 + 35, p15 + 36, p15 + 37, p15 + 38, p15 + 39, 11};
p16 = newp;
Point(p16 + 1) = {19.54407163248556, 2.566929876792062, 0};
Point(p16 + 2) = {19.50632788579077, 2.724143896222205, 0};
Point(p16 + 3) = {19.44445513622358, 2.873517927368641, 0};
Point(p16 + 4) = {19.3599768962222, 3.011373885840559, 0};
Point(p16 + 5) = {19.25497330042268, 3.134317300422684, 0};
Point(p16 + 6) = {19.13202988584056, 3.239320896222204, 0};
Point(p16 + 7) = {18.99417392736864, 3.323799136223581, 0};
Point(p16 + 8) = {18.8447998962222, 3.385671885790777, 0};
Point(p16 + 9) = {18.68758587679206, 3.423415632485562, 0};
Point(p16 + 10) = {18.526403, 3.436101, 0};
Point(p16 + 11) = {18.36522012320794, 3.423415632485562, 0};
Point(p16 + 12) = {18.20800610377779, 3.385671885790777, 0};
Point(p16 + 13) = {18.05863207263136, 3.323799136223581, 0};
Point(p16 + 14) = {17.92077611415944, 3.239320896222204, 0};
Point(p16 + 15) = {17.79783269957731, 3.134317300422684, 0};
Point(p16 + 16) = {17.69282910377779, 3.011373885840559, 0};
Point(p16 + 17) = {17.60835086377642, 2.873517927368641, 0};
Point(p16 + 18) = {17.54647811420922, 2.724143896222205, 0};
Point(p16 + 19) = {17.50873436751444, 2.566929876792062, 0};
Point(p16 + 20) = {17.496049, 2.405747, 0};
Point(p16 + 21) = {17.50873436751444, 2.244564123207938, 0};
Point(p16 + 22) = {17.54647811420922, 2.087350103777795, 0};
Point(p16 + 23) = {17.60835086377642, 1.93797607263136, 0};
Point(p16 + 24) = {17.69282910377779, 1.800120114159441, 0};
Point(p16 + 25) = {17.79783269957731, 1.677176699577316, 0};
Point(p16 + 26) = {17.92077611415944, 1.572173103777796, 0};
Point(p16 + 27) = {18.05863207263136, 1.487694863776418, 0};
Point(p16 + 28) = {18.20800610377779, 1.425822114209223, 0};
Point(p16 + 29) = {18.36522012320794, 1.388078367514437, 0};
Point(p16 + 30) = {18.526403, 1.375393, 0};
Point(p16 + 31) = {18.68758587679206, 1.388078367514437, 0};
Point(p16 + 32) = {18.8447998962222, 1.425822114209223, 0};
Point(p16 + 33) = {18.99417392736864, 1.487694863776418, 0};
Point(p16 + 34) = {19.13202988584056, 1.572173103777795, 0};
Point(p16 + 35) = {19.25497330042268, 1.677176699577316, 0};
Point(p16 + 36) = {19.3599768962222, 1.800120114159441, 0};
Point(p16 + 37) = {19.44445513622358, 1.937976072631359, 0};
Point(p16 + 38) = {19.50632788579077, 2.087350103777795, 0};
Point(p16 + 39) = {19.54407163248556, 2.244564123207938, 0};
Spline(16) = {12, p16 + 1, p16 + 2, p16 + 3, p16 + 4, p16 + 5, p16 + 6, p16 + 7, p16 + 8, p16 + 9, p16 + 10, p16 + 11, p16 + 12, p16 + 13, p16 + 14, p16 + 15, p16 + 16, p16 + 17, p16 + 18, p16 + 19, p16 + 20, p16 + 21, p16 + 22, p16 + 23, p16 + 24, p16 + 25, p16 + 26, p16 + 27, p16 + 28, p16 + 29, p16 + 30, p16 + 31, p16 + 32, p16 + 33, p16 + 34, p16 + 35, p16 + 36, p16 + 37, p16 + 38, p16 + 39, 12};
Line(17) = {11, 8};
Line(18) = {12, 9};
Curve Loop(1) = {-1, 4, 3, -2};
Plane Surface(1) = {1};
Curve Loop(2) = {-5, 1, 7, -6};
Plane Surface(2) = {2};
Curve Loop(3) = {-2, 7, 9, -8, -10, -11};
Plane Surface(3) = {3};
Curve Loop(4) = {-12, 3, 8, -13};
Plane Surface(4) = {4};
Curve Loop(5) = {-4, 5, 14, -12, -15, -16};
Plane Surface(5) = {5};
Curve Loop(6) = {-6, 14, 13, -9};
Plane Surface(6) = {6};
Curve Loop(7) = {-10, -17, 15, 17};
Surface(7) = {7};
Curve Loop(8) = {-11, -18, 16, 18};
Surface(8) = {8};
Surface Loop(1) = {1, 2, 3, 4, 5, 6, 7, 8};
Volume(1) = {1};
Physical Surface("INFLOW") = {1};
Physical Surface("OUTFLOW") = {6};
Physical Surface("OBSTACLE") = {7, 8};
Physical Surface("WALL_Y") = {2, 4};
Physical Surface("WALL_Z") = {3, 5};
Physical Volume("FLUID") = {1};
