cl__1 = 1;
cl__2 = 0.111205;
cl__3 = 0.112898;
Point(1) = {0.134546, -3.714196, 1, cl__1};
Point(2) = {0.134546, -3.714196, 0, cl__1};
Point(3) = {0.134546, 5.103436, 1, cl__1};
Point(4) = {0.134546, 5.103436, 0, cl__1};
Point(5) = {32.744186, -3.714196, 0, cl__1};
Point(6) = {32.744186, -3.714196, 1, cl__1};
Point(7) = {32.744186, 5.103436, 1, cl__1};
Point(8) = {18.291167, 1.726752, 1, cl__2};
Point(9) = {4.707992000000001, 2.025662, 1, cl__3};
Point(10) = {32.744186, 5.103436, 0, cl__1};
Point(11) = {18.291167, 1.726752, 0, cl__2};
Point(12) = {4.707992000000001, 2.025662, 0, cl__3};
Line(1) = {2, 1};
Line(2) = {1, 3};
Line(3) = {4, 3};
Line(4) = {2, 4};
Line(5) = {2, 5};
Line(6) = {5, 6};
Line(7) = {1, 6};
Line(8) = {3, 7};
Line(9) = {6, 7};
p10 = newp;
Point(p10 + 1) = {18.27747576991219, 1.900715572585849, 1};
Point(p10 + 2) = {18.23673920317209, 2.070395584662638, 1};
Point(p10 + 3) = {18.16996036924977, 2.231613951197362, 1};
Point(p10 + 4) = {18.07878358466264, 2.380400940952854, 1};
Point(p10 + 5) = {17.96545392444563, 2.513092924445625, 1};
Point(p10 + 6) = {17.83276194095286, 2.626422584662638, 1};
Point(p10 + 7) = {17.68397495119736, 2.717599369249771, 1};
Point(p10 + 8) = {17.52275658466264, 2.784378203172091, 1};
Point(p10 + 9) = {17.35307657258585, 2.825114769912186, 1};
Point(p10 + 10) = {17.179113, 2.838806, 1};
Point(p10 + 11) = {17.00514942741415, 2.825114769912186, 1};
Point(p10 + 12) = {16.83546941533736, 2.784378203172091, 1};
Point(p10 + 13) = {16.67425104880264, 2.717599369249772, 1};
Point(p10 + 14) = {16.52546405904715, 2.626422584662638, 1};
Point(p10 + 15) = {16.39277207555438, 2.513092924445625, 1};
Point(p10 + 16) = {16.27944241533736, 2.380400940952854, 1};
Point(p10 + 17) = {16.18826563075023, 2.231613951197362, 1};
Point(p10 + 18) = {16.12148679682791, 2.070395584662638, 1};
Point(p10 + 19) = {16.08075023008782, 1.900715572585849, 1};
Point(p10 + 20) = {16.067059, 1.726752, 1};
Point(p10 + 21) = {16.08075023008782, 1.552788427414151, 1};
Point(p10 + 22) = {16.12148679682791, 1.383108415337362, 1};
Point(p10 + 23) = {16.18826563075023, 1.221890048802639, 1};
Point(p10 + 24) = {16.27944241533736, 1.073103059047146, 1};
Point(p10 + 25) = {16.39277207555438, 0.9404110755543752, 1};
Point(p10 + 26) = {16.52546405904715, 0.8270814153373623, 1};
Point(p10 + 27) = {16.67425104880264, 0.7359046307502288, 1};
Point(p10 + 28) = {16.83546941533736, 0.6691257968279094, 1};
Point(p10 + 29) = {17.00514942741415, 0.6283892300878147, 1};
Point(p10 + 30) = {17.179113, 0.614698, 1};
Point(p10 + 31) = {17.35307657258585, 0.6283892300878147, 1};
Point(p10 + 32) = {17.52275658466264, 0.6691257968279092, 1};
Point(p10 + 33) = {17.68397495119736, 0.7359046307502287, 1};
Point(p10 + 34) = {17.83276194095285, 0.827081415337362, 1};
Point(p10 + 35) = {17.96545392444563, 0.9404110755543749, 1};
Point(p10 + 36) = {18.07878358466264, 1.073103059047146, 1};
Point(p10 + 37) = {18.16996036924977, 1.221890048802638, 1};
Point(p10 + 38) = {18.23673920317209, 1.383108415337362, 1};
Point(p10 + 39) = {18.27747576991219, 1.552788427414151, 1};
Spline(10) = {8, p10 + 1, p10 + 2, p10 + 3, p10 + 4, p10 + 5, p10 + 6, p10 + 7, p10 + 8, p10 + 9, p10 + 10, p10 + 11, p10 + 12, p10 + 13, p10 + 14, p10 + 15, p10 + 16, p10 + 17, p10 + 18, p10 + 19, p10 + 20, p10 + 21, p10 + 22, p10 + 23, p10 + 24, p10 + 25, p10 + 26, p10 + 27, p10 + 28, p10 + 29, p10 + 30, p10 + 31, p10 + 32, p10 + 33, p10 + 34, p10 + 35, p10 + 36, p10 + 37, p10 + 38, p10 + 39, 8};
p11 = newp;
Point(p11 + 1) = {4.694092395076758, 2.202273225906655, 1};
Point(p11 + 2) = {4.652735834710386, 2.374535697292434, 1};
Point(p11 + 3) = {4.58494065467166, 2.538207740405454, 1};
Point(p11 + 4) = {4.492376197292434, 2.689259206347904, 1};
Point(p11 + 5) = {4.377321706717208, 2.823970706717207, 1};
Point(p11 + 6) = {4.242610206347904, 2.939025197292434, 1};
Point(p11 + 7) = {4.091558740405454, 3.031589654671659, 1};
Point(p11 + 8) = {3.927886697292434, 3.099384834710386, 1};
Point(p11 + 9) = {3.755624225906655, 3.140741395076758, 1};
Point(p11 + 10) = {3.579013, 3.154641, 1};
Point(p11 + 11) = {3.402401774093345, 3.140741395076758, 1};
Point(p11 + 12) = {3.230139302707566, 3.099384834710386, 1};
Point(p11 + 13) = {3.066467259594547, 3.031589654671659, 1};
Point(p11 + 14) = {2.915415793652096, 2.939025197292434, 1};
Point(p11 + 15) = {2.780704293282793, 2.823970706717208, 1};
Point(p11 + 16) = {2.665649802707566, 2.689259206347904, 1};
Point(p11 + 17) = {2.573085345328341, 2.538207740405454, 1};
Point(p11 + 18) = {2.505290165289614, 2.374535697292434, 1};
Point(p11 + 19) = {2.463933604923242, 2.202273225906655, 1};
Point(p11 + 20) = {2.450034, 2.025662, 1};
Point(p11 + 21) = {2.463933604923242, 1.849050774093346, 1};
Point(p11 + 22) = {2.505290165289614, 1.676788302707566, 1};
Point(p11 + 23) = {2.573085345328341, 1.513116259594547, 1};
Point(p11 + 24) = {2.665649802707566, 1.362064793652096, 1};
Point(p11 + 25) = {2.780704293282793, 1.227353293282793, 1};
Point(p11 + 26) = {2.915415793652096, 1.112298802707566, 1};
Point(p11 + 27) = {3.066467259594546, 1.019734345328341, 1};
Point(p11 + 28) = {3.230139302707566, 0.9519391652896141, 1};
Point(p11 + 29) = {3.402401774093345, 0.9105826049232422, 1};
Point(p11 + 30) = {3.579013, 0.8966830000000001, 1};
Point(p11 + 31) = {3.755624225906655, 0.9105826049232422, 1};
Point(p11 + 32) = {3.927886697292434, 0.9519391652896139, 1};
Point(p11 + 33) = {4.091558740405453, 1.019734345328341, 1};
Point(p11 + 34) = {4.242610206347904, 1.112298802707566, 1};
Point(p11 + 35) = {4.377321706717208, 1.227353293282793, 1};
Point(p11 + 36) = {4.492376197292434, 1.362064793652096, 1};
Point(p11 + 37) = {4.58494065467166, 1.513116259594546, 1};
Point(p11 + 38) = {4.652735834710386, 1.676788302707566, 1};
Point(p11 + 39) = {4.694092395076758, 1.849050774093345, 1};
Spline(11) = {9, p11 + 1, p11 + 2, p11 + 3, p11 + 4, p11 + 5, p11 + 6, p11 + 7, p11 + 8, p11 + 9, p11 + 10, p11 + 11, p11 + 12, p11 + 13, p11 + 14, p11 + 15, p11 + 16, p11 + 17, p11 + 18, p11 + 19, p11 + 20, p11 + 21, p11 + 22, p11 + 23, p11 + 24, p11 + 25, p11 + 26, p11 + 27, p11 + 28, p11 + 29, p11 + 30, p11 + 31, p11 + 32, p11 + 33, p11 + 34, p11 + 35, p11 + 36, p11 + 37, p11 + 38, p11 + 39, 9};
Line(12) = {4, 10};
Line(13) = {10, 7};
Line(14) = {5, 10};
p15 = newp;
Point(p15 + 1) = {18.27747576991219, 1.900715572585849, 0};
Point(p15 + 2) = {18.23673920317209, 2.070395584662638, 0};
Point(p15 + 3) = {18.16996036924977, 2.231613951197362, 0};
Point(p15 + 4) = {18.07878358466264, 2.380400940952854, 0};
Point(p15 + 5) = {17.96545392444563, 2.513092924445625, 0};
Point(p15 + 6) = {17.83276194095286, 2.626422584662638, 0};
Point(p15 + 7) = {17.68397495119736, 2.717599369249771, 0};
Point(p15 + 8) = {17.52275658466264, 2.784378203172091, 0};
Point(p15 + 9) = {17.35307657258585, 2.825114769912186, 0};
Point(p15 + 10) = {17.179113, 2.838806, 0};
Point(p15 + 11) = {17.00514942741415, 2.825114769912186, 0};
Point(p15 + 12) = {16.83546941533736, 2.784378203172091, 0};
Point(p15 + 13) = {16.67425104880264, 2.717599369249772, 0};
Point(p15 + 14) = {16.52546405904715, 2.626422584662638, 0};
Point(p15 + 15) = {16.39277207555438, 2.513092924445625, 0};
Point(p15 + 16) = {16.27944241533736, 2.380400940952854, 0};
Point(p15 + 17) = {16.18826563075023, 2.231613951197362, 0};
Point(p15 + 18) = {16.12148679682791, 2.070395584662638, 0};
Point(p15 + 19) = {16.08075023008782, 1.900715572585849, 0};
Point(p15 + 20) = {16.067059, 1.726752, 0};
Point(p15 + 21) = {16.08075023008782, 1.552788427414151, 0};
Point(p15 + 22) = {16.12148679682791, 1.383108415337362, 0};
Point(p15 + 23) = {16.18826563075023, 1.221890048802639, 0};
Point(p15 + 24) = {16.27944241533736, 1.073103059047146, 0};
Point(p15 + 25) = {16.39277207555438, 0.9404110755543752, 0};
Point(p15 + 26) = {16.52546405904715, 0.8270814153373623, 0};
Point(p15 + 27) = {16.67425104880264, 0.7359046307502288, 0};
Point(p15 + 28) = {16.83546941533736, 0.6691257968279094, 0};
Point(p15 + 29) = {17.00514942741415, 0.6283892300878147, 0};
Point(p15 + 30) = {17.179113, 0.614698, 0};
Point(p15 + 31) = {17.35307657258585, 0.6283892300878147, 0};
Point(p15 + 32) = {17.52275658466264, 0.6691257968279092, 0};
Point(p15 + 33) = {17.68397495119736, 0.7359046307502287, 0};
Point(p15 + 34) = {17.83276194095285, 0.827081415337362, 0};
Point(p15 + 35) = {17.96545392444563, 0.9404110755543749, 0};
Point(p15 + 36) = {18.07878358466264, 1.073103059047146, 0};
Point(p15 + 37) = {18.16996036924977, 1.221890048802638, 0};
Point(p15 + 38) = {18.23673920317209, 1.383108415337362, 0};
Point(p15 + 39) = {18.27747576991219, 1.552788427414151, 0};
Spline(15) = {11, p15 + 1, p15 + 2, p15 + 3, p15 + 4, p15 + 5, p15 + 6, p15 + 7, p15 + 8, p15 + 9, p15 + 10, p15 + 11, p15 + 12, p15 + 13, p15 + 14, p15 + 15, p15 + 16, p15 + 17, p15 + 18, p15 + 19, p15 + 20, p15 + 21, p15 + 22, p15 + 23, p15 + 24, p15 + 25, p15 + 26, p15 + 27, p15 + 28, p15 + 29, p15 + 30, p15 + 31, p15 + 32, p15 + 33, p15 + 34, p15 + 35, p15 + 36, p15 + 37, p15 + 38, p15 + 39, 11};
p16 = newp;
Point(p16 + 1) = {4.694092395076758, 2.202273225906655, 0};
Point(p16 + 2) = {4.652735834710386, 2.374535697292434, 0};
Point(p16 + 3) = {4.58494065467166, 2.538207740405454, 0};
Point(p16 + 4) = {4.492376197292434, 2.689259206347904, 0};
Point(p16 + 5) = {4.377321706717208, 2.823970706717207, 0};
Point(p16 + 6) = {4.242610206347904, 2.939025197292434, 0};
Point(p16 + 7) = {4.091558740405454, 3.031589654671659, 0};
Point(p16 + 8) = {3.927886697292434, 3.099384834710386, 0};
Point(p16 + 9) = {3.755624225906655, 3.140741395076758, 0};
Point(p16 + 10) = {3.579013, 3.154641, 0};
Point(p16 + 11) = {3.402401774093345, 3.140741395076758, 0};
Point(p16 + 12) = {3.230139302707566, 3.099384834710386, 0};
Point(p16 + 13) = {3.066467259594547, 3.031589654671659, 0};
Point(p16 + 14) = {2.915415793652096, 2.939025197292434, 0};
Point(p16 + 15) = {2.780704293282793, 2.823970706717208, 0};
Point(p16 + 16) = {2.665649802707566, 2.689259206347904, 0};
Point(p16 + 17) = {2.573085345328341, 2.538207740405454, 0};
Point(p16 + 18) = {2.505290165289614, 2.374535697292434, 0};
Point(p16 + 19) = {2.463933604923242, 2.202273225906655, 0};
Point(p16 + 20) = {2.450034, 2.025662, 0};
Point(p16 + 21) = {2.463933604923242, 1.849050774093346, 0};
Point(p16 + 22) = {2.505290165289614, 1.676788302707566, 0};
Point(p16 + 23) = {2.573085345328341, 1.513116259594547, 0};
Point(p16 + 24) = {2.665649802707566, 1.362064793652096, 0};
Point(p16 + 25) = {2.780704293282793, 1.227353293282793, 0};
Point(p16 + 26) = {2.915415793652096, 1.112298802707566, 0};
Point(p16 + 27) = {3.066467259594546, 1.019734345328341, 0};
Point(p16 + 28) = {3.230139302707566, 0.9519391652896141, 0};
Point(p16 + 29) = {3.402401774093345, 0.9105826049232422, 0};
Point(p16 + 30) = {3.579013, 0.8966830000000001, 0};
Point(p16 + 31) = {3.755624225906655, 0.9105826049232422, 0};
Point(p16 + 32) = {3.927886697292434, 0.9519391652896139, 0};
Point(p16 + 33) = {4.091558740405453, 1.019734345328341, 0};
Point(p16 + 34) = {4.242610206347904, 1.112298802707566, 0};
Point(p16 + 35) = {4.377321706717208, 1.227353293282793, 0};
Point(p16 + 36) = {4.492376197292434, 1.362064793652096, 0};
Point(p16 + 37) = {4.58494065467166, 1.513116259594546, 0};
Point(p16 + 38) = {4.652735834710386, 1.676788302707566, 0};
Point(p16 + 39) = {4.694092395076758, 1.849050774093345, 0};
Spline(16) = {12, p16 + 1, p16 + 2, p16 + 3, p16 + 4, p16 + 5, p16 + 6, p16 + 7, p16 + 8, p16 + 9, p16 + 10, p16 + 11, p16 + 12, p16 + 13, p16 + 14, p16 + 15, p16 + 16, p16 + 17, p16 + 18, p16 + 19, p16 + 20, p16 + 21, p16 + 22, p16 + 23, p16 + 24, p16 + 25, p16 + 26, p16 + 27, p16 + 28, p16 + 29, p16 + 30, p16 + 31, p16 + 32, p16 + 33, p16 + 34, p16 + 35, p16 + 36, p16 + 37, p16 + 38, p16 + 39, 12};
Line(17) = {11, 8};
Line(18) = {12, 9};
Curve Loop(1) = {-1, 4, 3, -2};
Plane Surface(1) = {1};
Curve Loop(2) = {-5, 1, 7, -6};
Plane Surface(2) = {2};
Curve Loop(3) = {-2, 7, 9, -8, -10, -11};
Plane Surface(3) = {3};
Curve Loop(4) = {-12, 3, 8, -13};
Plane Surface(4) = {4};
Curve Loop(5) = {-4, 5, 14, -12, -15, -16};
Plane Surface(5) = {5};
Curve Loop(6) = {-6, 14, 13, -9};
Plane Surface(6) = {6};
Curve Loop(7) = {-10, -17, 15, 17};
Surface(7) = {7};
Curve Loop(8) = {-11, -18, 16, 18};
Surface(8) = {8};
Surface Loop(1) = {1, 2, 3, 4, 5, 6, 7, 8};
Volume(1) = {1};
Physical Surface("INFLOW") = {1};
Physical Surface("OUTFLOW") = {6};
Physical Surface("OBSTACLE") = {7, 8};
Physical Surface("WALL_Y") = {2, 4};
Physical Surface("WALL_Z") = {3, 5};
Physical Volume("FLUID") = {1};
