cl__1 = 1.111891;
cl__2 = 1.163214;
cl__3 = 3.374526;
cl__4 = 0.084123;
Point(1) = {0.9838440000000001, -3.502837, 1, cl__1};
Point(2) = {0.9838440000000001, -3.502837, 0, cl__1};
Point(3) = {0.9838440000000001, 5.068108000000001, 1, cl__2};
Point(4) = {0.9838440000000001, 5.068108000000001, 0, cl__2};
Point(5) = {33.472037, -3.502837, 0, cl__3};
Point(6) = {33.472037, -3.502837, 1, cl__3};
Point(7) = {33.472037, 5.068108000000001, 1, cl__3};
Point(8) = {13.244993, 0.0510899999999998, 1, cl__4};
Point(9) = {33.472037, 5.068108000000001, 0, cl__3};
Point(10) = {13.244993, 0.0510899999999998, 0, cl__4};
Line(1) = {2, 1};
Line(2) = {1, 3};
Line(3) = {4, 3};
Line(4) = {2, 4};
Line(5) = {2, 5};
Line(6) = {5, 6};
Line(7) = {1, 6};
Line(8) = {3, 7};
Line(9) = {6, 7};
p10 = newp;
Point(p10 + 1) = {13.23463605044719, 0.1826875214602584, 1};
Point(p10 + 2) = {13.20382022425949, 0.3110446751950314, 1};
Point(p10 + 3) = {13.1533043093495, 0.4330008820863986, 1};
Point(p10 + 4) = {13.08433217519503, 0.5455531755712494, 1};
Point(p10 + 5) = {12.99860214464434, 0.6459301446443404, 1};
Point(p10 + 6) = {12.89822517557125, 0.7316601751950313, 1};
Point(p10 + 7) = {12.7856728820864, 0.8006323093495048, 1};
Point(p10 + 8) = {12.66371667519503, 0.8511482242594882, 1};
Point(p10 + 9) = {12.53535952146026, 0.8819640504471883, 1};
Point(p10 + 10) = {12.403762, 0.8923209999999999, 1};
Point(p10 + 11) = {12.27216447853974, 0.8819640504471882, 1};
Point(p10 + 12) = {12.14380732480497, 0.8511482242594883, 1};
Point(p10 + 13) = {12.0218511179136, 0.8006323093495048, 1};
Point(p10 + 14) = {11.90929882442875, 0.7316601751950313, 1};
Point(p10 + 15) = {11.80892185535566, 0.6459301446443405, 1};
Point(p10 + 16) = {11.72319182480497, 0.5455531755712495, 1};
Point(p10 + 17) = {11.6542196906505, 0.4330008820863988, 1};
Point(p10 + 18) = {11.60370377574051, 0.3110446751950315, 1};
Point(p10 + 19) = {11.57288794955281, 0.1826875214602585, 1};
Point(p10 + 20) = {11.562531, 0.05109000000000011, 1};
Point(p10 + 21) = {11.57288794955281, -0.08050752146025833, 1};
Point(p10 + 22) = {11.60370377574051, -0.2088646751950316, 1};
Point(p10 + 23) = {11.6542196906505, -0.3308208820863982, 1};
Point(p10 + 24) = {11.72319182480497, -0.4433731755712493, 1};
Point(p10 + 25) = {11.80892185535566, -0.5437501446443405, 1};
Point(p10 + 26) = {11.90929882442875, -0.6294801751950313, 1};
Point(p10 + 27) = {12.0218511179136, -0.6984523093495049, 1};
Point(p10 + 28) = {12.14380732480497, -0.7489682242594883, 1};
Point(p10 + 29) = {12.27216447853974, -0.7797840504471882, 1};
Point(p10 + 30) = {12.403762, -0.790141, 1};
Point(p10 + 31) = {12.53535952146026, -0.7797840504471883, 1};
Point(p10 + 32) = {12.66371667519503, -0.7489682242594884, 1};
Point(p10 + 33) = {12.7856728820864, -0.6984523093495049, 1};
Point(p10 + 34) = {12.89822517557125, -0.6294801751950315, 1};
Point(p10 + 35) = {12.99860214464434, -0.5437501446443407, 1};
Point(p10 + 36) = {13.08433217519503, -0.4433731755712496, 1};
Point(p10 + 37) = {13.1533043093495, -0.3308208820863988, 1};
Point(p10 + 38) = {13.20382022425949, -0.2088646751950316, 1};
Point(p10 + 39) = {13.23463605044719, -0.08050752146025864, 1};
Spline(10) = {8, p10 + 1, p10 + 2, p10 + 3, p10 + 4, p10 + 5, p10 + 6, p10 + 7, p10 + 8, p10 + 9, p10 + 10, p10 + 11, p10 + 12, p10 + 13, p10 + 14, p10 + 15, p10 + 16, p10 + 17, p10 + 18, p10 + 19, p10 + 20, p10 + 21, p10 + 22, p10 + 23, p10 + 24, p10 + 25, p10 + 26, p10 + 27, p10 + 28, p10 + 29, p10 + 30, p10 + 31, p10 + 32, p10 + 33, p10 + 34, p10 + 35, p10 + 36, p10 + 37, p10 + 38, p10 + 39, 8};
Line(11) = {4, 9};
Line(12) = {9, 7};
Line(13) = {5, 9};
p14 = newp;
Point(p14 + 1) = {13.23463605044719, 0.1826875214602584, 0};
Point(p14 + 2) = {13.20382022425949, 0.3110446751950314, 0};
Point(p14 + 3) = {13.1533043093495, 0.4330008820863986, 0};
Point(p14 + 4) = {13.08433217519503, 0.5455531755712494, 0};
Point(p14 + 5) = {12.99860214464434, 0.6459301446443404, 0};
Point(p14 + 6) = {12.89822517557125, 0.7316601751950313, 0};
Point(p14 + 7) = {12.7856728820864, 0.8006323093495048, 0};
Point(p14 + 8) = {12.66371667519503, 0.8511482242594882, 0};
Point(p14 + 9) = {12.53535952146026, 0.8819640504471883, 0};
Point(p14 + 10) = {12.403762, 0.8923209999999999, 0};
Point(p14 + 11) = {12.27216447853974, 0.8819640504471882, 0};
Point(p14 + 12) = {12.14380732480497, 0.8511482242594883, 0};
Point(p14 + 13) = {12.0218511179136, 0.8006323093495048, 0};
Point(p14 + 14) = {11.90929882442875, 0.7316601751950313, 0};
Point(p14 + 15) = {11.80892185535566, 0.6459301446443405, 0};
Point(p14 + 16) = {11.72319182480497, 0.5455531755712495, 0};
Point(p14 + 17) = {11.6542196906505, 0.4330008820863988, 0};
Point(p14 + 18) = {11.60370377574051, 0.3110446751950315, 0};
Point(p14 + 19) = {11.57288794955281, 0.1826875214602585, 0};
Point(p14 + 20) = {11.562531, 0.05109000000000011, 0};
Point(p14 + 21) = {11.57288794955281, -0.08050752146025833, 0};
Point(p14 + 22) = {11.60370377574051, -0.2088646751950316, 0};
Point(p14 + 23) = {11.6542196906505, -0.3308208820863982, 0};
Point(p14 + 24) = {11.72319182480497, -0.4433731755712493, 0};
Point(p14 + 25) = {11.80892185535566, -0.5437501446443405, 0};
Point(p14 + 26) = {11.90929882442875, -0.6294801751950313, 0};
Point(p14 + 27) = {12.0218511179136, -0.6984523093495049, 0};
Point(p14 + 28) = {12.14380732480497, -0.7489682242594883, 0};
Point(p14 + 29) = {12.27216447853974, -0.7797840504471882, 0};
Point(p14 + 30) = {12.403762, -0.790141, 0};
Point(p14 + 31) = {12.53535952146026, -0.7797840504471883, 0};
Point(p14 + 32) = {12.66371667519503, -0.7489682242594884, 0};
Point(p14 + 33) = {12.7856728820864, -0.6984523093495049, 0};
Point(p14 + 34) = {12.89822517557125, -0.6294801751950315, 0};
Point(p14 + 35) = {12.99860214464434, -0.5437501446443407, 0};
Point(p14 + 36) = {13.08433217519503, -0.4433731755712496, 0};
Point(p14 + 37) = {13.1533043093495, -0.3308208820863988, 0};
Point(p14 + 38) = {13.20382022425949, -0.2088646751950316, 0};
Point(p14 + 39) = {13.23463605044719, -0.08050752146025864, 0};
Spline(14) = {10, p14 + 1, p14 + 2, p14 + 3, p14 + 4, p14 + 5, p14 + 6, p14 + 7, p14 + 8, p14 + 9, p14 + 10, p14 + 11, p14 + 12, p14 + 13, p14 + 14, p14 + 15, p14 + 16, p14 + 17, p14 + 18, p14 + 19, p14 + 20, p14 + 21, p14 + 22, p14 + 23, p14 + 24, p14 + 25, p14 + 26, p14 + 27, p14 + 28, p14 + 29, p14 + 30, p14 + 31, p14 + 32, p14 + 33, p14 + 34, p14 + 35, p14 + 36, p14 + 37, p14 + 38, p14 + 39, 10};
Line(15) = {10, 8};
Curve Loop(1) = {-1, 4, 3, -2};
Plane Surface(1) = {1};
Curve Loop(2) = {-5, 1, 7, -6};
Plane Surface(2) = {2};
Curve Loop(3) = {-2, 7, 9, -8, -10};
Plane Surface(3) = {3};
Curve Loop(4) = {-11, 3, 8, -12};
Plane Surface(4) = {4};
Curve Loop(5) = {-4, 5, 13, -11, -14};
Plane Surface(5) = {5};
Curve Loop(6) = {-6, 13, 12, -9};
Plane Surface(6) = {6};
Curve Loop(7) = {-10, -15, 14, 15};
Surface(7) = {7};
Surface Loop(1) = {1, 2, 3, 4, 5, 6, 7};
Volume(1) = {1};
Physical Surface("INFLOW") = {1};
Physical Surface("OUTFLOW") = {6};
Physical Surface("OBSTACLE") = {7};
Physical Surface("WALL_Y") = {2, 4};
Physical Surface("WALL_Z") = {3, 5};
Physical Volume("FLUID") = {1};
