cl__1 = 3.840683;
cl__2 = 0.766782;
cl__3 = 0.607436;
cl__4 = 0.118541;
Point(1) = {0.376679, -3.795984, 1, cl__1};
Point(2) = {0.376679, -3.795984, 0, cl__1};
Point(3) = {0.376679, 5.379307, 1, cl__1};
Point(4) = {0.376679, 5.379307, 0, cl__1};
Point(5) = {38.13184800000001, -3.795984, 0, cl__2};
Point(6) = {38.13184800000001, -3.795984, 1, cl__2};
Point(7) = {38.13184800000001, 5.379307, 1, cl__3};
Point(8) = {32.795151, 2.190827, 1, cl__4};
Point(9) = {38.13184800000001, 5.379307, 0, cl__3};
Point(10) = {32.795151, 2.190827, 0, cl__4};
Line(1) = {2, 1};
Line(2) = {1, 3};
Line(3) = {4, 3};
Line(4) = {2, 4};
Line(5) = {2, 5};
Line(6) = {5, 6};
Line(7) = {1, 6};
Line(8) = {3, 7};
Line(9) = {6, 7};
p10 = newp;
Point(p10 + 1) = {32.78055658657824, 2.3762666049412, 1};
Point(p10 + 2) = {32.7371327092075, 2.557140071369984, 1};
Point(p10 + 3) = {32.66594860786423, 2.728993694258255, 1};
Point(p10 + 4) = {32.56875707136998, 2.88759586706103, 1};
Point(p10 + 5) = {32.44795127791347, 3.02904127791347, 1};
Point(p10 + 6) = {32.30650586706103, 3.149847071369984, 1};
Point(p10 + 7) = {32.14790369425825, 3.24703860786423, 1};
Point(p10 + 8) = {31.97605007136998, 3.318222709207503, 1};
Point(p10 + 9) = {31.7951766049412, 3.361646586578245, 1};
Point(p10 + 10) = {31.609737, 3.376241, 1};
Point(p10 + 11) = {31.4242973950588, 3.361646586578245, 1};
Point(p10 + 12) = {31.24342392863002, 3.318222709207503, 1};
Point(p10 + 13) = {31.07157030574174, 3.24703860786423, 1};
Point(p10 + 14) = {30.91296813293897, 3.149847071369984, 1};
Point(p10 + 15) = {30.77152272208653, 3.02904127791347, 1};
Point(p10 + 16) = {30.65071692863001, 2.88759586706103, 1};
Point(p10 + 17) = {30.55352539213577, 2.728993694258255, 1};
Point(p10 + 18) = {30.4823412907925, 2.557140071369984, 1};
Point(p10 + 19) = {30.43891741342176, 2.3762666049412, 1};
Point(p10 + 20) = {30.424323, 2.190827, 1};
Point(p10 + 21) = {30.43891741342176, 2.0053873950588, 1};
Point(p10 + 22) = {30.4823412907925, 1.824513928630016, 1};
Point(p10 + 23) = {30.55352539213577, 1.652660305741746, 1};
Point(p10 + 24) = {30.65071692863001, 1.49405813293897, 1};
Point(p10 + 25) = {30.77152272208653, 1.35261272208653, 1};
Point(p10 + 26) = {30.91296813293897, 1.231806928630016, 1};
Point(p10 + 27) = {31.07157030574174, 1.13461539213577, 1};
Point(p10 + 28) = {31.24342392863002, 1.063431290792497, 1};
Point(p10 + 29) = {31.4242973950588, 1.020007413421756, 1};
Point(p10 + 30) = {31.609737, 1.005413, 1};
Point(p10 + 31) = {31.7951766049412, 1.020007413421755, 1};
Point(p10 + 32) = {31.97605007136998, 1.063431290792497, 1};
Point(p10 + 33) = {32.14790369425825, 1.13461539213577, 1};
Point(p10 + 34) = {32.30650586706103, 1.231806928630016, 1};
Point(p10 + 35) = {32.44795127791347, 1.35261272208653, 1};
Point(p10 + 36) = {32.56875707136998, 1.49405813293897, 1};
Point(p10 + 37) = {32.66594860786423, 1.652660305741745, 1};
Point(p10 + 38) = {32.7371327092075, 1.824513928630016, 1};
Point(p10 + 39) = {32.78055658657824, 2.0053873950588, 1};
Spline(10) = {8, p10 + 1, p10 + 2, p10 + 3, p10 + 4, p10 + 5, p10 + 6, p10 + 7, p10 + 8, p10 + 9, p10 + 10, p10 + 11, p10 + 12, p10 + 13, p10 + 14, p10 + 15, p10 + 16, p10 + 17, p10 + 18, p10 + 19, p10 + 20, p10 + 21, p10 + 22, p10 + 23, p10 + 24, p10 + 25, p10 + 26, p10 + 27, p10 + 28, p10 + 29, p10 + 30, p10 + 31, p10 + 32, p10 + 33, p10 + 34, p10 + 35, p10 + 36, p10 + 37, p10 + 38, p10 + 39, 8};
Line(11) = {4, 9};
Line(12) = {9, 7};
Line(13) = {5, 9};
p14 = newp;
Point(p14 + 1) = {32.78055658657824, 2.3762666049412, 0};
Point(p14 + 2) = {32.7371327092075, 2.557140071369984, 0};
Point(p14 + 3) = {32.66594860786423, 2.728993694258255, 0};
Point(p14 + 4) = {32.56875707136998, 2.88759586706103, 0};
Point(p14 + 5) = {32.44795127791347, 3.02904127791347, 0};
Point(p14 + 6) = {32.30650586706103, 3.149847071369984, 0};
Point(p14 + 7) = {32.14790369425825, 3.24703860786423, 0};
Point(p14 + 8) = {31.97605007136998, 3.318222709207503, 0};
Point(p14 + 9) = {31.7951766049412, 3.361646586578245, 0};
Point(p14 + 10) = {31.609737, 3.376241, 0};
Point(p14 + 11) = {31.4242973950588, 3.361646586578245, 0};
Point(p14 + 12) = {31.24342392863002, 3.318222709207503, 0};
Point(p14 + 13) = {31.07157030574174, 3.24703860786423, 0};
Point(p14 + 14) = {30.91296813293897, 3.149847071369984, 0};
Point(p14 + 15) = {30.77152272208653, 3.02904127791347, 0};
Point(p14 + 16) = {30.65071692863001, 2.88759586706103, 0};
Point(p14 + 17) = {30.55352539213577, 2.728993694258255, 0};
Point(p14 + 18) = {30.4823412907925, 2.557140071369984, 0};
Point(p14 + 19) = {30.43891741342176, 2.3762666049412, 0};
Point(p14 + 20) = {30.424323, 2.190827, 0};
Point(p14 + 21) = {30.43891741342176, 2.0053873950588, 0};
Point(p14 + 22) = {30.4823412907925, 1.824513928630016, 0};
Point(p14 + 23) = {30.55352539213577, 1.652660305741746, 0};
Point(p14 + 24) = {30.65071692863001, 1.49405813293897, 0};
Point(p14 + 25) = {30.77152272208653, 1.35261272208653, 0};
Point(p14 + 26) = {30.91296813293897, 1.231806928630016, 0};
Point(p14 + 27) = {31.07157030574174, 1.13461539213577, 0};
Point(p14 + 28) = {31.24342392863002, 1.063431290792497, 0};
Point(p14 + 29) = {31.4242973950588, 1.020007413421756, 0};
Point(p14 + 30) = {31.609737, 1.005413, 0};
Point(p14 + 31) = {31.7951766049412, 1.020007413421755, 0};
Point(p14 + 32) = {31.97605007136998, 1.063431290792497, 0};
Point(p14 + 33) = {32.14790369425825, 1.13461539213577, 0};
Point(p14 + 34) = {32.30650586706103, 1.231806928630016, 0};
Point(p14 + 35) = {32.44795127791347, 1.35261272208653, 0};
Point(p14 + 36) = {32.56875707136998, 1.49405813293897, 0};
Point(p14 + 37) = {32.66594860786423, 1.652660305741745, 0};
Point(p14 + 38) = {32.7371327092075, 1.824513928630016, 0};
Point(p14 + 39) = {32.78055658657824, 2.0053873950588, 0};
Spline(14) = {10, p14 + 1, p14 + 2, p14 + 3, p14 + 4, p14 + 5, p14 + 6, p14 + 7, p14 + 8, p14 + 9, p14 + 10, p14 + 11, p14 + 12, p14 + 13, p14 + 14, p14 + 15, p14 + 16, p14 + 17, p14 + 18, p14 + 19, p14 + 20, p14 + 21, p14 + 22, p14 + 23, p14 + 24, p14 + 25, p14 + 26, p14 + 27, p14 + 28, p14 + 29, p14 + 30, p14 + 31, p14 + 32, p14 + 33, p14 + 34, p14 + 35, p14 + 36, p14 + 37, p14 + 38, p14 + 39, 10};
Line(15) = {10, 8};
Curve Loop(1) = {-1, 4, 3, -2};
Plane Surface(1) = {1};
Curve Loop(2) = {-5, 1, 7, -6};
Plane Surface(2) = {2};
Curve Loop(3) = {-2, 7, 9, -8, -10};
Plane Surface(3) = {3};
Curve Loop(4) = {-11, 3, 8, -12};
Plane Surface(4) = {4};
Curve Loop(5) = {-4, 5, 13, -11, -14};
Plane Surface(5) = {5};
Curve Loop(6) = {-6, 13, 12, -9};
Plane Surface(6) = {6};
Curve Loop(7) = {-10, -15, 14, 15};
Surface(7) = {7};
Surface Loop(1) = {1, 2, 3, 4, 5, 6, 7};
Volume(1) = {1};
Physical Surface("INFLOW") = {1};
Physical Surface("OUTFLOW") = {6};
Physical Surface("OBSTACLE") = {7};
Physical Surface("WALL_Y") = {2, 4};
Physical Surface("WALL_Z") = {3, 5};
Physical Volume("FLUID") = {1};
