cl__1 = 3.830681;
cl__2 = 0.820788;
cl__3 = 0.898729;
cl__4 = 0.079344;
Point(1) = {0.695389, -3.19714, 1, cl__1};
Point(2) = {0.695389, -3.19714, 0, cl__1};
Point(3) = {0.695389, 4.460611, 1, cl__1};
Point(4) = {0.695389, 4.460611, 0, cl__1};
Point(5) = {38.114977, -3.19714, 0, cl__2};
Point(6) = {38.114977, -3.19714, 1, cl__2};
Point(7) = {38.114977, 4.460611, 1, cl__3};
Point(8) = {30.377922, -0.3240790000000002, 1, cl__4};
Point(9) = {38.114977, 4.460611, 0, cl__3};
Point(10) = {30.377922, -0.3240790000000002, 0, cl__4};
Line(1) = {2, 1};
Line(2) = {1, 3};
Line(3) = {4, 3};
Line(4) = {2, 4};
Line(5) = {2, 5};
Line(6) = {5, 6};
Line(7) = {1, 6};
Line(8) = {3, 7};
Line(9) = {6, 7};
p10 = newp;
Point(p10 + 1) = {30.36815340002683, -0.1999571687550841, 1};
Point(p10 + 2) = {30.33908813545878, -0.07889162893215862, 1};
Point(p10 + 3) = {30.29144188957159, 0.03613658408484521, 1};
Point(p10 + 4) = {30.22638787106784, 0.1422950939346967, 1};
Point(p10 + 5) = {30.145527925785, 0.2369699257849978, 1};
Point(p10 + 6) = {30.0508530939347, 0.3178298710678414, 1};
Point(p10 + 7) = {29.94469458408485, 0.3828838895715911, 1};
Point(p10 + 8) = {29.82966637106784, 0.4305301354587755, 1};
Point(p10 + 9) = {29.70860083124492, 0.4595954000268279, 1};
Point(p10 + 10) = {29.584479, 0.469364, 1};
Point(p10 + 11) = {29.46035716875508, 0.4595954000268279, 1};
Point(p10 + 12) = {29.33929162893216, 0.4305301354587756, 1};
Point(p10 + 13) = {29.22426341591516, 0.3828838895715911, 1};
Point(p10 + 14) = {29.11810490606531, 0.3178298710678414, 1};
Point(p10 + 15) = {29.023430074215, 0.2369699257849979, 1};
Point(p10 + 16) = {28.94257012893216, 0.1422950939346969, 1};
Point(p10 + 17) = {28.87751611042841, 0.03613658408484527, 1};
Point(p10 + 18) = {28.82986986454123, -0.07889162893215854, 1};
Point(p10 + 19) = {28.80080459997317, -0.199957168755084, 1};
Point(p10 + 20) = {28.791036, -0.3240789999999999, 1};
Point(p10 + 21) = {28.80080459997317, -0.4482008312449158, 1};
Point(p10 + 22) = {28.82986986454123, -0.5692663710678416, 1};
Point(p10 + 23) = {28.87751611042841, -0.6842945840848448, 1};
Point(p10 + 24) = {28.94257012893216, -0.7904530939346968, 1};
Point(p10 + 25) = {29.023430074215, -0.8851279257849978, 1};
Point(p10 + 26) = {29.11810490606531, -0.9659878710678413, 1};
Point(p10 + 27) = {29.22426341591516, -1.031041889571591, 1};
Point(p10 + 28) = {29.33929162893216, -1.078688135458775, 1};
Point(p10 + 29) = {29.46035716875508, -1.107753400026828, 1};
Point(p10 + 30) = {29.584479, -1.117522, 1};
Point(p10 + 31) = {29.70860083124492, -1.107753400026828, 1};
Point(p10 + 32) = {29.82966637106784, -1.078688135458776, 1};
Point(p10 + 33) = {29.94469458408485, -1.031041889571591, 1};
Point(p10 + 34) = {30.0508530939347, -0.9659878710678416, 1};
Point(p10 + 35) = {30.145527925785, -0.885127925784998, 1};
Point(p10 + 36) = {30.22638787106784, -0.790453093934697, 1};
Point(p10 + 37) = {30.29144188957159, -0.6842945840848453, 1};
Point(p10 + 38) = {30.33908813545878, -0.5692663710678416, 1};
Point(p10 + 39) = {30.36815340002683, -0.4482008312449161, 1};
Spline(10) = {8, p10 + 1, p10 + 2, p10 + 3, p10 + 4, p10 + 5, p10 + 6, p10 + 7, p10 + 8, p10 + 9, p10 + 10, p10 + 11, p10 + 12, p10 + 13, p10 + 14, p10 + 15, p10 + 16, p10 + 17, p10 + 18, p10 + 19, p10 + 20, p10 + 21, p10 + 22, p10 + 23, p10 + 24, p10 + 25, p10 + 26, p10 + 27, p10 + 28, p10 + 29, p10 + 30, p10 + 31, p10 + 32, p10 + 33, p10 + 34, p10 + 35, p10 + 36, p10 + 37, p10 + 38, p10 + 39, 8};
Line(11) = {4, 9};
Line(12) = {9, 7};
Line(13) = {5, 9};
p14 = newp;
Point(p14 + 1) = {30.36815340002683, -0.1999571687550841, 0};
Point(p14 + 2) = {30.33908813545878, -0.07889162893215862, 0};
Point(p14 + 3) = {30.29144188957159, 0.03613658408484521, 0};
Point(p14 + 4) = {30.22638787106784, 0.1422950939346967, 0};
Point(p14 + 5) = {30.145527925785, 0.2369699257849978, 0};
Point(p14 + 6) = {30.0508530939347, 0.3178298710678414, 0};
Point(p14 + 7) = {29.94469458408485, 0.3828838895715911, 0};
Point(p14 + 8) = {29.82966637106784, 0.4305301354587755, 0};
Point(p14 + 9) = {29.70860083124492, 0.4595954000268279, 0};
Point(p14 + 10) = {29.584479, 0.469364, 0};
Point(p14 + 11) = {29.46035716875508, 0.4595954000268279, 0};
Point(p14 + 12) = {29.33929162893216, 0.4305301354587756, 0};
Point(p14 + 13) = {29.22426341591516, 0.3828838895715911, 0};
Point(p14 + 14) = {29.11810490606531, 0.3178298710678414, 0};
Point(p14 + 15) = {29.023430074215, 0.2369699257849979, 0};
Point(p14 + 16) = {28.94257012893216, 0.1422950939346969, 0};
Point(p14 + 17) = {28.87751611042841, 0.03613658408484527, 0};
Point(p14 + 18) = {28.82986986454123, -0.07889162893215854, 0};
Point(p14 + 19) = {28.80080459997317, -0.199957168755084, 0};
Point(p14 + 20) = {28.791036, -0.3240789999999999, 0};
Point(p14 + 21) = {28.80080459997317, -0.4482008312449158, 0};
Point(p14 + 22) = {28.82986986454123, -0.5692663710678416, 0};
Point(p14 + 23) = {28.87751611042841, -0.6842945840848448, 0};
Point(p14 + 24) = {28.94257012893216, -0.7904530939346968, 0};
Point(p14 + 25) = {29.023430074215, -0.8851279257849978, 0};
Point(p14 + 26) = {29.11810490606531, -0.9659878710678413, 0};
Point(p14 + 27) = {29.22426341591516, -1.031041889571591, 0};
Point(p14 + 28) = {29.33929162893216, -1.078688135458775, 0};
Point(p14 + 29) = {29.46035716875508, -1.107753400026828, 0};
Point(p14 + 30) = {29.584479, -1.117522, 0};
Point(p14 + 31) = {29.70860083124492, -1.107753400026828, 0};
Point(p14 + 32) = {29.82966637106784, -1.078688135458776, 0};
Point(p14 + 33) = {29.94469458408485, -1.031041889571591, 0};
Point(p14 + 34) = {30.0508530939347, -0.9659878710678416, 0};
Point(p14 + 35) = {30.145527925785, -0.885127925784998, 0};
Point(p14 + 36) = {30.22638787106784, -0.790453093934697, 0};
Point(p14 + 37) = {30.29144188957159, -0.6842945840848453, 0};
Point(p14 + 38) = {30.33908813545878, -0.5692663710678416, 0};
Point(p14 + 39) = {30.36815340002683, -0.4482008312449161, 0};
Spline(14) = {10, p14 + 1, p14 + 2, p14 + 3, p14 + 4, p14 + 5, p14 + 6, p14 + 7, p14 + 8, p14 + 9, p14 + 10, p14 + 11, p14 + 12, p14 + 13, p14 + 14, p14 + 15, p14 + 16, p14 + 17, p14 + 18, p14 + 19, p14 + 20, p14 + 21, p14 + 22, p14 + 23, p14 + 24, p14 + 25, p14 + 26, p14 + 27, p14 + 28, p14 + 29, p14 + 30, p14 + 31, p14 + 32, p14 + 33, p14 + 34, p14 + 35, p14 + 36, p14 + 37, p14 + 38, p14 + 39, 10};
Line(15) = {10, 8};
Curve Loop(1) = {-1, 4, 3, -2};
Plane Surface(1) = {1};
Curve Loop(2) = {-5, 1, 7, -6};
Plane Surface(2) = {2};
Curve Loop(3) = {-2, 7, 9, -8, -10};
Plane Surface(3) = {3};
Curve Loop(4) = {-11, 3, 8, -12};
Plane Surface(4) = {4};
Curve Loop(5) = {-4, 5, 13, -11, -14};
Plane Surface(5) = {5};
Curve Loop(6) = {-6, 13, 12, -9};
Plane Surface(6) = {6};
Curve Loop(7) = {-10, -15, 14, 15};
Surface(7) = {7};
Surface Loop(1) = {1, 2, 3, 4, 5, 6, 7};
Volume(1) = {1};
Physical Surface("INFLOW") = {1};
Physical Surface("OUTFLOW") = {6};
Physical Surface("OBSTACLE") = {7};
Physical Surface("WALL_Y") = {2, 4};
Physical Surface("WALL_Z") = {3, 5};
Physical Volume("FLUID") = {1};
