cl__1 = 1.561869;
cl__2 = 1.241984;
cl__3 = 3.970413;
cl__4 = 0.146332;
cl__5 = 0.052107;
Point(1) = {0.490359, -3.770907, 1, cl__1};
Point(2) = {0.490359, -3.770907, 0, cl__1};
Point(3) = {0.490359, 4.520318000000001, 1, cl__2};
Point(4) = {0.490359, 4.520318000000001, 0, cl__2};
Point(5) = {39.487109, -3.770907, 0, cl__1};
Point(6) = {39.487109, -3.770907, 1, cl__1};
Point(7) = {39.487109, 4.520318000000001, 1, cl__3};
Point(8) = {18.197214, 1.515126, 1, cl__4};
Point(9) = {28.780862, 2.664513, 1, cl__5};
Point(10) = {39.487109, 4.520318000000001, 0, cl__3};
Point(11) = {18.197214, 1.515126, 0, cl__4};
Point(12) = {28.780862, 2.664513, 0, cl__5};
Line(1) = {2, 1};
Line(2) = {1, 3};
Line(3) = {4, 3};
Line(4) = {2, 4};
Line(5) = {2, 5};
Line(6) = {5, 6};
Line(7) = {1, 6};
Line(8) = {3, 7};
Line(9) = {6, 7};
p10 = newp;
Point(p10 + 1) = {18.17919816411797, 1.744038899210345, 1};
Point(p10 + 2) = {18.12559426614244, 1.967315203123776, 1};
Point(p10 + 3) = {18.0377222119427, 2.179457108126375, 1};
Point(p10 + 4) = {17.91774570312378, 2.37524097645836, 1};
Point(p10 + 5) = {17.76861895951199, 2.549845959511993, 1};
Point(p10 + 6) = {17.59401397645836, 2.698972703123776, 1};
Point(p10 + 7) = {17.39823010812638, 2.818949211942702, 1};
Point(p10 + 8) = {17.18608820312378, 2.906821266142442, 1};
Point(p10 + 9) = {16.96281189921035, 2.960425164117974, 1};
Point(p10 + 10) = {16.733899, 2.978441, 1};
Point(p10 + 11) = {16.50498610078965, 2.960425164117974, 1};
Point(p10 + 12) = {16.28170979687622, 2.906821266142443, 1};
Point(p10 + 13) = {16.06956789187362, 2.818949211942702, 1};
Point(p10 + 14) = {15.87378402354164, 2.698972703123776, 1};
Point(p10 + 15) = {15.69917904048801, 2.549845959511993, 1};
Point(p10 + 16) = {15.55005229687622, 2.37524097645836, 1};
Point(p10 + 17) = {15.4300757880573, 2.179457108126375, 1};
Point(p10 + 18) = {15.34220373385756, 1.967315203123776, 1};
Point(p10 + 19) = {15.28859983588203, 1.744038899210345, 1};
Point(p10 + 20) = {15.270584, 1.515126, 1};
Point(p10 + 21) = {15.28859983588203, 1.286213100789655, 1};
Point(p10 + 22) = {15.34220373385756, 1.062936796876223, 1};
Point(p10 + 23) = {15.4300757880573, 0.8507948918736259, 1};
Point(p10 + 24) = {15.55005229687622, 0.6550110235416399, 1};
Point(p10 + 25) = {15.69917904048801, 0.4804060404880073, 1};
Point(p10 + 26) = {15.87378402354164, 0.3312792968762239, 1};
Point(p10 + 27) = {16.06956789187362, 0.2113027880572986, 1};
Point(p10 + 28) = {16.28170979687622, 0.1234307338575575, 1};
Point(p10 + 29) = {16.50498610078965, 0.06982683588202621, 1};
Point(p10 + 30) = {16.733899, 0.05181100000000005, 1};
Point(p10 + 31) = {16.96281189921035, 0.06982683588202598, 1};
Point(p10 + 32) = {17.18608820312378, 0.1234307338575573, 1};
Point(p10 + 33) = {17.39823010812638, 0.2113027880572984, 1};
Point(p10 + 34) = {17.59401397645836, 0.3312792968762237, 1};
Point(p10 + 35) = {17.76861895951199, 0.4804060404880071, 1};
Point(p10 + 36) = {17.91774570312378, 0.6550110235416393, 1};
Point(p10 + 37) = {18.0377222119427, 0.8507948918736248, 1};
Point(p10 + 38) = {18.12559426614244, 1.062936796876224, 1};
Point(p10 + 39) = {18.17919816411797, 1.286213100789654, 1};
Spline(10) = {8, p10 + 1, p10 + 2, p10 + 3, p10 + 4, p10 + 5, p10 + 6, p10 + 7, p10 + 8, p10 + 9, p10 + 10, p10 + 11, p10 + 12, p10 + 13, p10 + 14, p10 + 15, p10 + 16, p10 + 17, p10 + 18, p10 + 19, p10 + 20, p10 + 21, p10 + 22, p10 + 23, p10 + 24, p10 + 25, p10 + 26, p10 + 27, p10 + 28, p10 + 29, p10 + 30, p10 + 31, p10 + 32, p10 + 33, p10 + 34, p10 + 35, p10 + 36, p10 + 37, p10 + 38, p10 + 39, 8};
p11 = newp;
Point(p11 + 1) = {28.77444671438727, 2.746026932436373, 1};
Point(p11 + 2) = {28.75535882317198, 2.825533721326931, 1};
Point(p11 + 3) = {28.72406833358493, 2.901075645661285, 1};
Point(p11 + 4) = {28.68134572132693, 2.970792612553048, 1};
Point(p11 + 5) = {28.6282429589, 3.032967958899999, 1};
Point(p11 + 6) = {28.56606761255305, 3.086070721326931, 1};
Point(p11 + 7) = {28.49635064566128, 3.128793333584929, 1};
Point(p11 + 8) = {28.42080872132693, 3.160083823171981, 1};
Point(p11 + 9) = {28.34130193243637, 3.179171714387271, 1};
Point(p11 + 10) = {28.259788, 3.185587, 1};
Point(p11 + 11) = {28.17827406756363, 3.179171714387271, 1};
Point(p11 + 12) = {28.09876727867307, 3.160083823171981, 1};
Point(p11 + 13) = {28.02322535433872, 3.128793333584929, 1};
Point(p11 + 14) = {27.95350838744695, 3.086070721326931, 1};
Point(p11 + 15) = {27.8913330411, 3.032967958899999, 1};
Point(p11 + 16) = {27.83823027867307, 2.970792612553048, 1};
Point(p11 + 17) = {27.79550766641507, 2.901075645661285, 1};
Point(p11 + 18) = {27.76421717682802, 2.825533721326931, 1};
Point(p11 + 19) = {27.74512928561273, 2.746026932436373, 1};
Point(p11 + 20) = {27.738714, 2.664513, 1};
Point(p11 + 21) = {27.74512928561273, 2.582999067563627, 1};
Point(p11 + 22) = {27.76421717682802, 2.503492278673068, 1};
Point(p11 + 23) = {27.79550766641507, 2.427950354338716, 1};
Point(p11 + 24) = {27.83823027867307, 2.358233387446952, 1};
Point(p11 + 25) = {27.8913330411, 2.296058041100001, 1};
Point(p11 + 26) = {27.95350838744695, 2.242955278673068, 1};
Point(p11 + 27) = {28.02322535433872, 2.20023266641507, 1};
Point(p11 + 28) = {28.09876727867307, 2.168942176828019, 1};
Point(p11 + 29) = {28.17827406756363, 2.149854285612729, 1};
Point(p11 + 30) = {28.259788, 2.143439, 1};
Point(p11 + 31) = {28.34130193243637, 2.149854285612729, 1};
Point(p11 + 32) = {28.42080872132693, 2.168942176828019, 1};
Point(p11 + 33) = {28.49635064566128, 2.20023266641507, 1};
Point(p11 + 34) = {28.56606761255305, 2.242955278673068, 1};
Point(p11 + 35) = {28.6282429589, 2.296058041100001, 1};
Point(p11 + 36) = {28.68134572132693, 2.358233387446952, 1};
Point(p11 + 37) = {28.72406833358493, 2.427950354338715, 1};
Point(p11 + 38) = {28.75535882317198, 2.503492278673068, 1};
Point(p11 + 39) = {28.77444671438727, 2.582999067563627, 1};
Spline(11) = {9, p11 + 1, p11 + 2, p11 + 3, p11 + 4, p11 + 5, p11 + 6, p11 + 7, p11 + 8, p11 + 9, p11 + 10, p11 + 11, p11 + 12, p11 + 13, p11 + 14, p11 + 15, p11 + 16, p11 + 17, p11 + 18, p11 + 19, p11 + 20, p11 + 21, p11 + 22, p11 + 23, p11 + 24, p11 + 25, p11 + 26, p11 + 27, p11 + 28, p11 + 29, p11 + 30, p11 + 31, p11 + 32, p11 + 33, p11 + 34, p11 + 35, p11 + 36, p11 + 37, p11 + 38, p11 + 39, 9};
Line(12) = {4, 10};
Line(13) = {10, 7};
Line(14) = {5, 10};
p15 = newp;
Point(p15 + 1) = {18.17919816411797, 1.744038899210345, 0};
Point(p15 + 2) = {18.12559426614244, 1.967315203123776, 0};
Point(p15 + 3) = {18.0377222119427, 2.179457108126375, 0};
Point(p15 + 4) = {17.91774570312378, 2.37524097645836, 0};
Point(p15 + 5) = {17.76861895951199, 2.549845959511993, 0};
Point(p15 + 6) = {17.59401397645836, 2.698972703123776, 0};
Point(p15 + 7) = {17.39823010812638, 2.818949211942702, 0};
Point(p15 + 8) = {17.18608820312378, 2.906821266142442, 0};
Point(p15 + 9) = {16.96281189921035, 2.960425164117974, 0};
Point(p15 + 10) = {16.733899, 2.978441, 0};
Point(p15 + 11) = {16.50498610078965, 2.960425164117974, 0};
Point(p15 + 12) = {16.28170979687622, 2.906821266142443, 0};
Point(p15 + 13) = {16.06956789187362, 2.818949211942702, 0};
Point(p15 + 14) = {15.87378402354164, 2.698972703123776, 0};
Point(p15 + 15) = {15.69917904048801, 2.549845959511993, 0};
Point(p15 + 16) = {15.55005229687622, 2.37524097645836, 0};
Point(p15 + 17) = {15.4300757880573, 2.179457108126375, 0};
Point(p15 + 18) = {15.34220373385756, 1.967315203123776, 0};
Point(p15 + 19) = {15.28859983588203, 1.744038899210345, 0};
Point(p15 + 20) = {15.270584, 1.515126, 0};
Point(p15 + 21) = {15.28859983588203, 1.286213100789655, 0};
Point(p15 + 22) = {15.34220373385756, 1.062936796876223, 0};
Point(p15 + 23) = {15.4300757880573, 0.8507948918736259, 0};
Point(p15 + 24) = {15.55005229687622, 0.6550110235416399, 0};
Point(p15 + 25) = {15.69917904048801, 0.4804060404880073, 0};
Point(p15 + 26) = {15.87378402354164, 0.3312792968762239, 0};
Point(p15 + 27) = {16.06956789187362, 0.2113027880572986, 0};
Point(p15 + 28) = {16.28170979687622, 0.1234307338575575, 0};
Point(p15 + 29) = {16.50498610078965, 0.06982683588202621, 0};
Point(p15 + 30) = {16.733899, 0.05181100000000005, 0};
Point(p15 + 31) = {16.96281189921035, 0.06982683588202598, 0};
Point(p15 + 32) = {17.18608820312378, 0.1234307338575573, 0};
Point(p15 + 33) = {17.39823010812638, 0.2113027880572984, 0};
Point(p15 + 34) = {17.59401397645836, 0.3312792968762237, 0};
Point(p15 + 35) = {17.76861895951199, 0.4804060404880071, 0};
Point(p15 + 36) = {17.91774570312378, 0.6550110235416393, 0};
Point(p15 + 37) = {18.0377222119427, 0.8507948918736248, 0};
Point(p15 + 38) = {18.12559426614244, 1.062936796876224, 0};
Point(p15 + 39) = {18.17919816411797, 1.286213100789654, 0};
Spline(15) = {11, p15 + 1, p15 + 2, p15 + 3, p15 + 4, p15 + 5, p15 + 6, p15 + 7, p15 + 8, p15 + 9, p15 + 10, p15 + 11, p15 + 12, p15 + 13, p15 + 14, p15 + 15, p15 + 16, p15 + 17, p15 + 18, p15 + 19, p15 + 20, p15 + 21, p15 + 22, p15 + 23, p15 + 24, p15 + 25, p15 + 26, p15 + 27, p15 + 28, p15 + 29, p15 + 30, p15 + 31, p15 + 32, p15 + 33, p15 + 34, p15 + 35, p15 + 36, p15 + 37, p15 + 38, p15 + 39, 11};
p16 = newp;
Point(p16 + 1) = {28.77444671438727, 2.746026932436373, 0};
Point(p16 + 2) = {28.75535882317198, 2.825533721326931, 0};
Point(p16 + 3) = {28.72406833358493, 2.901075645661285, 0};
Point(p16 + 4) = {28.68134572132693, 2.970792612553048, 0};
Point(p16 + 5) = {28.6282429589, 3.032967958899999, 0};
Point(p16 + 6) = {28.56606761255305, 3.086070721326931, 0};
Point(p16 + 7) = {28.49635064566128, 3.128793333584929, 0};
Point(p16 + 8) = {28.42080872132693, 3.160083823171981, 0};
Point(p16 + 9) = {28.34130193243637, 3.179171714387271, 0};
Point(p16 + 10) = {28.259788, 3.185587, 0};
Point(p16 + 11) = {28.17827406756363, 3.179171714387271, 0};
Point(p16 + 12) = {28.09876727867307, 3.160083823171981, 0};
Point(p16 + 13) = {28.02322535433872, 3.128793333584929, 0};
Point(p16 + 14) = {27.95350838744695, 3.086070721326931, 0};
Point(p16 + 15) = {27.8913330411, 3.032967958899999, 0};
Point(p16 + 16) = {27.83823027867307, 2.970792612553048, 0};
Point(p16 + 17) = {27.79550766641507, 2.901075645661285, 0};
Point(p16 + 18) = {27.76421717682802, 2.825533721326931, 0};
Point(p16 + 19) = {27.74512928561273, 2.746026932436373, 0};
Point(p16 + 20) = {27.738714, 2.664513, 0};
Point(p16 + 21) = {27.74512928561273, 2.582999067563627, 0};
Point(p16 + 22) = {27.76421717682802, 2.503492278673068, 0};
Point(p16 + 23) = {27.79550766641507, 2.427950354338716, 0};
Point(p16 + 24) = {27.83823027867307, 2.358233387446952, 0};
Point(p16 + 25) = {27.8913330411, 2.296058041100001, 0};
Point(p16 + 26) = {27.95350838744695, 2.242955278673068, 0};
Point(p16 + 27) = {28.02322535433872, 2.20023266641507, 0};
Point(p16 + 28) = {28.09876727867307, 2.168942176828019, 0};
Point(p16 + 29) = {28.17827406756363, 2.149854285612729, 0};
Point(p16 + 30) = {28.259788, 2.143439, 0};
Point(p16 + 31) = {28.34130193243637, 2.149854285612729, 0};
Point(p16 + 32) = {28.42080872132693, 2.168942176828019, 0};
Point(p16 + 33) = {28.49635064566128, 2.20023266641507, 0};
Point(p16 + 34) = {28.56606761255305, 2.242955278673068, 0};
Point(p16 + 35) = {28.6282429589, 2.296058041100001, 0};
Point(p16 + 36) = {28.68134572132693, 2.358233387446952, 0};
Point(p16 + 37) = {28.72406833358493, 2.427950354338715, 0};
Point(p16 + 38) = {28.75535882317198, 2.503492278673068, 0};
Point(p16 + 39) = {28.77444671438727, 2.582999067563627, 0};
Spline(16) = {12, p16 + 1, p16 + 2, p16 + 3, p16 + 4, p16 + 5, p16 + 6, p16 + 7, p16 + 8, p16 + 9, p16 + 10, p16 + 11, p16 + 12, p16 + 13, p16 + 14, p16 + 15, p16 + 16, p16 + 17, p16 + 18, p16 + 19, p16 + 20, p16 + 21, p16 + 22, p16 + 23, p16 + 24, p16 + 25, p16 + 26, p16 + 27, p16 + 28, p16 + 29, p16 + 30, p16 + 31, p16 + 32, p16 + 33, p16 + 34, p16 + 35, p16 + 36, p16 + 37, p16 + 38, p16 + 39, 12};
Line(17) = {11, 8};
Line(18) = {12, 9};
Curve Loop(1) = {-1, 4, 3, -2};
Plane Surface(1) = {1};
Curve Loop(2) = {-5, 1, 7, -6};
Plane Surface(2) = {2};
Curve Loop(3) = {-2, 7, 9, -8, -10, -11};
Plane Surface(3) = {3};
Curve Loop(4) = {-12, 3, 8, -13};
Plane Surface(4) = {4};
Curve Loop(5) = {-4, 5, 14, -12, -15, -16};
Plane Surface(5) = {5};
Curve Loop(6) = {-6, 14, 13, -9};
Plane Surface(6) = {6};
Curve Loop(7) = {-10, -17, 15, 17};
Surface(7) = {7};
Curve Loop(8) = {-11, -18, 16, 18};
Surface(8) = {8};
Surface Loop(1) = {1, 2, 3, 4, 5, 6, 7, 8};
Volume(1) = {1};
Physical Surface("INFLOW") = {1};
Physical Surface("OUTFLOW") = {6};
Physical Surface("OBSTACLE") = {7, 8};
Physical Surface("WALL_Y") = {2, 4};
Physical Surface("WALL_Z") = {3, 5};
Physical Volume("FLUID") = {1};
