cl__1 = 0.730334;
cl__2 = 0.845068;
cl__3 = 3.303667;
cl__4 = 0.111033;
Point(1) = {0.435574, -4.083615, 1, cl__1};
Point(2) = {0.435574, -4.083615, 0, cl__1};
Point(3) = {0.435574, 5.545667999999999, 1, cl__2};
Point(4) = {0.435574, 5.545667999999999, 0, cl__2};
Point(5) = {32.683955, -4.083615, 0, cl__3};
Point(6) = {32.683955, -4.083615, 1, cl__3};
Point(7) = {32.683955, 5.545667999999999, 1, cl__3};
Point(8) = {9.080754000000001, -0.3398320000000003, 1, cl__4};
Point(9) = {32.683955, 5.545667999999999, 0, cl__3};
Point(10) = {9.080754000000001, -0.3398320000000003, 0, cl__4};
Line(1) = {2, 1};
Line(2) = {1, 3};
Line(3) = {4, 3};
Line(4) = {2, 4};
Line(5) = {2, 5};
Line(6) = {5, 6};
Line(7) = {1, 6};
Line(8) = {3, 7};
Line(9) = {6, 7};
p10 = newp;
Point(p10 + 1) = {9.06708397058968, -0.1661378075629504, 1};
Point(p10 + 2) = {9.026410483851031, 0.003279457398324082, 1};
Point(p10 + 3) = {8.95973505601512, 0.1642481795568105, 1};
Point(p10 + 4) = {8.868699457398325, 0.3128047747484063, 1};
Point(p10 + 5) = {8.755545286568422, 0.4452912865684217, 1};
Point(p10 + 6) = {8.623058774748406, 0.5584454573983242, 1};
Point(p10 + 7) = {8.474502179556811, 0.6494810560151189, 1};
Point(p10 + 8) = {8.313533457398325, 0.7161564838510305, 1};
Point(p10 + 9) = {8.14411619243705, 0.7568299705896805, 1};
Point(p10 + 10) = {7.970422, 0.7705000000000001, 1};
Point(p10 + 11) = {7.79672780756295, 0.7568299705896805, 1};
Point(p10 + 12) = {7.627310542601676, 0.7161564838510307, 1};
Point(p10 + 13) = {7.46634182044319, 0.649481056015119, 1};
Point(p10 + 14) = {7.317785225251594, 0.5584454573983242, 1};
Point(p10 + 15) = {7.185298713431578, 0.4452912865684218, 1};
Point(p10 + 16) = {7.072144542601676, 0.3128047747484064, 1};
Point(p10 + 17) = {6.981108943984881, 0.1642481795568106, 1};
Point(p10 + 18) = {6.91443351614897, 0.003279457398324248, 1};
Point(p10 + 19) = {6.873760029410319, -0.1661378075629503, 1};
Point(p10 + 20) = {6.86009, -0.3398319999999999, 1};
Point(p10 + 21) = {6.873760029410319, -0.5135261924370496, 1};
Point(p10 + 22) = {6.91443351614897, -0.6829434573983245, 1};
Point(p10 + 23) = {6.981108943984881, -0.84391217955681, 1};
Point(p10 + 24) = {7.072144542601675, -0.9924687747484062, 1};
Point(p10 + 25) = {7.185298713431578, -1.124955286568422, 1};
Point(p10 + 26) = {7.317785225251594, -1.238109457398324, 1};
Point(p10 + 27) = {7.46634182044319, -1.329145056015119, 1};
Point(p10 + 28) = {7.627310542601676, -1.39582048385103, 1};
Point(p10 + 29) = {7.79672780756295, -1.436493970589681, 1};
Point(p10 + 30) = {7.970422, -1.450164, 1};
Point(p10 + 31) = {8.14411619243705, -1.436493970589681, 1};
Point(p10 + 32) = {8.313533457398323, -1.395820483851031, 1};
Point(p10 + 33) = {8.474502179556811, -1.329145056015119, 1};
Point(p10 + 34) = {8.623058774748406, -1.238109457398324, 1};
Point(p10 + 35) = {8.755545286568422, -1.124955286568422, 1};
Point(p10 + 36) = {8.868699457398325, -0.9924687747484066, 1};
Point(p10 + 37) = {8.95973505601512, -0.8439121795568107, 1};
Point(p10 + 38) = {9.026410483851031, -0.6829434573983244, 1};
Point(p10 + 39) = {9.06708397058968, -0.5135261924370499, 1};
Spline(10) = {8, p10 + 1, p10 + 2, p10 + 3, p10 + 4, p10 + 5, p10 + 6, p10 + 7, p10 + 8, p10 + 9, p10 + 10, p10 + 11, p10 + 12, p10 + 13, p10 + 14, p10 + 15, p10 + 16, p10 + 17, p10 + 18, p10 + 19, p10 + 20, p10 + 21, p10 + 22, p10 + 23, p10 + 24, p10 + 25, p10 + 26, p10 + 27, p10 + 28, p10 + 29, p10 + 30, p10 + 31, p10 + 32, p10 + 33, p10 + 34, p10 + 35, p10 + 36, p10 + 37, p10 + 38, p10 + 39, 8};
Line(11) = {4, 9};
Line(12) = {9, 7};
Line(13) = {5, 9};
p14 = newp;
Point(p14 + 1) = {9.06708397058968, -0.1661378075629504, 0};
Point(p14 + 2) = {9.026410483851031, 0.003279457398324082, 0};
Point(p14 + 3) = {8.95973505601512, 0.1642481795568105, 0};
Point(p14 + 4) = {8.868699457398325, 0.3128047747484063, 0};
Point(p14 + 5) = {8.755545286568422, 0.4452912865684217, 0};
Point(p14 + 6) = {8.623058774748406, 0.5584454573983242, 0};
Point(p14 + 7) = {8.474502179556811, 0.6494810560151189, 0};
Point(p14 + 8) = {8.313533457398325, 0.7161564838510305, 0};
Point(p14 + 9) = {8.14411619243705, 0.7568299705896805, 0};
Point(p14 + 10) = {7.970422, 0.7705000000000001, 0};
Point(p14 + 11) = {7.79672780756295, 0.7568299705896805, 0};
Point(p14 + 12) = {7.627310542601676, 0.7161564838510307, 0};
Point(p14 + 13) = {7.46634182044319, 0.649481056015119, 0};
Point(p14 + 14) = {7.317785225251594, 0.5584454573983242, 0};
Point(p14 + 15) = {7.185298713431578, 0.4452912865684218, 0};
Point(p14 + 16) = {7.072144542601676, 0.3128047747484064, 0};
Point(p14 + 17) = {6.981108943984881, 0.1642481795568106, 0};
Point(p14 + 18) = {6.91443351614897, 0.003279457398324248, 0};
Point(p14 + 19) = {6.873760029410319, -0.1661378075629503, 0};
Point(p14 + 20) = {6.86009, -0.3398319999999999, 0};
Point(p14 + 21) = {6.873760029410319, -0.5135261924370496, 0};
Point(p14 + 22) = {6.91443351614897, -0.6829434573983245, 0};
Point(p14 + 23) = {6.981108943984881, -0.84391217955681, 0};
Point(p14 + 24) = {7.072144542601675, -0.9924687747484062, 0};
Point(p14 + 25) = {7.185298713431578, -1.124955286568422, 0};
Point(p14 + 26) = {7.317785225251594, -1.238109457398324, 0};
Point(p14 + 27) = {7.46634182044319, -1.329145056015119, 0};
Point(p14 + 28) = {7.627310542601676, -1.39582048385103, 0};
Point(p14 + 29) = {7.79672780756295, -1.436493970589681, 0};
Point(p14 + 30) = {7.970422, -1.450164, 0};
Point(p14 + 31) = {8.14411619243705, -1.436493970589681, 0};
Point(p14 + 32) = {8.313533457398323, -1.395820483851031, 0};
Point(p14 + 33) = {8.474502179556811, -1.329145056015119, 0};
Point(p14 + 34) = {8.623058774748406, -1.238109457398324, 0};
Point(p14 + 35) = {8.755545286568422, -1.124955286568422, 0};
Point(p14 + 36) = {8.868699457398325, -0.9924687747484066, 0};
Point(p14 + 37) = {8.95973505601512, -0.8439121795568107, 0};
Point(p14 + 38) = {9.026410483851031, -0.6829434573983244, 0};
Point(p14 + 39) = {9.06708397058968, -0.5135261924370499, 0};
Spline(14) = {10, p14 + 1, p14 + 2, p14 + 3, p14 + 4, p14 + 5, p14 + 6, p14 + 7, p14 + 8, p14 + 9, p14 + 10, p14 + 11, p14 + 12, p14 + 13, p14 + 14, p14 + 15, p14 + 16, p14 + 17, p14 + 18, p14 + 19, p14 + 20, p14 + 21, p14 + 22, p14 + 23, p14 + 24, p14 + 25, p14 + 26, p14 + 27, p14 + 28, p14 + 29, p14 + 30, p14 + 31, p14 + 32, p14 + 33, p14 + 34, p14 + 35, p14 + 36, p14 + 37, p14 + 38, p14 + 39, 10};
Line(15) = {10, 8};
Curve Loop(1) = {-1, 4, 3, -2};
Plane Surface(1) = {1};
Curve Loop(2) = {-5, 1, 7, -6};
Plane Surface(2) = {2};
Curve Loop(3) = {-2, 7, 9, -8, -10};
Plane Surface(3) = {3};
Curve Loop(4) = {-11, 3, 8, -12};
Plane Surface(4) = {4};
Curve Loop(5) = {-4, 5, 13, -11, -14};
Plane Surface(5) = {5};
Curve Loop(6) = {-6, 13, 12, -9};
Plane Surface(6) = {6};
Curve Loop(7) = {-10, -15, 14, 15};
Surface(7) = {7};
Surface Loop(1) = {1, 2, 3, 4, 5, 6, 7};
Volume(1) = {1};
Physical Surface("INFLOW") = {1};
Physical Surface("OUTFLOW") = {6};
Physical Surface("OBSTACLE") = {7};
Physical Surface("WALL_Y") = {2, 4};
Physical Surface("WALL_Z") = {3, 5};
Physical Volume("FLUID") = {1};
