cl__1 = 1.197813;
cl__2 = 0.885608;
cl__3 = 3.885434;
cl__4 = 0.101472;
cl__5 = 0.081271;
Point(1) = {0.615377, -3.701354, 1, cl__1};
Point(2) = {0.615377, -3.701354, 0, cl__1};
Point(3) = {0.615377, 4.197895000000001, 1, cl__2};
Point(4) = {0.615377, 4.197895000000001, 0, cl__2};
Point(5) = {38.653075, -3.701354, 0, cl__1};
Point(6) = {38.653075, -3.701354, 1, cl__1};
Point(7) = {38.653075, 4.197895000000001, 1, cl__3};
Point(8) = {30.511713, -0.01370100000000025, 1, cl__4};
Point(9) = {13.469116, 0.6136689999999998, 1, cl__5};
Point(10) = {38.653075, 4.197895000000001, 0, cl__3};
Point(11) = {30.511713, -0.01370100000000025, 0, cl__4};
Point(12) = {13.469116, 0.6136689999999998, 0, cl__5};
Line(1) = {2, 1};
Line(2) = {1, 3};
Line(3) = {4, 3};
Line(4) = {2, 4};
Line(5) = {2, 5};
Line(6) = {5, 6};
Line(7) = {1, 6};
Line(8) = {3, 7};
Line(9) = {6, 7};
p10 = newp;
Point(p10 + 1) = {30.4992200514104, 0.1450369625379483, 1};
Point(p10 + 2) = {30.4620488234976, 0.2998662696171185, 1};
Point(p10 + 3) = {30.40111459525705, 0.4469745098482116, 1};
Point(p10 + 4) = {30.31791776961712, 0.5827393901324799, 1};
Point(p10 + 5) = {30.21450692853952, 0.7038179285395195, 1};
Point(p10 + 6) = {30.09342839013248, 0.8072287696171186, 1};
Point(p10 + 7) = {29.95766350984821, 0.8904255952570417, 1};
Point(p10 + 8) = {29.81055526961712, 0.9513598234975998, 1};
Point(p10 + 9) = {29.65572596253795, 0.9885310514104013, 1};
Point(p10 + 10) = {29.496988, 1.001024, 1};
Point(p10 + 11) = {29.33825003746205, 0.9885310514104011, 1};
Point(p10 + 12) = {29.18342073038288, 0.9513598234976, 1};
Point(p10 + 13) = {29.03631249015179, 0.8904255952570418, 1};
Point(p10 + 14) = {28.90054760986752, 0.8072287696171186, 1};
Point(p10 + 15) = {28.77946907146048, 0.7038179285395196, 1};
Point(p10 + 16) = {28.67605823038288, 0.58273939013248, 1};
Point(p10 + 17) = {28.59286140474296, 0.4469745098482117, 1};
Point(p10 + 18) = {28.5319271765024, 0.2998662696171186, 1};
Point(p10 + 19) = {28.4947559485896, 0.1450369625379484, 1};
Point(p10 + 20) = {28.482263, -0.01370099999999987, 1};
Point(p10 + 21) = {28.4947559485896, -0.1724389625379481, 1};
Point(p10 + 22) = {28.5319271765024, -0.3272682696171189, 1};
Point(p10 + 23) = {28.59286140474296, -0.4743765098482111, 1};
Point(p10 + 24) = {28.67605823038288, -0.6101413901324797, 1};
Point(p10 + 25) = {28.77946907146048, -0.7312199285395194, 1};
Point(p10 + 26) = {28.90054760986752, -0.8346307696171185, 1};
Point(p10 + 27) = {29.03631249015179, -0.9178275952570416, 1};
Point(p10 + 28) = {29.18342073038288, -0.9787618234975998, 1};
Point(p10 + 29) = {29.33825003746205, -1.015933051410401, 1};
Point(p10 + 30) = {29.496988, -1.028426, 1};
Point(p10 + 31) = {29.65572596253795, -1.015933051410401, 1};
Point(p10 + 32) = {29.81055526961712, -0.9787618234975999, 1};
Point(p10 + 33) = {29.95766350984821, -0.9178275952570417, 1};
Point(p10 + 34) = {30.09342839013248, -0.8346307696171187, 1};
Point(p10 + 35) = {30.21450692853952, -0.7312199285395197, 1};
Point(p10 + 36) = {30.31791776961712, -0.61014139013248, 1};
Point(p10 + 37) = {30.40111459525704, -0.4743765098482119, 1};
Point(p10 + 38) = {30.4620488234976, -0.3272682696171187, 1};
Point(p10 + 39) = {30.4992200514104, -0.1724389625379485, 1};
Spline(10) = {8, p10 + 1, p10 + 2, p10 + 3, p10 + 4, p10 + 5, p10 + 6, p10 + 7, p10 + 8, p10 + 9, p10 + 10, p10 + 11, p10 + 12, p10 + 13, p10 + 14, p10 + 15, p10 + 16, p10 + 17, p10 + 18, p10 + 19, p10 + 20, p10 + 21, p10 + 22, p10 + 23, p10 + 24, p10 + 25, p10 + 26, p10 + 27, p10 + 28, p10 + 29, p10 + 30, p10 + 31, p10 + 32, p10 + 33, p10 + 34, p10 + 35, p10 + 36, p10 + 37, p10 + 38, p10 + 39, 8};
p11 = newp;
Point(p11 + 1) = {13.45911012972678, 0.7408056362551713, 1};
Point(p11 + 2) = {13.42933889664082, 0.8648117465834354, 1};
Point(p11 + 3) = {13.38053536730575, 0.9826338889958257, 1};
Point(p11 + 4) = {13.31390124658344, 1.091370891316877, 1};
Point(p11 + 5) = {13.23107728767203, 1.188345287672025, 1};
Point(p11 + 6) = {13.13410289131688, 1.271169246583435, 1};
Point(p11 + 7) = {13.02536588899583, 1.337803367305749, 1};
Point(p11 + 8) = {12.90754374658344, 1.386606896640816, 1};
Point(p11 + 9) = {12.78353763625517, 1.416378129726777, 1};
Point(p11 + 10) = {12.656401, 1.426384, 1};
Point(p11 + 11) = {12.52926436374483, 1.416378129726777, 1};
Point(p11 + 12) = {12.40525825341657, 1.386606896640816, 1};
Point(p11 + 13) = {12.28743611100417, 1.337803367305749, 1};
Point(p11 + 14) = {12.17869910868312, 1.271169246583435, 1};
Point(p11 + 15) = {12.08172471232798, 1.188345287672025, 1};
Point(p11 + 16) = {11.99890075341657, 1.091370891316877, 1};
Point(p11 + 17) = {11.93226663269425, 0.9826338889958258, 1};
Point(p11 + 18) = {11.88346310335919, 0.8648117465834355, 1};
Point(p11 + 19) = {11.85369187027322, 0.7408056362551714, 1};
Point(p11 + 20) = {11.843686, 0.6136690000000001, 1};
Point(p11 + 21) = {11.85369187027322, 0.4865323637448289, 1};
Point(p11 + 22) = {11.88346310335919, 0.3625262534165644, 1};
Point(p11 + 23) = {11.93226663269425, 0.2447041110041747, 1};
Point(p11 + 24) = {11.99890075341657, 0.1359671086831228, 1};
Point(p11 + 25) = {12.08172471232798, 0.03899271232797508, 1};
Point(p11 + 26) = {12.17869910868312, -0.04383124658343529, 1};
Point(p11 + 27) = {12.28743611100417, -0.1104653673057493, 1};
Point(p11 + 28) = {12.40525825341657, -0.1592688966408157, 1};
Point(p11 + 29) = {12.52926436374483, -0.1890401297267772, 1};
Point(p11 + 30) = {12.656401, -0.1990459999999999, 1};
Point(p11 + 31) = {12.78353763625517, -0.1890401297267773, 1};
Point(p11 + 32) = {12.90754374658344, -0.1592688966408158, 1};
Point(p11 + 33) = {13.02536588899583, -0.1104653673057494, 1};
Point(p11 + 34) = {13.13410289131688, -0.04383124658343551, 1};
Point(p11 + 35) = {13.23107728767203, 0.03899271232797497, 1};
Point(p11 + 36) = {13.31390124658344, 0.1359671086831226, 1};
Point(p11 + 37) = {13.38053536730575, 0.2447041110041741, 1};
Point(p11 + 38) = {13.42933889664082, 0.3625262534165645, 1};
Point(p11 + 39) = {13.45911012972678, 0.4865323637448286, 1};
Spline(11) = {9, p11 + 1, p11 + 2, p11 + 3, p11 + 4, p11 + 5, p11 + 6, p11 + 7, p11 + 8, p11 + 9, p11 + 10, p11 + 11, p11 + 12, p11 + 13, p11 + 14, p11 + 15, p11 + 16, p11 + 17, p11 + 18, p11 + 19, p11 + 20, p11 + 21, p11 + 22, p11 + 23, p11 + 24, p11 + 25, p11 + 26, p11 + 27, p11 + 28, p11 + 29, p11 + 30, p11 + 31, p11 + 32, p11 + 33, p11 + 34, p11 + 35, p11 + 36, p11 + 37, p11 + 38, p11 + 39, 9};
Line(12) = {4, 10};
Line(13) = {10, 7};
Line(14) = {5, 10};
p15 = newp;
Point(p15 + 1) = {30.4992200514104, 0.1450369625379483, 0};
Point(p15 + 2) = {30.4620488234976, 0.2998662696171185, 0};
Point(p15 + 3) = {30.40111459525705, 0.4469745098482116, 0};
Point(p15 + 4) = {30.31791776961712, 0.5827393901324799, 0};
Point(p15 + 5) = {30.21450692853952, 0.7038179285395195, 0};
Point(p15 + 6) = {30.09342839013248, 0.8072287696171186, 0};
Point(p15 + 7) = {29.95766350984821, 0.8904255952570417, 0};
Point(p15 + 8) = {29.81055526961712, 0.9513598234975998, 0};
Point(p15 + 9) = {29.65572596253795, 0.9885310514104013, 0};
Point(p15 + 10) = {29.496988, 1.001024, 0};
Point(p15 + 11) = {29.33825003746205, 0.9885310514104011, 0};
Point(p15 + 12) = {29.18342073038288, 0.9513598234976, 0};
Point(p15 + 13) = {29.03631249015179, 0.8904255952570418, 0};
Point(p15 + 14) = {28.90054760986752, 0.8072287696171186, 0};
Point(p15 + 15) = {28.77946907146048, 0.7038179285395196, 0};
Point(p15 + 16) = {28.67605823038288, 0.58273939013248, 0};
Point(p15 + 17) = {28.59286140474296, 0.4469745098482117, 0};
Point(p15 + 18) = {28.5319271765024, 0.2998662696171186, 0};
Point(p15 + 19) = {28.4947559485896, 0.1450369625379484, 0};
Point(p15 + 20) = {28.482263, -0.01370099999999987, 0};
Point(p15 + 21) = {28.4947559485896, -0.1724389625379481, 0};
Point(p15 + 22) = {28.5319271765024, -0.3272682696171189, 0};
Point(p15 + 23) = {28.59286140474296, -0.4743765098482111, 0};
Point(p15 + 24) = {28.67605823038288, -0.6101413901324797, 0};
Point(p15 + 25) = {28.77946907146048, -0.7312199285395194, 0};
Point(p15 + 26) = {28.90054760986752, -0.8346307696171185, 0};
Point(p15 + 27) = {29.03631249015179, -0.9178275952570416, 0};
Point(p15 + 28) = {29.18342073038288, -0.9787618234975998, 0};
Point(p15 + 29) = {29.33825003746205, -1.015933051410401, 0};
Point(p15 + 30) = {29.496988, -1.028426, 0};
Point(p15 + 31) = {29.65572596253795, -1.015933051410401, 0};
Point(p15 + 32) = {29.81055526961712, -0.9787618234975999, 0};
Point(p15 + 33) = {29.95766350984821, -0.9178275952570417, 0};
Point(p15 + 34) = {30.09342839013248, -0.8346307696171187, 0};
Point(p15 + 35) = {30.21450692853952, -0.7312199285395197, 0};
Point(p15 + 36) = {30.31791776961712, -0.61014139013248, 0};
Point(p15 + 37) = {30.40111459525704, -0.4743765098482119, 0};
Point(p15 + 38) = {30.4620488234976, -0.3272682696171187, 0};
Point(p15 + 39) = {30.4992200514104, -0.1724389625379485, 0};
Spline(15) = {11, p15 + 1, p15 + 2, p15 + 3, p15 + 4, p15 + 5, p15 + 6, p15 + 7, p15 + 8, p15 + 9, p15 + 10, p15 + 11, p15 + 12, p15 + 13, p15 + 14, p15 + 15, p15 + 16, p15 + 17, p15 + 18, p15 + 19, p15 + 20, p15 + 21, p15 + 22, p15 + 23, p15 + 24, p15 + 25, p15 + 26, p15 + 27, p15 + 28, p15 + 29, p15 + 30, p15 + 31, p15 + 32, p15 + 33, p15 + 34, p15 + 35, p15 + 36, p15 + 37, p15 + 38, p15 + 39, 11};
p16 = newp;
Point(p16 + 1) = {13.45911012972678, 0.7408056362551713, 0};
Point(p16 + 2) = {13.42933889664082, 0.8648117465834354, 0};
Point(p16 + 3) = {13.38053536730575, 0.9826338889958257, 0};
Point(p16 + 4) = {13.31390124658344, 1.091370891316877, 0};
Point(p16 + 5) = {13.23107728767203, 1.188345287672025, 0};
Point(p16 + 6) = {13.13410289131688, 1.271169246583435, 0};
Point(p16 + 7) = {13.02536588899583, 1.337803367305749, 0};
Point(p16 + 8) = {12.90754374658344, 1.386606896640816, 0};
Point(p16 + 9) = {12.78353763625517, 1.416378129726777, 0};
Point(p16 + 10) = {12.656401, 1.426384, 0};
Point(p16 + 11) = {12.52926436374483, 1.416378129726777, 0};
Point(p16 + 12) = {12.40525825341657, 1.386606896640816, 0};
Point(p16 + 13) = {12.28743611100417, 1.337803367305749, 0};
Point(p16 + 14) = {12.17869910868312, 1.271169246583435, 0};
Point(p16 + 15) = {12.08172471232798, 1.188345287672025, 0};
Point(p16 + 16) = {11.99890075341657, 1.091370891316877, 0};
Point(p16 + 17) = {11.93226663269425, 0.9826338889958258, 0};
Point(p16 + 18) = {11.88346310335919, 0.8648117465834355, 0};
Point(p16 + 19) = {11.85369187027322, 0.7408056362551714, 0};
Point(p16 + 20) = {11.843686, 0.6136690000000001, 0};
Point(p16 + 21) = {11.85369187027322, 0.4865323637448289, 0};
Point(p16 + 22) = {11.88346310335919, 0.3625262534165644, 0};
Point(p16 + 23) = {11.93226663269425, 0.2447041110041747, 0};
Point(p16 + 24) = {11.99890075341657, 0.1359671086831228, 0};
Point(p16 + 25) = {12.08172471232798, 0.03899271232797508, 0};
Point(p16 + 26) = {12.17869910868312, -0.04383124658343529, 0};
Point(p16 + 27) = {12.28743611100417, -0.1104653673057493, 0};
Point(p16 + 28) = {12.40525825341657, -0.1592688966408157, 0};
Point(p16 + 29) = {12.52926436374483, -0.1890401297267772, 0};
Point(p16 + 30) = {12.656401, -0.1990459999999999, 0};
Point(p16 + 31) = {12.78353763625517, -0.1890401297267773, 0};
Point(p16 + 32) = {12.90754374658344, -0.1592688966408158, 0};
Point(p16 + 33) = {13.02536588899583, -0.1104653673057494, 0};
Point(p16 + 34) = {13.13410289131688, -0.04383124658343551, 0};
Point(p16 + 35) = {13.23107728767203, 0.03899271232797497, 0};
Point(p16 + 36) = {13.31390124658344, 0.1359671086831226, 0};
Point(p16 + 37) = {13.38053536730575, 0.2447041110041741, 0};
Point(p16 + 38) = {13.42933889664082, 0.3625262534165645, 0};
Point(p16 + 39) = {13.45911012972678, 0.4865323637448286, 0};
Spline(16) = {12, p16 + 1, p16 + 2, p16 + 3, p16 + 4, p16 + 5, p16 + 6, p16 + 7, p16 + 8, p16 + 9, p16 + 10, p16 + 11, p16 + 12, p16 + 13, p16 + 14, p16 + 15, p16 + 16, p16 + 17, p16 + 18, p16 + 19, p16 + 20, p16 + 21, p16 + 22, p16 + 23, p16 + 24, p16 + 25, p16 + 26, p16 + 27, p16 + 28, p16 + 29, p16 + 30, p16 + 31, p16 + 32, p16 + 33, p16 + 34, p16 + 35, p16 + 36, p16 + 37, p16 + 38, p16 + 39, 12};
Line(17) = {11, 8};
Line(18) = {12, 9};
Curve Loop(1) = {-1, 4, 3, -2};
Plane Surface(1) = {1};
Curve Loop(2) = {-5, 1, 7, -6};
Plane Surface(2) = {2};
Curve Loop(3) = {-2, 7, 9, -8, -10, -11};
Plane Surface(3) = {3};
Curve Loop(4) = {-12, 3, 8, -13};
Plane Surface(4) = {4};
Curve Loop(5) = {-4, 5, 14, -12, -15, -16};
Plane Surface(5) = {5};
Curve Loop(6) = {-6, 14, 13, -9};
Plane Surface(6) = {6};
Curve Loop(7) = {-10, -17, 15, 17};
Surface(7) = {7};
Curve Loop(8) = {-11, -18, 16, 18};
Surface(8) = {8};
Surface Loop(1) = {1, 2, 3, 4, 5, 6, 7, 8};
Volume(1) = {1};
Physical Surface("INFLOW") = {1};
Physical Surface("OUTFLOW") = {6};
Physical Surface("OBSTACLE") = {7, 8};
Physical Surface("WALL_Y") = {2, 4};
Physical Surface("WALL_Z") = {3, 5};
Physical Volume("FLUID") = {1};
