cl__1 = 1;
cl__2 = 0.149502;
cl__3 = 0.09925;
Point(1) = {0.987189, -4.433702, 1, cl__1};
Point(2) = {0.987189, -4.433702, 0, cl__1};
Point(3) = {0.987189, 5.401026999999999, 1, cl__1};
Point(4) = {0.987189, 5.401026999999999, 0, cl__1};
Point(5) = {36.886543, -4.433702, 0, cl__1};
Point(6) = {36.886543, -4.433702, 1, cl__1};
Point(7) = {36.886543, 5.401026999999999, 1, cl__1};
Point(8) = {13.169193, 0.2497159999999996, 1, cl__2};
Point(9) = {20.162654, 1.296784, 1, cl__3};
Point(10) = {36.886543, 5.401026999999999, 0, cl__1};
Point(11) = {13.169193, 0.2497159999999996, 0, cl__2};
Point(12) = {20.162654, 1.296784, 0, cl__3};
Line(1) = {2, 1};
Line(2) = {1, 3};
Line(3) = {4, 3};
Line(4) = {2, 4};
Line(5) = {2, 5};
Line(6) = {5, 6};
Line(7) = {1, 6};
Line(8) = {3, 7};
Line(9) = {6, 7};
p10 = newp;
Point(p10 + 1) = {13.1507867737099, 0.4835892796623061, 1};
Point(p10 + 2) = {13.09602131721764, 0.7117038229984114, 1};
Point(p10 + 3) = {13.00624513781819, 0.9284426928826162, 1};
Point(p10 + 4) = {12.88366882299841, 1.128469059023302, 1};
Point(p10 + 5) = {12.73131060843664, 1.306857608436637, 1};
Point(p10 + 6) = {12.5529220590233, 1.459215822998411, 1};
Point(p10 + 7) = {12.35289569288262, 1.58179213781819, 1};
Point(p10 + 8) = {12.13615682299841, 1.671568317217646, 1};
Point(p10 + 9) = {11.90804227966231, 1.726333773709905, 1};
Point(p10 + 10) = {11.674169, 1.74474, 1};
Point(p10 + 11) = {11.44029572033769, 1.726333773709905, 1};
Point(p10 + 12) = {11.21218117700159, 1.671568317217646, 1};
Point(p10 + 13) = {10.99544230711738, 1.581792137818191, 1};
Point(p10 + 14) = {10.7954159409767, 1.459215822998411, 1};
Point(p10 + 15) = {10.61702739156336, 1.306857608436637, 1};
Point(p10 + 16) = {10.46466917700159, 1.128469059023302, 1};
Point(p10 + 17) = {10.34209286218181, 0.9284426928826162, 1};
Point(p10 + 18) = {10.25231668278235, 0.7117038229984115, 1};
Point(p10 + 19) = {10.19755122629009, 0.4835892796623062, 1};
Point(p10 + 20) = {10.179145, 0.2497160000000002, 1};
Point(p10 + 21) = {10.19755122629009, 0.0158427203376941, 1};
Point(p10 + 22) = {10.25231668278235, -0.2122718229984119, 1};
Point(p10 + 23) = {10.34209286218181, -0.4290106928826153, 1};
Point(p10 + 24) = {10.46466917700159, -0.6290370590233021, 1};
Point(p10 + 25) = {10.61702739156336, -0.8074256084366369, 1};
Point(p10 + 26) = {10.7954159409767, -0.9597838229984113, 1};
Point(p10 + 27) = {10.99544230711738, -1.08236013781819, 1};
Point(p10 + 28) = {11.21218117700159, -1.172136317217646, 1};
Point(p10 + 29) = {11.44029572033769, -1.226901773709905, 1};
Point(p10 + 30) = {11.674169, -1.245308, 1};
Point(p10 + 31) = {11.90804227966231, -1.226901773709905, 1};
Point(p10 + 32) = {12.13615682299841, -1.172136317217646, 1};
Point(p10 + 33) = {12.35289569288262, -1.08236013781819, 1};
Point(p10 + 34) = {12.5529220590233, -0.9597838229984115, 1};
Point(p10 + 35) = {12.73131060843664, -0.8074256084366371, 1};
Point(p10 + 36) = {12.88366882299841, -0.6290370590233025, 1};
Point(p10 + 37) = {13.00624513781819, -0.4290106928826165, 1};
Point(p10 + 38) = {13.09602131721764, -0.2122718229984117, 1};
Point(p10 + 39) = {13.1507867737099, 0.01584272033769357, 1};
Spline(10) = {8, p10 + 1, p10 + 2, p10 + 3, p10 + 4, p10 + 5, p10 + 6, p10 + 7, p10 + 8, p10 + 9, p10 + 10, p10 + 11, p10 + 12, p10 + 13, p10 + 14, p10 + 15, p10 + 16, p10 + 17, p10 + 18, p10 + 19, p10 + 20, p10 + 21, p10 + 22, p10 + 23, p10 + 24, p10 + 25, p10 + 26, p10 + 27, p10 + 28, p10 + 29, p10 + 30, p10 + 31, p10 + 32, p10 + 33, p10 + 34, p10 + 35, p10 + 36, p10 + 37, p10 + 38, p10 + 39, 8};
p11 = newp;
Point(p11 + 1) = {20.15043462879404, 1.452045832290289, 1};
Point(p11 + 2) = {20.11407739664901, 1.603484602985113, 1};
Point(p11 + 3) = {20.05447753928305, 1.747371386953499, 1};
Point(p11 + 4) = {19.97310260298511, 1.880163214041289, 1};
Point(p11 + 5) = {19.87195630875477, 1.998590308754773, 1};
Point(p11 + 6) = {19.75352921404129, 2.099736602985113, 1};
Point(p11 + 7) = {19.6207373869535, 2.181111539283052, 1};
Point(p11 + 8) = {19.47685060298511, 2.240711396649005, 1};
Point(p11 + 9) = {19.32541183229029, 2.277068628794037, 1};
Point(p11 + 10) = {19.17015, 2.289288, 1};
Point(p11 + 11) = {19.01488816770971, 2.277068628794036, 1};
Point(p11 + 12) = {18.86344939701489, 2.240711396649005, 1};
Point(p11 + 13) = {18.7195626130465, 2.181111539283052, 1};
Point(p11 + 14) = {18.58677078595871, 2.099736602985113, 1};
Point(p11 + 15) = {18.46834369124523, 1.998590308754773, 1};
Point(p11 + 16) = {18.36719739701489, 1.880163214041289, 1};
Point(p11 + 17) = {18.28582246071695, 1.747371386953499, 1};
Point(p11 + 18) = {18.22622260335099, 1.603484602985113, 1};
Point(p11 + 19) = {18.18986537120596, 1.452045832290289, 1};
Point(p11 + 20) = {18.177646, 1.296784, 1};
Point(p11 + 21) = {18.18986537120596, 1.141522167709711, 1};
Point(p11 + 22) = {18.22622260335099, 0.9900833970148868, 1};
Point(p11 + 23) = {18.28582246071695, 0.8461966130465013, 1};
Point(p11 + 24) = {18.36719739701489, 0.7134047859587113, 1};
Point(p11 + 25) = {18.46834369124523, 0.5949776912452268, 1};
Point(p11 + 26) = {18.58677078595871, 0.4938313970148872, 1};
Point(p11 + 27) = {18.7195626130465, 0.4124564607169481, 1};
Point(p11 + 28) = {18.86344939701489, 0.3528566033509948, 1};
Point(p11 + 29) = {19.01488816770971, 0.3164993712059634, 1};
Point(p11 + 30) = {19.17015, 0.3042799999999999, 1};
Point(p11 + 31) = {19.32541183229029, 0.3164993712059633, 1};
Point(p11 + 32) = {19.47685060298511, 0.3528566033509947, 1};
Point(p11 + 33) = {19.6207373869535, 0.412456460716948, 1};
Point(p11 + 34) = {19.75352921404129, 0.493831397014887, 1};
Point(p11 + 35) = {19.87195630875477, 0.5949776912452266, 1};
Point(p11 + 36) = {19.97310260298511, 0.7134047859587109, 1};
Point(p11 + 37) = {20.05447753928305, 0.8461966130465006, 1};
Point(p11 + 38) = {20.11407739664901, 0.9900833970148869, 1};
Point(p11 + 39) = {20.15043462879404, 1.14152216770971, 1};
Spline(11) = {9, p11 + 1, p11 + 2, p11 + 3, p11 + 4, p11 + 5, p11 + 6, p11 + 7, p11 + 8, p11 + 9, p11 + 10, p11 + 11, p11 + 12, p11 + 13, p11 + 14, p11 + 15, p11 + 16, p11 + 17, p11 + 18, p11 + 19, p11 + 20, p11 + 21, p11 + 22, p11 + 23, p11 + 24, p11 + 25, p11 + 26, p11 + 27, p11 + 28, p11 + 29, p11 + 30, p11 + 31, p11 + 32, p11 + 33, p11 + 34, p11 + 35, p11 + 36, p11 + 37, p11 + 38, p11 + 39, 9};
Line(12) = {4, 10};
Line(13) = {10, 7};
Line(14) = {5, 10};
p15 = newp;
Point(p15 + 1) = {13.1507867737099, 0.4835892796623061, 0};
Point(p15 + 2) = {13.09602131721764, 0.7117038229984114, 0};
Point(p15 + 3) = {13.00624513781819, 0.9284426928826162, 0};
Point(p15 + 4) = {12.88366882299841, 1.128469059023302, 0};
Point(p15 + 5) = {12.73131060843664, 1.306857608436637, 0};
Point(p15 + 6) = {12.5529220590233, 1.459215822998411, 0};
Point(p15 + 7) = {12.35289569288262, 1.58179213781819, 0};
Point(p15 + 8) = {12.13615682299841, 1.671568317217646, 0};
Point(p15 + 9) = {11.90804227966231, 1.726333773709905, 0};
Point(p15 + 10) = {11.674169, 1.74474, 0};
Point(p15 + 11) = {11.44029572033769, 1.726333773709905, 0};
Point(p15 + 12) = {11.21218117700159, 1.671568317217646, 0};
Point(p15 + 13) = {10.99544230711738, 1.581792137818191, 0};
Point(p15 + 14) = {10.7954159409767, 1.459215822998411, 0};
Point(p15 + 15) = {10.61702739156336, 1.306857608436637, 0};
Point(p15 + 16) = {10.46466917700159, 1.128469059023302, 0};
Point(p15 + 17) = {10.34209286218181, 0.9284426928826162, 0};
Point(p15 + 18) = {10.25231668278235, 0.7117038229984115, 0};
Point(p15 + 19) = {10.19755122629009, 0.4835892796623062, 0};
Point(p15 + 20) = {10.179145, 0.2497160000000002, 0};
Point(p15 + 21) = {10.19755122629009, 0.0158427203376941, 0};
Point(p15 + 22) = {10.25231668278235, -0.2122718229984119, 0};
Point(p15 + 23) = {10.34209286218181, -0.4290106928826153, 0};
Point(p15 + 24) = {10.46466917700159, -0.6290370590233021, 0};
Point(p15 + 25) = {10.61702739156336, -0.8074256084366369, 0};
Point(p15 + 26) = {10.7954159409767, -0.9597838229984113, 0};
Point(p15 + 27) = {10.99544230711738, -1.08236013781819, 0};
Point(p15 + 28) = {11.21218117700159, -1.172136317217646, 0};
Point(p15 + 29) = {11.44029572033769, -1.226901773709905, 0};
Point(p15 + 30) = {11.674169, -1.245308, 0};
Point(p15 + 31) = {11.90804227966231, -1.226901773709905, 0};
Point(p15 + 32) = {12.13615682299841, -1.172136317217646, 0};
Point(p15 + 33) = {12.35289569288262, -1.08236013781819, 0};
Point(p15 + 34) = {12.5529220590233, -0.9597838229984115, 0};
Point(p15 + 35) = {12.73131060843664, -0.8074256084366371, 0};
Point(p15 + 36) = {12.88366882299841, -0.6290370590233025, 0};
Point(p15 + 37) = {13.00624513781819, -0.4290106928826165, 0};
Point(p15 + 38) = {13.09602131721764, -0.2122718229984117, 0};
Point(p15 + 39) = {13.1507867737099, 0.01584272033769357, 0};
Spline(15) = {11, p15 + 1, p15 + 2, p15 + 3, p15 + 4, p15 + 5, p15 + 6, p15 + 7, p15 + 8, p15 + 9, p15 + 10, p15 + 11, p15 + 12, p15 + 13, p15 + 14, p15 + 15, p15 + 16, p15 + 17, p15 + 18, p15 + 19, p15 + 20, p15 + 21, p15 + 22, p15 + 23, p15 + 24, p15 + 25, p15 + 26, p15 + 27, p15 + 28, p15 + 29, p15 + 30, p15 + 31, p15 + 32, p15 + 33, p15 + 34, p15 + 35, p15 + 36, p15 + 37, p15 + 38, p15 + 39, 11};
p16 = newp;
Point(p16 + 1) = {20.15043462879404, 1.452045832290289, 0};
Point(p16 + 2) = {20.11407739664901, 1.603484602985113, 0};
Point(p16 + 3) = {20.05447753928305, 1.747371386953499, 0};
Point(p16 + 4) = {19.97310260298511, 1.880163214041289, 0};
Point(p16 + 5) = {19.87195630875477, 1.998590308754773, 0};
Point(p16 + 6) = {19.75352921404129, 2.099736602985113, 0};
Point(p16 + 7) = {19.6207373869535, 2.181111539283052, 0};
Point(p16 + 8) = {19.47685060298511, 2.240711396649005, 0};
Point(p16 + 9) = {19.32541183229029, 2.277068628794037, 0};
Point(p16 + 10) = {19.17015, 2.289288, 0};
Point(p16 + 11) = {19.01488816770971, 2.277068628794036, 0};
Point(p16 + 12) = {18.86344939701489, 2.240711396649005, 0};
Point(p16 + 13) = {18.7195626130465, 2.181111539283052, 0};
Point(p16 + 14) = {18.58677078595871, 2.099736602985113, 0};
Point(p16 + 15) = {18.46834369124523, 1.998590308754773, 0};
Point(p16 + 16) = {18.36719739701489, 1.880163214041289, 0};
Point(p16 + 17) = {18.28582246071695, 1.747371386953499, 0};
Point(p16 + 18) = {18.22622260335099, 1.603484602985113, 0};
Point(p16 + 19) = {18.18986537120596, 1.452045832290289, 0};
Point(p16 + 20) = {18.177646, 1.296784, 0};
Point(p16 + 21) = {18.18986537120596, 1.141522167709711, 0};
Point(p16 + 22) = {18.22622260335099, 0.9900833970148868, 0};
Point(p16 + 23) = {18.28582246071695, 0.8461966130465013, 0};
Point(p16 + 24) = {18.36719739701489, 0.7134047859587113, 0};
Point(p16 + 25) = {18.46834369124523, 0.5949776912452268, 0};
Point(p16 + 26) = {18.58677078595871, 0.4938313970148872, 0};
Point(p16 + 27) = {18.7195626130465, 0.4124564607169481, 0};
Point(p16 + 28) = {18.86344939701489, 0.3528566033509948, 0};
Point(p16 + 29) = {19.01488816770971, 0.3164993712059634, 0};
Point(p16 + 30) = {19.17015, 0.3042799999999999, 0};
Point(p16 + 31) = {19.32541183229029, 0.3164993712059633, 0};
Point(p16 + 32) = {19.47685060298511, 0.3528566033509947, 0};
Point(p16 + 33) = {19.6207373869535, 0.412456460716948, 0};
Point(p16 + 34) = {19.75352921404129, 0.493831397014887, 0};
Point(p16 + 35) = {19.87195630875477, 0.5949776912452266, 0};
Point(p16 + 36) = {19.97310260298511, 0.7134047859587109, 0};
Point(p16 + 37) = {20.05447753928305, 0.8461966130465006, 0};
Point(p16 + 38) = {20.11407739664901, 0.9900833970148869, 0};
Point(p16 + 39) = {20.15043462879404, 1.14152216770971, 0};
Spline(16) = {12, p16 + 1, p16 + 2, p16 + 3, p16 + 4, p16 + 5, p16 + 6, p16 + 7, p16 + 8, p16 + 9, p16 + 10, p16 + 11, p16 + 12, p16 + 13, p16 + 14, p16 + 15, p16 + 16, p16 + 17, p16 + 18, p16 + 19, p16 + 20, p16 + 21, p16 + 22, p16 + 23, p16 + 24, p16 + 25, p16 + 26, p16 + 27, p16 + 28, p16 + 29, p16 + 30, p16 + 31, p16 + 32, p16 + 33, p16 + 34, p16 + 35, p16 + 36, p16 + 37, p16 + 38, p16 + 39, 12};
Line(17) = {11, 8};
Line(18) = {12, 9};
Curve Loop(1) = {-1, 4, 3, -2};
Plane Surface(1) = {1};
Curve Loop(2) = {-5, 1, 7, -6};
Plane Surface(2) = {2};
Curve Loop(3) = {-2, 7, 9, -8, -10, -11};
Plane Surface(3) = {3};
Curve Loop(4) = {-12, 3, 8, -13};
Plane Surface(4) = {4};
Curve Loop(5) = {-4, 5, 14, -12, -15, -16};
Plane Surface(5) = {5};
Curve Loop(6) = {-6, 14, 13, -9};
Plane Surface(6) = {6};
Curve Loop(7) = {-10, -17, 15, 17};
Surface(7) = {7};
Curve Loop(8) = {-11, -18, 16, 18};
Surface(8) = {8};
Surface Loop(1) = {1, 2, 3, 4, 5, 6, 7, 8};
Volume(1) = {1};
Physical Surface("INFLOW") = {1};
Physical Surface("OUTFLOW") = {6};
Physical Surface("OBSTACLE") = {7, 8};
Physical Surface("WALL_Y") = {2, 4};
Physical Surface("WALL_Z") = {3, 5};
Physical Volume("FLUID") = {1};
