cl__1 = 1.90264;
cl__2 = 1.918114;
cl__3 = 1.62152;
cl__4 = 0.100105;
cl__5 = 0.058243;
Point(1) = {0.682942, -3.950233, 1, cl__1};
Point(2) = {0.682942, -3.950233, 0, cl__1};
Point(3) = {0.682942, 5.475684999999999, 1, cl__2};
Point(4) = {0.682942, 5.475684999999999, 0, cl__2};
Point(5) = {39.54452999999999, -3.950233, 0, cl__3};
Point(6) = {39.54452999999999, -3.950233, 1, cl__3};
Point(7) = {39.54452999999999, 5.475684999999999, 1, cl__2};
Point(8) = {21.034727, 1.211897, 1, cl__4};
Point(9) = {17.010491, 1.90225, 1, cl__5};
Point(10) = {39.54452999999999, 5.475684999999999, 0, cl__2};
Point(11) = {21.034727, 1.211897, 0, cl__4};
Point(12) = {17.010491, 1.90225, 0, cl__5};
Line(1) = {2, 1};
Line(2) = {1, 3};
Line(3) = {4, 3};
Line(4) = {2, 4};
Line(5) = {2, 5};
Line(6) = {5, 6};
Line(7) = {1, 6};
Line(8) = {3, 7};
Line(9) = {6, 7};
p10 = newp;
Point(p10 + 1) = {21.02240242566442, 1.368495564794058, 1};
Point(p10 + 2) = {20.98573217458075, 1.521238153202047, 1};
Point(p10 + 3) = {20.92561919003224, 1.666363735773774, 1};
Point(p10 + 4) = {20.84354365320204, 1.800298839022128, 1};
Point(p10 + 5) = {20.74152653620001, 1.919745536200012, 1};
Point(p10 + 6) = {20.62207983902213, 2.021762653202047, 1};
Point(p10 + 7) = {20.48814473577377, 2.103838190032242, 1};
Point(p10 + 8) = {20.34301915320205, 2.163951174580747, 1};
Point(p10 + 9) = {20.19027656479406, 2.200621425664422, 1};
Point(p10 + 10) = {20.033678, 2.212946, 1};
Point(p10 + 11) = {19.87707943520594, 2.200621425664422, 1};
Point(p10 + 12) = {19.72433684679795, 2.163951174580747, 1};
Point(p10 + 13) = {19.57921126422622, 2.103838190032242, 1};
Point(p10 + 14) = {19.44527616097787, 2.021762653202047, 1};
Point(p10 + 15) = {19.32582946379999, 1.919745536200012, 1};
Point(p10 + 16) = {19.22381234679795, 1.800298839022128, 1};
Point(p10 + 17) = {19.14173680996776, 1.666363735773774, 1};
Point(p10 + 18) = {19.08162382541925, 1.521238153202047, 1};
Point(p10 + 19) = {19.04495357433558, 1.368495564794058, 1};
Point(p10 + 20) = {19.032629, 1.211897, 1};
Point(p10 + 21) = {19.04495357433558, 1.055298435205942, 1};
Point(p10 + 22) = {19.08162382541925, 0.9025558467979529, 1};
Point(p10 + 23) = {19.14173680996776, 0.7574302642262269, 1};
Point(p10 + 24) = {19.22381234679795, 0.6234951609778722, 1};
Point(p10 + 25) = {19.32582946379999, 0.5040484637999878, 1};
Point(p10 + 26) = {19.44527616097787, 0.4020313467979533, 1};
Point(p10 + 27) = {19.57921126422622, 0.3199558099677585, 1};
Point(p10 + 28) = {19.72433684679795, 0.2598428254192527, 1};
Point(p10 + 29) = {19.87707943520594, 0.2231725743355779, 1};
Point(p10 + 30) = {20.033678, 0.2108479999999999, 1};
Point(p10 + 31) = {20.19027656479406, 0.2231725743355778, 1};
Point(p10 + 32) = {20.34301915320205, 0.2598428254192526, 1};
Point(p10 + 33) = {20.48814473577377, 0.3199558099677584, 1};
Point(p10 + 34) = {20.62207983902213, 0.402031346797953, 1};
Point(p10 + 35) = {20.74152653620001, 0.5040484637999876, 1};
Point(p10 + 36) = {20.84354365320204, 0.6234951609778718, 1};
Point(p10 + 37) = {20.92561919003224, 0.7574302642262263, 1};
Point(p10 + 38) = {20.98573217458075, 0.9025558467979531, 1};
Point(p10 + 39) = {21.02240242566442, 1.055298435205942, 1};
Spline(10) = {8, p10 + 1, p10 + 2, p10 + 3, p10 + 4, p10 + 5, p10 + 6, p10 + 7, p10 + 8, p10 + 9, p10 + 10, p10 + 11, p10 + 12, p10 + 13, p10 + 14, p10 + 15, p10 + 16, p10 + 17, p10 + 18, p10 + 19, p10 + 20, p10 + 21, p10 + 22, p10 + 23, p10 + 24, p10 + 25, p10 + 26, p10 + 27, p10 + 28, p10 + 29, p10 + 30, p10 + 31, p10 + 32, p10 + 33, p10 + 34, p10 + 35, p10 + 36, p10 + 37, p10 + 38, p10 + 39, 8};
p11 = newp;
Point(p11 + 1) = {17.00332034483615, 1.993361812604452, 1};
Point(p11 + 2) = {16.98198494467276, 2.082230149999812, 1};
Point(p11 + 3) = {16.94701014786999, 2.166666778782305, 1};
Point(p11 + 4) = {16.89925714999981, 2.244592588922201, 1};
Point(p11 + 5) = {16.83990178835292, 2.314088788352918, 1};
Point(p11 + 6) = {16.7704055889222, 2.373444149999812, 1};
Point(p11 + 7) = {16.69247977878231, 2.421197147869983, 1};
Point(p11 + 8) = {16.60804314999981, 2.456171944672754, 1};
Point(p11 + 9) = {16.51917481260445, 2.477507344836145, 1};
Point(p11 + 10) = {16.428063, 2.484678, 1};
Point(p11 + 11) = {16.33695118739555, 2.477507344836145, 1};
Point(p11 + 12) = {16.24808285000019, 2.456171944672754, 1};
Point(p11 + 13) = {16.1636462212177, 2.421197147869983, 1};
Point(p11 + 14) = {16.0857204110778, 2.373444149999812, 1};
Point(p11 + 15) = {16.01622421164708, 2.314088788352918, 1};
Point(p11 + 16) = {15.95686885000019, 2.244592588922201, 1};
Point(p11 + 17) = {15.90911585213002, 2.166666778782305, 1};
Point(p11 + 18) = {15.87414105532725, 2.082230149999812, 1};
Point(p11 + 19) = {15.85280565516386, 1.993361812604452, 1};
Point(p11 + 20) = {15.845635, 1.90225, 1};
Point(p11 + 21) = {15.85280565516386, 1.811138187395549, 1};
Point(p11 + 22) = {15.87414105532725, 1.722269850000188, 1};
Point(p11 + 23) = {15.90911585213002, 1.637833221217696, 1};
Point(p11 + 24) = {15.95686885000019, 1.5599074110778, 1};
Point(p11 + 25) = {16.01622421164708, 1.490411211647082, 1};
Point(p11 + 26) = {16.0857204110778, 1.431055850000188, 1};
Point(p11 + 27) = {16.1636462212177, 1.383302852130017, 1};
Point(p11 + 28) = {16.24808285000019, 1.348328055327246, 1};
Point(p11 + 29) = {16.33695118739555, 1.326992655163855, 1};
Point(p11 + 30) = {16.428063, 1.319822, 1};
Point(p11 + 31) = {16.51917481260445, 1.326992655163855, 1};
Point(p11 + 32) = {16.60804314999981, 1.348328055327246, 1};
Point(p11 + 33) = {16.69247977878231, 1.383302852130017, 1};
Point(p11 + 34) = {16.7704055889222, 1.431055850000188, 1};
Point(p11 + 35) = {16.83990178835292, 1.490411211647082, 1};
Point(p11 + 36) = {16.89925714999981, 1.559907411077799, 1};
Point(p11 + 37) = {16.94701014786999, 1.637833221217695, 1};
Point(p11 + 38) = {16.98198494467276, 1.722269850000188, 1};
Point(p11 + 39) = {17.00332034483615, 1.811138187395548, 1};
Spline(11) = {9, p11 + 1, p11 + 2, p11 + 3, p11 + 4, p11 + 5, p11 + 6, p11 + 7, p11 + 8, p11 + 9, p11 + 10, p11 + 11, p11 + 12, p11 + 13, p11 + 14, p11 + 15, p11 + 16, p11 + 17, p11 + 18, p11 + 19, p11 + 20, p11 + 21, p11 + 22, p11 + 23, p11 + 24, p11 + 25, p11 + 26, p11 + 27, p11 + 28, p11 + 29, p11 + 30, p11 + 31, p11 + 32, p11 + 33, p11 + 34, p11 + 35, p11 + 36, p11 + 37, p11 + 38, p11 + 39, 9};
Line(12) = {4, 10};
Line(13) = {10, 7};
Line(14) = {5, 10};
p15 = newp;
Point(p15 + 1) = {21.02240242566442, 1.368495564794058, 0};
Point(p15 + 2) = {20.98573217458075, 1.521238153202047, 0};
Point(p15 + 3) = {20.92561919003224, 1.666363735773774, 0};
Point(p15 + 4) = {20.84354365320204, 1.800298839022128, 0};
Point(p15 + 5) = {20.74152653620001, 1.919745536200012, 0};
Point(p15 + 6) = {20.62207983902213, 2.021762653202047, 0};
Point(p15 + 7) = {20.48814473577377, 2.103838190032242, 0};
Point(p15 + 8) = {20.34301915320205, 2.163951174580747, 0};
Point(p15 + 9) = {20.19027656479406, 2.200621425664422, 0};
Point(p15 + 10) = {20.033678, 2.212946, 0};
Point(p15 + 11) = {19.87707943520594, 2.200621425664422, 0};
Point(p15 + 12) = {19.72433684679795, 2.163951174580747, 0};
Point(p15 + 13) = {19.57921126422622, 2.103838190032242, 0};
Point(p15 + 14) = {19.44527616097787, 2.021762653202047, 0};
Point(p15 + 15) = {19.32582946379999, 1.919745536200012, 0};
Point(p15 + 16) = {19.22381234679795, 1.800298839022128, 0};
Point(p15 + 17) = {19.14173680996776, 1.666363735773774, 0};
Point(p15 + 18) = {19.08162382541925, 1.521238153202047, 0};
Point(p15 + 19) = {19.04495357433558, 1.368495564794058, 0};
Point(p15 + 20) = {19.032629, 1.211897, 0};
Point(p15 + 21) = {19.04495357433558, 1.055298435205942, 0};
Point(p15 + 22) = {19.08162382541925, 0.9025558467979529, 0};
Point(p15 + 23) = {19.14173680996776, 0.7574302642262269, 0};
Point(p15 + 24) = {19.22381234679795, 0.6234951609778722, 0};
Point(p15 + 25) = {19.32582946379999, 0.5040484637999878, 0};
Point(p15 + 26) = {19.44527616097787, 0.4020313467979533, 0};
Point(p15 + 27) = {19.57921126422622, 0.3199558099677585, 0};
Point(p15 + 28) = {19.72433684679795, 0.2598428254192527, 0};
Point(p15 + 29) = {19.87707943520594, 0.2231725743355779, 0};
Point(p15 + 30) = {20.033678, 0.2108479999999999, 0};
Point(p15 + 31) = {20.19027656479406, 0.2231725743355778, 0};
Point(p15 + 32) = {20.34301915320205, 0.2598428254192526, 0};
Point(p15 + 33) = {20.48814473577377, 0.3199558099677584, 0};
Point(p15 + 34) = {20.62207983902213, 0.402031346797953, 0};
Point(p15 + 35) = {20.74152653620001, 0.5040484637999876, 0};
Point(p15 + 36) = {20.84354365320204, 0.6234951609778718, 0};
Point(p15 + 37) = {20.92561919003224, 0.7574302642262263, 0};
Point(p15 + 38) = {20.98573217458075, 0.9025558467979531, 0};
Point(p15 + 39) = {21.02240242566442, 1.055298435205942, 0};
Spline(15) = {11, p15 + 1, p15 + 2, p15 + 3, p15 + 4, p15 + 5, p15 + 6, p15 + 7, p15 + 8, p15 + 9, p15 + 10, p15 + 11, p15 + 12, p15 + 13, p15 + 14, p15 + 15, p15 + 16, p15 + 17, p15 + 18, p15 + 19, p15 + 20, p15 + 21, p15 + 22, p15 + 23, p15 + 24, p15 + 25, p15 + 26, p15 + 27, p15 + 28, p15 + 29, p15 + 30, p15 + 31, p15 + 32, p15 + 33, p15 + 34, p15 + 35, p15 + 36, p15 + 37, p15 + 38, p15 + 39, 11};
p16 = newp;
Point(p16 + 1) = {17.00332034483615, 1.993361812604452, 0};
Point(p16 + 2) = {16.98198494467276, 2.082230149999812, 0};
Point(p16 + 3) = {16.94701014786999, 2.166666778782305, 0};
Point(p16 + 4) = {16.89925714999981, 2.244592588922201, 0};
Point(p16 + 5) = {16.83990178835292, 2.314088788352918, 0};
Point(p16 + 6) = {16.7704055889222, 2.373444149999812, 0};
Point(p16 + 7) = {16.69247977878231, 2.421197147869983, 0};
Point(p16 + 8) = {16.60804314999981, 2.456171944672754, 0};
Point(p16 + 9) = {16.51917481260445, 2.477507344836145, 0};
Point(p16 + 10) = {16.428063, 2.484678, 0};
Point(p16 + 11) = {16.33695118739555, 2.477507344836145, 0};
Point(p16 + 12) = {16.24808285000019, 2.456171944672754, 0};
Point(p16 + 13) = {16.1636462212177, 2.421197147869983, 0};
Point(p16 + 14) = {16.0857204110778, 2.373444149999812, 0};
Point(p16 + 15) = {16.01622421164708, 2.314088788352918, 0};
Point(p16 + 16) = {15.95686885000019, 2.244592588922201, 0};
Point(p16 + 17) = {15.90911585213002, 2.166666778782305, 0};
Point(p16 + 18) = {15.87414105532725, 2.082230149999812, 0};
Point(p16 + 19) = {15.85280565516386, 1.993361812604452, 0};
Point(p16 + 20) = {15.845635, 1.90225, 0};
Point(p16 + 21) = {15.85280565516386, 1.811138187395549, 0};
Point(p16 + 22) = {15.87414105532725, 1.722269850000188, 0};
Point(p16 + 23) = {15.90911585213002, 1.637833221217696, 0};
Point(p16 + 24) = {15.95686885000019, 1.5599074110778, 0};
Point(p16 + 25) = {16.01622421164708, 1.490411211647082, 0};
Point(p16 + 26) = {16.0857204110778, 1.431055850000188, 0};
Point(p16 + 27) = {16.1636462212177, 1.383302852130017, 0};
Point(p16 + 28) = {16.24808285000019, 1.348328055327246, 0};
Point(p16 + 29) = {16.33695118739555, 1.326992655163855, 0};
Point(p16 + 30) = {16.428063, 1.319822, 0};
Point(p16 + 31) = {16.51917481260445, 1.326992655163855, 0};
Point(p16 + 32) = {16.60804314999981, 1.348328055327246, 0};
Point(p16 + 33) = {16.69247977878231, 1.383302852130017, 0};
Point(p16 + 34) = {16.7704055889222, 1.431055850000188, 0};
Point(p16 + 35) = {16.83990178835292, 1.490411211647082, 0};
Point(p16 + 36) = {16.89925714999981, 1.559907411077799, 0};
Point(p16 + 37) = {16.94701014786999, 1.637833221217695, 0};
Point(p16 + 38) = {16.98198494467276, 1.722269850000188, 0};
Point(p16 + 39) = {17.00332034483615, 1.811138187395548, 0};
Spline(16) = {12, p16 + 1, p16 + 2, p16 + 3, p16 + 4, p16 + 5, p16 + 6, p16 + 7, p16 + 8, p16 + 9, p16 + 10, p16 + 11, p16 + 12, p16 + 13, p16 + 14, p16 + 15, p16 + 16, p16 + 17, p16 + 18, p16 + 19, p16 + 20, p16 + 21, p16 + 22, p16 + 23, p16 + 24, p16 + 25, p16 + 26, p16 + 27, p16 + 28, p16 + 29, p16 + 30, p16 + 31, p16 + 32, p16 + 33, p16 + 34, p16 + 35, p16 + 36, p16 + 37, p16 + 38, p16 + 39, 12};
Line(17) = {11, 8};
Line(18) = {12, 9};
Curve Loop(1) = {-1, 4, 3, -2};
Plane Surface(1) = {1};
Curve Loop(2) = {-5, 1, 7, -6};
Plane Surface(2) = {2};
Curve Loop(3) = {-2, 7, 9, -8, -10, -11};
Plane Surface(3) = {3};
Curve Loop(4) = {-12, 3, 8, -13};
Plane Surface(4) = {4};
Curve Loop(5) = {-4, 5, 14, -12, -15, -16};
Plane Surface(5) = {5};
Curve Loop(6) = {-6, 14, 13, -9};
Plane Surface(6) = {6};
Curve Loop(7) = {-10, -17, 15, 17};
Surface(7) = {7};
Curve Loop(8) = {-11, -18, 16, 18};
Surface(8) = {8};
Surface Loop(1) = {1, 2, 3, 4, 5, 6, 7, 8};
Volume(1) = {1};
Physical Surface("INFLOW") = {1};
Physical Surface("OUTFLOW") = {6};
Physical Surface("OBSTACLE") = {7, 8};
Physical Surface("WALL_Y") = {2, 4};
Physical Surface("WALL_Z") = {3, 5};
Physical Volume("FLUID") = {1};
