cl__1 = 3.667054;
cl__2 = 1.191915;
cl__3 = 1e+22;
cl__4 = 0.111852;
cl__5 = 1.044956;
cl__6 = 0.1276;
cl__7 = 0.070951;
cl__8 = 0.057979;
cl__9 = 0.065548;
Point(1) = {0.639427, -4.004003, 1, cl__1};
Point(2) = {0.639427, -4.004003, 0, cl__1};
Point(3) = {0.639427, 4.054023999999999, 1, cl__1};
Point(4) = {0.639427, 4.054023999999999, 0, cl__1};
Point(5) = {32.750293, -4.004003, 0, cl__2};
Point(6) = {32.750293, -4.004003, 1, cl__2};
Point(7) = {24.13405854952183, 4.054024000000004, 1, cl__3};
Point(8) = {23.68064234152873, 2.744999704586819, 1, cl__3};
Point(9) = {24.98962703532261, 0.3369719920091609, 1, cl__3};
Point(10) = {27.517975, 0.8030249999999997, 1, cl__3};
Point(11) = {25.44176049252165, 1.85994957271024, 1, cl__4};
Point(12) = {25.43457923216716, 1.881146503898079, 1, cl__3};
Point(13) = {26.195957, 3.048768, 1, cl__3};
Point(14) = {25.70585545047811, 4.054024000000025, 1, cl__3};
Point(15) = {32.750293, 4.054023999999999, 1, cl__5};
Point(16) = {9.022447, -1.603718, 1, cl__5};
Point(17) = {12.66861, -1.179953, 1, cl__6};
Point(18) = {21.645031, -1.519944, 1, cl__6};
Point(19) = {20.410622, 0.3616259999999998, 1, cl__7};
Point(20) = {6.906599999999999, 2.067372, 1, cl__3};
Point(21) = {23.051733, 2.782261999999999, 1, cl__8};
Point(22) = {24.13405854952183, 4.054024000000004, 0, cl__3};
Point(23) = {23.68064234152873, 2.744999704586819, 0, cl__3};
Point(24) = {24.98962703532261, 0.3369719920091609, 0, cl__3};
Point(25) = {27.517975, 0.8030249999999997, 0, cl__3};
Point(26) = {25.44176049252165, 1.85994957271024, 0, cl__3};
Point(27) = {25.43457923216716, 1.881146503898079, 0, cl__3};
Point(28) = {26.195957, 3.048768, 0, cl__3};
Point(29) = {25.70585545047811, 4.054024000000025, 0, cl__3};
Point(30) = {32.750293, 4.054023999999999, 0, cl__9};
Point(31) = {9.022447, -1.603718, 0, cl__3};
Point(32) = {12.66861, -1.179953, 0, cl__3};
Point(33) = {21.645031, -1.519944, 0, cl__3};
Point(34) = {20.410622, 0.3616259999999998, 0, cl__3};
Point(35) = {6.906599999999999, 2.067372, 0, cl__3};
Point(36) = {23.051733, 2.782261999999999, 0, cl__3};
Line(1) = {2, 1};
Line(2) = {1, 3};
Line(3) = {4, 3};
Line(4) = {2, 4};
Line(5) = {2, 5};
Line(6) = {5, 6};
Line(7) = {1, 6};
Line(8) = {3, 7};
p9 = newp;
Point(p9 + 1) = {24.919957, 3.048768, 1};
Circle(9) = {7, p9 + 1, 8};
p10 = newp;
Point(p10 + 1) = {23.56700309742893, 2.701639579109975, 1};
Point(p10 + 2) = {23.45758218151213, 2.648526102092624, 1};
Point(p10 + 3) = {23.35321480157866, 2.58606468770931, 1};
Point(p10 + 4) = {23.25469759188335, 2.514732102765298, 1};
Point(p10 + 5) = {23.16278253244131, 2.435072827544468, 1};
Point(p10 + 6) = {23.07817120917846, 2.347694899801513, 1};
Point(p10 + 7) = {23.0015094587394, 2.253265273621159, 1};
Point(p10 + 8) = {22.93338243882834, 2.152504728570131, 1};
Point(p10 + 9) = {22.87431016171134, 2.046182368000233, 1};
Point(p10 + 10) = {22.82474352497244, 1.935109748496879, 1};
Point(p10 + 11) = {22.78506086982083, 1.820134685282887, 1};
Point(p10 + 12) = {22.75556509321951, 1.702134780860774, 1};
Point(p10 + 13) = {22.73648133587843, 1.582010726289304, 1};
Point(p10 + 14) = {22.72795526375969, 1.460679426225517, 1};
Point(p10 + 15) = {22.73005195621196, 1.339067000208669, 1};
Point(p10 + 16) = {22.74275540922105, 1.218101713607146, 1};
Point(p10 + 17) = {22.76596865756825, 1.098706892186307, 1};
Point(p10 + 18) = {22.79951451496401, 0.9817938743802209, 1};
Point(p10 + 19) = {22.84313692650758, 0.8682550550624845, 1};
Point(p10 + 20) = {22.89650292314928, 0.7589570739128736, 1};
Point(p10 + 21) = {22.95920516323699, 0.654734200372914, 1};
Point(p10 + 22) = {23.03076504174735, 0.5563819656828715, 1};
Point(p10 + 23) = {23.11063634346895, 0.4646510906067044, 1};
Point(p10 + 24) = {23.1982094122528, 0.3802417551945425, 1};
Point(p10 + 25) = {23.29281580450625, 0.3037982543214903, 1};
Point(p10 + 26) = {23.39373339141047, 0.2359040797969199, 1};
Point(p10 + 27) = {23.50019187091612, 0.1770774665824257, 1};
Point(p10 + 28) = {23.6113786474445, 0.1277674371140778, 1};
Point(p10 + 29) = {23.72644503441438, 0.08835037392258238, 1};
Point(p10 + 30) = {23.8445127322507, 0.05912714671248098, 1};
Point(p10 + 31) = {23.96468053242885, 0.04032081582933222, 1};
Point(p10 + 32) = {24.0860311963824, 0.03207492964427749, 1};
Point(p10 + 33) = {24.20763845676787, 0.03445242885201338, 1};
Point(p10 + 34) = {24.32857408764605, 0.0474351660456489, 1};
Point(p10 + 35) = {24.44791498961316, 0.07092404423552257, 1};
Point(p10 + 36) = {24.56475023580132, 0.1047397732546669, 1};
Point(p10 + 37) = {24.67818802496622, 0.1486242382772922, 1};
Point(p10 + 38) = {24.78736248858936, 0.2022424700044134, 1};
Point(p10 + 39) = {24.89144030003616, 0.2651852014782323, 1};
Spline(10) = {8, p10 + 1, p10 + 2, p10 + 3, p10 + 4, p10 + 5, p10 + 6, p10 + 7, p10 + 8, p10 + 9, p10 + 10, p10 + 11, p10 + 12, p10 + 13, p10 + 14, p10 + 15, p10 + 16, p10 + 17, p10 + 18, p10 + 19, p10 + 20, p10 + 21, p10 + 22, p10 + 23, p10 + 24, p10 + 25, p10 + 26, p10 + 27, p10 + 28, p10 + 29, p10 + 30, p10 + 31, p10 + 32, p10 + 33, p10 + 34, p10 + 35, p10 + 36, p10 + 37, p10 + 38, p10 + 39, 9};
p11 = newp;
Point(p11 + 1) = {26.210847, 0.803025, 1};
Circle(11) = {9, p11 + 1, 10};
p12 = newp;
Point(p12 + 1) = {26.210847, 0.803025, 1};
Circle(12) = {10, p12 + 1, 11};
p13 = newp;
Point(p13 + 1) = {24.119648, 1.423849, 1};
Circle(13) = {11, p13 + 1, 12};
p14 = newp;
Point(p14 + 1) = {24.919957, 3.048768, 1};
Circle(14) = {12, p14 + 1, 13};
p15 = newp;
Point(p15 + 1) = {24.919957, 3.048768, 1};
Circle(15) = {13, p15 + 1, 14};
Line(16) = {14, 15};
Line(17) = {6, 15};
p18 = newp;
Point(p18 + 1) = {9.015308798370336, -1.513018548645394, 1};
Point(p18 + 2) = {8.9940699596958, -1.424552418797361, 1};
Point(p18 + 3) = {8.959253454672222, -1.340497940175009, 1};
Point(p18 + 4) = {8.91171658120264, -1.262924813002842, 1};
Point(p18 + 5) = {8.85262985487771, -1.193743145122289, 1};
Point(p18 + 6) = {8.783448186997157, -1.13465641879736, 1};
Point(p18 + 7) = {8.705875059824992, -1.087119545327778, 1};
Point(p18 + 8) = {8.621820581202639, -1.0523030403042, 1};
Point(p18 + 9) = {8.533354451354606, -1.031064201629664, 1};
Point(p18 + 10) = {8.442655, -1.023926, 1};
Point(p18 + 11) = {8.351955548645394, -1.031064201629664, 1};
Point(p18 + 12) = {8.263489418797361, -1.0523030403042, 1};
Point(p18 + 13) = {8.179434940175009, -1.087119545327778, 1};
Point(p18 + 14) = {8.101861813002843, -1.13465641879736, 1};
Point(p18 + 15) = {8.03268014512229, -1.193743145122289, 1};
Point(p18 + 16) = {7.97359341879736, -1.262924813002842, 1};
Point(p18 + 17) = {7.926056545327778, -1.340497940175009, 1};
Point(p18 + 18) = {7.891240040304201, -1.42455241879736, 1};
Point(p18 + 19) = {7.870001201629664, -1.513018548645394, 1};
Point(p18 + 20) = {7.862863, -1.603718, 1};
Point(p18 + 21) = {7.870001201629664, -1.694417451354606, 1};
Point(p18 + 22) = {7.891240040304201, -1.78288358120264, 1};
Point(p18 + 23) = {7.926056545327778, -1.866938059824991, 1};
Point(p18 + 24) = {7.97359341879736, -1.944511186997157, 1};
Point(p18 + 25) = {8.03268014512229, -2.013692854877711, 1};
Point(p18 + 26) = {8.101861813002843, -2.072779581202639, 1};
Point(p18 + 27) = {8.179434940175009, -2.120316454672222, 1};
Point(p18 + 28) = {8.263489418797361, -2.1551329596958, 1};
Point(p18 + 29) = {8.351955548645394, -2.176371798370336, 1};
Point(p18 + 30) = {8.442655, -2.18351, 1};
Point(p18 + 31) = {8.533354451354606, -2.176371798370336, 1};
Point(p18 + 32) = {8.621820581202639, -2.1551329596958, 1};
Point(p18 + 33) = {8.705875059824992, -2.120316454672222, 1};
Point(p18 + 34) = {8.783448186997157, -2.072779581202639, 1};
Point(p18 + 35) = {8.85262985487771, -2.013692854877711, 1};
Point(p18 + 36) = {8.91171658120264, -1.944511186997158, 1};
Point(p18 + 37) = {8.959253454672222, -1.866938059824991, 1};
Point(p18 + 38) = {8.9940699596958, -1.78288358120264, 1};
Point(p18 + 39) = {9.015308798370336, -1.694417451354606, 1};
Spline(18) = {16, p18 + 1, p18 + 2, p18 + 3, p18 + 4, p18 + 5, p18 + 6, p18 + 7, p18 + 8, p18 + 9, p18 + 10, p18 + 11, p18 + 12, p18 + 13, p18 + 14, p18 + 15, p18 + 16, p18 + 17, p18 + 18, p18 + 19, p18 + 20, p18 + 21, p18 + 22, p18 + 23, p18 + 24, p18 + 25, p18 + 26, p18 + 27, p18 + 28, p18 + 29, p18 + 30, p18 + 31, p18 + 32, p18 + 33, p18 + 34, p18 + 35, p18 + 36, p18 + 37, p18 + 38, p18 + 39, 16};
p19 = newp;
Point(p19 + 1) = {12.65987479147064, -1.068961652012701, 1};
Point(p19 + 2) = {12.63388425570703, -0.9607032793720143, 1};
Point(p19 + 3) = {12.59127836595732, -0.8578435625012935, 1};
Point(p19 + 4) = {12.53310622062799, -0.7629152490017244, 1};
Point(p19 + 5) = {12.46080021099932, -0.6782557890006763, 1};
Point(p19 + 6) = {12.37614075099828, -0.6059497793720142, 1};
Point(p19 + 7) = {12.28121243749871, -0.5477776340426838, 1};
Point(p19 + 8) = {12.17835272062799, -0.5051717442929745, 1};
Point(p19 + 9) = {12.0700943479873, -0.4791812085293656, 1};
Point(p19 + 10) = {11.959103, -0.470446, 1};
Point(p19 + 11) = {11.8481116520127, -0.4791812085293657, 1};
Point(p19 + 12) = {11.73985327937202, -0.5051717442929744, 1};
Point(p19 + 13) = {11.63699356250129, -0.5477776340426836, 1};
Point(p19 + 14) = {11.54206524900173, -0.6059497793720142, 1};
Point(p19 + 15) = {11.45740578900068, -0.6782557890006762, 1};
Point(p19 + 16) = {11.38509977937201, -0.7629152490017241, 1};
Point(p19 + 17) = {11.32692763404268, -0.8578435625012933, 1};
Point(p19 + 18) = {11.28432174429298, -0.9607032793720142, 1};
Point(p19 + 19) = {11.25833120852937, -1.068961652012701, 1};
Point(p19 + 20) = {11.249596, -1.179953, 1};
Point(p19 + 21) = {11.25833120852937, -1.290944347987299, 1};
Point(p19 + 22) = {11.28432174429298, -1.399202720627986, 1};
Point(p19 + 23) = {11.32692763404268, -1.502062437498706, 1};
Point(p19 + 24) = {11.38509977937201, -1.596990750998276, 1};
Point(p19 + 25) = {11.45740578900068, -1.681650210999324, 1};
Point(p19 + 26) = {11.54206524900173, -1.753956220627986, 1};
Point(p19 + 27) = {11.63699356250129, -1.812128365957316, 1};
Point(p19 + 28) = {11.73985327937202, -1.854734255707025, 1};
Point(p19 + 29) = {11.8481116520127, -1.880724791470634, 1};
Point(p19 + 30) = {11.959103, -1.88946, 1};
Point(p19 + 31) = {12.0700943479873, -1.880724791470634, 1};
Point(p19 + 32) = {12.17835272062799, -1.854734255707026, 1};
Point(p19 + 33) = {12.28121243749871, -1.812128365957316, 1};
Point(p19 + 34) = {12.37614075099828, -1.753956220627986, 1};
Point(p19 + 35) = {12.46080021099932, -1.681650210999324, 1};
Point(p19 + 36) = {12.53310622062799, -1.596990750998276, 1};
Point(p19 + 37) = {12.59127836595732, -1.502062437498707, 1};
Point(p19 + 38) = {12.63388425570703, -1.399202720627986, 1};
Point(p19 + 39) = {12.65987479147064, -1.290944347987299, 1};
Spline(19) = {17, p19 + 1, p19 + 2, p19 + 3, p19 + 4, p19 + 5, p19 + 6, p19 + 7, p19 + 8, p19 + 9, p19 + 10, p19 + 11, p19 + 12, p19 + 13, p19 + 14, p19 + 15, p19 + 16, p19 + 17, p19 + 18, p19 + 19, p19 + 20, p19 + 21, p19 + 22, p19 + 23, p19 + 24, p19 + 25, p19 + 26, p19 + 27, p19 + 28, p19 + 29, p19 + 30, p19 + 31, p19 + 32, p19 + 33, p19 + 34, p19 + 35, p19 + 36, p19 + 37, p19 + 38, p19 + 39, 17};
p20 = newp;
Point(p20 + 1) = {21.63696096580496, -1.417404493289894, 1};
Point(p20 + 2) = {21.61294957424463, -1.317389849544104, 1};
Point(p20 + 3) = {21.57358806546847, -1.222362761221222, 1};
Point(p20 + 4) = {21.5198456504559, -1.134663110612582, 1};
Point(p20 + 5) = {21.45304564582538, -1.056450354174623, 1};
Point(p20 + 6) = {21.37483288938742, -0.9896503495441038, 1};
Point(p20 + 7) = {21.28713323877878, -0.9359079345315328, 1};
Point(p20 + 8) = {21.1921061504559, -0.896546425755369, 1};
Point(p20 + 9) = {21.0920915067101, -0.8725350341950396, 1};
Point(p20 + 10) = {20.989552, -0.8644649999999999, 1};
Point(p20 + 11) = {20.88701249328989, -0.8725350341950396, 1};
Point(p20 + 12) = {20.7869978495441, -0.8965464257553689, 1};
Point(p20 + 13) = {20.69197076122122, -0.9359079345315328, 1};
Point(p20 + 14) = {20.60427111061258, -0.9896503495441038, 1};
Point(p20 + 15) = {20.52605835417462, -1.056450354174623, 1};
Point(p20 + 16) = {20.4592583495441, -1.134663110612582, 1};
Point(p20 + 17) = {20.40551593453153, -1.222362761221222, 1};
Point(p20 + 18) = {20.36615442575537, -1.317389849544104, 1};
Point(p20 + 19) = {20.34214303419504, -1.417404493289894, 1};
Point(p20 + 20) = {20.334073, -1.519944, 1};
Point(p20 + 21) = {20.34214303419504, -1.622483506710105, 1};
Point(p20 + 22) = {20.36615442575537, -1.722498150455896, 1};
Point(p20 + 23) = {20.40551593453153, -1.817525238778778, 1};
Point(p20 + 24) = {20.4592583495441, -1.905224889387418, 1};
Point(p20 + 25) = {20.52605835417462, -1.983437645825377, 1};
Point(p20 + 26) = {20.60427111061258, -2.050237650455896, 1};
Point(p20 + 27) = {20.69197076122122, -2.103980065468467, 1};
Point(p20 + 28) = {20.7869978495441, -2.143341574244631, 1};
Point(p20 + 29) = {20.88701249328989, -2.16735296580496, 1};
Point(p20 + 30) = {20.989552, -2.175423, 1};
Point(p20 + 31) = {21.0920915067101, -2.16735296580496, 1};
Point(p20 + 32) = {21.1921061504559, -2.143341574244631, 1};
Point(p20 + 33) = {21.28713323877878, -2.103980065468467, 1};
Point(p20 + 34) = {21.37483288938742, -2.050237650455896, 1};
Point(p20 + 35) = {21.45304564582538, -1.983437645825377, 1};
Point(p20 + 36) = {21.5198456504559, -1.905224889387418, 1};
Point(p20 + 37) = {21.57358806546847, -1.817525238778778, 1};
Point(p20 + 38) = {21.61294957424463, -1.722498150455896, 1};
Point(p20 + 39) = {21.63696096580496, -1.622483506710106, 1};
Spline(20) = {18, p20 + 1, p20 + 2, p20 + 3, p20 + 4, p20 + 5, p20 + 6, p20 + 7, p20 + 8, p20 + 9, p20 + 10, p20 + 11, p20 + 12, p20 + 13, p20 + 14, p20 + 15, p20 + 16, p20 + 17, p20 + 18, p20 + 19, p20 + 20, p20 + 21, p20 + 22, p20 + 23, p20 + 24, p20 + 25, p20 + 26, p20 + 27, p20 + 28, p20 + 29, p20 + 30, p20 + 31, p20 + 32, p20 + 33, p20 + 34, p20 + 35, p20 + 36, p20 + 37, p20 + 38, p20 + 39, 18};
p21 = newp;
Point(p21 + 1) = {20.4017521757867, 0.474327802428049, 1};
Point(p21 + 2) = {20.3753611076562, 0.5842545124444815, 1};
Point(p21 + 3) = {20.33209863129279, 0.6886993696228588, 1};
Point(p21 + 4) = {20.27303001244448, 0.7850905949468416, 1};
Point(p21 + 5) = {20.19960971654482, 0.8710547165448175, 1};
Point(p21 + 6) = {20.11364559494684, 0.9444750124444815, 1};
Point(p21 + 7) = {20.01725436962286, 1.003543631292792, 1};
Point(p21 + 8) = {19.91280951244448, 1.046806107656197, 1};
Point(p21 + 9) = {19.80288280242805, 1.073197175786702, 1};
Point(p21 + 10) = {19.690181, 1.082067, 1};
Point(p21 + 11) = {19.57747919757195, 1.073197175786702, 1};
Point(p21 + 12) = {19.46755248755552, 1.046806107656197, 1};
Point(p21 + 13) = {19.36310763037714, 1.003543631292792, 1};
Point(p21 + 14) = {19.26671640505316, 0.9444750124444815, 1};
Point(p21 + 15) = {19.18075228345518, 0.8710547165448175, 1};
Point(p21 + 16) = {19.10733198755552, 0.7850905949468417, 1};
Point(p21 + 17) = {19.04826336870721, 0.6886993696228589, 1};
Point(p21 + 18) = {19.0050008923438, 0.5842545124444816, 1};
Point(p21 + 19) = {18.9786098242133, 0.4743278024280491, 1};
Point(p21 + 20) = {18.96974, 0.3616260000000001, 1};
Point(p21 + 21) = {18.9786098242133, 0.2489241975719511, 1};
Point(p21 + 22) = {19.0050008923438, 0.1389974875555183, 1};
Point(p21 + 23) = {19.04826336870721, 0.03455263037714157, 1};
Point(p21 + 24) = {19.10733198755552, -0.06183859494684157, 1};
Point(p21 + 25) = {19.18075228345518, -0.1478027165448175, 1};
Point(p21 + 26) = {19.26671640505316, -0.2212230124444814, 1};
Point(p21 + 27) = {19.36310763037714, -0.2802916312927919, 1};
Point(p21 + 28) = {19.46755248755552, -0.3235541076561967, 1};
Point(p21 + 29) = {19.57747919757195, -0.3499451757867016, 1};
Point(p21 + 30) = {19.690181, -0.358815, 1};
Point(p21 + 31) = {19.80288280242805, -0.3499451757867017, 1};
Point(p21 + 32) = {19.91280951244448, -0.3235541076561967, 1};
Point(p21 + 33) = {20.01725436962286, -0.280291631292792, 1};
Point(p21 + 34) = {20.11364559494684, -0.2212230124444816, 1};
Point(p21 + 35) = {20.19960971654482, -0.1478027165448176, 1};
Point(p21 + 36) = {20.27303001244448, -0.0618385949468418, 1};
Point(p21 + 37) = {20.33209863129279, 0.03455263037714107, 1};
Point(p21 + 38) = {20.3753611076562, 0.1389974875555184, 1};
Point(p21 + 39) = {20.4017521757867, 0.2489241975719509, 1};
Spline(21) = {19, p21 + 1, p21 + 2, p21 + 3, p21 + 4, p21 + 5, p21 + 6, p21 + 7, p21 + 8, p21 + 9, p21 + 10, p21 + 11, p21 + 12, p21 + 13, p21 + 14, p21 + 15, p21 + 16, p21 + 17, p21 + 18, p21 + 19, p21 + 20, p21 + 21, p21 + 22, p21 + 23, p21 + 24, p21 + 25, p21 + 26, p21 + 27, p21 + 28, p21 + 29, p21 + 30, p21 + 31, p21 + 32, p21 + 33, p21 + 34, p21 + 35, p21 + 36, p21 + 37, p21 + 38, p21 + 39, 19};
p22 = newp;
Point(p22 + 1) = {6.898432420527495, 2.171150936976619, 1};
Point(p22 + 2) = {6.874130795023238, 2.272374492102329, 1};
Point(p22 + 3) = {6.834293510159611, 2.368550205508215, 1};
Point(p22 + 4) = {6.779901492102328, 2.457309911941332, 1};
Point(p22 + 5) = {6.712294052852718, 2.536468052852718, 1};
Point(p22 + 6) = {6.633135911941331, 2.604075492102329, 1};
Point(p22 + 7) = {6.544376205508215, 2.658467510159612, 1};
Point(p22 + 8) = {6.448200492102329, 2.698304795023238, 1};
Point(p22 + 9) = {6.346976936976619, 2.722606420527496, 1};
Point(p22 + 10) = {6.243198, 2.730774, 1};
Point(p22 + 11) = {6.13941906302338, 2.722606420527496, 1};
Point(p22 + 12) = {6.038195507897671, 2.698304795023238, 1};
Point(p22 + 13) = {5.942019794491785, 2.658467510159612, 1};
Point(p22 + 14) = {5.853260088058668, 2.604075492102329, 1};
Point(p22 + 15) = {5.774101947147281, 2.536468052852718, 1};
Point(p22 + 16) = {5.706494507897671, 2.457309911941332, 1};
Point(p22 + 17) = {5.652102489840388, 2.368550205508215, 1};
Point(p22 + 18) = {5.612265204976762, 2.272374492102329, 1};
Point(p22 + 19) = {5.587963579472504, 2.171150936976619, 1};
Point(p22 + 20) = {5.579796, 2.067372, 1};
Point(p22 + 21) = {5.587963579472504, 1.963593063023381, 1};
Point(p22 + 22) = {5.612265204976762, 1.862369507897671, 1};
Point(p22 + 23) = {5.652102489840388, 1.766193794491786, 1};
Point(p22 + 24) = {5.706494507897671, 1.677434088058669, 1};
Point(p22 + 25) = {5.774101947147281, 1.598275947147282, 1};
Point(p22 + 26) = {5.853260088058668, 1.530668507897671, 1};
Point(p22 + 27) = {5.942019794491785, 1.476276489840389, 1};
Point(p22 + 28) = {6.038195507897671, 1.436439204976763, 1};
Point(p22 + 29) = {6.13941906302338, 1.412137579472505, 1};
Point(p22 + 30) = {6.243198, 1.40397, 1};
Point(p22 + 31) = {6.346976936976619, 1.412137579472505, 1};
Point(p22 + 32) = {6.448200492102329, 1.436439204976763, 1};
Point(p22 + 33) = {6.544376205508215, 1.476276489840389, 1};
Point(p22 + 34) = {6.633135911941331, 1.530668507897671, 1};
Point(p22 + 35) = {6.712294052852718, 1.598275947147282, 1};
Point(p22 + 36) = {6.779901492102328, 1.677434088058669, 1};
Point(p22 + 37) = {6.834293510159611, 1.766193794491785, 1};
Point(p22 + 38) = {6.874130795023238, 1.862369507897671, 1};
Point(p22 + 39) = {6.898432420527495, 1.963593063023381, 1};
Spline(22) = {20, p22 + 1, p22 + 2, p22 + 3, p22 + 4, p22 + 5, p22 + 6, p22 + 7, p22 + 8, p22 + 9, p22 + 10, p22 + 11, p22 + 12, p22 + 13, p22 + 14, p22 + 15, p22 + 16, p22 + 17, p22 + 18, p22 + 19, p22 + 20, p22 + 21, p22 + 22, p22 + 23, p22 + 24, p22 + 25, p22 + 26, p22 + 27, p22 + 28, p22 + 29, p22 + 30, p22 + 31, p22 + 32, p22 + 33, p22 + 34, p22 + 35, p22 + 36, p22 + 37, p22 + 38, p22 + 39, 20};
p23 = newp;
Point(p23 + 1) = {23.03796216272247, 2.957237077836799, 1};
Point(p23 + 2) = {22.99698873460645, 3.127903688548266, 1};
Point(p23 + 3) = {22.92982161743517, 3.290059453768678, 1};
Point(p23 + 4) = {22.83811468854827, 3.439711560394177, 1};
Point(p23 + 5) = {22.72412607689278, 3.573175076892777, 1};
Point(p23 + 6) = {22.59066256039418, 3.687163688548266, 1};
Point(p23 + 7) = {22.44101045376868, 3.778870617435173, 1};
Point(p23 + 8) = {22.27885468854826, 3.846037734606455, 1};
Point(p23 + 9) = {22.1081880778368, 3.887011162722473, 1};
Point(p23 + 10) = {21.933213, 3.900782, 1};
Point(p23 + 11) = {21.7582379221632, 3.887011162722473, 1};
Point(p23 + 12) = {21.58757131145173, 3.846037734606455, 1};
Point(p23 + 13) = {21.42541554623132, 3.778870617435173, 1};
Point(p23 + 14) = {21.27576343960582, 3.687163688548266, 1};
Point(p23 + 15) = {21.14229992310722, 3.573175076892777, 1};
Point(p23 + 16) = {21.02831131145173, 3.439711560394177, 1};
Point(p23 + 17) = {20.93660438256483, 3.290059453768678, 1};
Point(p23 + 18) = {20.86943726539354, 3.127903688548266, 1};
Point(p23 + 19) = {20.82846383727752, 2.957237077836799, 1};
Point(p23 + 20) = {20.814693, 2.782262, 1};
Point(p23 + 21) = {20.82846383727752, 2.607286922163201, 1};
Point(p23 + 22) = {20.86943726539354, 2.436620311451733, 1};
Point(p23 + 23) = {20.93660438256482, 2.274464546231322, 1};
Point(p23 + 24) = {21.02831131145173, 2.124812439605823, 1};
Point(p23 + 25) = {21.14229992310722, 1.991348923107223, 1};
Point(p23 + 26) = {21.27576343960582, 1.877360311451734, 1};
Point(p23 + 27) = {21.42541554623132, 1.785653382564827, 1};
Point(p23 + 28) = {21.58757131145173, 1.718486265393545, 1};
Point(p23 + 29) = {21.7582379221632, 1.677512837277527, 1};
Point(p23 + 30) = {21.933213, 1.663742, 1};
Point(p23 + 31) = {22.1081880778368, 1.677512837277526, 1};
Point(p23 + 32) = {22.27885468854826, 1.718486265393545, 1};
Point(p23 + 33) = {22.44101045376868, 1.785653382564826, 1};
Point(p23 + 34) = {22.59066256039418, 1.877360311451733, 1};
Point(p23 + 35) = {22.72412607689278, 1.991348923107223, 1};
Point(p23 + 36) = {22.83811468854826, 2.124812439605822, 1};
Point(p23 + 37) = {22.92982161743517, 2.274464546231322, 1};
Point(p23 + 38) = {22.99698873460645, 2.436620311451733, 1};
Point(p23 + 39) = {23.03796216272247, 2.607286922163201, 1};
Spline(23) = {21, p23 + 1, p23 + 2, p23 + 3, p23 + 4, p23 + 5, p23 + 6, p23 + 7, p23 + 8, p23 + 9, p23 + 10, p23 + 11, p23 + 12, p23 + 13, p23 + 14, p23 + 15, p23 + 16, p23 + 17, p23 + 18, p23 + 19, p23 + 20, p23 + 21, p23 + 22, p23 + 23, p23 + 24, p23 + 25, p23 + 26, p23 + 27, p23 + 28, p23 + 29, p23 + 30, p23 + 31, p23 + 32, p23 + 33, p23 + 34, p23 + 35, p23 + 36, p23 + 37, p23 + 38, p23 + 39, 21};
Line(24) = {4, 22};
Line(25) = {22, 7};
p26 = newp;
Point(p26 + 1) = {24.919957, 3.048768, 0};
Circle(26) = {22, p26 + 1, 23};
p27 = newp;
Point(p27 + 1) = {23.56700309742893, 2.701639579109975, 0};
Point(p27 + 2) = {23.45758218151213, 2.648526102092624, 0};
Point(p27 + 3) = {23.35321480157866, 2.58606468770931, 0};
Point(p27 + 4) = {23.25469759188335, 2.514732102765298, 0};
Point(p27 + 5) = {23.16278253244131, 2.435072827544468, 0};
Point(p27 + 6) = {23.07817120917846, 2.347694899801513, 0};
Point(p27 + 7) = {23.0015094587394, 2.253265273621159, 0};
Point(p27 + 8) = {22.93338243882834, 2.152504728570131, 0};
Point(p27 + 9) = {22.87431016171134, 2.046182368000233, 0};
Point(p27 + 10) = {22.82474352497244, 1.935109748496879, 0};
Point(p27 + 11) = {22.78506086982083, 1.820134685282887, 0};
Point(p27 + 12) = {22.75556509321951, 1.702134780860774, 0};
Point(p27 + 13) = {22.73648133587843, 1.582010726289304, 0};
Point(p27 + 14) = {22.72795526375969, 1.460679426225517, 0};
Point(p27 + 15) = {22.73005195621196, 1.339067000208669, 0};
Point(p27 + 16) = {22.74275540922105, 1.218101713607146, 0};
Point(p27 + 17) = {22.76596865756825, 1.098706892186307, 0};
Point(p27 + 18) = {22.79951451496401, 0.9817938743802209, 0};
Point(p27 + 19) = {22.84313692650758, 0.8682550550624845, 0};
Point(p27 + 20) = {22.89650292314928, 0.7589570739128736, 0};
Point(p27 + 21) = {22.95920516323699, 0.654734200372914, 0};
Point(p27 + 22) = {23.03076504174735, 0.5563819656828715, 0};
Point(p27 + 23) = {23.11063634346895, 0.4646510906067044, 0};
Point(p27 + 24) = {23.1982094122528, 0.3802417551945425, 0};
Point(p27 + 25) = {23.29281580450625, 0.3037982543214903, 0};
Point(p27 + 26) = {23.39373339141047, 0.2359040797969199, 0};
Point(p27 + 27) = {23.50019187091612, 0.1770774665824257, 0};
Point(p27 + 28) = {23.6113786474445, 0.1277674371140778, 0};
Point(p27 + 29) = {23.72644503441438, 0.08835037392258238, 0};
Point(p27 + 30) = {23.8445127322507, 0.05912714671248098, 0};
Point(p27 + 31) = {23.96468053242885, 0.04032081582933222, 0};
Point(p27 + 32) = {24.0860311963824, 0.03207492964427749, 0};
Point(p27 + 33) = {24.20763845676787, 0.03445242885201338, 0};
Point(p27 + 34) = {24.32857408764605, 0.0474351660456489, 0};
Point(p27 + 35) = {24.44791498961316, 0.07092404423552257, 0};
Point(p27 + 36) = {24.56475023580132, 0.1047397732546669, 0};
Point(p27 + 37) = {24.67818802496622, 0.1486242382772922, 0};
Point(p27 + 38) = {24.78736248858936, 0.2022424700044134, 0};
Point(p27 + 39) = {24.89144030003616, 0.2651852014782323, 0};
Spline(27) = {23, p27 + 1, p27 + 2, p27 + 3, p27 + 4, p27 + 5, p27 + 6, p27 + 7, p27 + 8, p27 + 9, p27 + 10, p27 + 11, p27 + 12, p27 + 13, p27 + 14, p27 + 15, p27 + 16, p27 + 17, p27 + 18, p27 + 19, p27 + 20, p27 + 21, p27 + 22, p27 + 23, p27 + 24, p27 + 25, p27 + 26, p27 + 27, p27 + 28, p27 + 29, p27 + 30, p27 + 31, p27 + 32, p27 + 33, p27 + 34, p27 + 35, p27 + 36, p27 + 37, p27 + 38, p27 + 39, 24};
p28 = newp;
Point(p28 + 1) = {26.210847, 0.803025, 0};
Circle(28) = {24, p28 + 1, 25};
p29 = newp;
Point(p29 + 1) = {26.210847, 0.803025, 0};
Circle(29) = {25, p29 + 1, 26};
p30 = newp;
Point(p30 + 1) = {24.119648, 1.423849, 0};
Circle(30) = {26, p30 + 1, 27};
p31 = newp;
Point(p31 + 1) = {24.919957, 3.048768, 0};
Circle(31) = {27, p31 + 1, 28};
p32 = newp;
Point(p32 + 1) = {24.919957, 3.048768, 0};
Circle(32) = {28, p32 + 1, 29};
Line(33) = {29, 30};
Line(34) = {5, 30};
p35 = newp;
Point(p35 + 1) = {9.015308798370336, -1.513018548645394, 0};
Point(p35 + 2) = {8.9940699596958, -1.424552418797361, 0};
Point(p35 + 3) = {8.959253454672222, -1.340497940175009, 0};
Point(p35 + 4) = {8.91171658120264, -1.262924813002842, 0};
Point(p35 + 5) = {8.85262985487771, -1.193743145122289, 0};
Point(p35 + 6) = {8.783448186997157, -1.13465641879736, 0};
Point(p35 + 7) = {8.705875059824992, -1.087119545327778, 0};
Point(p35 + 8) = {8.621820581202639, -1.0523030403042, 0};
Point(p35 + 9) = {8.533354451354606, -1.031064201629664, 0};
Point(p35 + 10) = {8.442655, -1.023926, 0};
Point(p35 + 11) = {8.351955548645394, -1.031064201629664, 0};
Point(p35 + 12) = {8.263489418797361, -1.0523030403042, 0};
Point(p35 + 13) = {8.179434940175009, -1.087119545327778, 0};
Point(p35 + 14) = {8.101861813002843, -1.13465641879736, 0};
Point(p35 + 15) = {8.03268014512229, -1.193743145122289, 0};
Point(p35 + 16) = {7.97359341879736, -1.262924813002842, 0};
Point(p35 + 17) = {7.926056545327778, -1.340497940175009, 0};
Point(p35 + 18) = {7.891240040304201, -1.42455241879736, 0};
Point(p35 + 19) = {7.870001201629664, -1.513018548645394, 0};
Point(p35 + 20) = {7.862863, -1.603718, 0};
Point(p35 + 21) = {7.870001201629664, -1.694417451354606, 0};
Point(p35 + 22) = {7.891240040304201, -1.78288358120264, 0};
Point(p35 + 23) = {7.926056545327778, -1.866938059824991, 0};
Point(p35 + 24) = {7.97359341879736, -1.944511186997157, 0};
Point(p35 + 25) = {8.03268014512229, -2.013692854877711, 0};
Point(p35 + 26) = {8.101861813002843, -2.072779581202639, 0};
Point(p35 + 27) = {8.179434940175009, -2.120316454672222, 0};
Point(p35 + 28) = {8.263489418797361, -2.1551329596958, 0};
Point(p35 + 29) = {8.351955548645394, -2.176371798370336, 0};
Point(p35 + 30) = {8.442655, -2.18351, 0};
Point(p35 + 31) = {8.533354451354606, -2.176371798370336, 0};
Point(p35 + 32) = {8.621820581202639, -2.1551329596958, 0};
Point(p35 + 33) = {8.705875059824992, -2.120316454672222, 0};
Point(p35 + 34) = {8.783448186997157, -2.072779581202639, 0};
Point(p35 + 35) = {8.85262985487771, -2.013692854877711, 0};
Point(p35 + 36) = {8.91171658120264, -1.944511186997158, 0};
Point(p35 + 37) = {8.959253454672222, -1.866938059824991, 0};
Point(p35 + 38) = {8.9940699596958, -1.78288358120264, 0};
Point(p35 + 39) = {9.015308798370336, -1.694417451354606, 0};
Spline(35) = {31, p35 + 1, p35 + 2, p35 + 3, p35 + 4, p35 + 5, p35 + 6, p35 + 7, p35 + 8, p35 + 9, p35 + 10, p35 + 11, p35 + 12, p35 + 13, p35 + 14, p35 + 15, p35 + 16, p35 + 17, p35 + 18, p35 + 19, p35 + 20, p35 + 21, p35 + 22, p35 + 23, p35 + 24, p35 + 25, p35 + 26, p35 + 27, p35 + 28, p35 + 29, p35 + 30, p35 + 31, p35 + 32, p35 + 33, p35 + 34, p35 + 35, p35 + 36, p35 + 37, p35 + 38, p35 + 39, 31};
p36 = newp;
Point(p36 + 1) = {12.65987479147064, -1.068961652012701, 0};
Point(p36 + 2) = {12.63388425570703, -0.9607032793720143, 0};
Point(p36 + 3) = {12.59127836595732, -0.8578435625012935, 0};
Point(p36 + 4) = {12.53310622062799, -0.7629152490017244, 0};
Point(p36 + 5) = {12.46080021099932, -0.6782557890006763, 0};
Point(p36 + 6) = {12.37614075099828, -0.6059497793720142, 0};
Point(p36 + 7) = {12.28121243749871, -0.5477776340426838, 0};
Point(p36 + 8) = {12.17835272062799, -0.5051717442929745, 0};
Point(p36 + 9) = {12.0700943479873, -0.4791812085293656, 0};
Point(p36 + 10) = {11.959103, -0.470446, 0};
Point(p36 + 11) = {11.8481116520127, -0.4791812085293657, 0};
Point(p36 + 12) = {11.73985327937202, -0.5051717442929744, 0};
Point(p36 + 13) = {11.63699356250129, -0.5477776340426836, 0};
Point(p36 + 14) = {11.54206524900173, -0.6059497793720142, 0};
Point(p36 + 15) = {11.45740578900068, -0.6782557890006762, 0};
Point(p36 + 16) = {11.38509977937201, -0.7629152490017241, 0};
Point(p36 + 17) = {11.32692763404268, -0.8578435625012933, 0};
Point(p36 + 18) = {11.28432174429298, -0.9607032793720142, 0};
Point(p36 + 19) = {11.25833120852937, -1.068961652012701, 0};
Point(p36 + 20) = {11.249596, -1.179953, 0};
Point(p36 + 21) = {11.25833120852937, -1.290944347987299, 0};
Point(p36 + 22) = {11.28432174429298, -1.399202720627986, 0};
Point(p36 + 23) = {11.32692763404268, -1.502062437498706, 0};
Point(p36 + 24) = {11.38509977937201, -1.596990750998276, 0};
Point(p36 + 25) = {11.45740578900068, -1.681650210999324, 0};
Point(p36 + 26) = {11.54206524900173, -1.753956220627986, 0};
Point(p36 + 27) = {11.63699356250129, -1.812128365957316, 0};
Point(p36 + 28) = {11.73985327937202, -1.854734255707025, 0};
Point(p36 + 29) = {11.8481116520127, -1.880724791470634, 0};
Point(p36 + 30) = {11.959103, -1.88946, 0};
Point(p36 + 31) = {12.0700943479873, -1.880724791470634, 0};
Point(p36 + 32) = {12.17835272062799, -1.854734255707026, 0};
Point(p36 + 33) = {12.28121243749871, -1.812128365957316, 0};
Point(p36 + 34) = {12.37614075099828, -1.753956220627986, 0};
Point(p36 + 35) = {12.46080021099932, -1.681650210999324, 0};
Point(p36 + 36) = {12.53310622062799, -1.596990750998276, 0};
Point(p36 + 37) = {12.59127836595732, -1.502062437498707, 0};
Point(p36 + 38) = {12.63388425570703, -1.399202720627986, 0};
Point(p36 + 39) = {12.65987479147064, -1.290944347987299, 0};
Spline(36) = {32, p36 + 1, p36 + 2, p36 + 3, p36 + 4, p36 + 5, p36 + 6, p36 + 7, p36 + 8, p36 + 9, p36 + 10, p36 + 11, p36 + 12, p36 + 13, p36 + 14, p36 + 15, p36 + 16, p36 + 17, p36 + 18, p36 + 19, p36 + 20, p36 + 21, p36 + 22, p36 + 23, p36 + 24, p36 + 25, p36 + 26, p36 + 27, p36 + 28, p36 + 29, p36 + 30, p36 + 31, p36 + 32, p36 + 33, p36 + 34, p36 + 35, p36 + 36, p36 + 37, p36 + 38, p36 + 39, 32};
p37 = newp;
Point(p37 + 1) = {21.63696096580496, -1.417404493289894, 0};
Point(p37 + 2) = {21.61294957424463, -1.317389849544104, 0};
Point(p37 + 3) = {21.57358806546847, -1.222362761221222, 0};
Point(p37 + 4) = {21.5198456504559, -1.134663110612582, 0};
Point(p37 + 5) = {21.45304564582538, -1.056450354174623, 0};
Point(p37 + 6) = {21.37483288938742, -0.9896503495441038, 0};
Point(p37 + 7) = {21.28713323877878, -0.9359079345315328, 0};
Point(p37 + 8) = {21.1921061504559, -0.896546425755369, 0};
Point(p37 + 9) = {21.0920915067101, -0.8725350341950396, 0};
Point(p37 + 10) = {20.989552, -0.8644649999999999, 0};
Point(p37 + 11) = {20.88701249328989, -0.8725350341950396, 0};
Point(p37 + 12) = {20.7869978495441, -0.8965464257553689, 0};
Point(p37 + 13) = {20.69197076122122, -0.9359079345315328, 0};
Point(p37 + 14) = {20.60427111061258, -0.9896503495441038, 0};
Point(p37 + 15) = {20.52605835417462, -1.056450354174623, 0};
Point(p37 + 16) = {20.4592583495441, -1.134663110612582, 0};
Point(p37 + 17) = {20.40551593453153, -1.222362761221222, 0};
Point(p37 + 18) = {20.36615442575537, -1.317389849544104, 0};
Point(p37 + 19) = {20.34214303419504, -1.417404493289894, 0};
Point(p37 + 20) = {20.334073, -1.519944, 0};
Point(p37 + 21) = {20.34214303419504, -1.622483506710105, 0};
Point(p37 + 22) = {20.36615442575537, -1.722498150455896, 0};
Point(p37 + 23) = {20.40551593453153, -1.817525238778778, 0};
Point(p37 + 24) = {20.4592583495441, -1.905224889387418, 0};
Point(p37 + 25) = {20.52605835417462, -1.983437645825377, 0};
Point(p37 + 26) = {20.60427111061258, -2.050237650455896, 0};
Point(p37 + 27) = {20.69197076122122, -2.103980065468467, 0};
Point(p37 + 28) = {20.7869978495441, -2.143341574244631, 0};
Point(p37 + 29) = {20.88701249328989, -2.16735296580496, 0};
Point(p37 + 30) = {20.989552, -2.175423, 0};
Point(p37 + 31) = {21.0920915067101, -2.16735296580496, 0};
Point(p37 + 32) = {21.1921061504559, -2.143341574244631, 0};
Point(p37 + 33) = {21.28713323877878, -2.103980065468467, 0};
Point(p37 + 34) = {21.37483288938742, -2.050237650455896, 0};
Point(p37 + 35) = {21.45304564582538, -1.983437645825377, 0};
Point(p37 + 36) = {21.5198456504559, -1.905224889387418, 0};
Point(p37 + 37) = {21.57358806546847, -1.817525238778778, 0};
Point(p37 + 38) = {21.61294957424463, -1.722498150455896, 0};
Point(p37 + 39) = {21.63696096580496, -1.622483506710106, 0};
Spline(37) = {33, p37 + 1, p37 + 2, p37 + 3, p37 + 4, p37 + 5, p37 + 6, p37 + 7, p37 + 8, p37 + 9, p37 + 10, p37 + 11, p37 + 12, p37 + 13, p37 + 14, p37 + 15, p37 + 16, p37 + 17, p37 + 18, p37 + 19, p37 + 20, p37 + 21, p37 + 22, p37 + 23, p37 + 24, p37 + 25, p37 + 26, p37 + 27, p37 + 28, p37 + 29, p37 + 30, p37 + 31, p37 + 32, p37 + 33, p37 + 34, p37 + 35, p37 + 36, p37 + 37, p37 + 38, p37 + 39, 33};
p38 = newp;
Point(p38 + 1) = {20.4017521757867, 0.474327802428049, 0};
Point(p38 + 2) = {20.3753611076562, 0.5842545124444815, 0};
Point(p38 + 3) = {20.33209863129279, 0.6886993696228588, 0};
Point(p38 + 4) = {20.27303001244448, 0.7850905949468416, 0};
Point(p38 + 5) = {20.19960971654482, 0.8710547165448175, 0};
Point(p38 + 6) = {20.11364559494684, 0.9444750124444815, 0};
Point(p38 + 7) = {20.01725436962286, 1.003543631292792, 0};
Point(p38 + 8) = {19.91280951244448, 1.046806107656197, 0};
Point(p38 + 9) = {19.80288280242805, 1.073197175786702, 0};
Point(p38 + 10) = {19.690181, 1.082067, 0};
Point(p38 + 11) = {19.57747919757195, 1.073197175786702, 0};
Point(p38 + 12) = {19.46755248755552, 1.046806107656197, 0};
Point(p38 + 13) = {19.36310763037714, 1.003543631292792, 0};
Point(p38 + 14) = {19.26671640505316, 0.9444750124444815, 0};
Point(p38 + 15) = {19.18075228345518, 0.8710547165448175, 0};
Point(p38 + 16) = {19.10733198755552, 0.7850905949468417, 0};
Point(p38 + 17) = {19.04826336870721, 0.6886993696228589, 0};
Point(p38 + 18) = {19.0050008923438, 0.5842545124444816, 0};
Point(p38 + 19) = {18.9786098242133, 0.4743278024280491, 0};
Point(p38 + 20) = {18.96974, 0.3616260000000001, 0};
Point(p38 + 21) = {18.9786098242133, 0.2489241975719511, 0};
Point(p38 + 22) = {19.0050008923438, 0.1389974875555183, 0};
Point(p38 + 23) = {19.04826336870721, 0.03455263037714157, 0};
Point(p38 + 24) = {19.10733198755552, -0.06183859494684157, 0};
Point(p38 + 25) = {19.18075228345518, -0.1478027165448175, 0};
Point(p38 + 26) = {19.26671640505316, -0.2212230124444814, 0};
Point(p38 + 27) = {19.36310763037714, -0.2802916312927919, 0};
Point(p38 + 28) = {19.46755248755552, -0.3235541076561967, 0};
Point(p38 + 29) = {19.57747919757195, -0.3499451757867016, 0};
Point(p38 + 30) = {19.690181, -0.358815, 0};
Point(p38 + 31) = {19.80288280242805, -0.3499451757867017, 0};
Point(p38 + 32) = {19.91280951244448, -0.3235541076561967, 0};
Point(p38 + 33) = {20.01725436962286, -0.280291631292792, 0};
Point(p38 + 34) = {20.11364559494684, -0.2212230124444816, 0};
Point(p38 + 35) = {20.19960971654482, -0.1478027165448176, 0};
Point(p38 + 36) = {20.27303001244448, -0.0618385949468418, 0};
Point(p38 + 37) = {20.33209863129279, 0.03455263037714107, 0};
Point(p38 + 38) = {20.3753611076562, 0.1389974875555184, 0};
Point(p38 + 39) = {20.4017521757867, 0.2489241975719509, 0};
Spline(38) = {34, p38 + 1, p38 + 2, p38 + 3, p38 + 4, p38 + 5, p38 + 6, p38 + 7, p38 + 8, p38 + 9, p38 + 10, p38 + 11, p38 + 12, p38 + 13, p38 + 14, p38 + 15, p38 + 16, p38 + 17, p38 + 18, p38 + 19, p38 + 20, p38 + 21, p38 + 22, p38 + 23, p38 + 24, p38 + 25, p38 + 26, p38 + 27, p38 + 28, p38 + 29, p38 + 30, p38 + 31, p38 + 32, p38 + 33, p38 + 34, p38 + 35, p38 + 36, p38 + 37, p38 + 38, p38 + 39, 34};
p39 = newp;
Point(p39 + 1) = {6.898432420527495, 2.171150936976619, 0};
Point(p39 + 2) = {6.874130795023238, 2.272374492102329, 0};
Point(p39 + 3) = {6.834293510159611, 2.368550205508215, 0};
Point(p39 + 4) = {6.779901492102328, 2.457309911941332, 0};
Point(p39 + 5) = {6.712294052852718, 2.536468052852718, 0};
Point(p39 + 6) = {6.633135911941331, 2.604075492102329, 0};
Point(p39 + 7) = {6.544376205508215, 2.658467510159612, 0};
Point(p39 + 8) = {6.448200492102329, 2.698304795023238, 0};
Point(p39 + 9) = {6.346976936976619, 2.722606420527496, 0};
Point(p39 + 10) = {6.243198, 2.730774, 0};
Point(p39 + 11) = {6.13941906302338, 2.722606420527496, 0};
Point(p39 + 12) = {6.038195507897671, 2.698304795023238, 0};
Point(p39 + 13) = {5.942019794491785, 2.658467510159612, 0};
Point(p39 + 14) = {5.853260088058668, 2.604075492102329, 0};
Point(p39 + 15) = {5.774101947147281, 2.536468052852718, 0};
Point(p39 + 16) = {5.706494507897671, 2.457309911941332, 0};
Point(p39 + 17) = {5.652102489840388, 2.368550205508215, 0};
Point(p39 + 18) = {5.612265204976762, 2.272374492102329, 0};
Point(p39 + 19) = {5.587963579472504, 2.171150936976619, 0};
Point(p39 + 20) = {5.579796, 2.067372, 0};
Point(p39 + 21) = {5.587963579472504, 1.963593063023381, 0};
Point(p39 + 22) = {5.612265204976762, 1.862369507897671, 0};
Point(p39 + 23) = {5.652102489840388, 1.766193794491786, 0};
Point(p39 + 24) = {5.706494507897671, 1.677434088058669, 0};
Point(p39 + 25) = {5.774101947147281, 1.598275947147282, 0};
Point(p39 + 26) = {5.853260088058668, 1.530668507897671, 0};
Point(p39 + 27) = {5.942019794491785, 1.476276489840389, 0};
Point(p39 + 28) = {6.038195507897671, 1.436439204976763, 0};
Point(p39 + 29) = {6.13941906302338, 1.412137579472505, 0};
Point(p39 + 30) = {6.243198, 1.40397, 0};
Point(p39 + 31) = {6.346976936976619, 1.412137579472505, 0};
Point(p39 + 32) = {6.448200492102329, 1.436439204976763, 0};
Point(p39 + 33) = {6.544376205508215, 1.476276489840389, 0};
Point(p39 + 34) = {6.633135911941331, 1.530668507897671, 0};
Point(p39 + 35) = {6.712294052852718, 1.598275947147282, 0};
Point(p39 + 36) = {6.779901492102328, 1.677434088058669, 0};
Point(p39 + 37) = {6.834293510159611, 1.766193794491785, 0};
Point(p39 + 38) = {6.874130795023238, 1.862369507897671, 0};
Point(p39 + 39) = {6.898432420527495, 1.963593063023381, 0};
Spline(39) = {35, p39 + 1, p39 + 2, p39 + 3, p39 + 4, p39 + 5, p39 + 6, p39 + 7, p39 + 8, p39 + 9, p39 + 10, p39 + 11, p39 + 12, p39 + 13, p39 + 14, p39 + 15, p39 + 16, p39 + 17, p39 + 18, p39 + 19, p39 + 20, p39 + 21, p39 + 22, p39 + 23, p39 + 24, p39 + 25, p39 + 26, p39 + 27, p39 + 28, p39 + 29, p39 + 30, p39 + 31, p39 + 32, p39 + 33, p39 + 34, p39 + 35, p39 + 36, p39 + 37, p39 + 38, p39 + 39, 35};
p40 = newp;
Point(p40 + 1) = {23.03796216272247, 2.957237077836799, 0};
Point(p40 + 2) = {22.99698873460645, 3.127903688548266, 0};
Point(p40 + 3) = {22.92982161743517, 3.290059453768678, 0};
Point(p40 + 4) = {22.83811468854827, 3.439711560394177, 0};
Point(p40 + 5) = {22.72412607689278, 3.573175076892777, 0};
Point(p40 + 6) = {22.59066256039418, 3.687163688548266, 0};
Point(p40 + 7) = {22.44101045376868, 3.778870617435173, 0};
Point(p40 + 8) = {22.27885468854826, 3.846037734606455, 0};
Point(p40 + 9) = {22.1081880778368, 3.887011162722473, 0};
Point(p40 + 10) = {21.933213, 3.900782, 0};
Point(p40 + 11) = {21.7582379221632, 3.887011162722473, 0};
Point(p40 + 12) = {21.58757131145173, 3.846037734606455, 0};
Point(p40 + 13) = {21.42541554623132, 3.778870617435173, 0};
Point(p40 + 14) = {21.27576343960582, 3.687163688548266, 0};
Point(p40 + 15) = {21.14229992310722, 3.573175076892777, 0};
Point(p40 + 16) = {21.02831131145173, 3.439711560394177, 0};
Point(p40 + 17) = {20.93660438256483, 3.290059453768678, 0};
Point(p40 + 18) = {20.86943726539354, 3.127903688548266, 0};
Point(p40 + 19) = {20.82846383727752, 2.957237077836799, 0};
Point(p40 + 20) = {20.814693, 2.782262, 0};
Point(p40 + 21) = {20.82846383727752, 2.607286922163201, 0};
Point(p40 + 22) = {20.86943726539354, 2.436620311451733, 0};
Point(p40 + 23) = {20.93660438256482, 2.274464546231322, 0};
Point(p40 + 24) = {21.02831131145173, 2.124812439605823, 0};
Point(p40 + 25) = {21.14229992310722, 1.991348923107223, 0};
Point(p40 + 26) = {21.27576343960582, 1.877360311451734, 0};
Point(p40 + 27) = {21.42541554623132, 1.785653382564827, 0};
Point(p40 + 28) = {21.58757131145173, 1.718486265393545, 0};
Point(p40 + 29) = {21.7582379221632, 1.677512837277527, 0};
Point(p40 + 30) = {21.933213, 1.663742, 0};
Point(p40 + 31) = {22.1081880778368, 1.677512837277526, 0};
Point(p40 + 32) = {22.27885468854826, 1.718486265393545, 0};
Point(p40 + 33) = {22.44101045376868, 1.785653382564826, 0};
Point(p40 + 34) = {22.59066256039418, 1.877360311451733, 0};
Point(p40 + 35) = {22.72412607689278, 1.991348923107223, 0};
Point(p40 + 36) = {22.83811468854826, 2.124812439605822, 0};
Point(p40 + 37) = {22.92982161743517, 2.274464546231322, 0};
Point(p40 + 38) = {22.99698873460645, 2.436620311451733, 0};
Point(p40 + 39) = {23.03796216272247, 2.607286922163201, 0};
Spline(40) = {36, p40 + 1, p40 + 2, p40 + 3, p40 + 4, p40 + 5, p40 + 6, p40 + 7, p40 + 8, p40 + 9, p40 + 10, p40 + 11, p40 + 12, p40 + 13, p40 + 14, p40 + 15, p40 + 16, p40 + 17, p40 + 18, p40 + 19, p40 + 20, p40 + 21, p40 + 22, p40 + 23, p40 + 24, p40 + 25, p40 + 26, p40 + 27, p40 + 28, p40 + 29, p40 + 30, p40 + 31, p40 + 32, p40 + 33, p40 + 34, p40 + 35, p40 + 36, p40 + 37, p40 + 38, p40 + 39, 36};
Line(41) = {30, 15};
Line(42) = {23, 8};
Line(43) = {24, 9};
Line(44) = {25, 10};
Line(45) = {26, 11};
Line(46) = {27, 12};
Line(47) = {28, 13};
Line(48) = {29, 14};
Line(49) = {31, 16};
Line(50) = {32, 17};
Line(51) = {33, 18};
Line(52) = {34, 19};
Line(53) = {35, 20};
Line(54) = {36, 21};
Curve Loop(1) = {-1, 4, 3, -2};
Plane Surface(1) = {1};
Curve Loop(2) = {-5, 1, 7, -6};
Plane Surface(2) = {2};
Curve Loop(3) = {-8, -2, 7, 17, -16, -15, -14, -13, -12, -11, -10, -9, -18, -19, -20, -21, -22, -23};
Plane Surface(3) = {3};
Curve Loop(4) = {-24, 3, 8, -25};
Plane Surface(4) = {4};
Curve Loop(5) = {-24, -4, 5, 34, -33, -32, -31, -30, -29, -28, -27, -26, -35, -36, -37, -38, -39, -40};
Plane Surface(5) = {5};
Curve Loop(6) = {-6, 34, 41, -17};
Plane Surface(6) = {6};
Curve Loop(7) = {-9, -25, 26, 42};
Surface(7) = {7};
Curve Loop(8) = {-10, -42, 27, 43};
Surface(8) = {8};
Curve Loop(9) = {44, -11, -43, 28};
Surface(9) = {9};
Curve Loop(10) = {-12, -44, 29, 45};
Surface(10) = {10};
Curve Loop(11) = {-13, -45, 30, 46};
Surface(11) = {11};
Curve Loop(12) = {47, -14, -46, 31};
Surface(12) = {12};
Curve Loop(13) = {-15, -47, 32, 48};
Surface(13) = {13};
Curve Loop(14) = {-33, 48, 16, -41};
Plane Surface(14) = {14};
Curve Loop(15) = {-18, -49, 35, 49};
Surface(15) = {15};
Curve Loop(16) = {-19, -50, 36, 50};
Surface(16) = {16};
Curve Loop(17) = {-20, -51, 37, 51};
Surface(17) = {17};
Curve Loop(18) = {-21, -52, 38, 52};
Surface(18) = {18};
Curve Loop(19) = {-22, -53, 39, 53};
Surface(19) = {19};
Curve Loop(20) = {-23, -54, 40, 54};
Surface(20) = {20};
Surface Loop(1) = {1, 2, 3, 4, 5, 6, 7, 8, 9, 10, 11, 12, 13, 14, 15, 16, 17, 18, 19, 20};
Volume(1) = {1};
Physical Surface("INFLOW") = {1};
Physical Surface("OUTFLOW") = {6};
Physical Surface("OBSTACLE") = {7};
Physical Surface("WALL_Y") = {2, 4};
Physical Surface("WALL_Z") = {3, 5};
Physical Volume("FLUID") = {1};
