cl__1 = 3.276926;
cl__2 = 1.238715;
cl__3 = 0.238591;
cl__4 = 0.144882;
cl__5 = 0.06955500000000001;
Point(1) = {0.484231, -3.981316, 1, cl__1};
Point(2) = {0.484231, -3.981316, 0, cl__1};
Point(3) = {0.484231, 4.135159, 1, cl__2};
Point(4) = {0.484231, 4.135159, 0, cl__2};
Point(5) = {32.516997, -3.981316, 0, cl__3};
Point(6) = {32.516997, -3.981316, 1, cl__3};
Point(7) = {32.516997, 4.135159, 1, cl__2};
Point(8) = {4.927243000000001, -1.585489, 1, cl__4};
Point(9) = {21.019767, 0.7613769999999999, 1, cl__5};
Point(10) = {32.516997, 4.135159, 0, cl__2};
Point(11) = {4.927243000000001, -1.585489, 0, cl__4};
Point(12) = {21.019767, 0.7613769999999999, 0, cl__5};
Line(1) = {2, 1};
Line(2) = {1, 3};
Line(3) = {4, 3};
Line(4) = {2, 4};
Line(5) = {2, 5};
Line(6) = {5, 6};
Line(7) = {1, 6};
Line(8) = {3, 7};
Line(9) = {6, 7};
p10 = newp;
Point(p10 + 1) = {4.909405584686069, -1.358843149057018, 1};
Point(p10 + 2) = {4.856332555108293, -1.137778071158706, 1};
Point(p10 + 3) = {4.769330745394163, -0.9277371221958506, 1};
Point(p10 + 4) = {4.650542428841295, -0.7338922074178621, 1};
Point(p10 + 5) = {4.502892568039037, -0.5610164319609627, 1};
Point(p10 + 6) = {4.330016792582137, -0.4133665711587056, 1};
Point(p10 + 7) = {4.136171877804149, -0.2945782546058364, 1};
Point(p10 + 8) = {3.926130928841294, -0.2075764448917068, 1};
Point(p10 + 9) = {3.705065850942982, -0.1545034153139306, 1};
Point(p10 + 10) = {3.47842, -0.136666, 1};
Point(p10 + 11) = {3.251774149057017, -0.1545034153139309, 1};
Point(p10 + 12) = {3.030709071158705, -0.2075764448917066, 1};
Point(p10 + 13) = {2.820668122195851, -0.2945782546058362, 1};
Point(p10 + 14) = {2.626823207417862, -0.4133665711587056, 1};
Point(p10 + 15) = {2.453947431960962, -0.5610164319609625, 1};
Point(p10 + 16) = {2.306297571158705, -0.733892207417862, 1};
Point(p10 + 17) = {2.187509254605836, -0.9277371221958505, 1};
Point(p10 + 18) = {2.100507444891707, -1.137778071158705, 1};
Point(p10 + 19) = {2.047434415313931, -1.358843149057017, 1};
Point(p10 + 20) = {2.029597, -1.585489, 1};
Point(p10 + 21) = {2.047434415313931, -1.812134850942982, 1};
Point(p10 + 22) = {2.100507444891707, -2.033199928841295, 1};
Point(p10 + 23) = {2.187509254605836, -2.243240877804149, 1};
Point(p10 + 24) = {2.306297571158705, -2.437085792582137, 1};
Point(p10 + 25) = {2.453947431960962, -2.609961568039037, 1};
Point(p10 + 26) = {2.626823207417862, -2.757611428841294, 1};
Point(p10 + 27) = {2.82066812219585, -2.876399745394163, 1};
Point(p10 + 28) = {3.030709071158705, -2.963401555108293, 1};
Point(p10 + 29) = {3.251774149057017, -3.016474584686069, 1};
Point(p10 + 30) = {3.478419999999999, -3.034312, 1};
Point(p10 + 31) = {3.705065850942982, -3.016474584686069, 1};
Point(p10 + 32) = {3.926130928841294, -2.963401555108293, 1};
Point(p10 + 33) = {4.136171877804149, -2.876399745394163, 1};
Point(p10 + 34) = {4.330016792582137, -2.757611428841295, 1};
Point(p10 + 35) = {4.502892568039037, -2.609961568039037, 1};
Point(p10 + 36) = {4.650542428841295, -2.437085792582138, 1};
Point(p10 + 37) = {4.769330745394163, -2.243240877804149, 1};
Point(p10 + 38) = {4.856332555108293, -2.033199928841295, 1};
Point(p10 + 39) = {4.909405584686069, -1.812134850942983, 1};
Spline(10) = {8, p10 + 1, p10 + 2, p10 + 3, p10 + 4, p10 + 5, p10 + 6, p10 + 7, p10 + 8, p10 + 9, p10 + 10, p10 + 11, p10 + 12, p10 + 13, p10 + 14, p10 + 15, p10 + 16, p10 + 17, p10 + 18, p10 + 19, p10 + 20, p10 + 21, p10 + 22, p10 + 23, p10 + 24, p10 + 25, p10 + 26, p10 + 27, p10 + 28, p10 + 29, p10 + 30, p10 + 31, p10 + 32, p10 + 33, p10 + 34, p10 + 35, p10 + 36, p10 + 37, p10 + 38, p10 + 39, 8};
p11 = newp;
Point(p11 + 1) = {21.01120364992427, 0.8701846792898025, 1};
Point(p11 + 2) = {20.98572445779606, 0.9763131524035059, 1};
Point(p11 + 3) = {20.94395680588617, 1.077149184112842, 1};
Point(p11 + 4) = {20.88692915240351, 1.170209856661525, 1};
Point(p11 + 5) = {20.81604570744074, 1.253203707440741, 1};
Point(p11 + 6) = {20.73305185666153, 1.324087152403506, 1};
Point(p11 + 7) = {20.63999118411284, 1.381114805886171, 1};
Point(p11 + 8) = {20.53915515240351, 1.422882457796061, 1};
Point(p11 + 9) = {20.4330266792898, 1.448361649924267, 1};
Point(p11 + 10) = {20.324219, 1.456925, 1};
Point(p11 + 11) = {20.2154113207102, 1.448361649924267, 1};
Point(p11 + 12) = {20.10928284759649, 1.422882457796061, 1};
Point(p11 + 13) = {20.00844681588716, 1.381114805886171, 1};
Point(p11 + 14) = {19.91538614333847, 1.324087152403506, 1};
Point(p11 + 15) = {19.83239229255926, 1.253203707440741, 1};
Point(p11 + 16) = {19.76150884759649, 1.170209856661525, 1};
Point(p11 + 17) = {19.70448119411383, 1.077149184112842, 1};
Point(p11 + 18) = {19.66271354220394, 0.976313152403506, 1};
Point(p11 + 19) = {19.63723435007573, 0.8701846792898026, 1};
Point(p11 + 20) = {19.628671, 0.7613770000000001, 1};
Point(p11 + 21) = {19.63723435007573, 0.6525693207101976, 1};
Point(p11 + 22) = {19.66271354220394, 0.5464408475964938, 1};
Point(p11 + 23) = {19.70448119411383, 0.4456048158871581, 1};
Point(p11 + 24) = {19.76150884759649, 0.3525441433384749, 1};
Point(p11 + 25) = {19.83239229255926, 0.2695502925592592, 1};
Point(p11 + 26) = {19.91538614333847, 0.198666847596494, 1};
Point(p11 + 27) = {20.00844681588716, 0.1416391941138291, 1};
Point(p11 + 28) = {20.10928284759649, 0.09987154220393846, 1};
Point(p11 + 29) = {20.2154113207102, 0.07439235007573308, 1};
Point(p11 + 30) = {20.324219, 0.06582899999999992, 1};
Point(p11 + 31) = {20.4330266792898, 0.07439235007573308, 1};
Point(p11 + 32) = {20.53915515240351, 0.09987154220393835, 1};
Point(p11 + 33) = {20.63999118411284, 0.141639194113829, 1};
Point(p11 + 34) = {20.73305185666153, 0.1986668475964939, 1};
Point(p11 + 35) = {20.81604570744074, 0.2695502925592591, 1};
Point(p11 + 36) = {20.88692915240351, 0.3525441433384747, 1};
Point(p11 + 37) = {20.94395680588617, 0.4456048158871575, 1};
Point(p11 + 38) = {20.98572445779606, 0.5464408475964939, 1};
Point(p11 + 39) = {21.01120364992427, 0.6525693207101974, 1};
Spline(11) = {9, p11 + 1, p11 + 2, p11 + 3, p11 + 4, p11 + 5, p11 + 6, p11 + 7, p11 + 8, p11 + 9, p11 + 10, p11 + 11, p11 + 12, p11 + 13, p11 + 14, p11 + 15, p11 + 16, p11 + 17, p11 + 18, p11 + 19, p11 + 20, p11 + 21, p11 + 22, p11 + 23, p11 + 24, p11 + 25, p11 + 26, p11 + 27, p11 + 28, p11 + 29, p11 + 30, p11 + 31, p11 + 32, p11 + 33, p11 + 34, p11 + 35, p11 + 36, p11 + 37, p11 + 38, p11 + 39, 9};
Line(12) = {4, 10};
Line(13) = {10, 7};
Line(14) = {5, 10};
p15 = newp;
Point(p15 + 1) = {4.909405584686069, -1.358843149057018, 0};
Point(p15 + 2) = {4.856332555108293, -1.137778071158706, 0};
Point(p15 + 3) = {4.769330745394163, -0.9277371221958506, 0};
Point(p15 + 4) = {4.650542428841295, -0.7338922074178621, 0};
Point(p15 + 5) = {4.502892568039037, -0.5610164319609627, 0};
Point(p15 + 6) = {4.330016792582137, -0.4133665711587056, 0};
Point(p15 + 7) = {4.136171877804149, -0.2945782546058364, 0};
Point(p15 + 8) = {3.926130928841294, -0.2075764448917068, 0};
Point(p15 + 9) = {3.705065850942982, -0.1545034153139306, 0};
Point(p15 + 10) = {3.47842, -0.136666, 0};
Point(p15 + 11) = {3.251774149057017, -0.1545034153139309, 0};
Point(p15 + 12) = {3.030709071158705, -0.2075764448917066, 0};
Point(p15 + 13) = {2.820668122195851, -0.2945782546058362, 0};
Point(p15 + 14) = {2.626823207417862, -0.4133665711587056, 0};
Point(p15 + 15) = {2.453947431960962, -0.5610164319609625, 0};
Point(p15 + 16) = {2.306297571158705, -0.733892207417862, 0};
Point(p15 + 17) = {2.187509254605836, -0.9277371221958505, 0};
Point(p15 + 18) = {2.100507444891707, -1.137778071158705, 0};
Point(p15 + 19) = {2.047434415313931, -1.358843149057017, 0};
Point(p15 + 20) = {2.029597, -1.585489, 0};
Point(p15 + 21) = {2.047434415313931, -1.812134850942982, 0};
Point(p15 + 22) = {2.100507444891707, -2.033199928841295, 0};
Point(p15 + 23) = {2.187509254605836, -2.243240877804149, 0};
Point(p15 + 24) = {2.306297571158705, -2.437085792582137, 0};
Point(p15 + 25) = {2.453947431960962, -2.609961568039037, 0};
Point(p15 + 26) = {2.626823207417862, -2.757611428841294, 0};
Point(p15 + 27) = {2.82066812219585, -2.876399745394163, 0};
Point(p15 + 28) = {3.030709071158705, -2.963401555108293, 0};
Point(p15 + 29) = {3.251774149057017, -3.016474584686069, 0};
Point(p15 + 30) = {3.478419999999999, -3.034312, 0};
Point(p15 + 31) = {3.705065850942982, -3.016474584686069, 0};
Point(p15 + 32) = {3.926130928841294, -2.963401555108293, 0};
Point(p15 + 33) = {4.136171877804149, -2.876399745394163, 0};
Point(p15 + 34) = {4.330016792582137, -2.757611428841295, 0};
Point(p15 + 35) = {4.502892568039037, -2.609961568039037, 0};
Point(p15 + 36) = {4.650542428841295, -2.437085792582138, 0};
Point(p15 + 37) = {4.769330745394163, -2.243240877804149, 0};
Point(p15 + 38) = {4.856332555108293, -2.033199928841295, 0};
Point(p15 + 39) = {4.909405584686069, -1.812134850942983, 0};
Spline(15) = {11, p15 + 1, p15 + 2, p15 + 3, p15 + 4, p15 + 5, p15 + 6, p15 + 7, p15 + 8, p15 + 9, p15 + 10, p15 + 11, p15 + 12, p15 + 13, p15 + 14, p15 + 15, p15 + 16, p15 + 17, p15 + 18, p15 + 19, p15 + 20, p15 + 21, p15 + 22, p15 + 23, p15 + 24, p15 + 25, p15 + 26, p15 + 27, p15 + 28, p15 + 29, p15 + 30, p15 + 31, p15 + 32, p15 + 33, p15 + 34, p15 + 35, p15 + 36, p15 + 37, p15 + 38, p15 + 39, 11};
p16 = newp;
Point(p16 + 1) = {21.01120364992427, 0.8701846792898025, 0};
Point(p16 + 2) = {20.98572445779606, 0.9763131524035059, 0};
Point(p16 + 3) = {20.94395680588617, 1.077149184112842, 0};
Point(p16 + 4) = {20.88692915240351, 1.170209856661525, 0};
Point(p16 + 5) = {20.81604570744074, 1.253203707440741, 0};
Point(p16 + 6) = {20.73305185666153, 1.324087152403506, 0};
Point(p16 + 7) = {20.63999118411284, 1.381114805886171, 0};
Point(p16 + 8) = {20.53915515240351, 1.422882457796061, 0};
Point(p16 + 9) = {20.4330266792898, 1.448361649924267, 0};
Point(p16 + 10) = {20.324219, 1.456925, 0};
Point(p16 + 11) = {20.2154113207102, 1.448361649924267, 0};
Point(p16 + 12) = {20.10928284759649, 1.422882457796061, 0};
Point(p16 + 13) = {20.00844681588716, 1.381114805886171, 0};
Point(p16 + 14) = {19.91538614333847, 1.324087152403506, 0};
Point(p16 + 15) = {19.83239229255926, 1.253203707440741, 0};
Point(p16 + 16) = {19.76150884759649, 1.170209856661525, 0};
Point(p16 + 17) = {19.70448119411383, 1.077149184112842, 0};
Point(p16 + 18) = {19.66271354220394, 0.976313152403506, 0};
Point(p16 + 19) = {19.63723435007573, 0.8701846792898026, 0};
Point(p16 + 20) = {19.628671, 0.7613770000000001, 0};
Point(p16 + 21) = {19.63723435007573, 0.6525693207101976, 0};
Point(p16 + 22) = {19.66271354220394, 0.5464408475964938, 0};
Point(p16 + 23) = {19.70448119411383, 0.4456048158871581, 0};
Point(p16 + 24) = {19.76150884759649, 0.3525441433384749, 0};
Point(p16 + 25) = {19.83239229255926, 0.2695502925592592, 0};
Point(p16 + 26) = {19.91538614333847, 0.198666847596494, 0};
Point(p16 + 27) = {20.00844681588716, 0.1416391941138291, 0};
Point(p16 + 28) = {20.10928284759649, 0.09987154220393846, 0};
Point(p16 + 29) = {20.2154113207102, 0.07439235007573308, 0};
Point(p16 + 30) = {20.324219, 0.06582899999999992, 0};
Point(p16 + 31) = {20.4330266792898, 0.07439235007573308, 0};
Point(p16 + 32) = {20.53915515240351, 0.09987154220393835, 0};
Point(p16 + 33) = {20.63999118411284, 0.141639194113829, 0};
Point(p16 + 34) = {20.73305185666153, 0.1986668475964939, 0};
Point(p16 + 35) = {20.81604570744074, 0.2695502925592591, 0};
Point(p16 + 36) = {20.88692915240351, 0.3525441433384747, 0};
Point(p16 + 37) = {20.94395680588617, 0.4456048158871575, 0};
Point(p16 + 38) = {20.98572445779606, 0.5464408475964939, 0};
Point(p16 + 39) = {21.01120364992427, 0.6525693207101974, 0};
Spline(16) = {12, p16 + 1, p16 + 2, p16 + 3, p16 + 4, p16 + 5, p16 + 6, p16 + 7, p16 + 8, p16 + 9, p16 + 10, p16 + 11, p16 + 12, p16 + 13, p16 + 14, p16 + 15, p16 + 16, p16 + 17, p16 + 18, p16 + 19, p16 + 20, p16 + 21, p16 + 22, p16 + 23, p16 + 24, p16 + 25, p16 + 26, p16 + 27, p16 + 28, p16 + 29, p16 + 30, p16 + 31, p16 + 32, p16 + 33, p16 + 34, p16 + 35, p16 + 36, p16 + 37, p16 + 38, p16 + 39, 12};
Line(17) = {11, 8};
Line(18) = {12, 9};
Curve Loop(1) = {-1, 4, 3, -2};
Plane Surface(1) = {1};
Curve Loop(2) = {-5, 1, 7, -6};
Plane Surface(2) = {2};
Curve Loop(3) = {-2, 7, 9, -8, -10, -11};
Plane Surface(3) = {3};
Curve Loop(4) = {-12, 3, 8, -13};
Plane Surface(4) = {4};
Curve Loop(5) = {-4, 5, 14, -12, -15, -16};
Plane Surface(5) = {5};
Curve Loop(6) = {-6, 14, 13, -9};
Plane Surface(6) = {6};
Curve Loop(7) = {-10, -17, 15, 17};
Surface(7) = {7};
Curve Loop(8) = {-11, -18, 16, 18};
Surface(8) = {8};
Surface Loop(1) = {1, 2, 3, 4, 5, 6, 7, 8};
Volume(1) = {1};
Physical Surface("INFLOW") = {1};
Physical Surface("OUTFLOW") = {6};
Physical Surface("OBSTACLE") = {7, 8};
Physical Surface("WALL_Y") = {2, 4};
Physical Surface("WALL_Z") = {3, 5};
Physical Volume("FLUID") = {1};
