cl__1 = 1.748853;
cl__2 = 3.789439;
cl__3 = 1.410329;
cl__4 = 0.113363;
cl__5 = 0.076872;
Point(1) = {0.711395, -3.766811, 1, cl__1};
Point(2) = {0.711395, -3.766811, 0, cl__1};
Point(3) = {0.711395, 5.423774999999999, 1, cl__2};
Point(4) = {0.711395, 5.423774999999999, 0, cl__2};
Point(5) = {37.614736, -3.766811, 0, cl__3};
Point(6) = {37.614736, -3.766811, 1, cl__3};
Point(7) = {37.614736, 5.423774999999999, 1, cl__2};
Point(8) = {16.714595, -0.4412240000000003, 1, cl__4};
Point(9) = {19.179578, 0.7115859999999999, 1, cl__5};
Point(10) = {37.614736, 5.423774999999999, 0, cl__2};
Point(11) = {16.714595, -0.4412240000000003, 0, cl__4};
Point(12) = {19.179578, 0.7115859999999999, 0, cl__5};
Line(1) = {2, 1};
Line(2) = {1, 3};
Line(3) = {4, 3};
Line(4) = {2, 4};
Line(5) = {2, 5};
Line(6) = {5, 6};
Line(7) = {1, 6};
Line(8) = {3, 7};
Line(9) = {6, 7};
p10 = newp;
Point(p10 + 1) = {16.70063815817218, -0.2638855102653732, 1};
Point(p10 + 2) = {16.65911129645464, -0.09091368270071709, 1};
Point(p10 + 3) = {16.59103694400261, 0.0734323422387429, 1};
Point(p10 + 4) = {16.49809131729928, 0.2251058199858118, 1};
Point(p10 + 5) = {16.38256304614294, 0.3603720461429434, 1};
Point(p10 + 6) = {16.24729681998581, 0.475900317299283, 1};
Point(p10 + 7) = {16.09562334223874, 0.568845944002611, 1};
Point(p10 + 8) = {15.93127731729928, 0.6369202964546423, 1};
Point(p10 + 9) = {15.75830548973463, 0.6784471581721849, 1};
Point(p10 + 10) = {15.580967, 0.692404, 1};
Point(p10 + 11) = {15.40362851026537, 0.6784471581721847, 1};
Point(p10 + 12) = {15.23065668270072, 0.6369202964546425, 1};
Point(p10 + 13) = {15.06631065776126, 0.5688459440026112, 1};
Point(p10 + 14) = {14.91463718001419, 0.475900317299283, 1};
Point(p10 + 15) = {14.77937095385706, 0.3603720461429437, 1};
Point(p10 + 16) = {14.66384268270072, 0.2251058199858119, 1};
Point(p10 + 17) = {14.57089705599739, 0.07343234223874301, 1};
Point(p10 + 18) = {14.50282270354536, -0.09091368270071698, 1};
Point(p10 + 19) = {14.46129584182781, -0.263885510265373, 1};
Point(p10 + 20) = {14.447339, -0.4412239999999998, 1};
Point(p10 + 21) = {14.46129584182781, -0.6185624897346267, 1};
Point(p10 + 22) = {14.50282270354536, -0.7915343172992833, 1};
Point(p10 + 23) = {14.57089705599739, -0.9558803422387423, 1};
Point(p10 + 24) = {14.66384268270072, -1.107553819985812, 1};
Point(p10 + 25) = {14.77937095385706, -1.242820046142944, 1};
Point(p10 + 26) = {14.91463718001419, -1.358348317299283, 1};
Point(p10 + 27) = {15.06631065776126, -1.451293944002611, 1};
Point(p10 + 28) = {15.23065668270072, -1.519368296454642, 1};
Point(p10 + 29) = {15.40362851026537, -1.560895158172185, 1};
Point(p10 + 30) = {15.580967, -1.574852, 1};
Point(p10 + 31) = {15.75830548973463, -1.560895158172185, 1};
Point(p10 + 32) = {15.93127731729928, -1.519368296454643, 1};
Point(p10 + 33) = {16.09562334223874, -1.451293944002611, 1};
Point(p10 + 34) = {16.24729681998581, -1.358348317299283, 1};
Point(p10 + 35) = {16.38256304614294, -1.242820046142944, 1};
Point(p10 + 36) = {16.49809131729928, -1.107553819985812, 1};
Point(p10 + 37) = {16.59103694400261, -0.9558803422387432, 1};
Point(p10 + 38) = {16.65911129645464, -0.7915343172992831, 1};
Point(p10 + 39) = {16.70063815817218, -0.6185624897346271, 1};
Spline(10) = {8, p10 + 1, p10 + 2, p10 + 3, p10 + 4, p10 + 5, p10 + 6, p10 + 7, p10 + 8, p10 + 9, p10 + 10, p10 + 11, p10 + 12, p10 + 13, p10 + 14, p10 + 15, p10 + 16, p10 + 17, p10 + 18, p10 + 19, p10 + 20, p10 + 21, p10 + 22, p10 + 23, p10 + 24, p10 + 25, p10 + 26, p10 + 27, p10 + 28, p10 + 29, p10 + 30, p10 + 31, p10 + 32, p10 + 33, p10 + 34, p10 + 35, p10 + 36, p10 + 37, p10 + 38, p10 + 39, 8};
p11 = newp;
Point(p11 + 1) = {19.17011381811727, 0.8318398326623312, 1};
Point(p11 + 2) = {19.14195431203686, 0.9491326168649264, 1};
Point(p11 + 3) = {19.09579286225451, 1.060576214988285, 1};
Point(p11 + 4) = {19.03276611686493, 1.163426515786513, 1};
Point(p11 + 5) = {18.95442600351338, 1.255151003513379, 1};
Point(p11 + 6) = {18.86270151578652, 1.333491116864927, 1};
Point(p11 + 7) = {18.75985121498828, 1.39651786225451, 1};
Point(p11 + 8) = {18.64840761686493, 1.442679312036862, 1};
Point(p11 + 9) = {18.53111483266233, 1.470838818117273, 1};
Point(p11 + 10) = {18.410861, 1.480303, 1};
Point(p11 + 11) = {18.29060716733767, 1.470838818117272, 1};
Point(p11 + 12) = {18.17331438313508, 1.442679312036862, 1};
Point(p11 + 13) = {18.06187078501172, 1.39651786225451, 1};
Point(p11 + 14) = {17.95902048421349, 1.333491116864927, 1};
Point(p11 + 15) = {17.86729599648662, 1.255151003513379, 1};
Point(p11 + 16) = {17.78895588313507, 1.163426515786513, 1};
Point(p11 + 17) = {17.72592913774549, 1.060576214988285, 1};
Point(p11 + 18) = {17.67976768796314, 0.9491326168649266, 1};
Point(p11 + 19) = {17.65160818188273, 0.8318398326623313, 1};
Point(p11 + 20) = {17.642144, 0.7115860000000002, 1};
Point(p11 + 21) = {17.65160818188273, 0.591332167337669, 1};
Point(p11 + 22) = {17.67976768796314, 0.4740393831350733, 1};
Point(p11 + 23) = {17.72592913774549, 0.3625957850117153, 1};
Point(p11 + 24) = {17.78895588313507, 0.2597454842134871, 1};
Point(p11 + 25) = {17.86729599648662, 0.1680209964866208, 1};
Point(p11 + 26) = {17.95902048421349, 0.08968088313507372, 1};
Point(p11 + 27) = {18.06187078501172, 0.02665413774549052, 1};
Point(p11 + 28) = {18.17331438313508, -0.01950731203686151, 1};
Point(p11 + 29) = {18.29060716733767, -0.04766681811727236, 1};
Point(p11 + 30) = {18.410861, -0.05713099999999993, 1};
Point(p11 + 31) = {18.53111483266233, -0.04766681811727247, 1};
Point(p11 + 32) = {18.64840761686493, -0.01950731203686151, 1};
Point(p11 + 33) = {18.75985121498828, 0.02665413774549041, 1};
Point(p11 + 34) = {18.86270151578652, 0.0896808831350735, 1};
Point(p11 + 35) = {18.95442600351338, 0.1680209964866207, 1};
Point(p11 + 36) = {19.03276611686493, 0.2597454842134868, 1};
Point(p11 + 37) = {19.09579286225451, 0.3625957850117147, 1};
Point(p11 + 38) = {19.14195431203686, 0.4740393831350734, 1};
Point(p11 + 39) = {19.17011381811727, 0.5913321673376687, 1};
Spline(11) = {9, p11 + 1, p11 + 2, p11 + 3, p11 + 4, p11 + 5, p11 + 6, p11 + 7, p11 + 8, p11 + 9, p11 + 10, p11 + 11, p11 + 12, p11 + 13, p11 + 14, p11 + 15, p11 + 16, p11 + 17, p11 + 18, p11 + 19, p11 + 20, p11 + 21, p11 + 22, p11 + 23, p11 + 24, p11 + 25, p11 + 26, p11 + 27, p11 + 28, p11 + 29, p11 + 30, p11 + 31, p11 + 32, p11 + 33, p11 + 34, p11 + 35, p11 + 36, p11 + 37, p11 + 38, p11 + 39, 9};
Line(12) = {4, 10};
Line(13) = {10, 7};
Line(14) = {5, 10};
p15 = newp;
Point(p15 + 1) = {16.70063815817218, -0.2638855102653732, 0};
Point(p15 + 2) = {16.65911129645464, -0.09091368270071709, 0};
Point(p15 + 3) = {16.59103694400261, 0.0734323422387429, 0};
Point(p15 + 4) = {16.49809131729928, 0.2251058199858118, 0};
Point(p15 + 5) = {16.38256304614294, 0.3603720461429434, 0};
Point(p15 + 6) = {16.24729681998581, 0.475900317299283, 0};
Point(p15 + 7) = {16.09562334223874, 0.568845944002611, 0};
Point(p15 + 8) = {15.93127731729928, 0.6369202964546423, 0};
Point(p15 + 9) = {15.75830548973463, 0.6784471581721849, 0};
Point(p15 + 10) = {15.580967, 0.692404, 0};
Point(p15 + 11) = {15.40362851026537, 0.6784471581721847, 0};
Point(p15 + 12) = {15.23065668270072, 0.6369202964546425, 0};
Point(p15 + 13) = {15.06631065776126, 0.5688459440026112, 0};
Point(p15 + 14) = {14.91463718001419, 0.475900317299283, 0};
Point(p15 + 15) = {14.77937095385706, 0.3603720461429437, 0};
Point(p15 + 16) = {14.66384268270072, 0.2251058199858119, 0};
Point(p15 + 17) = {14.57089705599739, 0.07343234223874301, 0};
Point(p15 + 18) = {14.50282270354536, -0.09091368270071698, 0};
Point(p15 + 19) = {14.46129584182781, -0.263885510265373, 0};
Point(p15 + 20) = {14.447339, -0.4412239999999998, 0};
Point(p15 + 21) = {14.46129584182781, -0.6185624897346267, 0};
Point(p15 + 22) = {14.50282270354536, -0.7915343172992833, 0};
Point(p15 + 23) = {14.57089705599739, -0.9558803422387423, 0};
Point(p15 + 24) = {14.66384268270072, -1.107553819985812, 0};
Point(p15 + 25) = {14.77937095385706, -1.242820046142944, 0};
Point(p15 + 26) = {14.91463718001419, -1.358348317299283, 0};
Point(p15 + 27) = {15.06631065776126, -1.451293944002611, 0};
Point(p15 + 28) = {15.23065668270072, -1.519368296454642, 0};
Point(p15 + 29) = {15.40362851026537, -1.560895158172185, 0};
Point(p15 + 30) = {15.580967, -1.574852, 0};
Point(p15 + 31) = {15.75830548973463, -1.560895158172185, 0};
Point(p15 + 32) = {15.93127731729928, -1.519368296454643, 0};
Point(p15 + 33) = {16.09562334223874, -1.451293944002611, 0};
Point(p15 + 34) = {16.24729681998581, -1.358348317299283, 0};
Point(p15 + 35) = {16.38256304614294, -1.242820046142944, 0};
Point(p15 + 36) = {16.49809131729928, -1.107553819985812, 0};
Point(p15 + 37) = {16.59103694400261, -0.9558803422387432, 0};
Point(p15 + 38) = {16.65911129645464, -0.7915343172992831, 0};
Point(p15 + 39) = {16.70063815817218, -0.6185624897346271, 0};
Spline(15) = {11, p15 + 1, p15 + 2, p15 + 3, p15 + 4, p15 + 5, p15 + 6, p15 + 7, p15 + 8, p15 + 9, p15 + 10, p15 + 11, p15 + 12, p15 + 13, p15 + 14, p15 + 15, p15 + 16, p15 + 17, p15 + 18, p15 + 19, p15 + 20, p15 + 21, p15 + 22, p15 + 23, p15 + 24, p15 + 25, p15 + 26, p15 + 27, p15 + 28, p15 + 29, p15 + 30, p15 + 31, p15 + 32, p15 + 33, p15 + 34, p15 + 35, p15 + 36, p15 + 37, p15 + 38, p15 + 39, 11};
p16 = newp;
Point(p16 + 1) = {19.17011381811727, 0.8318398326623312, 0};
Point(p16 + 2) = {19.14195431203686, 0.9491326168649264, 0};
Point(p16 + 3) = {19.09579286225451, 1.060576214988285, 0};
Point(p16 + 4) = {19.03276611686493, 1.163426515786513, 0};
Point(p16 + 5) = {18.95442600351338, 1.255151003513379, 0};
Point(p16 + 6) = {18.86270151578652, 1.333491116864927, 0};
Point(p16 + 7) = {18.75985121498828, 1.39651786225451, 0};
Point(p16 + 8) = {18.64840761686493, 1.442679312036862, 0};
Point(p16 + 9) = {18.53111483266233, 1.470838818117273, 0};
Point(p16 + 10) = {18.410861, 1.480303, 0};
Point(p16 + 11) = {18.29060716733767, 1.470838818117272, 0};
Point(p16 + 12) = {18.17331438313508, 1.442679312036862, 0};
Point(p16 + 13) = {18.06187078501172, 1.39651786225451, 0};
Point(p16 + 14) = {17.95902048421349, 1.333491116864927, 0};
Point(p16 + 15) = {17.86729599648662, 1.255151003513379, 0};
Point(p16 + 16) = {17.78895588313507, 1.163426515786513, 0};
Point(p16 + 17) = {17.72592913774549, 1.060576214988285, 0};
Point(p16 + 18) = {17.67976768796314, 0.9491326168649266, 0};
Point(p16 + 19) = {17.65160818188273, 0.8318398326623313, 0};
Point(p16 + 20) = {17.642144, 0.7115860000000002, 0};
Point(p16 + 21) = {17.65160818188273, 0.591332167337669, 0};
Point(p16 + 22) = {17.67976768796314, 0.4740393831350733, 0};
Point(p16 + 23) = {17.72592913774549, 0.3625957850117153, 0};
Point(p16 + 24) = {17.78895588313507, 0.2597454842134871, 0};
Point(p16 + 25) = {17.86729599648662, 0.1680209964866208, 0};
Point(p16 + 26) = {17.95902048421349, 0.08968088313507372, 0};
Point(p16 + 27) = {18.06187078501172, 0.02665413774549052, 0};
Point(p16 + 28) = {18.17331438313508, -0.01950731203686151, 0};
Point(p16 + 29) = {18.29060716733767, -0.04766681811727236, 0};
Point(p16 + 30) = {18.410861, -0.05713099999999993, 0};
Point(p16 + 31) = {18.53111483266233, -0.04766681811727247, 0};
Point(p16 + 32) = {18.64840761686493, -0.01950731203686151, 0};
Point(p16 + 33) = {18.75985121498828, 0.02665413774549041, 0};
Point(p16 + 34) = {18.86270151578652, 0.0896808831350735, 0};
Point(p16 + 35) = {18.95442600351338, 0.1680209964866207, 0};
Point(p16 + 36) = {19.03276611686493, 0.2597454842134868, 0};
Point(p16 + 37) = {19.09579286225451, 0.3625957850117147, 0};
Point(p16 + 38) = {19.14195431203686, 0.4740393831350734, 0};
Point(p16 + 39) = {19.17011381811727, 0.5913321673376687, 0};
Spline(16) = {12, p16 + 1, p16 + 2, p16 + 3, p16 + 4, p16 + 5, p16 + 6, p16 + 7, p16 + 8, p16 + 9, p16 + 10, p16 + 11, p16 + 12, p16 + 13, p16 + 14, p16 + 15, p16 + 16, p16 + 17, p16 + 18, p16 + 19, p16 + 20, p16 + 21, p16 + 22, p16 + 23, p16 + 24, p16 + 25, p16 + 26, p16 + 27, p16 + 28, p16 + 29, p16 + 30, p16 + 31, p16 + 32, p16 + 33, p16 + 34, p16 + 35, p16 + 36, p16 + 37, p16 + 38, p16 + 39, 12};
Line(17) = {11, 8};
Line(18) = {12, 9};
Curve Loop(1) = {-1, 4, 3, -2};
Plane Surface(1) = {1};
Curve Loop(2) = {-5, 1, 7, -6};
Plane Surface(2) = {2};
Curve Loop(3) = {-2, 7, 9, -8, -10, -11};
Plane Surface(3) = {3};
Curve Loop(4) = {-12, 3, 8, -13};
Plane Surface(4) = {4};
Curve Loop(5) = {-4, 5, 14, -12, -15, -16};
Plane Surface(5) = {5};
Curve Loop(6) = {-6, 14, 13, -9};
Plane Surface(6) = {6};
Curve Loop(7) = {-10, -17, 15, 17};
Surface(7) = {7};
Curve Loop(8) = {-11, -18, 16, 18};
Surface(8) = {8};
Surface Loop(1) = {1, 2, 3, 4, 5, 6, 7, 8};
Volume(1) = {1};
Physical Surface("INFLOW") = {1};
Physical Surface("OUTFLOW") = {6};
Physical Surface("OBSTACLE") = {7, 8};
Physical Surface("WALL_Y") = {2, 4};
Physical Surface("WALL_Z") = {3, 5};
Physical Volume("FLUID") = {1};
