cl__1 = 1.433131;
cl__2 = 1.295003;
cl__3 = 0.483021;
cl__4 = 0.332435;
cl__5 = 0.076644;
cl__6 = 0.128094;
Point(1) = {0.07292, -3.736008, 1, cl__1};
Point(2) = {0.07292, -3.736008, 0, cl__1};
Point(3) = {0.07292, 4.878697000000001, 1, cl__2};
Point(4) = {0.07292, 4.878697000000001, 0, cl__2};
Point(5) = {32.50596400000001, -3.736008, 0, cl__3};
Point(6) = {32.50596400000001, -3.736008, 1, cl__3};
Point(7) = {32.50596400000001, 4.878697000000001, 1, cl__4};
Point(8) = {31.091045, 1.418031, 1, cl__5};
Point(9) = {15.455412, 2.963881999999999, 1, cl__6};
Point(10) = {32.50596400000001, 4.878697000000001, 0, cl__4};
Point(11) = {31.091045, 1.418031, 0, cl__5};
Point(12) = {15.455412, 2.963881999999999, 0, cl__6};
Line(1) = {2, 1};
Line(2) = {1, 3};
Line(3) = {4, 3};
Line(4) = {2, 4};
Line(5) = {2, 5};
Line(6) = {5, 6};
Line(7) = {1, 6};
Line(8) = {3, 7};
Line(9) = {6, 7};
p10 = newp;
Point(p10 + 1) = {31.08160890101237, 1.537928005647574, 1};
Point(p10 + 2) = {31.05353295212319, 1.654872749100757, 1};
Point(p10 + 3) = {31.00750847637283, 1.765985662658379, 1};
Point(p10 + 4) = {30.94466874910076, 1.868530777626034, 1};
Point(p10 + 5) = {30.86656109294549, 1.959983092945493, 1};
Point(p10 + 6) = {30.77510877762603, 2.038090749100757, 1};
Point(p10 + 7) = {30.67256366265838, 2.100930476372836, 1};
Point(p10 + 8) = {30.56145074910076, 2.146954952123192, 1};
Point(p10 + 9) = {30.44450600564757, 2.175030901012375, 1};
Point(p10 + 10) = {30.324609, 2.184467, 1};
Point(p10 + 11) = {30.20471199435243, 2.175030901012375, 1};
Point(p10 + 12) = {30.08776725089924, 2.146954952123192, 1};
Point(p10 + 13) = {29.97665433734162, 2.100930476372836, 1};
Point(p10 + 14) = {29.87410922237396, 2.038090749100757, 1};
Point(p10 + 15) = {29.78265690705451, 1.959983092945493, 1};
Point(p10 + 16) = {29.70454925089924, 1.868530777626034, 1};
Point(p10 + 17) = {29.64170952362716, 1.765985662658379, 1};
Point(p10 + 18) = {29.59568504787681, 1.654872749100757, 1};
Point(p10 + 19) = {29.56760909898762, 1.537928005647575, 1};
Point(p10 + 20) = {29.558173, 1.418031, 1};
Point(p10 + 21) = {29.56760909898762, 1.298133994352426, 1};
Point(p10 + 22) = {29.59568504787681, 1.181189250899243, 1};
Point(p10 + 23) = {29.64170952362716, 1.070076337341621, 1};
Point(p10 + 24) = {29.70454925089924, 0.9675312223739662, 1};
Point(p10 + 25) = {29.78265690705451, 0.8760789070545073, 1};
Point(p10 + 26) = {29.87410922237396, 0.7979712508992429, 1};
Point(p10 + 27) = {29.97665433734162, 0.7351315236271642, 1};
Point(p10 + 28) = {30.08776725089924, 0.6891070478768078, 1};
Point(p10 + 29) = {30.20471199435243, 0.6610310989876251, 1};
Point(p10 + 30) = {30.324609, 0.651595, 1};
Point(p10 + 31) = {30.44450600564757, 0.661031098987625, 1};
Point(p10 + 32) = {30.56145074910076, 0.6891070478768077, 1};
Point(p10 + 33) = {30.67256366265838, 0.7351315236271641, 1};
Point(p10 + 34) = {30.77510877762603, 0.7979712508992427, 1};
Point(p10 + 35) = {30.86656109294549, 0.8760789070545072, 1};
Point(p10 + 36) = {30.94466874910076, 0.9675312223739659, 1};
Point(p10 + 37) = {31.00750847637283, 1.070076337341621, 1};
Point(p10 + 38) = {31.05353295212319, 1.181189250899243, 1};
Point(p10 + 39) = {31.08160890101237, 1.298133994352425, 1};
Spline(10) = {8, p10 + 1, p10 + 2, p10 + 3, p10 + 4, p10 + 5, p10 + 6, p10 + 7, p10 + 8, p10 + 9, p10 + 10, p10 + 11, p10 + 12, p10 + 13, p10 + 14, p10 + 15, p10 + 16, p10 + 17, p10 + 18, p10 + 19, p10 + 20, p10 + 21, p10 + 22, p10 + 23, p10 + 24, p10 + 25, p10 + 26, p10 + 27, p10 + 28, p10 + 29, p10 + 30, p10 + 31, p10 + 32, p10 + 33, p10 + 34, p10 + 35, p10 + 36, p10 + 37, p10 + 38, p10 + 39, 8};
p11 = newp;
Point(p11 + 1) = {15.43964153993691, 3.164264694345238, 1};
Point(p11 + 2) = {15.39271848081356, 3.359713301723662, 1};
Point(p11 + 3) = {15.31579822407427, 3.545415228764876, 1};
Point(p11 + 4) = {15.21077480172366, 3.716797877715764, 1};
Point(p11 + 5) = {15.08023423897275, 3.869641238972752, 1};
Point(p11 + 6) = {14.92739087771576, 4.000181801723662, 1};
Point(p11 + 7) = {14.75600822876488, 4.105205224074275, 1};
Point(p11 + 8) = {14.57030630172366, 4.182125480813565, 1};
Point(p11 + 9) = {14.37485769434524, 4.229048539936914, 1};
Point(p11 + 10) = {14.174475, 4.244819, 1};
Point(p11 + 11) = {13.97409230565476, 4.229048539936914, 1};
Point(p11 + 12) = {13.77864369827634, 4.182125480813565, 1};
Point(p11 + 13) = {13.59294177123512, 4.105205224074275, 1};
Point(p11 + 14) = {13.42155912228424, 4.000181801723662, 1};
Point(p11 + 15) = {13.26871576102725, 3.869641238972752, 1};
Point(p11 + 16) = {13.13817519827634, 3.716797877715764, 1};
Point(p11 + 17) = {13.03315177592572, 3.545415228764876, 1};
Point(p11 + 18) = {12.95623151918644, 3.359713301723662, 1};
Point(p11 + 19) = {12.90930846006309, 3.164264694345238, 1};
Point(p11 + 20) = {12.893538, 2.963882, 1};
Point(p11 + 21) = {12.90930846006309, 2.763499305654762, 1};
Point(p11 + 22) = {12.95623151918644, 2.568050698276338, 1};
Point(p11 + 23) = {13.03315177592572, 2.382348771235125, 1};
Point(p11 + 24) = {13.13817519827634, 2.210966122284237, 1};
Point(p11 + 25) = {13.26871576102725, 2.058122761027247, 1};
Point(p11 + 26) = {13.42155912228424, 1.927582198276338, 1};
Point(p11 + 27) = {13.59294177123512, 1.822558775925725, 1};
Point(p11 + 28) = {13.77864369827634, 1.745638519186435, 1};
Point(p11 + 29) = {13.97409230565476, 1.698715460063086, 1};
Point(p11 + 30) = {14.174475, 1.682945, 1};
Point(p11 + 31) = {14.37485769434524, 1.698715460063086, 1};
Point(p11 + 32) = {14.57030630172366, 1.745638519186435, 1};
Point(p11 + 33) = {14.75600822876488, 1.822558775925724, 1};
Point(p11 + 34) = {14.92739087771576, 1.927582198276338, 1};
Point(p11 + 35) = {15.08023423897275, 2.058122761027247, 1};
Point(p11 + 36) = {15.21077480172366, 2.210966122284236, 1};
Point(p11 + 37) = {15.31579822407427, 2.382348771235124, 1};
Point(p11 + 38) = {15.39271848081356, 2.568050698276338, 1};
Point(p11 + 39) = {15.43964153993691, 2.763499305654761, 1};
Spline(11) = {9, p11 + 1, p11 + 2, p11 + 3, p11 + 4, p11 + 5, p11 + 6, p11 + 7, p11 + 8, p11 + 9, p11 + 10, p11 + 11, p11 + 12, p11 + 13, p11 + 14, p11 + 15, p11 + 16, p11 + 17, p11 + 18, p11 + 19, p11 + 20, p11 + 21, p11 + 22, p11 + 23, p11 + 24, p11 + 25, p11 + 26, p11 + 27, p11 + 28, p11 + 29, p11 + 30, p11 + 31, p11 + 32, p11 + 33, p11 + 34, p11 + 35, p11 + 36, p11 + 37, p11 + 38, p11 + 39, 9};
Line(12) = {4, 10};
Line(13) = {10, 7};
Line(14) = {5, 10};
p15 = newp;
Point(p15 + 1) = {31.08160890101237, 1.537928005647574, 0};
Point(p15 + 2) = {31.05353295212319, 1.654872749100757, 0};
Point(p15 + 3) = {31.00750847637283, 1.765985662658379, 0};
Point(p15 + 4) = {30.94466874910076, 1.868530777626034, 0};
Point(p15 + 5) = {30.86656109294549, 1.959983092945493, 0};
Point(p15 + 6) = {30.77510877762603, 2.038090749100757, 0};
Point(p15 + 7) = {30.67256366265838, 2.100930476372836, 0};
Point(p15 + 8) = {30.56145074910076, 2.146954952123192, 0};
Point(p15 + 9) = {30.44450600564757, 2.175030901012375, 0};
Point(p15 + 10) = {30.324609, 2.184467, 0};
Point(p15 + 11) = {30.20471199435243, 2.175030901012375, 0};
Point(p15 + 12) = {30.08776725089924, 2.146954952123192, 0};
Point(p15 + 13) = {29.97665433734162, 2.100930476372836, 0};
Point(p15 + 14) = {29.87410922237396, 2.038090749100757, 0};
Point(p15 + 15) = {29.78265690705451, 1.959983092945493, 0};
Point(p15 + 16) = {29.70454925089924, 1.868530777626034, 0};
Point(p15 + 17) = {29.64170952362716, 1.765985662658379, 0};
Point(p15 + 18) = {29.59568504787681, 1.654872749100757, 0};
Point(p15 + 19) = {29.56760909898762, 1.537928005647575, 0};
Point(p15 + 20) = {29.558173, 1.418031, 0};
Point(p15 + 21) = {29.56760909898762, 1.298133994352426, 0};
Point(p15 + 22) = {29.59568504787681, 1.181189250899243, 0};
Point(p15 + 23) = {29.64170952362716, 1.070076337341621, 0};
Point(p15 + 24) = {29.70454925089924, 0.9675312223739662, 0};
Point(p15 + 25) = {29.78265690705451, 0.8760789070545073, 0};
Point(p15 + 26) = {29.87410922237396, 0.7979712508992429, 0};
Point(p15 + 27) = {29.97665433734162, 0.7351315236271642, 0};
Point(p15 + 28) = {30.08776725089924, 0.6891070478768078, 0};
Point(p15 + 29) = {30.20471199435243, 0.6610310989876251, 0};
Point(p15 + 30) = {30.324609, 0.651595, 0};
Point(p15 + 31) = {30.44450600564757, 0.661031098987625, 0};
Point(p15 + 32) = {30.56145074910076, 0.6891070478768077, 0};
Point(p15 + 33) = {30.67256366265838, 0.7351315236271641, 0};
Point(p15 + 34) = {30.77510877762603, 0.7979712508992427, 0};
Point(p15 + 35) = {30.86656109294549, 0.8760789070545072, 0};
Point(p15 + 36) = {30.94466874910076, 0.9675312223739659, 0};
Point(p15 + 37) = {31.00750847637283, 1.070076337341621, 0};
Point(p15 + 38) = {31.05353295212319, 1.181189250899243, 0};
Point(p15 + 39) = {31.08160890101237, 1.298133994352425, 0};
Spline(15) = {11, p15 + 1, p15 + 2, p15 + 3, p15 + 4, p15 + 5, p15 + 6, p15 + 7, p15 + 8, p15 + 9, p15 + 10, p15 + 11, p15 + 12, p15 + 13, p15 + 14, p15 + 15, p15 + 16, p15 + 17, p15 + 18, p15 + 19, p15 + 20, p15 + 21, p15 + 22, p15 + 23, p15 + 24, p15 + 25, p15 + 26, p15 + 27, p15 + 28, p15 + 29, p15 + 30, p15 + 31, p15 + 32, p15 + 33, p15 + 34, p15 + 35, p15 + 36, p15 + 37, p15 + 38, p15 + 39, 11};
p16 = newp;
Point(p16 + 1) = {15.43964153993691, 3.164264694345238, 0};
Point(p16 + 2) = {15.39271848081356, 3.359713301723662, 0};
Point(p16 + 3) = {15.31579822407427, 3.545415228764876, 0};
Point(p16 + 4) = {15.21077480172366, 3.716797877715764, 0};
Point(p16 + 5) = {15.08023423897275, 3.869641238972752, 0};
Point(p16 + 6) = {14.92739087771576, 4.000181801723662, 0};
Point(p16 + 7) = {14.75600822876488, 4.105205224074275, 0};
Point(p16 + 8) = {14.57030630172366, 4.182125480813565, 0};
Point(p16 + 9) = {14.37485769434524, 4.229048539936914, 0};
Point(p16 + 10) = {14.174475, 4.244819, 0};
Point(p16 + 11) = {13.97409230565476, 4.229048539936914, 0};
Point(p16 + 12) = {13.77864369827634, 4.182125480813565, 0};
Point(p16 + 13) = {13.59294177123512, 4.105205224074275, 0};
Point(p16 + 14) = {13.42155912228424, 4.000181801723662, 0};
Point(p16 + 15) = {13.26871576102725, 3.869641238972752, 0};
Point(p16 + 16) = {13.13817519827634, 3.716797877715764, 0};
Point(p16 + 17) = {13.03315177592572, 3.545415228764876, 0};
Point(p16 + 18) = {12.95623151918644, 3.359713301723662, 0};
Point(p16 + 19) = {12.90930846006309, 3.164264694345238, 0};
Point(p16 + 20) = {12.893538, 2.963882, 0};
Point(p16 + 21) = {12.90930846006309, 2.763499305654762, 0};
Point(p16 + 22) = {12.95623151918644, 2.568050698276338, 0};
Point(p16 + 23) = {13.03315177592572, 2.382348771235125, 0};
Point(p16 + 24) = {13.13817519827634, 2.210966122284237, 0};
Point(p16 + 25) = {13.26871576102725, 2.058122761027247, 0};
Point(p16 + 26) = {13.42155912228424, 1.927582198276338, 0};
Point(p16 + 27) = {13.59294177123512, 1.822558775925725, 0};
Point(p16 + 28) = {13.77864369827634, 1.745638519186435, 0};
Point(p16 + 29) = {13.97409230565476, 1.698715460063086, 0};
Point(p16 + 30) = {14.174475, 1.682945, 0};
Point(p16 + 31) = {14.37485769434524, 1.698715460063086, 0};
Point(p16 + 32) = {14.57030630172366, 1.745638519186435, 0};
Point(p16 + 33) = {14.75600822876488, 1.822558775925724, 0};
Point(p16 + 34) = {14.92739087771576, 1.927582198276338, 0};
Point(p16 + 35) = {15.08023423897275, 2.058122761027247, 0};
Point(p16 + 36) = {15.21077480172366, 2.210966122284236, 0};
Point(p16 + 37) = {15.31579822407427, 2.382348771235124, 0};
Point(p16 + 38) = {15.39271848081356, 2.568050698276338, 0};
Point(p16 + 39) = {15.43964153993691, 2.763499305654761, 0};
Spline(16) = {12, p16 + 1, p16 + 2, p16 + 3, p16 + 4, p16 + 5, p16 + 6, p16 + 7, p16 + 8, p16 + 9, p16 + 10, p16 + 11, p16 + 12, p16 + 13, p16 + 14, p16 + 15, p16 + 16, p16 + 17, p16 + 18, p16 + 19, p16 + 20, p16 + 21, p16 + 22, p16 + 23, p16 + 24, p16 + 25, p16 + 26, p16 + 27, p16 + 28, p16 + 29, p16 + 30, p16 + 31, p16 + 32, p16 + 33, p16 + 34, p16 + 35, p16 + 36, p16 + 37, p16 + 38, p16 + 39, 12};
Line(17) = {11, 8};
Line(18) = {12, 9};
Curve Loop(1) = {-1, 4, 3, -2};
Plane Surface(1) = {1};
Curve Loop(2) = {-5, 1, 7, -6};
Plane Surface(2) = {2};
Curve Loop(3) = {-2, 7, 9, -8, -10, -11};
Plane Surface(3) = {3};
Curve Loop(4) = {-12, 3, 8, -13};
Plane Surface(4) = {4};
Curve Loop(5) = {-4, 5, 14, -12, -15, -16};
Plane Surface(5) = {5};
Curve Loop(6) = {-6, 14, 13, -9};
Plane Surface(6) = {6};
Curve Loop(7) = {-10, -17, 15, 17};
Surface(7) = {7};
Curve Loop(8) = {-11, -18, 16, 18};
Surface(8) = {8};
Surface Loop(1) = {1, 2, 3, 4, 5, 6, 7, 8};
Volume(1) = {1};
Physical Surface("INFLOW") = {1};
Physical Surface("OUTFLOW") = {6};
Physical Surface("OBSTACLE") = {7, 8};
Physical Surface("WALL_Y") = {2, 4};
Physical Surface("WALL_Z") = {3, 5};
Physical Volume("FLUID") = {1};
