cl__1 = 1.624834;
cl__2 = 0.5790689999999999;
cl__3 = 1.836176;
cl__4 = 0.100661;
cl__5 = 0.104365;
Point(1) = {0.633336, -4.402024, 1, cl__1};
Point(2) = {0.633336, -4.402024, 0, cl__1};
Point(3) = {0.633336, 4.886067, 1, cl__2};
Point(4) = {0.633336, 4.886067, 0, cl__2};
Point(5) = {36.58663, -4.402024, 0, cl__1};
Point(6) = {36.58663, -4.402024, 1, cl__1};
Point(7) = {36.58663, 4.886067, 1, cl__3};
Point(8) = {18.540195, -0.9213310000000002, 1, cl__4};
Point(9) = {34.717693, 1.780609, 1, cl__5};
Point(10) = {36.58663, 4.886067, 0, cl__3};
Point(11) = {18.540195, -0.9213310000000002, 0, cl__4};
Point(12) = {34.717693, 1.780609, 0, cl__5};
Line(1) = {2, 1};
Line(2) = {1, 3};
Line(3) = {4, 3};
Line(4) = {2, 4};
Line(5) = {2, 5};
Line(6) = {5, 6};
Line(7) = {1, 6};
Line(8) = {3, 7};
Line(9) = {6, 7};
p10 = newp;
Point(p10 + 1) = {18.52780192359149, -0.7638620338424581, 1};
Point(p10 + 2) = {18.49092785303741, -0.6102704762412511, 1};
Point(p10 + 3) = {18.43048075033283, -0.4643382610856757, 1};
Point(p10 + 4) = {18.34794902375875, -0.3296587238341168, 1};
Point(p10 + 5) = {18.24536487833053, -0.2095481216694659, 1};
Point(p10 + 6) = {18.12525427616588, -0.1069639762412511, 1};
Point(p10 + 7) = {17.99057473891432, -0.02443224966717461, 1};
Point(p10 + 8) = {17.84464252375875, 0.03601485303741336, 1};
Point(p10 + 9) = {17.69105096615754, 0.07288892359149335, 1};
Point(p10 + 10) = {17.533582, 0.08528199999999997, 1};
Point(p10 + 11) = {17.37611303384246, 0.07288892359149324, 1};
Point(p10 + 12) = {17.22252147624125, 0.03601485303741347, 1};
Point(p10 + 13) = {17.07658926108568, -0.0244322496671745, 1};
Point(p10 + 14) = {16.94190972383412, -0.1069639762412511, 1};
Point(p10 + 15) = {16.82179912166946, -0.2095481216694658, 1};
Point(p10 + 16) = {16.71921497624125, -0.3296587238341167, 1};
Point(p10 + 17) = {16.63668324966717, -0.4643382610856756, 1};
Point(p10 + 18) = {16.57623614696259, -0.610270476241251, 1};
Point(p10 + 19) = {16.5393620764085, -0.763862033842458, 1};
Point(p10 + 20) = {16.526969, -0.9213309999999999, 1};
Point(p10 + 21) = {16.5393620764085, -1.078799966157542, 1};
Point(p10 + 22) = {16.57623614696259, -1.232391523758749, 1};
Point(p10 + 23) = {16.63668324966717, -1.378323738914324, 1};
Point(p10 + 24) = {16.71921497624125, -1.513003276165883, 1};
Point(p10 + 25) = {16.82179912166946, -1.633113878330534, 1};
Point(p10 + 26) = {16.94190972383412, -1.735698023758749, 1};
Point(p10 + 27) = {17.07658926108568, -1.818229750332825, 1};
Point(p10 + 28) = {17.22252147624125, -1.878676853037413, 1};
Point(p10 + 29) = {17.37611303384246, -1.915550923591493, 1};
Point(p10 + 30) = {17.533582, -1.927944, 1};
Point(p10 + 31) = {17.69105096615754, -1.915550923591493, 1};
Point(p10 + 32) = {17.84464252375875, -1.878676853037414, 1};
Point(p10 + 33) = {17.99057473891432, -1.818229750332826, 1};
Point(p10 + 34) = {18.12525427616588, -1.735698023758749, 1};
Point(p10 + 35) = {18.24536487833053, -1.633113878330534, 1};
Point(p10 + 36) = {18.34794902375875, -1.513003276165883, 1};
Point(p10 + 37) = {18.43048075033283, -1.378323738914325, 1};
Point(p10 + 38) = {18.49092785303741, -1.232391523758749, 1};
Point(p10 + 39) = {18.52780192359149, -1.078799966157542, 1};
Spline(10) = {8, p10 + 1, p10 + 2, p10 + 3, p10 + 4, p10 + 5, p10 + 6, p10 + 7, p10 + 8, p10 + 9, p10 + 10, p10 + 11, p10 + 12, p10 + 13, p10 + 14, p10 + 15, p10 + 16, p10 + 17, p10 + 18, p10 + 19, p10 + 20, p10 + 21, p10 + 22, p10 + 23, p10 + 24, p10 + 25, p10 + 26, p10 + 27, p10 + 28, p10 + 29, p10 + 30, p10 + 31, p10 + 32, p10 + 33, p10 + 34, p10 + 35, p10 + 36, p10 + 37, p10 + 38, p10 + 39, 8};
p11 = newp;
Point(p11 + 1) = {34.70484399822041, 1.943871047266912, 1};
Point(p11 + 2) = {34.66661337794886, 2.103113041094442, 1};
Point(p11 + 3) = {34.60394250393657, 2.254413915100679, 1};
Point(p11 + 4) = {34.51837454109444, 2.394048139628778, 1};
Point(p11 + 5) = {34.41201645665144, 2.518577456651435, 1};
Point(p11 + 6) = {34.28748713962878, 2.624935541094442, 1};
Point(p11 + 7) = {34.14785291510068, 2.710503503936569, 1};
Point(p11 + 8) = {33.99655204109444, 2.773174377948855, 1};
Point(p11 + 9) = {33.83731004726691, 2.811404998220413, 1};
Point(p11 + 10) = {33.674048, 2.824254, 1};
Point(p11 + 11) = {33.51078595273309, 2.811404998220413, 1};
Point(p11 + 12) = {33.35154395890556, 2.773174377948856, 1};
Point(p11 + 13) = {33.20024308489932, 2.710503503936569, 1};
Point(p11 + 14) = {33.06060886037122, 2.624935541094442, 1};
Point(p11 + 15) = {32.93607954334856, 2.518577456651435, 1};
Point(p11 + 16) = {32.82972145890556, 2.394048139628778, 1};
Point(p11 + 17) = {32.74415349606343, 2.254413915100679, 1};
Point(p11 + 18) = {32.68148262205114, 2.103113041094442, 1};
Point(p11 + 19) = {32.64325200177959, 1.943871047266912, 1};
Point(p11 + 20) = {32.630403, 1.780609, 1};
Point(p11 + 21) = {32.64325200177959, 1.617346952733089, 1};
Point(p11 + 22) = {32.68148262205114, 1.458104958905558, 1};
Point(p11 + 23) = {32.74415349606343, 1.306804084899321, 1};
Point(p11 + 24) = {32.82972145890556, 1.167169860371222, 1};
Point(p11 + 25) = {32.93607954334856, 1.042640543348566, 1};
Point(p11 + 26) = {33.06060886037122, 0.9362824589055583, 1};
Point(p11 + 27) = {33.20024308489932, 0.8507144960634311, 1};
Point(p11 + 28) = {33.35154395890556, 0.7880436220511446, 1};
Point(p11 + 29) = {33.51078595273309, 0.7498130017795877, 1};
Point(p11 + 30) = {33.674048, 0.7369640000000002, 1};
Point(p11 + 31) = {33.83731004726691, 0.7498130017795877, 1};
Point(p11 + 32) = {33.99655204109444, 0.7880436220511445, 1};
Point(p11 + 33) = {34.14785291510068, 0.850714496063431, 1};
Point(p11 + 34) = {34.28748713962878, 0.9362824589055581, 1};
Point(p11 + 35) = {34.41201645665144, 1.042640543348566, 1};
Point(p11 + 36) = {34.51837454109444, 1.167169860371222, 1};
Point(p11 + 37) = {34.60394250393657, 1.306804084899321, 1};
Point(p11 + 38) = {34.66661337794886, 1.458104958905558, 1};
Point(p11 + 39) = {34.70484399822041, 1.617346952733088, 1};
Spline(11) = {9, p11 + 1, p11 + 2, p11 + 3, p11 + 4, p11 + 5, p11 + 6, p11 + 7, p11 + 8, p11 + 9, p11 + 10, p11 + 11, p11 + 12, p11 + 13, p11 + 14, p11 + 15, p11 + 16, p11 + 17, p11 + 18, p11 + 19, p11 + 20, p11 + 21, p11 + 22, p11 + 23, p11 + 24, p11 + 25, p11 + 26, p11 + 27, p11 + 28, p11 + 29, p11 + 30, p11 + 31, p11 + 32, p11 + 33, p11 + 34, p11 + 35, p11 + 36, p11 + 37, p11 + 38, p11 + 39, 9};
Line(12) = {4, 10};
Line(13) = {10, 7};
Line(14) = {5, 10};
p15 = newp;
Point(p15 + 1) = {18.52780192359149, -0.7638620338424581, 0};
Point(p15 + 2) = {18.49092785303741, -0.6102704762412511, 0};
Point(p15 + 3) = {18.43048075033283, -0.4643382610856757, 0};
Point(p15 + 4) = {18.34794902375875, -0.3296587238341168, 0};
Point(p15 + 5) = {18.24536487833053, -0.2095481216694659, 0};
Point(p15 + 6) = {18.12525427616588, -0.1069639762412511, 0};
Point(p15 + 7) = {17.99057473891432, -0.02443224966717461, 0};
Point(p15 + 8) = {17.84464252375875, 0.03601485303741336, 0};
Point(p15 + 9) = {17.69105096615754, 0.07288892359149335, 0};
Point(p15 + 10) = {17.533582, 0.08528199999999997, 0};
Point(p15 + 11) = {17.37611303384246, 0.07288892359149324, 0};
Point(p15 + 12) = {17.22252147624125, 0.03601485303741347, 0};
Point(p15 + 13) = {17.07658926108568, -0.0244322496671745, 0};
Point(p15 + 14) = {16.94190972383412, -0.1069639762412511, 0};
Point(p15 + 15) = {16.82179912166946, -0.2095481216694658, 0};
Point(p15 + 16) = {16.71921497624125, -0.3296587238341167, 0};
Point(p15 + 17) = {16.63668324966717, -0.4643382610856756, 0};
Point(p15 + 18) = {16.57623614696259, -0.610270476241251, 0};
Point(p15 + 19) = {16.5393620764085, -0.763862033842458, 0};
Point(p15 + 20) = {16.526969, -0.9213309999999999, 0};
Point(p15 + 21) = {16.5393620764085, -1.078799966157542, 0};
Point(p15 + 22) = {16.57623614696259, -1.232391523758749, 0};
Point(p15 + 23) = {16.63668324966717, -1.378323738914324, 0};
Point(p15 + 24) = {16.71921497624125, -1.513003276165883, 0};
Point(p15 + 25) = {16.82179912166946, -1.633113878330534, 0};
Point(p15 + 26) = {16.94190972383412, -1.735698023758749, 0};
Point(p15 + 27) = {17.07658926108568, -1.818229750332825, 0};
Point(p15 + 28) = {17.22252147624125, -1.878676853037413, 0};
Point(p15 + 29) = {17.37611303384246, -1.915550923591493, 0};
Point(p15 + 30) = {17.533582, -1.927944, 0};
Point(p15 + 31) = {17.69105096615754, -1.915550923591493, 0};
Point(p15 + 32) = {17.84464252375875, -1.878676853037414, 0};
Point(p15 + 33) = {17.99057473891432, -1.818229750332826, 0};
Point(p15 + 34) = {18.12525427616588, -1.735698023758749, 0};
Point(p15 + 35) = {18.24536487833053, -1.633113878330534, 0};
Point(p15 + 36) = {18.34794902375875, -1.513003276165883, 0};
Point(p15 + 37) = {18.43048075033283, -1.378323738914325, 0};
Point(p15 + 38) = {18.49092785303741, -1.232391523758749, 0};
Point(p15 + 39) = {18.52780192359149, -1.078799966157542, 0};
Spline(15) = {11, p15 + 1, p15 + 2, p15 + 3, p15 + 4, p15 + 5, p15 + 6, p15 + 7, p15 + 8, p15 + 9, p15 + 10, p15 + 11, p15 + 12, p15 + 13, p15 + 14, p15 + 15, p15 + 16, p15 + 17, p15 + 18, p15 + 19, p15 + 20, p15 + 21, p15 + 22, p15 + 23, p15 + 24, p15 + 25, p15 + 26, p15 + 27, p15 + 28, p15 + 29, p15 + 30, p15 + 31, p15 + 32, p15 + 33, p15 + 34, p15 + 35, p15 + 36, p15 + 37, p15 + 38, p15 + 39, 11};
p16 = newp;
Point(p16 + 1) = {34.70484399822041, 1.943871047266912, 0};
Point(p16 + 2) = {34.66661337794886, 2.103113041094442, 0};
Point(p16 + 3) = {34.60394250393657, 2.254413915100679, 0};
Point(p16 + 4) = {34.51837454109444, 2.394048139628778, 0};
Point(p16 + 5) = {34.41201645665144, 2.518577456651435, 0};
Point(p16 + 6) = {34.28748713962878, 2.624935541094442, 0};
Point(p16 + 7) = {34.14785291510068, 2.710503503936569, 0};
Point(p16 + 8) = {33.99655204109444, 2.773174377948855, 0};
Point(p16 + 9) = {33.83731004726691, 2.811404998220413, 0};
Point(p16 + 10) = {33.674048, 2.824254, 0};
Point(p16 + 11) = {33.51078595273309, 2.811404998220413, 0};
Point(p16 + 12) = {33.35154395890556, 2.773174377948856, 0};
Point(p16 + 13) = {33.20024308489932, 2.710503503936569, 0};
Point(p16 + 14) = {33.06060886037122, 2.624935541094442, 0};
Point(p16 + 15) = {32.93607954334856, 2.518577456651435, 0};
Point(p16 + 16) = {32.82972145890556, 2.394048139628778, 0};
Point(p16 + 17) = {32.74415349606343, 2.254413915100679, 0};
Point(p16 + 18) = {32.68148262205114, 2.103113041094442, 0};
Point(p16 + 19) = {32.64325200177959, 1.943871047266912, 0};
Point(p16 + 20) = {32.630403, 1.780609, 0};
Point(p16 + 21) = {32.64325200177959, 1.617346952733089, 0};
Point(p16 + 22) = {32.68148262205114, 1.458104958905558, 0};
Point(p16 + 23) = {32.74415349606343, 1.306804084899321, 0};
Point(p16 + 24) = {32.82972145890556, 1.167169860371222, 0};
Point(p16 + 25) = {32.93607954334856, 1.042640543348566, 0};
Point(p16 + 26) = {33.06060886037122, 0.9362824589055583, 0};
Point(p16 + 27) = {33.20024308489932, 0.8507144960634311, 0};
Point(p16 + 28) = {33.35154395890556, 0.7880436220511446, 0};
Point(p16 + 29) = {33.51078595273309, 0.7498130017795877, 0};
Point(p16 + 30) = {33.674048, 0.7369640000000002, 0};
Point(p16 + 31) = {33.83731004726691, 0.7498130017795877, 0};
Point(p16 + 32) = {33.99655204109444, 0.7880436220511445, 0};
Point(p16 + 33) = {34.14785291510068, 0.850714496063431, 0};
Point(p16 + 34) = {34.28748713962878, 0.9362824589055581, 0};
Point(p16 + 35) = {34.41201645665144, 1.042640543348566, 0};
Point(p16 + 36) = {34.51837454109444, 1.167169860371222, 0};
Point(p16 + 37) = {34.60394250393657, 1.306804084899321, 0};
Point(p16 + 38) = {34.66661337794886, 1.458104958905558, 0};
Point(p16 + 39) = {34.70484399822041, 1.617346952733088, 0};
Spline(16) = {12, p16 + 1, p16 + 2, p16 + 3, p16 + 4, p16 + 5, p16 + 6, p16 + 7, p16 + 8, p16 + 9, p16 + 10, p16 + 11, p16 + 12, p16 + 13, p16 + 14, p16 + 15, p16 + 16, p16 + 17, p16 + 18, p16 + 19, p16 + 20, p16 + 21, p16 + 22, p16 + 23, p16 + 24, p16 + 25, p16 + 26, p16 + 27, p16 + 28, p16 + 29, p16 + 30, p16 + 31, p16 + 32, p16 + 33, p16 + 34, p16 + 35, p16 + 36, p16 + 37, p16 + 38, p16 + 39, 12};
Line(17) = {11, 8};
Line(18) = {12, 9};
Curve Loop(1) = {-1, 4, 3, -2};
Plane Surface(1) = {1};
Curve Loop(2) = {-5, 1, 7, -6};
Plane Surface(2) = {2};
Curve Loop(3) = {-2, 7, 9, -8, -10, -11};
Plane Surface(3) = {3};
Curve Loop(4) = {-12, 3, 8, -13};
Plane Surface(4) = {4};
Curve Loop(5) = {-4, 5, 14, -12, -15, -16};
Plane Surface(5) = {5};
Curve Loop(6) = {-6, 14, 13, -9};
Plane Surface(6) = {6};
Curve Loop(7) = {-10, -17, 15, 17};
Surface(7) = {7};
Curve Loop(8) = {-11, -18, 16, 18};
Surface(8) = {8};
Surface Loop(1) = {1, 2, 3, 4, 5, 6, 7, 8};
Volume(1) = {1};
Physical Surface("INFLOW") = {1};
Physical Surface("OUTFLOW") = {6};
Physical Surface("OBSTACLE") = {7, 8};
Physical Surface("WALL_Y") = {2, 4};
Physical Surface("WALL_Z") = {3, 5};
Physical Volume("FLUID") = {1};
