cl__1 = 0.469986;
cl__2 = 0.574395;
cl__3 = 3.122207;
cl__4 = 0.093391;
Point(1) = {0.858219, -3.464494, 1, cl__1};
Point(2) = {0.858219, -3.464494, 0, cl__1};
Point(3) = {0.858219, 4.983665999999999, 1, cl__2};
Point(4) = {0.858219, 4.983665999999999, 0, cl__2};
Point(5) = {30.935005, -3.464494, 0, cl__3};
Point(6) = {30.935005, -3.464494, 1, cl__3};
Point(7) = {30.935005, 4.983665999999999, 1, cl__3};
Point(8) = {6.235662, -0.001196000000000229, 1, cl__4};
Point(9) = {30.935005, 4.983665999999999, 0, cl__3};
Point(10) = {6.235662, -0.001196000000000229, 0, cl__4};
Line(1) = {2, 1};
Line(2) = {1, 3};
Line(3) = {4, 3};
Line(4) = {2, 4};
Line(5) = {2, 5};
Line(6) = {5, 6};
Line(7) = {1, 6};
Line(8) = {3, 7};
Line(9) = {6, 7};
p10 = newp;
Point(p10 + 1) = {6.224164018165204, 0.144899711245722, 1};
Point(p10 + 2) = {6.189953191133206, 0.2873980612167071, 1};
Point(p10 + 3) = {6.133871903004758, 0.4227902676117601, 1};
Point(p10 + 4) = {6.057301061216707, 0.5477425249684637, 1};
Point(p10 + 5) = {5.962126094017928, 0.6591780940179286, 1};
Point(p10 + 6) = {5.850690524968464, 0.7543530612167072, 1};
Point(p10 + 7) = {5.72573826761176, 0.8309239030047586, 1};
Point(p10 + 8) = {5.590346061216707, 0.8870051911332069, 1};
Point(p10 + 9) = {5.447847711245721, 0.9212160181652052, 1};
Point(p10 + 10) = {5.301752, 0.932714, 1};
Point(p10 + 11) = {5.155656288754278, 0.921216018165205, 1};
Point(p10 + 12) = {5.013157938783293, 0.887005191133207, 1};
Point(p10 + 13) = {4.877765732388239, 0.8309239030047587, 1};
Point(p10 + 14) = {4.752813475031536, 0.7543530612167072, 1};
Point(p10 + 15) = {4.641377905982071, 0.6591780940179287, 1};
Point(p10 + 16) = {4.546202938783292, 0.5477425249684638, 1};
Point(p10 + 17) = {4.469632096995241, 0.4227902676117603, 1};
Point(p10 + 18) = {4.413550808866793, 0.2873980612167072, 1};
Point(p10 + 19) = {4.379339981834795, 0.1448997112457221, 1};
Point(p10 + 20) = {4.367842, -0.001195999999999886, 1};
Point(p10 + 21) = {4.379339981834795, -0.1472917112457219, 1};
Point(p10 + 22) = {4.413550808866793, -0.2897900612167074, 1};
Point(p10 + 23) = {4.469632096995241, -0.4251822676117596, 1};
Point(p10 + 24) = {4.546202938783292, -0.5501345249684635, 1};
Point(p10 + 25) = {4.641377905982071, -0.6615700940179285, 1};
Point(p10 + 26) = {4.752813475031536, -0.756745061216707, 1};
Point(p10 + 27) = {4.877765732388239, -0.8333159030047586, 1};
Point(p10 + 28) = {5.013157938783293, -0.8893971911332068, 1};
Point(p10 + 29) = {5.155656288754278, -0.923608018165205, 1};
Point(p10 + 30) = {5.301752, -0.935106, 1};
Point(p10 + 31) = {5.447847711245721, -0.9236080181652051, 1};
Point(p10 + 32) = {5.590346061216707, -0.8893971911332069, 1};
Point(p10 + 33) = {5.725738267611759, -0.8333159030047587, 1};
Point(p10 + 34) = {5.850690524968463, -0.7567450612167073, 1};
Point(p10 + 35) = {5.962126094017928, -0.6615700940179288, 1};
Point(p10 + 36) = {6.057301061216707, -0.5501345249684638, 1};
Point(p10 + 37) = {6.133871903004758, -0.4251822676117603, 1};
Point(p10 + 38) = {6.189953191133206, -0.2897900612167073, 1};
Point(p10 + 39) = {6.224164018165204, -0.1472917112457222, 1};
Spline(10) = {8, p10 + 1, p10 + 2, p10 + 3, p10 + 4, p10 + 5, p10 + 6, p10 + 7, p10 + 8, p10 + 9, p10 + 10, p10 + 11, p10 + 12, p10 + 13, p10 + 14, p10 + 15, p10 + 16, p10 + 17, p10 + 18, p10 + 19, p10 + 20, p10 + 21, p10 + 22, p10 + 23, p10 + 24, p10 + 25, p10 + 26, p10 + 27, p10 + 28, p10 + 29, p10 + 30, p10 + 31, p10 + 32, p10 + 33, p10 + 34, p10 + 35, p10 + 36, p10 + 37, p10 + 38, p10 + 39, 8};
Line(11) = {4, 9};
Line(12) = {9, 7};
Line(13) = {5, 9};
p14 = newp;
Point(p14 + 1) = {6.224164018165204, 0.144899711245722, 0};
Point(p14 + 2) = {6.189953191133206, 0.2873980612167071, 0};
Point(p14 + 3) = {6.133871903004758, 0.4227902676117601, 0};
Point(p14 + 4) = {6.057301061216707, 0.5477425249684637, 0};
Point(p14 + 5) = {5.962126094017928, 0.6591780940179286, 0};
Point(p14 + 6) = {5.850690524968464, 0.7543530612167072, 0};
Point(p14 + 7) = {5.72573826761176, 0.8309239030047586, 0};
Point(p14 + 8) = {5.590346061216707, 0.8870051911332069, 0};
Point(p14 + 9) = {5.447847711245721, 0.9212160181652052, 0};
Point(p14 + 10) = {5.301752, 0.932714, 0};
Point(p14 + 11) = {5.155656288754278, 0.921216018165205, 0};
Point(p14 + 12) = {5.013157938783293, 0.887005191133207, 0};
Point(p14 + 13) = {4.877765732388239, 0.8309239030047587, 0};
Point(p14 + 14) = {4.752813475031536, 0.7543530612167072, 0};
Point(p14 + 15) = {4.641377905982071, 0.6591780940179287, 0};
Point(p14 + 16) = {4.546202938783292, 0.5477425249684638, 0};
Point(p14 + 17) = {4.469632096995241, 0.4227902676117603, 0};
Point(p14 + 18) = {4.413550808866793, 0.2873980612167072, 0};
Point(p14 + 19) = {4.379339981834795, 0.1448997112457221, 0};
Point(p14 + 20) = {4.367842, -0.001195999999999886, 0};
Point(p14 + 21) = {4.379339981834795, -0.1472917112457219, 0};
Point(p14 + 22) = {4.413550808866793, -0.2897900612167074, 0};
Point(p14 + 23) = {4.469632096995241, -0.4251822676117596, 0};
Point(p14 + 24) = {4.546202938783292, -0.5501345249684635, 0};
Point(p14 + 25) = {4.641377905982071, -0.6615700940179285, 0};
Point(p14 + 26) = {4.752813475031536, -0.756745061216707, 0};
Point(p14 + 27) = {4.877765732388239, -0.8333159030047586, 0};
Point(p14 + 28) = {5.013157938783293, -0.8893971911332068, 0};
Point(p14 + 29) = {5.155656288754278, -0.923608018165205, 0};
Point(p14 + 30) = {5.301752, -0.935106, 0};
Point(p14 + 31) = {5.447847711245721, -0.9236080181652051, 0};
Point(p14 + 32) = {5.590346061216707, -0.8893971911332069, 0};
Point(p14 + 33) = {5.725738267611759, -0.8333159030047587, 0};
Point(p14 + 34) = {5.850690524968463, -0.7567450612167073, 0};
Point(p14 + 35) = {5.962126094017928, -0.6615700940179288, 0};
Point(p14 + 36) = {6.057301061216707, -0.5501345249684638, 0};
Point(p14 + 37) = {6.133871903004758, -0.4251822676117603, 0};
Point(p14 + 38) = {6.189953191133206, -0.2897900612167073, 0};
Point(p14 + 39) = {6.224164018165204, -0.1472917112457222, 0};
Spline(14) = {10, p14 + 1, p14 + 2, p14 + 3, p14 + 4, p14 + 5, p14 + 6, p14 + 7, p14 + 8, p14 + 9, p14 + 10, p14 + 11, p14 + 12, p14 + 13, p14 + 14, p14 + 15, p14 + 16, p14 + 17, p14 + 18, p14 + 19, p14 + 20, p14 + 21, p14 + 22, p14 + 23, p14 + 24, p14 + 25, p14 + 26, p14 + 27, p14 + 28, p14 + 29, p14 + 30, p14 + 31, p14 + 32, p14 + 33, p14 + 34, p14 + 35, p14 + 36, p14 + 37, p14 + 38, p14 + 39, 10};
Line(15) = {10, 8};
Curve Loop(1) = {-1, 4, 3, -2};
Plane Surface(1) = {1};
Curve Loop(2) = {-5, 1, 7, -6};
Plane Surface(2) = {2};
Curve Loop(3) = {-2, 7, 9, -8, -10};
Plane Surface(3) = {3};
Curve Loop(4) = {-11, 3, 8, -12};
Plane Surface(4) = {4};
Curve Loop(5) = {-4, 5, 13, -11, -14};
Plane Surface(5) = {5};
Curve Loop(6) = {-6, 13, 12, -9};
Plane Surface(6) = {6};
Curve Loop(7) = {-10, -15, 14, 15};
Surface(7) = {7};
Surface Loop(1) = {1, 2, 3, 4, 5, 6, 7};
Volume(1) = {1};
Physical Surface("INFLOW") = {1};
Physical Surface("OUTFLOW") = {6};
Physical Surface("OBSTACLE") = {7};
Physical Surface("WALL_Y") = {2, 4};
Physical Surface("WALL_Z") = {3, 5};
Physical Volume("FLUID") = {1};
