cl__1 = 1;
cl__2 = 0.079405;
cl__3 = 0.136639;
Point(1) = {0.355283, -3.990903, 1, cl__1};
Point(2) = {0.355283, -3.990903, 0, cl__1};
Point(3) = {0.355283, 5.479323000000001, 1, cl__1};
Point(4) = {0.355283, 5.479323000000001, 0, cl__1};
Point(5) = {33.070852, -3.990903, 0, cl__1};
Point(6) = {33.070852, -3.990903, 1, cl__1};
Point(7) = {33.070852, 5.479323000000001, 1, cl__1};
Point(8) = {11.750991, -2.267558, 1, cl__2};
Point(9) = {29.516762, -0.2790250000000004, 1, cl__3};
Point(10) = {33.070852, 5.479323000000001, 0, cl__1};
Point(11) = {11.750991, -2.267558, 0, cl__2};
Point(12) = {29.516762, -0.2790250000000004, 0, cl__3};
Line(1) = {2, 1};
Line(2) = {1, 3};
Line(3) = {4, 3};
Line(4) = {2, 4};
Line(5) = {2, 5};
Line(6) = {5, 6};
Line(7) = {1, 6};
Line(8) = {3, 7};
Line(9) = {6, 7};
p10 = newp;
Point(p10 + 1) = {11.74121491453791, -2.14334105660034, 1};
Point(p10 + 2) = {11.71212737782068, -2.022182746599579, 1};
Point(p10 + 3) = {11.6644446215383, -1.907066389691313, 1};
Point(p10 + 4) = {11.59934075340042, -1.80082653263191, 1};
Point(p10 + 5) = {11.51841884670796, -1.706079153292041, 1};
Point(p10 + 6) = {11.42367146736809, -1.625157246599579, 1};
Point(p10 + 7) = {11.31743161030869, -1.560053378461703, 1};
Point(p10 + 8) = {11.20231525340042, -1.512370622179317, 1};
Point(p10 + 9) = {11.08115694339966, -1.48328308546209, 1};
Point(p10 + 10) = {10.95694, -1.473507, 1};
Point(p10 + 11) = {10.83272305660034, -1.48328308546209, 1};
Point(p10 + 12) = {10.71156474659958, -1.512370622179317, 1};
Point(p10 + 13) = {10.59644838969131, -1.560053378461703, 1};
Point(p10 + 14) = {10.49020853263191, -1.625157246599579, 1};
Point(p10 + 15) = {10.39546115329204, -1.706079153292041, 1};
Point(p10 + 16) = {10.31453924659958, -1.80082653263191, 1};
Point(p10 + 17) = {10.2494353784617, -1.907066389691313, 1};
Point(p10 + 18) = {10.20175262217932, -2.022182746599579, 1};
Point(p10 + 19) = {10.17266508546209, -2.14334105660034, 1};
Point(p10 + 20) = {10.162889, -2.267558, 1};
Point(p10 + 21) = {10.17266508546209, -2.39177494339966, 1};
Point(p10 + 22) = {10.20175262217932, -2.512933253400422, 1};
Point(p10 + 23) = {10.2494353784617, -2.628049610308687, 1};
Point(p10 + 24) = {10.31453924659958, -2.73428946736809, 1};
Point(p10 + 25) = {10.39546115329204, -2.829036846707959, 1};
Point(p10 + 26) = {10.49020853263191, -2.909958753400422, 1};
Point(p10 + 27) = {10.59644838969131, -2.975062621538298, 1};
Point(p10 + 28) = {10.71156474659958, -3.022745377820683, 1};
Point(p10 + 29) = {10.83272305660034, -3.05183291453791, 1};
Point(p10 + 30) = {10.95694, -3.061609, 1};
Point(p10 + 31) = {11.08115694339966, -3.05183291453791, 1};
Point(p10 + 32) = {11.20231525340042, -3.022745377820683, 1};
Point(p10 + 33) = {11.31743161030869, -2.975062621538298, 1};
Point(p10 + 34) = {11.42367146736809, -2.909958753400422, 1};
Point(p10 + 35) = {11.51841884670796, -2.82903684670796, 1};
Point(p10 + 36) = {11.59934075340042, -2.734289467368091, 1};
Point(p10 + 37) = {11.6644446215383, -2.628049610308687, 1};
Point(p10 + 38) = {11.71212737782068, -2.512933253400422, 1};
Point(p10 + 39) = {11.74121491453791, -2.391774943399661, 1};
Spline(10) = {8, p10 + 1, p10 + 2, p10 + 3, p10 + 4, p10 + 5, p10 + 6, p10 + 7, p10 + 8, p10 + 9, p10 + 10, p10 + 11, p10 + 12, p10 + 13, p10 + 14, p10 + 15, p10 + 16, p10 + 17, p10 + 18, p10 + 19, p10 + 20, p10 + 21, p10 + 22, p10 + 23, p10 + 24, p10 + 25, p10 + 26, p10 + 27, p10 + 28, p10 + 29, p10 + 30, p10 + 31, p10 + 32, p10 + 33, p10 + 34, p10 + 35, p10 + 36, p10 + 37, p10 + 38, p10 + 39, 8};
p11 = newp;
Point(p11 + 1) = {29.49993943477081, -0.06527404201028386, 1};
Point(p11 + 2) = {29.44988596647008, 0.1432136579949675, 1};
Point(p11 + 3) = {29.36783407760532, 0.3413044409106185, 1};
Point(p11 + 4) = {29.25580415799497, 0.5241206542356691, 1};
Point(p11 + 5) = {29.11655475606583, 0.6871607560658302, 1};
Point(p11 + 6) = {28.95351465423567, 0.8264101579949674, 1};
Point(p11 + 7) = {28.77069844091062, 0.9384400776053163, 1};
Point(p11 + 8) = {28.57260765799497, 1.020491966470084, 1};
Point(p11 + 9) = {28.36411995798972, 1.070545434770812, 1};
Point(p11 + 10) = {28.150369, 1.087368, 1};
Point(p11 + 11) = {27.93661804201028, 1.070545434770812, 1};
Point(p11 + 12) = {27.72813034200503, 1.020491966470084, 1};
Point(p11 + 13) = {27.53003955908938, 0.9384400776053166, 1};
Point(p11 + 14) = {27.34722334576433, 0.8264101579949674, 1};
Point(p11 + 15) = {27.18418324393417, 0.6871607560658302, 1};
Point(p11 + 16) = {27.04493384200503, 0.5241206542356693, 1};
Point(p11 + 17) = {26.93290392239469, 0.3413044409106186, 1};
Point(p11 + 18) = {26.85085203352992, 0.1432136579949676, 1};
Point(p11 + 19) = {26.80079856522919, -0.06527404201028369, 1};
Point(p11 + 20) = {26.783976, -0.2790249999999999, 1};
Point(p11 + 21) = {26.80079856522919, -0.492775957989716, 1};
Point(p11 + 22) = {26.85085203352992, -0.701263657994968, 1};
Point(p11 + 23) = {26.93290392239468, -0.8993544409106178, 1};
Point(p11 + 24) = {27.04493384200503, -1.082170654235669, 1};
Point(p11 + 25) = {27.18418324393417, -1.24521075606583, 1};
Point(p11 + 26) = {27.34722334576433, -1.384460157994968, 1};
Point(p11 + 27) = {27.53003955908938, -1.496490077605316, 1};
Point(p11 + 28) = {27.72813034200503, -1.578541966470084, 1};
Point(p11 + 29) = {27.93661804201028, -1.628595434770812, 1};
Point(p11 + 30) = {28.150369, -1.645418, 1};
Point(p11 + 31) = {28.36411995798972, -1.628595434770812, 1};
Point(p11 + 32) = {28.57260765799497, -1.578541966470084, 1};
Point(p11 + 33) = {28.77069844091062, -1.496490077605317, 1};
Point(p11 + 34) = {28.95351465423567, -1.384460157994968, 1};
Point(p11 + 35) = {29.11655475606583, -1.245210756065831, 1};
Point(p11 + 36) = {29.25580415799497, -1.082170654235669, 1};
Point(p11 + 37) = {29.36783407760532, -0.8993544409106189, 1};
Point(p11 + 38) = {29.44988596647008, -0.7012636579949678, 1};
Point(p11 + 39) = {29.49993943477081, -0.4927759579897165, 1};
Spline(11) = {9, p11 + 1, p11 + 2, p11 + 3, p11 + 4, p11 + 5, p11 + 6, p11 + 7, p11 + 8, p11 + 9, p11 + 10, p11 + 11, p11 + 12, p11 + 13, p11 + 14, p11 + 15, p11 + 16, p11 + 17, p11 + 18, p11 + 19, p11 + 20, p11 + 21, p11 + 22, p11 + 23, p11 + 24, p11 + 25, p11 + 26, p11 + 27, p11 + 28, p11 + 29, p11 + 30, p11 + 31, p11 + 32, p11 + 33, p11 + 34, p11 + 35, p11 + 36, p11 + 37, p11 + 38, p11 + 39, 9};
Line(12) = {4, 10};
Line(13) = {10, 7};
Line(14) = {5, 10};
p15 = newp;
Point(p15 + 1) = {11.74121491453791, -2.14334105660034, 0};
Point(p15 + 2) = {11.71212737782068, -2.022182746599579, 0};
Point(p15 + 3) = {11.6644446215383, -1.907066389691313, 0};
Point(p15 + 4) = {11.59934075340042, -1.80082653263191, 0};
Point(p15 + 5) = {11.51841884670796, -1.706079153292041, 0};
Point(p15 + 6) = {11.42367146736809, -1.625157246599579, 0};
Point(p15 + 7) = {11.31743161030869, -1.560053378461703, 0};
Point(p15 + 8) = {11.20231525340042, -1.512370622179317, 0};
Point(p15 + 9) = {11.08115694339966, -1.48328308546209, 0};
Point(p15 + 10) = {10.95694, -1.473507, 0};
Point(p15 + 11) = {10.83272305660034, -1.48328308546209, 0};
Point(p15 + 12) = {10.71156474659958, -1.512370622179317, 0};
Point(p15 + 13) = {10.59644838969131, -1.560053378461703, 0};
Point(p15 + 14) = {10.49020853263191, -1.625157246599579, 0};
Point(p15 + 15) = {10.39546115329204, -1.706079153292041, 0};
Point(p15 + 16) = {10.31453924659958, -1.80082653263191, 0};
Point(p15 + 17) = {10.2494353784617, -1.907066389691313, 0};
Point(p15 + 18) = {10.20175262217932, -2.022182746599579, 0};
Point(p15 + 19) = {10.17266508546209, -2.14334105660034, 0};
Point(p15 + 20) = {10.162889, -2.267558, 0};
Point(p15 + 21) = {10.17266508546209, -2.39177494339966, 0};
Point(p15 + 22) = {10.20175262217932, -2.512933253400422, 0};
Point(p15 + 23) = {10.2494353784617, -2.628049610308687, 0};
Point(p15 + 24) = {10.31453924659958, -2.73428946736809, 0};
Point(p15 + 25) = {10.39546115329204, -2.829036846707959, 0};
Point(p15 + 26) = {10.49020853263191, -2.909958753400422, 0};
Point(p15 + 27) = {10.59644838969131, -2.975062621538298, 0};
Point(p15 + 28) = {10.71156474659958, -3.022745377820683, 0};
Point(p15 + 29) = {10.83272305660034, -3.05183291453791, 0};
Point(p15 + 30) = {10.95694, -3.061609, 0};
Point(p15 + 31) = {11.08115694339966, -3.05183291453791, 0};
Point(p15 + 32) = {11.20231525340042, -3.022745377820683, 0};
Point(p15 + 33) = {11.31743161030869, -2.975062621538298, 0};
Point(p15 + 34) = {11.42367146736809, -2.909958753400422, 0};
Point(p15 + 35) = {11.51841884670796, -2.82903684670796, 0};
Point(p15 + 36) = {11.59934075340042, -2.734289467368091, 0};
Point(p15 + 37) = {11.6644446215383, -2.628049610308687, 0};
Point(p15 + 38) = {11.71212737782068, -2.512933253400422, 0};
Point(p15 + 39) = {11.74121491453791, -2.391774943399661, 0};
Spline(15) = {11, p15 + 1, p15 + 2, p15 + 3, p15 + 4, p15 + 5, p15 + 6, p15 + 7, p15 + 8, p15 + 9, p15 + 10, p15 + 11, p15 + 12, p15 + 13, p15 + 14, p15 + 15, p15 + 16, p15 + 17, p15 + 18, p15 + 19, p15 + 20, p15 + 21, p15 + 22, p15 + 23, p15 + 24, p15 + 25, p15 + 26, p15 + 27, p15 + 28, p15 + 29, p15 + 30, p15 + 31, p15 + 32, p15 + 33, p15 + 34, p15 + 35, p15 + 36, p15 + 37, p15 + 38, p15 + 39, 11};
p16 = newp;
Point(p16 + 1) = {29.49993943477081, -0.06527404201028386, 0};
Point(p16 + 2) = {29.44988596647008, 0.1432136579949675, 0};
Point(p16 + 3) = {29.36783407760532, 0.3413044409106185, 0};
Point(p16 + 4) = {29.25580415799497, 0.5241206542356691, 0};
Point(p16 + 5) = {29.11655475606583, 0.6871607560658302, 0};
Point(p16 + 6) = {28.95351465423567, 0.8264101579949674, 0};
Point(p16 + 7) = {28.77069844091062, 0.9384400776053163, 0};
Point(p16 + 8) = {28.57260765799497, 1.020491966470084, 0};
Point(p16 + 9) = {28.36411995798972, 1.070545434770812, 0};
Point(p16 + 10) = {28.150369, 1.087368, 0};
Point(p16 + 11) = {27.93661804201028, 1.070545434770812, 0};
Point(p16 + 12) = {27.72813034200503, 1.020491966470084, 0};
Point(p16 + 13) = {27.53003955908938, 0.9384400776053166, 0};
Point(p16 + 14) = {27.34722334576433, 0.8264101579949674, 0};
Point(p16 + 15) = {27.18418324393417, 0.6871607560658302, 0};
Point(p16 + 16) = {27.04493384200503, 0.5241206542356693, 0};
Point(p16 + 17) = {26.93290392239469, 0.3413044409106186, 0};
Point(p16 + 18) = {26.85085203352992, 0.1432136579949676, 0};
Point(p16 + 19) = {26.80079856522919, -0.06527404201028369, 0};
Point(p16 + 20) = {26.783976, -0.2790249999999999, 0};
Point(p16 + 21) = {26.80079856522919, -0.492775957989716, 0};
Point(p16 + 22) = {26.85085203352992, -0.701263657994968, 0};
Point(p16 + 23) = {26.93290392239468, -0.8993544409106178, 0};
Point(p16 + 24) = {27.04493384200503, -1.082170654235669, 0};
Point(p16 + 25) = {27.18418324393417, -1.24521075606583, 0};
Point(p16 + 26) = {27.34722334576433, -1.384460157994968, 0};
Point(p16 + 27) = {27.53003955908938, -1.496490077605316, 0};
Point(p16 + 28) = {27.72813034200503, -1.578541966470084, 0};
Point(p16 + 29) = {27.93661804201028, -1.628595434770812, 0};
Point(p16 + 30) = {28.150369, -1.645418, 0};
Point(p16 + 31) = {28.36411995798972, -1.628595434770812, 0};
Point(p16 + 32) = {28.57260765799497, -1.578541966470084, 0};
Point(p16 + 33) = {28.77069844091062, -1.496490077605317, 0};
Point(p16 + 34) = {28.95351465423567, -1.384460157994968, 0};
Point(p16 + 35) = {29.11655475606583, -1.245210756065831, 0};
Point(p16 + 36) = {29.25580415799497, -1.082170654235669, 0};
Point(p16 + 37) = {29.36783407760532, -0.8993544409106189, 0};
Point(p16 + 38) = {29.44988596647008, -0.7012636579949678, 0};
Point(p16 + 39) = {29.49993943477081, -0.4927759579897165, 0};
Spline(16) = {12, p16 + 1, p16 + 2, p16 + 3, p16 + 4, p16 + 5, p16 + 6, p16 + 7, p16 + 8, p16 + 9, p16 + 10, p16 + 11, p16 + 12, p16 + 13, p16 + 14, p16 + 15, p16 + 16, p16 + 17, p16 + 18, p16 + 19, p16 + 20, p16 + 21, p16 + 22, p16 + 23, p16 + 24, p16 + 25, p16 + 26, p16 + 27, p16 + 28, p16 + 29, p16 + 30, p16 + 31, p16 + 32, p16 + 33, p16 + 34, p16 + 35, p16 + 36, p16 + 37, p16 + 38, p16 + 39, 12};
Line(17) = {11, 8};
Line(18) = {12, 9};
Curve Loop(1) = {-1, 4, 3, -2};
Plane Surface(1) = {1};
Curve Loop(2) = {-5, 1, 7, -6};
Plane Surface(2) = {2};
Curve Loop(3) = {-2, 7, 9, -8, -10, -11};
Plane Surface(3) = {3};
Curve Loop(4) = {-12, 3, 8, -13};
Plane Surface(4) = {4};
Curve Loop(5) = {-4, 5, 14, -12, -15, -16};
Plane Surface(5) = {5};
Curve Loop(6) = {-6, 14, 13, -9};
Plane Surface(6) = {6};
Curve Loop(7) = {-10, -17, 15, 17};
Surface(7) = {7};
Curve Loop(8) = {-11, -18, 16, 18};
Surface(8) = {8};
Surface Loop(1) = {1, 2, 3, 4, 5, 6, 7, 8};
Volume(1) = {1};
Physical Surface("INFLOW") = {1};
Physical Surface("OUTFLOW") = {6};
Physical Surface("OBSTACLE") = {7, 8};
Physical Surface("WALL_Y") = {2, 4};
Physical Surface("WALL_Z") = {3, 5};
Physical Volume("FLUID") = {1};
