cl__1 = 1;
cl__2 = 0.08957900000000001;
cl__3 = 0.070426;
Point(1) = {0.594519, -3.860209, 1, cl__1};
Point(2) = {0.594519, -3.860209, 0, cl__1};
Point(3) = {0.594519, 5.098972, 1, cl__1};
Point(4) = {0.594519, 5.098972, 0, cl__1};
Point(5) = {34.192249, -3.860209, 0, cl__1};
Point(6) = {34.192249, -3.860209, 1, cl__1};
Point(7) = {34.192249, 5.098972, 1, cl__1};
Point(8) = {25.383994, -2.34116, 1, cl__2};
Point(9) = {18.579376, 3.894612, 1, cl__3};
Point(10) = {34.192249, 5.098972, 0, cl__1};
Point(11) = {25.383994, -2.34116, 0, cl__2};
Point(12) = {18.579376, 3.894612, 0, cl__3};
Line(1) = {2, 1};
Line(2) = {1, 3};
Line(3) = {4, 3};
Line(4) = {2, 4};
Line(5) = {2, 5};
Line(6) = {5, 6};
Line(7) = {1, 6};
Line(8) = {3, 7};
Line(9) = {6, 7};
p10 = newp;
Point(p10 + 1) = {25.37296538786835, -2.201028196299472, 1};
Point(p10 + 2) = {25.34015111250597, -2.064346902676843, 1};
Point(p10 + 3) = {25.2863591702766, -1.93448166620031, 1};
Point(p10 + 4) = {25.21291409732316, -1.814630199989935, 1};
Point(p10 + 5) = {25.12162435509197, -1.707743644908027, 1};
Point(p10 + 6) = {25.01473780001007, -1.616453902676843, 1};
Point(p10 + 7) = {24.89488633379969, -1.543008829723399, 1};
Point(p10 + 8) = {24.76502109732316, -1.48921688749403, 1};
Point(p10 + 9) = {24.62833980370053, -1.456402612131644, 1};
Point(p10 + 10) = {24.488208, -1.445374, 1};
Point(p10 + 11) = {24.34807619629947, -1.456402612131644, 1};
Point(p10 + 12) = {24.21139490267684, -1.489216887494029, 1};
Point(p10 + 13) = {24.08152966620031, -1.543008829723399, 1};
Point(p10 + 14) = {23.96167819998994, -1.616453902676843, 1};
Point(p10 + 15) = {23.85479164490803, -1.707743644908027, 1};
Point(p10 + 16) = {23.76350190267684, -1.814630199989935, 1};
Point(p10 + 17) = {23.6900568297234, -1.93448166620031, 1};
Point(p10 + 18) = {23.63626488749403, -2.064346902676843, 1};
Point(p10 + 19) = {23.60345061213165, -2.201028196299472, 1};
Point(p10 + 20) = {23.592422, -2.34116, 1};
Point(p10 + 21) = {23.60345061213165, -2.481291803700528, 1};
Point(p10 + 22) = {23.63626488749403, -2.617973097323157, 1};
Point(p10 + 23) = {23.6900568297234, -2.747838333799689, 1};
Point(p10 + 24) = {23.76350190267684, -2.867689800010065, 1};
Point(p10 + 25) = {23.85479164490803, -2.974576355091973, 1};
Point(p10 + 26) = {23.96167819998993, -3.065866097323156, 1};
Point(p10 + 27) = {24.08152966620031, -3.139311170276601, 1};
Point(p10 + 28) = {24.21139490267684, -3.19310311250597, 1};
Point(p10 + 29) = {24.34807619629947, -3.225917387868356, 1};
Point(p10 + 30) = {24.488208, -3.236946, 1};
Point(p10 + 31) = {24.62833980370053, -3.225917387868356, 1};
Point(p10 + 32) = {24.76502109732316, -3.193103112505971, 1};
Point(p10 + 33) = {24.89488633379969, -3.139311170276601, 1};
Point(p10 + 34) = {25.01473780001006, -3.065866097323156, 1};
Point(p10 + 35) = {25.12162435509197, -2.974576355091973, 1};
Point(p10 + 36) = {25.21291409732316, -2.867689800010066, 1};
Point(p10 + 37) = {25.2863591702766, -2.74783833379969, 1};
Point(p10 + 38) = {25.34015111250597, -2.617973097323157, 1};
Point(p10 + 39) = {25.37296538786835, -2.481291803700528, 1};
Spline(10) = {8, p10 + 1, p10 + 2, p10 + 3, p10 + 4, p10 + 5, p10 + 6, p10 + 7, p10 + 8, p10 + 9, p10 + 10, p10 + 11, p10 + 12, p10 + 13, p10 + 14, p10 + 15, p10 + 16, p10 + 17, p10 + 18, p10 + 19, p10 + 20, p10 + 21, p10 + 22, p10 + 23, p10 + 24, p10 + 25, p10 + 26, p10 + 27, p10 + 28, p10 + 29, p10 + 30, p10 + 31, p10 + 32, p10 + 33, p10 + 34, p10 + 35, p10 + 36, p10 + 37, p10 + 38, p10 + 39, 8};
p11 = newp;
Point(p11 + 1) = {18.57070540305919, 4.004782379914768, 1};
Point(p11 + 2) = {18.54490711110951, 4.112239999441506, 1};
Point(p11 + 3) = {18.50261636371837, 4.214338895356073, 1};
Point(p11 + 4) = {18.44487449944151, 4.308565053994244, 1};
Point(p11 + 5) = {18.37310331461165, 4.392598314611656, 1};
Point(p11 + 6) = {18.28907005399424, 4.464369499441506, 1};
Point(p11 + 7) = {18.19484389535607, 4.522111363718375, 1};
Point(p11 + 8) = {18.09274499944151, 4.564402111109509, 1};
Point(p11 + 9) = {17.98528737991477, 4.590200403059191, 1};
Point(p11 + 10) = {17.875117, 4.598871, 1};
Point(p11 + 11) = {17.76494662008523, 4.590200403059191, 1};
Point(p11 + 12) = {17.65748900055849, 4.564402111109509, 1};
Point(p11 + 13) = {17.55539010464393, 4.522111363718376, 1};
Point(p11 + 14) = {17.46116394600575, 4.464369499441506, 1};
Point(p11 + 15) = {17.37713068538834, 4.392598314611657, 1};
Point(p11 + 16) = {17.3053595005585, 4.308565053994245, 1};
Point(p11 + 17) = {17.24761763628162, 4.214338895356073, 1};
Point(p11 + 18) = {17.20532688889049, 4.112239999441506, 1};
Point(p11 + 19) = {17.17952859694081, 4.004782379914768, 1};
Point(p11 + 20) = {17.170858, 3.894612, 1};
Point(p11 + 21) = {17.17952859694081, 3.784441620085232, 1};
Point(p11 + 22) = {17.20532688889049, 3.676984000558494, 1};
Point(p11 + 23) = {17.24761763628162, 3.574885104643927, 1};
Point(p11 + 24) = {17.30535950055849, 3.480658946005755, 1};
Point(p11 + 25) = {17.37713068538834, 3.396625685388343, 1};
Point(p11 + 26) = {17.46116394600575, 3.324854500558494, 1};
Point(p11 + 27) = {17.55539010464393, 3.267112636281624, 1};
Point(p11 + 28) = {17.65748900055849, 3.224821888890491, 1};
Point(p11 + 29) = {17.76494662008523, 3.199023596940809, 1};
Point(p11 + 30) = {17.875117, 3.190353, 1};
Point(p11 + 31) = {17.98528737991477, 3.199023596940809, 1};
Point(p11 + 32) = {18.09274499944151, 3.224821888890491, 1};
Point(p11 + 33) = {18.19484389535607, 3.267112636281624, 1};
Point(p11 + 34) = {18.28907005399424, 3.324854500558494, 1};
Point(p11 + 35) = {18.37310331461165, 3.396625685388343, 1};
Point(p11 + 36) = {18.4448744994415, 3.480658946005755, 1};
Point(p11 + 37) = {18.50261636371837, 3.574885104643927, 1};
Point(p11 + 38) = {18.54490711110951, 3.676984000558494, 1};
Point(p11 + 39) = {18.57070540305919, 3.784441620085232, 1};
Spline(11) = {9, p11 + 1, p11 + 2, p11 + 3, p11 + 4, p11 + 5, p11 + 6, p11 + 7, p11 + 8, p11 + 9, p11 + 10, p11 + 11, p11 + 12, p11 + 13, p11 + 14, p11 + 15, p11 + 16, p11 + 17, p11 + 18, p11 + 19, p11 + 20, p11 + 21, p11 + 22, p11 + 23, p11 + 24, p11 + 25, p11 + 26, p11 + 27, p11 + 28, p11 + 29, p11 + 30, p11 + 31, p11 + 32, p11 + 33, p11 + 34, p11 + 35, p11 + 36, p11 + 37, p11 + 38, p11 + 39, 9};
Line(12) = {4, 10};
Line(13) = {10, 7};
Line(14) = {5, 10};
p15 = newp;
Point(p15 + 1) = {25.37296538786835, -2.201028196299472, 0};
Point(p15 + 2) = {25.34015111250597, -2.064346902676843, 0};
Point(p15 + 3) = {25.2863591702766, -1.93448166620031, 0};
Point(p15 + 4) = {25.21291409732316, -1.814630199989935, 0};
Point(p15 + 5) = {25.12162435509197, -1.707743644908027, 0};
Point(p15 + 6) = {25.01473780001007, -1.616453902676843, 0};
Point(p15 + 7) = {24.89488633379969, -1.543008829723399, 0};
Point(p15 + 8) = {24.76502109732316, -1.48921688749403, 0};
Point(p15 + 9) = {24.62833980370053, -1.456402612131644, 0};
Point(p15 + 10) = {24.488208, -1.445374, 0};
Point(p15 + 11) = {24.34807619629947, -1.456402612131644, 0};
Point(p15 + 12) = {24.21139490267684, -1.489216887494029, 0};
Point(p15 + 13) = {24.08152966620031, -1.543008829723399, 0};
Point(p15 + 14) = {23.96167819998994, -1.616453902676843, 0};
Point(p15 + 15) = {23.85479164490803, -1.707743644908027, 0};
Point(p15 + 16) = {23.76350190267684, -1.814630199989935, 0};
Point(p15 + 17) = {23.6900568297234, -1.93448166620031, 0};
Point(p15 + 18) = {23.63626488749403, -2.064346902676843, 0};
Point(p15 + 19) = {23.60345061213165, -2.201028196299472, 0};
Point(p15 + 20) = {23.592422, -2.34116, 0};
Point(p15 + 21) = {23.60345061213165, -2.481291803700528, 0};
Point(p15 + 22) = {23.63626488749403, -2.617973097323157, 0};
Point(p15 + 23) = {23.6900568297234, -2.747838333799689, 0};
Point(p15 + 24) = {23.76350190267684, -2.867689800010065, 0};
Point(p15 + 25) = {23.85479164490803, -2.974576355091973, 0};
Point(p15 + 26) = {23.96167819998993, -3.065866097323156, 0};
Point(p15 + 27) = {24.08152966620031, -3.139311170276601, 0};
Point(p15 + 28) = {24.21139490267684, -3.19310311250597, 0};
Point(p15 + 29) = {24.34807619629947, -3.225917387868356, 0};
Point(p15 + 30) = {24.488208, -3.236946, 0};
Point(p15 + 31) = {24.62833980370053, -3.225917387868356, 0};
Point(p15 + 32) = {24.76502109732316, -3.193103112505971, 0};
Point(p15 + 33) = {24.89488633379969, -3.139311170276601, 0};
Point(p15 + 34) = {25.01473780001006, -3.065866097323156, 0};
Point(p15 + 35) = {25.12162435509197, -2.974576355091973, 0};
Point(p15 + 36) = {25.21291409732316, -2.867689800010066, 0};
Point(p15 + 37) = {25.2863591702766, -2.74783833379969, 0};
Point(p15 + 38) = {25.34015111250597, -2.617973097323157, 0};
Point(p15 + 39) = {25.37296538786835, -2.481291803700528, 0};
Spline(15) = {11, p15 + 1, p15 + 2, p15 + 3, p15 + 4, p15 + 5, p15 + 6, p15 + 7, p15 + 8, p15 + 9, p15 + 10, p15 + 11, p15 + 12, p15 + 13, p15 + 14, p15 + 15, p15 + 16, p15 + 17, p15 + 18, p15 + 19, p15 + 20, p15 + 21, p15 + 22, p15 + 23, p15 + 24, p15 + 25, p15 + 26, p15 + 27, p15 + 28, p15 + 29, p15 + 30, p15 + 31, p15 + 32, p15 + 33, p15 + 34, p15 + 35, p15 + 36, p15 + 37, p15 + 38, p15 + 39, 11};
p16 = newp;
Point(p16 + 1) = {18.57070540305919, 4.004782379914768, 0};
Point(p16 + 2) = {18.54490711110951, 4.112239999441506, 0};
Point(p16 + 3) = {18.50261636371837, 4.214338895356073, 0};
Point(p16 + 4) = {18.44487449944151, 4.308565053994244, 0};
Point(p16 + 5) = {18.37310331461165, 4.392598314611656, 0};
Point(p16 + 6) = {18.28907005399424, 4.464369499441506, 0};
Point(p16 + 7) = {18.19484389535607, 4.522111363718375, 0};
Point(p16 + 8) = {18.09274499944151, 4.564402111109509, 0};
Point(p16 + 9) = {17.98528737991477, 4.590200403059191, 0};
Point(p16 + 10) = {17.875117, 4.598871, 0};
Point(p16 + 11) = {17.76494662008523, 4.590200403059191, 0};
Point(p16 + 12) = {17.65748900055849, 4.564402111109509, 0};
Point(p16 + 13) = {17.55539010464393, 4.522111363718376, 0};
Point(p16 + 14) = {17.46116394600575, 4.464369499441506, 0};
Point(p16 + 15) = {17.37713068538834, 4.392598314611657, 0};
Point(p16 + 16) = {17.3053595005585, 4.308565053994245, 0};
Point(p16 + 17) = {17.24761763628162, 4.214338895356073, 0};
Point(p16 + 18) = {17.20532688889049, 4.112239999441506, 0};
Point(p16 + 19) = {17.17952859694081, 4.004782379914768, 0};
Point(p16 + 20) = {17.170858, 3.894612, 0};
Point(p16 + 21) = {17.17952859694081, 3.784441620085232, 0};
Point(p16 + 22) = {17.20532688889049, 3.676984000558494, 0};
Point(p16 + 23) = {17.24761763628162, 3.574885104643927, 0};
Point(p16 + 24) = {17.30535950055849, 3.480658946005755, 0};
Point(p16 + 25) = {17.37713068538834, 3.396625685388343, 0};
Point(p16 + 26) = {17.46116394600575, 3.324854500558494, 0};
Point(p16 + 27) = {17.55539010464393, 3.267112636281624, 0};
Point(p16 + 28) = {17.65748900055849, 3.224821888890491, 0};
Point(p16 + 29) = {17.76494662008523, 3.199023596940809, 0};
Point(p16 + 30) = {17.875117, 3.190353, 0};
Point(p16 + 31) = {17.98528737991477, 3.199023596940809, 0};
Point(p16 + 32) = {18.09274499944151, 3.224821888890491, 0};
Point(p16 + 33) = {18.19484389535607, 3.267112636281624, 0};
Point(p16 + 34) = {18.28907005399424, 3.324854500558494, 0};
Point(p16 + 35) = {18.37310331461165, 3.396625685388343, 0};
Point(p16 + 36) = {18.4448744994415, 3.480658946005755, 0};
Point(p16 + 37) = {18.50261636371837, 3.574885104643927, 0};
Point(p16 + 38) = {18.54490711110951, 3.676984000558494, 0};
Point(p16 + 39) = {18.57070540305919, 3.784441620085232, 0};
Spline(16) = {12, p16 + 1, p16 + 2, p16 + 3, p16 + 4, p16 + 5, p16 + 6, p16 + 7, p16 + 8, p16 + 9, p16 + 10, p16 + 11, p16 + 12, p16 + 13, p16 + 14, p16 + 15, p16 + 16, p16 + 17, p16 + 18, p16 + 19, p16 + 20, p16 + 21, p16 + 22, p16 + 23, p16 + 24, p16 + 25, p16 + 26, p16 + 27, p16 + 28, p16 + 29, p16 + 30, p16 + 31, p16 + 32, p16 + 33, p16 + 34, p16 + 35, p16 + 36, p16 + 37, p16 + 38, p16 + 39, 12};
Line(17) = {11, 8};
Line(18) = {12, 9};
Curve Loop(1) = {-1, 4, 3, -2};
Plane Surface(1) = {1};
Curve Loop(2) = {-5, 1, 7, -6};
Plane Surface(2) = {2};
Curve Loop(3) = {-2, 7, 9, -8, -10, -11};
Plane Surface(3) = {3};
Curve Loop(4) = {-12, 3, 8, -13};
Plane Surface(4) = {4};
Curve Loop(5) = {-4, 5, 14, -12, -15, -16};
Plane Surface(5) = {5};
Curve Loop(6) = {-6, 14, 13, -9};
Plane Surface(6) = {6};
Curve Loop(7) = {-10, -17, 15, 17};
Surface(7) = {7};
Curve Loop(8) = {-11, -18, 16, 18};
Surface(8) = {8};
Surface Loop(1) = {1, 2, 3, 4, 5, 6, 7, 8};
Volume(1) = {1};
Physical Surface("INFLOW") = {1};
Physical Surface("OUTFLOW") = {6};
Physical Surface("OBSTACLE") = {7, 8};
Physical Surface("WALL_Y") = {2, 4};
Physical Surface("WALL_Z") = {3, 5};
Physical Volume("FLUID") = {1};
