cl__1 = 1;
cl__2 = 0.147321;
cl__3 = 0.147072;
Point(1) = {0.304082, -3.832717, 1, cl__1};
Point(2) = {0.304082, -3.832717, 0, cl__1};
Point(3) = {0.304082, 4.096626000000001, 1, cl__1};
Point(4) = {0.304082, 4.096626000000001, 0, cl__1};
Point(5) = {37.893482, -3.832717, 0, cl__1};
Point(6) = {37.893482, -3.832717, 1, cl__1};
Point(7) = {37.893482, 4.096626000000001, 1, cl__1};
Point(8) = {28.446248, -1.702853, 1, cl__2};
Point(9) = {11.323312, -0.1249420000000004, 1, cl__3};
Point(10) = {37.893482, 4.096626000000001, 0, cl__1};
Point(11) = {28.446248, -1.702853, 0, cl__2};
Point(12) = {11.323312, -0.1249420000000004, 0, cl__3};
Line(1) = {2, 1};
Line(2) = {1, 3};
Line(3) = {4, 3};
Line(4) = {2, 4};
Line(5) = {2, 5};
Line(6) = {5, 6};
Line(7) = {1, 6};
Line(8) = {3, 7};
Line(9) = {6, 7};
p10 = newp;
Point(p10 + 1) = {28.4281103894948, -1.472392807495942, 1};
Point(p10 + 2) = {28.37414416614512, -1.247607309784861, 1};
Point(p10 + 3) = {28.28567815747345, -1.034031471840701, 1};
Point(p10 + 4) = {28.16489069021514, -0.8369242396112148, 1};
Point(p10 + 5) = {28.01475595268471, -0.6611390473152912, 1};
Point(p10 + 6) = {27.83897076038879, -0.5110043097848611, 1};
Point(p10 + 7) = {27.6418635281593, -0.3902168425265513, 1};
Point(p10 + 8) = {27.42828769021514, -0.301750833854882, 1};
Point(p10 + 9) = {27.20350219250406, -0.2477846105051995, 1};
Point(p10 + 10) = {26.973042, -0.2296469999999999, 1};
Point(p10 + 11) = {26.74258180749594, -0.2477846105051995, 1};
Point(p10 + 12) = {26.51779630978486, -0.3017508338548818, 1};
Point(p10 + 13) = {26.3042204718407, -0.3902168425265513, 1};
Point(p10 + 14) = {26.10711323961122, -0.5110043097848611, 1};
Point(p10 + 15) = {25.93132804731529, -0.6611390473152909, 1};
Point(p10 + 16) = {25.78119330978486, -0.8369242396112146, 1};
Point(p10 + 17) = {25.66040584252655, -1.034031471840701, 1};
Point(p10 + 18) = {25.57193983385488, -1.247607309784861, 1};
Point(p10 + 19) = {25.5179736105052, -1.472392807495941, 1};
Point(p10 + 20) = {25.499836, -1.702853, 1};
Point(p10 + 21) = {25.5179736105052, -1.933313192504058, 1};
Point(p10 + 22) = {25.57193983385488, -2.158098690215139, 1};
Point(p10 + 23) = {25.66040584252655, -2.371674528159298, 1};
Point(p10 + 24) = {25.78119330978486, -2.568781760388785, 1};
Point(p10 + 25) = {25.93132804731529, -2.744566952684709, 1};
Point(p10 + 26) = {26.10711323961121, -2.894701690215139, 1};
Point(p10 + 27) = {26.3042204718407, -3.015489157473449, 1};
Point(p10 + 28) = {26.51779630978486, -3.103955166145118, 1};
Point(p10 + 29) = {26.74258180749594, -3.1579213894948, 1};
Point(p10 + 30) = {26.973042, -3.176059, 1};
Point(p10 + 31) = {27.20350219250406, -3.1579213894948, 1};
Point(p10 + 32) = {27.42828769021514, -3.103955166145118, 1};
Point(p10 + 33) = {27.6418635281593, -3.015489157473449, 1};
Point(p10 + 34) = {27.83897076038878, -2.894701690215139, 1};
Point(p10 + 35) = {28.01475595268471, -2.744566952684709, 1};
Point(p10 + 36) = {28.16489069021514, -2.568781760388785, 1};
Point(p10 + 37) = {28.28567815747345, -2.371674528159299, 1};
Point(p10 + 38) = {28.37414416614512, -2.158098690215139, 1};
Point(p10 + 39) = {28.4281103894948, -1.933313192504059, 1};
Spline(10) = {8, p10 + 1, p10 + 2, p10 + 3, p10 + 4, p10 + 5, p10 + 6, p10 + 7, p10 + 8, p10 + 9, p10 + 10, p10 + 11, p10 + 12, p10 + 13, p10 + 14, p10 + 15, p10 + 16, p10 + 17, p10 + 18, p10 + 19, p10 + 20, p10 + 21, p10 + 22, p10 + 23, p10 + 24, p10 + 25, p10 + 26, p10 + 27, p10 + 28, p10 + 29, p10 + 30, p10 + 31, p10 + 32, p10 + 33, p10 + 34, p10 + 35, p10 + 36, p10 + 37, p10 + 38, p10 + 39, 8};
p11 = newp;
Point(p11 + 1) = {11.30520494703344, 0.1051299221618285, 1};
Point(p11 + 2) = {11.25132964387167, 0.3295367100351001, 1};
Point(p11 + 3) = {11.16301267928041, 0.5427527237389451, 1};
Point(p11 + 4) = {11.0424287100351, 0.7395278773925952, 1};
Point(p11 + 5) = {10.8925469136538, 0.9150169136538037, 1};
Point(p11 + 6) = {10.7170578773926, 1.0648987100351, 1};
Point(p11 + 7) = {10.52028272373895, 1.185482679280413, 1};
Point(p11 + 8) = {10.3070667100351, 1.273799643871673, 1};
Point(p11 + 9) = {10.08265992216183, 1.327674947033443, 1};
Point(p11 + 10) = {9.852588000000001, 1.345782, 1};
Point(p11 + 11) = {9.622516077838172, 1.327674947033443, 1};
Point(p11 + 12) = {9.3981092899649, 1.273799643871674, 1};
Point(p11 + 13) = {9.184893276261056, 1.185482679280413, 1};
Point(p11 + 14) = {8.988118122607405, 1.0648987100351, 1};
Point(p11 + 15) = {8.812629086346197, 0.9150169136538039, 1};
Point(p11 + 16) = {8.662747289964901, 0.7395278773925954, 1};
Point(p11 + 17) = {8.542163320719588, 0.5427527237389452, 1};
Point(p11 + 18) = {8.453846356128327, 0.3295367100351003, 1};
Point(p11 + 19) = {8.399971052966558, 0.1051299221618286, 1};
Point(p11 + 20) = {8.381864, -0.1249419999999998, 1};
Point(p11 + 21) = {8.399971052966558, -0.3550139221618283, 1};
Point(p11 + 22) = {8.453846356128327, -0.5794207100351005, 1};
Point(p11 + 23) = {8.542163320719588, -0.7926367237389443, 1};
Point(p11 + 24) = {8.662747289964901, -0.9894118773925951, 1};
Point(p11 + 25) = {8.812629086346197, -1.164900913653804, 1};
Point(p11 + 26) = {8.988118122607405, -1.3147827100351, 1};
Point(p11 + 27) = {9.184893276261056, -1.435366679280413, 1};
Point(p11 + 28) = {9.3981092899649, -1.523683643871673, 1};
Point(p11 + 29) = {9.622516077838172, -1.577558947033443, 1};
Point(p11 + 30) = {9.852588000000001, -1.595666, 1};
Point(p11 + 31) = {10.08265992216183, -1.577558947033443, 1};
Point(p11 + 32) = {10.3070667100351, -1.523683643871673, 1};
Point(p11 + 33) = {10.52028272373895, -1.435366679280413, 1};
Point(p11 + 34) = {10.7170578773926, -1.3147827100351, 1};
Point(p11 + 35) = {10.8925469136538, -1.164900913653804, 1};
Point(p11 + 36) = {11.0424287100351, -0.9894118773925955, 1};
Point(p11 + 37) = {11.16301267928041, -0.7926367237389454, 1};
Point(p11 + 38) = {11.25132964387167, -0.5794207100351004, 1};
Point(p11 + 39) = {11.30520494703344, -0.3550139221618288, 1};
Spline(11) = {9, p11 + 1, p11 + 2, p11 + 3, p11 + 4, p11 + 5, p11 + 6, p11 + 7, p11 + 8, p11 + 9, p11 + 10, p11 + 11, p11 + 12, p11 + 13, p11 + 14, p11 + 15, p11 + 16, p11 + 17, p11 + 18, p11 + 19, p11 + 20, p11 + 21, p11 + 22, p11 + 23, p11 + 24, p11 + 25, p11 + 26, p11 + 27, p11 + 28, p11 + 29, p11 + 30, p11 + 31, p11 + 32, p11 + 33, p11 + 34, p11 + 35, p11 + 36, p11 + 37, p11 + 38, p11 + 39, 9};
Line(12) = {4, 10};
Line(13) = {10, 7};
Line(14) = {5, 10};
p15 = newp;
Point(p15 + 1) = {28.4281103894948, -1.472392807495942, 0};
Point(p15 + 2) = {28.37414416614512, -1.247607309784861, 0};
Point(p15 + 3) = {28.28567815747345, -1.034031471840701, 0};
Point(p15 + 4) = {28.16489069021514, -0.8369242396112148, 0};
Point(p15 + 5) = {28.01475595268471, -0.6611390473152912, 0};
Point(p15 + 6) = {27.83897076038879, -0.5110043097848611, 0};
Point(p15 + 7) = {27.6418635281593, -0.3902168425265513, 0};
Point(p15 + 8) = {27.42828769021514, -0.301750833854882, 0};
Point(p15 + 9) = {27.20350219250406, -0.2477846105051995, 0};
Point(p15 + 10) = {26.973042, -0.2296469999999999, 0};
Point(p15 + 11) = {26.74258180749594, -0.2477846105051995, 0};
Point(p15 + 12) = {26.51779630978486, -0.3017508338548818, 0};
Point(p15 + 13) = {26.3042204718407, -0.3902168425265513, 0};
Point(p15 + 14) = {26.10711323961122, -0.5110043097848611, 0};
Point(p15 + 15) = {25.93132804731529, -0.6611390473152909, 0};
Point(p15 + 16) = {25.78119330978486, -0.8369242396112146, 0};
Point(p15 + 17) = {25.66040584252655, -1.034031471840701, 0};
Point(p15 + 18) = {25.57193983385488, -1.247607309784861, 0};
Point(p15 + 19) = {25.5179736105052, -1.472392807495941, 0};
Point(p15 + 20) = {25.499836, -1.702853, 0};
Point(p15 + 21) = {25.5179736105052, -1.933313192504058, 0};
Point(p15 + 22) = {25.57193983385488, -2.158098690215139, 0};
Point(p15 + 23) = {25.66040584252655, -2.371674528159298, 0};
Point(p15 + 24) = {25.78119330978486, -2.568781760388785, 0};
Point(p15 + 25) = {25.93132804731529, -2.744566952684709, 0};
Point(p15 + 26) = {26.10711323961121, -2.894701690215139, 0};
Point(p15 + 27) = {26.3042204718407, -3.015489157473449, 0};
Point(p15 + 28) = {26.51779630978486, -3.103955166145118, 0};
Point(p15 + 29) = {26.74258180749594, -3.1579213894948, 0};
Point(p15 + 30) = {26.973042, -3.176059, 0};
Point(p15 + 31) = {27.20350219250406, -3.1579213894948, 0};
Point(p15 + 32) = {27.42828769021514, -3.103955166145118, 0};
Point(p15 + 33) = {27.6418635281593, -3.015489157473449, 0};
Point(p15 + 34) = {27.83897076038878, -2.894701690215139, 0};
Point(p15 + 35) = {28.01475595268471, -2.744566952684709, 0};
Point(p15 + 36) = {28.16489069021514, -2.568781760388785, 0};
Point(p15 + 37) = {28.28567815747345, -2.371674528159299, 0};
Point(p15 + 38) = {28.37414416614512, -2.158098690215139, 0};
Point(p15 + 39) = {28.4281103894948, -1.933313192504059, 0};
Spline(15) = {11, p15 + 1, p15 + 2, p15 + 3, p15 + 4, p15 + 5, p15 + 6, p15 + 7, p15 + 8, p15 + 9, p15 + 10, p15 + 11, p15 + 12, p15 + 13, p15 + 14, p15 + 15, p15 + 16, p15 + 17, p15 + 18, p15 + 19, p15 + 20, p15 + 21, p15 + 22, p15 + 23, p15 + 24, p15 + 25, p15 + 26, p15 + 27, p15 + 28, p15 + 29, p15 + 30, p15 + 31, p15 + 32, p15 + 33, p15 + 34, p15 + 35, p15 + 36, p15 + 37, p15 + 38, p15 + 39, 11};
p16 = newp;
Point(p16 + 1) = {11.30520494703344, 0.1051299221618285, 0};
Point(p16 + 2) = {11.25132964387167, 0.3295367100351001, 0};
Point(p16 + 3) = {11.16301267928041, 0.5427527237389451, 0};
Point(p16 + 4) = {11.0424287100351, 0.7395278773925952, 0};
Point(p16 + 5) = {10.8925469136538, 0.9150169136538037, 0};
Point(p16 + 6) = {10.7170578773926, 1.0648987100351, 0};
Point(p16 + 7) = {10.52028272373895, 1.185482679280413, 0};
Point(p16 + 8) = {10.3070667100351, 1.273799643871673, 0};
Point(p16 + 9) = {10.08265992216183, 1.327674947033443, 0};
Point(p16 + 10) = {9.852588000000001, 1.345782, 0};
Point(p16 + 11) = {9.622516077838172, 1.327674947033443, 0};
Point(p16 + 12) = {9.3981092899649, 1.273799643871674, 0};
Point(p16 + 13) = {9.184893276261056, 1.185482679280413, 0};
Point(p16 + 14) = {8.988118122607405, 1.0648987100351, 0};
Point(p16 + 15) = {8.812629086346197, 0.9150169136538039, 0};
Point(p16 + 16) = {8.662747289964901, 0.7395278773925954, 0};
Point(p16 + 17) = {8.542163320719588, 0.5427527237389452, 0};
Point(p16 + 18) = {8.453846356128327, 0.3295367100351003, 0};
Point(p16 + 19) = {8.399971052966558, 0.1051299221618286, 0};
Point(p16 + 20) = {8.381864, -0.1249419999999998, 0};
Point(p16 + 21) = {8.399971052966558, -0.3550139221618283, 0};
Point(p16 + 22) = {8.453846356128327, -0.5794207100351005, 0};
Point(p16 + 23) = {8.542163320719588, -0.7926367237389443, 0};
Point(p16 + 24) = {8.662747289964901, -0.9894118773925951, 0};
Point(p16 + 25) = {8.812629086346197, -1.164900913653804, 0};
Point(p16 + 26) = {8.988118122607405, -1.3147827100351, 0};
Point(p16 + 27) = {9.184893276261056, -1.435366679280413, 0};
Point(p16 + 28) = {9.3981092899649, -1.523683643871673, 0};
Point(p16 + 29) = {9.622516077838172, -1.577558947033443, 0};
Point(p16 + 30) = {9.852588000000001, -1.595666, 0};
Point(p16 + 31) = {10.08265992216183, -1.577558947033443, 0};
Point(p16 + 32) = {10.3070667100351, -1.523683643871673, 0};
Point(p16 + 33) = {10.52028272373895, -1.435366679280413, 0};
Point(p16 + 34) = {10.7170578773926, -1.3147827100351, 0};
Point(p16 + 35) = {10.8925469136538, -1.164900913653804, 0};
Point(p16 + 36) = {11.0424287100351, -0.9894118773925955, 0};
Point(p16 + 37) = {11.16301267928041, -0.7926367237389454, 0};
Point(p16 + 38) = {11.25132964387167, -0.5794207100351004, 0};
Point(p16 + 39) = {11.30520494703344, -0.3550139221618288, 0};
Spline(16) = {12, p16 + 1, p16 + 2, p16 + 3, p16 + 4, p16 + 5, p16 + 6, p16 + 7, p16 + 8, p16 + 9, p16 + 10, p16 + 11, p16 + 12, p16 + 13, p16 + 14, p16 + 15, p16 + 16, p16 + 17, p16 + 18, p16 + 19, p16 + 20, p16 + 21, p16 + 22, p16 + 23, p16 + 24, p16 + 25, p16 + 26, p16 + 27, p16 + 28, p16 + 29, p16 + 30, p16 + 31, p16 + 32, p16 + 33, p16 + 34, p16 + 35, p16 + 36, p16 + 37, p16 + 38, p16 + 39, 12};
Line(17) = {11, 8};
Line(18) = {12, 9};
Curve Loop(1) = {-1, 4, 3, -2};
Plane Surface(1) = {1};
Curve Loop(2) = {-5, 1, 7, -6};
Plane Surface(2) = {2};
Curve Loop(3) = {-2, 7, 9, -8, -10, -11};
Plane Surface(3) = {3};
Curve Loop(4) = {-12, 3, 8, -13};
Plane Surface(4) = {4};
Curve Loop(5) = {-4, 5, 14, -12, -15, -16};
Plane Surface(5) = {5};
Curve Loop(6) = {-6, 14, 13, -9};
Plane Surface(6) = {6};
Curve Loop(7) = {-10, -17, 15, 17};
Surface(7) = {7};
Curve Loop(8) = {-11, -18, 16, 18};
Surface(8) = {8};
Surface Loop(1) = {1, 2, 3, 4, 5, 6, 7, 8};
Volume(1) = {1};
Physical Surface("INFLOW") = {1};
Physical Surface("OUTFLOW") = {6};
Physical Surface("OBSTACLE") = {7, 8};
Physical Surface("WALL_Y") = {2, 4};
Physical Surface("WALL_Z") = {3, 5};
Physical Volume("FLUID") = {1};
