cl__1 = 3.910315;
cl__2 = 0.873946;
cl__3 = 1.024598;
cl__4 = 0.090058;
Point(1) = {0.847172, -4.228457, 1, cl__1};
Point(2) = {0.847172, -4.228457, 0, cl__1};
Point(3) = {0.847172, 5.090313000000001, 1, cl__1};
Point(4) = {0.847172, 5.090313000000001, 0, cl__1};
Point(5) = {38.824557, -4.228457, 0, cl__2};
Point(6) = {38.824557, -4.228457, 1, cl__2};
Point(7) = {38.824557, 5.090313000000001, 1, cl__3};
Point(8) = {30.556983, -1.249299, 1, cl__4};
Point(9) = {38.824557, 5.090313000000001, 0, cl__3};
Point(10) = {30.556983, -1.249299, 0, cl__4};
Line(1) = {2, 1};
Line(2) = {1, 3};
Line(3) = {4, 3};
Line(4) = {2, 4};
Line(5) = {2, 5};
Line(6) = {5, 6};
Line(7) = {1, 6};
Line(8) = {3, 7};
Line(9) = {6, 7};
p10 = newp;
Point(p10 + 1) = {30.54589534114985, -1.108416936605139, 1};
Point(p10 + 2) = {30.51290537955812, -0.9710038571718211, 1};
Point(p10 + 3) = {30.45882543756661, -0.8404433277635595, 1};
Point(p10 + 4) = {30.38498714282818, -0.7199501819199399, 1};
Point(p10 + 5) = {30.29320863921454, -0.6124913607854566, 1};
Point(p10 + 6) = {30.18574981808006, -0.520712857171821, 1};
Point(p10 + 7) = {30.06525667223644, -0.4468745624333913, 1};
Point(p10 + 8) = {29.93469614282818, -0.392794620441878, 1};
Point(p10 + 9) = {29.79728306339486, -0.3598046588501496, 1};
Point(p10 + 10) = {29.656401, -0.3487169999999999, 1};
Point(p10 + 11) = {29.51551893660514, -0.3598046588501497, 1};
Point(p10 + 12) = {29.37810585717182, -0.3927946204418779, 1};
Point(p10 + 13) = {29.24754532776356, -0.4468745624333912, 1};
Point(p10 + 14) = {29.12705218191994, -0.520712857171821, 1};
Point(p10 + 15) = {29.01959336078546, -0.6124913607854565, 1};
Point(p10 + 16) = {28.92781485717182, -0.7199501819199398, 1};
Point(p10 + 17) = {28.85397656243339, -0.8404433277635593, 1};
Point(p10 + 18) = {28.79989662044188, -0.9710038571718209, 1};
Point(p10 + 19) = {28.76690665885015, -1.108416936605139, 1};
Point(p10 + 20) = {28.755819, -1.249299, 1};
Point(p10 + 21) = {28.76690665885015, -1.390181063394861, 1};
Point(p10 + 22) = {28.79989662044188, -1.527594142828179, 1};
Point(p10 + 23) = {28.85397656243339, -1.65815467223644, 1};
Point(p10 + 24) = {28.92781485717182, -1.77864781808006, 1};
Point(p10 + 25) = {29.01959336078546, -1.886106639214543, 1};
Point(p10 + 26) = {29.12705218191994, -1.977885142828179, 1};
Point(p10 + 27) = {29.24754532776356, -2.051723437566609, 1};
Point(p10 + 28) = {29.37810585717182, -2.105803379558122, 1};
Point(p10 + 29) = {29.51551893660514, -2.13879334114985, 1};
Point(p10 + 30) = {29.656401, -2.149881, 1};
Point(p10 + 31) = {29.79728306339486, -2.13879334114985, 1};
Point(p10 + 32) = {29.93469614282818, -2.105803379558122, 1};
Point(p10 + 33) = {30.06525667223644, -2.051723437566609, 1};
Point(p10 + 34) = {30.18574981808006, -1.977885142828179, 1};
Point(p10 + 35) = {30.29320863921454, -1.886106639214543, 1};
Point(p10 + 36) = {30.38498714282818, -1.77864781808006, 1};
Point(p10 + 37) = {30.45882543756661, -1.658154672236441, 1};
Point(p10 + 38) = {30.51290537955812, -1.527594142828179, 1};
Point(p10 + 39) = {30.54589534114985, -1.390181063394861, 1};
Spline(10) = {8, p10 + 1, p10 + 2, p10 + 3, p10 + 4, p10 + 5, p10 + 6, p10 + 7, p10 + 8, p10 + 9, p10 + 10, p10 + 11, p10 + 12, p10 + 13, p10 + 14, p10 + 15, p10 + 16, p10 + 17, p10 + 18, p10 + 19, p10 + 20, p10 + 21, p10 + 22, p10 + 23, p10 + 24, p10 + 25, p10 + 26, p10 + 27, p10 + 28, p10 + 29, p10 + 30, p10 + 31, p10 + 32, p10 + 33, p10 + 34, p10 + 35, p10 + 36, p10 + 37, p10 + 38, p10 + 39, 8};
Line(11) = {4, 9};
Line(12) = {9, 7};
Line(13) = {5, 9};
p14 = newp;
Point(p14 + 1) = {30.54589534114985, -1.108416936605139, 0};
Point(p14 + 2) = {30.51290537955812, -0.9710038571718211, 0};
Point(p14 + 3) = {30.45882543756661, -0.8404433277635595, 0};
Point(p14 + 4) = {30.38498714282818, -0.7199501819199399, 0};
Point(p14 + 5) = {30.29320863921454, -0.6124913607854566, 0};
Point(p14 + 6) = {30.18574981808006, -0.520712857171821, 0};
Point(p14 + 7) = {30.06525667223644, -0.4468745624333913, 0};
Point(p14 + 8) = {29.93469614282818, -0.392794620441878, 0};
Point(p14 + 9) = {29.79728306339486, -0.3598046588501496, 0};
Point(p14 + 10) = {29.656401, -0.3487169999999999, 0};
Point(p14 + 11) = {29.51551893660514, -0.3598046588501497, 0};
Point(p14 + 12) = {29.37810585717182, -0.3927946204418779, 0};
Point(p14 + 13) = {29.24754532776356, -0.4468745624333912, 0};
Point(p14 + 14) = {29.12705218191994, -0.520712857171821, 0};
Point(p14 + 15) = {29.01959336078546, -0.6124913607854565, 0};
Point(p14 + 16) = {28.92781485717182, -0.7199501819199398, 0};
Point(p14 + 17) = {28.85397656243339, -0.8404433277635593, 0};
Point(p14 + 18) = {28.79989662044188, -0.9710038571718209, 0};
Point(p14 + 19) = {28.76690665885015, -1.108416936605139, 0};
Point(p14 + 20) = {28.755819, -1.249299, 0};
Point(p14 + 21) = {28.76690665885015, -1.390181063394861, 0};
Point(p14 + 22) = {28.79989662044188, -1.527594142828179, 0};
Point(p14 + 23) = {28.85397656243339, -1.65815467223644, 0};
Point(p14 + 24) = {28.92781485717182, -1.77864781808006, 0};
Point(p14 + 25) = {29.01959336078546, -1.886106639214543, 0};
Point(p14 + 26) = {29.12705218191994, -1.977885142828179, 0};
Point(p14 + 27) = {29.24754532776356, -2.051723437566609, 0};
Point(p14 + 28) = {29.37810585717182, -2.105803379558122, 0};
Point(p14 + 29) = {29.51551893660514, -2.13879334114985, 0};
Point(p14 + 30) = {29.656401, -2.149881, 0};
Point(p14 + 31) = {29.79728306339486, -2.13879334114985, 0};
Point(p14 + 32) = {29.93469614282818, -2.105803379558122, 0};
Point(p14 + 33) = {30.06525667223644, -2.051723437566609, 0};
Point(p14 + 34) = {30.18574981808006, -1.977885142828179, 0};
Point(p14 + 35) = {30.29320863921454, -1.886106639214543, 0};
Point(p14 + 36) = {30.38498714282818, -1.77864781808006, 0};
Point(p14 + 37) = {30.45882543756661, -1.658154672236441, 0};
Point(p14 + 38) = {30.51290537955812, -1.527594142828179, 0};
Point(p14 + 39) = {30.54589534114985, -1.390181063394861, 0};
Spline(14) = {10, p14 + 1, p14 + 2, p14 + 3, p14 + 4, p14 + 5, p14 + 6, p14 + 7, p14 + 8, p14 + 9, p14 + 10, p14 + 11, p14 + 12, p14 + 13, p14 + 14, p14 + 15, p14 + 16, p14 + 17, p14 + 18, p14 + 19, p14 + 20, p14 + 21, p14 + 22, p14 + 23, p14 + 24, p14 + 25, p14 + 26, p14 + 27, p14 + 28, p14 + 29, p14 + 30, p14 + 31, p14 + 32, p14 + 33, p14 + 34, p14 + 35, p14 + 36, p14 + 37, p14 + 38, p14 + 39, 10};
Line(15) = {10, 8};
Curve Loop(1) = {-1, 4, 3, -2};
Plane Surface(1) = {1};
Curve Loop(2) = {-5, 1, 7, -6};
Plane Surface(2) = {2};
Curve Loop(3) = {-2, 7, 9, -8, -10};
Plane Surface(3) = {3};
Curve Loop(4) = {-11, 3, 8, -12};
Plane Surface(4) = {4};
Curve Loop(5) = {-4, 5, 13, -11, -14};
Plane Surface(5) = {5};
Curve Loop(6) = {-6, 13, 12, -9};
Plane Surface(6) = {6};
Curve Loop(7) = {-10, -15, 14, 15};
Surface(7) = {7};
Surface Loop(1) = {1, 2, 3, 4, 5, 6, 7};
Volume(1) = {1};
Physical Surface("INFLOW") = {1};
Physical Surface("OUTFLOW") = {6};
Physical Surface("OBSTACLE") = {7};
Physical Surface("WALL_Y") = {2, 4};
Physical Surface("WALL_Z") = {3, 5};
Physical Volume("FLUID") = {1};
