cl__1 = 3.880444;
cl__2 = 1.572581;
cl__3 = 1.550604;
cl__4 = 0.12095;
Point(1) = {0.8062, -3.730802, 1, cl__1};
Point(2) = {0.8062, -3.730802, 0, cl__1};
Point(3) = {0.8062, 3.874954, 1, cl__1};
Point(4) = {0.8062, 3.874954, 0, cl__1};
Point(5) = {38.61764299999999, -3.730802, 0, cl__2};
Point(6) = {38.61764299999999, -3.730802, 1, cl__2};
Point(7) = {38.61764299999999, 3.874954, 1, cl__3};
Point(8) = {23.443961, 0.5582599999999996, 1, cl__4};
Point(9) = {38.61764299999999, 3.874954, 0, cl__3};
Point(10) = {23.443961, 0.5582599999999996, 0, cl__4};
Line(1) = {2, 1};
Line(2) = {1, 3};
Line(3) = {4, 3};
Line(4) = {2, 4};
Line(5) = {2, 5};
Line(6) = {5, 6};
Line(7) = {1, 6};
Line(8) = {3, 7};
Line(9) = {6, 7};
p10 = newp;
Point(p10 + 1) = {23.42907006026148, 0.7474673290316942, 1};
Point(p10 + 2) = {23.38476390540247, 0.9320157456795045, 1};
Point(p10 + 3) = {23.31213349999931, 1.107361055444482, 1};
Point(p10 + 4) = {23.2129672456795, 1.269185674862494, 1};
Point(p10 + 5) = {23.08970694473835, 1.413504944738348, 1};
Point(p10 + 6) = {22.94538767486249, 1.536765245679505, 1};
Point(p10 + 7) = {22.78356305544448, 1.635931499999307, 1};
Point(p10 + 8) = {22.6082177456795, 1.708561905402472, 1};
Point(p10 + 9) = {22.4236693290317, 1.752868060261479, 1};
Point(p10 + 10) = {22.234462, 1.767759, 1};
Point(p10 + 11) = {22.0452546709683, 1.752868060261479, 1};
Point(p10 + 12) = {21.8607062543205, 1.708561905402472, 1};
Point(p10 + 13) = {21.68536094455552, 1.635931499999307, 1};
Point(p10 + 14) = {21.52353632513751, 1.536765245679505, 1};
Point(p10 + 15) = {21.37921705526165, 1.413504944738348, 1};
Point(p10 + 16) = {21.2559567543205, 1.269185674862494, 1};
Point(p10 + 17) = {21.15679050000069, 1.107361055444482, 1};
Point(p10 + 18) = {21.08416009459753, 0.9320157456795046, 1};
Point(p10 + 19) = {21.03985393973852, 0.7474673290316943, 1};
Point(p10 + 20) = {21.024963, 0.5582600000000001, 1};
Point(p10 + 21) = {21.03985393973852, 0.369052670968306, 1};
Point(p10 + 22) = {21.08416009459753, 0.1845042543204951, 1};
Point(p10 + 23) = {21.15679050000069, 0.009158944555518467, 1};
Point(p10 + 24) = {21.2559567543205, -0.1526656748624939, 1};
Point(p10 + 25) = {21.37921705526165, -0.296984944738348, 1};
Point(p10 + 26) = {21.52353632513751, -0.4202452456795045, 1};
Point(p10 + 27) = {21.68536094455552, -0.5194114999993067, 1};
Point(p10 + 28) = {21.8607062543205, -0.5920419054024719, 1};
Point(p10 + 29) = {22.0452546709683, -0.6363480602614786, 1};
Point(p10 + 30) = {22.234462, -0.6512390000000001, 1};
Point(p10 + 31) = {22.42366932903169, -0.6363480602614786, 1};
Point(p10 + 32) = {22.6082177456795, -0.5920419054024721, 1};
Point(p10 + 33) = {22.78356305544448, -0.5194114999993069, 1};
Point(p10 + 34) = {22.94538767486249, -0.4202452456795048, 1};
Point(p10 + 35) = {23.08970694473835, -0.2969849447383484, 1};
Point(p10 + 36) = {23.2129672456795, -0.1526656748624943, 1};
Point(p10 + 37) = {23.31213349999931, 0.009158944555517579, 1};
Point(p10 + 38) = {23.38476390540247, 0.1845042543204952, 1};
Point(p10 + 39) = {23.42907006026148, 0.3690526709683055, 1};
Spline(10) = {8, p10 + 1, p10 + 2, p10 + 3, p10 + 4, p10 + 5, p10 + 6, p10 + 7, p10 + 8, p10 + 9, p10 + 10, p10 + 11, p10 + 12, p10 + 13, p10 + 14, p10 + 15, p10 + 16, p10 + 17, p10 + 18, p10 + 19, p10 + 20, p10 + 21, p10 + 22, p10 + 23, p10 + 24, p10 + 25, p10 + 26, p10 + 27, p10 + 28, p10 + 29, p10 + 30, p10 + 31, p10 + 32, p10 + 33, p10 + 34, p10 + 35, p10 + 36, p10 + 37, p10 + 38, p10 + 39, 8};
Line(11) = {4, 9};
Line(12) = {9, 7};
Line(13) = {5, 9};
p14 = newp;
Point(p14 + 1) = {23.42907006026148, 0.7474673290316942, 0};
Point(p14 + 2) = {23.38476390540247, 0.9320157456795045, 0};
Point(p14 + 3) = {23.31213349999931, 1.107361055444482, 0};
Point(p14 + 4) = {23.2129672456795, 1.269185674862494, 0};
Point(p14 + 5) = {23.08970694473835, 1.413504944738348, 0};
Point(p14 + 6) = {22.94538767486249, 1.536765245679505, 0};
Point(p14 + 7) = {22.78356305544448, 1.635931499999307, 0};
Point(p14 + 8) = {22.6082177456795, 1.708561905402472, 0};
Point(p14 + 9) = {22.4236693290317, 1.752868060261479, 0};
Point(p14 + 10) = {22.234462, 1.767759, 0};
Point(p14 + 11) = {22.0452546709683, 1.752868060261479, 0};
Point(p14 + 12) = {21.8607062543205, 1.708561905402472, 0};
Point(p14 + 13) = {21.68536094455552, 1.635931499999307, 0};
Point(p14 + 14) = {21.52353632513751, 1.536765245679505, 0};
Point(p14 + 15) = {21.37921705526165, 1.413504944738348, 0};
Point(p14 + 16) = {21.2559567543205, 1.269185674862494, 0};
Point(p14 + 17) = {21.15679050000069, 1.107361055444482, 0};
Point(p14 + 18) = {21.08416009459753, 0.9320157456795046, 0};
Point(p14 + 19) = {21.03985393973852, 0.7474673290316943, 0};
Point(p14 + 20) = {21.024963, 0.5582600000000001, 0};
Point(p14 + 21) = {21.03985393973852, 0.369052670968306, 0};
Point(p14 + 22) = {21.08416009459753, 0.1845042543204951, 0};
Point(p14 + 23) = {21.15679050000069, 0.009158944555518467, 0};
Point(p14 + 24) = {21.2559567543205, -0.1526656748624939, 0};
Point(p14 + 25) = {21.37921705526165, -0.296984944738348, 0};
Point(p14 + 26) = {21.52353632513751, -0.4202452456795045, 0};
Point(p14 + 27) = {21.68536094455552, -0.5194114999993067, 0};
Point(p14 + 28) = {21.8607062543205, -0.5920419054024719, 0};
Point(p14 + 29) = {22.0452546709683, -0.6363480602614786, 0};
Point(p14 + 30) = {22.234462, -0.6512390000000001, 0};
Point(p14 + 31) = {22.42366932903169, -0.6363480602614786, 0};
Point(p14 + 32) = {22.6082177456795, -0.5920419054024721, 0};
Point(p14 + 33) = {22.78356305544448, -0.5194114999993069, 0};
Point(p14 + 34) = {22.94538767486249, -0.4202452456795048, 0};
Point(p14 + 35) = {23.08970694473835, -0.2969849447383484, 0};
Point(p14 + 36) = {23.2129672456795, -0.1526656748624943, 0};
Point(p14 + 37) = {23.31213349999931, 0.009158944555517579, 0};
Point(p14 + 38) = {23.38476390540247, 0.1845042543204952, 0};
Point(p14 + 39) = {23.42907006026148, 0.3690526709683055, 0};
Spline(14) = {10, p14 + 1, p14 + 2, p14 + 3, p14 + 4, p14 + 5, p14 + 6, p14 + 7, p14 + 8, p14 + 9, p14 + 10, p14 + 11, p14 + 12, p14 + 13, p14 + 14, p14 + 15, p14 + 16, p14 + 17, p14 + 18, p14 + 19, p14 + 20, p14 + 21, p14 + 22, p14 + 23, p14 + 24, p14 + 25, p14 + 26, p14 + 27, p14 + 28, p14 + 29, p14 + 30, p14 + 31, p14 + 32, p14 + 33, p14 + 34, p14 + 35, p14 + 36, p14 + 37, p14 + 38, p14 + 39, 10};
Line(15) = {10, 8};
Curve Loop(1) = {-1, 4, 3, -2};
Plane Surface(1) = {1};
Curve Loop(2) = {-5, 1, 7, -6};
Plane Surface(2) = {2};
Curve Loop(3) = {-2, 7, 9, -8, -10};
Plane Surface(3) = {3};
Curve Loop(4) = {-11, 3, 8, -12};
Plane Surface(4) = {4};
Curve Loop(5) = {-4, 5, 13, -11, -14};
Plane Surface(5) = {5};
Curve Loop(6) = {-6, 13, 12, -9};
Plane Surface(6) = {6};
Curve Loop(7) = {-10, -15, 14, 15};
Surface(7) = {7};
Surface Loop(1) = {1, 2, 3, 4, 5, 6, 7};
Volume(1) = {1};
Physical Surface("INFLOW") = {1};
Physical Surface("OUTFLOW") = {6};
Physical Surface("OBSTACLE") = {7};
Physical Surface("WALL_Y") = {2, 4};
Physical Surface("WALL_Z") = {3, 5};
Physical Volume("FLUID") = {1};
