cl__1 = 0.385176;
cl__2 = 0.942735;
cl__3 = 4.001781;
cl__4 = 0.085271;
cl__5 = 0.143915;
Point(1) = {0.709337, -3.843578, 1, cl__1};
Point(2) = {0.709337, -3.843578, 0, cl__1};
Point(3) = {0.709337, 4.253004, 1, cl__2};
Point(4) = {0.709337, 4.253004, 0, cl__2};
Point(5) = {39.812516, -3.843578, 0, cl__1};
Point(6) = {39.812516, -3.843578, 1, cl__1};
Point(7) = {39.812516, 4.253004, 1, cl__3};
Point(8) = {30.513702, -2.22302, 1, cl__4};
Point(9) = {5.960165, -0.1741290000000004, 1, cl__5};
Point(10) = {39.812516, 4.253004, 0, cl__3};
Point(11) = {30.513702, -2.22302, 0, cl__4};
Point(12) = {5.960165, -0.1741290000000004, 0, cl__5};
Line(1) = {2, 1};
Line(2) = {1, 3};
Line(3) = {4, 3};
Line(4) = {2, 4};
Line(5) = {2, 5};
Line(6) = {5, 6};
Line(7) = {1, 6};
Line(8) = {3, 7};
Line(9) = {6, 7};
p10 = newp;
Point(p10 + 1) = {30.50320370028556, -2.089626454446615, 1};
Point(p10 + 2) = {30.47196730412308, -1.95951750069255, 1};
Point(p10 + 3) = {30.42076195525371, -1.835896852986092, 1};
Point(p10 + 4) = {30.35084849930745, -1.721808461947181, 1};
Point(p10 + 5) = {30.26394843759914, -1.620061562400857, 1};
Point(p10 + 6) = {30.16220153805282, -1.53316150069255, 1};
Point(p10 + 7) = {30.04811314701391, -1.463248044746289, 1};
Point(p10 + 8) = {29.92449249930745, -1.412042695876927, 1};
Point(p10 + 9) = {29.79438354555339, -1.380806299714439, 1};
Point(p10 + 10) = {29.66099, -1.370308, 1};
Point(p10 + 11) = {29.52759645444662, -1.380806299714439, 1};
Point(p10 + 12) = {29.39748750069255, -1.412042695876927, 1};
Point(p10 + 13) = {29.27386685298609, -1.463248044746289, 1};
Point(p10 + 14) = {29.15977846194718, -1.53316150069255, 1};
Point(p10 + 15) = {29.05803156240086, -1.620061562400857, 1};
Point(p10 + 16) = {28.97113150069255, -1.721808461947181, 1};
Point(p10 + 17) = {28.90121804474629, -1.835896852986092, 1};
Point(p10 + 18) = {28.85001269587693, -1.95951750069255, 1};
Point(p10 + 19) = {28.81877629971444, -2.089626454446615, 1};
Point(p10 + 20) = {28.808278, -2.22302, 1};
Point(p10 + 21) = {28.81877629971444, -2.356413545553385, 1};
Point(p10 + 22) = {28.85001269587693, -2.48652249930745, 1};
Point(p10 + 23) = {28.90121804474629, -2.610143147013908, 1};
Point(p10 + 24) = {28.97113150069255, -2.724231538052819, 1};
Point(p10 + 25) = {29.05803156240086, -2.825978437599143, 1};
Point(p10 + 26) = {29.15977846194718, -2.91287849930745, 1};
Point(p10 + 27) = {29.27386685298609, -2.982791955253711, 1};
Point(p10 + 28) = {29.39748750069255, -3.033997304123073, 1};
Point(p10 + 29) = {29.52759645444662, -3.065233700285561, 1};
Point(p10 + 30) = {29.66099, -3.075732, 1};
Point(p10 + 31) = {29.79438354555339, -3.065233700285561, 1};
Point(p10 + 32) = {29.92449249930745, -3.033997304123073, 1};
Point(p10 + 33) = {30.04811314701391, -2.982791955253711, 1};
Point(p10 + 34) = {30.16220153805282, -2.912878499307451, 1};
Point(p10 + 35) = {30.26394843759914, -2.825978437599144, 1};
Point(p10 + 36) = {30.35084849930745, -2.72423153805282, 1};
Point(p10 + 37) = {30.42076195525371, -2.610143147013908, 1};
Point(p10 + 38) = {30.47196730412308, -2.48652249930745, 1};
Point(p10 + 39) = {30.50320370028556, -2.356413545553385, 1};
Spline(10) = {8, p10 + 1, p10 + 2, p10 + 3, p10 + 4, p10 + 5, p10 + 6, p10 + 7, p10 + 8, p10 + 9, p10 + 10, p10 + 11, p10 + 12, p10 + 13, p10 + 14, p10 + 15, p10 + 16, p10 + 17, p10 + 18, p10 + 19, p10 + 20, p10 + 21, p10 + 22, p10 + 23, p10 + 24, p10 + 25, p10 + 26, p10 + 27, p10 + 28, p10 + 29, p10 + 30, p10 + 31, p10 + 32, p10 + 33, p10 + 34, p10 + 35, p10 + 36, p10 + 37, p10 + 38, p10 + 39, 8};
p11 = newp;
Point(p11 + 1) = {5.942446699990811, 0.05100334749371818, 1};
Point(p11 + 2) = {5.889728083313138, 0.2705921894207168, 1};
Point(p11 + 3) = {5.803307257272641, 0.4792305197191693, 1};
Point(p11 + 4) = {5.685312189420717, 0.6717809702662082, 1};
Point(p11 + 5) = {5.538648309931057, 0.8435023099310575, 1};
Point(p11 + 6) = {5.366926970266208, 0.990166189420717, 1};
Point(p11 + 7) = {5.174376519719169, 1.108161257272641, 1};
Point(p11 + 8) = {4.965738189420716, 1.194582083313138, 1};
Point(p11 + 9) = {4.746149347493718, 1.247300699990811, 1};
Point(p11 + 10) = {4.521017, 1.265019, 1};
Point(p11 + 11) = {4.295884652506281, 1.247300699990811, 1};
Point(p11 + 12) = {4.076295810579283, 1.194582083313138, 1};
Point(p11 + 13) = {3.867657480280831, 1.108161257272641, 1};
Point(p11 + 14) = {3.675107029733792, 0.990166189420717, 1};
Point(p11 + 15) = {3.503385690068942, 0.8435023099310577, 1};
Point(p11 + 16) = {3.356721810579283, 0.6717809702662084, 1};
Point(p11 + 17) = {3.238726742727358, 0.4792305197191694, 1};
Point(p11 + 18) = {3.152305916686862, 0.2705921894207169, 1};
Point(p11 + 19) = {3.099587300009188, 0.05100334749371835, 1};
Point(p11 + 20) = {3.081868999999999, -0.1741289999999998, 1};
Point(p11 + 21) = {3.099587300009188, -0.399261347493718, 1};
Point(p11 + 22) = {3.152305916686862, -0.6188501894207173, 1};
Point(p11 + 23) = {3.238726742727358, -0.8274885197191685, 1};
Point(p11 + 24) = {3.356721810579282, -1.020038970266208, 1};
Point(p11 + 25) = {3.503385690068942, -1.191760309931057, 1};
Point(p11 + 26) = {3.675107029733791, -1.338424189420717, 1};
Point(p11 + 27) = {3.86765748028083, -1.456419257272641, 1};
Point(p11 + 28) = {4.076295810579283, -1.542840083313138, 1};
Point(p11 + 29) = {4.295884652506281, -1.595558699990811, 1};
Point(p11 + 30) = {4.521017, -1.613277, 1};
Point(p11 + 31) = {4.746149347493717, -1.595558699990811, 1};
Point(p11 + 32) = {4.965738189420716, -1.542840083313138, 1};
Point(p11 + 33) = {5.174376519719169, -1.456419257272641, 1};
Point(p11 + 34) = {5.366926970266207, -1.338424189420717, 1};
Point(p11 + 35) = {5.538648309931057, -1.191760309931058, 1};
Point(p11 + 36) = {5.685312189420716, -1.020038970266208, 1};
Point(p11 + 37) = {5.803307257272641, -0.8274885197191696, 1};
Point(p11 + 38) = {5.889728083313138, -0.6188501894207171, 1};
Point(p11 + 39) = {5.942446699990811, -0.3992613474937186, 1};
Spline(11) = {9, p11 + 1, p11 + 2, p11 + 3, p11 + 4, p11 + 5, p11 + 6, p11 + 7, p11 + 8, p11 + 9, p11 + 10, p11 + 11, p11 + 12, p11 + 13, p11 + 14, p11 + 15, p11 + 16, p11 + 17, p11 + 18, p11 + 19, p11 + 20, p11 + 21, p11 + 22, p11 + 23, p11 + 24, p11 + 25, p11 + 26, p11 + 27, p11 + 28, p11 + 29, p11 + 30, p11 + 31, p11 + 32, p11 + 33, p11 + 34, p11 + 35, p11 + 36, p11 + 37, p11 + 38, p11 + 39, 9};
Line(12) = {4, 10};
Line(13) = {10, 7};
Line(14) = {5, 10};
p15 = newp;
Point(p15 + 1) = {30.50320370028556, -2.089626454446615, 0};
Point(p15 + 2) = {30.47196730412308, -1.95951750069255, 0};
Point(p15 + 3) = {30.42076195525371, -1.835896852986092, 0};
Point(p15 + 4) = {30.35084849930745, -1.721808461947181, 0};
Point(p15 + 5) = {30.26394843759914, -1.620061562400857, 0};
Point(p15 + 6) = {30.16220153805282, -1.53316150069255, 0};
Point(p15 + 7) = {30.04811314701391, -1.463248044746289, 0};
Point(p15 + 8) = {29.92449249930745, -1.412042695876927, 0};
Point(p15 + 9) = {29.79438354555339, -1.380806299714439, 0};
Point(p15 + 10) = {29.66099, -1.370308, 0};
Point(p15 + 11) = {29.52759645444662, -1.380806299714439, 0};
Point(p15 + 12) = {29.39748750069255, -1.412042695876927, 0};
Point(p15 + 13) = {29.27386685298609, -1.463248044746289, 0};
Point(p15 + 14) = {29.15977846194718, -1.53316150069255, 0};
Point(p15 + 15) = {29.05803156240086, -1.620061562400857, 0};
Point(p15 + 16) = {28.97113150069255, -1.721808461947181, 0};
Point(p15 + 17) = {28.90121804474629, -1.835896852986092, 0};
Point(p15 + 18) = {28.85001269587693, -1.95951750069255, 0};
Point(p15 + 19) = {28.81877629971444, -2.089626454446615, 0};
Point(p15 + 20) = {28.808278, -2.22302, 0};
Point(p15 + 21) = {28.81877629971444, -2.356413545553385, 0};
Point(p15 + 22) = {28.85001269587693, -2.48652249930745, 0};
Point(p15 + 23) = {28.90121804474629, -2.610143147013908, 0};
Point(p15 + 24) = {28.97113150069255, -2.724231538052819, 0};
Point(p15 + 25) = {29.05803156240086, -2.825978437599143, 0};
Point(p15 + 26) = {29.15977846194718, -2.91287849930745, 0};
Point(p15 + 27) = {29.27386685298609, -2.982791955253711, 0};
Point(p15 + 28) = {29.39748750069255, -3.033997304123073, 0};
Point(p15 + 29) = {29.52759645444662, -3.065233700285561, 0};
Point(p15 + 30) = {29.66099, -3.075732, 0};
Point(p15 + 31) = {29.79438354555339, -3.065233700285561, 0};
Point(p15 + 32) = {29.92449249930745, -3.033997304123073, 0};
Point(p15 + 33) = {30.04811314701391, -2.982791955253711, 0};
Point(p15 + 34) = {30.16220153805282, -2.912878499307451, 0};
Point(p15 + 35) = {30.26394843759914, -2.825978437599144, 0};
Point(p15 + 36) = {30.35084849930745, -2.72423153805282, 0};
Point(p15 + 37) = {30.42076195525371, -2.610143147013908, 0};
Point(p15 + 38) = {30.47196730412308, -2.48652249930745, 0};
Point(p15 + 39) = {30.50320370028556, -2.356413545553385, 0};
Spline(15) = {11, p15 + 1, p15 + 2, p15 + 3, p15 + 4, p15 + 5, p15 + 6, p15 + 7, p15 + 8, p15 + 9, p15 + 10, p15 + 11, p15 + 12, p15 + 13, p15 + 14, p15 + 15, p15 + 16, p15 + 17, p15 + 18, p15 + 19, p15 + 20, p15 + 21, p15 + 22, p15 + 23, p15 + 24, p15 + 25, p15 + 26, p15 + 27, p15 + 28, p15 + 29, p15 + 30, p15 + 31, p15 + 32, p15 + 33, p15 + 34, p15 + 35, p15 + 36, p15 + 37, p15 + 38, p15 + 39, 11};
p16 = newp;
Point(p16 + 1) = {5.942446699990811, 0.05100334749371818, 0};
Point(p16 + 2) = {5.889728083313138, 0.2705921894207168, 0};
Point(p16 + 3) = {5.803307257272641, 0.4792305197191693, 0};
Point(p16 + 4) = {5.685312189420717, 0.6717809702662082, 0};
Point(p16 + 5) = {5.538648309931057, 0.8435023099310575, 0};
Point(p16 + 6) = {5.366926970266208, 0.990166189420717, 0};
Point(p16 + 7) = {5.174376519719169, 1.108161257272641, 0};
Point(p16 + 8) = {4.965738189420716, 1.194582083313138, 0};
Point(p16 + 9) = {4.746149347493718, 1.247300699990811, 0};
Point(p16 + 10) = {4.521017, 1.265019, 0};
Point(p16 + 11) = {4.295884652506281, 1.247300699990811, 0};
Point(p16 + 12) = {4.076295810579283, 1.194582083313138, 0};
Point(p16 + 13) = {3.867657480280831, 1.108161257272641, 0};
Point(p16 + 14) = {3.675107029733792, 0.990166189420717, 0};
Point(p16 + 15) = {3.503385690068942, 0.8435023099310577, 0};
Point(p16 + 16) = {3.356721810579283, 0.6717809702662084, 0};
Point(p16 + 17) = {3.238726742727358, 0.4792305197191694, 0};
Point(p16 + 18) = {3.152305916686862, 0.2705921894207169, 0};
Point(p16 + 19) = {3.099587300009188, 0.05100334749371835, 0};
Point(p16 + 20) = {3.081868999999999, -0.1741289999999998, 0};
Point(p16 + 21) = {3.099587300009188, -0.399261347493718, 0};
Point(p16 + 22) = {3.152305916686862, -0.6188501894207173, 0};
Point(p16 + 23) = {3.238726742727358, -0.8274885197191685, 0};
Point(p16 + 24) = {3.356721810579282, -1.020038970266208, 0};
Point(p16 + 25) = {3.503385690068942, -1.191760309931057, 0};
Point(p16 + 26) = {3.675107029733791, -1.338424189420717, 0};
Point(p16 + 27) = {3.86765748028083, -1.456419257272641, 0};
Point(p16 + 28) = {4.076295810579283, -1.542840083313138, 0};
Point(p16 + 29) = {4.295884652506281, -1.595558699990811, 0};
Point(p16 + 30) = {4.521017, -1.613277, 0};
Point(p16 + 31) = {4.746149347493717, -1.595558699990811, 0};
Point(p16 + 32) = {4.965738189420716, -1.542840083313138, 0};
Point(p16 + 33) = {5.174376519719169, -1.456419257272641, 0};
Point(p16 + 34) = {5.366926970266207, -1.338424189420717, 0};
Point(p16 + 35) = {5.538648309931057, -1.191760309931058, 0};
Point(p16 + 36) = {5.685312189420716, -1.020038970266208, 0};
Point(p16 + 37) = {5.803307257272641, -0.8274885197191696, 0};
Point(p16 + 38) = {5.889728083313138, -0.6188501894207171, 0};
Point(p16 + 39) = {5.942446699990811, -0.3992613474937186, 0};
Spline(16) = {12, p16 + 1, p16 + 2, p16 + 3, p16 + 4, p16 + 5, p16 + 6, p16 + 7, p16 + 8, p16 + 9, p16 + 10, p16 + 11, p16 + 12, p16 + 13, p16 + 14, p16 + 15, p16 + 16, p16 + 17, p16 + 18, p16 + 19, p16 + 20, p16 + 21, p16 + 22, p16 + 23, p16 + 24, p16 + 25, p16 + 26, p16 + 27, p16 + 28, p16 + 29, p16 + 30, p16 + 31, p16 + 32, p16 + 33, p16 + 34, p16 + 35, p16 + 36, p16 + 37, p16 + 38, p16 + 39, 12};
Line(17) = {11, 8};
Line(18) = {12, 9};
Curve Loop(1) = {-1, 4, 3, -2};
Plane Surface(1) = {1};
Curve Loop(2) = {-5, 1, 7, -6};
Plane Surface(2) = {2};
Curve Loop(3) = {-2, 7, 9, -8, -10, -11};
Plane Surface(3) = {3};
Curve Loop(4) = {-12, 3, 8, -13};
Plane Surface(4) = {4};
Curve Loop(5) = {-4, 5, 14, -12, -15, -16};
Plane Surface(5) = {5};
Curve Loop(6) = {-6, 14, 13, -9};
Plane Surface(6) = {6};
Curve Loop(7) = {-10, -17, 15, 17};
Surface(7) = {7};
Curve Loop(8) = {-11, -18, 16, 18};
Surface(8) = {8};
Surface Loop(1) = {1, 2, 3, 4, 5, 6, 7, 8};
Volume(1) = {1};
Physical Surface("INFLOW") = {1};
Physical Surface("OUTFLOW") = {6};
Physical Surface("OBSTACLE") = {7, 8};
Physical Surface("WALL_Y") = {2, 4};
Physical Surface("WALL_Z") = {3, 5};
Physical Volume("FLUID") = {1};
