cl__1 = 0.513707;
cl__2 = 0.501233;
cl__3 = 3.121232;
cl__4 = 0.131521;
Point(1) = {0.9097730000000001, -3.829105, 1, cl__1};
Point(2) = {0.9097730000000001, -3.829105, 0, cl__1};
Point(3) = {0.9097730000000001, 4.043139, 1, cl__2};
Point(4) = {0.9097730000000001, 4.043139, 0, cl__2};
Point(5) = {30.963139, -3.829105, 0, cl__3};
Point(6) = {30.963139, -3.829105, 1, cl__3};
Point(7) = {30.963139, 4.043139, 1, cl__3};
Point(8) = {7.258033, 0.2082679999999997, 1, cl__4};
Point(9) = {30.963139, 4.043139, 0, cl__3};
Point(10) = {7.258033, 0.2082679999999997, 0, cl__4};
Line(1) = {2, 1};
Line(2) = {1, 3};
Line(3) = {4, 3};
Line(4) = {2, 4};
Line(5) = {2, 5};
Line(6) = {5, 6};
Line(7) = {1, 6};
Line(8) = {3, 7};
Line(9) = {6, 7};
p10 = newp;
Point(p10 + 1) = {7.241840533187494, 0.4140127985034222, 1};
Point(p10 + 2) = {7.193661845022614, 0.6146914772398522, 1};
Point(p10 + 3) = {7.114683254703881, 0.8053626611244483, 1};
Point(p10 + 4) = {7.006849477239852, 0.9813313928085928, 1};
Point(p10 + 5) = {6.872815738111484, 1.138264738111484, 1};
Point(p10 + 6) = {6.715882392808593, 1.272298477239852, 1};
Point(p10 + 7) = {6.539913661124448, 1.38013225470388, 1};
Point(p10 + 8) = {6.349242477239852, 1.459110845022614, 1};
Point(p10 + 9) = {6.148563798503423, 1.507289533187494, 1};
Point(p10 + 10) = {5.942819, 1.523482, 1};
Point(p10 + 11) = {5.737074201496577, 1.507289533187493, 1};
Point(p10 + 12) = {5.536395522760148, 1.459110845022614, 1};
Point(p10 + 13) = {5.345724338875552, 1.38013225470388, 1};
Point(p10 + 14) = {5.169755607191408, 1.272298477239852, 1};
Point(p10 + 15) = {5.012822261888516, 1.138264738111484, 1};
Point(p10 + 16) = {4.878788522760148, 0.9813313928085929, 1};
Point(p10 + 17) = {4.77095474529612, 0.8053626611244484, 1};
Point(p10 + 18) = {4.691976154977386, 0.6146914772398522, 1};
Point(p10 + 19) = {4.643797466812506, 0.4140127985034224, 1};
Point(p10 + 20) = {4.627605, 0.2082680000000002, 1};
Point(p10 + 21) = {4.643797466812506, 0.002523201496577976, 1};
Point(p10 + 22) = {4.691976154977386, -0.1981554772398526, 1};
Point(p10 + 23) = {4.77095474529612, -0.3888266611244476, 1};
Point(p10 + 24) = {4.878788522760148, -0.5647953928085927, 1};
Point(p10 + 25) = {5.012822261888516, -0.7217287381114839, 1};
Point(p10 + 26) = {5.169755607191407, -0.8557624772398521, 1};
Point(p10 + 27) = {5.345724338875551, -0.96359625470388, 1};
Point(p10 + 28) = {5.536395522760148, -1.042574845022614, 1};
Point(p10 + 29) = {5.737074201496577, -1.090753533187494, 1};
Point(p10 + 30) = {5.942819, -1.106946, 1};
Point(p10 + 31) = {6.148563798503422, -1.090753533187494, 1};
Point(p10 + 32) = {6.349242477239852, -1.042574845022614, 1};
Point(p10 + 33) = {6.539913661124448, -0.9635962547038802, 1};
Point(p10 + 34) = {6.715882392808592, -0.8557624772398523, 1};
Point(p10 + 35) = {6.872815738111484, -0.7217287381114842, 1};
Point(p10 + 36) = {7.006849477239852, -0.5647953928085931, 1};
Point(p10 + 37) = {7.114683254703881, -0.3888266611244485, 1};
Point(p10 + 38) = {7.193661845022614, -0.1981554772398524, 1};
Point(p10 + 39) = {7.241840533187494, 0.002523201496577504, 1};
Spline(10) = {8, p10 + 1, p10 + 2, p10 + 3, p10 + 4, p10 + 5, p10 + 6, p10 + 7, p10 + 8, p10 + 9, p10 + 10, p10 + 11, p10 + 12, p10 + 13, p10 + 14, p10 + 15, p10 + 16, p10 + 17, p10 + 18, p10 + 19, p10 + 20, p10 + 21, p10 + 22, p10 + 23, p10 + 24, p10 + 25, p10 + 26, p10 + 27, p10 + 28, p10 + 29, p10 + 30, p10 + 31, p10 + 32, p10 + 33, p10 + 34, p10 + 35, p10 + 36, p10 + 37, p10 + 38, p10 + 39, 8};
Line(11) = {4, 9};
Line(12) = {9, 7};
Line(13) = {5, 9};
p14 = newp;
Point(p14 + 1) = {7.241840533187494, 0.4140127985034222, 0};
Point(p14 + 2) = {7.193661845022614, 0.6146914772398522, 0};
Point(p14 + 3) = {7.114683254703881, 0.8053626611244483, 0};
Point(p14 + 4) = {7.006849477239852, 0.9813313928085928, 0};
Point(p14 + 5) = {6.872815738111484, 1.138264738111484, 0};
Point(p14 + 6) = {6.715882392808593, 1.272298477239852, 0};
Point(p14 + 7) = {6.539913661124448, 1.38013225470388, 0};
Point(p14 + 8) = {6.349242477239852, 1.459110845022614, 0};
Point(p14 + 9) = {6.148563798503423, 1.507289533187494, 0};
Point(p14 + 10) = {5.942819, 1.523482, 0};
Point(p14 + 11) = {5.737074201496577, 1.507289533187493, 0};
Point(p14 + 12) = {5.536395522760148, 1.459110845022614, 0};
Point(p14 + 13) = {5.345724338875552, 1.38013225470388, 0};
Point(p14 + 14) = {5.169755607191408, 1.272298477239852, 0};
Point(p14 + 15) = {5.012822261888516, 1.138264738111484, 0};
Point(p14 + 16) = {4.878788522760148, 0.9813313928085929, 0};
Point(p14 + 17) = {4.77095474529612, 0.8053626611244484, 0};
Point(p14 + 18) = {4.691976154977386, 0.6146914772398522, 0};
Point(p14 + 19) = {4.643797466812506, 0.4140127985034224, 0};
Point(p14 + 20) = {4.627605, 0.2082680000000002, 0};
Point(p14 + 21) = {4.643797466812506, 0.002523201496577976, 0};
Point(p14 + 22) = {4.691976154977386, -0.1981554772398526, 0};
Point(p14 + 23) = {4.77095474529612, -0.3888266611244476, 0};
Point(p14 + 24) = {4.878788522760148, -0.5647953928085927, 0};
Point(p14 + 25) = {5.012822261888516, -0.7217287381114839, 0};
Point(p14 + 26) = {5.169755607191407, -0.8557624772398521, 0};
Point(p14 + 27) = {5.345724338875551, -0.96359625470388, 0};
Point(p14 + 28) = {5.536395522760148, -1.042574845022614, 0};
Point(p14 + 29) = {5.737074201496577, -1.090753533187494, 0};
Point(p14 + 30) = {5.942819, -1.106946, 0};
Point(p14 + 31) = {6.148563798503422, -1.090753533187494, 0};
Point(p14 + 32) = {6.349242477239852, -1.042574845022614, 0};
Point(p14 + 33) = {6.539913661124448, -0.9635962547038802, 0};
Point(p14 + 34) = {6.715882392808592, -0.8557624772398523, 0};
Point(p14 + 35) = {6.872815738111484, -0.7217287381114842, 0};
Point(p14 + 36) = {7.006849477239852, -0.5647953928085931, 0};
Point(p14 + 37) = {7.114683254703881, -0.3888266611244485, 0};
Point(p14 + 38) = {7.193661845022614, -0.1981554772398524, 0};
Point(p14 + 39) = {7.241840533187494, 0.002523201496577504, 0};
Spline(14) = {10, p14 + 1, p14 + 2, p14 + 3, p14 + 4, p14 + 5, p14 + 6, p14 + 7, p14 + 8, p14 + 9, p14 + 10, p14 + 11, p14 + 12, p14 + 13, p14 + 14, p14 + 15, p14 + 16, p14 + 17, p14 + 18, p14 + 19, p14 + 20, p14 + 21, p14 + 22, p14 + 23, p14 + 24, p14 + 25, p14 + 26, p14 + 27, p14 + 28, p14 + 29, p14 + 30, p14 + 31, p14 + 32, p14 + 33, p14 + 34, p14 + 35, p14 + 36, p14 + 37, p14 + 38, p14 + 39, 10};
Line(15) = {10, 8};
Curve Loop(1) = {-1, 4, 3, -2};
Plane Surface(1) = {1};
Curve Loop(2) = {-5, 1, 7, -6};
Plane Surface(2) = {2};
Curve Loop(3) = {-2, 7, 9, -8, -10};
Plane Surface(3) = {3};
Curve Loop(4) = {-11, 3, 8, -12};
Plane Surface(4) = {4};
Curve Loop(5) = {-4, 5, 13, -11, -14};
Plane Surface(5) = {5};
Curve Loop(6) = {-6, 13, 12, -9};
Plane Surface(6) = {6};
Curve Loop(7) = {-10, -15, 14, 15};
Surface(7) = {7};
Surface Loop(1) = {1, 2, 3, 4, 5, 6, 7};
Volume(1) = {1};
Physical Surface("INFLOW") = {1};
Physical Surface("OUTFLOW") = {6};
Physical Surface("OBSTACLE") = {7};
Physical Surface("WALL_Y") = {2, 4};
Physical Surface("WALL_Z") = {3, 5};
Physical Volume("FLUID") = {1};
