cl__1 = 1;
cl__2 = 0.137796;
cl__3 = 0.057375;
Point(1) = {0.554021, -4.070648, 1, cl__1};
Point(2) = {0.554021, -4.070648, 0, cl__1};
Point(3) = {0.554021, 4.808469000000001, 1, cl__1};
Point(4) = {0.554021, 4.808469000000001, 0, cl__1};
Point(5) = {38.036617, -4.070648, 0, cl__1};
Point(6) = {38.036617, -4.070648, 1, cl__1};
Point(7) = {38.036617, 4.808469000000001, 1, cl__1};
Point(8) = {27.247005, -1.380572, 1, cl__2};
Point(9) = {29.830169, 2.870968, 1, cl__3};
Point(10) = {38.036617, 4.808469000000001, 0, cl__1};
Point(11) = {27.247005, -1.380572, 0, cl__2};
Point(12) = {29.830169, 2.870968, 0, cl__3};
Line(1) = {2, 1};
Line(2) = {1, 3};
Line(3) = {4, 3};
Line(4) = {2, 4};
Line(5) = {2, 5};
Line(6) = {5, 6};
Line(7) = {1, 6};
Line(8) = {3, 7};
Line(9) = {6, 7};
p10 = newp;
Point(p10 + 1) = {27.23004002580647, -1.165011564553163, 1};
Point(p10 + 2) = {27.17956283719407, -0.9547589424310974, 1};
Point(p10 + 3) = {27.0968163500706, -0.7549912509788941, 1};
Point(p10 + 4) = {26.9838380575689, -0.5706274337510636, 1};
Point(p10 + 5) = {26.84340986020381, -0.4062071397961849, 1};
Point(p10 + 6) = {26.67898956624894, -0.2657789424310972, 1};
Point(p10 + 7) = {26.49462574902111, -0.1528006499293966, 1};
Point(p10 + 8) = {26.2948580575689, -0.07005416280593013, 1};
Point(p10 + 9) = {26.08460543544684, -0.01957697419352389, 1};
Point(p10 + 10) = {25.869045, -0.002611999999999837, 1};
Point(p10 + 11) = {25.65348456455316, -0.01957697419352389, 1};
Point(p10 + 12) = {25.4432319424311, -0.07005416280592991, 1};
Point(p10 + 13) = {25.2434642509789, -0.1528006499293963, 1};
Point(p10 + 14) = {25.05910043375106, -0.2657789424310972, 1};
Point(p10 + 15) = {24.89468013979619, -0.4062071397961847, 1};
Point(p10 + 16) = {24.7542519424311, -0.5706274337510634, 1};
Point(p10 + 17) = {24.6412736499294, -0.7549912509788939, 1};
Point(p10 + 18) = {24.55852716280593, -0.9547589424310972, 1};
Point(p10 + 19) = {24.50804997419353, -1.165011564553163, 1};
Point(p10 + 20) = {24.491085, -1.380572, 1};
Point(p10 + 21) = {24.50804997419353, -1.596132435446836, 1};
Point(p10 + 22) = {24.55852716280593, -1.806385057568903, 1};
Point(p10 + 23) = {24.6412736499294, -2.006152749021105, 1};
Point(p10 + 24) = {24.7542519424311, -2.190516566248936, 1};
Point(p10 + 25) = {24.89468013979619, -2.354936860203815, 1};
Point(p10 + 26) = {25.05910043375106, -2.495365057568902, 1};
Point(p10 + 27) = {25.24346425097889, -2.608343350070603, 1};
Point(p10 + 28) = {25.4432319424311, -2.691089837194069, 1};
Point(p10 + 29) = {25.65348456455316, -2.741567025806476, 1};
Point(p10 + 30) = {25.869045, -2.758532, 1};
Point(p10 + 31) = {26.08460543544684, -2.741567025806476, 1};
Point(p10 + 32) = {26.2948580575689, -2.69108983719407, 1};
Point(p10 + 33) = {26.4946257490211, -2.608343350070603, 1};
Point(p10 + 34) = {26.67898956624894, -2.495365057568903, 1};
Point(p10 + 35) = {26.84340986020381, -2.354936860203815, 1};
Point(p10 + 36) = {26.9838380575689, -2.190516566248936, 1};
Point(p10 + 37) = {27.0968163500706, -2.006152749021106, 1};
Point(p10 + 38) = {27.17956283719407, -1.806385057568903, 1};
Point(p10 + 39) = {27.23004002580647, -1.596132435446837, 1};
Spline(10) = {8, p10 + 1, p10 + 2, p10 + 3, p10 + 4, p10 + 5, p10 + 6, p10 + 7, p10 + 8, p10 + 9, p10 + 10, p10 + 11, p10 + 12, p10 + 13, p10 + 14, p10 + 15, p10 + 16, p10 + 17, p10 + 18, p10 + 19, p10 + 20, p10 + 21, p10 + 22, p10 + 23, p10 + 24, p10 + 25, p10 + 26, p10 + 27, p10 + 28, p10 + 29, p10 + 30, p10 + 31, p10 + 32, p10 + 33, p10 + 34, p10 + 35, p10 + 36, p10 + 37, p10 + 38, p10 + 39, 8};
p11 = newp;
Point(p11 + 1) = {29.8231051731048, 2.960722430751297, 1};
Point(p11 + 2) = {29.80208762728086, 3.048266809539621, 1};
Point(p11 + 3) = {29.7676338842596, 3.131445503216065, 1};
Point(p11 + 4) = {29.72059230953962, 3.208210376288059, 1};
Point(p11 + 5) = {29.66212122281256, 3.276671222812563, 1};
Point(p11 + 6) = {29.59366037628806, 3.33514230953962, 1};
Point(p11 + 7) = {29.51689550321607, 3.3821838842596, 1};
Point(p11 + 8) = {29.43371680953962, 3.416637627280861, 1};
Point(p11 + 9) = {29.3461724307513, 3.437655173104801, 1};
Point(p11 + 10) = {29.256418, 3.444719, 1};
Point(p11 + 11) = {29.1666635692487, 3.437655173104801, 1};
Point(p11 + 12) = {29.07911919046038, 3.416637627280861, 1};
Point(p11 + 13) = {28.99594049678393, 3.3821838842596, 1};
Point(p11 + 14) = {28.91917562371194, 3.33514230953962, 1};
Point(p11 + 15) = {28.85071477718744, 3.276671222812563, 1};
Point(p11 + 16) = {28.79224369046038, 3.208210376288059, 1};
Point(p11 + 17) = {28.7452021157404, 3.131445503216065, 1};
Point(p11 + 18) = {28.71074837271914, 3.048266809539621, 1};
Point(p11 + 19) = {28.6897308268952, 2.960722430751297, 1};
Point(p11 + 20) = {28.682667, 2.870968, 1};
Point(p11 + 21) = {28.6897308268952, 2.781213569248703, 1};
Point(p11 + 22) = {28.71074837271914, 2.693669190460379, 1};
Point(p11 + 23) = {28.7452021157404, 2.610490496783936, 1};
Point(p11 + 24) = {28.79224369046038, 2.533725623711941, 1};
Point(p11 + 25) = {28.85071477718744, 2.465264777187437, 1};
Point(p11 + 26) = {28.91917562371194, 2.406793690460379, 1};
Point(p11 + 27) = {28.99594049678393, 2.3597521157404, 1};
Point(p11 + 28) = {29.07911919046038, 2.325298372719139, 1};
Point(p11 + 29) = {29.1666635692487, 2.304280826895199, 1};
Point(p11 + 30) = {29.256418, 2.297217, 1};
Point(p11 + 31) = {29.3461724307513, 2.304280826895199, 1};
Point(p11 + 32) = {29.43371680953962, 2.325298372719139, 1};
Point(p11 + 33) = {29.51689550321607, 2.3597521157404, 1};
Point(p11 + 34) = {29.59366037628806, 2.406793690460379, 1};
Point(p11 + 35) = {29.66212122281256, 2.465264777187437, 1};
Point(p11 + 36) = {29.72059230953962, 2.533725623711941, 1};
Point(p11 + 37) = {29.7676338842596, 2.610490496783935, 1};
Point(p11 + 38) = {29.80208762728086, 2.693669190460379, 1};
Point(p11 + 39) = {29.8231051731048, 2.781213569248703, 1};
Spline(11) = {9, p11 + 1, p11 + 2, p11 + 3, p11 + 4, p11 + 5, p11 + 6, p11 + 7, p11 + 8, p11 + 9, p11 + 10, p11 + 11, p11 + 12, p11 + 13, p11 + 14, p11 + 15, p11 + 16, p11 + 17, p11 + 18, p11 + 19, p11 + 20, p11 + 21, p11 + 22, p11 + 23, p11 + 24, p11 + 25, p11 + 26, p11 + 27, p11 + 28, p11 + 29, p11 + 30, p11 + 31, p11 + 32, p11 + 33, p11 + 34, p11 + 35, p11 + 36, p11 + 37, p11 + 38, p11 + 39, 9};
Line(12) = {4, 10};
Line(13) = {10, 7};
Line(14) = {5, 10};
p15 = newp;
Point(p15 + 1) = {27.23004002580647, -1.165011564553163, 0};
Point(p15 + 2) = {27.17956283719407, -0.9547589424310974, 0};
Point(p15 + 3) = {27.0968163500706, -0.7549912509788941, 0};
Point(p15 + 4) = {26.9838380575689, -0.5706274337510636, 0};
Point(p15 + 5) = {26.84340986020381, -0.4062071397961849, 0};
Point(p15 + 6) = {26.67898956624894, -0.2657789424310972, 0};
Point(p15 + 7) = {26.49462574902111, -0.1528006499293966, 0};
Point(p15 + 8) = {26.2948580575689, -0.07005416280593013, 0};
Point(p15 + 9) = {26.08460543544684, -0.01957697419352389, 0};
Point(p15 + 10) = {25.869045, -0.002611999999999837, 0};
Point(p15 + 11) = {25.65348456455316, -0.01957697419352389, 0};
Point(p15 + 12) = {25.4432319424311, -0.07005416280592991, 0};
Point(p15 + 13) = {25.2434642509789, -0.1528006499293963, 0};
Point(p15 + 14) = {25.05910043375106, -0.2657789424310972, 0};
Point(p15 + 15) = {24.89468013979619, -0.4062071397961847, 0};
Point(p15 + 16) = {24.7542519424311, -0.5706274337510634, 0};
Point(p15 + 17) = {24.6412736499294, -0.7549912509788939, 0};
Point(p15 + 18) = {24.55852716280593, -0.9547589424310972, 0};
Point(p15 + 19) = {24.50804997419353, -1.165011564553163, 0};
Point(p15 + 20) = {24.491085, -1.380572, 0};
Point(p15 + 21) = {24.50804997419353, -1.596132435446836, 0};
Point(p15 + 22) = {24.55852716280593, -1.806385057568903, 0};
Point(p15 + 23) = {24.6412736499294, -2.006152749021105, 0};
Point(p15 + 24) = {24.7542519424311, -2.190516566248936, 0};
Point(p15 + 25) = {24.89468013979619, -2.354936860203815, 0};
Point(p15 + 26) = {25.05910043375106, -2.495365057568902, 0};
Point(p15 + 27) = {25.24346425097889, -2.608343350070603, 0};
Point(p15 + 28) = {25.4432319424311, -2.691089837194069, 0};
Point(p15 + 29) = {25.65348456455316, -2.741567025806476, 0};
Point(p15 + 30) = {25.869045, -2.758532, 0};
Point(p15 + 31) = {26.08460543544684, -2.741567025806476, 0};
Point(p15 + 32) = {26.2948580575689, -2.69108983719407, 0};
Point(p15 + 33) = {26.4946257490211, -2.608343350070603, 0};
Point(p15 + 34) = {26.67898956624894, -2.495365057568903, 0};
Point(p15 + 35) = {26.84340986020381, -2.354936860203815, 0};
Point(p15 + 36) = {26.9838380575689, -2.190516566248936, 0};
Point(p15 + 37) = {27.0968163500706, -2.006152749021106, 0};
Point(p15 + 38) = {27.17956283719407, -1.806385057568903, 0};
Point(p15 + 39) = {27.23004002580647, -1.596132435446837, 0};
Spline(15) = {11, p15 + 1, p15 + 2, p15 + 3, p15 + 4, p15 + 5, p15 + 6, p15 + 7, p15 + 8, p15 + 9, p15 + 10, p15 + 11, p15 + 12, p15 + 13, p15 + 14, p15 + 15, p15 + 16, p15 + 17, p15 + 18, p15 + 19, p15 + 20, p15 + 21, p15 + 22, p15 + 23, p15 + 24, p15 + 25, p15 + 26, p15 + 27, p15 + 28, p15 + 29, p15 + 30, p15 + 31, p15 + 32, p15 + 33, p15 + 34, p15 + 35, p15 + 36, p15 + 37, p15 + 38, p15 + 39, 11};
p16 = newp;
Point(p16 + 1) = {29.8231051731048, 2.960722430751297, 0};
Point(p16 + 2) = {29.80208762728086, 3.048266809539621, 0};
Point(p16 + 3) = {29.7676338842596, 3.131445503216065, 0};
Point(p16 + 4) = {29.72059230953962, 3.208210376288059, 0};
Point(p16 + 5) = {29.66212122281256, 3.276671222812563, 0};
Point(p16 + 6) = {29.59366037628806, 3.33514230953962, 0};
Point(p16 + 7) = {29.51689550321607, 3.3821838842596, 0};
Point(p16 + 8) = {29.43371680953962, 3.416637627280861, 0};
Point(p16 + 9) = {29.3461724307513, 3.437655173104801, 0};
Point(p16 + 10) = {29.256418, 3.444719, 0};
Point(p16 + 11) = {29.1666635692487, 3.437655173104801, 0};
Point(p16 + 12) = {29.07911919046038, 3.416637627280861, 0};
Point(p16 + 13) = {28.99594049678393, 3.3821838842596, 0};
Point(p16 + 14) = {28.91917562371194, 3.33514230953962, 0};
Point(p16 + 15) = {28.85071477718744, 3.276671222812563, 0};
Point(p16 + 16) = {28.79224369046038, 3.208210376288059, 0};
Point(p16 + 17) = {28.7452021157404, 3.131445503216065, 0};
Point(p16 + 18) = {28.71074837271914, 3.048266809539621, 0};
Point(p16 + 19) = {28.6897308268952, 2.960722430751297, 0};
Point(p16 + 20) = {28.682667, 2.870968, 0};
Point(p16 + 21) = {28.6897308268952, 2.781213569248703, 0};
Point(p16 + 22) = {28.71074837271914, 2.693669190460379, 0};
Point(p16 + 23) = {28.7452021157404, 2.610490496783936, 0};
Point(p16 + 24) = {28.79224369046038, 2.533725623711941, 0};
Point(p16 + 25) = {28.85071477718744, 2.465264777187437, 0};
Point(p16 + 26) = {28.91917562371194, 2.406793690460379, 0};
Point(p16 + 27) = {28.99594049678393, 2.3597521157404, 0};
Point(p16 + 28) = {29.07911919046038, 2.325298372719139, 0};
Point(p16 + 29) = {29.1666635692487, 2.304280826895199, 0};
Point(p16 + 30) = {29.256418, 2.297217, 0};
Point(p16 + 31) = {29.3461724307513, 2.304280826895199, 0};
Point(p16 + 32) = {29.43371680953962, 2.325298372719139, 0};
Point(p16 + 33) = {29.51689550321607, 2.3597521157404, 0};
Point(p16 + 34) = {29.59366037628806, 2.406793690460379, 0};
Point(p16 + 35) = {29.66212122281256, 2.465264777187437, 0};
Point(p16 + 36) = {29.72059230953962, 2.533725623711941, 0};
Point(p16 + 37) = {29.7676338842596, 2.610490496783935, 0};
Point(p16 + 38) = {29.80208762728086, 2.693669190460379, 0};
Point(p16 + 39) = {29.8231051731048, 2.781213569248703, 0};
Spline(16) = {12, p16 + 1, p16 + 2, p16 + 3, p16 + 4, p16 + 5, p16 + 6, p16 + 7, p16 + 8, p16 + 9, p16 + 10, p16 + 11, p16 + 12, p16 + 13, p16 + 14, p16 + 15, p16 + 16, p16 + 17, p16 + 18, p16 + 19, p16 + 20, p16 + 21, p16 + 22, p16 + 23, p16 + 24, p16 + 25, p16 + 26, p16 + 27, p16 + 28, p16 + 29, p16 + 30, p16 + 31, p16 + 32, p16 + 33, p16 + 34, p16 + 35, p16 + 36, p16 + 37, p16 + 38, p16 + 39, 12};
Line(17) = {11, 8};
Line(18) = {12, 9};
Curve Loop(1) = {-1, 4, 3, -2};
Plane Surface(1) = {1};
Curve Loop(2) = {-5, 1, 7, -6};
Plane Surface(2) = {2};
Curve Loop(3) = {-2, 7, 9, -8, -10, -11};
Plane Surface(3) = {3};
Curve Loop(4) = {-12, 3, 8, -13};
Plane Surface(4) = {4};
Curve Loop(5) = {-4, 5, 14, -12, -15, -16};
Plane Surface(5) = {5};
Curve Loop(6) = {-6, 14, 13, -9};
Plane Surface(6) = {6};
Curve Loop(7) = {-10, -17, 15, 17};
Surface(7) = {7};
Curve Loop(8) = {-11, -18, 16, 18};
Surface(8) = {8};
Surface Loop(1) = {1, 2, 3, 4, 5, 6, 7, 8};
Volume(1) = {1};
Physical Surface("INFLOW") = {1};
Physical Surface("OUTFLOW") = {6};
Physical Surface("OBSTACLE") = {7, 8};
Physical Surface("WALL_Y") = {2, 4};
Physical Surface("WALL_Z") = {3, 5};
Physical Volume("FLUID") = {1};
