cl__1 = 3.896836;
cl__2 = 0.84008;
cl__3 = 0.05893;
cl__4 = 0.06830700000000001;
Point(1) = {0.845419, -3.135781, 1, cl__1};
Point(2) = {0.845419, -3.135781, 0, cl__1};
Point(3) = {0.845419, 4.817059, 1, cl__2};
Point(4) = {0.845419, 4.817059, 0, cl__2};
Point(5) = {38.764948, -3.135781, 0, cl__1};
Point(6) = {38.764948, -3.135781, 1, cl__1};
Point(7) = {38.764948, 4.817059, 1, cl__2};
Point(8) = {26.938315, -1.307189, 1, cl__3};
Point(9) = {32.018476, 2.090946, 1, cl__4};
Point(10) = {38.764948, 4.817059, 0, cl__2};
Point(11) = {26.938315, -1.307189, 0, cl__3};
Point(12) = {32.018476, 2.090946, 0, cl__4};
Line(1) = {2, 1};
Line(2) = {1, 3};
Line(3) = {4, 3};
Line(4) = {2, 4};
Line(5) = {2, 5};
Line(6) = {5, 6};
Line(7) = {1, 6};
Line(8) = {3, 7};
Line(9) = {6, 7};
p10 = newp;
Point(p10 + 1) = {26.93105973911272, -1.215002169751792, 1};
Point(p10 + 2) = {26.90947260505273, -1.125085285214843, 1};
Point(p10 + 3) = {26.87408514470421, -1.039652398503485, 1};
Point(p10 + 4) = {26.82576871478516, -0.9608071508240454, 1};
Point(p10 + 5) = {26.76571302615323, -0.8904909738467675, 1};
Point(p10 + 6) = {26.69539684917596, -0.8304352852148433, 1};
Point(p10 + 7) = {26.61655160149652, -0.7821188552957947, 1};
Point(p10 + 8) = {26.53111871478516, -0.7467313949472659, 1};
Point(p10 + 9) = {26.44120183024821, -0.7251442608872852, 1};
Point(p10 + 10) = {26.349015, -0.7178889999999999, 1};
Point(p10 + 11) = {26.25682816975179, -0.7251442608872852, 1};
Point(p10 + 12) = {26.16691128521484, -0.7467313949472658, 1};
Point(p10 + 13) = {26.08147839850349, -0.7821188552957947, 1};
Point(p10 + 14) = {26.00263315082405, -0.8304352852148433, 1};
Point(p10 + 15) = {25.93231697384677, -0.8904909738467675, 1};
Point(p10 + 16) = {25.87226128521484, -0.9608071508240454, 1};
Point(p10 + 17) = {25.8239448552958, -1.039652398503485, 1};
Point(p10 + 18) = {25.78855739494727, -1.125085285214843, 1};
Point(p10 + 19) = {25.76697026088729, -1.215002169751792, 1};
Point(p10 + 20) = {25.759715, -1.307189, 1};
Point(p10 + 21) = {25.76697026088729, -1.399375830248208, 1};
Point(p10 + 22) = {25.78855739494727, -1.489292714785157, 1};
Point(p10 + 23) = {25.8239448552958, -1.574725601496515, 1};
Point(p10 + 24) = {25.87226128521484, -1.653570849175954, 1};
Point(p10 + 25) = {25.93231697384677, -1.723887026153232, 1};
Point(p10 + 26) = {26.00263315082405, -1.783942714785157, 1};
Point(p10 + 27) = {26.08147839850349, -1.832259144704205, 1};
Point(p10 + 28) = {26.16691128521484, -1.867646605052734, 1};
Point(p10 + 29) = {26.25682816975179, -1.889233739112715, 1};
Point(p10 + 30) = {26.349015, -1.896489, 1};
Point(p10 + 31) = {26.44120183024821, -1.889233739112715, 1};
Point(p10 + 32) = {26.53111871478516, -1.867646605052734, 1};
Point(p10 + 33) = {26.61655160149652, -1.832259144704205, 1};
Point(p10 + 34) = {26.69539684917596, -1.783942714785157, 1};
Point(p10 + 35) = {26.76571302615323, -1.723887026153232, 1};
Point(p10 + 36) = {26.82576871478516, -1.653570849175955, 1};
Point(p10 + 37) = {26.87408514470421, -1.574725601496515, 1};
Point(p10 + 38) = {26.90947260505273, -1.489292714785157, 1};
Point(p10 + 39) = {26.93105973911272, -1.399375830248208, 1};
Spline(10) = {8, p10 + 1, p10 + 2, p10 + 3, p10 + 4, p10 + 5, p10 + 6, p10 + 7, p10 + 8, p10 + 9, p10 + 10, p10 + 11, p10 + 12, p10 + 13, p10 + 14, p10 + 15, p10 + 16, p10 + 17, p10 + 18, p10 + 19, p10 + 20, p10 + 21, p10 + 22, p10 + 23, p10 + 24, p10 + 25, p10 + 26, p10 + 27, p10 + 28, p10 + 29, p10 + 30, p10 + 31, p10 + 32, p10 + 33, p10 + 34, p10 + 35, p10 + 36, p10 + 37, p10 + 38, p10 + 39, 8};
p11 = newp;
Point(p11 + 1) = {32.01006629943364, 2.197801377166101, 1};
Point(p11 + 2) = {31.9850442724727, 2.302025620313707, 1};
Point(p11 + 3) = {31.9440260444643, 2.401052382676093, 1};
Point(p11 + 4) = {31.88802162031371, 2.492443296712915, 1};
Point(p11 + 5) = {31.81841001481153, 2.573948014811533, 1};
Point(p11 + 6) = {31.73690529671292, 2.643559620313707, 1};
Point(p11 + 7) = {31.64551438267609, 2.6995640444643, 1};
Point(p11 + 8) = {31.54648762031371, 2.740582272472698, 1};
Point(p11 + 9) = {31.4422633771661, 2.76560429943364, 1};
Point(p11 + 10) = {31.335408, 2.774014, 1};
Point(p11 + 11) = {31.2285526228339, 2.76560429943364, 1};
Point(p11 + 12) = {31.12432837968629, 2.740582272472698, 1};
Point(p11 + 13) = {31.02530161732391, 2.6995640444643, 1};
Point(p11 + 14) = {30.93391070328709, 2.643559620313707, 1};
Point(p11 + 15) = {30.85240598518847, 2.573948014811533, 1};
Point(p11 + 16) = {30.78279437968629, 2.492443296712915, 1};
Point(p11 + 17) = {30.7267899555357, 2.401052382676093, 1};
Point(p11 + 18) = {30.6857717275273, 2.302025620313707, 1};
Point(p11 + 19) = {30.66074970056636, 2.197801377166101, 1};
Point(p11 + 20) = {30.65234, 2.090946, 1};
Point(p11 + 21) = {30.66074970056636, 1.9840906228339, 1};
Point(p11 + 22) = {30.6857717275273, 1.879866379686293, 1};
Point(p11 + 23) = {30.7267899555357, 1.780839617323908, 1};
Point(p11 + 24) = {30.78279437968629, 1.689448703287085, 1};
Point(p11 + 25) = {30.85240598518847, 1.607943985188468, 1};
Point(p11 + 26) = {30.93391070328709, 1.538332379686294, 1};
Point(p11 + 27) = {31.02530161732391, 1.4823279555357, 1};
Point(p11 + 28) = {31.12432837968629, 1.441309727527302, 1};
Point(p11 + 29) = {31.2285526228339, 1.416287700566361, 1};
Point(p11 + 30) = {31.335408, 1.407878, 1};
Point(p11 + 31) = {31.4422633771661, 1.416287700566361, 1};
Point(p11 + 32) = {31.54648762031371, 1.441309727527302, 1};
Point(p11 + 33) = {31.64551438267609, 1.4823279555357, 1};
Point(p11 + 34) = {31.73690529671292, 1.538332379686294, 1};
Point(p11 + 35) = {31.81841001481153, 1.607943985188467, 1};
Point(p11 + 36) = {31.88802162031371, 1.689448703287085, 1};
Point(p11 + 37) = {31.9440260444643, 1.780839617323907, 1};
Point(p11 + 38) = {31.9850442724727, 1.879866379686294, 1};
Point(p11 + 39) = {32.01006629943364, 1.9840906228339, 1};
Spline(11) = {9, p11 + 1, p11 + 2, p11 + 3, p11 + 4, p11 + 5, p11 + 6, p11 + 7, p11 + 8, p11 + 9, p11 + 10, p11 + 11, p11 + 12, p11 + 13, p11 + 14, p11 + 15, p11 + 16, p11 + 17, p11 + 18, p11 + 19, p11 + 20, p11 + 21, p11 + 22, p11 + 23, p11 + 24, p11 + 25, p11 + 26, p11 + 27, p11 + 28, p11 + 29, p11 + 30, p11 + 31, p11 + 32, p11 + 33, p11 + 34, p11 + 35, p11 + 36, p11 + 37, p11 + 38, p11 + 39, 9};
Line(12) = {4, 10};
Line(13) = {10, 7};
Line(14) = {5, 10};
p15 = newp;
Point(p15 + 1) = {26.93105973911272, -1.215002169751792, 0};
Point(p15 + 2) = {26.90947260505273, -1.125085285214843, 0};
Point(p15 + 3) = {26.87408514470421, -1.039652398503485, 0};
Point(p15 + 4) = {26.82576871478516, -0.9608071508240454, 0};
Point(p15 + 5) = {26.76571302615323, -0.8904909738467675, 0};
Point(p15 + 6) = {26.69539684917596, -0.8304352852148433, 0};
Point(p15 + 7) = {26.61655160149652, -0.7821188552957947, 0};
Point(p15 + 8) = {26.53111871478516, -0.7467313949472659, 0};
Point(p15 + 9) = {26.44120183024821, -0.7251442608872852, 0};
Point(p15 + 10) = {26.349015, -0.7178889999999999, 0};
Point(p15 + 11) = {26.25682816975179, -0.7251442608872852, 0};
Point(p15 + 12) = {26.16691128521484, -0.7467313949472658, 0};
Point(p15 + 13) = {26.08147839850349, -0.7821188552957947, 0};
Point(p15 + 14) = {26.00263315082405, -0.8304352852148433, 0};
Point(p15 + 15) = {25.93231697384677, -0.8904909738467675, 0};
Point(p15 + 16) = {25.87226128521484, -0.9608071508240454, 0};
Point(p15 + 17) = {25.8239448552958, -1.039652398503485, 0};
Point(p15 + 18) = {25.78855739494727, -1.125085285214843, 0};
Point(p15 + 19) = {25.76697026088729, -1.215002169751792, 0};
Point(p15 + 20) = {25.759715, -1.307189, 0};
Point(p15 + 21) = {25.76697026088729, -1.399375830248208, 0};
Point(p15 + 22) = {25.78855739494727, -1.489292714785157, 0};
Point(p15 + 23) = {25.8239448552958, -1.574725601496515, 0};
Point(p15 + 24) = {25.87226128521484, -1.653570849175954, 0};
Point(p15 + 25) = {25.93231697384677, -1.723887026153232, 0};
Point(p15 + 26) = {26.00263315082405, -1.783942714785157, 0};
Point(p15 + 27) = {26.08147839850349, -1.832259144704205, 0};
Point(p15 + 28) = {26.16691128521484, -1.867646605052734, 0};
Point(p15 + 29) = {26.25682816975179, -1.889233739112715, 0};
Point(p15 + 30) = {26.349015, -1.896489, 0};
Point(p15 + 31) = {26.44120183024821, -1.889233739112715, 0};
Point(p15 + 32) = {26.53111871478516, -1.867646605052734, 0};
Point(p15 + 33) = {26.61655160149652, -1.832259144704205, 0};
Point(p15 + 34) = {26.69539684917596, -1.783942714785157, 0};
Point(p15 + 35) = {26.76571302615323, -1.723887026153232, 0};
Point(p15 + 36) = {26.82576871478516, -1.653570849175955, 0};
Point(p15 + 37) = {26.87408514470421, -1.574725601496515, 0};
Point(p15 + 38) = {26.90947260505273, -1.489292714785157, 0};
Point(p15 + 39) = {26.93105973911272, -1.399375830248208, 0};
Spline(15) = {11, p15 + 1, p15 + 2, p15 + 3, p15 + 4, p15 + 5, p15 + 6, p15 + 7, p15 + 8, p15 + 9, p15 + 10, p15 + 11, p15 + 12, p15 + 13, p15 + 14, p15 + 15, p15 + 16, p15 + 17, p15 + 18, p15 + 19, p15 + 20, p15 + 21, p15 + 22, p15 + 23, p15 + 24, p15 + 25, p15 + 26, p15 + 27, p15 + 28, p15 + 29, p15 + 30, p15 + 31, p15 + 32, p15 + 33, p15 + 34, p15 + 35, p15 + 36, p15 + 37, p15 + 38, p15 + 39, 11};
p16 = newp;
Point(p16 + 1) = {32.01006629943364, 2.197801377166101, 0};
Point(p16 + 2) = {31.9850442724727, 2.302025620313707, 0};
Point(p16 + 3) = {31.9440260444643, 2.401052382676093, 0};
Point(p16 + 4) = {31.88802162031371, 2.492443296712915, 0};
Point(p16 + 5) = {31.81841001481153, 2.573948014811533, 0};
Point(p16 + 6) = {31.73690529671292, 2.643559620313707, 0};
Point(p16 + 7) = {31.64551438267609, 2.6995640444643, 0};
Point(p16 + 8) = {31.54648762031371, 2.740582272472698, 0};
Point(p16 + 9) = {31.4422633771661, 2.76560429943364, 0};
Point(p16 + 10) = {31.335408, 2.774014, 0};
Point(p16 + 11) = {31.2285526228339, 2.76560429943364, 0};
Point(p16 + 12) = {31.12432837968629, 2.740582272472698, 0};
Point(p16 + 13) = {31.02530161732391, 2.6995640444643, 0};
Point(p16 + 14) = {30.93391070328709, 2.643559620313707, 0};
Point(p16 + 15) = {30.85240598518847, 2.573948014811533, 0};
Point(p16 + 16) = {30.78279437968629, 2.492443296712915, 0};
Point(p16 + 17) = {30.7267899555357, 2.401052382676093, 0};
Point(p16 + 18) = {30.6857717275273, 2.302025620313707, 0};
Point(p16 + 19) = {30.66074970056636, 2.197801377166101, 0};
Point(p16 + 20) = {30.65234, 2.090946, 0};
Point(p16 + 21) = {30.66074970056636, 1.9840906228339, 0};
Point(p16 + 22) = {30.6857717275273, 1.879866379686293, 0};
Point(p16 + 23) = {30.7267899555357, 1.780839617323908, 0};
Point(p16 + 24) = {30.78279437968629, 1.689448703287085, 0};
Point(p16 + 25) = {30.85240598518847, 1.607943985188468, 0};
Point(p16 + 26) = {30.93391070328709, 1.538332379686294, 0};
Point(p16 + 27) = {31.02530161732391, 1.4823279555357, 0};
Point(p16 + 28) = {31.12432837968629, 1.441309727527302, 0};
Point(p16 + 29) = {31.2285526228339, 1.416287700566361, 0};
Point(p16 + 30) = {31.335408, 1.407878, 0};
Point(p16 + 31) = {31.4422633771661, 1.416287700566361, 0};
Point(p16 + 32) = {31.54648762031371, 1.441309727527302, 0};
Point(p16 + 33) = {31.64551438267609, 1.4823279555357, 0};
Point(p16 + 34) = {31.73690529671292, 1.538332379686294, 0};
Point(p16 + 35) = {31.81841001481153, 1.607943985188467, 0};
Point(p16 + 36) = {31.88802162031371, 1.689448703287085, 0};
Point(p16 + 37) = {31.9440260444643, 1.780839617323907, 0};
Point(p16 + 38) = {31.9850442724727, 1.879866379686294, 0};
Point(p16 + 39) = {32.01006629943364, 1.9840906228339, 0};
Spline(16) = {12, p16 + 1, p16 + 2, p16 + 3, p16 + 4, p16 + 5, p16 + 6, p16 + 7, p16 + 8, p16 + 9, p16 + 10, p16 + 11, p16 + 12, p16 + 13, p16 + 14, p16 + 15, p16 + 16, p16 + 17, p16 + 18, p16 + 19, p16 + 20, p16 + 21, p16 + 22, p16 + 23, p16 + 24, p16 + 25, p16 + 26, p16 + 27, p16 + 28, p16 + 29, p16 + 30, p16 + 31, p16 + 32, p16 + 33, p16 + 34, p16 + 35, p16 + 36, p16 + 37, p16 + 38, p16 + 39, 12};
Line(17) = {11, 8};
Line(18) = {12, 9};
Curve Loop(1) = {-1, 4, 3, -2};
Plane Surface(1) = {1};
Curve Loop(2) = {-5, 1, 7, -6};
Plane Surface(2) = {2};
Curve Loop(3) = {-2, 7, 9, -8, -10, -11};
Plane Surface(3) = {3};
Curve Loop(4) = {-12, 3, 8, -13};
Plane Surface(4) = {4};
Curve Loop(5) = {-4, 5, 14, -12, -15, -16};
Plane Surface(5) = {5};
Curve Loop(6) = {-6, 14, 13, -9};
Plane Surface(6) = {6};
Curve Loop(7) = {-10, -17, 15, 17};
Surface(7) = {7};
Curve Loop(8) = {-11, -18, 16, 18};
Surface(8) = {8};
Surface Loop(1) = {1, 2, 3, 4, 5, 6, 7, 8};
Volume(1) = {1};
Physical Surface("INFLOW") = {1};
Physical Surface("OUTFLOW") = {6};
Physical Surface("OBSTACLE") = {7, 8};
Physical Surface("WALL_Y") = {2, 4};
Physical Surface("WALL_Z") = {3, 5};
Physical Volume("FLUID") = {1};
