cl__1 = 3.255854;
cl__2 = 0.416438;
cl__3 = 0.36589;
cl__4 = 0.141526;
Point(1) = {0.940292, -3.672935, 1, cl__1};
Point(2) = {0.940292, -3.672935, 0, cl__1};
Point(3) = {0.940292, 3.889627, 1, cl__1};
Point(4) = {0.940292, 3.889627, 0, cl__1};
Point(5) = {32.338219, -3.672935, 0, cl__2};
Point(6) = {32.338219, -3.672935, 1, cl__2};
Point(7) = {32.338219, 3.889627, 1, cl__3};
Point(8) = {30.009836, 0.4643969999999997, 1, cl__4};
Point(9) = {32.338219, 3.889627, 0, cl__3};
Point(10) = {30.009836, 0.4643969999999997, 0, cl__4};
Line(1) = {2, 1};
Line(2) = {1, 3};
Line(3) = {4, 3};
Line(4) = {2, 4};
Line(5) = {2, 5};
Line(6) = {5, 6};
Line(7) = {1, 6};
Line(8) = {3, 7};
Line(9) = {6, 7};
p10 = newp;
Point(p10 + 1) = {29.99241185015731, 0.685791815254977, 1};
Point(p10 + 2) = {29.94056844102581, 0.9017351553911106, 1};
Point(p10 + 3) = {29.85558232939673, 1.106909778699392, 1};
Point(p10 + 4) = {29.73954615539111, 1.296263605018436, 1};
Point(p10 + 5) = {29.59531711471495, 1.465134114714948, 1};
Point(p10 + 6) = {29.42644660501844, 1.609363155391111, 1};
Point(p10 + 7) = {29.23709277869939, 1.725399329396733, 1};
Point(p10 + 8) = {29.03191815539111, 1.810385441025814, 1};
Point(p10 + 9) = {28.81597481525498, 1.862228850157312, 1};
Point(p10 + 10) = {28.59458, 1.879653, 1};
Point(p10 + 11) = {28.37318518474502, 1.862228850157312, 1};
Point(p10 + 12) = {28.15724184460889, 1.810385441025814, 1};
Point(p10 + 13) = {27.95206722130061, 1.725399329396733, 1};
Point(p10 + 14) = {27.76271339498156, 1.609363155391111, 1};
Point(p10 + 15) = {27.59384288528505, 1.465134114714949, 1};
Point(p10 + 16) = {27.44961384460889, 1.296263605018437, 1};
Point(p10 + 17) = {27.33357767060327, 1.106909778699392, 1};
Point(p10 + 18) = {27.24859155897419, 0.9017351553911107, 1};
Point(p10 + 19) = {27.19674814984269, 0.6857918152549771, 1};
Point(p10 + 20) = {27.179324, 0.4643970000000002, 1};
Point(p10 + 21) = {27.19674814984269, 0.2430021847450232, 1};
Point(p10 + 22) = {27.24859155897419, 0.02705884460888897, 1};
Point(p10 + 23) = {27.33357767060327, -0.1781157786993913, 1};
Point(p10 + 24) = {27.44961384460889, -0.3674696050184362, 1};
Point(p10 + 25) = {27.59384288528505, -0.5363401147149485, 1};
Point(p10 + 26) = {27.76271339498156, -0.6805691553911106, 1};
Point(p10 + 27) = {27.95206722130061, -0.7966053293967328, 1};
Point(p10 + 28) = {28.15724184460889, -0.8815914410258139, 1};
Point(p10 + 29) = {28.37318518474502, -0.9334348501573122, 1};
Point(p10 + 30) = {28.59458, -0.9508590000000001, 1};
Point(p10 + 31) = {28.81597481525498, -0.9334348501573124, 1};
Point(p10 + 32) = {29.03191815539111, -0.8815914410258141, 1};
Point(p10 + 33) = {29.23709277869939, -0.796605329396733, 1};
Point(p10 + 34) = {29.42644660501844, -0.6805691553911108, 1};
Point(p10 + 35) = {29.59531711471495, -0.5363401147149489, 1};
Point(p10 + 36) = {29.73954615539111, -0.3674696050184367, 1};
Point(p10 + 37) = {29.85558232939673, -0.1781157786993923, 1};
Point(p10 + 38) = {29.94056844102581, 0.02705884460888913, 1};
Point(p10 + 39) = {29.99241185015731, 0.2430021847450227, 1};
Spline(10) = {8, p10 + 1, p10 + 2, p10 + 3, p10 + 4, p10 + 5, p10 + 6, p10 + 7, p10 + 8, p10 + 9, p10 + 10, p10 + 11, p10 + 12, p10 + 13, p10 + 14, p10 + 15, p10 + 16, p10 + 17, p10 + 18, p10 + 19, p10 + 20, p10 + 21, p10 + 22, p10 + 23, p10 + 24, p10 + 25, p10 + 26, p10 + 27, p10 + 28, p10 + 29, p10 + 30, p10 + 31, p10 + 32, p10 + 33, p10 + 34, p10 + 35, p10 + 36, p10 + 37, p10 + 38, p10 + 39, 8};
Line(11) = {4, 9};
Line(12) = {9, 7};
Line(13) = {5, 9};
p14 = newp;
Point(p14 + 1) = {29.99241185015731, 0.685791815254977, 0};
Point(p14 + 2) = {29.94056844102581, 0.9017351553911106, 0};
Point(p14 + 3) = {29.85558232939673, 1.106909778699392, 0};
Point(p14 + 4) = {29.73954615539111, 1.296263605018436, 0};
Point(p14 + 5) = {29.59531711471495, 1.465134114714948, 0};
Point(p14 + 6) = {29.42644660501844, 1.609363155391111, 0};
Point(p14 + 7) = {29.23709277869939, 1.725399329396733, 0};
Point(p14 + 8) = {29.03191815539111, 1.810385441025814, 0};
Point(p14 + 9) = {28.81597481525498, 1.862228850157312, 0};
Point(p14 + 10) = {28.59458, 1.879653, 0};
Point(p14 + 11) = {28.37318518474502, 1.862228850157312, 0};
Point(p14 + 12) = {28.15724184460889, 1.810385441025814, 0};
Point(p14 + 13) = {27.95206722130061, 1.725399329396733, 0};
Point(p14 + 14) = {27.76271339498156, 1.609363155391111, 0};
Point(p14 + 15) = {27.59384288528505, 1.465134114714949, 0};
Point(p14 + 16) = {27.44961384460889, 1.296263605018437, 0};
Point(p14 + 17) = {27.33357767060327, 1.106909778699392, 0};
Point(p14 + 18) = {27.24859155897419, 0.9017351553911107, 0};
Point(p14 + 19) = {27.19674814984269, 0.6857918152549771, 0};
Point(p14 + 20) = {27.179324, 0.4643970000000002, 0};
Point(p14 + 21) = {27.19674814984269, 0.2430021847450232, 0};
Point(p14 + 22) = {27.24859155897419, 0.02705884460888897, 0};
Point(p14 + 23) = {27.33357767060327, -0.1781157786993913, 0};
Point(p14 + 24) = {27.44961384460889, -0.3674696050184362, 0};
Point(p14 + 25) = {27.59384288528505, -0.5363401147149485, 0};
Point(p14 + 26) = {27.76271339498156, -0.6805691553911106, 0};
Point(p14 + 27) = {27.95206722130061, -0.7966053293967328, 0};
Point(p14 + 28) = {28.15724184460889, -0.8815914410258139, 0};
Point(p14 + 29) = {28.37318518474502, -0.9334348501573122, 0};
Point(p14 + 30) = {28.59458, -0.9508590000000001, 0};
Point(p14 + 31) = {28.81597481525498, -0.9334348501573124, 0};
Point(p14 + 32) = {29.03191815539111, -0.8815914410258141, 0};
Point(p14 + 33) = {29.23709277869939, -0.796605329396733, 0};
Point(p14 + 34) = {29.42644660501844, -0.6805691553911108, 0};
Point(p14 + 35) = {29.59531711471495, -0.5363401147149489, 0};
Point(p14 + 36) = {29.73954615539111, -0.3674696050184367, 0};
Point(p14 + 37) = {29.85558232939673, -0.1781157786993923, 0};
Point(p14 + 38) = {29.94056844102581, 0.02705884460888913, 0};
Point(p14 + 39) = {29.99241185015731, 0.2430021847450227, 0};
Spline(14) = {10, p14 + 1, p14 + 2, p14 + 3, p14 + 4, p14 + 5, p14 + 6, p14 + 7, p14 + 8, p14 + 9, p14 + 10, p14 + 11, p14 + 12, p14 + 13, p14 + 14, p14 + 15, p14 + 16, p14 + 17, p14 + 18, p14 + 19, p14 + 20, p14 + 21, p14 + 22, p14 + 23, p14 + 24, p14 + 25, p14 + 26, p14 + 27, p14 + 28, p14 + 29, p14 + 30, p14 + 31, p14 + 32, p14 + 33, p14 + 34, p14 + 35, p14 + 36, p14 + 37, p14 + 38, p14 + 39, 10};
Line(15) = {10, 8};
Curve Loop(1) = {-1, 4, 3, -2};
Plane Surface(1) = {1};
Curve Loop(2) = {-5, 1, 7, -6};
Plane Surface(2) = {2};
Curve Loop(3) = {-2, 7, 9, -8, -10};
Plane Surface(3) = {3};
Curve Loop(4) = {-11, 3, 8, -12};
Plane Surface(4) = {4};
Curve Loop(5) = {-4, 5, 13, -11, -14};
Plane Surface(5) = {5};
Curve Loop(6) = {-6, 13, 12, -9};
Plane Surface(6) = {6};
Curve Loop(7) = {-10, -15, 14, 15};
Surface(7) = {7};
Surface Loop(1) = {1, 2, 3, 4, 5, 6, 7};
Volume(1) = {1};
Physical Surface("INFLOW") = {1};
Physical Surface("OUTFLOW") = {6};
Physical Surface("OBSTACLE") = {7};
Physical Surface("WALL_Y") = {2, 4};
Physical Surface("WALL_Z") = {3, 5};
Physical Volume("FLUID") = {1};
