cl__1 = 0.420887;
cl__2 = 0.68041;
cl__3 = 3.661462;
cl__4 = 0.120933;
Point(1) = {0.87796, -3.197191, 1, cl__1};
Point(2) = {0.87796, -3.197191, 0, cl__1};
Point(3) = {0.87796, 4.757717, 1, cl__2};
Point(4) = {0.87796, 4.757717, 0, cl__2};
Point(5) = {36.397939, -3.197191, 0, cl__3};
Point(6) = {36.397939, -3.197191, 1, cl__3};
Point(7) = {36.397939, 4.757717, 1, cl__3};
Point(8) = {7.20251, -1.410717, 1, cl__4};
Point(9) = {36.397939, 4.757717, 0, cl__3};
Point(10) = {7.20251, -1.410717, 0, cl__4};
Line(1) = {2, 1};
Line(2) = {1, 3};
Line(3) = {4, 3};
Line(4) = {2, 4};
Line(5) = {2, 5};
Line(6) = {5, 6};
Line(7) = {1, 6};
Line(8) = {3, 7};
Line(9) = {6, 7};
p10 = newp;
Point(p10 + 1) = {7.187621116308599, -1.221535795523967, 1};
Point(p10 + 2) = {7.143321078964251, -1.037012860158556, 1};
Point(p10 + 3) = {7.070700701909768, -0.8616917609689744, 1};
Point(p10 + 4) = {6.971548139841445, -0.6998894852746388, 1};
Point(p10 + 5) = {6.84830485790589, -0.5555901420941102, 1};
Point(p10 + 6) = {6.704005514725361, -0.4323468601585559, 1};
Point(p10 + 7) = {6.542203239031026, -0.3331942980902327, 1};
Point(p10 + 8) = {6.366882139841445, -0.2605739210357494, 1};
Point(p10 + 9) = {6.182359204476032, -0.2162738836914009, 1};
Point(p10 + 10) = {5.993178, -0.2013849999999999, 1};
Point(p10 + 11) = {5.803996795523967, -0.2162738836914009, 1};
Point(p10 + 12) = {5.619473860158556, -0.2605739210357492, 1};
Point(p10 + 13) = {5.444152760968975, -0.3331942980902327, 1};
Point(p10 + 14) = {5.282350485274639, -0.4323468601585559, 1};
Point(p10 + 15) = {5.138051142094111, -0.55559014209411, 1};
Point(p10 + 16) = {5.014807860158556, -0.6998894852746387, 1};
Point(p10 + 17) = {4.915655298090233, -0.8616917609689743, 1};
Point(p10 + 18) = {4.84303492103575, -1.037012860158556, 1};
Point(p10 + 19) = {4.798734883691401, -1.221535795523967, 1};
Point(p10 + 20) = {4.783846, -1.410717, 1};
Point(p10 + 21) = {4.798734883691401, -1.599898204476032, 1};
Point(p10 + 22) = {4.84303492103575, -1.784421139841444, 1};
Point(p10 + 23) = {4.915655298090233, -1.959742239031025, 1};
Point(p10 + 24) = {5.014807860158556, -2.121544514725361, 1};
Point(p10 + 25) = {5.13805114209411, -2.26584385790589, 1};
Point(p10 + 26) = {5.282350485274639, -2.389087139841444, 1};
Point(p10 + 27) = {5.444152760968975, -2.488239701909767, 1};
Point(p10 + 28) = {5.619473860158556, -2.560860078964251, 1};
Point(p10 + 29) = {5.803996795523967, -2.605160116308599, 1};
Point(p10 + 30) = {5.993178, -2.620049, 1};
Point(p10 + 31) = {6.182359204476032, -2.605160116308599, 1};
Point(p10 + 32) = {6.366882139841444, -2.560860078964251, 1};
Point(p10 + 33) = {6.542203239031026, -2.488239701909767, 1};
Point(p10 + 34) = {6.704005514725361, -2.389087139841444, 1};
Point(p10 + 35) = {6.84830485790589, -2.26584385790589, 1};
Point(p10 + 36) = {6.971548139841445, -2.121544514725362, 1};
Point(p10 + 37) = {7.070700701909768, -1.959742239031026, 1};
Point(p10 + 38) = {7.143321078964251, -1.784421139841444, 1};
Point(p10 + 39) = {7.187621116308599, -1.599898204476033, 1};
Spline(10) = {8, p10 + 1, p10 + 2, p10 + 3, p10 + 4, p10 + 5, p10 + 6, p10 + 7, p10 + 8, p10 + 9, p10 + 10, p10 + 11, p10 + 12, p10 + 13, p10 + 14, p10 + 15, p10 + 16, p10 + 17, p10 + 18, p10 + 19, p10 + 20, p10 + 21, p10 + 22, p10 + 23, p10 + 24, p10 + 25, p10 + 26, p10 + 27, p10 + 28, p10 + 29, p10 + 30, p10 + 31, p10 + 32, p10 + 33, p10 + 34, p10 + 35, p10 + 36, p10 + 37, p10 + 38, p10 + 39, 8};
Line(11) = {4, 9};
Line(12) = {9, 7};
Line(13) = {5, 9};
p14 = newp;
Point(p14 + 1) = {7.187621116308599, -1.221535795523967, 0};
Point(p14 + 2) = {7.143321078964251, -1.037012860158556, 0};
Point(p14 + 3) = {7.070700701909768, -0.8616917609689744, 0};
Point(p14 + 4) = {6.971548139841445, -0.6998894852746388, 0};
Point(p14 + 5) = {6.84830485790589, -0.5555901420941102, 0};
Point(p14 + 6) = {6.704005514725361, -0.4323468601585559, 0};
Point(p14 + 7) = {6.542203239031026, -0.3331942980902327, 0};
Point(p14 + 8) = {6.366882139841445, -0.2605739210357494, 0};
Point(p14 + 9) = {6.182359204476032, -0.2162738836914009, 0};
Point(p14 + 10) = {5.993178, -0.2013849999999999, 0};
Point(p14 + 11) = {5.803996795523967, -0.2162738836914009, 0};
Point(p14 + 12) = {5.619473860158556, -0.2605739210357492, 0};
Point(p14 + 13) = {5.444152760968975, -0.3331942980902327, 0};
Point(p14 + 14) = {5.282350485274639, -0.4323468601585559, 0};
Point(p14 + 15) = {5.138051142094111, -0.55559014209411, 0};
Point(p14 + 16) = {5.014807860158556, -0.6998894852746387, 0};
Point(p14 + 17) = {4.915655298090233, -0.8616917609689743, 0};
Point(p14 + 18) = {4.84303492103575, -1.037012860158556, 0};
Point(p14 + 19) = {4.798734883691401, -1.221535795523967, 0};
Point(p14 + 20) = {4.783846, -1.410717, 0};
Point(p14 + 21) = {4.798734883691401, -1.599898204476032, 0};
Point(p14 + 22) = {4.84303492103575, -1.784421139841444, 0};
Point(p14 + 23) = {4.915655298090233, -1.959742239031025, 0};
Point(p14 + 24) = {5.014807860158556, -2.121544514725361, 0};
Point(p14 + 25) = {5.13805114209411, -2.26584385790589, 0};
Point(p14 + 26) = {5.282350485274639, -2.389087139841444, 0};
Point(p14 + 27) = {5.444152760968975, -2.488239701909767, 0};
Point(p14 + 28) = {5.619473860158556, -2.560860078964251, 0};
Point(p14 + 29) = {5.803996795523967, -2.605160116308599, 0};
Point(p14 + 30) = {5.993178, -2.620049, 0};
Point(p14 + 31) = {6.182359204476032, -2.605160116308599, 0};
Point(p14 + 32) = {6.366882139841444, -2.560860078964251, 0};
Point(p14 + 33) = {6.542203239031026, -2.488239701909767, 0};
Point(p14 + 34) = {6.704005514725361, -2.389087139841444, 0};
Point(p14 + 35) = {6.84830485790589, -2.26584385790589, 0};
Point(p14 + 36) = {6.971548139841445, -2.121544514725362, 0};
Point(p14 + 37) = {7.070700701909768, -1.959742239031026, 0};
Point(p14 + 38) = {7.143321078964251, -1.784421139841444, 0};
Point(p14 + 39) = {7.187621116308599, -1.599898204476033, 0};
Spline(14) = {10, p14 + 1, p14 + 2, p14 + 3, p14 + 4, p14 + 5, p14 + 6, p14 + 7, p14 + 8, p14 + 9, p14 + 10, p14 + 11, p14 + 12, p14 + 13, p14 + 14, p14 + 15, p14 + 16, p14 + 17, p14 + 18, p14 + 19, p14 + 20, p14 + 21, p14 + 22, p14 + 23, p14 + 24, p14 + 25, p14 + 26, p14 + 27, p14 + 28, p14 + 29, p14 + 30, p14 + 31, p14 + 32, p14 + 33, p14 + 34, p14 + 35, p14 + 36, p14 + 37, p14 + 38, p14 + 39, 10};
Line(15) = {10, 8};
Curve Loop(1) = {-1, 4, 3, -2};
Plane Surface(1) = {1};
Curve Loop(2) = {-5, 1, 7, -6};
Plane Surface(2) = {2};
Curve Loop(3) = {-2, 7, 9, -8, -10};
Plane Surface(3) = {3};
Curve Loop(4) = {-11, 3, 8, -12};
Plane Surface(4) = {4};
Curve Loop(5) = {-4, 5, 13, -11, -14};
Plane Surface(5) = {5};
Curve Loop(6) = {-6, 13, 12, -9};
Plane Surface(6) = {6};
Curve Loop(7) = {-10, -15, 14, 15};
Surface(7) = {7};
Surface Loop(1) = {1, 2, 3, 4, 5, 6, 7};
Volume(1) = {1};
Physical Surface("INFLOW") = {1};
Physical Surface("OUTFLOW") = {6};
Physical Surface("OBSTACLE") = {7};
Physical Surface("WALL_Y") = {2, 4};
Physical Surface("WALL_Z") = {3, 5};
Physical Volume("FLUID") = {1};
