cl__1 = 1.180484;
cl__2 = 3.484179;
cl__3 = 0.056767;
cl__4 = 0.07928300000000001;
Point(1) = {0.787308, -4.296289, 1, cl__1};
Point(2) = {0.787308, -4.296289, 0, cl__1};
Point(3) = {0.787308, 4.651127000000001, 1, cl__2};
Point(4) = {0.787308, 4.651127000000001, 0, cl__2};
Point(5) = {34.553379, -4.296289, 0, cl__1};
Point(6) = {34.553379, -4.296289, 1, cl__1};
Point(7) = {34.553379, 4.651127000000001, 1, cl__2};
Point(8) = {13.302986, -1.08318, 1, cl__3};
Point(9) = {15.558315, 0.4515859999999998, 1, cl__4};
Point(10) = {34.553379, 4.651127000000001, 0, cl__2};
Point(11) = {13.302986, -1.08318, 0, cl__3};
Point(12) = {15.558315, 0.4515859999999998, 0, cl__4};
Line(1) = {2, 1};
Line(2) = {1, 3};
Line(3) = {4, 3};
Line(4) = {2, 4};
Line(5) = {2, 5};
Line(6) = {5, 6};
Line(7) = {1, 6};
Line(8) = {3, 7};
Line(9) = {6, 7};
p10 = newp;
Point(p10 + 1) = {13.29599707724062, -0.9943773165340073, 1};
Point(p10 + 2) = {13.27520239943572, -0.9077612498541567, 1};
Point(p10 + 3) = {13.24111400056644, -0.8254645749843508, 1};
Point(p10 + 4) = {13.19457125014584, -0.7495137091868886, 1};
Point(p10 + 5) = {13.13672018515582, -0.6817788148441761, 1};
Point(p10 + 6) = {13.06898529081311, -0.6239277498541567, 1};
Point(p10 + 7) = {12.99303442501565, -0.5773849994335618, 1};
Point(p10 + 8) = {12.91073775014584, -0.5432966005642791, 1};
Point(p10 + 9) = {12.82412168346599, -0.5225019227593799, 1};
Point(p10 + 10) = {12.735319, -0.515513, 1};
Point(p10 + 11) = {12.64651631653401, -0.52250192275938, 1};
Point(p10 + 12) = {12.55990024985416, -0.543296600564279, 1};
Point(p10 + 13) = {12.47760357498435, -0.5773849994335618, 1};
Point(p10 + 14) = {12.40165270918689, -0.6239277498541567, 1};
Point(p10 + 15) = {12.33391781484418, -0.6817788148441761, 1};
Point(p10 + 16) = {12.27606674985416, -0.7495137091868886, 1};
Point(p10 + 17) = {12.22952399943356, -0.8254645749843507, 1};
Point(p10 + 18) = {12.19543560056428, -0.9077612498541567, 1};
Point(p10 + 19) = {12.17464092275938, -0.9943773165340072, 1};
Point(p10 + 20) = {12.167652, -1.08318, 1};
Point(p10 + 21) = {12.17464092275938, -1.171982683465993, 1};
Point(p10 + 22) = {12.19543560056428, -1.258598750145844, 1};
Point(p10 + 23) = {12.22952399943356, -1.340895425015649, 1};
Point(p10 + 24) = {12.27606674985416, -1.416846290813111, 1};
Point(p10 + 25) = {12.33391781484418, -1.484581185155824, 1};
Point(p10 + 26) = {12.40165270918689, -1.542432250145843, 1};
Point(p10 + 27) = {12.47760357498435, -1.588975000566438, 1};
Point(p10 + 28) = {12.55990024985416, -1.623063399435721, 1};
Point(p10 + 29) = {12.64651631653401, -1.64385807724062, 1};
Point(p10 + 30) = {12.735319, -1.650847, 1};
Point(p10 + 31) = {12.82412168346599, -1.64385807724062, 1};
Point(p10 + 32) = {12.91073775014584, -1.623063399435721, 1};
Point(p10 + 33) = {12.99303442501565, -1.588975000566438, 1};
Point(p10 + 34) = {13.06898529081311, -1.542432250145843, 1};
Point(p10 + 35) = {13.13672018515582, -1.484581185155824, 1};
Point(p10 + 36) = {13.19457125014584, -1.416846290813111, 1};
Point(p10 + 37) = {13.24111400056644, -1.34089542501565, 1};
Point(p10 + 38) = {13.27520239943572, -1.258598750145843, 1};
Point(p10 + 39) = {13.29599707724062, -1.171982683465993, 1};
Spline(10) = {8, p10 + 1, p10 + 2, p10 + 3, p10 + 4, p10 + 5, p10 + 6, p10 + 7, p10 + 8, p10 + 9, p10 + 10, p10 + 11, p10 + 12, p10 + 13, p10 + 14, p10 + 15, p10 + 16, p10 + 17, p10 + 18, p10 + 19, p10 + 20, p10 + 21, p10 + 22, p10 + 23, p10 + 24, p10 + 25, p10 + 26, p10 + 27, p10 + 28, p10 + 29, p10 + 30, p10 + 31, p10 + 32, p10 + 33, p10 + 34, p10 + 35, p10 + 36, p10 + 37, p10 + 38, p10 + 39, 8};
p11 = newp;
Point(p11 + 1) = {15.54855391013906, 0.5756124062212413, 1};
Point(p11 + 2) = {15.51951099098384, 0.6965848707012726, 1};
Point(p11 + 3) = {15.47190137559184, 0.8115246498800041, 1};
Point(p11 + 4) = {15.40689737070127, 0.9176015449307984, 1};
Point(p11 + 5) = {15.32609959064848, 1.012203590648474, 1};
Point(p11 + 6) = {15.2314975449308, 1.093001370701273, 1};
Point(p11 + 7) = {15.12542064988, 1.158005375591836, 1};
Point(p11 + 8) = {15.01048087070127, 1.205614990983835, 1};
Point(p11 + 9) = {14.88950840622124, 1.234657910139065, 1};
Point(p11 + 10) = {14.765482, 1.244419, 1};
Point(p11 + 11) = {14.64145559377876, 1.234657910139065, 1};
Point(p11 + 12) = {14.52048312929873, 1.205614990983836, 1};
Point(p11 + 13) = {14.40554335012, 1.158005375591836, 1};
Point(p11 + 14) = {14.2994664550692, 1.093001370701273, 1};
Point(p11 + 15) = {14.20486440935153, 1.012203590648474, 1};
Point(p11 + 16) = {14.12406662929873, 0.9176015449307984, 1};
Point(p11 + 17) = {14.05906262440816, 0.8115246498800042, 1};
Point(p11 + 18) = {14.01145300901617, 0.6965848707012727, 1};
Point(p11 + 19) = {13.98241008986094, 0.5756124062212414, 1};
Point(p11 + 20) = {13.972649, 0.4515860000000001, 1};
Point(p11 + 21) = {13.98241008986094, 0.3275595937787588, 1};
Point(p11 + 22) = {14.01145300901617, 0.2065871292987271, 1};
Point(p11 + 23) = {14.05906262440816, 0.09164735011999631, 1};
Point(p11 + 24) = {14.12406662929873, -0.01442954493079829, 1};
Point(p11 + 25) = {14.20486440935153, -0.109031590648474, 1};
Point(p11 + 26) = {14.2994664550692, -0.1898293707012726, 1};
Point(p11 + 27) = {14.40554335012, -0.2548333755918362, 1};
Point(p11 + 28) = {14.52048312929873, -0.3024429909838355, 1};
Point(p11 + 29) = {14.64145559377876, -0.3314859101390648, 1};
Point(p11 + 30) = {14.765482, -0.341247, 1};
Point(p11 + 31) = {14.88950840622124, -0.3314859101390649, 1};
Point(p11 + 32) = {15.01048087070127, -0.3024429909838356, 1};
Point(p11 + 33) = {15.12542064988, -0.2548333755918363, 1};
Point(p11 + 34) = {15.2314975449308, -0.1898293707012729, 1};
Point(p11 + 35) = {15.32609959064848, -0.1090315906484742, 1};
Point(p11 + 36) = {15.40689737070127, -0.01442954493079857, 1};
Point(p11 + 37) = {15.47190137559184, 0.09164735011999575, 1};
Point(p11 + 38) = {15.51951099098384, 0.2065871292987271, 1};
Point(p11 + 39) = {15.54855391013906, 0.3275595937787584, 1};
Spline(11) = {9, p11 + 1, p11 + 2, p11 + 3, p11 + 4, p11 + 5, p11 + 6, p11 + 7, p11 + 8, p11 + 9, p11 + 10, p11 + 11, p11 + 12, p11 + 13, p11 + 14, p11 + 15, p11 + 16, p11 + 17, p11 + 18, p11 + 19, p11 + 20, p11 + 21, p11 + 22, p11 + 23, p11 + 24, p11 + 25, p11 + 26, p11 + 27, p11 + 28, p11 + 29, p11 + 30, p11 + 31, p11 + 32, p11 + 33, p11 + 34, p11 + 35, p11 + 36, p11 + 37, p11 + 38, p11 + 39, 9};
Line(12) = {4, 10};
Line(13) = {10, 7};
Line(14) = {5, 10};
p15 = newp;
Point(p15 + 1) = {13.29599707724062, -0.9943773165340073, 0};
Point(p15 + 2) = {13.27520239943572, -0.9077612498541567, 0};
Point(p15 + 3) = {13.24111400056644, -0.8254645749843508, 0};
Point(p15 + 4) = {13.19457125014584, -0.7495137091868886, 0};
Point(p15 + 5) = {13.13672018515582, -0.6817788148441761, 0};
Point(p15 + 6) = {13.06898529081311, -0.6239277498541567, 0};
Point(p15 + 7) = {12.99303442501565, -0.5773849994335618, 0};
Point(p15 + 8) = {12.91073775014584, -0.5432966005642791, 0};
Point(p15 + 9) = {12.82412168346599, -0.5225019227593799, 0};
Point(p15 + 10) = {12.735319, -0.515513, 0};
Point(p15 + 11) = {12.64651631653401, -0.52250192275938, 0};
Point(p15 + 12) = {12.55990024985416, -0.543296600564279, 0};
Point(p15 + 13) = {12.47760357498435, -0.5773849994335618, 0};
Point(p15 + 14) = {12.40165270918689, -0.6239277498541567, 0};
Point(p15 + 15) = {12.33391781484418, -0.6817788148441761, 0};
Point(p15 + 16) = {12.27606674985416, -0.7495137091868886, 0};
Point(p15 + 17) = {12.22952399943356, -0.8254645749843507, 0};
Point(p15 + 18) = {12.19543560056428, -0.9077612498541567, 0};
Point(p15 + 19) = {12.17464092275938, -0.9943773165340072, 0};
Point(p15 + 20) = {12.167652, -1.08318, 0};
Point(p15 + 21) = {12.17464092275938, -1.171982683465993, 0};
Point(p15 + 22) = {12.19543560056428, -1.258598750145844, 0};
Point(p15 + 23) = {12.22952399943356, -1.340895425015649, 0};
Point(p15 + 24) = {12.27606674985416, -1.416846290813111, 0};
Point(p15 + 25) = {12.33391781484418, -1.484581185155824, 0};
Point(p15 + 26) = {12.40165270918689, -1.542432250145843, 0};
Point(p15 + 27) = {12.47760357498435, -1.588975000566438, 0};
Point(p15 + 28) = {12.55990024985416, -1.623063399435721, 0};
Point(p15 + 29) = {12.64651631653401, -1.64385807724062, 0};
Point(p15 + 30) = {12.735319, -1.650847, 0};
Point(p15 + 31) = {12.82412168346599, -1.64385807724062, 0};
Point(p15 + 32) = {12.91073775014584, -1.623063399435721, 0};
Point(p15 + 33) = {12.99303442501565, -1.588975000566438, 0};
Point(p15 + 34) = {13.06898529081311, -1.542432250145843, 0};
Point(p15 + 35) = {13.13672018515582, -1.484581185155824, 0};
Point(p15 + 36) = {13.19457125014584, -1.416846290813111, 0};
Point(p15 + 37) = {13.24111400056644, -1.34089542501565, 0};
Point(p15 + 38) = {13.27520239943572, -1.258598750145843, 0};
Point(p15 + 39) = {13.29599707724062, -1.171982683465993, 0};
Spline(15) = {11, p15 + 1, p15 + 2, p15 + 3, p15 + 4, p15 + 5, p15 + 6, p15 + 7, p15 + 8, p15 + 9, p15 + 10, p15 + 11, p15 + 12, p15 + 13, p15 + 14, p15 + 15, p15 + 16, p15 + 17, p15 + 18, p15 + 19, p15 + 20, p15 + 21, p15 + 22, p15 + 23, p15 + 24, p15 + 25, p15 + 26, p15 + 27, p15 + 28, p15 + 29, p15 + 30, p15 + 31, p15 + 32, p15 + 33, p15 + 34, p15 + 35, p15 + 36, p15 + 37, p15 + 38, p15 + 39, 11};
p16 = newp;
Point(p16 + 1) = {15.54855391013906, 0.5756124062212413, 0};
Point(p16 + 2) = {15.51951099098384, 0.6965848707012726, 0};
Point(p16 + 3) = {15.47190137559184, 0.8115246498800041, 0};
Point(p16 + 4) = {15.40689737070127, 0.9176015449307984, 0};
Point(p16 + 5) = {15.32609959064848, 1.012203590648474, 0};
Point(p16 + 6) = {15.2314975449308, 1.093001370701273, 0};
Point(p16 + 7) = {15.12542064988, 1.158005375591836, 0};
Point(p16 + 8) = {15.01048087070127, 1.205614990983835, 0};
Point(p16 + 9) = {14.88950840622124, 1.234657910139065, 0};
Point(p16 + 10) = {14.765482, 1.244419, 0};
Point(p16 + 11) = {14.64145559377876, 1.234657910139065, 0};
Point(p16 + 12) = {14.52048312929873, 1.205614990983836, 0};
Point(p16 + 13) = {14.40554335012, 1.158005375591836, 0};
Point(p16 + 14) = {14.2994664550692, 1.093001370701273, 0};
Point(p16 + 15) = {14.20486440935153, 1.012203590648474, 0};
Point(p16 + 16) = {14.12406662929873, 0.9176015449307984, 0};
Point(p16 + 17) = {14.05906262440816, 0.8115246498800042, 0};
Point(p16 + 18) = {14.01145300901617, 0.6965848707012727, 0};
Point(p16 + 19) = {13.98241008986094, 0.5756124062212414, 0};
Point(p16 + 20) = {13.972649, 0.4515860000000001, 0};
Point(p16 + 21) = {13.98241008986094, 0.3275595937787588, 0};
Point(p16 + 22) = {14.01145300901617, 0.2065871292987271, 0};
Point(p16 + 23) = {14.05906262440816, 0.09164735011999631, 0};
Point(p16 + 24) = {14.12406662929873, -0.01442954493079829, 0};
Point(p16 + 25) = {14.20486440935153, -0.109031590648474, 0};
Point(p16 + 26) = {14.2994664550692, -0.1898293707012726, 0};
Point(p16 + 27) = {14.40554335012, -0.2548333755918362, 0};
Point(p16 + 28) = {14.52048312929873, -0.3024429909838355, 0};
Point(p16 + 29) = {14.64145559377876, -0.3314859101390648, 0};
Point(p16 + 30) = {14.765482, -0.341247, 0};
Point(p16 + 31) = {14.88950840622124, -0.3314859101390649, 0};
Point(p16 + 32) = {15.01048087070127, -0.3024429909838356, 0};
Point(p16 + 33) = {15.12542064988, -0.2548333755918363, 0};
Point(p16 + 34) = {15.2314975449308, -0.1898293707012729, 0};
Point(p16 + 35) = {15.32609959064848, -0.1090315906484742, 0};
Point(p16 + 36) = {15.40689737070127, -0.01442954493079857, 0};
Point(p16 + 37) = {15.47190137559184, 0.09164735011999575, 0};
Point(p16 + 38) = {15.51951099098384, 0.2065871292987271, 0};
Point(p16 + 39) = {15.54855391013906, 0.3275595937787584, 0};
Spline(16) = {12, p16 + 1, p16 + 2, p16 + 3, p16 + 4, p16 + 5, p16 + 6, p16 + 7, p16 + 8, p16 + 9, p16 + 10, p16 + 11, p16 + 12, p16 + 13, p16 + 14, p16 + 15, p16 + 16, p16 + 17, p16 + 18, p16 + 19, p16 + 20, p16 + 21, p16 + 22, p16 + 23, p16 + 24, p16 + 25, p16 + 26, p16 + 27, p16 + 28, p16 + 29, p16 + 30, p16 + 31, p16 + 32, p16 + 33, p16 + 34, p16 + 35, p16 + 36, p16 + 37, p16 + 38, p16 + 39, 12};
Line(17) = {11, 8};
Line(18) = {12, 9};
Curve Loop(1) = {-1, 4, 3, -2};
Plane Surface(1) = {1};
Curve Loop(2) = {-5, 1, 7, -6};
Plane Surface(2) = {2};
Curve Loop(3) = {-2, 7, 9, -8, -10, -11};
Plane Surface(3) = {3};
Curve Loop(4) = {-12, 3, 8, -13};
Plane Surface(4) = {4};
Curve Loop(5) = {-4, 5, 14, -12, -15, -16};
Plane Surface(5) = {5};
Curve Loop(6) = {-6, 14, 13, -9};
Plane Surface(6) = {6};
Curve Loop(7) = {-10, -17, 15, 17};
Surface(7) = {7};
Curve Loop(8) = {-11, -18, 16, 18};
Surface(8) = {8};
Surface Loop(1) = {1, 2, 3, 4, 5, 6, 7, 8};
Volume(1) = {1};
Physical Surface("INFLOW") = {1};
Physical Surface("OUTFLOW") = {6};
Physical Surface("OBSTACLE") = {7, 8};
Physical Surface("WALL_Y") = {2, 4};
Physical Surface("WALL_Z") = {3, 5};
Physical Volume("FLUID") = {1};
