cl__1 = 1.379363;
cl__2 = 3.973551;
cl__3 = 0.627918;
cl__4 = 0.07846499999999999;
cl__5 = 0.09442200000000001;
Point(1) = {0.317758, -4.280481, 1, cl__1};
Point(2) = {0.317758, -4.280481, 0, cl__1};
Point(3) = {0.317758, 5.490636, 1, cl__2};
Point(4) = {0.317758, 5.490636, 0, cl__2};
Point(5) = {39.434022, -4.280481, 0, cl__3};
Point(6) = {39.434022, -4.280481, 1, cl__3};
Point(7) = {39.434022, 5.490636, 1, cl__2};
Point(8) = {15.360646, -1.242582, 1, cl__4};
Point(9) = {4.398586, 2.226382, 1, cl__5};
Point(10) = {39.434022, 5.490636, 0, cl__2};
Point(11) = {15.360646, -1.242582, 0, cl__4};
Point(12) = {4.398586, 2.226382, 0, cl__5};
Line(1) = {2, 1};
Line(2) = {1, 3};
Line(3) = {4, 3};
Line(4) = {2, 4};
Line(5) = {2, 5};
Line(6) = {5, 6};
Line(7) = {1, 6};
Line(8) = {3, 7};
Line(9) = {6, 7};
p10 = newp;
Point(p10 + 1) = {15.35098565644797, -1.119835697006183, 1};
Point(p10 + 2) = {15.32224249551099, -1.000111815363698, 1};
Point(p10 + 3) = {15.2751242692044, -0.8863583543793647, 1};
Point(p10 + 4) = {15.2107911846363, -0.781376301788711, 1};
Point(p10 + 5) = {15.13082733585802, -0.6877506641419756, 1};
Point(p10 + 6) = {15.03720169821129, -0.6077868153636976, 1};
Point(p10 + 7) = {14.93221964562064, -0.5434537307955973, 1};
Point(p10 + 8) = {14.8184661846363, -0.4963355044890079, 1};
Point(p10 + 9) = {14.69874230299382, -0.4675923435520253, 1};
Point(p10 + 10) = {14.575996, -0.4579320000000001, 1};
Point(p10 + 11) = {14.45324969700618, -0.4675923435520254, 1};
Point(p10 + 12) = {14.3335258153637, -0.4963355044890078, 1};
Point(p10 + 13) = {14.21977235437936, -0.5434537307955972, 1};
Point(p10 + 14) = {14.11479030178871, -0.6077868153636976, 1};
Point(p10 + 15) = {14.02116466414198, -0.6877506641419755, 1};
Point(p10 + 16) = {13.9412008153637, -0.781376301788711, 1};
Point(p10 + 17) = {13.8768677307956, -0.8863583543793647, 1};
Point(p10 + 18) = {13.82974950448901, -1.000111815363697, 1};
Point(p10 + 19) = {13.80100634355203, -1.119835697006183, 1};
Point(p10 + 20) = {13.791346, -1.242582, 1};
Point(p10 + 21) = {13.80100634355203, -1.365328302993817, 1};
Point(p10 + 22) = {13.82974950448901, -1.485052184636303, 1};
Point(p10 + 23) = {13.8768677307956, -1.598805645620635, 1};
Point(p10 + 24) = {13.9412008153637, -1.703787698211289, 1};
Point(p10 + 25) = {14.02116466414198, -1.797413335858025, 1};
Point(p10 + 26) = {14.11479030178871, -1.877377184636302, 1};
Point(p10 + 27) = {14.21977235437936, -1.941710269204403, 1};
Point(p10 + 28) = {14.3335258153637, -1.988828495510992, 1};
Point(p10 + 29) = {14.45324969700618, -2.017571656447975, 1};
Point(p10 + 30) = {14.575996, -2.027232, 1};
Point(p10 + 31) = {14.69874230299382, -2.017571656447975, 1};
Point(p10 + 32) = {14.8184661846363, -1.988828495510993, 1};
Point(p10 + 33) = {14.93221964562064, -1.941710269204403, 1};
Point(p10 + 34) = {15.03720169821129, -1.877377184636303, 1};
Point(p10 + 35) = {15.13082733585802, -1.797413335858025, 1};
Point(p10 + 36) = {15.2107911846363, -1.703787698211289, 1};
Point(p10 + 37) = {15.2751242692044, -1.598805645620636, 1};
Point(p10 + 38) = {15.32224249551099, -1.485052184636303, 1};
Point(p10 + 39) = {15.35098565644797, -1.365328302993817, 1};
Spline(10) = {8, p10 + 1, p10 + 2, p10 + 3, p10 + 4, p10 + 5, p10 + 6, p10 + 7, p10 + 8, p10 + 9, p10 + 10, p10 + 11, p10 + 12, p10 + 13, p10 + 14, p10 + 15, p10 + 16, p10 + 17, p10 + 18, p10 + 19, p10 + 20, p10 + 21, p10 + 22, p10 + 23, p10 + 24, p10 + 25, p10 + 26, p10 + 27, p10 + 28, p10 + 29, p10 + 30, p10 + 31, p10 + 32, p10 + 33, p10 + 34, p10 + 35, p10 + 36, p10 + 37, p10 + 38, p10 + 39, 8};
p11 = newp;
Point(p11 + 1) = {4.386961084956741, 2.374090550580287, 1};
Point(p11 + 2) = {4.35237258381621, 2.518162026428713, 1};
Point(p11 + 3) = {4.295672180269141, 2.655048909664075, 1};
Point(p11 + 4) = {4.218256026428713, 2.781380590919599, 1};
Point(p11 + 5) = {4.122030364931962, 2.894046364931962, 1};
Point(p11 + 6) = {4.009364590919599, 2.990272026428713, 1};
Point(p11 + 7) = {3.883032909664075, 3.06768818026914, 1};
Point(p11 + 8) = {3.746146026428713, 3.12438858381621, 1};
Point(p11 + 9) = {3.602074550580287, 3.158977084956741, 1};
Point(p11 + 10) = {3.454366, 3.170602, 1};
Point(p11 + 11) = {3.306657449419713, 3.158977084956741, 1};
Point(p11 + 12) = {3.162585973571287, 3.12438858381621, 1};
Point(p11 + 13) = {3.025699090335925, 3.067688180269141, 1};
Point(p11 + 14) = {2.899367409080401, 2.990272026428713, 1};
Point(p11 + 15) = {2.786701635068038, 2.894046364931962, 1};
Point(p11 + 16) = {2.690475973571287, 2.781380590919599, 1};
Point(p11 + 17) = {2.613059819730859, 2.655048909664075, 1};
Point(p11 + 18) = {2.55635941618379, 2.518162026428713, 1};
Point(p11 + 19) = {2.521770915043259, 2.374090550580287, 1};
Point(p11 + 20) = {2.510146, 2.226382, 1};
Point(p11 + 21) = {2.521770915043259, 2.078673449419713, 1};
Point(p11 + 22) = {2.55635941618379, 1.934601973571287, 1};
Point(p11 + 23) = {2.613059819730859, 1.797715090335926, 1};
Point(p11 + 24) = {2.690475973571287, 1.671383409080401, 1};
Point(p11 + 25) = {2.786701635068038, 1.558717635068038, 1};
Point(p11 + 26) = {2.899367409080401, 1.462491973571287, 1};
Point(p11 + 27) = {3.025699090335925, 1.385075819730859, 1};
Point(p11 + 28) = {3.162585973571287, 1.32837541618379, 1};
Point(p11 + 29) = {3.306657449419713, 1.293786915043259, 1};
Point(p11 + 30) = {3.454366, 1.282162, 1};
Point(p11 + 31) = {3.602074550580286, 1.293786915043259, 1};
Point(p11 + 32) = {3.746146026428713, 1.32837541618379, 1};
Point(p11 + 33) = {3.883032909664075, 1.385075819730859, 1};
Point(p11 + 34) = {4.009364590919598, 1.462491973571287, 1};
Point(p11 + 35) = {4.122030364931962, 1.558717635068038, 1};
Point(p11 + 36) = {4.218256026428713, 1.671383409080401, 1};
Point(p11 + 37) = {4.295672180269141, 1.797715090335925, 1};
Point(p11 + 38) = {4.35237258381621, 1.934601973571287, 1};
Point(p11 + 39) = {4.386961084956741, 2.078673449419713, 1};
Spline(11) = {9, p11 + 1, p11 + 2, p11 + 3, p11 + 4, p11 + 5, p11 + 6, p11 + 7, p11 + 8, p11 + 9, p11 + 10, p11 + 11, p11 + 12, p11 + 13, p11 + 14, p11 + 15, p11 + 16, p11 + 17, p11 + 18, p11 + 19, p11 + 20, p11 + 21, p11 + 22, p11 + 23, p11 + 24, p11 + 25, p11 + 26, p11 + 27, p11 + 28, p11 + 29, p11 + 30, p11 + 31, p11 + 32, p11 + 33, p11 + 34, p11 + 35, p11 + 36, p11 + 37, p11 + 38, p11 + 39, 9};
Line(12) = {4, 10};
Line(13) = {10, 7};
Line(14) = {5, 10};
p15 = newp;
Point(p15 + 1) = {15.35098565644797, -1.119835697006183, 0};
Point(p15 + 2) = {15.32224249551099, -1.000111815363698, 0};
Point(p15 + 3) = {15.2751242692044, -0.8863583543793647, 0};
Point(p15 + 4) = {15.2107911846363, -0.781376301788711, 0};
Point(p15 + 5) = {15.13082733585802, -0.6877506641419756, 0};
Point(p15 + 6) = {15.03720169821129, -0.6077868153636976, 0};
Point(p15 + 7) = {14.93221964562064, -0.5434537307955973, 0};
Point(p15 + 8) = {14.8184661846363, -0.4963355044890079, 0};
Point(p15 + 9) = {14.69874230299382, -0.4675923435520253, 0};
Point(p15 + 10) = {14.575996, -0.4579320000000001, 0};
Point(p15 + 11) = {14.45324969700618, -0.4675923435520254, 0};
Point(p15 + 12) = {14.3335258153637, -0.4963355044890078, 0};
Point(p15 + 13) = {14.21977235437936, -0.5434537307955972, 0};
Point(p15 + 14) = {14.11479030178871, -0.6077868153636976, 0};
Point(p15 + 15) = {14.02116466414198, -0.6877506641419755, 0};
Point(p15 + 16) = {13.9412008153637, -0.781376301788711, 0};
Point(p15 + 17) = {13.8768677307956, -0.8863583543793647, 0};
Point(p15 + 18) = {13.82974950448901, -1.000111815363697, 0};
Point(p15 + 19) = {13.80100634355203, -1.119835697006183, 0};
Point(p15 + 20) = {13.791346, -1.242582, 0};
Point(p15 + 21) = {13.80100634355203, -1.365328302993817, 0};
Point(p15 + 22) = {13.82974950448901, -1.485052184636303, 0};
Point(p15 + 23) = {13.8768677307956, -1.598805645620635, 0};
Point(p15 + 24) = {13.9412008153637, -1.703787698211289, 0};
Point(p15 + 25) = {14.02116466414198, -1.797413335858025, 0};
Point(p15 + 26) = {14.11479030178871, -1.877377184636302, 0};
Point(p15 + 27) = {14.21977235437936, -1.941710269204403, 0};
Point(p15 + 28) = {14.3335258153637, -1.988828495510992, 0};
Point(p15 + 29) = {14.45324969700618, -2.017571656447975, 0};
Point(p15 + 30) = {14.575996, -2.027232, 0};
Point(p15 + 31) = {14.69874230299382, -2.017571656447975, 0};
Point(p15 + 32) = {14.8184661846363, -1.988828495510993, 0};
Point(p15 + 33) = {14.93221964562064, -1.941710269204403, 0};
Point(p15 + 34) = {15.03720169821129, -1.877377184636303, 0};
Point(p15 + 35) = {15.13082733585802, -1.797413335858025, 0};
Point(p15 + 36) = {15.2107911846363, -1.703787698211289, 0};
Point(p15 + 37) = {15.2751242692044, -1.598805645620636, 0};
Point(p15 + 38) = {15.32224249551099, -1.485052184636303, 0};
Point(p15 + 39) = {15.35098565644797, -1.365328302993817, 0};
Spline(15) = {11, p15 + 1, p15 + 2, p15 + 3, p15 + 4, p15 + 5, p15 + 6, p15 + 7, p15 + 8, p15 + 9, p15 + 10, p15 + 11, p15 + 12, p15 + 13, p15 + 14, p15 + 15, p15 + 16, p15 + 17, p15 + 18, p15 + 19, p15 + 20, p15 + 21, p15 + 22, p15 + 23, p15 + 24, p15 + 25, p15 + 26, p15 + 27, p15 + 28, p15 + 29, p15 + 30, p15 + 31, p15 + 32, p15 + 33, p15 + 34, p15 + 35, p15 + 36, p15 + 37, p15 + 38, p15 + 39, 11};
p16 = newp;
Point(p16 + 1) = {4.386961084956741, 2.374090550580287, 0};
Point(p16 + 2) = {4.35237258381621, 2.518162026428713, 0};
Point(p16 + 3) = {4.295672180269141, 2.655048909664075, 0};
Point(p16 + 4) = {4.218256026428713, 2.781380590919599, 0};
Point(p16 + 5) = {4.122030364931962, 2.894046364931962, 0};
Point(p16 + 6) = {4.009364590919599, 2.990272026428713, 0};
Point(p16 + 7) = {3.883032909664075, 3.06768818026914, 0};
Point(p16 + 8) = {3.746146026428713, 3.12438858381621, 0};
Point(p16 + 9) = {3.602074550580287, 3.158977084956741, 0};
Point(p16 + 10) = {3.454366, 3.170602, 0};
Point(p16 + 11) = {3.306657449419713, 3.158977084956741, 0};
Point(p16 + 12) = {3.162585973571287, 3.12438858381621, 0};
Point(p16 + 13) = {3.025699090335925, 3.067688180269141, 0};
Point(p16 + 14) = {2.899367409080401, 2.990272026428713, 0};
Point(p16 + 15) = {2.786701635068038, 2.894046364931962, 0};
Point(p16 + 16) = {2.690475973571287, 2.781380590919599, 0};
Point(p16 + 17) = {2.613059819730859, 2.655048909664075, 0};
Point(p16 + 18) = {2.55635941618379, 2.518162026428713, 0};
Point(p16 + 19) = {2.521770915043259, 2.374090550580287, 0};
Point(p16 + 20) = {2.510146, 2.226382, 0};
Point(p16 + 21) = {2.521770915043259, 2.078673449419713, 0};
Point(p16 + 22) = {2.55635941618379, 1.934601973571287, 0};
Point(p16 + 23) = {2.613059819730859, 1.797715090335926, 0};
Point(p16 + 24) = {2.690475973571287, 1.671383409080401, 0};
Point(p16 + 25) = {2.786701635068038, 1.558717635068038, 0};
Point(p16 + 26) = {2.899367409080401, 1.462491973571287, 0};
Point(p16 + 27) = {3.025699090335925, 1.385075819730859, 0};
Point(p16 + 28) = {3.162585973571287, 1.32837541618379, 0};
Point(p16 + 29) = {3.306657449419713, 1.293786915043259, 0};
Point(p16 + 30) = {3.454366, 1.282162, 0};
Point(p16 + 31) = {3.602074550580286, 1.293786915043259, 0};
Point(p16 + 32) = {3.746146026428713, 1.32837541618379, 0};
Point(p16 + 33) = {3.883032909664075, 1.385075819730859, 0};
Point(p16 + 34) = {4.009364590919598, 1.462491973571287, 0};
Point(p16 + 35) = {4.122030364931962, 1.558717635068038, 0};
Point(p16 + 36) = {4.218256026428713, 1.671383409080401, 0};
Point(p16 + 37) = {4.295672180269141, 1.797715090335925, 0};
Point(p16 + 38) = {4.35237258381621, 1.934601973571287, 0};
Point(p16 + 39) = {4.386961084956741, 2.078673449419713, 0};
Spline(16) = {12, p16 + 1, p16 + 2, p16 + 3, p16 + 4, p16 + 5, p16 + 6, p16 + 7, p16 + 8, p16 + 9, p16 + 10, p16 + 11, p16 + 12, p16 + 13, p16 + 14, p16 + 15, p16 + 16, p16 + 17, p16 + 18, p16 + 19, p16 + 20, p16 + 21, p16 + 22, p16 + 23, p16 + 24, p16 + 25, p16 + 26, p16 + 27, p16 + 28, p16 + 29, p16 + 30, p16 + 31, p16 + 32, p16 + 33, p16 + 34, p16 + 35, p16 + 36, p16 + 37, p16 + 38, p16 + 39, 12};
Line(17) = {11, 8};
Line(18) = {12, 9};
Curve Loop(1) = {-1, 4, 3, -2};
Plane Surface(1) = {1};
Curve Loop(2) = {-5, 1, 7, -6};
Plane Surface(2) = {2};
Curve Loop(3) = {-2, 7, 9, -8, -10, -11};
Plane Surface(3) = {3};
Curve Loop(4) = {-12, 3, 8, -13};
Plane Surface(4) = {4};
Curve Loop(5) = {-4, 5, 14, -12, -15, -16};
Plane Surface(5) = {5};
Curve Loop(6) = {-6, 14, 13, -9};
Plane Surface(6) = {6};
Curve Loop(7) = {-10, -17, 15, 17};
Surface(7) = {7};
Curve Loop(8) = {-11, -18, 16, 18};
Surface(8) = {8};
Surface Loop(1) = {1, 2, 3, 4, 5, 6, 7, 8};
Volume(1) = {1};
Physical Surface("INFLOW") = {1};
Physical Surface("OUTFLOW") = {6};
Physical Surface("OBSTACLE") = {7, 8};
Physical Surface("WALL_Y") = {2, 4};
Physical Surface("WALL_Z") = {3, 5};
Physical Volume("FLUID") = {1};
