cl__1 = 1;
cl__2 = 0.148238;
cl__3 = 0.058873;
Point(1) = {0.6884980000000001, -4.808637, 1, cl__1};
Point(2) = {0.6884980000000001, -4.808637, 0, cl__1};
Point(3) = {0.6884980000000001, 5.063332999999999, 1, cl__1};
Point(4) = {0.6884980000000001, 5.063332999999999, 0, cl__1};
Point(5) = {37.28830900000001, -4.808637, 0, cl__1};
Point(6) = {37.28830900000001, -4.808637, 1, cl__1};
Point(7) = {37.28830900000001, 5.063332999999999, 1, cl__1};
Point(8) = {29.274973, -2.586496, 1, cl__2};
Point(9) = {6.848964, 3.803869999999999, 1, cl__3};
Point(10) = {37.28830900000001, 5.063332999999999, 0, cl__1};
Point(11) = {29.274973, -2.586496, 0, cl__2};
Point(12) = {6.848964, 3.803869999999999, 0, cl__3};
Line(1) = {2, 1};
Line(2) = {1, 3};
Line(3) = {4, 3};
Line(4) = {2, 4};
Line(5) = {2, 5};
Line(6) = {5, 6};
Line(7) = {1, 6};
Line(8) = {3, 7};
Line(9) = {6, 7};
p10 = newp;
Point(p10 + 1) = {29.25672244233142, -2.354600677713663, 1};
Point(p10 + 2) = {29.20242015862561, -2.128415387878465, 1};
Point(p10 + 3) = {29.11340325132635, -1.913509562996091, 1};
Point(p10 + 4) = {28.99186361212153, -1.715174897706683, 1};
Point(p10 + 5) = {28.84079395029531, -1.538295049704686, 1};
Point(p10 + 6) = {28.66391410229332, -1.387225387878465, 1};
Point(p10 + 7) = {28.46557943700391, -1.265685748673647, 1};
Point(p10 + 8) = {28.25067361212153, -1.17666884137439, 1};
Point(p10 + 9) = {28.02448832228634, -1.12236655766858, 1};
Point(p10 + 10) = {27.792593, -1.104116, 1};
Point(p10 + 11) = {27.56069767771366, -1.12236655766858, 1};
Point(p10 + 12) = {27.33451238787847, -1.17666884137439, 1};
Point(p10 + 13) = {27.11960656299609, -1.265685748673647, 1};
Point(p10 + 14) = {26.92127189770668, -1.387225387878465, 1};
Point(p10 + 15) = {26.74439204970469, -1.538295049704685, 1};
Point(p10 + 16) = {26.59332238787847, -1.715174897706683, 1};
Point(p10 + 17) = {26.47178274867365, -1.913509562996091, 1};
Point(p10 + 18) = {26.38276584137439, -2.128415387878465, 1};
Point(p10 + 19) = {26.32846355766858, -2.354600677713662, 1};
Point(p10 + 20) = {26.310213, -2.586496, 1};
Point(p10 + 21) = {26.32846355766858, -2.818391322286337, 1};
Point(p10 + 22) = {26.38276584137439, -3.044576612121535, 1};
Point(p10 + 23) = {26.47178274867365, -3.259482437003908, 1};
Point(p10 + 24) = {26.59332238787847, -3.457817102293316, 1};
Point(p10 + 25) = {26.74439204970469, -3.634696950295314, 1};
Point(p10 + 26) = {26.92127189770668, -3.785766612121535, 1};
Point(p10 + 27) = {27.11960656299609, -3.907306251326353, 1};
Point(p10 + 28) = {27.33451238787847, -3.99632315862561, 1};
Point(p10 + 29) = {27.56069767771366, -4.05062544233142, 1};
Point(p10 + 30) = {27.792593, -4.068875999999999, 1};
Point(p10 + 31) = {28.02448832228634, -4.050625442331421, 1};
Point(p10 + 32) = {28.25067361212153, -3.99632315862561, 1};
Point(p10 + 33) = {28.46557943700391, -3.907306251326353, 1};
Point(p10 + 34) = {28.66391410229332, -3.785766612121535, 1};
Point(p10 + 35) = {28.84079395029531, -3.634696950295314, 1};
Point(p10 + 36) = {28.99186361212153, -3.457817102293316, 1};
Point(p10 + 37) = {29.11340325132635, -3.25948243700391, 1};
Point(p10 + 38) = {29.20242015862561, -3.044576612121535, 1};
Point(p10 + 39) = {29.25672244233142, -2.818391322286338, 1};
Spline(10) = {8, p10 + 1, p10 + 2, p10 + 3, p10 + 4, p10 + 5, p10 + 6, p10 + 7, p10 + 8, p10 + 9, p10 + 10, p10 + 11, p10 + 12, p10 + 13, p10 + 14, p10 + 15, p10 + 16, p10 + 17, p10 + 18, p10 + 19, p10 + 20, p10 + 21, p10 + 22, p10 + 23, p10 + 24, p10 + 25, p10 + 26, p10 + 27, p10 + 28, p10 + 29, p10 + 30, p10 + 31, p10 + 32, p10 + 33, p10 + 34, p10 + 35, p10 + 36, p10 + 37, p10 + 38, p10 + 39, 8};
p11 = newp;
Point(p11 + 1) = {6.841715806005213, 3.895967036865275, 1};
Point(p11 + 2) = {6.820149698612381, 3.985796339030385, 1};
Point(p11 + 3) = {6.784796706959321, 4.071146010949664, 1};
Point(p11 + 4) = {6.736527339030386, 4.149914460441138, 1};
Point(p11 + 5) = {6.676530146860832, 4.220162146860831, 1};
Point(p11 + 6) = {6.606282460441139, 4.280159339030385, 1};
Point(p11 + 7) = {6.527514010949664, 4.328428706959321, 1};
Point(p11 + 8) = {6.442164339030385, 4.363781698612381, 1};
Point(p11 + 9) = {6.352335036865275, 4.385347806005213, 1};
Point(p11 + 10) = {6.260238, 4.392596, 1};
Point(p11 + 11) = {6.168140963134725, 4.385347806005213, 1};
Point(p11 + 12) = {6.078311660969615, 4.363781698612381, 1};
Point(p11 + 13) = {5.992961989050336, 4.328428706959321, 1};
Point(p11 + 14) = {5.914193539558862, 4.280159339030385, 1};
Point(p11 + 15) = {5.843945853139169, 4.220162146860831, 1};
Point(p11 + 16) = {5.783948660969615, 4.149914460441138, 1};
Point(p11 + 17) = {5.735679293040679, 4.071146010949664, 1};
Point(p11 + 18) = {5.700326301387619, 3.985796339030385, 1};
Point(p11 + 19) = {5.678760193994787, 3.895967036865275, 1};
Point(p11 + 20) = {5.671512, 3.80387, 1};
Point(p11 + 21) = {5.678760193994787, 3.711772963134725, 1};
Point(p11 + 22) = {5.700326301387619, 3.621943660969615, 1};
Point(p11 + 23) = {5.735679293040679, 3.536593989050336, 1};
Point(p11 + 24) = {5.783948660969615, 3.457825539558861, 1};
Point(p11 + 25) = {5.843945853139169, 3.387577853139168, 1};
Point(p11 + 26) = {5.914193539558862, 3.327580660969615, 1};
Point(p11 + 27) = {5.992961989050336, 3.279311293040679, 1};
Point(p11 + 28) = {6.078311660969614, 3.243958301387619, 1};
Point(p11 + 29) = {6.168140963134725, 3.222392193994787, 1};
Point(p11 + 30) = {6.260238, 3.215144, 1};
Point(p11 + 31) = {6.352335036865275, 3.222392193994787, 1};
Point(p11 + 32) = {6.442164339030385, 3.243958301387619, 1};
Point(p11 + 33) = {6.527514010949664, 3.279311293040679, 1};
Point(p11 + 34) = {6.606282460441139, 3.327580660969614, 1};
Point(p11 + 35) = {6.676530146860832, 3.387577853139168, 1};
Point(p11 + 36) = {6.736527339030386, 3.457825539558861, 1};
Point(p11 + 37) = {6.784796706959321, 3.536593989050335, 1};
Point(p11 + 38) = {6.820149698612381, 3.621943660969615, 1};
Point(p11 + 39) = {6.841715806005213, 3.711772963134725, 1};
Spline(11) = {9, p11 + 1, p11 + 2, p11 + 3, p11 + 4, p11 + 5, p11 + 6, p11 + 7, p11 + 8, p11 + 9, p11 + 10, p11 + 11, p11 + 12, p11 + 13, p11 + 14, p11 + 15, p11 + 16, p11 + 17, p11 + 18, p11 + 19, p11 + 20, p11 + 21, p11 + 22, p11 + 23, p11 + 24, p11 + 25, p11 + 26, p11 + 27, p11 + 28, p11 + 29, p11 + 30, p11 + 31, p11 + 32, p11 + 33, p11 + 34, p11 + 35, p11 + 36, p11 + 37, p11 + 38, p11 + 39, 9};
Line(12) = {4, 10};
Line(13) = {10, 7};
Line(14) = {5, 10};
p15 = newp;
Point(p15 + 1) = {29.25672244233142, -2.354600677713663, 0};
Point(p15 + 2) = {29.20242015862561, -2.128415387878465, 0};
Point(p15 + 3) = {29.11340325132635, -1.913509562996091, 0};
Point(p15 + 4) = {28.99186361212153, -1.715174897706683, 0};
Point(p15 + 5) = {28.84079395029531, -1.538295049704686, 0};
Point(p15 + 6) = {28.66391410229332, -1.387225387878465, 0};
Point(p15 + 7) = {28.46557943700391, -1.265685748673647, 0};
Point(p15 + 8) = {28.25067361212153, -1.17666884137439, 0};
Point(p15 + 9) = {28.02448832228634, -1.12236655766858, 0};
Point(p15 + 10) = {27.792593, -1.104116, 0};
Point(p15 + 11) = {27.56069767771366, -1.12236655766858, 0};
Point(p15 + 12) = {27.33451238787847, -1.17666884137439, 0};
Point(p15 + 13) = {27.11960656299609, -1.265685748673647, 0};
Point(p15 + 14) = {26.92127189770668, -1.387225387878465, 0};
Point(p15 + 15) = {26.74439204970469, -1.538295049704685, 0};
Point(p15 + 16) = {26.59332238787847, -1.715174897706683, 0};
Point(p15 + 17) = {26.47178274867365, -1.913509562996091, 0};
Point(p15 + 18) = {26.38276584137439, -2.128415387878465, 0};
Point(p15 + 19) = {26.32846355766858, -2.354600677713662, 0};
Point(p15 + 20) = {26.310213, -2.586496, 0};
Point(p15 + 21) = {26.32846355766858, -2.818391322286337, 0};
Point(p15 + 22) = {26.38276584137439, -3.044576612121535, 0};
Point(p15 + 23) = {26.47178274867365, -3.259482437003908, 0};
Point(p15 + 24) = {26.59332238787847, -3.457817102293316, 0};
Point(p15 + 25) = {26.74439204970469, -3.634696950295314, 0};
Point(p15 + 26) = {26.92127189770668, -3.785766612121535, 0};
Point(p15 + 27) = {27.11960656299609, -3.907306251326353, 0};
Point(p15 + 28) = {27.33451238787847, -3.99632315862561, 0};
Point(p15 + 29) = {27.56069767771366, -4.05062544233142, 0};
Point(p15 + 30) = {27.792593, -4.068875999999999, 0};
Point(p15 + 31) = {28.02448832228634, -4.050625442331421, 0};
Point(p15 + 32) = {28.25067361212153, -3.99632315862561, 0};
Point(p15 + 33) = {28.46557943700391, -3.907306251326353, 0};
Point(p15 + 34) = {28.66391410229332, -3.785766612121535, 0};
Point(p15 + 35) = {28.84079395029531, -3.634696950295314, 0};
Point(p15 + 36) = {28.99186361212153, -3.457817102293316, 0};
Point(p15 + 37) = {29.11340325132635, -3.25948243700391, 0};
Point(p15 + 38) = {29.20242015862561, -3.044576612121535, 0};
Point(p15 + 39) = {29.25672244233142, -2.818391322286338, 0};
Spline(15) = {11, p15 + 1, p15 + 2, p15 + 3, p15 + 4, p15 + 5, p15 + 6, p15 + 7, p15 + 8, p15 + 9, p15 + 10, p15 + 11, p15 + 12, p15 + 13, p15 + 14, p15 + 15, p15 + 16, p15 + 17, p15 + 18, p15 + 19, p15 + 20, p15 + 21, p15 + 22, p15 + 23, p15 + 24, p15 + 25, p15 + 26, p15 + 27, p15 + 28, p15 + 29, p15 + 30, p15 + 31, p15 + 32, p15 + 33, p15 + 34, p15 + 35, p15 + 36, p15 + 37, p15 + 38, p15 + 39, 11};
p16 = newp;
Point(p16 + 1) = {6.841715806005213, 3.895967036865275, 0};
Point(p16 + 2) = {6.820149698612381, 3.985796339030385, 0};
Point(p16 + 3) = {6.784796706959321, 4.071146010949664, 0};
Point(p16 + 4) = {6.736527339030386, 4.149914460441138, 0};
Point(p16 + 5) = {6.676530146860832, 4.220162146860831, 0};
Point(p16 + 6) = {6.606282460441139, 4.280159339030385, 0};
Point(p16 + 7) = {6.527514010949664, 4.328428706959321, 0};
Point(p16 + 8) = {6.442164339030385, 4.363781698612381, 0};
Point(p16 + 9) = {6.352335036865275, 4.385347806005213, 0};
Point(p16 + 10) = {6.260238, 4.392596, 0};
Point(p16 + 11) = {6.168140963134725, 4.385347806005213, 0};
Point(p16 + 12) = {6.078311660969615, 4.363781698612381, 0};
Point(p16 + 13) = {5.992961989050336, 4.328428706959321, 0};
Point(p16 + 14) = {5.914193539558862, 4.280159339030385, 0};
Point(p16 + 15) = {5.843945853139169, 4.220162146860831, 0};
Point(p16 + 16) = {5.783948660969615, 4.149914460441138, 0};
Point(p16 + 17) = {5.735679293040679, 4.071146010949664, 0};
Point(p16 + 18) = {5.700326301387619, 3.985796339030385, 0};
Point(p16 + 19) = {5.678760193994787, 3.895967036865275, 0};
Point(p16 + 20) = {5.671512, 3.80387, 0};
Point(p16 + 21) = {5.678760193994787, 3.711772963134725, 0};
Point(p16 + 22) = {5.700326301387619, 3.621943660969615, 0};
Point(p16 + 23) = {5.735679293040679, 3.536593989050336, 0};
Point(p16 + 24) = {5.783948660969615, 3.457825539558861, 0};
Point(p16 + 25) = {5.843945853139169, 3.387577853139168, 0};
Point(p16 + 26) = {5.914193539558862, 3.327580660969615, 0};
Point(p16 + 27) = {5.992961989050336, 3.279311293040679, 0};
Point(p16 + 28) = {6.078311660969614, 3.243958301387619, 0};
Point(p16 + 29) = {6.168140963134725, 3.222392193994787, 0};
Point(p16 + 30) = {6.260238, 3.215144, 0};
Point(p16 + 31) = {6.352335036865275, 3.222392193994787, 0};
Point(p16 + 32) = {6.442164339030385, 3.243958301387619, 0};
Point(p16 + 33) = {6.527514010949664, 3.279311293040679, 0};
Point(p16 + 34) = {6.606282460441139, 3.327580660969614, 0};
Point(p16 + 35) = {6.676530146860832, 3.387577853139168, 0};
Point(p16 + 36) = {6.736527339030386, 3.457825539558861, 0};
Point(p16 + 37) = {6.784796706959321, 3.536593989050335, 0};
Point(p16 + 38) = {6.820149698612381, 3.621943660969615, 0};
Point(p16 + 39) = {6.841715806005213, 3.711772963134725, 0};
Spline(16) = {12, p16 + 1, p16 + 2, p16 + 3, p16 + 4, p16 + 5, p16 + 6, p16 + 7, p16 + 8, p16 + 9, p16 + 10, p16 + 11, p16 + 12, p16 + 13, p16 + 14, p16 + 15, p16 + 16, p16 + 17, p16 + 18, p16 + 19, p16 + 20, p16 + 21, p16 + 22, p16 + 23, p16 + 24, p16 + 25, p16 + 26, p16 + 27, p16 + 28, p16 + 29, p16 + 30, p16 + 31, p16 + 32, p16 + 33, p16 + 34, p16 + 35, p16 + 36, p16 + 37, p16 + 38, p16 + 39, 12};
Line(17) = {11, 8};
Line(18) = {12, 9};
Curve Loop(1) = {-1, 4, 3, -2};
Plane Surface(1) = {1};
Curve Loop(2) = {-5, 1, 7, -6};
Plane Surface(2) = {2};
Curve Loop(3) = {-2, 7, 9, -8, -10, -11};
Plane Surface(3) = {3};
Curve Loop(4) = {-12, 3, 8, -13};
Plane Surface(4) = {4};
Curve Loop(5) = {-4, 5, 14, -12, -15, -16};
Plane Surface(5) = {5};
Curve Loop(6) = {-6, 14, 13, -9};
Plane Surface(6) = {6};
Curve Loop(7) = {-10, -17, 15, 17};
Surface(7) = {7};
Curve Loop(8) = {-11, -18, 16, 18};
Surface(8) = {8};
Surface Loop(1) = {1, 2, 3, 4, 5, 6, 7, 8};
Volume(1) = {1};
Physical Surface("INFLOW") = {1};
Physical Surface("OUTFLOW") = {6};
Physical Surface("OBSTACLE") = {7, 8};
Physical Surface("WALL_Y") = {2, 4};
Physical Surface("WALL_Z") = {3, 5};
Physical Volume("FLUID") = {1};
