cl__1 = 3.154309;
cl__2 = 0.562659;
cl__3 = 0.129068;
cl__4 = 0.108456;
Point(1) = {0.746559, -4.614901, 1, cl__1};
Point(2) = {0.746559, -4.614901, 0, cl__1};
Point(3) = {0.746559, 5.292332, 1, cl__2};
Point(4) = {0.746559, 5.292332, 0, cl__2};
Point(5) = {31.151697, -4.614901, 0, cl__1};
Point(6) = {31.151697, -4.614901, 1, cl__1};
Point(7) = {31.151697, 5.292332, 1, cl__2};
Point(8) = {26.354953, -1.329798, 1, cl__3};
Point(9) = {22.044306, 1.70742, 1, cl__4};
Point(10) = {31.151697, 5.292332, 0, cl__2};
Point(11) = {26.354953, -1.329798, 0, cl__3};
Point(12) = {22.044306, 1.70742, 0, cl__4};
Line(1) = {2, 1};
Line(2) = {1, 3};
Line(3) = {4, 3};
Line(4) = {2, 4};
Line(5) = {2, 5};
Line(6) = {5, 6};
Line(7) = {1, 6};
Line(8) = {3, 7};
Line(9) = {6, 7};
p10 = newp;
Point(p10 + 1) = {26.33906256281601, -1.127890851792945, 1};
Point(p10 + 2) = {26.29178252656486, -0.9309553276661542, 1};
Point(p10 + 3) = {26.21427708265249, -0.7438406338151623, 1};
Point(p10 + 4) = {26.10845467233385, -0.5711541550006461, 1};
Point(p10 + 5) = {25.97692099455542, -0.4171480054445845, 1};
Point(p10 + 6) = {25.82291484499936, -0.285614327666154, 1};
Point(p10 + 7) = {25.65022836618484, -0.1797919173475091, 1};
Point(p10 + 8) = {25.46311367233385, -0.1022864734351385, 1};
Point(p10 + 9) = {25.26617814820706, -0.05500643718398623, 1};
Point(p10 + 10) = {25.064271, -0.03911599999999993, 1};
Point(p10 + 11) = {24.86236385179295, -0.05500643718398646, 1};
Point(p10 + 12) = {24.66542832766616, -0.1022864734351385, 1};
Point(p10 + 13) = {24.47831363381516, -0.1797919173475089, 1};
Point(p10 + 14) = {24.30562715500065, -0.285614327666154, 1};
Point(p10 + 15) = {24.15162100544459, -0.4171480054445844, 1};
Point(p10 + 16) = {24.02008732766615, -0.571154155000646, 1};
Point(p10 + 17) = {23.91426491734751, -0.7438406338151622, 1};
Point(p10 + 18) = {23.83675947343514, -0.930955327666154, 1};
Point(p10 + 19) = {23.78947943718399, -1.127890851792945, 1};
Point(p10 + 20) = {23.773589, -1.329798, 1};
Point(p10 + 21) = {23.78947943718399, -1.531705148207055, 1};
Point(p10 + 22) = {23.83675947343514, -1.728640672333846, 1};
Point(p10 + 23) = {23.91426491734751, -1.915755366184837, 1};
Point(p10 + 24) = {24.02008732766615, -2.088441844999354, 1};
Point(p10 + 25) = {24.15162100544459, -2.242447994555416, 1};
Point(p10 + 26) = {24.30562715500065, -2.373981672333846, 1};
Point(p10 + 27) = {24.47831363381516, -2.479804082652491, 1};
Point(p10 + 28) = {24.66542832766616, -2.557309526564862, 1};
Point(p10 + 29) = {24.86236385179295, -2.604589562816014, 1};
Point(p10 + 30) = {25.064271, -2.62048, 1};
Point(p10 + 31) = {25.26617814820706, -2.604589562816014, 1};
Point(p10 + 32) = {25.46311367233385, -2.557309526564862, 1};
Point(p10 + 33) = {25.65022836618484, -2.479804082652491, 1};
Point(p10 + 34) = {25.82291484499936, -2.373981672333846, 1};
Point(p10 + 35) = {25.97692099455542, -2.242447994555416, 1};
Point(p10 + 36) = {26.10845467233385, -2.088441844999354, 1};
Point(p10 + 37) = {26.21427708265249, -1.915755366184838, 1};
Point(p10 + 38) = {26.29178252656486, -1.728640672333846, 1};
Point(p10 + 39) = {26.33906256281601, -1.531705148207056, 1};
Spline(10) = {8, p10 + 1, p10 + 2, p10 + 3, p10 + 4, p10 + 5, p10 + 6, p10 + 7, p10 + 8, p10 + 9, p10 + 10, p10 + 11, p10 + 12, p10 + 13, p10 + 14, p10 + 15, p10 + 16, p10 + 17, p10 + 18, p10 + 19, p10 + 20, p10 + 21, p10 + 22, p10 + 23, p10 + 24, p10 + 25, p10 + 26, p10 + 27, p10 + 28, p10 + 29, p10 + 30, p10 + 31, p10 + 32, p10 + 33, p10 + 34, p10 + 35, p10 + 36, p10 + 37, p10 + 38, p10 + 39, 8};
p11 = newp;
Point(p11 + 1) = {22.03095326667586, 1.877082563404033, 1};
Point(p11 + 2) = {21.99122385531307, 2.042567471419293, 1};
Point(p11 + 3) = {21.92609603587373, 2.199799936397523, 1};
Point(p11 + 4) = {21.83717347141929, 2.344908373226325, 1};
Point(p11 + 5) = {21.72664573060368, 2.474319730603682, 1};
Point(p11 + 6) = {21.59723437322632, 2.584847471419293, 1};
Point(p11 + 7) = {21.45212593639752, 2.673770035873736, 1};
Point(p11 + 8) = {21.29489347141929, 2.738897855313072, 1};
Point(p11 + 9) = {21.12940856340403, 2.778627266675862, 1};
Point(p11 + 10) = {20.959746, 2.79198, 1};
Point(p11 + 11) = {20.79008343659597, 2.778627266675862, 1};
Point(p11 + 12) = {20.62459852858071, 2.738897855313072, 1};
Point(p11 + 13) = {20.46736606360248, 2.673770035873736, 1};
Point(p11 + 14) = {20.32225762677367, 2.584847471419293, 1};
Point(p11 + 15) = {20.19284626939632, 2.474319730603682, 1};
Point(p11 + 16) = {20.08231852858071, 2.344908373226325, 1};
Point(p11 + 17) = {19.99339596412626, 2.199799936397523, 1};
Point(p11 + 18) = {19.92826814468693, 2.042567471419293, 1};
Point(p11 + 19) = {19.88853873332414, 1.877082563404033, 1};
Point(p11 + 20) = {19.875186, 1.70742, 1};
Point(p11 + 21) = {19.88853873332414, 1.537757436595967, 1};
Point(p11 + 22) = {19.92826814468693, 1.372272528580707, 1};
Point(p11 + 23) = {19.99339596412626, 1.215040063602478, 1};
Point(p11 + 24) = {20.08231852858071, 1.069931626773675, 1};
Point(p11 + 25) = {20.19284626939632, 0.9405202693963181, 1};
Point(p11 + 26) = {20.32225762677367, 0.829992528580707, 1};
Point(p11 + 27) = {20.46736606360248, 0.7410699641262638, 1};
Point(p11 + 28) = {20.62459852858071, 0.6759421446869283, 1};
Point(p11 + 29) = {20.79008343659597, 0.6362127333241374, 1};
Point(p11 + 30) = {20.959746, 0.62286, 1};
Point(p11 + 31) = {21.12940856340403, 0.6362127333241374, 1};
Point(p11 + 32) = {21.29489347141929, 0.675942144686928, 1};
Point(p11 + 33) = {21.45212593639752, 0.7410699641262637, 1};
Point(p11 + 34) = {21.59723437322632, 0.8299925285807068, 1};
Point(p11 + 35) = {21.72664573060368, 0.9405202693963178, 1};
Point(p11 + 36) = {21.83717347141929, 1.069931626773675, 1};
Point(p11 + 37) = {21.92609603587373, 1.215040063602477, 1};
Point(p11 + 38) = {21.99122385531307, 1.372272528580707, 1};
Point(p11 + 39) = {22.03095326667586, 1.537757436595967, 1};
Spline(11) = {9, p11 + 1, p11 + 2, p11 + 3, p11 + 4, p11 + 5, p11 + 6, p11 + 7, p11 + 8, p11 + 9, p11 + 10, p11 + 11, p11 + 12, p11 + 13, p11 + 14, p11 + 15, p11 + 16, p11 + 17, p11 + 18, p11 + 19, p11 + 20, p11 + 21, p11 + 22, p11 + 23, p11 + 24, p11 + 25, p11 + 26, p11 + 27, p11 + 28, p11 + 29, p11 + 30, p11 + 31, p11 + 32, p11 + 33, p11 + 34, p11 + 35, p11 + 36, p11 + 37, p11 + 38, p11 + 39, 9};
Line(12) = {4, 10};
Line(13) = {10, 7};
Line(14) = {5, 10};
p15 = newp;
Point(p15 + 1) = {26.33906256281601, -1.127890851792945, 0};
Point(p15 + 2) = {26.29178252656486, -0.9309553276661542, 0};
Point(p15 + 3) = {26.21427708265249, -0.7438406338151623, 0};
Point(p15 + 4) = {26.10845467233385, -0.5711541550006461, 0};
Point(p15 + 5) = {25.97692099455542, -0.4171480054445845, 0};
Point(p15 + 6) = {25.82291484499936, -0.285614327666154, 0};
Point(p15 + 7) = {25.65022836618484, -0.1797919173475091, 0};
Point(p15 + 8) = {25.46311367233385, -0.1022864734351385, 0};
Point(p15 + 9) = {25.26617814820706, -0.05500643718398623, 0};
Point(p15 + 10) = {25.064271, -0.03911599999999993, 0};
Point(p15 + 11) = {24.86236385179295, -0.05500643718398646, 0};
Point(p15 + 12) = {24.66542832766616, -0.1022864734351385, 0};
Point(p15 + 13) = {24.47831363381516, -0.1797919173475089, 0};
Point(p15 + 14) = {24.30562715500065, -0.285614327666154, 0};
Point(p15 + 15) = {24.15162100544459, -0.4171480054445844, 0};
Point(p15 + 16) = {24.02008732766615, -0.571154155000646, 0};
Point(p15 + 17) = {23.91426491734751, -0.7438406338151622, 0};
Point(p15 + 18) = {23.83675947343514, -0.930955327666154, 0};
Point(p15 + 19) = {23.78947943718399, -1.127890851792945, 0};
Point(p15 + 20) = {23.773589, -1.329798, 0};
Point(p15 + 21) = {23.78947943718399, -1.531705148207055, 0};
Point(p15 + 22) = {23.83675947343514, -1.728640672333846, 0};
Point(p15 + 23) = {23.91426491734751, -1.915755366184837, 0};
Point(p15 + 24) = {24.02008732766615, -2.088441844999354, 0};
Point(p15 + 25) = {24.15162100544459, -2.242447994555416, 0};
Point(p15 + 26) = {24.30562715500065, -2.373981672333846, 0};
Point(p15 + 27) = {24.47831363381516, -2.479804082652491, 0};
Point(p15 + 28) = {24.66542832766616, -2.557309526564862, 0};
Point(p15 + 29) = {24.86236385179295, -2.604589562816014, 0};
Point(p15 + 30) = {25.064271, -2.62048, 0};
Point(p15 + 31) = {25.26617814820706, -2.604589562816014, 0};
Point(p15 + 32) = {25.46311367233385, -2.557309526564862, 0};
Point(p15 + 33) = {25.65022836618484, -2.479804082652491, 0};
Point(p15 + 34) = {25.82291484499936, -2.373981672333846, 0};
Point(p15 + 35) = {25.97692099455542, -2.242447994555416, 0};
Point(p15 + 36) = {26.10845467233385, -2.088441844999354, 0};
Point(p15 + 37) = {26.21427708265249, -1.915755366184838, 0};
Point(p15 + 38) = {26.29178252656486, -1.728640672333846, 0};
Point(p15 + 39) = {26.33906256281601, -1.531705148207056, 0};
Spline(15) = {11, p15 + 1, p15 + 2, p15 + 3, p15 + 4, p15 + 5, p15 + 6, p15 + 7, p15 + 8, p15 + 9, p15 + 10, p15 + 11, p15 + 12, p15 + 13, p15 + 14, p15 + 15, p15 + 16, p15 + 17, p15 + 18, p15 + 19, p15 + 20, p15 + 21, p15 + 22, p15 + 23, p15 + 24, p15 + 25, p15 + 26, p15 + 27, p15 + 28, p15 + 29, p15 + 30, p15 + 31, p15 + 32, p15 + 33, p15 + 34, p15 + 35, p15 + 36, p15 + 37, p15 + 38, p15 + 39, 11};
p16 = newp;
Point(p16 + 1) = {22.03095326667586, 1.877082563404033, 0};
Point(p16 + 2) = {21.99122385531307, 2.042567471419293, 0};
Point(p16 + 3) = {21.92609603587373, 2.199799936397523, 0};
Point(p16 + 4) = {21.83717347141929, 2.344908373226325, 0};
Point(p16 + 5) = {21.72664573060368, 2.474319730603682, 0};
Point(p16 + 6) = {21.59723437322632, 2.584847471419293, 0};
Point(p16 + 7) = {21.45212593639752, 2.673770035873736, 0};
Point(p16 + 8) = {21.29489347141929, 2.738897855313072, 0};
Point(p16 + 9) = {21.12940856340403, 2.778627266675862, 0};
Point(p16 + 10) = {20.959746, 2.79198, 0};
Point(p16 + 11) = {20.79008343659597, 2.778627266675862, 0};
Point(p16 + 12) = {20.62459852858071, 2.738897855313072, 0};
Point(p16 + 13) = {20.46736606360248, 2.673770035873736, 0};
Point(p16 + 14) = {20.32225762677367, 2.584847471419293, 0};
Point(p16 + 15) = {20.19284626939632, 2.474319730603682, 0};
Point(p16 + 16) = {20.08231852858071, 2.344908373226325, 0};
Point(p16 + 17) = {19.99339596412626, 2.199799936397523, 0};
Point(p16 + 18) = {19.92826814468693, 2.042567471419293, 0};
Point(p16 + 19) = {19.88853873332414, 1.877082563404033, 0};
Point(p16 + 20) = {19.875186, 1.70742, 0};
Point(p16 + 21) = {19.88853873332414, 1.537757436595967, 0};
Point(p16 + 22) = {19.92826814468693, 1.372272528580707, 0};
Point(p16 + 23) = {19.99339596412626, 1.215040063602478, 0};
Point(p16 + 24) = {20.08231852858071, 1.069931626773675, 0};
Point(p16 + 25) = {20.19284626939632, 0.9405202693963181, 0};
Point(p16 + 26) = {20.32225762677367, 0.829992528580707, 0};
Point(p16 + 27) = {20.46736606360248, 0.7410699641262638, 0};
Point(p16 + 28) = {20.62459852858071, 0.6759421446869283, 0};
Point(p16 + 29) = {20.79008343659597, 0.6362127333241374, 0};
Point(p16 + 30) = {20.959746, 0.62286, 0};
Point(p16 + 31) = {21.12940856340403, 0.6362127333241374, 0};
Point(p16 + 32) = {21.29489347141929, 0.675942144686928, 0};
Point(p16 + 33) = {21.45212593639752, 0.7410699641262637, 0};
Point(p16 + 34) = {21.59723437322632, 0.8299925285807068, 0};
Point(p16 + 35) = {21.72664573060368, 0.9405202693963178, 0};
Point(p16 + 36) = {21.83717347141929, 1.069931626773675, 0};
Point(p16 + 37) = {21.92609603587373, 1.215040063602477, 0};
Point(p16 + 38) = {21.99122385531307, 1.372272528580707, 0};
Point(p16 + 39) = {22.03095326667586, 1.537757436595967, 0};
Spline(16) = {12, p16 + 1, p16 + 2, p16 + 3, p16 + 4, p16 + 5, p16 + 6, p16 + 7, p16 + 8, p16 + 9, p16 + 10, p16 + 11, p16 + 12, p16 + 13, p16 + 14, p16 + 15, p16 + 16, p16 + 17, p16 + 18, p16 + 19, p16 + 20, p16 + 21, p16 + 22, p16 + 23, p16 + 24, p16 + 25, p16 + 26, p16 + 27, p16 + 28, p16 + 29, p16 + 30, p16 + 31, p16 + 32, p16 + 33, p16 + 34, p16 + 35, p16 + 36, p16 + 37, p16 + 38, p16 + 39, 12};
Line(17) = {11, 8};
Line(18) = {12, 9};
Curve Loop(1) = {-1, 4, 3, -2};
Plane Surface(1) = {1};
Curve Loop(2) = {-5, 1, 7, -6};
Plane Surface(2) = {2};
Curve Loop(3) = {-2, 7, 9, -8, -10, -11};
Plane Surface(3) = {3};
Curve Loop(4) = {-12, 3, 8, -13};
Plane Surface(4) = {4};
Curve Loop(5) = {-4, 5, 14, -12, -15, -16};
Plane Surface(5) = {5};
Curve Loop(6) = {-6, 14, 13, -9};
Plane Surface(6) = {6};
Curve Loop(7) = {-10, -17, 15, 17};
Surface(7) = {7};
Curve Loop(8) = {-11, -18, 16, 18};
Surface(8) = {8};
Surface Loop(1) = {1, 2, 3, 4, 5, 6, 7, 8};
Volume(1) = {1};
Physical Surface("INFLOW") = {1};
Physical Surface("OUTFLOW") = {6};
Physical Surface("OBSTACLE") = {7, 8};
Physical Surface("WALL_Y") = {2, 4};
Physical Surface("WALL_Z") = {3, 5};
Physical Volume("FLUID") = {1};
