cl__1 = 1.403331;
cl__2 = 1.724209;
cl__3 = 3.972269;
cl__4 = 0.065009;
cl__5 = 0.141225;
Point(1) = {0.791067, -3.711682, 1, cl__1};
Point(2) = {0.791067, -3.711682, 0, cl__1};
Point(3) = {0.791067, 4.735015000000001, 1, cl__2};
Point(4) = {0.791067, 4.735015000000001, 0, cl__2};
Point(5) = {39.497539, -3.711682, 0, cl__1};
Point(6) = {39.497539, -3.711682, 1, cl__1};
Point(7) = {39.497539, 4.735015000000001, 1, cl__3};
Point(8) = {22.985616, 1.347504, 1, cl__4};
Point(9) = {16.445293, 2.265914, 1, cl__5};
Point(10) = {39.497539, 4.735015000000001, 0, cl__3};
Point(11) = {22.985616, 1.347504, 0, cl__4};
Point(12) = {16.445293, 2.265914, 0, cl__5};
Line(1) = {2, 1};
Line(2) = {1, 3};
Line(3) = {4, 3};
Line(4) = {2, 4};
Line(5) = {2, 5};
Line(6) = {5, 6};
Line(7) = {1, 6};
Line(8) = {3, 7};
Line(9) = {6, 7};
p10 = newp;
Point(p10 + 1) = {22.9776123133375, 1.449200481378004, 1};
Point(p10 + 2) = {22.95379833067832, 1.54839285787321, 1};
Point(p10 + 3) = {22.91476043130962, 1.642638683975682, 1};
Point(p10 + 4) = {22.86145985787321, 1.729617314662814, 1};
Point(p10 + 5) = {22.79520904738157, 1.807187047381563, 1};
Point(p10 + 6) = {22.71763931466282, 1.87343785787321, 1};
Point(p10 + 7) = {22.63066068397568, 1.926738431309616, 1};
Point(p10 + 8) = {22.53641485787321, 1.965776330678316, 1};
Point(p10 + 9) = {22.437222481378, 1.989590313337493, 1};
Point(p10 + 10) = {22.335526, 1.997594, 1};
Point(p10 + 11) = {22.233829518622, 1.989590313337493, 1};
Point(p10 + 12) = {22.13463714212679, 1.965776330678316, 1};
Point(p10 + 13) = {22.04039131602432, 1.926738431309616, 1};
Point(p10 + 14) = {21.95341268533719, 1.87343785787321, 1};
Point(p10 + 15) = {21.87584295261844, 1.807187047381563, 1};
Point(p10 + 16) = {21.80959214212679, 1.729617314662814, 1};
Point(p10 + 17) = {21.75629156869039, 1.642638683975682, 1};
Point(p10 + 18) = {21.71725366932169, 1.54839285787321, 1};
Point(p10 + 19) = {21.69343968666251, 1.449200481378004, 1};
Point(p10 + 20) = {21.685436, 1.347504, 1};
Point(p10 + 21) = {21.69343968666251, 1.245807518621996, 1};
Point(p10 + 22) = {21.71725366932169, 1.14661514212679, 1};
Point(p10 + 23) = {21.75629156869039, 1.052369316024318, 1};
Point(p10 + 24) = {21.80959214212679, 0.9653906853371863, 1};
Point(p10 + 25) = {21.87584295261844, 0.8878209526184374, 1};
Point(p10 + 26) = {21.95341268533719, 0.8215701421267906, 1};
Point(p10 + 27) = {22.04039131602432, 0.7682695686903841, 1};
Point(p10 + 28) = {22.13463714212679, 0.7292316693216837, 1};
Point(p10 + 29) = {22.233829518622, 0.705417686662507, 1};
Point(p10 + 30) = {22.335526, 0.6974140000000001, 1};
Point(p10 + 31) = {22.437222481378, 0.7054176866625069, 1};
Point(p10 + 32) = {22.53641485787321, 0.7292316693216837, 1};
Point(p10 + 33) = {22.63066068397568, 0.768269568690384, 1};
Point(p10 + 34) = {22.71763931466282, 0.8215701421267905, 1};
Point(p10 + 35) = {22.79520904738157, 0.8878209526184373, 1};
Point(p10 + 36) = {22.86145985787321, 0.9653906853371861, 1};
Point(p10 + 37) = {22.91476043130962, 1.052369316024318, 1};
Point(p10 + 38) = {22.95379833067832, 1.14661514212679, 1};
Point(p10 + 39) = {22.9776123133375, 1.245807518621996, 1};
Spline(10) = {8, p10 + 1, p10 + 2, p10 + 3, p10 + 4, p10 + 5, p10 + 6, p10 + 7, p10 + 8, p10 + 9, p10 + 10, p10 + 11, p10 + 12, p10 + 13, p10 + 14, p10 + 15, p10 + 16, p10 + 17, p10 + 18, p10 + 19, p10 + 20, p10 + 21, p10 + 22, p10 + 23, p10 + 24, p10 + 25, p10 + 26, p10 + 27, p10 + 28, p10 + 29, p10 + 30, p10 + 31, p10 + 32, p10 + 33, p10 + 34, p10 + 35, p10 + 36, p10 + 37, p10 + 38, p10 + 39, 8};
p11 = newp;
Point(p11 + 1) = {16.4279058220705, 2.486839042556461, 1};
Point(p11 + 2) = {16.37617241830738, 2.702324177357003, 1};
Point(p11 + 3) = {16.2913666368046, 2.907063445228674, 1};
Point(p11 + 4) = {16.175576677357, 3.096015485905802, 1};
Point(p11 + 5) = {16.03165367305105, 3.264527673051045, 1};
Point(p11 + 6) = {15.8631414859058, 3.408450677357003, 1};
Point(p11 + 7) = {15.67418944522867, 3.524240636804595, 1};
Point(p11 + 8) = {15.469450177357, 3.609046418307379, 1};
Point(p11 + 9) = {15.25396504255646, 3.660779822070505, 1};
Point(p11 + 10) = {15.03304, 3.678167, 1};
Point(p11 + 11) = {14.81211495744354, 3.660779822070505, 1};
Point(p11 + 12) = {14.596629822643, 3.60904641830738, 1};
Point(p11 + 13) = {14.39189055477133, 3.524240636804595, 1};
Point(p11 + 14) = {14.2029385140942, 3.408450677357003, 1};
Point(p11 + 15) = {14.03442632694895, 3.264527673051045, 1};
Point(p11 + 16) = {13.890503322643, 3.096015485905802, 1};
Point(p11 + 17) = {13.7747133631954, 2.907063445228674, 1};
Point(p11 + 18) = {13.68990758169262, 2.702324177357003, 1};
Point(p11 + 19) = {13.63817417792949, 2.486839042556461, 1};
Point(p11 + 20) = {13.620787, 2.265914, 1};
Point(p11 + 21) = {13.63817417792949, 2.044988957443539, 1};
Point(p11 + 22) = {13.68990758169262, 1.829503822642997, 1};
Point(p11 + 23) = {13.7747133631954, 1.624764554771327, 1};
Point(p11 + 24) = {13.890503322643, 1.435812514094198, 1};
Point(p11 + 25) = {14.03442632694895, 1.267300326948955, 1};
Point(p11 + 26) = {14.2029385140942, 1.123377322642998, 1};
Point(p11 + 27) = {14.39189055477133, 1.007587363195405, 1};
Point(p11 + 28) = {14.596629822643, 0.9227815816926206, 1};
Point(p11 + 29) = {14.81211495744354, 0.871048177929495, 1};
Point(p11 + 30) = {15.03304, 0.853661, 1};
Point(p11 + 31) = {15.25396504255646, 0.871048177929495, 1};
Point(p11 + 32) = {15.469450177357, 0.9227815816926204, 1};
Point(p11 + 33) = {15.67418944522867, 1.007587363195405, 1};
Point(p11 + 34) = {15.8631414859058, 1.123377322642997, 1};
Point(p11 + 35) = {16.03165367305105, 1.267300326948954, 1};
Point(p11 + 36) = {16.175576677357, 1.435812514094198, 1};
Point(p11 + 37) = {16.29136663680459, 1.624764554771326, 1};
Point(p11 + 38) = {16.37617241830738, 1.829503822642997, 1};
Point(p11 + 39) = {16.4279058220705, 2.044988957443539, 1};
Spline(11) = {9, p11 + 1, p11 + 2, p11 + 3, p11 + 4, p11 + 5, p11 + 6, p11 + 7, p11 + 8, p11 + 9, p11 + 10, p11 + 11, p11 + 12, p11 + 13, p11 + 14, p11 + 15, p11 + 16, p11 + 17, p11 + 18, p11 + 19, p11 + 20, p11 + 21, p11 + 22, p11 + 23, p11 + 24, p11 + 25, p11 + 26, p11 + 27, p11 + 28, p11 + 29, p11 + 30, p11 + 31, p11 + 32, p11 + 33, p11 + 34, p11 + 35, p11 + 36, p11 + 37, p11 + 38, p11 + 39, 9};
Line(12) = {4, 10};
Line(13) = {10, 7};
Line(14) = {5, 10};
p15 = newp;
Point(p15 + 1) = {22.9776123133375, 1.449200481378004, 0};
Point(p15 + 2) = {22.95379833067832, 1.54839285787321, 0};
Point(p15 + 3) = {22.91476043130962, 1.642638683975682, 0};
Point(p15 + 4) = {22.86145985787321, 1.729617314662814, 0};
Point(p15 + 5) = {22.79520904738157, 1.807187047381563, 0};
Point(p15 + 6) = {22.71763931466282, 1.87343785787321, 0};
Point(p15 + 7) = {22.63066068397568, 1.926738431309616, 0};
Point(p15 + 8) = {22.53641485787321, 1.965776330678316, 0};
Point(p15 + 9) = {22.437222481378, 1.989590313337493, 0};
Point(p15 + 10) = {22.335526, 1.997594, 0};
Point(p15 + 11) = {22.233829518622, 1.989590313337493, 0};
Point(p15 + 12) = {22.13463714212679, 1.965776330678316, 0};
Point(p15 + 13) = {22.04039131602432, 1.926738431309616, 0};
Point(p15 + 14) = {21.95341268533719, 1.87343785787321, 0};
Point(p15 + 15) = {21.87584295261844, 1.807187047381563, 0};
Point(p15 + 16) = {21.80959214212679, 1.729617314662814, 0};
Point(p15 + 17) = {21.75629156869039, 1.642638683975682, 0};
Point(p15 + 18) = {21.71725366932169, 1.54839285787321, 0};
Point(p15 + 19) = {21.69343968666251, 1.449200481378004, 0};
Point(p15 + 20) = {21.685436, 1.347504, 0};
Point(p15 + 21) = {21.69343968666251, 1.245807518621996, 0};
Point(p15 + 22) = {21.71725366932169, 1.14661514212679, 0};
Point(p15 + 23) = {21.75629156869039, 1.052369316024318, 0};
Point(p15 + 24) = {21.80959214212679, 0.9653906853371863, 0};
Point(p15 + 25) = {21.87584295261844, 0.8878209526184374, 0};
Point(p15 + 26) = {21.95341268533719, 0.8215701421267906, 0};
Point(p15 + 27) = {22.04039131602432, 0.7682695686903841, 0};
Point(p15 + 28) = {22.13463714212679, 0.7292316693216837, 0};
Point(p15 + 29) = {22.233829518622, 0.705417686662507, 0};
Point(p15 + 30) = {22.335526, 0.6974140000000001, 0};
Point(p15 + 31) = {22.437222481378, 0.7054176866625069, 0};
Point(p15 + 32) = {22.53641485787321, 0.7292316693216837, 0};
Point(p15 + 33) = {22.63066068397568, 0.768269568690384, 0};
Point(p15 + 34) = {22.71763931466282, 0.8215701421267905, 0};
Point(p15 + 35) = {22.79520904738157, 0.8878209526184373, 0};
Point(p15 + 36) = {22.86145985787321, 0.9653906853371861, 0};
Point(p15 + 37) = {22.91476043130962, 1.052369316024318, 0};
Point(p15 + 38) = {22.95379833067832, 1.14661514212679, 0};
Point(p15 + 39) = {22.9776123133375, 1.245807518621996, 0};
Spline(15) = {11, p15 + 1, p15 + 2, p15 + 3, p15 + 4, p15 + 5, p15 + 6, p15 + 7, p15 + 8, p15 + 9, p15 + 10, p15 + 11, p15 + 12, p15 + 13, p15 + 14, p15 + 15, p15 + 16, p15 + 17, p15 + 18, p15 + 19, p15 + 20, p15 + 21, p15 + 22, p15 + 23, p15 + 24, p15 + 25, p15 + 26, p15 + 27, p15 + 28, p15 + 29, p15 + 30, p15 + 31, p15 + 32, p15 + 33, p15 + 34, p15 + 35, p15 + 36, p15 + 37, p15 + 38, p15 + 39, 11};
p16 = newp;
Point(p16 + 1) = {16.4279058220705, 2.486839042556461, 0};
Point(p16 + 2) = {16.37617241830738, 2.702324177357003, 0};
Point(p16 + 3) = {16.2913666368046, 2.907063445228674, 0};
Point(p16 + 4) = {16.175576677357, 3.096015485905802, 0};
Point(p16 + 5) = {16.03165367305105, 3.264527673051045, 0};
Point(p16 + 6) = {15.8631414859058, 3.408450677357003, 0};
Point(p16 + 7) = {15.67418944522867, 3.524240636804595, 0};
Point(p16 + 8) = {15.469450177357, 3.609046418307379, 0};
Point(p16 + 9) = {15.25396504255646, 3.660779822070505, 0};
Point(p16 + 10) = {15.03304, 3.678167, 0};
Point(p16 + 11) = {14.81211495744354, 3.660779822070505, 0};
Point(p16 + 12) = {14.596629822643, 3.60904641830738, 0};
Point(p16 + 13) = {14.39189055477133, 3.524240636804595, 0};
Point(p16 + 14) = {14.2029385140942, 3.408450677357003, 0};
Point(p16 + 15) = {14.03442632694895, 3.264527673051045, 0};
Point(p16 + 16) = {13.890503322643, 3.096015485905802, 0};
Point(p16 + 17) = {13.7747133631954, 2.907063445228674, 0};
Point(p16 + 18) = {13.68990758169262, 2.702324177357003, 0};
Point(p16 + 19) = {13.63817417792949, 2.486839042556461, 0};
Point(p16 + 20) = {13.620787, 2.265914, 0};
Point(p16 + 21) = {13.63817417792949, 2.044988957443539, 0};
Point(p16 + 22) = {13.68990758169262, 1.829503822642997, 0};
Point(p16 + 23) = {13.7747133631954, 1.624764554771327, 0};
Point(p16 + 24) = {13.890503322643, 1.435812514094198, 0};
Point(p16 + 25) = {14.03442632694895, 1.267300326948955, 0};
Point(p16 + 26) = {14.2029385140942, 1.123377322642998, 0};
Point(p16 + 27) = {14.39189055477133, 1.007587363195405, 0};
Point(p16 + 28) = {14.596629822643, 0.9227815816926206, 0};
Point(p16 + 29) = {14.81211495744354, 0.871048177929495, 0};
Point(p16 + 30) = {15.03304, 0.853661, 0};
Point(p16 + 31) = {15.25396504255646, 0.871048177929495, 0};
Point(p16 + 32) = {15.469450177357, 0.9227815816926204, 0};
Point(p16 + 33) = {15.67418944522867, 1.007587363195405, 0};
Point(p16 + 34) = {15.8631414859058, 1.123377322642997, 0};
Point(p16 + 35) = {16.03165367305105, 1.267300326948954, 0};
Point(p16 + 36) = {16.175576677357, 1.435812514094198, 0};
Point(p16 + 37) = {16.29136663680459, 1.624764554771326, 0};
Point(p16 + 38) = {16.37617241830738, 1.829503822642997, 0};
Point(p16 + 39) = {16.4279058220705, 2.044988957443539, 0};
Spline(16) = {12, p16 + 1, p16 + 2, p16 + 3, p16 + 4, p16 + 5, p16 + 6, p16 + 7, p16 + 8, p16 + 9, p16 + 10, p16 + 11, p16 + 12, p16 + 13, p16 + 14, p16 + 15, p16 + 16, p16 + 17, p16 + 18, p16 + 19, p16 + 20, p16 + 21, p16 + 22, p16 + 23, p16 + 24, p16 + 25, p16 + 26, p16 + 27, p16 + 28, p16 + 29, p16 + 30, p16 + 31, p16 + 32, p16 + 33, p16 + 34, p16 + 35, p16 + 36, p16 + 37, p16 + 38, p16 + 39, 12};
Line(17) = {11, 8};
Line(18) = {12, 9};
Curve Loop(1) = {-1, 4, 3, -2};
Plane Surface(1) = {1};
Curve Loop(2) = {-5, 1, 7, -6};
Plane Surface(2) = {2};
Curve Loop(3) = {-2, 7, 9, -8, -10, -11};
Plane Surface(3) = {3};
Curve Loop(4) = {-12, 3, 8, -13};
Plane Surface(4) = {4};
Curve Loop(5) = {-4, 5, 14, -12, -15, -16};
Plane Surface(5) = {5};
Curve Loop(6) = {-6, 14, 13, -9};
Plane Surface(6) = {6};
Curve Loop(7) = {-10, -17, 15, 17};
Surface(7) = {7};
Curve Loop(8) = {-11, -18, 16, 18};
Surface(8) = {8};
Surface Loop(1) = {1, 2, 3, 4, 5, 6, 7, 8};
Volume(1) = {1};
Physical Surface("INFLOW") = {1};
Physical Surface("OUTFLOW") = {6};
Physical Surface("OBSTACLE") = {7, 8};
Physical Surface("WALL_Y") = {2, 4};
Physical Surface("WALL_Z") = {3, 5};
Physical Volume("FLUID") = {1};
