cl__1 = 3.2028;
cl__2 = 1.331752;
cl__3 = 1.157735;
cl__4 = 0.064778;
Point(1) = {0.7214, -3.952758, 1, cl__1};
Point(2) = {0.7214, -3.952758, 0, cl__1};
Point(3) = {0.7214, 5.119805, 1, cl__1};
Point(4) = {0.7214, 5.119805, 0, cl__1};
Point(5) = {31.705121, -3.952758, 0, cl__2};
Point(6) = {31.705121, -3.952758, 1, cl__2};
Point(7) = {31.705121, 5.119805, 1, cl__3};
Point(8) = {20.296574, 3.09526, 1, cl__4};
Point(9) = {31.705121, 5.119805, 0, cl__3};
Point(10) = {20.296574, 3.09526, 0, cl__4};
Line(1) = {2, 1};
Line(2) = {1, 3};
Line(3) = {4, 3};
Line(4) = {2, 4};
Line(5) = {2, 5};
Line(6) = {5, 6};
Line(7) = {1, 6};
Line(8) = {3, 7};
Line(9) = {6, 7};
p10 = newp;
Point(p10 + 1) = {20.28859880251736, 3.196594492025901, 1};
Point(p10 + 2) = {20.26486958589961, 3.295433792548226, 1};
Point(p10 + 3) = {20.22597064221264, 3.389344149959285, 1};
Point(p10 + 4) = {20.17285979254823, 3.476013179589009, 1};
Point(p10 + 5) = {20.1068448022899, 3.553306802289897, 1};
Point(p10 + 6) = {20.02955117958901, 3.619321792548226, 1};
Point(p10 + 7) = {19.94288214995928, 3.672432642212645, 1};
Point(p10 + 8) = {19.84897179254823, 3.71133158589961, 1};
Point(p10 + 9) = {19.7501324920259, 3.735060802517356, 1};
Point(p10 + 10) = {19.648798, 3.743036, 1};
Point(p10 + 11) = {19.5474635079741, 3.735060802517356, 1};
Point(p10 + 12) = {19.44862420745177, 3.71133158589961, 1};
Point(p10 + 13) = {19.35471385004071, 3.672432642212645, 1};
Point(p10 + 14) = {19.26804482041099, 3.619321792548226, 1};
Point(p10 + 15) = {19.1907511977101, 3.553306802289897, 1};
Point(p10 + 16) = {19.12473620745177, 3.476013179589009, 1};
Point(p10 + 17) = {19.07162535778735, 3.389344149959285, 1};
Point(p10 + 18) = {19.03272641410039, 3.295433792548226, 1};
Point(p10 + 19) = {19.00899719748264, 3.196594492025901, 1};
Point(p10 + 20) = {19.001022, 3.09526, 1};
Point(p10 + 21) = {19.00899719748264, 2.9939255079741, 1};
Point(p10 + 22) = {19.03272641410039, 2.895086207451774, 1};
Point(p10 + 23) = {19.07162535778735, 2.801175850040716, 1};
Point(p10 + 24) = {19.12473620745177, 2.714506820410991, 1};
Point(p10 + 25) = {19.1907511977101, 2.637213197710103, 1};
Point(p10 + 26) = {19.26804482041099, 2.571198207451774, 1};
Point(p10 + 27) = {19.35471385004071, 2.518087357787356, 1};
Point(p10 + 28) = {19.44862420745177, 2.479188414100391, 1};
Point(p10 + 29) = {19.5474635079741, 2.455459197482644, 1};
Point(p10 + 30) = {19.648798, 2.447484, 1};
Point(p10 + 31) = {19.7501324920259, 2.455459197482644, 1};
Point(p10 + 32) = {19.84897179254823, 2.479188414100391, 1};
Point(p10 + 33) = {19.94288214995928, 2.518087357787356, 1};
Point(p10 + 34) = {20.02955117958901, 2.571198207451774, 1};
Point(p10 + 35) = {20.1068448022899, 2.637213197710103, 1};
Point(p10 + 36) = {20.17285979254823, 2.714506820410991, 1};
Point(p10 + 37) = {20.22597064221264, 2.801175850040715, 1};
Point(p10 + 38) = {20.26486958589961, 2.895086207451774, 1};
Point(p10 + 39) = {20.28859880251736, 2.993925507974099, 1};
Spline(10) = {8, p10 + 1, p10 + 2, p10 + 3, p10 + 4, p10 + 5, p10 + 6, p10 + 7, p10 + 8, p10 + 9, p10 + 10, p10 + 11, p10 + 12, p10 + 13, p10 + 14, p10 + 15, p10 + 16, p10 + 17, p10 + 18, p10 + 19, p10 + 20, p10 + 21, p10 + 22, p10 + 23, p10 + 24, p10 + 25, p10 + 26, p10 + 27, p10 + 28, p10 + 29, p10 + 30, p10 + 31, p10 + 32, p10 + 33, p10 + 34, p10 + 35, p10 + 36, p10 + 37, p10 + 38, p10 + 39, 8};
Line(11) = {4, 9};
Line(12) = {9, 7};
Line(13) = {5, 9};
p14 = newp;
Point(p14 + 1) = {20.28859880251736, 3.196594492025901, 0};
Point(p14 + 2) = {20.26486958589961, 3.295433792548226, 0};
Point(p14 + 3) = {20.22597064221264, 3.389344149959285, 0};
Point(p14 + 4) = {20.17285979254823, 3.476013179589009, 0};
Point(p14 + 5) = {20.1068448022899, 3.553306802289897, 0};
Point(p14 + 6) = {20.02955117958901, 3.619321792548226, 0};
Point(p14 + 7) = {19.94288214995928, 3.672432642212645, 0};
Point(p14 + 8) = {19.84897179254823, 3.71133158589961, 0};
Point(p14 + 9) = {19.7501324920259, 3.735060802517356, 0};
Point(p14 + 10) = {19.648798, 3.743036, 0};
Point(p14 + 11) = {19.5474635079741, 3.735060802517356, 0};
Point(p14 + 12) = {19.44862420745177, 3.71133158589961, 0};
Point(p14 + 13) = {19.35471385004071, 3.672432642212645, 0};
Point(p14 + 14) = {19.26804482041099, 3.619321792548226, 0};
Point(p14 + 15) = {19.1907511977101, 3.553306802289897, 0};
Point(p14 + 16) = {19.12473620745177, 3.476013179589009, 0};
Point(p14 + 17) = {19.07162535778735, 3.389344149959285, 0};
Point(p14 + 18) = {19.03272641410039, 3.295433792548226, 0};
Point(p14 + 19) = {19.00899719748264, 3.196594492025901, 0};
Point(p14 + 20) = {19.001022, 3.09526, 0};
Point(p14 + 21) = {19.00899719748264, 2.9939255079741, 0};
Point(p14 + 22) = {19.03272641410039, 2.895086207451774, 0};
Point(p14 + 23) = {19.07162535778735, 2.801175850040716, 0};
Point(p14 + 24) = {19.12473620745177, 2.714506820410991, 0};
Point(p14 + 25) = {19.1907511977101, 2.637213197710103, 0};
Point(p14 + 26) = {19.26804482041099, 2.571198207451774, 0};
Point(p14 + 27) = {19.35471385004071, 2.518087357787356, 0};
Point(p14 + 28) = {19.44862420745177, 2.479188414100391, 0};
Point(p14 + 29) = {19.5474635079741, 2.455459197482644, 0};
Point(p14 + 30) = {19.648798, 2.447484, 0};
Point(p14 + 31) = {19.7501324920259, 2.455459197482644, 0};
Point(p14 + 32) = {19.84897179254823, 2.479188414100391, 0};
Point(p14 + 33) = {19.94288214995928, 2.518087357787356, 0};
Point(p14 + 34) = {20.02955117958901, 2.571198207451774, 0};
Point(p14 + 35) = {20.1068448022899, 2.637213197710103, 0};
Point(p14 + 36) = {20.17285979254823, 2.714506820410991, 0};
Point(p14 + 37) = {20.22597064221264, 2.801175850040715, 0};
Point(p14 + 38) = {20.26486958589961, 2.895086207451774, 0};
Point(p14 + 39) = {20.28859880251736, 2.993925507974099, 0};
Spline(14) = {10, p14 + 1, p14 + 2, p14 + 3, p14 + 4, p14 + 5, p14 + 6, p14 + 7, p14 + 8, p14 + 9, p14 + 10, p14 + 11, p14 + 12, p14 + 13, p14 + 14, p14 + 15, p14 + 16, p14 + 17, p14 + 18, p14 + 19, p14 + 20, p14 + 21, p14 + 22, p14 + 23, p14 + 24, p14 + 25, p14 + 26, p14 + 27, p14 + 28, p14 + 29, p14 + 30, p14 + 31, p14 + 32, p14 + 33, p14 + 34, p14 + 35, p14 + 36, p14 + 37, p14 + 38, p14 + 39, 10};
Line(15) = {10, 8};
Curve Loop(1) = {-1, 4, 3, -2};
Plane Surface(1) = {1};
Curve Loop(2) = {-5, 1, 7, -6};
Plane Surface(2) = {2};
Curve Loop(3) = {-2, 7, 9, -8, -10};
Plane Surface(3) = {3};
Curve Loop(4) = {-11, 3, 8, -12};
Plane Surface(4) = {4};
Curve Loop(5) = {-4, 5, 13, -11, -14};
Plane Surface(5) = {5};
Curve Loop(6) = {-6, 13, 12, -9};
Plane Surface(6) = {6};
Curve Loop(7) = {-10, -15, 14, 15};
Surface(7) = {7};
Surface Loop(1) = {1, 2, 3, 4, 5, 6, 7};
Volume(1) = {1};
Physical Surface("INFLOW") = {1};
Physical Surface("OUTFLOW") = {6};
Physical Surface("OBSTACLE") = {7};
Physical Surface("WALL_Y") = {2, 4};
Physical Surface("WALL_Z") = {3, 5};
Physical Volume("FLUID") = {1};
