cl__1 = 3.237378;
cl__2 = 1.270908;
cl__3 = 1.409489;
cl__4 = 0.066437;
cl__5 = 0.103592;
Point(1) = {0.271956, -4.650234, 1, cl__1};
Point(2) = {0.271956, -4.650234, 0, cl__1};
Point(3) = {0.271956, 4.799608, 1, cl__2};
Point(4) = {0.271956, 4.799608, 0, cl__2};
Point(5) = {32.027126, -4.650234, 0, cl__3};
Point(6) = {32.027126, -4.650234, 1, cl__3};
Point(7) = {32.027126, 4.799608, 1, cl__2};
Point(8) = {19.390893, -3.256316, 1, cl__4};
Point(9) = {15.962331, -0.8834420000000002, 1, cl__5};
Point(10) = {32.027126, 4.799608, 0, cl__2};
Point(11) = {19.390893, -3.256316, 0, cl__4};
Point(12) = {15.962331, -0.8834420000000002, 0, cl__5};
Line(1) = {2, 1};
Line(2) = {1, 3};
Line(3) = {4, 3};
Line(4) = {2, 4};
Line(5) = {2, 5};
Line(6) = {5, 6};
Line(7) = {1, 6};
Line(8) = {3, 7};
Line(9) = {6, 7};
p10 = newp;
Point(p10 + 1) = {19.38271344128289, -3.152384852288896, 1};
Point(p10 + 2) = {19.35837617301359, -3.051012834362144, 1};
Point(p10 + 3) = {19.31848045950765, -2.954696061735539, 1};
Point(p10 + 4) = {19.26400866563785, -2.865806173008188, 1};
Point(p10 + 5) = {19.19630206775081, -2.786531932249187, 1};
Point(p10 + 6) = {19.11702782699181, -2.718825334362144, 1};
Point(p10 + 7) = {19.02813793826446, -2.664353540492353, 1};
Point(p10 + 8) = {18.93182116563785, -2.624457826986407, 1};
Point(p10 + 9) = {18.8304491477111, -2.600120558717105, 1};
Point(p10 + 10) = {18.726518, -2.591941, 1};
Point(p10 + 11) = {18.62258685228889, -2.600120558717105, 1};
Point(p10 + 12) = {18.52121483436214, -2.624457826986407, 1};
Point(p10 + 13) = {18.42489806173554, -2.664353540492353, 1};
Point(p10 + 14) = {18.33600817300819, -2.718825334362144, 1};
Point(p10 + 15) = {18.25673393224919, -2.786531932249187, 1};
Point(p10 + 16) = {18.18902733436214, -2.865806173008188, 1};
Point(p10 + 17) = {18.13455554049235, -2.954696061735539, 1};
Point(p10 + 18) = {18.0946598269864, -3.051012834362144, 1};
Point(p10 + 19) = {18.07032255871711, -3.152384852288896, 1};
Point(p10 + 20) = {18.062143, -3.256316, 1};
Point(p10 + 21) = {18.07032255871711, -3.360247147711103, 1};
Point(p10 + 22) = {18.0946598269864, -3.461619165637856, 1};
Point(p10 + 23) = {18.13455554049235, -3.557935938264461, 1};
Point(p10 + 24) = {18.18902733436214, -3.646825826991812, 1};
Point(p10 + 25) = {18.25673393224919, -3.726100067750813, 1};
Point(p10 + 26) = {18.33600817300819, -3.793806665637856, 1};
Point(p10 + 27) = {18.42489806173554, -3.848278459507647, 1};
Point(p10 + 28) = {18.52121483436214, -3.888174173013593, 1};
Point(p10 + 29) = {18.62258685228889, -3.912511441282895, 1};
Point(p10 + 30) = {18.726518, -3.920691, 1};
Point(p10 + 31) = {18.8304491477111, -3.912511441282895, 1};
Point(p10 + 32) = {18.93182116563785, -3.888174173013593, 1};
Point(p10 + 33) = {19.02813793826446, -3.848278459507647, 1};
Point(p10 + 34) = {19.11702782699181, -3.793806665637856, 1};
Point(p10 + 35) = {19.19630206775081, -3.726100067750813, 1};
Point(p10 + 36) = {19.26400866563785, -3.646825826991812, 1};
Point(p10 + 37) = {19.31848045950765, -3.557935938264461, 1};
Point(p10 + 38) = {19.35837617301359, -3.461619165637856, 1};
Point(p10 + 39) = {19.38271344128289, -3.360247147711104, 1};
Spline(10) = {8, p10 + 1, p10 + 2, p10 + 3, p10 + 4, p10 + 5, p10 + 6, p10 + 7, p10 + 8, p10 + 9, p10 + 10, p10 + 11, p10 + 12, p10 + 13, p10 + 14, p10 + 15, p10 + 16, p10 + 17, p10 + 18, p10 + 19, p10 + 20, p10 + 21, p10 + 22, p10 + 23, p10 + 24, p10 + 25, p10 + 26, p10 + 27, p10 + 28, p10 + 29, p10 + 30, p10 + 31, p10 + 32, p10 + 33, p10 + 34, p10 + 35, p10 + 36, p10 + 37, p10 + 38, p10 + 39, 8};
p11 = newp;
Point(p11 + 1) = {15.94957704423102, -0.7213876268031988, 1};
Point(p11 + 2) = {15.91162922164306, -0.5633235701021326, 1};
Point(p11 + 3) = {15.84942193356983, -0.41314189155731, 1};
Point(p11 + 4) = {15.76448692989787, -0.2745405625189197, 1};
Point(p11 + 5) = {15.65891559230067, -0.1509324076993258, 1};
Point(p11 + 6) = {15.53530743748108, -0.04536107010213253, 1};
Point(p11 + 7) = {15.39670610844269, 0.03957393356983496, 1};
Point(p11 + 8) = {15.24652442989787, 0.1017812216430569, 1};
Point(p11 + 9) = {15.0884603731968, 0.1397290442310181, 1};
Point(p11 + 10) = {14.926406, 0.152483, 1};
Point(p11 + 11) = {14.7643516268032, 0.1397290442310181, 1};
Point(p11 + 12) = {14.60628757010213, 0.101781221643057, 1};
Point(p11 + 13) = {14.45610589155731, 0.03957393356983507, 1};
Point(p11 + 14) = {14.31750456251892, -0.04536107010213253, 1};
Point(p11 + 15) = {14.19389640769933, -0.1509324076993257, 1};
Point(p11 + 16) = {14.08832507010213, -0.2745405625189196, 1};
Point(p11 + 17) = {14.00339006643017, -0.4131418915573098, 1};
Point(p11 + 18) = {13.94118277835694, -0.5633235701021324, 1};
Point(p11 + 19) = {13.90323495576898, -0.7213876268031987, 1};
Point(p11 + 20) = {13.890481, -0.8834419999999998, 1};
Point(p11 + 21) = {13.90323495576898, -1.045496373196801, 1};
Point(p11 + 22) = {13.94118277835694, -1.203560429897868, 1};
Point(p11 + 23) = {14.00339006643016, -1.353742108442689, 1};
Point(p11 + 24) = {14.08832507010213, -1.49234343748108, 1};
Point(p11 + 25) = {14.19389640769933, -1.615951592300674, 1};
Point(p11 + 26) = {14.31750456251892, -1.721522929897867, 1};
Point(p11 + 27) = {14.45610589155731, -1.806457933569835, 1};
Point(p11 + 28) = {14.60628757010213, -1.868665221643057, 1};
Point(p11 + 29) = {14.7643516268032, -1.906613044231018, 1};
Point(p11 + 30) = {14.926406, -1.919367, 1};
Point(p11 + 31) = {15.0884603731968, -1.906613044231018, 1};
Point(p11 + 32) = {15.24652442989787, -1.868665221643057, 1};
Point(p11 + 33) = {15.39670610844269, -1.806457933569835, 1};
Point(p11 + 34) = {15.53530743748108, -1.721522929897867, 1};
Point(p11 + 35) = {15.65891559230067, -1.615951592300674, 1};
Point(p11 + 36) = {15.76448692989787, -1.49234343748108, 1};
Point(p11 + 37) = {15.84942193356983, -1.35374210844269, 1};
Point(p11 + 38) = {15.91162922164306, -1.203560429897867, 1};
Point(p11 + 39) = {15.94957704423102, -1.045496373196801, 1};
Spline(11) = {9, p11 + 1, p11 + 2, p11 + 3, p11 + 4, p11 + 5, p11 + 6, p11 + 7, p11 + 8, p11 + 9, p11 + 10, p11 + 11, p11 + 12, p11 + 13, p11 + 14, p11 + 15, p11 + 16, p11 + 17, p11 + 18, p11 + 19, p11 + 20, p11 + 21, p11 + 22, p11 + 23, p11 + 24, p11 + 25, p11 + 26, p11 + 27, p11 + 28, p11 + 29, p11 + 30, p11 + 31, p11 + 32, p11 + 33, p11 + 34, p11 + 35, p11 + 36, p11 + 37, p11 + 38, p11 + 39, 9};
Line(12) = {4, 10};
Line(13) = {10, 7};
Line(14) = {5, 10};
p15 = newp;
Point(p15 + 1) = {19.38271344128289, -3.152384852288896, 0};
Point(p15 + 2) = {19.35837617301359, -3.051012834362144, 0};
Point(p15 + 3) = {19.31848045950765, -2.954696061735539, 0};
Point(p15 + 4) = {19.26400866563785, -2.865806173008188, 0};
Point(p15 + 5) = {19.19630206775081, -2.786531932249187, 0};
Point(p15 + 6) = {19.11702782699181, -2.718825334362144, 0};
Point(p15 + 7) = {19.02813793826446, -2.664353540492353, 0};
Point(p15 + 8) = {18.93182116563785, -2.624457826986407, 0};
Point(p15 + 9) = {18.8304491477111, -2.600120558717105, 0};
Point(p15 + 10) = {18.726518, -2.591941, 0};
Point(p15 + 11) = {18.62258685228889, -2.600120558717105, 0};
Point(p15 + 12) = {18.52121483436214, -2.624457826986407, 0};
Point(p15 + 13) = {18.42489806173554, -2.664353540492353, 0};
Point(p15 + 14) = {18.33600817300819, -2.718825334362144, 0};
Point(p15 + 15) = {18.25673393224919, -2.786531932249187, 0};
Point(p15 + 16) = {18.18902733436214, -2.865806173008188, 0};
Point(p15 + 17) = {18.13455554049235, -2.954696061735539, 0};
Point(p15 + 18) = {18.0946598269864, -3.051012834362144, 0};
Point(p15 + 19) = {18.07032255871711, -3.152384852288896, 0};
Point(p15 + 20) = {18.062143, -3.256316, 0};
Point(p15 + 21) = {18.07032255871711, -3.360247147711103, 0};
Point(p15 + 22) = {18.0946598269864, -3.461619165637856, 0};
Point(p15 + 23) = {18.13455554049235, -3.557935938264461, 0};
Point(p15 + 24) = {18.18902733436214, -3.646825826991812, 0};
Point(p15 + 25) = {18.25673393224919, -3.726100067750813, 0};
Point(p15 + 26) = {18.33600817300819, -3.793806665637856, 0};
Point(p15 + 27) = {18.42489806173554, -3.848278459507647, 0};
Point(p15 + 28) = {18.52121483436214, -3.888174173013593, 0};
Point(p15 + 29) = {18.62258685228889, -3.912511441282895, 0};
Point(p15 + 30) = {18.726518, -3.920691, 0};
Point(p15 + 31) = {18.8304491477111, -3.912511441282895, 0};
Point(p15 + 32) = {18.93182116563785, -3.888174173013593, 0};
Point(p15 + 33) = {19.02813793826446, -3.848278459507647, 0};
Point(p15 + 34) = {19.11702782699181, -3.793806665637856, 0};
Point(p15 + 35) = {19.19630206775081, -3.726100067750813, 0};
Point(p15 + 36) = {19.26400866563785, -3.646825826991812, 0};
Point(p15 + 37) = {19.31848045950765, -3.557935938264461, 0};
Point(p15 + 38) = {19.35837617301359, -3.461619165637856, 0};
Point(p15 + 39) = {19.38271344128289, -3.360247147711104, 0};
Spline(15) = {11, p15 + 1, p15 + 2, p15 + 3, p15 + 4, p15 + 5, p15 + 6, p15 + 7, p15 + 8, p15 + 9, p15 + 10, p15 + 11, p15 + 12, p15 + 13, p15 + 14, p15 + 15, p15 + 16, p15 + 17, p15 + 18, p15 + 19, p15 + 20, p15 + 21, p15 + 22, p15 + 23, p15 + 24, p15 + 25, p15 + 26, p15 + 27, p15 + 28, p15 + 29, p15 + 30, p15 + 31, p15 + 32, p15 + 33, p15 + 34, p15 + 35, p15 + 36, p15 + 37, p15 + 38, p15 + 39, 11};
p16 = newp;
Point(p16 + 1) = {15.94957704423102, -0.7213876268031988, 0};
Point(p16 + 2) = {15.91162922164306, -0.5633235701021326, 0};
Point(p16 + 3) = {15.84942193356983, -0.41314189155731, 0};
Point(p16 + 4) = {15.76448692989787, -0.2745405625189197, 0};
Point(p16 + 5) = {15.65891559230067, -0.1509324076993258, 0};
Point(p16 + 6) = {15.53530743748108, -0.04536107010213253, 0};
Point(p16 + 7) = {15.39670610844269, 0.03957393356983496, 0};
Point(p16 + 8) = {15.24652442989787, 0.1017812216430569, 0};
Point(p16 + 9) = {15.0884603731968, 0.1397290442310181, 0};
Point(p16 + 10) = {14.926406, 0.152483, 0};
Point(p16 + 11) = {14.7643516268032, 0.1397290442310181, 0};
Point(p16 + 12) = {14.60628757010213, 0.101781221643057, 0};
Point(p16 + 13) = {14.45610589155731, 0.03957393356983507, 0};
Point(p16 + 14) = {14.31750456251892, -0.04536107010213253, 0};
Point(p16 + 15) = {14.19389640769933, -0.1509324076993257, 0};
Point(p16 + 16) = {14.08832507010213, -0.2745405625189196, 0};
Point(p16 + 17) = {14.00339006643017, -0.4131418915573098, 0};
Point(p16 + 18) = {13.94118277835694, -0.5633235701021324, 0};
Point(p16 + 19) = {13.90323495576898, -0.7213876268031987, 0};
Point(p16 + 20) = {13.890481, -0.8834419999999998, 0};
Point(p16 + 21) = {13.90323495576898, -1.045496373196801, 0};
Point(p16 + 22) = {13.94118277835694, -1.203560429897868, 0};
Point(p16 + 23) = {14.00339006643016, -1.353742108442689, 0};
Point(p16 + 24) = {14.08832507010213, -1.49234343748108, 0};
Point(p16 + 25) = {14.19389640769933, -1.615951592300674, 0};
Point(p16 + 26) = {14.31750456251892, -1.721522929897867, 0};
Point(p16 + 27) = {14.45610589155731, -1.806457933569835, 0};
Point(p16 + 28) = {14.60628757010213, -1.868665221643057, 0};
Point(p16 + 29) = {14.7643516268032, -1.906613044231018, 0};
Point(p16 + 30) = {14.926406, -1.919367, 0};
Point(p16 + 31) = {15.0884603731968, -1.906613044231018, 0};
Point(p16 + 32) = {15.24652442989787, -1.868665221643057, 0};
Point(p16 + 33) = {15.39670610844269, -1.806457933569835, 0};
Point(p16 + 34) = {15.53530743748108, -1.721522929897867, 0};
Point(p16 + 35) = {15.65891559230067, -1.615951592300674, 0};
Point(p16 + 36) = {15.76448692989787, -1.49234343748108, 0};
Point(p16 + 37) = {15.84942193356983, -1.35374210844269, 0};
Point(p16 + 38) = {15.91162922164306, -1.203560429897867, 0};
Point(p16 + 39) = {15.94957704423102, -1.045496373196801, 0};
Spline(16) = {12, p16 + 1, p16 + 2, p16 + 3, p16 + 4, p16 + 5, p16 + 6, p16 + 7, p16 + 8, p16 + 9, p16 + 10, p16 + 11, p16 + 12, p16 + 13, p16 + 14, p16 + 15, p16 + 16, p16 + 17, p16 + 18, p16 + 19, p16 + 20, p16 + 21, p16 + 22, p16 + 23, p16 + 24, p16 + 25, p16 + 26, p16 + 27, p16 + 28, p16 + 29, p16 + 30, p16 + 31, p16 + 32, p16 + 33, p16 + 34, p16 + 35, p16 + 36, p16 + 37, p16 + 38, p16 + 39, 12};
Line(17) = {11, 8};
Line(18) = {12, 9};
Curve Loop(1) = {-1, 4, 3, -2};
Plane Surface(1) = {1};
Curve Loop(2) = {-5, 1, 7, -6};
Plane Surface(2) = {2};
Curve Loop(3) = {-2, 7, 9, -8, -10, -11};
Plane Surface(3) = {3};
Curve Loop(4) = {-12, 3, 8, -13};
Plane Surface(4) = {4};
Curve Loop(5) = {-4, 5, 14, -12, -15, -16};
Plane Surface(5) = {5};
Curve Loop(6) = {-6, 14, 13, -9};
Plane Surface(6) = {6};
Curve Loop(7) = {-10, -17, 15, 17};
Surface(7) = {7};
Curve Loop(8) = {-11, -18, 16, 18};
Surface(8) = {8};
Surface Loop(1) = {1, 2, 3, 4, 5, 6, 7, 8};
Volume(1) = {1};
Physical Surface("INFLOW") = {1};
Physical Surface("OUTFLOW") = {6};
Physical Surface("OBSTACLE") = {7, 8};
Physical Surface("WALL_Y") = {2, 4};
Physical Surface("WALL_Z") = {3, 5};
Physical Volume("FLUID") = {1};
