cl__1 = 3.20368;
cl__2 = 0.870014;
cl__3 = 0.9308959999999999;
cl__4 = 0.133335;
Point(1) = {0.00773, -3.478245, 1, cl__1};
Point(2) = {0.00773, -3.478245, 0, cl__1};
Point(3) = {0.00773, 4.972274000000001, 1, cl__1};
Point(4) = {0.00773, 4.972274000000001, 0, cl__1};
Point(5) = {31.756948, -3.478245, 0, cl__2};
Point(6) = {31.756948, -3.478245, 1, cl__2};
Point(7) = {31.756948, 4.972274000000001, 1, cl__3};
Point(8) = {23.679806, 0.002216999999999673, 1, cl__4};
Point(9) = {31.756948, 4.972274000000001, 0, cl__3};
Point(10) = {23.679806, 0.002216999999999673, 0, cl__4};
Line(1) = {2, 1};
Line(2) = {1, 3};
Line(3) = {4, 3};
Line(4) = {2, 4};
Line(5) = {2, 5};
Line(6) = {5, 6};
Line(7) = {1, 6};
Line(8) = {3, 7};
Line(9) = {6, 7};
p10 = newp;
Point(p10 + 1) = {23.66339019968589, 0.210799519699252, 1};
Point(p10 + 2) = {23.61454701022821, 0.4142460455178136, 1};
Point(p10 + 3) = {23.53447911305265, 0.6075470487897237, 1};
Point(p10 + 4) = {23.42515804551781, 0.7859428172851782, 1};
Point(p10 + 5) = {23.28927565512221, 0.9450406551222078, 1};
Point(p10 + 6) = {23.13017781728518, 1.080923045517814, 1};
Point(p10 + 7) = {22.95178204878972, 1.190244113052657, 1};
Point(p10 + 8) = {22.75848104551781, 1.270312010228208, 1};
Point(p10 + 9) = {22.55503451969925, 1.319155199685889, 1};
Point(p10 + 10) = {22.346452, 1.335571, 1};
Point(p10 + 11) = {22.13786948030075, 1.319155199685889, 1};
Point(p10 + 12) = {21.93442295448219, 1.270312010228208, 1};
Point(p10 + 13) = {21.74112195121027, 1.190244113052657, 1};
Point(p10 + 14) = {21.56272618271482, 1.080923045517814, 1};
Point(p10 + 15) = {21.40362834487779, 0.9450406551222079, 1};
Point(p10 + 16) = {21.26774595448219, 0.7859428172851783, 1};
Point(p10 + 17) = {21.15842488694734, 0.6075470487897238, 1};
Point(p10 + 18) = {21.07835698977179, 0.4142460455178137, 1};
Point(p10 + 19) = {21.02951380031411, 0.2107995196992521, 1};
Point(p10 + 20) = {21.013098, 0.002217000000000163, 1};
Point(p10 + 21) = {21.02951380031411, -0.2063655196992518, 1};
Point(p10 + 22) = {21.07835698977179, -0.409812045517814, 1};
Point(p10 + 23) = {21.15842488694734, -0.6031130487897229, 1};
Point(p10 + 24) = {21.26774595448219, -0.781508817285178, 1};
Point(p10 + 25) = {21.40362834487779, -0.9406066551222078, 1};
Point(p10 + 26) = {21.56272618271482, -1.076489045517814, 1};
Point(p10 + 27) = {21.74112195121027, -1.185810113052657, 1};
Point(p10 + 28) = {21.93442295448219, -1.265878010228208, 1};
Point(p10 + 29) = {22.13786948030075, -1.314721199685889, 1};
Point(p10 + 30) = {22.346452, -1.331137, 1};
Point(p10 + 31) = {22.55503451969925, -1.314721199685889, 1};
Point(p10 + 32) = {22.75848104551781, -1.265878010228208, 1};
Point(p10 + 33) = {22.95178204878972, -1.185810113052657, 1};
Point(p10 + 34) = {23.13017781728518, -1.076489045517814, 1};
Point(p10 + 35) = {23.28927565512221, -0.940606655122208, 1};
Point(p10 + 36) = {23.42515804551781, -0.7815088172851784, 1};
Point(p10 + 37) = {23.53447911305265, -0.6031130487897238, 1};
Point(p10 + 38) = {23.61454701022821, -0.4098120455178139, 1};
Point(p10 + 39) = {23.66339019968589, -0.2063655196992523, 1};
Spline(10) = {8, p10 + 1, p10 + 2, p10 + 3, p10 + 4, p10 + 5, p10 + 6, p10 + 7, p10 + 8, p10 + 9, p10 + 10, p10 + 11, p10 + 12, p10 + 13, p10 + 14, p10 + 15, p10 + 16, p10 + 17, p10 + 18, p10 + 19, p10 + 20, p10 + 21, p10 + 22, p10 + 23, p10 + 24, p10 + 25, p10 + 26, p10 + 27, p10 + 28, p10 + 29, p10 + 30, p10 + 31, p10 + 32, p10 + 33, p10 + 34, p10 + 35, p10 + 36, p10 + 37, p10 + 38, p10 + 39, 8};
Line(11) = {4, 9};
Line(12) = {9, 7};
Line(13) = {5, 9};
p14 = newp;
Point(p14 + 1) = {23.66339019968589, 0.210799519699252, 0};
Point(p14 + 2) = {23.61454701022821, 0.4142460455178136, 0};
Point(p14 + 3) = {23.53447911305265, 0.6075470487897237, 0};
Point(p14 + 4) = {23.42515804551781, 0.7859428172851782, 0};
Point(p14 + 5) = {23.28927565512221, 0.9450406551222078, 0};
Point(p14 + 6) = {23.13017781728518, 1.080923045517814, 0};
Point(p14 + 7) = {22.95178204878972, 1.190244113052657, 0};
Point(p14 + 8) = {22.75848104551781, 1.270312010228208, 0};
Point(p14 + 9) = {22.55503451969925, 1.319155199685889, 0};
Point(p14 + 10) = {22.346452, 1.335571, 0};
Point(p14 + 11) = {22.13786948030075, 1.319155199685889, 0};
Point(p14 + 12) = {21.93442295448219, 1.270312010228208, 0};
Point(p14 + 13) = {21.74112195121027, 1.190244113052657, 0};
Point(p14 + 14) = {21.56272618271482, 1.080923045517814, 0};
Point(p14 + 15) = {21.40362834487779, 0.9450406551222079, 0};
Point(p14 + 16) = {21.26774595448219, 0.7859428172851783, 0};
Point(p14 + 17) = {21.15842488694734, 0.6075470487897238, 0};
Point(p14 + 18) = {21.07835698977179, 0.4142460455178137, 0};
Point(p14 + 19) = {21.02951380031411, 0.2107995196992521, 0};
Point(p14 + 20) = {21.013098, 0.002217000000000163, 0};
Point(p14 + 21) = {21.02951380031411, -0.2063655196992518, 0};
Point(p14 + 22) = {21.07835698977179, -0.409812045517814, 0};
Point(p14 + 23) = {21.15842488694734, -0.6031130487897229, 0};
Point(p14 + 24) = {21.26774595448219, -0.781508817285178, 0};
Point(p14 + 25) = {21.40362834487779, -0.9406066551222078, 0};
Point(p14 + 26) = {21.56272618271482, -1.076489045517814, 0};
Point(p14 + 27) = {21.74112195121027, -1.185810113052657, 0};
Point(p14 + 28) = {21.93442295448219, -1.265878010228208, 0};
Point(p14 + 29) = {22.13786948030075, -1.314721199685889, 0};
Point(p14 + 30) = {22.346452, -1.331137, 0};
Point(p14 + 31) = {22.55503451969925, -1.314721199685889, 0};
Point(p14 + 32) = {22.75848104551781, -1.265878010228208, 0};
Point(p14 + 33) = {22.95178204878972, -1.185810113052657, 0};
Point(p14 + 34) = {23.13017781728518, -1.076489045517814, 0};
Point(p14 + 35) = {23.28927565512221, -0.940606655122208, 0};
Point(p14 + 36) = {23.42515804551781, -0.7815088172851784, 0};
Point(p14 + 37) = {23.53447911305265, -0.6031130487897238, 0};
Point(p14 + 38) = {23.61454701022821, -0.4098120455178139, 0};
Point(p14 + 39) = {23.66339019968589, -0.2063655196992523, 0};
Spline(14) = {10, p14 + 1, p14 + 2, p14 + 3, p14 + 4, p14 + 5, p14 + 6, p14 + 7, p14 + 8, p14 + 9, p14 + 10, p14 + 11, p14 + 12, p14 + 13, p14 + 14, p14 + 15, p14 + 16, p14 + 17, p14 + 18, p14 + 19, p14 + 20, p14 + 21, p14 + 22, p14 + 23, p14 + 24, p14 + 25, p14 + 26, p14 + 27, p14 + 28, p14 + 29, p14 + 30, p14 + 31, p14 + 32, p14 + 33, p14 + 34, p14 + 35, p14 + 36, p14 + 37, p14 + 38, p14 + 39, 10};
Line(15) = {10, 8};
Curve Loop(1) = {-1, 4, 3, -2};
Plane Surface(1) = {1};
Curve Loop(2) = {-5, 1, 7, -6};
Plane Surface(2) = {2};
Curve Loop(3) = {-2, 7, 9, -8, -10};
Plane Surface(3) = {3};
Curve Loop(4) = {-11, 3, 8, -12};
Plane Surface(4) = {4};
Curve Loop(5) = {-4, 5, 13, -11, -14};
Plane Surface(5) = {5};
Curve Loop(6) = {-6, 13, 12, -9};
Plane Surface(6) = {6};
Curve Loop(7) = {-10, -15, 14, 15};
Surface(7) = {7};
Surface Loop(1) = {1, 2, 3, 4, 5, 6, 7};
Volume(1) = {1};
Physical Surface("INFLOW") = {1};
Physical Surface("OUTFLOW") = {6};
Physical Surface("OBSTACLE") = {7};
Physical Surface("WALL_Y") = {2, 4};
Physical Surface("WALL_Z") = {3, 5};
Physical Volume("FLUID") = {1};
