cl__1 = 3.902278;
cl__2 = 1.435551;
cl__3 = 0.091089;
cl__4 = 0.091959;
Point(1) = {0.276201, -4.275031, 1, cl__1};
Point(2) = {0.276201, -4.275031, 0, cl__1};
Point(3) = {0.276201, 5.191345999999999, 1, cl__2};
Point(4) = {0.276201, 5.191345999999999, 0, cl__2};
Point(5) = {38.734663, -4.275031, 0, cl__1};
Point(6) = {38.734663, -4.275031, 1, cl__1};
Point(7) = {38.734663, 5.191345999999999, 1, cl__2};
Point(8) = {21.658472, -1.477993, 1, cl__3};
Point(9) = {25.053533, 0.2135799999999998, 1, cl__4};
Point(10) = {38.734663, 5.191345999999999, 0, cl__2};
Point(11) = {21.658472, -1.477993, 0, cl__3};
Point(12) = {25.053533, 0.2135799999999998, 0, cl__4};
Line(1) = {2, 1};
Line(2) = {1, 3};
Line(3) = {4, 3};
Line(4) = {2, 4};
Line(5) = {2, 5};
Line(6) = {5, 6};
Line(7) = {1, 6};
Line(8) = {3, 7};
Line(9) = {6, 7};
p10 = newp;
Point(p10 + 1) = {21.64725743256471, -1.335498410139504, 1};
Point(p10 + 2) = {21.61388987012809, -1.196512509993804, 1};
Point(p10 + 3) = {21.55919093281794, -1.064457593692244, 1};
Point(p10 + 4) = {21.4845074900062, -0.942585291539309, 1};
Point(p10 + 5) = {21.39167849591502, -0.8338965040849857, 1};
Point(p10 + 6) = {21.28298970846069, -0.741067509993804, 1};
Point(p10 + 7) = {21.16111740630776, -0.6663840671820576, 1};
Point(p10 + 8) = {21.0290624900062, -0.6116851298719075, 1};
Point(p10 + 9) = {20.8900765898605, -0.5783175674352948, 1};
Point(p10 + 10) = {20.747582, -0.5671029999999999, 1};
Point(p10 + 11) = {20.6050874101395, -0.5783175674352949, 1};
Point(p10 + 12) = {20.46610150999381, -0.6116851298719074, 1};
Point(p10 + 13) = {20.33404659369225, -0.6663840671820574, 1};
Point(p10 + 14) = {20.21217429153931, -0.741067509993804, 1};
Point(p10 + 15) = {20.10348550408499, -0.8338965040849856, 1};
Point(p10 + 16) = {20.0106565099938, -0.9425852915393089, 1};
Point(p10 + 17) = {19.93597306718206, -1.064457593692244, 1};
Point(p10 + 18) = {19.88127412987191, -1.196512509993804, 1};
Point(p10 + 19) = {19.8479065674353, -1.335498410139504, 1};
Point(p10 + 20) = {19.836692, -1.477993, 1};
Point(p10 + 21) = {19.8479065674353, -1.620487589860496, 1};
Point(p10 + 22) = {19.88127412987191, -1.759473490006196, 1};
Point(p10 + 23) = {19.93597306718206, -1.891528406307755, 1};
Point(p10 + 24) = {20.0106565099938, -2.013400708460691, 1};
Point(p10 + 25) = {20.10348550408499, -2.122089495915014, 1};
Point(p10 + 26) = {20.21217429153931, -2.214918490006196, 1};
Point(p10 + 27) = {20.33404659369225, -2.289601932817942, 1};
Point(p10 + 28) = {20.46610150999381, -2.344300870128092, 1};
Point(p10 + 29) = {20.6050874101395, -2.377668432564705, 1};
Point(p10 + 30) = {20.747582, -2.388883, 1};
Point(p10 + 31) = {20.8900765898605, -2.377668432564705, 1};
Point(p10 + 32) = {21.0290624900062, -2.344300870128092, 1};
Point(p10 + 33) = {21.16111740630776, -2.289601932817942, 1};
Point(p10 + 34) = {21.28298970846069, -2.214918490006196, 1};
Point(p10 + 35) = {21.39167849591502, -2.122089495915014, 1};
Point(p10 + 36) = {21.4845074900062, -2.013400708460691, 1};
Point(p10 + 37) = {21.55919093281794, -1.891528406307756, 1};
Point(p10 + 38) = {21.61388987012809, -1.759473490006196, 1};
Point(p10 + 39) = {21.64725743256471, -1.620487589860496, 1};
Spline(10) = {8, p10 + 1, p10 + 2, p10 + 3, p10 + 4, p10 + 5, p10 + 6, p10 + 7, p10 + 8, p10 + 9, p10 + 10, p10 + 11, p10 + 12, p10 + 13, p10 + 14, p10 + 15, p10 + 16, p10 + 17, p10 + 18, p10 + 19, p10 + 20, p10 + 21, p10 + 22, p10 + 23, p10 + 24, p10 + 25, p10 + 26, p10 + 27, p10 + 28, p10 + 29, p10 + 30, p10 + 31, p10 + 32, p10 + 33, p10 + 34, p10 + 35, p10 + 36, p10 + 37, p10 + 38, p10 + 39, 8};
p11 = newp;
Point(p11 + 1) = {25.04221127188125, 0.3574361954442061, 1};
Point(p11 + 2) = {25.00852486604593, 0.4977501739252354, 1};
Point(p11 + 3) = {24.95330325360448, 0.6310669396174888, 1};
Point(p11 + 4) = {24.87790617392524, 0.7541037912966445, 1};
Point(p11 + 5) = {24.78419015333846, 0.8638311533384619, 1};
Point(p11 + 6) = {24.67446279129665, 0.9575471739252355, 1};
Point(p11 + 7) = {24.55142593961749, 1.032944253604478, 1};
Point(p11 + 8) = {24.41810917392524, 1.088165866045925, 1};
Point(p11 + 9) = {24.27779519544421, 1.121852271881245, 1};
Point(p11 + 10) = {24.133939, 1.133174, 1};
Point(p11 + 11) = {23.99008280455579, 1.121852271881245, 1};
Point(p11 + 12) = {23.84976882607477, 1.088165866045926, 1};
Point(p11 + 13) = {23.71645206038251, 1.032944253604478, 1};
Point(p11 + 14) = {23.59341520870336, 0.9575471739252355, 1};
Point(p11 + 15) = {23.48368784666154, 0.8638311533384621, 1};
Point(p11 + 16) = {23.38997182607477, 0.7541037912966446, 1};
Point(p11 + 17) = {23.31457474639553, 0.6310669396174888, 1};
Point(p11 + 18) = {23.25935313395408, 0.4977501739252355, 1};
Point(p11 + 19) = {23.22566672811876, 0.3574361954442061, 1};
Point(p11 + 20) = {23.214345, 0.2135800000000001, 1};
Point(p11 + 21) = {23.22566672811876, 0.06972380455579405, 1};
Point(p11 + 22) = {23.25935313395408, -0.0705901739252357, 1};
Point(p11 + 23) = {23.31457474639552, -0.2039069396174883, 1};
Point(p11 + 24) = {23.38997182607477, -0.3269437912966444, 1};
Point(p11 + 25) = {23.48368784666154, -0.436671153338462, 1};
Point(p11 + 26) = {23.59341520870336, -0.5303871739252354, 1};
Point(p11 + 27) = {23.71645206038251, -0.605784253604478, 1};
Point(p11 + 28) = {23.84976882607477, -0.6610058660459255, 1};
Point(p11 + 29) = {23.99008280455579, -0.694692271881245, 1};
Point(p11 + 30) = {24.133939, -0.706014, 1};
Point(p11 + 31) = {24.27779519544421, -0.6946922718812452, 1};
Point(p11 + 32) = {24.41810917392524, -0.6610058660459256, 1};
Point(p11 + 33) = {24.55142593961749, -0.605784253604478, 1};
Point(p11 + 34) = {24.67446279129664, -0.5303871739252356, 1};
Point(p11 + 35) = {24.78419015333846, -0.4366711533384622, 1};
Point(p11 + 36) = {24.87790617392524, -0.3269437912966447, 1};
Point(p11 + 37) = {24.95330325360448, -0.203906939617489, 1};
Point(p11 + 38) = {25.00852486604593, -0.07059017392523559, 1};
Point(p11 + 39) = {25.04221127188125, 0.06972380455579372, 1};
Spline(11) = {9, p11 + 1, p11 + 2, p11 + 3, p11 + 4, p11 + 5, p11 + 6, p11 + 7, p11 + 8, p11 + 9, p11 + 10, p11 + 11, p11 + 12, p11 + 13, p11 + 14, p11 + 15, p11 + 16, p11 + 17, p11 + 18, p11 + 19, p11 + 20, p11 + 21, p11 + 22, p11 + 23, p11 + 24, p11 + 25, p11 + 26, p11 + 27, p11 + 28, p11 + 29, p11 + 30, p11 + 31, p11 + 32, p11 + 33, p11 + 34, p11 + 35, p11 + 36, p11 + 37, p11 + 38, p11 + 39, 9};
Line(12) = {4, 10};
Line(13) = {10, 7};
Line(14) = {5, 10};
p15 = newp;
Point(p15 + 1) = {21.64725743256471, -1.335498410139504, 0};
Point(p15 + 2) = {21.61388987012809, -1.196512509993804, 0};
Point(p15 + 3) = {21.55919093281794, -1.064457593692244, 0};
Point(p15 + 4) = {21.4845074900062, -0.942585291539309, 0};
Point(p15 + 5) = {21.39167849591502, -0.8338965040849857, 0};
Point(p15 + 6) = {21.28298970846069, -0.741067509993804, 0};
Point(p15 + 7) = {21.16111740630776, -0.6663840671820576, 0};
Point(p15 + 8) = {21.0290624900062, -0.6116851298719075, 0};
Point(p15 + 9) = {20.8900765898605, -0.5783175674352948, 0};
Point(p15 + 10) = {20.747582, -0.5671029999999999, 0};
Point(p15 + 11) = {20.6050874101395, -0.5783175674352949, 0};
Point(p15 + 12) = {20.46610150999381, -0.6116851298719074, 0};
Point(p15 + 13) = {20.33404659369225, -0.6663840671820574, 0};
Point(p15 + 14) = {20.21217429153931, -0.741067509993804, 0};
Point(p15 + 15) = {20.10348550408499, -0.8338965040849856, 0};
Point(p15 + 16) = {20.0106565099938, -0.9425852915393089, 0};
Point(p15 + 17) = {19.93597306718206, -1.064457593692244, 0};
Point(p15 + 18) = {19.88127412987191, -1.196512509993804, 0};
Point(p15 + 19) = {19.8479065674353, -1.335498410139504, 0};
Point(p15 + 20) = {19.836692, -1.477993, 0};
Point(p15 + 21) = {19.8479065674353, -1.620487589860496, 0};
Point(p15 + 22) = {19.88127412987191, -1.759473490006196, 0};
Point(p15 + 23) = {19.93597306718206, -1.891528406307755, 0};
Point(p15 + 24) = {20.0106565099938, -2.013400708460691, 0};
Point(p15 + 25) = {20.10348550408499, -2.122089495915014, 0};
Point(p15 + 26) = {20.21217429153931, -2.214918490006196, 0};
Point(p15 + 27) = {20.33404659369225, -2.289601932817942, 0};
Point(p15 + 28) = {20.46610150999381, -2.344300870128092, 0};
Point(p15 + 29) = {20.6050874101395, -2.377668432564705, 0};
Point(p15 + 30) = {20.747582, -2.388883, 0};
Point(p15 + 31) = {20.8900765898605, -2.377668432564705, 0};
Point(p15 + 32) = {21.0290624900062, -2.344300870128092, 0};
Point(p15 + 33) = {21.16111740630776, -2.289601932817942, 0};
Point(p15 + 34) = {21.28298970846069, -2.214918490006196, 0};
Point(p15 + 35) = {21.39167849591502, -2.122089495915014, 0};
Point(p15 + 36) = {21.4845074900062, -2.013400708460691, 0};
Point(p15 + 37) = {21.55919093281794, -1.891528406307756, 0};
Point(p15 + 38) = {21.61388987012809, -1.759473490006196, 0};
Point(p15 + 39) = {21.64725743256471, -1.620487589860496, 0};
Spline(15) = {11, p15 + 1, p15 + 2, p15 + 3, p15 + 4, p15 + 5, p15 + 6, p15 + 7, p15 + 8, p15 + 9, p15 + 10, p15 + 11, p15 + 12, p15 + 13, p15 + 14, p15 + 15, p15 + 16, p15 + 17, p15 + 18, p15 + 19, p15 + 20, p15 + 21, p15 + 22, p15 + 23, p15 + 24, p15 + 25, p15 + 26, p15 + 27, p15 + 28, p15 + 29, p15 + 30, p15 + 31, p15 + 32, p15 + 33, p15 + 34, p15 + 35, p15 + 36, p15 + 37, p15 + 38, p15 + 39, 11};
p16 = newp;
Point(p16 + 1) = {25.04221127188125, 0.3574361954442061, 0};
Point(p16 + 2) = {25.00852486604593, 0.4977501739252354, 0};
Point(p16 + 3) = {24.95330325360448, 0.6310669396174888, 0};
Point(p16 + 4) = {24.87790617392524, 0.7541037912966445, 0};
Point(p16 + 5) = {24.78419015333846, 0.8638311533384619, 0};
Point(p16 + 6) = {24.67446279129665, 0.9575471739252355, 0};
Point(p16 + 7) = {24.55142593961749, 1.032944253604478, 0};
Point(p16 + 8) = {24.41810917392524, 1.088165866045925, 0};
Point(p16 + 9) = {24.27779519544421, 1.121852271881245, 0};
Point(p16 + 10) = {24.133939, 1.133174, 0};
Point(p16 + 11) = {23.99008280455579, 1.121852271881245, 0};
Point(p16 + 12) = {23.84976882607477, 1.088165866045926, 0};
Point(p16 + 13) = {23.71645206038251, 1.032944253604478, 0};
Point(p16 + 14) = {23.59341520870336, 0.9575471739252355, 0};
Point(p16 + 15) = {23.48368784666154, 0.8638311533384621, 0};
Point(p16 + 16) = {23.38997182607477, 0.7541037912966446, 0};
Point(p16 + 17) = {23.31457474639553, 0.6310669396174888, 0};
Point(p16 + 18) = {23.25935313395408, 0.4977501739252355, 0};
Point(p16 + 19) = {23.22566672811876, 0.3574361954442061, 0};
Point(p16 + 20) = {23.214345, 0.2135800000000001, 0};
Point(p16 + 21) = {23.22566672811876, 0.06972380455579405, 0};
Point(p16 + 22) = {23.25935313395408, -0.0705901739252357, 0};
Point(p16 + 23) = {23.31457474639552, -0.2039069396174883, 0};
Point(p16 + 24) = {23.38997182607477, -0.3269437912966444, 0};
Point(p16 + 25) = {23.48368784666154, -0.436671153338462, 0};
Point(p16 + 26) = {23.59341520870336, -0.5303871739252354, 0};
Point(p16 + 27) = {23.71645206038251, -0.605784253604478, 0};
Point(p16 + 28) = {23.84976882607477, -0.6610058660459255, 0};
Point(p16 + 29) = {23.99008280455579, -0.694692271881245, 0};
Point(p16 + 30) = {24.133939, -0.706014, 0};
Point(p16 + 31) = {24.27779519544421, -0.6946922718812452, 0};
Point(p16 + 32) = {24.41810917392524, -0.6610058660459256, 0};
Point(p16 + 33) = {24.55142593961749, -0.605784253604478, 0};
Point(p16 + 34) = {24.67446279129664, -0.5303871739252356, 0};
Point(p16 + 35) = {24.78419015333846, -0.4366711533384622, 0};
Point(p16 + 36) = {24.87790617392524, -0.3269437912966447, 0};
Point(p16 + 37) = {24.95330325360448, -0.203906939617489, 0};
Point(p16 + 38) = {25.00852486604593, -0.07059017392523559, 0};
Point(p16 + 39) = {25.04221127188125, 0.06972380455579372, 0};
Spline(16) = {12, p16 + 1, p16 + 2, p16 + 3, p16 + 4, p16 + 5, p16 + 6, p16 + 7, p16 + 8, p16 + 9, p16 + 10, p16 + 11, p16 + 12, p16 + 13, p16 + 14, p16 + 15, p16 + 16, p16 + 17, p16 + 18, p16 + 19, p16 + 20, p16 + 21, p16 + 22, p16 + 23, p16 + 24, p16 + 25, p16 + 26, p16 + 27, p16 + 28, p16 + 29, p16 + 30, p16 + 31, p16 + 32, p16 + 33, p16 + 34, p16 + 35, p16 + 36, p16 + 37, p16 + 38, p16 + 39, 12};
Line(17) = {11, 8};
Line(18) = {12, 9};
Curve Loop(1) = {-1, 4, 3, -2};
Plane Surface(1) = {1};
Curve Loop(2) = {-5, 1, 7, -6};
Plane Surface(2) = {2};
Curve Loop(3) = {-2, 7, 9, -8, -10, -11};
Plane Surface(3) = {3};
Curve Loop(4) = {-12, 3, 8, -13};
Plane Surface(4) = {4};
Curve Loop(5) = {-4, 5, 14, -12, -15, -16};
Plane Surface(5) = {5};
Curve Loop(6) = {-6, 14, 13, -9};
Plane Surface(6) = {6};
Curve Loop(7) = {-10, -17, 15, 17};
Surface(7) = {7};
Curve Loop(8) = {-11, -18, 16, 18};
Surface(8) = {8};
Surface Loop(1) = {1, 2, 3, 4, 5, 6, 7, 8};
Volume(1) = {1};
Physical Surface("INFLOW") = {1};
Physical Surface("OUTFLOW") = {6};
Physical Surface("OBSTACLE") = {7, 8};
Physical Surface("WALL_Y") = {2, 4};
Physical Surface("WALL_Z") = {3, 5};
Physical Volume("FLUID") = {1};
