cl__1 = 3.116876;
cl__2 = 0.510059;
cl__3 = 0.450981;
cl__4 = 0.130713;
cl__5 = 1e+22;
cl__6 = 0.065548;
Point(1) = {0.639427, -4.004003, 1, cl__1};
Point(2) = {0.639427, -4.004003, 0, cl__1};
Point(3) = {0.639427, 4.054023999999999, 1, cl__1};
Point(4) = {0.639427, 4.054023999999999, 0, cl__1};
Point(5) = {32.750293, -4.004003, 0, cl__2};
Point(6) = {32.750293, -4.004003, 1, cl__2};
Point(7) = {32.750293, 4.054023999999999, 1, cl__3};
Point(8) = {21.645031, -1.519944, 1, cl__3};
Point(9) = {20.410622, 0.3616259999999998, 1, cl__4};
Point(10) = {25.44176049252165, 1.85994957271024, 1, cl__5};
Point(11) = {24.98962703532261, 0.3369719920091609, 1, cl__5};
Point(12) = {27.517975, 0.8030249999999997, 1, cl__5};
Point(13) = {32.750293, 4.054023999999999, 0, cl__6};
Point(14) = {21.645031, -1.519944, 0, cl__5};
Point(15) = {20.410622, 0.3616259999999998, 0, cl__5};
Point(16) = {25.44176049252165, 1.85994957271024, 0, cl__5};
Point(17) = {24.98962703532261, 0.3369719920091609, 0, cl__5};
Point(18) = {27.517975, 0.8030249999999997, 0, cl__5};
Line(1) = {2, 1};
Line(2) = {1, 3};
Line(3) = {4, 3};
Line(4) = {2, 4};
Line(5) = {2, 5};
Line(6) = {5, 6};
Line(7) = {1, 6};
Line(8) = {3, 7};
Line(9) = {6, 7};
p10 = newp;
Point(p10 + 1) = {21.63696096580496, -1.417404493289894, 1};
Point(p10 + 2) = {21.61294957424463, -1.317389849544104, 1};
Point(p10 + 3) = {21.57358806546847, -1.222362761221222, 1};
Point(p10 + 4) = {21.5198456504559, -1.134663110612582, 1};
Point(p10 + 5) = {21.45304564582538, -1.056450354174623, 1};
Point(p10 + 6) = {21.37483288938742, -0.9896503495441038, 1};
Point(p10 + 7) = {21.28713323877878, -0.9359079345315328, 1};
Point(p10 + 8) = {21.1921061504559, -0.896546425755369, 1};
Point(p10 + 9) = {21.0920915067101, -0.8725350341950396, 1};
Point(p10 + 10) = {20.989552, -0.8644649999999999, 1};
Point(p10 + 11) = {20.88701249328989, -0.8725350341950396, 1};
Point(p10 + 12) = {20.7869978495441, -0.8965464257553689, 1};
Point(p10 + 13) = {20.69197076122122, -0.9359079345315328, 1};
Point(p10 + 14) = {20.60427111061258, -0.9896503495441038, 1};
Point(p10 + 15) = {20.52605835417462, -1.056450354174623, 1};
Point(p10 + 16) = {20.4592583495441, -1.134663110612582, 1};
Point(p10 + 17) = {20.40551593453153, -1.222362761221222, 1};
Point(p10 + 18) = {20.36615442575537, -1.317389849544104, 1};
Point(p10 + 19) = {20.34214303419504, -1.417404493289894, 1};
Point(p10 + 20) = {20.334073, -1.519944, 1};
Point(p10 + 21) = {20.34214303419504, -1.622483506710105, 1};
Point(p10 + 22) = {20.36615442575537, -1.722498150455896, 1};
Point(p10 + 23) = {20.40551593453153, -1.817525238778778, 1};
Point(p10 + 24) = {20.4592583495441, -1.905224889387418, 1};
Point(p10 + 25) = {20.52605835417462, -1.983437645825377, 1};
Point(p10 + 26) = {20.60427111061258, -2.050237650455896, 1};
Point(p10 + 27) = {20.69197076122122, -2.103980065468467, 1};
Point(p10 + 28) = {20.7869978495441, -2.143341574244631, 1};
Point(p10 + 29) = {20.88701249328989, -2.16735296580496, 1};
Point(p10 + 30) = {20.989552, -2.175423, 1};
Point(p10 + 31) = {21.0920915067101, -2.16735296580496, 1};
Point(p10 + 32) = {21.1921061504559, -2.143341574244631, 1};
Point(p10 + 33) = {21.28713323877878, -2.103980065468467, 1};
Point(p10 + 34) = {21.37483288938742, -2.050237650455896, 1};
Point(p10 + 35) = {21.45304564582538, -1.983437645825377, 1};
Point(p10 + 36) = {21.5198456504559, -1.905224889387418, 1};
Point(p10 + 37) = {21.57358806546847, -1.817525238778778, 1};
Point(p10 + 38) = {21.61294957424463, -1.722498150455896, 1};
Point(p10 + 39) = {21.63696096580496, -1.622483506710106, 1};
Spline(10) = {8, p10 + 1, p10 + 2, p10 + 3, p10 + 4, p10 + 5, p10 + 6, p10 + 7, p10 + 8, p10 + 9, p10 + 10, p10 + 11, p10 + 12, p10 + 13, p10 + 14, p10 + 15, p10 + 16, p10 + 17, p10 + 18, p10 + 19, p10 + 20, p10 + 21, p10 + 22, p10 + 23, p10 + 24, p10 + 25, p10 + 26, p10 + 27, p10 + 28, p10 + 29, p10 + 30, p10 + 31, p10 + 32, p10 + 33, p10 + 34, p10 + 35, p10 + 36, p10 + 37, p10 + 38, p10 + 39, 8};
p11 = newp;
Point(p11 + 1) = {20.4017521757867, 0.474327802428049, 1};
Point(p11 + 2) = {20.3753611076562, 0.5842545124444815, 1};
Point(p11 + 3) = {20.33209863129279, 0.6886993696228588, 1};
Point(p11 + 4) = {20.27303001244448, 0.7850905949468416, 1};
Point(p11 + 5) = {20.19960971654482, 0.8710547165448175, 1};
Point(p11 + 6) = {20.11364559494684, 0.9444750124444815, 1};
Point(p11 + 7) = {20.01725436962286, 1.003543631292792, 1};
Point(p11 + 8) = {19.91280951244448, 1.046806107656197, 1};
Point(p11 + 9) = {19.80288280242805, 1.073197175786702, 1};
Point(p11 + 10) = {19.690181, 1.082067, 1};
Point(p11 + 11) = {19.57747919757195, 1.073197175786702, 1};
Point(p11 + 12) = {19.46755248755552, 1.046806107656197, 1};
Point(p11 + 13) = {19.36310763037714, 1.003543631292792, 1};
Point(p11 + 14) = {19.26671640505316, 0.9444750124444815, 1};
Point(p11 + 15) = {19.18075228345518, 0.8710547165448175, 1};
Point(p11 + 16) = {19.10733198755552, 0.7850905949468417, 1};
Point(p11 + 17) = {19.04826336870721, 0.6886993696228589, 1};
Point(p11 + 18) = {19.0050008923438, 0.5842545124444816, 1};
Point(p11 + 19) = {18.9786098242133, 0.4743278024280491, 1};
Point(p11 + 20) = {18.96974, 0.3616260000000001, 1};
Point(p11 + 21) = {18.9786098242133, 0.2489241975719511, 1};
Point(p11 + 22) = {19.0050008923438, 0.1389974875555183, 1};
Point(p11 + 23) = {19.04826336870721, 0.03455263037714157, 1};
Point(p11 + 24) = {19.10733198755552, -0.06183859494684157, 1};
Point(p11 + 25) = {19.18075228345518, -0.1478027165448175, 1};
Point(p11 + 26) = {19.26671640505316, -0.2212230124444814, 1};
Point(p11 + 27) = {19.36310763037714, -0.2802916312927919, 1};
Point(p11 + 28) = {19.46755248755552, -0.3235541076561967, 1};
Point(p11 + 29) = {19.57747919757195, -0.3499451757867016, 1};
Point(p11 + 30) = {19.690181, -0.358815, 1};
Point(p11 + 31) = {19.80288280242805, -0.3499451757867017, 1};
Point(p11 + 32) = {19.91280951244448, -0.3235541076561967, 1};
Point(p11 + 33) = {20.01725436962286, -0.280291631292792, 1};
Point(p11 + 34) = {20.11364559494684, -0.2212230124444816, 1};
Point(p11 + 35) = {20.19960971654482, -0.1478027165448176, 1};
Point(p11 + 36) = {20.27303001244448, -0.0618385949468418, 1};
Point(p11 + 37) = {20.33209863129279, 0.03455263037714107, 1};
Point(p11 + 38) = {20.3753611076562, 0.1389974875555184, 1};
Point(p11 + 39) = {20.4017521757867, 0.2489241975719509, 1};
Spline(11) = {9, p11 + 1, p11 + 2, p11 + 3, p11 + 4, p11 + 5, p11 + 6, p11 + 7, p11 + 8, p11 + 9, p11 + 10, p11 + 11, p11 + 12, p11 + 13, p11 + 14, p11 + 15, p11 + 16, p11 + 17, p11 + 18, p11 + 19, p11 + 20, p11 + 21, p11 + 22, p11 + 23, p11 + 24, p11 + 25, p11 + 26, p11 + 27, p11 + 28, p11 + 29, p11 + 30, p11 + 31, p11 + 32, p11 + 33, p11 + 34, p11 + 35, p11 + 36, p11 + 37, p11 + 38, p11 + 39, 9};
p12 = newp;
Point(p12 + 1) = {25.37604483033253, 2.023542385931819, 1};
Point(p12 + 2) = {25.29018110860805, 2.177518286923903, 1};
Point(p12 + 3) = {25.18554627079111, 2.31940805931687, 1};
Point(p12 + 4) = {25.06381828111319, 2.44693630451641, 1};
Point(p12 + 5) = {24.92694921611882, 2.558057930864625, 1};
Point(p12 + 6) = {24.77713396042049, 2.650990949511117, 1};
Point(p12 + 7) = {24.61677500869046, 2.724245051066933, 1};
Point(p12 + 8) = {24.44844393833842, 2.77664550477526, 1};
Point(p12 + 9) = {24.27484017071374, 2.8073519969426, 1};
Point(p12 + 10) = {24.09874768215356, 2.815872106530175, 1};
Point(p12 + 11) = {23.92299035907462, 2.802069201805816, 1};
Point(p12 + 12) = {23.750386713052, 2.766164631422619, 1};
Point(p12 + 13) = {23.58370468209073, 2.708734174787383, 1};
Point(p12 + 14) = {23.42561724291458, 2.630698808642086, 1};
Point(p12 + 15) = {23.27865954609016, 2.53330993792902, 1};
Point(p12 + 16) = {23.145188261384, 2.418129327783083, 1};
Point(p12 + 17) = {23.02734378530586, 2.287004058469454, 1};
Point(p12 + 18) = {22.92701591689264, 2.142036904898846, 1};
Point(p12 + 19) = {22.84581355216911, 1.985552615725743, 1};
Point(p12 + 20) = {22.78503888327661, 1.820060632790885, 1};
Point(p12 + 21) = {22.74566651602242, 1.648214848753263, 1};
Point(p12 + 22) = {22.72832784072872, 1.472771048253606, 1};
Point(p12 + 23) = {22.73330090701617, 1.296542715099131, 1};
Point(p12 + 24) = {22.76050596489398, 1.122355914162411, 1};
Point(p12 + 25) = {22.80950674366127, 0.9530039715254771, 1};
Point(p12 + 26) = {22.87951744811062, 0.7912026796356703, 1};
Point(p12 + 27) = {22.96941535984023, 0.6395467458204764, 1};
Point(p12 + 28) = {23.07775884159514, 0.5004681825696068, 1};
Point(p12 + 29) = {23.20281045591296, 0.3761973068536393, 1};
Point(p12 + 30) = {23.3425648273347, 0.2687269739090647, 1};
Point(p12 + 31) = {23.4947808013718, 0.1797806190504083, 1};
Point(p12 + 32) = {23.65701738451559, 0.1107846200031479, 1};
Point(p12 + 33) = {23.82667288894177, 0.06284542296560613, 1};
Point(p12 + 34) = {24.00102665417016, 0.03673179921503489, 1};
Point(p12 + 35) = {24.17728267661558, 0.03286251679773033, 1};
Point(p12 + 36) = {24.3526144473694, 0.05129962500466578, 1};
Point(p12 + 37) = {24.5242102791762, 0.09174745932535711, 1};
Point(p12 + 38) = {24.68931839572473, 0.1535573828369032, 1};
Point(p12 + 39) = {24.84529106018399, 0.2357381879934708, 1};
Spline(12) = {10, p12 + 1, p12 + 2, p12 + 3, p12 + 4, p12 + 5, p12 + 6, p12 + 7, p12 + 8, p12 + 9, p12 + 10, p12 + 11, p12 + 12, p12 + 13, p12 + 14, p12 + 15, p12 + 16, p12 + 17, p12 + 18, p12 + 19, p12 + 20, p12 + 21, p12 + 22, p12 + 23, p12 + 24, p12 + 25, p12 + 26, p12 + 27, p12 + 28, p12 + 29, p12 + 30, p12 + 31, p12 + 32, p12 + 33, p12 + 34, p12 + 35, p12 + 36, p12 + 37, p12 + 38, p12 + 39, 11};
p13 = newp;
Point(p13 + 1) = {26.210847, 0.803025, 1};
Circle(13) = {11, p13 + 1, 12};
p14 = newp;
Point(p14 + 1) = {26.210847, 0.803025, 1};
Circle(14) = {12, p14 + 1, 10};
Line(15) = {4, 13};
Line(16) = {13, 7};
Line(17) = {5, 13};
p18 = newp;
Point(p18 + 1) = {21.63696096580496, -1.417404493289894, 0};
Point(p18 + 2) = {21.61294957424463, -1.317389849544104, 0};
Point(p18 + 3) = {21.57358806546847, -1.222362761221222, 0};
Point(p18 + 4) = {21.5198456504559, -1.134663110612582, 0};
Point(p18 + 5) = {21.45304564582538, -1.056450354174623, 0};
Point(p18 + 6) = {21.37483288938742, -0.9896503495441038, 0};
Point(p18 + 7) = {21.28713323877878, -0.9359079345315328, 0};
Point(p18 + 8) = {21.1921061504559, -0.896546425755369, 0};
Point(p18 + 9) = {21.0920915067101, -0.8725350341950396, 0};
Point(p18 + 10) = {20.989552, -0.8644649999999999, 0};
Point(p18 + 11) = {20.88701249328989, -0.8725350341950396, 0};
Point(p18 + 12) = {20.7869978495441, -0.8965464257553689, 0};
Point(p18 + 13) = {20.69197076122122, -0.9359079345315328, 0};
Point(p18 + 14) = {20.60427111061258, -0.9896503495441038, 0};
Point(p18 + 15) = {20.52605835417462, -1.056450354174623, 0};
Point(p18 + 16) = {20.4592583495441, -1.134663110612582, 0};
Point(p18 + 17) = {20.40551593453153, -1.222362761221222, 0};
Point(p18 + 18) = {20.36615442575537, -1.317389849544104, 0};
Point(p18 + 19) = {20.34214303419504, -1.417404493289894, 0};
Point(p18 + 20) = {20.334073, -1.519944, 0};
Point(p18 + 21) = {20.34214303419504, -1.622483506710105, 0};
Point(p18 + 22) = {20.36615442575537, -1.722498150455896, 0};
Point(p18 + 23) = {20.40551593453153, -1.817525238778778, 0};
Point(p18 + 24) = {20.4592583495441, -1.905224889387418, 0};
Point(p18 + 25) = {20.52605835417462, -1.983437645825377, 0};
Point(p18 + 26) = {20.60427111061258, -2.050237650455896, 0};
Point(p18 + 27) = {20.69197076122122, -2.103980065468467, 0};
Point(p18 + 28) = {20.7869978495441, -2.143341574244631, 0};
Point(p18 + 29) = {20.88701249328989, -2.16735296580496, 0};
Point(p18 + 30) = {20.989552, -2.175423, 0};
Point(p18 + 31) = {21.0920915067101, -2.16735296580496, 0};
Point(p18 + 32) = {21.1921061504559, -2.143341574244631, 0};
Point(p18 + 33) = {21.28713323877878, -2.103980065468467, 0};
Point(p18 + 34) = {21.37483288938742, -2.050237650455896, 0};
Point(p18 + 35) = {21.45304564582538, -1.983437645825377, 0};
Point(p18 + 36) = {21.5198456504559, -1.905224889387418, 0};
Point(p18 + 37) = {21.57358806546847, -1.817525238778778, 0};
Point(p18 + 38) = {21.61294957424463, -1.722498150455896, 0};
Point(p18 + 39) = {21.63696096580496, -1.622483506710106, 0};
Spline(18) = {14, p18 + 1, p18 + 2, p18 + 3, p18 + 4, p18 + 5, p18 + 6, p18 + 7, p18 + 8, p18 + 9, p18 + 10, p18 + 11, p18 + 12, p18 + 13, p18 + 14, p18 + 15, p18 + 16, p18 + 17, p18 + 18, p18 + 19, p18 + 20, p18 + 21, p18 + 22, p18 + 23, p18 + 24, p18 + 25, p18 + 26, p18 + 27, p18 + 28, p18 + 29, p18 + 30, p18 + 31, p18 + 32, p18 + 33, p18 + 34, p18 + 35, p18 + 36, p18 + 37, p18 + 38, p18 + 39, 14};
p19 = newp;
Point(p19 + 1) = {20.4017521757867, 0.474327802428049, 0};
Point(p19 + 2) = {20.3753611076562, 0.5842545124444815, 0};
Point(p19 + 3) = {20.33209863129279, 0.6886993696228588, 0};
Point(p19 + 4) = {20.27303001244448, 0.7850905949468416, 0};
Point(p19 + 5) = {20.19960971654482, 0.8710547165448175, 0};
Point(p19 + 6) = {20.11364559494684, 0.9444750124444815, 0};
Point(p19 + 7) = {20.01725436962286, 1.003543631292792, 0};
Point(p19 + 8) = {19.91280951244448, 1.046806107656197, 0};
Point(p19 + 9) = {19.80288280242805, 1.073197175786702, 0};
Point(p19 + 10) = {19.690181, 1.082067, 0};
Point(p19 + 11) = {19.57747919757195, 1.073197175786702, 0};
Point(p19 + 12) = {19.46755248755552, 1.046806107656197, 0};
Point(p19 + 13) = {19.36310763037714, 1.003543631292792, 0};
Point(p19 + 14) = {19.26671640505316, 0.9444750124444815, 0};
Point(p19 + 15) = {19.18075228345518, 0.8710547165448175, 0};
Point(p19 + 16) = {19.10733198755552, 0.7850905949468417, 0};
Point(p19 + 17) = {19.04826336870721, 0.6886993696228589, 0};
Point(p19 + 18) = {19.0050008923438, 0.5842545124444816, 0};
Point(p19 + 19) = {18.9786098242133, 0.4743278024280491, 0};
Point(p19 + 20) = {18.96974, 0.3616260000000001, 0};
Point(p19 + 21) = {18.9786098242133, 0.2489241975719511, 0};
Point(p19 + 22) = {19.0050008923438, 0.1389974875555183, 0};
Point(p19 + 23) = {19.04826336870721, 0.03455263037714157, 0};
Point(p19 + 24) = {19.10733198755552, -0.06183859494684157, 0};
Point(p19 + 25) = {19.18075228345518, -0.1478027165448175, 0};
Point(p19 + 26) = {19.26671640505316, -0.2212230124444814, 0};
Point(p19 + 27) = {19.36310763037714, -0.2802916312927919, 0};
Point(p19 + 28) = {19.46755248755552, -0.3235541076561967, 0};
Point(p19 + 29) = {19.57747919757195, -0.3499451757867016, 0};
Point(p19 + 30) = {19.690181, -0.358815, 0};
Point(p19 + 31) = {19.80288280242805, -0.3499451757867017, 0};
Point(p19 + 32) = {19.91280951244448, -0.3235541076561967, 0};
Point(p19 + 33) = {20.01725436962286, -0.280291631292792, 0};
Point(p19 + 34) = {20.11364559494684, -0.2212230124444816, 0};
Point(p19 + 35) = {20.19960971654482, -0.1478027165448176, 0};
Point(p19 + 36) = {20.27303001244448, -0.0618385949468418, 0};
Point(p19 + 37) = {20.33209863129279, 0.03455263037714107, 0};
Point(p19 + 38) = {20.3753611076562, 0.1389974875555184, 0};
Point(p19 + 39) = {20.4017521757867, 0.2489241975719509, 0};
Spline(19) = {15, p19 + 1, p19 + 2, p19 + 3, p19 + 4, p19 + 5, p19 + 6, p19 + 7, p19 + 8, p19 + 9, p19 + 10, p19 + 11, p19 + 12, p19 + 13, p19 + 14, p19 + 15, p19 + 16, p19 + 17, p19 + 18, p19 + 19, p19 + 20, p19 + 21, p19 + 22, p19 + 23, p19 + 24, p19 + 25, p19 + 26, p19 + 27, p19 + 28, p19 + 29, p19 + 30, p19 + 31, p19 + 32, p19 + 33, p19 + 34, p19 + 35, p19 + 36, p19 + 37, p19 + 38, p19 + 39, 15};
p20 = newp;
Point(p20 + 1) = {25.37604483033253, 2.023542385931819, 0};
Point(p20 + 2) = {25.29018110860805, 2.177518286923903, 0};
Point(p20 + 3) = {25.18554627079111, 2.31940805931687, 0};
Point(p20 + 4) = {25.06381828111319, 2.44693630451641, 0};
Point(p20 + 5) = {24.92694921611882, 2.558057930864625, 0};
Point(p20 + 6) = {24.77713396042049, 2.650990949511117, 0};
Point(p20 + 7) = {24.61677500869046, 2.724245051066933, 0};
Point(p20 + 8) = {24.44844393833842, 2.77664550477526, 0};
Point(p20 + 9) = {24.27484017071374, 2.8073519969426, 0};
Point(p20 + 10) = {24.09874768215356, 2.815872106530175, 0};
Point(p20 + 11) = {23.92299035907462, 2.802069201805816, 0};
Point(p20 + 12) = {23.750386713052, 2.766164631422619, 0};
Point(p20 + 13) = {23.58370468209073, 2.708734174787383, 0};
Point(p20 + 14) = {23.42561724291458, 2.630698808642086, 0};
Point(p20 + 15) = {23.27865954609016, 2.53330993792902, 0};
Point(p20 + 16) = {23.145188261384, 2.418129327783083, 0};
Point(p20 + 17) = {23.02734378530586, 2.287004058469454, 0};
Point(p20 + 18) = {22.92701591689264, 2.142036904898846, 0};
Point(p20 + 19) = {22.84581355216911, 1.985552615725743, 0};
Point(p20 + 20) = {22.78503888327661, 1.820060632790885, 0};
Point(p20 + 21) = {22.74566651602242, 1.648214848753263, 0};
Point(p20 + 22) = {22.72832784072872, 1.472771048253606, 0};
Point(p20 + 23) = {22.73330090701617, 1.296542715099131, 0};
Point(p20 + 24) = {22.76050596489398, 1.122355914162411, 0};
Point(p20 + 25) = {22.80950674366127, 0.9530039715254771, 0};
Point(p20 + 26) = {22.87951744811062, 0.7912026796356703, 0};
Point(p20 + 27) = {22.96941535984023, 0.6395467458204764, 0};
Point(p20 + 28) = {23.07775884159514, 0.5004681825696068, 0};
Point(p20 + 29) = {23.20281045591296, 0.3761973068536393, 0};
Point(p20 + 30) = {23.3425648273347, 0.2687269739090647, 0};
Point(p20 + 31) = {23.4947808013718, 0.1797806190504083, 0};
Point(p20 + 32) = {23.65701738451559, 0.1107846200031479, 0};
Point(p20 + 33) = {23.82667288894177, 0.06284542296560613, 0};
Point(p20 + 34) = {24.00102665417016, 0.03673179921503489, 0};
Point(p20 + 35) = {24.17728267661558, 0.03286251679773033, 0};
Point(p20 + 36) = {24.3526144473694, 0.05129962500466578, 0};
Point(p20 + 37) = {24.5242102791762, 0.09174745932535711, 0};
Point(p20 + 38) = {24.68931839572473, 0.1535573828369032, 0};
Point(p20 + 39) = {24.84529106018399, 0.2357381879934708, 0};
Spline(20) = {16, p20 + 1, p20 + 2, p20 + 3, p20 + 4, p20 + 5, p20 + 6, p20 + 7, p20 + 8, p20 + 9, p20 + 10, p20 + 11, p20 + 12, p20 + 13, p20 + 14, p20 + 15, p20 + 16, p20 + 17, p20 + 18, p20 + 19, p20 + 20, p20 + 21, p20 + 22, p20 + 23, p20 + 24, p20 + 25, p20 + 26, p20 + 27, p20 + 28, p20 + 29, p20 + 30, p20 + 31, p20 + 32, p20 + 33, p20 + 34, p20 + 35, p20 + 36, p20 + 37, p20 + 38, p20 + 39, 17};
p21 = newp;
Point(p21 + 1) = {26.210847, 0.803025, 0};
Circle(21) = {17, p21 + 1, 18};
p22 = newp;
Point(p22 + 1) = {26.210847, 0.803025, 0};
Circle(22) = {18, p22 + 1, 16};
Line(23) = {14, 8};
Line(24) = {15, 9};
Line(25) = {17, 11};
Line(26) = {16, 10};
Line(27) = {18, 12};
Curve Loop(1) = {-1, 4, 3, -2};
Plane Surface(1) = {1};
Curve Loop(2) = {-5, 1, 7, -6};
Plane Surface(2) = {2};
Curve Loop(3) = {-2, 7, 9, -8, -10, -11, -12, -14, -13};
Plane Surface(3) = {3};
Curve Loop(4) = {-15, 3, 8, -16};
Plane Surface(4) = {4};
Curve Loop(5) = {-4, 5, 17, -15, -18, -19, -20, -22, -21};
Plane Surface(5) = {5};
Curve Loop(6) = {-6, 17, 16, -9};
Plane Surface(6) = {6};
Curve Loop(7) = {-10, -23, 18, 23};
Surface(7) = {7};
Curve Loop(8) = {-11, -24, 19, 24};
Surface(8) = {8};
Curve Loop(9) = {-12, -26, 20, 25};
Surface(9) = {9};
Curve Loop(10) = {27, -13, -25, 21};
Surface(10) = {10};
Curve Loop(11) = {-14, -27, 22, 26};
Surface(11) = {11};
Surface Loop(1) = {1, 2, 3, 4, 5, 6, 7, 8, 9, 10, 11};
Volume(1) = {1};
Physical Surface("INFLOW") = {1};
Physical Surface("OUTFLOW") = {6};
Physical Surface("OBSTACLE") = {7};
Physical Surface("WALL_Y") = {2, 4};
Physical Surface("WALL_Z") = {3, 5};
Physical Volume("FLUID") = {1};
