cl__1 = 1.474247;
cl__2 = 1.414484;
cl__3 = 1.62963;
cl__4 = 1.575356;
cl__5 = 0.119061;
Point(1) = {0.88032, -3.061505, 1, cl__1};
Point(2) = {0.88032, -3.061505, 0, cl__1};
Point(3) = {0.88032, 4.463873, 1, cl__2};
Point(4) = {0.88032, 4.463873, 0, cl__2};
Point(5) = {32.762686, -3.061505, 0, cl__3};
Point(6) = {32.762686, -3.061505, 1, cl__3};
Point(7) = {32.762686, 4.463873, 1, cl__4};
Point(8) = {17.197731, 1.942787, 1, cl__5};
Point(9) = {32.762686, 4.463873, 0, cl__4};
Point(10) = {17.197731, 1.942787, 0, cl__5};
Line(1) = {2, 1};
Line(2) = {1, 3};
Line(3) = {4, 3};
Line(4) = {2, 4};
Line(5) = {2, 5};
Line(6) = {5, 6};
Line(7) = {1, 6};
Line(8) = {3, 7};
Line(9) = {6, 7};
p10 = newp;
Point(p10 + 1) = {17.18307262750763, 2.129039281987084, 1};
Point(p10 + 2) = {17.13945844780966, 2.310705414655762, 1};
Point(p10 + 3) = {17.06796238675739, 2.483312174904402, 1};
Point(p10 + 4) = {16.97034491465576, 2.642609411446689, 1};
Point(p10 + 5) = {16.84900969764173, 2.784674697641734, 1};
Point(p10 + 6) = {16.70694441144669, 2.906009914655762, 1};
Point(p10 + 7) = {16.5476471749044, 3.003627386757389, 1};
Point(p10 + 8) = {16.37504041465576, 3.075123447809657, 1};
Point(p10 + 9) = {16.19337428198708, 3.118737627507636, 1};
Point(p10 + 10) = {16.007122, 3.133396, 1};
Point(p10 + 11) = {15.82086971801291, 3.118737627507636, 1};
Point(p10 + 12) = {15.63920358534424, 3.075123447809657, 1};
Point(p10 + 13) = {15.4665968250956, 3.003627386757389, 1};
Point(p10 + 14) = {15.30729958855331, 2.906009914655762, 1};
Point(p10 + 15) = {15.16523430235826, 2.784674697641734, 1};
Point(p10 + 16) = {15.04389908534424, 2.642609411446689, 1};
Point(p10 + 17) = {14.94628161324261, 2.483312174904402, 1};
Point(p10 + 18) = {14.87478555219034, 2.310705414655762, 1};
Point(p10 + 19) = {14.83117137249236, 2.129039281987084, 1};
Point(p10 + 20) = {14.816513, 1.942787, 1};
Point(p10 + 21) = {14.83117137249236, 1.756534718012916, 1};
Point(p10 + 22) = {14.87478555219034, 1.574868585344238, 1};
Point(p10 + 23) = {14.94628161324261, 1.402261825095599, 1};
Point(p10 + 24) = {15.04389908534424, 1.242964588553311, 1};
Point(p10 + 25) = {15.16523430235826, 1.100899302358266, 1};
Point(p10 + 26) = {15.30729958855331, 0.9795640853442383, 1};
Point(p10 + 27) = {15.4665968250956, 0.8819466132426117, 1};
Point(p10 + 28) = {15.63920358534424, 0.8104505521903436, 1};
Point(p10 + 29) = {15.82086971801291, 0.7668363724923637, 1};
Point(p10 + 30) = {16.007122, 0.752178, 1};
Point(p10 + 31) = {16.19337428198708, 0.7668363724923637, 1};
Point(p10 + 32) = {16.37504041465576, 0.8104505521903433, 1};
Point(p10 + 33) = {16.5476471749044, 0.8819466132426115, 1};
Point(p10 + 34) = {16.70694441144669, 0.9795640853442381, 1};
Point(p10 + 35) = {16.84900969764173, 1.100899302358266, 1};
Point(p10 + 36) = {16.97034491465576, 1.242964588553311, 1};
Point(p10 + 37) = {17.06796238675739, 1.402261825095598, 1};
Point(p10 + 38) = {17.13945844780966, 1.574868585344238, 1};
Point(p10 + 39) = {17.18307262750763, 1.756534718012916, 1};
Spline(10) = {8, p10 + 1, p10 + 2, p10 + 3, p10 + 4, p10 + 5, p10 + 6, p10 + 7, p10 + 8, p10 + 9, p10 + 10, p10 + 11, p10 + 12, p10 + 13, p10 + 14, p10 + 15, p10 + 16, p10 + 17, p10 + 18, p10 + 19, p10 + 20, p10 + 21, p10 + 22, p10 + 23, p10 + 24, p10 + 25, p10 + 26, p10 + 27, p10 + 28, p10 + 29, p10 + 30, p10 + 31, p10 + 32, p10 + 33, p10 + 34, p10 + 35, p10 + 36, p10 + 37, p10 + 38, p10 + 39, 8};
Line(11) = {4, 9};
Line(12) = {9, 7};
Line(13) = {5, 9};
p14 = newp;
Point(p14 + 1) = {17.18307262750763, 2.129039281987084, 0};
Point(p14 + 2) = {17.13945844780966, 2.310705414655762, 0};
Point(p14 + 3) = {17.06796238675739, 2.483312174904402, 0};
Point(p14 + 4) = {16.97034491465576, 2.642609411446689, 0};
Point(p14 + 5) = {16.84900969764173, 2.784674697641734, 0};
Point(p14 + 6) = {16.70694441144669, 2.906009914655762, 0};
Point(p14 + 7) = {16.5476471749044, 3.003627386757389, 0};
Point(p14 + 8) = {16.37504041465576, 3.075123447809657, 0};
Point(p14 + 9) = {16.19337428198708, 3.118737627507636, 0};
Point(p14 + 10) = {16.007122, 3.133396, 0};
Point(p14 + 11) = {15.82086971801291, 3.118737627507636, 0};
Point(p14 + 12) = {15.63920358534424, 3.075123447809657, 0};
Point(p14 + 13) = {15.4665968250956, 3.003627386757389, 0};
Point(p14 + 14) = {15.30729958855331, 2.906009914655762, 0};
Point(p14 + 15) = {15.16523430235826, 2.784674697641734, 0};
Point(p14 + 16) = {15.04389908534424, 2.642609411446689, 0};
Point(p14 + 17) = {14.94628161324261, 2.483312174904402, 0};
Point(p14 + 18) = {14.87478555219034, 2.310705414655762, 0};
Point(p14 + 19) = {14.83117137249236, 2.129039281987084, 0};
Point(p14 + 20) = {14.816513, 1.942787, 0};
Point(p14 + 21) = {14.83117137249236, 1.756534718012916, 0};
Point(p14 + 22) = {14.87478555219034, 1.574868585344238, 0};
Point(p14 + 23) = {14.94628161324261, 1.402261825095599, 0};
Point(p14 + 24) = {15.04389908534424, 1.242964588553311, 0};
Point(p14 + 25) = {15.16523430235826, 1.100899302358266, 0};
Point(p14 + 26) = {15.30729958855331, 0.9795640853442383, 0};
Point(p14 + 27) = {15.4665968250956, 0.8819466132426117, 0};
Point(p14 + 28) = {15.63920358534424, 0.8104505521903436, 0};
Point(p14 + 29) = {15.82086971801291, 0.7668363724923637, 0};
Point(p14 + 30) = {16.007122, 0.752178, 0};
Point(p14 + 31) = {16.19337428198708, 0.7668363724923637, 0};
Point(p14 + 32) = {16.37504041465576, 0.8104505521903433, 0};
Point(p14 + 33) = {16.5476471749044, 0.8819466132426115, 0};
Point(p14 + 34) = {16.70694441144669, 0.9795640853442381, 0};
Point(p14 + 35) = {16.84900969764173, 1.100899302358266, 0};
Point(p14 + 36) = {16.97034491465576, 1.242964588553311, 0};
Point(p14 + 37) = {17.06796238675739, 1.402261825095598, 0};
Point(p14 + 38) = {17.13945844780966, 1.574868585344238, 0};
Point(p14 + 39) = {17.18307262750763, 1.756534718012916, 0};
Spline(14) = {10, p14 + 1, p14 + 2, p14 + 3, p14 + 4, p14 + 5, p14 + 6, p14 + 7, p14 + 8, p14 + 9, p14 + 10, p14 + 11, p14 + 12, p14 + 13, p14 + 14, p14 + 15, p14 + 16, p14 + 17, p14 + 18, p14 + 19, p14 + 20, p14 + 21, p14 + 22, p14 + 23, p14 + 24, p14 + 25, p14 + 26, p14 + 27, p14 + 28, p14 + 29, p14 + 30, p14 + 31, p14 + 32, p14 + 33, p14 + 34, p14 + 35, p14 + 36, p14 + 37, p14 + 38, p14 + 39, 10};
Line(15) = {10, 8};
Curve Loop(1) = {-1, 4, 3, -2};
Plane Surface(1) = {1};
Curve Loop(2) = {-5, 1, 7, -6};
Plane Surface(2) = {2};
Curve Loop(3) = {-2, 7, 9, -8, -10};
Plane Surface(3) = {3};
Curve Loop(4) = {-11, 3, 8, -12};
Plane Surface(4) = {4};
Curve Loop(5) = {-4, 5, 13, -11, -14};
Plane Surface(5) = {5};
Curve Loop(6) = {-6, 13, 12, -9};
Plane Surface(6) = {6};
Curve Loop(7) = {-10, -15, 14, 15};
Surface(7) = {7};
Surface Loop(1) = {1, 2, 3, 4, 5, 6, 7};
Volume(1) = {1};
Physical Surface("INFLOW") = {1};
Physical Surface("OUTFLOW") = {6};
Physical Surface("OBSTACLE") = {7};
Physical Surface("WALL_Y") = {2, 4};
Physical Surface("WALL_Z") = {3, 5};
Physical Volume("FLUID") = {1};
