cl__1 = 3.650399;
cl__2 = 1.101781;
cl__3 = 1.246314;
cl__4 = 0.057297;
Point(1) = {0.638991, -3.614052, 1, cl__1};
Point(2) = {0.638991, -3.614052, 0, cl__1};
Point(3) = {0.638991, 4.610126999999999, 1, cl__1};
Point(4) = {0.638991, 4.610126999999999, 0, cl__1};
Point(5) = {36.27164, -3.614052, 0, cl__2};
Point(6) = {36.27164, -3.614052, 1, cl__2};
Point(7) = {36.27164, 4.610126999999999, 1, cl__3};
Point(8) = {25.418714, -1.66594, 1, cl__4};
Point(9) = {36.27164, 4.610126999999999, 0, cl__3};
Point(10) = {25.418714, -1.66594, 0, cl__4};
Line(1) = {2, 1};
Line(2) = {1, 3};
Line(3) = {4, 3};
Line(4) = {2, 4};
Line(5) = {2, 5};
Line(6) = {5, 6};
Line(7) = {1, 6};
Line(8) = {3, 7};
Line(9) = {6, 7};
p10 = newp;
Point(p10 + 1) = {25.41165975157582, -1.576307275262504, 1};
Point(p10 + 2) = {25.39067070531118, -1.488881605682003, 1};
Point(p10 + 3) = {25.35626368118378, -1.405815701392733, 1};
Point(p10 + 4) = {25.309285894318, -1.329154920638225, 1};
Point(p10 + 5) = {25.2508940937368, -1.2607869062632, 1};
Point(p10 + 6) = {25.18252607936178, -1.202395105682003, 1};
Point(p10 + 7) = {25.10586529860727, -1.155417318816218, 1};
Point(p10 + 8) = {25.022799394318, -1.121010294688817, 1};
Point(p10 + 9) = {24.9353737247375, -1.100021248424182, 1};
Point(p10 + 10) = {24.845741, -1.092967, 1};
Point(p10 + 11) = {24.75610827526251, -1.100021248424182, 1};
Point(p10 + 12) = {24.668682605682, -1.121010294688817, 1};
Point(p10 + 13) = {24.58561670139273, -1.155417318816218, 1};
Point(p10 + 14) = {24.50895592063823, -1.202395105682003, 1};
Point(p10 + 15) = {24.4405879062632, -1.2607869062632, 1};
Point(p10 + 16) = {24.382196105682, -1.329154920638225, 1};
Point(p10 + 17) = {24.33521831881622, -1.405815701392733, 1};
Point(p10 + 18) = {24.30081129468882, -1.488881605682003, 1};
Point(p10 + 19) = {24.27982224842418, -1.576307275262504, 1};
Point(p10 + 20) = {24.272768, -1.66594, 1};
Point(p10 + 21) = {24.27982224842418, -1.755572724737496, 1};
Point(p10 + 22) = {24.30081129468882, -1.842998394317997, 1};
Point(p10 + 23) = {24.33521831881622, -1.926064298607267, 1};
Point(p10 + 24) = {24.382196105682, -2.002725079361775, 1};
Point(p10 + 25) = {24.4405879062632, -2.0710930937368, 1};
Point(p10 + 26) = {24.50895592063823, -2.129484894317997, 1};
Point(p10 + 27) = {24.58561670139273, -2.176462681183782, 1};
Point(p10 + 28) = {24.668682605682, -2.210869705311183, 1};
Point(p10 + 29) = {24.75610827526251, -2.231858751575817, 1};
Point(p10 + 30) = {24.845741, -2.238913, 1};
Point(p10 + 31) = {24.9353737247375, -2.231858751575818, 1};
Point(p10 + 32) = {25.022799394318, -2.210869705311183, 1};
Point(p10 + 33) = {25.10586529860727, -2.176462681183782, 1};
Point(p10 + 34) = {25.18252607936178, -2.129484894317997, 1};
Point(p10 + 35) = {25.2508940937368, -2.0710930937368, 1};
Point(p10 + 36) = {25.309285894318, -2.002725079361775, 1};
Point(p10 + 37) = {25.35626368118378, -1.926064298607267, 1};
Point(p10 + 38) = {25.39067070531118, -1.842998394317997, 1};
Point(p10 + 39) = {25.41165975157582, -1.755572724737496, 1};
Spline(10) = {8, p10 + 1, p10 + 2, p10 + 3, p10 + 4, p10 + 5, p10 + 6, p10 + 7, p10 + 8, p10 + 9, p10 + 10, p10 + 11, p10 + 12, p10 + 13, p10 + 14, p10 + 15, p10 + 16, p10 + 17, p10 + 18, p10 + 19, p10 + 20, p10 + 21, p10 + 22, p10 + 23, p10 + 24, p10 + 25, p10 + 26, p10 + 27, p10 + 28, p10 + 29, p10 + 30, p10 + 31, p10 + 32, p10 + 33, p10 + 34, p10 + 35, p10 + 36, p10 + 37, p10 + 38, p10 + 39, 8};
Line(11) = {4, 9};
Line(12) = {9, 7};
Line(13) = {5, 9};
p14 = newp;
Point(p14 + 1) = {25.41165975157582, -1.576307275262504, 0};
Point(p14 + 2) = {25.39067070531118, -1.488881605682003, 0};
Point(p14 + 3) = {25.35626368118378, -1.405815701392733, 0};
Point(p14 + 4) = {25.309285894318, -1.329154920638225, 0};
Point(p14 + 5) = {25.2508940937368, -1.2607869062632, 0};
Point(p14 + 6) = {25.18252607936178, -1.202395105682003, 0};
Point(p14 + 7) = {25.10586529860727, -1.155417318816218, 0};
Point(p14 + 8) = {25.022799394318, -1.121010294688817, 0};
Point(p14 + 9) = {24.9353737247375, -1.100021248424182, 0};
Point(p14 + 10) = {24.845741, -1.092967, 0};
Point(p14 + 11) = {24.75610827526251, -1.100021248424182, 0};
Point(p14 + 12) = {24.668682605682, -1.121010294688817, 0};
Point(p14 + 13) = {24.58561670139273, -1.155417318816218, 0};
Point(p14 + 14) = {24.50895592063823, -1.202395105682003, 0};
Point(p14 + 15) = {24.4405879062632, -1.2607869062632, 0};
Point(p14 + 16) = {24.382196105682, -1.329154920638225, 0};
Point(p14 + 17) = {24.33521831881622, -1.405815701392733, 0};
Point(p14 + 18) = {24.30081129468882, -1.488881605682003, 0};
Point(p14 + 19) = {24.27982224842418, -1.576307275262504, 0};
Point(p14 + 20) = {24.272768, -1.66594, 0};
Point(p14 + 21) = {24.27982224842418, -1.755572724737496, 0};
Point(p14 + 22) = {24.30081129468882, -1.842998394317997, 0};
Point(p14 + 23) = {24.33521831881622, -1.926064298607267, 0};
Point(p14 + 24) = {24.382196105682, -2.002725079361775, 0};
Point(p14 + 25) = {24.4405879062632, -2.0710930937368, 0};
Point(p14 + 26) = {24.50895592063823, -2.129484894317997, 0};
Point(p14 + 27) = {24.58561670139273, -2.176462681183782, 0};
Point(p14 + 28) = {24.668682605682, -2.210869705311183, 0};
Point(p14 + 29) = {24.75610827526251, -2.231858751575817, 0};
Point(p14 + 30) = {24.845741, -2.238913, 0};
Point(p14 + 31) = {24.9353737247375, -2.231858751575818, 0};
Point(p14 + 32) = {25.022799394318, -2.210869705311183, 0};
Point(p14 + 33) = {25.10586529860727, -2.176462681183782, 0};
Point(p14 + 34) = {25.18252607936178, -2.129484894317997, 0};
Point(p14 + 35) = {25.2508940937368, -2.0710930937368, 0};
Point(p14 + 36) = {25.309285894318, -2.002725079361775, 0};
Point(p14 + 37) = {25.35626368118378, -1.926064298607267, 0};
Point(p14 + 38) = {25.39067070531118, -1.842998394317997, 0};
Point(p14 + 39) = {25.41165975157582, -1.755572724737496, 0};
Spline(14) = {10, p14 + 1, p14 + 2, p14 + 3, p14 + 4, p14 + 5, p14 + 6, p14 + 7, p14 + 8, p14 + 9, p14 + 10, p14 + 11, p14 + 12, p14 + 13, p14 + 14, p14 + 15, p14 + 16, p14 + 17, p14 + 18, p14 + 19, p14 + 20, p14 + 21, p14 + 22, p14 + 23, p14 + 24, p14 + 25, p14 + 26, p14 + 27, p14 + 28, p14 + 29, p14 + 30, p14 + 31, p14 + 32, p14 + 33, p14 + 34, p14 + 35, p14 + 36, p14 + 37, p14 + 38, p14 + 39, 10};
Line(15) = {10, 8};
Curve Loop(1) = {-1, 4, 3, -2};
Plane Surface(1) = {1};
Curve Loop(2) = {-5, 1, 7, -6};
Plane Surface(2) = {2};
Curve Loop(3) = {-2, 7, 9, -8, -10};
Plane Surface(3) = {3};
Curve Loop(4) = {-11, 3, 8, -12};
Plane Surface(4) = {4};
Curve Loop(5) = {-4, 5, 13, -11, -14};
Plane Surface(5) = {5};
Curve Loop(6) = {-6, 13, 12, -9};
Plane Surface(6) = {6};
Curve Loop(7) = {-10, -15, 14, 15};
Surface(7) = {7};
Surface Loop(1) = {1, 2, 3, 4, 5, 6, 7};
Volume(1) = {1};
Physical Surface("INFLOW") = {1};
Physical Surface("OUTFLOW") = {6};
Physical Surface("OBSTACLE") = {7};
Physical Surface("WALL_Y") = {2, 4};
Physical Surface("WALL_Z") = {3, 5};
Physical Volume("FLUID") = {1};
