cl__1 = 0.315891;
cl__2 = 1.755931;
cl__3 = 3.715307;
cl__4 = 0.10527;
cl__5 = 0.128438;
Point(1) = {0.990233, -4.583977, 1, cl__1};
Point(2) = {0.990233, -4.583977, 0, cl__1};
Point(3) = {0.990233, 5.035691000000001, 1, cl__2};
Point(4) = {0.990233, 5.035691000000001, 0, cl__2};
Point(5) = {36.840416, -4.583977, 0, cl__1};
Point(6) = {36.840416, -4.583977, 1, cl__1};
Point(7) = {36.840416, 5.035691000000001, 1, cl__3};
Point(8) = {4.497299, -1.16144, 1, cl__4};
Point(9) = {19.699367, -0.6357670000000002, 1, cl__5};
Point(10) = {36.840416, 5.035691000000001, 0, cl__3};
Point(11) = {4.497299, -1.16144, 0, cl__4};
Point(12) = {19.699367, -0.6357670000000002, 0, cl__5};
Line(1) = {2, 1};
Line(2) = {1, 3};
Line(3) = {4, 3};
Line(4) = {2, 4};
Line(5) = {2, 5};
Line(6) = {5, 6};
Line(7) = {1, 6};
Line(8) = {3, 7};
Line(9) = {6, 7};
p10 = newp;
Point(p10 + 1) = {4.484338503832842, -0.9967612822176839, 1};
Point(p10 + 2) = {4.445776145760425, -0.8361375010044985, 1};
Point(p10 + 3) = {4.38256145901962, -0.6835237469336795, 1};
Point(p10 + 4) = {4.296250998995502, -0.5426778771264612, 1};
Point(p10 + 5) = {4.18897001566186, -0.4170679843381403, 1};
Point(p10 + 6) = {4.063360122873539, -0.3097870010044984, 1};
Point(p10 + 7) = {3.922514253066321, -0.2234765409803809, 1};
Point(p10 + 8) = {3.769900498995502, -0.1602618542395755, 1};
Point(p10 + 9) = {3.609276717782316, -0.1216994961671578, 1};
Point(p10 + 10) = {3.444598, -0.1087389999999999, 1};
Point(p10 + 11) = {3.279919282217684, -0.1216994961671578, 1};
Point(p10 + 12) = {3.119295501004498, -0.1602618542395753, 1};
Point(p10 + 13) = {2.96668174693368, -0.2234765409803808, 1};
Point(p10 + 14) = {2.825835877126461, -0.3097870010044984, 1};
Point(p10 + 15) = {2.70022598433814, -0.4170679843381402, 1};
Point(p10 + 16) = {2.592945001004499, -0.5426778771264611, 1};
Point(p10 + 17) = {2.506634540980381, -0.6835237469336792, 1};
Point(p10 + 18) = {2.443419854239576, -0.8361375010044984, 1};
Point(p10 + 19) = {2.404857496167158, -0.9967612822176838, 1};
Point(p10 + 20) = {2.391897, -1.16144, 1};
Point(p10 + 21) = {2.404857496167158, -1.326118717782316, 1};
Point(p10 + 22) = {2.443419854239576, -1.486742498995502, 1};
Point(p10 + 23) = {2.506634540980381, -1.63935625306632, 1};
Point(p10 + 24) = {2.592945001004498, -1.780202122873539, 1};
Point(p10 + 25) = {2.70022598433814, -1.90581201566186, 1};
Point(p10 + 26) = {2.825835877126461, -2.013092998995502, 1};
Point(p10 + 27) = {2.966681746933679, -2.099403459019619, 1};
Point(p10 + 28) = {3.119295501004498, -2.162618145760424, 1};
Point(p10 + 29) = {3.279919282217684, -2.201180503832842, 1};
Point(p10 + 30) = {3.444598, -2.214141, 1};
Point(p10 + 31) = {3.609276717782316, -2.201180503832842, 1};
Point(p10 + 32) = {3.769900498995502, -2.162618145760425, 1};
Point(p10 + 33) = {3.92251425306632, -2.099403459019619, 1};
Point(p10 + 34) = {4.063360122873538, -2.013092998995502, 1};
Point(p10 + 35) = {4.18897001566186, -1.90581201566186, 1};
Point(p10 + 36) = {4.296250998995502, -1.780202122873539, 1};
Point(p10 + 37) = {4.38256145901962, -1.639356253066321, 1};
Point(p10 + 38) = {4.445776145760425, -1.486742498995502, 1};
Point(p10 + 39) = {4.484338503832842, -1.326118717782316, 1};
Spline(10) = {8, p10 + 1, p10 + 2, p10 + 3, p10 + 4, p10 + 5, p10 + 6, p10 + 7, p10 + 8, p10 + 9, p10 + 10, p10 + 11, p10 + 12, p10 + 13, p10 + 14, p10 + 15, p10 + 16, p10 + 17, p10 + 18, p10 + 19, p10 + 20, p10 + 21, p10 + 22, p10 + 23, p10 + 24, p10 + 25, p10 + 26, p10 + 27, p10 + 28, p10 + 29, p10 + 30, p10 + 31, p10 + 32, p10 + 33, p10 + 34, p10 + 35, p10 + 36, p10 + 37, p10 + 38, p10 + 39, 8};
p11 = newp;
Point(p11 + 1) = {19.68355420014022, -0.4348463275294884, 1};
Point(p11 + 2) = {19.6365051641731, -0.2388729888326825, 1};
Point(p11 + 3) = {19.55937839551096, -0.05267249790651984, 1};
Point(p11 + 4) = {19.45407301116732, 0.1191702711983975, 1};
Point(p11 + 5) = {19.32318197919325, 0.2724239791932531, 1};
Point(p11 + 6) = {19.1699282711984, 0.4033150111673176, 1};
Point(p11 + 7) = {18.99808550209348, 0.5086203955109592, 1};
Point(p11 + 8) = {18.81188501116732, 0.585747164173104, 1};
Point(p11 + 9) = {18.61591167247051, 0.6327962001402208, 1};
Point(p11 + 10) = {18.414991, 0.648609, 1};
Point(p11 + 11) = {18.21407032752949, 0.6327962001402205, 1};
Point(p11 + 12) = {18.01809698883268, 0.5857471641731042, 1};
Point(p11 + 13) = {17.83189649790652, 0.5086203955109592, 1};
Point(p11 + 14) = {17.6600537288016, 0.4033150111673176, 1};
Point(p11 + 15) = {17.50680002080675, 0.2724239791932532, 1};
Point(p11 + 16) = {17.37590898883268, 0.1191702711983976, 1};
Point(p11 + 17) = {17.27060360448904, -0.05267249790651973, 1};
Point(p11 + 18) = {17.1934768358269, -0.2388729888326824, 1};
Point(p11 + 19) = {17.14642779985978, -0.4348463275294883, 1};
Point(p11 + 20) = {17.130615, -0.6357669999999999, 1};
Point(p11 + 21) = {17.14642779985978, -0.8366876724705113, 1};
Point(p11 + 22) = {17.1934768358269, -1.032661011167318, 1};
Point(p11 + 23) = {17.27060360448904, -1.218861502093479, 1};
Point(p11 + 24) = {17.37590898883268, -1.390704271198397, 1};
Point(p11 + 25) = {17.50680002080675, -1.543957979193253, 1};
Point(p11 + 26) = {17.6600537288016, -1.674849011167317, 1};
Point(p11 + 27) = {17.83189649790652, -1.780154395510959, 1};
Point(p11 + 28) = {18.01809698883268, -1.857281164173104, 1};
Point(p11 + 29) = {18.21407032752949, -1.90433020014022, 1};
Point(p11 + 30) = {18.414991, -1.920143, 1};
Point(p11 + 31) = {18.61591167247051, -1.904330200140221, 1};
Point(p11 + 32) = {18.81188501116732, -1.857281164173104, 1};
Point(p11 + 33) = {18.99808550209348, -1.780154395510959, 1};
Point(p11 + 34) = {19.1699282711984, -1.674849011167318, 1};
Point(p11 + 35) = {19.32318197919325, -1.543957979193253, 1};
Point(p11 + 36) = {19.45407301116732, -1.390704271198398, 1};
Point(p11 + 37) = {19.55937839551096, -1.21886150209348, 1};
Point(p11 + 38) = {19.6365051641731, -1.032661011167318, 1};
Point(p11 + 39) = {19.68355420014022, -0.8366876724705118, 1};
Spline(11) = {9, p11 + 1, p11 + 2, p11 + 3, p11 + 4, p11 + 5, p11 + 6, p11 + 7, p11 + 8, p11 + 9, p11 + 10, p11 + 11, p11 + 12, p11 + 13, p11 + 14, p11 + 15, p11 + 16, p11 + 17, p11 + 18, p11 + 19, p11 + 20, p11 + 21, p11 + 22, p11 + 23, p11 + 24, p11 + 25, p11 + 26, p11 + 27, p11 + 28, p11 + 29, p11 + 30, p11 + 31, p11 + 32, p11 + 33, p11 + 34, p11 + 35, p11 + 36, p11 + 37, p11 + 38, p11 + 39, 9};
Line(12) = {4, 10};
Line(13) = {10, 7};
Line(14) = {5, 10};
p15 = newp;
Point(p15 + 1) = {4.484338503832842, -0.9967612822176839, 0};
Point(p15 + 2) = {4.445776145760425, -0.8361375010044985, 0};
Point(p15 + 3) = {4.38256145901962, -0.6835237469336795, 0};
Point(p15 + 4) = {4.296250998995502, -0.5426778771264612, 0};
Point(p15 + 5) = {4.18897001566186, -0.4170679843381403, 0};
Point(p15 + 6) = {4.063360122873539, -0.3097870010044984, 0};
Point(p15 + 7) = {3.922514253066321, -0.2234765409803809, 0};
Point(p15 + 8) = {3.769900498995502, -0.1602618542395755, 0};
Point(p15 + 9) = {3.609276717782316, -0.1216994961671578, 0};
Point(p15 + 10) = {3.444598, -0.1087389999999999, 0};
Point(p15 + 11) = {3.279919282217684, -0.1216994961671578, 0};
Point(p15 + 12) = {3.119295501004498, -0.1602618542395753, 0};
Point(p15 + 13) = {2.96668174693368, -0.2234765409803808, 0};
Point(p15 + 14) = {2.825835877126461, -0.3097870010044984, 0};
Point(p15 + 15) = {2.70022598433814, -0.4170679843381402, 0};
Point(p15 + 16) = {2.592945001004499, -0.5426778771264611, 0};
Point(p15 + 17) = {2.506634540980381, -0.6835237469336792, 0};
Point(p15 + 18) = {2.443419854239576, -0.8361375010044984, 0};
Point(p15 + 19) = {2.404857496167158, -0.9967612822176838, 0};
Point(p15 + 20) = {2.391897, -1.16144, 0};
Point(p15 + 21) = {2.404857496167158, -1.326118717782316, 0};
Point(p15 + 22) = {2.443419854239576, -1.486742498995502, 0};
Point(p15 + 23) = {2.506634540980381, -1.63935625306632, 0};
Point(p15 + 24) = {2.592945001004498, -1.780202122873539, 0};
Point(p15 + 25) = {2.70022598433814, -1.90581201566186, 0};
Point(p15 + 26) = {2.825835877126461, -2.013092998995502, 0};
Point(p15 + 27) = {2.966681746933679, -2.099403459019619, 0};
Point(p15 + 28) = {3.119295501004498, -2.162618145760424, 0};
Point(p15 + 29) = {3.279919282217684, -2.201180503832842, 0};
Point(p15 + 30) = {3.444598, -2.214141, 0};
Point(p15 + 31) = {3.609276717782316, -2.201180503832842, 0};
Point(p15 + 32) = {3.769900498995502, -2.162618145760425, 0};
Point(p15 + 33) = {3.92251425306632, -2.099403459019619, 0};
Point(p15 + 34) = {4.063360122873538, -2.013092998995502, 0};
Point(p15 + 35) = {4.18897001566186, -1.90581201566186, 0};
Point(p15 + 36) = {4.296250998995502, -1.780202122873539, 0};
Point(p15 + 37) = {4.38256145901962, -1.639356253066321, 0};
Point(p15 + 38) = {4.445776145760425, -1.486742498995502, 0};
Point(p15 + 39) = {4.484338503832842, -1.326118717782316, 0};
Spline(15) = {11, p15 + 1, p15 + 2, p15 + 3, p15 + 4, p15 + 5, p15 + 6, p15 + 7, p15 + 8, p15 + 9, p15 + 10, p15 + 11, p15 + 12, p15 + 13, p15 + 14, p15 + 15, p15 + 16, p15 + 17, p15 + 18, p15 + 19, p15 + 20, p15 + 21, p15 + 22, p15 + 23, p15 + 24, p15 + 25, p15 + 26, p15 + 27, p15 + 28, p15 + 29, p15 + 30, p15 + 31, p15 + 32, p15 + 33, p15 + 34, p15 + 35, p15 + 36, p15 + 37, p15 + 38, p15 + 39, 11};
p16 = newp;
Point(p16 + 1) = {19.68355420014022, -0.4348463275294884, 0};
Point(p16 + 2) = {19.6365051641731, -0.2388729888326825, 0};
Point(p16 + 3) = {19.55937839551096, -0.05267249790651984, 0};
Point(p16 + 4) = {19.45407301116732, 0.1191702711983975, 0};
Point(p16 + 5) = {19.32318197919325, 0.2724239791932531, 0};
Point(p16 + 6) = {19.1699282711984, 0.4033150111673176, 0};
Point(p16 + 7) = {18.99808550209348, 0.5086203955109592, 0};
Point(p16 + 8) = {18.81188501116732, 0.585747164173104, 0};
Point(p16 + 9) = {18.61591167247051, 0.6327962001402208, 0};
Point(p16 + 10) = {18.414991, 0.648609, 0};
Point(p16 + 11) = {18.21407032752949, 0.6327962001402205, 0};
Point(p16 + 12) = {18.01809698883268, 0.5857471641731042, 0};
Point(p16 + 13) = {17.83189649790652, 0.5086203955109592, 0};
Point(p16 + 14) = {17.6600537288016, 0.4033150111673176, 0};
Point(p16 + 15) = {17.50680002080675, 0.2724239791932532, 0};
Point(p16 + 16) = {17.37590898883268, 0.1191702711983976, 0};
Point(p16 + 17) = {17.27060360448904, -0.05267249790651973, 0};
Point(p16 + 18) = {17.1934768358269, -0.2388729888326824, 0};
Point(p16 + 19) = {17.14642779985978, -0.4348463275294883, 0};
Point(p16 + 20) = {17.130615, -0.6357669999999999, 0};
Point(p16 + 21) = {17.14642779985978, -0.8366876724705113, 0};
Point(p16 + 22) = {17.1934768358269, -1.032661011167318, 0};
Point(p16 + 23) = {17.27060360448904, -1.218861502093479, 0};
Point(p16 + 24) = {17.37590898883268, -1.390704271198397, 0};
Point(p16 + 25) = {17.50680002080675, -1.543957979193253, 0};
Point(p16 + 26) = {17.6600537288016, -1.674849011167317, 0};
Point(p16 + 27) = {17.83189649790652, -1.780154395510959, 0};
Point(p16 + 28) = {18.01809698883268, -1.857281164173104, 0};
Point(p16 + 29) = {18.21407032752949, -1.90433020014022, 0};
Point(p16 + 30) = {18.414991, -1.920143, 0};
Point(p16 + 31) = {18.61591167247051, -1.904330200140221, 0};
Point(p16 + 32) = {18.81188501116732, -1.857281164173104, 0};
Point(p16 + 33) = {18.99808550209348, -1.780154395510959, 0};
Point(p16 + 34) = {19.1699282711984, -1.674849011167318, 0};
Point(p16 + 35) = {19.32318197919325, -1.543957979193253, 0};
Point(p16 + 36) = {19.45407301116732, -1.390704271198398, 0};
Point(p16 + 37) = {19.55937839551096, -1.21886150209348, 0};
Point(p16 + 38) = {19.6365051641731, -1.032661011167318, 0};
Point(p16 + 39) = {19.68355420014022, -0.8366876724705118, 0};
Spline(16) = {12, p16 + 1, p16 + 2, p16 + 3, p16 + 4, p16 + 5, p16 + 6, p16 + 7, p16 + 8, p16 + 9, p16 + 10, p16 + 11, p16 + 12, p16 + 13, p16 + 14, p16 + 15, p16 + 16, p16 + 17, p16 + 18, p16 + 19, p16 + 20, p16 + 21, p16 + 22, p16 + 23, p16 + 24, p16 + 25, p16 + 26, p16 + 27, p16 + 28, p16 + 29, p16 + 30, p16 + 31, p16 + 32, p16 + 33, p16 + 34, p16 + 35, p16 + 36, p16 + 37, p16 + 38, p16 + 39, 12};
Line(17) = {11, 8};
Line(18) = {12, 9};
Curve Loop(1) = {-1, 4, 3, -2};
Plane Surface(1) = {1};
Curve Loop(2) = {-5, 1, 7, -6};
Plane Surface(2) = {2};
Curve Loop(3) = {-2, 7, 9, -8, -10, -11};
Plane Surface(3) = {3};
Curve Loop(4) = {-12, 3, 8, -13};
Plane Surface(4) = {4};
Curve Loop(5) = {-4, 5, 14, -12, -15, -16};
Plane Surface(5) = {5};
Curve Loop(6) = {-6, 14, 13, -9};
Plane Surface(6) = {6};
Curve Loop(7) = {-10, -17, 15, 17};
Surface(7) = {7};
Curve Loop(8) = {-11, -18, 16, 18};
Surface(8) = {8};
Surface Loop(1) = {1, 2, 3, 4, 5, 6, 7, 8};
Volume(1) = {1};
Physical Surface("INFLOW") = {1};
Physical Surface("OUTFLOW") = {6};
Physical Surface("OBSTACLE") = {7, 8};
Physical Surface("WALL_Y") = {2, 4};
Physical Surface("WALL_Z") = {3, 5};
Physical Volume("FLUID") = {1};
