cl__1 = 3.494926;
cl__2 = 0.895808;
cl__3 = 0.988688;
cl__4 = 0.131645;
Point(1) = {0.456798, -4.700907, 1, cl__1};
Point(2) = {0.456798, -4.700907, 0, cl__1};
Point(3) = {0.456798, 4.816381000000001, 1, cl__1};
Point(4) = {0.456798, 4.816381000000001, 0, cl__1};
Point(5) = {34.623783, -4.700907, 0, cl__2};
Point(6) = {34.623783, -4.700907, 1, cl__2};
Point(7) = {34.623783, 4.816381000000001, 1, cl__3};
Point(8) = {26.359146, -0.9902860000000003, 1, cl__4};
Point(9) = {34.623783, 4.816381000000001, 0, cl__3};
Point(10) = {26.359146, -0.9902860000000003, 0, cl__4};
Line(1) = {2, 1};
Line(2) = {1, 3};
Line(3) = {4, 3};
Line(4) = {2, 4};
Line(5) = {2, 5};
Line(6) = {5, 6};
Line(7) = {1, 6};
Line(8) = {3, 7};
Line(9) = {6, 7};
p10 = newp;
Point(p10 + 1) = {26.34293827904149, -0.7843473791943929, 1};
Point(p10 + 2) = {26.2947142040463, -0.5834796507041173, 1};
Point(p10 + 3) = {26.21566121178735, -0.3926288446463744, 1};
Point(p10 + 4) = {26.10772584929588, -0.2164943412638168, 1};
Point(p10 + 5) = {25.97356584341338, -0.05941315658662594, 1};
Point(p10 + 6) = {25.81648465873618, 0.07474684929588271, 1};
Point(p10 + 7) = {25.64035015535363, 0.1826822117873494, 1};
Point(p10 + 8) = {25.44949934929588, 0.2617352040463039, 1};
Point(p10 + 9) = {25.24863162080561, 0.3099592790414909, 1};
Point(p10 + 10) = {25.042693, 0.3261670000000001, 1};
Point(p10 + 11) = {24.83675437919439, 0.3099592790414909, 1};
Point(p10 + 12) = {24.63588665070412, 0.2617352040463039, 1};
Point(p10 + 13) = {24.44503584464637, 0.1826822117873497, 1};
Point(p10 + 14) = {24.26890134126382, 0.07474684929588271, 1};
Point(p10 + 15) = {24.11182015658662, -0.05941315658662583, 1};
Point(p10 + 16) = {23.97766015070412, -0.2164943412638166, 1};
Point(p10 + 17) = {23.86972478821265, -0.3926288446463743, 1};
Point(p10 + 18) = {23.7906717959537, -0.5834796507041172, 1};
Point(p10 + 19) = {23.74244772095851, -0.7843473791943928, 1};
Point(p10 + 20) = {23.72624, -0.9902859999999999, 1};
Point(p10 + 21) = {23.74244772095851, -1.196224620805607, 1};
Point(p10 + 22) = {23.7906717959537, -1.397092349295883, 1};
Point(p10 + 23) = {23.86972478821265, -1.587943155353625, 1};
Point(p10 + 24) = {23.97766015070412, -1.764077658736183, 1};
Point(p10 + 25) = {24.11182015658662, -1.921158843413374, 1};
Point(p10 + 26) = {24.26890134126382, -2.055318849295883, 1};
Point(p10 + 27) = {24.44503584464637, -2.16325421178735, 1};
Point(p10 + 28) = {24.63588665070412, -2.242307204046304, 1};
Point(p10 + 29) = {24.83675437919439, -2.290531279041491, 1};
Point(p10 + 30) = {25.042693, -2.306739, 1};
Point(p10 + 31) = {25.24863162080561, -2.290531279041491, 1};
Point(p10 + 32) = {25.44949934929588, -2.242307204046304, 1};
Point(p10 + 33) = {25.64035015535363, -2.16325421178735, 1};
Point(p10 + 34) = {25.81648465873618, -2.055318849295883, 1};
Point(p10 + 35) = {25.97356584341338, -1.921158843413374, 1};
Point(p10 + 36) = {26.10772584929588, -1.764077658736183, 1};
Point(p10 + 37) = {26.21566121178735, -1.587943155353626, 1};
Point(p10 + 38) = {26.2947142040463, -1.397092349295883, 1};
Point(p10 + 39) = {26.34293827904149, -1.196224620805607, 1};
Spline(10) = {8, p10 + 1, p10 + 2, p10 + 3, p10 + 4, p10 + 5, p10 + 6, p10 + 7, p10 + 8, p10 + 9, p10 + 10, p10 + 11, p10 + 12, p10 + 13, p10 + 14, p10 + 15, p10 + 16, p10 + 17, p10 + 18, p10 + 19, p10 + 20, p10 + 21, p10 + 22, p10 + 23, p10 + 24, p10 + 25, p10 + 26, p10 + 27, p10 + 28, p10 + 29, p10 + 30, p10 + 31, p10 + 32, p10 + 33, p10 + 34, p10 + 35, p10 + 36, p10 + 37, p10 + 38, p10 + 39, 8};
Line(11) = {4, 9};
Line(12) = {9, 7};
Line(13) = {5, 9};
p14 = newp;
Point(p14 + 1) = {26.34293827904149, -0.7843473791943929, 0};
Point(p14 + 2) = {26.2947142040463, -0.5834796507041173, 0};
Point(p14 + 3) = {26.21566121178735, -0.3926288446463744, 0};
Point(p14 + 4) = {26.10772584929588, -0.2164943412638168, 0};
Point(p14 + 5) = {25.97356584341338, -0.05941315658662594, 0};
Point(p14 + 6) = {25.81648465873618, 0.07474684929588271, 0};
Point(p14 + 7) = {25.64035015535363, 0.1826822117873494, 0};
Point(p14 + 8) = {25.44949934929588, 0.2617352040463039, 0};
Point(p14 + 9) = {25.24863162080561, 0.3099592790414909, 0};
Point(p14 + 10) = {25.042693, 0.3261670000000001, 0};
Point(p14 + 11) = {24.83675437919439, 0.3099592790414909, 0};
Point(p14 + 12) = {24.63588665070412, 0.2617352040463039, 0};
Point(p14 + 13) = {24.44503584464637, 0.1826822117873497, 0};
Point(p14 + 14) = {24.26890134126382, 0.07474684929588271, 0};
Point(p14 + 15) = {24.11182015658662, -0.05941315658662583, 0};
Point(p14 + 16) = {23.97766015070412, -0.2164943412638166, 0};
Point(p14 + 17) = {23.86972478821265, -0.3926288446463743, 0};
Point(p14 + 18) = {23.7906717959537, -0.5834796507041172, 0};
Point(p14 + 19) = {23.74244772095851, -0.7843473791943928, 0};
Point(p14 + 20) = {23.72624, -0.9902859999999999, 0};
Point(p14 + 21) = {23.74244772095851, -1.196224620805607, 0};
Point(p14 + 22) = {23.7906717959537, -1.397092349295883, 0};
Point(p14 + 23) = {23.86972478821265, -1.587943155353625, 0};
Point(p14 + 24) = {23.97766015070412, -1.764077658736183, 0};
Point(p14 + 25) = {24.11182015658662, -1.921158843413374, 0};
Point(p14 + 26) = {24.26890134126382, -2.055318849295883, 0};
Point(p14 + 27) = {24.44503584464637, -2.16325421178735, 0};
Point(p14 + 28) = {24.63588665070412, -2.242307204046304, 0};
Point(p14 + 29) = {24.83675437919439, -2.290531279041491, 0};
Point(p14 + 30) = {25.042693, -2.306739, 0};
Point(p14 + 31) = {25.24863162080561, -2.290531279041491, 0};
Point(p14 + 32) = {25.44949934929588, -2.242307204046304, 0};
Point(p14 + 33) = {25.64035015535363, -2.16325421178735, 0};
Point(p14 + 34) = {25.81648465873618, -2.055318849295883, 0};
Point(p14 + 35) = {25.97356584341338, -1.921158843413374, 0};
Point(p14 + 36) = {26.10772584929588, -1.764077658736183, 0};
Point(p14 + 37) = {26.21566121178735, -1.587943155353626, 0};
Point(p14 + 38) = {26.2947142040463, -1.397092349295883, 0};
Point(p14 + 39) = {26.34293827904149, -1.196224620805607, 0};
Spline(14) = {10, p14 + 1, p14 + 2, p14 + 3, p14 + 4, p14 + 5, p14 + 6, p14 + 7, p14 + 8, p14 + 9, p14 + 10, p14 + 11, p14 + 12, p14 + 13, p14 + 14, p14 + 15, p14 + 16, p14 + 17, p14 + 18, p14 + 19, p14 + 20, p14 + 21, p14 + 22, p14 + 23, p14 + 24, p14 + 25, p14 + 26, p14 + 27, p14 + 28, p14 + 29, p14 + 30, p14 + 31, p14 + 32, p14 + 33, p14 + 34, p14 + 35, p14 + 36, p14 + 37, p14 + 38, p14 + 39, 10};
Line(15) = {10, 8};
Curve Loop(1) = {-1, 4, 3, -2};
Plane Surface(1) = {1};
Curve Loop(2) = {-5, 1, 7, -6};
Plane Surface(2) = {2};
Curve Loop(3) = {-2, 7, 9, -8, -10};
Plane Surface(3) = {3};
Curve Loop(4) = {-11, 3, 8, -12};
Plane Surface(4) = {4};
Curve Loop(5) = {-4, 5, 13, -11, -14};
Plane Surface(5) = {5};
Curve Loop(6) = {-6, 13, 12, -9};
Plane Surface(6) = {6};
Curve Loop(7) = {-10, -15, 14, 15};
Surface(7) = {7};
Surface Loop(1) = {1, 2, 3, 4, 5, 6, 7};
Volume(1) = {1};
Physical Surface("INFLOW") = {1};
Physical Surface("OUTFLOW") = {6};
Physical Surface("OBSTACLE") = {7};
Physical Surface("WALL_Y") = {2, 4};
Physical Surface("WALL_Z") = {3, 5};
Physical Volume("FLUID") = {1};
