cl__1 = 3.86132;
cl__2 = 0.271263;
cl__3 = 0.447342;
cl__4 = 0.117969;
Point(1) = {0.053696, -3.738653, 1, cl__1};
Point(2) = {0.053696, -3.738653, 0, cl__1};
Point(3) = {0.053696, 4.612829000000001, 1, cl__1};
Point(4) = {0.053696, 4.612829000000001, 0, cl__1};
Point(5) = {38.386746, -3.738653, 0, cl__2};
Point(6) = {38.386746, -3.738653, 1, cl__2};
Point(7) = {38.386746, 4.612829000000001, 1, cl__3};
Point(8) = {37.307107, -0.5691710000000002, 1, cl__4};
Point(9) = {38.386746, 4.612829000000001, 0, cl__3};
Point(10) = {37.307107, -0.5691710000000002, 0, cl__4};
Line(1) = {2, 1};
Line(2) = {1, 3};
Line(3) = {4, 3};
Line(4) = {2, 4};
Line(5) = {2, 5};
Line(6) = {5, 6};
Line(7) = {1, 6};
Line(8) = {3, 7};
Line(9) = {6, 7};
p10 = newp;
Point(p10 + 1) = {37.29258299695838, -0.3846260437643648, 1};
Point(p10 + 2) = {37.24936861699081, -0.2046251968208465, 1};
Point(p10 + 3) = {37.1785279415524, -0.03360067740975536, 1};
Point(p10 + 4) = {37.08180530317915, 0.1242363232031691, 1};
Point(p10 + 5) = {36.96158233423186, 0.2649993342318641, 1};
Point(p10 + 6) = {36.82081932320317, 0.3852223031791536, 1};
Point(p10 + 7) = {36.66298232259025, 0.4819449415523965, 1};
Point(p10 + 8) = {36.49195780317915, 0.5527856169908111, 1};
Point(p10 + 9) = {36.31195695623563, 0.595999996958381, 1};
Point(p10 + 10) = {36.127412, 0.610524, 1};
Point(p10 + 11) = {35.94286704376437, 0.5959999969583808, 1};
Point(p10 + 12) = {35.76286619682084, 0.5527856169908113, 1};
Point(p10 + 13) = {35.59184167740975, 0.4819449415523965, 1};
Point(p10 + 14) = {35.43400467679683, 0.3852223031791536, 1};
Point(p10 + 15) = {35.29324166576814, 0.2649993342318642, 1};
Point(p10 + 16) = {35.17301869682085, 0.1242363232031692, 1};
Point(p10 + 17) = {35.0762960584476, -0.03360067740975525, 1};
Point(p10 + 18) = {35.00545538300919, -0.2046251968208463, 1};
Point(p10 + 19) = {34.96224100304162, -0.3846260437643647, 1};
Point(p10 + 20) = {34.947717, -0.5691709999999999, 1};
Point(p10 + 21) = {34.96224100304162, -0.753715956235635, 1};
Point(p10 + 22) = {35.00545538300919, -0.9337168031791538, 1};
Point(p10 + 23) = {35.0762960584476, -1.104741322590244, 1};
Point(p10 + 24) = {35.17301869682085, -1.262578323203169, 1};
Point(p10 + 25) = {35.29324166576814, -1.403341334231864, 1};
Point(p10 + 26) = {35.43400467679683, -1.523564303179153, 1};
Point(p10 + 27) = {35.59184167740975, -1.620286941552397, 1};
Point(p10 + 28) = {35.76286619682084, -1.691127616990811, 1};
Point(p10 + 29) = {35.94286704376437, -1.734341996958381, 1};
Point(p10 + 30) = {36.127412, -1.748866, 1};
Point(p10 + 31) = {36.31195695623563, -1.734341996958381, 1};
Point(p10 + 32) = {36.49195780317915, -1.691127616990811, 1};
Point(p10 + 33) = {36.66298232259025, -1.620286941552397, 1};
Point(p10 + 34) = {36.82081932320317, -1.523564303179154, 1};
Point(p10 + 35) = {36.96158233423186, -1.403341334231864, 1};
Point(p10 + 36) = {37.08180530317915, -1.262578323203169, 1};
Point(p10 + 37) = {37.1785279415524, -1.104741322590245, 1};
Point(p10 + 38) = {37.24936861699081, -0.9337168031791538, 1};
Point(p10 + 39) = {37.29258299695838, -0.7537159562356354, 1};
Spline(10) = {8, p10 + 1, p10 + 2, p10 + 3, p10 + 4, p10 + 5, p10 + 6, p10 + 7, p10 + 8, p10 + 9, p10 + 10, p10 + 11, p10 + 12, p10 + 13, p10 + 14, p10 + 15, p10 + 16, p10 + 17, p10 + 18, p10 + 19, p10 + 20, p10 + 21, p10 + 22, p10 + 23, p10 + 24, p10 + 25, p10 + 26, p10 + 27, p10 + 28, p10 + 29, p10 + 30, p10 + 31, p10 + 32, p10 + 33, p10 + 34, p10 + 35, p10 + 36, p10 + 37, p10 + 38, p10 + 39, 8};
Line(11) = {4, 9};
Line(12) = {9, 7};
Line(13) = {5, 9};
p14 = newp;
Point(p14 + 1) = {37.29258299695838, -0.3846260437643648, 0};
Point(p14 + 2) = {37.24936861699081, -0.2046251968208465, 0};
Point(p14 + 3) = {37.1785279415524, -0.03360067740975536, 0};
Point(p14 + 4) = {37.08180530317915, 0.1242363232031691, 0};
Point(p14 + 5) = {36.96158233423186, 0.2649993342318641, 0};
Point(p14 + 6) = {36.82081932320317, 0.3852223031791536, 0};
Point(p14 + 7) = {36.66298232259025, 0.4819449415523965, 0};
Point(p14 + 8) = {36.49195780317915, 0.5527856169908111, 0};
Point(p14 + 9) = {36.31195695623563, 0.595999996958381, 0};
Point(p14 + 10) = {36.127412, 0.610524, 0};
Point(p14 + 11) = {35.94286704376437, 0.5959999969583808, 0};
Point(p14 + 12) = {35.76286619682084, 0.5527856169908113, 0};
Point(p14 + 13) = {35.59184167740975, 0.4819449415523965, 0};
Point(p14 + 14) = {35.43400467679683, 0.3852223031791536, 0};
Point(p14 + 15) = {35.29324166576814, 0.2649993342318642, 0};
Point(p14 + 16) = {35.17301869682085, 0.1242363232031692, 0};
Point(p14 + 17) = {35.0762960584476, -0.03360067740975525, 0};
Point(p14 + 18) = {35.00545538300919, -0.2046251968208463, 0};
Point(p14 + 19) = {34.96224100304162, -0.3846260437643647, 0};
Point(p14 + 20) = {34.947717, -0.5691709999999999, 0};
Point(p14 + 21) = {34.96224100304162, -0.753715956235635, 0};
Point(p14 + 22) = {35.00545538300919, -0.9337168031791538, 0};
Point(p14 + 23) = {35.0762960584476, -1.104741322590244, 0};
Point(p14 + 24) = {35.17301869682085, -1.262578323203169, 0};
Point(p14 + 25) = {35.29324166576814, -1.403341334231864, 0};
Point(p14 + 26) = {35.43400467679683, -1.523564303179153, 0};
Point(p14 + 27) = {35.59184167740975, -1.620286941552397, 0};
Point(p14 + 28) = {35.76286619682084, -1.691127616990811, 0};
Point(p14 + 29) = {35.94286704376437, -1.734341996958381, 0};
Point(p14 + 30) = {36.127412, -1.748866, 0};
Point(p14 + 31) = {36.31195695623563, -1.734341996958381, 0};
Point(p14 + 32) = {36.49195780317915, -1.691127616990811, 0};
Point(p14 + 33) = {36.66298232259025, -1.620286941552397, 0};
Point(p14 + 34) = {36.82081932320317, -1.523564303179154, 0};
Point(p14 + 35) = {36.96158233423186, -1.403341334231864, 0};
Point(p14 + 36) = {37.08180530317915, -1.262578323203169, 0};
Point(p14 + 37) = {37.1785279415524, -1.104741322590245, 0};
Point(p14 + 38) = {37.24936861699081, -0.9337168031791538, 0};
Point(p14 + 39) = {37.29258299695838, -0.7537159562356354, 0};
Spline(14) = {10, p14 + 1, p14 + 2, p14 + 3, p14 + 4, p14 + 5, p14 + 6, p14 + 7, p14 + 8, p14 + 9, p14 + 10, p14 + 11, p14 + 12, p14 + 13, p14 + 14, p14 + 15, p14 + 16, p14 + 17, p14 + 18, p14 + 19, p14 + 20, p14 + 21, p14 + 22, p14 + 23, p14 + 24, p14 + 25, p14 + 26, p14 + 27, p14 + 28, p14 + 29, p14 + 30, p14 + 31, p14 + 32, p14 + 33, p14 + 34, p14 + 35, p14 + 36, p14 + 37, p14 + 38, p14 + 39, 10};
Line(15) = {10, 8};
Curve Loop(1) = {-1, 4, 3, -2};
Plane Surface(1) = {1};
Curve Loop(2) = {-5, 1, 7, -6};
Plane Surface(2) = {2};
Curve Loop(3) = {-2, 7, 9, -8, -10};
Plane Surface(3) = {3};
Curve Loop(4) = {-11, 3, 8, -12};
Plane Surface(4) = {4};
Curve Loop(5) = {-4, 5, 13, -11, -14};
Plane Surface(5) = {5};
Curve Loop(6) = {-6, 13, 12, -9};
Plane Surface(6) = {6};
Curve Loop(7) = {-10, -15, 14, 15};
Surface(7) = {7};
Surface Loop(1) = {1, 2, 3, 4, 5, 6, 7};
Volume(1) = {1};
Physical Surface("INFLOW") = {1};
Physical Surface("OUTFLOW") = {6};
Physical Surface("OBSTACLE") = {7};
Physical Surface("WALL_Y") = {2, 4};
Physical Surface("WALL_Z") = {3, 5};
Physical Volume("FLUID") = {1};
