cl__1 = 3.547147;
cl__2 = 0.83168;
cl__3 = 1.445516;
cl__4 = 0.089113;
cl__5 = 0.100047;
Point(1) = {0.258738, -3.964972, 1, cl__1};
Point(2) = {0.258738, -3.964972, 0, cl__1};
Point(3) = {0.258738, 4.986324, 1, cl__2};
Point(4) = {0.258738, 4.986324, 0, cl__2};
Point(5) = {35.187977, -3.964972, 0, cl__1};
Point(6) = {35.187977, -3.964972, 1, cl__1};
Point(7) = {35.187977, 4.986324, 1, cl__3};
Point(8) = {21.132504, -0.4853520000000002, 1, cl__4};
Point(9) = {28.177627, 0.7929949999999998, 1, cl__5};
Point(10) = {35.187977, 4.986324, 0, cl__3};
Point(11) = {21.132504, -0.4853520000000002, 0, cl__4};
Point(12) = {28.177627, 0.7929949999999998, 0, cl__5};
Line(1) = {2, 1};
Line(2) = {1, 3};
Line(3) = {4, 3};
Line(4) = {2, 4};
Line(5) = {2, 5};
Line(6) = {5, 6};
Line(7) = {1, 6};
Line(8) = {3, 7};
Line(9) = {6, 7};
p10 = newp;
Point(p10 + 1) = {21.12153266170791, -0.3459479294308389, 1};
Point(p10 + 2) = {21.08888879759217, -0.2099764497346757, 1};
Point(p10 + 3) = {21.03537620792608, -0.08078563000509875, 1};
Point(p10 + 4) = {20.96231255026532, 0.03844342301640069, 1};
Point(p10 + 5) = {20.87149689434589, 0.1447748943458927, 1};
Point(p10 + 6) = {20.7651654230164, 0.2355905502653244, 1};
Point(p10 + 7) = {20.6459363699949, 0.3086542079260769, 1};
Point(p10 + 8) = {20.51674555026532, 0.3621667975921653, 1};
Point(p10 + 9) = {20.38077407056916, 0.3948106617079075, 1};
Point(p10 + 10) = {20.24137, 0.405782, 1};
Point(p10 + 11) = {20.10196592943084, 0.3948106617079074, 1};
Point(p10 + 12) = {19.96599444973468, 0.3621667975921654, 1};
Point(p10 + 13) = {19.8368036300051, 0.308654207926077, 1};
Point(p10 + 14) = {19.7175745769836, 0.2355905502653244, 1};
Point(p10 + 15) = {19.61124310565411, 0.1447748943458929, 1};
Point(p10 + 16) = {19.52042744973468, 0.0384434230164008, 1};
Point(p10 + 17) = {19.44736379207392, -0.08078563000509864, 1};
Point(p10 + 18) = {19.39385120240783, -0.2099764497346756, 1};
Point(p10 + 19) = {19.36120733829209, -0.3459479294308389, 1};
Point(p10 + 20) = {19.350236, -0.4853519999999999, 1};
Point(p10 + 21) = {19.36120733829209, -0.6247560705691609, 1};
Point(p10 + 22) = {19.39385120240783, -0.7607275502653247, 1};
Point(p10 + 23) = {19.44736379207392, -0.8899183699949008, 1};
Point(p10 + 24) = {19.52042744973468, -1.009147423016401, 1};
Point(p10 + 25) = {19.61124310565411, -1.115478894345893, 1};
Point(p10 + 26) = {19.7175745769836, -1.206294550265324, 1};
Point(p10 + 27) = {19.8368036300051, -1.279358207926077, 1};
Point(p10 + 28) = {19.96599444973468, -1.332870797592165, 1};
Point(p10 + 29) = {20.10196592943084, -1.365514661707907, 1};
Point(p10 + 30) = {20.24137, -1.376486, 1};
Point(p10 + 31) = {20.38077407056916, -1.365514661707907, 1};
Point(p10 + 32) = {20.51674555026532, -1.332870797592165, 1};
Point(p10 + 33) = {20.6459363699949, -1.279358207926077, 1};
Point(p10 + 34) = {20.7651654230164, -1.206294550265325, 1};
Point(p10 + 35) = {20.87149689434589, -1.115478894345893, 1};
Point(p10 + 36) = {20.96231255026532, -1.009147423016401, 1};
Point(p10 + 37) = {21.03537620792608, -0.8899183699949014, 1};
Point(p10 + 38) = {21.08888879759217, -0.7607275502653246, 1};
Point(p10 + 39) = {21.12153266170791, -0.6247560705691613, 1};
Spline(10) = {8, p10 + 1, p10 + 2, p10 + 3, p10 + 4, p10 + 5, p10 + 6, p10 + 7, p10 + 8, p10 + 9, p10 + 10, p10 + 11, p10 + 12, p10 + 13, p10 + 14, p10 + 15, p10 + 16, p10 + 17, p10 + 18, p10 + 19, p10 + 20, p10 + 21, p10 + 22, p10 + 23, p10 + 24, p10 + 25, p10 + 26, p10 + 27, p10 + 28, p10 + 29, p10 + 30, p10 + 31, p10 + 32, p10 + 33, p10 + 34, p10 + 35, p10 + 36, p10 + 37, p10 + 38, p10 + 39, 8};
p11 = newp;
Point(p11 + 1) = {28.16530960336186, 0.9495023635009396, 1};
Point(p11 + 2) = {28.12866070863175, 1.102155996294326, 1};
Point(p11 + 3) = {28.06858273322864, 1.247197059312426, 1};
Point(p11 + 4) = {27.98655499629433, 1.381054160220041, 1};
Point(p11 + 5) = {27.88459729294658, 1.500431292946581, 1};
Point(p11 + 6) = {27.76522016022004, 1.602388996294326, 1};
Point(p11 + 7) = {27.63136305931243, 1.68441673322864, 1};
Point(p11 + 8) = {27.48632199629433, 1.744494708631747, 1};
Point(p11 + 9) = {27.33366836350094, 1.781143603361855, 1};
Point(p11 + 10) = {27.177161, 1.793461, 1};
Point(p11 + 11) = {27.02065363649906, 1.781143603361855, 1};
Point(p11 + 12) = {26.86800000370567, 1.744494708631747, 1};
Point(p11 + 13) = {26.72295894068758, 1.68441673322864, 1};
Point(p11 + 14) = {26.58910183977996, 1.602388996294326, 1};
Point(p11 + 15) = {26.46972470705342, 1.500431292946581, 1};
Point(p11 + 16) = {26.36776700370568, 1.381054160220041, 1};
Point(p11 + 17) = {26.28573926677136, 1.247197059312426, 1};
Point(p11 + 18) = {26.22566129136825, 1.102155996294326, 1};
Point(p11 + 19) = {26.18901239663815, 0.9495023635009398, 1};
Point(p11 + 20) = {26.176695, 0.7929950000000001, 1};
Point(p11 + 21) = {26.18901239663815, 0.6364876364990605, 1};
Point(p11 + 22) = {26.22566129136825, 0.4838340037056735, 1};
Point(p11 + 23) = {26.28573926677136, 0.3387929406875751, 1};
Point(p11 + 24) = {26.36776700370568, 0.2049358397799587, 1};
Point(p11 + 25) = {26.46972470705342, 0.0855587070534195, 1};
Point(p11 + 26) = {26.58910183977996, -0.01639899629432617, 1};
Point(p11 + 27) = {26.72295894068758, -0.0984267332286396, 1};
Point(p11 + 28) = {26.86800000370567, -0.1585047086317471, 1};
Point(p11 + 29) = {27.02065363649906, -0.1951536033618551, 1};
Point(p11 + 30) = {27.177161, -0.2074710000000001, 1};
Point(p11 + 31) = {27.33366836350094, -0.1951536033618552, 1};
Point(p11 + 32) = {27.48632199629433, -0.1585047086317473, 1};
Point(p11 + 33) = {27.63136305931243, -0.09842673322863971, 1};
Point(p11 + 34) = {27.76522016022004, -0.0163989962943264, 1};
Point(p11 + 35) = {27.88459729294658, 0.08555870705341928, 1};
Point(p11 + 36) = {27.98655499629433, 0.2049358397799583, 1};
Point(p11 + 37) = {28.06858273322864, 0.3387929406875744, 1};
Point(p11 + 38) = {28.12866070863175, 0.4838340037056736, 1};
Point(p11 + 39) = {28.16530960336186, 0.6364876364990601, 1};
Spline(11) = {9, p11 + 1, p11 + 2, p11 + 3, p11 + 4, p11 + 5, p11 + 6, p11 + 7, p11 + 8, p11 + 9, p11 + 10, p11 + 11, p11 + 12, p11 + 13, p11 + 14, p11 + 15, p11 + 16, p11 + 17, p11 + 18, p11 + 19, p11 + 20, p11 + 21, p11 + 22, p11 + 23, p11 + 24, p11 + 25, p11 + 26, p11 + 27, p11 + 28, p11 + 29, p11 + 30, p11 + 31, p11 + 32, p11 + 33, p11 + 34, p11 + 35, p11 + 36, p11 + 37, p11 + 38, p11 + 39, 9};
Line(12) = {4, 10};
Line(13) = {10, 7};
Line(14) = {5, 10};
p15 = newp;
Point(p15 + 1) = {21.12153266170791, -0.3459479294308389, 0};
Point(p15 + 2) = {21.08888879759217, -0.2099764497346757, 0};
Point(p15 + 3) = {21.03537620792608, -0.08078563000509875, 0};
Point(p15 + 4) = {20.96231255026532, 0.03844342301640069, 0};
Point(p15 + 5) = {20.87149689434589, 0.1447748943458927, 0};
Point(p15 + 6) = {20.7651654230164, 0.2355905502653244, 0};
Point(p15 + 7) = {20.6459363699949, 0.3086542079260769, 0};
Point(p15 + 8) = {20.51674555026532, 0.3621667975921653, 0};
Point(p15 + 9) = {20.38077407056916, 0.3948106617079075, 0};
Point(p15 + 10) = {20.24137, 0.405782, 0};
Point(p15 + 11) = {20.10196592943084, 0.3948106617079074, 0};
Point(p15 + 12) = {19.96599444973468, 0.3621667975921654, 0};
Point(p15 + 13) = {19.8368036300051, 0.308654207926077, 0};
Point(p15 + 14) = {19.7175745769836, 0.2355905502653244, 0};
Point(p15 + 15) = {19.61124310565411, 0.1447748943458929, 0};
Point(p15 + 16) = {19.52042744973468, 0.0384434230164008, 0};
Point(p15 + 17) = {19.44736379207392, -0.08078563000509864, 0};
Point(p15 + 18) = {19.39385120240783, -0.2099764497346756, 0};
Point(p15 + 19) = {19.36120733829209, -0.3459479294308389, 0};
Point(p15 + 20) = {19.350236, -0.4853519999999999, 0};
Point(p15 + 21) = {19.36120733829209, -0.6247560705691609, 0};
Point(p15 + 22) = {19.39385120240783, -0.7607275502653247, 0};
Point(p15 + 23) = {19.44736379207392, -0.8899183699949008, 0};
Point(p15 + 24) = {19.52042744973468, -1.009147423016401, 0};
Point(p15 + 25) = {19.61124310565411, -1.115478894345893, 0};
Point(p15 + 26) = {19.7175745769836, -1.206294550265324, 0};
Point(p15 + 27) = {19.8368036300051, -1.279358207926077, 0};
Point(p15 + 28) = {19.96599444973468, -1.332870797592165, 0};
Point(p15 + 29) = {20.10196592943084, -1.365514661707907, 0};
Point(p15 + 30) = {20.24137, -1.376486, 0};
Point(p15 + 31) = {20.38077407056916, -1.365514661707907, 0};
Point(p15 + 32) = {20.51674555026532, -1.332870797592165, 0};
Point(p15 + 33) = {20.6459363699949, -1.279358207926077, 0};
Point(p15 + 34) = {20.7651654230164, -1.206294550265325, 0};
Point(p15 + 35) = {20.87149689434589, -1.115478894345893, 0};
Point(p15 + 36) = {20.96231255026532, -1.009147423016401, 0};
Point(p15 + 37) = {21.03537620792608, -0.8899183699949014, 0};
Point(p15 + 38) = {21.08888879759217, -0.7607275502653246, 0};
Point(p15 + 39) = {21.12153266170791, -0.6247560705691613, 0};
Spline(15) = {11, p15 + 1, p15 + 2, p15 + 3, p15 + 4, p15 + 5, p15 + 6, p15 + 7, p15 + 8, p15 + 9, p15 + 10, p15 + 11, p15 + 12, p15 + 13, p15 + 14, p15 + 15, p15 + 16, p15 + 17, p15 + 18, p15 + 19, p15 + 20, p15 + 21, p15 + 22, p15 + 23, p15 + 24, p15 + 25, p15 + 26, p15 + 27, p15 + 28, p15 + 29, p15 + 30, p15 + 31, p15 + 32, p15 + 33, p15 + 34, p15 + 35, p15 + 36, p15 + 37, p15 + 38, p15 + 39, 11};
p16 = newp;
Point(p16 + 1) = {28.16530960336186, 0.9495023635009396, 0};
Point(p16 + 2) = {28.12866070863175, 1.102155996294326, 0};
Point(p16 + 3) = {28.06858273322864, 1.247197059312426, 0};
Point(p16 + 4) = {27.98655499629433, 1.381054160220041, 0};
Point(p16 + 5) = {27.88459729294658, 1.500431292946581, 0};
Point(p16 + 6) = {27.76522016022004, 1.602388996294326, 0};
Point(p16 + 7) = {27.63136305931243, 1.68441673322864, 0};
Point(p16 + 8) = {27.48632199629433, 1.744494708631747, 0};
Point(p16 + 9) = {27.33366836350094, 1.781143603361855, 0};
Point(p16 + 10) = {27.177161, 1.793461, 0};
Point(p16 + 11) = {27.02065363649906, 1.781143603361855, 0};
Point(p16 + 12) = {26.86800000370567, 1.744494708631747, 0};
Point(p16 + 13) = {26.72295894068758, 1.68441673322864, 0};
Point(p16 + 14) = {26.58910183977996, 1.602388996294326, 0};
Point(p16 + 15) = {26.46972470705342, 1.500431292946581, 0};
Point(p16 + 16) = {26.36776700370568, 1.381054160220041, 0};
Point(p16 + 17) = {26.28573926677136, 1.247197059312426, 0};
Point(p16 + 18) = {26.22566129136825, 1.102155996294326, 0};
Point(p16 + 19) = {26.18901239663815, 0.9495023635009398, 0};
Point(p16 + 20) = {26.176695, 0.7929950000000001, 0};
Point(p16 + 21) = {26.18901239663815, 0.6364876364990605, 0};
Point(p16 + 22) = {26.22566129136825, 0.4838340037056735, 0};
Point(p16 + 23) = {26.28573926677136, 0.3387929406875751, 0};
Point(p16 + 24) = {26.36776700370568, 0.2049358397799587, 0};
Point(p16 + 25) = {26.46972470705342, 0.0855587070534195, 0};
Point(p16 + 26) = {26.58910183977996, -0.01639899629432617, 0};
Point(p16 + 27) = {26.72295894068758, -0.0984267332286396, 0};
Point(p16 + 28) = {26.86800000370567, -0.1585047086317471, 0};
Point(p16 + 29) = {27.02065363649906, -0.1951536033618551, 0};
Point(p16 + 30) = {27.177161, -0.2074710000000001, 0};
Point(p16 + 31) = {27.33366836350094, -0.1951536033618552, 0};
Point(p16 + 32) = {27.48632199629433, -0.1585047086317473, 0};
Point(p16 + 33) = {27.63136305931243, -0.09842673322863971, 0};
Point(p16 + 34) = {27.76522016022004, -0.0163989962943264, 0};
Point(p16 + 35) = {27.88459729294658, 0.08555870705341928, 0};
Point(p16 + 36) = {27.98655499629433, 0.2049358397799583, 0};
Point(p16 + 37) = {28.06858273322864, 0.3387929406875744, 0};
Point(p16 + 38) = {28.12866070863175, 0.4838340037056736, 0};
Point(p16 + 39) = {28.16530960336186, 0.6364876364990601, 0};
Spline(16) = {12, p16 + 1, p16 + 2, p16 + 3, p16 + 4, p16 + 5, p16 + 6, p16 + 7, p16 + 8, p16 + 9, p16 + 10, p16 + 11, p16 + 12, p16 + 13, p16 + 14, p16 + 15, p16 + 16, p16 + 17, p16 + 18, p16 + 19, p16 + 20, p16 + 21, p16 + 22, p16 + 23, p16 + 24, p16 + 25, p16 + 26, p16 + 27, p16 + 28, p16 + 29, p16 + 30, p16 + 31, p16 + 32, p16 + 33, p16 + 34, p16 + 35, p16 + 36, p16 + 37, p16 + 38, p16 + 39, 12};
Line(17) = {11, 8};
Line(18) = {12, 9};
Curve Loop(1) = {-1, 4, 3, -2};
Plane Surface(1) = {1};
Curve Loop(2) = {-5, 1, 7, -6};
Plane Surface(2) = {2};
Curve Loop(3) = {-2, 7, 9, -8, -10, -11};
Plane Surface(3) = {3};
Curve Loop(4) = {-12, 3, 8, -13};
Plane Surface(4) = {4};
Curve Loop(5) = {-4, 5, 14, -12, -15, -16};
Plane Surface(5) = {5};
Curve Loop(6) = {-6, 14, 13, -9};
Plane Surface(6) = {6};
Curve Loop(7) = {-10, -17, 15, 17};
Surface(7) = {7};
Curve Loop(8) = {-11, -18, 16, 18};
Surface(8) = {8};
Surface Loop(1) = {1, 2, 3, 4, 5, 6, 7, 8};
Volume(1) = {1};
Physical Surface("INFLOW") = {1};
Physical Surface("OUTFLOW") = {6};
Physical Surface("OBSTACLE") = {7, 8};
Physical Surface("WALL_Y") = {2, 4};
Physical Surface("WALL_Z") = {3, 5};
Physical Volume("FLUID") = {1};
