cl__1 = 0.941774;
cl__2 = 0.862046;
cl__3 = 3.466276;
cl__4 = 0.098663;
Point(1) = {0.6619390000000001, -3.605797, 1, cl__1};
Point(2) = {0.6619390000000001, -3.605797, 0, cl__1};
Point(3) = {0.6619390000000001, 4.57712, 1, cl__2};
Point(4) = {0.6619390000000001, 4.57712, 0, cl__2};
Point(5) = {34.42044199999999, -3.605797, 0, cl__3};
Point(6) = {34.42044199999999, -3.605797, 1, cl__3};
Point(7) = {34.42044199999999, 4.57712, 1, cl__3};
Point(8) = {10.736102, 1.460538, 1, cl__4};
Point(9) = {34.42044199999999, 4.57712, 0, cl__3};
Point(10) = {10.736102, 1.460538, 0, cl__4};
Line(1) = {2, 1};
Line(2) = {1, 3};
Line(3) = {4, 3};
Line(4) = {2, 4};
Line(5) = {2, 5};
Line(6) = {5, 6};
Line(7) = {1, 6};
Line(8) = {3, 7};
Line(9) = {6, 7};
p10 = newp;
Point(p10 + 1) = {10.7239549105464, 1.614881405546038, 1};
Point(p10 + 2) = {10.68781274384184, 1.765424364211137, 1};
Point(p10 + 3) = {10.62856543997954, 1.908460008729528, 1};
Point(p10 + 4) = {10.54767186421114, 2.040466326825079, 1};
Point(p10 + 5) = {10.44712388484243, 2.158192884842427, 1};
Point(p10 + 6) = {10.32939732682508, 2.258740864211137, 1};
Point(p10 + 7) = {10.19739100872953, 2.339634439979542, 1};
Point(p10 + 8) = {10.05435536421114, 2.398881743841836, 1};
Point(p10 + 9) = {9.903812405546038, 2.435023910546402, 1};
Point(p10 + 10) = {9.749468999999999, 2.447171, 1};
Point(p10 + 11) = {9.595125594453961, 2.435023910546402, 1};
Point(p10 + 12) = {9.444582635788862, 2.398881743841836, 1};
Point(p10 + 13) = {9.301546991270472, 2.339634439979542, 1};
Point(p10 + 14) = {9.16954067317492, 2.258740864211137, 1};
Point(p10 + 15) = {9.051814115157573, 2.158192884842427, 1};
Point(p10 + 16) = {8.951266135788861, 2.04046632682508, 1};
Point(p10 + 17) = {8.870372560020458, 1.908460008729528, 1};
Point(p10 + 18) = {8.811125256158164, 1.765424364211138, 1};
Point(p10 + 19) = {8.774983089453597, 1.614881405546038, 1};
Point(p10 + 20) = {8.762836, 1.460538, 1};
Point(p10 + 21) = {8.774983089453597, 1.306194594453962, 1};
Point(p10 + 22) = {8.811125256158164, 1.155651635788862, 1};
Point(p10 + 23) = {8.870372560020456, 1.012615991270472, 1};
Point(p10 + 24) = {8.951266135788861, 0.8806096731749203, 1};
Point(p10 + 25) = {9.051814115157573, 0.762883115157573, 1};
Point(p10 + 26) = {9.16954067317492, 0.6623351357888625, 1};
Point(p10 + 27) = {9.30154699127047, 0.581441560020458, 1};
Point(p10 + 28) = {9.444582635788862, 0.5221942561581637, 1};
Point(p10 + 29) = {9.595125594453961, 0.4860520894535975, 1};
Point(p10 + 30) = {9.749468999999999, 0.4739049999999999, 1};
Point(p10 + 31) = {9.903812405546038, 0.4860520894535973, 1};
Point(p10 + 32) = {10.05435536421114, 0.5221942561581636, 1};
Point(p10 + 33) = {10.19739100872953, 0.5814415600204579, 1};
Point(p10 + 34) = {10.32939732682508, 0.6623351357888623, 1};
Point(p10 + 35) = {10.44712388484243, 0.7628831151575728, 1};
Point(p10 + 36) = {10.54767186421114, 0.88060967317492, 1};
Point(p10 + 37) = {10.62856543997954, 1.012615991270472, 1};
Point(p10 + 38) = {10.68781274384184, 1.155651635788862, 1};
Point(p10 + 39) = {10.7239549105464, 1.306194594453962, 1};
Spline(10) = {8, p10 + 1, p10 + 2, p10 + 3, p10 + 4, p10 + 5, p10 + 6, p10 + 7, p10 + 8, p10 + 9, p10 + 10, p10 + 11, p10 + 12, p10 + 13, p10 + 14, p10 + 15, p10 + 16, p10 + 17, p10 + 18, p10 + 19, p10 + 20, p10 + 21, p10 + 22, p10 + 23, p10 + 24, p10 + 25, p10 + 26, p10 + 27, p10 + 28, p10 + 29, p10 + 30, p10 + 31, p10 + 32, p10 + 33, p10 + 34, p10 + 35, p10 + 36, p10 + 37, p10 + 38, p10 + 39, 8};
Line(11) = {4, 9};
Line(12) = {9, 7};
Line(13) = {5, 9};
p14 = newp;
Point(p14 + 1) = {10.7239549105464, 1.614881405546038, 0};
Point(p14 + 2) = {10.68781274384184, 1.765424364211137, 0};
Point(p14 + 3) = {10.62856543997954, 1.908460008729528, 0};
Point(p14 + 4) = {10.54767186421114, 2.040466326825079, 0};
Point(p14 + 5) = {10.44712388484243, 2.158192884842427, 0};
Point(p14 + 6) = {10.32939732682508, 2.258740864211137, 0};
Point(p14 + 7) = {10.19739100872953, 2.339634439979542, 0};
Point(p14 + 8) = {10.05435536421114, 2.398881743841836, 0};
Point(p14 + 9) = {9.903812405546038, 2.435023910546402, 0};
Point(p14 + 10) = {9.749468999999999, 2.447171, 0};
Point(p14 + 11) = {9.595125594453961, 2.435023910546402, 0};
Point(p14 + 12) = {9.444582635788862, 2.398881743841836, 0};
Point(p14 + 13) = {9.301546991270472, 2.339634439979542, 0};
Point(p14 + 14) = {9.16954067317492, 2.258740864211137, 0};
Point(p14 + 15) = {9.051814115157573, 2.158192884842427, 0};
Point(p14 + 16) = {8.951266135788861, 2.04046632682508, 0};
Point(p14 + 17) = {8.870372560020458, 1.908460008729528, 0};
Point(p14 + 18) = {8.811125256158164, 1.765424364211138, 0};
Point(p14 + 19) = {8.774983089453597, 1.614881405546038, 0};
Point(p14 + 20) = {8.762836, 1.460538, 0};
Point(p14 + 21) = {8.774983089453597, 1.306194594453962, 0};
Point(p14 + 22) = {8.811125256158164, 1.155651635788862, 0};
Point(p14 + 23) = {8.870372560020456, 1.012615991270472, 0};
Point(p14 + 24) = {8.951266135788861, 0.8806096731749203, 0};
Point(p14 + 25) = {9.051814115157573, 0.762883115157573, 0};
Point(p14 + 26) = {9.16954067317492, 0.6623351357888625, 0};
Point(p14 + 27) = {9.30154699127047, 0.581441560020458, 0};
Point(p14 + 28) = {9.444582635788862, 0.5221942561581637, 0};
Point(p14 + 29) = {9.595125594453961, 0.4860520894535975, 0};
Point(p14 + 30) = {9.749468999999999, 0.4739049999999999, 0};
Point(p14 + 31) = {9.903812405546038, 0.4860520894535973, 0};
Point(p14 + 32) = {10.05435536421114, 0.5221942561581636, 0};
Point(p14 + 33) = {10.19739100872953, 0.5814415600204579, 0};
Point(p14 + 34) = {10.32939732682508, 0.6623351357888623, 0};
Point(p14 + 35) = {10.44712388484243, 0.7628831151575728, 0};
Point(p14 + 36) = {10.54767186421114, 0.88060967317492, 0};
Point(p14 + 37) = {10.62856543997954, 1.012615991270472, 0};
Point(p14 + 38) = {10.68781274384184, 1.155651635788862, 0};
Point(p14 + 39) = {10.7239549105464, 1.306194594453962, 0};
Spline(14) = {10, p14 + 1, p14 + 2, p14 + 3, p14 + 4, p14 + 5, p14 + 6, p14 + 7, p14 + 8, p14 + 9, p14 + 10, p14 + 11, p14 + 12, p14 + 13, p14 + 14, p14 + 15, p14 + 16, p14 + 17, p14 + 18, p14 + 19, p14 + 20, p14 + 21, p14 + 22, p14 + 23, p14 + 24, p14 + 25, p14 + 26, p14 + 27, p14 + 28, p14 + 29, p14 + 30, p14 + 31, p14 + 32, p14 + 33, p14 + 34, p14 + 35, p14 + 36, p14 + 37, p14 + 38, p14 + 39, 10};
Line(15) = {10, 8};
Curve Loop(1) = {-1, 4, 3, -2};
Plane Surface(1) = {1};
Curve Loop(2) = {-5, 1, 7, -6};
Plane Surface(2) = {2};
Curve Loop(3) = {-2, 7, 9, -8, -10};
Plane Surface(3) = {3};
Curve Loop(4) = {-11, 3, 8, -12};
Plane Surface(4) = {4};
Curve Loop(5) = {-4, 5, 13, -11, -14};
Plane Surface(5) = {5};
Curve Loop(6) = {-6, 13, 12, -9};
Plane Surface(6) = {6};
Curve Loop(7) = {-10, -15, 14, 15};
Surface(7) = {7};
Surface Loop(1) = {1, 2, 3, 4, 5, 6, 7};
Volume(1) = {1};
Physical Surface("INFLOW") = {1};
Physical Surface("OUTFLOW") = {6};
Physical Surface("OBSTACLE") = {7};
Physical Surface("WALL_Y") = {2, 4};
Physical Surface("WALL_Z") = {3, 5};
Physical Volume("FLUID") = {1};
