cl__1 = 0.713635;
cl__2 = 0.78795;
cl__3 = 3.472688;
cl__4 = 0.08495900000000001;
Point(1) = {0.9053060000000001, -4.785668, 1, cl__1};
Point(2) = {0.9053060000000001, -4.785668, 0, cl__1};
Point(3) = {0.9053060000000001, 5.080365, 1, cl__2};
Point(4) = {0.9053060000000001, 5.080365, 0, cl__2};
Point(5) = {34.37472500000001, -4.785668, 0, cl__3};
Point(6) = {34.37472500000001, -4.785668, 1, cl__3};
Point(7) = {34.37472500000001, 5.080365, 1, cl__3};
Point(8) = {8.482080999999999, -0.4821730000000002, 1, cl__4};
Point(9) = {34.37472500000001, 5.080365, 0, cl__3};
Point(10) = {8.482080999999999, -0.4821730000000002, 0, cl__4};
Line(1) = {2, 1};
Line(2) = {1, 3};
Line(3) = {4, 3};
Line(4) = {2, 4};
Line(5) = {2, 5};
Line(6) = {5, 6};
Line(7) = {1, 6};
Line(8) = {3, 7};
Line(9) = {6, 7};
p10 = newp;
Point(p10 + 1) = {8.47162119884452, -0.3492686250187955, 1};
Point(p10 + 2) = {8.440499350396617, -0.2196367968339603, 1};
Point(p10 + 3) = {8.389481777852573, -0.09646948127877719, 1};
Point(p10 + 4) = {8.31982470316604, 0.01720053356890078, 1};
Point(p10 + 5) = {8.233243314694374, 0.1185743146943729, 1};
Point(p10 + 6) = {8.131869533568901, 0.2051557031660398, 1};
Point(p10 + 7) = {8.018199518721223, 0.2748127778525745, 1};
Point(p10 + 8) = {7.895032203166039, 0.3258303503966181, 1};
Point(p10 + 9) = {7.765400374981204, 0.3569521988445202, 1};
Point(p10 + 10) = {7.632496, 0.367412, 1};
Point(p10 + 11) = {7.499591625018795, 0.3569521988445201, 1};
Point(p10 + 12) = {7.36995979683396, 0.3258303503966182, 1};
Point(p10 + 13) = {7.246792481278777, 0.2748127778525746, 1};
Point(p10 + 14) = {7.133122466431099, 0.2051557031660398, 1};
Point(p10 + 15) = {7.031748685305627, 0.118574314694373, 1};
Point(p10 + 16) = {6.94516729683396, 0.01720053356890089, 1};
Point(p10 + 17) = {6.875510222147425, -0.09646948127877708, 1};
Point(p10 + 18) = {6.824492649603382, -0.2196367968339603, 1};
Point(p10 + 19) = {6.793370801155479, -0.3492686250187954, 1};
Point(p10 + 20) = {6.782910999999999, -0.4821729999999999, 1};
Point(p10 + 21) = {6.793370801155479, -0.6150773749812044, 1};
Point(p10 + 22) = {6.824492649603382, -0.7447092031660401, 1};
Point(p10 + 23) = {6.875510222147425, -0.8678765187212225, 1};
Point(p10 + 24) = {6.94516729683396, -0.9815465335689008, 1};
Point(p10 + 25) = {7.031748685305627, -1.082920314694373, 1};
Point(p10 + 26) = {7.133122466431098, -1.16950170316604, 1};
Point(p10 + 27) = {7.246792481278777, -1.239158777852575, 1};
Point(p10 + 28) = {7.36995979683396, -1.290176350396618, 1};
Point(p10 + 29) = {7.499591625018795, -1.32129819884452, 1};
Point(p10 + 30) = {7.632496, -1.331758, 1};
Point(p10 + 31) = {7.765400374981204, -1.32129819884452, 1};
Point(p10 + 32) = {7.895032203166039, -1.290176350396618, 1};
Point(p10 + 33) = {8.018199518721222, -1.239158777852575, 1};
Point(p10 + 34) = {8.131869533568901, -1.16950170316604, 1};
Point(p10 + 35) = {8.233243314694372, -1.082920314694373, 1};
Point(p10 + 36) = {8.31982470316604, -0.9815465335689011, 1};
Point(p10 + 37) = {8.389481777852573, -0.8678765187212231, 1};
Point(p10 + 38) = {8.440499350396617, -0.7447092031660398, 1};
Point(p10 + 39) = {8.47162119884452, -0.6150773749812047, 1};
Spline(10) = {8, p10 + 1, p10 + 2, p10 + 3, p10 + 4, p10 + 5, p10 + 6, p10 + 7, p10 + 8, p10 + 9, p10 + 10, p10 + 11, p10 + 12, p10 + 13, p10 + 14, p10 + 15, p10 + 16, p10 + 17, p10 + 18, p10 + 19, p10 + 20, p10 + 21, p10 + 22, p10 + 23, p10 + 24, p10 + 25, p10 + 26, p10 + 27, p10 + 28, p10 + 29, p10 + 30, p10 + 31, p10 + 32, p10 + 33, p10 + 34, p10 + 35, p10 + 36, p10 + 37, p10 + 38, p10 + 39, 8};
Line(11) = {4, 9};
Line(12) = {9, 7};
Line(13) = {5, 9};
p14 = newp;
Point(p14 + 1) = {8.47162119884452, -0.3492686250187955, 0};
Point(p14 + 2) = {8.440499350396617, -0.2196367968339603, 0};
Point(p14 + 3) = {8.389481777852573, -0.09646948127877719, 0};
Point(p14 + 4) = {8.31982470316604, 0.01720053356890078, 0};
Point(p14 + 5) = {8.233243314694374, 0.1185743146943729, 0};
Point(p14 + 6) = {8.131869533568901, 0.2051557031660398, 0};
Point(p14 + 7) = {8.018199518721223, 0.2748127778525745, 0};
Point(p14 + 8) = {7.895032203166039, 0.3258303503966181, 0};
Point(p14 + 9) = {7.765400374981204, 0.3569521988445202, 0};
Point(p14 + 10) = {7.632496, 0.367412, 0};
Point(p14 + 11) = {7.499591625018795, 0.3569521988445201, 0};
Point(p14 + 12) = {7.36995979683396, 0.3258303503966182, 0};
Point(p14 + 13) = {7.246792481278777, 0.2748127778525746, 0};
Point(p14 + 14) = {7.133122466431099, 0.2051557031660398, 0};
Point(p14 + 15) = {7.031748685305627, 0.118574314694373, 0};
Point(p14 + 16) = {6.94516729683396, 0.01720053356890089, 0};
Point(p14 + 17) = {6.875510222147425, -0.09646948127877708, 0};
Point(p14 + 18) = {6.824492649603382, -0.2196367968339603, 0};
Point(p14 + 19) = {6.793370801155479, -0.3492686250187954, 0};
Point(p14 + 20) = {6.782910999999999, -0.4821729999999999, 0};
Point(p14 + 21) = {6.793370801155479, -0.6150773749812044, 0};
Point(p14 + 22) = {6.824492649603382, -0.7447092031660401, 0};
Point(p14 + 23) = {6.875510222147425, -0.8678765187212225, 0};
Point(p14 + 24) = {6.94516729683396, -0.9815465335689008, 0};
Point(p14 + 25) = {7.031748685305627, -1.082920314694373, 0};
Point(p14 + 26) = {7.133122466431098, -1.16950170316604, 0};
Point(p14 + 27) = {7.246792481278777, -1.239158777852575, 0};
Point(p14 + 28) = {7.36995979683396, -1.290176350396618, 0};
Point(p14 + 29) = {7.499591625018795, -1.32129819884452, 0};
Point(p14 + 30) = {7.632496, -1.331758, 0};
Point(p14 + 31) = {7.765400374981204, -1.32129819884452, 0};
Point(p14 + 32) = {7.895032203166039, -1.290176350396618, 0};
Point(p14 + 33) = {8.018199518721222, -1.239158777852575, 0};
Point(p14 + 34) = {8.131869533568901, -1.16950170316604, 0};
Point(p14 + 35) = {8.233243314694372, -1.082920314694373, 0};
Point(p14 + 36) = {8.31982470316604, -0.9815465335689011, 0};
Point(p14 + 37) = {8.389481777852573, -0.8678765187212231, 0};
Point(p14 + 38) = {8.440499350396617, -0.7447092031660398, 0};
Point(p14 + 39) = {8.47162119884452, -0.6150773749812047, 0};
Spline(14) = {10, p14 + 1, p14 + 2, p14 + 3, p14 + 4, p14 + 5, p14 + 6, p14 + 7, p14 + 8, p14 + 9, p14 + 10, p14 + 11, p14 + 12, p14 + 13, p14 + 14, p14 + 15, p14 + 16, p14 + 17, p14 + 18, p14 + 19, p14 + 20, p14 + 21, p14 + 22, p14 + 23, p14 + 24, p14 + 25, p14 + 26, p14 + 27, p14 + 28, p14 + 29, p14 + 30, p14 + 31, p14 + 32, p14 + 33, p14 + 34, p14 + 35, p14 + 36, p14 + 37, p14 + 38, p14 + 39, 10};
Line(15) = {10, 8};
Curve Loop(1) = {-1, 4, 3, -2};
Plane Surface(1) = {1};
Curve Loop(2) = {-5, 1, 7, -6};
Plane Surface(2) = {2};
Curve Loop(3) = {-2, 7, 9, -8, -10};
Plane Surface(3) = {3};
Curve Loop(4) = {-11, 3, 8, -12};
Plane Surface(4) = {4};
Curve Loop(5) = {-4, 5, 13, -11, -14};
Plane Surface(5) = {5};
Curve Loop(6) = {-6, 13, 12, -9};
Plane Surface(6) = {6};
Curve Loop(7) = {-10, -15, 14, 15};
Surface(7) = {7};
Surface Loop(1) = {1, 2, 3, 4, 5, 6, 7};
Volume(1) = {1};
Physical Surface("INFLOW") = {1};
Physical Surface("OUTFLOW") = {6};
Physical Surface("OBSTACLE") = {7};
Physical Surface("WALL_Y") = {2, 4};
Physical Surface("WALL_Z") = {3, 5};
Physical Volume("FLUID") = {1};
