cl__1 = 3.969492;
cl__2 = 1.320667;
cl__3 = 1.337849;
cl__4 = 0.103669;
Point(1) = {0.30854, -4.358629, 1, cl__1};
Point(2) = {0.30854, -4.358629, 0, cl__1};
Point(3) = {0.30854, 4.404982, 1, cl__1};
Point(4) = {0.30854, 4.404982, 0, cl__1};
Point(5) = {39.452328, -4.358629, 0, cl__2};
Point(6) = {39.452328, -4.358629, 1, cl__2};
Point(7) = {39.452328, 4.404982, 1, cl__3};
Point(8) = {26.848773, -0.2577650000000002, 1, cl__4};
Point(9) = {39.452328, 4.404982, 0, cl__3};
Point(10) = {26.848773, -0.2577650000000002, 0, cl__4};
Line(1) = {2, 1};
Line(2) = {1, 3};
Line(3) = {4, 3};
Line(4) = {2, 4};
Line(5) = {2, 5};
Line(6) = {5, 6};
Line(7) = {1, 6};
Line(8) = {3, 7};
Line(9) = {6, 7};
p10 = newp;
Point(p10 + 1) = {26.83600961349991, -0.09559079800297804, 1};
Point(p10 + 2) = {26.79803373093454, 0.06259013691555859, 1};
Point(p10 + 3) = {26.73578044456736, 0.2128828651654904, 1};
Point(p10 + 4) = {26.65078263691556, 0.3515866809843363, 1};
Point(p10 + 5) = {26.54513323609506, 0.475286236095063, 1};
Point(p10 + 6) = {26.42143368098434, 0.5809356369155586, 1};
Point(p10 + 7) = {26.28272986516549, 0.6659334445673631, 1};
Point(p10 + 8) = {26.13243713691556, 0.728186730934539, 1};
Point(p10 + 9) = {25.97425620199702, 0.766162613499914, 1};
Point(p10 + 10) = {25.812082, 0.778926, 1};
Point(p10 + 11) = {25.64990779800298, 0.7661626134999138, 1};
Point(p10 + 12) = {25.49172686308444, 0.7281867309345391, 1};
Point(p10 + 13) = {25.34143413483451, 0.6659334445673634, 1};
Point(p10 + 14) = {25.20273031901566, 0.5809356369155586, 1};
Point(p10 + 15) = {25.07903076390494, 0.4752862360950632, 1};
Point(p10 + 16) = {24.97338136308444, 0.3515866809843364, 1};
Point(p10 + 17) = {24.88838355543264, 0.2128828651654905, 1};
Point(p10 + 18) = {24.82613026906546, 0.0625901369155587, 1};
Point(p10 + 19) = {24.78815438650009, -0.09559079800297793, 1};
Point(p10 + 20) = {24.775391, -0.2577649999999999, 1};
Point(p10 + 21) = {24.78815438650009, -0.4199392019970218, 1};
Point(p10 + 22) = {24.82613026906546, -0.578120136915559, 1};
Point(p10 + 23) = {24.88838355543264, -0.72841286516549, 1};
Point(p10 + 24) = {24.97338136308444, -0.8671166809843361, 1};
Point(p10 + 25) = {25.07903076390494, -0.9908162360950631, 1};
Point(p10 + 26) = {25.20273031901566, -1.096465636915559, 1};
Point(p10 + 27) = {25.34143413483451, -1.181463444567363, 1};
Point(p10 + 28) = {25.49172686308444, -1.243716730934539, 1};
Point(p10 + 29) = {25.64990779800298, -1.281692613499914, 1};
Point(p10 + 30) = {25.812082, -1.294456, 1};
Point(p10 + 31) = {25.97425620199702, -1.281692613499914, 1};
Point(p10 + 32) = {26.13243713691556, -1.243716730934539, 1};
Point(p10 + 33) = {26.28272986516549, -1.181463444567363, 1};
Point(p10 + 34) = {26.42143368098434, -1.096465636915559, 1};
Point(p10 + 35) = {26.54513323609506, -0.9908162360950633, 1};
Point(p10 + 36) = {26.65078263691556, -0.8671166809843366, 1};
Point(p10 + 37) = {26.73578044456736, -0.7284128651654906, 1};
Point(p10 + 38) = {26.79803373093454, -0.5781201369155589, 1};
Point(p10 + 39) = {26.83600961349991, -0.4199392019970222, 1};
Spline(10) = {8, p10 + 1, p10 + 2, p10 + 3, p10 + 4, p10 + 5, p10 + 6, p10 + 7, p10 + 8, p10 + 9, p10 + 10, p10 + 11, p10 + 12, p10 + 13, p10 + 14, p10 + 15, p10 + 16, p10 + 17, p10 + 18, p10 + 19, p10 + 20, p10 + 21, p10 + 22, p10 + 23, p10 + 24, p10 + 25, p10 + 26, p10 + 27, p10 + 28, p10 + 29, p10 + 30, p10 + 31, p10 + 32, p10 + 33, p10 + 34, p10 + 35, p10 + 36, p10 + 37, p10 + 38, p10 + 39, 8};
Line(11) = {4, 9};
Line(12) = {9, 7};
Line(13) = {5, 9};
p14 = newp;
Point(p14 + 1) = {26.83600961349991, -0.09559079800297804, 0};
Point(p14 + 2) = {26.79803373093454, 0.06259013691555859, 0};
Point(p14 + 3) = {26.73578044456736, 0.2128828651654904, 0};
Point(p14 + 4) = {26.65078263691556, 0.3515866809843363, 0};
Point(p14 + 5) = {26.54513323609506, 0.475286236095063, 0};
Point(p14 + 6) = {26.42143368098434, 0.5809356369155586, 0};
Point(p14 + 7) = {26.28272986516549, 0.6659334445673631, 0};
Point(p14 + 8) = {26.13243713691556, 0.728186730934539, 0};
Point(p14 + 9) = {25.97425620199702, 0.766162613499914, 0};
Point(p14 + 10) = {25.812082, 0.778926, 0};
Point(p14 + 11) = {25.64990779800298, 0.7661626134999138, 0};
Point(p14 + 12) = {25.49172686308444, 0.7281867309345391, 0};
Point(p14 + 13) = {25.34143413483451, 0.6659334445673634, 0};
Point(p14 + 14) = {25.20273031901566, 0.5809356369155586, 0};
Point(p14 + 15) = {25.07903076390494, 0.4752862360950632, 0};
Point(p14 + 16) = {24.97338136308444, 0.3515866809843364, 0};
Point(p14 + 17) = {24.88838355543264, 0.2128828651654905, 0};
Point(p14 + 18) = {24.82613026906546, 0.0625901369155587, 0};
Point(p14 + 19) = {24.78815438650009, -0.09559079800297793, 0};
Point(p14 + 20) = {24.775391, -0.2577649999999999, 0};
Point(p14 + 21) = {24.78815438650009, -0.4199392019970218, 0};
Point(p14 + 22) = {24.82613026906546, -0.578120136915559, 0};
Point(p14 + 23) = {24.88838355543264, -0.72841286516549, 0};
Point(p14 + 24) = {24.97338136308444, -0.8671166809843361, 0};
Point(p14 + 25) = {25.07903076390494, -0.9908162360950631, 0};
Point(p14 + 26) = {25.20273031901566, -1.096465636915559, 0};
Point(p14 + 27) = {25.34143413483451, -1.181463444567363, 0};
Point(p14 + 28) = {25.49172686308444, -1.243716730934539, 0};
Point(p14 + 29) = {25.64990779800298, -1.281692613499914, 0};
Point(p14 + 30) = {25.812082, -1.294456, 0};
Point(p14 + 31) = {25.97425620199702, -1.281692613499914, 0};
Point(p14 + 32) = {26.13243713691556, -1.243716730934539, 0};
Point(p14 + 33) = {26.28272986516549, -1.181463444567363, 0};
Point(p14 + 34) = {26.42143368098434, -1.096465636915559, 0};
Point(p14 + 35) = {26.54513323609506, -0.9908162360950633, 0};
Point(p14 + 36) = {26.65078263691556, -0.8671166809843366, 0};
Point(p14 + 37) = {26.73578044456736, -0.7284128651654906, 0};
Point(p14 + 38) = {26.79803373093454, -0.5781201369155589, 0};
Point(p14 + 39) = {26.83600961349991, -0.4199392019970222, 0};
Spline(14) = {10, p14 + 1, p14 + 2, p14 + 3, p14 + 4, p14 + 5, p14 + 6, p14 + 7, p14 + 8, p14 + 9, p14 + 10, p14 + 11, p14 + 12, p14 + 13, p14 + 14, p14 + 15, p14 + 16, p14 + 17, p14 + 18, p14 + 19, p14 + 20, p14 + 21, p14 + 22, p14 + 23, p14 + 24, p14 + 25, p14 + 26, p14 + 27, p14 + 28, p14 + 29, p14 + 30, p14 + 31, p14 + 32, p14 + 33, p14 + 34, p14 + 35, p14 + 36, p14 + 37, p14 + 38, p14 + 39, 10};
Line(15) = {10, 8};
Curve Loop(1) = {-1, 4, 3, -2};
Plane Surface(1) = {1};
Curve Loop(2) = {-5, 1, 7, -6};
Plane Surface(2) = {2};
Curve Loop(3) = {-2, 7, 9, -8, -10};
Plane Surface(3) = {3};
Curve Loop(4) = {-11, 3, 8, -12};
Plane Surface(4) = {4};
Curve Loop(5) = {-4, 5, 13, -11, -14};
Plane Surface(5) = {5};
Curve Loop(6) = {-6, 13, 12, -9};
Plane Surface(6) = {6};
Curve Loop(7) = {-10, -15, 14, 15};
Surface(7) = {7};
Surface Loop(1) = {1, 2, 3, 4, 5, 6, 7};
Volume(1) = {1};
Physical Surface("INFLOW") = {1};
Physical Surface("OUTFLOW") = {6};
Physical Surface("OBSTACLE") = {7};
Physical Surface("WALL_Y") = {2, 4};
Physical Surface("WALL_Z") = {3, 5};
Physical Volume("FLUID") = {1};
