cl__1 = 0.465996;
cl__2 = 0.266753;
cl__3 = 3.416123;
cl__4 = 0.094627;
cl__5 = 0.134552;
Point(1) = {0.735675, -3.953047, 1, cl__1};
Point(2) = {0.735675, -3.953047, 0, cl__1};
Point(3) = {0.735675, 4.951135000000001, 1, cl__2};
Point(4) = {0.735675, 4.951135000000001, 0, cl__2};
Point(5) = {33.869874, -3.953047, 0, cl__3};
Point(6) = {33.869874, -3.953047, 1, cl__3};
Point(7) = {33.869874, 4.951135000000001, 1, cl__3};
Point(8) = {9.812616, -2.134423, 1, cl__4};
Point(9) = {4.318982, 1.619931, 1, cl__5};
Point(10) = {33.869874, 4.951135000000001, 0, cl__3};
Point(11) = {9.812616, -2.134423, 0, cl__4};
Point(12) = {4.318982, 1.619931, 0, cl__5};
Line(1) = {2, 1};
Line(2) = {1, 3};
Line(3) = {4, 3};
Line(4) = {2, 4};
Line(5) = {2, 5};
Line(6) = {5, 6};
Line(7) = {1, 6};
Line(8) = {3, 7};
Line(9) = {6, 7};
p10 = newp;
Point(p10 + 1) = {9.800965809119983, -1.986393289462986, 1};
Point(p10 + 2) = {9.766302102844165, -1.842008561681835, 1};
Point(p10 + 3) = {9.7094784166633, -1.70482404783996, 1};
Point(p10 + 4) = {9.631893938318164, -1.578217685957445, 1};
Point(p10 + 5) = {9.535459055153739, -1.465306944846262, 1};
Point(p10 + 6) = {9.422548314042556, -1.368872061681835, 1};
Point(p10 + 7) = {9.295941952160041, -1.291287583336701, 1};
Point(p10 + 8) = {9.158757438318165, -1.234463897155836, 1};
Point(p10 + 9) = {9.014372710537016, -1.199800190880017, 1};
Point(p10 + 10) = {8.866343000000001, -1.18815, 1};
Point(p10 + 11) = {8.718313289462985, -1.199800190880017, 1};
Point(p10 + 12) = {8.573928561681836, -1.234463897155836, 1};
Point(p10 + 13) = {8.43674404783996, -1.2912875833367, 1};
Point(p10 + 14) = {8.310137685957445, -1.368872061681835, 1};
Point(p10 + 15) = {8.197226944846262, -1.465306944846262, 1};
Point(p10 + 16) = {8.100792061681837, -1.578217685957444, 1};
Point(p10 + 17) = {8.023207583336701, -1.70482404783996, 1};
Point(p10 + 18) = {7.966383897155836, -1.842008561681835, 1};
Point(p10 + 19) = {7.931720190880018, -1.986393289462985, 1};
Point(p10 + 20) = {7.920070000000001, -2.134423, 1};
Point(p10 + 21) = {7.931720190880018, -2.282452710537014, 1};
Point(p10 + 22) = {7.966383897155836, -2.426837438318165, 1};
Point(p10 + 23) = {8.023207583336701, -2.56402195216004, 1};
Point(p10 + 24) = {8.100792061681835, -2.690628314042555, 1};
Point(p10 + 25) = {8.197226944846262, -2.803539055153738, 1};
Point(p10 + 26) = {8.310137685957445, -2.899973938318165, 1};
Point(p10 + 27) = {8.43674404783996, -2.9775584166633, 1};
Point(p10 + 28) = {8.573928561681836, -3.034382102844164, 1};
Point(p10 + 29) = {8.718313289462985, -3.069045809119983, 1};
Point(p10 + 30) = {8.866343000000001, -3.080696, 1};
Point(p10 + 31) = {9.014372710537014, -3.069045809119983, 1};
Point(p10 + 32) = {9.158757438318165, -3.034382102844164, 1};
Point(p10 + 33) = {9.295941952160041, -2.9775584166633, 1};
Point(p10 + 34) = {9.422548314042556, -2.899973938318165, 1};
Point(p10 + 35) = {9.535459055153739, -2.803539055153738, 1};
Point(p10 + 36) = {9.631893938318164, -2.690628314042556, 1};
Point(p10 + 37) = {9.7094784166633, -2.56402195216004, 1};
Point(p10 + 38) = {9.766302102844165, -2.426837438318165, 1};
Point(p10 + 39) = {9.800965809119983, -2.282452710537015, 1};
Spline(10) = {8, p10 + 1, p10 + 2, p10 + 3, p10 + 4, p10 + 5, p10 + 6, p10 + 7, p10 + 8, p10 + 9, p10 + 10, p10 + 11, p10 + 12, p10 + 13, p10 + 14, p10 + 15, p10 + 16, p10 + 17, p10 + 18, p10 + 19, p10 + 20, p10 + 21, p10 + 22, p10 + 23, p10 + 24, p10 + 25, p10 + 26, p10 + 27, p10 + 28, p10 + 29, p10 + 30, p10 + 31, p10 + 32, p10 + 33, p10 + 34, p10 + 35, p10 + 36, p10 + 37, p10 + 38, p10 + 39, 8};
p11 = newp;
Point(p11 + 1) = {4.30241640372591, 1.830416857835397, 1};
Point(p11 + 2) = {4.253127514861971, 2.035719855288374, 1};
Point(p11 + 3) = {4.172328989432457, 2.230784751200055, 1};
Point(p11 + 4) = {4.062010355288374, 2.410808400449821, 1};
Point(p11 + 5) = {3.924888023328904, 2.571358023328905, 1};
Point(p11 + 6) = {3.76433840044982, 2.708480355288374, 1};
Point(p11 + 7) = {3.584314751200055, 2.818798989432457, 1};
Point(p11 + 8) = {3.389249855288373, 2.899597514861971, 1};
Point(p11 + 9) = {3.183946857835397, 2.94888640372591, 1};
Point(p11 + 10) = {2.973461, 2.965452, 1};
Point(p11 + 11) = {2.762975142164603, 2.94888640372591, 1};
Point(p11 + 12) = {2.557672144711626, 2.899597514861972, 1};
Point(p11 + 13) = {2.362607248799945, 2.818798989432457, 1};
Point(p11 + 14) = {2.182583599550179, 2.708480355288374, 1};
Point(p11 + 15) = {2.022033976671096, 2.571358023328905, 1};
Point(p11 + 16) = {1.884911644711626, 2.410808400449821, 1};
Point(p11 + 17) = {1.774593010567543, 2.230784751200055, 1};
Point(p11 + 18) = {1.693794485138029, 2.035719855288374, 1};
Point(p11 + 19) = {1.64450559627409, 1.830416857835397, 1};
Point(p11 + 20) = {1.62794, 1.619931, 1};
Point(p11 + 21) = {1.64450559627409, 1.409445142164604, 1};
Point(p11 + 22) = {1.693794485138029, 1.204142144711626, 1};
Point(p11 + 23) = {1.774593010567543, 1.009077248799946, 1};
Point(p11 + 24) = {1.884911644711626, 0.8290535995501794, 1};
Point(p11 + 25) = {2.022033976671095, 0.6685039766710955, 1};
Point(p11 + 26) = {2.182583599550179, 0.5313816447116264, 1};
Point(p11 + 27) = {2.362607248799945, 0.4210630105675432, 1};
Point(p11 + 28) = {2.557672144711626, 0.3402644851380288, 1};
Point(p11 + 29) = {2.762975142164603, 0.2909755962740899, 1};
Point(p11 + 30) = {2.973460999999999, 0.27441, 1};
Point(p11 + 31) = {3.183946857835396, 0.2909755962740896, 1};
Point(p11 + 32) = {3.389249855288373, 0.3402644851380285, 1};
Point(p11 + 33) = {3.584314751200054, 0.421063010567543, 1};
Point(p11 + 34) = {3.76433840044982, 0.5313816447116262, 1};
Point(p11 + 35) = {3.924888023328904, 0.6685039766710952, 1};
Point(p11 + 36) = {4.062010355288374, 0.829053599550179, 1};
Point(p11 + 37) = {4.172328989432456, 1.009077248799945, 1};
Point(p11 + 38) = {4.253127514861971, 1.204142144711626, 1};
Point(p11 + 39) = {4.30241640372591, 1.409445142164603, 1};
Spline(11) = {9, p11 + 1, p11 + 2, p11 + 3, p11 + 4, p11 + 5, p11 + 6, p11 + 7, p11 + 8, p11 + 9, p11 + 10, p11 + 11, p11 + 12, p11 + 13, p11 + 14, p11 + 15, p11 + 16, p11 + 17, p11 + 18, p11 + 19, p11 + 20, p11 + 21, p11 + 22, p11 + 23, p11 + 24, p11 + 25, p11 + 26, p11 + 27, p11 + 28, p11 + 29, p11 + 30, p11 + 31, p11 + 32, p11 + 33, p11 + 34, p11 + 35, p11 + 36, p11 + 37, p11 + 38, p11 + 39, 9};
Line(12) = {4, 10};
Line(13) = {10, 7};
Line(14) = {5, 10};
p15 = newp;
Point(p15 + 1) = {9.800965809119983, -1.986393289462986, 0};
Point(p15 + 2) = {9.766302102844165, -1.842008561681835, 0};
Point(p15 + 3) = {9.7094784166633, -1.70482404783996, 0};
Point(p15 + 4) = {9.631893938318164, -1.578217685957445, 0};
Point(p15 + 5) = {9.535459055153739, -1.465306944846262, 0};
Point(p15 + 6) = {9.422548314042556, -1.368872061681835, 0};
Point(p15 + 7) = {9.295941952160041, -1.291287583336701, 0};
Point(p15 + 8) = {9.158757438318165, -1.234463897155836, 0};
Point(p15 + 9) = {9.014372710537016, -1.199800190880017, 0};
Point(p15 + 10) = {8.866343000000001, -1.18815, 0};
Point(p15 + 11) = {8.718313289462985, -1.199800190880017, 0};
Point(p15 + 12) = {8.573928561681836, -1.234463897155836, 0};
Point(p15 + 13) = {8.43674404783996, -1.2912875833367, 0};
Point(p15 + 14) = {8.310137685957445, -1.368872061681835, 0};
Point(p15 + 15) = {8.197226944846262, -1.465306944846262, 0};
Point(p15 + 16) = {8.100792061681837, -1.578217685957444, 0};
Point(p15 + 17) = {8.023207583336701, -1.70482404783996, 0};
Point(p15 + 18) = {7.966383897155836, -1.842008561681835, 0};
Point(p15 + 19) = {7.931720190880018, -1.986393289462985, 0};
Point(p15 + 20) = {7.920070000000001, -2.134423, 0};
Point(p15 + 21) = {7.931720190880018, -2.282452710537014, 0};
Point(p15 + 22) = {7.966383897155836, -2.426837438318165, 0};
Point(p15 + 23) = {8.023207583336701, -2.56402195216004, 0};
Point(p15 + 24) = {8.100792061681835, -2.690628314042555, 0};
Point(p15 + 25) = {8.197226944846262, -2.803539055153738, 0};
Point(p15 + 26) = {8.310137685957445, -2.899973938318165, 0};
Point(p15 + 27) = {8.43674404783996, -2.9775584166633, 0};
Point(p15 + 28) = {8.573928561681836, -3.034382102844164, 0};
Point(p15 + 29) = {8.718313289462985, -3.069045809119983, 0};
Point(p15 + 30) = {8.866343000000001, -3.080696, 0};
Point(p15 + 31) = {9.014372710537014, -3.069045809119983, 0};
Point(p15 + 32) = {9.158757438318165, -3.034382102844164, 0};
Point(p15 + 33) = {9.295941952160041, -2.9775584166633, 0};
Point(p15 + 34) = {9.422548314042556, -2.899973938318165, 0};
Point(p15 + 35) = {9.535459055153739, -2.803539055153738, 0};
Point(p15 + 36) = {9.631893938318164, -2.690628314042556, 0};
Point(p15 + 37) = {9.7094784166633, -2.56402195216004, 0};
Point(p15 + 38) = {9.766302102844165, -2.426837438318165, 0};
Point(p15 + 39) = {9.800965809119983, -2.282452710537015, 0};
Spline(15) = {11, p15 + 1, p15 + 2, p15 + 3, p15 + 4, p15 + 5, p15 + 6, p15 + 7, p15 + 8, p15 + 9, p15 + 10, p15 + 11, p15 + 12, p15 + 13, p15 + 14, p15 + 15, p15 + 16, p15 + 17, p15 + 18, p15 + 19, p15 + 20, p15 + 21, p15 + 22, p15 + 23, p15 + 24, p15 + 25, p15 + 26, p15 + 27, p15 + 28, p15 + 29, p15 + 30, p15 + 31, p15 + 32, p15 + 33, p15 + 34, p15 + 35, p15 + 36, p15 + 37, p15 + 38, p15 + 39, 11};
p16 = newp;
Point(p16 + 1) = {4.30241640372591, 1.830416857835397, 0};
Point(p16 + 2) = {4.253127514861971, 2.035719855288374, 0};
Point(p16 + 3) = {4.172328989432457, 2.230784751200055, 0};
Point(p16 + 4) = {4.062010355288374, 2.410808400449821, 0};
Point(p16 + 5) = {3.924888023328904, 2.571358023328905, 0};
Point(p16 + 6) = {3.76433840044982, 2.708480355288374, 0};
Point(p16 + 7) = {3.584314751200055, 2.818798989432457, 0};
Point(p16 + 8) = {3.389249855288373, 2.899597514861971, 0};
Point(p16 + 9) = {3.183946857835397, 2.94888640372591, 0};
Point(p16 + 10) = {2.973461, 2.965452, 0};
Point(p16 + 11) = {2.762975142164603, 2.94888640372591, 0};
Point(p16 + 12) = {2.557672144711626, 2.899597514861972, 0};
Point(p16 + 13) = {2.362607248799945, 2.818798989432457, 0};
Point(p16 + 14) = {2.182583599550179, 2.708480355288374, 0};
Point(p16 + 15) = {2.022033976671096, 2.571358023328905, 0};
Point(p16 + 16) = {1.884911644711626, 2.410808400449821, 0};
Point(p16 + 17) = {1.774593010567543, 2.230784751200055, 0};
Point(p16 + 18) = {1.693794485138029, 2.035719855288374, 0};
Point(p16 + 19) = {1.64450559627409, 1.830416857835397, 0};
Point(p16 + 20) = {1.62794, 1.619931, 0};
Point(p16 + 21) = {1.64450559627409, 1.409445142164604, 0};
Point(p16 + 22) = {1.693794485138029, 1.204142144711626, 0};
Point(p16 + 23) = {1.774593010567543, 1.009077248799946, 0};
Point(p16 + 24) = {1.884911644711626, 0.8290535995501794, 0};
Point(p16 + 25) = {2.022033976671095, 0.6685039766710955, 0};
Point(p16 + 26) = {2.182583599550179, 0.5313816447116264, 0};
Point(p16 + 27) = {2.362607248799945, 0.4210630105675432, 0};
Point(p16 + 28) = {2.557672144711626, 0.3402644851380288, 0};
Point(p16 + 29) = {2.762975142164603, 0.2909755962740899, 0};
Point(p16 + 30) = {2.973460999999999, 0.27441, 0};
Point(p16 + 31) = {3.183946857835396, 0.2909755962740896, 0};
Point(p16 + 32) = {3.389249855288373, 0.3402644851380285, 0};
Point(p16 + 33) = {3.584314751200054, 0.421063010567543, 0};
Point(p16 + 34) = {3.76433840044982, 0.5313816447116262, 0};
Point(p16 + 35) = {3.924888023328904, 0.6685039766710952, 0};
Point(p16 + 36) = {4.062010355288374, 0.829053599550179, 0};
Point(p16 + 37) = {4.172328989432456, 1.009077248799945, 0};
Point(p16 + 38) = {4.253127514861971, 1.204142144711626, 0};
Point(p16 + 39) = {4.30241640372591, 1.409445142164603, 0};
Spline(16) = {12, p16 + 1, p16 + 2, p16 + 3, p16 + 4, p16 + 5, p16 + 6, p16 + 7, p16 + 8, p16 + 9, p16 + 10, p16 + 11, p16 + 12, p16 + 13, p16 + 14, p16 + 15, p16 + 16, p16 + 17, p16 + 18, p16 + 19, p16 + 20, p16 + 21, p16 + 22, p16 + 23, p16 + 24, p16 + 25, p16 + 26, p16 + 27, p16 + 28, p16 + 29, p16 + 30, p16 + 31, p16 + 32, p16 + 33, p16 + 34, p16 + 35, p16 + 36, p16 + 37, p16 + 38, p16 + 39, 12};
Line(17) = {11, 8};
Line(18) = {12, 9};
Curve Loop(1) = {-1, 4, 3, -2};
Plane Surface(1) = {1};
Curve Loop(2) = {-5, 1, 7, -6};
Plane Surface(2) = {2};
Curve Loop(3) = {-2, 7, 9, -8, -10, -11};
Plane Surface(3) = {3};
Curve Loop(4) = {-12, 3, 8, -13};
Plane Surface(4) = {4};
Curve Loop(5) = {-4, 5, 14, -12, -15, -16};
Plane Surface(5) = {5};
Curve Loop(6) = {-6, 14, 13, -9};
Plane Surface(6) = {6};
Curve Loop(7) = {-10, -17, 15, 17};
Surface(7) = {7};
Curve Loop(8) = {-11, -18, 16, 18};
Surface(8) = {8};
Surface Loop(1) = {1, 2, 3, 4, 5, 6, 7, 8};
Volume(1) = {1};
Physical Surface("INFLOW") = {1};
Physical Surface("OUTFLOW") = {6};
Physical Surface("OBSTACLE") = {7, 8};
Physical Surface("WALL_Y") = {2, 4};
Physical Surface("WALL_Z") = {3, 5};
Physical Volume("FLUID") = {1};
