cl__1 = 0.346412;
cl__2 = 0.486623;
cl__3 = 3.183273;
cl__4 = 0.090812;
Point(1) = {0.419127, -3.526337, 1, cl__1};
Point(2) = {0.419127, -3.526337, 0, cl__1};
Point(3) = {0.419127, 5.010873999999999, 1, cl__2};
Point(4) = {0.419127, 5.010873999999999, 0, cl__2};
Point(5) = {31.545229, -3.526337, 0, cl__3};
Point(6) = {31.545229, -3.526337, 1, cl__3};
Point(7) = {31.545229, 5.010873999999999, 1, cl__3};
Point(8) = {4.031776, -0.09094700000000022, 1, cl__4};
Point(9) = {31.545229, 5.010873999999999, 0, cl__3};
Point(10) = {4.031776, -0.09094700000000022, 0, cl__4};
Line(1) = {2, 1};
Line(2) = {1, 3};
Line(3) = {4, 3};
Line(4) = {2, 4};
Line(5) = {2, 5};
Line(6) = {5, 6};
Line(7) = {1, 6};
Line(8) = {3, 7};
Line(9) = {6, 7};
p10 = newp;
Point(p10 + 1) = {4.020595585107895, 0.0511136406544743, 1};
Point(p10 + 2) = {3.98732963935189, 0.1896762768637997, 1};
Point(p10 + 3) = {3.932797280719844, 0.3213290366614783, 1};
Point(p10 + 4) = {3.8583412768638, 0.4428301921708315, 1};
Point(p10 + 5) = {3.765794981704003, 0.5511879817040027, 1};
Point(p10 + 6) = {3.657437192170832, 0.6437342768637998, 1};
Point(p10 + 7) = {3.535936036661478, 0.7181902807198438, 1};
Point(p10 + 8) = {3.4042832768638, 0.7727226393518897, 1};
Point(p10 + 9) = {3.265720640654474, 0.8059885851078942, 1};
Point(p10 + 10) = {3.12366, 0.817169, 1};
Point(p10 + 11) = {2.981599359345525, 0.8059885851078941, 1};
Point(p10 + 12) = {2.8430367231362, 0.7727226393518898, 1};
Point(p10 + 13) = {2.711383963338522, 0.7181902807198439, 1};
Point(p10 + 14) = {2.589882807829169, 0.6437342768637998, 1};
Point(p10 + 15) = {2.481525018295997, 0.5511879817040028, 1};
Point(p10 + 16) = {2.388978723136201, 0.4428301921708316, 1};
Point(p10 + 17) = {2.314522719280157, 0.3213290366614783, 1};
Point(p10 + 18) = {2.259990360648111, 0.1896762768637998, 1};
Point(p10 + 19) = {2.226724414892106, 0.05111364065447441, 1};
Point(p10 + 20) = {2.215544, -0.09094699999999989, 1};
Point(p10 + 21) = {2.226724414892106, -0.2330076406544742, 1};
Point(p10 + 22) = {2.259990360648111, -0.3715702768638001, 1};
Point(p10 + 23) = {2.314522719280156, -0.5032230366614778, 1};
Point(p10 + 24) = {2.3889787231362, -0.6247241921708314, 1};
Point(p10 + 25) = {2.481525018295997, -0.7330819817040027, 1};
Point(p10 + 26) = {2.589882807829168, -0.8256282768637997, 1};
Point(p10 + 27) = {2.711383963338521, -0.9000842807198438, 1};
Point(p10 + 28) = {2.8430367231362, -0.9546166393518897, 1};
Point(p10 + 29) = {2.981599359345525, -0.9878825851078941, 1};
Point(p10 + 30) = {3.12366, -0.999063, 1};
Point(p10 + 31) = {3.265720640654474, -0.9878825851078942, 1};
Point(p10 + 32) = {3.4042832768638, -0.9546166393518898, 1};
Point(p10 + 33) = {3.535936036661478, -0.9000842807198439, 1};
Point(p10 + 34) = {3.657437192170832, -0.8256282768637999, 1};
Point(p10 + 35) = {3.765794981704003, -0.733081981704003, 1};
Point(p10 + 36) = {3.8583412768638, -0.6247241921708317, 1};
Point(p10 + 37) = {3.932797280719844, -0.5032230366614785, 1};
Point(p10 + 38) = {3.98732963935189, -0.3715702768638, 1};
Point(p10 + 39) = {4.020595585107894, -0.2330076406544745, 1};
Spline(10) = {8, p10 + 1, p10 + 2, p10 + 3, p10 + 4, p10 + 5, p10 + 6, p10 + 7, p10 + 8, p10 + 9, p10 + 10, p10 + 11, p10 + 12, p10 + 13, p10 + 14, p10 + 15, p10 + 16, p10 + 17, p10 + 18, p10 + 19, p10 + 20, p10 + 21, p10 + 22, p10 + 23, p10 + 24, p10 + 25, p10 + 26, p10 + 27, p10 + 28, p10 + 29, p10 + 30, p10 + 31, p10 + 32, p10 + 33, p10 + 34, p10 + 35, p10 + 36, p10 + 37, p10 + 38, p10 + 39, 8};
Line(11) = {4, 9};
Line(12) = {9, 7};
Line(13) = {5, 9};
p14 = newp;
Point(p14 + 1) = {4.020595585107895, 0.0511136406544743, 0};
Point(p14 + 2) = {3.98732963935189, 0.1896762768637997, 0};
Point(p14 + 3) = {3.932797280719844, 0.3213290366614783, 0};
Point(p14 + 4) = {3.8583412768638, 0.4428301921708315, 0};
Point(p14 + 5) = {3.765794981704003, 0.5511879817040027, 0};
Point(p14 + 6) = {3.657437192170832, 0.6437342768637998, 0};
Point(p14 + 7) = {3.535936036661478, 0.7181902807198438, 0};
Point(p14 + 8) = {3.4042832768638, 0.7727226393518897, 0};
Point(p14 + 9) = {3.265720640654474, 0.8059885851078942, 0};
Point(p14 + 10) = {3.12366, 0.817169, 0};
Point(p14 + 11) = {2.981599359345525, 0.8059885851078941, 0};
Point(p14 + 12) = {2.8430367231362, 0.7727226393518898, 0};
Point(p14 + 13) = {2.711383963338522, 0.7181902807198439, 0};
Point(p14 + 14) = {2.589882807829169, 0.6437342768637998, 0};
Point(p14 + 15) = {2.481525018295997, 0.5511879817040028, 0};
Point(p14 + 16) = {2.388978723136201, 0.4428301921708316, 0};
Point(p14 + 17) = {2.314522719280157, 0.3213290366614783, 0};
Point(p14 + 18) = {2.259990360648111, 0.1896762768637998, 0};
Point(p14 + 19) = {2.226724414892106, 0.05111364065447441, 0};
Point(p14 + 20) = {2.215544, -0.09094699999999989, 0};
Point(p14 + 21) = {2.226724414892106, -0.2330076406544742, 0};
Point(p14 + 22) = {2.259990360648111, -0.3715702768638001, 0};
Point(p14 + 23) = {2.314522719280156, -0.5032230366614778, 0};
Point(p14 + 24) = {2.3889787231362, -0.6247241921708314, 0};
Point(p14 + 25) = {2.481525018295997, -0.7330819817040027, 0};
Point(p14 + 26) = {2.589882807829168, -0.8256282768637997, 0};
Point(p14 + 27) = {2.711383963338521, -0.9000842807198438, 0};
Point(p14 + 28) = {2.8430367231362, -0.9546166393518897, 0};
Point(p14 + 29) = {2.981599359345525, -0.9878825851078941, 0};
Point(p14 + 30) = {3.12366, -0.999063, 0};
Point(p14 + 31) = {3.265720640654474, -0.9878825851078942, 0};
Point(p14 + 32) = {3.4042832768638, -0.9546166393518898, 0};
Point(p14 + 33) = {3.535936036661478, -0.9000842807198439, 0};
Point(p14 + 34) = {3.657437192170832, -0.8256282768637999, 0};
Point(p14 + 35) = {3.765794981704003, -0.733081981704003, 0};
Point(p14 + 36) = {3.8583412768638, -0.6247241921708317, 0};
Point(p14 + 37) = {3.932797280719844, -0.5032230366614785, 0};
Point(p14 + 38) = {3.98732963935189, -0.3715702768638, 0};
Point(p14 + 39) = {4.020595585107894, -0.2330076406544745, 0};
Spline(14) = {10, p14 + 1, p14 + 2, p14 + 3, p14 + 4, p14 + 5, p14 + 6, p14 + 7, p14 + 8, p14 + 9, p14 + 10, p14 + 11, p14 + 12, p14 + 13, p14 + 14, p14 + 15, p14 + 16, p14 + 17, p14 + 18, p14 + 19, p14 + 20, p14 + 21, p14 + 22, p14 + 23, p14 + 24, p14 + 25, p14 + 26, p14 + 27, p14 + 28, p14 + 29, p14 + 30, p14 + 31, p14 + 32, p14 + 33, p14 + 34, p14 + 35, p14 + 36, p14 + 37, p14 + 38, p14 + 39, 10};
Line(15) = {10, 8};
Curve Loop(1) = {-1, 4, 3, -2};
Plane Surface(1) = {1};
Curve Loop(2) = {-5, 1, 7, -6};
Plane Surface(2) = {2};
Curve Loop(3) = {-2, 7, 9, -8, -10};
Plane Surface(3) = {3};
Curve Loop(4) = {-11, 3, 8, -12};
Plane Surface(4) = {4};
Curve Loop(5) = {-4, 5, 13, -11, -14};
Plane Surface(5) = {5};
Curve Loop(6) = {-6, 13, 12, -9};
Plane Surface(6) = {6};
Curve Loop(7) = {-10, -15, 14, 15};
Surface(7) = {7};
Surface Loop(1) = {1, 2, 3, 4, 5, 6, 7};
Volume(1) = {1};
Physical Surface("INFLOW") = {1};
Physical Surface("OUTFLOW") = {6};
Physical Surface("OBSTACLE") = {7};
Physical Surface("WALL_Y") = {2, 4};
Physical Surface("WALL_Z") = {3, 5};
Physical Volume("FLUID") = {1};
