cl__1 = 3.323755;
cl__2 = 0.320046;
cl__3 = 0.902357;
cl__4 = 0.068843;
cl__5 = 0.083784;
Point(1) = {0.16702, -3.289691, 1, cl__1};
Point(2) = {0.16702, -3.289691, 0, cl__1};
Point(3) = {0.16702, 4.937378000000001, 1, cl__2};
Point(4) = {0.16702, 4.937378000000001, 0, cl__2};
Point(5) = {32.982022, -3.289691, 0, cl__1};
Point(6) = {32.982022, -3.289691, 1, cl__1};
Point(7) = {32.982022, 4.937378000000001, 1, cl__3};
Point(8) = {30.417886, -1.157953, 1, cl__4};
Point(9) = {24.843204, 0.7928419999999998, 1, cl__5};
Point(10) = {32.982022, 4.937378000000001, 0, cl__3};
Point(11) = {30.417886, -1.157953, 0, cl__4};
Point(12) = {24.843204, 0.7928419999999998, 0, cl__5};
Line(1) = {2, 1};
Line(2) = {1, 3};
Line(3) = {4, 3};
Line(4) = {2, 4};
Line(5) = {2, 5};
Line(6) = {5, 6};
Line(7) = {1, 6};
Line(8) = {3, 7};
Line(9) = {6, 7};
p10 = newp;
Point(p10 + 1) = {30.40941033356255, -1.050259446970214, 1};
Point(p10 + 2) = {30.38419203328701, -0.9452176666304325, 1};
Point(p10 + 3) = {30.3428520574209, -0.8454141362263028, 1};
Point(p10 + 4) = {30.28640833336957, -0.7533063499053019, 1};
Point(p10 + 5) = {30.21625069294513, -0.6711623070548699, 1};
Point(p10 + 6) = {30.1341066500947, -0.6010046666304325, 1};
Point(p10 + 7) = {30.0419988637737, -0.5445609425790987, 1};
Point(p10 + 8) = {29.94219533336957, -0.5032209667129927, 1};
Point(p10 + 9) = {29.83715355302979, -0.4780026664374517, 1};
Point(p10 + 10) = {29.72946, -0.469527, 1};
Point(p10 + 11) = {29.62176644697021, -0.4780026664374518, 1};
Point(p10 + 12) = {29.51672466663043, -0.5032209667129925, 1};
Point(p10 + 13) = {29.4169211362263, -0.5445609425790987, 1};
Point(p10 + 14) = {29.3248133499053, -0.6010046666304325, 1};
Point(p10 + 15) = {29.24266930705487, -0.6711623070548698, 1};
Point(p10 + 16) = {29.17251166663043, -0.7533063499053019, 1};
Point(p10 + 17) = {29.1160679425791, -0.8454141362263028, 1};
Point(p10 + 18) = {29.07472796671299, -0.9452176666304324, 1};
Point(p10 + 19) = {29.04950966643745, -1.050259446970214, 1};
Point(p10 + 20) = {29.041034, -1.157953, 1};
Point(p10 + 21) = {29.04950966643745, -1.265646553029786, 1};
Point(p10 + 22) = {29.07472796671299, -1.370688333369568, 1};
Point(p10 + 23) = {29.1160679425791, -1.470491863773697, 1};
Point(p10 + 24) = {29.17251166663043, -1.562599650094698, 1};
Point(p10 + 25) = {29.24266930705487, -1.64474369294513, 1};
Point(p10 + 26) = {29.3248133499053, -1.714901333369568, 1};
Point(p10 + 27) = {29.4169211362263, -1.771345057420901, 1};
Point(p10 + 28) = {29.51672466663043, -1.812685033287007, 1};
Point(p10 + 29) = {29.62176644697021, -1.837903333562548, 1};
Point(p10 + 30) = {29.72946, -1.846379, 1};
Point(p10 + 31) = {29.83715355302979, -1.837903333562548, 1};
Point(p10 + 32) = {29.94219533336957, -1.812685033287007, 1};
Point(p10 + 33) = {30.0419988637737, -1.771345057420901, 1};
Point(p10 + 34) = {30.1341066500947, -1.714901333369568, 1};
Point(p10 + 35) = {30.21625069294513, -1.64474369294513, 1};
Point(p10 + 36) = {30.28640833336957, -1.562599650094698, 1};
Point(p10 + 37) = {30.3428520574209, -1.470491863773697, 1};
Point(p10 + 38) = {30.38419203328701, -1.370688333369568, 1};
Point(p10 + 39) = {30.40941033356255, -1.265646553029786, 1};
Spline(10) = {8, p10 + 1, p10 + 2, p10 + 3, p10 + 4, p10 + 5, p10 + 6, p10 + 7, p10 + 8, p10 + 9, p10 + 10, p10 + 11, p10 + 12, p10 + 13, p10 + 14, p10 + 15, p10 + 16, p10 + 17, p10 + 18, p10 + 19, p10 + 20, p10 + 21, p10 + 22, p10 + 23, p10 + 24, p10 + 25, p10 + 26, p10 + 27, p10 + 28, p10 + 29, p10 + 30, p10 + 31, p10 + 32, p10 + 33, p10 + 34, p10 + 35, p10 + 36, p10 + 37, p10 + 38, p10 + 39, 8};
p11 = newp;
Point(p11 + 1) = {24.83288886084253, 0.9239082700169818, 1};
Point(p11 + 2) = {24.80219743633015, 1.051747253482134, 1};
Point(p11 + 3) = {24.75188545119336, 1.173211130349283, 1};
Point(p11 + 4) = {24.68319175348213, 1.285309056854464, 1};
Point(p11 + 5) = {24.59780781001543, 1.385280810015431, 1};
Point(p11 + 6) = {24.49783605685447, 1.470664753482134, 1};
Point(p11 + 7) = {24.38573813034929, 1.539358451193361, 1};
Point(p11 + 8) = {24.26427425348214, 1.58967043633015, 1};
Point(p11 + 9) = {24.13643527001699, 1.620361860842527, 1};
Point(p11 + 10) = {24.005369, 1.630677, 1};
Point(p11 + 11) = {23.87430272998302, 1.620361860842527, 1};
Point(p11 + 12) = {23.74646374651787, 1.58967043633015, 1};
Point(p11 + 13) = {23.62499986965072, 1.539358451193361, 1};
Point(p11 + 14) = {23.51290194314554, 1.470664753482134, 1};
Point(p11 + 15) = {23.41293018998457, 1.385280810015431, 1};
Point(p11 + 16) = {23.32754624651787, 1.285309056854465, 1};
Point(p11 + 17) = {23.25885254880664, 1.173211130349283, 1};
Point(p11 + 18) = {23.20854056366985, 1.051747253482134, 1};
Point(p11 + 19) = {23.17784913915747, 0.9239082700169819, 1};
Point(p11 + 20) = {23.167534, 0.7928420000000002, 1};
Point(p11 + 21) = {23.17784913915747, 0.6617757299830184, 1};
Point(p11 + 22) = {23.20854056366985, 0.5339367465178657, 1};
Point(p11 + 23) = {23.25885254880664, 0.4124728696507173, 1};
Point(p11 + 24) = {23.32754624651787, 0.3003749431455359, 1};
Point(p11 + 25) = {23.41293018998457, 0.2004031899845691, 1};
Point(p11 + 26) = {23.51290194314554, 0.115019246517866, 1};
Point(p11 + 27) = {23.62499986965072, 0.04632554880663897, 1};
Point(p11 + 28) = {23.74646374651787, -0.003986436330149945, 1};
Point(p11 + 29) = {23.87430272998302, -0.03467786084252711, 1};
Point(p11 + 30) = {24.005369, -0.04499299999999995, 1};
Point(p11 + 31) = {24.13643527001698, -0.03467786084252722, 1};
Point(p11 + 32) = {24.26427425348214, -0.003986436330150056, 1};
Point(p11 + 33) = {24.38573813034929, 0.04632554880663886, 1};
Point(p11 + 34) = {24.49783605685447, 0.1150192465178659, 1};
Point(p11 + 35) = {24.59780781001543, 0.2004031899845689, 1};
Point(p11 + 36) = {24.68319175348213, 0.3003749431455356, 1};
Point(p11 + 37) = {24.75188545119336, 0.4124728696507167, 1};
Point(p11 + 38) = {24.80219743633015, 0.5339367465178658, 1};
Point(p11 + 39) = {24.83288886084253, 0.661775729983018, 1};
Spline(11) = {9, p11 + 1, p11 + 2, p11 + 3, p11 + 4, p11 + 5, p11 + 6, p11 + 7, p11 + 8, p11 + 9, p11 + 10, p11 + 11, p11 + 12, p11 + 13, p11 + 14, p11 + 15, p11 + 16, p11 + 17, p11 + 18, p11 + 19, p11 + 20, p11 + 21, p11 + 22, p11 + 23, p11 + 24, p11 + 25, p11 + 26, p11 + 27, p11 + 28, p11 + 29, p11 + 30, p11 + 31, p11 + 32, p11 + 33, p11 + 34, p11 + 35, p11 + 36, p11 + 37, p11 + 38, p11 + 39, 9};
Line(12) = {4, 10};
Line(13) = {10, 7};
Line(14) = {5, 10};
p15 = newp;
Point(p15 + 1) = {30.40941033356255, -1.050259446970214, 0};
Point(p15 + 2) = {30.38419203328701, -0.9452176666304325, 0};
Point(p15 + 3) = {30.3428520574209, -0.8454141362263028, 0};
Point(p15 + 4) = {30.28640833336957, -0.7533063499053019, 0};
Point(p15 + 5) = {30.21625069294513, -0.6711623070548699, 0};
Point(p15 + 6) = {30.1341066500947, -0.6010046666304325, 0};
Point(p15 + 7) = {30.0419988637737, -0.5445609425790987, 0};
Point(p15 + 8) = {29.94219533336957, -0.5032209667129927, 0};
Point(p15 + 9) = {29.83715355302979, -0.4780026664374517, 0};
Point(p15 + 10) = {29.72946, -0.469527, 0};
Point(p15 + 11) = {29.62176644697021, -0.4780026664374518, 0};
Point(p15 + 12) = {29.51672466663043, -0.5032209667129925, 0};
Point(p15 + 13) = {29.4169211362263, -0.5445609425790987, 0};
Point(p15 + 14) = {29.3248133499053, -0.6010046666304325, 0};
Point(p15 + 15) = {29.24266930705487, -0.6711623070548698, 0};
Point(p15 + 16) = {29.17251166663043, -0.7533063499053019, 0};
Point(p15 + 17) = {29.1160679425791, -0.8454141362263028, 0};
Point(p15 + 18) = {29.07472796671299, -0.9452176666304324, 0};
Point(p15 + 19) = {29.04950966643745, -1.050259446970214, 0};
Point(p15 + 20) = {29.041034, -1.157953, 0};
Point(p15 + 21) = {29.04950966643745, -1.265646553029786, 0};
Point(p15 + 22) = {29.07472796671299, -1.370688333369568, 0};
Point(p15 + 23) = {29.1160679425791, -1.470491863773697, 0};
Point(p15 + 24) = {29.17251166663043, -1.562599650094698, 0};
Point(p15 + 25) = {29.24266930705487, -1.64474369294513, 0};
Point(p15 + 26) = {29.3248133499053, -1.714901333369568, 0};
Point(p15 + 27) = {29.4169211362263, -1.771345057420901, 0};
Point(p15 + 28) = {29.51672466663043, -1.812685033287007, 0};
Point(p15 + 29) = {29.62176644697021, -1.837903333562548, 0};
Point(p15 + 30) = {29.72946, -1.846379, 0};
Point(p15 + 31) = {29.83715355302979, -1.837903333562548, 0};
Point(p15 + 32) = {29.94219533336957, -1.812685033287007, 0};
Point(p15 + 33) = {30.0419988637737, -1.771345057420901, 0};
Point(p15 + 34) = {30.1341066500947, -1.714901333369568, 0};
Point(p15 + 35) = {30.21625069294513, -1.64474369294513, 0};
Point(p15 + 36) = {30.28640833336957, -1.562599650094698, 0};
Point(p15 + 37) = {30.3428520574209, -1.470491863773697, 0};
Point(p15 + 38) = {30.38419203328701, -1.370688333369568, 0};
Point(p15 + 39) = {30.40941033356255, -1.265646553029786, 0};
Spline(15) = {11, p15 + 1, p15 + 2, p15 + 3, p15 + 4, p15 + 5, p15 + 6, p15 + 7, p15 + 8, p15 + 9, p15 + 10, p15 + 11, p15 + 12, p15 + 13, p15 + 14, p15 + 15, p15 + 16, p15 + 17, p15 + 18, p15 + 19, p15 + 20, p15 + 21, p15 + 22, p15 + 23, p15 + 24, p15 + 25, p15 + 26, p15 + 27, p15 + 28, p15 + 29, p15 + 30, p15 + 31, p15 + 32, p15 + 33, p15 + 34, p15 + 35, p15 + 36, p15 + 37, p15 + 38, p15 + 39, 11};
p16 = newp;
Point(p16 + 1) = {24.83288886084253, 0.9239082700169818, 0};
Point(p16 + 2) = {24.80219743633015, 1.051747253482134, 0};
Point(p16 + 3) = {24.75188545119336, 1.173211130349283, 0};
Point(p16 + 4) = {24.68319175348213, 1.285309056854464, 0};
Point(p16 + 5) = {24.59780781001543, 1.385280810015431, 0};
Point(p16 + 6) = {24.49783605685447, 1.470664753482134, 0};
Point(p16 + 7) = {24.38573813034929, 1.539358451193361, 0};
Point(p16 + 8) = {24.26427425348214, 1.58967043633015, 0};
Point(p16 + 9) = {24.13643527001699, 1.620361860842527, 0};
Point(p16 + 10) = {24.005369, 1.630677, 0};
Point(p16 + 11) = {23.87430272998302, 1.620361860842527, 0};
Point(p16 + 12) = {23.74646374651787, 1.58967043633015, 0};
Point(p16 + 13) = {23.62499986965072, 1.539358451193361, 0};
Point(p16 + 14) = {23.51290194314554, 1.470664753482134, 0};
Point(p16 + 15) = {23.41293018998457, 1.385280810015431, 0};
Point(p16 + 16) = {23.32754624651787, 1.285309056854465, 0};
Point(p16 + 17) = {23.25885254880664, 1.173211130349283, 0};
Point(p16 + 18) = {23.20854056366985, 1.051747253482134, 0};
Point(p16 + 19) = {23.17784913915747, 0.9239082700169819, 0};
Point(p16 + 20) = {23.167534, 0.7928420000000002, 0};
Point(p16 + 21) = {23.17784913915747, 0.6617757299830184, 0};
Point(p16 + 22) = {23.20854056366985, 0.5339367465178657, 0};
Point(p16 + 23) = {23.25885254880664, 0.4124728696507173, 0};
Point(p16 + 24) = {23.32754624651787, 0.3003749431455359, 0};
Point(p16 + 25) = {23.41293018998457, 0.2004031899845691, 0};
Point(p16 + 26) = {23.51290194314554, 0.115019246517866, 0};
Point(p16 + 27) = {23.62499986965072, 0.04632554880663897, 0};
Point(p16 + 28) = {23.74646374651787, -0.003986436330149945, 0};
Point(p16 + 29) = {23.87430272998302, -0.03467786084252711, 0};
Point(p16 + 30) = {24.005369, -0.04499299999999995, 0};
Point(p16 + 31) = {24.13643527001698, -0.03467786084252722, 0};
Point(p16 + 32) = {24.26427425348214, -0.003986436330150056, 0};
Point(p16 + 33) = {24.38573813034929, 0.04632554880663886, 0};
Point(p16 + 34) = {24.49783605685447, 0.1150192465178659, 0};
Point(p16 + 35) = {24.59780781001543, 0.2004031899845689, 0};
Point(p16 + 36) = {24.68319175348213, 0.3003749431455356, 0};
Point(p16 + 37) = {24.75188545119336, 0.4124728696507167, 0};
Point(p16 + 38) = {24.80219743633015, 0.5339367465178658, 0};
Point(p16 + 39) = {24.83288886084253, 0.661775729983018, 0};
Spline(16) = {12, p16 + 1, p16 + 2, p16 + 3, p16 + 4, p16 + 5, p16 + 6, p16 + 7, p16 + 8, p16 + 9, p16 + 10, p16 + 11, p16 + 12, p16 + 13, p16 + 14, p16 + 15, p16 + 16, p16 + 17, p16 + 18, p16 + 19, p16 + 20, p16 + 21, p16 + 22, p16 + 23, p16 + 24, p16 + 25, p16 + 26, p16 + 27, p16 + 28, p16 + 29, p16 + 30, p16 + 31, p16 + 32, p16 + 33, p16 + 34, p16 + 35, p16 + 36, p16 + 37, p16 + 38, p16 + 39, 12};
Line(17) = {11, 8};
Line(18) = {12, 9};
Curve Loop(1) = {-1, 4, 3, -2};
Plane Surface(1) = {1};
Curve Loop(2) = {-5, 1, 7, -6};
Plane Surface(2) = {2};
Curve Loop(3) = {-2, 7, 9, -8, -10, -11};
Plane Surface(3) = {3};
Curve Loop(4) = {-12, 3, 8, -13};
Plane Surface(4) = {4};
Curve Loop(5) = {-4, 5, 14, -12, -15, -16};
Plane Surface(5) = {5};
Curve Loop(6) = {-6, 14, 13, -9};
Plane Surface(6) = {6};
Curve Loop(7) = {-10, -17, 15, 17};
Surface(7) = {7};
Curve Loop(8) = {-11, -18, 16, 18};
Surface(8) = {8};
Surface Loop(1) = {1, 2, 3, 4, 5, 6, 7, 8};
Volume(1) = {1};
Physical Surface("INFLOW") = {1};
Physical Surface("OUTFLOW") = {6};
Physical Surface("OBSTACLE") = {7, 8};
Physical Surface("WALL_Y") = {2, 4};
Physical Surface("WALL_Z") = {3, 5};
Physical Volume("FLUID") = {1};
