cl__1 = 3.832173;
cl__2 = 0.289703;
cl__3 = 0.439344;
cl__4 = 0.147799;
cl__5 = 0.088847;
Point(1) = {0.958484, -3.539712, 1, cl__1};
Point(2) = {0.958484, -3.539712, 0, cl__1};
Point(3) = {0.958484, 4.265421999999999, 1, cl__1};
Point(4) = {0.958484, 4.265421999999999, 0, cl__1};
Point(5) = {38.122503, -3.539712, 0, cl__2};
Point(6) = {38.122503, -3.539712, 1, cl__2};
Point(7) = {38.122503, 4.265421999999999, 1, cl__3};
Point(8) = {36.161431, -0.8353400000000003, 1, cl__4};
Point(9) = {33.938887, 2.791484, 1, cl__5};
Point(10) = {38.122503, 4.265421999999999, 0, cl__3};
Point(11) = {36.161431, -0.8353400000000003, 0, cl__4};
Point(12) = {33.938887, 2.791484, 0, cl__5};
Line(1) = {2, 1};
Line(2) = {1, 3};
Line(3) = {4, 3};
Line(4) = {2, 4};
Line(5) = {2, 5};
Line(6) = {5, 6};
Line(7) = {1, 6};
Line(8) = {3, 7};
Line(9) = {6, 7};
p10 = newp;
Point(p10 + 1) = {36.14323445358123, -0.604130955711794, 1};
Point(p10 + 2) = {36.08909287368863, -0.3786150454327884, 1};
Point(p10 + 3) = {36.00033940570474, -0.1643452193184481, 1};
Point(p10 + 4) = {35.87915945456722, 0.03340248839150917, 1};
Point(p10 + 5) = {35.72853687284625, 0.2097588728462487, 1};
Point(p10 + 6) = {35.55218048839151, 0.3603814545672117, 1};
Point(p10 + 7) = {35.35443278068156, 0.4815614057047382, 1};
Point(p10 + 8) = {35.14016295456722, 0.5703148736886228, 1};
Point(p10 + 9) = {34.91464704428821, 0.6244564535812294, 1};
Point(p10 + 10) = {34.683438, 0.6426529999999999, 1};
Point(p10 + 11) = {34.4522289557118, 0.6244564535812291, 1};
Point(p10 + 12) = {34.22671304543279, 0.570314873688623, 1};
Point(p10 + 13) = {34.01244321931845, 0.4815614057047384, 1};
Point(p10 + 14) = {33.81469551160849, 0.3603814545672117, 1};
Point(p10 + 15) = {33.63833912715376, 0.2097588728462489, 1};
Point(p10 + 16) = {33.48771654543279, 0.03340248839150939, 1};
Point(p10 + 17) = {33.36653659429526, -0.1643452193184479, 1};
Point(p10 + 18) = {33.27778312631138, -0.3786150454327882, 1};
Point(p10 + 19) = {33.22364154641878, -0.6041309557117939, 1};
Point(p10 + 20) = {33.205445, -0.8353399999999997, 1};
Point(p10 + 21) = {33.22364154641878, -1.066549044288206, 1};
Point(p10 + 22) = {33.27778312631138, -1.292064954567212, 1};
Point(p10 + 23) = {33.36653659429526, -1.506334780681551, 1};
Point(p10 + 24) = {33.48771654543279, -1.704082488391509, 1};
Point(p10 + 25) = {33.63833912715376, -1.880438872846249, 1};
Point(p10 + 26) = {33.81469551160849, -2.031061454567212, 1};
Point(p10 + 27) = {34.01244321931845, -2.152241405704738, 1};
Point(p10 + 28) = {34.22671304543279, -2.240994873688622, 1};
Point(p10 + 29) = {34.4522289557118, -2.295136453581229, 1};
Point(p10 + 30) = {34.683438, -2.313333, 1};
Point(p10 + 31) = {34.91464704428821, -2.295136453581229, 1};
Point(p10 + 32) = {35.14016295456722, -2.240994873688623, 1};
Point(p10 + 33) = {35.35443278068156, -2.152241405704738, 1};
Point(p10 + 34) = {35.55218048839151, -2.031061454567212, 1};
Point(p10 + 35) = {35.72853687284625, -1.880438872846249, 1};
Point(p10 + 36) = {35.87915945456722, -1.70408248839151, 1};
Point(p10 + 37) = {36.00033940570474, -1.506334780681552, 1};
Point(p10 + 38) = {36.08909287368863, -1.292064954567212, 1};
Point(p10 + 39) = {36.14323445358123, -1.066549044288206, 1};
Spline(10) = {8, p10 + 1, p10 + 2, p10 + 3, p10 + 4, p10 + 5, p10 + 6, p10 + 7, p10 + 8, p10 + 9, p10 + 10, p10 + 11, p10 + 12, p10 + 13, p10 + 14, p10 + 15, p10 + 16, p10 + 17, p10 + 18, p10 + 19, p10 + 20, p10 + 21, p10 + 22, p10 + 23, p10 + 24, p10 + 25, p10 + 26, p10 + 27, p10 + 28, p10 + 29, p10 + 30, p10 + 31, p10 + 32, p10 + 33, p10 + 34, p10 + 35, p10 + 36, p10 + 37, p10 + 38, p10 + 39, 8};
p11 = newp;
Point(p11 + 1) = {33.9279484476569, 2.930471485588759, 1};
Point(p11 + 2) = {33.89540213408927, 3.066036638009304, 1};
Point(p11 + 3) = {33.84204945755216, 3.194841393294095, 1};
Point(p11 + 4) = {33.7692041380093, 3.313714150889546, 1};
Point(p11 + 5) = {33.67865986898759, 3.419727868987593, 1};
Point(p11 + 6) = {33.57264615088955, 3.510272138009304, 1};
Point(p11 + 7) = {33.45377339329409, 3.583117457552163, 1};
Point(p11 + 8) = {33.3249686380093, 3.636470134089271, 1};
Point(p11 + 9) = {33.18940348558876, 3.669016447656903, 1};
Point(p11 + 10) = {33.050416, 3.679955, 1};
Point(p11 + 11) = {32.91142851441124, 3.669016447656903, 1};
Point(p11 + 12) = {32.77586336199069, 3.636470134089271, 1};
Point(p11 + 13) = {32.6470586067059, 3.583117457552163, 1};
Point(p11 + 14) = {32.52818584911045, 3.510272138009304, 1};
Point(p11 + 15) = {32.4221721310124, 3.419727868987593, 1};
Point(p11 + 16) = {32.3316278619907, 3.313714150889546, 1};
Point(p11 + 17) = {32.25878254244783, 3.194841393294095, 1};
Point(p11 + 18) = {32.20542986591073, 3.066036638009304, 1};
Point(p11 + 19) = {32.17288355234309, 2.930471485588759, 1};
Point(p11 + 20) = {32.161945, 2.791484, 1};
Point(p11 + 21) = {32.17288355234309, 2.652496514411241, 1};
Point(p11 + 22) = {32.20542986591073, 2.516931361990696, 1};
Point(p11 + 23) = {32.25878254244783, 2.388126606705906, 1};
Point(p11 + 24) = {32.3316278619907, 2.269253849110454, 1};
Point(p11 + 25) = {32.4221721310124, 2.163240131012407, 1};
Point(p11 + 26) = {32.52818584911045, 2.072695861990696, 1};
Point(p11 + 27) = {32.6470586067059, 1.999850542447837, 1};
Point(p11 + 28) = {32.77586336199069, 1.946497865910729, 1};
Point(p11 + 29) = {32.91142851441124, 1.913951552343097, 1};
Point(p11 + 30) = {33.050416, 1.903013, 1};
Point(p11 + 31) = {33.18940348558876, 1.913951552343097, 1};
Point(p11 + 32) = {33.3249686380093, 1.946497865910729, 1};
Point(p11 + 33) = {33.45377339329409, 1.999850542447837, 1};
Point(p11 + 34) = {33.57264615088955, 2.072695861990696, 1};
Point(p11 + 35) = {33.67865986898759, 2.163240131012407, 1};
Point(p11 + 36) = {33.7692041380093, 2.269253849110454, 1};
Point(p11 + 37) = {33.84204945755216, 2.388126606705905, 1};
Point(p11 + 38) = {33.89540213408927, 2.516931361990696, 1};
Point(p11 + 39) = {33.9279484476569, 2.652496514411241, 1};
Spline(11) = {9, p11 + 1, p11 + 2, p11 + 3, p11 + 4, p11 + 5, p11 + 6, p11 + 7, p11 + 8, p11 + 9, p11 + 10, p11 + 11, p11 + 12, p11 + 13, p11 + 14, p11 + 15, p11 + 16, p11 + 17, p11 + 18, p11 + 19, p11 + 20, p11 + 21, p11 + 22, p11 + 23, p11 + 24, p11 + 25, p11 + 26, p11 + 27, p11 + 28, p11 + 29, p11 + 30, p11 + 31, p11 + 32, p11 + 33, p11 + 34, p11 + 35, p11 + 36, p11 + 37, p11 + 38, p11 + 39, 9};
Line(12) = {4, 10};
Line(13) = {10, 7};
Line(14) = {5, 10};
p15 = newp;
Point(p15 + 1) = {36.14323445358123, -0.604130955711794, 0};
Point(p15 + 2) = {36.08909287368863, -0.3786150454327884, 0};
Point(p15 + 3) = {36.00033940570474, -0.1643452193184481, 0};
Point(p15 + 4) = {35.87915945456722, 0.03340248839150917, 0};
Point(p15 + 5) = {35.72853687284625, 0.2097588728462487, 0};
Point(p15 + 6) = {35.55218048839151, 0.3603814545672117, 0};
Point(p15 + 7) = {35.35443278068156, 0.4815614057047382, 0};
Point(p15 + 8) = {35.14016295456722, 0.5703148736886228, 0};
Point(p15 + 9) = {34.91464704428821, 0.6244564535812294, 0};
Point(p15 + 10) = {34.683438, 0.6426529999999999, 0};
Point(p15 + 11) = {34.4522289557118, 0.6244564535812291, 0};
Point(p15 + 12) = {34.22671304543279, 0.570314873688623, 0};
Point(p15 + 13) = {34.01244321931845, 0.4815614057047384, 0};
Point(p15 + 14) = {33.81469551160849, 0.3603814545672117, 0};
Point(p15 + 15) = {33.63833912715376, 0.2097588728462489, 0};
Point(p15 + 16) = {33.48771654543279, 0.03340248839150939, 0};
Point(p15 + 17) = {33.36653659429526, -0.1643452193184479, 0};
Point(p15 + 18) = {33.27778312631138, -0.3786150454327882, 0};
Point(p15 + 19) = {33.22364154641878, -0.6041309557117939, 0};
Point(p15 + 20) = {33.205445, -0.8353399999999997, 0};
Point(p15 + 21) = {33.22364154641878, -1.066549044288206, 0};
Point(p15 + 22) = {33.27778312631138, -1.292064954567212, 0};
Point(p15 + 23) = {33.36653659429526, -1.506334780681551, 0};
Point(p15 + 24) = {33.48771654543279, -1.704082488391509, 0};
Point(p15 + 25) = {33.63833912715376, -1.880438872846249, 0};
Point(p15 + 26) = {33.81469551160849, -2.031061454567212, 0};
Point(p15 + 27) = {34.01244321931845, -2.152241405704738, 0};
Point(p15 + 28) = {34.22671304543279, -2.240994873688622, 0};
Point(p15 + 29) = {34.4522289557118, -2.295136453581229, 0};
Point(p15 + 30) = {34.683438, -2.313333, 0};
Point(p15 + 31) = {34.91464704428821, -2.295136453581229, 0};
Point(p15 + 32) = {35.14016295456722, -2.240994873688623, 0};
Point(p15 + 33) = {35.35443278068156, -2.152241405704738, 0};
Point(p15 + 34) = {35.55218048839151, -2.031061454567212, 0};
Point(p15 + 35) = {35.72853687284625, -1.880438872846249, 0};
Point(p15 + 36) = {35.87915945456722, -1.70408248839151, 0};
Point(p15 + 37) = {36.00033940570474, -1.506334780681552, 0};
Point(p15 + 38) = {36.08909287368863, -1.292064954567212, 0};
Point(p15 + 39) = {36.14323445358123, -1.066549044288206, 0};
Spline(15) = {11, p15 + 1, p15 + 2, p15 + 3, p15 + 4, p15 + 5, p15 + 6, p15 + 7, p15 + 8, p15 + 9, p15 + 10, p15 + 11, p15 + 12, p15 + 13, p15 + 14, p15 + 15, p15 + 16, p15 + 17, p15 + 18, p15 + 19, p15 + 20, p15 + 21, p15 + 22, p15 + 23, p15 + 24, p15 + 25, p15 + 26, p15 + 27, p15 + 28, p15 + 29, p15 + 30, p15 + 31, p15 + 32, p15 + 33, p15 + 34, p15 + 35, p15 + 36, p15 + 37, p15 + 38, p15 + 39, 11};
p16 = newp;
Point(p16 + 1) = {33.9279484476569, 2.930471485588759, 0};
Point(p16 + 2) = {33.89540213408927, 3.066036638009304, 0};
Point(p16 + 3) = {33.84204945755216, 3.194841393294095, 0};
Point(p16 + 4) = {33.7692041380093, 3.313714150889546, 0};
Point(p16 + 5) = {33.67865986898759, 3.419727868987593, 0};
Point(p16 + 6) = {33.57264615088955, 3.510272138009304, 0};
Point(p16 + 7) = {33.45377339329409, 3.583117457552163, 0};
Point(p16 + 8) = {33.3249686380093, 3.636470134089271, 0};
Point(p16 + 9) = {33.18940348558876, 3.669016447656903, 0};
Point(p16 + 10) = {33.050416, 3.679955, 0};
Point(p16 + 11) = {32.91142851441124, 3.669016447656903, 0};
Point(p16 + 12) = {32.77586336199069, 3.636470134089271, 0};
Point(p16 + 13) = {32.6470586067059, 3.583117457552163, 0};
Point(p16 + 14) = {32.52818584911045, 3.510272138009304, 0};
Point(p16 + 15) = {32.4221721310124, 3.419727868987593, 0};
Point(p16 + 16) = {32.3316278619907, 3.313714150889546, 0};
Point(p16 + 17) = {32.25878254244783, 3.194841393294095, 0};
Point(p16 + 18) = {32.20542986591073, 3.066036638009304, 0};
Point(p16 + 19) = {32.17288355234309, 2.930471485588759, 0};
Point(p16 + 20) = {32.161945, 2.791484, 0};
Point(p16 + 21) = {32.17288355234309, 2.652496514411241, 0};
Point(p16 + 22) = {32.20542986591073, 2.516931361990696, 0};
Point(p16 + 23) = {32.25878254244783, 2.388126606705906, 0};
Point(p16 + 24) = {32.3316278619907, 2.269253849110454, 0};
Point(p16 + 25) = {32.4221721310124, 2.163240131012407, 0};
Point(p16 + 26) = {32.52818584911045, 2.072695861990696, 0};
Point(p16 + 27) = {32.6470586067059, 1.999850542447837, 0};
Point(p16 + 28) = {32.77586336199069, 1.946497865910729, 0};
Point(p16 + 29) = {32.91142851441124, 1.913951552343097, 0};
Point(p16 + 30) = {33.050416, 1.903013, 0};
Point(p16 + 31) = {33.18940348558876, 1.913951552343097, 0};
Point(p16 + 32) = {33.3249686380093, 1.946497865910729, 0};
Point(p16 + 33) = {33.45377339329409, 1.999850542447837, 0};
Point(p16 + 34) = {33.57264615088955, 2.072695861990696, 0};
Point(p16 + 35) = {33.67865986898759, 2.163240131012407, 0};
Point(p16 + 36) = {33.7692041380093, 2.269253849110454, 0};
Point(p16 + 37) = {33.84204945755216, 2.388126606705905, 0};
Point(p16 + 38) = {33.89540213408927, 2.516931361990696, 0};
Point(p16 + 39) = {33.9279484476569, 2.652496514411241, 0};
Spline(16) = {12, p16 + 1, p16 + 2, p16 + 3, p16 + 4, p16 + 5, p16 + 6, p16 + 7, p16 + 8, p16 + 9, p16 + 10, p16 + 11, p16 + 12, p16 + 13, p16 + 14, p16 + 15, p16 + 16, p16 + 17, p16 + 18, p16 + 19, p16 + 20, p16 + 21, p16 + 22, p16 + 23, p16 + 24, p16 + 25, p16 + 26, p16 + 27, p16 + 28, p16 + 29, p16 + 30, p16 + 31, p16 + 32, p16 + 33, p16 + 34, p16 + 35, p16 + 36, p16 + 37, p16 + 38, p16 + 39, 12};
Line(17) = {11, 8};
Line(18) = {12, 9};
Curve Loop(1) = {-1, 4, 3, -2};
Plane Surface(1) = {1};
Curve Loop(2) = {-5, 1, 7, -6};
Plane Surface(2) = {2};
Curve Loop(3) = {-2, 7, 9, -8, -10, -11};
Plane Surface(3) = {3};
Curve Loop(4) = {-12, 3, 8, -13};
Plane Surface(4) = {4};
Curve Loop(5) = {-4, 5, 14, -12, -15, -16};
Plane Surface(5) = {5};
Curve Loop(6) = {-6, 14, 13, -9};
Plane Surface(6) = {6};
Curve Loop(7) = {-10, -17, 15, 17};
Surface(7) = {7};
Curve Loop(8) = {-11, -18, 16, 18};
Surface(8) = {8};
Surface Loop(1) = {1, 2, 3, 4, 5, 6, 7, 8};
Volume(1) = {1};
Physical Surface("INFLOW") = {1};
Physical Surface("OUTFLOW") = {6};
Physical Surface("OBSTACLE") = {7, 8};
Physical Surface("WALL_Y") = {2, 4};
Physical Surface("WALL_Z") = {3, 5};
Physical Volume("FLUID") = {1};
