cl__1 = 1.262945;
cl__2 = 1.25235;
cl__3 = 3.936232;
cl__4 = 0.06414300000000001;
Point(1) = {0.723734, -4.185035, 1, cl__1};
Point(2) = {0.723734, -4.185035, 0, cl__1};
Point(3) = {0.723734, 5.498164, 1, cl__2};
Point(4) = {0.723734, 5.498164, 0, cl__2};
Point(5) = {39.063427, -4.185035, 0, cl__3};
Point(6) = {39.063427, -4.185035, 1, cl__3};
Point(7) = {39.063427, 5.498164, 1, cl__3};
Point(8) = {13.663692, 0.8011829999999999, 1, cl__4};
Point(9) = {39.063427, 5.498164, 0, cl__3};
Point(10) = {13.663692, 0.8011829999999999, 0, cl__4};
Line(1) = {2, 1};
Line(2) = {1, 3};
Line(3) = {4, 3};
Line(4) = {2, 4};
Line(5) = {2, 5};
Line(6) = {5, 6};
Line(7) = {1, 6};
Line(8) = {3, 7};
Line(9) = {6, 7};
p10 = newp;
Point(p10 + 1) = {13.65579495693126, 0.9015244460418252, 1};
Point(p10 + 2) = {13.63229827913417, 0.9993951526679338, 1};
Point(p10 + 3) = {13.5937805327971, 1.092385218266938, 1};
Point(p10 + 4) = {13.54119015266793, 1.178204918807456, 1};
Point(p10 + 5) = {13.47582208844292, 1.254741088442925, 1};
Point(p10 + 6) = {13.39928591880746, 1.320109152667934, 1};
Point(p10 + 7) = {13.31346621826694, 1.372699532797096, 1};
Point(p10 + 8) = {13.22047615266793, 1.411217279134168, 1};
Point(p10 + 9) = {13.12260544604183, 1.434713956931258, 1};
Point(p10 + 10) = {13.022264, 1.442611, 1};
Point(p10 + 11) = {12.92192255395817, 1.434713956931258, 1};
Point(p10 + 12) = {12.82405184733207, 1.411217279134168, 1};
Point(p10 + 13) = {12.73106178173306, 1.372699532797097, 1};
Point(p10 + 14) = {12.64524208119254, 1.320109152667934, 1};
Point(p10 + 15) = {12.56870591155707, 1.254741088442925, 1};
Point(p10 + 16) = {12.50333784733207, 1.178204918807456, 1};
Point(p10 + 17) = {12.4507474672029, 1.092385218266938, 1};
Point(p10 + 18) = {12.41222972086583, 0.9993951526679338, 1};
Point(p10 + 19) = {12.38873304306874, 0.9015244460418252, 1};
Point(p10 + 20) = {12.380836, 0.8011830000000001, 1};
Point(p10 + 21) = {12.38873304306874, 0.7008415539581748, 1};
Point(p10 + 22) = {12.41222972086583, 0.6029708473320661, 1};
Point(p10 + 23) = {12.4507474672029, 0.5099807817330624, 1};
Point(p10 + 24) = {12.50333784733207, 0.4241610811925436, 1};
Point(p10 + 25) = {12.56870591155707, 0.3476249115570752, 1};
Point(p10 + 26) = {12.64524208119254, 0.2822568473320662, 1};
Point(p10 + 27) = {12.73106178173306, 0.2296664672029036, 1};
Point(p10 + 28) = {12.82405184733207, 0.1911487208658322, 1};
Point(p10 + 29) = {12.92192255395817, 0.167652043068742, 1};
Point(p10 + 30) = {13.022264, 0.159755, 1};
Point(p10 + 31) = {13.12260544604183, 0.1676520430687419, 1};
Point(p10 + 32) = {13.22047615266793, 0.1911487208658321, 1};
Point(p10 + 33) = {13.31346621826694, 0.2296664672029035, 1};
Point(p10 + 34) = {13.39928591880746, 0.2822568473320661, 1};
Point(p10 + 35) = {13.47582208844292, 0.3476249115570751, 1};
Point(p10 + 36) = {13.54119015266793, 0.4241610811925434, 1};
Point(p10 + 37) = {13.5937805327971, 0.5099807817330618, 1};
Point(p10 + 38) = {13.63229827913417, 0.6029708473320661, 1};
Point(p10 + 39) = {13.65579495693126, 0.7008415539581746, 1};
Spline(10) = {8, p10 + 1, p10 + 2, p10 + 3, p10 + 4, p10 + 5, p10 + 6, p10 + 7, p10 + 8, p10 + 9, p10 + 10, p10 + 11, p10 + 12, p10 + 13, p10 + 14, p10 + 15, p10 + 16, p10 + 17, p10 + 18, p10 + 19, p10 + 20, p10 + 21, p10 + 22, p10 + 23, p10 + 24, p10 + 25, p10 + 26, p10 + 27, p10 + 28, p10 + 29, p10 + 30, p10 + 31, p10 + 32, p10 + 33, p10 + 34, p10 + 35, p10 + 36, p10 + 37, p10 + 38, p10 + 39, 8};
Line(11) = {4, 9};
Line(12) = {9, 7};
Line(13) = {5, 9};
p14 = newp;
Point(p14 + 1) = {13.65579495693126, 0.9015244460418252, 0};
Point(p14 + 2) = {13.63229827913417, 0.9993951526679338, 0};
Point(p14 + 3) = {13.5937805327971, 1.092385218266938, 0};
Point(p14 + 4) = {13.54119015266793, 1.178204918807456, 0};
Point(p14 + 5) = {13.47582208844292, 1.254741088442925, 0};
Point(p14 + 6) = {13.39928591880746, 1.320109152667934, 0};
Point(p14 + 7) = {13.31346621826694, 1.372699532797096, 0};
Point(p14 + 8) = {13.22047615266793, 1.411217279134168, 0};
Point(p14 + 9) = {13.12260544604183, 1.434713956931258, 0};
Point(p14 + 10) = {13.022264, 1.442611, 0};
Point(p14 + 11) = {12.92192255395817, 1.434713956931258, 0};
Point(p14 + 12) = {12.82405184733207, 1.411217279134168, 0};
Point(p14 + 13) = {12.73106178173306, 1.372699532797097, 0};
Point(p14 + 14) = {12.64524208119254, 1.320109152667934, 0};
Point(p14 + 15) = {12.56870591155707, 1.254741088442925, 0};
Point(p14 + 16) = {12.50333784733207, 1.178204918807456, 0};
Point(p14 + 17) = {12.4507474672029, 1.092385218266938, 0};
Point(p14 + 18) = {12.41222972086583, 0.9993951526679338, 0};
Point(p14 + 19) = {12.38873304306874, 0.9015244460418252, 0};
Point(p14 + 20) = {12.380836, 0.8011830000000001, 0};
Point(p14 + 21) = {12.38873304306874, 0.7008415539581748, 0};
Point(p14 + 22) = {12.41222972086583, 0.6029708473320661, 0};
Point(p14 + 23) = {12.4507474672029, 0.5099807817330624, 0};
Point(p14 + 24) = {12.50333784733207, 0.4241610811925436, 0};
Point(p14 + 25) = {12.56870591155707, 0.3476249115570752, 0};
Point(p14 + 26) = {12.64524208119254, 0.2822568473320662, 0};
Point(p14 + 27) = {12.73106178173306, 0.2296664672029036, 0};
Point(p14 + 28) = {12.82405184733207, 0.1911487208658322, 0};
Point(p14 + 29) = {12.92192255395817, 0.167652043068742, 0};
Point(p14 + 30) = {13.022264, 0.159755, 0};
Point(p14 + 31) = {13.12260544604183, 0.1676520430687419, 0};
Point(p14 + 32) = {13.22047615266793, 0.1911487208658321, 0};
Point(p14 + 33) = {13.31346621826694, 0.2296664672029035, 0};
Point(p14 + 34) = {13.39928591880746, 0.2822568473320661, 0};
Point(p14 + 35) = {13.47582208844292, 0.3476249115570751, 0};
Point(p14 + 36) = {13.54119015266793, 0.4241610811925434, 0};
Point(p14 + 37) = {13.5937805327971, 0.5099807817330618, 0};
Point(p14 + 38) = {13.63229827913417, 0.6029708473320661, 0};
Point(p14 + 39) = {13.65579495693126, 0.7008415539581746, 0};
Spline(14) = {10, p14 + 1, p14 + 2, p14 + 3, p14 + 4, p14 + 5, p14 + 6, p14 + 7, p14 + 8, p14 + 9, p14 + 10, p14 + 11, p14 + 12, p14 + 13, p14 + 14, p14 + 15, p14 + 16, p14 + 17, p14 + 18, p14 + 19, p14 + 20, p14 + 21, p14 + 22, p14 + 23, p14 + 24, p14 + 25, p14 + 26, p14 + 27, p14 + 28, p14 + 29, p14 + 30, p14 + 31, p14 + 32, p14 + 33, p14 + 34, p14 + 35, p14 + 36, p14 + 37, p14 + 38, p14 + 39, 10};
Line(15) = {10, 8};
Curve Loop(1) = {-1, 4, 3, -2};
Plane Surface(1) = {1};
Curve Loop(2) = {-5, 1, 7, -6};
Plane Surface(2) = {2};
Curve Loop(3) = {-2, 7, 9, -8, -10};
Plane Surface(3) = {3};
Curve Loop(4) = {-11, 3, 8, -12};
Plane Surface(4) = {4};
Curve Loop(5) = {-4, 5, 13, -11, -14};
Plane Surface(5) = {5};
Curve Loop(6) = {-6, 13, 12, -9};
Plane Surface(6) = {6};
Curve Loop(7) = {-10, -15, 14, 15};
Surface(7) = {7};
Surface Loop(1) = {1, 2, 3, 4, 5, 6, 7};
Volume(1) = {1};
Physical Surface("INFLOW") = {1};
Physical Surface("OUTFLOW") = {6};
Physical Surface("OBSTACLE") = {7};
Physical Surface("WALL_Y") = {2, 4};
Physical Surface("WALL_Z") = {3, 5};
Physical Volume("FLUID") = {1};
