cl__1 = 3.281206;
cl__2 = 0.639632;
cl__3 = 0.597769;
cl__4 = 0.101325;
cl__5 = 0.08959499999999999;
Point(1) = {0.664094, -4.475013, 1, cl__1};
Point(2) = {0.664094, -4.475013, 0, cl__1};
Point(3) = {0.664094, 4.911836, 1, cl__1};
Point(4) = {0.664094, 4.911836, 0, cl__1};
Point(5) = {32.474654, -4.475013, 0, cl__2};
Point(6) = {32.474654, -4.475013, 1, cl__2};
Point(7) = {32.474654, 4.911836, 1, cl__3};
Point(8) = {27.275244, -0.4371240000000002, 1, cl__4};
Point(9) = {27.100246, 2.095896, 1, cl__5};
Point(10) = {32.474654, 4.911836, 0, cl__3};
Point(11) = {27.275244, -0.4371240000000002, 0, cl__4};
Point(12) = {27.100246, 2.095896, 0, cl__5};
Line(1) = {2, 1};
Line(2) = {1, 3};
Line(3) = {4, 3};
Line(4) = {2, 4};
Line(5) = {2, 5};
Line(6) = {5, 6};
Line(7) = {1, 6};
Line(8) = {3, 7};
Line(9) = {6, 7};
p10 = newp;
Point(p10 + 1) = {27.26276923573134, -0.2786170911669162, 1};
Point(p10 + 2) = {27.22565211302303, -0.1240131484835733, 1};
Point(p10 + 3) = {27.16480657862082, 0.02288096588009619, 1};
Point(p10 + 4) = {27.08173085151643, 0.1584482313148438, 1};
Point(p10 + 5) = {26.97847053182371, 0.2793505318237068, 1};
Point(p10 + 6) = {26.85756823131484, 0.3826108515164267, 1};
Point(p10 + 7) = {26.7220009658801, 0.4656865786208153, 1};
Point(p10 + 8) = {26.57510685151643, 0.5265321130230316, 1};
Point(p10 + 9) = {26.42050290883308, 0.5636492357313421, 1};
Point(p10 + 10) = {26.261996, 0.5761239999999999, 1};
Point(p10 + 11) = {26.10348909116692, 0.5636492357313418, 1};
Point(p10 + 12) = {25.94888514848357, 0.5265321130230318, 1};
Point(p10 + 13) = {25.8019910341199, 0.4656865786208154, 1};
Point(p10 + 14) = {25.66642376868516, 0.3826108515164267, 1};
Point(p10 + 15) = {25.54552146817629, 0.2793505318237069, 1};
Point(p10 + 16) = {25.44226114848357, 0.1584482313148439, 1};
Point(p10 + 17) = {25.35918542137918, 0.0228809658800963, 1};
Point(p10 + 18) = {25.29833988697697, -0.1240131484835732, 1};
Point(p10 + 19) = {25.26122276426866, -0.2786170911669161, 1};
Point(p10 + 20) = {25.248748, -0.4371239999999999, 1};
Point(p10 + 21) = {25.26122276426866, -0.5956309088330837, 1};
Point(p10 + 22) = {25.29833988697697, -0.750234851516427, 1};
Point(p10 + 23) = {25.35918542137918, -0.8971289658800957, 1};
Point(p10 + 24) = {25.44226114848357, -1.032696231314844, 1};
Point(p10 + 25) = {25.54552146817629, -1.153598531823707, 1};
Point(p10 + 26) = {25.66642376868516, -1.256858851516427, 1};
Point(p10 + 27) = {25.8019910341199, -1.339934578620815, 1};
Point(p10 + 28) = {25.94888514848357, -1.400780113023032, 1};
Point(p10 + 29) = {26.10348909116692, -1.437897235731342, 1};
Point(p10 + 30) = {26.261996, -1.450372, 1};
Point(p10 + 31) = {26.42050290883308, -1.437897235731342, 1};
Point(p10 + 32) = {26.57510685151643, -1.400780113023032, 1};
Point(p10 + 33) = {26.7220009658801, -1.339934578620815, 1};
Point(p10 + 34) = {26.85756823131484, -1.256858851516427, 1};
Point(p10 + 35) = {26.97847053182371, -1.153598531823707, 1};
Point(p10 + 36) = {27.08173085151643, -1.032696231314844, 1};
Point(p10 + 37) = {27.16480657862082, -0.8971289658800965, 1};
Point(p10 + 38) = {27.22565211302303, -0.750234851516427, 1};
Point(p10 + 39) = {27.26276923573134, -0.595630908833084, 1};
Spline(10) = {8, p10 + 1, p10 + 2, p10 + 3, p10 + 4, p10 + 5, p10 + 6, p10 + 7, p10 + 8, p10 + 9, p10 + 10, p10 + 11, p10 + 12, p10 + 13, p10 + 14, p10 + 15, p10 + 16, p10 + 17, p10 + 18, p10 + 19, p10 + 20, p10 + 21, p10 + 22, p10 + 23, p10 + 24, p10 + 25, p10 + 26, p10 + 27, p10 + 28, p10 + 29, p10 + 30, p10 + 31, p10 + 32, p10 + 33, p10 + 34, p10 + 35, p10 + 36, p10 + 37, p10 + 38, p10 + 39, 8};
p11 = newp;
Point(p11 + 1) = {27.08921538106787, 2.23605330251833, 1};
Point(p11 + 2) = {27.05639513471813, 2.37275946709324, 1};
Point(p11 + 3) = {27.00259340434004, 2.502648334251147, 1};
Point(p11 + 4) = {26.92913496709324, 2.622521609006189, 1};
Point(p11 + 5) = {26.83782861349731, 2.729427613497306, 1};
Point(p11 + 6) = {26.73092260900619, 2.82073396709324, 1};
Point(p11 + 7) = {26.61104933425115, 2.894192404340044, 1};
Point(p11 + 8) = {26.48116046709324, 2.947994134718127, 1};
Point(p11 + 9) = {26.34445430251833, 2.980814381067873, 1};
Point(p11 + 10) = {26.204297, 2.991845, 1};
Point(p11 + 11) = {26.06413969748167, 2.980814381067873, 1};
Point(p11 + 12) = {25.92743353290676, 2.947994134718127, 1};
Point(p11 + 13) = {25.79754466574885, 2.894192404340044, 1};
Point(p11 + 14) = {25.67767139099381, 2.82073396709324, 1};
Point(p11 + 15) = {25.57076538650269, 2.729427613497307, 1};
Point(p11 + 16) = {25.47945903290676, 2.622521609006189, 1};
Point(p11 + 17) = {25.40600059565996, 2.502648334251147, 1};
Point(p11 + 18) = {25.35219886528187, 2.37275946709324, 1};
Point(p11 + 19) = {25.31937861893213, 2.23605330251833, 1};
Point(p11 + 20) = {25.308348, 2.095896, 1};
Point(p11 + 21) = {25.31937861893213, 1.955738697481671, 1};
Point(p11 + 22) = {25.35219886528187, 1.81903253290676, 1};
Point(p11 + 23) = {25.40600059565996, 1.689143665748853, 1};
Point(p11 + 24) = {25.47945903290676, 1.569270390993811, 1};
Point(p11 + 25) = {25.57076538650269, 1.462364386502694, 1};
Point(p11 + 26) = {25.67767139099381, 1.371058032906761, 1};
Point(p11 + 27) = {25.79754466574885, 1.297599595659956, 1};
Point(p11 + 28) = {25.92743353290676, 1.243797865281874, 1};
Point(p11 + 29) = {26.06413969748167, 1.210977618932127, 1};
Point(p11 + 30) = {26.204297, 1.199947, 1};
Point(p11 + 31) = {26.34445430251833, 1.210977618932127, 1};
Point(p11 + 32) = {26.48116046709324, 1.243797865281874, 1};
Point(p11 + 33) = {26.61104933425115, 1.297599595659956, 1};
Point(p11 + 34) = {26.73092260900619, 1.37105803290676, 1};
Point(p11 + 35) = {26.83782861349731, 1.462364386502694, 1};
Point(p11 + 36) = {26.92913496709324, 1.569270390993811, 1};
Point(p11 + 37) = {27.00259340434004, 1.689143665748853, 1};
Point(p11 + 38) = {27.05639513471813, 1.81903253290676, 1};
Point(p11 + 39) = {27.08921538106787, 1.95573869748167, 1};
Spline(11) = {9, p11 + 1, p11 + 2, p11 + 3, p11 + 4, p11 + 5, p11 + 6, p11 + 7, p11 + 8, p11 + 9, p11 + 10, p11 + 11, p11 + 12, p11 + 13, p11 + 14, p11 + 15, p11 + 16, p11 + 17, p11 + 18, p11 + 19, p11 + 20, p11 + 21, p11 + 22, p11 + 23, p11 + 24, p11 + 25, p11 + 26, p11 + 27, p11 + 28, p11 + 29, p11 + 30, p11 + 31, p11 + 32, p11 + 33, p11 + 34, p11 + 35, p11 + 36, p11 + 37, p11 + 38, p11 + 39, 9};
Line(12) = {4, 10};
Line(13) = {10, 7};
Line(14) = {5, 10};
p15 = newp;
Point(p15 + 1) = {27.26276923573134, -0.2786170911669162, 0};
Point(p15 + 2) = {27.22565211302303, -0.1240131484835733, 0};
Point(p15 + 3) = {27.16480657862082, 0.02288096588009619, 0};
Point(p15 + 4) = {27.08173085151643, 0.1584482313148438, 0};
Point(p15 + 5) = {26.97847053182371, 0.2793505318237068, 0};
Point(p15 + 6) = {26.85756823131484, 0.3826108515164267, 0};
Point(p15 + 7) = {26.7220009658801, 0.4656865786208153, 0};
Point(p15 + 8) = {26.57510685151643, 0.5265321130230316, 0};
Point(p15 + 9) = {26.42050290883308, 0.5636492357313421, 0};
Point(p15 + 10) = {26.261996, 0.5761239999999999, 0};
Point(p15 + 11) = {26.10348909116692, 0.5636492357313418, 0};
Point(p15 + 12) = {25.94888514848357, 0.5265321130230318, 0};
Point(p15 + 13) = {25.8019910341199, 0.4656865786208154, 0};
Point(p15 + 14) = {25.66642376868516, 0.3826108515164267, 0};
Point(p15 + 15) = {25.54552146817629, 0.2793505318237069, 0};
Point(p15 + 16) = {25.44226114848357, 0.1584482313148439, 0};
Point(p15 + 17) = {25.35918542137918, 0.0228809658800963, 0};
Point(p15 + 18) = {25.29833988697697, -0.1240131484835732, 0};
Point(p15 + 19) = {25.26122276426866, -0.2786170911669161, 0};
Point(p15 + 20) = {25.248748, -0.4371239999999999, 0};
Point(p15 + 21) = {25.26122276426866, -0.5956309088330837, 0};
Point(p15 + 22) = {25.29833988697697, -0.750234851516427, 0};
Point(p15 + 23) = {25.35918542137918, -0.8971289658800957, 0};
Point(p15 + 24) = {25.44226114848357, -1.032696231314844, 0};
Point(p15 + 25) = {25.54552146817629, -1.153598531823707, 0};
Point(p15 + 26) = {25.66642376868516, -1.256858851516427, 0};
Point(p15 + 27) = {25.8019910341199, -1.339934578620815, 0};
Point(p15 + 28) = {25.94888514848357, -1.400780113023032, 0};
Point(p15 + 29) = {26.10348909116692, -1.437897235731342, 0};
Point(p15 + 30) = {26.261996, -1.450372, 0};
Point(p15 + 31) = {26.42050290883308, -1.437897235731342, 0};
Point(p15 + 32) = {26.57510685151643, -1.400780113023032, 0};
Point(p15 + 33) = {26.7220009658801, -1.339934578620815, 0};
Point(p15 + 34) = {26.85756823131484, -1.256858851516427, 0};
Point(p15 + 35) = {26.97847053182371, -1.153598531823707, 0};
Point(p15 + 36) = {27.08173085151643, -1.032696231314844, 0};
Point(p15 + 37) = {27.16480657862082, -0.8971289658800965, 0};
Point(p15 + 38) = {27.22565211302303, -0.750234851516427, 0};
Point(p15 + 39) = {27.26276923573134, -0.595630908833084, 0};
Spline(15) = {11, p15 + 1, p15 + 2, p15 + 3, p15 + 4, p15 + 5, p15 + 6, p15 + 7, p15 + 8, p15 + 9, p15 + 10, p15 + 11, p15 + 12, p15 + 13, p15 + 14, p15 + 15, p15 + 16, p15 + 17, p15 + 18, p15 + 19, p15 + 20, p15 + 21, p15 + 22, p15 + 23, p15 + 24, p15 + 25, p15 + 26, p15 + 27, p15 + 28, p15 + 29, p15 + 30, p15 + 31, p15 + 32, p15 + 33, p15 + 34, p15 + 35, p15 + 36, p15 + 37, p15 + 38, p15 + 39, 11};
p16 = newp;
Point(p16 + 1) = {27.08921538106787, 2.23605330251833, 0};
Point(p16 + 2) = {27.05639513471813, 2.37275946709324, 0};
Point(p16 + 3) = {27.00259340434004, 2.502648334251147, 0};
Point(p16 + 4) = {26.92913496709324, 2.622521609006189, 0};
Point(p16 + 5) = {26.83782861349731, 2.729427613497306, 0};
Point(p16 + 6) = {26.73092260900619, 2.82073396709324, 0};
Point(p16 + 7) = {26.61104933425115, 2.894192404340044, 0};
Point(p16 + 8) = {26.48116046709324, 2.947994134718127, 0};
Point(p16 + 9) = {26.34445430251833, 2.980814381067873, 0};
Point(p16 + 10) = {26.204297, 2.991845, 0};
Point(p16 + 11) = {26.06413969748167, 2.980814381067873, 0};
Point(p16 + 12) = {25.92743353290676, 2.947994134718127, 0};
Point(p16 + 13) = {25.79754466574885, 2.894192404340044, 0};
Point(p16 + 14) = {25.67767139099381, 2.82073396709324, 0};
Point(p16 + 15) = {25.57076538650269, 2.729427613497307, 0};
Point(p16 + 16) = {25.47945903290676, 2.622521609006189, 0};
Point(p16 + 17) = {25.40600059565996, 2.502648334251147, 0};
Point(p16 + 18) = {25.35219886528187, 2.37275946709324, 0};
Point(p16 + 19) = {25.31937861893213, 2.23605330251833, 0};
Point(p16 + 20) = {25.308348, 2.095896, 0};
Point(p16 + 21) = {25.31937861893213, 1.955738697481671, 0};
Point(p16 + 22) = {25.35219886528187, 1.81903253290676, 0};
Point(p16 + 23) = {25.40600059565996, 1.689143665748853, 0};
Point(p16 + 24) = {25.47945903290676, 1.569270390993811, 0};
Point(p16 + 25) = {25.57076538650269, 1.462364386502694, 0};
Point(p16 + 26) = {25.67767139099381, 1.371058032906761, 0};
Point(p16 + 27) = {25.79754466574885, 1.297599595659956, 0};
Point(p16 + 28) = {25.92743353290676, 1.243797865281874, 0};
Point(p16 + 29) = {26.06413969748167, 1.210977618932127, 0};
Point(p16 + 30) = {26.204297, 1.199947, 0};
Point(p16 + 31) = {26.34445430251833, 1.210977618932127, 0};
Point(p16 + 32) = {26.48116046709324, 1.243797865281874, 0};
Point(p16 + 33) = {26.61104933425115, 1.297599595659956, 0};
Point(p16 + 34) = {26.73092260900619, 1.37105803290676, 0};
Point(p16 + 35) = {26.83782861349731, 1.462364386502694, 0};
Point(p16 + 36) = {26.92913496709324, 1.569270390993811, 0};
Point(p16 + 37) = {27.00259340434004, 1.689143665748853, 0};
Point(p16 + 38) = {27.05639513471813, 1.81903253290676, 0};
Point(p16 + 39) = {27.08921538106787, 1.95573869748167, 0};
Spline(16) = {12, p16 + 1, p16 + 2, p16 + 3, p16 + 4, p16 + 5, p16 + 6, p16 + 7, p16 + 8, p16 + 9, p16 + 10, p16 + 11, p16 + 12, p16 + 13, p16 + 14, p16 + 15, p16 + 16, p16 + 17, p16 + 18, p16 + 19, p16 + 20, p16 + 21, p16 + 22, p16 + 23, p16 + 24, p16 + 25, p16 + 26, p16 + 27, p16 + 28, p16 + 29, p16 + 30, p16 + 31, p16 + 32, p16 + 33, p16 + 34, p16 + 35, p16 + 36, p16 + 37, p16 + 38, p16 + 39, 12};
Line(17) = {11, 8};
Line(18) = {12, 9};
Curve Loop(1) = {-1, 4, 3, -2};
Plane Surface(1) = {1};
Curve Loop(2) = {-5, 1, 7, -6};
Plane Surface(2) = {2};
Curve Loop(3) = {-2, 7, 9, -8, -10, -11};
Plane Surface(3) = {3};
Curve Loop(4) = {-12, 3, 8, -13};
Plane Surface(4) = {4};
Curve Loop(5) = {-4, 5, 14, -12, -15, -16};
Plane Surface(5) = {5};
Curve Loop(6) = {-6, 14, 13, -9};
Plane Surface(6) = {6};
Curve Loop(7) = {-10, -17, 15, 17};
Surface(7) = {7};
Curve Loop(8) = {-11, -18, 16, 18};
Surface(8) = {8};
Surface Loop(1) = {1, 2, 3, 4, 5, 6, 7, 8};
Volume(1) = {1};
Physical Surface("INFLOW") = {1};
Physical Surface("OUTFLOW") = {6};
Physical Surface("OBSTACLE") = {7, 8};
Physical Surface("WALL_Y") = {2, 4};
Physical Surface("WALL_Z") = {3, 5};
Physical Volume("FLUID") = {1};
