cl__1 = 0.992297;
cl__2 = 1.020132;
cl__3 = 3.419585;
cl__4 = 0.12649;
cl__5 = 0.134733;
Point(1) = {0.985765, -4.087936, 1, cl__1};
Point(2) = {0.985765, -4.087936, 0, cl__1};
Point(3) = {0.985765, 4.843411000000001, 1, cl__2};
Point(4) = {0.985765, 4.843411000000001, 0, cl__2};
Point(5) = {33.903008, -4.087936, 0, cl__3};
Point(6) = {33.903008, -4.087936, 1, cl__3};
Point(7) = {33.903008, 4.843411000000001, 1, cl__3};
Point(8) = {12.655212, 0.02472699999999969, 1, cl__4};
Point(9) = {16.128745, -0.02722500000000033, 1, cl__5};
Point(10) = {33.903008, 4.843411000000001, 0, cl__3};
Point(11) = {12.655212, 0.02472699999999969, 0, cl__4};
Point(12) = {16.128745, -0.02722500000000033, 0, cl__5};
Line(1) = {2, 1};
Line(2) = {1, 3};
Line(3) = {4, 3};
Line(4) = {2, 4};
Line(5) = {2, 5};
Line(6) = {5, 6};
Line(7) = {1, 6};
Line(8) = {3, 7};
Line(9) = {6, 7};
p10 = newp;
Point(p10 + 1) = {12.63963893277215, 0.2226015805672482, 1};
Point(p10 + 2) = {12.5933031916878, 0.4156038322528485, 1};
Point(p10 + 3) = {12.51734571647196, 0.5989813990825517, 1};
Point(p10 + 4) = {12.41363683225285, 0.7682189167657585, 1};
Point(p10 + 5) = {12.28473019594999, 0.9191491959499887, 1};
Point(p10 + 6) = {12.13379991676576, 1.048055832252849, 1};
Point(p10 + 7) = {11.96456239908255, 1.151764716471963, 1};
Point(p10 + 8) = {11.78118483225285, 1.227722191687805, 1};
Point(p10 + 9) = {11.58818258056725, 1.274057932772152, 1};
Point(p10 + 10) = {11.390308, 1.289631, 1};
Point(p10 + 11) = {11.19243341943275, 1.274057932772152, 1};
Point(p10 + 12) = {10.99943116774715, 1.227722191687805, 1};
Point(p10 + 13) = {10.81605360091745, 1.151764716471963, 1};
Point(p10 + 14) = {10.64681608323424, 1.048055832252849, 1};
Point(p10 + 15) = {10.49588580405001, 0.9191491959499889, 1};
Point(p10 + 16) = {10.36697916774715, 0.7682189167657585, 1};
Point(p10 + 17) = {10.26327028352804, 0.5989813990825519, 1};
Point(p10 + 18) = {10.18731280831219, 0.4156038322528486, 1};
Point(p10 + 19) = {10.14097706722785, 0.2226015805672483, 1};
Point(p10 + 20) = {10.125404, 0.02472700000000016, 1};
Point(p10 + 21) = {10.14097706722785, -0.173147580567248, 1};
Point(p10 + 22) = {10.18731280831219, -0.3661498322528489, 1};
Point(p10 + 23) = {10.26327028352804, -0.5495273990825511, 1};
Point(p10 + 24) = {10.36697916774715, -0.7187649167657584, 1};
Point(p10 + 25) = {10.49588580405001, -0.8696951959499886, 1};
Point(p10 + 26) = {10.64681608323424, -0.9986018322528485, 1};
Point(p10 + 27) = {10.81605360091745, -1.102310716471963, 1};
Point(p10 + 28) = {10.99943116774715, -1.178268191687805, 1};
Point(p10 + 29) = {11.19243341943275, -1.224603932772152, 1};
Point(p10 + 30) = {11.390308, -1.240177, 1};
Point(p10 + 31) = {11.58818258056725, -1.224603932772152, 1};
Point(p10 + 32) = {11.78118483225285, -1.178268191687805, 1};
Point(p10 + 33) = {11.96456239908255, -1.102310716471963, 1};
Point(p10 + 34) = {12.13379991676576, -0.9986018322528487, 1};
Point(p10 + 35) = {12.28473019594999, -0.869695195949989, 1};
Point(p10 + 36) = {12.41363683225285, -0.7187649167657588, 1};
Point(p10 + 37) = {12.51734571647196, -0.549527399082552, 1};
Point(p10 + 38) = {12.5933031916878, -0.3661498322528488, 1};
Point(p10 + 39) = {12.63963893277215, -0.1731475805672485, 1};
Spline(10) = {8, p10 + 1, p10 + 2, p10 + 3, p10 + 4, p10 + 5, p10 + 6, p10 + 7, p10 + 8, p10 + 9, p10 + 10, p10 + 11, p10 + 12, p10 + 13, p10 + 14, p10 + 15, p10 + 16, p10 + 17, p10 + 18, p10 + 19, p10 + 20, p10 + 21, p10 + 22, p10 + 23, p10 + 24, p10 + 25, p10 + 26, p10 + 27, p10 + 28, p10 + 29, p10 + 30, p10 + 31, p10 + 32, p10 + 33, p10 + 34, p10 + 35, p10 + 36, p10 + 37, p10 + 38, p10 + 39, 8};
p11 = newp;
Point(p11 + 1) = {16.11215708268741, 0.1835444735205144, 1};
Point(p11 + 2) = {16.06280178032602, 0.3891241030991754, 1};
Point(p11 + 3) = {15.98189438426081, 0.5844518359760824, 1};
Point(p11 + 4) = {15.87142710309918, 0.764718055112227, 1};
Point(p11 + 5) = {15.7341200079232, 0.9254840079231959, 1};
Point(p11 + 6) = {15.57335405511223, 1.062791103099175, 1};
Point(p11 + 7) = {15.39308783597608, 1.17325838426081, 1};
Point(p11 + 8) = {15.19776010309918, 1.254165780326014, 1};
Point(p11 + 9) = {14.99218047352051, 1.303521082687409, 1};
Point(p11 + 10) = {14.781411, 1.320109, 1};
Point(p11 + 11) = {14.57064152647949, 1.303521082687409, 1};
Point(p11 + 12) = {14.36506189690082, 1.254165780326014, 1};
Point(p11 + 13) = {14.16973416402392, 1.17325838426081, 1};
Point(p11 + 14) = {13.98946794488777, 1.062791103099175, 1};
Point(p11 + 15) = {13.82870199207681, 0.9254840079231959, 1};
Point(p11 + 16) = {13.69139489690082, 0.7647180551122272, 1};
Point(p11 + 17) = {13.58092761573919, 0.5844518359760826, 1};
Point(p11 + 18) = {13.50002021967398, 0.3891241030991756, 1};
Point(p11 + 19) = {13.45066491731259, 0.1835444735205146, 1};
Point(p11 + 20) = {13.434077, -0.02722499999999983, 1};
Point(p11 + 21) = {13.45066491731259, -0.2379944735205142, 1};
Point(p11 + 22) = {13.50002021967398, -0.4435741030991758, 1};
Point(p11 + 23) = {13.58092761573919, -0.6389018359760819, 1};
Point(p11 + 24) = {13.69139489690082, -0.8191680551122269, 1};
Point(p11 + 25) = {13.8287019920768, -0.9799340079231957, 1};
Point(p11 + 26) = {13.98946794488777, -1.117241103099175, 1};
Point(p11 + 27) = {14.16973416402392, -1.22770838426081, 1};
Point(p11 + 28) = {14.36506189690082, -1.308615780326015, 1};
Point(p11 + 29) = {14.57064152647949, -1.357971082687409, 1};
Point(p11 + 30) = {14.781411, -1.374559, 1};
Point(p11 + 31) = {14.99218047352051, -1.357971082687409, 1};
Point(p11 + 32) = {15.19776010309918, -1.308615780326015, 1};
Point(p11 + 33) = {15.39308783597608, -1.227708384260811, 1};
Point(p11 + 34) = {15.57335405511223, -1.117241103099176, 1};
Point(p11 + 35) = {15.7341200079232, -0.979934007923196, 1};
Point(p11 + 36) = {15.87142710309918, -0.8191680551122273, 1};
Point(p11 + 37) = {15.98189438426081, -0.6389018359760827, 1};
Point(p11 + 38) = {16.06280178032602, -0.4435741030991757, 1};
Point(p11 + 39) = {16.11215708268741, -0.2379944735205147, 1};
Spline(11) = {9, p11 + 1, p11 + 2, p11 + 3, p11 + 4, p11 + 5, p11 + 6, p11 + 7, p11 + 8, p11 + 9, p11 + 10, p11 + 11, p11 + 12, p11 + 13, p11 + 14, p11 + 15, p11 + 16, p11 + 17, p11 + 18, p11 + 19, p11 + 20, p11 + 21, p11 + 22, p11 + 23, p11 + 24, p11 + 25, p11 + 26, p11 + 27, p11 + 28, p11 + 29, p11 + 30, p11 + 31, p11 + 32, p11 + 33, p11 + 34, p11 + 35, p11 + 36, p11 + 37, p11 + 38, p11 + 39, 9};
Line(12) = {4, 10};
Line(13) = {10, 7};
Line(14) = {5, 10};
p15 = newp;
Point(p15 + 1) = {12.63963893277215, 0.2226015805672482, 0};
Point(p15 + 2) = {12.5933031916878, 0.4156038322528485, 0};
Point(p15 + 3) = {12.51734571647196, 0.5989813990825517, 0};
Point(p15 + 4) = {12.41363683225285, 0.7682189167657585, 0};
Point(p15 + 5) = {12.28473019594999, 0.9191491959499887, 0};
Point(p15 + 6) = {12.13379991676576, 1.048055832252849, 0};
Point(p15 + 7) = {11.96456239908255, 1.151764716471963, 0};
Point(p15 + 8) = {11.78118483225285, 1.227722191687805, 0};
Point(p15 + 9) = {11.58818258056725, 1.274057932772152, 0};
Point(p15 + 10) = {11.390308, 1.289631, 0};
Point(p15 + 11) = {11.19243341943275, 1.274057932772152, 0};
Point(p15 + 12) = {10.99943116774715, 1.227722191687805, 0};
Point(p15 + 13) = {10.81605360091745, 1.151764716471963, 0};
Point(p15 + 14) = {10.64681608323424, 1.048055832252849, 0};
Point(p15 + 15) = {10.49588580405001, 0.9191491959499889, 0};
Point(p15 + 16) = {10.36697916774715, 0.7682189167657585, 0};
Point(p15 + 17) = {10.26327028352804, 0.5989813990825519, 0};
Point(p15 + 18) = {10.18731280831219, 0.4156038322528486, 0};
Point(p15 + 19) = {10.14097706722785, 0.2226015805672483, 0};
Point(p15 + 20) = {10.125404, 0.02472700000000016, 0};
Point(p15 + 21) = {10.14097706722785, -0.173147580567248, 0};
Point(p15 + 22) = {10.18731280831219, -0.3661498322528489, 0};
Point(p15 + 23) = {10.26327028352804, -0.5495273990825511, 0};
Point(p15 + 24) = {10.36697916774715, -0.7187649167657584, 0};
Point(p15 + 25) = {10.49588580405001, -0.8696951959499886, 0};
Point(p15 + 26) = {10.64681608323424, -0.9986018322528485, 0};
Point(p15 + 27) = {10.81605360091745, -1.102310716471963, 0};
Point(p15 + 28) = {10.99943116774715, -1.178268191687805, 0};
Point(p15 + 29) = {11.19243341943275, -1.224603932772152, 0};
Point(p15 + 30) = {11.390308, -1.240177, 0};
Point(p15 + 31) = {11.58818258056725, -1.224603932772152, 0};
Point(p15 + 32) = {11.78118483225285, -1.178268191687805, 0};
Point(p15 + 33) = {11.96456239908255, -1.102310716471963, 0};
Point(p15 + 34) = {12.13379991676576, -0.9986018322528487, 0};
Point(p15 + 35) = {12.28473019594999, -0.869695195949989, 0};
Point(p15 + 36) = {12.41363683225285, -0.7187649167657588, 0};
Point(p15 + 37) = {12.51734571647196, -0.549527399082552, 0};
Point(p15 + 38) = {12.5933031916878, -0.3661498322528488, 0};
Point(p15 + 39) = {12.63963893277215, -0.1731475805672485, 0};
Spline(15) = {11, p15 + 1, p15 + 2, p15 + 3, p15 + 4, p15 + 5, p15 + 6, p15 + 7, p15 + 8, p15 + 9, p15 + 10, p15 + 11, p15 + 12, p15 + 13, p15 + 14, p15 + 15, p15 + 16, p15 + 17, p15 + 18, p15 + 19, p15 + 20, p15 + 21, p15 + 22, p15 + 23, p15 + 24, p15 + 25, p15 + 26, p15 + 27, p15 + 28, p15 + 29, p15 + 30, p15 + 31, p15 + 32, p15 + 33, p15 + 34, p15 + 35, p15 + 36, p15 + 37, p15 + 38, p15 + 39, 11};
p16 = newp;
Point(p16 + 1) = {16.11215708268741, 0.1835444735205144, 0};
Point(p16 + 2) = {16.06280178032602, 0.3891241030991754, 0};
Point(p16 + 3) = {15.98189438426081, 0.5844518359760824, 0};
Point(p16 + 4) = {15.87142710309918, 0.764718055112227, 0};
Point(p16 + 5) = {15.7341200079232, 0.9254840079231959, 0};
Point(p16 + 6) = {15.57335405511223, 1.062791103099175, 0};
Point(p16 + 7) = {15.39308783597608, 1.17325838426081, 0};
Point(p16 + 8) = {15.19776010309918, 1.254165780326014, 0};
Point(p16 + 9) = {14.99218047352051, 1.303521082687409, 0};
Point(p16 + 10) = {14.781411, 1.320109, 0};
Point(p16 + 11) = {14.57064152647949, 1.303521082687409, 0};
Point(p16 + 12) = {14.36506189690082, 1.254165780326014, 0};
Point(p16 + 13) = {14.16973416402392, 1.17325838426081, 0};
Point(p16 + 14) = {13.98946794488777, 1.062791103099175, 0};
Point(p16 + 15) = {13.82870199207681, 0.9254840079231959, 0};
Point(p16 + 16) = {13.69139489690082, 0.7647180551122272, 0};
Point(p16 + 17) = {13.58092761573919, 0.5844518359760826, 0};
Point(p16 + 18) = {13.50002021967398, 0.3891241030991756, 0};
Point(p16 + 19) = {13.45066491731259, 0.1835444735205146, 0};
Point(p16 + 20) = {13.434077, -0.02722499999999983, 0};
Point(p16 + 21) = {13.45066491731259, -0.2379944735205142, 0};
Point(p16 + 22) = {13.50002021967398, -0.4435741030991758, 0};
Point(p16 + 23) = {13.58092761573919, -0.6389018359760819, 0};
Point(p16 + 24) = {13.69139489690082, -0.8191680551122269, 0};
Point(p16 + 25) = {13.8287019920768, -0.9799340079231957, 0};
Point(p16 + 26) = {13.98946794488777, -1.117241103099175, 0};
Point(p16 + 27) = {14.16973416402392, -1.22770838426081, 0};
Point(p16 + 28) = {14.36506189690082, -1.308615780326015, 0};
Point(p16 + 29) = {14.57064152647949, -1.357971082687409, 0};
Point(p16 + 30) = {14.781411, -1.374559, 0};
Point(p16 + 31) = {14.99218047352051, -1.357971082687409, 0};
Point(p16 + 32) = {15.19776010309918, -1.308615780326015, 0};
Point(p16 + 33) = {15.39308783597608, -1.227708384260811, 0};
Point(p16 + 34) = {15.57335405511223, -1.117241103099176, 0};
Point(p16 + 35) = {15.7341200079232, -0.979934007923196, 0};
Point(p16 + 36) = {15.87142710309918, -0.8191680551122273, 0};
Point(p16 + 37) = {15.98189438426081, -0.6389018359760827, 0};
Point(p16 + 38) = {16.06280178032602, -0.4435741030991757, 0};
Point(p16 + 39) = {16.11215708268741, -0.2379944735205147, 0};
Spline(16) = {12, p16 + 1, p16 + 2, p16 + 3, p16 + 4, p16 + 5, p16 + 6, p16 + 7, p16 + 8, p16 + 9, p16 + 10, p16 + 11, p16 + 12, p16 + 13, p16 + 14, p16 + 15, p16 + 16, p16 + 17, p16 + 18, p16 + 19, p16 + 20, p16 + 21, p16 + 22, p16 + 23, p16 + 24, p16 + 25, p16 + 26, p16 + 27, p16 + 28, p16 + 29, p16 + 30, p16 + 31, p16 + 32, p16 + 33, p16 + 34, p16 + 35, p16 + 36, p16 + 37, p16 + 38, p16 + 39, 12};
Line(17) = {11, 8};
Line(18) = {12, 9};
Curve Loop(1) = {-1, 4, 3, -2};
Plane Surface(1) = {1};
Curve Loop(2) = {-5, 1, 7, -6};
Plane Surface(2) = {2};
Curve Loop(3) = {-2, 7, 9, -8, -10, -11};
Plane Surface(3) = {3};
Curve Loop(4) = {-12, 3, 8, -13};
Plane Surface(4) = {4};
Curve Loop(5) = {-4, 5, 14, -12, -15, -16};
Plane Surface(5) = {5};
Curve Loop(6) = {-6, 14, 13, -9};
Plane Surface(6) = {6};
Curve Loop(7) = {-10, -17, 15, 17};
Surface(7) = {7};
Curve Loop(8) = {-11, -18, 16, 18};
Surface(8) = {8};
Surface Loop(1) = {1, 2, 3, 4, 5, 6, 7, 8};
Volume(1) = {1};
Physical Surface("INFLOW") = {1};
Physical Surface("OUTFLOW") = {6};
Physical Surface("OBSTACLE") = {7, 8};
Physical Surface("WALL_Y") = {2, 4};
Physical Surface("WALL_Z") = {3, 5};
Physical Volume("FLUID") = {1};
