cl__1 = 3.55679;
cl__2 = 0.8073090000000001;
cl__3 = 0.970438;
cl__4 = 0.120285;
Point(1) = {0.581556, -3.808619, 1, cl__1};
Point(2) = {0.581556, -3.808619, 0, cl__1};
Point(3) = {0.581556, 4.755141, 1, cl__1};
Point(4) = {0.581556, 4.755141, 0, cl__1};
Point(5) = {35.30922, -3.808619, 0, cl__2};
Point(6) = {35.30922, -3.808619, 1, cl__2};
Point(7) = {35.30922, 4.755141, 1, cl__3};
Point(8) = {27.541253, -1.449063, 1, cl__4};
Point(9) = {35.30922, 4.755141, 0, cl__3};
Point(10) = {27.541253, -1.449063, 0, cl__4};
Line(1) = {2, 1};
Line(2) = {1, 3};
Line(3) = {4, 3};
Line(4) = {2, 4};
Line(5) = {2, 5};
Line(6) = {5, 6};
Line(7) = {1, 6};
Line(8) = {3, 7};
Line(9) = {6, 7};
p10 = newp;
Point(p10 + 1) = {27.52644385892657, -1.260895021554033, 1};
Point(p10 + 2) = {27.48238108590821, -1.077360363231123, 1};
Point(p10 + 3) = {27.4101496526526, -0.9029782574357875, 1};
Point(p10 + 4) = {27.31152813676888, -0.7420425703537372, 1};
Point(p10 + 5) = {27.18894492728415, -0.5985160727158554, 1};
Point(p10 + 6) = {27.04541842964626, -0.4759328632311226, 1};
Point(p10 + 7) = {26.88448274256421, -0.3773113473474008, 1};
Point(p10 + 8) = {26.71010063676888, -0.305079914091793, 1};
Point(p10 + 9) = {26.52656597844597, -0.2610171410734354, 1};
Point(p10 + 10) = {26.338398, -0.246208, 1};
Point(p10 + 11) = {26.15023002155403, -0.2610171410734357, 1};
Point(p10 + 12) = {25.96669536323112, -0.305079914091793, 1};
Point(p10 + 13) = {25.79231325743579, -0.3773113473474008, 1};
Point(p10 + 14) = {25.63137757035374, -0.4759328632311226, 1};
Point(p10 + 15) = {25.48785107271586, -0.5985160727158553, 1};
Point(p10 + 16) = {25.36526786323113, -0.7420425703537371, 1};
Point(p10 + 17) = {25.2666463473474, -0.9029782574357873, 1};
Point(p10 + 18) = {25.19441491409179, -1.077360363231123, 1};
Point(p10 + 19) = {25.15035214107344, -1.260895021554033, 1};
Point(p10 + 20) = {25.135543, -1.449063, 1};
Point(p10 + 21) = {25.15035214107344, -1.637230978445967, 1};
Point(p10 + 22) = {25.19441491409179, -1.820765636768878, 1};
Point(p10 + 23) = {25.2666463473474, -1.995147742564212, 1};
Point(p10 + 24) = {25.36526786323113, -2.156083429646263, 1};
Point(p10 + 25) = {25.48785107271586, -2.299609927284145, 1};
Point(p10 + 26) = {25.63137757035374, -2.422193136768877, 1};
Point(p10 + 27) = {25.79231325743579, -2.520814652652599, 1};
Point(p10 + 28) = {25.96669536323112, -2.593046085908207, 1};
Point(p10 + 29) = {26.15023002155403, -2.637108858926564, 1};
Point(p10 + 30) = {26.338398, -2.651918, 1};
Point(p10 + 31) = {26.52656597844597, -2.637108858926565, 1};
Point(p10 + 32) = {26.71010063676888, -2.593046085908207, 1};
Point(p10 + 33) = {26.88448274256421, -2.520814652652599, 1};
Point(p10 + 34) = {27.04541842964626, -2.422193136768878, 1};
Point(p10 + 35) = {27.18894492728415, -2.299609927284145, 1};
Point(p10 + 36) = {27.31152813676888, -2.156083429646263, 1};
Point(p10 + 37) = {27.4101496526526, -1.995147742564213, 1};
Point(p10 + 38) = {27.48238108590821, -1.820765636768878, 1};
Point(p10 + 39) = {27.52644385892657, -1.637230978445967, 1};
Spline(10) = {8, p10 + 1, p10 + 2, p10 + 3, p10 + 4, p10 + 5, p10 + 6, p10 + 7, p10 + 8, p10 + 9, p10 + 10, p10 + 11, p10 + 12, p10 + 13, p10 + 14, p10 + 15, p10 + 16, p10 + 17, p10 + 18, p10 + 19, p10 + 20, p10 + 21, p10 + 22, p10 + 23, p10 + 24, p10 + 25, p10 + 26, p10 + 27, p10 + 28, p10 + 29, p10 + 30, p10 + 31, p10 + 32, p10 + 33, p10 + 34, p10 + 35, p10 + 36, p10 + 37, p10 + 38, p10 + 39, 8};
Line(11) = {4, 9};
Line(12) = {9, 7};
Line(13) = {5, 9};
p14 = newp;
Point(p14 + 1) = {27.52644385892657, -1.260895021554033, 0};
Point(p14 + 2) = {27.48238108590821, -1.077360363231123, 0};
Point(p14 + 3) = {27.4101496526526, -0.9029782574357875, 0};
Point(p14 + 4) = {27.31152813676888, -0.7420425703537372, 0};
Point(p14 + 5) = {27.18894492728415, -0.5985160727158554, 0};
Point(p14 + 6) = {27.04541842964626, -0.4759328632311226, 0};
Point(p14 + 7) = {26.88448274256421, -0.3773113473474008, 0};
Point(p14 + 8) = {26.71010063676888, -0.305079914091793, 0};
Point(p14 + 9) = {26.52656597844597, -0.2610171410734354, 0};
Point(p14 + 10) = {26.338398, -0.246208, 0};
Point(p14 + 11) = {26.15023002155403, -0.2610171410734357, 0};
Point(p14 + 12) = {25.96669536323112, -0.305079914091793, 0};
Point(p14 + 13) = {25.79231325743579, -0.3773113473474008, 0};
Point(p14 + 14) = {25.63137757035374, -0.4759328632311226, 0};
Point(p14 + 15) = {25.48785107271586, -0.5985160727158553, 0};
Point(p14 + 16) = {25.36526786323113, -0.7420425703537371, 0};
Point(p14 + 17) = {25.2666463473474, -0.9029782574357873, 0};
Point(p14 + 18) = {25.19441491409179, -1.077360363231123, 0};
Point(p14 + 19) = {25.15035214107344, -1.260895021554033, 0};
Point(p14 + 20) = {25.135543, -1.449063, 0};
Point(p14 + 21) = {25.15035214107344, -1.637230978445967, 0};
Point(p14 + 22) = {25.19441491409179, -1.820765636768878, 0};
Point(p14 + 23) = {25.2666463473474, -1.995147742564212, 0};
Point(p14 + 24) = {25.36526786323113, -2.156083429646263, 0};
Point(p14 + 25) = {25.48785107271586, -2.299609927284145, 0};
Point(p14 + 26) = {25.63137757035374, -2.422193136768877, 0};
Point(p14 + 27) = {25.79231325743579, -2.520814652652599, 0};
Point(p14 + 28) = {25.96669536323112, -2.593046085908207, 0};
Point(p14 + 29) = {26.15023002155403, -2.637108858926564, 0};
Point(p14 + 30) = {26.338398, -2.651918, 0};
Point(p14 + 31) = {26.52656597844597, -2.637108858926565, 0};
Point(p14 + 32) = {26.71010063676888, -2.593046085908207, 0};
Point(p14 + 33) = {26.88448274256421, -2.520814652652599, 0};
Point(p14 + 34) = {27.04541842964626, -2.422193136768878, 0};
Point(p14 + 35) = {27.18894492728415, -2.299609927284145, 0};
Point(p14 + 36) = {27.31152813676888, -2.156083429646263, 0};
Point(p14 + 37) = {27.4101496526526, -1.995147742564213, 0};
Point(p14 + 38) = {27.48238108590821, -1.820765636768878, 0};
Point(p14 + 39) = {27.52644385892657, -1.637230978445967, 0};
Spline(14) = {10, p14 + 1, p14 + 2, p14 + 3, p14 + 4, p14 + 5, p14 + 6, p14 + 7, p14 + 8, p14 + 9, p14 + 10, p14 + 11, p14 + 12, p14 + 13, p14 + 14, p14 + 15, p14 + 16, p14 + 17, p14 + 18, p14 + 19, p14 + 20, p14 + 21, p14 + 22, p14 + 23, p14 + 24, p14 + 25, p14 + 26, p14 + 27, p14 + 28, p14 + 29, p14 + 30, p14 + 31, p14 + 32, p14 + 33, p14 + 34, p14 + 35, p14 + 36, p14 + 37, p14 + 38, p14 + 39, 10};
Line(15) = {10, 8};
Curve Loop(1) = {-1, 4, 3, -2};
Plane Surface(1) = {1};
Curve Loop(2) = {-5, 1, 7, -6};
Plane Surface(2) = {2};
Curve Loop(3) = {-2, 7, 9, -8, -10};
Plane Surface(3) = {3};
Curve Loop(4) = {-11, 3, 8, -12};
Plane Surface(4) = {4};
Curve Loop(5) = {-4, 5, 13, -11, -14};
Plane Surface(5) = {5};
Curve Loop(6) = {-6, 13, 12, -9};
Plane Surface(6) = {6};
Curve Loop(7) = {-10, -15, 14, 15};
Surface(7) = {7};
Surface Loop(1) = {1, 2, 3, 4, 5, 6, 7};
Volume(1) = {1};
Physical Surface("INFLOW") = {1};
Physical Surface("OUTFLOW") = {6};
Physical Surface("OBSTACLE") = {7};
Physical Surface("WALL_Y") = {2, 4};
Physical Surface("WALL_Z") = {3, 5};
Physical Volume("FLUID") = {1};
