cl__1 = 3.397902;
cl__2 = 0.691907;
cl__3 = 0.150024;
cl__4 = 0.059935;
Point(1) = {0.951522, -4.271513, 1, cl__1};
Point(2) = {0.951522, -4.271513, 0, cl__1};
Point(3) = {0.951522, 4.336945000000001, 1, cl__1};
Point(4) = {0.951522, 4.336945000000001, 0, cl__1};
Point(5) = {33.70529999999999, -4.271513, 0, cl__2};
Point(6) = {33.70529999999999, -4.271513, 1, cl__2};
Point(7) = {33.70529999999999, 4.336945000000001, 1, cl__3};
Point(8) = {32.638102, 3.059878, 1, cl__4};
Point(9) = {33.70529999999999, 4.336945000000001, 0, cl__3};
Point(10) = {32.638102, 3.059878, 0, cl__4};
Line(1) = {2, 1};
Line(2) = {1, 3};
Line(3) = {4, 3};
Line(4) = {2, 4};
Line(5) = {2, 5};
Line(6) = {5, 6};
Line(7) = {1, 6};
Line(8) = {3, 7};
Line(9) = {6, 7};
p10 = newp;
Point(p10 + 1) = {32.6307229453774, 3.153637778794188, 1};
Point(p10 + 2) = {32.60876747832408, 3.245088880663596, 1};
Point(p10 + 3) = {32.57277621530492, 3.331979475971396, 1};
Point(p10 + 4) = {32.5236353806636, 3.412170029887755, 1};
Point(p10 + 5) = {32.46255498483806, 3.483685984838063, 1};
Point(p10 + 6) = {32.39103902988776, 3.544766380663597, 1};
Point(p10 + 7) = {32.3108484759714, 3.593907215304919, 1};
Point(p10 + 8) = {32.2239578806636, 3.629898478324082, 1};
Point(p10 + 9) = {32.13250677879419, 3.651853945377399, 1};
Point(p10 + 10) = {32.038747, 3.659233, 1};
Point(p10 + 11) = {31.94498722120581, 3.651853945377399, 1};
Point(p10 + 12) = {31.8535361193364, 3.629898478324082, 1};
Point(p10 + 13) = {31.7666455240286, 3.593907215304919, 1};
Point(p10 + 14) = {31.68645497011224, 3.544766380663597, 1};
Point(p10 + 15) = {31.61493901516194, 3.483685984838063, 1};
Point(p10 + 16) = {31.5538586193364, 3.412170029887755, 1};
Point(p10 + 17) = {31.50471778469508, 3.331979475971396, 1};
Point(p10 + 18) = {31.46872652167592, 3.245088880663597, 1};
Point(p10 + 19) = {31.4467710546226, 3.153637778794188, 1};
Point(p10 + 20) = {31.439392, 3.059878, 1};
Point(p10 + 21) = {31.4467710546226, 2.966118221205813, 1};
Point(p10 + 22) = {31.46872652167592, 2.874667119336403, 1};
Point(p10 + 23) = {31.50471778469508, 2.787776524028604, 1};
Point(p10 + 24) = {31.5538586193364, 2.707585970112245, 1};
Point(p10 + 25) = {31.61493901516194, 2.636070015161937, 1};
Point(p10 + 26) = {31.68645497011224, 2.574989619336403, 1};
Point(p10 + 27) = {31.7666455240286, 2.525848784695081, 1};
Point(p10 + 28) = {31.8535361193364, 2.489857521675918, 1};
Point(p10 + 29) = {31.94498722120581, 2.467902054622601, 1};
Point(p10 + 30) = {32.038747, 2.460523, 1};
Point(p10 + 31) = {32.13250677879419, 2.467902054622601, 1};
Point(p10 + 32) = {32.2239578806636, 2.489857521675918, 1};
Point(p10 + 33) = {32.3108484759714, 2.525848784695081, 1};
Point(p10 + 34) = {32.39103902988776, 2.574989619336403, 1};
Point(p10 + 35) = {32.46255498483806, 2.636070015161937, 1};
Point(p10 + 36) = {32.5236353806636, 2.707585970112245, 1};
Point(p10 + 37) = {32.57277621530492, 2.787776524028604, 1};
Point(p10 + 38) = {32.60876747832408, 2.874667119336403, 1};
Point(p10 + 39) = {32.6307229453774, 2.966118221205812, 1};
Spline(10) = {8, p10 + 1, p10 + 2, p10 + 3, p10 + 4, p10 + 5, p10 + 6, p10 + 7, p10 + 8, p10 + 9, p10 + 10, p10 + 11, p10 + 12, p10 + 13, p10 + 14, p10 + 15, p10 + 16, p10 + 17, p10 + 18, p10 + 19, p10 + 20, p10 + 21, p10 + 22, p10 + 23, p10 + 24, p10 + 25, p10 + 26, p10 + 27, p10 + 28, p10 + 29, p10 + 30, p10 + 31, p10 + 32, p10 + 33, p10 + 34, p10 + 35, p10 + 36, p10 + 37, p10 + 38, p10 + 39, 8};
Line(11) = {4, 9};
Line(12) = {9, 7};
Line(13) = {5, 9};
p14 = newp;
Point(p14 + 1) = {32.6307229453774, 3.153637778794188, 0};
Point(p14 + 2) = {32.60876747832408, 3.245088880663596, 0};
Point(p14 + 3) = {32.57277621530492, 3.331979475971396, 0};
Point(p14 + 4) = {32.5236353806636, 3.412170029887755, 0};
Point(p14 + 5) = {32.46255498483806, 3.483685984838063, 0};
Point(p14 + 6) = {32.39103902988776, 3.544766380663597, 0};
Point(p14 + 7) = {32.3108484759714, 3.593907215304919, 0};
Point(p14 + 8) = {32.2239578806636, 3.629898478324082, 0};
Point(p14 + 9) = {32.13250677879419, 3.651853945377399, 0};
Point(p14 + 10) = {32.038747, 3.659233, 0};
Point(p14 + 11) = {31.94498722120581, 3.651853945377399, 0};
Point(p14 + 12) = {31.8535361193364, 3.629898478324082, 0};
Point(p14 + 13) = {31.7666455240286, 3.593907215304919, 0};
Point(p14 + 14) = {31.68645497011224, 3.544766380663597, 0};
Point(p14 + 15) = {31.61493901516194, 3.483685984838063, 0};
Point(p14 + 16) = {31.5538586193364, 3.412170029887755, 0};
Point(p14 + 17) = {31.50471778469508, 3.331979475971396, 0};
Point(p14 + 18) = {31.46872652167592, 3.245088880663597, 0};
Point(p14 + 19) = {31.4467710546226, 3.153637778794188, 0};
Point(p14 + 20) = {31.439392, 3.059878, 0};
Point(p14 + 21) = {31.4467710546226, 2.966118221205813, 0};
Point(p14 + 22) = {31.46872652167592, 2.874667119336403, 0};
Point(p14 + 23) = {31.50471778469508, 2.787776524028604, 0};
Point(p14 + 24) = {31.5538586193364, 2.707585970112245, 0};
Point(p14 + 25) = {31.61493901516194, 2.636070015161937, 0};
Point(p14 + 26) = {31.68645497011224, 2.574989619336403, 0};
Point(p14 + 27) = {31.7666455240286, 2.525848784695081, 0};
Point(p14 + 28) = {31.8535361193364, 2.489857521675918, 0};
Point(p14 + 29) = {31.94498722120581, 2.467902054622601, 0};
Point(p14 + 30) = {32.038747, 2.460523, 0};
Point(p14 + 31) = {32.13250677879419, 2.467902054622601, 0};
Point(p14 + 32) = {32.2239578806636, 2.489857521675918, 0};
Point(p14 + 33) = {32.3108484759714, 2.525848784695081, 0};
Point(p14 + 34) = {32.39103902988776, 2.574989619336403, 0};
Point(p14 + 35) = {32.46255498483806, 2.636070015161937, 0};
Point(p14 + 36) = {32.5236353806636, 2.707585970112245, 0};
Point(p14 + 37) = {32.57277621530492, 2.787776524028604, 0};
Point(p14 + 38) = {32.60876747832408, 2.874667119336403, 0};
Point(p14 + 39) = {32.6307229453774, 2.966118221205812, 0};
Spline(14) = {10, p14 + 1, p14 + 2, p14 + 3, p14 + 4, p14 + 5, p14 + 6, p14 + 7, p14 + 8, p14 + 9, p14 + 10, p14 + 11, p14 + 12, p14 + 13, p14 + 14, p14 + 15, p14 + 16, p14 + 17, p14 + 18, p14 + 19, p14 + 20, p14 + 21, p14 + 22, p14 + 23, p14 + 24, p14 + 25, p14 + 26, p14 + 27, p14 + 28, p14 + 29, p14 + 30, p14 + 31, p14 + 32, p14 + 33, p14 + 34, p14 + 35, p14 + 36, p14 + 37, p14 + 38, p14 + 39, 10};
Line(15) = {10, 8};
Curve Loop(1) = {-1, 4, 3, -2};
Plane Surface(1) = {1};
Curve Loop(2) = {-5, 1, 7, -6};
Plane Surface(2) = {2};
Curve Loop(3) = {-2, 7, 9, -8, -10};
Plane Surface(3) = {3};
Curve Loop(4) = {-11, 3, 8, -12};
Plane Surface(4) = {4};
Curve Loop(5) = {-4, 5, 13, -11, -14};
Plane Surface(5) = {5};
Curve Loop(6) = {-6, 13, 12, -9};
Plane Surface(6) = {6};
Curve Loop(7) = {-10, -15, 14, 15};
Surface(7) = {7};
Surface Loop(1) = {1, 2, 3, 4, 5, 6, 7};
Volume(1) = {1};
Physical Surface("INFLOW") = {1};
Physical Surface("OUTFLOW") = {6};
Physical Surface("OBSTACLE") = {7};
Physical Surface("WALL_Y") = {2, 4};
Physical Surface("WALL_Z") = {3, 5};
Physical Volume("FLUID") = {1};
