cl__1 = 0.6858919999999999;
cl__2 = 0.718572;
cl__3 = 3.655747;
cl__4 = 0.142767;
Point(1) = {0.361779, -3.943545, 1, cl__1};
Point(2) = {0.361779, -3.943545, 0, cl__1};
Point(3) = {0.361779, 5.456431, 1, cl__2};
Point(4) = {0.361779, 5.456431, 0, cl__2};
Point(5) = {36.254087, -3.943545, 0, cl__3};
Point(6) = {36.254087, -3.943545, 1, cl__3};
Point(7) = {36.254087, 5.456431, 1, cl__3};
Point(8) = {8.807491000000001, 0.4626629999999997, 1, cl__4};
Point(9) = {36.254087, 5.456431, 0, cl__3};
Point(10) = {8.807491000000001, 0.4626629999999997, 0, cl__4};
Line(1) = {2, 1};
Line(2) = {1, 3};
Line(3) = {4, 3};
Line(4) = {2, 4};
Line(5) = {2, 5};
Line(6) = {5, 6};
Line(7) = {1, 6};
Line(8) = {3, 7};
Line(9) = {6, 7};
p10 = newp;
Point(p10 + 1) = {8.789913976282483, 0.6860002620073815, 1};
Point(p10 + 2) = {8.737615709788651, 0.9038382194102643, 1};
Point(p10 + 3) = {8.651883957407581, 1.110812978734658, 1};
Point(p10 + 4) = {8.534829719410265, 1.301828134496152, 1};
Point(p10 + 5) = {8.389335259616942, 1.472180259616942, 1};
Point(p10 + 6) = {8.218983134496153, 1.617674719410264, 1};
Point(p10 + 7) = {8.027967978734658, 1.73472895740758, 1};
Point(p10 + 8) = {7.820993219410265, 1.820460709788651, 1};
Point(p10 + 9) = {7.603155262007382, 1.872758976282482, 1};
Point(p10 + 10) = {7.379818, 1.890336, 1};
Point(p10 + 11) = {7.156480737992618, 1.872758976282482, 1};
Point(p10 + 12) = {6.938642780589736, 1.820460709788651, 1};
Point(p10 + 13) = {6.731668021265342, 1.73472895740758, 1};
Point(p10 + 14) = {6.540652865503849, 1.617674719410264, 1};
Point(p10 + 15) = {6.370300740383058, 1.472180259616942, 1};
Point(p10 + 16) = {6.224806280589736, 1.301828134496152, 1};
Point(p10 + 17) = {6.107752042592421, 1.110812978734658, 1};
Point(p10 + 18) = {6.02202029021135, 0.9038382194102644, 1};
Point(p10 + 19) = {5.969722023717519, 0.6860002620073817, 1};
Point(p10 + 20) = {5.952145, 0.4626630000000002, 1};
Point(p10 + 21) = {5.969722023717518, 0.2393257379926187, 1};
Point(p10 + 22) = {6.02202029021135, 0.02148778058973527, 1};
Point(p10 + 23) = {6.10775204259242, -0.1854869787346572, 1};
Point(p10 + 24) = {6.224806280589736, -0.3765021344961518, 1};
Point(p10 + 25) = {6.370300740383058, -0.5468542596169417, 1};
Point(p10 + 26) = {6.540652865503848, -0.6923487194102642, 1};
Point(p10 + 27) = {6.731668021265342, -0.8094029574075796, 1};
Point(p10 + 28) = {6.938642780589736, -0.8951347097886506, 1};
Point(p10 + 29) = {7.156480737992618, -0.9474329762824818, 1};
Point(p10 + 30) = {7.379818, -0.9650099999999999, 1};
Point(p10 + 31) = {7.603155262007381, -0.947432976282482, 1};
Point(p10 + 32) = {7.820993219410264, -0.8951347097886508, 1};
Point(p10 + 33) = {8.027967978734658, -0.8094029574075796, 1};
Point(p10 + 34) = {8.218983134496153, -0.6923487194102644, 1};
Point(p10 + 35) = {8.389335259616942, -0.5468542596169421, 1};
Point(p10 + 36) = {8.534829719410265, -0.3765021344961523, 1};
Point(p10 + 37) = {8.651883957407581, -0.1854869787346582, 1};
Point(p10 + 38) = {8.737615709788651, 0.02148778058973538, 1};
Point(p10 + 39) = {8.789913976282483, 0.2393257379926182, 1};
Spline(10) = {8, p10 + 1, p10 + 2, p10 + 3, p10 + 4, p10 + 5, p10 + 6, p10 + 7, p10 + 8, p10 + 9, p10 + 10, p10 + 11, p10 + 12, p10 + 13, p10 + 14, p10 + 15, p10 + 16, p10 + 17, p10 + 18, p10 + 19, p10 + 20, p10 + 21, p10 + 22, p10 + 23, p10 + 24, p10 + 25, p10 + 26, p10 + 27, p10 + 28, p10 + 29, p10 + 30, p10 + 31, p10 + 32, p10 + 33, p10 + 34, p10 + 35, p10 + 36, p10 + 37, p10 + 38, p10 + 39, 8};
Line(11) = {4, 9};
Line(12) = {9, 7};
Line(13) = {5, 9};
p14 = newp;
Point(p14 + 1) = {8.789913976282483, 0.6860002620073815, 0};
Point(p14 + 2) = {8.737615709788651, 0.9038382194102643, 0};
Point(p14 + 3) = {8.651883957407581, 1.110812978734658, 0};
Point(p14 + 4) = {8.534829719410265, 1.301828134496152, 0};
Point(p14 + 5) = {8.389335259616942, 1.472180259616942, 0};
Point(p14 + 6) = {8.218983134496153, 1.617674719410264, 0};
Point(p14 + 7) = {8.027967978734658, 1.73472895740758, 0};
Point(p14 + 8) = {7.820993219410265, 1.820460709788651, 0};
Point(p14 + 9) = {7.603155262007382, 1.872758976282482, 0};
Point(p14 + 10) = {7.379818, 1.890336, 0};
Point(p14 + 11) = {7.156480737992618, 1.872758976282482, 0};
Point(p14 + 12) = {6.938642780589736, 1.820460709788651, 0};
Point(p14 + 13) = {6.731668021265342, 1.73472895740758, 0};
Point(p14 + 14) = {6.540652865503849, 1.617674719410264, 0};
Point(p14 + 15) = {6.370300740383058, 1.472180259616942, 0};
Point(p14 + 16) = {6.224806280589736, 1.301828134496152, 0};
Point(p14 + 17) = {6.107752042592421, 1.110812978734658, 0};
Point(p14 + 18) = {6.02202029021135, 0.9038382194102644, 0};
Point(p14 + 19) = {5.969722023717519, 0.6860002620073817, 0};
Point(p14 + 20) = {5.952145, 0.4626630000000002, 0};
Point(p14 + 21) = {5.969722023717518, 0.2393257379926187, 0};
Point(p14 + 22) = {6.02202029021135, 0.02148778058973527, 0};
Point(p14 + 23) = {6.10775204259242, -0.1854869787346572, 0};
Point(p14 + 24) = {6.224806280589736, -0.3765021344961518, 0};
Point(p14 + 25) = {6.370300740383058, -0.5468542596169417, 0};
Point(p14 + 26) = {6.540652865503848, -0.6923487194102642, 0};
Point(p14 + 27) = {6.731668021265342, -0.8094029574075796, 0};
Point(p14 + 28) = {6.938642780589736, -0.8951347097886506, 0};
Point(p14 + 29) = {7.156480737992618, -0.9474329762824818, 0};
Point(p14 + 30) = {7.379818, -0.9650099999999999, 0};
Point(p14 + 31) = {7.603155262007381, -0.947432976282482, 0};
Point(p14 + 32) = {7.820993219410264, -0.8951347097886508, 0};
Point(p14 + 33) = {8.027967978734658, -0.8094029574075796, 0};
Point(p14 + 34) = {8.218983134496153, -0.6923487194102644, 0};
Point(p14 + 35) = {8.389335259616942, -0.5468542596169421, 0};
Point(p14 + 36) = {8.534829719410265, -0.3765021344961523, 0};
Point(p14 + 37) = {8.651883957407581, -0.1854869787346582, 0};
Point(p14 + 38) = {8.737615709788651, 0.02148778058973538, 0};
Point(p14 + 39) = {8.789913976282483, 0.2393257379926182, 0};
Spline(14) = {10, p14 + 1, p14 + 2, p14 + 3, p14 + 4, p14 + 5, p14 + 6, p14 + 7, p14 + 8, p14 + 9, p14 + 10, p14 + 11, p14 + 12, p14 + 13, p14 + 14, p14 + 15, p14 + 16, p14 + 17, p14 + 18, p14 + 19, p14 + 20, p14 + 21, p14 + 22, p14 + 23, p14 + 24, p14 + 25, p14 + 26, p14 + 27, p14 + 28, p14 + 29, p14 + 30, p14 + 31, p14 + 32, p14 + 33, p14 + 34, p14 + 35, p14 + 36, p14 + 37, p14 + 38, p14 + 39, 10};
Line(15) = {10, 8};
Curve Loop(1) = {-1, 4, 3, -2};
Plane Surface(1) = {1};
Curve Loop(2) = {-5, 1, 7, -6};
Plane Surface(2) = {2};
Curve Loop(3) = {-2, 7, 9, -8, -10};
Plane Surface(3) = {3};
Curve Loop(4) = {-11, 3, 8, -12};
Plane Surface(4) = {4};
Curve Loop(5) = {-4, 5, 13, -11, -14};
Plane Surface(5) = {5};
Curve Loop(6) = {-6, 13, 12, -9};
Plane Surface(6) = {6};
Curve Loop(7) = {-10, -15, 14, 15};
Surface(7) = {7};
Surface Loop(1) = {1, 2, 3, 4, 5, 6, 7};
Volume(1) = {1};
Physical Surface("INFLOW") = {1};
Physical Surface("OUTFLOW") = {6};
Physical Surface("OBSTACLE") = {7};
Physical Surface("WALL_Y") = {2, 4};
Physical Surface("WALL_Z") = {3, 5};
Physical Volume("FLUID") = {1};
