cl__1 = 3.858238;
cl__2 = 1.362282;
cl__3 = 1.284933;
cl__4 = 0.07573299999999999;
Point(1) = {0.329865, -3.994287, 1, cl__1};
Point(2) = {0.329865, -3.994287, 0, cl__1};
Point(3) = {0.329865, 4.753966999999999, 1, cl__1};
Point(4) = {0.329865, 4.753966999999999, 0, cl__1};
Point(5) = {38.333627, -3.994287, 0, cl__2};
Point(6) = {38.333627, -3.994287, 1, cl__2};
Point(7) = {38.333627, 4.753966999999999, 1, cl__3};
Point(8) = {25.850825, 1.617085, 1, cl__4};
Point(9) = {38.333627, 4.753966999999999, 0, cl__3};
Point(10) = {25.850825, 1.617085, 0, cl__4};
Line(1) = {2, 1};
Line(2) = {1, 3};
Line(3) = {4, 3};
Line(4) = {2, 4};
Line(5) = {2, 5};
Line(6) = {5, 6};
Line(7) = {1, 6};
Line(8) = {3, 7};
Line(9) = {6, 7};
p10 = newp;
Point(p10 + 1) = {25.84150104791789, 1.735557044105523, 1};
Point(p10 + 2) = {25.81375877831626, 1.851111913298996, 1};
Point(p10 + 3) = {25.768281297944, 1.960904263196252, 1};
Point(p10 + 4) = {25.706188413299, 2.062230641762902, 1};
Point(p10 + 5) = {25.62900905727566, 2.152596057275665, 1};
Point(p10 + 6) = {25.5386436417629, 2.229775413298996, 1};
Point(p10 + 7) = {25.43731726319625, 2.291868297944004, 1};
Point(p10 + 8) = {25.327524913299, 2.33734577831626, 1};
Point(p10 + 9) = {25.21197004410552, 2.365088047917894, 1};
Point(p10 + 10) = {25.093498, 2.374412, 1};
Point(p10 + 11) = {24.97502595589448, 2.365088047917894, 1};
Point(p10 + 12) = {24.859471086701, 2.33734577831626, 1};
Point(p10 + 13) = {24.74967873680375, 2.291868297944004, 1};
Point(p10 + 14) = {24.6483523582371, 2.229775413298996, 1};
Point(p10 + 15) = {24.55798694272434, 2.152596057275665, 1};
Point(p10 + 16) = {24.480807586701, 2.062230641762902, 1};
Point(p10 + 17) = {24.418714702056, 1.960904263196252, 1};
Point(p10 + 18) = {24.37323722168374, 1.851111913298996, 1};
Point(p10 + 19) = {24.34549495208211, 1.735557044105523, 1};
Point(p10 + 20) = {24.336171, 1.617085, 1};
Point(p10 + 21) = {24.34549495208211, 1.498612955894477, 1};
Point(p10 + 22) = {24.37323722168374, 1.383058086701004, 1};
Point(p10 + 23) = {24.418714702056, 1.273265736803749, 1};
Point(p10 + 24) = {24.480807586701, 1.171939358237098, 1};
Point(p10 + 25) = {24.55798694272434, 1.081573942724336, 1};
Point(p10 + 26) = {24.6483523582371, 1.004394586701004, 1};
Point(p10 + 27) = {24.74967873680375, 0.9423017020559962, 1};
Point(p10 + 28) = {24.859471086701, 0.8968242216837404, 1};
Point(p10 + 29) = {24.97502595589448, 0.8690819520821064, 1};
Point(p10 + 30) = {25.093498, 0.8597580000000001, 1};
Point(p10 + 31) = {25.21197004410552, 0.8690819520821063, 1};
Point(p10 + 32) = {25.327524913299, 0.8968242216837403, 1};
Point(p10 + 33) = {25.43731726319625, 0.9423017020559961, 1};
Point(p10 + 34) = {25.5386436417629, 1.004394586701004, 1};
Point(p10 + 35) = {25.62900905727566, 1.081573942724336, 1};
Point(p10 + 36) = {25.706188413299, 1.171939358237098, 1};
Point(p10 + 37) = {25.768281297944, 1.273265736803748, 1};
Point(p10 + 38) = {25.81375877831626, 1.383058086701004, 1};
Point(p10 + 39) = {25.84150104791789, 1.498612955894477, 1};
Spline(10) = {8, p10 + 1, p10 + 2, p10 + 3, p10 + 4, p10 + 5, p10 + 6, p10 + 7, p10 + 8, p10 + 9, p10 + 10, p10 + 11, p10 + 12, p10 + 13, p10 + 14, p10 + 15, p10 + 16, p10 + 17, p10 + 18, p10 + 19, p10 + 20, p10 + 21, p10 + 22, p10 + 23, p10 + 24, p10 + 25, p10 + 26, p10 + 27, p10 + 28, p10 + 29, p10 + 30, p10 + 31, p10 + 32, p10 + 33, p10 + 34, p10 + 35, p10 + 36, p10 + 37, p10 + 38, p10 + 39, 8};
Line(11) = {4, 9};
Line(12) = {9, 7};
Line(13) = {5, 9};
p14 = newp;
Point(p14 + 1) = {25.84150104791789, 1.735557044105523, 0};
Point(p14 + 2) = {25.81375877831626, 1.851111913298996, 0};
Point(p14 + 3) = {25.768281297944, 1.960904263196252, 0};
Point(p14 + 4) = {25.706188413299, 2.062230641762902, 0};
Point(p14 + 5) = {25.62900905727566, 2.152596057275665, 0};
Point(p14 + 6) = {25.5386436417629, 2.229775413298996, 0};
Point(p14 + 7) = {25.43731726319625, 2.291868297944004, 0};
Point(p14 + 8) = {25.327524913299, 2.33734577831626, 0};
Point(p14 + 9) = {25.21197004410552, 2.365088047917894, 0};
Point(p14 + 10) = {25.093498, 2.374412, 0};
Point(p14 + 11) = {24.97502595589448, 2.365088047917894, 0};
Point(p14 + 12) = {24.859471086701, 2.33734577831626, 0};
Point(p14 + 13) = {24.74967873680375, 2.291868297944004, 0};
Point(p14 + 14) = {24.6483523582371, 2.229775413298996, 0};
Point(p14 + 15) = {24.55798694272434, 2.152596057275665, 0};
Point(p14 + 16) = {24.480807586701, 2.062230641762902, 0};
Point(p14 + 17) = {24.418714702056, 1.960904263196252, 0};
Point(p14 + 18) = {24.37323722168374, 1.851111913298996, 0};
Point(p14 + 19) = {24.34549495208211, 1.735557044105523, 0};
Point(p14 + 20) = {24.336171, 1.617085, 0};
Point(p14 + 21) = {24.34549495208211, 1.498612955894477, 0};
Point(p14 + 22) = {24.37323722168374, 1.383058086701004, 0};
Point(p14 + 23) = {24.418714702056, 1.273265736803749, 0};
Point(p14 + 24) = {24.480807586701, 1.171939358237098, 0};
Point(p14 + 25) = {24.55798694272434, 1.081573942724336, 0};
Point(p14 + 26) = {24.6483523582371, 1.004394586701004, 0};
Point(p14 + 27) = {24.74967873680375, 0.9423017020559962, 0};
Point(p14 + 28) = {24.859471086701, 0.8968242216837404, 0};
Point(p14 + 29) = {24.97502595589448, 0.8690819520821064, 0};
Point(p14 + 30) = {25.093498, 0.8597580000000001, 0};
Point(p14 + 31) = {25.21197004410552, 0.8690819520821063, 0};
Point(p14 + 32) = {25.327524913299, 0.8968242216837403, 0};
Point(p14 + 33) = {25.43731726319625, 0.9423017020559961, 0};
Point(p14 + 34) = {25.5386436417629, 1.004394586701004, 0};
Point(p14 + 35) = {25.62900905727566, 1.081573942724336, 0};
Point(p14 + 36) = {25.706188413299, 1.171939358237098, 0};
Point(p14 + 37) = {25.768281297944, 1.273265736803748, 0};
Point(p14 + 38) = {25.81375877831626, 1.383058086701004, 0};
Point(p14 + 39) = {25.84150104791789, 1.498612955894477, 0};
Spline(14) = {10, p14 + 1, p14 + 2, p14 + 3, p14 + 4, p14 + 5, p14 + 6, p14 + 7, p14 + 8, p14 + 9, p14 + 10, p14 + 11, p14 + 12, p14 + 13, p14 + 14, p14 + 15, p14 + 16, p14 + 17, p14 + 18, p14 + 19, p14 + 20, p14 + 21, p14 + 22, p14 + 23, p14 + 24, p14 + 25, p14 + 26, p14 + 27, p14 + 28, p14 + 29, p14 + 30, p14 + 31, p14 + 32, p14 + 33, p14 + 34, p14 + 35, p14 + 36, p14 + 37, p14 + 38, p14 + 39, 10};
Line(15) = {10, 8};
Curve Loop(1) = {-1, 4, 3, -2};
Plane Surface(1) = {1};
Curve Loop(2) = {-5, 1, 7, -6};
Plane Surface(2) = {2};
Curve Loop(3) = {-2, 7, 9, -8, -10};
Plane Surface(3) = {3};
Curve Loop(4) = {-11, 3, 8, -12};
Plane Surface(4) = {4};
Curve Loop(5) = {-4, 5, 13, -11, -14};
Plane Surface(5) = {5};
Curve Loop(6) = {-6, 13, 12, -9};
Plane Surface(6) = {6};
Curve Loop(7) = {-10, -15, 14, 15};
Surface(7) = {7};
Surface Loop(1) = {1, 2, 3, 4, 5, 6, 7};
Volume(1) = {1};
Physical Surface("INFLOW") = {1};
Physical Surface("OUTFLOW") = {6};
Physical Surface("OBSTACLE") = {7};
Physical Surface("WALL_Y") = {2, 4};
Physical Surface("WALL_Z") = {3, 5};
Physical Volume("FLUID") = {1};
