cl__1 = 0.917091;
cl__2 = 1.092285;
cl__3 = 3.474498;
cl__4 = 0.064557;
Point(1) = {0.633748, -3.744922, 1, cl__1};
Point(2) = {0.633748, -3.744922, 0, cl__1};
Point(3) = {0.633748, 5.490081000000001, 1, cl__2};
Point(4) = {0.633748, 5.490081000000001, 0, cl__2};
Point(5) = {34.436786, -3.744922, 0, cl__3};
Point(6) = {34.436786, -3.744922, 1, cl__3};
Point(7) = {34.436786, 5.490081000000001, 1, cl__3};
Point(8) = {10.748213, -1.155843, 1, cl__4};
Point(9) = {34.436786, 5.490081000000001, 0, cl__3};
Point(10) = {10.748213, -1.155843, 0, cl__4};
Line(1) = {2, 1};
Line(2) = {1, 3};
Line(3) = {4, 3};
Line(4) = {2, 4};
Line(5) = {2, 5};
Line(6) = {5, 6};
Line(7) = {1, 6};
Line(8) = {3, 7};
Line(9) = {6, 7};
p10 = newp;
Point(p10 + 1) = {10.740264962038, -1.054853602403978, 1};
Point(p10 + 2) = {10.71661655522466, -0.9563508989413652, 1};
Point(p10 + 3) = {10.67785008182029, -0.8627603530831407, 1};
Point(p10 + 4) = {10.62492010105863, -0.7763864746775481, 1};
Point(p10 + 5) = {10.5591299247306, -0.6993560752694006, 1};
Point(p10 + 6) = {10.48209952532245, -0.6335658989413652, 1};
Point(p10 + 7) = {10.39572564691686, -0.5806359181797154, 1};
Point(p10 + 8) = {10.30213510105864, -0.5418694447753377, 1};
Point(p10 + 9) = {10.20363239759602, -0.5182210379619969, 1};
Point(p10 + 10) = {10.102643, -0.510273, 1};
Point(p10 + 11) = {10.00165360240398, -0.5182210379619969, 1};
Point(p10 + 12) = {9.903150898941366, -0.5418694447753376, 1};
Point(p10 + 13) = {9.809560353083141, -0.5806359181797153, 1};
Point(p10 + 14) = {9.723186474677549, -0.6335658989413652, 1};
Point(p10 + 15) = {9.646156075269401, -0.6993560752694005, 1};
Point(p10 + 16) = {9.580365898941366, -0.776386474677548, 1};
Point(p10 + 17) = {9.527435918179716, -0.8627603530831407, 1};
Point(p10 + 18) = {9.488669444775338, -0.9563508989413652, 1};
Point(p10 + 19) = {9.465021037961998, -1.054853602403978, 1};
Point(p10 + 20) = {9.457073000000001, -1.155843, 1};
Point(p10 + 21) = {9.465021037961998, -1.256832397596022, 1};
Point(p10 + 22) = {9.488669444775338, -1.355335101058635, 1};
Point(p10 + 23) = {9.527435918179716, -1.448925646916859, 1};
Point(p10 + 24) = {9.580365898941366, -1.535299525322452, 1};
Point(p10 + 25) = {9.646156075269401, -1.612329924730599, 1};
Point(p10 + 26) = {9.723186474677549, -1.678120101058635, 1};
Point(p10 + 27) = {9.809560353083141, -1.731050081820285, 1};
Point(p10 + 28) = {9.903150898941366, -1.769816555224662, 1};
Point(p10 + 29) = {10.00165360240398, -1.793464962038003, 1};
Point(p10 + 30) = {10.102643, -1.801413, 1};
Point(p10 + 31) = {10.20363239759602, -1.793464962038003, 1};
Point(p10 + 32) = {10.30213510105864, -1.769816555224662, 1};
Point(p10 + 33) = {10.39572564691686, -1.731050081820285, 1};
Point(p10 + 34) = {10.48209952532245, -1.678120101058635, 1};
Point(p10 + 35) = {10.5591299247306, -1.6123299247306, 1};
Point(p10 + 36) = {10.62492010105863, -1.535299525322452, 1};
Point(p10 + 37) = {10.67785008182029, -1.448925646916859, 1};
Point(p10 + 38) = {10.71661655522466, -1.355335101058635, 1};
Point(p10 + 39) = {10.740264962038, -1.256832397596022, 1};
Spline(10) = {8, p10 + 1, p10 + 2, p10 + 3, p10 + 4, p10 + 5, p10 + 6, p10 + 7, p10 + 8, p10 + 9, p10 + 10, p10 + 11, p10 + 12, p10 + 13, p10 + 14, p10 + 15, p10 + 16, p10 + 17, p10 + 18, p10 + 19, p10 + 20, p10 + 21, p10 + 22, p10 + 23, p10 + 24, p10 + 25, p10 + 26, p10 + 27, p10 + 28, p10 + 29, p10 + 30, p10 + 31, p10 + 32, p10 + 33, p10 + 34, p10 + 35, p10 + 36, p10 + 37, p10 + 38, p10 + 39, 8};
Line(11) = {4, 9};
Line(12) = {9, 7};
Line(13) = {5, 9};
p14 = newp;
Point(p14 + 1) = {10.740264962038, -1.054853602403978, 0};
Point(p14 + 2) = {10.71661655522466, -0.9563508989413652, 0};
Point(p14 + 3) = {10.67785008182029, -0.8627603530831407, 0};
Point(p14 + 4) = {10.62492010105863, -0.7763864746775481, 0};
Point(p14 + 5) = {10.5591299247306, -0.6993560752694006, 0};
Point(p14 + 6) = {10.48209952532245, -0.6335658989413652, 0};
Point(p14 + 7) = {10.39572564691686, -0.5806359181797154, 0};
Point(p14 + 8) = {10.30213510105864, -0.5418694447753377, 0};
Point(p14 + 9) = {10.20363239759602, -0.5182210379619969, 0};
Point(p14 + 10) = {10.102643, -0.510273, 0};
Point(p14 + 11) = {10.00165360240398, -0.5182210379619969, 0};
Point(p14 + 12) = {9.903150898941366, -0.5418694447753376, 0};
Point(p14 + 13) = {9.809560353083141, -0.5806359181797153, 0};
Point(p14 + 14) = {9.723186474677549, -0.6335658989413652, 0};
Point(p14 + 15) = {9.646156075269401, -0.6993560752694005, 0};
Point(p14 + 16) = {9.580365898941366, -0.776386474677548, 0};
Point(p14 + 17) = {9.527435918179716, -0.8627603530831407, 0};
Point(p14 + 18) = {9.488669444775338, -0.9563508989413652, 0};
Point(p14 + 19) = {9.465021037961998, -1.054853602403978, 0};
Point(p14 + 20) = {9.457073000000001, -1.155843, 0};
Point(p14 + 21) = {9.465021037961998, -1.256832397596022, 0};
Point(p14 + 22) = {9.488669444775338, -1.355335101058635, 0};
Point(p14 + 23) = {9.527435918179716, -1.448925646916859, 0};
Point(p14 + 24) = {9.580365898941366, -1.535299525322452, 0};
Point(p14 + 25) = {9.646156075269401, -1.612329924730599, 0};
Point(p14 + 26) = {9.723186474677549, -1.678120101058635, 0};
Point(p14 + 27) = {9.809560353083141, -1.731050081820285, 0};
Point(p14 + 28) = {9.903150898941366, -1.769816555224662, 0};
Point(p14 + 29) = {10.00165360240398, -1.793464962038003, 0};
Point(p14 + 30) = {10.102643, -1.801413, 0};
Point(p14 + 31) = {10.20363239759602, -1.793464962038003, 0};
Point(p14 + 32) = {10.30213510105864, -1.769816555224662, 0};
Point(p14 + 33) = {10.39572564691686, -1.731050081820285, 0};
Point(p14 + 34) = {10.48209952532245, -1.678120101058635, 0};
Point(p14 + 35) = {10.5591299247306, -1.6123299247306, 0};
Point(p14 + 36) = {10.62492010105863, -1.535299525322452, 0};
Point(p14 + 37) = {10.67785008182029, -1.448925646916859, 0};
Point(p14 + 38) = {10.71661655522466, -1.355335101058635, 0};
Point(p14 + 39) = {10.740264962038, -1.256832397596022, 0};
Spline(14) = {10, p14 + 1, p14 + 2, p14 + 3, p14 + 4, p14 + 5, p14 + 6, p14 + 7, p14 + 8, p14 + 9, p14 + 10, p14 + 11, p14 + 12, p14 + 13, p14 + 14, p14 + 15, p14 + 16, p14 + 17, p14 + 18, p14 + 19, p14 + 20, p14 + 21, p14 + 22, p14 + 23, p14 + 24, p14 + 25, p14 + 26, p14 + 27, p14 + 28, p14 + 29, p14 + 30, p14 + 31, p14 + 32, p14 + 33, p14 + 34, p14 + 35, p14 + 36, p14 + 37, p14 + 38, p14 + 39, 10};
Line(15) = {10, 8};
Curve Loop(1) = {-1, 4, 3, -2};
Plane Surface(1) = {1};
Curve Loop(2) = {-5, 1, 7, -6};
Plane Surface(2) = {2};
Curve Loop(3) = {-2, 7, 9, -8, -10};
Plane Surface(3) = {3};
Curve Loop(4) = {-11, 3, 8, -12};
Plane Surface(4) = {4};
Curve Loop(5) = {-4, 5, 13, -11, -14};
Plane Surface(5) = {5};
Curve Loop(6) = {-6, 13, 12, -9};
Plane Surface(6) = {6};
Curve Loop(7) = {-10, -15, 14, 15};
Surface(7) = {7};
Surface Loop(1) = {1, 2, 3, 4, 5, 6, 7};
Volume(1) = {1};
Physical Surface("INFLOW") = {1};
Physical Surface("OUTFLOW") = {6};
Physical Surface("OBSTACLE") = {7};
Physical Surface("WALL_Y") = {2, 4};
Physical Surface("WALL_Z") = {3, 5};
Physical Volume("FLUID") = {1};
