cl__1 = 3.609436;
cl__2 = 0.731232;
cl__3 = 1.341774;
cl__4 = 0.123079;
cl__5 = 0.131714;
Point(1) = {0.825705, -4.194974, 1, cl__1};
Point(2) = {0.825705, -4.194974, 0, cl__1};
Point(3) = {0.825705, 5.574164999999999, 1, cl__2};
Point(4) = {0.825705, 5.574164999999999, 0, cl__2};
Point(5) = {35.762324, -4.194974, 0, cl__1};
Point(6) = {35.762324, -4.194974, 1, cl__1};
Point(7) = {35.762324, 5.574164999999999, 1, cl__3};
Point(8) = {22.51764, -1.949986, 1, cl__4};
Point(9) = {28.886372, -1.485591000000001, 1, cl__5};
Point(10) = {35.762324, 5.574164999999999, 0, cl__3};
Point(11) = {22.51764, -1.949986, 0, cl__4};
Point(12) = {28.886372, -1.485591000000001, 0, cl__5};
Line(1) = {2, 1};
Line(2) = {1, 3};
Line(3) = {4, 3};
Line(4) = {2, 4};
Line(5) = {2, 5};
Line(6) = {5, 6};
Line(7) = {1, 6};
Line(8) = {3, 7};
Line(9) = {6, 7};
p10 = newp;
Point(p10 + 1) = {22.50248694503275, -1.757448181207599, 1};
Point(p10 + 2) = {22.45740089863439, -1.569651282510253, 1};
Point(p10 + 3) = {22.38349202889928, -1.391219486816063, 1};
Point(p10 + 4) = {22.28258021748974, -1.226546377116199, 1};
Point(p10 + 5) = {22.15715024810981, -1.07968675189019, 1};
Point(p10 + 6) = {22.0102906228838, -0.9542567825102529, 1};
Point(p10 + 7) = {21.84561751318394, -0.853344971100723, 1};
Point(p10 + 8) = {21.66718571748975, -0.7794361013656044, 1};
Point(p10 + 9) = {21.4793888187924, -0.734350054967251, 1};
Point(p10 + 10) = {21.286851, -0.7191970000000001, 1};
Point(p10 + 11) = {21.0943131812076, -0.7343500549672513, 1};
Point(p10 + 12) = {20.90651628251025, -0.7794361013656042, 1};
Point(p10 + 13) = {20.72808448681606, -0.853344971100723, 1};
Point(p10 + 14) = {20.5634113771162, -0.9542567825102529, 1};
Point(p10 + 15) = {20.41655175189019, -1.07968675189019, 1};
Point(p10 + 16) = {20.29112178251025, -1.226546377116199, 1};
Point(p10 + 17) = {20.19020997110072, -1.391219486816063, 1};
Point(p10 + 18) = {20.1163011013656, -1.569651282510253, 1};
Point(p10 + 19) = {20.07121505496725, -1.757448181207599, 1};
Point(p10 + 20) = {20.056062, -1.949986, 1};
Point(p10 + 21) = {20.07121505496725, -2.142523818792401, 1};
Point(p10 + 22) = {20.1163011013656, -2.330320717489748, 1};
Point(p10 + 23) = {20.19020997110072, -2.508752513183937, 1};
Point(p10 + 24) = {20.29112178251025, -2.6734256228838, 1};
Point(p10 + 25) = {20.41655175189019, -2.820285248109809, 1};
Point(p10 + 26) = {20.5634113771162, -2.945715217489747, 1};
Point(p10 + 27) = {20.72808448681606, -3.046627028899277, 1};
Point(p10 + 28) = {20.90651628251025, -3.120535898634396, 1};
Point(p10 + 29) = {21.0943131812076, -3.165621945032749, 1};
Point(p10 + 30) = {21.286851, -3.180775, 1};
Point(p10 + 31) = {21.4793888187924, -3.165621945032749, 1};
Point(p10 + 32) = {21.66718571748974, -3.120535898634396, 1};
Point(p10 + 33) = {21.84561751318394, -3.046627028899277, 1};
Point(p10 + 34) = {22.0102906228838, -2.945715217489747, 1};
Point(p10 + 35) = {22.15715024810981, -2.82028524810981, 1};
Point(p10 + 36) = {22.28258021748974, -2.673425622883801, 1};
Point(p10 + 37) = {22.38349202889928, -2.508752513183937, 1};
Point(p10 + 38) = {22.45740089863439, -2.330320717489748, 1};
Point(p10 + 39) = {22.50248694503275, -2.142523818792401, 1};
Spline(10) = {8, p10 + 1, p10 + 2, p10 + 3, p10 + 4, p10 + 5, p10 + 6, p10 + 7, p10 + 8, p10 + 9, p10 + 10, p10 + 11, p10 + 12, p10 + 13, p10 + 14, p10 + 15, p10 + 16, p10 + 17, p10 + 18, p10 + 19, p10 + 20, p10 + 21, p10 + 22, p10 + 23, p10 + 24, p10 + 25, p10 + 26, p10 + 27, p10 + 28, p10 + 29, p10 + 30, p10 + 31, p10 + 32, p10 + 33, p10 + 34, p10 + 35, p10 + 36, p10 + 37, p10 + 38, p10 + 39, 8};
p11 = newp;
Point(p11 + 1) = {28.87015579630816, -1.27954459584798, 1};
Point(p11 + 2) = {28.82190648198603, -1.078571737994993, 1};
Point(p11 + 3) = {28.74281211528251, -0.887621045192054, 1};
Point(p11 + 4) = {28.63482026200501, -0.7113943572249875, 1};
Point(p11 + 5) = {28.50059003998561, -0.5542309600143885, 1};
Point(p11 + 6) = {28.34342664277501, -0.420000737994993, 1};
Point(p11 + 7) = {28.16719995480795, -0.3120088847174849, 1};
Point(p11 + 8) = {27.97624926200501, -0.2329145180139689, 1};
Point(p11 + 9) = {27.77527640415202, -0.184665203691839, 1};
Point(p11 + 10) = {27.56923, -0.1684490000000001, 1};
Point(p11 + 11) = {27.36318359584798, -0.1846652036918393, 1};
Point(p11 + 12) = {27.16221073799499, -0.2329145180139689, 1};
Point(p11 + 13) = {26.97126004519205, -0.3120088847174849, 1};
Point(p11 + 14) = {26.79503335722499, -0.420000737994993, 1};
Point(p11 + 15) = {26.63786996001439, -0.5542309600143884, 1};
Point(p11 + 16) = {26.50363973799499, -0.7113943572249873, 1};
Point(p11 + 17) = {26.39564788471749, -0.8876210451920539, 1};
Point(p11 + 18) = {26.31655351801397, -1.078571737994993, 1};
Point(p11 + 19) = {26.26830420369184, -1.27954459584798, 1};
Point(p11 + 20) = {26.252088, -1.485591, 1};
Point(p11 + 21) = {26.26830420369184, -1.69163740415202, 1};
Point(p11 + 22) = {26.31655351801397, -1.892610262005008, 1};
Point(p11 + 23) = {26.39564788471748, -2.083560954807945, 1};
Point(p11 + 24) = {26.50363973799499, -2.259787642775013, 1};
Point(p11 + 25) = {26.63786996001439, -2.416951039985612, 1};
Point(p11 + 26) = {26.79503335722499, -2.551181262005007, 1};
Point(p11 + 27) = {26.97126004519205, -2.659173115282515, 1};
Point(p11 + 28) = {27.16221073799499, -2.738267481986031, 1};
Point(p11 + 29) = {27.36318359584798, -2.786516796308161, 1};
Point(p11 + 30) = {27.56923, -2.802733, 1};
Point(p11 + 31) = {27.77527640415202, -2.786516796308161, 1};
Point(p11 + 32) = {27.97624926200501, -2.738267481986031, 1};
Point(p11 + 33) = {28.16719995480795, -2.659173115282515, 1};
Point(p11 + 34) = {28.34342664277501, -2.551181262005008, 1};
Point(p11 + 35) = {28.50059003998561, -2.416951039985612, 1};
Point(p11 + 36) = {28.63482026200501, -2.259787642775013, 1};
Point(p11 + 37) = {28.74281211528251, -2.083560954807946, 1};
Point(p11 + 38) = {28.82190648198603, -1.892610262005007, 1};
Point(p11 + 39) = {28.87015579630816, -1.69163740415202, 1};
Spline(11) = {9, p11 + 1, p11 + 2, p11 + 3, p11 + 4, p11 + 5, p11 + 6, p11 + 7, p11 + 8, p11 + 9, p11 + 10, p11 + 11, p11 + 12, p11 + 13, p11 + 14, p11 + 15, p11 + 16, p11 + 17, p11 + 18, p11 + 19, p11 + 20, p11 + 21, p11 + 22, p11 + 23, p11 + 24, p11 + 25, p11 + 26, p11 + 27, p11 + 28, p11 + 29, p11 + 30, p11 + 31, p11 + 32, p11 + 33, p11 + 34, p11 + 35, p11 + 36, p11 + 37, p11 + 38, p11 + 39, 9};
Line(12) = {4, 10};
Line(13) = {10, 7};
Line(14) = {5, 10};
p15 = newp;
Point(p15 + 1) = {22.50248694503275, -1.757448181207599, 0};
Point(p15 + 2) = {22.45740089863439, -1.569651282510253, 0};
Point(p15 + 3) = {22.38349202889928, -1.391219486816063, 0};
Point(p15 + 4) = {22.28258021748974, -1.226546377116199, 0};
Point(p15 + 5) = {22.15715024810981, -1.07968675189019, 0};
Point(p15 + 6) = {22.0102906228838, -0.9542567825102529, 0};
Point(p15 + 7) = {21.84561751318394, -0.853344971100723, 0};
Point(p15 + 8) = {21.66718571748975, -0.7794361013656044, 0};
Point(p15 + 9) = {21.4793888187924, -0.734350054967251, 0};
Point(p15 + 10) = {21.286851, -0.7191970000000001, 0};
Point(p15 + 11) = {21.0943131812076, -0.7343500549672513, 0};
Point(p15 + 12) = {20.90651628251025, -0.7794361013656042, 0};
Point(p15 + 13) = {20.72808448681606, -0.853344971100723, 0};
Point(p15 + 14) = {20.5634113771162, -0.9542567825102529, 0};
Point(p15 + 15) = {20.41655175189019, -1.07968675189019, 0};
Point(p15 + 16) = {20.29112178251025, -1.226546377116199, 0};
Point(p15 + 17) = {20.19020997110072, -1.391219486816063, 0};
Point(p15 + 18) = {20.1163011013656, -1.569651282510253, 0};
Point(p15 + 19) = {20.07121505496725, -1.757448181207599, 0};
Point(p15 + 20) = {20.056062, -1.949986, 0};
Point(p15 + 21) = {20.07121505496725, -2.142523818792401, 0};
Point(p15 + 22) = {20.1163011013656, -2.330320717489748, 0};
Point(p15 + 23) = {20.19020997110072, -2.508752513183937, 0};
Point(p15 + 24) = {20.29112178251025, -2.6734256228838, 0};
Point(p15 + 25) = {20.41655175189019, -2.820285248109809, 0};
Point(p15 + 26) = {20.5634113771162, -2.945715217489747, 0};
Point(p15 + 27) = {20.72808448681606, -3.046627028899277, 0};
Point(p15 + 28) = {20.90651628251025, -3.120535898634396, 0};
Point(p15 + 29) = {21.0943131812076, -3.165621945032749, 0};
Point(p15 + 30) = {21.286851, -3.180775, 0};
Point(p15 + 31) = {21.4793888187924, -3.165621945032749, 0};
Point(p15 + 32) = {21.66718571748974, -3.120535898634396, 0};
Point(p15 + 33) = {21.84561751318394, -3.046627028899277, 0};
Point(p15 + 34) = {22.0102906228838, -2.945715217489747, 0};
Point(p15 + 35) = {22.15715024810981, -2.82028524810981, 0};
Point(p15 + 36) = {22.28258021748974, -2.673425622883801, 0};
Point(p15 + 37) = {22.38349202889928, -2.508752513183937, 0};
Point(p15 + 38) = {22.45740089863439, -2.330320717489748, 0};
Point(p15 + 39) = {22.50248694503275, -2.142523818792401, 0};
Spline(15) = {11, p15 + 1, p15 + 2, p15 + 3, p15 + 4, p15 + 5, p15 + 6, p15 + 7, p15 + 8, p15 + 9, p15 + 10, p15 + 11, p15 + 12, p15 + 13, p15 + 14, p15 + 15, p15 + 16, p15 + 17, p15 + 18, p15 + 19, p15 + 20, p15 + 21, p15 + 22, p15 + 23, p15 + 24, p15 + 25, p15 + 26, p15 + 27, p15 + 28, p15 + 29, p15 + 30, p15 + 31, p15 + 32, p15 + 33, p15 + 34, p15 + 35, p15 + 36, p15 + 37, p15 + 38, p15 + 39, 11};
p16 = newp;
Point(p16 + 1) = {28.87015579630816, -1.27954459584798, 0};
Point(p16 + 2) = {28.82190648198603, -1.078571737994993, 0};
Point(p16 + 3) = {28.74281211528251, -0.887621045192054, 0};
Point(p16 + 4) = {28.63482026200501, -0.7113943572249875, 0};
Point(p16 + 5) = {28.50059003998561, -0.5542309600143885, 0};
Point(p16 + 6) = {28.34342664277501, -0.420000737994993, 0};
Point(p16 + 7) = {28.16719995480795, -0.3120088847174849, 0};
Point(p16 + 8) = {27.97624926200501, -0.2329145180139689, 0};
Point(p16 + 9) = {27.77527640415202, -0.184665203691839, 0};
Point(p16 + 10) = {27.56923, -0.1684490000000001, 0};
Point(p16 + 11) = {27.36318359584798, -0.1846652036918393, 0};
Point(p16 + 12) = {27.16221073799499, -0.2329145180139689, 0};
Point(p16 + 13) = {26.97126004519205, -0.3120088847174849, 0};
Point(p16 + 14) = {26.79503335722499, -0.420000737994993, 0};
Point(p16 + 15) = {26.63786996001439, -0.5542309600143884, 0};
Point(p16 + 16) = {26.50363973799499, -0.7113943572249873, 0};
Point(p16 + 17) = {26.39564788471749, -0.8876210451920539, 0};
Point(p16 + 18) = {26.31655351801397, -1.078571737994993, 0};
Point(p16 + 19) = {26.26830420369184, -1.27954459584798, 0};
Point(p16 + 20) = {26.252088, -1.485591, 0};
Point(p16 + 21) = {26.26830420369184, -1.69163740415202, 0};
Point(p16 + 22) = {26.31655351801397, -1.892610262005008, 0};
Point(p16 + 23) = {26.39564788471748, -2.083560954807945, 0};
Point(p16 + 24) = {26.50363973799499, -2.259787642775013, 0};
Point(p16 + 25) = {26.63786996001439, -2.416951039985612, 0};
Point(p16 + 26) = {26.79503335722499, -2.551181262005007, 0};
Point(p16 + 27) = {26.97126004519205, -2.659173115282515, 0};
Point(p16 + 28) = {27.16221073799499, -2.738267481986031, 0};
Point(p16 + 29) = {27.36318359584798, -2.786516796308161, 0};
Point(p16 + 30) = {27.56923, -2.802733, 0};
Point(p16 + 31) = {27.77527640415202, -2.786516796308161, 0};
Point(p16 + 32) = {27.97624926200501, -2.738267481986031, 0};
Point(p16 + 33) = {28.16719995480795, -2.659173115282515, 0};
Point(p16 + 34) = {28.34342664277501, -2.551181262005008, 0};
Point(p16 + 35) = {28.50059003998561, -2.416951039985612, 0};
Point(p16 + 36) = {28.63482026200501, -2.259787642775013, 0};
Point(p16 + 37) = {28.74281211528251, -2.083560954807946, 0};
Point(p16 + 38) = {28.82190648198603, -1.892610262005007, 0};
Point(p16 + 39) = {28.87015579630816, -1.69163740415202, 0};
Spline(16) = {12, p16 + 1, p16 + 2, p16 + 3, p16 + 4, p16 + 5, p16 + 6, p16 + 7, p16 + 8, p16 + 9, p16 + 10, p16 + 11, p16 + 12, p16 + 13, p16 + 14, p16 + 15, p16 + 16, p16 + 17, p16 + 18, p16 + 19, p16 + 20, p16 + 21, p16 + 22, p16 + 23, p16 + 24, p16 + 25, p16 + 26, p16 + 27, p16 + 28, p16 + 29, p16 + 30, p16 + 31, p16 + 32, p16 + 33, p16 + 34, p16 + 35, p16 + 36, p16 + 37, p16 + 38, p16 + 39, 12};
Line(17) = {11, 8};
Line(18) = {12, 9};
Curve Loop(1) = {-1, 4, 3, -2};
Plane Surface(1) = {1};
Curve Loop(2) = {-5, 1, 7, -6};
Plane Surface(2) = {2};
Curve Loop(3) = {-2, 7, 9, -8, -10, -11};
Plane Surface(3) = {3};
Curve Loop(4) = {-12, 3, 8, -13};
Plane Surface(4) = {4};
Curve Loop(5) = {-4, 5, 14, -12, -15, -16};
Plane Surface(5) = {5};
Curve Loop(6) = {-6, 14, 13, -9};
Plane Surface(6) = {6};
Curve Loop(7) = {-10, -17, 15, 17};
Surface(7) = {7};
Curve Loop(8) = {-11, -18, 16, 18};
Surface(8) = {8};
Surface Loop(1) = {1, 2, 3, 4, 5, 6, 7, 8};
Volume(1) = {1};
Physical Surface("INFLOW") = {1};
Physical Surface("OUTFLOW") = {6};
Physical Surface("OBSTACLE") = {7, 8};
Physical Surface("WALL_Y") = {2, 4};
Physical Surface("WALL_Z") = {3, 5};
Physical Volume("FLUID") = {1};
