cl__1 = 3.448324;
cl__2 = 1.441657;
cl__3 = 1.395812;
cl__4 = 0.124467;
Point(1) = {0.587572, -3.423684, 1, cl__1};
Point(2) = {0.587572, -3.423684, 0, cl__1};
Point(3) = {0.587572, 4.701562000000001, 1, cl__1};
Point(4) = {0.587572, 4.701562000000001, 0, cl__1};
Point(5) = {34.24309, -3.423684, 0, cl__2};
Point(6) = {34.24309, -3.423684, 1, cl__2};
Point(7) = {34.24309, 4.701562000000001, 1, cl__3};
Point(8) = {20.623827, 1.509667, 1, cl__4};
Point(9) = {34.24309, 4.701562000000001, 0, cl__3};
Point(10) = {20.623827, 1.509667, 0, cl__4};
Line(1) = {2, 1};
Line(2) = {1, 3};
Line(3) = {4, 3};
Line(4) = {2, 4};
Line(5) = {2, 5};
Line(6) = {5, 6};
Line(7) = {1, 6};
Line(8) = {3, 7};
Line(9) = {6, 7};
p10 = newp;
Point(p10 + 1) = {20.60850305920021, 1.704376129167159, 1};
Point(p10 + 2) = {20.56290856308057, 1.894290873371671, 1};
Point(p10 + 3) = {20.48816619945501, 2.074734901320322, 1};
Point(p10 + 4) = {20.38611637337167, 2.24126508218562, 1};
Point(p10 + 5) = {20.25927189023268, 2.389780890232679, 1};
Point(p10 + 6) = {20.11075608218562, 2.516625373371672, 1};
Point(p10 + 7) = {19.94422590132032, 2.618675199455012, 1};
Point(p10 + 8) = {19.76378187337167, 2.693417563080573, 1};
Point(p10 + 9) = {19.57386712916716, 2.73901205920021, 1};
Point(p10 + 10) = {19.379158, 2.754336, 1};
Point(p10 + 11) = {19.18444887083284, 2.739012059200209, 1};
Point(p10 + 12) = {18.99453412662833, 2.693417563080573, 1};
Point(p10 + 13) = {18.81409009867968, 2.618675199455012, 1};
Point(p10 + 14) = {18.64755991781438, 2.516625373371672, 1};
Point(p10 + 15) = {18.49904410976732, 2.389780890232679, 1};
Point(p10 + 16) = {18.37219962662833, 2.24126508218562, 1};
Point(p10 + 17) = {18.27014980054499, 2.074734901320322, 1};
Point(p10 + 18) = {18.19540743691943, 1.894290873371672, 1};
Point(p10 + 19) = {18.14981294079979, 1.704376129167159, 1};
Point(p10 + 20) = {18.134489, 1.509667, 1};
Point(p10 + 21) = {18.14981294079979, 1.314957870832841, 1};
Point(p10 + 22) = {18.19540743691943, 1.125043126628328, 1};
Point(p10 + 23) = {18.27014980054499, 0.9445990986796788, 1};
Point(p10 + 24) = {18.37219962662833, 0.7780689178143799, 1};
Point(p10 + 25) = {18.49904410976732, 0.6295531097673213, 1};
Point(p10 + 26) = {18.64755991781438, 0.5027086266283287, 1};
Point(p10 + 27) = {18.81409009867968, 0.4006588005449885, 1};
Point(p10 + 28) = {18.99453412662833, 0.3259164369194276, 1};
Point(p10 + 29) = {19.18444887083284, 0.2803219407997908, 1};
Point(p10 + 30) = {19.379158, 0.2649980000000001, 1};
Point(p10 + 31) = {19.57386712916716, 0.2803219407997906, 1};
Point(p10 + 32) = {19.76378187337167, 0.3259164369194274, 1};
Point(p10 + 33) = {19.94422590132032, 0.4006588005449885, 1};
Point(p10 + 34) = {20.11075608218562, 0.5027086266283285, 1};
Point(p10 + 35) = {20.25927189023268, 0.6295531097673209, 1};
Point(p10 + 36) = {20.38611637337167, 0.7780689178143796, 1};
Point(p10 + 37) = {20.48816619945501, 0.9445990986796778, 1};
Point(p10 + 38) = {20.56290856308057, 1.125043126628329, 1};
Point(p10 + 39) = {20.60850305920021, 1.314957870832841, 1};
Spline(10) = {8, p10 + 1, p10 + 2, p10 + 3, p10 + 4, p10 + 5, p10 + 6, p10 + 7, p10 + 8, p10 + 9, p10 + 10, p10 + 11, p10 + 12, p10 + 13, p10 + 14, p10 + 15, p10 + 16, p10 + 17, p10 + 18, p10 + 19, p10 + 20, p10 + 21, p10 + 22, p10 + 23, p10 + 24, p10 + 25, p10 + 26, p10 + 27, p10 + 28, p10 + 29, p10 + 30, p10 + 31, p10 + 32, p10 + 33, p10 + 34, p10 + 35, p10 + 36, p10 + 37, p10 + 38, p10 + 39, 8};
Line(11) = {4, 9};
Line(12) = {9, 7};
Line(13) = {5, 9};
p14 = newp;
Point(p14 + 1) = {20.60850305920021, 1.704376129167159, 0};
Point(p14 + 2) = {20.56290856308057, 1.894290873371671, 0};
Point(p14 + 3) = {20.48816619945501, 2.074734901320322, 0};
Point(p14 + 4) = {20.38611637337167, 2.24126508218562, 0};
Point(p14 + 5) = {20.25927189023268, 2.389780890232679, 0};
Point(p14 + 6) = {20.11075608218562, 2.516625373371672, 0};
Point(p14 + 7) = {19.94422590132032, 2.618675199455012, 0};
Point(p14 + 8) = {19.76378187337167, 2.693417563080573, 0};
Point(p14 + 9) = {19.57386712916716, 2.73901205920021, 0};
Point(p14 + 10) = {19.379158, 2.754336, 0};
Point(p14 + 11) = {19.18444887083284, 2.739012059200209, 0};
Point(p14 + 12) = {18.99453412662833, 2.693417563080573, 0};
Point(p14 + 13) = {18.81409009867968, 2.618675199455012, 0};
Point(p14 + 14) = {18.64755991781438, 2.516625373371672, 0};
Point(p14 + 15) = {18.49904410976732, 2.389780890232679, 0};
Point(p14 + 16) = {18.37219962662833, 2.24126508218562, 0};
Point(p14 + 17) = {18.27014980054499, 2.074734901320322, 0};
Point(p14 + 18) = {18.19540743691943, 1.894290873371672, 0};
Point(p14 + 19) = {18.14981294079979, 1.704376129167159, 0};
Point(p14 + 20) = {18.134489, 1.509667, 0};
Point(p14 + 21) = {18.14981294079979, 1.314957870832841, 0};
Point(p14 + 22) = {18.19540743691943, 1.125043126628328, 0};
Point(p14 + 23) = {18.27014980054499, 0.9445990986796788, 0};
Point(p14 + 24) = {18.37219962662833, 0.7780689178143799, 0};
Point(p14 + 25) = {18.49904410976732, 0.6295531097673213, 0};
Point(p14 + 26) = {18.64755991781438, 0.5027086266283287, 0};
Point(p14 + 27) = {18.81409009867968, 0.4006588005449885, 0};
Point(p14 + 28) = {18.99453412662833, 0.3259164369194276, 0};
Point(p14 + 29) = {19.18444887083284, 0.2803219407997908, 0};
Point(p14 + 30) = {19.379158, 0.2649980000000001, 0};
Point(p14 + 31) = {19.57386712916716, 0.2803219407997906, 0};
Point(p14 + 32) = {19.76378187337167, 0.3259164369194274, 0};
Point(p14 + 33) = {19.94422590132032, 0.4006588005449885, 0};
Point(p14 + 34) = {20.11075608218562, 0.5027086266283285, 0};
Point(p14 + 35) = {20.25927189023268, 0.6295531097673209, 0};
Point(p14 + 36) = {20.38611637337167, 0.7780689178143796, 0};
Point(p14 + 37) = {20.48816619945501, 0.9445990986796778, 0};
Point(p14 + 38) = {20.56290856308057, 1.125043126628329, 0};
Point(p14 + 39) = {20.60850305920021, 1.314957870832841, 0};
Spline(14) = {10, p14 + 1, p14 + 2, p14 + 3, p14 + 4, p14 + 5, p14 + 6, p14 + 7, p14 + 8, p14 + 9, p14 + 10, p14 + 11, p14 + 12, p14 + 13, p14 + 14, p14 + 15, p14 + 16, p14 + 17, p14 + 18, p14 + 19, p14 + 20, p14 + 21, p14 + 22, p14 + 23, p14 + 24, p14 + 25, p14 + 26, p14 + 27, p14 + 28, p14 + 29, p14 + 30, p14 + 31, p14 + 32, p14 + 33, p14 + 34, p14 + 35, p14 + 36, p14 + 37, p14 + 38, p14 + 39, 10};
Line(15) = {10, 8};
Curve Loop(1) = {-1, 4, 3, -2};
Plane Surface(1) = {1};
Curve Loop(2) = {-5, 1, 7, -6};
Plane Surface(2) = {2};
Curve Loop(3) = {-2, 7, 9, -8, -10};
Plane Surface(3) = {3};
Curve Loop(4) = {-11, 3, 8, -12};
Plane Surface(4) = {4};
Curve Loop(5) = {-4, 5, 13, -11, -14};
Plane Surface(5) = {5};
Curve Loop(6) = {-6, 13, 12, -9};
Plane Surface(6) = {6};
Curve Loop(7) = {-10, -15, 14, 15};
Surface(7) = {7};
Surface Loop(1) = {1, 2, 3, 4, 5, 6, 7};
Volume(1) = {1};
Physical Surface("INFLOW") = {1};
Physical Surface("OUTFLOW") = {6};
Physical Surface("OBSTACLE") = {7};
Physical Surface("WALL_Y") = {2, 4};
Physical Surface("WALL_Z") = {3, 5};
Physical Volume("FLUID") = {1};
