cl__1 = 3.144757;
cl__2 = 1.230534;
cl__3 = 1.038658;
cl__4 = 0.120731;
Point(1) = {0.849576, -4.128654, 1, cl__1};
Point(2) = {0.849576, -4.128654, 0, cl__1};
Point(3) = {0.849576, 5.773314999999999, 1, cl__1};
Point(4) = {0.849576, 5.773314999999999, 0, cl__1};
Point(5) = {31.055389, -4.128654, 0, cl__2};
Point(6) = {31.055389, -4.128654, 1, cl__2};
Point(7) = {31.055389, 5.773314999999999, 1, cl__3};
Point(8) = {20.945652, 3.254849999999999, 1, cl__4};
Point(9) = {31.055389, 5.773314999999999, 0, cl__3};
Point(10) = {20.945652, 3.254849999999999, 0, cl__4};
Line(1) = {2, 1};
Line(2) = {1, 3};
Line(3) = {4, 3};
Line(4) = {2, 4};
Line(5) = {2, 5};
Line(6) = {5, 6};
Line(7) = {1, 6};
Line(8) = {3, 7};
Line(9) = {6, 7};
p10 = newp;
Point(p10 + 1) = {20.93078802279557, 3.443714737553256, 1};
Point(p10 + 2) = {20.88656209163178, 3.627928998461823, 1};
Point(p10 + 3) = {20.81406319571133, 3.802956816250052, 1};
Point(p10 + 4) = {20.71507649846182, 3.964488425159973, 1};
Point(p10 + 5) = {20.59203938088755, 4.10854638088755, 1};
Point(p10 + 6) = {20.44798142515997, 4.231583498461823, 1};
Point(p10 + 7) = {20.28644981625005, 4.330570195711334, 1};
Point(p10 + 8) = {20.11142199846183, 4.403069091631785, 1};
Point(p10 + 9) = {19.92720773755326, 4.447295022795575, 1};
Point(p10 + 10) = {19.738343, 4.462159, 1};
Point(p10 + 11) = {19.54947826244674, 4.447295022795575, 1};
Point(p10 + 12) = {19.36526400153818, 4.403069091631785, 1};
Point(p10 + 13) = {19.19023618374995, 4.330570195711334, 1};
Point(p10 + 14) = {19.02870457484003, 4.231583498461823, 1};
Point(p10 + 15) = {18.88464661911245, 4.10854638088755, 1};
Point(p10 + 16) = {18.76160950153818, 3.964488425159973, 1};
Point(p10 + 17) = {18.66262280428867, 3.802956816250052, 1};
Point(p10 + 18) = {18.59012390836822, 3.627928998461823, 1};
Point(p10 + 19) = {18.54589797720443, 3.443714737553256, 1};
Point(p10 + 20) = {18.531034, 3.25485, 1};
Point(p10 + 21) = {18.54589797720443, 3.065985262446744, 1};
Point(p10 + 22) = {18.59012390836822, 2.881771001538176, 1};
Point(p10 + 23) = {18.66262280428867, 2.706743183749948, 1};
Point(p10 + 24) = {18.76160950153818, 2.545211574840026, 1};
Point(p10 + 25) = {18.88464661911245, 2.401153619112451, 1};
Point(p10 + 26) = {19.02870457484003, 2.278116501538177, 1};
Point(p10 + 27) = {19.19023618374995, 2.179129804288666, 1};
Point(p10 + 28) = {19.36526400153818, 2.106630908368214, 1};
Point(p10 + 29) = {19.54947826244674, 2.062404977204425, 1};
Point(p10 + 30) = {19.738343, 2.047541, 1};
Point(p10 + 31) = {19.92720773755326, 2.062404977204425, 1};
Point(p10 + 32) = {20.11142199846183, 2.106630908368214, 1};
Point(p10 + 33) = {20.28644981625005, 2.179129804288666, 1};
Point(p10 + 34) = {20.44798142515997, 2.278116501538176, 1};
Point(p10 + 35) = {20.59203938088755, 2.40115361911245, 1};
Point(p10 + 36) = {20.71507649846182, 2.545211574840026, 1};
Point(p10 + 37) = {20.81406319571133, 2.706743183749947, 1};
Point(p10 + 38) = {20.88656209163178, 2.881771001538176, 1};
Point(p10 + 39) = {20.93078802279557, 3.065985262446743, 1};
Spline(10) = {8, p10 + 1, p10 + 2, p10 + 3, p10 + 4, p10 + 5, p10 + 6, p10 + 7, p10 + 8, p10 + 9, p10 + 10, p10 + 11, p10 + 12, p10 + 13, p10 + 14, p10 + 15, p10 + 16, p10 + 17, p10 + 18, p10 + 19, p10 + 20, p10 + 21, p10 + 22, p10 + 23, p10 + 24, p10 + 25, p10 + 26, p10 + 27, p10 + 28, p10 + 29, p10 + 30, p10 + 31, p10 + 32, p10 + 33, p10 + 34, p10 + 35, p10 + 36, p10 + 37, p10 + 38, p10 + 39, 8};
Line(11) = {4, 9};
Line(12) = {9, 7};
Line(13) = {5, 9};
p14 = newp;
Point(p14 + 1) = {20.93078802279557, 3.443714737553256, 0};
Point(p14 + 2) = {20.88656209163178, 3.627928998461823, 0};
Point(p14 + 3) = {20.81406319571133, 3.802956816250052, 0};
Point(p14 + 4) = {20.71507649846182, 3.964488425159973, 0};
Point(p14 + 5) = {20.59203938088755, 4.10854638088755, 0};
Point(p14 + 6) = {20.44798142515997, 4.231583498461823, 0};
Point(p14 + 7) = {20.28644981625005, 4.330570195711334, 0};
Point(p14 + 8) = {20.11142199846183, 4.403069091631785, 0};
Point(p14 + 9) = {19.92720773755326, 4.447295022795575, 0};
Point(p14 + 10) = {19.738343, 4.462159, 0};
Point(p14 + 11) = {19.54947826244674, 4.447295022795575, 0};
Point(p14 + 12) = {19.36526400153818, 4.403069091631785, 0};
Point(p14 + 13) = {19.19023618374995, 4.330570195711334, 0};
Point(p14 + 14) = {19.02870457484003, 4.231583498461823, 0};
Point(p14 + 15) = {18.88464661911245, 4.10854638088755, 0};
Point(p14 + 16) = {18.76160950153818, 3.964488425159973, 0};
Point(p14 + 17) = {18.66262280428867, 3.802956816250052, 0};
Point(p14 + 18) = {18.59012390836822, 3.627928998461823, 0};
Point(p14 + 19) = {18.54589797720443, 3.443714737553256, 0};
Point(p14 + 20) = {18.531034, 3.25485, 0};
Point(p14 + 21) = {18.54589797720443, 3.065985262446744, 0};
Point(p14 + 22) = {18.59012390836822, 2.881771001538176, 0};
Point(p14 + 23) = {18.66262280428867, 2.706743183749948, 0};
Point(p14 + 24) = {18.76160950153818, 2.545211574840026, 0};
Point(p14 + 25) = {18.88464661911245, 2.401153619112451, 0};
Point(p14 + 26) = {19.02870457484003, 2.278116501538177, 0};
Point(p14 + 27) = {19.19023618374995, 2.179129804288666, 0};
Point(p14 + 28) = {19.36526400153818, 2.106630908368214, 0};
Point(p14 + 29) = {19.54947826244674, 2.062404977204425, 0};
Point(p14 + 30) = {19.738343, 2.047541, 0};
Point(p14 + 31) = {19.92720773755326, 2.062404977204425, 0};
Point(p14 + 32) = {20.11142199846183, 2.106630908368214, 0};
Point(p14 + 33) = {20.28644981625005, 2.179129804288666, 0};
Point(p14 + 34) = {20.44798142515997, 2.278116501538176, 0};
Point(p14 + 35) = {20.59203938088755, 2.40115361911245, 0};
Point(p14 + 36) = {20.71507649846182, 2.545211574840026, 0};
Point(p14 + 37) = {20.81406319571133, 2.706743183749947, 0};
Point(p14 + 38) = {20.88656209163178, 2.881771001538176, 0};
Point(p14 + 39) = {20.93078802279557, 3.065985262446743, 0};
Spline(14) = {10, p14 + 1, p14 + 2, p14 + 3, p14 + 4, p14 + 5, p14 + 6, p14 + 7, p14 + 8, p14 + 9, p14 + 10, p14 + 11, p14 + 12, p14 + 13, p14 + 14, p14 + 15, p14 + 16, p14 + 17, p14 + 18, p14 + 19, p14 + 20, p14 + 21, p14 + 22, p14 + 23, p14 + 24, p14 + 25, p14 + 26, p14 + 27, p14 + 28, p14 + 29, p14 + 30, p14 + 31, p14 + 32, p14 + 33, p14 + 34, p14 + 35, p14 + 36, p14 + 37, p14 + 38, p14 + 39, 10};
Line(15) = {10, 8};
Curve Loop(1) = {-1, 4, 3, -2};
Plane Surface(1) = {1};
Curve Loop(2) = {-5, 1, 7, -6};
Plane Surface(2) = {2};
Curve Loop(3) = {-2, 7, 9, -8, -10};
Plane Surface(3) = {3};
Curve Loop(4) = {-11, 3, 8, -12};
Plane Surface(4) = {4};
Curve Loop(5) = {-4, 5, 13, -11, -14};
Plane Surface(5) = {5};
Curve Loop(6) = {-6, 13, 12, -9};
Plane Surface(6) = {6};
Curve Loop(7) = {-10, -15, 14, 15};
Surface(7) = {7};
Surface Loop(1) = {1, 2, 3, 4, 5, 6, 7};
Volume(1) = {1};
Physical Surface("INFLOW") = {1};
Physical Surface("OUTFLOW") = {6};
Physical Surface("OBSTACLE") = {7};
Physical Surface("WALL_Y") = {2, 4};
Physical Surface("WALL_Z") = {3, 5};
Physical Volume("FLUID") = {1};
