cl__1 = 3.045984;
cl__2 = 0.877274;
cl__3 = 0.814446;
cl__4 = 0.051242;
cl__5 = 0.095244;
Point(1) = {0.14897, -4.401529, 1, cl__1};
Point(2) = {0.14897, -4.401529, 0, cl__1};
Point(3) = {0.14897, 5.548931, 1, cl__2};
Point(4) = {0.14897, 5.548931, 0, cl__2};
Point(5) = {30.050776, -4.401529, 0, cl__3};
Point(6) = {30.050776, -4.401529, 1, cl__3};
Point(7) = {30.050776, 5.548931, 1, cl__2};
Point(8) = {7.73998, 0.5819719999999999, 1, cl__4};
Point(9) = {24.933486, 3.196996, 1, cl__5};
Point(10) = {30.050776, 5.548931, 0, cl__2};
Point(11) = {7.73998, 0.5819719999999999, 0, cl__4};
Point(12) = {24.933486, 3.196996, 0, cl__5};
Line(1) = {2, 1};
Line(2) = {1, 3};
Line(3) = {4, 3};
Line(4) = {2, 4};
Line(5) = {2, 5};
Line(6) = {5, 6};
Line(7) = {1, 6};
Line(8) = {3, 7};
Line(9) = {6, 7};
p10 = newp;
Point(p10 + 1) = {7.733671222552783, 0.6621326178793102, 1};
Point(p10 + 2) = {7.714900233249511, 0.7403194153085937, 1};
Point(p10 + 3) = {7.684129236144176, 0.8146071738480378, 1};
Point(p10 + 4) = {7.642115915308594, 0.883166682335466, 1};
Point(p10 + 5) = {7.589894778135954, 0.9443097781359542, 1};
Point(p10 + 6) = {7.528751682335466, 0.9965309153085937, 1};
Point(p10 + 7) = {7.460192173848037, 1.038544236144176, 1};
Point(p10 + 8) = {7.385904415308594, 1.069315233249511, 1};
Point(p10 + 9) = {7.307717617879311, 1.088086222552782, 1};
Point(p10 + 10) = {7.227557, 1.094395, 1};
Point(p10 + 11) = {7.147396382120689, 1.088086222552782, 1};
Point(p10 + 12) = {7.069209584691406, 1.069315233249511, 1};
Point(p10 + 13) = {6.994921826151963, 1.038544236144176, 1};
Point(p10 + 14) = {6.926362317664534, 0.9965309153085937, 1};
Point(p10 + 15) = {6.865219221864046, 0.9443097781359543, 1};
Point(p10 + 16) = {6.812998084691406, 0.883166682335466, 1};
Point(p10 + 17) = {6.770984763855824, 0.8146071738480378, 1};
Point(p10 + 18) = {6.740213766750489, 0.7403194153085938, 1};
Point(p10 + 19) = {6.721442777447217, 0.6621326178793103, 1};
Point(p10 + 20) = {6.715134, 0.5819720000000002, 1};
Point(p10 + 21) = {6.721442777447217, 0.5018113821206899, 1};
Point(p10 + 22) = {6.740213766750489, 0.4236245846914062, 1};
Point(p10 + 23) = {6.770984763855824, 0.3493368261519625, 1};
Point(p10 + 24) = {6.812998084691406, 0.2807773176645342, 1};
Point(p10 + 25) = {6.865219221864046, 0.2196342218640459, 1};
Point(p10 + 26) = {6.926362317664534, 0.1674130846914064, 1};
Point(p10 + 27) = {6.994921826151963, 0.1253997638558241, 1};
Point(p10 + 28) = {7.069209584691406, 0.09462876675048865, 1};
Point(p10 + 29) = {7.147396382120689, 0.07585777744721789, 1};
Point(p10 + 30) = {7.227557, 0.06954900000000008, 1};
Point(p10 + 31) = {7.30771761787931, 0.07585777744721778, 1};
Point(p10 + 32) = {7.385904415308594, 0.09462876675048859, 1};
Point(p10 + 33) = {7.460192173848037, 0.125399763855824, 1};
Point(p10 + 34) = {7.528751682335466, 0.1674130846914063, 1};
Point(p10 + 35) = {7.589894778135954, 0.2196342218640457, 1};
Point(p10 + 36) = {7.642115915308594, 0.280777317664534, 1};
Point(p10 + 37) = {7.684129236144176, 0.3493368261519622, 1};
Point(p10 + 38) = {7.714900233249511, 0.4236245846914063, 1};
Point(p10 + 39) = {7.733671222552783, 0.5018113821206898, 1};
Spline(10) = {8, p10 + 1, p10 + 2, p10 + 3, p10 + 4, p10 + 5, p10 + 6, p10 + 7, p10 + 8, p10 + 9, p10 + 10, p10 + 11, p10 + 12, p10 + 13, p10 + 14, p10 + 15, p10 + 16, p10 + 17, p10 + 18, p10 + 19, p10 + 20, p10 + 21, p10 + 22, p10 + 23, p10 + 24, p10 + 25, p10 + 26, p10 + 27, p10 + 28, p10 + 29, p10 + 30, p10 + 31, p10 + 32, p10 + 33, p10 + 34, p10 + 35, p10 + 36, p10 + 37, p10 + 38, p10 + 39, 8};
p11 = newp;
Point(p11 + 1) = {24.92175987080477, 3.345990598317382, 1};
Point(p11 + 2) = {24.88687021943667, 3.491316455139469, 1};
Point(p11 + 3) = {24.8296761449045, 3.629395165562434, 1};
Point(p11 + 4) = {24.75158595513947, 3.756826773478696, 1};
Point(p11 + 5) = {24.6545224897801, 3.870473489780097, 1};
Point(p11 + 6) = {24.5408757734787, 3.967536955139469, 1};
Point(p11 + 7) = {24.41344416556244, 4.045627144904493, 1};
Point(p11 + 8) = {24.27536545513947, 4.102821219436672, 1};
Point(p11 + 9) = {24.13003959831738, 4.137710870804773, 1};
Point(p11 + 10) = {23.981045, 4.149437, 1};
Point(p11 + 11) = {23.83205040168262, 4.137710870804773, 1};
Point(p11 + 12) = {23.68672454486053, 4.102821219436672, 1};
Point(p11 + 13) = {23.54864583443757, 4.045627144904493, 1};
Point(p11 + 14) = {23.42121422652131, 3.967536955139469, 1};
Point(p11 + 15) = {23.3075675102199, 3.870473489780097, 1};
Point(p11 + 16) = {23.21050404486053, 3.756826773478696, 1};
Point(p11 + 17) = {23.13241385509551, 3.629395165562434, 1};
Point(p11 + 18) = {23.07521978056333, 3.49131645513947, 1};
Point(p11 + 19) = {23.04033012919523, 3.345990598317383, 1};
Point(p11 + 20) = {23.028604, 3.196996, 1};
Point(p11 + 21) = {23.04033012919523, 3.048001401682618, 1};
Point(p11 + 22) = {23.07521978056333, 2.90267554486053, 1};
Point(p11 + 23) = {23.13241385509551, 2.764596834437567, 1};
Point(p11 + 24) = {23.21050404486053, 2.637165226521305, 1};
Point(p11 + 25) = {23.3075675102199, 2.523518510219903, 1};
Point(p11 + 26) = {23.42121422652131, 2.426455044860531, 1};
Point(p11 + 27) = {23.54864583443757, 2.348364855095507, 1};
Point(p11 + 28) = {23.68672454486053, 2.291170780563328, 1};
Point(p11 + 29) = {23.83205040168262, 2.256281129195226, 1};
Point(p11 + 30) = {23.981045, 2.244555, 1};
Point(p11 + 31) = {24.13003959831738, 2.256281129195226, 1};
Point(p11 + 32) = {24.27536545513947, 2.291170780563327, 1};
Point(p11 + 33) = {24.41344416556244, 2.348364855095507, 1};
Point(p11 + 34) = {24.5408757734787, 2.426455044860531, 1};
Point(p11 + 35) = {24.6545224897801, 2.523518510219903, 1};
Point(p11 + 36) = {24.75158595513947, 2.637165226521304, 1};
Point(p11 + 37) = {24.8296761449045, 2.764596834437566, 1};
Point(p11 + 38) = {24.88687021943667, 2.90267554486053, 1};
Point(p11 + 39) = {24.92175987080477, 3.048001401682617, 1};
Spline(11) = {9, p11 + 1, p11 + 2, p11 + 3, p11 + 4, p11 + 5, p11 + 6, p11 + 7, p11 + 8, p11 + 9, p11 + 10, p11 + 11, p11 + 12, p11 + 13, p11 + 14, p11 + 15, p11 + 16, p11 + 17, p11 + 18, p11 + 19, p11 + 20, p11 + 21, p11 + 22, p11 + 23, p11 + 24, p11 + 25, p11 + 26, p11 + 27, p11 + 28, p11 + 29, p11 + 30, p11 + 31, p11 + 32, p11 + 33, p11 + 34, p11 + 35, p11 + 36, p11 + 37, p11 + 38, p11 + 39, 9};
Line(12) = {4, 10};
Line(13) = {10, 7};
Line(14) = {5, 10};
p15 = newp;
Point(p15 + 1) = {7.733671222552783, 0.6621326178793102, 0};
Point(p15 + 2) = {7.714900233249511, 0.7403194153085937, 0};
Point(p15 + 3) = {7.684129236144176, 0.8146071738480378, 0};
Point(p15 + 4) = {7.642115915308594, 0.883166682335466, 0};
Point(p15 + 5) = {7.589894778135954, 0.9443097781359542, 0};
Point(p15 + 6) = {7.528751682335466, 0.9965309153085937, 0};
Point(p15 + 7) = {7.460192173848037, 1.038544236144176, 0};
Point(p15 + 8) = {7.385904415308594, 1.069315233249511, 0};
Point(p15 + 9) = {7.307717617879311, 1.088086222552782, 0};
Point(p15 + 10) = {7.227557, 1.094395, 0};
Point(p15 + 11) = {7.147396382120689, 1.088086222552782, 0};
Point(p15 + 12) = {7.069209584691406, 1.069315233249511, 0};
Point(p15 + 13) = {6.994921826151963, 1.038544236144176, 0};
Point(p15 + 14) = {6.926362317664534, 0.9965309153085937, 0};
Point(p15 + 15) = {6.865219221864046, 0.9443097781359543, 0};
Point(p15 + 16) = {6.812998084691406, 0.883166682335466, 0};
Point(p15 + 17) = {6.770984763855824, 0.8146071738480378, 0};
Point(p15 + 18) = {6.740213766750489, 0.7403194153085938, 0};
Point(p15 + 19) = {6.721442777447217, 0.6621326178793103, 0};
Point(p15 + 20) = {6.715134, 0.5819720000000002, 0};
Point(p15 + 21) = {6.721442777447217, 0.5018113821206899, 0};
Point(p15 + 22) = {6.740213766750489, 0.4236245846914062, 0};
Point(p15 + 23) = {6.770984763855824, 0.3493368261519625, 0};
Point(p15 + 24) = {6.812998084691406, 0.2807773176645342, 0};
Point(p15 + 25) = {6.865219221864046, 0.2196342218640459, 0};
Point(p15 + 26) = {6.926362317664534, 0.1674130846914064, 0};
Point(p15 + 27) = {6.994921826151963, 0.1253997638558241, 0};
Point(p15 + 28) = {7.069209584691406, 0.09462876675048865, 0};
Point(p15 + 29) = {7.147396382120689, 0.07585777744721789, 0};
Point(p15 + 30) = {7.227557, 0.06954900000000008, 0};
Point(p15 + 31) = {7.30771761787931, 0.07585777744721778, 0};
Point(p15 + 32) = {7.385904415308594, 0.09462876675048859, 0};
Point(p15 + 33) = {7.460192173848037, 0.125399763855824, 0};
Point(p15 + 34) = {7.528751682335466, 0.1674130846914063, 0};
Point(p15 + 35) = {7.589894778135954, 0.2196342218640457, 0};
Point(p15 + 36) = {7.642115915308594, 0.280777317664534, 0};
Point(p15 + 37) = {7.684129236144176, 0.3493368261519622, 0};
Point(p15 + 38) = {7.714900233249511, 0.4236245846914063, 0};
Point(p15 + 39) = {7.733671222552783, 0.5018113821206898, 0};
Spline(15) = {11, p15 + 1, p15 + 2, p15 + 3, p15 + 4, p15 + 5, p15 + 6, p15 + 7, p15 + 8, p15 + 9, p15 + 10, p15 + 11, p15 + 12, p15 + 13, p15 + 14, p15 + 15, p15 + 16, p15 + 17, p15 + 18, p15 + 19, p15 + 20, p15 + 21, p15 + 22, p15 + 23, p15 + 24, p15 + 25, p15 + 26, p15 + 27, p15 + 28, p15 + 29, p15 + 30, p15 + 31, p15 + 32, p15 + 33, p15 + 34, p15 + 35, p15 + 36, p15 + 37, p15 + 38, p15 + 39, 11};
p16 = newp;
Point(p16 + 1) = {24.92175987080477, 3.345990598317382, 0};
Point(p16 + 2) = {24.88687021943667, 3.491316455139469, 0};
Point(p16 + 3) = {24.8296761449045, 3.629395165562434, 0};
Point(p16 + 4) = {24.75158595513947, 3.756826773478696, 0};
Point(p16 + 5) = {24.6545224897801, 3.870473489780097, 0};
Point(p16 + 6) = {24.5408757734787, 3.967536955139469, 0};
Point(p16 + 7) = {24.41344416556244, 4.045627144904493, 0};
Point(p16 + 8) = {24.27536545513947, 4.102821219436672, 0};
Point(p16 + 9) = {24.13003959831738, 4.137710870804773, 0};
Point(p16 + 10) = {23.981045, 4.149437, 0};
Point(p16 + 11) = {23.83205040168262, 4.137710870804773, 0};
Point(p16 + 12) = {23.68672454486053, 4.102821219436672, 0};
Point(p16 + 13) = {23.54864583443757, 4.045627144904493, 0};
Point(p16 + 14) = {23.42121422652131, 3.967536955139469, 0};
Point(p16 + 15) = {23.3075675102199, 3.870473489780097, 0};
Point(p16 + 16) = {23.21050404486053, 3.756826773478696, 0};
Point(p16 + 17) = {23.13241385509551, 3.629395165562434, 0};
Point(p16 + 18) = {23.07521978056333, 3.49131645513947, 0};
Point(p16 + 19) = {23.04033012919523, 3.345990598317383, 0};
Point(p16 + 20) = {23.028604, 3.196996, 0};
Point(p16 + 21) = {23.04033012919523, 3.048001401682618, 0};
Point(p16 + 22) = {23.07521978056333, 2.90267554486053, 0};
Point(p16 + 23) = {23.13241385509551, 2.764596834437567, 0};
Point(p16 + 24) = {23.21050404486053, 2.637165226521305, 0};
Point(p16 + 25) = {23.3075675102199, 2.523518510219903, 0};
Point(p16 + 26) = {23.42121422652131, 2.426455044860531, 0};
Point(p16 + 27) = {23.54864583443757, 2.348364855095507, 0};
Point(p16 + 28) = {23.68672454486053, 2.291170780563328, 0};
Point(p16 + 29) = {23.83205040168262, 2.256281129195226, 0};
Point(p16 + 30) = {23.981045, 2.244555, 0};
Point(p16 + 31) = {24.13003959831738, 2.256281129195226, 0};
Point(p16 + 32) = {24.27536545513947, 2.291170780563327, 0};
Point(p16 + 33) = {24.41344416556244, 2.348364855095507, 0};
Point(p16 + 34) = {24.5408757734787, 2.426455044860531, 0};
Point(p16 + 35) = {24.6545224897801, 2.523518510219903, 0};
Point(p16 + 36) = {24.75158595513947, 2.637165226521304, 0};
Point(p16 + 37) = {24.8296761449045, 2.764596834437566, 0};
Point(p16 + 38) = {24.88687021943667, 2.90267554486053, 0};
Point(p16 + 39) = {24.92175987080477, 3.048001401682617, 0};
Spline(16) = {12, p16 + 1, p16 + 2, p16 + 3, p16 + 4, p16 + 5, p16 + 6, p16 + 7, p16 + 8, p16 + 9, p16 + 10, p16 + 11, p16 + 12, p16 + 13, p16 + 14, p16 + 15, p16 + 16, p16 + 17, p16 + 18, p16 + 19, p16 + 20, p16 + 21, p16 + 22, p16 + 23, p16 + 24, p16 + 25, p16 + 26, p16 + 27, p16 + 28, p16 + 29, p16 + 30, p16 + 31, p16 + 32, p16 + 33, p16 + 34, p16 + 35, p16 + 36, p16 + 37, p16 + 38, p16 + 39, 12};
Line(17) = {11, 8};
Line(18) = {12, 9};
Curve Loop(1) = {-1, 4, 3, -2};
Plane Surface(1) = {1};
Curve Loop(2) = {-5, 1, 7, -6};
Plane Surface(2) = {2};
Curve Loop(3) = {-2, 7, 9, -8, -10, -11};
Plane Surface(3) = {3};
Curve Loop(4) = {-12, 3, 8, -13};
Plane Surface(4) = {4};
Curve Loop(5) = {-4, 5, 14, -12, -15, -16};
Plane Surface(5) = {5};
Curve Loop(6) = {-6, 14, 13, -9};
Plane Surface(6) = {6};
Curve Loop(7) = {-10, -17, 15, 17};
Surface(7) = {7};
Curve Loop(8) = {-11, -18, 16, 18};
Surface(8) = {8};
Surface Loop(1) = {1, 2, 3, 4, 5, 6, 7, 8};
Volume(1) = {1};
Physical Surface("INFLOW") = {1};
Physical Surface("OUTFLOW") = {6};
Physical Surface("OBSTACLE") = {7, 8};
Physical Surface("WALL_Y") = {2, 4};
Physical Surface("WALL_Z") = {3, 5};
Physical Volume("FLUID") = {1};
