cl__1 = 3.312152;
cl__2 = 0.794669;
cl__3 = 0.08273;
cl__4 = 0.109177;
Point(1) = {0.591581, -3.825533, 1, cl__1};
Point(2) = {0.591581, -3.825533, 0, cl__1};
Point(3) = {0.591581, 5.499511, 1, cl__2};
Point(4) = {0.591581, 5.499511, 0, cl__2};
Point(5) = {32.791709, -3.825533, 0, cl__1};
Point(6) = {32.791709, -3.825533, 1, cl__1};
Point(7) = {32.791709, 5.499511, 1, cl__2};
Point(8) = {24.967859, -2.362461000000001, 1, cl__3};
Point(9) = {20.093486, 3.653763, 1, cl__4};
Point(10) = {32.791709, 5.499511, 0, cl__2};
Point(11) = {24.967859, -2.362461000000001, 0, cl__3};
Point(12) = {20.093486, 3.653763, 0, cl__4};
Line(1) = {2, 1};
Line(2) = {1, 3};
Line(3) = {4, 3};
Line(4) = {2, 4};
Line(5) = {2, 5};
Line(6) = {5, 6};
Line(7) = {1, 6};
Line(8) = {3, 7};
Line(9) = {6, 7};
p10 = newp;
Point(p10 + 1) = {24.95767361342099, -2.233043392810077, 1};
Point(p10 + 2) = {24.92736825170492, -2.106812476621584, 1};
Point(p10 + 3) = {24.87768913343494, -1.986876475527472, 1};
Point(p10 + 4) = {24.80985952337842, -1.876188611919446, 1};
Point(p10 + 5) = {24.72554961164851, -1.777474388351494, 1};
Point(p10 + 6) = {24.62683538808055, -1.693164476621584, 1};
Point(p10 + 7) = {24.51614752447253, -1.62533486656506, 1};
Point(p10 + 8) = {24.39621152337842, -1.575655748295085, 1};
Point(p10 + 9) = {24.26998060718992, -1.545350386579005, 1};
Point(p10 + 10) = {24.140563, -1.535165, 1};
Point(p10 + 11) = {24.01114539281008, -1.545350386579005, 1};
Point(p10 + 12) = {23.88491447662159, -1.575655748295085, 1};
Point(p10 + 13) = {23.76497847552747, -1.62533486656506, 1};
Point(p10 + 14) = {23.65429061191945, -1.693164476621584, 1};
Point(p10 + 15) = {23.55557638835149, -1.777474388351494, 1};
Point(p10 + 16) = {23.47126647662158, -1.876188611919446, 1};
Point(p10 + 17) = {23.40343686656506, -1.986876475527472, 1};
Point(p10 + 18) = {23.35375774829508, -2.106812476621584, 1};
Point(p10 + 19) = {23.32345238657901, -2.233043392810077, 1};
Point(p10 + 20) = {23.313267, -2.362461, 1};
Point(p10 + 21) = {23.32345238657901, -2.491878607189923, 1};
Point(p10 + 22) = {23.35375774829508, -2.618109523378417, 1};
Point(p10 + 23) = {23.40343686656506, -2.738045524472528, 1};
Point(p10 + 24) = {23.47126647662158, -2.848733388080554, 1};
Point(p10 + 25) = {23.55557638835149, -2.947447611648506, 1};
Point(p10 + 26) = {23.65429061191945, -3.031757523378417, 1};
Point(p10 + 27) = {23.76497847552747, -3.09958713343494, 1};
Point(p10 + 28) = {23.88491447662159, -3.149266251704915, 1};
Point(p10 + 29) = {24.01114539281008, -3.179571613420995, 1};
Point(p10 + 30) = {24.140563, -3.189757, 1};
Point(p10 + 31) = {24.26998060718992, -3.179571613420995, 1};
Point(p10 + 32) = {24.39621152337842, -3.149266251704915, 1};
Point(p10 + 33) = {24.51614752447253, -3.09958713343494, 1};
Point(p10 + 34) = {24.62683538808055, -3.031757523378417, 1};
Point(p10 + 35) = {24.72554961164851, -2.947447611648506, 1};
Point(p10 + 36) = {24.80985952337842, -2.848733388080554, 1};
Point(p10 + 37) = {24.87768913343494, -2.738045524472529, 1};
Point(p10 + 38) = {24.92736825170492, -2.618109523378417, 1};
Point(p10 + 39) = {24.95767361342099, -2.491878607189923, 1};
Spline(10) = {8, p10 + 1, p10 + 2, p10 + 3, p10 + 4, p10 + 5, p10 + 6, p10 + 7, p10 + 8, p10 + 9, p10 + 10, p10 + 11, p10 + 12, p10 + 13, p10 + 14, p10 + 15, p10 + 16, p10 + 17, p10 + 18, p10 + 19, p10 + 20, p10 + 21, p10 + 22, p10 + 23, p10 + 24, p10 + 25, p10 + 26, p10 + 27, p10 + 28, p10 + 29, p10 + 30, p10 + 31, p10 + 32, p10 + 33, p10 + 34, p10 + 35, p10 + 36, p10 + 37, p10 + 38, p10 + 39, 8};
p11 = newp;
Point(p11 + 1) = {20.08004447498823, 3.824553768765903, 1};
Point(p11 + 2) = {20.04005087490859, 3.991139101982725, 1};
Point(p11 + 3) = {19.97448997492618, 4.149417115881644, 1};
Point(p11 + 4) = {19.88497610198273, 4.295490480465858, 1};
Point(p11 + 5) = {19.7737133847096, 4.425762384709599, 1};
Point(p11 + 6) = {19.64344148046586, 4.537025101982725, 1};
Point(p11 + 7) = {19.49736811588165, 4.626538974926182, 1};
Point(p11 + 8) = {19.33909010198272, 4.692099874908592, 1};
Point(p11 + 9) = {19.1725047687659, 4.732093474988234, 1};
Point(p11 + 10) = {19.001714, 4.745535, 1};
Point(p11 + 11) = {18.8309232312341, 4.732093474988234, 1};
Point(p11 + 12) = {18.66433789801728, 4.692099874908592, 1};
Point(p11 + 13) = {18.50605988411835, 4.626538974926182, 1};
Point(p11 + 14) = {18.35998651953414, 4.537025101982725, 1};
Point(p11 + 15) = {18.2297146152904, 4.4257623847096, 1};
Point(p11 + 16) = {18.11845189801727, 4.295490480465858, 1};
Point(p11 + 17) = {18.02893802507382, 4.149417115881644, 1};
Point(p11 + 18) = {17.96337712509141, 3.991139101982725, 1};
Point(p11 + 19) = {17.92338352501177, 3.824553768765903, 1};
Point(p11 + 20) = {17.909942, 3.653763, 1};
Point(p11 + 21) = {17.92338352501177, 3.482972231234097, 1};
Point(p11 + 22) = {17.96337712509141, 3.316386898017275, 1};
Point(p11 + 23) = {18.02893802507382, 3.158108884118356, 1};
Point(p11 + 24) = {18.11845189801727, 3.012035519534142, 1};
Point(p11 + 25) = {18.2297146152904, 2.881763615290401, 1};
Point(p11 + 26) = {18.35998651953414, 2.770500898017275, 1};
Point(p11 + 27) = {18.50605988411835, 2.680987025073818, 1};
Point(p11 + 28) = {18.66433789801728, 2.615426125091408, 1};
Point(p11 + 29) = {18.8309232312341, 2.575432525011766, 1};
Point(p11 + 30) = {19.001714, 2.561991, 1};
Point(p11 + 31) = {19.1725047687659, 2.575432525011765, 1};
Point(p11 + 32) = {19.33909010198272, 2.615426125091408, 1};
Point(p11 + 33) = {19.49736811588165, 2.680987025073817, 1};
Point(p11 + 34) = {19.64344148046586, 2.770500898017275, 1};
Point(p11 + 35) = {19.7737133847096, 2.881763615290401, 1};
Point(p11 + 36) = {19.88497610198273, 3.012035519534142, 1};
Point(p11 + 37) = {19.97448997492618, 3.158108884118355, 1};
Point(p11 + 38) = {20.04005087490859, 3.316386898017275, 1};
Point(p11 + 39) = {20.08004447498823, 3.482972231234097, 1};
Spline(11) = {9, p11 + 1, p11 + 2, p11 + 3, p11 + 4, p11 + 5, p11 + 6, p11 + 7, p11 + 8, p11 + 9, p11 + 10, p11 + 11, p11 + 12, p11 + 13, p11 + 14, p11 + 15, p11 + 16, p11 + 17, p11 + 18, p11 + 19, p11 + 20, p11 + 21, p11 + 22, p11 + 23, p11 + 24, p11 + 25, p11 + 26, p11 + 27, p11 + 28, p11 + 29, p11 + 30, p11 + 31, p11 + 32, p11 + 33, p11 + 34, p11 + 35, p11 + 36, p11 + 37, p11 + 38, p11 + 39, 9};
Line(12) = {4, 10};
Line(13) = {10, 7};
Line(14) = {5, 10};
p15 = newp;
Point(p15 + 1) = {24.95767361342099, -2.233043392810077, 0};
Point(p15 + 2) = {24.92736825170492, -2.106812476621584, 0};
Point(p15 + 3) = {24.87768913343494, -1.986876475527472, 0};
Point(p15 + 4) = {24.80985952337842, -1.876188611919446, 0};
Point(p15 + 5) = {24.72554961164851, -1.777474388351494, 0};
Point(p15 + 6) = {24.62683538808055, -1.693164476621584, 0};
Point(p15 + 7) = {24.51614752447253, -1.62533486656506, 0};
Point(p15 + 8) = {24.39621152337842, -1.575655748295085, 0};
Point(p15 + 9) = {24.26998060718992, -1.545350386579005, 0};
Point(p15 + 10) = {24.140563, -1.535165, 0};
Point(p15 + 11) = {24.01114539281008, -1.545350386579005, 0};
Point(p15 + 12) = {23.88491447662159, -1.575655748295085, 0};
Point(p15 + 13) = {23.76497847552747, -1.62533486656506, 0};
Point(p15 + 14) = {23.65429061191945, -1.693164476621584, 0};
Point(p15 + 15) = {23.55557638835149, -1.777474388351494, 0};
Point(p15 + 16) = {23.47126647662158, -1.876188611919446, 0};
Point(p15 + 17) = {23.40343686656506, -1.986876475527472, 0};
Point(p15 + 18) = {23.35375774829508, -2.106812476621584, 0};
Point(p15 + 19) = {23.32345238657901, -2.233043392810077, 0};
Point(p15 + 20) = {23.313267, -2.362461, 0};
Point(p15 + 21) = {23.32345238657901, -2.491878607189923, 0};
Point(p15 + 22) = {23.35375774829508, -2.618109523378417, 0};
Point(p15 + 23) = {23.40343686656506, -2.738045524472528, 0};
Point(p15 + 24) = {23.47126647662158, -2.848733388080554, 0};
Point(p15 + 25) = {23.55557638835149, -2.947447611648506, 0};
Point(p15 + 26) = {23.65429061191945, -3.031757523378417, 0};
Point(p15 + 27) = {23.76497847552747, -3.09958713343494, 0};
Point(p15 + 28) = {23.88491447662159, -3.149266251704915, 0};
Point(p15 + 29) = {24.01114539281008, -3.179571613420995, 0};
Point(p15 + 30) = {24.140563, -3.189757, 0};
Point(p15 + 31) = {24.26998060718992, -3.179571613420995, 0};
Point(p15 + 32) = {24.39621152337842, -3.149266251704915, 0};
Point(p15 + 33) = {24.51614752447253, -3.09958713343494, 0};
Point(p15 + 34) = {24.62683538808055, -3.031757523378417, 0};
Point(p15 + 35) = {24.72554961164851, -2.947447611648506, 0};
Point(p15 + 36) = {24.80985952337842, -2.848733388080554, 0};
Point(p15 + 37) = {24.87768913343494, -2.738045524472529, 0};
Point(p15 + 38) = {24.92736825170492, -2.618109523378417, 0};
Point(p15 + 39) = {24.95767361342099, -2.491878607189923, 0};
Spline(15) = {11, p15 + 1, p15 + 2, p15 + 3, p15 + 4, p15 + 5, p15 + 6, p15 + 7, p15 + 8, p15 + 9, p15 + 10, p15 + 11, p15 + 12, p15 + 13, p15 + 14, p15 + 15, p15 + 16, p15 + 17, p15 + 18, p15 + 19, p15 + 20, p15 + 21, p15 + 22, p15 + 23, p15 + 24, p15 + 25, p15 + 26, p15 + 27, p15 + 28, p15 + 29, p15 + 30, p15 + 31, p15 + 32, p15 + 33, p15 + 34, p15 + 35, p15 + 36, p15 + 37, p15 + 38, p15 + 39, 11};
p16 = newp;
Point(p16 + 1) = {20.08004447498823, 3.824553768765903, 0};
Point(p16 + 2) = {20.04005087490859, 3.991139101982725, 0};
Point(p16 + 3) = {19.97448997492618, 4.149417115881644, 0};
Point(p16 + 4) = {19.88497610198273, 4.295490480465858, 0};
Point(p16 + 5) = {19.7737133847096, 4.425762384709599, 0};
Point(p16 + 6) = {19.64344148046586, 4.537025101982725, 0};
Point(p16 + 7) = {19.49736811588165, 4.626538974926182, 0};
Point(p16 + 8) = {19.33909010198272, 4.692099874908592, 0};
Point(p16 + 9) = {19.1725047687659, 4.732093474988234, 0};
Point(p16 + 10) = {19.001714, 4.745535, 0};
Point(p16 + 11) = {18.8309232312341, 4.732093474988234, 0};
Point(p16 + 12) = {18.66433789801728, 4.692099874908592, 0};
Point(p16 + 13) = {18.50605988411835, 4.626538974926182, 0};
Point(p16 + 14) = {18.35998651953414, 4.537025101982725, 0};
Point(p16 + 15) = {18.2297146152904, 4.4257623847096, 0};
Point(p16 + 16) = {18.11845189801727, 4.295490480465858, 0};
Point(p16 + 17) = {18.02893802507382, 4.149417115881644, 0};
Point(p16 + 18) = {17.96337712509141, 3.991139101982725, 0};
Point(p16 + 19) = {17.92338352501177, 3.824553768765903, 0};
Point(p16 + 20) = {17.909942, 3.653763, 0};
Point(p16 + 21) = {17.92338352501177, 3.482972231234097, 0};
Point(p16 + 22) = {17.96337712509141, 3.316386898017275, 0};
Point(p16 + 23) = {18.02893802507382, 3.158108884118356, 0};
Point(p16 + 24) = {18.11845189801727, 3.012035519534142, 0};
Point(p16 + 25) = {18.2297146152904, 2.881763615290401, 0};
Point(p16 + 26) = {18.35998651953414, 2.770500898017275, 0};
Point(p16 + 27) = {18.50605988411835, 2.680987025073818, 0};
Point(p16 + 28) = {18.66433789801728, 2.615426125091408, 0};
Point(p16 + 29) = {18.8309232312341, 2.575432525011766, 0};
Point(p16 + 30) = {19.001714, 2.561991, 0};
Point(p16 + 31) = {19.1725047687659, 2.575432525011765, 0};
Point(p16 + 32) = {19.33909010198272, 2.615426125091408, 0};
Point(p16 + 33) = {19.49736811588165, 2.680987025073817, 0};
Point(p16 + 34) = {19.64344148046586, 2.770500898017275, 0};
Point(p16 + 35) = {19.7737133847096, 2.881763615290401, 0};
Point(p16 + 36) = {19.88497610198273, 3.012035519534142, 0};
Point(p16 + 37) = {19.97448997492618, 3.158108884118355, 0};
Point(p16 + 38) = {20.04005087490859, 3.316386898017275, 0};
Point(p16 + 39) = {20.08004447498823, 3.482972231234097, 0};
Spline(16) = {12, p16 + 1, p16 + 2, p16 + 3, p16 + 4, p16 + 5, p16 + 6, p16 + 7, p16 + 8, p16 + 9, p16 + 10, p16 + 11, p16 + 12, p16 + 13, p16 + 14, p16 + 15, p16 + 16, p16 + 17, p16 + 18, p16 + 19, p16 + 20, p16 + 21, p16 + 22, p16 + 23, p16 + 24, p16 + 25, p16 + 26, p16 + 27, p16 + 28, p16 + 29, p16 + 30, p16 + 31, p16 + 32, p16 + 33, p16 + 34, p16 + 35, p16 + 36, p16 + 37, p16 + 38, p16 + 39, 12};
Line(17) = {11, 8};
Line(18) = {12, 9};
Curve Loop(1) = {-1, 4, 3, -2};
Plane Surface(1) = {1};
Curve Loop(2) = {-5, 1, 7, -6};
Plane Surface(2) = {2};
Curve Loop(3) = {-2, 7, 9, -8, -10, -11};
Plane Surface(3) = {3};
Curve Loop(4) = {-12, 3, 8, -13};
Plane Surface(4) = {4};
Curve Loop(5) = {-4, 5, 14, -12, -15, -16};
Plane Surface(5) = {5};
Curve Loop(6) = {-6, 14, 13, -9};
Plane Surface(6) = {6};
Curve Loop(7) = {-10, -17, 15, 17};
Surface(7) = {7};
Curve Loop(8) = {-11, -18, 16, 18};
Surface(8) = {8};
Surface Loop(1) = {1, 2, 3, 4, 5, 6, 7, 8};
Volume(1) = {1};
Physical Surface("INFLOW") = {1};
Physical Surface("OUTFLOW") = {6};
Physical Surface("OBSTACLE") = {7, 8};
Physical Surface("WALL_Y") = {2, 4};
Physical Surface("WALL_Z") = {3, 5};
Physical Volume("FLUID") = {1};
