cl__1 = 3.373789;
cl__2 = 0.906755;
cl__3 = 1.044817;
cl__4 = 0.144519;
Point(1) = {0.491726, -4.075393, 1, cl__1};
Point(2) = {0.491726, -4.075393, 0, cl__1};
Point(3) = {0.491726, 4.257878, 1, cl__1};
Point(4) = {0.491726, 4.257878, 0, cl__1};
Point(5) = {33.479611, -4.075393, 0, cl__2};
Point(6) = {33.479611, -4.075393, 1, cl__2};
Point(7) = {33.479611, 4.257878, 1, cl__3};
Point(8) = {24.669118, -1.764839, 1, cl__4};
Point(9) = {33.479611, 4.257878, 0, cl__3};
Point(10) = {24.669118, -1.764839, 0, cl__4};
Line(1) = {2, 1};
Line(2) = {1, 3};
Line(3) = {4, 3};
Line(4) = {2, 4};
Line(5) = {2, 5};
Line(6) = {5, 6};
Line(7) = {1, 6};
Line(8) = {3, 7};
Line(9) = {6, 7};
p10 = newp;
Point(p10 + 1) = {24.65132526369805, -1.538760849730649, 1};
Point(p10 + 2) = {24.59838517101066, -1.318249493831292, 1};
Point(p10 + 3) = {24.51160128271788, -1.108734653719405, 1};
Point(p10 + 4) = {24.39311050616871, -0.9153752800984316, 1};
Point(p10 + 5) = {24.24583047753011, -0.7429325224698886, 1};
Point(p10 + 6) = {24.07338771990157, -0.5956524938312922, 1};
Point(p10 + 7) = {23.8800283462806, -0.4771617172821159, 1};
Point(p10 + 8) = {23.67051350616871, -0.3903778289893418, 1};
Point(p10 + 9) = {23.45000215026935, -0.3374377363019505, 1};
Point(p10 + 10) = {23.223924, -0.319645, 1};
Point(p10 + 11) = {22.99784584973065, -0.3374377363019505, 1};
Point(p10 + 12) = {22.77733449383129, -0.3903778289893416, 1};
Point(p10 + 13) = {22.5678196537194, -0.4771617172821159, 1};
Point(p10 + 14) = {22.37446028009843, -0.5956524938312922, 1};
Point(p10 + 15) = {22.20201752246989, -0.7429325224698886, 1};
Point(p10 + 16) = {22.05473749383129, -0.9153752800984314, 1};
Point(p10 + 17) = {21.93624671728212, -1.108734653719405, 1};
Point(p10 + 18) = {21.84946282898934, -1.318249493831292, 1};
Point(p10 + 19) = {21.79652273630195, -1.538760849730648, 1};
Point(p10 + 20) = {21.77873, -1.764839, 1};
Point(p10 + 21) = {21.79652273630195, -1.990917150269351, 1};
Point(p10 + 22) = {21.84946282898934, -2.211428506168708, 1};
Point(p10 + 23) = {21.93624671728212, -2.420943346280594, 1};
Point(p10 + 24) = {22.05473749383129, -2.614302719901568, 1};
Point(p10 + 25) = {22.20201752246989, -2.786745477530111, 1};
Point(p10 + 26) = {22.37446028009843, -2.934025506168708, 1};
Point(p10 + 27) = {22.5678196537194, -3.052516282717884, 1};
Point(p10 + 28) = {22.77733449383129, -3.139300171010659, 1};
Point(p10 + 29) = {22.99784584973065, -3.19224026369805, 1};
Point(p10 + 30) = {23.223924, -3.210033, 1};
Point(p10 + 31) = {23.45000215026935, -3.19224026369805, 1};
Point(p10 + 32) = {23.67051350616871, -3.139300171010659, 1};
Point(p10 + 33) = {23.8800283462806, -3.052516282717884, 1};
Point(p10 + 34) = {24.07338771990157, -2.934025506168708, 1};
Point(p10 + 35) = {24.24583047753011, -2.786745477530112, 1};
Point(p10 + 36) = {24.39311050616871, -2.614302719901569, 1};
Point(p10 + 37) = {24.51160128271788, -2.420943346280595, 1};
Point(p10 + 38) = {24.59838517101066, -2.211428506168708, 1};
Point(p10 + 39) = {24.65132526369805, -1.990917150269352, 1};
Spline(10) = {8, p10 + 1, p10 + 2, p10 + 3, p10 + 4, p10 + 5, p10 + 6, p10 + 7, p10 + 8, p10 + 9, p10 + 10, p10 + 11, p10 + 12, p10 + 13, p10 + 14, p10 + 15, p10 + 16, p10 + 17, p10 + 18, p10 + 19, p10 + 20, p10 + 21, p10 + 22, p10 + 23, p10 + 24, p10 + 25, p10 + 26, p10 + 27, p10 + 28, p10 + 29, p10 + 30, p10 + 31, p10 + 32, p10 + 33, p10 + 34, p10 + 35, p10 + 36, p10 + 37, p10 + 38, p10 + 39, 8};
Line(11) = {4, 9};
Line(12) = {9, 7};
Line(13) = {5, 9};
p14 = newp;
Point(p14 + 1) = {24.65132526369805, -1.538760849730649, 0};
Point(p14 + 2) = {24.59838517101066, -1.318249493831292, 0};
Point(p14 + 3) = {24.51160128271788, -1.108734653719405, 0};
Point(p14 + 4) = {24.39311050616871, -0.9153752800984316, 0};
Point(p14 + 5) = {24.24583047753011, -0.7429325224698886, 0};
Point(p14 + 6) = {24.07338771990157, -0.5956524938312922, 0};
Point(p14 + 7) = {23.8800283462806, -0.4771617172821159, 0};
Point(p14 + 8) = {23.67051350616871, -0.3903778289893418, 0};
Point(p14 + 9) = {23.45000215026935, -0.3374377363019505, 0};
Point(p14 + 10) = {23.223924, -0.319645, 0};
Point(p14 + 11) = {22.99784584973065, -0.3374377363019505, 0};
Point(p14 + 12) = {22.77733449383129, -0.3903778289893416, 0};
Point(p14 + 13) = {22.5678196537194, -0.4771617172821159, 0};
Point(p14 + 14) = {22.37446028009843, -0.5956524938312922, 0};
Point(p14 + 15) = {22.20201752246989, -0.7429325224698886, 0};
Point(p14 + 16) = {22.05473749383129, -0.9153752800984314, 0};
Point(p14 + 17) = {21.93624671728212, -1.108734653719405, 0};
Point(p14 + 18) = {21.84946282898934, -1.318249493831292, 0};
Point(p14 + 19) = {21.79652273630195, -1.538760849730648, 0};
Point(p14 + 20) = {21.77873, -1.764839, 0};
Point(p14 + 21) = {21.79652273630195, -1.990917150269351, 0};
Point(p14 + 22) = {21.84946282898934, -2.211428506168708, 0};
Point(p14 + 23) = {21.93624671728212, -2.420943346280594, 0};
Point(p14 + 24) = {22.05473749383129, -2.614302719901568, 0};
Point(p14 + 25) = {22.20201752246989, -2.786745477530111, 0};
Point(p14 + 26) = {22.37446028009843, -2.934025506168708, 0};
Point(p14 + 27) = {22.5678196537194, -3.052516282717884, 0};
Point(p14 + 28) = {22.77733449383129, -3.139300171010659, 0};
Point(p14 + 29) = {22.99784584973065, -3.19224026369805, 0};
Point(p14 + 30) = {23.223924, -3.210033, 0};
Point(p14 + 31) = {23.45000215026935, -3.19224026369805, 0};
Point(p14 + 32) = {23.67051350616871, -3.139300171010659, 0};
Point(p14 + 33) = {23.8800283462806, -3.052516282717884, 0};
Point(p14 + 34) = {24.07338771990157, -2.934025506168708, 0};
Point(p14 + 35) = {24.24583047753011, -2.786745477530112, 0};
Point(p14 + 36) = {24.39311050616871, -2.614302719901569, 0};
Point(p14 + 37) = {24.51160128271788, -2.420943346280595, 0};
Point(p14 + 38) = {24.59838517101066, -2.211428506168708, 0};
Point(p14 + 39) = {24.65132526369805, -1.990917150269352, 0};
Spline(14) = {10, p14 + 1, p14 + 2, p14 + 3, p14 + 4, p14 + 5, p14 + 6, p14 + 7, p14 + 8, p14 + 9, p14 + 10, p14 + 11, p14 + 12, p14 + 13, p14 + 14, p14 + 15, p14 + 16, p14 + 17, p14 + 18, p14 + 19, p14 + 20, p14 + 21, p14 + 22, p14 + 23, p14 + 24, p14 + 25, p14 + 26, p14 + 27, p14 + 28, p14 + 29, p14 + 30, p14 + 31, p14 + 32, p14 + 33, p14 + 34, p14 + 35, p14 + 36, p14 + 37, p14 + 38, p14 + 39, 10};
Line(15) = {10, 8};
Curve Loop(1) = {-1, 4, 3, -2};
Plane Surface(1) = {1};
Curve Loop(2) = {-5, 1, 7, -6};
Plane Surface(2) = {2};
Curve Loop(3) = {-2, 7, 9, -8, -10};
Plane Surface(3) = {3};
Curve Loop(4) = {-11, 3, 8, -12};
Plane Surface(4) = {4};
Curve Loop(5) = {-4, 5, 13, -11, -14};
Plane Surface(5) = {5};
Curve Loop(6) = {-6, 13, 12, -9};
Plane Surface(6) = {6};
Curve Loop(7) = {-10, -15, 14, 15};
Surface(7) = {7};
Surface Loop(1) = {1, 2, 3, 4, 5, 6, 7};
Volume(1) = {1};
Physical Surface("INFLOW") = {1};
Physical Surface("OUTFLOW") = {6};
Physical Surface("OBSTACLE") = {7};
Physical Surface("WALL_Y") = {2, 4};
Physical Surface("WALL_Z") = {3, 5};
Physical Volume("FLUID") = {1};
