cl__1 = 0.934049;
cl__2 = 1.046777;
cl__3 = 3.85815;
cl__4 = 0.102746;
Point(1) = {0.808624, -3.740786, 1, cl__1};
Point(2) = {0.808624, -3.740786, 0, cl__1};
Point(3) = {0.808624, 4.678815999999999, 1, cl__2};
Point(4) = {0.808624, 4.678815999999999, 0, cl__2};
Point(5) = {38.351134, -3.740786, 0, cl__3};
Point(6) = {38.351134, -3.740786, 1, cl__3};
Point(7) = {38.351134, 4.678815999999999, 1, cl__3};
Point(8) = {11.833725, -0.9945870000000002, 1, cl__4};
Point(9) = {38.351134, 4.678815999999999, 0, cl__3};
Point(10) = {11.833725, -0.9945870000000002, 0, cl__4};
Line(1) = {2, 1};
Line(2) = {1, 3};
Line(3) = {4, 3};
Line(4) = {2, 4};
Line(5) = {2, 5};
Line(6) = {5, 6};
Line(7) = {1, 6};
Line(8) = {3, 7};
Line(9) = {6, 7};
p10 = newp;
Point(p10 + 1) = {11.82107526242788, -0.8338568445497644, 1};
Point(p10 + 2) = {11.78343752823262, -0.6770843989595166, 1};
Point(p10 + 3) = {11.72173856334258, -0.5281299211376053, 1};
Point(p10 + 4) = {11.63749760104048, -0.3906611646795756, 1};
Point(p10 + 5) = {11.53278893339793, -0.2680630666020699, 1};
Point(p10 + 6) = {11.41019083532042, -0.1633543989595164, 1};
Point(p10 + 7) = {11.27272207886239, -0.07911343665741954, 1};
Point(p10 + 8) = {11.12376760104048, -0.01741447176738153, 1};
Point(p10 + 9) = {10.96699515545023, 0.02022326242788031, 1};
Point(p10 + 10) = {10.806265, 0.03287300000000004, 1};
Point(p10 + 11) = {10.64553484454976, 0.02022326242788008, 1};
Point(p10 + 12) = {10.48876239895952, -0.01741447176738142, 1};
Point(p10 + 13) = {10.33980792113761, -0.07911343665741943, 1};
Point(p10 + 14) = {10.20233916467958, -0.1633543989595164, 1};
Point(p10 + 15) = {10.07974106660207, -0.2680630666020698, 1};
Point(p10 + 16) = {9.975032398959517, -0.3906611646795755, 1};
Point(p10 + 17) = {9.89079143665742, -0.5281299211376052, 1};
Point(p10 + 18) = {9.829092471767382, -0.6770843989595164, 1};
Point(p10 + 19) = {9.791454737572121, -0.8338568445497643, 1};
Point(p10 + 20) = {9.778805, -0.9945869999999999, 1};
Point(p10 + 21) = {9.791454737572119, -1.155317155450236, 1};
Point(p10 + 22) = {9.829092471767382, -1.312089601040484, 1};
Point(p10 + 23) = {9.89079143665742, -1.461044078862394, 1};
Point(p10 + 24) = {9.975032398959517, -1.598512835320424, 1};
Point(p10 + 25) = {10.07974106660207, -1.72111093339793, 1};
Point(p10 + 26) = {10.20233916467958, -1.825819601040483, 1};
Point(p10 + 27) = {10.33980792113761, -1.91006056334258, 1};
Point(p10 + 28) = {10.48876239895952, -1.971759528232619, 1};
Point(p10 + 29) = {10.64553484454976, -2.00939726242788, 1};
Point(p10 + 30) = {10.806265, -2.022047, 1};
Point(p10 + 31) = {10.96699515545023, -2.00939726242788, 1};
Point(p10 + 32) = {11.12376760104048, -1.971759528232619, 1};
Point(p10 + 33) = {11.27272207886239, -1.910060563342581, 1};
Point(p10 + 34) = {11.41019083532042, -1.825819601040484, 1};
Point(p10 + 35) = {11.53278893339793, -1.72111093339793, 1};
Point(p10 + 36) = {11.63749760104048, -1.598512835320425, 1};
Point(p10 + 37) = {11.72173856334258, -1.461044078862395, 1};
Point(p10 + 38) = {11.78343752823262, -1.312089601040484, 1};
Point(p10 + 39) = {11.82107526242788, -1.155317155450236, 1};
Spline(10) = {8, p10 + 1, p10 + 2, p10 + 3, p10 + 4, p10 + 5, p10 + 6, p10 + 7, p10 + 8, p10 + 9, p10 + 10, p10 + 11, p10 + 12, p10 + 13, p10 + 14, p10 + 15, p10 + 16, p10 + 17, p10 + 18, p10 + 19, p10 + 20, p10 + 21, p10 + 22, p10 + 23, p10 + 24, p10 + 25, p10 + 26, p10 + 27, p10 + 28, p10 + 29, p10 + 30, p10 + 31, p10 + 32, p10 + 33, p10 + 34, p10 + 35, p10 + 36, p10 + 37, p10 + 38, p10 + 39, 8};
Line(11) = {4, 9};
Line(12) = {9, 7};
Line(13) = {5, 9};
p14 = newp;
Point(p14 + 1) = {11.82107526242788, -0.8338568445497644, 0};
Point(p14 + 2) = {11.78343752823262, -0.6770843989595166, 0};
Point(p14 + 3) = {11.72173856334258, -0.5281299211376053, 0};
Point(p14 + 4) = {11.63749760104048, -0.3906611646795756, 0};
Point(p14 + 5) = {11.53278893339793, -0.2680630666020699, 0};
Point(p14 + 6) = {11.41019083532042, -0.1633543989595164, 0};
Point(p14 + 7) = {11.27272207886239, -0.07911343665741954, 0};
Point(p14 + 8) = {11.12376760104048, -0.01741447176738153, 0};
Point(p14 + 9) = {10.96699515545023, 0.02022326242788031, 0};
Point(p14 + 10) = {10.806265, 0.03287300000000004, 0};
Point(p14 + 11) = {10.64553484454976, 0.02022326242788008, 0};
Point(p14 + 12) = {10.48876239895952, -0.01741447176738142, 0};
Point(p14 + 13) = {10.33980792113761, -0.07911343665741943, 0};
Point(p14 + 14) = {10.20233916467958, -0.1633543989595164, 0};
Point(p14 + 15) = {10.07974106660207, -0.2680630666020698, 0};
Point(p14 + 16) = {9.975032398959517, -0.3906611646795755, 0};
Point(p14 + 17) = {9.89079143665742, -0.5281299211376052, 0};
Point(p14 + 18) = {9.829092471767382, -0.6770843989595164, 0};
Point(p14 + 19) = {9.791454737572121, -0.8338568445497643, 0};
Point(p14 + 20) = {9.778805, -0.9945869999999999, 0};
Point(p14 + 21) = {9.791454737572119, -1.155317155450236, 0};
Point(p14 + 22) = {9.829092471767382, -1.312089601040484, 0};
Point(p14 + 23) = {9.89079143665742, -1.461044078862394, 0};
Point(p14 + 24) = {9.975032398959517, -1.598512835320424, 0};
Point(p14 + 25) = {10.07974106660207, -1.72111093339793, 0};
Point(p14 + 26) = {10.20233916467958, -1.825819601040483, 0};
Point(p14 + 27) = {10.33980792113761, -1.91006056334258, 0};
Point(p14 + 28) = {10.48876239895952, -1.971759528232619, 0};
Point(p14 + 29) = {10.64553484454976, -2.00939726242788, 0};
Point(p14 + 30) = {10.806265, -2.022047, 0};
Point(p14 + 31) = {10.96699515545023, -2.00939726242788, 0};
Point(p14 + 32) = {11.12376760104048, -1.971759528232619, 0};
Point(p14 + 33) = {11.27272207886239, -1.910060563342581, 0};
Point(p14 + 34) = {11.41019083532042, -1.825819601040484, 0};
Point(p14 + 35) = {11.53278893339793, -1.72111093339793, 0};
Point(p14 + 36) = {11.63749760104048, -1.598512835320425, 0};
Point(p14 + 37) = {11.72173856334258, -1.461044078862395, 0};
Point(p14 + 38) = {11.78343752823262, -1.312089601040484, 0};
Point(p14 + 39) = {11.82107526242788, -1.155317155450236, 0};
Spline(14) = {10, p14 + 1, p14 + 2, p14 + 3, p14 + 4, p14 + 5, p14 + 6, p14 + 7, p14 + 8, p14 + 9, p14 + 10, p14 + 11, p14 + 12, p14 + 13, p14 + 14, p14 + 15, p14 + 16, p14 + 17, p14 + 18, p14 + 19, p14 + 20, p14 + 21, p14 + 22, p14 + 23, p14 + 24, p14 + 25, p14 + 26, p14 + 27, p14 + 28, p14 + 29, p14 + 30, p14 + 31, p14 + 32, p14 + 33, p14 + 34, p14 + 35, p14 + 36, p14 + 37, p14 + 38, p14 + 39, 10};
Line(15) = {10, 8};
Curve Loop(1) = {-1, 4, 3, -2};
Plane Surface(1) = {1};
Curve Loop(2) = {-5, 1, 7, -6};
Plane Surface(2) = {2};
Curve Loop(3) = {-2, 7, 9, -8, -10};
Plane Surface(3) = {3};
Curve Loop(4) = {-11, 3, 8, -12};
Plane Surface(4) = {4};
Curve Loop(5) = {-4, 5, 13, -11, -14};
Plane Surface(5) = {5};
Curve Loop(6) = {-6, 13, 12, -9};
Plane Surface(6) = {6};
Curve Loop(7) = {-10, -15, 14, 15};
Surface(7) = {7};
Surface Loop(1) = {1, 2, 3, 4, 5, 6, 7};
Volume(1) = {1};
Physical Surface("INFLOW") = {1};
Physical Surface("OUTFLOW") = {6};
Physical Surface("OBSTACLE") = {7};
Physical Surface("WALL_Y") = {2, 4};
Physical Surface("WALL_Z") = {3, 5};
Physical Volume("FLUID") = {1};
