cl__1 = 3.449102;
cl__2 = 0.315278;
cl__3 = 0.455056;
cl__4 = 0.072654;
Point(1) = {0.526393, -3.55626, 1, cl__1};
Point(2) = {0.526393, -3.55626, 0, cl__1};
Point(3) = {0.526393, 4.84831, 1, cl__1};
Point(4) = {0.526393, 4.84831, 0, cl__1};
Point(5) = {34.234063, -3.55626, 0, cl__2};
Point(6) = {34.234063, -3.55626, 1, cl__2};
Point(7) = {34.234063, 4.84831, 1, cl__3};
Point(8) = {33.169079, -0.1153870000000002, 1, cl__4};
Point(9) = {34.234063, 4.84831, 0, cl__3};
Point(10) = {33.169079, -0.1153870000000002, 0, cl__4};
Line(1) = {2, 1};
Line(2) = {1, 3};
Line(3) = {4, 3};
Line(4) = {2, 4};
Line(5) = {2, 5};
Line(6) = {5, 6};
Line(7) = {1, 6};
Line(8) = {3, 7};
Line(9) = {6, 7};
p10 = newp;
Point(p10 + 1) = {33.16013405004101, -0.001730634466275541, 1};
Point(p10 + 2) = {33.13351945451863, 0.1091271341441574, 1};
Point(p10 + 3) = {33.08989055310339, 0.2144566196522695, 1};
Point(p10 + 4) = {33.03032163414415, 0.3116642605563303, 1};
Point(p10 + 5) = {32.95627948212361, 0.3983564821236177, 1};
Point(p10 + 6) = {32.86958726055633, 0.4723986341441575, 1};
Point(p10 + 7) = {32.77237961965227, 0.5319675531033893, 1};
Point(p10 + 8) = {32.66705013414416, 0.5755964545186297, 1};
Point(p10 + 9) = {32.55619236553372, 0.6022110500410132, 1};
Point(p10 + 10) = {32.442536, 0.611156, 1};
Point(p10 + 11) = {32.32887963446628, 0.6022110500410132, 1};
Point(p10 + 12) = {32.21802186585584, 0.5755964545186298, 1};
Point(p10 + 13) = {32.11269238034772, 0.5319675531033894, 1};
Point(p10 + 14) = {32.01548473944366, 0.4723986341441575, 1};
Point(p10 + 15) = {31.92879251787638, 0.3983564821236178, 1};
Point(p10 + 16) = {31.85475036585584, 0.3116642605563304, 1};
Point(p10 + 17) = {31.79518144689661, 0.2144566196522696, 1};
Point(p10 + 18) = {31.75155254548137, 0.1091271341441575, 1};
Point(p10 + 19) = {31.72493794995898, -0.001730634466275457, 1};
Point(p10 + 20) = {31.715993, -0.1153869999999999, 1};
Point(p10 + 21) = {31.72493794995898, -0.2290433655337244, 1};
Point(p10 + 22) = {31.75155254548137, -0.3399011341441577, 1};
Point(p10 + 23) = {31.79518144689661, -0.4452306196522692, 1};
Point(p10 + 24) = {31.85475036585584, -0.5424382605563303, 1};
Point(p10 + 25) = {31.92879251787638, -0.6291304821236178, 1};
Point(p10 + 26) = {32.01548473944366, -0.7031726341441574, 1};
Point(p10 + 27) = {32.11269238034772, -0.7627415531033893, 1};
Point(p10 + 28) = {32.21802186585584, -0.8063704545186298, 1};
Point(p10 + 29) = {32.32887963446628, -0.8329850500410132, 1};
Point(p10 + 30) = {32.442536, -0.8419300000000001, 1};
Point(p10 + 31) = {32.55619236553372, -0.8329850500410132, 1};
Point(p10 + 32) = {32.66705013414416, -0.8063704545186299, 1};
Point(p10 + 33) = {32.77237961965227, -0.7627415531033894, 1};
Point(p10 + 34) = {32.86958726055633, -0.7031726341441575, 1};
Point(p10 + 35) = {32.95627948212361, -0.629130482123618, 1};
Point(p10 + 36) = {33.03032163414415, -0.5424382605563305, 1};
Point(p10 + 37) = {33.08989055310339, -0.4452306196522697, 1};
Point(p10 + 38) = {33.13351945451863, -0.3399011341441576, 1};
Point(p10 + 39) = {33.16013405004101, -0.2290433655337246, 1};
Spline(10) = {8, p10 + 1, p10 + 2, p10 + 3, p10 + 4, p10 + 5, p10 + 6, p10 + 7, p10 + 8, p10 + 9, p10 + 10, p10 + 11, p10 + 12, p10 + 13, p10 + 14, p10 + 15, p10 + 16, p10 + 17, p10 + 18, p10 + 19, p10 + 20, p10 + 21, p10 + 22, p10 + 23, p10 + 24, p10 + 25, p10 + 26, p10 + 27, p10 + 28, p10 + 29, p10 + 30, p10 + 31, p10 + 32, p10 + 33, p10 + 34, p10 + 35, p10 + 36, p10 + 37, p10 + 38, p10 + 39, 8};
Line(11) = {4, 9};
Line(12) = {9, 7};
Line(13) = {5, 9};
p14 = newp;
Point(p14 + 1) = {33.16013405004101, -0.001730634466275541, 0};
Point(p14 + 2) = {33.13351945451863, 0.1091271341441574, 0};
Point(p14 + 3) = {33.08989055310339, 0.2144566196522695, 0};
Point(p14 + 4) = {33.03032163414415, 0.3116642605563303, 0};
Point(p14 + 5) = {32.95627948212361, 0.3983564821236177, 0};
Point(p14 + 6) = {32.86958726055633, 0.4723986341441575, 0};
Point(p14 + 7) = {32.77237961965227, 0.5319675531033893, 0};
Point(p14 + 8) = {32.66705013414416, 0.5755964545186297, 0};
Point(p14 + 9) = {32.55619236553372, 0.6022110500410132, 0};
Point(p14 + 10) = {32.442536, 0.611156, 0};
Point(p14 + 11) = {32.32887963446628, 0.6022110500410132, 0};
Point(p14 + 12) = {32.21802186585584, 0.5755964545186298, 0};
Point(p14 + 13) = {32.11269238034772, 0.5319675531033894, 0};
Point(p14 + 14) = {32.01548473944366, 0.4723986341441575, 0};
Point(p14 + 15) = {31.92879251787638, 0.3983564821236178, 0};
Point(p14 + 16) = {31.85475036585584, 0.3116642605563304, 0};
Point(p14 + 17) = {31.79518144689661, 0.2144566196522696, 0};
Point(p14 + 18) = {31.75155254548137, 0.1091271341441575, 0};
Point(p14 + 19) = {31.72493794995898, -0.001730634466275457, 0};
Point(p14 + 20) = {31.715993, -0.1153869999999999, 0};
Point(p14 + 21) = {31.72493794995898, -0.2290433655337244, 0};
Point(p14 + 22) = {31.75155254548137, -0.3399011341441577, 0};
Point(p14 + 23) = {31.79518144689661, -0.4452306196522692, 0};
Point(p14 + 24) = {31.85475036585584, -0.5424382605563303, 0};
Point(p14 + 25) = {31.92879251787638, -0.6291304821236178, 0};
Point(p14 + 26) = {32.01548473944366, -0.7031726341441574, 0};
Point(p14 + 27) = {32.11269238034772, -0.7627415531033893, 0};
Point(p14 + 28) = {32.21802186585584, -0.8063704545186298, 0};
Point(p14 + 29) = {32.32887963446628, -0.8329850500410132, 0};
Point(p14 + 30) = {32.442536, -0.8419300000000001, 0};
Point(p14 + 31) = {32.55619236553372, -0.8329850500410132, 0};
Point(p14 + 32) = {32.66705013414416, -0.8063704545186299, 0};
Point(p14 + 33) = {32.77237961965227, -0.7627415531033894, 0};
Point(p14 + 34) = {32.86958726055633, -0.7031726341441575, 0};
Point(p14 + 35) = {32.95627948212361, -0.629130482123618, 0};
Point(p14 + 36) = {33.03032163414415, -0.5424382605563305, 0};
Point(p14 + 37) = {33.08989055310339, -0.4452306196522697, 0};
Point(p14 + 38) = {33.13351945451863, -0.3399011341441576, 0};
Point(p14 + 39) = {33.16013405004101, -0.2290433655337246, 0};
Spline(14) = {10, p14 + 1, p14 + 2, p14 + 3, p14 + 4, p14 + 5, p14 + 6, p14 + 7, p14 + 8, p14 + 9, p14 + 10, p14 + 11, p14 + 12, p14 + 13, p14 + 14, p14 + 15, p14 + 16, p14 + 17, p14 + 18, p14 + 19, p14 + 20, p14 + 21, p14 + 22, p14 + 23, p14 + 24, p14 + 25, p14 + 26, p14 + 27, p14 + 28, p14 + 29, p14 + 30, p14 + 31, p14 + 32, p14 + 33, p14 + 34, p14 + 35, p14 + 36, p14 + 37, p14 + 38, p14 + 39, 10};
Line(15) = {10, 8};
Curve Loop(1) = {-1, 4, 3, -2};
Plane Surface(1) = {1};
Curve Loop(2) = {-5, 1, 7, -6};
Plane Surface(2) = {2};
Curve Loop(3) = {-2, 7, 9, -8, -10};
Plane Surface(3) = {3};
Curve Loop(4) = {-11, 3, 8, -12};
Plane Surface(4) = {4};
Curve Loop(5) = {-4, 5, 13, -11, -14};
Plane Surface(5) = {5};
Curve Loop(6) = {-6, 13, 12, -9};
Plane Surface(6) = {6};
Curve Loop(7) = {-10, -15, 14, 15};
Surface(7) = {7};
Surface Loop(1) = {1, 2, 3, 4, 5, 6, 7};
Volume(1) = {1};
Physical Surface("INFLOW") = {1};
Physical Surface("OUTFLOW") = {6};
Physical Surface("OBSTACLE") = {7};
Physical Surface("WALL_Y") = {2, 4};
Physical Surface("WALL_Z") = {3, 5};
Physical Volume("FLUID") = {1};
