cl__1 = 1.249096;
cl__2 = 1.103498;
cl__3 = 3.826776;
cl__4 = 0.107588;
cl__5 = 0.135951;
Point(1) = {0.332217, -3.541735, 1, cl__1};
Point(2) = {0.332217, -3.541735, 0, cl__1};
Point(3) = {0.332217, 4.782119000000001, 1, cl__2};
Point(4) = {0.332217, 4.782119000000001, 0, cl__2};
Point(5) = {38.040764, -3.541735, 0, cl__1};
Point(6) = {38.040764, -3.541735, 1, cl__1};
Point(7) = {38.040764, 4.782119000000001, 1, cl__3};
Point(8) = {27.512604, -0.07485400000000027, 1, cl__4};
Point(9) = {14.09313, 2.625972, 1, cl__5};
Point(10) = {38.040764, 4.782119000000001, 0, cl__3};
Point(11) = {27.512604, -0.07485400000000027, 0, cl__4};
Point(12) = {14.09313, 2.625972, 0, cl__5};
Line(1) = {2, 1};
Line(2) = {1, 3};
Line(3) = {4, 3};
Line(4) = {2, 4};
Line(5) = {2, 5};
Line(6) = {5, 6};
Line(7) = {1, 6};
Line(8) = {3, 7};
Line(9) = {6, 7};
p10 = newp;
Point(p10 + 1) = {27.49935814419116, 0.09345055581301856, 1};
Point(p10 + 2) = {27.45994673369511, 0.257610894891124, 1};
Point(p10 + 3) = {27.39534020823726, 0.4135848448692838, 1};
Point(p10 + 4) = {27.30712939489112, 0.5575318094511738, 1};
Point(p10 + 5) = {27.1974863366362, 0.6859073366362015, 1};
Point(p10 + 6) = {27.06911080945117, 0.7955503948911241, 1};
Point(p10 + 7) = {26.92516384486928, 0.883761208237257, 1};
Point(p10 + 8) = {26.76918989489112, 0.9483677336951135, 1};
Point(p10 + 9) = {26.60502955581302, 0.9877791441911563, 1};
Point(p10 + 10) = {26.436725, 1.001025, 1};
Point(p10 + 11) = {26.26842044418698, 0.9877791441911561, 1};
Point(p10 + 12) = {26.10426010510887, 0.9483677336951137, 1};
Point(p10 + 13) = {25.94828615513072, 0.8837612082372571, 1};
Point(p10 + 14) = {25.80433919054883, 0.7955503948911241, 1};
Point(p10 + 15) = {25.6759636633638, 0.6859073366362016, 1};
Point(p10 + 16) = {25.56632060510887, 0.5575318094511739, 1};
Point(p10 + 17) = {25.47810979176274, 0.4135848448692839, 1};
Point(p10 + 18) = {25.41350326630489, 0.2576108948911242, 1};
Point(p10 + 19) = {25.37409185580884, 0.09345055581301867, 1};
Point(p10 + 20) = {25.360846, -0.07485399999999988, 1};
Point(p10 + 21) = {25.37409185580884, -0.2431585558130184, 1};
Point(p10 + 22) = {25.41350326630489, -0.4073188948911244, 1};
Point(p10 + 23) = {25.47810979176274, -0.5632928448692833, 1};
Point(p10 + 24) = {25.56632060510887, -0.7072398094511736, 1};
Point(p10 + 25) = {25.6759636633638, -0.8356153366362015, 1};
Point(p10 + 26) = {25.80433919054882, -0.945258394891124, 1};
Point(p10 + 27) = {25.94828615513072, -1.033469208237257, 1};
Point(p10 + 28) = {26.10426010510887, -1.098075733695113, 1};
Point(p10 + 29) = {26.26842044418698, -1.137487144191156, 1};
Point(p10 + 30) = {26.436725, -1.150733, 1};
Point(p10 + 31) = {26.60502955581302, -1.137487144191156, 1};
Point(p10 + 32) = {26.76918989489112, -1.098075733695114, 1};
Point(p10 + 33) = {26.92516384486928, -1.033469208237257, 1};
Point(p10 + 34) = {27.06911080945117, -0.9452583948911242, 1};
Point(p10 + 35) = {27.1974863366362, -0.8356153366362017, 1};
Point(p10 + 36) = {27.30712939489112, -0.7072398094511739, 1};
Point(p10 + 37) = {27.39534020823726, -0.5632928448692841, 1};
Point(p10 + 38) = {27.45994673369511, -0.4073188948911243, 1};
Point(p10 + 39) = {27.49935814419116, -0.2431585558130188, 1};
Spline(10) = {8, p10 + 1, p10 + 2, p10 + 3, p10 + 4, p10 + 5, p10 + 6, p10 + 7, p10 + 8, p10 + 9, p10 + 10, p10 + 11, p10 + 12, p10 + 13, p10 + 14, p10 + 15, p10 + 16, p10 + 17, p10 + 18, p10 + 19, p10 + 20, p10 + 21, p10 + 22, p10 + 23, p10 + 24, p10 + 25, p10 + 26, p10 + 27, p10 + 28, p10 + 29, p10 + 30, p10 + 31, p10 + 32, p10 + 33, p10 + 34, p10 + 35, p10 + 36, p10 + 37, p10 + 38, p10 + 39, 8};
p11 = newp;
Point(p11 + 1) = {14.07639220054581, 2.838645906697914, 1};
Point(p11 + 2) = {14.02659094235539, 3.046083075988696, 1};
Point(p11 + 3) = {13.94495249768628, 3.243175716319912, 1};
Point(p11 + 4) = {13.8334870759887, 3.425070752773635, 1};
Point(p11 + 5) = {13.69493932587736, 3.587289325877361, 1};
Point(p11 + 6) = {13.53272075277364, 3.725837075988696, 1};
Point(p11 + 7) = {13.35082571631991, 3.83730249768628, 1};
Point(p11 + 8) = {13.1537330759887, 3.918940942355392, 1};
Point(p11 + 9) = {12.94629590669791, 3.968742200545814, 1};
Point(p11 + 10) = {12.733622, 3.98548, 1};
Point(p11 + 11) = {12.52094809330209, 3.968742200545814, 1};
Point(p11 + 12) = {12.3135109240113, 3.918940942355392, 1};
Point(p11 + 13) = {12.11641828368009, 3.83730249768628, 1};
Point(p11 + 14) = {11.93452324722636, 3.725837075988696, 1};
Point(p11 + 15) = {11.77230467412264, 3.587289325877361, 1};
Point(p11 + 16) = {11.6337569240113, 3.425070752773636, 1};
Point(p11 + 17) = {11.52229150231372, 3.243175716319912, 1};
Point(p11 + 18) = {11.44065305764461, 3.046083075988696, 1};
Point(p11 + 19) = {11.39085179945419, 2.838645906697914, 1};
Point(p11 + 20) = {11.374114, 2.625972, 1};
Point(p11 + 21) = {11.39085179945419, 2.413298093302086, 1};
Point(p11 + 22) = {11.44065305764461, 2.205860924011303, 1};
Point(p11 + 23) = {11.52229150231372, 2.008768283680089, 1};
Point(p11 + 24) = {11.6337569240113, 1.826873247226365, 1};
Point(p11 + 25) = {11.77230467412264, 1.664654674122639, 1};
Point(p11 + 26) = {11.93452324722636, 1.526106924011304, 1};
Point(p11 + 27) = {12.11641828368009, 1.41464150231372, 1};
Point(p11 + 28) = {12.3135109240113, 1.333003057644608, 1};
Point(p11 + 29) = {12.52094809330209, 1.283201799454186, 1};
Point(p11 + 30) = {12.733622, 1.266464, 1};
Point(p11 + 31) = {12.94629590669791, 1.283201799454186, 1};
Point(p11 + 32) = {13.1537330759887, 1.333003057644608, 1};
Point(p11 + 33) = {13.35082571631991, 1.41464150231372, 1};
Point(p11 + 34) = {13.53272075277363, 1.526106924011304, 1};
Point(p11 + 35) = {13.69493932587736, 1.664654674122639, 1};
Point(p11 + 36) = {13.8334870759887, 1.826873247226364, 1};
Point(p11 + 37) = {13.94495249768628, 2.008768283680088, 1};
Point(p11 + 38) = {14.02659094235539, 2.205860924011304, 1};
Point(p11 + 39) = {14.07639220054581, 2.413298093302085, 1};
Spline(11) = {9, p11 + 1, p11 + 2, p11 + 3, p11 + 4, p11 + 5, p11 + 6, p11 + 7, p11 + 8, p11 + 9, p11 + 10, p11 + 11, p11 + 12, p11 + 13, p11 + 14, p11 + 15, p11 + 16, p11 + 17, p11 + 18, p11 + 19, p11 + 20, p11 + 21, p11 + 22, p11 + 23, p11 + 24, p11 + 25, p11 + 26, p11 + 27, p11 + 28, p11 + 29, p11 + 30, p11 + 31, p11 + 32, p11 + 33, p11 + 34, p11 + 35, p11 + 36, p11 + 37, p11 + 38, p11 + 39, 9};
Line(12) = {4, 10};
Line(13) = {10, 7};
Line(14) = {5, 10};
p15 = newp;
Point(p15 + 1) = {27.49935814419116, 0.09345055581301856, 0};
Point(p15 + 2) = {27.45994673369511, 0.257610894891124, 0};
Point(p15 + 3) = {27.39534020823726, 0.4135848448692838, 0};
Point(p15 + 4) = {27.30712939489112, 0.5575318094511738, 0};
Point(p15 + 5) = {27.1974863366362, 0.6859073366362015, 0};
Point(p15 + 6) = {27.06911080945117, 0.7955503948911241, 0};
Point(p15 + 7) = {26.92516384486928, 0.883761208237257, 0};
Point(p15 + 8) = {26.76918989489112, 0.9483677336951135, 0};
Point(p15 + 9) = {26.60502955581302, 0.9877791441911563, 0};
Point(p15 + 10) = {26.436725, 1.001025, 0};
Point(p15 + 11) = {26.26842044418698, 0.9877791441911561, 0};
Point(p15 + 12) = {26.10426010510887, 0.9483677336951137, 0};
Point(p15 + 13) = {25.94828615513072, 0.8837612082372571, 0};
Point(p15 + 14) = {25.80433919054883, 0.7955503948911241, 0};
Point(p15 + 15) = {25.6759636633638, 0.6859073366362016, 0};
Point(p15 + 16) = {25.56632060510887, 0.5575318094511739, 0};
Point(p15 + 17) = {25.47810979176274, 0.4135848448692839, 0};
Point(p15 + 18) = {25.41350326630489, 0.2576108948911242, 0};
Point(p15 + 19) = {25.37409185580884, 0.09345055581301867, 0};
Point(p15 + 20) = {25.360846, -0.07485399999999988, 0};
Point(p15 + 21) = {25.37409185580884, -0.2431585558130184, 0};
Point(p15 + 22) = {25.41350326630489, -0.4073188948911244, 0};
Point(p15 + 23) = {25.47810979176274, -0.5632928448692833, 0};
Point(p15 + 24) = {25.56632060510887, -0.7072398094511736, 0};
Point(p15 + 25) = {25.6759636633638, -0.8356153366362015, 0};
Point(p15 + 26) = {25.80433919054882, -0.945258394891124, 0};
Point(p15 + 27) = {25.94828615513072, -1.033469208237257, 0};
Point(p15 + 28) = {26.10426010510887, -1.098075733695113, 0};
Point(p15 + 29) = {26.26842044418698, -1.137487144191156, 0};
Point(p15 + 30) = {26.436725, -1.150733, 0};
Point(p15 + 31) = {26.60502955581302, -1.137487144191156, 0};
Point(p15 + 32) = {26.76918989489112, -1.098075733695114, 0};
Point(p15 + 33) = {26.92516384486928, -1.033469208237257, 0};
Point(p15 + 34) = {27.06911080945117, -0.9452583948911242, 0};
Point(p15 + 35) = {27.1974863366362, -0.8356153366362017, 0};
Point(p15 + 36) = {27.30712939489112, -0.7072398094511739, 0};
Point(p15 + 37) = {27.39534020823726, -0.5632928448692841, 0};
Point(p15 + 38) = {27.45994673369511, -0.4073188948911243, 0};
Point(p15 + 39) = {27.49935814419116, -0.2431585558130188, 0};
Spline(15) = {11, p15 + 1, p15 + 2, p15 + 3, p15 + 4, p15 + 5, p15 + 6, p15 + 7, p15 + 8, p15 + 9, p15 + 10, p15 + 11, p15 + 12, p15 + 13, p15 + 14, p15 + 15, p15 + 16, p15 + 17, p15 + 18, p15 + 19, p15 + 20, p15 + 21, p15 + 22, p15 + 23, p15 + 24, p15 + 25, p15 + 26, p15 + 27, p15 + 28, p15 + 29, p15 + 30, p15 + 31, p15 + 32, p15 + 33, p15 + 34, p15 + 35, p15 + 36, p15 + 37, p15 + 38, p15 + 39, 11};
p16 = newp;
Point(p16 + 1) = {14.07639220054581, 2.838645906697914, 0};
Point(p16 + 2) = {14.02659094235539, 3.046083075988696, 0};
Point(p16 + 3) = {13.94495249768628, 3.243175716319912, 0};
Point(p16 + 4) = {13.8334870759887, 3.425070752773635, 0};
Point(p16 + 5) = {13.69493932587736, 3.587289325877361, 0};
Point(p16 + 6) = {13.53272075277364, 3.725837075988696, 0};
Point(p16 + 7) = {13.35082571631991, 3.83730249768628, 0};
Point(p16 + 8) = {13.1537330759887, 3.918940942355392, 0};
Point(p16 + 9) = {12.94629590669791, 3.968742200545814, 0};
Point(p16 + 10) = {12.733622, 3.98548, 0};
Point(p16 + 11) = {12.52094809330209, 3.968742200545814, 0};
Point(p16 + 12) = {12.3135109240113, 3.918940942355392, 0};
Point(p16 + 13) = {12.11641828368009, 3.83730249768628, 0};
Point(p16 + 14) = {11.93452324722636, 3.725837075988696, 0};
Point(p16 + 15) = {11.77230467412264, 3.587289325877361, 0};
Point(p16 + 16) = {11.6337569240113, 3.425070752773636, 0};
Point(p16 + 17) = {11.52229150231372, 3.243175716319912, 0};
Point(p16 + 18) = {11.44065305764461, 3.046083075988696, 0};
Point(p16 + 19) = {11.39085179945419, 2.838645906697914, 0};
Point(p16 + 20) = {11.374114, 2.625972, 0};
Point(p16 + 21) = {11.39085179945419, 2.413298093302086, 0};
Point(p16 + 22) = {11.44065305764461, 2.205860924011303, 0};
Point(p16 + 23) = {11.52229150231372, 2.008768283680089, 0};
Point(p16 + 24) = {11.6337569240113, 1.826873247226365, 0};
Point(p16 + 25) = {11.77230467412264, 1.664654674122639, 0};
Point(p16 + 26) = {11.93452324722636, 1.526106924011304, 0};
Point(p16 + 27) = {12.11641828368009, 1.41464150231372, 0};
Point(p16 + 28) = {12.3135109240113, 1.333003057644608, 0};
Point(p16 + 29) = {12.52094809330209, 1.283201799454186, 0};
Point(p16 + 30) = {12.733622, 1.266464, 0};
Point(p16 + 31) = {12.94629590669791, 1.283201799454186, 0};
Point(p16 + 32) = {13.1537330759887, 1.333003057644608, 0};
Point(p16 + 33) = {13.35082571631991, 1.41464150231372, 0};
Point(p16 + 34) = {13.53272075277363, 1.526106924011304, 0};
Point(p16 + 35) = {13.69493932587736, 1.664654674122639, 0};
Point(p16 + 36) = {13.8334870759887, 1.826873247226364, 0};
Point(p16 + 37) = {13.94495249768628, 2.008768283680088, 0};
Point(p16 + 38) = {14.02659094235539, 2.205860924011304, 0};
Point(p16 + 39) = {14.07639220054581, 2.413298093302085, 0};
Spline(16) = {12, p16 + 1, p16 + 2, p16 + 3, p16 + 4, p16 + 5, p16 + 6, p16 + 7, p16 + 8, p16 + 9, p16 + 10, p16 + 11, p16 + 12, p16 + 13, p16 + 14, p16 + 15, p16 + 16, p16 + 17, p16 + 18, p16 + 19, p16 + 20, p16 + 21, p16 + 22, p16 + 23, p16 + 24, p16 + 25, p16 + 26, p16 + 27, p16 + 28, p16 + 29, p16 + 30, p16 + 31, p16 + 32, p16 + 33, p16 + 34, p16 + 35, p16 + 36, p16 + 37, p16 + 38, p16 + 39, 12};
Line(17) = {11, 8};
Line(18) = {12, 9};
Curve Loop(1) = {-1, 4, 3, -2};
Plane Surface(1) = {1};
Curve Loop(2) = {-5, 1, 7, -6};
Plane Surface(2) = {2};
Curve Loop(3) = {-2, 7, 9, -8, -10, -11};
Plane Surface(3) = {3};
Curve Loop(4) = {-12, 3, 8, -13};
Plane Surface(4) = {4};
Curve Loop(5) = {-4, 5, 14, -12, -15, -16};
Plane Surface(5) = {5};
Curve Loop(6) = {-6, 14, 13, -9};
Plane Surface(6) = {6};
Curve Loop(7) = {-10, -17, 15, 17};
Surface(7) = {7};
Curve Loop(8) = {-11, -18, 16, 18};
Surface(8) = {8};
Surface Loop(1) = {1, 2, 3, 4, 5, 6, 7, 8};
Volume(1) = {1};
Physical Surface("INFLOW") = {1};
Physical Surface("OUTFLOW") = {6};
Physical Surface("OBSTACLE") = {7, 8};
Physical Surface("WALL_Y") = {2, 4};
Physical Surface("WALL_Z") = {3, 5};
Physical Volume("FLUID") = {1};
