cl__1 = 4.015186;
cl__2 = 1.616478;
cl__3 = 1.435628;
cl__4 = 0.08261300000000001;
cl__5 = 0.075789;
Point(1) = {0.757189, -4.792327, 1, cl__1};
Point(2) = {0.757189, -4.792327, 0, cl__1};
Point(3) = {0.757189, 5.138085, 1, cl__2};
Point(4) = {0.757189, 5.138085, 0, cl__2};
Point(5) = {39.84368, -4.792327, 0, cl__3};
Point(6) = {39.84368, -4.792327, 1, cl__3};
Point(7) = {39.84368, 5.138085, 1, cl__2};
Point(8) = {16.289425, -1.019307, 1, cl__4};
Point(9) = {25.748886, 3.317831, 1, cl__5};
Point(10) = {39.84368, 5.138085, 0, cl__2};
Point(11) = {16.289425, -1.019307, 0, cl__4};
Point(12) = {25.748886, 3.317831, 0, cl__5};
Line(1) = {2, 1};
Line(2) = {1, 3};
Line(3) = {4, 3};
Line(4) = {2, 4};
Line(5) = {2, 5};
Line(6) = {5, 6};
Line(7) = {1, 6};
Line(8) = {3, 7};
Line(9) = {6, 7};
p10 = newp;
Point(p10 + 1) = {16.27925400575084, -0.8900722646997091, 1};
Point(p10 + 2) = {16.24899146663737, -0.7640197174880078, 1};
Point(p10 + 3) = {16.19938254680816, -0.6442531904216675, 1};
Point(p10 + 4) = {16.13164878251199, -0.533721732879376, 1};
Point(p10 + 5) = {16.0474580038213, -0.4351469961787011, 1};
Point(p10 + 6) = {15.94888326712062, -0.3509562174880078, 1};
Point(p10 + 7) = {15.83835180957833, -0.2832224531918363, 1};
Point(p10 + 8) = {15.71858528251199, -0.2336135333626337, 1};
Point(p10 + 9) = {15.59253273530029, -0.2033509942491606, 1};
Point(p10 + 10) = {15.463298, -0.19318, 1};
Point(p10 + 11) = {15.33406326469971, -0.2033509942491607, 1};
Point(p10 + 12) = {15.20801071748801, -0.2336135333626336, 1};
Point(p10 + 13) = {15.08824419042167, -0.2832224531918363, 1};
Point(p10 + 14) = {14.97771273287938, -0.3509562174880078, 1};
Point(p10 + 15) = {14.8791379961787, -0.435146996178701, 1};
Point(p10 + 16) = {14.79494721748801, -0.533721732879376, 1};
Point(p10 + 17) = {14.72721345319184, -0.6442531904216673, 1};
Point(p10 + 18) = {14.67760453336263, -0.7640197174880077, 1};
Point(p10 + 19) = {14.64734199424916, -0.890072264699709, 1};
Point(p10 + 20) = {14.637171, -1.019307, 1};
Point(p10 + 21) = {14.64734199424916, -1.148541735300291, 1};
Point(p10 + 22) = {14.67760453336263, -1.274594282511992, 1};
Point(p10 + 23) = {14.72721345319184, -1.394360809578332, 1};
Point(p10 + 24) = {14.79494721748801, -1.504892267120624, 1};
Point(p10 + 25) = {14.8791379961787, -1.603467003821299, 1};
Point(p10 + 26) = {14.97771273287938, -1.687657782511992, 1};
Point(p10 + 27) = {15.08824419042167, -1.755391546808164, 1};
Point(p10 + 28) = {15.20801071748801, -1.805000466637366, 1};
Point(p10 + 29) = {15.33406326469971, -1.835263005750839, 1};
Point(p10 + 30) = {15.463298, -1.845434, 1};
Point(p10 + 31) = {15.59253273530029, -1.835263005750839, 1};
Point(p10 + 32) = {15.71858528251199, -1.805000466637366, 1};
Point(p10 + 33) = {15.83835180957833, -1.755391546808164, 1};
Point(p10 + 34) = {15.94888326712062, -1.687657782511992, 1};
Point(p10 + 35) = {16.0474580038213, -1.603467003821299, 1};
Point(p10 + 36) = {16.13164878251199, -1.504892267120624, 1};
Point(p10 + 37) = {16.19938254680816, -1.394360809578333, 1};
Point(p10 + 38) = {16.24899146663737, -1.274594282511992, 1};
Point(p10 + 39) = {16.27925400575084, -1.148541735300291, 1};
Spline(10) = {8, p10 + 1, p10 + 2, p10 + 3, p10 + 4, p10 + 5, p10 + 6, p10 + 7, p10 + 8, p10 + 9, p10 + 10, p10 + 11, p10 + 12, p10 + 13, p10 + 14, p10 + 15, p10 + 16, p10 + 17, p10 + 18, p10 + 19, p10 + 20, p10 + 21, p10 + 22, p10 + 23, p10 + 24, p10 + 25, p10 + 26, p10 + 27, p10 + 28, p10 + 29, p10 + 30, p10 + 31, p10 + 32, p10 + 33, p10 + 34, p10 + 35, p10 + 36, p10 + 37, p10 + 38, p10 + 39, 8};
p11 = newp;
Point(p11 + 1) = {25.73955516570028, 3.43639049097148, 1};
Point(p11 + 2) = {25.71179241890887, 3.552030653798851, 1};
Point(p11 + 3) = {25.66628137059103, 3.661904043885606, 1};
Point(p11 + 4) = {25.60414265379885, 3.763305213718933, 1};
Point(p11 + 5) = {25.52690632996635, 3.853737329966348, 1};
Point(p11 + 6) = {25.43647421371893, 3.930973653798851, 1};
Point(p11 + 7) = {25.33507304388561, 3.993112370591025, 1};
Point(p11 + 8) = {25.22519965379885, 4.038623418908869, 1};
Point(p11 + 9) = {25.10955949097148, 4.066386165700287, 1};
Point(p11 + 10) = {24.991, 4.075717, 1};
Point(p11 + 11) = {24.87244050902852, 4.066386165700287, 1};
Point(p11 + 12) = {24.75680034620115, 4.038623418908869, 1};
Point(p11 + 13) = {24.6469269561144, 3.993112370591025, 1};
Point(p11 + 14) = {24.54552578628106, 3.930973653798851, 1};
Point(p11 + 15) = {24.45509367003365, 3.853737329966348, 1};
Point(p11 + 16) = {24.37785734620115, 3.763305213718933, 1};
Point(p11 + 17) = {24.31571862940897, 3.661904043885606, 1};
Point(p11 + 18) = {24.27020758109113, 3.552030653798851, 1};
Point(p11 + 19) = {24.24244483429971, 3.436390490971481, 1};
Point(p11 + 20) = {24.233114, 3.317831, 1};
Point(p11 + 21) = {24.24244483429971, 3.19927150902852, 1};
Point(p11 + 22) = {24.27020758109113, 3.083631346201148, 1};
Point(p11 + 23) = {24.31571862940897, 2.973757956114394, 1};
Point(p11 + 24) = {24.37785734620115, 2.872356786281067, 1};
Point(p11 + 25) = {24.45509367003365, 2.781924670033652, 1};
Point(p11 + 26) = {24.54552578628106, 2.704688346201149, 1};
Point(p11 + 27) = {24.64692695611439, 2.642549629408975, 1};
Point(p11 + 28) = {24.75680034620115, 2.597038581091131, 1};
Point(p11 + 29) = {24.87244050902852, 2.569275834299714, 1};
Point(p11 + 30) = {24.991, 2.559945, 1};
Point(p11 + 31) = {25.10955949097148, 2.569275834299714, 1};
Point(p11 + 32) = {25.22519965379885, 2.597038581091131, 1};
Point(p11 + 33) = {25.3350730438856, 2.642549629408975, 1};
Point(p11 + 34) = {25.43647421371893, 2.704688346201149, 1};
Point(p11 + 35) = {25.52690632996635, 2.781924670033652, 1};
Point(p11 + 36) = {25.60414265379885, 2.872356786281066, 1};
Point(p11 + 37) = {25.66628137059103, 2.973757956114394, 1};
Point(p11 + 38) = {25.71179241890887, 3.083631346201148, 1};
Point(p11 + 39) = {25.73955516570028, 3.199271509028519, 1};
Spline(11) = {9, p11 + 1, p11 + 2, p11 + 3, p11 + 4, p11 + 5, p11 + 6, p11 + 7, p11 + 8, p11 + 9, p11 + 10, p11 + 11, p11 + 12, p11 + 13, p11 + 14, p11 + 15, p11 + 16, p11 + 17, p11 + 18, p11 + 19, p11 + 20, p11 + 21, p11 + 22, p11 + 23, p11 + 24, p11 + 25, p11 + 26, p11 + 27, p11 + 28, p11 + 29, p11 + 30, p11 + 31, p11 + 32, p11 + 33, p11 + 34, p11 + 35, p11 + 36, p11 + 37, p11 + 38, p11 + 39, 9};
Line(12) = {4, 10};
Line(13) = {10, 7};
Line(14) = {5, 10};
p15 = newp;
Point(p15 + 1) = {16.27925400575084, -0.8900722646997091, 0};
Point(p15 + 2) = {16.24899146663737, -0.7640197174880078, 0};
Point(p15 + 3) = {16.19938254680816, -0.6442531904216675, 0};
Point(p15 + 4) = {16.13164878251199, -0.533721732879376, 0};
Point(p15 + 5) = {16.0474580038213, -0.4351469961787011, 0};
Point(p15 + 6) = {15.94888326712062, -0.3509562174880078, 0};
Point(p15 + 7) = {15.83835180957833, -0.2832224531918363, 0};
Point(p15 + 8) = {15.71858528251199, -0.2336135333626337, 0};
Point(p15 + 9) = {15.59253273530029, -0.2033509942491606, 0};
Point(p15 + 10) = {15.463298, -0.19318, 0};
Point(p15 + 11) = {15.33406326469971, -0.2033509942491607, 0};
Point(p15 + 12) = {15.20801071748801, -0.2336135333626336, 0};
Point(p15 + 13) = {15.08824419042167, -0.2832224531918363, 0};
Point(p15 + 14) = {14.97771273287938, -0.3509562174880078, 0};
Point(p15 + 15) = {14.8791379961787, -0.435146996178701, 0};
Point(p15 + 16) = {14.79494721748801, -0.533721732879376, 0};
Point(p15 + 17) = {14.72721345319184, -0.6442531904216673, 0};
Point(p15 + 18) = {14.67760453336263, -0.7640197174880077, 0};
Point(p15 + 19) = {14.64734199424916, -0.890072264699709, 0};
Point(p15 + 20) = {14.637171, -1.019307, 0};
Point(p15 + 21) = {14.64734199424916, -1.148541735300291, 0};
Point(p15 + 22) = {14.67760453336263, -1.274594282511992, 0};
Point(p15 + 23) = {14.72721345319184, -1.394360809578332, 0};
Point(p15 + 24) = {14.79494721748801, -1.504892267120624, 0};
Point(p15 + 25) = {14.8791379961787, -1.603467003821299, 0};
Point(p15 + 26) = {14.97771273287938, -1.687657782511992, 0};
Point(p15 + 27) = {15.08824419042167, -1.755391546808164, 0};
Point(p15 + 28) = {15.20801071748801, -1.805000466637366, 0};
Point(p15 + 29) = {15.33406326469971, -1.835263005750839, 0};
Point(p15 + 30) = {15.463298, -1.845434, 0};
Point(p15 + 31) = {15.59253273530029, -1.835263005750839, 0};
Point(p15 + 32) = {15.71858528251199, -1.805000466637366, 0};
Point(p15 + 33) = {15.83835180957833, -1.755391546808164, 0};
Point(p15 + 34) = {15.94888326712062, -1.687657782511992, 0};
Point(p15 + 35) = {16.0474580038213, -1.603467003821299, 0};
Point(p15 + 36) = {16.13164878251199, -1.504892267120624, 0};
Point(p15 + 37) = {16.19938254680816, -1.394360809578333, 0};
Point(p15 + 38) = {16.24899146663737, -1.274594282511992, 0};
Point(p15 + 39) = {16.27925400575084, -1.148541735300291, 0};
Spline(15) = {11, p15 + 1, p15 + 2, p15 + 3, p15 + 4, p15 + 5, p15 + 6, p15 + 7, p15 + 8, p15 + 9, p15 + 10, p15 + 11, p15 + 12, p15 + 13, p15 + 14, p15 + 15, p15 + 16, p15 + 17, p15 + 18, p15 + 19, p15 + 20, p15 + 21, p15 + 22, p15 + 23, p15 + 24, p15 + 25, p15 + 26, p15 + 27, p15 + 28, p15 + 29, p15 + 30, p15 + 31, p15 + 32, p15 + 33, p15 + 34, p15 + 35, p15 + 36, p15 + 37, p15 + 38, p15 + 39, 11};
p16 = newp;
Point(p16 + 1) = {25.73955516570028, 3.43639049097148, 0};
Point(p16 + 2) = {25.71179241890887, 3.552030653798851, 0};
Point(p16 + 3) = {25.66628137059103, 3.661904043885606, 0};
Point(p16 + 4) = {25.60414265379885, 3.763305213718933, 0};
Point(p16 + 5) = {25.52690632996635, 3.853737329966348, 0};
Point(p16 + 6) = {25.43647421371893, 3.930973653798851, 0};
Point(p16 + 7) = {25.33507304388561, 3.993112370591025, 0};
Point(p16 + 8) = {25.22519965379885, 4.038623418908869, 0};
Point(p16 + 9) = {25.10955949097148, 4.066386165700287, 0};
Point(p16 + 10) = {24.991, 4.075717, 0};
Point(p16 + 11) = {24.87244050902852, 4.066386165700287, 0};
Point(p16 + 12) = {24.75680034620115, 4.038623418908869, 0};
Point(p16 + 13) = {24.6469269561144, 3.993112370591025, 0};
Point(p16 + 14) = {24.54552578628106, 3.930973653798851, 0};
Point(p16 + 15) = {24.45509367003365, 3.853737329966348, 0};
Point(p16 + 16) = {24.37785734620115, 3.763305213718933, 0};
Point(p16 + 17) = {24.31571862940897, 3.661904043885606, 0};
Point(p16 + 18) = {24.27020758109113, 3.552030653798851, 0};
Point(p16 + 19) = {24.24244483429971, 3.436390490971481, 0};
Point(p16 + 20) = {24.233114, 3.317831, 0};
Point(p16 + 21) = {24.24244483429971, 3.19927150902852, 0};
Point(p16 + 22) = {24.27020758109113, 3.083631346201148, 0};
Point(p16 + 23) = {24.31571862940897, 2.973757956114394, 0};
Point(p16 + 24) = {24.37785734620115, 2.872356786281067, 0};
Point(p16 + 25) = {24.45509367003365, 2.781924670033652, 0};
Point(p16 + 26) = {24.54552578628106, 2.704688346201149, 0};
Point(p16 + 27) = {24.64692695611439, 2.642549629408975, 0};
Point(p16 + 28) = {24.75680034620115, 2.597038581091131, 0};
Point(p16 + 29) = {24.87244050902852, 2.569275834299714, 0};
Point(p16 + 30) = {24.991, 2.559945, 0};
Point(p16 + 31) = {25.10955949097148, 2.569275834299714, 0};
Point(p16 + 32) = {25.22519965379885, 2.597038581091131, 0};
Point(p16 + 33) = {25.3350730438856, 2.642549629408975, 0};
Point(p16 + 34) = {25.43647421371893, 2.704688346201149, 0};
Point(p16 + 35) = {25.52690632996635, 2.781924670033652, 0};
Point(p16 + 36) = {25.60414265379885, 2.872356786281066, 0};
Point(p16 + 37) = {25.66628137059103, 2.973757956114394, 0};
Point(p16 + 38) = {25.71179241890887, 3.083631346201148, 0};
Point(p16 + 39) = {25.73955516570028, 3.199271509028519, 0};
Spline(16) = {12, p16 + 1, p16 + 2, p16 + 3, p16 + 4, p16 + 5, p16 + 6, p16 + 7, p16 + 8, p16 + 9, p16 + 10, p16 + 11, p16 + 12, p16 + 13, p16 + 14, p16 + 15, p16 + 16, p16 + 17, p16 + 18, p16 + 19, p16 + 20, p16 + 21, p16 + 22, p16 + 23, p16 + 24, p16 + 25, p16 + 26, p16 + 27, p16 + 28, p16 + 29, p16 + 30, p16 + 31, p16 + 32, p16 + 33, p16 + 34, p16 + 35, p16 + 36, p16 + 37, p16 + 38, p16 + 39, 12};
Line(17) = {11, 8};
Line(18) = {12, 9};
Curve Loop(1) = {-1, 4, 3, -2};
Plane Surface(1) = {1};
Curve Loop(2) = {-5, 1, 7, -6};
Plane Surface(2) = {2};
Curve Loop(3) = {-2, 7, 9, -8, -10, -11};
Plane Surface(3) = {3};
Curve Loop(4) = {-12, 3, 8, -13};
Plane Surface(4) = {4};
Curve Loop(5) = {-4, 5, 14, -12, -15, -16};
Plane Surface(5) = {5};
Curve Loop(6) = {-6, 14, 13, -9};
Plane Surface(6) = {6};
Curve Loop(7) = {-10, -17, 15, 17};
Surface(7) = {7};
Curve Loop(8) = {-11, -18, 16, 18};
Surface(8) = {8};
Surface Loop(1) = {1, 2, 3, 4, 5, 6, 7, 8};
Volume(1) = {1};
Physical Surface("INFLOW") = {1};
Physical Surface("OUTFLOW") = {6};
Physical Surface("OBSTACLE") = {7, 8};
Physical Surface("WALL_Y") = {2, 4};
Physical Surface("WALL_Z") = {3, 5};
Physical Volume("FLUID") = {1};
