cl__1 = 0.81462;
cl__2 = 0.790345;
cl__3 = 3.821449;
cl__4 = 0.137412;
Point(1) = {0.966268, -3.106107, 1, cl__1};
Point(2) = {0.966268, -3.106107, 0, cl__1};
Point(3) = {0.966268, 4.739889, 1, cl__2};
Point(4) = {0.966268, 4.739889, 0, cl__2};
Point(5) = {38.012592, -3.106107, 0, cl__3};
Point(6) = {38.012592, -3.106107, 1, cl__3};
Point(7) = {38.012592, 4.739889, 1, cl__3};
Point(8) = {10.877387, 1.10769, 1, cl__4};
Point(9) = {38.012592, 4.739889, 0, cl__3};
Point(10) = {10.877387, 1.10769, 0, cl__4};
Line(1) = {2, 1};
Line(2) = {1, 3};
Line(3) = {4, 3};
Line(4) = {2, 4};
Line(5) = {2, 5};
Line(6) = {5, 6};
Line(7) = {1, 6};
Line(8) = {3, 7};
Line(9) = {6, 7};
p10 = newp;
Point(p10 + 1) = {10.86046933951357, 1.322649257797687, 1};
Point(p10 + 2) = {10.81013292700195, 1.53231550525952, 1};
Point(p10 + 3) = {10.72761721199815, 1.731526063530607, 1};
Point(p10 + 4) = {10.61495400525952, 1.915375707524376, 1};
Point(p10 + 5) = {10.47491744884372, 2.079337448843715, 1};
Point(p10 + 6) = {10.31095570752438, 2.21937400525952, 1};
Point(p10 + 7) = {10.12710606353061, 2.332037211998148, 1};
Point(p10 + 8) = {9.927895505259521, 2.414552927001948, 1};
Point(p10 + 9) = {9.718229257797688, 2.464889339513569, 1};
Point(p10 + 10) = {9.503270000000001, 2.481807, 1};
Point(p10 + 11) = {9.288310742202313, 2.464889339513569, 1};
Point(p10 + 12) = {9.07864449474048, 2.414552927001948, 1};
Point(p10 + 13) = {8.879433936469393, 2.332037211998148, 1};
Point(p10 + 14) = {8.695584292475624, 2.21937400525952, 1};
Point(p10 + 15) = {8.531622551156286, 2.079337448843715, 1};
Point(p10 + 16) = {8.391585994740481, 1.915375707524376, 1};
Point(p10 + 17) = {8.278922788001854, 1.731526063530607, 1};
Point(p10 + 18) = {8.196407072998053, 1.53231550525952, 1};
Point(p10 + 19) = {8.146070660486432, 1.322649257797687, 1};
Point(p10 + 20) = {8.129153000000001, 1.10769, 1};
Point(p10 + 21) = {8.146070660486432, 0.8927307422023133, 1};
Point(p10 + 22) = {8.196407072998053, 0.68306449474048, 1};
Point(p10 + 23) = {8.278922788001854, 0.483853936469394, 1};
Point(p10 + 24) = {8.391585994740481, 0.3000042924756239, 1};
Point(p10 + 25) = {8.531622551156286, 0.1360425511562851, 1};
Point(p10 + 26) = {8.695584292475624, -0.00399400525951954, 1};
Point(p10 + 27) = {8.879433936469393, -0.1166572119981473, 1};
Point(p10 + 28) = {9.07864449474048, -0.1991729270019476, 1};
Point(p10 + 29) = {9.288310742202313, -0.2495093395135688, 1};
Point(p10 + 30) = {9.503270000000001, -0.266427, 1};
Point(p10 + 31) = {9.718229257797688, -0.2495093395135688, 1};
Point(p10 + 32) = {9.927895505259521, -0.1991729270019476, 1};
Point(p10 + 33) = {10.12710606353061, -0.1166572119981475, 1};
Point(p10 + 34) = {10.31095570752438, -0.003994005259519762, 1};
Point(p10 + 35) = {10.47491744884372, 0.1360425511562847, 1};
Point(p10 + 36) = {10.61495400525952, 0.3000042924756234, 1};
Point(p10 + 37) = {10.72761721199815, 0.483853936469393, 1};
Point(p10 + 38) = {10.81013292700195, 0.6830644947404801, 1};
Point(p10 + 39) = {10.86046933951357, 0.8927307422023129, 1};
Spline(10) = {8, p10 + 1, p10 + 2, p10 + 3, p10 + 4, p10 + 5, p10 + 6, p10 + 7, p10 + 8, p10 + 9, p10 + 10, p10 + 11, p10 + 12, p10 + 13, p10 + 14, p10 + 15, p10 + 16, p10 + 17, p10 + 18, p10 + 19, p10 + 20, p10 + 21, p10 + 22, p10 + 23, p10 + 24, p10 + 25, p10 + 26, p10 + 27, p10 + 28, p10 + 29, p10 + 30, p10 + 31, p10 + 32, p10 + 33, p10 + 34, p10 + 35, p10 + 36, p10 + 37, p10 + 38, p10 + 39, 8};
Line(11) = {4, 9};
Line(12) = {9, 7};
Line(13) = {5, 9};
p14 = newp;
Point(p14 + 1) = {10.86046933951357, 1.322649257797687, 0};
Point(p14 + 2) = {10.81013292700195, 1.53231550525952, 0};
Point(p14 + 3) = {10.72761721199815, 1.731526063530607, 0};
Point(p14 + 4) = {10.61495400525952, 1.915375707524376, 0};
Point(p14 + 5) = {10.47491744884372, 2.079337448843715, 0};
Point(p14 + 6) = {10.31095570752438, 2.21937400525952, 0};
Point(p14 + 7) = {10.12710606353061, 2.332037211998148, 0};
Point(p14 + 8) = {9.927895505259521, 2.414552927001948, 0};
Point(p14 + 9) = {9.718229257797688, 2.464889339513569, 0};
Point(p14 + 10) = {9.503270000000001, 2.481807, 0};
Point(p14 + 11) = {9.288310742202313, 2.464889339513569, 0};
Point(p14 + 12) = {9.07864449474048, 2.414552927001948, 0};
Point(p14 + 13) = {8.879433936469393, 2.332037211998148, 0};
Point(p14 + 14) = {8.695584292475624, 2.21937400525952, 0};
Point(p14 + 15) = {8.531622551156286, 2.079337448843715, 0};
Point(p14 + 16) = {8.391585994740481, 1.915375707524376, 0};
Point(p14 + 17) = {8.278922788001854, 1.731526063530607, 0};
Point(p14 + 18) = {8.196407072998053, 1.53231550525952, 0};
Point(p14 + 19) = {8.146070660486432, 1.322649257797687, 0};
Point(p14 + 20) = {8.129153000000001, 1.10769, 0};
Point(p14 + 21) = {8.146070660486432, 0.8927307422023133, 0};
Point(p14 + 22) = {8.196407072998053, 0.68306449474048, 0};
Point(p14 + 23) = {8.278922788001854, 0.483853936469394, 0};
Point(p14 + 24) = {8.391585994740481, 0.3000042924756239, 0};
Point(p14 + 25) = {8.531622551156286, 0.1360425511562851, 0};
Point(p14 + 26) = {8.695584292475624, -0.00399400525951954, 0};
Point(p14 + 27) = {8.879433936469393, -0.1166572119981473, 0};
Point(p14 + 28) = {9.07864449474048, -0.1991729270019476, 0};
Point(p14 + 29) = {9.288310742202313, -0.2495093395135688, 0};
Point(p14 + 30) = {9.503270000000001, -0.266427, 0};
Point(p14 + 31) = {9.718229257797688, -0.2495093395135688, 0};
Point(p14 + 32) = {9.927895505259521, -0.1991729270019476, 0};
Point(p14 + 33) = {10.12710606353061, -0.1166572119981475, 0};
Point(p14 + 34) = {10.31095570752438, -0.003994005259519762, 0};
Point(p14 + 35) = {10.47491744884372, 0.1360425511562847, 0};
Point(p14 + 36) = {10.61495400525952, 0.3000042924756234, 0};
Point(p14 + 37) = {10.72761721199815, 0.483853936469393, 0};
Point(p14 + 38) = {10.81013292700195, 0.6830644947404801, 0};
Point(p14 + 39) = {10.86046933951357, 0.8927307422023129, 0};
Spline(14) = {10, p14 + 1, p14 + 2, p14 + 3, p14 + 4, p14 + 5, p14 + 6, p14 + 7, p14 + 8, p14 + 9, p14 + 10, p14 + 11, p14 + 12, p14 + 13, p14 + 14, p14 + 15, p14 + 16, p14 + 17, p14 + 18, p14 + 19, p14 + 20, p14 + 21, p14 + 22, p14 + 23, p14 + 24, p14 + 25, p14 + 26, p14 + 27, p14 + 28, p14 + 29, p14 + 30, p14 + 31, p14 + 32, p14 + 33, p14 + 34, p14 + 35, p14 + 36, p14 + 37, p14 + 38, p14 + 39, 10};
Line(15) = {10, 8};
Curve Loop(1) = {-1, 4, 3, -2};
Plane Surface(1) = {1};
Curve Loop(2) = {-5, 1, 7, -6};
Plane Surface(2) = {2};
Curve Loop(3) = {-2, 7, 9, -8, -10};
Plane Surface(3) = {3};
Curve Loop(4) = {-11, 3, 8, -12};
Plane Surface(4) = {4};
Curve Loop(5) = {-4, 5, 13, -11, -14};
Plane Surface(5) = {5};
Curve Loop(6) = {-6, 13, 12, -9};
Plane Surface(6) = {6};
Curve Loop(7) = {-10, -15, 14, 15};
Surface(7) = {7};
Surface Loop(1) = {1, 2, 3, 4, 5, 6, 7};
Volume(1) = {1};
Physical Surface("INFLOW") = {1};
Physical Surface("OUTFLOW") = {6};
Physical Surface("OBSTACLE") = {7};
Physical Surface("WALL_Y") = {2, 4};
Physical Surface("WALL_Z") = {3, 5};
Physical Volume("FLUID") = {1};
