cl__1 = 0.982827;
cl__2 = 0.740801;
cl__3 = 3.081385;
cl__4 = 0.06911;
Point(1) = {0.043806, -4.717244, 1, cl__1};
Point(2) = {0.043806, -4.717244, 0, cl__1};
Point(3) = {0.043806, 5.116183, 1, cl__2};
Point(4) = {0.043806, 5.116183, 0, cl__2};
Point(5) = {30.419059, -4.717244, 0, cl__3};
Point(6) = {30.419059, -4.717244, 1, cl__3};
Point(7) = {30.419059, 5.116183, 1, cl__3};
Point(8) = {8.396668999999999, 2.490718, 1, cl__4};
Point(9) = {30.419059, 5.116183, 0, cl__3};
Point(10) = {8.396668999999999, 2.490718, 0, cl__4};
Line(1) = {2, 1};
Line(2) = {1, 3};
Line(3) = {4, 3};
Line(4) = {2, 4};
Line(5) = {2, 5};
Line(6) = {5, 6};
Line(7) = {1, 6};
Line(8) = {3, 7};
Line(9) = {6, 7};
p10 = newp;
Point(p10 + 1) = {8.388160375250322, 2.598830328092699, 1};
Point(p10 + 2) = {8.36284401158113, 2.70428057186351, 1};
Point(p10 + 3) = {8.321343281886154, 2.8044721963415, 1};
Point(p10 + 4) = {8.264680071863509, 2.896938151215085, 1};
Point(p10 + 5) = {8.194249617798366, 2.979401617798367, 1};
Point(p10 + 6) = {8.111786151215085, 3.04983207186351, 1};
Point(p10 + 7) = {8.0193201963415, 3.106495281886154, 1};
Point(p10 + 8) = {7.919128571863509, 3.14799601158113, 1};
Point(p10 + 9) = {7.813678328092699, 3.173312375250322, 1};
Point(p10 + 10) = {7.705566, 3.181821, 1};
Point(p10 + 11) = {7.597453671907301, 3.173312375250322, 1};
Point(p10 + 12) = {7.492003428136491, 3.14799601158113, 1};
Point(p10 + 13) = {7.3918118036585, 3.106495281886154, 1};
Point(p10 + 14) = {7.299345848784915, 3.04983207186351, 1};
Point(p10 + 15) = {7.216882382201634, 2.979401617798367, 1};
Point(p10 + 16) = {7.146451928136491, 2.896938151215085, 1};
Point(p10 + 17) = {7.089788718113846, 2.8044721963415, 1};
Point(p10 + 18) = {7.04828798841887, 2.70428057186351, 1};
Point(p10 + 19) = {7.022971624749679, 2.598830328092699, 1};
Point(p10 + 20) = {7.014463, 2.490718, 1};
Point(p10 + 21) = {7.022971624749679, 2.382605671907302, 1};
Point(p10 + 22) = {7.04828798841887, 2.277155428136491, 1};
Point(p10 + 23) = {7.089788718113846, 2.1769638036585, 1};
Point(p10 + 24) = {7.146451928136491, 2.084497848784915, 1};
Point(p10 + 25) = {7.216882382201634, 2.002034382201634, 1};
Point(p10 + 26) = {7.299345848784915, 1.931603928136491, 1};
Point(p10 + 27) = {7.3918118036585, 1.874940718113847, 1};
Point(p10 + 28) = {7.492003428136491, 1.833439988418871, 1};
Point(p10 + 29) = {7.597453671907301, 1.808123624749679, 1};
Point(p10 + 30) = {7.705566, 1.799615, 1};
Point(p10 + 31) = {7.813678328092698, 1.808123624749679, 1};
Point(p10 + 32) = {7.919128571863509, 1.833439988418871, 1};
Point(p10 + 33) = {8.0193201963415, 1.874940718113847, 1};
Point(p10 + 34) = {8.111786151215085, 1.931603928136491, 1};
Point(p10 + 35) = {8.194249617798366, 2.002034382201634, 1};
Point(p10 + 36) = {8.264680071863509, 2.084497848784915, 1};
Point(p10 + 37) = {8.321343281886154, 2.1769638036585, 1};
Point(p10 + 38) = {8.36284401158113, 2.277155428136491, 1};
Point(p10 + 39) = {8.388160375250322, 2.382605671907301, 1};
Spline(10) = {8, p10 + 1, p10 + 2, p10 + 3, p10 + 4, p10 + 5, p10 + 6, p10 + 7, p10 + 8, p10 + 9, p10 + 10, p10 + 11, p10 + 12, p10 + 13, p10 + 14, p10 + 15, p10 + 16, p10 + 17, p10 + 18, p10 + 19, p10 + 20, p10 + 21, p10 + 22, p10 + 23, p10 + 24, p10 + 25, p10 + 26, p10 + 27, p10 + 28, p10 + 29, p10 + 30, p10 + 31, p10 + 32, p10 + 33, p10 + 34, p10 + 35, p10 + 36, p10 + 37, p10 + 38, p10 + 39, 8};
Line(11) = {4, 9};
Line(12) = {9, 7};
Line(13) = {5, 9};
p14 = newp;
Point(p14 + 1) = {8.388160375250322, 2.598830328092699, 0};
Point(p14 + 2) = {8.36284401158113, 2.70428057186351, 0};
Point(p14 + 3) = {8.321343281886154, 2.8044721963415, 0};
Point(p14 + 4) = {8.264680071863509, 2.896938151215085, 0};
Point(p14 + 5) = {8.194249617798366, 2.979401617798367, 0};
Point(p14 + 6) = {8.111786151215085, 3.04983207186351, 0};
Point(p14 + 7) = {8.0193201963415, 3.106495281886154, 0};
Point(p14 + 8) = {7.919128571863509, 3.14799601158113, 0};
Point(p14 + 9) = {7.813678328092699, 3.173312375250322, 0};
Point(p14 + 10) = {7.705566, 3.181821, 0};
Point(p14 + 11) = {7.597453671907301, 3.173312375250322, 0};
Point(p14 + 12) = {7.492003428136491, 3.14799601158113, 0};
Point(p14 + 13) = {7.3918118036585, 3.106495281886154, 0};
Point(p14 + 14) = {7.299345848784915, 3.04983207186351, 0};
Point(p14 + 15) = {7.216882382201634, 2.979401617798367, 0};
Point(p14 + 16) = {7.146451928136491, 2.896938151215085, 0};
Point(p14 + 17) = {7.089788718113846, 2.8044721963415, 0};
Point(p14 + 18) = {7.04828798841887, 2.70428057186351, 0};
Point(p14 + 19) = {7.022971624749679, 2.598830328092699, 0};
Point(p14 + 20) = {7.014463, 2.490718, 0};
Point(p14 + 21) = {7.022971624749679, 2.382605671907302, 0};
Point(p14 + 22) = {7.04828798841887, 2.277155428136491, 0};
Point(p14 + 23) = {7.089788718113846, 2.1769638036585, 0};
Point(p14 + 24) = {7.146451928136491, 2.084497848784915, 0};
Point(p14 + 25) = {7.216882382201634, 2.002034382201634, 0};
Point(p14 + 26) = {7.299345848784915, 1.931603928136491, 0};
Point(p14 + 27) = {7.3918118036585, 1.874940718113847, 0};
Point(p14 + 28) = {7.492003428136491, 1.833439988418871, 0};
Point(p14 + 29) = {7.597453671907301, 1.808123624749679, 0};
Point(p14 + 30) = {7.705566, 1.799615, 0};
Point(p14 + 31) = {7.813678328092698, 1.808123624749679, 0};
Point(p14 + 32) = {7.919128571863509, 1.833439988418871, 0};
Point(p14 + 33) = {8.0193201963415, 1.874940718113847, 0};
Point(p14 + 34) = {8.111786151215085, 1.931603928136491, 0};
Point(p14 + 35) = {8.194249617798366, 2.002034382201634, 0};
Point(p14 + 36) = {8.264680071863509, 2.084497848784915, 0};
Point(p14 + 37) = {8.321343281886154, 2.1769638036585, 0};
Point(p14 + 38) = {8.36284401158113, 2.277155428136491, 0};
Point(p14 + 39) = {8.388160375250322, 2.382605671907301, 0};
Spline(14) = {10, p14 + 1, p14 + 2, p14 + 3, p14 + 4, p14 + 5, p14 + 6, p14 + 7, p14 + 8, p14 + 9, p14 + 10, p14 + 11, p14 + 12, p14 + 13, p14 + 14, p14 + 15, p14 + 16, p14 + 17, p14 + 18, p14 + 19, p14 + 20, p14 + 21, p14 + 22, p14 + 23, p14 + 24, p14 + 25, p14 + 26, p14 + 27, p14 + 28, p14 + 29, p14 + 30, p14 + 31, p14 + 32, p14 + 33, p14 + 34, p14 + 35, p14 + 36, p14 + 37, p14 + 38, p14 + 39, 10};
Line(15) = {10, 8};
Curve Loop(1) = {-1, 4, 3, -2};
Plane Surface(1) = {1};
Curve Loop(2) = {-5, 1, 7, -6};
Plane Surface(2) = {2};
Curve Loop(3) = {-2, 7, 9, -8, -10};
Plane Surface(3) = {3};
Curve Loop(4) = {-11, 3, 8, -12};
Plane Surface(4) = {4};
Curve Loop(5) = {-4, 5, 13, -11, -14};
Plane Surface(5) = {5};
Curve Loop(6) = {-6, 13, 12, -9};
Plane Surface(6) = {6};
Curve Loop(7) = {-10, -15, 14, 15};
Surface(7) = {7};
Surface Loop(1) = {1, 2, 3, 4, 5, 6, 7};
Volume(1) = {1};
Physical Surface("INFLOW") = {1};
Physical Surface("OUTFLOW") = {6};
Physical Surface("OBSTACLE") = {7};
Physical Surface("WALL_Y") = {2, 4};
Physical Surface("WALL_Z") = {3, 5};
Physical Volume("FLUID") = {1};
