cl__1 = 1;
cl__2 = 0.054236;
cl__3 = 0.092612;
Point(1) = {0.545474, -4.254938, 1, cl__1};
Point(2) = {0.545474, -4.254938, 0, cl__1};
Point(3) = {0.545474, 4.89736, 1, cl__1};
Point(4) = {0.545474, 4.89736, 0, cl__1};
Point(5) = {30.800689, -4.254938, 0, cl__1};
Point(6) = {30.800689, -4.254938, 1, cl__1};
Point(7) = {30.800689, 4.89736, 1, cl__1};
Point(8) = {21.787586, -1.358686, 1, cl__2};
Point(9) = {10.3664, 0.9392239999999997, 1, cl__3};
Point(10) = {30.800689, 4.89736, 0, cl__1};
Point(11) = {21.787586, -1.358686, 0, cl__2};
Point(12) = {10.3664, 0.9392239999999997, 0, cl__3};
Line(1) = {2, 1};
Line(2) = {1, 3};
Line(3) = {4, 3};
Line(4) = {2, 4};
Line(5) = {2, 5};
Line(6) = {5, 6};
Line(7) = {1, 6};
Line(8) = {3, 7};
Line(9) = {6, 7};
p10 = newp;
Point(p10 + 1) = {21.78090870996348, -1.273842985713106, 1};
Point(p10 + 2) = {21.76104125689526, -1.191089088015775, 1};
Point(p10 + 3) = {21.72847284342618, -1.112461982513758, 1};
Point(p10 + 4) = {21.68400541198422, -1.039897729492916, 1};
Point(p10 + 5) = {21.62873389831043, -0.97518310168957, 1};
Point(p10 + 6) = {21.56401927050709, -0.9199115880157753, 1};
Point(p10 + 7) = {21.49145501748624, -0.8754441565738178, 1};
Point(p10 + 8) = {21.41282791198422, -0.842875743104742, 1};
Point(p10 + 9) = {21.33007401428689, -0.8230082900365241, 1};
Point(p10 + 10) = {21.245231, -0.816331, 1};
Point(p10 + 11) = {21.16038798571311, -0.8230082900365241, 1};
Point(p10 + 12) = {21.07763408801578, -0.842875743104742, 1};
Point(p10 + 13) = {20.99900698251376, -0.8754441565738178, 1};
Point(p10 + 14) = {20.92644272949292, -0.9199115880157753, 1};
Point(p10 + 15) = {20.86172810168957, -0.97518310168957, 1};
Point(p10 + 16) = {20.80645658801578, -1.039897729492916, 1};
Point(p10 + 17) = {20.76198915657382, -1.112461982513758, 1};
Point(p10 + 18) = {20.72942074310474, -1.191089088015775, 1};
Point(p10 + 19) = {20.70955329003652, -1.273842985713106, 1};
Point(p10 + 20) = {20.702876, -1.358686, 1};
Point(p10 + 21) = {20.70955329003652, -1.443529014286894, 1};
Point(p10 + 22) = {20.72942074310474, -1.526282911984225, 1};
Point(p10 + 23) = {20.76198915657382, -1.604910017486242, 1};
Point(p10 + 24) = {20.80645658801578, -1.677474270507084, 1};
Point(p10 + 25) = {20.86172810168957, -1.74218889831043, 1};
Point(p10 + 26) = {20.92644272949292, -1.797460411984225, 1};
Point(p10 + 27) = {20.99900698251376, -1.841927843426182, 1};
Point(p10 + 28) = {21.07763408801577, -1.874496256895258, 1};
Point(p10 + 29) = {21.16038798571311, -1.894363709963476, 1};
Point(p10 + 30) = {21.245231, -1.901041, 1};
Point(p10 + 31) = {21.33007401428689, -1.894363709963476, 1};
Point(p10 + 32) = {21.41282791198422, -1.874496256895258, 1};
Point(p10 + 33) = {21.49145501748624, -1.841927843426182, 1};
Point(p10 + 34) = {21.56401927050709, -1.797460411984225, 1};
Point(p10 + 35) = {21.62873389831043, -1.74218889831043, 1};
Point(p10 + 36) = {21.68400541198422, -1.677474270507084, 1};
Point(p10 + 37) = {21.72847284342618, -1.604910017486242, 1};
Point(p10 + 38) = {21.76104125689526, -1.526282911984225, 1};
Point(p10 + 39) = {21.78090870996348, -1.443529014286895, 1};
Spline(10) = {8, p10 + 1, p10 + 2, p10 + 3, p10 + 4, p10 + 5, p10 + 6, p10 + 7, p10 + 8, p10 + 9, p10 + 10, p10 + 11, p10 + 12, p10 + 13, p10 + 14, p10 + 15, p10 + 16, p10 + 17, p10 + 18, p10 + 19, p10 + 20, p10 + 21, p10 + 22, p10 + 23, p10 + 24, p10 + 25, p10 + 26, p10 + 27, p10 + 28, p10 + 29, p10 + 30, p10 + 31, p10 + 32, p10 + 33, p10 + 34, p10 + 35, p10 + 36, p10 + 37, p10 + 38, p10 + 39, 8};
p11 = newp;
Point(p11 + 1) = {10.35499797523861, 1.084100461025198, 1};
Point(p11 + 2) = {10.3210726566452, 1.225409582762549, 1};
Point(p11 + 3) = {10.26545939815523, 1.35967186565679, 1};
Point(p11 + 4) = {10.18952758276255, 1.483581326712096, 1};
Point(p11 + 5) = {10.09514690376536, 1.594086903765361, 1};
Point(p11 + 6) = {9.984641326712095, 1.688467582762549, 1};
Point(p11 + 7) = {9.86073186565679, 1.764399398155234, 1};
Point(p11 + 8) = {9.726469582762549, 1.820012656645202, 1};
Point(p11 + 9) = {9.585160461025199, 1.853937975238606, 1};
Point(p11 + 10) = {9.440284, 1.86534, 1};
Point(p11 + 11) = {9.295407538974802, 1.853937975238606, 1};
Point(p11 + 12) = {9.154098417237451, 1.820012656645202, 1};
Point(p11 + 13) = {9.01983613434321, 1.764399398155235, 1};
Point(p11 + 14) = {8.895926673287905, 1.688467582762549, 1};
Point(p11 + 15) = {8.785421096234639, 1.594086903765361, 1};
Point(p11 + 16) = {8.691040417237451, 1.483581326712096, 1};
Point(p11 + 17) = {8.615108601844765, 1.35967186565679, 1};
Point(p11 + 18) = {8.559495343354797, 1.225409582762549, 1};
Point(p11 + 19) = {8.525570024761393, 1.084100461025199, 1};
Point(p11 + 20) = {8.514168, 0.9392240000000001, 1};
Point(p11 + 21) = {8.525570024761393, 0.7943475389748016, 1};
Point(p11 + 22) = {8.559495343354797, 0.6530384172374508, 1};
Point(p11 + 23) = {8.615108601844765, 0.5187761343432102, 1};
Point(p11 + 24) = {8.691040417237451, 0.3948666732879039, 1};
Point(p11 + 25) = {8.785421096234639, 0.2843610962346393, 1};
Point(p11 + 26) = {8.895926673287905, 0.1899804172374512, 1};
Point(p11 + 27) = {9.01983613434321, 0.1140486018447655, 1};
Point(p11 + 28) = {9.154098417237451, 0.0584353433547975, 1};
Point(p11 + 29) = {9.295407538974802, 0.02451002476139341, 1};
Point(p11 + 30) = {9.440284, 0.0131079999999999, 1};
Point(p11 + 31) = {9.585160461025199, 0.0245100247613933, 1};
Point(p11 + 32) = {9.726469582762549, 0.05843534335479739, 1};
Point(p11 + 33) = {9.86073186565679, 0.1140486018447654, 1};
Point(p11 + 34) = {9.984641326712095, 0.189980417237451, 1};
Point(p11 + 35) = {10.09514690376536, 0.2843610962346391, 1};
Point(p11 + 36) = {10.18952758276255, 0.3948666732879037, 1};
Point(p11 + 37) = {10.26545939815523, 0.5187761343432096, 1};
Point(p11 + 38) = {10.3210726566452, 0.6530384172374509, 1};
Point(p11 + 39) = {10.35499797523861, 0.7943475389748013, 1};
Spline(11) = {9, p11 + 1, p11 + 2, p11 + 3, p11 + 4, p11 + 5, p11 + 6, p11 + 7, p11 + 8, p11 + 9, p11 + 10, p11 + 11, p11 + 12, p11 + 13, p11 + 14, p11 + 15, p11 + 16, p11 + 17, p11 + 18, p11 + 19, p11 + 20, p11 + 21, p11 + 22, p11 + 23, p11 + 24, p11 + 25, p11 + 26, p11 + 27, p11 + 28, p11 + 29, p11 + 30, p11 + 31, p11 + 32, p11 + 33, p11 + 34, p11 + 35, p11 + 36, p11 + 37, p11 + 38, p11 + 39, 9};
Line(12) = {4, 10};
Line(13) = {10, 7};
Line(14) = {5, 10};
p15 = newp;
Point(p15 + 1) = {21.78090870996348, -1.273842985713106, 0};
Point(p15 + 2) = {21.76104125689526, -1.191089088015775, 0};
Point(p15 + 3) = {21.72847284342618, -1.112461982513758, 0};
Point(p15 + 4) = {21.68400541198422, -1.039897729492916, 0};
Point(p15 + 5) = {21.62873389831043, -0.97518310168957, 0};
Point(p15 + 6) = {21.56401927050709, -0.9199115880157753, 0};
Point(p15 + 7) = {21.49145501748624, -0.8754441565738178, 0};
Point(p15 + 8) = {21.41282791198422, -0.842875743104742, 0};
Point(p15 + 9) = {21.33007401428689, -0.8230082900365241, 0};
Point(p15 + 10) = {21.245231, -0.816331, 0};
Point(p15 + 11) = {21.16038798571311, -0.8230082900365241, 0};
Point(p15 + 12) = {21.07763408801578, -0.842875743104742, 0};
Point(p15 + 13) = {20.99900698251376, -0.8754441565738178, 0};
Point(p15 + 14) = {20.92644272949292, -0.9199115880157753, 0};
Point(p15 + 15) = {20.86172810168957, -0.97518310168957, 0};
Point(p15 + 16) = {20.80645658801578, -1.039897729492916, 0};
Point(p15 + 17) = {20.76198915657382, -1.112461982513758, 0};
Point(p15 + 18) = {20.72942074310474, -1.191089088015775, 0};
Point(p15 + 19) = {20.70955329003652, -1.273842985713106, 0};
Point(p15 + 20) = {20.702876, -1.358686, 0};
Point(p15 + 21) = {20.70955329003652, -1.443529014286894, 0};
Point(p15 + 22) = {20.72942074310474, -1.526282911984225, 0};
Point(p15 + 23) = {20.76198915657382, -1.604910017486242, 0};
Point(p15 + 24) = {20.80645658801578, -1.677474270507084, 0};
Point(p15 + 25) = {20.86172810168957, -1.74218889831043, 0};
Point(p15 + 26) = {20.92644272949292, -1.797460411984225, 0};
Point(p15 + 27) = {20.99900698251376, -1.841927843426182, 0};
Point(p15 + 28) = {21.07763408801577, -1.874496256895258, 0};
Point(p15 + 29) = {21.16038798571311, -1.894363709963476, 0};
Point(p15 + 30) = {21.245231, -1.901041, 0};
Point(p15 + 31) = {21.33007401428689, -1.894363709963476, 0};
Point(p15 + 32) = {21.41282791198422, -1.874496256895258, 0};
Point(p15 + 33) = {21.49145501748624, -1.841927843426182, 0};
Point(p15 + 34) = {21.56401927050709, -1.797460411984225, 0};
Point(p15 + 35) = {21.62873389831043, -1.74218889831043, 0};
Point(p15 + 36) = {21.68400541198422, -1.677474270507084, 0};
Point(p15 + 37) = {21.72847284342618, -1.604910017486242, 0};
Point(p15 + 38) = {21.76104125689526, -1.526282911984225, 0};
Point(p15 + 39) = {21.78090870996348, -1.443529014286895, 0};
Spline(15) = {11, p15 + 1, p15 + 2, p15 + 3, p15 + 4, p15 + 5, p15 + 6, p15 + 7, p15 + 8, p15 + 9, p15 + 10, p15 + 11, p15 + 12, p15 + 13, p15 + 14, p15 + 15, p15 + 16, p15 + 17, p15 + 18, p15 + 19, p15 + 20, p15 + 21, p15 + 22, p15 + 23, p15 + 24, p15 + 25, p15 + 26, p15 + 27, p15 + 28, p15 + 29, p15 + 30, p15 + 31, p15 + 32, p15 + 33, p15 + 34, p15 + 35, p15 + 36, p15 + 37, p15 + 38, p15 + 39, 11};
p16 = newp;
Point(p16 + 1) = {10.35499797523861, 1.084100461025198, 0};
Point(p16 + 2) = {10.3210726566452, 1.225409582762549, 0};
Point(p16 + 3) = {10.26545939815523, 1.35967186565679, 0};
Point(p16 + 4) = {10.18952758276255, 1.483581326712096, 0};
Point(p16 + 5) = {10.09514690376536, 1.594086903765361, 0};
Point(p16 + 6) = {9.984641326712095, 1.688467582762549, 0};
Point(p16 + 7) = {9.86073186565679, 1.764399398155234, 0};
Point(p16 + 8) = {9.726469582762549, 1.820012656645202, 0};
Point(p16 + 9) = {9.585160461025199, 1.853937975238606, 0};
Point(p16 + 10) = {9.440284, 1.86534, 0};
Point(p16 + 11) = {9.295407538974802, 1.853937975238606, 0};
Point(p16 + 12) = {9.154098417237451, 1.820012656645202, 0};
Point(p16 + 13) = {9.01983613434321, 1.764399398155235, 0};
Point(p16 + 14) = {8.895926673287905, 1.688467582762549, 0};
Point(p16 + 15) = {8.785421096234639, 1.594086903765361, 0};
Point(p16 + 16) = {8.691040417237451, 1.483581326712096, 0};
Point(p16 + 17) = {8.615108601844765, 1.35967186565679, 0};
Point(p16 + 18) = {8.559495343354797, 1.225409582762549, 0};
Point(p16 + 19) = {8.525570024761393, 1.084100461025199, 0};
Point(p16 + 20) = {8.514168, 0.9392240000000001, 0};
Point(p16 + 21) = {8.525570024761393, 0.7943475389748016, 0};
Point(p16 + 22) = {8.559495343354797, 0.6530384172374508, 0};
Point(p16 + 23) = {8.615108601844765, 0.5187761343432102, 0};
Point(p16 + 24) = {8.691040417237451, 0.3948666732879039, 0};
Point(p16 + 25) = {8.785421096234639, 0.2843610962346393, 0};
Point(p16 + 26) = {8.895926673287905, 0.1899804172374512, 0};
Point(p16 + 27) = {9.01983613434321, 0.1140486018447655, 0};
Point(p16 + 28) = {9.154098417237451, 0.0584353433547975, 0};
Point(p16 + 29) = {9.295407538974802, 0.02451002476139341, 0};
Point(p16 + 30) = {9.440284, 0.0131079999999999, 0};
Point(p16 + 31) = {9.585160461025199, 0.0245100247613933, 0};
Point(p16 + 32) = {9.726469582762549, 0.05843534335479739, 0};
Point(p16 + 33) = {9.86073186565679, 0.1140486018447654, 0};
Point(p16 + 34) = {9.984641326712095, 0.189980417237451, 0};
Point(p16 + 35) = {10.09514690376536, 0.2843610962346391, 0};
Point(p16 + 36) = {10.18952758276255, 0.3948666732879037, 0};
Point(p16 + 37) = {10.26545939815523, 0.5187761343432096, 0};
Point(p16 + 38) = {10.3210726566452, 0.6530384172374509, 0};
Point(p16 + 39) = {10.35499797523861, 0.7943475389748013, 0};
Spline(16) = {12, p16 + 1, p16 + 2, p16 + 3, p16 + 4, p16 + 5, p16 + 6, p16 + 7, p16 + 8, p16 + 9, p16 + 10, p16 + 11, p16 + 12, p16 + 13, p16 + 14, p16 + 15, p16 + 16, p16 + 17, p16 + 18, p16 + 19, p16 + 20, p16 + 21, p16 + 22, p16 + 23, p16 + 24, p16 + 25, p16 + 26, p16 + 27, p16 + 28, p16 + 29, p16 + 30, p16 + 31, p16 + 32, p16 + 33, p16 + 34, p16 + 35, p16 + 36, p16 + 37, p16 + 38, p16 + 39, 12};
Line(17) = {11, 8};
Line(18) = {12, 9};
Curve Loop(1) = {-1, 4, 3, -2};
Plane Surface(1) = {1};
Curve Loop(2) = {-5, 1, 7, -6};
Plane Surface(2) = {2};
Curve Loop(3) = {-2, 7, 9, -8, -10, -11};
Plane Surface(3) = {3};
Curve Loop(4) = {-12, 3, 8, -13};
Plane Surface(4) = {4};
Curve Loop(5) = {-4, 5, 14, -12, -15, -16};
Plane Surface(5) = {5};
Curve Loop(6) = {-6, 14, 13, -9};
Plane Surface(6) = {6};
Curve Loop(7) = {-10, -17, 15, 17};
Surface(7) = {7};
Curve Loop(8) = {-11, -18, 16, 18};
Surface(8) = {8};
Surface Loop(1) = {1, 2, 3, 4, 5, 6, 7, 8};
Volume(1) = {1};
Physical Surface("INFLOW") = {1};
Physical Surface("OUTFLOW") = {6};
Physical Surface("OBSTACLE") = {7, 8};
Physical Surface("WALL_Y") = {2, 4};
Physical Surface("WALL_Z") = {3, 5};
Physical Volume("FLUID") = {1};
