cl__1 = 1;
cl__2 = 0.09228699999999999;
cl__3 = 0.108948;
Point(1) = {0.806687, -3.908152, 1, cl__1};
Point(2) = {0.806687, -3.908152, 0, cl__1};
Point(3) = {0.806687, 4.566725, 1, cl__1};
Point(4) = {0.806687, 4.566725, 0, cl__1};
Point(5) = {35.843262, -3.908152, 0, cl__1};
Point(6) = {35.843262, -3.908152, 1, cl__1};
Point(7) = {35.843262, 4.566725, 1, cl__1};
Point(8) = {27.747043, -2.237892, 1, cl__2};
Point(9) = {16.841713, -2.082227, 1, cl__3};
Point(10) = {35.843262, 4.566725, 0, cl__1};
Point(11) = {27.747043, -2.237892, 0, cl__2};
Point(12) = {16.841713, -2.082227, 0, cl__3};
Line(1) = {2, 1};
Line(2) = {1, 3};
Line(3) = {4, 3};
Line(4) = {2, 4};
Line(5) = {2, 5};
Line(6) = {5, 6};
Line(7) = {1, 6};
Line(8) = {3, 7};
Line(9) = {6, 7};
p10 = newp;
Point(p10 + 1) = {27.7356809511967, -2.093523481682787, 1};
Point(p10 + 2) = {27.70187457613679, -1.952709795418187, 1};
Point(p10 + 3) = {27.6464562999712, -1.818918241495864, 1};
Point(p10 + 4) = {27.57079070458181, -1.695443212002098, 1};
Point(p10 + 5) = {27.47674092804685, -1.585325071953152, 1};
Point(p10 + 6) = {27.3666227879979, -1.491275295418187, 1};
Point(p10 + 7) = {27.24314775850414, -1.415609700028805, 1};
Point(p10 + 8) = {27.10935620458181, -1.360191423863208, 1};
Point(p10 + 9) = {26.96854251831721, -1.326385048803306, 1};
Point(p10 + 10) = {26.824174, -1.315023, 1};
Point(p10 + 11) = {26.67980548168279, -1.326385048803306, 1};
Point(p10 + 12) = {26.53899179541819, -1.360191423863208, 1};
Point(p10 + 13) = {26.40520024149586, -1.415609700028805, 1};
Point(p10 + 14) = {26.2817252120021, -1.491275295418187, 1};
Point(p10 + 15) = {26.17160707195315, -1.585325071953152, 1};
Point(p10 + 16) = {26.07755729541818, -1.695443212002097, 1};
Point(p10 + 17) = {26.0018917000288, -1.818918241495864, 1};
Point(p10 + 18) = {25.94647342386321, -1.952709795418186, 1};
Point(p10 + 19) = {25.9126670488033, -2.093523481682787, 1};
Point(p10 + 20) = {25.901305, -2.237892, 1};
Point(p10 + 21) = {25.9126670488033, -2.382260518317213, 1};
Point(p10 + 22) = {25.94647342386321, -2.523074204581814, 1};
Point(p10 + 23) = {26.0018917000288, -2.656865758504135, 1};
Point(p10 + 24) = {26.07755729541818, -2.780340787997902, 1};
Point(p10 + 25) = {26.17160707195315, -2.890458928046848, 1};
Point(p10 + 26) = {26.2817252120021, -2.984508704581813, 1};
Point(p10 + 27) = {26.40520024149586, -3.060174299971195, 1};
Point(p10 + 28) = {26.53899179541819, -3.115592576136792, 1};
Point(p10 + 29) = {26.67980548168279, -3.149398951196694, 1};
Point(p10 + 30) = {26.824174, -3.160761, 1};
Point(p10 + 31) = {26.96854251831721, -3.149398951196694, 1};
Point(p10 + 32) = {27.10935620458181, -3.115592576136792, 1};
Point(p10 + 33) = {27.24314775850414, -3.060174299971195, 1};
Point(p10 + 34) = {27.3666227879979, -2.984508704581813, 1};
Point(p10 + 35) = {27.47674092804685, -2.890458928046848, 1};
Point(p10 + 36) = {27.57079070458181, -2.780340787997903, 1};
Point(p10 + 37) = {27.6464562999712, -2.656865758504136, 1};
Point(p10 + 38) = {27.70187457613679, -2.523074204581814, 1};
Point(p10 + 39) = {27.7356809511967, -2.382260518317213, 1};
Spline(10) = {8, p10 + 1, p10 + 2, p10 + 3, p10 + 4, p10 + 5, p10 + 6, p10 + 7, p10 + 8, p10 + 9, p10 + 10, p10 + 11, p10 + 12, p10 + 13, p10 + 14, p10 + 15, p10 + 16, p10 + 17, p10 + 18, p10 + 19, p10 + 20, p10 + 21, p10 + 22, p10 + 23, p10 + 24, p10 + 25, p10 + 26, p10 + 27, p10 + 28, p10 + 29, p10 + 30, p10 + 31, p10 + 32, p10 + 33, p10 + 34, p10 + 35, p10 + 36, p10 + 37, p10 + 38, p10 + 39, 8};
p11 = newp;
Point(p11 + 1) = {16.82829968099993, -1.911794622593504, 1};
Point(p11 + 2) = {16.78839000442976, -1.745558855951388, 1};
Point(p11 + 3) = {16.72296667897927, -1.587612976353259, 1};
Point(p11 + 4) = {16.63364064404861, -1.441846135547144, 1};
Point(p11 + 5) = {16.5226114030739, -1.311847596926099, 1};
Point(p11 + 6) = {16.39261286445285, -1.200818355951388, 1};
Point(p11 + 7) = {16.24684602364674, -1.111492321020733, 1};
Point(p11 + 8) = {16.08890014404861, -1.04606899557024, 1};
Point(p11 + 9) = {15.92266437740649, -1.006159319000069, 1};
Point(p11 + 10) = {15.752232, -0.9927460000000001, 1};
Point(p11 + 11) = {15.5817996225935, -1.006159319000069, 1};
Point(p11 + 12) = {15.41556385595139, -1.04606899557024, 1};
Point(p11 + 13) = {15.25761797635326, -1.111492321020733, 1};
Point(p11 + 14) = {15.11185113554714, -1.200818355951388, 1};
Point(p11 + 15) = {14.9818525969261, -1.311847596926099, 1};
Point(p11 + 16) = {14.87082335595139, -1.441846135547144, 1};
Point(p11 + 17) = {14.78149732102073, -1.587612976353259, 1};
Point(p11 + 18) = {14.71607399557024, -1.745558855951388, 1};
Point(p11 + 19) = {14.67616431900007, -1.911794622593504, 1};
Point(p11 + 20) = {14.662751, -2.082227, 1};
Point(p11 + 21) = {14.67616431900007, -2.252659377406496, 1};
Point(p11 + 22) = {14.71607399557024, -2.418895144048613, 1};
Point(p11 + 23) = {14.78149732102073, -2.576841023646741, 1};
Point(p11 + 24) = {14.87082335595139, -2.722607864452856, 1};
Point(p11 + 25) = {14.9818525969261, -2.852606403073901, 1};
Point(p11 + 26) = {15.11185113554714, -2.963635644048612, 1};
Point(p11 + 27) = {15.25761797635326, -3.052961678979267, 1};
Point(p11 + 28) = {15.41556385595139, -3.11838500442976, 1};
Point(p11 + 29) = {15.5817996225935, -3.158294680999931, 1};
Point(p11 + 30) = {15.752232, -3.171708, 1};
Point(p11 + 31) = {15.92266437740649, -3.158294680999931, 1};
Point(p11 + 32) = {16.08890014404861, -3.118385004429761, 1};
Point(p11 + 33) = {16.24684602364674, -3.052961678979267, 1};
Point(p11 + 34) = {16.39261286445285, -2.963635644048612, 1};
Point(p11 + 35) = {16.5226114030739, -2.852606403073901, 1};
Point(p11 + 36) = {16.63364064404861, -2.722607864452856, 1};
Point(p11 + 37) = {16.72296667897927, -2.576841023646741, 1};
Point(p11 + 38) = {16.78839000442976, -2.418895144048612, 1};
Point(p11 + 39) = {16.82829968099993, -2.252659377406496, 1};
Spline(11) = {9, p11 + 1, p11 + 2, p11 + 3, p11 + 4, p11 + 5, p11 + 6, p11 + 7, p11 + 8, p11 + 9, p11 + 10, p11 + 11, p11 + 12, p11 + 13, p11 + 14, p11 + 15, p11 + 16, p11 + 17, p11 + 18, p11 + 19, p11 + 20, p11 + 21, p11 + 22, p11 + 23, p11 + 24, p11 + 25, p11 + 26, p11 + 27, p11 + 28, p11 + 29, p11 + 30, p11 + 31, p11 + 32, p11 + 33, p11 + 34, p11 + 35, p11 + 36, p11 + 37, p11 + 38, p11 + 39, 9};
Line(12) = {4, 10};
Line(13) = {10, 7};
Line(14) = {5, 10};
p15 = newp;
Point(p15 + 1) = {27.7356809511967, -2.093523481682787, 0};
Point(p15 + 2) = {27.70187457613679, -1.952709795418187, 0};
Point(p15 + 3) = {27.6464562999712, -1.818918241495864, 0};
Point(p15 + 4) = {27.57079070458181, -1.695443212002098, 0};
Point(p15 + 5) = {27.47674092804685, -1.585325071953152, 0};
Point(p15 + 6) = {27.3666227879979, -1.491275295418187, 0};
Point(p15 + 7) = {27.24314775850414, -1.415609700028805, 0};
Point(p15 + 8) = {27.10935620458181, -1.360191423863208, 0};
Point(p15 + 9) = {26.96854251831721, -1.326385048803306, 0};
Point(p15 + 10) = {26.824174, -1.315023, 0};
Point(p15 + 11) = {26.67980548168279, -1.326385048803306, 0};
Point(p15 + 12) = {26.53899179541819, -1.360191423863208, 0};
Point(p15 + 13) = {26.40520024149586, -1.415609700028805, 0};
Point(p15 + 14) = {26.2817252120021, -1.491275295418187, 0};
Point(p15 + 15) = {26.17160707195315, -1.585325071953152, 0};
Point(p15 + 16) = {26.07755729541818, -1.695443212002097, 0};
Point(p15 + 17) = {26.0018917000288, -1.818918241495864, 0};
Point(p15 + 18) = {25.94647342386321, -1.952709795418186, 0};
Point(p15 + 19) = {25.9126670488033, -2.093523481682787, 0};
Point(p15 + 20) = {25.901305, -2.237892, 0};
Point(p15 + 21) = {25.9126670488033, -2.382260518317213, 0};
Point(p15 + 22) = {25.94647342386321, -2.523074204581814, 0};
Point(p15 + 23) = {26.0018917000288, -2.656865758504135, 0};
Point(p15 + 24) = {26.07755729541818, -2.780340787997902, 0};
Point(p15 + 25) = {26.17160707195315, -2.890458928046848, 0};
Point(p15 + 26) = {26.2817252120021, -2.984508704581813, 0};
Point(p15 + 27) = {26.40520024149586, -3.060174299971195, 0};
Point(p15 + 28) = {26.53899179541819, -3.115592576136792, 0};
Point(p15 + 29) = {26.67980548168279, -3.149398951196694, 0};
Point(p15 + 30) = {26.824174, -3.160761, 0};
Point(p15 + 31) = {26.96854251831721, -3.149398951196694, 0};
Point(p15 + 32) = {27.10935620458181, -3.115592576136792, 0};
Point(p15 + 33) = {27.24314775850414, -3.060174299971195, 0};
Point(p15 + 34) = {27.3666227879979, -2.984508704581813, 0};
Point(p15 + 35) = {27.47674092804685, -2.890458928046848, 0};
Point(p15 + 36) = {27.57079070458181, -2.780340787997903, 0};
Point(p15 + 37) = {27.6464562999712, -2.656865758504136, 0};
Point(p15 + 38) = {27.70187457613679, -2.523074204581814, 0};
Point(p15 + 39) = {27.7356809511967, -2.382260518317213, 0};
Spline(15) = {11, p15 + 1, p15 + 2, p15 + 3, p15 + 4, p15 + 5, p15 + 6, p15 + 7, p15 + 8, p15 + 9, p15 + 10, p15 + 11, p15 + 12, p15 + 13, p15 + 14, p15 + 15, p15 + 16, p15 + 17, p15 + 18, p15 + 19, p15 + 20, p15 + 21, p15 + 22, p15 + 23, p15 + 24, p15 + 25, p15 + 26, p15 + 27, p15 + 28, p15 + 29, p15 + 30, p15 + 31, p15 + 32, p15 + 33, p15 + 34, p15 + 35, p15 + 36, p15 + 37, p15 + 38, p15 + 39, 11};
p16 = newp;
Point(p16 + 1) = {16.82829968099993, -1.911794622593504, 0};
Point(p16 + 2) = {16.78839000442976, -1.745558855951388, 0};
Point(p16 + 3) = {16.72296667897927, -1.587612976353259, 0};
Point(p16 + 4) = {16.63364064404861, -1.441846135547144, 0};
Point(p16 + 5) = {16.5226114030739, -1.311847596926099, 0};
Point(p16 + 6) = {16.39261286445285, -1.200818355951388, 0};
Point(p16 + 7) = {16.24684602364674, -1.111492321020733, 0};
Point(p16 + 8) = {16.08890014404861, -1.04606899557024, 0};
Point(p16 + 9) = {15.92266437740649, -1.006159319000069, 0};
Point(p16 + 10) = {15.752232, -0.9927460000000001, 0};
Point(p16 + 11) = {15.5817996225935, -1.006159319000069, 0};
Point(p16 + 12) = {15.41556385595139, -1.04606899557024, 0};
Point(p16 + 13) = {15.25761797635326, -1.111492321020733, 0};
Point(p16 + 14) = {15.11185113554714, -1.200818355951388, 0};
Point(p16 + 15) = {14.9818525969261, -1.311847596926099, 0};
Point(p16 + 16) = {14.87082335595139, -1.441846135547144, 0};
Point(p16 + 17) = {14.78149732102073, -1.587612976353259, 0};
Point(p16 + 18) = {14.71607399557024, -1.745558855951388, 0};
Point(p16 + 19) = {14.67616431900007, -1.911794622593504, 0};
Point(p16 + 20) = {14.662751, -2.082227, 0};
Point(p16 + 21) = {14.67616431900007, -2.252659377406496, 0};
Point(p16 + 22) = {14.71607399557024, -2.418895144048613, 0};
Point(p16 + 23) = {14.78149732102073, -2.576841023646741, 0};
Point(p16 + 24) = {14.87082335595139, -2.722607864452856, 0};
Point(p16 + 25) = {14.9818525969261, -2.852606403073901, 0};
Point(p16 + 26) = {15.11185113554714, -2.963635644048612, 0};
Point(p16 + 27) = {15.25761797635326, -3.052961678979267, 0};
Point(p16 + 28) = {15.41556385595139, -3.11838500442976, 0};
Point(p16 + 29) = {15.5817996225935, -3.158294680999931, 0};
Point(p16 + 30) = {15.752232, -3.171708, 0};
Point(p16 + 31) = {15.92266437740649, -3.158294680999931, 0};
Point(p16 + 32) = {16.08890014404861, -3.118385004429761, 0};
Point(p16 + 33) = {16.24684602364674, -3.052961678979267, 0};
Point(p16 + 34) = {16.39261286445285, -2.963635644048612, 0};
Point(p16 + 35) = {16.5226114030739, -2.852606403073901, 0};
Point(p16 + 36) = {16.63364064404861, -2.722607864452856, 0};
Point(p16 + 37) = {16.72296667897927, -2.576841023646741, 0};
Point(p16 + 38) = {16.78839000442976, -2.418895144048612, 0};
Point(p16 + 39) = {16.82829968099993, -2.252659377406496, 0};
Spline(16) = {12, p16 + 1, p16 + 2, p16 + 3, p16 + 4, p16 + 5, p16 + 6, p16 + 7, p16 + 8, p16 + 9, p16 + 10, p16 + 11, p16 + 12, p16 + 13, p16 + 14, p16 + 15, p16 + 16, p16 + 17, p16 + 18, p16 + 19, p16 + 20, p16 + 21, p16 + 22, p16 + 23, p16 + 24, p16 + 25, p16 + 26, p16 + 27, p16 + 28, p16 + 29, p16 + 30, p16 + 31, p16 + 32, p16 + 33, p16 + 34, p16 + 35, p16 + 36, p16 + 37, p16 + 38, p16 + 39, 12};
Line(17) = {11, 8};
Line(18) = {12, 9};
Curve Loop(1) = {-1, 4, 3, -2};
Plane Surface(1) = {1};
Curve Loop(2) = {-5, 1, 7, -6};
Plane Surface(2) = {2};
Curve Loop(3) = {-2, 7, 9, -8, -10, -11};
Plane Surface(3) = {3};
Curve Loop(4) = {-12, 3, 8, -13};
Plane Surface(4) = {4};
Curve Loop(5) = {-4, 5, 14, -12, -15, -16};
Plane Surface(5) = {5};
Curve Loop(6) = {-6, 14, 13, -9};
Plane Surface(6) = {6};
Curve Loop(7) = {-10, -17, 15, 17};
Surface(7) = {7};
Curve Loop(8) = {-11, -18, 16, 18};
Surface(8) = {8};
Surface Loop(1) = {1, 2, 3, 4, 5, 6, 7, 8};
Volume(1) = {1};
Physical Surface("INFLOW") = {1};
Physical Surface("OUTFLOW") = {6};
Physical Surface("OBSTACLE") = {7, 8};
Physical Surface("WALL_Y") = {2, 4};
Physical Surface("WALL_Z") = {3, 5};
Physical Volume("FLUID") = {1};
