cl__1 = 1.420506;
cl__2 = 3.539914;
cl__3 = 0.374171;
cl__4 = 0.143476;
cl__5 = 0.072127;
Point(1) = {0.35926, -4.110035, 1, cl__1};
Point(2) = {0.35926, -4.110035, 0, cl__1};
Point(3) = {0.35926, 4.633158, 1, cl__2};
Point(4) = {0.35926, 4.633158, 0, cl__2};
Point(5) = {35.128166, -4.110035, 0, cl__3};
Point(6) = {35.128166, -4.110035, 1, cl__3};
Point(7) = {35.128166, 4.633158, 1, cl__2};
Point(8) = {6.560755, -2.091598, 1, cl__4};
Point(9) = {15.261881, 0.5466659999999998, 1, cl__5};
Point(10) = {35.128166, 4.633158, 0, cl__2};
Point(11) = {6.560755, -2.091598, 0, cl__4};
Point(12) = {15.261881, 0.5466659999999998, 0, cl__5};
Line(1) = {2, 1};
Line(2) = {1, 3};
Line(3) = {4, 3};
Line(4) = {2, 4};
Line(5) = {2, 5};
Line(6) = {5, 6};
Line(7) = {1, 6};
Line(8) = {3, 7};
Line(9) = {6, 7};
p10 = newp;
Point(p10 + 1) = {6.543090748175599, -1.867152399807808, 1};
Point(p10 + 2) = {6.490532945206602, -1.648233395184589, 1};
Point(p10 + 3) = {6.404375738631455, -1.440231498574687, 1};
Point(p10 + 4) = {6.286740604815411, -1.248268406991356, 1};
Point(p10 + 5) = {6.140524111161648, -1.077070888838351, 1};
Point(p10 + 6) = {5.969326593008644, -0.9308543951845889, 1};
Point(p10 + 7) = {5.777363501425313, -0.8132192613685456, 1};
Point(p10 + 8) = {5.569361604815411, -0.7270620547933979, 1};
Point(p10 + 9) = {5.350442600192191, -0.6745042518244011, 1};
Point(p10 + 10) = {5.125997, -0.6568399999999999, 1};
Point(p10 + 11) = {4.901551399807808, -0.6745042518244013, 1};
Point(p10 + 12) = {4.682632395184589, -0.7270620547933979, 1};
Point(p10 + 13) = {4.474630498574688, -0.8132192613685456, 1};
Point(p10 + 14) = {4.282667406991356, -0.9308543951845889, 1};
Point(p10 + 15) = {4.111469888838352, -1.077070888838351, 1};
Point(p10 + 16) = {3.965253395184589, -1.248268406991356, 1};
Point(p10 + 17) = {3.847618261368546, -1.440231498574687, 1};
Point(p10 + 18) = {3.761461054793398, -1.648233395184589, 1};
Point(p10 + 19) = {3.708903251824402, -1.867152399807808, 1};
Point(p10 + 20) = {3.691239, -2.091598, 1};
Point(p10 + 21) = {3.708903251824401, -2.316043600192191, 1};
Point(p10 + 22) = {3.761461054793398, -2.534962604815411, 1};
Point(p10 + 23) = {3.847618261368545, -2.742964501425312, 1};
Point(p10 + 24) = {3.965253395184589, -2.934927593008644, 1};
Point(p10 + 25) = {4.111469888838351, -3.106125111161648, 1};
Point(p10 + 26) = {4.282667406991355, -3.252341604815411, 1};
Point(p10 + 27) = {4.474630498574687, -3.369976738631454, 1};
Point(p10 + 28) = {4.682632395184589, -3.456133945206602, 1};
Point(p10 + 29) = {4.901551399807808, -3.508691748175599, 1};
Point(p10 + 30) = {5.125997, -3.526356, 1};
Point(p10 + 31) = {5.350442600192191, -3.508691748175599, 1};
Point(p10 + 32) = {5.569361604815411, -3.456133945206602, 1};
Point(p10 + 33) = {5.777363501425312, -3.369976738631454, 1};
Point(p10 + 34) = {5.969326593008644, -3.252341604815411, 1};
Point(p10 + 35) = {6.140524111161648, -3.106125111161648, 1};
Point(p10 + 36) = {6.28674060481541, -2.934927593008644, 1};
Point(p10 + 37) = {6.404375738631455, -2.742964501425313, 1};
Point(p10 + 38) = {6.490532945206602, -2.534962604815411, 1};
Point(p10 + 39) = {6.543090748175598, -2.316043600192192, 1};
Spline(10) = {8, p10 + 1, p10 + 2, p10 + 3, p10 + 4, p10 + 5, p10 + 6, p10 + 7, p10 + 8, p10 + 9, p10 + 10, p10 + 11, p10 + 12, p10 + 13, p10 + 14, p10 + 15, p10 + 16, p10 + 17, p10 + 18, p10 + 19, p10 + 20, p10 + 21, p10 + 22, p10 + 23, p10 + 24, p10 + 25, p10 + 26, p10 + 27, p10 + 28, p10 + 29, p10 + 30, p10 + 31, p10 + 32, p10 + 33, p10 + 34, p10 + 35, p10 + 36, p10 + 37, p10 + 38, p10 + 39, 8};
p11 = newp;
Point(p11 + 1) = {15.25300092017442, 0.6594981123374275, 1};
Point(p11 + 2) = {15.22657933773427, 0.7695519236007957, 1};
Point(p11 + 3) = {15.18326683972744, 0.8741175437091417, 1};
Point(p11 + 4) = {15.1241299236008, 0.9706202200620012, 1};
Point(p11 + 5) = {15.05062473649355, 1.056683736493546, 1};
Point(p11 + 6) = {14.964561220062, 1.130188923600796, 1};
Point(p11 + 7) = {14.86805854370914, 1.189325839727441, 1};
Point(p11 + 8) = {14.7634929236008, 1.23263833773427, 1};
Point(p11 + 9) = {14.65343911233743, 1.259059920174417, 1};
Point(p11 + 10) = {14.540607, 1.26794, 1};
Point(p11 + 11) = {14.42777488766257, 1.259059920174417, 1};
Point(p11 + 12) = {14.3177210763992, 1.23263833773427, 1};
Point(p11 + 13) = {14.21315545629086, 1.189325839727441, 1};
Point(p11 + 14) = {14.116652779938, 1.130188923600796, 1};
Point(p11 + 15) = {14.03058926350645, 1.056683736493546, 1};
Point(p11 + 16) = {13.9570840763992, 0.9706202200620013, 1};
Point(p11 + 17) = {13.89794716027256, 0.874117543709142, 1};
Point(p11 + 18) = {13.85463466226573, 0.7695519236007958, 1};
Point(p11 + 19) = {13.82821307982558, 0.6594981123374275, 1};
Point(p11 + 20) = {13.819333, 0.5466660000000001, 1};
Point(p11 + 21) = {13.82821307982558, 0.4338338876625726, 1};
Point(p11 + 22) = {13.85463466226573, 0.3237800763992039, 1};
Point(p11 + 23) = {13.89794716027256, 0.2192144562908585, 1};
Point(p11 + 24) = {13.9570840763992, 0.1227117799379988, 1};
Point(p11 + 25) = {14.03058926350645, 0.03664826350645423, 1};
Point(p11 + 26) = {14.116652779938, -0.03685692360079573, 1};
Point(p11 + 27) = {14.21315545629086, -0.0959938397274408, 1};
Point(p11 + 28) = {14.3177210763992, -0.1393063377342706, 1};
Point(p11 + 29) = {14.42777488766257, -0.1657279201744173, 1};
Point(p11 + 30) = {14.540607, -0.174608, 1};
Point(p11 + 31) = {14.65343911233743, -0.1657279201744174, 1};
Point(p11 + 32) = {14.7634929236008, -0.1393063377342706, 1};
Point(p11 + 33) = {14.86805854370914, -0.09599383972744091, 1};
Point(p11 + 34) = {14.964561220062, -0.03685692360079595, 1};
Point(p11 + 35) = {15.05062473649355, 0.036648263506454, 1};
Point(p11 + 36) = {15.1241299236008, 0.1227117799379986, 1};
Point(p11 + 37) = {15.18326683972744, 0.219214456290858, 1};
Point(p11 + 38) = {15.22657933773427, 0.323780076399204, 1};
Point(p11 + 39) = {15.25300092017442, 0.4338338876625724, 1};
Spline(11) = {9, p11 + 1, p11 + 2, p11 + 3, p11 + 4, p11 + 5, p11 + 6, p11 + 7, p11 + 8, p11 + 9, p11 + 10, p11 + 11, p11 + 12, p11 + 13, p11 + 14, p11 + 15, p11 + 16, p11 + 17, p11 + 18, p11 + 19, p11 + 20, p11 + 21, p11 + 22, p11 + 23, p11 + 24, p11 + 25, p11 + 26, p11 + 27, p11 + 28, p11 + 29, p11 + 30, p11 + 31, p11 + 32, p11 + 33, p11 + 34, p11 + 35, p11 + 36, p11 + 37, p11 + 38, p11 + 39, 9};
Line(12) = {4, 10};
Line(13) = {10, 7};
Line(14) = {5, 10};
p15 = newp;
Point(p15 + 1) = {6.543090748175599, -1.867152399807808, 0};
Point(p15 + 2) = {6.490532945206602, -1.648233395184589, 0};
Point(p15 + 3) = {6.404375738631455, -1.440231498574687, 0};
Point(p15 + 4) = {6.286740604815411, -1.248268406991356, 0};
Point(p15 + 5) = {6.140524111161648, -1.077070888838351, 0};
Point(p15 + 6) = {5.969326593008644, -0.9308543951845889, 0};
Point(p15 + 7) = {5.777363501425313, -0.8132192613685456, 0};
Point(p15 + 8) = {5.569361604815411, -0.7270620547933979, 0};
Point(p15 + 9) = {5.350442600192191, -0.6745042518244011, 0};
Point(p15 + 10) = {5.125997, -0.6568399999999999, 0};
Point(p15 + 11) = {4.901551399807808, -0.6745042518244013, 0};
Point(p15 + 12) = {4.682632395184589, -0.7270620547933979, 0};
Point(p15 + 13) = {4.474630498574688, -0.8132192613685456, 0};
Point(p15 + 14) = {4.282667406991356, -0.9308543951845889, 0};
Point(p15 + 15) = {4.111469888838352, -1.077070888838351, 0};
Point(p15 + 16) = {3.965253395184589, -1.248268406991356, 0};
Point(p15 + 17) = {3.847618261368546, -1.440231498574687, 0};
Point(p15 + 18) = {3.761461054793398, -1.648233395184589, 0};
Point(p15 + 19) = {3.708903251824402, -1.867152399807808, 0};
Point(p15 + 20) = {3.691239, -2.091598, 0};
Point(p15 + 21) = {3.708903251824401, -2.316043600192191, 0};
Point(p15 + 22) = {3.761461054793398, -2.534962604815411, 0};
Point(p15 + 23) = {3.847618261368545, -2.742964501425312, 0};
Point(p15 + 24) = {3.965253395184589, -2.934927593008644, 0};
Point(p15 + 25) = {4.111469888838351, -3.106125111161648, 0};
Point(p15 + 26) = {4.282667406991355, -3.252341604815411, 0};
Point(p15 + 27) = {4.474630498574687, -3.369976738631454, 0};
Point(p15 + 28) = {4.682632395184589, -3.456133945206602, 0};
Point(p15 + 29) = {4.901551399807808, -3.508691748175599, 0};
Point(p15 + 30) = {5.125997, -3.526356, 0};
Point(p15 + 31) = {5.350442600192191, -3.508691748175599, 0};
Point(p15 + 32) = {5.569361604815411, -3.456133945206602, 0};
Point(p15 + 33) = {5.777363501425312, -3.369976738631454, 0};
Point(p15 + 34) = {5.969326593008644, -3.252341604815411, 0};
Point(p15 + 35) = {6.140524111161648, -3.106125111161648, 0};
Point(p15 + 36) = {6.28674060481541, -2.934927593008644, 0};
Point(p15 + 37) = {6.404375738631455, -2.742964501425313, 0};
Point(p15 + 38) = {6.490532945206602, -2.534962604815411, 0};
Point(p15 + 39) = {6.543090748175598, -2.316043600192192, 0};
Spline(15) = {11, p15 + 1, p15 + 2, p15 + 3, p15 + 4, p15 + 5, p15 + 6, p15 + 7, p15 + 8, p15 + 9, p15 + 10, p15 + 11, p15 + 12, p15 + 13, p15 + 14, p15 + 15, p15 + 16, p15 + 17, p15 + 18, p15 + 19, p15 + 20, p15 + 21, p15 + 22, p15 + 23, p15 + 24, p15 + 25, p15 + 26, p15 + 27, p15 + 28, p15 + 29, p15 + 30, p15 + 31, p15 + 32, p15 + 33, p15 + 34, p15 + 35, p15 + 36, p15 + 37, p15 + 38, p15 + 39, 11};
p16 = newp;
Point(p16 + 1) = {15.25300092017442, 0.6594981123374275, 0};
Point(p16 + 2) = {15.22657933773427, 0.7695519236007957, 0};
Point(p16 + 3) = {15.18326683972744, 0.8741175437091417, 0};
Point(p16 + 4) = {15.1241299236008, 0.9706202200620012, 0};
Point(p16 + 5) = {15.05062473649355, 1.056683736493546, 0};
Point(p16 + 6) = {14.964561220062, 1.130188923600796, 0};
Point(p16 + 7) = {14.86805854370914, 1.189325839727441, 0};
Point(p16 + 8) = {14.7634929236008, 1.23263833773427, 0};
Point(p16 + 9) = {14.65343911233743, 1.259059920174417, 0};
Point(p16 + 10) = {14.540607, 1.26794, 0};
Point(p16 + 11) = {14.42777488766257, 1.259059920174417, 0};
Point(p16 + 12) = {14.3177210763992, 1.23263833773427, 0};
Point(p16 + 13) = {14.21315545629086, 1.189325839727441, 0};
Point(p16 + 14) = {14.116652779938, 1.130188923600796, 0};
Point(p16 + 15) = {14.03058926350645, 1.056683736493546, 0};
Point(p16 + 16) = {13.9570840763992, 0.9706202200620013, 0};
Point(p16 + 17) = {13.89794716027256, 0.874117543709142, 0};
Point(p16 + 18) = {13.85463466226573, 0.7695519236007958, 0};
Point(p16 + 19) = {13.82821307982558, 0.6594981123374275, 0};
Point(p16 + 20) = {13.819333, 0.5466660000000001, 0};
Point(p16 + 21) = {13.82821307982558, 0.4338338876625726, 0};
Point(p16 + 22) = {13.85463466226573, 0.3237800763992039, 0};
Point(p16 + 23) = {13.89794716027256, 0.2192144562908585, 0};
Point(p16 + 24) = {13.9570840763992, 0.1227117799379988, 0};
Point(p16 + 25) = {14.03058926350645, 0.03664826350645423, 0};
Point(p16 + 26) = {14.116652779938, -0.03685692360079573, 0};
Point(p16 + 27) = {14.21315545629086, -0.0959938397274408, 0};
Point(p16 + 28) = {14.3177210763992, -0.1393063377342706, 0};
Point(p16 + 29) = {14.42777488766257, -0.1657279201744173, 0};
Point(p16 + 30) = {14.540607, -0.174608, 0};
Point(p16 + 31) = {14.65343911233743, -0.1657279201744174, 0};
Point(p16 + 32) = {14.7634929236008, -0.1393063377342706, 0};
Point(p16 + 33) = {14.86805854370914, -0.09599383972744091, 0};
Point(p16 + 34) = {14.964561220062, -0.03685692360079595, 0};
Point(p16 + 35) = {15.05062473649355, 0.036648263506454, 0};
Point(p16 + 36) = {15.1241299236008, 0.1227117799379986, 0};
Point(p16 + 37) = {15.18326683972744, 0.219214456290858, 0};
Point(p16 + 38) = {15.22657933773427, 0.323780076399204, 0};
Point(p16 + 39) = {15.25300092017442, 0.4338338876625724, 0};
Spline(16) = {12, p16 + 1, p16 + 2, p16 + 3, p16 + 4, p16 + 5, p16 + 6, p16 + 7, p16 + 8, p16 + 9, p16 + 10, p16 + 11, p16 + 12, p16 + 13, p16 + 14, p16 + 15, p16 + 16, p16 + 17, p16 + 18, p16 + 19, p16 + 20, p16 + 21, p16 + 22, p16 + 23, p16 + 24, p16 + 25, p16 + 26, p16 + 27, p16 + 28, p16 + 29, p16 + 30, p16 + 31, p16 + 32, p16 + 33, p16 + 34, p16 + 35, p16 + 36, p16 + 37, p16 + 38, p16 + 39, 12};
Line(17) = {11, 8};
Line(18) = {12, 9};
Curve Loop(1) = {-1, 4, 3, -2};
Plane Surface(1) = {1};
Curve Loop(2) = {-5, 1, 7, -6};
Plane Surface(2) = {2};
Curve Loop(3) = {-2, 7, 9, -8, -10, -11};
Plane Surface(3) = {3};
Curve Loop(4) = {-12, 3, 8, -13};
Plane Surface(4) = {4};
Curve Loop(5) = {-4, 5, 14, -12, -15, -16};
Plane Surface(5) = {5};
Curve Loop(6) = {-6, 14, 13, -9};
Plane Surface(6) = {6};
Curve Loop(7) = {-10, -17, 15, 17};
Surface(7) = {7};
Curve Loop(8) = {-11, -18, 16, 18};
Surface(8) = {8};
Surface Loop(1) = {1, 2, 3, 4, 5, 6, 7, 8};
Volume(1) = {1};
Physical Surface("INFLOW") = {1};
Physical Surface("OUTFLOW") = {6};
Physical Surface("OBSTACLE") = {7, 8};
Physical Surface("WALL_Y") = {2, 4};
Physical Surface("WALL_Z") = {3, 5};
Physical Volume("FLUID") = {1};
