cl__1 = 3.154309;
cl__2 = 0.562659;
cl__3 = 0.770428;
cl__4 = 0.129068;
Point(1) = {0.746559, -4.614901, 1, cl__1};
Point(2) = {0.746559, -4.614901, 0, cl__1};
Point(3) = {0.746559, 5.292332, 1, cl__1};
Point(4) = {0.746559, 5.292332, 0, cl__1};
Point(5) = {31.151697, -4.614901, 0, cl__2};
Point(6) = {31.151697, -4.614901, 1, cl__2};
Point(7) = {31.151697, 5.292332, 1, cl__3};
Point(8) = {26.354953, -1.329798, 1, cl__4};
Point(9) = {31.151697, 5.292332, 0, cl__3};
Point(10) = {26.354953, -1.329798, 0, cl__4};
Line(1) = {2, 1};
Line(2) = {1, 3};
Line(3) = {4, 3};
Line(4) = {2, 4};
Line(5) = {2, 5};
Line(6) = {5, 6};
Line(7) = {1, 6};
Line(8) = {3, 7};
Line(9) = {6, 7};
p10 = newp;
Point(p10 + 1) = {26.33906256281601, -1.127890851792945, 1};
Point(p10 + 2) = {26.29178252656486, -0.9309553276661542, 1};
Point(p10 + 3) = {26.21427708265249, -0.7438406338151623, 1};
Point(p10 + 4) = {26.10845467233385, -0.5711541550006461, 1};
Point(p10 + 5) = {25.97692099455542, -0.4171480054445845, 1};
Point(p10 + 6) = {25.82291484499936, -0.285614327666154, 1};
Point(p10 + 7) = {25.65022836618484, -0.1797919173475091, 1};
Point(p10 + 8) = {25.46311367233385, -0.1022864734351385, 1};
Point(p10 + 9) = {25.26617814820706, -0.05500643718398623, 1};
Point(p10 + 10) = {25.064271, -0.03911599999999993, 1};
Point(p10 + 11) = {24.86236385179295, -0.05500643718398646, 1};
Point(p10 + 12) = {24.66542832766616, -0.1022864734351385, 1};
Point(p10 + 13) = {24.47831363381516, -0.1797919173475089, 1};
Point(p10 + 14) = {24.30562715500065, -0.285614327666154, 1};
Point(p10 + 15) = {24.15162100544459, -0.4171480054445844, 1};
Point(p10 + 16) = {24.02008732766615, -0.571154155000646, 1};
Point(p10 + 17) = {23.91426491734751, -0.7438406338151622, 1};
Point(p10 + 18) = {23.83675947343514, -0.930955327666154, 1};
Point(p10 + 19) = {23.78947943718399, -1.127890851792945, 1};
Point(p10 + 20) = {23.773589, -1.329798, 1};
Point(p10 + 21) = {23.78947943718399, -1.531705148207055, 1};
Point(p10 + 22) = {23.83675947343514, -1.728640672333846, 1};
Point(p10 + 23) = {23.91426491734751, -1.915755366184837, 1};
Point(p10 + 24) = {24.02008732766615, -2.088441844999354, 1};
Point(p10 + 25) = {24.15162100544459, -2.242447994555416, 1};
Point(p10 + 26) = {24.30562715500065, -2.373981672333846, 1};
Point(p10 + 27) = {24.47831363381516, -2.479804082652491, 1};
Point(p10 + 28) = {24.66542832766616, -2.557309526564862, 1};
Point(p10 + 29) = {24.86236385179295, -2.604589562816014, 1};
Point(p10 + 30) = {25.064271, -2.62048, 1};
Point(p10 + 31) = {25.26617814820706, -2.604589562816014, 1};
Point(p10 + 32) = {25.46311367233385, -2.557309526564862, 1};
Point(p10 + 33) = {25.65022836618484, -2.479804082652491, 1};
Point(p10 + 34) = {25.82291484499936, -2.373981672333846, 1};
Point(p10 + 35) = {25.97692099455542, -2.242447994555416, 1};
Point(p10 + 36) = {26.10845467233385, -2.088441844999354, 1};
Point(p10 + 37) = {26.21427708265249, -1.915755366184838, 1};
Point(p10 + 38) = {26.29178252656486, -1.728640672333846, 1};
Point(p10 + 39) = {26.33906256281601, -1.531705148207056, 1};
Spline(10) = {8, p10 + 1, p10 + 2, p10 + 3, p10 + 4, p10 + 5, p10 + 6, p10 + 7, p10 + 8, p10 + 9, p10 + 10, p10 + 11, p10 + 12, p10 + 13, p10 + 14, p10 + 15, p10 + 16, p10 + 17, p10 + 18, p10 + 19, p10 + 20, p10 + 21, p10 + 22, p10 + 23, p10 + 24, p10 + 25, p10 + 26, p10 + 27, p10 + 28, p10 + 29, p10 + 30, p10 + 31, p10 + 32, p10 + 33, p10 + 34, p10 + 35, p10 + 36, p10 + 37, p10 + 38, p10 + 39, 8};
Line(11) = {4, 9};
Line(12) = {9, 7};
Line(13) = {5, 9};
p14 = newp;
Point(p14 + 1) = {26.33906256281601, -1.127890851792945, 0};
Point(p14 + 2) = {26.29178252656486, -0.9309553276661542, 0};
Point(p14 + 3) = {26.21427708265249, -0.7438406338151623, 0};
Point(p14 + 4) = {26.10845467233385, -0.5711541550006461, 0};
Point(p14 + 5) = {25.97692099455542, -0.4171480054445845, 0};
Point(p14 + 6) = {25.82291484499936, -0.285614327666154, 0};
Point(p14 + 7) = {25.65022836618484, -0.1797919173475091, 0};
Point(p14 + 8) = {25.46311367233385, -0.1022864734351385, 0};
Point(p14 + 9) = {25.26617814820706, -0.05500643718398623, 0};
Point(p14 + 10) = {25.064271, -0.03911599999999993, 0};
Point(p14 + 11) = {24.86236385179295, -0.05500643718398646, 0};
Point(p14 + 12) = {24.66542832766616, -0.1022864734351385, 0};
Point(p14 + 13) = {24.47831363381516, -0.1797919173475089, 0};
Point(p14 + 14) = {24.30562715500065, -0.285614327666154, 0};
Point(p14 + 15) = {24.15162100544459, -0.4171480054445844, 0};
Point(p14 + 16) = {24.02008732766615, -0.571154155000646, 0};
Point(p14 + 17) = {23.91426491734751, -0.7438406338151622, 0};
Point(p14 + 18) = {23.83675947343514, -0.930955327666154, 0};
Point(p14 + 19) = {23.78947943718399, -1.127890851792945, 0};
Point(p14 + 20) = {23.773589, -1.329798, 0};
Point(p14 + 21) = {23.78947943718399, -1.531705148207055, 0};
Point(p14 + 22) = {23.83675947343514, -1.728640672333846, 0};
Point(p14 + 23) = {23.91426491734751, -1.915755366184837, 0};
Point(p14 + 24) = {24.02008732766615, -2.088441844999354, 0};
Point(p14 + 25) = {24.15162100544459, -2.242447994555416, 0};
Point(p14 + 26) = {24.30562715500065, -2.373981672333846, 0};
Point(p14 + 27) = {24.47831363381516, -2.479804082652491, 0};
Point(p14 + 28) = {24.66542832766616, -2.557309526564862, 0};
Point(p14 + 29) = {24.86236385179295, -2.604589562816014, 0};
Point(p14 + 30) = {25.064271, -2.62048, 0};
Point(p14 + 31) = {25.26617814820706, -2.604589562816014, 0};
Point(p14 + 32) = {25.46311367233385, -2.557309526564862, 0};
Point(p14 + 33) = {25.65022836618484, -2.479804082652491, 0};
Point(p14 + 34) = {25.82291484499936, -2.373981672333846, 0};
Point(p14 + 35) = {25.97692099455542, -2.242447994555416, 0};
Point(p14 + 36) = {26.10845467233385, -2.088441844999354, 0};
Point(p14 + 37) = {26.21427708265249, -1.915755366184838, 0};
Point(p14 + 38) = {26.29178252656486, -1.728640672333846, 0};
Point(p14 + 39) = {26.33906256281601, -1.531705148207056, 0};
Spline(14) = {10, p14 + 1, p14 + 2, p14 + 3, p14 + 4, p14 + 5, p14 + 6, p14 + 7, p14 + 8, p14 + 9, p14 + 10, p14 + 11, p14 + 12, p14 + 13, p14 + 14, p14 + 15, p14 + 16, p14 + 17, p14 + 18, p14 + 19, p14 + 20, p14 + 21, p14 + 22, p14 + 23, p14 + 24, p14 + 25, p14 + 26, p14 + 27, p14 + 28, p14 + 29, p14 + 30, p14 + 31, p14 + 32, p14 + 33, p14 + 34, p14 + 35, p14 + 36, p14 + 37, p14 + 38, p14 + 39, 10};
Line(15) = {10, 8};
Curve Loop(1) = {-1, 4, 3, -2};
Plane Surface(1) = {1};
Curve Loop(2) = {-5, 1, 7, -6};
Plane Surface(2) = {2};
Curve Loop(3) = {-2, 7, 9, -8, -10};
Plane Surface(3) = {3};
Curve Loop(4) = {-11, 3, 8, -12};
Plane Surface(4) = {4};
Curve Loop(5) = {-4, 5, 13, -11, -14};
Plane Surface(5) = {5};
Curve Loop(6) = {-6, 13, 12, -9};
Plane Surface(6) = {6};
Curve Loop(7) = {-10, -15, 14, 15};
Surface(7) = {7};
Surface Loop(1) = {1, 2, 3, 4, 5, 6, 7};
Volume(1) = {1};
Physical Surface("INFLOW") = {1};
Physical Surface("OUTFLOW") = {6};
Physical Surface("OBSTACLE") = {7};
Physical Surface("WALL_Y") = {2, 4};
Physical Surface("WALL_Z") = {3, 5};
Physical Volume("FLUID") = {1};
