cl__1 = 3.48465;
cl__2 = 0.5941419999999999;
cl__3 = 0.140841;
cl__4 = 0.112506;
Point(1) = {0.706956, -3.906244, 1, cl__1};
Point(2) = {0.706956, -3.906244, 0, cl__1};
Point(3) = {0.706956, 5.312218000000001, 1, cl__2};
Point(4) = {0.706956, 5.312218000000001, 0, cl__2};
Point(5) = {34.540313, -3.906244, 0, cl__1};
Point(6) = {34.540313, -3.906244, 1, cl__1};
Point(7) = {34.540313, 5.312218000000001, 1, cl__2};
Point(8) = {20.217766, 1.360965, 1, cl__3};
Point(9) = {33.037235, 2.653332, 1, cl__4};
Point(10) = {34.540313, 5.312218000000001, 0, cl__2};
Point(11) = {20.217766, 1.360965, 0, cl__3};
Point(12) = {33.037235, 2.653332, 0, cl__4};
Line(1) = {2, 1};
Line(2) = {1, 3};
Line(3) = {4, 3};
Line(4) = {2, 4};
Line(5) = {2, 5};
Line(6) = {5, 6};
Line(7) = {1, 6};
Line(8) = {3, 7};
Line(9) = {6, 7};
p10 = newp;
Point(p10 + 1) = {20.20042612346594, 1.581289021341777, 1};
Point(p10 + 2) = {20.14883345917177, 1.796187934064614, 1};
Point(p10 + 3) = {20.06425838973867, 2.000370213728675, 1};
Point(p10 + 4) = {19.94878343406462, 2.188808214966494, 1};
Point(p10 + 5) = {19.80525196879773, 2.356861968797727, 1};
Point(p10 + 6) = {19.6371982149665, 2.500393434064614, 1};
Point(p10 + 7) = {19.44876021372868, 2.615868389738663, 1};
Point(p10 + 8) = {19.24457793406462, 2.700443459171773, 1};
Point(p10 + 9) = {19.02967902134178, 2.752036123465939, 1};
Point(p10 + 10) = {18.809355, 2.769376, 1};
Point(p10 + 11) = {18.58903097865822, 2.752036123465938, 1};
Point(p10 + 12) = {18.37413206593538, 2.700443459171773, 1};
Point(p10 + 13) = {18.16994978627132, 2.615868389738663, 1};
Point(p10 + 14) = {17.9815117850335, 2.500393434064614, 1};
Point(p10 + 15) = {17.81345803120227, 2.356861968797727, 1};
Point(p10 + 16) = {17.66992656593539, 2.188808214966495, 1};
Point(p10 + 17) = {17.55445161026134, 2.000370213728675, 1};
Point(p10 + 18) = {17.46987654082823, 1.796187934064614, 1};
Point(p10 + 19) = {17.41828387653406, 1.581289021341777, 1};
Point(p10 + 20) = {17.400944, 1.360965, 1};
Point(p10 + 21) = {17.41828387653406, 1.140640978658224, 1};
Point(p10 + 22) = {17.46987654082823, 0.9257420659353854, 1};
Point(p10 + 23) = {17.55445161026134, 0.7215597862713259, 1};
Point(p10 + 24) = {17.66992656593538, 0.5331217850335057, 1};
Point(p10 + 25) = {17.81345803120227, 0.3650680312022734, 1};
Point(p10 + 26) = {17.9815117850335, 0.2215365659353861, 1};
Point(p10 + 27) = {18.16994978627132, 0.1060616102613365, 1};
Point(p10 + 28) = {18.37413206593538, 0.02148654082822632, 1};
Point(p10 + 29) = {18.58903097865822, -0.03010612346593855, 1};
Point(p10 + 30) = {18.809355, -0.0474460000000001, 1};
Point(p10 + 31) = {19.02967902134178, -0.03010612346593877, 1};
Point(p10 + 32) = {19.24457793406462, 0.02148654082822632, 1};
Point(p10 + 33) = {19.44876021372868, 0.1060616102613365, 1};
Point(p10 + 34) = {19.6371982149665, 0.2215365659353856, 1};
Point(p10 + 35) = {19.80525196879773, 0.3650680312022732, 1};
Point(p10 + 36) = {19.94878343406461, 0.5331217850335053, 1};
Point(p10 + 37) = {20.06425838973867, 0.7215597862713249, 1};
Point(p10 + 38) = {20.14883345917177, 0.9257420659353857, 1};
Point(p10 + 39) = {20.20042612346594, 1.140640978658223, 1};
Spline(10) = {8, p10 + 1, p10 + 2, p10 + 3, p10 + 4, p10 + 5, p10 + 6, p10 + 7, p10 + 8, p10 + 9, p10 + 10, p10 + 11, p10 + 12, p10 + 13, p10 + 14, p10 + 15, p10 + 16, p10 + 17, p10 + 18, p10 + 19, p10 + 20, p10 + 21, p10 + 22, p10 + 23, p10 + 24, p10 + 25, p10 + 26, p10 + 27, p10 + 28, p10 + 29, p10 + 30, p10 + 31, p10 + 32, p10 + 33, p10 + 34, p10 + 35, p10 + 36, p10 + 37, p10 + 38, p10 + 39, 8};
p11 = newp;
Point(p11 + 1) = {33.02338366909328, 2.829329846369232, 1};
Point(p11 + 2) = {32.98217074210999, 3.000994041657489, 1};
Point(p11 + 3) = {32.91461101809032, 3.164097643655975, 1};
Point(p11 + 4) = {32.82236804165749, 3.314624500373665, 1};
Point(p11 + 5) = {32.70771314102817, 3.448868141028175, 1};
Point(p11 + 6) = {32.57346950037366, 3.563523041657489, 1};
Point(p11 + 7) = {32.42294264365597, 3.655766018090317, 1};
Point(p11 + 8) = {32.25983904165749, 3.723325742109993, 1};
Point(p11 + 9) = {32.08817484636923, 3.764538669093284, 1};
Point(p11 + 10) = {31.912177, 3.77839, 1};
Point(p11 + 11) = {31.73617915363077, 3.764538669093284, 1};
Point(p11 + 12) = {31.56451495834251, 3.723325742109993, 1};
Point(p11 + 13) = {31.40141135634402, 3.655766018090317, 1};
Point(p11 + 14) = {31.25088449962633, 3.563523041657489, 1};
Point(p11 + 15) = {31.11664085897182, 3.448868141028175, 1};
Point(p11 + 16) = {31.00198595834251, 3.314624500373665, 1};
Point(p11 + 17) = {30.90974298190968, 3.164097643655975, 1};
Point(p11 + 18) = {30.84218325789001, 3.000994041657489, 1};
Point(p11 + 19) = {30.80097033090671, 2.829329846369232, 1};
Point(p11 + 20) = {30.787119, 2.653332, 1};
Point(p11 + 21) = {30.80097033090671, 2.477334153630768, 1};
Point(p11 + 22) = {30.84218325789001, 2.30566995834251, 1};
Point(p11 + 23) = {30.90974298190968, 2.142566356344025, 1};
Point(p11 + 24) = {31.00198595834251, 1.992039499626335, 1};
Point(p11 + 25) = {31.11664085897182, 1.857795858971825, 1};
Point(p11 + 26) = {31.25088449962633, 1.74314095834251, 1};
Point(p11 + 27) = {31.40141135634402, 1.650897981909683, 1};
Point(p11 + 28) = {31.56451495834251, 1.583338257890007, 1};
Point(p11 + 29) = {31.73617915363077, 1.542125330906716, 1};
Point(p11 + 30) = {31.912177, 1.528274, 1};
Point(p11 + 31) = {32.08817484636923, 1.542125330906715, 1};
Point(p11 + 32) = {32.25983904165749, 1.583338257890007, 1};
Point(p11 + 33) = {32.42294264365597, 1.650897981909683, 1};
Point(p11 + 34) = {32.57346950037366, 1.74314095834251, 1};
Point(p11 + 35) = {32.70771314102817, 1.857795858971825, 1};
Point(p11 + 36) = {32.82236804165749, 1.992039499626334, 1};
Point(p11 + 37) = {32.91461101809032, 2.142566356344024, 1};
Point(p11 + 38) = {32.98217074210999, 2.30566995834251, 1};
Point(p11 + 39) = {33.02338366909328, 2.477334153630768, 1};
Spline(11) = {9, p11 + 1, p11 + 2, p11 + 3, p11 + 4, p11 + 5, p11 + 6, p11 + 7, p11 + 8, p11 + 9, p11 + 10, p11 + 11, p11 + 12, p11 + 13, p11 + 14, p11 + 15, p11 + 16, p11 + 17, p11 + 18, p11 + 19, p11 + 20, p11 + 21, p11 + 22, p11 + 23, p11 + 24, p11 + 25, p11 + 26, p11 + 27, p11 + 28, p11 + 29, p11 + 30, p11 + 31, p11 + 32, p11 + 33, p11 + 34, p11 + 35, p11 + 36, p11 + 37, p11 + 38, p11 + 39, 9};
Line(12) = {4, 10};
Line(13) = {10, 7};
Line(14) = {5, 10};
p15 = newp;
Point(p15 + 1) = {20.20042612346594, 1.581289021341777, 0};
Point(p15 + 2) = {20.14883345917177, 1.796187934064614, 0};
Point(p15 + 3) = {20.06425838973867, 2.000370213728675, 0};
Point(p15 + 4) = {19.94878343406462, 2.188808214966494, 0};
Point(p15 + 5) = {19.80525196879773, 2.356861968797727, 0};
Point(p15 + 6) = {19.6371982149665, 2.500393434064614, 0};
Point(p15 + 7) = {19.44876021372868, 2.615868389738663, 0};
Point(p15 + 8) = {19.24457793406462, 2.700443459171773, 0};
Point(p15 + 9) = {19.02967902134178, 2.752036123465939, 0};
Point(p15 + 10) = {18.809355, 2.769376, 0};
Point(p15 + 11) = {18.58903097865822, 2.752036123465938, 0};
Point(p15 + 12) = {18.37413206593538, 2.700443459171773, 0};
Point(p15 + 13) = {18.16994978627132, 2.615868389738663, 0};
Point(p15 + 14) = {17.9815117850335, 2.500393434064614, 0};
Point(p15 + 15) = {17.81345803120227, 2.356861968797727, 0};
Point(p15 + 16) = {17.66992656593539, 2.188808214966495, 0};
Point(p15 + 17) = {17.55445161026134, 2.000370213728675, 0};
Point(p15 + 18) = {17.46987654082823, 1.796187934064614, 0};
Point(p15 + 19) = {17.41828387653406, 1.581289021341777, 0};
Point(p15 + 20) = {17.400944, 1.360965, 0};
Point(p15 + 21) = {17.41828387653406, 1.140640978658224, 0};
Point(p15 + 22) = {17.46987654082823, 0.9257420659353854, 0};
Point(p15 + 23) = {17.55445161026134, 0.7215597862713259, 0};
Point(p15 + 24) = {17.66992656593538, 0.5331217850335057, 0};
Point(p15 + 25) = {17.81345803120227, 0.3650680312022734, 0};
Point(p15 + 26) = {17.9815117850335, 0.2215365659353861, 0};
Point(p15 + 27) = {18.16994978627132, 0.1060616102613365, 0};
Point(p15 + 28) = {18.37413206593538, 0.02148654082822632, 0};
Point(p15 + 29) = {18.58903097865822, -0.03010612346593855, 0};
Point(p15 + 30) = {18.809355, -0.0474460000000001, 0};
Point(p15 + 31) = {19.02967902134178, -0.03010612346593877, 0};
Point(p15 + 32) = {19.24457793406462, 0.02148654082822632, 0};
Point(p15 + 33) = {19.44876021372868, 0.1060616102613365, 0};
Point(p15 + 34) = {19.6371982149665, 0.2215365659353856, 0};
Point(p15 + 35) = {19.80525196879773, 0.3650680312022732, 0};
Point(p15 + 36) = {19.94878343406461, 0.5331217850335053, 0};
Point(p15 + 37) = {20.06425838973867, 0.7215597862713249, 0};
Point(p15 + 38) = {20.14883345917177, 0.9257420659353857, 0};
Point(p15 + 39) = {20.20042612346594, 1.140640978658223, 0};
Spline(15) = {11, p15 + 1, p15 + 2, p15 + 3, p15 + 4, p15 + 5, p15 + 6, p15 + 7, p15 + 8, p15 + 9, p15 + 10, p15 + 11, p15 + 12, p15 + 13, p15 + 14, p15 + 15, p15 + 16, p15 + 17, p15 + 18, p15 + 19, p15 + 20, p15 + 21, p15 + 22, p15 + 23, p15 + 24, p15 + 25, p15 + 26, p15 + 27, p15 + 28, p15 + 29, p15 + 30, p15 + 31, p15 + 32, p15 + 33, p15 + 34, p15 + 35, p15 + 36, p15 + 37, p15 + 38, p15 + 39, 11};
p16 = newp;
Point(p16 + 1) = {33.02338366909328, 2.829329846369232, 0};
Point(p16 + 2) = {32.98217074210999, 3.000994041657489, 0};
Point(p16 + 3) = {32.91461101809032, 3.164097643655975, 0};
Point(p16 + 4) = {32.82236804165749, 3.314624500373665, 0};
Point(p16 + 5) = {32.70771314102817, 3.448868141028175, 0};
Point(p16 + 6) = {32.57346950037366, 3.563523041657489, 0};
Point(p16 + 7) = {32.42294264365597, 3.655766018090317, 0};
Point(p16 + 8) = {32.25983904165749, 3.723325742109993, 0};
Point(p16 + 9) = {32.08817484636923, 3.764538669093284, 0};
Point(p16 + 10) = {31.912177, 3.77839, 0};
Point(p16 + 11) = {31.73617915363077, 3.764538669093284, 0};
Point(p16 + 12) = {31.56451495834251, 3.723325742109993, 0};
Point(p16 + 13) = {31.40141135634402, 3.655766018090317, 0};
Point(p16 + 14) = {31.25088449962633, 3.563523041657489, 0};
Point(p16 + 15) = {31.11664085897182, 3.448868141028175, 0};
Point(p16 + 16) = {31.00198595834251, 3.314624500373665, 0};
Point(p16 + 17) = {30.90974298190968, 3.164097643655975, 0};
Point(p16 + 18) = {30.84218325789001, 3.000994041657489, 0};
Point(p16 + 19) = {30.80097033090671, 2.829329846369232, 0};
Point(p16 + 20) = {30.787119, 2.653332, 0};
Point(p16 + 21) = {30.80097033090671, 2.477334153630768, 0};
Point(p16 + 22) = {30.84218325789001, 2.30566995834251, 0};
Point(p16 + 23) = {30.90974298190968, 2.142566356344025, 0};
Point(p16 + 24) = {31.00198595834251, 1.992039499626335, 0};
Point(p16 + 25) = {31.11664085897182, 1.857795858971825, 0};
Point(p16 + 26) = {31.25088449962633, 1.74314095834251, 0};
Point(p16 + 27) = {31.40141135634402, 1.650897981909683, 0};
Point(p16 + 28) = {31.56451495834251, 1.583338257890007, 0};
Point(p16 + 29) = {31.73617915363077, 1.542125330906716, 0};
Point(p16 + 30) = {31.912177, 1.528274, 0};
Point(p16 + 31) = {32.08817484636923, 1.542125330906715, 0};
Point(p16 + 32) = {32.25983904165749, 1.583338257890007, 0};
Point(p16 + 33) = {32.42294264365597, 1.650897981909683, 0};
Point(p16 + 34) = {32.57346950037366, 1.74314095834251, 0};
Point(p16 + 35) = {32.70771314102817, 1.857795858971825, 0};
Point(p16 + 36) = {32.82236804165749, 1.992039499626334, 0};
Point(p16 + 37) = {32.91461101809032, 2.142566356344024, 0};
Point(p16 + 38) = {32.98217074210999, 2.30566995834251, 0};
Point(p16 + 39) = {33.02338366909328, 2.477334153630768, 0};
Spline(16) = {12, p16 + 1, p16 + 2, p16 + 3, p16 + 4, p16 + 5, p16 + 6, p16 + 7, p16 + 8, p16 + 9, p16 + 10, p16 + 11, p16 + 12, p16 + 13, p16 + 14, p16 + 15, p16 + 16, p16 + 17, p16 + 18, p16 + 19, p16 + 20, p16 + 21, p16 + 22, p16 + 23, p16 + 24, p16 + 25, p16 + 26, p16 + 27, p16 + 28, p16 + 29, p16 + 30, p16 + 31, p16 + 32, p16 + 33, p16 + 34, p16 + 35, p16 + 36, p16 + 37, p16 + 38, p16 + 39, 12};
Line(17) = {11, 8};
Line(18) = {12, 9};
Curve Loop(1) = {-1, 4, 3, -2};
Plane Surface(1) = {1};
Curve Loop(2) = {-5, 1, 7, -6};
Plane Surface(2) = {2};
Curve Loop(3) = {-2, 7, 9, -8, -10, -11};
Plane Surface(3) = {3};
Curve Loop(4) = {-12, 3, 8, -13};
Plane Surface(4) = {4};
Curve Loop(5) = {-4, 5, 14, -12, -15, -16};
Plane Surface(5) = {5};
Curve Loop(6) = {-6, 14, 13, -9};
Plane Surface(6) = {6};
Curve Loop(7) = {-10, -17, 15, 17};
Surface(7) = {7};
Curve Loop(8) = {-11, -18, 16, 18};
Surface(8) = {8};
Surface Loop(1) = {1, 2, 3, 4, 5, 6, 7, 8};
Volume(1) = {1};
Physical Surface("INFLOW") = {1};
Physical Surface("OUTFLOW") = {6};
Physical Surface("OBSTACLE") = {7, 8};
Physical Surface("WALL_Y") = {2, 4};
Physical Surface("WALL_Z") = {3, 5};
Physical Volume("FLUID") = {1};
