cl__1 = 0.731782;
cl__2 = 0.928807;
cl__3 = 3.66774;
cl__4 = 0.14169;
cl__5 = 0.066927;
Point(1) = {0.821592, -3.396736, 1, cl__1};
Point(2) = {0.821592, -3.396736, 0, cl__1};
Point(3) = {0.821592, 5.329753, 1, cl__2};
Point(4) = {0.821592, 5.329753, 0, cl__2};
Point(5) = {36.41694500000001, -3.396736, 0, cl__1};
Point(6) = {36.41694500000001, -3.396736, 1, cl__1};
Point(7) = {36.41694500000001, 5.329753, 1, cl__3};
Point(8) = {27.648517, -0.1019570000000004, 1, cl__4};
Point(9) = {6.795821, 2.574101, 1, cl__5};
Point(10) = {36.41694500000001, 5.329753, 0, cl__3};
Point(11) = {27.648517, -0.1019570000000004, 0, cl__4};
Point(12) = {6.795821, 2.574101, 0, cl__5};
Line(1) = {2, 1};
Line(2) = {1, 3};
Line(3) = {4, 3};
Line(4) = {2, 4};
Line(5) = {2, 5};
Line(6) = {5, 6};
Line(7) = {1, 6};
Line(8) = {3, 7};
Line(9) = {6, 7};
p10 = newp;
Point(p10 + 1) = {27.63107262210091, 0.119694837081038, 1};
Point(p10 + 2) = {27.57916902688209, 0.3358888703128685, 1};
Point(p10 + 3) = {27.49408425311598, 0.5413016850904641, 1};
Point(p10 + 4) = {27.37791337031287, 0.7308753361879529, 1};
Point(p10 + 5) = {27.23351689115644, 0.899941891156438, 1};
Point(p10 + 6) = {27.06445033618795, 1.044338370312869, 1};
Point(p10 + 7) = {26.87487668509047, 1.160509253115974, 1};
Point(p10 + 8) = {26.66946387031287, 1.245594026882087, 1};
Point(p10 + 9) = {26.45326983708104, 1.29749762210091, 1};
Point(p10 + 10) = {26.231618, 1.314942, 1};
Point(p10 + 11) = {26.00996616291896, 1.29749762210091, 1};
Point(p10 + 12) = {25.79377212968713, 1.245594026882087, 1};
Point(p10 + 13) = {25.58835931490954, 1.160509253115974, 1};
Point(p10 + 14) = {25.39878566381205, 1.044338370312869, 1};
Point(p10 + 15) = {25.22971910884356, 0.899941891156438, 1};
Point(p10 + 16) = {25.08532262968713, 0.7308753361879531, 1};
Point(p10 + 17) = {24.96915174688403, 0.5413016850904642, 1};
Point(p10 + 18) = {24.88406697311791, 0.3358888703128687, 1};
Point(p10 + 19) = {24.83216337789909, 0.1196948370810382, 1};
Point(p10 + 20) = {24.814719, -0.1019569999999998, 1};
Point(p10 + 21) = {24.83216337789909, -0.3236088370810379, 1};
Point(p10 + 22) = {24.88406697311791, -0.539802870312869, 1};
Point(p10 + 23) = {24.96915174688403, -0.7452156850904632, 1};
Point(p10 + 24) = {25.08532262968713, -0.9347893361879527, 1};
Point(p10 + 25) = {25.22971910884356, -1.103855891156438, 1};
Point(p10 + 26) = {25.39878566381205, -1.248252370312869, 1};
Point(p10 + 27) = {25.58835931490954, -1.364423253115974, 1};
Point(p10 + 28) = {25.79377212968713, -1.449508026882087, 1};
Point(p10 + 29) = {26.00996616291896, -1.50141162210091, 1};
Point(p10 + 30) = {26.231618, -1.518856, 1};
Point(p10 + 31) = {26.45326983708104, -1.50141162210091, 1};
Point(p10 + 32) = {26.66946387031287, -1.449508026882087, 1};
Point(p10 + 33) = {26.87487668509046, -1.364423253115974, 1};
Point(p10 + 34) = {27.06445033618795, -1.248252370312869, 1};
Point(p10 + 35) = {27.23351689115644, -1.103855891156438, 1};
Point(p10 + 36) = {27.37791337031287, -0.9347893361879531, 1};
Point(p10 + 37) = {27.49408425311598, -0.7452156850904643, 1};
Point(p10 + 38) = {27.57916902688209, -0.5398028703128689, 1};
Point(p10 + 39) = {27.63107262210091, -0.3236088370810384, 1};
Spline(10) = {8, p10 + 1, p10 + 2, p10 + 3, p10 + 4, p10 + 5, p10 + 6, p10 + 7, p10 + 8, p10 + 9, p10 + 10, p10 + 11, p10 + 12, p10 + 13, p10 + 14, p10 + 15, p10 + 16, p10 + 17, p10 + 18, p10 + 19, p10 + 20, p10 + 21, p10 + 22, p10 + 23, p10 + 24, p10 + 25, p10 + 26, p10 + 27, p10 + 28, p10 + 29, p10 + 30, p10 + 31, p10 + 32, p10 + 33, p10 + 34, p10 + 35, p10 + 36, p10 + 37, p10 + 38, p10 + 39, 8};
p11 = newp;
Point(p11 + 1) = {6.787581224956745, 2.678797268679615, 1};
Point(p11 + 2) = {6.763064790434792, 2.780915567757344, 1};
Point(p11 + 3) = {6.722875372417452, 2.877941405798688, 1};
Point(p11 + 4) = {6.668002567757343, 2.967485684660775, 1};
Point(p11 + 5) = {6.599797527017595, 3.047343527017596, 1};
Point(p11 + 6) = {6.519939684660774, 3.115548567757344, 1};
Point(p11 + 7) = {6.430395405798687, 3.170421372417453, 1};
Point(p11 + 8) = {6.333369567757344, 3.210610790434792, 1};
Point(p11 + 9) = {6.231251268679615, 3.235127224956746, 1};
Point(p11 + 10) = {6.126555, 3.243367, 1};
Point(p11 + 11) = {6.021858731320385, 3.235127224956746, 1};
Point(p11 + 12) = {5.919740432242656, 3.210610790434792, 1};
Point(p11 + 13) = {5.822714594201313, 3.170421372417453, 1};
Point(p11 + 14) = {5.733170315339225, 3.115548567757344, 1};
Point(p11 + 15) = {5.653312472982404, 3.047343527017596, 1};
Point(p11 + 16) = {5.585107432242657, 2.967485684660775, 1};
Point(p11 + 17) = {5.530234627582548, 2.877941405798688, 1};
Point(p11 + 18) = {5.490045209565207, 2.780915567757344, 1};
Point(p11 + 19) = {5.465528775043254, 2.678797268679615, 1};
Point(p11 + 20) = {5.457288999999999, 2.574101, 1};
Point(p11 + 21) = {5.465528775043254, 2.469404731320385, 1};
Point(p11 + 22) = {5.490045209565207, 2.367286432242656, 1};
Point(p11 + 23) = {5.530234627582548, 2.270260594201313, 1};
Point(p11 + 24) = {5.585107432242656, 2.180716315339226, 1};
Point(p11 + 25) = {5.653312472982404, 2.100858472982404, 1};
Point(p11 + 26) = {5.733170315339225, 2.032653432242657, 1};
Point(p11 + 27) = {5.822714594201313, 1.977780627582548, 1};
Point(p11 + 28) = {5.919740432242656, 1.937591209565208, 1};
Point(p11 + 29) = {6.021858731320385, 1.913074775043255, 1};
Point(p11 + 30) = {6.126555, 1.904835, 1};
Point(p11 + 31) = {6.231251268679615, 1.913074775043255, 1};
Point(p11 + 32) = {6.333369567757344, 1.937591209565208, 1};
Point(p11 + 33) = {6.430395405798687, 1.977780627582548, 1};
Point(p11 + 34) = {6.519939684660774, 2.032653432242657, 1};
Point(p11 + 35) = {6.599797527017595, 2.100858472982404, 1};
Point(p11 + 36) = {6.668002567757343, 2.180716315339226, 1};
Point(p11 + 37) = {6.722875372417452, 2.270260594201313, 1};
Point(p11 + 38) = {6.763064790434792, 2.367286432242656, 1};
Point(p11 + 39) = {6.787581224956745, 2.469404731320385, 1};
Spline(11) = {9, p11 + 1, p11 + 2, p11 + 3, p11 + 4, p11 + 5, p11 + 6, p11 + 7, p11 + 8, p11 + 9, p11 + 10, p11 + 11, p11 + 12, p11 + 13, p11 + 14, p11 + 15, p11 + 16, p11 + 17, p11 + 18, p11 + 19, p11 + 20, p11 + 21, p11 + 22, p11 + 23, p11 + 24, p11 + 25, p11 + 26, p11 + 27, p11 + 28, p11 + 29, p11 + 30, p11 + 31, p11 + 32, p11 + 33, p11 + 34, p11 + 35, p11 + 36, p11 + 37, p11 + 38, p11 + 39, 9};
Line(12) = {4, 10};
Line(13) = {10, 7};
Line(14) = {5, 10};
p15 = newp;
Point(p15 + 1) = {27.63107262210091, 0.119694837081038, 0};
Point(p15 + 2) = {27.57916902688209, 0.3358888703128685, 0};
Point(p15 + 3) = {27.49408425311598, 0.5413016850904641, 0};
Point(p15 + 4) = {27.37791337031287, 0.7308753361879529, 0};
Point(p15 + 5) = {27.23351689115644, 0.899941891156438, 0};
Point(p15 + 6) = {27.06445033618795, 1.044338370312869, 0};
Point(p15 + 7) = {26.87487668509047, 1.160509253115974, 0};
Point(p15 + 8) = {26.66946387031287, 1.245594026882087, 0};
Point(p15 + 9) = {26.45326983708104, 1.29749762210091, 0};
Point(p15 + 10) = {26.231618, 1.314942, 0};
Point(p15 + 11) = {26.00996616291896, 1.29749762210091, 0};
Point(p15 + 12) = {25.79377212968713, 1.245594026882087, 0};
Point(p15 + 13) = {25.58835931490954, 1.160509253115974, 0};
Point(p15 + 14) = {25.39878566381205, 1.044338370312869, 0};
Point(p15 + 15) = {25.22971910884356, 0.899941891156438, 0};
Point(p15 + 16) = {25.08532262968713, 0.7308753361879531, 0};
Point(p15 + 17) = {24.96915174688403, 0.5413016850904642, 0};
Point(p15 + 18) = {24.88406697311791, 0.3358888703128687, 0};
Point(p15 + 19) = {24.83216337789909, 0.1196948370810382, 0};
Point(p15 + 20) = {24.814719, -0.1019569999999998, 0};
Point(p15 + 21) = {24.83216337789909, -0.3236088370810379, 0};
Point(p15 + 22) = {24.88406697311791, -0.539802870312869, 0};
Point(p15 + 23) = {24.96915174688403, -0.7452156850904632, 0};
Point(p15 + 24) = {25.08532262968713, -0.9347893361879527, 0};
Point(p15 + 25) = {25.22971910884356, -1.103855891156438, 0};
Point(p15 + 26) = {25.39878566381205, -1.248252370312869, 0};
Point(p15 + 27) = {25.58835931490954, -1.364423253115974, 0};
Point(p15 + 28) = {25.79377212968713, -1.449508026882087, 0};
Point(p15 + 29) = {26.00996616291896, -1.50141162210091, 0};
Point(p15 + 30) = {26.231618, -1.518856, 0};
Point(p15 + 31) = {26.45326983708104, -1.50141162210091, 0};
Point(p15 + 32) = {26.66946387031287, -1.449508026882087, 0};
Point(p15 + 33) = {26.87487668509046, -1.364423253115974, 0};
Point(p15 + 34) = {27.06445033618795, -1.248252370312869, 0};
Point(p15 + 35) = {27.23351689115644, -1.103855891156438, 0};
Point(p15 + 36) = {27.37791337031287, -0.9347893361879531, 0};
Point(p15 + 37) = {27.49408425311598, -0.7452156850904643, 0};
Point(p15 + 38) = {27.57916902688209, -0.5398028703128689, 0};
Point(p15 + 39) = {27.63107262210091, -0.3236088370810384, 0};
Spline(15) = {11, p15 + 1, p15 + 2, p15 + 3, p15 + 4, p15 + 5, p15 + 6, p15 + 7, p15 + 8, p15 + 9, p15 + 10, p15 + 11, p15 + 12, p15 + 13, p15 + 14, p15 + 15, p15 + 16, p15 + 17, p15 + 18, p15 + 19, p15 + 20, p15 + 21, p15 + 22, p15 + 23, p15 + 24, p15 + 25, p15 + 26, p15 + 27, p15 + 28, p15 + 29, p15 + 30, p15 + 31, p15 + 32, p15 + 33, p15 + 34, p15 + 35, p15 + 36, p15 + 37, p15 + 38, p15 + 39, 11};
p16 = newp;
Point(p16 + 1) = {6.787581224956745, 2.678797268679615, 0};
Point(p16 + 2) = {6.763064790434792, 2.780915567757344, 0};
Point(p16 + 3) = {6.722875372417452, 2.877941405798688, 0};
Point(p16 + 4) = {6.668002567757343, 2.967485684660775, 0};
Point(p16 + 5) = {6.599797527017595, 3.047343527017596, 0};
Point(p16 + 6) = {6.519939684660774, 3.115548567757344, 0};
Point(p16 + 7) = {6.430395405798687, 3.170421372417453, 0};
Point(p16 + 8) = {6.333369567757344, 3.210610790434792, 0};
Point(p16 + 9) = {6.231251268679615, 3.235127224956746, 0};
Point(p16 + 10) = {6.126555, 3.243367, 0};
Point(p16 + 11) = {6.021858731320385, 3.235127224956746, 0};
Point(p16 + 12) = {5.919740432242656, 3.210610790434792, 0};
Point(p16 + 13) = {5.822714594201313, 3.170421372417453, 0};
Point(p16 + 14) = {5.733170315339225, 3.115548567757344, 0};
Point(p16 + 15) = {5.653312472982404, 3.047343527017596, 0};
Point(p16 + 16) = {5.585107432242657, 2.967485684660775, 0};
Point(p16 + 17) = {5.530234627582548, 2.877941405798688, 0};
Point(p16 + 18) = {5.490045209565207, 2.780915567757344, 0};
Point(p16 + 19) = {5.465528775043254, 2.678797268679615, 0};
Point(p16 + 20) = {5.457288999999999, 2.574101, 0};
Point(p16 + 21) = {5.465528775043254, 2.469404731320385, 0};
Point(p16 + 22) = {5.490045209565207, 2.367286432242656, 0};
Point(p16 + 23) = {5.530234627582548, 2.270260594201313, 0};
Point(p16 + 24) = {5.585107432242656, 2.180716315339226, 0};
Point(p16 + 25) = {5.653312472982404, 2.100858472982404, 0};
Point(p16 + 26) = {5.733170315339225, 2.032653432242657, 0};
Point(p16 + 27) = {5.822714594201313, 1.977780627582548, 0};
Point(p16 + 28) = {5.919740432242656, 1.937591209565208, 0};
Point(p16 + 29) = {6.021858731320385, 1.913074775043255, 0};
Point(p16 + 30) = {6.126555, 1.904835, 0};
Point(p16 + 31) = {6.231251268679615, 1.913074775043255, 0};
Point(p16 + 32) = {6.333369567757344, 1.937591209565208, 0};
Point(p16 + 33) = {6.430395405798687, 1.977780627582548, 0};
Point(p16 + 34) = {6.519939684660774, 2.032653432242657, 0};
Point(p16 + 35) = {6.599797527017595, 2.100858472982404, 0};
Point(p16 + 36) = {6.668002567757343, 2.180716315339226, 0};
Point(p16 + 37) = {6.722875372417452, 2.270260594201313, 0};
Point(p16 + 38) = {6.763064790434792, 2.367286432242656, 0};
Point(p16 + 39) = {6.787581224956745, 2.469404731320385, 0};
Spline(16) = {12, p16 + 1, p16 + 2, p16 + 3, p16 + 4, p16 + 5, p16 + 6, p16 + 7, p16 + 8, p16 + 9, p16 + 10, p16 + 11, p16 + 12, p16 + 13, p16 + 14, p16 + 15, p16 + 16, p16 + 17, p16 + 18, p16 + 19, p16 + 20, p16 + 21, p16 + 22, p16 + 23, p16 + 24, p16 + 25, p16 + 26, p16 + 27, p16 + 28, p16 + 29, p16 + 30, p16 + 31, p16 + 32, p16 + 33, p16 + 34, p16 + 35, p16 + 36, p16 + 37, p16 + 38, p16 + 39, 12};
Line(17) = {11, 8};
Line(18) = {12, 9};
Curve Loop(1) = {-1, 4, 3, -2};
Plane Surface(1) = {1};
Curve Loop(2) = {-5, 1, 7, -6};
Plane Surface(2) = {2};
Curve Loop(3) = {-2, 7, 9, -8, -10, -11};
Plane Surface(3) = {3};
Curve Loop(4) = {-12, 3, 8, -13};
Plane Surface(4) = {4};
Curve Loop(5) = {-4, 5, 14, -12, -15, -16};
Plane Surface(5) = {5};
Curve Loop(6) = {-6, 14, 13, -9};
Plane Surface(6) = {6};
Curve Loop(7) = {-10, -17, 15, 17};
Surface(7) = {7};
Curve Loop(8) = {-11, -18, 16, 18};
Surface(8) = {8};
Surface Loop(1) = {1, 2, 3, 4, 5, 6, 7, 8};
Volume(1) = {1};
Physical Surface("INFLOW") = {1};
Physical Surface("OUTFLOW") = {6};
Physical Surface("OBSTACLE") = {7, 8};
Physical Surface("WALL_Y") = {2, 4};
Physical Surface("WALL_Z") = {3, 5};
Physical Volume("FLUID") = {1};
