cl__1 = 1;
cl__2 = 0.06009;
cl__3 = 0.06290999999999999;
Point(1) = {0.799755, -3.25854, 1, cl__1};
Point(2) = {0.799755, -3.25854, 0, cl__1};
Point(3) = {0.799755, 4.947603000000001, 1, cl__1};
Point(4) = {0.799755, 4.947603000000001, 0, cl__1};
Point(5) = {36.218424, -3.25854, 0, cl__1};
Point(6) = {36.218424, -3.25854, 1, cl__1};
Point(7) = {36.218424, 4.947603000000001, 1, cl__1};
Point(8) = {7.825908, 0.8677909999999999, 1, cl__2};
Point(9) = {27.765907, 1.370889, 1, cl__3};
Point(10) = {36.218424, 4.947603000000001, 0, cl__1};
Point(11) = {7.825908, 0.8677909999999999, 0, cl__2};
Point(12) = {27.765907, 1.370889, 0, cl__3};
Line(1) = {2, 1};
Line(2) = {1, 3};
Line(3) = {4, 3};
Line(4) = {2, 4};
Line(5) = {2, 5};
Line(6) = {5, 6};
Line(7) = {1, 6};
Line(8) = {3, 7};
Line(9) = {6, 7};
p10 = newp;
Point(p10 + 1) = {7.818509874616981, 0.9617930957805348, 1};
Point(p10 + 2) = {7.796497664867823, 1.053480547987883, 1};
Point(p10 + 3) = {7.760413384410887, 1.140595707255493, 1};
Point(p10 + 4) = {7.711145547987884, 1.220993509243556, 1};
Point(p10 + 5) = {7.649907293242121, 1.292694293242121, 1};
Point(p10 + 6) = {7.578206509243556, 1.353932547987883, 1};
Point(p10 + 7) = {7.497808707255492, 1.403200384410887, 1};
Point(p10 + 8) = {7.410693547987884, 1.439284664867823, 1};
Point(p10 + 9) = {7.319006095780535, 1.461296874616981, 1};
Point(p10 + 10) = {7.225004, 1.468695, 1};
Point(p10 + 11) = {7.131001904219465, 1.461296874616981, 1};
Point(p10 + 12) = {7.039314452012117, 1.439284664867823, 1};
Point(p10 + 13) = {6.952199292744508, 1.403200384410887, 1};
Point(p10 + 14) = {6.871801490756444, 1.353932547987883, 1};
Point(p10 + 15) = {6.800100706757879, 1.292694293242121, 1};
Point(p10 + 16) = {6.738862452012117, 1.220993509243556, 1};
Point(p10 + 17) = {6.689594615589114, 1.140595707255493, 1};
Point(p10 + 18) = {6.653510335132177, 1.053480547987883, 1};
Point(p10 + 19) = {6.63149812538302, 0.961793095780535, 1};
Point(p10 + 20) = {6.6241, 0.8677910000000001, 1};
Point(p10 + 21) = {6.631498125383019, 0.7737889042194652, 1};
Point(p10 + 22) = {6.653510335132177, 0.6821014520121164, 1};
Point(p10 + 23) = {6.689594615589114, 0.5949862927445078, 1};
Point(p10 + 24) = {6.738862452012117, 0.5145884907564438, 1};
Point(p10 + 25) = {6.800100706757879, 0.4428877067578789, 1};
Point(p10 + 26) = {6.871801490756444, 0.3816494520121166, 1};
Point(p10 + 27) = {6.952199292744507, 0.3323816155891131, 1};
Point(p10 + 28) = {7.039314452012117, 0.296297335132177, 1};
Point(p10 + 29) = {7.131001904219465, 0.2742851253830194, 1};
Point(p10 + 30) = {7.225004, 0.266887, 1};
Point(p10 + 31) = {7.319006095780535, 0.2742851253830193, 1};
Point(p10 + 32) = {7.410693547987884, 0.2962973351321769, 1};
Point(p10 + 33) = {7.497808707255492, 0.3323816155891129, 1};
Point(p10 + 34) = {7.578206509243556, 0.3816494520121165, 1};
Point(p10 + 35) = {7.649907293242121, 0.4428877067578788, 1};
Point(p10 + 36) = {7.711145547987884, 0.5145884907564435, 1};
Point(p10 + 37) = {7.760413384410887, 0.5949862927445073, 1};
Point(p10 + 38) = {7.796497664867823, 0.6821014520121165, 1};
Point(p10 + 39) = {7.81850987461698, 0.773788904219465, 1};
Spline(10) = {8, p10 + 1, p10 + 2, p10 + 3, p10 + 4, p10 + 5, p10 + 6, p10 + 7, p10 + 8, p10 + 9, p10 + 10, p10 + 11, p10 + 12, p10 + 13, p10 + 14, p10 + 15, p10 + 16, p10 + 17, p10 + 18, p10 + 19, p10 + 20, p10 + 21, p10 + 22, p10 + 23, p10 + 24, p10 + 25, p10 + 26, p10 + 27, p10 + 28, p10 + 29, p10 + 30, p10 + 31, p10 + 32, p10 + 33, p10 + 34, p10 + 35, p10 + 36, p10 + 37, p10 + 38, p10 + 39, 8};
p11 = newp;
Point(p11 + 1) = {27.75816177200338, 1.469301452653414, 1};
Point(p11 + 2) = {27.73511680123173, 1.565290664110296, 1};
Point(p11 + 3) = {27.69733953134733, 1.65649306141465, 1};
Point(p11 + 4) = {27.6457601641103, 1.740662938861438, 1};
Point(p11 + 5) = {27.58164875472411, 1.815727754724114, 1};
Point(p11 + 6) = {27.50658393886144, 1.879839164110297, 1};
Point(p11 + 7) = {27.42241406141465, 1.93141853134733, 1};
Point(p11 + 8) = {27.3312116641103, 1.969195801231732, 1};
Point(p11 + 9) = {27.23522245265341, 1.992240772003379, 1};
Point(p11 + 10) = {27.13681, 1.999986, 1};
Point(p11 + 11) = {27.03839754734659, 1.992240772003379, 1};
Point(p11 + 12) = {26.94240833588971, 1.969195801231732, 1};
Point(p11 + 13) = {26.85120593858535, 1.93141853134733, 1};
Point(p11 + 14) = {26.76703606113856, 1.879839164110297, 1};
Point(p11 + 15) = {26.69197124527589, 1.815727754724114, 1};
Point(p11 + 16) = {26.6278598358897, 1.740662938861438, 1};
Point(p11 + 17) = {26.57628046865267, 1.65649306141465, 1};
Point(p11 + 18) = {26.53850319876827, 1.565290664110296, 1};
Point(p11 + 19) = {26.51545822799662, 1.469301452653414, 1};
Point(p11 + 20) = {26.507713, 1.370889, 1};
Point(p11 + 21) = {26.51545822799662, 1.272476547346586, 1};
Point(p11 + 22) = {26.53850319876827, 1.176487335889703, 1};
Point(p11 + 23) = {26.57628046865267, 1.085284938585351, 1};
Point(p11 + 24) = {26.6278598358897, 1.001115061138562, 1};
Point(p11 + 25) = {26.69197124527589, 0.9260502452758865, 1};
Point(p11 + 26) = {26.76703606113856, 0.8619388358897038, 1};
Point(p11 + 27) = {26.85120593858535, 0.8103594686526704, 1};
Point(p11 + 28) = {26.94240833588971, 0.7725821987682678, 1};
Point(p11 + 29) = {27.03839754734659, 0.7495372279966207, 1};
Point(p11 + 30) = {27.13681, 0.741792, 1};
Point(p11 + 31) = {27.23522245265341, 0.7495372279966206, 1};
Point(p11 + 32) = {27.3312116641103, 0.7725821987682677, 1};
Point(p11 + 33) = {27.42241406141465, 0.8103594686526703, 1};
Point(p11 + 34) = {27.50658393886144, 0.8619388358897037, 1};
Point(p11 + 35) = {27.58164875472411, 0.9260502452758864, 1};
Point(p11 + 36) = {27.6457601641103, 1.001115061138562, 1};
Point(p11 + 37) = {27.69733953134733, 1.08528493858535, 1};
Point(p11 + 38) = {27.73511680123173, 1.176487335889704, 1};
Point(p11 + 39) = {27.75816177200338, 1.272476547346586, 1};
Spline(11) = {9, p11 + 1, p11 + 2, p11 + 3, p11 + 4, p11 + 5, p11 + 6, p11 + 7, p11 + 8, p11 + 9, p11 + 10, p11 + 11, p11 + 12, p11 + 13, p11 + 14, p11 + 15, p11 + 16, p11 + 17, p11 + 18, p11 + 19, p11 + 20, p11 + 21, p11 + 22, p11 + 23, p11 + 24, p11 + 25, p11 + 26, p11 + 27, p11 + 28, p11 + 29, p11 + 30, p11 + 31, p11 + 32, p11 + 33, p11 + 34, p11 + 35, p11 + 36, p11 + 37, p11 + 38, p11 + 39, 9};
Line(12) = {4, 10};
Line(13) = {10, 7};
Line(14) = {5, 10};
p15 = newp;
Point(p15 + 1) = {7.818509874616981, 0.9617930957805348, 0};
Point(p15 + 2) = {7.796497664867823, 1.053480547987883, 0};
Point(p15 + 3) = {7.760413384410887, 1.140595707255493, 0};
Point(p15 + 4) = {7.711145547987884, 1.220993509243556, 0};
Point(p15 + 5) = {7.649907293242121, 1.292694293242121, 0};
Point(p15 + 6) = {7.578206509243556, 1.353932547987883, 0};
Point(p15 + 7) = {7.497808707255492, 1.403200384410887, 0};
Point(p15 + 8) = {7.410693547987884, 1.439284664867823, 0};
Point(p15 + 9) = {7.319006095780535, 1.461296874616981, 0};
Point(p15 + 10) = {7.225004, 1.468695, 0};
Point(p15 + 11) = {7.131001904219465, 1.461296874616981, 0};
Point(p15 + 12) = {7.039314452012117, 1.439284664867823, 0};
Point(p15 + 13) = {6.952199292744508, 1.403200384410887, 0};
Point(p15 + 14) = {6.871801490756444, 1.353932547987883, 0};
Point(p15 + 15) = {6.800100706757879, 1.292694293242121, 0};
Point(p15 + 16) = {6.738862452012117, 1.220993509243556, 0};
Point(p15 + 17) = {6.689594615589114, 1.140595707255493, 0};
Point(p15 + 18) = {6.653510335132177, 1.053480547987883, 0};
Point(p15 + 19) = {6.63149812538302, 0.961793095780535, 0};
Point(p15 + 20) = {6.6241, 0.8677910000000001, 0};
Point(p15 + 21) = {6.631498125383019, 0.7737889042194652, 0};
Point(p15 + 22) = {6.653510335132177, 0.6821014520121164, 0};
Point(p15 + 23) = {6.689594615589114, 0.5949862927445078, 0};
Point(p15 + 24) = {6.738862452012117, 0.5145884907564438, 0};
Point(p15 + 25) = {6.800100706757879, 0.4428877067578789, 0};
Point(p15 + 26) = {6.871801490756444, 0.3816494520121166, 0};
Point(p15 + 27) = {6.952199292744507, 0.3323816155891131, 0};
Point(p15 + 28) = {7.039314452012117, 0.296297335132177, 0};
Point(p15 + 29) = {7.131001904219465, 0.2742851253830194, 0};
Point(p15 + 30) = {7.225004, 0.266887, 0};
Point(p15 + 31) = {7.319006095780535, 0.2742851253830193, 0};
Point(p15 + 32) = {7.410693547987884, 0.2962973351321769, 0};
Point(p15 + 33) = {7.497808707255492, 0.3323816155891129, 0};
Point(p15 + 34) = {7.578206509243556, 0.3816494520121165, 0};
Point(p15 + 35) = {7.649907293242121, 0.4428877067578788, 0};
Point(p15 + 36) = {7.711145547987884, 0.5145884907564435, 0};
Point(p15 + 37) = {7.760413384410887, 0.5949862927445073, 0};
Point(p15 + 38) = {7.796497664867823, 0.6821014520121165, 0};
Point(p15 + 39) = {7.81850987461698, 0.773788904219465, 0};
Spline(15) = {11, p15 + 1, p15 + 2, p15 + 3, p15 + 4, p15 + 5, p15 + 6, p15 + 7, p15 + 8, p15 + 9, p15 + 10, p15 + 11, p15 + 12, p15 + 13, p15 + 14, p15 + 15, p15 + 16, p15 + 17, p15 + 18, p15 + 19, p15 + 20, p15 + 21, p15 + 22, p15 + 23, p15 + 24, p15 + 25, p15 + 26, p15 + 27, p15 + 28, p15 + 29, p15 + 30, p15 + 31, p15 + 32, p15 + 33, p15 + 34, p15 + 35, p15 + 36, p15 + 37, p15 + 38, p15 + 39, 11};
p16 = newp;
Point(p16 + 1) = {27.75816177200338, 1.469301452653414, 0};
Point(p16 + 2) = {27.73511680123173, 1.565290664110296, 0};
Point(p16 + 3) = {27.69733953134733, 1.65649306141465, 0};
Point(p16 + 4) = {27.6457601641103, 1.740662938861438, 0};
Point(p16 + 5) = {27.58164875472411, 1.815727754724114, 0};
Point(p16 + 6) = {27.50658393886144, 1.879839164110297, 0};
Point(p16 + 7) = {27.42241406141465, 1.93141853134733, 0};
Point(p16 + 8) = {27.3312116641103, 1.969195801231732, 0};
Point(p16 + 9) = {27.23522245265341, 1.992240772003379, 0};
Point(p16 + 10) = {27.13681, 1.999986, 0};
Point(p16 + 11) = {27.03839754734659, 1.992240772003379, 0};
Point(p16 + 12) = {26.94240833588971, 1.969195801231732, 0};
Point(p16 + 13) = {26.85120593858535, 1.93141853134733, 0};
Point(p16 + 14) = {26.76703606113856, 1.879839164110297, 0};
Point(p16 + 15) = {26.69197124527589, 1.815727754724114, 0};
Point(p16 + 16) = {26.6278598358897, 1.740662938861438, 0};
Point(p16 + 17) = {26.57628046865267, 1.65649306141465, 0};
Point(p16 + 18) = {26.53850319876827, 1.565290664110296, 0};
Point(p16 + 19) = {26.51545822799662, 1.469301452653414, 0};
Point(p16 + 20) = {26.507713, 1.370889, 0};
Point(p16 + 21) = {26.51545822799662, 1.272476547346586, 0};
Point(p16 + 22) = {26.53850319876827, 1.176487335889703, 0};
Point(p16 + 23) = {26.57628046865267, 1.085284938585351, 0};
Point(p16 + 24) = {26.6278598358897, 1.001115061138562, 0};
Point(p16 + 25) = {26.69197124527589, 0.9260502452758865, 0};
Point(p16 + 26) = {26.76703606113856, 0.8619388358897038, 0};
Point(p16 + 27) = {26.85120593858535, 0.8103594686526704, 0};
Point(p16 + 28) = {26.94240833588971, 0.7725821987682678, 0};
Point(p16 + 29) = {27.03839754734659, 0.7495372279966207, 0};
Point(p16 + 30) = {27.13681, 0.741792, 0};
Point(p16 + 31) = {27.23522245265341, 0.7495372279966206, 0};
Point(p16 + 32) = {27.3312116641103, 0.7725821987682677, 0};
Point(p16 + 33) = {27.42241406141465, 0.8103594686526703, 0};
Point(p16 + 34) = {27.50658393886144, 0.8619388358897037, 0};
Point(p16 + 35) = {27.58164875472411, 0.9260502452758864, 0};
Point(p16 + 36) = {27.6457601641103, 1.001115061138562, 0};
Point(p16 + 37) = {27.69733953134733, 1.08528493858535, 0};
Point(p16 + 38) = {27.73511680123173, 1.176487335889704, 0};
Point(p16 + 39) = {27.75816177200338, 1.272476547346586, 0};
Spline(16) = {12, p16 + 1, p16 + 2, p16 + 3, p16 + 4, p16 + 5, p16 + 6, p16 + 7, p16 + 8, p16 + 9, p16 + 10, p16 + 11, p16 + 12, p16 + 13, p16 + 14, p16 + 15, p16 + 16, p16 + 17, p16 + 18, p16 + 19, p16 + 20, p16 + 21, p16 + 22, p16 + 23, p16 + 24, p16 + 25, p16 + 26, p16 + 27, p16 + 28, p16 + 29, p16 + 30, p16 + 31, p16 + 32, p16 + 33, p16 + 34, p16 + 35, p16 + 36, p16 + 37, p16 + 38, p16 + 39, 12};
Line(17) = {11, 8};
Line(18) = {12, 9};
Curve Loop(1) = {-1, 4, 3, -2};
Plane Surface(1) = {1};
Curve Loop(2) = {-5, 1, 7, -6};
Plane Surface(2) = {2};
Curve Loop(3) = {-2, 7, 9, -8, -10, -11};
Plane Surface(3) = {3};
Curve Loop(4) = {-12, 3, 8, -13};
Plane Surface(4) = {4};
Curve Loop(5) = {-4, 5, 14, -12, -15, -16};
Plane Surface(5) = {5};
Curve Loop(6) = {-6, 14, 13, -9};
Plane Surface(6) = {6};
Curve Loop(7) = {-10, -17, 15, 17};
Surface(7) = {7};
Curve Loop(8) = {-11, -18, 16, 18};
Surface(8) = {8};
Surface Loop(1) = {1, 2, 3, 4, 5, 6, 7, 8};
Volume(1) = {1};
Physical Surface("INFLOW") = {1};
Physical Surface("OUTFLOW") = {6};
Physical Surface("OBSTACLE") = {7, 8};
Physical Surface("WALL_Y") = {2, 4};
Physical Surface("WALL_Z") = {3, 5};
Physical Volume("FLUID") = {1};
