cl__1 = 3.672944;
cl__2 = 0.591991;
cl__3 = 0.463515;
cl__4 = 0.109497;
cl__5 = 0.133801;
Point(1) = {0.048919, -3.647645, 1, cl__1};
Point(2) = {0.048919, -3.647645, 0, cl__1};
Point(3) = {0.048919, 3.944158, 1, cl__1};
Point(4) = {0.048919, 3.944158, 0, cl__1};
Point(5) = {36.53276899999999, -3.647645, 0, cl__2};
Point(6) = {36.53276899999999, -3.647645, 1, cl__2};
Point(7) = {36.53276899999999, 3.944158, 1, cl__3};
Point(8) = {23.41977, 1.453934, 1, cl__4};
Point(9) = {32.530762, 1.267805, 1, cl__5};
Point(10) = {36.53276899999999, 3.944158, 0, cl__3};
Point(11) = {23.41977, 1.453934, 0, cl__4};
Point(12) = {32.530762, 1.267805, 0, cl__5};
Line(1) = {2, 1};
Line(2) = {1, 3};
Line(3) = {4, 3};
Line(4) = {2, 4};
Line(5) = {2, 5};
Line(6) = {5, 6};
Line(7) = {1, 6};
Line(8) = {3, 7};
Line(9) = {6, 7};
p10 = newp;
Point(p10 + 1) = {23.40628911461312, 1.625224889750637, 1};
Point(p10 + 2) = {23.36617840259119, 1.792298029313742, 1};
Point(p10 + 3) = {23.30042552278401, 1.951039523509312, 1};
Point(p10 + 4) = {23.21064952931374, 2.097540629917437, 1};
Point(p10 + 5) = {23.09906100508906, 2.228194005089053, 1};
Point(p10 + 6) = {22.96840762991744, 2.339782529313742, 1};
Point(p10 + 7) = {22.82190652350931, 2.429558522784013, 1};
Point(p10 + 8) = {22.66316502931374, 2.495311402591188, 1};
Point(p10 + 9) = {22.49609188975064, 2.535422114613118, 1};
Point(p10 + 10) = {22.324801, 2.548903, 1};
Point(p10 + 11) = {22.15351011024936, 2.535422114613118, 1};
Point(p10 + 12) = {21.98643697068626, 2.495311402591188, 1};
Point(p10 + 13) = {21.82769547649069, 2.429558522784013, 1};
Point(p10 + 14) = {21.68119437008257, 2.339782529313742, 1};
Point(p10 + 15) = {21.55054099491095, 2.228194005089053, 1};
Point(p10 + 16) = {21.43895247068626, 2.097540629917437, 1};
Point(p10 + 17) = {21.34917647721599, 1.951039523509312, 1};
Point(p10 + 18) = {21.28342359740881, 1.792298029313742, 1};
Point(p10 + 19) = {21.24331288538689, 1.625224889750637, 1};
Point(p10 + 20) = {21.229832, 1.453934, 1};
Point(p10 + 21) = {21.24331288538689, 1.282643110249364, 1};
Point(p10 + 22) = {21.28342359740881, 1.115569970686258, 1};
Point(p10 + 23) = {21.34917647721599, 0.9568284764906888, 1};
Point(p10 + 24) = {21.43895247068626, 0.8103273700825632, 1};
Point(p10 + 25) = {21.55054099491095, 0.6796739949109473, 1};
Point(p10 + 26) = {21.68119437008257, 0.5680854706862583, 1};
Point(p10 + 27) = {21.82769547649069, 0.478309477215987, 1};
Point(p10 + 28) = {21.98643697068626, 0.4125565974088121, 1};
Point(p10 + 29) = {22.15351011024936, 0.3724458853868826, 1};
Point(p10 + 30) = {22.324801, 0.358965, 1};
Point(p10 + 31) = {22.49609188975064, 0.3724458853868826, 1};
Point(p10 + 32) = {22.66316502931374, 0.4125565974088119, 1};
Point(p10 + 33) = {22.82190652350931, 0.4783094772159869, 1};
Point(p10 + 34) = {22.96840762991744, 0.568085470686258, 1};
Point(p10 + 35) = {23.09906100508905, 0.679673994910947, 1};
Point(p10 + 36) = {23.21064952931374, 0.8103273700825627, 1};
Point(p10 + 37) = {23.30042552278401, 0.956828476490688, 1};
Point(p10 + 38) = {23.36617840259119, 1.115569970686258, 1};
Point(p10 + 39) = {23.40628911461312, 1.282643110249363, 1};
Spline(10) = {8, p10 + 1, p10 + 2, p10 + 3, p10 + 4, p10 + 5, p10 + 6, p10 + 7, p10 + 8, p10 + 9, p10 + 10, p10 + 11, p10 + 12, p10 + 13, p10 + 14, p10 + 15, p10 + 16, p10 + 17, p10 + 18, p10 + 19, p10 + 20, p10 + 21, p10 + 22, p10 + 23, p10 + 24, p10 + 25, p10 + 26, p10 + 27, p10 + 28, p10 + 29, p10 + 30, p10 + 31, p10 + 32, p10 + 33, p10 + 34, p10 + 35, p10 + 36, p10 + 37, p10 + 38, p10 + 39, 8};
p11 = newp;
Point(p11 + 1) = {32.51428882735306, 1.477116504306339, 1};
Point(p11 + 2) = {32.46527493359415, 1.681274064711601, 1};
Point(p11 + 3) = {32.38492720345538, 1.87525064451851, 1};
Point(p11 + 4) = {32.2752240647116, 2.054269896560861, 1};
Point(p11 + 5) = {32.13886677272254, 2.213923772722537, 1};
Point(p11 + 6) = {31.97921289656086, 2.350281064711601, 1};
Point(p11 + 7) = {31.80019364451851, 2.459984203455375, 1};
Point(p11 + 8) = {31.6062170647116, 2.540331933594143, 1};
Point(p11 + 9) = {31.40205950430634, 2.589345827353063, 1};
Point(p11 + 10) = {31.192748, 2.605819, 1};
Point(p11 + 11) = {30.98343649569366, 2.589345827353063, 1};
Point(p11 + 12) = {30.7792789352884, 2.540331933594144, 1};
Point(p11 + 13) = {30.58530235548149, 2.459984203455375, 1};
Point(p11 + 14) = {30.40628310343914, 2.350281064711601, 1};
Point(p11 + 15) = {30.24662922727746, 2.213923772722537, 1};
Point(p11 + 16) = {30.1102719352884, 2.054269896560861, 1};
Point(p11 + 17) = {30.00056879654463, 1.87525064451851, 1};
Point(p11 + 18) = {29.92022106640586, 1.681274064711601, 1};
Point(p11 + 19) = {29.87120717264694, 1.47711650430634, 1};
Point(p11 + 20) = {29.854734, 1.267805, 1};
Point(p11 + 21) = {29.87120717264694, 1.058493495693661, 1};
Point(p11 + 22) = {29.92022106640586, 0.8543359352883988, 1};
Point(p11 + 23) = {30.00056879654463, 0.6603593554814908, 1};
Point(p11 + 24) = {30.1102719352884, 0.481340103439139, 1};
Point(p11 + 25) = {30.24662922727746, 0.3216862272774629, 1};
Point(p11 + 26) = {30.40628310343914, 0.1853289352883993, 1};
Point(p11 + 27) = {30.58530235548149, 0.0756257965446252, 1};
Point(p11 + 28) = {30.7792789352884, -0.004721933594143524, 1};
Point(p11 + 29) = {30.98343649569366, -0.05373582735306259, 1};
Point(p11 + 30) = {31.192748, -0.07020899999999997, 1};
Point(p11 + 31) = {31.40205950430634, -0.05373582735306259, 1};
Point(p11 + 32) = {31.6062170647116, -0.004721933594143746, 1};
Point(p11 + 33) = {31.80019364451851, 0.0756257965446252, 1};
Point(p11 + 34) = {31.97921289656086, 0.1853289352883989, 1};
Point(p11 + 35) = {32.13886677272254, 0.3216862272774627, 1};
Point(p11 + 36) = {32.2752240647116, 0.4813401034391386, 1};
Point(p11 + 37) = {32.38492720345538, 0.6603593554814898, 1};
Point(p11 + 38) = {32.46527493359415, 0.8543359352883989, 1};
Point(p11 + 39) = {32.51428882735306, 1.05849349569366, 1};
Spline(11) = {9, p11 + 1, p11 + 2, p11 + 3, p11 + 4, p11 + 5, p11 + 6, p11 + 7, p11 + 8, p11 + 9, p11 + 10, p11 + 11, p11 + 12, p11 + 13, p11 + 14, p11 + 15, p11 + 16, p11 + 17, p11 + 18, p11 + 19, p11 + 20, p11 + 21, p11 + 22, p11 + 23, p11 + 24, p11 + 25, p11 + 26, p11 + 27, p11 + 28, p11 + 29, p11 + 30, p11 + 31, p11 + 32, p11 + 33, p11 + 34, p11 + 35, p11 + 36, p11 + 37, p11 + 38, p11 + 39, 9};
Line(12) = {4, 10};
Line(13) = {10, 7};
Line(14) = {5, 10};
p15 = newp;
Point(p15 + 1) = {23.40628911461312, 1.625224889750637, 0};
Point(p15 + 2) = {23.36617840259119, 1.792298029313742, 0};
Point(p15 + 3) = {23.30042552278401, 1.951039523509312, 0};
Point(p15 + 4) = {23.21064952931374, 2.097540629917437, 0};
Point(p15 + 5) = {23.09906100508906, 2.228194005089053, 0};
Point(p15 + 6) = {22.96840762991744, 2.339782529313742, 0};
Point(p15 + 7) = {22.82190652350931, 2.429558522784013, 0};
Point(p15 + 8) = {22.66316502931374, 2.495311402591188, 0};
Point(p15 + 9) = {22.49609188975064, 2.535422114613118, 0};
Point(p15 + 10) = {22.324801, 2.548903, 0};
Point(p15 + 11) = {22.15351011024936, 2.535422114613118, 0};
Point(p15 + 12) = {21.98643697068626, 2.495311402591188, 0};
Point(p15 + 13) = {21.82769547649069, 2.429558522784013, 0};
Point(p15 + 14) = {21.68119437008257, 2.339782529313742, 0};
Point(p15 + 15) = {21.55054099491095, 2.228194005089053, 0};
Point(p15 + 16) = {21.43895247068626, 2.097540629917437, 0};
Point(p15 + 17) = {21.34917647721599, 1.951039523509312, 0};
Point(p15 + 18) = {21.28342359740881, 1.792298029313742, 0};
Point(p15 + 19) = {21.24331288538689, 1.625224889750637, 0};
Point(p15 + 20) = {21.229832, 1.453934, 0};
Point(p15 + 21) = {21.24331288538689, 1.282643110249364, 0};
Point(p15 + 22) = {21.28342359740881, 1.115569970686258, 0};
Point(p15 + 23) = {21.34917647721599, 0.9568284764906888, 0};
Point(p15 + 24) = {21.43895247068626, 0.8103273700825632, 0};
Point(p15 + 25) = {21.55054099491095, 0.6796739949109473, 0};
Point(p15 + 26) = {21.68119437008257, 0.5680854706862583, 0};
Point(p15 + 27) = {21.82769547649069, 0.478309477215987, 0};
Point(p15 + 28) = {21.98643697068626, 0.4125565974088121, 0};
Point(p15 + 29) = {22.15351011024936, 0.3724458853868826, 0};
Point(p15 + 30) = {22.324801, 0.358965, 0};
Point(p15 + 31) = {22.49609188975064, 0.3724458853868826, 0};
Point(p15 + 32) = {22.66316502931374, 0.4125565974088119, 0};
Point(p15 + 33) = {22.82190652350931, 0.4783094772159869, 0};
Point(p15 + 34) = {22.96840762991744, 0.568085470686258, 0};
Point(p15 + 35) = {23.09906100508905, 0.679673994910947, 0};
Point(p15 + 36) = {23.21064952931374, 0.8103273700825627, 0};
Point(p15 + 37) = {23.30042552278401, 0.956828476490688, 0};
Point(p15 + 38) = {23.36617840259119, 1.115569970686258, 0};
Point(p15 + 39) = {23.40628911461312, 1.282643110249363, 0};
Spline(15) = {11, p15 + 1, p15 + 2, p15 + 3, p15 + 4, p15 + 5, p15 + 6, p15 + 7, p15 + 8, p15 + 9, p15 + 10, p15 + 11, p15 + 12, p15 + 13, p15 + 14, p15 + 15, p15 + 16, p15 + 17, p15 + 18, p15 + 19, p15 + 20, p15 + 21, p15 + 22, p15 + 23, p15 + 24, p15 + 25, p15 + 26, p15 + 27, p15 + 28, p15 + 29, p15 + 30, p15 + 31, p15 + 32, p15 + 33, p15 + 34, p15 + 35, p15 + 36, p15 + 37, p15 + 38, p15 + 39, 11};
p16 = newp;
Point(p16 + 1) = {32.51428882735306, 1.477116504306339, 0};
Point(p16 + 2) = {32.46527493359415, 1.681274064711601, 0};
Point(p16 + 3) = {32.38492720345538, 1.87525064451851, 0};
Point(p16 + 4) = {32.2752240647116, 2.054269896560861, 0};
Point(p16 + 5) = {32.13886677272254, 2.213923772722537, 0};
Point(p16 + 6) = {31.97921289656086, 2.350281064711601, 0};
Point(p16 + 7) = {31.80019364451851, 2.459984203455375, 0};
Point(p16 + 8) = {31.6062170647116, 2.540331933594143, 0};
Point(p16 + 9) = {31.40205950430634, 2.589345827353063, 0};
Point(p16 + 10) = {31.192748, 2.605819, 0};
Point(p16 + 11) = {30.98343649569366, 2.589345827353063, 0};
Point(p16 + 12) = {30.7792789352884, 2.540331933594144, 0};
Point(p16 + 13) = {30.58530235548149, 2.459984203455375, 0};
Point(p16 + 14) = {30.40628310343914, 2.350281064711601, 0};
Point(p16 + 15) = {30.24662922727746, 2.213923772722537, 0};
Point(p16 + 16) = {30.1102719352884, 2.054269896560861, 0};
Point(p16 + 17) = {30.00056879654463, 1.87525064451851, 0};
Point(p16 + 18) = {29.92022106640586, 1.681274064711601, 0};
Point(p16 + 19) = {29.87120717264694, 1.47711650430634, 0};
Point(p16 + 20) = {29.854734, 1.267805, 0};
Point(p16 + 21) = {29.87120717264694, 1.058493495693661, 0};
Point(p16 + 22) = {29.92022106640586, 0.8543359352883988, 0};
Point(p16 + 23) = {30.00056879654463, 0.6603593554814908, 0};
Point(p16 + 24) = {30.1102719352884, 0.481340103439139, 0};
Point(p16 + 25) = {30.24662922727746, 0.3216862272774629, 0};
Point(p16 + 26) = {30.40628310343914, 0.1853289352883993, 0};
Point(p16 + 27) = {30.58530235548149, 0.0756257965446252, 0};
Point(p16 + 28) = {30.7792789352884, -0.004721933594143524, 0};
Point(p16 + 29) = {30.98343649569366, -0.05373582735306259, 0};
Point(p16 + 30) = {31.192748, -0.07020899999999997, 0};
Point(p16 + 31) = {31.40205950430634, -0.05373582735306259, 0};
Point(p16 + 32) = {31.6062170647116, -0.004721933594143746, 0};
Point(p16 + 33) = {31.80019364451851, 0.0756257965446252, 0};
Point(p16 + 34) = {31.97921289656086, 0.1853289352883989, 0};
Point(p16 + 35) = {32.13886677272254, 0.3216862272774627, 0};
Point(p16 + 36) = {32.2752240647116, 0.4813401034391386, 0};
Point(p16 + 37) = {32.38492720345538, 0.6603593554814898, 0};
Point(p16 + 38) = {32.46527493359415, 0.8543359352883989, 0};
Point(p16 + 39) = {32.51428882735306, 1.05849349569366, 0};
Spline(16) = {12, p16 + 1, p16 + 2, p16 + 3, p16 + 4, p16 + 5, p16 + 6, p16 + 7, p16 + 8, p16 + 9, p16 + 10, p16 + 11, p16 + 12, p16 + 13, p16 + 14, p16 + 15, p16 + 16, p16 + 17, p16 + 18, p16 + 19, p16 + 20, p16 + 21, p16 + 22, p16 + 23, p16 + 24, p16 + 25, p16 + 26, p16 + 27, p16 + 28, p16 + 29, p16 + 30, p16 + 31, p16 + 32, p16 + 33, p16 + 34, p16 + 35, p16 + 36, p16 + 37, p16 + 38, p16 + 39, 12};
Line(17) = {11, 8};
Line(18) = {12, 9};
Curve Loop(1) = {-1, 4, 3, -2};
Plane Surface(1) = {1};
Curve Loop(2) = {-5, 1, 7, -6};
Plane Surface(2) = {2};
Curve Loop(3) = {-2, 7, 9, -8, -10, -11};
Plane Surface(3) = {3};
Curve Loop(4) = {-12, 3, 8, -13};
Plane Surface(4) = {4};
Curve Loop(5) = {-4, 5, 14, -12, -15, -16};
Plane Surface(5) = {5};
Curve Loop(6) = {-6, 14, 13, -9};
Plane Surface(6) = {6};
Curve Loop(7) = {-10, -17, 15, 17};
Surface(7) = {7};
Curve Loop(8) = {-11, -18, 16, 18};
Surface(8) = {8};
Surface Loop(1) = {1, 2, 3, 4, 5, 6, 7, 8};
Volume(1) = {1};
Physical Surface("INFLOW") = {1};
Physical Surface("OUTFLOW") = {6};
Physical Surface("OBSTACLE") = {7, 8};
Physical Surface("WALL_Y") = {2, 4};
Physical Surface("WALL_Z") = {3, 5};
Physical Volume("FLUID") = {1};
