cl__1 = 3.220118;
cl__2 = 1.043348;
cl__3 = 1.533748;
cl__4 = 0.107659;
cl__5 = 0.148115;
Point(1) = {0.227595, -4.136663, 1, cl__1};
Point(2) = {0.227595, -4.136663, 0, cl__1};
Point(3) = {0.227595, 4.183992, 1, cl__2};
Point(4) = {0.227595, 4.183992, 0, cl__2};
Point(5) = {31.931297, -4.136663, 0, cl__3};
Point(6) = {31.931297, -4.136663, 1, cl__3};
Point(7) = {31.931297, 4.183992, 1, cl__2};
Point(8) = {17.40699, -0.9552490000000002, 1, cl__4};
Point(9) = {21.964494, -0.8347420000000003, 1, cl__5};
Point(10) = {31.931297, 4.183992, 0, cl__2};
Point(11) = {17.40699, -0.9552490000000002, 0, cl__4};
Point(12) = {21.964494, -0.8347420000000003, 0, cl__5};
Line(1) = {2, 1};
Line(2) = {1, 3};
Line(3) = {4, 3};
Line(4) = {2, 4};
Line(5) = {2, 5};
Line(6) = {5, 6};
Line(7) = {1, 6};
Line(8) = {3, 7};
Line(9) = {6, 7};
p10 = newp;
Point(p10 + 1) = {17.39373541522464, -0.7868335321512679, 1};
Point(p10 + 2) = {17.35429803276516, -0.6225650120598641, 1};
Point(p10 + 3) = {17.28964893186291, -0.4664882758664008, 1};
Point(p10 + 4) = {17.20137998794014, -0.3224464508049509, 1};
Point(p10 + 5) = {17.09166467534406, -0.1939863246559372, 1};
Point(p10 + 6) = {16.96320454919505, -0.08427101205986398, 1};
Point(p10 + 7) = {16.8191627241336, 0.003997931862906534, 1};
Point(p10 + 8) = {16.66308598794014, 0.06864703276516693, 1};
Point(p10 + 9) = {16.49881746784873, 0.1080844152246383, 1};
Point(p10 + 10) = {16.330402, 0.1213390000000001, 1};
Point(p10 + 11) = {16.16198653215127, 0.1080844152246381, 1};
Point(p10 + 12) = {15.99771801205986, 0.06864703276516693, 1};
Point(p10 + 13) = {15.8416412758664, 0.003997931862906645, 1};
Point(p10 + 14) = {15.69759945080495, -0.08427101205986398, 1};
Point(p10 + 15) = {15.56913932465594, -0.193986324655937, 1};
Point(p10 + 16) = {15.45942401205986, -0.3224464508049507, 1};
Point(p10 + 17) = {15.37115506813709, -0.4664882758664007, 1};
Point(p10 + 18) = {15.30650596723483, -0.622565012059864, 1};
Point(p10 + 19) = {15.26706858477536, -0.7868335321512678, 1};
Point(p10 + 20) = {15.253814, -0.9552489999999999, 1};
Point(p10 + 21) = {15.26706858477536, -1.123664467848732, 1};
Point(p10 + 22) = {15.30650596723483, -1.287932987940136, 1};
Point(p10 + 23) = {15.37115506813709, -1.444009724133599, 1};
Point(p10 + 24) = {15.45942401205986, -1.588051549195049, 1};
Point(p10 + 25) = {15.56913932465594, -1.716511675344063, 1};
Point(p10 + 26) = {15.69759945080495, -1.826226987940136, 1};
Point(p10 + 27) = {15.8416412758664, -1.914495931862906, 1};
Point(p10 + 28) = {15.99771801205986, -1.979145032765167, 1};
Point(p10 + 29) = {16.16198653215127, -2.018582415224638, 1};
Point(p10 + 30) = {16.330402, -2.031837, 1};
Point(p10 + 31) = {16.49881746784873, -2.018582415224638, 1};
Point(p10 + 32) = {16.66308598794014, -1.979145032765167, 1};
Point(p10 + 33) = {16.8191627241336, -1.914495931862907, 1};
Point(p10 + 34) = {16.96320454919505, -1.826226987940136, 1};
Point(p10 + 35) = {17.09166467534406, -1.716511675344063, 1};
Point(p10 + 36) = {17.20137998794014, -1.58805154919505, 1};
Point(p10 + 37) = {17.28964893186291, -1.444009724133599, 1};
Point(p10 + 38) = {17.35429803276516, -1.287932987940136, 1};
Point(p10 + 39) = {17.39373541522464, -1.123664467848732, 1};
Spline(10) = {8, p10 + 1, p10 + 2, p10 + 3, p10 + 4, p10 + 5, p10 + 6, p10 + 7, p10 + 8, p10 + 9, p10 + 10, p10 + 11, p10 + 12, p10 + 13, p10 + 14, p10 + 15, p10 + 16, p10 + 17, p10 + 18, p10 + 19, p10 + 20, p10 + 21, p10 + 22, p10 + 23, p10 + 24, p10 + 25, p10 + 26, p10 + 27, p10 + 28, p10 + 29, p10 + 30, p10 + 31, p10 + 32, p10 + 33, p10 + 34, p10 + 35, p10 + 36, p10 + 37, p10 + 38, p10 + 39, 8};
p11 = newp;
Point(p11 + 1) = {21.94625858567249, -0.6030390921056621, 1};
Point(p11 + 2) = {21.89200135911057, -0.3770414787815466, 1};
Point(p11 + 3) = {21.8030583133016, -0.1623139713107703, 1};
Point(p11 + 4) = {21.68161952121845, 0.03585612643299663, 1};
Point(p11 + 5) = {21.53067520895445, 0.2125892089544547, 1};
Point(p11 + 6) = {21.35394212643299, 0.3635335212184535, 1};
Point(p11 + 7) = {21.15577202868923, 0.484972313301601, 1};
Point(p11 + 8) = {20.94104452121845, 0.5739153591105667, 1};
Point(p11 + 9) = {20.71504690789434, 0.6281725856724883, 1};
Point(p11 + 10) = {20.483344, 0.646408, 1};
Point(p11 + 11) = {20.25164109210566, 0.6281725856724881, 1};
Point(p11 + 12) = {20.02564347878155, 0.5739153591105669, 1};
Point(p11 + 13) = {19.81091597131077, 0.4849723133016012, 1};
Point(p11 + 14) = {19.612745873567, 0.3635335212184535, 1};
Point(p11 + 15) = {19.43601279104555, 0.2125892089544549, 1};
Point(p11 + 16) = {19.28506847878155, 0.03585612643299674, 1};
Point(p11 + 17) = {19.1636296866984, -0.1623139713107702, 1};
Point(p11 + 18) = {19.07468664088943, -0.3770414787815465, 1};
Point(p11 + 19) = {19.02042941432751, -0.6030390921056619, 1};
Point(p11 + 20) = {19.002194, -0.8347419999999998, 1};
Point(p11 + 21) = {19.02042941432751, -1.066444907894338, 1};
Point(p11 + 22) = {19.07468664088943, -1.292442521218454, 1};
Point(p11 + 23) = {19.1636296866984, -1.507170028689229, 1};
Point(p11 + 24) = {19.28506847878155, -1.705340126432996, 1};
Point(p11 + 25) = {19.43601279104555, -1.882073208954455, 1};
Point(p11 + 26) = {19.612745873567, -2.033017521218453, 1};
Point(p11 + 27) = {19.81091597131077, -2.154456313301601, 1};
Point(p11 + 28) = {20.02564347878155, -2.243399359110567, 1};
Point(p11 + 29) = {20.25164109210566, -2.297656585672488, 1};
Point(p11 + 30) = {20.483344, -2.315892, 1};
Point(p11 + 31) = {20.71504690789434, -2.297656585672488, 1};
Point(p11 + 32) = {20.94104452121845, -2.243399359110567, 1};
Point(p11 + 33) = {21.15577202868923, -2.154456313301601, 1};
Point(p11 + 34) = {21.35394212643299, -2.033017521218453, 1};
Point(p11 + 35) = {21.53067520895445, -1.882073208954455, 1};
Point(p11 + 36) = {21.68161952121845, -1.705340126432997, 1};
Point(p11 + 37) = {21.8030583133016, -1.50717002868923, 1};
Point(p11 + 38) = {21.89200135911057, -1.292442521218454, 1};
Point(p11 + 39) = {21.94625858567249, -1.066444907894338, 1};
Spline(11) = {9, p11 + 1, p11 + 2, p11 + 3, p11 + 4, p11 + 5, p11 + 6, p11 + 7, p11 + 8, p11 + 9, p11 + 10, p11 + 11, p11 + 12, p11 + 13, p11 + 14, p11 + 15, p11 + 16, p11 + 17, p11 + 18, p11 + 19, p11 + 20, p11 + 21, p11 + 22, p11 + 23, p11 + 24, p11 + 25, p11 + 26, p11 + 27, p11 + 28, p11 + 29, p11 + 30, p11 + 31, p11 + 32, p11 + 33, p11 + 34, p11 + 35, p11 + 36, p11 + 37, p11 + 38, p11 + 39, 9};
Line(12) = {4, 10};
Line(13) = {10, 7};
Line(14) = {5, 10};
p15 = newp;
Point(p15 + 1) = {17.39373541522464, -0.7868335321512679, 0};
Point(p15 + 2) = {17.35429803276516, -0.6225650120598641, 0};
Point(p15 + 3) = {17.28964893186291, -0.4664882758664008, 0};
Point(p15 + 4) = {17.20137998794014, -0.3224464508049509, 0};
Point(p15 + 5) = {17.09166467534406, -0.1939863246559372, 0};
Point(p15 + 6) = {16.96320454919505, -0.08427101205986398, 0};
Point(p15 + 7) = {16.8191627241336, 0.003997931862906534, 0};
Point(p15 + 8) = {16.66308598794014, 0.06864703276516693, 0};
Point(p15 + 9) = {16.49881746784873, 0.1080844152246383, 0};
Point(p15 + 10) = {16.330402, 0.1213390000000001, 0};
Point(p15 + 11) = {16.16198653215127, 0.1080844152246381, 0};
Point(p15 + 12) = {15.99771801205986, 0.06864703276516693, 0};
Point(p15 + 13) = {15.8416412758664, 0.003997931862906645, 0};
Point(p15 + 14) = {15.69759945080495, -0.08427101205986398, 0};
Point(p15 + 15) = {15.56913932465594, -0.193986324655937, 0};
Point(p15 + 16) = {15.45942401205986, -0.3224464508049507, 0};
Point(p15 + 17) = {15.37115506813709, -0.4664882758664007, 0};
Point(p15 + 18) = {15.30650596723483, -0.622565012059864, 0};
Point(p15 + 19) = {15.26706858477536, -0.7868335321512678, 0};
Point(p15 + 20) = {15.253814, -0.9552489999999999, 0};
Point(p15 + 21) = {15.26706858477536, -1.123664467848732, 0};
Point(p15 + 22) = {15.30650596723483, -1.287932987940136, 0};
Point(p15 + 23) = {15.37115506813709, -1.444009724133599, 0};
Point(p15 + 24) = {15.45942401205986, -1.588051549195049, 0};
Point(p15 + 25) = {15.56913932465594, -1.716511675344063, 0};
Point(p15 + 26) = {15.69759945080495, -1.826226987940136, 0};
Point(p15 + 27) = {15.8416412758664, -1.914495931862906, 0};
Point(p15 + 28) = {15.99771801205986, -1.979145032765167, 0};
Point(p15 + 29) = {16.16198653215127, -2.018582415224638, 0};
Point(p15 + 30) = {16.330402, -2.031837, 0};
Point(p15 + 31) = {16.49881746784873, -2.018582415224638, 0};
Point(p15 + 32) = {16.66308598794014, -1.979145032765167, 0};
Point(p15 + 33) = {16.8191627241336, -1.914495931862907, 0};
Point(p15 + 34) = {16.96320454919505, -1.826226987940136, 0};
Point(p15 + 35) = {17.09166467534406, -1.716511675344063, 0};
Point(p15 + 36) = {17.20137998794014, -1.58805154919505, 0};
Point(p15 + 37) = {17.28964893186291, -1.444009724133599, 0};
Point(p15 + 38) = {17.35429803276516, -1.287932987940136, 0};
Point(p15 + 39) = {17.39373541522464, -1.123664467848732, 0};
Spline(15) = {11, p15 + 1, p15 + 2, p15 + 3, p15 + 4, p15 + 5, p15 + 6, p15 + 7, p15 + 8, p15 + 9, p15 + 10, p15 + 11, p15 + 12, p15 + 13, p15 + 14, p15 + 15, p15 + 16, p15 + 17, p15 + 18, p15 + 19, p15 + 20, p15 + 21, p15 + 22, p15 + 23, p15 + 24, p15 + 25, p15 + 26, p15 + 27, p15 + 28, p15 + 29, p15 + 30, p15 + 31, p15 + 32, p15 + 33, p15 + 34, p15 + 35, p15 + 36, p15 + 37, p15 + 38, p15 + 39, 11};
p16 = newp;
Point(p16 + 1) = {21.94625858567249, -0.6030390921056621, 0};
Point(p16 + 2) = {21.89200135911057, -0.3770414787815466, 0};
Point(p16 + 3) = {21.8030583133016, -0.1623139713107703, 0};
Point(p16 + 4) = {21.68161952121845, 0.03585612643299663, 0};
Point(p16 + 5) = {21.53067520895445, 0.2125892089544547, 0};
Point(p16 + 6) = {21.35394212643299, 0.3635335212184535, 0};
Point(p16 + 7) = {21.15577202868923, 0.484972313301601, 0};
Point(p16 + 8) = {20.94104452121845, 0.5739153591105667, 0};
Point(p16 + 9) = {20.71504690789434, 0.6281725856724883, 0};
Point(p16 + 10) = {20.483344, 0.646408, 0};
Point(p16 + 11) = {20.25164109210566, 0.6281725856724881, 0};
Point(p16 + 12) = {20.02564347878155, 0.5739153591105669, 0};
Point(p16 + 13) = {19.81091597131077, 0.4849723133016012, 0};
Point(p16 + 14) = {19.612745873567, 0.3635335212184535, 0};
Point(p16 + 15) = {19.43601279104555, 0.2125892089544549, 0};
Point(p16 + 16) = {19.28506847878155, 0.03585612643299674, 0};
Point(p16 + 17) = {19.1636296866984, -0.1623139713107702, 0};
Point(p16 + 18) = {19.07468664088943, -0.3770414787815465, 0};
Point(p16 + 19) = {19.02042941432751, -0.6030390921056619, 0};
Point(p16 + 20) = {19.002194, -0.8347419999999998, 0};
Point(p16 + 21) = {19.02042941432751, -1.066444907894338, 0};
Point(p16 + 22) = {19.07468664088943, -1.292442521218454, 0};
Point(p16 + 23) = {19.1636296866984, -1.507170028689229, 0};
Point(p16 + 24) = {19.28506847878155, -1.705340126432996, 0};
Point(p16 + 25) = {19.43601279104555, -1.882073208954455, 0};
Point(p16 + 26) = {19.612745873567, -2.033017521218453, 0};
Point(p16 + 27) = {19.81091597131077, -2.154456313301601, 0};
Point(p16 + 28) = {20.02564347878155, -2.243399359110567, 0};
Point(p16 + 29) = {20.25164109210566, -2.297656585672488, 0};
Point(p16 + 30) = {20.483344, -2.315892, 0};
Point(p16 + 31) = {20.71504690789434, -2.297656585672488, 0};
Point(p16 + 32) = {20.94104452121845, -2.243399359110567, 0};
Point(p16 + 33) = {21.15577202868923, -2.154456313301601, 0};
Point(p16 + 34) = {21.35394212643299, -2.033017521218453, 0};
Point(p16 + 35) = {21.53067520895445, -1.882073208954455, 0};
Point(p16 + 36) = {21.68161952121845, -1.705340126432997, 0};
Point(p16 + 37) = {21.8030583133016, -1.50717002868923, 0};
Point(p16 + 38) = {21.89200135911057, -1.292442521218454, 0};
Point(p16 + 39) = {21.94625858567249, -1.066444907894338, 0};
Spline(16) = {12, p16 + 1, p16 + 2, p16 + 3, p16 + 4, p16 + 5, p16 + 6, p16 + 7, p16 + 8, p16 + 9, p16 + 10, p16 + 11, p16 + 12, p16 + 13, p16 + 14, p16 + 15, p16 + 16, p16 + 17, p16 + 18, p16 + 19, p16 + 20, p16 + 21, p16 + 22, p16 + 23, p16 + 24, p16 + 25, p16 + 26, p16 + 27, p16 + 28, p16 + 29, p16 + 30, p16 + 31, p16 + 32, p16 + 33, p16 + 34, p16 + 35, p16 + 36, p16 + 37, p16 + 38, p16 + 39, 12};
Line(17) = {11, 8};
Line(18) = {12, 9};
Curve Loop(1) = {-1, 4, 3, -2};
Plane Surface(1) = {1};
Curve Loop(2) = {-5, 1, 7, -6};
Plane Surface(2) = {2};
Curve Loop(3) = {-2, 7, 9, -8, -10, -11};
Plane Surface(3) = {3};
Curve Loop(4) = {-12, 3, 8, -13};
Plane Surface(4) = {4};
Curve Loop(5) = {-4, 5, 14, -12, -15, -16};
Plane Surface(5) = {5};
Curve Loop(6) = {-6, 14, 13, -9};
Plane Surface(6) = {6};
Curve Loop(7) = {-10, -17, 15, 17};
Surface(7) = {7};
Curve Loop(8) = {-11, -18, 16, 18};
Surface(8) = {8};
Surface Loop(1) = {1, 2, 3, 4, 5, 6, 7, 8};
Volume(1) = {1};
Physical Surface("INFLOW") = {1};
Physical Surface("OUTFLOW") = {6};
Physical Surface("OBSTACLE") = {7, 8};
Physical Surface("WALL_Y") = {2, 4};
Physical Surface("WALL_Z") = {3, 5};
Physical Volume("FLUID") = {1};
