cl__1 = 0.534303;
cl__2 = 0.322066;
cl__3 = 3.078878;
cl__4 = 0.110632;
Point(1) = {0.074082, -3.307051, 1, cl__1};
Point(2) = {0.074082, -3.307051, 0, cl__1};
Point(3) = {0.074082, 4.565943000000001, 1, cl__2};
Point(4) = {0.074082, 4.565943000000001, 0, cl__2};
Point(5) = {30.536091, -3.307051, 0, cl__3};
Point(6) = {30.536091, -3.307051, 1, cl__3};
Point(7) = {30.536091, 4.565943000000001, 1, cl__3};
Point(8) = {4.723366, 2.081961999999999, 1, cl__4};
Point(9) = {30.536091, 4.565943000000001, 0, cl__3};
Point(10) = {4.723366, 2.081961999999999, 0, cl__4};
Line(1) = {2, 1};
Line(2) = {1, 3};
Line(3) = {4, 3};
Line(4) = {2, 4};
Line(5) = {2, 5};
Line(6) = {5, 6};
Line(7) = {1, 6};
Line(8) = {3, 7};
Line(9) = {6, 7};
p10 = newp;
Point(p10 + 1) = {4.709745389590532, 2.255028264494378, 1};
Point(p10 + 2) = {4.669218942994622, 2.423833063182903, 1};
Point(p10 + 3) = {4.602784555827027, 2.584219861690856, 1};
Point(p10 + 4) = {4.512078063182903, 2.732239404745704, 1};
Point(p10 + 5) = {4.399332959948739, 2.864246959948739, 1};
Point(p10 + 6) = {4.267325404745704, 2.976992063182903, 1};
Point(p10 + 7) = {4.119305861690856, 3.067698555827026, 1};
Point(p10 + 8) = {3.958919063182903, 3.134132942994621, 1};
Point(p10 + 9) = {3.790114264494378, 3.174659389590532, 1};
Point(p10 + 10) = {3.617048, 3.18828, 1};
Point(p10 + 11) = {3.443981735505622, 3.174659389590532, 1};
Point(p10 + 12) = {3.275176936817097, 3.134132942994622, 1};
Point(p10 + 13) = {3.114790138309144, 3.067698555827027, 1};
Point(p10 + 14) = {2.966770595254296, 2.976992063182903, 1};
Point(p10 + 15) = {2.834763040051262, 2.864246959948739, 1};
Point(p10 + 16) = {2.722017936817097, 2.732239404745704, 1};
Point(p10 + 17) = {2.631311444172973, 2.584219861690856, 1};
Point(p10 + 18) = {2.564877057005378, 2.423833063182903, 1};
Point(p10 + 19) = {2.524350610409469, 2.255028264494378, 1};
Point(p10 + 20) = {2.51073, 2.081962, 1};
Point(p10 + 21) = {2.524350610409468, 1.908895735505622, 1};
Point(p10 + 22) = {2.564877057005378, 1.740090936817096, 1};
Point(p10 + 23) = {2.631311444172973, 1.579704138309145, 1};
Point(p10 + 24) = {2.722017936817097, 1.431684595254296, 1};
Point(p10 + 25) = {2.834763040051261, 1.299677040051261, 1};
Point(p10 + 26) = {2.966770595254296, 1.186931936817097, 1};
Point(p10 + 27) = {3.114790138309144, 1.096225444172973, 1};
Point(p10 + 28) = {3.275176936817097, 1.029791057005378, 1};
Point(p10 + 29) = {3.443981735505622, 0.9892646104094684, 1};
Point(p10 + 30) = {3.617048, 0.975644, 1};
Point(p10 + 31) = {3.790114264494378, 0.9892646104094682, 1};
Point(p10 + 32) = {3.958919063182903, 1.029791057005378, 1};
Point(p10 + 33) = {4.119305861690856, 1.096225444172973, 1};
Point(p10 + 34) = {4.267325404745704, 1.186931936817097, 1};
Point(p10 + 35) = {4.399332959948739, 1.299677040051261, 1};
Point(p10 + 36) = {4.512078063182903, 1.431684595254295, 1};
Point(p10 + 37) = {4.602784555827027, 1.579704138309144, 1};
Point(p10 + 38) = {4.669218942994622, 1.740090936817097, 1};
Point(p10 + 39) = {4.709745389590531, 1.908895735505622, 1};
Spline(10) = {8, p10 + 1, p10 + 2, p10 + 3, p10 + 4, p10 + 5, p10 + 6, p10 + 7, p10 + 8, p10 + 9, p10 + 10, p10 + 11, p10 + 12, p10 + 13, p10 + 14, p10 + 15, p10 + 16, p10 + 17, p10 + 18, p10 + 19, p10 + 20, p10 + 21, p10 + 22, p10 + 23, p10 + 24, p10 + 25, p10 + 26, p10 + 27, p10 + 28, p10 + 29, p10 + 30, p10 + 31, p10 + 32, p10 + 33, p10 + 34, p10 + 35, p10 + 36, p10 + 37, p10 + 38, p10 + 39, 8};
Line(11) = {4, 9};
Line(12) = {9, 7};
Line(13) = {5, 9};
p14 = newp;
Point(p14 + 1) = {4.709745389590532, 2.255028264494378, 0};
Point(p14 + 2) = {4.669218942994622, 2.423833063182903, 0};
Point(p14 + 3) = {4.602784555827027, 2.584219861690856, 0};
Point(p14 + 4) = {4.512078063182903, 2.732239404745704, 0};
Point(p14 + 5) = {4.399332959948739, 2.864246959948739, 0};
Point(p14 + 6) = {4.267325404745704, 2.976992063182903, 0};
Point(p14 + 7) = {4.119305861690856, 3.067698555827026, 0};
Point(p14 + 8) = {3.958919063182903, 3.134132942994621, 0};
Point(p14 + 9) = {3.790114264494378, 3.174659389590532, 0};
Point(p14 + 10) = {3.617048, 3.18828, 0};
Point(p14 + 11) = {3.443981735505622, 3.174659389590532, 0};
Point(p14 + 12) = {3.275176936817097, 3.134132942994622, 0};
Point(p14 + 13) = {3.114790138309144, 3.067698555827027, 0};
Point(p14 + 14) = {2.966770595254296, 2.976992063182903, 0};
Point(p14 + 15) = {2.834763040051262, 2.864246959948739, 0};
Point(p14 + 16) = {2.722017936817097, 2.732239404745704, 0};
Point(p14 + 17) = {2.631311444172973, 2.584219861690856, 0};
Point(p14 + 18) = {2.564877057005378, 2.423833063182903, 0};
Point(p14 + 19) = {2.524350610409469, 2.255028264494378, 0};
Point(p14 + 20) = {2.51073, 2.081962, 0};
Point(p14 + 21) = {2.524350610409468, 1.908895735505622, 0};
Point(p14 + 22) = {2.564877057005378, 1.740090936817096, 0};
Point(p14 + 23) = {2.631311444172973, 1.579704138309145, 0};
Point(p14 + 24) = {2.722017936817097, 1.431684595254296, 0};
Point(p14 + 25) = {2.834763040051261, 1.299677040051261, 0};
Point(p14 + 26) = {2.966770595254296, 1.186931936817097, 0};
Point(p14 + 27) = {3.114790138309144, 1.096225444172973, 0};
Point(p14 + 28) = {3.275176936817097, 1.029791057005378, 0};
Point(p14 + 29) = {3.443981735505622, 0.9892646104094684, 0};
Point(p14 + 30) = {3.617048, 0.975644, 0};
Point(p14 + 31) = {3.790114264494378, 0.9892646104094682, 0};
Point(p14 + 32) = {3.958919063182903, 1.029791057005378, 0};
Point(p14 + 33) = {4.119305861690856, 1.096225444172973, 0};
Point(p14 + 34) = {4.267325404745704, 1.186931936817097, 0};
Point(p14 + 35) = {4.399332959948739, 1.299677040051261, 0};
Point(p14 + 36) = {4.512078063182903, 1.431684595254295, 0};
Point(p14 + 37) = {4.602784555827027, 1.579704138309144, 0};
Point(p14 + 38) = {4.669218942994622, 1.740090936817097, 0};
Point(p14 + 39) = {4.709745389590531, 1.908895735505622, 0};
Spline(14) = {10, p14 + 1, p14 + 2, p14 + 3, p14 + 4, p14 + 5, p14 + 6, p14 + 7, p14 + 8, p14 + 9, p14 + 10, p14 + 11, p14 + 12, p14 + 13, p14 + 14, p14 + 15, p14 + 16, p14 + 17, p14 + 18, p14 + 19, p14 + 20, p14 + 21, p14 + 22, p14 + 23, p14 + 24, p14 + 25, p14 + 26, p14 + 27, p14 + 28, p14 + 29, p14 + 30, p14 + 31, p14 + 32, p14 + 33, p14 + 34, p14 + 35, p14 + 36, p14 + 37, p14 + 38, p14 + 39, 10};
Line(15) = {10, 8};
Curve Loop(1) = {-1, 4, 3, -2};
Plane Surface(1) = {1};
Curve Loop(2) = {-5, 1, 7, -6};
Plane Surface(2) = {2};
Curve Loop(3) = {-2, 7, 9, -8, -10};
Plane Surface(3) = {3};
Curve Loop(4) = {-11, 3, 8, -12};
Plane Surface(4) = {4};
Curve Loop(5) = {-4, 5, 13, -11, -14};
Plane Surface(5) = {5};
Curve Loop(6) = {-6, 13, 12, -9};
Plane Surface(6) = {6};
Curve Loop(7) = {-10, -15, 14, 15};
Surface(7) = {7};
Surface Loop(1) = {1, 2, 3, 4, 5, 6, 7};
Volume(1) = {1};
Physical Surface("INFLOW") = {1};
Physical Surface("OUTFLOW") = {6};
Physical Surface("OBSTACLE") = {7};
Physical Surface("WALL_Y") = {2, 4};
Physical Surface("WALL_Z") = {3, 5};
Physical Volume("FLUID") = {1};
