cl__1 = 1;
cl__2 = 0.135433;
cl__3 = 0.07105300000000001;
Point(1) = {0.548563, -4.279216, 1, cl__1};
Point(2) = {0.548563, -4.279216, 0, cl__1};
Point(3) = {0.548563, 4.753494, 1, cl__1};
Point(4) = {0.548563, 4.753494, 0, cl__1};
Point(5) = {34.713453, -4.279216, 0, cl__1};
Point(6) = {34.713453, -4.279216, 1, cl__1};
Point(7) = {34.713453, 4.753494, 1, cl__1};
Point(8) = {25.678481, -1.15339, 1, cl__2};
Point(9) = {13.413023, -0.01111000000000018, 1, cl__3};
Point(10) = {34.713453, 4.753494, 0, cl__1};
Point(11) = {25.678481, -1.15339, 0, cl__2};
Point(12) = {13.413023, -0.01111000000000018, 0, cl__3};
Line(1) = {2, 1};
Line(2) = {1, 3};
Line(3) = {4, 3};
Line(4) = {2, 4};
Line(5) = {2, 5};
Line(6) = {5, 6};
Line(7) = {1, 6};
Line(8) = {3, 7};
Line(9) = {6, 7};
p10 = newp;
Point(p10 + 1) = {25.66180699956485, -0.9415267366999243, 1};
Point(p10 + 2) = {25.61219556748795, -0.7348802500761549, 1};
Point(p10 + 3) = {25.53086830187794, -0.5385388624497386, 1};
Point(p10 + 4) = {25.41982774992385, -0.357337150403744, 1};
Point(p10 + 5) = {25.28180809853725, -0.1957369014627479, 1};
Point(p10 + 6) = {25.12020784959626, -0.05771725007615491, 1};
Point(p10 + 7) = {24.93900613755026, 0.05332330187793533, 1};
Point(p10 + 8) = {24.74266474992385, 0.1346505674879501, 1};
Point(p10 + 9) = {24.53601826330008, 0.1842619995648505, 1};
Point(p10 + 10) = {24.324155, 0.200936, 1};
Point(p10 + 11) = {24.11229173669993, 0.1842619995648505, 1};
Point(p10 + 12) = {23.90564525007616, 0.1346505674879503, 1};
Point(p10 + 13) = {23.70930386244974, 0.05332330187793555, 1};
Point(p10 + 14) = {23.52810215040375, -0.05771725007615491, 1};
Point(p10 + 15) = {23.36650190146275, -0.1957369014627477, 1};
Point(p10 + 16) = {23.22848225007615, -0.3573371504037438, 1};
Point(p10 + 17) = {23.11744169812206, -0.5385388624497384, 1};
Point(p10 + 18) = {23.03611443251205, -0.7348802500761548, 1};
Point(p10 + 19) = {22.98650300043515, -0.941526736699924, 1};
Point(p10 + 20) = {22.969829, -1.15339, 1};
Point(p10 + 21) = {22.98650300043515, -1.365253263300075, 1};
Point(p10 + 22) = {23.03611443251205, -1.571899749923845, 1};
Point(p10 + 23) = {23.11744169812206, -1.768241137550261, 1};
Point(p10 + 24) = {23.22848225007615, -1.949442849596256, 1};
Point(p10 + 25) = {23.36650190146275, -2.111043098537252, 1};
Point(p10 + 26) = {23.52810215040374, -2.249062749923845, 1};
Point(p10 + 27) = {23.70930386244974, -2.360103301877935, 1};
Point(p10 + 28) = {23.90564525007616, -2.44143056748795, 1};
Point(p10 + 29) = {24.11229173669993, -2.491041999564851, 1};
Point(p10 + 30) = {24.324155, -2.507716, 1};
Point(p10 + 31) = {24.53601826330008, -2.491041999564851, 1};
Point(p10 + 32) = {24.74266474992385, -2.44143056748795, 1};
Point(p10 + 33) = {24.93900613755026, -2.360103301877936, 1};
Point(p10 + 34) = {25.12020784959626, -2.249062749923845, 1};
Point(p10 + 35) = {25.28180809853725, -2.111043098537252, 1};
Point(p10 + 36) = {25.41982774992385, -1.949442849596256, 1};
Point(p10 + 37) = {25.53086830187794, -1.768241137550262, 1};
Point(p10 + 38) = {25.61219556748795, -1.571899749923845, 1};
Point(p10 + 39) = {25.66180699956485, -1.365253263300076, 1};
Spline(10) = {8, p10 + 1, p10 + 2, p10 + 3, p10 + 4, p10 + 5, p10 + 6, p10 + 7, p10 + 8, p10 + 9, p10 + 10, p10 + 11, p10 + 12, p10 + 13, p10 + 14, p10 + 15, p10 + 16, p10 + 17, p10 + 18, p10 + 19, p10 + 20, p10 + 21, p10 + 22, p10 + 23, p10 + 24, p10 + 25, p10 + 26, p10 + 27, p10 + 28, p10 + 29, p10 + 30, p10 + 31, p10 + 32, p10 + 33, p10 + 34, p10 + 35, p10 + 36, p10 + 37, p10 + 38, p10 + 39, 8};
p11 = newp;
Point(p11 + 1) = {13.40427517201974, 0.1000416933139653, 1};
Point(p11 + 2) = {13.37824708863623, 0.2084564630472201, 1};
Point(p11 + 3) = {13.33557964764461, 0.3114647777609397, 1};
Point(p11 + 4) = {13.27732346304722, 0.4065302308818756, 1};
Point(p11 + 5) = {13.20491299545004, 0.49131199545004, 1};
Point(p11 + 6) = {13.12013123088188, 0.5637224630472203, 1};
Point(p11 + 7) = {13.02506577776094, 0.6219786476446094, 1};
Point(p11 + 8) = {12.92205746304722, 0.6646460886362281, 1};
Point(p11 + 9) = {12.81364269331397, 0.6906741720197446, 1};
Point(p11 + 10) = {12.702491, 0.6994220000000001, 1};
Point(p11 + 11) = {12.59133930668603, 0.6906741720197445, 1};
Point(p11 + 12) = {12.48292453695278, 0.6646460886362282, 1};
Point(p11 + 13) = {12.37991622223906, 0.6219786476446095, 1};
Point(p11 + 14) = {12.28485076911812, 0.5637224630472203, 1};
Point(p11 + 15) = {12.20006900454996, 0.4913119954500401, 1};
Point(p11 + 16) = {12.12765853695278, 0.4065302308818756, 1};
Point(p11 + 17) = {12.06940235235539, 0.3114647777609397, 1};
Point(p11 + 18) = {12.02673491136377, 0.2084564630472202, 1};
Point(p11 + 19) = {12.00070682798026, 0.1000416933139654, 1};
Point(p11 + 20) = {11.991959, -0.01110999999999991, 1};
Point(p11 + 21) = {12.00070682798026, -0.1222616933139652, 1};
Point(p11 + 22) = {12.02673491136377, -0.2306764630472204, 1};
Point(p11 + 23) = {12.06940235235539, -0.3336847777609393, 1};
Point(p11 + 24) = {12.12765853695278, -0.4287502308818755, 1};
Point(p11 + 25) = {12.20006900454996, -0.5135319954500399, 1};
Point(p11 + 26) = {12.28485076911812, -0.5859424630472201, 1};
Point(p11 + 27) = {12.37991622223906, -0.6441986476446093, 1};
Point(p11 + 28) = {12.48292453695278, -0.686866088636228, 1};
Point(p11 + 29) = {12.59133930668603, -0.7128941720197444, 1};
Point(p11 + 30) = {12.702491, -0.721642, 1};
Point(p11 + 31) = {12.81364269331397, -0.7128941720197445, 1};
Point(p11 + 32) = {12.92205746304722, -0.6868660886362281, 1};
Point(p11 + 33) = {13.02506577776094, -0.6441986476446094, 1};
Point(p11 + 34) = {13.12013123088188, -0.5859424630472202, 1};
Point(p11 + 35) = {13.20491299545004, -0.5135319954500401, 1};
Point(p11 + 36) = {13.27732346304722, -0.4287502308818757, 1};
Point(p11 + 37) = {13.33557964764461, -0.3336847777609398, 1};
Point(p11 + 38) = {13.37824708863623, -0.2306764630472203, 1};
Point(p11 + 39) = {13.40427517201974, -0.1222616933139655, 1};
Spline(11) = {9, p11 + 1, p11 + 2, p11 + 3, p11 + 4, p11 + 5, p11 + 6, p11 + 7, p11 + 8, p11 + 9, p11 + 10, p11 + 11, p11 + 12, p11 + 13, p11 + 14, p11 + 15, p11 + 16, p11 + 17, p11 + 18, p11 + 19, p11 + 20, p11 + 21, p11 + 22, p11 + 23, p11 + 24, p11 + 25, p11 + 26, p11 + 27, p11 + 28, p11 + 29, p11 + 30, p11 + 31, p11 + 32, p11 + 33, p11 + 34, p11 + 35, p11 + 36, p11 + 37, p11 + 38, p11 + 39, 9};
Line(12) = {4, 10};
Line(13) = {10, 7};
Line(14) = {5, 10};
p15 = newp;
Point(p15 + 1) = {25.66180699956485, -0.9415267366999243, 0};
Point(p15 + 2) = {25.61219556748795, -0.7348802500761549, 0};
Point(p15 + 3) = {25.53086830187794, -0.5385388624497386, 0};
Point(p15 + 4) = {25.41982774992385, -0.357337150403744, 0};
Point(p15 + 5) = {25.28180809853725, -0.1957369014627479, 0};
Point(p15 + 6) = {25.12020784959626, -0.05771725007615491, 0};
Point(p15 + 7) = {24.93900613755026, 0.05332330187793533, 0};
Point(p15 + 8) = {24.74266474992385, 0.1346505674879501, 0};
Point(p15 + 9) = {24.53601826330008, 0.1842619995648505, 0};
Point(p15 + 10) = {24.324155, 0.200936, 0};
Point(p15 + 11) = {24.11229173669993, 0.1842619995648505, 0};
Point(p15 + 12) = {23.90564525007616, 0.1346505674879503, 0};
Point(p15 + 13) = {23.70930386244974, 0.05332330187793555, 0};
Point(p15 + 14) = {23.52810215040375, -0.05771725007615491, 0};
Point(p15 + 15) = {23.36650190146275, -0.1957369014627477, 0};
Point(p15 + 16) = {23.22848225007615, -0.3573371504037438, 0};
Point(p15 + 17) = {23.11744169812206, -0.5385388624497384, 0};
Point(p15 + 18) = {23.03611443251205, -0.7348802500761548, 0};
Point(p15 + 19) = {22.98650300043515, -0.941526736699924, 0};
Point(p15 + 20) = {22.969829, -1.15339, 0};
Point(p15 + 21) = {22.98650300043515, -1.365253263300075, 0};
Point(p15 + 22) = {23.03611443251205, -1.571899749923845, 0};
Point(p15 + 23) = {23.11744169812206, -1.768241137550261, 0};
Point(p15 + 24) = {23.22848225007615, -1.949442849596256, 0};
Point(p15 + 25) = {23.36650190146275, -2.111043098537252, 0};
Point(p15 + 26) = {23.52810215040374, -2.249062749923845, 0};
Point(p15 + 27) = {23.70930386244974, -2.360103301877935, 0};
Point(p15 + 28) = {23.90564525007616, -2.44143056748795, 0};
Point(p15 + 29) = {24.11229173669993, -2.491041999564851, 0};
Point(p15 + 30) = {24.324155, -2.507716, 0};
Point(p15 + 31) = {24.53601826330008, -2.491041999564851, 0};
Point(p15 + 32) = {24.74266474992385, -2.44143056748795, 0};
Point(p15 + 33) = {24.93900613755026, -2.360103301877936, 0};
Point(p15 + 34) = {25.12020784959626, -2.249062749923845, 0};
Point(p15 + 35) = {25.28180809853725, -2.111043098537252, 0};
Point(p15 + 36) = {25.41982774992385, -1.949442849596256, 0};
Point(p15 + 37) = {25.53086830187794, -1.768241137550262, 0};
Point(p15 + 38) = {25.61219556748795, -1.571899749923845, 0};
Point(p15 + 39) = {25.66180699956485, -1.365253263300076, 0};
Spline(15) = {11, p15 + 1, p15 + 2, p15 + 3, p15 + 4, p15 + 5, p15 + 6, p15 + 7, p15 + 8, p15 + 9, p15 + 10, p15 + 11, p15 + 12, p15 + 13, p15 + 14, p15 + 15, p15 + 16, p15 + 17, p15 + 18, p15 + 19, p15 + 20, p15 + 21, p15 + 22, p15 + 23, p15 + 24, p15 + 25, p15 + 26, p15 + 27, p15 + 28, p15 + 29, p15 + 30, p15 + 31, p15 + 32, p15 + 33, p15 + 34, p15 + 35, p15 + 36, p15 + 37, p15 + 38, p15 + 39, 11};
p16 = newp;
Point(p16 + 1) = {13.40427517201974, 0.1000416933139653, 0};
Point(p16 + 2) = {13.37824708863623, 0.2084564630472201, 0};
Point(p16 + 3) = {13.33557964764461, 0.3114647777609397, 0};
Point(p16 + 4) = {13.27732346304722, 0.4065302308818756, 0};
Point(p16 + 5) = {13.20491299545004, 0.49131199545004, 0};
Point(p16 + 6) = {13.12013123088188, 0.5637224630472203, 0};
Point(p16 + 7) = {13.02506577776094, 0.6219786476446094, 0};
Point(p16 + 8) = {12.92205746304722, 0.6646460886362281, 0};
Point(p16 + 9) = {12.81364269331397, 0.6906741720197446, 0};
Point(p16 + 10) = {12.702491, 0.6994220000000001, 0};
Point(p16 + 11) = {12.59133930668603, 0.6906741720197445, 0};
Point(p16 + 12) = {12.48292453695278, 0.6646460886362282, 0};
Point(p16 + 13) = {12.37991622223906, 0.6219786476446095, 0};
Point(p16 + 14) = {12.28485076911812, 0.5637224630472203, 0};
Point(p16 + 15) = {12.20006900454996, 0.4913119954500401, 0};
Point(p16 + 16) = {12.12765853695278, 0.4065302308818756, 0};
Point(p16 + 17) = {12.06940235235539, 0.3114647777609397, 0};
Point(p16 + 18) = {12.02673491136377, 0.2084564630472202, 0};
Point(p16 + 19) = {12.00070682798026, 0.1000416933139654, 0};
Point(p16 + 20) = {11.991959, -0.01110999999999991, 0};
Point(p16 + 21) = {12.00070682798026, -0.1222616933139652, 0};
Point(p16 + 22) = {12.02673491136377, -0.2306764630472204, 0};
Point(p16 + 23) = {12.06940235235539, -0.3336847777609393, 0};
Point(p16 + 24) = {12.12765853695278, -0.4287502308818755, 0};
Point(p16 + 25) = {12.20006900454996, -0.5135319954500399, 0};
Point(p16 + 26) = {12.28485076911812, -0.5859424630472201, 0};
Point(p16 + 27) = {12.37991622223906, -0.6441986476446093, 0};
Point(p16 + 28) = {12.48292453695278, -0.686866088636228, 0};
Point(p16 + 29) = {12.59133930668603, -0.7128941720197444, 0};
Point(p16 + 30) = {12.702491, -0.721642, 0};
Point(p16 + 31) = {12.81364269331397, -0.7128941720197445, 0};
Point(p16 + 32) = {12.92205746304722, -0.6868660886362281, 0};
Point(p16 + 33) = {13.02506577776094, -0.6441986476446094, 0};
Point(p16 + 34) = {13.12013123088188, -0.5859424630472202, 0};
Point(p16 + 35) = {13.20491299545004, -0.5135319954500401, 0};
Point(p16 + 36) = {13.27732346304722, -0.4287502308818757, 0};
Point(p16 + 37) = {13.33557964764461, -0.3336847777609398, 0};
Point(p16 + 38) = {13.37824708863623, -0.2306764630472203, 0};
Point(p16 + 39) = {13.40427517201974, -0.1222616933139655, 0};
Spline(16) = {12, p16 + 1, p16 + 2, p16 + 3, p16 + 4, p16 + 5, p16 + 6, p16 + 7, p16 + 8, p16 + 9, p16 + 10, p16 + 11, p16 + 12, p16 + 13, p16 + 14, p16 + 15, p16 + 16, p16 + 17, p16 + 18, p16 + 19, p16 + 20, p16 + 21, p16 + 22, p16 + 23, p16 + 24, p16 + 25, p16 + 26, p16 + 27, p16 + 28, p16 + 29, p16 + 30, p16 + 31, p16 + 32, p16 + 33, p16 + 34, p16 + 35, p16 + 36, p16 + 37, p16 + 38, p16 + 39, 12};
Line(17) = {11, 8};
Line(18) = {12, 9};
Curve Loop(1) = {-1, 4, 3, -2};
Plane Surface(1) = {1};
Curve Loop(2) = {-5, 1, 7, -6};
Plane Surface(2) = {2};
Curve Loop(3) = {-2, 7, 9, -8, -10, -11};
Plane Surface(3) = {3};
Curve Loop(4) = {-12, 3, 8, -13};
Plane Surface(4) = {4};
Curve Loop(5) = {-4, 5, 14, -12, -15, -16};
Plane Surface(5) = {5};
Curve Loop(6) = {-6, 14, 13, -9};
Plane Surface(6) = {6};
Curve Loop(7) = {-10, -17, 15, 17};
Surface(7) = {7};
Curve Loop(8) = {-11, -18, 16, 18};
Surface(8) = {8};
Surface Loop(1) = {1, 2, 3, 4, 5, 6, 7, 8};
Volume(1) = {1};
Physical Surface("INFLOW") = {1};
Physical Surface("OUTFLOW") = {6};
Physical Surface("OBSTACLE") = {7, 8};
Physical Surface("WALL_Y") = {2, 4};
Physical Surface("WALL_Z") = {3, 5};
Physical Volume("FLUID") = {1};
