cl__1 = 0.755464;
cl__2 = 0.662705;
cl__3 = 0.628235;
cl__4 = 0.748661;
cl__5 = 0.134254;
cl__6 = 0.050914;
Point(1) = {0.542137, -3.15047, 1, cl__1};
Point(2) = {0.542137, -3.15047, 0, cl__1};
Point(3) = {0.542137, 4.434089, 1, cl__2};
Point(4) = {0.542137, 4.434089, 0, cl__2};
Point(5) = {30.587321, -3.15047, 0, cl__3};
Point(6) = {30.587321, -3.15047, 1, cl__3};
Point(7) = {30.587321, 4.434089, 1, cl__4};
Point(8) = {24.721622, -0.6644660000000003, 1, cl__5};
Point(9) = {7.588068, 1.57129, 1, cl__6};
Point(10) = {30.587321, 4.434089, 0, cl__4};
Point(11) = {24.721622, -0.6644660000000003, 0, cl__5};
Point(12) = {7.588068, 1.57129, 0, cl__6};
Line(1) = {2, 1};
Line(2) = {1, 3};
Line(3) = {4, 3};
Line(4) = {2, 4};
Line(5) = {2, 5};
Line(6) = {5, 6};
Line(7) = {1, 6};
Line(8) = {3, 7};
Line(9) = {6, 7};
p10 = newp;
Point(p10 + 1) = {24.7050930432243, -0.4544456911325632, 1};
Point(p10 + 2) = {24.65591317066947, -0.2495967792868862, 1};
Point(p10 + 3) = {24.57529335401647, -0.05496332452717012, 1};
Point(p10 + 4) = {24.46521872071311, 0.1246621515389984, 1};
Point(p10 + 5) = {24.32839967354809, 0.2848566735480934, 1};
Point(p10 + 6) = {24.168205151539, 0.4216757207131139, 1};
Point(p10 + 7) = {23.98857967547283, 0.5317503540164723, 1};
Point(p10 + 8) = {23.79394622071311, 0.6123701706694771, 1};
Point(p10 + 9) = {23.58909730886744, 0.6615500432242993, 1};
Point(p10 + 10) = {23.379077, 0.6780790000000001, 1};
Point(p10 + 11) = {23.16905669113256, 0.6615500432242991, 1};
Point(p10 + 12) = {22.96420777928688, 0.6123701706694771, 1};
Point(p10 + 13) = {22.76957432452717, 0.5317503540164725, 1};
Point(p10 + 14) = {22.589948848461, 0.4216757207131139, 1};
Point(p10 + 15) = {22.42975432645191, 0.2848566735480936, 1};
Point(p10 + 16) = {22.29293527928689, 0.1246621515389985, 1};
Point(p10 + 17) = {22.18286064598353, -0.05496332452717001, 1};
Point(p10 + 18) = {22.10224082933052, -0.2495967792868861, 1};
Point(p10 + 19) = {22.0530609567757, -0.4544456911325631, 1};
Point(p10 + 20) = {22.036532, -0.6644659999999999, 1};
Point(p10 + 21) = {22.0530609567757, -0.8744863088674366, 1};
Point(p10 + 22) = {22.10224082933052, -1.079335220713114, 1};
Point(p10 + 23) = {22.18286064598352, -1.273968675472829, 1};
Point(p10 + 24) = {22.29293527928688, -1.453594151538998, 1};
Point(p10 + 25) = {22.42975432645191, -1.613788673548093, 1};
Point(p10 + 26) = {22.589948848461, -1.750607720713114, 1};
Point(p10 + 27) = {22.76957432452717, -1.860682354016472, 1};
Point(p10 + 28) = {22.96420777928688, -1.941302170669477, 1};
Point(p10 + 29) = {23.16905669113256, -1.990482043224299, 1};
Point(p10 + 30) = {23.379077, -2.007011, 1};
Point(p10 + 31) = {23.58909730886743, -1.990482043224299, 1};
Point(p10 + 32) = {23.79394622071311, -1.941302170669477, 1};
Point(p10 + 33) = {23.98857967547283, -1.860682354016473, 1};
Point(p10 + 34) = {24.168205151539, -1.750607720713114, 1};
Point(p10 + 35) = {24.32839967354809, -1.613788673548094, 1};
Point(p10 + 36) = {24.46521872071311, -1.453594151538999, 1};
Point(p10 + 37) = {24.57529335401647, -1.27396867547283, 1};
Point(p10 + 38) = {24.65591317066947, -1.079335220713114, 1};
Point(p10 + 39) = {24.7050930432243, -0.8744863088674371, 1};
Spline(10) = {8, p10 + 1, p10 + 2, p10 + 3, p10 + 4, p10 + 5, p10 + 6, p10 + 7, p10 + 8, p10 + 9, p10 + 10, p10 + 11, p10 + 12, p10 + 13, p10 + 14, p10 + 15, p10 + 16, p10 + 17, p10 + 18, p10 + 19, p10 + 20, p10 + 21, p10 + 22, p10 + 23, p10 + 24, p10 + 25, p10 + 26, p10 + 27, p10 + 28, p10 + 29, p10 + 30, p10 + 31, p10 + 32, p10 + 33, p10 + 34, p10 + 35, p10 + 36, p10 + 37, p10 + 38, p10 + 39, 8};
p11 = newp;
Point(p11 + 1) = {7.581799629418949, 1.650937199965048, 1};
Point(p11 + 2) = {7.563148865763031, 1.728623221533055, 1};
Point(p11 + 3) = {7.53257495273179, 1.802435177027893, 1};
Point(p11 + 4) = {7.490830721533055, 1.870555571137442, 1};
Point(p11 + 5) = {7.438944053680101, 1.9313070536801, 1};
Point(p11 + 6) = {7.378192571137443, 1.983193721533055, 1};
Point(p11 + 7) = {7.310072177027893, 2.02493795273179, 1};
Point(p11 + 8) = {7.236260221533056, 2.055511865763031, 1};
Point(p11 + 9) = {7.158574199965049, 2.074162629418949, 1};
Point(p11 + 10) = {7.078927, 2.080431, 1};
Point(p11 + 11) = {6.999279800034952, 2.074162629418949, 1};
Point(p11 + 12) = {6.921593778466945, 2.055511865763031, 1};
Point(p11 + 13) = {6.847781822972108, 2.02493795273179, 1};
Point(p11 + 14) = {6.779661428862558, 1.983193721533055, 1};
Point(p11 + 15) = {6.718909946319901, 1.9313070536801, 1};
Point(p11 + 16) = {6.667023278466945, 1.870555571137442, 1};
Point(p11 + 17) = {6.625279047268211, 1.802435177027893, 1};
Point(p11 + 18) = {6.594705134236969, 1.728623221533055, 1};
Point(p11 + 19) = {6.576054370581051, 1.650937199965048, 1};
Point(p11 + 20) = {6.569786000000001, 1.57129, 1};
Point(p11 + 21) = {6.576054370581051, 1.491642800034952, 1};
Point(p11 + 22) = {6.594705134236969, 1.413956778466945, 1};
Point(p11 + 23) = {6.625279047268211, 1.340144822972108, 1};
Point(p11 + 24) = {6.667023278466945, 1.272024428862558, 1};
Point(p11 + 25) = {6.7189099463199, 1.2112729463199, 1};
Point(p11 + 26) = {6.779661428862558, 1.159386278466945, 1};
Point(p11 + 27) = {6.847781822972108, 1.11764204726821, 1};
Point(p11 + 28) = {6.921593778466945, 1.087068134236969, 1};
Point(p11 + 29) = {6.999279800034952, 1.068417370581051, 1};
Point(p11 + 30) = {7.078927, 1.062149, 1};
Point(p11 + 31) = {7.158574199965048, 1.068417370581051, 1};
Point(p11 + 32) = {7.236260221533056, 1.087068134236969, 1};
Point(p11 + 33) = {7.310072177027893, 1.11764204726821, 1};
Point(p11 + 34) = {7.378192571137442, 1.159386278466945, 1};
Point(p11 + 35) = {7.4389440536801, 1.2112729463199, 1};
Point(p11 + 36) = {7.490830721533055, 1.272024428862558, 1};
Point(p11 + 37) = {7.53257495273179, 1.340144822972107, 1};
Point(p11 + 38) = {7.563148865763031, 1.413956778466945, 1};
Point(p11 + 39) = {7.581799629418949, 1.491642800034952, 1};
Spline(11) = {9, p11 + 1, p11 + 2, p11 + 3, p11 + 4, p11 + 5, p11 + 6, p11 + 7, p11 + 8, p11 + 9, p11 + 10, p11 + 11, p11 + 12, p11 + 13, p11 + 14, p11 + 15, p11 + 16, p11 + 17, p11 + 18, p11 + 19, p11 + 20, p11 + 21, p11 + 22, p11 + 23, p11 + 24, p11 + 25, p11 + 26, p11 + 27, p11 + 28, p11 + 29, p11 + 30, p11 + 31, p11 + 32, p11 + 33, p11 + 34, p11 + 35, p11 + 36, p11 + 37, p11 + 38, p11 + 39, 9};
Line(12) = {4, 10};
Line(13) = {10, 7};
Line(14) = {5, 10};
p15 = newp;
Point(p15 + 1) = {24.7050930432243, -0.4544456911325632, 0};
Point(p15 + 2) = {24.65591317066947, -0.2495967792868862, 0};
Point(p15 + 3) = {24.57529335401647, -0.05496332452717012, 0};
Point(p15 + 4) = {24.46521872071311, 0.1246621515389984, 0};
Point(p15 + 5) = {24.32839967354809, 0.2848566735480934, 0};
Point(p15 + 6) = {24.168205151539, 0.4216757207131139, 0};
Point(p15 + 7) = {23.98857967547283, 0.5317503540164723, 0};
Point(p15 + 8) = {23.79394622071311, 0.6123701706694771, 0};
Point(p15 + 9) = {23.58909730886744, 0.6615500432242993, 0};
Point(p15 + 10) = {23.379077, 0.6780790000000001, 0};
Point(p15 + 11) = {23.16905669113256, 0.6615500432242991, 0};
Point(p15 + 12) = {22.96420777928688, 0.6123701706694771, 0};
Point(p15 + 13) = {22.76957432452717, 0.5317503540164725, 0};
Point(p15 + 14) = {22.589948848461, 0.4216757207131139, 0};
Point(p15 + 15) = {22.42975432645191, 0.2848566735480936, 0};
Point(p15 + 16) = {22.29293527928689, 0.1246621515389985, 0};
Point(p15 + 17) = {22.18286064598353, -0.05496332452717001, 0};
Point(p15 + 18) = {22.10224082933052, -0.2495967792868861, 0};
Point(p15 + 19) = {22.0530609567757, -0.4544456911325631, 0};
Point(p15 + 20) = {22.036532, -0.6644659999999999, 0};
Point(p15 + 21) = {22.0530609567757, -0.8744863088674366, 0};
Point(p15 + 22) = {22.10224082933052, -1.079335220713114, 0};
Point(p15 + 23) = {22.18286064598352, -1.273968675472829, 0};
Point(p15 + 24) = {22.29293527928688, -1.453594151538998, 0};
Point(p15 + 25) = {22.42975432645191, -1.613788673548093, 0};
Point(p15 + 26) = {22.589948848461, -1.750607720713114, 0};
Point(p15 + 27) = {22.76957432452717, -1.860682354016472, 0};
Point(p15 + 28) = {22.96420777928688, -1.941302170669477, 0};
Point(p15 + 29) = {23.16905669113256, -1.990482043224299, 0};
Point(p15 + 30) = {23.379077, -2.007011, 0};
Point(p15 + 31) = {23.58909730886743, -1.990482043224299, 0};
Point(p15 + 32) = {23.79394622071311, -1.941302170669477, 0};
Point(p15 + 33) = {23.98857967547283, -1.860682354016473, 0};
Point(p15 + 34) = {24.168205151539, -1.750607720713114, 0};
Point(p15 + 35) = {24.32839967354809, -1.613788673548094, 0};
Point(p15 + 36) = {24.46521872071311, -1.453594151538999, 0};
Point(p15 + 37) = {24.57529335401647, -1.27396867547283, 0};
Point(p15 + 38) = {24.65591317066947, -1.079335220713114, 0};
Point(p15 + 39) = {24.7050930432243, -0.8744863088674371, 0};
Spline(15) = {11, p15 + 1, p15 + 2, p15 + 3, p15 + 4, p15 + 5, p15 + 6, p15 + 7, p15 + 8, p15 + 9, p15 + 10, p15 + 11, p15 + 12, p15 + 13, p15 + 14, p15 + 15, p15 + 16, p15 + 17, p15 + 18, p15 + 19, p15 + 20, p15 + 21, p15 + 22, p15 + 23, p15 + 24, p15 + 25, p15 + 26, p15 + 27, p15 + 28, p15 + 29, p15 + 30, p15 + 31, p15 + 32, p15 + 33, p15 + 34, p15 + 35, p15 + 36, p15 + 37, p15 + 38, p15 + 39, 11};
p16 = newp;
Point(p16 + 1) = {7.581799629418949, 1.650937199965048, 0};
Point(p16 + 2) = {7.563148865763031, 1.728623221533055, 0};
Point(p16 + 3) = {7.53257495273179, 1.802435177027893, 0};
Point(p16 + 4) = {7.490830721533055, 1.870555571137442, 0};
Point(p16 + 5) = {7.438944053680101, 1.9313070536801, 0};
Point(p16 + 6) = {7.378192571137443, 1.983193721533055, 0};
Point(p16 + 7) = {7.310072177027893, 2.02493795273179, 0};
Point(p16 + 8) = {7.236260221533056, 2.055511865763031, 0};
Point(p16 + 9) = {7.158574199965049, 2.074162629418949, 0};
Point(p16 + 10) = {7.078927, 2.080431, 0};
Point(p16 + 11) = {6.999279800034952, 2.074162629418949, 0};
Point(p16 + 12) = {6.921593778466945, 2.055511865763031, 0};
Point(p16 + 13) = {6.847781822972108, 2.02493795273179, 0};
Point(p16 + 14) = {6.779661428862558, 1.983193721533055, 0};
Point(p16 + 15) = {6.718909946319901, 1.9313070536801, 0};
Point(p16 + 16) = {6.667023278466945, 1.870555571137442, 0};
Point(p16 + 17) = {6.625279047268211, 1.802435177027893, 0};
Point(p16 + 18) = {6.594705134236969, 1.728623221533055, 0};
Point(p16 + 19) = {6.576054370581051, 1.650937199965048, 0};
Point(p16 + 20) = {6.569786000000001, 1.57129, 0};
Point(p16 + 21) = {6.576054370581051, 1.491642800034952, 0};
Point(p16 + 22) = {6.594705134236969, 1.413956778466945, 0};
Point(p16 + 23) = {6.625279047268211, 1.340144822972108, 0};
Point(p16 + 24) = {6.667023278466945, 1.272024428862558, 0};
Point(p16 + 25) = {6.7189099463199, 1.2112729463199, 0};
Point(p16 + 26) = {6.779661428862558, 1.159386278466945, 0};
Point(p16 + 27) = {6.847781822972108, 1.11764204726821, 0};
Point(p16 + 28) = {6.921593778466945, 1.087068134236969, 0};
Point(p16 + 29) = {6.999279800034952, 1.068417370581051, 0};
Point(p16 + 30) = {7.078927, 1.062149, 0};
Point(p16 + 31) = {7.158574199965048, 1.068417370581051, 0};
Point(p16 + 32) = {7.236260221533056, 1.087068134236969, 0};
Point(p16 + 33) = {7.310072177027893, 1.11764204726821, 0};
Point(p16 + 34) = {7.378192571137442, 1.159386278466945, 0};
Point(p16 + 35) = {7.4389440536801, 1.2112729463199, 0};
Point(p16 + 36) = {7.490830721533055, 1.272024428862558, 0};
Point(p16 + 37) = {7.53257495273179, 1.340144822972107, 0};
Point(p16 + 38) = {7.563148865763031, 1.413956778466945, 0};
Point(p16 + 39) = {7.581799629418949, 1.491642800034952, 0};
Spline(16) = {12, p16 + 1, p16 + 2, p16 + 3, p16 + 4, p16 + 5, p16 + 6, p16 + 7, p16 + 8, p16 + 9, p16 + 10, p16 + 11, p16 + 12, p16 + 13, p16 + 14, p16 + 15, p16 + 16, p16 + 17, p16 + 18, p16 + 19, p16 + 20, p16 + 21, p16 + 22, p16 + 23, p16 + 24, p16 + 25, p16 + 26, p16 + 27, p16 + 28, p16 + 29, p16 + 30, p16 + 31, p16 + 32, p16 + 33, p16 + 34, p16 + 35, p16 + 36, p16 + 37, p16 + 38, p16 + 39, 12};
Line(17) = {11, 8};
Line(18) = {12, 9};
Curve Loop(1) = {-1, 4, 3, -2};
Plane Surface(1) = {1};
Curve Loop(2) = {-5, 1, 7, -6};
Plane Surface(2) = {2};
Curve Loop(3) = {-2, 7, 9, -8, -10, -11};
Plane Surface(3) = {3};
Curve Loop(4) = {-12, 3, 8, -13};
Plane Surface(4) = {4};
Curve Loop(5) = {-4, 5, 14, -12, -15, -16};
Plane Surface(5) = {5};
Curve Loop(6) = {-6, 14, 13, -9};
Plane Surface(6) = {6};
Curve Loop(7) = {-10, -17, 15, 17};
Surface(7) = {7};
Curve Loop(8) = {-11, -18, 16, 18};
Surface(8) = {8};
Surface Loop(1) = {1, 2, 3, 4, 5, 6, 7, 8};
Volume(1) = {1};
Physical Surface("INFLOW") = {1};
Physical Surface("OUTFLOW") = {6};
Physical Surface("OBSTACLE") = {7, 8};
Physical Surface("WALL_Y") = {2, 4};
Physical Surface("WALL_Z") = {3, 5};
Physical Volume("FLUID") = {1};
