cl__1 = 3.198508;
cl__2 = 0.794296;
cl__3 = 1.345814;
cl__4 = 0.057684;
cl__5 = 0.138737;
Point(1) = {0.868173, -4.205267, 1, cl__1};
Point(2) = {0.868173, -4.205267, 0, cl__1};
Point(3) = {0.868173, 4.566577, 1, cl__2};
Point(4) = {0.868173, 4.566577, 0, cl__2};
Point(5) = {31.68295, -4.205267, 0, cl__1};
Point(6) = {31.68295, -4.205267, 1, cl__1};
Point(7) = {31.68295, 4.566577, 1, cl__3};
Point(8) = {18.661077, -0.7331600000000001, 1, cl__4};
Point(9) = {25.727903, 1.551814, 1, cl__5};
Point(10) = {31.68295, 4.566577, 0, cl__3};
Point(11) = {18.661077, -0.7331600000000001, 0, cl__4};
Point(12) = {25.727903, 1.551814, 0, cl__5};
Line(1) = {2, 1};
Line(2) = {1, 3};
Line(3) = {4, 3};
Line(4) = {2, 4};
Line(5) = {2, 5};
Line(6) = {5, 6};
Line(7) = {1, 6};
Line(8) = {3, 7};
Line(9) = {6, 7};
p10 = newp;
Point(p10 + 1) = {18.6539752039472, -0.6429231253585185, 1};
Point(p10 + 2) = {18.63284468557712, -0.5549081820497272, 1};
Point(p10 + 3) = {18.5982057483802, -0.4712823900827386, 1};
Point(p10 + 4) = {18.55091131795027, -0.3941048939938713, 1};
Point(p10 + 5) = {18.49212594012574, -0.325276059874258, 1};
Point(p10 + 6) = {18.42329710600613, -0.2664906820497273, 1};
Point(p10 + 7) = {18.34611960991726, -0.2191962516198029, 1};
Point(p10 + 8) = {18.26249381795027, -0.1845573144228851, 1};
Point(p10 + 9) = {18.17447887464148, -0.1634267960528037, 1};
Point(p10 + 10) = {18.084242, -0.156325, 1};
Point(p10 + 11) = {17.99400512535852, -0.1634267960528039, 1};
Point(p10 + 12) = {17.90599018204973, -0.1845573144228851, 1};
Point(p10 + 13) = {17.82236439008274, -0.2191962516198028, 1};
Point(p10 + 14) = {17.74518689399387, -0.2664906820497273, 1};
Point(p10 + 15) = {17.67635805987426, -0.3252760598742579, 1};
Point(p10 + 16) = {17.61757268204973, -0.3941048939938712, 1};
Point(p10 + 17) = {17.5702782516198, -0.4712823900827385, 1};
Point(p10 + 18) = {17.53563931442288, -0.5549081820497272, 1};
Point(p10 + 19) = {17.51450879605281, -0.6429231253585184, 1};
Point(p10 + 20) = {17.507407, -0.7331599999999999, 1};
Point(p10 + 21) = {17.5145087960528, -0.8233968746414815, 1};
Point(p10 + 22) = {17.53563931442288, -0.911411817950273, 1};
Point(p10 + 23) = {17.5702782516198, -0.9950376099172612, 1};
Point(p10 + 24) = {17.61757268204973, -1.072215106006129, 1};
Point(p10 + 25) = {17.67635805987426, -1.141043940125742, 1};
Point(p10 + 26) = {17.74518689399387, -1.199829317950273, 1};
Point(p10 + 27) = {17.82236439008274, -1.247123748380197, 1};
Point(p10 + 28) = {17.90599018204973, -1.281762685577115, 1};
Point(p10 + 29) = {17.99400512535852, -1.302893203947196, 1};
Point(p10 + 30) = {18.084242, -1.309995, 1};
Point(p10 + 31) = {18.17447887464148, -1.302893203947196, 1};
Point(p10 + 32) = {18.26249381795027, -1.281762685577115, 1};
Point(p10 + 33) = {18.34611960991726, -1.247123748380197, 1};
Point(p10 + 34) = {18.42329710600613, -1.199829317950273, 1};
Point(p10 + 35) = {18.49212594012574, -1.141043940125742, 1};
Point(p10 + 36) = {18.55091131795027, -1.072215106006129, 1};
Point(p10 + 37) = {18.5982057483802, -0.9950376099172615, 1};
Point(p10 + 38) = {18.63284468557712, -0.9114118179502729, 1};
Point(p10 + 39) = {18.65397520394719, -0.8233968746414817, 1};
Spline(10) = {8, p10 + 1, p10 + 2, p10 + 3, p10 + 4, p10 + 5, p10 + 6, p10 + 7, p10 + 8, p10 + 9, p10 + 10, p10 + 11, p10 + 12, p10 + 13, p10 + 14, p10 + 15, p10 + 16, p10 + 17, p10 + 18, p10 + 19, p10 + 20, p10 + 21, p10 + 22, p10 + 23, p10 + 24, p10 + 25, p10 + 26, p10 + 27, p10 + 28, p10 + 29, p10 + 30, p10 + 31, p10 + 32, p10 + 33, p10 + 34, p10 + 35, p10 + 36, p10 + 37, p10 + 38, p10 + 39, 8};
p11 = newp;
Point(p11 + 1) = {25.71082219771479, 1.768846170893935, 1};
Point(p11 + 2) = {25.66000037689937, 1.980534289451982, 1};
Point(p11 + 3) = {25.57668893945017, 2.181665891642655, 1};
Point(p11 + 4) = {25.46293928945198, 2.367288449902504, 1};
Point(p11 + 5) = {25.32155232080122, 2.532831320801218, 1};
Point(p11 + 6) = {25.1560094499025, 2.674218289451982, 1};
Point(p11 + 7) = {24.97038689164265, 2.787967939450168, 1};
Point(p11 + 8) = {24.76925528945198, 2.871279376899374, 1};
Point(p11 + 9) = {24.55756717089393, 2.922101197714795, 1};
Point(p11 + 10) = {24.340535, 2.939182, 1};
Point(p11 + 11) = {24.12350282910606, 2.922101197714795, 1};
Point(p11 + 12) = {23.91181471054802, 2.871279376899375, 1};
Point(p11 + 13) = {23.71068310835734, 2.787967939450168, 1};
Point(p11 + 14) = {23.5250605500975, 2.674218289451982, 1};
Point(p11 + 15) = {23.35951767919878, 2.532831320801218, 1};
Point(p11 + 16) = {23.21813071054802, 2.367288449902504, 1};
Point(p11 + 17) = {23.10438106054983, 2.181665891642655, 1};
Point(p11 + 18) = {23.02106962310063, 1.980534289451982, 1};
Point(p11 + 19) = {22.9702478022852, 1.768846170893935, 1};
Point(p11 + 20) = {22.953167, 1.551814, 1};
Point(p11 + 21) = {22.9702478022852, 1.334781829106065, 1};
Point(p11 + 22) = {23.02106962310063, 1.123093710548018, 1};
Point(p11 + 23) = {23.10438106054983, 0.9219621083573453, 1};
Point(p11 + 24) = {23.21813071054802, 0.7363395500974963, 1};
Point(p11 + 25) = {23.35951767919878, 0.5707966791987821, 1};
Point(p11 + 26) = {23.5250605500975, 0.4294097105480181, 1};
Point(p11 + 27) = {23.71068310835734, 0.3156600605498328, 1};
Point(p11 + 28) = {23.91181471054802, 0.2323486231006255, 1};
Point(p11 + 29) = {24.12350282910606, 0.1815268022852052, 1};
Point(p11 + 30) = {24.340535, 0.1644460000000001, 1};
Point(p11 + 31) = {24.55756717089393, 0.181526802285205, 1};
Point(p11 + 32) = {24.76925528945198, 0.2323486231006253, 1};
Point(p11 + 33) = {24.97038689164265, 0.3156600605498325, 1};
Point(p11 + 34) = {25.1560094499025, 0.4294097105480179, 1};
Point(p11 + 35) = {25.32155232080122, 0.5707966791987817, 1};
Point(p11 + 36) = {25.46293928945198, 0.7363395500974959, 1};
Point(p11 + 37) = {25.57668893945016, 0.9219621083573443, 1};
Point(p11 + 38) = {25.66000037689937, 1.123093710548018, 1};
Point(p11 + 39) = {25.71082219771479, 1.334781829106065, 1};
Spline(11) = {9, p11 + 1, p11 + 2, p11 + 3, p11 + 4, p11 + 5, p11 + 6, p11 + 7, p11 + 8, p11 + 9, p11 + 10, p11 + 11, p11 + 12, p11 + 13, p11 + 14, p11 + 15, p11 + 16, p11 + 17, p11 + 18, p11 + 19, p11 + 20, p11 + 21, p11 + 22, p11 + 23, p11 + 24, p11 + 25, p11 + 26, p11 + 27, p11 + 28, p11 + 29, p11 + 30, p11 + 31, p11 + 32, p11 + 33, p11 + 34, p11 + 35, p11 + 36, p11 + 37, p11 + 38, p11 + 39, 9};
Line(12) = {4, 10};
Line(13) = {10, 7};
Line(14) = {5, 10};
p15 = newp;
Point(p15 + 1) = {18.6539752039472, -0.6429231253585185, 0};
Point(p15 + 2) = {18.63284468557712, -0.5549081820497272, 0};
Point(p15 + 3) = {18.5982057483802, -0.4712823900827386, 0};
Point(p15 + 4) = {18.55091131795027, -0.3941048939938713, 0};
Point(p15 + 5) = {18.49212594012574, -0.325276059874258, 0};
Point(p15 + 6) = {18.42329710600613, -0.2664906820497273, 0};
Point(p15 + 7) = {18.34611960991726, -0.2191962516198029, 0};
Point(p15 + 8) = {18.26249381795027, -0.1845573144228851, 0};
Point(p15 + 9) = {18.17447887464148, -0.1634267960528037, 0};
Point(p15 + 10) = {18.084242, -0.156325, 0};
Point(p15 + 11) = {17.99400512535852, -0.1634267960528039, 0};
Point(p15 + 12) = {17.90599018204973, -0.1845573144228851, 0};
Point(p15 + 13) = {17.82236439008274, -0.2191962516198028, 0};
Point(p15 + 14) = {17.74518689399387, -0.2664906820497273, 0};
Point(p15 + 15) = {17.67635805987426, -0.3252760598742579, 0};
Point(p15 + 16) = {17.61757268204973, -0.3941048939938712, 0};
Point(p15 + 17) = {17.5702782516198, -0.4712823900827385, 0};
Point(p15 + 18) = {17.53563931442288, -0.5549081820497272, 0};
Point(p15 + 19) = {17.51450879605281, -0.6429231253585184, 0};
Point(p15 + 20) = {17.507407, -0.7331599999999999, 0};
Point(p15 + 21) = {17.5145087960528, -0.8233968746414815, 0};
Point(p15 + 22) = {17.53563931442288, -0.911411817950273, 0};
Point(p15 + 23) = {17.5702782516198, -0.9950376099172612, 0};
Point(p15 + 24) = {17.61757268204973, -1.072215106006129, 0};
Point(p15 + 25) = {17.67635805987426, -1.141043940125742, 0};
Point(p15 + 26) = {17.74518689399387, -1.199829317950273, 0};
Point(p15 + 27) = {17.82236439008274, -1.247123748380197, 0};
Point(p15 + 28) = {17.90599018204973, -1.281762685577115, 0};
Point(p15 + 29) = {17.99400512535852, -1.302893203947196, 0};
Point(p15 + 30) = {18.084242, -1.309995, 0};
Point(p15 + 31) = {18.17447887464148, -1.302893203947196, 0};
Point(p15 + 32) = {18.26249381795027, -1.281762685577115, 0};
Point(p15 + 33) = {18.34611960991726, -1.247123748380197, 0};
Point(p15 + 34) = {18.42329710600613, -1.199829317950273, 0};
Point(p15 + 35) = {18.49212594012574, -1.141043940125742, 0};
Point(p15 + 36) = {18.55091131795027, -1.072215106006129, 0};
Point(p15 + 37) = {18.5982057483802, -0.9950376099172615, 0};
Point(p15 + 38) = {18.63284468557712, -0.9114118179502729, 0};
Point(p15 + 39) = {18.65397520394719, -0.8233968746414817, 0};
Spline(15) = {11, p15 + 1, p15 + 2, p15 + 3, p15 + 4, p15 + 5, p15 + 6, p15 + 7, p15 + 8, p15 + 9, p15 + 10, p15 + 11, p15 + 12, p15 + 13, p15 + 14, p15 + 15, p15 + 16, p15 + 17, p15 + 18, p15 + 19, p15 + 20, p15 + 21, p15 + 22, p15 + 23, p15 + 24, p15 + 25, p15 + 26, p15 + 27, p15 + 28, p15 + 29, p15 + 30, p15 + 31, p15 + 32, p15 + 33, p15 + 34, p15 + 35, p15 + 36, p15 + 37, p15 + 38, p15 + 39, 11};
p16 = newp;
Point(p16 + 1) = {25.71082219771479, 1.768846170893935, 0};
Point(p16 + 2) = {25.66000037689937, 1.980534289451982, 0};
Point(p16 + 3) = {25.57668893945017, 2.181665891642655, 0};
Point(p16 + 4) = {25.46293928945198, 2.367288449902504, 0};
Point(p16 + 5) = {25.32155232080122, 2.532831320801218, 0};
Point(p16 + 6) = {25.1560094499025, 2.674218289451982, 0};
Point(p16 + 7) = {24.97038689164265, 2.787967939450168, 0};
Point(p16 + 8) = {24.76925528945198, 2.871279376899374, 0};
Point(p16 + 9) = {24.55756717089393, 2.922101197714795, 0};
Point(p16 + 10) = {24.340535, 2.939182, 0};
Point(p16 + 11) = {24.12350282910606, 2.922101197714795, 0};
Point(p16 + 12) = {23.91181471054802, 2.871279376899375, 0};
Point(p16 + 13) = {23.71068310835734, 2.787967939450168, 0};
Point(p16 + 14) = {23.5250605500975, 2.674218289451982, 0};
Point(p16 + 15) = {23.35951767919878, 2.532831320801218, 0};
Point(p16 + 16) = {23.21813071054802, 2.367288449902504, 0};
Point(p16 + 17) = {23.10438106054983, 2.181665891642655, 0};
Point(p16 + 18) = {23.02106962310063, 1.980534289451982, 0};
Point(p16 + 19) = {22.9702478022852, 1.768846170893935, 0};
Point(p16 + 20) = {22.953167, 1.551814, 0};
Point(p16 + 21) = {22.9702478022852, 1.334781829106065, 0};
Point(p16 + 22) = {23.02106962310063, 1.123093710548018, 0};
Point(p16 + 23) = {23.10438106054983, 0.9219621083573453, 0};
Point(p16 + 24) = {23.21813071054802, 0.7363395500974963, 0};
Point(p16 + 25) = {23.35951767919878, 0.5707966791987821, 0};
Point(p16 + 26) = {23.5250605500975, 0.4294097105480181, 0};
Point(p16 + 27) = {23.71068310835734, 0.3156600605498328, 0};
Point(p16 + 28) = {23.91181471054802, 0.2323486231006255, 0};
Point(p16 + 29) = {24.12350282910606, 0.1815268022852052, 0};
Point(p16 + 30) = {24.340535, 0.1644460000000001, 0};
Point(p16 + 31) = {24.55756717089393, 0.181526802285205, 0};
Point(p16 + 32) = {24.76925528945198, 0.2323486231006253, 0};
Point(p16 + 33) = {24.97038689164265, 0.3156600605498325, 0};
Point(p16 + 34) = {25.1560094499025, 0.4294097105480179, 0};
Point(p16 + 35) = {25.32155232080122, 0.5707966791987817, 0};
Point(p16 + 36) = {25.46293928945198, 0.7363395500974959, 0};
Point(p16 + 37) = {25.57668893945016, 0.9219621083573443, 0};
Point(p16 + 38) = {25.66000037689937, 1.123093710548018, 0};
Point(p16 + 39) = {25.71082219771479, 1.334781829106065, 0};
Spline(16) = {12, p16 + 1, p16 + 2, p16 + 3, p16 + 4, p16 + 5, p16 + 6, p16 + 7, p16 + 8, p16 + 9, p16 + 10, p16 + 11, p16 + 12, p16 + 13, p16 + 14, p16 + 15, p16 + 16, p16 + 17, p16 + 18, p16 + 19, p16 + 20, p16 + 21, p16 + 22, p16 + 23, p16 + 24, p16 + 25, p16 + 26, p16 + 27, p16 + 28, p16 + 29, p16 + 30, p16 + 31, p16 + 32, p16 + 33, p16 + 34, p16 + 35, p16 + 36, p16 + 37, p16 + 38, p16 + 39, 12};
Line(17) = {11, 8};
Line(18) = {12, 9};
Curve Loop(1) = {-1, 4, 3, -2};
Plane Surface(1) = {1};
Curve Loop(2) = {-5, 1, 7, -6};
Plane Surface(2) = {2};
Curve Loop(3) = {-2, 7, 9, -8, -10, -11};
Plane Surface(3) = {3};
Curve Loop(4) = {-12, 3, 8, -13};
Plane Surface(4) = {4};
Curve Loop(5) = {-4, 5, 14, -12, -15, -16};
Plane Surface(5) = {5};
Curve Loop(6) = {-6, 14, 13, -9};
Plane Surface(6) = {6};
Curve Loop(7) = {-10, -17, 15, 17};
Surface(7) = {7};
Curve Loop(8) = {-11, -18, 16, 18};
Surface(8) = {8};
Surface Loop(1) = {1, 2, 3, 4, 5, 6, 7, 8};
Volume(1) = {1};
Physical Surface("INFLOW") = {1};
Physical Surface("OUTFLOW") = {6};
Physical Surface("OBSTACLE") = {7, 8};
Physical Surface("WALL_Y") = {2, 4};
Physical Surface("WALL_Z") = {3, 5};
Physical Volume("FLUID") = {1};
