cl__1 = 3.62373;
cl__2 = 0.204851;
cl__3 = 0.12483;
cl__4 = 0.066095;
Point(1) = {0.123235, -4.41641, 1, cl__1};
Point(2) = {0.123235, -4.41641, 0, cl__1};
Point(3) = {0.123235, 4.426469999999999, 1, cl__2};
Point(4) = {0.123235, 4.426469999999999, 0, cl__2};
Point(5) = {35.966549, -4.41641, 0, cl__1};
Point(6) = {35.966549, -4.41641, 1, cl__1};
Point(7) = {35.966549, 4.426469999999999, 1, cl__2};
Point(8) = {35.307877, -1.727093, 1, cl__3};
Point(9) = {23.892881, 0.1110019999999998, 1, cl__4};
Point(10) = {35.966549, 4.426469999999999, 0, cl__2};
Point(11) = {35.307877, -1.727093, 0, cl__3};
Point(12) = {23.892881, 0.1110019999999998, 0, cl__4};
Line(1) = {2, 1};
Line(2) = {1, 3};
Line(3) = {4, 3};
Line(4) = {2, 4};
Line(5) = {2, 5};
Line(6) = {5, 6};
Line(7) = {1, 6};
Line(8) = {3, 7};
Line(9) = {6, 7};
p10 = newp;
Point(p10 + 1) = {35.29250839249988, -1.531816326593675, 1};
Point(p10 + 2) = {35.24678099612169, -1.341348012972736, 1};
Point(p10 + 3) = {35.17182077112476, -1.160378021146623, 1};
Point(p10 + 4) = {35.06947348702726, -0.9933624329190627, 1};
Point(p10 + 5) = {34.94225927363482, -0.8444137263651763, 1};
Point(p10 + 6) = {34.79331056708094, -0.7171995129727362, 1};
Point(p10 + 7) = {34.62629497885337, -0.6148522288752332, 1};
Point(p10 + 8) = {34.44532498702726, -0.5398920038783088, 1};
Point(p10 + 9) = {34.25485667340632, -0.4941646075001114, 1};
Point(p10 + 10) = {34.05958, -0.478796, 1};
Point(p10 + 11) = {33.86430332659367, -0.4941646075001114, 1};
Point(p10 + 12) = {33.67383501297273, -0.5398920038783086, 1};
Point(p10 + 13) = {33.49286502114662, -0.6148522288752329, 1};
Point(p10 + 14) = {33.32584943291906, -0.7171995129727362, 1};
Point(p10 + 15) = {33.17690072636518, -0.8444137263651762, 1};
Point(p10 + 16) = {33.04968651297273, -0.9933624329190626, 1};
Point(p10 + 17) = {32.94733922887523, -1.160378021146623, 1};
Point(p10 + 18) = {32.87237900387831, -1.341348012972736, 1};
Point(p10 + 19) = {32.82665160750011, -1.531816326593675, 1};
Point(p10 + 20) = {32.811283, -1.727093, 1};
Point(p10 + 21) = {32.82665160750011, -1.922369673406325, 1};
Point(p10 + 22) = {32.87237900387831, -2.112837987027264, 1};
Point(p10 + 23) = {32.94733922887523, -2.293807978853376, 1};
Point(p10 + 24) = {33.04968651297273, -2.460823567080937, 1};
Point(p10 + 25) = {33.17690072636518, -2.609772273634824, 1};
Point(p10 + 26) = {33.32584943291906, -2.736986487027264, 1};
Point(p10 + 27) = {33.49286502114662, -2.839333771124767, 1};
Point(p10 + 28) = {33.67383501297273, -2.914293996121691, 1};
Point(p10 + 29) = {33.86430332659367, -2.960021392499889, 1};
Point(p10 + 30) = {34.05958, -2.97539, 1};
Point(p10 + 31) = {34.25485667340632, -2.960021392499889, 1};
Point(p10 + 32) = {34.44532498702726, -2.914293996121692, 1};
Point(p10 + 33) = {34.62629497885337, -2.839333771124767, 1};
Point(p10 + 34) = {34.79331056708094, -2.736986487027264, 1};
Point(p10 + 35) = {34.94225927363482, -2.609772273634824, 1};
Point(p10 + 36) = {35.06947348702726, -2.460823567080938, 1};
Point(p10 + 37) = {35.17182077112476, -2.293807978853377, 1};
Point(p10 + 38) = {35.24678099612169, -2.112837987027264, 1};
Point(p10 + 39) = {35.29250839249988, -1.922369673406325, 1};
Spline(10) = {8, p10 + 1, p10 + 2, p10 + 3, p10 + 4, p10 + 5, p10 + 6, p10 + 7, p10 + 8, p10 + 9, p10 + 10, p10 + 11, p10 + 12, p10 + 13, p10 + 14, p10 + 15, p10 + 16, p10 + 17, p10 + 18, p10 + 19, p10 + 20, p10 + 21, p10 + 22, p10 + 23, p10 + 24, p10 + 25, p10 + 26, p10 + 27, p10 + 28, p10 + 29, p10 + 30, p10 + 31, p10 + 32, p10 + 33, p10 + 34, p10 + 35, p10 + 36, p10 + 37, p10 + 38, p10 + 39, 8};
p11 = newp;
Point(p11 + 1) = {23.88474355946972, 0.2143979854062008, 1};
Point(p11 + 2) = {23.86053160867134, 0.315248018500099, 1};
Point(p11 + 3) = {23.8208413261884, 0.4110688367648524, 1};
Point(p11 + 4) = {23.7666500185001, 0.4995010136437193, 1};
Point(p11 + 5) = {23.69929205545237, 0.5783670554523733, 1};
Point(p11 + 6) = {23.62042601364372, 0.6457250185000991, 1};
Point(p11 + 7) = {23.53199383676485, 0.6999163261883985, 1};
Point(p11 + 8) = {23.4361730185001, 0.739606608671347, 1};
Point(p11 + 9) = {23.3353229854062, 0.7638185594697188, 1};
Point(p11 + 10) = {23.231927, 0.7719560000000001, 1};
Point(p11 + 11) = {23.1285310145938, 0.7638185594697187, 1};
Point(p11 + 12) = {23.0276809814999, 0.7396066086713471, 1};
Point(p11 + 13) = {22.93186016323515, 0.6999163261883986, 1};
Point(p11 + 14) = {22.84342798635628, 0.6457250185000991, 1};
Point(p11 + 15) = {22.76456194454763, 0.5783670554523734, 1};
Point(p11 + 16) = {22.6972039814999, 0.4995010136437194, 1};
Point(p11 + 17) = {22.6430126738116, 0.4110688367648525, 1};
Point(p11 + 18) = {22.60332239132865, 0.3152480185000991, 1};
Point(p11 + 19) = {22.57911044053028, 0.2143979854062008, 1};
Point(p11 + 20) = {22.570973, 0.1110020000000001, 1};
Point(p11 + 21) = {22.57911044053028, 0.007606014593799337, 1};
Point(p11 + 22) = {22.60332239132865, -0.09324401850009921, 1};
Point(p11 + 23) = {22.6430126738116, -0.1890648367648521, 1};
Point(p11 + 24) = {22.6972039814999, -0.2774970136437193, 1};
Point(p11 + 25) = {22.76456194454763, -0.3563630554523733, 1};
Point(p11 + 26) = {22.84342798635628, -0.423721018500099, 1};
Point(p11 + 27) = {22.93186016323515, -0.4779123261883985, 1};
Point(p11 + 28) = {23.0276809814999, -0.5176026086713469, 1};
Point(p11 + 29) = {23.1285310145938, -0.5418145594697186, 1};
Point(p11 + 30) = {23.231927, -0.549952, 1};
Point(p11 + 31) = {23.3353229854062, -0.5418145594697187, 1};
Point(p11 + 32) = {23.4361730185001, -0.517602608671347, 1};
Point(p11 + 33) = {23.53199383676485, -0.4779123261883986, 1};
Point(p11 + 34) = {23.62042601364372, -0.4237210185000992, 1};
Point(p11 + 35) = {23.69929205545237, -0.3563630554523735, 1};
Point(p11 + 36) = {23.7666500185001, -0.2774970136437195, 1};
Point(p11 + 37) = {23.8208413261884, -0.1890648367648526, 1};
Point(p11 + 38) = {23.86053160867134, -0.09324401850009913, 1};
Point(p11 + 39) = {23.88474355946972, 0.007606014593799101, 1};
Spline(11) = {9, p11 + 1, p11 + 2, p11 + 3, p11 + 4, p11 + 5, p11 + 6, p11 + 7, p11 + 8, p11 + 9, p11 + 10, p11 + 11, p11 + 12, p11 + 13, p11 + 14, p11 + 15, p11 + 16, p11 + 17, p11 + 18, p11 + 19, p11 + 20, p11 + 21, p11 + 22, p11 + 23, p11 + 24, p11 + 25, p11 + 26, p11 + 27, p11 + 28, p11 + 29, p11 + 30, p11 + 31, p11 + 32, p11 + 33, p11 + 34, p11 + 35, p11 + 36, p11 + 37, p11 + 38, p11 + 39, 9};
Line(12) = {4, 10};
Line(13) = {10, 7};
Line(14) = {5, 10};
p15 = newp;
Point(p15 + 1) = {35.29250839249988, -1.531816326593675, 0};
Point(p15 + 2) = {35.24678099612169, -1.341348012972736, 0};
Point(p15 + 3) = {35.17182077112476, -1.160378021146623, 0};
Point(p15 + 4) = {35.06947348702726, -0.9933624329190627, 0};
Point(p15 + 5) = {34.94225927363482, -0.8444137263651763, 0};
Point(p15 + 6) = {34.79331056708094, -0.7171995129727362, 0};
Point(p15 + 7) = {34.62629497885337, -0.6148522288752332, 0};
Point(p15 + 8) = {34.44532498702726, -0.5398920038783088, 0};
Point(p15 + 9) = {34.25485667340632, -0.4941646075001114, 0};
Point(p15 + 10) = {34.05958, -0.478796, 0};
Point(p15 + 11) = {33.86430332659367, -0.4941646075001114, 0};
Point(p15 + 12) = {33.67383501297273, -0.5398920038783086, 0};
Point(p15 + 13) = {33.49286502114662, -0.6148522288752329, 0};
Point(p15 + 14) = {33.32584943291906, -0.7171995129727362, 0};
Point(p15 + 15) = {33.17690072636518, -0.8444137263651762, 0};
Point(p15 + 16) = {33.04968651297273, -0.9933624329190626, 0};
Point(p15 + 17) = {32.94733922887523, -1.160378021146623, 0};
Point(p15 + 18) = {32.87237900387831, -1.341348012972736, 0};
Point(p15 + 19) = {32.82665160750011, -1.531816326593675, 0};
Point(p15 + 20) = {32.811283, -1.727093, 0};
Point(p15 + 21) = {32.82665160750011, -1.922369673406325, 0};
Point(p15 + 22) = {32.87237900387831, -2.112837987027264, 0};
Point(p15 + 23) = {32.94733922887523, -2.293807978853376, 0};
Point(p15 + 24) = {33.04968651297273, -2.460823567080937, 0};
Point(p15 + 25) = {33.17690072636518, -2.609772273634824, 0};
Point(p15 + 26) = {33.32584943291906, -2.736986487027264, 0};
Point(p15 + 27) = {33.49286502114662, -2.839333771124767, 0};
Point(p15 + 28) = {33.67383501297273, -2.914293996121691, 0};
Point(p15 + 29) = {33.86430332659367, -2.960021392499889, 0};
Point(p15 + 30) = {34.05958, -2.97539, 0};
Point(p15 + 31) = {34.25485667340632, -2.960021392499889, 0};
Point(p15 + 32) = {34.44532498702726, -2.914293996121692, 0};
Point(p15 + 33) = {34.62629497885337, -2.839333771124767, 0};
Point(p15 + 34) = {34.79331056708094, -2.736986487027264, 0};
Point(p15 + 35) = {34.94225927363482, -2.609772273634824, 0};
Point(p15 + 36) = {35.06947348702726, -2.460823567080938, 0};
Point(p15 + 37) = {35.17182077112476, -2.293807978853377, 0};
Point(p15 + 38) = {35.24678099612169, -2.112837987027264, 0};
Point(p15 + 39) = {35.29250839249988, -1.922369673406325, 0};
Spline(15) = {11, p15 + 1, p15 + 2, p15 + 3, p15 + 4, p15 + 5, p15 + 6, p15 + 7, p15 + 8, p15 + 9, p15 + 10, p15 + 11, p15 + 12, p15 + 13, p15 + 14, p15 + 15, p15 + 16, p15 + 17, p15 + 18, p15 + 19, p15 + 20, p15 + 21, p15 + 22, p15 + 23, p15 + 24, p15 + 25, p15 + 26, p15 + 27, p15 + 28, p15 + 29, p15 + 30, p15 + 31, p15 + 32, p15 + 33, p15 + 34, p15 + 35, p15 + 36, p15 + 37, p15 + 38, p15 + 39, 11};
p16 = newp;
Point(p16 + 1) = {23.88474355946972, 0.2143979854062008, 0};
Point(p16 + 2) = {23.86053160867134, 0.315248018500099, 0};
Point(p16 + 3) = {23.8208413261884, 0.4110688367648524, 0};
Point(p16 + 4) = {23.7666500185001, 0.4995010136437193, 0};
Point(p16 + 5) = {23.69929205545237, 0.5783670554523733, 0};
Point(p16 + 6) = {23.62042601364372, 0.6457250185000991, 0};
Point(p16 + 7) = {23.53199383676485, 0.6999163261883985, 0};
Point(p16 + 8) = {23.4361730185001, 0.739606608671347, 0};
Point(p16 + 9) = {23.3353229854062, 0.7638185594697188, 0};
Point(p16 + 10) = {23.231927, 0.7719560000000001, 0};
Point(p16 + 11) = {23.1285310145938, 0.7638185594697187, 0};
Point(p16 + 12) = {23.0276809814999, 0.7396066086713471, 0};
Point(p16 + 13) = {22.93186016323515, 0.6999163261883986, 0};
Point(p16 + 14) = {22.84342798635628, 0.6457250185000991, 0};
Point(p16 + 15) = {22.76456194454763, 0.5783670554523734, 0};
Point(p16 + 16) = {22.6972039814999, 0.4995010136437194, 0};
Point(p16 + 17) = {22.6430126738116, 0.4110688367648525, 0};
Point(p16 + 18) = {22.60332239132865, 0.3152480185000991, 0};
Point(p16 + 19) = {22.57911044053028, 0.2143979854062008, 0};
Point(p16 + 20) = {22.570973, 0.1110020000000001, 0};
Point(p16 + 21) = {22.57911044053028, 0.007606014593799337, 0};
Point(p16 + 22) = {22.60332239132865, -0.09324401850009921, 0};
Point(p16 + 23) = {22.6430126738116, -0.1890648367648521, 0};
Point(p16 + 24) = {22.6972039814999, -0.2774970136437193, 0};
Point(p16 + 25) = {22.76456194454763, -0.3563630554523733, 0};
Point(p16 + 26) = {22.84342798635628, -0.423721018500099, 0};
Point(p16 + 27) = {22.93186016323515, -0.4779123261883985, 0};
Point(p16 + 28) = {23.0276809814999, -0.5176026086713469, 0};
Point(p16 + 29) = {23.1285310145938, -0.5418145594697186, 0};
Point(p16 + 30) = {23.231927, -0.549952, 0};
Point(p16 + 31) = {23.3353229854062, -0.5418145594697187, 0};
Point(p16 + 32) = {23.4361730185001, -0.517602608671347, 0};
Point(p16 + 33) = {23.53199383676485, -0.4779123261883986, 0};
Point(p16 + 34) = {23.62042601364372, -0.4237210185000992, 0};
Point(p16 + 35) = {23.69929205545237, -0.3563630554523735, 0};
Point(p16 + 36) = {23.7666500185001, -0.2774970136437195, 0};
Point(p16 + 37) = {23.8208413261884, -0.1890648367648526, 0};
Point(p16 + 38) = {23.86053160867134, -0.09324401850009913, 0};
Point(p16 + 39) = {23.88474355946972, 0.007606014593799101, 0};
Spline(16) = {12, p16 + 1, p16 + 2, p16 + 3, p16 + 4, p16 + 5, p16 + 6, p16 + 7, p16 + 8, p16 + 9, p16 + 10, p16 + 11, p16 + 12, p16 + 13, p16 + 14, p16 + 15, p16 + 16, p16 + 17, p16 + 18, p16 + 19, p16 + 20, p16 + 21, p16 + 22, p16 + 23, p16 + 24, p16 + 25, p16 + 26, p16 + 27, p16 + 28, p16 + 29, p16 + 30, p16 + 31, p16 + 32, p16 + 33, p16 + 34, p16 + 35, p16 + 36, p16 + 37, p16 + 38, p16 + 39, 12};
Line(17) = {11, 8};
Line(18) = {12, 9};
Curve Loop(1) = {-1, 4, 3, -2};
Plane Surface(1) = {1};
Curve Loop(2) = {-5, 1, 7, -6};
Plane Surface(2) = {2};
Curve Loop(3) = {-2, 7, 9, -8, -10, -11};
Plane Surface(3) = {3};
Curve Loop(4) = {-12, 3, 8, -13};
Plane Surface(4) = {4};
Curve Loop(5) = {-4, 5, 14, -12, -15, -16};
Plane Surface(5) = {5};
Curve Loop(6) = {-6, 14, 13, -9};
Plane Surface(6) = {6};
Curve Loop(7) = {-10, -17, 15, 17};
Surface(7) = {7};
Curve Loop(8) = {-11, -18, 16, 18};
Surface(8) = {8};
Surface Loop(1) = {1, 2, 3, 4, 5, 6, 7, 8};
Volume(1) = {1};
Physical Surface("INFLOW") = {1};
Physical Surface("OUTFLOW") = {6};
Physical Surface("OBSTACLE") = {7, 8};
Physical Surface("WALL_Y") = {2, 4};
Physical Surface("WALL_Z") = {3, 5};
Physical Volume("FLUID") = {1};
