cl__1 = 0.469485;
cl__2 = 0.651548;
cl__3 = 3.780254;
cl__4 = 0.118496;
cl__5 = 0.093236;
Point(1) = {0.779493, -4.282644, 1, cl__1};
Point(2) = {0.779493, -4.282644, 0, cl__1};
Point(3) = {0.779493, 4.852517, 1, cl__2};
Point(4) = {0.779493, 4.852517, 0, cl__2};
Point(5) = {37.525586, -4.282644, 0, cl__1};
Point(6) = {37.525586, -4.282644, 1, cl__1};
Point(7) = {37.525586, 4.852517, 1, cl__3};
Point(8) = {31.443838, -1.734755, 1, cl__4};
Point(9) = {5.458018, -0.08363200000000022, 1, cl__5};
Point(10) = {37.525586, 4.852517, 0, cl__3};
Point(11) = {31.443838, -1.734755, 0, cl__4};
Point(12) = {5.458018, -0.08363200000000022, 0, cl__5};
Line(1) = {2, 1};
Line(2) = {1, 3};
Line(3) = {4, 3};
Line(4) = {2, 4};
Line(5) = {2, 5};
Line(6) = {5, 6};
Line(7) = {1, 6};
Line(8) = {3, 7};
Line(9) = {6, 7};
p10 = newp;
Point(p10 + 1) = {31.4292491514483, -1.549386103436998, 1};
Point(p10 + 2) = {31.38584183166214, -1.368581604311474, 1};
Point(p10 + 3) = {31.3146848729153, -1.196793509447627, 1};
Point(p10 + 4) = {31.21753039568853, -1.038251811873006, 1};
Point(p10 + 5) = {31.09677066564837, -0.8968603343516264, 1};
Point(p10 + 6) = {30.95537918812699, -0.7761006043114735, 1};
Point(p10 + 7) = {30.79683749055237, -0.6789461270847033, 1};
Point(p10 + 8) = {30.62504939568853, -0.6077891683378622, 1};
Point(p10 + 9) = {30.444244896563, -0.5643818485517043, 1};
Point(p10 + 10) = {30.258876, -0.549793, 1};
Point(p10 + 11) = {30.073507103437, -0.5643818485517045, 1};
Point(p10 + 12) = {29.89270260431147, -0.6077891683378622, 1};
Point(p10 + 13) = {29.72091450944763, -0.6789461270847033, 1};
Point(p10 + 14) = {29.56237281187301, -0.7761006043114735, 1};
Point(p10 + 15) = {29.42098133435163, -0.8968603343516263, 1};
Point(p10 + 16) = {29.30022160431147, -1.038251811873006, 1};
Point(p10 + 17) = {29.2030671270847, -1.196793509447627, 1};
Point(p10 + 18) = {29.13191016833786, -1.368581604311474, 1};
Point(p10 + 19) = {29.08850284855171, -1.549386103436998, 1};
Point(p10 + 20) = {29.073914, -1.734755, 1};
Point(p10 + 21) = {29.08850284855171, -1.920123896563002, 1};
Point(p10 + 22) = {29.13191016833786, -2.100928395688527, 1};
Point(p10 + 23) = {29.2030671270847, -2.272716490552372, 1};
Point(p10 + 24) = {29.30022160431147, -2.431258188126994, 1};
Point(p10 + 25) = {29.42098133435163, -2.572649665648374, 1};
Point(p10 + 26) = {29.56237281187301, -2.693409395688526, 1};
Point(p10 + 27) = {29.72091450944763, -2.790563872915297, 1};
Point(p10 + 28) = {29.89270260431147, -2.861720831662138, 1};
Point(p10 + 29) = {30.073507103437, -2.905128151448296, 1};
Point(p10 + 30) = {30.258876, -2.919717, 1};
Point(p10 + 31) = {30.444244896563, -2.905128151448296, 1};
Point(p10 + 32) = {30.62504939568853, -2.861720831662138, 1};
Point(p10 + 33) = {30.79683749055237, -2.790563872915297, 1};
Point(p10 + 34) = {30.95537918812699, -2.693409395688527, 1};
Point(p10 + 35) = {31.09677066564837, -2.572649665648374, 1};
Point(p10 + 36) = {31.21753039568853, -2.431258188126994, 1};
Point(p10 + 37) = {31.3146848729153, -2.272716490552373, 1};
Point(p10 + 38) = {31.38584183166214, -2.100928395688527, 1};
Point(p10 + 39) = {31.4292491514483, -1.920123896563002, 1};
Spline(10) = {8, p10 + 1, p10 + 2, p10 + 3, p10 + 4, p10 + 5, p10 + 6, p10 + 7, p10 + 8, p10 + 9, p10 + 10, p10 + 11, p10 + 12, p10 + 13, p10 + 14, p10 + 15, p10 + 16, p10 + 17, p10 + 18, p10 + 19, p10 + 20, p10 + 21, p10 + 22, p10 + 23, p10 + 24, p10 + 25, p10 + 26, p10 + 27, p10 + 28, p10 + 29, p10 + 30, p10 + 31, p10 + 32, p10 + 33, p10 + 34, p10 + 35, p10 + 36, p10 + 37, p10 + 38, p10 + 39, 8};
p11 = newp;
Point(p11 + 1) = {5.446539125860602, 0.06222092495597957, 1};
Point(p11 + 2) = {5.412385151419917, 0.2044824668414372, 1};
Point(p11 + 3) = {5.356397060879218, 0.3396496743561643, 1};
Point(p11 + 4) = {5.279953466841437, 0.4643942822569057, 1};
Point(p11 + 5) = {5.184936664293527, 0.575644664293527, 1};
Point(p11 + 6) = {5.073686282256906, 0.6706614668414372, 1};
Point(p11 + 7) = {4.948941674356164, 0.7471050608792182, 1};
Point(p11 + 8) = {4.813774466841437, 0.8030931514199168, 1};
Point(p11 + 9) = {4.67151292495598, 0.8372471258606015, 1};
Point(p11 + 10) = {4.52566, 0.848726, 1};
Point(p11 + 11) = {4.37980707504402, 0.8372471258606013, 1};
Point(p11 + 12) = {4.237545533158563, 0.8030931514199169, 1};
Point(p11 + 13) = {4.102378325643836, 0.7471050608792182, 1};
Point(p11 + 14) = {3.977633717743095, 0.6706614668414372, 1};
Point(p11 + 15) = {3.866383335706473, 0.5756446642935271, 1};
Point(p11 + 16) = {3.771366533158563, 0.4643942822569058, 1};
Point(p11 + 17) = {3.694922939120782, 0.3396496743561644, 1};
Point(p11 + 18) = {3.638934848580083, 0.2044824668414373, 1};
Point(p11 + 19) = {3.604780874139399, 0.06222092495597968, 1};
Point(p11 + 20) = {3.593302, -0.08363199999999989, 1};
Point(p11 + 21) = {3.604780874139399, -0.2294849249559794, 1};
Point(p11 + 22) = {3.638934848580083, -0.3717464668414375, 1};
Point(p11 + 23) = {3.694922939120782, -0.5069136743561639, 1};
Point(p11 + 24) = {3.771366533158563, -0.6316582822569056, 1};
Point(p11 + 25) = {3.866383335706473, -0.7429086642935271, 1};
Point(p11 + 26) = {3.977633717743094, -0.8379254668414372, 1};
Point(p11 + 27) = {4.102378325643835, -0.9143690608792183, 1};
Point(p11 + 28) = {4.237545533158563, -0.9703571514199169, 1};
Point(p11 + 29) = {4.37980707504402, -1.004511125860601, 1};
Point(p11 + 30) = {4.52566, -1.01599, 1};
Point(p11 + 31) = {4.671512924955979, -1.004511125860601, 1};
Point(p11 + 32) = {4.813774466841437, -0.970357151419917, 1};
Point(p11 + 33) = {4.948941674356164, -0.9143690608792183, 1};
Point(p11 + 34) = {5.073686282256906, -0.8379254668414374, 1};
Point(p11 + 35) = {5.184936664293527, -0.7429086642935273, 1};
Point(p11 + 36) = {5.279953466841437, -0.6316582822569059, 1};
Point(p11 + 37) = {5.356397060879218, -0.5069136743561645, 1};
Point(p11 + 38) = {5.412385151419917, -0.3717464668414374, 1};
Point(p11 + 39) = {5.446539125860602, -0.2294849249559798, 1};
Spline(11) = {9, p11 + 1, p11 + 2, p11 + 3, p11 + 4, p11 + 5, p11 + 6, p11 + 7, p11 + 8, p11 + 9, p11 + 10, p11 + 11, p11 + 12, p11 + 13, p11 + 14, p11 + 15, p11 + 16, p11 + 17, p11 + 18, p11 + 19, p11 + 20, p11 + 21, p11 + 22, p11 + 23, p11 + 24, p11 + 25, p11 + 26, p11 + 27, p11 + 28, p11 + 29, p11 + 30, p11 + 31, p11 + 32, p11 + 33, p11 + 34, p11 + 35, p11 + 36, p11 + 37, p11 + 38, p11 + 39, 9};
Line(12) = {4, 10};
Line(13) = {10, 7};
Line(14) = {5, 10};
p15 = newp;
Point(p15 + 1) = {31.4292491514483, -1.549386103436998, 0};
Point(p15 + 2) = {31.38584183166214, -1.368581604311474, 0};
Point(p15 + 3) = {31.3146848729153, -1.196793509447627, 0};
Point(p15 + 4) = {31.21753039568853, -1.038251811873006, 0};
Point(p15 + 5) = {31.09677066564837, -0.8968603343516264, 0};
Point(p15 + 6) = {30.95537918812699, -0.7761006043114735, 0};
Point(p15 + 7) = {30.79683749055237, -0.6789461270847033, 0};
Point(p15 + 8) = {30.62504939568853, -0.6077891683378622, 0};
Point(p15 + 9) = {30.444244896563, -0.5643818485517043, 0};
Point(p15 + 10) = {30.258876, -0.549793, 0};
Point(p15 + 11) = {30.073507103437, -0.5643818485517045, 0};
Point(p15 + 12) = {29.89270260431147, -0.6077891683378622, 0};
Point(p15 + 13) = {29.72091450944763, -0.6789461270847033, 0};
Point(p15 + 14) = {29.56237281187301, -0.7761006043114735, 0};
Point(p15 + 15) = {29.42098133435163, -0.8968603343516263, 0};
Point(p15 + 16) = {29.30022160431147, -1.038251811873006, 0};
Point(p15 + 17) = {29.2030671270847, -1.196793509447627, 0};
Point(p15 + 18) = {29.13191016833786, -1.368581604311474, 0};
Point(p15 + 19) = {29.08850284855171, -1.549386103436998, 0};
Point(p15 + 20) = {29.073914, -1.734755, 0};
Point(p15 + 21) = {29.08850284855171, -1.920123896563002, 0};
Point(p15 + 22) = {29.13191016833786, -2.100928395688527, 0};
Point(p15 + 23) = {29.2030671270847, -2.272716490552372, 0};
Point(p15 + 24) = {29.30022160431147, -2.431258188126994, 0};
Point(p15 + 25) = {29.42098133435163, -2.572649665648374, 0};
Point(p15 + 26) = {29.56237281187301, -2.693409395688526, 0};
Point(p15 + 27) = {29.72091450944763, -2.790563872915297, 0};
Point(p15 + 28) = {29.89270260431147, -2.861720831662138, 0};
Point(p15 + 29) = {30.073507103437, -2.905128151448296, 0};
Point(p15 + 30) = {30.258876, -2.919717, 0};
Point(p15 + 31) = {30.444244896563, -2.905128151448296, 0};
Point(p15 + 32) = {30.62504939568853, -2.861720831662138, 0};
Point(p15 + 33) = {30.79683749055237, -2.790563872915297, 0};
Point(p15 + 34) = {30.95537918812699, -2.693409395688527, 0};
Point(p15 + 35) = {31.09677066564837, -2.572649665648374, 0};
Point(p15 + 36) = {31.21753039568853, -2.431258188126994, 0};
Point(p15 + 37) = {31.3146848729153, -2.272716490552373, 0};
Point(p15 + 38) = {31.38584183166214, -2.100928395688527, 0};
Point(p15 + 39) = {31.4292491514483, -1.920123896563002, 0};
Spline(15) = {11, p15 + 1, p15 + 2, p15 + 3, p15 + 4, p15 + 5, p15 + 6, p15 + 7, p15 + 8, p15 + 9, p15 + 10, p15 + 11, p15 + 12, p15 + 13, p15 + 14, p15 + 15, p15 + 16, p15 + 17, p15 + 18, p15 + 19, p15 + 20, p15 + 21, p15 + 22, p15 + 23, p15 + 24, p15 + 25, p15 + 26, p15 + 27, p15 + 28, p15 + 29, p15 + 30, p15 + 31, p15 + 32, p15 + 33, p15 + 34, p15 + 35, p15 + 36, p15 + 37, p15 + 38, p15 + 39, 11};
p16 = newp;
Point(p16 + 1) = {5.446539125860602, 0.06222092495597957, 0};
Point(p16 + 2) = {5.412385151419917, 0.2044824668414372, 0};
Point(p16 + 3) = {5.356397060879218, 0.3396496743561643, 0};
Point(p16 + 4) = {5.279953466841437, 0.4643942822569057, 0};
Point(p16 + 5) = {5.184936664293527, 0.575644664293527, 0};
Point(p16 + 6) = {5.073686282256906, 0.6706614668414372, 0};
Point(p16 + 7) = {4.948941674356164, 0.7471050608792182, 0};
Point(p16 + 8) = {4.813774466841437, 0.8030931514199168, 0};
Point(p16 + 9) = {4.67151292495598, 0.8372471258606015, 0};
Point(p16 + 10) = {4.52566, 0.848726, 0};
Point(p16 + 11) = {4.37980707504402, 0.8372471258606013, 0};
Point(p16 + 12) = {4.237545533158563, 0.8030931514199169, 0};
Point(p16 + 13) = {4.102378325643836, 0.7471050608792182, 0};
Point(p16 + 14) = {3.977633717743095, 0.6706614668414372, 0};
Point(p16 + 15) = {3.866383335706473, 0.5756446642935271, 0};
Point(p16 + 16) = {3.771366533158563, 0.4643942822569058, 0};
Point(p16 + 17) = {3.694922939120782, 0.3396496743561644, 0};
Point(p16 + 18) = {3.638934848580083, 0.2044824668414373, 0};
Point(p16 + 19) = {3.604780874139399, 0.06222092495597968, 0};
Point(p16 + 20) = {3.593302, -0.08363199999999989, 0};
Point(p16 + 21) = {3.604780874139399, -0.2294849249559794, 0};
Point(p16 + 22) = {3.638934848580083, -0.3717464668414375, 0};
Point(p16 + 23) = {3.694922939120782, -0.5069136743561639, 0};
Point(p16 + 24) = {3.771366533158563, -0.6316582822569056, 0};
Point(p16 + 25) = {3.866383335706473, -0.7429086642935271, 0};
Point(p16 + 26) = {3.977633717743094, -0.8379254668414372, 0};
Point(p16 + 27) = {4.102378325643835, -0.9143690608792183, 0};
Point(p16 + 28) = {4.237545533158563, -0.9703571514199169, 0};
Point(p16 + 29) = {4.37980707504402, -1.004511125860601, 0};
Point(p16 + 30) = {4.52566, -1.01599, 0};
Point(p16 + 31) = {4.671512924955979, -1.004511125860601, 0};
Point(p16 + 32) = {4.813774466841437, -0.970357151419917, 0};
Point(p16 + 33) = {4.948941674356164, -0.9143690608792183, 0};
Point(p16 + 34) = {5.073686282256906, -0.8379254668414374, 0};
Point(p16 + 35) = {5.184936664293527, -0.7429086642935273, 0};
Point(p16 + 36) = {5.279953466841437, -0.6316582822569059, 0};
Point(p16 + 37) = {5.356397060879218, -0.5069136743561645, 0};
Point(p16 + 38) = {5.412385151419917, -0.3717464668414374, 0};
Point(p16 + 39) = {5.446539125860602, -0.2294849249559798, 0};
Spline(16) = {12, p16 + 1, p16 + 2, p16 + 3, p16 + 4, p16 + 5, p16 + 6, p16 + 7, p16 + 8, p16 + 9, p16 + 10, p16 + 11, p16 + 12, p16 + 13, p16 + 14, p16 + 15, p16 + 16, p16 + 17, p16 + 18, p16 + 19, p16 + 20, p16 + 21, p16 + 22, p16 + 23, p16 + 24, p16 + 25, p16 + 26, p16 + 27, p16 + 28, p16 + 29, p16 + 30, p16 + 31, p16 + 32, p16 + 33, p16 + 34, p16 + 35, p16 + 36, p16 + 37, p16 + 38, p16 + 39, 12};
Line(17) = {11, 8};
Line(18) = {12, 9};
Curve Loop(1) = {-1, 4, 3, -2};
Plane Surface(1) = {1};
Curve Loop(2) = {-5, 1, 7, -6};
Plane Surface(2) = {2};
Curve Loop(3) = {-2, 7, 9, -8, -10, -11};
Plane Surface(3) = {3};
Curve Loop(4) = {-12, 3, 8, -13};
Plane Surface(4) = {4};
Curve Loop(5) = {-4, 5, 14, -12, -15, -16};
Plane Surface(5) = {5};
Curve Loop(6) = {-6, 14, 13, -9};
Plane Surface(6) = {6};
Curve Loop(7) = {-10, -17, 15, 17};
Surface(7) = {7};
Curve Loop(8) = {-11, -18, 16, 18};
Surface(8) = {8};
Surface Loop(1) = {1, 2, 3, 4, 5, 6, 7, 8};
Volume(1) = {1};
Physical Surface("INFLOW") = {1};
Physical Surface("OUTFLOW") = {6};
Physical Surface("OBSTACLE") = {7, 8};
Physical Surface("WALL_Y") = {2, 4};
Physical Surface("WALL_Z") = {3, 5};
Physical Volume("FLUID") = {1};
