cl__1 = 1.197471;
cl__2 = 1.090019;
cl__3 = 3.445236;
cl__4 = 0.127684;
Point(1) = {0.746112, -3.960987, 1, cl__1};
Point(2) = {0.746112, -3.960987, 0, cl__1};
Point(3) = {0.746112, 4.391253000000001, 1, cl__2};
Point(4) = {0.746112, 4.391253000000001, 0, cl__2};
Point(5) = {34.198325, -3.960987, 0, cl__3};
Point(6) = {34.198325, -3.960987, 1, cl__3};
Point(7) = {34.198325, 4.391253000000001, 1, cl__3};
Point(8) = {13.932032, 1.850823, 1, cl__4};
Point(9) = {34.198325, 4.391253000000001, 0, cl__3};
Point(10) = {13.932032, 1.850823, 0, cl__4};
Line(1) = {2, 1};
Line(2) = {1, 3};
Line(3) = {4, 3};
Line(4) = {2, 4};
Line(5) = {2, 5};
Line(6) = {5, 6};
Line(7) = {1, 6};
Line(8) = {3, 7};
Line(9) = {6, 7};
p10 = newp;
Point(p10 + 1) = {13.91631203005213, 2.050564156604108, 1};
Point(p10 + 2) = {13.86953919804024, 2.245387023029731, 1};
Point(p10 + 3) = {13.79286520631858, 2.430494413725444, 1};
Point(p10 + 4) = {13.68817802302973, 2.601328370396113, 1};
Point(p10 + 5) = {13.55805539406311, 2.753682394063107, 1};
Point(p10 + 6) = {13.40570137039611, 2.883805023029731, 1};
Point(p10 + 7) = {13.23486741372544, 2.988492206318579, 1};
Point(p10 + 8) = {13.04976002302973, 3.065166198040239, 1};
Point(p10 + 9) = {12.85493715660411, 3.111939030052134, 1};
Point(p10 + 10) = {12.655196, 3.127659, 1};
Point(p10 + 11) = {12.45545484339589, 3.111939030052134, 1};
Point(p10 + 12) = {12.26063197697027, 3.065166198040239, 1};
Point(p10 + 13) = {12.07552458627456, 2.988492206318579, 1};
Point(p10 + 14) = {11.90469062960389, 2.883805023029731, 1};
Point(p10 + 15) = {11.75233660593689, 2.753682394063107, 1};
Point(p10 + 16) = {11.62221397697027, 2.601328370396113, 1};
Point(p10 + 17) = {11.51752679368142, 2.430494413725444, 1};
Point(p10 + 18) = {11.44085280195976, 2.245387023029731, 1};
Point(p10 + 19) = {11.39407996994787, 2.050564156604108, 1};
Point(p10 + 20) = {11.37836, 1.850823, 1};
Point(p10 + 21) = {11.39407996994787, 1.651081843395892, 1};
Point(p10 + 22) = {11.44085280195976, 1.456258976970269, 1};
Point(p10 + 23) = {11.51752679368142, 1.271151586274557, 1};
Point(p10 + 24) = {11.62221397697027, 1.100317629603888, 1};
Point(p10 + 25) = {11.75233660593689, 0.9479636059368935, 1};
Point(p10 + 26) = {11.90469062960389, 0.8178409769702697, 1};
Point(p10 + 27) = {12.07552458627456, 0.7131537936814212, 1};
Point(p10 + 28) = {12.26063197697027, 0.6364798019597613, 1};
Point(p10 + 29) = {12.45545484339589, 0.5897069699478668, 1};
Point(p10 + 30) = {12.655196, 0.573987, 1};
Point(p10 + 31) = {12.85493715660411, 0.5897069699478668, 1};
Point(p10 + 32) = {13.04976002302973, 0.6364798019597613, 1};
Point(p10 + 33) = {13.23486741372544, 0.7131537936814212, 1};
Point(p10 + 34) = {13.40570137039611, 0.8178409769702695, 1};
Point(p10 + 35) = {13.55805539406311, 0.9479636059368932, 1};
Point(p10 + 36) = {13.68817802302973, 1.100317629603888, 1};
Point(p10 + 37) = {13.79286520631858, 1.271151586274556, 1};
Point(p10 + 38) = {13.86953919804024, 1.456258976970269, 1};
Point(p10 + 39) = {13.91631203005213, 1.651081843395892, 1};
Spline(10) = {8, p10 + 1, p10 + 2, p10 + 3, p10 + 4, p10 + 5, p10 + 6, p10 + 7, p10 + 8, p10 + 9, p10 + 10, p10 + 11, p10 + 12, p10 + 13, p10 + 14, p10 + 15, p10 + 16, p10 + 17, p10 + 18, p10 + 19, p10 + 20, p10 + 21, p10 + 22, p10 + 23, p10 + 24, p10 + 25, p10 + 26, p10 + 27, p10 + 28, p10 + 29, p10 + 30, p10 + 31, p10 + 32, p10 + 33, p10 + 34, p10 + 35, p10 + 36, p10 + 37, p10 + 38, p10 + 39, 8};
Line(11) = {4, 9};
Line(12) = {9, 7};
Line(13) = {5, 9};
p14 = newp;
Point(p14 + 1) = {13.91631203005213, 2.050564156604108, 0};
Point(p14 + 2) = {13.86953919804024, 2.245387023029731, 0};
Point(p14 + 3) = {13.79286520631858, 2.430494413725444, 0};
Point(p14 + 4) = {13.68817802302973, 2.601328370396113, 0};
Point(p14 + 5) = {13.55805539406311, 2.753682394063107, 0};
Point(p14 + 6) = {13.40570137039611, 2.883805023029731, 0};
Point(p14 + 7) = {13.23486741372544, 2.988492206318579, 0};
Point(p14 + 8) = {13.04976002302973, 3.065166198040239, 0};
Point(p14 + 9) = {12.85493715660411, 3.111939030052134, 0};
Point(p14 + 10) = {12.655196, 3.127659, 0};
Point(p14 + 11) = {12.45545484339589, 3.111939030052134, 0};
Point(p14 + 12) = {12.26063197697027, 3.065166198040239, 0};
Point(p14 + 13) = {12.07552458627456, 2.988492206318579, 0};
Point(p14 + 14) = {11.90469062960389, 2.883805023029731, 0};
Point(p14 + 15) = {11.75233660593689, 2.753682394063107, 0};
Point(p14 + 16) = {11.62221397697027, 2.601328370396113, 0};
Point(p14 + 17) = {11.51752679368142, 2.430494413725444, 0};
Point(p14 + 18) = {11.44085280195976, 2.245387023029731, 0};
Point(p14 + 19) = {11.39407996994787, 2.050564156604108, 0};
Point(p14 + 20) = {11.37836, 1.850823, 0};
Point(p14 + 21) = {11.39407996994787, 1.651081843395892, 0};
Point(p14 + 22) = {11.44085280195976, 1.456258976970269, 0};
Point(p14 + 23) = {11.51752679368142, 1.271151586274557, 0};
Point(p14 + 24) = {11.62221397697027, 1.100317629603888, 0};
Point(p14 + 25) = {11.75233660593689, 0.9479636059368935, 0};
Point(p14 + 26) = {11.90469062960389, 0.8178409769702697, 0};
Point(p14 + 27) = {12.07552458627456, 0.7131537936814212, 0};
Point(p14 + 28) = {12.26063197697027, 0.6364798019597613, 0};
Point(p14 + 29) = {12.45545484339589, 0.5897069699478668, 0};
Point(p14 + 30) = {12.655196, 0.573987, 0};
Point(p14 + 31) = {12.85493715660411, 0.5897069699478668, 0};
Point(p14 + 32) = {13.04976002302973, 0.6364798019597613, 0};
Point(p14 + 33) = {13.23486741372544, 0.7131537936814212, 0};
Point(p14 + 34) = {13.40570137039611, 0.8178409769702695, 0};
Point(p14 + 35) = {13.55805539406311, 0.9479636059368932, 0};
Point(p14 + 36) = {13.68817802302973, 1.100317629603888, 0};
Point(p14 + 37) = {13.79286520631858, 1.271151586274556, 0};
Point(p14 + 38) = {13.86953919804024, 1.456258976970269, 0};
Point(p14 + 39) = {13.91631203005213, 1.651081843395892, 0};
Spline(14) = {10, p14 + 1, p14 + 2, p14 + 3, p14 + 4, p14 + 5, p14 + 6, p14 + 7, p14 + 8, p14 + 9, p14 + 10, p14 + 11, p14 + 12, p14 + 13, p14 + 14, p14 + 15, p14 + 16, p14 + 17, p14 + 18, p14 + 19, p14 + 20, p14 + 21, p14 + 22, p14 + 23, p14 + 24, p14 + 25, p14 + 26, p14 + 27, p14 + 28, p14 + 29, p14 + 30, p14 + 31, p14 + 32, p14 + 33, p14 + 34, p14 + 35, p14 + 36, p14 + 37, p14 + 38, p14 + 39, 10};
Line(15) = {10, 8};
Curve Loop(1) = {-1, 4, 3, -2};
Plane Surface(1) = {1};
Curve Loop(2) = {-5, 1, 7, -6};
Plane Surface(2) = {2};
Curve Loop(3) = {-2, 7, 9, -8, -10};
Plane Surface(3) = {3};
Curve Loop(4) = {-11, 3, 8, -12};
Plane Surface(4) = {4};
Curve Loop(5) = {-4, 5, 13, -11, -14};
Plane Surface(5) = {5};
Curve Loop(6) = {-6, 13, 12, -9};
Plane Surface(6) = {6};
Curve Loop(7) = {-10, -15, 14, 15};
Surface(7) = {7};
Surface Loop(1) = {1, 2, 3, 4, 5, 6, 7};
Volume(1) = {1};
Physical Surface("INFLOW") = {1};
Physical Surface("OUTFLOW") = {6};
Physical Surface("OBSTACLE") = {7};
Physical Surface("WALL_Y") = {2, 4};
Physical Surface("WALL_Z") = {3, 5};
Physical Volume("FLUID") = {1};
