cl__1 = 1;
cl__2 = 0.080357;
cl__3 = 0.050832;
Point(1) = {0.347168, -3.762657, 1, cl__1};
Point(2) = {0.347168, -3.762657, 0, cl__1};
Point(3) = {0.347168, 4.841994000000001, 1, cl__1};
Point(4) = {0.347168, 4.841994000000001, 0, cl__1};
Point(5) = {38.047077, -3.762657, 0, cl__1};
Point(6) = {38.047077, -3.762657, 1, cl__1};
Point(7) = {38.047077, 4.841994000000001, 1, cl__1};
Point(8) = {14.720559, -2.066777, 1, cl__2};
Point(9) = {13.592133, -0.2650410000000001, 1, cl__3};
Point(10) = {38.047077, 4.841994000000001, 0, cl__1};
Point(11) = {14.720559, -2.066777, 0, cl__2};
Point(12) = {13.592133, -0.2650410000000001, 0, cl__3};
Line(1) = {2, 1};
Line(2) = {1, 3};
Line(3) = {4, 3};
Line(4) = {2, 4};
Line(5) = {2, 5};
Line(6) = {5, 6};
Line(7) = {1, 6};
Line(8) = {3, 7};
Line(9) = {6, 7};
p10 = newp;
Point(p10 + 1) = {14.71066568291706, -1.941070487624227, 1};
Point(p10 + 2) = {14.68122933796884, -1.81845928677914, 1};
Point(p10 + 3) = {14.63297478566162, -1.701962492152793, 1};
Point(p10 + 4) = {14.56709021322086, -1.594448641459581, 1};
Point(p10 + 5) = {14.48519791747842, -1.498565082521583, 1};
Point(p10 + 6) = {14.38931435854042, -1.41667278677914, 1};
Point(p10 + 7) = {14.28180050784721, -1.350788214338381, 1};
Point(p10 + 8) = {14.16530371322086, -1.302533662031155, 1};
Point(p10 + 9) = {14.04269251237577, -1.273097317082943, 1};
Point(p10 + 10) = {13.916986, -1.263204, 1};
Point(p10 + 11) = {13.79127948762423, -1.273097317082944, 1};
Point(p10 + 12) = {13.66866828677914, -1.302533662031155, 1};
Point(p10 + 13) = {13.55217149215279, -1.350788214338381, 1};
Point(p10 + 14) = {13.44465764145958, -1.41667278677914, 1};
Point(p10 + 15) = {13.34877408252158, -1.498565082521583, 1};
Point(p10 + 16) = {13.26688178677914, -1.59444864145958, 1};
Point(p10 + 17) = {13.20099721433838, -1.701962492152793, 1};
Point(p10 + 18) = {13.15274266203116, -1.81845928677914, 1};
Point(p10 + 19) = {13.12330631708294, -1.941070487624227, 1};
Point(p10 + 20) = {13.113413, -2.066777, 1};
Point(p10 + 21) = {13.12330631708294, -2.192483512375774, 1};
Point(p10 + 22) = {13.15274266203116, -2.31509471322086, 1};
Point(p10 + 23) = {13.20099721433838, -2.431591507847207, 1};
Point(p10 + 24) = {13.26688178677914, -2.53910535854042, 1};
Point(p10 + 25) = {13.34877408252158, -2.634988917478418, 1};
Point(p10 + 26) = {13.44465764145958, -2.71688121322086, 1};
Point(p10 + 27) = {13.55217149215279, -2.782765785661619, 1};
Point(p10 + 28) = {13.66866828677914, -2.831020337968845, 1};
Point(p10 + 29) = {13.79127948762423, -2.860456682917056, 1};
Point(p10 + 30) = {13.916986, -2.87035, 1};
Point(p10 + 31) = {14.04269251237577, -2.860456682917057, 1};
Point(p10 + 32) = {14.16530371322086, -2.831020337968845, 1};
Point(p10 + 33) = {14.28180050784721, -2.78276578566162, 1};
Point(p10 + 34) = {14.38931435854042, -2.71688121322086, 1};
Point(p10 + 35) = {14.48519791747842, -2.634988917478418, 1};
Point(p10 + 36) = {14.56709021322086, -2.53910535854042, 1};
Point(p10 + 37) = {14.63297478566162, -2.431591507847207, 1};
Point(p10 + 38) = {14.68122933796884, -2.31509471322086, 1};
Point(p10 + 39) = {14.71066568291706, -2.192483512375774, 1};
Spline(10) = {8, p10 + 1, p10 + 2, p10 + 3, p10 + 4, p10 + 5, p10 + 6, p10 + 7, p10 + 8, p10 + 9, p10 + 10, p10 + 11, p10 + 12, p10 + 13, p10 + 14, p10 + 15, p10 + 16, p10 + 17, p10 + 18, p10 + 19, p10 + 20, p10 + 21, p10 + 22, p10 + 23, p10 + 24, p10 + 25, p10 + 26, p10 + 27, p10 + 28, p10 + 29, p10 + 30, p10 + 31, p10 + 32, p10 + 33, p10 + 34, p10 + 35, p10 + 36, p10 + 37, p10 + 38, p10 + 39, 8};
p11 = newp;
Point(p11 + 1) = {13.5858747742263, -0.185522702034145, 1};
Point(p11 + 2) = {13.5672541951936, -0.1079624084703099, 1};
Point(p11 + 3) = {13.53672976335586, -0.03426991114389283, 1};
Point(p11 + 4) = {13.49505309152969, 0.03374023608955307, 1};
Point(p11 + 5) = {13.4432503976924, 0.09439339769240224, 1};
Point(p11 + 6) = {13.38259723608955, 0.1461960915296902, 1};
Point(p11 + 7) = {13.31458708885611, 0.1878727633558586, 1};
Point(p11 + 8) = {13.24089459152969, 0.2183971951936036, 1};
Point(p11 + 9) = {13.16333429796586, 0.2370177742262986, 1};
Point(p11 + 10) = {13.083816, 0.243276, 1};
Point(p11 + 11) = {13.00429770203415, 0.2370177742262986, 1};
Point(p11 + 12) = {12.92673740847031, 0.2183971951936036, 1};
Point(p11 + 13) = {12.85304491114389, 0.1878727633558586, 1};
Point(p11 + 14) = {12.78503476391045, 0.1461960915296902, 1};
Point(p11 + 15) = {12.7243816023076, 0.09439339769240229, 1};
Point(p11 + 16) = {12.67257890847031, 0.03374023608955312, 1};
Point(p11 + 17) = {12.63090223664414, -0.03426991114389277, 1};
Point(p11 + 18) = {12.6003778048064, -0.1079624084703098, 1};
Point(p11 + 19) = {12.5817572257737, -0.1855227020341449, 1};
Point(p11 + 20) = {12.575499, -0.265041, 1};
Point(p11 + 21) = {12.5817572257737, -0.344559297965855, 1};
Point(p11 + 22) = {12.6003778048064, -0.4221195915296904, 1};
Point(p11 + 23) = {12.63090223664414, -0.4958120888561069, 1};
Point(p11 + 24) = {12.67257890847031, -0.5638222360895531, 1};
Point(p11 + 25) = {12.7243816023076, -0.6244753976924022, 1};
Point(p11 + 26) = {12.78503476391045, -0.6762780915296902, 1};
Point(p11 + 27) = {12.85304491114389, -0.7179547633558586, 1};
Point(p11 + 28) = {12.92673740847031, -0.7484791951936036, 1};
Point(p11 + 29) = {13.00429770203415, -0.7670997742262986, 1};
Point(p11 + 30) = {13.083816, -0.773358, 1};
Point(p11 + 31) = {13.16333429796586, -0.7670997742262986, 1};
Point(p11 + 32) = {13.24089459152969, -0.7484791951936036, 1};
Point(p11 + 33) = {13.31458708885611, -0.7179547633558587, 1};
Point(p11 + 34) = {13.38259723608955, -0.6762780915296902, 1};
Point(p11 + 35) = {13.4432503976924, -0.6244753976924025, 1};
Point(p11 + 36) = {13.49505309152969, -0.5638222360895533, 1};
Point(p11 + 37) = {13.53672976335586, -0.4958120888561073, 1};
Point(p11 + 38) = {13.5672541951936, -0.4221195915296903, 1};
Point(p11 + 39) = {13.5858747742263, -0.3445592979658552, 1};
Spline(11) = {9, p11 + 1, p11 + 2, p11 + 3, p11 + 4, p11 + 5, p11 + 6, p11 + 7, p11 + 8, p11 + 9, p11 + 10, p11 + 11, p11 + 12, p11 + 13, p11 + 14, p11 + 15, p11 + 16, p11 + 17, p11 + 18, p11 + 19, p11 + 20, p11 + 21, p11 + 22, p11 + 23, p11 + 24, p11 + 25, p11 + 26, p11 + 27, p11 + 28, p11 + 29, p11 + 30, p11 + 31, p11 + 32, p11 + 33, p11 + 34, p11 + 35, p11 + 36, p11 + 37, p11 + 38, p11 + 39, 9};
Line(12) = {4, 10};
Line(13) = {10, 7};
Line(14) = {5, 10};
p15 = newp;
Point(p15 + 1) = {14.71066568291706, -1.941070487624227, 0};
Point(p15 + 2) = {14.68122933796884, -1.81845928677914, 0};
Point(p15 + 3) = {14.63297478566162, -1.701962492152793, 0};
Point(p15 + 4) = {14.56709021322086, -1.594448641459581, 0};
Point(p15 + 5) = {14.48519791747842, -1.498565082521583, 0};
Point(p15 + 6) = {14.38931435854042, -1.41667278677914, 0};
Point(p15 + 7) = {14.28180050784721, -1.350788214338381, 0};
Point(p15 + 8) = {14.16530371322086, -1.302533662031155, 0};
Point(p15 + 9) = {14.04269251237577, -1.273097317082943, 0};
Point(p15 + 10) = {13.916986, -1.263204, 0};
Point(p15 + 11) = {13.79127948762423, -1.273097317082944, 0};
Point(p15 + 12) = {13.66866828677914, -1.302533662031155, 0};
Point(p15 + 13) = {13.55217149215279, -1.350788214338381, 0};
Point(p15 + 14) = {13.44465764145958, -1.41667278677914, 0};
Point(p15 + 15) = {13.34877408252158, -1.498565082521583, 0};
Point(p15 + 16) = {13.26688178677914, -1.59444864145958, 0};
Point(p15 + 17) = {13.20099721433838, -1.701962492152793, 0};
Point(p15 + 18) = {13.15274266203116, -1.81845928677914, 0};
Point(p15 + 19) = {13.12330631708294, -1.941070487624227, 0};
Point(p15 + 20) = {13.113413, -2.066777, 0};
Point(p15 + 21) = {13.12330631708294, -2.192483512375774, 0};
Point(p15 + 22) = {13.15274266203116, -2.31509471322086, 0};
Point(p15 + 23) = {13.20099721433838, -2.431591507847207, 0};
Point(p15 + 24) = {13.26688178677914, -2.53910535854042, 0};
Point(p15 + 25) = {13.34877408252158, -2.634988917478418, 0};
Point(p15 + 26) = {13.44465764145958, -2.71688121322086, 0};
Point(p15 + 27) = {13.55217149215279, -2.782765785661619, 0};
Point(p15 + 28) = {13.66866828677914, -2.831020337968845, 0};
Point(p15 + 29) = {13.79127948762423, -2.860456682917056, 0};
Point(p15 + 30) = {13.916986, -2.87035, 0};
Point(p15 + 31) = {14.04269251237577, -2.860456682917057, 0};
Point(p15 + 32) = {14.16530371322086, -2.831020337968845, 0};
Point(p15 + 33) = {14.28180050784721, -2.78276578566162, 0};
Point(p15 + 34) = {14.38931435854042, -2.71688121322086, 0};
Point(p15 + 35) = {14.48519791747842, -2.634988917478418, 0};
Point(p15 + 36) = {14.56709021322086, -2.53910535854042, 0};
Point(p15 + 37) = {14.63297478566162, -2.431591507847207, 0};
Point(p15 + 38) = {14.68122933796884, -2.31509471322086, 0};
Point(p15 + 39) = {14.71066568291706, -2.192483512375774, 0};
Spline(15) = {11, p15 + 1, p15 + 2, p15 + 3, p15 + 4, p15 + 5, p15 + 6, p15 + 7, p15 + 8, p15 + 9, p15 + 10, p15 + 11, p15 + 12, p15 + 13, p15 + 14, p15 + 15, p15 + 16, p15 + 17, p15 + 18, p15 + 19, p15 + 20, p15 + 21, p15 + 22, p15 + 23, p15 + 24, p15 + 25, p15 + 26, p15 + 27, p15 + 28, p15 + 29, p15 + 30, p15 + 31, p15 + 32, p15 + 33, p15 + 34, p15 + 35, p15 + 36, p15 + 37, p15 + 38, p15 + 39, 11};
p16 = newp;
Point(p16 + 1) = {13.5858747742263, -0.185522702034145, 0};
Point(p16 + 2) = {13.5672541951936, -0.1079624084703099, 0};
Point(p16 + 3) = {13.53672976335586, -0.03426991114389283, 0};
Point(p16 + 4) = {13.49505309152969, 0.03374023608955307, 0};
Point(p16 + 5) = {13.4432503976924, 0.09439339769240224, 0};
Point(p16 + 6) = {13.38259723608955, 0.1461960915296902, 0};
Point(p16 + 7) = {13.31458708885611, 0.1878727633558586, 0};
Point(p16 + 8) = {13.24089459152969, 0.2183971951936036, 0};
Point(p16 + 9) = {13.16333429796586, 0.2370177742262986, 0};
Point(p16 + 10) = {13.083816, 0.243276, 0};
Point(p16 + 11) = {13.00429770203415, 0.2370177742262986, 0};
Point(p16 + 12) = {12.92673740847031, 0.2183971951936036, 0};
Point(p16 + 13) = {12.85304491114389, 0.1878727633558586, 0};
Point(p16 + 14) = {12.78503476391045, 0.1461960915296902, 0};
Point(p16 + 15) = {12.7243816023076, 0.09439339769240229, 0};
Point(p16 + 16) = {12.67257890847031, 0.03374023608955312, 0};
Point(p16 + 17) = {12.63090223664414, -0.03426991114389277, 0};
Point(p16 + 18) = {12.6003778048064, -0.1079624084703098, 0};
Point(p16 + 19) = {12.5817572257737, -0.1855227020341449, 0};
Point(p16 + 20) = {12.575499, -0.265041, 0};
Point(p16 + 21) = {12.5817572257737, -0.344559297965855, 0};
Point(p16 + 22) = {12.6003778048064, -0.4221195915296904, 0};
Point(p16 + 23) = {12.63090223664414, -0.4958120888561069, 0};
Point(p16 + 24) = {12.67257890847031, -0.5638222360895531, 0};
Point(p16 + 25) = {12.7243816023076, -0.6244753976924022, 0};
Point(p16 + 26) = {12.78503476391045, -0.6762780915296902, 0};
Point(p16 + 27) = {12.85304491114389, -0.7179547633558586, 0};
Point(p16 + 28) = {12.92673740847031, -0.7484791951936036, 0};
Point(p16 + 29) = {13.00429770203415, -0.7670997742262986, 0};
Point(p16 + 30) = {13.083816, -0.773358, 0};
Point(p16 + 31) = {13.16333429796586, -0.7670997742262986, 0};
Point(p16 + 32) = {13.24089459152969, -0.7484791951936036, 0};
Point(p16 + 33) = {13.31458708885611, -0.7179547633558587, 0};
Point(p16 + 34) = {13.38259723608955, -0.6762780915296902, 0};
Point(p16 + 35) = {13.4432503976924, -0.6244753976924025, 0};
Point(p16 + 36) = {13.49505309152969, -0.5638222360895533, 0};
Point(p16 + 37) = {13.53672976335586, -0.4958120888561073, 0};
Point(p16 + 38) = {13.5672541951936, -0.4221195915296903, 0};
Point(p16 + 39) = {13.5858747742263, -0.3445592979658552, 0};
Spline(16) = {12, p16 + 1, p16 + 2, p16 + 3, p16 + 4, p16 + 5, p16 + 6, p16 + 7, p16 + 8, p16 + 9, p16 + 10, p16 + 11, p16 + 12, p16 + 13, p16 + 14, p16 + 15, p16 + 16, p16 + 17, p16 + 18, p16 + 19, p16 + 20, p16 + 21, p16 + 22, p16 + 23, p16 + 24, p16 + 25, p16 + 26, p16 + 27, p16 + 28, p16 + 29, p16 + 30, p16 + 31, p16 + 32, p16 + 33, p16 + 34, p16 + 35, p16 + 36, p16 + 37, p16 + 38, p16 + 39, 12};
Line(17) = {11, 8};
Line(18) = {12, 9};
Curve Loop(1) = {-1, 4, 3, -2};
Plane Surface(1) = {1};
Curve Loop(2) = {-5, 1, 7, -6};
Plane Surface(2) = {2};
Curve Loop(3) = {-2, 7, 9, -8, -10, -11};
Plane Surface(3) = {3};
Curve Loop(4) = {-12, 3, 8, -13};
Plane Surface(4) = {4};
Curve Loop(5) = {-4, 5, 14, -12, -15, -16};
Plane Surface(5) = {5};
Curve Loop(6) = {-6, 14, 13, -9};
Plane Surface(6) = {6};
Curve Loop(7) = {-10, -17, 15, 17};
Surface(7) = {7};
Curve Loop(8) = {-11, -18, 16, 18};
Surface(8) = {8};
Surface Loop(1) = {1, 2, 3, 4, 5, 6, 7, 8};
Volume(1) = {1};
Physical Surface("INFLOW") = {1};
Physical Surface("OUTFLOW") = {6};
Physical Surface("OBSTACLE") = {7, 8};
Physical Surface("WALL_Y") = {2, 4};
Physical Surface("WALL_Z") = {3, 5};
Physical Volume("FLUID") = {1};
