cl__1 = 4.004483;
cl__2 = 0.147883;
cl__3 = 0.742275;
cl__4 = 0.090505;
cl__5 = 0.093213;
Point(1) = {0.677139, -3.890537, 1, cl__1};
Point(2) = {0.677139, -3.890537, 0, cl__1};
Point(3) = {0.677139, 4.219244999999999, 1, cl__2};
Point(4) = {0.677139, 4.219244999999999, 0, cl__2};
Point(5) = {39.839004, -3.890537, 0, cl__3};
Point(6) = {39.839004, -3.890537, 1, cl__3};
Point(7) = {39.839004, 4.219244999999999, 1, cl__2};
Point(8) = {39.089244, -2.174593000000001, 1, cl__4};
Point(9) = {8.280509, 1.139253, 1, cl__5};
Point(10) = {39.839004, 4.219244999999999, 0, cl__2};
Point(11) = {39.089244, -2.174593000000001, 0, cl__4};
Point(12) = {8.280509, 1.139253, 0, cl__5};
Line(1) = {2, 1};
Line(2) = {1, 3};
Line(3) = {4, 3};
Line(4) = {2, 4};
Line(5) = {2, 5};
Line(6) = {5, 6};
Line(7) = {1, 6};
Line(8) = {3, 7};
Line(9) = {6, 7};
p10 = newp;
Point(p10 + 1) = {39.07810136959061, -2.033012456718734, 1};
Point(p10 + 2) = {39.04494784690338, -1.894918096291937, 1};
Point(p10 + 3) = {38.99059978169711, -1.763710260182223, 1};
Point(p10 + 4) = {38.91639540370806, -1.642619720768454, 1};
Point(p10 + 5) = {38.82416187099254, -1.534628129007459, 1};
Point(p10 + 6) = {38.71617027923154, -1.442394596291937, 1};
Point(p10 + 7) = {38.59507973981778, -1.36819021830289, 1};
Point(p10 + 8) = {38.46387190370806, -1.31384215309662, 1};
Point(p10 + 9) = {38.32577754328126, -1.280688630409393, 1};
Point(p10 + 10) = {38.184197, -1.269546, 1};
Point(p10 + 11) = {38.04261645671873, -1.280688630409393, 1};
Point(p10 + 12) = {37.90452209629193, -1.31384215309662, 1};
Point(p10 + 13) = {37.77331426018222, -1.36819021830289, 1};
Point(p10 + 14) = {37.65222372076845, -1.442394596291937, 1};
Point(p10 + 15) = {37.54423212900745, -1.534628129007459, 1};
Point(p10 + 16) = {37.45199859629194, -1.642619720768454, 1};
Point(p10 + 17) = {37.37779421830289, -1.763710260182223, 1};
Point(p10 + 18) = {37.32344615309662, -1.894918096291937, 1};
Point(p10 + 19) = {37.29029263040939, -2.033012456718734, 1};
Point(p10 + 20) = {37.27914999999999, -2.174593, 1};
Point(p10 + 21) = {37.29029263040939, -2.316173543281266, 1};
Point(p10 + 22) = {37.32344615309662, -2.454267903708064, 1};
Point(p10 + 23) = {37.37779421830289, -2.585475739817777, 1};
Point(p10 + 24) = {37.45199859629194, -2.706566279231546, 1};
Point(p10 + 25) = {37.54423212900745, -2.814557870992541, 1};
Point(p10 + 26) = {37.65222372076845, -2.906791403708063, 1};
Point(p10 + 27) = {37.77331426018222, -2.98099578169711, 1};
Point(p10 + 28) = {37.90452209629193, -3.03534384690338, 1};
Point(p10 + 29) = {38.04261645671873, -3.068497369590608, 1};
Point(p10 + 30) = {38.184197, -3.07964, 1};
Point(p10 + 31) = {38.32577754328126, -3.068497369590608, 1};
Point(p10 + 32) = {38.46387190370806, -3.03534384690338, 1};
Point(p10 + 33) = {38.59507973981778, -2.98099578169711, 1};
Point(p10 + 34) = {38.71617027923154, -2.906791403708064, 1};
Point(p10 + 35) = {38.82416187099254, -2.814557870992542, 1};
Point(p10 + 36) = {38.91639540370806, -2.706566279231546, 1};
Point(p10 + 37) = {38.99059978169711, -2.585475739817778, 1};
Point(p10 + 38) = {39.04494784690338, -2.454267903708064, 1};
Point(p10 + 39) = {39.07810136959061, -2.316173543281266, 1};
Spline(10) = {8, p10 + 1, p10 + 2, p10 + 3, p10 + 4, p10 + 5, p10 + 6, p10 + 7, p10 + 8, p10 + 9, p10 + 10, p10 + 11, p10 + 12, p10 + 13, p10 + 14, p10 + 15, p10 + 16, p10 + 17, p10 + 18, p10 + 19, p10 + 20, p10 + 21, p10 + 22, p10 + 23, p10 + 24, p10 + 25, p10 + 26, p10 + 27, p10 + 28, p10 + 29, p10 + 30, p10 + 31, p10 + 32, p10 + 33, p10 + 34, p10 + 35, p10 + 36, p10 + 37, p10 + 38, p10 + 39, 8};
p11 = newp;
Point(p11 + 1) = {8.269032883672308, 1.285070883635811, 1};
Point(p11 + 2) = {8.234887114760266, 1.427298247034697, 1};
Point(p11 + 3) = {8.1789124754178, 1.562432980484223, 1};
Point(p11 + 4) = {8.102487247034697, 1.687147618360392, 1};
Point(p11 + 5) = {8.007493272374541, 1.798371272374541, 1};
Point(p11 + 6) = {7.896269618360392, 1.893365247034697, 1};
Point(p11 + 7) = {7.771554980484223, 1.9697904754178, 1};
Point(p11 + 8) = {7.636420247034697, 2.025765114760267, 1};
Point(p11 + 9) = {7.494192883635811, 2.059910883672308, 1};
Point(p11 + 10) = {7.348375, 2.071387, 1};
Point(p11 + 11) = {7.202557116364189, 2.059910883672308, 1};
Point(p11 + 12) = {7.060329752965303, 2.025765114760267, 1};
Point(p11 + 13) = {6.925195019515777, 1.9697904754178, 1};
Point(p11 + 14) = {6.800480381639607, 1.893365247034697, 1};
Point(p11 + 15) = {6.689256727625459, 1.798371272374542, 1};
Point(p11 + 16) = {6.594262752965303, 1.687147618360392, 1};
Point(p11 + 17) = {6.5178375245822, 1.562432980484223, 1};
Point(p11 + 18) = {6.461862885239733, 1.427298247034697, 1};
Point(p11 + 19) = {6.427717116327692, 1.285070883635811, 1};
Point(p11 + 20) = {6.416240999999999, 1.139253, 1};
Point(p11 + 21) = {6.427717116327692, 0.9934351163641897, 1};
Point(p11 + 22) = {6.461862885239733, 0.8512077529653026, 1};
Point(p11 + 23) = {6.5178375245822, 0.7160730195157778, 1};
Point(p11 + 24) = {6.594262752965302, 0.591358381639608, 1};
Point(p11 + 25) = {6.689256727625459, 0.4801347276254588, 1};
Point(p11 + 26) = {6.800480381639607, 0.3851407529653029, 1};
Point(p11 + 27) = {6.925195019515777, 0.3087155245822001, 1};
Point(p11 + 28) = {7.060329752965303, 0.2527408852397334, 1};
Point(p11 + 29) = {7.202557116364189, 0.218595116327692, 1};
Point(p11 + 30) = {7.348375, 0.2071190000000001, 1};
Point(p11 + 31) = {7.49419288363581, 0.2185951163276919, 1};
Point(p11 + 32) = {7.636420247034697, 0.2527408852397333, 1};
Point(p11 + 33) = {7.771554980484223, 0.3087155245822, 1};
Point(p11 + 34) = {7.896269618360392, 0.3851407529653027, 1};
Point(p11 + 35) = {8.007493272374541, 0.4801347276254586, 1};
Point(p11 + 36) = {8.102487247034697, 0.5913583816396077, 1};
Point(p11 + 37) = {8.1789124754178, 0.7160730195157772, 1};
Point(p11 + 38) = {8.234887114760266, 0.8512077529653026, 1};
Point(p11 + 39) = {8.269032883672308, 0.9934351163641892, 1};
Spline(11) = {9, p11 + 1, p11 + 2, p11 + 3, p11 + 4, p11 + 5, p11 + 6, p11 + 7, p11 + 8, p11 + 9, p11 + 10, p11 + 11, p11 + 12, p11 + 13, p11 + 14, p11 + 15, p11 + 16, p11 + 17, p11 + 18, p11 + 19, p11 + 20, p11 + 21, p11 + 22, p11 + 23, p11 + 24, p11 + 25, p11 + 26, p11 + 27, p11 + 28, p11 + 29, p11 + 30, p11 + 31, p11 + 32, p11 + 33, p11 + 34, p11 + 35, p11 + 36, p11 + 37, p11 + 38, p11 + 39, 9};
Line(12) = {4, 10};
Line(13) = {10, 7};
Line(14) = {5, 10};
p15 = newp;
Point(p15 + 1) = {39.07810136959061, -2.033012456718734, 0};
Point(p15 + 2) = {39.04494784690338, -1.894918096291937, 0};
Point(p15 + 3) = {38.99059978169711, -1.763710260182223, 0};
Point(p15 + 4) = {38.91639540370806, -1.642619720768454, 0};
Point(p15 + 5) = {38.82416187099254, -1.534628129007459, 0};
Point(p15 + 6) = {38.71617027923154, -1.442394596291937, 0};
Point(p15 + 7) = {38.59507973981778, -1.36819021830289, 0};
Point(p15 + 8) = {38.46387190370806, -1.31384215309662, 0};
Point(p15 + 9) = {38.32577754328126, -1.280688630409393, 0};
Point(p15 + 10) = {38.184197, -1.269546, 0};
Point(p15 + 11) = {38.04261645671873, -1.280688630409393, 0};
Point(p15 + 12) = {37.90452209629193, -1.31384215309662, 0};
Point(p15 + 13) = {37.77331426018222, -1.36819021830289, 0};
Point(p15 + 14) = {37.65222372076845, -1.442394596291937, 0};
Point(p15 + 15) = {37.54423212900745, -1.534628129007459, 0};
Point(p15 + 16) = {37.45199859629194, -1.642619720768454, 0};
Point(p15 + 17) = {37.37779421830289, -1.763710260182223, 0};
Point(p15 + 18) = {37.32344615309662, -1.894918096291937, 0};
Point(p15 + 19) = {37.29029263040939, -2.033012456718734, 0};
Point(p15 + 20) = {37.27914999999999, -2.174593, 0};
Point(p15 + 21) = {37.29029263040939, -2.316173543281266, 0};
Point(p15 + 22) = {37.32344615309662, -2.454267903708064, 0};
Point(p15 + 23) = {37.37779421830289, -2.585475739817777, 0};
Point(p15 + 24) = {37.45199859629194, -2.706566279231546, 0};
Point(p15 + 25) = {37.54423212900745, -2.814557870992541, 0};
Point(p15 + 26) = {37.65222372076845, -2.906791403708063, 0};
Point(p15 + 27) = {37.77331426018222, -2.98099578169711, 0};
Point(p15 + 28) = {37.90452209629193, -3.03534384690338, 0};
Point(p15 + 29) = {38.04261645671873, -3.068497369590608, 0};
Point(p15 + 30) = {38.184197, -3.07964, 0};
Point(p15 + 31) = {38.32577754328126, -3.068497369590608, 0};
Point(p15 + 32) = {38.46387190370806, -3.03534384690338, 0};
Point(p15 + 33) = {38.59507973981778, -2.98099578169711, 0};
Point(p15 + 34) = {38.71617027923154, -2.906791403708064, 0};
Point(p15 + 35) = {38.82416187099254, -2.814557870992542, 0};
Point(p15 + 36) = {38.91639540370806, -2.706566279231546, 0};
Point(p15 + 37) = {38.99059978169711, -2.585475739817778, 0};
Point(p15 + 38) = {39.04494784690338, -2.454267903708064, 0};
Point(p15 + 39) = {39.07810136959061, -2.316173543281266, 0};
Spline(15) = {11, p15 + 1, p15 + 2, p15 + 3, p15 + 4, p15 + 5, p15 + 6, p15 + 7, p15 + 8, p15 + 9, p15 + 10, p15 + 11, p15 + 12, p15 + 13, p15 + 14, p15 + 15, p15 + 16, p15 + 17, p15 + 18, p15 + 19, p15 + 20, p15 + 21, p15 + 22, p15 + 23, p15 + 24, p15 + 25, p15 + 26, p15 + 27, p15 + 28, p15 + 29, p15 + 30, p15 + 31, p15 + 32, p15 + 33, p15 + 34, p15 + 35, p15 + 36, p15 + 37, p15 + 38, p15 + 39, 11};
p16 = newp;
Point(p16 + 1) = {8.269032883672308, 1.285070883635811, 0};
Point(p16 + 2) = {8.234887114760266, 1.427298247034697, 0};
Point(p16 + 3) = {8.1789124754178, 1.562432980484223, 0};
Point(p16 + 4) = {8.102487247034697, 1.687147618360392, 0};
Point(p16 + 5) = {8.007493272374541, 1.798371272374541, 0};
Point(p16 + 6) = {7.896269618360392, 1.893365247034697, 0};
Point(p16 + 7) = {7.771554980484223, 1.9697904754178, 0};
Point(p16 + 8) = {7.636420247034697, 2.025765114760267, 0};
Point(p16 + 9) = {7.494192883635811, 2.059910883672308, 0};
Point(p16 + 10) = {7.348375, 2.071387, 0};
Point(p16 + 11) = {7.202557116364189, 2.059910883672308, 0};
Point(p16 + 12) = {7.060329752965303, 2.025765114760267, 0};
Point(p16 + 13) = {6.925195019515777, 1.9697904754178, 0};
Point(p16 + 14) = {6.800480381639607, 1.893365247034697, 0};
Point(p16 + 15) = {6.689256727625459, 1.798371272374542, 0};
Point(p16 + 16) = {6.594262752965303, 1.687147618360392, 0};
Point(p16 + 17) = {6.5178375245822, 1.562432980484223, 0};
Point(p16 + 18) = {6.461862885239733, 1.427298247034697, 0};
Point(p16 + 19) = {6.427717116327692, 1.285070883635811, 0};
Point(p16 + 20) = {6.416240999999999, 1.139253, 0};
Point(p16 + 21) = {6.427717116327692, 0.9934351163641897, 0};
Point(p16 + 22) = {6.461862885239733, 0.8512077529653026, 0};
Point(p16 + 23) = {6.5178375245822, 0.7160730195157778, 0};
Point(p16 + 24) = {6.594262752965302, 0.591358381639608, 0};
Point(p16 + 25) = {6.689256727625459, 0.4801347276254588, 0};
Point(p16 + 26) = {6.800480381639607, 0.3851407529653029, 0};
Point(p16 + 27) = {6.925195019515777, 0.3087155245822001, 0};
Point(p16 + 28) = {7.060329752965303, 0.2527408852397334, 0};
Point(p16 + 29) = {7.202557116364189, 0.218595116327692, 0};
Point(p16 + 30) = {7.348375, 0.2071190000000001, 0};
Point(p16 + 31) = {7.49419288363581, 0.2185951163276919, 0};
Point(p16 + 32) = {7.636420247034697, 0.2527408852397333, 0};
Point(p16 + 33) = {7.771554980484223, 0.3087155245822, 0};
Point(p16 + 34) = {7.896269618360392, 0.3851407529653027, 0};
Point(p16 + 35) = {8.007493272374541, 0.4801347276254586, 0};
Point(p16 + 36) = {8.102487247034697, 0.5913583816396077, 0};
Point(p16 + 37) = {8.1789124754178, 0.7160730195157772, 0};
Point(p16 + 38) = {8.234887114760266, 0.8512077529653026, 0};
Point(p16 + 39) = {8.269032883672308, 0.9934351163641892, 0};
Spline(16) = {12, p16 + 1, p16 + 2, p16 + 3, p16 + 4, p16 + 5, p16 + 6, p16 + 7, p16 + 8, p16 + 9, p16 + 10, p16 + 11, p16 + 12, p16 + 13, p16 + 14, p16 + 15, p16 + 16, p16 + 17, p16 + 18, p16 + 19, p16 + 20, p16 + 21, p16 + 22, p16 + 23, p16 + 24, p16 + 25, p16 + 26, p16 + 27, p16 + 28, p16 + 29, p16 + 30, p16 + 31, p16 + 32, p16 + 33, p16 + 34, p16 + 35, p16 + 36, p16 + 37, p16 + 38, p16 + 39, 12};
Line(17) = {11, 8};
Line(18) = {12, 9};
Curve Loop(1) = {-1, 4, 3, -2};
Plane Surface(1) = {1};
Curve Loop(2) = {-5, 1, 7, -6};
Plane Surface(2) = {2};
Curve Loop(3) = {-2, 7, 9, -8, -10, -11};
Plane Surface(3) = {3};
Curve Loop(4) = {-12, 3, 8, -13};
Plane Surface(4) = {4};
Curve Loop(5) = {-4, 5, 14, -12, -15, -16};
Plane Surface(5) = {5};
Curve Loop(6) = {-6, 14, 13, -9};
Plane Surface(6) = {6};
Curve Loop(7) = {-10, -17, 15, 17};
Surface(7) = {7};
Curve Loop(8) = {-11, -18, 16, 18};
Surface(8) = {8};
Surface Loop(1) = {1, 2, 3, 4, 5, 6, 7, 8};
Volume(1) = {1};
Physical Surface("INFLOW") = {1};
Physical Surface("OUTFLOW") = {6};
Physical Surface("OBSTACLE") = {7, 8};
Physical Surface("WALL_Y") = {2, 4};
Physical Surface("WALL_Z") = {3, 5};
Physical Volume("FLUID") = {1};
