cl__1 = 0.374295;
cl__2 = 0.501436;
cl__3 = 1.078982;
cl__4 = 0.930797;
cl__5 = 0.066908;
cl__6 = 0.106371;
Point(1) = {0.733815, -4.326763, 1, cl__1};
Point(2) = {0.733815, -4.326763, 0, cl__1};
Point(3) = {0.733815, 5.168795000000001, 1, cl__2};
Point(4) = {0.733815, 5.168795000000001, 0, cl__2};
Point(5) = {39.605813, -4.326763, 0, cl__3};
Point(6) = {39.605813, -4.326763, 1, cl__3};
Point(7) = {39.605813, 5.168795000000001, 1, cl__4};
Point(8) = {3.101579, -0.2548560000000002, 1, cl__5};
Point(9) = {30.745303, 2.155222999999999, 1, cl__6};
Point(10) = {39.605813, 5.168795000000001, 0, cl__4};
Point(11) = {3.101579, -0.2548560000000002, 0, cl__5};
Point(12) = {30.745303, 2.155222999999999, 0, cl__6};
Line(1) = {2, 1};
Line(2) = {1, 3};
Line(3) = {4, 3};
Line(4) = {2, 4};
Line(5) = {2, 5};
Line(6) = {5, 6};
Line(7) = {1, 6};
Line(8) = {3, 7};
Line(9) = {6, 7};
p10 = newp;
Point(p10 + 1) = {3.093341527237054, -0.1501889845653474, 1};
Point(p10 + 2) = {3.068831942866245, -0.04809921842060461, 1};
Point(p10 + 3) = {3.028653754197429, 0.04889950957523614, 1};
Point(p10 + 4) = {2.973796281579395, 0.1384187688185956, 1};
Point(p10 + 5) = {2.905610298049514, 0.218254298049514, 1};
Point(p10 + 6) = {2.825774768818596, 0.2864402815793954, 1};
Point(p10 + 7) = {2.736255509575236, 0.3412977541974289, 1};
Point(p10 + 8) = {2.639256781579395, 0.381475942866245, 1};
Point(p10 + 9) = {2.537167015434653, 0.4059855272370541, 1};
Point(p10 + 10) = {2.4325, 0.414223, 1};
Point(p10 + 11) = {2.327832984565347, 0.4059855272370541, 1};
Point(p10 + 12) = {2.225743218420605, 0.381475942866245, 1};
Point(p10 + 13) = {2.128744490424764, 0.341297754197429, 1};
Point(p10 + 14) = {2.039225231181405, 0.2864402815793954, 1};
Point(p10 + 15) = {1.959389701950486, 0.218254298049514, 1};
Point(p10 + 16) = {1.891203718420605, 0.1384187688185957, 1};
Point(p10 + 17) = {1.836346245802571, 0.04889950957523626, 1};
Point(p10 + 18) = {1.796168057133755, -0.04809921842060452, 1};
Point(p10 + 19) = {1.771658472762946, -0.1501889845653473, 1};
Point(p10 + 20) = {1.763421, -0.254856, 1};
Point(p10 + 21) = {1.771658472762946, -0.3595230154346526, 1};
Point(p10 + 22) = {1.796168057133755, -0.4616127815793957, 1};
Point(p10 + 23) = {1.836346245802571, -0.5586115095752359, 1};
Point(p10 + 24) = {1.891203718420605, -0.6481307688185955, 1};
Point(p10 + 25) = {1.959389701950486, -0.7279662980495141, 1};
Point(p10 + 26) = {2.039225231181404, -0.7961522815793953, 1};
Point(p10 + 27) = {2.128744490424764, -0.8510097541974289, 1};
Point(p10 + 28) = {2.225743218420605, -0.891187942866245, 1};
Point(p10 + 29) = {2.327832984565347, -0.9156975272370542, 1};
Point(p10 + 30) = {2.4325, -0.923935, 1};
Point(p10 + 31) = {2.537167015434652, -0.9156975272370542, 1};
Point(p10 + 32) = {2.639256781579395, -0.891187942866245, 1};
Point(p10 + 33) = {2.736255509575236, -0.8510097541974291, 1};
Point(p10 + 34) = {2.825774768818595, -0.7961522815793955, 1};
Point(p10 + 35) = {2.905610298049514, -0.7279662980495141, 1};
Point(p10 + 36) = {2.973796281579395, -0.6481307688185958, 1};
Point(p10 + 37) = {3.028653754197429, -0.5586115095752364, 1};
Point(p10 + 38) = {3.068831942866245, -0.4616127815793956, 1};
Point(p10 + 39) = {3.093341527237054, -0.3595230154346528, 1};
Spline(10) = {8, p10 + 1, p10 + 2, p10 + 3, p10 + 4, p10 + 5, p10 + 6, p10 + 7, p10 + 8, p10 + 9, p10 + 10, p10 + 11, p10 + 12, p10 + 13, p10 + 14, p10 + 15, p10 + 16, p10 + 17, p10 + 18, p10 + 19, p10 + 20, p10 + 21, p10 + 22, p10 + 23, p10 + 24, p10 + 25, p10 + 26, p10 + 27, p10 + 28, p10 + 29, p10 + 30, p10 + 31, p10 + 32, p10 + 33, p10 + 34, p10 + 35, p10 + 36, p10 + 37, p10 + 38, p10 + 39, 8};
p11 = newp;
Point(p11 + 1) = {30.73220701402109, 2.321623279070084, 1};
Point(p11 + 2) = {30.69324152272225, 2.483926231018598, 1};
Point(p11 + 3) = {30.62936598581831, 2.638135418515954, 1};
Point(p11 + 4) = {30.5421532310186, 2.780453699575017, 1};
Point(p11 + 5) = {30.43375072578882, 2.907376725788818, 1};
Point(p11 + 6) = {30.30682769957502, 3.015779231018598, 1};
Point(p11 + 7) = {30.16450941851596, 3.102991985818312, 1};
Point(p11 + 8) = {30.0103002310186, 3.166867522722252, 1};
Point(p11 + 9) = {29.84799727907009, 3.205833014021092, 1};
Point(p11 + 10) = {29.681597, 3.218929, 1};
Point(p11 + 11) = {29.51519672092991, 3.205833014021091, 1};
Point(p11 + 12) = {29.3528937689814, 3.166867522722253, 1};
Point(p11 + 13) = {29.19868458148404, 3.102991985818312, 1};
Point(p11 + 14) = {29.05636630042498, 3.015779231018598, 1};
Point(p11 + 15) = {28.92944327421118, 2.907376725788818, 1};
Point(p11 + 16) = {28.8210407689814, 2.780453699575018, 1};
Point(p11 + 17) = {28.73382801418169, 2.638135418515954, 1};
Point(p11 + 18) = {28.66995247727775, 2.483926231018598, 1};
Point(p11 + 19) = {28.63098698597891, 2.321623279070084, 1};
Point(p11 + 20) = {28.617891, 2.155223, 1};
Point(p11 + 21) = {28.63098698597891, 1.988822720929916, 1};
Point(p11 + 22) = {28.66995247727775, 1.826519768981402, 1};
Point(p11 + 23) = {28.73382801418169, 1.672310581484046, 1};
Point(p11 + 24) = {28.8210407689814, 1.529992300424983, 1};
Point(p11 + 25) = {28.92944327421118, 1.403069274211182, 1};
Point(p11 + 26) = {29.05636630042498, 1.294666768981402, 1};
Point(p11 + 27) = {29.19868458148404, 1.207454014181688, 1};
Point(p11 + 28) = {29.3528937689814, 1.143578477277747, 1};
Point(p11 + 29) = {29.51519672092991, 1.104612985978908, 1};
Point(p11 + 30) = {29.681597, 1.091517, 1};
Point(p11 + 31) = {29.84799727907008, 1.104612985978908, 1};
Point(p11 + 32) = {30.0103002310186, 1.143578477277747, 1};
Point(p11 + 33) = {30.16450941851596, 1.207454014181688, 1};
Point(p11 + 34) = {30.30682769957502, 1.294666768981402, 1};
Point(p11 + 35) = {30.43375072578882, 1.403069274211182, 1};
Point(p11 + 36) = {30.5421532310186, 1.529992300424982, 1};
Point(p11 + 37) = {30.62936598581831, 1.672310581484045, 1};
Point(p11 + 38) = {30.69324152272225, 1.826519768981402, 1};
Point(p11 + 39) = {30.73220701402109, 1.988822720929916, 1};
Spline(11) = {9, p11 + 1, p11 + 2, p11 + 3, p11 + 4, p11 + 5, p11 + 6, p11 + 7, p11 + 8, p11 + 9, p11 + 10, p11 + 11, p11 + 12, p11 + 13, p11 + 14, p11 + 15, p11 + 16, p11 + 17, p11 + 18, p11 + 19, p11 + 20, p11 + 21, p11 + 22, p11 + 23, p11 + 24, p11 + 25, p11 + 26, p11 + 27, p11 + 28, p11 + 29, p11 + 30, p11 + 31, p11 + 32, p11 + 33, p11 + 34, p11 + 35, p11 + 36, p11 + 37, p11 + 38, p11 + 39, 9};
Line(12) = {4, 10};
Line(13) = {10, 7};
Line(14) = {5, 10};
p15 = newp;
Point(p15 + 1) = {3.093341527237054, -0.1501889845653474, 0};
Point(p15 + 2) = {3.068831942866245, -0.04809921842060461, 0};
Point(p15 + 3) = {3.028653754197429, 0.04889950957523614, 0};
Point(p15 + 4) = {2.973796281579395, 0.1384187688185956, 0};
Point(p15 + 5) = {2.905610298049514, 0.218254298049514, 0};
Point(p15 + 6) = {2.825774768818596, 0.2864402815793954, 0};
Point(p15 + 7) = {2.736255509575236, 0.3412977541974289, 0};
Point(p15 + 8) = {2.639256781579395, 0.381475942866245, 0};
Point(p15 + 9) = {2.537167015434653, 0.4059855272370541, 0};
Point(p15 + 10) = {2.4325, 0.414223, 0};
Point(p15 + 11) = {2.327832984565347, 0.4059855272370541, 0};
Point(p15 + 12) = {2.225743218420605, 0.381475942866245, 0};
Point(p15 + 13) = {2.128744490424764, 0.341297754197429, 0};
Point(p15 + 14) = {2.039225231181405, 0.2864402815793954, 0};
Point(p15 + 15) = {1.959389701950486, 0.218254298049514, 0};
Point(p15 + 16) = {1.891203718420605, 0.1384187688185957, 0};
Point(p15 + 17) = {1.836346245802571, 0.04889950957523626, 0};
Point(p15 + 18) = {1.796168057133755, -0.04809921842060452, 0};
Point(p15 + 19) = {1.771658472762946, -0.1501889845653473, 0};
Point(p15 + 20) = {1.763421, -0.254856, 0};
Point(p15 + 21) = {1.771658472762946, -0.3595230154346526, 0};
Point(p15 + 22) = {1.796168057133755, -0.4616127815793957, 0};
Point(p15 + 23) = {1.836346245802571, -0.5586115095752359, 0};
Point(p15 + 24) = {1.891203718420605, -0.6481307688185955, 0};
Point(p15 + 25) = {1.959389701950486, -0.7279662980495141, 0};
Point(p15 + 26) = {2.039225231181404, -0.7961522815793953, 0};
Point(p15 + 27) = {2.128744490424764, -0.8510097541974289, 0};
Point(p15 + 28) = {2.225743218420605, -0.891187942866245, 0};
Point(p15 + 29) = {2.327832984565347, -0.9156975272370542, 0};
Point(p15 + 30) = {2.4325, -0.923935, 0};
Point(p15 + 31) = {2.537167015434652, -0.9156975272370542, 0};
Point(p15 + 32) = {2.639256781579395, -0.891187942866245, 0};
Point(p15 + 33) = {2.736255509575236, -0.8510097541974291, 0};
Point(p15 + 34) = {2.825774768818595, -0.7961522815793955, 0};
Point(p15 + 35) = {2.905610298049514, -0.7279662980495141, 0};
Point(p15 + 36) = {2.973796281579395, -0.6481307688185958, 0};
Point(p15 + 37) = {3.028653754197429, -0.5586115095752364, 0};
Point(p15 + 38) = {3.068831942866245, -0.4616127815793956, 0};
Point(p15 + 39) = {3.093341527237054, -0.3595230154346528, 0};
Spline(15) = {11, p15 + 1, p15 + 2, p15 + 3, p15 + 4, p15 + 5, p15 + 6, p15 + 7, p15 + 8, p15 + 9, p15 + 10, p15 + 11, p15 + 12, p15 + 13, p15 + 14, p15 + 15, p15 + 16, p15 + 17, p15 + 18, p15 + 19, p15 + 20, p15 + 21, p15 + 22, p15 + 23, p15 + 24, p15 + 25, p15 + 26, p15 + 27, p15 + 28, p15 + 29, p15 + 30, p15 + 31, p15 + 32, p15 + 33, p15 + 34, p15 + 35, p15 + 36, p15 + 37, p15 + 38, p15 + 39, 11};
p16 = newp;
Point(p16 + 1) = {30.73220701402109, 2.321623279070084, 0};
Point(p16 + 2) = {30.69324152272225, 2.483926231018598, 0};
Point(p16 + 3) = {30.62936598581831, 2.638135418515954, 0};
Point(p16 + 4) = {30.5421532310186, 2.780453699575017, 0};
Point(p16 + 5) = {30.43375072578882, 2.907376725788818, 0};
Point(p16 + 6) = {30.30682769957502, 3.015779231018598, 0};
Point(p16 + 7) = {30.16450941851596, 3.102991985818312, 0};
Point(p16 + 8) = {30.0103002310186, 3.166867522722252, 0};
Point(p16 + 9) = {29.84799727907009, 3.205833014021092, 0};
Point(p16 + 10) = {29.681597, 3.218929, 0};
Point(p16 + 11) = {29.51519672092991, 3.205833014021091, 0};
Point(p16 + 12) = {29.3528937689814, 3.166867522722253, 0};
Point(p16 + 13) = {29.19868458148404, 3.102991985818312, 0};
Point(p16 + 14) = {29.05636630042498, 3.015779231018598, 0};
Point(p16 + 15) = {28.92944327421118, 2.907376725788818, 0};
Point(p16 + 16) = {28.8210407689814, 2.780453699575018, 0};
Point(p16 + 17) = {28.73382801418169, 2.638135418515954, 0};
Point(p16 + 18) = {28.66995247727775, 2.483926231018598, 0};
Point(p16 + 19) = {28.63098698597891, 2.321623279070084, 0};
Point(p16 + 20) = {28.617891, 2.155223, 0};
Point(p16 + 21) = {28.63098698597891, 1.988822720929916, 0};
Point(p16 + 22) = {28.66995247727775, 1.826519768981402, 0};
Point(p16 + 23) = {28.73382801418169, 1.672310581484046, 0};
Point(p16 + 24) = {28.8210407689814, 1.529992300424983, 0};
Point(p16 + 25) = {28.92944327421118, 1.403069274211182, 0};
Point(p16 + 26) = {29.05636630042498, 1.294666768981402, 0};
Point(p16 + 27) = {29.19868458148404, 1.207454014181688, 0};
Point(p16 + 28) = {29.3528937689814, 1.143578477277747, 0};
Point(p16 + 29) = {29.51519672092991, 1.104612985978908, 0};
Point(p16 + 30) = {29.681597, 1.091517, 0};
Point(p16 + 31) = {29.84799727907008, 1.104612985978908, 0};
Point(p16 + 32) = {30.0103002310186, 1.143578477277747, 0};
Point(p16 + 33) = {30.16450941851596, 1.207454014181688, 0};
Point(p16 + 34) = {30.30682769957502, 1.294666768981402, 0};
Point(p16 + 35) = {30.43375072578882, 1.403069274211182, 0};
Point(p16 + 36) = {30.5421532310186, 1.529992300424982, 0};
Point(p16 + 37) = {30.62936598581831, 1.672310581484045, 0};
Point(p16 + 38) = {30.69324152272225, 1.826519768981402, 0};
Point(p16 + 39) = {30.73220701402109, 1.988822720929916, 0};
Spline(16) = {12, p16 + 1, p16 + 2, p16 + 3, p16 + 4, p16 + 5, p16 + 6, p16 + 7, p16 + 8, p16 + 9, p16 + 10, p16 + 11, p16 + 12, p16 + 13, p16 + 14, p16 + 15, p16 + 16, p16 + 17, p16 + 18, p16 + 19, p16 + 20, p16 + 21, p16 + 22, p16 + 23, p16 + 24, p16 + 25, p16 + 26, p16 + 27, p16 + 28, p16 + 29, p16 + 30, p16 + 31, p16 + 32, p16 + 33, p16 + 34, p16 + 35, p16 + 36, p16 + 37, p16 + 38, p16 + 39, 12};
Line(17) = {11, 8};
Line(18) = {12, 9};
Curve Loop(1) = {-1, 4, 3, -2};
Plane Surface(1) = {1};
Curve Loop(2) = {-5, 1, 7, -6};
Plane Surface(2) = {2};
Curve Loop(3) = {-2, 7, 9, -8, -10, -11};
Plane Surface(3) = {3};
Curve Loop(4) = {-12, 3, 8, -13};
Plane Surface(4) = {4};
Curve Loop(5) = {-4, 5, 14, -12, -15, -16};
Plane Surface(5) = {5};
Curve Loop(6) = {-6, 14, 13, -9};
Plane Surface(6) = {6};
Curve Loop(7) = {-10, -17, 15, 17};
Surface(7) = {7};
Curve Loop(8) = {-11, -18, 16, 18};
Surface(8) = {8};
Surface Loop(1) = {1, 2, 3, 4, 5, 6, 7, 8};
Volume(1) = {1};
Physical Surface("INFLOW") = {1};
Physical Surface("OUTFLOW") = {6};
Physical Surface("OBSTACLE") = {7, 8};
Physical Surface("WALL_Y") = {2, 4};
Physical Surface("WALL_Z") = {3, 5};
Physical Volume("FLUID") = {1};
