cl__1 = 3.024945;
cl__2 = 0.214446;
cl__3 = 0.512138;
cl__4 = 0.055428;
cl__5 = 0.08046;
Point(1) = {0.412339, -3.306488, 1, cl__1};
Point(2) = {0.412339, -3.306488, 0, cl__1};
Point(3) = {0.412339, 4.420751, 1, cl__1};
Point(4) = {0.412339, 4.420751, 0, cl__1};
Point(5) = {30.001698, -3.306488, 0, cl__2};
Point(6) = {30.001698, -3.306488, 1, cl__2};
Point(7) = {30.001698, 4.420751, 1, cl__3};
Point(8) = {29.066542, -1.055985, 1, cl__4};
Point(9) = {18.931722, 0.9200529999999998, 1, cl__5};
Point(10) = {30.001698, 4.420751, 0, cl__3};
Point(11) = {29.066542, -1.055985, 0, cl__4};
Point(12) = {18.931722, 0.9200529999999998, 0, cl__5};
Line(1) = {2, 1};
Line(2) = {1, 3};
Line(3) = {4, 3};
Line(4) = {2, 4};
Line(5) = {2, 5};
Line(6) = {5, 6};
Line(7) = {1, 6};
Line(8) = {3, 7};
Line(9) = {6, 7};
p10 = newp;
Point(p10 + 1) = {29.05971795498337, -0.969277286889826, 1};
Point(p10 + 2) = {29.0394138505695, -0.884704605442826, 1};
Point(p10 + 3) = {29.00612964119451, -0.8043494157568627, 1};
Point(p10 + 4) = {28.96068489455718, -0.7301903292855894, 1};
Point(p10 + 5) = {28.90419861114217, -0.6640533888578264, 1};
Point(p10 + 6) = {28.83806167071441, -0.607567105442826, 1};
Point(p10 + 7) = {28.76390258424314, -0.5621223588054924, 1};
Point(p10 + 8) = {28.68354739455718, -0.5288381494305038, 1};
Point(p10 + 9) = {28.59897471311017, -0.50853404501663, 1};
Point(p10 + 10) = {28.512267, -0.50171, 1};
Point(p10 + 11) = {28.42555928688983, -0.50853404501663, 1};
Point(p10 + 12) = {28.34098660544283, -0.5288381494305037, 1};
Point(p10 + 13) = {28.26063141575687, -0.5621223588054924, 1};
Point(p10 + 14) = {28.18647232928559, -0.607567105442826, 1};
Point(p10 + 15) = {28.12033538885783, -0.6640533888578264, 1};
Point(p10 + 16) = {28.06384910544283, -0.7301903292855894, 1};
Point(p10 + 17) = {28.01840435880549, -0.8043494157568627, 1};
Point(p10 + 18) = {27.9851201494305, -0.8847046054428259, 1};
Point(p10 + 19) = {27.96481604501663, -0.969277286889826, 1};
Point(p10 + 20) = {27.957992, -1.055985, 1};
Point(p10 + 21) = {27.96481604501663, -1.142692713110174, 1};
Point(p10 + 22) = {27.9851201494305, -1.227265394557174, 1};
Point(p10 + 23) = {28.01840435880549, -1.307620584243137, 1};
Point(p10 + 24) = {28.06384910544283, -1.381779670714411, 1};
Point(p10 + 25) = {28.12033538885783, -1.447916611142174, 1};
Point(p10 + 26) = {28.18647232928559, -1.504402894557174, 1};
Point(p10 + 27) = {28.26063141575687, -1.549847641194507, 1};
Point(p10 + 28) = {28.34098660544283, -1.583131850569496, 1};
Point(p10 + 29) = {28.42555928688983, -1.60343595498337, 1};
Point(p10 + 30) = {28.512267, -1.61026, 1};
Point(p10 + 31) = {28.59897471311017, -1.60343595498337, 1};
Point(p10 + 32) = {28.68354739455717, -1.583131850569496, 1};
Point(p10 + 33) = {28.76390258424314, -1.549847641194507, 1};
Point(p10 + 34) = {28.83806167071441, -1.504402894557174, 1};
Point(p10 + 35) = {28.90419861114217, -1.447916611142174, 1};
Point(p10 + 36) = {28.96068489455718, -1.381779670714411, 1};
Point(p10 + 37) = {29.00612964119451, -1.307620584243137, 1};
Point(p10 + 38) = {29.0394138505695, -1.227265394557174, 1};
Point(p10 + 39) = {29.05971795498337, -1.142692713110174, 1};
Spline(10) = {8, p10 + 1, p10 + 2, p10 + 3, p10 + 4, p10 + 5, p10 + 6, p10 + 7, p10 + 8, p10 + 9, p10 + 10, p10 + 11, p10 + 12, p10 + 13, p10 + 14, p10 + 15, p10 + 16, p10 + 17, p10 + 18, p10 + 19, p10 + 20, p10 + 21, p10 + 22, p10 + 23, p10 + 24, p10 + 25, p10 + 26, p10 + 27, p10 + 28, p10 + 29, p10 + 30, p10 + 31, p10 + 32, p10 + 33, p10 + 34, p10 + 35, p10 + 36, p10 + 37, p10 + 38, p10 + 39, 8};
p11 = newp;
Point(p11 + 1) = {18.92181606346616, 1.04591985770244, 1};
Point(p11 + 2) = {18.89234217089805, 1.168687455640094, 1};
Point(p11 + 3) = {18.84402606734891, 1.28533284810944, 1};
Point(p11 + 4) = {18.77805745564009, 1.392983838424019, 1};
Point(p11 + 5) = {18.69606070192913, 1.488989701929134, 1};
Point(p11 + 6) = {18.60005483842402, 1.570986455640094, 1};
Point(p11 + 7) = {18.49240384810944, 1.636955067348912, 1};
Point(p11 + 8) = {18.37575845564009, 1.685271170898048, 1};
Point(p11 + 9) = {18.25299085770244, 1.714745063466167, 1};
Point(p11 + 10) = {18.127124, 1.724651, 1};
Point(p11 + 11) = {18.00125714229756, 1.714745063466167, 1};
Point(p11 + 12) = {17.8784895443599, 1.685271170898048, 1};
Point(p11 + 13) = {17.76184415189056, 1.636955067348913, 1};
Point(p11 + 14) = {17.65419316157598, 1.570986455640094, 1};
Point(p11 + 15) = {17.55818729807087, 1.488989701929134, 1};
Point(p11 + 16) = {17.47619054435991, 1.392983838424019, 1};
Point(p11 + 17) = {17.41022193265109, 1.28533284810944, 1};
Point(p11 + 18) = {17.36190582910195, 1.168687455640094, 1};
Point(p11 + 19) = {17.33243193653383, 1.04591985770244, 1};
Point(p11 + 20) = {17.322526, 0.9200530000000001, 1};
Point(p11 + 21) = {17.33243193653383, 0.7941861422975605, 1};
Point(p11 + 22) = {17.36190582910195, 0.6714185443599058, 1};
Point(p11 + 23) = {17.41022193265109, 0.5547731518905605, 1};
Point(p11 + 24) = {17.47619054435991, 0.4471221615759808, 1};
Point(p11 + 25) = {17.55818729807087, 0.3511162980708663, 1};
Point(p11 + 26) = {17.65419316157598, 0.2691195443599061, 1};
Point(p11 + 27) = {17.76184415189056, 0.2031509326510876, 1};
Point(p11 + 28) = {17.8784895443599, 0.154834829101952, 1};
Point(p11 + 29) = {18.00125714229756, 0.1253609365338334, 1};
Point(p11 + 30) = {18.127124, 0.115455, 1};
Point(p11 + 31) = {18.25299085770244, 0.1253609365338333, 1};
Point(p11 + 32) = {18.37575845564009, 0.1548348291019519, 1};
Point(p11 + 33) = {18.49240384810944, 0.2031509326510875, 1};
Point(p11 + 34) = {18.60005483842402, 0.2691195443599059, 1};
Point(p11 + 35) = {18.69606070192913, 0.3511162980708661, 1};
Point(p11 + 36) = {18.77805745564009, 0.4471221615759805, 1};
Point(p11 + 37) = {18.84402606734891, 0.55477315189056, 1};
Point(p11 + 38) = {18.89234217089805, 0.6714185443599059, 1};
Point(p11 + 39) = {18.92181606346616, 0.7941861422975601, 1};
Spline(11) = {9, p11 + 1, p11 + 2, p11 + 3, p11 + 4, p11 + 5, p11 + 6, p11 + 7, p11 + 8, p11 + 9, p11 + 10, p11 + 11, p11 + 12, p11 + 13, p11 + 14, p11 + 15, p11 + 16, p11 + 17, p11 + 18, p11 + 19, p11 + 20, p11 + 21, p11 + 22, p11 + 23, p11 + 24, p11 + 25, p11 + 26, p11 + 27, p11 + 28, p11 + 29, p11 + 30, p11 + 31, p11 + 32, p11 + 33, p11 + 34, p11 + 35, p11 + 36, p11 + 37, p11 + 38, p11 + 39, 9};
Line(12) = {4, 10};
Line(13) = {10, 7};
Line(14) = {5, 10};
p15 = newp;
Point(p15 + 1) = {29.05971795498337, -0.969277286889826, 0};
Point(p15 + 2) = {29.0394138505695, -0.884704605442826, 0};
Point(p15 + 3) = {29.00612964119451, -0.8043494157568627, 0};
Point(p15 + 4) = {28.96068489455718, -0.7301903292855894, 0};
Point(p15 + 5) = {28.90419861114217, -0.6640533888578264, 0};
Point(p15 + 6) = {28.83806167071441, -0.607567105442826, 0};
Point(p15 + 7) = {28.76390258424314, -0.5621223588054924, 0};
Point(p15 + 8) = {28.68354739455718, -0.5288381494305038, 0};
Point(p15 + 9) = {28.59897471311017, -0.50853404501663, 0};
Point(p15 + 10) = {28.512267, -0.50171, 0};
Point(p15 + 11) = {28.42555928688983, -0.50853404501663, 0};
Point(p15 + 12) = {28.34098660544283, -0.5288381494305037, 0};
Point(p15 + 13) = {28.26063141575687, -0.5621223588054924, 0};
Point(p15 + 14) = {28.18647232928559, -0.607567105442826, 0};
Point(p15 + 15) = {28.12033538885783, -0.6640533888578264, 0};
Point(p15 + 16) = {28.06384910544283, -0.7301903292855894, 0};
Point(p15 + 17) = {28.01840435880549, -0.8043494157568627, 0};
Point(p15 + 18) = {27.9851201494305, -0.8847046054428259, 0};
Point(p15 + 19) = {27.96481604501663, -0.969277286889826, 0};
Point(p15 + 20) = {27.957992, -1.055985, 0};
Point(p15 + 21) = {27.96481604501663, -1.142692713110174, 0};
Point(p15 + 22) = {27.9851201494305, -1.227265394557174, 0};
Point(p15 + 23) = {28.01840435880549, -1.307620584243137, 0};
Point(p15 + 24) = {28.06384910544283, -1.381779670714411, 0};
Point(p15 + 25) = {28.12033538885783, -1.447916611142174, 0};
Point(p15 + 26) = {28.18647232928559, -1.504402894557174, 0};
Point(p15 + 27) = {28.26063141575687, -1.549847641194507, 0};
Point(p15 + 28) = {28.34098660544283, -1.583131850569496, 0};
Point(p15 + 29) = {28.42555928688983, -1.60343595498337, 0};
Point(p15 + 30) = {28.512267, -1.61026, 0};
Point(p15 + 31) = {28.59897471311017, -1.60343595498337, 0};
Point(p15 + 32) = {28.68354739455717, -1.583131850569496, 0};
Point(p15 + 33) = {28.76390258424314, -1.549847641194507, 0};
Point(p15 + 34) = {28.83806167071441, -1.504402894557174, 0};
Point(p15 + 35) = {28.90419861114217, -1.447916611142174, 0};
Point(p15 + 36) = {28.96068489455718, -1.381779670714411, 0};
Point(p15 + 37) = {29.00612964119451, -1.307620584243137, 0};
Point(p15 + 38) = {29.0394138505695, -1.227265394557174, 0};
Point(p15 + 39) = {29.05971795498337, -1.142692713110174, 0};
Spline(15) = {11, p15 + 1, p15 + 2, p15 + 3, p15 + 4, p15 + 5, p15 + 6, p15 + 7, p15 + 8, p15 + 9, p15 + 10, p15 + 11, p15 + 12, p15 + 13, p15 + 14, p15 + 15, p15 + 16, p15 + 17, p15 + 18, p15 + 19, p15 + 20, p15 + 21, p15 + 22, p15 + 23, p15 + 24, p15 + 25, p15 + 26, p15 + 27, p15 + 28, p15 + 29, p15 + 30, p15 + 31, p15 + 32, p15 + 33, p15 + 34, p15 + 35, p15 + 36, p15 + 37, p15 + 38, p15 + 39, 11};
p16 = newp;
Point(p16 + 1) = {18.92181606346616, 1.04591985770244, 0};
Point(p16 + 2) = {18.89234217089805, 1.168687455640094, 0};
Point(p16 + 3) = {18.84402606734891, 1.28533284810944, 0};
Point(p16 + 4) = {18.77805745564009, 1.392983838424019, 0};
Point(p16 + 5) = {18.69606070192913, 1.488989701929134, 0};
Point(p16 + 6) = {18.60005483842402, 1.570986455640094, 0};
Point(p16 + 7) = {18.49240384810944, 1.636955067348912, 0};
Point(p16 + 8) = {18.37575845564009, 1.685271170898048, 0};
Point(p16 + 9) = {18.25299085770244, 1.714745063466167, 0};
Point(p16 + 10) = {18.127124, 1.724651, 0};
Point(p16 + 11) = {18.00125714229756, 1.714745063466167, 0};
Point(p16 + 12) = {17.8784895443599, 1.685271170898048, 0};
Point(p16 + 13) = {17.76184415189056, 1.636955067348913, 0};
Point(p16 + 14) = {17.65419316157598, 1.570986455640094, 0};
Point(p16 + 15) = {17.55818729807087, 1.488989701929134, 0};
Point(p16 + 16) = {17.47619054435991, 1.392983838424019, 0};
Point(p16 + 17) = {17.41022193265109, 1.28533284810944, 0};
Point(p16 + 18) = {17.36190582910195, 1.168687455640094, 0};
Point(p16 + 19) = {17.33243193653383, 1.04591985770244, 0};
Point(p16 + 20) = {17.322526, 0.9200530000000001, 0};
Point(p16 + 21) = {17.33243193653383, 0.7941861422975605, 0};
Point(p16 + 22) = {17.36190582910195, 0.6714185443599058, 0};
Point(p16 + 23) = {17.41022193265109, 0.5547731518905605, 0};
Point(p16 + 24) = {17.47619054435991, 0.4471221615759808, 0};
Point(p16 + 25) = {17.55818729807087, 0.3511162980708663, 0};
Point(p16 + 26) = {17.65419316157598, 0.2691195443599061, 0};
Point(p16 + 27) = {17.76184415189056, 0.2031509326510876, 0};
Point(p16 + 28) = {17.8784895443599, 0.154834829101952, 0};
Point(p16 + 29) = {18.00125714229756, 0.1253609365338334, 0};
Point(p16 + 30) = {18.127124, 0.115455, 0};
Point(p16 + 31) = {18.25299085770244, 0.1253609365338333, 0};
Point(p16 + 32) = {18.37575845564009, 0.1548348291019519, 0};
Point(p16 + 33) = {18.49240384810944, 0.2031509326510875, 0};
Point(p16 + 34) = {18.60005483842402, 0.2691195443599059, 0};
Point(p16 + 35) = {18.69606070192913, 0.3511162980708661, 0};
Point(p16 + 36) = {18.77805745564009, 0.4471221615759805, 0};
Point(p16 + 37) = {18.84402606734891, 0.55477315189056, 0};
Point(p16 + 38) = {18.89234217089805, 0.6714185443599059, 0};
Point(p16 + 39) = {18.92181606346616, 0.7941861422975601, 0};
Spline(16) = {12, p16 + 1, p16 + 2, p16 + 3, p16 + 4, p16 + 5, p16 + 6, p16 + 7, p16 + 8, p16 + 9, p16 + 10, p16 + 11, p16 + 12, p16 + 13, p16 + 14, p16 + 15, p16 + 16, p16 + 17, p16 + 18, p16 + 19, p16 + 20, p16 + 21, p16 + 22, p16 + 23, p16 + 24, p16 + 25, p16 + 26, p16 + 27, p16 + 28, p16 + 29, p16 + 30, p16 + 31, p16 + 32, p16 + 33, p16 + 34, p16 + 35, p16 + 36, p16 + 37, p16 + 38, p16 + 39, 12};
Line(17) = {11, 8};
Line(18) = {12, 9};
Curve Loop(1) = {-1, 4, 3, -2};
Plane Surface(1) = {1};
Curve Loop(2) = {-5, 1, 7, -6};
Plane Surface(2) = {2};
Curve Loop(3) = {-2, 7, 9, -8, -10, -11};
Plane Surface(3) = {3};
Curve Loop(4) = {-12, 3, 8, -13};
Plane Surface(4) = {4};
Curve Loop(5) = {-4, 5, 14, -12, -15, -16};
Plane Surface(5) = {5};
Curve Loop(6) = {-6, 14, 13, -9};
Plane Surface(6) = {6};
Curve Loop(7) = {-10, -17, 15, 17};
Surface(7) = {7};
Curve Loop(8) = {-11, -18, 16, 18};
Surface(8) = {8};
Surface Loop(1) = {1, 2, 3, 4, 5, 6, 7, 8};
Volume(1) = {1};
Physical Surface("INFLOW") = {1};
Physical Surface("OUTFLOW") = {6};
Physical Surface("OBSTACLE") = {7, 8};
Physical Surface("WALL_Y") = {2, 4};
Physical Surface("WALL_Z") = {3, 5};
Physical Volume("FLUID") = {1};
