cl__1 = 3.109459;
cl__2 = 0.965682;
cl__3 = 0.127894;
cl__4 = 0.088167;
Point(1) = {0.583575, -3.917482, 1, cl__1};
Point(2) = {0.583575, -3.917482, 0, cl__1};
Point(3) = {0.583575, 5.806083000000001, 1, cl__1};
Point(4) = {0.583575, 5.806083000000001, 0, cl__1};
Point(5) = {30.712158, -3.917482, 0, cl__2};
Point(6) = {30.712158, -3.917482, 1, cl__2};
Point(7) = {30.712158, 5.806083000000001, 1, cl__1};
Point(8) = {10.99576, 2.097065999999999, 1, cl__3};
Point(9) = {16.252409, 3.573388, 1, cl__4};
Point(10) = {30.712158, 5.806083000000001, 0, cl__1};
Point(11) = {10.99576, 2.097065999999999, 0, cl__3};
Point(12) = {16.252409, 3.573388, 0, cl__4};
Line(1) = {2, 1};
Line(2) = {1, 3};
Line(3) = {4, 3};
Line(4) = {2, 4};
Line(5) = {2, 5};
Line(6) = {5, 6};
Line(7) = {1, 6};
Line(8) = {3, 7};
Line(9) = {6, 7};
p10 = newp;
Point(p10 + 1) = {10.98001411400909, 2.297136451153018, 1};
Point(p10 + 2) = {10.93316417200704, 2.49228050380289, 1};
Point(p10 + 3) = {10.85636377505199, 2.677693063727395, 1};
Point(p10 + 4) = {10.75150400380289, 2.848808658352188, 1};
Point(p10 + 5) = {10.6211668538375, 3.001413853837504, 1};
Point(p10 + 6) = {10.46856165835219, 3.13175100380289, 1};
Point(p10 + 7) = {10.2974460637274, 3.236610775051995, 1};
Point(p10 + 8) = {10.11203350380289, 3.31341117200704, 1};
Point(p10 + 9) = {9.916889451153017, 3.360261114009086, 1};
Point(p10 + 10) = {9.716818999999999, 3.376007, 1};
Point(p10 + 11) = {9.516748548846982, 3.360261114009086, 1};
Point(p10 + 12) = {9.321604496197109, 3.31341117200704, 1};
Point(p10 + 13) = {9.136191936272603, 3.236610775051996, 1};
Point(p10 + 14) = {8.965076341647812, 3.13175100380289, 1};
Point(p10 + 15) = {8.812471146162494, 3.001413853837504, 1};
Point(p10 + 16) = {8.682133996197109, 2.848808658352188, 1};
Point(p10 + 17) = {8.577274224948004, 2.677693063727395, 1};
Point(p10 + 18) = {8.500473827992959, 2.49228050380289, 1};
Point(p10 + 19) = {8.453623885990913, 2.297136451153018, 1};
Point(p10 + 20) = {8.437878, 2.097066, 1};
Point(p10 + 21) = {8.453623885990913, 1.896995548846982, 1};
Point(p10 + 22) = {8.500473827992959, 1.70185149619711, 1};
Point(p10 + 23) = {8.577274224948003, 1.516438936272605, 1};
Point(p10 + 24) = {8.682133996197109, 1.345323341647812, 1};
Point(p10 + 25) = {8.812471146162494, 1.192718146162496, 1};
Point(p10 + 26) = {8.96507634164781, 1.06238099619711, 1};
Point(p10 + 27) = {9.136191936272603, 0.9575212249480045, 1};
Point(p10 + 28) = {9.321604496197109, 0.8807208279929599, 1};
Point(p10 + 29) = {9.516748548846982, 0.8338708859909139, 1};
Point(p10 + 30) = {9.716818999999999, 0.8181249999999998, 1};
Point(p10 + 31) = {9.916889451153017, 0.8338708859909136, 1};
Point(p10 + 32) = {10.11203350380289, 0.8807208279929597, 1};
Point(p10 + 33) = {10.2974460637274, 0.9575212249480043, 1};
Point(p10 + 34) = {10.46856165835219, 1.06238099619711, 1};
Point(p10 + 35) = {10.6211668538375, 1.192718146162495, 1};
Point(p10 + 36) = {10.75150400380289, 1.345323341647812, 1};
Point(p10 + 37) = {10.85636377505199, 1.516438936272604, 1};
Point(p10 + 38) = {10.93316417200704, 1.70185149619711, 1};
Point(p10 + 39) = {10.98001411400909, 1.896995548846982, 1};
Spline(10) = {8, p10 + 1, p10 + 2, p10 + 3, p10 + 4, p10 + 5, p10 + 6, p10 + 7, p10 + 8, p10 + 9, p10 + 10, p10 + 11, p10 + 12, p10 + 13, p10 + 14, p10 + 15, p10 + 16, p10 + 17, p10 + 18, p10 + 19, p10 + 20, p10 + 21, p10 + 22, p10 + 23, p10 + 24, p10 + 25, p10 + 26, p10 + 27, p10 + 28, p10 + 29, p10 + 30, p10 + 31, p10 + 32, p10 + 33, p10 + 34, p10 + 35, p10 + 36, p10 + 37, p10 + 38, p10 + 39, 8};
p11 = newp;
Point(p11 + 1) = {16.24155419156417, 3.711311418357556, 1};
Point(p11 + 2) = {16.20925704766543, 3.845838704413565, 1};
Point(p11 + 3) = {16.15631283117463, 3.973657349914867, 1};
Point(p11 + 4) = {16.08402520441356, 4.091620035603452, 1};
Point(p11 + 5) = {15.99417412866196, 4.196822128661962, 1};
Point(p11 + 6) = {15.88897203560345, 4.286673204413566, 1};
Point(p11 + 7) = {15.77100934991487, 4.358960831174634, 1};
Point(p11 + 8) = {15.64319070441356, 4.411905047665432, 1};
Point(p11 + 9) = {15.50866341835756, 4.444202191564175, 1};
Point(p11 + 10) = {15.37074, 4.455057, 1};
Point(p11 + 11) = {15.23281658164244, 4.444202191564175, 1};
Point(p11 + 12) = {15.09828929558643, 4.411905047665432, 1};
Point(p11 + 13) = {14.97047065008513, 4.358960831174635, 1};
Point(p11 + 14) = {14.85250796439655, 4.286673204413566, 1};
Point(p11 + 15) = {14.74730587133804, 4.196822128661962, 1};
Point(p11 + 16) = {14.65745479558643, 4.091620035603452, 1};
Point(p11 + 17) = {14.58516716882537, 3.973657349914867, 1};
Point(p11 + 18) = {14.53222295233457, 3.845838704413566, 1};
Point(p11 + 19) = {14.49992580843583, 3.711311418357556, 1};
Point(p11 + 20) = {14.489071, 3.573388, 1};
Point(p11 + 21) = {14.49992580843582, 3.435464581642445, 1};
Point(p11 + 22) = {14.53222295233457, 3.300937295586434, 1};
Point(p11 + 23) = {14.58516716882536, 3.173118650085134, 1};
Point(p11 + 24) = {14.65745479558643, 3.055155964396548, 1};
Point(p11 + 25) = {14.74730587133804, 2.949953871338038, 1};
Point(p11 + 26) = {14.85250796439655, 2.860102795586434, 1};
Point(p11 + 27) = {14.97047065008513, 2.787815168825366, 1};
Point(p11 + 28) = {15.09828929558643, 2.734870952334568, 1};
Point(p11 + 29) = {15.23281658164244, 2.702573808435826, 1};
Point(p11 + 30) = {15.37074, 2.691719, 1};
Point(p11 + 31) = {15.50866341835756, 2.702573808435826, 1};
Point(p11 + 32) = {15.64319070441356, 2.734870952334568, 1};
Point(p11 + 33) = {15.77100934991487, 2.787815168825366, 1};
Point(p11 + 34) = {15.88897203560345, 2.860102795586434, 1};
Point(p11 + 35) = {15.99417412866196, 2.949953871338038, 1};
Point(p11 + 36) = {16.08402520441356, 3.055155964396547, 1};
Point(p11 + 37) = {16.15631283117463, 3.173118650085133, 1};
Point(p11 + 38) = {16.20925704766543, 3.300937295586434, 1};
Point(p11 + 39) = {16.24155419156417, 3.435464581642445, 1};
Spline(11) = {9, p11 + 1, p11 + 2, p11 + 3, p11 + 4, p11 + 5, p11 + 6, p11 + 7, p11 + 8, p11 + 9, p11 + 10, p11 + 11, p11 + 12, p11 + 13, p11 + 14, p11 + 15, p11 + 16, p11 + 17, p11 + 18, p11 + 19, p11 + 20, p11 + 21, p11 + 22, p11 + 23, p11 + 24, p11 + 25, p11 + 26, p11 + 27, p11 + 28, p11 + 29, p11 + 30, p11 + 31, p11 + 32, p11 + 33, p11 + 34, p11 + 35, p11 + 36, p11 + 37, p11 + 38, p11 + 39, 9};
Line(12) = {4, 10};
Line(13) = {10, 7};
Line(14) = {5, 10};
p15 = newp;
Point(p15 + 1) = {10.98001411400909, 2.297136451153018, 0};
Point(p15 + 2) = {10.93316417200704, 2.49228050380289, 0};
Point(p15 + 3) = {10.85636377505199, 2.677693063727395, 0};
Point(p15 + 4) = {10.75150400380289, 2.848808658352188, 0};
Point(p15 + 5) = {10.6211668538375, 3.001413853837504, 0};
Point(p15 + 6) = {10.46856165835219, 3.13175100380289, 0};
Point(p15 + 7) = {10.2974460637274, 3.236610775051995, 0};
Point(p15 + 8) = {10.11203350380289, 3.31341117200704, 0};
Point(p15 + 9) = {9.916889451153017, 3.360261114009086, 0};
Point(p15 + 10) = {9.716818999999999, 3.376007, 0};
Point(p15 + 11) = {9.516748548846982, 3.360261114009086, 0};
Point(p15 + 12) = {9.321604496197109, 3.31341117200704, 0};
Point(p15 + 13) = {9.136191936272603, 3.236610775051996, 0};
Point(p15 + 14) = {8.965076341647812, 3.13175100380289, 0};
Point(p15 + 15) = {8.812471146162494, 3.001413853837504, 0};
Point(p15 + 16) = {8.682133996197109, 2.848808658352188, 0};
Point(p15 + 17) = {8.577274224948004, 2.677693063727395, 0};
Point(p15 + 18) = {8.500473827992959, 2.49228050380289, 0};
Point(p15 + 19) = {8.453623885990913, 2.297136451153018, 0};
Point(p15 + 20) = {8.437878, 2.097066, 0};
Point(p15 + 21) = {8.453623885990913, 1.896995548846982, 0};
Point(p15 + 22) = {8.500473827992959, 1.70185149619711, 0};
Point(p15 + 23) = {8.577274224948003, 1.516438936272605, 0};
Point(p15 + 24) = {8.682133996197109, 1.345323341647812, 0};
Point(p15 + 25) = {8.812471146162494, 1.192718146162496, 0};
Point(p15 + 26) = {8.96507634164781, 1.06238099619711, 0};
Point(p15 + 27) = {9.136191936272603, 0.9575212249480045, 0};
Point(p15 + 28) = {9.321604496197109, 0.8807208279929599, 0};
Point(p15 + 29) = {9.516748548846982, 0.8338708859909139, 0};
Point(p15 + 30) = {9.716818999999999, 0.8181249999999998, 0};
Point(p15 + 31) = {9.916889451153017, 0.8338708859909136, 0};
Point(p15 + 32) = {10.11203350380289, 0.8807208279929597, 0};
Point(p15 + 33) = {10.2974460637274, 0.9575212249480043, 0};
Point(p15 + 34) = {10.46856165835219, 1.06238099619711, 0};
Point(p15 + 35) = {10.6211668538375, 1.192718146162495, 0};
Point(p15 + 36) = {10.75150400380289, 1.345323341647812, 0};
Point(p15 + 37) = {10.85636377505199, 1.516438936272604, 0};
Point(p15 + 38) = {10.93316417200704, 1.70185149619711, 0};
Point(p15 + 39) = {10.98001411400909, 1.896995548846982, 0};
Spline(15) = {11, p15 + 1, p15 + 2, p15 + 3, p15 + 4, p15 + 5, p15 + 6, p15 + 7, p15 + 8, p15 + 9, p15 + 10, p15 + 11, p15 + 12, p15 + 13, p15 + 14, p15 + 15, p15 + 16, p15 + 17, p15 + 18, p15 + 19, p15 + 20, p15 + 21, p15 + 22, p15 + 23, p15 + 24, p15 + 25, p15 + 26, p15 + 27, p15 + 28, p15 + 29, p15 + 30, p15 + 31, p15 + 32, p15 + 33, p15 + 34, p15 + 35, p15 + 36, p15 + 37, p15 + 38, p15 + 39, 11};
p16 = newp;
Point(p16 + 1) = {16.24155419156417, 3.711311418357556, 0};
Point(p16 + 2) = {16.20925704766543, 3.845838704413565, 0};
Point(p16 + 3) = {16.15631283117463, 3.973657349914867, 0};
Point(p16 + 4) = {16.08402520441356, 4.091620035603452, 0};
Point(p16 + 5) = {15.99417412866196, 4.196822128661962, 0};
Point(p16 + 6) = {15.88897203560345, 4.286673204413566, 0};
Point(p16 + 7) = {15.77100934991487, 4.358960831174634, 0};
Point(p16 + 8) = {15.64319070441356, 4.411905047665432, 0};
Point(p16 + 9) = {15.50866341835756, 4.444202191564175, 0};
Point(p16 + 10) = {15.37074, 4.455057, 0};
Point(p16 + 11) = {15.23281658164244, 4.444202191564175, 0};
Point(p16 + 12) = {15.09828929558643, 4.411905047665432, 0};
Point(p16 + 13) = {14.97047065008513, 4.358960831174635, 0};
Point(p16 + 14) = {14.85250796439655, 4.286673204413566, 0};
Point(p16 + 15) = {14.74730587133804, 4.196822128661962, 0};
Point(p16 + 16) = {14.65745479558643, 4.091620035603452, 0};
Point(p16 + 17) = {14.58516716882537, 3.973657349914867, 0};
Point(p16 + 18) = {14.53222295233457, 3.845838704413566, 0};
Point(p16 + 19) = {14.49992580843583, 3.711311418357556, 0};
Point(p16 + 20) = {14.489071, 3.573388, 0};
Point(p16 + 21) = {14.49992580843582, 3.435464581642445, 0};
Point(p16 + 22) = {14.53222295233457, 3.300937295586434, 0};
Point(p16 + 23) = {14.58516716882536, 3.173118650085134, 0};
Point(p16 + 24) = {14.65745479558643, 3.055155964396548, 0};
Point(p16 + 25) = {14.74730587133804, 2.949953871338038, 0};
Point(p16 + 26) = {14.85250796439655, 2.860102795586434, 0};
Point(p16 + 27) = {14.97047065008513, 2.787815168825366, 0};
Point(p16 + 28) = {15.09828929558643, 2.734870952334568, 0};
Point(p16 + 29) = {15.23281658164244, 2.702573808435826, 0};
Point(p16 + 30) = {15.37074, 2.691719, 0};
Point(p16 + 31) = {15.50866341835756, 2.702573808435826, 0};
Point(p16 + 32) = {15.64319070441356, 2.734870952334568, 0};
Point(p16 + 33) = {15.77100934991487, 2.787815168825366, 0};
Point(p16 + 34) = {15.88897203560345, 2.860102795586434, 0};
Point(p16 + 35) = {15.99417412866196, 2.949953871338038, 0};
Point(p16 + 36) = {16.08402520441356, 3.055155964396547, 0};
Point(p16 + 37) = {16.15631283117463, 3.173118650085133, 0};
Point(p16 + 38) = {16.20925704766543, 3.300937295586434, 0};
Point(p16 + 39) = {16.24155419156417, 3.435464581642445, 0};
Spline(16) = {12, p16 + 1, p16 + 2, p16 + 3, p16 + 4, p16 + 5, p16 + 6, p16 + 7, p16 + 8, p16 + 9, p16 + 10, p16 + 11, p16 + 12, p16 + 13, p16 + 14, p16 + 15, p16 + 16, p16 + 17, p16 + 18, p16 + 19, p16 + 20, p16 + 21, p16 + 22, p16 + 23, p16 + 24, p16 + 25, p16 + 26, p16 + 27, p16 + 28, p16 + 29, p16 + 30, p16 + 31, p16 + 32, p16 + 33, p16 + 34, p16 + 35, p16 + 36, p16 + 37, p16 + 38, p16 + 39, 12};
Line(17) = {11, 8};
Line(18) = {12, 9};
Curve Loop(1) = {-1, 4, 3, -2};
Plane Surface(1) = {1};
Curve Loop(2) = {-5, 1, 7, -6};
Plane Surface(2) = {2};
Curve Loop(3) = {-2, 7, 9, -8, -10, -11};
Plane Surface(3) = {3};
Curve Loop(4) = {-12, 3, 8, -13};
Plane Surface(4) = {4};
Curve Loop(5) = {-4, 5, 14, -12, -15, -16};
Plane Surface(5) = {5};
Curve Loop(6) = {-6, 14, 13, -9};
Plane Surface(6) = {6};
Curve Loop(7) = {-10, -17, 15, 17};
Surface(7) = {7};
Curve Loop(8) = {-11, -18, 16, 18};
Surface(8) = {8};
Surface Loop(1) = {1, 2, 3, 4, 5, 6, 7, 8};
Volume(1) = {1};
Physical Surface("INFLOW") = {1};
Physical Surface("OUTFLOW") = {6};
Physical Surface("OBSTACLE") = {7, 8};
Physical Surface("WALL_Y") = {2, 4};
Physical Surface("WALL_Z") = {3, 5};
Physical Volume("FLUID") = {1};
