cl__1 = 1.119178;
cl__2 = 0.667366;
cl__3 = 3.268172;
cl__4 = 0.088279;
cl__5 = 0.065427;
Point(1) = {0.861248, -3.762098, 1, cl__1};
Point(2) = {0.861248, -3.762098, 0, cl__1};
Point(3) = {0.861248, 5.493456999999999, 1, cl__2};
Point(4) = {0.861248, 5.493456999999999, 0, cl__2};
Point(5) = {32.352412, -3.762098, 0, cl__1};
Point(6) = {32.352412, -3.762098, 1, cl__1};
Point(7) = {32.352412, 5.493456999999999, 1, cl__3};
Point(8) = {13.638321, -1.683333, 1, cl__4};
Point(9) = {30.563491, 3.146542999999999, 1, cl__5};
Point(10) = {32.352412, 5.493456999999999, 0, cl__3};
Point(11) = {13.638321, -1.683333, 0, cl__4};
Point(12) = {30.563491, 3.146542999999999, 0, cl__5};
Line(1) = {2, 1};
Line(2) = {1, 3};
Line(3) = {4, 3};
Line(4) = {2, 4};
Line(5) = {2, 5};
Line(6) = {5, 6};
Line(7) = {1, 6};
Line(8) = {3, 7};
Line(9) = {6, 7};
p10 = newp;
Point(p10 + 1) = {13.62745239019398, -1.545234218607135, 1};
Point(p10 + 2) = {13.5951141820202, -1.41053588753574, 1};
Point(p10 + 3) = {13.54210264948825, -1.282554726734926, 1};
Point(p10 + 4) = {13.46972311246426, -1.164442057128728, 1};
Point(p10 + 5) = {13.37975779536367, -1.059106204636328, 1};
Point(p10 + 6) = {13.27442194287127, -0.9691408875357401, 1};
Point(p10 + 7) = {13.15630927326507, -0.8967613505117508, 1};
Point(p10 + 8) = {13.02832811246426, -0.8437498179798014, 1};
Point(p10 + 9) = {12.89362978139287, -0.8114116098060183, 1};
Point(p10 + 10) = {12.755531, -0.800543, 1};
Point(p10 + 11) = {12.61743221860713, -0.8114116098060185, 1};
Point(p10 + 12) = {12.48273388753574, -0.8437498179798013, 1};
Point(p10 + 13) = {12.35475272673493, -0.8967613505117507, 1};
Point(p10 + 14) = {12.23664005712873, -0.9691408875357401, 1};
Point(p10 + 15) = {12.13130420463633, -1.059106204636328, 1};
Point(p10 + 16) = {12.04133888753574, -1.164442057128728, 1};
Point(p10 + 17) = {11.96895935051175, -1.282554726734925, 1};
Point(p10 + 18) = {11.9159478179798, -1.41053588753574, 1};
Point(p10 + 19) = {11.88360960980602, -1.545234218607134, 1};
Point(p10 + 20) = {11.872741, -1.683333, 1};
Point(p10 + 21) = {11.88360960980602, -1.821431781392865, 1};
Point(p10 + 22) = {11.9159478179798, -1.95613011246426, 1};
Point(p10 + 23) = {11.96895935051175, -2.084111273265074, 1};
Point(p10 + 24) = {12.04133888753574, -2.202223942871272, 1};
Point(p10 + 25) = {12.13130420463633, -2.307559795363672, 1};
Point(p10 + 26) = {12.23664005712873, -2.39752511246426, 1};
Point(p10 + 27) = {12.35475272673492, -2.469904649488249, 1};
Point(p10 + 28) = {12.48273388753574, -2.522916182020198, 1};
Point(p10 + 29) = {12.61743221860713, -2.555254390193982, 1};
Point(p10 + 30) = {12.755531, -2.566123, 1};
Point(p10 + 31) = {12.89362978139286, -2.555254390193982, 1};
Point(p10 + 32) = {13.02832811246426, -2.522916182020198, 1};
Point(p10 + 33) = {13.15630927326507, -2.46990464948825, 1};
Point(p10 + 34) = {13.27442194287127, -2.39752511246426, 1};
Point(p10 + 35) = {13.37975779536367, -2.307559795363672, 1};
Point(p10 + 36) = {13.46972311246426, -2.202223942871273, 1};
Point(p10 + 37) = {13.54210264948825, -2.084111273265075, 1};
Point(p10 + 38) = {13.5951141820202, -1.95613011246426, 1};
Point(p10 + 39) = {13.62745239019398, -1.821431781392866, 1};
Spline(10) = {8, p10 + 1, p10 + 2, p10 + 3, p10 + 4, p10 + 5, p10 + 6, p10 + 7, p10 + 8, p10 + 9, p10 + 10, p10 + 11, p10 + 12, p10 + 13, p10 + 14, p10 + 15, p10 + 16, p10 + 17, p10 + 18, p10 + 19, p10 + 20, p10 + 21, p10 + 22, p10 + 23, p10 + 24, p10 + 25, p10 + 26, p10 + 27, p10 + 28, p10 + 29, p10 + 30, p10 + 31, p10 + 32, p10 + 33, p10 + 34, p10 + 35, p10 + 36, p10 + 37, p10 + 38, p10 + 39, 8};
p11 = newp;
Point(p11 + 1) = {30.55543588753616, 3.248892908138477, 1};
Point(p11 + 2) = {30.53146889374688, 3.348722621858713, 1};
Point(p11 + 3) = {30.49218016556115, 3.443574002293094, 1};
Point(p11 + 4) = {30.43853712185871, 3.531111493661639, 1};
Point(p11 + 5) = {30.37186063240658, 3.609179632406579, 1};
Point(p11 + 6) = {30.29379249366164, 3.675856121858714, 1};
Point(p11 + 7) = {30.20625500229309, 3.729499165561151, 1};
Point(p11 + 8) = {30.11140362185871, 3.768787893746881, 1};
Point(p11 + 9) = {30.01157390813848, 3.792754887536159, 1};
Point(p11 + 10) = {29.909224, 3.80081, 1};
Point(p11 + 11) = {29.80687409186152, 3.792754887536159, 1};
Point(p11 + 12) = {29.70704437814128, 3.768787893746881, 1};
Point(p11 + 13) = {29.61219299770691, 3.729499165561151, 1};
Point(p11 + 14) = {29.52465550633836, 3.675856121858714, 1};
Point(p11 + 15) = {29.44658736759342, 3.609179632406579, 1};
Point(p11 + 16) = {29.37991087814128, 3.53111149366164, 1};
Point(p11 + 17) = {29.32626783443885, 3.443574002293094, 1};
Point(p11 + 18) = {29.28697910625312, 3.348722621858714, 1};
Point(p11 + 19) = {29.26301211246384, 3.248892908138477, 1};
Point(p11 + 20) = {29.254957, 3.146543, 1};
Point(p11 + 21) = {29.26301211246384, 3.044193091861523, 1};
Point(p11 + 22) = {29.28697910625312, 2.944363378141286, 1};
Point(p11 + 23) = {29.32626783443885, 2.849511997706906, 1};
Point(p11 + 24) = {29.37991087814128, 2.761974506338361, 1};
Point(p11 + 25) = {29.44658736759342, 2.683906367593421, 1};
Point(p11 + 26) = {29.52465550633836, 2.617229878141286, 1};
Point(p11 + 27) = {29.61219299770691, 2.563586834438849, 1};
Point(p11 + 28) = {29.70704437814128, 2.524298106253119, 1};
Point(p11 + 29) = {29.80687409186152, 2.500331112463841, 1};
Point(p11 + 30) = {29.909224, 2.492276, 1};
Point(p11 + 31) = {30.01157390813847, 2.500331112463841, 1};
Point(p11 + 32) = {30.11140362185871, 2.524298106253119, 1};
Point(p11 + 33) = {30.20625500229309, 2.563586834438849, 1};
Point(p11 + 34) = {30.29379249366164, 2.617229878141286, 1};
Point(p11 + 35) = {30.37186063240658, 2.683906367593421, 1};
Point(p11 + 36) = {30.43853712185871, 2.76197450633836, 1};
Point(p11 + 37) = {30.49218016556115, 2.849511997706906, 1};
Point(p11 + 38) = {30.53146889374688, 2.944363378141286, 1};
Point(p11 + 39) = {30.55543588753616, 3.044193091861523, 1};
Spline(11) = {9, p11 + 1, p11 + 2, p11 + 3, p11 + 4, p11 + 5, p11 + 6, p11 + 7, p11 + 8, p11 + 9, p11 + 10, p11 + 11, p11 + 12, p11 + 13, p11 + 14, p11 + 15, p11 + 16, p11 + 17, p11 + 18, p11 + 19, p11 + 20, p11 + 21, p11 + 22, p11 + 23, p11 + 24, p11 + 25, p11 + 26, p11 + 27, p11 + 28, p11 + 29, p11 + 30, p11 + 31, p11 + 32, p11 + 33, p11 + 34, p11 + 35, p11 + 36, p11 + 37, p11 + 38, p11 + 39, 9};
Line(12) = {4, 10};
Line(13) = {10, 7};
Line(14) = {5, 10};
p15 = newp;
Point(p15 + 1) = {13.62745239019398, -1.545234218607135, 0};
Point(p15 + 2) = {13.5951141820202, -1.41053588753574, 0};
Point(p15 + 3) = {13.54210264948825, -1.282554726734926, 0};
Point(p15 + 4) = {13.46972311246426, -1.164442057128728, 0};
Point(p15 + 5) = {13.37975779536367, -1.059106204636328, 0};
Point(p15 + 6) = {13.27442194287127, -0.9691408875357401, 0};
Point(p15 + 7) = {13.15630927326507, -0.8967613505117508, 0};
Point(p15 + 8) = {13.02832811246426, -0.8437498179798014, 0};
Point(p15 + 9) = {12.89362978139287, -0.8114116098060183, 0};
Point(p15 + 10) = {12.755531, -0.800543, 0};
Point(p15 + 11) = {12.61743221860713, -0.8114116098060185, 0};
Point(p15 + 12) = {12.48273388753574, -0.8437498179798013, 0};
Point(p15 + 13) = {12.35475272673493, -0.8967613505117507, 0};
Point(p15 + 14) = {12.23664005712873, -0.9691408875357401, 0};
Point(p15 + 15) = {12.13130420463633, -1.059106204636328, 0};
Point(p15 + 16) = {12.04133888753574, -1.164442057128728, 0};
Point(p15 + 17) = {11.96895935051175, -1.282554726734925, 0};
Point(p15 + 18) = {11.9159478179798, -1.41053588753574, 0};
Point(p15 + 19) = {11.88360960980602, -1.545234218607134, 0};
Point(p15 + 20) = {11.872741, -1.683333, 0};
Point(p15 + 21) = {11.88360960980602, -1.821431781392865, 0};
Point(p15 + 22) = {11.9159478179798, -1.95613011246426, 0};
Point(p15 + 23) = {11.96895935051175, -2.084111273265074, 0};
Point(p15 + 24) = {12.04133888753574, -2.202223942871272, 0};
Point(p15 + 25) = {12.13130420463633, -2.307559795363672, 0};
Point(p15 + 26) = {12.23664005712873, -2.39752511246426, 0};
Point(p15 + 27) = {12.35475272673492, -2.469904649488249, 0};
Point(p15 + 28) = {12.48273388753574, -2.522916182020198, 0};
Point(p15 + 29) = {12.61743221860713, -2.555254390193982, 0};
Point(p15 + 30) = {12.755531, -2.566123, 0};
Point(p15 + 31) = {12.89362978139286, -2.555254390193982, 0};
Point(p15 + 32) = {13.02832811246426, -2.522916182020198, 0};
Point(p15 + 33) = {13.15630927326507, -2.46990464948825, 0};
Point(p15 + 34) = {13.27442194287127, -2.39752511246426, 0};
Point(p15 + 35) = {13.37975779536367, -2.307559795363672, 0};
Point(p15 + 36) = {13.46972311246426, -2.202223942871273, 0};
Point(p15 + 37) = {13.54210264948825, -2.084111273265075, 0};
Point(p15 + 38) = {13.5951141820202, -1.95613011246426, 0};
Point(p15 + 39) = {13.62745239019398, -1.821431781392866, 0};
Spline(15) = {11, p15 + 1, p15 + 2, p15 + 3, p15 + 4, p15 + 5, p15 + 6, p15 + 7, p15 + 8, p15 + 9, p15 + 10, p15 + 11, p15 + 12, p15 + 13, p15 + 14, p15 + 15, p15 + 16, p15 + 17, p15 + 18, p15 + 19, p15 + 20, p15 + 21, p15 + 22, p15 + 23, p15 + 24, p15 + 25, p15 + 26, p15 + 27, p15 + 28, p15 + 29, p15 + 30, p15 + 31, p15 + 32, p15 + 33, p15 + 34, p15 + 35, p15 + 36, p15 + 37, p15 + 38, p15 + 39, 11};
p16 = newp;
Point(p16 + 1) = {30.55543588753616, 3.248892908138477, 0};
Point(p16 + 2) = {30.53146889374688, 3.348722621858713, 0};
Point(p16 + 3) = {30.49218016556115, 3.443574002293094, 0};
Point(p16 + 4) = {30.43853712185871, 3.531111493661639, 0};
Point(p16 + 5) = {30.37186063240658, 3.609179632406579, 0};
Point(p16 + 6) = {30.29379249366164, 3.675856121858714, 0};
Point(p16 + 7) = {30.20625500229309, 3.729499165561151, 0};
Point(p16 + 8) = {30.11140362185871, 3.768787893746881, 0};
Point(p16 + 9) = {30.01157390813848, 3.792754887536159, 0};
Point(p16 + 10) = {29.909224, 3.80081, 0};
Point(p16 + 11) = {29.80687409186152, 3.792754887536159, 0};
Point(p16 + 12) = {29.70704437814128, 3.768787893746881, 0};
Point(p16 + 13) = {29.61219299770691, 3.729499165561151, 0};
Point(p16 + 14) = {29.52465550633836, 3.675856121858714, 0};
Point(p16 + 15) = {29.44658736759342, 3.609179632406579, 0};
Point(p16 + 16) = {29.37991087814128, 3.53111149366164, 0};
Point(p16 + 17) = {29.32626783443885, 3.443574002293094, 0};
Point(p16 + 18) = {29.28697910625312, 3.348722621858714, 0};
Point(p16 + 19) = {29.26301211246384, 3.248892908138477, 0};
Point(p16 + 20) = {29.254957, 3.146543, 0};
Point(p16 + 21) = {29.26301211246384, 3.044193091861523, 0};
Point(p16 + 22) = {29.28697910625312, 2.944363378141286, 0};
Point(p16 + 23) = {29.32626783443885, 2.849511997706906, 0};
Point(p16 + 24) = {29.37991087814128, 2.761974506338361, 0};
Point(p16 + 25) = {29.44658736759342, 2.683906367593421, 0};
Point(p16 + 26) = {29.52465550633836, 2.617229878141286, 0};
Point(p16 + 27) = {29.61219299770691, 2.563586834438849, 0};
Point(p16 + 28) = {29.70704437814128, 2.524298106253119, 0};
Point(p16 + 29) = {29.80687409186152, 2.500331112463841, 0};
Point(p16 + 30) = {29.909224, 2.492276, 0};
Point(p16 + 31) = {30.01157390813847, 2.500331112463841, 0};
Point(p16 + 32) = {30.11140362185871, 2.524298106253119, 0};
Point(p16 + 33) = {30.20625500229309, 2.563586834438849, 0};
Point(p16 + 34) = {30.29379249366164, 2.617229878141286, 0};
Point(p16 + 35) = {30.37186063240658, 2.683906367593421, 0};
Point(p16 + 36) = {30.43853712185871, 2.76197450633836, 0};
Point(p16 + 37) = {30.49218016556115, 2.849511997706906, 0};
Point(p16 + 38) = {30.53146889374688, 2.944363378141286, 0};
Point(p16 + 39) = {30.55543588753616, 3.044193091861523, 0};
Spline(16) = {12, p16 + 1, p16 + 2, p16 + 3, p16 + 4, p16 + 5, p16 + 6, p16 + 7, p16 + 8, p16 + 9, p16 + 10, p16 + 11, p16 + 12, p16 + 13, p16 + 14, p16 + 15, p16 + 16, p16 + 17, p16 + 18, p16 + 19, p16 + 20, p16 + 21, p16 + 22, p16 + 23, p16 + 24, p16 + 25, p16 + 26, p16 + 27, p16 + 28, p16 + 29, p16 + 30, p16 + 31, p16 + 32, p16 + 33, p16 + 34, p16 + 35, p16 + 36, p16 + 37, p16 + 38, p16 + 39, 12};
Line(17) = {11, 8};
Line(18) = {12, 9};
Curve Loop(1) = {-1, 4, 3, -2};
Plane Surface(1) = {1};
Curve Loop(2) = {-5, 1, 7, -6};
Plane Surface(2) = {2};
Curve Loop(3) = {-2, 7, 9, -8, -10, -11};
Plane Surface(3) = {3};
Curve Loop(4) = {-12, 3, 8, -13};
Plane Surface(4) = {4};
Curve Loop(5) = {-4, 5, 14, -12, -15, -16};
Plane Surface(5) = {5};
Curve Loop(6) = {-6, 14, 13, -9};
Plane Surface(6) = {6};
Curve Loop(7) = {-10, -17, 15, 17};
Surface(7) = {7};
Curve Loop(8) = {-11, -18, 16, 18};
Surface(8) = {8};
Surface Loop(1) = {1, 2, 3, 4, 5, 6, 7, 8};
Volume(1) = {1};
Physical Surface("INFLOW") = {1};
Physical Surface("OUTFLOW") = {6};
Physical Surface("OBSTACLE") = {7, 8};
Physical Surface("WALL_Y") = {2, 4};
Physical Surface("WALL_Z") = {3, 5};
Physical Volume("FLUID") = {1};
