cl__1 = 1;
cl__2 = 0.050611;
cl__3 = 0.11427;
Point(1) = {0.845373, -4.100064, 1, cl__1};
Point(2) = {0.845373, -4.100064, 0, cl__1};
Point(3) = {0.845373, 4.835186, 1, cl__1};
Point(4) = {0.845373, 4.835186, 0, cl__1};
Point(5) = {37.62605600000001, -4.100064, 0, cl__1};
Point(6) = {37.62605600000001, -4.100064, 1, cl__1};
Point(7) = {37.62605600000001, 4.835186, 1, cl__1};
Point(8) = {12.131981, -1.431207, 1, cl__2};
Point(9) = {31.936874, 1.014806, 1, cl__3};
Point(10) = {37.62605600000001, 4.835186, 0, cl__1};
Point(11) = {12.131981, -1.431207, 0, cl__2};
Point(12) = {31.936874, 1.014806, 0, cl__3};
Line(1) = {2, 1};
Line(2) = {1, 3};
Line(3) = {4, 3};
Line(4) = {2, 4};
Line(5) = {2, 5};
Line(6) = {5, 6};
Line(7) = {1, 6};
Line(8) = {3, 7};
Line(9) = {6, 7};
p10 = newp;
Point(p10 + 1) = {12.12574999530524, -1.352034578636349, 1};
Point(p10 + 2) = {12.10721040923608, -1.274811645044873, 1};
Point(p10 + 3) = {12.07681874793088, -1.201439684138817, 1};
Point(p10 + 4) = {12.03532335495513, -1.133725357103265, 1};
Point(p10 + 5) = {11.9837459845992, -1.073336015400801, 1};
Point(p10 + 6) = {11.92335664289674, -1.021758645044873, 1};
Point(p10 + 7) = {11.85564231586118, -0.9802632520691219, 1};
Point(p10 + 8) = {11.78227035495513, -0.949871590763925, 1};
Point(p10 + 9) = {11.70504742136365, -0.9313320046947571, 1};
Point(p10 + 10) = {11.625875, -0.925101, 1};
Point(p10 + 11) = {11.54670257863635, -0.9313320046947572, 1};
Point(p10 + 12) = {11.46947964504487, -0.9498715907639249, 1};
Point(p10 + 13) = {11.39610768413882, -0.9802632520691219, 1};
Point(p10 + 14) = {11.32839335710327, -1.021758645044873, 1};
Point(p10 + 15) = {11.2680040154008, -1.073336015400801, 1};
Point(p10 + 16) = {11.21642664504487, -1.133725357103265, 1};
Point(p10 + 17) = {11.17493125206912, -1.201439684138817, 1};
Point(p10 + 18) = {11.14453959076392, -1.274811645044873, 1};
Point(p10 + 19) = {11.12600000469476, -1.352034578636349, 1};
Point(p10 + 20) = {11.119769, -1.431207, 1};
Point(p10 + 21) = {11.12600000469476, -1.510379421363651, 1};
Point(p10 + 22) = {11.14453959076392, -1.587602354955127, 1};
Point(p10 + 23) = {11.17493125206912, -1.660974315861183, 1};
Point(p10 + 24) = {11.21642664504487, -1.728688642896734, 1};
Point(p10 + 25) = {11.2680040154008, -1.789077984599199, 1};
Point(p10 + 26) = {11.32839335710327, -1.840655354955127, 1};
Point(p10 + 27) = {11.39610768413882, -1.882150747930878, 1};
Point(p10 + 28) = {11.46947964504487, -1.912542409236075, 1};
Point(p10 + 29) = {11.54670257863635, -1.931081995305242, 1};
Point(p10 + 30) = {11.625875, -1.937313, 1};
Point(p10 + 31) = {11.70504742136365, -1.931081995305243, 1};
Point(p10 + 32) = {11.78227035495513, -1.912542409236075, 1};
Point(p10 + 33) = {11.85564231586118, -1.882150747930878, 1};
Point(p10 + 34) = {11.92335664289674, -1.840655354955127, 1};
Point(p10 + 35) = {11.9837459845992, -1.789077984599199, 1};
Point(p10 + 36) = {12.03532335495513, -1.728688642896735, 1};
Point(p10 + 37) = {12.07681874793088, -1.660974315861183, 1};
Point(p10 + 38) = {12.10721040923608, -1.587602354955127, 1};
Point(p10 + 39) = {12.12574999530524, -1.510379421363651, 1};
Spline(10) = {8, p10 + 1, p10 + 2, p10 + 3, p10 + 4, p10 + 5, p10 + 6, p10 + 7, p10 + 8, p10 + 9, p10 + 10, p10 + 11, p10 + 12, p10 + 13, p10 + 14, p10 + 15, p10 + 16, p10 + 17, p10 + 18, p10 + 19, p10 + 20, p10 + 21, p10 + 22, p10 + 23, p10 + 24, p10 + 25, p10 + 26, p10 + 27, p10 + 28, p10 + 29, p10 + 30, p10 + 31, p10 + 32, p10 + 33, p10 + 34, p10 + 35, p10 + 36, p10 + 37, p10 + 38, p10 + 39, 8};
p11 = newp;
Point(p11 + 1) = {31.92280547910972, 1.193563506767007, 1};
Point(p11 + 2) = {31.88094633011395, 1.367919410455258, 1};
Point(p11 + 3) = {31.81232726418352, 1.53358049006188, 1};
Point(p11 + 4) = {31.71863791045526, 1.686467620009357, 1};
Point(p11 + 5) = {31.60218521175508, 1.822816211755087, 1};
Point(p11 + 6) = {31.46583662000936, 1.939268910455258, 1};
Point(p11 + 7) = {31.31294949006188, 2.032958264183524, 1};
Point(p11 + 8) = {31.14728841045526, 2.101577330113956, 1};
Point(p11 + 9) = {30.97293250676701, 2.143436479109723, 1};
Point(p11 + 10) = {30.794175, 2.157505, 1};
Point(p11 + 11) = {30.61541749323299, 2.143436479109723, 1};
Point(p11 + 12) = {30.44106158954474, 2.101577330113956, 1};
Point(p11 + 13) = {30.27540050993812, 2.032958264183524, 1};
Point(p11 + 14) = {30.12251337999064, 1.939268910455258, 1};
Point(p11 + 15) = {29.98616478824491, 1.822816211755087, 1};
Point(p11 + 16) = {29.86971208954474, 1.686467620009357, 1};
Point(p11 + 17) = {29.77602273581648, 1.533580490061881, 1};
Point(p11 + 18) = {29.70740366988604, 1.367919410455258, 1};
Point(p11 + 19) = {29.66554452089028, 1.193563506767007, 1};
Point(p11 + 20) = {29.651476, 1.014806, 1};
Point(p11 + 21) = {29.66554452089028, 0.8360484932329935, 1};
Point(p11 + 22) = {29.70740366988604, 0.6616925895447417, 1};
Point(p11 + 23) = {29.77602273581648, 0.4960315099381204, 1};
Point(p11 + 24) = {29.86971208954474, 0.3431443799906435, 1};
Point(p11 + 25) = {29.98616478824491, 0.2067957882449135, 1};
Point(p11 + 26) = {30.12251337999064, 0.09034308954474224, 1};
Point(p11 + 27) = {30.27540050993812, -0.003346264183523573, 1};
Point(p11 + 28) = {30.44106158954474, -0.07196533011395556, 1};
Point(p11 + 29) = {30.61541749323299, -0.1138244791097229, 1};
Point(p11 + 30) = {30.794175, -0.1278929999999998, 1};
Point(p11 + 31) = {30.97293250676701, -0.1138244791097232, 1};
Point(p11 + 32) = {31.14728841045526, -0.07196533011395556, 1};
Point(p11 + 33) = {31.31294949006188, -0.003346264183523573, 1};
Point(p11 + 34) = {31.46583662000936, 0.09034308954474202, 1};
Point(p11 + 35) = {31.60218521175508, 0.2067957882449133, 1};
Point(p11 + 36) = {31.71863791045526, 0.3431443799906432, 1};
Point(p11 + 37) = {31.81232726418352, 0.4960315099381195, 1};
Point(p11 + 38) = {31.88094633011395, 0.6616925895447419, 1};
Point(p11 + 39) = {31.92280547910972, 0.836048493232993, 1};
Spline(11) = {9, p11 + 1, p11 + 2, p11 + 3, p11 + 4, p11 + 5, p11 + 6, p11 + 7, p11 + 8, p11 + 9, p11 + 10, p11 + 11, p11 + 12, p11 + 13, p11 + 14, p11 + 15, p11 + 16, p11 + 17, p11 + 18, p11 + 19, p11 + 20, p11 + 21, p11 + 22, p11 + 23, p11 + 24, p11 + 25, p11 + 26, p11 + 27, p11 + 28, p11 + 29, p11 + 30, p11 + 31, p11 + 32, p11 + 33, p11 + 34, p11 + 35, p11 + 36, p11 + 37, p11 + 38, p11 + 39, 9};
Line(12) = {4, 10};
Line(13) = {10, 7};
Line(14) = {5, 10};
p15 = newp;
Point(p15 + 1) = {12.12574999530524, -1.352034578636349, 0};
Point(p15 + 2) = {12.10721040923608, -1.274811645044873, 0};
Point(p15 + 3) = {12.07681874793088, -1.201439684138817, 0};
Point(p15 + 4) = {12.03532335495513, -1.133725357103265, 0};
Point(p15 + 5) = {11.9837459845992, -1.073336015400801, 0};
Point(p15 + 6) = {11.92335664289674, -1.021758645044873, 0};
Point(p15 + 7) = {11.85564231586118, -0.9802632520691219, 0};
Point(p15 + 8) = {11.78227035495513, -0.949871590763925, 0};
Point(p15 + 9) = {11.70504742136365, -0.9313320046947571, 0};
Point(p15 + 10) = {11.625875, -0.925101, 0};
Point(p15 + 11) = {11.54670257863635, -0.9313320046947572, 0};
Point(p15 + 12) = {11.46947964504487, -0.9498715907639249, 0};
Point(p15 + 13) = {11.39610768413882, -0.9802632520691219, 0};
Point(p15 + 14) = {11.32839335710327, -1.021758645044873, 0};
Point(p15 + 15) = {11.2680040154008, -1.073336015400801, 0};
Point(p15 + 16) = {11.21642664504487, -1.133725357103265, 0};
Point(p15 + 17) = {11.17493125206912, -1.201439684138817, 0};
Point(p15 + 18) = {11.14453959076392, -1.274811645044873, 0};
Point(p15 + 19) = {11.12600000469476, -1.352034578636349, 0};
Point(p15 + 20) = {11.119769, -1.431207, 0};
Point(p15 + 21) = {11.12600000469476, -1.510379421363651, 0};
Point(p15 + 22) = {11.14453959076392, -1.587602354955127, 0};
Point(p15 + 23) = {11.17493125206912, -1.660974315861183, 0};
Point(p15 + 24) = {11.21642664504487, -1.728688642896734, 0};
Point(p15 + 25) = {11.2680040154008, -1.789077984599199, 0};
Point(p15 + 26) = {11.32839335710327, -1.840655354955127, 0};
Point(p15 + 27) = {11.39610768413882, -1.882150747930878, 0};
Point(p15 + 28) = {11.46947964504487, -1.912542409236075, 0};
Point(p15 + 29) = {11.54670257863635, -1.931081995305242, 0};
Point(p15 + 30) = {11.625875, -1.937313, 0};
Point(p15 + 31) = {11.70504742136365, -1.931081995305243, 0};
Point(p15 + 32) = {11.78227035495513, -1.912542409236075, 0};
Point(p15 + 33) = {11.85564231586118, -1.882150747930878, 0};
Point(p15 + 34) = {11.92335664289674, -1.840655354955127, 0};
Point(p15 + 35) = {11.9837459845992, -1.789077984599199, 0};
Point(p15 + 36) = {12.03532335495513, -1.728688642896735, 0};
Point(p15 + 37) = {12.07681874793088, -1.660974315861183, 0};
Point(p15 + 38) = {12.10721040923608, -1.587602354955127, 0};
Point(p15 + 39) = {12.12574999530524, -1.510379421363651, 0};
Spline(15) = {11, p15 + 1, p15 + 2, p15 + 3, p15 + 4, p15 + 5, p15 + 6, p15 + 7, p15 + 8, p15 + 9, p15 + 10, p15 + 11, p15 + 12, p15 + 13, p15 + 14, p15 + 15, p15 + 16, p15 + 17, p15 + 18, p15 + 19, p15 + 20, p15 + 21, p15 + 22, p15 + 23, p15 + 24, p15 + 25, p15 + 26, p15 + 27, p15 + 28, p15 + 29, p15 + 30, p15 + 31, p15 + 32, p15 + 33, p15 + 34, p15 + 35, p15 + 36, p15 + 37, p15 + 38, p15 + 39, 11};
p16 = newp;
Point(p16 + 1) = {31.92280547910972, 1.193563506767007, 0};
Point(p16 + 2) = {31.88094633011395, 1.367919410455258, 0};
Point(p16 + 3) = {31.81232726418352, 1.53358049006188, 0};
Point(p16 + 4) = {31.71863791045526, 1.686467620009357, 0};
Point(p16 + 5) = {31.60218521175508, 1.822816211755087, 0};
Point(p16 + 6) = {31.46583662000936, 1.939268910455258, 0};
Point(p16 + 7) = {31.31294949006188, 2.032958264183524, 0};
Point(p16 + 8) = {31.14728841045526, 2.101577330113956, 0};
Point(p16 + 9) = {30.97293250676701, 2.143436479109723, 0};
Point(p16 + 10) = {30.794175, 2.157505, 0};
Point(p16 + 11) = {30.61541749323299, 2.143436479109723, 0};
Point(p16 + 12) = {30.44106158954474, 2.101577330113956, 0};
Point(p16 + 13) = {30.27540050993812, 2.032958264183524, 0};
Point(p16 + 14) = {30.12251337999064, 1.939268910455258, 0};
Point(p16 + 15) = {29.98616478824491, 1.822816211755087, 0};
Point(p16 + 16) = {29.86971208954474, 1.686467620009357, 0};
Point(p16 + 17) = {29.77602273581648, 1.533580490061881, 0};
Point(p16 + 18) = {29.70740366988604, 1.367919410455258, 0};
Point(p16 + 19) = {29.66554452089028, 1.193563506767007, 0};
Point(p16 + 20) = {29.651476, 1.014806, 0};
Point(p16 + 21) = {29.66554452089028, 0.8360484932329935, 0};
Point(p16 + 22) = {29.70740366988604, 0.6616925895447417, 0};
Point(p16 + 23) = {29.77602273581648, 0.4960315099381204, 0};
Point(p16 + 24) = {29.86971208954474, 0.3431443799906435, 0};
Point(p16 + 25) = {29.98616478824491, 0.2067957882449135, 0};
Point(p16 + 26) = {30.12251337999064, 0.09034308954474224, 0};
Point(p16 + 27) = {30.27540050993812, -0.003346264183523573, 0};
Point(p16 + 28) = {30.44106158954474, -0.07196533011395556, 0};
Point(p16 + 29) = {30.61541749323299, -0.1138244791097229, 0};
Point(p16 + 30) = {30.794175, -0.1278929999999998, 0};
Point(p16 + 31) = {30.97293250676701, -0.1138244791097232, 0};
Point(p16 + 32) = {31.14728841045526, -0.07196533011395556, 0};
Point(p16 + 33) = {31.31294949006188, -0.003346264183523573, 0};
Point(p16 + 34) = {31.46583662000936, 0.09034308954474202, 0};
Point(p16 + 35) = {31.60218521175508, 0.2067957882449133, 0};
Point(p16 + 36) = {31.71863791045526, 0.3431443799906432, 0};
Point(p16 + 37) = {31.81232726418352, 0.4960315099381195, 0};
Point(p16 + 38) = {31.88094633011395, 0.6616925895447419, 0};
Point(p16 + 39) = {31.92280547910972, 0.836048493232993, 0};
Spline(16) = {12, p16 + 1, p16 + 2, p16 + 3, p16 + 4, p16 + 5, p16 + 6, p16 + 7, p16 + 8, p16 + 9, p16 + 10, p16 + 11, p16 + 12, p16 + 13, p16 + 14, p16 + 15, p16 + 16, p16 + 17, p16 + 18, p16 + 19, p16 + 20, p16 + 21, p16 + 22, p16 + 23, p16 + 24, p16 + 25, p16 + 26, p16 + 27, p16 + 28, p16 + 29, p16 + 30, p16 + 31, p16 + 32, p16 + 33, p16 + 34, p16 + 35, p16 + 36, p16 + 37, p16 + 38, p16 + 39, 12};
Line(17) = {11, 8};
Line(18) = {12, 9};
Curve Loop(1) = {-1, 4, 3, -2};
Plane Surface(1) = {1};
Curve Loop(2) = {-5, 1, 7, -6};
Plane Surface(2) = {2};
Curve Loop(3) = {-2, 7, 9, -8, -10, -11};
Plane Surface(3) = {3};
Curve Loop(4) = {-12, 3, 8, -13};
Plane Surface(4) = {4};
Curve Loop(5) = {-4, 5, 14, -12, -15, -16};
Plane Surface(5) = {5};
Curve Loop(6) = {-6, 14, 13, -9};
Plane Surface(6) = {6};
Curve Loop(7) = {-10, -17, 15, 17};
Surface(7) = {7};
Curve Loop(8) = {-11, -18, 16, 18};
Surface(8) = {8};
Surface Loop(1) = {1, 2, 3, 4, 5, 6, 7, 8};
Volume(1) = {1};
Physical Surface("INFLOW") = {1};
Physical Surface("OUTFLOW") = {6};
Physical Surface("OBSTACLE") = {7, 8};
Physical Surface("WALL_Y") = {2, 4};
Physical Surface("WALL_Z") = {3, 5};
Physical Volume("FLUID") = {1};
