cl__1 = 3.787653;
cl__2 = 1.507518;
cl__3 = 1.442365;
cl__4 = 0.061453;
Point(1) = {0.217965, -3.260271, 1, cl__1};
Point(2) = {0.217965, -3.260271, 0, cl__1};
Point(3) = {0.217965, 4.659202000000001, 1, cl__1};
Point(4) = {0.217965, 4.659202000000001, 0, cl__1};
Point(5) = {37.668981, -3.260271, 0, cl__2};
Point(6) = {37.668981, -3.260271, 1, cl__2};
Point(7) = {37.668981, 4.659202000000001, 1, cl__3};
Point(8) = {23.488927, 1.96344, 1, cl__4};
Point(9) = {37.668981, 4.659202000000001, 0, cl__3};
Point(10) = {23.488927, 1.96344, 0, cl__4};
Line(1) = {2, 1};
Line(2) = {1, 3};
Line(3) = {4, 3};
Line(4) = {2, 4};
Line(5) = {2, 5};
Line(6) = {5, 6};
Line(7) = {1, 6};
Line(8) = {3, 7};
Line(9) = {6, 7};
p10 = newp;
Point(p10 + 1) = {23.48136107901095, 2.059574141104568, 1};
Point(p10 + 2) = {23.45884961412841, 2.15334114060422, 1};
Point(p10 + 3) = {23.42194691232905, 2.242432143776443, 1};
Point(p10 + 4) = {23.37156164060422, 2.32465343444705, 1};
Point(p10 + 5) = {23.30893445156291, 2.397980451562913, 1};
Point(p10 + 6) = {23.23560743444705, 2.46060764060422, 1};
Point(p10 + 7) = {23.15338614377644, 2.51099291232905, 1};
Point(p10 + 8) = {23.06429514060422, 2.54789561412841, 1};
Point(p10 + 9) = {22.97052814110457, 2.570407079010952, 1};
Point(p10 + 10) = {22.874394, 2.577973, 1};
Point(p10 + 11) = {22.77825985889543, 2.570407079010952, 1};
Point(p10 + 12) = {22.68449285939578, 2.54789561412841, 1};
Point(p10 + 13) = {22.59540185622356, 2.51099291232905, 1};
Point(p10 + 14) = {22.51318056555295, 2.46060764060422, 1};
Point(p10 + 15) = {22.43985354843709, 2.397980451562913, 1};
Point(p10 + 16) = {22.37722635939578, 2.32465343444705, 1};
Point(p10 + 17) = {22.32684108767095, 2.242432143776443, 1};
Point(p10 + 18) = {22.28993838587159, 2.15334114060422, 1};
Point(p10 + 19) = {22.26742692098905, 2.059574141104568, 1};
Point(p10 + 20) = {22.259861, 1.96344, 1};
Point(p10 + 21) = {22.26742692098905, 1.867305858895432, 1};
Point(p10 + 22) = {22.28993838587159, 1.77353885939578, 1};
Point(p10 + 23) = {22.32684108767095, 1.684447856223557, 1};
Point(p10 + 24) = {22.37722635939578, 1.60222656555295, 1};
Point(p10 + 25) = {22.43985354843709, 1.528899548437088, 1};
Point(p10 + 26) = {22.51318056555295, 1.46627235939578, 1};
Point(p10 + 27) = {22.59540185622356, 1.41588708767095, 1};
Point(p10 + 28) = {22.68449285939578, 1.37898438587159, 1};
Point(p10 + 29) = {22.77825985889543, 1.356472920989048, 1};
Point(p10 + 30) = {22.874394, 1.348907, 1};
Point(p10 + 31) = {22.97052814110457, 1.356472920989048, 1};
Point(p10 + 32) = {23.06429514060422, 1.37898438587159, 1};
Point(p10 + 33) = {23.15338614377644, 1.41588708767095, 1};
Point(p10 + 34) = {23.23560743444705, 1.46627235939578, 1};
Point(p10 + 35) = {23.30893445156291, 1.528899548437087, 1};
Point(p10 + 36) = {23.37156164060422, 1.60222656555295, 1};
Point(p10 + 37) = {23.42194691232905, 1.684447856223557, 1};
Point(p10 + 38) = {23.45884961412841, 1.77353885939578, 1};
Point(p10 + 39) = {23.48136107901095, 1.867305858895432, 1};
Spline(10) = {8, p10 + 1, p10 + 2, p10 + 3, p10 + 4, p10 + 5, p10 + 6, p10 + 7, p10 + 8, p10 + 9, p10 + 10, p10 + 11, p10 + 12, p10 + 13, p10 + 14, p10 + 15, p10 + 16, p10 + 17, p10 + 18, p10 + 19, p10 + 20, p10 + 21, p10 + 22, p10 + 23, p10 + 24, p10 + 25, p10 + 26, p10 + 27, p10 + 28, p10 + 29, p10 + 30, p10 + 31, p10 + 32, p10 + 33, p10 + 34, p10 + 35, p10 + 36, p10 + 37, p10 + 38, p10 + 39, 8};
Line(11) = {4, 9};
Line(12) = {9, 7};
Line(13) = {5, 9};
p14 = newp;
Point(p14 + 1) = {23.48136107901095, 2.059574141104568, 0};
Point(p14 + 2) = {23.45884961412841, 2.15334114060422, 0};
Point(p14 + 3) = {23.42194691232905, 2.242432143776443, 0};
Point(p14 + 4) = {23.37156164060422, 2.32465343444705, 0};
Point(p14 + 5) = {23.30893445156291, 2.397980451562913, 0};
Point(p14 + 6) = {23.23560743444705, 2.46060764060422, 0};
Point(p14 + 7) = {23.15338614377644, 2.51099291232905, 0};
Point(p14 + 8) = {23.06429514060422, 2.54789561412841, 0};
Point(p14 + 9) = {22.97052814110457, 2.570407079010952, 0};
Point(p14 + 10) = {22.874394, 2.577973, 0};
Point(p14 + 11) = {22.77825985889543, 2.570407079010952, 0};
Point(p14 + 12) = {22.68449285939578, 2.54789561412841, 0};
Point(p14 + 13) = {22.59540185622356, 2.51099291232905, 0};
Point(p14 + 14) = {22.51318056555295, 2.46060764060422, 0};
Point(p14 + 15) = {22.43985354843709, 2.397980451562913, 0};
Point(p14 + 16) = {22.37722635939578, 2.32465343444705, 0};
Point(p14 + 17) = {22.32684108767095, 2.242432143776443, 0};
Point(p14 + 18) = {22.28993838587159, 2.15334114060422, 0};
Point(p14 + 19) = {22.26742692098905, 2.059574141104568, 0};
Point(p14 + 20) = {22.259861, 1.96344, 0};
Point(p14 + 21) = {22.26742692098905, 1.867305858895432, 0};
Point(p14 + 22) = {22.28993838587159, 1.77353885939578, 0};
Point(p14 + 23) = {22.32684108767095, 1.684447856223557, 0};
Point(p14 + 24) = {22.37722635939578, 1.60222656555295, 0};
Point(p14 + 25) = {22.43985354843709, 1.528899548437088, 0};
Point(p14 + 26) = {22.51318056555295, 1.46627235939578, 0};
Point(p14 + 27) = {22.59540185622356, 1.41588708767095, 0};
Point(p14 + 28) = {22.68449285939578, 1.37898438587159, 0};
Point(p14 + 29) = {22.77825985889543, 1.356472920989048, 0};
Point(p14 + 30) = {22.874394, 1.348907, 0};
Point(p14 + 31) = {22.97052814110457, 1.356472920989048, 0};
Point(p14 + 32) = {23.06429514060422, 1.37898438587159, 0};
Point(p14 + 33) = {23.15338614377644, 1.41588708767095, 0};
Point(p14 + 34) = {23.23560743444705, 1.46627235939578, 0};
Point(p14 + 35) = {23.30893445156291, 1.528899548437087, 0};
Point(p14 + 36) = {23.37156164060422, 1.60222656555295, 0};
Point(p14 + 37) = {23.42194691232905, 1.684447856223557, 0};
Point(p14 + 38) = {23.45884961412841, 1.77353885939578, 0};
Point(p14 + 39) = {23.48136107901095, 1.867305858895432, 0};
Spline(14) = {10, p14 + 1, p14 + 2, p14 + 3, p14 + 4, p14 + 5, p14 + 6, p14 + 7, p14 + 8, p14 + 9, p14 + 10, p14 + 11, p14 + 12, p14 + 13, p14 + 14, p14 + 15, p14 + 16, p14 + 17, p14 + 18, p14 + 19, p14 + 20, p14 + 21, p14 + 22, p14 + 23, p14 + 24, p14 + 25, p14 + 26, p14 + 27, p14 + 28, p14 + 29, p14 + 30, p14 + 31, p14 + 32, p14 + 33, p14 + 34, p14 + 35, p14 + 36, p14 + 37, p14 + 38, p14 + 39, 10};
Line(15) = {10, 8};
Curve Loop(1) = {-1, 4, 3, -2};
Plane Surface(1) = {1};
Curve Loop(2) = {-5, 1, 7, -6};
Plane Surface(2) = {2};
Curve Loop(3) = {-2, 7, 9, -8, -10};
Plane Surface(3) = {3};
Curve Loop(4) = {-11, 3, 8, -12};
Plane Surface(4) = {4};
Curve Loop(5) = {-4, 5, 13, -11, -14};
Plane Surface(5) = {5};
Curve Loop(6) = {-6, 13, 12, -9};
Plane Surface(6) = {6};
Curve Loop(7) = {-10, -15, 14, 15};
Surface(7) = {7};
Surface Loop(1) = {1, 2, 3, 4, 5, 6, 7};
Volume(1) = {1};
Physical Surface("INFLOW") = {1};
Physical Surface("OUTFLOW") = {6};
Physical Surface("OBSTACLE") = {7};
Physical Surface("WALL_Y") = {2, 4};
Physical Surface("WALL_Z") = {3, 5};
Physical Volume("FLUID") = {1};
