cl__1 = 1.444128;
cl__2 = 0.438778;
cl__3 = 3.349093;
cl__4 = 0.056961;
cl__5 = 0.079059;
Point(1) = {0.283611, -4.369834, 1, cl__1};
Point(2) = {0.283611, -4.369834, 0, cl__1};
Point(3) = {0.283611, 5.570614, 1, cl__2};
Point(4) = {0.283611, 5.570614, 0, cl__2};
Point(5) = {33.120069, -4.369834, 0, cl__1};
Point(6) = {33.120069, -4.369834, 1, cl__1};
Point(7) = {33.120069, 5.570614, 1, cl__3};
Point(8) = {28.899379, -3.093617, 1, cl__4};
Point(9) = {15.494438, 0.5359479999999998, 1, cl__5};
Point(10) = {33.120069, 5.570614, 0, cl__3};
Point(11) = {28.899379, -3.093617, 0, cl__4};
Point(12) = {15.494438, 0.5359479999999998, 0, cl__5};
Line(1) = {2, 1};
Line(2) = {1, 3};
Line(3) = {4, 3};
Line(4) = {2, 4};
Line(5) = {2, 5};
Line(6) = {5, 6};
Line(7) = {1, 6};
Line(8) = {3, 7};
Line(9) = {6, 7};
p10 = newp;
Point(p10 + 1) = {28.89236616799806, -3.004510520802899, 1};
Point(p10 + 2) = {28.87150035119037, -2.917598138851081, 1};
Point(p10 + 3) = {28.83729533523641, -2.835019925433857, 1};
Point(p10 + 4) = {28.79059336114892, -2.758809230226936, 1};
Point(p10 + 5) = {28.73254438652489, -2.690842613475112, 1};
Point(p10 + 6) = {28.66457776977306, -2.63279363885108, 1};
Point(p10 + 7) = {28.58836707456614, -2.586091664763588, 1};
Point(p10 + 8) = {28.50578886114892, -2.551886648809634, 1};
Point(p10 + 9) = {28.4188764791971, -2.531020832001944, 1};
Point(p10 + 10) = {28.32977, -2.524008, 1};
Point(p10 + 11) = {28.2406635208029, -2.531020832001944, 1};
Point(p10 + 12) = {28.15375113885108, -2.551886648809634, 1};
Point(p10 + 13) = {28.07117292543386, -2.586091664763588, 1};
Point(p10 + 14) = {27.99496223022694, -2.63279363885108, 1};
Point(p10 + 15) = {27.92699561347511, -2.690842613475112, 1};
Point(p10 + 16) = {27.86894663885108, -2.758809230226936, 1};
Point(p10 + 17) = {27.82224466476359, -2.835019925433857, 1};
Point(p10 + 18) = {27.78803964880963, -2.917598138851081, 1};
Point(p10 + 19) = {27.76717383200194, -3.004510520802899, 1};
Point(p10 + 20) = {27.760161, -3.093617, 1};
Point(p10 + 21) = {27.76717383200194, -3.182723479197101, 1};
Point(p10 + 22) = {27.78803964880963, -3.26963586114892, 1};
Point(p10 + 23) = {27.82224466476359, -3.352214074566144, 1};
Point(p10 + 24) = {27.86894663885108, -3.428424769773063, 1};
Point(p10 + 25) = {27.92699561347511, -3.496391386524888, 1};
Point(p10 + 26) = {27.99496223022694, -3.554440361148919, 1};
Point(p10 + 27) = {28.07117292543386, -3.601142335236412, 1};
Point(p10 + 28) = {28.15375113885108, -3.635347351190366, 1};
Point(p10 + 29) = {28.2406635208029, -3.656213167998056, 1};
Point(p10 + 30) = {28.32977, -3.663226, 1};
Point(p10 + 31) = {28.4188764791971, -3.656213167998056, 1};
Point(p10 + 32) = {28.50578886114892, -3.635347351190366, 1};
Point(p10 + 33) = {28.58836707456614, -3.601142335236412, 1};
Point(p10 + 34) = {28.66457776977306, -3.55444036114892, 1};
Point(p10 + 35) = {28.73254438652489, -3.496391386524889, 1};
Point(p10 + 36) = {28.79059336114892, -3.428424769773064, 1};
Point(p10 + 37) = {28.83729533523641, -3.352214074566144, 1};
Point(p10 + 38) = {28.87150035119037, -3.26963586114892, 1};
Point(p10 + 39) = {28.89236616799806, -3.182723479197101, 1};
Spline(10) = {8, p10 + 1, p10 + 2, p10 + 3, p10 + 4, p10 + 5, p10 + 6, p10 + 7, p10 + 8, p10 + 9, p10 + 10, p10 + 11, p10 + 12, p10 + 13, p10 + 14, p10 + 15, p10 + 16, p10 + 17, p10 + 18, p10 + 19, p10 + 20, p10 + 21, p10 + 22, p10 + 23, p10 + 24, p10 + 25, p10 + 26, p10 + 27, p10 + 28, p10 + 29, p10 + 30, p10 + 31, p10 + 32, p10 + 33, p10 + 34, p10 + 35, p10 + 36, p10 + 37, p10 + 38, p10 + 39, 8};
p11 = newp;
Point(p11 + 1) = {15.48470453750277, 0.659623367281691, 1};
Point(p11 + 2) = {15.45574382016127, 0.7802534365658953, 1};
Point(p11 + 3) = {15.40826895695156, 0.8948678951985884, 1};
Point(p11 + 4) = {15.3434489365659, 1.000644554824654, 1};
Point(p11 + 5) = {15.26287984303149, 1.094978843031491, 1};
Point(p11 + 6) = {15.16854555482465, 1.175547936565895, 1};
Point(p11 + 7) = {15.06276889519859, 1.240367956951558, 1};
Point(p11 + 8) = {14.9481544365659, 1.287842820161269, 1};
Point(p11 + 9) = {14.82752436728169, 1.316803537502769, 1};
Point(p11 + 10) = {14.703849, 1.326537, 1};
Point(p11 + 11) = {14.58017363271831, 1.316803537502769, 1};
Point(p11 + 12) = {14.4595435634341, 1.287842820161269, 1};
Point(p11 + 13) = {14.34492910480141, 1.240367956951558, 1};
Point(p11 + 14) = {14.23915244517535, 1.175547936565895, 1};
Point(p11 + 15) = {14.14481815696851, 1.094978843031492, 1};
Point(p11 + 16) = {14.0642490634341, 1.000644554824654, 1};
Point(p11 + 17) = {13.99942904304844, 0.8948678951985886, 1};
Point(p11 + 18) = {13.95195417983873, 0.7802534365658953, 1};
Point(p11 + 19) = {13.92299346249723, 0.6596233672816911, 1};
Point(p11 + 20) = {13.91326, 0.5359480000000001, 1};
Point(p11 + 21) = {13.92299346249723, 0.412272632718309, 1};
Point(p11 + 22) = {13.95195417983873, 0.2916425634341044, 1};
Point(p11 + 23) = {13.99942904304844, 0.1770281048014118, 1};
Point(p11 + 24) = {14.0642490634341, 0.07125144517534604, 1};
Point(p11 + 25) = {14.14481815696851, -0.02308284303149133, 1};
Point(p11 + 26) = {14.23915244517535, -0.1036519365658952, 1};
Point(p11 + 27) = {14.34492910480141, -0.1684719569515575, 1};
Point(p11 + 28) = {14.4595435634341, -0.2159468201612691, 1};
Point(p11 + 29) = {14.58017363271831, -0.2449075375027693, 1};
Point(p11 + 30) = {14.703849, -0.254641, 1};
Point(p11 + 31) = {14.82752436728169, -0.2449075375027694, 1};
Point(p11 + 32) = {14.9481544365659, -0.2159468201612692, 1};
Point(p11 + 33) = {15.06276889519859, -0.1684719569515576, 1};
Point(p11 + 34) = {15.16854555482465, -0.1036519365658954, 1};
Point(p11 + 35) = {15.26287984303149, -0.02308284303149155, 1};
Point(p11 + 36) = {15.3434489365659, 0.07125144517534576, 1};
Point(p11 + 37) = {15.40826895695156, 0.1770281048014113, 1};
Point(p11 + 38) = {15.45574382016127, 0.2916425634341046, 1};
Point(p11 + 39) = {15.48470453750277, 0.4122726327183087, 1};
Spline(11) = {9, p11 + 1, p11 + 2, p11 + 3, p11 + 4, p11 + 5, p11 + 6, p11 + 7, p11 + 8, p11 + 9, p11 + 10, p11 + 11, p11 + 12, p11 + 13, p11 + 14, p11 + 15, p11 + 16, p11 + 17, p11 + 18, p11 + 19, p11 + 20, p11 + 21, p11 + 22, p11 + 23, p11 + 24, p11 + 25, p11 + 26, p11 + 27, p11 + 28, p11 + 29, p11 + 30, p11 + 31, p11 + 32, p11 + 33, p11 + 34, p11 + 35, p11 + 36, p11 + 37, p11 + 38, p11 + 39, 9};
Line(12) = {4, 10};
Line(13) = {10, 7};
Line(14) = {5, 10};
p15 = newp;
Point(p15 + 1) = {28.89236616799806, -3.004510520802899, 0};
Point(p15 + 2) = {28.87150035119037, -2.917598138851081, 0};
Point(p15 + 3) = {28.83729533523641, -2.835019925433857, 0};
Point(p15 + 4) = {28.79059336114892, -2.758809230226936, 0};
Point(p15 + 5) = {28.73254438652489, -2.690842613475112, 0};
Point(p15 + 6) = {28.66457776977306, -2.63279363885108, 0};
Point(p15 + 7) = {28.58836707456614, -2.586091664763588, 0};
Point(p15 + 8) = {28.50578886114892, -2.551886648809634, 0};
Point(p15 + 9) = {28.4188764791971, -2.531020832001944, 0};
Point(p15 + 10) = {28.32977, -2.524008, 0};
Point(p15 + 11) = {28.2406635208029, -2.531020832001944, 0};
Point(p15 + 12) = {28.15375113885108, -2.551886648809634, 0};
Point(p15 + 13) = {28.07117292543386, -2.586091664763588, 0};
Point(p15 + 14) = {27.99496223022694, -2.63279363885108, 0};
Point(p15 + 15) = {27.92699561347511, -2.690842613475112, 0};
Point(p15 + 16) = {27.86894663885108, -2.758809230226936, 0};
Point(p15 + 17) = {27.82224466476359, -2.835019925433857, 0};
Point(p15 + 18) = {27.78803964880963, -2.917598138851081, 0};
Point(p15 + 19) = {27.76717383200194, -3.004510520802899, 0};
Point(p15 + 20) = {27.760161, -3.093617, 0};
Point(p15 + 21) = {27.76717383200194, -3.182723479197101, 0};
Point(p15 + 22) = {27.78803964880963, -3.26963586114892, 0};
Point(p15 + 23) = {27.82224466476359, -3.352214074566144, 0};
Point(p15 + 24) = {27.86894663885108, -3.428424769773063, 0};
Point(p15 + 25) = {27.92699561347511, -3.496391386524888, 0};
Point(p15 + 26) = {27.99496223022694, -3.554440361148919, 0};
Point(p15 + 27) = {28.07117292543386, -3.601142335236412, 0};
Point(p15 + 28) = {28.15375113885108, -3.635347351190366, 0};
Point(p15 + 29) = {28.2406635208029, -3.656213167998056, 0};
Point(p15 + 30) = {28.32977, -3.663226, 0};
Point(p15 + 31) = {28.4188764791971, -3.656213167998056, 0};
Point(p15 + 32) = {28.50578886114892, -3.635347351190366, 0};
Point(p15 + 33) = {28.58836707456614, -3.601142335236412, 0};
Point(p15 + 34) = {28.66457776977306, -3.55444036114892, 0};
Point(p15 + 35) = {28.73254438652489, -3.496391386524889, 0};
Point(p15 + 36) = {28.79059336114892, -3.428424769773064, 0};
Point(p15 + 37) = {28.83729533523641, -3.352214074566144, 0};
Point(p15 + 38) = {28.87150035119037, -3.26963586114892, 0};
Point(p15 + 39) = {28.89236616799806, -3.182723479197101, 0};
Spline(15) = {11, p15 + 1, p15 + 2, p15 + 3, p15 + 4, p15 + 5, p15 + 6, p15 + 7, p15 + 8, p15 + 9, p15 + 10, p15 + 11, p15 + 12, p15 + 13, p15 + 14, p15 + 15, p15 + 16, p15 + 17, p15 + 18, p15 + 19, p15 + 20, p15 + 21, p15 + 22, p15 + 23, p15 + 24, p15 + 25, p15 + 26, p15 + 27, p15 + 28, p15 + 29, p15 + 30, p15 + 31, p15 + 32, p15 + 33, p15 + 34, p15 + 35, p15 + 36, p15 + 37, p15 + 38, p15 + 39, 11};
p16 = newp;
Point(p16 + 1) = {15.48470453750277, 0.659623367281691, 0};
Point(p16 + 2) = {15.45574382016127, 0.7802534365658953, 0};
Point(p16 + 3) = {15.40826895695156, 0.8948678951985884, 0};
Point(p16 + 4) = {15.3434489365659, 1.000644554824654, 0};
Point(p16 + 5) = {15.26287984303149, 1.094978843031491, 0};
Point(p16 + 6) = {15.16854555482465, 1.175547936565895, 0};
Point(p16 + 7) = {15.06276889519859, 1.240367956951558, 0};
Point(p16 + 8) = {14.9481544365659, 1.287842820161269, 0};
Point(p16 + 9) = {14.82752436728169, 1.316803537502769, 0};
Point(p16 + 10) = {14.703849, 1.326537, 0};
Point(p16 + 11) = {14.58017363271831, 1.316803537502769, 0};
Point(p16 + 12) = {14.4595435634341, 1.287842820161269, 0};
Point(p16 + 13) = {14.34492910480141, 1.240367956951558, 0};
Point(p16 + 14) = {14.23915244517535, 1.175547936565895, 0};
Point(p16 + 15) = {14.14481815696851, 1.094978843031492, 0};
Point(p16 + 16) = {14.0642490634341, 1.000644554824654, 0};
Point(p16 + 17) = {13.99942904304844, 0.8948678951985886, 0};
Point(p16 + 18) = {13.95195417983873, 0.7802534365658953, 0};
Point(p16 + 19) = {13.92299346249723, 0.6596233672816911, 0};
Point(p16 + 20) = {13.91326, 0.5359480000000001, 0};
Point(p16 + 21) = {13.92299346249723, 0.412272632718309, 0};
Point(p16 + 22) = {13.95195417983873, 0.2916425634341044, 0};
Point(p16 + 23) = {13.99942904304844, 0.1770281048014118, 0};
Point(p16 + 24) = {14.0642490634341, 0.07125144517534604, 0};
Point(p16 + 25) = {14.14481815696851, -0.02308284303149133, 0};
Point(p16 + 26) = {14.23915244517535, -0.1036519365658952, 0};
Point(p16 + 27) = {14.34492910480141, -0.1684719569515575, 0};
Point(p16 + 28) = {14.4595435634341, -0.2159468201612691, 0};
Point(p16 + 29) = {14.58017363271831, -0.2449075375027693, 0};
Point(p16 + 30) = {14.703849, -0.254641, 0};
Point(p16 + 31) = {14.82752436728169, -0.2449075375027694, 0};
Point(p16 + 32) = {14.9481544365659, -0.2159468201612692, 0};
Point(p16 + 33) = {15.06276889519859, -0.1684719569515576, 0};
Point(p16 + 34) = {15.16854555482465, -0.1036519365658954, 0};
Point(p16 + 35) = {15.26287984303149, -0.02308284303149155, 0};
Point(p16 + 36) = {15.3434489365659, 0.07125144517534576, 0};
Point(p16 + 37) = {15.40826895695156, 0.1770281048014113, 0};
Point(p16 + 38) = {15.45574382016127, 0.2916425634341046, 0};
Point(p16 + 39) = {15.48470453750277, 0.4122726327183087, 0};
Spline(16) = {12, p16 + 1, p16 + 2, p16 + 3, p16 + 4, p16 + 5, p16 + 6, p16 + 7, p16 + 8, p16 + 9, p16 + 10, p16 + 11, p16 + 12, p16 + 13, p16 + 14, p16 + 15, p16 + 16, p16 + 17, p16 + 18, p16 + 19, p16 + 20, p16 + 21, p16 + 22, p16 + 23, p16 + 24, p16 + 25, p16 + 26, p16 + 27, p16 + 28, p16 + 29, p16 + 30, p16 + 31, p16 + 32, p16 + 33, p16 + 34, p16 + 35, p16 + 36, p16 + 37, p16 + 38, p16 + 39, 12};
Line(17) = {11, 8};
Line(18) = {12, 9};
Curve Loop(1) = {-1, 4, 3, -2};
Plane Surface(1) = {1};
Curve Loop(2) = {-5, 1, 7, -6};
Plane Surface(2) = {2};
Curve Loop(3) = {-2, 7, 9, -8, -10, -11};
Plane Surface(3) = {3};
Curve Loop(4) = {-12, 3, 8, -13};
Plane Surface(4) = {4};
Curve Loop(5) = {-4, 5, 14, -12, -15, -16};
Plane Surface(5) = {5};
Curve Loop(6) = {-6, 14, 13, -9};
Plane Surface(6) = {6};
Curve Loop(7) = {-10, -17, 15, 17};
Surface(7) = {7};
Curve Loop(8) = {-11, -18, 16, 18};
Surface(8) = {8};
Surface Loop(1) = {1, 2, 3, 4, 5, 6, 7, 8};
Volume(1) = {1};
Physical Surface("INFLOW") = {1};
Physical Surface("OUTFLOW") = {6};
Physical Surface("OBSTACLE") = {7, 8};
Physical Surface("WALL_Y") = {2, 4};
Physical Surface("WALL_Z") = {3, 5};
Physical Volume("FLUID") = {1};
