cl__1 = 1.278545;
cl__2 = 1.137103;
cl__3 = 0.530931;
cl__4 = 0.633423;
cl__5 = 0.12166;
cl__6 = 0.100824;
Point(1) = {0.9922569999999999, -2.983903, 1, cl__1};
Point(2) = {0.9922569999999999, -2.983903, 0, cl__1};
Point(3) = {0.9922569999999999, 4.809761999999999, 1, cl__2};
Point(4) = {0.9922569999999999, 4.809761999999999, 0, cl__2};
Point(5) = {34.614479, -2.983903, 0, cl__3};
Point(6) = {34.614479, -2.983903, 1, cl__3};
Point(7) = {34.614479, 4.809761999999999, 1, cl__4};
Point(8) = {30.020805, -0.0126610000000003, 1, cl__5};
Point(9) = {14.285871, 3.287898999999999, 1, cl__6};
Point(10) = {34.614479, 4.809761999999999, 0, cl__4};
Point(11) = {30.020805, -0.0126610000000003, 0, cl__5};
Point(12) = {14.285871, 3.287898999999999, 0, cl__6};
Line(1) = {2, 1};
Line(2) = {1, 3};
Line(3) = {4, 3};
Line(4) = {2, 4};
Line(5) = {2, 5};
Line(6) = {5, 6};
Line(7) = {1, 6};
Line(8) = {3, 7};
Line(9) = {6, 7};
p10 = newp;
Point(p10 + 1) = {30.00582659823307, 0.17765763947134, 1};
Point(p10 + 2) = {29.96126021089423, 0.3632900024075442, 1};
Point(p10 + 3) = {29.88820321034714, 0.5396652039546318, 1};
Point(p10 + 4) = {29.78845450240754, 0.7024403012947797, 1};
Point(p10 + 5) = {29.6644702313119, 0.8476072313118972, 1};
Point(p10 + 6) = {29.51930330129478, 0.9715915024075442, 1};
Point(p10 + 7) = {29.35652820395463, 1.071340210347141, 1};
Point(p10 + 8) = {29.18015300240754, 1.144397210894233, 1};
Point(p10 + 9) = {28.99452063947134, 1.188963598233066, 1};
Point(p10 + 10) = {28.804202, 1.203942, 1};
Point(p10 + 11) = {28.61388336052866, 1.188963598233066, 1};
Point(p10 + 12) = {28.42825099759246, 1.144397210894233, 1};
Point(p10 + 13) = {28.25187579604537, 1.071340210347141, 1};
Point(p10 + 14) = {28.08910069870522, 0.9715915024075442, 1};
Point(p10 + 15) = {27.9439337686881, 0.8476072313118974, 1};
Point(p10 + 16) = {27.81994949759246, 0.7024403012947799, 1};
Point(p10 + 17) = {27.72020078965286, 0.5396652039546319, 1};
Point(p10 + 18) = {27.64714378910577, 0.3632900024075443, 1};
Point(p10 + 19) = {27.60257740176693, 0.1776576394713401, 1};
Point(p10 + 20) = {27.587599, -0.01266099999999985, 1};
Point(p10 + 21) = {27.60257740176693, -0.2029796394713398, 1};
Point(p10 + 22) = {27.64714378910577, -0.3886120024075446, 1};
Point(p10 + 23) = {27.72020078965286, -0.5649872039546313, 1};
Point(p10 + 24) = {27.81994949759246, -0.7277623012947797, 1};
Point(p10 + 25) = {27.9439337686881, -0.8729292313118973, 1};
Point(p10 + 26) = {28.08910069870522, -0.9969135024075442, 1};
Point(p10 + 27) = {28.25187579604537, -1.096662210347141, 1};
Point(p10 + 28) = {28.42825099759246, -1.169719210894233, 1};
Point(p10 + 29) = {28.61388336052866, -1.214285598233066, 1};
Point(p10 + 30) = {28.804202, -1.229264, 1};
Point(p10 + 31) = {28.99452063947134, -1.214285598233066, 1};
Point(p10 + 32) = {29.18015300240754, -1.169719210894233, 1};
Point(p10 + 33) = {29.35652820395463, -1.096662210347141, 1};
Point(p10 + 34) = {29.51930330129478, -0.9969135024075444, 1};
Point(p10 + 35) = {29.6644702313119, -0.8729292313118976, 1};
Point(p10 + 36) = {29.78845450240754, -0.72776230129478, 1};
Point(p10 + 37) = {29.88820321034714, -0.5649872039546321, 1};
Point(p10 + 38) = {29.96126021089423, -0.3886120024075444, 1};
Point(p10 + 39) = {30.00582659823307, -0.2029796394713403, 1};
Spline(10) = {8, p10 + 1, p10 + 2, p10 + 3, p10 + 4, p10 + 5, p10 + 6, p10 + 7, p10 + 8, p10 + 9, p10 + 10, p10 + 11, p10 + 12, p10 + 13, p10 + 14, p10 + 15, p10 + 16, p10 + 17, p10 + 18, p10 + 19, p10 + 20, p10 + 21, p10 + 22, p10 + 23, p10 + 24, p10 + 25, p10 + 26, p10 + 27, p10 + 28, p10 + 29, p10 + 30, p10 + 31, p10 + 32, p10 + 33, p10 + 34, p10 + 35, p10 + 36, p10 + 37, p10 + 38, p10 + 39, 8};
p11 = newp;
Point(p11 + 1) = {14.27345788020998, 3.445622641466627, 1};
Point(p11 + 2) = {14.23652417304594, 3.599462603425591, 1};
Point(p11 + 3) = {14.1759793089542, 3.7456308354479, 1};
Point(p11 + 4) = {14.09331410342559, 3.880528190556615, 1};
Point(p11 + 5) = {13.99056404817031, 4.000833048170306, 1};
Point(p11 + 6) = {13.87025919055661, 4.103583103425591, 1};
Point(p11 + 7) = {13.7353618354479, 4.186248308954204, 1};
Point(p11 + 8) = {13.58919360342559, 4.246793173045941, 1};
Point(p11 + 9) = {13.43535364146663, 4.283726880209982, 1};
Point(p11 + 10) = {13.27763, 4.296139999999999, 1};
Point(p11 + 11) = {13.11990635853337, 4.283726880209982, 1};
Point(p11 + 12) = {12.96606639657441, 4.246793173045942, 1};
Point(p11 + 13) = {12.8198981645521, 4.186248308954204, 1};
Point(p11 + 14) = {12.68500080944339, 4.103583103425591, 1};
Point(p11 + 15) = {12.56469595182969, 4.000833048170306, 1};
Point(p11 + 16) = {12.46194589657441, 3.880528190556615, 1};
Point(p11 + 17) = {12.3792806910458, 3.7456308354479, 1};
Point(p11 + 18) = {12.31873582695406, 3.599462603425591, 1};
Point(p11 + 19) = {12.28180211979002, 3.445622641466628, 1};
Point(p11 + 20) = {12.269389, 3.287899, 1};
Point(p11 + 21) = {12.28180211979002, 3.130175358533373, 1};
Point(p11 + 22) = {12.31873582695406, 2.976335396574408, 1};
Point(p11 + 23) = {12.3792806910458, 2.8301671645521, 1};
Point(p11 + 24) = {12.46194589657441, 2.695269809443385, 1};
Point(p11 + 25) = {12.56469595182969, 2.574964951829694, 1};
Point(p11 + 26) = {12.68500080944338, 2.472214896574409, 1};
Point(p11 + 27) = {12.8198981645521, 2.389549691045796, 1};
Point(p11 + 28) = {12.96606639657441, 2.329004826954058, 1};
Point(p11 + 29) = {13.11990635853337, 2.292071119790018, 1};
Point(p11 + 30) = {13.27763, 2.279658, 1};
Point(p11 + 31) = {13.43535364146663, 2.292071119790018, 1};
Point(p11 + 32) = {13.58919360342559, 2.329004826954058, 1};
Point(p11 + 33) = {13.7353618354479, 2.389549691045796, 1};
Point(p11 + 34) = {13.87025919055661, 2.472214896574409, 1};
Point(p11 + 35) = {13.99056404817031, 2.574964951829694, 1};
Point(p11 + 36) = {14.09331410342559, 2.695269809443384, 1};
Point(p11 + 37) = {14.1759793089542, 2.830167164552099, 1};
Point(p11 + 38) = {14.23652417304594, 2.976335396574409, 1};
Point(p11 + 39) = {14.27345788020998, 3.130175358533372, 1};
Spline(11) = {9, p11 + 1, p11 + 2, p11 + 3, p11 + 4, p11 + 5, p11 + 6, p11 + 7, p11 + 8, p11 + 9, p11 + 10, p11 + 11, p11 + 12, p11 + 13, p11 + 14, p11 + 15, p11 + 16, p11 + 17, p11 + 18, p11 + 19, p11 + 20, p11 + 21, p11 + 22, p11 + 23, p11 + 24, p11 + 25, p11 + 26, p11 + 27, p11 + 28, p11 + 29, p11 + 30, p11 + 31, p11 + 32, p11 + 33, p11 + 34, p11 + 35, p11 + 36, p11 + 37, p11 + 38, p11 + 39, 9};
Line(12) = {4, 10};
Line(13) = {10, 7};
Line(14) = {5, 10};
p15 = newp;
Point(p15 + 1) = {30.00582659823307, 0.17765763947134, 0};
Point(p15 + 2) = {29.96126021089423, 0.3632900024075442, 0};
Point(p15 + 3) = {29.88820321034714, 0.5396652039546318, 0};
Point(p15 + 4) = {29.78845450240754, 0.7024403012947797, 0};
Point(p15 + 5) = {29.6644702313119, 0.8476072313118972, 0};
Point(p15 + 6) = {29.51930330129478, 0.9715915024075442, 0};
Point(p15 + 7) = {29.35652820395463, 1.071340210347141, 0};
Point(p15 + 8) = {29.18015300240754, 1.144397210894233, 0};
Point(p15 + 9) = {28.99452063947134, 1.188963598233066, 0};
Point(p15 + 10) = {28.804202, 1.203942, 0};
Point(p15 + 11) = {28.61388336052866, 1.188963598233066, 0};
Point(p15 + 12) = {28.42825099759246, 1.144397210894233, 0};
Point(p15 + 13) = {28.25187579604537, 1.071340210347141, 0};
Point(p15 + 14) = {28.08910069870522, 0.9715915024075442, 0};
Point(p15 + 15) = {27.9439337686881, 0.8476072313118974, 0};
Point(p15 + 16) = {27.81994949759246, 0.7024403012947799, 0};
Point(p15 + 17) = {27.72020078965286, 0.5396652039546319, 0};
Point(p15 + 18) = {27.64714378910577, 0.3632900024075443, 0};
Point(p15 + 19) = {27.60257740176693, 0.1776576394713401, 0};
Point(p15 + 20) = {27.587599, -0.01266099999999985, 0};
Point(p15 + 21) = {27.60257740176693, -0.2029796394713398, 0};
Point(p15 + 22) = {27.64714378910577, -0.3886120024075446, 0};
Point(p15 + 23) = {27.72020078965286, -0.5649872039546313, 0};
Point(p15 + 24) = {27.81994949759246, -0.7277623012947797, 0};
Point(p15 + 25) = {27.9439337686881, -0.8729292313118973, 0};
Point(p15 + 26) = {28.08910069870522, -0.9969135024075442, 0};
Point(p15 + 27) = {28.25187579604537, -1.096662210347141, 0};
Point(p15 + 28) = {28.42825099759246, -1.169719210894233, 0};
Point(p15 + 29) = {28.61388336052866, -1.214285598233066, 0};
Point(p15 + 30) = {28.804202, -1.229264, 0};
Point(p15 + 31) = {28.99452063947134, -1.214285598233066, 0};
Point(p15 + 32) = {29.18015300240754, -1.169719210894233, 0};
Point(p15 + 33) = {29.35652820395463, -1.096662210347141, 0};
Point(p15 + 34) = {29.51930330129478, -0.9969135024075444, 0};
Point(p15 + 35) = {29.6644702313119, -0.8729292313118976, 0};
Point(p15 + 36) = {29.78845450240754, -0.72776230129478, 0};
Point(p15 + 37) = {29.88820321034714, -0.5649872039546321, 0};
Point(p15 + 38) = {29.96126021089423, -0.3886120024075444, 0};
Point(p15 + 39) = {30.00582659823307, -0.2029796394713403, 0};
Spline(15) = {11, p15 + 1, p15 + 2, p15 + 3, p15 + 4, p15 + 5, p15 + 6, p15 + 7, p15 + 8, p15 + 9, p15 + 10, p15 + 11, p15 + 12, p15 + 13, p15 + 14, p15 + 15, p15 + 16, p15 + 17, p15 + 18, p15 + 19, p15 + 20, p15 + 21, p15 + 22, p15 + 23, p15 + 24, p15 + 25, p15 + 26, p15 + 27, p15 + 28, p15 + 29, p15 + 30, p15 + 31, p15 + 32, p15 + 33, p15 + 34, p15 + 35, p15 + 36, p15 + 37, p15 + 38, p15 + 39, 11};
p16 = newp;
Point(p16 + 1) = {14.27345788020998, 3.445622641466627, 0};
Point(p16 + 2) = {14.23652417304594, 3.599462603425591, 0};
Point(p16 + 3) = {14.1759793089542, 3.7456308354479, 0};
Point(p16 + 4) = {14.09331410342559, 3.880528190556615, 0};
Point(p16 + 5) = {13.99056404817031, 4.000833048170306, 0};
Point(p16 + 6) = {13.87025919055661, 4.103583103425591, 0};
Point(p16 + 7) = {13.7353618354479, 4.186248308954204, 0};
Point(p16 + 8) = {13.58919360342559, 4.246793173045941, 0};
Point(p16 + 9) = {13.43535364146663, 4.283726880209982, 0};
Point(p16 + 10) = {13.27763, 4.296139999999999, 0};
Point(p16 + 11) = {13.11990635853337, 4.283726880209982, 0};
Point(p16 + 12) = {12.96606639657441, 4.246793173045942, 0};
Point(p16 + 13) = {12.8198981645521, 4.186248308954204, 0};
Point(p16 + 14) = {12.68500080944339, 4.103583103425591, 0};
Point(p16 + 15) = {12.56469595182969, 4.000833048170306, 0};
Point(p16 + 16) = {12.46194589657441, 3.880528190556615, 0};
Point(p16 + 17) = {12.3792806910458, 3.7456308354479, 0};
Point(p16 + 18) = {12.31873582695406, 3.599462603425591, 0};
Point(p16 + 19) = {12.28180211979002, 3.445622641466628, 0};
Point(p16 + 20) = {12.269389, 3.287899, 0};
Point(p16 + 21) = {12.28180211979002, 3.130175358533373, 0};
Point(p16 + 22) = {12.31873582695406, 2.976335396574408, 0};
Point(p16 + 23) = {12.3792806910458, 2.8301671645521, 0};
Point(p16 + 24) = {12.46194589657441, 2.695269809443385, 0};
Point(p16 + 25) = {12.56469595182969, 2.574964951829694, 0};
Point(p16 + 26) = {12.68500080944338, 2.472214896574409, 0};
Point(p16 + 27) = {12.8198981645521, 2.389549691045796, 0};
Point(p16 + 28) = {12.96606639657441, 2.329004826954058, 0};
Point(p16 + 29) = {13.11990635853337, 2.292071119790018, 0};
Point(p16 + 30) = {13.27763, 2.279658, 0};
Point(p16 + 31) = {13.43535364146663, 2.292071119790018, 0};
Point(p16 + 32) = {13.58919360342559, 2.329004826954058, 0};
Point(p16 + 33) = {13.7353618354479, 2.389549691045796, 0};
Point(p16 + 34) = {13.87025919055661, 2.472214896574409, 0};
Point(p16 + 35) = {13.99056404817031, 2.574964951829694, 0};
Point(p16 + 36) = {14.09331410342559, 2.695269809443384, 0};
Point(p16 + 37) = {14.1759793089542, 2.830167164552099, 0};
Point(p16 + 38) = {14.23652417304594, 2.976335396574409, 0};
Point(p16 + 39) = {14.27345788020998, 3.130175358533372, 0};
Spline(16) = {12, p16 + 1, p16 + 2, p16 + 3, p16 + 4, p16 + 5, p16 + 6, p16 + 7, p16 + 8, p16 + 9, p16 + 10, p16 + 11, p16 + 12, p16 + 13, p16 + 14, p16 + 15, p16 + 16, p16 + 17, p16 + 18, p16 + 19, p16 + 20, p16 + 21, p16 + 22, p16 + 23, p16 + 24, p16 + 25, p16 + 26, p16 + 27, p16 + 28, p16 + 29, p16 + 30, p16 + 31, p16 + 32, p16 + 33, p16 + 34, p16 + 35, p16 + 36, p16 + 37, p16 + 38, p16 + 39, 12};
Line(17) = {11, 8};
Line(18) = {12, 9};
Curve Loop(1) = {-1, 4, 3, -2};
Plane Surface(1) = {1};
Curve Loop(2) = {-5, 1, 7, -6};
Plane Surface(2) = {2};
Curve Loop(3) = {-2, 7, 9, -8, -10, -11};
Plane Surface(3) = {3};
Curve Loop(4) = {-12, 3, 8, -13};
Plane Surface(4) = {4};
Curve Loop(5) = {-4, 5, 14, -12, -15, -16};
Plane Surface(5) = {5};
Curve Loop(6) = {-6, 14, 13, -9};
Plane Surface(6) = {6};
Curve Loop(7) = {-10, -17, 15, 17};
Surface(7) = {7};
Curve Loop(8) = {-11, -18, 16, 18};
Surface(8) = {8};
Surface Loop(1) = {1, 2, 3, 4, 5, 6, 7, 8};
Volume(1) = {1};
Physical Surface("INFLOW") = {1};
Physical Surface("OUTFLOW") = {6};
Physical Surface("OBSTACLE") = {7, 8};
Physical Surface("WALL_Y") = {2, 4};
Physical Surface("WALL_Z") = {3, 5};
Physical Volume("FLUID") = {1};
