cl__1 = 0.624497;
cl__2 = 0.590735;
cl__3 = 3.591567;
cl__4 = 0.053066;
Point(1) = {0.006106, -3.381118, 1, cl__1};
Point(2) = {0.006106, -3.381118, 0, cl__1};
Point(3) = {0.006106, 5.120843, 1, cl__2};
Point(4) = {0.006106, 5.120843, 0, cl__2};
Point(5) = {35.663211, -3.381118, 0, cl__3};
Point(6) = {35.663211, -3.381118, 1, cl__3};
Point(7) = {35.663211, 5.120843, 1, cl__3};
Point(8) = {5.590363, 1.132223, 1, cl__4};
Point(9) = {35.663211, 5.120843, 0, cl__3};
Point(10) = {5.590363, 1.132223, 0, cl__4};
Line(1) = {2, 1};
Line(2) = {1, 3};
Line(3) = {4, 3};
Line(4) = {2, 4};
Line(5) = {2, 5};
Line(6) = {5, 6};
Line(7) = {1, 6};
Line(8) = {3, 7};
Line(9) = {6, 7};
p10 = newp;
Point(p10 + 1) = {5.583829731755195, 1.215236043914854, 1};
Point(p10 + 2) = {5.564390797767637, 1.296205031184027, 1};
Point(p10 + 3) = {5.532524849106227, 1.373136236620289, 1};
Point(p10 + 4) = {5.489016531184027, 1.444135358625767, 1};
Point(p10 + 5) = {5.43493716318411, 1.50745416318411, 1};
Point(p10 + 6) = {5.371618358625767, 1.561533531184026, 1};
Point(p10 + 7) = {5.300619236620289, 1.605041849106227, 1};
Point(p10 + 8) = {5.223688031184027, 1.636907797767637, 1};
Point(p10 + 9) = {5.142719043914854, 1.656346731755194, 1};
Point(p10 + 10) = {5.059706, 1.66288, 1};
Point(p10 + 11) = {4.976692956085146, 1.656346731755194, 1};
Point(p10 + 12) = {4.895723968815973, 1.636907797767637, 1};
Point(p10 + 13) = {4.818792763379712, 1.605041849106227, 1};
Point(p10 + 14) = {4.747793641374233, 1.561533531184026, 1};
Point(p10 + 15) = {4.68447483681589, 1.50745416318411, 1};
Point(p10 + 16) = {4.630395468815974, 1.444135358625767, 1};
Point(p10 + 17) = {4.586887150893774, 1.373136236620289, 1};
Point(p10 + 18) = {4.555021202232363, 1.296205031184027, 1};
Point(p10 + 19) = {4.535582268244807, 1.215236043914854, 1};
Point(p10 + 20) = {4.529049000000001, 1.132223, 1};
Point(p10 + 21) = {4.535582268244806, 1.049209956085146, 1};
Point(p10 + 22) = {4.555021202232363, 0.9682409688159733, 1};
Point(p10 + 23) = {4.586887150893773, 0.8913097633797116, 1};
Point(p10 + 24) = {4.630395468815974, 0.8203106413742332, 1};
Point(p10 + 25) = {4.68447483681589, 0.7569918368158902, 1};
Point(p10 + 26) = {4.747793641374233, 0.7029124688159736, 1};
Point(p10 + 27) = {4.818792763379712, 0.6594041508937732, 1};
Point(p10 + 28) = {4.895723968815973, 0.6275382022323627, 1};
Point(p10 + 29) = {4.976692956085146, 0.608099268244806, 1};
Point(p10 + 30) = {5.059706, 0.6015659999999999, 1};
Point(p10 + 31) = {5.142719043914854, 0.6080992682448059, 1};
Point(p10 + 32) = {5.223688031184027, 0.6275382022323626, 1};
Point(p10 + 33) = {5.300619236620289, 0.6594041508937731, 1};
Point(p10 + 34) = {5.371618358625767, 0.7029124688159734, 1};
Point(p10 + 35) = {5.43493716318411, 0.7569918368158901, 1};
Point(p10 + 36) = {5.489016531184027, 0.8203106413742329, 1};
Point(p10 + 37) = {5.532524849106227, 0.8913097633797111, 1};
Point(p10 + 38) = {5.564390797767637, 0.9682409688159734, 1};
Point(p10 + 39) = {5.583829731755194, 1.049209956085146, 1};
Spline(10) = {8, p10 + 1, p10 + 2, p10 + 3, p10 + 4, p10 + 5, p10 + 6, p10 + 7, p10 + 8, p10 + 9, p10 + 10, p10 + 11, p10 + 12, p10 + 13, p10 + 14, p10 + 15, p10 + 16, p10 + 17, p10 + 18, p10 + 19, p10 + 20, p10 + 21, p10 + 22, p10 + 23, p10 + 24, p10 + 25, p10 + 26, p10 + 27, p10 + 28, p10 + 29, p10 + 30, p10 + 31, p10 + 32, p10 + 33, p10 + 34, p10 + 35, p10 + 36, p10 + 37, p10 + 38, p10 + 39, 8};
Line(11) = {4, 9};
Line(12) = {9, 7};
Line(13) = {5, 9};
p14 = newp;
Point(p14 + 1) = {5.583829731755195, 1.215236043914854, 0};
Point(p14 + 2) = {5.564390797767637, 1.296205031184027, 0};
Point(p14 + 3) = {5.532524849106227, 1.373136236620289, 0};
Point(p14 + 4) = {5.489016531184027, 1.444135358625767, 0};
Point(p14 + 5) = {5.43493716318411, 1.50745416318411, 0};
Point(p14 + 6) = {5.371618358625767, 1.561533531184026, 0};
Point(p14 + 7) = {5.300619236620289, 1.605041849106227, 0};
Point(p14 + 8) = {5.223688031184027, 1.636907797767637, 0};
Point(p14 + 9) = {5.142719043914854, 1.656346731755194, 0};
Point(p14 + 10) = {5.059706, 1.66288, 0};
Point(p14 + 11) = {4.976692956085146, 1.656346731755194, 0};
Point(p14 + 12) = {4.895723968815973, 1.636907797767637, 0};
Point(p14 + 13) = {4.818792763379712, 1.605041849106227, 0};
Point(p14 + 14) = {4.747793641374233, 1.561533531184026, 0};
Point(p14 + 15) = {4.68447483681589, 1.50745416318411, 0};
Point(p14 + 16) = {4.630395468815974, 1.444135358625767, 0};
Point(p14 + 17) = {4.586887150893774, 1.373136236620289, 0};
Point(p14 + 18) = {4.555021202232363, 1.296205031184027, 0};
Point(p14 + 19) = {4.535582268244807, 1.215236043914854, 0};
Point(p14 + 20) = {4.529049000000001, 1.132223, 0};
Point(p14 + 21) = {4.535582268244806, 1.049209956085146, 0};
Point(p14 + 22) = {4.555021202232363, 0.9682409688159733, 0};
Point(p14 + 23) = {4.586887150893773, 0.8913097633797116, 0};
Point(p14 + 24) = {4.630395468815974, 0.8203106413742332, 0};
Point(p14 + 25) = {4.68447483681589, 0.7569918368158902, 0};
Point(p14 + 26) = {4.747793641374233, 0.7029124688159736, 0};
Point(p14 + 27) = {4.818792763379712, 0.6594041508937732, 0};
Point(p14 + 28) = {4.895723968815973, 0.6275382022323627, 0};
Point(p14 + 29) = {4.976692956085146, 0.608099268244806, 0};
Point(p14 + 30) = {5.059706, 0.6015659999999999, 0};
Point(p14 + 31) = {5.142719043914854, 0.6080992682448059, 0};
Point(p14 + 32) = {5.223688031184027, 0.6275382022323626, 0};
Point(p14 + 33) = {5.300619236620289, 0.6594041508937731, 0};
Point(p14 + 34) = {5.371618358625767, 0.7029124688159734, 0};
Point(p14 + 35) = {5.43493716318411, 0.7569918368158901, 0};
Point(p14 + 36) = {5.489016531184027, 0.8203106413742329, 0};
Point(p14 + 37) = {5.532524849106227, 0.8913097633797111, 0};
Point(p14 + 38) = {5.564390797767637, 0.9682409688159734, 0};
Point(p14 + 39) = {5.583829731755194, 1.049209956085146, 0};
Spline(14) = {10, p14 + 1, p14 + 2, p14 + 3, p14 + 4, p14 + 5, p14 + 6, p14 + 7, p14 + 8, p14 + 9, p14 + 10, p14 + 11, p14 + 12, p14 + 13, p14 + 14, p14 + 15, p14 + 16, p14 + 17, p14 + 18, p14 + 19, p14 + 20, p14 + 21, p14 + 22, p14 + 23, p14 + 24, p14 + 25, p14 + 26, p14 + 27, p14 + 28, p14 + 29, p14 + 30, p14 + 31, p14 + 32, p14 + 33, p14 + 34, p14 + 35, p14 + 36, p14 + 37, p14 + 38, p14 + 39, 10};
Line(15) = {10, 8};
Curve Loop(1) = {-1, 4, 3, -2};
Plane Surface(1) = {1};
Curve Loop(2) = {-5, 1, 7, -6};
Plane Surface(2) = {2};
Curve Loop(3) = {-2, 7, 9, -8, -10};
Plane Surface(3) = {3};
Curve Loop(4) = {-11, 3, 8, -12};
Plane Surface(4) = {4};
Curve Loop(5) = {-4, 5, 13, -11, -14};
Plane Surface(5) = {5};
Curve Loop(6) = {-6, 13, 12, -9};
Plane Surface(6) = {6};
Curve Loop(7) = {-10, -15, 14, 15};
Surface(7) = {7};
Surface Loop(1) = {1, 2, 3, 4, 5, 6, 7};
Volume(1) = {1};
Physical Surface("INFLOW") = {1};
Physical Surface("OUTFLOW") = {6};
Physical Surface("OBSTACLE") = {7};
Physical Surface("WALL_Y") = {2, 4};
Physical Surface("WALL_Z") = {3, 5};
Physical Volume("FLUID") = {1};
