cl__1 = 1.19089;
cl__2 = 0.990525;
cl__3 = 3.875904;
cl__4 = 0.077279;
Point(1) = {0.554541, -4.711368, 1, cl__1};
Point(2) = {0.554541, -4.711368, 0, cl__1};
Point(3) = {0.554541, 4.916547, 1, cl__2};
Point(4) = {0.554541, 4.916547, 0, cl__2};
Point(5) = {38.458923, -4.711368, 0, cl__3};
Point(6) = {38.458923, -4.711368, 1, cl__3};
Point(7) = {38.458923, 4.916547, 1, cl__3};
Point(8) = {11.736007, 2.533267, 1, cl__4};
Point(9) = {38.458923, 4.916547, 0, cl__3};
Point(10) = {11.736007, 2.533267, 0, cl__4};
Line(1) = {2, 1};
Line(2) = {1, 3};
Line(3) = {4, 3};
Line(4) = {2, 4};
Line(5) = {2, 5};
Line(6) = {5, 6};
Line(7) = {1, 6};
Line(8) = {3, 7};
Line(9) = {6, 7};
p10 = newp;
Point(p10 + 1) = {11.72649266041686, 2.654158146672905, 1};
Point(p10 + 2) = {11.69818391628425, 2.77207255210001, 1};
Point(p10 + 3) = {11.65177782283405, 2.884106772284224, 1};
Point(p10 + 4) = {11.58841705210001, 2.987502152904352, 1};
Point(p10 + 5) = {11.50966175653993, 3.079712756539933, 1};
Point(p10 + 6) = {11.41745115290435, 3.15846805210001, 1};
Point(p10 + 7) = {11.31405577228422, 3.221828822834053, 1};
Point(p10 + 8) = {11.20202155210001, 3.268234916284248, 1};
Point(p10 + 9) = {11.0841071466729, 3.296543660416857, 1};
Point(p10 + 10) = {10.963216, 3.306058, 1};
Point(p10 + 11) = {10.84232485332709, 3.296543660416857, 1};
Point(p10 + 12) = {10.72441044789999, 3.268234916284248, 1};
Point(p10 + 13) = {10.61237622771577, 3.221828822834053, 1};
Point(p10 + 14) = {10.50898084709565, 3.15846805210001, 1};
Point(p10 + 15) = {10.41677024346007, 3.079712756539933, 1};
Point(p10 + 16) = {10.33801494789999, 2.987502152904352, 1};
Point(p10 + 17) = {10.27465417716595, 2.884106772284224, 1};
Point(p10 + 18) = {10.22824808371575, 2.77207255210001, 1};
Point(p10 + 19) = {10.19993933958314, 2.654158146672905, 1};
Point(p10 + 20) = {10.190425, 2.533267, 1};
Point(p10 + 21) = {10.19993933958314, 2.412375853327095, 1};
Point(p10 + 22) = {10.22824808371575, 2.29446144789999, 1};
Point(p10 + 23) = {10.27465417716595, 2.182427227715776, 1};
Point(p10 + 24) = {10.33801494789999, 2.079031847095647, 1};
Point(p10 + 25) = {10.41677024346007, 1.986821243460067, 1};
Point(p10 + 26) = {10.50898084709565, 1.90806594789999, 1};
Point(p10 + 27) = {10.61237622771577, 1.844705177165947, 1};
Point(p10 + 28) = {10.72441044789999, 1.798299083715752, 1};
Point(p10 + 29) = {10.84232485332709, 1.769990339583143, 1};
Point(p10 + 30) = {10.963216, 1.760476, 1};
Point(p10 + 31) = {11.0841071466729, 1.769990339583143, 1};
Point(p10 + 32) = {11.20202155210001, 1.798299083715752, 1};
Point(p10 + 33) = {11.31405577228422, 1.844705177165947, 1};
Point(p10 + 34) = {11.41745115290435, 1.90806594789999, 1};
Point(p10 + 35) = {11.50966175653993, 1.986821243460067, 1};
Point(p10 + 36) = {11.58841705210001, 2.079031847095647, 1};
Point(p10 + 37) = {11.65177782283405, 2.182427227715776, 1};
Point(p10 + 38) = {11.69818391628425, 2.29446144789999, 1};
Point(p10 + 39) = {11.72649266041686, 2.412375853327095, 1};
Spline(10) = {8, p10 + 1, p10 + 2, p10 + 3, p10 + 4, p10 + 5, p10 + 6, p10 + 7, p10 + 8, p10 + 9, p10 + 10, p10 + 11, p10 + 12, p10 + 13, p10 + 14, p10 + 15, p10 + 16, p10 + 17, p10 + 18, p10 + 19, p10 + 20, p10 + 21, p10 + 22, p10 + 23, p10 + 24, p10 + 25, p10 + 26, p10 + 27, p10 + 28, p10 + 29, p10 + 30, p10 + 31, p10 + 32, p10 + 33, p10 + 34, p10 + 35, p10 + 36, p10 + 37, p10 + 38, p10 + 39, 8};
Line(11) = {4, 9};
Line(12) = {9, 7};
Line(13) = {5, 9};
p14 = newp;
Point(p14 + 1) = {11.72649266041686, 2.654158146672905, 0};
Point(p14 + 2) = {11.69818391628425, 2.77207255210001, 0};
Point(p14 + 3) = {11.65177782283405, 2.884106772284224, 0};
Point(p14 + 4) = {11.58841705210001, 2.987502152904352, 0};
Point(p14 + 5) = {11.50966175653993, 3.079712756539933, 0};
Point(p14 + 6) = {11.41745115290435, 3.15846805210001, 0};
Point(p14 + 7) = {11.31405577228422, 3.221828822834053, 0};
Point(p14 + 8) = {11.20202155210001, 3.268234916284248, 0};
Point(p14 + 9) = {11.0841071466729, 3.296543660416857, 0};
Point(p14 + 10) = {10.963216, 3.306058, 0};
Point(p14 + 11) = {10.84232485332709, 3.296543660416857, 0};
Point(p14 + 12) = {10.72441044789999, 3.268234916284248, 0};
Point(p14 + 13) = {10.61237622771577, 3.221828822834053, 0};
Point(p14 + 14) = {10.50898084709565, 3.15846805210001, 0};
Point(p14 + 15) = {10.41677024346007, 3.079712756539933, 0};
Point(p14 + 16) = {10.33801494789999, 2.987502152904352, 0};
Point(p14 + 17) = {10.27465417716595, 2.884106772284224, 0};
Point(p14 + 18) = {10.22824808371575, 2.77207255210001, 0};
Point(p14 + 19) = {10.19993933958314, 2.654158146672905, 0};
Point(p14 + 20) = {10.190425, 2.533267, 0};
Point(p14 + 21) = {10.19993933958314, 2.412375853327095, 0};
Point(p14 + 22) = {10.22824808371575, 2.29446144789999, 0};
Point(p14 + 23) = {10.27465417716595, 2.182427227715776, 0};
Point(p14 + 24) = {10.33801494789999, 2.079031847095647, 0};
Point(p14 + 25) = {10.41677024346007, 1.986821243460067, 0};
Point(p14 + 26) = {10.50898084709565, 1.90806594789999, 0};
Point(p14 + 27) = {10.61237622771577, 1.844705177165947, 0};
Point(p14 + 28) = {10.72441044789999, 1.798299083715752, 0};
Point(p14 + 29) = {10.84232485332709, 1.769990339583143, 0};
Point(p14 + 30) = {10.963216, 1.760476, 0};
Point(p14 + 31) = {11.0841071466729, 1.769990339583143, 0};
Point(p14 + 32) = {11.20202155210001, 1.798299083715752, 0};
Point(p14 + 33) = {11.31405577228422, 1.844705177165947, 0};
Point(p14 + 34) = {11.41745115290435, 1.90806594789999, 0};
Point(p14 + 35) = {11.50966175653993, 1.986821243460067, 0};
Point(p14 + 36) = {11.58841705210001, 2.079031847095647, 0};
Point(p14 + 37) = {11.65177782283405, 2.182427227715776, 0};
Point(p14 + 38) = {11.69818391628425, 2.29446144789999, 0};
Point(p14 + 39) = {11.72649266041686, 2.412375853327095, 0};
Spline(14) = {10, p14 + 1, p14 + 2, p14 + 3, p14 + 4, p14 + 5, p14 + 6, p14 + 7, p14 + 8, p14 + 9, p14 + 10, p14 + 11, p14 + 12, p14 + 13, p14 + 14, p14 + 15, p14 + 16, p14 + 17, p14 + 18, p14 + 19, p14 + 20, p14 + 21, p14 + 22, p14 + 23, p14 + 24, p14 + 25, p14 + 26, p14 + 27, p14 + 28, p14 + 29, p14 + 30, p14 + 31, p14 + 32, p14 + 33, p14 + 34, p14 + 35, p14 + 36, p14 + 37, p14 + 38, p14 + 39, 10};
Line(15) = {10, 8};
Curve Loop(1) = {-1, 4, 3, -2};
Plane Surface(1) = {1};
Curve Loop(2) = {-5, 1, 7, -6};
Plane Surface(2) = {2};
Curve Loop(3) = {-2, 7, 9, -8, -10};
Plane Surface(3) = {3};
Curve Loop(4) = {-11, 3, 8, -12};
Plane Surface(4) = {4};
Curve Loop(5) = {-4, 5, 13, -11, -14};
Plane Surface(5) = {5};
Curve Loop(6) = {-6, 13, 12, -9};
Plane Surface(6) = {6};
Curve Loop(7) = {-10, -15, 14, 15};
Surface(7) = {7};
Surface Loop(1) = {1, 2, 3, 4, 5, 6, 7};
Volume(1) = {1};
Physical Surface("INFLOW") = {1};
Physical Surface("OUTFLOW") = {6};
Physical Surface("OBSTACLE") = {7};
Physical Surface("WALL_Y") = {2, 4};
Physical Surface("WALL_Z") = {3, 5};
Physical Volume("FLUID") = {1};
