cl__1 = 1.064749;
cl__2 = 0.999729;
cl__3 = 0.785003;
cl__4 = 0.548004;
cl__5 = 0.089563;
cl__6 = 0.072905;
Point(1) = {0.989523, -3.965768, 1, cl__1};
Point(2) = {0.989523, -3.965768, 0, cl__1};
Point(3) = {0.989523, 5.245768, 1, cl__2};
Point(4) = {0.989523, 5.245768, 0, cl__2};
Point(5) = {35.569497, -3.965768, 0, cl__3};
Point(6) = {35.569497, -3.965768, 1, cl__3};
Point(7) = {35.569497, 5.245768, 1, cl__4};
Point(8) = {12.088566, 1.431829, 1, cl__5};
Point(9) = {30.708867, 2.542383, 1, cl__6};
Point(10) = {35.569497, 5.245768, 0, cl__4};
Point(11) = {12.088566, 1.431829, 0, cl__5};
Point(12) = {30.708867, 2.542383, 0, cl__6};
Line(1) = {2, 1};
Line(2) = {1, 3};
Line(3) = {4, 3};
Line(4) = {2, 4};
Line(5) = {2, 5};
Line(6) = {5, 6};
Line(7) = {1, 6};
Line(8) = {3, 7};
Line(9) = {6, 7};
p10 = newp;
Point(p10 + 1) = {12.0775392838639, 1.571936712792912, 1};
Point(p10 + 2) = {12.04473064980246, 1.708594508706023, 1};
Point(p10 + 3) = {11.99094795527188, 1.83843741926273, 1};
Point(p10 + 4) = {11.91751550870602, 1.958268281081212, 1};
Point(p10 + 5) = {11.82624146064767, 2.06513646064767, 1};
Point(p10 + 6) = {11.71937328108121, 2.156410508706023, 1};
Point(p10 + 7) = {11.59954241926273, 2.229842955271876, 1};
Point(p10 + 8) = {11.46969950870602, 2.283625649802461, 1};
Point(p10 + 9) = {11.33304171279291, 2.316434283863904, 1};
Point(p10 + 10) = {11.192934, 2.327461, 1};
Point(p10 + 11) = {11.05282628720709, 2.316434283863904, 1};
Point(p10 + 12) = {10.91616849129398, 2.283625649802461, 1};
Point(p10 + 13) = {10.78632558073727, 2.229842955271876, 1};
Point(p10 + 14) = {10.66649471891879, 2.156410508706023, 1};
Point(p10 + 15) = {10.55962653935233, 2.06513646064767, 1};
Point(p10 + 16) = {10.46835249129398, 1.958268281081212, 1};
Point(p10 + 17) = {10.39492004472812, 1.83843741926273, 1};
Point(p10 + 18) = {10.34113735019754, 1.708594508706023, 1};
Point(p10 + 19) = {10.3083287161361, 1.571936712792912, 1};
Point(p10 + 20) = {10.297302, 1.431829, 1};
Point(p10 + 21) = {10.3083287161361, 1.291721287207088, 1};
Point(p10 + 22) = {10.34113735019754, 1.155063491293977, 1};
Point(p10 + 23) = {10.39492004472812, 1.025220580737271, 1};
Point(p10 + 24) = {10.46835249129398, 0.9053897189187878, 1};
Point(p10 + 25) = {10.55962653935233, 0.7985215393523302, 1};
Point(p10 + 26) = {10.66649471891879, 0.7072474912939772, 1};
Point(p10 + 27) = {10.78632558073727, 0.6338150447281238, 1};
Point(p10 + 28) = {10.91616849129398, 0.5800323501975391, 1};
Point(p10 + 29) = {11.05282628720709, 0.5472237161360957, 1};
Point(p10 + 30) = {11.192934, 0.536197, 1};
Point(p10 + 31) = {11.33304171279291, 0.5472237161360956, 1};
Point(p10 + 32) = {11.46969950870602, 0.580032350197539, 1};
Point(p10 + 33) = {11.59954241926273, 0.6338150447281237, 1};
Point(p10 + 34) = {11.71937328108121, 0.707247491293977, 1};
Point(p10 + 35) = {11.82624146064767, 0.7985215393523299, 1};
Point(p10 + 36) = {11.91751550870602, 0.9053897189187875, 1};
Point(p10 + 37) = {11.99094795527188, 1.02522058073727, 1};
Point(p10 + 38) = {12.04473064980246, 1.155063491293977, 1};
Point(p10 + 39) = {12.0775392838639, 1.291721287207088, 1};
Spline(10) = {8, p10 + 1, p10 + 2, p10 + 3, p10 + 4, p10 + 5, p10 + 6, p10 + 7, p10 + 8, p10 + 9, p10 + 10, p10 + 11, p10 + 12, p10 + 13, p10 + 14, p10 + 15, p10 + 16, p10 + 17, p10 + 18, p10 + 19, p10 + 20, p10 + 21, p10 + 22, p10 + 23, p10 + 24, p10 + 25, p10 + 26, p10 + 27, p10 + 28, p10 + 29, p10 + 30, p10 + 31, p10 + 32, p10 + 33, p10 + 34, p10 + 35, p10 + 36, p10 + 37, p10 + 38, p10 + 39, 8};
p11 = newp;
Point(p11 + 1) = {30.6998912093342, 2.65643123386865, 1};
Point(p11 + 2) = {30.67318485109195, 2.767671221715067, 1};
Point(p11 + 3) = {30.62940552444648, 2.873363865854117, 1};
Point(p11 + 4) = {30.56963122171507, 2.970906662613323, 1};
Point(p11 + 5) = {30.49533378461049, 3.05789778461049, 1};
Point(p11 + 6) = {30.40834266261332, 3.132195221715067, 1};
Point(p11 + 7) = {30.31079986585411, 3.191969524446481, 1};
Point(p11 + 8) = {30.20510722171507, 3.235748851091949, 1};
Point(p11 + 9) = {30.09386723386865, 3.262455209334204, 1};
Point(p11 + 10) = {29.979819, 3.271431, 1};
Point(p11 + 11) = {29.86577076613135, 3.262455209334204, 1};
Point(p11 + 12) = {29.75453077828493, 3.235748851091949, 1};
Point(p11 + 13) = {29.64883813414588, 3.191969524446481, 1};
Point(p11 + 14) = {29.55129533738668, 3.132195221715067, 1};
Point(p11 + 15) = {29.46430421538951, 3.05789778461049, 1};
Point(p11 + 16) = {29.39000677828493, 2.970906662613323, 1};
Point(p11 + 17) = {29.33023247555352, 2.873363865854117, 1};
Point(p11 + 18) = {29.28645314890805, 2.767671221715067, 1};
Point(p11 + 19) = {29.25974679066579, 2.65643123386865, 1};
Point(p11 + 20) = {29.250771, 2.542383, 1};
Point(p11 + 21) = {29.25974679066579, 2.42833476613135, 1};
Point(p11 + 22) = {29.28645314890805, 2.317094778284933, 1};
Point(p11 + 23) = {29.33023247555352, 2.211402134145883, 1};
Point(p11 + 24) = {29.39000677828493, 2.113859337386677, 1};
Point(p11 + 25) = {29.46430421538951, 2.02686821538951, 1};
Point(p11 + 26) = {29.55129533738668, 1.952570778284934, 1};
Point(p11 + 27) = {29.64883813414588, 1.892796475553519, 1};
Point(p11 + 28) = {29.75453077828493, 1.849017148908051, 1};
Point(p11 + 29) = {29.86577076613135, 1.822310790665796, 1};
Point(p11 + 30) = {29.979819, 1.813335, 1};
Point(p11 + 31) = {30.09386723386865, 1.822310790665796, 1};
Point(p11 + 32) = {30.20510722171506, 1.849017148908051, 1};
Point(p11 + 33) = {30.31079986585411, 1.892796475553519, 1};
Point(p11 + 34) = {30.40834266261332, 1.952570778284933, 1};
Point(p11 + 35) = {30.49533378461049, 2.02686821538951, 1};
Point(p11 + 36) = {30.56963122171507, 2.113859337386677, 1};
Point(p11 + 37) = {30.62940552444648, 2.211402134145883, 1};
Point(p11 + 38) = {30.67318485109195, 2.317094778284933, 1};
Point(p11 + 39) = {30.6998912093342, 2.428334766131349, 1};
Spline(11) = {9, p11 + 1, p11 + 2, p11 + 3, p11 + 4, p11 + 5, p11 + 6, p11 + 7, p11 + 8, p11 + 9, p11 + 10, p11 + 11, p11 + 12, p11 + 13, p11 + 14, p11 + 15, p11 + 16, p11 + 17, p11 + 18, p11 + 19, p11 + 20, p11 + 21, p11 + 22, p11 + 23, p11 + 24, p11 + 25, p11 + 26, p11 + 27, p11 + 28, p11 + 29, p11 + 30, p11 + 31, p11 + 32, p11 + 33, p11 + 34, p11 + 35, p11 + 36, p11 + 37, p11 + 38, p11 + 39, 9};
Line(12) = {4, 10};
Line(13) = {10, 7};
Line(14) = {5, 10};
p15 = newp;
Point(p15 + 1) = {12.0775392838639, 1.571936712792912, 0};
Point(p15 + 2) = {12.04473064980246, 1.708594508706023, 0};
Point(p15 + 3) = {11.99094795527188, 1.83843741926273, 0};
Point(p15 + 4) = {11.91751550870602, 1.958268281081212, 0};
Point(p15 + 5) = {11.82624146064767, 2.06513646064767, 0};
Point(p15 + 6) = {11.71937328108121, 2.156410508706023, 0};
Point(p15 + 7) = {11.59954241926273, 2.229842955271876, 0};
Point(p15 + 8) = {11.46969950870602, 2.283625649802461, 0};
Point(p15 + 9) = {11.33304171279291, 2.316434283863904, 0};
Point(p15 + 10) = {11.192934, 2.327461, 0};
Point(p15 + 11) = {11.05282628720709, 2.316434283863904, 0};
Point(p15 + 12) = {10.91616849129398, 2.283625649802461, 0};
Point(p15 + 13) = {10.78632558073727, 2.229842955271876, 0};
Point(p15 + 14) = {10.66649471891879, 2.156410508706023, 0};
Point(p15 + 15) = {10.55962653935233, 2.06513646064767, 0};
Point(p15 + 16) = {10.46835249129398, 1.958268281081212, 0};
Point(p15 + 17) = {10.39492004472812, 1.83843741926273, 0};
Point(p15 + 18) = {10.34113735019754, 1.708594508706023, 0};
Point(p15 + 19) = {10.3083287161361, 1.571936712792912, 0};
Point(p15 + 20) = {10.297302, 1.431829, 0};
Point(p15 + 21) = {10.3083287161361, 1.291721287207088, 0};
Point(p15 + 22) = {10.34113735019754, 1.155063491293977, 0};
Point(p15 + 23) = {10.39492004472812, 1.025220580737271, 0};
Point(p15 + 24) = {10.46835249129398, 0.9053897189187878, 0};
Point(p15 + 25) = {10.55962653935233, 0.7985215393523302, 0};
Point(p15 + 26) = {10.66649471891879, 0.7072474912939772, 0};
Point(p15 + 27) = {10.78632558073727, 0.6338150447281238, 0};
Point(p15 + 28) = {10.91616849129398, 0.5800323501975391, 0};
Point(p15 + 29) = {11.05282628720709, 0.5472237161360957, 0};
Point(p15 + 30) = {11.192934, 0.536197, 0};
Point(p15 + 31) = {11.33304171279291, 0.5472237161360956, 0};
Point(p15 + 32) = {11.46969950870602, 0.580032350197539, 0};
Point(p15 + 33) = {11.59954241926273, 0.6338150447281237, 0};
Point(p15 + 34) = {11.71937328108121, 0.707247491293977, 0};
Point(p15 + 35) = {11.82624146064767, 0.7985215393523299, 0};
Point(p15 + 36) = {11.91751550870602, 0.9053897189187875, 0};
Point(p15 + 37) = {11.99094795527188, 1.02522058073727, 0};
Point(p15 + 38) = {12.04473064980246, 1.155063491293977, 0};
Point(p15 + 39) = {12.0775392838639, 1.291721287207088, 0};
Spline(15) = {11, p15 + 1, p15 + 2, p15 + 3, p15 + 4, p15 + 5, p15 + 6, p15 + 7, p15 + 8, p15 + 9, p15 + 10, p15 + 11, p15 + 12, p15 + 13, p15 + 14, p15 + 15, p15 + 16, p15 + 17, p15 + 18, p15 + 19, p15 + 20, p15 + 21, p15 + 22, p15 + 23, p15 + 24, p15 + 25, p15 + 26, p15 + 27, p15 + 28, p15 + 29, p15 + 30, p15 + 31, p15 + 32, p15 + 33, p15 + 34, p15 + 35, p15 + 36, p15 + 37, p15 + 38, p15 + 39, 11};
p16 = newp;
Point(p16 + 1) = {30.6998912093342, 2.65643123386865, 0};
Point(p16 + 2) = {30.67318485109195, 2.767671221715067, 0};
Point(p16 + 3) = {30.62940552444648, 2.873363865854117, 0};
Point(p16 + 4) = {30.56963122171507, 2.970906662613323, 0};
Point(p16 + 5) = {30.49533378461049, 3.05789778461049, 0};
Point(p16 + 6) = {30.40834266261332, 3.132195221715067, 0};
Point(p16 + 7) = {30.31079986585411, 3.191969524446481, 0};
Point(p16 + 8) = {30.20510722171507, 3.235748851091949, 0};
Point(p16 + 9) = {30.09386723386865, 3.262455209334204, 0};
Point(p16 + 10) = {29.979819, 3.271431, 0};
Point(p16 + 11) = {29.86577076613135, 3.262455209334204, 0};
Point(p16 + 12) = {29.75453077828493, 3.235748851091949, 0};
Point(p16 + 13) = {29.64883813414588, 3.191969524446481, 0};
Point(p16 + 14) = {29.55129533738668, 3.132195221715067, 0};
Point(p16 + 15) = {29.46430421538951, 3.05789778461049, 0};
Point(p16 + 16) = {29.39000677828493, 2.970906662613323, 0};
Point(p16 + 17) = {29.33023247555352, 2.873363865854117, 0};
Point(p16 + 18) = {29.28645314890805, 2.767671221715067, 0};
Point(p16 + 19) = {29.25974679066579, 2.65643123386865, 0};
Point(p16 + 20) = {29.250771, 2.542383, 0};
Point(p16 + 21) = {29.25974679066579, 2.42833476613135, 0};
Point(p16 + 22) = {29.28645314890805, 2.317094778284933, 0};
Point(p16 + 23) = {29.33023247555352, 2.211402134145883, 0};
Point(p16 + 24) = {29.39000677828493, 2.113859337386677, 0};
Point(p16 + 25) = {29.46430421538951, 2.02686821538951, 0};
Point(p16 + 26) = {29.55129533738668, 1.952570778284934, 0};
Point(p16 + 27) = {29.64883813414588, 1.892796475553519, 0};
Point(p16 + 28) = {29.75453077828493, 1.849017148908051, 0};
Point(p16 + 29) = {29.86577076613135, 1.822310790665796, 0};
Point(p16 + 30) = {29.979819, 1.813335, 0};
Point(p16 + 31) = {30.09386723386865, 1.822310790665796, 0};
Point(p16 + 32) = {30.20510722171506, 1.849017148908051, 0};
Point(p16 + 33) = {30.31079986585411, 1.892796475553519, 0};
Point(p16 + 34) = {30.40834266261332, 1.952570778284933, 0};
Point(p16 + 35) = {30.49533378461049, 2.02686821538951, 0};
Point(p16 + 36) = {30.56963122171507, 2.113859337386677, 0};
Point(p16 + 37) = {30.62940552444648, 2.211402134145883, 0};
Point(p16 + 38) = {30.67318485109195, 2.317094778284933, 0};
Point(p16 + 39) = {30.6998912093342, 2.428334766131349, 0};
Spline(16) = {12, p16 + 1, p16 + 2, p16 + 3, p16 + 4, p16 + 5, p16 + 6, p16 + 7, p16 + 8, p16 + 9, p16 + 10, p16 + 11, p16 + 12, p16 + 13, p16 + 14, p16 + 15, p16 + 16, p16 + 17, p16 + 18, p16 + 19, p16 + 20, p16 + 21, p16 + 22, p16 + 23, p16 + 24, p16 + 25, p16 + 26, p16 + 27, p16 + 28, p16 + 29, p16 + 30, p16 + 31, p16 + 32, p16 + 33, p16 + 34, p16 + 35, p16 + 36, p16 + 37, p16 + 38, p16 + 39, 12};
Line(17) = {11, 8};
Line(18) = {12, 9};
Curve Loop(1) = {-1, 4, 3, -2};
Plane Surface(1) = {1};
Curve Loop(2) = {-5, 1, 7, -6};
Plane Surface(2) = {2};
Curve Loop(3) = {-2, 7, 9, -8, -10, -11};
Plane Surface(3) = {3};
Curve Loop(4) = {-12, 3, 8, -13};
Plane Surface(4) = {4};
Curve Loop(5) = {-4, 5, 14, -12, -15, -16};
Plane Surface(5) = {5};
Curve Loop(6) = {-6, 14, 13, -9};
Plane Surface(6) = {6};
Curve Loop(7) = {-10, -17, 15, 17};
Surface(7) = {7};
Curve Loop(8) = {-11, -18, 16, 18};
Surface(8) = {8};
Surface Loop(1) = {1, 2, 3, 4, 5, 6, 7, 8};
Volume(1) = {1};
Physical Surface("INFLOW") = {1};
Physical Surface("OUTFLOW") = {6};
Physical Surface("OBSTACLE") = {7, 8};
Physical Surface("WALL_Y") = {2, 4};
Physical Surface("WALL_Z") = {3, 5};
Physical Volume("FLUID") = {1};
