cl__1 = 0.609179;
cl__2 = 0.245562;
cl__3 = 3.058212;
cl__4 = 0.070716;
Point(1) = {0.6417040000000001, -4.136347, 1, cl__1};
Point(2) = {0.6417040000000001, -4.136347, 0, cl__1};
Point(3) = {0.6417040000000001, 5.330639000000001, 1, cl__2};
Point(4) = {0.6417040000000001, 5.330639000000001, 0, cl__2};
Point(5) = {30.213574, -4.136347, 0, cl__3};
Point(6) = {30.213574, -4.136347, 1, cl__3};
Point(7) = {30.213574, 5.330639000000001, 1, cl__3};
Point(8) = {2.780115, 2.510241, 1, cl__4};
Point(9) = {30.213574, 5.330639000000001, 0, cl__3};
Point(10) = {2.780115, 2.510241, 0, cl__4};
Line(1) = {2, 1};
Line(2) = {1, 3};
Line(3) = {4, 3};
Line(4) = {2, 4};
Line(5) = {2, 5};
Line(6) = {5, 6};
Line(7) = {1, 6};
Line(8) = {3, 7};
Line(9) = {6, 7};
p10 = newp;
Point(p10 + 1) = {2.771408723870236, 2.620864726994455, 1};
Point(p10 + 2) = {2.745504272893732, 2.728764530691205, 1};
Point(p10 + 3) = {2.703039500625473, 2.831283559824319, 1};
Point(p10 + 4) = {2.645060030691205, 2.925897455655389, 1};
Point(p10 + 5) = {2.572993510063535, 3.010276510063536, 1};
Point(p10 + 6) = {2.488614455655388, 3.082343030691205, 1};
Point(p10 + 7) = {2.394000559824319, 3.140322500625474, 1};
Point(p10 + 8) = {2.291481530691204, 3.182787272893732, 1};
Point(p10 + 9) = {2.183581726994455, 3.208691723870236, 1};
Point(p10 + 10) = {2.072958, 3.217398, 1};
Point(p10 + 11) = {1.962334273005545, 3.208691723870236, 1};
Point(p10 + 12) = {1.854434469308795, 3.182787272893732, 1};
Point(p10 + 13) = {1.751915440175681, 3.140322500625474, 1};
Point(p10 + 14) = {1.657301544344612, 3.082343030691205, 1};
Point(p10 + 15) = {1.572922489936464, 3.010276510063536, 1};
Point(p10 + 16) = {1.500855969308795, 2.925897455655389, 1};
Point(p10 + 17) = {1.442876499374526, 2.831283559824319, 1};
Point(p10 + 18) = {1.400411727106268, 2.728764530691205, 1};
Point(p10 + 19) = {1.374507276129764, 2.620864726994455, 1};
Point(p10 + 20) = {1.365801, 2.510241, 1};
Point(p10 + 21) = {1.374507276129764, 2.399617273005546, 1};
Point(p10 + 22) = {1.400411727106268, 2.291717469308795, 1};
Point(p10 + 23) = {1.442876499374526, 2.189198440175682, 1};
Point(p10 + 24) = {1.500855969308795, 2.094584544344612, 1};
Point(p10 + 25) = {1.572922489936464, 2.010205489936465, 1};
Point(p10 + 26) = {1.657301544344611, 1.938138969308795, 1};
Point(p10 + 27) = {1.751915440175681, 1.880159499374527, 1};
Point(p10 + 28) = {1.854434469308795, 1.837694727106268, 1};
Point(p10 + 29) = {1.962334273005545, 1.811790276129764, 1};
Point(p10 + 30) = {2.072958, 1.803084, 1};
Point(p10 + 31) = {2.183581726994454, 1.811790276129764, 1};
Point(p10 + 32) = {2.291481530691204, 1.837694727106268, 1};
Point(p10 + 33) = {2.394000559824319, 1.880159499374527, 1};
Point(p10 + 34) = {2.488614455655388, 1.938138969308795, 1};
Point(p10 + 35) = {2.572993510063535, 2.010205489936465, 1};
Point(p10 + 36) = {2.645060030691205, 2.094584544344611, 1};
Point(p10 + 37) = {2.703039500625473, 2.189198440175681, 1};
Point(p10 + 38) = {2.745504272893732, 2.291717469308795, 1};
Point(p10 + 39) = {2.771408723870236, 2.399617273005545, 1};
Spline(10) = {8, p10 + 1, p10 + 2, p10 + 3, p10 + 4, p10 + 5, p10 + 6, p10 + 7, p10 + 8, p10 + 9, p10 + 10, p10 + 11, p10 + 12, p10 + 13, p10 + 14, p10 + 15, p10 + 16, p10 + 17, p10 + 18, p10 + 19, p10 + 20, p10 + 21, p10 + 22, p10 + 23, p10 + 24, p10 + 25, p10 + 26, p10 + 27, p10 + 28, p10 + 29, p10 + 30, p10 + 31, p10 + 32, p10 + 33, p10 + 34, p10 + 35, p10 + 36, p10 + 37, p10 + 38, p10 + 39, 8};
Line(11) = {4, 9};
Line(12) = {9, 7};
Line(13) = {5, 9};
p14 = newp;
Point(p14 + 1) = {2.771408723870236, 2.620864726994455, 0};
Point(p14 + 2) = {2.745504272893732, 2.728764530691205, 0};
Point(p14 + 3) = {2.703039500625473, 2.831283559824319, 0};
Point(p14 + 4) = {2.645060030691205, 2.925897455655389, 0};
Point(p14 + 5) = {2.572993510063535, 3.010276510063536, 0};
Point(p14 + 6) = {2.488614455655388, 3.082343030691205, 0};
Point(p14 + 7) = {2.394000559824319, 3.140322500625474, 0};
Point(p14 + 8) = {2.291481530691204, 3.182787272893732, 0};
Point(p14 + 9) = {2.183581726994455, 3.208691723870236, 0};
Point(p14 + 10) = {2.072958, 3.217398, 0};
Point(p14 + 11) = {1.962334273005545, 3.208691723870236, 0};
Point(p14 + 12) = {1.854434469308795, 3.182787272893732, 0};
Point(p14 + 13) = {1.751915440175681, 3.140322500625474, 0};
Point(p14 + 14) = {1.657301544344612, 3.082343030691205, 0};
Point(p14 + 15) = {1.572922489936464, 3.010276510063536, 0};
Point(p14 + 16) = {1.500855969308795, 2.925897455655389, 0};
Point(p14 + 17) = {1.442876499374526, 2.831283559824319, 0};
Point(p14 + 18) = {1.400411727106268, 2.728764530691205, 0};
Point(p14 + 19) = {1.374507276129764, 2.620864726994455, 0};
Point(p14 + 20) = {1.365801, 2.510241, 0};
Point(p14 + 21) = {1.374507276129764, 2.399617273005546, 0};
Point(p14 + 22) = {1.400411727106268, 2.291717469308795, 0};
Point(p14 + 23) = {1.442876499374526, 2.189198440175682, 0};
Point(p14 + 24) = {1.500855969308795, 2.094584544344612, 0};
Point(p14 + 25) = {1.572922489936464, 2.010205489936465, 0};
Point(p14 + 26) = {1.657301544344611, 1.938138969308795, 0};
Point(p14 + 27) = {1.751915440175681, 1.880159499374527, 0};
Point(p14 + 28) = {1.854434469308795, 1.837694727106268, 0};
Point(p14 + 29) = {1.962334273005545, 1.811790276129764, 0};
Point(p14 + 30) = {2.072958, 1.803084, 0};
Point(p14 + 31) = {2.183581726994454, 1.811790276129764, 0};
Point(p14 + 32) = {2.291481530691204, 1.837694727106268, 0};
Point(p14 + 33) = {2.394000559824319, 1.880159499374527, 0};
Point(p14 + 34) = {2.488614455655388, 1.938138969308795, 0};
Point(p14 + 35) = {2.572993510063535, 2.010205489936465, 0};
Point(p14 + 36) = {2.645060030691205, 2.094584544344611, 0};
Point(p14 + 37) = {2.703039500625473, 2.189198440175681, 0};
Point(p14 + 38) = {2.745504272893732, 2.291717469308795, 0};
Point(p14 + 39) = {2.771408723870236, 2.399617273005545, 0};
Spline(14) = {10, p14 + 1, p14 + 2, p14 + 3, p14 + 4, p14 + 5, p14 + 6, p14 + 7, p14 + 8, p14 + 9, p14 + 10, p14 + 11, p14 + 12, p14 + 13, p14 + 14, p14 + 15, p14 + 16, p14 + 17, p14 + 18, p14 + 19, p14 + 20, p14 + 21, p14 + 22, p14 + 23, p14 + 24, p14 + 25, p14 + 26, p14 + 27, p14 + 28, p14 + 29, p14 + 30, p14 + 31, p14 + 32, p14 + 33, p14 + 34, p14 + 35, p14 + 36, p14 + 37, p14 + 38, p14 + 39, 10};
Line(15) = {10, 8};
Curve Loop(1) = {-1, 4, 3, -2};
Plane Surface(1) = {1};
Curve Loop(2) = {-5, 1, 7, -6};
Plane Surface(2) = {2};
Curve Loop(3) = {-2, 7, 9, -8, -10};
Plane Surface(3) = {3};
Curve Loop(4) = {-11, 3, 8, -12};
Plane Surface(4) = {4};
Curve Loop(5) = {-4, 5, 13, -11, -14};
Plane Surface(5) = {5};
Curve Loop(6) = {-6, 13, 12, -9};
Plane Surface(6) = {6};
Curve Loop(7) = {-10, -15, 14, 15};
Surface(7) = {7};
Surface Loop(1) = {1, 2, 3, 4, 5, 6, 7};
Volume(1) = {1};
Physical Surface("INFLOW") = {1};
Physical Surface("OUTFLOW") = {6};
Physical Surface("OBSTACLE") = {7};
Physical Surface("WALL_Y") = {2, 4};
Physical Surface("WALL_Z") = {3, 5};
Physical Volume("FLUID") = {1};
