cl__1 = 3.576619;
cl__2 = 0.769716;
cl__3 = 0.641841;
cl__4 = 0.059583;
cl__5 = 0.080107;
Point(1) = {0.094509, -4.087925, 1, cl__1};
Point(2) = {0.094509, -4.087925, 0, cl__1};
Point(3) = {0.094509, 5.593183, 1, cl__1};
Point(4) = {0.094509, 5.593183, 0, cl__1};
Point(5) = {35.437124, -4.087925, 0, cl__2};
Point(6) = {35.437124, -4.087925, 1, cl__2};
Point(7) = {35.437124, 5.593183, 1, cl__3};
Point(8) = {24.885987, 1.823404, 1, cl__4};
Point(9) = {30.101265, 1.790687, 1, cl__5};
Point(10) = {35.437124, 5.593183, 0, cl__3};
Point(11) = {24.885987, 1.823404, 0, cl__4};
Point(12) = {30.101265, 1.790687, 0, cl__5};
Line(1) = {2, 1};
Line(2) = {1, 3};
Line(3) = {4, 3};
Line(4) = {2, 4};
Line(5) = {2, 5};
Line(6) = {5, 6};
Line(7) = {1, 6};
Line(8) = {3, 7};
Line(9) = {6, 7};
p10 = newp;
Point(p10 + 1) = {24.87865130704182, 1.916612816608316, 1};
Point(p10 + 2) = {24.85682485727369, 2.007526522809408, 1};
Point(p10 + 3) = {24.82104509032673, 2.093906521431313, 1};
Point(p10 + 4) = {24.77219302280941, 2.173625850229181, 1};
Point(p10 + 5) = {24.71147155475473, 2.244721554754724, 1};
Point(p10 + 6) = {24.64037585022918, 2.305443022809408, 1};
Point(p10 + 7) = {24.56065652143132, 2.354295090326728, 1};
Point(p10 + 8) = {24.47427652280941, 2.39007485727369, 1};
Point(p10 + 9) = {24.38336281660832, 2.411901307041822, 1};
Point(p10 + 10) = {24.290154, 2.419237, 1};
Point(p10 + 11) = {24.19694518339168, 2.411901307041822, 1};
Point(p10 + 12) = {24.10603147719059, 2.390074857273691, 1};
Point(p10 + 13) = {24.01965147856869, 2.354295090326728, 1};
Point(p10 + 14) = {23.93993214977082, 2.305443022809408, 1};
Point(p10 + 15) = {23.86883644524528, 2.244721554754724, 1};
Point(p10 + 16) = {23.80811497719059, 2.173625850229181, 1};
Point(p10 + 17) = {23.75926290967328, 2.093906521431313, 1};
Point(p10 + 18) = {23.72348314272631, 2.007526522809408, 1};
Point(p10 + 19) = {23.70165669295818, 1.916612816608316, 1};
Point(p10 + 20) = {23.694321, 1.823404, 1};
Point(p10 + 21) = {23.70165669295818, 1.730195183391684, 1};
Point(p10 + 22) = {23.72348314272631, 1.639281477190592, 1};
Point(p10 + 23) = {23.75926290967328, 1.552901478568687, 1};
Point(p10 + 24) = {23.80811497719059, 1.473182149770819, 1};
Point(p10 + 25) = {23.86883644524528, 1.402086445245276, 1};
Point(p10 + 26) = {23.93993214977082, 1.341364977190592, 1};
Point(p10 + 27) = {24.01965147856869, 1.292512909673272, 1};
Point(p10 + 28) = {24.10603147719059, 1.25673314272631, 1};
Point(p10 + 29) = {24.19694518339168, 1.234906692958178, 1};
Point(p10 + 30) = {24.290154, 1.227571, 1};
Point(p10 + 31) = {24.38336281660832, 1.234906692958177, 1};
Point(p10 + 32) = {24.47427652280941, 1.25673314272631, 1};
Point(p10 + 33) = {24.56065652143132, 1.292512909673272, 1};
Point(p10 + 34) = {24.64037585022918, 1.341364977190592, 1};
Point(p10 + 35) = {24.71147155475472, 1.402086445245276, 1};
Point(p10 + 36) = {24.77219302280941, 1.473182149770819, 1};
Point(p10 + 37) = {24.82104509032673, 1.552901478568687, 1};
Point(p10 + 38) = {24.85682485727369, 1.639281477190592, 1};
Point(p10 + 39) = {24.87865130704182, 1.730195183391684, 1};
Spline(10) = {8, p10 + 1, p10 + 2, p10 + 3, p10 + 4, p10 + 5, p10 + 6, p10 + 7, p10 + 8, p10 + 9, p10 + 10, p10 + 11, p10 + 12, p10 + 13, p10 + 14, p10 + 15, p10 + 16, p10 + 17, p10 + 18, p10 + 19, p10 + 20, p10 + 21, p10 + 22, p10 + 23, p10 + 24, p10 + 25, p10 + 26, p10 + 27, p10 + 28, p10 + 29, p10 + 30, p10 + 31, p10 + 32, p10 + 33, p10 + 34, p10 + 35, p10 + 36, p10 + 37, p10 + 38, p10 + 39, 8};
p11 = newp;
Point(p11 + 1) = {30.09140247437723, 1.916002269778708, 1};
Point(p11 + 2) = {30.06205774562159, 2.038231861717928, 1};
Point(p11 + 3) = {30.01395337834462, 2.154366077607358, 1};
Point(p11 + 4) = {29.94827386171793, 2.261545307624436, 1};
Point(p11 + 5) = {29.86663644341867, 2.35713044341867, 1};
Point(p11 + 6) = {29.77105130762444, 2.438767861717928, 1};
Point(p11 + 7) = {29.66387207760736, 2.504447378344624, 1};
Point(p11 + 8) = {29.54773786171793, 2.552551745621591, 1};
Point(p11 + 9) = {29.42550826977871, 2.581896474377228, 1};
Point(p11 + 10) = {29.300193, 2.591759, 1};
Point(p11 + 11) = {29.17487773022129, 2.581896474377228, 1};
Point(p11 + 12) = {29.05264813828207, 2.552551745621591, 1};
Point(p11 + 13) = {28.93651392239264, 2.504447378344624, 1};
Point(p11 + 14) = {28.82933469237556, 2.438767861717928, 1};
Point(p11 + 15) = {28.73374955658133, 2.35713044341867, 1};
Point(p11 + 16) = {28.65211213828207, 2.261545307624436, 1};
Point(p11 + 17) = {28.58643262165538, 2.154366077607358, 1};
Point(p11 + 18) = {28.53832825437841, 2.038231861717928, 1};
Point(p11 + 19) = {28.50898352562277, 1.916002269778708, 1};
Point(p11 + 20) = {28.499121, 1.790687, 1};
Point(p11 + 21) = {28.50898352562277, 1.665371730221292, 1};
Point(p11 + 22) = {28.53832825437841, 1.543142138282072, 1};
Point(p11 + 23) = {28.58643262165538, 1.427007922392642, 1};
Point(p11 + 24) = {28.65211213828207, 1.319828692375564, 1};
Point(p11 + 25) = {28.73374955658133, 1.22424355658133, 1};
Point(p11 + 26) = {28.82933469237556, 1.142606138282072, 1};
Point(p11 + 27) = {28.93651392239264, 1.076926621655376, 1};
Point(p11 + 28) = {29.05264813828207, 1.028822254378409, 1};
Point(p11 + 29) = {29.17487773022129, 0.9994775256227718, 1};
Point(p11 + 30) = {29.300193, 0.9896149999999999, 1};
Point(p11 + 31) = {29.42550826977871, 0.9994775256227717, 1};
Point(p11 + 32) = {29.54773786171793, 1.028822254378408, 1};
Point(p11 + 33) = {29.66387207760736, 1.076926621655376, 1};
Point(p11 + 34) = {29.77105130762444, 1.142606138282072, 1};
Point(p11 + 35) = {29.86663644341867, 1.22424355658133, 1};
Point(p11 + 36) = {29.94827386171793, 1.319828692375564, 1};
Point(p11 + 37) = {30.01395337834462, 1.427007922392642, 1};
Point(p11 + 38) = {30.06205774562159, 1.543142138282072, 1};
Point(p11 + 39) = {30.09140247437723, 1.665371730221292, 1};
Spline(11) = {9, p11 + 1, p11 + 2, p11 + 3, p11 + 4, p11 + 5, p11 + 6, p11 + 7, p11 + 8, p11 + 9, p11 + 10, p11 + 11, p11 + 12, p11 + 13, p11 + 14, p11 + 15, p11 + 16, p11 + 17, p11 + 18, p11 + 19, p11 + 20, p11 + 21, p11 + 22, p11 + 23, p11 + 24, p11 + 25, p11 + 26, p11 + 27, p11 + 28, p11 + 29, p11 + 30, p11 + 31, p11 + 32, p11 + 33, p11 + 34, p11 + 35, p11 + 36, p11 + 37, p11 + 38, p11 + 39, 9};
Line(12) = {4, 10};
Line(13) = {10, 7};
Line(14) = {5, 10};
p15 = newp;
Point(p15 + 1) = {24.87865130704182, 1.916612816608316, 0};
Point(p15 + 2) = {24.85682485727369, 2.007526522809408, 0};
Point(p15 + 3) = {24.82104509032673, 2.093906521431313, 0};
Point(p15 + 4) = {24.77219302280941, 2.173625850229181, 0};
Point(p15 + 5) = {24.71147155475473, 2.244721554754724, 0};
Point(p15 + 6) = {24.64037585022918, 2.305443022809408, 0};
Point(p15 + 7) = {24.56065652143132, 2.354295090326728, 0};
Point(p15 + 8) = {24.47427652280941, 2.39007485727369, 0};
Point(p15 + 9) = {24.38336281660832, 2.411901307041822, 0};
Point(p15 + 10) = {24.290154, 2.419237, 0};
Point(p15 + 11) = {24.19694518339168, 2.411901307041822, 0};
Point(p15 + 12) = {24.10603147719059, 2.390074857273691, 0};
Point(p15 + 13) = {24.01965147856869, 2.354295090326728, 0};
Point(p15 + 14) = {23.93993214977082, 2.305443022809408, 0};
Point(p15 + 15) = {23.86883644524528, 2.244721554754724, 0};
Point(p15 + 16) = {23.80811497719059, 2.173625850229181, 0};
Point(p15 + 17) = {23.75926290967328, 2.093906521431313, 0};
Point(p15 + 18) = {23.72348314272631, 2.007526522809408, 0};
Point(p15 + 19) = {23.70165669295818, 1.916612816608316, 0};
Point(p15 + 20) = {23.694321, 1.823404, 0};
Point(p15 + 21) = {23.70165669295818, 1.730195183391684, 0};
Point(p15 + 22) = {23.72348314272631, 1.639281477190592, 0};
Point(p15 + 23) = {23.75926290967328, 1.552901478568687, 0};
Point(p15 + 24) = {23.80811497719059, 1.473182149770819, 0};
Point(p15 + 25) = {23.86883644524528, 1.402086445245276, 0};
Point(p15 + 26) = {23.93993214977082, 1.341364977190592, 0};
Point(p15 + 27) = {24.01965147856869, 1.292512909673272, 0};
Point(p15 + 28) = {24.10603147719059, 1.25673314272631, 0};
Point(p15 + 29) = {24.19694518339168, 1.234906692958178, 0};
Point(p15 + 30) = {24.290154, 1.227571, 0};
Point(p15 + 31) = {24.38336281660832, 1.234906692958177, 0};
Point(p15 + 32) = {24.47427652280941, 1.25673314272631, 0};
Point(p15 + 33) = {24.56065652143132, 1.292512909673272, 0};
Point(p15 + 34) = {24.64037585022918, 1.341364977190592, 0};
Point(p15 + 35) = {24.71147155475472, 1.402086445245276, 0};
Point(p15 + 36) = {24.77219302280941, 1.473182149770819, 0};
Point(p15 + 37) = {24.82104509032673, 1.552901478568687, 0};
Point(p15 + 38) = {24.85682485727369, 1.639281477190592, 0};
Point(p15 + 39) = {24.87865130704182, 1.730195183391684, 0};
Spline(15) = {11, p15 + 1, p15 + 2, p15 + 3, p15 + 4, p15 + 5, p15 + 6, p15 + 7, p15 + 8, p15 + 9, p15 + 10, p15 + 11, p15 + 12, p15 + 13, p15 + 14, p15 + 15, p15 + 16, p15 + 17, p15 + 18, p15 + 19, p15 + 20, p15 + 21, p15 + 22, p15 + 23, p15 + 24, p15 + 25, p15 + 26, p15 + 27, p15 + 28, p15 + 29, p15 + 30, p15 + 31, p15 + 32, p15 + 33, p15 + 34, p15 + 35, p15 + 36, p15 + 37, p15 + 38, p15 + 39, 11};
p16 = newp;
Point(p16 + 1) = {30.09140247437723, 1.916002269778708, 0};
Point(p16 + 2) = {30.06205774562159, 2.038231861717928, 0};
Point(p16 + 3) = {30.01395337834462, 2.154366077607358, 0};
Point(p16 + 4) = {29.94827386171793, 2.261545307624436, 0};
Point(p16 + 5) = {29.86663644341867, 2.35713044341867, 0};
Point(p16 + 6) = {29.77105130762444, 2.438767861717928, 0};
Point(p16 + 7) = {29.66387207760736, 2.504447378344624, 0};
Point(p16 + 8) = {29.54773786171793, 2.552551745621591, 0};
Point(p16 + 9) = {29.42550826977871, 2.581896474377228, 0};
Point(p16 + 10) = {29.300193, 2.591759, 0};
Point(p16 + 11) = {29.17487773022129, 2.581896474377228, 0};
Point(p16 + 12) = {29.05264813828207, 2.552551745621591, 0};
Point(p16 + 13) = {28.93651392239264, 2.504447378344624, 0};
Point(p16 + 14) = {28.82933469237556, 2.438767861717928, 0};
Point(p16 + 15) = {28.73374955658133, 2.35713044341867, 0};
Point(p16 + 16) = {28.65211213828207, 2.261545307624436, 0};
Point(p16 + 17) = {28.58643262165538, 2.154366077607358, 0};
Point(p16 + 18) = {28.53832825437841, 2.038231861717928, 0};
Point(p16 + 19) = {28.50898352562277, 1.916002269778708, 0};
Point(p16 + 20) = {28.499121, 1.790687, 0};
Point(p16 + 21) = {28.50898352562277, 1.665371730221292, 0};
Point(p16 + 22) = {28.53832825437841, 1.543142138282072, 0};
Point(p16 + 23) = {28.58643262165538, 1.427007922392642, 0};
Point(p16 + 24) = {28.65211213828207, 1.319828692375564, 0};
Point(p16 + 25) = {28.73374955658133, 1.22424355658133, 0};
Point(p16 + 26) = {28.82933469237556, 1.142606138282072, 0};
Point(p16 + 27) = {28.93651392239264, 1.076926621655376, 0};
Point(p16 + 28) = {29.05264813828207, 1.028822254378409, 0};
Point(p16 + 29) = {29.17487773022129, 0.9994775256227718, 0};
Point(p16 + 30) = {29.300193, 0.9896149999999999, 0};
Point(p16 + 31) = {29.42550826977871, 0.9994775256227717, 0};
Point(p16 + 32) = {29.54773786171793, 1.028822254378408, 0};
Point(p16 + 33) = {29.66387207760736, 1.076926621655376, 0};
Point(p16 + 34) = {29.77105130762444, 1.142606138282072, 0};
Point(p16 + 35) = {29.86663644341867, 1.22424355658133, 0};
Point(p16 + 36) = {29.94827386171793, 1.319828692375564, 0};
Point(p16 + 37) = {30.01395337834462, 1.427007922392642, 0};
Point(p16 + 38) = {30.06205774562159, 1.543142138282072, 0};
Point(p16 + 39) = {30.09140247437723, 1.665371730221292, 0};
Spline(16) = {12, p16 + 1, p16 + 2, p16 + 3, p16 + 4, p16 + 5, p16 + 6, p16 + 7, p16 + 8, p16 + 9, p16 + 10, p16 + 11, p16 + 12, p16 + 13, p16 + 14, p16 + 15, p16 + 16, p16 + 17, p16 + 18, p16 + 19, p16 + 20, p16 + 21, p16 + 22, p16 + 23, p16 + 24, p16 + 25, p16 + 26, p16 + 27, p16 + 28, p16 + 29, p16 + 30, p16 + 31, p16 + 32, p16 + 33, p16 + 34, p16 + 35, p16 + 36, p16 + 37, p16 + 38, p16 + 39, 12};
Line(17) = {11, 8};
Line(18) = {12, 9};
Curve Loop(1) = {-1, 4, 3, -2};
Plane Surface(1) = {1};
Curve Loop(2) = {-5, 1, 7, -6};
Plane Surface(2) = {2};
Curve Loop(3) = {-2, 7, 9, -8, -10, -11};
Plane Surface(3) = {3};
Curve Loop(4) = {-12, 3, 8, -13};
Plane Surface(4) = {4};
Curve Loop(5) = {-4, 5, 14, -12, -15, -16};
Plane Surface(5) = {5};
Curve Loop(6) = {-6, 14, 13, -9};
Plane Surface(6) = {6};
Curve Loop(7) = {-10, -17, 15, 17};
Surface(7) = {7};
Curve Loop(8) = {-11, -18, 16, 18};
Surface(8) = {8};
Surface Loop(1) = {1, 2, 3, 4, 5, 6, 7, 8};
Volume(1) = {1};
Physical Surface("INFLOW") = {1};
Physical Surface("OUTFLOW") = {6};
Physical Surface("OBSTACLE") = {7, 8};
Physical Surface("WALL_Y") = {2, 4};
Physical Surface("WALL_Z") = {3, 5};
Physical Volume("FLUID") = {1};
