cl__1 = 3.755397;
cl__2 = 1.219215;
cl__3 = 1.258517;
cl__4 = 0.081375;
Point(1) = {0.920521, -2.955034, 1, cl__1};
Point(2) = {0.920521, -2.955034, 0, cl__1};
Point(3) = {0.920521, 4.700669, 1, cl__1};
Point(4) = {0.920521, 4.700669, 0, cl__1};
Point(5) = {37.358373, -2.955034, 0, cl__2};
Point(6) = {37.358373, -2.955034, 1, cl__2};
Point(7) = {37.358373, 4.700669, 1, cl__3};
Point(8) = {25.553469, 0.1950459999999998, 1, cl__4};
Point(9) = {37.358373, 4.700669, 0, cl__3};
Point(10) = {25.553469, 0.1950459999999998, 0, cl__4};
Line(1) = {2, 1};
Line(2) = {1, 3};
Line(3) = {4, 3};
Line(4) = {2, 4};
Line(5) = {2, 5};
Line(6) = {5, 6};
Line(7) = {1, 6};
Line(8) = {3, 7};
Line(9) = {6, 7};
p10 = newp;
Point(p10 + 1) = {25.54345035022432, 0.322345015229883, 1};
Point(p10 + 2) = {25.51364109330473, 0.4465095062235965, 1};
Point(p10 + 3) = {25.46477523207786, 0.5644821311345554, 1};
Point(p10 + 4) = {25.3980560062236, 0.6733580124087568, 1};
Point(p10 + 5) = {25.3151262645109, 0.7704562645108965, 1};
Point(p10 + 6) = {25.21802801240876, 0.8533860062235965, 1};
Point(p10 + 7) = {25.10915213113456, 0.9201052320778569, 1};
Point(p10 + 8) = {24.9911795062236, 0.96897109330473, 1};
Point(p10 + 9) = {24.86701501522989, 0.9987803502243151, 1};
Point(p10 + 10) = {24.739716, 1.008799, 1};
Point(p10 + 11) = {24.61241698477012, 0.9987803502243151, 1};
Point(p10 + 12) = {24.4882524937764, 0.9689710933047302, 1};
Point(p10 + 13) = {24.37027986886545, 0.9201052320778569, 1};
Point(p10 + 14) = {24.26140398759124, 0.8533860062235965, 1};
Point(p10 + 15) = {24.1643057354891, 0.7704562645108965, 1};
Point(p10 + 16) = {24.0813759937764, 0.6733580124087569, 1};
Point(p10 + 17) = {24.01465676792214, 0.5644821311345555, 1};
Point(p10 + 18) = {23.96579090669527, 0.4465095062235966, 1};
Point(p10 + 19) = {23.93598164977569, 0.3223450152298831, 1};
Point(p10 + 20) = {23.925963, 0.1950460000000001, 1};
Point(p10 + 21) = {23.93598164977569, 0.06774698477011712, 1};
Point(p10 + 22) = {23.96579090669527, -0.05641750622359681, 1};
Point(p10 + 23) = {24.01465676792214, -0.174390131134555, 1};
Point(p10 + 24) = {24.0813759937764, -0.2832660124087568, 1};
Point(p10 + 25) = {24.1643057354891, -0.3803642645108965, 1};
Point(p10 + 26) = {24.26140398759124, -0.4632940062235965, 1};
Point(p10 + 27) = {24.37027986886545, -0.5300132320778568, 1};
Point(p10 + 28) = {24.4882524937764, -0.5788790933047301, 1};
Point(p10 + 29) = {24.61241698477012, -0.608688350224315, 1};
Point(p10 + 30) = {24.739716, -0.6187069999999999, 1};
Point(p10 + 31) = {24.86701501522989, -0.608688350224315, 1};
Point(p10 + 32) = {24.9911795062236, -0.5788790933047301, 1};
Point(p10 + 33) = {25.10915213113456, -0.530013232077857, 1};
Point(p10 + 34) = {25.21802801240876, -0.4632940062235967, 1};
Point(p10 + 35) = {25.3151262645109, -0.3803642645108967, 1};
Point(p10 + 36) = {25.3980560062236, -0.283266012408757, 1};
Point(p10 + 37) = {25.46477523207786, -0.1743901311345555, 1};
Point(p10 + 38) = {25.51364109330473, -0.05641750622359676, 1};
Point(p10 + 39) = {25.54345035022432, 0.06774698477011684, 1};
Spline(10) = {8, p10 + 1, p10 + 2, p10 + 3, p10 + 4, p10 + 5, p10 + 6, p10 + 7, p10 + 8, p10 + 9, p10 + 10, p10 + 11, p10 + 12, p10 + 13, p10 + 14, p10 + 15, p10 + 16, p10 + 17, p10 + 18, p10 + 19, p10 + 20, p10 + 21, p10 + 22, p10 + 23, p10 + 24, p10 + 25, p10 + 26, p10 + 27, p10 + 28, p10 + 29, p10 + 30, p10 + 31, p10 + 32, p10 + 33, p10 + 34, p10 + 35, p10 + 36, p10 + 37, p10 + 38, p10 + 39, 8};
Line(11) = {4, 9};
Line(12) = {9, 7};
Line(13) = {5, 9};
p14 = newp;
Point(p14 + 1) = {25.54345035022432, 0.322345015229883, 0};
Point(p14 + 2) = {25.51364109330473, 0.4465095062235965, 0};
Point(p14 + 3) = {25.46477523207786, 0.5644821311345554, 0};
Point(p14 + 4) = {25.3980560062236, 0.6733580124087568, 0};
Point(p14 + 5) = {25.3151262645109, 0.7704562645108965, 0};
Point(p14 + 6) = {25.21802801240876, 0.8533860062235965, 0};
Point(p14 + 7) = {25.10915213113456, 0.9201052320778569, 0};
Point(p14 + 8) = {24.9911795062236, 0.96897109330473, 0};
Point(p14 + 9) = {24.86701501522989, 0.9987803502243151, 0};
Point(p14 + 10) = {24.739716, 1.008799, 0};
Point(p14 + 11) = {24.61241698477012, 0.9987803502243151, 0};
Point(p14 + 12) = {24.4882524937764, 0.9689710933047302, 0};
Point(p14 + 13) = {24.37027986886545, 0.9201052320778569, 0};
Point(p14 + 14) = {24.26140398759124, 0.8533860062235965, 0};
Point(p14 + 15) = {24.1643057354891, 0.7704562645108965, 0};
Point(p14 + 16) = {24.0813759937764, 0.6733580124087569, 0};
Point(p14 + 17) = {24.01465676792214, 0.5644821311345555, 0};
Point(p14 + 18) = {23.96579090669527, 0.4465095062235966, 0};
Point(p14 + 19) = {23.93598164977569, 0.3223450152298831, 0};
Point(p14 + 20) = {23.925963, 0.1950460000000001, 0};
Point(p14 + 21) = {23.93598164977569, 0.06774698477011712, 0};
Point(p14 + 22) = {23.96579090669527, -0.05641750622359681, 0};
Point(p14 + 23) = {24.01465676792214, -0.174390131134555, 0};
Point(p14 + 24) = {24.0813759937764, -0.2832660124087568, 0};
Point(p14 + 25) = {24.1643057354891, -0.3803642645108965, 0};
Point(p14 + 26) = {24.26140398759124, -0.4632940062235965, 0};
Point(p14 + 27) = {24.37027986886545, -0.5300132320778568, 0};
Point(p14 + 28) = {24.4882524937764, -0.5788790933047301, 0};
Point(p14 + 29) = {24.61241698477012, -0.608688350224315, 0};
Point(p14 + 30) = {24.739716, -0.6187069999999999, 0};
Point(p14 + 31) = {24.86701501522989, -0.608688350224315, 0};
Point(p14 + 32) = {24.9911795062236, -0.5788790933047301, 0};
Point(p14 + 33) = {25.10915213113456, -0.530013232077857, 0};
Point(p14 + 34) = {25.21802801240876, -0.4632940062235967, 0};
Point(p14 + 35) = {25.3151262645109, -0.3803642645108967, 0};
Point(p14 + 36) = {25.3980560062236, -0.283266012408757, 0};
Point(p14 + 37) = {25.46477523207786, -0.1743901311345555, 0};
Point(p14 + 38) = {25.51364109330473, -0.05641750622359676, 0};
Point(p14 + 39) = {25.54345035022432, 0.06774698477011684, 0};
Spline(14) = {10, p14 + 1, p14 + 2, p14 + 3, p14 + 4, p14 + 5, p14 + 6, p14 + 7, p14 + 8, p14 + 9, p14 + 10, p14 + 11, p14 + 12, p14 + 13, p14 + 14, p14 + 15, p14 + 16, p14 + 17, p14 + 18, p14 + 19, p14 + 20, p14 + 21, p14 + 22, p14 + 23, p14 + 24, p14 + 25, p14 + 26, p14 + 27, p14 + 28, p14 + 29, p14 + 30, p14 + 31, p14 + 32, p14 + 33, p14 + 34, p14 + 35, p14 + 36, p14 + 37, p14 + 38, p14 + 39, 10};
Line(15) = {10, 8};
Curve Loop(1) = {-1, 4, 3, -2};
Plane Surface(1) = {1};
Curve Loop(2) = {-5, 1, 7, -6};
Plane Surface(2) = {2};
Curve Loop(3) = {-2, 7, 9, -8, -10};
Plane Surface(3) = {3};
Curve Loop(4) = {-11, 3, 8, -12};
Plane Surface(4) = {4};
Curve Loop(5) = {-4, 5, 13, -11, -14};
Plane Surface(5) = {5};
Curve Loop(6) = {-6, 13, 12, -9};
Plane Surface(6) = {6};
Curve Loop(7) = {-10, -15, 14, 15};
Surface(7) = {7};
Surface Loop(1) = {1, 2, 3, 4, 5, 6, 7};
Volume(1) = {1};
Physical Surface("INFLOW") = {1};
Physical Surface("OUTFLOW") = {6};
Physical Surface("OBSTACLE") = {7};
Physical Surface("WALL_Y") = {2, 4};
Physical Surface("WALL_Z") = {3, 5};
Physical Volume("FLUID") = {1};
