cl__1 = 1.063607;
cl__2 = 0.853043;
cl__3 = 3.87106;
cl__4 = 0.148212;
cl__5 = 0.094296;
Point(1) = {0.470147, -4.579371, 1, cl__1};
Point(2) = {0.470147, -4.579371, 0, cl__1};
Point(3) = {0.470147, 4.963756, 1, cl__2};
Point(4) = {0.470147, 4.963756, 0, cl__2};
Point(5) = {38.41539299999999, -4.579371, 0, cl__1};
Point(6) = {38.41539299999999, -4.579371, 1, cl__1};
Point(7) = {38.41539299999999, 4.963756, 1, cl__3};
Point(8) = {31.100229, 0.2017329999999996, 1, cl__4};
Point(9) = {10.506948, 2.588337999999999, 1, cl__5};
Point(10) = {38.41539299999999, 4.963756, 0, cl__3};
Point(11) = {31.100229, 0.2017329999999996, 0, cl__4};
Point(12) = {10.506948, 2.588337999999999, 0, cl__5};
Line(1) = {2, 1};
Line(2) = {1, 3};
Line(3) = {4, 3};
Line(4) = {2, 4};
Line(5) = {2, 5};
Line(6) = {5, 6};
Line(7) = {1, 6};
Line(8) = {3, 7};
Line(9) = {6, 7};
p10 = newp;
Point(p10 + 1) = {31.0819816926095, 0.4335870235875668, 1};
Point(p10 + 2) = {31.02768907970531, 0.6597320316350195, 1};
Point(p10 + 3) = {30.93868802560397, 0.874599583511978, 1};
Point(p10 + 4) = {30.81717003163502, 1.072898926986711, 1};
Point(p10 + 5) = {30.66612727410508, 1.249747274105081, 1};
Point(p10 + 6) = {30.48927892698671, 1.400790031635019, 1};
Point(p10 + 7) = {30.29097958351198, 1.522308025603967, 1};
Point(p10 + 8) = {30.07611203163502, 1.611309079705308, 1};
Point(p10 + 9) = {29.84996702358757, 1.665601692609503, 1};
Point(p10 + 10) = {29.618113, 1.683849, 1};
Point(p10 + 11) = {29.38625897641244, 1.665601692609503, 1};
Point(p10 + 12) = {29.16011396836498, 1.611309079705308, 1};
Point(p10 + 13) = {28.94524641648802, 1.522308025603967, 1};
Point(p10 + 14) = {28.74694707301329, 1.400790031635019, 1};
Point(p10 + 15) = {28.57009872589492, 1.249747274105081, 1};
Point(p10 + 16) = {28.41905596836498, 1.072898926986711, 1};
Point(p10 + 17) = {28.29753797439603, 0.8745995835119782, 1};
Point(p10 + 18) = {28.20853692029469, 0.6597320316350197, 1};
Point(p10 + 19) = {28.1542443073905, 0.433587023587567, 1};
Point(p10 + 20) = {28.135997, 0.2017330000000002, 1};
Point(p10 + 21) = {28.1542443073905, -0.0301210235875666, 1};
Point(p10 + 22) = {28.20853692029469, -0.25626603163502, 1};
Point(p10 + 23) = {28.29753797439603, -0.4711335835119774, 1};
Point(p10 + 24) = {28.41905596836498, -0.669432926986711, 1};
Point(p10 + 25) = {28.57009872589492, -0.8462812741050811, 1};
Point(p10 + 26) = {28.74694707301329, -0.9973240316350196, 1};
Point(p10 + 27) = {28.94524641648802, -1.118842025603967, 1};
Point(p10 + 28) = {29.16011396836498, -1.207843079705308, 1};
Point(p10 + 29) = {29.38625897641244, -1.262135692609503, 1};
Point(p10 + 30) = {29.618113, -1.280383, 1};
Point(p10 + 31) = {29.84996702358757, -1.262135692609503, 1};
Point(p10 + 32) = {30.07611203163502, -1.207843079705308, 1};
Point(p10 + 33) = {30.29097958351198, -1.118842025603967, 1};
Point(p10 + 34) = {30.48927892698671, -0.9973240316350198, 1};
Point(p10 + 35) = {30.66612727410508, -0.8462812741050814, 1};
Point(p10 + 36) = {30.81717003163502, -0.6694329269867114, 1};
Point(p10 + 37) = {30.93868802560397, -0.4711335835119784, 1};
Point(p10 + 38) = {31.02768907970531, -0.2562660316350199, 1};
Point(p10 + 39) = {31.0819816926095, -0.03012102358756716, 1};
Spline(10) = {8, p10 + 1, p10 + 2, p10 + 3, p10 + 4, p10 + 5, p10 + 6, p10 + 7, p10 + 8, p10 + 9, p10 + 10, p10 + 11, p10 + 12, p10 + 13, p10 + 14, p10 + 15, p10 + 16, p10 + 17, p10 + 18, p10 + 19, p10 + 20, p10 + 21, p10 + 22, p10 + 23, p10 + 24, p10 + 25, p10 + 26, p10 + 27, p10 + 28, p10 + 29, p10 + 30, p10 + 31, p10 + 32, p10 + 33, p10 + 34, p10 + 35, p10 + 36, p10 + 37, p10 + 38, p10 + 39, 8};
p11 = newp;
Point(p11 + 1) = {10.49533858533593, 2.735849599588801, 1};
Point(p11 + 2) = {10.46079620366219, 2.879728974032794, 1};
Point(p11 + 3) = {10.40417140305519, 3.016433335624903, 1};
Point(p11 + 4) = {10.32685847403279, 3.142596569286963, 1};
Point(p11 + 5) = {10.23076111749445, 3.255112117494448, 1};
Point(p11 + 6) = {10.11824556928696, 3.351209474032795, 1};
Point(p11 + 7) = {9.992082335624902, 3.428522403055188, 1};
Point(p11 + 8) = {9.855377974032795, 3.485147203662194, 1};
Point(p11 + 9) = {9.711498599588801, 3.519689585335931, 1};
Point(p11 + 10) = {9.563986999999999, 3.531299, 1};
Point(p11 + 11) = {9.416475400411198, 3.519689585335931, 1};
Point(p11 + 12) = {9.272596025967204, 3.485147203662194, 1};
Point(p11 + 13) = {9.135891664375096, 3.428522403055188, 1};
Point(p11 + 14) = {9.009728430713036, 3.351209474032795, 1};
Point(p11 + 15) = {8.897212882505551, 3.255112117494448, 1};
Point(p11 + 16) = {8.801115525967205, 3.142596569286963, 1};
Point(p11 + 17) = {8.723802596944811, 3.016433335624903, 1};
Point(p11 + 18) = {8.667177796337805, 2.879728974032795, 1};
Point(p11 + 19) = {8.632635414664067, 2.735849599588801, 1};
Point(p11 + 20) = {8.621025999999999, 2.588338, 1};
Point(p11 + 21) = {8.632635414664067, 2.440826400411199, 1};
Point(p11 + 22) = {8.667177796337805, 2.296947025967205, 1};
Point(p11 + 23) = {8.723802596944811, 2.160242664375097, 1};
Point(p11 + 24) = {8.801115525967203, 2.034079430713037, 1};
Point(p11 + 25) = {8.897212882505551, 1.921563882505552, 1};
Point(p11 + 26) = {9.009728430713036, 1.825466525967205, 1};
Point(p11 + 27) = {9.135891664375096, 1.748153596944812, 1};
Point(p11 + 28) = {9.272596025967204, 1.691528796337805, 1};
Point(p11 + 29) = {9.416475400411198, 1.656986414664068, 1};
Point(p11 + 30) = {9.563986999999999, 1.645377, 1};
Point(p11 + 31) = {9.711498599588801, 1.656986414664068, 1};
Point(p11 + 32) = {9.855377974032793, 1.691528796337805, 1};
Point(p11 + 33) = {9.992082335624902, 1.748153596944812, 1};
Point(p11 + 34) = {10.11824556928696, 1.825466525967205, 1};
Point(p11 + 35) = {10.23076111749445, 1.921563882505552, 1};
Point(p11 + 36) = {10.32685847403279, 2.034079430713037, 1};
Point(p11 + 37) = {10.40417140305519, 2.160242664375097, 1};
Point(p11 + 38) = {10.46079620366219, 2.296947025967205, 1};
Point(p11 + 39) = {10.49533858533593, 2.440826400411198, 1};
Spline(11) = {9, p11 + 1, p11 + 2, p11 + 3, p11 + 4, p11 + 5, p11 + 6, p11 + 7, p11 + 8, p11 + 9, p11 + 10, p11 + 11, p11 + 12, p11 + 13, p11 + 14, p11 + 15, p11 + 16, p11 + 17, p11 + 18, p11 + 19, p11 + 20, p11 + 21, p11 + 22, p11 + 23, p11 + 24, p11 + 25, p11 + 26, p11 + 27, p11 + 28, p11 + 29, p11 + 30, p11 + 31, p11 + 32, p11 + 33, p11 + 34, p11 + 35, p11 + 36, p11 + 37, p11 + 38, p11 + 39, 9};
Line(12) = {4, 10};
Line(13) = {10, 7};
Line(14) = {5, 10};
p15 = newp;
Point(p15 + 1) = {31.0819816926095, 0.4335870235875668, 0};
Point(p15 + 2) = {31.02768907970531, 0.6597320316350195, 0};
Point(p15 + 3) = {30.93868802560397, 0.874599583511978, 0};
Point(p15 + 4) = {30.81717003163502, 1.072898926986711, 0};
Point(p15 + 5) = {30.66612727410508, 1.249747274105081, 0};
Point(p15 + 6) = {30.48927892698671, 1.400790031635019, 0};
Point(p15 + 7) = {30.29097958351198, 1.522308025603967, 0};
Point(p15 + 8) = {30.07611203163502, 1.611309079705308, 0};
Point(p15 + 9) = {29.84996702358757, 1.665601692609503, 0};
Point(p15 + 10) = {29.618113, 1.683849, 0};
Point(p15 + 11) = {29.38625897641244, 1.665601692609503, 0};
Point(p15 + 12) = {29.16011396836498, 1.611309079705308, 0};
Point(p15 + 13) = {28.94524641648802, 1.522308025603967, 0};
Point(p15 + 14) = {28.74694707301329, 1.400790031635019, 0};
Point(p15 + 15) = {28.57009872589492, 1.249747274105081, 0};
Point(p15 + 16) = {28.41905596836498, 1.072898926986711, 0};
Point(p15 + 17) = {28.29753797439603, 0.8745995835119782, 0};
Point(p15 + 18) = {28.20853692029469, 0.6597320316350197, 0};
Point(p15 + 19) = {28.1542443073905, 0.433587023587567, 0};
Point(p15 + 20) = {28.135997, 0.2017330000000002, 0};
Point(p15 + 21) = {28.1542443073905, -0.0301210235875666, 0};
Point(p15 + 22) = {28.20853692029469, -0.25626603163502, 0};
Point(p15 + 23) = {28.29753797439603, -0.4711335835119774, 0};
Point(p15 + 24) = {28.41905596836498, -0.669432926986711, 0};
Point(p15 + 25) = {28.57009872589492, -0.8462812741050811, 0};
Point(p15 + 26) = {28.74694707301329, -0.9973240316350196, 0};
Point(p15 + 27) = {28.94524641648802, -1.118842025603967, 0};
Point(p15 + 28) = {29.16011396836498, -1.207843079705308, 0};
Point(p15 + 29) = {29.38625897641244, -1.262135692609503, 0};
Point(p15 + 30) = {29.618113, -1.280383, 0};
Point(p15 + 31) = {29.84996702358757, -1.262135692609503, 0};
Point(p15 + 32) = {30.07611203163502, -1.207843079705308, 0};
Point(p15 + 33) = {30.29097958351198, -1.118842025603967, 0};
Point(p15 + 34) = {30.48927892698671, -0.9973240316350198, 0};
Point(p15 + 35) = {30.66612727410508, -0.8462812741050814, 0};
Point(p15 + 36) = {30.81717003163502, -0.6694329269867114, 0};
Point(p15 + 37) = {30.93868802560397, -0.4711335835119784, 0};
Point(p15 + 38) = {31.02768907970531, -0.2562660316350199, 0};
Point(p15 + 39) = {31.0819816926095, -0.03012102358756716, 0};
Spline(15) = {11, p15 + 1, p15 + 2, p15 + 3, p15 + 4, p15 + 5, p15 + 6, p15 + 7, p15 + 8, p15 + 9, p15 + 10, p15 + 11, p15 + 12, p15 + 13, p15 + 14, p15 + 15, p15 + 16, p15 + 17, p15 + 18, p15 + 19, p15 + 20, p15 + 21, p15 + 22, p15 + 23, p15 + 24, p15 + 25, p15 + 26, p15 + 27, p15 + 28, p15 + 29, p15 + 30, p15 + 31, p15 + 32, p15 + 33, p15 + 34, p15 + 35, p15 + 36, p15 + 37, p15 + 38, p15 + 39, 11};
p16 = newp;
Point(p16 + 1) = {10.49533858533593, 2.735849599588801, 0};
Point(p16 + 2) = {10.46079620366219, 2.879728974032794, 0};
Point(p16 + 3) = {10.40417140305519, 3.016433335624903, 0};
Point(p16 + 4) = {10.32685847403279, 3.142596569286963, 0};
Point(p16 + 5) = {10.23076111749445, 3.255112117494448, 0};
Point(p16 + 6) = {10.11824556928696, 3.351209474032795, 0};
Point(p16 + 7) = {9.992082335624902, 3.428522403055188, 0};
Point(p16 + 8) = {9.855377974032795, 3.485147203662194, 0};
Point(p16 + 9) = {9.711498599588801, 3.519689585335931, 0};
Point(p16 + 10) = {9.563986999999999, 3.531299, 0};
Point(p16 + 11) = {9.416475400411198, 3.519689585335931, 0};
Point(p16 + 12) = {9.272596025967204, 3.485147203662194, 0};
Point(p16 + 13) = {9.135891664375096, 3.428522403055188, 0};
Point(p16 + 14) = {9.009728430713036, 3.351209474032795, 0};
Point(p16 + 15) = {8.897212882505551, 3.255112117494448, 0};
Point(p16 + 16) = {8.801115525967205, 3.142596569286963, 0};
Point(p16 + 17) = {8.723802596944811, 3.016433335624903, 0};
Point(p16 + 18) = {8.667177796337805, 2.879728974032795, 0};
Point(p16 + 19) = {8.632635414664067, 2.735849599588801, 0};
Point(p16 + 20) = {8.621025999999999, 2.588338, 0};
Point(p16 + 21) = {8.632635414664067, 2.440826400411199, 0};
Point(p16 + 22) = {8.667177796337805, 2.296947025967205, 0};
Point(p16 + 23) = {8.723802596944811, 2.160242664375097, 0};
Point(p16 + 24) = {8.801115525967203, 2.034079430713037, 0};
Point(p16 + 25) = {8.897212882505551, 1.921563882505552, 0};
Point(p16 + 26) = {9.009728430713036, 1.825466525967205, 0};
Point(p16 + 27) = {9.135891664375096, 1.748153596944812, 0};
Point(p16 + 28) = {9.272596025967204, 1.691528796337805, 0};
Point(p16 + 29) = {9.416475400411198, 1.656986414664068, 0};
Point(p16 + 30) = {9.563986999999999, 1.645377, 0};
Point(p16 + 31) = {9.711498599588801, 1.656986414664068, 0};
Point(p16 + 32) = {9.855377974032793, 1.691528796337805, 0};
Point(p16 + 33) = {9.992082335624902, 1.748153596944812, 0};
Point(p16 + 34) = {10.11824556928696, 1.825466525967205, 0};
Point(p16 + 35) = {10.23076111749445, 1.921563882505552, 0};
Point(p16 + 36) = {10.32685847403279, 2.034079430713037, 0};
Point(p16 + 37) = {10.40417140305519, 2.160242664375097, 0};
Point(p16 + 38) = {10.46079620366219, 2.296947025967205, 0};
Point(p16 + 39) = {10.49533858533593, 2.440826400411198, 0};
Spline(16) = {12, p16 + 1, p16 + 2, p16 + 3, p16 + 4, p16 + 5, p16 + 6, p16 + 7, p16 + 8, p16 + 9, p16 + 10, p16 + 11, p16 + 12, p16 + 13, p16 + 14, p16 + 15, p16 + 16, p16 + 17, p16 + 18, p16 + 19, p16 + 20, p16 + 21, p16 + 22, p16 + 23, p16 + 24, p16 + 25, p16 + 26, p16 + 27, p16 + 28, p16 + 29, p16 + 30, p16 + 31, p16 + 32, p16 + 33, p16 + 34, p16 + 35, p16 + 36, p16 + 37, p16 + 38, p16 + 39, 12};
Line(17) = {11, 8};
Line(18) = {12, 9};
Curve Loop(1) = {-1, 4, 3, -2};
Plane Surface(1) = {1};
Curve Loop(2) = {-5, 1, 7, -6};
Plane Surface(2) = {2};
Curve Loop(3) = {-2, 7, 9, -8, -10, -11};
Plane Surface(3) = {3};
Curve Loop(4) = {-12, 3, 8, -13};
Plane Surface(4) = {4};
Curve Loop(5) = {-4, 5, 14, -12, -15, -16};
Plane Surface(5) = {5};
Curve Loop(6) = {-6, 14, 13, -9};
Plane Surface(6) = {6};
Curve Loop(7) = {-10, -17, 15, 17};
Surface(7) = {7};
Curve Loop(8) = {-11, -18, 16, 18};
Surface(8) = {8};
Surface Loop(1) = {1, 2, 3, 4, 5, 6, 7, 8};
Volume(1) = {1};
Physical Surface("INFLOW") = {1};
Physical Surface("OUTFLOW") = {6};
Physical Surface("OBSTACLE") = {7, 8};
Physical Surface("WALL_Y") = {2, 4};
Physical Surface("WALL_Z") = {3, 5};
Physical Volume("FLUID") = {1};
