cl__1 = 1.100517;
cl__2 = 0.70503;
cl__3 = 3.639181;
cl__4 = 0.07031999999999999;
cl__5 = 0.089073;
Point(1) = {0.082428, -3.56027, 1, cl__1};
Point(2) = {0.082428, -3.56027, 0, cl__1};
Point(3) = {0.082428, 4.633399, 1, cl__2};
Point(4) = {0.082428, 4.633399, 0, cl__2};
Point(5) = {36.160471, -3.56027, 0, cl__1};
Point(6) = {36.160471, -3.56027, 1, cl__1};
Point(7) = {36.160471, 4.633399, 1, cl__3};
Point(8) = {11.909576, 0.09262699999999983, 1, cl__4};
Point(9) = {30.110565, 0.2981689999999998, 1, cl__5};
Point(10) = {36.160471, 4.633399, 0, cl__3};
Point(11) = {11.909576, 0.09262699999999983, 0, cl__4};
Point(12) = {30.110565, 0.2981689999999998, 0, cl__5};
Line(1) = {2, 1};
Line(2) = {1, 3};
Line(3) = {4, 3};
Line(4) = {2, 4};
Line(5) = {2, 5};
Line(6) = {5, 6};
Line(7) = {1, 6};
Line(8) = {3, 7};
Line(9) = {6, 7};
p10 = newp;
Point(p10 + 1) = {11.90091847804148, 0.2026312465128952, 1};
Point(p10 + 2) = {11.8751590890892, 0.3099268233934799, 1};
Point(p10 + 3) = {11.83293211478969, 0.41187175744535, 1};
Point(p10 + 4) = {11.77527732339348, 0.5059558260563102, 1};
Point(p10 + 5) = {11.70361436721004, 0.5898623672100366, 1};
Point(p10 + 6) = {11.61970782605631, 0.6615253233934799, 1};
Point(p10 + 7) = {11.52562375744535, 0.7191801147896877, 1};
Point(p10 + 8) = {11.42367882339348, 0.7614070890892031, 1};
Point(p10 + 9) = {11.3163832465129, 0.7871664780414791, 1};
Point(p10 + 10) = {11.206379, 0.795824, 1};
Point(p10 + 11) = {11.0963747534871, 0.787166478041479, 1};
Point(p10 + 12) = {10.98907917660652, 0.7614070890892032, 1};
Point(p10 + 13) = {10.88713424255465, 0.7191801147896877, 1};
Point(p10 + 14) = {10.79305017394369, 0.6615253233934799, 1};
Point(p10 + 15) = {10.70914363278996, 0.5898623672100366, 1};
Point(p10 + 16) = {10.63748067660652, 0.5059558260563103, 1};
Point(p10 + 17) = {10.57982588521031, 0.4118717574453502, 1};
Point(p10 + 18) = {10.5375989109108, 0.3099268233934799, 1};
Point(p10 + 19) = {10.51183952195852, 0.2026312465128953, 1};
Point(p10 + 20) = {10.503182, 0.09262700000000008, 1};
Point(p10 + 21) = {10.51183952195852, -0.01737724651289513, 1};
Point(p10 + 22) = {10.5375989109108, -0.1246728233934801, 1};
Point(p10 + 23) = {10.57982588521031, -0.2266177574453497, 1};
Point(p10 + 24) = {10.63748067660652, -0.3207018260563101, 1};
Point(p10 + 25) = {10.70914363278996, -0.4046083672100366, 1};
Point(p10 + 26) = {10.79305017394369, -0.4762713233934798, 1};
Point(p10 + 27) = {10.88713424255465, -0.5339261147896877, 1};
Point(p10 + 28) = {10.98907917660652, -0.576153089089203, 1};
Point(p10 + 29) = {11.0963747534871, -0.601912478041479, 1};
Point(p10 + 30) = {11.206379, -0.6105699999999999, 1};
Point(p10 + 31) = {11.3163832465129, -0.6019124780414791, 1};
Point(p10 + 32) = {11.42367882339348, -0.5761530890892032, 1};
Point(p10 + 33) = {11.52562375744535, -0.5339261147896877, 1};
Point(p10 + 34) = {11.61970782605631, -0.47627132339348, 1};
Point(p10 + 35) = {11.70361436721004, -0.4046083672100367, 1};
Point(p10 + 36) = {11.77527732339348, -0.3207018260563104, 1};
Point(p10 + 37) = {11.83293211478969, -0.2266177574453502, 1};
Point(p10 + 38) = {11.8751590890892, -0.12467282339348, 1};
Point(p10 + 39) = {11.90091847804148, -0.01737724651289538, 1};
Spline(10) = {8, p10 + 1, p10 + 2, p10 + 3, p10 + 4, p10 + 5, p10 + 6, p10 + 7, p10 + 8, p10 + 9, p10 + 10, p10 + 11, p10 + 12, p10 + 13, p10 + 14, p10 + 15, p10 + 16, p10 + 17, p10 + 18, p10 + 19, p10 + 20, p10 + 21, p10 + 22, p10 + 23, p10 + 24, p10 + 25, p10 + 26, p10 + 27, p10 + 28, p10 + 29, p10 + 30, p10 + 31, p10 + 32, p10 + 33, p10 + 34, p10 + 35, p10 + 36, p10 + 37, p10 + 38, p10 + 39, 8};
p11 = newp;
Point(p11 + 1) = {30.09959861099499, 0.4375101839142149, 1};
Point(p11 + 2) = {30.06696947287261, 0.5734203254335857, 1};
Point(p11 + 3) = {30.01348102330336, 0.7025528658140059, 1};
Point(p11 + 4) = {29.94045032543359, 0.8217281333449792, 1};
Point(p11 + 5) = {29.84967563741986, 0.9280116374198558, 1};
Point(p11 + 6) = {29.74339213334498, 1.018786325433586, 1};
Point(p11 + 7) = {29.62421686581401, 1.091817023303353, 1};
Point(p11 + 8) = {29.49508432543359, 1.145305472872615, 1};
Point(p11 + 9) = {29.35917418391422, 1.177934610994988, 1};
Point(p11 + 10) = {29.219833, 1.188901, 1};
Point(p11 + 11) = {29.08049181608579, 1.177934610994988, 1};
Point(p11 + 12) = {28.94458167456641, 1.145305472872615, 1};
Point(p11 + 13) = {28.815449134186, 1.091817023303353, 1};
Point(p11 + 14) = {28.69627386665502, 1.018786325433586, 1};
Point(p11 + 15) = {28.58999036258015, 0.9280116374198559, 1};
Point(p11 + 16) = {28.49921567456641, 0.8217281333449793, 1};
Point(p11 + 17) = {28.42618497669665, 0.7025528658140061, 1};
Point(p11 + 18) = {28.37269652712739, 0.5734203254335857, 1};
Point(p11 + 19) = {28.34006738900501, 0.437510183914215, 1};
Point(p11 + 20) = {28.329101, 0.2981690000000001, 1};
Point(p11 + 21) = {28.34006738900501, 0.1588278160857852, 1};
Point(p11 + 22) = {28.37269652712739, 0.02291767456641408, 1};
Point(p11 + 23) = {28.42618497669665, -0.1062148658140055, 1};
Point(p11 + 24) = {28.49921567456641, -0.225390133344979, 1};
Point(p11 + 25) = {28.58999036258015, -0.3316736374198558, 1};
Point(p11 + 26) = {28.69627386665502, -0.4224483254335856, 1};
Point(p11 + 27) = {28.815449134186, -0.4954790233033531, 1};
Point(p11 + 28) = {28.94458167456641, -0.5489674728726146, 1};
Point(p11 + 29) = {29.08049181608579, -0.5815966109949882, 1};
Point(p11 + 30) = {29.219833, -0.592563, 1};
Point(p11 + 31) = {29.35917418391422, -0.5815966109949882, 1};
Point(p11 + 32) = {29.49508432543359, -0.5489674728726147, 1};
Point(p11 + 33) = {29.62421686581401, -0.4954790233033532, 1};
Point(p11 + 34) = {29.74339213334498, -0.4224483254335858, 1};
Point(p11 + 35) = {29.84967563741986, -0.331673637419856, 1};
Point(p11 + 36) = {29.94045032543359, -0.2253901333449794, 1};
Point(p11 + 37) = {30.01348102330336, -0.1062148658140061, 1};
Point(p11 + 38) = {30.06696947287261, 0.02291767456641419, 1};
Point(p11 + 39) = {30.09959861099499, 0.1588278160857849, 1};
Spline(11) = {9, p11 + 1, p11 + 2, p11 + 3, p11 + 4, p11 + 5, p11 + 6, p11 + 7, p11 + 8, p11 + 9, p11 + 10, p11 + 11, p11 + 12, p11 + 13, p11 + 14, p11 + 15, p11 + 16, p11 + 17, p11 + 18, p11 + 19, p11 + 20, p11 + 21, p11 + 22, p11 + 23, p11 + 24, p11 + 25, p11 + 26, p11 + 27, p11 + 28, p11 + 29, p11 + 30, p11 + 31, p11 + 32, p11 + 33, p11 + 34, p11 + 35, p11 + 36, p11 + 37, p11 + 38, p11 + 39, 9};
Line(12) = {4, 10};
Line(13) = {10, 7};
Line(14) = {5, 10};
p15 = newp;
Point(p15 + 1) = {11.90091847804148, 0.2026312465128952, 0};
Point(p15 + 2) = {11.8751590890892, 0.3099268233934799, 0};
Point(p15 + 3) = {11.83293211478969, 0.41187175744535, 0};
Point(p15 + 4) = {11.77527732339348, 0.5059558260563102, 0};
Point(p15 + 5) = {11.70361436721004, 0.5898623672100366, 0};
Point(p15 + 6) = {11.61970782605631, 0.6615253233934799, 0};
Point(p15 + 7) = {11.52562375744535, 0.7191801147896877, 0};
Point(p15 + 8) = {11.42367882339348, 0.7614070890892031, 0};
Point(p15 + 9) = {11.3163832465129, 0.7871664780414791, 0};
Point(p15 + 10) = {11.206379, 0.795824, 0};
Point(p15 + 11) = {11.0963747534871, 0.787166478041479, 0};
Point(p15 + 12) = {10.98907917660652, 0.7614070890892032, 0};
Point(p15 + 13) = {10.88713424255465, 0.7191801147896877, 0};
Point(p15 + 14) = {10.79305017394369, 0.6615253233934799, 0};
Point(p15 + 15) = {10.70914363278996, 0.5898623672100366, 0};
Point(p15 + 16) = {10.63748067660652, 0.5059558260563103, 0};
Point(p15 + 17) = {10.57982588521031, 0.4118717574453502, 0};
Point(p15 + 18) = {10.5375989109108, 0.3099268233934799, 0};
Point(p15 + 19) = {10.51183952195852, 0.2026312465128953, 0};
Point(p15 + 20) = {10.503182, 0.09262700000000008, 0};
Point(p15 + 21) = {10.51183952195852, -0.01737724651289513, 0};
Point(p15 + 22) = {10.5375989109108, -0.1246728233934801, 0};
Point(p15 + 23) = {10.57982588521031, -0.2266177574453497, 0};
Point(p15 + 24) = {10.63748067660652, -0.3207018260563101, 0};
Point(p15 + 25) = {10.70914363278996, -0.4046083672100366, 0};
Point(p15 + 26) = {10.79305017394369, -0.4762713233934798, 0};
Point(p15 + 27) = {10.88713424255465, -0.5339261147896877, 0};
Point(p15 + 28) = {10.98907917660652, -0.576153089089203, 0};
Point(p15 + 29) = {11.0963747534871, -0.601912478041479, 0};
Point(p15 + 30) = {11.206379, -0.6105699999999999, 0};
Point(p15 + 31) = {11.3163832465129, -0.6019124780414791, 0};
Point(p15 + 32) = {11.42367882339348, -0.5761530890892032, 0};
Point(p15 + 33) = {11.52562375744535, -0.5339261147896877, 0};
Point(p15 + 34) = {11.61970782605631, -0.47627132339348, 0};
Point(p15 + 35) = {11.70361436721004, -0.4046083672100367, 0};
Point(p15 + 36) = {11.77527732339348, -0.3207018260563104, 0};
Point(p15 + 37) = {11.83293211478969, -0.2266177574453502, 0};
Point(p15 + 38) = {11.8751590890892, -0.12467282339348, 0};
Point(p15 + 39) = {11.90091847804148, -0.01737724651289538, 0};
Spline(15) = {11, p15 + 1, p15 + 2, p15 + 3, p15 + 4, p15 + 5, p15 + 6, p15 + 7, p15 + 8, p15 + 9, p15 + 10, p15 + 11, p15 + 12, p15 + 13, p15 + 14, p15 + 15, p15 + 16, p15 + 17, p15 + 18, p15 + 19, p15 + 20, p15 + 21, p15 + 22, p15 + 23, p15 + 24, p15 + 25, p15 + 26, p15 + 27, p15 + 28, p15 + 29, p15 + 30, p15 + 31, p15 + 32, p15 + 33, p15 + 34, p15 + 35, p15 + 36, p15 + 37, p15 + 38, p15 + 39, 11};
p16 = newp;
Point(p16 + 1) = {30.09959861099499, 0.4375101839142149, 0};
Point(p16 + 2) = {30.06696947287261, 0.5734203254335857, 0};
Point(p16 + 3) = {30.01348102330336, 0.7025528658140059, 0};
Point(p16 + 4) = {29.94045032543359, 0.8217281333449792, 0};
Point(p16 + 5) = {29.84967563741986, 0.9280116374198558, 0};
Point(p16 + 6) = {29.74339213334498, 1.018786325433586, 0};
Point(p16 + 7) = {29.62421686581401, 1.091817023303353, 0};
Point(p16 + 8) = {29.49508432543359, 1.145305472872615, 0};
Point(p16 + 9) = {29.35917418391422, 1.177934610994988, 0};
Point(p16 + 10) = {29.219833, 1.188901, 0};
Point(p16 + 11) = {29.08049181608579, 1.177934610994988, 0};
Point(p16 + 12) = {28.94458167456641, 1.145305472872615, 0};
Point(p16 + 13) = {28.815449134186, 1.091817023303353, 0};
Point(p16 + 14) = {28.69627386665502, 1.018786325433586, 0};
Point(p16 + 15) = {28.58999036258015, 0.9280116374198559, 0};
Point(p16 + 16) = {28.49921567456641, 0.8217281333449793, 0};
Point(p16 + 17) = {28.42618497669665, 0.7025528658140061, 0};
Point(p16 + 18) = {28.37269652712739, 0.5734203254335857, 0};
Point(p16 + 19) = {28.34006738900501, 0.437510183914215, 0};
Point(p16 + 20) = {28.329101, 0.2981690000000001, 0};
Point(p16 + 21) = {28.34006738900501, 0.1588278160857852, 0};
Point(p16 + 22) = {28.37269652712739, 0.02291767456641408, 0};
Point(p16 + 23) = {28.42618497669665, -0.1062148658140055, 0};
Point(p16 + 24) = {28.49921567456641, -0.225390133344979, 0};
Point(p16 + 25) = {28.58999036258015, -0.3316736374198558, 0};
Point(p16 + 26) = {28.69627386665502, -0.4224483254335856, 0};
Point(p16 + 27) = {28.815449134186, -0.4954790233033531, 0};
Point(p16 + 28) = {28.94458167456641, -0.5489674728726146, 0};
Point(p16 + 29) = {29.08049181608579, -0.5815966109949882, 0};
Point(p16 + 30) = {29.219833, -0.592563, 0};
Point(p16 + 31) = {29.35917418391422, -0.5815966109949882, 0};
Point(p16 + 32) = {29.49508432543359, -0.5489674728726147, 0};
Point(p16 + 33) = {29.62421686581401, -0.4954790233033532, 0};
Point(p16 + 34) = {29.74339213334498, -0.4224483254335858, 0};
Point(p16 + 35) = {29.84967563741986, -0.331673637419856, 0};
Point(p16 + 36) = {29.94045032543359, -0.2253901333449794, 0};
Point(p16 + 37) = {30.01348102330336, -0.1062148658140061, 0};
Point(p16 + 38) = {30.06696947287261, 0.02291767456641419, 0};
Point(p16 + 39) = {30.09959861099499, 0.1588278160857849, 0};
Spline(16) = {12, p16 + 1, p16 + 2, p16 + 3, p16 + 4, p16 + 5, p16 + 6, p16 + 7, p16 + 8, p16 + 9, p16 + 10, p16 + 11, p16 + 12, p16 + 13, p16 + 14, p16 + 15, p16 + 16, p16 + 17, p16 + 18, p16 + 19, p16 + 20, p16 + 21, p16 + 22, p16 + 23, p16 + 24, p16 + 25, p16 + 26, p16 + 27, p16 + 28, p16 + 29, p16 + 30, p16 + 31, p16 + 32, p16 + 33, p16 + 34, p16 + 35, p16 + 36, p16 + 37, p16 + 38, p16 + 39, 12};
Line(17) = {11, 8};
Line(18) = {12, 9};
Curve Loop(1) = {-1, 4, 3, -2};
Plane Surface(1) = {1};
Curve Loop(2) = {-5, 1, 7, -6};
Plane Surface(2) = {2};
Curve Loop(3) = {-2, 7, 9, -8, -10, -11};
Plane Surface(3) = {3};
Curve Loop(4) = {-12, 3, 8, -13};
Plane Surface(4) = {4};
Curve Loop(5) = {-4, 5, 14, -12, -15, -16};
Plane Surface(5) = {5};
Curve Loop(6) = {-6, 14, 13, -9};
Plane Surface(6) = {6};
Curve Loop(7) = {-10, -17, 15, 17};
Surface(7) = {7};
Curve Loop(8) = {-11, -18, 16, 18};
Surface(8) = {8};
Surface Loop(1) = {1, 2, 3, 4, 5, 6, 7, 8};
Volume(1) = {1};
Physical Surface("INFLOW") = {1};
Physical Surface("OUTFLOW") = {6};
Physical Surface("OBSTACLE") = {7, 8};
Physical Surface("WALL_Y") = {2, 4};
Physical Surface("WALL_Z") = {3, 5};
Physical Volume("FLUID") = {1};
