cl__1 = 1;
cl__2 = 0.055313;
cl__3 = 0.085924;
Point(1) = {0.570276, -4.015962, 1, cl__1};
Point(2) = {0.570276, -4.015962, 0, cl__1};
Point(3) = {0.570276, 5.842371, 1, cl__1};
Point(4) = {0.570276, 5.842371, 0, cl__1};
Point(5) = {33.045501, -4.015962, 0, cl__1};
Point(6) = {33.045501, -4.015962, 1, cl__1};
Point(7) = {33.045501, 5.842371, 1, cl__1};
Point(8) = {12.754283, 0.4819259999999999, 1, cl__2};
Point(9) = {24.101935, 3.162093, 1, cl__3};
Point(10) = {33.045501, 5.842371, 0, cl__1};
Point(11) = {12.754283, 0.4819259999999999, 0, cl__2};
Point(12) = {24.101935, 3.162093, 0, cl__3};
Line(1) = {2, 1};
Line(2) = {1, 3};
Line(3) = {4, 3};
Line(4) = {2, 4};
Line(5) = {2, 5};
Line(6) = {5, 6};
Line(7) = {1, 6};
Line(8) = {3, 7};
Line(9) = {6, 7};
p10 = newp;
Point(p10 + 1) = {12.74747308876837, 0.5684541263443078, 1};
Point(p10 + 2) = {12.72721103768879, 0.6528516430476315, 1};
Point(p10 + 3) = {12.69399576570474, 0.7330404031494363, 1};
Point(p10 + 4) = {12.64864514304763, 0.8070458932447788, 1};
Point(p10 + 5) = {12.59227585255737, 0.8730458525573714, 1};
Point(p10 + 6) = {12.52627589324478, 0.9294151430476316, 1};
Point(p10 + 7) = {12.45227040314944, 0.9747657657047394, 1};
Point(p10 + 8) = {12.37208164304763, 1.007981037688789, 1};
Point(p10 + 9) = {12.28768412634431, 1.028243088768367, 1};
Point(p10 + 10) = {12.201156, 1.035053, 1};
Point(p10 + 11) = {12.11462787365569, 1.028243088768367, 1};
Point(p10 + 12) = {12.03023035695237, 1.007981037688789, 1};
Point(p10 + 13) = {11.95004159685056, 0.9747657657047395, 1};
Point(p10 + 14) = {11.87603610675522, 0.9294151430476316, 1};
Point(p10 + 15) = {11.81003614744263, 0.8730458525573715, 1};
Point(p10 + 16) = {11.75366685695237, 0.8070458932447788, 1};
Point(p10 + 17) = {11.70831623429526, 0.7330404031494364, 1};
Point(p10 + 18) = {11.67510096231121, 0.6528516430476317, 1};
Point(p10 + 19) = {11.65483891123163, 0.5684541263443079, 1};
Point(p10 + 20) = {11.648029, 0.4819260000000001, 1};
Point(p10 + 21) = {11.65483891123163, 0.3953978736556923, 1};
Point(p10 + 22) = {11.67510096231121, 0.3110003569523683, 1};
Point(p10 + 23) = {11.70831623429526, 0.230811596850564, 1};
Point(p10 + 24) = {11.75366685695237, 0.1568061067552213, 1};
Point(p10 + 25) = {11.81003614744263, 0.09080614744262855, 1};
Point(p10 + 26) = {11.87603610675522, 0.03443685695236848, 1};
Point(p10 + 27) = {11.95004159685056, -0.01091376570473934, 1};
Point(p10 + 28) = {12.03023035695237, -0.04412903768878945, 1};
Point(p10 + 29) = {12.11462787365569, -0.06439108876836669, 1};
Point(p10 + 30) = {12.201156, -0.07120100000000001, 1};
Point(p10 + 31) = {12.28768412634431, -0.0643910887683668, 1};
Point(p10 + 32) = {12.37208164304763, -0.04412903768878945, 1};
Point(p10 + 33) = {12.45227040314944, -0.0109137657047394, 1};
Point(p10 + 34) = {12.52627589324478, 0.03443685695236837, 1};
Point(p10 + 35) = {12.59227585255737, 0.09080614744262844, 1};
Point(p10 + 36) = {12.64864514304763, 0.1568061067552211, 1};
Point(p10 + 37) = {12.69399576570474, 0.2308115968505636, 1};
Point(p10 + 38) = {12.72721103768879, 0.3110003569523684, 1};
Point(p10 + 39) = {12.74747308876837, 0.3953978736556921, 1};
Spline(10) = {8, p10 + 1, p10 + 2, p10 + 3, p10 + 4, p10 + 5, p10 + 6, p10 + 7, p10 + 8, p10 + 9, p10 + 10, p10 + 11, p10 + 12, p10 + 13, p10 + 14, p10 + 15, p10 + 16, p10 + 17, p10 + 18, p10 + 19, p10 + 20, p10 + 21, p10 + 22, p10 + 23, p10 + 24, p10 + 25, p10 + 26, p10 + 27, p10 + 28, p10 + 29, p10 + 30, p10 + 31, p10 + 32, p10 + 33, p10 + 34, p10 + 35, p10 + 36, p10 + 37, p10 + 38, p10 + 39, 8};
p11 = newp;
Point(p11 + 1) = {24.09135626821467, 3.296508531913493, 1};
Point(p11 + 2) = {24.05988055634403, 3.427614307331702, 1};
Point(p11 + 3) = {24.00828290087624, 3.552182066948707, 1};
Point(p11 + 4) = {23.9378338073317, 3.667144539106046, 1};
Point(p11 + 5) = {23.85026796620063, 3.769670966200635, 1};
Point(p11 + 6) = {23.74774153910604, 3.857236807331702, 1};
Point(p11 + 7) = {23.63277906694871, 3.927685900876234, 1};
Point(p11 + 8) = {23.5082113073317, 3.979283556344029, 1};
Point(p11 + 9) = {23.37710553191349, 4.010759268214669, 1};
Point(p11 + 10) = {23.24269, 4.021338, 1};
Point(p11 + 11) = {23.10827446808651, 4.010759268214669, 1};
Point(p11 + 12) = {22.9771686926683, 3.979283556344029, 1};
Point(p11 + 13) = {22.85260093305129, 3.927685900876234, 1};
Point(p11 + 14) = {22.73763846089395, 3.857236807331702, 1};
Point(p11 + 15) = {22.63511203379937, 3.769670966200635, 1};
Point(p11 + 16) = {22.5475461926683, 3.667144539106046, 1};
Point(p11 + 17) = {22.47709709912376, 3.552182066948707, 1};
Point(p11 + 18) = {22.42549944365597, 3.427614307331702, 1};
Point(p11 + 19) = {22.39402373178533, 3.296508531913493, 1};
Point(p11 + 20) = {22.383445, 3.162093, 1};
Point(p11 + 21) = {22.39402373178533, 3.027677468086507, 1};
Point(p11 + 22) = {22.42549944365597, 2.896571692668298, 1};
Point(p11 + 23) = {22.47709709912376, 2.772003933051294, 1};
Point(p11 + 24) = {22.5475461926683, 2.657041460893954, 1};
Point(p11 + 25) = {22.63511203379936, 2.554515033799365, 1};
Point(p11 + 26) = {22.73763846089395, 2.466949192668298, 1};
Point(p11 + 27) = {22.85260093305129, 2.396500099123766, 1};
Point(p11 + 28) = {22.9771686926683, 2.344902443655971, 1};
Point(p11 + 29) = {23.10827446808651, 2.313426731785331, 1};
Point(p11 + 30) = {23.24269, 2.302848, 1};
Point(p11 + 31) = {23.37710553191349, 2.313426731785331, 1};
Point(p11 + 32) = {23.5082113073317, 2.344902443655971, 1};
Point(p11 + 33) = {23.63277906694871, 2.396500099123766, 1};
Point(p11 + 34) = {23.74774153910604, 2.466949192668298, 1};
Point(p11 + 35) = {23.85026796620063, 2.554515033799365, 1};
Point(p11 + 36) = {23.9378338073317, 2.657041460893954, 1};
Point(p11 + 37) = {24.00828290087624, 2.772003933051293, 1};
Point(p11 + 38) = {24.05988055634403, 2.896571692668298, 1};
Point(p11 + 39) = {24.09135626821467, 3.027677468086507, 1};
Spline(11) = {9, p11 + 1, p11 + 2, p11 + 3, p11 + 4, p11 + 5, p11 + 6, p11 + 7, p11 + 8, p11 + 9, p11 + 10, p11 + 11, p11 + 12, p11 + 13, p11 + 14, p11 + 15, p11 + 16, p11 + 17, p11 + 18, p11 + 19, p11 + 20, p11 + 21, p11 + 22, p11 + 23, p11 + 24, p11 + 25, p11 + 26, p11 + 27, p11 + 28, p11 + 29, p11 + 30, p11 + 31, p11 + 32, p11 + 33, p11 + 34, p11 + 35, p11 + 36, p11 + 37, p11 + 38, p11 + 39, 9};
Line(12) = {4, 10};
Line(13) = {10, 7};
Line(14) = {5, 10};
p15 = newp;
Point(p15 + 1) = {12.74747308876837, 0.5684541263443078, 0};
Point(p15 + 2) = {12.72721103768879, 0.6528516430476315, 0};
Point(p15 + 3) = {12.69399576570474, 0.7330404031494363, 0};
Point(p15 + 4) = {12.64864514304763, 0.8070458932447788, 0};
Point(p15 + 5) = {12.59227585255737, 0.8730458525573714, 0};
Point(p15 + 6) = {12.52627589324478, 0.9294151430476316, 0};
Point(p15 + 7) = {12.45227040314944, 0.9747657657047394, 0};
Point(p15 + 8) = {12.37208164304763, 1.007981037688789, 0};
Point(p15 + 9) = {12.28768412634431, 1.028243088768367, 0};
Point(p15 + 10) = {12.201156, 1.035053, 0};
Point(p15 + 11) = {12.11462787365569, 1.028243088768367, 0};
Point(p15 + 12) = {12.03023035695237, 1.007981037688789, 0};
Point(p15 + 13) = {11.95004159685056, 0.9747657657047395, 0};
Point(p15 + 14) = {11.87603610675522, 0.9294151430476316, 0};
Point(p15 + 15) = {11.81003614744263, 0.8730458525573715, 0};
Point(p15 + 16) = {11.75366685695237, 0.8070458932447788, 0};
Point(p15 + 17) = {11.70831623429526, 0.7330404031494364, 0};
Point(p15 + 18) = {11.67510096231121, 0.6528516430476317, 0};
Point(p15 + 19) = {11.65483891123163, 0.5684541263443079, 0};
Point(p15 + 20) = {11.648029, 0.4819260000000001, 0};
Point(p15 + 21) = {11.65483891123163, 0.3953978736556923, 0};
Point(p15 + 22) = {11.67510096231121, 0.3110003569523683, 0};
Point(p15 + 23) = {11.70831623429526, 0.230811596850564, 0};
Point(p15 + 24) = {11.75366685695237, 0.1568061067552213, 0};
Point(p15 + 25) = {11.81003614744263, 0.09080614744262855, 0};
Point(p15 + 26) = {11.87603610675522, 0.03443685695236848, 0};
Point(p15 + 27) = {11.95004159685056, -0.01091376570473934, 0};
Point(p15 + 28) = {12.03023035695237, -0.04412903768878945, 0};
Point(p15 + 29) = {12.11462787365569, -0.06439108876836669, 0};
Point(p15 + 30) = {12.201156, -0.07120100000000001, 0};
Point(p15 + 31) = {12.28768412634431, -0.0643910887683668, 0};
Point(p15 + 32) = {12.37208164304763, -0.04412903768878945, 0};
Point(p15 + 33) = {12.45227040314944, -0.0109137657047394, 0};
Point(p15 + 34) = {12.52627589324478, 0.03443685695236837, 0};
Point(p15 + 35) = {12.59227585255737, 0.09080614744262844, 0};
Point(p15 + 36) = {12.64864514304763, 0.1568061067552211, 0};
Point(p15 + 37) = {12.69399576570474, 0.2308115968505636, 0};
Point(p15 + 38) = {12.72721103768879, 0.3110003569523684, 0};
Point(p15 + 39) = {12.74747308876837, 0.3953978736556921, 0};
Spline(15) = {11, p15 + 1, p15 + 2, p15 + 3, p15 + 4, p15 + 5, p15 + 6, p15 + 7, p15 + 8, p15 + 9, p15 + 10, p15 + 11, p15 + 12, p15 + 13, p15 + 14, p15 + 15, p15 + 16, p15 + 17, p15 + 18, p15 + 19, p15 + 20, p15 + 21, p15 + 22, p15 + 23, p15 + 24, p15 + 25, p15 + 26, p15 + 27, p15 + 28, p15 + 29, p15 + 30, p15 + 31, p15 + 32, p15 + 33, p15 + 34, p15 + 35, p15 + 36, p15 + 37, p15 + 38, p15 + 39, 11};
p16 = newp;
Point(p16 + 1) = {24.09135626821467, 3.296508531913493, 0};
Point(p16 + 2) = {24.05988055634403, 3.427614307331702, 0};
Point(p16 + 3) = {24.00828290087624, 3.552182066948707, 0};
Point(p16 + 4) = {23.9378338073317, 3.667144539106046, 0};
Point(p16 + 5) = {23.85026796620063, 3.769670966200635, 0};
Point(p16 + 6) = {23.74774153910604, 3.857236807331702, 0};
Point(p16 + 7) = {23.63277906694871, 3.927685900876234, 0};
Point(p16 + 8) = {23.5082113073317, 3.979283556344029, 0};
Point(p16 + 9) = {23.37710553191349, 4.010759268214669, 0};
Point(p16 + 10) = {23.24269, 4.021338, 0};
Point(p16 + 11) = {23.10827446808651, 4.010759268214669, 0};
Point(p16 + 12) = {22.9771686926683, 3.979283556344029, 0};
Point(p16 + 13) = {22.85260093305129, 3.927685900876234, 0};
Point(p16 + 14) = {22.73763846089395, 3.857236807331702, 0};
Point(p16 + 15) = {22.63511203379937, 3.769670966200635, 0};
Point(p16 + 16) = {22.5475461926683, 3.667144539106046, 0};
Point(p16 + 17) = {22.47709709912376, 3.552182066948707, 0};
Point(p16 + 18) = {22.42549944365597, 3.427614307331702, 0};
Point(p16 + 19) = {22.39402373178533, 3.296508531913493, 0};
Point(p16 + 20) = {22.383445, 3.162093, 0};
Point(p16 + 21) = {22.39402373178533, 3.027677468086507, 0};
Point(p16 + 22) = {22.42549944365597, 2.896571692668298, 0};
Point(p16 + 23) = {22.47709709912376, 2.772003933051294, 0};
Point(p16 + 24) = {22.5475461926683, 2.657041460893954, 0};
Point(p16 + 25) = {22.63511203379936, 2.554515033799365, 0};
Point(p16 + 26) = {22.73763846089395, 2.466949192668298, 0};
Point(p16 + 27) = {22.85260093305129, 2.396500099123766, 0};
Point(p16 + 28) = {22.9771686926683, 2.344902443655971, 0};
Point(p16 + 29) = {23.10827446808651, 2.313426731785331, 0};
Point(p16 + 30) = {23.24269, 2.302848, 0};
Point(p16 + 31) = {23.37710553191349, 2.313426731785331, 0};
Point(p16 + 32) = {23.5082113073317, 2.344902443655971, 0};
Point(p16 + 33) = {23.63277906694871, 2.396500099123766, 0};
Point(p16 + 34) = {23.74774153910604, 2.466949192668298, 0};
Point(p16 + 35) = {23.85026796620063, 2.554515033799365, 0};
Point(p16 + 36) = {23.9378338073317, 2.657041460893954, 0};
Point(p16 + 37) = {24.00828290087624, 2.772003933051293, 0};
Point(p16 + 38) = {24.05988055634403, 2.896571692668298, 0};
Point(p16 + 39) = {24.09135626821467, 3.027677468086507, 0};
Spline(16) = {12, p16 + 1, p16 + 2, p16 + 3, p16 + 4, p16 + 5, p16 + 6, p16 + 7, p16 + 8, p16 + 9, p16 + 10, p16 + 11, p16 + 12, p16 + 13, p16 + 14, p16 + 15, p16 + 16, p16 + 17, p16 + 18, p16 + 19, p16 + 20, p16 + 21, p16 + 22, p16 + 23, p16 + 24, p16 + 25, p16 + 26, p16 + 27, p16 + 28, p16 + 29, p16 + 30, p16 + 31, p16 + 32, p16 + 33, p16 + 34, p16 + 35, p16 + 36, p16 + 37, p16 + 38, p16 + 39, 12};
Line(17) = {11, 8};
Line(18) = {12, 9};
Curve Loop(1) = {-1, 4, 3, -2};
Plane Surface(1) = {1};
Curve Loop(2) = {-5, 1, 7, -6};
Plane Surface(2) = {2};
Curve Loop(3) = {-2, 7, 9, -8, -10, -11};
Plane Surface(3) = {3};
Curve Loop(4) = {-12, 3, 8, -13};
Plane Surface(4) = {4};
Curve Loop(5) = {-4, 5, 14, -12, -15, -16};
Plane Surface(5) = {5};
Curve Loop(6) = {-6, 14, 13, -9};
Plane Surface(6) = {6};
Curve Loop(7) = {-10, -17, 15, 17};
Surface(7) = {7};
Curve Loop(8) = {-11, -18, 16, 18};
Surface(8) = {8};
Surface Loop(1) = {1, 2, 3, 4, 5, 6, 7, 8};
Volume(1) = {1};
Physical Surface("INFLOW") = {1};
Physical Surface("OUTFLOW") = {6};
Physical Surface("OBSTACLE") = {7, 8};
Physical Surface("WALL_Y") = {2, 4};
Physical Surface("WALL_Z") = {3, 5};
Physical Volume("FLUID") = {1};
