cl__1 = 3.507194;
cl__2 = 1.264116;
cl__3 = 1.372081;
cl__4 = 0.121836;
Point(1) = {0.059913, -3.565423, 1, cl__1};
Point(2) = {0.059913, -3.565423, 0, cl__1};
Point(3) = {0.059913, 4.444635000000001, 1, cl__1};
Point(4) = {0.059913, 4.444635000000001, 0, cl__1};
Point(5) = {34.842511, -3.565423, 0, cl__2};
Point(6) = {34.842511, -3.565423, 1, cl__2};
Point(7) = {34.842511, 4.444635000000001, 1, cl__3};
Point(8) = {22.35593, -1.501225, 1, cl__4};
Point(9) = {34.842511, 4.444635000000001, 0, cl__3};
Point(10) = {22.35593, -1.501225, 0, cl__4};
Line(1) = {2, 1};
Line(2) = {1, 3};
Line(3) = {4, 3};
Line(4) = {2, 4};
Line(5) = {2, 5};
Line(6) = {5, 6};
Line(7) = {1, 6};
Line(8) = {3, 7};
Line(9) = {6, 7};
p10 = newp;
Point(p10 + 1) = {22.34092992971252, -1.310631035870189, 1};
Point(p10 + 2) = {22.29629907036291, -1.124730127682356, 1};
Point(p10 + 3) = {22.22313638182971, -0.9480997727658266, 1};
Point(p10 + 4) = {22.12324337231765, -0.7850891966611855, 1};
Point(p10 + 5) = {21.99907973924678, -0.6397122607532144, 1};
Point(p10 + 6) = {21.85370280333882, -0.5155486276823559, 1};
Point(p10 + 7) = {21.69069222723417, -0.4156556181702875, 1};
Point(p10 + 8) = {21.51406187231764, -0.3424929296370878, 1};
Point(p10 + 9) = {21.32816096412981, -0.2978620702874861, 1};
Point(p10 + 10) = {21.137567, -0.2828619999999999, 1};
Point(p10 + 11) = {20.94697303587019, -0.2978620702874863, 1};
Point(p10 + 12) = {20.76107212768236, -0.3424929296370878, 1};
Point(p10 + 13) = {20.58444177276583, -0.4156556181702875, 1};
Point(p10 + 14) = {20.42143119666119, -0.5155486276823559, 1};
Point(p10 + 15) = {20.27605426075322, -0.6397122607532143, 1};
Point(p10 + 16) = {20.15189062768236, -0.7850891966611854, 1};
Point(p10 + 17) = {20.05199761817029, -0.9480997727658265, 1};
Point(p10 + 18) = {19.97883492963709, -1.124730127682356, 1};
Point(p10 + 19) = {19.93420407028749, -1.310631035870189, 1};
Point(p10 + 20) = {19.919204, -1.501225, 1};
Point(p10 + 21) = {19.93420407028749, -1.691818964129811, 1};
Point(p10 + 22) = {19.97883492963709, -1.877719872317644, 1};
Point(p10 + 23) = {20.05199761817029, -2.054350227234173, 1};
Point(p10 + 24) = {20.15189062768236, -2.217360803338814, 1};
Point(p10 + 25) = {20.27605426075321, -2.362737739246786, 1};
Point(p10 + 26) = {20.42143119666119, -2.486901372317644, 1};
Point(p10 + 27) = {20.58444177276583, -2.586794381829713, 1};
Point(p10 + 28) = {20.76107212768236, -2.659957070362912, 1};
Point(p10 + 29) = {20.94697303587019, -2.704587929712514, 1};
Point(p10 + 30) = {21.137567, -2.719588, 1};
Point(p10 + 31) = {21.32816096412981, -2.704587929712514, 1};
Point(p10 + 32) = {21.51406187231764, -2.659957070362912, 1};
Point(p10 + 33) = {21.69069222723417, -2.586794381829713, 1};
Point(p10 + 34) = {21.85370280333882, -2.486901372317644, 1};
Point(p10 + 35) = {21.99907973924678, -2.362737739246786, 1};
Point(p10 + 36) = {22.12324337231765, -2.217360803338815, 1};
Point(p10 + 37) = {22.22313638182971, -2.054350227234174, 1};
Point(p10 + 38) = {22.29629907036291, -1.877719872317644, 1};
Point(p10 + 39) = {22.34092992971252, -1.691818964129811, 1};
Spline(10) = {8, p10 + 1, p10 + 2, p10 + 3, p10 + 4, p10 + 5, p10 + 6, p10 + 7, p10 + 8, p10 + 9, p10 + 10, p10 + 11, p10 + 12, p10 + 13, p10 + 14, p10 + 15, p10 + 16, p10 + 17, p10 + 18, p10 + 19, p10 + 20, p10 + 21, p10 + 22, p10 + 23, p10 + 24, p10 + 25, p10 + 26, p10 + 27, p10 + 28, p10 + 29, p10 + 30, p10 + 31, p10 + 32, p10 + 33, p10 + 34, p10 + 35, p10 + 36, p10 + 37, p10 + 38, p10 + 39, 8};
Line(11) = {4, 9};
Line(12) = {9, 7};
Line(13) = {5, 9};
p14 = newp;
Point(p14 + 1) = {22.34092992971252, -1.310631035870189, 0};
Point(p14 + 2) = {22.29629907036291, -1.124730127682356, 0};
Point(p14 + 3) = {22.22313638182971, -0.9480997727658266, 0};
Point(p14 + 4) = {22.12324337231765, -0.7850891966611855, 0};
Point(p14 + 5) = {21.99907973924678, -0.6397122607532144, 0};
Point(p14 + 6) = {21.85370280333882, -0.5155486276823559, 0};
Point(p14 + 7) = {21.69069222723417, -0.4156556181702875, 0};
Point(p14 + 8) = {21.51406187231764, -0.3424929296370878, 0};
Point(p14 + 9) = {21.32816096412981, -0.2978620702874861, 0};
Point(p14 + 10) = {21.137567, -0.2828619999999999, 0};
Point(p14 + 11) = {20.94697303587019, -0.2978620702874863, 0};
Point(p14 + 12) = {20.76107212768236, -0.3424929296370878, 0};
Point(p14 + 13) = {20.58444177276583, -0.4156556181702875, 0};
Point(p14 + 14) = {20.42143119666119, -0.5155486276823559, 0};
Point(p14 + 15) = {20.27605426075322, -0.6397122607532143, 0};
Point(p14 + 16) = {20.15189062768236, -0.7850891966611854, 0};
Point(p14 + 17) = {20.05199761817029, -0.9480997727658265, 0};
Point(p14 + 18) = {19.97883492963709, -1.124730127682356, 0};
Point(p14 + 19) = {19.93420407028749, -1.310631035870189, 0};
Point(p14 + 20) = {19.919204, -1.501225, 0};
Point(p14 + 21) = {19.93420407028749, -1.691818964129811, 0};
Point(p14 + 22) = {19.97883492963709, -1.877719872317644, 0};
Point(p14 + 23) = {20.05199761817029, -2.054350227234173, 0};
Point(p14 + 24) = {20.15189062768236, -2.217360803338814, 0};
Point(p14 + 25) = {20.27605426075321, -2.362737739246786, 0};
Point(p14 + 26) = {20.42143119666119, -2.486901372317644, 0};
Point(p14 + 27) = {20.58444177276583, -2.586794381829713, 0};
Point(p14 + 28) = {20.76107212768236, -2.659957070362912, 0};
Point(p14 + 29) = {20.94697303587019, -2.704587929712514, 0};
Point(p14 + 30) = {21.137567, -2.719588, 0};
Point(p14 + 31) = {21.32816096412981, -2.704587929712514, 0};
Point(p14 + 32) = {21.51406187231764, -2.659957070362912, 0};
Point(p14 + 33) = {21.69069222723417, -2.586794381829713, 0};
Point(p14 + 34) = {21.85370280333882, -2.486901372317644, 0};
Point(p14 + 35) = {21.99907973924678, -2.362737739246786, 0};
Point(p14 + 36) = {22.12324337231765, -2.217360803338815, 0};
Point(p14 + 37) = {22.22313638182971, -2.054350227234174, 0};
Point(p14 + 38) = {22.29629907036291, -1.877719872317644, 0};
Point(p14 + 39) = {22.34092992971252, -1.691818964129811, 0};
Spline(14) = {10, p14 + 1, p14 + 2, p14 + 3, p14 + 4, p14 + 5, p14 + 6, p14 + 7, p14 + 8, p14 + 9, p14 + 10, p14 + 11, p14 + 12, p14 + 13, p14 + 14, p14 + 15, p14 + 16, p14 + 17, p14 + 18, p14 + 19, p14 + 20, p14 + 21, p14 + 22, p14 + 23, p14 + 24, p14 + 25, p14 + 26, p14 + 27, p14 + 28, p14 + 29, p14 + 30, p14 + 31, p14 + 32, p14 + 33, p14 + 34, p14 + 35, p14 + 36, p14 + 37, p14 + 38, p14 + 39, 10};
Line(15) = {10, 8};
Curve Loop(1) = {-1, 4, 3, -2};
Plane Surface(1) = {1};
Curve Loop(2) = {-5, 1, 7, -6};
Plane Surface(2) = {2};
Curve Loop(3) = {-2, 7, 9, -8, -10};
Plane Surface(3) = {3};
Curve Loop(4) = {-11, 3, 8, -12};
Plane Surface(4) = {4};
Curve Loop(5) = {-4, 5, 13, -11, -14};
Plane Surface(5) = {5};
Curve Loop(6) = {-6, 13, 12, -9};
Plane Surface(6) = {6};
Curve Loop(7) = {-10, -15, 14, 15};
Surface(7) = {7};
Surface Loop(1) = {1, 2, 3, 4, 5, 6, 7};
Volume(1) = {1};
Physical Surface("INFLOW") = {1};
Physical Surface("OUTFLOW") = {6};
Physical Surface("OBSTACLE") = {7};
Physical Surface("WALL_Y") = {2, 4};
Physical Surface("WALL_Z") = {3, 5};
Physical Volume("FLUID") = {1};
