cl__1 = 0.7173620000000001;
cl__2 = 0.908101;
cl__3 = 3.724085;
cl__4 = 1e+22;
cl__5 = 0.057979;
cl__6 = 0.111852;
cl__7 = 0.065548;
Point(1) = {0.639427, -4.004003, 1, cl__1};
Point(2) = {0.639427, -4.004003, 0, cl__1};
Point(3) = {0.639427, 4.054023999999999, 1, cl__2};
Point(4) = {0.639427, 4.054023999999999, 0, cl__2};
Point(5) = {32.750293, -4.004003, 0, cl__3};
Point(6) = {32.750293, -4.004003, 1, cl__3};
Point(7) = {32.750293, 4.054023999999999, 1, cl__3};
Point(8) = {9.022447, -1.603718, 1, cl__4};
Point(9) = {21.645031, -1.519944, 1, cl__3};
Point(10) = {20.410622, 0.3616259999999998, 1, cl__5};
Point(11) = {25.44176049252165, 1.85994957271024, 1, cl__6};
Point(12) = {24.98962703532261, 0.3369719920091609, 1, cl__4};
Point(13) = {27.517975, 0.8030249999999997, 1, cl__4};
Point(14) = {23.051733, 2.782261999999999, 1, cl__5};
Point(15) = {32.750293, 4.054023999999999, 0, cl__7};
Point(16) = {9.022447, -1.603718, 0, cl__4};
Point(17) = {21.645031, -1.519944, 0, cl__4};
Point(18) = {20.410622, 0.3616259999999998, 0, cl__4};
Point(19) = {25.44176049252165, 1.85994957271024, 0, cl__4};
Point(20) = {24.98962703532261, 0.3369719920091609, 0, cl__4};
Point(21) = {27.517975, 0.8030249999999997, 0, cl__4};
Point(22) = {23.051733, 2.782261999999999, 0, cl__4};
Line(1) = {2, 1};
Line(2) = {1, 3};
Line(3) = {4, 3};
Line(4) = {2, 4};
Line(5) = {2, 5};
Line(6) = {5, 6};
Line(7) = {1, 6};
Line(8) = {3, 7};
Line(9) = {6, 7};
p10 = newp;
Point(p10 + 1) = {9.015308798370336, -1.513018548645394, 1};
Point(p10 + 2) = {8.9940699596958, -1.424552418797361, 1};
Point(p10 + 3) = {8.959253454672222, -1.340497940175009, 1};
Point(p10 + 4) = {8.91171658120264, -1.262924813002842, 1};
Point(p10 + 5) = {8.85262985487771, -1.193743145122289, 1};
Point(p10 + 6) = {8.783448186997157, -1.13465641879736, 1};
Point(p10 + 7) = {8.705875059824992, -1.087119545327778, 1};
Point(p10 + 8) = {8.621820581202639, -1.0523030403042, 1};
Point(p10 + 9) = {8.533354451354606, -1.031064201629664, 1};
Point(p10 + 10) = {8.442655, -1.023926, 1};
Point(p10 + 11) = {8.351955548645394, -1.031064201629664, 1};
Point(p10 + 12) = {8.263489418797361, -1.0523030403042, 1};
Point(p10 + 13) = {8.179434940175009, -1.087119545327778, 1};
Point(p10 + 14) = {8.101861813002843, -1.13465641879736, 1};
Point(p10 + 15) = {8.03268014512229, -1.193743145122289, 1};
Point(p10 + 16) = {7.97359341879736, -1.262924813002842, 1};
Point(p10 + 17) = {7.926056545327778, -1.340497940175009, 1};
Point(p10 + 18) = {7.891240040304201, -1.42455241879736, 1};
Point(p10 + 19) = {7.870001201629664, -1.513018548645394, 1};
Point(p10 + 20) = {7.862863, -1.603718, 1};
Point(p10 + 21) = {7.870001201629664, -1.694417451354606, 1};
Point(p10 + 22) = {7.891240040304201, -1.78288358120264, 1};
Point(p10 + 23) = {7.926056545327778, -1.866938059824991, 1};
Point(p10 + 24) = {7.97359341879736, -1.944511186997157, 1};
Point(p10 + 25) = {8.03268014512229, -2.013692854877711, 1};
Point(p10 + 26) = {8.101861813002843, -2.072779581202639, 1};
Point(p10 + 27) = {8.179434940175009, -2.120316454672222, 1};
Point(p10 + 28) = {8.263489418797361, -2.1551329596958, 1};
Point(p10 + 29) = {8.351955548645394, -2.176371798370336, 1};
Point(p10 + 30) = {8.442655, -2.18351, 1};
Point(p10 + 31) = {8.533354451354606, -2.176371798370336, 1};
Point(p10 + 32) = {8.621820581202639, -2.1551329596958, 1};
Point(p10 + 33) = {8.705875059824992, -2.120316454672222, 1};
Point(p10 + 34) = {8.783448186997157, -2.072779581202639, 1};
Point(p10 + 35) = {8.85262985487771, -2.013692854877711, 1};
Point(p10 + 36) = {8.91171658120264, -1.944511186997158, 1};
Point(p10 + 37) = {8.959253454672222, -1.866938059824991, 1};
Point(p10 + 38) = {8.9940699596958, -1.78288358120264, 1};
Point(p10 + 39) = {9.015308798370336, -1.694417451354606, 1};
Spline(10) = {8, p10 + 1, p10 + 2, p10 + 3, p10 + 4, p10 + 5, p10 + 6, p10 + 7, p10 + 8, p10 + 9, p10 + 10, p10 + 11, p10 + 12, p10 + 13, p10 + 14, p10 + 15, p10 + 16, p10 + 17, p10 + 18, p10 + 19, p10 + 20, p10 + 21, p10 + 22, p10 + 23, p10 + 24, p10 + 25, p10 + 26, p10 + 27, p10 + 28, p10 + 29, p10 + 30, p10 + 31, p10 + 32, p10 + 33, p10 + 34, p10 + 35, p10 + 36, p10 + 37, p10 + 38, p10 + 39, 8};
p11 = newp;
Point(p11 + 1) = {21.63696096580496, -1.417404493289894, 1};
Point(p11 + 2) = {21.61294957424463, -1.317389849544104, 1};
Point(p11 + 3) = {21.57358806546847, -1.222362761221222, 1};
Point(p11 + 4) = {21.5198456504559, -1.134663110612582, 1};
Point(p11 + 5) = {21.45304564582538, -1.056450354174623, 1};
Point(p11 + 6) = {21.37483288938742, -0.9896503495441038, 1};
Point(p11 + 7) = {21.28713323877878, -0.9359079345315328, 1};
Point(p11 + 8) = {21.1921061504559, -0.896546425755369, 1};
Point(p11 + 9) = {21.0920915067101, -0.8725350341950396, 1};
Point(p11 + 10) = {20.989552, -0.8644649999999999, 1};
Point(p11 + 11) = {20.88701249328989, -0.8725350341950396, 1};
Point(p11 + 12) = {20.7869978495441, -0.8965464257553689, 1};
Point(p11 + 13) = {20.69197076122122, -0.9359079345315328, 1};
Point(p11 + 14) = {20.60427111061258, -0.9896503495441038, 1};
Point(p11 + 15) = {20.52605835417462, -1.056450354174623, 1};
Point(p11 + 16) = {20.4592583495441, -1.134663110612582, 1};
Point(p11 + 17) = {20.40551593453153, -1.222362761221222, 1};
Point(p11 + 18) = {20.36615442575537, -1.317389849544104, 1};
Point(p11 + 19) = {20.34214303419504, -1.417404493289894, 1};
Point(p11 + 20) = {20.334073, -1.519944, 1};
Point(p11 + 21) = {20.34214303419504, -1.622483506710105, 1};
Point(p11 + 22) = {20.36615442575537, -1.722498150455896, 1};
Point(p11 + 23) = {20.40551593453153, -1.817525238778778, 1};
Point(p11 + 24) = {20.4592583495441, -1.905224889387418, 1};
Point(p11 + 25) = {20.52605835417462, -1.983437645825377, 1};
Point(p11 + 26) = {20.60427111061258, -2.050237650455896, 1};
Point(p11 + 27) = {20.69197076122122, -2.103980065468467, 1};
Point(p11 + 28) = {20.7869978495441, -2.143341574244631, 1};
Point(p11 + 29) = {20.88701249328989, -2.16735296580496, 1};
Point(p11 + 30) = {20.989552, -2.175423, 1};
Point(p11 + 31) = {21.0920915067101, -2.16735296580496, 1};
Point(p11 + 32) = {21.1921061504559, -2.143341574244631, 1};
Point(p11 + 33) = {21.28713323877878, -2.103980065468467, 1};
Point(p11 + 34) = {21.37483288938742, -2.050237650455896, 1};
Point(p11 + 35) = {21.45304564582538, -1.983437645825377, 1};
Point(p11 + 36) = {21.5198456504559, -1.905224889387418, 1};
Point(p11 + 37) = {21.57358806546847, -1.817525238778778, 1};
Point(p11 + 38) = {21.61294957424463, -1.722498150455896, 1};
Point(p11 + 39) = {21.63696096580496, -1.622483506710106, 1};
Spline(11) = {9, p11 + 1, p11 + 2, p11 + 3, p11 + 4, p11 + 5, p11 + 6, p11 + 7, p11 + 8, p11 + 9, p11 + 10, p11 + 11, p11 + 12, p11 + 13, p11 + 14, p11 + 15, p11 + 16, p11 + 17, p11 + 18, p11 + 19, p11 + 20, p11 + 21, p11 + 22, p11 + 23, p11 + 24, p11 + 25, p11 + 26, p11 + 27, p11 + 28, p11 + 29, p11 + 30, p11 + 31, p11 + 32, p11 + 33, p11 + 34, p11 + 35, p11 + 36, p11 + 37, p11 + 38, p11 + 39, 9};
p12 = newp;
Point(p12 + 1) = {20.4017521757867, 0.474327802428049, 1};
Point(p12 + 2) = {20.3753611076562, 0.5842545124444815, 1};
Point(p12 + 3) = {20.33209863129279, 0.6886993696228588, 1};
Point(p12 + 4) = {20.27303001244448, 0.7850905949468416, 1};
Point(p12 + 5) = {20.19960971654482, 0.8710547165448175, 1};
Point(p12 + 6) = {20.11364559494684, 0.9444750124444815, 1};
Point(p12 + 7) = {20.01725436962286, 1.003543631292792, 1};
Point(p12 + 8) = {19.91280951244448, 1.046806107656197, 1};
Point(p12 + 9) = {19.80288280242805, 1.073197175786702, 1};
Point(p12 + 10) = {19.690181, 1.082067, 1};
Point(p12 + 11) = {19.57747919757195, 1.073197175786702, 1};
Point(p12 + 12) = {19.46755248755552, 1.046806107656197, 1};
Point(p12 + 13) = {19.36310763037714, 1.003543631292792, 1};
Point(p12 + 14) = {19.26671640505316, 0.9444750124444815, 1};
Point(p12 + 15) = {19.18075228345518, 0.8710547165448175, 1};
Point(p12 + 16) = {19.10733198755552, 0.7850905949468417, 1};
Point(p12 + 17) = {19.04826336870721, 0.6886993696228589, 1};
Point(p12 + 18) = {19.0050008923438, 0.5842545124444816, 1};
Point(p12 + 19) = {18.9786098242133, 0.4743278024280491, 1};
Point(p12 + 20) = {18.96974, 0.3616260000000001, 1};
Point(p12 + 21) = {18.9786098242133, 0.2489241975719511, 1};
Point(p12 + 22) = {19.0050008923438, 0.1389974875555183, 1};
Point(p12 + 23) = {19.04826336870721, 0.03455263037714157, 1};
Point(p12 + 24) = {19.10733198755552, -0.06183859494684157, 1};
Point(p12 + 25) = {19.18075228345518, -0.1478027165448175, 1};
Point(p12 + 26) = {19.26671640505316, -0.2212230124444814, 1};
Point(p12 + 27) = {19.36310763037714, -0.2802916312927919, 1};
Point(p12 + 28) = {19.46755248755552, -0.3235541076561967, 1};
Point(p12 + 29) = {19.57747919757195, -0.3499451757867016, 1};
Point(p12 + 30) = {19.690181, -0.358815, 1};
Point(p12 + 31) = {19.80288280242805, -0.3499451757867017, 1};
Point(p12 + 32) = {19.91280951244448, -0.3235541076561967, 1};
Point(p12 + 33) = {20.01725436962286, -0.280291631292792, 1};
Point(p12 + 34) = {20.11364559494684, -0.2212230124444816, 1};
Point(p12 + 35) = {20.19960971654482, -0.1478027165448176, 1};
Point(p12 + 36) = {20.27303001244448, -0.0618385949468418, 1};
Point(p12 + 37) = {20.33209863129279, 0.03455263037714107, 1};
Point(p12 + 38) = {20.3753611076562, 0.1389974875555184, 1};
Point(p12 + 39) = {20.4017521757867, 0.2489241975719509, 1};
Spline(12) = {10, p12 + 1, p12 + 2, p12 + 3, p12 + 4, p12 + 5, p12 + 6, p12 + 7, p12 + 8, p12 + 9, p12 + 10, p12 + 11, p12 + 12, p12 + 13, p12 + 14, p12 + 15, p12 + 16, p12 + 17, p12 + 18, p12 + 19, p12 + 20, p12 + 21, p12 + 22, p12 + 23, p12 + 24, p12 + 25, p12 + 26, p12 + 27, p12 + 28, p12 + 29, p12 + 30, p12 + 31, p12 + 32, p12 + 33, p12 + 34, p12 + 35, p12 + 36, p12 + 37, p12 + 38, p12 + 39, 10};
p13 = newp;
Point(p13 + 1) = {25.37604483033253, 2.023542385931819, 1};
Point(p13 + 2) = {25.29018110860805, 2.177518286923903, 1};
Point(p13 + 3) = {25.18554627079111, 2.31940805931687, 1};
Point(p13 + 4) = {25.06381828111319, 2.44693630451641, 1};
Point(p13 + 5) = {24.92694921611882, 2.558057930864625, 1};
Point(p13 + 6) = {24.77713396042049, 2.650990949511117, 1};
Point(p13 + 7) = {24.61677500869046, 2.724245051066933, 1};
Point(p13 + 8) = {24.44844393833842, 2.77664550477526, 1};
Point(p13 + 9) = {24.27484017071374, 2.8073519969426, 1};
Point(p13 + 10) = {24.09874768215356, 2.815872106530175, 1};
Point(p13 + 11) = {23.92299035907462, 2.802069201805816, 1};
Point(p13 + 12) = {23.750386713052, 2.766164631422619, 1};
Point(p13 + 13) = {23.58370468209073, 2.708734174787383, 1};
Point(p13 + 14) = {23.42561724291458, 2.630698808642086, 1};
Point(p13 + 15) = {23.27865954609016, 2.53330993792902, 1};
Point(p13 + 16) = {23.145188261384, 2.418129327783083, 1};
Point(p13 + 17) = {23.02734378530586, 2.287004058469454, 1};
Point(p13 + 18) = {22.92701591689264, 2.142036904898846, 1};
Point(p13 + 19) = {22.84581355216911, 1.985552615725743, 1};
Point(p13 + 20) = {22.78503888327661, 1.820060632790885, 1};
Point(p13 + 21) = {22.74566651602242, 1.648214848753263, 1};
Point(p13 + 22) = {22.72832784072872, 1.472771048253606, 1};
Point(p13 + 23) = {22.73330090701617, 1.296542715099131, 1};
Point(p13 + 24) = {22.76050596489398, 1.122355914162411, 1};
Point(p13 + 25) = {22.80950674366127, 0.9530039715254771, 1};
Point(p13 + 26) = {22.87951744811062, 0.7912026796356703, 1};
Point(p13 + 27) = {22.96941535984023, 0.6395467458204764, 1};
Point(p13 + 28) = {23.07775884159514, 0.5004681825696068, 1};
Point(p13 + 29) = {23.20281045591296, 0.3761973068536393, 1};
Point(p13 + 30) = {23.3425648273347, 0.2687269739090647, 1};
Point(p13 + 31) = {23.4947808013718, 0.1797806190504083, 1};
Point(p13 + 32) = {23.65701738451559, 0.1107846200031479, 1};
Point(p13 + 33) = {23.82667288894177, 0.06284542296560613, 1};
Point(p13 + 34) = {24.00102665417016, 0.03673179921503489, 1};
Point(p13 + 35) = {24.17728267661558, 0.03286251679773033, 1};
Point(p13 + 36) = {24.3526144473694, 0.05129962500466578, 1};
Point(p13 + 37) = {24.5242102791762, 0.09174745932535711, 1};
Point(p13 + 38) = {24.68931839572473, 0.1535573828369032, 1};
Point(p13 + 39) = {24.84529106018399, 0.2357381879934708, 1};
Spline(13) = {11, p13 + 1, p13 + 2, p13 + 3, p13 + 4, p13 + 5, p13 + 6, p13 + 7, p13 + 8, p13 + 9, p13 + 10, p13 + 11, p13 + 12, p13 + 13, p13 + 14, p13 + 15, p13 + 16, p13 + 17, p13 + 18, p13 + 19, p13 + 20, p13 + 21, p13 + 22, p13 + 23, p13 + 24, p13 + 25, p13 + 26, p13 + 27, p13 + 28, p13 + 29, p13 + 30, p13 + 31, p13 + 32, p13 + 33, p13 + 34, p13 + 35, p13 + 36, p13 + 37, p13 + 38, p13 + 39, 12};
p14 = newp;
Point(p14 + 1) = {26.210847, 0.803025, 1};
Circle(14) = {13, p14 + 1, 11};
p15 = newp;
Point(p15 + 1) = {26.210847, 0.803025, 1};
Circle(15) = {12, p15 + 1, 13};
p16 = newp;
Point(p16 + 1) = {23.03796216272247, 2.957237077836799, 1};
Point(p16 + 2) = {22.99698873460645, 3.127903688548266, 1};
Point(p16 + 3) = {22.92982161743517, 3.290059453768678, 1};
Point(p16 + 4) = {22.83811468854827, 3.439711560394177, 1};
Point(p16 + 5) = {22.72412607689278, 3.573175076892777, 1};
Point(p16 + 6) = {22.59066256039418, 3.687163688548266, 1};
Point(p16 + 7) = {22.44101045376868, 3.778870617435173, 1};
Point(p16 + 8) = {22.27885468854826, 3.846037734606455, 1};
Point(p16 + 9) = {22.1081880778368, 3.887011162722473, 1};
Point(p16 + 10) = {21.933213, 3.900782, 1};
Point(p16 + 11) = {21.7582379221632, 3.887011162722473, 1};
Point(p16 + 12) = {21.58757131145173, 3.846037734606455, 1};
Point(p16 + 13) = {21.42541554623132, 3.778870617435173, 1};
Point(p16 + 14) = {21.27576343960582, 3.687163688548266, 1};
Point(p16 + 15) = {21.14229992310722, 3.573175076892777, 1};
Point(p16 + 16) = {21.02831131145173, 3.439711560394177, 1};
Point(p16 + 17) = {20.93660438256483, 3.290059453768678, 1};
Point(p16 + 18) = {20.86943726539354, 3.127903688548266, 1};
Point(p16 + 19) = {20.82846383727752, 2.957237077836799, 1};
Point(p16 + 20) = {20.814693, 2.782262, 1};
Point(p16 + 21) = {20.82846383727752, 2.607286922163201, 1};
Point(p16 + 22) = {20.86943726539354, 2.436620311451733, 1};
Point(p16 + 23) = {20.93660438256482, 2.274464546231322, 1};
Point(p16 + 24) = {21.02831131145173, 2.124812439605823, 1};
Point(p16 + 25) = {21.14229992310722, 1.991348923107223, 1};
Point(p16 + 26) = {21.27576343960582, 1.877360311451734, 1};
Point(p16 + 27) = {21.42541554623132, 1.785653382564827, 1};
Point(p16 + 28) = {21.58757131145173, 1.718486265393545, 1};
Point(p16 + 29) = {21.7582379221632, 1.677512837277527, 1};
Point(p16 + 30) = {21.933213, 1.663742, 1};
Point(p16 + 31) = {22.1081880778368, 1.677512837277526, 1};
Point(p16 + 32) = {22.27885468854826, 1.718486265393545, 1};
Point(p16 + 33) = {22.44101045376868, 1.785653382564826, 1};
Point(p16 + 34) = {22.59066256039418, 1.877360311451733, 1};
Point(p16 + 35) = {22.72412607689278, 1.991348923107223, 1};
Point(p16 + 36) = {22.83811468854826, 2.124812439605822, 1};
Point(p16 + 37) = {22.92982161743517, 2.274464546231322, 1};
Point(p16 + 38) = {22.99698873460645, 2.436620311451733, 1};
Point(p16 + 39) = {23.03796216272247, 2.607286922163201, 1};
Spline(16) = {14, p16 + 1, p16 + 2, p16 + 3, p16 + 4, p16 + 5, p16 + 6, p16 + 7, p16 + 8, p16 + 9, p16 + 10, p16 + 11, p16 + 12, p16 + 13, p16 + 14, p16 + 15, p16 + 16, p16 + 17, p16 + 18, p16 + 19, p16 + 20, p16 + 21, p16 + 22, p16 + 23, p16 + 24, p16 + 25, p16 + 26, p16 + 27, p16 + 28, p16 + 29, p16 + 30, p16 + 31, p16 + 32, p16 + 33, p16 + 34, p16 + 35, p16 + 36, p16 + 37, p16 + 38, p16 + 39, 14};
Line(17) = {4, 15};
Line(18) = {15, 7};
Line(19) = {5, 15};
p20 = newp;
Point(p20 + 1) = {9.015308798370336, -1.513018548645394, 0};
Point(p20 + 2) = {8.9940699596958, -1.424552418797361, 0};
Point(p20 + 3) = {8.959253454672222, -1.340497940175009, 0};
Point(p20 + 4) = {8.91171658120264, -1.262924813002842, 0};
Point(p20 + 5) = {8.85262985487771, -1.193743145122289, 0};
Point(p20 + 6) = {8.783448186997157, -1.13465641879736, 0};
Point(p20 + 7) = {8.705875059824992, -1.087119545327778, 0};
Point(p20 + 8) = {8.621820581202639, -1.0523030403042, 0};
Point(p20 + 9) = {8.533354451354606, -1.031064201629664, 0};
Point(p20 + 10) = {8.442655, -1.023926, 0};
Point(p20 + 11) = {8.351955548645394, -1.031064201629664, 0};
Point(p20 + 12) = {8.263489418797361, -1.0523030403042, 0};
Point(p20 + 13) = {8.179434940175009, -1.087119545327778, 0};
Point(p20 + 14) = {8.101861813002843, -1.13465641879736, 0};
Point(p20 + 15) = {8.03268014512229, -1.193743145122289, 0};
Point(p20 + 16) = {7.97359341879736, -1.262924813002842, 0};
Point(p20 + 17) = {7.926056545327778, -1.340497940175009, 0};
Point(p20 + 18) = {7.891240040304201, -1.42455241879736, 0};
Point(p20 + 19) = {7.870001201629664, -1.513018548645394, 0};
Point(p20 + 20) = {7.862863, -1.603718, 0};
Point(p20 + 21) = {7.870001201629664, -1.694417451354606, 0};
Point(p20 + 22) = {7.891240040304201, -1.78288358120264, 0};
Point(p20 + 23) = {7.926056545327778, -1.866938059824991, 0};
Point(p20 + 24) = {7.97359341879736, -1.944511186997157, 0};
Point(p20 + 25) = {8.03268014512229, -2.013692854877711, 0};
Point(p20 + 26) = {8.101861813002843, -2.072779581202639, 0};
Point(p20 + 27) = {8.179434940175009, -2.120316454672222, 0};
Point(p20 + 28) = {8.263489418797361, -2.1551329596958, 0};
Point(p20 + 29) = {8.351955548645394, -2.176371798370336, 0};
Point(p20 + 30) = {8.442655, -2.18351, 0};
Point(p20 + 31) = {8.533354451354606, -2.176371798370336, 0};
Point(p20 + 32) = {8.621820581202639, -2.1551329596958, 0};
Point(p20 + 33) = {8.705875059824992, -2.120316454672222, 0};
Point(p20 + 34) = {8.783448186997157, -2.072779581202639, 0};
Point(p20 + 35) = {8.85262985487771, -2.013692854877711, 0};
Point(p20 + 36) = {8.91171658120264, -1.944511186997158, 0};
Point(p20 + 37) = {8.959253454672222, -1.866938059824991, 0};
Point(p20 + 38) = {8.9940699596958, -1.78288358120264, 0};
Point(p20 + 39) = {9.015308798370336, -1.694417451354606, 0};
Spline(20) = {16, p20 + 1, p20 + 2, p20 + 3, p20 + 4, p20 + 5, p20 + 6, p20 + 7, p20 + 8, p20 + 9, p20 + 10, p20 + 11, p20 + 12, p20 + 13, p20 + 14, p20 + 15, p20 + 16, p20 + 17, p20 + 18, p20 + 19, p20 + 20, p20 + 21, p20 + 22, p20 + 23, p20 + 24, p20 + 25, p20 + 26, p20 + 27, p20 + 28, p20 + 29, p20 + 30, p20 + 31, p20 + 32, p20 + 33, p20 + 34, p20 + 35, p20 + 36, p20 + 37, p20 + 38, p20 + 39, 16};
p21 = newp;
Point(p21 + 1) = {21.63696096580496, -1.417404493289894, 0};
Point(p21 + 2) = {21.61294957424463, -1.317389849544104, 0};
Point(p21 + 3) = {21.57358806546847, -1.222362761221222, 0};
Point(p21 + 4) = {21.5198456504559, -1.134663110612582, 0};
Point(p21 + 5) = {21.45304564582538, -1.056450354174623, 0};
Point(p21 + 6) = {21.37483288938742, -0.9896503495441038, 0};
Point(p21 + 7) = {21.28713323877878, -0.9359079345315328, 0};
Point(p21 + 8) = {21.1921061504559, -0.896546425755369, 0};
Point(p21 + 9) = {21.0920915067101, -0.8725350341950396, 0};
Point(p21 + 10) = {20.989552, -0.8644649999999999, 0};
Point(p21 + 11) = {20.88701249328989, -0.8725350341950396, 0};
Point(p21 + 12) = {20.7869978495441, -0.8965464257553689, 0};
Point(p21 + 13) = {20.69197076122122, -0.9359079345315328, 0};
Point(p21 + 14) = {20.60427111061258, -0.9896503495441038, 0};
Point(p21 + 15) = {20.52605835417462, -1.056450354174623, 0};
Point(p21 + 16) = {20.4592583495441, -1.134663110612582, 0};
Point(p21 + 17) = {20.40551593453153, -1.222362761221222, 0};
Point(p21 + 18) = {20.36615442575537, -1.317389849544104, 0};
Point(p21 + 19) = {20.34214303419504, -1.417404493289894, 0};
Point(p21 + 20) = {20.334073, -1.519944, 0};
Point(p21 + 21) = {20.34214303419504, -1.622483506710105, 0};
Point(p21 + 22) = {20.36615442575537, -1.722498150455896, 0};
Point(p21 + 23) = {20.40551593453153, -1.817525238778778, 0};
Point(p21 + 24) = {20.4592583495441, -1.905224889387418, 0};
Point(p21 + 25) = {20.52605835417462, -1.983437645825377, 0};
Point(p21 + 26) = {20.60427111061258, -2.050237650455896, 0};
Point(p21 + 27) = {20.69197076122122, -2.103980065468467, 0};
Point(p21 + 28) = {20.7869978495441, -2.143341574244631, 0};
Point(p21 + 29) = {20.88701249328989, -2.16735296580496, 0};
Point(p21 + 30) = {20.989552, -2.175423, 0};
Point(p21 + 31) = {21.0920915067101, -2.16735296580496, 0};
Point(p21 + 32) = {21.1921061504559, -2.143341574244631, 0};
Point(p21 + 33) = {21.28713323877878, -2.103980065468467, 0};
Point(p21 + 34) = {21.37483288938742, -2.050237650455896, 0};
Point(p21 + 35) = {21.45304564582538, -1.983437645825377, 0};
Point(p21 + 36) = {21.5198456504559, -1.905224889387418, 0};
Point(p21 + 37) = {21.57358806546847, -1.817525238778778, 0};
Point(p21 + 38) = {21.61294957424463, -1.722498150455896, 0};
Point(p21 + 39) = {21.63696096580496, -1.622483506710106, 0};
Spline(21) = {17, p21 + 1, p21 + 2, p21 + 3, p21 + 4, p21 + 5, p21 + 6, p21 + 7, p21 + 8, p21 + 9, p21 + 10, p21 + 11, p21 + 12, p21 + 13, p21 + 14, p21 + 15, p21 + 16, p21 + 17, p21 + 18, p21 + 19, p21 + 20, p21 + 21, p21 + 22, p21 + 23, p21 + 24, p21 + 25, p21 + 26, p21 + 27, p21 + 28, p21 + 29, p21 + 30, p21 + 31, p21 + 32, p21 + 33, p21 + 34, p21 + 35, p21 + 36, p21 + 37, p21 + 38, p21 + 39, 17};
p22 = newp;
Point(p22 + 1) = {20.4017521757867, 0.474327802428049, 0};
Point(p22 + 2) = {20.3753611076562, 0.5842545124444815, 0};
Point(p22 + 3) = {20.33209863129279, 0.6886993696228588, 0};
Point(p22 + 4) = {20.27303001244448, 0.7850905949468416, 0};
Point(p22 + 5) = {20.19960971654482, 0.8710547165448175, 0};
Point(p22 + 6) = {20.11364559494684, 0.9444750124444815, 0};
Point(p22 + 7) = {20.01725436962286, 1.003543631292792, 0};
Point(p22 + 8) = {19.91280951244448, 1.046806107656197, 0};
Point(p22 + 9) = {19.80288280242805, 1.073197175786702, 0};
Point(p22 + 10) = {19.690181, 1.082067, 0};
Point(p22 + 11) = {19.57747919757195, 1.073197175786702, 0};
Point(p22 + 12) = {19.46755248755552, 1.046806107656197, 0};
Point(p22 + 13) = {19.36310763037714, 1.003543631292792, 0};
Point(p22 + 14) = {19.26671640505316, 0.9444750124444815, 0};
Point(p22 + 15) = {19.18075228345518, 0.8710547165448175, 0};
Point(p22 + 16) = {19.10733198755552, 0.7850905949468417, 0};
Point(p22 + 17) = {19.04826336870721, 0.6886993696228589, 0};
Point(p22 + 18) = {19.0050008923438, 0.5842545124444816, 0};
Point(p22 + 19) = {18.9786098242133, 0.4743278024280491, 0};
Point(p22 + 20) = {18.96974, 0.3616260000000001, 0};
Point(p22 + 21) = {18.9786098242133, 0.2489241975719511, 0};
Point(p22 + 22) = {19.0050008923438, 0.1389974875555183, 0};
Point(p22 + 23) = {19.04826336870721, 0.03455263037714157, 0};
Point(p22 + 24) = {19.10733198755552, -0.06183859494684157, 0};
Point(p22 + 25) = {19.18075228345518, -0.1478027165448175, 0};
Point(p22 + 26) = {19.26671640505316, -0.2212230124444814, 0};
Point(p22 + 27) = {19.36310763037714, -0.2802916312927919, 0};
Point(p22 + 28) = {19.46755248755552, -0.3235541076561967, 0};
Point(p22 + 29) = {19.57747919757195, -0.3499451757867016, 0};
Point(p22 + 30) = {19.690181, -0.358815, 0};
Point(p22 + 31) = {19.80288280242805, -0.3499451757867017, 0};
Point(p22 + 32) = {19.91280951244448, -0.3235541076561967, 0};
Point(p22 + 33) = {20.01725436962286, -0.280291631292792, 0};
Point(p22 + 34) = {20.11364559494684, -0.2212230124444816, 0};
Point(p22 + 35) = {20.19960971654482, -0.1478027165448176, 0};
Point(p22 + 36) = {20.27303001244448, -0.0618385949468418, 0};
Point(p22 + 37) = {20.33209863129279, 0.03455263037714107, 0};
Point(p22 + 38) = {20.3753611076562, 0.1389974875555184, 0};
Point(p22 + 39) = {20.4017521757867, 0.2489241975719509, 0};
Spline(22) = {18, p22 + 1, p22 + 2, p22 + 3, p22 + 4, p22 + 5, p22 + 6, p22 + 7, p22 + 8, p22 + 9, p22 + 10, p22 + 11, p22 + 12, p22 + 13, p22 + 14, p22 + 15, p22 + 16, p22 + 17, p22 + 18, p22 + 19, p22 + 20, p22 + 21, p22 + 22, p22 + 23, p22 + 24, p22 + 25, p22 + 26, p22 + 27, p22 + 28, p22 + 29, p22 + 30, p22 + 31, p22 + 32, p22 + 33, p22 + 34, p22 + 35, p22 + 36, p22 + 37, p22 + 38, p22 + 39, 18};
p23 = newp;
Point(p23 + 1) = {25.37604483033253, 2.023542385931819, 0};
Point(p23 + 2) = {25.29018110860805, 2.177518286923903, 0};
Point(p23 + 3) = {25.18554627079111, 2.31940805931687, 0};
Point(p23 + 4) = {25.06381828111319, 2.44693630451641, 0};
Point(p23 + 5) = {24.92694921611882, 2.558057930864625, 0};
Point(p23 + 6) = {24.77713396042049, 2.650990949511117, 0};
Point(p23 + 7) = {24.61677500869046, 2.724245051066933, 0};
Point(p23 + 8) = {24.44844393833842, 2.77664550477526, 0};
Point(p23 + 9) = {24.27484017071374, 2.8073519969426, 0};
Point(p23 + 10) = {24.09874768215356, 2.815872106530175, 0};
Point(p23 + 11) = {23.92299035907462, 2.802069201805816, 0};
Point(p23 + 12) = {23.750386713052, 2.766164631422619, 0};
Point(p23 + 13) = {23.58370468209073, 2.708734174787383, 0};
Point(p23 + 14) = {23.42561724291458, 2.630698808642086, 0};
Point(p23 + 15) = {23.27865954609016, 2.53330993792902, 0};
Point(p23 + 16) = {23.145188261384, 2.418129327783083, 0};
Point(p23 + 17) = {23.02734378530586, 2.287004058469454, 0};
Point(p23 + 18) = {22.92701591689264, 2.142036904898846, 0};
Point(p23 + 19) = {22.84581355216911, 1.985552615725743, 0};
Point(p23 + 20) = {22.78503888327661, 1.820060632790885, 0};
Point(p23 + 21) = {22.74566651602242, 1.648214848753263, 0};
Point(p23 + 22) = {22.72832784072872, 1.472771048253606, 0};
Point(p23 + 23) = {22.73330090701617, 1.296542715099131, 0};
Point(p23 + 24) = {22.76050596489398, 1.122355914162411, 0};
Point(p23 + 25) = {22.80950674366127, 0.9530039715254771, 0};
Point(p23 + 26) = {22.87951744811062, 0.7912026796356703, 0};
Point(p23 + 27) = {22.96941535984023, 0.6395467458204764, 0};
Point(p23 + 28) = {23.07775884159514, 0.5004681825696068, 0};
Point(p23 + 29) = {23.20281045591296, 0.3761973068536393, 0};
Point(p23 + 30) = {23.3425648273347, 0.2687269739090647, 0};
Point(p23 + 31) = {23.4947808013718, 0.1797806190504083, 0};
Point(p23 + 32) = {23.65701738451559, 0.1107846200031479, 0};
Point(p23 + 33) = {23.82667288894177, 0.06284542296560613, 0};
Point(p23 + 34) = {24.00102665417016, 0.03673179921503489, 0};
Point(p23 + 35) = {24.17728267661558, 0.03286251679773033, 0};
Point(p23 + 36) = {24.3526144473694, 0.05129962500466578, 0};
Point(p23 + 37) = {24.5242102791762, 0.09174745932535711, 0};
Point(p23 + 38) = {24.68931839572473, 0.1535573828369032, 0};
Point(p23 + 39) = {24.84529106018399, 0.2357381879934708, 0};
Spline(23) = {19, p23 + 1, p23 + 2, p23 + 3, p23 + 4, p23 + 5, p23 + 6, p23 + 7, p23 + 8, p23 + 9, p23 + 10, p23 + 11, p23 + 12, p23 + 13, p23 + 14, p23 + 15, p23 + 16, p23 + 17, p23 + 18, p23 + 19, p23 + 20, p23 + 21, p23 + 22, p23 + 23, p23 + 24, p23 + 25, p23 + 26, p23 + 27, p23 + 28, p23 + 29, p23 + 30, p23 + 31, p23 + 32, p23 + 33, p23 + 34, p23 + 35, p23 + 36, p23 + 37, p23 + 38, p23 + 39, 20};
p24 = newp;
Point(p24 + 1) = {26.210847, 0.803025, 0};
Circle(24) = {21, p24 + 1, 19};
p25 = newp;
Point(p25 + 1) = {26.210847, 0.803025, 0};
Circle(25) = {20, p25 + 1, 21};
p26 = newp;
Point(p26 + 1) = {23.03796216272247, 2.957237077836799, 0};
Point(p26 + 2) = {22.99698873460645, 3.127903688548266, 0};
Point(p26 + 3) = {22.92982161743517, 3.290059453768678, 0};
Point(p26 + 4) = {22.83811468854827, 3.439711560394177, 0};
Point(p26 + 5) = {22.72412607689278, 3.573175076892777, 0};
Point(p26 + 6) = {22.59066256039418, 3.687163688548266, 0};
Point(p26 + 7) = {22.44101045376868, 3.778870617435173, 0};
Point(p26 + 8) = {22.27885468854826, 3.846037734606455, 0};
Point(p26 + 9) = {22.1081880778368, 3.887011162722473, 0};
Point(p26 + 10) = {21.933213, 3.900782, 0};
Point(p26 + 11) = {21.7582379221632, 3.887011162722473, 0};
Point(p26 + 12) = {21.58757131145173, 3.846037734606455, 0};
Point(p26 + 13) = {21.42541554623132, 3.778870617435173, 0};
Point(p26 + 14) = {21.27576343960582, 3.687163688548266, 0};
Point(p26 + 15) = {21.14229992310722, 3.573175076892777, 0};
Point(p26 + 16) = {21.02831131145173, 3.439711560394177, 0};
Point(p26 + 17) = {20.93660438256483, 3.290059453768678, 0};
Point(p26 + 18) = {20.86943726539354, 3.127903688548266, 0};
Point(p26 + 19) = {20.82846383727752, 2.957237077836799, 0};
Point(p26 + 20) = {20.814693, 2.782262, 0};
Point(p26 + 21) = {20.82846383727752, 2.607286922163201, 0};
Point(p26 + 22) = {20.86943726539354, 2.436620311451733, 0};
Point(p26 + 23) = {20.93660438256482, 2.274464546231322, 0};
Point(p26 + 24) = {21.02831131145173, 2.124812439605823, 0};
Point(p26 + 25) = {21.14229992310722, 1.991348923107223, 0};
Point(p26 + 26) = {21.27576343960582, 1.877360311451734, 0};
Point(p26 + 27) = {21.42541554623132, 1.785653382564827, 0};
Point(p26 + 28) = {21.58757131145173, 1.718486265393545, 0};
Point(p26 + 29) = {21.7582379221632, 1.677512837277527, 0};
Point(p26 + 30) = {21.933213, 1.663742, 0};
Point(p26 + 31) = {22.1081880778368, 1.677512837277526, 0};
Point(p26 + 32) = {22.27885468854826, 1.718486265393545, 0};
Point(p26 + 33) = {22.44101045376868, 1.785653382564826, 0};
Point(p26 + 34) = {22.59066256039418, 1.877360311451733, 0};
Point(p26 + 35) = {22.72412607689278, 1.991348923107223, 0};
Point(p26 + 36) = {22.83811468854826, 2.124812439605822, 0};
Point(p26 + 37) = {22.92982161743517, 2.274464546231322, 0};
Point(p26 + 38) = {22.99698873460645, 2.436620311451733, 0};
Point(p26 + 39) = {23.03796216272247, 2.607286922163201, 0};
Spline(26) = {22, p26 + 1, p26 + 2, p26 + 3, p26 + 4, p26 + 5, p26 + 6, p26 + 7, p26 + 8, p26 + 9, p26 + 10, p26 + 11, p26 + 12, p26 + 13, p26 + 14, p26 + 15, p26 + 16, p26 + 17, p26 + 18, p26 + 19, p26 + 20, p26 + 21, p26 + 22, p26 + 23, p26 + 24, p26 + 25, p26 + 26, p26 + 27, p26 + 28, p26 + 29, p26 + 30, p26 + 31, p26 + 32, p26 + 33, p26 + 34, p26 + 35, p26 + 36, p26 + 37, p26 + 38, p26 + 39, 22};
Line(27) = {16, 8};
Line(28) = {17, 9};
Line(29) = {18, 10};
Line(30) = {20, 12};
Line(31) = {19, 11};
Line(32) = {21, 13};
Line(33) = {22, 14};
Curve Loop(1) = {-1, 4, 3, -2};
Plane Surface(1) = {1};
Curve Loop(2) = {-5, 1, 7, -6};
Plane Surface(2) = {2};
Curve Loop(3) = {-2, 7, 9, -8, -10, -11, -12, -13, -14, -15, -16};
Plane Surface(3) = {3};
Curve Loop(4) = {-17, 3, 8, -18};
Plane Surface(4) = {4};
Curve Loop(5) = {-4, 5, 19, -17, -20, -21, -22, -23, -24, -25, -26};
Plane Surface(5) = {5};
Curve Loop(6) = {-6, 19, 18, -9};
Plane Surface(6) = {6};
Curve Loop(7) = {-10, -27, 20, 27};
Surface(7) = {7};
Curve Loop(8) = {-11, -28, 21, 28};
Surface(8) = {8};
Curve Loop(9) = {-12, -29, 22, 29};
Surface(9) = {9};
Curve Loop(10) = {-13, -31, 23, 30};
Surface(10) = {10};
Curve Loop(11) = {-14, -32, 24, 31};
Surface(11) = {11};
Curve Loop(12) = {32, -15, -30, 25};
Surface(12) = {12};
Curve Loop(13) = {-16, -33, 26, 33};
Surface(13) = {13};
Surface Loop(1) = {1, 2, 3, 4, 5, 6, 7, 8, 9, 10, 11, 12, 13};
Volume(1) = {1};
Physical Surface("INFLOW") = {1};
Physical Surface("OUTFLOW") = {6};
Physical Surface("OBSTACLE") = {7};
Physical Surface("WALL_Y") = {2, 4};
Physical Surface("WALL_Z") = {3, 5};
Physical Volume("FLUID") = {1};
