cl__1 = 3.319396;
cl__2 = 0.220569;
cl__3 = 0.539342;
cl__4 = 0.14567;
cl__5 = 0.132998;
Point(1) = {0.784307, -3.781795, 1, cl__1};
Point(2) = {0.784307, -3.781795, 0, cl__1};
Point(3) = {0.784307, 5.379439000000001, 1, cl__1};
Point(4) = {0.784307, 5.379439000000001, 0, cl__1};
Point(5) = {32.876386, -3.781795, 0, cl__2};
Point(6) = {32.876386, -3.781795, 1, cl__2};
Point(7) = {32.876386, 5.379439000000001, 1, cl__3};
Point(8) = {31.916175, -1.030138, 1, cl__4};
Point(9) = {27.003972, 3.390737999999999, 1, cl__5};
Point(10) = {32.876386, 5.379439000000001, 0, cl__3};
Point(11) = {31.916175, -1.030138, 0, cl__4};
Point(12) = {27.003972, 3.390737999999999, 0, cl__5};
Line(1) = {2, 1};
Line(2) = {1, 3};
Line(3) = {4, 3};
Line(4) = {2, 4};
Line(5) = {2, 5};
Line(6) = {5, 6};
Line(7) = {1, 6};
Line(8) = {3, 7};
Line(9) = {6, 7};
p10 = newp;
Point(p10 + 1) = {31.89824058112162, -0.8022596019069657, 1};
Point(p10 + 2) = {31.84487892940018, -0.5799923262600254, 1};
Point(p10 + 3) = {31.75740398579824, -0.3688091310484028, 1};
Point(p10 + 4) = {31.63796967373997, -0.1739100474150498, 1};
Point(p10 + 5) = {31.48951686236801, -9.413763199406233e-05, 1};
Point(p10 + 6) = {31.31570095258495, 0.1483586737399747, 1};
Point(p10 + 7) = {31.1208018689516, 0.2677929857982437, 1};
Point(p10 + 8) = {30.90961867373997, 0.3552679294001826, 1};
Point(p10 + 9) = {30.68735139809303, 0.4086295811216183, 1};
Point(p10 + 10) = {30.459473, 0.4265639999999999, 1};
Point(p10 + 11) = {30.23159460190696, 0.4086295811216181, 1};
Point(p10 + 12) = {30.00932732626002, 0.3552679294001828, 1};
Point(p10 + 13) = {29.7981441310484, 0.267792985798244, 1};
Point(p10 + 14) = {29.60324504741505, 0.1483586737399747, 1};
Point(p10 + 15) = {29.42942913763199, -9.413763199384029e-05, 1};
Point(p10 + 16) = {29.28097632626002, -0.1739100474150497, 1};
Point(p10 + 17) = {29.16154201420176, -0.3688091310484026, 1};
Point(p10 + 18) = {29.07406707059982, -0.5799923262600253, 1};
Point(p10 + 19) = {29.02070541887838, -0.8022596019069654, 1};
Point(p10 + 20) = {29.002771, -1.030138, 1};
Point(p10 + 21) = {29.02070541887838, -1.258016398093034, 1};
Point(p10 + 22) = {29.07406707059982, -1.480283673739975, 1};
Point(p10 + 23) = {29.16154201420175, -1.691466868951597, 1};
Point(p10 + 24) = {29.28097632626002, -1.88636595258495, 1};
Point(p10 + 25) = {29.42942913763199, -2.060181862368006, 1};
Point(p10 + 26) = {29.60324504741505, -2.208634673739974, 1};
Point(p10 + 27) = {29.7981441310484, -2.328068985798244, 1};
Point(p10 + 28) = {30.00932732626002, -2.415543929400183, 1};
Point(p10 + 29) = {30.23159460190696, -2.468905581121618, 1};
Point(p10 + 30) = {30.459473, -2.48684, 1};
Point(p10 + 31) = {30.68735139809303, -2.468905581121618, 1};
Point(p10 + 32) = {30.90961867373997, -2.415543929400183, 1};
Point(p10 + 33) = {31.1208018689516, -2.328068985798244, 1};
Point(p10 + 34) = {31.31570095258495, -2.208634673739975, 1};
Point(p10 + 35) = {31.48951686236801, -2.060181862368006, 1};
Point(p10 + 36) = {31.63796967373997, -1.886365952584951, 1};
Point(p10 + 37) = {31.75740398579824, -1.691466868951597, 1};
Point(p10 + 38) = {31.84487892940018, -1.480283673739975, 1};
Point(p10 + 39) = {31.89824058112162, -1.258016398093035, 1};
Spline(10) = {8, p10 + 1, p10 + 2, p10 + 3, p10 + 4, p10 + 5, p10 + 6, p10 + 7, p10 + 8, p10 + 9, p10 + 10, p10 + 11, p10 + 12, p10 + 13, p10 + 14, p10 + 15, p10 + 16, p10 + 17, p10 + 18, p10 + 19, p10 + 20, p10 + 21, p10 + 22, p10 + 23, p10 + 24, p10 + 25, p10 + 26, p10 + 27, p10 + 28, p10 + 29, p10 + 30, p10 + 31, p10 + 32, p10 + 33, p10 + 34, p10 + 35, p10 + 36, p10 + 37, p10 + 38, p10 + 39, 8};
p11 = newp;
Point(p11 + 1) = {26.98759770228974, 3.598793179117601, 1};
Point(p11 + 2) = {26.93887799871177, 3.801725349229776, 1};
Point(p11 + 3) = {26.85901253005962, 3.994537646815101, 1};
Point(p11 + 4) = {26.74996784922978, 4.1724823931997, 1};
Point(p11 + 5) = {26.61442899816283, 4.331177998162827, 1};
Point(p11 + 6) = {26.4557333931997, 4.466716849229775, 1};
Point(p11 + 7) = {26.2777886468151, 4.575761530059617, 1};
Point(p11 + 8) = {26.08497634922977, 4.655626998711777, 1};
Point(p11 + 9) = {25.8820441791176, 4.704346702289743, 1};
Point(p11 + 10) = {25.673989, 4.720720999999999, 1};
Point(p11 + 11) = {25.4659338208824, 4.704346702289743, 1};
Point(p11 + 12) = {25.26300165077022, 4.655626998711777, 1};
Point(p11 + 13) = {25.0701893531849, 4.575761530059617, 1};
Point(p11 + 14) = {24.8922446068003, 4.466716849229775, 1};
Point(p11 + 15) = {24.73354900183717, 4.331177998162828, 1};
Point(p11 + 16) = {24.59801015077022, 4.1724823931997, 1};
Point(p11 + 17) = {24.48896546994038, 3.994537646815101, 1};
Point(p11 + 18) = {24.40910000128822, 3.801725349229776, 1};
Point(p11 + 19) = {24.36038029771026, 3.598793179117601, 1};
Point(p11 + 20) = {24.344006, 3.390738, 1};
Point(p11 + 21) = {24.36038029771026, 3.182682820882399, 1};
Point(p11 + 22) = {24.40910000128822, 2.979750650770224, 1};
Point(p11 + 23) = {24.48896546994038, 2.786938353184899, 1};
Point(p11 + 24) = {24.59801015077022, 2.6089936068003, 1};
Point(p11 + 25) = {24.73354900183717, 2.450298001837172, 1};
Point(p11 + 26) = {24.8922446068003, 2.314759150770224, 1};
Point(p11 + 27) = {25.0701893531849, 2.205714469940382, 1};
Point(p11 + 28) = {25.26300165077022, 2.125849001288223, 1};
Point(p11 + 29) = {25.4659338208824, 2.077129297710257, 1};
Point(p11 + 30) = {25.673989, 2.060755, 1};
Point(p11 + 31) = {25.8820441791176, 2.077129297710257, 1};
Point(p11 + 32) = {26.08497634922977, 2.125849001288223, 1};
Point(p11 + 33) = {26.2777886468151, 2.205714469940382, 1};
Point(p11 + 34) = {26.4557333931997, 2.314759150770224, 1};
Point(p11 + 35) = {26.61442899816283, 2.450298001837171, 1};
Point(p11 + 36) = {26.74996784922978, 2.608993606800299, 1};
Point(p11 + 37) = {26.85901253005962, 2.786938353184898, 1};
Point(p11 + 38) = {26.93887799871177, 2.979750650770224, 1};
Point(p11 + 39) = {26.98759770228974, 3.182682820882398, 1};
Spline(11) = {9, p11 + 1, p11 + 2, p11 + 3, p11 + 4, p11 + 5, p11 + 6, p11 + 7, p11 + 8, p11 + 9, p11 + 10, p11 + 11, p11 + 12, p11 + 13, p11 + 14, p11 + 15, p11 + 16, p11 + 17, p11 + 18, p11 + 19, p11 + 20, p11 + 21, p11 + 22, p11 + 23, p11 + 24, p11 + 25, p11 + 26, p11 + 27, p11 + 28, p11 + 29, p11 + 30, p11 + 31, p11 + 32, p11 + 33, p11 + 34, p11 + 35, p11 + 36, p11 + 37, p11 + 38, p11 + 39, 9};
Line(12) = {4, 10};
Line(13) = {10, 7};
Line(14) = {5, 10};
p15 = newp;
Point(p15 + 1) = {31.89824058112162, -0.8022596019069657, 0};
Point(p15 + 2) = {31.84487892940018, -0.5799923262600254, 0};
Point(p15 + 3) = {31.75740398579824, -0.3688091310484028, 0};
Point(p15 + 4) = {31.63796967373997, -0.1739100474150498, 0};
Point(p15 + 5) = {31.48951686236801, -9.413763199406233e-05, 0};
Point(p15 + 6) = {31.31570095258495, 0.1483586737399747, 0};
Point(p15 + 7) = {31.1208018689516, 0.2677929857982437, 0};
Point(p15 + 8) = {30.90961867373997, 0.3552679294001826, 0};
Point(p15 + 9) = {30.68735139809303, 0.4086295811216183, 0};
Point(p15 + 10) = {30.459473, 0.4265639999999999, 0};
Point(p15 + 11) = {30.23159460190696, 0.4086295811216181, 0};
Point(p15 + 12) = {30.00932732626002, 0.3552679294001828, 0};
Point(p15 + 13) = {29.7981441310484, 0.267792985798244, 0};
Point(p15 + 14) = {29.60324504741505, 0.1483586737399747, 0};
Point(p15 + 15) = {29.42942913763199, -9.413763199384029e-05, 0};
Point(p15 + 16) = {29.28097632626002, -0.1739100474150497, 0};
Point(p15 + 17) = {29.16154201420176, -0.3688091310484026, 0};
Point(p15 + 18) = {29.07406707059982, -0.5799923262600253, 0};
Point(p15 + 19) = {29.02070541887838, -0.8022596019069654, 0};
Point(p15 + 20) = {29.002771, -1.030138, 0};
Point(p15 + 21) = {29.02070541887838, -1.258016398093034, 0};
Point(p15 + 22) = {29.07406707059982, -1.480283673739975, 0};
Point(p15 + 23) = {29.16154201420175, -1.691466868951597, 0};
Point(p15 + 24) = {29.28097632626002, -1.88636595258495, 0};
Point(p15 + 25) = {29.42942913763199, -2.060181862368006, 0};
Point(p15 + 26) = {29.60324504741505, -2.208634673739974, 0};
Point(p15 + 27) = {29.7981441310484, -2.328068985798244, 0};
Point(p15 + 28) = {30.00932732626002, -2.415543929400183, 0};
Point(p15 + 29) = {30.23159460190696, -2.468905581121618, 0};
Point(p15 + 30) = {30.459473, -2.48684, 0};
Point(p15 + 31) = {30.68735139809303, -2.468905581121618, 0};
Point(p15 + 32) = {30.90961867373997, -2.415543929400183, 0};
Point(p15 + 33) = {31.1208018689516, -2.328068985798244, 0};
Point(p15 + 34) = {31.31570095258495, -2.208634673739975, 0};
Point(p15 + 35) = {31.48951686236801, -2.060181862368006, 0};
Point(p15 + 36) = {31.63796967373997, -1.886365952584951, 0};
Point(p15 + 37) = {31.75740398579824, -1.691466868951597, 0};
Point(p15 + 38) = {31.84487892940018, -1.480283673739975, 0};
Point(p15 + 39) = {31.89824058112162, -1.258016398093035, 0};
Spline(15) = {11, p15 + 1, p15 + 2, p15 + 3, p15 + 4, p15 + 5, p15 + 6, p15 + 7, p15 + 8, p15 + 9, p15 + 10, p15 + 11, p15 + 12, p15 + 13, p15 + 14, p15 + 15, p15 + 16, p15 + 17, p15 + 18, p15 + 19, p15 + 20, p15 + 21, p15 + 22, p15 + 23, p15 + 24, p15 + 25, p15 + 26, p15 + 27, p15 + 28, p15 + 29, p15 + 30, p15 + 31, p15 + 32, p15 + 33, p15 + 34, p15 + 35, p15 + 36, p15 + 37, p15 + 38, p15 + 39, 11};
p16 = newp;
Point(p16 + 1) = {26.98759770228974, 3.598793179117601, 0};
Point(p16 + 2) = {26.93887799871177, 3.801725349229776, 0};
Point(p16 + 3) = {26.85901253005962, 3.994537646815101, 0};
Point(p16 + 4) = {26.74996784922978, 4.1724823931997, 0};
Point(p16 + 5) = {26.61442899816283, 4.331177998162827, 0};
Point(p16 + 6) = {26.4557333931997, 4.466716849229775, 0};
Point(p16 + 7) = {26.2777886468151, 4.575761530059617, 0};
Point(p16 + 8) = {26.08497634922977, 4.655626998711777, 0};
Point(p16 + 9) = {25.8820441791176, 4.704346702289743, 0};
Point(p16 + 10) = {25.673989, 4.720720999999999, 0};
Point(p16 + 11) = {25.4659338208824, 4.704346702289743, 0};
Point(p16 + 12) = {25.26300165077022, 4.655626998711777, 0};
Point(p16 + 13) = {25.0701893531849, 4.575761530059617, 0};
Point(p16 + 14) = {24.8922446068003, 4.466716849229775, 0};
Point(p16 + 15) = {24.73354900183717, 4.331177998162828, 0};
Point(p16 + 16) = {24.59801015077022, 4.1724823931997, 0};
Point(p16 + 17) = {24.48896546994038, 3.994537646815101, 0};
Point(p16 + 18) = {24.40910000128822, 3.801725349229776, 0};
Point(p16 + 19) = {24.36038029771026, 3.598793179117601, 0};
Point(p16 + 20) = {24.344006, 3.390738, 0};
Point(p16 + 21) = {24.36038029771026, 3.182682820882399, 0};
Point(p16 + 22) = {24.40910000128822, 2.979750650770224, 0};
Point(p16 + 23) = {24.48896546994038, 2.786938353184899, 0};
Point(p16 + 24) = {24.59801015077022, 2.6089936068003, 0};
Point(p16 + 25) = {24.73354900183717, 2.450298001837172, 0};
Point(p16 + 26) = {24.8922446068003, 2.314759150770224, 0};
Point(p16 + 27) = {25.0701893531849, 2.205714469940382, 0};
Point(p16 + 28) = {25.26300165077022, 2.125849001288223, 0};
Point(p16 + 29) = {25.4659338208824, 2.077129297710257, 0};
Point(p16 + 30) = {25.673989, 2.060755, 0};
Point(p16 + 31) = {25.8820441791176, 2.077129297710257, 0};
Point(p16 + 32) = {26.08497634922977, 2.125849001288223, 0};
Point(p16 + 33) = {26.2777886468151, 2.205714469940382, 0};
Point(p16 + 34) = {26.4557333931997, 2.314759150770224, 0};
Point(p16 + 35) = {26.61442899816283, 2.450298001837171, 0};
Point(p16 + 36) = {26.74996784922978, 2.608993606800299, 0};
Point(p16 + 37) = {26.85901253005962, 2.786938353184898, 0};
Point(p16 + 38) = {26.93887799871177, 2.979750650770224, 0};
Point(p16 + 39) = {26.98759770228974, 3.182682820882398, 0};
Spline(16) = {12, p16 + 1, p16 + 2, p16 + 3, p16 + 4, p16 + 5, p16 + 6, p16 + 7, p16 + 8, p16 + 9, p16 + 10, p16 + 11, p16 + 12, p16 + 13, p16 + 14, p16 + 15, p16 + 16, p16 + 17, p16 + 18, p16 + 19, p16 + 20, p16 + 21, p16 + 22, p16 + 23, p16 + 24, p16 + 25, p16 + 26, p16 + 27, p16 + 28, p16 + 29, p16 + 30, p16 + 31, p16 + 32, p16 + 33, p16 + 34, p16 + 35, p16 + 36, p16 + 37, p16 + 38, p16 + 39, 12};
Line(17) = {11, 8};
Line(18) = {12, 9};
Curve Loop(1) = {-1, 4, 3, -2};
Plane Surface(1) = {1};
Curve Loop(2) = {-5, 1, 7, -6};
Plane Surface(2) = {2};
Curve Loop(3) = {-2, 7, 9, -8, -10, -11};
Plane Surface(3) = {3};
Curve Loop(4) = {-12, 3, 8, -13};
Plane Surface(4) = {4};
Curve Loop(5) = {-4, 5, 14, -12, -15, -16};
Plane Surface(5) = {5};
Curve Loop(6) = {-6, 14, 13, -9};
Plane Surface(6) = {6};
Curve Loop(7) = {-10, -17, 15, 17};
Surface(7) = {7};
Curve Loop(8) = {-11, -18, 16, 18};
Surface(8) = {8};
Surface Loop(1) = {1, 2, 3, 4, 5, 6, 7, 8};
Volume(1) = {1};
Physical Surface("INFLOW") = {1};
Physical Surface("OUTFLOW") = {6};
Physical Surface("OBSTACLE") = {7, 8};
Physical Surface("WALL_Y") = {2, 4};
Physical Surface("WALL_Z") = {3, 5};
Physical Volume("FLUID") = {1};
