cl__1 = 1;
cl__2 = 0.097591;
cl__3 = 0.116008;
Point(1) = {0.49148, -4.22483, 1, cl__1};
Point(2) = {0.49148, -4.22483, 0, cl__1};
Point(3) = {0.49148, 4.493806999999999, 1, cl__1};
Point(4) = {0.49148, 4.493806999999999, 0, cl__1};
Point(5) = {37.157232, -4.22483, 0, cl__1};
Point(6) = {37.157232, -4.22483, 1, cl__1};
Point(7) = {37.157232, 4.493806999999999, 1, cl__1};
Point(8) = {26.442518, 0.6295749999999998, 1, cl__2};
Point(9) = {5.224411, 1.525976, 1, cl__3};
Point(10) = {37.157232, 4.493806999999999, 0, cl__1};
Point(11) = {26.442518, 0.6295749999999998, 0, cl__2};
Point(12) = {5.224411, 1.525976, 0, cl__3};
Line(1) = {2, 1};
Line(2) = {1, 3};
Line(3) = {4, 3};
Line(4) = {2, 4};
Line(5) = {2, 5};
Line(6) = {5, 6};
Line(7) = {1, 6};
Line(8) = {3, 7};
Line(9) = {6, 7};
p10 = newp;
Point(p10 + 1) = {26.43050291615854, 0.7822411152118767, 1};
Point(p10 + 2) = {26.39475351587412, 0.9311480839974493, 1};
Point(p10 + 3) = {26.33615006802719, 1.072629322591321, 1};
Point(p10 + 4) = {26.25613558399745, 1.20320109335, 1};
Point(p10 + 5) = {26.15668028593455, 1.319648285934545, 1};
Point(p10 + 6) = {26.04023309335, 1.419103583997449, 1};
Point(p10 + 7) = {25.90966132259132, 1.499118068027194, 1};
Point(p10 + 8) = {25.76818008399745, 1.55772151587412, 1};
Point(p10 + 9) = {25.61927311521188, 1.593470916158541, 1};
Point(p10 + 10) = {25.466607, 1.605486, 1};
Point(p10 + 11) = {25.31394088478812, 1.593470916158541, 1};
Point(p10 + 12) = {25.16503391600255, 1.55772151587412, 1};
Point(p10 + 13) = {25.02355267740868, 1.499118068027194, 1};
Point(p10 + 14) = {24.89298090665, 1.419103583997449, 1};
Point(p10 + 15) = {24.77653371406545, 1.319648285934545, 1};
Point(p10 + 16) = {24.67707841600255, 1.20320109335, 1};
Point(p10 + 17) = {24.59706393197281, 1.072629322591321, 1};
Point(p10 + 18) = {24.53846048412588, 0.9311480839974493, 1};
Point(p10 + 19) = {24.50271108384146, 0.7822411152118769, 1};
Point(p10 + 20) = {24.490696, 0.6295750000000001, 1};
Point(p10 + 21) = {24.50271108384146, 0.4769088847881234, 1};
Point(p10 + 22) = {24.53846048412588, 0.3280019160025504, 1};
Point(p10 + 23) = {24.59706393197281, 0.1865206774086797, 1};
Point(p10 + 24) = {24.67707841600255, 0.05594890665000041, 1};
Point(p10 + 25) = {24.77653371406545, -0.06049828593454476, 1};
Point(p10 + 26) = {24.89298090665, -0.1599535839974492, 1};
Point(p10 + 27) = {25.02355267740868, -0.2399680680271942, 1};
Point(p10 + 28) = {25.16503391600255, -0.2985715158741196, 1};
Point(p10 + 29) = {25.31394088478812, -0.3343209161585413, 1};
Point(p10 + 30) = {25.466607, -0.346336, 1};
Point(p10 + 31) = {25.61927311521188, -0.3343209161585414, 1};
Point(p10 + 32) = {25.76818008399745, -0.2985715158741197, 1};
Point(p10 + 33) = {25.90966132259132, -0.2399680680271943, 1};
Point(p10 + 34) = {26.04023309335, -0.1599535839974494, 1};
Point(p10 + 35) = {26.15668028593455, -0.06049828593454487, 1};
Point(p10 + 36) = {26.25613558399745, 0.05594890665000007, 1};
Point(p10 + 37) = {26.33615006802719, 0.186520677408679, 1};
Point(p10 + 38) = {26.39475351587412, 0.3280019160025505, 1};
Point(p10 + 39) = {26.43050291615854, 0.476908884788123, 1};
Spline(10) = {8, p10 + 1, p10 + 2, p10 + 3, p10 + 4, p10 + 5, p10 + 6, p10 + 7, p10 + 8, p10 + 9, p10 + 10, p10 + 11, p10 + 12, p10 + 13, p10 + 14, p10 + 15, p10 + 16, p10 + 17, p10 + 18, p10 + 19, p10 + 20, p10 + 21, p10 + 22, p10 + 23, p10 + 24, p10 + 25, p10 + 26, p10 + 27, p10 + 28, p10 + 29, p10 + 30, p10 + 31, p10 + 32, p10 + 33, p10 + 34, p10 + 35, p10 + 36, p10 + 37, p10 + 38, p10 + 39, 8};
p11 = newp;
Point(p11 + 1) = {5.210128502469267, 1.707452337769406, 1};
Point(p11 + 2) = {5.167632692367166, 1.884460125817495, 1};
Point(p11 + 3) = {5.097969957573918, 2.052640844947354, 1};
Point(p11 + 4) = {5.002855625817495, 2.2078533276942, 1};
Point(p11 + 5) = {4.884631727612109, 2.346275727612109, 1};
Point(p11 + 6) = {4.7462093276942, 2.464499625817495, 1};
Point(p11 + 7) = {4.590996844947354, 2.559613957573918, 1};
Point(p11 + 8) = {4.422816125817495, 2.629276692367165, 1};
Point(p11 + 9) = {4.245808337769406, 2.671772502469267, 1};
Point(p11 + 10) = {4.064332, 2.686055, 1};
Point(p11 + 11) = {3.882855662230594, 2.671772502469267, 1};
Point(p11 + 12) = {3.705847874182506, 2.629276692367165, 1};
Point(p11 + 13) = {3.537667155052647, 2.559613957573918, 1};
Point(p11 + 14) = {3.3824546723058, 2.464499625817495, 1};
Point(p11 + 15) = {3.244032272387892, 2.346275727612109, 1};
Point(p11 + 16) = {3.125808374182506, 2.2078533276942, 1};
Point(p11 + 17) = {3.030694042426083, 2.052640844947354, 1};
Point(p11 + 18) = {2.961031307632835, 1.884460125817495, 1};
Point(p11 + 19) = {2.918535497530733, 1.707452337769406, 1};
Point(p11 + 20) = {2.904253, 1.525976, 1};
Point(p11 + 21) = {2.918535497530733, 1.344499662230594, 1};
Point(p11 + 22) = {2.961031307632835, 1.167491874182505, 1};
Point(p11 + 23) = {3.030694042426082, 0.9993111550526469, 1};
Point(p11 + 24) = {3.125808374182506, 0.8440986723058002, 1};
Point(p11 + 25) = {3.244032272387891, 0.7056762723878911, 1};
Point(p11 + 26) = {3.3824546723058, 0.5874523741825054, 1};
Point(p11 + 27) = {3.537667155052646, 0.4923380424260824, 1};
Point(p11 + 28) = {3.705847874182505, 0.4226753076328345, 1};
Point(p11 + 29) = {3.882855662230594, 0.3801794975307333, 1};
Point(p11 + 30) = {4.064332, 0.3658969999999999, 1};
Point(p11 + 31) = {4.245808337769406, 0.3801794975307331, 1};
Point(p11 + 32) = {4.422816125817494, 0.4226753076328345, 1};
Point(p11 + 33) = {4.590996844947353, 0.4923380424260824, 1};
Point(p11 + 34) = {4.7462093276942, 0.5874523741825052, 1};
Point(p11 + 35) = {4.884631727612109, 0.7056762723878909, 1};
Point(p11 + 36) = {5.002855625817495, 0.8440986723057997, 1};
Point(p11 + 37) = {5.097969957573918, 0.999311155052646, 1};
Point(p11 + 38) = {5.167632692367166, 1.167491874182505, 1};
Point(p11 + 39) = {5.210128502469267, 1.344499662230594, 1};
Spline(11) = {9, p11 + 1, p11 + 2, p11 + 3, p11 + 4, p11 + 5, p11 + 6, p11 + 7, p11 + 8, p11 + 9, p11 + 10, p11 + 11, p11 + 12, p11 + 13, p11 + 14, p11 + 15, p11 + 16, p11 + 17, p11 + 18, p11 + 19, p11 + 20, p11 + 21, p11 + 22, p11 + 23, p11 + 24, p11 + 25, p11 + 26, p11 + 27, p11 + 28, p11 + 29, p11 + 30, p11 + 31, p11 + 32, p11 + 33, p11 + 34, p11 + 35, p11 + 36, p11 + 37, p11 + 38, p11 + 39, 9};
Line(12) = {4, 10};
Line(13) = {10, 7};
Line(14) = {5, 10};
p15 = newp;
Point(p15 + 1) = {26.43050291615854, 0.7822411152118767, 0};
Point(p15 + 2) = {26.39475351587412, 0.9311480839974493, 0};
Point(p15 + 3) = {26.33615006802719, 1.072629322591321, 0};
Point(p15 + 4) = {26.25613558399745, 1.20320109335, 0};
Point(p15 + 5) = {26.15668028593455, 1.319648285934545, 0};
Point(p15 + 6) = {26.04023309335, 1.419103583997449, 0};
Point(p15 + 7) = {25.90966132259132, 1.499118068027194, 0};
Point(p15 + 8) = {25.76818008399745, 1.55772151587412, 0};
Point(p15 + 9) = {25.61927311521188, 1.593470916158541, 0};
Point(p15 + 10) = {25.466607, 1.605486, 0};
Point(p15 + 11) = {25.31394088478812, 1.593470916158541, 0};
Point(p15 + 12) = {25.16503391600255, 1.55772151587412, 0};
Point(p15 + 13) = {25.02355267740868, 1.499118068027194, 0};
Point(p15 + 14) = {24.89298090665, 1.419103583997449, 0};
Point(p15 + 15) = {24.77653371406545, 1.319648285934545, 0};
Point(p15 + 16) = {24.67707841600255, 1.20320109335, 0};
Point(p15 + 17) = {24.59706393197281, 1.072629322591321, 0};
Point(p15 + 18) = {24.53846048412588, 0.9311480839974493, 0};
Point(p15 + 19) = {24.50271108384146, 0.7822411152118769, 0};
Point(p15 + 20) = {24.490696, 0.6295750000000001, 0};
Point(p15 + 21) = {24.50271108384146, 0.4769088847881234, 0};
Point(p15 + 22) = {24.53846048412588, 0.3280019160025504, 0};
Point(p15 + 23) = {24.59706393197281, 0.1865206774086797, 0};
Point(p15 + 24) = {24.67707841600255, 0.05594890665000041, 0};
Point(p15 + 25) = {24.77653371406545, -0.06049828593454476, 0};
Point(p15 + 26) = {24.89298090665, -0.1599535839974492, 0};
Point(p15 + 27) = {25.02355267740868, -0.2399680680271942, 0};
Point(p15 + 28) = {25.16503391600255, -0.2985715158741196, 0};
Point(p15 + 29) = {25.31394088478812, -0.3343209161585413, 0};
Point(p15 + 30) = {25.466607, -0.346336, 0};
Point(p15 + 31) = {25.61927311521188, -0.3343209161585414, 0};
Point(p15 + 32) = {25.76818008399745, -0.2985715158741197, 0};
Point(p15 + 33) = {25.90966132259132, -0.2399680680271943, 0};
Point(p15 + 34) = {26.04023309335, -0.1599535839974494, 0};
Point(p15 + 35) = {26.15668028593455, -0.06049828593454487, 0};
Point(p15 + 36) = {26.25613558399745, 0.05594890665000007, 0};
Point(p15 + 37) = {26.33615006802719, 0.186520677408679, 0};
Point(p15 + 38) = {26.39475351587412, 0.3280019160025505, 0};
Point(p15 + 39) = {26.43050291615854, 0.476908884788123, 0};
Spline(15) = {11, p15 + 1, p15 + 2, p15 + 3, p15 + 4, p15 + 5, p15 + 6, p15 + 7, p15 + 8, p15 + 9, p15 + 10, p15 + 11, p15 + 12, p15 + 13, p15 + 14, p15 + 15, p15 + 16, p15 + 17, p15 + 18, p15 + 19, p15 + 20, p15 + 21, p15 + 22, p15 + 23, p15 + 24, p15 + 25, p15 + 26, p15 + 27, p15 + 28, p15 + 29, p15 + 30, p15 + 31, p15 + 32, p15 + 33, p15 + 34, p15 + 35, p15 + 36, p15 + 37, p15 + 38, p15 + 39, 11};
p16 = newp;
Point(p16 + 1) = {5.210128502469267, 1.707452337769406, 0};
Point(p16 + 2) = {5.167632692367166, 1.884460125817495, 0};
Point(p16 + 3) = {5.097969957573918, 2.052640844947354, 0};
Point(p16 + 4) = {5.002855625817495, 2.2078533276942, 0};
Point(p16 + 5) = {4.884631727612109, 2.346275727612109, 0};
Point(p16 + 6) = {4.7462093276942, 2.464499625817495, 0};
Point(p16 + 7) = {4.590996844947354, 2.559613957573918, 0};
Point(p16 + 8) = {4.422816125817495, 2.629276692367165, 0};
Point(p16 + 9) = {4.245808337769406, 2.671772502469267, 0};
Point(p16 + 10) = {4.064332, 2.686055, 0};
Point(p16 + 11) = {3.882855662230594, 2.671772502469267, 0};
Point(p16 + 12) = {3.705847874182506, 2.629276692367165, 0};
Point(p16 + 13) = {3.537667155052647, 2.559613957573918, 0};
Point(p16 + 14) = {3.3824546723058, 2.464499625817495, 0};
Point(p16 + 15) = {3.244032272387892, 2.346275727612109, 0};
Point(p16 + 16) = {3.125808374182506, 2.2078533276942, 0};
Point(p16 + 17) = {3.030694042426083, 2.052640844947354, 0};
Point(p16 + 18) = {2.961031307632835, 1.884460125817495, 0};
Point(p16 + 19) = {2.918535497530733, 1.707452337769406, 0};
Point(p16 + 20) = {2.904253, 1.525976, 0};
Point(p16 + 21) = {2.918535497530733, 1.344499662230594, 0};
Point(p16 + 22) = {2.961031307632835, 1.167491874182505, 0};
Point(p16 + 23) = {3.030694042426082, 0.9993111550526469, 0};
Point(p16 + 24) = {3.125808374182506, 0.8440986723058002, 0};
Point(p16 + 25) = {3.244032272387891, 0.7056762723878911, 0};
Point(p16 + 26) = {3.3824546723058, 0.5874523741825054, 0};
Point(p16 + 27) = {3.537667155052646, 0.4923380424260824, 0};
Point(p16 + 28) = {3.705847874182505, 0.4226753076328345, 0};
Point(p16 + 29) = {3.882855662230594, 0.3801794975307333, 0};
Point(p16 + 30) = {4.064332, 0.3658969999999999, 0};
Point(p16 + 31) = {4.245808337769406, 0.3801794975307331, 0};
Point(p16 + 32) = {4.422816125817494, 0.4226753076328345, 0};
Point(p16 + 33) = {4.590996844947353, 0.4923380424260824, 0};
Point(p16 + 34) = {4.7462093276942, 0.5874523741825052, 0};
Point(p16 + 35) = {4.884631727612109, 0.7056762723878909, 0};
Point(p16 + 36) = {5.002855625817495, 0.8440986723057997, 0};
Point(p16 + 37) = {5.097969957573918, 0.999311155052646, 0};
Point(p16 + 38) = {5.167632692367166, 1.167491874182505, 0};
Point(p16 + 39) = {5.210128502469267, 1.344499662230594, 0};
Spline(16) = {12, p16 + 1, p16 + 2, p16 + 3, p16 + 4, p16 + 5, p16 + 6, p16 + 7, p16 + 8, p16 + 9, p16 + 10, p16 + 11, p16 + 12, p16 + 13, p16 + 14, p16 + 15, p16 + 16, p16 + 17, p16 + 18, p16 + 19, p16 + 20, p16 + 21, p16 + 22, p16 + 23, p16 + 24, p16 + 25, p16 + 26, p16 + 27, p16 + 28, p16 + 29, p16 + 30, p16 + 31, p16 + 32, p16 + 33, p16 + 34, p16 + 35, p16 + 36, p16 + 37, p16 + 38, p16 + 39, 12};
Line(17) = {11, 8};
Line(18) = {12, 9};
Curve Loop(1) = {-1, 4, 3, -2};
Plane Surface(1) = {1};
Curve Loop(2) = {-5, 1, 7, -6};
Plane Surface(2) = {2};
Curve Loop(3) = {-2, 7, 9, -8, -10, -11};
Plane Surface(3) = {3};
Curve Loop(4) = {-12, 3, 8, -13};
Plane Surface(4) = {4};
Curve Loop(5) = {-4, 5, 14, -12, -15, -16};
Plane Surface(5) = {5};
Curve Loop(6) = {-6, 14, 13, -9};
Plane Surface(6) = {6};
Curve Loop(7) = {-10, -17, 15, 17};
Surface(7) = {7};
Curve Loop(8) = {-11, -18, 16, 18};
Surface(8) = {8};
Surface Loop(1) = {1, 2, 3, 4, 5, 6, 7, 8};
Volume(1) = {1};
Physical Surface("INFLOW") = {1};
Physical Surface("OUTFLOW") = {6};
Physical Surface("OBSTACLE") = {7, 8};
Physical Surface("WALL_Y") = {2, 4};
Physical Surface("WALL_Z") = {3, 5};
Physical Volume("FLUID") = {1};
