cl__1 = 3.330173;
cl__2 = 1.446965;
cl__3 = 1.431154;
cl__4 = 0.132336;
Point(1) = {0.003473, -4.569139, 1, cl__1};
Point(2) = {0.003473, -4.569139, 0, cl__1};
Point(3) = {0.003473, 4.614611, 1, cl__1};
Point(4) = {0.003473, 4.614611, 0, cl__1};
Point(5) = {32.98363, -4.569139, 0, cl__2};
Point(6) = {32.98363, -4.569139, 1, cl__2};
Point(7) = {32.98363, 4.614611, 1, cl__3};
Point(8) = {19.281144, 0.2932699999999996, 1, cl__4};
Point(9) = {32.98363, 4.614611, 0, cl__3};
Point(10) = {19.281144, 0.2932699999999996, 0, cl__4};
Line(1) = {2, 1};
Line(2) = {1, 3};
Line(3) = {4, 3};
Line(4) = {2, 4};
Line(5) = {2, 5};
Line(6) = {5, 6};
Line(7) = {1, 6};
Line(8) = {3, 7};
Line(9) = {6, 7};
p10 = newp;
Point(p10 + 1) = {19.26485124240998, 0.5002891136556399, 1};
Point(p10 + 2) = {19.21637415140436, 0.7022107296760304, 1};
Point(p10 + 3) = {19.13690639384992, 0.8940628677353266, 1};
Point(p10 + 4) = {19.02840472967603, 1.071121491473767, 1};
Point(p10 + 5) = {18.89354082995103, 1.229026829951029, 1};
Point(p10 + 6) = {18.73563549147377, 1.363890729676031, 1};
Point(p10 + 7) = {18.55857686773533, 1.472392393849918, 1};
Point(p10 + 8) = {18.36672472967603, 1.551860151404354, 1};
Point(p10 + 9) = {18.16480311365564, 1.600337242409982, 1};
Point(p10 + 10) = {17.957784, 1.61663, 1};
Point(p10 + 11) = {17.75076488634436, 1.600337242409981, 1};
Point(p10 + 12) = {17.54884327032397, 1.551860151404355, 1};
Point(p10 + 13) = {17.35699113226467, 1.472392393849919, 1};
Point(p10 + 14) = {17.17993250852623, 1.363890729676031, 1};
Point(p10 + 15) = {17.02202717004897, 1.22902682995103, 1};
Point(p10 + 16) = {16.88716327032397, 1.071121491473767, 1};
Point(p10 + 17) = {16.77866160615008, 0.8940628677353268, 1};
Point(p10 + 18) = {16.69919384859564, 0.7022107296760305, 1};
Point(p10 + 19) = {16.65071675759002, 0.50028911365564, 1};
Point(p10 + 20) = {16.634424, 0.2932700000000001, 1};
Point(p10 + 21) = {16.65071675759002, 0.08625088634436023, 1};
Point(p10 + 22) = {16.69919384859564, -0.1156707296760309, 1};
Point(p10 + 23) = {16.77866160615008, -0.3075228677353259, 1};
Point(p10 + 24) = {16.88716327032397, -0.4845814914737672, 1};
Point(p10 + 25) = {17.02202717004897, -0.6424868299510296, 1};
Point(p10 + 26) = {17.17993250852623, -0.7773507296760305, 1};
Point(p10 + 27) = {17.35699113226467, -0.8858523938499185, 1};
Point(p10 + 28) = {17.54884327032397, -0.9653201514043546, 1};
Point(p10 + 29) = {17.75076488634436, -1.013797242409981, 1};
Point(p10 + 30) = {17.957784, -1.03009, 1};
Point(p10 + 31) = {18.16480311365564, -1.013797242409982, 1};
Point(p10 + 32) = {18.36672472967603, -0.9653201514043548, 1};
Point(p10 + 33) = {18.55857686773533, -0.8858523938499188, 1};
Point(p10 + 34) = {18.73563549147377, -0.7773507296760307, 1};
Point(p10 + 35) = {18.89354082995103, -0.6424868299510298, 1};
Point(p10 + 36) = {19.02840472967603, -0.4845814914737677, 1};
Point(p10 + 37) = {19.13690639384992, -0.3075228677353269, 1};
Point(p10 + 38) = {19.21637415140436, -0.1156707296760308, 1};
Point(p10 + 39) = {19.26485124240998, 0.08625088634435973, 1};
Spline(10) = {8, p10 + 1, p10 + 2, p10 + 3, p10 + 4, p10 + 5, p10 + 6, p10 + 7, p10 + 8, p10 + 9, p10 + 10, p10 + 11, p10 + 12, p10 + 13, p10 + 14, p10 + 15, p10 + 16, p10 + 17, p10 + 18, p10 + 19, p10 + 20, p10 + 21, p10 + 22, p10 + 23, p10 + 24, p10 + 25, p10 + 26, p10 + 27, p10 + 28, p10 + 29, p10 + 30, p10 + 31, p10 + 32, p10 + 33, p10 + 34, p10 + 35, p10 + 36, p10 + 37, p10 + 38, p10 + 39, 8};
Line(11) = {4, 9};
Line(12) = {9, 7};
Line(13) = {5, 9};
p14 = newp;
Point(p14 + 1) = {19.26485124240998, 0.5002891136556399, 0};
Point(p14 + 2) = {19.21637415140436, 0.7022107296760304, 0};
Point(p14 + 3) = {19.13690639384992, 0.8940628677353266, 0};
Point(p14 + 4) = {19.02840472967603, 1.071121491473767, 0};
Point(p14 + 5) = {18.89354082995103, 1.229026829951029, 0};
Point(p14 + 6) = {18.73563549147377, 1.363890729676031, 0};
Point(p14 + 7) = {18.55857686773533, 1.472392393849918, 0};
Point(p14 + 8) = {18.36672472967603, 1.551860151404354, 0};
Point(p14 + 9) = {18.16480311365564, 1.600337242409982, 0};
Point(p14 + 10) = {17.957784, 1.61663, 0};
Point(p14 + 11) = {17.75076488634436, 1.600337242409981, 0};
Point(p14 + 12) = {17.54884327032397, 1.551860151404355, 0};
Point(p14 + 13) = {17.35699113226467, 1.472392393849919, 0};
Point(p14 + 14) = {17.17993250852623, 1.363890729676031, 0};
Point(p14 + 15) = {17.02202717004897, 1.22902682995103, 0};
Point(p14 + 16) = {16.88716327032397, 1.071121491473767, 0};
Point(p14 + 17) = {16.77866160615008, 0.8940628677353268, 0};
Point(p14 + 18) = {16.69919384859564, 0.7022107296760305, 0};
Point(p14 + 19) = {16.65071675759002, 0.50028911365564, 0};
Point(p14 + 20) = {16.634424, 0.2932700000000001, 0};
Point(p14 + 21) = {16.65071675759002, 0.08625088634436023, 0};
Point(p14 + 22) = {16.69919384859564, -0.1156707296760309, 0};
Point(p14 + 23) = {16.77866160615008, -0.3075228677353259, 0};
Point(p14 + 24) = {16.88716327032397, -0.4845814914737672, 0};
Point(p14 + 25) = {17.02202717004897, -0.6424868299510296, 0};
Point(p14 + 26) = {17.17993250852623, -0.7773507296760305, 0};
Point(p14 + 27) = {17.35699113226467, -0.8858523938499185, 0};
Point(p14 + 28) = {17.54884327032397, -0.9653201514043546, 0};
Point(p14 + 29) = {17.75076488634436, -1.013797242409981, 0};
Point(p14 + 30) = {17.957784, -1.03009, 0};
Point(p14 + 31) = {18.16480311365564, -1.013797242409982, 0};
Point(p14 + 32) = {18.36672472967603, -0.9653201514043548, 0};
Point(p14 + 33) = {18.55857686773533, -0.8858523938499188, 0};
Point(p14 + 34) = {18.73563549147377, -0.7773507296760307, 0};
Point(p14 + 35) = {18.89354082995103, -0.6424868299510298, 0};
Point(p14 + 36) = {19.02840472967603, -0.4845814914737677, 0};
Point(p14 + 37) = {19.13690639384992, -0.3075228677353269, 0};
Point(p14 + 38) = {19.21637415140436, -0.1156707296760308, 0};
Point(p14 + 39) = {19.26485124240998, 0.08625088634435973, 0};
Spline(14) = {10, p14 + 1, p14 + 2, p14 + 3, p14 + 4, p14 + 5, p14 + 6, p14 + 7, p14 + 8, p14 + 9, p14 + 10, p14 + 11, p14 + 12, p14 + 13, p14 + 14, p14 + 15, p14 + 16, p14 + 17, p14 + 18, p14 + 19, p14 + 20, p14 + 21, p14 + 22, p14 + 23, p14 + 24, p14 + 25, p14 + 26, p14 + 27, p14 + 28, p14 + 29, p14 + 30, p14 + 31, p14 + 32, p14 + 33, p14 + 34, p14 + 35, p14 + 36, p14 + 37, p14 + 38, p14 + 39, 10};
Line(15) = {10, 8};
Curve Loop(1) = {-1, 4, 3, -2};
Plane Surface(1) = {1};
Curve Loop(2) = {-5, 1, 7, -6};
Plane Surface(2) = {2};
Curve Loop(3) = {-2, 7, 9, -8, -10};
Plane Surface(3) = {3};
Curve Loop(4) = {-11, 3, 8, -12};
Plane Surface(4) = {4};
Curve Loop(5) = {-4, 5, 13, -11, -14};
Plane Surface(5) = {5};
Curve Loop(6) = {-6, 13, 12, -9};
Plane Surface(6) = {6};
Curve Loop(7) = {-10, -15, 14, 15};
Surface(7) = {7};
Surface Loop(1) = {1, 2, 3, 4, 5, 6, 7};
Volume(1) = {1};
Physical Surface("INFLOW") = {1};
Physical Surface("OUTFLOW") = {6};
Physical Surface("OBSTACLE") = {7};
Physical Surface("WALL_Y") = {2, 4};
Physical Surface("WALL_Z") = {3, 5};
Physical Volume("FLUID") = {1};
