cl__1 = 1;
cl__2 = 0.076683;
cl__3 = 0.129208;
Point(1) = {0.997538, -3.299369, 1, cl__1};
Point(2) = {0.997538, -3.299369, 0, cl__1};
Point(3) = {0.997538, 4.318422, 1, cl__1};
Point(4) = {0.997538, 4.318422, 0, cl__1};
Point(5) = {30.909095, -3.299369, 0, cl__1};
Point(6) = {30.909095, -3.299369, 1, cl__1};
Point(7) = {30.909095, 4.318422, 1, cl__1};
Point(8) = {21.837875, 0.2816319999999998, 1, cl__2};
Point(9) = {4.681234, 0.9708569999999996, 1, cl__3};
Point(10) = {30.909095, 4.318422, 0, cl__1};
Point(11) = {21.837875, 0.2816319999999998, 0, cl__2};
Point(12) = {4.681234, 0.9708569999999996, 0, cl__3};
Line(1) = {2, 1};
Line(2) = {1, 3};
Line(3) = {4, 3};
Line(4) = {2, 4};
Line(5) = {2, 5};
Line(6) = {5, 6};
Line(7) = {1, 6};
Line(8) = {3, 7};
Line(9) = {6, 7};
p10 = newp;
Point(p10 + 1) = {21.82843411177686, 0.4015898586544751, 1};
Point(p10 + 2) = {21.80034391310803, 0.518593956711569, 1};
Point(p10 + 3) = {21.75429607791074, 0.6297632649627779, 1};
Point(p10 + 4) = {21.69142445671157, 0.7323604260891756, 1};
Point(p10 + 5) = {21.61327715748337, 0.8238591574833742, 1};
Point(p10 + 6) = {21.52177842608917, 0.9020064567115691, 1};
Point(p10 + 7) = {21.41918126496278, 0.9648780779107451, 1};
Point(p10 + 8) = {21.30801195671157, 1.010925913108031, 1};
Point(p10 + 9) = {21.19100785865448, 1.039016111776867, 1};
Point(p10 + 10) = {21.07105, 1.048457, 1};
Point(p10 + 11) = {20.95109214134552, 1.039016111776866, 1};
Point(p10 + 12) = {20.83408804328843, 1.010925913108031, 1};
Point(p10 + 13) = {20.72291873503722, 0.9648780779107452, 1};
Point(p10 + 14) = {20.62032157391083, 0.9020064567115691, 1};
Point(p10 + 15) = {20.52882284251663, 0.8238591574833743, 1};
Point(p10 + 16) = {20.45067554328843, 0.7323604260891758, 1};
Point(p10 + 17) = {20.38780392208925, 0.629763264962778, 1};
Point(p10 + 18) = {20.34175608689197, 0.5185939567115692, 1};
Point(p10 + 19) = {20.31366588822313, 0.4015898586544751, 1};
Point(p10 + 20) = {20.304225, 0.2816320000000001, 1};
Point(p10 + 21) = {20.31366588822313, 0.161674141345525, 1};
Point(p10 + 22) = {20.34175608689197, 0.04467004328843072, 1};
Point(p10 + 23) = {20.38780392208925, -0.06649926496277753, 1};
Point(p10 + 24) = {20.45067554328843, -0.1690964260891756, 1};
Point(p10 + 25) = {20.52882284251663, -0.2605951574833743, 1};
Point(p10 + 26) = {20.62032157391083, -0.338742456711569, 1};
Point(p10 + 27) = {20.72291873503722, -0.4016140779107451, 1};
Point(p10 + 28) = {20.83408804328843, -0.4476619131080311, 1};
Point(p10 + 29) = {20.95109214134552, -0.4757521117768664, 1};
Point(p10 + 30) = {21.07105, -0.485193, 1};
Point(p10 + 31) = {21.19100785865447, -0.4757521117768665, 1};
Point(p10 + 32) = {21.30801195671157, -0.4476619131080312, 1};
Point(p10 + 33) = {21.41918126496278, -0.4016140779107452, 1};
Point(p10 + 34) = {21.52177842608917, -0.3387424567115691, 1};
Point(p10 + 35) = {21.61327715748337, -0.2605951574833745, 1};
Point(p10 + 36) = {21.69142445671157, -0.1690964260891759, 1};
Point(p10 + 37) = {21.75429607791074, -0.06649926496277808, 1};
Point(p10 + 38) = {21.80034391310803, 0.0446700432884308, 1};
Point(p10 + 39) = {21.82843411177686, 0.1616741413455248, 1};
Spline(10) = {8, p10 + 1, p10 + 2, p10 + 3, p10 + 4, p10 + 5, p10 + 6, p10 + 7, p10 + 8, p10 + 9, p10 + 10, p10 + 11, p10 + 12, p10 + 13, p10 + 14, p10 + 15, p10 + 16, p10 + 17, p10 + 18, p10 + 19, p10 + 20, p10 + 21, p10 + 22, p10 + 23, p10 + 24, p10 + 25, p10 + 26, p10 + 27, p10 + 28, p10 + 29, p10 + 30, p10 + 31, p10 + 32, p10 + 33, p10 + 34, p10 + 35, p10 + 36, p10 + 37, p10 + 38, p10 + 39, 8};
p11 = newp;
Point(p11 + 1) = {4.665326363427825, 1.172982687154716, 1};
Point(p11 + 2) = {4.617995152518126, 1.370131369074988, 1};
Point(p11 + 3) = {4.540405818766782, 1.557448590912974, 1};
Point(p11 + 4) = {4.434468869074988, 1.730321980996806, 1};
Point(p11 + 5) = {4.302792822728733, 1.884494822728733, 1};
Point(p11 + 6) = {4.148619980996807, 2.016170869074988, 1};
Point(p11 + 7) = {3.975746590912974, 2.122107818766782, 1};
Point(p11 + 8) = {3.788429369074988, 2.199697152518126, 1};
Point(p11 + 9) = {3.591280687154716, 2.247028363427825, 1};
Point(p11 + 10) = {3.389155, 2.262936, 1};
Point(p11 + 11) = {3.187029312845283, 2.247028363427825, 1};
Point(p11 + 12) = {2.989880630925013, 2.199697152518126, 1};
Point(p11 + 13) = {2.802563409087027, 2.122107818766782, 1};
Point(p11 + 14) = {2.629690019003194, 2.016170869074988, 1};
Point(p11 + 15) = {2.475517177271267, 1.884494822728733, 1};
Point(p11 + 16) = {2.343841130925012, 1.730321980996806, 1};
Point(p11 + 17) = {2.237904181233218, 1.557448590912974, 1};
Point(p11 + 18) = {2.160314847481875, 1.370131369074988, 1};
Point(p11 + 19) = {2.112983636572175, 1.172982687154717, 1};
Point(p11 + 20) = {2.097076, 0.9708570000000001, 1};
Point(p11 + 21) = {2.112983636572175, 0.7687313128452837, 1};
Point(p11 + 22) = {2.160314847481875, 0.5715826309250118, 1};
Point(p11 + 23) = {2.237904181233218, 0.3842654090870268, 1};
Point(p11 + 24) = {2.343841130925012, 0.2113920190031937, 1};
Point(p11 + 25) = {2.475517177271267, 0.05721917727126691, 1};
Point(p11 + 26) = {2.629690019003194, -0.0744568690749875, 1};
Point(p11 + 27) = {2.802563409087026, -0.1803938187667821, 1};
Point(p11 + 28) = {2.989880630925012, -0.2579831525181256, 1};
Point(p11 + 29) = {3.187029312845283, -0.3053143634278249, 1};
Point(p11 + 30) = {3.389155, -0.321222, 1};
Point(p11 + 31) = {3.591280687154716, -0.3053143634278249, 1};
Point(p11 + 32) = {3.788429369074988, -0.2579831525181259, 1};
Point(p11 + 33) = {3.975746590912974, -0.1803938187667823, 1};
Point(p11 + 34) = {4.148619980996807, -0.07445686907498794, 1};
Point(p11 + 35) = {4.302792822728733, 0.05721917727126669, 1};
Point(p11 + 36) = {4.434468869074988, 0.2113920190031933, 1};
Point(p11 + 37) = {4.540405818766782, 0.3842654090870259, 1};
Point(p11 + 38) = {4.617995152518126, 0.571582630925012, 1};
Point(p11 + 39) = {4.665326363427825, 0.7687313128452833, 1};
Spline(11) = {9, p11 + 1, p11 + 2, p11 + 3, p11 + 4, p11 + 5, p11 + 6, p11 + 7, p11 + 8, p11 + 9, p11 + 10, p11 + 11, p11 + 12, p11 + 13, p11 + 14, p11 + 15, p11 + 16, p11 + 17, p11 + 18, p11 + 19, p11 + 20, p11 + 21, p11 + 22, p11 + 23, p11 + 24, p11 + 25, p11 + 26, p11 + 27, p11 + 28, p11 + 29, p11 + 30, p11 + 31, p11 + 32, p11 + 33, p11 + 34, p11 + 35, p11 + 36, p11 + 37, p11 + 38, p11 + 39, 9};
Line(12) = {4, 10};
Line(13) = {10, 7};
Line(14) = {5, 10};
p15 = newp;
Point(p15 + 1) = {21.82843411177686, 0.4015898586544751, 0};
Point(p15 + 2) = {21.80034391310803, 0.518593956711569, 0};
Point(p15 + 3) = {21.75429607791074, 0.6297632649627779, 0};
Point(p15 + 4) = {21.69142445671157, 0.7323604260891756, 0};
Point(p15 + 5) = {21.61327715748337, 0.8238591574833742, 0};
Point(p15 + 6) = {21.52177842608917, 0.9020064567115691, 0};
Point(p15 + 7) = {21.41918126496278, 0.9648780779107451, 0};
Point(p15 + 8) = {21.30801195671157, 1.010925913108031, 0};
Point(p15 + 9) = {21.19100785865448, 1.039016111776867, 0};
Point(p15 + 10) = {21.07105, 1.048457, 0};
Point(p15 + 11) = {20.95109214134552, 1.039016111776866, 0};
Point(p15 + 12) = {20.83408804328843, 1.010925913108031, 0};
Point(p15 + 13) = {20.72291873503722, 0.9648780779107452, 0};
Point(p15 + 14) = {20.62032157391083, 0.9020064567115691, 0};
Point(p15 + 15) = {20.52882284251663, 0.8238591574833743, 0};
Point(p15 + 16) = {20.45067554328843, 0.7323604260891758, 0};
Point(p15 + 17) = {20.38780392208925, 0.629763264962778, 0};
Point(p15 + 18) = {20.34175608689197, 0.5185939567115692, 0};
Point(p15 + 19) = {20.31366588822313, 0.4015898586544751, 0};
Point(p15 + 20) = {20.304225, 0.2816320000000001, 0};
Point(p15 + 21) = {20.31366588822313, 0.161674141345525, 0};
Point(p15 + 22) = {20.34175608689197, 0.04467004328843072, 0};
Point(p15 + 23) = {20.38780392208925, -0.06649926496277753, 0};
Point(p15 + 24) = {20.45067554328843, -0.1690964260891756, 0};
Point(p15 + 25) = {20.52882284251663, -0.2605951574833743, 0};
Point(p15 + 26) = {20.62032157391083, -0.338742456711569, 0};
Point(p15 + 27) = {20.72291873503722, -0.4016140779107451, 0};
Point(p15 + 28) = {20.83408804328843, -0.4476619131080311, 0};
Point(p15 + 29) = {20.95109214134552, -0.4757521117768664, 0};
Point(p15 + 30) = {21.07105, -0.485193, 0};
Point(p15 + 31) = {21.19100785865447, -0.4757521117768665, 0};
Point(p15 + 32) = {21.30801195671157, -0.4476619131080312, 0};
Point(p15 + 33) = {21.41918126496278, -0.4016140779107452, 0};
Point(p15 + 34) = {21.52177842608917, -0.3387424567115691, 0};
Point(p15 + 35) = {21.61327715748337, -0.2605951574833745, 0};
Point(p15 + 36) = {21.69142445671157, -0.1690964260891759, 0};
Point(p15 + 37) = {21.75429607791074, -0.06649926496277808, 0};
Point(p15 + 38) = {21.80034391310803, 0.0446700432884308, 0};
Point(p15 + 39) = {21.82843411177686, 0.1616741413455248, 0};
Spline(15) = {11, p15 + 1, p15 + 2, p15 + 3, p15 + 4, p15 + 5, p15 + 6, p15 + 7, p15 + 8, p15 + 9, p15 + 10, p15 + 11, p15 + 12, p15 + 13, p15 + 14, p15 + 15, p15 + 16, p15 + 17, p15 + 18, p15 + 19, p15 + 20, p15 + 21, p15 + 22, p15 + 23, p15 + 24, p15 + 25, p15 + 26, p15 + 27, p15 + 28, p15 + 29, p15 + 30, p15 + 31, p15 + 32, p15 + 33, p15 + 34, p15 + 35, p15 + 36, p15 + 37, p15 + 38, p15 + 39, 11};
p16 = newp;
Point(p16 + 1) = {4.665326363427825, 1.172982687154716, 0};
Point(p16 + 2) = {4.617995152518126, 1.370131369074988, 0};
Point(p16 + 3) = {4.540405818766782, 1.557448590912974, 0};
Point(p16 + 4) = {4.434468869074988, 1.730321980996806, 0};
Point(p16 + 5) = {4.302792822728733, 1.884494822728733, 0};
Point(p16 + 6) = {4.148619980996807, 2.016170869074988, 0};
Point(p16 + 7) = {3.975746590912974, 2.122107818766782, 0};
Point(p16 + 8) = {3.788429369074988, 2.199697152518126, 0};
Point(p16 + 9) = {3.591280687154716, 2.247028363427825, 0};
Point(p16 + 10) = {3.389155, 2.262936, 0};
Point(p16 + 11) = {3.187029312845283, 2.247028363427825, 0};
Point(p16 + 12) = {2.989880630925013, 2.199697152518126, 0};
Point(p16 + 13) = {2.802563409087027, 2.122107818766782, 0};
Point(p16 + 14) = {2.629690019003194, 2.016170869074988, 0};
Point(p16 + 15) = {2.475517177271267, 1.884494822728733, 0};
Point(p16 + 16) = {2.343841130925012, 1.730321980996806, 0};
Point(p16 + 17) = {2.237904181233218, 1.557448590912974, 0};
Point(p16 + 18) = {2.160314847481875, 1.370131369074988, 0};
Point(p16 + 19) = {2.112983636572175, 1.172982687154717, 0};
Point(p16 + 20) = {2.097076, 0.9708570000000001, 0};
Point(p16 + 21) = {2.112983636572175, 0.7687313128452837, 0};
Point(p16 + 22) = {2.160314847481875, 0.5715826309250118, 0};
Point(p16 + 23) = {2.237904181233218, 0.3842654090870268, 0};
Point(p16 + 24) = {2.343841130925012, 0.2113920190031937, 0};
Point(p16 + 25) = {2.475517177271267, 0.05721917727126691, 0};
Point(p16 + 26) = {2.629690019003194, -0.0744568690749875, 0};
Point(p16 + 27) = {2.802563409087026, -0.1803938187667821, 0};
Point(p16 + 28) = {2.989880630925012, -0.2579831525181256, 0};
Point(p16 + 29) = {3.187029312845283, -0.3053143634278249, 0};
Point(p16 + 30) = {3.389155, -0.321222, 0};
Point(p16 + 31) = {3.591280687154716, -0.3053143634278249, 0};
Point(p16 + 32) = {3.788429369074988, -0.2579831525181259, 0};
Point(p16 + 33) = {3.975746590912974, -0.1803938187667823, 0};
Point(p16 + 34) = {4.148619980996807, -0.07445686907498794, 0};
Point(p16 + 35) = {4.302792822728733, 0.05721917727126669, 0};
Point(p16 + 36) = {4.434468869074988, 0.2113920190031933, 0};
Point(p16 + 37) = {4.540405818766782, 0.3842654090870259, 0};
Point(p16 + 38) = {4.617995152518126, 0.571582630925012, 0};
Point(p16 + 39) = {4.665326363427825, 0.7687313128452833, 0};
Spline(16) = {12, p16 + 1, p16 + 2, p16 + 3, p16 + 4, p16 + 5, p16 + 6, p16 + 7, p16 + 8, p16 + 9, p16 + 10, p16 + 11, p16 + 12, p16 + 13, p16 + 14, p16 + 15, p16 + 16, p16 + 17, p16 + 18, p16 + 19, p16 + 20, p16 + 21, p16 + 22, p16 + 23, p16 + 24, p16 + 25, p16 + 26, p16 + 27, p16 + 28, p16 + 29, p16 + 30, p16 + 31, p16 + 32, p16 + 33, p16 + 34, p16 + 35, p16 + 36, p16 + 37, p16 + 38, p16 + 39, 12};
Line(17) = {11, 8};
Line(18) = {12, 9};
Curve Loop(1) = {-1, 4, 3, -2};
Plane Surface(1) = {1};
Curve Loop(2) = {-5, 1, 7, -6};
Plane Surface(2) = {2};
Curve Loop(3) = {-2, 7, 9, -8, -10, -11};
Plane Surface(3) = {3};
Curve Loop(4) = {-12, 3, 8, -13};
Plane Surface(4) = {4};
Curve Loop(5) = {-4, 5, 14, -12, -15, -16};
Plane Surface(5) = {5};
Curve Loop(6) = {-6, 14, 13, -9};
Plane Surface(6) = {6};
Curve Loop(7) = {-10, -17, 15, 17};
Surface(7) = {7};
Curve Loop(8) = {-11, -18, 16, 18};
Surface(8) = {8};
Surface Loop(1) = {1, 2, 3, 4, 5, 6, 7, 8};
Volume(1) = {1};
Physical Surface("INFLOW") = {1};
Physical Surface("OUTFLOW") = {6};
Physical Surface("OBSTACLE") = {7, 8};
Physical Surface("WALL_Y") = {2, 4};
Physical Surface("WALL_Z") = {3, 5};
Physical Volume("FLUID") = {1};
