cl__1 = 1.486883;
cl__2 = 1.525359;
cl__3 = 1.52185;
cl__4 = 1.559515;
cl__5 = 0.09987600000000001;
Point(1) = {0.24827, -3.293987, 1, cl__1};
Point(2) = {0.24827, -3.293987, 0, cl__1};
Point(3) = {0.24827, 5.024603000000001, 1, cl__2};
Point(4) = {0.24827, 5.024603000000001, 0, cl__2};
Point(5) = {31.596996, -3.293987, 0, cl__3};
Point(6) = {31.596996, -3.293987, 1, cl__3};
Point(7) = {31.596996, 5.024603000000001, 1, cl__4};
Point(8) = {16.742455, 0.1224899999999998, 1, cl__5};
Point(9) = {31.596996, 5.024603000000001, 0, cl__4};
Point(10) = {16.742455, 0.1224899999999998, 0, cl__5};
Line(1) = {2, 1};
Line(2) = {1, 3};
Line(3) = {4, 3};
Line(4) = {2, 4};
Line(5) = {2, 5};
Line(6) = {5, 6};
Line(7) = {1, 6};
Line(8) = {3, 7};
Line(9) = {6, 7};
p10 = newp;
Point(p10 + 1) = {16.7301586070528, 0.278730486303581, 1};
Point(p10 + 2) = {16.69357220621495, 0.4311238133019225, 1};
Point(p10 + 3) = {16.63359667609837, 0.5759175515198697, 1};
Point(p10 + 4) = {16.55170881330192, 0.7095463985796304, 1};
Point(p10 + 5) = {16.44992496877788, 0.8287199687778761, 1};
Point(p10 + 6) = {16.33075139857963, 0.9305038133019224, 1};
Point(p10 + 7) = {16.19712255151987, 1.012391676098374, 1};
Point(p10 + 8) = {16.05232881330192, 1.072367206214948, 1};
Point(p10 + 9) = {15.89993548630358, 1.1089536070528, 1};
Point(p10 + 10) = {15.743695, 1.12125, 1};
Point(p10 + 11) = {15.58745451369642, 1.1089536070528, 1};
Point(p10 + 12) = {15.43506118669808, 1.072367206214948, 1};
Point(p10 + 13) = {15.29026744848013, 1.012391676098374, 1};
Point(p10 + 14) = {15.15663860142037, 0.9305038133019224, 1};
Point(p10 + 15) = {15.03746503122212, 0.8287199687778762, 1};
Point(p10 + 16) = {14.93568118669808, 0.7095463985796305, 1};
Point(p10 + 17) = {14.85379332390163, 0.5759175515198698, 1};
Point(p10 + 18) = {14.79381779378505, 0.4311238133019226, 1};
Point(p10 + 19) = {14.7572313929472, 0.2787304863035811, 1};
Point(p10 + 20) = {14.744935, 0.1224900000000001, 1};
Point(p10 + 21) = {14.7572313929472, -0.03375048630358084, 1};
Point(p10 + 22) = {14.79381779378505, -0.1861438133019228, 1};
Point(p10 + 23) = {14.85379332390163, -0.3309375515198692, 1};
Point(p10 + 24) = {14.93568118669808, -0.4645663985796303, 1};
Point(p10 + 25) = {15.03746503122212, -0.5837399687778762, 1};
Point(p10 + 26) = {15.15663860142037, -0.6855238133019224, 1};
Point(p10 + 27) = {15.29026744848013, -0.7674116760983742, 1};
Point(p10 + 28) = {15.43506118669808, -0.8273872062149475, 1};
Point(p10 + 29) = {15.58745451369642, -0.8639736070527997, 1};
Point(p10 + 30) = {15.743695, -0.87627, 1};
Point(p10 + 31) = {15.89993548630358, -0.8639736070527998, 1};
Point(p10 + 32) = {16.05232881330192, -0.8273872062149477, 1};
Point(p10 + 33) = {16.19712255151987, -0.7674116760983744, 1};
Point(p10 + 34) = {16.33075139857963, -0.6855238133019226, 1};
Point(p10 + 35) = {16.44992496877788, -0.5837399687778764, 1};
Point(p10 + 36) = {16.55170881330192, -0.4645663985796307, 1};
Point(p10 + 37) = {16.63359667609837, -0.3309375515198699, 1};
Point(p10 + 38) = {16.69357220621495, -0.1861438133019227, 1};
Point(p10 + 39) = {16.7301586070528, -0.0337504863035812, 1};
Spline(10) = {8, p10 + 1, p10 + 2, p10 + 3, p10 + 4, p10 + 5, p10 + 6, p10 + 7, p10 + 8, p10 + 9, p10 + 10, p10 + 11, p10 + 12, p10 + 13, p10 + 14, p10 + 15, p10 + 16, p10 + 17, p10 + 18, p10 + 19, p10 + 20, p10 + 21, p10 + 22, p10 + 23, p10 + 24, p10 + 25, p10 + 26, p10 + 27, p10 + 28, p10 + 29, p10 + 30, p10 + 31, p10 + 32, p10 + 33, p10 + 34, p10 + 35, p10 + 36, p10 + 37, p10 + 38, p10 + 39, 8};
Line(11) = {4, 9};
Line(12) = {9, 7};
Line(13) = {5, 9};
p14 = newp;
Point(p14 + 1) = {16.7301586070528, 0.278730486303581, 0};
Point(p14 + 2) = {16.69357220621495, 0.4311238133019225, 0};
Point(p14 + 3) = {16.63359667609837, 0.5759175515198697, 0};
Point(p14 + 4) = {16.55170881330192, 0.7095463985796304, 0};
Point(p14 + 5) = {16.44992496877788, 0.8287199687778761, 0};
Point(p14 + 6) = {16.33075139857963, 0.9305038133019224, 0};
Point(p14 + 7) = {16.19712255151987, 1.012391676098374, 0};
Point(p14 + 8) = {16.05232881330192, 1.072367206214948, 0};
Point(p14 + 9) = {15.89993548630358, 1.1089536070528, 0};
Point(p14 + 10) = {15.743695, 1.12125, 0};
Point(p14 + 11) = {15.58745451369642, 1.1089536070528, 0};
Point(p14 + 12) = {15.43506118669808, 1.072367206214948, 0};
Point(p14 + 13) = {15.29026744848013, 1.012391676098374, 0};
Point(p14 + 14) = {15.15663860142037, 0.9305038133019224, 0};
Point(p14 + 15) = {15.03746503122212, 0.8287199687778762, 0};
Point(p14 + 16) = {14.93568118669808, 0.7095463985796305, 0};
Point(p14 + 17) = {14.85379332390163, 0.5759175515198698, 0};
Point(p14 + 18) = {14.79381779378505, 0.4311238133019226, 0};
Point(p14 + 19) = {14.7572313929472, 0.2787304863035811, 0};
Point(p14 + 20) = {14.744935, 0.1224900000000001, 0};
Point(p14 + 21) = {14.7572313929472, -0.03375048630358084, 0};
Point(p14 + 22) = {14.79381779378505, -0.1861438133019228, 0};
Point(p14 + 23) = {14.85379332390163, -0.3309375515198692, 0};
Point(p14 + 24) = {14.93568118669808, -0.4645663985796303, 0};
Point(p14 + 25) = {15.03746503122212, -0.5837399687778762, 0};
Point(p14 + 26) = {15.15663860142037, -0.6855238133019224, 0};
Point(p14 + 27) = {15.29026744848013, -0.7674116760983742, 0};
Point(p14 + 28) = {15.43506118669808, -0.8273872062149475, 0};
Point(p14 + 29) = {15.58745451369642, -0.8639736070527997, 0};
Point(p14 + 30) = {15.743695, -0.87627, 0};
Point(p14 + 31) = {15.89993548630358, -0.8639736070527998, 0};
Point(p14 + 32) = {16.05232881330192, -0.8273872062149477, 0};
Point(p14 + 33) = {16.19712255151987, -0.7674116760983744, 0};
Point(p14 + 34) = {16.33075139857963, -0.6855238133019226, 0};
Point(p14 + 35) = {16.44992496877788, -0.5837399687778764, 0};
Point(p14 + 36) = {16.55170881330192, -0.4645663985796307, 0};
Point(p14 + 37) = {16.63359667609837, -0.3309375515198699, 0};
Point(p14 + 38) = {16.69357220621495, -0.1861438133019227, 0};
Point(p14 + 39) = {16.7301586070528, -0.0337504863035812, 0};
Spline(14) = {10, p14 + 1, p14 + 2, p14 + 3, p14 + 4, p14 + 5, p14 + 6, p14 + 7, p14 + 8, p14 + 9, p14 + 10, p14 + 11, p14 + 12, p14 + 13, p14 + 14, p14 + 15, p14 + 16, p14 + 17, p14 + 18, p14 + 19, p14 + 20, p14 + 21, p14 + 22, p14 + 23, p14 + 24, p14 + 25, p14 + 26, p14 + 27, p14 + 28, p14 + 29, p14 + 30, p14 + 31, p14 + 32, p14 + 33, p14 + 34, p14 + 35, p14 + 36, p14 + 37, p14 + 38, p14 + 39, 10};
Line(15) = {10, 8};
Curve Loop(1) = {-1, 4, 3, -2};
Plane Surface(1) = {1};
Curve Loop(2) = {-5, 1, 7, -6};
Plane Surface(2) = {2};
Curve Loop(3) = {-2, 7, 9, -8, -10};
Plane Surface(3) = {3};
Curve Loop(4) = {-11, 3, 8, -12};
Plane Surface(4) = {4};
Curve Loop(5) = {-4, 5, 13, -11, -14};
Plane Surface(5) = {5};
Curve Loop(6) = {-6, 13, 12, -9};
Plane Surface(6) = {6};
Curve Loop(7) = {-10, -15, 14, 15};
Surface(7) = {7};
Surface Loop(1) = {1, 2, 3, 4, 5, 6, 7};
Volume(1) = {1};
Physical Surface("INFLOW") = {1};
Physical Surface("OUTFLOW") = {6};
Physical Surface("OBSTACLE") = {7};
Physical Surface("WALL_Y") = {2, 4};
Physical Surface("WALL_Z") = {3, 5};
Physical Volume("FLUID") = {1};
