cl__1 = 4.003104;
cl__2 = 1.571798;
cl__3 = 1.541123;
cl__4 = 0.052625;
Point(1) = {0.807221, -3.927878, 1, cl__1};
Point(2) = {0.807221, -3.927878, 0, cl__1};
Point(3) = {0.807221, 5.618189000000001, 1, cl__1};
Point(4) = {0.807221, 5.618189000000001, 0, cl__1};
Point(5) = {39.745466, -3.927878, 0, cl__2};
Point(6) = {39.745466, -3.927878, 1, cl__2};
Point(7) = {39.745466, 5.618189000000001, 1, cl__3};
Point(8) = {24.91301, 1.362216, 1, cl__4};
Point(9) = {39.745466, 5.618189000000001, 0, cl__3};
Point(10) = {24.91301, 1.362216, 0, cl__4};
Line(1) = {2, 1};
Line(2) = {1, 3};
Line(3) = {4, 3};
Line(4) = {2, 4};
Line(5) = {2, 5};
Line(6) = {5, 6};
Line(7) = {1, 6};
Line(8) = {3, 7};
Line(9) = {6, 7};
p10 = newp;
Point(p10 + 1) = {24.90653093999155, 1.444540262965282, 1};
Point(p10 + 2) = {24.88725329592639, 1.524837429357794, 1};
Point(p10 + 3) = {24.85565174738023, 1.601130316449936, 1};
Point(p10 + 4) = {24.81250442935779, 1.671540340159923, 1};
Point(p10 + 5) = {24.75887377202654, 1.734333772026545, 1};
Point(p10 + 6) = {24.69608034015992, 1.787964429357794, 1};
Point(p10 + 7) = {24.62567031644993, 1.831111747380225, 1};
Point(p10 + 8) = {24.54937742935779, 1.86271329592639, 1};
Point(p10 + 9) = {24.46908026296528, 1.881990939991554, 1};
Point(p10 + 10) = {24.386756, 1.88847, 1};
Point(p10 + 11) = {24.30443173703472, 1.881990939991554, 1};
Point(p10 + 12) = {24.2241345706422, 1.86271329592639, 1};
Point(p10 + 13) = {24.14784168355006, 1.831111747380225, 1};
Point(p10 + 14) = {24.07743165984008, 1.787964429357794, 1};
Point(p10 + 15) = {24.01463822797345, 1.734333772026545, 1};
Point(p10 + 16) = {23.96100757064221, 1.671540340159923, 1};
Point(p10 + 17) = {23.91786025261977, 1.601130316449936, 1};
Point(p10 + 18) = {23.88625870407361, 1.524837429357794, 1};
Point(p10 + 19) = {23.86698106000845, 1.444540262965282, 1};
Point(p10 + 20) = {23.860502, 1.362216, 1};
Point(p10 + 21) = {23.86698106000845, 1.279891737034718, 1};
Point(p10 + 22) = {23.88625870407361, 1.199594570642206, 1};
Point(p10 + 23) = {23.91786025261977, 1.123301683550065, 1};
Point(p10 + 24) = {23.96100757064221, 1.052891659840077, 1};
Point(p10 + 25) = {24.01463822797345, 0.9900982279734547, 1};
Point(p10 + 26) = {24.07743165984008, 0.9364675706422065, 1};
Point(p10 + 27) = {24.14784168355006, 0.8933202526197748, 1};
Point(p10 + 28) = {24.2241345706422, 0.8617187040736104, 1};
Point(p10 + 29) = {24.30443173703472, 0.8424410600084465, 1};
Point(p10 + 30) = {24.386756, 0.8359620000000001, 1};
Point(p10 + 31) = {24.46908026296528, 0.8424410600084464, 1};
Point(p10 + 32) = {24.54937742935779, 0.8617187040736103, 1};
Point(p10 + 33) = {24.62567031644993, 0.8933202526197748, 1};
Point(p10 + 34) = {24.69608034015992, 0.9364675706422064, 1};
Point(p10 + 35) = {24.75887377202654, 0.9900982279734547, 1};
Point(p10 + 36) = {24.81250442935779, 1.052891659840077, 1};
Point(p10 + 37) = {24.85565174738023, 1.123301683550065, 1};
Point(p10 + 38) = {24.88725329592639, 1.199594570642206, 1};
Point(p10 + 39) = {24.90653093999155, 1.279891737034718, 1};
Spline(10) = {8, p10 + 1, p10 + 2, p10 + 3, p10 + 4, p10 + 5, p10 + 6, p10 + 7, p10 + 8, p10 + 9, p10 + 10, p10 + 11, p10 + 12, p10 + 13, p10 + 14, p10 + 15, p10 + 16, p10 + 17, p10 + 18, p10 + 19, p10 + 20, p10 + 21, p10 + 22, p10 + 23, p10 + 24, p10 + 25, p10 + 26, p10 + 27, p10 + 28, p10 + 29, p10 + 30, p10 + 31, p10 + 32, p10 + 33, p10 + 34, p10 + 35, p10 + 36, p10 + 37, p10 + 38, p10 + 39, 8};
Line(11) = {4, 9};
Line(12) = {9, 7};
Line(13) = {5, 9};
p14 = newp;
Point(p14 + 1) = {24.90653093999155, 1.444540262965282, 0};
Point(p14 + 2) = {24.88725329592639, 1.524837429357794, 0};
Point(p14 + 3) = {24.85565174738023, 1.601130316449936, 0};
Point(p14 + 4) = {24.81250442935779, 1.671540340159923, 0};
Point(p14 + 5) = {24.75887377202654, 1.734333772026545, 0};
Point(p14 + 6) = {24.69608034015992, 1.787964429357794, 0};
Point(p14 + 7) = {24.62567031644993, 1.831111747380225, 0};
Point(p14 + 8) = {24.54937742935779, 1.86271329592639, 0};
Point(p14 + 9) = {24.46908026296528, 1.881990939991554, 0};
Point(p14 + 10) = {24.386756, 1.88847, 0};
Point(p14 + 11) = {24.30443173703472, 1.881990939991554, 0};
Point(p14 + 12) = {24.2241345706422, 1.86271329592639, 0};
Point(p14 + 13) = {24.14784168355006, 1.831111747380225, 0};
Point(p14 + 14) = {24.07743165984008, 1.787964429357794, 0};
Point(p14 + 15) = {24.01463822797345, 1.734333772026545, 0};
Point(p14 + 16) = {23.96100757064221, 1.671540340159923, 0};
Point(p14 + 17) = {23.91786025261977, 1.601130316449936, 0};
Point(p14 + 18) = {23.88625870407361, 1.524837429357794, 0};
Point(p14 + 19) = {23.86698106000845, 1.444540262965282, 0};
Point(p14 + 20) = {23.860502, 1.362216, 0};
Point(p14 + 21) = {23.86698106000845, 1.279891737034718, 0};
Point(p14 + 22) = {23.88625870407361, 1.199594570642206, 0};
Point(p14 + 23) = {23.91786025261977, 1.123301683550065, 0};
Point(p14 + 24) = {23.96100757064221, 1.052891659840077, 0};
Point(p14 + 25) = {24.01463822797345, 0.9900982279734547, 0};
Point(p14 + 26) = {24.07743165984008, 0.9364675706422065, 0};
Point(p14 + 27) = {24.14784168355006, 0.8933202526197748, 0};
Point(p14 + 28) = {24.2241345706422, 0.8617187040736104, 0};
Point(p14 + 29) = {24.30443173703472, 0.8424410600084465, 0};
Point(p14 + 30) = {24.386756, 0.8359620000000001, 0};
Point(p14 + 31) = {24.46908026296528, 0.8424410600084464, 0};
Point(p14 + 32) = {24.54937742935779, 0.8617187040736103, 0};
Point(p14 + 33) = {24.62567031644993, 0.8933202526197748, 0};
Point(p14 + 34) = {24.69608034015992, 0.9364675706422064, 0};
Point(p14 + 35) = {24.75887377202654, 0.9900982279734547, 0};
Point(p14 + 36) = {24.81250442935779, 1.052891659840077, 0};
Point(p14 + 37) = {24.85565174738023, 1.123301683550065, 0};
Point(p14 + 38) = {24.88725329592639, 1.199594570642206, 0};
Point(p14 + 39) = {24.90653093999155, 1.279891737034718, 0};
Spline(14) = {10, p14 + 1, p14 + 2, p14 + 3, p14 + 4, p14 + 5, p14 + 6, p14 + 7, p14 + 8, p14 + 9, p14 + 10, p14 + 11, p14 + 12, p14 + 13, p14 + 14, p14 + 15, p14 + 16, p14 + 17, p14 + 18, p14 + 19, p14 + 20, p14 + 21, p14 + 22, p14 + 23, p14 + 24, p14 + 25, p14 + 26, p14 + 27, p14 + 28, p14 + 29, p14 + 30, p14 + 31, p14 + 32, p14 + 33, p14 + 34, p14 + 35, p14 + 36, p14 + 37, p14 + 38, p14 + 39, 10};
Line(15) = {10, 8};
Curve Loop(1) = {-1, 4, 3, -2};
Plane Surface(1) = {1};
Curve Loop(2) = {-5, 1, 7, -6};
Plane Surface(2) = {2};
Curve Loop(3) = {-2, 7, 9, -8, -10};
Plane Surface(3) = {3};
Curve Loop(4) = {-11, 3, 8, -12};
Plane Surface(4) = {4};
Curve Loop(5) = {-4, 5, 13, -11, -14};
Plane Surface(5) = {5};
Curve Loop(6) = {-6, 13, 12, -9};
Plane Surface(6) = {6};
Curve Loop(7) = {-10, -15, 14, 15};
Surface(7) = {7};
Surface Loop(1) = {1, 2, 3, 4, 5, 6, 7};
Volume(1) = {1};
Physical Surface("INFLOW") = {1};
Physical Surface("OUTFLOW") = {6};
Physical Surface("OBSTACLE") = {7};
Physical Surface("WALL_Y") = {2, 4};
Physical Surface("WALL_Z") = {3, 5};
Physical Volume("FLUID") = {1};
