cl__1 = 0.635571;
cl__2 = 0.6595800000000001;
cl__3 = 3.907377;
cl__4 = 0.056701;
cl__5 = 0.086557;
Point(1) = {0.945322, -3.214055, 1, cl__1};
Point(2) = {0.945322, -3.214055, 0, cl__1};
Point(3) = {0.945322, 4.563361, 1, cl__2};
Point(4) = {0.945322, 4.563361, 0, cl__2};
Point(5) = {38.879779, -3.214055, 0, cl__3};
Point(6) = {38.879779, -3.214055, 1, cl__3};
Point(7) = {38.879779, 4.563361, 1, cl__3};
Point(8) = {7.381364, 0.4572379999999998, 1, cl__4};
Point(9) = {15.079663, 0.9265499999999998, 1, cl__5};
Point(10) = {38.879779, 4.563361, 0, cl__3};
Point(11) = {7.381364, 0.4572379999999998, 0, cl__4};
Point(12) = {15.079663, 0.9265499999999998, 0, cl__5};
Line(1) = {2, 1};
Line(2) = {1, 3};
Line(3) = {4, 3};
Line(4) = {2, 4};
Line(5) = {2, 5};
Line(6) = {5, 6};
Line(7) = {1, 6};
Line(8) = {3, 7};
Line(9) = {6, 7};
p10 = newp;
Point(p10 + 1) = {7.374383215247487, 0.5459372802846011, 1};
Point(p10 + 2) = {7.35361275107845, 0.6324524899125614, 1};
Point(p10 + 3) = {7.31956404525395, 0.7146533372953214, 1};
Point(p10 + 4) = {7.273075489912562, 0.790515764761346, 1};
Point(p10 + 5) = {7.21529178757346, 0.8581717875734596, 1};
Point(p10 + 6) = {7.147635764761346, 0.9159554899125615, 1};
Point(p10 + 7) = {7.071773337295322, 0.9624440452539496, 1};
Point(p10 + 8) = {6.989572489912562, 0.9964927510784498, 1};
Point(p10 + 9) = {6.903057280284601, 1.017263215247487, 1};
Point(p10 + 10) = {6.814358, 1.024244, 1};
Point(p10 + 11) = {6.725658719715399, 1.017263215247487, 1};
Point(p10 + 12) = {6.639143510087439, 0.9964927510784498, 1};
Point(p10 + 13) = {6.556942662704679, 0.9624440452539498, 1};
Point(p10 + 14) = {6.481080235238655, 0.9159554899125615, 1};
Point(p10 + 15) = {6.413424212426541, 0.8581717875734596, 1};
Point(p10 + 16) = {6.355640510087439, 0.7905157647613461, 1};
Point(p10 + 17) = {6.309151954746051, 0.7146533372953214, 1};
Point(p10 + 18) = {6.275103248921551, 0.6324524899125614, 1};
Point(p10 + 19) = {6.254332784752513, 0.5459372802846012, 1};
Point(p10 + 20) = {6.247352, 0.457238, 1};
Point(p10 + 21) = {6.254332784752513, 0.3685387197153989, 1};
Point(p10 + 22) = {6.275103248921551, 0.2820235100874384, 1};
Point(p10 + 23) = {6.30915195474605, 0.1998226627046788, 1};
Point(p10 + 24) = {6.355640510087439, 0.123960235238654, 1};
Point(p10 + 25) = {6.41342421242654, 0.05630421242654043, 1};
Point(p10 + 26) = {6.481080235238654, -0.001479489912561416, 1};
Point(p10 + 27) = {6.556942662704679, -0.04796804525394965, 1};
Point(p10 + 28) = {6.639143510087439, -0.0820167510784498, 1};
Point(p10 + 29) = {6.725658719715399, -0.1027872152474866, 1};
Point(p10 + 30) = {6.814358, -0.109768, 1};
Point(p10 + 31) = {6.903057280284601, -0.1027872152474867, 1};
Point(p10 + 32) = {6.989572489912562, -0.08201675107844991, 1};
Point(p10 + 33) = {7.071773337295322, -0.04796804525394976, 1};
Point(p10 + 34) = {7.147635764761346, -0.001479489912561527, 1};
Point(p10 + 35) = {7.215291787573459, 0.05630421242654032, 1};
Point(p10 + 36) = {7.273075489912562, 0.1239602352386538, 1};
Point(p10 + 37) = {7.31956404525395, 0.1998226627046784, 1};
Point(p10 + 38) = {7.35361275107845, 0.2820235100874384, 1};
Point(p10 + 39) = {7.374383215247487, 0.3685387197153987, 1};
Spline(10) = {8, p10 + 1, p10 + 2, p10 + 3, p10 + 4, p10 + 5, p10 + 6, p10 + 7, p10 + 8, p10 + 9, p10 + 10, p10 + 11, p10 + 12, p10 + 13, p10 + 14, p10 + 15, p10 + 16, p10 + 17, p10 + 18, p10 + 19, p10 + 20, p10 + 21, p10 + 22, p10 + 23, p10 + 24, p10 + 25, p10 + 26, p10 + 27, p10 + 28, p10 + 29, p10 + 30, p10 + 31, p10 + 32, p10 + 33, p10 + 34, p10 + 35, p10 + 36, p10 + 37, p10 + 38, p10 + 39, 8};
p11 = newp;
Point(p11 + 1) = {15.06900638465727, 1.061955136339338, 1};
Point(p11 + 2) = {15.03729893986611, 1.194026148838118, 1};
Point(p11 + 3) = {14.98532140814825, 1.319511010850059, 1};
Point(p11 + 4) = {14.91435364883812, 1.435319868612048, 1};
Point(p11 + 5) = {14.82614312369842, 1.538601123698421, 1};
Point(p11 + 6) = {14.72286186861205, 1.626811648838117, 1};
Point(p11 + 7) = {14.60705301085006, 1.69777940814825, 1};
Point(p11 + 8) = {14.48156814883812, 1.749756939866112, 1};
Point(p11 + 9) = {14.34949713633934, 1.781464384657274, 1};
Point(p11 + 10) = {14.214092, 1.792121, 1};
Point(p11 + 11) = {14.07868686366066, 1.781464384657274, 1};
Point(p11 + 12) = {13.94661585116188, 1.749756939866112, 1};
Point(p11 + 13) = {13.82113098914994, 1.69777940814825, 1};
Point(p11 + 14) = {13.70532213138795, 1.626811648838117, 1};
Point(p11 + 15) = {13.60204087630158, 1.538601123698421, 1};
Point(p11 + 16) = {13.51383035116188, 1.435319868612048, 1};
Point(p11 + 17) = {13.44286259185175, 1.319511010850059, 1};
Point(p11 + 18) = {13.39088506013389, 1.194026148838118, 1};
Point(p11 + 19) = {13.35917761534273, 1.061955136339338, 1};
Point(p11 + 20) = {13.348521, 0.9265500000000001, 1};
Point(p11 + 21) = {13.35917761534273, 0.7911448636606624, 1};
Point(p11 + 22) = {13.39088506013389, 0.6590738511618821, 1};
Point(p11 + 23) = {13.44286259185175, 0.5335889891499412, 1};
Point(p11 + 24) = {13.51383035116188, 0.4177801313879518, 1};
Point(p11 + 25) = {13.60204087630158, 0.3144988763015789, 1};
Point(p11 + 26) = {13.70532213138795, 0.2262883511618825, 1};
Point(p11 + 27) = {13.82113098914994, 0.1553205918517503, 1};
Point(p11 + 28) = {13.94661585116188, 0.1033430601338877, 1};
Point(p11 + 29) = {14.07868686366066, 0.07163561534272611, 1};
Point(p11 + 30) = {14.214092, 0.06097900000000001, 1};
Point(p11 + 31) = {14.34949713633934, 0.071635615342726, 1};
Point(p11 + 32) = {14.48156814883812, 0.1033430601338876, 1};
Point(p11 + 33) = {14.60705301085006, 0.1553205918517502, 1};
Point(p11 + 34) = {14.72286186861205, 0.2262883511618823, 1};
Point(p11 + 35) = {14.82614312369842, 0.3144988763015787, 1};
Point(p11 + 36) = {14.91435364883812, 0.4177801313879516, 1};
Point(p11 + 37) = {14.98532140814825, 0.5335889891499406, 1};
Point(p11 + 38) = {15.03729893986611, 0.6590738511618822, 1};
Point(p11 + 39) = {15.06900638465727, 0.7911448636606622, 1};
Spline(11) = {9, p11 + 1, p11 + 2, p11 + 3, p11 + 4, p11 + 5, p11 + 6, p11 + 7, p11 + 8, p11 + 9, p11 + 10, p11 + 11, p11 + 12, p11 + 13, p11 + 14, p11 + 15, p11 + 16, p11 + 17, p11 + 18, p11 + 19, p11 + 20, p11 + 21, p11 + 22, p11 + 23, p11 + 24, p11 + 25, p11 + 26, p11 + 27, p11 + 28, p11 + 29, p11 + 30, p11 + 31, p11 + 32, p11 + 33, p11 + 34, p11 + 35, p11 + 36, p11 + 37, p11 + 38, p11 + 39, 9};
Line(12) = {4, 10};
Line(13) = {10, 7};
Line(14) = {5, 10};
p15 = newp;
Point(p15 + 1) = {7.374383215247487, 0.5459372802846011, 0};
Point(p15 + 2) = {7.35361275107845, 0.6324524899125614, 0};
Point(p15 + 3) = {7.31956404525395, 0.7146533372953214, 0};
Point(p15 + 4) = {7.273075489912562, 0.790515764761346, 0};
Point(p15 + 5) = {7.21529178757346, 0.8581717875734596, 0};
Point(p15 + 6) = {7.147635764761346, 0.9159554899125615, 0};
Point(p15 + 7) = {7.071773337295322, 0.9624440452539496, 0};
Point(p15 + 8) = {6.989572489912562, 0.9964927510784498, 0};
Point(p15 + 9) = {6.903057280284601, 1.017263215247487, 0};
Point(p15 + 10) = {6.814358, 1.024244, 0};
Point(p15 + 11) = {6.725658719715399, 1.017263215247487, 0};
Point(p15 + 12) = {6.639143510087439, 0.9964927510784498, 0};
Point(p15 + 13) = {6.556942662704679, 0.9624440452539498, 0};
Point(p15 + 14) = {6.481080235238655, 0.9159554899125615, 0};
Point(p15 + 15) = {6.413424212426541, 0.8581717875734596, 0};
Point(p15 + 16) = {6.355640510087439, 0.7905157647613461, 0};
Point(p15 + 17) = {6.309151954746051, 0.7146533372953214, 0};
Point(p15 + 18) = {6.275103248921551, 0.6324524899125614, 0};
Point(p15 + 19) = {6.254332784752513, 0.5459372802846012, 0};
Point(p15 + 20) = {6.247352, 0.457238, 0};
Point(p15 + 21) = {6.254332784752513, 0.3685387197153989, 0};
Point(p15 + 22) = {6.275103248921551, 0.2820235100874384, 0};
Point(p15 + 23) = {6.30915195474605, 0.1998226627046788, 0};
Point(p15 + 24) = {6.355640510087439, 0.123960235238654, 0};
Point(p15 + 25) = {6.41342421242654, 0.05630421242654043, 0};
Point(p15 + 26) = {6.481080235238654, -0.001479489912561416, 0};
Point(p15 + 27) = {6.556942662704679, -0.04796804525394965, 0};
Point(p15 + 28) = {6.639143510087439, -0.0820167510784498, 0};
Point(p15 + 29) = {6.725658719715399, -0.1027872152474866, 0};
Point(p15 + 30) = {6.814358, -0.109768, 0};
Point(p15 + 31) = {6.903057280284601, -0.1027872152474867, 0};
Point(p15 + 32) = {6.989572489912562, -0.08201675107844991, 0};
Point(p15 + 33) = {7.071773337295322, -0.04796804525394976, 0};
Point(p15 + 34) = {7.147635764761346, -0.001479489912561527, 0};
Point(p15 + 35) = {7.215291787573459, 0.05630421242654032, 0};
Point(p15 + 36) = {7.273075489912562, 0.1239602352386538, 0};
Point(p15 + 37) = {7.31956404525395, 0.1998226627046784, 0};
Point(p15 + 38) = {7.35361275107845, 0.2820235100874384, 0};
Point(p15 + 39) = {7.374383215247487, 0.3685387197153987, 0};
Spline(15) = {11, p15 + 1, p15 + 2, p15 + 3, p15 + 4, p15 + 5, p15 + 6, p15 + 7, p15 + 8, p15 + 9, p15 + 10, p15 + 11, p15 + 12, p15 + 13, p15 + 14, p15 + 15, p15 + 16, p15 + 17, p15 + 18, p15 + 19, p15 + 20, p15 + 21, p15 + 22, p15 + 23, p15 + 24, p15 + 25, p15 + 26, p15 + 27, p15 + 28, p15 + 29, p15 + 30, p15 + 31, p15 + 32, p15 + 33, p15 + 34, p15 + 35, p15 + 36, p15 + 37, p15 + 38, p15 + 39, 11};
p16 = newp;
Point(p16 + 1) = {15.06900638465727, 1.061955136339338, 0};
Point(p16 + 2) = {15.03729893986611, 1.194026148838118, 0};
Point(p16 + 3) = {14.98532140814825, 1.319511010850059, 0};
Point(p16 + 4) = {14.91435364883812, 1.435319868612048, 0};
Point(p16 + 5) = {14.82614312369842, 1.538601123698421, 0};
Point(p16 + 6) = {14.72286186861205, 1.626811648838117, 0};
Point(p16 + 7) = {14.60705301085006, 1.69777940814825, 0};
Point(p16 + 8) = {14.48156814883812, 1.749756939866112, 0};
Point(p16 + 9) = {14.34949713633934, 1.781464384657274, 0};
Point(p16 + 10) = {14.214092, 1.792121, 0};
Point(p16 + 11) = {14.07868686366066, 1.781464384657274, 0};
Point(p16 + 12) = {13.94661585116188, 1.749756939866112, 0};
Point(p16 + 13) = {13.82113098914994, 1.69777940814825, 0};
Point(p16 + 14) = {13.70532213138795, 1.626811648838117, 0};
Point(p16 + 15) = {13.60204087630158, 1.538601123698421, 0};
Point(p16 + 16) = {13.51383035116188, 1.435319868612048, 0};
Point(p16 + 17) = {13.44286259185175, 1.319511010850059, 0};
Point(p16 + 18) = {13.39088506013389, 1.194026148838118, 0};
Point(p16 + 19) = {13.35917761534273, 1.061955136339338, 0};
Point(p16 + 20) = {13.348521, 0.9265500000000001, 0};
Point(p16 + 21) = {13.35917761534273, 0.7911448636606624, 0};
Point(p16 + 22) = {13.39088506013389, 0.6590738511618821, 0};
Point(p16 + 23) = {13.44286259185175, 0.5335889891499412, 0};
Point(p16 + 24) = {13.51383035116188, 0.4177801313879518, 0};
Point(p16 + 25) = {13.60204087630158, 0.3144988763015789, 0};
Point(p16 + 26) = {13.70532213138795, 0.2262883511618825, 0};
Point(p16 + 27) = {13.82113098914994, 0.1553205918517503, 0};
Point(p16 + 28) = {13.94661585116188, 0.1033430601338877, 0};
Point(p16 + 29) = {14.07868686366066, 0.07163561534272611, 0};
Point(p16 + 30) = {14.214092, 0.06097900000000001, 0};
Point(p16 + 31) = {14.34949713633934, 0.071635615342726, 0};
Point(p16 + 32) = {14.48156814883812, 0.1033430601338876, 0};
Point(p16 + 33) = {14.60705301085006, 0.1553205918517502, 0};
Point(p16 + 34) = {14.72286186861205, 0.2262883511618823, 0};
Point(p16 + 35) = {14.82614312369842, 0.3144988763015787, 0};
Point(p16 + 36) = {14.91435364883812, 0.4177801313879516, 0};
Point(p16 + 37) = {14.98532140814825, 0.5335889891499406, 0};
Point(p16 + 38) = {15.03729893986611, 0.6590738511618822, 0};
Point(p16 + 39) = {15.06900638465727, 0.7911448636606622, 0};
Spline(16) = {12, p16 + 1, p16 + 2, p16 + 3, p16 + 4, p16 + 5, p16 + 6, p16 + 7, p16 + 8, p16 + 9, p16 + 10, p16 + 11, p16 + 12, p16 + 13, p16 + 14, p16 + 15, p16 + 16, p16 + 17, p16 + 18, p16 + 19, p16 + 20, p16 + 21, p16 + 22, p16 + 23, p16 + 24, p16 + 25, p16 + 26, p16 + 27, p16 + 28, p16 + 29, p16 + 30, p16 + 31, p16 + 32, p16 + 33, p16 + 34, p16 + 35, p16 + 36, p16 + 37, p16 + 38, p16 + 39, 12};
Line(17) = {11, 8};
Line(18) = {12, 9};
Curve Loop(1) = {-1, 4, 3, -2};
Plane Surface(1) = {1};
Curve Loop(2) = {-5, 1, 7, -6};
Plane Surface(2) = {2};
Curve Loop(3) = {-2, 7, 9, -8, -10, -11};
Plane Surface(3) = {3};
Curve Loop(4) = {-12, 3, 8, -13};
Plane Surface(4) = {4};
Curve Loop(5) = {-4, 5, 14, -12, -15, -16};
Plane Surface(5) = {5};
Curve Loop(6) = {-6, 14, 13, -9};
Plane Surface(6) = {6};
Curve Loop(7) = {-10, -17, 15, 17};
Surface(7) = {7};
Curve Loop(8) = {-11, -18, 16, 18};
Surface(8) = {8};
Surface Loop(1) = {1, 2, 3, 4, 5, 6, 7, 8};
Volume(1) = {1};
Physical Surface("INFLOW") = {1};
Physical Surface("OUTFLOW") = {6};
Physical Surface("OBSTACLE") = {7, 8};
Physical Surface("WALL_Y") = {2, 4};
Physical Surface("WALL_Z") = {3, 5};
Physical Volume("FLUID") = {1};
