cl__1 = 3.652762;
cl__2 = 0.21873;
cl__3 = 0.08347400000000001;
cl__4 = 0.112019;
Point(1) = {0.2517, -4.245668, 1, cl__1};
Point(2) = {0.2517, -4.245668, 0, cl__1};
Point(3) = {0.2517, 4.738847999999999, 1, cl__2};
Point(4) = {0.2517, 4.738847999999999, 0, cl__2};
Point(5) = {36.250337, -4.245668, 0, cl__1};
Point(6) = {36.250337, -4.245668, 1, cl__1};
Point(7) = {36.250337, 4.738847999999999, 1, cl__2};
Point(8) = {29.982779, -1.531485, 1, cl__3};
Point(9) = {35.515362, -1.507447, 1, cl__4};
Point(10) = {36.250337, 4.738847999999999, 0, cl__2};
Point(11) = {29.982779, -1.531485, 0, cl__3};
Point(12) = {35.515362, -1.507447, 0, cl__4};
Line(1) = {2, 1};
Line(2) = {1, 3};
Line(3) = {4, 3};
Line(4) = {2, 4};
Line(5) = {2, 5};
Line(6) = {5, 6};
Line(7) = {1, 6};
Line(8) = {3, 7};
Line(9) = {6, 7};
p10 = newp;
Point(p10 + 1) = {29.97250201467502, -1.400903520390178, 1};
Point(p10 + 2) = {29.94192411218615, -1.273537390183434, 1};
Point(p10 + 3) = {29.8917982219749, -1.15252278620941, 1};
Point(p10 + 4) = {29.82335860981657, -1.04083948964239, 1};
Point(p10 + 5) = {29.73829048610054, -0.9412375138994661, 1};
Point(p10 + 6) = {29.63868851035761, -0.8561693901834339, 1};
Point(p10 + 7) = {29.52700521379059, -0.7877297780250986, 1};
Point(p10 + 8) = {29.40599060981657, -0.7376038878138487, 1};
Point(p10 + 9) = {29.27862447960982, -0.7070259853249771, 1};
Point(p10 + 10) = {29.148043, -0.696749, 1};
Point(p10 + 11) = {29.01746152039018, -0.7070259853249771, 1};
Point(p10 + 12) = {28.89009539018344, -0.7376038878138486, 1};
Point(p10 + 13) = {28.76908078620941, -0.7877297780250985, 1};
Point(p10 + 14) = {28.65739748964239, -0.8561693901834339, 1};
Point(p10 + 15) = {28.55779551389947, -0.941237513899466, 1};
Point(p10 + 16) = {28.47272739018344, -1.04083948964239, 1};
Point(p10 + 17) = {28.4042877780251, -1.15252278620941, 1};
Point(p10 + 18) = {28.35416188781385, -1.273537390183434, 1};
Point(p10 + 19) = {28.32358398532498, -1.400903520390178, 1};
Point(p10 + 20) = {28.313307, -1.531485, 1};
Point(p10 + 21) = {28.32358398532498, -1.662066479609822, 1};
Point(p10 + 22) = {28.35416188781385, -1.789432609816566, 1};
Point(p10 + 23) = {28.4042877780251, -1.91044721379059, 1};
Point(p10 + 24) = {28.47272739018344, -2.02213051035761, 1};
Point(p10 + 25) = {28.55779551389947, -2.121732486100534, 1};
Point(p10 + 26) = {28.65739748964239, -2.206800609816566, 1};
Point(p10 + 27) = {28.76908078620941, -2.275240221974901, 1};
Point(p10 + 28) = {28.89009539018344, -2.325366112186151, 1};
Point(p10 + 29) = {29.01746152039018, -2.355944014675023, 1};
Point(p10 + 30) = {29.148043, -2.366221, 1};
Point(p10 + 31) = {29.27862447960982, -2.355944014675023, 1};
Point(p10 + 32) = {29.40599060981657, -2.325366112186151, 1};
Point(p10 + 33) = {29.52700521379059, -2.275240221974902, 1};
Point(p10 + 34) = {29.63868851035761, -2.206800609816566, 1};
Point(p10 + 35) = {29.73829048610054, -2.121732486100534, 1};
Point(p10 + 36) = {29.82335860981657, -2.02213051035761, 1};
Point(p10 + 37) = {29.8917982219749, -1.910447213790591, 1};
Point(p10 + 38) = {29.94192411218615, -1.789432609816566, 1};
Point(p10 + 39) = {29.97250201467502, -1.662066479609822, 1};
Spline(10) = {8, p10 + 1, p10 + 2, p10 + 3, p10 + 4, p10 + 5, p10 + 6, p10 + 7, p10 + 8, p10 + 9, p10 + 10, p10 + 11, p10 + 12, p10 + 13, p10 + 14, p10 + 15, p10 + 16, p10 + 17, p10 + 18, p10 + 19, p10 + 20, p10 + 21, p10 + 22, p10 + 23, p10 + 24, p10 + 25, p10 + 26, p10 + 27, p10 + 28, p10 + 29, p10 + 30, p10 + 31, p10 + 32, p10 + 33, p10 + 34, p10 + 35, p10 + 36, p10 + 37, p10 + 38, p10 + 39, 8};
p11 = newp;
Point(p11 + 1) = {35.50157057762795, -1.332210363737654, 1};
Point(p11 + 2) = {35.4605359011017, -1.161288635037139, 1};
Point(p11 + 3) = {35.39326838034361, -0.9988904741157576, 1};
Point(p11 + 4) = {35.30142436496286, -0.8490146626639898, 1};
Point(p11 + 5) = {35.18726535943092, -0.715351640569079, 1};
Point(p11 + 6) = {35.05360233733601, -0.6011926350371388, 1};
Point(p11 + 7) = {34.90372652588425, -0.5093486196563838, 1};
Point(p11 + 8) = {34.74132836496286, -0.4420810988982993, 1};
Point(p11 + 9) = {34.57040663626235, -0.4010464223720513, 1};
Point(p11 + 10) = {34.39517, -0.3872549999999999, 1};
Point(p11 + 11) = {34.21993336373765, -0.4010464223720516, 1};
Point(p11 + 12) = {34.04901163503714, -0.4420810988982991, 1};
Point(p11 + 13) = {33.88661347411576, -0.5093486196563837, 1};
Point(p11 + 14) = {33.73673766266399, -0.6011926350371388, 1};
Point(p11 + 15) = {33.60307464056908, -0.7153516405690789, 1};
Point(p11 + 16) = {33.48891563503714, -0.8490146626639897, 1};
Point(p11 + 17) = {33.39707161965639, -0.9988904741157575, 1};
Point(p11 + 18) = {33.3298040988983, -1.161288635037139, 1};
Point(p11 + 19) = {33.28876942237205, -1.332210363737654, 1};
Point(p11 + 20) = {33.274978, -1.507447, 1};
Point(p11 + 21) = {33.28876942237205, -1.682683636262346, 1};
Point(p11 + 22) = {33.3298040988983, -1.853605364962861, 1};
Point(p11 + 23) = {33.39707161965639, -2.016003525884242, 1};
Point(p11 + 24) = {33.48891563503714, -2.16587933733601, 1};
Point(p11 + 25) = {33.60307464056908, -2.299542359430921, 1};
Point(p11 + 26) = {33.73673766266399, -2.413701364962861, 1};
Point(p11 + 27) = {33.88661347411576, -2.505545380343616, 1};
Point(p11 + 28) = {34.04901163503714, -2.572812901101701, 1};
Point(p11 + 29) = {34.21993336373765, -2.613847577627948, 1};
Point(p11 + 30) = {34.39517, -2.627639, 1};
Point(p11 + 31) = {34.57040663626235, -2.613847577627949, 1};
Point(p11 + 32) = {34.74132836496286, -2.572812901101701, 1};
Point(p11 + 33) = {34.90372652588425, -2.505545380343616, 1};
Point(p11 + 34) = {35.05360233733601, -2.413701364962861, 1};
Point(p11 + 35) = {35.18726535943092, -2.299542359430921, 1};
Point(p11 + 36) = {35.30142436496286, -2.16587933733601, 1};
Point(p11 + 37) = {35.39326838034361, -2.016003525884242, 1};
Point(p11 + 38) = {35.4605359011017, -1.853605364962861, 1};
Point(p11 + 39) = {35.50157057762795, -1.682683636262347, 1};
Spline(11) = {9, p11 + 1, p11 + 2, p11 + 3, p11 + 4, p11 + 5, p11 + 6, p11 + 7, p11 + 8, p11 + 9, p11 + 10, p11 + 11, p11 + 12, p11 + 13, p11 + 14, p11 + 15, p11 + 16, p11 + 17, p11 + 18, p11 + 19, p11 + 20, p11 + 21, p11 + 22, p11 + 23, p11 + 24, p11 + 25, p11 + 26, p11 + 27, p11 + 28, p11 + 29, p11 + 30, p11 + 31, p11 + 32, p11 + 33, p11 + 34, p11 + 35, p11 + 36, p11 + 37, p11 + 38, p11 + 39, 9};
Line(12) = {4, 10};
Line(13) = {10, 7};
Line(14) = {5, 10};
p15 = newp;
Point(p15 + 1) = {29.97250201467502, -1.400903520390178, 0};
Point(p15 + 2) = {29.94192411218615, -1.273537390183434, 0};
Point(p15 + 3) = {29.8917982219749, -1.15252278620941, 0};
Point(p15 + 4) = {29.82335860981657, -1.04083948964239, 0};
Point(p15 + 5) = {29.73829048610054, -0.9412375138994661, 0};
Point(p15 + 6) = {29.63868851035761, -0.8561693901834339, 0};
Point(p15 + 7) = {29.52700521379059, -0.7877297780250986, 0};
Point(p15 + 8) = {29.40599060981657, -0.7376038878138487, 0};
Point(p15 + 9) = {29.27862447960982, -0.7070259853249771, 0};
Point(p15 + 10) = {29.148043, -0.696749, 0};
Point(p15 + 11) = {29.01746152039018, -0.7070259853249771, 0};
Point(p15 + 12) = {28.89009539018344, -0.7376038878138486, 0};
Point(p15 + 13) = {28.76908078620941, -0.7877297780250985, 0};
Point(p15 + 14) = {28.65739748964239, -0.8561693901834339, 0};
Point(p15 + 15) = {28.55779551389947, -0.941237513899466, 0};
Point(p15 + 16) = {28.47272739018344, -1.04083948964239, 0};
Point(p15 + 17) = {28.4042877780251, -1.15252278620941, 0};
Point(p15 + 18) = {28.35416188781385, -1.273537390183434, 0};
Point(p15 + 19) = {28.32358398532498, -1.400903520390178, 0};
Point(p15 + 20) = {28.313307, -1.531485, 0};
Point(p15 + 21) = {28.32358398532498, -1.662066479609822, 0};
Point(p15 + 22) = {28.35416188781385, -1.789432609816566, 0};
Point(p15 + 23) = {28.4042877780251, -1.91044721379059, 0};
Point(p15 + 24) = {28.47272739018344, -2.02213051035761, 0};
Point(p15 + 25) = {28.55779551389947, -2.121732486100534, 0};
Point(p15 + 26) = {28.65739748964239, -2.206800609816566, 0};
Point(p15 + 27) = {28.76908078620941, -2.275240221974901, 0};
Point(p15 + 28) = {28.89009539018344, -2.325366112186151, 0};
Point(p15 + 29) = {29.01746152039018, -2.355944014675023, 0};
Point(p15 + 30) = {29.148043, -2.366221, 0};
Point(p15 + 31) = {29.27862447960982, -2.355944014675023, 0};
Point(p15 + 32) = {29.40599060981657, -2.325366112186151, 0};
Point(p15 + 33) = {29.52700521379059, -2.275240221974902, 0};
Point(p15 + 34) = {29.63868851035761, -2.206800609816566, 0};
Point(p15 + 35) = {29.73829048610054, -2.121732486100534, 0};
Point(p15 + 36) = {29.82335860981657, -2.02213051035761, 0};
Point(p15 + 37) = {29.8917982219749, -1.910447213790591, 0};
Point(p15 + 38) = {29.94192411218615, -1.789432609816566, 0};
Point(p15 + 39) = {29.97250201467502, -1.662066479609822, 0};
Spline(15) = {11, p15 + 1, p15 + 2, p15 + 3, p15 + 4, p15 + 5, p15 + 6, p15 + 7, p15 + 8, p15 + 9, p15 + 10, p15 + 11, p15 + 12, p15 + 13, p15 + 14, p15 + 15, p15 + 16, p15 + 17, p15 + 18, p15 + 19, p15 + 20, p15 + 21, p15 + 22, p15 + 23, p15 + 24, p15 + 25, p15 + 26, p15 + 27, p15 + 28, p15 + 29, p15 + 30, p15 + 31, p15 + 32, p15 + 33, p15 + 34, p15 + 35, p15 + 36, p15 + 37, p15 + 38, p15 + 39, 11};
p16 = newp;
Point(p16 + 1) = {35.50157057762795, -1.332210363737654, 0};
Point(p16 + 2) = {35.4605359011017, -1.161288635037139, 0};
Point(p16 + 3) = {35.39326838034361, -0.9988904741157576, 0};
Point(p16 + 4) = {35.30142436496286, -0.8490146626639898, 0};
Point(p16 + 5) = {35.18726535943092, -0.715351640569079, 0};
Point(p16 + 6) = {35.05360233733601, -0.6011926350371388, 0};
Point(p16 + 7) = {34.90372652588425, -0.5093486196563838, 0};
Point(p16 + 8) = {34.74132836496286, -0.4420810988982993, 0};
Point(p16 + 9) = {34.57040663626235, -0.4010464223720513, 0};
Point(p16 + 10) = {34.39517, -0.3872549999999999, 0};
Point(p16 + 11) = {34.21993336373765, -0.4010464223720516, 0};
Point(p16 + 12) = {34.04901163503714, -0.4420810988982991, 0};
Point(p16 + 13) = {33.88661347411576, -0.5093486196563837, 0};
Point(p16 + 14) = {33.73673766266399, -0.6011926350371388, 0};
Point(p16 + 15) = {33.60307464056908, -0.7153516405690789, 0};
Point(p16 + 16) = {33.48891563503714, -0.8490146626639897, 0};
Point(p16 + 17) = {33.39707161965639, -0.9988904741157575, 0};
Point(p16 + 18) = {33.3298040988983, -1.161288635037139, 0};
Point(p16 + 19) = {33.28876942237205, -1.332210363737654, 0};
Point(p16 + 20) = {33.274978, -1.507447, 0};
Point(p16 + 21) = {33.28876942237205, -1.682683636262346, 0};
Point(p16 + 22) = {33.3298040988983, -1.853605364962861, 0};
Point(p16 + 23) = {33.39707161965639, -2.016003525884242, 0};
Point(p16 + 24) = {33.48891563503714, -2.16587933733601, 0};
Point(p16 + 25) = {33.60307464056908, -2.299542359430921, 0};
Point(p16 + 26) = {33.73673766266399, -2.413701364962861, 0};
Point(p16 + 27) = {33.88661347411576, -2.505545380343616, 0};
Point(p16 + 28) = {34.04901163503714, -2.572812901101701, 0};
Point(p16 + 29) = {34.21993336373765, -2.613847577627948, 0};
Point(p16 + 30) = {34.39517, -2.627639, 0};
Point(p16 + 31) = {34.57040663626235, -2.613847577627949, 0};
Point(p16 + 32) = {34.74132836496286, -2.572812901101701, 0};
Point(p16 + 33) = {34.90372652588425, -2.505545380343616, 0};
Point(p16 + 34) = {35.05360233733601, -2.413701364962861, 0};
Point(p16 + 35) = {35.18726535943092, -2.299542359430921, 0};
Point(p16 + 36) = {35.30142436496286, -2.16587933733601, 0};
Point(p16 + 37) = {35.39326838034361, -2.016003525884242, 0};
Point(p16 + 38) = {35.4605359011017, -1.853605364962861, 0};
Point(p16 + 39) = {35.50157057762795, -1.682683636262347, 0};
Spline(16) = {12, p16 + 1, p16 + 2, p16 + 3, p16 + 4, p16 + 5, p16 + 6, p16 + 7, p16 + 8, p16 + 9, p16 + 10, p16 + 11, p16 + 12, p16 + 13, p16 + 14, p16 + 15, p16 + 16, p16 + 17, p16 + 18, p16 + 19, p16 + 20, p16 + 21, p16 + 22, p16 + 23, p16 + 24, p16 + 25, p16 + 26, p16 + 27, p16 + 28, p16 + 29, p16 + 30, p16 + 31, p16 + 32, p16 + 33, p16 + 34, p16 + 35, p16 + 36, p16 + 37, p16 + 38, p16 + 39, 12};
Line(17) = {11, 8};
Line(18) = {12, 9};
Curve Loop(1) = {-1, 4, 3, -2};
Plane Surface(1) = {1};
Curve Loop(2) = {-5, 1, 7, -6};
Plane Surface(2) = {2};
Curve Loop(3) = {-2, 7, 9, -8, -10, -11};
Plane Surface(3) = {3};
Curve Loop(4) = {-12, 3, 8, -13};
Plane Surface(4) = {4};
Curve Loop(5) = {-4, 5, 14, -12, -15, -16};
Plane Surface(5) = {5};
Curve Loop(6) = {-6, 14, 13, -9};
Plane Surface(6) = {6};
Curve Loop(7) = {-10, -17, 15, 17};
Surface(7) = {7};
Curve Loop(8) = {-11, -18, 16, 18};
Surface(8) = {8};
Surface Loop(1) = {1, 2, 3, 4, 5, 6, 7, 8};
Volume(1) = {1};
Physical Surface("INFLOW") = {1};
Physical Surface("OUTFLOW") = {6};
Physical Surface("OBSTACLE") = {7, 8};
Physical Surface("WALL_Y") = {2, 4};
Physical Surface("WALL_Z") = {3, 5};
Physical Volume("FLUID") = {1};
