cl__1 = 1.74176;
cl__2 = 3.97763;
cl__3 = 0.719359;
cl__4 = 0.139646;
cl__5 = 0.114779;
Point(1) = {0.400615, -3.231061, 1, cl__1};
Point(2) = {0.400615, -3.231061, 0, cl__1};
Point(3) = {0.400615, 4.495606, 1, cl__2};
Point(4) = {0.400615, 4.495606, 0, cl__2};
Point(5) = {39.588239, -3.231061, 0, cl__3};
Point(6) = {39.588239, -3.231061, 1, cl__3};
Point(7) = {39.588239, 4.495606, 1, cl__2};
Point(8) = {8.957940000000001, 1.513517, 1, cl__4};
Point(9) = {19.344106, 2.059219, 1, cl__5};
Point(10) = {39.588239, 4.495606, 0, cl__2};
Point(11) = {8.957940000000001, 1.513517, 0, cl__4};
Point(12) = {19.344106, 2.059219, 0, cl__5};
Line(1) = {2, 1};
Line(2) = {1, 3};
Line(3) = {4, 3};
Line(4) = {2, 4};
Line(5) = {2, 5};
Line(6) = {5, 6};
Line(7) = {1, 6};
Line(8) = {3, 7};
Line(9) = {6, 7};
p10 = newp;
Point(p10 + 1) = {8.940747247795827, 1.731971629484546, 1};
Point(p10 + 2) = {8.889592333802046, 1.945047180981833, 1};
Point(p10 + 3) = {8.805734861774614, 2.147497027256787, 1};
Point(p10 + 4) = {8.691239680981834, 2.334336181201599, 1};
Point(p10 + 5) = {8.548926042762547, 2.500964042762547, 1};
Point(p10 + 6) = {8.3822981812016, 2.643277680981833, 1};
Point(p10 + 7) = {8.195459027256788, 2.757772861774612, 1};
Point(p10 + 8) = {7.993009180981834, 2.841630333802046, 1};
Point(p10 + 9) = {7.779933629484546, 2.892785247795826, 1};
Point(p10 + 10) = {7.561479, 2.909978, 1};
Point(p10 + 11) = {7.343024370515455, 2.892785247795826, 1};
Point(p10 + 12) = {7.129948819018167, 2.841630333802047, 1};
Point(p10 + 13) = {6.927498972743213, 2.757772861774613, 1};
Point(p10 + 14) = {6.740659818798401, 2.643277680981833, 1};
Point(p10 + 15) = {6.574031957237453, 2.500964042762547, 1};
Point(p10 + 16) = {6.431718319018167, 2.334336181201599, 1};
Point(p10 + 17) = {6.317223138225388, 2.147497027256787, 1};
Point(p10 + 18) = {6.233365666197954, 1.945047180981833, 1};
Point(p10 + 19) = {6.182210752204174, 1.731971629484546, 1};
Point(p10 + 20) = {6.165018, 1.513517, 1};
Point(p10 + 21) = {6.182210752204174, 1.295062370515454, 1};
Point(p10 + 22) = {6.233365666197954, 1.081986819018166, 1};
Point(p10 + 23) = {6.317223138225388, 0.8795369727432135, 1};
Point(p10 + 24) = {6.431718319018167, 0.6926978187984009, 1};
Point(p10 + 25) = {6.574031957237453, 0.5260699572374528, 1};
Point(p10 + 26) = {6.740659818798401, 0.3837563190181668, 1};
Point(p10 + 27) = {6.927498972743213, 0.2692611382253878, 1};
Point(p10 + 28) = {7.129948819018167, 0.1854036661979537, 1};
Point(p10 + 29) = {7.343024370515455, 0.1342487522041735, 1};
Point(p10 + 30) = {7.561479, 0.117056, 1};
Point(p10 + 31) = {7.779933629484546, 0.1342487522041733, 1};
Point(p10 + 32) = {7.993009180981834, 0.1854036661979535, 1};
Point(p10 + 33) = {8.195459027256787, 0.2692611382253876, 1};
Point(p10 + 34) = {8.3822981812016, 0.3837563190181663, 1};
Point(p10 + 35) = {8.548926042762547, 0.5260699572374524, 1};
Point(p10 + 36) = {8.691239680981834, 0.6926978187984004, 1};
Point(p10 + 37) = {8.805734861774612, 0.8795369727432125, 1};
Point(p10 + 38) = {8.889592333802046, 1.081986819018166, 1};
Point(p10 + 39) = {8.940747247795827, 1.295062370515454, 1};
Spline(10) = {8, p10 + 1, p10 + 2, p10 + 3, p10 + 4, p10 + 5, p10 + 6, p10 + 7, p10 + 8, p10 + 9, p10 + 10, p10 + 11, p10 + 12, p10 + 13, p10 + 14, p10 + 15, p10 + 16, p10 + 17, p10 + 18, p10 + 19, p10 + 20, p10 + 21, p10 + 22, p10 + 23, p10 + 24, p10 + 25, p10 + 26, p10 + 27, p10 + 28, p10 + 29, p10 + 30, p10 + 31, p10 + 32, p10 + 33, p10 + 34, p10 + 35, p10 + 36, p10 + 37, p10 + 38, p10 + 39, 8};
p11 = newp;
Point(p11 + 1) = {19.32997476351672, 2.238773383931922, 1};
Point(p11 + 2) = {19.28792901200796, 2.413906543024604, 1};
Point(p11 + 3) = {19.21900405141774, 2.580306117667554, 1};
Point(p11 + 4) = {19.1248970430246, 2.733874798084535, 1};
Point(p11 + 5) = {19.00792521369845, 2.870831213698451, 1};
Point(p11 + 6) = {18.87096879808453, 2.987803043024604, 1};
Point(p11 + 7) = {18.71740011766756, 3.081910051417739, 1};
Point(p11 + 8) = {18.5510005430246, 3.150835012007963, 1};
Point(p11 + 9) = {18.37586738393192, 3.192880763516715, 1};
Point(p11 + 10) = {18.196313, 3.207012, 1};
Point(p11 + 11) = {18.01675861606808, 3.192880763516715, 1};
Point(p11 + 12) = {17.8416254569754, 3.150835012007963, 1};
Point(p11 + 13) = {17.67522588233245, 3.08191005141774, 1};
Point(p11 + 14) = {17.52165720191547, 2.987803043024604, 1};
Point(p11 + 15) = {17.38470078630155, 2.870831213698451, 1};
Point(p11 + 16) = {17.2677289569754, 2.733874798084535, 1};
Point(p11 + 17) = {17.17362194858226, 2.580306117667554, 1};
Point(p11 + 18) = {17.10469698799204, 2.413906543024604, 1};
Point(p11 + 19) = {17.06265123648328, 2.238773383931922, 1};
Point(p11 + 20) = {17.04852, 2.059219, 1};
Point(p11 + 21) = {17.06265123648328, 1.879664616068079, 1};
Point(p11 + 22) = {17.10469698799204, 1.704531456975396, 1};
Point(p11 + 23) = {17.17362194858226, 1.538131882332447, 1};
Point(p11 + 24) = {17.2677289569754, 1.384563201915466, 1};
Point(p11 + 25) = {17.38470078630155, 1.247606786301549, 1};
Point(p11 + 26) = {17.52165720191547, 1.130634956975396, 1};
Point(p11 + 27) = {17.67522588233244, 1.036527948582261, 1};
Point(p11 + 28) = {17.8416254569754, 0.9676029879920369, 1};
Point(p11 + 29) = {18.01675861606808, 0.9255572364832851, 1};
Point(p11 + 30) = {18.196313, 0.9114260000000001, 1};
Point(p11 + 31) = {18.37586738393192, 0.9255572364832851, 1};
Point(p11 + 32) = {18.5510005430246, 0.9676029879920367, 1};
Point(p11 + 33) = {18.71740011766755, 1.036527948582261, 1};
Point(p11 + 34) = {18.87096879808453, 1.130634956975396, 1};
Point(p11 + 35) = {19.00792521369845, 1.247606786301549, 1};
Point(p11 + 36) = {19.1248970430246, 1.384563201915465, 1};
Point(p11 + 37) = {19.21900405141774, 1.538131882332446, 1};
Point(p11 + 38) = {19.28792901200796, 1.704531456975396, 1};
Point(p11 + 39) = {19.32997476351672, 1.879664616068078, 1};
Spline(11) = {9, p11 + 1, p11 + 2, p11 + 3, p11 + 4, p11 + 5, p11 + 6, p11 + 7, p11 + 8, p11 + 9, p11 + 10, p11 + 11, p11 + 12, p11 + 13, p11 + 14, p11 + 15, p11 + 16, p11 + 17, p11 + 18, p11 + 19, p11 + 20, p11 + 21, p11 + 22, p11 + 23, p11 + 24, p11 + 25, p11 + 26, p11 + 27, p11 + 28, p11 + 29, p11 + 30, p11 + 31, p11 + 32, p11 + 33, p11 + 34, p11 + 35, p11 + 36, p11 + 37, p11 + 38, p11 + 39, 9};
Line(12) = {4, 10};
Line(13) = {10, 7};
Line(14) = {5, 10};
p15 = newp;
Point(p15 + 1) = {8.940747247795827, 1.731971629484546, 0};
Point(p15 + 2) = {8.889592333802046, 1.945047180981833, 0};
Point(p15 + 3) = {8.805734861774614, 2.147497027256787, 0};
Point(p15 + 4) = {8.691239680981834, 2.334336181201599, 0};
Point(p15 + 5) = {8.548926042762547, 2.500964042762547, 0};
Point(p15 + 6) = {8.3822981812016, 2.643277680981833, 0};
Point(p15 + 7) = {8.195459027256788, 2.757772861774612, 0};
Point(p15 + 8) = {7.993009180981834, 2.841630333802046, 0};
Point(p15 + 9) = {7.779933629484546, 2.892785247795826, 0};
Point(p15 + 10) = {7.561479, 2.909978, 0};
Point(p15 + 11) = {7.343024370515455, 2.892785247795826, 0};
Point(p15 + 12) = {7.129948819018167, 2.841630333802047, 0};
Point(p15 + 13) = {6.927498972743213, 2.757772861774613, 0};
Point(p15 + 14) = {6.740659818798401, 2.643277680981833, 0};
Point(p15 + 15) = {6.574031957237453, 2.500964042762547, 0};
Point(p15 + 16) = {6.431718319018167, 2.334336181201599, 0};
Point(p15 + 17) = {6.317223138225388, 2.147497027256787, 0};
Point(p15 + 18) = {6.233365666197954, 1.945047180981833, 0};
Point(p15 + 19) = {6.182210752204174, 1.731971629484546, 0};
Point(p15 + 20) = {6.165018, 1.513517, 0};
Point(p15 + 21) = {6.182210752204174, 1.295062370515454, 0};
Point(p15 + 22) = {6.233365666197954, 1.081986819018166, 0};
Point(p15 + 23) = {6.317223138225388, 0.8795369727432135, 0};
Point(p15 + 24) = {6.431718319018167, 0.6926978187984009, 0};
Point(p15 + 25) = {6.574031957237453, 0.5260699572374528, 0};
Point(p15 + 26) = {6.740659818798401, 0.3837563190181668, 0};
Point(p15 + 27) = {6.927498972743213, 0.2692611382253878, 0};
Point(p15 + 28) = {7.129948819018167, 0.1854036661979537, 0};
Point(p15 + 29) = {7.343024370515455, 0.1342487522041735, 0};
Point(p15 + 30) = {7.561479, 0.117056, 0};
Point(p15 + 31) = {7.779933629484546, 0.1342487522041733, 0};
Point(p15 + 32) = {7.993009180981834, 0.1854036661979535, 0};
Point(p15 + 33) = {8.195459027256787, 0.2692611382253876, 0};
Point(p15 + 34) = {8.3822981812016, 0.3837563190181663, 0};
Point(p15 + 35) = {8.548926042762547, 0.5260699572374524, 0};
Point(p15 + 36) = {8.691239680981834, 0.6926978187984004, 0};
Point(p15 + 37) = {8.805734861774612, 0.8795369727432125, 0};
Point(p15 + 38) = {8.889592333802046, 1.081986819018166, 0};
Point(p15 + 39) = {8.940747247795827, 1.295062370515454, 0};
Spline(15) = {11, p15 + 1, p15 + 2, p15 + 3, p15 + 4, p15 + 5, p15 + 6, p15 + 7, p15 + 8, p15 + 9, p15 + 10, p15 + 11, p15 + 12, p15 + 13, p15 + 14, p15 + 15, p15 + 16, p15 + 17, p15 + 18, p15 + 19, p15 + 20, p15 + 21, p15 + 22, p15 + 23, p15 + 24, p15 + 25, p15 + 26, p15 + 27, p15 + 28, p15 + 29, p15 + 30, p15 + 31, p15 + 32, p15 + 33, p15 + 34, p15 + 35, p15 + 36, p15 + 37, p15 + 38, p15 + 39, 11};
p16 = newp;
Point(p16 + 1) = {19.32997476351672, 2.238773383931922, 0};
Point(p16 + 2) = {19.28792901200796, 2.413906543024604, 0};
Point(p16 + 3) = {19.21900405141774, 2.580306117667554, 0};
Point(p16 + 4) = {19.1248970430246, 2.733874798084535, 0};
Point(p16 + 5) = {19.00792521369845, 2.870831213698451, 0};
Point(p16 + 6) = {18.87096879808453, 2.987803043024604, 0};
Point(p16 + 7) = {18.71740011766756, 3.081910051417739, 0};
Point(p16 + 8) = {18.5510005430246, 3.150835012007963, 0};
Point(p16 + 9) = {18.37586738393192, 3.192880763516715, 0};
Point(p16 + 10) = {18.196313, 3.207012, 0};
Point(p16 + 11) = {18.01675861606808, 3.192880763516715, 0};
Point(p16 + 12) = {17.8416254569754, 3.150835012007963, 0};
Point(p16 + 13) = {17.67522588233245, 3.08191005141774, 0};
Point(p16 + 14) = {17.52165720191547, 2.987803043024604, 0};
Point(p16 + 15) = {17.38470078630155, 2.870831213698451, 0};
Point(p16 + 16) = {17.2677289569754, 2.733874798084535, 0};
Point(p16 + 17) = {17.17362194858226, 2.580306117667554, 0};
Point(p16 + 18) = {17.10469698799204, 2.413906543024604, 0};
Point(p16 + 19) = {17.06265123648328, 2.238773383931922, 0};
Point(p16 + 20) = {17.04852, 2.059219, 0};
Point(p16 + 21) = {17.06265123648328, 1.879664616068079, 0};
Point(p16 + 22) = {17.10469698799204, 1.704531456975396, 0};
Point(p16 + 23) = {17.17362194858226, 1.538131882332447, 0};
Point(p16 + 24) = {17.2677289569754, 1.384563201915466, 0};
Point(p16 + 25) = {17.38470078630155, 1.247606786301549, 0};
Point(p16 + 26) = {17.52165720191547, 1.130634956975396, 0};
Point(p16 + 27) = {17.67522588233244, 1.036527948582261, 0};
Point(p16 + 28) = {17.8416254569754, 0.9676029879920369, 0};
Point(p16 + 29) = {18.01675861606808, 0.9255572364832851, 0};
Point(p16 + 30) = {18.196313, 0.9114260000000001, 0};
Point(p16 + 31) = {18.37586738393192, 0.9255572364832851, 0};
Point(p16 + 32) = {18.5510005430246, 0.9676029879920367, 0};
Point(p16 + 33) = {18.71740011766755, 1.036527948582261, 0};
Point(p16 + 34) = {18.87096879808453, 1.130634956975396, 0};
Point(p16 + 35) = {19.00792521369845, 1.247606786301549, 0};
Point(p16 + 36) = {19.1248970430246, 1.384563201915465, 0};
Point(p16 + 37) = {19.21900405141774, 1.538131882332446, 0};
Point(p16 + 38) = {19.28792901200796, 1.704531456975396, 0};
Point(p16 + 39) = {19.32997476351672, 1.879664616068078, 0};
Spline(16) = {12, p16 + 1, p16 + 2, p16 + 3, p16 + 4, p16 + 5, p16 + 6, p16 + 7, p16 + 8, p16 + 9, p16 + 10, p16 + 11, p16 + 12, p16 + 13, p16 + 14, p16 + 15, p16 + 16, p16 + 17, p16 + 18, p16 + 19, p16 + 20, p16 + 21, p16 + 22, p16 + 23, p16 + 24, p16 + 25, p16 + 26, p16 + 27, p16 + 28, p16 + 29, p16 + 30, p16 + 31, p16 + 32, p16 + 33, p16 + 34, p16 + 35, p16 + 36, p16 + 37, p16 + 38, p16 + 39, 12};
Line(17) = {11, 8};
Line(18) = {12, 9};
Curve Loop(1) = {-1, 4, 3, -2};
Plane Surface(1) = {1};
Curve Loop(2) = {-5, 1, 7, -6};
Plane Surface(2) = {2};
Curve Loop(3) = {-2, 7, 9, -8, -10, -11};
Plane Surface(3) = {3};
Curve Loop(4) = {-12, 3, 8, -13};
Plane Surface(4) = {4};
Curve Loop(5) = {-4, 5, 14, -12, -15, -16};
Plane Surface(5) = {5};
Curve Loop(6) = {-6, 14, 13, -9};
Plane Surface(6) = {6};
Curve Loop(7) = {-10, -17, 15, 17};
Surface(7) = {7};
Curve Loop(8) = {-11, -18, 16, 18};
Surface(8) = {8};
Surface Loop(1) = {1, 2, 3, 4, 5, 6, 7, 8};
Volume(1) = {1};
Physical Surface("INFLOW") = {1};
Physical Surface("OUTFLOW") = {6};
Physical Surface("OBSTACLE") = {7, 8};
Physical Surface("WALL_Y") = {2, 4};
Physical Surface("WALL_Z") = {3, 5};
Physical Volume("FLUID") = {1};
