cl__1 = 3.117216;
cl__2 = 0.337585;
cl__3 = 0.085142;
cl__4 = 0.109787;
Point(1) = {0.304613, -4.138003, 1, cl__1};
Point(2) = {0.304613, -4.138003, 0, cl__1};
Point(3) = {0.304613, 4.951493999999999, 1, cl__2};
Point(4) = {0.304613, 4.951493999999999, 0, cl__2};
Point(5) = {30.839084, -4.138003, 0, cl__1};
Point(6) = {30.839084, -4.138003, 1, cl__1};
Point(7) = {30.839084, 4.951493999999999, 1, cl__2};
Point(8) = {26.74045, -1.089344, 1, cl__3};
Point(9) = {29.886363, -0.1619180000000003, 1, cl__4};
Point(10) = {30.839084, 4.951493999999999, 0, cl__2};
Point(11) = {26.74045, -1.089344, 0, cl__3};
Point(12) = {29.886363, -0.1619180000000003, 0, cl__4};
Line(1) = {2, 1};
Line(2) = {1, 3};
Line(3) = {4, 3};
Line(4) = {2, 4};
Line(5) = {2, 5};
Line(6) = {5, 6};
Line(7) = {1, 6};
Line(8) = {3, 7};
Line(9) = {6, 7};
p10 = newp;
Point(p10 + 1) = {26.72996763157283, -0.9561528806443769, 1};
Point(p10 + 2) = {26.69877863699099, -0.8262413686832711, 1};
Point(p10 + 3) = {26.64765099281141, -0.7028083166927547, 1};
Point(p10 + 4) = {26.57784363131673, -0.5888930560636472, 1};
Point(p10 + 5) = {26.49107544142429, -0.4873005585757122, 1};
Point(p10 + 6) = {26.38948294393635, -0.400532368683271, 1};
Point(p10 + 7) = {26.27556768330724, -0.3307250071885883, 1};
Point(p10 + 8) = {26.15213463131673, -0.2795973630090131, 1};
Point(p10 + 9) = {26.02222311935562, -0.2484083684271691, 1};
Point(p10 + 10) = {25.889032, -0.2379260000000001, 1};
Point(p10 + 11) = {25.75584088064438, -0.2484083684271692, 1};
Point(p10 + 12) = {25.62592936868327, -0.2795973630090129, 1};
Point(p10 + 13) = {25.50249631669276, -0.3307250071885882, 1};
Point(p10 + 14) = {25.38858105606365, -0.400532368683271, 1};
Point(p10 + 15) = {25.28698855857571, -0.4873005585757121, 1};
Point(p10 + 16) = {25.20022036868327, -0.5888930560636471, 1};
Point(p10 + 17) = {25.13041300718859, -0.7028083166927546, 1};
Point(p10 + 18) = {25.07928536300901, -0.826241368683271, 1};
Point(p10 + 19) = {25.04809636842717, -0.9561528806443766, 1};
Point(p10 + 20) = {25.037614, -1.089344, 1};
Point(p10 + 21) = {25.04809636842717, -1.222535119355623, 1};
Point(p10 + 22) = {25.07928536300901, -1.352446631316729, 1};
Point(p10 + 23) = {25.13041300718859, -1.475879683307245, 1};
Point(p10 + 24) = {25.20022036868327, -1.589794943936353, 1};
Point(p10 + 25) = {25.28698855857571, -1.691387441424288, 1};
Point(p10 + 26) = {25.38858105606365, -1.778155631316729, 1};
Point(p10 + 27) = {25.50249631669276, -1.847962992811412, 1};
Point(p10 + 28) = {25.62592936868327, -1.899090636990987, 1};
Point(p10 + 29) = {25.75584088064438, -1.930279631572831, 1};
Point(p10 + 30) = {25.889032, -1.940762, 1};
Point(p10 + 31) = {26.02222311935562, -1.930279631572831, 1};
Point(p10 + 32) = {26.15213463131673, -1.899090636990987, 1};
Point(p10 + 33) = {26.27556768330724, -1.847962992811412, 1};
Point(p10 + 34) = {26.38948294393635, -1.778155631316729, 1};
Point(p10 + 35) = {26.49107544142429, -1.691387441424288, 1};
Point(p10 + 36) = {26.57784363131673, -1.589794943936353, 1};
Point(p10 + 37) = {26.64765099281141, -1.475879683307246, 1};
Point(p10 + 38) = {26.69877863699099, -1.352446631316729, 1};
Point(p10 + 39) = {26.72996763157283, -1.222535119355624, 1};
Spline(10) = {8, p10 + 1, p10 + 2, p10 + 3, p10 + 4, p10 + 5, p10 + 6, p10 + 7, p10 + 8, p10 + 9, p10 + 10, p10 + 11, p10 + 12, p10 + 13, p10 + 14, p10 + 15, p10 + 16, p10 + 17, p10 + 18, p10 + 19, p10 + 20, p10 + 21, p10 + 22, p10 + 23, p10 + 24, p10 + 25, p10 + 26, p10 + 27, p10 + 28, p10 + 29, p10 + 30, p10 + 31, p10 + 32, p10 + 33, p10 + 34, p10 + 35, p10 + 36, p10 + 37, p10 + 38, p10 + 39, 8};
p11 = newp;
Point(p11 + 1) = {29.8728464231125, 0.00982639326478818, 1};
Point(p11 + 2) = {29.83262951543193, 0.1773418695804347, 1};
Point(p11 + 3) = {29.76670255069764, 0.3365036419680567, 1};
Point(p11 + 4) = {29.67668886958043, 0.4833926193638329, 1};
Point(p11 + 5) = {29.56480490764771, 0.6143919076477126, 1};
Point(p11 + 6) = {29.43380561936383, 0.7262758695804349, 1};
Point(p11 + 7) = {29.28691664196806, 0.816289550697635, 1};
Point(p11 + 8) = {29.12775486958044, 0.8822165154319277, 1};
Point(p11 + 9) = {28.96023939326479, 0.9224334231125029, 1};
Point(p11 + 10) = {28.788495, 0.9359500000000001, 1};
Point(p11 + 11) = {28.61675060673521, 0.9224334231125026, 1};
Point(p11 + 12) = {28.44923513041957, 0.8822165154319277, 1};
Point(p11 + 13) = {28.29007335803194, 0.8162895506976351, 1};
Point(p11 + 14) = {28.14318438063617, 0.7262758695804349, 1};
Point(p11 + 15) = {28.01218509235229, 0.6143919076477127, 1};
Point(p11 + 16) = {27.90030113041957, 0.483392619363833, 1};
Point(p11 + 17) = {27.81028744930236, 0.3365036419680569, 1};
Point(p11 + 18) = {27.74436048456807, 0.1773418695804349, 1};
Point(p11 + 19) = {27.7041435768875, 0.009826393264788319, 1};
Point(p11 + 20) = {27.690627, -0.1619179999999999, 1};
Point(p11 + 21) = {27.7041435768875, -0.3336623932647881, 1};
Point(p11 + 22) = {27.74436048456807, -0.5011778695804352, 1};
Point(p11 + 23) = {27.81028744930236, -0.6603396419680563, 1};
Point(p11 + 24) = {27.90030113041957, -0.8072286193638328, 1};
Point(p11 + 25) = {28.01218509235229, -0.9382279076477126, 1};
Point(p11 + 26) = {28.14318438063617, -1.050111869580435, 1};
Point(p11 + 27) = {28.29007335803194, -1.140125550697635, 1};
Point(p11 + 28) = {28.44923513041957, -1.206052515431928, 1};
Point(p11 + 29) = {28.61675060673521, -1.246269423112503, 1};
Point(p11 + 30) = {28.788495, -1.259786, 1};
Point(p11 + 31) = {28.96023939326479, -1.246269423112503, 1};
Point(p11 + 32) = {29.12775486958044, -1.206052515431928, 1};
Point(p11 + 33) = {29.28691664196806, -1.140125550697635, 1};
Point(p11 + 34) = {29.43380561936383, -1.050111869580435, 1};
Point(p11 + 35) = {29.56480490764771, -0.9382279076477128, 1};
Point(p11 + 36) = {29.67668886958043, -0.8072286193638332, 1};
Point(p11 + 37) = {29.76670255069764, -0.6603396419680569, 1};
Point(p11 + 38) = {29.83262951543193, -0.501177869580435, 1};
Point(p11 + 39) = {29.8728464231125, -0.3336623932647884, 1};
Spline(11) = {9, p11 + 1, p11 + 2, p11 + 3, p11 + 4, p11 + 5, p11 + 6, p11 + 7, p11 + 8, p11 + 9, p11 + 10, p11 + 11, p11 + 12, p11 + 13, p11 + 14, p11 + 15, p11 + 16, p11 + 17, p11 + 18, p11 + 19, p11 + 20, p11 + 21, p11 + 22, p11 + 23, p11 + 24, p11 + 25, p11 + 26, p11 + 27, p11 + 28, p11 + 29, p11 + 30, p11 + 31, p11 + 32, p11 + 33, p11 + 34, p11 + 35, p11 + 36, p11 + 37, p11 + 38, p11 + 39, 9};
Line(12) = {4, 10};
Line(13) = {10, 7};
Line(14) = {5, 10};
p15 = newp;
Point(p15 + 1) = {26.72996763157283, -0.9561528806443769, 0};
Point(p15 + 2) = {26.69877863699099, -0.8262413686832711, 0};
Point(p15 + 3) = {26.64765099281141, -0.7028083166927547, 0};
Point(p15 + 4) = {26.57784363131673, -0.5888930560636472, 0};
Point(p15 + 5) = {26.49107544142429, -0.4873005585757122, 0};
Point(p15 + 6) = {26.38948294393635, -0.400532368683271, 0};
Point(p15 + 7) = {26.27556768330724, -0.3307250071885883, 0};
Point(p15 + 8) = {26.15213463131673, -0.2795973630090131, 0};
Point(p15 + 9) = {26.02222311935562, -0.2484083684271691, 0};
Point(p15 + 10) = {25.889032, -0.2379260000000001, 0};
Point(p15 + 11) = {25.75584088064438, -0.2484083684271692, 0};
Point(p15 + 12) = {25.62592936868327, -0.2795973630090129, 0};
Point(p15 + 13) = {25.50249631669276, -0.3307250071885882, 0};
Point(p15 + 14) = {25.38858105606365, -0.400532368683271, 0};
Point(p15 + 15) = {25.28698855857571, -0.4873005585757121, 0};
Point(p15 + 16) = {25.20022036868327, -0.5888930560636471, 0};
Point(p15 + 17) = {25.13041300718859, -0.7028083166927546, 0};
Point(p15 + 18) = {25.07928536300901, -0.826241368683271, 0};
Point(p15 + 19) = {25.04809636842717, -0.9561528806443766, 0};
Point(p15 + 20) = {25.037614, -1.089344, 0};
Point(p15 + 21) = {25.04809636842717, -1.222535119355623, 0};
Point(p15 + 22) = {25.07928536300901, -1.352446631316729, 0};
Point(p15 + 23) = {25.13041300718859, -1.475879683307245, 0};
Point(p15 + 24) = {25.20022036868327, -1.589794943936353, 0};
Point(p15 + 25) = {25.28698855857571, -1.691387441424288, 0};
Point(p15 + 26) = {25.38858105606365, -1.778155631316729, 0};
Point(p15 + 27) = {25.50249631669276, -1.847962992811412, 0};
Point(p15 + 28) = {25.62592936868327, -1.899090636990987, 0};
Point(p15 + 29) = {25.75584088064438, -1.930279631572831, 0};
Point(p15 + 30) = {25.889032, -1.940762, 0};
Point(p15 + 31) = {26.02222311935562, -1.930279631572831, 0};
Point(p15 + 32) = {26.15213463131673, -1.899090636990987, 0};
Point(p15 + 33) = {26.27556768330724, -1.847962992811412, 0};
Point(p15 + 34) = {26.38948294393635, -1.778155631316729, 0};
Point(p15 + 35) = {26.49107544142429, -1.691387441424288, 0};
Point(p15 + 36) = {26.57784363131673, -1.589794943936353, 0};
Point(p15 + 37) = {26.64765099281141, -1.475879683307246, 0};
Point(p15 + 38) = {26.69877863699099, -1.352446631316729, 0};
Point(p15 + 39) = {26.72996763157283, -1.222535119355624, 0};
Spline(15) = {11, p15 + 1, p15 + 2, p15 + 3, p15 + 4, p15 + 5, p15 + 6, p15 + 7, p15 + 8, p15 + 9, p15 + 10, p15 + 11, p15 + 12, p15 + 13, p15 + 14, p15 + 15, p15 + 16, p15 + 17, p15 + 18, p15 + 19, p15 + 20, p15 + 21, p15 + 22, p15 + 23, p15 + 24, p15 + 25, p15 + 26, p15 + 27, p15 + 28, p15 + 29, p15 + 30, p15 + 31, p15 + 32, p15 + 33, p15 + 34, p15 + 35, p15 + 36, p15 + 37, p15 + 38, p15 + 39, 11};
p16 = newp;
Point(p16 + 1) = {29.8728464231125, 0.00982639326478818, 0};
Point(p16 + 2) = {29.83262951543193, 0.1773418695804347, 0};
Point(p16 + 3) = {29.76670255069764, 0.3365036419680567, 0};
Point(p16 + 4) = {29.67668886958043, 0.4833926193638329, 0};
Point(p16 + 5) = {29.56480490764771, 0.6143919076477126, 0};
Point(p16 + 6) = {29.43380561936383, 0.7262758695804349, 0};
Point(p16 + 7) = {29.28691664196806, 0.816289550697635, 0};
Point(p16 + 8) = {29.12775486958044, 0.8822165154319277, 0};
Point(p16 + 9) = {28.96023939326479, 0.9224334231125029, 0};
Point(p16 + 10) = {28.788495, 0.9359500000000001, 0};
Point(p16 + 11) = {28.61675060673521, 0.9224334231125026, 0};
Point(p16 + 12) = {28.44923513041957, 0.8822165154319277, 0};
Point(p16 + 13) = {28.29007335803194, 0.8162895506976351, 0};
Point(p16 + 14) = {28.14318438063617, 0.7262758695804349, 0};
Point(p16 + 15) = {28.01218509235229, 0.6143919076477127, 0};
Point(p16 + 16) = {27.90030113041957, 0.483392619363833, 0};
Point(p16 + 17) = {27.81028744930236, 0.3365036419680569, 0};
Point(p16 + 18) = {27.74436048456807, 0.1773418695804349, 0};
Point(p16 + 19) = {27.7041435768875, 0.009826393264788319, 0};
Point(p16 + 20) = {27.690627, -0.1619179999999999, 0};
Point(p16 + 21) = {27.7041435768875, -0.3336623932647881, 0};
Point(p16 + 22) = {27.74436048456807, -0.5011778695804352, 0};
Point(p16 + 23) = {27.81028744930236, -0.6603396419680563, 0};
Point(p16 + 24) = {27.90030113041957, -0.8072286193638328, 0};
Point(p16 + 25) = {28.01218509235229, -0.9382279076477126, 0};
Point(p16 + 26) = {28.14318438063617, -1.050111869580435, 0};
Point(p16 + 27) = {28.29007335803194, -1.140125550697635, 0};
Point(p16 + 28) = {28.44923513041957, -1.206052515431928, 0};
Point(p16 + 29) = {28.61675060673521, -1.246269423112503, 0};
Point(p16 + 30) = {28.788495, -1.259786, 0};
Point(p16 + 31) = {28.96023939326479, -1.246269423112503, 0};
Point(p16 + 32) = {29.12775486958044, -1.206052515431928, 0};
Point(p16 + 33) = {29.28691664196806, -1.140125550697635, 0};
Point(p16 + 34) = {29.43380561936383, -1.050111869580435, 0};
Point(p16 + 35) = {29.56480490764771, -0.9382279076477128, 0};
Point(p16 + 36) = {29.67668886958043, -0.8072286193638332, 0};
Point(p16 + 37) = {29.76670255069764, -0.6603396419680569, 0};
Point(p16 + 38) = {29.83262951543193, -0.501177869580435, 0};
Point(p16 + 39) = {29.8728464231125, -0.3336623932647884, 0};
Spline(16) = {12, p16 + 1, p16 + 2, p16 + 3, p16 + 4, p16 + 5, p16 + 6, p16 + 7, p16 + 8, p16 + 9, p16 + 10, p16 + 11, p16 + 12, p16 + 13, p16 + 14, p16 + 15, p16 + 16, p16 + 17, p16 + 18, p16 + 19, p16 + 20, p16 + 21, p16 + 22, p16 + 23, p16 + 24, p16 + 25, p16 + 26, p16 + 27, p16 + 28, p16 + 29, p16 + 30, p16 + 31, p16 + 32, p16 + 33, p16 + 34, p16 + 35, p16 + 36, p16 + 37, p16 + 38, p16 + 39, 12};
Line(17) = {11, 8};
Line(18) = {12, 9};
Curve Loop(1) = {-1, 4, 3, -2};
Plane Surface(1) = {1};
Curve Loop(2) = {-5, 1, 7, -6};
Plane Surface(2) = {2};
Curve Loop(3) = {-2, 7, 9, -8, -10, -11};
Plane Surface(3) = {3};
Curve Loop(4) = {-12, 3, 8, -13};
Plane Surface(4) = {4};
Curve Loop(5) = {-4, 5, 14, -12, -15, -16};
Plane Surface(5) = {5};
Curve Loop(6) = {-6, 14, 13, -9};
Plane Surface(6) = {6};
Curve Loop(7) = {-10, -17, 15, 17};
Surface(7) = {7};
Curve Loop(8) = {-11, -18, 16, 18};
Surface(8) = {8};
Surface Loop(1) = {1, 2, 3, 4, 5, 6, 7, 8};
Volume(1) = {1};
Physical Surface("INFLOW") = {1};
Physical Surface("OUTFLOW") = {6};
Physical Surface("OBSTACLE") = {7, 8};
Physical Surface("WALL_Y") = {2, 4};
Physical Surface("WALL_Z") = {3, 5};
Physical Volume("FLUID") = {1};
