cl__1 = 0.554333;
cl__2 = 1.200716;
cl__3 = 3.722648;
cl__4 = 0.050847;
cl__5 = 0.122243;
Point(1) = {0.234144, -3.095873, 1, cl__1};
Point(2) = {0.234144, -3.095873, 0, cl__1};
Point(3) = {0.234144, 4.406843, 1, cl__2};
Point(4) = {0.234144, 4.406843, 0, cl__2};
Point(5) = {37.036981, -3.095873, 0, cl__1};
Point(6) = {37.036981, -3.095873, 1, cl__1};
Point(7) = {37.036981, 4.406843, 1, cl__3};
Point(8) = {5.799321, 0.2288949999999999, 1, cl__4};
Point(9) = {25.297218, -0.4494170000000003, 1, cl__5};
Point(10) = {37.036981, 4.406843, 0, cl__3};
Point(11) = {5.799321, 0.2288949999999999, 0, cl__4};
Point(12) = {25.297218, -0.4494170000000003, 0, cl__5};
Line(1) = {2, 1};
Line(2) = {1, 3};
Line(3) = {4, 3};
Line(4) = {2, 4};
Line(5) = {2, 5};
Line(6) = {5, 6};
Line(7) = {1, 6};
Line(8) = {3, 7};
Line(9) = {6, 7};
p10 = newp;
Point(p10 + 1) = {5.793060828984113, 0.3084380146113314, 1};
Point(p10 + 2) = {5.774434462123178, 0.3860224162148014, 1};
Point(p10 + 3) = {5.74390054238668, 0.459737819355066, 1};
Point(p10 + 4) = {5.702210916214802, 0.5277691061594153, 1};
Point(p10 + 5) = {5.65039212056383, 0.5884411205638297, 1};
Point(p10 + 6) = {5.589720106159415, 0.6402599162148014, 1};
Point(p10 + 7) = {5.521688819355067, 0.6819495423866803, 1};
Point(p10 + 8) = {5.447973416214801, 0.7124834621231781, 1};
Point(p10 + 9) = {5.370389014611332, 0.7311098289841127, 1};
Point(p10 + 10) = {5.290846, 0.73737, 1};
Point(p10 + 11) = {5.211302985388668, 0.7311098289841126, 1};
Point(p10 + 12) = {5.133718583785199, 0.7124834621231783, 1};
Point(p10 + 13) = {5.060003180644934, 0.6819495423866804, 1};
Point(p10 + 14) = {4.991971893840585, 0.6402599162148014, 1};
Point(p10 + 15) = {4.93129987943617, 0.5884411205638298, 1};
Point(p10 + 16) = {4.879481083785199, 0.5277691061594153, 1};
Point(p10 + 17) = {4.83779145761332, 0.4597378193550661, 1};
Point(p10 + 18) = {4.807257537876822, 0.3860224162148014, 1};
Point(p10 + 19) = {4.788631171015887, 0.3084380146113315, 1};
Point(p10 + 20) = {4.782371, 0.228895, 1};
Point(p10 + 21) = {4.788631171015887, 0.1493519853886687, 1};
Point(p10 + 22) = {4.807257537876822, 0.07176758378519843, 1};
Point(p10 + 23) = {4.83779145761332, -0.0019478193550658, 1};
Point(p10 + 24) = {4.879481083785199, -0.06997910615941524, 1};
Point(p10 + 25) = {4.93129987943617, -0.1306511205638297, 1};
Point(p10 + 26) = {4.991971893840585, -0.1824699162148014, 1};
Point(p10 + 27) = {5.060003180644934, -0.2241595423866803, 1};
Point(p10 + 28) = {5.133718583785199, -0.2546934621231782, 1};
Point(p10 + 29) = {5.211302985388668, -0.2733198289841127, 1};
Point(p10 + 30) = {5.290846, -0.2795800000000001, 1};
Point(p10 + 31) = {5.370389014611331, -0.2733198289841128, 1};
Point(p10 + 32) = {5.447973416214801, -0.2546934621231782, 1};
Point(p10 + 33) = {5.521688819355066, -0.2241595423866804, 1};
Point(p10 + 34) = {5.589720106159415, -0.1824699162148015, 1};
Point(p10 + 35) = {5.65039212056383, -0.1306511205638299, 1};
Point(p10 + 36) = {5.702210916214802, -0.06997910615941541, 1};
Point(p10 + 37) = {5.74390054238668, -0.00194781935506616, 1};
Point(p10 + 38) = {5.774434462123178, 0.07176758378519849, 1};
Point(p10 + 39) = {5.793060828984113, 0.1493519853886685, 1};
Spline(10) = {8, p10 + 1, p10 + 2, p10 + 3, p10 + 4, p10 + 5, p10 + 6, p10 + 7, p10 + 8, p10 + 9, p10 + 10, p10 + 11, p10 + 12, p10 + 13, p10 + 14, p10 + 15, p10 + 16, p10 + 17, p10 + 18, p10 + 19, p10 + 20, p10 + 21, p10 + 22, p10 + 23, p10 + 24, p10 + 25, p10 + 26, p10 + 27, p10 + 28, p10 + 29, p10 + 30, p10 + 31, p10 + 32, p10 + 33, p10 + 34, p10 + 35, p10 + 36, p10 + 37, p10 + 38, p10 + 39, 8};
p11 = newp;
Point(p11 + 1) = {25.28216783357039, -0.2581865040319405, 1};
Point(p11 + 2) = {25.23738791932772, -0.07166473753224434, 1};
Point(p11 + 3) = {25.16398088737663, 0.1055555145776135, 1};
Point(p11 + 4) = {25.06375426246775, 0.2691105015303925, 1};
Point(p11 + 5) = {24.93917595673943, 0.4149729567394335, 1};
Point(p11 + 6) = {24.79331350153039, 0.5395512624677556, 1};
Point(p11 + 7) = {24.62975851457761, 0.6397778873766349, 1};
Point(p11 + 8) = {24.45253826246775, 0.7131849193277171, 1};
Point(p11 + 9) = {24.26601649596806, 0.7579648335703955, 1};
Point(p11 + 10) = {24.074786, 0.773015, 1};
Point(p11 + 11) = {23.88355550403194, 0.7579648335703952, 1};
Point(p11 + 12) = {23.69703373753224, 0.7131849193277173, 1};
Point(p11 + 13) = {23.51981348542239, 0.6397778873766349, 1};
Point(p11 + 14) = {23.35625849846961, 0.5395512624677556, 1};
Point(p11 + 15) = {23.21039604326057, 0.4149729567394337, 1};
Point(p11 + 16) = {23.08581773753225, 0.2691105015303927, 1};
Point(p11 + 17) = {22.98559111262336, 0.1055555145776138, 1};
Point(p11 + 18) = {22.91218408067228, -0.07166473753224417, 1};
Point(p11 + 19) = {22.8674041664296, -0.2581865040319404, 1};
Point(p11 + 20) = {22.852354, -0.4494169999999998, 1};
Point(p11 + 21) = {22.8674041664296, -0.6406474959680594, 1};
Point(p11 + 22) = {22.91218408067228, -0.8271692624677561, 1};
Point(p11 + 23) = {22.98559111262336, -1.004389514577613, 1};
Point(p11 + 24) = {23.08581773753225, -1.167944501530392, 1};
Point(p11 + 25) = {23.21039604326057, -1.313806956739433, 1};
Point(p11 + 26) = {23.35625849846961, -1.438385262467756, 1};
Point(p11 + 27) = {23.51981348542239, -1.538611887376635, 1};
Point(p11 + 28) = {23.69703373753224, -1.612018919327717, 1};
Point(p11 + 29) = {23.88355550403194, -1.656798833570395, 1};
Point(p11 + 30) = {24.074786, -1.671849, 1};
Point(p11 + 31) = {24.26601649596806, -1.656798833570395, 1};
Point(p11 + 32) = {24.45253826246775, -1.612018919327717, 1};
Point(p11 + 33) = {24.62975851457761, -1.538611887376635, 1};
Point(p11 + 34) = {24.79331350153039, -1.438385262467756, 1};
Point(p11 + 35) = {24.93917595673943, -1.313806956739434, 1};
Point(p11 + 36) = {25.06375426246775, -1.167944501530393, 1};
Point(p11 + 37) = {25.16398088737663, -1.004389514577614, 1};
Point(p11 + 38) = {25.23738791932772, -0.827169262467756, 1};
Point(p11 + 39) = {25.28216783357039, -0.6406474959680598, 1};
Spline(11) = {9, p11 + 1, p11 + 2, p11 + 3, p11 + 4, p11 + 5, p11 + 6, p11 + 7, p11 + 8, p11 + 9, p11 + 10, p11 + 11, p11 + 12, p11 + 13, p11 + 14, p11 + 15, p11 + 16, p11 + 17, p11 + 18, p11 + 19, p11 + 20, p11 + 21, p11 + 22, p11 + 23, p11 + 24, p11 + 25, p11 + 26, p11 + 27, p11 + 28, p11 + 29, p11 + 30, p11 + 31, p11 + 32, p11 + 33, p11 + 34, p11 + 35, p11 + 36, p11 + 37, p11 + 38, p11 + 39, 9};
Line(12) = {4, 10};
Line(13) = {10, 7};
Line(14) = {5, 10};
p15 = newp;
Point(p15 + 1) = {5.793060828984113, 0.3084380146113314, 0};
Point(p15 + 2) = {5.774434462123178, 0.3860224162148014, 0};
Point(p15 + 3) = {5.74390054238668, 0.459737819355066, 0};
Point(p15 + 4) = {5.702210916214802, 0.5277691061594153, 0};
Point(p15 + 5) = {5.65039212056383, 0.5884411205638297, 0};
Point(p15 + 6) = {5.589720106159415, 0.6402599162148014, 0};
Point(p15 + 7) = {5.521688819355067, 0.6819495423866803, 0};
Point(p15 + 8) = {5.447973416214801, 0.7124834621231781, 0};
Point(p15 + 9) = {5.370389014611332, 0.7311098289841127, 0};
Point(p15 + 10) = {5.290846, 0.73737, 0};
Point(p15 + 11) = {5.211302985388668, 0.7311098289841126, 0};
Point(p15 + 12) = {5.133718583785199, 0.7124834621231783, 0};
Point(p15 + 13) = {5.060003180644934, 0.6819495423866804, 0};
Point(p15 + 14) = {4.991971893840585, 0.6402599162148014, 0};
Point(p15 + 15) = {4.93129987943617, 0.5884411205638298, 0};
Point(p15 + 16) = {4.879481083785199, 0.5277691061594153, 0};
Point(p15 + 17) = {4.83779145761332, 0.4597378193550661, 0};
Point(p15 + 18) = {4.807257537876822, 0.3860224162148014, 0};
Point(p15 + 19) = {4.788631171015887, 0.3084380146113315, 0};
Point(p15 + 20) = {4.782371, 0.228895, 0};
Point(p15 + 21) = {4.788631171015887, 0.1493519853886687, 0};
Point(p15 + 22) = {4.807257537876822, 0.07176758378519843, 0};
Point(p15 + 23) = {4.83779145761332, -0.0019478193550658, 0};
Point(p15 + 24) = {4.879481083785199, -0.06997910615941524, 0};
Point(p15 + 25) = {4.93129987943617, -0.1306511205638297, 0};
Point(p15 + 26) = {4.991971893840585, -0.1824699162148014, 0};
Point(p15 + 27) = {5.060003180644934, -0.2241595423866803, 0};
Point(p15 + 28) = {5.133718583785199, -0.2546934621231782, 0};
Point(p15 + 29) = {5.211302985388668, -0.2733198289841127, 0};
Point(p15 + 30) = {5.290846, -0.2795800000000001, 0};
Point(p15 + 31) = {5.370389014611331, -0.2733198289841128, 0};
Point(p15 + 32) = {5.447973416214801, -0.2546934621231782, 0};
Point(p15 + 33) = {5.521688819355066, -0.2241595423866804, 0};
Point(p15 + 34) = {5.589720106159415, -0.1824699162148015, 0};
Point(p15 + 35) = {5.65039212056383, -0.1306511205638299, 0};
Point(p15 + 36) = {5.702210916214802, -0.06997910615941541, 0};
Point(p15 + 37) = {5.74390054238668, -0.00194781935506616, 0};
Point(p15 + 38) = {5.774434462123178, 0.07176758378519849, 0};
Point(p15 + 39) = {5.793060828984113, 0.1493519853886685, 0};
Spline(15) = {11, p15 + 1, p15 + 2, p15 + 3, p15 + 4, p15 + 5, p15 + 6, p15 + 7, p15 + 8, p15 + 9, p15 + 10, p15 + 11, p15 + 12, p15 + 13, p15 + 14, p15 + 15, p15 + 16, p15 + 17, p15 + 18, p15 + 19, p15 + 20, p15 + 21, p15 + 22, p15 + 23, p15 + 24, p15 + 25, p15 + 26, p15 + 27, p15 + 28, p15 + 29, p15 + 30, p15 + 31, p15 + 32, p15 + 33, p15 + 34, p15 + 35, p15 + 36, p15 + 37, p15 + 38, p15 + 39, 11};
p16 = newp;
Point(p16 + 1) = {25.28216783357039, -0.2581865040319405, 0};
Point(p16 + 2) = {25.23738791932772, -0.07166473753224434, 0};
Point(p16 + 3) = {25.16398088737663, 0.1055555145776135, 0};
Point(p16 + 4) = {25.06375426246775, 0.2691105015303925, 0};
Point(p16 + 5) = {24.93917595673943, 0.4149729567394335, 0};
Point(p16 + 6) = {24.79331350153039, 0.5395512624677556, 0};
Point(p16 + 7) = {24.62975851457761, 0.6397778873766349, 0};
Point(p16 + 8) = {24.45253826246775, 0.7131849193277171, 0};
Point(p16 + 9) = {24.26601649596806, 0.7579648335703955, 0};
Point(p16 + 10) = {24.074786, 0.773015, 0};
Point(p16 + 11) = {23.88355550403194, 0.7579648335703952, 0};
Point(p16 + 12) = {23.69703373753224, 0.7131849193277173, 0};
Point(p16 + 13) = {23.51981348542239, 0.6397778873766349, 0};
Point(p16 + 14) = {23.35625849846961, 0.5395512624677556, 0};
Point(p16 + 15) = {23.21039604326057, 0.4149729567394337, 0};
Point(p16 + 16) = {23.08581773753225, 0.2691105015303927, 0};
Point(p16 + 17) = {22.98559111262336, 0.1055555145776138, 0};
Point(p16 + 18) = {22.91218408067228, -0.07166473753224417, 0};
Point(p16 + 19) = {22.8674041664296, -0.2581865040319404, 0};
Point(p16 + 20) = {22.852354, -0.4494169999999998, 0};
Point(p16 + 21) = {22.8674041664296, -0.6406474959680594, 0};
Point(p16 + 22) = {22.91218408067228, -0.8271692624677561, 0};
Point(p16 + 23) = {22.98559111262336, -1.004389514577613, 0};
Point(p16 + 24) = {23.08581773753225, -1.167944501530392, 0};
Point(p16 + 25) = {23.21039604326057, -1.313806956739433, 0};
Point(p16 + 26) = {23.35625849846961, -1.438385262467756, 0};
Point(p16 + 27) = {23.51981348542239, -1.538611887376635, 0};
Point(p16 + 28) = {23.69703373753224, -1.612018919327717, 0};
Point(p16 + 29) = {23.88355550403194, -1.656798833570395, 0};
Point(p16 + 30) = {24.074786, -1.671849, 0};
Point(p16 + 31) = {24.26601649596806, -1.656798833570395, 0};
Point(p16 + 32) = {24.45253826246775, -1.612018919327717, 0};
Point(p16 + 33) = {24.62975851457761, -1.538611887376635, 0};
Point(p16 + 34) = {24.79331350153039, -1.438385262467756, 0};
Point(p16 + 35) = {24.93917595673943, -1.313806956739434, 0};
Point(p16 + 36) = {25.06375426246775, -1.167944501530393, 0};
Point(p16 + 37) = {25.16398088737663, -1.004389514577614, 0};
Point(p16 + 38) = {25.23738791932772, -0.827169262467756, 0};
Point(p16 + 39) = {25.28216783357039, -0.6406474959680598, 0};
Spline(16) = {12, p16 + 1, p16 + 2, p16 + 3, p16 + 4, p16 + 5, p16 + 6, p16 + 7, p16 + 8, p16 + 9, p16 + 10, p16 + 11, p16 + 12, p16 + 13, p16 + 14, p16 + 15, p16 + 16, p16 + 17, p16 + 18, p16 + 19, p16 + 20, p16 + 21, p16 + 22, p16 + 23, p16 + 24, p16 + 25, p16 + 26, p16 + 27, p16 + 28, p16 + 29, p16 + 30, p16 + 31, p16 + 32, p16 + 33, p16 + 34, p16 + 35, p16 + 36, p16 + 37, p16 + 38, p16 + 39, 12};
Line(17) = {11, 8};
Line(18) = {12, 9};
Curve Loop(1) = {-1, 4, 3, -2};
Plane Surface(1) = {1};
Curve Loop(2) = {-5, 1, 7, -6};
Plane Surface(2) = {2};
Curve Loop(3) = {-2, 7, 9, -8, -10, -11};
Plane Surface(3) = {3};
Curve Loop(4) = {-12, 3, 8, -13};
Plane Surface(4) = {4};
Curve Loop(5) = {-4, 5, 14, -12, -15, -16};
Plane Surface(5) = {5};
Curve Loop(6) = {-6, 14, 13, -9};
Plane Surface(6) = {6};
Curve Loop(7) = {-10, -17, 15, 17};
Surface(7) = {7};
Curve Loop(8) = {-11, -18, 16, 18};
Surface(8) = {8};
Surface Loop(1) = {1, 2, 3, 4, 5, 6, 7, 8};
Volume(1) = {1};
Physical Surface("INFLOW") = {1};
Physical Surface("OUTFLOW") = {6};
Physical Surface("OBSTACLE") = {7, 8};
Physical Surface("WALL_Y") = {2, 4};
Physical Surface("WALL_Z") = {3, 5};
Physical Volume("FLUID") = {1};
