cl__1 = 0.730119;
cl__2 = 0.92374;
cl__3 = 1.400925;
cl__4 = 1.354163;
cl__5 = 0.06930799999999999;
cl__6 = 0.061998;
Point(1) = {0.547613, -3.09215, 1, cl__1};
Point(2) = {0.547613, -3.09215, 0, cl__1};
Point(3) = {0.547613, 4.437754, 1, cl__2};
Point(4) = {0.547613, 4.437754, 0, cl__2};
Point(5) = {38.316895, -3.09215, 0, cl__3};
Point(6) = {38.316895, -3.09215, 1, cl__3};
Point(7) = {38.316895, 4.437754, 1, cl__4};
Point(8) = {9.100432, -1.631753, 1, cl__5};
Point(9) = {25.069332, 1.566785, 1, cl__6};
Point(10) = {38.316895, 4.437754, 0, cl__4};
Point(11) = {9.100432, -1.631753, 0, cl__5};
Point(12) = {25.069332, 1.566785, 0, cl__6};
Line(1) = {2, 1};
Line(2) = {1, 3};
Line(3) = {4, 3};
Line(4) = {2, 4};
Line(5) = {2, 5};
Line(6) = {5, 6};
Line(7) = {1, 6};
Line(8) = {3, 7};
Line(9) = {6, 7};
p10 = newp;
Point(p10 + 1) = {9.091899035099678, -1.523331400969917, 1};
Point(p10 + 2) = {9.066510250313845, -1.417579501538611, 1};
Point(p10 + 3) = {9.024890801784473, -1.317101264440515, 1};
Point(p10 + 4) = {8.968065498461389, -1.224370797341133, 1};
Point(p10 + 5) = {8.897433567904772, -1.141671432095228, 1};
Point(p10 + 6) = {8.814734202658867, -1.071039501538611, 1};
Point(p10 + 7) = {8.722003735559484, -1.014214198215526, 1};
Point(p10 + 8) = {8.621525498461388, -0.972594749686155, 1};
Point(p10 + 9) = {8.515773599030084, -0.9472059649003219, 1};
Point(p10 + 10) = {8.407351999999999, -0.938673, 1};
Point(p10 + 11) = {8.298930400969915, -0.9472059649003219, 1};
Point(p10 + 12) = {8.193178501538611, -0.9725947496861549, 1};
Point(p10 + 13) = {8.092700264440515, -1.014214198215526, 1};
Point(p10 + 14) = {7.999969797341132, -1.071039501538611, 1};
Point(p10 + 15) = {7.917270432095227, -1.141671432095228, 1};
Point(p10 + 16) = {7.846638501538611, -1.224370797341133, 1};
Point(p10 + 17) = {7.789813198215525, -1.317101264440515, 1};
Point(p10 + 18) = {7.748193749686155, -1.417579501538611, 1};
Point(p10 + 19) = {7.722804964900321, -1.523331400969917, 1};
Point(p10 + 20) = {7.714271999999999, -1.631753, 1};
Point(p10 + 21) = {7.722804964900321, -1.740174599030083, 1};
Point(p10 + 22) = {7.748193749686155, -1.845926498461389, 1};
Point(p10 + 23) = {7.789813198215525, -1.946404735559485, 1};
Point(p10 + 24) = {7.846638501538611, -2.039135202658867, 1};
Point(p10 + 25) = {7.917270432095227, -2.121834567904772, 1};
Point(p10 + 26) = {7.999969797341132, -2.192466498461389, 1};
Point(p10 + 27) = {8.092700264440515, -2.249291801784474, 1};
Point(p10 + 28) = {8.193178501538611, -2.290911250313845, 1};
Point(p10 + 29) = {8.298930400969915, -2.316300035099678, 1};
Point(p10 + 30) = {8.407351999999999, -2.324833, 1};
Point(p10 + 31) = {8.515773599030082, -2.316300035099678, 1};
Point(p10 + 32) = {8.621525498461388, -2.290911250313845, 1};
Point(p10 + 33) = {8.722003735559484, -2.249291801784474, 1};
Point(p10 + 34) = {8.814734202658867, -2.192466498461389, 1};
Point(p10 + 35) = {8.897433567904772, -2.121834567904772, 1};
Point(p10 + 36) = {8.968065498461389, -2.039135202658867, 1};
Point(p10 + 37) = {9.024890801784473, -1.946404735559485, 1};
Point(p10 + 38) = {9.066510250313845, -1.845926498461389, 1};
Point(p10 + 39) = {9.091899035099678, -1.740174599030083, 1};
Spline(10) = {8, p10 + 1, p10 + 2, p10 + 3, p10 + 4, p10 + 5, p10 + 6, p10 + 7, p10 + 8, p10 + 9, p10 + 10, p10 + 11, p10 + 12, p10 + 13, p10 + 14, p10 + 15, p10 + 16, p10 + 17, p10 + 18, p10 + 19, p10 + 20, p10 + 21, p10 + 22, p10 + 23, p10 + 24, p10 + 25, p10 + 26, p10 + 27, p10 + 28, p10 + 29, p10 + 30, p10 + 31, p10 + 32, p10 + 33, p10 + 34, p10 + 35, p10 + 36, p10 + 37, p10 + 38, p10 + 39, 8};
p11 = newp;
Point(p11 + 1) = {25.06169905433715, 1.663770770332247, 1};
Point(p11 + 2) = {25.03898816580312, 1.758368429121597, 1};
Point(p11 + 3) = {25.00175855184673, 1.848248668057025, 1};
Point(p11 + 4) = {24.9509269291216, 1.931198337360531, 1};
Point(p11 + 5) = {24.88774494087969, 2.005174940879692, 1};
Point(p11 + 6) = {24.81376833736053, 2.068356929121597, 1};
Point(p11 + 7) = {24.73081866805703, 2.119188551846732, 1};
Point(p11 + 8) = {24.6409384291216, 2.156418165803121, 1};
Point(p11 + 9) = {24.54634077033225, 2.179129054337152, 1};
Point(p11 + 10) = {24.449355, 2.186762, 1};
Point(p11 + 11) = {24.35236922966775, 2.179129054337152, 1};
Point(p11 + 12) = {24.2577715708784, 2.156418165803121, 1};
Point(p11 + 13) = {24.16789133194298, 2.119188551846732, 1};
Point(p11 + 14) = {24.08494166263947, 2.068356929121597, 1};
Point(p11 + 15) = {24.01096505912031, 2.005174940879692, 1};
Point(p11 + 16) = {23.9477830708784, 1.931198337360531, 1};
Point(p11 + 17) = {23.89695144815327, 1.848248668057025, 1};
Point(p11 + 18) = {23.85972183419688, 1.758368429121597, 1};
Point(p11 + 19) = {23.83701094566285, 1.663770770332247, 1};
Point(p11 + 20) = {23.829378, 1.566785, 1};
Point(p11 + 21) = {23.83701094566285, 1.469799229667753, 1};
Point(p11 + 22) = {23.85972183419688, 1.375201570878403, 1};
Point(p11 + 23) = {23.89695144815327, 1.285321331942975, 1};
Point(p11 + 24) = {23.9477830708784, 1.20237166263947, 1};
Point(p11 + 25) = {24.01096505912031, 1.128395059120308, 1};
Point(p11 + 26) = {24.08494166263947, 1.065213070878403, 1};
Point(p11 + 27) = {24.16789133194298, 1.014381448153268, 1};
Point(p11 + 28) = {24.2577715708784, 0.9771518341968797, 1};
Point(p11 + 29) = {24.35236922966775, 0.9544409456628484, 1};
Point(p11 + 30) = {24.449355, 0.9468080000000001, 1};
Point(p11 + 31) = {24.54634077033225, 0.9544409456628483, 1};
Point(p11 + 32) = {24.6409384291216, 0.9771518341968797, 1};
Point(p11 + 33) = {24.73081866805703, 1.014381448153268, 1};
Point(p11 + 34) = {24.81376833736053, 1.065213070878403, 1};
Point(p11 + 35) = {24.88774494087969, 1.128395059120308, 1};
Point(p11 + 36) = {24.9509269291216, 1.202371662639469, 1};
Point(p11 + 37) = {25.00175855184673, 1.285321331942975, 1};
Point(p11 + 38) = {25.03898816580312, 1.375201570878403, 1};
Point(p11 + 39) = {25.06169905433715, 1.469799229667753, 1};
Spline(11) = {9, p11 + 1, p11 + 2, p11 + 3, p11 + 4, p11 + 5, p11 + 6, p11 + 7, p11 + 8, p11 + 9, p11 + 10, p11 + 11, p11 + 12, p11 + 13, p11 + 14, p11 + 15, p11 + 16, p11 + 17, p11 + 18, p11 + 19, p11 + 20, p11 + 21, p11 + 22, p11 + 23, p11 + 24, p11 + 25, p11 + 26, p11 + 27, p11 + 28, p11 + 29, p11 + 30, p11 + 31, p11 + 32, p11 + 33, p11 + 34, p11 + 35, p11 + 36, p11 + 37, p11 + 38, p11 + 39, 9};
Line(12) = {4, 10};
Line(13) = {10, 7};
Line(14) = {5, 10};
p15 = newp;
Point(p15 + 1) = {9.091899035099678, -1.523331400969917, 0};
Point(p15 + 2) = {9.066510250313845, -1.417579501538611, 0};
Point(p15 + 3) = {9.024890801784473, -1.317101264440515, 0};
Point(p15 + 4) = {8.968065498461389, -1.224370797341133, 0};
Point(p15 + 5) = {8.897433567904772, -1.141671432095228, 0};
Point(p15 + 6) = {8.814734202658867, -1.071039501538611, 0};
Point(p15 + 7) = {8.722003735559484, -1.014214198215526, 0};
Point(p15 + 8) = {8.621525498461388, -0.972594749686155, 0};
Point(p15 + 9) = {8.515773599030084, -0.9472059649003219, 0};
Point(p15 + 10) = {8.407351999999999, -0.938673, 0};
Point(p15 + 11) = {8.298930400969915, -0.9472059649003219, 0};
Point(p15 + 12) = {8.193178501538611, -0.9725947496861549, 0};
Point(p15 + 13) = {8.092700264440515, -1.014214198215526, 0};
Point(p15 + 14) = {7.999969797341132, -1.071039501538611, 0};
Point(p15 + 15) = {7.917270432095227, -1.141671432095228, 0};
Point(p15 + 16) = {7.846638501538611, -1.224370797341133, 0};
Point(p15 + 17) = {7.789813198215525, -1.317101264440515, 0};
Point(p15 + 18) = {7.748193749686155, -1.417579501538611, 0};
Point(p15 + 19) = {7.722804964900321, -1.523331400969917, 0};
Point(p15 + 20) = {7.714271999999999, -1.631753, 0};
Point(p15 + 21) = {7.722804964900321, -1.740174599030083, 0};
Point(p15 + 22) = {7.748193749686155, -1.845926498461389, 0};
Point(p15 + 23) = {7.789813198215525, -1.946404735559485, 0};
Point(p15 + 24) = {7.846638501538611, -2.039135202658867, 0};
Point(p15 + 25) = {7.917270432095227, -2.121834567904772, 0};
Point(p15 + 26) = {7.999969797341132, -2.192466498461389, 0};
Point(p15 + 27) = {8.092700264440515, -2.249291801784474, 0};
Point(p15 + 28) = {8.193178501538611, -2.290911250313845, 0};
Point(p15 + 29) = {8.298930400969915, -2.316300035099678, 0};
Point(p15 + 30) = {8.407351999999999, -2.324833, 0};
Point(p15 + 31) = {8.515773599030082, -2.316300035099678, 0};
Point(p15 + 32) = {8.621525498461388, -2.290911250313845, 0};
Point(p15 + 33) = {8.722003735559484, -2.249291801784474, 0};
Point(p15 + 34) = {8.814734202658867, -2.192466498461389, 0};
Point(p15 + 35) = {8.897433567904772, -2.121834567904772, 0};
Point(p15 + 36) = {8.968065498461389, -2.039135202658867, 0};
Point(p15 + 37) = {9.024890801784473, -1.946404735559485, 0};
Point(p15 + 38) = {9.066510250313845, -1.845926498461389, 0};
Point(p15 + 39) = {9.091899035099678, -1.740174599030083, 0};
Spline(15) = {11, p15 + 1, p15 + 2, p15 + 3, p15 + 4, p15 + 5, p15 + 6, p15 + 7, p15 + 8, p15 + 9, p15 + 10, p15 + 11, p15 + 12, p15 + 13, p15 + 14, p15 + 15, p15 + 16, p15 + 17, p15 + 18, p15 + 19, p15 + 20, p15 + 21, p15 + 22, p15 + 23, p15 + 24, p15 + 25, p15 + 26, p15 + 27, p15 + 28, p15 + 29, p15 + 30, p15 + 31, p15 + 32, p15 + 33, p15 + 34, p15 + 35, p15 + 36, p15 + 37, p15 + 38, p15 + 39, 11};
p16 = newp;
Point(p16 + 1) = {25.06169905433715, 1.663770770332247, 0};
Point(p16 + 2) = {25.03898816580312, 1.758368429121597, 0};
Point(p16 + 3) = {25.00175855184673, 1.848248668057025, 0};
Point(p16 + 4) = {24.9509269291216, 1.931198337360531, 0};
Point(p16 + 5) = {24.88774494087969, 2.005174940879692, 0};
Point(p16 + 6) = {24.81376833736053, 2.068356929121597, 0};
Point(p16 + 7) = {24.73081866805703, 2.119188551846732, 0};
Point(p16 + 8) = {24.6409384291216, 2.156418165803121, 0};
Point(p16 + 9) = {24.54634077033225, 2.179129054337152, 0};
Point(p16 + 10) = {24.449355, 2.186762, 0};
Point(p16 + 11) = {24.35236922966775, 2.179129054337152, 0};
Point(p16 + 12) = {24.2577715708784, 2.156418165803121, 0};
Point(p16 + 13) = {24.16789133194298, 2.119188551846732, 0};
Point(p16 + 14) = {24.08494166263947, 2.068356929121597, 0};
Point(p16 + 15) = {24.01096505912031, 2.005174940879692, 0};
Point(p16 + 16) = {23.9477830708784, 1.931198337360531, 0};
Point(p16 + 17) = {23.89695144815327, 1.848248668057025, 0};
Point(p16 + 18) = {23.85972183419688, 1.758368429121597, 0};
Point(p16 + 19) = {23.83701094566285, 1.663770770332247, 0};
Point(p16 + 20) = {23.829378, 1.566785, 0};
Point(p16 + 21) = {23.83701094566285, 1.469799229667753, 0};
Point(p16 + 22) = {23.85972183419688, 1.375201570878403, 0};
Point(p16 + 23) = {23.89695144815327, 1.285321331942975, 0};
Point(p16 + 24) = {23.9477830708784, 1.20237166263947, 0};
Point(p16 + 25) = {24.01096505912031, 1.128395059120308, 0};
Point(p16 + 26) = {24.08494166263947, 1.065213070878403, 0};
Point(p16 + 27) = {24.16789133194298, 1.014381448153268, 0};
Point(p16 + 28) = {24.2577715708784, 0.9771518341968797, 0};
Point(p16 + 29) = {24.35236922966775, 0.9544409456628484, 0};
Point(p16 + 30) = {24.449355, 0.9468080000000001, 0};
Point(p16 + 31) = {24.54634077033225, 0.9544409456628483, 0};
Point(p16 + 32) = {24.6409384291216, 0.9771518341968797, 0};
Point(p16 + 33) = {24.73081866805703, 1.014381448153268, 0};
Point(p16 + 34) = {24.81376833736053, 1.065213070878403, 0};
Point(p16 + 35) = {24.88774494087969, 1.128395059120308, 0};
Point(p16 + 36) = {24.9509269291216, 1.202371662639469, 0};
Point(p16 + 37) = {25.00175855184673, 1.285321331942975, 0};
Point(p16 + 38) = {25.03898816580312, 1.375201570878403, 0};
Point(p16 + 39) = {25.06169905433715, 1.469799229667753, 0};
Spline(16) = {12, p16 + 1, p16 + 2, p16 + 3, p16 + 4, p16 + 5, p16 + 6, p16 + 7, p16 + 8, p16 + 9, p16 + 10, p16 + 11, p16 + 12, p16 + 13, p16 + 14, p16 + 15, p16 + 16, p16 + 17, p16 + 18, p16 + 19, p16 + 20, p16 + 21, p16 + 22, p16 + 23, p16 + 24, p16 + 25, p16 + 26, p16 + 27, p16 + 28, p16 + 29, p16 + 30, p16 + 31, p16 + 32, p16 + 33, p16 + 34, p16 + 35, p16 + 36, p16 + 37, p16 + 38, p16 + 39, 12};
Line(17) = {11, 8};
Line(18) = {12, 9};
Curve Loop(1) = {-1, 4, 3, -2};
Plane Surface(1) = {1};
Curve Loop(2) = {-5, 1, 7, -6};
Plane Surface(2) = {2};
Curve Loop(3) = {-2, 7, 9, -8, -10, -11};
Plane Surface(3) = {3};
Curve Loop(4) = {-12, 3, 8, -13};
Plane Surface(4) = {4};
Curve Loop(5) = {-4, 5, 14, -12, -15, -16};
Plane Surface(5) = {5};
Curve Loop(6) = {-6, 14, 13, -9};
Plane Surface(6) = {6};
Curve Loop(7) = {-10, -17, 15, 17};
Surface(7) = {7};
Curve Loop(8) = {-11, -18, 16, 18};
Surface(8) = {8};
Surface Loop(1) = {1, 2, 3, 4, 5, 6, 7, 8};
Volume(1) = {1};
Physical Surface("INFLOW") = {1};
Physical Surface("OUTFLOW") = {6};
Physical Surface("OBSTACLE") = {7, 8};
Physical Surface("WALL_Y") = {2, 4};
Physical Surface("WALL_Z") = {3, 5};
Physical Volume("FLUID") = {1};
