cl__1 = 3.367586;
cl__2 = 0.730077;
cl__3 = 1.405738;
cl__4 = 0.062424;
cl__5 = 0.084374;
Point(1) = {0.268537, -3.644073, 1, cl__1};
Point(2) = {0.268537, -3.644073, 0, cl__1};
Point(3) = {0.268537, 5.300761, 1, cl__2};
Point(4) = {0.268537, 5.300761, 0, cl__2};
Point(5) = {33.377552, -3.644073, 0, cl__1};
Point(6) = {33.377552, -3.644073, 1, cl__1};
Point(7) = {33.377552, 5.300761, 1, cl__3};
Point(8) = {26.788558, -0.3615340000000002, 1, cl__4};
Point(9) = {19.740177, -0.1311500000000002, 1, cl__5};
Point(10) = {33.377552, 5.300761, 0, cl__3};
Point(11) = {26.788558, -0.3615340000000002, 0, cl__4};
Point(12) = {19.740177, -0.1311500000000002, 0, cl__5};
Line(1) = {2, 1};
Line(2) = {1, 3};
Line(3) = {4, 3};
Line(4) = {2, 4};
Line(5) = {2, 5};
Line(6) = {5, 6};
Line(7) = {1, 6};
Line(8) = {3, 7};
Line(9) = {6, 7};
p10 = newp;
Point(p10 + 1) = {26.78087260666809, -0.2638818188466814, 1};
Point(p10 + 2) = {26.75800566656254, -0.168634158482366, 1};
Point(p10 + 3) = {26.72052023963978, -0.07813633241408457, 1};
Point(p10 + 4) = {26.66933934151763, 0.005383302535296564, 1};
Point(p10 + 5) = {26.60572321576755, 0.07986821576754682, 1};
Point(p10 + 6) = {26.5312383025353, 0.1434843415176341, 1};
Point(p10 + 7) = {26.44771866758592, 0.1946652396397741, 1};
Point(p10 + 8) = {26.35722084151763, 0.2321506665625378, 1};
Point(p10 + 9) = {26.26197318115332, 0.255017606668087, 1};
Point(p10 + 10) = {26.164321, 0.262703, 1};
Point(p10 + 11) = {26.06666881884668, 0.2550176066680869, 1};
Point(p10 + 12) = {25.97142115848237, 0.2321506665625378, 1};
Point(p10 + 13) = {25.88092333241408, 0.1946652396397742, 1};
Point(p10 + 14) = {25.79740369746471, 0.1434843415176341, 1};
Point(p10 + 15) = {25.72291878423245, 0.07986821576754688, 1};
Point(p10 + 16) = {25.65930265848237, 0.005383302535296619, 1};
Point(p10 + 17) = {25.60812176036023, -0.07813633241408446, 1};
Point(p10 + 18) = {25.57063633343746, -0.1686341584823659, 1};
Point(p10 + 19) = {25.54776939333192, -0.2638818188466814, 1};
Point(p10 + 20) = {25.540084, -0.361534, 1};
Point(p10 + 21) = {25.54776939333192, -0.4591861811533186, 1};
Point(p10 + 22) = {25.57063633343746, -0.5544338415176343, 1};
Point(p10 + 23) = {25.60812176036023, -0.6449316675859151, 1};
Point(p10 + 24) = {25.65930265848237, -0.7284513025352966, 1};
Point(p10 + 25) = {25.72291878423245, -0.8029362157675468, 1};
Point(p10 + 26) = {25.79740369746471, -0.8665523415176341, 1};
Point(p10 + 27) = {25.88092333241408, -0.9177332396397742, 1};
Point(p10 + 28) = {25.97142115848237, -0.9552186665625378, 1};
Point(p10 + 29) = {26.06666881884668, -0.978085606668087, 1};
Point(p10 + 30) = {26.164321, -0.9857710000000001, 1};
Point(p10 + 31) = {26.26197318115332, -0.9780856066680871, 1};
Point(p10 + 32) = {26.35722084151763, -0.9552186665625378, 1};
Point(p10 + 33) = {26.44771866758592, -0.9177332396397743, 1};
Point(p10 + 34) = {26.5312383025353, -0.8665523415176342, 1};
Point(p10 + 35) = {26.60572321576755, -0.802936215767547, 1};
Point(p10 + 36) = {26.66933934151763, -0.7284513025352968, 1};
Point(p10 + 37) = {26.72052023963978, -0.6449316675859156, 1};
Point(p10 + 38) = {26.75800566656254, -0.5544338415176342, 1};
Point(p10 + 39) = {26.78087260666809, -0.4591861811533188, 1};
Spline(10) = {8, p10 + 1, p10 + 2, p10 + 3, p10 + 4, p10 + 5, p10 + 6, p10 + 7, p10 + 8, p10 + 9, p10 + 10, p10 + 11, p10 + 12, p10 + 13, p10 + 14, p10 + 15, p10 + 16, p10 + 17, p10 + 18, p10 + 19, p10 + 20, p10 + 21, p10 + 22, p10 + 23, p10 + 24, p10 + 25, p10 + 26, p10 + 27, p10 + 28, p10 + 29, p10 + 30, p10 + 31, p10 + 32, p10 + 33, p10 + 34, p10 + 35, p10 + 36, p10 + 37, p10 + 38, p10 + 39, 8};
p11 = newp;
Point(p11 + 1) = {19.72978916049374, 0.0008400155330444137, 1};
Point(p11 + 2) = {19.69888142505887, 0.1295799988339181, 1};
Point(p11 + 3) = {19.64821484471869, 0.2518999442502452, 1};
Point(p11 + 4) = {19.57903699883392, 0.3647879287692513, 1};
Point(p11 + 5) = {19.49305127555834, 0.4654642755583376, 1};
Point(p11 + 6) = {19.39237492876925, 0.5514499988339182, 1};
Point(p11 + 7) = {19.27948694425024, 0.6206278447186935, 1};
Point(p11 + 8) = {19.15716699883392, 0.6712944250588729, 1};
Point(p11 + 9) = {19.02842701553304, 0.7022021604937416, 1};
Point(p11 + 10) = {18.896437, 0.7125900000000001, 1};
Point(p11 + 11) = {18.76444698446695, 0.7022021604937415, 1};
Point(p11 + 12) = {18.63570700116608, 0.6712944250588729, 1};
Point(p11 + 13) = {18.51338705574975, 0.6206278447186936, 1};
Point(p11 + 14) = {18.40049907123075, 0.5514499988339182, 1};
Point(p11 + 15) = {18.29982272444166, 0.4654642755583377, 1};
Point(p11 + 16) = {18.21383700116608, 0.3647879287692514, 1};
Point(p11 + 17) = {18.14465915528131, 0.2518999442502453, 1};
Point(p11 + 18) = {18.09399257494113, 0.1295799988339182, 1};
Point(p11 + 19) = {18.06308483950626, 0.0008400155330444969, 1};
Point(p11 + 20) = {18.052697, -0.1311499999999999, 1};
Point(p11 + 21) = {18.06308483950626, -0.2631400155330443, 1};
Point(p11 + 22) = {18.09399257494113, -0.3918799988339184, 1};
Point(p11 + 23) = {18.1446591552813, -0.5141999442502447, 1};
Point(p11 + 24) = {18.21383700116608, -0.6270879287692512, 1};
Point(p11 + 25) = {18.29982272444166, -0.7277642755583376, 1};
Point(p11 + 26) = {18.40049907123075, -0.8137499988339181, 1};
Point(p11 + 27) = {18.51338705574975, -0.8829278447186935, 1};
Point(p11 + 28) = {18.63570700116608, -0.9335944250588729, 1};
Point(p11 + 29) = {18.76444698446695, -0.9645021604937415, 1};
Point(p11 + 30) = {18.896437, -0.97489, 1};
Point(p11 + 31) = {19.02842701553304, -0.9645021604937416, 1};
Point(p11 + 32) = {19.15716699883392, -0.9335944250588729, 1};
Point(p11 + 33) = {19.27948694425024, -0.8829278447186936, 1};
Point(p11 + 34) = {19.39237492876925, -0.8137499988339183, 1};
Point(p11 + 35) = {19.49305127555834, -0.7277642755583378, 1};
Point(p11 + 36) = {19.57903699883392, -0.6270879287692515, 1};
Point(p11 + 37) = {19.64821484471869, -0.5141999442502454, 1};
Point(p11 + 38) = {19.69888142505887, -0.3918799988339183, 1};
Point(p11 + 39) = {19.72978916049374, -0.2631400155330446, 1};
Spline(11) = {9, p11 + 1, p11 + 2, p11 + 3, p11 + 4, p11 + 5, p11 + 6, p11 + 7, p11 + 8, p11 + 9, p11 + 10, p11 + 11, p11 + 12, p11 + 13, p11 + 14, p11 + 15, p11 + 16, p11 + 17, p11 + 18, p11 + 19, p11 + 20, p11 + 21, p11 + 22, p11 + 23, p11 + 24, p11 + 25, p11 + 26, p11 + 27, p11 + 28, p11 + 29, p11 + 30, p11 + 31, p11 + 32, p11 + 33, p11 + 34, p11 + 35, p11 + 36, p11 + 37, p11 + 38, p11 + 39, 9};
Line(12) = {4, 10};
Line(13) = {10, 7};
Line(14) = {5, 10};
p15 = newp;
Point(p15 + 1) = {26.78087260666809, -0.2638818188466814, 0};
Point(p15 + 2) = {26.75800566656254, -0.168634158482366, 0};
Point(p15 + 3) = {26.72052023963978, -0.07813633241408457, 0};
Point(p15 + 4) = {26.66933934151763, 0.005383302535296564, 0};
Point(p15 + 5) = {26.60572321576755, 0.07986821576754682, 0};
Point(p15 + 6) = {26.5312383025353, 0.1434843415176341, 0};
Point(p15 + 7) = {26.44771866758592, 0.1946652396397741, 0};
Point(p15 + 8) = {26.35722084151763, 0.2321506665625378, 0};
Point(p15 + 9) = {26.26197318115332, 0.255017606668087, 0};
Point(p15 + 10) = {26.164321, 0.262703, 0};
Point(p15 + 11) = {26.06666881884668, 0.2550176066680869, 0};
Point(p15 + 12) = {25.97142115848237, 0.2321506665625378, 0};
Point(p15 + 13) = {25.88092333241408, 0.1946652396397742, 0};
Point(p15 + 14) = {25.79740369746471, 0.1434843415176341, 0};
Point(p15 + 15) = {25.72291878423245, 0.07986821576754688, 0};
Point(p15 + 16) = {25.65930265848237, 0.005383302535296619, 0};
Point(p15 + 17) = {25.60812176036023, -0.07813633241408446, 0};
Point(p15 + 18) = {25.57063633343746, -0.1686341584823659, 0};
Point(p15 + 19) = {25.54776939333192, -0.2638818188466814, 0};
Point(p15 + 20) = {25.540084, -0.361534, 0};
Point(p15 + 21) = {25.54776939333192, -0.4591861811533186, 0};
Point(p15 + 22) = {25.57063633343746, -0.5544338415176343, 0};
Point(p15 + 23) = {25.60812176036023, -0.6449316675859151, 0};
Point(p15 + 24) = {25.65930265848237, -0.7284513025352966, 0};
Point(p15 + 25) = {25.72291878423245, -0.8029362157675468, 0};
Point(p15 + 26) = {25.79740369746471, -0.8665523415176341, 0};
Point(p15 + 27) = {25.88092333241408, -0.9177332396397742, 0};
Point(p15 + 28) = {25.97142115848237, -0.9552186665625378, 0};
Point(p15 + 29) = {26.06666881884668, -0.978085606668087, 0};
Point(p15 + 30) = {26.164321, -0.9857710000000001, 0};
Point(p15 + 31) = {26.26197318115332, -0.9780856066680871, 0};
Point(p15 + 32) = {26.35722084151763, -0.9552186665625378, 0};
Point(p15 + 33) = {26.44771866758592, -0.9177332396397743, 0};
Point(p15 + 34) = {26.5312383025353, -0.8665523415176342, 0};
Point(p15 + 35) = {26.60572321576755, -0.802936215767547, 0};
Point(p15 + 36) = {26.66933934151763, -0.7284513025352968, 0};
Point(p15 + 37) = {26.72052023963978, -0.6449316675859156, 0};
Point(p15 + 38) = {26.75800566656254, -0.5544338415176342, 0};
Point(p15 + 39) = {26.78087260666809, -0.4591861811533188, 0};
Spline(15) = {11, p15 + 1, p15 + 2, p15 + 3, p15 + 4, p15 + 5, p15 + 6, p15 + 7, p15 + 8, p15 + 9, p15 + 10, p15 + 11, p15 + 12, p15 + 13, p15 + 14, p15 + 15, p15 + 16, p15 + 17, p15 + 18, p15 + 19, p15 + 20, p15 + 21, p15 + 22, p15 + 23, p15 + 24, p15 + 25, p15 + 26, p15 + 27, p15 + 28, p15 + 29, p15 + 30, p15 + 31, p15 + 32, p15 + 33, p15 + 34, p15 + 35, p15 + 36, p15 + 37, p15 + 38, p15 + 39, 11};
p16 = newp;
Point(p16 + 1) = {19.72978916049374, 0.0008400155330444137, 0};
Point(p16 + 2) = {19.69888142505887, 0.1295799988339181, 0};
Point(p16 + 3) = {19.64821484471869, 0.2518999442502452, 0};
Point(p16 + 4) = {19.57903699883392, 0.3647879287692513, 0};
Point(p16 + 5) = {19.49305127555834, 0.4654642755583376, 0};
Point(p16 + 6) = {19.39237492876925, 0.5514499988339182, 0};
Point(p16 + 7) = {19.27948694425024, 0.6206278447186935, 0};
Point(p16 + 8) = {19.15716699883392, 0.6712944250588729, 0};
Point(p16 + 9) = {19.02842701553304, 0.7022021604937416, 0};
Point(p16 + 10) = {18.896437, 0.7125900000000001, 0};
Point(p16 + 11) = {18.76444698446695, 0.7022021604937415, 0};
Point(p16 + 12) = {18.63570700116608, 0.6712944250588729, 0};
Point(p16 + 13) = {18.51338705574975, 0.6206278447186936, 0};
Point(p16 + 14) = {18.40049907123075, 0.5514499988339182, 0};
Point(p16 + 15) = {18.29982272444166, 0.4654642755583377, 0};
Point(p16 + 16) = {18.21383700116608, 0.3647879287692514, 0};
Point(p16 + 17) = {18.14465915528131, 0.2518999442502453, 0};
Point(p16 + 18) = {18.09399257494113, 0.1295799988339182, 0};
Point(p16 + 19) = {18.06308483950626, 0.0008400155330444969, 0};
Point(p16 + 20) = {18.052697, -0.1311499999999999, 0};
Point(p16 + 21) = {18.06308483950626, -0.2631400155330443, 0};
Point(p16 + 22) = {18.09399257494113, -0.3918799988339184, 0};
Point(p16 + 23) = {18.1446591552813, -0.5141999442502447, 0};
Point(p16 + 24) = {18.21383700116608, -0.6270879287692512, 0};
Point(p16 + 25) = {18.29982272444166, -0.7277642755583376, 0};
Point(p16 + 26) = {18.40049907123075, -0.8137499988339181, 0};
Point(p16 + 27) = {18.51338705574975, -0.8829278447186935, 0};
Point(p16 + 28) = {18.63570700116608, -0.9335944250588729, 0};
Point(p16 + 29) = {18.76444698446695, -0.9645021604937415, 0};
Point(p16 + 30) = {18.896437, -0.97489, 0};
Point(p16 + 31) = {19.02842701553304, -0.9645021604937416, 0};
Point(p16 + 32) = {19.15716699883392, -0.9335944250588729, 0};
Point(p16 + 33) = {19.27948694425024, -0.8829278447186936, 0};
Point(p16 + 34) = {19.39237492876925, -0.8137499988339183, 0};
Point(p16 + 35) = {19.49305127555834, -0.7277642755583378, 0};
Point(p16 + 36) = {19.57903699883392, -0.6270879287692515, 0};
Point(p16 + 37) = {19.64821484471869, -0.5141999442502454, 0};
Point(p16 + 38) = {19.69888142505887, -0.3918799988339183, 0};
Point(p16 + 39) = {19.72978916049374, -0.2631400155330446, 0};
Spline(16) = {12, p16 + 1, p16 + 2, p16 + 3, p16 + 4, p16 + 5, p16 + 6, p16 + 7, p16 + 8, p16 + 9, p16 + 10, p16 + 11, p16 + 12, p16 + 13, p16 + 14, p16 + 15, p16 + 16, p16 + 17, p16 + 18, p16 + 19, p16 + 20, p16 + 21, p16 + 22, p16 + 23, p16 + 24, p16 + 25, p16 + 26, p16 + 27, p16 + 28, p16 + 29, p16 + 30, p16 + 31, p16 + 32, p16 + 33, p16 + 34, p16 + 35, p16 + 36, p16 + 37, p16 + 38, p16 + 39, 12};
Line(17) = {11, 8};
Line(18) = {12, 9};
Curve Loop(1) = {-1, 4, 3, -2};
Plane Surface(1) = {1};
Curve Loop(2) = {-5, 1, 7, -6};
Plane Surface(2) = {2};
Curve Loop(3) = {-2, 7, 9, -8, -10, -11};
Plane Surface(3) = {3};
Curve Loop(4) = {-12, 3, 8, -13};
Plane Surface(4) = {4};
Curve Loop(5) = {-4, 5, 14, -12, -15, -16};
Plane Surface(5) = {5};
Curve Loop(6) = {-6, 14, 13, -9};
Plane Surface(6) = {6};
Curve Loop(7) = {-10, -17, 15, 17};
Surface(7) = {7};
Curve Loop(8) = {-11, -18, 16, 18};
Surface(8) = {8};
Surface Loop(1) = {1, 2, 3, 4, 5, 6, 7, 8};
Volume(1) = {1};
Physical Surface("INFLOW") = {1};
Physical Surface("OUTFLOW") = {6};
Physical Surface("OBSTACLE") = {7, 8};
Physical Surface("WALL_Y") = {2, 4};
Physical Surface("WALL_Z") = {3, 5};
Physical Volume("FLUID") = {1};
