cl__1 = 3.264478;
cl__2 = 1.628905;
cl__3 = 1.529322;
cl__4 = 1.464103;
cl__5 = 0.097625;
Point(1) = {0.01486, -3.36473, 1, cl__1};
Point(2) = {0.01486, -3.36473, 0, cl__1};
Point(3) = {0.01486, 4.944699, 1, cl__2};
Point(4) = {0.01486, 4.944699, 0, cl__2};
Point(5) = {32.379316, -3.36473, 0, cl__3};
Point(6) = {32.379316, -3.36473, 1, cl__3};
Point(7) = {32.379316, 4.944699, 1, cl__4};
Point(8) = {18.010536, 2.041338, 1, cl__5};
Point(9) = {32.379316, 4.944699, 0, cl__4};
Point(10) = {18.010536, 2.041338, 0, cl__5};
Line(1) = {2, 1};
Line(2) = {1, 3};
Line(3) = {4, 3};
Line(4) = {2, 4};
Line(5) = {2, 5};
Line(6) = {5, 6};
Line(7) = {1, 6};
Line(8) = {3, 7};
Line(9) = {6, 7};
p10 = newp;
Point(p10 + 1) = {17.99851679175264, 2.194056520757665, 1};
Point(p10 + 2) = {17.96275511980708, 2.343014604690565, 1};
Point(p10 + 3) = {17.9041315552128, 2.484544409408734, 1};
Point(p10 + 4) = {17.82408960469056, 2.615161001409518, 1};
Point(p10 + 5) = {17.72460016670624, 2.731648166706242, 1};
Point(p10 + 6) = {17.60811300140952, 2.831137604690565, 1};
Point(p10 + 7) = {17.47749640940873, 2.911179555212797, 1};
Point(p10 + 8) = {17.33596660469057, 2.969803119807079, 1};
Point(p10 + 9) = {17.18700852075767, 3.005564791752641, 1};
Point(p10 + 10) = {17.03429, 3.017584, 1};
Point(p10 + 11) = {16.88157147924233, 3.005564791752641, 1};
Point(p10 + 12) = {16.73261339530943, 2.969803119807079, 1};
Point(p10 + 13) = {16.59108359059126, 2.911179555212797, 1};
Point(p10 + 14) = {16.46046699859048, 2.831137604690565, 1};
Point(p10 + 15) = {16.34397983329375, 2.731648166706242, 1};
Point(p10 + 16) = {16.24449039530943, 2.615161001409518, 1};
Point(p10 + 17) = {16.1644484447872, 2.484544409408734, 1};
Point(p10 + 18) = {16.10582488019292, 2.343014604690565, 1};
Point(p10 + 19) = {16.07006320824736, 2.194056520757665, 1};
Point(p10 + 20) = {16.058044, 2.041338, 1};
Point(p10 + 21) = {16.07006320824736, 1.888619479242335, 1};
Point(p10 + 22) = {16.10582488019292, 1.739661395309435, 1};
Point(p10 + 23) = {16.1644484447872, 1.598131590591267, 1};
Point(p10 + 24) = {16.24449039530943, 1.467514998590483, 1};
Point(p10 + 25) = {16.34397983329375, 1.351027833293758, 1};
Point(p10 + 26) = {16.46046699859048, 1.251538395309435, 1};
Point(p10 + 27) = {16.59108359059126, 1.171496444787203, 1};
Point(p10 + 28) = {16.73261339530943, 1.112872880192922, 1};
Point(p10 + 29) = {16.88157147924233, 1.077111208247359, 1};
Point(p10 + 30) = {17.03429, 1.065092, 1};
Point(p10 + 31) = {17.18700852075767, 1.077111208247359, 1};
Point(p10 + 32) = {17.33596660469056, 1.112872880192922, 1};
Point(p10 + 33) = {17.47749640940873, 1.171496444787203, 1};
Point(p10 + 34) = {17.60811300140952, 1.251538395309435, 1};
Point(p10 + 35) = {17.72460016670624, 1.351027833293758, 1};
Point(p10 + 36) = {17.82408960469056, 1.467514998590482, 1};
Point(p10 + 37) = {17.9041315552128, 1.598131590591266, 1};
Point(p10 + 38) = {17.96275511980708, 1.739661395309435, 1};
Point(p10 + 39) = {17.99851679175264, 1.888619479242335, 1};
Spline(10) = {8, p10 + 1, p10 + 2, p10 + 3, p10 + 4, p10 + 5, p10 + 6, p10 + 7, p10 + 8, p10 + 9, p10 + 10, p10 + 11, p10 + 12, p10 + 13, p10 + 14, p10 + 15, p10 + 16, p10 + 17, p10 + 18, p10 + 19, p10 + 20, p10 + 21, p10 + 22, p10 + 23, p10 + 24, p10 + 25, p10 + 26, p10 + 27, p10 + 28, p10 + 29, p10 + 30, p10 + 31, p10 + 32, p10 + 33, p10 + 34, p10 + 35, p10 + 36, p10 + 37, p10 + 38, p10 + 39, 8};
Line(11) = {4, 9};
Line(12) = {9, 7};
Line(13) = {5, 9};
p14 = newp;
Point(p14 + 1) = {17.99851679175264, 2.194056520757665, 0};
Point(p14 + 2) = {17.96275511980708, 2.343014604690565, 0};
Point(p14 + 3) = {17.9041315552128, 2.484544409408734, 0};
Point(p14 + 4) = {17.82408960469056, 2.615161001409518, 0};
Point(p14 + 5) = {17.72460016670624, 2.731648166706242, 0};
Point(p14 + 6) = {17.60811300140952, 2.831137604690565, 0};
Point(p14 + 7) = {17.47749640940873, 2.911179555212797, 0};
Point(p14 + 8) = {17.33596660469057, 2.969803119807079, 0};
Point(p14 + 9) = {17.18700852075767, 3.005564791752641, 0};
Point(p14 + 10) = {17.03429, 3.017584, 0};
Point(p14 + 11) = {16.88157147924233, 3.005564791752641, 0};
Point(p14 + 12) = {16.73261339530943, 2.969803119807079, 0};
Point(p14 + 13) = {16.59108359059126, 2.911179555212797, 0};
Point(p14 + 14) = {16.46046699859048, 2.831137604690565, 0};
Point(p14 + 15) = {16.34397983329375, 2.731648166706242, 0};
Point(p14 + 16) = {16.24449039530943, 2.615161001409518, 0};
Point(p14 + 17) = {16.1644484447872, 2.484544409408734, 0};
Point(p14 + 18) = {16.10582488019292, 2.343014604690565, 0};
Point(p14 + 19) = {16.07006320824736, 2.194056520757665, 0};
Point(p14 + 20) = {16.058044, 2.041338, 0};
Point(p14 + 21) = {16.07006320824736, 1.888619479242335, 0};
Point(p14 + 22) = {16.10582488019292, 1.739661395309435, 0};
Point(p14 + 23) = {16.1644484447872, 1.598131590591267, 0};
Point(p14 + 24) = {16.24449039530943, 1.467514998590483, 0};
Point(p14 + 25) = {16.34397983329375, 1.351027833293758, 0};
Point(p14 + 26) = {16.46046699859048, 1.251538395309435, 0};
Point(p14 + 27) = {16.59108359059126, 1.171496444787203, 0};
Point(p14 + 28) = {16.73261339530943, 1.112872880192922, 0};
Point(p14 + 29) = {16.88157147924233, 1.077111208247359, 0};
Point(p14 + 30) = {17.03429, 1.065092, 0};
Point(p14 + 31) = {17.18700852075767, 1.077111208247359, 0};
Point(p14 + 32) = {17.33596660469056, 1.112872880192922, 0};
Point(p14 + 33) = {17.47749640940873, 1.171496444787203, 0};
Point(p14 + 34) = {17.60811300140952, 1.251538395309435, 0};
Point(p14 + 35) = {17.72460016670624, 1.351027833293758, 0};
Point(p14 + 36) = {17.82408960469056, 1.467514998590482, 0};
Point(p14 + 37) = {17.9041315552128, 1.598131590591266, 0};
Point(p14 + 38) = {17.96275511980708, 1.739661395309435, 0};
Point(p14 + 39) = {17.99851679175264, 1.888619479242335, 0};
Spline(14) = {10, p14 + 1, p14 + 2, p14 + 3, p14 + 4, p14 + 5, p14 + 6, p14 + 7, p14 + 8, p14 + 9, p14 + 10, p14 + 11, p14 + 12, p14 + 13, p14 + 14, p14 + 15, p14 + 16, p14 + 17, p14 + 18, p14 + 19, p14 + 20, p14 + 21, p14 + 22, p14 + 23, p14 + 24, p14 + 25, p14 + 26, p14 + 27, p14 + 28, p14 + 29, p14 + 30, p14 + 31, p14 + 32, p14 + 33, p14 + 34, p14 + 35, p14 + 36, p14 + 37, p14 + 38, p14 + 39, 10};
Line(15) = {10, 8};
Curve Loop(1) = {-1, 4, 3, -2};
Plane Surface(1) = {1};
Curve Loop(2) = {-5, 1, 7, -6};
Plane Surface(2) = {2};
Curve Loop(3) = {-2, 7, 9, -8, -10};
Plane Surface(3) = {3};
Curve Loop(4) = {-11, 3, 8, -12};
Plane Surface(4) = {4};
Curve Loop(5) = {-4, 5, 13, -11, -14};
Plane Surface(5) = {5};
Curve Loop(6) = {-6, 13, 12, -9};
Plane Surface(6) = {6};
Curve Loop(7) = {-10, -15, 14, 15};
Surface(7) = {7};
Surface Loop(1) = {1, 2, 3, 4, 5, 6, 7};
Volume(1) = {1};
Physical Surface("INFLOW") = {1};
Physical Surface("OUTFLOW") = {6};
Physical Surface("OBSTACLE") = {7};
Physical Surface("WALL_Y") = {2, 4};
Physical Surface("WALL_Z") = {3, 5};
Physical Volume("FLUID") = {1};
