cl__1 = 3.681566;
cl__2 = 0.259533;
cl__3 = 1.082355;
cl__4 = 0.125268;
cl__5 = 0.051055;
Point(1) = {0.084982, -3.424807, 1, cl__1};
Point(2) = {0.084982, -3.424807, 0, cl__1};
Point(3) = {0.084982, 4.962715000000001, 1, cl__2};
Point(4) = {0.084982, 4.962715000000001, 0, cl__2};
Point(5) = {36.57601699999999, -3.424807, 0, cl__1};
Point(6) = {36.57601699999999, -3.424807, 1, cl__1};
Point(7) = {36.57601699999999, 4.962715000000001, 1, cl__3};
Point(8) = {26.031906, -0.8419580000000002, 1, cl__4};
Point(9) = {35.832621, -0.5833060000000001, 1, cl__5};
Point(10) = {36.57601699999999, 4.962715000000001, 0, cl__3};
Point(11) = {26.031906, -0.8419580000000002, 0, cl__4};
Point(12) = {35.832621, -0.5833060000000001, 0, cl__5};
Line(1) = {2, 1};
Line(2) = {1, 3};
Line(3) = {4, 3};
Line(4) = {2, 4};
Line(5) = {2, 5};
Line(6) = {5, 6};
Line(7) = {1, 6};
Line(8) = {3, 7};
Line(9) = {6, 7};
p10 = newp;
Point(p10 + 1) = {26.01648339356174, -0.6459952050300084, 1};
Point(p10 + 2) = {25.97059533000216, -0.4548576644354078, 1};
Point(p10 + 3) = {25.89537172573986, -0.2732518188147653, 1};
Point(p10 + 4) = {25.79266483556459, -0.1056494068025079, 1};
Point(p10 + 5) = {25.66500364397711, 0.04382264397710789, 1};
Point(p10 + 6) = {25.51553159319749, 0.1714838355645922, 1};
Point(p10 + 7) = {25.34792918118524, 0.274190725739857, 1};
Point(p10 + 8) = {25.16632333556459, 0.3494143300021617, 1};
Point(p10 + 9) = {24.97518579496999, 0.395302393561739, 1};
Point(p10 + 10) = {24.779223, 0.410725, 1};
Point(p10 + 11) = {24.58326020503001, 0.3953023935617388, 1};
Point(p10 + 12) = {24.39212266443541, 0.3494143300021619, 1};
Point(p10 + 13) = {24.21051681881477, 0.2741907257398573, 1};
Point(p10 + 14) = {24.04291440680251, 0.1714838355645922, 1};
Point(p10 + 15) = {23.8934423560229, 0.043822643977108, 1};
Point(p10 + 16) = {23.76578116443541, -0.1056494068025077, 1};
Point(p10 + 17) = {23.66307427426014, -0.2732518188147652, 1};
Point(p10 + 18) = {23.58785066999784, -0.4548576644354076, 1};
Point(p10 + 19) = {23.54196260643826, -0.6459952050300083, 1};
Point(p10 + 20) = {23.52654, -0.8419579999999999, 1};
Point(p10 + 21) = {23.54196260643826, -1.037920794969991, 1};
Point(p10 + 22) = {23.58785066999784, -1.229058335564593, 1};
Point(p10 + 23) = {23.66307427426014, -1.410664181185234, 1};
Point(p10 + 24) = {23.76578116443541, -1.578266593197492, 1};
Point(p10 + 25) = {23.8934423560229, -1.727738643977108, 1};
Point(p10 + 26) = {24.04291440680251, -1.855399835564592, 1};
Point(p10 + 27) = {24.21051681881477, -1.958106725739857, 1};
Point(p10 + 28) = {24.39212266443541, -2.033330330002162, 1};
Point(p10 + 29) = {24.58326020503001, -2.079218393561739, 1};
Point(p10 + 30) = {24.779223, -2.094641, 1};
Point(p10 + 31) = {24.97518579496999, -2.079218393561739, 1};
Point(p10 + 32) = {25.16632333556459, -2.033330330002162, 1};
Point(p10 + 33) = {25.34792918118524, -1.958106725739857, 1};
Point(p10 + 34) = {25.51553159319749, -1.855399835564592, 1};
Point(p10 + 35) = {25.66500364397711, -1.727738643977108, 1};
Point(p10 + 36) = {25.79266483556459, -1.578266593197492, 1};
Point(p10 + 37) = {25.89537172573986, -1.410664181185235, 1};
Point(p10 + 38) = {25.97059533000216, -1.229058335564593, 1};
Point(p10 + 39) = {26.01648339356174, -1.037920794969992, 1};
Spline(10) = {8, p10 + 1, p10 + 2, p10 + 3, p10 + 4, p10 + 5, p10 + 6, p10 + 7, p10 + 8, p10 + 9, p10 + 10, p10 + 11, p10 + 12, p10 + 13, p10 + 14, p10 + 15, p10 + 16, p10 + 17, p10 + 18, p10 + 19, p10 + 20, p10 + 21, p10 + 22, p10 + 23, p10 + 24, p10 + 25, p10 + 26, p10 + 27, p10 + 28, p10 + 29, p10 + 30, p10 + 31, p10 + 32, p10 + 33, p10 + 34, p10 + 35, p10 + 36, p10 + 37, p10 + 38, p10 + 39, 8};
p11 = newp;
Point(p11 + 1) = {35.82633530691417, -0.5034386967426402, 1};
Point(p11 + 2) = {35.80763300228146, -0.4255379915558594, 1};
Point(p11 + 3) = {35.77697459891132, -0.3515220583389739, 1};
Point(p11 + 4) = {35.73511500844415, -0.2832134150125824, 1};
Point(p11 + 5) = {35.68308495292123, -0.2222940470787705, 1};
Point(p11 + 6) = {35.62216558498742, -0.1702639915558593, 1};
Point(p11 + 7) = {35.55385694166103, -0.1284044010886772, 1};
Point(p11 + 8) = {35.47984100844415, -0.09774599771854192, 1};
Point(p11 + 9) = {35.40194030325736, -0.07904369308583359, 1};
Point(p11 + 10) = {35.322073, -0.07275799999999999, 1};
Point(p11 + 11) = {35.24220569674264, -0.0790436930858337, 1};
Point(p11 + 12) = {35.16430499155586, -0.09774599771854187, 1};
Point(p11 + 13) = {35.09028905833897, -0.1284044010886771, 1};
Point(p11 + 14) = {35.02198041501259, -0.1702639915558593, 1};
Point(p11 + 15) = {34.96106104707877, -0.2222940470787705, 1};
Point(p11 + 16) = {34.90903099155586, -0.2832134150125823, 1};
Point(p11 + 17) = {34.86717140108868, -0.3515220583389738, 1};
Point(p11 + 18) = {34.83651299771854, -0.4255379915558593, 1};
Point(p11 + 19) = {34.81781069308584, -0.5034386967426402, 1};
Point(p11 + 20) = {34.811525, -0.5833059999999999, 1};
Point(p11 + 21) = {34.81781069308584, -0.6631733032573597, 1};
Point(p11 + 22) = {34.83651299771854, -0.7410740084441408, 1};
Point(p11 + 23) = {34.86717140108868, -0.8150899416610259, 1};
Point(p11 + 24) = {34.90903099155586, -0.8833985849874175, 1};
Point(p11 + 25) = {34.96106104707877, -0.9443179529212294, 1};
Point(p11 + 26) = {35.02198041501259, -0.9963480084441406, 1};
Point(p11 + 27) = {35.09028905833897, -1.038207598911323, 1};
Point(p11 + 28) = {35.16430499155586, -1.068866002281458, 1};
Point(p11 + 29) = {35.24220569674264, -1.087568306914166, 1};
Point(p11 + 30) = {35.322073, -1.093854, 1};
Point(p11 + 31) = {35.40194030325736, -1.087568306914166, 1};
Point(p11 + 32) = {35.47984100844415, -1.068866002281458, 1};
Point(p11 + 33) = {35.55385694166103, -1.038207598911323, 1};
Point(p11 + 34) = {35.62216558498742, -0.9963480084441407, 1};
Point(p11 + 35) = {35.68308495292123, -0.9443179529212296, 1};
Point(p11 + 36) = {35.73511500844415, -0.8833985849874177, 1};
Point(p11 + 37) = {35.77697459891132, -0.8150899416610262, 1};
Point(p11 + 38) = {35.80763300228146, -0.7410740084441407, 1};
Point(p11 + 39) = {35.82633530691417, -0.6631733032573599, 1};
Spline(11) = {9, p11 + 1, p11 + 2, p11 + 3, p11 + 4, p11 + 5, p11 + 6, p11 + 7, p11 + 8, p11 + 9, p11 + 10, p11 + 11, p11 + 12, p11 + 13, p11 + 14, p11 + 15, p11 + 16, p11 + 17, p11 + 18, p11 + 19, p11 + 20, p11 + 21, p11 + 22, p11 + 23, p11 + 24, p11 + 25, p11 + 26, p11 + 27, p11 + 28, p11 + 29, p11 + 30, p11 + 31, p11 + 32, p11 + 33, p11 + 34, p11 + 35, p11 + 36, p11 + 37, p11 + 38, p11 + 39, 9};
Line(12) = {4, 10};
Line(13) = {10, 7};
Line(14) = {5, 10};
p15 = newp;
Point(p15 + 1) = {26.01648339356174, -0.6459952050300084, 0};
Point(p15 + 2) = {25.97059533000216, -0.4548576644354078, 0};
Point(p15 + 3) = {25.89537172573986, -0.2732518188147653, 0};
Point(p15 + 4) = {25.79266483556459, -0.1056494068025079, 0};
Point(p15 + 5) = {25.66500364397711, 0.04382264397710789, 0};
Point(p15 + 6) = {25.51553159319749, 0.1714838355645922, 0};
Point(p15 + 7) = {25.34792918118524, 0.274190725739857, 0};
Point(p15 + 8) = {25.16632333556459, 0.3494143300021617, 0};
Point(p15 + 9) = {24.97518579496999, 0.395302393561739, 0};
Point(p15 + 10) = {24.779223, 0.410725, 0};
Point(p15 + 11) = {24.58326020503001, 0.3953023935617388, 0};
Point(p15 + 12) = {24.39212266443541, 0.3494143300021619, 0};
Point(p15 + 13) = {24.21051681881477, 0.2741907257398573, 0};
Point(p15 + 14) = {24.04291440680251, 0.1714838355645922, 0};
Point(p15 + 15) = {23.8934423560229, 0.043822643977108, 0};
Point(p15 + 16) = {23.76578116443541, -0.1056494068025077, 0};
Point(p15 + 17) = {23.66307427426014, -0.2732518188147652, 0};
Point(p15 + 18) = {23.58785066999784, -0.4548576644354076, 0};
Point(p15 + 19) = {23.54196260643826, -0.6459952050300083, 0};
Point(p15 + 20) = {23.52654, -0.8419579999999999, 0};
Point(p15 + 21) = {23.54196260643826, -1.037920794969991, 0};
Point(p15 + 22) = {23.58785066999784, -1.229058335564593, 0};
Point(p15 + 23) = {23.66307427426014, -1.410664181185234, 0};
Point(p15 + 24) = {23.76578116443541, -1.578266593197492, 0};
Point(p15 + 25) = {23.8934423560229, -1.727738643977108, 0};
Point(p15 + 26) = {24.04291440680251, -1.855399835564592, 0};
Point(p15 + 27) = {24.21051681881477, -1.958106725739857, 0};
Point(p15 + 28) = {24.39212266443541, -2.033330330002162, 0};
Point(p15 + 29) = {24.58326020503001, -2.079218393561739, 0};
Point(p15 + 30) = {24.779223, -2.094641, 0};
Point(p15 + 31) = {24.97518579496999, -2.079218393561739, 0};
Point(p15 + 32) = {25.16632333556459, -2.033330330002162, 0};
Point(p15 + 33) = {25.34792918118524, -1.958106725739857, 0};
Point(p15 + 34) = {25.51553159319749, -1.855399835564592, 0};
Point(p15 + 35) = {25.66500364397711, -1.727738643977108, 0};
Point(p15 + 36) = {25.79266483556459, -1.578266593197492, 0};
Point(p15 + 37) = {25.89537172573986, -1.410664181185235, 0};
Point(p15 + 38) = {25.97059533000216, -1.229058335564593, 0};
Point(p15 + 39) = {26.01648339356174, -1.037920794969992, 0};
Spline(15) = {11, p15 + 1, p15 + 2, p15 + 3, p15 + 4, p15 + 5, p15 + 6, p15 + 7, p15 + 8, p15 + 9, p15 + 10, p15 + 11, p15 + 12, p15 + 13, p15 + 14, p15 + 15, p15 + 16, p15 + 17, p15 + 18, p15 + 19, p15 + 20, p15 + 21, p15 + 22, p15 + 23, p15 + 24, p15 + 25, p15 + 26, p15 + 27, p15 + 28, p15 + 29, p15 + 30, p15 + 31, p15 + 32, p15 + 33, p15 + 34, p15 + 35, p15 + 36, p15 + 37, p15 + 38, p15 + 39, 11};
p16 = newp;
Point(p16 + 1) = {35.82633530691417, -0.5034386967426402, 0};
Point(p16 + 2) = {35.80763300228146, -0.4255379915558594, 0};
Point(p16 + 3) = {35.77697459891132, -0.3515220583389739, 0};
Point(p16 + 4) = {35.73511500844415, -0.2832134150125824, 0};
Point(p16 + 5) = {35.68308495292123, -0.2222940470787705, 0};
Point(p16 + 6) = {35.62216558498742, -0.1702639915558593, 0};
Point(p16 + 7) = {35.55385694166103, -0.1284044010886772, 0};
Point(p16 + 8) = {35.47984100844415, -0.09774599771854192, 0};
Point(p16 + 9) = {35.40194030325736, -0.07904369308583359, 0};
Point(p16 + 10) = {35.322073, -0.07275799999999999, 0};
Point(p16 + 11) = {35.24220569674264, -0.0790436930858337, 0};
Point(p16 + 12) = {35.16430499155586, -0.09774599771854187, 0};
Point(p16 + 13) = {35.09028905833897, -0.1284044010886771, 0};
Point(p16 + 14) = {35.02198041501259, -0.1702639915558593, 0};
Point(p16 + 15) = {34.96106104707877, -0.2222940470787705, 0};
Point(p16 + 16) = {34.90903099155586, -0.2832134150125823, 0};
Point(p16 + 17) = {34.86717140108868, -0.3515220583389738, 0};
Point(p16 + 18) = {34.83651299771854, -0.4255379915558593, 0};
Point(p16 + 19) = {34.81781069308584, -0.5034386967426402, 0};
Point(p16 + 20) = {34.811525, -0.5833059999999999, 0};
Point(p16 + 21) = {34.81781069308584, -0.6631733032573597, 0};
Point(p16 + 22) = {34.83651299771854, -0.7410740084441408, 0};
Point(p16 + 23) = {34.86717140108868, -0.8150899416610259, 0};
Point(p16 + 24) = {34.90903099155586, -0.8833985849874175, 0};
Point(p16 + 25) = {34.96106104707877, -0.9443179529212294, 0};
Point(p16 + 26) = {35.02198041501259, -0.9963480084441406, 0};
Point(p16 + 27) = {35.09028905833897, -1.038207598911323, 0};
Point(p16 + 28) = {35.16430499155586, -1.068866002281458, 0};
Point(p16 + 29) = {35.24220569674264, -1.087568306914166, 0};
Point(p16 + 30) = {35.322073, -1.093854, 0};
Point(p16 + 31) = {35.40194030325736, -1.087568306914166, 0};
Point(p16 + 32) = {35.47984100844415, -1.068866002281458, 0};
Point(p16 + 33) = {35.55385694166103, -1.038207598911323, 0};
Point(p16 + 34) = {35.62216558498742, -0.9963480084441407, 0};
Point(p16 + 35) = {35.68308495292123, -0.9443179529212296, 0};
Point(p16 + 36) = {35.73511500844415, -0.8833985849874177, 0};
Point(p16 + 37) = {35.77697459891132, -0.8150899416610262, 0};
Point(p16 + 38) = {35.80763300228146, -0.7410740084441407, 0};
Point(p16 + 39) = {35.82633530691417, -0.6631733032573599, 0};
Spline(16) = {12, p16 + 1, p16 + 2, p16 + 3, p16 + 4, p16 + 5, p16 + 6, p16 + 7, p16 + 8, p16 + 9, p16 + 10, p16 + 11, p16 + 12, p16 + 13, p16 + 14, p16 + 15, p16 + 16, p16 + 17, p16 + 18, p16 + 19, p16 + 20, p16 + 21, p16 + 22, p16 + 23, p16 + 24, p16 + 25, p16 + 26, p16 + 27, p16 + 28, p16 + 29, p16 + 30, p16 + 31, p16 + 32, p16 + 33, p16 + 34, p16 + 35, p16 + 36, p16 + 37, p16 + 38, p16 + 39, 12};
Line(17) = {11, 8};
Line(18) = {12, 9};
Curve Loop(1) = {-1, 4, 3, -2};
Plane Surface(1) = {1};
Curve Loop(2) = {-5, 1, 7, -6};
Plane Surface(2) = {2};
Curve Loop(3) = {-2, 7, 9, -8, -10, -11};
Plane Surface(3) = {3};
Curve Loop(4) = {-12, 3, 8, -13};
Plane Surface(4) = {4};
Curve Loop(5) = {-4, 5, 14, -12, -15, -16};
Plane Surface(5) = {5};
Curve Loop(6) = {-6, 14, 13, -9};
Plane Surface(6) = {6};
Curve Loop(7) = {-10, -17, 15, 17};
Surface(7) = {7};
Curve Loop(8) = {-11, -18, 16, 18};
Surface(8) = {8};
Surface Loop(1) = {1, 2, 3, 4, 5, 6, 7, 8};
Volume(1) = {1};
Physical Surface("INFLOW") = {1};
Physical Surface("OUTFLOW") = {6};
Physical Surface("OBSTACLE") = {7, 8};
Physical Surface("WALL_Y") = {2, 4};
Physical Surface("WALL_Z") = {3, 5};
Physical Volume("FLUID") = {1};
