cl__1 = 1;
cl__2 = 0.063254;
cl__3 = 0.05142;
Point(1) = {0.05162, -3.540031, 1, cl__1};
Point(2) = {0.05162, -3.540031, 0, cl__1};
Point(3) = {0.05162, 5.520762, 1, cl__1};
Point(4) = {0.05162, 5.520762, 0, cl__1};
Point(5) = {38.088958, -3.540031, 0, cl__1};
Point(6) = {38.088958, -3.540031, 1, cl__1};
Point(7) = {38.088958, 5.520762, 1, cl__1};
Point(8) = {33.063201, -2.012866, 1, cl__2};
Point(9) = {11.216131, 3.242481, 1, cl__3};
Point(10) = {38.088958, 5.520762, 0, cl__1};
Point(11) = {33.063201, -2.012866, 0, cl__2};
Point(12) = {11.216131, 3.242481, 0, cl__3};
Line(1) = {2, 1};
Line(2) = {1, 3};
Line(3) = {4, 3};
Line(4) = {2, 4};
Line(5) = {2, 5};
Line(6) = {5, 6};
Line(7) = {1, 6};
Line(8) = {3, 7};
Line(9) = {6, 7};
p10 = newp;
Point(p10 + 1) = {33.05541339527171, -1.913915099917917, 1};
Point(p10 + 2) = {33.03224233776082, -1.817400699395065, 1};
Point(p10 + 3) = {32.99425837580358, -1.725699303285247, 1};
Point(p10 + 4) = {32.94239680060493, -1.641068904300171, 1};
Point(p10 + 5) = {32.87793461626496, -1.565593383735042, 1};
Point(p10 + 6) = {32.80245909569982, -1.501131199395065, 1};
Point(p10 + 7) = {32.71782869671475, -1.449269624196414, 1};
Point(p10 + 8) = {32.62612730060494, -1.41128566223918, 1};
Point(p10 + 9) = {32.52961290008208, -1.388114604728292, 1};
Point(p10 + 10) = {32.430662, -1.380327, 1};
Point(p10 + 11) = {32.33171109991792, -1.388114604728292, 1};
Point(p10 + 12) = {32.23519669939506, -1.41128566223918, 1};
Point(p10 + 13) = {32.14349530328524, -1.449269624196414, 1};
Point(p10 + 14) = {32.05886490430017, -1.501131199395065, 1};
Point(p10 + 15) = {31.98338938373504, -1.565593383735042, 1};
Point(p10 + 16) = {31.91892719939506, -1.641068904300171, 1};
Point(p10 + 17) = {31.86706562419641, -1.725699303285247, 1};
Point(p10 + 18) = {31.82908166223918, -1.817400699395065, 1};
Point(p10 + 19) = {31.80591060472829, -1.913915099917917, 1};
Point(p10 + 20) = {31.798123, -2.012866, 1};
Point(p10 + 21) = {31.80591060472829, -2.111816900082082, 1};
Point(p10 + 22) = {31.82908166223918, -2.208331300604935, 1};
Point(p10 + 23) = {31.86706562419641, -2.300032696714752, 1};
Point(p10 + 24) = {31.91892719939506, -2.384663095699828, 1};
Point(p10 + 25) = {31.98338938373504, -2.460138616264957, 1};
Point(p10 + 26) = {32.05886490430017, -2.524600800604935, 1};
Point(p10 + 27) = {32.14349530328524, -2.576462375803586, 1};
Point(p10 + 28) = {32.23519669939506, -2.61444633776082, 1};
Point(p10 + 29) = {32.33171109991792, -2.637617395271707, 1};
Point(p10 + 30) = {32.430662, -2.645405, 1};
Point(p10 + 31) = {32.52961290008208, -2.637617395271707, 1};
Point(p10 + 32) = {32.62612730060494, -2.61444633776082, 1};
Point(p10 + 33) = {32.71782869671475, -2.576462375803586, 1};
Point(p10 + 34) = {32.80245909569982, -2.524600800604935, 1};
Point(p10 + 35) = {32.87793461626496, -2.460138616264957, 1};
Point(p10 + 36) = {32.94239680060493, -2.384663095699829, 1};
Point(p10 + 37) = {32.99425837580358, -2.300032696714753, 1};
Point(p10 + 38) = {33.03224233776082, -2.208331300604935, 1};
Point(p10 + 39) = {33.05541339527171, -2.111816900082082, 1};
Spline(10) = {8, p10 + 1, p10 + 2, p10 + 3, p10 + 4, p10 + 5, p10 + 6, p10 + 7, p10 + 8, p10 + 9, p10 + 10, p10 + 11, p10 + 12, p10 + 13, p10 + 14, p10 + 15, p10 + 16, p10 + 17, p10 + 18, p10 + 19, p10 + 20, p10 + 21, p10 + 22, p10 + 23, p10 + 24, p10 + 25, p10 + 26, p10 + 27, p10 + 28, p10 + 29, p10 + 30, p10 + 31, p10 + 32, p10 + 33, p10 + 34, p10 + 35, p10 + 36, p10 + 37, p10 + 38, p10 + 39, 8};
p11 = newp;
Point(p11 + 1) = {11.20980030779904, 3.322920071227082, 1};
Point(p11 + 2) = {11.19096411384852, 3.401378465558581, 1};
Point(p11 + 3) = {11.16008622775723, 3.475924276937574, 1};
Point(p11 + 4) = {11.11792696555858, 3.544721940084547, 1};
Point(p11 + 5) = {11.06552442820647, 3.606077428206466, 1};
Point(p11 + 6) = {11.00416894008455, 3.658479965558581, 1};
Point(p11 + 7) = {10.93537127693758, 3.700639227757232, 1};
Point(p11 + 8) = {10.86082546555858, 3.731517113848517, 1};
Point(p11 + 9) = {10.78236707122708, 3.750353307799042, 1};
Point(p11 + 10) = {10.701928, 3.756684, 1};
Point(p11 + 11) = {10.62148892877292, 3.750353307799042, 1};
Point(p11 + 12) = {10.54303053444142, 3.731517113848517, 1};
Point(p11 + 13) = {10.46848472306243, 3.700639227757232, 1};
Point(p11 + 14) = {10.39968705991545, 3.658479965558581, 1};
Point(p11 + 15) = {10.33833157179353, 3.606077428206467, 1};
Point(p11 + 16) = {10.28592903444142, 3.544721940084547, 1};
Point(p11 + 17) = {10.24376977224277, 3.475924276937574, 1};
Point(p11 + 18) = {10.21289188615148, 3.401378465558581, 1};
Point(p11 + 19) = {10.19405569220096, 3.322920071227082, 1};
Point(p11 + 20) = {10.187725, 3.242481, 1};
Point(p11 + 21) = {10.19405569220096, 3.162041928772918, 1};
Point(p11 + 22) = {10.21289188615148, 3.083583534441419, 1};
Point(p11 + 23) = {10.24376977224277, 3.009037723062426, 1};
Point(p11 + 24) = {10.28592903444142, 2.940240059915454, 1};
Point(p11 + 25) = {10.33833157179353, 2.878884571793534, 1};
Point(p11 + 26) = {10.39968705991545, 2.826482034441419, 1};
Point(p11 + 27) = {10.46848472306243, 2.784322772242769, 1};
Point(p11 + 28) = {10.54303053444142, 2.753444886151483, 1};
Point(p11 + 29) = {10.62148892877292, 2.734608692200958, 1};
Point(p11 + 30) = {10.701928, 2.728278, 1};
Point(p11 + 31) = {10.78236707122708, 2.734608692200958, 1};
Point(p11 + 32) = {10.86082546555858, 2.753444886151483, 1};
Point(p11 + 33) = {10.93537127693758, 2.784322772242769, 1};
Point(p11 + 34) = {11.00416894008455, 2.826482034441419, 1};
Point(p11 + 35) = {11.06552442820647, 2.878884571793534, 1};
Point(p11 + 36) = {11.11792696555858, 2.940240059915454, 1};
Point(p11 + 37) = {11.16008622775723, 3.009037723062426, 1};
Point(p11 + 38) = {11.19096411384852, 3.083583534441419, 1};
Point(p11 + 39) = {11.20980030779904, 3.162041928772918, 1};
Spline(11) = {9, p11 + 1, p11 + 2, p11 + 3, p11 + 4, p11 + 5, p11 + 6, p11 + 7, p11 + 8, p11 + 9, p11 + 10, p11 + 11, p11 + 12, p11 + 13, p11 + 14, p11 + 15, p11 + 16, p11 + 17, p11 + 18, p11 + 19, p11 + 20, p11 + 21, p11 + 22, p11 + 23, p11 + 24, p11 + 25, p11 + 26, p11 + 27, p11 + 28, p11 + 29, p11 + 30, p11 + 31, p11 + 32, p11 + 33, p11 + 34, p11 + 35, p11 + 36, p11 + 37, p11 + 38, p11 + 39, 9};
Line(12) = {4, 10};
Line(13) = {10, 7};
Line(14) = {5, 10};
p15 = newp;
Point(p15 + 1) = {33.05541339527171, -1.913915099917917, 0};
Point(p15 + 2) = {33.03224233776082, -1.817400699395065, 0};
Point(p15 + 3) = {32.99425837580358, -1.725699303285247, 0};
Point(p15 + 4) = {32.94239680060493, -1.641068904300171, 0};
Point(p15 + 5) = {32.87793461626496, -1.565593383735042, 0};
Point(p15 + 6) = {32.80245909569982, -1.501131199395065, 0};
Point(p15 + 7) = {32.71782869671475, -1.449269624196414, 0};
Point(p15 + 8) = {32.62612730060494, -1.41128566223918, 0};
Point(p15 + 9) = {32.52961290008208, -1.388114604728292, 0};
Point(p15 + 10) = {32.430662, -1.380327, 0};
Point(p15 + 11) = {32.33171109991792, -1.388114604728292, 0};
Point(p15 + 12) = {32.23519669939506, -1.41128566223918, 0};
Point(p15 + 13) = {32.14349530328524, -1.449269624196414, 0};
Point(p15 + 14) = {32.05886490430017, -1.501131199395065, 0};
Point(p15 + 15) = {31.98338938373504, -1.565593383735042, 0};
Point(p15 + 16) = {31.91892719939506, -1.641068904300171, 0};
Point(p15 + 17) = {31.86706562419641, -1.725699303285247, 0};
Point(p15 + 18) = {31.82908166223918, -1.817400699395065, 0};
Point(p15 + 19) = {31.80591060472829, -1.913915099917917, 0};
Point(p15 + 20) = {31.798123, -2.012866, 0};
Point(p15 + 21) = {31.80591060472829, -2.111816900082082, 0};
Point(p15 + 22) = {31.82908166223918, -2.208331300604935, 0};
Point(p15 + 23) = {31.86706562419641, -2.300032696714752, 0};
Point(p15 + 24) = {31.91892719939506, -2.384663095699828, 0};
Point(p15 + 25) = {31.98338938373504, -2.460138616264957, 0};
Point(p15 + 26) = {32.05886490430017, -2.524600800604935, 0};
Point(p15 + 27) = {32.14349530328524, -2.576462375803586, 0};
Point(p15 + 28) = {32.23519669939506, -2.61444633776082, 0};
Point(p15 + 29) = {32.33171109991792, -2.637617395271707, 0};
Point(p15 + 30) = {32.430662, -2.645405, 0};
Point(p15 + 31) = {32.52961290008208, -2.637617395271707, 0};
Point(p15 + 32) = {32.62612730060494, -2.61444633776082, 0};
Point(p15 + 33) = {32.71782869671475, -2.576462375803586, 0};
Point(p15 + 34) = {32.80245909569982, -2.524600800604935, 0};
Point(p15 + 35) = {32.87793461626496, -2.460138616264957, 0};
Point(p15 + 36) = {32.94239680060493, -2.384663095699829, 0};
Point(p15 + 37) = {32.99425837580358, -2.300032696714753, 0};
Point(p15 + 38) = {33.03224233776082, -2.208331300604935, 0};
Point(p15 + 39) = {33.05541339527171, -2.111816900082082, 0};
Spline(15) = {11, p15 + 1, p15 + 2, p15 + 3, p15 + 4, p15 + 5, p15 + 6, p15 + 7, p15 + 8, p15 + 9, p15 + 10, p15 + 11, p15 + 12, p15 + 13, p15 + 14, p15 + 15, p15 + 16, p15 + 17, p15 + 18, p15 + 19, p15 + 20, p15 + 21, p15 + 22, p15 + 23, p15 + 24, p15 + 25, p15 + 26, p15 + 27, p15 + 28, p15 + 29, p15 + 30, p15 + 31, p15 + 32, p15 + 33, p15 + 34, p15 + 35, p15 + 36, p15 + 37, p15 + 38, p15 + 39, 11};
p16 = newp;
Point(p16 + 1) = {11.20980030779904, 3.322920071227082, 0};
Point(p16 + 2) = {11.19096411384852, 3.401378465558581, 0};
Point(p16 + 3) = {11.16008622775723, 3.475924276937574, 0};
Point(p16 + 4) = {11.11792696555858, 3.544721940084547, 0};
Point(p16 + 5) = {11.06552442820647, 3.606077428206466, 0};
Point(p16 + 6) = {11.00416894008455, 3.658479965558581, 0};
Point(p16 + 7) = {10.93537127693758, 3.700639227757232, 0};
Point(p16 + 8) = {10.86082546555858, 3.731517113848517, 0};
Point(p16 + 9) = {10.78236707122708, 3.750353307799042, 0};
Point(p16 + 10) = {10.701928, 3.756684, 0};
Point(p16 + 11) = {10.62148892877292, 3.750353307799042, 0};
Point(p16 + 12) = {10.54303053444142, 3.731517113848517, 0};
Point(p16 + 13) = {10.46848472306243, 3.700639227757232, 0};
Point(p16 + 14) = {10.39968705991545, 3.658479965558581, 0};
Point(p16 + 15) = {10.33833157179353, 3.606077428206467, 0};
Point(p16 + 16) = {10.28592903444142, 3.544721940084547, 0};
Point(p16 + 17) = {10.24376977224277, 3.475924276937574, 0};
Point(p16 + 18) = {10.21289188615148, 3.401378465558581, 0};
Point(p16 + 19) = {10.19405569220096, 3.322920071227082, 0};
Point(p16 + 20) = {10.187725, 3.242481, 0};
Point(p16 + 21) = {10.19405569220096, 3.162041928772918, 0};
Point(p16 + 22) = {10.21289188615148, 3.083583534441419, 0};
Point(p16 + 23) = {10.24376977224277, 3.009037723062426, 0};
Point(p16 + 24) = {10.28592903444142, 2.940240059915454, 0};
Point(p16 + 25) = {10.33833157179353, 2.878884571793534, 0};
Point(p16 + 26) = {10.39968705991545, 2.826482034441419, 0};
Point(p16 + 27) = {10.46848472306243, 2.784322772242769, 0};
Point(p16 + 28) = {10.54303053444142, 2.753444886151483, 0};
Point(p16 + 29) = {10.62148892877292, 2.734608692200958, 0};
Point(p16 + 30) = {10.701928, 2.728278, 0};
Point(p16 + 31) = {10.78236707122708, 2.734608692200958, 0};
Point(p16 + 32) = {10.86082546555858, 2.753444886151483, 0};
Point(p16 + 33) = {10.93537127693758, 2.784322772242769, 0};
Point(p16 + 34) = {11.00416894008455, 2.826482034441419, 0};
Point(p16 + 35) = {11.06552442820647, 2.878884571793534, 0};
Point(p16 + 36) = {11.11792696555858, 2.940240059915454, 0};
Point(p16 + 37) = {11.16008622775723, 3.009037723062426, 0};
Point(p16 + 38) = {11.19096411384852, 3.083583534441419, 0};
Point(p16 + 39) = {11.20980030779904, 3.162041928772918, 0};
Spline(16) = {12, p16 + 1, p16 + 2, p16 + 3, p16 + 4, p16 + 5, p16 + 6, p16 + 7, p16 + 8, p16 + 9, p16 + 10, p16 + 11, p16 + 12, p16 + 13, p16 + 14, p16 + 15, p16 + 16, p16 + 17, p16 + 18, p16 + 19, p16 + 20, p16 + 21, p16 + 22, p16 + 23, p16 + 24, p16 + 25, p16 + 26, p16 + 27, p16 + 28, p16 + 29, p16 + 30, p16 + 31, p16 + 32, p16 + 33, p16 + 34, p16 + 35, p16 + 36, p16 + 37, p16 + 38, p16 + 39, 12};
Line(17) = {11, 8};
Line(18) = {12, 9};
Curve Loop(1) = {-1, 4, 3, -2};
Plane Surface(1) = {1};
Curve Loop(2) = {-5, 1, 7, -6};
Plane Surface(2) = {2};
Curve Loop(3) = {-2, 7, 9, -8, -10, -11};
Plane Surface(3) = {3};
Curve Loop(4) = {-12, 3, 8, -13};
Plane Surface(4) = {4};
Curve Loop(5) = {-4, 5, 14, -12, -15, -16};
Plane Surface(5) = {5};
Curve Loop(6) = {-6, 14, 13, -9};
Plane Surface(6) = {6};
Curve Loop(7) = {-10, -17, 15, 17};
Surface(7) = {7};
Curve Loop(8) = {-11, -18, 16, 18};
Surface(8) = {8};
Surface Loop(1) = {1, 2, 3, 4, 5, 6, 7, 8};
Volume(1) = {1};
Physical Surface("INFLOW") = {1};
Physical Surface("OUTFLOW") = {6};
Physical Surface("OBSTACLE") = {7, 8};
Physical Surface("WALL_Y") = {2, 4};
Physical Surface("WALL_Z") = {3, 5};
Physical Volume("FLUID") = {1};
