cl__1 = 1;
cl__2 = 0.07033399999999999;
cl__3 = 0.069048;
Point(1) = {0.914741, -3.884222, 1, cl__1};
Point(2) = {0.914741, -3.884222, 0, cl__1};
Point(3) = {0.914741, 5.008995000000001, 1, cl__1};
Point(4) = {0.914741, 5.008995000000001, 0, cl__1};
Point(5) = {39.677862, -3.884222, 0, cl__1};
Point(6) = {39.677862, -3.884222, 1, cl__1};
Point(7) = {39.677862, 5.008995000000001, 1, cl__1};
Point(8) = {6.023851000000001, -2.286815, 1, cl__2};
Point(9) = {4.359256, 1.997281, 1, cl__3};
Point(10) = {39.677862, 5.008995000000001, 0, cl__1};
Point(11) = {6.023851000000001, -2.286815, 0, cl__2};
Point(12) = {4.359256, 1.997281, 0, cl__3};
Line(1) = {2, 1};
Line(2) = {1, 3};
Line(3) = {4, 3};
Line(4) = {2, 4};
Line(5) = {2, 5};
Line(6) = {5, 6};
Line(7) = {1, 6};
Line(8) = {3, 7};
Line(9) = {6, 7};
p10 = newp;
Point(p10 + 1) = {6.015191754409162, -2.176788852661999, 1};
Point(p10 + 2) = {5.989427237001484, -2.069471914227307, 1};
Point(p10 + 3) = {5.947191855703075, -1.967506683884686, 1};
Point(p10 + 4) = {5.889525585772692, -1.873403884008369, 1};
Point(p10 + 5) = {5.817848362159403, -1.789480637840597, 1};
Point(p10 + 6) = {5.733925115991632, -1.717803414227308, 1};
Point(p10 + 7) = {5.639822316115314, -1.660137144296926, 1};
Point(p10 + 8) = {5.537857085772693, -1.617901762998515, 1};
Point(p10 + 9) = {5.430540147338001, -1.592137245590838, 1};
Point(p10 + 10) = {5.320514, -1.583478, 1};
Point(p10 + 11) = {5.210487852661999, -1.592137245590838, 1};
Point(p10 + 12) = {5.103170914227308, -1.617901762998515, 1};
Point(p10 + 13) = {5.001205683884686, -1.660137144296926, 1};
Point(p10 + 14) = {4.907102884008369, -1.717803414227308, 1};
Point(p10 + 15) = {4.823179637840598, -1.789480637840597, 1};
Point(p10 + 16) = {4.751502414227308, -1.873403884008368, 1};
Point(p10 + 17) = {4.693836144296927, -1.967506683884686, 1};
Point(p10 + 18) = {4.651600762998516, -2.069471914227307, 1};
Point(p10 + 19) = {4.625836245590838, -2.176788852661999, 1};
Point(p10 + 20) = {4.617177, -2.286815, 1};
Point(p10 + 21) = {4.625836245590838, -2.396841147338001, 1};
Point(p10 + 22) = {4.651600762998516, -2.504158085772692, 1};
Point(p10 + 23) = {4.693836144296926, -2.606123316115313, 1};
Point(p10 + 24) = {4.751502414227308, -2.700226115991631, 1};
Point(p10 + 25) = {4.823179637840598, -2.784149362159403, 1};
Point(p10 + 26) = {4.907102884008369, -2.855826585772692, 1};
Point(p10 + 27) = {5.001205683884686, -2.913492855703074, 1};
Point(p10 + 28) = {5.103170914227308, -2.955728237001484, 1};
Point(p10 + 29) = {5.210487852661999, -2.981492754409162, 1};
Point(p10 + 30) = {5.320514, -2.990152, 1};
Point(p10 + 31) = {5.430540147338001, -2.981492754409162, 1};
Point(p10 + 32) = {5.537857085772693, -2.955728237001484, 1};
Point(p10 + 33) = {5.639822316115314, -2.913492855703074, 1};
Point(p10 + 34) = {5.733925115991632, -2.855826585772692, 1};
Point(p10 + 35) = {5.817848362159403, -2.784149362159403, 1};
Point(p10 + 36) = {5.889525585772692, -2.700226115991631, 1};
Point(p10 + 37) = {5.947191855703074, -2.606123316115314, 1};
Point(p10 + 38) = {5.989427237001484, -2.504158085772692, 1};
Point(p10 + 39) = {6.015191754409162, -2.396841147338001, 1};
Spline(10) = {8, p10 + 1, p10 + 2, p10 + 3, p10 + 4, p10 + 5, p10 + 6, p10 + 7, p10 + 8, p10 + 9, p10 + 10, p10 + 11, p10 + 12, p10 + 13, p10 + 14, p10 + 15, p10 + 16, p10 + 17, p10 + 18, p10 + 19, p10 + 20, p10 + 21, p10 + 22, p10 + 23, p10 + 24, p10 + 25, p10 + 26, p10 + 27, p10 + 28, p10 + 29, p10 + 30, p10 + 31, p10 + 32, p10 + 33, p10 + 34, p10 + 35, p10 + 36, p10 + 37, p10 + 38, p10 + 39, 8};
p11 = newp;
Point(p11 + 1) = {4.350755020790812, 2.105296182289909, 1};
Point(p11 + 2) = {4.325461405484511, 2.210651672310003, 1};
Point(p11 + 3) = {4.283997966834633, 2.310753268241162, 1};
Point(p11 + 4) = {4.227385672310002, 2.403136136573412, 1};
Point(p11 + 5) = {4.15701850448725, 2.48552550448725, 1};
Point(p11 + 6) = {4.074629136573411, 2.555892672310002, 1};
Point(p11 + 7) = {3.982246268241162, 2.612504966834633, 1};
Point(p11 + 8) = {3.882144672310003, 2.65396840548451, 1};
Point(p11 + 9) = {3.776789182289909, 2.679262020790812, 1};
Point(p11 + 10) = {3.668774, 2.687763, 1};
Point(p11 + 11) = {3.560758817710091, 2.679262020790812, 1};
Point(p11 + 12) = {3.455403327689997, 2.65396840548451, 1};
Point(p11 + 13) = {3.355301731758838, 2.612504966834633, 1};
Point(p11 + 14) = {3.262918863426588, 2.555892672310002, 1};
Point(p11 + 15) = {3.18052949551275, 2.48552550448725, 1};
Point(p11 + 16) = {3.110162327689998, 2.403136136573412, 1};
Point(p11 + 17) = {3.053550033165367, 2.310753268241162, 1};
Point(p11 + 18) = {3.01208659451549, 2.210651672310003, 1};
Point(p11 + 19) = {2.986792979209188, 2.105296182289909, 1};
Point(p11 + 20) = {2.978292, 1.997281, 1};
Point(p11 + 21) = {2.986792979209188, 1.889265817710091, 1};
Point(p11 + 22) = {3.01208659451549, 1.783910327689997, 1};
Point(p11 + 23) = {3.053550033165367, 1.683808731758839, 1};
Point(p11 + 24) = {3.110162327689998, 1.591425863426589, 1};
Point(p11 + 25) = {3.18052949551275, 1.50903649551275, 1};
Point(p11 + 26) = {3.262918863426588, 1.438669327689998, 1};
Point(p11 + 27) = {3.355301731758838, 1.382057033165367, 1};
Point(p11 + 28) = {3.455403327689997, 1.34059359451549, 1};
Point(p11 + 29) = {3.560758817710091, 1.315299979209188, 1};
Point(p11 + 30) = {3.668774, 1.306799, 1};
Point(p11 + 31) = {3.776789182289908, 1.315299979209188, 1};
Point(p11 + 32) = {3.882144672310002, 1.34059359451549, 1};
Point(p11 + 33) = {3.982246268241162, 1.382057033165367, 1};
Point(p11 + 34) = {4.074629136573411, 1.438669327689998, 1};
Point(p11 + 35) = {4.157018504487249, 1.50903649551275, 1};
Point(p11 + 36) = {4.227385672310002, 1.591425863426589, 1};
Point(p11 + 37) = {4.283997966834633, 1.683808731758838, 1};
Point(p11 + 38) = {4.325461405484511, 1.783910327689997, 1};
Point(p11 + 39) = {4.350755020790812, 1.889265817710091, 1};
Spline(11) = {9, p11 + 1, p11 + 2, p11 + 3, p11 + 4, p11 + 5, p11 + 6, p11 + 7, p11 + 8, p11 + 9, p11 + 10, p11 + 11, p11 + 12, p11 + 13, p11 + 14, p11 + 15, p11 + 16, p11 + 17, p11 + 18, p11 + 19, p11 + 20, p11 + 21, p11 + 22, p11 + 23, p11 + 24, p11 + 25, p11 + 26, p11 + 27, p11 + 28, p11 + 29, p11 + 30, p11 + 31, p11 + 32, p11 + 33, p11 + 34, p11 + 35, p11 + 36, p11 + 37, p11 + 38, p11 + 39, 9};
Line(12) = {4, 10};
Line(13) = {10, 7};
Line(14) = {5, 10};
p15 = newp;
Point(p15 + 1) = {6.015191754409162, -2.176788852661999, 0};
Point(p15 + 2) = {5.989427237001484, -2.069471914227307, 0};
Point(p15 + 3) = {5.947191855703075, -1.967506683884686, 0};
Point(p15 + 4) = {5.889525585772692, -1.873403884008369, 0};
Point(p15 + 5) = {5.817848362159403, -1.789480637840597, 0};
Point(p15 + 6) = {5.733925115991632, -1.717803414227308, 0};
Point(p15 + 7) = {5.639822316115314, -1.660137144296926, 0};
Point(p15 + 8) = {5.537857085772693, -1.617901762998515, 0};
Point(p15 + 9) = {5.430540147338001, -1.592137245590838, 0};
Point(p15 + 10) = {5.320514, -1.583478, 0};
Point(p15 + 11) = {5.210487852661999, -1.592137245590838, 0};
Point(p15 + 12) = {5.103170914227308, -1.617901762998515, 0};
Point(p15 + 13) = {5.001205683884686, -1.660137144296926, 0};
Point(p15 + 14) = {4.907102884008369, -1.717803414227308, 0};
Point(p15 + 15) = {4.823179637840598, -1.789480637840597, 0};
Point(p15 + 16) = {4.751502414227308, -1.873403884008368, 0};
Point(p15 + 17) = {4.693836144296927, -1.967506683884686, 0};
Point(p15 + 18) = {4.651600762998516, -2.069471914227307, 0};
Point(p15 + 19) = {4.625836245590838, -2.176788852661999, 0};
Point(p15 + 20) = {4.617177, -2.286815, 0};
Point(p15 + 21) = {4.625836245590838, -2.396841147338001, 0};
Point(p15 + 22) = {4.651600762998516, -2.504158085772692, 0};
Point(p15 + 23) = {4.693836144296926, -2.606123316115313, 0};
Point(p15 + 24) = {4.751502414227308, -2.700226115991631, 0};
Point(p15 + 25) = {4.823179637840598, -2.784149362159403, 0};
Point(p15 + 26) = {4.907102884008369, -2.855826585772692, 0};
Point(p15 + 27) = {5.001205683884686, -2.913492855703074, 0};
Point(p15 + 28) = {5.103170914227308, -2.955728237001484, 0};
Point(p15 + 29) = {5.210487852661999, -2.981492754409162, 0};
Point(p15 + 30) = {5.320514, -2.990152, 0};
Point(p15 + 31) = {5.430540147338001, -2.981492754409162, 0};
Point(p15 + 32) = {5.537857085772693, -2.955728237001484, 0};
Point(p15 + 33) = {5.639822316115314, -2.913492855703074, 0};
Point(p15 + 34) = {5.733925115991632, -2.855826585772692, 0};
Point(p15 + 35) = {5.817848362159403, -2.784149362159403, 0};
Point(p15 + 36) = {5.889525585772692, -2.700226115991631, 0};
Point(p15 + 37) = {5.947191855703074, -2.606123316115314, 0};
Point(p15 + 38) = {5.989427237001484, -2.504158085772692, 0};
Point(p15 + 39) = {6.015191754409162, -2.396841147338001, 0};
Spline(15) = {11, p15 + 1, p15 + 2, p15 + 3, p15 + 4, p15 + 5, p15 + 6, p15 + 7, p15 + 8, p15 + 9, p15 + 10, p15 + 11, p15 + 12, p15 + 13, p15 + 14, p15 + 15, p15 + 16, p15 + 17, p15 + 18, p15 + 19, p15 + 20, p15 + 21, p15 + 22, p15 + 23, p15 + 24, p15 + 25, p15 + 26, p15 + 27, p15 + 28, p15 + 29, p15 + 30, p15 + 31, p15 + 32, p15 + 33, p15 + 34, p15 + 35, p15 + 36, p15 + 37, p15 + 38, p15 + 39, 11};
p16 = newp;
Point(p16 + 1) = {4.350755020790812, 2.105296182289909, 0};
Point(p16 + 2) = {4.325461405484511, 2.210651672310003, 0};
Point(p16 + 3) = {4.283997966834633, 2.310753268241162, 0};
Point(p16 + 4) = {4.227385672310002, 2.403136136573412, 0};
Point(p16 + 5) = {4.15701850448725, 2.48552550448725, 0};
Point(p16 + 6) = {4.074629136573411, 2.555892672310002, 0};
Point(p16 + 7) = {3.982246268241162, 2.612504966834633, 0};
Point(p16 + 8) = {3.882144672310003, 2.65396840548451, 0};
Point(p16 + 9) = {3.776789182289909, 2.679262020790812, 0};
Point(p16 + 10) = {3.668774, 2.687763, 0};
Point(p16 + 11) = {3.560758817710091, 2.679262020790812, 0};
Point(p16 + 12) = {3.455403327689997, 2.65396840548451, 0};
Point(p16 + 13) = {3.355301731758838, 2.612504966834633, 0};
Point(p16 + 14) = {3.262918863426588, 2.555892672310002, 0};
Point(p16 + 15) = {3.18052949551275, 2.48552550448725, 0};
Point(p16 + 16) = {3.110162327689998, 2.403136136573412, 0};
Point(p16 + 17) = {3.053550033165367, 2.310753268241162, 0};
Point(p16 + 18) = {3.01208659451549, 2.210651672310003, 0};
Point(p16 + 19) = {2.986792979209188, 2.105296182289909, 0};
Point(p16 + 20) = {2.978292, 1.997281, 0};
Point(p16 + 21) = {2.986792979209188, 1.889265817710091, 0};
Point(p16 + 22) = {3.01208659451549, 1.783910327689997, 0};
Point(p16 + 23) = {3.053550033165367, 1.683808731758839, 0};
Point(p16 + 24) = {3.110162327689998, 1.591425863426589, 0};
Point(p16 + 25) = {3.18052949551275, 1.50903649551275, 0};
Point(p16 + 26) = {3.262918863426588, 1.438669327689998, 0};
Point(p16 + 27) = {3.355301731758838, 1.382057033165367, 0};
Point(p16 + 28) = {3.455403327689997, 1.34059359451549, 0};
Point(p16 + 29) = {3.560758817710091, 1.315299979209188, 0};
Point(p16 + 30) = {3.668774, 1.306799, 0};
Point(p16 + 31) = {3.776789182289908, 1.315299979209188, 0};
Point(p16 + 32) = {3.882144672310002, 1.34059359451549, 0};
Point(p16 + 33) = {3.982246268241162, 1.382057033165367, 0};
Point(p16 + 34) = {4.074629136573411, 1.438669327689998, 0};
Point(p16 + 35) = {4.157018504487249, 1.50903649551275, 0};
Point(p16 + 36) = {4.227385672310002, 1.591425863426589, 0};
Point(p16 + 37) = {4.283997966834633, 1.683808731758838, 0};
Point(p16 + 38) = {4.325461405484511, 1.783910327689997, 0};
Point(p16 + 39) = {4.350755020790812, 1.889265817710091, 0};
Spline(16) = {12, p16 + 1, p16 + 2, p16 + 3, p16 + 4, p16 + 5, p16 + 6, p16 + 7, p16 + 8, p16 + 9, p16 + 10, p16 + 11, p16 + 12, p16 + 13, p16 + 14, p16 + 15, p16 + 16, p16 + 17, p16 + 18, p16 + 19, p16 + 20, p16 + 21, p16 + 22, p16 + 23, p16 + 24, p16 + 25, p16 + 26, p16 + 27, p16 + 28, p16 + 29, p16 + 30, p16 + 31, p16 + 32, p16 + 33, p16 + 34, p16 + 35, p16 + 36, p16 + 37, p16 + 38, p16 + 39, 12};
Line(17) = {11, 8};
Line(18) = {12, 9};
Curve Loop(1) = {-1, 4, 3, -2};
Plane Surface(1) = {1};
Curve Loop(2) = {-5, 1, 7, -6};
Plane Surface(2) = {2};
Curve Loop(3) = {-2, 7, 9, -8, -10, -11};
Plane Surface(3) = {3};
Curve Loop(4) = {-12, 3, 8, -13};
Plane Surface(4) = {4};
Curve Loop(5) = {-4, 5, 14, -12, -15, -16};
Plane Surface(5) = {5};
Curve Loop(6) = {-6, 14, 13, -9};
Plane Surface(6) = {6};
Curve Loop(7) = {-10, -17, 15, 17};
Surface(7) = {7};
Curve Loop(8) = {-11, -18, 16, 18};
Surface(8) = {8};
Surface Loop(1) = {1, 2, 3, 4, 5, 6, 7, 8};
Volume(1) = {1};
Physical Surface("INFLOW") = {1};
Physical Surface("OUTFLOW") = {6};
Physical Surface("OBSTACLE") = {7, 8};
Physical Surface("WALL_Y") = {2, 4};
Physical Surface("WALL_Z") = {3, 5};
Physical Volume("FLUID") = {1};
