cl__1 = 1.269377;
cl__2 = 1.116353;
cl__3 = 3.359903;
cl__4 = 0.133192;
Point(1) = {0.379104, -4.489877, 1, cl__1};
Point(2) = {0.379104, -4.489877, 0, cl__1};
Point(3) = {0.379104, 4.913197, 1, cl__2};
Point(4) = {0.379104, 4.913197, 0, cl__2};
Point(5) = {33.268458, -4.489877, 0, cl__3};
Point(6) = {33.268458, -4.489877, 1, cl__3};
Point(7) = {33.268458, 4.913197, 1, cl__3};
Point(8) = {13.944869, 2.369667, 1, cl__4};
Point(9) = {33.268458, 4.913197, 0, cl__3};
Point(10) = {13.944869, 2.369667, 0, cl__4};
Line(1) = {2, 1};
Line(2) = {1, 3};
Line(3) = {4, 3};
Line(4) = {2, 4};
Line(5) = {2, 5};
Line(6) = {5, 6};
Line(7) = {1, 6};
Line(8) = {3, 7};
Line(9) = {6, 7};
p10 = newp;
Point(p10 + 1) = {13.92847080535884, 2.578025818414245, 1};
Point(p10 + 2) = {13.87967999940991, 2.781254151215858, 1};
Point(p10 + 3) = {13.79969797372307, 2.974347842375096, 1};
Point(p10 + 4) = {13.69049415121586, 3.1525522843744, 1};
Point(p10 + 5) = {13.55475749242511, 3.311479492425111, 1};
Point(p10 + 6) = {13.3958302843744, 3.447216151215858, 1};
Point(p10 + 7) = {13.2176258423751, 3.556419973723068, 1};
Point(p10 + 8) = {13.02453215121586, 3.636401999409906, 1};
Point(p10 + 9) = {12.82130381841425, 3.685192805358839, 1};
Point(p10 + 10) = {12.612945, 3.701591000000001, 1};
Point(p10 + 11) = {12.40458618158575, 3.685192805358839, 1};
Point(p10 + 12) = {12.20135784878414, 3.636401999409907, 1};
Point(p10 + 13) = {12.0082641576249, 3.556419973723068, 1};
Point(p10 + 14) = {11.8300597156256, 3.447216151215858, 1};
Point(p10 + 15) = {11.67113250757489, 3.311479492425112, 1};
Point(p10 + 16) = {11.53539584878414, 3.1525522843744, 1};
Point(p10 + 17) = {11.42619202627693, 2.974347842375097, 1};
Point(p10 + 18) = {11.34621000059009, 2.781254151215858, 1};
Point(p10 + 19) = {11.29741919464116, 2.578025818414245, 1};
Point(p10 + 20) = {11.281021, 2.369667, 1};
Point(p10 + 21) = {11.29741919464116, 2.161308181585756, 1};
Point(p10 + 22) = {11.34621000059009, 1.958079848784142, 1};
Point(p10 + 23) = {11.42619202627693, 1.764986157624905, 1};
Point(p10 + 24) = {11.53539584878414, 1.5867817156256, 1};
Point(p10 + 25) = {11.67113250757489, 1.427854507574889, 1};
Point(p10 + 26) = {11.8300597156256, 1.292117848784143, 1};
Point(p10 + 27) = {12.0082641576249, 1.182914026276932, 1};
Point(p10 + 28) = {12.20135784878414, 1.102932000590094, 1};
Point(p10 + 29) = {12.40458618158575, 1.054141194641162, 1};
Point(p10 + 30) = {12.612945, 1.037743, 1};
Point(p10 + 31) = {12.82130381841424, 1.054141194641162, 1};
Point(p10 + 32) = {13.02453215121586, 1.102932000590094, 1};
Point(p10 + 33) = {13.2176258423751, 1.182914026276932, 1};
Point(p10 + 34) = {13.3958302843744, 1.292117848784142, 1};
Point(p10 + 35) = {13.55475749242511, 1.427854507574889, 1};
Point(p10 + 36) = {13.69049415121586, 1.5867817156256, 1};
Point(p10 + 37) = {13.79969797372307, 1.764986157624904, 1};
Point(p10 + 38) = {13.87967999940991, 1.958079848784142, 1};
Point(p10 + 39) = {13.92847080535884, 2.161308181585755, 1};
Spline(10) = {8, p10 + 1, p10 + 2, p10 + 3, p10 + 4, p10 + 5, p10 + 6, p10 + 7, p10 + 8, p10 + 9, p10 + 10, p10 + 11, p10 + 12, p10 + 13, p10 + 14, p10 + 15, p10 + 16, p10 + 17, p10 + 18, p10 + 19, p10 + 20, p10 + 21, p10 + 22, p10 + 23, p10 + 24, p10 + 25, p10 + 26, p10 + 27, p10 + 28, p10 + 29, p10 + 30, p10 + 31, p10 + 32, p10 + 33, p10 + 34, p10 + 35, p10 + 36, p10 + 37, p10 + 38, p10 + 39, 8};
Line(11) = {4, 9};
Line(12) = {9, 7};
Line(13) = {5, 9};
p14 = newp;
Point(p14 + 1) = {13.92847080535884, 2.578025818414245, 0};
Point(p14 + 2) = {13.87967999940991, 2.781254151215858, 0};
Point(p14 + 3) = {13.79969797372307, 2.974347842375096, 0};
Point(p14 + 4) = {13.69049415121586, 3.1525522843744, 0};
Point(p14 + 5) = {13.55475749242511, 3.311479492425111, 0};
Point(p14 + 6) = {13.3958302843744, 3.447216151215858, 0};
Point(p14 + 7) = {13.2176258423751, 3.556419973723068, 0};
Point(p14 + 8) = {13.02453215121586, 3.636401999409906, 0};
Point(p14 + 9) = {12.82130381841425, 3.685192805358839, 0};
Point(p14 + 10) = {12.612945, 3.701591000000001, 0};
Point(p14 + 11) = {12.40458618158575, 3.685192805358839, 0};
Point(p14 + 12) = {12.20135784878414, 3.636401999409907, 0};
Point(p14 + 13) = {12.0082641576249, 3.556419973723068, 0};
Point(p14 + 14) = {11.8300597156256, 3.447216151215858, 0};
Point(p14 + 15) = {11.67113250757489, 3.311479492425112, 0};
Point(p14 + 16) = {11.53539584878414, 3.1525522843744, 0};
Point(p14 + 17) = {11.42619202627693, 2.974347842375097, 0};
Point(p14 + 18) = {11.34621000059009, 2.781254151215858, 0};
Point(p14 + 19) = {11.29741919464116, 2.578025818414245, 0};
Point(p14 + 20) = {11.281021, 2.369667, 0};
Point(p14 + 21) = {11.29741919464116, 2.161308181585756, 0};
Point(p14 + 22) = {11.34621000059009, 1.958079848784142, 0};
Point(p14 + 23) = {11.42619202627693, 1.764986157624905, 0};
Point(p14 + 24) = {11.53539584878414, 1.5867817156256, 0};
Point(p14 + 25) = {11.67113250757489, 1.427854507574889, 0};
Point(p14 + 26) = {11.8300597156256, 1.292117848784143, 0};
Point(p14 + 27) = {12.0082641576249, 1.182914026276932, 0};
Point(p14 + 28) = {12.20135784878414, 1.102932000590094, 0};
Point(p14 + 29) = {12.40458618158575, 1.054141194641162, 0};
Point(p14 + 30) = {12.612945, 1.037743, 0};
Point(p14 + 31) = {12.82130381841424, 1.054141194641162, 0};
Point(p14 + 32) = {13.02453215121586, 1.102932000590094, 0};
Point(p14 + 33) = {13.2176258423751, 1.182914026276932, 0};
Point(p14 + 34) = {13.3958302843744, 1.292117848784142, 0};
Point(p14 + 35) = {13.55475749242511, 1.427854507574889, 0};
Point(p14 + 36) = {13.69049415121586, 1.5867817156256, 0};
Point(p14 + 37) = {13.79969797372307, 1.764986157624904, 0};
Point(p14 + 38) = {13.87967999940991, 1.958079848784142, 0};
Point(p14 + 39) = {13.92847080535884, 2.161308181585755, 0};
Spline(14) = {10, p14 + 1, p14 + 2, p14 + 3, p14 + 4, p14 + 5, p14 + 6, p14 + 7, p14 + 8, p14 + 9, p14 + 10, p14 + 11, p14 + 12, p14 + 13, p14 + 14, p14 + 15, p14 + 16, p14 + 17, p14 + 18, p14 + 19, p14 + 20, p14 + 21, p14 + 22, p14 + 23, p14 + 24, p14 + 25, p14 + 26, p14 + 27, p14 + 28, p14 + 29, p14 + 30, p14 + 31, p14 + 32, p14 + 33, p14 + 34, p14 + 35, p14 + 36, p14 + 37, p14 + 38, p14 + 39, 10};
Line(15) = {10, 8};
Curve Loop(1) = {-1, 4, 3, -2};
Plane Surface(1) = {1};
Curve Loop(2) = {-5, 1, 7, -6};
Plane Surface(2) = {2};
Curve Loop(3) = {-2, 7, 9, -8, -10};
Plane Surface(3) = {3};
Curve Loop(4) = {-11, 3, 8, -12};
Plane Surface(4) = {4};
Curve Loop(5) = {-4, 5, 13, -11, -14};
Plane Surface(5) = {5};
Curve Loop(6) = {-6, 13, 12, -9};
Plane Surface(6) = {6};
Curve Loop(7) = {-10, -15, 14, 15};
Surface(7) = {7};
Surface Loop(1) = {1, 2, 3, 4, 5, 6, 7};
Volume(1) = {1};
Physical Surface("INFLOW") = {1};
Physical Surface("OUTFLOW") = {6};
Physical Surface("OBSTACLE") = {7};
Physical Surface("WALL_Y") = {2, 4};
Physical Surface("WALL_Z") = {3, 5};
Physical Volume("FLUID") = {1};
