cl__1 = 3.485157;
cl__2 = 1.098523;
cl__3 = 1.080496;
cl__4 = 0.132242;
Point(1) = {0.013919, -4.054463, 1, cl__1};
Point(2) = {0.013919, -4.054463, 0, cl__1};
Point(3) = {0.013919, 5.127608, 1, cl__1};
Point(4) = {0.013919, 5.127608, 0, cl__1};
Point(5) = {34.547861, -4.054463, 0, cl__2};
Point(6) = {34.547861, -4.054463, 1, cl__2};
Point(7) = {34.547861, 5.127608, 1, cl__3};
Point(8) = {24.550353, 0.7764369999999997, 1, cl__4};
Point(9) = {34.547861, 5.127608, 0, cl__3};
Point(10) = {24.550353, 0.7764369999999997, 0, cl__4};
Line(1) = {2, 1};
Line(2) = {1, 3};
Line(3) = {4, 3};
Line(4) = {2, 4};
Line(5) = {2, 5};
Line(6) = {5, 6};
Line(7) = {1, 6};
Line(8) = {3, 7};
Line(9) = {6, 7};
p10 = newp;
Point(p10 + 1) = {24.5340718523048, 0.983308595955107, 1};
Point(p10 + 2) = {24.48562930510949, 1.185086326650335, 1};
Point(p10 + 3) = {24.40621817469761, 1.376801754694072, 1};
Point(p10 + 4) = {24.29779382665033, 1.553734209980855, 1};
Point(p10 + 5) = {24.16302602825637, 1.711527028256371, 1};
Point(p10 + 6) = {24.00523320998085, 1.846294826650335, 1};
Point(p10 + 7) = {23.82830075469407, 1.954719174697609, 1};
Point(p10 + 8) = {23.63658532665033, 2.034130305109488, 1};
Point(p10 + 9) = {23.43480759595511, 2.0825728523048, 1};
Point(p10 + 10) = {23.227936, 2.098854, 1};
Point(p10 + 11) = {23.02106440404489, 2.0825728523048, 1};
Point(p10 + 12) = {22.81928667334967, 2.034130305109488, 1};
Point(p10 + 13) = {22.62757124530593, 1.954719174697609, 1};
Point(p10 + 14) = {22.45063879001914, 1.846294826650335, 1};
Point(p10 + 15) = {22.29284597174363, 1.711527028256371, 1};
Point(p10 + 16) = {22.15807817334967, 1.553734209980856, 1};
Point(p10 + 17) = {22.04965382530239, 1.376801754694073, 1};
Point(p10 + 18) = {21.97024269489051, 1.185086326650335, 1};
Point(p10 + 19) = {21.9218001476952, 0.9833085959551071, 1};
Point(p10 + 20) = {21.905519, 0.7764370000000002, 1};
Point(p10 + 21) = {21.9218001476952, 0.5695654040448932, 1};
Point(p10 + 22) = {21.97024269489051, 0.3677876733496648, 1};
Point(p10 + 23) = {22.04965382530239, 0.1760722453059286, 1};
Point(p10 + 24) = {22.15807817334967, -0.000860209980855231, 1};
Point(p10 + 25) = {22.29284597174363, -0.1586530282563705, 1};
Point(p10 + 26) = {22.45063879001914, -0.2934208266503346, 1};
Point(p10 + 27) = {22.62757124530593, -0.4018451746976086, 1};
Point(p10 + 28) = {22.81928667334967, -0.481256305109488, 1};
Point(p10 + 29) = {23.02106440404489, -0.5296988523048001, 1};
Point(p10 + 30) = {23.227936, -0.5459799999999999, 1};
Point(p10 + 31) = {23.43480759595511, -0.5296988523048003, 1};
Point(p10 + 32) = {23.63658532665033, -0.481256305109488, 1};
Point(p10 + 33) = {23.82830075469407, -0.4018451746976088, 1};
Point(p10 + 34) = {24.00523320998085, -0.2934208266503349, 1};
Point(p10 + 35) = {24.16302602825637, -0.1586530282563707, 1};
Point(p10 + 36) = {24.29779382665033, -0.0008602099808556751, 1};
Point(p10 + 37) = {24.40621817469761, 0.1760722453059276, 1};
Point(p10 + 38) = {24.48562930510949, 0.3677876733496649, 1};
Point(p10 + 39) = {24.5340718523048, 0.5695654040448928, 1};
Spline(10) = {8, p10 + 1, p10 + 2, p10 + 3, p10 + 4, p10 + 5, p10 + 6, p10 + 7, p10 + 8, p10 + 9, p10 + 10, p10 + 11, p10 + 12, p10 + 13, p10 + 14, p10 + 15, p10 + 16, p10 + 17, p10 + 18, p10 + 19, p10 + 20, p10 + 21, p10 + 22, p10 + 23, p10 + 24, p10 + 25, p10 + 26, p10 + 27, p10 + 28, p10 + 29, p10 + 30, p10 + 31, p10 + 32, p10 + 33, p10 + 34, p10 + 35, p10 + 36, p10 + 37, p10 + 38, p10 + 39, 8};
Line(11) = {4, 9};
Line(12) = {9, 7};
Line(13) = {5, 9};
p14 = newp;
Point(p14 + 1) = {24.5340718523048, 0.983308595955107, 0};
Point(p14 + 2) = {24.48562930510949, 1.185086326650335, 0};
Point(p14 + 3) = {24.40621817469761, 1.376801754694072, 0};
Point(p14 + 4) = {24.29779382665033, 1.553734209980855, 0};
Point(p14 + 5) = {24.16302602825637, 1.711527028256371, 0};
Point(p14 + 6) = {24.00523320998085, 1.846294826650335, 0};
Point(p14 + 7) = {23.82830075469407, 1.954719174697609, 0};
Point(p14 + 8) = {23.63658532665033, 2.034130305109488, 0};
Point(p14 + 9) = {23.43480759595511, 2.0825728523048, 0};
Point(p14 + 10) = {23.227936, 2.098854, 0};
Point(p14 + 11) = {23.02106440404489, 2.0825728523048, 0};
Point(p14 + 12) = {22.81928667334967, 2.034130305109488, 0};
Point(p14 + 13) = {22.62757124530593, 1.954719174697609, 0};
Point(p14 + 14) = {22.45063879001914, 1.846294826650335, 0};
Point(p14 + 15) = {22.29284597174363, 1.711527028256371, 0};
Point(p14 + 16) = {22.15807817334967, 1.553734209980856, 0};
Point(p14 + 17) = {22.04965382530239, 1.376801754694073, 0};
Point(p14 + 18) = {21.97024269489051, 1.185086326650335, 0};
Point(p14 + 19) = {21.9218001476952, 0.9833085959551071, 0};
Point(p14 + 20) = {21.905519, 0.7764370000000002, 0};
Point(p14 + 21) = {21.9218001476952, 0.5695654040448932, 0};
Point(p14 + 22) = {21.97024269489051, 0.3677876733496648, 0};
Point(p14 + 23) = {22.04965382530239, 0.1760722453059286, 0};
Point(p14 + 24) = {22.15807817334967, -0.000860209980855231, 0};
Point(p14 + 25) = {22.29284597174363, -0.1586530282563705, 0};
Point(p14 + 26) = {22.45063879001914, -0.2934208266503346, 0};
Point(p14 + 27) = {22.62757124530593, -0.4018451746976086, 0};
Point(p14 + 28) = {22.81928667334967, -0.481256305109488, 0};
Point(p14 + 29) = {23.02106440404489, -0.5296988523048001, 0};
Point(p14 + 30) = {23.227936, -0.5459799999999999, 0};
Point(p14 + 31) = {23.43480759595511, -0.5296988523048003, 0};
Point(p14 + 32) = {23.63658532665033, -0.481256305109488, 0};
Point(p14 + 33) = {23.82830075469407, -0.4018451746976088, 0};
Point(p14 + 34) = {24.00523320998085, -0.2934208266503349, 0};
Point(p14 + 35) = {24.16302602825637, -0.1586530282563707, 0};
Point(p14 + 36) = {24.29779382665033, -0.0008602099808556751, 0};
Point(p14 + 37) = {24.40621817469761, 0.1760722453059276, 0};
Point(p14 + 38) = {24.48562930510949, 0.3677876733496649, 0};
Point(p14 + 39) = {24.5340718523048, 0.5695654040448928, 0};
Spline(14) = {10, p14 + 1, p14 + 2, p14 + 3, p14 + 4, p14 + 5, p14 + 6, p14 + 7, p14 + 8, p14 + 9, p14 + 10, p14 + 11, p14 + 12, p14 + 13, p14 + 14, p14 + 15, p14 + 16, p14 + 17, p14 + 18, p14 + 19, p14 + 20, p14 + 21, p14 + 22, p14 + 23, p14 + 24, p14 + 25, p14 + 26, p14 + 27, p14 + 28, p14 + 29, p14 + 30, p14 + 31, p14 + 32, p14 + 33, p14 + 34, p14 + 35, p14 + 36, p14 + 37, p14 + 38, p14 + 39, 10};
Line(15) = {10, 8};
Curve Loop(1) = {-1, 4, 3, -2};
Plane Surface(1) = {1};
Curve Loop(2) = {-5, 1, 7, -6};
Plane Surface(2) = {2};
Curve Loop(3) = {-2, 7, 9, -8, -10};
Plane Surface(3) = {3};
Curve Loop(4) = {-11, 3, 8, -12};
Plane Surface(4) = {4};
Curve Loop(5) = {-4, 5, 13, -11, -14};
Plane Surface(5) = {5};
Curve Loop(6) = {-6, 13, 12, -9};
Plane Surface(6) = {6};
Curve Loop(7) = {-10, -15, 14, 15};
Surface(7) = {7};
Surface Loop(1) = {1, 2, 3, 4, 5, 6, 7};
Volume(1) = {1};
Physical Surface("INFLOW") = {1};
Physical Surface("OUTFLOW") = {6};
Physical Surface("OBSTACLE") = {7};
Physical Surface("WALL_Y") = {2, 4};
Physical Surface("WALL_Z") = {3, 5};
Physical Volume("FLUID") = {1};
