cl__1 = 1;
cl__2 = 0.109336;
cl__3 = 0.094526;
Point(1) = {0.947449, -3.533819, 1, cl__1};
Point(2) = {0.947449, -3.533819, 0, cl__1};
Point(3) = {0.947449, 4.823162, 1, cl__1};
Point(4) = {0.947449, 4.823162, 0, cl__1};
Point(5) = {34.116918, -3.533819, 0, cl__1};
Point(6) = {34.116918, -3.533819, 1, cl__1};
Point(7) = {34.116918, 4.823162, 1, cl__1};
Point(8) = {23.134633, -1.451554, 1, cl__2};
Point(9) = {24.720093, 2.857317999999999, 1, cl__3};
Point(10) = {34.116918, 4.823162, 0, cl__1};
Point(11) = {23.134633, -1.451554, 0, cl__2};
Point(12) = {24.720093, 2.857317999999999, 0, cl__3};
Line(1) = {2, 1};
Line(2) = {1, 3};
Line(3) = {4, 3};
Line(4) = {2, 4};
Line(5) = {2, 5};
Line(6) = {5, 6};
Line(7) = {1, 6};
Line(8) = {3, 7};
Line(9) = {6, 7};
p10 = newp;
Point(p10 + 1) = {23.12117196100808, -1.280515282607008, 1};
Point(p10 + 2) = {23.08112029948692, -1.113688106081191, 1};
Point(p10 + 3) = {23.01546422026702, -0.9551803091762685, 1};
Point(p10 + 4) = {22.92582039391881, -0.8088948799092585, 1};
Point(p10 + 5) = {22.81439614895778, -0.6784338510422201, 1};
Point(p10 + 6) = {22.68393512009074, -0.5670096060811907, 1};
Point(p10 + 7) = {22.53764969082373, -0.4773657797329789, 1};
Point(p10 + 8) = {22.37914189391881, -0.4117097005130799, 1};
Point(p10 + 9) = {22.21231471739299, -0.371658038991922, 1};
Point(p10 + 10) = {22.041276, -0.3581970000000001, 1};
Point(p10 + 11) = {21.87023728260701, -0.3716580389919222, 1};
Point(p10 + 12) = {21.70341010608119, -0.4117097005130799, 1};
Point(p10 + 13) = {21.54490230917627, -0.4773657797329788, 1};
Point(p10 + 14) = {21.39861687990926, -0.5670096060811907, 1};
Point(p10 + 15) = {21.26815585104222, -0.67843385104222, 1};
Point(p10 + 16) = {21.15673160608119, -0.8088948799092583, 1};
Point(p10 + 17) = {21.06708777973298, -0.9551803091762683, 1};
Point(p10 + 18) = {21.00143170051308, -1.113688106081191, 1};
Point(p10 + 19) = {20.96138003899192, -1.280515282607008, 1};
Point(p10 + 20) = {20.947919, -1.451554, 1};
Point(p10 + 21) = {20.96138003899192, -1.622592717392991, 1};
Point(p10 + 22) = {21.00143170051308, -1.78941989391881, 1};
Point(p10 + 23) = {21.06708777973298, -1.947927690823731, 1};
Point(p10 + 24) = {21.15673160608119, -2.094213120090741, 1};
Point(p10 + 25) = {21.26815585104222, -2.22467414895778, 1};
Point(p10 + 26) = {21.39861687990926, -2.336098393918809, 1};
Point(p10 + 27) = {21.54490230917627, -2.425742220267021, 1};
Point(p10 + 28) = {21.70341010608119, -2.49139829948692, 1};
Point(p10 + 29) = {21.87023728260701, -2.531449961008078, 1};
Point(p10 + 30) = {22.041276, -2.544911, 1};
Point(p10 + 31) = {22.21231471739299, -2.531449961008078, 1};
Point(p10 + 32) = {22.37914189391881, -2.49139829948692, 1};
Point(p10 + 33) = {22.53764969082373, -2.425742220267021, 1};
Point(p10 + 34) = {22.68393512009074, -2.336098393918809, 1};
Point(p10 + 35) = {22.81439614895778, -2.22467414895778, 1};
Point(p10 + 36) = {22.92582039391881, -2.094213120090742, 1};
Point(p10 + 37) = {23.01546422026702, -1.947927690823732, 1};
Point(p10 + 38) = {23.08112029948692, -1.78941989391881, 1};
Point(p10 + 39) = {23.12117196100808, -1.622592717392992, 1};
Spline(10) = {8, p10 + 1, p10 + 2, p10 + 3, p10 + 4, p10 + 5, p10 + 6, p10 + 7, p10 + 8, p10 + 9, p10 + 10, p10 + 11, p10 + 12, p10 + 13, p10 + 14, p10 + 15, p10 + 16, p10 + 17, p10 + 18, p10 + 19, p10 + 20, p10 + 21, p10 + 22, p10 + 23, p10 + 24, p10 + 25, p10 + 26, p10 + 27, p10 + 28, p10 + 29, p10 + 30, p10 + 31, p10 + 32, p10 + 33, p10 + 34, p10 + 35, p10 + 36, p10 + 37, p10 + 38, p10 + 39, 8};
p11 = newp;
Point(p11 + 1) = {24.7084553300776, 3.005188616686068, 1};
Point(p11 + 2) = {24.67382887836709, 3.149418168034885, 1};
Point(p11 + 3) = {24.6170662630282, 3.286455243821805, 1};
Point(p11 + 4) = {24.53956516803489, 3.412925536440974, 1};
Point(p11 + 5) = {24.44323392755727, 3.525714927557271, 1};
Point(p11 + 6) = {24.33044453644098, 3.622046168034885, 1};
Point(p11 + 7) = {24.20397424382181, 3.6995472630282, 1};
Point(p11 + 8) = {24.06693716803489, 3.756309878367091, 1};
Point(p11 + 9) = {23.92270761668607, 3.790936330077598, 1};
Point(p11 + 10) = {23.774837, 3.802574, 1};
Point(p11 + 11) = {23.62696638331393, 3.790936330077597, 1};
Point(p11 + 12) = {23.48273683196512, 3.756309878367091, 1};
Point(p11 + 13) = {23.3456997561782, 3.6995472630282, 1};
Point(p11 + 14) = {23.21922946355903, 3.622046168034885, 1};
Point(p11 + 15) = {23.10644007244273, 3.525714927557271, 1};
Point(p11 + 16) = {23.01010883196512, 3.412925536440974, 1};
Point(p11 + 17) = {22.9326077369718, 3.286455243821805, 1};
Point(p11 + 18) = {22.87584512163291, 3.149418168034885, 1};
Point(p11 + 19) = {22.84121866992241, 3.005188616686068, 1};
Point(p11 + 20) = {22.829581, 2.857318, 1};
Point(p11 + 21) = {22.84121866992241, 2.709447383313932, 1};
Point(p11 + 22) = {22.87584512163291, 2.565217831965114, 1};
Point(p11 + 23) = {22.9326077369718, 2.428180756178195, 1};
Point(p11 + 24) = {23.01010883196512, 2.301710463559026, 1};
Point(p11 + 25) = {23.10644007244273, 2.188921072442729, 1};
Point(p11 + 26) = {23.21922946355903, 2.092589831965115, 1};
Point(p11 + 27) = {23.3456997561782, 2.0150887369718, 1};
Point(p11 + 28) = {23.48273683196512, 1.958326121632908, 1};
Point(p11 + 29) = {23.62696638331393, 1.923699669922402, 1};
Point(p11 + 30) = {23.774837, 1.912062, 1};
Point(p11 + 31) = {23.92270761668607, 1.923699669922402, 1};
Point(p11 + 32) = {24.06693716803489, 1.958326121632908, 1};
Point(p11 + 33) = {24.20397424382181, 2.0150887369718, 1};
Point(p11 + 34) = {24.33044453644098, 2.092589831965114, 1};
Point(p11 + 35) = {24.44323392755727, 2.188921072442728, 1};
Point(p11 + 36) = {24.53956516803489, 2.301710463559026, 1};
Point(p11 + 37) = {24.6170662630282, 2.428180756178195, 1};
Point(p11 + 38) = {24.67382887836709, 2.565217831965114, 1};
Point(p11 + 39) = {24.7084553300776, 2.709447383313931, 1};
Spline(11) = {9, p11 + 1, p11 + 2, p11 + 3, p11 + 4, p11 + 5, p11 + 6, p11 + 7, p11 + 8, p11 + 9, p11 + 10, p11 + 11, p11 + 12, p11 + 13, p11 + 14, p11 + 15, p11 + 16, p11 + 17, p11 + 18, p11 + 19, p11 + 20, p11 + 21, p11 + 22, p11 + 23, p11 + 24, p11 + 25, p11 + 26, p11 + 27, p11 + 28, p11 + 29, p11 + 30, p11 + 31, p11 + 32, p11 + 33, p11 + 34, p11 + 35, p11 + 36, p11 + 37, p11 + 38, p11 + 39, 9};
Line(12) = {4, 10};
Line(13) = {10, 7};
Line(14) = {5, 10};
p15 = newp;
Point(p15 + 1) = {23.12117196100808, -1.280515282607008, 0};
Point(p15 + 2) = {23.08112029948692, -1.113688106081191, 0};
Point(p15 + 3) = {23.01546422026702, -0.9551803091762685, 0};
Point(p15 + 4) = {22.92582039391881, -0.8088948799092585, 0};
Point(p15 + 5) = {22.81439614895778, -0.6784338510422201, 0};
Point(p15 + 6) = {22.68393512009074, -0.5670096060811907, 0};
Point(p15 + 7) = {22.53764969082373, -0.4773657797329789, 0};
Point(p15 + 8) = {22.37914189391881, -0.4117097005130799, 0};
Point(p15 + 9) = {22.21231471739299, -0.371658038991922, 0};
Point(p15 + 10) = {22.041276, -0.3581970000000001, 0};
Point(p15 + 11) = {21.87023728260701, -0.3716580389919222, 0};
Point(p15 + 12) = {21.70341010608119, -0.4117097005130799, 0};
Point(p15 + 13) = {21.54490230917627, -0.4773657797329788, 0};
Point(p15 + 14) = {21.39861687990926, -0.5670096060811907, 0};
Point(p15 + 15) = {21.26815585104222, -0.67843385104222, 0};
Point(p15 + 16) = {21.15673160608119, -0.8088948799092583, 0};
Point(p15 + 17) = {21.06708777973298, -0.9551803091762683, 0};
Point(p15 + 18) = {21.00143170051308, -1.113688106081191, 0};
Point(p15 + 19) = {20.96138003899192, -1.280515282607008, 0};
Point(p15 + 20) = {20.947919, -1.451554, 0};
Point(p15 + 21) = {20.96138003899192, -1.622592717392991, 0};
Point(p15 + 22) = {21.00143170051308, -1.78941989391881, 0};
Point(p15 + 23) = {21.06708777973298, -1.947927690823731, 0};
Point(p15 + 24) = {21.15673160608119, -2.094213120090741, 0};
Point(p15 + 25) = {21.26815585104222, -2.22467414895778, 0};
Point(p15 + 26) = {21.39861687990926, -2.336098393918809, 0};
Point(p15 + 27) = {21.54490230917627, -2.425742220267021, 0};
Point(p15 + 28) = {21.70341010608119, -2.49139829948692, 0};
Point(p15 + 29) = {21.87023728260701, -2.531449961008078, 0};
Point(p15 + 30) = {22.041276, -2.544911, 0};
Point(p15 + 31) = {22.21231471739299, -2.531449961008078, 0};
Point(p15 + 32) = {22.37914189391881, -2.49139829948692, 0};
Point(p15 + 33) = {22.53764969082373, -2.425742220267021, 0};
Point(p15 + 34) = {22.68393512009074, -2.336098393918809, 0};
Point(p15 + 35) = {22.81439614895778, -2.22467414895778, 0};
Point(p15 + 36) = {22.92582039391881, -2.094213120090742, 0};
Point(p15 + 37) = {23.01546422026702, -1.947927690823732, 0};
Point(p15 + 38) = {23.08112029948692, -1.78941989391881, 0};
Point(p15 + 39) = {23.12117196100808, -1.622592717392992, 0};
Spline(15) = {11, p15 + 1, p15 + 2, p15 + 3, p15 + 4, p15 + 5, p15 + 6, p15 + 7, p15 + 8, p15 + 9, p15 + 10, p15 + 11, p15 + 12, p15 + 13, p15 + 14, p15 + 15, p15 + 16, p15 + 17, p15 + 18, p15 + 19, p15 + 20, p15 + 21, p15 + 22, p15 + 23, p15 + 24, p15 + 25, p15 + 26, p15 + 27, p15 + 28, p15 + 29, p15 + 30, p15 + 31, p15 + 32, p15 + 33, p15 + 34, p15 + 35, p15 + 36, p15 + 37, p15 + 38, p15 + 39, 11};
p16 = newp;
Point(p16 + 1) = {24.7084553300776, 3.005188616686068, 0};
Point(p16 + 2) = {24.67382887836709, 3.149418168034885, 0};
Point(p16 + 3) = {24.6170662630282, 3.286455243821805, 0};
Point(p16 + 4) = {24.53956516803489, 3.412925536440974, 0};
Point(p16 + 5) = {24.44323392755727, 3.525714927557271, 0};
Point(p16 + 6) = {24.33044453644098, 3.622046168034885, 0};
Point(p16 + 7) = {24.20397424382181, 3.6995472630282, 0};
Point(p16 + 8) = {24.06693716803489, 3.756309878367091, 0};
Point(p16 + 9) = {23.92270761668607, 3.790936330077598, 0};
Point(p16 + 10) = {23.774837, 3.802574, 0};
Point(p16 + 11) = {23.62696638331393, 3.790936330077597, 0};
Point(p16 + 12) = {23.48273683196512, 3.756309878367091, 0};
Point(p16 + 13) = {23.3456997561782, 3.6995472630282, 0};
Point(p16 + 14) = {23.21922946355903, 3.622046168034885, 0};
Point(p16 + 15) = {23.10644007244273, 3.525714927557271, 0};
Point(p16 + 16) = {23.01010883196512, 3.412925536440974, 0};
Point(p16 + 17) = {22.9326077369718, 3.286455243821805, 0};
Point(p16 + 18) = {22.87584512163291, 3.149418168034885, 0};
Point(p16 + 19) = {22.84121866992241, 3.005188616686068, 0};
Point(p16 + 20) = {22.829581, 2.857318, 0};
Point(p16 + 21) = {22.84121866992241, 2.709447383313932, 0};
Point(p16 + 22) = {22.87584512163291, 2.565217831965114, 0};
Point(p16 + 23) = {22.9326077369718, 2.428180756178195, 0};
Point(p16 + 24) = {23.01010883196512, 2.301710463559026, 0};
Point(p16 + 25) = {23.10644007244273, 2.188921072442729, 0};
Point(p16 + 26) = {23.21922946355903, 2.092589831965115, 0};
Point(p16 + 27) = {23.3456997561782, 2.0150887369718, 0};
Point(p16 + 28) = {23.48273683196512, 1.958326121632908, 0};
Point(p16 + 29) = {23.62696638331393, 1.923699669922402, 0};
Point(p16 + 30) = {23.774837, 1.912062, 0};
Point(p16 + 31) = {23.92270761668607, 1.923699669922402, 0};
Point(p16 + 32) = {24.06693716803489, 1.958326121632908, 0};
Point(p16 + 33) = {24.20397424382181, 2.0150887369718, 0};
Point(p16 + 34) = {24.33044453644098, 2.092589831965114, 0};
Point(p16 + 35) = {24.44323392755727, 2.188921072442728, 0};
Point(p16 + 36) = {24.53956516803489, 2.301710463559026, 0};
Point(p16 + 37) = {24.6170662630282, 2.428180756178195, 0};
Point(p16 + 38) = {24.67382887836709, 2.565217831965114, 0};
Point(p16 + 39) = {24.7084553300776, 2.709447383313931, 0};
Spline(16) = {12, p16 + 1, p16 + 2, p16 + 3, p16 + 4, p16 + 5, p16 + 6, p16 + 7, p16 + 8, p16 + 9, p16 + 10, p16 + 11, p16 + 12, p16 + 13, p16 + 14, p16 + 15, p16 + 16, p16 + 17, p16 + 18, p16 + 19, p16 + 20, p16 + 21, p16 + 22, p16 + 23, p16 + 24, p16 + 25, p16 + 26, p16 + 27, p16 + 28, p16 + 29, p16 + 30, p16 + 31, p16 + 32, p16 + 33, p16 + 34, p16 + 35, p16 + 36, p16 + 37, p16 + 38, p16 + 39, 12};
Line(17) = {11, 8};
Line(18) = {12, 9};
Curve Loop(1) = {-1, 4, 3, -2};
Plane Surface(1) = {1};
Curve Loop(2) = {-5, 1, 7, -6};
Plane Surface(2) = {2};
Curve Loop(3) = {-2, 7, 9, -8, -10, -11};
Plane Surface(3) = {3};
Curve Loop(4) = {-12, 3, 8, -13};
Plane Surface(4) = {4};
Curve Loop(5) = {-4, 5, 14, -12, -15, -16};
Plane Surface(5) = {5};
Curve Loop(6) = {-6, 14, 13, -9};
Plane Surface(6) = {6};
Curve Loop(7) = {-10, -17, 15, 17};
Surface(7) = {7};
Curve Loop(8) = {-11, -18, 16, 18};
Surface(8) = {8};
Surface Loop(1) = {1, 2, 3, 4, 5, 6, 7, 8};
Volume(1) = {1};
Physical Surface("INFLOW") = {1};
Physical Surface("OUTFLOW") = {6};
Physical Surface("OBSTACLE") = {7, 8};
Physical Surface("WALL_Y") = {2, 4};
Physical Surface("WALL_Z") = {3, 5};
Physical Volume("FLUID") = {1};
