cl__1 = 4.023797;
cl__2 = 1.937512;
cl__3 = 0.839461;
cl__4 = 0.08724899999999999;
cl__5 = 0.057483;
Point(1) = {0.492029, -4.579671, 1, cl__1};
Point(2) = {0.492029, -4.579671, 0, cl__1};
Point(3) = {0.492029, 4.699459999999999, 1, cl__2};
Point(4) = {0.492029, 4.699459999999999, 0, cl__2};
Point(5) = {39.969593, -4.579671, 0, cl__3};
Point(6) = {39.969593, -4.579671, 1, cl__3};
Point(7) = {39.969593, 4.699459999999999, 1, cl__2};
Point(8) = {21.647056, 1.863685, 1, cl__4};
Point(9) = {5.911324, 2.968978, 1, cl__5};
Point(10) = {39.969593, 4.699459999999999, 0, cl__2};
Point(11) = {21.647056, 1.863685, 0, cl__4};
Point(12) = {5.911324, 2.968978, 0, cl__5};
Line(1) = {2, 1};
Line(2) = {1, 3};
Line(3) = {4, 3};
Line(4) = {2, 4};
Line(5) = {2, 5};
Line(6) = {5, 6};
Line(7) = {1, 6};
Line(8) = {3, 7};
Line(9) = {6, 7};
p10 = newp;
Point(p10 + 1) = {21.63631417566253, 2.000172819271881, 1};
Point(p10 + 2) = {21.60435320201539, 2.133299855456187, 1};
Point(p10 + 3) = {21.55196006430216, 2.259788079098757, 1};
Point(p10 + 4) = {21.48042485545619, 2.376522930343165, 1};
Point(p10 + 5) = {21.39150900973101, 2.480630009731013, 1};
Point(p10 + 6) = {21.28740193034317, 2.569545855456187, 1};
Point(p10 + 7) = {21.17066707909876, 2.641081064302158, 1};
Point(p10 + 8) = {21.04417885545619, 2.693474202015391, 1};
Point(p10 + 9) = {20.91105181927188, 2.725435175662533, 1};
Point(p10 + 10) = {20.774564, 2.736177, 1};
Point(p10 + 11) = {20.63807618072812, 2.725435175662533, 1};
Point(p10 + 12) = {20.50494914454382, 2.693474202015391, 1};
Point(p10 + 13) = {20.37846092090124, 2.641081064302158, 1};
Point(p10 + 14) = {20.26172606965684, 2.569545855456187, 1};
Point(p10 + 15) = {20.15761899026899, 2.480630009731013, 1};
Point(p10 + 16) = {20.06870314454381, 2.376522930343165, 1};
Point(p10 + 17) = {19.99716793569785, 2.259788079098757, 1};
Point(p10 + 18) = {19.94477479798461, 2.133299855456187, 1};
Point(p10 + 19) = {19.91281382433747, 2.000172819271881, 1};
Point(p10 + 20) = {19.902072, 1.863685, 1};
Point(p10 + 21) = {19.91281382433747, 1.727197180728119, 1};
Point(p10 + 22) = {19.94477479798461, 1.594070144543813, 1};
Point(p10 + 23) = {19.99716793569785, 1.467581920901244, 1};
Point(p10 + 24) = {20.06870314454381, 1.350847069656836, 1};
Point(p10 + 25) = {20.15761899026899, 1.246739990268987, 1};
Point(p10 + 26) = {20.26172606965684, 1.157824144543814, 1};
Point(p10 + 27) = {20.37846092090124, 1.086288935697842, 1};
Point(p10 + 28) = {20.50494914454382, 1.033895797984609, 1};
Point(p10 + 29) = {20.63807618072812, 1.001934824337467, 1};
Point(p10 + 30) = {20.774564, 0.991193, 1};
Point(p10 + 31) = {20.91105181927188, 1.001934824337467, 1};
Point(p10 + 32) = {21.04417885545619, 1.033895797984609, 1};
Point(p10 + 33) = {21.17066707909876, 1.086288935697842, 1};
Point(p10 + 34) = {21.28740193034317, 1.157824144543813, 1};
Point(p10 + 35) = {21.39150900973101, 1.246739990268987, 1};
Point(p10 + 36) = {21.48042485545619, 1.350847069656835, 1};
Point(p10 + 37) = {21.55196006430216, 1.467581920901243, 1};
Point(p10 + 38) = {21.60435320201539, 1.594070144543813, 1};
Point(p10 + 39) = {21.63631417566253, 1.727197180728119, 1};
Spline(10) = {8, p10 + 1, p10 + 2, p10 + 3, p10 + 4, p10 + 5, p10 + 6, p10 + 7, p10 + 8, p10 + 9, p10 + 10, p10 + 11, p10 + 12, p10 + 13, p10 + 14, p10 + 15, p10 + 16, p10 + 17, p10 + 18, p10 + 19, p10 + 20, p10 + 21, p10 + 22, p10 + 23, p10 + 24, p10 + 25, p10 + 26, p10 + 27, p10 + 28, p10 + 29, p10 + 30, p10 + 31, p10 + 32, p10 + 33, p10 + 34, p10 + 35, p10 + 36, p10 + 37, p10 + 38, p10 + 39, 8};
p11 = newp;
Point(p11 + 1) = {5.904246888824303, 3.058901223539076, 1};
Point(p11 + 2) = {5.883189817261943, 3.146610238876551, 1};
Point(p11 + 3) = {5.848671280299199, 3.229945358965284, 1};
Point(p11 + 4) = {5.801541238876551, 3.306854596575282, 1};
Point(p11 + 5) = {5.742960191029463, 3.375444191029463, 1};
Point(p11 + 6) = {5.674370596575282, 3.434025238876551, 1};
Point(p11 + 7) = {5.597461358965283, 3.481155280299199, 1};
Point(p11 + 8) = {5.514126238876552, 3.515673817261943, 1};
Point(p11 + 9) = {5.426417223539076, 3.536730888824303, 1};
Point(p11 + 10) = {5.336494, 3.543808, 1};
Point(p11 + 11) = {5.246570776460924, 3.536730888824303, 1};
Point(p11 + 12) = {5.15886176112345, 3.515673817261943, 1};
Point(p11 + 13) = {5.075526641034717, 3.481155280299199, 1};
Point(p11 + 14) = {4.998617403424718, 3.434025238876551, 1};
Point(p11 + 15) = {4.930027808970537, 3.375444191029463, 1};
Point(p11 + 16) = {4.871446761123449, 3.306854596575282, 1};
Point(p11 + 17) = {4.824316719700801, 3.229945358965284, 1};
Point(p11 + 18) = {4.789798182738057, 3.146610238876551, 1};
Point(p11 + 19) = {4.768741111175697, 3.058901223539076, 1};
Point(p11 + 20) = {4.761664, 2.968978, 1};
Point(p11 + 21) = {4.768741111175697, 2.879054776460924, 1};
Point(p11 + 22) = {4.789798182738057, 2.791345761123449, 1};
Point(p11 + 23) = {4.824316719700801, 2.708010641034717, 1};
Point(p11 + 24) = {4.871446761123449, 2.631101403424718, 1};
Point(p11 + 25) = {4.930027808970537, 2.562511808970537, 1};
Point(p11 + 26) = {4.998617403424718, 2.503930761123449, 1};
Point(p11 + 27) = {5.075526641034716, 2.456800719700801, 1};
Point(p11 + 28) = {5.158861761123449, 2.422282182738057, 1};
Point(p11 + 29) = {5.246570776460924, 2.401225111175697, 1};
Point(p11 + 30) = {5.336494, 2.394148, 1};
Point(p11 + 31) = {5.426417223539076, 2.401225111175697, 1};
Point(p11 + 32) = {5.514126238876551, 2.422282182738057, 1};
Point(p11 + 33) = {5.597461358965283, 2.456800719700801, 1};
Point(p11 + 34) = {5.674370596575282, 2.503930761123449, 1};
Point(p11 + 35) = {5.742960191029463, 2.562511808970537, 1};
Point(p11 + 36) = {5.801541238876551, 2.631101403424717, 1};
Point(p11 + 37) = {5.848671280299199, 2.708010641034716, 1};
Point(p11 + 38) = {5.883189817261943, 2.791345761123449, 1};
Point(p11 + 39) = {5.904246888824303, 2.879054776460924, 1};
Spline(11) = {9, p11 + 1, p11 + 2, p11 + 3, p11 + 4, p11 + 5, p11 + 6, p11 + 7, p11 + 8, p11 + 9, p11 + 10, p11 + 11, p11 + 12, p11 + 13, p11 + 14, p11 + 15, p11 + 16, p11 + 17, p11 + 18, p11 + 19, p11 + 20, p11 + 21, p11 + 22, p11 + 23, p11 + 24, p11 + 25, p11 + 26, p11 + 27, p11 + 28, p11 + 29, p11 + 30, p11 + 31, p11 + 32, p11 + 33, p11 + 34, p11 + 35, p11 + 36, p11 + 37, p11 + 38, p11 + 39, 9};
Line(12) = {4, 10};
Line(13) = {10, 7};
Line(14) = {5, 10};
p15 = newp;
Point(p15 + 1) = {21.63631417566253, 2.000172819271881, 0};
Point(p15 + 2) = {21.60435320201539, 2.133299855456187, 0};
Point(p15 + 3) = {21.55196006430216, 2.259788079098757, 0};
Point(p15 + 4) = {21.48042485545619, 2.376522930343165, 0};
Point(p15 + 5) = {21.39150900973101, 2.480630009731013, 0};
Point(p15 + 6) = {21.28740193034317, 2.569545855456187, 0};
Point(p15 + 7) = {21.17066707909876, 2.641081064302158, 0};
Point(p15 + 8) = {21.04417885545619, 2.693474202015391, 0};
Point(p15 + 9) = {20.91105181927188, 2.725435175662533, 0};
Point(p15 + 10) = {20.774564, 2.736177, 0};
Point(p15 + 11) = {20.63807618072812, 2.725435175662533, 0};
Point(p15 + 12) = {20.50494914454382, 2.693474202015391, 0};
Point(p15 + 13) = {20.37846092090124, 2.641081064302158, 0};
Point(p15 + 14) = {20.26172606965684, 2.569545855456187, 0};
Point(p15 + 15) = {20.15761899026899, 2.480630009731013, 0};
Point(p15 + 16) = {20.06870314454381, 2.376522930343165, 0};
Point(p15 + 17) = {19.99716793569785, 2.259788079098757, 0};
Point(p15 + 18) = {19.94477479798461, 2.133299855456187, 0};
Point(p15 + 19) = {19.91281382433747, 2.000172819271881, 0};
Point(p15 + 20) = {19.902072, 1.863685, 0};
Point(p15 + 21) = {19.91281382433747, 1.727197180728119, 0};
Point(p15 + 22) = {19.94477479798461, 1.594070144543813, 0};
Point(p15 + 23) = {19.99716793569785, 1.467581920901244, 0};
Point(p15 + 24) = {20.06870314454381, 1.350847069656836, 0};
Point(p15 + 25) = {20.15761899026899, 1.246739990268987, 0};
Point(p15 + 26) = {20.26172606965684, 1.157824144543814, 0};
Point(p15 + 27) = {20.37846092090124, 1.086288935697842, 0};
Point(p15 + 28) = {20.50494914454382, 1.033895797984609, 0};
Point(p15 + 29) = {20.63807618072812, 1.001934824337467, 0};
Point(p15 + 30) = {20.774564, 0.991193, 0};
Point(p15 + 31) = {20.91105181927188, 1.001934824337467, 0};
Point(p15 + 32) = {21.04417885545619, 1.033895797984609, 0};
Point(p15 + 33) = {21.17066707909876, 1.086288935697842, 0};
Point(p15 + 34) = {21.28740193034317, 1.157824144543813, 0};
Point(p15 + 35) = {21.39150900973101, 1.246739990268987, 0};
Point(p15 + 36) = {21.48042485545619, 1.350847069656835, 0};
Point(p15 + 37) = {21.55196006430216, 1.467581920901243, 0};
Point(p15 + 38) = {21.60435320201539, 1.594070144543813, 0};
Point(p15 + 39) = {21.63631417566253, 1.727197180728119, 0};
Spline(15) = {11, p15 + 1, p15 + 2, p15 + 3, p15 + 4, p15 + 5, p15 + 6, p15 + 7, p15 + 8, p15 + 9, p15 + 10, p15 + 11, p15 + 12, p15 + 13, p15 + 14, p15 + 15, p15 + 16, p15 + 17, p15 + 18, p15 + 19, p15 + 20, p15 + 21, p15 + 22, p15 + 23, p15 + 24, p15 + 25, p15 + 26, p15 + 27, p15 + 28, p15 + 29, p15 + 30, p15 + 31, p15 + 32, p15 + 33, p15 + 34, p15 + 35, p15 + 36, p15 + 37, p15 + 38, p15 + 39, 11};
p16 = newp;
Point(p16 + 1) = {5.904246888824303, 3.058901223539076, 0};
Point(p16 + 2) = {5.883189817261943, 3.146610238876551, 0};
Point(p16 + 3) = {5.848671280299199, 3.229945358965284, 0};
Point(p16 + 4) = {5.801541238876551, 3.306854596575282, 0};
Point(p16 + 5) = {5.742960191029463, 3.375444191029463, 0};
Point(p16 + 6) = {5.674370596575282, 3.434025238876551, 0};
Point(p16 + 7) = {5.597461358965283, 3.481155280299199, 0};
Point(p16 + 8) = {5.514126238876552, 3.515673817261943, 0};
Point(p16 + 9) = {5.426417223539076, 3.536730888824303, 0};
Point(p16 + 10) = {5.336494, 3.543808, 0};
Point(p16 + 11) = {5.246570776460924, 3.536730888824303, 0};
Point(p16 + 12) = {5.15886176112345, 3.515673817261943, 0};
Point(p16 + 13) = {5.075526641034717, 3.481155280299199, 0};
Point(p16 + 14) = {4.998617403424718, 3.434025238876551, 0};
Point(p16 + 15) = {4.930027808970537, 3.375444191029463, 0};
Point(p16 + 16) = {4.871446761123449, 3.306854596575282, 0};
Point(p16 + 17) = {4.824316719700801, 3.229945358965284, 0};
Point(p16 + 18) = {4.789798182738057, 3.146610238876551, 0};
Point(p16 + 19) = {4.768741111175697, 3.058901223539076, 0};
Point(p16 + 20) = {4.761664, 2.968978, 0};
Point(p16 + 21) = {4.768741111175697, 2.879054776460924, 0};
Point(p16 + 22) = {4.789798182738057, 2.791345761123449, 0};
Point(p16 + 23) = {4.824316719700801, 2.708010641034717, 0};
Point(p16 + 24) = {4.871446761123449, 2.631101403424718, 0};
Point(p16 + 25) = {4.930027808970537, 2.562511808970537, 0};
Point(p16 + 26) = {4.998617403424718, 2.503930761123449, 0};
Point(p16 + 27) = {5.075526641034716, 2.456800719700801, 0};
Point(p16 + 28) = {5.158861761123449, 2.422282182738057, 0};
Point(p16 + 29) = {5.246570776460924, 2.401225111175697, 0};
Point(p16 + 30) = {5.336494, 2.394148, 0};
Point(p16 + 31) = {5.426417223539076, 2.401225111175697, 0};
Point(p16 + 32) = {5.514126238876551, 2.422282182738057, 0};
Point(p16 + 33) = {5.597461358965283, 2.456800719700801, 0};
Point(p16 + 34) = {5.674370596575282, 2.503930761123449, 0};
Point(p16 + 35) = {5.742960191029463, 2.562511808970537, 0};
Point(p16 + 36) = {5.801541238876551, 2.631101403424717, 0};
Point(p16 + 37) = {5.848671280299199, 2.708010641034716, 0};
Point(p16 + 38) = {5.883189817261943, 2.791345761123449, 0};
Point(p16 + 39) = {5.904246888824303, 2.879054776460924, 0};
Spline(16) = {12, p16 + 1, p16 + 2, p16 + 3, p16 + 4, p16 + 5, p16 + 6, p16 + 7, p16 + 8, p16 + 9, p16 + 10, p16 + 11, p16 + 12, p16 + 13, p16 + 14, p16 + 15, p16 + 16, p16 + 17, p16 + 18, p16 + 19, p16 + 20, p16 + 21, p16 + 22, p16 + 23, p16 + 24, p16 + 25, p16 + 26, p16 + 27, p16 + 28, p16 + 29, p16 + 30, p16 + 31, p16 + 32, p16 + 33, p16 + 34, p16 + 35, p16 + 36, p16 + 37, p16 + 38, p16 + 39, 12};
Line(17) = {11, 8};
Line(18) = {12, 9};
Curve Loop(1) = {-1, 4, 3, -2};
Plane Surface(1) = {1};
Curve Loop(2) = {-5, 1, 7, -6};
Plane Surface(2) = {2};
Curve Loop(3) = {-2, 7, 9, -8, -10, -11};
Plane Surface(3) = {3};
Curve Loop(4) = {-12, 3, 8, -13};
Plane Surface(4) = {4};
Curve Loop(5) = {-4, 5, 14, -12, -15, -16};
Plane Surface(5) = {5};
Curve Loop(6) = {-6, 14, 13, -9};
Plane Surface(6) = {6};
Curve Loop(7) = {-10, -17, 15, 17};
Surface(7) = {7};
Curve Loop(8) = {-11, -18, 16, 18};
Surface(8) = {8};
Surface Loop(1) = {1, 2, 3, 4, 5, 6, 7, 8};
Volume(1) = {1};
Physical Surface("INFLOW") = {1};
Physical Surface("OUTFLOW") = {6};
Physical Surface("OBSTACLE") = {7, 8};
Physical Surface("WALL_Y") = {2, 4};
Physical Surface("WALL_Z") = {3, 5};
Physical Volume("FLUID") = {1};
