cl__1 = 3.096756;
cl__2 = 0.445506;
cl__3 = 0.290213;
cl__4 = 0.12937;
Point(1) = {0.319588, -4.080289, 1, cl__1};
Point(2) = {0.319588, -4.080289, 0, cl__1};
Point(3) = {0.319588, 4.775139, 1, cl__1};
Point(4) = {0.319588, 4.775139, 0, cl__1};
Point(5) = {30.649391, -4.080289, 0, cl__2};
Point(6) = {30.649391, -4.080289, 1, cl__2};
Point(7) = {30.649391, 4.775139, 1, cl__3};
Point(8) = {29.715626, 1.219393, 1, cl__4};
Point(9) = {30.649391, 4.775139, 0, cl__3};
Point(10) = {29.715626, 1.219393, 0, cl__4};
Line(1) = {2, 1};
Line(2) = {1, 3};
Line(3) = {4, 3};
Line(4) = {2, 4};
Line(5) = {2, 5};
Line(6) = {5, 6};
Line(7) = {1, 6};
Line(8) = {3, 7};
Line(9) = {6, 7};
p10 = newp;
Point(p10 + 1) = {29.69969845547457, 1.421771641684686, 1};
Point(p10 + 2) = {29.65230801090497, 1.619167049554892, 1};
Point(p10 + 3) = {29.5746215763164, 1.806718693551053, 1};
Point(p10 + 4) = {29.46855204955489, 1.979808429749763, 1};
Point(p10 + 5) = {29.33671121439391, 2.134174214393912, 1};
Point(p10 + 6) = {29.18234542974976, 2.266015049554892, 1};
Point(p10 + 7) = {29.00925569355105, 2.372084576316395, 1};
Point(p10 + 8) = {28.82170404955489, 2.449771010904975, 1};
Point(p10 + 9) = {28.62430864168469, 2.497161455474568, 1};
Point(p10 + 10) = {28.42193, 2.513089, 1};
Point(p10 + 11) = {28.21955135831531, 2.497161455474567, 1};
Point(p10 + 12) = {28.02215595044511, 2.449771010904975, 1};
Point(p10 + 13) = {27.83460430644895, 2.372084576316395, 1};
Point(p10 + 14) = {27.66151457025024, 2.266015049554892, 1};
Point(p10 + 15) = {27.50714878560609, 2.134174214393912, 1};
Point(p10 + 16) = {27.37530795044511, 1.979808429749763, 1};
Point(p10 + 17) = {27.2692384236836, 1.806718693551053, 1};
Point(p10 + 18) = {27.19155198909503, 1.619167049554892, 1};
Point(p10 + 19) = {27.14416154452543, 1.421771641684687, 1};
Point(p10 + 20) = {27.128234, 1.219393, 1};
Point(p10 + 21) = {27.14416154452543, 1.017014358315314, 1};
Point(p10 + 22) = {27.19155198909503, 0.8196189504451076, 1};
Point(p10 + 23) = {27.2692384236836, 0.6320673064489479, 1};
Point(p10 + 24) = {27.37530795044511, 0.4589775702502368, 1};
Point(p10 + 25) = {27.50714878560609, 0.3046117856060883, 1};
Point(p10 + 26) = {27.66151457025024, 0.172770950445108, 1};
Point(p10 + 27) = {27.83460430644895, 0.06670142368360543, 1};
Point(p10 + 28) = {28.02215595044511, -0.01098501090497495, 1};
Point(p10 + 29) = {28.21955135831531, -0.05837545547456724, 1};
Point(p10 + 30) = {28.42193, -0.07430300000000001, 1};
Point(p10 + 31) = {28.62430864168469, -0.05837545547456746, 1};
Point(p10 + 32) = {28.82170404955489, -0.01098501090497517, 1};
Point(p10 + 33) = {29.00925569355105, 0.06670142368360521, 1};
Point(p10 + 34) = {29.18234542974976, 0.1727709504451078, 1};
Point(p10 + 35) = {29.33671121439391, 0.304611785606088, 1};
Point(p10 + 36) = {29.46855204955489, 0.4589775702502363, 1};
Point(p10 + 37) = {29.5746215763164, 0.632067306448947, 1};
Point(p10 + 38) = {29.65230801090497, 0.8196189504451077, 1};
Point(p10 + 39) = {29.69969845547457, 1.017014358315313, 1};
Spline(10) = {8, p10 + 1, p10 + 2, p10 + 3, p10 + 4, p10 + 5, p10 + 6, p10 + 7, p10 + 8, p10 + 9, p10 + 10, p10 + 11, p10 + 12, p10 + 13, p10 + 14, p10 + 15, p10 + 16, p10 + 17, p10 + 18, p10 + 19, p10 + 20, p10 + 21, p10 + 22, p10 + 23, p10 + 24, p10 + 25, p10 + 26, p10 + 27, p10 + 28, p10 + 29, p10 + 30, p10 + 31, p10 + 32, p10 + 33, p10 + 34, p10 + 35, p10 + 36, p10 + 37, p10 + 38, p10 + 39, 8};
Line(11) = {4, 9};
Line(12) = {9, 7};
Line(13) = {5, 9};
p14 = newp;
Point(p14 + 1) = {29.69969845547457, 1.421771641684686, 0};
Point(p14 + 2) = {29.65230801090497, 1.619167049554892, 0};
Point(p14 + 3) = {29.5746215763164, 1.806718693551053, 0};
Point(p14 + 4) = {29.46855204955489, 1.979808429749763, 0};
Point(p14 + 5) = {29.33671121439391, 2.134174214393912, 0};
Point(p14 + 6) = {29.18234542974976, 2.266015049554892, 0};
Point(p14 + 7) = {29.00925569355105, 2.372084576316395, 0};
Point(p14 + 8) = {28.82170404955489, 2.449771010904975, 0};
Point(p14 + 9) = {28.62430864168469, 2.497161455474568, 0};
Point(p14 + 10) = {28.42193, 2.513089, 0};
Point(p14 + 11) = {28.21955135831531, 2.497161455474567, 0};
Point(p14 + 12) = {28.02215595044511, 2.449771010904975, 0};
Point(p14 + 13) = {27.83460430644895, 2.372084576316395, 0};
Point(p14 + 14) = {27.66151457025024, 2.266015049554892, 0};
Point(p14 + 15) = {27.50714878560609, 2.134174214393912, 0};
Point(p14 + 16) = {27.37530795044511, 1.979808429749763, 0};
Point(p14 + 17) = {27.2692384236836, 1.806718693551053, 0};
Point(p14 + 18) = {27.19155198909503, 1.619167049554892, 0};
Point(p14 + 19) = {27.14416154452543, 1.421771641684687, 0};
Point(p14 + 20) = {27.128234, 1.219393, 0};
Point(p14 + 21) = {27.14416154452543, 1.017014358315314, 0};
Point(p14 + 22) = {27.19155198909503, 0.8196189504451076, 0};
Point(p14 + 23) = {27.2692384236836, 0.6320673064489479, 0};
Point(p14 + 24) = {27.37530795044511, 0.4589775702502368, 0};
Point(p14 + 25) = {27.50714878560609, 0.3046117856060883, 0};
Point(p14 + 26) = {27.66151457025024, 0.172770950445108, 0};
Point(p14 + 27) = {27.83460430644895, 0.06670142368360543, 0};
Point(p14 + 28) = {28.02215595044511, -0.01098501090497495, 0};
Point(p14 + 29) = {28.21955135831531, -0.05837545547456724, 0};
Point(p14 + 30) = {28.42193, -0.07430300000000001, 0};
Point(p14 + 31) = {28.62430864168469, -0.05837545547456746, 0};
Point(p14 + 32) = {28.82170404955489, -0.01098501090497517, 0};
Point(p14 + 33) = {29.00925569355105, 0.06670142368360521, 0};
Point(p14 + 34) = {29.18234542974976, 0.1727709504451078, 0};
Point(p14 + 35) = {29.33671121439391, 0.304611785606088, 0};
Point(p14 + 36) = {29.46855204955489, 0.4589775702502363, 0};
Point(p14 + 37) = {29.5746215763164, 0.632067306448947, 0};
Point(p14 + 38) = {29.65230801090497, 0.8196189504451077, 0};
Point(p14 + 39) = {29.69969845547457, 1.017014358315313, 0};
Spline(14) = {10, p14 + 1, p14 + 2, p14 + 3, p14 + 4, p14 + 5, p14 + 6, p14 + 7, p14 + 8, p14 + 9, p14 + 10, p14 + 11, p14 + 12, p14 + 13, p14 + 14, p14 + 15, p14 + 16, p14 + 17, p14 + 18, p14 + 19, p14 + 20, p14 + 21, p14 + 22, p14 + 23, p14 + 24, p14 + 25, p14 + 26, p14 + 27, p14 + 28, p14 + 29, p14 + 30, p14 + 31, p14 + 32, p14 + 33, p14 + 34, p14 + 35, p14 + 36, p14 + 37, p14 + 38, p14 + 39, 10};
Line(15) = {10, 8};
Curve Loop(1) = {-1, 4, 3, -2};
Plane Surface(1) = {1};
Curve Loop(2) = {-5, 1, 7, -6};
Plane Surface(2) = {2};
Curve Loop(3) = {-2, 7, 9, -8, -10};
Plane Surface(3) = {3};
Curve Loop(4) = {-11, 3, 8, -12};
Plane Surface(4) = {4};
Curve Loop(5) = {-4, 5, 13, -11, -14};
Plane Surface(5) = {5};
Curve Loop(6) = {-6, 13, 12, -9};
Plane Surface(6) = {6};
Curve Loop(7) = {-10, -15, 14, 15};
Surface(7) = {7};
Surface Loop(1) = {1, 2, 3, 4, 5, 6, 7};
Volume(1) = {1};
Physical Surface("INFLOW") = {1};
Physical Surface("OUTFLOW") = {6};
Physical Surface("OBSTACLE") = {7};
Physical Surface("WALL_Y") = {2, 4};
Physical Surface("WALL_Z") = {3, 5};
Physical Volume("FLUID") = {1};
