cl__1 = 1.283475;
cl__2 = 1.239886;
cl__3 = 0.73871;
cl__4 = 0.872165;
cl__5 = 0.114226;
cl__6 = 0.071086;
Point(1) = {0.8620139999999999, -3.58849, 1, cl__1};
Point(2) = {0.8620139999999999, -3.58849, 0, cl__1};
Point(3) = {0.8620139999999999, 4.274186, 1, cl__2};
Point(4) = {0.8620139999999999, 4.274186, 0, cl__2};
Point(5) = {30.844014, -3.58849, 0, cl__3};
Point(6) = {30.844014, -3.58849, 1, cl__3};
Point(7) = {30.844014, 4.274186, 1, cl__4};
Point(8) = {23.792906, -1.218119, 1, cl__5};
Point(9) = {14.28793, 1.081705, 1, cl__6};
Point(10) = {30.844014, 4.274186, 0, cl__4};
Point(11) = {23.792906, -1.218119, 0, cl__5};
Point(12) = {14.28793, 1.081705, 0, cl__6};
Line(1) = {2, 1};
Line(2) = {1, 3};
Line(3) = {4, 3};
Line(4) = {2, 4};
Line(5) = {2, 5};
Line(6) = {5, 6};
Line(7) = {1, 6};
Line(8) = {3, 7};
Line(9) = {6, 7};
p10 = newp;
Point(p10 + 1) = {23.77884287161654, -1.039430011528681, 1};
Point(p10 + 2) = {23.73699976735982, -0.8651409389882782, 1};
Point(p10 + 3) = {23.66840700332593, -0.6995433577770056, 1};
Point(p10 + 4) = {23.57475356101172, -0.5467148299311473, 1};
Point(p10 + 5) = {23.45834549898493, -0.410418501015073, 1};
Point(p10 + 6) = {23.32204917006885, -0.2940104389882782, 1};
Point(p10 + 7) = {23.169220642223, -0.2003569966740708, 1};
Point(p10 + 8) = {23.00362306101172, -0.1317642326401816, 1};
Point(p10 + 9) = {22.82933398847132, -0.08992112838345734, 1};
Point(p10 + 10) = {22.650645, -0.07585799999999998, 1};
Point(p10 + 11) = {22.47195601152868, -0.08992112838345734, 1};
Point(p10 + 12) = {22.29766693898828, -0.1317642326401816, 1};
Point(p10 + 13) = {22.13206935777701, -0.2003569966740706, 1};
Point(p10 + 14) = {21.97924082993115, -0.2940104389882782, 1};
Point(p10 + 15) = {21.84294450101507, -0.4104185010150729, 1};
Point(p10 + 16) = {21.72653643898828, -0.5467148299311472, 1};
Point(p10 + 17) = {21.63288299667407, -0.6995433577770054, 1};
Point(p10 + 18) = {21.56429023264018, -0.865140938988278, 1};
Point(p10 + 19) = {21.52244712838346, -1.039430011528681, 1};
Point(p10 + 20) = {21.508384, -1.218119, 1};
Point(p10 + 21) = {21.52244712838346, -1.396807988471319, 1};
Point(p10 + 22) = {21.56429023264018, -1.571097061011722, 1};
Point(p10 + 23) = {21.63288299667407, -1.736694642222994, 1};
Point(p10 + 24) = {21.72653643898828, -1.889523170068852, 1};
Point(p10 + 25) = {21.84294450101507, -2.025819498984927, 1};
Point(p10 + 26) = {21.97924082993115, -2.142227561011722, 1};
Point(p10 + 27) = {22.13206935777701, -2.235881003325929, 1};
Point(p10 + 28) = {22.29766693898828, -2.304473767359818, 1};
Point(p10 + 29) = {22.47195601152868, -2.346316871616542, 1};
Point(p10 + 30) = {22.650645, -2.36038, 1};
Point(p10 + 31) = {22.82933398847132, -2.346316871616542, 1};
Point(p10 + 32) = {23.00362306101172, -2.304473767359818, 1};
Point(p10 + 33) = {23.169220642223, -2.235881003325929, 1};
Point(p10 + 34) = {23.32204917006885, -2.142227561011722, 1};
Point(p10 + 35) = {23.45834549898493, -2.025819498984927, 1};
Point(p10 + 36) = {23.57475356101172, -1.889523170068853, 1};
Point(p10 + 37) = {23.66840700332593, -1.736694642222995, 1};
Point(p10 + 38) = {23.73699976735982, -1.571097061011722, 1};
Point(p10 + 39) = {23.77884287161654, -1.396807988471319, 1};
Spline(10) = {8, p10 + 1, p10 + 2, p10 + 3, p10 + 4, p10 + 5, p10 + 6, p10 + 7, p10 + 8, p10 + 9, p10 + 10, p10 + 11, p10 + 12, p10 + 13, p10 + 14, p10 + 15, p10 + 16, p10 + 17, p10 + 18, p10 + 19, p10 + 20, p10 + 21, p10 + 22, p10 + 23, p10 + 24, p10 + 25, p10 + 26, p10 + 27, p10 + 28, p10 + 29, p10 + 30, p10 + 31, p10 + 32, p10 + 33, p10 + 34, p10 + 35, p10 + 36, p10 + 37, p10 + 38, p10 + 39, 8};
p11 = newp;
Point(p11 + 1) = {14.27917817073044, 1.192907534515103, 1};
Point(p11 + 2) = {14.25313818200402, 1.301371893570392, 1};
Point(p11 + 3) = {14.21045122476497, 1.404427324673355, 1};
Point(p11 + 4) = {14.15216839357039, 1.499536261088871, 1};
Point(p11 + 5) = {14.07972480515393, 1.584356805153925, 1};
Point(p11 + 6) = {13.99490426108887, 1.656800393570392, 1};
Point(p11 + 7) = {13.89979532467336, 1.715083224764971, 1};
Point(p11 + 8) = {13.79673989357039, 1.757770182004024, 1};
Point(p11 + 9) = {13.6882755345151, 1.783810170730438, 1};
Point(p11 + 10) = {13.577073, 1.792562, 1};
Point(p11 + 11) = {13.4658704654849, 1.783810170730438, 1};
Point(p11 + 12) = {13.35740610642961, 1.757770182004024, 1};
Point(p11 + 13) = {13.25435067532664, 1.715083224764971, 1};
Point(p11 + 14) = {13.15924173891113, 1.656800393570392, 1};
Point(p11 + 15) = {13.07442119484607, 1.584356805153925, 1};
Point(p11 + 16) = {13.00197760642961, 1.499536261088871, 1};
Point(p11 + 17) = {12.94369477523503, 1.404427324673355, 1};
Point(p11 + 18) = {12.90100781799598, 1.301371893570392, 1};
Point(p11 + 19) = {12.87496782926956, 1.192907534515103, 1};
Point(p11 + 20) = {12.866216, 1.081705, 1};
Point(p11 + 21) = {12.87496782926956, 0.9705024654848966, 1};
Point(p11 + 22) = {12.90100781799598, 0.8620381064296077, 1};
Point(p11 + 23) = {12.94369477523503, 0.7589826753266453, 1};
Point(p11 + 24) = {13.00197760642961, 0.6638737389111294, 1};
Point(p11 + 25) = {13.07442119484607, 0.5790531948460744, 1};
Point(p11 + 26) = {13.15924173891113, 0.5066096064296081, 1};
Point(p11 + 27) = {13.25435067532664, 0.4483267752350294, 1};
Point(p11 + 28) = {13.35740610642961, 0.405639817995976, 1};
Point(p11 + 29) = {13.4658704654849, 0.3795998292695622, 1};
Point(p11 + 30) = {13.577073, 0.370848, 1};
Point(p11 + 31) = {13.6882755345151, 0.3795998292695622, 1};
Point(p11 + 32) = {13.79673989357039, 0.4056398179959759, 1};
Point(p11 + 33) = {13.89979532467336, 0.4483267752350293, 1};
Point(p11 + 34) = {13.99490426108887, 0.5066096064296078, 1};
Point(p11 + 35) = {14.07972480515393, 0.5790531948460742, 1};
Point(p11 + 36) = {14.15216839357039, 0.6638737389111292, 1};
Point(p11 + 37) = {14.21045122476497, 0.7589826753266449, 1};
Point(p11 + 38) = {14.25313818200402, 0.8620381064296078, 1};
Point(p11 + 39) = {14.27917817073044, 0.9705024654848964, 1};
Spline(11) = {9, p11 + 1, p11 + 2, p11 + 3, p11 + 4, p11 + 5, p11 + 6, p11 + 7, p11 + 8, p11 + 9, p11 + 10, p11 + 11, p11 + 12, p11 + 13, p11 + 14, p11 + 15, p11 + 16, p11 + 17, p11 + 18, p11 + 19, p11 + 20, p11 + 21, p11 + 22, p11 + 23, p11 + 24, p11 + 25, p11 + 26, p11 + 27, p11 + 28, p11 + 29, p11 + 30, p11 + 31, p11 + 32, p11 + 33, p11 + 34, p11 + 35, p11 + 36, p11 + 37, p11 + 38, p11 + 39, 9};
Line(12) = {4, 10};
Line(13) = {10, 7};
Line(14) = {5, 10};
p15 = newp;
Point(p15 + 1) = {23.77884287161654, -1.039430011528681, 0};
Point(p15 + 2) = {23.73699976735982, -0.8651409389882782, 0};
Point(p15 + 3) = {23.66840700332593, -0.6995433577770056, 0};
Point(p15 + 4) = {23.57475356101172, -0.5467148299311473, 0};
Point(p15 + 5) = {23.45834549898493, -0.410418501015073, 0};
Point(p15 + 6) = {23.32204917006885, -0.2940104389882782, 0};
Point(p15 + 7) = {23.169220642223, -0.2003569966740708, 0};
Point(p15 + 8) = {23.00362306101172, -0.1317642326401816, 0};
Point(p15 + 9) = {22.82933398847132, -0.08992112838345734, 0};
Point(p15 + 10) = {22.650645, -0.07585799999999998, 0};
Point(p15 + 11) = {22.47195601152868, -0.08992112838345734, 0};
Point(p15 + 12) = {22.29766693898828, -0.1317642326401816, 0};
Point(p15 + 13) = {22.13206935777701, -0.2003569966740706, 0};
Point(p15 + 14) = {21.97924082993115, -0.2940104389882782, 0};
Point(p15 + 15) = {21.84294450101507, -0.4104185010150729, 0};
Point(p15 + 16) = {21.72653643898828, -0.5467148299311472, 0};
Point(p15 + 17) = {21.63288299667407, -0.6995433577770054, 0};
Point(p15 + 18) = {21.56429023264018, -0.865140938988278, 0};
Point(p15 + 19) = {21.52244712838346, -1.039430011528681, 0};
Point(p15 + 20) = {21.508384, -1.218119, 0};
Point(p15 + 21) = {21.52244712838346, -1.396807988471319, 0};
Point(p15 + 22) = {21.56429023264018, -1.571097061011722, 0};
Point(p15 + 23) = {21.63288299667407, -1.736694642222994, 0};
Point(p15 + 24) = {21.72653643898828, -1.889523170068852, 0};
Point(p15 + 25) = {21.84294450101507, -2.025819498984927, 0};
Point(p15 + 26) = {21.97924082993115, -2.142227561011722, 0};
Point(p15 + 27) = {22.13206935777701, -2.235881003325929, 0};
Point(p15 + 28) = {22.29766693898828, -2.304473767359818, 0};
Point(p15 + 29) = {22.47195601152868, -2.346316871616542, 0};
Point(p15 + 30) = {22.650645, -2.36038, 0};
Point(p15 + 31) = {22.82933398847132, -2.346316871616542, 0};
Point(p15 + 32) = {23.00362306101172, -2.304473767359818, 0};
Point(p15 + 33) = {23.169220642223, -2.235881003325929, 0};
Point(p15 + 34) = {23.32204917006885, -2.142227561011722, 0};
Point(p15 + 35) = {23.45834549898493, -2.025819498984927, 0};
Point(p15 + 36) = {23.57475356101172, -1.889523170068853, 0};
Point(p15 + 37) = {23.66840700332593, -1.736694642222995, 0};
Point(p15 + 38) = {23.73699976735982, -1.571097061011722, 0};
Point(p15 + 39) = {23.77884287161654, -1.396807988471319, 0};
Spline(15) = {11, p15 + 1, p15 + 2, p15 + 3, p15 + 4, p15 + 5, p15 + 6, p15 + 7, p15 + 8, p15 + 9, p15 + 10, p15 + 11, p15 + 12, p15 + 13, p15 + 14, p15 + 15, p15 + 16, p15 + 17, p15 + 18, p15 + 19, p15 + 20, p15 + 21, p15 + 22, p15 + 23, p15 + 24, p15 + 25, p15 + 26, p15 + 27, p15 + 28, p15 + 29, p15 + 30, p15 + 31, p15 + 32, p15 + 33, p15 + 34, p15 + 35, p15 + 36, p15 + 37, p15 + 38, p15 + 39, 11};
p16 = newp;
Point(p16 + 1) = {14.27917817073044, 1.192907534515103, 0};
Point(p16 + 2) = {14.25313818200402, 1.301371893570392, 0};
Point(p16 + 3) = {14.21045122476497, 1.404427324673355, 0};
Point(p16 + 4) = {14.15216839357039, 1.499536261088871, 0};
Point(p16 + 5) = {14.07972480515393, 1.584356805153925, 0};
Point(p16 + 6) = {13.99490426108887, 1.656800393570392, 0};
Point(p16 + 7) = {13.89979532467336, 1.715083224764971, 0};
Point(p16 + 8) = {13.79673989357039, 1.757770182004024, 0};
Point(p16 + 9) = {13.6882755345151, 1.783810170730438, 0};
Point(p16 + 10) = {13.577073, 1.792562, 0};
Point(p16 + 11) = {13.4658704654849, 1.783810170730438, 0};
Point(p16 + 12) = {13.35740610642961, 1.757770182004024, 0};
Point(p16 + 13) = {13.25435067532664, 1.715083224764971, 0};
Point(p16 + 14) = {13.15924173891113, 1.656800393570392, 0};
Point(p16 + 15) = {13.07442119484607, 1.584356805153925, 0};
Point(p16 + 16) = {13.00197760642961, 1.499536261088871, 0};
Point(p16 + 17) = {12.94369477523503, 1.404427324673355, 0};
Point(p16 + 18) = {12.90100781799598, 1.301371893570392, 0};
Point(p16 + 19) = {12.87496782926956, 1.192907534515103, 0};
Point(p16 + 20) = {12.866216, 1.081705, 0};
Point(p16 + 21) = {12.87496782926956, 0.9705024654848966, 0};
Point(p16 + 22) = {12.90100781799598, 0.8620381064296077, 0};
Point(p16 + 23) = {12.94369477523503, 0.7589826753266453, 0};
Point(p16 + 24) = {13.00197760642961, 0.6638737389111294, 0};
Point(p16 + 25) = {13.07442119484607, 0.5790531948460744, 0};
Point(p16 + 26) = {13.15924173891113, 0.5066096064296081, 0};
Point(p16 + 27) = {13.25435067532664, 0.4483267752350294, 0};
Point(p16 + 28) = {13.35740610642961, 0.405639817995976, 0};
Point(p16 + 29) = {13.4658704654849, 0.3795998292695622, 0};
Point(p16 + 30) = {13.577073, 0.370848, 0};
Point(p16 + 31) = {13.6882755345151, 0.3795998292695622, 0};
Point(p16 + 32) = {13.79673989357039, 0.4056398179959759, 0};
Point(p16 + 33) = {13.89979532467336, 0.4483267752350293, 0};
Point(p16 + 34) = {13.99490426108887, 0.5066096064296078, 0};
Point(p16 + 35) = {14.07972480515393, 0.5790531948460742, 0};
Point(p16 + 36) = {14.15216839357039, 0.6638737389111292, 0};
Point(p16 + 37) = {14.21045122476497, 0.7589826753266449, 0};
Point(p16 + 38) = {14.25313818200402, 0.8620381064296078, 0};
Point(p16 + 39) = {14.27917817073044, 0.9705024654848964, 0};
Spline(16) = {12, p16 + 1, p16 + 2, p16 + 3, p16 + 4, p16 + 5, p16 + 6, p16 + 7, p16 + 8, p16 + 9, p16 + 10, p16 + 11, p16 + 12, p16 + 13, p16 + 14, p16 + 15, p16 + 16, p16 + 17, p16 + 18, p16 + 19, p16 + 20, p16 + 21, p16 + 22, p16 + 23, p16 + 24, p16 + 25, p16 + 26, p16 + 27, p16 + 28, p16 + 29, p16 + 30, p16 + 31, p16 + 32, p16 + 33, p16 + 34, p16 + 35, p16 + 36, p16 + 37, p16 + 38, p16 + 39, 12};
Line(17) = {11, 8};
Line(18) = {12, 9};
Curve Loop(1) = {-1, 4, 3, -2};
Plane Surface(1) = {1};
Curve Loop(2) = {-5, 1, 7, -6};
Plane Surface(2) = {2};
Curve Loop(3) = {-2, 7, 9, -8, -10, -11};
Plane Surface(3) = {3};
Curve Loop(4) = {-12, 3, 8, -13};
Plane Surface(4) = {4};
Curve Loop(5) = {-4, 5, 14, -12, -15, -16};
Plane Surface(5) = {5};
Curve Loop(6) = {-6, 14, 13, -9};
Plane Surface(6) = {6};
Curve Loop(7) = {-10, -17, 15, 17};
Surface(7) = {7};
Curve Loop(8) = {-11, -18, 16, 18};
Surface(8) = {8};
Surface Loop(1) = {1, 2, 3, 4, 5, 6, 7, 8};
Volume(1) = {1};
Physical Surface("INFLOW") = {1};
Physical Surface("OUTFLOW") = {6};
Physical Surface("OBSTACLE") = {7, 8};
Physical Surface("WALL_Y") = {2, 4};
Physical Surface("WALL_Z") = {3, 5};
Physical Volume("FLUID") = {1};
