cl__1 = 1;
cl__2 = 0.08047799999999999;
cl__3 = 0.051143;
Point(1) = {0.416522, -3.165566, 1, cl__1};
Point(2) = {0.416522, -3.165566, 0, cl__1};
Point(3) = {0.416522, 4.901228, 1, cl__1};
Point(4) = {0.416522, 4.901228, 0, cl__1};
Point(5) = {38.697865, -3.165566, 0, cl__1};
Point(6) = {38.697865, -3.165566, 1, cl__1};
Point(7) = {38.697865, 4.901228, 1, cl__1};
Point(8) = {30.889224, -0.9479530000000003, 1, cl__2};
Point(9) = {25.772595, 0.8252459999999999, 1, cl__3};
Point(10) = {38.697865, 4.901228, 0, cl__1};
Point(11) = {30.889224, -0.9479530000000003, 0, cl__2};
Point(12) = {25.772595, 0.8252459999999999, 0, cl__3};
Line(1) = {2, 1};
Line(2) = {1, 3};
Line(3) = {4, 3};
Line(4) = {2, 4};
Line(5) = {2, 5};
Line(6) = {5, 6};
Line(7) = {1, 6};
Line(8) = {3, 7};
Line(9) = {6, 7};
p10 = newp;
Point(p10 + 1) = {30.87931578580918, -0.822057201921528, 1};
Point(p10 + 2) = {30.84983511635356, -0.6992613762159468, 1};
Point(p10 + 3) = {30.80150790355589, -0.5825891636481084, 1};
Point(p10 + 4) = {30.73552412378406, -0.4749134213043066, 1};
Point(p10 + 5) = {30.65350851668365, -0.3788854833163467, 1};
Point(p10 + 6) = {30.5574805786957, -0.2968698762159467, 1};
Point(p10 + 7) = {30.44980483635189, -0.2308860964441128, 1};
Point(p10 + 8) = {30.33313262378406, -0.1825588836464375, 1};
Point(p10 + 9) = {30.21033679807847, -0.1530782141908232, 1};
Point(p10 + 10) = {30.084441, -0.14317, 1};
Point(p10 + 11) = {29.95854520192153, -0.1530782141908233, 1};
Point(p10 + 12) = {29.83574937621595, -0.1825588836464374, 1};
Point(p10 + 13) = {29.71907716364811, -0.2308860964441127, 1};
Point(p10 + 14) = {29.61140142130431, -0.2968698762159467, 1};
Point(p10 + 15) = {29.51537348331635, -0.3788854833163467, 1};
Point(p10 + 16) = {29.43335787621595, -0.4749134213043065, 1};
Point(p10 + 17) = {29.36737409644411, -0.5825891636481083, 1};
Point(p10 + 18) = {29.31904688364644, -0.6992613762159466, 1};
Point(p10 + 19) = {29.28956621419082, -0.8220572019215279, 1};
Point(p10 + 20) = {29.279658, -0.9479529999999999, 1};
Point(p10 + 21) = {29.28956621419082, -1.073848798078472, 1};
Point(p10 + 22) = {29.31904688364644, -1.196644623784054, 1};
Point(p10 + 23) = {29.36737409644411, -1.313316836351891, 1};
Point(p10 + 24) = {29.43335787621595, -1.420992578695693, 1};
Point(p10 + 25) = {29.51537348331635, -1.517020516683653, 1};
Point(p10 + 26) = {29.61140142130431, -1.599036123784053, 1};
Point(p10 + 27) = {29.71907716364811, -1.665019903555887, 1};
Point(p10 + 28) = {29.83574937621595, -1.713347116353563, 1};
Point(p10 + 29) = {29.95854520192153, -1.742827785809177, 1};
Point(p10 + 30) = {30.084441, -1.752736, 1};
Point(p10 + 31) = {30.21033679807847, -1.742827785809177, 1};
Point(p10 + 32) = {30.33313262378406, -1.713347116353563, 1};
Point(p10 + 33) = {30.44980483635189, -1.665019903555887, 1};
Point(p10 + 34) = {30.5574805786957, -1.599036123784054, 1};
Point(p10 + 35) = {30.65350851668365, -1.517020516683653, 1};
Point(p10 + 36) = {30.73552412378406, -1.420992578695694, 1};
Point(p10 + 37) = {30.80150790355589, -1.313316836351892, 1};
Point(p10 + 38) = {30.84983511635356, -1.196644623784054, 1};
Point(p10 + 39) = {30.87931578580918, -1.073848798078472, 1};
Spline(10) = {8, p10 + 1, p10 + 2, p10 + 3, p10 + 4, p10 + 5, p10 + 6, p10 + 7, p10 + 8, p10 + 9, p10 + 10, p10 + 11, p10 + 12, p10 + 13, p10 + 14, p10 + 15, p10 + 16, p10 + 17, p10 + 18, p10 + 19, p10 + 20, p10 + 21, p10 + 22, p10 + 23, p10 + 24, p10 + 25, p10 + 26, p10 + 27, p10 + 28, p10 + 29, p10 + 30, p10 + 31, p10 + 32, p10 + 33, p10 + 34, p10 + 35, p10 + 36, p10 + 37, p10 + 38, p10 + 39, 8};
p11 = newp;
Point(p11 + 1) = {25.76629839878393, 0.9052519041933855, 1};
Point(p11 + 2) = {25.7475636383549, 0.9832877975011569, 1};
Point(p11 + 3) = {25.71685203069175, 1.057432177243795, 1};
Point(p11 + 4) = {25.67491979750116, 1.125859362720949, 1};
Point(p11 + 5) = {25.62279944952936, 1.186884449529361, 1};
Point(p11 + 6) = {25.56177436272095, 1.239004797501157, 1};
Point(p11 + 7) = {25.4933471772438, 1.280937030691754, 1};
Point(p11 + 8) = {25.41920279750116, 1.311648638354896, 1};
Point(p11 + 9) = {25.34116690419339, 1.330383398783934, 1};
Point(p11 + 10) = {25.261161, 1.33668, 1};
Point(p11 + 11) = {25.18115509580662, 1.330383398783934, 1};
Point(p11 + 12) = {25.10311920249885, 1.311648638354896, 1};
Point(p11 + 13) = {25.0289748227562, 1.280937030691754, 1};
Point(p11 + 14) = {24.96054763727905, 1.239004797501157, 1};
Point(p11 + 15) = {24.89952255047064, 1.186884449529361, 1};
Point(p11 + 16) = {24.84740220249885, 1.125859362720949, 1};
Point(p11 + 17) = {24.80546996930825, 1.057432177243796, 1};
Point(p11 + 18) = {24.77475836164511, 0.9832877975011569, 1};
Point(p11 + 19) = {24.75602360121607, 0.9052519041933855, 1};
Point(p11 + 20) = {24.749727, 0.8252460000000001, 1};
Point(p11 + 21) = {24.75602360121607, 0.7452400958066147, 1};
Point(p11 + 22) = {24.77475836164511, 0.6672042024988429, 1};
Point(p11 + 23) = {24.80546996930825, 0.5930598227562049, 1};
Point(p11 + 24) = {24.84740220249885, 0.5246326372790513, 1};
Point(p11 + 25) = {24.89952255047064, 0.4636075504706393, 1};
Point(p11 + 26) = {24.96054763727905, 0.4114872024988432, 1};
Point(p11 + 27) = {25.0289748227562, 0.3695549693082463, 1};
Point(p11 + 28) = {25.10311920249885, 0.3388433616451044, 1};
Point(p11 + 29) = {25.18115509580662, 0.3201086012160663, 1};
Point(p11 + 30) = {25.261161, 0.313812, 1};
Point(p11 + 31) = {25.34116690419339, 0.3201086012160663, 1};
Point(p11 + 32) = {25.41920279750116, 0.3388433616451044, 1};
Point(p11 + 33) = {25.4933471772438, 0.3695549693082462, 1};
Point(p11 + 34) = {25.56177436272095, 0.4114872024988431, 1};
Point(p11 + 35) = {25.62279944952936, 0.4636075504706392, 1};
Point(p11 + 36) = {25.67491979750116, 0.5246326372790512, 1};
Point(p11 + 37) = {25.71685203069175, 0.5930598227562045, 1};
Point(p11 + 38) = {25.7475636383549, 0.667204202498843, 1};
Point(p11 + 39) = {25.76629839878393, 0.7452400958066144, 1};
Spline(11) = {9, p11 + 1, p11 + 2, p11 + 3, p11 + 4, p11 + 5, p11 + 6, p11 + 7, p11 + 8, p11 + 9, p11 + 10, p11 + 11, p11 + 12, p11 + 13, p11 + 14, p11 + 15, p11 + 16, p11 + 17, p11 + 18, p11 + 19, p11 + 20, p11 + 21, p11 + 22, p11 + 23, p11 + 24, p11 + 25, p11 + 26, p11 + 27, p11 + 28, p11 + 29, p11 + 30, p11 + 31, p11 + 32, p11 + 33, p11 + 34, p11 + 35, p11 + 36, p11 + 37, p11 + 38, p11 + 39, 9};
Line(12) = {4, 10};
Line(13) = {10, 7};
Line(14) = {5, 10};
p15 = newp;
Point(p15 + 1) = {30.87931578580918, -0.822057201921528, 0};
Point(p15 + 2) = {30.84983511635356, -0.6992613762159468, 0};
Point(p15 + 3) = {30.80150790355589, -0.5825891636481084, 0};
Point(p15 + 4) = {30.73552412378406, -0.4749134213043066, 0};
Point(p15 + 5) = {30.65350851668365, -0.3788854833163467, 0};
Point(p15 + 6) = {30.5574805786957, -0.2968698762159467, 0};
Point(p15 + 7) = {30.44980483635189, -0.2308860964441128, 0};
Point(p15 + 8) = {30.33313262378406, -0.1825588836464375, 0};
Point(p15 + 9) = {30.21033679807847, -0.1530782141908232, 0};
Point(p15 + 10) = {30.084441, -0.14317, 0};
Point(p15 + 11) = {29.95854520192153, -0.1530782141908233, 0};
Point(p15 + 12) = {29.83574937621595, -0.1825588836464374, 0};
Point(p15 + 13) = {29.71907716364811, -0.2308860964441127, 0};
Point(p15 + 14) = {29.61140142130431, -0.2968698762159467, 0};
Point(p15 + 15) = {29.51537348331635, -0.3788854833163467, 0};
Point(p15 + 16) = {29.43335787621595, -0.4749134213043065, 0};
Point(p15 + 17) = {29.36737409644411, -0.5825891636481083, 0};
Point(p15 + 18) = {29.31904688364644, -0.6992613762159466, 0};
Point(p15 + 19) = {29.28956621419082, -0.8220572019215279, 0};
Point(p15 + 20) = {29.279658, -0.9479529999999999, 0};
Point(p15 + 21) = {29.28956621419082, -1.073848798078472, 0};
Point(p15 + 22) = {29.31904688364644, -1.196644623784054, 0};
Point(p15 + 23) = {29.36737409644411, -1.313316836351891, 0};
Point(p15 + 24) = {29.43335787621595, -1.420992578695693, 0};
Point(p15 + 25) = {29.51537348331635, -1.517020516683653, 0};
Point(p15 + 26) = {29.61140142130431, -1.599036123784053, 0};
Point(p15 + 27) = {29.71907716364811, -1.665019903555887, 0};
Point(p15 + 28) = {29.83574937621595, -1.713347116353563, 0};
Point(p15 + 29) = {29.95854520192153, -1.742827785809177, 0};
Point(p15 + 30) = {30.084441, -1.752736, 0};
Point(p15 + 31) = {30.21033679807847, -1.742827785809177, 0};
Point(p15 + 32) = {30.33313262378406, -1.713347116353563, 0};
Point(p15 + 33) = {30.44980483635189, -1.665019903555887, 0};
Point(p15 + 34) = {30.5574805786957, -1.599036123784054, 0};
Point(p15 + 35) = {30.65350851668365, -1.517020516683653, 0};
Point(p15 + 36) = {30.73552412378406, -1.420992578695694, 0};
Point(p15 + 37) = {30.80150790355589, -1.313316836351892, 0};
Point(p15 + 38) = {30.84983511635356, -1.196644623784054, 0};
Point(p15 + 39) = {30.87931578580918, -1.073848798078472, 0};
Spline(15) = {11, p15 + 1, p15 + 2, p15 + 3, p15 + 4, p15 + 5, p15 + 6, p15 + 7, p15 + 8, p15 + 9, p15 + 10, p15 + 11, p15 + 12, p15 + 13, p15 + 14, p15 + 15, p15 + 16, p15 + 17, p15 + 18, p15 + 19, p15 + 20, p15 + 21, p15 + 22, p15 + 23, p15 + 24, p15 + 25, p15 + 26, p15 + 27, p15 + 28, p15 + 29, p15 + 30, p15 + 31, p15 + 32, p15 + 33, p15 + 34, p15 + 35, p15 + 36, p15 + 37, p15 + 38, p15 + 39, 11};
p16 = newp;
Point(p16 + 1) = {25.76629839878393, 0.9052519041933855, 0};
Point(p16 + 2) = {25.7475636383549, 0.9832877975011569, 0};
Point(p16 + 3) = {25.71685203069175, 1.057432177243795, 0};
Point(p16 + 4) = {25.67491979750116, 1.125859362720949, 0};
Point(p16 + 5) = {25.62279944952936, 1.186884449529361, 0};
Point(p16 + 6) = {25.56177436272095, 1.239004797501157, 0};
Point(p16 + 7) = {25.4933471772438, 1.280937030691754, 0};
Point(p16 + 8) = {25.41920279750116, 1.311648638354896, 0};
Point(p16 + 9) = {25.34116690419339, 1.330383398783934, 0};
Point(p16 + 10) = {25.261161, 1.33668, 0};
Point(p16 + 11) = {25.18115509580662, 1.330383398783934, 0};
Point(p16 + 12) = {25.10311920249885, 1.311648638354896, 0};
Point(p16 + 13) = {25.0289748227562, 1.280937030691754, 0};
Point(p16 + 14) = {24.96054763727905, 1.239004797501157, 0};
Point(p16 + 15) = {24.89952255047064, 1.186884449529361, 0};
Point(p16 + 16) = {24.84740220249885, 1.125859362720949, 0};
Point(p16 + 17) = {24.80546996930825, 1.057432177243796, 0};
Point(p16 + 18) = {24.77475836164511, 0.9832877975011569, 0};
Point(p16 + 19) = {24.75602360121607, 0.9052519041933855, 0};
Point(p16 + 20) = {24.749727, 0.8252460000000001, 0};
Point(p16 + 21) = {24.75602360121607, 0.7452400958066147, 0};
Point(p16 + 22) = {24.77475836164511, 0.6672042024988429, 0};
Point(p16 + 23) = {24.80546996930825, 0.5930598227562049, 0};
Point(p16 + 24) = {24.84740220249885, 0.5246326372790513, 0};
Point(p16 + 25) = {24.89952255047064, 0.4636075504706393, 0};
Point(p16 + 26) = {24.96054763727905, 0.4114872024988432, 0};
Point(p16 + 27) = {25.0289748227562, 0.3695549693082463, 0};
Point(p16 + 28) = {25.10311920249885, 0.3388433616451044, 0};
Point(p16 + 29) = {25.18115509580662, 0.3201086012160663, 0};
Point(p16 + 30) = {25.261161, 0.313812, 0};
Point(p16 + 31) = {25.34116690419339, 0.3201086012160663, 0};
Point(p16 + 32) = {25.41920279750116, 0.3388433616451044, 0};
Point(p16 + 33) = {25.4933471772438, 0.3695549693082462, 0};
Point(p16 + 34) = {25.56177436272095, 0.4114872024988431, 0};
Point(p16 + 35) = {25.62279944952936, 0.4636075504706392, 0};
Point(p16 + 36) = {25.67491979750116, 0.5246326372790512, 0};
Point(p16 + 37) = {25.71685203069175, 0.5930598227562045, 0};
Point(p16 + 38) = {25.7475636383549, 0.667204202498843, 0};
Point(p16 + 39) = {25.76629839878393, 0.7452400958066144, 0};
Spline(16) = {12, p16 + 1, p16 + 2, p16 + 3, p16 + 4, p16 + 5, p16 + 6, p16 + 7, p16 + 8, p16 + 9, p16 + 10, p16 + 11, p16 + 12, p16 + 13, p16 + 14, p16 + 15, p16 + 16, p16 + 17, p16 + 18, p16 + 19, p16 + 20, p16 + 21, p16 + 22, p16 + 23, p16 + 24, p16 + 25, p16 + 26, p16 + 27, p16 + 28, p16 + 29, p16 + 30, p16 + 31, p16 + 32, p16 + 33, p16 + 34, p16 + 35, p16 + 36, p16 + 37, p16 + 38, p16 + 39, 12};
Line(17) = {11, 8};
Line(18) = {12, 9};
Curve Loop(1) = {-1, 4, 3, -2};
Plane Surface(1) = {1};
Curve Loop(2) = {-5, 1, 7, -6};
Plane Surface(2) = {2};
Curve Loop(3) = {-2, 7, 9, -8, -10, -11};
Plane Surface(3) = {3};
Curve Loop(4) = {-12, 3, 8, -13};
Plane Surface(4) = {4};
Curve Loop(5) = {-4, 5, 14, -12, -15, -16};
Plane Surface(5) = {5};
Curve Loop(6) = {-6, 14, 13, -9};
Plane Surface(6) = {6};
Curve Loop(7) = {-10, -17, 15, 17};
Surface(7) = {7};
Curve Loop(8) = {-11, -18, 16, 18};
Surface(8) = {8};
Surface Loop(1) = {1, 2, 3, 4, 5, 6, 7, 8};
Volume(1) = {1};
Physical Surface("INFLOW") = {1};
Physical Surface("OUTFLOW") = {6};
Physical Surface("OBSTACLE") = {7, 8};
Physical Surface("WALL_Y") = {2, 4};
Physical Surface("WALL_Z") = {3, 5};
Physical Volume("FLUID") = {1};
