cl__1 = 1.000479;
cl__2 = 1.254444;
cl__3 = 3.158409;
cl__4 = 0.128462;
cl__5 = 0.07301100000000001;
Point(1) = {0.760602, -3.578269, 1, cl__1};
Point(2) = {0.760602, -3.578269, 0, cl__1};
Point(3) = {0.760602, 5.109936999999999, 1, cl__2};
Point(4) = {0.760602, 5.109936999999999, 0, cl__2};
Point(5) = {31.283914, -3.578269, 0, cl__1};
Point(6) = {31.283914, -3.578269, 1, cl__1};
Point(7) = {31.283914, 5.109936999999999, 1, cl__3};
Point(8) = {19.149082, -0.2374400000000003, 1, cl__4};
Point(9) = {11.306755, 0.7672439999999998, 1, cl__5};
Point(10) = {31.283914, 5.109936999999999, 0, cl__3};
Point(11) = {19.149082, -0.2374400000000003, 0, cl__4};
Point(12) = {11.306755, 0.7672439999999998, 0, cl__5};
Line(1) = {2, 1};
Line(2) = {1, 3};
Line(3) = {4, 3};
Line(4) = {2, 4};
Line(5) = {2, 5};
Line(6) = {5, 6};
Line(7) = {1, 6};
Line(8) = {3, 7};
Line(9) = {6, 7};
p10 = newp;
Point(p10 + 1) = {19.13326620840699, -0.03648131395448367, 1};
Point(p10 + 2) = {19.08620827090656, 0.1595291022969505, 1};
Point(p10 + 3) = {19.00906691009634, 0.3457648217849169, 1};
Point(p10 + 4) = {18.90374160229695, 0.5176401030147045, 1};
Point(p10 + 5) = {18.77282580614108, 0.6709228061410814, 1};
Point(p10 + 6) = {18.61954310301471, 0.8018386022969507, 1};
Point(p10 + 7) = {18.44766782178492, 0.9071639100963368, 1};
Point(p10 + 8) = {18.26143210229695, 0.9843052709065637, 1};
Point(p10 + 9) = {18.06542168604552, 1.031363208406985, 1};
Point(p10 + 10) = {17.864463, 1.047179, 1};
Point(p10 + 11) = {17.66350431395448, 1.031363208406985, 1};
Point(p10 + 12) = {17.46749389770305, 0.9843052709065639, 1};
Point(p10 + 13) = {17.28125817821508, 0.907163910096337, 1};
Point(p10 + 14) = {17.1093828969853, 0.8018386022969507, 1};
Point(p10 + 15) = {16.95610019385892, 0.6709228061410816, 1};
Point(p10 + 16) = {16.82518439770305, 0.5176401030147046, 1};
Point(p10 + 17) = {16.71985908990366, 0.345764821784917, 1};
Point(p10 + 18) = {16.64271772909344, 0.1595291022969507, 1};
Point(p10 + 19) = {16.59565979159301, -0.03648131395448354, 1};
Point(p10 + 20) = {16.579844, -0.2374399999999998, 1};
Point(p10 + 21) = {16.59565979159301, -0.4383986860455161, 1};
Point(p10 + 22) = {16.64271772909344, -0.634409102296951, 1};
Point(p10 + 23) = {16.71985908990366, -0.8206448217849162, 1};
Point(p10 + 24) = {16.82518439770305, -0.9925201030147044, 1};
Point(p10 + 25) = {16.95610019385892, -1.145802806141081, 1};
Point(p10 + 26) = {17.1093828969853, -1.276718602296951, 1};
Point(p10 + 27) = {17.28125817821508, -1.382043910096337, 1};
Point(p10 + 28) = {17.46749389770305, -1.459185270906564, 1};
Point(p10 + 29) = {17.66350431395448, -1.506243208406985, 1};
Point(p10 + 30) = {17.864463, -1.522059, 1};
Point(p10 + 31) = {18.06542168604552, -1.506243208406985, 1};
Point(p10 + 32) = {18.26143210229695, -1.459185270906564, 1};
Point(p10 + 33) = {18.44766782178492, -1.382043910096337, 1};
Point(p10 + 34) = {18.61954310301471, -1.276718602296951, 1};
Point(p10 + 35) = {18.77282580614108, -1.145802806141082, 1};
Point(p10 + 36) = {18.90374160229695, -0.9925201030147048, 1};
Point(p10 + 37) = {19.00906691009634, -0.820644821784917, 1};
Point(p10 + 38) = {19.08620827090656, -0.6344091022969508, 1};
Point(p10 + 39) = {19.13326620840699, -0.4383986860455166, 1};
Spline(10) = {8, p10 + 1, p10 + 2, p10 + 3, p10 + 4, p10 + 5, p10 + 6, p10 + 7, p10 + 8, p10 + 9, p10 + 10, p10 + 11, p10 + 12, p10 + 13, p10 + 14, p10 + 15, p10 + 16, p10 + 17, p10 + 18, p10 + 19, p10 + 20, p10 + 21, p10 + 22, p10 + 23, p10 + 24, p10 + 25, p10 + 26, p10 + 27, p10 + 28, p10 + 29, p10 + 30, p10 + 31, p10 + 32, p10 + 33, p10 + 34, p10 + 35, p10 + 36, p10 + 37, p10 + 38, p10 + 39, 8};
p11 = newp;
Point(p11 + 1) = {11.29776607279362, 0.8814591494428482, 1};
Point(p11 + 2) = {11.27102062839483, 0.9928619428480647, 1};
Point(p11 + 3) = {11.22717722840779, 1.098709273717339, 1};
Point(p11 + 4) = {11.16731544284806, 1.196394829477519, 1};
Point(p11 + 5) = {11.09290926754602, 1.283513267546016, 1};
Point(p11 + 6) = {11.00579082947752, 1.357919442848065, 1};
Point(p11 + 7) = {10.90810527371734, 1.41778122840779, 1};
Point(p11 + 8) = {10.80225794284806, 1.461624628394836, 1};
Point(p11 + 9) = {10.69085514944285, 1.488370072793619, 1};
Point(p11 + 10) = {10.57664, 1.497359, 1};
Point(p11 + 11) = {10.46242485055715, 1.488370072793619, 1};
Point(p11 + 12) = {10.35102205715194, 1.461624628394836, 1};
Point(p11 + 13) = {10.24517472628266, 1.41778122840779, 1};
Point(p11 + 14) = {10.14748917052248, 1.357919442848065, 1};
Point(p11 + 15) = {10.06037073245398, 1.283513267546016, 1};
Point(p11 + 16) = {9.985964557151934, 1.196394829477519, 1};
Point(p11 + 17) = {9.926102771592209, 1.098709273717339, 1};
Point(p11 + 18) = {9.882259371605164, 0.9928619428480648, 1};
Point(p11 + 19) = {9.855513927206381, 0.8814591494428483, 1};
Point(p11 + 20) = {9.846525, 0.7672440000000001, 1};
Point(p11 + 21) = {9.855513927206381, 0.653028850557152, 1};
Point(p11 + 22) = {9.882259371605164, 0.5416260571519351, 1};
Point(p11 + 23) = {9.926102771592209, 0.4357787262826612, 1};
Point(p11 + 24) = {9.985964557151934, 0.3380931705224811, 1};
Point(p11 + 25) = {10.06037073245398, 0.2509747324539839, 1};
Point(p11 + 26) = {10.14748917052248, 0.1765685571519354, 1};
Point(p11 + 27) = {10.24517472628266, 0.1167067715922099, 1};
Point(p11 + 28) = {10.35102205715194, 0.0728633716051641, 1};
Point(p11 + 29) = {10.46242485055715, 0.04611792720638119, 1};
Point(p11 + 30) = {10.57664, 0.03712900000000008, 1};
Point(p11 + 31) = {10.69085514944285, 0.04611792720638108, 1};
Point(p11 + 32) = {10.80225794284806, 0.07286337160516398, 1};
Point(p11 + 33) = {10.90810527371734, 0.1167067715922099, 1};
Point(p11 + 34) = {11.00579082947752, 0.1765685571519352, 1};
Point(p11 + 35) = {11.09290926754602, 0.2509747324539838, 1};
Point(p11 + 36) = {11.16731544284806, 0.3380931705224809, 1};
Point(p11 + 37) = {11.22717722840779, 0.4357787262826607, 1};
Point(p11 + 38) = {11.27102062839483, 0.5416260571519351, 1};
Point(p11 + 39) = {11.29776607279362, 0.6530288505571518, 1};
Spline(11) = {9, p11 + 1, p11 + 2, p11 + 3, p11 + 4, p11 + 5, p11 + 6, p11 + 7, p11 + 8, p11 + 9, p11 + 10, p11 + 11, p11 + 12, p11 + 13, p11 + 14, p11 + 15, p11 + 16, p11 + 17, p11 + 18, p11 + 19, p11 + 20, p11 + 21, p11 + 22, p11 + 23, p11 + 24, p11 + 25, p11 + 26, p11 + 27, p11 + 28, p11 + 29, p11 + 30, p11 + 31, p11 + 32, p11 + 33, p11 + 34, p11 + 35, p11 + 36, p11 + 37, p11 + 38, p11 + 39, 9};
Line(12) = {4, 10};
Line(13) = {10, 7};
Line(14) = {5, 10};
p15 = newp;
Point(p15 + 1) = {19.13326620840699, -0.03648131395448367, 0};
Point(p15 + 2) = {19.08620827090656, 0.1595291022969505, 0};
Point(p15 + 3) = {19.00906691009634, 0.3457648217849169, 0};
Point(p15 + 4) = {18.90374160229695, 0.5176401030147045, 0};
Point(p15 + 5) = {18.77282580614108, 0.6709228061410814, 0};
Point(p15 + 6) = {18.61954310301471, 0.8018386022969507, 0};
Point(p15 + 7) = {18.44766782178492, 0.9071639100963368, 0};
Point(p15 + 8) = {18.26143210229695, 0.9843052709065637, 0};
Point(p15 + 9) = {18.06542168604552, 1.031363208406985, 0};
Point(p15 + 10) = {17.864463, 1.047179, 0};
Point(p15 + 11) = {17.66350431395448, 1.031363208406985, 0};
Point(p15 + 12) = {17.46749389770305, 0.9843052709065639, 0};
Point(p15 + 13) = {17.28125817821508, 0.907163910096337, 0};
Point(p15 + 14) = {17.1093828969853, 0.8018386022969507, 0};
Point(p15 + 15) = {16.95610019385892, 0.6709228061410816, 0};
Point(p15 + 16) = {16.82518439770305, 0.5176401030147046, 0};
Point(p15 + 17) = {16.71985908990366, 0.345764821784917, 0};
Point(p15 + 18) = {16.64271772909344, 0.1595291022969507, 0};
Point(p15 + 19) = {16.59565979159301, -0.03648131395448354, 0};
Point(p15 + 20) = {16.579844, -0.2374399999999998, 0};
Point(p15 + 21) = {16.59565979159301, -0.4383986860455161, 0};
Point(p15 + 22) = {16.64271772909344, -0.634409102296951, 0};
Point(p15 + 23) = {16.71985908990366, -0.8206448217849162, 0};
Point(p15 + 24) = {16.82518439770305, -0.9925201030147044, 0};
Point(p15 + 25) = {16.95610019385892, -1.145802806141081, 0};
Point(p15 + 26) = {17.1093828969853, -1.276718602296951, 0};
Point(p15 + 27) = {17.28125817821508, -1.382043910096337, 0};
Point(p15 + 28) = {17.46749389770305, -1.459185270906564, 0};
Point(p15 + 29) = {17.66350431395448, -1.506243208406985, 0};
Point(p15 + 30) = {17.864463, -1.522059, 0};
Point(p15 + 31) = {18.06542168604552, -1.506243208406985, 0};
Point(p15 + 32) = {18.26143210229695, -1.459185270906564, 0};
Point(p15 + 33) = {18.44766782178492, -1.382043910096337, 0};
Point(p15 + 34) = {18.61954310301471, -1.276718602296951, 0};
Point(p15 + 35) = {18.77282580614108, -1.145802806141082, 0};
Point(p15 + 36) = {18.90374160229695, -0.9925201030147048, 0};
Point(p15 + 37) = {19.00906691009634, -0.820644821784917, 0};
Point(p15 + 38) = {19.08620827090656, -0.6344091022969508, 0};
Point(p15 + 39) = {19.13326620840699, -0.4383986860455166, 0};
Spline(15) = {11, p15 + 1, p15 + 2, p15 + 3, p15 + 4, p15 + 5, p15 + 6, p15 + 7, p15 + 8, p15 + 9, p15 + 10, p15 + 11, p15 + 12, p15 + 13, p15 + 14, p15 + 15, p15 + 16, p15 + 17, p15 + 18, p15 + 19, p15 + 20, p15 + 21, p15 + 22, p15 + 23, p15 + 24, p15 + 25, p15 + 26, p15 + 27, p15 + 28, p15 + 29, p15 + 30, p15 + 31, p15 + 32, p15 + 33, p15 + 34, p15 + 35, p15 + 36, p15 + 37, p15 + 38, p15 + 39, 11};
p16 = newp;
Point(p16 + 1) = {11.29776607279362, 0.8814591494428482, 0};
Point(p16 + 2) = {11.27102062839483, 0.9928619428480647, 0};
Point(p16 + 3) = {11.22717722840779, 1.098709273717339, 0};
Point(p16 + 4) = {11.16731544284806, 1.196394829477519, 0};
Point(p16 + 5) = {11.09290926754602, 1.283513267546016, 0};
Point(p16 + 6) = {11.00579082947752, 1.357919442848065, 0};
Point(p16 + 7) = {10.90810527371734, 1.41778122840779, 0};
Point(p16 + 8) = {10.80225794284806, 1.461624628394836, 0};
Point(p16 + 9) = {10.69085514944285, 1.488370072793619, 0};
Point(p16 + 10) = {10.57664, 1.497359, 0};
Point(p16 + 11) = {10.46242485055715, 1.488370072793619, 0};
Point(p16 + 12) = {10.35102205715194, 1.461624628394836, 0};
Point(p16 + 13) = {10.24517472628266, 1.41778122840779, 0};
Point(p16 + 14) = {10.14748917052248, 1.357919442848065, 0};
Point(p16 + 15) = {10.06037073245398, 1.283513267546016, 0};
Point(p16 + 16) = {9.985964557151934, 1.196394829477519, 0};
Point(p16 + 17) = {9.926102771592209, 1.098709273717339, 0};
Point(p16 + 18) = {9.882259371605164, 0.9928619428480648, 0};
Point(p16 + 19) = {9.855513927206381, 0.8814591494428483, 0};
Point(p16 + 20) = {9.846525, 0.7672440000000001, 0};
Point(p16 + 21) = {9.855513927206381, 0.653028850557152, 0};
Point(p16 + 22) = {9.882259371605164, 0.5416260571519351, 0};
Point(p16 + 23) = {9.926102771592209, 0.4357787262826612, 0};
Point(p16 + 24) = {9.985964557151934, 0.3380931705224811, 0};
Point(p16 + 25) = {10.06037073245398, 0.2509747324539839, 0};
Point(p16 + 26) = {10.14748917052248, 0.1765685571519354, 0};
Point(p16 + 27) = {10.24517472628266, 0.1167067715922099, 0};
Point(p16 + 28) = {10.35102205715194, 0.0728633716051641, 0};
Point(p16 + 29) = {10.46242485055715, 0.04611792720638119, 0};
Point(p16 + 30) = {10.57664, 0.03712900000000008, 0};
Point(p16 + 31) = {10.69085514944285, 0.04611792720638108, 0};
Point(p16 + 32) = {10.80225794284806, 0.07286337160516398, 0};
Point(p16 + 33) = {10.90810527371734, 0.1167067715922099, 0};
Point(p16 + 34) = {11.00579082947752, 0.1765685571519352, 0};
Point(p16 + 35) = {11.09290926754602, 0.2509747324539838, 0};
Point(p16 + 36) = {11.16731544284806, 0.3380931705224809, 0};
Point(p16 + 37) = {11.22717722840779, 0.4357787262826607, 0};
Point(p16 + 38) = {11.27102062839483, 0.5416260571519351, 0};
Point(p16 + 39) = {11.29776607279362, 0.6530288505571518, 0};
Spline(16) = {12, p16 + 1, p16 + 2, p16 + 3, p16 + 4, p16 + 5, p16 + 6, p16 + 7, p16 + 8, p16 + 9, p16 + 10, p16 + 11, p16 + 12, p16 + 13, p16 + 14, p16 + 15, p16 + 16, p16 + 17, p16 + 18, p16 + 19, p16 + 20, p16 + 21, p16 + 22, p16 + 23, p16 + 24, p16 + 25, p16 + 26, p16 + 27, p16 + 28, p16 + 29, p16 + 30, p16 + 31, p16 + 32, p16 + 33, p16 + 34, p16 + 35, p16 + 36, p16 + 37, p16 + 38, p16 + 39, 12};
Line(17) = {11, 8};
Line(18) = {12, 9};
Curve Loop(1) = {-1, 4, 3, -2};
Plane Surface(1) = {1};
Curve Loop(2) = {-5, 1, 7, -6};
Plane Surface(2) = {2};
Curve Loop(3) = {-2, 7, 9, -8, -10, -11};
Plane Surface(3) = {3};
Curve Loop(4) = {-12, 3, 8, -13};
Plane Surface(4) = {4};
Curve Loop(5) = {-4, 5, 14, -12, -15, -16};
Plane Surface(5) = {5};
Curve Loop(6) = {-6, 14, 13, -9};
Plane Surface(6) = {6};
Curve Loop(7) = {-10, -17, 15, 17};
Surface(7) = {7};
Curve Loop(8) = {-11, -18, 16, 18};
Surface(8) = {8};
Surface Loop(1) = {1, 2, 3, 4, 5, 6, 7, 8};
Volume(1) = {1};
Physical Surface("INFLOW") = {1};
Physical Surface("OUTFLOW") = {6};
Physical Surface("OBSTACLE") = {7, 8};
Physical Surface("WALL_Y") = {2, 4};
Physical Surface("WALL_Z") = {3, 5};
Physical Volume("FLUID") = {1};
