cl__1 = 0.834442;
cl__2 = 0.804924;
cl__3 = 3.131025;
cl__4 = 0.145817;
Point(1) = {0.8193009999999999, -2.817377, 1, cl__1};
Point(2) = {0.8193009999999999, -2.817377, 0, cl__1};
Point(3) = {0.8193009999999999, 4.746819, 1, cl__2};
Point(4) = {0.8193009999999999, 4.746819, 0, cl__2};
Point(5) = {31.080987, -2.817377, 0, cl__3};
Point(6) = {31.080987, -2.817377, 1, cl__3};
Point(7) = {31.080987, 4.746819, 1, cl__3};
Point(8) = {11.154112, 1.34149, 1, cl__4};
Point(9) = {31.080987, 4.746819, 0, cl__3};
Point(10) = {11.154112, 1.34149, 0, cl__4};
Line(1) = {2, 1};
Line(2) = {1, 3};
Line(3) = {4, 3};
Line(4) = {2, 4};
Line(5) = {2, 5};
Line(6) = {5, 6};
Line(7) = {1, 6};
Line(8) = {3, 7};
Line(9) = {6, 7};
p10 = newp;
Point(p10 + 1) = {11.13615947067063, 1.569598513191109, 1};
Point(p10 + 2) = {11.08274393353565, 1.7920902377387, 1};
Point(p10 + 3) = {10.99518065639532, 2.003486688976714, 1};
Point(p10 + 4) = {10.8756257377387, 2.198582584691072, 1};
Point(p10 + 5) = {10.72702301644313, 2.372574016443131, 1};
Point(p10 + 6) = {10.55303158469107, 2.5211767377387, 1};
Point(p10 + 7) = {10.35793568897671, 2.640731656395325, 1};
Point(p10 + 8) = {10.1465392377387, 2.728294933535653, 1};
Point(p10 + 9) = {9.924047513191107, 2.781710470670634, 1};
Point(p10 + 10) = {9.695938999999999, 2.799663, 1};
Point(p10 + 11) = {9.467830486808891, 2.781710470670633, 1};
Point(p10 + 12) = {9.2453387622613, 2.728294933535653, 1};
Point(p10 + 13) = {9.033942311023285, 2.640731656395325, 1};
Point(p10 + 14) = {8.838846415308927, 2.5211767377387, 1};
Point(p10 + 15) = {8.664854983556868, 2.372574016443131, 1};
Point(p10 + 16) = {8.516252262261299, 2.198582584691072, 1};
Point(p10 + 17) = {8.396697343604675, 2.003486688976714, 1};
Point(p10 + 18) = {8.309134066464345, 1.7920902377387, 1};
Point(p10 + 19) = {8.255718529329366, 1.569598513191109, 1};
Point(p10 + 20) = {8.237765999999999, 1.34149, 1};
Point(p10 + 21) = {8.255718529329366, 1.113381486808892, 1};
Point(p10 + 22) = {8.309134066464345, 0.8908897622612995, 1};
Point(p10 + 23) = {8.396697343604673, 0.6794933110232867, 1};
Point(p10 + 24) = {8.516252262261299, 0.4843974153089279, 1};
Point(p10 + 25) = {8.664854983556868, 0.3104059835568687, 1};
Point(p10 + 26) = {8.838846415308927, 0.1618032622612999, 1};
Point(p10 + 27) = {9.033942311023285, 0.04224834360467522, 1};
Point(p10 + 28) = {9.245338762261298, -0.04531493353565286, 1};
Point(p10 + 29) = {9.467830486808891, -0.09873047067063356, 1};
Point(p10 + 30) = {9.695938999999999, -0.1166829999999999, 1};
Point(p10 + 31) = {9.924047513191107, -0.09873047067063379, 1};
Point(p10 + 32) = {10.1465392377387, -0.04531493353565286, 1};
Point(p10 + 33) = {10.35793568897671, 0.04224834360467522, 1};
Point(p10 + 34) = {10.55303158469107, 0.1618032622612997, 1};
Point(p10 + 35) = {10.72702301644313, 0.3104059835568682, 1};
Point(p10 + 36) = {10.8756257377387, 0.4843974153089273, 1};
Point(p10 + 37) = {10.99518065639532, 0.6794933110232857, 1};
Point(p10 + 38) = {11.08274393353565, 0.8908897622612997, 1};
Point(p10 + 39) = {11.13615947067063, 1.113381486808891, 1};
Spline(10) = {8, p10 + 1, p10 + 2, p10 + 3, p10 + 4, p10 + 5, p10 + 6, p10 + 7, p10 + 8, p10 + 9, p10 + 10, p10 + 11, p10 + 12, p10 + 13, p10 + 14, p10 + 15, p10 + 16, p10 + 17, p10 + 18, p10 + 19, p10 + 20, p10 + 21, p10 + 22, p10 + 23, p10 + 24, p10 + 25, p10 + 26, p10 + 27, p10 + 28, p10 + 29, p10 + 30, p10 + 31, p10 + 32, p10 + 33, p10 + 34, p10 + 35, p10 + 36, p10 + 37, p10 + 38, p10 + 39, 8};
Line(11) = {4, 9};
Line(12) = {9, 7};
Line(13) = {5, 9};
p14 = newp;
Point(p14 + 1) = {11.13615947067063, 1.569598513191109, 0};
Point(p14 + 2) = {11.08274393353565, 1.7920902377387, 0};
Point(p14 + 3) = {10.99518065639532, 2.003486688976714, 0};
Point(p14 + 4) = {10.8756257377387, 2.198582584691072, 0};
Point(p14 + 5) = {10.72702301644313, 2.372574016443131, 0};
Point(p14 + 6) = {10.55303158469107, 2.5211767377387, 0};
Point(p14 + 7) = {10.35793568897671, 2.640731656395325, 0};
Point(p14 + 8) = {10.1465392377387, 2.728294933535653, 0};
Point(p14 + 9) = {9.924047513191107, 2.781710470670634, 0};
Point(p14 + 10) = {9.695938999999999, 2.799663, 0};
Point(p14 + 11) = {9.467830486808891, 2.781710470670633, 0};
Point(p14 + 12) = {9.2453387622613, 2.728294933535653, 0};
Point(p14 + 13) = {9.033942311023285, 2.640731656395325, 0};
Point(p14 + 14) = {8.838846415308927, 2.5211767377387, 0};
Point(p14 + 15) = {8.664854983556868, 2.372574016443131, 0};
Point(p14 + 16) = {8.516252262261299, 2.198582584691072, 0};
Point(p14 + 17) = {8.396697343604675, 2.003486688976714, 0};
Point(p14 + 18) = {8.309134066464345, 1.7920902377387, 0};
Point(p14 + 19) = {8.255718529329366, 1.569598513191109, 0};
Point(p14 + 20) = {8.237765999999999, 1.34149, 0};
Point(p14 + 21) = {8.255718529329366, 1.113381486808892, 0};
Point(p14 + 22) = {8.309134066464345, 0.8908897622612995, 0};
Point(p14 + 23) = {8.396697343604673, 0.6794933110232867, 0};
Point(p14 + 24) = {8.516252262261299, 0.4843974153089279, 0};
Point(p14 + 25) = {8.664854983556868, 0.3104059835568687, 0};
Point(p14 + 26) = {8.838846415308927, 0.1618032622612999, 0};
Point(p14 + 27) = {9.033942311023285, 0.04224834360467522, 0};
Point(p14 + 28) = {9.245338762261298, -0.04531493353565286, 0};
Point(p14 + 29) = {9.467830486808891, -0.09873047067063356, 0};
Point(p14 + 30) = {9.695938999999999, -0.1166829999999999, 0};
Point(p14 + 31) = {9.924047513191107, -0.09873047067063379, 0};
Point(p14 + 32) = {10.1465392377387, -0.04531493353565286, 0};
Point(p14 + 33) = {10.35793568897671, 0.04224834360467522, 0};
Point(p14 + 34) = {10.55303158469107, 0.1618032622612997, 0};
Point(p14 + 35) = {10.72702301644313, 0.3104059835568682, 0};
Point(p14 + 36) = {10.8756257377387, 0.4843974153089273, 0};
Point(p14 + 37) = {10.99518065639532, 0.6794933110232857, 0};
Point(p14 + 38) = {11.08274393353565, 0.8908897622612997, 0};
Point(p14 + 39) = {11.13615947067063, 1.113381486808891, 0};
Spline(14) = {10, p14 + 1, p14 + 2, p14 + 3, p14 + 4, p14 + 5, p14 + 6, p14 + 7, p14 + 8, p14 + 9, p14 + 10, p14 + 11, p14 + 12, p14 + 13, p14 + 14, p14 + 15, p14 + 16, p14 + 17, p14 + 18, p14 + 19, p14 + 20, p14 + 21, p14 + 22, p14 + 23, p14 + 24, p14 + 25, p14 + 26, p14 + 27, p14 + 28, p14 + 29, p14 + 30, p14 + 31, p14 + 32, p14 + 33, p14 + 34, p14 + 35, p14 + 36, p14 + 37, p14 + 38, p14 + 39, 10};
Line(15) = {10, 8};
Curve Loop(1) = {-1, 4, 3, -2};
Plane Surface(1) = {1};
Curve Loop(2) = {-5, 1, 7, -6};
Plane Surface(2) = {2};
Curve Loop(3) = {-2, 7, 9, -8, -10};
Plane Surface(3) = {3};
Curve Loop(4) = {-11, 3, 8, -12};
Plane Surface(4) = {4};
Curve Loop(5) = {-4, 5, 13, -11, -14};
Plane Surface(5) = {5};
Curve Loop(6) = {-6, 13, 12, -9};
Plane Surface(6) = {6};
Curve Loop(7) = {-10, -15, 14, 15};
Surface(7) = {7};
Surface Loop(1) = {1, 2, 3, 4, 5, 6, 7};
Volume(1) = {1};
Physical Surface("INFLOW") = {1};
Physical Surface("OUTFLOW") = {6};
Physical Surface("OBSTACLE") = {7};
Physical Surface("WALL_Y") = {2, 4};
Physical Surface("WALL_Z") = {3, 5};
Physical Volume("FLUID") = {1};
