cl__1 = 1;
cl__2 = 0.056921;
cl__3 = 0.080751;
Point(1) = {0.000572, -4.587217, 1, cl__1};
Point(2) = {0.000572, -4.587217, 0, cl__1};
Point(3) = {0.000572, 5.23553, 1, cl__1};
Point(4) = {0.000572, 5.23553, 0, cl__1};
Point(5) = {30.194768, -4.587217, 0, cl__1};
Point(6) = {30.194768, -4.587217, 1, cl__1};
Point(7) = {30.194768, 5.23553, 1, cl__1};
Point(8) = {3.155499, -0.1376120000000002, 1, cl__2};
Point(9) = {27.340317, 3.257866, 1, cl__3};
Point(10) = {30.194768, 5.23553, 0, cl__1};
Point(11) = {3.155499, -0.1376120000000002, 0, cl__2};
Point(12) = {27.340317, 3.257866, 0, cl__3};
Line(1) = {2, 1};
Line(2) = {1, 3};
Line(3) = {4, 3};
Line(4) = {2, 4};
Line(5) = {2, 5};
Line(6) = {5, 6};
Line(7) = {1, 6};
Line(8) = {3, 7};
Line(9) = {6, 7};
p10 = newp;
Point(p10 + 1) = {3.14849104341518, -0.04856746885105509, 1};
Point(p10 + 2) = {3.127639732809913, 0.03828449041914692, 1};
Point(p10 + 3) = {3.093458496652834, 0.1208052943282466, 1};
Point(p10 + 4) = {3.046788990419147, 0.1969630068131555, 1};
Point(p10 + 5) = {2.988780372239538, 0.2648823722395382, 1};
Point(p10 + 6) = {2.920861006813155, 0.3228909904191469, 1};
Point(p10 + 7) = {2.844703294328247, 0.3695604966528334, 1};
Point(p10 + 8) = {2.762182490419147, 0.4037417328099132, 1};
Point(p10 + 9) = {2.675330531148945, 0.4245930434151801, 1};
Point(p10 + 10) = {2.586286, 0.431601, 1};
Point(p10 + 11) = {2.497241468851055, 0.4245930434151801, 1};
Point(p10 + 12) = {2.410389509580853, 0.4037417328099133, 1};
Point(p10 + 13) = {2.327868705671754, 0.3695604966528335, 1};
Point(p10 + 14) = {2.251710993186844, 0.3228909904191469, 1};
Point(p10 + 15) = {2.183791627760462, 0.2648823722395383, 1};
Point(p10 + 16) = {2.125783009580853, 0.1969630068131555, 1};
Point(p10 + 17) = {2.079113503347167, 0.1208052943282467, 1};
Point(p10 + 18) = {2.044932267190087, 0.03828449041914697, 1};
Point(p10 + 19) = {2.02408095658482, -0.04856746885105502, 1};
Point(p10 + 20) = {2.017073, -0.1376119999999999, 1};
Point(p10 + 21) = {2.02408095658482, -0.2266565311489449, 1};
Point(p10 + 22) = {2.044932267190087, -0.3135084904191471, 1};
Point(p10 + 23) = {2.079113503347166, -0.3960292943282464, 1};
Point(p10 + 24) = {2.125783009580853, -0.4721870068131555, 1};
Point(p10 + 25) = {2.183791627760462, -0.5401063722395383, 1};
Point(p10 + 26) = {2.251710993186844, -0.598114990419147, 1};
Point(p10 + 27) = {2.327868705671753, -0.6447844966528333, 1};
Point(p10 + 28) = {2.410389509580853, -0.6789657328099132, 1};
Point(p10 + 29) = {2.497241468851055, -0.69981704341518, 1};
Point(p10 + 30) = {2.586286, -0.706825, 1};
Point(p10 + 31) = {2.675330531148945, -0.69981704341518, 1};
Point(p10 + 32) = {2.762182490419147, -0.6789657328099132, 1};
Point(p10 + 33) = {2.844703294328246, -0.6447844966528335, 1};
Point(p10 + 34) = {2.920861006813155, -0.598114990419147, 1};
Point(p10 + 35) = {2.988780372239538, -0.5401063722395383, 1};
Point(p10 + 36) = {3.046788990419147, -0.4721870068131556, 1};
Point(p10 + 37) = {3.093458496652833, -0.3960292943282467, 1};
Point(p10 + 38) = {3.127639732809913, -0.3135084904191471, 1};
Point(p10 + 39) = {3.14849104341518, -0.2266565311489451, 1};
Spline(10) = {8, p10 + 1, p10 + 2, p10 + 3, p10 + 4, p10 + 5, p10 + 6, p10 + 7, p10 + 8, p10 + 9, p10 + 10, p10 + 11, p10 + 12, p10 + 13, p10 + 14, p10 + 15, p10 + 16, p10 + 17, p10 + 18, p10 + 19, p10 + 20, p10 + 21, p10 + 22, p10 + 23, p10 + 24, p10 + 25, p10 + 26, p10 + 27, p10 + 28, p10 + 29, p10 + 30, p10 + 31, p10 + 32, p10 + 33, p10 + 34, p10 + 35, p10 + 36, p10 + 37, p10 + 38, p10 + 39, 8};
p11 = newp;
Point(p11 + 1) = {27.33037516266734, 3.384189020602497, 1};
Point(p11 + 2) = {27.30079445169957, 3.507401549195691, 1};
Point(p11 + 3) = {27.25230324237345, 3.62446968440668, 1};
Point(p11 + 4) = {27.18609554919569, 3.732510820219704, 1};
Point(p11 + 5) = {27.10380162530307, 3.828864625303074, 1};
Point(p11 + 6) = {27.00744782021971, 3.911158549195691, 1};
Point(p11 + 7) = {26.89940668440668, 3.977366242373446, 1};
Point(p11 + 8) = {26.78233854919569, 4.025857451699564, 1};
Point(p11 + 9) = {26.6591260206025, 4.055438162667341, 1};
Point(p11 + 10) = {26.532803, 4.06538, 1};
Point(p11 + 11) = {26.4064799793975, 4.055438162667341, 1};
Point(p11 + 12) = {26.28326745080431, 4.025857451699564, 1};
Point(p11 + 13) = {26.16619931559332, 3.977366242373446, 1};
Point(p11 + 14) = {26.0581581797803, 3.911158549195691, 1};
Point(p11 + 15) = {25.96180437469693, 3.828864625303074, 1};
Point(p11 + 16) = {25.87951045080431, 3.732510820219704, 1};
Point(p11 + 17) = {25.81330275762656, 3.62446968440668, 1};
Point(p11 + 18) = {25.76481154830044, 3.507401549195691, 1};
Point(p11 + 19) = {25.73523083733266, 3.384189020602497, 1};
Point(p11 + 20) = {25.725289, 3.257866, 1};
Point(p11 + 21) = {25.73523083733266, 3.131542979397503, 1};
Point(p11 + 22) = {25.76481154830044, 3.008330450804308, 1};
Point(p11 + 23) = {25.81330275762656, 2.89126231559332, 1};
Point(p11 + 24) = {25.87951045080431, 2.783221179780296, 1};
Point(p11 + 25) = {25.96180437469693, 2.686867374696926, 1};
Point(p11 + 26) = {26.0581581797803, 2.604573450804309, 1};
Point(p11 + 27) = {26.16619931559332, 2.538365757626554, 1};
Point(p11 + 28) = {26.28326745080431, 2.489874548300435, 1};
Point(p11 + 29) = {26.4064799793975, 2.460293837332658, 1};
Point(p11 + 30) = {26.532803, 2.450352, 1};
Point(p11 + 31) = {26.6591260206025, 2.460293837332658, 1};
Point(p11 + 32) = {26.78233854919569, 2.489874548300435, 1};
Point(p11 + 33) = {26.89940668440668, 2.538365757626554, 1};
Point(p11 + 34) = {27.00744782021971, 2.604573450804309, 1};
Point(p11 + 35) = {27.10380162530307, 2.686867374696926, 1};
Point(p11 + 36) = {27.18609554919569, 2.783221179780296, 1};
Point(p11 + 37) = {27.25230324237345, 2.891262315593319, 1};
Point(p11 + 38) = {27.30079445169957, 3.008330450804308, 1};
Point(p11 + 39) = {27.33037516266734, 3.131542979397503, 1};
Spline(11) = {9, p11 + 1, p11 + 2, p11 + 3, p11 + 4, p11 + 5, p11 + 6, p11 + 7, p11 + 8, p11 + 9, p11 + 10, p11 + 11, p11 + 12, p11 + 13, p11 + 14, p11 + 15, p11 + 16, p11 + 17, p11 + 18, p11 + 19, p11 + 20, p11 + 21, p11 + 22, p11 + 23, p11 + 24, p11 + 25, p11 + 26, p11 + 27, p11 + 28, p11 + 29, p11 + 30, p11 + 31, p11 + 32, p11 + 33, p11 + 34, p11 + 35, p11 + 36, p11 + 37, p11 + 38, p11 + 39, 9};
Line(12) = {4, 10};
Line(13) = {10, 7};
Line(14) = {5, 10};
p15 = newp;
Point(p15 + 1) = {3.14849104341518, -0.04856746885105509, 0};
Point(p15 + 2) = {3.127639732809913, 0.03828449041914692, 0};
Point(p15 + 3) = {3.093458496652834, 0.1208052943282466, 0};
Point(p15 + 4) = {3.046788990419147, 0.1969630068131555, 0};
Point(p15 + 5) = {2.988780372239538, 0.2648823722395382, 0};
Point(p15 + 6) = {2.920861006813155, 0.3228909904191469, 0};
Point(p15 + 7) = {2.844703294328247, 0.3695604966528334, 0};
Point(p15 + 8) = {2.762182490419147, 0.4037417328099132, 0};
Point(p15 + 9) = {2.675330531148945, 0.4245930434151801, 0};
Point(p15 + 10) = {2.586286, 0.431601, 0};
Point(p15 + 11) = {2.497241468851055, 0.4245930434151801, 0};
Point(p15 + 12) = {2.410389509580853, 0.4037417328099133, 0};
Point(p15 + 13) = {2.327868705671754, 0.3695604966528335, 0};
Point(p15 + 14) = {2.251710993186844, 0.3228909904191469, 0};
Point(p15 + 15) = {2.183791627760462, 0.2648823722395383, 0};
Point(p15 + 16) = {2.125783009580853, 0.1969630068131555, 0};
Point(p15 + 17) = {2.079113503347167, 0.1208052943282467, 0};
Point(p15 + 18) = {2.044932267190087, 0.03828449041914697, 0};
Point(p15 + 19) = {2.02408095658482, -0.04856746885105502, 0};
Point(p15 + 20) = {2.017073, -0.1376119999999999, 0};
Point(p15 + 21) = {2.02408095658482, -0.2266565311489449, 0};
Point(p15 + 22) = {2.044932267190087, -0.3135084904191471, 0};
Point(p15 + 23) = {2.079113503347166, -0.3960292943282464, 0};
Point(p15 + 24) = {2.125783009580853, -0.4721870068131555, 0};
Point(p15 + 25) = {2.183791627760462, -0.5401063722395383, 0};
Point(p15 + 26) = {2.251710993186844, -0.598114990419147, 0};
Point(p15 + 27) = {2.327868705671753, -0.6447844966528333, 0};
Point(p15 + 28) = {2.410389509580853, -0.6789657328099132, 0};
Point(p15 + 29) = {2.497241468851055, -0.69981704341518, 0};
Point(p15 + 30) = {2.586286, -0.706825, 0};
Point(p15 + 31) = {2.675330531148945, -0.69981704341518, 0};
Point(p15 + 32) = {2.762182490419147, -0.6789657328099132, 0};
Point(p15 + 33) = {2.844703294328246, -0.6447844966528335, 0};
Point(p15 + 34) = {2.920861006813155, -0.598114990419147, 0};
Point(p15 + 35) = {2.988780372239538, -0.5401063722395383, 0};
Point(p15 + 36) = {3.046788990419147, -0.4721870068131556, 0};
Point(p15 + 37) = {3.093458496652833, -0.3960292943282467, 0};
Point(p15 + 38) = {3.127639732809913, -0.3135084904191471, 0};
Point(p15 + 39) = {3.14849104341518, -0.2266565311489451, 0};
Spline(15) = {11, p15 + 1, p15 + 2, p15 + 3, p15 + 4, p15 + 5, p15 + 6, p15 + 7, p15 + 8, p15 + 9, p15 + 10, p15 + 11, p15 + 12, p15 + 13, p15 + 14, p15 + 15, p15 + 16, p15 + 17, p15 + 18, p15 + 19, p15 + 20, p15 + 21, p15 + 22, p15 + 23, p15 + 24, p15 + 25, p15 + 26, p15 + 27, p15 + 28, p15 + 29, p15 + 30, p15 + 31, p15 + 32, p15 + 33, p15 + 34, p15 + 35, p15 + 36, p15 + 37, p15 + 38, p15 + 39, 11};
p16 = newp;
Point(p16 + 1) = {27.33037516266734, 3.384189020602497, 0};
Point(p16 + 2) = {27.30079445169957, 3.507401549195691, 0};
Point(p16 + 3) = {27.25230324237345, 3.62446968440668, 0};
Point(p16 + 4) = {27.18609554919569, 3.732510820219704, 0};
Point(p16 + 5) = {27.10380162530307, 3.828864625303074, 0};
Point(p16 + 6) = {27.00744782021971, 3.911158549195691, 0};
Point(p16 + 7) = {26.89940668440668, 3.977366242373446, 0};
Point(p16 + 8) = {26.78233854919569, 4.025857451699564, 0};
Point(p16 + 9) = {26.6591260206025, 4.055438162667341, 0};
Point(p16 + 10) = {26.532803, 4.06538, 0};
Point(p16 + 11) = {26.4064799793975, 4.055438162667341, 0};
Point(p16 + 12) = {26.28326745080431, 4.025857451699564, 0};
Point(p16 + 13) = {26.16619931559332, 3.977366242373446, 0};
Point(p16 + 14) = {26.0581581797803, 3.911158549195691, 0};
Point(p16 + 15) = {25.96180437469693, 3.828864625303074, 0};
Point(p16 + 16) = {25.87951045080431, 3.732510820219704, 0};
Point(p16 + 17) = {25.81330275762656, 3.62446968440668, 0};
Point(p16 + 18) = {25.76481154830044, 3.507401549195691, 0};
Point(p16 + 19) = {25.73523083733266, 3.384189020602497, 0};
Point(p16 + 20) = {25.725289, 3.257866, 0};
Point(p16 + 21) = {25.73523083733266, 3.131542979397503, 0};
Point(p16 + 22) = {25.76481154830044, 3.008330450804308, 0};
Point(p16 + 23) = {25.81330275762656, 2.89126231559332, 0};
Point(p16 + 24) = {25.87951045080431, 2.783221179780296, 0};
Point(p16 + 25) = {25.96180437469693, 2.686867374696926, 0};
Point(p16 + 26) = {26.0581581797803, 2.604573450804309, 0};
Point(p16 + 27) = {26.16619931559332, 2.538365757626554, 0};
Point(p16 + 28) = {26.28326745080431, 2.489874548300435, 0};
Point(p16 + 29) = {26.4064799793975, 2.460293837332658, 0};
Point(p16 + 30) = {26.532803, 2.450352, 0};
Point(p16 + 31) = {26.6591260206025, 2.460293837332658, 0};
Point(p16 + 32) = {26.78233854919569, 2.489874548300435, 0};
Point(p16 + 33) = {26.89940668440668, 2.538365757626554, 0};
Point(p16 + 34) = {27.00744782021971, 2.604573450804309, 0};
Point(p16 + 35) = {27.10380162530307, 2.686867374696926, 0};
Point(p16 + 36) = {27.18609554919569, 2.783221179780296, 0};
Point(p16 + 37) = {27.25230324237345, 2.891262315593319, 0};
Point(p16 + 38) = {27.30079445169957, 3.008330450804308, 0};
Point(p16 + 39) = {27.33037516266734, 3.131542979397503, 0};
Spline(16) = {12, p16 + 1, p16 + 2, p16 + 3, p16 + 4, p16 + 5, p16 + 6, p16 + 7, p16 + 8, p16 + 9, p16 + 10, p16 + 11, p16 + 12, p16 + 13, p16 + 14, p16 + 15, p16 + 16, p16 + 17, p16 + 18, p16 + 19, p16 + 20, p16 + 21, p16 + 22, p16 + 23, p16 + 24, p16 + 25, p16 + 26, p16 + 27, p16 + 28, p16 + 29, p16 + 30, p16 + 31, p16 + 32, p16 + 33, p16 + 34, p16 + 35, p16 + 36, p16 + 37, p16 + 38, p16 + 39, 12};
Line(17) = {11, 8};
Line(18) = {12, 9};
Curve Loop(1) = {-1, 4, 3, -2};
Plane Surface(1) = {1};
Curve Loop(2) = {-5, 1, 7, -6};
Plane Surface(2) = {2};
Curve Loop(3) = {-2, 7, 9, -8, -10, -11};
Plane Surface(3) = {3};
Curve Loop(4) = {-12, 3, 8, -13};
Plane Surface(4) = {4};
Curve Loop(5) = {-4, 5, 14, -12, -15, -16};
Plane Surface(5) = {5};
Curve Loop(6) = {-6, 14, 13, -9};
Plane Surface(6) = {6};
Curve Loop(7) = {-10, -17, 15, 17};
Surface(7) = {7};
Curve Loop(8) = {-11, -18, 16, 18};
Surface(8) = {8};
Surface Loop(1) = {1, 2, 3, 4, 5, 6, 7, 8};
Volume(1) = {1};
Physical Surface("INFLOW") = {1};
Physical Surface("OUTFLOW") = {6};
Physical Surface("OBSTACLE") = {7, 8};
Physical Surface("WALL_Y") = {2, 4};
Physical Surface("WALL_Z") = {3, 5};
Physical Volume("FLUID") = {1};
