cl__1 = 3.525287;
cl__2 = 0.7525269999999999;
cl__3 = 0.583052;
cl__4 = 0.06387900000000001;
Point(1) = {0.02667, -3.991466, 1, cl__1};
Point(2) = {0.02667, -3.991466, 0, cl__1};
Point(3) = {0.02667, 4.097979, 1, cl__1};
Point(4) = {0.02667, 4.097979, 0, cl__1};
Point(5) = {35.020071, -3.991466, 0, cl__2};
Point(6) = {35.020071, -3.991466, 1, cl__2};
Point(7) = {35.020071, 4.097979, 1, cl__3};
Point(8) = {29.697103, 1.586114, 1, cl__4};
Point(9) = {35.020071, 4.097979, 0, cl__3};
Point(10) = {29.697103, 1.586114, 0, cl__4};
Line(1) = {2, 1};
Line(2) = {1, 3};
Line(3) = {4, 3};
Line(4) = {2, 4};
Line(5) = {2, 5};
Line(6) = {5, 6};
Line(7) = {1, 6};
Line(8) = {3, 7};
Line(9) = {6, 7};
p10 = newp;
Point(p10 + 1) = {29.68923839815379, 1.686043241226444, 1};
Point(p10 + 2) = {29.66583824521373, 1.783511892887756, 1};
Point(p10 + 3) = {29.62747873060586, 1.876119953300124, 1};
Point(p10 + 4) = {29.57510439288776, 1.961587104667666, 1};
Point(p10 + 5) = {29.5100048620745, 2.037808862074498, 1};
Point(p10 + 6) = {29.43378310466766, 2.102908392887756, 1};
Point(p10 + 7) = {29.34831595330012, 2.15528273060586, 1};
Point(p10 + 8) = {29.25570789288776, 2.19364224521373, 1};
Point(p10 + 9) = {29.15823924122644, 2.21704239815379, 1};
Point(p10 + 10) = {29.05831, 2.224907, 1};
Point(p10 + 11) = {28.95838075877355, 2.21704239815379, 1};
Point(p10 + 12) = {28.86091210711224, 2.19364224521373, 1};
Point(p10 + 13) = {28.76830404669987, 2.15528273060586, 1};
Point(p10 + 14) = {28.68283689533233, 2.102908392887756, 1};
Point(p10 + 15) = {28.6066151379255, 2.037808862074499, 1};
Point(p10 + 16) = {28.54151560711224, 1.961587104667666, 1};
Point(p10 + 17) = {28.48914126939414, 1.876119953300124, 1};
Point(p10 + 18) = {28.45078175478627, 1.783511892887756, 1};
Point(p10 + 19) = {28.42738160184621, 1.686043241226444, 1};
Point(p10 + 20) = {28.419517, 1.586114, 1};
Point(p10 + 21) = {28.42738160184621, 1.486184758773556, 1};
Point(p10 + 22) = {28.45078175478627, 1.388716107112244, 1};
Point(p10 + 23) = {28.48914126939414, 1.296108046699876, 1};
Point(p10 + 24) = {28.54151560711224, 1.210640895332334, 1};
Point(p10 + 25) = {28.6066151379255, 1.134419137925502, 1};
Point(p10 + 26) = {28.68283689533233, 1.069319607112244, 1};
Point(p10 + 27) = {28.76830404669987, 1.01694526939414, 1};
Point(p10 + 28) = {28.86091210711224, 0.97858575478627, 1};
Point(p10 + 29) = {28.95838075877355, 0.9551856018462102, 1};
Point(p10 + 30) = {29.05831, 0.947321, 1};
Point(p10 + 31) = {29.15823924122644, 0.9551856018462102, 1};
Point(p10 + 32) = {29.25570789288776, 0.9785857547862699, 1};
Point(p10 + 33) = {29.34831595330012, 1.01694526939414, 1};
Point(p10 + 34) = {29.43378310466766, 1.069319607112244, 1};
Point(p10 + 35) = {29.5100048620745, 1.134419137925502, 1};
Point(p10 + 36) = {29.57510439288776, 1.210640895332334, 1};
Point(p10 + 37) = {29.62747873060586, 1.296108046699876, 1};
Point(p10 + 38) = {29.66583824521373, 1.388716107112244, 1};
Point(p10 + 39) = {29.68923839815379, 1.486184758773556, 1};
Spline(10) = {8, p10 + 1, p10 + 2, p10 + 3, p10 + 4, p10 + 5, p10 + 6, p10 + 7, p10 + 8, p10 + 9, p10 + 10, p10 + 11, p10 + 12, p10 + 13, p10 + 14, p10 + 15, p10 + 16, p10 + 17, p10 + 18, p10 + 19, p10 + 20, p10 + 21, p10 + 22, p10 + 23, p10 + 24, p10 + 25, p10 + 26, p10 + 27, p10 + 28, p10 + 29, p10 + 30, p10 + 31, p10 + 32, p10 + 33, p10 + 34, p10 + 35, p10 + 36, p10 + 37, p10 + 38, p10 + 39, 8};
Line(11) = {4, 9};
Line(12) = {9, 7};
Line(13) = {5, 9};
p14 = newp;
Point(p14 + 1) = {29.68923839815379, 1.686043241226444, 0};
Point(p14 + 2) = {29.66583824521373, 1.783511892887756, 0};
Point(p14 + 3) = {29.62747873060586, 1.876119953300124, 0};
Point(p14 + 4) = {29.57510439288776, 1.961587104667666, 0};
Point(p14 + 5) = {29.5100048620745, 2.037808862074498, 0};
Point(p14 + 6) = {29.43378310466766, 2.102908392887756, 0};
Point(p14 + 7) = {29.34831595330012, 2.15528273060586, 0};
Point(p14 + 8) = {29.25570789288776, 2.19364224521373, 0};
Point(p14 + 9) = {29.15823924122644, 2.21704239815379, 0};
Point(p14 + 10) = {29.05831, 2.224907, 0};
Point(p14 + 11) = {28.95838075877355, 2.21704239815379, 0};
Point(p14 + 12) = {28.86091210711224, 2.19364224521373, 0};
Point(p14 + 13) = {28.76830404669987, 2.15528273060586, 0};
Point(p14 + 14) = {28.68283689533233, 2.102908392887756, 0};
Point(p14 + 15) = {28.6066151379255, 2.037808862074499, 0};
Point(p14 + 16) = {28.54151560711224, 1.961587104667666, 0};
Point(p14 + 17) = {28.48914126939414, 1.876119953300124, 0};
Point(p14 + 18) = {28.45078175478627, 1.783511892887756, 0};
Point(p14 + 19) = {28.42738160184621, 1.686043241226444, 0};
Point(p14 + 20) = {28.419517, 1.586114, 0};
Point(p14 + 21) = {28.42738160184621, 1.486184758773556, 0};
Point(p14 + 22) = {28.45078175478627, 1.388716107112244, 0};
Point(p14 + 23) = {28.48914126939414, 1.296108046699876, 0};
Point(p14 + 24) = {28.54151560711224, 1.210640895332334, 0};
Point(p14 + 25) = {28.6066151379255, 1.134419137925502, 0};
Point(p14 + 26) = {28.68283689533233, 1.069319607112244, 0};
Point(p14 + 27) = {28.76830404669987, 1.01694526939414, 0};
Point(p14 + 28) = {28.86091210711224, 0.97858575478627, 0};
Point(p14 + 29) = {28.95838075877355, 0.9551856018462102, 0};
Point(p14 + 30) = {29.05831, 0.947321, 0};
Point(p14 + 31) = {29.15823924122644, 0.9551856018462102, 0};
Point(p14 + 32) = {29.25570789288776, 0.9785857547862699, 0};
Point(p14 + 33) = {29.34831595330012, 1.01694526939414, 0};
Point(p14 + 34) = {29.43378310466766, 1.069319607112244, 0};
Point(p14 + 35) = {29.5100048620745, 1.134419137925502, 0};
Point(p14 + 36) = {29.57510439288776, 1.210640895332334, 0};
Point(p14 + 37) = {29.62747873060586, 1.296108046699876, 0};
Point(p14 + 38) = {29.66583824521373, 1.388716107112244, 0};
Point(p14 + 39) = {29.68923839815379, 1.486184758773556, 0};
Spline(14) = {10, p14 + 1, p14 + 2, p14 + 3, p14 + 4, p14 + 5, p14 + 6, p14 + 7, p14 + 8, p14 + 9, p14 + 10, p14 + 11, p14 + 12, p14 + 13, p14 + 14, p14 + 15, p14 + 16, p14 + 17, p14 + 18, p14 + 19, p14 + 20, p14 + 21, p14 + 22, p14 + 23, p14 + 24, p14 + 25, p14 + 26, p14 + 27, p14 + 28, p14 + 29, p14 + 30, p14 + 31, p14 + 32, p14 + 33, p14 + 34, p14 + 35, p14 + 36, p14 + 37, p14 + 38, p14 + 39, 10};
Line(15) = {10, 8};
Curve Loop(1) = {-1, 4, 3, -2};
Plane Surface(1) = {1};
Curve Loop(2) = {-5, 1, 7, -6};
Plane Surface(2) = {2};
Curve Loop(3) = {-2, 7, 9, -8, -10};
Plane Surface(3) = {3};
Curve Loop(4) = {-11, 3, 8, -12};
Plane Surface(4) = {4};
Curve Loop(5) = {-4, 5, 13, -11, -14};
Plane Surface(5) = {5};
Curve Loop(6) = {-6, 13, 12, -9};
Plane Surface(6) = {6};
Curve Loop(7) = {-10, -15, 14, 15};
Surface(7) = {7};
Surface Loop(1) = {1, 2, 3, 4, 5, 6, 7};
Volume(1) = {1};
Physical Surface("INFLOW") = {1};
Physical Surface("OUTFLOW") = {6};
Physical Surface("OBSTACLE") = {7};
Physical Surface("WALL_Y") = {2, 4};
Physical Surface("WALL_Z") = {3, 5};
Physical Volume("FLUID") = {1};
