cl__1 = 1;
cl__2 = 0.08626;
cl__3 = 0.114602;
Point(1) = {0.813185, -4.003352, 1, cl__1};
Point(2) = {0.813185, -4.003352, 0, cl__1};
Point(3) = {0.813185, 5.343585000000001, 1, cl__1};
Point(4) = {0.813185, 5.343585000000001, 0, cl__1};
Point(5) = {38.28959, -4.003352, 0, cl__1};
Point(6) = {38.28959, -4.003352, 1, cl__1};
Point(7) = {38.28959, 5.343585000000001, 1, cl__1};
Point(8) = {17.074654, -1.291484, 1, cl__2};
Point(9) = {27.390263, 0.2466969999999997, 1, cl__3};
Point(10) = {38.28959, 5.343585000000001, 0, cl__1};
Point(11) = {17.074654, -1.291484, 0, cl__2};
Point(12) = {27.390263, 0.2466969999999997, 0, cl__3};
Line(1) = {2, 1};
Line(2) = {1, 3};
Line(3) = {4, 3};
Line(4) = {2, 4};
Line(5) = {2, 5};
Line(6) = {5, 6};
Line(7) = {1, 6};
Line(8) = {3, 7};
Line(9) = {6, 7};
p10 = newp;
Point(p10 + 1) = {17.06403398722069, -1.156543943325227, 1};
Point(p10 + 2) = {17.03243544884317, -1.024926558686159, 1};
Point(p10 + 3) = {16.98063644575184, -0.8998727029056666, 1};
Point(p10 + 4) = {16.90991244131384, -0.7844616169430173, 1};
Point(p10 + 5) = {16.82200489523795, -0.6815351047620466, 1};
Point(p10 + 6) = {16.71907838305698, -0.5936275586861591, 1};
Point(p10 + 7) = {16.60366729709433, -0.5229035542481624, 1};
Point(p10 + 8) = {16.47861344131384, -0.4711045511568333, 1};
Point(p10 + 9) = {16.34699605667477, -0.4395060127793154, 1};
Point(p10 + 10) = {16.212056, -0.4288860000000001, 1};
Point(p10 + 11) = {16.07711594332523, -0.4395060127793156, 1};
Point(p10 + 12) = {15.94549855868616, -0.4711045511568331, 1};
Point(p10 + 13) = {15.82044470290567, -0.5229035542481624, 1};
Point(p10 + 14) = {15.70503361694302, -0.5936275586861591, 1};
Point(p10 + 15) = {15.60210710476205, -0.6815351047620465, 1};
Point(p10 + 16) = {15.51419955868616, -0.7844616169430173, 1};
Point(p10 + 17) = {15.44347555424816, -0.8998727029056665, 1};
Point(p10 + 18) = {15.39167655115683, -1.024926558686159, 1};
Point(p10 + 19) = {15.36007801277932, -1.156543943325227, 1};
Point(p10 + 20) = {15.349458, -1.291484, 1};
Point(p10 + 21) = {15.36007801277932, -1.426424056674773, 1};
Point(p10 + 22) = {15.39167655115683, -1.558041441313841, 1};
Point(p10 + 23) = {15.44347555424816, -1.683095297094333, 1};
Point(p10 + 24) = {15.51419955868616, -1.798506383056983, 1};
Point(p10 + 25) = {15.60210710476205, -1.901432895237954, 1};
Point(p10 + 26) = {15.70503361694302, -1.989340441313841, 1};
Point(p10 + 27) = {15.82044470290567, -2.060064445751838, 1};
Point(p10 + 28) = {15.94549855868616, -2.111863448843167, 1};
Point(p10 + 29) = {16.07711594332523, -2.143461987220685, 1};
Point(p10 + 30) = {16.212056, -2.154082, 1};
Point(p10 + 31) = {16.34699605667477, -2.143461987220685, 1};
Point(p10 + 32) = {16.47861344131384, -2.111863448843167, 1};
Point(p10 + 33) = {16.60366729709433, -2.060064445751838, 1};
Point(p10 + 34) = {16.71907838305698, -1.989340441313841, 1};
Point(p10 + 35) = {16.82200489523795, -1.901432895237954, 1};
Point(p10 + 36) = {16.90991244131384, -1.798506383056983, 1};
Point(p10 + 37) = {16.98063644575184, -1.683095297094334, 1};
Point(p10 + 38) = {17.03243544884317, -1.558041441313841, 1};
Point(p10 + 39) = {17.06403398722069, -1.426424056674773, 1};
Spline(10) = {8, p10 + 1, p10 + 2, p10 + 3, p10 + 4, p10 + 5, p10 + 6, p10 + 7, p10 + 8, p10 + 9, p10 + 10, p10 + 11, p10 + 12, p10 + 13, p10 + 14, p10 + 15, p10 + 16, p10 + 17, p10 + 18, p10 + 19, p10 + 20, p10 + 21, p10 + 22, p10 + 23, p10 + 24, p10 + 25, p10 + 26, p10 + 27, p10 + 28, p10 + 29, p10 + 30, p10 + 31, p10 + 32, p10 + 33, p10 + 34, p10 + 35, p10 + 36, p10 + 37, p10 + 38, p10 + 39, 8};
p11 = newp;
Point(p11 + 1) = {27.37615353053054, 0.4259748077977306, 1};
Point(p11 + 2) = {27.33417254408715, 0.6008382009785491, 1};
Point(p11 + 3) = {27.26535375188297, 0.7669814624640141, 1};
Point(p11 + 4) = {27.17139170097855, 0.9203135937584817, 1};
Point(p11 + 5) = {27.05460004890931, 1.057059048909313, 1};
Point(p11 + 6) = {26.91785459375848, 1.173850700978549, 1};
Point(p11 + 7) = {26.76452246246402, 1.267812751882974, 1};
Point(p11 + 8) = {26.59837920097855, 1.336631544087153, 1};
Point(p11 + 9) = {26.42351580779773, 1.378612530530543, 1};
Point(p11 + 10) = {26.244238, 1.392722, 1};
Point(p11 + 11) = {26.06496019220227, 1.378612530530543, 1};
Point(p11 + 12) = {25.89009679902145, 1.336631544087153, 1};
Point(p11 + 13) = {25.72395353753598, 1.267812751882974, 1};
Point(p11 + 14) = {25.57062140624152, 1.173850700978549, 1};
Point(p11 + 15) = {25.43387595109069, 1.057059048909313, 1};
Point(p11 + 16) = {25.31708429902145, 0.9203135937584817, 1};
Point(p11 + 17) = {25.22312224811703, 0.7669814624640143, 1};
Point(p11 + 18) = {25.15430345591285, 0.6008382009785492, 1};
Point(p11 + 19) = {25.11232246946946, 0.4259748077977307, 1};
Point(p11 + 20) = {25.098213, 0.2466970000000001, 1};
Point(p11 + 21) = {25.11232246946946, 0.06741919220226958, 1};
Point(p11 + 22) = {25.15430345591285, -0.1074442009785495, 1};
Point(p11 + 23) = {25.22312224811703, -0.2735874624640135, 1};
Point(p11 + 24) = {25.31708429902145, -0.4269195937584815, 1};
Point(p11 + 25) = {25.43387595109069, -0.5636650489093131, 1};
Point(p11 + 26) = {25.57062140624152, -0.6804567009785492, 1};
Point(p11 + 27) = {25.72395353753598, -0.7744187518829744, 1};
Point(p11 + 28) = {25.89009679902145, -0.8432375440871533, 1};
Point(p11 + 29) = {26.06496019220227, -0.8852185305305427, 1};
Point(p11 + 30) = {26.244238, -0.8993280000000001, 1};
Point(p11 + 31) = {26.42351580779773, -0.8852185305305429, 1};
Point(p11 + 32) = {26.59837920097855, -0.8432375440871536, 1};
Point(p11 + 33) = {26.76452246246402, -0.7744187518829744, 1};
Point(p11 + 34) = {26.91785459375848, -0.6804567009785494, 1};
Point(p11 + 35) = {27.05460004890931, -0.5636650489093133, 1};
Point(p11 + 36) = {27.17139170097855, -0.4269195937584818, 1};
Point(p11 + 37) = {27.26535375188297, -0.2735874624640144, 1};
Point(p11 + 38) = {27.33417254408715, -0.1074442009785493, 1};
Point(p11 + 39) = {27.37615353053054, 0.06741919220226916, 1};
Spline(11) = {9, p11 + 1, p11 + 2, p11 + 3, p11 + 4, p11 + 5, p11 + 6, p11 + 7, p11 + 8, p11 + 9, p11 + 10, p11 + 11, p11 + 12, p11 + 13, p11 + 14, p11 + 15, p11 + 16, p11 + 17, p11 + 18, p11 + 19, p11 + 20, p11 + 21, p11 + 22, p11 + 23, p11 + 24, p11 + 25, p11 + 26, p11 + 27, p11 + 28, p11 + 29, p11 + 30, p11 + 31, p11 + 32, p11 + 33, p11 + 34, p11 + 35, p11 + 36, p11 + 37, p11 + 38, p11 + 39, 9};
Line(12) = {4, 10};
Line(13) = {10, 7};
Line(14) = {5, 10};
p15 = newp;
Point(p15 + 1) = {17.06403398722069, -1.156543943325227, 0};
Point(p15 + 2) = {17.03243544884317, -1.024926558686159, 0};
Point(p15 + 3) = {16.98063644575184, -0.8998727029056666, 0};
Point(p15 + 4) = {16.90991244131384, -0.7844616169430173, 0};
Point(p15 + 5) = {16.82200489523795, -0.6815351047620466, 0};
Point(p15 + 6) = {16.71907838305698, -0.5936275586861591, 0};
Point(p15 + 7) = {16.60366729709433, -0.5229035542481624, 0};
Point(p15 + 8) = {16.47861344131384, -0.4711045511568333, 0};
Point(p15 + 9) = {16.34699605667477, -0.4395060127793154, 0};
Point(p15 + 10) = {16.212056, -0.4288860000000001, 0};
Point(p15 + 11) = {16.07711594332523, -0.4395060127793156, 0};
Point(p15 + 12) = {15.94549855868616, -0.4711045511568331, 0};
Point(p15 + 13) = {15.82044470290567, -0.5229035542481624, 0};
Point(p15 + 14) = {15.70503361694302, -0.5936275586861591, 0};
Point(p15 + 15) = {15.60210710476205, -0.6815351047620465, 0};
Point(p15 + 16) = {15.51419955868616, -0.7844616169430173, 0};
Point(p15 + 17) = {15.44347555424816, -0.8998727029056665, 0};
Point(p15 + 18) = {15.39167655115683, -1.024926558686159, 0};
Point(p15 + 19) = {15.36007801277932, -1.156543943325227, 0};
Point(p15 + 20) = {15.349458, -1.291484, 0};
Point(p15 + 21) = {15.36007801277932, -1.426424056674773, 0};
Point(p15 + 22) = {15.39167655115683, -1.558041441313841, 0};
Point(p15 + 23) = {15.44347555424816, -1.683095297094333, 0};
Point(p15 + 24) = {15.51419955868616, -1.798506383056983, 0};
Point(p15 + 25) = {15.60210710476205, -1.901432895237954, 0};
Point(p15 + 26) = {15.70503361694302, -1.989340441313841, 0};
Point(p15 + 27) = {15.82044470290567, -2.060064445751838, 0};
Point(p15 + 28) = {15.94549855868616, -2.111863448843167, 0};
Point(p15 + 29) = {16.07711594332523, -2.143461987220685, 0};
Point(p15 + 30) = {16.212056, -2.154082, 0};
Point(p15 + 31) = {16.34699605667477, -2.143461987220685, 0};
Point(p15 + 32) = {16.47861344131384, -2.111863448843167, 0};
Point(p15 + 33) = {16.60366729709433, -2.060064445751838, 0};
Point(p15 + 34) = {16.71907838305698, -1.989340441313841, 0};
Point(p15 + 35) = {16.82200489523795, -1.901432895237954, 0};
Point(p15 + 36) = {16.90991244131384, -1.798506383056983, 0};
Point(p15 + 37) = {16.98063644575184, -1.683095297094334, 0};
Point(p15 + 38) = {17.03243544884317, -1.558041441313841, 0};
Point(p15 + 39) = {17.06403398722069, -1.426424056674773, 0};
Spline(15) = {11, p15 + 1, p15 + 2, p15 + 3, p15 + 4, p15 + 5, p15 + 6, p15 + 7, p15 + 8, p15 + 9, p15 + 10, p15 + 11, p15 + 12, p15 + 13, p15 + 14, p15 + 15, p15 + 16, p15 + 17, p15 + 18, p15 + 19, p15 + 20, p15 + 21, p15 + 22, p15 + 23, p15 + 24, p15 + 25, p15 + 26, p15 + 27, p15 + 28, p15 + 29, p15 + 30, p15 + 31, p15 + 32, p15 + 33, p15 + 34, p15 + 35, p15 + 36, p15 + 37, p15 + 38, p15 + 39, 11};
p16 = newp;
Point(p16 + 1) = {27.37615353053054, 0.4259748077977306, 0};
Point(p16 + 2) = {27.33417254408715, 0.6008382009785491, 0};
Point(p16 + 3) = {27.26535375188297, 0.7669814624640141, 0};
Point(p16 + 4) = {27.17139170097855, 0.9203135937584817, 0};
Point(p16 + 5) = {27.05460004890931, 1.057059048909313, 0};
Point(p16 + 6) = {26.91785459375848, 1.173850700978549, 0};
Point(p16 + 7) = {26.76452246246402, 1.267812751882974, 0};
Point(p16 + 8) = {26.59837920097855, 1.336631544087153, 0};
Point(p16 + 9) = {26.42351580779773, 1.378612530530543, 0};
Point(p16 + 10) = {26.244238, 1.392722, 0};
Point(p16 + 11) = {26.06496019220227, 1.378612530530543, 0};
Point(p16 + 12) = {25.89009679902145, 1.336631544087153, 0};
Point(p16 + 13) = {25.72395353753598, 1.267812751882974, 0};
Point(p16 + 14) = {25.57062140624152, 1.173850700978549, 0};
Point(p16 + 15) = {25.43387595109069, 1.057059048909313, 0};
Point(p16 + 16) = {25.31708429902145, 0.9203135937584817, 0};
Point(p16 + 17) = {25.22312224811703, 0.7669814624640143, 0};
Point(p16 + 18) = {25.15430345591285, 0.6008382009785492, 0};
Point(p16 + 19) = {25.11232246946946, 0.4259748077977307, 0};
Point(p16 + 20) = {25.098213, 0.2466970000000001, 0};
Point(p16 + 21) = {25.11232246946946, 0.06741919220226958, 0};
Point(p16 + 22) = {25.15430345591285, -0.1074442009785495, 0};
Point(p16 + 23) = {25.22312224811703, -0.2735874624640135, 0};
Point(p16 + 24) = {25.31708429902145, -0.4269195937584815, 0};
Point(p16 + 25) = {25.43387595109069, -0.5636650489093131, 0};
Point(p16 + 26) = {25.57062140624152, -0.6804567009785492, 0};
Point(p16 + 27) = {25.72395353753598, -0.7744187518829744, 0};
Point(p16 + 28) = {25.89009679902145, -0.8432375440871533, 0};
Point(p16 + 29) = {26.06496019220227, -0.8852185305305427, 0};
Point(p16 + 30) = {26.244238, -0.8993280000000001, 0};
Point(p16 + 31) = {26.42351580779773, -0.8852185305305429, 0};
Point(p16 + 32) = {26.59837920097855, -0.8432375440871536, 0};
Point(p16 + 33) = {26.76452246246402, -0.7744187518829744, 0};
Point(p16 + 34) = {26.91785459375848, -0.6804567009785494, 0};
Point(p16 + 35) = {27.05460004890931, -0.5636650489093133, 0};
Point(p16 + 36) = {27.17139170097855, -0.4269195937584818, 0};
Point(p16 + 37) = {27.26535375188297, -0.2735874624640144, 0};
Point(p16 + 38) = {27.33417254408715, -0.1074442009785493, 0};
Point(p16 + 39) = {27.37615353053054, 0.06741919220226916, 0};
Spline(16) = {12, p16 + 1, p16 + 2, p16 + 3, p16 + 4, p16 + 5, p16 + 6, p16 + 7, p16 + 8, p16 + 9, p16 + 10, p16 + 11, p16 + 12, p16 + 13, p16 + 14, p16 + 15, p16 + 16, p16 + 17, p16 + 18, p16 + 19, p16 + 20, p16 + 21, p16 + 22, p16 + 23, p16 + 24, p16 + 25, p16 + 26, p16 + 27, p16 + 28, p16 + 29, p16 + 30, p16 + 31, p16 + 32, p16 + 33, p16 + 34, p16 + 35, p16 + 36, p16 + 37, p16 + 38, p16 + 39, 12};
Line(17) = {11, 8};
Line(18) = {12, 9};
Curve Loop(1) = {-1, 4, 3, -2};
Plane Surface(1) = {1};
Curve Loop(2) = {-5, 1, 7, -6};
Plane Surface(2) = {2};
Curve Loop(3) = {-2, 7, 9, -8, -10, -11};
Plane Surface(3) = {3};
Curve Loop(4) = {-12, 3, 8, -13};
Plane Surface(4) = {4};
Curve Loop(5) = {-4, 5, 14, -12, -15, -16};
Plane Surface(5) = {5};
Curve Loop(6) = {-6, 14, 13, -9};
Plane Surface(6) = {6};
Curve Loop(7) = {-10, -17, 15, 17};
Surface(7) = {7};
Curve Loop(8) = {-11, -18, 16, 18};
Surface(8) = {8};
Surface Loop(1) = {1, 2, 3, 4, 5, 6, 7, 8};
Volume(1) = {1};
Physical Surface("INFLOW") = {1};
Physical Surface("OUTFLOW") = {6};
Physical Surface("OBSTACLE") = {7, 8};
Physical Surface("WALL_Y") = {2, 4};
Physical Surface("WALL_Z") = {3, 5};
Physical Volume("FLUID") = {1};
