cl__1 = 0.6324109999999999;
cl__2 = 1.299876;
cl__3 = 3.338055;
cl__4 = 0.058948;
cl__5 = 0.050893;
Point(1) = {0.472826, -3.472387, 1, cl__1};
Point(2) = {0.472826, -3.472387, 0, cl__1};
Point(3) = {0.472826, 4.835271000000001, 1, cl__2};
Point(4) = {0.472826, 4.835271000000001, 0, cl__2};
Point(5) = {33.121094, -3.472387, 0, cl__1};
Point(6) = {33.121094, -3.472387, 1, cl__1};
Point(7) = {33.121094, 4.835271000000001, 1, cl__3};
Point(8) = {20.336683, -1.068376, 1, cl__4};
Point(9) = {4.471855, 2.402108, 1, cl__5};
Point(10) = {33.121094, 4.835271000000001, 0, cl__3};
Point(11) = {20.336683, -1.068376, 0, cl__4};
Point(12) = {4.471855, 2.402108, 0, cl__5};
Line(1) = {2, 1};
Line(2) = {1, 3};
Line(3) = {4, 3};
Line(4) = {2, 4};
Line(5) = {2, 5};
Line(6) = {5, 6};
Line(7) = {1, 6};
Line(8) = {3, 7};
Line(9) = {6, 7};
p10 = newp;
Point(p10 + 1) = {20.32942552301402, -0.9761610115480847, 1};
Point(p10 + 2) = {20.30783179522567, -0.886216662155856, 1};
Point(p10 + 3) = {20.27243352587856, -0.800757680213532, 1};
Point(p10 + 4) = {20.22410233784414, -0.721888349478633, 1};
Point(p10 + 5) = {20.16402830537384, -0.651550694626154, 1};
Point(p10 + 6) = {20.09369065052137, -0.591476662155856, 1};
Point(p10 + 7) = {20.01482131978647, -0.543145474121441, 1};
Point(p10 + 8) = {19.92936233784414, -0.5077472047743329, 1};
Point(p10 + 9) = {19.83941798845191, -0.4861534769859782, 1};
Point(p10 + 10) = {19.747203, -0.478896, 1};
Point(p10 + 11) = {19.65498801154808, -0.4861534769859782, 1};
Point(p10 + 12) = {19.56504366215585, -0.5077472047743328, 1};
Point(p10 + 13) = {19.47958468021353, -0.5431454741214409, 1};
Point(p10 + 14) = {19.40071534947863, -0.591476662155856, 1};
Point(p10 + 15) = {19.33037769462615, -0.651550694626154, 1};
Point(p10 + 16) = {19.27030366215585, -0.7218883494786328, 1};
Point(p10 + 17) = {19.22197247412144, -0.8007576802135319, 1};
Point(p10 + 18) = {19.18657420477433, -0.8862166621558559, 1};
Point(p10 + 19) = {19.16498047698598, -0.9761610115480847, 1};
Point(p10 + 20) = {19.157723, -1.068376, 1};
Point(p10 + 21) = {19.16498047698598, -1.160590988451915, 1};
Point(p10 + 22) = {19.18657420477433, -1.250535337844144, 1};
Point(p10 + 23) = {19.22197247412144, -1.335994319786468, 1};
Point(p10 + 24) = {19.27030366215585, -1.414863650521367, 1};
Point(p10 + 25) = {19.33037769462615, -1.485201305373846, 1};
Point(p10 + 26) = {19.40071534947863, -1.545275337844144, 1};
Point(p10 + 27) = {19.47958468021353, -1.593606525878559, 1};
Point(p10 + 28) = {19.56504366215585, -1.629004795225667, 1};
Point(p10 + 29) = {19.65498801154808, -1.650598523014022, 1};
Point(p10 + 30) = {19.747203, -1.657856, 1};
Point(p10 + 31) = {19.83941798845191, -1.650598523014022, 1};
Point(p10 + 32) = {19.92936233784414, -1.629004795225667, 1};
Point(p10 + 33) = {20.01482131978647, -1.593606525878559, 1};
Point(p10 + 34) = {20.09369065052137, -1.545275337844144, 1};
Point(p10 + 35) = {20.16402830537384, -1.485201305373846, 1};
Point(p10 + 36) = {20.22410233784414, -1.414863650521367, 1};
Point(p10 + 37) = {20.27243352587856, -1.335994319786468, 1};
Point(p10 + 38) = {20.30783179522567, -1.250535337844144, 1};
Point(p10 + 39) = {20.32942552301402, -1.160590988451915, 1};
Spline(10) = {8, p10 + 1, p10 + 2, p10 + 3, p10 + 4, p10 + 5, p10 + 6, p10 + 7, p10 + 8, p10 + 9, p10 + 10, p10 + 11, p10 + 12, p10 + 13, p10 + 14, p10 + 15, p10 + 16, p10 + 17, p10 + 18, p10 + 19, p10 + 20, p10 + 21, p10 + 22, p10 + 23, p10 + 24, p10 + 25, p10 + 26, p10 + 27, p10 + 28, p10 + 29, p10 + 30, p10 + 31, p10 + 32, p10 + 33, p10 + 34, p10 + 35, p10 + 36, p10 + 37, p10 + 38, p10 + 39, 8};
p11 = newp;
Point(p11 + 1) = {4.465589227179083, 2.481722192292925, 1};
Point(p11 + 2) = {4.446946192838093, 2.559376018947242, 1};
Point(p11 + 3) = {4.416384950355186, 2.633157385032447, 1};
Point(p11 + 4) = {4.374658018947242, 2.701249548449209, 1};
Point(p11 + 5) = {4.322792854149269, 2.76197585414927, 1};
Point(p11 + 6) = {4.262066548449209, 2.813841018947242, 1};
Point(p11 + 7) = {4.193974385032448, 2.855567950355186, 1};
Point(p11 + 8) = {4.120193018947242, 2.886129192838093, 1};
Point(p11 + 9) = {4.042539192292924, 2.904772227179083, 1};
Point(p11 + 10) = {3.962925, 2.911038, 1};
Point(p11 + 11) = {3.883310807707075, 2.904772227179083, 1};
Point(p11 + 12) = {3.805656981052758, 2.886129192838093, 1};
Point(p11 + 13) = {3.731875614967552, 2.855567950355186, 1};
Point(p11 + 14) = {3.663783451550791, 2.813841018947242, 1};
Point(p11 + 15) = {3.60305714585073, 2.76197585414927, 1};
Point(p11 + 16) = {3.551191981052758, 2.701249548449209, 1};
Point(p11 + 17) = {3.509465049644814, 2.633157385032448, 1};
Point(p11 + 18) = {3.478903807161907, 2.559376018947242, 1};
Point(p11 + 19) = {3.460260772820916, 2.481722192292925, 1};
Point(p11 + 20) = {3.453995, 2.402108, 1};
Point(p11 + 21) = {3.460260772820916, 2.322493807707076, 1};
Point(p11 + 22) = {3.478903807161907, 2.244839981052758, 1};
Point(p11 + 23) = {3.509465049644814, 2.171058614967553, 1};
Point(p11 + 24) = {3.551191981052758, 2.102966451550792, 1};
Point(p11 + 25) = {3.60305714585073, 2.042240145850731, 1};
Point(p11 + 26) = {3.663783451550791, 1.990374981052758, 1};
Point(p11 + 27) = {3.731875614967552, 1.948648049644814, 1};
Point(p11 + 28) = {3.805656981052758, 1.918086807161908, 1};
Point(p11 + 29) = {3.883310807707075, 1.899443772820917, 1};
Point(p11 + 30) = {3.962925, 1.893178, 1};
Point(p11 + 31) = {4.042539192292924, 1.899443772820917, 1};
Point(p11 + 32) = {4.120193018947242, 1.918086807161908, 1};
Point(p11 + 33) = {4.193974385032448, 1.948648049644814, 1};
Point(p11 + 34) = {4.262066548449208, 1.990374981052758, 1};
Point(p11 + 35) = {4.322792854149269, 2.04224014585073, 1};
Point(p11 + 36) = {4.374658018947242, 2.102966451550792, 1};
Point(p11 + 37) = {4.416384950355186, 2.171058614967552, 1};
Point(p11 + 38) = {4.446946192838093, 2.244839981052758, 1};
Point(p11 + 39) = {4.465589227179083, 2.322493807707075, 1};
Spline(11) = {9, p11 + 1, p11 + 2, p11 + 3, p11 + 4, p11 + 5, p11 + 6, p11 + 7, p11 + 8, p11 + 9, p11 + 10, p11 + 11, p11 + 12, p11 + 13, p11 + 14, p11 + 15, p11 + 16, p11 + 17, p11 + 18, p11 + 19, p11 + 20, p11 + 21, p11 + 22, p11 + 23, p11 + 24, p11 + 25, p11 + 26, p11 + 27, p11 + 28, p11 + 29, p11 + 30, p11 + 31, p11 + 32, p11 + 33, p11 + 34, p11 + 35, p11 + 36, p11 + 37, p11 + 38, p11 + 39, 9};
Line(12) = {4, 10};
Line(13) = {10, 7};
Line(14) = {5, 10};
p15 = newp;
Point(p15 + 1) = {20.32942552301402, -0.9761610115480847, 0};
Point(p15 + 2) = {20.30783179522567, -0.886216662155856, 0};
Point(p15 + 3) = {20.27243352587856, -0.800757680213532, 0};
Point(p15 + 4) = {20.22410233784414, -0.721888349478633, 0};
Point(p15 + 5) = {20.16402830537384, -0.651550694626154, 0};
Point(p15 + 6) = {20.09369065052137, -0.591476662155856, 0};
Point(p15 + 7) = {20.01482131978647, -0.543145474121441, 0};
Point(p15 + 8) = {19.92936233784414, -0.5077472047743329, 0};
Point(p15 + 9) = {19.83941798845191, -0.4861534769859782, 0};
Point(p15 + 10) = {19.747203, -0.478896, 0};
Point(p15 + 11) = {19.65498801154808, -0.4861534769859782, 0};
Point(p15 + 12) = {19.56504366215585, -0.5077472047743328, 0};
Point(p15 + 13) = {19.47958468021353, -0.5431454741214409, 0};
Point(p15 + 14) = {19.40071534947863, -0.591476662155856, 0};
Point(p15 + 15) = {19.33037769462615, -0.651550694626154, 0};
Point(p15 + 16) = {19.27030366215585, -0.7218883494786328, 0};
Point(p15 + 17) = {19.22197247412144, -0.8007576802135319, 0};
Point(p15 + 18) = {19.18657420477433, -0.8862166621558559, 0};
Point(p15 + 19) = {19.16498047698598, -0.9761610115480847, 0};
Point(p15 + 20) = {19.157723, -1.068376, 0};
Point(p15 + 21) = {19.16498047698598, -1.160590988451915, 0};
Point(p15 + 22) = {19.18657420477433, -1.250535337844144, 0};
Point(p15 + 23) = {19.22197247412144, -1.335994319786468, 0};
Point(p15 + 24) = {19.27030366215585, -1.414863650521367, 0};
Point(p15 + 25) = {19.33037769462615, -1.485201305373846, 0};
Point(p15 + 26) = {19.40071534947863, -1.545275337844144, 0};
Point(p15 + 27) = {19.47958468021353, -1.593606525878559, 0};
Point(p15 + 28) = {19.56504366215585, -1.629004795225667, 0};
Point(p15 + 29) = {19.65498801154808, -1.650598523014022, 0};
Point(p15 + 30) = {19.747203, -1.657856, 0};
Point(p15 + 31) = {19.83941798845191, -1.650598523014022, 0};
Point(p15 + 32) = {19.92936233784414, -1.629004795225667, 0};
Point(p15 + 33) = {20.01482131978647, -1.593606525878559, 0};
Point(p15 + 34) = {20.09369065052137, -1.545275337844144, 0};
Point(p15 + 35) = {20.16402830537384, -1.485201305373846, 0};
Point(p15 + 36) = {20.22410233784414, -1.414863650521367, 0};
Point(p15 + 37) = {20.27243352587856, -1.335994319786468, 0};
Point(p15 + 38) = {20.30783179522567, -1.250535337844144, 0};
Point(p15 + 39) = {20.32942552301402, -1.160590988451915, 0};
Spline(15) = {11, p15 + 1, p15 + 2, p15 + 3, p15 + 4, p15 + 5, p15 + 6, p15 + 7, p15 + 8, p15 + 9, p15 + 10, p15 + 11, p15 + 12, p15 + 13, p15 + 14, p15 + 15, p15 + 16, p15 + 17, p15 + 18, p15 + 19, p15 + 20, p15 + 21, p15 + 22, p15 + 23, p15 + 24, p15 + 25, p15 + 26, p15 + 27, p15 + 28, p15 + 29, p15 + 30, p15 + 31, p15 + 32, p15 + 33, p15 + 34, p15 + 35, p15 + 36, p15 + 37, p15 + 38, p15 + 39, 11};
p16 = newp;
Point(p16 + 1) = {4.465589227179083, 2.481722192292925, 0};
Point(p16 + 2) = {4.446946192838093, 2.559376018947242, 0};
Point(p16 + 3) = {4.416384950355186, 2.633157385032447, 0};
Point(p16 + 4) = {4.374658018947242, 2.701249548449209, 0};
Point(p16 + 5) = {4.322792854149269, 2.76197585414927, 0};
Point(p16 + 6) = {4.262066548449209, 2.813841018947242, 0};
Point(p16 + 7) = {4.193974385032448, 2.855567950355186, 0};
Point(p16 + 8) = {4.120193018947242, 2.886129192838093, 0};
Point(p16 + 9) = {4.042539192292924, 2.904772227179083, 0};
Point(p16 + 10) = {3.962925, 2.911038, 0};
Point(p16 + 11) = {3.883310807707075, 2.904772227179083, 0};
Point(p16 + 12) = {3.805656981052758, 2.886129192838093, 0};
Point(p16 + 13) = {3.731875614967552, 2.855567950355186, 0};
Point(p16 + 14) = {3.663783451550791, 2.813841018947242, 0};
Point(p16 + 15) = {3.60305714585073, 2.76197585414927, 0};
Point(p16 + 16) = {3.551191981052758, 2.701249548449209, 0};
Point(p16 + 17) = {3.509465049644814, 2.633157385032448, 0};
Point(p16 + 18) = {3.478903807161907, 2.559376018947242, 0};
Point(p16 + 19) = {3.460260772820916, 2.481722192292925, 0};
Point(p16 + 20) = {3.453995, 2.402108, 0};
Point(p16 + 21) = {3.460260772820916, 2.322493807707076, 0};
Point(p16 + 22) = {3.478903807161907, 2.244839981052758, 0};
Point(p16 + 23) = {3.509465049644814, 2.171058614967553, 0};
Point(p16 + 24) = {3.551191981052758, 2.102966451550792, 0};
Point(p16 + 25) = {3.60305714585073, 2.042240145850731, 0};
Point(p16 + 26) = {3.663783451550791, 1.990374981052758, 0};
Point(p16 + 27) = {3.731875614967552, 1.948648049644814, 0};
Point(p16 + 28) = {3.805656981052758, 1.918086807161908, 0};
Point(p16 + 29) = {3.883310807707075, 1.899443772820917, 0};
Point(p16 + 30) = {3.962925, 1.893178, 0};
Point(p16 + 31) = {4.042539192292924, 1.899443772820917, 0};
Point(p16 + 32) = {4.120193018947242, 1.918086807161908, 0};
Point(p16 + 33) = {4.193974385032448, 1.948648049644814, 0};
Point(p16 + 34) = {4.262066548449208, 1.990374981052758, 0};
Point(p16 + 35) = {4.322792854149269, 2.04224014585073, 0};
Point(p16 + 36) = {4.374658018947242, 2.102966451550792, 0};
Point(p16 + 37) = {4.416384950355186, 2.171058614967552, 0};
Point(p16 + 38) = {4.446946192838093, 2.244839981052758, 0};
Point(p16 + 39) = {4.465589227179083, 2.322493807707075, 0};
Spline(16) = {12, p16 + 1, p16 + 2, p16 + 3, p16 + 4, p16 + 5, p16 + 6, p16 + 7, p16 + 8, p16 + 9, p16 + 10, p16 + 11, p16 + 12, p16 + 13, p16 + 14, p16 + 15, p16 + 16, p16 + 17, p16 + 18, p16 + 19, p16 + 20, p16 + 21, p16 + 22, p16 + 23, p16 + 24, p16 + 25, p16 + 26, p16 + 27, p16 + 28, p16 + 29, p16 + 30, p16 + 31, p16 + 32, p16 + 33, p16 + 34, p16 + 35, p16 + 36, p16 + 37, p16 + 38, p16 + 39, 12};
Line(17) = {11, 8};
Line(18) = {12, 9};
Curve Loop(1) = {-1, 4, 3, -2};
Plane Surface(1) = {1};
Curve Loop(2) = {-5, 1, 7, -6};
Plane Surface(2) = {2};
Curve Loop(3) = {-2, 7, 9, -8, -10, -11};
Plane Surface(3) = {3};
Curve Loop(4) = {-12, 3, 8, -13};
Plane Surface(4) = {4};
Curve Loop(5) = {-4, 5, 14, -12, -15, -16};
Plane Surface(5) = {5};
Curve Loop(6) = {-6, 14, 13, -9};
Plane Surface(6) = {6};
Curve Loop(7) = {-10, -17, 15, 17};
Surface(7) = {7};
Curve Loop(8) = {-11, -18, 16, 18};
Surface(8) = {8};
Surface Loop(1) = {1, 2, 3, 4, 5, 6, 7, 8};
Volume(1) = {1};
Physical Surface("INFLOW") = {1};
Physical Surface("OUTFLOW") = {6};
Physical Surface("OBSTACLE") = {7, 8};
Physical Surface("WALL_Y") = {2, 4};
Physical Surface("WALL_Z") = {3, 5};
Physical Volume("FLUID") = {1};
