cl__1 = 3.150247;
cl__2 = 1.06614;
cl__3 = 0.9358070000000001;
cl__4 = 0.136809;
Point(1) = {0.561586, -3.862352, 1, cl__1};
Point(2) = {0.561586, -3.862352, 0, cl__1};
Point(3) = {0.561586, 4.521643000000001, 1, cl__1};
Point(4) = {0.561586, 4.521643000000001, 0, cl__1};
Point(5) = {31.222312, -3.862352, 0, cl__2};
Point(6) = {31.222312, -3.862352, 1, cl__2};
Point(7) = {31.222312, 4.521643000000001, 1, cl__3};
Point(8) = {22.141562, 2.098382, 1, cl__4};
Point(9) = {31.222312, 4.521643000000001, 0, cl__3};
Point(10) = {22.141562, 2.098382, 0, cl__4};
Line(1) = {2, 1};
Line(2) = {1, 3};
Line(3) = {4, 3};
Line(4) = {2, 4};
Line(5) = {2, 5};
Line(6) = {5, 6};
Line(7) = {1, 6};
Line(8) = {3, 7};
Line(9) = {6, 7};
p10 = newp;
Point(p10 + 1) = {22.12471851726148, 2.31239874014582, 1};
Point(p10 + 2) = {22.07460281149127, 2.52114567786841, 1};
Point(p10 + 3) = {21.99244889768991, 2.719482770769676, 1};
Point(p10 + 4) = {21.88027967786841, 2.902526301379314, 1};
Point(p10 + 5) = {21.74085713048706, 3.065769130487066, 1};
Point(p10 + 6) = {21.57761430137931, 3.20519167786841, 1};
Point(p10 + 7) = {21.39457077076968, 3.317360897689912, 1};
Point(p10 + 8) = {21.19623367786841, 3.399514811491269, 1};
Point(p10 + 9) = {20.98748674014582, 3.449630517261483, 1};
Point(p10 + 10) = {20.77347, 3.466474, 1};
Point(p10 + 11) = {20.55945325985418, 3.449630517261483, 1};
Point(p10 + 12) = {20.35070632213159, 3.39951481149127, 1};
Point(p10 + 13) = {20.15236922923032, 3.317360897689912, 1};
Point(p10 + 14) = {19.96932569862069, 3.20519167786841, 1};
Point(p10 + 15) = {19.80608286951293, 3.065769130487066, 1};
Point(p10 + 16) = {19.66666032213159, 2.902526301379314, 1};
Point(p10 + 17) = {19.55449110231009, 2.719482770769676, 1};
Point(p10 + 18) = {19.47233718850873, 2.521145677868411, 1};
Point(p10 + 19) = {19.42222148273852, 2.31239874014582, 1};
Point(p10 + 20) = {19.405378, 2.098382, 1};
Point(p10 + 21) = {19.42222148273852, 1.884365259854181, 1};
Point(p10 + 22) = {19.47233718850873, 1.675618322131589, 1};
Point(p10 + 23) = {19.55449110231009, 1.477281229230325, 1};
Point(p10 + 24) = {19.66666032213159, 1.294237698620686, 1};
Point(p10 + 25) = {19.80608286951293, 1.130994869512934, 1};
Point(p10 + 26) = {19.96932569862069, 0.9915723221315895, 1};
Point(p10 + 27) = {20.15236922923032, 0.8794031023100874, 1};
Point(p10 + 28) = {20.35070632213159, 0.7972491885087307, 1};
Point(p10 + 29) = {20.55945325985418, 0.7471334827385168, 1};
Point(p10 + 30) = {20.77347, 0.7302899999999999, 1};
Point(p10 + 31) = {20.98748674014582, 0.7471334827385168, 1};
Point(p10 + 32) = {21.19623367786841, 0.7972491885087305, 1};
Point(p10 + 33) = {21.39457077076968, 0.8794031023100872, 1};
Point(p10 + 34) = {21.57761430137931, 0.9915723221315891, 1};
Point(p10 + 35) = {21.74085713048706, 1.130994869512933, 1};
Point(p10 + 36) = {21.88027967786841, 1.294237698620686, 1};
Point(p10 + 37) = {21.99244889768991, 1.477281229230324, 1};
Point(p10 + 38) = {22.07460281149127, 1.675618322131589, 1};
Point(p10 + 39) = {22.12471851726148, 1.88436525985418, 1};
Spline(10) = {8, p10 + 1, p10 + 2, p10 + 3, p10 + 4, p10 + 5, p10 + 6, p10 + 7, p10 + 8, p10 + 9, p10 + 10, p10 + 11, p10 + 12, p10 + 13, p10 + 14, p10 + 15, p10 + 16, p10 + 17, p10 + 18, p10 + 19, p10 + 20, p10 + 21, p10 + 22, p10 + 23, p10 + 24, p10 + 25, p10 + 26, p10 + 27, p10 + 28, p10 + 29, p10 + 30, p10 + 31, p10 + 32, p10 + 33, p10 + 34, p10 + 35, p10 + 36, p10 + 37, p10 + 38, p10 + 39, 8};
Line(11) = {4, 9};
Line(12) = {9, 7};
Line(13) = {5, 9};
p14 = newp;
Point(p14 + 1) = {22.12471851726148, 2.31239874014582, 0};
Point(p14 + 2) = {22.07460281149127, 2.52114567786841, 0};
Point(p14 + 3) = {21.99244889768991, 2.719482770769676, 0};
Point(p14 + 4) = {21.88027967786841, 2.902526301379314, 0};
Point(p14 + 5) = {21.74085713048706, 3.065769130487066, 0};
Point(p14 + 6) = {21.57761430137931, 3.20519167786841, 0};
Point(p14 + 7) = {21.39457077076968, 3.317360897689912, 0};
Point(p14 + 8) = {21.19623367786841, 3.399514811491269, 0};
Point(p14 + 9) = {20.98748674014582, 3.449630517261483, 0};
Point(p14 + 10) = {20.77347, 3.466474, 0};
Point(p14 + 11) = {20.55945325985418, 3.449630517261483, 0};
Point(p14 + 12) = {20.35070632213159, 3.39951481149127, 0};
Point(p14 + 13) = {20.15236922923032, 3.317360897689912, 0};
Point(p14 + 14) = {19.96932569862069, 3.20519167786841, 0};
Point(p14 + 15) = {19.80608286951293, 3.065769130487066, 0};
Point(p14 + 16) = {19.66666032213159, 2.902526301379314, 0};
Point(p14 + 17) = {19.55449110231009, 2.719482770769676, 0};
Point(p14 + 18) = {19.47233718850873, 2.521145677868411, 0};
Point(p14 + 19) = {19.42222148273852, 2.31239874014582, 0};
Point(p14 + 20) = {19.405378, 2.098382, 0};
Point(p14 + 21) = {19.42222148273852, 1.884365259854181, 0};
Point(p14 + 22) = {19.47233718850873, 1.675618322131589, 0};
Point(p14 + 23) = {19.55449110231009, 1.477281229230325, 0};
Point(p14 + 24) = {19.66666032213159, 1.294237698620686, 0};
Point(p14 + 25) = {19.80608286951293, 1.130994869512934, 0};
Point(p14 + 26) = {19.96932569862069, 0.9915723221315895, 0};
Point(p14 + 27) = {20.15236922923032, 0.8794031023100874, 0};
Point(p14 + 28) = {20.35070632213159, 0.7972491885087307, 0};
Point(p14 + 29) = {20.55945325985418, 0.7471334827385168, 0};
Point(p14 + 30) = {20.77347, 0.7302899999999999, 0};
Point(p14 + 31) = {20.98748674014582, 0.7471334827385168, 0};
Point(p14 + 32) = {21.19623367786841, 0.7972491885087305, 0};
Point(p14 + 33) = {21.39457077076968, 0.8794031023100872, 0};
Point(p14 + 34) = {21.57761430137931, 0.9915723221315891, 0};
Point(p14 + 35) = {21.74085713048706, 1.130994869512933, 0};
Point(p14 + 36) = {21.88027967786841, 1.294237698620686, 0};
Point(p14 + 37) = {21.99244889768991, 1.477281229230324, 0};
Point(p14 + 38) = {22.07460281149127, 1.675618322131589, 0};
Point(p14 + 39) = {22.12471851726148, 1.88436525985418, 0};
Spline(14) = {10, p14 + 1, p14 + 2, p14 + 3, p14 + 4, p14 + 5, p14 + 6, p14 + 7, p14 + 8, p14 + 9, p14 + 10, p14 + 11, p14 + 12, p14 + 13, p14 + 14, p14 + 15, p14 + 16, p14 + 17, p14 + 18, p14 + 19, p14 + 20, p14 + 21, p14 + 22, p14 + 23, p14 + 24, p14 + 25, p14 + 26, p14 + 27, p14 + 28, p14 + 29, p14 + 30, p14 + 31, p14 + 32, p14 + 33, p14 + 34, p14 + 35, p14 + 36, p14 + 37, p14 + 38, p14 + 39, 10};
Line(15) = {10, 8};
Curve Loop(1) = {-1, 4, 3, -2};
Plane Surface(1) = {1};
Curve Loop(2) = {-5, 1, 7, -6};
Plane Surface(2) = {2};
Curve Loop(3) = {-2, 7, 9, -8, -10};
Plane Surface(3) = {3};
Curve Loop(4) = {-11, 3, 8, -12};
Plane Surface(4) = {4};
Curve Loop(5) = {-4, 5, 13, -11, -14};
Plane Surface(5) = {5};
Curve Loop(6) = {-6, 13, 12, -9};
Plane Surface(6) = {6};
Curve Loop(7) = {-10, -15, 14, 15};
Surface(7) = {7};
Surface Loop(1) = {1, 2, 3, 4, 5, 6, 7};
Volume(1) = {1};
Physical Surface("INFLOW") = {1};
Physical Surface("OUTFLOW") = {6};
Physical Surface("OBSTACLE") = {7};
Physical Surface("WALL_Y") = {2, 4};
Physical Surface("WALL_Z") = {3, 5};
Physical Volume("FLUID") = {1};
