cl__1 = 3.110398;
cl__2 = 0.604855;
cl__3 = 0.5749339999999999;
cl__4 = 0.062106;
Point(1) = {0.396654, -3.898253, 1, cl__1};
Point(2) = {0.396654, -3.898253, 0, cl__1};
Point(3) = {0.396654, 5.328282999999999, 1, cl__1};
Point(4) = {0.396654, 5.328282999999999, 0, cl__1};
Point(5) = {30.759964, -3.898253, 0, cl__2};
Point(6) = {30.759964, -3.898253, 1, cl__2};
Point(7) = {30.759964, 5.328282999999999, 1, cl__3};
Point(8) = {26.776045, 0.9264509999999999, 1, cl__4};
Point(9) = {30.759964, 5.328282999999999, 0, cl__3};
Point(10) = {26.776045, 0.9264509999999999, 0, cl__4};
Line(1) = {2, 1};
Line(2) = {1, 3};
Line(3) = {4, 3};
Line(4) = {2, 4};
Line(5) = {2, 5};
Line(6) = {5, 6};
Line(7) = {1, 6};
Line(8) = {3, 7};
Line(9) = {6, 7};
p10 = newp;
Point(p10 + 1) = {26.76839878236832, 1.023605406685561, 1};
Point(p10 + 2) = {26.74564840472769, 1.118367549441533, 1};
Point(p10 + 3) = {26.70835405687981, 1.208404069815744, 1};
Point(p10 + 4) = {26.65743404944153, 1.291497969862502, 1};
Point(p10 + 5) = {26.59414220198981, 1.365603201989811, 1};
Point(p10 + 6) = {26.5200369698625, 1.428895049441533, 1};
Point(p10 + 7) = {26.43694306981575, 1.479815056879807, 1};
Point(p10 + 8) = {26.34690654944153, 1.517109404727687, 1};
Point(p10 + 9) = {26.25214440668556, 1.539859782368313, 1};
Point(p10 + 10) = {26.15499, 1.547506, 1};
Point(p10 + 11) = {26.05783559331444, 1.539859782368313, 1};
Point(p10 + 12) = {25.96307345055847, 1.517109404727687, 1};
Point(p10 + 13) = {25.87303693018426, 1.479815056879807, 1};
Point(p10 + 14) = {25.7899430301375, 1.428895049441533, 1};
Point(p10 + 15) = {25.71583779801019, 1.365603201989811, 1};
Point(p10 + 16) = {25.65254595055847, 1.291497969862502, 1};
Point(p10 + 17) = {25.60162594312019, 1.208404069815744, 1};
Point(p10 + 18) = {25.56433159527231, 1.118367549441533, 1};
Point(p10 + 19) = {25.54158121763169, 1.023605406685561, 1};
Point(p10 + 20) = {25.533935, 0.9264510000000001, 1};
Point(p10 + 21) = {25.54158121763169, 0.8292965933144395, 1};
Point(p10 + 22) = {25.56433159527231, 0.7345344505584669, 1};
Point(p10 + 23) = {25.60162594312019, 0.6444979301842562, 1};
Point(p10 + 24) = {25.65254595055847, 0.5614040301374982, 1};
Point(p10 + 25) = {25.71583779801019, 0.4872987980101888, 1};
Point(p10 + 26) = {25.7899430301375, 0.424006950558467, 1};
Point(p10 + 27) = {25.87303693018426, 0.3730869431201932, 1};
Point(p10 + 28) = {25.96307345055847, 0.3357925952723134, 1};
Point(p10 + 29) = {26.05783559331444, 0.3130422176316868, 1};
Point(p10 + 30) = {26.15499, 0.305396, 1};
Point(p10 + 31) = {26.25214440668556, 0.3130422176316867, 1};
Point(p10 + 32) = {26.34690654944153, 0.3357925952723133, 1};
Point(p10 + 33) = {26.43694306981575, 0.3730869431201932, 1};
Point(p10 + 34) = {26.5200369698625, 0.4240069505584669, 1};
Point(p10 + 35) = {26.59414220198981, 0.4872987980101887, 1};
Point(p10 + 36) = {26.65743404944153, 0.561404030137498, 1};
Point(p10 + 37) = {26.70835405687981, 0.6444979301842557, 1};
Point(p10 + 38) = {26.74564840472769, 0.7345344505584669, 1};
Point(p10 + 39) = {26.76839878236832, 0.8292965933144393, 1};
Spline(10) = {8, p10 + 1, p10 + 2, p10 + 3, p10 + 4, p10 + 5, p10 + 6, p10 + 7, p10 + 8, p10 + 9, p10 + 10, p10 + 11, p10 + 12, p10 + 13, p10 + 14, p10 + 15, p10 + 16, p10 + 17, p10 + 18, p10 + 19, p10 + 20, p10 + 21, p10 + 22, p10 + 23, p10 + 24, p10 + 25, p10 + 26, p10 + 27, p10 + 28, p10 + 29, p10 + 30, p10 + 31, p10 + 32, p10 + 33, p10 + 34, p10 + 35, p10 + 36, p10 + 37, p10 + 38, p10 + 39, 8};
Line(11) = {4, 9};
Line(12) = {9, 7};
Line(13) = {5, 9};
p14 = newp;
Point(p14 + 1) = {26.76839878236832, 1.023605406685561, 0};
Point(p14 + 2) = {26.74564840472769, 1.118367549441533, 0};
Point(p14 + 3) = {26.70835405687981, 1.208404069815744, 0};
Point(p14 + 4) = {26.65743404944153, 1.291497969862502, 0};
Point(p14 + 5) = {26.59414220198981, 1.365603201989811, 0};
Point(p14 + 6) = {26.5200369698625, 1.428895049441533, 0};
Point(p14 + 7) = {26.43694306981575, 1.479815056879807, 0};
Point(p14 + 8) = {26.34690654944153, 1.517109404727687, 0};
Point(p14 + 9) = {26.25214440668556, 1.539859782368313, 0};
Point(p14 + 10) = {26.15499, 1.547506, 0};
Point(p14 + 11) = {26.05783559331444, 1.539859782368313, 0};
Point(p14 + 12) = {25.96307345055847, 1.517109404727687, 0};
Point(p14 + 13) = {25.87303693018426, 1.479815056879807, 0};
Point(p14 + 14) = {25.7899430301375, 1.428895049441533, 0};
Point(p14 + 15) = {25.71583779801019, 1.365603201989811, 0};
Point(p14 + 16) = {25.65254595055847, 1.291497969862502, 0};
Point(p14 + 17) = {25.60162594312019, 1.208404069815744, 0};
Point(p14 + 18) = {25.56433159527231, 1.118367549441533, 0};
Point(p14 + 19) = {25.54158121763169, 1.023605406685561, 0};
Point(p14 + 20) = {25.533935, 0.9264510000000001, 0};
Point(p14 + 21) = {25.54158121763169, 0.8292965933144395, 0};
Point(p14 + 22) = {25.56433159527231, 0.7345344505584669, 0};
Point(p14 + 23) = {25.60162594312019, 0.6444979301842562, 0};
Point(p14 + 24) = {25.65254595055847, 0.5614040301374982, 0};
Point(p14 + 25) = {25.71583779801019, 0.4872987980101888, 0};
Point(p14 + 26) = {25.7899430301375, 0.424006950558467, 0};
Point(p14 + 27) = {25.87303693018426, 0.3730869431201932, 0};
Point(p14 + 28) = {25.96307345055847, 0.3357925952723134, 0};
Point(p14 + 29) = {26.05783559331444, 0.3130422176316868, 0};
Point(p14 + 30) = {26.15499, 0.305396, 0};
Point(p14 + 31) = {26.25214440668556, 0.3130422176316867, 0};
Point(p14 + 32) = {26.34690654944153, 0.3357925952723133, 0};
Point(p14 + 33) = {26.43694306981575, 0.3730869431201932, 0};
Point(p14 + 34) = {26.5200369698625, 0.4240069505584669, 0};
Point(p14 + 35) = {26.59414220198981, 0.4872987980101887, 0};
Point(p14 + 36) = {26.65743404944153, 0.561404030137498, 0};
Point(p14 + 37) = {26.70835405687981, 0.6444979301842557, 0};
Point(p14 + 38) = {26.74564840472769, 0.7345344505584669, 0};
Point(p14 + 39) = {26.76839878236832, 0.8292965933144393, 0};
Spline(14) = {10, p14 + 1, p14 + 2, p14 + 3, p14 + 4, p14 + 5, p14 + 6, p14 + 7, p14 + 8, p14 + 9, p14 + 10, p14 + 11, p14 + 12, p14 + 13, p14 + 14, p14 + 15, p14 + 16, p14 + 17, p14 + 18, p14 + 19, p14 + 20, p14 + 21, p14 + 22, p14 + 23, p14 + 24, p14 + 25, p14 + 26, p14 + 27, p14 + 28, p14 + 29, p14 + 30, p14 + 31, p14 + 32, p14 + 33, p14 + 34, p14 + 35, p14 + 36, p14 + 37, p14 + 38, p14 + 39, 10};
Line(15) = {10, 8};
Curve Loop(1) = {-1, 4, 3, -2};
Plane Surface(1) = {1};
Curve Loop(2) = {-5, 1, 7, -6};
Plane Surface(2) = {2};
Curve Loop(3) = {-2, 7, 9, -8, -10};
Plane Surface(3) = {3};
Curve Loop(4) = {-11, 3, 8, -12};
Plane Surface(4) = {4};
Curve Loop(5) = {-4, 5, 13, -11, -14};
Plane Surface(5) = {5};
Curve Loop(6) = {-6, 13, 12, -9};
Plane Surface(6) = {6};
Curve Loop(7) = {-10, -15, 14, 15};
Surface(7) = {7};
Surface Loop(1) = {1, 2, 3, 4, 5, 6, 7};
Volume(1) = {1};
Physical Surface("INFLOW") = {1};
Physical Surface("OUTFLOW") = {6};
Physical Surface("OBSTACLE") = {7};
Physical Surface("WALL_Y") = {2, 4};
Physical Surface("WALL_Z") = {3, 5};
Physical Volume("FLUID") = {1};
