cl__1 = 1;
cl__2 = 0.061958;
cl__3 = 0.108107;
Point(1) = {0.417157, -3.564051, 1, cl__1};
Point(2) = {0.417157, -3.564051, 0, cl__1};
Point(3) = {0.417157, 4.547825, 1, cl__1};
Point(4) = {0.417157, 4.547825, 0, cl__1};
Point(5) = {36.878432, -3.564051, 0, cl__1};
Point(6) = {36.878432, -3.564051, 1, cl__1};
Point(7) = {36.878432, 4.547825, 1, cl__1};
Point(8) = {18.175219, 1.575692, 1, cl__2};
Point(9) = {3.541773, 1.991997, 1, cl__3};
Point(10) = {36.878432, 4.547825, 0, cl__1};
Point(11) = {18.175219, 1.575692, 0, cl__2};
Point(12) = {3.541773, 1.991997, 0, cl__3};
Line(1) = {2, 1};
Line(2) = {1, 3};
Line(3) = {4, 3};
Line(4) = {2, 4};
Line(5) = {2, 5};
Line(6) = {5, 6};
Line(7) = {1, 6};
Line(8) = {3, 7};
Line(9) = {6, 7};
p10 = newp;
Point(p10 + 1) = {18.1675908928193, 1.672616291587486, 1};
Point(p10 + 2) = {18.14489440059221, 1.767153985442808, 1};
Point(p10 + 3) = {18.10768838628272, 1.856977249790627, 1};
Point(p10 + 4) = {18.05688898544281, 1.93987433775638, 1};
Point(p10 + 5) = {17.99374704791468, 2.013804047914686, 1};
Point(p10 + 6) = {17.91981733775638, 2.076945985442808, 1};
Point(p10 + 7) = {17.83692024979063, 2.127745386282726, 1};
Point(p10 + 8) = {17.74709698544281, 2.164951400592217, 1};
Point(p10 + 9) = {17.65255929158749, 2.187647892819298, 1};
Point(p10 + 10) = {17.555635, 2.195276, 1};
Point(p10 + 11) = {17.45871070841251, 2.187647892819298, 1};
Point(p10 + 12) = {17.36417301455719, 2.164951400592217, 1};
Point(p10 + 13) = {17.27434975020937, 2.127745386282726, 1};
Point(p10 + 14) = {17.19145266224362, 2.076945985442808, 1};
Point(p10 + 15) = {17.11752295208531, 2.013804047914686, 1};
Point(p10 + 16) = {17.05438101455719, 1.93987433775638, 1};
Point(p10 + 17) = {17.00358161371727, 1.856977249790627, 1};
Point(p10 + 18) = {16.96637559940778, 1.767153985442808, 1};
Point(p10 + 19) = {16.9436791071807, 1.672616291587486, 1};
Point(p10 + 20) = {16.936051, 1.575692, 1};
Point(p10 + 21) = {16.9436791071807, 1.478767708412514, 1};
Point(p10 + 22) = {16.96637559940778, 1.384230014557192, 1};
Point(p10 + 23) = {17.00358161371727, 1.294406750209373, 1};
Point(p10 + 24) = {17.05438101455719, 1.21150966224362, 1};
Point(p10 + 25) = {17.11752295208531, 1.137579952085314, 1};
Point(p10 + 26) = {17.19145266224362, 1.074438014557193, 1};
Point(p10 + 27) = {17.27434975020937, 1.023638613717274, 1};
Point(p10 + 28) = {17.36417301455719, 0.9864325994077837, 1};
Point(p10 + 29) = {17.45871070841251, 0.9637361071807024, 1};
Point(p10 + 30) = {17.555635, 0.9561080000000001, 1};
Point(p10 + 31) = {17.65255929158749, 0.9637361071807022, 1};
Point(p10 + 32) = {17.74709698544281, 0.9864325994077836, 1};
Point(p10 + 33) = {17.83692024979063, 1.023638613717274, 1};
Point(p10 + 34) = {17.91981733775638, 1.074438014557193, 1};
Point(p10 + 35) = {17.99374704791468, 1.137579952085314, 1};
Point(p10 + 36) = {18.05688898544281, 1.21150966224362, 1};
Point(p10 + 37) = {18.10768838628272, 1.294406750209373, 1};
Point(p10 + 38) = {18.14489440059221, 1.384230014557193, 1};
Point(p10 + 39) = {18.1675908928193, 1.478767708412513, 1};
Spline(10) = {8, p10 + 1, p10 + 2, p10 + 3, p10 + 4, p10 + 5, p10 + 6, p10 + 7, p10 + 8, p10 + 9, p10 + 10, p10 + 11, p10 + 12, p10 + 13, p10 + 14, p10 + 15, p10 + 16, p10 + 17, p10 + 18, p10 + 19, p10 + 20, p10 + 21, p10 + 22, p10 + 23, p10 + 24, p10 + 25, p10 + 26, p10 + 27, p10 + 28, p10 + 29, p10 + 30, p10 + 31, p10 + 32, p10 + 33, p10 + 34, p10 + 35, p10 + 36, p10 + 37, p10 + 38, p10 + 39, 8};
p11 = newp;
Point(p11 + 1) = {3.528463283613823, 2.161112981383182, 1};
Point(p11 + 2) = {3.488861863845137, 2.326064766040947, 1};
Point(p11 + 3) = {3.423943859078222, 2.482790693591433, 1};
Point(p11 + 4) = {3.335307766040947, 2.627431651554815, 1};
Point(p11 + 5) = {3.225136099510217, 2.756426099510216, 1};
Point(p11 + 6) = {3.096141651554815, 2.866597766040947, 1};
Point(p11 + 7) = {2.951500693591433, 2.955233859078222, 1};
Point(p11 + 8) = {2.794774766040947, 3.020151863845137, 1};
Point(p11 + 9) = {2.629822981383183, 3.059753283613823, 1};
Point(p11 + 10) = {2.460707, 3.073063, 1};
Point(p11 + 11) = {2.291591018616818, 3.059753283613823, 1};
Point(p11 + 12) = {2.126639233959053, 3.020151863845137, 1};
Point(p11 + 13) = {1.969913306408567, 2.955233859078222, 1};
Point(p11 + 14) = {1.825272348445186, 2.866597766040947, 1};
Point(p11 + 15) = {1.696277900489784, 2.756426099510216, 1};
Point(p11 + 16) = {1.586106233959053, 2.627431651554815, 1};
Point(p11 + 17) = {1.497470140921778, 2.482790693591433, 1};
Point(p11 + 18) = {1.432552136154864, 2.326064766040947, 1};
Point(p11 + 19) = {1.392950716386177, 2.161112981383182, 1};
Point(p11 + 20) = {1.379641, 1.991997, 1};
Point(p11 + 21) = {1.392950716386177, 1.822881018616818, 1};
Point(p11 + 22) = {1.432552136154864, 1.657929233959053, 1};
Point(p11 + 23) = {1.497470140921778, 1.501203306408568, 1};
Point(p11 + 24) = {1.586106233959053, 1.356562348445185, 1};
Point(p11 + 25) = {1.696277900489784, 1.227567900489784, 1};
Point(p11 + 26) = {1.825272348445185, 1.117396233959053, 1};
Point(p11 + 27) = {1.969913306408567, 1.028760140921778, 1};
Point(p11 + 28) = {2.126639233959053, 0.9638421361548635, 1};
Point(p11 + 29) = {2.291591018616818, 0.9242407163861768, 1};
Point(p11 + 30) = {2.460707, 0.9109309999999999, 1};
Point(p11 + 31) = {2.629822981383182, 0.9242407163861768, 1};
Point(p11 + 32) = {2.794774766040947, 0.9638421361548635, 1};
Point(p11 + 33) = {2.951500693591433, 1.028760140921778, 1};
Point(p11 + 34) = {3.096141651554815, 1.117396233959053, 1};
Point(p11 + 35) = {3.225136099510216, 1.227567900489784, 1};
Point(p11 + 36) = {3.335307766040947, 1.356562348445185, 1};
Point(p11 + 37) = {3.423943859078222, 1.501203306408567, 1};
Point(p11 + 38) = {3.488861863845137, 1.657929233959053, 1};
Point(p11 + 39) = {3.528463283613823, 1.822881018616818, 1};
Spline(11) = {9, p11 + 1, p11 + 2, p11 + 3, p11 + 4, p11 + 5, p11 + 6, p11 + 7, p11 + 8, p11 + 9, p11 + 10, p11 + 11, p11 + 12, p11 + 13, p11 + 14, p11 + 15, p11 + 16, p11 + 17, p11 + 18, p11 + 19, p11 + 20, p11 + 21, p11 + 22, p11 + 23, p11 + 24, p11 + 25, p11 + 26, p11 + 27, p11 + 28, p11 + 29, p11 + 30, p11 + 31, p11 + 32, p11 + 33, p11 + 34, p11 + 35, p11 + 36, p11 + 37, p11 + 38, p11 + 39, 9};
Line(12) = {4, 10};
Line(13) = {10, 7};
Line(14) = {5, 10};
p15 = newp;
Point(p15 + 1) = {18.1675908928193, 1.672616291587486, 0};
Point(p15 + 2) = {18.14489440059221, 1.767153985442808, 0};
Point(p15 + 3) = {18.10768838628272, 1.856977249790627, 0};
Point(p15 + 4) = {18.05688898544281, 1.93987433775638, 0};
Point(p15 + 5) = {17.99374704791468, 2.013804047914686, 0};
Point(p15 + 6) = {17.91981733775638, 2.076945985442808, 0};
Point(p15 + 7) = {17.83692024979063, 2.127745386282726, 0};
Point(p15 + 8) = {17.74709698544281, 2.164951400592217, 0};
Point(p15 + 9) = {17.65255929158749, 2.187647892819298, 0};
Point(p15 + 10) = {17.555635, 2.195276, 0};
Point(p15 + 11) = {17.45871070841251, 2.187647892819298, 0};
Point(p15 + 12) = {17.36417301455719, 2.164951400592217, 0};
Point(p15 + 13) = {17.27434975020937, 2.127745386282726, 0};
Point(p15 + 14) = {17.19145266224362, 2.076945985442808, 0};
Point(p15 + 15) = {17.11752295208531, 2.013804047914686, 0};
Point(p15 + 16) = {17.05438101455719, 1.93987433775638, 0};
Point(p15 + 17) = {17.00358161371727, 1.856977249790627, 0};
Point(p15 + 18) = {16.96637559940778, 1.767153985442808, 0};
Point(p15 + 19) = {16.9436791071807, 1.672616291587486, 0};
Point(p15 + 20) = {16.936051, 1.575692, 0};
Point(p15 + 21) = {16.9436791071807, 1.478767708412514, 0};
Point(p15 + 22) = {16.96637559940778, 1.384230014557192, 0};
Point(p15 + 23) = {17.00358161371727, 1.294406750209373, 0};
Point(p15 + 24) = {17.05438101455719, 1.21150966224362, 0};
Point(p15 + 25) = {17.11752295208531, 1.137579952085314, 0};
Point(p15 + 26) = {17.19145266224362, 1.074438014557193, 0};
Point(p15 + 27) = {17.27434975020937, 1.023638613717274, 0};
Point(p15 + 28) = {17.36417301455719, 0.9864325994077837, 0};
Point(p15 + 29) = {17.45871070841251, 0.9637361071807024, 0};
Point(p15 + 30) = {17.555635, 0.9561080000000001, 0};
Point(p15 + 31) = {17.65255929158749, 0.9637361071807022, 0};
Point(p15 + 32) = {17.74709698544281, 0.9864325994077836, 0};
Point(p15 + 33) = {17.83692024979063, 1.023638613717274, 0};
Point(p15 + 34) = {17.91981733775638, 1.074438014557193, 0};
Point(p15 + 35) = {17.99374704791468, 1.137579952085314, 0};
Point(p15 + 36) = {18.05688898544281, 1.21150966224362, 0};
Point(p15 + 37) = {18.10768838628272, 1.294406750209373, 0};
Point(p15 + 38) = {18.14489440059221, 1.384230014557193, 0};
Point(p15 + 39) = {18.1675908928193, 1.478767708412513, 0};
Spline(15) = {11, p15 + 1, p15 + 2, p15 + 3, p15 + 4, p15 + 5, p15 + 6, p15 + 7, p15 + 8, p15 + 9, p15 + 10, p15 + 11, p15 + 12, p15 + 13, p15 + 14, p15 + 15, p15 + 16, p15 + 17, p15 + 18, p15 + 19, p15 + 20, p15 + 21, p15 + 22, p15 + 23, p15 + 24, p15 + 25, p15 + 26, p15 + 27, p15 + 28, p15 + 29, p15 + 30, p15 + 31, p15 + 32, p15 + 33, p15 + 34, p15 + 35, p15 + 36, p15 + 37, p15 + 38, p15 + 39, 11};
p16 = newp;
Point(p16 + 1) = {3.528463283613823, 2.161112981383182, 0};
Point(p16 + 2) = {3.488861863845137, 2.326064766040947, 0};
Point(p16 + 3) = {3.423943859078222, 2.482790693591433, 0};
Point(p16 + 4) = {3.335307766040947, 2.627431651554815, 0};
Point(p16 + 5) = {3.225136099510217, 2.756426099510216, 0};
Point(p16 + 6) = {3.096141651554815, 2.866597766040947, 0};
Point(p16 + 7) = {2.951500693591433, 2.955233859078222, 0};
Point(p16 + 8) = {2.794774766040947, 3.020151863845137, 0};
Point(p16 + 9) = {2.629822981383183, 3.059753283613823, 0};
Point(p16 + 10) = {2.460707, 3.073063, 0};
Point(p16 + 11) = {2.291591018616818, 3.059753283613823, 0};
Point(p16 + 12) = {2.126639233959053, 3.020151863845137, 0};
Point(p16 + 13) = {1.969913306408567, 2.955233859078222, 0};
Point(p16 + 14) = {1.825272348445186, 2.866597766040947, 0};
Point(p16 + 15) = {1.696277900489784, 2.756426099510216, 0};
Point(p16 + 16) = {1.586106233959053, 2.627431651554815, 0};
Point(p16 + 17) = {1.497470140921778, 2.482790693591433, 0};
Point(p16 + 18) = {1.432552136154864, 2.326064766040947, 0};
Point(p16 + 19) = {1.392950716386177, 2.161112981383182, 0};
Point(p16 + 20) = {1.379641, 1.991997, 0};
Point(p16 + 21) = {1.392950716386177, 1.822881018616818, 0};
Point(p16 + 22) = {1.432552136154864, 1.657929233959053, 0};
Point(p16 + 23) = {1.497470140921778, 1.501203306408568, 0};
Point(p16 + 24) = {1.586106233959053, 1.356562348445185, 0};
Point(p16 + 25) = {1.696277900489784, 1.227567900489784, 0};
Point(p16 + 26) = {1.825272348445185, 1.117396233959053, 0};
Point(p16 + 27) = {1.969913306408567, 1.028760140921778, 0};
Point(p16 + 28) = {2.126639233959053, 0.9638421361548635, 0};
Point(p16 + 29) = {2.291591018616818, 0.9242407163861768, 0};
Point(p16 + 30) = {2.460707, 0.9109309999999999, 0};
Point(p16 + 31) = {2.629822981383182, 0.9242407163861768, 0};
Point(p16 + 32) = {2.794774766040947, 0.9638421361548635, 0};
Point(p16 + 33) = {2.951500693591433, 1.028760140921778, 0};
Point(p16 + 34) = {3.096141651554815, 1.117396233959053, 0};
Point(p16 + 35) = {3.225136099510216, 1.227567900489784, 0};
Point(p16 + 36) = {3.335307766040947, 1.356562348445185, 0};
Point(p16 + 37) = {3.423943859078222, 1.501203306408567, 0};
Point(p16 + 38) = {3.488861863845137, 1.657929233959053, 0};
Point(p16 + 39) = {3.528463283613823, 1.822881018616818, 0};
Spline(16) = {12, p16 + 1, p16 + 2, p16 + 3, p16 + 4, p16 + 5, p16 + 6, p16 + 7, p16 + 8, p16 + 9, p16 + 10, p16 + 11, p16 + 12, p16 + 13, p16 + 14, p16 + 15, p16 + 16, p16 + 17, p16 + 18, p16 + 19, p16 + 20, p16 + 21, p16 + 22, p16 + 23, p16 + 24, p16 + 25, p16 + 26, p16 + 27, p16 + 28, p16 + 29, p16 + 30, p16 + 31, p16 + 32, p16 + 33, p16 + 34, p16 + 35, p16 + 36, p16 + 37, p16 + 38, p16 + 39, 12};
Line(17) = {11, 8};
Line(18) = {12, 9};
Curve Loop(1) = {-1, 4, 3, -2};
Plane Surface(1) = {1};
Curve Loop(2) = {-5, 1, 7, -6};
Plane Surface(2) = {2};
Curve Loop(3) = {-2, 7, 9, -8, -10, -11};
Plane Surface(3) = {3};
Curve Loop(4) = {-12, 3, 8, -13};
Plane Surface(4) = {4};
Curve Loop(5) = {-4, 5, 14, -12, -15, -16};
Plane Surface(5) = {5};
Curve Loop(6) = {-6, 14, 13, -9};
Plane Surface(6) = {6};
Curve Loop(7) = {-10, -17, 15, 17};
Surface(7) = {7};
Curve Loop(8) = {-11, -18, 16, 18};
Surface(8) = {8};
Surface Loop(1) = {1, 2, 3, 4, 5, 6, 7, 8};
Volume(1) = {1};
Physical Surface("INFLOW") = {1};
Physical Surface("OUTFLOW") = {6};
Physical Surface("OBSTACLE") = {7, 8};
Physical Surface("WALL_Y") = {2, 4};
Physical Surface("WALL_Z") = {3, 5};
Physical Volume("FLUID") = {1};
