cl__1 = 3.418089;
cl__2 = 0.873157;
cl__3 = 0.854003;
cl__4 = 0.054434;
cl__5 = 0.12715;
Point(1) = {0.988331, -3.783517, 1, cl__1};
Point(2) = {0.988331, -3.783517, 0, cl__1};
Point(3) = {0.988331, 4.891821, 1, cl__1};
Point(4) = {0.988331, 4.891821, 0, cl__1};
Point(5) = {33.904537, -3.783517, 0, cl__2};
Point(6) = {33.904537, -3.783517, 1, cl__2};
Point(7) = {33.904537, 4.891821, 1, cl__3};
Point(8) = {25.470511, -1.452958, 1, cl__4};
Point(9) = {26.121527, 1.112672, 1, cl__5};
Point(10) = {33.904537, 4.891821, 0, cl__3};
Point(11) = {25.470511, -1.452958, 0, cl__4};
Point(12) = {26.121527, 1.112672, 0, cl__5};
Line(1) = {2, 1};
Line(2) = {1, 3};
Line(3) = {4, 3};
Line(4) = {2, 4};
Line(5) = {2, 5};
Line(6) = {5, 6};
Line(7) = {1, 6};
Line(8) = {3, 7};
Line(9) = {6, 7};
p10 = newp;
Point(p10 + 1) = {25.4638093205662, -1.367805089037861, 1};
Point(p10 + 2) = {25.44386929985404, -1.284748925349918, 1};
Point(p10 + 3) = {25.4111819273506, -1.205834627333774, 1};
Point(p10 + 4) = {25.36655207465008, -1.133005326908124, 1};
Point(p10 + 5) = {25.31107867684396, -1.068054323156039, 1};
Point(p10 + 6) = {25.24612767309188, -1.012580925349919, 1};
Point(p10 + 7) = {25.17329837266623, -0.9679510726494005, 1};
Point(p10 + 8) = {25.09438407465008, -0.9352637001459613, 1};
Point(p10 + 9) = {25.01132791096214, -0.915323679433805, 1};
Point(p10 + 10) = {24.926175, -0.9086219999999999, 1};
Point(p10 + 11) = {24.84102208903786, -0.9153236794338051, 1};
Point(p10 + 12) = {24.75796592534992, -0.9352637001459612, 1};
Point(p10 + 13) = {24.67905162733377, -0.9679510726494005, 1};
Point(p10 + 14) = {24.60622232690812, -1.012580925349919, 1};
Point(p10 + 15) = {24.54127132315604, -1.068054323156039, 1};
Point(p10 + 16) = {24.48579792534992, -1.133005326908124, 1};
Point(p10 + 17) = {24.4411680726494, -1.205834627333774, 1};
Point(p10 + 18) = {24.40848070014596, -1.284748925349918, 1};
Point(p10 + 19) = {24.38854067943381, -1.367805089037861, 1};
Point(p10 + 20) = {24.381839, -1.452958, 1};
Point(p10 + 21) = {24.38854067943381, -1.538110910962139, 1};
Point(p10 + 22) = {24.40848070014596, -1.621167074650081, 1};
Point(p10 + 23) = {24.4411680726494, -1.700081372666226, 1};
Point(p10 + 24) = {24.48579792534992, -1.772910673091876, 1};
Point(p10 + 25) = {24.54127132315604, -1.837861676843961, 1};
Point(p10 + 26) = {24.60622232690812, -1.893335074650081, 1};
Point(p10 + 27) = {24.67905162733377, -1.937964927350599, 1};
Point(p10 + 28) = {24.75796592534992, -1.970652299854039, 1};
Point(p10 + 29) = {24.84102208903786, -1.990592320566195, 1};
Point(p10 + 30) = {24.926175, -1.997294, 1};
Point(p10 + 31) = {25.01132791096214, -1.990592320566195, 1};
Point(p10 + 32) = {25.09438407465008, -1.970652299854039, 1};
Point(p10 + 33) = {25.17329837266623, -1.937964927350599, 1};
Point(p10 + 34) = {25.24612767309188, -1.893335074650081, 1};
Point(p10 + 35) = {25.31107867684396, -1.837861676843961, 1};
Point(p10 + 36) = {25.36655207465008, -1.772910673091876, 1};
Point(p10 + 37) = {25.4111819273506, -1.700081372666226, 1};
Point(p10 + 38) = {25.44386929985404, -1.621167074650081, 1};
Point(p10 + 39) = {25.4638093205662, -1.538110910962139, 1};
Spline(10) = {8, p10 + 1, p10 + 2, p10 + 3, p10 + 4, p10 + 5, p10 + 6, p10 + 7, p10 + 8, p10 + 9, p10 + 10, p10 + 11, p10 + 12, p10 + 13, p10 + 14, p10 + 15, p10 + 16, p10 + 17, p10 + 18, p10 + 19, p10 + 20, p10 + 21, p10 + 22, p10 + 23, p10 + 24, p10 + 25, p10 + 26, p10 + 27, p10 + 28, p10 + 29, p10 + 30, p10 + 31, p10 + 32, p10 + 33, p10 + 34, p10 + 35, p10 + 36, p10 + 37, p10 + 38, p10 + 39, 8};
p11 = newp;
Point(p11 + 1) = {26.10587271275506, 1.311578578733119, 1};
Point(p11 + 2) = {26.0592953115258, 1.50558741736474, 1};
Point(p11 + 3) = {25.98294168651204, 1.689921374409334, 1};
Point(p11 + 4) = {25.87869191736474, 1.860041536075132, 1};
Point(p11 + 5) = {25.74911297938548, 2.011758979385476, 1};
Point(p11 + 6) = {25.59739553607513, 2.14133791736474, 1};
Point(p11 + 7) = {25.42727537440933, 2.245587686512034, 1};
Point(p11 + 8) = {25.24294141736474, 2.321941311525804, 1};
Point(p11 + 9) = {25.04893257873312, 2.368518712755058, 1};
Point(p11 + 10) = {24.850026, 2.384173, 1};
Point(p11 + 11) = {24.65111942126688, 2.368518712755058, 1};
Point(p11 + 12) = {24.45711058263526, 2.321941311525804, 1};
Point(p11 + 13) = {24.27277662559067, 2.245587686512034, 1};
Point(p11 + 14) = {24.10265646392487, 2.14133791736474, 1};
Point(p11 + 15) = {23.95093902061452, 2.011758979385477, 1};
Point(p11 + 16) = {23.82136008263526, 1.860041536075132, 1};
Point(p11 + 17) = {23.71711031348796, 1.689921374409334, 1};
Point(p11 + 18) = {23.64075668847419, 1.50558741736474, 1};
Point(p11 + 19) = {23.59417928724494, 1.311578578733119, 1};
Point(p11 + 20) = {23.578525, 1.112672, 1};
Point(p11 + 21) = {23.59417928724494, 0.9137654212668818, 1};
Point(p11 + 22) = {23.64075668847419, 0.7197565826352597, 1};
Point(p11 + 23) = {23.71711031348796, 0.5354226255906673, 1};
Point(p11 + 24) = {23.82136008263526, 0.3653024639248683, 1};
Point(p11 + 25) = {23.95093902061452, 0.2135850206145238, 1};
Point(p11 + 26) = {24.10265646392487, 0.08400608263526022, 1};
Point(p11 + 27) = {24.27277662559067, -0.02024368651203368, 1};
Point(p11 + 28) = {24.45711058263526, -0.09659731152580386, 1};
Point(p11 + 29) = {24.65111942126688, -0.143174712755058, 1};
Point(p11 + 30) = {24.850026, -0.1588289999999999, 1};
Point(p11 + 31) = {25.04893257873312, -0.1431747127550582, 1};
Point(p11 + 32) = {25.24294141736474, -0.09659731152580409, 1};
Point(p11 + 33) = {25.42727537440933, -0.0202436865120339, 1};
Point(p11 + 34) = {25.59739553607513, 0.08400608263525999, 1};
Point(p11 + 35) = {25.74911297938548, 0.2135850206145236, 1};
Point(p11 + 36) = {25.87869191736474, 0.365302463924868, 1};
Point(p11 + 37) = {25.98294168651204, 0.5354226255906664, 1};
Point(p11 + 38) = {26.0592953115258, 0.7197565826352599, 1};
Point(p11 + 39) = {26.10587271275506, 0.9137654212668812, 1};
Spline(11) = {9, p11 + 1, p11 + 2, p11 + 3, p11 + 4, p11 + 5, p11 + 6, p11 + 7, p11 + 8, p11 + 9, p11 + 10, p11 + 11, p11 + 12, p11 + 13, p11 + 14, p11 + 15, p11 + 16, p11 + 17, p11 + 18, p11 + 19, p11 + 20, p11 + 21, p11 + 22, p11 + 23, p11 + 24, p11 + 25, p11 + 26, p11 + 27, p11 + 28, p11 + 29, p11 + 30, p11 + 31, p11 + 32, p11 + 33, p11 + 34, p11 + 35, p11 + 36, p11 + 37, p11 + 38, p11 + 39, 9};
Line(12) = {4, 10};
Line(13) = {10, 7};
Line(14) = {5, 10};
p15 = newp;
Point(p15 + 1) = {25.4638093205662, -1.367805089037861, 0};
Point(p15 + 2) = {25.44386929985404, -1.284748925349918, 0};
Point(p15 + 3) = {25.4111819273506, -1.205834627333774, 0};
Point(p15 + 4) = {25.36655207465008, -1.133005326908124, 0};
Point(p15 + 5) = {25.31107867684396, -1.068054323156039, 0};
Point(p15 + 6) = {25.24612767309188, -1.012580925349919, 0};
Point(p15 + 7) = {25.17329837266623, -0.9679510726494005, 0};
Point(p15 + 8) = {25.09438407465008, -0.9352637001459613, 0};
Point(p15 + 9) = {25.01132791096214, -0.915323679433805, 0};
Point(p15 + 10) = {24.926175, -0.9086219999999999, 0};
Point(p15 + 11) = {24.84102208903786, -0.9153236794338051, 0};
Point(p15 + 12) = {24.75796592534992, -0.9352637001459612, 0};
Point(p15 + 13) = {24.67905162733377, -0.9679510726494005, 0};
Point(p15 + 14) = {24.60622232690812, -1.012580925349919, 0};
Point(p15 + 15) = {24.54127132315604, -1.068054323156039, 0};
Point(p15 + 16) = {24.48579792534992, -1.133005326908124, 0};
Point(p15 + 17) = {24.4411680726494, -1.205834627333774, 0};
Point(p15 + 18) = {24.40848070014596, -1.284748925349918, 0};
Point(p15 + 19) = {24.38854067943381, -1.367805089037861, 0};
Point(p15 + 20) = {24.381839, -1.452958, 0};
Point(p15 + 21) = {24.38854067943381, -1.538110910962139, 0};
Point(p15 + 22) = {24.40848070014596, -1.621167074650081, 0};
Point(p15 + 23) = {24.4411680726494, -1.700081372666226, 0};
Point(p15 + 24) = {24.48579792534992, -1.772910673091876, 0};
Point(p15 + 25) = {24.54127132315604, -1.837861676843961, 0};
Point(p15 + 26) = {24.60622232690812, -1.893335074650081, 0};
Point(p15 + 27) = {24.67905162733377, -1.937964927350599, 0};
Point(p15 + 28) = {24.75796592534992, -1.970652299854039, 0};
Point(p15 + 29) = {24.84102208903786, -1.990592320566195, 0};
Point(p15 + 30) = {24.926175, -1.997294, 0};
Point(p15 + 31) = {25.01132791096214, -1.990592320566195, 0};
Point(p15 + 32) = {25.09438407465008, -1.970652299854039, 0};
Point(p15 + 33) = {25.17329837266623, -1.937964927350599, 0};
Point(p15 + 34) = {25.24612767309188, -1.893335074650081, 0};
Point(p15 + 35) = {25.31107867684396, -1.837861676843961, 0};
Point(p15 + 36) = {25.36655207465008, -1.772910673091876, 0};
Point(p15 + 37) = {25.4111819273506, -1.700081372666226, 0};
Point(p15 + 38) = {25.44386929985404, -1.621167074650081, 0};
Point(p15 + 39) = {25.4638093205662, -1.538110910962139, 0};
Spline(15) = {11, p15 + 1, p15 + 2, p15 + 3, p15 + 4, p15 + 5, p15 + 6, p15 + 7, p15 + 8, p15 + 9, p15 + 10, p15 + 11, p15 + 12, p15 + 13, p15 + 14, p15 + 15, p15 + 16, p15 + 17, p15 + 18, p15 + 19, p15 + 20, p15 + 21, p15 + 22, p15 + 23, p15 + 24, p15 + 25, p15 + 26, p15 + 27, p15 + 28, p15 + 29, p15 + 30, p15 + 31, p15 + 32, p15 + 33, p15 + 34, p15 + 35, p15 + 36, p15 + 37, p15 + 38, p15 + 39, 11};
p16 = newp;
Point(p16 + 1) = {26.10587271275506, 1.311578578733119, 0};
Point(p16 + 2) = {26.0592953115258, 1.50558741736474, 0};
Point(p16 + 3) = {25.98294168651204, 1.689921374409334, 0};
Point(p16 + 4) = {25.87869191736474, 1.860041536075132, 0};
Point(p16 + 5) = {25.74911297938548, 2.011758979385476, 0};
Point(p16 + 6) = {25.59739553607513, 2.14133791736474, 0};
Point(p16 + 7) = {25.42727537440933, 2.245587686512034, 0};
Point(p16 + 8) = {25.24294141736474, 2.321941311525804, 0};
Point(p16 + 9) = {25.04893257873312, 2.368518712755058, 0};
Point(p16 + 10) = {24.850026, 2.384173, 0};
Point(p16 + 11) = {24.65111942126688, 2.368518712755058, 0};
Point(p16 + 12) = {24.45711058263526, 2.321941311525804, 0};
Point(p16 + 13) = {24.27277662559067, 2.245587686512034, 0};
Point(p16 + 14) = {24.10265646392487, 2.14133791736474, 0};
Point(p16 + 15) = {23.95093902061452, 2.011758979385477, 0};
Point(p16 + 16) = {23.82136008263526, 1.860041536075132, 0};
Point(p16 + 17) = {23.71711031348796, 1.689921374409334, 0};
Point(p16 + 18) = {23.64075668847419, 1.50558741736474, 0};
Point(p16 + 19) = {23.59417928724494, 1.311578578733119, 0};
Point(p16 + 20) = {23.578525, 1.112672, 0};
Point(p16 + 21) = {23.59417928724494, 0.9137654212668818, 0};
Point(p16 + 22) = {23.64075668847419, 0.7197565826352597, 0};
Point(p16 + 23) = {23.71711031348796, 0.5354226255906673, 0};
Point(p16 + 24) = {23.82136008263526, 0.3653024639248683, 0};
Point(p16 + 25) = {23.95093902061452, 0.2135850206145238, 0};
Point(p16 + 26) = {24.10265646392487, 0.08400608263526022, 0};
Point(p16 + 27) = {24.27277662559067, -0.02024368651203368, 0};
Point(p16 + 28) = {24.45711058263526, -0.09659731152580386, 0};
Point(p16 + 29) = {24.65111942126688, -0.143174712755058, 0};
Point(p16 + 30) = {24.850026, -0.1588289999999999, 0};
Point(p16 + 31) = {25.04893257873312, -0.1431747127550582, 0};
Point(p16 + 32) = {25.24294141736474, -0.09659731152580409, 0};
Point(p16 + 33) = {25.42727537440933, -0.0202436865120339, 0};
Point(p16 + 34) = {25.59739553607513, 0.08400608263525999, 0};
Point(p16 + 35) = {25.74911297938548, 0.2135850206145236, 0};
Point(p16 + 36) = {25.87869191736474, 0.365302463924868, 0};
Point(p16 + 37) = {25.98294168651204, 0.5354226255906664, 0};
Point(p16 + 38) = {26.0592953115258, 0.7197565826352599, 0};
Point(p16 + 39) = {26.10587271275506, 0.9137654212668812, 0};
Spline(16) = {12, p16 + 1, p16 + 2, p16 + 3, p16 + 4, p16 + 5, p16 + 6, p16 + 7, p16 + 8, p16 + 9, p16 + 10, p16 + 11, p16 + 12, p16 + 13, p16 + 14, p16 + 15, p16 + 16, p16 + 17, p16 + 18, p16 + 19, p16 + 20, p16 + 21, p16 + 22, p16 + 23, p16 + 24, p16 + 25, p16 + 26, p16 + 27, p16 + 28, p16 + 29, p16 + 30, p16 + 31, p16 + 32, p16 + 33, p16 + 34, p16 + 35, p16 + 36, p16 + 37, p16 + 38, p16 + 39, 12};
Line(17) = {11, 8};
Line(18) = {12, 9};
Curve Loop(1) = {-1, 4, 3, -2};
Plane Surface(1) = {1};
Curve Loop(2) = {-5, 1, 7, -6};
Plane Surface(2) = {2};
Curve Loop(3) = {-2, 7, 9, -8, -10, -11};
Plane Surface(3) = {3};
Curve Loop(4) = {-12, 3, 8, -13};
Plane Surface(4) = {4};
Curve Loop(5) = {-4, 5, 14, -12, -15, -16};
Plane Surface(5) = {5};
Curve Loop(6) = {-6, 14, 13, -9};
Plane Surface(6) = {6};
Curve Loop(7) = {-10, -17, 15, 17};
Surface(7) = {7};
Curve Loop(8) = {-11, -18, 16, 18};
Surface(8) = {8};
Surface Loop(1) = {1, 2, 3, 4, 5, 6, 7, 8};
Volume(1) = {1};
Physical Surface("INFLOW") = {1};
Physical Surface("OUTFLOW") = {6};
Physical Surface("OBSTACLE") = {7, 8};
Physical Surface("WALL_Y") = {2, 4};
Physical Surface("WALL_Z") = {3, 5};
Physical Volume("FLUID") = {1};
